<svg xmlns="http://www.w3.org/2000/svg" width="400" height="173.889"><path d="M127.344 152.055v-.39l.39-.39v-.39l.39-.39.392-.39.39-.78-.39-.39.39-.39v-.78l.39-.388v-2.34l-.78-.39-.39-.78h.78v.39l3.907-.39v-.39h.39l1.172-.39h.39v-.39h.782l.39-.39h.782l.78-1.17h.39l-.39-.388h.78v-.39h.392v-.39l.39-.39v-.39h.39l-.39-.78.39-.39v-.78h.392v-.39h-.39v-.39h-.39v-1.95l-.392.39v-.78l-.39-.39-.39-.39h-.392l-.39-.39v-.39l-2.735-1.17h-.78V131l-2.736.39-.782.39h-.78v.39h-.392l.39.39v.78h-.39v.39l.78.78h4.298l1.953 1.17v.78l-.39.78-.78.78-.783.39-.78.39v.39h-.782v.39h-.78l-1.173.39-3.126.39-.39-.39-.782-.39-1.172-.39h-.39v.39h-.39v.78h.39v.39h-.39l.39.778v.39h.39v.39l.78.78.392.39h-.39v.39l-.39.39v.39H125v.39l-.39.39v.39l-.39.39v.39l-.392.39v.39l-.39.388-.39 1.17v.39l-.392.39.39.39-.39.39v.78l-.78 1.56h-.392v.39l-.39.39-.39.39h-.39l-1.173 1.168h-.39l-.39.39h-.39l-.783.78h-.78v.39h-.782.39l-.78.39h-1.172v.39h-.39v-1.56h.39v-.78h.39l-.39-.78 1.17-1.56v-.78l.392-1.168v-.78.39l.39-.78.39-.39v-.78h.392l-.39-.78h.39v-.78l.39-.39-.39-2.728-.39-.39-.39-.78h-.783l-.39-.78h-.39l-.782-.39h-1.563v.39h-.782v.39h-1.562.39l-.78.39-1.173.78v-1.56h.39l-.39-1.17h.39v-1.56h.39l-.39-.78h.39v-1.558l-.39-4.29-.39-1.56-.39-.388v-.78l-.39-.39v-.78.39l-.782-1.17-.39-.39-.78-.78-.392-.39v-.39h-.39l-.39-.39H103.125l-.782-.39H99.61v.39h-.782l-.39.39-.782.39v.39h-.78v.39l-1.173.78v.78h-.39l-.39.39-.392.78-.39.39v1.17h.39v1.56l.782.78h.782l.78-.78.392-1.17 1.562-1.56h.39l.39-.39h.783v-.78h.782l1.172-.39H103.516l.39.78h.39v.39h.392v.39l.39.78v.78h.39l.39 4.288h-.39l.39 1.17h-.39v1.95h-.39l.39.78-.39.39h-.39l.39.778h-.39V143.088l-.782.78v.78l-.78 1.56v.78h-.392l.39.39h-.78v.388l-.39.39-.392.78h-.39v.39l-1.172 1.17v-.39.39l-.39.39h-.39l-.392 1.17-.39.39-.782.39-.39.78v.39h-.39l-.392 1.168-.78.78-.392 1.17v.39l-1.17 1.95v.78l.39.39h.39v.778l.39.78h.782v.39h.39v-.39h.782l-.39-.39 1.17-.39v-.39h.392v-.39l.39-.39h.39v-.39l.39-.39.392-.78.39-.39.39-.778.392-.39.39-.39h.39l-.39-.39 1.563-1.95v-.39l.39-.39v-.39l.39-.39v-.39h.392v-.39l.39-.39v-.39l.39-.388.392-.78v-.78l.39-.39h.39v-.39l.39-.39.39-.39.392-.39.39-.39h.782l.39-.39.39-.39v-.39h.782l.782-.39.39-.39h2.344v1.56h-.39v.78h-.39l.39.39-.39.39v.78l-.392.39v1.17h-.39v.78l-.39.78v.39l-.782.39v1.17l-.39.39V155.563h-.392v1.95h.39v.78h.392v.78h.39v.78l.78.39.783.39v.39H115.626v-.39h1.172v-.39h.78l.782-.39.78-.39h.782l1.562-1.56v-.39h.782l.78-.78h.39l.783.78h.39v.39h.39v.39h.39v.39l.39.39h.392v.39l1.953-.39.39-.78v-.78h-.39v-.39h-.39l-.39-.39h-.392l-.39-.39-.39-.39-.392-.39v-1.17l.392-.78.39-.39.39-.78.392-.39zm93.36-12.866l3.124-.39v.39H225.39v.78l-.39.39-.39.39v.388l-.782 1.17-.78 1.17v.39l-.782.78.39.39h-.39l-.39.39-.392.39v.78l-.39.39-.39.39v.778l-.39.39-.392.39-3.516.39v-.39h-.78.39l-1.563-.39-.78-1.17v-.78h-.392V144.647l.392-.778.39-.78.39-.39.392-.39.39-.39v-.39h.39l.782-.78h.39l.782-.39h.39v-.39h.782-.39l1.17-.39 1.173-.39zm18.75-3.12h.39l-.39-1.17v-.39h-.392l-.78-1.17h-1.173l-1.172 1.56v.39l-.782.39-.78 1.56-.392.39v.39l-.78 1.17v.78l-.782 1.168h-.39l-.782-1.17v-.78h-.39l-.39-.39v-1.17l-.783-.388h-.78v-.39l-.39-.39-.783-.39h-.39l-.39-.39-.782-.39H224.61v-.39l-1.563.39-.39-.39-3.516.39-1.17.39-.392.39h-1.172l-.78.78h-.782v.39h-.39v.39h-.39l-.783.78-.78 1.17-.78.78-.782.778v.78l-.39.39v1.95h-.392l.39 2.73h.392v.778l.39 1.17.39.78v.39h.39l.392.39.39.39.39.39h.392l.39.39.39.39v.39h.782l.782.39 1.562-.39v.39h.39v.78l-.39.39.39.778-.39-.39-1.172 3.12v.39l-.39.78h-.39v.78l-.392 1.17-.39.778-.39.39v.78l-.39.39v.78h-.392v.78l-.39 1.56-.39.39v.78l-.392.39v2.338h-.39v1.17l.39.39v.39h.39v.39l.39.39h1.173v-.39h.39v-2.34l.39-.78v-1.17h.392v-.78h.39v-1.17l.39-.78h.392v-1.168.39-.78l.39-.39v-.39h.39v-.39h.392v-.78l.39-.78v-1.17h.39v-.39l.39-.39.39-.78.392-.778v-1.17l.39-.39.39-.39.782-1.95.39-.39v-.39l.782-.39v-.39h.782l.39-.39.78-.39H225v-.778h.78l.783-.39.78-1.17.39-.39.392-.39.39-.39v-.39h.39v.78l.392-.39v.39h.39v-.39h.782l.78-.78v-.39l.39-.39v-.78h.39l.392.78h.39l.39.78.392.78.78.39.392.39h.78v.39l1.563-.39v.39h.39v-.39l.39.39.39-.39h1.173v-.39h.39v-.39h1.954v-.39h.39l.782-.39h.78l.78.78.392.78h.39l.39.39.392.39.39.39.782-.39v.39h3.125v-.39h.39l.782-.78v-.39l-.78-.78H250l-.39-.39-.39-.39h-.392v-.39H247.656l-.39-.39h-.39l-.392-.39h-.39v-.78h.39v-.778h.39v-.39l.392-.39v-.39h.39l.39-.78v-.78.39l.782-1.56v-.39l.39-.78v-.39h.39V137.24H250v-1.17l.39-.78H250v-1.56h-.39l-.39-.78h-.392v-.39l-.39-.39h-1.172l-.39.39-1.173 1.17-.39.39-.39.39-.392.78v.39h-.39l-.39.39-.39.39v.78l-.39 1.17-.392.39v1.17h-.39V141.137h-.39l.39 1.56-.782.39h-.78v.39h-.782v.39h-.782l-1.953.39-.782.39v-.39h-.78v-1.95l.39-.39.39-1.17v-.39l.39-.39.39-.39v-.39l.392-.39.39-.39v-.39h.39l.392-.39v-.388h.78l-.39-.78h.39v-.39zM73.046 151.275l1.562-.39.39.39h.39v.39l-.78.78v.78l-.39.39v.78h-.392v.39l-.39.39v.39h-.39l.39.39-.39.39v.78l-.392.39v2.338l-1.172.39v.39h-.39l-.782.39h-.39v.39H68.75v.39h-1.953v.39H64.844v-.39l-.78.39v-.78l-.392.39v-1.56h.39v-.78l.782-1.17.78-.78.392-.78h.39l.39-.39v-.39l.392-.39.39-.39h.39v-.39h.39v-.388h.392l.39-.39.39-.39.392-.39.39-.39.39-.39h.782v-.39h.39v-.39h.782l.39-.39zm-8.984-.39l2.343-.39.39.78-1.562 1.17v-.39l-.39.39v.39l-.39.39-.39.39-.392.78-.78.39-.783 1.56-.782 1.17v.388l-.39.39v.39h-.39v3.12h.39v.39l.39.39v.39h.39l.39 1.17 1.955.778v.39h1.17l.392.39 3.906-.39.392-.39h.39v-.388h1.172l-.39-.39h1.172l.39-.39h.39l.39-.39h1.173v.78l1.17 1.17 1.173 1.17.39-.39.39.78h.392l1.563.39 1.17.78 1.173-.39v.39l1.954-.39h.782v-.39h.78v-1.17h-1.17v-.39h-.392l-.78-.39H81.64l-.783-.39h-.39l-.782-.39h-.39l-.392-.39-.39-.39-.782-.39h-.39l-.39-.78h-.392v-1.17h.39l-.39-.78 1.172-1.56v-.39l.39-1.168.392-.78v-.78h.39v-1.95h-.39v-.78l-.39-.39v-.39h-.392l-.39-.39v-.39l-.39.39v-.39l.78-.39v.39h1.562v.39h.392v-.39h.78v-.39h.39l.783-1.168v-.78h-.39v-.78l-.78-.78-.392-.39h-.39l-.39-.39h-.782l-.39-.39h-1.173v-.39h-3.125v.39h-.78v.39h-.782v.39h-1.172v-.39l-.782.39-.39-.39v.39h-.39v-.39h-1.563l-5.86.39v.39h-.782l-.78.39-.392.39-.78.39h-.782v.39l-.39.39v.39h-.782l-.39.39-.782 1.17-.78.78-.782.78v.39l-.782 1.168-.78.78v.39l-.392.39v.78l-.39.39-.39.39-.39 1.17-.392 1.17h-.39v.78l-.39.778-.392.78-.39.78-.39.39-.392.78-.78.39-.392.78h-.78v-.39l-.392-.78-.39-.78h.39v-.78h.39l-.39-1.17.39-.39v-.78h.392l-.39-.39.39-.39v-.39h.39v-.78l.39-.78v-.778l.782-.39.39-1.56h.39l.783-1.17-.39-1.56-.39-.39-.39-.39v-.39h-.782v-.388h-.39l-.782.78v.39h-.39l-1.173 2.34v.388h-.39v.78l-.782.78v1.17l-.39.39-.39.39.39.78h-.39v1.17h-.39v1.558h-.39l.39 1.56h-.39v.78h.39v.78h.39v.78l.39.78v.39l.782.39.39.78v.388h.39l.392.39h.78v.39h.782v.39l1.953-.39.39-.39.39-.39.39-.39h.392v-.39h.39v-.39h.39v-.39h.392v-.39l.39-.78.39-.39v-.778l.782-.78v-.39l.39-.78v-.39l.392-.78.39-.39v-.78.39l.78-1.56v-.39h.392V157.515l.39-.39.39-.39v-.39h.392l.39-.39v-.39l.39-.39.392-.78.78-.39.392-.39.39-.39.39-.39v-.39.39l1.563-1.17h.78v-.39h.782l.39-.388zm141.015-7.407v-.78l.39-.39h.39v.78l-1.17 1.95h-.39v-1.17l.78-.39zm-23.047-3.51h.782v.39l.39-.39.392.39h.39l.39.39.392.39v.78h.39-.39v1.17l-.39 1.17h-.392v.39l-.39.39-.39.39-.392.39v.39l-.39.39h-.39l-.39.39h-.783v.39h-1.172v-.39l-1.172.39-1.172-.78v-1.56l1.172-1.95.39-.39h.39v-.78l.392-.39.39-.39.78-.39v-.39h.392l.78-.39zm18.75-.39H202.344v.39l-.39.39v.78h-.39v1.17l-.39.39.39.78h-.39v1.56h.39v.78h.39v.78l.39.39v.39h.39v.388h-.39v.39l-.78.78h-.782l-.39.78h-.78l-.39.39h-.782l.39.39h-1.172v.39h-1.172v.39h-3.515l-.783-.39v-.78h-.39v-1.95h.39l-.39-.39h.39v-.39l.39-.78.392-1.17h.39l.39-.39v-.39l.39-.388v-.39.39l.39-.78h.392l.39-.39.39-.39.782-.78.39-.39h.392l1.172-.78.39-.39h.78l.392-.39h.78v-.39zm-12.89 4.29l-.39-3.12v-.39h-.39v-.78l-.782-1.17-.39-.39-.39-.39-.782-.778-.39-.39h-.392l-.39-.39h-3.125v.39h-.392l-1.562 1.17-.39.39-.392.39-.39.39-.39.39-.39.78v.39l-1.173 1.168-.39 1.17v.39l-.39.78-.782.78v.39h-.39l-.39.39-.392.78v.39l-.78 1.168-.392.78-.78.78-.392.78-.78.39v.78h-.39l.39 2.34.39.39.39.39h.39v.388h.782v.39l.39-.39H173.047v-.39h.392v-.78l.39-.39h.39v-.78l.39-.39.392-.39v-.39l.39-.388.782-.39.78.39h.782l.39.39h.782l.782.39.78.39h.782v.39h1.952l.392.39h1.562v.39h5.469v.39l.392.39.39.39.39.388h.782l.78.39h3.908v-.39h1.172l.39-.39h.78v-.39H200l.78-.39h.783v-.39h.39v-.39l.78-.39.783-.39.78-.39v-.39l.39-.388h.392v-.39h.78v.39l.783-.39v.39h1.562l1.173-.78v-1.17h-.78l-.392-.39-.39-.39h-.39v-.78l.78-1.56v-.39l.39-.78v-.388h.39l-.39-.78.39-.39v-2.73h-.39v-.78l-.78-.78-.782-.78v-.39h-.39v-.388l-.39.39-.78-.78-.392-.39-.39-.39h-.39l-.392-.39h-.78l-.392-.39h-1.952v.39h-1.563v.39h-1.173l-.39.39h-.39l-1.173.78v.39h-.39l-.392.39h-.39l-.78.78-1.173.78v.39h-.392v.39h-.39v.39l-.782.388v.39l-.39.39v.39l-.39.39-.392.39v.39l-.39.78-.39.78h-.39v1.56l-.392.39V149.715h.39v.39h-.39l-.39.39-.39-.39H185.937v-.39H184.766v-.39h-.39v-.39h.78-.39l.78-.39v-.39l.392-.39.39-.39.39-.39v-.39h.39l.392-.78v-1.17h.39v-.778zM335.94 132.17h1.17l.783.39.782.78v1.17h.39v.78l.39 2.73h-.39l.39.78-.39.39-.39.78v.39h-.39l-.39.39v.778l-.783.39-.39.39-.782.39-.39.39h-.782l.39.39h-2.343l-.39-.39h-.392l-.39-.39-.39-.39v-.78h-.39v-.39h-.39v-1.17l.78-.78.39-.39-.39-.78-.39-.778-.39-.39.39-.78.78-.78.39-.39v-.39h.392l.39-.39.39-.39v-.39.39l1.173-1.17h.78l.783-.39zm2.734-10.916h.39v-.39h-.39v-.78l-.39-.39v-.39h-.39v-.39h-.782v-.39h-.39v-.39h-.782l-.39.78-.782.78v.39l-.39.39v.39h-.392v.78l-.39.39-.39.39v.39l-.39.39v.39l-.392.39v.78h-.39v.39l-.39.39v.39l-.392.39-.39.39v.778l-.39.78-.392.39-.39.39v.39l-.782 1.17-.78 1.17v1.17h-.392l-.39.39h.39l-.78 1.168v.39h-.392l-.78 1.95v.39l-1.173 1.17-.39 1.56v.78l.39 1.948.39.39h.39l.39.39h.392v-.39h.78l.782-.39h.39v-.39l.392.39.39.78v.39l.39.39v.39l1.563 1.56h.39l.39.39v.39l.782.39.39.388h1.563v-.39h1.563l1.17-.39.392-.39.39-.78.782-.39.78-.39v-.39l.392-.388.39-.39v-.39l.39-.39v-.39l.392-.39h.39l.39-.39.782 1.17 1.172-.39h-.39.78l.782-1.17h.39v-1.17l.782-.78v-.39h.39l.782-1.17v-.39l.39-.388v-.78l.39-.39v-.39l.392-.39.39-.39.39-.78v-.39l.39-.39.392-.39v-.78l.39-.39.782-1.168 1.172-1.17h.39v-.39l1.563-.78 1.953-.39.78 1.17h-.39v.78l-.78 1.95-.39.39v.39h-.392v.39h-.39l-.39.39v.39l-.392.39h-.39v.388l-.39.39-.782 1.17h-.39v.39h-.39v.39h-.392l.39.78h-.39v1.56h-.39v1.56l.39.778.39.78v.39h.39l.392.78h.78l.392.39h2.342l1.564-.39 1.172-.78v-.78l-.78-.78-1.173-.39v-.39h-1.952l-.39-.39v-.39l.39-.39v-.39h.39v-.39l.39-.39.39-.39.392-.388v-.39l.39-.39h.39v-.39h.392v-.39h.39v-.39h.39v-.39l.392-.39v-.39l.39-.39v-.39l.39-1.17.392-.78v-.778h.39v-3.12h-.39v-.78h-.39v-.39l-.392-.78-1.562-1.56-1.172-.388h-.78v.39h-1.953v.39h-.783l-.39.78-.78.39-.783.78-.39.39v.39H350v.388h-.39v.39h-.39l-.392.39v.39l-.39.39-.39.39-.392.39h-.39v.78l-.782.78-.39.39-.39.39-.39.39-.392.39v.78l-.39.39v.388h-.39v.39l-.392.39v.39l-.78.78v.78h-.782v-.78l-.39-2.73h-.392v-1.17l-.39-.39-.782-1.17v-.388h-.39l-1.172-1.95v.39-.78l-.39.39-.782-.78h-2.734l-.39-.39h.39l.39-.39v-.39h.39v-1.17l.782-.39.39-.78v-.778h.39v-.39l1.564-1.17v-.78zm-175.39 21.834l2.734-.39.39.39.782-.39.39.39h.39l.39.39.783.39H171.095v-1.56l-1.563-1.56-.78-.39-1.562-.78H166.016v-.39l-1.563.39v-.39l-3.516.39-.78.39h-.782l-.78.78h-.783l-1.562 1.17v.39l-.78.39-.782 1.17-.782.78-.39.39h-.39v.39l-.392.39v.78l-.39.39-.39.39v.388l-.392.39-.39.78v.39l-.39.39v.78h-.39l.39 3.51.39-.39v.78l.78.778v.78h-.78l-1.172.39h-1.953v.39l-4.297.39H142.188v.39h-.782v-.39h-.78v.39h-.392v-.39l-1.953.39v-.39l-.78.39v-.39h-.78l-1.173-.39v-1.56l1.172-1.95h-.392.78v-.78l.392-.39h.39l.39-.39v-.39h.392v-.388h.78l-.39-.39 2.344-1.56h.39l.392-.39h.39v-.39h.39v-.39h1.562v-.39h.783v-.39H150.39v-2.34l-1.562-.778h-.39v-.39l-1.172-.39h-.782v-.39l-2.343.39-1.562.39v.39h-.78l-.392.39h-.78l-.782.78-1.172.78h-.39v.39h-.39l-.392.39-.39.39-.39.39-.392.388h-.39l-.39.39-.392.39-.39.39v.39l-.39.39h-.392v.39h-.39v.39l-.39.39v.39h-.39v.78-.39l-.783 1.17v1.948h-.39v.39h.39v.78h.392v1.17l.39.39v.39l.782.78v.39l.39.39.39.39h.782l.78.39.783.39h1.17l.782.39 5.47-.78 3.514-.39 1.563-.39h1.56v-.39h2.345v-.39h1.563v-.39h1.17v-.39h.783l1.172-.39h1.563v-.39h.39v-.39h.782v-.39H161.72v-.39h.39l.78-.78h.782v-.39h1.172v.39l.39-.39.782.78h1.953v-.39l.39-.39.39-.39v-1.17H167.578l-.39-.39-.39-.39v-1.558h.39l.39-.78v-.78l.39-.78v-1.56l-.78-.78h-.39v-.78h-.392l-.78-.39H164.453l-.39.39v.78l-.392.78-.39.39-.39.39.39.39h-.39v1.56h-.392v1.17l-.78.39-.392.39-.78.78h-.782l-.39.39h-.392v.39h-.78l-1.954.39h-1.172l-.78-.39v-.78h-.392v-1.17h.782v-.78l.39-.39v-.78h.39l.39-.39v-.39l.392-.39.39-.39.39-.39.392-.78.39-.39h.39l.392-.39v-.39h.78v-.39l.782-.39.39-.388h.39v-.39h.783v-.39h.78l.78-.39zM16.405 135.29v-1.17l-.39-.78h-.782l-.78-.39h-.782v-.39h-.78l-.392.78v.39h-.39v.78l-.39 1.17-.782 1.17v.78l-.782.78v.78l-1.172 1.948-.39.39.39.39-.39.39v.39l-.78 1.56-.392.39-.39 1.56h-.39v.39l-.392.39v.778l-.39.39v.39l-.39.39v.78l-.392.39v.39l-.39.78v.39h-.39l.39.78-.39.39v.39l-.782.78v.778l-.39 1.17v.78h-.392v.39h-.39l.39.78-.39.39v.78h-.39v1.95H1.56l.39.778h-.39v1.56h-.39v2.34l.39 4.288v.78l.782.39.39 1.17.39.39.392.39h.39v.39h.78v.39l.392-.39.39.39h1.563l.783-.39h.78l-.39-.39 1.563-.78h.39v-.39l1.953-1.56v-.39l.39-.39v-.39h.39l.39-.39v-.78h.782l.39-.78h.392v-.39l.39-.39.39-.78.392-.39.78-.778.39-.39.392-.78v-.39h.39v-.39h.39l.392-.39v-.39l.39-.39v-.78h.39v-.39h.392v-.39l.39-.39v-.78h.39v-.39l.392-.39v-.388h.39v-.78h.39v-.78l.392-.39v-.39l.39-.78h.39l.782-2.73v-.778l.39-.39v-.78l.39-.39.392-.39v-.78l.78-1.56v-.39l.782-1.948v-1.17h.39l.392-1.17v-.78h.39v-1.56l.39-.39V136.07h-.39v-.78l-1.562-.78h-.78l-.392.39v.39h-.39l.39 1.17h-.39v1.95h-.39l.39.39h-.39v1.17h-.392v.78l-.39.778v.78l-.782 1.56v.78l-.39.39v.78h-.39v.78l-.782 1.558v.39l-.78 2.34v.78h-.783v.39l-.39.78-.39.39-.39.39v1.168l-.39.78v.39h-.392v.39h-.39v.78l-.39.39v.39l-.392.39-.39.39-.39.39v.78h-.392v.39h-.39v.39l-.782 1.168h-.39v.39l-.39.39-.39.39-.783.78-.39.78-.782.78-.39.78-.392.39-.39.39v.39h-.39l-.392.39-.78.778-.39.39-.392.39v.39h-.78v.39h-.783v.39H4.687v-1.95h-.39v-.39h.39v-4.678l.39-.39v-.78h.39l-.39-.78h.39v-.78h.39l-.39-.78.782-.78v-1.17l.39-.778v-.39l.39-.39v-.78l.392-1.17h.39l-.39-.39.78-1.56v-.39l.392-.39.39-.778v-.78l.39-.78h.392l.39-1.56v-.39l.39-.39v-.78l1.173-1.17v-.39l.78-1.168.39-1.56v-.39l.39-.39.392-.78.39-.39.39-.39v-.39l.392-.78.39-.39v-.778l.39-.39v-.39h.392v-.78h.39v-.39zm293.36-20.274v-.39l-.39-.39v-.78l-1.173-.78-1.172-.39h.392-.78l-.392.39v.39l-.39.39h-.39l-.392.78v.39l-.39.39-.39.39v.78l-.392.39v.78h-.39v.39h-.39l-.392.78v.78h-.39l-.78 2.338v.39h-.392l-1.172 1.95v.78l-.78 1.56-.392.78v.388l-.78.78-.392.78v.39l-.39.39v.39l-.39.39v.39l-.392.39v.39h-.39v.78-.39l-.78 1.56h-.783l-.39-.39-.39.39h-.39l-.782 1.168v.39h-.39v.39h-.39v.39l-.392.39-.39.78-.39.78-.392 1.17-.39.39.39.39-.78 1.168v-.39 1.56l-.39.39v1.17h.39v1.17h.39v.39l.78.78h.782v-.39h.782l.39-.78.39-.39.39-.39v-.39l.392-.39.39-.78.39-.39.392-.39v-.39l.39-.39h.39l-.39-.39 1.172-1.17h.39l.782.78h.39l1.173.78h.39l.39.39H301.562v.39h.782v.39l1.953-.39v.39-.39h2.344v-.39h1.954v.39l.39.78.782.39.39.78.782.39.39.39.78.39.783.39.782.39.78-.39v.39h.392v.39h.78l3.907-.39.392-.39.78-.78-.39-.78-.39-.39h-.39l-.782-.39h-.78v-.39H315.233v-.39l-.39.39v-.39h-.78l-.783-.39-.78-.39-.39-.39-.782-.39v-.39l1.563-.78.39-.39.783-.78.78-.78.39-.388.392-.78v-.39l.39-.39v-.39h.39v-.39l.392-1.17v-.39h.39v-1.56h-.39V131l-.39-.388v-.39h-.39l-.392-.39-.39-.39h-2.344l-.39.39-.78.39v.39h-.392v.78h-.39l-.39.39-.392.39v.39h-.39v.39h-.39l-.392.78-.39.778-.39.78-.39.78v.78l-.392.78h-.78l-1.954.39H301.173v-.39H299.61l-.39-.39-.392-.39v-.39h-.39v-.39h.39l-.39-.78.39-.39.39-.39.39-.78v-.78H300v-.39l.39-.39.39-.39V131l.392-.388.39-.39v-.39l.39-.78.392-.78.78-1.17v-.39l.392-.39v-.78h.39v-.39l.39-.39v-.78l1.173-2.338v.39-.78l.78-.78.39-.39v-.39l.39-.78v-.39l.392-.39.39-.39v-.39l.39-.388.392-.39.39-.39.782-1.17zM265.626 131l2.343-.388 1.17.78v.39l.39.39.392.78h.39v.78l-.78.778v.39l-.39.39v.39h-.392l-.39 1.17h-.39v.39l-.392.39v.78h-.39l-.39 1.95h-.392l-.39.39-.39.388-.392.39h-.39l-.782.78h-.78l.39.39h-.78.39-1.173v.39h-.782v.39h-3.125v-.39l-.78.39.39-.39-1.172-.78-.39-1.95.78-1.95h.392v-.78l.78-.388.392-.78v-.39h.39l.39-.39v-.39l.782-.39.39-.78.392-.39h.39l.39-.39h.39l.392-.39 1.172-1.17h.78l1.173-.78zm5.858 1.95v-2.728h-.39v-.39l-1.172-1.95h-.39v-.39h-.39v-.39l-1.173-.39h-.392v-.39l-1.953.39h-1.172v.39h-.39l-.39.39h-.782v.39h-.39l-.39.39h-.39l-.392.78h-.78l-.392.39-.39.39-.39.39-.392.39v.39h-.39v.39l-1.172.78v.39h-.39l-.39.39-.392.39v.78h-.39v.388l-.39.39-.392.39-.39.78v.39h-.39v1.17h-.392l.39.39h-.39v1.95h-.39l.39.78h-.39l.39 2.728v.78l.39.39.392.78h.39v.78l.78.39.392.39h.78l.392.39h.78v.388l1.564-.39v.39h.39v-.39h2.344v-.39h.39l1.172-.39.39-.39h.782v-.39h.782v-.39h.39l.39-.78h1.173v.78h.39v.78l.39.39.39.39.39.39.392.39h.78l.782.78h1.172v-.39h.39l.392-.39h.39l-.39-.78v-.39h-.782l-1.172-1.95v.39-.778h-.39l-.39-.39v-.78h-.39l-.392-1.17h.39l.39-.39.392-.78.39-.78h.39v-.78h.392v-.78h.39l.39-.78V136.07h-.39v-.39h.39v-.39h-.39v-.39l-.39-.78h-.39l-.392-.39v-.78zm97.266-6.237h.78v.39h3.517v-1.95h-.39v-.39l-.782-.78-.78-.39v-.78l-1.564-.39h-1.952v.39h-.78l-.782.39-.782.39-.39.78-.39.78v.39h-.39l.39.78h-.39v1.95h.39v.78l.39.39v.78h.39v.39h.39l1.173 1.948h-1.172v.39h-1.562l-.782.39-.39.39h-.78l-1.172 1.95v1.17h-.39l.39 1.95v1.17h.39v.39h.39v.39l.39.388h.392v.39h.39l.782.78h.78l-.39.39 1.954.39h.78v.39h1.562v.39h2.736v.39h.782v-.39h1.563v-.39l.78-.39v-.39h.39-.39v-.39h-.39v-.78h-.78v-.39h-.782v-.39h-.782l-.78-.39H369.53v-.39H367.577v-.39l-1.953-.78h-.39l-.782-.39v-.39l.78-.778h1.173v-.39h1.563-.392l4.688-.78 1.172-1.17v-1.56h-.39v-.39h.39-.39v-.39l-.392-.78-.39-.39V131h-.39v-.388h-.392v-.39h-1.17v-.39h-.392v-.39h-.78v-.39l-.392-.39-.39-.39-.39-.39v-.78h.78v-.39zm-48.828-6.628l1.953-.39v.39l1.953-.39v.39h.39v.39l.782-.39 1.172.78v1.17l-.39.39-.39.39-.392.39-.78.39h-1.173v.388l-4.297.39v-.39h-1.562l-.39-.39h-.392l-.78-.39v-.39h-1.562l-.392.39v1.17h-.39l.39 1.17v1.17h.78v.39l1.564.78h1.562v.39l1.172-.39v.39h1.953l4.297-.39h1.172v-.39h.39v-.39h.782l.39-.39.782-.78v-.39l.39-.39v-.78l.39-.39v-3.508h-.39v-.39l-.39-.39v-.39l-.782-.78-.39-.39-.782-.39-.39-.78h-.39l-1.173-.39h-.782v-.39H321.484v.39h-.78l-1.173.39h-1.17v.39h-.782v.39h-.78l-.392.78h-.39l-.39.78v.78h-.392l.39 1.17v.39h.782v-.39h1.172l.78-.78h.783v-.39h.782zM40.625 141.138h1.563v.39l.78-.39v.39h.39v3.12h-.39l.39.39-.39.39h-.39v.78l-.78.39v.78l-.782.388v.39l-2.344 1.17h.39-1.952v-1.56h-.39l-.392-.78-.39-.39-.39-.39v-.39l.39-.78.39-.778.78-.78.392-.39.39-.39h.39l.392-.39v-.39H39.844v-.39h.78v-.39zm-6.64 3.12l.39 2.34h-.39v1.948h.39v1.56h.39v.78h.39l.392.39v.78h.39v.39h.39l.392.39h1.17v.39h1.954v-.39h.78l.782-.39.782-.39.39-.39v-.39h.39l.39-.39.783-.39.39-.39v-.39l.392-.39v-.39.39l1.172-1.56v-.39l.39-1.17v-.78h.39l-.39-1.168h.39v-1.56l-.39-1.17-.39-.39-.39-.39v-.78.39l-.39-.78-.783-.39-.78-.39-.78-.39-.392-.78-.78.39v-.39h-1.954v.39h-1.172l-1.953 1.56-.392.39h-.39v.39h-.39l-.392.39-.39.78-.39.39-.392.39-.39.78.39 1.17zM400 117.355v-1.17l-.39-.78-.39-.39v-.39l-.392-.78h-.39v.39l-.39.39h-.392l-.39.39v.78h-.39l-.392.39v.78l-.39.78-.39.39-.39.78-.392.39v.39l-.78 1.56-.392.39v.39h-.39v.78l-.39.39-.392.39v.388l-.39 1.17-.782.78-.39.39.39.39h-.39l-.39 1.17-.392.39v.78l-.78.78-.782.78.39.388-.39.78-.78.78-.392.78v.39l-.39.39v.39l-.39.39.39.39-.782 1.17-.39.39.39.39-.78.39v2.34h-.392v.78l-.39.388v1.95h-.39v1.95h-.392v.39h.39v.39l.782.39h.39l.392-.78v-.78l.39-.39v-.78h.39l-.39-.78h.39v-.39h.39l-.39-.39 1.173-2.34v-.39l.782-1.56h.39v-.388l.39-.39v-.39l1.173-2.34h.39l-.39-.78h.39l1.173-1.56V131h.39v-.778l.39-.39v-.39l.782-.39v-.78l.39-.39.39-.39.392-.39v-.39l.39-.39v-.39l.39-.39v-.39h.392v-.78h.39V123.205h.39l.392-.39v-.39l.39-.39.39-.78v-.39h.392l1.17-2.34v-.39H400v-.78zm-365.625 35.87v-1.17l-1.562-.78h-.782v-.39h-.78l-.39 1.17v.39l-.39.39v.78l-.783.78-.39.78v.78l-.39.39-.39.78v.39l-.392.388-.39.78-.39.78-.392.78v.78h-.39l-.39 1.17v.39h-.392v.39h-.39v.78l-.39.39v.39l-.39.388-.39.78v1.17l-.392.39v.39h-.39l.39 1.95h.39v.39h.39v.78l.783.39H26.953l.392-1.17v-1.17l.39-.39v-.78l.39-.78.782-.78-.39-.78h.39l.39-.39v-.778h.39v-.39l.392-.39v-.78l.39-.39.39-.78h.392l1.953-4.678h-.39.39l.78-2.34h.392v-1.17zm354.688 5.458v-.78h-.782v-1.17l-.39-.39v-.39l-.78.39-.39-.39H385.547l-.782 1.56v.39h-.39v1.95h.39v.78l.39.39.39.39.392.39h.78v-.39h1.173l.39-.78h.392v-1.17h.39v-.78z" fill="#007cc3" fill-rule="evenodd"/><path d="M8.594 30.41h12.5l.39-.39h.39l.392-.39h1.17l.783.39h.39l.39.39.39.78v.39l.39.78v3.9H0v-6.24l3.906-2.728 3.125-2.73 2.736-2.34 2.734-2.338 1.953-1.95 1.563-1.56 1.562-1.168.78-1.17.783-.78.39-.78.392-.78V9.357l-.39-.39-.39-.778v-.39l-.392-.39-.39-.39-.39-.39h-.783l-.39-.39-.78-.39h-.392l-.78-.39H12.89l-.783.39h-1.562l-.392.39-.39.39-.782.39-.39.39-.78.39-.392.78-.39.78v.78l-.39.39-.392.39v.39l-.39.39h-.39l-.392.388H3.126l-.392-.39-.78-.39v-.39l-.392-.39v-.78l-.39-.39.39-.78V7.41l.39-.78.782-1.17.39-.78.392-.39.78-.78.39-.39.392-.39.78-.39.783-.39.782-.388.39-.39.782-.39.78-.39h.782l.782-.39h5.079l1.17.39 1.173.39 1.17.39.783.39 1.17.78.783.78.78.78.782.78.39 1.168.39.78.392 1.17.39.78.39 1.17v2.338l-.39 1.17-.39.78-.39 1.17-.782 1.17-.78 1.17-1.564 1.558-1.562 1.56-1.563 1.56-2.735 2.34L12.5 27.29M55.078 15.206v8.968l-.39 1.17-.39 1.558-.392 1.17-.78 1.17-.392 1.56-.78 1.17-.782 1.168-.78.78-1.173 1.17-1.173.39-1.172.78-1.172.39H40.627l-.782-.39h-.782l-.78-.39h-.39l-.783-.39-.39-.39-.783-.78-.39-.39-.78-.78-.392-.78-.39-.78-.782-.78-.39-.78-.39-1.17-.782-.778v-1.17l-.39-1.17-.39-1.17V12.477l.39-1.17.39-1.17.39-1.17.392-1.558.78-1.17.782-1.17.782-1.17.78-1.17 1.173-.78.78-.778 1.172-.39 1.172-.39L41.406 0h3.906l.78.39h.39l.783.39.78.39.39.39.783.39.39.39.78.39.39.78.392.78.78.778.392.78.78 1.17.392.78.39 1.17.39.78.392 1.17v1.168l.39 1.17v1.95zm-5.47 0v-1.17l-.39-.78v-1.17l-.39-.78-.39-1.17-.39-.78-.392-1.168-.78-.78-.392-.39-.39-.39-.39-.39-.39-.39H44.14l-.78-.39H42.187l-.39.39h-.782l-.39.39h-.782l-.39.39-.392.39-.39.39-.39 1.17-.782.78-.39.78v1.17l-.39.778-.392 1.17v10.528l.39.78.39 1.168v.78l.392 1.17.78.78.392.78.39.78.782.39h.39l.39.39.392.39h3.515l.783-.39.39-.39.39-.39.39-.39.392-.39.78-.78.392-.78.39-1.17.39-.78.392-1.17v-.78l.39-1.17V15.207zM74.61 0v30.41H81.25l.78.39h.782l.39.39.392.39.39.39v2.34l-.39.39-.39.39-.392.39-.78.39h-.782l-.78.39H63.28l-.78-.39h-.78l-.783-.39-.39-.39-.39-.39-.39-.39v-2.34l.39-.39.39-.39.39-.39h.782l.78-.39H69.14V7.02l-5.077 1.56-1.172.39h-1.17l-.392-.39h-.39l-.39-.39-.392-.78-.39-.39V4.678l.39-.39.39-.39.39-.39h.783l.78-.39M112.89 15.206v8.968l-.39 1.17-.39 1.558-.39 1.17-.782 1.17-.39 1.56-.782 1.17-.782 1.168-1.17.78-.783 1.17-1.17.39-1.172.78-1.172.39H98.44l-.782-.39h-.78l-.782-.39h-.39l-.782-.39-.39-.39-.782-.78-.39-.39-.782-.78-.39-.78-.39-.78-.782-.78-.39-.78-.392-1.17-.39-.778-.39-1.17-.392-1.17-.39-1.17v-.78l-.39-1.17V15.207l.39-1.17v-1.56l.39-1.17v-1.17l.782-1.17.39-1.558.782-1.17.39-1.17 1.172-1.17.78-1.17 1.173-.78.782-.778 1.172-.39 1.563-.39L99.22 0h3.904l.782.39h.39l.782.39.78.39.392.39.78.39.392.39.78.39.392.78.78.78.392.778.39.78.782 1.17.39.78.39 1.17.39.78.392 1.17v1.168l.39 1.17v1.95zm-5.468 0v-1.17l-.39-.78v-1.17l-.39-.78-.392-1.17-.39-.78-.39-1.168-.782-.78-.39-.39-.392-.39-.39-.39-.39-.39H101.953l-.782-.39H100l-.78.39h-.392l-.39.39h-.39l-.782.39-.39.39-.392.39-.39 1.17-.782.78-.39.78-.39 1.17v.778l-.39 1.17v10.528l.39.78v1.168l.39.78.78 1.17.392.78.39.78.39.78.392.39h.78l.392.39.39.39H102.344l.78-.39.392-.39.39-.39.39-.39.392-.39.78-.78.39-.78.392-1.17.39-.78.39-1.17v-.78l.392-1.17V15.207zM138.28 15.206v1.56l-.39.39-.39.39-.78.78-.783.388H132.423l-.782-.39-.39-.78-.39-.39-.39-.39-.392-.78v-1.558l.39-.78.39-.78.392-.39.39-.39.782-.39.78-.39h1.953l.782.39.782.39.78.39.39.39.39.78v1.56zm.392 18.324l-.39.39v.78l-.39.78-.392.39-.78.39-.783.39-.78.39h-1.954l-.78-.39-.782-.39-.39-.39-.39-.39-.39-.78-.392-.78v-1.17l.39-.78.39-.78.392-.39.39-.39.782-.39.78-.39h1.953l.782.39.782.39.78.39.39.39.39.78v.78l.392.78zM20.703 68.62H9.375l-1.172 2.73h1.952l.783.39h.39l.78.39v.39l.392.39v1.948l-.39.39v.39h-.782l-.39.39H1.954l-.782-.39h-.39l-.39-.39v-.78L0 73.688l.39-.39v-.39l.39-.39v-.39l.782-.39h.39l.782-.39h.782l7.03-17.934H6.25l-.39-.39h-.782v-.39l-.39-.39V50.295l.39-.39v-.39l.78-.388h.392l.78-.39H17.58l9.375 22.613h.78l.392.39h.78l.392.39.39.78.39.388v1.56l-.39.39-.39.39h-.39l-.39.39H19.14l-.392-.39h-.39l-.39-.39v-.39l-.392-.39v-1.17l.39-.39v-.39l.39-.39.392-.39h.39l.782-.39h1.953l-1.172-2.728zm-1.953-4.68l-3.516-8.966-3.906 8.967h7.422zM39.062 57.703V71.35h2.343l.783.39h.39l.39.39.39.39.392.39v1.948l-.39.39-.39.39h-.392l-.39.39h-8.984l-.782-.39h-.39l-.39-.39V72.518l.39-.39.39-.39h.78l.392-.39h.78V53.415h-2.343l-.39-.39h-.39l-.39-.39v-.39l-.39-.78v-.78l.39-.39v-.39l.39-.39.39-.388h.39l.783-.39h6.25L50.78 67.45V53.414h-3.123l-.39-.39h-.392l-.39-.39-.39-.39V50.295l.39-.39.39-.39.39-.388h.39l.782-.39h7.42l.783.39h.39l.783.39v.39l.39.39v1.95l-.39.388v.39h-.39l-.782.39h-1.17v22.614h-4.69L39.063 57.703zm12.11-16.375l.39.39h.782v.78l.39.39-.39.39v.78l-.78.39-.783.78-.78.39-.78.388-.783.39h-1.562l-.78-.39h-.392l-.78-.39-.782-.78-1.17-.78-.392-.39H41.016l-.39.39-.782.78-.39.39h-.392l-.39.39h-.78l-.392-.39-.39-.39v-1.56l.78-.78.39-.388 1.173-.78.78-.39.783-.39h1.562l.39.39 1.173.39 1.563 1.17.78.39.392.39H48.437l.39-.39.782-.39.39-.78h.39l.39-.39h.392zM83.594 62.382v3.12l-.39 1.168-.392 1.56-.78 1.17-.39 1.17-.783 1.17-1.172 1.17-.782.778-1.172.78-1.172.78-1.17.39-.783.39-1.563.39-1.172.39H69.53l-1.17-.39h-1.172l-.782-.39-1.172-.39-1.17-.78-.783-.78-.78-.78-1.172-.78-1.172-1.56-.78-1.17-.392-1.168-.39-1.56-.39-1.17-.39-1.95V60.823l.39-1.56.39-1.56.39-1.17.39-1.558.782-1.17 1.172-1.17 1.172-1.17.78-.78.783-.78 1.17-.39 1.173-.388.782-.39 1.17-.39H73.05l1.562.39.78.39 1.172.78 1.172.39 1.172.78.782 1.17 1.17 1.168.783 1.17.39 1.17.782 1.17.39 1.17.392 1.558v2.73zm-4.688 0v-1.95l-.39-.78v-1.17l-.39-.78-.392-.78-.78-.78-.392-.388-.78-.78-.782-.78-.39-.39-.782-.39-.78-.39h-1.564l-.78-.39-.782.39H68.36l-.782.39-.78.39-.392.39-.78.78-.782.78-.39.39-.782.78-.39.78-.39.78v1.168l-.392.78V64.332l.39 1.17v.778l.39.78.392.78.78.78.392.78.78.78.782.39.39.39.782.39.78.39.783.39H72.267l.78-.39.782-.39.78-.39.392-.39.78-.39.782-.78.39-.78.782-.78.39-.78.392-.78v-.78l.39-1.17v-1.948zM100.39 71.35V53.413h-1.17l-.392-.39h-.39l-.39-.39-.392-.39V50.295l.39-.39.392-.39.39-.388h.39l.782-.39H111.327l1.173.39h1.172l1.172.39.78.78 1.173.39.78.39.782.78.39.39.39.778.782.78.39.78.39.78.392.78.39.78.39.78.392.78v1.168l.39 1.17v3.12l-.39 1.56v1.168l-.39 1.56-.392 1.17-.39 1.17-.78.78-.783.78-.78.78-.78.778-.783.39-.78.78-.39.39-1.173.39-1.563.39H99.222l-.392-.39h-.39l-.39-.39-.392-.39V72.908l.39-.39.392-.39.39-.39h.39l.39-.39h.783zm4.688 0h7.422l.78-.39h.783l1.17-.78.392-.78.78-.39.392-.78.39-1.17.39-.78.392-1.17v-4.288l-.392-1.17v-.78l-.39-.78-.782-1.17-.78-1.168-.782-.78-.78-.39-.783-.78h-1.17l-.782-.39h-6.25V71.35z" fill="#dd137b"/><path d="M130.078 64.72v6.63h11.72v-3.12l.39-.78v-.39l.39-.39.39-.39.39-.39h1.955v.39l.39.39.39.39.39.39v8.578h-23.046l-.782-.39h-.39l-.39-.39v-.39l-.392-.39v-1.17l.39-.39v-.39l.392-.39.39-.39h.78l.392-.39H125.39V53.415h-1.952l-.782-.39h-.39l-.39-.39v-.39l-.392-.78v-.78l.39-.39v-.39l.392-.39.39-.388h.78l.392-.39h21.485v8.968l-.39.39-.392.39-.39.39h-1.952l-.39-.39-.392-.39-.39-.39v-1.17l-.39-.78v-2.34h-10.548v6.628h3.906v-.78l.39-.78v-.78l.392-.39.39-.39h.78l.392-.39.78.39h.392l.39.39.39.39.392.78v8.188l-.39.39-.39.39-.392.39-.39.39H135.937l-.782-.39-.39-.39-.39-.39v-.78l-.392-.78v-.78M4.297 115.016l-.39.39-.39.39h-.392l-.78.39-.392-.39h-.39l-.39-.39H.78l-.39-.39v-1.17l-.39-.78v-3.118l.39-.78v-1.17l.39-.39.392-.39.39-.39H3.516l.39.39.39.39v.39h.39v.78l.392.78.39.39.39.39.392.39.78.39.783.39.78.39h.782l.78.39h1.953l.783-.39H14.063l.782-.39.39-.39h.782l.39-.39.78-.39.392-.78V107.218l-.39-.39-.39-.39-.392-.39h-.78l-.392-.39h-.78l-.782-.39-1.172-.39h-1.562l-1.563-.39-1.562-.39-1.563-.778-.78-.39-1.173-.39-.78-.78-.783-.78-.39-.78-.39-.78-.392-1.17-.39-.78V94.743l.39-.78.39-.78.392-.78.39-.39.39-.78.782-.78.78-.39.783-.388.78-.78.78-.39h.783l1.17-.39h3.908l.782.39h1.562l.782.39.39.39.78.39.392-.39.39-.39h1.955l.39.39.39.39.392.39v1.17l.39.78v3.508l-.39.39v1.56l-.39.39-.39.39H17.97l-.392-.39h-.39v-.39l-.39-.39v-.78l-.392-.78-.39-.78-.39-.39-.392-.39-.39-.39-.782-.39h-.78l-.39-.39h-2.737l-1.172.39h-1.17l-.392.39-.39.39-.39.39-.392.78-.39.39v1.56l.39.39v.39l.39.39.39.39.392.39h.78l.392.39h1.172l1.172.39 1.562.388 1.562.39 1.563.39 1.172.39 1.172.39.78.39.78.78.783.39.78 1.17.39.78.392 1.17.39.778v3.12l-.39.39v.78l-.39.78-.39.78-.782.39-.39.388-.782.78-.78.78-1.173.39-.78.39h-1.173l-1.172.39H8.983l-1.17-.39-.783-.39h-.78l-.78-.39M50 102.54v2.73l-.39 1.56-.39 1.168-.783 1.17-.39 1.17-.78 1.17-1.173 1.17-.78.78-1.173 1.168-1.17.39-1.173.78-1.172.39-1.172.39h-4.685l-1.173-.39-.78-.39-1.173-.39-.78-.39-1.173-.78-.78-.78-1.173-1.17-1.172-1.17-.78-1.168-.39-1.56-.783-1.17-.39-1.56V99.42l.39-1.56.78-1.558.39-1.17.782-1.56 1.172-.78 1.172-1.17.78-.78 1.173-.78.78-.778 1.173-.39.78-.39h1.173l1.17-.39h2.343l1.173.39h1.172l1.172.78 1.172.39 1.17.78 1.173.78.78.78 1.173 1.17.78 1.168.39 1.17.783 1.17.39 1.56.39 1.17V102.54zm-4.687 0v-3.12l-.39-.78-.392-.78-.39-.78-.78-.778-.39-.78-.782-.78-.39-.39-.782-.78-.782-.39h-.78l-.782-.39h-3.125l-.782.39h-.782l-.78.39-.39.78-.783.39-.78.78-.39.78-.782.78-.39.78-.39.78-.392.78v5.848l.39.78.39 1.168.392.78.78.78.392.78.78.39.783.78.39.39.78.39.783.39h.78l.782.39H37.89l.782-.39h.78l.782-.39.782-.39.78-.39.392-.78.78-.39.39-.78.783-.78.39-.78.392-.78.39-1.17V102.54zM60.547 93.183v18.324h9.765v-4.29l.39-.778v-1.17l.392-.39.39-.39.39-.39H73.83l.39.39.39.39.392.39v10.916H52.345l-.782-.39h-.39l-.392-.39-.39-.39v-.39l-.39-.39v-1.17l.39-.39v-.39h.39l.392-.39.39-.39h4.297V93.184H51.172l-.392-.39-.39-.39v-.39l-.39-.39v-1.17l.39-.39v-.39l.39-.39h.392l.39-.39h12.892l.78.39h.392l.39.39v.39l.39.39v1.17l-.39.39v.39l-.39.39-.39.39H63.28M86.328 93.183v18.324h2.344l.78.39.392.39.39.78.39.78-.39.39v.39l-.39.39v.39l-.39.39h-.782l-.39.39H80.47l-.782-.39h-.782l-.39-.39v-.39l-.39-.39v-.39l-.392-.39.39-.78v-.39l.392-.39.39-.39.782-.39h2.343V93.183h-3.124l-.39-.39v-.39l-.39-.39v-.39l-.392-.39.39-.78v-.39l.392-.39v-.39h.39l.782-.39h8.984l.78.39h.392v.39l.39.39v.39l.39.78-.39.39v.39l-.39.39v.39l-.39.39H87.5M96.094 111.507V93.183h-1.952l-.392-.39-.39-.39v-.78l-.39-.39.39-.78v-.78l.39-.39h.39l.782-.39H108.202l1.172.39.78.39 1.173.39 1.172.39.39.78.782.39.78.78.392.39.39.78.782.78.39.78.39.78.39 1.168.392.78v.78l.39.78v7.41l-.39 1.168-.39 1.17-.782 1.17-.39.78-.782 1.17-.78.78-.782.39-.78.778-.783.39-.782.39-1.172.39-1.562.39h-1.172l-1.953.39H95.31l-.39-.39h-.78l-.392-.39-.39-.39v-.78l-.39-.39.39-.78v-.78h.39l.39-.39.39-.39h1.564zm4.687 0h6.25l.783-.39h1.17l.783-.39.78-.39.782-.78.78-.78.392-.78.39-.78.39-1.168v-6.24l-.39-1.17-.39-.78-.78-1.168-.392-.78-.78-.78-.782-.78-1.172-.39-.78-.39h-1.173l-1.17-.39h-4.69v18.325z" fill="#dd137b"/><path d="M137.11 108.778h-11.33l-1.17 2.73H127.342l.39.39.392.39h.39l.39.78V114.625l-.39.39-.39.39-.39.39h-.39l-.782.39h-7.812l-.78-.39h-.392l-.39-.39-.39-.39v-.39l-.392-.39v-1.17l.39-.39v-.39l.39-.39h.392l.78-.39h1.564l7.03-18.323H121.877l-.392-.39-.39-.39v-.39l-.39-.39v-1.17l.39-.39v-.39l.39-.39h.39l.782-.39H133.984l9.375 22.614H144.92l.39.39.39.39.392.39.39.39v1.17l-.39.39v.39l-.39.39-.39.39h-.392l-.78.39h-7.815l-.78-.39h-.392l-.39-.39-.39-.39v-.39l-.392-.39v-1.17l.39-.39v-.39h.392l.39-.39.39-.39H138.282l-1.17-2.73zm-1.954-4.68l-3.515-9.356-3.906 9.357h7.422z" fill="#dd137b"/><path d="M127.344 152.055v-.39l.39-.39v-.39l.39-.39.392-.39.39-.78-.39-.39.39-.39v-.78l.39-.388v-2.34l-.78-.39-.39-.78h.78v.39l3.907-.39v-.39h.39l1.172-.39h.39v-.39h.782l.39-.39h.782l.78-1.17h.39l-.39-.388h.78v-.39h.392v-.39l.39-.39v-.39h.39l-.39-.78.39-.39v-.78h.392v-.39h-.39v-.39h-.39v-1.95l-.392.39v-.78l-.39-.39-.39-.39h-.392l-.39-.39v-.39l-2.735-1.17h-.78V131l-2.736.39-.782.39h-.78v.39h-.392l.39.39v.78h-.39v.39l.78.78h4.298l1.953 1.17v.78l-.39.78-.78.78-.783.39-.78.39v.39h-.782v.39h-.78l-1.173.39-3.126.39-.39-.39-.782-.39-1.172-.39h-.39v.39h-.39v.78h.39v.39h-.39l.39.778v.39h.39v.39l.78.78.392.39h-.39v.39l-.39.39v.39H125v.39l-.39.39v.39l-.39.39v.39l-.392.39v.39l-.39.388-.39 1.17v.39l-.392.39.39.39-.39.39v.78l-.78 1.56h-.392v.39l-.39.39-.39.39h-.39l-1.173 1.168h-.39l-.39.39h-.39l-.783.78h-.78v.39h-.782.39l-.78.39h-1.172v.39h-.39v-1.56h.39v-.78h.39l-.39-.78 1.17-1.56v-.78l.392-1.168v-.78.39l.39-.78.39-.39v-.78h.392l-.39-.78h.39v-.78l.39-.39-.39-2.728-.39-.39-.39-.78h-.783l-.39-.78h-.39l-.782-.39h-1.563v.39h-.782v.39h-1.562.39l-.78.39-1.173.78v-1.56h.39l-.39-1.17h.39v-1.56h.39l-.39-.78h.39v-1.558l-.39-4.29-.39-1.56-.39-.388v-.78l-.39-.39v-.78.39l-.782-1.17-.39-.39-.78-.78-.392-.39v-.39h-.39l-.39-.39H103.125l-.782-.39H99.61v.39h-.782l-.39.39-.782.39v.39h-.78v.39l-1.173.78v.78h-.39l-.39.39-.392.78-.39.39v1.17h.39v1.56l.782.78h.782l.78-.78.392-1.17 1.562-1.56h.39l.39-.39h.783v-.78h.782l1.172-.39H103.516l.39.78h.39v.39h.392v.39l.39.78v.78h.39l.39 4.288h-.39l.39 1.17h-.39v1.95h-.39l.39.78-.39.39h-.39l.39.778h-.39V143.088l-.782.78v.78l-.78 1.56v.78h-.392l.39.39h-.78v.388l-.39.39-.392.78h-.39v.39l-1.172 1.17v-.39.39l-.39.39h-.39l-.392 1.17-.39.39-.782.39-.39.78v.39h-.39l-.392 1.168-.78.78-.392 1.17v.39l-1.17 1.95v.78l.39.39h.39v.778l.39.78h.782v.39h.39v-.39h.782l-.39-.39 1.17-.39v-.39h.392v-.39l.39-.39h.39v-.39l.39-.39.392-.78.39-.39.39-.778.392-.39.39-.39h.39l-.39-.39 1.563-1.95v-.39l.39-.39v-.39l.39-.39v-.39h.392v-.39l.39-.39v-.39l.39-.388.392-.78v-.78l.39-.39h.39v-.39l.39-.39.39-.39.392-.39.39-.39h.782l.39-.39.39-.39v-.39h.782l.782-.39.39-.39h2.344v1.56h-.39v.78h-.39l.39.39-.39.39v.78l-.392.39v1.17h-.39v.78l-.39.78v.39l-.782.39v1.17l-.39.39V155.563h-.392v1.95h.39v.78h.392v.78h.39v.78l.78.39.783.39v.39H115.626v-.39h1.172v-.39h.78l.782-.39.78-.39h.782l1.562-1.56v-.39h.782l.78-.78h.39l.783.78h.39v.39h.39v.39h.39v.39l.39.39h.392v.39l1.953-.39.39-.78v-.78h-.39v-.39h-.39l-.39-.39h-.392l-.39-.39-.39-.39-.392-.39v-1.17l.392-.78.39-.39.39-.78.392-.39zm93.36-12.866l3.124-.39v.39H225.39v.78l-.39.39-.39.39v.388l-.782 1.17-.78 1.17v.39l-.782.78.39.39h-.39l-.39.39-.392.39v.78l-.39.39-.39.39v.778l-.39.39-.392.39-3.516.39v-.39h-.78.39l-1.563-.39-.78-1.17v-.78h-.392V144.647l.392-.778.39-.78.39-.39.392-.39.39-.39v-.39h.39l.782-.78h.39l.782-.39h.39v-.39h.782-.39l1.17-.39 1.173-.39zm18.75-3.12h.39l-.39-1.17v-.39h-.392l-.78-1.17h-1.173l-1.172 1.56v.39l-.782.39-.78 1.56-.392.39v.39l-.78 1.17v.78l-.782 1.168h-.39l-.782-1.17v-.78h-.39l-.39-.39v-1.17l-.783-.388h-.78v-.39l-.39-.39-.783-.39h-.39l-.39-.39-.782-.39H224.61v-.39l-1.563.39-.39-.39-3.516.39-1.17.39-.392.39h-1.172l-.78.78h-.782v.39h-.39v.39h-.39l-.783.78-.78 1.17-.78.78-.782.778v.78l-.39.39v1.95h-.392l.39 2.73h.392v.778l.39 1.17.39.78v.39h.39l.392.39.39.39.39.39h.392l.39.39.39.39v.39h.782l.782.39 1.562-.39v.39h.39v.78l-.39.39.39.778-.39-.39-1.172 3.12v.39l-.39.78h-.39v.78l-.392 1.17-.39.778-.39.39v.78l-.39.39v.78h-.392v.78l-.39 1.56-.39.39v.78l-.392.39v2.338h-.39v1.17l.39.39v.39h.39v.39l.39.39h1.173v-.39h.39v-2.34l.39-.78v-1.17h.392v-.78h.39v-1.17l.39-.78h.392v-1.168.39-.78l.39-.39v-.39h.39v-.39h.392v-.78l.39-.78v-1.17h.39v-.39l.39-.39.39-.78.392-.778v-1.17l.39-.39.39-.39.782-1.95.39-.39v-.39l.782-.39v-.39h.782l.39-.39.78-.39H225v-.778h.78l.783-.39.78-1.17.39-.39.392-.39.39-.39v-.39h.39v.78l.392-.39v.39h.39v-.39h.782l.78-.78v-.39l.39-.39v-.78h.39l.392.78h.39l.39.78.392.78.78.39.392.39h.78v.39l1.563-.39v.39h.39v-.39l.39.39.39-.39h1.173v-.39h.39v-.39h1.954v-.39h.39l.782-.39h.78l.78.78.392.78h.39l.39.39.392.39.39.39.782-.39v.39h3.125v-.39h.39l.782-.78v-.39l-.78-.78H250l-.39-.39-.39-.39h-.392v-.39H247.656l-.39-.39h-.39l-.392-.39h-.39v-.78h.39v-.778h.39v-.39l.392-.39v-.39h.39l.39-.78v-.78.39l.782-1.56v-.39l.39-.78v-.39h.39V137.24H250v-1.17l.39-.78H250v-1.56h-.39l-.39-.78h-.392v-.39l-.39-.39h-1.172l-.39.39-1.173 1.17-.39.39-.39.39-.392.78v.39h-.39l-.39.39-.39.39v.78l-.39 1.17-.392.39v1.17h-.39V141.137h-.39l.39 1.56-.782.39h-.78v.39h-.782v.39h-.782l-1.953.39-.782.39v-.39h-.78v-1.95l.39-.39.39-1.17v-.39l.39-.39.39-.39v-.39l.392-.39.39-.39v-.39h.39l.392-.39v-.388h.78l-.39-.78h.39v-.39zM73.046 151.275l1.562-.39.39.39h.39v.39l-.78.78v.78l-.39.39v.78h-.392v.39l-.39.39v.39h-.39l.39.39-.39.39v.78l-.392.39v2.338l-1.172.39v.39h-.39l-.782.39h-.39v.39H68.75v.39h-1.953v.39H64.844v-.39l-.78.39v-.78l-.392.39v-1.56h.39v-.78l.782-1.17.78-.78.392-.78h.39l.39-.39v-.39l.392-.39.39-.39h.39v-.39h.39v-.388h.392l.39-.39.39-.39.392-.39.39-.39.39-.39h.782v-.39h.39v-.39h.782l.39-.39zm-8.984-.39l2.343-.39.39.78-1.562 1.17v-.39l-.39.39v.39l-.39.39-.39.39-.392.78-.78.39-.783 1.56-.782 1.17v.388l-.39.39v.39h-.39v3.12h.39v.39l.39.39v.39h.39l.39 1.17 1.955.778v.39h1.17l.392.39 3.906-.39.392-.39h.39v-.388h1.172l-.39-.39h1.172l.39-.39h.39l.39-.39h1.173v.78l1.17 1.17 1.173 1.17.39-.39.39.78h.392l1.563.39 1.17.78 1.173-.39v.39l1.954-.39h.782v-.39h.78v-1.17h-1.17v-.39h-.392l-.78-.39H81.64l-.783-.39h-.39l-.782-.39h-.39l-.392-.39-.39-.39-.782-.39h-.39l-.39-.78h-.392v-1.17h.39l-.39-.78 1.172-1.56v-.39l.39-1.168.392-.78v-.78h.39v-1.95h-.39v-.78l-.39-.39v-.39h-.392l-.39-.39v-.39l-.39.39v-.39l.78-.39v.39h1.562v.39h.392v-.39h.78v-.39h.39l.783-1.168v-.78h-.39v-.78l-.78-.78-.392-.39h-.39l-.39-.39h-.782l-.39-.39h-1.173v-.39h-3.125v.39h-.78v.39h-.782v.39h-1.172v-.39l-.782.39-.39-.39v.39h-.39v-.39h-1.563l-5.86.39v.39h-.782l-.78.39-.392.39-.78.39h-.782v.39l-.39.39v.39h-.782l-.39.39-.782 1.17-.78.78-.782.78v.39l-.782 1.168-.78.78v.39l-.392.39v.78l-.39.39-.39.39-.39 1.17-.392 1.17h-.39v.78l-.39.778-.392.78-.39.78-.39.39-.392.78-.78.39-.392.78h-.78v-.39l-.392-.78-.39-.78h.39v-.78h.39l-.39-1.17.39-.39v-.78h.392l-.39-.39.39-.39v-.39h.39v-.78l.39-.78v-.778l.782-.39.39-1.56h.39l.783-1.17-.39-1.56-.39-.39-.39-.39v-.39h-.782v-.388h-.39l-.782.78v.39h-.39l-1.173 2.34v.388h-.39v.78l-.782.78v1.17l-.39.39-.39.39.39.78h-.39v1.17h-.39v1.558h-.39l.39 1.56h-.39v.78h.39v.78h.39v.78l.39.78v.39l.782.39.39.78v.388h.39l.392.39h.78v.39h.782v.39l1.953-.39.39-.39.39-.39.39-.39h.392v-.39h.39v-.39h.39v-.39h.392v-.39l.39-.78.39-.39v-.778l.782-.78v-.39l.39-.78v-.39l.392-.78.39-.39v-.78.39l.78-1.56v-.39h.392V157.515l.39-.39.39-.39v-.39h.392l.39-.39v-.39l.39-.39.392-.78.78-.39.392-.39.39-.39.39-.39v-.39.39l1.563-1.17h.78v-.39h.782l.39-.388zm141.015-7.407v-.78l.39-.39h.39v.78l-1.17 1.95h-.39v-1.17l.78-.39zm-23.047-3.51h.782v.39l.39-.39.392.39h.39l.39.39.392.39v.78h.39-.39v1.17l-.39 1.17h-.392v.39l-.39.39-.39.39-.392.39v.39l-.39.39h-.39l-.39.39h-.783v.39h-1.172v-.39l-1.172.39-1.172-.78v-1.56l1.172-1.95.39-.39h.39v-.78l.392-.39.39-.39.78-.39v-.39h.392l.78-.39zm18.75-.39H202.344v.39l-.39.39v.78h-.39v1.17l-.39.39.39.78h-.39v1.56h.39v.78h.39v.78l.39.39v.39h.39v.388h-.39v.39l-.78.78h-.782l-.39.78h-.78l-.39.39h-.782l.39.39h-1.172v.39h-1.172v.39h-3.515l-.783-.39v-.78h-.39v-1.95h.39l-.39-.39h.39v-.39l.39-.78.392-1.17h.39l.39-.39v-.39l.39-.388v-.39.39l.39-.78h.392l.39-.39.39-.39.782-.78.39-.39h.392l1.172-.78.39-.39h.78l.392-.39h.78v-.39zm-12.89 4.29l-.39-3.12v-.39h-.39v-.78l-.782-1.17-.39-.39-.39-.39-.782-.778-.39-.39h-.392l-.39-.39h-3.125v.39h-.392l-1.562 1.17-.39.39-.392.39-.39.39-.39.39-.39.78v.39l-1.173 1.168-.39 1.17v.39l-.39.78-.782.78v.39h-.39l-.39.39-.392.78v.39l-.78 1.168-.392.78-.78.78-.392.78-.78.39v.78h-.39l.39 2.34.39.39.39.39h.39v.388h.782v.39l.39-.39H173.047v-.39h.392v-.78l.39-.39h.39v-.78l.39-.39.392-.39v-.39l.39-.388.782-.39.78.39h.782l.39.39h.782l.782.39.78.39h.782v.39h1.952l.392.39h1.562v.39h5.469v.39l.392.39.39.39.39.388h.782l.78.39h3.908v-.39h1.172l.39-.39h.78v-.39H200l.78-.39h.783v-.39h.39v-.39l.78-.39.783-.39.78-.39v-.39l.39-.388h.392v-.39h.78v.39l.783-.39v.39h1.562l1.173-.78v-1.17h-.78l-.392-.39-.39-.39h-.39v-.78l.78-1.56v-.39l.39-.78v-.388h.39l-.39-.78.39-.39v-2.73h-.39v-.78l-.78-.78-.782-.78v-.39h-.39v-.388l-.39.39-.78-.78-.392-.39-.39-.39h-.39l-.392-.39h-.78l-.392-.39h-1.952v.39h-1.563v.39h-1.173l-.39.39h-.39l-1.173.78v.39h-.39l-.392.39h-.39l-.78.78-1.173.78v.39h-.392v.39h-.39v.39l-.782.388v.39l-.39.39v.39l-.39.39-.392.39v.39l-.39.78-.39.78h-.39v1.56l-.392.39V149.715h.39v.39h-.39l-.39.39-.39-.39H185.937v-.39H184.766v-.39h-.39v-.39h.78-.39l.78-.39v-.39l.392-.39.39-.39.39-.39v-.39h.39l.392-.78v-1.17h.39v-.778zM335.94 132.17h1.17l.783.39.782.78v1.17h.39v.78l.39 2.73h-.39l.39.78-.39.39-.39.78v.39h-.39l-.39.39v.778l-.783.39-.39.39-.782.39-.39.39h-.782l.39.39h-2.343l-.39-.39h-.392l-.39-.39-.39-.39v-.78h-.39v-.39h-.39v-1.17l.78-.78.39-.39-.39-.78-.39-.778-.39-.39.39-.78.78-.78.39-.39v-.39h.392l.39-.39.39-.39v-.39.39l1.173-1.17h.78l.783-.39zm2.734-10.916h.39v-.39h-.39v-.78l-.39-.39v-.39h-.39v-.39h-.782v-.39h-.39v-.39h-.782l-.39.78-.782.78v.39l-.39.39v.39h-.392v.78l-.39.39-.39.39v.39l-.39.39v.39l-.392.39v.78h-.39v.39l-.39.39v.39l-.392.39-.39.39v.778l-.39.78-.392.39-.39.39v.39l-.782 1.17-.78 1.17v1.17h-.392l-.39.39h.39l-.78 1.168v.39h-.392l-.78 1.95v.39l-1.173 1.17-.39 1.56v.78l.39 1.948.39.39h.39l.39.39h.392v-.39h.78l.782-.39h.39v-.39l.392.39.39.78v.39l.39.39v.39l1.563 1.56h.39l.39.39v.39l.782.39.39.388h1.563v-.39h1.563l1.17-.39.392-.39.39-.78.782-.39.78-.39v-.39l.392-.388.39-.39v-.39l.39-.39v-.39l.392-.39h.39l.39-.39.782 1.17 1.172-.39h-.39.78l.782-1.17h.39v-1.17l.782-.78v-.39h.39l.782-1.17v-.39l.39-.388v-.78l.39-.39v-.39l.392-.39.39-.39.39-.78v-.39l.39-.39.392-.39v-.78l.39-.39.782-1.168 1.172-1.17h.39v-.39l1.563-.78 1.953-.39.78 1.17h-.39v.78l-.78 1.95-.39.39v.39h-.392v.39h-.39l-.39.39v.39l-.392.39h-.39v.388l-.39.39-.782 1.17h-.39v.39h-.39v.39h-.392l.39.78h-.39v1.56h-.39v1.56l.39.778.39.78v.39h.39l.392.78h.78l.392.39h2.342l1.564-.39 1.172-.78v-.78l-.78-.78-1.173-.39v-.39h-1.952l-.39-.39v-.39l.39-.39v-.39h.39v-.39l.39-.39.39-.39.392-.388v-.39l.39-.39h.39v-.39h.392v-.39h.39v-.39h.39v-.39l.392-.39v-.39l.39-.39v-.39l.39-1.17.392-.78v-.778h.39v-3.12h-.39v-.78h-.39v-.39l-.392-.78-1.562-1.56-1.172-.388h-.78v.39h-1.953v.39h-.783l-.39.78-.78.39-.783.78-.39.39v.39H350v.388h-.39v.39h-.39l-.392.39v.39l-.39.39-.39.39-.392.39h-.39v.78l-.782.78-.39.39-.39.39-.39.39-.392.39v.78l-.39.39v.388h-.39v.39l-.392.39v.39l-.78.78v.78h-.782v-.78l-.39-2.73h-.392v-1.17l-.39-.39-.782-1.17v-.388h-.39l-1.172-1.95v.39-.78l-.39.39-.782-.78h-2.734l-.39-.39h.39l.39-.39v-.39h.39v-1.17l.782-.39.39-.78v-.778h.39v-.39l1.564-1.17v-.78zm-175.39 21.834l2.734-.39.39.39.782-.39.39.39h.39l.39.39.783.39H171.095v-1.56l-1.563-1.56-.78-.39-1.562-.78H166.016v-.39l-1.563.39v-.39l-3.516.39-.78.39h-.782l-.78.78h-.783l-1.562 1.17v.39l-.78.39-.782 1.17-.782.78-.39.39h-.39v.39l-.392.39v.78l-.39.39-.39.39v.388l-.392.39-.39.78v.39l-.39.39v.78h-.39l.39 3.51.39-.39v.78l.78.778v.78h-.78l-1.172.39h-1.953v.39l-4.297.39H142.188v.39h-.782v-.39h-.78v.39h-.392v-.39l-1.953.39v-.39l-.78.39v-.39h-.78l-1.173-.39v-1.56l1.172-1.95h-.392.78v-.78l.392-.39h.39l.39-.39v-.39h.392v-.388h.78l-.39-.39 2.344-1.56h.39l.392-.39h.39v-.39h.39v-.39h1.562v-.39h.783v-.39H150.39v-2.34l-1.562-.778h-.39v-.39l-1.172-.39h-.782v-.39l-2.343.39-1.562.39v.39h-.78l-.392.39h-.78l-.782.78-1.172.78h-.39v.39h-.39l-.392.39-.39.39-.39.39-.392.388h-.39l-.39.39-.392.39-.39.39v.39l-.39.39h-.392v.39h-.39v.39l-.39.39v.39h-.39v.78-.39l-.783 1.17v1.948h-.39v.39h.39v.78h.392v1.17l.39.39v.39l.782.78v.39l.39.39.39.39h.782l.78.39.783.39h1.17l.782.39 5.47-.78 3.514-.39 1.563-.39h1.56v-.39h2.345v-.39h1.563v-.39h1.17v-.39h.783l1.172-.39h1.563v-.39h.39v-.39h.782v-.39H161.72v-.39h.39l.78-.78h.782v-.39h1.172v.39l.39-.39.782.78h1.953v-.39l.39-.39.39-.39v-1.17H167.578l-.39-.39-.39-.39v-1.558h.39l.39-.78v-.78l.39-.78v-1.56l-.78-.78h-.39v-.78h-.392l-.78-.39H164.453l-.39.39v.78l-.392.78-.39.39-.39.39.39.39h-.39v1.56h-.392v1.17l-.78.39-.392.39-.78.78h-.782l-.39.39h-.392v.39h-.78l-1.954.39h-1.172l-.78-.39v-.78h-.392v-1.17h.782v-.78l.39-.39v-.78h.39l.39-.39v-.39l.392-.39.39-.39.39-.39.392-.78.39-.39h.39l.392-.39v-.39h.78v-.39l.782-.39.39-.388h.39v-.39h.783v-.39h.78l.78-.39zM16.405 135.29v-1.17l-.39-.78h-.782l-.78-.39h-.782v-.39h-.78l-.392.78v.39h-.39v.78l-.39 1.17-.782 1.17v.78l-.782.78v.78l-1.172 1.948-.39.39.39.39-.39.39v.39l-.78 1.56-.392.39-.39 1.56h-.39v.39l-.392.39v.778l-.39.39v.39l-.39.39v.78l-.392.39v.39l-.39.78v.39h-.39l.39.78-.39.39v.39l-.782.78v.778l-.39 1.17v.78h-.392v.39h-.39l.39.78-.39.39v.78h-.39v1.95H1.56l.39.778h-.39v1.56h-.39v2.34l.39 4.288v.78l.782.39.39 1.17.39.39.392.39h.39v.39h.78v.39l.392-.39.39.39h1.563l.783-.39h.78l-.39-.39 1.563-.78h.39v-.39l1.953-1.56v-.39l.39-.39v-.39h.39l.39-.39v-.78h.782l.39-.78h.392v-.39l.39-.39.39-.78.392-.39.78-.778.39-.39.392-.78v-.39h.39v-.39h.39l.392-.39v-.39l.39-.39v-.78h.39v-.39h.392v-.39l.39-.39v-.78h.39v-.39l.392-.39v-.388h.39v-.78h.39v-.78l.392-.39v-.39l.39-.78h.39l.782-2.73v-.778l.39-.39v-.78l.39-.39.392-.39v-.78l.78-1.56v-.39l.782-1.948v-1.17h.39l.392-1.17v-.78h.39v-1.56l.39-.39V136.07h-.39v-.78l-1.562-.78h-.78l-.392.39v.39h-.39l.39 1.17h-.39v1.95h-.39l.39.39h-.39v1.17h-.392v.78l-.39.778v.78l-.782 1.56v.78l-.39.39v.78h-.39v.78l-.782 1.558v.39l-.78 2.34v.78h-.783v.39l-.39.78-.39.39-.39.39v1.168l-.39.78v.39h-.392v.39h-.39v.78l-.39.39v.39l-.392.39-.39.39-.39.39v.78h-.392v.39h-.39v.39l-.782 1.168h-.39v.39l-.39.39-.39.39-.783.78-.39.78-.782.78-.39.78-.392.39-.39.39v.39h-.39l-.392.39-.78.778-.39.39-.392.39v.39h-.78v.39h-.783v.39H4.687v-1.95h-.39v-.39h.39v-4.678l.39-.39v-.78h.39l-.39-.78h.39v-.78h.39l-.39-.78.782-.78v-1.17l.39-.778v-.39l.39-.39v-.78l.392-1.17h.39l-.39-.39.78-1.56v-.39l.392-.39.39-.778v-.78l.39-.78h.392l.39-1.56v-.39l.39-.39v-.78l1.173-1.17v-.39l.78-1.168.39-1.56v-.39l.39-.39.392-.78.39-.39.39-.39v-.39l.392-.78.39-.39v-.778l.39-.39v-.39h.392v-.78h.39v-.39zm293.36-20.274v-.39l-.39-.39v-.78l-1.173-.78-1.172-.39h.392-.78l-.392.39v.39l-.39.39h-.39l-.392.78v.39l-.39.39-.39.39v.78l-.392.39v.78h-.39v.39h-.39l-.392.78v.78h-.39l-.78 2.338v.39h-.392l-1.172 1.95v.78l-.78 1.56-.392.78v.388l-.78.78-.392.78v.39l-.39.39v.39l-.39.39v.39l-.392.39v.39h-.39v.78-.39l-.78 1.56h-.783l-.39-.39-.39.39h-.39l-.782 1.168v.39h-.39v.39h-.39v.39l-.392.39-.39.78-.39.78-.392 1.17-.39.39.39.39-.78 1.168v-.39 1.56l-.39.39v1.17h.39v1.17h.39v.39l.78.78h.782v-.39h.782l.39-.78.39-.39.39-.39v-.39l.392-.39.39-.78.39-.39.392-.39v-.39l.39-.39h.39l-.39-.39 1.172-1.17h.39l.782.78h.39l1.173.78h.39l.39.39H301.562v.39h.782v.39l1.953-.39v.39-.39h2.344v-.39h1.954v.39l.39.78.782.39.39.78.782.39.39.39.78.39.783.39.782.39.78-.39v.39h.392v.39h.78l3.907-.39.392-.39.78-.78-.39-.78-.39-.39h-.39l-.782-.39h-.78v-.39H315.233v-.39l-.39.39v-.39h-.78l-.783-.39-.78-.39-.39-.39-.782-.39v-.39l1.563-.78.39-.39.783-.78.78-.78.39-.388.392-.78v-.39l.39-.39v-.39h.39v-.39l.392-1.17v-.39h.39v-1.56h-.39V131l-.39-.388v-.39h-.39l-.392-.39-.39-.39h-2.344l-.39.39-.78.39v.39h-.392v.78h-.39l-.39.39-.392.39v.39h-.39v.39h-.39l-.392.78-.39.778-.39.78-.39.78v.78l-.392.78h-.78l-1.954.39H301.173v-.39H299.61l-.39-.39-.392-.39v-.39h-.39v-.39h.39l-.39-.78.39-.39.39-.39.39-.78v-.78H300v-.39l.39-.39.39-.39V131l.392-.388.39-.39v-.39l.39-.78.392-.78.78-1.17v-.39l.392-.39v-.78h.39v-.39l.39-.39v-.78l1.173-2.338v.39-.78l.78-.78.39-.39v-.39l.39-.78v-.39l.392-.39.39-.39v-.39l.39-.388.392-.39.39-.39.782-1.17zM265.626 131l2.343-.388 1.17.78v.39l.39.39.392.78h.39v.78l-.78.778v.39l-.39.39v.39h-.392l-.39 1.17h-.39v.39l-.392.39v.78h-.39l-.39 1.95h-.392l-.39.39-.39.388-.392.39h-.39l-.782.78h-.78l.39.39h-.78.39-1.173v.39h-.782v.39h-3.125v-.39l-.78.39.39-.39-1.172-.78-.39-1.95.78-1.95h.392v-.78l.78-.388.392-.78v-.39h.39l.39-.39v-.39l.782-.39.39-.78.392-.39h.39l.39-.39h.39l.392-.39 1.172-1.17h.78l1.173-.78zm5.858 1.95v-2.728h-.39v-.39l-1.172-1.95h-.39v-.39h-.39v-.39l-1.173-.39h-.392v-.39l-1.953.39h-1.172v.39h-.39l-.39.39h-.782v.39h-.39l-.39.39h-.39l-.392.78h-.78l-.392.39-.39.39-.39.39-.392.39v.39h-.39v.39l-1.172.78v.39h-.39l-.39.39-.392.39v.78h-.39v.388l-.39.39-.392.39-.39.78v.39h-.39v1.17h-.392l.39.39h-.39v1.95h-.39l.39.78h-.39l.39 2.728v.78l.39.39.392.78h.39v.78l.78.39.392.39h.78l.392.39h.78v.388l1.564-.39v.39h.39v-.39h2.344v-.39h.39l1.172-.39.39-.39h.782v-.39h.782v-.39h.39l.39-.78h1.173v.78h.39v.78l.39.39.39.39.39.39.392.39h.78l.782.78h1.172v-.39h.39l.392-.39h.39l-.39-.78v-.39h-.782l-1.172-1.95v.39-.778h-.39l-.39-.39v-.78h-.39l-.392-1.17h.39l.39-.39.392-.78.39-.78h.39v-.78h.392v-.78h.39l.39-.78V136.07h-.39v-.39h.39v-.39h-.39v-.39l-.39-.78h-.39l-.392-.39v-.78zm97.266-6.237h.78v.39h3.517v-1.95h-.39v-.39l-.782-.78-.78-.39v-.78l-1.564-.39h-1.952v.39h-1.172l-.39.39-.782.39-.39.78-.39.78v.39h-.39l.39.78h-.39v1.95h.39v.78l.39.39v.78h.39v.39h.39l1.173 1.948h-1.172v.39h-1.562l-.782.39-.39.39h-.78l-1.172 1.95v1.17h-.39l.39 1.95v1.17h.39v.39h.39v.39l.39.388h.392v.39h.39l.782.78h.78l-.39.39 1.954.39h.78v.39h1.562v.39h2.736v.39h.782v-.39h1.563v-.39l.78-.39v-.39h.39-.39v-.39h-.39v-.78h-.78v-.39h-.782v-.39h-.782l-.78-.39H369.53v-.39H367.577v-.39l-1.953-.78h-.39l-.782-.39v-.39l.78-.778h1.173v-.39h1.563-.392l4.688-.78 1.172-1.17v-1.56h-.39v-.39h.39-.39v-.39l-.392-.78-.39-.39V131h-.39v-.388h-.392v-.39h-1.17v-.39h-.392v-.39h-.78v-.39l-.392-.39-.39-.39-.39-.39v-.78h.78v-.39zm-48.828-6.628l1.953-.39v.39l1.953-.39v.39h.39v.39l.782-.39 1.172.78v1.17l-.39.39-.39.39-.392.39-.78.39h-1.173v.388l-4.297.39v-.39h-1.562l-.39-.39h-.392l-.78-.39v-.39h-1.562l-.392.39v1.17h-.39l.39 1.17v1.17h.78v.39l1.564.78h1.562v.39l1.172-.39v.39h1.953l4.297-.39h1.172v-.39h.39v-.39h.782l.39-.39.782-.78v-.39l.39-.39v-.78l.39-.39v-3.508h-.39v-.39l-.39-.39v-.39l-.782-.78-.39-.39-.782-.39-.39-.78h-.39l-1.173-.39h-.782v-.39H321.484v.39h-.78l-1.173.39h-1.17v.39h-.782v.39h-.78l-.392.78h-.39l-.39.78v.78h-.392l.39 1.17v.39h.782v-.39h1.172l.78-.78h.783v-.39h.782zM40.625 141.138h1.563v.39l.78-.39v.39h.39v3.12h-.39l.39.39-.39.39h-.39v.78l-.78.39v.78l-.782.388v.39l-2.344 1.17h.39-1.952v-1.56h-.39l-.392-.78-.39-.39-.39-.39v-.39l.39-.78.39-.778.78-.78.392-.39.39-.39h.39l.392-.39v-.39H39.844v-.39h.78v-.39zm-6.64 3.12l.39 2.34h-.39v1.948h.39v1.56h.39v.78h.39l.392.39v.78h.39v.39h.39l.392.39h1.17v.39h1.954v-.39h.78l.782-.39.782-.39.39-.39v-.39h.39l.39-.39.783-.39.39-.39v-.39l.392-.39v-.39.39l1.172-1.56v-.39l.39-1.17v-.78h.39l-.39-1.168h.39v-1.56l-.39-1.17-.39-.39-.39-.39v-.78.39l-.39-.78-.783-.39-.78-.39-.78-.39-.392-.78-.78.39v-.39h-1.954v.39h-1.172l-1.953 1.56-.392.39h-.39v.39h-.39l-.392.39-.39.78-.39.39-.392.39-.39.78.39 1.17zM400 117.355v-1.17l-.39-.78-.39-.39v-.39l-.392-.78h-.39v.39l-.39.39h-.392l-.39.39v.78h-.39l-.392.39v.78l-.39.78-.39.39-.39.78-.392.39v.39l-.78 1.56-.392.39v.39h-.39v.78l-.39.39-.392.39v.388l-.39 1.17-.782.78-.39.39.39.39h-.39l-.39 1.17-.392.39v.78l-.78.78-.782.78.39.388-.39.78-.78.78-.392.78v.39l-.39.39v.39l-.39.39.39.39-.782 1.17-.39.39.39.39-.78.39v2.34h-.392v.78l-.39.388v1.95h-.39v1.95h-.392v.39h.39v.39l.782.39h.39l.392-.78v-.78l.39-.39v-.78h.39l-.39-.78h.39v-.39h.39l-.39-.39 1.173-2.34v-.39l.782-1.56h.39v-.388l.39-.39v-.39l1.173-2.34h.39l-.39-.78h.39l1.173-1.56V131h.39v-.778l.39-.39v-.39l.782-.39v-.78l.39-.39.39-.39.392-.39v-.39l.39-.39v-.39l.39-.39v-.39h.392v-.78h.39V123.205h.39l.392-.39v-.39l.39-.39.39-.78v-.39h.392l1.17-2.34v-.39H400v-.78zm-365.625 35.87v-1.17l-1.562-.78h-.782v-.39h-.78l-.39 1.17v.39l-.39.39v.78l-.783.78-.39.78v.78l-.39.39-.39.78v.39l-.392.388-.39.78-.39.78-.392.78v.78h-.39l-.39 1.17v.39h-.392v.39h-.39v.78l-.39.39v.39l-.39.388-.39.78v1.17l-.392.39v.39h-.39l.39 1.95h.39v.39h.39v.78l.783.39H26.953l.392-1.17v-1.17l.39-.39v-.78l.39-.78.782-.78-.39-.78h.39l.39-.39v-.778h.39v-.39l.392-.39v-.78l.39-.39.39-.78h.392l1.953-4.678h-.39.39l.78-2.34h.392v-1.17zm354.688 5.458v-.78h-.782v-1.17l-.39-.39v-.39l-.78.39-.39-.39H385.547l-.782 1.56v.39h-.39v1.95h.39v.78l.39.39.39.39.392.39h.78v-.39h1.173l.39-.78h.392v-1.17h.39v-.78z" fill="#007cc3" fill-rule="evenodd"/><path d="M130.078 64.72v6.63h11.72v-3.12l.39-.78v-.39l.39-.39.39-.39.39-.39h1.564l.39.39.39.39.392.39.39.39v8.578h-23.047l-.782-.39h-.39l-.39-.39v-.39l-.392-.39v-1.17l.39-.39v-.39l.392-.39.39-.39h.78l.392-.39H125.39V53.415h-1.952l-.782-.39h-.39l-.39-.39v-.39l-.392-.78v-.78l.39-.39v-.39l.392-.39.39-.388h.78l.392-.39h21.485v8.578l-.39.39v.39l-.392.39-.39.39h-1.952l-.39-.39-.392-.39-.39-.39v-1.17l-.39-.78v-2.34h-10.548v6.628h3.906v-.78l.39-.78v-.78l.392-.39.39-.39h.78l.392-.39.78.39h.392l.39.39.39.39.392.78v8.188l-.39.39-.39.39-.392.39-.39.39H135.937l-.782-.39-.39-.39-.39-.39v-.78l-.392-.78v-.78M175 53.414V71.35h10.156v-5.46l.39-.78v-.39l.392-.39h.39l.39-.39H187.89l.39.39h.392l.39.39.39.39v1.17l.392.78v8.968h-23.438l-.78-.39h-.392l-.39-.39v-.39l-.39-.39v-1.17l.39-.39v-.39l.39-.39.39-.39h.782l.39-.39h3.516V53.415h-3.906l-.78-.39h-.392l-.39-.39v-.39l-.39-.78v-.78l.39-.39v-.39l.39-.39.39-.388h.782l.39-.39h11.72l.78.39h.392l.39.39.39.39v.39l.39.39v.78l-.39.78v.388l-.39.39h-.39l-.39.39h-1.564M212.11 68.62h-11.33l-1.17 2.73H201.562l.78.39h.39l.392.39.39.39.39.39v1.948l-.39.39-.39.39h-.39l-.39.39h-8.984l-.782-.39h-.39l-.39-.39v-.39l-.392-.39v-1.17l.39-.39v-.39l.39-.39.392-.39h.78l.783-.39h.782l7.03-17.934H197.656l-.78-.39h-.392v-.39l-.39-.39V50.295l.39-.39v-.39l.39-.388h.782l.782-.39h10.546l9.375 22.613h.78l.39.39h.783l.39.39.39.78.39.388v1.17l-.39.39v.39l-.39.39h-.39l-.39.39h-9.374l-.392-.39h-.39l-.39-.39v-.39l-.392-.39v-1.17l.39-.39v-.39l.392-.39.39-.39h.39l.782-.39h1.953l-1.17-2.728zm-1.954-4.68l-3.515-8.966-3.906 8.967h7.422zM137.11 108.778h-11.33l-1.17 2.73H127.342l.39.39.392.39h.39l.39.78V114.625l-.39.39-.39.39-.39.39h-.39l-.782.39h-7.812l-.78-.39h-.392l-.39-.39-.39-.39v-.39l-.392-.39v-1.17l.39-.39v-.39l.39-.39h.392l.78-.39h1.564l7.03-18.323H121.877l-.392-.39-.39-.39v-.39l-.39-.39v-1.17l.39-.39v-.39l.39-.39h.39l.782-.39H133.984l9.375 22.614H144.92l.39.39.39.39.392.39.39.39v1.17l-.39.39v.39l-.39.39-.39.39h-.392l-.78.39h-7.815l-.78-.39h-.392l-.39-.39-.39-.39v-.39l-.392-.39v-1.17l.39-.39v-.39h.392l.39-.39.39-.39H138.282l-1.17-2.73zm-1.954-4.68l-3.515-9.356-3.906 9.357h7.422zM157.03 105.66v5.847H160.157l.39.39.782.39.39.78v1.56l-.39.39v.39l-.78.39h-.392l-.78.39h-8.594l-.39-.39h-.783l-.39-.39-.392-.39v-.39l-.39-.39v-1.17l.39-.39v-.39h.39l.39-.39.783-.39H152.345V93.183h-2.735l-.39-.39-.392-.39v-.39l-.39-.39v-1.17l.39-.39v-.39l.39-.39h.39l.783-.39H164.453l1.172.39h.78l1.173.39.78.39.783.78.782.39.39.78.782.39.39.78.39.78.392.78v4.288l-.39 1.17-.782.78-.782.78-.78.78-.782.78-1.562.78.78.78 1.173.78.39.78 1.173 1.168.39.39.782 1.17.78 1.17.783 1.17h1.952l.39.39.392.39.39.39V114.625l-.39.39v.39l-.78.39H175l-.39.39h-3.516l-1.563-2.34-1.17-1.56-1.563-1.56-.78-1.558-1.173-1.17-1.172-1.17-1.172-.78-.78-.39h-4.69zm0-4.68h5.469l.78-.39h.783l1.17-.39.783-.78.78-.39.392-.39.39-.39v-.39l.39-.39v-.39l-.39-.778v-.39l-.39-.78-.782-.78h-.39l-.39-.39h-.392l-.39-.39h-1.172l-1.172-.39h-5.47v7.798zM186.72 93.183v18.324h1.952l.78.39.392.39h.39v.78h.39v1.17l-.39.39v.39l-.39.39-.39.39h-.782l-.39.39h-7.812l-.782-.39h-.39l-.392-.39-.39-.39-.39-.39V112.676l.39-.39h.39l.39-.39.392-.39h2.342V93.183H179.3l-.392-.39-.39-.39-.39-.39V90.063l.39-.39.39-.39h.39l.392-.39h8.984l.78.39h.392l.39.39v.39l.39.39v1.17l-.39.39v.39l-.39.39-.39.39H187.5M195.703 111.507V93.183h-1.952l-.39-.39-.39-.39v-.39l-.392-.39v-1.17l.39-.39v-.39l.39-.39h.392l.39-.39h13.671l.782.39 1.172.39 1.172.39.78.39.782.78.78.39.392.78.78.39.392.78.39.78.782.78.39.78.39 1.168.39.78v.78l.392.78v6.24l-.39 1.17v1.168l-.782 1.17-.39 1.17-.782.78-.39 1.17-.78.78-.783.39-.78.778-.78.39-.782.39-1.172.39-1.563.39h-1.562l-1.562.39h-10.155l-.782-.39h-.39l-.39-.39-.39-.39v-.39l-.392-.39v-1.17l.39-.39v-.39h.39l.392-.39.39-.39h1.562zm4.297 0h6.25l1.172-.39h1.172l.78-.39.782-.39.782-.78.39-.78.78-.78.392-.78v-1.168l.39-.78v-4.68l-.39-.78v-1.17l-.39-.78-.782-1.168-.78-.78-.782-.78-.782-.78-.78-.39-.782-.39h-1.172l-1.172-.39H200v18.325zM237.11 108.778h-11.33l-1.17 2.73H227.342l.39.39.392.39h.39l.39.78V114.625l-.39.39-.39.39-.39.39h-.39l-.782.39h-7.812l-.78-.39h-.392l-.39-.39-.39-.39v-.39l-.392-.39v-1.17l.39-.39v-.39l.39-.39h.392l.78-.39H219.53l7.423-18.323H221.876l-.392-.39-.39-.39v-.39l-.39-.39v-1.17l.39-.39v-.39l.39-.39h.39l.782-.39H233.984l9.375 22.614H244.92l.39.39.39.39.392.39.39.39v1.17l-.39.39v.39l-.39.39-.39.39h-.392l-.78.39h-7.815l-.78-.39h-.392l-.39-.39-.39-.39v-.39l-.392-.39v-1.17l.39-.39v-.39h.392l.39-.39.39-.39H238.282l-1.17-2.73zm-1.954-4.68l-3.515-9.356-3.906 9.357h7.422zM250.39 111.507V93.183h-1.952l-.39-.39-.392-.39v-2.73l.39-.39h.392l.78-.39H262.502l1.172.39 1.172.39.78.39 1.173.39.78.78.392.39 1.17 1.17 1.173 1.56.39.78.39.78.39 1.168.392.78v.78l.39.78v7.41l-.39 1.168-.39 1.17-.782 1.17-.39.78-.782 1.17-.78.78-.78.39-.782.778-.782.39-.78.39-1.173.39-1.172.39h-1.56l-1.954.39H249.61l-.39-.39h-.782l-.39-.39-.392-.39v-2.73h.39l.392-.39.78-.39h1.173zm4.688 0h6.25l.78-.39h1.173l.782-.39.782-.39.78-.78.782-.78.39-.78.392-.78.39-1.168v-6.24l-.39-1.17-.39-.78-.392-1.168-.78-.78-.782-.78-.782-.78-.78-.39-1.173-.39h-1.172l-1.172-.39h-4.688v18.325z" fill="#dd137b"/></svg>