<svg xmlns="http://www.w3.org/2000/svg" width="400" height="273.017"><path d="M30.106 163.925l-16.856.78.704 10.937h1.495l2.227.784 1.436.707.704.71.79 2.204-.79 1.49-.704.71-1.436 1.492H15.45l-9.5.71-2.227-.71-2.228-.782-.703-.71v-3.62l1.436-1.495 1.495-.707H5.95l-.79-30.755H2.93l-1.435-.78-.703-1.42V140.557l.703-1.492 2.228-.71H5.95l8.004-.78h2.228l1.495.78.703 1.42.733 1.49v1.495l-1.436 1.42-1.495.71-2.228.78h-1.437l.733 10.94h16.856l-.703-11.72h-3.665l-1.495-.71-.703-1.42-.733-1.494v-1.49l1.436-1.42 1.495-.78 2.17-.712H38.198l1.494.71 1.437 1.49v2.912l-.705 1.494-1.524.71-1.406.71.703 30.042h2.932l1.494.71.733 1.49.703 1.495v2.2l-.703.71-1.525.71-2.93.71H27.174l-1.437-.71-1.495-1.42v-2.984l1.495-1.417 1.437-.784h3.664l-.734-11.717zM80.733 169.11l-18.293.71-2.227 4.402h4.367l1.495.71 1.525 1.494v2.911l-.792 1.49-2.228.71-2.14.71H49.923l-2.228-.71-.703-1.49V177.133l.703-1.49 1.524-.71h2.93l10.994-31.463-5.13.71-2.228-.71-1.436-.71-1.495-.783v-3.622l.79-.78 1.437-.71 2.932-.71 16.856-.78 16.885 38.067h3.665l.762 1.49.733 2.2v1.495l-.733 1.42-1.495.78h-2.932l-10.29.71h-2.14l-2.227-.71-.704-1.49v-2.911l.704-1.494 1.436-.71 2.932-.78h1.495l-2.227-4.332zm-2.932-8.097l-7.27-14.632-5.95 15.414 13.22-.78zM126.23 136.154l1.494-2.2h3.665l1.494.71.703 1.49v2.91l.733 6.607v2.202l-1.436 1.42-.733.784-1.494.707h-1.437l-1.496-.707-.703-1.494-.79-2.2-.704-2.202-2.228-1.42-2.14-.783-2.932-.71-2.93-.71-3.724.71-2.93 1.493-2.933 2.13-2.23 2.982-1.435 3.622V163.925l1.436 2.2.793 2.2 2.14 2.205 2.228 1.49 2.932.71 2.93.712h7.359l3.666-1.42 1.495-.71 2.2-2.202 1.436-1.494 1.495-.71 1.437.71 1.525.71.703 1.494.704 1.49-.705 1.42-.703 1.492-2.96 2.91-2.933 1.495-5.13 2.2-5.864.71-6.654-.71-5.863-2.2-4.37-2.2-3.722-4.406-2.198-5.114-1.437-5.893v-5.115l.704-5.822 1.495-5.185 3.664-5.114 4.427-3.622 5.07-2.2 5.16-.71 6.655.71 2.93.71 2.14 1.49zM182.015 158.81l.792 11.01h19.787v-7.315l.733-1.492 1.495-.71 1.437-.71 1.494.71 1.436.71.704 1.49v2.202l.79 12.428-36.672 1.494-2.227-.784-2.228-.71-.704-.707v-3.694l.704-.71 1.436-1.492h3.723l-.704-30.754h-3.724l-1.435-.71-1.495-1.49v-2.912l.704-1.42 2.227-.784h2.198l35.266-1.42V144.89l-.792 2.202-1.436.78h-2.931l-1.495-.78-.704-1.42-.733-2.202v-4.405l-18.38.71.732 11.008h6.655l.703-3.69 1.495-1.422 1.437-.78h2.228l.703.78.733 1.422.76 2.984v12.427l-1.494 1.422H191.6l-1.494-1.42-.733-3.695h-7.358zM226.78 144.89l.79 23.436h5.072l2.228.784.79 1.42v2.912l-.79 1.49-1.436.71-2.932.784h-12.516l-1.438-.784-.79-1.42-.705-1.49.704-1.42.79-1.492 1.438-.71h2.228l-1.525-30.755h-3.635l-1.436-.78-.792-1.42-.703-1.49.703-1.422.792-1.494 1.436-.71 2.228-.78h8.795l21.312 30.753-.79-23.438h-5.073l-1.524-.71-1.407-1.49v-2.915l.703-1.42 2.228-.78 2.14-.712H256.182l1.407.71 1.523 1.49v2.915l-.733 1.49-1.495.71h-2.228l1.525 38.78h-8.09l-21.313-30.752zM267.175 166.906l-1.495-30.042h-2.2l-1.435-1.49-.733-.71-.792-1.42.792-1.495.733-1.49 1.436-.712 2.2-.71 16.152-.78 4.456.78 3.635.71 2.932 1.49 2.93 2.205 3.665 4.332 2.932 5.185.762 2.91v3.623l.733 4.404-.733 4.402-.762 4.404-2.17 2.91-2.198 2.912-5.16 3.695-4.426 1.422-5.07.78-16.183.71h-2.2l-1.494-.71-.732-1.49-.703-1.42v-1.492l1.436-1.494 1.496-.71 2.2-.71zm7.3 0h8.09l4.427-.78 2.93-.71 2.933-2.202 1.436-2.91 1.496-2.915V150.076l-.704-3.696-1.495-2.91-2.228-3.694-2.932-2.2-2.93-1.422H273.77l.702 30.752zM352.276 149.293v4.404l-1.408 5.113-1.524 3.694-2.93 3.622-3.636 3.694-2.932 2.2-4.426 1.422-3.665.78-4.426-.78-3.636-.71-2.932-1.42-3.664-2.986-3.723-3.62-2.14-3.693-1.495-5.115-.704-5.115v-5.892l1.407-4.334 2.228-5.182 2.933-3.625 3.635-2.912 2.93-1.49 3.724-1.494H333.983l3.635 1.493 4.456 1.49 2.932 2.912 2.93 3.624 2.14 4.402 1.496 4.404.704 5.113zm-7.27 0l-.792-3.622-.733-2.91-1.406-2.984-2.228-2.2-2.228-2.202-2.198-.71-2.932-1.42h-2.228l-2.93.71-2.23.71-2.93 1.49-1.408 2.2-2.228 2.912-1.436 2.204-.792 3.622v2.984l.792 3.62.733 2.913 1.408 2.983 2.228 2.2 2.228 2.132 2.198 1.49 2.932.71h2.228l2.93-.71 2.14-.71 2.23-1.49 2.198-2.202 2.228-2.203.703-2.912.734-2.91.792-3.695zM155.632 140.556l.704 30.755H162.2l1.494.71.733 1.422.703 1.49-.703 1.494-.733 1.417-1.495.784h-2.14l-13.955.71h-2.2l-2.227-.71-.703-1.494v-2.91l.703-1.492 1.495-.71 2.932-.71h2.93l-1.494-30.754-2.93.71-2.228-.71-1.407-.78-1.525-.71v-3.692l.733-.71 1.495-1.42h2.932l13.954-.784 2.198.783 1.437.71.79.71.704 1.49v2.202l-1.495.71-1.438.71-2.198.78h-2.932z" fill="#ec008c"/><path d="M385.343 216.694v-.78l-.733-.71V210.8l1.436-10.228.792-2.912v-3.694l2.14-12.428 1.495-6.606 1.436-5.112.79-5.115v-1.49l2.14-2.202h1.496l1.436.78 1.495 1.42v1.492l.733 3.62-.733 4.406-.703 5.113-.792.784v2.91l-.703.71-1.438 8.808-.79.71v.71l-.705 2.2V198.37h-.733v2.202l-.703 1.42v.783l-.79 2.2v1.422l-.704 3.692-.733 2.913-1.495 2.91h-.704v.78l-.733.712-2.197 1.42v-2.13zm-3.665 20.455l2.14-.712 1.525-.71.703-.78v-.71l.792-1.49v-2.205l-.792-2.2-1.436-1.42-.792-.712h-.703l-1.437-.78h-1.495l-1.436.78-.792 1.422v3.694l.792.71v1.49l1.436 2.202 1.495.71v.71zm-15.45 5.894h.734v-.78h1.495l2.2-.71v-2.2l5.158-3.626-5.16.71v-.71l-2.198-.78-1.495-.71-4.368-2.2h-.733l-2.197-1.495-.733-.707-2.2-1.494-3.722-3.62-2.93-2.913-1.437-3.695v-2.2l.704-.71.733-2.202.79-2.204v-5.112l-.79-2.202-.733-1.494-1.407-.71h-2.228l-1.496.71-.733.783V194.677l-1.406-2.2-1.524-2.132-1.495-1.49-1.437-1.49-3.635-.71h-4.426l-1.437.71h-1.495l-.733.78-2.198.71-8.09 5.112-7.36 6.606-2.93 3.62v.784h-.734l-1.436 2.912-2.2 2.91v.71l-.73 1.495-.764 1.49v.71l-1.436 3.622v5.185l.703 2.912h-8.794l-1.495-.71v-1.49l1.495-1.492 1.436-1.42 1.495-2.204v-.78l1.436-2.132.792-.78.704-2.2.733-1.422 1.494-1.493.703-1.492.733-.71.763-1.42.732-.78.704-2.205.732-1.418v-8.098h-2.169v-.71H297.28l-2.198.71-2.227 2.204-7.358 8.096v.71l-2.932 3.622-2.14 5.185-.79 4.332-.734 2.2-.703.784-.79.71-2.14 2.2-1.496 1.49-2.227 2.132h-.704l-2.932 1.494h-1.437l-1.494-.71-.733-.784v-1.42l.733-2.2 2.2-2.913 1.435-1.494 2.933-2.91.79-.712 1.438-.78.704-2.2.792-.71 1.436-.712.704-2.984.79-5.115-.79-1.418V201.282l-.704-1.49-.733-1.42-.704-.712-1.495-.78-1.436-.71h-.79l-2.933-.71-1.435.71h-1.495l-2.2.71-2.168 1.49-2.932 2.912-1.495 1.493-.703 1.418v.783l-1.525 2.2-1.407 2.913-2.93 5.114-.793 1.49-.733 2.13h-.703l-2.227.782h-3.635l-.704.71H233.435l1.436-3.622v-1.49l.79-2.2.705-.712V210.8l.704-1.492.73-1.42 1.496-4.402 2.228-5.826.704-.78 1.436-3.624.792-2.2 1.407-2.913 1.524-2.2-.79-2.204v-2.202l-1.438-1.49-1.496-1.42-.733-.785h-.702l-.704.784-1.524.71-1.407 2.91h-.792l-2.93 5.896-.733 1.42-.703 1.492-.792 2.2v.71l-.704.71-1.436 5.897-5.16 12.43v1.49l-.703 1.422-.792-2.2-.704-2.205-1.436-1.42-1.495-1.492h-1.525l-.703.71-1.437 1.49-.79 1.494v4.402l1.523 4.332.705 1.494 1.495 1.49.733 1.42h.703-.703l-2.932 7.317-1.523 6.606-1.407 4.4v4.404l.703 1.422 1.495 2.2 2.14.782v.71l.792-.71 1.436-.78 1.495-1.422.734-3.693.704-3.623.79-2.2 1.437-4.406 3.636-6.602.792.707h11.023l.704-.707h1.436l-1.436 3.69-1.495 8.028v2.2l.79 2.203 2.14 1.42 2.933.78.79-.78h.705l.704-.71.733-1.42v-1.493l.792-1.49 2.197-5.115v-1.422l1.437-2.98.703-.71.792-.712 1.435-1.49.704 4.402.79.71 1.437 1.49 1.495 2.204 1.436 1.42 2.228.78H268.61l2.23-.78H272.332l.705-.71h1.436l1.495-1.493 1.436-1.422 3.02-2.2.703-.71 2.227 2.2 1.436.71 2.2.71v.71l1.435.784H297.28l1.437-.783 5.16-1.422h.703l.733.71 2.932 1.494 2.198.71h8.797l1.524-.71 6.567-2.204 1.494-.71 1.436-.78 2.228-.71.704-.71 1.495-.78h.733l.703-.71 1.495-1.495 2.228-2.2 1.437-1.42 1.495 2.202 1.436 2.2.792 1.422.703.78 1.435.71 1.496 1.49 1.437.71 1.495 1.422h.704l.732.782h.792l1.407.71 1.524 1.49 4.37 1.422h1.494l-1.495 1.49 4.426-.71h.703zm-53.557-30.752l1.496-1.493.733-1.492h.703l3.635-3.62.79-1.495.734-.707h.704l.703-.71.79-.784.734-.71 2.198-1.49 3.665-1.42h2.93l2.2.71 1.436 1.49.792.71-1.495 2.91v1.494h-.733l-.704 2.202-.79 1.42-1.438 2.2-2.198 1.495-.733.71-7.358 5.112-2.228 1.49-1.407.71-1.524.784-1.407.71h-.734l-1.495.71h-.702l-.733.78-2.99.71-.733-2.2-.704-1.494.704-1.42.733-2.2 4.426-5.114zm24.245 1.42l2.14-2.913.79-.71-1.494 3.623-2.227 2.98-4.368 3.623.733-.71 2.932-2.912 1.495-1.49v-1.49zm-76.395 1.492l3.723-5.115.733-1.492.704-.71h.79l2.933-1.49h.703l-1.495 1.49-.702 1.42-1.437 1.49-2.227 2.205-2.93 2.91-.793-.71zM113.8 273.017l2.2-.71.73-1.492 1.496-2.202v-.71l1.437-3.622v-2.2l2.93-6.606v-.71l.705-1.492.79-1.49.705-1.422.733-2.983v-1.42l.703-2.203v-1.49l.79-.71v-.71l.704-1.49.733-1.495 1.495-3.622v-1.49l.704-.71 3.664-9.518.792 1.49h.703v.71l1.437 2.202 1.495.71H140.975l2.93-.71.705-.71h.703l7.388-3.692 2.2-1.494 1.436-.71.703-.71 3.02-1.49 2.14-2.912 2.93-2.2 2.932-3.696 6.654-8.736 2.228-5.113 2.14-5.116v-9.517l-.733-3.694-1.406-3.69-1.524-2.913-2.2-2.914-2.227-1.49-2.14-1.42h-1.495l-1.436-.78H161.494l-2.93.78-.733.71h-1.494l-1.437 1.49-2.2-.78v2.2l-1.524 1.494-.703.71-.704 1.49-1.525.71-1.407.712v.78l-.733.71v1.494h-.792l-2.14 1.417.733 1.494-2.228 2.91v.71l-.703.782-.792 1.42-4.368 10.3-.703.71h-.792l-.733 1.49-1.436 2.912-1.494 5.115-1.437 4.402-1.496 2.913-1.495 2.91-2.932 6.607-2.932 7.316-2.93 8.023-2.933 7.386-1.436 3.623-2.93 7.314-.793 5.114-.703 3.693-.732 2.913.733.71.704.782v.71l.792.71v.78l3.664 1.422zm24.243-56.323v-.78l.704-.71 1.436-4.405v-1.492l.792-2.13-.792-1.49v-.712l.792-2.2.703-1.494.704-1.49v-1.42l.79-.712v-.78l1.438-2.204v-.71l1.495-2.91 3.664-5.897.703-.71.703-.71 1.525-1.492.704-.71 1.495-1.49.732-.71 1.407-1.495 1.524-.71.703-.707h.792l3.634-1.494H167.357l1.496 1.494.704 1.417.732 2.984v2.912l-.733 1.42V186.652l-.704 2.2-.79 1.49-2.933 5.116-.703.71-3.665 4.402-2.93 3.62-2.933 2.205-4.427 4.402-7.3 4.404h-1.495v.71h-.703l-1.525.78h-1.407zm68.216 40.2v.782l-1.438-.782-.79.782h-1.438l-.762-.782h-2.17l-1.495.782v-1.492l-2.2-.71-2.168-1.492-1.495-1.42-2.932 1.42-5.863 2.912-5.863 2.202-1.495.78h-1.436l-.704-.78v.78l-1.524.712h-3.635l-3.723-1.492-4.368-2.202-2.198-2.13-1.525-2.202-1.408-2.983-.733-2.203-.792-1.42.79-1.492v-.71l.734-3.692 1.407-3.625v-.71l.79-2.2h.734l.703-2.202 2.228-2.2 1.495-2.204 1.437-1.49 1.495-1.422.703-1.49 1.437-1.494 1.495-1.42 1.436-1.49 1.495-1.422 1.524-.78.704-.71h.704v-.71l3.664-2.985 4.426-2.202h.704l2.96-1.42 3.694-.71 1.437-.78h2.931v.78h2.931l2.93.71 2.23 1.42 2.93 2.2.704 1.495v.71h.792l1.436 2.98 1.495 2.913.733 2.203v9.516l-1.524.71-.704.71-1.436.78-.792-.78-1.436-2.203-.704-2.2-.79-2.132v-2.2l-.705-1.49-2.93-3.695-2.23-1.42h-5.128l-1.437.71-1.494.71h-.733l-2.198 1.49h-1.437v.71h-.79l-.734.784-1.407 1.42-2.228 1.49-2.933 1.49v.712l-.703.71-2.228 1.493-.704.71-.79 1.49-.734.712-.703.71-2.228 2.2-.704 1.49-1.495 2.205-2.228 3.622-1.436 2.2v2.203l1.436 1.49 2.228.712h2.93l3.724-1.493H176.152l.792-.71h.703l7.3-3.623.79-.78.705-.71v-1.49l.733-4.336 2.198-4.402.733-.783.762-1.418h.733l1.438-2.203 1.495-.71h3.636l1.495 1.42 1.436 2.204.732 3.69.762 4.333-1.495 2.983-.704 2.91-.733.712-.762.78-.732.712v.71l1.495 1.49h.733l2.93.712H211.42v2.2l.704 1.492v.71l-.704.71v.782l-2.228 1.42-2.93.71z" fill="#0072bc" fill-rule="evenodd"/><path d="M298.014 172.02h.703v.71l2.228.712h3.635l2.228-.71h.704l1.524-.71 2.2.71-2.2 2.91-2.228 2.2-5.863 2.985-2.93.71h-5.16l-.704.71v.71l.705 1.492 2.227 2.203 2.932 1.49h2.93l5.16-1.49 2.14-1.494 2.2-1.42 2.93-1.492v-.71l2.23-2.2.702-.71v-.785l.792-2.2v-1.42l-.792-2.202-.703-.71-.704-2.2-2.23-1.494-2.227-.71h-2.198l-2.14.71-2.228.71-2.228.784-2.2.71-.733.71-.703 1.49z" fill="#0072bc" fill-rule="evenodd"/><path d="M66.808 78.34l-3.664-.78-2.2-2.202-2.227-2.204-.703-3.62v-8.807l.703-1.422 1.496-2.2 1.436-1.49 5.158-2.915 5.13-2.2 5.863-1.492 5.16-.71 7.36-.71 7.298.71 6.655.71 5.863 2.2 4.367 2.912 4.427 3.695 2.228 3.62 2.14 3.696.79 3.692v4.332l-1.494 3.695-1.436 3.62-2.228 2.984-2.93 3.622-3.724 2.91-4.368 2.985-5.13 2.913-22.75 10.937-3.634 1.494-.79.707v.784l33.74-.783v-2.2l.792-2.91 2.14-2.912 2.227-2.204 2.932-.71 3.723.71 2.93 1.493 2.14 2.912.793 2.91v10.227l-.79 3.694-1.437 2.913-2.932 2.2-2.93.71-54.35 1.494h-3.635l-2.93-2.203-1.437-2.2-.792-3.623v-7.315l.792-2.984.703-3.62 2.23-3.692 3.634-3.625 5.16-3.69 6.566-4.406 25.68-12.428 4.426-3.623 1.437-1.493v-3.622l-.704-.78-3.665-2.2-4.427-.71h-6.566l-8.09.71-8.092 2.2v1.49l-.704 2.912-1.495 2.914-2.14 2.2-3.722.78z" fill="#b455a0"/><path d="M142.382 86.366l.79-8.807 1.438-8.027 3.635-6.606 4.456-5.823 5.13-5.184 7.3-3.622 8.882-2.914 9.498-.78h9.528l8.794 2.2 7.358 2.984 5.863 5.116 5.16 5.822 3.635 6.606 2.227 7.316.704 8.806v8.027l-2.14 8.024-2.932 6.606-4.427 6.605-5.862 5.116-7.387 3.692-8.06 2.204-9.528 1.418-10.29-.71-8.09-1.49-7.3-3.623-6.654-4.404-4.34-5.895-3.663-6.532-2.2-8.096-1.523-8.026zm67.512-2.912l-.704-4.404-1.436-4.402-1.495-3.695-2.933-2.91-3.664-2.912-4.427-2.203-5.13-1.49h-5.892l-6.567.78-5.16 1.42-3.634 2.204-3.723 2.982-2.14 3.622-2.228 4.405-.703 3.62v5.185l.702 4.332.733 4.405 1.495 3.69 2.932 3.626 3.635 2.98 4.455 1.422 5.072 1.493h6.654l6.567-.783 5.16-1.42 4.367-2.2 2.99-2.913 2.14-3.694 1.525-3.622.703-4.403.704-5.113z" fill="#00a651"/><path d="M295.082 111.225l-.79 3.69-1.437 2.205-2.932 2.2-2.93.71-30.108.712-2.93-.71-2.933-1.49-1.495-2.205-.733-2.91v-4.406l2.228-2.91 2.228-2.2 2.932-.71h6.566l-1.436-42.474h-9.585l-2.2-2.2-2.14-2.205-.79-2.91v-1.49l.79-2.912 1.407-2.914 2.228-1.49 3.635-.71 15.45-.71 2.93.71 2.932 1.49 1.436 2.204.79 3.62 2.23 51.28h5.862l3.635.71 2.228 1.49 2.14 2.915.792 2.912v.71z" fill="#ec008c"/><path d="M359.663 99.504l-43.357 1.494-2.93-.71-3.636-2.205-1.495-1.49-1.437-2.2-.703-2.912-.792-2.203.792-2.2v-2.202l1.407-1.42 1.524-1.49h-.79L353.8 40.98l2.93-1.49 2.933-.71h6.566l2.93.71 2.932 1.49 2.228 2.91.704 2.912 1.495 35.16 8.09-.71 2.93.71 2.933 2.2 2.228 2.202.704 3.62-.703 2.985-1.494 2.913-2.932 2.2-2.93.71h-8.825l.732 9.52-.733 3.692-1.496 2.2-2.932 2.132-2.93.783h-.705l-2.93-.783-2.933-1.42-2.228-2.912-.703-2.984v-9.516zm-26.47-16.05l25.737-.783-.79-22.654-24.948 23.438zM11.814 21.948l.703 18.324h3.665l1.495.71.703 1.42v2.2l-.703.782-.792.71-2.14.71H4.427l-.704-.71-.792-.71-.702-1.49v-1.49l.703-.712 1.497-.71H5.95l-.79-24.15H2.226l-1.435-.78L0 14.633v-2.2l.792-.71 1.436-.784 2.2-.71h6.594l16.886 24.148-.733-18.323h-4.368l-.762-.71-.733-1.42-.704-.782v-1.42l.704-.782 1.495-.71 2.17-.71H34.532l1.436.71.79.71.734 1.493-.733 1.492-.79.71-.704.71H33.77l.763 30.752H28.67L11.814 21.948zm40.337-6.606l.705 23.44h2.93l1.496.71h1.437l.792 1.49v2.2l-.793.71-1.436.71-1.494.782H42.624l-1.495-.78-.705-.71V41.69l.704-1.42.702-.78h5.16l-1.437-24.15H41.13l-.705-.71-1.524-.71v-2.984l.792-.71 1.437-.71h2.227l10.993-.78h2.228l.703.78.734.71.703 1.493v1.42l-.703.782-1.436.71H54.35l-2.2.71zm32.306-5.825l1.436-1.49 1.495-.71 1.437.71.733.71.762.78v2.204l.732 5.113-.733 2.2-.763.71-.733.712-.704.783-2.228-.783-1.436-2.912-.792-1.49-1.407-1.42-2.228-.71-4.427-.782-2.932.782-2.14.71-2.227 1.42-1.495 2.982-1.436 2.914v7.316l.703 3.622 2.932 3.69 1.524 1.495 2.14.71 5.13.71 2.933-.71 2.93-.71 2.933-2.203 1.524-1.49h2.199l.732.71.703.78.733 1.42-.733 1.494-.703 1.492-2.228 1.42-2.228 1.49-4.34 1.42-4.455.782-5.13-.78-4.367-1.42-3.723-2.202-2.93-2.91-2.14-4.406-.793-4.402V25.57l.792-5.115 1.435-4.402 2.2-3.622 3.663-2.913 3.723-1.49 4.34-.71h5.16l4.426 2.2zm35.91 23.37l-14.657.78-1.437 3.62H107.203l1.437.784.704.71v2.912l-.703.71-.732.78h-2.2l-8.09.71H95.42l-1.437-.71-.733-1.49v-2.2l.733-.71 1.437-.71 2.198-.785 8.795-24.146h-5.863l-1.437-.71-.703-.71-.792-1.493.792-1.49.703-.71.733-.71h2.2l13.25-.78 13.16 30.04h2.933l1.494 1.494v2.912l-.733.71-1.494.71h-1.437l-8.854.78-1.436-.78h-1.495l-.704-1.42v-2.2l.705-.71 1.495-.785 1.436-.71h1.495l-1.494-3.69zm-2.93-5.827l-5.16-12.428-4.368 12.428h9.527zm27.877.71v8.097h4.458l1.406.71.792.71V40.273l-.792.71-1.407.71h-2.23l-8.793.71h-2.228l-1.408-.71-.792-1.42v-2.2l.792-.785 1.407-.71 1.523-.71h1.407l-.703-24.146H135.815l-1.495-.782-.733-.71-.703-1.49.703-.712.733-1.49.792-.71h2.14l13.924-.71 2.932.71h2.93l2.23.71 2.227 1.49 1.495 2.2 1.437 1.495.703 2.202v5.112l-1.436 2.204-2.2 2.13-2.93 2.202 4.426 4.4 4.368 5.117 2.93.78.705.71.792 1.494v1.42l-.792.782-1.436.71h-1.495l-3.635.71-7.388-9.517-2.932-2.91-2.932-1.494h-5.863zm-.703-5.822h5.16l2.198-.71 2.93-.783 2.14-.71 1.526-1.49.703-.712v-1.49l-.703-1.42-1.525-1.492-2.14-1.42h-10.29V21.95zm55.053 8.023l-14.716.785-1.437 3.62h3.665l.703.712.792 1.49.703.71v1.494l-.703.71-1.495.782-2.228.71h-10.231l-.704-.71-.79-.78-.734-1.42.733-1.495v-.71l1.496-.78h2.228l8.794-24.86H179.875l-1.524-.71-.703-.78v-2.2l.704-1.422 1.525-.71h1.408l13.25-.783 13.954 30.044 2.198.71 1.437.71V38.072l-.704.71-.733.71h-2.198l-8.09.782h-2.23l-1.436-.78-.76-.71v-2.915l.76-.78 1.438-.71 1.495-.71h1.436l-1.437-3.696zm-2.2-5.82l-5.862-11.72-4.425 12.43 10.29-.71zm47.696 2.91v8.807l-7.36 2.914-2.93.71-2.932.782-4.367-.78-4.426-.71-2.93-.71-2.23-1.495-2.227-2.2-1.407-2.912-1.525-3.694v-3.62l-.703-4.406.703-2.91V13.92l1.525-2.2 1.407-2.985 2.93-2.912 3.02-2.203 3.636-1.418 3.664-.783 5.13.784 4.456 1.418 1.407-.71.733-.708h1.495l.703.707.734 1.495.792 2.13V12.432l-.792.71-1.436.782-.704.71-2.228-.71-.703-2.2-1.524-2.205-2.933-.78-4.426-.71h-3.635l-2.93 1.49-1.437 1.42-1.495 2.985-1.525 2.91v7.317l.792 4.404 1.436 1.417.792 1.495 2.14 1.42 2.227.78h5.13l3.665-.78 3.723-.71V27.77h-8.09l-1.496-.71-.733-.71v-2.98l.733-.712 1.495-.71 1.436-.71h13.223l1.436.71.79.71v1.49l-.79 2.202-1.437.71zm34.474-19.744l.79 17.543v2.2l-.79 2.91-1.437 2.205-1.495 2.2-2.228 2.202-2.14.71-2.93.784-2.23.71h-2.93l-2.932-.71-2.2-1.493-2.227-1.49-3.635-3.622-.733-2.91V25.57l-.79-17.544h-1.408l-1.526-.71-.703-.78-.703-1.42.704-1.494.704-.71.733-.708h2.2l8.09-.783h2.228l.703.784.733 1.418.763.783v1.42l-.762.71-1.435.78-2.228.71h-2.228l.79 17.545.733 2.984 1.407 2.2 2.96 1.42 2.99.712 2.14-.71 2.23-.71 1.494-1.495 1.437-1.416.704-2.984-.703-18.254h-4.367l-1.495-.78-.733-.71V2.91l.733-.706 1.495-.783h1.436l8.06-.71h2.23l1.435.71.792 1.49v2.205l-.792.71-1.436.71-1.496.78zm31.6 19.034l-15.448.71-1.495 3.695h3.724l1.436.71.763.71v2.912l-.763.78-1.436.71h-1.495l-8.796.71-1.436-.71h-1.495l-.733-1.49v-2.2l.733-.712 1.495-.71 1.436-.71 8.795-24.22h-5.865l-1.435-.71-.792-.71V2.204l.792-.783 1.436-.71h2.2l13.25-.71 13.132 29.97h2.93l.793 1.495.734 1.42v1.49l-.733.712-1.494.78h-2.228l-8.003.71-2.2-.71h-.79l-.733-1.49-.704-.71.704-1.492.733-.71.79-.71 2.2-.784h1.436l-1.435-3.62zm-2.99-5.895l-5.1-12.43-5.13 12.43h10.23z" fill="#0072bc"/></svg>