<svg xmlns="http://www.w3.org/2000/svg" width="400" height="388.662"><path d="M25.052 162.98c.182-8.01 1.766-12.887 7.733-18.345 6.52-5.96 17.937-8.663 26.23-10.756 17.436-4.398 36.565-5.917 54.022-.975 14.18 4.012 26.964 13.002 32.393 27.015 6.432 16.665-1.7 34.87-14.187 46.21-13.67 12.405-30.743 19.477-47.226 27.115-13.206 6.12-26.412 12.247-39.618 18.373-6.673 3.097 8.975 7.007 10.88 7 24.434-.008 48.883-.03 73.318-.05 1.06.006 4.847-.343 4.847-2.146-.007-8.314-.08-17.18 10.4-18.227 7.45-.75 5.728 11.84 5.837 16.46.196 9.014 3.33 28.44-7.704 31.624 2.58-.75-.342-.096-2.413-.096-4.223.008-8.43.008-12.646.008-13.01.007-26.013.022-39.008.022-21.208.02-42.423.043-63.63.05.247.008 2.013.93-.83-.785-8.807-5.313-6.002-19.944-4.22-27.99 2.223-10.072 7.31-16.846 14.738-23.43 22.53-19.958 53.12-27.3 78.864-41.995 6.366-3.634 15.473-9.55 14.085-18.184-1.76-10.82-16.666-14.513-25.693-15.58-12.537-1.477-25.154-.197-37.575 1.576-5.83.82-16.862.574-19.398 6.94-.69 1.738-.35 4.514-.858 6.433-1.184 4.498-4.695 7.957-9.143 9.25-9.775 2.857-9.2-13.35-9.2-19.52-.008-5.56-17.233-7.632-17.233-3.344.007 12.552 1.91 25.002 15.866 29.035 13.51 3.897 32.96 2.974 37.24-13.226.43-1.592.546-3.293.567-4.95.008-1.322-2.26-.603 1.46-1.344 8.803-1.737 17.684-3.002 26.623-3.627 7.058-.494 21.746-2.122 20.002 8.86-1.272 7.958-13.003 12.588-19.086 15.69-20.786 10.605-43.17 18.04-62.642 31.115-7.784 5.21-15.83 11.505-20.62 19.747-7.368 12.668-11.97 34.486.72 45.257 6.542 5.56 15.758 7.71 24.167 7.71 38.92-.02 77.824-.057 116.744-.08 20.73-.014 18.352-22.777 18.018-37.42-.124-5.54.596-10.896-2.522-15.816-3.8-6.004-13.584-9.26-20.24-9.834-6.637-.56-17.532-.93-22.866 4.15-5.218 4.986-5.05 11.484-5.044 18.177 1.613-.72 3.234-1.425 4.848-2.152-24.442.022-48.884.036-73.32.058 3.628 2.326 7.247 4.666 10.867 7 16.15-7.487 32.3-14.98 48.448-22.46 23.396-10.85 49.182-24.048 56.77-50.714 10.32-36.31-32.044-56.66-60.563-61.16-20.22-3.183-41.39-.98-61.036 4.456-17.044 4.71-33.95 11.774-34.4 31.528-.13 5.502 17.138 7.726 17.232 3.343" fill="#652f98"/><path d="M16.43 161.308c-.007-5.604.582-9.79 2.348-12.56 1.773-2.76 5.27-7.034 10.596-9.804 8.65-4.353 17.276-7.238 26.87-9.346 9.586-2.093 20.175-3.525 31.382-3.525 20.96-.022 37.917 5.785 50.178 14.31 12.26 8.533 18.395 19.987 18.41 34.385.007 9.623-3.903 18.03-10.27 26.862-6.374 8.838-17.523 14.928-30.932 23.722l-63.507 29.442 73.318-.043v-6.017c-.007-4.266 1.505-9.2 4.565-11.3 3.045-2.095 7.566-3.14 13.554-3.156 4.884 0 8.853 2.166 11.513 4.223 2.66 2.042 3.793 5.56 3.793 9.325l.008 6.904.443 19.455C157.81 288.227 147.135 290 147.135 290l-119.6.087S8.48 289.95 8.9 269.307c.422-20.618 9.79-30.72 9.79-30.72s11.106-13.613 34.945-25.045c23.838-11.425 54.116-23.003 61.42-31.644 7.312-8.635 3.067-18.584-15.08-20.176-18.14-1.592-45.643 4.426-45.643 4.426s-1.46.59-1.46 2.34c.007 1.752.457 17.262-17.69 18.3-18.14 1.04-18.592-13.997-18.752-22.05v-3.43z" fill="#27963c"/><path d="M281.808 124.766c.763-6.512 2.812-13.96 2.76-19.885-4.236 3.206-13.626 16.877-2.76 19.886m1.722-.298c10.313-.232 8.86-16.31 2.784-20.313-.778 6.933-2.13 13.22-2.784 20.313m1.868-25.088l.88-.357c9.062 4.608 12.318 24.144 1.293 28.302-5.472 2.07-14.644-1.003-14.68-8.35-.05-9.973 9.092-12.487 12.508-19.595" fill="#652f98"/><path d="M286.314 104.152c6.07 4.004 7.53 20.08-2.783 20.313.655-7.093 2.007-13.373 2.784-20.313" fill="#f68712"/><path d="M284.56 104.88c.065 5.925-1.985 13.382-2.755 19.88-10.866-3.003-1.483-16.666 2.754-19.88" fill="#fff200"/><path d="M231.303 135.116c-.625-4.913-3.176-11.548-5.596-16.23-1.512 6.935-2.9 15.954 5.596 16.23m2.15-.268c8.41-4.914 2.27-20.46-6.67-18.875 2.354 6.17 4.73 12.333 6.67 18.875m-10.1-24.26c13.117.116 23.147 13.743 14.782 24.187-2.39 2.98-10.22 5.83-15.016 1.868-7.05-5.807.08-17.72.232-26.056M327.52 138.846c5.278-3.387 8.78-8.845 13.31-13.12.122-.522.718-.82-.372-.878-5.284 3.328-14.616 4.026-12.937 13.998m1.47 3.096c11.482 5.065 16.686-8.78 15.4-18.512-4.74 6.33-11.95 12.218-15.4 18.512m14.775-21.55c2.558-.043 3.605.778 3.946 4.136 1.455 14.267-8.102 27.036-20.538 18.99-3.808-2.456-6.236-9.862-1.89-14.673 1.018-1.12 6.193-4.15 7.152-4.6 1.94-.902 8.78-3.816 11.33-3.853" fill="#652f98"/><path d="M344.392 123.428c1.286 9.74-3.925 23.585-15.4 18.512 3.452-6.294 10.647-12.174 15.4-18.512" fill="#ec008c"/><path d="M226.78 115.975c8.946-1.584 15.088 13.954 6.68 18.875-1.942-6.55-4.326-12.697-6.68-18.875" fill="#00adef"/><path d="M340.46 124.847c1.09.058.494.35.363.88-4.52 4.273-8.024 9.73-13.3 13.118-1.687-9.972 7.645-10.67 12.936-13.998M225.71 118.885c2.42 4.688 4.97 11.323 5.595 16.23-8.496-.27-7.108-9.29-5.596-16.23" fill="#8cd02f"/><path d="M311.83 281.298c-4.113 3.067-8.263 5.64-16.788 8.568-3.176 1.105-15.953 3.562-17.058 6.44-1.468 3.8 1.722 7.776.74 12.878 17.32-1.35 29.618-8.56 42.758-14.775-4.157-3.555-5.763-9.32-9.652-13.112m-72.693 17.246c10.822 4.688 22.153 8.918 36.637 10.422-1.04-14.085-1.97-28.264-3.248-42.132-7.893.967-14.318-2.318-18.715-5.668-5.043 12.275-9.593 25.14-14.673 37.378m92.673-40.126c-6.003 6.694-10.93 14.652-17.676 20.48 3.62 4.282 5.444 10.133 10.045 13.57 8.713-8.765 17.572-17.37 23.837-29.006-5.407-1.68-10.407-3.714-16.207-5.044m-136.39-12.275c3.33 14.754 12.356 24.565 20.336 35.278 4.724-10.668 6.512-28.053 6.483-41.404-8.526 2.522-18.25 3.648-26.82 6.127m107.297-2.282c-7.348 9.602-14.296 19.653-27.197 22.77.785 8.46 1.54 16.95 1.904 25.787 12.196-4.01 24.733-5.676 33.294-13.35 7.217-6.44 11.68-14.856 18.22-22.153-9.07-4.056-17.26-8.896-26.22-13.053m5.326-14.564c-1.003 3.605-1.38 7.936-2.936 10.894 4.09 6.367 12.18 2.37 15.858-1.817-4.63-2.87-5.894-11.84-12.922-9.077m-82.79-7.006c1.288.203 1.833 1.06 2.865 1.497.74-2.377 2.18-3.925 3.008-6.192-1.68-.67-2.297-2.253-4.04-2.864-.503 2.647-1.135 5.147-1.833 7.56m97.63-3.86c-1.62 3.8-4.492 6.156-7.82 7.966 1.998 4.1 5.763 6.657 8.14 10.437 5.923-3.256 9.448-9.31 13.438-14.82-4.797-1.017-8.692-2.812-13.758-3.583m-106.133-1.904c2.1 1.228 3.903 2.726 6.09 3.874.4-2.922 1.185-5.4 1.868-7.98-2.267-1.22-3.634-3.213-6.054-4.303-.61 2.835-1.12 5.778-1.904 8.41m-21.07 26.214c9.383-1.67 18.185-4.025 27.626-5.638.632-4.187 2.202-7.268 3.35-10.86-11.447-6.925-22.356-14.31-33.7-21.308-.99 14.238-1.535 28.105 2.724 37.807m146.724-29.695c-3.554 17.552-15.022 25.888-27.53 32.996 10.952 6.818 24.55 11.346 38.367 15.67 2.318-16.94 8.416-31.6 10.72-47.073l-21.557-1.592m-113.408-1.163c1.105 1.3 2.392 2.435 4.005 3.292 1.366-2.58 3.678-4.04 5.16-6.454-1.548-1.184-2.384-2.98-4.397-3.75-1.432 2.47-3.54 4.18-4.768 6.912m-21.978-1.635c2.362 1.54 4.514 3.248 7.326 4.39.378-3.256 1.156-6.04 1.926-8.824-1.955-1.097-3.285-2.725-5.233-3.823-1.527 2.544-2.493 5.728-4.02 8.257m117.602 1.897c-.087 1.133-.167 2.267-.254 3.4 4.57 1.084 8.64 2.588 13.343 3.555.968-2.24 1.23-5.336 1.87-7.98-5.328-.067-10.16.464-14.958 1.024m-76.894 56.696c1.003-2.543 3.757-7.5 3.714-9.986-.05-2.45-3.09-5.72-3.663-7.965-2.458-9.595.638-21.747 5.893-27.765 3.307-3.808 10.182-9.44 17.574-7.674 2.87.684 6.795 4.223 7.166 6.513 1.7 10.618-11.433 10.356-11.084 17.55.145 2.9 4.316 5.372 6.81 5.64 6.44.706 13.605-6.83 14.993-12.994 1.722-7.72-2.718-15.91-6.192-19.69-6.272-6.853-19.82-12.42-31.17-9.586-5.976 1.505-12.393 7.53-15.765 12.087-4.012 5.408-8.017 13.73-9.68 21.507-3.25 15.16-.4 33.46-9.093 48.04 6.265 4.52 11.948 9.528 19.434 12.988 2.682-7.987 7.493-19.682 11.062-28.665m-49.233-63.928c2.188 1.148 3.99 2.638 6.083 3.874 1.396-2.994 2.762-6.018 4.085-9.1-2.13-.944-3.438-2.6-5.255-3.815-1.657 2.988-3.103 6.244-4.913 9.042m21.65.327c2.218 1.525 3.918 3.495 6.44 4.752 1.454-2.77 3.65-4.673 5.226-7.31-2.346-2.334-4.672-4.696-7.136-6.942-1.14 3.598-3.358 5.938-4.528 9.5m-7.595-6.55c1.215 1.876 2.988 3.25 5.212 4.238 1.628-3.19 3.438-6.163 4.957-9.463-2.61-1.06-3.068-3.975-6.026-4.724-1.156 3.577-2.922 6.44-4.143 9.95m43.536 26.318c-12.297 13.322-6.352 37.553 11.527 39.32 13.86 1.373 19.986-7.036 27.043-15.09 3.038-3.45 6.462-7.543 8.046-10.937 4.005-8.597 4.194-25.3 2.035-33.192-3.99-14.594-28.025-17.85-46.972-14.172.48 3.56 2.318 5.945 3.59 8.816 15.19.872 30.03 11.956 31.208 26.26.872 10.58-7.587 21.2-16.084 21.882-6.854.553-12.53-4.462-12.043-9.448.748-7.755 11.17-5.93 10.56-16.31-4.528-7.696-14.98-1.394-18.91 2.872m50.598-23.17c2.667 6.686 2.92 15.815 2.006 24.507 15.78-1.83 16.143-27.175 5.154-35.09l-1.265-.094c-1.63 3.948-3.686 7.4-5.895 10.678m-101.816-8.424c2.1.836 2.884 2.806 5.275 3.387 1.352-3.51 2.762-6.94 4.565-9.92-.633-2.238-2.442-3.452-4.332-4.593-1.882 3.663-3.896 7.166-5.51 11.127m117.385 4.877c1.555 2.763 2.238 6.28 2.202 10.416 5.363.42 9.208-.938 14.5-.625.53-6.446-2.835-12.907-5.466-17.936-3.54 2.965-7.83 5.05-11.237 8.147m-7.37-9.52c2.987 1.374 4.244 4.266 6.323 6.454 3.394-2.973 7.87-4.666 10.807-8.176-1.744-3.126-4.644-5.255-7.064-7.792-3.344 3.184-6.81 6.236-10.067 9.514M222.8 169.532c-3.25 3.605-7.11 6.483-10.125 10.364 9.02 9.02 18.54 17.61 27.334 26.81 3.502-2.063 6.715-4.476 10.26-6.49-4.294-3.45-6.896-8.35-11.01-11.94-2.754 2.595-9.84 4.2-10.145-.75-.153-2.28 2.086-4.527 4.637-5.217-3.082-4.747-6.73-9.013-10.953-12.778m48.86 17.305c3.213-.59 6.79.74 9.34.27-1.635-4.936.945-13.65 5.21-12.865 5.11.937 2.312 10.276.22 14.12 3.64.692 6.693 1.89 9.993 2.886 1.62-6.89 3.575-13.387 5.312-20.132-8.64-1.51-17.966-2.45-26.47-4.1-1.475 6.288-2.42 13.193-3.604 19.82m-2.18-21.955c-3.815 8.35-10.93 15.24-13.256 23.803 4.528.044 7.39-1.853 12.028-1.672 1.272-6.983 2.355-14.2 3.692-21.09-.763-.407-1.49-.83-2.464-1.04m-18.605 10.16c.697 3.097 2.26 5.46 3.198 8.36 5.196-5.64 8.605-13.366 12.958-19.988-1.845-1.04-3.785-2.013-5.72-2.987-3.05 5.37-6.86 9.863-10.435 14.616m89.576-10.02c-3.872 4.875-9.367 7.855-13.27 12.703 9.005 7.16 14.093 17.734 15.052 31.884 6.447.436 11.55-.69 17.893-.385-2.558-18.206-6.52-35.184-19.674-44.203m-46.876 1.65c2.245.573 6.766 1.285 8.416 1.052-.902-2.136-1.54-4.498-2.02-6.99-1.978-.147-3.947-.292-5.93-.445-.154 2.13-.307 4.26-.466 6.382m-8.002-1.026c2.71-.087 4.026 1.025 6.73.93l.48-6.374c-2.116-.153-4.238-.312-6.346-.472-.072 2.23-.32 4.244-.864 5.916m-9.66-1.57c2.472.77 5.982.647 8.388 1.475.545-1.665.8-3.693.865-5.917-5.75-1.628-7.254 1.686-9.252 4.44m-24.05-8.197c-1.81 3.118-5.015 4.615-6.548 8.067 1.2 2.675 2.79 5.008 3.663 7.966 4.063-3.425 6.664-8.54 9.884-12.945-2.624-.778-4.368-2.32-7-3.09m-1.89 25.504c-5.442-12.284-11.445-23.666-19.215-33.056l-.4-.458c-17.203 12.72-30.706 29.762-39.195 52.656 1.315 1.643 3.365 1.31 5.313 2.958 6.664-15.313 14.063-29.783 27.03-37.742 8.248 8.598 16.3 18.105 23.917 26.993 2.326 2.712 4.456 7.88 9.252 7.11-1.424-6.113-4.02-12.4-6.7-18.46m31.062-23.338c2.253.167 4.506.34 6.767.508.988-1.468.56-4.578.923-6.773-4.063-.633-5.298 3.684-7.69 6.265m8.533-6.207c.85 2.15-.728 4.012-.503 6.81 3.693.11 6.236 1.22 10.11 1.177-.08-3.11-1.337-5.21-1.955-7.85-2.95-.508-4.695.386-7.653-.137m-46.537 8.518c2.885-1.098 4.266-3.954 6.403-5.945-5.06-1.84-10.132-5.807-14.82-6.65 2.93 4.09 5.93 8.118 8.417 12.595m44.523-9.95c2.253.974 5.952-.036 9.295.69-.23-1.773-1.103-3.016-1.336-4.796-4.172-2.71-6.112 1.482-7.958 4.106m-20.8 5.298c-8.206-5.166-16.52-9.978-23.963-15.036l-.843-.058c-2.275 1.2-4.826 2.07-6.658 3.78 12.88 5.683 24.588 12.37 37.335 18.162 1.323-4.223-3.655-5.45-5.872-6.847m32.53 37.038c2.436 1.476 3.686 3.97 5.96 5.575 7.043-16.724 22.386-23.766 33.28-35.99-7.5-6.237-13.532-13.73-21.047-19.95-6.905 15.807-14.086 31.294-18.192 50.365m-45.577-55.962c-2.806 1.657-7.16 1.497-9.61 3.568 10.125 5.4 19.196 11.73 29.327 17.138.312-3.176.996-5.923 1.504-8.867-7.317-3.728-13.53-8.423-21.22-11.84m3-.203c6.15 3.547 11.913 7.443 18.316 10.77-.204-1.33.82-1.198.618-2.52-5.546-3.19-11.52-11.63-18.933-8.25m7.334-1.59c3.917 2.586 7.595 5.355 11.752 7.71.713-2.718 1.243-5.618 1.512-8.86-4.717.03-9.514-.014-13.264 1.15m12.515 26.148c1.707-2.55 4.44-5.225 7.456-8.845 3.096-3.72 5.894-11.09 12.08-8.082 3.19 6.78 3.7 15.88 7.71 21.942 3.228-9.012 7.516-16.79 10.837-25.692-10.088-3.452-22.254-5.102-33.89-7.217-.967 9.492-3.867 19.195-4.194 27.894m1.097 149.893l-.88 2.02c-1.635.044-18.017-4.062-18.017-4.062-6.337-1.772-12.464-3.48-17.857-5.603-11.592-4.557-20.48-10.814-28.425-17.922-5.16-13.126-17.486-22.313-20.197-36.98-.362-1.954-.115-4.084-.4-6.017-.87-5.64-4.12-11.68-4.17-18.257-.05-5.072 2.398-10.82 2.078-16.512-.123-2.107-1.308-4.578-1.22-6.512.137-2.958 2.696-7.522 4.236-11.214 1.54-3.728 2.987-7.515 4.586-10.342 1.883-3.314 4.695-5.713 6.592-8.504 8.308-12.18 20.002-24.732 33.382-31.702 16.105-8.402 38.214-10.48 61.66-6.105 6.353 1.184 13.67 2.63 17.93 4.752 4.07 2.028 7.973 7.32 12.312 11.6 3.91 3.852 7.915 8.467 11.898 11.57 1.737 1.352 4.273 2.166 5.69 3.41 2.53 2.245 6.178 7.804 8.475 11.744 3.356 5.727 4.897 11.846 6.65 19.296.9 3.837.733 7.95 1.678 11.672.763 3.016 3.575 5.35 3.655 7.966.095 2.754-1.555 6.512-2.45 10.066-3.13 12.602-7.136 25.01-8.757 37.83-.34 1.903-2.827 1.322-4.775 1.35-2.76 6.237-7.434 12.015-12.354 17.466-4.295 4.753-9.18 10.858-14.688 14.724-4.28 2.98-11.6 5.502-17.61 8.09-14.246 6.14-29.02 6.177-29.02 6.177" fill="#652f98"/><path d="M280.754 133.233c11.63 2.122 23.81 3.764 33.905 7.217-3.337 8.903-7.632 16.68-10.852 25.7-4.004-6.07-4.528-15.162-7.71-21.943-6.186-3.01-8.99 4.36-12.08 8.075-3.016 3.626-5.764 6.294-7.464 8.845.334-8.693 3.227-18.403 4.2-27.894" fill="#00adef"/><path d="M277.314 133.83c-.27 3.243-.807 6.143-1.52 8.868-4.15-2.362-7.84-5.13-11.75-7.718 3.75-1.163 8.546-1.12 13.27-1.15" fill="#ec008c"/><path d="M275.643 144.82c.21 1.315-.82 1.2-.618 2.522-6.41-3.33-12.16-7.225-18.315-10.77 7.413-3.374 13.388 5.057 18.933 8.248" fill="#fff200"/><path d="M274.93 148.614c-.51 2.944-1.192 5.69-1.505 8.867-10.13-5.406-19.2-11.736-29.325-17.144 2.45-2.064 6.81-1.904 9.608-3.554 7.69 3.416 13.903 8.11 21.222 11.832" fill="#ec008c"/><path d="M317.48 142.368c7.508 6.222 13.548 13.715 21.04 19.943-10.894 12.24-26.23 19.276-33.27 36-2.283-1.6-3.534-4.093-5.96-5.575 4.105-19.07 11.286-34.56 18.19-50.367" fill="#f68712"/><path d="M272.627 162.55c-12.747-5.8-24.456-12.473-37.335-18.163 1.832-1.708 4.39-2.588 6.658-3.78l.843.058c7.442 5.052 15.757 9.863 23.97 15.03 2.21 1.396 7.187 2.624 5.864 6.854" fill="#fff200"/><path d="M295.515 146.3c.232 1.78 1.104 3.015 1.344 4.796-3.35-.734-7.05.276-9.304-.684 1.846-2.63 3.787-6.824 7.96-4.113" fill="#ec008c"/><path d="M234.618 147.76c4.688.842 9.76 4.796 14.805 6.65-2.13 1.99-3.504 4.847-6.39 5.944-2.485-4.484-5.486-8.503-8.415-12.595" fill="#8cd02f"/><path d="M297.22 151.975c.617 2.638 1.874 4.74 1.96 7.85-3.872.043-6.423-1.076-10.108-1.185-.226-2.79 1.344-4.652.5-6.803 2.952.516 4.696-.37 7.647.138M288.722 151.78c-.356 2.194.073 5.305-.923 6.766-2.254-.16-4.507-.334-6.767-.502 2.398-2.587 3.634-6.904 7.69-6.264" fill="#ec008c"/><path d="M256.675 199.838c-4.797.77-6.933-4.397-9.252-7.108-7.617-8.89-15.677-18.395-23.918-26.993-12.966 7.965-20.365 22.428-27.03 37.742-1.947-1.65-3.997-1.317-5.312-2.96 8.488-22.893 21.992-39.93 39.195-52.648l.4.45c7.762 9.398 13.773 20.773 19.216 33.055 2.682 6.062 5.277 12.356 6.7 18.46" fill="#00adef"/><path d="M194.74 169.585c-3.467-4.273-8.38-7.326-12.8-10.778-.326 7.297 5.3 14.02 12.8 10.778m-15.023-15.22c5.102 4.725 10.313 9.348 16.455 13.192 4.18-10.894-7.494-16.23-16.455-13.19m-5.335-2.537c8.468-1.875 20.54-1.832 24.718 4.833 4.412 7.035.14 18.497-8.183 18.62-13.533.204-11.018-15.75-16.535-23.453" fill="#652f98"/><path d="M258.863 158.965c-3.22 4.404-5.83 9.52-9.884 12.944-.88-2.96-2.465-5.292-3.664-7.967 1.533-3.46 4.738-4.95 6.548-8.067 2.638.77 4.368 2.31 7 3.09" fill="#fff200"/><path d="M285.17 159.633c-.066 2.224-.328 4.252-.86 5.916-2.42-.83-5.922-.706-8.393-1.476 1.99-2.755 3.51-6.07 9.252-4.44M286.436 159.728c2.108.16 4.23.32 6.345.473l-.478 6.375c-2.704.094-4.02-1.018-6.73-.93.545-1.672.792-3.685.864-5.917M294.04 160.29c1.978.153 3.955.29 5.924.436.494 2.5 1.127 4.863 2.02 6.992-1.642.24-6.163-.472-8.408-1.047.152-2.128.312-4.258.465-6.38" fill="#ec008c"/><path d="M363.99 180.025c7.93 7.472 17.385-.443 19.325-8.4-6.912 2.245-13.373 5.028-19.325 8.4m-.72-1.766c5.873-2.072 11.556-4.39 16.695-7.312-7.64-2.835-18.882-2.522-16.695 7.31m24.464-8.865c-2.42 7.042-7.064 15.85-14.856 16.84-7.674.988-13.86-4.776-13.67-10.408.385-12.66 18.184-10.132 28.526-6.432" fill="#652f98"/><path d="M196.17 167.554c-6.14-3.838-11.352-8.46-16.454-13.19 8.96-3.04 20.64 2.302 16.454 13.19M360.118 209.224c-6.338-.305-11.44.82-17.887.378-.958-14.143-6.038-24.71-15.05-31.884 3.902-4.848 9.397-7.82 13.27-12.704 13.155 9.026 17.116 26.004 19.668 44.21" fill="#fff200"/><path d="M261.308 160.425c1.934.974 3.874 1.947 5.72 2.987-4.353 6.62-7.762 14.347-12.958 19.986-.93-2.9-2.493-5.262-3.198-8.358 3.576-4.753 7.384-9.244 10.436-14.615" fill="#8cd02f"/><path d="M379.964 170.95c-5.138 2.93-10.822 5.24-16.694 7.312-2.188-9.833 9.055-10.146 16.694-7.31" fill="#00adef"/><path d="M383.314 171.627c-1.94 7.95-11.388 15.873-19.325 8.395 5.95-3.365 12.413-6.15 19.324-8.395M271.946 165.917c-1.337 6.897-2.42 14.107-3.7 21.1-4.636-.183-7.485 1.707-12.013 1.663 2.32-8.562 9.434-15.452 13.25-23.802.966.218 1.7.64 2.463 1.04" fill="#fff200"/><path d="M181.94 158.808c4.425 3.453 9.324 6.498 12.805 10.78-7.508 3.24-13.133-3.483-12.806-10.78M275.267 167.015c8.496 1.65 17.828 2.588 26.477 4.107-1.752 6.737-3.692 13.242-5.327 20.124-3.293-.988-6.345-2.187-9.986-2.878 2.094-3.844 4.892-13.184-.217-14.13-4.267-.79-6.854 7.93-5.21 12.866-2.56.472-6.128-.85-9.34-.27 1.184-6.628 2.13-13.532 3.604-19.82M233.75 182.312c-2.55.683-4.775 2.936-4.637 5.21.305 4.958 7.392 3.344 10.14.764 4.127 3.583 6.722 8.482 11.017 11.927-3.547 2.02-6.76 4.426-10.262 6.504-8.794-9.208-18.315-17.806-27.335-26.825 3.024-3.88 6.883-6.745 10.124-10.357 4.223 3.765 7.872 8.03 10.953 12.777" fill="#8cd02f"/><path d="M324.946 179.26c2.42 2.536 5.32 4.658 7.072 7.79-2.944 3.51-7.42 5.204-10.815 8.17-2.07-2.18-3.33-5.066-6.323-6.454 3.256-3.278 6.723-6.33 10.066-9.507" fill="#b374c1"/><path d="M333.486 190.15c2.638 5.016 5.996 11.477 5.465 17.93-5.282-.312-9.134 1.047-14.498.633.036-4.15-.647-7.66-2.202-10.422 3.416-3.095 7.696-5.18 11.236-8.14" fill="#ec008c"/><path d="M210.377 182.286c1.89 1.142 3.7 2.363 4.33 4.594-1.794 2.987-3.218 6.41-4.563 9.92-2.384-.58-3.176-2.55-5.276-3.386 1.62-3.96 3.626-7.465 5.51-11.128" fill="#f68712"/><path d="M312.58 191.164l1.264.095c10.996 7.913 10.625 33.25-5.153 35.088.916-8.692.662-17.82-2.005-24.515 2.21-3.27 4.266-6.737 5.894-10.67" fill="#00adef"/><path d="M274.995 222.133c.61 10.386-9.82 8.555-10.56 16.317-.48 4.978 5.19 9.986 12.043 9.44 8.503-.682 16.956-11.3 16.084-21.883-1.178-14.303-16.02-25.387-31.2-26.25-1.28-2.872-3.12-5.263-3.6-8.817 18.95-3.685 42.99-.43 46.98 14.172 2.152 7.886 1.963 24.587-2.04 33.185-1.586 3.4-5.01 7.486-8.04 10.946-7.057 8.045-13.184 16.454-27.058 15.088-17.872-1.765-23.817-26.004-11.52-39.326 3.932-4.266 14.376-10.567 18.91-2.87" fill="#fff200"/><path d="M216.692 188.74c2.958.747 3.416 3.67 6.025 4.723-1.527 3.3-3.33 6.28-4.957 9.463-2.217-.996-3.997-2.37-5.204-4.23 1.214-3.518 2.987-6.374 4.136-9.957M224.67 195.74c2.472 2.245 4.79 4.607 7.138 6.947-1.57 2.63-3.757 4.543-5.218 7.305-2.522-1.265-4.223-3.227-6.447-4.754 1.178-3.554 3.387-5.9 4.528-9.5M203.41 195.874c1.817 1.207 3.118 2.87 5.247 3.816-1.315 3.074-2.682 6.105-4.085 9.1-2.093-1.243-3.888-2.733-6.075-3.882 1.81-2.798 3.248-6.054 4.913-9.034" fill="#f68712"/><path d="M236.665 297.506c-7.486-3.46-13.17-8.475-19.442-12.988 8.707-14.572 5.858-32.88 9.1-48.048 1.664-7.77 5.668-16.106 9.68-21.506 3.38-4.55 9.797-10.582 15.77-12.08 11.347-2.84 24.894 2.734 31.173 9.58 3.467 3.794 7.915 11.985 6.185 19.696-1.38 6.156-8.553 13.7-15 12.988-2.485-.262-6.657-2.74-6.802-5.626-.35-7.21 12.79-6.933 11.076-17.56-.363-2.288-4.28-5.828-7.16-6.518-7.39-1.76-14.258 3.874-17.573 7.668-5.253 6.025-8.35 18.177-5.886 27.777.567 2.252 3.605 5.508 3.656 7.965.044 2.486-2.71 7.442-3.714 9.986-3.568 8.977-8.38 20.67-11.06 28.666" fill="#ec008c"/><path d="M339.57 211.117c-.626 2.653-.888 5.728-1.862 7.988-4.695-.974-8.772-2.48-13.343-3.56.094-1.135.167-2.262.254-3.403 4.803-.56 9.622-1.083 14.95-1.025" fill="#8cd02f"/><path d="M211.037 201.993c1.947 1.097 3.285 2.718 5.24 3.815-.77 2.79-1.548 5.575-1.934 8.83-2.812-1.14-4.964-2.856-7.318-4.39 1.52-2.536 2.485-5.72 4.012-8.255M233.767 204.968c2.013.778 2.85 2.566 4.397 3.75-1.483 2.42-3.794 3.88-5.16 6.454-1.614-.857-2.9-1.99-4.005-3.292 1.227-2.726 3.335-4.434 4.767-6.912" fill="#f68712"/><path d="M363.96 214.64c-2.297 15.473-8.402 30.126-10.72 47.074-13.816-4.324-27.407-8.86-38.367-15.67 12.508-7.115 23.977-15.436 27.53-33.003 7.196.532 14.384 1.07 21.557 1.6" fill="#ec008c"/><path d="M180.24 215.95c-6.315-.755-13.074-1.125-18.96-2.266 1.896 5.044 17.1 12.486 18.96 2.267m-22.246-3.793c7.18 1.083 15.008 1.585 22.342 2.515-1.062-12.457-16.942-8.41-22.342-2.515m-4.71.502c5.393-5.27 10.96-12.545 21.143-9.965 9.855 2.5 12.675 22.654-.015 23.082-11.3.378-11.76-10.858-21.128-13.118" fill="#652f98"/><path d="M192.96 204.932c11.345 7.006 22.254 14.39 33.7 21.31-1.147 3.59-2.717 6.678-3.357 10.857-9.44 1.613-18.235 3.968-27.625 5.647-4.252-9.71-3.707-23.577-2.718-37.815" fill="#b374c1"/><path d="M395.283 233.637c-5.67-3.307-15.044-3.4-22.574-5.095-1.367 12.18 17.493 9.565 22.573 5.095m-22.45-6.796c5.785 1.622 12.813 2.16 18.874 3.534-1.708-5.727-15.727-13.112-18.874-3.533M400 233.136c-4.993 6.71-24.718 12.21-29.936 2.48-3.554-6.63.668-17.044 8.474-16.9 10.727.197 15.14 10.234 21.462 14.42" fill="#652f98"/><path d="M218.653 208.118c2.428 1.083 3.787 3.082 6.062 4.303-.69 2.58-1.468 5.06-1.875 7.98-2.188-1.148-3.99-2.645-6.076-3.873.77-2.63 1.286-5.575 1.89-8.41" fill="#f68712"/><path d="M180.337 214.676c-7.34-.93-15.16-1.432-22.34-2.515 5.384-5.9 21.272-9.95 22.34 2.516" fill="#ec008c"/><path d="M391.704 230.377c-6.054-1.374-13.082-1.92-18.874-3.533 3.147-9.586 17.166-2.195 18.874 3.533" fill="#f68712"/><path d="M336.64 222.013c-3.983 5.51-7.508 11.563-13.432 14.82-2.376-3.773-6.148-6.34-8.147-10.438 3.33-1.81 6.2-4.157 7.82-7.965 5.074.777 8.977 2.565 13.76 3.583" fill="#ec008c"/><path d="M227.09 214.73c1.746.61 2.356 2.195 4.042 2.864-.828 2.275-2.275 3.815-3.016 6.192-1.025-.436-1.57-1.294-2.863-1.504.697-2.406 1.33-4.906 1.838-7.552" fill="#f68712"/><path d="M372.708 228.543c7.53 1.693 16.905 1.788 22.574 5.095-5.08 4.47-23.94 7.086-22.574-5.095" fill="#ec008c"/><path d="M161.29 213.687c5.878 1.134 12.637 1.512 18.953 2.268-1.868 10.22-17.072 2.776-18.954-2.268" fill="#f68712"/><path d="M320.97 238.375c-3.678 4.186-11.775 8.176-15.86 1.817 1.556-2.958 1.934-7.29 2.937-10.895 7.028-2.76 8.285 6.207 12.922 9.078" fill="#b374c1"/><path d="M328.942 256.92c-6.548 7.297-11.01 15.706-18.22 22.153-8.57 7.667-21.1 9.332-33.302 13.344-.356-8.838-1.112-17.327-1.904-25.787 12.9-3.118 19.856-13.17 27.196-22.77 8.97 4.157 17.16 8.998 26.23 13.06" fill="#f68712"/><path d="M222.236 240.017c.03 13.344-1.752 30.736-6.483 41.405-7.973-10.72-17-20.532-20.32-35.278 8.568-2.48 18.285-3.59 26.803-6.127" fill="#fff200"/><path d="M348.016 263.464c-6.264 11.636-15.124 20.234-23.838 29.006-4.6-3.437-6.425-9.295-10.044-13.57 6.744-5.835 11.672-13.786 17.675-20.487 5.8 1.337 10.8 3.365 16.206 5.05M253.818 261.17c4.383 3.35 10.815 6.627 18.708 5.66 1.28 13.875 2.21 28.048 3.248 42.133-14.492-1.497-25.815-5.727-36.63-10.415 5.073-12.247 9.623-25.11 14.674-37.38" fill="#8cd02f"/><path d="M373.207 290.55c-6.04-4.316-10.72-9.81-17.27-13.67-4.076 11.033 8.868 16.055 17.27 13.67m-15.88-15.276c4.026 3.183 8.598 7.842 12.355 11.17 1.257 1.12 2.987 2.69 4.07 2.45-1.025-7.217-7.48-23.672-16.425-13.62m19.98 17.297c-13.032 5.17-31.093-5.326-23.258-18.83 2.31-3.975 8.11-6.054 13.452-3.7 6.635 2.923 8.656 16.31 9.804 22.53M190.17 265.413c-6.453 2.02-12.29 4.746-18 7.638 7.746 3.49 22.29 2.472 18-7.637m-20.502 7.028c6.055-3.255 13.41-4.985 18.94-8.85-7.21-7.83-19.02.98-18.94 8.85m-4.993 4.333c.08-11.39 12.58-25.43 23.912-18.737 5.03 2.958 7.805 13.35 2.093 17.675-6.868 5.19-19.362-2.193-26.005 1.063" fill="#652f98"/><path d="M373.75 288.887c-1.084.24-2.806-1.322-4.07-2.442-3.75-3.336-8.323-7.98-12.35-11.178 8.94-10.044 15.394 6.403 16.42 13.62" fill="#ec008c"/><path d="M355.94 276.872c6.556 3.867 11.23 9.368 17.26 13.678-8.393 2.384-21.337-2.638-17.26-13.678M172.172 273.053c5.706-2.893 11.55-5.618 17.988-7.64 4.303 10.11-10.247 11.128-17.988 7.64M321.484 294.406c-13.14 6.214-25.437 13.43-42.757 14.775.982-5.093-2.21-9.07-.74-12.87 1.11-2.885 13.88-5.342 17.057-6.432 8.54-2.936 12.675-5.524 16.79-8.59 3.88 3.808 5.493 9.564 9.65 13.118" fill="#00adef"/><path d="M188.607 263.59c-5.53 3.865-12.886 5.595-18.94 8.858-.065-7.878 11.73-16.694 18.94-8.86" fill="#8cd02f"/><path d="M269.56 321.12c-.762 6.497-2.812 13.954-2.753 19.877 4.244-3.205 13.62-16.883 2.754-19.877m-1.72.298c-10.314.218-8.86 16.31-2.785 20.313.778-6.947 2.122-13.233 2.784-20.312m-1.862 25.074l-.887.37c-9.062-4.607-12.325-24.143-1.292-28.308 5.472-2.07 14.645 1.003 14.68 8.358.06 9.964-9.09 12.486-12.5 19.58" fill="#652f98"/><path d="M265.057 341.73c-6.076-3.998-7.53-20.082 2.783-20.307-.66 7.08-2.006 13.365-2.783 20.306" fill="#f68712"/><path d="M266.805 341.003c-.065-5.93 1.992-13.387 2.755-19.885 10.865 2.995 1.49 16.673-2.755 19.885" fill="#fff200"/><path d="M320.063 310.767c.632 4.9 3.183 11.542 5.596 16.23 1.518-6.94 2.9-15.96-5.597-16.23m-2.144.255c-8.41 4.927-2.276 20.466 6.67 18.882-2.354-6.178-4.745-12.327-6.67-18.882m10.1 24.267c-13.117-.117-23.154-13.737-14.782-24.18 2.39-2.98 10.204-5.83 15.008-1.876 7.05 5.814-.072 17.712-.225 26.055M223.843 307.034c-5.276 3.387-8.772 8.845-13.3 13.118-.13.524-.712.814.37.88 5.277-3.336 14.61-4.027 12.93-13.998m-1.46-3.096c-11.484-5.073-16.688 8.78-15.4 18.51 4.73-6.33 11.94-12.216 15.4-18.51m-14.783 21.55c-2.55.043-3.598-.786-3.947-4.136-1.446-14.275 8.104-27.037 20.546-18.99 3.8 2.462 6.228 9.86 1.882 14.672-1.01 1.112-6.192 4.15-7.145 4.6-1.94.902-8.78 3.817-11.337 3.853" fill="#652f98"/><path d="M206.975 322.448c-1.28-9.74 3.932-23.577 15.408-18.51-3.46 6.293-10.662 12.187-15.408 18.51" fill="#ec008c"/><path d="M324.59 329.906c-8.948 1.584-15.082-13.962-6.673-18.875 1.926 6.542 4.317 12.698 6.672 18.876" fill="#00adef"/><path d="M210.906 321.033c-1.082-.058-.494-.356-.363-.88 4.528-4.273 8.03-9.73 13.308-13.118 1.672 9.972-7.653 10.662-12.944 13.998M325.66 326.987c-2.412-4.68-4.963-11.316-5.596-16.222 8.496.27 7.108 9.29 5.596 16.222" fill="#8cd02f"/><path d="M57.382 15.895v61.88H73.35c3.808 0 6.52.733 8.14 2.2 1.62 1.47 2.434 3.38 2.434 5.75 0 2.31-.814 4.208-2.435 5.67-1.62 1.467-4.332 2.194-8.14 2.194H25.6c-3.81 0-6.527-.728-8.148-2.196-1.613-1.46-2.427-3.387-2.427-5.75 0-2.318.814-4.2 2.427-5.668 1.62-1.468 4.34-2.202 8.147-2.202h15.967v-61.88H25.6c-3.81 0-6.527-.733-8.148-2.194-1.613-1.46-2.427-3.38-2.427-5.75 0-2.36.814-4.28 2.427-5.748C19.072.734 21.792 0 25.6 0l47.75.08c3.808 0 6.52.72 8.14 2.16 1.62 1.445 2.434 3.35 2.434 5.71 0 2.37-.814 4.29-2.435 5.75-1.62 1.46-4.332 2.195-8.14 2.195H57.38zM124.502 29.94v47.836h5.713c3.8 0 6.52.734 8.14 2.202 1.62 1.46 2.427 3.38 2.427 5.742 0 2.318-.806 4.208-2.427 5.67-1.62 1.467-4.34 2.2-8.14 2.2h-20.75c-3.816 0-6.52-.733-8.147-2.2-1.614-1.462-2.42-3.38-2.42-5.743 0-2.268.792-4.143 2.39-5.633 1.585-1.497 4.056-2.238 7.407-2.238v-61.88h-2.47c-3.81 0-6.52-.733-8.142-2.2-1.62-1.462-2.427-3.38-2.427-5.743 0-2.362.807-4.288 2.427-5.75 1.62-1.467 4.332-2.2 8.14-2.2l18.28.08 40.43 63.42V15.896h-5.705c-3.808 0-6.52-.734-8.147-2.202-1.613-1.46-2.427-3.38-2.427-5.742s.814-4.288 2.428-5.75c1.63-1.467 4.34-2.2 8.148-2.2l20.75.08c3.808 0 6.52.72 8.14 2.158 1.62 1.447 2.427 3.35 2.427 5.713 0 2.31-.792 4.216-2.39 5.706-1.592 1.496-4.034 2.237-7.327 2.237V93.59h-15.662l-40.664-63.65zM246.793 15.895v61.88h10.648c3.802 0 6.52.733 8.14 2.2 1.62 1.47 2.428 3.38 2.428 5.75 0 2.31-.807 4.208-2.427 5.67-1.62 1.467-4.338 2.194-8.14 2.194h-37.037c-3.808 0-6.512-.728-8.14-2.196-1.613-1.46-2.42-3.387-2.42-5.75 0-2.318.807-4.2 2.42-5.668 1.628-1.468 4.332-2.202 8.14-2.202h10.568v-61.88H213.85v14.973c0 3.8-.734 6.52-2.195 8.147-1.468 1.606-3.387 2.42-5.75 2.42-2.317 0-4.207-.814-5.668-2.42-1.468-1.628-2.202-4.346-2.202-8.147V0l81.938.08v30.787c0 3.8-.733 6.52-2.2 8.147-1.47 1.606-3.38 2.42-5.743 2.42-2.318 0-4.208-.814-5.676-2.42-1.467-1.628-2.194-4.346-2.194-8.147V15.895h-17.363zM353.265 68.132H314.84l-3.86 9.645h3.86c3.808 0 6.526.734 8.14 2.202 1.627 1.46 2.434 3.378 2.434 5.74 0 2.32-.807 4.208-2.435 5.67-1.614 1.467-4.332 2.2-8.14 2.2h-21.296c-3.8 0-6.512-.733-8.132-2.2-1.62-1.462-2.435-3.38-2.435-5.742 0-2.37.85-4.296 2.55-5.793 1.694-1.49 4.493-2.18 8.403-2.078l24.85-61.88h-10.336c-3.816 0-6.527-.733-8.148-2.2-1.62-1.462-2.427-3.38-2.427-5.743 0-2.362.806-4.288 2.426-5.75 1.62-1.467 4.332-2.2 8.148-2.2l34.173.08 31.477 77.693c3.707 0 6.142.414 7.334 1.235 2.362 1.7 3.546 3.932 3.546 6.708 0 2.32-.8 4.208-2.39 5.67-1.6 1.467-4.296 2.2-8.104 2.2h-21.288c-3.816 0-6.527-.733-8.14-2.2-1.62-1.462-2.435-3.38-2.435-5.742 0-2.32.814-4.208 2.435-5.67 1.613-1.467 4.324-2.2 8.14-2.2h3.852l-3.78-9.646zM346.71 52.31l-12.734-31.325L321.17 52.31h25.54z" fill="#27963c"/><path d="M126.792 387.136v-2.15c-2.304 1.227-4.847 2.15-7.63 2.76-2.785.61-5.314.916-7.59.916-4.933 0-8.953-1.308-12.027-3.924-3.082-2.617-4.622-5.51-4.622-8.685 0-3.86 1.962-7.443 5.9-10.75 3.94-3.307 9.37-4.964 16.318-4.964 2.784 0 6.004.305 9.652.893v-2.187c0-1.38-.596-2.508-1.773-3.373-1.186-.872-3.44-1.3-6.753-1.3-2.733 0-6.258.537-10.596 1.613-1.613.392-2.87.59-3.77.59-1.23 0-2.262-.445-3.12-1.33-.857-.88-1.28-2.007-1.28-3.388 0-.785.147-1.454.445-2.02l1.264-1.367c.53-.348 1.656-.762 3.364-1.235 2.275-.632 4.586-1.133 6.956-1.504 2.362-.377 4.5-.56 6.417-.56 5.72 0 10.154 1.23 13.308 3.7 3.16 2.472 4.73 5.844 4.73 10.125v18.94h1.578c2.21 0 3.794.43 4.74 1.28.937.85 1.41 1.97 1.41 3.342 0 1.345-.473 2.45-1.41 3.3-.946.858-2.53 1.28-4.74 1.28h-10.77zm0-16.47c-3.684-.718-7.08-1.082-10.182-1.082-3.75 0-6.97.916-9.66 2.747-1.67 1.157-2.506 2.35-2.506 3.54 0 .873.4 1.578 1.206 2.116 1.49.98 3.547 1.475 6.15 1.475 2.215 0 4.723-.428 7.514-1.3 2.798-.865 5.29-2.05 7.478-3.547v-3.946zM164.357 346.38v3.098c1.68-1.432 3.525-2.515 5.553-3.235 2.013-.712 4.2-1.075 6.57-1.075 5.444 0 9.753 1.7 12.922 5.073 2.522 2.697 3.78 6.23 3.78 10.597v17.102c1.94 0 3.38.427 4.31 1.278.922.85 1.38 1.97 1.38 3.343 0 1.345-.465 2.45-1.402 3.293-.953.858-2.53 1.287-4.74 1.287h-8.306c-2.217 0-3.794-.43-4.732-1.287-.944-.843-1.417-1.962-1.417-3.336 0-1.352.465-2.45 1.388-3.3.93-.85 2.37-1.278 4.31-1.278v-17.372c0-2.006-.538-3.474-1.613-4.404-1.403-1.192-3.518-1.788-6.33-1.788-2.123 0-3.99.407-5.582 1.228-1.607.83-3.634 2.566-6.09 5.233v17.102c2.368 0 3.887.224 4.578.667 1.475.9 2.202 2.217 2.202 3.954 0 1.345-.472 2.45-1.41 3.293-.945.858-2.522 1.287-4.74 1.287h-10.457c-2.216 0-3.793-.43-4.738-1.287-.945-.843-1.41-1.962-1.41-3.336 0-1.67.713-2.98 2.152-3.91.72-.443 2.26-.668 4.63-.668v-22.35c-1.95 0-3.38-.436-4.31-1.308-.93-.865-1.396-1.977-1.396-3.322 0-1.344.472-2.442 1.417-3.3.945-.85 2.515-1.28 4.732-1.28h8.75zm20.023-14.09c.836 0 1.555.297 2.16.893.595.603.893 1.323.893 2.15 0 1.055-1.083 2.45-3.256 4.202-2.166 1.752-4.332 2.63-6.483 2.63-1.054 0-2.086-.217-3.118-.653-1.032-.43-3.038-1.68-5.996-3.75-1.23-.836-2.064-1.258-2.515-1.258-.654 0-1.948.8-3.852 2.384-1.2 1.018-2.195 1.52-2.972 1.52-.777 0-1.453-.292-2.042-.873-.58-.58-.872-1.294-.872-2.13 0-1.104.916-2.39 2.74-3.86 2.45-2.005 4.724-3.008 6.825-3.008.953 0 1.854.168 2.69.495 1.293.537 2.98 1.533 5.073 2.987 2.093 1.445 3.467 2.18 4.12 2.18.778 0 1.92-.677 3.424-2.02.96-.874 1.62-1.404 1.998-1.6l1.185-.29zM252.74 367.523c0 3.532-.974 6.948-2.944 10.255-1.962 3.307-4.877 5.938-8.75 7.9-3.88 1.962-7.922 2.944-12.138 2.944-4.193 0-8.198-.967-12.035-2.9-3.83-1.926-6.745-4.557-8.75-7.87-2-3.33-3.01-6.797-3.01-10.416 0-3.685 1.018-7.297 3.053-10.844 2.035-3.547 4.964-6.33 8.78-8.373 3.808-2.036 7.798-3.046 11.962-3.046 4.187 0 8.22 1.04 12.094 3.118 3.88 2.08 6.803 4.877 8.772 8.387 1.977 3.517 2.966 7.136 2.966 10.843m-9.2.044c0-2.966-1.063-5.684-3.185-8.17-2.907-3.343-6.723-5.022-11.447-5.022-4.164 0-7.638 1.33-10.415 3.99-2.783 2.66-4.18 5.742-4.18 9.245 0 2.878 1.41 5.56 4.224 8.06 2.813 2.493 6.265 3.75 10.37 3.75 4.13 0 7.596-1.257 10.41-3.75 2.812-2.5 4.222-5.204 4.222-8.103M293.948 357.154c-1.497-.923-3.067-1.62-4.717-2.086-1.642-.465-3.364-.698-5.16-.698-3.56 0-6.388.582-8.48 1.752-.93.51-1.396 1.06-1.396 1.664 0 .683.632 1.36 1.89 2.013.96.486 3.095.95 6.41 1.395 6.112.836 10.356 1.67 12.755 2.507 3.138 1.112 5.566 2.755 7.267 4.942 1.708 2.188 2.558 4.492 2.558 6.912 0 3.292-1.446 6.047-4.354 8.264-4.156 3.19-9.556 4.804-16.206 4.804-2.66 0-5.116-.233-7.377-.705-2.267-.46-4.33-1.142-6.22-2.036l-1.433.894-1.57.32c-1.44 0-2.58-.48-3.437-1.418-.85-.937-1.28-2.522-1.28-4.738v-3.096c0-2.21.43-3.794 1.28-4.732.857-.945 1.97-1.417 3.343-1.417 1.104 0 2.042.312 2.783.923.75.61 1.33 1.664 1.752 3.16 1.41 1.2 3.096 2.11 5.073 2.72 1.97.61 4.244.923 6.824.923 4.21 0 7.494-.662 9.827-1.977 1.103-.654 1.656-1.352 1.656-2.072 0-1.19-.792-2.18-2.377-2.958-1.585-.777-4.863-1.44-9.827-1.976-7.392-.778-12.326-2.275-14.812-4.485-2.485-2.187-3.727-4.884-3.727-8.082 0-3.292 1.395-6.032 4.17-8.22 3.773-2.987 8.716-4.484 14.82-4.484 2.123 0 4.165.203 6.12.61 1.962.407 3.845 1.017 5.633 1.86l1.6-.945 1.365-.312c1.266 0 2.305.465 3.14 1.417.844.938 1.265 2.522 1.265 4.73v2.247c0 2.006-.247 3.365-.726 4.085-.954 1.38-2.254 2.064-3.904 2.064-1.105 0-2.08-.35-2.915-1.032-.835-.69-1.38-1.6-1.612-2.74" fill="#5e2590"/></svg>