<svg xmlns="http://www.w3.org/2000/svg" width="400" height="313.472"><path d="M33.642 74.243C11.83 81.935 1.745 96.953 1.745 121.656c0 30.435 23.524 51.75 56.716 51.75 14.405 0 29.174-4.287 38.228-11.646v-34.72c-9.735 5.963-18.424 8.687-27.51 8.687-11.747 0-19.438-7.043-19.438-17.71 0-15.383 11.03-20.05 46.948-20.05v-31.05c-6.03-.68-8.722-.68-13.075-.68-17.775 0-35.6 2.69-49.97 8.006M76.57 37.87V1.436h-2.99C38.31.79 10.15 25.825 10.83 57.887H55.09c0-12.692 7.392-19.37 21.48-20.018" fill="#ed1639"/><path d="M152.008 38.226c-2.376-8.472-6.23-14.27-12.393-20.085C127.87 7.11 110.095 1.114 88.663 1.43v36.447c5.648.283 8.672 1.33 11.696 3.34 6.062 3.987 7.39 7.974 7.39 23.025v56.07c0 28.423 1.33 39.42 5.75 47.445h47.595c-4.32-7.758-5.615-12.327-5.947-26.448-10.117-14.47-15.4-32.71-15.4-53.112 0-18.656 4.435-35.917 12.26-49.972M254.9 65.58l48.31-1.978C301.53 24.63 272.906-.358 230.31.008V40.31c15.3.93 24.288 9.92 24.587 25.27" fill="#ed1639"/><path d="M152.008 38.226c2.21 8.04 3.024 18.49 3.024 33.675v57.116c0 4.834.033 8.82.116 12.293 3.09 4.418 6.595 8.505 10.582 12.177 13.955 13.323 28.94 18.29 52.93 18.623v-40.95c-21-1.33-28.658-12.627-28.658-42.962 0-33.94 7.343-46.234 28.657-47.895V0c-16.332.332-27.977 3.024-39.623 9.968-11.197 6.446-20.35 16.247-27.03 28.258" fill="#ed1639"/><path d="M254.607 106.527c-1.695 15.633-8.988 23.29-24.305 24.62v40.95c41.6-.713 69.89-24.985 73.196-63.26l-48.89-2.31z" fill="#ed1c24"/><path d="M155.026 71.906c0-15.185-.814-25.634-3.023-33.675-7.808 14.04-12.26 31.3-12.26 49.956 0 20.417 5.282 38.658 15.416 53.128-.1-3.472-.134-7.46-.134-12.293V71.907z" fill="#f89a93"/><path d="M318.723 46.078c0-.3-.066-.515-.2-.748-.066-.233-.215-.415-.48-.548-.167-.133-.416-.233-.65-.266-.265-.033-.58-.033-.946-.033h-1.395v3.67h1.18c.38 0 .763-.032 1.062-.132.366-.065.615-.198.814-.348.233-.232.35-.432.416-.648.133-.265.2-.564.2-.946m3.853 7.79h-2.69l-3.34-4.22h-1.495v4.22h-1.977V42.94h3.34c.746 0 1.295.016 1.76.116.448.033.88.166 1.33.432.447.282.846.615 1.03.997.23.398.33.88.33 1.495 0 .78-.23 1.43-.68 1.944-.415.53-1.013.913-1.695 1.212l4.087 4.735zm3.024-5.265c0-2.46-.88-4.57-2.624-6.346-1.728-1.728-3.87-2.642-6.296-2.642-2.46 0-4.57.914-6.33 2.642-1.71 1.777-2.59 3.887-2.59 6.346 0 2.508.88 4.618 2.59 6.362 1.76 1.76 3.87 2.625 6.33 2.625 2.425 0 4.568-.864 6.296-2.625 1.744-1.744 2.625-3.854 2.625-6.362m1.396 0c0 2.857-.996 5.3-3.023 7.31-2.01 2.043-4.436 3.006-7.293 3.006-2.858 0-5.283-.964-7.31-3.008-2.01-2.01-3.007-4.452-3.007-7.31 0-2.857.997-5.25 3.007-7.26 2.027-2.043 4.452-3.056 7.31-3.056 2.857 0 5.283 1.013 7.293 3.057 2.027 2.01 3.023 4.402 3.023 7.26" fill="#ed1c24"/><path d="M26.05 230.12c3.504 0 6.33-2.078 7.076-4.936l13.207 1.08c-1.295 8.49-9.735 14.62-20.284 14.62V230.12zm-8.89-19.57h15.767c.2-4.47-2.625-7.66-6.745-7.843V192.39c4.768.183 8.24 1.23 11.413 3.456 5.914 4.037 9.486 12.01 9.486 21.132 0 1.196-.065 2.01-.198 3.44h-29.72v-9.87zm5.65 30.334C9.37 240.884 0 230.9 0 216.978c0-13.556 9.635-24.587 21.414-24.587h1.396v10.317c-6.496.35-9.187 4.768-9.187 14.404 0 8.656 2.79 12.527 9.187 13.01v10.764zM69.3 214.997l6.78-21.314h14.153l-14.67 40.42-6.262-19.106zm-25.217-21.314h14.735l14.985 45.935H61.227l-17.144-45.935zM113.234 230.12c3.472 0 6.263-2.078 7.043-4.936l13.208 1.08c-1.33 8.49-9.77 14.62-20.25 14.62V230.12zm-8.922-19.57h15.766c.2-4.47-2.625-7.66-6.778-7.843V192.39c4.8.183 8.24 1.23 11.446 3.456 5.914 4.037 9.486 12.01 9.486 21.132 0 1.196-.066 2.01-.2 3.44h-29.72v-9.87zm5.616 30.334c-13.407 0-22.777-9.985-22.777-23.906 0-13.556 9.637-24.587 21.382-24.587h1.396v10.317c-6.463.35-9.187 4.768-9.187 14.404 0 8.656 2.825 12.527 9.188 13.01v10.764zM164.696 211.98c0-3.737-.166-4.834-1.163-6.096-.947-1.147-2.475-1.878-4.053-1.878-1.695 0-3.323.73-5.65 2.526V195.95c3.656-2.426 6.38-3.373 10.02-3.373 5.647 0 10.615 3.023 12.658 7.69 1.263 2.792 1.628 5.716 1.628 11.714v27.644h-13.44V211.98zm-27.743-18.307h13.523v45.95h-13.523v-45.95zM180.952 193.68h6.645v-12.194h13.44v12.194h8.24v10.416h-8.24v17.56c0 3.522.1 4.12.548 5.25.814 1.594 2.542 2.342 5.748 2.342.997 0 1.66 0 2.758-.2v9.935c-2.657.798-6.262 1.23-9.9 1.23-5.55 0-9.77-2.243-11.347-6.097-1.047-2.825-1.246-4.12-1.246-12.012v-18.008h-6.645V193.68z" fill="#214395"/><path d="M235.722 229.632c6.197-.233 8.722-3.92 8.722-13.24 0-8.988-2.525-12.66-8.722-12.975v-10.932c6.396 0 10.8 1.545 14.92 5.25 5.165 4.668 7.508 10.416 7.508 18.756 0 15.285-8.19 24.173-22.428 24.405v-11.263zm-3.438 11.263c-7.078-.3-11.48-1.827-15.318-5.2-4.767-4.402-7.21-10.864-7.21-18.938 0-10.134 3.838-17.427 11.264-21.68 3.34-1.81 6.81-2.592 11.264-2.592v10.932c-6.297.232-8.822 3.854-8.822 12.875 0 9.57 2.226 13.04 8.822 13.34v11.263zM281.862 192.188c10.516-.3 17.942 5.997 18.108 15.084l-12.26.582c-.266-3.622-1.993-5.316-5.848-5.615v-10.052zm-.066 38.575c4.12-.282 5.648-1.23 5.648-3.788 0-1.262-.648-2.442-1.777-3.09-1.628-.747-1.628-.747-8.19-2.143-6.38-1.395-8.556-2.043-11.164-3.505-4.054-2.043-6.38-6.064-6.38-11.097 0-9.054 7.227-14.852 18.49-14.952v10.05h-.946c-2.725.067-4.403 1.396-4.403 3.357 0 2.01 1.495 2.907 5.898 3.854 8.057 1.627 12.21 2.723 14.802 3.92 4.734 2.275 7.426 6.495 7.426 11.745 0 9.585-7.692 15.93-19.404 16.064v-10.417zm-9.67-6.58c.2 4.603 1.978 6.397 6.298 6.58v10.416c-11.746.548-19.438-5.832-19.737-16.348l13.44-.648zM61.742 302.378c3.472 0 6.296-2.044 7.043-4.868l13.24 1.014c-1.328 8.555-9.768 14.62-20.283 14.62v-10.766zM52.82 282.84h15.766c.2-4.468-2.625-7.657-6.745-7.84v-10.333c4.77.2 8.274 1.212 11.447 3.438 5.915 4.07 9.486 12.045 9.486 21.132 0 1.23-.132 2.077-.232 3.472H52.82v-9.87zm5.65 30.303c-13.44 0-22.81-9.918-22.81-23.906 0-13.473 9.7-24.57 21.413-24.57h1.396V275c-6.497.35-9.188 4.768-9.188 14.47 0 8.588 2.79 12.46 9.187 12.908v10.765zM114.923 249.388h13.44v62.564h-13.44v-62.564zm-3.274 28.973c-2.143-1.943-3.937-2.724-6.296-2.724-5.318 0-8.274 4.62-8.274 13.24 0 8.64 2.89 13.24 8.206 13.24 2.343 0 3.955-.78 6.363-3.106v11.148c-2.825 2.176-6.015 3.19-9.453 3.19-11.18 0-18.872-10.134-18.872-24.67 0-14.37 7.69-24.29 18.755-24.29 3.49 0 6.48 1.03 9.57 3.274v10.7zM133.313 266h13.44v45.952h-13.44v-45.95zm0-16.612h13.44v12.16h-13.44v-12.16zM175.045 301.632c4.32-.382 6.396-2.525 6.845-6.944l13.822.648c-.93 10.798-8.92 17.66-20.667 17.81V301.63zm0-36.964c12.045-.083 20.12 6.944 20.534 17.926l-13.557.58c-.133-4.352-2.658-6.877-6.978-7.176v-11.33zm-3.272 48.477c-6.73-.067-10.965-1.48-14.902-5.217-4.8-4.42-7.325-10.898-7.325-18.407 0-9.75 4.253-18.09 11.097-22.028 3.273-1.976 6.546-2.724 11.13-2.824v11.33c-6.013.482-8.057 3.954-8.057 13.523 0 8.54 2.177 11.73 8.058 12.112v11.513zM198.502 266h13.407v45.952H198.5v-45.95zm0-16.612h13.407v12.16H198.5v-12.16zM240.72 301.923c6.196-.2 8.72-3.954 8.72-13.24 0-9.02-2.524-12.693-8.72-12.91v-10.997c6.396 0 10.765 1.58 14.918 5.217 5.133 4.7 7.51 10.45 7.51 18.79 0 15.283-8.19 24.204-22.428 24.37v-11.23zm-3.473 11.23c-7.01-.266-11.413-1.76-15.25-5.133-4.8-4.403-7.243-10.865-7.243-18.972 0-10.1 3.837-17.427 11.23-21.647 3.372-1.876 6.844-2.624 11.263-2.624v10.998c-6.263.166-8.788 3.788-8.788 12.81 0 9.568 2.21 13.04 8.787 13.34v11.23zM293.64 284.272c0-3.772-.232-4.9-1.196-6.097-.98-1.147-2.475-1.878-4.087-1.878-1.66 0-3.256.73-5.615 2.525V268.24c3.655-2.425 6.396-3.372 10.05-3.372 5.616 0 10.617 2.99 12.66 7.658 1.23 2.824 1.595 5.748 1.595 11.746v27.677H293.64V284.27zm-27.777-18.275h13.507v45.952h-13.507v-45.953zM335.918 302.378c3.472 0 6.296-2.044 7.044-4.868l13.24 1.014c-1.295 8.555-9.768 14.62-20.284 14.62v-10.766zm-8.92-19.537h15.798c.166-4.468-2.625-7.657-6.778-7.84v-10.333c4.8.2 8.273 1.212 11.48 3.438 5.913 4.07 9.42 12.045 9.42 21.132 0 1.23-.034 2.077-.134 3.472h-29.787v-9.87zm5.647 30.303c-13.373 0-22.776-9.918-22.776-23.906 0-13.473 9.668-24.57 21.38-24.57h1.395V275c-6.495.35-9.187 4.768-9.187 14.47 0 8.588 2.858 12.46 9.187 12.908v10.765zM380.696 264.512c10.483-.3 17.91 5.964 18.108 15.05l-12.327.583c-.266-3.655-1.927-5.316-5.78-5.632v-10zm-.1 38.51c4.12-.284 5.615-1.197 5.615-3.722 0-1.33-.647-2.476-1.776-3.09-1.562-.78-1.562-.78-8.157-2.177-6.38-1.428-8.523-2.043-11.164-3.472-4.054-2.075-6.38-6.096-6.38-11.18 0-8.987 7.227-14.8 18.457-14.868v10h-.913c-2.692.084-4.37 1.43-4.37 3.374 0 1.976 1.463 2.94 5.865 3.854 8.057 1.595 12.21 2.724 14.835 3.92 4.702 2.276 7.393 6.496 7.393 11.746 0 9.585-7.692 15.93-19.404 16.03v-10.415zm-9.67-6.58c.2 4.635 1.978 6.43 6.264 6.58v10.415c-11.712.565-19.403-5.798-19.686-16.28l13.423-.715zM342.474 184.01c14.67.3 16.347 1.978 16.347 16.165v1.944h-9.7v-.582c0-4.004-.516-5.167-2.393-5.715-.78-.166-1.56-.166-4.253-.233v-11.58zm24.106 57.2l-40.652-30.917c-2.276-1.695-2.725-2.31-3.406-3.988-.714-1.943-1.046-4.352-1.046-8.34 0-9.186 1.594-12.293 6.91-13.406 1.662-.35 3.124-.45 9.603-.55v11.514c-1.845.066-2.16.066-2.975.232-2.475.266-3.44 1.196-3.44 3.306 0 1.794.682 2.89 2.427 4.187l1.33 1.012 17.426 13.59c.1-1.263.133-2.044.133-3.822 0-1.628 0-2.11-.132-3.472h9.42c-.034 7.46-.167 10.5-.566 13.89l8.406 6.644-3.438 10.117zm-12.095-1.878c-2.89 1.33-5.366 1.66-14.087 1.66-9.802 0-15.185-.647-17.942-2.275-4.087-2.458-5.283-5.88-5.283-15.35 0-5.93.35-8.34 1.61-10.798l8.607 6.444c-.133 1.363-.166 2.044-.166 3.256 0 3.655.714 5.416 2.59 6.197.98.316 6.098.847 9.288.847h2.042l13.34 10.018z" fill="#214395"/></svg>