<svg xmlns="http://www.w3.org/2000/svg" width="400" height="378.365"><path d="M3.844 3.83H396.15v370.686H3.845V3.83z" fill="#32326d"/><path d="M0 378.365V0h400v378.365H0zm7.693-7.678H392.3V7.67H7.692v363.017z" fill="#ffed00"/><path d="M25.685 188c0-95.787 76.88-173.463 171.787-173.463 94.874 0 171.747 77.676 171.747 173.462 0 95.825-76.874 173.485-171.748 173.485-94.907 0-171.787-77.66-171.787-173.486" fill="#ffed00" fill-rule="evenodd"/><path d="M68.262 168.437C77.544 106.677 131.354 59.36 196.37 59.36c65.014 0 118.79 47.316 128.13 109.077H68.262zm256.197 38.428c-9.405 61.663-63.166 108.89-128.09 108.89-64.902 0-118.663-47.227-128.108-108.89H324.46z" fill="#2a2974"/><path d="M73.61 188.65h5.95l-1.818-5.883c-.595-1.812-1.003-3.266-1.28-4.38-.195 1.35-.52 2.69-.93 4.03l-1.922 6.232zm-5.077 8.7l6.748-21.213h2.535l7.163 21.213h-2.656l-2.054-6.426H72.95l-1.948 6.426h-2.47zM99.474 189.914l2.307.69c-.496 2.405-1.417 4.168-2.672 5.38-1.33 1.152-2.885 1.737-4.727 1.737-1.645 0-3.055-.405-4.17-1.17-1.15-.787-2.128-2.07-2.886-3.793-.7-1.747-1.076-3.826-1.076-6.142 0-2.34.375-4.322 1.076-5.914.758-1.624 1.8-2.843 3.04-3.663 1.246-.83 2.64-1.252 4.18-1.252 1.695 0 3.17.553 4.376 1.585 1.206 1.023 2.078 2.56 2.55 4.582l-2.24.666c-.823-2.95-2.372-4.42-4.694-4.42-1.19 0-2.24.26-3.048.886-.88.585-1.59 1.52-2.094 2.762-.49 1.25-.742 2.81-.742 4.77 0 2.883.49 5.053 1.557 6.53 1.025 1.464 2.403 2.187 4.13 2.187 1.272 0 2.33-.455 3.252-1.35.93-.893 1.548-2.266 1.882-4.07M107.998 188.65h5.94l-1.817-5.883c-.594-1.812-.993-3.266-1.262-4.38-.244 1.35-.546 2.69-.953 4.03l-1.907 6.232zm-5.094 8.7l6.764-21.213h2.527l7.147 21.213h-2.64l-2.063-6.426h-7.327l-1.93 6.426h-2.48zM123.62 194.856h3.773c1.49 0 2.616-.243 3.406-.714.774-.504 1.377-1.284 1.817-2.365.546-1.462.807-3.184.807-5.16 0-2.176-.286-3.85-.905-5.06-.57-1.235-1.338-2.072-2.267-2.486-.594-.26-1.59-.446-2.933-.446h-3.7v16.232zm-2.29 2.495V176.14h6.063c1.49 0 2.592.122 3.406.423 1.002.31 1.906.95 2.648 1.83.733.9 1.345 2.038 1.76 3.403.4 1.364.603 2.973.62 4.842 0 2.396-.367 4.444-1.044 6.125-.733 1.658-1.646 2.852-2.754 3.55-1.1.7-2.608 1.04-4.384 1.04h-6.316zM139.266 197.348v-21.212h12.672v2.494h-10.374v6.507h9.746v2.495h-9.746v7.222h10.806v2.494h-13.104zM155.644 197.348v-21.212h3.496l4.19 15.03.838 3.127c.188-.788.506-1.884.913-3.404l4.24-14.754h3.112v21.212h-2.25V179.58l-5.11 17.768h-2.077l-5.118-18.028v18.028h-2.233zM176.78 176.137h2.306v21.213h-2.306v-21.213zM186.443 188.65h5.965l-1.8-5.883c-.604-1.812-1.02-3.266-1.24-4.38-.26 1.35-.57 2.69-1.018 4.03l-1.907 6.232zm-5.11 8.7l6.79-21.213h2.5l7.213 21.213h-2.698l-2.03-6.426h-7.3l-1.948 6.426h-2.527zM205.495 197.348v-21.212h12.72v2.494H207.82v6.507h9.714v2.495h-9.714v7.222h10.797v2.494h-13.12zM233.428 176.136h2.323v12.26c0 2.055-.17 3.72-.578 5.053-.39 1.324-1.124 2.355-2.192 3.12-1.06.747-2.436 1.153-4.09 1.153-2.323 0-4.043-.69-5.208-2.072-1.165-1.356-1.72-3.777-1.72-7.254v-12.26h2.307v12.26c0 1.91.17 3.3.496 4.16.26.86.758 1.503 1.45 1.95.693.446 1.5.674 2.518.674 1.614 0 2.828-.48 3.57-1.39.733-.926 1.124-2.737 1.124-5.394v-12.26zM242.15 185.5h4.988c1.1 0 1.948-.13 2.477-.383l1.36-1.227.507-1.94c0-1.066-.318-1.92-.995-2.536-.603-.6-1.532-.926-2.78-.926h-5.556v7.01zm-2.338 11.844V176.14h7.8c1.596 0 2.818.203 3.56.6.782.375 1.46 1.04 1.93 2 .515.893.767 1.957.767 3.184 0 1.617-.465 2.892-1.24 3.876-.87 1.015-2.11 1.624-3.732 1.9l1.532 1.187c.66.788 1.28 1.69 1.818 2.673l3.056 5.784h-2.934l-2.355-4.403c-.897-1.722-1.557-2.89-2.02-3.485l-1.346-1.218c-.457-.187-1.036-.3-1.802-.3h-2.697v9.407h-2.338zM259.428 187.05c0 2.625.595 4.64 1.744 6.11 1.14 1.454 2.59 2.17 4.246 2.17 1.703 0 3.13-.74 4.31-2.194 1.133-1.47 1.728-3.624 1.728-6.435 0-1.827-.318-3.452-.912-4.898-.44-1.08-1.14-1.966-2.054-2.616-.937-.65-1.93-.983-3.023-.983-1.72 0-3.22.715-4.36 2.153-1.092 1.446-1.68 3.697-1.68 6.695m-2.395-.032c0-3.615.782-6.402 2.396-8.32 1.614-1.957 3.61-2.908 6.022-2.908 1.54 0 2.958.423 4.27 1.292 1.223.853 2.258 2.104 2.99 3.802.75 1.633 1.11 3.583 1.11 5.882 0 3.153-.71 5.712-2.127 7.678-1.59 2.16-3.65 3.282-6.243 3.282-2.56 0-4.694-1.12-6.234-3.396-1.442-2-2.184-4.436-2.184-7.312M279.276 186.25h4.548c1.4 0 2.477-.334 3.12-.984.677-.61 1.036-1.6 1.036-2.9 0-.82-.204-1.577-.53-2.145l-1.198-1.226c-.424-.236-1.304-.366-2.494-.366h-4.482v7.62zm-2.338 11.097v-21.213h6.625c1.565 0 2.69.13 3.455.43.986.366 1.834 1.032 2.437 2.015.578.982.88 2.21.88 3.655 0 1.91-.473 3.502-1.475 4.68-.994 1.202-2.657 1.828-5.102 1.828h-4.482v8.604h-2.338zM293.498 197.348v-21.212h12.688v2.494h-10.382v6.507h9.747v2.495h-9.746v7.222h10.79v2.494h-13.096zM313.09 188.65h5.974l-1.833-5.883c-.56-1.812-.936-3.266-1.23-4.38-.244 1.35-.562 2.69-.945 4.03l-1.964 6.232zm-5.068 8.7l6.756-21.213h2.51l7.212 21.213h-2.69l-2.004-6.426h-7.367l-1.95 6.426h-2.468z" fill="#005499" fill-rule="evenodd"/><path d="M102.013 237.74l-4.784-4.16-4.8 4.16 2.183-6.182-5.134-3.607 6.16.366 1.59-6.426 1.613 6.426 6.12-.365-5.126 3.608 2.176 6.183z" fill="#fff"/><path d="M102.013 237.74l.383-.438-4.784-4.16-.383-.333-3.513 3.038 1.45-4.095.147-.422-3.814-2.672 4.108.243.48.026 1.15-4.615 1.043 4.145.115.47 4.547-.267-3.44 2.42-.358.253 2.315 6.606.553-.195.383-.438-.383.44.554-.196-2.03-5.77 4.768-3.346 1.68-1.186-7.686.455-1.5-5.956-1.14.008-1.476 5.947-5.672-.334-2.046-.122 6.447 4.533-2.038 5.77.937.632 4.417-3.82 4.4 3.82.937-.634-.554.195zM113.076 259.31l-4.81-4.2-4.782 4.2 2.2-6.19-5.207-3.63 6.185.38 1.605-6.393 1.58 6.394 6.252-.38-5.24 3.63 2.216 6.19z" fill="#fff"/><path d="M113.076 259.31l.383-.437-4.8-4.2-.393-.342-3.48 3.056 1.45-4.07.148-.415-3.863-2.704 4.1.26.488.024 1.157-4.582 1.02 4.11.113.472 4.645-.284-3.528 2.445-.367.26 2.37 6.606.556-.195.383-.437-.384.438.554-.194-2.07-5.768 4.873-3.38 1.72-1.194-7.848.48-1.467-5.915-1.14-.01-1.484 5.924-5.696-.35-2.087-.13 6.553 4.574-2.053 5.768.945.634 4.392-3.86 4.426 3.86.937-.634-.554.195zM129.573 274.592l-5.566-3.095-3.83 5.07.856-6.508-5.803-2.446 6.096-.927.228-6.613 2.91 5.94 5.98-1.618-4.31 4.607 3.44 5.59z" fill="#fff"/><path d="M129.573 274.592l.285-.51-5.566-3.097-.44-.252-2.803 3.705.56-4.298.066-.447-4.31-1.82 4.05-.61.48-.072.163-4.752 1.874 3.827.212.44 4.465-1.212-2.9 3.104-.31.325 3.676 5.98.497-.31.285-.51-.285.51.497-.308-3.203-5.208 4.01-4.28 1.402-1.496-7.5 2.023-2.704-5.5-1.11.235-.21 6.126-5.615.845-2.045.316 7.302 3.08-.807 6.06 1.05.43 3.53-4.663 5.118 2.85.782-.82-.497.31zM148.195 287.47l-6.03-2.088-2.902 5.663-.277-6.58-6.193-1.39 5.884-1.982-.913-6.5 3.88 5.314 5.573-2.625-3.44 5.28 4.418 4.908z" fill="#fff"/><path d="M148.195 287.47l.196-.552-6.038-2.088-.48-.163-2.112 4.128-.187-4.355-.016-.447-4.596-1.032 3.904-1.307.465-.162-.662-4.663 2.502 3.43.285.39 4.148-1.96-2.314 3.56-.245.38 4.71 5.233.44-.39.196-.552-.195.552.44-.39-4.124-4.574 3.196-4.907 1.125-1.723-7 3.298-3.593-4.923-1.06.422.848 6.02-5.42 1.83-1.98.665 7.8 1.745.252 6.134 1.108.243 2.665-5.208 5.55 1.918.635-.943-.44.39zM165.53 301.03l-3.783-5.128-5.598 2.982 3.552-5.524-4.23-4.68 5.925 1.74 3.007-5.9.13 6.597 6.145 1.04-5.9 2.364.75 6.51z" fill="#fff"/><path d="M165.53 301.03l.47-.35-3.78-5.127-.302-.406-4.066 2.17 2.347-3.65.235-.372-3.137-3.47 3.936 1.154.464.137 2.168-4.25.082 4.267.008.48 4.57.77-3.967 1.593-.417.163.807 6.954.58-.065.47-.35-.47.35.577-.066-.693-6.07 5.485-2.2 1.922-.772-7.71-1.3-.12-6.11-1.11-.252-2.787 5.46-5.46-1.6-1.988-.586 5.32 5.882-3.315 5.15.774.838 5.15-2.746 3.48 4.72 1.05-.414-.577.065zM189.324 304.182l-4.442-4.566-5.142 3.762 2.787-5.988-4.898-4.038 6.103.87 2.184-6.264 1.02 6.54 6.192.18-5.477 3.183 1.67 6.322z" fill="#fff"/><path d="M189.324 304.182l.423-.406-4.44-4.566-.36-.366-3.716 2.722 1.827-3.932.195-.415-3.634-2.99 4.034.577.48.065 1.565-4.5.66 4.215.074.48 4.63.138-3.7 2.153-.392.22 1.785 6.75.57-.146.424-.406-.423.406.57-.146-1.565-5.89 5.093-2.966 1.768-1.032-7.75-.22-.944-6.06-1.133-.097-2.02 5.81-5.624-.805-2.063-.292 6.145 5.07-2.592 5.58.88.716 4.727-3.462 4.083 4.2.994-.552-.57.146zM216.637 301.928l-5.41-3.355-4.11 4.858 1.224-6.466-5.663-2.754 6.12-.6.58-6.598 2.598 6.11 6.08-1.308-4.564 4.362 3.147 5.752z" fill="#fff"/><path d="M216.637 301.928l.31-.495-5.412-3.356-.432-.268-2.99 3.54.806-4.28.08-.44-4.204-2.038 4.058-.398.49-.05.415-4.743 1.67 3.95.195.438 4.53-.967-3.07 2.934-.32.31 3.358 6.14.514-.276.31-.495-.31.495.513-.276-2.925-5.362 4.237-4.054 1.492-1.43-7.628 1.64-2.404-5.66-1.125.177-.538 6.11-5.64.56-2.062.203 7.13 3.453-1.148 6.036 1.027.48 3.78-4.47 4.98 3.088.823-.772-.513.276zM239.78 298.165l-5.608-2.998-3.724 5.143.758-6.54-5.884-2.332 6.088-1.032.122-6.597 3 5.88 5.956-1.73-4.27 4.68 3.56 5.525z" fill="#fff"/><path d="M239.78 298.165l.276-.512-5.606-3.006-.457-.235-2.697 3.73.497-4.3.05-.446-4.36-1.73 4.025-.683.472-.08.098-4.746 1.93 3.803.222.43 4.425-1.292-2.87 3.153-.3.334 3.797 5.898.497-.317.276-.512-.277.512.496-.317-3.316-5.142 3.96-4.355 1.394-1.526-7.473 2.17-2.786-5.453-1.11.26-.113 6.11-5.614.95-2.053.35 7.407 2.942-.7 6.085 1.06.414 3.414-4.727 5.158 2.754.774-.83-.497.318zM261.88 282.305l-6.422.195-.652 6.312-2.633-6.003-6.283.852 4.743-3.916-3.22-5.752 5.584 3.582 4.294-4.41-1.31 6.133 5.9 3.005z" fill="#fff"/><path d="M261.88 282.305l-.017-.585-6.422.195-.512.016-.48 4.616-1.737-3.973-.178-.406-4.686.633 3.162-2.607.375-.31-2.314-4.134 3.61 2.314.406.26 3.203-3.3-.88 4.153-.09.44 6.29 3.208.27-.52-.017-.585.016.585.268-.52-5.5-2.803 1.214-5.703.423-1.984-5.37 5.525-5.183-3.322-.83.78 2.98 5.32-4.367 3.61-1.58 1.3 7.872-1.058 2.46 5.598 1.117-.18.603-5.8 5.91-.178.25-1.105-.268.52zM280.916 266.047l-6.153 1.82 1.035 6.248-4.107-5.175-5.858 2.477 3.57-4.988-4.613-4.762 6.322 2.04 3-5.354.317 6.255 6.486 1.437z" fill="#fff"/><path d="M280.916 266.047l-.163-.56-6.153 1.82-.497.146.75 4.525-2.697-3.396-.278-.35-4.36 1.837 2.364-3.3.277-.398-3.318-3.428 4.09 1.316.457.154 2.24-4.005.212 4.232.025.44 6.92 1.534.13-.57-.164-.56.163.56.13-.567-6.055-1.342-.292-5.817-.106-2.03-3.757 6.71-5.86-1.892-.602.967 4.27 4.41-3.284 4.59-1.207 1.69 7.36-3.11 3.83 4.817 1.034-.455-.954-5.736 5.656-1.672-.034-1.13-.13.57zM295.71 246.72l-5.558 3.153 2.43 5.85-5.168-4.08-5.166 3.673 2.37-5.67-5.606-3.6 6.61.6 1.686-5.905 1.777 6.037 6.625-.057z" fill="#fff"/><path d="M295.71 246.72l-.293-.51-5.55 3.15-.448.253 1.76 4.257-3.4-2.68-.34-.277-3.864 2.737 1.58-3.777.188-.455-4-2.568 4.22.382.49.04 1.262-4.427 1.198 4.095.13.422 7.074-.057-.008-.585-.293-.51.293.51-.008-.585-6.185.05-1.646-5.607-.57-1.94-2.11 7.384-6.12-.553-.375 1.072 5.19 3.33-2.183 5.216-.79 1.885 6.486-4.598 4.824 3.802.905-.682-2.233-5.37 5.11-2.893-.302-1.097.008.585zM305.18 225.41l-5.297 3.518 2.845 5.695-5.47-3.704-4.856 3.98 1.932-5.826-5.86-3.152 6.69.13 1.24-5.996 2.176 5.866 6.6-.512z" fill="#fff"/><path d="M305.18 225.41l-.325-.487-5.297 3.518-.432.285 2.078 4.152-3.61-2.446-.367-.243-3.635 2.982 1.296-3.917.155-.463-4.156-2.242 4.262.09.488.007.93-4.476 1.466 3.955.154.407 7.04-.537-.047-.585-.325-.487.326.487-.048-.585-6.153.48-2.03-5.452-.71-1.9-1.556 7.506-6.193-.123-.293 1.097 5.428 2.917-1.785 5.37-.636 1.918 6.088-4.996 5.11 3.46.855-.74-2.624-5.23 4.874-3.234-.375-1.073.05.585z" fill="#fff"/><path d="M34.32 179.02l2.33-14.72 4.19.65-1.394 8.758 3.423.512 1.18-7.49 3.944.64-1.19 7.484 7.954 1.25-.953 5.98-19.485-3.063zM47.11 156.15l.716-2.428c.057-.276.13-.828.163-1.625l-.295-1.088-.986-.716-1.606.187c-.44.31-.807.976-1.117 2.04l-.757 2.567 3.88 1.064zm9.59 9.044l-18.947-5.403 2.755-9.66c.52-1.786 1.1-3.126 1.678-3.98.595-.844 1.418-1.454 2.405-1.803 1.01-.333 2.136-.333 3.317 0 1.06.284 1.907.788 2.543 1.454.652.66 1.084 1.447 1.32 2.333.17.593.212 1.332.17 2.266l1.126-1.31 1.287-.64 1.41-.488 6.3-1.235-1.915 6.54-6.683 1.463c-.872.17-1.467.365-1.768.633l-.856 1.3-.186.512 7.74 2.194-1.694 5.824z" fill="#005499" fill-rule="evenodd"/><path d="M59.57 133.06l-7.39-.666 5.737 4.622 1.654-3.956zm4.418.382l-2.607 6.36 2.673 2.12-2.347 5.72-15.524-14.135 2.477-6.094 21.114.52-2.396 5.842-3.39-.333zM52.935 117.743l2.778-4.956 13.145-1.186-9.56-5.223 2.805-4.988 17.243 9.472-2.795 4.98-13.078 1.202 9.526 5.2-2.787 4.964-17.275-9.465zM82.555 93.518l4.572-3.177c1.002 1.204 1.63 2.447 1.972 3.617.292 1.21.292 2.437.03 3.623-.34 1.21-1.017 2.494-2.142 3.875-1.304 1.682-2.64 2.876-3.936 3.56-1.345.673-2.934.893-4.792.706-1.858-.178-3.74-1.03-5.655-2.51-2.567-1.998-4.026-4.176-4.344-6.613-.3-2.42.523-4.874 2.47-7.352 1.55-1.966 3.113-3.17 4.784-3.664 1.68-.495 3.56-.406 5.64.366l-2.397 4.915-1.418-.332-1.622.3-1.28 1.065c-.88 1.08-1.084 2.267-.652 3.51.27.95 1.15 1.942 2.51 3.022 1.77 1.357 3.187 1.99 4.222 1.958 1.018-.016 1.915-.487 2.664-1.446.726-.91 1.02-1.787.856-2.665-.14-.853-.62-1.78-1.483-2.754M79.58 79.336l11.563-11.43 2.974 2.948-7.228 7.158 2.24 2.202 6.69-6.63 2.853 2.795-6.748 6.677 2.77 2.706 7.45-7.377 3.145 3.128-11.776 11.634L79.58 79.336zM102.14 75.888l4.59-3.583 1.832 1.292c.987.293 1.94.13 2.902-.528l1.304-1.666-.26-1.544-1.32-.74c-.596-.08-1.672.228-3.23.846-2.533 1.03-4.538 1.478-6.037 1.324-1.556-.163-2.73-.878-3.61-2.13-.594-.844-.896-1.77-.896-2.818-.04-1.097.245-2.145.946-3.21.635-1.112 1.8-2.25 3.487-3.435 2.062-1.414 3.937-2.145 5.558-2.113 1.622 0 3.13.748 4.49 2.275l-4.49 3.54-1.93-.998-1.99.626-1.026 1.283.17 1.22.855.406c.367.065 1.076-.122 2.062-.57 2.535-1.055 4.41-1.648 5.697-1.835 1.263-.186 2.412-.064 3.308.342.954.4 1.712 1.04 2.34 1.942.74 1.016 1.09 2.153 1.18 3.43.01 1.266-.325 2.468-1.042 3.63-.718 1.146-1.842 2.283-3.423 3.38-2.755 1.877-5.028 2.69-6.82 2.388-1.818-.316-3.367-1.25-4.646-2.754M122.195 47.945l15.158-6.085 1.58 3.867-9.51 3.834 1.166 2.845 8.84-3.51 1.51 3.68-8.827 3.51 1.467 3.607 9.77-3.89 1.68 4.06-15.46 6.192-7.375-18.11zM144.312 53.353l5.51-1.836c.35.86.797 1.487 1.303 1.852.798.625 1.76.747 2.876.462.873-.21 1.468-.6 1.786-1.088l.326-1.576-1.01-1.12c-.522-.286-1.598-.383-3.277-.286-2.762.106-4.808-.18-6.16-.83-1.386-.648-2.266-1.73-2.657-3.2-.26-.942-.245-1.957.114-2.997.318-1 .994-1.86 2.037-2.69.953-.804 2.444-1.454 4.465-1.99 2.396-.626 4.376-.682 5.876-.114 1.55.546 2.698 1.764 3.49 3.682l-5.46 1.754c-.392-.804-.85-1.348-1.427-1.568-.57-.276-1.312-.292-2.127-.073l-1.418.837-.27 1.178.67.715c.35.154 1.058.22 2.167.154 2.73-.13 4.718-.066 5.965.22 1.296.26 2.265.722 3.04 1.453.684.666 1.23 1.544 1.5 2.55.325 1.244.292 2.422-.082 3.64-.416 1.203-1.158 2.227-2.25 3.088-1.1.838-2.51 1.496-4.35 1.983-3.294.878-5.64.837-7.246-.065-1.59-.885-2.73-2.283-3.39-4.135M169.667 42.732l1.507-.195c1.166-.146 1.972-.44 2.372-.918l.513-1.593-.79-1.503c-.458-.35-1.256-.47-2.397-.325l-1.736.178.53 4.354zm-7.098-7.54l10.07-1.218c2.193-.284 3.905.025 5.095.943 1.23.893 1.964 2.3 2.216 4.192.246 1.98-.162 3.582-1.205 4.816-1.076 1.252-2.82 2.023-5.24 2.308l-3.325.422.888 7.174-6.087.747-2.41-19.384zM194.64 44.645l-2.323-7.02-2.086 7.077 4.41-.057zm1.31 4.176l-6.942.13-.904 3.234-6.218.106 7.04-19.645 6.683-.13 7.757 19.41-6.364.12-1.052-3.224zM219.693 29.11l2.135.35-.098.6c-.17.968-.538 1.658-1.1 2.13-.587.454-1.288.657-2.07.503-.554-.106-1.377-.455-2.445-1.08l-1.4-.65-.637.12-.367.822-2.1-.34.105-.537c.154-.927.53-1.658 1.157-2.13l1.972-.543.905.25 1.376.79 1.564.73.628-.137.375-.878zm-12.762 2.91l5.616.892 5.664 11.79 1.67-10.668 5.72.918-3.08 19.303-5.728-.894-5.566-11.738-1.72 10.56-5.664-.868 3.09-19.295zM233.15 47.2c-.644 1.876-.71 3.322-.277 4.354.44 1.064 1.28 1.795 2.485 2.17 1.263.397 2.323.3 3.293-.26.938-.578 1.77-1.927 2.437-3.982.57-1.755.628-3.16.17-4.192-.43-1.048-1.246-1.747-2.484-2.13-1.174-.38-2.24-.275-3.203.294-.978.6-1.8 1.836-2.42 3.745m-5.794-1.91c.986-3.023 2.632-5.094 4.88-6.272 2.29-1.12 4.923-1.195 7.987-.228 3.09 1.016 5.224 2.624 6.406 4.85 1.148 2.186 1.18 4.778.25 7.76-.732 2.168-1.66 3.834-2.867 5.012-1.206 1.137-2.64 1.868-4.287 2.193-1.646.334-3.504.163-5.574-.51-2.168-.7-3.806-1.594-4.963-2.69-1.19-1.122-1.916-2.52-2.3-4.258-.406-1.706-.268-3.656.466-5.857M253.92 43.847l5.584 2.47-6.096 13.462 8.712 3.833-1.94 4.38-14.31-6.273 8.05-17.873zM280.008 57.323l5.134 3.282-10.716 16.362-5.118-3.298 10.7-16.347zM288.444 62.65l14.628 11.285-3 3.82-4.872-3.787-9.184 11.617-4.825-3.737 9.17-11.593-4.923-3.802 3.007-3.802zM304.616 93.085l3.577-6.426-6.576 3.322 3 3.103zm-2.21 3.86l-4.774-4.973-3.024 1.568-4.335-4.42 19.346-8.303 4.653 4.745-9.103 18.856-4.4-4.54 1.637-2.934zM321.2 93.59l3.594 4.898-12.02 8.652 5.566 7.612-3.936 2.828-9.176-12.504L321.2 93.59zM332.223 109.583l3.072 5.248-17.097 9.783-3.064-5.265 17.09-9.765zM331.467 134.12l5.484-4.924-7.35 1.04 1.867 3.883zm-3.366 2.948l-2.94-6.264-3.35.53-2.624-5.583 21.01-1.616 2.827 5.947-14.783 14.926-2.665-5.736 2.526-2.202zM347.105 139.8l1.72 5.37-8.1 10.35 10.43-3.363 1.72 5.435-18.76 6.028-1.752-5.41 8.035-10.286-10.366 3.347-1.744-5.4 18.817-6.07zM345.418 169.6c-1.972.382-3.276 1.032-3.977 1.918-.716.918-.92 1.982-.676 3.21.31 1.266.938 2.176 1.9 2.688.985.52 2.583.544 4.726.098 1.817-.4 3.097-1.04 3.765-1.942.676-.902.896-1.958.595-3.21-.228-1.17-.872-2.03-1.875-2.6-1.05-.527-2.518-.608-4.457-.162m-1.255-5.938c3.145-.667 5.835-.31 7.913 1.08 2.143 1.34 3.52 3.59 4.188 6.662.71 3.193.36 5.84-.994 7.946-1.336 2.047-3.57 3.452-6.666 4.086-2.29.47-4.205.47-5.86.05-1.548-.448-2.95-1.3-4.04-2.544-1.134-1.267-1.884-2.933-2.348-5.06-.44-2.18-.497-4.03-.098-5.575.375-1.576 1.263-2.965 2.55-4.15 1.337-1.18 3.09-2 5.355-2.495M294.182 306.233l-6.047-4.192 2.616 6.834 3.432-2.64zm3.65 2.56l-5.49 4.232 1.262 3.144-4.914 3.81-6.3-19.937 5.232-4.03 18.01 10.83-5.07 3.9-2.73-1.95zM89.144 280.508l4.108 4.484-14.677 13.09-4.083-4.494 14.652-13.08zM95.877 288.232l4.28 3.696-1.55 12.983 7.18-8.132 4.335 3.72-12.965 14.755-4.31-3.753 1.53-12.902-7.114 8.108-4.376-3.753 12.99-14.72zM115.447 318.395l2.127-3.477 8.084 4.802-4.327 7.15c-2.216.137-4.025.023-5.427-.31-1.418-.333-2.933-1-4.58-1.966-2.012-1.178-3.44-2.494-4.253-3.94-.92-1.438-1.272-3.006-1.133-4.785.122-1.74.7-3.478 1.744-5.24 1.093-1.82 2.503-3.17 4.043-4.055 1.59-.91 3.325-1.276 5.215-1.09 1.475.107 3.203.79 5.143 1.91 1.826 1.146 3.18 2.12 3.896 3.006.725.903 1.19 1.886 1.37 2.926.154 1.097.072 2.275-.262 3.526l-5.615-2.12c.187-.74.13-1.463-.14-2.08-.31-.61-.84-1.195-1.596-1.617-1.133-.69-2.323-.845-3.48-.447-1.157.374-2.225 1.405-3.284 3.136-1.1 1.795-1.508 3.29-1.33 4.452.23 1.202.963 2.17 2.17 2.9l1.808.772c.636.122 1.41.21 2.372.21l.994-1.583-3.537-2.08zM133.274 313.822l5.712 2.16-5.33 13.748 8.883 3.387-1.736 4.485-14.57-5.524 7.04-18.256zM150.225 320.197l15.77 4.224-1.077 3.99-9.91-2.608-.782 2.998 9.152 2.405-1.06 3.883-9.176-2.43-1.01 3.722 10.187 2.68-1.15 4.266-16.112-4.25 5.167-18.88zM166.698 337.678l5.82.334c.015.942.162 1.68.48 2.2.545.87 1.368 1.366 2.526 1.512.88.114 1.54-.008 2.094-.325l.823-1.35-.48-1.42c-.4-.44-1.393-.952-2.933-1.512-2.6-.91-4.352-1.917-5.412-3.03-1.018-1.138-1.434-2.446-1.238-3.94.122-1 .53-1.926 1.238-2.722.685-.837 1.647-1.39 2.885-1.788 1.206-.365 2.877-.406 4.914-.178 2.502.308 4.352 1.015 5.558 2.087 1.19 1.097 1.785 2.616 1.785 4.68l-5.77-.366c-.024-.884-.236-1.534-.71-2.013-.406-.48-1.042-.748-1.93-.83l-1.638.237-.653 1.007.31.878c.244.31.896.61 1.947.983 2.592.88 4.4 1.683 5.493 2.406 1.1.715 1.817 1.56 2.233 2.438.423.95.52 1.917.44 2.997-.155 1.22-.677 2.333-1.492 3.292-.823.967-1.89 1.665-3.202 2.015-1.345.398-2.926.47-4.857.276-3.31-.423-5.527-1.34-6.643-2.746-1.125-1.438-1.687-3.152-1.59-5.12M209.188 338.742l-2.56-6.93-1.75 7.14 4.31-.21zm1.507 4.135l-6.935.374-.807 3.275-6.193.317 6.348-19.88 6.642-.374 8.46 19.133-6.39.35-1.125-3.193zM218.825 325.585l6.022-1.024 2.592 14.47 9.362-1.616.84 4.736-15.394 2.673-3.423-19.238zM236.715 322.03l15.41-5.256 1.386 3.94-9.664 3.315 1.026 2.932 8.948-3.08 1.33 3.77-8.974 3.063 1.288 3.648 9.926-3.38 1.475 4.168-15.753 5.387-6.397-18.507zM255.425 315.905l7.082-3.745 8.37 9.026-2.878-11.902 7.024-3.72 9.29 17.255-4.392 2.323-7.074-13.17 3.667 14.95-3.976 2.103-10.49-11.374 7.082 13.17-4.44 2.315-9.267-17.232zM294.867 290.198l3.83-4.192 13.112 1.77-8.15-7.246 3.83-4.224 14.7 13.088-3.845 4.217-13.023-1.738 8.076 7.182-3.822 4.225-14.71-13.082z" fill="#005499" fill-rule="evenodd"/><path d="M139.712 148.194s-8.818.975-9.723 7.864c0 0 6.014-3.688 6.494 4.135l3.228-2.274 2.82 1.827 2.354-1.828 2.298 4.15s3.717-2.372 3.717-14.315c0 0-.92-2.778 7.922-.487 0 0 3.748 1.438 16.298-10.562l9.763-1.373s-5.093-7.4-13.48-6.49c0 0-6.054-2.292 5.567-9.198 0 0 7.01-9.23 4.67-22.56 0 0 11.164-11.52 5.1-16.607 0 0-1.392 6.483-9.77 6.483 0 0-4.156.92-6.04 7.816 0 0-7.463-.487-6.534 11.017 0 0-7 4.67-5.574 10.172 0 0-6.047 3.64-5.59 10.586 0 0-17.228-16.086-21.873-16.086 0 0-7.45-12.942-5.567-17.06 0 0-7.074-6.03-5.183 12.868 0 0-.864 8.766 4.254 11.545 0 0-9.283 5.476 4.62 10.115 0 0-1.9 7.4 8.842 12.9l2.33 4.145-.944 3.217zM253.92 148.104s8.803.974 9.7 7.84c0 0-6.03-3.68-6.47 4.15l-3.23-2.298-2.834 1.828-2.323-1.828-2.34 4.16s-3.73-2.373-3.73-14.316c0 0 .928-2.746-7.865-.454 0 0-3.798 1.413-16.332-10.595l-9.754-1.372s5.077-7.393 13.47-6.483c0 0 6.04-2.29-5.598-9.18 0 0-6.95-9.238-4.637-22.578 0 0-11.14-11.536-5.093-16.614 0 0 1.377 6.483 9.73 6.483 0 0 4.197.91 6.08 7.808 0 0 7.456-.48 6.52 11.05 0 0 6.99 4.646 5.614 10.146 0 0 6.038 3.648 5.59 10.594 0 0 17.17-16.094 21.824-16.094 0 0 7.473-12.934 5.615-17.07 0 0 7.024-5.995 5.126 12.902 0 0 .896 8.766-4.214 11.496 0 0 9.298 5.508-4.62 10.147 0 0 1.832 7.393-8.868 12.934l-2.298 4.134.937 3.21zM347.01 339.818h3.38c1.582 0 2.715-.252 3.277-.707.603-.48.897-1.112.897-1.876l-.457-1.39-1.165-.91c-.48-.17-1.418-.267-2.803-.267h-3.13v5.15zm-2.788 9.603v-17.077h5.917c2.01 0 3.495.163 4.424.496.888.29 1.597.844 2.118 1.656.57.764.807 1.61.807 2.462 0 1.25-.45 2.356-1.33 3.266-.887.918-2.07 1.454-3.585 1.568l1.483.893c.67.675 1.532 1.788 2.567 3.405l2.087 3.33h-3.382l-1.59-2.69c-1.18-2.12-2.143-3.443-2.86-3.988-.52-.39-1.27-.552-2.233-.552h-1.638v7.23h-2.788zm7.017-21.992c-2.226 0-4.443.577-6.594 1.722-2.12 1.113-3.773 2.77-4.987 4.883-1.19 2.12-1.802 4.322-1.802 6.613 0 2.29.61 4.47 1.76 6.59 1.206 2.095 2.844 3.712 5.003 4.882 2.088 1.202 4.33 1.755 6.62 1.755 2.297 0 4.522-.553 6.673-1.755 2.11-1.17 3.75-2.787 4.947-4.883 1.18-2.12 1.735-4.298 1.735-6.59 0-2.29-.594-4.49-1.792-6.612-1.174-2.112-2.828-3.77-4.988-4.883-2.143-1.145-4.32-1.722-6.576-1.722m0-2.665c2.696 0 5.32.69 7.88 2.072 2.542 1.39 4.58 3.323 5.98 5.874 1.42 2.534 2.168 5.206 2.168 7.936 0 2.73-.733 5.37-2.143 7.89-1.402 2.517-3.317 4.484-5.94 5.897-2.503 1.365-5.127 2.104-7.946 2.104-2.756 0-5.453-.74-7.98-2.104-2.542-1.413-4.514-3.38-5.94-5.898-1.37-2.52-2.12-5.16-2.12-7.89 0-2.73.75-5.4 2.152-7.936 1.46-2.552 3.43-4.486 5.998-5.875 2.56-1.38 5.2-2.072 7.89-2.072" fill="#fff" fill-rule="evenodd"/></svg>