<svg xmlns="http://www.w3.org/2000/svg" width="744.715" height="166.667" viewBox="0 0 744.715 166.667"><g fill="#666"><path d="M94.578 75.083c-3.163-1.308-9.184-1.97-18.063-1.97H59.91c-9.677 0-15.916.76-18.72 2.262-2.82 1.5-4.225 4.43-4.225 8.795 0 5.083 1.313 8.407 3.955 10.005 2.635 1.58 8.96 2.373 18.99 2.373h16.605c9.013 0 15.062-.643 18.164-1.935 3.1-1.29 4.64-3.566 4.64-6.83v-5.84c0-3.253-1.576-5.547-4.742-6.86z"/><path d="M127.35 33.606L40.183 8.646c-5.164-1.48-10.61 1.536-12.083 6.706l-23.084 80.6c-1.484 5.17 1.537 10.61 6.707 12.09l87.156 24.964c5.17 1.487 10.615-1.538 12.09-6.704l23.088-80.6c1.48-5.174-1.54-10.612-6.71-12.096zM110.53 105.5h-10.55v-8.82c-1.803 3.51-4.507 6.02-8.105 7.496-3.604 1.474-9.06 2.215-16.35 2.215H57.074c-11.862 0-20.19-1.598-24.985-4.82-4.794-3.216-7.188-8.843-7.188-16.894 0-7.577 2.386-12.915 7.15-16 4.775-3.095 13.02-4.642 24.755-4.642H76.25c5.8 0 10.613.637 14.44 1.905 3.815 1.272 6.917 3.286 9.29 6.033v-9.135c0-5.68-1.576-9.604-4.71-11.78-3.14-2.184-9.04-3.277-17.7-3.277H61.09c-8.48 0-13.906.613-16.28 1.838-2.37 1.224-3.558 3.65-3.558 7.25v1.957H29.646v-1.84c0-6.767 2.33-11.668 6.99-14.692 4.662-3.032 12.243-4.55 22.742-4.55h19.974c10.726 0 18.6 1.98 23.632 5.948 5.028 3.953 7.547 10.163 7.547 18.643V105.5zM216.786 61.812c-.094-5.584-1.498-9.364-4.216-11.337-2.73-1.97-8.793-2.945-18.203-2.945H178.16c-8.133 0-13.925 1.17-17.375 3.527-3.448 2.345-5.176 6.177-5.176 11.52V78.07c0 7.03 1.585 11.873 4.753 14.507 3.157 2.657 9.175 3.972 18.057 3.972h16.486c8.697 0 14.65-1.13 17.86-3.39 3.204-2.27 4.808-6.3 4.808-12.104v-.765h10.422v1.78c0 8.507-2.432 14.688-7.296 18.54-4.85 3.854-12.59 5.78-23.23 5.78h-19.838c-11.21 0-19.523-2.112-24.952-6.336-5.43-4.242-8.14-10.74-8.14-19.507V63.65c0-8.8 2.7-15.315 8.11-19.554 5.397-4.24 13.733-6.354 24.98-6.354h16.483c11.81 0 20.247 1.74 25.312 5.206 5.047 3.48 7.578 9.192 7.578 17.15v1.713h-10.217zM340.584 61.812c-.094-5.584-1.5-9.364-4.226-11.337-2.72-1.97-8.788-2.945-18.185-2.945H301.96c-8.136 0-13.93 1.17-17.384 3.527-3.442 2.345-5.165 6.177-5.165 11.52V78.07c0 7.03 1.582 11.873 4.746 14.507 3.165 2.657 9.18 3.972 18.06 3.972h16.476c8.702 0 14.66-1.13 17.874-3.39 3.202-2.27 4.813-6.3 4.813-12.104v-.765h10.408v1.78c0 8.507-2.428 14.688-7.282 18.54-4.855 3.854-12.598 5.78-23.24 5.78h-19.84c-11.207 0-19.526-2.112-24.95-6.336-5.43-4.242-8.14-10.74-8.14-19.507V63.65c0-8.8 2.7-15.315 8.104-19.554 5.41-4.24 13.738-6.354 24.987-6.354h16.48c11.824 0 20.255 1.74 25.314 5.206 5.046 3.48 7.575 9.192 7.575 17.15v1.713h-10.21zM443.915 37.743c13.056 0 22.14 2.333 27.266 6.99 5.114 4.655 7.67 12.827 7.67 24.512 0 1.405-.008 2.457-.02 3.172-.027.724-.056 1.376-.103 1.973l-75.883.065v3.615c0 7.074 1.785 12.003 5.354 14.796 3.55 2.797 9.75 4.19 18.575 4.19h18.072c7.688 0 13.366-.913 17.033-2.764 3.678-1.837 5.503-4.686 5.503-8.54v-.692h11.468v1.716c0 6.43-2.667 11.317-8.005 14.64-5.334 3.325-13.145 4.976-23.436 4.976H426.65c-12.486 0-21.41-2.215-26.796-6.662-5.39-4.452-8.08-11.837-8.08-22.167V66.898c0-10.507 2.675-17.99 8.003-22.452 5.346-4.464 14.3-6.703 26.872-6.703h17.265zm-41.07 27.05h64.402v-1.58c0-5.98-1.576-10.077-4.732-12.322-3.17-2.235-9.456-3.36-18.864-3.36h-17.197c-8.748 0-14.86 1.296-18.356 3.896-3.498 2.605-5.253 7.065-5.253 13.366zM570.81 106.39H552.35c-11.953 0-20.474-2.246-25.573-6.754-5.097-4.513-7.65-12.105-7.65-22.77v-10.48c0-10.246 2.584-17.584 7.75-22 5.16-4.43 13.654-6.644 25.473-6.644h21.298c5.18 0 9.51.75 12.978 2.25 3.48 1.51 6.396 3.876 8.774 7.09V10.945h10.676V105.5h-9.625V94.59c-1.886 4.28-4.713 7.307-8.46 9.102-3.77 1.803-9.49 2.7-17.184 2.7zm-.26-9.84c10.056 0 16.743-1.413 20.034-4.262 3.297-2.834 4.944-8.345 4.944-16.57v-7.934c0-7.964-1.657-13.33-4.972-16.103-3.322-2.773-9.993-4.152-20.007-4.152H555.06c-10.023 0-16.69 1.38-20.014 4.153-3.317 2.775-4.975 8.14-4.975 16.104v7.934c0 8.225 1.646 13.736 4.94 16.57 3.295 2.85 9.98 4.26 20.048 4.26h15.49zM680.73 106.39c-11.954 0-20.478-2.246-25.57-6.754-5.104-4.513-7.647-12.105-7.647-22.77v-10.48c0-10.246 2.578-17.584 7.744-22 5.167-4.43 13.652-6.644 25.475-6.644h23.865c11.825 0 20.313 2.212 25.473 6.643 5.16 4.416 7.748 11.755 7.748 22v10.48c0 10.665-2.543 18.258-7.646 22.77-5.098 4.51-13.627 6.756-25.575 6.756H680.73zm2.838-9.84h18.056c10.11 0 16.828-1.413 20.147-4.262 3.314-2.834 4.975-8.345 4.975-16.57v-7.934c0-7.964-1.67-13.33-5.01-16.103s-10.036-4.152-20.11-4.152h-18.057c-10.023 0-16.688 1.38-20.014 4.153-3.308 2.775-4.975 8.14-4.975 16.104v7.934c0 8.225 1.65 13.736 4.955 16.57 3.288 2.85 9.964 4.26 20.033 4.26z"/></g><g fill="#C2D840"><path d="M268.515 135.64h3.12v2.573h.078c.426-1.562 2.26-3.118 4.523-3.118 4.95 0 6.823 4.405 6.823 10.605 0 4.756-1.403 11.39-6.824 11.39-1.873 0-3.627-1.133-4.37-2.928h-.076v9.244h-3.275V135.64zm7.293 18.638c3.04 0 3.82-3.198 3.82-8.578 0-4.605-.78-7.8-3.82-7.8-3.627 0-4.212 3.432-4.212 8.188 0 4.06.7 8.19 4.212 8.19zM287.217 135.64h3.275v3.114h.08c.934-1.98 2.184-3.66 4.523-3.66.662 0 1.132.075 1.445.233v3.194c-.313-.037-.704-.153-1.76-.153-1.634 0-4.288 1.482-4.288 4.956v13.217h-3.275v-20.9zM301.838 146.48c0 3.196 0 8.03 4.017 8.03 3.12 0 3.548-3.276 3.548-4.834h3.276c0 2.225-1.327 7.413-7.02 7.413-5.11 0-7.255-3.554-7.255-10.73 0-5.225 1.017-11.267 7.45-11.267 6.396 0 6.98 5.575 6.98 10.06v1.325h-10.997zm7.565-2.575v-1.133c0-2.34-.74-5.11-3.625-5.11-3.433 0-3.822 4.216-3.822 5.465v.778h7.447zM316.414 137.994h-3.042v-2.578h3.042v-2.457c0-3.157 1.36-4.793 4.522-4.793h2.377v2.807h-1.52c-1.404 0-2.107.545-2.107 1.985v2.456h3.59v2.578h-3.59v18.326h-3.272v-18.326zM329.81 146.48c0 3.196 0 8.03 4.017 8.03 3.116 0 3.547-3.276 3.547-4.834h3.277c0 2.225-1.326 7.413-7.022 7.413-5.107 0-7.252-3.554-7.252-10.73 0-5.225 1.014-11.267 7.45-11.267 6.396 0 6.98 5.575 6.98 10.06v1.325H329.81zm7.564-2.575v-1.133c0-2.34-.74-5.11-3.627-5.11-3.43 0-3.823 4.216-3.823 5.465v.778h7.45zM344.363 135.64h3.276v3.114h.078c.934-1.98 2.184-3.66 4.523-3.66.662 0 1.132.075 1.445.233v3.194c-.313-.037-.703-.153-1.758-.153-1.636 0-4.29 1.482-4.29 4.956v13.217h-3.275v-20.9zM356.824 135.64h3.275v3.114h.076c.938-1.98 2.185-3.66 4.523-3.66.66 0 1.13.075 1.443.233v3.194c-.314-.037-.703-.153-1.76-.153-1.634 0-4.285 1.482-4.285 4.956v13.217h-3.275v-20.9zM371.537 146.48c0 3.196 0 8.03 4.017 8.03 3.116 0 3.548-3.276 3.548-4.834h3.277c0 2.225-1.327 7.413-7.024 7.413-5.107 0-7.25-3.554-7.25-10.73 0-5.225 1.013-11.267 7.45-11.267 6.395 0 6.98 5.575 6.98 10.06v1.325h-11zm7.564-2.575v-1.133c0-2.34-.74-5.11-3.626-5.11-3.432 0-3.823 4.216-3.823 5.465v.778h7.45zM400.33 156.54h-3.122v-2.574h-.074c-.43 1.558-2.264 3.124-4.526 3.124-4.95 0-6.823-4.41-6.823-11.002 0-4.364.704-10.993 6.592-10.993 1.87 0 3.858 1.128 4.6 2.923h.08v-9.324h3.274v27.846zm-7.292-2.262c3.627 0 4.212-3.43 4.212-8.19 0-4.052-.7-8.187-4.212-8.187-3.042 0-3.822 3.194-3.822 8.188 0 4.992.78 8.19 3.822 8.19zM434.545 135.64h3.124v2.457h.076c.86-1.916 3.04-3.002 5.07-3.002 5.496 0 5.496 4.168 5.496 6.63v14.815h-3.273v-14.43c0-1.6-.12-4.21-3.085-4.21-1.75 0-4.13 1.17-4.13 4.21v14.43h-3.28v-20.9zM456.43 146.48c0 3.196 0 8.03 4.016 8.03 3.12 0 3.55-3.276 3.55-4.834h3.275c0 2.225-1.326 7.413-7.018 7.413-5.11 0-7.257-3.554-7.257-10.73 0-5.225 1.02-11.267 7.45-11.267 6.398 0 6.98 5.575 6.98 10.06v1.325H456.43zm7.566-2.575v-1.133c0-2.34-.74-5.11-3.625-5.11-3.43 0-3.82 4.216-3.82 5.465v.778h7.446zM469.888 141.952c0-4.755 2.025-6.857 7.02-6.857 6.355 0 6.355 3.822 6.355 6v11.664c0 .856 0 1.678 1.012 1.678.432 0 .625-.08.783-.196v2.34c-.235.038-1.093.196-1.913.196-1.245 0-2.807 0-2.965-2.694h-.077c-1.052 1.874-3.08 3.007-5.028 3.007-3.897 0-5.694-2.344-5.694-6.088 0-2.923 1.248-4.95 3.94-5.77l4.405-1.325c2.378-.74 2.378-1.403 2.378-3.156 0-1.952-1.168-3.085-3.353-3.085-3.59 0-3.59 3.356-3.59 4.098v.19h-3.272zm10.098 3.203c-1.205 1.286-4.093 1.557-5.575 2.457-1.053.66-1.596 1.482-1.596 3.314 0 2.103.74 3.585 2.963 3.585 2.142 0 4.21-1.83 4.21-3.976v-5.38zM488.335 135.64h3.277v3.114h.077c.937-1.98 2.184-3.66 4.52-3.66.665 0 1.134.075 1.443.233v3.194c-.31-.037-.703-.153-1.753-.153-1.64 0-4.29 1.482-4.29 4.956v13.217h-3.276v-20.9zM509.786 141.76c0-2.65-.7-4.097-3.08-4.097-1.055 0-3.394.28-3.394 3.203 0 2.457 2.57 2.923 5.147 3.78 2.535.858 5.108 1.753 5.108 5.89 0 4.404-2.846 6.554-6.748 6.554-7.096 0-7.175-5.27-7.175-7.413h3.277c0 2.536.7 4.835 3.897 4.835 1.055 0 3.47-.508 3.47-3.47 0-2.81-2.573-3.393-5.104-4.25-2.536-.858-5.15-1.6-5.15-5.926 0-3.897 3.04-5.77 6.67-5.77 6.084 0 6.32 4.21 6.356 6.665h-3.276zM516.69 128.693h3.28v9.324h.074c.857-1.716 3.158-2.923 5.032-2.923 5.378 0 5.378 4.168 5.378 6.63v14.815h-3.27v-14.43c0-1.6-.12-4.21-3.082-4.21-1.756 0-4.134 1.17-4.134 4.21v14.43h-3.28v-27.847zM543.083 135.095c6.047 0 7.527 5.104 7.527 10.993 0 5.888-1.52 11.002-7.527 11.002-6.044 0-7.52-5.114-7.52-11.002 0-5.89 1.517-10.993 7.52-10.993zm4.096 10.993c0-4.522-.663-8.425-4.173-8.425-3.315 0-4.02 3.902-4.02 8.425 0 4.526.667 8.424 4.02 8.424 3.473 0 4.172-3.898 4.172-8.424zM555.035 135.64h3.277v3.114h.077c.934-1.98 2.186-3.66 4.523-3.66.662 0 1.13.075 1.44.233v3.194c-.31-.037-.704-.153-1.753-.153-1.636 0-4.29 1.482-4.29 4.956v13.217h-3.276v-20.9zM569.31 146.48c0 3.196 0 8.03 4.017 8.03 3.118 0 3.547-3.276 3.547-4.834h3.275c0 2.225-1.325 7.413-7.02 7.413-5.104 0-7.252-3.554-7.252-10.73 0-5.225 1.015-11.267 7.448-11.267 6.396 0 6.98 5.575 6.98 10.06v1.325H569.31zm7.564-2.575v-1.133c0-2.34-.738-5.11-3.627-5.11-3.43 0-3.82 4.216-3.82 5.465v.778h7.447zM597.843 141.715c2.16 0 3.923 1.762 3.923 3.925 0 2.16-1.762 3.92-3.923 3.92-2.158 0-3.92-1.76-3.92-3.92 0-2.163 1.762-3.925 3.92-3.925zM416.728 141.715c2.158 0 3.92 1.762 3.92 3.925 0 2.16-1.762 3.92-3.92 3.92-2.16 0-3.926-1.76-3.926-3.92 0-2.163 1.765-3.925 3.926-3.925zM625.314 141.76c0-2.65-.7-4.097-3.08-4.097-1.055 0-3.393.28-3.393 3.203 0 2.457 2.574 2.923 5.147 3.78 2.536.858 5.11 1.753 5.11 5.89 0 4.404-2.847 6.554-6.746 6.554-7.1 0-7.177-5.27-7.177-7.413h3.277c0 2.536.7 4.835 3.9 4.835 1.053 0 3.468-.508 3.468-3.47 0-2.81-2.573-3.393-5.104-4.25-2.538-.858-5.15-1.6-5.15-5.926 0-3.897 3.04-5.77 6.67-5.77 6.084 0 6.314 4.21 6.354 6.665h-3.274zM635.727 146.48c0 3.196 0 8.03 4.02 8.03 3.12 0 3.55-3.276 3.55-4.834h3.274c0 2.225-1.323 7.413-7.018 7.413-5.11 0-7.252-3.554-7.252-10.73 0-5.225 1.012-11.267 7.445-11.267 6.394 0 6.98 5.575 6.98 10.06v1.325h-10.998zm7.568-2.575v-1.133c0-2.34-.74-5.11-3.625-5.11-3.433 0-3.824 4.216-3.824 5.465v.778h7.45zM650.652 135.64h3.277v3.114h.08c.934-1.98 2.18-3.66 4.52-3.66.666 0 1.132.075 1.444.233v3.194c-.313-.037-.702-.153-1.753-.153-1.638 0-4.29 1.482-4.29 4.956v13.217h-3.278v-20.9zM662.06 135.64h3.587l3.898 16.77h.076l3.9-16.77h3.59l-5.654 20.9h-3.744l-5.652-20.9zM681.092 128.693h3.275v3.748h-3.275v-3.747zm0 6.947h3.275v20.9h-3.275v-20.9zM700.048 141.994c0-2.028-.818-4.33-3.314-4.33-2.026 0-4.094 1.016-4.094 8.66 0 2.73.037 8.188 3.975 8.188 2.81 0 3.434-2.965 3.434-5.227h3.274c0 3.315-1.642 7.805-6.865 7.805-5.108 0-7.253-3.553-7.253-10.728 0-5.226 1.015-11.268 7.45-11.268 5.69 0 6.667 4.484 6.667 6.9h-3.276zM709.603 146.48c0 3.196 0 8.03 4.017 8.03 3.12 0 3.55-3.276 3.55-4.834h3.275c0 2.225-1.327 7.413-7.02 7.413-5.106 0-7.25-3.554-7.25-10.73 0-5.225 1.013-11.267 7.444-11.267 6.397 0 6.98 5.575 6.98 10.06v1.325h-10.997zm7.566-2.575v-1.133c0-2.34-.74-5.11-3.628-5.11-3.43 0-3.82 4.216-3.82 5.465v.778h7.447zM733.32 141.76c0-2.65-.703-4.097-3.083-4.097-1.05 0-3.394.28-3.394 3.203 0 2.457 2.575 2.923 5.15 3.78 2.532.858 5.108 1.753 5.108 5.89 0 4.404-2.848 6.554-6.745 6.554-7.1 0-7.178-5.27-7.178-7.413h3.278c0 2.536.7 4.835 3.9 4.835 1.05 0 3.47-.508 3.47-3.47 0-2.81-2.576-3.393-5.11-4.25-2.535-.858-5.148-1.6-5.148-5.926 0-3.897 3.042-5.77 6.67-5.77 6.083 0 6.318 4.21 6.355 6.665h-3.273z"/></g></svg>