<svg xmlns="http://www.w3.org/2000/svg" width="338.831" height="400"><path d="M42.915 187.82L167.54 0l124.626 187.82H42.916zM42.915 229.914h249.25V187.82H42.916v42.094z" fill="#8894c9"/><path d="M42.915 229.914L167.54 42.094l124.626 187.82H42.916z" fill="#2a5aa3"/><path d="M74.64 230.22l94.788-143.56 94.79 143.56H74.64zM74.64 262.394h189.58V230.22H74.64v32.174z" fill="#fee697"/><path d="M74.64 262.393l94.788-143.56 94.79 143.56H74.64z" fill="#fed529"/><path d="M107.504 262.535l61.74-91.51 61.74 91.51h-123.48zM107.505 283.044h123.48v-20.508h-123.48v20.508z" fill="#8894c9"/><path d="M107.504 283.044l61.74-91.51 61.74 91.51h-123.48zM40.144 330.61l-8.626-18.623-8.764 18.624h17.39zm3.34 7.163H19.31l-3.58 7.354c-.495 1.022-.74 1.826-.74 2.414 0 1.125.866 1.903 2.603 2.336v1.225H0v-1.224c1.038-.204 1.83-.562 2.376-1.072.546-.51 1.17-1.506 1.87-2.988l19.563-40.178c.623-1.276.935-2.298.935-3.065 0-1.174-.754-2.017-2.26-2.527v-1.226h18.86v1.226c-1.533.435-2.3 1.187-2.3 2.26 0 .74.25 1.583.74 2.528l20.265 40.293c.858 1.71 1.61 2.88 2.26 3.504.65.627 1.52 1.042 2.61 1.246v1.225H45.34v-1.224c1.72-.28 2.58-1.072 2.58-2.375 0-.535-.26-1.326-.78-2.373l-3.656-7.354zM83.548 328.236v18.845c0 .793.19 1.4.567 1.82.376.42 1.018.746 1.927.976v1.227h-16.6v-1.227c.935-.254 1.584-.586 1.95-.996.36-.408.544-1.007.544-1.8v-44.238c0-.79-.183-1.392-.545-1.8-.364-.408-1.013-.74-1.948-.997v-1.225h47.075c.778 0 1.376-.175 1.792-.527.414-.352.752-.994 1.012-1.925h1.247v13.52h-1.248c-.26-.933-.598-1.575-1.013-1.924-.417-.35-1.015-.526-1.793-.526h-32.97v12.486h21.55c.806 0 1.418-.18 1.833-.545.414-.365.754-1 1.012-1.908h1.248v13.216h-1.248c-.258-.908-.598-1.544-1.012-1.907-.415-.36-1.027-.544-1.832-.544h-21.55zM130 347.08v-44.277c0-.766-.184-1.353-.546-1.76-.364-.41-1.014-.74-1.95-.997v-1.226h16.6v1.226c-.934.23-1.583.555-1.947.976-.364.422-.546 1.015-.546 1.78v44.28c0 .79.19 1.396.568 1.817.376.42 1.018.747 1.927.977v1.225h-16.6v-1.225c.935-.255 1.585-.588 1.95-.997.36-.408.544-1.008.544-1.8M166.786 315.29v31.79c0 .792.18 1.393.545 1.8.365.41 1.015.742 1.95.996v1.227h-15.626v-1.227c.935-.254 1.583-.587 1.948-.995.363-.407.546-1.008.546-1.8v-44.276c0-.766-.183-1.353-.546-1.763-.365-.407-1.013-.74-1.948-.994v-1.226h18.08v1.226c-1.117.28-1.675.868-1.675 1.763 0 .61.362 1.287 1.09 2.027l29.343 29.99v-31.023c0-.766-.18-1.353-.545-1.763-.364-.407-1.014-.74-1.95-.994v-1.226h15.627v1.226c-.935.255-1.583.587-1.947.995-.364.41-.547.998-.547 1.764v44.276c0 .792.184 1.393.548 1.8.364.41 1.012.742 1.947.996v1.227H196.87v-1.227c1.09-.23 1.637-.778 1.637-1.646 0-.51-.638-1.405-1.91-2.682l-29.81-30.258zM272.702 303.248l-6.352 12.31-1.09-.613c.025-.255.038-.46.038-.613 0-.868-.753-1.8-2.26-2.795-4.624-3.166-10.054-4.75-16.29-4.75-2.753 0-5.182.33-7.286.994-1.534.512-2.774 1.278-3.72 2.298-.95 1.02-1.424 2.13-1.424 3.328 0 1.963 1.208 3.303 3.624 4.018 1.246.356 3.922.74 8.028 1.148l6.118.612c3.637.382 6.58.905 8.827 1.568 2.246.665 4.24 1.597 5.98 2.795 1.768 1.25 3.164 2.896 4.19 4.936 1.025 2.043 1.54 4.223 1.54 6.546 0 3.673-1.208 6.94-3.625 9.796-2.182 2.603-5.572 4.53-10.17 5.78-3.43.944-7.106 1.415-11.028 1.415-7.04 0-13.99-1.66-20.85-4.978-1.455-.663-2.325-.996-2.61-.996-.337 0-.87.28-1.597.843l-1.13-.576 5.767-12.83 1.13.536v.497c0 1.15.558 2.21 1.676 3.18 1.69 1.48 4.3 2.757 7.833 3.83 3.532 1.072 6.885 1.608 10.054 1.608 3.455 0 6.404-.574 8.846-1.72 1.35-.636 2.43-1.484 3.235-2.54.805-1.06 1.208-2.16 1.208-3.308 0-1.733-.95-2.97-2.846-3.71-1.325-.508-4-.98-8.028-1.414l-6-.61c-4.028-.41-6.873-.8-8.536-1.17-1.662-.37-3.325-.964-4.987-1.782-2.364-1.15-4.222-2.874-5.573-5.175-1.222-2.07-1.83-4.446-1.83-7.13 0-4.42 1.545-8.075 4.636-10.962 4.053-3.808 10.132-5.713 18.238-5.713 3.402 0 6.57.342 9.508 1.02 2.935.68 6.6 1.93 10.99 3.75 1.505.59 2.428.886 2.766.886.545 0 1.18-.296 1.91-.885l1.09.578zM314.055 330.61l-8.626-18.623-8.766 18.624h17.39zm3.34 7.163H293.22l-3.58 7.354c-.494 1.022-.74 1.826-.74 2.414 0 1.125.867 1.903 2.604 2.336v1.225H273.91v-1.224c1.04-.204 1.832-.562 2.377-1.072.545-.51 1.17-1.506 1.87-2.988l19.563-40.178c.624-1.276.935-2.298.935-3.065 0-1.174-.753-2.017-2.26-2.527v-1.226h18.86v1.226c-1.532.435-2.298 1.187-2.298 2.26 0 .74.248 1.583.74 2.528l20.264 40.293c.86 1.71 1.61 2.88 2.26 3.504.65.627 1.52 1.042 2.61 1.246v1.225h-19.58v-1.224c1.72-.28 2.58-1.072 2.58-2.375 0-.535-.26-1.326-.78-2.373l-3.655-7.354zM25.61 386.088v11.022c0 .463.11.817.332 1.063.22.248.595.438 1.127.57v.72h-9.71v-.72c.546-.147.927-.342 1.14-.58.213-.24.32-.59.32-1.053v-25.875c0-.462-.107-.813-.32-1.05-.213-.242-.594-.435-1.14-.585v-.717h27.533c.455 0 .805-.103 1.048-.308.244-.206.442-.582.593-1.126h.73v7.908h-.73c-.15-.546-.35-.922-.592-1.127-.242-.203-.592-.306-1.047-.306H25.61v7.302h12.604c.472 0 .828-.105 1.07-.318.244-.213.442-.585.593-1.115h.73v7.728h-.73c-.15-.53-.35-.9-.592-1.114-.243-.213-.6-.318-1.07-.318H25.61zM68.12 387.477l-5.045-10.892-5.125 10.892h10.17zm1.954 4.19H55.936l-2.095 4.3c-.288.598-.43 1.068-.43 1.412 0 .656.506 1.11 1.523 1.365v.717h-10.29v-.717c.607-.12 1.07-.328 1.39-.627.318-.3.683-.883 1.093-1.748l11.44-23.498c.366-.748.548-1.345.548-1.794 0-.687-.44-1.18-1.32-1.477v-.717h11.03v.718c-.896.255-1.345.694-1.345 1.323 0 .432.142.924.432 1.477l11.852 23.567c.5 1 .942 1.684 1.32 2.05.38.367.89.608 1.53.728v.717H71.16v-.717c1.005-.164 1.508-.627 1.508-1.39 0-.313-.15-.775-.456-1.388l-2.138-4.3zM113.06 388.956l4.333 6.373-.593.402c-.426-.388-.776-.583-1.05-.583-.27 0-1.04.36-2.3 1.076-2.615 1.482-4.813 2.482-6.6 3-1.784.516-3.908.774-6.37.774-4.907 0-8.933-1.144-12.08-3.428-1.852-1.33-3.31-2.98-4.375-4.95-1.23-2.256-1.846-4.742-1.846-7.46 0-3.704 1.1-6.923 3.304-9.656 3.313-4.107 8.318-6.16 15.02-6.16 2.46 0 4.572.253 6.335.76 1.762.51 3.965 1.51 6.61 3.003 1.26.7 2.03 1.052 2.3 1.052.274 0 .624-.194 1.05-.582l.593.403-4.332 6.384-.613-.4c.03-.24.045-.44.045-.604 0-.43-.19-.836-.57-1.216-.38-.38-1.056-.837-2.028-1.373-2.69-1.487-5.538-2.232-8.546-2.232-3.556 0-6.39.873-8.502 2.62-2.493 2.044-3.738 4.713-3.738 8.01 0 3.3 1.245 5.968 3.738 8.012 2.112 1.745 4.946 2.618 8.502 2.618 3.008 0 5.857-.746 8.546-2.24.972-.538 1.648-.996 2.028-1.378.38-.38.57-.787.57-1.22 0-.164-.015-.36-.045-.582l.614-.426zM138.406 373.923v23.186c0 .463.106.813.32 1.052.212.24.593.434 1.138.583v.716h-9.707v-.715c.545-.15.926-.343 1.137-.583.215-.24.32-.59.32-1.053v-23.187h-9.663c-.455 0-.804.103-1.048.31-.243.203-.44.58-.592 1.124h-.73v-7.908h.73c.166.544.37.92.603 1.124.236.207.582.31 1.038.31h26.097c.47 0 .828-.103 1.07-.31.243-.205.44-.58.594-1.125h.73v7.907h-.73c-.152-.545-.35-.92-.592-1.125-.243-.206-.6-.31-1.07-.31h-9.642zM170.35 373.543c-2.966 0-5.44.866-7.417 2.595-2.34 2.044-3.512 4.723-3.512 8.035 0 3.312 1.172 5.99 3.513 8.033 1.978 1.73 4.464 2.596 7.462 2.596 2.997 0 5.476-.865 7.438-2.596 1.17-1.03 2.068-2.29 2.692-3.782.547-1.327.82-2.7.82-4.118 0-3.46-1.17-6.183-3.512-8.168-1.993-1.7-4.488-2.565-7.484-2.595m-.023-5.197c5.427 0 9.73 1.44 12.908 4.324 3.36 3.017 5.04 6.914 5.04 11.694 0 2.926-.805 5.66-2.417 8.198-3.147 4.958-8.31 7.437-15.486 7.437-5.383 0-9.662-1.442-12.84-4.324-1.703-1.538-2.995-3.383-3.877-5.534-.775-1.896-1.163-3.89-1.163-5.98 0-3.063.8-5.862 2.394-8.4 3.056-4.855 8.203-7.327 15.44-7.416M201.403 381.944h10.484c1.55 0 2.643-.046 3.282-.135.637-.09 1.22-.277 1.753-.56 1.156-.613 1.733-1.72 1.733-3.316 0-1.598-.577-2.704-1.733-3.315-.547-.3-1.128-.49-1.743-.574-.615-.082-1.713-.122-3.293-.122h-10.484v8.02zm0 5.04v10.148c0 .45.11.796.33 1.042.22.246.596.437 1.127.57v.717h-9.707v-.715c.545-.15.926-.343 1.137-.583.215-.24.32-.58.32-1.03v-25.896c0-.464-.105-.814-.32-1.053-.21-.238-.592-.433-1.137-.583v-.717h19.463c2.37 0 4.25.134 5.64.404 1.39.268 2.602.74 3.636 1.41 1.2.778 2.097 1.83 2.69 3.16.562 1.284.843 2.657.843 4.12 0 4.99-2.82 7.91-8.455 8.76l6.04 8.446c1.062 1.48 1.84 2.43 2.335 2.857.494.426 1.098.66 1.81.705v.716h-11.238v-.715c.774-.12 1.16-.388 1.16-.806 0-.27-.356-.92-1.07-1.95l-6.3-9.007h-8.304zM232.353 397.11v-25.896c0-.45-.105-.792-.318-1.03-.213-.24-.594-.434-1.14-.584v-.717h9.708v.717c-.545.135-.926.325-1.14.57-.212.248-.318.595-.318 1.044v25.895c0 .463.11.818.33 1.064.22.247.596.437 1.128.57v.717h-9.707v-.715c.545-.15.926-.344 1.14-.583.212-.238.317-.59.317-1.053M253.868 378.516v18.593c0 .463.106.813.32 1.052.212.24.593.434 1.14.583v.716h-9.14v-.715c.547-.15.926-.343 1.14-.583.212-.24.318-.59.318-1.053v-25.897c0-.448-.106-.79-.32-1.03-.212-.238-.59-.433-1.138-.583v-.716h10.575v.716c-.653.165-.98.51-.98 1.03 0 .36.212.756.638 1.188l17.164 17.54v-18.145c0-.448-.107-.79-.32-1.03-.213-.238-.592-.433-1.14-.583v-.716h9.14v.716c-.547.15-.927.345-1.14.583-.212.24-.32.582-.32 1.03v25.896c0 .463.108.813.32 1.052.213.24.593.434 1.14.583v.716h-9.8v-.715c.638-.134.957-.456.957-.964 0-.298-.37-.82-1.116-1.567l-17.436-17.697zM314.357 388.462h-7.68c-.47 0-.825.104-1.06.314-.236.21-.43.582-.58 1.12h-.73v-7.124h.73c.15.554.344.93.578 1.13.236.203.59.305 1.06.305h14.748v.716c-.538.15-.917.344-1.133.583-.218.24-.325.59-.325 1.053v6.27c0 .463.104.815.313 1.054.21.24.592.432 1.145.583v.56c-5.907 3.315-11.63 4.972-17.173 4.972-5.028 0-9.126-1.173-12.3-3.518-3.994-2.956-5.99-7.064-5.99-12.32 0-4.898 1.777-8.797 5.333-11.695 3.373-2.748 7.855-4.12 13.446-4.12 1.777 0 3.452.16 5.025.48 1.573.32 3.363.862 5.367 1.625 1.034.403 1.77.604 2.212.604.32 0 .69-.17 1.116-.515l.638.337-3.657 7.325-.66-.334c-.015-.49-.084-.843-.205-1.06-.122-.214-.396-.478-.82-.79-.928-.683-2.286-1.268-4.078-1.75-1.793-.483-3.485-.725-5.08-.725-3.25 0-5.946.896-8.086 2.686-2.415 2.028-3.622 4.706-3.622 8.033 0 3.222 1.177 5.825 3.532 7.81 2.16 1.82 5 2.73 8.525 2.73 1.717 0 3.41-.195 5.083-.584 1.67-.39 3.113-.92 4.33-1.59v-4.168z" fill="#2a5aa3"/></svg>