<?xml version="1.0" encoding="utf-8"?>
<!-- Generator: Adobe Illustrator 23.0.1, SVG Export Plug-In . SVG Version: 6.00 Build 0)  -->
<svg version="1.1" id="Layer_1" xmlns="http://www.w3.org/2000/svg" xmlns:xlink="http://www.w3.org/1999/xlink" x="0px" y="0px"
	 viewBox="0 0 141.8 121.7" style="enable-background:new 0 0 141.8 121.7;" xml:space="preserve">
<style type="text/css">
	.st0{fill:#FFFFFF;stroke:#001689;stroke-width:0.6123;stroke-miterlimit:10;}
	.st1{fill:#001689;}
	.st2{fill:#00ADEE;}
	.st3{fill:#FFFFFF;}
</style>
<g>
	<path class="st0" d="M13.3,104.2c15,12.6,30.1,16.9,56,17c19.4,0.1,45.7-3.7,62.8-24.2c14.4-17.3,13.2-39.2-6.7-53.6
		c-20-14.4-54.8-18.8-58.9-28.8C60.9,0.8,67.4-3.1,55,2.4c-11.2,4.9-37,28.3-47.5,49.4C-4.5,73.5-1.7,91.6,13.3,104.2z"/>
	<path class="st1" d="M129.7,60.5c-2.3-11.6-10.6-20.6-25.8-26.1c-17-6.2-37.4-6.2-48.8-15.3c-6.4-5.1-2.8-10.7-15.5-1.3
		C34.3,22,24.9,30.2,19.1,39.5c-6.1,9.8-8.4,20.4-8.6,30.6c-0.1,4.1,0.3,7.9,1.1,11.4c5.3,22.2,31.6,36.7,64.2,32.4
		c31-4.1,54.6-23.8,54.6-44.9C130.5,65.4,130.3,63.7,129.7,60.5z"/>
	<g>
		<path class="st2" d="M78.1,101.3c-5.6-0.7-12.2-2.3-19.2-4.4c-7-2.1-13.5-3.5-19.2-3c-8.3,0.8-11.6,4.8-13.7,7.7
			c3.4-1.2,8.1-2.3,13.7-1.8c5.6,0.4,12.2,2.3,19.2,4.4c7,2.1,26,7.7,32.9-4.7C91.6,99.5,86.5,102.3,78.1,101.3z"/>
		<g>
			<path class="st3" d="M109.7,82.5c0-1.4,1.1-2.4,2.4-2.4c1.3,0,2.4,1,2.4,2.4c0,1.4-1.1,2.4-2.4,2.4
				C110.8,84.9,109.7,83.9,109.7,82.5z M112.1,84.5c1.1,0,1.9-0.9,1.9-2c0-1.1-0.9-2-1.9-2c-1.1,0-2,0.9-2,2
				C110.1,83.7,111,84.5,112.1,84.5z M111.6,83.9h-0.4v-2.8h1.1c0.7,0,1,0.2,1,0.8c0,0.5-0.3,0.7-0.7,0.8l0.8,1.2h-0.5l-0.7-1.2
				h-0.5V83.9z M112.1,82.4c0.4,0,0.7,0,0.7-0.4c0-0.3-0.3-0.4-0.6-0.4h-0.6v0.9H112.1z"/>
		</g>
		<g>
			<g>
				<g>
					<path class="st3" d="M27.2,37.1l-0.4,1.2h-0.5l1.4-4h0.6l1.4,4h-0.6l-0.4-1.2H27.2z M28.5,36.6L28,34.8h0l-0.6,1.8H28.5z"/>
					<path class="st3" d="M31.7,36.1h1.7v2.2H33l-0.1-0.5c-0.3,0.4-0.7,0.6-1.3,0.6c-0.7,0-1-0.3-1.2-0.5c-0.6-0.6-0.6-1.3-0.6-1.7
						c0-1,0.6-2.1,1.8-2.1c0.7,0,1.5,0.4,1.6,1.3h-0.5c-0.2-0.7-0.7-0.8-1.1-0.8c-0.7,0-1.2,0.6-1.2,1.6c0,0.8,0.3,1.7,1.3,1.7
						c0.2,0,0.5,0,0.8-0.3c0.3-0.3,0.4-0.6,0.4-1.1h-1.2V36.1z"/>
					<path class="st3" d="M37.2,34.2v2.6c0,0.8-0.5,1.5-1.5,1.5c-1,0-1.5-0.7-1.5-1.4v-2.7h0.5v2.5c0,0.9,0.5,1.1,1,1.1
						c0.5,0,1-0.2,1-1.1v-2.5H37.2z"/>
					<path class="st3" d="M38.4,37.1L38,38.2h-0.5l1.4-4h0.6l1.4,4h-0.6L40,37.1H38.4z M39.8,36.6l-0.6-1.8h0l-0.6,1.8H39.8z"/>
					<path class="st3" d="M46,38.2v-2.4c0-0.1,0-0.6,0-1h0L45,38.2h-0.5l-1.1-3.4h0c0,0.4,0,0.9,0,1v2.4h-0.5v-4h0.7l1.1,3.4h0
						l1.1-3.4h0.7v4H46z"/>
					<path class="st3" d="M48,38.2h-0.5v-4H48V38.2z"/>
					<path class="st3" d="M51.4,34.2h0.5v4h-0.6L49.4,35h0v3.3h-0.5v-4h0.6l1.9,3.3h0V34.2z"/>
					<path class="st3" d="M55.6,38.2h-2.8v-4h2.8v0.5h-2.3v1.2h2.1v0.5h-2.1v1.3h2.3V38.2z"/>
					<path class="st3" d="M56.9,38.2h-0.5v-4h1.8c0.6,0,1.3,0.2,1.3,1.1c0,0.6-0.3,0.8-0.5,1c0.2,0.1,0.4,0.2,0.5,0.8l0,0.7
						c0,0.2,0,0.3,0.2,0.4v0.1h-0.6c-0.1-0.2-0.1-0.9-0.1-1c0-0.3-0.1-0.7-0.7-0.7h-1.2V38.2z M56.9,36.1h1.2c0.4,0,0.8-0.1,0.8-0.7
						c0-0.6-0.4-0.7-0.7-0.7h-1.3V36.1z"/>
					<path class="st3" d="M60.8,37.1l-0.4,1.2h-0.5l1.4-4h0.6l1.4,4h-0.6l-0.4-1.2H60.8z M62.1,36.6l-0.6-1.8h0l-0.6,1.8H62.1z"/>
					<path class="st3" d="M64.3,37.8h1.9v0.5h-2.5v-4h0.5V37.8z"/>
					<path class="st3" d="M70.8,34.2h0.5v4h-0.6L68.7,35h0v3.3h-0.5v-4h0.6l1.9,3.3h0V34.2z"/>
					<path class="st3" d="M72.7,37.1l-0.4,1.2h-0.5l1.4-4h0.6l1.4,4h-0.6l-0.4-1.2H72.7z M74,36.6l-0.6-1.8h0l-0.6,1.8H74z"/>
					<path class="st3" d="M74.7,34.2h3.1v0.5h-1.3v3.5H76v-3.5h-1.3V34.2z"/>
					<path class="st3" d="M81.3,34.2v2.6c0,0.8-0.5,1.5-1.5,1.5c-1,0-1.5-0.7-1.5-1.4v-2.7h0.5v2.5c0,0.9,0.5,1.1,1,1.1
						c0.5,0,1-0.2,1-1.1v-2.5H81.3z"/>
					<path class="st3" d="M82.8,38.2h-0.5v-4H84c0.6,0,1.3,0.2,1.3,1.1c0,0.6-0.3,0.8-0.5,1c0.2,0.1,0.4,0.2,0.5,0.8l0,0.7
						c0,0.2,0,0.3,0.2,0.4v0.1h-0.6c-0.1-0.2-0.1-0.9-0.1-1c0-0.3-0.1-0.7-0.7-0.7h-1.2V38.2z M82.8,36.1h1.2c0.4,0,0.8-0.1,0.8-0.7
						c0-0.6-0.4-0.7-0.7-0.7h-1.3V36.1z"/>
					<path class="st3" d="M86.6,37.1l-0.4,1.2h-0.5l1.4-4h0.6l1.4,4h-0.6l-0.4-1.2H86.6z M88,36.6l-0.6-1.8h0l-0.6,1.8H88z"/>
					<path class="st3" d="M90.1,37.8h1.9v0.5h-2.5v-4h0.5V37.8z"/>
				</g>
			</g>
			<g>
				<path class="st3" d="M27.3,59.6c-0.4,0-0.7-0.1-0.9-0.4C26.1,59,26,58.6,26,58V44.8c0-0.4,0.1-0.8,0.2-1
					c0.1-0.2,0.3-0.4,0.5-0.5c0.3-0.1,0.6-0.2,1-0.2h8.2c0.4,0,0.8,0.1,0.9,0.3c0.2,0.2,0.3,0.4,0.3,0.6c0,0.3-0.1,0.5-0.3,0.7
					c-0.2,0.2-0.5,0.3-0.9,0.3H29h-0.4v0.4v4.4v0.4H29h5.7c0.4,0,0.7,0.1,0.9,0.2c0.2,0.2,0.3,0.4,0.3,0.6c0,0.3-0.1,0.5-0.3,0.6
					c-0.2,0.2-0.5,0.2-0.9,0.2H29h-0.4v0.4V58c0,0.6-0.1,1-0.4,1.3C28,59.5,27.7,59.6,27.3,59.6L27.3,59.6z"/>
				<path class="st3" d="M45.2,59.6c-1.3,0-2.4-0.1-3.3-0.4c-0.9-0.3-1.6-0.7-2.1-1.2c-0.5-0.5-1-1.2-1.2-2.1
					c-0.3-0.9-0.4-2-0.4-3.2v-8.2c0-0.6,0.1-1,0.4-1.3c0.2-0.3,0.5-0.4,0.9-0.4c0.4,0,0.7,0.1,1,0.4c0.2,0.3,0.4,0.7,0.4,1.3v8.4
					c0,1,0.1,1.8,0.3,2.5c0.2,0.7,0.7,1.3,1.3,1.7c0.6,0.4,1.5,0.6,2.5,0.6c1.5,0,2.6-0.4,3.2-1.2c0.6-0.8,0.9-2,0.9-3.5v-8.5
					c0-0.6,0.1-1,0.4-1.3c0.2-0.3,0.5-0.4,0.9-0.4c0.4,0,0.7,0.1,1,0.4c0.2,0.3,0.4,0.7,0.4,1.3v8.2c0,1.3-0.1,2.4-0.4,3.2
					c-0.2,0.8-0.7,1.5-1.4,2.2c-0.6,0.5-1.2,0.9-2,1.2C47.2,59.5,46.3,59.6,45.2,59.6L45.2,59.6z"/>
				<path class="st3" d="M64.6,59.4h-9.4c-0.6,0-1.1-0.1-1.3-0.4c-0.2-0.2-0.4-0.7-0.4-1.3V44.8c0-0.4,0.1-0.8,0.2-1
					c0.1-0.2,0.3-0.4,0.5-0.5c0.3-0.1,0.6-0.2,1-0.2h9.1c0.4,0,0.8,0.1,0.9,0.3c0.2,0.2,0.3,0.4,0.3,0.6c0,0.3-0.1,0.5-0.3,0.7
					c-0.2,0.2-0.5,0.3-0.9,0.3h-7.8h-0.4v0.4v4.2V50h0.4h7.2c0.4,0,0.7,0.1,0.9,0.2c0.2,0.2,0.2,0.4,0.2,0.6c0,0.3-0.1,0.5-0.3,0.6
					c-0.2,0.2-0.5,0.2-0.9,0.2h-7.2h-0.4v0.4V57v0.4h0.4h8.1c0.4,0,0.7,0.1,0.9,0.3c0.2,0.2,0.3,0.4,0.3,0.7c0,0.3-0.1,0.5-0.3,0.7
					C65.3,59.3,65,59.4,64.6,59.4L64.6,59.4z"/>
				<path class="st3" d="M79.2,59.6c-0.3,0-0.5,0-0.7-0.1c-0.2-0.1-0.4-0.2-0.6-0.3c-0.2-0.2-0.4-0.4-0.5-0.6
					c-0.2-0.3-0.4-0.5-0.6-0.8l-6.5-9.9l-0.8-1.2v1.4v10c0,0.5-0.1,0.9-0.3,1.2c-0.2,0.2-0.5,0.4-0.8,0.4c-0.4,0-0.6-0.1-0.9-0.4
					c-0.2-0.3-0.3-0.7-0.3-1.2V44.9c0-0.5,0.1-0.9,0.2-1.2c0.1-0.3,0.3-0.5,0.6-0.7c0.3-0.2,0.6-0.3,0.9-0.3c0.2,0,0.5,0,0.6,0.1
					c0.2,0.1,0.3,0.2,0.5,0.3c0.1,0.2,0.3,0.4,0.5,0.6c0.2,0.3,0.4,0.6,0.5,0.8l6.7,10.1l0.8,1.2v-1.4V44.4c0-0.6,0.1-1,0.3-1.2
					c0.2-0.2,0.5-0.3,0.8-0.3c0.4,0,0.6,0.1,0.9,0.4c0.2,0.2,0.3,0.7,0.3,1.2v13.4C80.6,59.4,79.8,59.6,79.2,59.6L79.2,59.6z"/>
				<path class="st3" d="M88.5,59.6c-0.4,0-0.7-0.1-0.9-0.4c-0.2-0.3-0.4-0.7-0.4-1.3V45.5v-0.4h-0.4h-3.8c-0.5,0-0.8-0.1-1-0.3
					c-0.2-0.2-0.3-0.4-0.3-0.7c0-0.3,0.1-0.5,0.3-0.7c0.2-0.2,0.6-0.3,1-0.3h11c0.5,0,0.8,0.1,1,0.3c0.2,0.2,0.3,0.4,0.3,0.7
					c0,0.3-0.1,0.5-0.3,0.7c-0.2,0.2-0.6,0.3-1,0.3h-3.8h-0.4v0.4V58c0,0.6-0.1,1-0.4,1.3C89.1,59.5,88.8,59.6,88.5,59.6L88.5,59.6z
					"/>
				<path class="st3" d="M107.6,59.4h-9.4c-0.6,0-1.1-0.1-1.3-0.4c-0.2-0.3-0.4-0.7-0.4-1.3V44.8c0-0.4,0.1-0.8,0.2-1
					c0.1-0.2,0.3-0.4,0.5-0.5c0.3-0.1,0.6-0.2,1-0.2h9.1c0.4,0,0.8,0.1,0.9,0.3c0.2,0.2,0.3,0.4,0.3,0.6c0,0.3-0.1,0.5-0.3,0.7
					c-0.2,0.2-0.5,0.3-0.9,0.3h-7.8h-0.4v0.4v4.2V50h0.4h7.2c0.4,0,0.7,0.1,0.9,0.2c0.2,0.2,0.3,0.4,0.3,0.6c0,0.3-0.1,0.5-0.3,0.6
					c-0.2,0.2-0.5,0.2-0.9,0.2h-7.2h-0.4v0.4V57v0.4h0.4h8.1c0.4,0,0.7,0.1,0.9,0.3c0.2,0.2,0.3,0.4,0.3,0.7c0,0.3-0.1,0.5-0.3,0.7
					C108.4,59.3,108.1,59.4,107.6,59.4L107.6,59.4z"/>
				<path class="st3" d="M52.6,79.9c-0.4,0-0.7-0.1-0.9-0.4c-0.2-0.3-0.4-0.7-0.4-1.3V65c0-0.6,0.1-1.1,0.4-1.3
					c0.3-0.3,0.7-0.4,1.4-0.4h4.4c1.3,0,2.2,0.1,2.9,0.3c0.6,0.2,1.2,0.5,1.6,0.9c0.5,0.4,0.8,0.9,1,1.5c0.2,0.6,0.4,1.3,0.4,2
					c0,1.6-0.5,2.8-1.5,3.6c-1,0.8-2.5,1.2-4.5,1.2h-3.2h-0.4v0.4v4.8c0,0.6-0.1,1-0.4,1.3C53.3,79.7,53,79.9,52.6,79.9L52.6,79.9z
					 M53.9,65.1v0.4v5.2v0.4h0.4h2.3c0.9,0,1.6-0.1,2.2-0.3c0.6-0.2,1.1-0.5,1.5-1c0.3-0.5,0.5-1.1,0.5-1.8c0-0.9-0.3-1.6-0.8-2.1
					c-0.6-0.6-1.7-0.9-3.4-0.9h-2.3H53.9L53.9,65.1z"/>
				<path class="st3" d="M71.7,79.9c-1.3,0-2.4-0.1-3.3-0.4c-0.9-0.3-1.6-0.7-2.1-1.2c-0.5-0.5-0.9-1.2-1.2-2.1
					c-0.3-0.9-0.4-2-0.4-3.2v-8.2c0-0.6,0.1-1,0.4-1.3c0.2-0.3,0.5-0.4,0.9-0.4c0.4,0,0.7,0.1,1,0.4c0.2,0.3,0.4,0.7,0.4,1.3v8.4
					c0,1,0.1,1.9,0.3,2.5c0.2,0.7,0.7,1.3,1.3,1.7c0.6,0.4,1.5,0.6,2.5,0.6c1.5,0,2.6-0.4,3.2-1.2c0.6-0.8,0.9-2,0.9-3.5v-8.5
					c0-0.6,0.1-1,0.4-1.3c0.2-0.3,0.5-0.4,0.9-0.4c0.4,0,0.7,0.1,1,0.4c0.2,0.3,0.4,0.7,0.4,1.3v8.2c0,1.3-0.1,2.4-0.4,3.2
					c-0.2,0.8-0.7,1.5-1.4,2.2c-0.6,0.5-1.2,0.9-2,1.2C73.7,79.7,72.8,79.9,71.7,79.9L71.7,79.9z"/>
				<path class="st3" d="M92,79.9c-0.3,0-0.5-0.1-0.7-0.2c-0.2-0.2-0.4-0.3-0.6-0.6c-0.2-0.3-0.4-0.7-0.8-1.2l-1.4-2.3
					c-0.5-0.9-1-1.5-1.4-2c-0.4-0.5-0.9-0.8-1.4-1c-0.4-0.2-1-0.3-1.7-0.3h-1.2h-0.4v0.4v5.5c0,0.6-0.1,1-0.4,1.3
					c-0.2,0.3-0.5,0.4-0.9,0.4c-0.4,0-0.7-0.1-1-0.4c-0.2-0.3-0.4-0.7-0.4-1.3V65c0-0.6,0.1-1.1,0.4-1.3c0.3-0.3,0.7-0.4,1.3-0.4
					h5.6c0.8,0,1.4,0,1.9,0.1c0.5,0.1,1,0.2,1.4,0.4c0.5,0.2,0.9,0.5,1.3,0.9c0.4,0.4,0.7,0.8,0.8,1.3c0.2,0.5,0.3,1,0.3,1.6
					c0,1.2-0.3,2.1-1,2.8c-0.7,0.7-1.7,1.2-3,1.5l-1.1,0.2l1,0.6c0.6,0.3,1.1,0.8,1.6,1.4c0.5,0.6,1,1.3,1.5,2
					c0.4,0.7,0.8,1.3,1,1.9c0.3,0.7,0.3,1,0.3,1c0,0.1,0,0.3-0.1,0.4c-0.1,0.2-0.2,0.3-0.4,0.4C92.5,79.8,92.3,79.9,92,79.9L92,79.9
					z M82.5,65.1v0.4v4.7v0.4h0.4H86c0.9,0,1.6-0.1,2.2-0.2c0.7-0.2,1.2-0.5,1.5-0.9c0.4-0.4,0.6-1,0.6-1.7c0-0.6-0.1-1.1-0.4-1.5
					c-0.3-0.4-0.7-0.8-1.2-1c-0.5-0.2-1.3-0.3-2.6-0.3h-3.2H82.5L82.5,65.1z"/>
				<path class="st3" d="M107.6,79.9c-0.2,0-0.4,0-0.5-0.1c-0.1-0.1-0.3-0.2-0.3-0.3c-0.1-0.1-0.2-0.4-0.4-0.7
					c-0.2-0.3-0.3-0.6-0.4-0.9l-0.8-2.1l-0.1-0.3h-0.3h-6.9h-0.3l-0.1,0.3L96.6,78c-0.4,1-0.6,1.4-0.8,1.6c-0.1,0.1-0.2,0.3-0.8,0.3
					c-0.3,0-0.6-0.1-0.9-0.4c-0.2-0.2-0.4-0.5-0.4-0.8c0-0.2,0-0.4,0.1-0.6c0.1-0.2,0.2-0.6,0.4-1L98.7,66l0.3-0.8l0.1-0.3
					c0.2-0.4,0.3-0.8,0.5-1c0.2-0.2,0.4-0.4,0.6-0.6c0.3-0.1,0.6-0.2,1-0.2c0.4,0,0.7,0.1,1,0.2c0.3,0.1,0.5,0.3,0.6,0.6
					c0.2,0.3,0.3,0.5,0.5,0.8c0.1,0.3,0.3,0.8,0.5,1.3l4.5,11c0.4,1,0.5,1.4,0.5,1.7c0,0.3-0.1,0.5-0.4,0.8
					C108.3,79.7,108,79.9,107.6,79.9L107.6,79.9z M101.3,65l-0.4,1.1l-2.5,7.1l-0.2,0.6h0.6h5.1h0.6l-0.2-0.6l-2.6-7.1L101.3,65
					L101.3,65z"/>
			</g>
		</g>
		<path class="st3" d="M108.3,84.9c-4.4,2.6-10.7,5.3-18.2,5.3c-7.5,0.2-16.2-2.2-25.4-4.9c-9.3-2.6-17.9-4.1-25.4-2.3
			c-7.5,1.6-13.7,6.6-18.2,12c4.4-2.6,10.7-5.3,18.2-5.3c7.5-0.2,16.2,2.2,25.4,4.9c9.3,2.6,17.9,4.1,25.4,2.3
			C97.6,95.2,103.8,90.3,108.3,84.9z"/>
	</g>
</g>
</svg>
