<svg xmlns="http://www.w3.org/2000/svg" width="400" height="93.068"><defs><clipPath id="a"><path d="M36 437.443h117v22.89H36v-22.89z"/></clipPath></defs><path d="M65.34 48.52H52.424l11.352-19.777h1.562V48.52zM93.384 91.64l-7.79-89.23H54.442L0 91.642h29.7L41.058 71.26h25.396v20.382h26.932zM110.51 24.692h26.32L122.016 91.64h-26.31l14.803-66.948zM111.754 18.626h25.99L141.63 0h-26.156l-3.72 18.626z" fill="#2c2f82"/><g clip-path="url(#a)" transform="matrix(4.06588 0 0 -4.06588 -146.373 1871.66)"><path d="M73.29 437.794h-6.13l3.674 16.466h5.593l-.186-1.224s.864 1.493 4.13 1.493l-1.056-6.434H78.28s-2.736.188-3.63-4.038l-1.36-6.264zM115.68 437.756h-6.09l4.903 22.02h6.357l-5.17-22.02zM128.78 454.335h-6.703l-3.872-6.892.844-9.688h6.818l-2.182 9.5 5.094 7.08zM97.83 449.06l1.644 4.702s3.025.727 7.05.845c0 0 5.21.272 4.25-3.562l-3.063-13.096h-5.705l1.493 5.59s.343 1.074-.46.917c0 0-1.992-.343-2.22-1.877 0 0-.036-1.034 1.376-.497l-1.913-4.64h-2.986s-2.488.816-2.488 4.41c0 0-.003 5.573 6.24 6.167 4.022.38 3.524 1.57 3.524 1.57s-.386 2.043-6.74-.53M84.888 437.794h-6.24l4.903 21.596h8.96s4.72.113 4.714-4.86c0 0 .265-9.346-9.002-9.385l-.28 5.13s3-.537 3 2.49c0 0 .038 1.495-1.535 1.495 0 0-1.34.003-1.645-1.877l-2.874-14.59zM131.542 455.145h.265c.308 0 .557.105.557.356 0 .22-.16.366-.512.366-.148 0-.252-.013-.31-.028v-.693zm-.014-1.35h-.56v2.41c.222.03.528.075.928.075.457 0 .66-.076.823-.197.147-.096.248-.275.248-.51 0-.292-.223-.487-.5-.572v-.027c.24-.08.353-.267.425-.593.075-.37.136-.496.18-.585h-.592c-.073.09-.116.292-.19.585-.042.253-.19.37-.5.37h-.262v-.955zm-1.485 1.252c0-1.08.807-1.93 1.88-1.93 1.045-.014 1.836.85 1.836 1.91 0 1.073-.792 1.94-1.864 1.94-1.046 0-1.853-.867-1.853-1.92m4.337 0c0-1.357-1.088-2.43-2.474-2.43-1.377 0-2.48 1.073-2.48 2.43 0 1.35 1.103 2.413 2.498 2.413 1.368 0 2.456-1.064 2.456-2.413" fill="#2c2f82"/></g></svg>