<svg xmlns="http://www.w3.org/2000/svg" width="400" height="398.884"><g fill-rule="evenodd"><path d="M33.848 132.173l-3.07 7.967 3.312 2.536-2.754 7.146-19.355-17.23 2.94-7.624 25.913.213-2.82 7.32-4.165-.327zm-5.46-.422l-9.1-.633 7.176 5.624 1.923-4.99zm-7.36-20.408l3.646-6.555 15.977 8.886 5.685-10.223 5.222 2.905-9.33 16.776-21.198-11.788zM54.894 84.7l5.616-3.945c1.177 1.483 1.957 2.977 2.346 4.486.39 1.512.394 3.015.02 4.508-.37 1.498-1.23 3.1-2.567 4.805-1.627 2.076-3.26 3.538-4.887 4.38-1.637.84-3.59 1.147-5.86.912-2.265-.24-4.585-1.282-6.954-3.14-3.162-2.476-4.935-5.22-5.312-8.23-.38-3.01.633-6.053 3.04-9.125 1.884-2.405 3.85-3.915 5.902-4.53 2.054-.615 4.35-.467 6.885.444l-2.922 6.12c-.725-.275-1.302-.42-1.73-.43-.707-.024-1.37.11-1.987.394-.62.288-1.16.727-1.622 1.32-1.045 1.332-1.312 2.78-.794 4.335.38 1.165 1.42 2.42 3.132 3.76 2.12 1.66 3.824 2.47 5.112 2.448 1.292-.027 2.39-.622 3.3-1.783.885-1.13 1.238-2.23 1.055-3.306-.18-1.07-.772-2.21-1.777-3.42zm21.93-15.107l-6.15 5.923 1.93 3.7-5.517 5.312-10.26-23.796 5.887-5.667L86.108 66.21l-5.65 5.44-3.636-2.057zm-4.77-2.69l-7.982-4.42 4.13 8.13 3.852-3.71zm1.732-22.055l6.074-4.4 10.723 14.805 9.472-6.86 3.505 4.837-15.545 11.262-14.23-19.644zm21.12-15.388l9.842-5.214c1.936-1.026 3.643-1.593 5.118-1.703 1.474-.103 2.86.127 4.16.697 1.302.577 2.472 1.42 3.52 2.54 1.04 1.122 1.948 2.412 2.723 3.874 1.213 2.29 1.895 4.204 2.04 5.744.15 1.538-.012 2.98-.492 4.32-.47 1.343-1.162 2.437-2.074 3.285-1.246 1.158-2.46 2.052-3.638 2.676l-9.84 5.213L94.906 29.46zm9.196 1.347l6.204 11.707 1.622-.86c1.388-.735 2.29-1.406 2.712-2.024.422-.614.595-1.396.526-2.337-.076-.938-.57-2.268-1.48-3.985-1.203-2.27-2.395-3.626-3.577-4.073-1.188-.444-2.638-.214-4.354.697l-1.652.875zm16.52-14.478l6.968-2.804 9.055 22.502-6.97 2.804-9.053-22.503zm34.543 9.63l-8.21 2.343-.033 4.173-7.364 2.1 2.112-25.825 7.858-2.24 15.424 20.823-7.543 2.152-2.244-3.524zm-2.95-4.613l-4.97-7.65-.172 9.117 5.144-1.467zM177.786.86l11.13-.373c2.19-.074 3.973.166 5.347.713 1.37.553 2.515 1.37 3.433 2.45.92 1.09 1.6 2.36 2.05 3.826.445 1.465.694 3.022.75 4.676.087 2.59-.14 4.61-.684 6.058-.538 1.447-1.316 2.67-2.334 3.665-1.012 1-2.114 1.682-3.305 2.044-1.627.495-3.11.764-4.442.81l-11.13.372L177.784.86zm7.674 5.24l.443 13.242 1.835-.06c1.57-.054 2.675-.26 3.323-.632.65-.367 1.15-.994 1.498-1.87.344-.876.483-2.288.418-4.23-.086-2.567-.563-4.31-1.43-5.23-.872-.92-2.277-1.347-4.218-1.282l-1.87.063zM206.13 0l20.052 1.08-.277 5.17-12.554-.676-.206 3.853 11.645.626-.267 4.94-11.645-.627-.257 4.77 12.92.696-.295 5.488-20.42-1.1L206.13 0zm41.24 5.47l13.416 4.122c2.234.687 3.78 1.77 4.633 3.244.858 1.475 1.036 3.03.534 4.66-.42 1.37-1.21 2.417-2.364 3.138-.772.477-1.764.74-2.975.78 1.54.912 2.552 1.98 3.042 3.193.483 1.218.5 2.564.048 4.038-.37 1.204-.983 2.197-1.834 2.987-.856.79-1.85 1.31-2.993 1.574-.706.16-1.69.136-2.954-.08-1.678-.286-2.78-.507-3.31-.67l-12.367-3.8L247.37 5.47zm4.434 11.318l3.115.957c1.116.343 1.953.388 2.514.14.557-.254.943-.743 1.166-1.467.207-.675.154-1.27-.168-1.782-.325-.52-1.028-.943-2.113-1.276l-3.164-.972-1.352 4.4zm-2.798 9.107l3.655 1.123c1.237.38 2.172.43 2.808.148.642-.28 1.077-.792 1.304-1.532.21-.685.13-1.312-.243-1.882-.376-.57-1.185-1.05-2.443-1.436L250.45 21.2l-1.444 4.695zm21.02-.79c1.74-3.557 4.09-5.84 7.038-6.85 2.954-1.013 6.198-.65 9.734 1.08 3.626 1.775 5.944 4.117 6.954 7.025 1.007 2.902.656 6.112-1.06 9.617-1.246 2.547-2.7 4.425-4.355 5.634-1.654 1.21-3.513 1.873-5.575 1.988-2.067.114-4.302-.42-6.722-1.604-2.455-1.202-4.297-2.588-5.528-4.16-1.223-1.572-1.92-3.448-2.096-5.634-.17-2.184.365-4.55 1.61-7.096zm6.723 3.327c-1.078 2.2-1.445 3.978-1.1 5.34.348 1.36 1.227 2.388 2.633 3.075 1.446.708 2.797.785 4.048.233 1.254-.556 2.48-2.048 3.673-4.484 1.006-2.054 1.322-3.754.96-5.107-.365-1.35-1.256-2.37-2.676-3.065-1.355-.663-2.678-.72-3.972-.158-1.29.557-2.48 1.948-3.566 4.165zm27.306 1.02l5.8 3.923.046 16.232 7.52-11.114 5.85 3.958-13.592 20.092-5.85-3.96-.065-16.12-7.463 11.03-5.838-3.95 13.592-20.09zM326.7 72.718l-6.337-5.724-3.556 2.185-5.683-5.13 23.02-11.896 6.066 5.477-9.486 24.116-5.822-5.257 1.8-3.77zm2.352-4.947l3.852-8.27-7.822 4.685 3.97 3.585zm22.49 1.69l4.208 5.6-5.242 15.36 10.728-8.06 4.243 5.65-19.393 14.57-4.244-5.648 5.19-15.264-10.648 8-4.234-5.635 19.393-14.57zM369.84 94.69l10.258 18.567-4.24 2.343-19.005-5.038 6.816 12.34-4.563 2.52-11.13-20.144 4.405-2.434 18.797 4.978-5.873-10.628 4.533-2.505zm-.506 46.252l-2.908-8.028-4.166.26-2.61-7.2 25.912.305 2.784 7.682-19.697 16.84-2.674-7.375 3.358-2.485zm4.398-3.263l7.285-5.495-9.107.466 1.822 5.03zM24.14 177.033l-.68 7.066c-.133 1.37-.297 2.416-.496 3.134-.195.72-.608 1.422-1.23 2.117-.63.695-1.445 1.206-2.447 1.536-1.002.328-2.096.44-3.294.323-2.81-.27-4.687-1.52-5.625-3.737l-10.23 3.19.518-5.385 9.182-2.145.238-2.468-8.893-.857.476-4.942 22.48 2.167zm-4.114 4.59l-6.307-.607-.21 2.176c-.186 1.928.8 3 2.964 3.207.742.07 1.368-.01 1.873-.25.506-.242.864-.542 1.07-.903.205-.366.348-.913.42-1.65l.19-1.973zm2.68 11.8l-.122 13.736-3.874-.036.077-8.77-5.24-.045-.06 6.814-3.892-.033.06-6.816-5.54-.048-.077 8.77L0 206.96l.12-13.734 22.585.198zm-9.628 22.798l.752 7.808-11.99 1.154-.203-2.09 2.508-.89c-2.06-1.02-3.21-2.742-3.44-5.154-.247-2.558.57-4.685 2.438-6.38 1.868-1.69 4.506-2.702 7.912-3.03 3.7-.356 6.7.104 9 1.37 2.3 1.27 3.59 3.347 3.868 6.237.443 4.598-1.878 7.426-6.968 8.483l-1.147-4.378c2.91-.592 4.28-1.796 4.105-3.618-.106-1.113-.737-1.943-1.886-2.507-1.155-.56-3.244-.692-6.274-.4-2.687.258-4.55.766-5.59 1.52-1.034.75-1.493 1.754-1.373 3.008.193 2.006 1.775 2.875 4.738 2.602l-.323-3.362 3.873-.372zm11.912 9.915l.647 4.92-22.39 2.948-.65-4.922 22.393-2.945zm-6.545 24.55c-7.55 1.813-11.967.062-13.24-5.243-.634-2.642-.145-4.86 1.456-6.662 1.606-1.808 4.256-3.153 7.958-4.04 7.54-1.81 11.95-.06 13.225 5.25.622 2.594.153 4.803-1.41 6.618-1.562 1.815-4.22 3.174-7.988 4.078zm-1.22-5.084c2.96-.71 4.875-1.414 5.748-2.11.867-.697 1.185-1.55.943-2.556-.24-1-.91-1.612-2.008-1.835-1.1-.226-3.12.015-6.07.723-2.894.695-4.8 1.396-5.706 2.096-.912.7-1.247 1.553-1.005 2.563.24.994.904 1.613 1.992 1.84 1.09.232 3.123-.007 6.105-.722zm12.215 2.945l1.928 5.158-11.106 10.355 13.14-4.912 1.344 3.592-21.156 7.908-1.552-4.153 12.905-12.173-15.315 5.724-1.343-3.592 21.155-7.907zm9.888 25.72l2.15 4.512L23.87 294.32l-2.185-4.583 3.727-3.022-2.735-5.735-4.69 1.004-1.963-4.12 23.304-3.598zm-10.825 9.93l7.342-6.016-9.265 1.984 1.923 4.032zm15.325-.307l2.594 4.233-11.004 6.743c-1.55.95-2.592 1.68-3.116 2.2-.526.515-.808 1.092-.852 1.734-.038.64.137 1.282.535 1.932.433.706.95 1.16 1.554 1.358.6.2 1.22.173 1.848-.086.632-.255 1.727-.866 3.288-1.822l11.003-6.742 2.17 3.544-10.834 6.638c-2.162 1.325-3.853 2.19-5.07 2.59-1.218.4-2.518.324-3.9-.226-1.387-.555-2.634-1.725-3.728-3.51-1.027-1.677-1.55-3.166-1.577-4.466-.028-1.3.338-2.466 1.102-3.49.763-1.024 2.426-2.32 4.983-3.888l11.003-6.742zm7.785 12.91l8.374 11.318-3.405 2.52-2.747-3.714-14.75 10.913-2.95-3.986 14.75-10.915-2.676-3.618 3.403-2.52zm10.206 31.21c-5.994 4.94-10.73 5.302-14.2 1.093-1.728-2.095-2.26-4.305-1.612-6.625.65-2.33 2.442-4.7 5.38-7.12 5.983-4.933 10.715-5.29 14.19-1.077 1.694 2.057 2.242 4.248 1.634 6.565-.61 2.315-2.403 4.702-5.393 7.166zm-3.327-4.034c2.35-1.936 3.762-3.408 4.24-4.418.475-1.005.386-1.912-.272-2.71-.653-.793-1.522-1.05-2.61-.768-1.085.28-2.796 1.383-5.136 3.312-2.297 1.892-3.702 3.358-4.21 4.384-.513 1.03-.44 1.943.22 2.745.652.788 1.52 1.052 2.597.78 1.083-.27 2.806-1.376 5.173-3.326zm13.464-2.303l3.86 3.93-5.934 13.976 10.006-9.832 2.687 2.735-16.11 15.828-3.107-3.162 6.838-16.37-11.663 11.46-2.688-2.736 16.11-15.83zm16.677 30.202c-4.94 5.99-9.52 7.25-13.73 3.78-2.095-1.728-3.04-3.795-2.846-6.197.193-2.41 1.5-5.08 3.922-8.016 4.932-5.984 9.51-7.24 13.724-3.765 2.056 1.696 3.01 3.743 2.856 6.132-.155 2.39-1.46 5.076-3.926 8.065zm-4.035-3.327c1.936-2.35 3.042-4.064 3.32-5.146.273-1.078.012-1.952-.785-2.61-.793-.654-1.696-.74-2.708-.256-1.014.483-2.483 1.892-4.412 4.23-1.893 2.297-2.993 4.004-3.296 5.11-.308 1.108-.062 1.99.74 2.65.79.652 1.692.745 2.697.272 1.01-.47 2.49-1.885 4.442-4.25zm11.415-5.207l6.207 3.804-4.57 13.56 10.353-10.017 6.024 3.693-11.803 19.255-3.963-2.428 9.884-16.126-13.818 13.713-3.076-1.886 6.286-18.33-9.883 16.126-3.444-2.11 11.802-19.255zm23.315 13.723l4.51 2.153-3.902 23.16-4.583-2.186.994-4.694-5.735-2.736-3.013 3.732-4.12-1.966 15.848-17.463zm-2.164 14.53l1.92-9.295-5.952 7.372 4.032 1.924zm22.094-5.845l4.682 1.75-1.87 23.414-4.755-1.78.58-4.763-5.95-2.225-2.676 3.98-4.274-1.6 14.264-18.777zm-.89 14.663l1.104-9.428-5.287 7.863 4.184 1.565zm8.367-11.93l13.63 3.527-1.06 4.1-4.472-1.157-4.596 17.764-4.8-1.242 4.594-17.764-4.358-1.128 1.06-4.1zm14.387 3.774l4.847 1.075L162 391.24l7.108 1.578-.918 4.134-11.953-2.65 4.89-22.05zm17.163 3.008l4.975.48 4.254 23.098-5.054-.486-.67-4.752-6.325-.61-1.556 4.537-4.54-.437 8.917-21.83zm2.937 14.393l-1.376-9.39-3.07 8.962 4.446.428zm8.324-13.486l5.507.05 5.687 14.078.124-14.028 3.834.033-.2 22.584-4.432-.038-6.74-16.41-.144 16.35-3.834-.035.198-22.583zm15.13.23l14.054-.86.258 4.228-4.61.28 1.117 18.316-4.948.304-1.12-18.315-4.493.273-.258-4.227zm14.588-1.188l4.933-.563 2.553 22.44-4.932.562-2.554-22.44zm20.685 11.233l4.54-.716c.363 2.424.04 4.538-.984 6.344-1.024 1.8-2.655 2.955-4.882 3.448-2.712.602-5.003.05-6.872-1.646-1.87-1.703-3.196-4.32-3.978-7.847-.79-3.568-.702-6.508.262-8.84.966-2.325 2.837-3.798 5.616-4.414 4.6-1.018 7.733 1.272 9.4 6.866l-4.355 1.307c-.84-3.25-2.23-4.66-4.155-4.234-1.014.224-1.7.932-2.063 2.117-.368 1.192-.213 3.304.46 6.34.602 2.714 1.29 4.517 2.068 5.415.77.894 1.712 1.223 2.81.98 1.764-.39 2.478-2.1 2.133-5.12zm20.53-8.76c2.335 7.406.896 11.933-4.307 13.573-2.59.817-4.84.483-6.748-.988-1.916-1.474-3.442-4.025-4.586-7.655-2.333-7.395-.892-11.918 4.316-13.56 2.543-.8 4.78-.487 6.7.945 1.92 1.43 3.46 3.99 4.624 7.684zm-4.987 1.572c-.915-2.903-1.75-4.766-2.507-5.587-.755-.816-1.63-1.074-2.616-.763-.98.31-1.543 1.02-1.69 2.132-.148 1.112.234 3.11 1.146 6.004.895 2.84 1.728 4.69 2.488 5.547.763.86 1.637 1.136 2.63.823.973-.307 1.544-1.014 1.695-2.115.154-1.103-.225-3.116-1.147-6.04zm8.423-14.707l5.05-2.195 10.922 10.548-5.593-12.864 3.517-1.53 9.005 20.713-4.067 1.766-12.83-12.248 6.517 14.993-3.517 1.53-9.004-20.712zm34.892-4.47c3.704 6.824 3.156 11.543-1.64 14.146-2.386 1.296-4.657 1.397-6.81.318-2.162-1.082-4.148-3.295-5.964-6.64-3.7-6.815-3.148-11.53 1.652-14.134 2.342-1.272 4.597-1.39 6.755-.352 2.16 1.04 4.16 3.257 6.008 6.662zm-4.596 2.494c-1.452-2.675-2.628-4.344-3.527-5.006-.896-.657-1.805-.742-2.713-.25-.903.49-1.32 1.296-1.253 2.416.067 1.12.823 3.01 2.27 5.675 1.42 2.616 2.59 4.274 3.5 4.97.914.698 1.825.8 2.738.306.9-.488 1.323-1.29 1.26-2.4-.056-1.113-.813-3.015-2.276-5.71zm.156-13.182l5.85-4.02c1.136-.78 2.042-1.327 2.72-1.636.676-.314 1.48-.448 2.413-.418.937.036 1.853.332 2.75.888.895.556 1.683 1.323 2.364 2.315 1.6 2.326 1.85 4.566.754 6.71l9.02 5.786-4.46 3.064-7.545-5.656-2.043 1.405 5.06 7.363-4.09 2.81-12.792-18.613zm6.16.2l3.59 5.223 1.8-1.238c1.597-1.097 1.783-2.54.553-4.333-.422-.614-.887-1.04-1.396-1.274-.51-.233-.97-.314-1.377-.24-.413.08-.925.32-1.535.74l-1.633 1.122zm6.676-9.258l10.706-9.143 2.75 3.22-3.512 3 11.916 13.954-3.77 3.22-11.917-13.953-3.422 2.923-2.75-3.22zm12.03-9.892l9.627-9.795 2.764 2.715-6.148 6.255 3.738 3.674 4.778-4.863 2.775 2.728-4.778 4.86 3.95 3.885 6.148-6.255 2.88 2.83-9.628 9.796-16.107-15.83zm23.665 1.046l3.06-3.46 3.41 3.017 2.482 5.93-1.21 1.365-2.563-5.164-1.438 1.624-3.743-3.312zm-4.644-21.29l3.276-4.426 14.733 3.673-11.276-8.345 2.28-3.082 18.154 13.435-2.638 3.565-17.237-4.193 13.14 9.726-2.28 3.083-18.154-13.434zm9.803-13.844l2.52-4.277 19.457 11.465-2.52 4.277-19.458-11.465zm22.38-9.737l2.437-3.894c2.068 1.316 3.45 2.947 4.143 4.904.686 1.954.488 3.942-.6 5.946-1.327 2.442-3.246 3.81-5.753 4.107-2.512.294-5.356-.422-8.532-2.146-3.21-1.743-5.372-3.74-6.5-5.996-1.12-2.254-1.004-4.634.354-7.135 2.247-4.14 6.032-5.002 11.348-2.59l-1.872 4.144c-3.005-1.498-4.98-1.375-5.92.357-.496.914-.414 1.897.244 2.948.66 1.06 2.354 2.327 5.09 3.812 2.44 1.326 4.253 1.988 5.44 1.99 1.18.005 2.046-.488 2.583-1.476.863-1.588.04-3.25-2.463-4.97zm-8.728-15.347l1.913-4.618 23.334 2.686-1.945 4.69-4.74-.747-2.43 5.87 3.883 2.812-1.747 4.216-18.268-14.91zm14.624 1.4l-9.384-1.43 7.674 5.557 1.71-4.127zm-10.073-11.68l2.016-6.806c.39-1.32.75-2.316 1.083-2.983.328-.67.868-1.28 1.613-1.844.75-.56 1.647-.907 2.694-1.04 1.045-.13 2.14-.03 3.294.31 2.708.803 4.312 2.386 4.81 4.742l10.65-1.18-1.536 5.188-9.423.354-.705 2.377 8.567 2.538-1.41 4.76-21.654-6.416zm4.913-3.72l6.075 1.8.623-2.096c.55-1.858-.214-3.096-2.298-3.715-.716-.212-1.346-.25-1.888-.11-.542.14-.95.365-1.22.68-.272.32-.517.83-.728 1.54l-.564 1.9zm.7-15.75l.998-4.897 23.417-1.815-1.012 4.975-4.795.17-1.267 6.227 4.35 2.02-.91 4.472-20.78-11.152zm14.622-1.416l-9.484.387 8.593 3.99.89-4.378zm-.462-16.515l1.16-7.76 11.915 1.783-.31 2.078-2.648.255c1.754 1.49 2.45 3.44 2.092 5.834-.38 2.542-1.688 4.408-3.91 5.6-2.22 1.187-5.026 1.532-8.41 1.027-3.676-.55-6.476-1.722-8.4-3.506-1.927-1.79-2.675-4.117-2.245-6.99.68-4.568 3.617-6.75 8.812-6.543l.054 4.525c-2.967-.13-4.59.706-4.86 2.516-.165 1.106.246 2.064 1.225 2.89.986.822 2.98 1.456 5.992 1.906 2.67.4 4.6.357 5.79-.12 1.186-.48 1.874-1.343 2.06-2.588.3-1.994-1.025-3.22-3.967-3.672l-.5 3.34-3.85-.575zm-9.51-10.777l.218-4.96 12.892.564c1.817.08 3.09.055 3.814-.082.724-.133 1.28-.453 1.675-.962.39-.508.604-1.138.638-1.9.036-.83-.14-1.492-.53-1.995-.384-.503-.913-.826-1.58-.962-.666-.142-1.916-.25-3.745-.328l-12.892-.564.182-4.152 12.694.555c2.534.11 4.418.34 5.652.688 1.234.35 2.267 1.14 3.107 2.37.84 1.235 1.22 2.903 1.128 4.996-.086 1.963-.486 3.49-1.19 4.584-.704 1.093-1.658 1.854-2.863 2.276-1.206.423-3.31.568-6.306.437l-12.893-.563zm.518-20.96l-.305-4.99 22.15-7.814.308 5.067-4.587 1.407.39 6.34 4.722.828.278 4.554-22.956-5.393zm13.758-5.153l-9.062 2.828 9.334 1.63-.272-4.458z"/><path d="M269.402 234.508c-.155.497-.316.99-.482 1.483-.062.187-.127.37-.192.556-.112.323-.224.646-.34.967-.076.208-.15.415-.23.622-.11.3-.224.6-.34.898-.08.208-.16.416-.244.623-.132.33-.267.66-.404.99l-.2.482c-.2.474-.408.945-.618 1.412-.076.17-.155.336-.233.504-.147.32-.294.637-.445.952-.092.194-.188.387-.282.58-.142.29-.284.58-.43.866-.1.197-.198.392-.3.588-.153.296-.31.59-.466.884l-.277.517c-.246.454-.498.904-.754 1.35l-.18.306c-.206.355-.414.71-.627 1.06l-.315.512c-.176.284-.35.567-.53.848l-.338.53c-.184.283-.37.564-.558.846l-.324.484c-.253.373-.51.743-.77 1.11l-.127.18c-.3.423-.607.84-.915 1.256-.112.15-.226.298-.338.446-.21.276-.42.55-.632.824-.126.162-.253.323-.38.482-.207.26-.415.518-.624.775l-.382.466c-.252.304-.508.604-.765.904l-.248.293c-.343.395-.69.786-1.042 1.172l-.3.327c-.257.278-.513.555-.772.83-.137.145-.277.288-.416.433-.23.24-.463.478-.697.715l-.427.43c-.26.256-.522.512-.786.765l-.346.334c-.378.36-.76.715-1.146 1.066-.07.064-.142.126-.213.19-.325.292-.652.583-.98.87l-.394.338c-.27.232-.542.462-.816.69l-.45.372c-.276.225-.554.448-.83.67-.14.11-.277.22-.416.328-.368.288-.74.573-1.112.853l-.147.112c-.42.312-.842.62-1.27.924-.133.096-.27.19-.404.285-.298.21-.598.418-.9.624l-.487.328c-.29.193-.58.383-.87.573-.16.103-.317.206-.478.308-.346.22-.694.437-1.045.652l-.298.184c-.45.274-.906.543-1.365.807-.122.07-.245.14-.37.208-.337.192-.677.385-1.02.57-.168.094-.338.185-.507.275-.31.166-.62.33-.93.492-.17.086-.337.174-.505.26-.337.17-.676.337-1.015.504-.146.07-.29.143-.435.213-.475.228-.955.45-1.437.67-.086.04-.172.076-.26.114-.4.18-.803.357-1.21.53-.163.07-.33.138-.496.207-.334.14-.67.28-1.007.413l-.54.214c-.347.134-.695.267-1.045.397l-.468.174c-.49.178-.982.352-1.478.52l-.043.015-.013.005c-.51.172-1.025.338-1.54.5l-.45.138c-.367.11-.733.22-1.102.327-.188.055-.378.108-.568.16-.35.1-.7.194-1.054.286l-.537.14c-.426.11-.853.213-1.282.313-.102.024-.202.05-.304.072-.533.124-1.068.24-1.606.35-.136.028-.272.054-.41.08-.404.08-.81.16-1.218.235l-.54.095c-.374.064-.748.127-1.123.186-.187.03-.374.06-.56.088-.398.06-.796.114-1.194.167-.156.02-.31.043-.463.062-.55.07-1.103.133-1.658.19l-.27.024c-.464.046-.928.09-1.393.125-.187.015-.374.027-.56.04-.38.027-.762.052-1.144.073l-.594.03c-.394.02-.788.034-1.183.045-.176.006-.35.013-.526.017-.565.014-1.132.02-1.7.02-.57 0-1.136-.007-1.702-.02-.172-.004-.344-.01-.515-.016-.398-.012-.794-.026-1.19-.046-.194-.01-.388-.018-.582-.03-.39-.02-.778-.045-1.167-.073-.177-.013-.355-.024-.533-.04-.493-.036-.983-.08-1.472-.13l-.193-.017c-.55-.056-1.098-.12-1.645-.188-.17-.02-.337-.045-.505-.067-.386-.052-.77-.105-1.155-.162l-.57-.086c-.37-.06-.74-.12-1.11-.185-.182-.032-.364-.063-.546-.097-.42-.075-.84-.157-1.26-.24l-.363-.072c-.526-.107-1.052-.222-1.575-.342-.158-.036-.315-.075-.473-.113-.37-.087-.74-.176-1.11-.27-.202-.053-.407-.105-.61-.16-.322-.084-.642-.17-.962-.26-.21-.058-.418-.115-.626-.175-.36-.103-.716-.21-1.07-.32l-.474-.142c-.498-.155-.995-.317-1.488-.483l-.49-.17c-.345-.12-.69-.24-1.03-.364-.204-.072-.406-.148-.608-.223-.297-.11-.593-.224-.888-.338-.218-.086-.435-.17-.652-.257-.293-.117-.584-.236-.873-.356-.2-.084-.403-.166-.603-.252-.46-.194-.918-.394-1.373-.6-.19-.086-.378-.174-.566-.262-.288-.132-.575-.265-.86-.4-.23-.11-.46-.224-.69-.337-.24-.12-.482-.238-.722-.36-.234-.117-.467-.236-.7-.356-.238-.125-.476-.25-.714-.377-.23-.123-.458-.244-.685-.368-.262-.143-.523-.29-.783-.438-.382-.214-.76-.432-1.137-.654-.225-.133-.45-.264-.675-.4-.238-.142-.474-.29-.71-.435-.205-.128-.412-.255-.617-.385-.24-.152-.48-.306-.72-.46-.19-.124-.378-.25-.566-.374-.25-.167-.5-.332-.747-.5-.157-.107-.312-.217-.468-.324-.514-.357-1.024-.72-1.53-1.09l-.366-.267c-.27-.202-.54-.407-.807-.61l-.406-.312c-.26-.203-.522-.408-.78-.614l-.413-.333c-.263-.212-.527-.426-.786-.643-.093-.076-.184-.155-.276-.232-.922-.777-1.824-1.576-2.705-2.397l-.265-.246c-.267-.25-.532-.505-.795-.76l-.276-.27c-.27-.266-.54-.533-.807-.803l-.126-.13c-.905-.92-1.786-1.866-2.64-2.834l-.136-.15c-.262-.302-.524-.606-.783-.912l-.17-.2c-.267-.317-.53-.635-.792-.955l-.043-.054c-1.138-1.403-2.225-2.85-3.257-4.335l-.09-.13c-1.303-1.886-2.517-3.836-3.637-5.845l-.014-.024c-1.358-2.438-2.578-4.965-3.648-7.568l-.002-.004c-.716-1.738-1.363-3.51-1.943-5.313l.238-.384c1.93-3.13 5.432-4.945 9.084-4.945 3.425 0 6.715 1.596 8.702 4.373l1.09 1.586 1.44-1.58c1.99-2.783 5.282-4.38 8.708-4.38 3.378 0 6.624 1.553 8.62 4.26.473 1.007.64.895 1.14 1.716.737-.803.772-.875 1.404-1.712 1.996-2.71 5.246-4.263 8.623-4.263 3.376 0 6.624 1.552 8.618 4.26l.71 1.092.363.607 1.473-1.696c1.996-2.71 5.245-4.263 8.623-4.263 3.333 0 6.537 1.51 8.538 4.15l.877 1.347.278.462 1.406-1.806c2.002-2.642 5.21-4.153 8.54-4.153 3.29 0 6.452 1.47 8.458 4.044l1.045 1.596.19.318 1.34-1.913c2.01-2.576 5.173-4.045 8.46-4.045 3.377 0 6.624 1.552 8.62 4.26l.708 1.092.364.607 1.47-1.696c1.997-2.71 5.246-4.263 8.624-4.263 3.583 0 7.018 1.746 8.968 4.763z" fill="#c30"/><path d="M200.95 141.444c39.588 0 71.693 32.105 71.693 71.693 0 .61-.008 1.22-.023 1.827v.034c-.016.602-.04 1.202-.07 1.8l-.003.07c-.03.572-.066 1.143-.11 1.71l-.01.167c-.043.528-.09 1.055-.14 1.58l-.03.288c-.05.48-.105.956-.164 1.432l-.062.477c-.054.416-.11.83-.173 1.245-.03.2-.06.403-.093.604-.057.363-.117.724-.18 1.084-.045.26-.092.522-.14.782-.054.293-.11.587-.168.88-.07.352-.142.704-.217 1.055l-.12.547c-.094.42-.19.84-.292 1.257l-.068.285-.017.066c-.135.545-.275 1.087-.42 1.627-2.416-2.765-5.988-4.342-9.71-4.342-3.815 0-7.476 1.66-9.892 4.56-2.415-2.9-6.075-4.56-9.893-4.56-3.74 0-7.33 1.592-9.746 4.387-2.414-2.793-6.004-4.386-9.745-4.386-3.777 0-7.403 1.625-9.82 4.472-2.415-2.845-6.04-4.47-9.82-4.47-3.815 0-7.476 1.657-9.892 4.558-2.415-2.9-6.076-4.56-9.894-4.56-3.817 0-7.478 1.66-9.894 4.56-2.415-2.9-6.076-4.56-9.894-4.56-3.857 0-7.555 1.694-9.97 4.654-2.414-2.958-6.112-4.653-9.97-4.653-3.934 0-7.703 1.763-10.113 4.832-.102-.36-.2-.72-.295-1.083l-.15-.585c-.1-.4-.2-.804-.295-1.21-.04-.162-.076-.326-.113-.49-.097-.428-.19-.86-.28-1.29l-.083-.4c-.095-.468-.185-.937-.27-1.408l-.053-.3c-.088-.5-.17-1.003-.25-1.508l-.035-.237c-.08-.52-.152-1.044-.22-1.57l-.025-.198c-.07-.547-.132-1.096-.188-1.647l-.01-.104c-.06-.573-.11-1.147-.154-1.724l-.006-.08c-.045-.587-.082-1.177-.113-1.77l-.002-.033c-.06-1.216-.092-2.44-.092-3.67 0-39.588 32.104-71.693 71.694-71.693z" fill="#0ff"/><path d="M200.95 286.966c40.767 0 73.827-33.06 73.827-73.83 0-40.766-33.06-73.826-73.827-73.826-40.768 0-73.83 33.06-73.83 73.827 0 40.768 33.062 73.83 73.83 73.83zm-27.844-52.958c-.632.837-.667.91-1.404 1.712-.5-.82-.667-.71-1.14-1.717-1.996-2.706-5.242-4.258-8.62-4.258-3.426 0-6.72 1.596-8.708 4.38l-1.44 1.58-1.09-1.587c-1.987-2.777-5.277-4.373-8.702-4.373-3.652 0-7.154 1.815-9.084 4.946l-.237.385c9.27 28.86 36.333 49.756 68.27 49.756 32.146 0 59.356-21.167 68.452-50.32-1.95-3.02-5.385-4.765-8.968-4.765-3.378 0-6.627 1.552-8.623 4.263l-1.47 1.696-.365-.607-.71-1.093c-1.994-2.707-5.24-4.26-8.618-4.26-3.287 0-6.45 1.47-8.46 4.047l-1.34 1.914-.19-.318-1.045-1.597c-2.006-2.575-5.17-4.045-8.457-4.045-3.332 0-6.54 1.51-8.54 4.153l-1.407 1.806-.277-.462-.876-1.347c-2-2.64-5.205-4.15-8.538-4.15-3.378 0-6.627 1.552-8.623 4.263l-1.472 1.696-.363-.607-.71-1.093c-1.993-2.707-5.24-4.26-8.618-4.26s-6.628 1.553-8.624 4.264zm-41.217-1.566c2.41-3.07 6.178-4.83 10.112-4.83 3.858 0 7.556 1.694 9.97 4.652 2.415-2.96 6.113-4.653 9.97-4.653 3.818 0 7.48 1.66 9.894 4.56 2.416-2.9 6.077-4.56 9.893-4.56 3.817 0 7.478 1.66 9.893 4.56 2.416-2.9 6.077-4.56 9.893-4.56 3.78 0 7.404 1.627 9.82 4.472 2.416-2.847 6.042-4.47 9.82-4.47 3.74 0 7.33 1.592 9.745 4.385 2.417-2.795 6.008-4.386 9.747-4.386 3.818 0 7.478 1.66 9.894 4.56 2.417-2.9 6.078-4.56 9.894-4.56 3.72 0 7.293 1.578 9.708 4.343 1.627-5.997 2.5-12.304 2.5-18.816 0-39.588-32.104-71.693-71.692-71.693-39.59 0-71.694 32.105-71.694 71.693 0 6.69.918 13.163 2.633 19.305z"/><path d="M203.534 194.125l13.682-6.605-2.164-4.48-11.518 5.56v-13.582H197.6v13.727l-11.82-5.706-2.164 4.48 13.984 6.75v41.837c-.842.908-1.83 1.723-2.89 2.467l-11.044.094c-1.284.07-2.272.988-3.423 1.42-1.735.65-3.975.658-5.362-.71l-.146.075c.537 1.278 1.96 1.778 3.276 1.918 2.166.23 3.72-1.352 5.714-1.318l8.007.38c-1.775 1.006-3.563 1.893-5.078 2.755-2.028 1.154-3.94 2.597-6.193 3.203-1.375.37-3.083-.128-4.48.12-.088-.162-.222-.304-.395-.402-.753-.588-1.053-1.158-1.597-1.93-1.914-2.726-5.047-2.226-8.02-1.58-.174-.148-.397-.238-.64-.243-.646-.593-1.357-1.292-2.298-1.246-1.743.087-3.9.88-5.626.243l-.08.026c-.005.213.032.37.22.51 1.46 1.112 3.788.835 5.486.957.137.01.313.177.482.38-3.664 1.1-7.152 2.756-11.023 2.82l-.027.108c3.948.963 7.862-.65 11.8-1.65-.032.57-.154.857-.793 1.366-.536.43-.542.97-.887 1.514-.375.59-1.705.58-2.305.997l.06.122c.927.054 2.28.48 3.054-.237l.402-.412.302-.46.15-.3-.003.022-.02.048.206-.064.38-.153.42-.278c.73-.635.867-1.656.992-2.596.61-.11 1.22-.192 1.833-.235 1.023-.073 3.166-.252 4 .84.744.98 1.18 1.84 1.974 2.672-.956.596-1.82 1.365-2.705 2.073-.19.074-.35.204-.466.37-1.397 1.12-2.504 2.144-3.78 2.934-.154-.367-.516-.625-.938-.625l-9.208-1.042c-1.366.047-1.973.598-2.604 1.746-.458.832-1.42.74-2.298.948v.176c.778.078 1.81.407 2.535-.08.797-.54.88-1.518 1.978-1.532l8.043 1.523c-.262.075-.534.142-.82.2-2.07.428-3.935.674-4.736 2.792l.11.035c1.363-2.162 3.658-1.855 5.944-2.314 2.275-.457 3.97-1.987 5.666-3.5.22 1.917.59 3.958.193 5.842-.284 1.352-2.17 1.324-3.186 1.678-2.025.707-1.9 2.45-1.784 4.385h.108l.94-2.768.088-.165.078-.12.053-.056-.01.015.77-.218 1.06-.134.593-.093c4.19-.85 3.14-5.824 3.057-9.054 0-.284-.118-.542-.307-.727.854-.675 1.755-1.262 2.766-1.638.156-.013.31-.063.443-.145 1-.26 2.09.09 3.13.035 2.127-.11 3.397-.5 4.805-1.195-.12 1.048-.274 2.106-.87 2.98-.714 1.045-2.15 1.572-3.052 2.434-1.686 1.61-1.54 3.35-1.95 5.508-.112.59-.283.97-.85 1.144l-.018.148c.29.084.523.096.792-.07 1.597-.987 1.068-3.787 2.31-5.16.91-1.01 2.31-1.435 3.353-2.27 1.798-1.436 1.94-3.492 2.445-5.612.016-.094.018-.187.008-.278.5-.28 1.05-.587 1.672-.92 1.1-.588 2.252-1.168 3.406-1.77-.324.67-.452 1.397-.93 2.074-.37.523-1.553.79-2.116 1.3v.122c1.566.082 2.94-.385 3.693-1.797.84-1.58 2.443-2.547 3.656-3.942.43-.052.764-.37.86-.768.786-.545 1.533-1.127 2.22-1.756h1.85l-3.692 8.598c-2.43 1.933-6.837-.14-9.27 2.3-1.154 1.155-1.364 2.302-2.984 2.933v.11c.655.08 1.275.133 1.855-.288 1.73-1.254 1.894-2.456 4.274-2.63 1.592-.116 3.292.095 4.88-.098-.802 1.155-1.78 2.286-2.93 3.016l-2.073 1.27c-.28-.018-.567.08-.782.296l-.226.32-2.5 1.53c-1.758.624-3.575.415-5.174 1.544-1.624 1.148-1.545 3.682-3.183 4.952l.053.122c1.642-.686 2.098-2.283 2.994-3.705.844-1.34 2.472-1.29 3.88-1.558.948-.182 1.82-.46 2.653-.802-.686 1.31-1.135 2.63-1.532 4.353l-.868 3.023c-2.073.433-4.08.8-5.703 2.305-.355.33-.57.708-.7 1.115-1.212.73-2.046 1.02-3.473 1.194-1.633.198-2.588.097-3.683 1.32l.032.096c2.38-.28 4.593.103 6.877-.457-.012.304-.032.604-.076.894-.31 2.03-1.38 2.44-3.206 3.02v.124c1.12.032 2.045.172 2.987-.55 1.235-.946 1.422-2.5 1.636-3.933l.03-.013c.447-.28.6-.852.368-1.314.744-1.184 2.5-1.54 4.06-1.727-.028.09-.042.187-.042.288l.062.534-.103.362-1.514 7.053c-.47 2.644-1.81 3.685-4.316 4.293v.142c1.428-.01 2.56-.02 3.675-1.057 1.824-1.694 1.85-4.554 2.386-6.786l.27-.664.57 4.826.352 2.542c.132 1.934.502 3.282 2.495 3.874l.06-.15c-.988-.8-1.54-1.5-1.5-2.82l-.402-12.148v-.024l.252-.623c.325-.207.517-.59.46-.998-.005-.034-.01-.067-.018-.098l1.142-4.855c.523-1.707 1.294-2.72 2.366-4.107.052-.053.098-.11.137-.17-.243 1.76-.345 3.81.947 4.88 1.29 1.065 2.925.038 2.303 2.123-.295.987-.95 1.615-1.674 2.168-.134.063-.252.152-.348.26-.797.58-1.623 1.126-2.112 1.994-.77 1.364-.37 4.297.79 5.398l.02.018h.004l.016.012-.005-.003.006.002.006.002.02.004c.026-.007.04-.037.06-.056h-.108l.05-.052c.012-.004.018.005.028.007l-.006-.004.013.01v-.004l.003-.005-.002-.017c-.198-1.455-.682-2.912-.26-4.38.187-.65.946-.983 1.516-1.29.43 1.06.934 1.34 2.494 1.216.93-.074.742 1.253.957 1.977v.145c.1.028.183-.015.242-.103.742-1.113.78-3.076-.726-3.472l-.44-.076-.67-.044-.026-.12-.103-.69c-.007-.034-.016-.07-.026-.1.972-.89 1.63-1.897 1.937-3.387.472-2.306-1.725-1.834-2.844-2.876-.947-.883.018-3.878.185-4.834.036-.153.035-.306.003-.45 1.197-.73 2.234-1.674 3.148-2.76l.598 1.34c.744 1.615.37 4.062.474 5.822.033.56.06 1.785.77 1.99l.056-.077c-.26-1.382.325-2.82.437-4.188.2-2.424-.104-3.79-.702-5.96-.026-.268-.154-.5-.342-.664.16-.242.313-.488.464-.737l.036-.03c.105-.118.176-.254.216-.397 1.382-2.393 2.415-5.08 3.323-7.583l1.574 10.9c-.212.104-.39.28-.49.516-.024.062-.083.123-.092.185l-.22.08-.7.343-.567.467c-1.21 1.235-.967 3.12-.916 4.69.054 1.683.334 1.52-1.277 1.96v.144c.595.134 1.466.53 1.964-.07 1.137-1.362.204-3.732 1.25-5.226.347-.495.872-.64 1.372-.862l.78 5.407c-.027.093-.042.193-.042.296 0 .205.06.396.166.556l.153 1.053c.232 1.458.33 2.983.44 4.513-.438.113-.76.51-.76.983l-.01.207.008-.004.01-.008.01-.005h.004l-.036.027-.107.038-.17.037c-.742.112-1.467.048-2.118.485-.45.303-.72.81-.888 1.41-1.034.03-2.402.028-3.097.688-.584.554-.113 1.2-.755 1.783v.094c.587.283 1.158.11 1.414-.542.286-.722 1.227-.442 2.177-.207-.066 1.012-.06 2.016-.234 2.665-.293 1.097-2.453 1.1-3.172 1.265-1.577.362-1.233 3.802-1.495 4.95-.003.014.017.016-.002.028l-.067.11c.112.09.245.01.32-.096.76-1.08.793-2.585 1.364-3.768l.11-.176.012-.014 1.512-.15 1.495-.36.35-.197c1.377-.747 1.164-2.623 1.427-3.9l.206-.71.026-.07c.017-.04.032-.08.045-.123l.203-.55.204-.653.307-.02.558-.01c.587-.03 1.045-.15 1.4-.372.177 1.488.454 2.945.973 4.312-.427.17-.7.614-.63 1.088l.028 2.105-.22 2.332-.056.107-.112.174-.124.21.023-.02.003.002-.03.035-.012.014-.062.106.04-.084-.025.025-.077.09c-.43.563-.24 1.566.005 2.156h.178l.11-.24.068-.24.207-.492.195-.66v.045l-.004.038-.01.038-.006.02-.003.02.022-.01.04-.023.065-.044.043-.035.058-.058.058-.077.06-.126.01.07.228-.222.194-.232.17-.46.68-3.467c1.04 1.578 2.552 3.04 4.098 4.02.743.47 1.517.45 2.123-.126l-.086-.085c-.618.33-1.218.27-1.805-.188-1.497-1.17-3.128-2.885-4.114-4.743l.05-.26c-.046-.327-.243-.595-.51-.745-.166-.425-.29-.854-.367-1.28l-.776-10.775-.042-.35c.64-.098 1.48-.167 1.68.376.786 2.13.992 3.71.888 5.934-.07 1.496.083 2.766 1.516 3.49.858.43.625.495.933 1.523l.014.04-.158-.128-.11.085c.133.24.34.938.732.99.238.033.334-.223.308-.415-.183-1.383-.053-2.2-1.258-2.983-.905-.59-.777-1.47-.646-2.465.29-2.194.22-3.736-.325-5.905-.582-2.304-1.7-2.393-3.8-2.465l-1.192-10.147.833-.06.445-.01.374.01.24.03-.013-.033.338.263.243.29.09.162c.206.394.17.906.2 1.323.076 1.097.582 1.636.835 2.616.225.875.02 2.55 1.088 2.947l.052-.078c-.488-1.41.012-2.854-.516-4.29-.407-1.1.328-2.358-.326-3.45-.993-1.656-2.435-1.684-4.114-1.687l-.677-5.77c1.475 1.97 3.632 3.496 5.685 4.838 2.086 1.365 3.888 2.926 5.49 4.693-.034.103-.052.213-.052.327l-.008.28-.047.247-.023.067-.27.08-.826.25-.46.212c-2.262 1.266-.813 5.655-.705 7.508.107 1.808-.206 3.93 2.01 3.884v-.083l-.9-.603-.05-.045-.032-.035-.007-.016.022.024-.007-.508-.035-.6.075-1.01.064-1.008.065-1.523c.103.016.21.014.32-.01l.115-.028.025-.032-.08-.074.167.064.167.06.162.08.157.01.156.01-.064-.046-.037-.05-.014-.04.547.524h.097c.32-.45.56-1.026.02-1.44l-.166-.094-.13-.087-.132-.086.163.08-.12-.13-.124-.13-.32-.176-.24-.075-.012-.142c-.12-.237-.318-.408-.55-.496l.112-2.086.006.006-.003.026-.004.016.01-.002.104-.05.218-.077c1.17-.297 1.797-.504 2.173-1.134.935 1.208 1.8 2.5 2.614 3.88.47.795.885 1.668 1.275 2.58-.004.032-.006.065-.006.098l-1.05 6.156c-.116.38-.317.72-.545 1.05-.167-.412-.592-.68-1.056-.628l-5.074 1.253v.09l5.187.662c-.126.23-.23.475-.294.738-.294 1.195.014 2.48.053 3.692l.098.098c.08-.062.14-.126.183-.222.693-1.607.396-3.08 1.55-4.56 1.29-1.66 1.88-3.277 2.307-5.056.183.456.37.912.564 1.362-.01.122.004.247.042.37.064.206.188.378.347.502l.165.348c-.05.12-.077.25-.077.387.304 2.75 1.415 5.437-.094 7.84-.79 1.256-.59 2.78-.552 4.217l.062.093c.65-.284.72-1.846.825-2.342.19-.894.622-1.214 1.174-1.923.986-1.266 1.015-3.035.877-4.768.48.55 1.01 1.046 1.608 1.476 1.75 1.256 4.58 1.132 6.588 1.9l.076-.114c-2.843-1.626-6.063-1.322-7.796-4.478-.244-.444-.48-.89-.71-1.34-.013-.192-.022-.38-.025-.56 0-.28-.114-.533-.296-.716 1.81-.337 4.623-.913 5.804.356.12.127.204.275.27.437-.022.173.003.355.08.526.027.063.06.12.098.176.127.69.217 1.403 1.03 1.684l.002-.004-.006-.015-.004-.017.3.6.414.586.27.257c.344.3.744.4 1.184.425.665.04 3.22.542 3.253-.73l-.133-.026c-.798.974-3.466.087-3.986-1.024-.27-.578-.66-.936-.906-1.41l4.6-.387c1.078-.098 1.617-.314 1.203-1.487h-.103l-.302.49-.036.06-.33-.054-.433-.065-.853-.157c-1.505-.252-2.837-.42-4.32-.29-1.313-2.66-5.457-1.993-8.282-1.75-.39-.84-.773-1.68-1.157-2.518.077-.387.154-.784.237-1.192 0-.562-.455-1.017-1.016-1.017-.078 0-.156.01-.23.028-1.91-4.044-4.034-7.938-7.445-11.19-2.224-2.12-5.805-3.665-7.942-6.15.76.505 1.61.95 2.575 1.335 2.598 1.04 5.114.778 7.765 1.36 2.336.514 4.51 1.422 6.54 2.598-.015.037-.028.075-.038.113l-.58 6.645c.006.494.53.9.664 1.365.293 1.036 1.247 3.08.68 4.2l.05.117c.166-.04.3-.09.393-.25.792-1.355.34-3.786-.184-5.17-.637-1.68.333-4.12.813-5.882 1.857 1.27 3.583 2.75 5.19 4.328-1.543 1.523-1.18 3.38-.987 5.554.122 1.383.57 3.392-1.022 4.08v.102c.904.295 1.117-.148 1.712-.81 1.757-1.962-.635-6.01 1.696-7.496.484.512.956 1.03 1.417 1.55.737.837 1.37 1.795 2.307 2.402l1.105.53 1.44.386.835.11c.006.075.02.15.045.223.168.53.733.827 1.264.665 1.237 2.748 2.57 4.84 5.852 4.945v-.118c-.97-.2-2.013-.356-2.77-1.077-1.203-1.152-1.687-2.483-2.268-3.902 1.593-.174 2.81.396 4.537.7.852.15 4.668.86 5.25-.526l-.085-.068c-.297.075-.56.093-.87.052-3.558-.488-6.633-2.505-10.25-1.948-.05.016-.096.035-.14.058-.822-.205-1.845-.166-2.488-.415-2.294-.893-3.162-3.58-4.762-5.225-.852-.876-1.753-1.74-2.7-2.574 1.125-.05 2.224-.154 3.36-.46 1.265-.34 2.452-1.12 3.815-.9 1.053.168 1.99.798 3.04 1.007 3.25.65 3.695-3.254 3.833-5.718.047-.857.007-2.027-.724-2.617l-.09.09c.86 2.074-.434 5.01-1.365 6.77-.342.647-1.615.076-1.99-.072-2.248-.888-3.428-1.244-5.893-.623-2.02.51-3.677.586-5.785.547-.17 0-.328.042-.468.115-3.018-2.3-6.4-4.172-10.015-5.047l-.684-.098c1.34-1.134 2.81-2.44 4.43-2.694 2.758-.432 3.06 1.824 4.425 3.6 1.152 1.5 3.423 1.33 5.045.915 3.312-.848 3.63-2.96 4.05-5.93l-.12-.05c-.448 1.153-.693 3.07-1.75 3.898-1.263.99-4.567 1.943-5.892.596-1.59-1.617-1.43-4.046-4.055-4.646-3.355-.767-5.732 1.8-8.276 3.485-.207.1-.366.26-.464.45l-2.42-.348c-3.142-.898-5.394-2.546-7.044-5.138v-40.35zm33.79 69.675l-.048.032-.02.024-.008.025.014-.003.06-.074v-.003zm-34.612-12.39l.018-.005-.005-.004-.013.01zm.328 16.46l.008-.02.012-.044-.02.065zm-5.506 6.867l.014-.007.01-.01.004-.005-.015.01-.013.012zm7.538 3.282l.022-.023.017-.03v.002l-.034.04-.004.01zm9.164-22.923l-.13-.046-.073-.022-.105-.02-.123-.005.142.025.23.05.06.02z" fill="#730000"/><path d="M200.59 106.508c-25.793 16.497-27.047 53.01 0 68.88 27.05-15.87 25.796-52.383 0-68.88z" fill="#0f0"/><path d="M200.696 103.31l-.104.064-.105-.065v.127c-29.195 17.4-30.478 58.25 0 74.96v.117l.105-.06.104.06v-.118c30.478-16.71 29.195-57.558 0-74.96v-.127zm19.7 37.574l-18.47 10.533v-24.22l11.14-8.747c4.704 6.784 7.18 14.617 7.33 22.434zm-18.47 13.568l18.41-10.465c-.703 11.763-6.724 23.175-18.41 30.585v-20.12zm-21.143-13.4l18.475 10.535v-24.303l-11.18-8.778c-4.712 6.82-7.175 14.694-7.295 22.546zm18.475 13.57l-18.4-10.46c.75 11.7 6.77 23.037 18.4 30.41v-19.95zm12.22-38.314l-9.552 7.534v-16.445c3.743 2.58 6.932 5.598 9.553 8.91zm-21.817.053l9.598 7.567v-16.53c-3.765 2.594-6.968 5.63-9.597 8.964z"/><path d="M119.004 167.18c8.905 29.293 43.718 40.375 66.313 18.63-7.965-30.334-43.455-39.002-66.313-18.63z" fill="#0f0"/><path d="M115.953 166.214l.033.117-.09.085.123.034c8.856 32.813 47.835 45.095 72.164 20.272l.114.032-.03-.116.086-.085-.113-.032c-7.842-33.86-47.515-43.674-72.164-20.272l-.123-.034zm41.502-8.806l5.145 20.632-23.317-6.55-5.408-13.09c7.803-2.695 16.013-2.96 23.58-.992zm8.067 21.454l-5.096-20.554c11.135 3.856 20.492 12.74 24.466 25.996l-19.37-5.442zm-18.62 16.73l15.14-14.937-23.398-6.573-11.474 8.388c5.29 6.38 12.206 10.882 19.733 13.122zm18.06-14.116l-15.045 14.883c11.468 2.442 24.01-.288 34.254-9.488l-19.207-5.396zm-33.578-22.128l4.668 11.234-15.832-4.447c3.498-2.907 7.265-5.16 11.164-6.787zm-5.85 21.018l9.88-7.19-15.915-4.472c1.478 4.324 3.534 8.23 6.033 11.662z"/><path d="M282.18 167.18c-8.907 29.293-43.72 40.375-66.314 18.63 7.964-30.334 43.454-39.002 66.313-18.63z" fill="#0f0"/><path d="M285.23 166.214l-.034.117.09.085-.123.034c-8.856 32.813-47.835 45.095-72.165 20.272l-.113.032.028-.116c-.027-.03-.057-.056-.085-.085l.114-.032c7.843-33.86 47.516-43.674 72.165-20.272l.123-.034zm-41.502-8.806l-5.146 20.632 23.317-6.55 5.407-13.09c-7.803-2.695-16.012-2.96-23.58-.992zm-8.067 21.454l5.097-20.554c-11.136 3.856-20.493 12.74-24.467 25.996l19.37-5.442zm18.62 16.73l-15.14-14.937 23.398-6.573 11.475 8.388c-5.292 6.38-12.206 10.882-19.734 13.122zm-18.06-14.116l15.045 14.883c-11.468 2.442-24.01-.288-34.253-9.488l19.207-5.396zm33.58-22.128l-4.67 11.234 15.832-4.447c-3.497-2.907-7.264-5.16-11.163-6.787zm5.85 21.018l-9.88-7.19 15.914-4.472c-1.48 4.324-3.535 8.23-6.034 11.662z"/><path d="M136.21 157.67v-.002c-.158.045-.317.09-.474.137.157-.046.316-.09.475-.136zm-1.133.335c-.195.06-.39.122-.584.186.194-.063.39-.125.584-.185zm-1.146-2.446l-32.237-29.852-8.945 9.66 28.632 26.512c3.972-2.827 8.208-4.927 12.55-6.32zm-2.546 3.788c-.21.087-.417.175-.625.266.207-.09.416-.18.624-.266zm-1.164.506c-.226.102-.45.207-.674.312.224-.106.448-.21.674-.312zm-1.187.56c-.24.116-.477.236-.715.358.238-.122.476-.242.715-.358zm-1.178.6c-.244.13-.488.26-.73.395.242-.136.486-.267.73-.396zm-1.162.637c-.253.145-.506.292-.758.442.252-.15.505-.297.758-.44zm-1.15.678c-.258.157-.513.316-.77.48.257-.164.512-.323.77-.48zm-1.156.73c-.262.17-.524.345-.784.523.26-.176.522-.352.784-.523zM279.786 308.552l8.944-9.66-35.898-33.24c-3.15 3.112-6.58 5.944-10.248 8.454l37.202 34.446zM152.528 268.864l-14.834 15.7.034.033-32.303 8.293-6.262 6.262 32.142 30.372 6.264-6.263 8.83-30.53-.053-.05 15.806-16.726c-3.402-2.106-6.62-4.478-9.625-7.09zm-40.433 30.328l24.81-6.565-6.302 24.052-18.508-17.488zM284.53 146.436l-8.625-8.15-14.894 15.764c4.243.708 8.453 2.05 12.494 4.054l11.025-11.668zm-25.762 9.99l.395.05-.395-.05zm7.948 1.774c-.215-.07-.43-.14-.645-.207.216.066.43.136.646.207zm-1.244-.388c-.205-.06-.41-.118-.614-.175.205.057.41.115.614.175zm-1.26-.35c-.203-.053-.408-.104-.61-.154.202.05.406.1.61.154zm-1.236-.302c-.203-.046-.408-.092-.61-.135.202.043.406.088.61.135zm-1.28-.27c-.197-.04-.394-.076-.59-.113l.59.112zm-1.24-.224c-.193-.032-.387-.06-.58-.09.193.028.387.06.58.09zm11.125 3.475c-.193-.092-.387-.182-.582-.27.195.088.39.18.583.27zm-1.194-.542c-.196-.085-.39-.168-.587-.25h-.002c.197.082.392.164.588.25z" fill="#c93"/><path d="M69.13 199.337s11.115-45.004 32.452-65.623c21.337-20.62 60.423-35.5 60.423-35.5s-33.35 26.356-50.382 46.078C94.59 164.015 69.13 199.337 69.13 199.337zM257.366 120.77l22.87-22.87s8.79-5.664 23.047-4.883c14.257.78 22.655 2.343 22.655 2.343s1.758 12.305 1.563 21.68c-.195 9.374-.585 19.92-4.2 23.534-3.61 3.614-21.85 21.85-21.85 21.85l-44.084-41.654z" fill="#4c4c4c"/><path d="M279.846 132.47l28.357-18.583-18.2 26.394-2.345-1.562 12.11-16.405-17.383 11.718-2.54-1.56z" fill="#b2b2b2"/></g></svg>