<svg xmlns="http://www.w3.org/2000/svg" width="400" height="108.706"><path d="M68.365 16.923C51.36 17.347 36.31 29.74 32.96 47.363c-3.84 20.25 9.238 39.73 29.193 43.52 2.014.376 4.01.573 5.99.616-10.17 6.678-21.406 17.206-21.406 17.206s-.922-7.858-2.8-10.9c-4.085-6.634-19.077 1.255-19.077 1.255s5.836-12.34 1.896-17.796c-5.6-7.75-19.87-2.328-19.87-2.328s11.653-9.632 9.683-18.692C14.94 52.787 0 47.156 0 47.156s20.706-.943 22.71-8.173c2.015-7.238-10.544-19.15-10.544-19.15s18.155 5.774 24.467.414C42.95 14.88 38.957 0 38.957 0s5.85 10.785 29.408 16.923" fill="#f03b2f"/><path d="M85.055 54.553c-1.878.69-4.617 1.415-8.208 2.188-3.59.77-6.08 1.338-7.457 1.696-1.37.354-2.695 1.066-3.95 2.11-1.253 1.057-1.877 2.52-1.877 4.4 0 1.943.734 3.603 2.21 4.966 1.468 1.363 3.403 2.044 5.784 2.044 2.542 0 4.88-.555 7.033-1.67 2.15-1.117 3.717-2.545 4.726-4.31 1.158-1.935 1.74-5.137 1.74-9.59v-1.833zm.843 18.583c-3.106 2.415-6.098 4.22-9 5.43-2.908 1.205-6.167 1.812-9.77 1.812-3.29 0-6.186-.65-8.676-1.952s-4.412-3.062-5.758-5.29c-1.35-2.233-2.022-4.644-2.022-7.247 0-3.518 1.11-6.506 3.337-8.987 2.223-2.477 5.29-4.137 9.177-4.99.813-.182 2.835-.606 6.06-1.266 3.232-.664 6.005-1.262 8.308-1.808 2.306-.556 4.805-1.224 7.5-2.006-.162-3.386-.834-5.862-2.04-7.457-1.22-1.577-3.71-2.372-7.51-2.372-3.258 0-5.704.454-7.36 1.363-1.647.91-3.053 2.272-4.233 4.09-1.175 1.825-2.005 3.022-2.49 3.603-.485.586-1.53.87-3.132.87-1.44 0-2.686-.463-3.743-1.39-1.053-.92-1.573-2.105-1.573-3.55 0-2.255.795-4.456 2.398-6.584 1.603-2.13 4.098-3.883 7.483-5.272 3.386-1.372 7.6-2.062 12.65-2.062 5.64 0 10.087.66 13.31 1.996 3.238 1.328 5.523 3.442 6.855 6.32 1.328 2.89 1.996 6.724 1.996 11.486 0 3.01-.008 5.56-.026 7.666-.008 2.097-.043 4.438-.07 7.007 0 2.42.393 4.936 1.197 7.553.8 2.616 1.202 4.302 1.202 5.058 0 1.31-.626 2.512-1.862 3.6-1.245 1.08-2.634 1.62-4.216 1.62-1.31 0-2.616-.62-3.896-1.86-1.28-1.24-2.648-3.037-4.098-5.382M151.475 55.21v17.07c0 2.7-.616 4.723-1.844 6.073-1.218 1.35-2.83 2.027-4.835 2.027-1.948 0-3.525-.677-4.726-2.027-1.216-1.35-1.81-3.373-1.81-6.072V51.825c0-3.228-.113-5.74-.336-7.527-.21-1.786-.817-3.254-1.782-4.4-.97-1.143-2.516-1.715-4.613-1.715-4.2 0-6.973 1.445-8.297 4.33-1.345 2.886-1.996 7.018-1.996 12.413V72.28c0 2.674-.612 4.684-1.817 6.05-1.21 1.36-2.8 2.05-4.78 2.05-1.943 0-3.53-.69-4.765-2.05-1.25-1.366-1.852-3.376-1.852-6.05V35.548c0-2.415.546-4.254 1.655-5.5 1.114-1.257 2.582-1.882 4.4-1.882 1.76 0 3.227.585 4.403 1.756 1.17 1.176 1.76 2.805 1.76 4.876v1.22c2.224-2.662 4.605-4.623 7.148-5.88 2.542-1.255 5.368-1.875 8.474-1.875 3.224 0 6.007.643 8.317 1.923 2.32 1.284 4.232 3.233 5.735 5.832 2.176-2.634 4.486-4.583 6.968-5.854 2.476-1.27 5.224-1.9 8.234-1.9 3.508 0 6.535.682 9.086 2.072 2.534 1.37 4.42 3.346 5.683 5.923 1.092 2.32 1.638 5.972 1.638 10.956v25.07c0 2.7-.607 4.723-1.834 6.073-1.22 1.35-2.83 2.027-4.836 2.027-1.948 0-3.534-.69-4.78-2.05-1.235-1.366-1.86-3.376-1.86-6.05V50.698c0-2.76-.11-4.976-.34-6.636-.24-1.667-.88-3.057-1.905-4.188-1.04-1.13-2.61-1.69-4.71-1.69-1.695 0-3.312.502-4.827 1.498-1.52 1.01-2.696 2.36-3.552 4.05-.938 2.175-1.405 5.993-1.405 11.48" fill="#f03b2f"/><path d="M354.49 16.317c-1.118 0-2.236.044-3.337.13v.006c-1.38.026-2.49 1.118-2.49 2.463 0 .983.6 1.835 1.477 2.224 12.03 6.5 20.16 18.902 20.16 33.134 0 14.18-8.077 26.542-20.05 33.06-.962.35-1.657 1.24-1.657 2.297 0 1.364 1.145 2.465 2.56 2.465.026 0 .044-.005.07-.005 1.083.083 2.167.136 3.268.136 21.755 0 39.394-16.997 39.394-37.952 0-20.964-17.64-37.957-39.393-37.957M315.696 55.21v17.07c0 2.7-.616 4.723-1.843 6.073-1.22 1.35-2.84 2.027-4.836 2.027-1.957 0-3.525-.677-4.735-2.027-1.206-1.35-1.81-3.373-1.81-6.072V51.825c0-3.228-.112-5.74-.326-7.527-.22-1.786-.826-3.254-1.79-4.4-.97-1.143-2.51-1.715-4.614-1.715-4.198 0-6.963 1.445-8.296 4.33-1.336 2.886-1.996 7.018-1.996 12.413V72.28c0 2.674-.612 4.684-1.81 6.05-1.217 1.36-2.803 2.05-4.778 2.05-1.943 0-3.538-.69-4.774-2.05-1.24-1.366-1.86-3.376-1.86-6.05V35.548c0-2.415.554-4.254 1.672-5.5 1.11-1.257 2.573-1.882 4.39-1.882 1.76 0 3.228.585 4.395 1.756 1.18 1.176 1.77 2.805 1.77 4.876v1.22c2.222-2.662 4.603-4.623 7.154-5.88 2.533-1.255 5.36-1.875 8.456-1.875 3.233 0 6.016.643 8.326 1.923 2.32 1.284 4.242 3.233 5.745 5.832 2.167-2.634 4.486-4.583 6.96-5.854 2.484-1.27 5.223-1.9 8.233-1.9 3.508 0 6.535.682 9.086 2.072 2.525 1.37 4.43 3.346 5.683 5.923 1.09 2.32 1.646 5.972 1.646 10.956v25.07c0 2.7-.616 4.723-1.835 6.073-1.226 1.35-2.838 2.027-4.843 2.027-1.948 0-3.534-.69-4.77-2.05-1.237-1.366-1.86-3.376-1.86-6.05V50.698c0-2.76-.12-4.976-.35-6.636-.24-1.667-.87-3.057-1.905-4.188-1.04-1.13-2.608-1.69-4.7-1.69-1.696 0-3.312.502-4.828 1.498-1.52 1.01-2.712 2.36-3.55 4.05-.95 2.175-1.408 5.993-1.408 11.48M250.12 54.032c0-3.38-.512-6.29-1.552-8.724-1.035-2.428-2.468-4.294-4.312-5.595-1.826-1.307-3.866-1.953-6.08-1.953-3.552 0-6.53 1.398-8.96 4.185-2.442 2.796-3.652 6.902-3.652 12.327 0 5.116 1.21 9.082 3.635 11.917 2.406 2.843 5.398 4.263 8.976 4.263 2.13 0 4.11-.62 5.92-1.866 1.816-1.232 3.284-3.088 4.376-5.57 1.1-2.476 1.647-5.468 1.647-8.985m-25.163-18.675v1.555c2.416-2.98 4.923-5.172 7.527-6.565 2.603-1.394 5.543-2.084 8.837-2.084 3.954 0 7.59 1.014 10.913 3.05 3.33 2.044 5.958 5.02 7.885 8.937 1.926 3.918 2.883 8.57 2.883 13.926 0 3.95-.554 7.58-1.655 10.886-1.122 3.307-2.642 6.085-4.586 8.326-1.958 2.24-4.243 3.967-6.9 5.177-2.65 1.21-5.5 1.812-8.54 1.812-3.673 0-6.748-.738-9.238-2.21-2.49-1.476-4.87-3.643-7.125-6.49V90.96c0 5.648-2.053 8.46-6.177 8.46-2.398 0-4-.728-4.787-2.183-.79-1.46-1.176-3.587-1.176-6.374V35.453c0-2.44.538-4.272 1.604-5.477 1.058-1.21 2.526-1.813 4.36-1.813 1.835 0 3.31.616 4.456 1.856 1.15 1.24 1.72 3.013 1.72 5.337M202.47 43.81c0 2.923-2.364 5.295-5.3 5.295-2.918 0-5.29-2.372-5.29-5.294 0-2.92 2.372-5.293 5.29-5.293 2.936 0 5.3 2.372 5.3 5.294M202.47 71.898c0 2.922-2.364 5.294-5.3 5.294-2.918 0-5.29-2.372-5.29-5.294 0-2.923 2.372-5.286 5.29-5.286 2.936 0 5.3 2.363 5.3 5.286M392.28 19.364h-4.513v-.9h4.512v.9z" fill="#1b2244"/><path d="M390.468 25.873h-.894v-6.96h.894v6.96zM396.776 25.873l-.852-.01-1.708-4.857-.42 4.867h-.943l.664-7.41h.896l1.96 6.043 1.97-6.042h.84L400 25.92h-.96l-.464-4.98-1.8 4.933z" fill="#1b2244"/></svg>