<svg xmlns="http://www.w3.org/2000/svg" width="400" height="305.344"><path d="M38.115 243.58c.664.057 1.386.086 2.137.115.765.014 1.862.03 3.334.03h4.576c1.718 0 2.96-.016 3.725-.03.765-.03 1.458-.058 2.078-.116l-7.925-14.667-7.925 14.666zM20.13 266.343v-.36c1.76-.997 3.694-2.83 5.787-5.515 2.094-2.672 4.244-6.064 6.453-10.178l16.875-30.82h.592l17.54 30.488c.288.49.706 1.212 1.255 2.165 4.518 7.925 8.127 12.544 10.798 13.858v.36c-1.43-.07-2.787-.13-4.057-.172-1.27-.028-2.483-.057-3.652-.057-2.727 0-5.008.03-6.87.058-1.848.044-3.667.102-5.442.174l-.044-.36c1.3-.405 2.194-.867 2.7-1.416.505-.548.765-1.342.765-2.396 0-.693-.203-1.573-.622-2.656-.404-1.068-1.213-2.743-2.425-5.038l-4.663-9.008c-.765-.043-1.515-.086-2.252-.1-.72-.03-1.56-.044-2.468-.044h-8.416c-1.24 0-2.21.014-2.887.043-.68.014-1.314.057-1.906.1l-2.655 5.428c-1.183 2.382-2.078 4.417-2.7 6.077-.605 1.675-.91 2.974-.91 3.927 0 1.3.377 2.338 1.127 3.132.737.81 1.935 1.444 3.595 1.95v.36c-.823-.072-1.732-.13-2.728-.173-1.012-.028-2.513-.057-4.49-.057-1.748 0-3.25.03-4.505.058-1.27.044-2.526.102-3.796.174" fill="#231f20"/><path d="M79.046 266.315l-.044-.62c2.483-.94 4.215-2.613 5.21-5.04.997-2.41 1.488-6.552 1.488-12.427v-18.174c0-3.06-.375-5.153-1.14-6.28-.75-1.11-2.108-1.977-4.042-2.597v-.506c1.285.03 2.512.044 3.695.072 1.17.03 2.267.044 3.292.044 1.69 0 3.017-.015 4.013-.03.996 0 1.977-.028 2.945-.042 2.064 4.547 4.532 9.527 7.376 14.91 2.843 5.386 6.322 11.68 10.465 18.883l16.24-33.837h1.183c2.223.072 3.725.116 4.547.116 1.343 0 3.508-.044 6.51-.116h.636v.506c-1.616.26-2.742.938-3.348 2.078-.62 1.155-.924 3.335-.924 6.583v20.99c0 5.932.36 9.772 1.054 11.518.693 1.76 2.08 2.873 4.143 3.35v.62c-1.487-.072-2.974-.13-4.446-.16-1.46-.042-3.235-.056-5.328-.056-1.37 0-2.83.013-4.36.056-1.53.03-3.117.087-4.792.16l-.03-.622c2.05-.447 3.437-1.53 4.16-3.276.72-1.718 1.067-5.76 1.067-12.112v-25.19l-20.18 42.31h-.55c-3.42-7.766-6.827-15.1-10.234-21.985-3.42-6.9-6.727-13.193-9.946-18.88v20.296c0 6.958.462 11.592 1.4 13.873.953 2.294 2.656 3.94 5.14 4.964l-.044.62c-1.545-.07-2.916-.13-4.13-.158-1.21-.043-2.222-.057-3.016-.057-1.3 0-2.627.013-3.97.056-1.328.03-2.685.087-4.04.16M198.022 261.147c-3.248 2.166-6.683 3.753-10.307 4.778-3.623 1.01-7.607 1.53-11.952 1.53-8.416 0-15.258-2.237-20.556-6.712-5.298-4.475-7.94-10.32-7.94-17.54 0-7.072 2.642-12.79 7.94-17.163 5.298-4.388 12.198-6.568 20.715-6.568 3.84 0 7.506.448 11.014 1.328 3.493.895 6.712 2.194 9.628 3.927l-2.598 8.473-.736-.16c-1.27-4.026-3.22-7.03-5.86-9.006-2.643-1.978-6.05-2.96-10.22-2.96-6.05 0-10.857 1.993-14.422 5.99-3.566 4-5.34 9.4-5.34 16.183 0 6.915 1.79 12.43 5.354 16.558 3.58 4.114 8.3 6.178 14.176 6.178 4.475 0 8.27-1.227 11.39-3.68 3.132-2.455 5.124-5.76 5.99-9.933l.75-.115 2.974 8.892zM243.985 241l.03-14.364c0-1.63-.348-2.9-1.055-3.81-.722-.896-1.79-1.487-3.248-1.762v-.534c1.487.1 2.945.173 4.388.217 1.43.03 2.844.058 4.23.058 1.43 0 2.858-.03 4.316-.058 1.458-.044 2.916-.116 4.403-.217v.534c-1.53.246-2.643.823-3.35 1.718-.708.88-1.054 2.18-1.054 3.854v23.69c0 6.22.36 10.234 1.068 12.024.708 1.79 2.093 2.916 4.13 3.363v.62c-2.094-.07-3.957-.13-5.588-.158-1.63-.043-3.046-.072-4.258-.072-1.43 0-2.916.03-4.46.072-1.545.03-3.12.087-4.75.16l-.043-.622c2.05-.39 3.42-1.472 4.143-3.248.736-1.775 1.097-5.817 1.097-12.14v-7.39c-1.083-.06-2.18-.088-3.277-.116-1.097-.016-2.526-.03-4.302-.03h-13.338c-1.76 0-3.22.014-4.33.03-1.112.027-2.21.056-3.278.114v7.39c0 6.194.36 10.192 1.083 11.968.722 1.79 2.136 2.93 4.244 3.42v.622c-2.122-.072-4.013-.13-5.644-.16-1.646-.042-3.046-.07-4.244-.07-1.445 0-2.932.028-4.505.07-1.56.03-3.16.088-4.793.16v-.62c2.036-.448 3.407-1.53 4.13-3.25.706-1.73 1.067-5.773 1.067-12.14v-23.688c0-1.63-.347-2.872-1.01-3.724-.68-.866-1.82-1.472-3.394-1.848v-.534c1.502.1 2.974.173 4.46.217 1.473.03 2.917.058 4.33.058 1.416 0 2.845-.03 4.274-.058 1.444-.044 2.916-.116 4.403-.217v.534c-1.573.304-2.7.88-3.378 1.747-.678.867-1.025 2.152-1.025 3.826V241c1.242.057 2.512.1 3.797.13 1.3.043 2.555.057 3.81.057h13.34c.476 0 1.327-.014 2.583-.057 1.242-.03 2.916-.073 4.995-.13M276.846 243.58c.678.057 1.385.086 2.15.115.75.014 1.863.03 3.32.03h4.577c1.717 0 2.96-.016 3.724-.03.765-.03 1.472-.058 2.093-.116l-7.94-14.667-7.924 14.666zm-17.987 22.764v-.36c1.76-.997 3.68-2.83 5.788-5.515 2.093-2.672 4.244-6.064 6.452-10.178l16.875-30.82h.592l17.54 30.488c.288.49.72 1.212 1.27 2.165 4.503 7.925 8.112 12.544 10.783 13.858v.36c-1.43-.07-2.786-.13-4.057-.172-1.255-.028-2.482-.057-3.637-.057-2.743 0-5.024.03-6.872.058-1.847.044-3.666.102-5.456.174l-.03-.36c1.286-.405 2.18-.867 2.686-1.416.52-.548.765-1.342.765-2.396 0-.693-.203-1.573-.607-2.656-.42-1.068-1.227-2.743-2.44-5.038l-4.648-9.008c-.78-.043-1.53-.086-2.252-.1-.736-.03-1.56-.044-2.483-.044h-8.416c-1.24 0-2.194.014-2.887.043-.678.014-1.313.057-1.905.1l-2.642 5.428c-1.198 2.382-2.093 4.417-2.7 6.077-.62 1.675-.91 2.974-.91 3.927 0 1.3.362 2.338 1.113 3.132.736.81 1.934 1.444 3.61 1.95v.36c-.824-.072-1.748-.13-2.744-.173-1.012-.028-2.5-.057-4.49-.057-1.733 0-3.234.03-4.504.058-1.27.044-2.527.102-3.797.174" fill="#231f20"/><path d="M317.773 266.315l-.043-.62c2.482-.94 4.23-2.613 5.225-5.04.982-2.41 1.487-6.552 1.487-12.427v-18.174c0-3.06-.39-5.153-1.14-6.28-.765-1.11-2.108-1.977-4.057-2.597v-.506c1.285.03 2.512.044 3.696.072 1.184.03 2.282.044 3.292.044 1.69 0 3.03-.015 4.013-.03.996 0 1.978-.028 2.945-.042 2.08 4.547 4.533 9.527 7.376 14.91 2.844 5.386 6.338 11.68 10.466 18.883l16.24-33.837h1.198c2.21.072 3.724.116 4.547.116 1.328 0 3.508-.044 6.51-.116h.636v.506c-1.63.26-2.743.938-3.35 2.078-.62 1.155-.923 3.335-.923 6.583v20.99c0 5.932.346 9.772 1.04 11.518.707 1.76 2.078 2.873 4.157 3.35v.62c-1.502-.072-2.974-.13-4.446-.16-1.472-.042-3.247-.056-5.34-.056-1.372 0-2.815.013-4.346.056-1.53.03-3.132.087-4.792.16l-.043-.622c2.063-.447 3.45-1.53 4.156-3.276.722-1.718 1.083-5.76 1.083-12.112v-25.19l-20.182 42.31h-.563c-3.407-7.766-6.828-15.1-10.235-21.985-3.407-6.9-6.727-13.193-9.946-18.88v20.296c0 6.958.477 11.592 1.415 13.873.937 2.294 2.64 3.94 5.123 4.964l-.043.62c-1.53-.07-2.916-.13-4.128-.158-1.2-.043-2.21-.057-3.003-.057-1.315 0-2.643.013-3.97.056-1.343.03-2.686.087-4.057.16M62.718 291.91v.88c0 4.245.274 7.074.837 8.475.548 1.414 1.588 2.44 3.09 3.074l-.015.26c-.94-.044-1.762-.073-2.483-.102-.708-.014-1.314-.03-1.805-.03-.78 0-1.573.016-2.367.03-.81.03-1.63.058-2.454.1v-.26c1.502-.605 2.556-1.673 3.133-3.203.578-1.53.866-4.605.866-9.224v-9.455c0-1.79-.23-3.03-.665-3.71-.433-.692-1.24-1.255-2.41-1.66v-.36c.36 0 .866.014 1.53.043 1.314.03 2.194.043 2.584.043h2.265c.606-.013 1.198-.028 1.805-.042 3.608 4.2 10.06 10.51 19.343 18.925.173.158.318.274.404.346v-6.872c0-4.735-.288-7.795-.85-9.18-.55-1.372-1.59-2.37-3.09-2.975l.028-.332c.303.016.75.044 1.343.073 1.458.073 2.44.116 2.93.116 1.04 0 2.613-.06 4.706-.19h.13v.333c-1.516.592-2.555 1.63-3.132 3.133-.578 1.5-.867 4.504-.867 9.022v16.095h-.418c-2.757-3.147-6.207-6.8-10.322-10.97-4.128-4.158-8.834-8.763-14.117-13.786v11.404zM100.83 294.9v.244c0 3.61.23 5.962.663 7.045.447 1.096 1.313 1.79 2.598 2.106v.332c-.908-.043-1.832-.086-2.742-.1-.924-.03-2.035-.044-3.334-.044-1.4 0-2.512.014-3.35.043-.822.015-1.616.058-2.367.1v-.33c1.27-.29 2.137-.968 2.584-2.065.463-1.083.68-3.522.68-7.333v-14.466c0-.98-.217-1.732-.636-2.266-.418-.534-1.11-.91-2.093-1.126v-.36c.94.042 1.85.086 2.73.115.895.03 1.76.043 2.627.043.852 0 1.732-.014 2.627-.043.895-.03 1.82-.073 2.743-.116v.362c-.938.16-1.63.52-2.064 1.054-.448.548-.664 1.328-.664 2.338V294.9zM137.394 301.462c-1.95 1.3-4 2.267-6.164 2.873-2.166.62-4.562.938-7.16.938-5.038 0-9.138-1.37-12.3-4.1-3.175-2.742-4.763-6.322-4.763-10.74 0-4.3 1.588-7.794 4.764-10.465 3.162-2.685 7.29-4.013 12.386-4.013 2.31 0 4.504.26 6.597.794 2.093.548 4.013 1.327 5.774 2.352l-1.56 5.168-.446-.072c-.75-2.483-1.92-4.302-3.507-5.515-1.573-1.198-3.61-1.804-6.12-1.804-3.624 0-6.496 1.226-8.633 3.68-2.122 2.454-3.19 5.76-3.19 9.917 0 4.215 1.068 7.593 3.205 10.134 2.136 2.527 4.98 3.797 8.488 3.797 2.67 0 4.95-.75 6.813-2.252 1.877-1.5 3.075-3.522 3.594-6.077l.448-.072 1.776 5.456zM149.13 290.718c.405.03.824.058 1.286.072.447.015 1.11.015 1.992.015h2.728c1.025 0 1.76 0 2.223-.015.46-.014.865-.043 1.24-.072l-4.734-8.993-4.735 8.993zm-10.768 13.887v-.274c1.054-.605 2.21-1.717 3.465-3.348 1.256-1.617 2.54-3.667 3.854-6.15l10.106-18.88h.346l10.48 18.678c.174.29.433.722.75 1.3 2.7 4.792 4.85 7.592 6.454 8.4v.275c-.852-.043-1.675-.087-2.426-.1-.75-.03-1.486-.044-2.18-.044-1.63 0-2.987.015-4.1.044-1.11.014-2.193.058-3.26.1l-.016-.273c.765-.23 1.3-.52 1.602-.85.318-.333.462-.81.462-1.444 0-.433-.13-.968-.375-1.632-.245-.635-.722-1.66-1.443-3.046l-2.786-5.456c-.462-.03-.91-.058-1.343-.072-.432-.015-.923-.015-1.486-.015h-5.023c-.736 0-1.313 0-1.717.015-.404.014-.794.043-1.155.072l-1.573 3.277c-.708 1.442-1.242 2.684-1.617 3.694-.36 1.01-.55 1.805-.55 2.382 0 .78.232 1.415.665 1.89.448.492 1.17.882 2.15 1.185v.275c-.49-.043-1.024-.087-1.63-.1-.606-.03-1.5-.044-2.685-.044-1.04 0-1.934.015-2.7.044-.75.014-1.5.058-2.266.1M182.786 289.165c.418.014.85.03 1.3.058.46.014.706.03.75.03 2.165 0 3.897-.045 5.167-.117 1.256-.072 2.28-.173 3.06-.332 1.502-.274 2.715-.91 3.653-1.89.938-.983 1.4-2.137 1.4-3.465 0-1.92-.837-3.35-2.497-4.274-1.676-.924-4.288-1.386-7.84-1.386-.794 0-1.587.014-2.396.03-.794.013-1.66.028-2.598.056v11.29zm-8.257 15.417v-.332c1.197-.303 2.02-.953 2.438-1.95.42-.995.62-3.478.62-7.447v-14.205c0-1.126-.2-1.992-.62-2.555-.418-.577-1.082-.91-1.977-1.025v-.318c.535.015 1.33.03 2.354.03 1.053.014 3.147.014 6.308.014h5.962c5.052 0 8.72.52 11 1.573 2.295 1.054 3.435 2.714 3.435 4.98 0 2.05-1.01 3.667-3.003 4.836-2.007 1.184-4.836 1.82-8.488 1.89 2.51.276 4.517.868 6.004 1.763 1.5.895 2.67 2.208 3.522 3.926.36.765.837 1.848 1.415 3.248 1.27 3.09 2.556 4.792 3.87 5.08v.45c-.232 0-.578-.016-1.04-.03-1.602-.043-2.7-.058-3.29-.058-.55 0-1.127 0-1.705.015-.592 0-1.198.014-1.862.028-.577-1.256-1.285-3.103-2.136-5.528-.838-2.41-1.574-4.086-2.18-5.01-.91-1.356-2.035-2.31-3.35-2.872-1.313-.55-3.334-.837-6.062-.837h-.823c-.058 0-.317.014-.808.043l-1.328.044v4.52c0 3.838.216 6.278.635 7.332.42 1.068 1.257 1.746 2.498 2.064v.332c-1.256-.043-2.367-.087-3.363-.1-.982-.015-1.82-.03-2.526-.03-.868 0-1.748.015-2.658.03-.91.013-1.862.057-2.843.1" fill="#231f20"/><path d="M217.823 290.718c.405.03.838.058 1.285.072.448.015 1.112.015 1.992.015h2.73c1.023 0 1.76 0 2.222-.015.462-.014.88-.043 1.255-.072l-4.75-8.993-4.734 8.993zm-10.754 13.887v-.274c1.053-.605 2.208-1.717 3.45-3.348 1.255-1.617 2.54-3.667 3.868-6.15l10.09-18.88h.347l10.48 18.678c.173.29.433.722.765 1.3 2.685 4.792 4.836 7.592 6.438 8.4v.275c-.852-.043-1.66-.087-2.425-.1-.75-.03-1.473-.044-2.18-.044-1.617 0-2.988.015-4.1.044-1.097.014-2.194.058-3.262.1l-.013-.273c.765-.23 1.3-.52 1.616-.85.304-.333.448-.81.448-1.444 0-.433-.115-.968-.36-1.632-.245-.635-.736-1.66-1.458-3.046l-2.786-5.456c-.462-.03-.91-.058-1.343-.072-.433-.015-.923-.015-1.472-.015h-5.022c-.75 0-1.33 0-1.733.015-.404.014-.794.043-1.14.072l-1.588 3.277c-.707 1.442-1.24 2.684-1.602 3.694-.376 1.01-.55 1.805-.55 2.382 0 .78.218 1.415.665 1.89.433.492 1.155.882 2.137 1.185v.275c-.477-.043-1.025-.087-1.632-.1-.606-.03-1.486-.044-2.685-.044-1.04 0-1.934.015-2.685.044-.765.014-1.515.058-2.266.1M274.608 301.447c-1.66 1.313-3.55 2.295-5.687 2.93-2.12.635-4.532.967-7.203.967-5.21 0-9.44-1.342-12.69-3.998-3.246-2.67-4.878-6.135-4.878-10.408 0-4.562 1.602-8.185 4.806-10.885 3.19-2.685 7.478-4.042 12.848-4.042 2.367 0 4.677.29 6.914.882 2.238.577 4.302 1.43 6.193 2.54l-1.86 4.85-.32-.042c-.518-2.325-1.702-4.13-3.55-5.414-1.847-1.3-4.157-1.948-6.93-1.948-3.824 0-6.783 1.198-8.876 3.58-2.108 2.396-3.147 5.788-3.147 10.176 0 4.273 1.04 7.637 3.147 10.09 2.107 2.455 4.98 3.682 8.603 3.682 1.458 0 2.757-.274 3.912-.81 1.14-.533 2.006-1.254 2.57-2.178.258-.477.46-1.112.576-1.935.115-.808.173-1.992.173-3.55 0-1.95-.362-3.25-1.055-3.884-.707-.65-2.093-1.07-4.143-1.242v-.404c1.848.072 3.22.115 4.143.13.91.028 1.776.043 2.556.043.81 0 1.79-.015 2.93-.044 1.156-.028 2.397-.072 3.77-.13v.405c-1.142.26-1.907.606-2.326 1.068-.404.462-.606 1.184-.606 2.18v4.72c0 .448.015.88.03 1.328.028.448.057.895.1 1.343M306.815 289.17v-.463c0-4.49-.29-7.39-.852-8.762-.577-1.342-1.602-2.31-3.074-2.916l.013-.333c.318.015.765.043 1.342.072 1.473.086 2.44.115 2.93.115 1.04 0 2.614-.058 4.707-.188h.13v.332c-1.516.605-2.555 1.645-3.133 3.132-.578 1.486-.867 4.503-.867 9.007v4.128c0 4.1-1.068 7.13-3.205 9.065-2.136 1.963-5.442 2.93-9.93 2.93-4.808 0-8.273-.88-10.38-2.64-2.108-1.762-3.162-4.707-3.162-8.836 0-1.14.015-2.482.044-4.04.03-1.546.043-2.513.043-2.917v-6.424c0-.996-.202-1.76-.592-2.28-.403-.52-1.067-.896-2.005-1.127v-.347c.895.043 1.775.086 2.64.115.882.03 1.734.043 2.585.043.838 0 1.704-.013 2.584-.042.88-.03 1.76-.072 2.656-.115v.346c-.938.2-1.616.562-2.05 1.082-.404.52-.62 1.3-.62 2.324v9.354c0 2.324.072 4.172.202 5.558.13 1.4.346 2.497.62 3.305.578 1.646 1.66 2.93 3.234 3.855 1.588.923 3.494 1.385 5.76 1.385 3.378 0 5.947-.88 7.723-2.656 1.774-1.76 2.655-4.33 2.655-7.723v-4.345zM322.017 290.718c.404.03.823.058 1.285.072.447.015 1.11.015 1.992.015h2.728c1.025 0 1.76 0 2.223-.015.462-.014.88-.043 1.242-.072l-4.735-8.993-4.735 8.993zm-10.77 13.887v-.274c1.055-.605 2.21-1.717 3.466-3.348 1.255-1.617 2.54-3.667 3.854-6.15l10.105-18.88h.346l10.48 18.678c.173.29.433.722.75 1.3 2.7 4.792 4.85 7.592 6.453 8.4v.275c-.85-.043-1.66-.087-2.424-.1-.75-.03-1.487-.044-2.18-.044-1.63 0-2.988.015-4.1.044-1.096.014-2.193.058-3.26.1l-.016-.273c.765-.23 1.3-.52 1.602-.85.318-.333.462-.81.462-1.444 0-.433-.115-.968-.375-1.632-.232-.635-.723-1.66-1.445-3.046l-2.786-5.456c-.448-.03-.91-.058-1.343-.072-.433-.015-.924-.015-1.472-.015h-5.038c-.737 0-1.314 0-1.718.015-.405.014-.795.043-1.142.072l-1.588 3.277c-.707 1.442-1.24 2.684-1.616 3.694-.36 1.01-.534 1.805-.534 2.382 0 .78.216 1.415.664 1.89.433.492 1.154.882 2.136 1.185v.275c-.49-.043-1.025-.087-1.63-.1-.607-.03-1.502-.044-2.686-.044-1.04 0-1.934.015-2.685.044-.766.014-1.517.058-2.282.1" fill="#231f20"/><path d="M.544 197.724S102.4 140.848 218.88 153.84c121.95 13.613 179.33 68.814 179.33 68.814l1.07-9.76s-79.106-63.08-192.858-66.633C85.064 142.466 2.71 192.846 2.71 192.846l-2.166 4.88z" fill="#ed1c24"/><path d="M7.044 186.89l1.083-3.795s89.933-58.507 207.495-51.462c117.562 7.044 183.128 61.754 183.128 61.754l-.55 8.676s-74.745-56.688-182.578-62.852C101.856 132.716 7.044 186.89 7.044 186.89" fill="#ed1c24"/><path d="M15.714 170.64s87.22-55.807 207.495-52.56c101.105 2.743 175.534 56.356 175.534 56.356v9.21s-80.232-54.104-178.25-58.52c-120.26-5.414-208.028 52.01-208.028 52.01l3.248-6.496z" fill="#ed1c24"/><path d="M159.282 108.88s65.55-13.54 139.23 4.88c65.652 16.412 100.225 41.168 100.225 41.168v9.21s-54.71-36.84-130.02-48.763c-75.31-11.923-109.435-.534-109.435-.534v-5.96z" fill="#ed1c24"/><path d="M398.204 135.423l.534 8.662s-48.358-31.527-112.683-41.704c-75.31-11.923-125.14 0-125.14 0l1.616-7.044s67.718-11.375 129.487 0c61.755 11.375 106.187 40.087 106.187 40.087" fill="#ed1c24"/><path d="M19.323 78.356l7.954-15.172S129.84-5.442 231.697.347C333.554 6.12 399.277 46.57 399.277 46.57L400 74.746s-76.566-55.62-197.202-52.733C95.888 24.57 19.323 78.356 19.323 78.356" fill="#2350a9"/><path d="M399.284 104.544v28.178S319.788 68.427 210.21 63.375C81.27 57.413 0 108.875 0 108.875l8.127-15.172s110.908-62.086 216.705-50.38c117.576 13.007 174.452 61.22 174.452 61.22" fill="#2350a9"/><path d="M197.726 36.875c.448-.086.91-.202 1.083-.23.143-.044.273-.13.26-.044 0 0-.03.045.057.13.043.06.072.088.13.145h-.13s-.044-.057-.188 0c-.06.03-.737.434-.997.55-.274.13-.303.187-.23.216l-.044.087h-.088s-.043 0-.03-.03c-.042-.056-.042-.143-.1-.2-.03-.03-.1-.116-.144-.188h.13s.057.027.202 0c.303-.146.635-.32.967-.52l-.938.2c-.232.06-.304.145-.29.088-.173-.03-.23 0-.303-.03.03-.057.144-.057 1.17-.88-.246.145-.896.347-1.026.42-.143.057-.186.143-.13.2.03 0 .016.03.016.03-.072.057-.145.057-.116 0-.072-.087-.072-.087-.072-.173l-.13-.13h.116c.086 0 .202 0 .505-.116.59-.232.894-.347.966-.347.072-.058.087-.087.1-.188h.117s.014.043.057.13c.087.058.072.087.13.144l-.144.115c-.318.173-.448.26-.91.62M199.128 37.22c.16-.086.202-.173.087-.173l.03-.057h.114c.086 0 .057.057.216.144.433.433.447.375.505.433.044 0 0 0-.187.144-.014.016-.043.073-.13.102-.043 0-.16.058-.13 0 0 0 .1-.03.145-.1.03-.087-.015-.145-.188-.29-.03-.028 0-.086-.1-.115l-.39.202c.057.057.028.115.144.144.13.13.158.13.245.13-.088.028-.117.086-.16.086-.13.087-.187.116-.187.116-.03.057-.073 0-.073 0s-.072.057-.13 0l.1-.03c.088-.086.088-.086.03-.23-.086 0-.187-.03-.158-.072l-.563.303c-.117.086-.06.115.114.26.087.173.245.086.476.028h.073l-.03.058s-.23.087-.432.217h-.115c.03-.044-.043-.072-.303-.36-.144-.174-.318-.26-.318-.26l.03-.03h.072c.028.03.115 0 .187-.058l1.025-.59zM200.71 39.38c-.086.088-.072.146.03.175l-.145.057c.03-.057-.015-.057-.202-.086-.202-.087-.275-.087-.275-.087l.03-.06s.014-.027.07 0c.045 0 .146-.027.218-.114l.808-.736c.13-.087.16-.145.073-.202 0 0-.087 0-.073-.03h.116c.086 0 .115.03.202.087.216.058.274.087.317.087l-.03.058h-.043c-.072 0-.13.03-.245.115l-.852.736zM202.695 38.702c.202 0 .202.086.29.086h.114c-.015.03-.015.03-.188.188-.073.072-.073.1-.1.16h-.088l-.014.013c-.03-.015-.03-.015.043-.073.043-.1.1-.202-.16-.26-.302-.03-.475 0-.706.303-.404.404-.29.578-.1.606.244.058.562-.086.562-.086s.07 0 .056.058h-.086c-.044.086-.044.086-.087.086-.476.087-.534.116-.722.087-.316-.086-.388-.346 0-.72.203-.333.853-.593 1.185-.448M206.552 38.878c.23-.058.246 0 .332 0l.145-.058s.027 0 .013.058c-.014.03-.058.03-.087.173l-.057.116-.03.044s-.03.057-.072.057c0 0 .03-.057.057-.1-.072-.03-.028-.174-.36-.174-.275.058-.52.173-.592.477-.145.346.03.49.39.433.23 0 .447-.202.534-.202l-.015.03-.03.057c-.013.03-.013.03-.042.087-.448.173-.563.26-.765.26-.39.043-.563-.174-.49-.578.143-.29.62-.65 1.067-.678M207.342 38.99c.043-.086 0-.086-.116-.086h-.086c.014-.03.13-.087.13-.087.03 0 .115 0 .288-.03 1.01-.158.968-.158 1.04-.215.086 0-.03.057.043.13-.042.086.03.115 0 .173 0 0-.013.03-.086.03 0 0 .015-.03-.086-.088-.015-.03-.145-.03-.404 0-.116 0-.202 0-.304.058l.015.29c.058-.03.144-.03.26-.03.274-.058.317-.145.36-.145l-.043.058s0 .03-.043.087c.042.086.057.144.057.144-.015.028-.015.028-.058.028-.03.058-.03.058-.102.058l.03-.058c0-.087-.088-.087-.275-.03-.073 0-.203 0-.246.03l-.043.39c-.043.086.043.086.346.028.332-.028.448-.158.49-.26l.016-.028H208.64s-.114.173-.13.26c-.013.028-.042.086-.07.086-.088 0-.13 0-.752.116-.303.057-.52.086-.606.086-.058.058-.058.058-.03 0 0 0 .016-.03.073-.086.087 0 .1-.03.145-.116l.072-.794zM209.294 39.275c.014.202.072.26.26.202.1-.03.1-.03.086 0l-.03.058c-.143.028-.26.028-.374.086-.044.03-.13.03-.274.088l.043-.087c.1-.057.16-.085.115-.23l-.072-.606c-.014-.13-.086-.217-.173-.13h-.072c.014-.03.043-.087.13-.116h.158c.117-.057.247-.086.247-.086.115-.058.115.03.187.115l.81.49-.044-.576c-.03-.173-.044-.23-.275-.173-.014.03-.057.03-.043 0 0 0 .03-.057.072-.057 0 0 .13-.03.246-.087.115 0 .26-.03.332-.03.028-.042 0 0 0 0l-.015.03c-.1.058-.115.087-.058.375l-.015.347c.03.1.03.173.072.26-.014.014-.014.014-.188.13-.015.03-.044.086-.13.086 0 .03 0 0-.203-.143l-.837-.433.044.49zM211.177 37.997c-.274.144-.288.173-.245.26l-.03.058c-.013.03-.042.086-.042.086l-.058-.056s0-.087-.03-.174c-.028-.03 0-.086-.07-.115l.114-.058s.015.058.26-.03l.75-.302c.29-.086.333-.173.362-.23 0 0 .072 0 .058.057 0 0-.015.03.072.087-.03.128.03.157.03.157l-.074.145c-.072 0-.072 0-.072-.087-.057-.058-.16-.087-.317 0l-.217.03.318.75c.03.072.16.072.288.043h.044l-.015.03c-.043 0 0 0-.072.056-.07 0-.244.087-.36.087-.173.088-.216.117-.375.174.03-.057.03-.057.043-.086.072-.058.087-.087.087-.174l-.274-.736-.173.03zM217.08 35.758c.027.03.114 0 .33-.173.203-.173.246-.26.087-.332l.072-.144h.072c-.015.056.1.143.288.157-.03.073-.043.087-.043.087-.03.072-.072.072-.534.433-.39.29-.433.375-.433.375l-.058.03c-.072 0-.058-.03-.03-.102.016-.014.044-.072-.057-.1l-.794-.376c-.157-.087-.186-.03-.258.058h-.087v-.087c.072-.058.16-.058.245-.173.188-.145.203-.16.23-.217l.102-.03v.088c-.057.014-.057.1.044.16l.823.345zM196.94 33.606c.117-.23.29-.332.564-.39.217-.03.404.058.375.274-.015.116-.26.29-.49.347-.247.03-.45-.087-.45-.23M197.894 30.963c-.087-.058-.202 0-.246.086l-.028.057c-.03 0-.073-.087-.073-.087.03-.057.058-.115.188-.23.42-.592.42-.592.476-.708h.434s.03.058 0 .116c0 0-.13 0-.173.03-.13 0-.172.085-.33.244-.044.1-.073.16-.116.23l.346.03c.044-.072.13-.1.173-.202.087-.16.044-.217.044-.217s.014-.03.072 0h.36s-.03.058.014.058c0 0 .087 0 .072.03h-.13c-.115 0-.216.058-.288.173-.058.058-.1.13-.116.16l.563.085c.116 0 .16-.086.332-.245.13-.202.058-.29-.043-.346h-.03l.016-.03s.014-.057.028 0c0 0 .188.03.347.03.087 0 .058.057.043.086 0 0-.03.058-.36.477-.116.23-.275.404-.275.404l-.014.03c-.045 0-.117-.03-.117-.03.043-.087.043-.087-.086-.145l-1.083-.087zM200.853 28.58c.202.086.42.057.635-.145.174-.115.246-.346-.03-.42l-.403-.172c-.187-.086-.303-.03-.433 0-.03.058-.072.058-.072.058l.03-.057.013-.03s.03-.056.217-.2c.086-.087.1-.116.202-.174 0 0 .014.057 0 .086-.03.057-.072.144.144.202l.462.202c.29.144.404.303-.03.707-.302.202-.692.347-.908.202l-.635-.26c-.116-.087-.202-.087-.36 0-.03.057-.044.086-.03.057-.043 0-.014-.058 0-.086 0 0 .072-.057.217-.202.187-.115.216-.173.303-.26h.072l-.043.087c-.044.087 0 .087.13.173l.52.23zM204.176 26.595c.043.086.188.028.404-.087.202-.087.318-.23.26-.346l.044-.087h.072c.043 0 .03.173.115.26.044 0 .03.03-.042.086 0 0-.1.03-.664.29-.404.23-.505.274-.52.303h-.043s.015-.03.044-.072c0 0 .043-.086-.014-.143l-.534-.55c-.073-.085-.116-.085-.246-.057 0 0-.03.058 0 0l.015-.028s.057-.058.23-.145c.26-.13.318-.16.434-.216 0 0 .013.058-.03.058-.044.073-.087.16 0 .217l.476.52zM205.776 25.883c0 .087.086.087.216.058l-.043.087s-.117.058-.32.145c-.2.028-.26.115-.287.115h-.087l.043-.087c.086 0 .13-.086.057-.115l-.404-.664c-.03-.086-.072-.086-.202-.042-.028.043-.115.043-.115.043.03-.042.044-.086.072-.13.073 0 .116 0 .36-.086.232-.144.232-.144.333-.173-.014.03.072.03-.043.088-.014.03-.043.086 0 .173l.42.593zM206.604 24.546c.246-.086.29-.03.332-.086.03 0 .13-.03.13-.03h.043l.057.116c.043.087.015.145.043.145 0 0 0 .03-.043.03l-.03.057-.056-.058c-.028-.03-.1-.116-.46-.03-.26.116-.377.26-.26.52.07.332.39.332.59.246.376-.087.477-.304.477-.304h.043l-.03.058c-.027.044-.027.044-.042.072-.29.26-.317.347-.548.405-.347.115-.75.028-.852-.26-.1-.275.16-.708.606-.88M212.97 23.645c.042-.086-.045-.144-.13-.144h-.044c.014-.028.086-.086.173-.086h.316c.81.058.838 0 .88 0 .088 0-.028.058-.014.203l-.086.173-.1.03s.057-.088-.06-.117c0-.086-.114-.086-.316-.086-.102-.058-.13-.058-.217-.058l-.202.345h.275c.202 0 .36-.086.36-.086l-.028.056-.043.087c-.043.087-.043.115-.072.173l-.015.015c-.086 0-.115.058-.16.058l.03-.057c.058-.1-.03-.1-.187-.1h-.23l-.29.39c-.043.086.072.115.39.115.288 0 .404-.087.49-.173l.03-.044h.115c-.03.044-.217.188-.274.303-.028.06-.028.06-.072.06h-1.241c-.043 0-.014-.06-.014-.06l.057-.027c.1-.058.145-.058.202-.174l.477-.795zM215.013 24.473c-.188.23-.23.317-.087.332.044 0 .116 0 .087.072-.087 0-.13.014-.13.014-.144-.013-.16-.085-.245-.085-.03 0-.116 0-.217-.015l-.042-.014.072-.044c.115 0 .202-.028.332-.202l.592-.62c.1-.116.1-.203-.03-.26 0 0 .087-.03.174-.03 0 0 .03.03.144.03.087 0 .174.057.174.057.043 0 0 .087.03.203l-.06.822.535-.577c.174-.188.13-.245-.07-.274l.028-.057h.13s.072 0 .173.058c.102.03.217.03.217.03h.087c-.03.057-.1.057-.1.057-.06.015-.174.073-.42.332l-.29.346c-.172.16-.2.23-.2.245-.073.073-.16.073-.203.088-.157.058-.157.058-.23.058-.043 0 .03-.058 0-.246l.044-.823-.49.506zM216.57 25.07c-.073.145-.102.202-.073.23h.072c-.03.06-.102.06-.145.06 0 0-.058-.06-.202-.088-.145-.115-.26-.115-.26-.115.014-.03.043-.087.115-.087.043 0 .13 0 .217-.086l.808-.737c.072-.086.087-.115 0-.173h-.043c.058-.03.13-.03.13-.03.043 0 .115.03.202.088.23.03.274.087.274.087h.043c-.015.027-.073.085-.073.085-.1-.058-.202 0-.216.03l-.85.735zM218.594 24.558c.16.086.13.144.173.144-.014.03.102.03.102.03-.03.057.042.057-.03.057-.015.028-.015.028-.202.172-.058.03-.087.087-.1.115H218.42l.044-.086c.015-.028.116-.172-.057-.288-.202-.087-.448 0-.737.26-.476.303-.447.476-.288.592.187.086.52 0 .52 0 .072 0 .072 0 0 0l-.03.058c-.057.028-.086.086-.173.086-.405 0-.52 0-.607-.058-.274-.115-.23-.433.26-.765.29-.26.938-.433 1.24-.317M220.293 29.392c.116 0 .23-.058.188-.144l.03-.058c.086-.03.115 0 .115 0-.03.058-.03.058-.014.202.03.202.073.26.073.26l-.014.03c-.088 0-.074-.03-.146-.03 0 0-.014-.058-.16 0l-.258.03c-.1.057-.145.057-.145.057s-.07 0-.056-.06c.014-.115-.188-.172-.23-.346-.045-.303.302-.59.85-.736.52-.086 1.025.058 1.04.347.014.13 0 .158-.044.245-.03.058.073.087.073.087s-.03.057-.102.057h-.157c-.16.058-.246.087-.29.087-.086 0-.086 0-.07-.028l.114-.058c.145-.057.246-.173.202-.332.057-.173-.145-.26-.636-.173-.505.115-.75.273-.736.504 0 .087.043.145.173.145l.203-.088zM220.227 30.25c-.245 0-.433.144-.534.332 0 .173.115.26.447.23l.635-.057c.26-.03.36-.072.42-.202l.028-.044h.043c-.03.043.058.043.044.072 0 0-.03.072-.087.173.014.144.014.144-.014.173l-.016.058-.058-.058c-.1-.03-.072-.087-.346-.03l-.65.088c-.476.058-.72-.087-.635-.477.058-.203.29-.434.693-.52l.837-.087c.202-.058.318-.058.376-.173h.087c-.014.03-.058.087-.072.202 0 .173-.03.23-.058.29l-.014.028h-.087c-.043-.145-.043-.145-.23-.087l-.81.087zM219.192 33.628c-.16.144-.448.26-.592.23-.26-.057-.29-.23-.245-.346.187-.202.462-.29.707-.29.173.06.26.232.13.406M197.806 35.342l-.1.058-.19.116-.114-.26.664-.03-.26.116.16.174c.1-.03.36-.26.446-.26.043 0 .13-.03.058-.03.03-.057-.043 0-.116-.086.015-.057-.03-.115-.03-.115h-.042l-.1.058s-.405.057-.723.057c-.694.03-.88.087-.925 0h-.115c.03.087.058.116.03.174.07.028.028.115.042.173l.072.03h.03l.014-.03c-.015-.058.03-.145.072-.145.245-.086.447-.086.563-.086l.115.346c-.158.087-.36.217-.49.246-.044 0-.116 0-.145-.03h-.115l-.015.03c.03 0 0 .057.058.202.03.115.015.202.073.26h.116c.028-.058-.03-.087.07-.145.087-.086.535-.346.896-.563 0 0 .115-.086.16-.086l-.16-.174zM199.993 37.988l-.852.563c-.07.088-.187.146-.23.146H198.795l-.015.03c.087.056.116.085.23.085.088.088.16.088.247.175 0 0 .043 0 .057-.03l-.014-.057c-.072-.03-.043-.087.1-.202l.434-.303c.16.072.202.13-.043.39-.245.346-.173.375-.115.476.03.042.274-.045.36 0 0 0 .073-.045.102-.102h-.16c-.143-.116.406-.52.19-.635.23.043.475 0 .677-.13.188-.145.16-.26-.014-.405-.144-.028-.23-.086-.42-.202-.172-.057-.172-.057-.157-.086h-.116l-.1.03h.086c.086.056.043.143-.116.23l-.014.028.274.087.087-.087c.115 0 .086.058.173.058.115.087.16.173.03.26-.16.087-.304.144-.405.03-.116-.03-.174-.088-.087-.088l.202-.173-.274-.087zM203.807 39.3l-.044.086.015.144-.42-.058.492-.346-.043.173.332-.03c-.016-.115.042-.317.042-.317.043-.072.072-.145.072-.145-.086 0-.115.073-.29.087h-.114s-.087 0-.116.058c0 0 .087 0 .073.03-.116.056-.347.287-.592.46-.42.36-.664.506-.78.506-.043 0-.086.085-.086.085h.33c.03 0 .13.058.203.058h.043c.03-.058.116-.058.116-.058h-.087c-.015-.057-.072-.086-.043-.144.043-.086.173-.2.36-.33l.49.086c-.042.086-.056.245-.085.303-.015.028-.044.085-.16.085 0 0-.1.058-.115.087.073 0 .116 0 .29.058h.432c.044 0 .044 0 .072-.058-.028-.03-.1-.03-.072-.087 0-.086-.043-.39.044-.65-.073-.028-.044-.086-.03-.115l-.33.03zM215.092 36.438l.1.058h.146l-.36.26-.16-.347.274.028.246-.26c-.116 0-.506-.03-.506-.03 0-.07 0-.07-.1-.056 0 0 .057.057-.116.173l-.03.058-.013.028c-.03.06-.03.06.014.06.072 0 .144.2.245.403.13.36.1.506.058.592l-.014.03h.086c.058-.03.174-.116.174-.116.072-.06.23-.146.245-.175l.044-.086h-.043c-.042.085-.158.085-.244.085-.073-.086-.044-.216-.116-.303l.505-.317c.13 0 .332.086.36.086.06.06.044.088.016.146l-.043.086s.087 0 .087-.03c0 0 .043-.056.202-.143.23-.145.332-.174.36-.232.06-.03.03-.087.06-.115-.13.086-.13.086-.247.086-.13 0-.535-.087-.867-.145-.014-.03-.144-.03-.115-.087l-.246.26zM212.674 37.573l.448.476c0 .1.058.13-.058.2l-.03.06c.06.028.073 0 .073 0 .073-.06.174-.088.318-.13.058-.03.202-.088.332-.174v-.03c.03-.057.03-.057-.072 0-.13.03-.173.03-.26-.057l-.173-.29c.173-.115.303-.115.548.03.332.144.42.144.563.086.16-.087.23-.23.275-.318.086 0 .014-.028.014-.028h-.043s-.016.028-.117.086c-.274.144-.577-.23-.88-.086.26-.145.36-.333.288-.42-.13-.143-.403-.086-.663.03-.144.057-.23.13-.534.245-.245.087-.26.145-.303.145l-.014.028-.03.058s.044 0 .073-.058c.114 0 .187 0 .273.087l.36-.173-.07-.087s.13-.086.158-.086c.26-.103.347-.103.42-.03.07.115.028.216-.217.288-.173.087-.173.087-.246.087l-.043-.173-.39.23zM199.194 29.486l.217.058c.117 0 .145-.058.203-.087.173-.202.1-.274-.086-.303-.102-.058-.304.014-.347.1-.1.06-.13.117-.173.203h.202l-.246.26h-.087c-.087-.058-.16 0-.245.03-.058 0-.073.057-.073.057l-.044-.087c.072 0 .072 0 .202-.173.173-.173.23-.29.318-.39.23-.23.476-.318.693-.26.287.087.316.332.085.563-.058.03-.086.087-.1.116l.317.086c.13.057.26.057.332-.087h.072s.014.057-.03.057c-.042.087-.057.116-.172.202-.13.16-.23.23-.246.26 0 0-.043 0-.028-.03.028-.07-.044-.085-.13-.143l-.866-.203.23-.23zM202.385 27.358l.274.173c-.03.06.086 0 .244-.085.29-.173.246-.26.1-.347-.186-.115-.403-.028-.576.087-.1.058-.115.087-.115.087l.072.086-.275.23-.39-.26.304-.23.086.087c.087 0 .087 0 .246-.087.173-.115.13-.173.043-.245-.087-.072-.217-.072-.362.072-.043 0-.144.058-.173.087l.16.086-.304.23c-.173-.143-.245-.085-.346-.056-.043 0-.057.057-.043 0 0 0 .03-.03.06-.087 0 0 .042-.03.215-.115.188-.145.303-.217.42-.36.26-.117.533-.175.692-.088.115.087 0 .23-.145.36h.073c.202-.13.476-.216.678-.13.13.13.116.42-.26.68-.115.057-.375.202-.462.288-.172.1-.172.1-.26.1l-.027.06v-.088c.072-.043.043-.072-.116-.158l-.087-.145.275-.232zM210.744 24.154l-.072.317c-.115.218-.115.218-.216.247-.03 0-.058.057-.073.086h.044s.086-.03.245-.03h.36c.607-.07 1.055-.33 1.214-.793.13-.36-.116-.505-.578-.476h-.23c-.073.058-.16.058-.318.058-.26.057-.246 0-.318 0l-.115.086h.158c.03 0 0 .058.03.174l-.13.332.375-.03.086-.418c.13 0 .23-.058.274-.058.318 0 .477.072.36.39-.085.347-.287.52-.59.563h-.246c-.014-.042-.014-.042.03-.13l.086-.345-.376.03zM197.31 32.3l.938.057c.115 0 .245 0 .23.03h.073l-.028.057c.043 0 .043 0 .072-.058.014-.03.014-.115.043-.173.044-.087.13-.173.174-.26l-.028-.03c-.087 0-.087 0-.087.03-.058.087-.115.144-.23.144h-.578c.086-.173.115-.23.52-.303.52-.144.577-.173.634-.317.103-.03-.056-.116-.056-.202.03-.058-.058-.058-.087-.058-.03.058 0 .086-.03.144-.1.203-.778.174-.88.376h-.028c.057-.115-.073-.26-.247-.26-.274 0-.433.087-.548.318-.072.13-.116.217-.217.42l-.086.172-.03.058c-.014.03-.014.03.073.03.043 0 .014-.03.087-.088.014-.03.086-.03.202-.03h.086l.13-.26h-.202l.087-.172c.072-.13.187-.216.303-.216.173 0 .245.086.16.245-.045.087-.06.144-.102.144h-.246l-.1.202zM208.51 24.435l.1.03.044.086-.433.145.203-.404.087.145.346-.202c-.03-.03-.188-.202-.188-.202.044-.07-.014-.13-.072-.07 0 0-.014.028-.187.1-.074 0-.074 0-.146.057l-.014.044s.043 0 .014.044l-.245.49c-.218.448-.29.593-.45.65l-.042.087h.087c.043 0 .202-.086.288-.086.03 0 .188-.057.26-.057l.058-.03.03-.057h-.043c-.073 0-.116 0-.174-.058 0-.086.087-.245.13-.332l.578-.173c.073.087.116.23.116.318.087 0 .072.014-.086.072 0 .03-.03.087-.03.087.116 0 .145-.058.362-.073.187-.056.404-.085.404-.085.043 0 .072-.058.086-.087h-.043s-.088 0-.102-.058c-.1-.03-.318-.26-.52-.49-.043 0-.03-.03-.072-.087l-.346.202zM220.696 27.774l-.13.087-.16.087-.114-.26.606-.086-.202.174.16.173c.085-.086.403-.26.403-.26.1-.057.115-.086.115-.086.028-.057-.073 0-.145-.086.03-.058-.03-.058-.086-.086h-.044l-.014.028c-.1.058-.404.087-.81.087-.634.087-.793.144-.865.058h-.114l-.015.03c-.027.057.06.115.016.202.086 0 .072.115.144.115l-.03.058h.13l.03-.058c-.072-.03-.072-.115.058-.115.16-.087.317-.087.433-.087l.16.347c-.13.014-.29.173-.42.187-.07.057-.07.057-.158 0h-.086l-.03.057s.073.03.06.115c.027.203.085.23.1.29-.015.028.072.028.086 0l.072-.145c.087-.087.49-.332.838-.563.057-.03.173-.087.173-.087l-.16-.173zM220.19 31.868l-.102.03-.187.056.16-.317.46.115-.33.116.014.202c.13-.03.49-.087.49-.087.116 0 .116 0 .13-.03.03-.056-.057-.056-.014-.2l.015-.03-.058-.057s-.03.057-.116.057c-.028 0-.316-.086-.518-.23-.506-.102-.68-.174-.68-.26.016-.015-.07-.015-.07-.015h-.03c-.058.087-.03.1-.058.202-.028.044-.115.13-.144.16 0 0 .058 0 .03.057h.07c.03-.058.117-.144.19-.144.172 0 .316.086.446.086l-.202.403c-.144.058-.433.145-.548.145l-.087-.087-.044-.057-.116.23c-.086.16-.13.247-.144.276 0 0-.03.056.058.056.057-.057.072-.086.187-.144.13-.03.564-.173.997-.274.072 0 .116 0 .217-.058l-.015-.202zM220.078 26.182l-.98.433c-.16.072-.218.1-.32.072h-.086c-.028 0 0 0-.014.03.058.057.087.085.173.143-.042.087.016.145.088.23h.043l.044-.085c-.014-.058 0-.087.188-.203l.49-.187c.116.072.145.1-.23.39-.39.288-.433.375-.332.433-.015.072.216.028.303.115l.13-.043.03-.044s-.117 0-.102-.028c-.13-.145.564-.433.434-.636.144.116.375.145.606 0 .246-.086.318-.245.173-.36-.043-.145-.158-.174-.23-.347-.073-.115-.044-.144-.044-.144.028-.057-.087 0-.06-.057h-.042c-.1.058-.03.058 0 .087-.03.057-.058.115-.216.202h-.044l.16.173.143-.058c.016.058.102.058.088.145.087.086 0 .173-.1.202-.16.072-.32.072-.376-.03-.058-.057-.015-.144-.015-.144l.26-.115-.16-.173zM219.115 25.613l-.043.087-.13.115-.187-.202.52-.173-.16.173.275.087c.086-.087.274-.318.274-.318.144-.03.173-.072.173-.072-.086 0-.13 0-.23-.043-.087 0-.102-.058-.102-.058h-.072s-.03.057-.087.085c0 0-.346.145-.765.26-.605.173-.807.26-.937.26h-.03c-.086 0-.086 0 0 0 .016.043.073.087.088.13.073.043.116.087.13.144H217.947l.03-.058c-.044 0-.073-.087.028-.13.173-.087.375-.174.462-.202l.36.26c-.13.072-.26.245-.36.303-.015.028-.058.028-.173.028h-.116l-.03.06c.03 0 .117 0 .218.115.086.086.173.144.245.173 0 0 .072 0 .087-.03.043 0 .043 0 0 0 .03-.057-.044-.057 0-.143.014-.03.375-.36.563-.65.014-.03.115-.087.13-.115l-.275-.087z" fill="#176fc1"/><path d="M215.443 34.844l-3.22-9.296-12.515 9.282 15.735.014z" fill="none" stroke="#231f20" stroke-width=".043306290000000004"/><path d="M206.188 31.198h.087" fill="none" stroke="#231f20" stroke-width=".05774172"/><path d="M208.61 33.532c2.152-.03 3.985 0 5.515 0 .433 0-1.328.087-1.82.087-1.76 0-2.9 0-2.958.143.346.03.722-.086.924.087l-.014.03h-.375l-.013.056c.057.03.072.087.144.087.578 0 .838-.058 1.358-.058.087 0 .462-.03.548-.03.794.03 1.4 0 2.353.03 0 0-.722.087-.766.087-1.616 0-2.44.058-3.767.058-.116 0-.217.03-.332.03-.044.07.086.042.173.042 1.63.043 2.714.043 4.403.043.044 0 .52 0 .506.058-.043.058-.072.058-.16.058-1.183.03-2.135 0-3.492 0h-.852c-.317 0-.577-.072-.65-.072-.288 0-.447 0-.49.087-.1.144.288.058.418.058 1.733.086 3.61 0 5.34.086.102.115-1.803 0-2.727 0-2.584.086-5.038.028-7.68 0-1.097 0-1.977 0-3.276-.058-.073-.03.202-.087.317-.087 1.747.058 3.58 0 5.356 0 .317 0 .072-.144-.462-.03.03 0-1.227-.057-1.14-.057-.49 0-.81 0-1.82-.057h-1.53s-.433-.028-.404-.086c.13-.03.332-.03.462-.03.145.03.55 0 .722 0 1.43.117 2.31.03 3.782.088 0 0 .505-.058.577-.058.246 0 .203.087.49 0 0 0 .478.015.26-.014-.288-.145-2.337-.015-3.32-.073-.937-.028-2.496 0-2.366-.173 1.95.058 3.84.145 5.79.1.086 0 .172.06.26-.028-.044 0-.088-.057-.26-.057-.665-.03-1.27-.03-2.036-.03h-.36c-.362 0-.737.014-1.142-.058-.216-.03.347-.03.462-.03 1.415 0 1.89 0 3.046-.057.044-.086-.563-.086-.65-.086-1.558-.088-2.843-.088-4.82-.088-.16 0 .418-.03.33-.03h2.831c.68 0 1.372 0 2.036.03-.116 0 .42-.03.606 0h.68z" fill="#fff"/><path d="M206.783 31.142l5.66-1.89M208.1 31.487l3.16-2.47M206.473 30.065h6.842M209.197 31.628l2.786-5.6M214.12 32.297l-5.903-3.06M210.43 31.575l-.867-2.555" fill="none" stroke="#fff" stroke-width=".08661258000000001"/><path d="M209.636 30.75c.52 0 1.025-.288 1.227-.678.158-.346-.03-.693-.55-.693-.562 0-1.183.346-1.34.692-.203.39.1.68.663.68" fill="#90d0db"/><path d="M209.203 30.32s-.03.058.23.174c.29.086.304.144.42.144h.2l.13-.173s.232-.23.304-.36c.044-.102.087-.26.044-.348-.028-.26-.23-.26-.274-.26-.202 0-.346.058-.447.087-.117 0-.117 0-.145.058-.087.087-.174.115-.13.173.028.03.115 0 .115 0 .173-.086.274-.058.274-.058-.072.145-.317.23-.39.304-.173.087-.33.174-.33.26" fill="#ef2c30"/><path d="M209.203 30.32s-.03.058.23.174c.29.086.304.144.42.144h.2l.13-.173s.232-.23.304-.36c.044-.102.087-.26.044-.348-.028-.26-.23-.26-.274-.26-.202 0-.346.058-.447.087-.117 0-.117 0-.145.058-.087.087-.174.115-.13.173.028.03.115 0 .115 0 .173-.086.274-.058.274-.058-.072.145-.317.23-.39.304-.173.087-.33.174-.33.26zM209.298 30.294s.36 0 .75.332" fill="none" stroke="#231f20" stroke-width=".02887086"/><path d="M202.915 32.763c.043 0 .288-.087.317-.145.144-.057.16-.086.23-.144.117-.086.26-.115.376-.115.405-.16.607-.247.968-.478.476-.317.938-.52 1.458-.678.202-.087.447-.087.534 0 .072 0 .1.03.1.03.217.143.405.215.766.26.187.07.245.215.404.388.072.087.16.145.274.174.072 0 .044.057.044.057.13.087.23.116.317.202.13.13.246.303.404.448.03.03 0 .086 0 .086.145.115.23.26.42.288.158.087.302.13.46.23-1.86.03-3.58-.013-5.427-.013h-2.497l.852-.592z" fill="#8cd024"/><path d="M202.915 32.763c.043 0 .288-.087.317-.145.144-.057.16-.086.23-.144.117-.086.26-.115.376-.115.405-.16.607-.247.968-.478.476-.317.938-.52 1.458-.678.202-.087.447-.087.534 0 .072 0 .1.03.1.03.217.143.405.215.766.26.187.07.245.215.404.388.072.087.16.145.274.174.072 0 .044.057.044.057.13.087.23.116.317.202.13.13.246.303.404.448.03.03 0 .086 0 .086.145.115.23.26.42.288.158.087.302.13.46.23-1.86.03-3.58-.013-5.427-.013h-2.497l.852-.592z" fill="none" stroke="#231f20" stroke-width=".07217715000000001"/><path d="M209.9 33.363c-.116-.086-.188-.173-.36-.23-.203-.03-.29-.174-.434-.275 0 0 .03-.058 0-.086-.16-.145-.274-.318-.404-.462-.087-.087-.188-.116-.303-.203 0 0 .013-.057-.06-.057-.1-.03-.2-.072-.273-.173-.102-.13-.13-.217-.29-.304h.073c.043 0 .173-.086.245-.086.174-.03.376-.03.49 0 0 0 .088.057.073.086.13.058.29.145.52.174.26.115.245.23.375.36.116.044.116.087.23.116.074 0 .06.058.088.058.044.087.16.087.246.174.145.115.23.26.29.404.07 0 .057.03.1.03.072.07.13.216.318.244.086.058.245.145.346.174-.462.057-.91.057-1.27.057" fill="#8cd024"/><path d="M209.9 33.363c-.116-.086-.188-.173-.36-.23-.203-.03-.29-.174-.434-.275 0 0 .03-.058 0-.086-.16-.145-.274-.318-.404-.462-.087-.087-.188-.116-.303-.203 0 0 .013-.057-.06-.057-.1-.03-.2-.072-.273-.173-.102-.13-.13-.217-.29-.304h.073c.043 0 .173-.086.245-.086.174-.03.376-.03.49 0 0 0 .088.057.073.086.13.058.29.145.52.174.26.115.245.23.375.36.116.044.116.087.23.116.074 0 .06.058.088.058.044.087.16.087.246.174.145.115.23.26.29.404.07 0 .057.03.1.03.072.07.13.216.318.244.086.058.245.145.346.174-.462.057-.91.057-1.27.057z" fill="none" stroke="#231f20" stroke-width=".07217715000000001"/><path d="M208.98 31.745h.2c.26.116.246.23.376.36.1.044.116.088.23.117.073 0 .045.057.088.057.043.086.16.086.245.172.144.116.23.26.274.405.086 0 .072.03.115.03.07.085.114.23.302.244.1.06.202.088.303.145h1.04c-.13-.057-.174-.13-.36-.158-.088-.058-.174-.145-.247-.23l-.03-.03c-.128-.145-.215-.29-.287-.376-.086-.085-.23-.114-.245-.172l-.072-.03c-.086-.056-.187-.07-.202-.13-.143-.114-.1-.2-.345-.26-.275-.027-.376-.143-.462-.23-.072 0-.1-.028-.1-.028-.102-.058-.304-.058-.45 0-.114 0-.2.086-.374.115" fill="#8cd024"/><path d="M208.98 31.745h.2c.26.116.246.23.376.36.1.044.116.088.23.117.073 0 .045.057.088.057.043.086.16.086.245.172.144.116.23.26.274.405.086 0 .072.03.115.03.07.085.114.23.302.244.1.06.202.088.303.145h1.04c-.13-.057-.174-.13-.36-.158-.088-.058-.174-.145-.247-.23l-.03-.03c-.128-.145-.215-.29-.287-.376-.086-.085-.23-.114-.245-.172l-.072-.03c-.086-.056-.187-.07-.202-.13-.143-.114-.1-.2-.345-.26-.275-.027-.376-.143-.462-.23-.072 0-.1-.028-.1-.028-.102-.058-.304-.058-.45 0-.114 0-.2.086-.374.115z" fill="none" stroke="#231f20" stroke-width=".07217715000000001"/><path d="M210.568 32.027c.072.03.072.086.145.115.014.058.115.087.202.144l.072.03c.014.057.16.086.245.173.072.07.16.215.29.36l.028.028c.072.087.16.174.245.23.072.03.16.088.23.117h1.214c0-.087-.117-.116-.247-.173-.1-.03-.202-.087-.274-.174l.013-.03c-.057-.143-.13-.215-.216-.273 0-.086-.13-.086-.16-.173h-.042c-.144-.03-.16-.087-.23-.116-.117-.086-.073-.173-.247-.23-.144-.03-.317-.087-.404-.174-.03 0-.014-.03-.1-.03h-.318c-.145.03-.303.117-.448.175" fill="#8cd024"/><path d="M210.568 32.027c.072.03.072.086.145.115.014.058.115.087.202.144l.072.03c.014.057.16.086.245.173.072.07.16.215.29.36l.028.028c.072.087.16.174.245.23.072.03.16.088.23.117h1.214c0-.087-.117-.116-.247-.173-.1-.03-.202-.087-.274-.174l.013-.03c-.057-.143-.13-.215-.216-.273 0-.086-.13-.086-.16-.173h-.042c-.144-.03-.16-.087-.23-.116-.117-.086-.073-.173-.247-.23-.144-.03-.317-.087-.404-.174-.03 0-.014-.03-.1-.03h-.318c-.145.03-.303.117-.448.175z" fill="none" stroke="#231f20" stroke-width=".07217715000000001"/><path d="M213.232 33.138c-.087 0-.188-.03-.23-.086-.117-.03-.204-.087-.29-.174l.014-.03c-.043-.143-.115-.215-.216-.273 0-.086-.116-.086-.16-.173h-.042c-.145-.03-.16-.087-.217-.116-.1-.057-.086-.144-.2-.173.07-.057.158-.086.317-.144.043 0 .158 0 .216.057h.116c.027.086.143.115.302.115.16.087.13.144.202.23.03.03.115.03.202.088l-.014.03c.1.056.158.085.202.085.072.116.144.188.187.274l.073.086c.116.087.318.087.36.087.102.03.232.086.26.115h-1.08z" fill="#8cd024"/><path d="M213.232 33.138c-.087 0-.188-.03-.23-.086-.117-.03-.204-.087-.29-.174l.014-.03c-.043-.143-.115-.215-.216-.273 0-.086-.116-.086-.16-.173h-.042c-.145-.03-.16-.087-.217-.116-.1-.057-.086-.144-.2-.173.07-.057.158-.086.317-.144.043 0 .158 0 .216.057h.116c.027.086.143.115.302.115.16.087.13.144.202.23.03.03.115.03.202.088l-.014.03c.1.056.158.085.202.085.072.116.144.188.187.274l.073.086c.116.087.318.087.36.087.102.03.232.086.26.115h-1.08z" fill="none" stroke="#231f20" stroke-width=".07217715000000001"/><path d="M206.056 31.227h.115M205.852 31.314c.116 0 .173-.03.246 0M205.74 31.37c.088 0 .116-.058.246 0M205.58 31.452h.245M205.487 31.482c.072 0 .087.058.274 0M205.32 31.57h.116c.058.057.087 0 .1.057M205.16 31.65h.116c.1.06.058.06.202 0M205.073 31.74h.245M204.738 31.936c.187-.058.187-.058.274 0M204.82 31.85h.36M204.615 32.024c.144-.058.26-.058.318 0M204.81 32.11c-.085-.057-.157 0-.273 0M204.676 32.138c-.044 0-.145-.03-.275 0M204.152 32.22c.202 0 .332-.03.447 0M204.043 32.278h.448M203.84 32.364h.478s.115-.057.086 0M204.387 32.395c-.347.057-.52 0-.765 0M204.15 32.478c-.045 0-.232.058-.333 0h-.03c-.13 0-.2 0-.36.058M203.378 32.562h.52c.057.058.057.058.13.058M203.268 32.62h.318c.1.06.202.088.332.088M203.105 32.704h.722M202.985 32.704c.087.057.29.057.448.057.086 0 .245 0 .36.03M202.874 32.847c.16 0 .433-.058.606 0 .116 0 .145.028.23 0M202.738 32.874c.246 0 .405 0 .62.058.06.03.19.03.218.03M202.587 33.017c.03-.058.03-.058.115-.058.16 0 .246.057.477 0 .157 0 .287 0 .374.057M202.425 33.102c.39-.058.722 0 1.054 0M202.33 33.127c.377.057.766 0 1.098.057M202.29 33.216h.447c.087.058.202.058.332.058.143-.058.2 0 .345-.058M205.412 32.194l-.015.03M205.32 32.22h.073M205.208 32.278h.16M205.156 32.305h.202M205.044 32.364h.288-.086M204.963 32.447h.245M204.87 32.478h.317M204.785 32.564h.36M204.758 32.62c.043 0 .014.06.13.06h.13M204.635 32.704h.318M204.564 32.763h.246c.03.03.115 0 .115 0M204.403 32.847c.144-.058.245 0 .36 0h.116M204.387 32.878h.49M204.225 32.963h.52M204.195 33.017c.115.03.245 0 .39.03 0 0 .115 0 .13-.03M204.035 33.105c.043 0 .144-.058.158 0h.49M203.938 33.13c.087 0 .058.06.058.06.26-.06.476 0 .664-.06M203.86 33.216c.13.058.273 0 .446.058h.245M205.735 32.28h.03M205.636 32.308c.086 0 .1-.03.13-.03M205.608 32.364h.116M205.553 32.395c.044 0 .13 0 .13.057M205.432 32.478h.245M205.39 32.564h.244M205.36 32.62h.203c-.028.06 0 0 .03 0M205.278 32.707h.274M205.234 32.792h.29M205.13 32.847h.36M205.084 32.932c.145-.058.23.03.39-.058M205 33.017h.403M204.963 33.105c.144-.058.274 0 .404 0M204.87 33.13h.562M204.823 33.216h.606M204.78 33.3c.203 0 .218-.028.463-.028h.404M205.722 33.272h.477c.114.03.128 0 .244 0M204.797 33.272h-.202M203.78 33.216h-.318M206.704 31.628h.072M206.66 31.715h.16M206.646 31.742h.16M206.816 31.796c-.043 0-.043 0-.144.057M206.737 31.882s.058-.03.043 0M206.83 31.94h-.115M206.69 31.967h.16M206.89 32.05h-.202M206.646 32.14c.116 0 .202 0 .217-.028M206.89 32.14c-.045 0-.146.058-.19.058M206.658 32.28c.144-.058.158 0 .274-.058M206.942 32.28c-.043 0-.16 0-.173.028h-.088M206.64 32.396h.202c.015-.03.044 0 .044 0 .014-.03 0 0 .072 0M206.975 32.447c-.115 0-.173.03-.29.03M206.637 32.564c.13-.03.26-.03.376-.03M206.58 32.68c.144-.06.303-.06.39-.06M207.063 32.68c-.13.028-.317 0-.462.028M206.646 32.792s-.03.057.015.057c.16-.087.246-.087.405-.087" fill="#231f20"/><path d="M207.02 32.848c-.13.03-.247 0-.362 0-.044 0-.058.03-.058.03M206.614 32.932c.116 0 .347-.058.477-.058M207.163 32.963h-.36c-.088 0-.145.058-.232.058M206.53 33.108h.115c.173-.087.375-.087.49-.087M207.135 33.108c-.115 0-.216-.058-.404 0 0 0-.1.03-.13.03M206.59 33.218c.088 0 .146-.03.247-.087h.476M207.278 33.218h-.245c-.202 0-.347.057-.462.057M206.63 33.303c.13 0 .26-.03.376-.03.072-.057.202 0 .245 0M207.368 33.275c.23.03.49 0 .794.03M208.264 32.938h.087M208.25 32.963h.072M208.302 33.02h.043M208.247 33.132c.058-.028.115 0 .216-.028M208.24 33.222c.044-.087.16 0 .247-.087M208.214 33.275c.115-.057.202 0 .303-.057M208.2 33.306c.216-.03.288.057.533-.03M208.775 33.275c.23.03.693 0 1.04.03M208.855 33.363c.317 0 .678-.057.924 0M208.17 33.363c.23-.057.405 0 .563 0M207.405 33.36s.03-.057.073-.057c.202 0 .447 0 .65.057M206.604 33.36c.16 0 .274 0 .505-.057h.202M205.75 33.303c.275 0 .492.057.766 0M204.673 33.36c.346-.057.635 0 .952-.057M204.553 33.36s.1-.057.087 0M202.095 33.358c.447-.087.895 0 1.284-.058M203.413 33.3h.202M203.733 33.3h.808M207.986 31.8c.072 0 .274-.06.274-.06M208.038 31.856h.288M208.142 31.882h.245M208.153 31.94h.318M208.504 31.97h-.245M208.338 32.056c.087-.03.216-.03.26-.03M208.634 32.112h-.246M208.5 32.14c.044 0 .16 0 .26-.028M208.75 32.197c-.044 0-.116 0-.174.03M208.668 32.28c.044 0 .203 0 .23-.058M208.992 32.28c-.087 0-.116 0-.29.028M208.813 32.396c.058-.03.173-.03.26-.03M209.177 32.396h-.246c-.07 0-.1.058-.07 0M209.255 32.568h-.275M209.034 32.68c.144-.057.274-.057.39-.057M209.19 32.852h.16c.115 0 .23-.057.317 0M209.78 32.883h-.446c-.043 0-.072.057-.072.057M209.298 32.965c.115 0 .404 0 .534-.03M209.98 32.965c-.145.058-.275.058-.39.058h-.203M209.464 33.108h.086c.16-.087.347-.058.506-.058M210.15 33.108h-.36c-.045 0-.13.03-.175.03M209.692 33.222c.173-.03.52-.087.29-.03.23-.057.23-.057.403-.057M210.414 33.222h-.318c-.043 0-.043 0-.317.058" fill="#231f20"/><path d="M209.903 33.275h.245c.072-.057.16 0 .26-.057M209.927 33.306c.217-.03.145-.03.332-.03.028.03.115.03.158.03M207.97 31.742c.045 0 .13-.03.16 0-.03-.03.087 0 .1-.03h.03M207.902 31.715c.115-.058.115-.058.202 0-.043-.058 0 0 .03-.058h.114M208.904 32.54c.03-.06.03-.06.115-.06h.158M209.06 32.71c.117 0 .32 0 .376-.03M209.597 32.766c-.202 0-.36 0-.462.03M208.15 31.628h-.288M209.442 31.856h.13M209.428 31.885h.16M209.428 31.97c.014-.03.13-.03.216-.03h.044M209.55 31.97h.203M209.763 32.027h-.246M209.597 32.112c.086 0 .23-.058.274-.058M209.962 32.112c-.043 0-.26.03-.303.03M209.676 32.197c.116 0 .274-.058.347-.058M210.108 32.226h-.246M209.877 32.284h.288M210.278 32.284c-.1.028-.217.028-.29.086M210.102 32.396c.058-.03.16 0 .26-.03M210.383 32.396h-.158s-.03.058-.116.058M210.54 32.568h-.245M210.35 32.626h.274M210.48 32.854h.116c.13 0 .187-.058.36-.058M210.96 32.854c-.216.03-.26.03-.375.03h-.086M210.557 32.94c.115 0 .317 0 .505-.06M211.228 32.965h-.563M210.662 33.053h.16c.057-.03.26-.03.417-.03M211.343 33.053c-.158 0-.245 0-.39.058h-.158M210.9 33.137c.114 0 .417-.03.273 0 .144-.03.217-.03.346-.03M211.54 33.138h-.244c-.058.058-.058.058-.318.087M211.02 33.222h.245c.13-.03.202 0 .332-.03M211.11 33.278c.116 0 .145-.058.347-.058h.16M209.324 31.856c.03-.057.03-.057.144-.057h.043c.03-.06.03-.06.117-.06" fill="#231f20"/><path d="M209.26 31.745h.246c.014-.03 0 0 .043 0M210.19 32.542c.03-.058.03-.058.115-.058h.16M210.346 32.71c.115 0 .245 0 .332-.03M210.8 32.77h-.36M209.52 31.715c-.203 0-.247 0-.333.03M210.724 32.112h.16M210.753 32.144s.115 0 .216-.03M210.723 32.2c.03-.058.23-.058.23-.058h.044M210.83 32.226l.216-.03M211.072 32.226c-.043 0-.16 0-.188.058M211.004 32.284h.116M211.192 32.314h-.202M211 32.37h.202M211.307 32.396h-.16M211.12 32.452c.043 0 .158 0 .274-.057M211.4 32.452c-.057.03-.13.03-.172.03M211.24 32.542c.1-.058.202 0 .23-.058M211.543 32.568h-.246M211.648 32.685c-.087-.058-.16 0-.274 0M211.472 32.71h.245M211.563 32.854c-.015.03.086 0 .115 0h.246M211.994 32.886h-.36M211.603 32.94h.448M212.152 32.968H211.704M211.722 33.02h.433M212.286 33.02c-.16 0-.173.03-.303.03-.072 0-.188.058-.217.058M211.88 33.11h.474M212.445 33.114h-.246c-.015.028-.087.028-.26.028M211.984 33.138h.448M212.04 33.196H212.442M210.645 32.112c.115-.058.115-.058.144-.058h.129M210.635 32.057c.057-.03.057-.03.13-.03h.129M211.395 32.626h.044c.027-.058.07 0 .07 0 .03-.058.073-.058.073-.058M211.486 32.77c.116 0 .202 0 .275-.06M211.837 32.797c-.043 0-.245 0-.318.058M210.838 31.972c-.13 0-.144.058-.188.058M212 32.144h.158M212.01 32.2c.087 0 .116 0 .145-.058M212.075 32.23h.116c.015-.03.044 0 .044 0M212.09 32.285l.23-.058M212.29 32.285h-.202M212.192 32.314s.173-.03.217-.03M212.448 32.37h-.202M212.235 32.4c.087 0 .217-.028.26-.028M212.556 32.4h-.202M212.406 32.457h.16M212.632 32.484h-.202M212.482 32.542h.246M212.712 32.57h-.202M212.814 32.686h-.158M212.643 32.712h.274M212.73 32.854h.36M213.177 32.854c-.145.03-.217.03-.332.03h-.044M212.81 32.94c.085 0 .345-.06.432-.06M213.333 32.94c-.13.028-.203 0-.332.028h-.13M212.89 33.026c.072 0 .144-.058.23-.058h.23M213.452 33.026h-.274c-.087 0-.188.028-.23.028M213.044 33.114c.086 0 .39-.058.274-.058h.23M213.608 33.114h-.491M213.232 33.138c.043 0 .043 0 .173-.03h.202M213.232 33.138h.36M212 32.144c.013-.03.013-.03.056-.03H212.17" fill="#231f20"/><path d="M211.93 32.115h.087c.03 0 .03 0 .058-.058h.087M212.605 32.63H212.807M212.735 32.77c.043 0 .16 0 .274-.06M213.002 32.797c-.043 0-.23-.028-.245 0M212.093 32.03c-.044 0-.13.028-.16.086" fill="#231f20"/><path d="M214.993 34.62l-3.003-8.588-11.606 8.574 14.61.015z" fill="none" stroke="#231f20" stroke-width=".043306290000000004"/><path d="M210.14 27.407s1.257-.303 2.325.015l.072.202s-1.386-.42-2.757.043l.36-.26z" fill="#2350a9"/><path d="M209.75 27.663s1.372-.477 2.83-.015l.058.217s-1.285-.55-3.147.014l.26-.217z" fill="#00adef"/><path d="M209.428 27.914s1.544-.62 3.19-.058l.1.246s-1.486-.737-3.622.072l.332-.26z" fill="#8cd024"/><path d="M209.06 28.178s1.98-.823 3.668-.058l.072.246s-1.53-.91-4.042.058l.303-.246z" fill="#fff200"/><path d="M208.713 28.44s2.15-1.01 4.1-.058l.086.288s-1.632-1.227-4.548.058l.36-.29z" fill="#f79210"/><path d="M208.276 28.758s2.613-1.356 4.648-.057l.1.347s-1.616-1.718-5.21.058l.462-.347z" fill="#ed1c24"/><path d="M207.786 29.116s3.292-1.79 5.27-.043l.115.39s-1.703-2.295-5.947.087l.563-.434z" fill="#ec008c"/><path d="M25.467 153.302l-8.127 16.254s40.087-23.847 79.092-34.14c39.02-10.292 64.107-13.714 64.107-13.714l3.623-26.907s-43.09 9.094-78.024 24.38c-43.336 18.955-60.673 34.127-60.673 34.127" fill="#2350a9"/><path d="M24.744 159.26l3.97-1.443-3.61 6.135 8.662-6.857 5.428-.722-.36-3.608 8.3-7.593-8.3 4.33-.723-3.248-4.705 7.232-8.66 5.775zM51.47 149.147l8.677-6.496 6.496-.36-.36-3.61 7.938-7.23-9.02 3.608-1.084-3.248-4.706 7.232-9.383 3.61h5.775l-4.33 6.495zM77.836 129.645l5.774 1.082-3.97 5.775 9.022-5.775 6.51.722-1.082-4.692 7.58-6.51-8.663 2.9-1.082-4.33-5.053 7.58-9.036 3.247zM106.008 118.81l6.496 1.445-3.97 6.495 8.3-5.774 7.233 1.083-1.444-4.693 7.94-5.774-9.383 2.512-1.444-4.69-4.69 6.51-9.038 2.886zM134.18 110.503l10.12-1.443 3.97-7.232 1.804 5.427 9.383-1.443-7.94 4.33 2.165 6.136-7.578-2.527-7.954 4.693 2.526-5.774-6.496-2.167z" fill="#fff"/></svg>