<svg xmlns="http://www.w3.org/2000/svg" width="398.627" height="88.823"><defs><clipPath id="a"><path d="M0 595.28h841.89V0H0v595.28z"/></clipPath></defs><g clip-path="url(#a)" transform="matrix(.537 0 0 -.537 -25.844 226.327)"><path d="M351.994 325.523l2.367 40.246-34.324-40.247h31.958zm0-7.465h-38.238l-7.65-9.47-8.74-10.472c-1.7-2.248-2.943-4.276-3.732-6.093-.61-1.402-.912-2.795-.912-4.195 0-1.454.776-2.808 2.322-4.05 1.548-1.245 4.114-1.955 7.696-2.14v-3.368h-36.876l.91 3.37c3.278.544 6.19 1.7 8.74 3.462 3.398 2.425 8.286 7.433 14.66 15.015l87.496 104.44h4.1l-4.1-101.065c-.18-5.28-.274-8.47-.274-9.564 0-4.125.834-7.132 2.505-9.01 1.67-1.885 4.448-2.98 8.33-3.28l-.907-3.368h-53.446l1.002 3.37c5.28.484 8.31.906 9.105 1.276 1.697.847 3.245 2.623 4.64 5.322 1.4 2.706 2.246 7.39 2.55 14.065l.82 15.755zM455.518 342.006c3.948-.486 7.22-.728 9.83-.728 8.383 0 14.967 3.822 19.765 11.47 4.788 7.65 7.192 15.63 7.192 23.946 0 5.648-1.55 10.03-4.645 13.157-3.095 3.127-7.378 4.69-12.836 4.69-1.155 0-2.583-.06-4.284-.183l-15.022-52.35zm-1.815-7.01l-10.025-34.42c-1.393-4.857-2.09-8.286-2.09-10.29 0-2.793.908-4.897 2.732-6.325 1.82-1.427 5.945-2.197 12.378-2.32l-1.18-3.37h-60.274l1.002 3.37c5.098.06 8.71.558 10.834 1.502 2.124.943 3.883 2.472 5.28 4.598 1.033 1.393 2.58 5.676 4.646 12.835l22.855 78.395c1.58 5.22 2.365 8.952 2.365 11.2 0 2.244-1 4.143-3.007 5.69-2 1.547-5.643 2.38-10.924 2.504l1.002 3.37h48.896c13.41 0 23.062-1.7 28.95-5.098 9.106-5.342 13.657-13.355 13.657-24.04 0-10.32-4.537-19.407-13.608-27.267-9.08-7.865-21.296-11.792-36.652-11.792-4.61 0-10.226.484-16.837 1.458M585.17 394.904l-13.75-47.89h4.187c11.046 0 19.108 1.457 24.175 4.37 5.07 2.914 9.36 8.07 12.886 15.477h3.366l-13.84-48.072h-3.184c.55 3.22.82 5.828.82 7.83 0 3.337-.99 6.07-2.964 8.193-1.967 2.126-4.536 3.642-7.692 4.554-2.063.605-6.338.914-12.835.914h-7.106l-11.833-41.43c-1.03-3.64-1.55-6.34-1.55-8.102 0-1.4.67-2.523 2.002-3.368 1.95-1.217 5.615-1.824 11.02-1.824 10.376 0 20.153 2.198 29.32 6.604 9.16 4.395 17.385 11.062 24.675 19.984h3.73l-12.835-33.87H508.14l1.093 3.368c6.196 0 10.71 1.168 13.568 3.505 2.856 2.336 5.432 7.48 7.74 15.43l23.22 79.488c1.27 4.43 1.912 7.92 1.912 10.472 0 2.306-.82 4.08-2.46 5.326-1.638 1.243-5.374 2.077-11.202 2.504l1.005 3.37h98.42l-7.918-30.867h-3.278c-.25 6.07-1.183 10.35-2.824 12.837-2.547 3.885-5.934 6.722-10.152 8.515-4.22 1.788-11.06 2.684-20.534 2.684h-11.56zM705.533 401.732l38.604-82.31 17.394 59.732c.907 3.276 1.368 6.19 1.368 8.74 0 3.033-.958 5.463-2.87 7.283-1.913 1.82-5.204 2.882-9.88 3.186l1.006 3.37h39.15l-.915-3.37c-4.973-.304-9.087-1.7-12.337-4.187-3.245-2.49-5.992-7.497-8.24-15.022l-30.135-102.25h-3.46l-49.53 105.25-23.942-82.037c-.795-2.848-1.19-5.397-1.19-7.643 0-3.28 1.08-5.903 3.24-7.878 2.15-1.974 5.594-2.957 10.327-2.957l-.82-3.37h-40.246l.82 3.37c3.464 0 5.926.298 7.38.906 2.547.97 5.034 2.842 7.467 5.604 2.424 2.76 4.398 6.75 5.913 11.967l26.132 89.687c-3.216 3.582-5.918 5.887-8.102 6.92-2.186 1.03-5.465 1.58-9.83 1.64l.997 3.368h41.698z" fill="#2b2b2a"/><path d="M54.305 347.92l61.12 61.118 64.15-64.15 65.7 65.705" fill="none" stroke="#00a0e4" stroke-width="17.488" stroke-miterlimit="10"/><path d="M54.305 309.668l61.12 61.12 64.15-64.145 65.7 65.7" fill="none" stroke="#00a0e4" stroke-width="17.488" stroke-miterlimit="10"/><path d="M54.305 271.42l61.12 61.12 64.15-64.146 65.7 65.704" fill="none" stroke="#00a0e4" stroke-width="17.488" stroke-miterlimit="10"/></g></svg>