<svg xmlns="http://www.w3.org/2000/svg" width="450" height="409.522"><defs><clipPath id="a"><path d="M166.5 679H279v47H166.5v-47z"/></clipPath></defs><g clip-path="url(#a)" transform="matrix(10.8917 0 0 -10.8917 -1849.864 7856.156)"><path d="M169.842 683.752h1.443l.378.837h2.618l.402-.838h1.437l-2.316 4.732h-1.682l-2.28-4.732zm3.118 3.634l.838-1.778h-1.652l.814 1.778zm4.852-1.013c0 .588.128.947.81.947h1.51c.682 0 .81-.36.81-.947v-.484l-1.222.842-.535-.967 1.216-.83c-.057-.013-.127-.02-.197-.02h-1.652c-.61 0-.738.262-.738.948v.51zm-1.326-.96c0-1.387.692-1.713 1.855-1.713h2.072c.565 0 1.013.078 1.327.307l.476-.307.535.947-.51.353c.022.13.028.262.028.412v1.412c0 1.385-.692 1.712-1.856 1.712h-2.07c-1.164 0-1.856-.327-1.856-1.712v-1.412zm6.562.025c0-1.176.54-1.738 1.727-1.738h1.85c1.187 0 1.728.562 1.728 1.738v3.046h-1.29v-2.732c0-.6-.193-.837-.723-.837h-1.28c-.53 0-.72.236-.72.837v2.732h-1.292v-3.046zm5.765-1.686h1.443l.378.837h2.618l.4-.838h1.438l-2.315 4.732h-1.682l-2.28-4.732zm3.118 3.634l.84-1.778h-1.653l.814 1.778zm2.88-.08h1.815v-3.554h1.292v3.555h1.815v1.177h-4.922v-1.177zm5.487-3.554h4.683v1.137h-3.392v.757h3.142v.98h-3.142v.76h3.316v1.097h-4.607v-4.732zm5.37 1.66c0-1.386.69-1.712 1.855-1.712h2.082c1.297 0 1.554.627 1.554 1.425v.444h-1.292c0-.59-.174-.655-.756-.655h-1.38c-.61 0-.738.262-.738.948v.51c0 .588.128.947.81.947h1.407c.383 0 .604-.098.604-.437v-.13h1.29c.013 1.34-.226 1.783-2.064 1.783h-1.518c-1.164 0-1.856-.327-1.856-1.712v-1.412z" fill="#1c1c1a" fill-rule="evenodd"/><path d="M201.583 699.4s-1.17-1.547-3.71-1.547c-2.476 0-3.69 1.54-3.69 1.54s-1.155-1.54-3.694-1.54c-2.477 0-3.69 1.54-3.69 1.54s-1.156-1.54-3.695-1.54c-2.477 0-3.68 1.54-3.68 1.54V721.3h22.16l-.002-21.9zm-.015-7.196s-1.155-1.54-3.694-1.54c-2.477 0-3.69 1.54-3.69 1.54s-1.156-1.54-3.695-1.54c-2.477 0-3.69 1.54-3.69 1.54s-1.156-1.54-3.695-1.54c-2.477 0-3.69 1.516-3.69 1.516v1.958s1.213-1.54 3.69-1.54c2.54 0 3.694 1.54 3.694 1.54s1.213-1.54 3.69-1.54c2.538 0 3.693 1.54 3.693 1.54s1.214-1.54 3.69-1.54c2.54 0 3.695 1.54 3.695 1.54v-1.934zm0 3.493s-1.155-1.54-3.694-1.54c-2.477 0-3.69 1.54-3.69 1.54s-1.156-1.54-3.695-1.54c-2.477 0-3.69 1.54-3.69 1.54s-1.156-1.54-3.695-1.54c-2.477 0-3.69 1.515-3.69 1.515v1.958s1.213-1.54 3.69-1.54c2.54 0 3.694 1.54 3.694 1.54s1.213-1.54 3.69-1.54c2.538 0 3.693 1.54 3.693 1.54s1.214-1.54 3.69-1.54c2.54 0 3.695 1.54 3.695 1.54v-1.933z" fill="#00a3e6" fill-rule="evenodd"/><path d="M199.885 701.927l-8.986 17.22h-5.467l8.986-17.22h5.465zM182.192 705.176c0 1.824 2.698 7.77 2.698 7.77s3.907-5.946 3.907-7.77c0-1.824-1.48-3.302-3.303-3.302-1.824 0-3.302 1.478-3.302 3.302m2.015 1.953s-.67-1.077.2-2.285c.872-1.21 2.16-.946 2.16-.946s.28.06.094-.264c-.187-.323-1.526-.847-3.043.91 0 0-.946 1.343.15 2.874 0 0 .52.215.44-.29" fill="#fff" fill-rule="evenodd"/></g></svg>