<svg xmlns="http://www.w3.org/2000/svg" width="380" height="381.093"><path d="M284.307 183.805c-5.907-14.466-17.228-25.39-31.876-30.754-12.73-4.64-28.583-3.423-42.426 3.25-1.743.837-3.578 1.852-5.463 3.02v-45.105h29.987v-30.4H204.54v-28.34h-30.397v28.34H144.16v30.4h29.983v43.99c-1.553-.93-3.068-1.75-4.517-2.453-13.785-6.682-29.594-7.898-42.284-3.26h-.002c-14.655 5.362-25.972 16.276-31.878 30.73-6.68 16.366-5.824 35.615 2.36 52.813 10.573 22.71 24.487 34.628 40.594 48.43 11.7 10.018 24.958 21.377 40.642 39.826l10.72 12.604 10.823-12.523c17.085-19.76 30.428-31.043 42.216-41 15.982-13.506 28.612-24.183 39.174-46.864 8.138-17.08 9-36.33 2.317-52.7" fill="#ee3338" fill-rule="evenodd"/><path d="M189.87 315.096c-38.07-44.772-62.844-49.943-79.237-85.162-12.038-25.298-3.75-54.844 21.582-64.12 16.077-5.875 46.557.878 57.654 34.6 11.09-33.14 41.574-39.913 57.682-34.042 25.33 9.276 33.632 38.85 21.58 64.148-16.386 35.19-38.41 37.304-79.263 84.576" fill="#fff215" fill-rule="evenodd"/><path d="M249.43 212.6h-19.88l-12.106-12.106c1.792-1.54 2.974-3.993 2.974-6.783 0-4.663-3.253-8.445-7.268-8.445-4.017 0-7.27 3.782-7.27 8.446 0 2.79 1.177 5.244 2.973 6.784l-8.62 8.623h-20.87s-7.46 0-11.436-3.48c-1.86-1.626-2.61-3.132-2.904-4.288 2.484-1.346 4.207-4.248 4.207-7.64 0-4.663-3.252-8.445-7.27-8.445-4.012 0-7.26 3.782-7.26 8.446 0 3.07 1.42 5.73 3.526 7.208.028 2.502-.462 5.984-3.22 7.208-4.466 1.985-5.463 3.98-12.423 4.474-6.952.494-15.9 0-15.9 0v5.96h19.382s8.447.993 6.46 9.44c-1.985 8.45-4.474 25.344-4.474 25.344h11.433l2.482-14.907 5.962 15.41h10.934l-6.956-21.867s-2.982-12.92 9.94-12.92h21.37l-10.44 26.34h10.938l-7.954 19.87h11.427l6.463-17.886 4.474 17.392h10.935l-5.964-18.886h8.946l-11.436-26.83h28.825v-6.46zM145.073 264.28h12.418v-5.472h-11.425l-.992 5.472z" fill="#3051a1"/><path d="M168.922 258.81v5.47h12.424l-.995-5.47h-11.428zM33.778 112.806l-5.28-1.638c-1.548-.455-4.033-1.282-5.703-1.84l-.05.106c1.447 1.01 3.713 2.55 4.952 3.457l4.446 3.256 1.635-3.34zm1.695 5.53l4.85 3.666-2.162 4.424-20.977-16.563 2.674-5.465 25.694 6.92-2.16 4.42-5.854-1.613-2.063 4.21zM37.62 96.877l.477-.755c1.183-1.867.362-3.9-1.574-5.124-1.866-1.183-3.686-1.28-4.976.612-.227.36-.464.805-.512 1.098l6.586 4.17zm-12.348-1.805c.588-1.51 1.504-3.317 2.54-4.954 1.493-2.36 3.148-4.25 5.37-4.86 2.064-.575 3.785-.036 5.687 1.165 2.356 1.494 3.762 3.99 3.378 6.914l.066.04c1.544-1.133 3.43-.997 6.058.07 2.728 1.13 5.82 2.262 6.888 2.387l-2.84 4.49c-.79-.132-3.328-1.05-5.96-2.26-3-1.346-4.224-1.157-5.135.283l-.393.624 8.81 5.58-2.715 4.292-21.755-13.77zM58.27 85.39c1.31-1.63-1.09-4.65-5.324-8.042-3.81-3.056-7.264-4.88-8.67-3.126-1.31 1.632 1.09 4.896 4.93 7.975 4.12 3.352 7.634 4.978 9.038 3.224l.027-.03zm11.332-.75c-2.133 1.172-4.736 2.315-6.856 3.1-.605.258-1.054.446-1.198.63-3.177 3.96-8.957 3.298-15.608-2.036-5.476-4.387-8.604-10.524-4.966-15.06 3.952-4.928 10.456-1.948 15.11 1.783 5.053 4.05 7.276 7.723 6.775 10.45l.152.123c1.617-.84 3.21-1.897 4.713-2.78l1.877 3.79zM53.956 57.16l11.93 12.07c2.7 2.728 4.344 2.738 5.28 1.812 1.048-1.035 1.058-2.516-1.724-5.326l-11.93-12.07 3.61-3.57 11.306 11.438c4.714 4.766 5.482 9.13 1.9 12.67-3.886 3.84-8.043 2.666-12.648-1.99L50.347 60.73l3.61-3.57zM70.11 42.487L86.8 62.602l-3.91 3.244L66.2 45.733l3.91-3.246zM92.14 53.506c.237-.07.556-.29.78-.445 2.004-1.39 2.388-4.578-1.717-10.503-3.048-4.395-6.048-6.276-8.566-4.533-.285.2-.573.398-.762.67L92.14 53.507zM75.606 38.56c.875-.983 2.294-2.2 3.95-3.35 2.71-1.877 5.03-2.543 7.28-2.218 2.998.376 5.918 2.55 8.81 6.722 3.004 4.333 4.028 8.195 3.297 11.155-.462 2.393-2.133 4.54-5.127 6.617-1.305.903-2.7 1.683-3.594 2.16L75.606 38.56zM97.572 24.01l12.966 22.665-4.405 2.52L93.167 26.53l4.405-2.52zM119.29 37.678c1.936-.893 1.05-4.75-1.175-9.567-1.918-4.15-4.287-7.62-6.363-6.662-2.04.942-1.125 5.043.855 9.334 2.142 4.728 4.61 7.855 6.65 6.914l.034-.018zm1.678 4.09c-5.38 2.485-10.123-2.235-13.127-8.743-2.987-6.47-3.004-13.247 2.236-15.666 5.733-2.65 10.257 2.898 12.76 8.312 4.126 8.933 2.633 14.017-1.832 16.08l-.036.015zM143.262 32.467c-.582.57-1.852 1.287-3.538 1.865-6.307 2.157-11.093-2.02-13.488-9.025-3.185-9.313.744-14.71 5.548-16.353 1.686-.578 2.97-.65 3.562-.483l.57 4.312c-.635-.068-1.334-.075-2.398.287-2.713.927-4.366 4.115-2.274 10.24 2.02 5.9 5.045 7.447 7.98 6.442.805-.274 1.66-.772 2.182-1.155l1.856 3.87zM154.162 18.393l-5.804 1.395 1.65 6.86 6.558-1.576 1.034 4.294-11.496 2.768-6.11-25.403 11.042-2.656 1.034 4.297-6.107 1.47 1.406 5.84 5.803-1.395.99 4.108zM159.71 23.707c1.12.426 2.944.594 4.4.384 2.38-.34 3.353-1.736 3.112-3.424-.27-1.877-1.556-2.634-3.946-3.74-3.837-1.64-5.572-4.17-5.91-6.508-.594-4.144 1.67-7.994 7.08-8.77 1.687-.243 3.364-.017 4.198.334l-.182 4.452c-.795-.356-1.968-.62-3.426-.41-2.15.312-2.996 1.764-2.798 3.144.222 1.535 1.104 2.23 4.15 3.516 3.71 1.58 5.35 4.006 5.743 6.73.68 4.717-2.364 8.327-7.428 9.057-2.07.3-4.18.055-5.097-.325l.104-4.438zM179.5.458l1.752 26.067-5.066.34L174.433.8 179.5.457zM185.288 21.035c1.038.598 2.812 1.052 4.286 1.078 2.402.037 3.586-1.184 3.613-2.89.03-1.897-1.115-2.846-3.303-4.317-3.53-2.23-4.84-5-4.803-7.364.07-4.187 2.917-7.628 8.38-7.54 1.705.027 3.326.52 4.093.997l-.883 4.364c-.73-.477-1.847-.92-3.32-.943-2.17-.036-3.238 1.263-3.26 2.66-.026 1.548.735 2.376 3.537 4.127 3.416 2.15 4.65 4.804 4.606 7.557-.075 4.766-3.653 7.848-8.77 7.764-2.094-.033-4.138-.608-4.982-1.128l.808-4.365zM212.777 23.803c.22.11.602.166.87.207 2.414.36 4.875-1.706 5.933-8.834.782-5.29-.122-8.713-3.15-9.16-.342-.052-.688-.103-1.014-.03l-2.64 17.817zM210.937 1.6c1.31-.12 3.176-.04 5.17.257 3.258.48 5.404 1.584 6.825 3.36 1.928 2.32 2.572 5.903 1.83 10.923-.772 5.21-2.665 8.73-5.22 10.388-1.975 1.43-4.66 1.855-8.263 1.32-1.573-.232-3.12-.618-4.1-.88l3.757-25.37zM239.48 21.81l-5.782-1.487-1.755 6.83 6.53 1.68-1.103 4.28-11.447-2.946 6.51-25.3 11 2.833-1.104 4.28-6.08-1.566-1.496 5.816 5.778 1.49-1.05 4.09zM264.858 33.966c.885-2.32 2.057-5.488 3.242-8.017l-.106-.046c-1.543 2.373-3.467 5.042-4.736 6.688l-5.795 7.662-3.3-1.44 1.68-9.288c.376-2.12 1.04-5.382 1.813-8.13l-.108-.045c-1.2 2.56-2.66 5.52-3.84 7.838l-4.017 8.142-4.01-1.752 12.182-23.182 4.902 2.136-1.862 9.505c-.644 3.313-1.202 6.243-1.95 9.127l.07.03c1.515-2.507 3.228-4.976 5.182-7.716l5.66-7.847 4.908 2.14-8.988 24.577-4.158-1.812 3.232-8.57zM281.306 42.134l2.08-5.125c.585-1.502 1.624-3.91 2.322-5.524l-.1-.06c-1.13 1.357-2.86 3.483-3.867 4.64l-3.625 4.153 3.19 1.914zm-5.656 1.216l-4.072 4.52-4.22-2.535 18.298-19.486 5.218 3.13-9.094 25.016-4.22-2.536 2.11-5.696-4.02-2.414zM284.163 55.663l15.916-20.7 3.682 2.833-3.036 10.565c-.617 2.07-1.657 5.52-2.443 7.752l.06.045c1.555-2.273 4.042-6.08 6.97-9.887l3.516-4.578 3.533 2.718-15.917 20.7-3.684-2.836 2.882-10.295c.67-2.27 1.725-5.612 2.704-7.84l-.06-.05c-1.515 2.162-3.816 5.474-7.005 9.62l-3.59 4.668-3.53-2.715zM312.715 66.793l3.19-4.517c.913-1.33 2.467-3.44 3.514-4.852l-.083-.08c-1.408 1.063-3.576 2.743-4.823 3.638l-4.47 3.222 2.67 2.59zm-5.783-.098l-4.99 3.477-3.533-3.427 22.24-14.82 4.368 4.232-14.53 22.293-3.535-3.424 3.345-5.07-3.366-3.26zM321.83 90.83c-1.078-.56-2.978-2.105-4.197-3.564-1.915-2.29-2.702-4.56-2.485-7.017.22-3.117 2.452-6.55 5.95-9.377 7.326-5.983 13.842-4.357 17.4-.107 1.27 1.516 1.916 2.895 2.144 3.768l-3.93 2.126c-.18-.815-.653-1.68-1.473-2.66-2.214-2.648-5.793-3.24-10.996 1.114-4.848 4.055-5.004 7.37-3.486 9.182.3.358.553.6.737.7l4.845-4.055-1.494-1.784 3.213-2.687 4.502 5.38-10.733 8.98zM348.065 84.064l-14.175 9.34c-3.205 2.112-3.538 3.726-2.81 4.825.81 1.23 2.26 1.525 5.56-.65l14.177-9.34 2.794 4.238-13.432 8.852c-5.597 3.692-10.027 3.59-12.8-.615-3.006-4.565-1.043-8.415 4.428-12.018l13.465-8.874 2.795 4.24zM346.45 113.386l4.48-3.238c1.293-.963 3.45-2.452 4.9-3.45l-.054-.105c-1.676.55-4.27 1.436-5.74 1.88l-5.277 1.597 1.69 3.316zm-5.44-1.97l-5.847 1.672-2.232-4.387 25.844-6.808 2.76 5.423-20.974 16.375-2.232-4.385 4.81-3.712-2.128-4.177zM9.228 195.918c2.48-.075 5.856-.213 8.645-.093v-.115c-2.78-.51-5.986-1.26-7.993-1.797l-9.303-2.4.058-3.602 9.22-2.02c2.1-.47 5.367-1.116 8.203-1.456v-.117c-2.826-.124-6.117-.332-8.71-.53l-9.063-.575.07-4.377 26.09 2.324-.086 5.347-9.49 1.938c-3.308.684-6.225 1.294-9.178 1.71v.08c2.9.433 5.835 1.065 9.118 1.814l9.422 2.206-.087 5.35L0 200.765l.073-4.532 9.155-.316zM5.534 212.69c.245 2.12 4.19 2.483 9.468 1.872 4.544-.524 8.586-1.695 8.322-3.97-.257-2.23-4.443-2.644-9.142-2.102-5.166.56-8.91 1.93-8.652 4.163l.004.038zm-4.413.315c-.68-5.89 5.29-8.924 12.417-9.75 7.087-.818 13.537 1.286 14.202 7.023.724 6.28-5.966 8.85-11.897 9.536-9.784 1.13-14.152-1.878-14.717-6.768l-.005-.04zM4.07 229.604l24.24-11.375 1.22 5.486-10.613 4.26c-2.623 1.06-5.647 2.285-8.562 3.29l.017.075c3.104-.33 6.262-.593 9.24-.777l11.286-.676 1.208 5.45-26.803-.17-1.233-5.563zM34.247 241.722l-24.95 7.68-1.494-4.848 24.95-7.68 1.494 4.848zM25.652 266.455c2.24-1.068 5.273-2.554 7.875-3.563l-.046-.107c-2.75.652-5.984 1.258-8.038 1.572l-9.48 1.55-1.396-3.323 7.624-5.558c1.733-1.278 4.463-3.182 6.92-4.637l-.044-.106c-2.638 1.025-5.734 2.158-8.187 3.023l-8.525 3.12-1.696-4.036 24.808-8.374 2.074 4.93-7.905 5.594c-2.75 1.956-5.175 3.69-7.708 5.26l.027.072c2.83-.77 5.77-1.374 9.077-2.008l9.51-1.773 2.074 4.93-23.46 11.588-1.755-4.18 8.25-3.973zM47.175 271.137l-22.96 12.465-2.42-4.465 22.958-12.46 2.422 4.46zM42.858 292.027l-3.223-5.02-5.936 3.808 3.643 5.675-3.717 2.387-6.385-9.947 21.976-14.11 6.134 9.554-3.716 2.387-3.392-5.28-5.054 3.244 3.223 5.022-3.552 2.28zM36.495 302.998l20.46-16.263 2.896 3.642-5.503 9.527c-1.097 1.862-2.942 4.963-4.243 6.94l.048.06c2.06-1.835 5.393-4.93 9.158-7.923l4.522-3.593 2.776 3.49-20.46 16.262-2.896-3.642 5.285-9.305c1.2-2.043 3.033-5.034 4.523-6.962l-.05-.06c-1.992 1.73-5.026 4.394-9.126 7.65l-4.612 3.667-2.777-3.49zM67.544 306.653l-3.218-3.302 3.358-3.272 10.007 10.27-3.358 3.272-3.244-3.33-15.348 14.954-3.545-3.635 15.35-14.957zM69.85 332.652c1.624 1.383 4.755-1.044 8.196-5.09 2.964-3.482 5.12-7.094 3.377-8.578-1.714-1.455-5.054 1.098-8.117 4.698-3.395 3.934-5.197 7.49-3.486 8.945l.03.025zm-3.01 3.24c-4.518-3.84-2.222-10.13 2.425-15.595 4.62-5.434 10.77-8.294 15.17-4.552 4.813 4.093 1.675 10.534-2.192 15.08-6.38 7.502-11.624 8.282-15.374 5.093l-.03-.026zM90.057 347.703c.158.19.485.394.716.538 2.07 1.293 5.15.38 8.963-5.734 2.83-4.537 3.368-8.037.77-9.658-.295-.184-.592-.367-.915-.433l-9.533 15.288zm7.175-21.096c1.248.41 2.928 1.23 4.638 2.3 2.795 1.74 4.325 3.607 4.92 5.805.84 2.9 0 6.438-2.685 10.745-2.788 4.473-5.927 6.944-8.933 7.447-2.382.522-5.015-.16-8.105-2.087-1.348-.84-2.616-1.812-3.408-2.445l13.572-21.765zM116.29 353.584l-5.356-2.642-3.12 6.332 6.05 2.983-1.956 3.963-10.604-5.23 11.558-23.436 10.188 5.024-1.955 3.965-5.633-2.78-2.658 5.39 5.354 2.64-1.868 3.79zM137.813 361.718l-5.65-1.926-2.276 6.68 6.386 2.177-1.424 4.18-11.196-3.81 8.423-24.738 10.755 3.66-1.426 4.184-5.945-2.023-1.936 5.69 5.65 1.922-1.36 4.003zM139.624 374.257l5.873-25.456 4.532 1.05 1.627 10.875c.303 2.136.79 5.71 1.003 8.067l.075.018c.468-2.718 1.147-7.214 2.227-11.898l1.298-5.628 4.345 1.003-5.873 25.457-4.532-1.047-1.66-10.567c-.334-2.344-.765-5.824-.8-8.258l-.074-.018c-.48 2.594-1.198 6.566-2.374 11.664l-1.324 5.74-4.344-1zM173.193 379.853c-.774.256-2.23.346-3.997.125-6.612-.83-9.08-6.68-8.163-14.023 1.222-9.763 7.118-12.89 12.154-12.26 1.768.22 2.955.72 3.412 1.13l-1.377 4.122c-.542-.34-1.166-.655-2.28-.793-2.847-.355-5.73 1.782-6.533 8.2-.774 6.19 1.268 8.906 4.342 9.29.847.106 1.83.034 2.47-.083l-.03 4.293zM183.094 354.594l-.45 16.974c-.1 3.837 1.03 5.03 2.35 5.066 1.472.038 2.547-.982 2.65-4.933l.45-16.976 5.076.137-.427 16.084c-.176 6.704-2.79 10.28-7.83 10.145-5.463-.144-7.496-3.96-7.323-10.51l.427-16.12 5.077.134zM208.628 368.5l-5.948.43.51 7.033 6.72-.488.318 4.404-11.783.853-1.887-26.04 11.32-.82.322 4.405-6.26.45.434 5.992 5.95-.433.304 4.212zM215.202 379.34l-4.49-25.72 4.578-.8 5.728 9.38c1.11 1.853 2.95 4.955 4.062 7.04l.075-.014c-.625-2.683-1.75-7.088-2.575-11.818l-.992-5.688 4.387-.767 4.492 25.723-4.58.8-5.636-9.085c-1.22-2.028-2.967-5.063-3.945-7.292l-.08.013c.57 2.578 1.452 6.51 2.354 11.663l1.01 5.802-4.388.766zM233.263 353.827l-4.438 1.25-1.27-4.513 13.8-3.88 1.27 4.51-4.474 1.26 5.798 20.626-4.884 1.373-5.8-20.626zM251.955 355.25l.83-.323c2.058-.803 2.603-2.93 1.773-5.06-.8-2.058-2.21-3.214-4.367-2.456-.398.155-.852.374-1.064.58l2.83 7.26zm-8.87-8.773c1.368-.865 3.177-1.78 4.98-2.482 2.604-1.013 5.053-1.553 7.207-.727 2 .758 3.07 2.214 3.885 4.308 1.013 2.6.662 5.44-1.376 7.568l.025.07c1.916.006 3.35 1.234 4.835 3.652 1.524 2.525 3.343 5.268 4.127 6.002l-4.947 1.928c-.556-.572-2.053-2.82-3.457-5.348-1.617-2.865-2.712-3.438-4.302-2.817l-.685.27 3.787 9.713-4.73 1.842-9.346-23.978zM275.21 356.062c1.893-.978.838-4.795-1.598-9.51-2.097-4.06-4.62-7.423-6.652-6.373-1.996 1.03-.903 5.085 1.266 9.287 2.35 4.63 4.954 7.643 6.95 6.613l.034-.018zm1.855 4.012c-5.266 2.72-10.212-1.788-13.502-8.155-3.272-6.334-3.585-13.106 1.542-15.753 5.612-2.9 10.378 2.442 13.116 7.744 4.517 8.743 3.252 13.89-1.122 16.147l-.033.017zM285.157 349.363c1.193-.08 2.922-.69 4.16-1.49 2.014-1.306 2.317-2.98 1.39-4.41-1.03-1.593-2.513-1.74-5.145-1.748-4.172.117-6.804-1.455-8.088-3.438-2.274-3.512-1.827-7.956 2.758-10.926 1.433-.925 3.05-1.42 3.955-1.45l1.694 4.118c-.87.01-2.043.263-3.28 1.062-1.82 1.18-1.982 2.854-1.225 4.025.842 1.3 1.935 1.56 5.235 1.456 4.032-.115 6.536 1.402 8.032 3.71 2.59 4.002 1.335 8.55-2.96 11.332-1.756 1.135-3.774 1.796-4.764 1.836l-1.76-4.075zM317.882 330.917c-.335.742-1.253 1.876-2.61 3.03-5.08 4.313-11.063 2.175-15.852-3.465-6.367-7.5-4.687-13.96-.82-17.246 1.36-1.153 2.53-1.687 3.14-1.748l2.11 3.8c-.62.17-1.273.418-2.13 1.145-2.183 1.855-2.557 5.425 1.63 10.356 4.036 4.754 7.417 5.085 9.78 3.08.65-.553 1.264-1.328 1.61-1.875l3.142 2.922zM322.906 320.695c1.49-1.524-.713-4.814-4.51-8.525-3.27-3.198-6.723-5.595-8.32-3.96-1.572 1.61.742 5.116 4.125 8.42 3.688 3.656 7.108 5.7 8.68 4.092l.026-.027zm3.025 3.227c-4.144 4.24-10.258 1.515-15.385-3.498-5.1-4.983-7.53-11.31-3.493-15.44 4.413-4.518 10.622-.944 14.887 3.226 7.04 6.88 7.46 12.164 4.017 15.685l-.026.027zM334.773 313.993l-20.566-16.103 2.866-3.664 10.542 3.134c2.064.634 5.507 1.707 7.73 2.51l.048-.06c-2.264-1.573-6.048-4.095-9.83-7.057l-4.546-3.56 2.748-3.51 20.566 16.104-2.868 3.66-10.273-2.97c-2.263-.693-5.6-1.778-7.82-2.777l-.047.06c2.147 1.534 5.44 3.866 9.56 7.093l4.638 3.63-2.747 3.51zM349.223 294.366l-8.462-5.33-16.703-3.738 2.89-4.593 6.233 1.817c1.66.494 3.57 1.1 5.416 1.807l.04-.067c-1.443-1.277-2.822-2.65-4.148-4.034l-4.36-4.576 2.813-4.462 10.364 13.444 8.623 5.433-2.704 4.296zM335.467 266.144l15.194 7.563c3.434 1.71 4.995 1.184 5.582.007.656-1.32.185-2.724-3.354-4.484l-15.196-7.563 2.263-4.543 14.398 7.165c6.002 2.987 8.14 6.865 5.897 11.373-2.436 4.893-6.75 5.126-12.614 2.208l-14.433-7.183 2.264-4.543zM370.03 249.486c.05 1.214-.348 3.63-1.007 5.41-1.035 2.8-2.615 4.612-4.856 5.642-2.815 1.357-6.902 1.125-11.09-.507-8.832-3.39-10.656-9.848-8.734-15.045.686-1.855 1.56-3.1 2.205-3.732l3.798 2.356c-.62.555-1.136 1.396-1.58 2.596-1.195 3.234.066 6.636 6.426 8.99 5.927 2.19 8.882.682 9.702-1.537.162-.437.244-.778.24-.988l-5.924-2.19-.807 2.18-3.926-1.45 2.433-6.58 13.12 4.854zM364.695 233.973l-5.508-.524c-1.607-.13-4.21-.435-5.96-.64l-.028.114c1.624.694 4.158 1.738 5.555 2.377l5.022 2.28.918-3.607zm2.788 5.07l5.5 2.606-1.218 4.77-23.924-11.943 1.507-5.898 26.577 1.534-1.216 4.77-6.064-.383-1.16 4.544zM350.86 221.75l.79-5.017 21.554 3.396 1.042-6.625 4.25.673-1.833 11.635-25.803-4.064zM368.255 197.85l-.41 5.953 7.036.49.47-6.73 4.408.307-.817 11.795-26.068-1.806.787-11.333 4.406.305-.433 6.266 5.995.416.414-5.957 4.213.292zM374.65 193.506c.564-1.057.958-2.845.93-4.32-.045-2.4-1.307-3.542-3.01-3.51-1.9.034-2.808 1.215-4.2 3.45-2.108 3.603-4.833 5.012-7.197 5.055-4.186.076-7.726-2.65-7.824-8.114-.035-1.705.402-3.34.854-4.125l4.392.734c-.45.746-.857 1.878-.83 3.352.04 2.17 1.38 3.19 2.77 3.166 1.552-.03 2.352-.82 4.006-3.678 2.027-3.487 4.64-4.815 7.393-4.866 4.766-.088 7.97 3.382 8.063 8.496.038 2.094-.467 4.16-.953 5.018l-4.394-.656z" fill="#3051a1"/></svg>