<svg xmlns="http://www.w3.org/2000/svg" width="400" height="71.665"><path d="M366.348 47.078v16.845c0 4.514 3.79 4.59 7.314 4.59v2.11c-3.58-.35-7.314-.554-10.96-.554-3.51 0-7.034.26-10.52.552v-2.185c3.245 0 7.658-.247 7.658-4.514V26.576c0-4.578-3.696-4.528-7.404-4.528v-2.292h18.788c8.096 0 17.518 3.397 17.518 13.245 0 6.32-4.387 11.03-9.987 13.113l1.29 2.197c2.754 4.724 9.885 19.727 16.28 19.727 1.205 0 2.43-.36 3.675-.717l-.394 3.352c-1.098.147-2.17.235-3.282.235-5.023 0-9.302-1.62-12.61-5.676-4.572-5.567-8.502-11.803-12.04-18.152h-5.326zm0-24.61v21.797h4.133c6.402 0 11.818-4.083 11.818-10.997 0-6.96-4.673-10.775-11.188-10.8h-4.762zM41.195 50.123l3.76 12.095c.196.73.615 2.762.615 3.29 0 1.86-1.924 2.768-6.178 3.187v2.032c4.965-.597 7.575-.82 11.24-.82 3.675 0 6.31.223 11.294.82v-2.032c-6.514-.52-7.62-1.238-9.143-5.645L32.343 0 8.96 62.644C7.23 67.552 6.114 68.276 0 68.694v2.033c4.083-.515 6.305-.597 9.36-.597 2.952 0 5.206.082 9.25.597v-2.032c-4.78-.197-6.52-1.035-6.52-3.092 0-.927.336-2.235 1.27-4.92l3.625-10.56h24.21zm-23.207-2.85l11.994-33.126 10.3 33.125H17.987zM104.522 54.73c0 5.035-.724 7.702-2.762 10.248-3.117 4.127-8.406 6.26-15.232 6.26-5.994 0-10.667-1.644-14.026-4.806-3.054-2.864-4.07-5.746-4.07-11.074V25.662c0-3.765-.4-4.134-6.61-4.616V19.3c4.972.52 7.334.59 9.97.59 2.646 0 4.99-.07 9.967-.59v1.746c-6.528.482-6.94.717-6.94 4.616v29.823c0 4.92.54 6.737 2.45 8.7 2.267 2.336 5.702 3.574 10.09 3.574 8.914 0 13.403-4.008 13.403-12.198v-29.9c0-3.9-.42-4.134-6.717-4.616V19.3c4.184.31 6.298.393 8.66.393 2.432 0 4.464-.082 8.445-.393v1.746c-6.317.482-6.628.717-6.628 4.616V54.73zM137.376 64.37c-.222 3.703.508 4.122 6.7 4.592v1.765c-4.966-.514-7.322-.597-9.982-.597-2.63 0-4.84.083-9.817.597v-1.765c6.185-.413 6.858-.89 6.7-4.59V22.235h-5.366c-5.104 0-6.317 1.162-8.888 8.52h-2.007l2.007-11.148h35.195l2.14 11.15H152.1c-2.342-7.264-3.542-8.522-8.342-8.522h-6.382V64.37zM181.5 18.772c-12.933 0-21.34 10.242-21.34 26.026 0 16.103 8.407 26.44 21.62 26.44 12.838 0 21.232-10.337 21.232-25.938 0-16.286-8.317-26.528-21.512-26.528m0 2.546c9.137 0 14.63 9.042 14.63 23.874 0 14.47-5.493 23.525-14.35 23.525-9.124 0-14.807-9.277-14.807-23.81 0-14.65 5.46-23.59 14.527-23.59M215.437 50.44c2.038 12.082 7.917 17.93 18.013 17.93 8.515 0 14.42-5.727 14.42-14.134 0-5.435-2.032-8.483-7.518-11.683-1.238-.724-1.238-.724-11.493-5.86-11.385-5.823-14.23-9.322-14.23-17.6 0-10.643 7.404-17.818 18.59-17.818 5.29 0 8.745 1.34 12.503 5.023l2.858-5.36h1.734v17.906h-1.93c-2.743-10.394-7.137-14.82-14.826-14.82-7.448 0-13.328 5.848-13.328 13.195 0 4.202 1.924 7.3 6.083 9.828 2.546 1.67 2.642 1.67 10.077 5.378 7.62 3.765 9.137 4.59 11.797 6.743 3.645 2.983 5.562 7.364 5.562 12.958 0 11.435-8.027 19.106-19.824 19.106-6.197 0-10.667-1.64-15.245-5.632l-3.536 6.063h-1.63V50.44h1.923zM280.515 64.37c-.203 3.703.515 4.122 6.7 4.592v1.765c-4.992-.514-7.31-.597-9.97-.597-2.64 0-4.863.083-9.848.597v-1.765c6.204-.413 6.91-.89 6.705-4.59V22.235h-5.378c-5.092 0-6.305 1.162-8.832 8.52h-2.044l2.044-11.148h35.176l2.115 11.15h-1.918c-2.374-7.264-3.555-8.522-8.343-8.522h-6.407V64.37zM330.458 55.56l3.25 9.213c.173.635.376 1.378.376 1.86 0 1.537-.908 1.918-5.194 2.325v1.77c4.908-.513 7.054-.596 9.467-.596 2.457 0 4.565.083 9.46.597v-1.772c-5.682-.407-6.095-.68-7.428-4.477l-17.773-47.658-17.995 47.36c-1.65 4.312-2.038 4.51-7.124 4.776v1.77c3.657-.297 5.588-.4 7.905-.4 2.362 0 4.3.103 7.975.4v-1.77c-4.362-.038-5.498-.464-5.498-2.007 0-.64.298-1.84.577-2.767l3.06-8.623h18.94zm-17.93-2.647l8.743-22.992 8.147 22.993h-16.89z"/></svg>