<svg xmlns="http://www.w3.org/2000/svg" width="400" height="172.283"><path d="M23.862 16.27c-5.45 5.172-9.03 11.334-11.005 18.346-4.044 14.35-1.217 31.1 4.487 44.575 5.74 13.56 15.4 24.212 30.212 33.027 2.468 1.466 3.235.7 2.585-1.508l-.87-2.97c-.636-2.006.07-2.206 2.28-.6l4.275 3.23c5.783 4.193 7.644 8.27 15.057 11.42l5.747 3.152c4.645 2.547 8.422 6.263.068 5.482-3.912-.368-8.442-.262-13.5.252-3.187.33-6.255.778-9.104 1.444-2.347.547-4.716 1.837-7.06 2.073-1.507.153-2.33-.157-2.023-1.228.357-1.24 1.04-2.297 1.31-3.633.322-1.587.245-2.95-.308-4.04-1.1-2.17-7.98-5.2-10.35-7.064-15.615-12.29-24.898-24.19-30.076-35.837-7.056-15.87-7.15-32.484-1.837-48.71 3.033-9.264 7.687-17.372 15.23-23.416C29.444 1.88 42.862-1.346 55.913.507c9.22 1.31 17.565 4.618 24.456 10.33C86.49 15.81 92.163 21.036 97.3 26.57c2.277 2.128 1.76 4.625-1.08 1.32-4.737-5.965-10.487-11.073-17.05-15.49-7.295-4.81-15.08-7.9-23.605-8.39-12.004-.687-23.013 4.01-31.703 12.26" fill="#f46a25" fill-rule="evenodd"/><path d="M26.112 66.84c-.418-2.387 1.65-4.15 4.37-2.786.982.493 1.73 1.25 2.507 2.005 3.55 3.443 7.104 7.27 9.87 11.54 3.842 5.934.175 9.938-4.996 3.735-3.135-3.762-6.39-7.545-9.77-11.35-.87-.98-1.743-1.787-1.982-3.146M38.26 23.887c.464.828.804 1.776.954 2.403.26 1.088.536 2.178.826 3.266 1.227 4.588 2.363 10.01 5.205 13.833l6.432 9.562c2.027 3.147-.357 8.053-3.787 4.12-.922-1.056-1.636-2.156-2.325-3.266-2.533-4.082-4.836-7.967-6.946-12.26-1.436-2.92-2.778-5.702-3.66-8.853-.68-2.433-.974-4.51-.917-6.27.076-2.39 1.987-6.532 4.218-2.536M59.333 20.122c.092 8.056 2.526 15.772 3.393 23.236.15 1.295.277 2.57.37 3.826.536 7.22-2.458 8.127-4.315.97-.38-1.47-.738-2.955-1.072-4.46-1.62-7.31-2.676-15.09-3.052-23.435-.314-7.02 4.598-6.974 4.677-.138M78.454 20.3c.63.443.654 1.508.533 2.576-.26 2.298-.533 4.594-.792 6.893-.677 5.974-.78 11.996-.947 18.008-.055 1.976.016 4.032-.565 5.943-1 3.3-3.22 3.323-4.004-.66-.354-1.79-.23-3.512-.116-5.316.39-6.17 1.136-12.29 1.793-18.437.284-2.655.683-5.436 1.745-7.385.637-1.168 1.71-2.075 2.352-1.622M92.6 37.015l-7.615 18.662c-1.23 3.053-2.278 5.67-1.297 6.183.756.396 1.953-1.208 3.58-4.62l9.413-19.586c.438-.908.815-1.712 1.036-2.7.853-3.816-1.126-4.193-3.123-1.708-.93 1.155-1.44 2.417-1.992 3.77M75.972 60.67c-1.82-1.01-3.68-1.813-5.59-2.35-5.036-1.416-11.262-.886-15.64 1.736-8.397 5.027-9.96 17.506-8.173 26.396 1.193 5.925 4.34 11.212 10.206 13.867 3.954 1.79 8.272 2.062 12.4 1.16 4.58-.998 10.114-3.593 12.272-7.998 1.406-2.87 1.552-5.504-.223-9.544-1.418-3.23-5.84-5.712-10.972-8.62-1.05-.593-1.845-1.065-3.06-1.204-1.112-.127-1.596.12-1.543.79.108 1.358 1.326 2.322 2.16 3.283 3.975 4.588 7.325 9.196 8.725 13.125 1.632 4.58-1.962 6.566-5.73 6.663-9.494.242-18.88-9.463-20.652-18.195-.766-3.162-.673-5.975.2-8.516.998-2.9 3.216-5.825 5.763-7.578 2.957-2.036 5.515-1.1 10.284 2.116 2.046 1.38 4.16 3.01 6.286 4.886 1.96 1.727 3.77 4.09 6.077 5.347 5.923 3.227 9.235-2.8 6.296-7.848-1.882-3.227-5.878-5.735-9.088-7.516M126.48 85.958c2.074-10.214 4.256-20.417 6.54-30.652l9.738 30.652H126.48zM112.527 18.65l6.094 8.15L88.457 130.21h29.764c1.348-7.95 2.765-15.854 4.247-23.736h26.808l7.54 23.736h38.298L155.44 18.65h-42.913zM162.054 19.27h13.732l6.06 19.512c1.162-6.504 2.266-13.01 3.126-19.513h12.356l-4.316 13.244c-2.022 6.205-4.828 12.638-5.43 19.188-.378 4.1-.212 8.968 4.224 10.885 1.998.865 4.62.845 7.885-.194l-1.016 11.528c-12.638.77-18.647-4.495-21.53-12.544l-2.317-6.463-12.773-35.644zM217.3 19.27h13.88v30.364l1.525 2.925h-12.61v-2.835c-5.908 5.248-18.873 4.385-18.873-7.013V20.63l-1.357-1.36h13.268v20.525c0 5.377 5.522 5.285 5.522.18V20.63l-1.356-1.36zM254.454 25.204c-2.28.716-4.092 2.624-5.23 5.005-1.667 3.486-2.066 13.404 2.162 13.845.836.087 1.852-.305 3.068-1.39v-17.46zm-17.91 3.825c3.037-8.022 9.69-11.365 17.91-8.97V7.506h14.134V19.27h.004v30.366l1.522 2.924H255.09l-.313-2.39c-2.363 1.563-4.867 2.495-7.6 2.39-4.22-.108-7.057-1.496-8.944-3.762-4.37-5.248-3.972-13.733-1.688-19.77M288.9 35.79c-2.993-.158-4.74 2.646-4.94 5.005-.212 2.503 1.315 4.5 4.94 1.925v-6.93zm-12.315-1.614c2.88-2.447 6.788-3.607 12.31-3.44-.1-3.114-2.404-4.91-6.004-4.95-2.397 0-5.133.79-8.21 2.37v-8.887c11.254-.848 26.254-2.56 26.237 13.286V49.82l1.778 2.74H289.83l-.892-2.137c-3.09 3.06-10.12 2.845-13.67.832-5.666-3.212-4.42-12.206 1.317-17.08M239.895 79.684h-9.603v-21.08l-1.055-2.03h8.724v1.966c4.088-3.643 13.057-3.044 13.057 4.87v15.33l.938.944h-9.178v-14.25c0-3.733-3.82-3.668-3.82-.124v13.43l.938.944zM215.77 65.547c-.01-1.034.16-2.225.626-3.17.76-1.536 2.11-1.69 3.668-.287.884.797 1.322 1.86-.014 2.5l-3.025 1.455c-1.138.544-1.24.703-1.254-.498m10.502 6.786c-1.822 1.223-3.34 1.603-4.548 1.837-2.353.454-4.038-1.243-5.003-3.56l11.245-5.217c-.317-2.253-.937-4.078-1.857-5.475-2.853-4.33-9.61-4.256-13.605-1.65-1.596 1.04-2.79 2.543-3.577 4.505-2.038 5.077-1.366 11.174 3.546 14.386 5.53 3.617 11.827 3.19 16.34-1.95l-2.54-2.877zM375.77 130.207h-19.295V86.32l-2.118-4.226h17.527v4.096c8.21-7.585 26.23-6.337 26.23 10.137v31.913l1.886 1.967h-18.44v-27.92c0-3.883-1.92-5.37-3.838-5.385-1.92-.015-3.838 1.438-3.838 5.128v26.21l1.885 1.967zM282.895 108.096V85.665l-2.118-3.944h20.454l-2.118 3.944v40.601l2.117 3.944h-20.453l2.118-3.944v-18.168zM290.93 78.51c5.875 0 10.664-4.428 10.664-9.858 0-5.43-4.79-9.86-10.663-9.86s-10.663 4.43-10.663 9.86 4.79 9.86 10.664 9.86M241.69 124.31c-8.795-8.975-4.71-26.344 3.36-34.333 8.583-8.498 18.91-8.14 29.716-7.247v13.976c-1.257-1.88-2.76-3.12-4.478-3.87-4.6-2-10.553-.97-13.3 3.512-2.872 4.687-3.5 14.897.126 19.37 4.926 6.072 11.858 5.365 17.398 1.217l3.47 7.53c-9.587 7.99-27.1 9.227-36.292-.154M199.136 124.31c-8.795-8.975-4.71-26.344 3.36-34.333 8.585-8.498 18.91-8.14 29.717-7.247v13.976c-1.258-1.88-2.76-3.12-4.48-3.87-4.6-2-10.55-.97-13.297 3.512-2.873 4.687-3.503 14.897.126 19.37 4.924 6.072 11.855 5.365 17.397 1.217l3.47 7.53c-9.59 7.99-27.1 9.227-36.294-.154M328.212 91.683c-3.073 0-5.587 4.06-5.587 7.78v13.211c0 3.722 2.514 7.782 5.587 7.782 3.072 0 5.585-4.06 5.585-7.782v-13.21c0-3.722-2.513-7.78-5.585-7.78m0-10.38c13.06 0 23.654 11.09 23.654 24.766 0 13.675-10.593 24.766-23.655 24.766-13.06 0-23.654-11.09-23.654-24.766 0-13.676 10.594-24.766 23.655-24.766M319.79 74.195l3.64 4.316 10.917-3.3c9.414-2.846.57-15.83-6.347-9.055l-8.21 8.04z" fill="#1b458f" fill-rule="evenodd"/><path d="M133.685 144.68c1.14 0 2.068-.927 2.068-2.066 0-1.14-.93-2.068-2.068-2.068-1.14 0-2.067.93-2.067 2.068 0 1.14.928 2.067 2.067 2.067" fill="#2e3192" fill-rule="evenodd"/><path d="M90.25 144.765c-.006-3.372 3.505-5.602 5.854-.786 2.588 5.312 5.14 10.622 7.702 15.94.208.43.726.787.724-.144l-.042-18.383h3.41l.04 21.085c.008 3.373-3.503 5.603-5.85.786-2.567-5.267-5.142-10.624-7.705-15.94-.207-.43-.725-.788-.723.143l.043 18.384h-3.41l-.042-21.085zM131.98 165.85h3.41v-18.364h-3.41v18.365zM163.137 147.486h8.243v3.12h-6.773c-.995 0-1.808.812-1.808 1.805v8.515c0 .995.812 1.808 1.807 1.808h6.773v3.118h-8.243c-2.095 0-3.81-1.712-3.81-3.807v-10.748c0-2.095 1.715-3.81 3.81-3.81M234.156 165.85v-14.556c0-2.095 1.714-3.808 3.808-3.808h4.072v3.118h-2.603c-.994 0-1.807.813-1.807 1.808v13.44h-3.47zM276.893 165.762h-9.062c-1.703-.378-2.99-1.906-2.99-3.72v-4.823c0-2.097 1.715-3.81 3.81-3.81h7.763v-.998c0-.995-.814-1.81-1.807-1.81h-9.765v-3.116h11.234c2.094 0 3.81 1.713 3.81 3.808v10.75c0 1.812-1.286 3.34-2.99 3.718m-.48-7.47c0-.993-.806-1.744-1.77-1.763h-4.523c-.996 0-1.81.81-1.81 1.806v2.59c0 .993.814 1.807 1.81 1.807h4.486c.993 0 1.807-.814 1.807-1.807v-2.633zM307.334 147.486c-1.705.38-2.99 1.913-2.99 3.732v10.788c0 2.1 1.715 3.82 3.81 3.82h7.76v1.514c0 .997-.812 1.814-1.806 1.814h-9.765v3.13h11.234c2.093 0 3.81-1.72 3.81-3.823V151.22c0-1.82-1.288-3.353-2.99-3.732h-9.063zm8.58 13.44c0 1-.804 1.752-1.768 1.772h-4.526c-.992 0-1.807-.817-1.807-1.813v-8.545c0-.997.815-1.814 1.807-1.814h4.488c.994 0 1.807.816 1.807 1.814v8.587zM207.264 165.762h-9.062c-1.704-.378-2.99-1.906-2.99-3.72v-4.823c0-2.097 1.714-3.81 3.81-3.81h7.762v-.998c0-.995-.814-1.81-1.807-1.81h-9.765v-3.116h11.233c2.094 0 3.81 1.713 3.81 3.808v10.75c0 1.812-1.286 3.34-2.99 3.718m-.48-7.47c0-.993-.806-1.744-1.77-1.763h-4.525c-.995 0-1.808.81-1.808 1.806v2.59c0 .993.814 1.807 1.808 1.807h4.487c.993 0 1.807-.814 1.807-1.807v-2.633zM348.276 162.7c-.993 0-1.807-.82-1.807-1.815v-13.4H343v14.52c0 2.1 1.713 3.823 3.806 3.823h8.107c2.093 0 3.808-1.722 3.808-3.823v-14.52h-3.47v13.4c0 .995-.814 1.814-1.807 1.814h-5.167zM395.06 165.762H386c-1.705-.378-2.99-1.906-2.99-3.72v-4.823c0-2.097 1.713-3.81 3.808-3.81h7.763v-.998c0-.995-.813-1.81-1.806-1.81h-9.765v-3.116h11.232c2.094 0 3.81 1.713 3.81 3.808v10.75c0 1.812-1.287 3.34-2.99 3.718m-.48-7.47c0-.993-.805-1.744-1.77-1.763h-4.526c-.995 0-1.808.81-1.808 1.806v2.59c0 .993.813 1.807 1.807 1.807h4.487c.993 0 1.807-.814 1.807-1.807v-2.633z" fill="#1b458f" fill-rule="evenodd"/></svg>