<svg xmlns="http://www.w3.org/2000/svg" width="400" height="92.584"><path d="M138.268 60.325h-27.412V1.97h27.412v58.355zM165.198 31.065c3.703-3.065 6.02-7.44 6.02-12.308 0-9.264-8.398-16.773-18.76-16.773-.18 0-.358.012-.534.016h-8.033v58.325h7.98c.197.005.392.016.59.016 10.36 0 18.758-7.56 18.758-16.882 0-4.9-2.317-9.31-6.02-12.393M198.842 60.27h27.82l-29.06-58.175-14.926 29.888 16.166 28.286zM179.74 37.86l-11.195 22.41h24L179.74 37.86zM371.273 60.278h27.817L370.032 2.104l-14.925 29.888 16.166 28.286zM352.17 37.87l-11.194 22.408h24l-12.806-22.41zM253.233 27.044h27.57c-2.14-13.554-13.53-24.06-27.57-25.01v25.01z" fill="#00723f"/><path d="M253.233 32.667h-5.676V2.177c-14.874 1.765-26.405 14.298-26.405 29.502 0 15.206 11.53 27.737 26.405 29.5V39.505h5.676v21.818c15.277-1.032 27.406-13.384 27.91-28.656h-27.91zM283.713 20.65c0 10.065 11.815 18.227 26.39 18.227V2.424c-14.575 0-26.39 8.16-26.39 18.225M342.37 42.56c0-9.818-11.816-17.778-26.39-17.778v35.554c14.574 0 26.39-7.96 26.39-17.777M342.37 20.184c0-10.066-11.816-18.227-26.39-18.227v18.227h26.39zM283.713 43.517c0 9.297 11.815 16.832 26.39 16.832V43.516h-26.39z" fill="#00723f"/><path d="M112.726 71.488v2.353h1.736c.675 0 1.102-.018 1.285-.053.28-.05.504-.164.68-.35.174-.187.263-.436.263-.75 0-.263-.07-.488-.202-.67-.138-.186-.333-.317-.59-.402-.252-.084-.805-.126-1.66-.126h-1.512zm0-3.5v2.035h1.227c.732 0 1.187-.01 1.362-.028.322-.038.573-.14.758-.315.183-.176.274-.403.274-.687 0-.272-.08-.492-.236-.664-.16-.172-.396-.273-.705-.31-.188-.02-.72-.03-1.602-.03h-1.077zm-1.874-1.462h3.71c.735 0 1.28.03 1.645.087.36.056.682.18.966.363.284.185.523.43.713.734.19.305.284.65.284 1.032 0 .41-.118.788-.35 1.133-.234.342-.553.6-.952.774.563.154 1 .42 1.302.796.305.376.455.816.455 1.328 0 .4-.097.788-.293 1.165-.197.38-.465.68-.805.905-.34.227-.757.365-1.255.417-.314.033-1.067.052-2.26.06h-3.16v-8.796zM121.76 70.92c0 .993.24 1.75.727 2.264.485.514 1.102.772 1.85.772.746 0 1.36-.258 1.84-.767.477-.51.716-1.277.716-2.295 0-1.008-.232-1.76-.7-2.256-.465-.496-1.084-.747-1.856-.747-.774 0-1.398.253-1.87.755-.47.502-.707 1.257-.707 2.27m-1.933.06c0-.897.143-1.647.425-2.257.21-.447.5-.848.865-1.202.366-.36.767-.62 1.198-.795.58-.232 1.246-.345 2-.345 1.37 0 2.46.4 3.284 1.203.82.808 1.23 1.924 1.23 3.357 0 1.42-.408 2.53-1.22 3.333-.815.802-1.903 1.2-3.266 1.2-1.384 0-2.48-.396-3.293-1.195-.815-.798-1.223-1.895-1.223-3.298M130.343 75.323v-8.725h1.874v7.243h4.658v1.483h-6.532zM137.737 72.46l1.822-.168c.112.58.332 1.008.668 1.278.337.272.79.41 1.358.41.602 0 1.057-.124 1.362-.366.307-.24.46-.522.46-.848 0-.21-.064-.383-.19-.53-.13-.146-.357-.273-.678-.383-.22-.07-.718-.2-1.5-.382-1.005-.234-1.708-.527-2.114-.87-.568-.485-.854-1.073-.854-1.77 0-.448.134-.865.4-1.257.27-.392.656-.687 1.16-.89.507-.205 1.114-.306 1.827-.306 1.165 0 2.042.242 2.628.725.59.483.898 1.13.93 1.94l-1.875.077c-.08-.454-.253-.778-.516-.977-.263-.197-.66-.298-1.187-.298-.544 0-.97.108-1.278.32-.2.135-.298.316-.298.545 0 .207.094.387.28.535.236.185.808.382 1.718.586.915.206 1.588.417 2.027.635.432.218.775.516 1.02.893.247.38.374.847.374 1.403 0 .505-.15.976-.443 1.417-.297.44-.712.767-1.254.98-.54.214-1.212.32-2.02.32-1.172 0-2.072-.256-2.703-.77-.63-.513-1.002-1.264-1.126-2.246M151.777 71.842l-1.28-3.264-1.25 3.264h2.53zm3.45 3.48h-2.038l-.81-1.997h-3.71l-.767 1.998h-1.986l3.614-8.797h1.982l3.715 8.797zM163.78 71.842l-1.28-3.264-1.25 3.264h2.53zm3.45 3.48h-2.04l-.808-1.997h-3.71l-.767 1.998h-1.986l3.613-8.797h1.982l3.714 8.797zM172.54 72.088v-1.482h4.04v3.504c-.393.36-.963.678-1.71.95-.742.277-1.495.413-2.262.413-.968 0-1.815-.195-2.535-.577-.722-.387-1.266-.94-1.628-1.658-.363-.718-.546-1.5-.546-2.343 0-.915.203-1.73.61-2.442.405-.713.996-1.26 1.776-1.64.596-.292 1.337-.438 2.224-.438 1.15 0 2.05.228 2.7.69.647.457 1.064 1.088 1.25 1.897l-1.863.33c-.13-.43-.375-.773-.736-1.022-.36-.25-.81-.377-1.35-.377-.82 0-1.47.246-1.954.74-.483.49-.724 1.22-.724 2.19 0 1.043.243 1.828.734 2.35.487.52 1.13.78 1.925.78.393 0 .784-.07 1.18-.218.395-.146.732-.322 1.016-.53v-1.117h-2.146zM180.187 70.246h1.386c.9 0 1.46-.035 1.684-.11.225-.07.4-.192.526-.37.126-.176.19-.397.19-.66 0-.295-.083-.534-.25-.715-.168-.182-.402-.3-.705-.346-.152-.018-.61-.03-1.367-.03h-1.463v2.232zm-1.874 5.078v-8.8h3.943c.994 0 1.714.083 2.164.237.448.16.81.442 1.08.846.27.405.405.867.405 1.386 0 .66-.206 1.205-.614 1.637-.41.428-1.022.7-1.836.81.404.223.74.47 1.004.74.263.266.62.742 1.067 1.427l1.133 1.717h-2.242l-1.353-1.916c-.48-.683-.812-1.114-.99-1.292-.176-.176-.364-.3-.563-.366-.2-.068-.51-.1-.943-.1h-.38v3.674h-1.874zM189.22 70.92c0 .993.242 1.75.727 2.264.486.514 1.102.772 1.85.772.746 0 1.36-.258 1.84-.767.478-.51.717-1.277.717-2.295 0-1.008-.232-1.76-.7-2.256-.466-.496-1.085-.747-1.856-.747-.774 0-1.396.253-1.87.755-.47.502-.708 1.257-.708 2.27m-1.932.06c0-.897.143-1.647.424-2.257.21-.447.5-.848.865-1.202.366-.36.767-.62 1.2-.795.578-.232 1.244-.345 2-.345 1.37 0 2.462.4 3.283 1.203.82.808 1.23 1.924 1.23 3.357 0 1.42-.405 2.53-1.22 3.333-.815.802-1.903 1.2-3.265 1.2-1.382 0-2.482-.396-3.293-1.195-.816-.798-1.224-1.895-1.224-3.298M199.627 68.014v2.496h1.027c.737 0 1.232-.045 1.48-.136.25-.094.444-.237.587-.432.14-.197.212-.424.212-.685 0-.32-.1-.584-.298-.792-.197-.21-.45-.338-.753-.392-.224-.04-.672-.06-1.348-.06h-.905zm-1.87 7.308v-8.797h3.003c1.14 0 1.88.047 2.228.134.532.133.978.42 1.337.86.36.443.537 1.01.537 1.712 0 .54-.103.994-.31 1.365-.206.365-.47.656-.788.863-.32.21-.642.35-.97.417-.45.087-1.098.13-1.947.13h-1.22v3.315h-1.87zM206.4 75.323v-8.795h6.882v1.487h-5.01v1.95h4.66v1.483h-4.66v2.393h5.188v1.483h-7.06zM220.986 72.088l1.815.545c-.276.96-.74 1.674-1.388 2.14-.647.467-1.47.7-2.464.7-1.234 0-2.245-.4-3.04-1.196-.793-.8-1.19-1.89-1.19-3.274 0-1.464.4-2.604 1.197-3.41.798-.812 1.846-1.218 3.145-1.218 1.135 0 2.06.32 2.768.955.422.375.738.917.95 1.62l-1.856.42c-.11-.455-.34-.816-.685-1.08-.35-.264-.773-.397-1.27-.397-.688 0-1.248.234-1.678.703-.425.47-.64 1.227-.64 2.275 0 1.113.21 1.903.63 2.377.422.47.973.706 1.65.706.496 0 .925-.148 1.284-.448.356-.3.614-.772.772-1.417M224.397 66.526h1.874v4.763c0 .757.022 1.247.072 1.47.08.36.27.65.572.868.302.218.713.326 1.238.326.53 0 .93-.1 1.2-.308.27-.206.435-.46.49-.757.055-.304.083-.8.083-1.497v-4.867h1.872v4.62c0 1.056-.05 1.804-.153 2.24-.1.436-.286.802-.558 1.102-.272.3-.638.54-1.093.718-.455.178-1.05.267-1.785.267-.886 0-1.56-.096-2.016-.29-.458-.195-.82-.446-1.086-.758-.265-.31-.44-.633-.526-.973-.122-.505-.183-1.25-.183-2.233v-4.694zM238.69 71.842l-1.277-3.264-1.253 3.264h2.53zm3.45 3.48h-2.037l-.81-1.997h-3.71l-.764 1.998h-1.99l3.614-8.797h1.982l3.715 8.797zM245.015 70.246h1.386c.9 0 1.462-.035 1.685-.11.225-.07.4-.192.526-.37.127-.176.19-.397.19-.66 0-.295-.082-.534-.248-.715-.17-.182-.404-.3-.706-.346-.152-.018-.61-.03-1.367-.03h-1.465v2.232zm-1.874 5.078v-8.8h3.944c.994 0 1.714.083 2.164.237.448.16.81.442 1.08.846.27.405.405.867.405 1.386 0 .66-.206 1.205-.614 1.637-.412.428-1.024.7-1.838.81.404.223.74.47 1.004.74.263.266.62.742 1.067 1.427l1.133 1.717h-2.242l-1.353-1.916c-.48-.683-.81-1.114-.99-1.292-.175-.176-.363-.3-.562-.366-.2-.068-.51-.1-.943-.1h-.38v3.674h-1.874zM252.44 66.526h1.874v8.795h-1.874v-8.794zM261.018 71.842l-1.278-3.264-1.253 3.264h2.53zm3.45 3.48h-2.038l-.81-1.997h-3.71l-.764 1.998h-1.99l3.615-8.797h1.983l3.715 8.797zM270.45 68.014v5.826h1.397c.526 0 .9-.028 1.135-.082.305-.075.556-.195.758-.368.2-.17.36-.455.49-.85.124-.39.19-.93.19-1.61s-.066-1.2-.19-1.565c-.13-.366-.305-.65-.532-.853-.228-.204-.52-.34-.868-.415-.26-.054-.774-.083-1.54-.083h-.84zm-1.872-1.49H272c.77 0 1.362.06 1.768.17.542.153 1.008.422 1.398.812.39.387.682.863.886 1.423.202.562.303 1.254.303 2.077 0 .727-.094 1.35-.284 1.874-.23.64-.562 1.16-.993 1.556-.326.298-.765.532-1.316.7-.414.123-.965.186-1.66.186h-3.522v-8.797zM277.945 75.323v-8.795h6.88v1.487h-5.01v1.95h4.66v1.483h-4.66v2.393h5.19v1.483h-7.06zM290.213 75.323v-8.795h1.822l3.8 5.873V66.53h1.74v8.795h-1.88l-3.74-5.737v5.737h-1.742zM299.498 66.526h1.874v8.795h-1.874v-8.794zM309.096 72.088l1.815.545c-.276.96-.74 1.674-1.387 2.14-.648.467-1.47.7-2.465.7-1.234 0-2.245-.4-3.04-1.196-.792-.8-1.19-1.89-1.19-3.274 0-1.464.4-2.604 1.197-3.41.798-.812 1.846-1.218 3.145-1.218 1.136 0 2.06.32 2.768.955.422.375.74.917.95 1.62l-1.855.42c-.11-.455-.34-.816-.685-1.08-.352-.264-.774-.397-1.27-.397-.688 0-1.25.234-1.678.703-.425.47-.638 1.227-.638 2.275 0 1.113.21 1.903.63 2.377.42.47.972.706 1.647.706.496 0 .926-.148 1.284-.448.357-.3.615-.772.772-1.417M317.44 71.842l-1.28-3.264-1.252 3.264h2.53zm3.448 3.48h-2.038l-.81-1.997h-3.71l-.764 1.998h-1.988l3.614-8.797h1.982l3.714 8.797zM323.763 70.246h1.386c.897 0 1.46-.035 1.683-.11.225-.07.4-.192.525-.37.127-.176.19-.397.19-.66 0-.295-.082-.534-.248-.715-.17-.182-.404-.3-.706-.346-.153-.018-.608-.03-1.368-.03h-1.463v2.232zm-1.874 5.078v-8.8h3.942c.994 0 1.714.083 2.164.237.448.16.81.442 1.08.846.27.405.405.867.405 1.386 0 .66-.206 1.205-.614 1.637-.41.428-1.022.7-1.836.81.403.223.74.47 1.004.74.262.266.62.742 1.067 1.427l1.134 1.717h-2.242l-1.354-1.916c-.48-.683-.81-1.114-.99-1.292-.175-.176-.363-.3-.562-.366-.2-.068-.512-.1-.943-.1h-.38v3.674h-1.874zM336.164 71.842l-1.28-3.264-1.25 3.264h2.53zm3.45 3.48h-2.04l-.808-1.997h-3.71l-.764 1.998h-1.99l3.615-8.797h1.982l3.714 8.797zM344.925 72.088v-1.482h4.04v3.504c-.393.36-.963.678-1.708.95-.744.277-1.497.413-2.264.413-.968 0-1.815-.195-2.537-.577-.72-.387-1.264-.94-1.626-1.658-.363-.718-.546-1.5-.546-2.343 0-.915.204-1.73.61-2.442.406-.713.997-1.26 1.778-1.64.595-.292 1.336-.438 2.223-.438 1.15 0 2.05.228 2.7.69.647.457 1.064 1.088 1.25 1.897l-1.863.33c-.13-.43-.375-.773-.736-1.022-.36-.25-.812-.377-1.35-.377-.822 0-1.472.246-1.955.74-.482.49-.723 1.22-.723 2.19 0 1.043.243 1.828.734 2.35.488.52 1.13.78 1.926.78.392 0 .783-.07 1.18-.218.394-.146.73-.322 1.015-.53v-1.117h-2.145zM350.68 66.526h1.873v4.763c0 .757.02 1.247.07 1.47.08.36.27.65.572.868.303.218.713.326 1.238.326.53 0 .932-.1 1.2-.308.27-.206.435-.46.49-.757.055-.304.083-.8.083-1.497v-4.867h1.872v4.62c0 1.056-.05 1.804-.152 2.24-.1.436-.287.802-.56 1.102-.27.3-.637.54-1.092.718-.454.178-1.05.267-1.784.267-.887 0-1.56-.096-2.017-.29-.458-.195-.82-.446-1.086-.758-.265-.31-.44-.633-.525-.973-.122-.505-.183-1.25-.183-2.233v-4.694zM364.973 71.842l-1.278-3.264-1.253 3.264h2.53zm3.45 3.48h-2.038l-.81-1.997h-3.71l-.764 1.998h-1.988l3.614-8.797h1.982l3.715 8.797zM369.36 73.637h1.78v1.205c0 .49-.045.872-.137 1.156-.086.282-.255.535-.502.758-.245.225-.557.4-.937.527l-.35-.694c.36-.113.615-.268.768-.463.15-.197.233-.464.24-.804h-.86v-1.686zM376.146 72.46l1.822-.168c.112.58.335 1.008.668 1.278.338.272.79.41 1.358.41.603 0 1.058-.124 1.365-.366.306-.24.456-.522.456-.848 0-.21-.063-.383-.19-.53-.13-.146-.354-.273-.677-.383-.217-.07-.72-.2-1.5-.382-1.006-.234-1.71-.527-2.115-.87-.568-.485-.854-1.073-.854-1.77 0-.448.135-.865.402-1.257.267-.392.654-.687 1.16-.89.505-.205 1.113-.306 1.826-.306 1.165 0 2.042.242 2.63.725.59.483.897 1.13.93 1.94l-1.877.077c-.078-.454-.25-.778-.515-.977-.262-.197-.66-.298-1.184-.298-.545 0-.972.108-1.28.32-.2.135-.3.316-.3.545 0 .207.097.387.282.535.237.185.81.382 1.72.586.914.206 1.59.417 2.023.635.436.218.778.516 1.025.893.248.38.373.847.373 1.403 0 .505-.15.976-.444 1.417-.298.44-.714.767-1.255.98-.54.214-1.213.32-2.02.32-1.172 0-2.073-.256-2.704-.77-.627-.513-1-1.264-1.124-2.246M385.255 73.637h1.78v1.686h-1.78v-1.686zM393.788 71.842l-1.28-3.264-1.25 3.264h2.53zm3.45 3.48h-2.04l-.808-1.997h-3.71l-.764 1.998h-1.99l3.615-8.797h1.983l3.714 8.797zM398.22 73.637H400v1.686h-1.78v-1.686zM113.315 79.674l.07-.23h4.3l-.086.23c-.39 0-.688.082-.894.25-.204.165-.387.51-.54 1.038l-1.61 5.4c-.118.38-.177.636-.177.763 0 .15.06.267.182.35.155.107.45.166.884.175l-.068.23h-4.37l.074-.23c.436 0 .755-.082.96-.24.203-.16.386-.51.553-1.047l1.623-5.4c.098-.335.15-.585.15-.754 0-.154-.064-.276-.183-.362-.122-.087-.41-.146-.87-.174M120.204 82.112l-.807 2.67c.544-.78.947-1.314 1.217-1.598.394-.415.732-.697 1.018-.847.286-.15.556-.225.804-.225.226 0 .42.08.58.24.16.16.24.368.24.626 0 .232-.053.513-.156.846l-.832 2.657c-.068.234-.104.38-.104.454 0 .042.017.077.05.11.032.033.065.05.098.05.047 0 .092-.017.14-.05.15-.117.303-.288.458-.51.04-.055.103-.144.19-.26l.246.142c-.635 1.027-1.306 1.538-2.005 1.538-.268 0-.477-.066-.63-.2-.15-.13-.227-.297-.227-.496 0-.176.05-.434.157-.777l.81-2.656c.058-.176.086-.305.086-.387 0-.044-.02-.084-.06-.122-.036-.035-.086-.05-.135-.05-.165 0-.365.107-.6.322-.595.547-1.172 1.363-1.73 2.446l-.535 1.846h-1.653l1.212-3.995c.118-.394.176-.673.176-.84 0-.07-.016-.128-.05-.178-.037-.047-.093-.084-.17-.11-.078-.028-.225-.04-.44-.04l.07-.237 2.187-.368h.397zM127.86 80.594l-.52 1.694h.85l-.227.715h-.838l-1.083 3.607c-.068.223-.106.394-.106.51 0 .053.02.102.06.14.04.04.08.058.13.058.075 0 .15-.028.225-.086.2-.146.433-.4.698-.76l.225.138c-.298.497-.624.863-.985 1.095-.36.232-.71.347-1.058.347-.295 0-.523-.07-.687-.215-.162-.14-.24-.324-.24-.542 0-.242.053-.55.168-.927l1.025-3.365h-.884l.133-.462c.555-.194 1.022-.42 1.402-.68.382-.264.84-.684 1.377-1.266h.337zM129.88 85.223c.38-.054.675-.13.886-.22.208-.095.415-.245.616-.45.202-.205.376-.463.523-.775.148-.314.22-.607.22-.882 0-.117-.032-.206-.1-.274-.068-.066-.152-.1-.258-.1-.204 0-.44.142-.7.42-.477.503-.874 1.263-1.188 2.28m-.06.324c-.037.27-.058.493-.058.664 0 .314.094.563.284.748.187.188.44.28.755.28.303 0 .608-.07.913-.212.307-.14.66-.387 1.063-.74l.194.17c-.497.575-.985.985-1.456 1.23-.472.245-.992.367-1.564.367-.723 0-1.222-.166-1.5-.5-.278-.33-.414-.714-.414-1.148 0-.68.206-1.36.62-2.04.412-.68.975-1.225 1.688-1.635.71-.413 1.425-.617 2.145-.617.363 0 .64.082.823.248.187.168.28.377.28.63 0 .302-.09.598-.273.882-.25.39-.565.706-.948.943-.382.24-.807.42-1.28.546-.315.083-.74.144-1.27.186M136.794 82.112l-.98 3.497c.804-1.706 1.412-2.757 1.817-3.148.24-.233.492-.35.754-.35.183 0 .33.064.44.19.116.127.172.305.172.537 0 .403-.103.74-.307 1.015-.13.173-.275.26-.435.26-.173 0-.302-.075-.39-.23-.086-.155-.147-.244-.182-.27-.033-.025-.07-.04-.11-.04-.045 0-.09.012-.136.038-.096.05-.22.17-.373.36-.155.196-.343.52-.568.97-.225.453-.4.832-.527 1.147-.126.314-.302.91-.527 1.79h-1.57l1.07-4.126c.078-.305.118-.51.118-.608 0-.115-.02-.2-.06-.262-.042-.064-.098-.108-.17-.136-.072-.028-.22-.045-.444-.045l.056-.18 1.963-.41h.39zM142.372 82.112l-.807 2.67c.544-.78.947-1.314 1.217-1.598.394-.415.732-.697 1.018-.847.286-.15.556-.225.804-.225.226 0 .42.08.58.24.16.16.24.368.24.626 0 .232-.053.513-.156.846l-.832 2.657c-.068.234-.104.38-.104.454 0 .042.017.077.05.11.032.033.065.05.098.05.047 0 .092-.017.138-.05.153-.117.305-.288.46-.51.04-.055.103-.144.19-.26l.246.142c-.635 1.027-1.306 1.538-2.007 1.538-.268 0-.476-.066-.63-.2-.15-.13-.226-.297-.226-.496 0-.176.055-.434.158-.777l.81-2.656c.058-.176.086-.305.086-.387 0-.044-.02-.084-.06-.122-.04-.035-.086-.05-.137-.05-.164 0-.364.107-.598.322-.597.547-1.174 1.363-1.732 2.446l-.535 1.846h-1.653l1.212-3.995c.118-.394.176-.673.176-.84 0-.07-.016-.128-.05-.178-.037-.047-.093-.084-.17-.11-.078-.028-.225-.04-.44-.04l.07-.237 2.187-.368h.397zM150.508 83.38c0-.336-.054-.578-.162-.726-.077-.105-.185-.157-.32-.157-.133 0-.27.064-.414.188-.288.258-.603.778-.938 1.564-.335.785-.502 1.463-.502 2.037 0 .218.038.378.113.476.075.1.16.146.248.146.195 0 .392-.11.59-.325.287-.307.545-.682.773-1.126.408-.78.612-1.47.612-2.08m2.078-1.18l-1.26 4.136-.13.502c-.013.066-.02.11-.02.14 0 .048.02.093.054.13.038.037.078.056.115.056.09 0 .218-.065.375-.2.068-.053.22-.243.472-.574l.225.115c-.307.537-.636.93-.985 1.178-.347.246-.722.37-1.126.37-.246 0-.434-.06-.563-.183-.13-.122-.194-.277-.194-.464 0-.162.067-.462.205-.9l.155-.505c-.502.824-.985 1.41-1.447 1.755-.268.197-.556.298-.86.298-.397 0-.683-.157-.862-.47-.177-.313-.264-.665-.264-1.06 0-.585.186-1.256.556-2.014.373-.756.863-1.366 1.468-1.825.497-.382.967-.572 1.403-.572.24 0 .438.068.586.2.147.137.252.38.323.738l.232-.764 1.54-.087zM156.676 80.594l-.518 1.694h.85l-.23.715h-.836l-1.083 3.607c-.07.223-.107.394-.107.51 0 .053.02.102.06.14.04.04.08.058.13.058.075 0 .15-.028.225-.086.2-.146.432-.4.697-.76l.225.138c-.298.497-.624.863-.985 1.095-.36.232-.71.347-1.058.347-.295 0-.523-.07-.687-.215-.162-.14-.242-.324-.242-.542 0-.242.054-.55.17-.927l1.024-3.365h-.884l.13-.462c.557-.194 1.024-.42 1.404-.68.382-.264.84-.684 1.376-1.266h.338zM159.546 79.25c.268 0 .495.09.678.268.185.178.277.394.277.647 0 .254-.093.47-.278.648-.188.178-.413.267-.676.267-.26 0-.483-.09-.668-.267-.188-.18-.28-.394-.28-.648 0-.253.092-.47.275-.647.186-.178.41-.267.673-.267m.404 2.862l-1.332 4.423c-.073.253-.11.418-.11.497 0 .047.018.09.058.127.04.04.08.06.122.06.073 0 .148-.03.223-.094.195-.152.428-.432.7-.833l.223.125c-.655 1.09-1.35 1.634-2.085 1.634-.282 0-.505-.075-.67-.227-.17-.15-.252-.343-.252-.575 0-.152.037-.35.11-.584l.903-2.973c.086-.287.128-.502.128-.648 0-.09-.04-.173-.124-.24-.08-.072-.195-.11-.336-.11-.065 0-.143.003-.234.008l.084-.25 2.2-.34h.392zM164.358 82.442c-.23 0-.42.064-.573.193-.302.262-.642.872-1.024 1.83-.382.96-.572 1.828-.572 2.6 0 .19.064.347.183.474.123.12.264.184.43.184.17 0 .317-.052.448-.15.19-.15.425-.483.7-1.006.276-.52.503-1.09.682-1.722.178-.628.265-1.203.265-1.726 0-.216-.054-.382-.16-.5-.11-.12-.234-.178-.377-.178m.265-.33c.344 0 .663.077.966.23.3.15.527.358.68.628.154.272.23.57.23.896 0 .67-.196 1.344-.587 2.014-.392.674-.908 1.204-1.548 1.593-.643.387-1.288.58-1.938.58-.586 0-1.04-.167-1.364-.503-.322-.337-.484-.748-.484-1.233 0-.575.12-1.117.36-1.62.24-.503.545-.944.915-1.32.368-.372.795-.68 1.276-.914.482-.234.98-.35 1.493-.35M170.455 82.112l-.807 2.67c.544-.78.947-1.314 1.217-1.598.394-.415.732-.697 1.018-.847.286-.15.556-.225.804-.225.225 0 .42.08.58.24.16.16.24.368.24.626 0 .232-.053.513-.156.846l-.832 2.657c-.068.234-.103.38-.103.454 0 .042.017.077.05.11.032.033.065.05.098.05.047 0 .09-.017.138-.05.154-.117.306-.288.46-.51l.19-.26.247.142c-.638 1.027-1.306 1.538-2.007 1.538-.268 0-.476-.066-.63-.2-.15-.13-.226-.297-.226-.496 0-.176.05-.434.157-.777l.812-2.656c.057-.176.085-.305.085-.387 0-.044-.02-.084-.06-.122-.04-.035-.086-.05-.137-.05-.164 0-.364.107-.598.322-.596.547-1.173 1.363-1.73 2.446l-.536 1.846h-1.653l1.212-3.995c.118-.394.176-.673.176-.84 0-.07-.015-.128-.05-.178-.036-.047-.092-.084-.17-.11-.077-.028-.224-.04-.44-.04l.07-.237 2.188-.368h.397zM178.59 83.38c0-.336-.054-.578-.164-.726-.075-.105-.183-.157-.316-.157-.134 0-.272.064-.416.188-.29.258-.605.778-.938 1.564-.337.785-.502 1.463-.502 2.037 0 .218.038.378.113.476.075.1.16.146.25.146.193 0 .39-.11.592-.325.283-.307.54-.682.77-1.126.406-.78.61-1.47.61-2.08m2.078-1.18l-1.26 4.136-.13.502c-.012.066-.02.11-.02.14 0 .048.02.093.057.13.035.037.075.056.113.056.09 0 .218-.065.375-.2.068-.053.22-.243.47-.574l.226.115c-.308.537-.636.93-.986 1.178-.347.246-.722.37-1.125.37-.248 0-.438-.06-.564-.183-.132-.122-.195-.277-.195-.464 0-.162.07-.462.207-.9l.155-.505c-.502.824-.985 1.41-1.447 1.755-.267.197-.556.298-.858.298-.4 0-.685-.157-.863-.47-.178-.313-.265-.665-.265-1.06 0-.585.184-1.256.555-2.014.372-.756.863-1.366 1.468-1.825.5-.382.966-.572 1.402-.572.244 0 .436.068.586.2.15.137.257.38.325.738l.232-.764 1.54-.087zM185.155 79.25l-2.15 7.004c-.125.415-.186.675-.186.778 0 .054.018.1.053.136.038.04.075.06.12.06.08 0 .152-.03.22-.09.207-.16.44-.436.695-.82l.255.112c-.413.63-.816 1.08-1.217 1.348-.272.183-.56.275-.87.275-.284 0-.51-.073-.68-.22-.17-.146-.254-.325-.254-.533 0-.153.052-.4.158-.74l1.754-5.736c.094-.314.14-.523.14-.628 0-.1-.046-.178-.135-.237-.123-.083-.31-.118-.555-.104l.07-.237 2.19-.37h.39zM190.097 79.443h7.085l-.668 2.27h-.235c.008-.12.01-.225.01-.316 0-.432-.13-.767-.395-1.006-.263-.236-.71-.372-1.337-.407l-1.96 6.353c-.11.352-.165.615-.165.783 0 .157.068.283.202.377.136.09.408.143.818.153l-.056.23h-4.372l.08-.23c.446 0 .77-.083.973-.24.204-.162.39-.518.556-1.074l1.963-6.353c-.675.023-1.24.164-1.693.424-.455.263-.87.697-1.248 1.307h-.253l.694-2.27zM198.746 82.112l-.98 3.497c.804-1.706 1.41-2.757 1.817-3.148.24-.233.49-.35.753-.35.183 0 .33.064.44.19.116.127.172.305.172.537 0 .403-.103.74-.305 1.015-.13.173-.277.26-.436.26-.174 0-.303-.075-.39-.23-.09-.155-.147-.244-.183-.27-.032-.025-.07-.04-.11-.04-.044 0-.09.012-.136.038-.096.05-.22.17-.373.36-.152.196-.342.52-.567.97-.225.453-.4.832-.528 1.147-.124.314-.3.91-.525 1.79h-1.572l1.072-4.126c.078-.305.115-.51.115-.608 0-.115-.02-.2-.06-.262-.04-.064-.097-.108-.17-.136-.07-.028-.22-.045-.443-.045l.056-.18 1.963-.41h.39zM205.063 83.38c0-.336-.054-.578-.162-.726-.076-.105-.184-.157-.318-.157-.133 0-.272.064-.415.188-.288.258-.603.778-.938 1.564-.336.785-.503 1.463-.503 2.037 0 .218.038.378.113.476.075.1.16.146.248.146.195 0 .392-.11.594-.325.283-.307.54-.682.77-1.126.407-.78.61-1.47.61-2.08m2.08-1.18l-1.26 4.136-.132.502c-.012.066-.02.11-.02.14 0 .048.02.093.058.13.035.037.075.056.112.056.092 0 .218-.065.376-.2.068-.053.222-.243.47-.574l.228.115c-.31.537-.637.93-.987 1.178-.345.246-.722.37-1.126.37-.245 0-.433-.06-.56-.183-.133-.122-.196-.277-.196-.464 0-.162.068-.462.206-.9l.155-.505c-.502.824-.985 1.41-1.447 1.755-.267.197-.556.298-.856.298-.4 0-.687-.157-.865-.47-.18-.313-.265-.665-.265-1.06 0-.585.185-1.256.555-2.014.373-.756.863-1.366 1.47-1.825.498-.382.965-.572 1.4-.572.245 0 .44.068.587.2.148.137.256.38.324.738l.232-.764 1.54-.087zM211.816 83.195c0-.254-.05-.44-.157-.554-.104-.116-.226-.172-.362-.172-.14 0-.29.068-.448.206-.31.263-.63.797-.966 1.6-.336.802-.502 1.477-.502 2.026 0 .2.035.345.11.44.073.095.155.144.246.144.15 0 .303-.068.455-.2.366-.316.73-.856 1.09-1.627.355-.77.533-1.39.533-1.862m2.857-3.945l-2.11 6.96c-.135.437-.203.702-.203.79 0 .046.02.085.054.12.035.033.07.05.11.05.073 0 .158-.035.25-.108.163-.112.358-.333.588-.66l.234.12c-.612 1.02-1.283 1.532-2.014 1.532-.258 0-.46-.068-.6-.197-.14-.13-.212-.295-.212-.5 0-.194.06-.473.17-.834l.194-.636c-.54.917-1.01 1.527-1.407 1.83-.305.225-.598.337-.885.337-.326 0-.598-.13-.82-.38-.223-.253-.333-.624-.333-1.107 0-.62.14-1.226.423-1.83.29-.602.617-1.104.992-1.505.375-.403.732-.69 1.072-.863.338-.17.673-.26 1-.26.173 0 .323.034.454.102.135.066.282.19.45.373l.482-1.55c.117-.38.176-.655.176-.82 0-.1-.04-.184-.115-.254-.08-.072-.183-.105-.314-.105-.062 0-.135.005-.23.016l.067-.24 2.137-.38h.39zM216.206 85.223c.382-.054.675-.13.886-.22.21-.095.415-.245.617-.45.2-.205.374-.463.522-.775.148-.314.22-.607.22-.882 0-.117-.032-.206-.1-.274-.068-.066-.153-.1-.258-.1-.207 0-.44.142-.702.42-.476.503-.872 1.263-1.186 2.28m-.06.324c-.037.27-.058.493-.058.664 0 .314.094.563.284.748.188.188.44.28.755.28.303 0 .608-.07.913-.212.307-.14.66-.387 1.062-.74l.195.17c-.497.575-.985.985-1.457 1.23-.47.245-.992.367-1.564.367-.722 0-1.222-.166-1.5-.5-.278-.33-.414-.714-.414-1.148 0-.68.207-1.36.622-2.04.41-.68.973-1.225 1.686-1.635.71-.413 1.426-.617 2.146-.617.363 0 .64.082.823.248.187.168.28.377.28.63 0 .302-.09.598-.274.882-.25.39-.565.706-.947.943-.384.24-.808.42-1.282.546-.314.083-.74.144-1.27.186M228.802 82.492c.362-.244.622-.495.788-.753.228-.353.343-.73.343-1.127 0-.3-.066-.53-.195-.692-.103-.118-.237-.177-.4-.177-.19 0-.346.073-.458.223-.162.225-.246.57-.246 1.04 0 .21.014.44.042.686.028.25.07.514.126.8m-1.557 1.2c-.5.263-.856.533-1.07.812-.213.28-.32.615-.32 1.004 0 .478.156.88.464 1.205.308.324.653.488 1.035.488.162 0 .345-.034.544-.104.2-.073.417-.174.65-.312-.264-.383-.52-.863-.765-1.443-.244-.58-.423-1.13-.54-1.647m-.096-.467c-.034-.225-.057-.427-.076-.605-.017-.18-.026-.34-.026-.478 0-.828.27-1.517.807-2.068.537-.547 1.17-.823 1.902-.823.467 0 .844.127 1.126.38.286.254.426.556.426.908 0 .443-.14.826-.418 1.145-.408.483-1.067.905-1.972 1.276.29.89.49 1.467.595 1.73.11.26.254.543.437.85.246-.262.424-.515.534-.762.106-.246.16-.45.16-.607 0-.13-.04-.248-.122-.346-.085-.1-.216-.174-.404-.218l.078-.225h2.493l-.095.226c-.235.054-.432.145-.59.272-.16.13-.46.47-.893 1.027-.304.4-.61.748-.914 1.05.347.463.663.78.95.955.18.113.387.174.62.174.137 0 .252-.024.353-.064.1-.042.22-.12.362-.236h.21c-.21.426-.484.75-.824.963-.343.216-.732.324-1.16.324-.367 0-.696-.067-.984-.208-.288-.138-.598-.373-.922-.703-.445.3-.896.53-1.346.68-.452.156-.907.23-1.367.23-.667 0-1.197-.177-1.59-.53-.395-.36-.592-.78-.592-1.258 0-.383.082-.723.25-1.023.17-.3.49-.618.965-.958.47-.34 1.146-.7 2.026-1.076M246.55 79.25l-.65 2.68h-.254c-.03-.728-.216-1.272-.563-1.63-.343-.36-.79-.54-1.346-.54-.596 0-1.192.243-1.788.736-.592.488-1.093 1.236-1.504 2.244-.335.817-.502 1.623-.502 2.418 0 .716.183 1.26.55 1.635.367.375.867.563 1.505.563.512 0 .98-.108 1.406-.324.424-.216.854-.565 1.285-1.05h.313c-.535.77-1.08 1.313-1.625 1.622-.55.312-1.22.467-2.01.467-1.063 0-1.916-.306-2.564-.923-.647-.614-.968-1.42-.968-2.408 0-.932.256-1.82.77-2.66.517-.845 1.26-1.528 2.225-2.048.97-.52 1.93-.78 2.885-.78.366 0 .82.07 1.358.22.28.076.472.116.58.116.215 0 .434-.115.656-.337h.24zM249.938 82.442c-.23 0-.42.064-.573.193-.302.262-.642.872-1.024 1.83-.382.96-.572 1.828-.572 2.6 0 .19.064.347.183.474.123.12.264.184.428.184.17 0 .32-.052.448-.15.192-.15.425-.483.7-1.006.278-.52.506-1.09.684-1.722.178-.628.265-1.203.265-1.726 0-.216-.052-.382-.16-.5-.11-.12-.234-.178-.377-.178m.265-.33c.344 0 .663.077.966.23.3.15.527.358.68.628.154.272.23.57.23.896 0 .67-.196 1.344-.587 2.014-.392.674-.908 1.204-1.548 1.593-.643.387-1.288.58-1.937.58-.587 0-1.042-.167-1.365-.503-.322-.337-.484-.748-.484-1.233 0-.575.12-1.117.36-1.62.24-.503.545-.944.915-1.32.37-.372.793-.68 1.276-.914.482-.234.98-.35 1.493-.35M256.015 82.112l-.832 2.676c.56-.823.968-1.374 1.222-1.66.375-.42.687-.695.93-.824.247-.13.49-.192.74-.192.278 0 .482.08.61.242.123.164.187.342.187.537 0 .202-.056.503-.174.897l-.293 1c.563-.83.966-1.38 1.215-1.652.38-.425.71-.713.994-.86.193-.11.4-.163.622-.163.227 0 .42.073.574.22.155.148.23.34.23.577 0 .265-.063.607-.194 1.03l-.72 2.323c-.11.343-.162.565-.162.666 0 .032.012.063.04.09.028.03.06.043.096.043.047 0 .087-.014.122-.042.157-.12.32-.295.495-.527.04-.052.096-.13.173-.23l.22.134c-.297.537-.626.926-.982 1.177-.357.25-.687.373-.99.373-.265 0-.476-.068-.635-.21-.162-.137-.24-.3-.24-.486 0-.178.054-.447.16-.81l.736-2.424c.098-.337.147-.546.147-.628 0-.028-.016-.056-.045-.085-.03-.028-.06-.04-.09-.04-.06 0-.114.012-.17.036-.084.043-.21.15-.38.325-.17.173-.417.485-.736.936-.32.45-.544.803-.666 1.056-.125.253-.246.58-.368.98l-.397 1.283h-1.64l1.213-4.063c.066-.218.1-.37.1-.452 0-.03-.018-.06-.043-.083-.03-.025-.06-.037-.09-.037-.16 0-.412.202-.76.603-.527.624-1.01 1.372-1.44 2.246l-.527 1.785h-1.656l1.22-4.002c.124-.394.183-.673.183-.84 0-.065-.017-.12-.052-.17-.033-.048-.09-.085-.17-.11-.076-.03-.226-.04-.447-.04l.064-.238 2.216-.368h.39zM266.36 82.112l-.833 2.676c.56-.823.97-1.374 1.222-1.66.374-.42.686-.695.93-.824.246-.13.49-.192.74-.192.278 0 .482.08.608.242.125.164.188.342.188.537 0 .202-.056.503-.174.897l-.293 1c.562-.83.966-1.38 1.214-1.652.38-.425.71-.713.995-.86.19-.11.4-.163.62-.163.228 0 .42.073.575.22.154.148.23.34.23.577 0 .265-.064.607-.195 1.03l-.72 2.323c-.11.343-.162.565-.162.666 0 .032.012.063.04.09.028.03.06.043.096.043.047 0 .09-.014.122-.042.157-.12.32-.295.492-.527.043-.052.1-.13.176-.23l.22.134c-.297.537-.625.926-.982 1.177-.356.25-.687.373-.99.373-.265 0-.476-.068-.635-.21-.16-.137-.24-.3-.24-.486 0-.178.055-.447.16-.81l.737-2.424c.098-.337.147-.546.147-.628 0-.028-.015-.056-.043-.085-.03-.028-.06-.04-.092-.04-.056 0-.112.012-.17.036-.083.043-.207.15-.378.325-.172.173-.418.485-.737.936-.32.45-.544.803-.666 1.056-.124.253-.246.58-.368.98l-.396 1.283h-1.642l1.215-4.063c.065-.218.098-.37.098-.452 0-.03-.015-.06-.04-.083-.03-.025-.062-.037-.09-.037-.16 0-.413.202-.76.603-.528.624-1.01 1.372-1.442 2.246l-.526 1.785h-1.656l1.22-4.002c.124-.394.183-.673.183-.84 0-.065-.017-.12-.053-.17-.032-.048-.09-.085-.168-.11-.08-.03-.23-.04-.45-.04l.064-.238 2.216-.368h.39zM277.275 82.442c-.23 0-.42.064-.572.193-.303.262-.643.872-1.025 1.83-.383.96-.573 1.828-.573 2.6 0 .19.064.347.183.474.122.12.263.184.427.184.17 0 .32-.052.448-.15.193-.15.425-.483.7-1.006.278-.52.506-1.09.684-1.722.178-.628.265-1.203.265-1.726 0-.216-.052-.382-.16-.5-.11-.12-.234-.178-.377-.178m.265-.33c.345 0 .664.077.964.23.302.15.53.358.685.628.15.272.228.57.228.896 0 .67-.197 1.344-.588 2.014-.392.674-.908 1.204-1.548 1.593-.643.387-1.288.58-1.937.58-.587 0-1.042-.167-1.365-.503-.322-.337-.483-.748-.483-1.233 0-.575.12-1.117.36-1.62.24-.503.545-.944.915-1.32.37-.372.793-.68 1.276-.914.48-.234.978-.35 1.492-.35M284.216 83.195c0-.254-.05-.44-.157-.554-.104-.116-.226-.172-.362-.172-.14 0-.29.068-.448.206-.31.263-.63.797-.966 1.6-.336.802-.502 1.477-.502 2.026 0 .2.035.345.11.44.073.095.155.144.246.144.15 0 .303-.068.455-.2.366-.316.73-.856 1.088-1.627.358-.77.536-1.39.536-1.862m2.857-3.945l-2.11 6.96c-.135.437-.203.702-.203.79 0 .046.02.085.054.12.035.033.07.05.11.05.073 0 .158-.035.25-.108.163-.112.358-.333.588-.66l.234.12c-.612 1.02-1.283 1.532-2.014 1.532-.258 0-.46-.068-.6-.197-.14-.13-.212-.295-.212-.5 0-.194.06-.473.17-.834l.194-.636c-.54.917-1.01 1.527-1.408 1.83-.304.225-.598.337-.884.337-.326 0-.598-.13-.82-.38-.223-.253-.334-.624-.334-1.107 0-.62.14-1.226.425-1.83.288-.602.617-1.104.992-1.505.375-.403.732-.69 1.072-.863.337-.17.673-.26 1-.26.172 0 .323.034.454.102.135.066.282.19.45.373l.482-1.55c.117-.38.176-.655.176-.82 0-.1-.04-.184-.115-.254-.08-.072-.183-.105-.314-.105-.062 0-.135.005-.23.016l.067-.24 2.136-.38h.39zM289.456 79.25c.267 0 .495.09.678.268.185.178.276.394.276.647 0 .254-.094.47-.28.648-.186.178-.412.267-.674.267-.258 0-.483-.09-.67-.267-.186-.18-.278-.394-.278-.648 0-.253.092-.47.275-.647.185-.178.41-.267.673-.267m.403 2.862l-1.333 4.423c-.073.253-.11.418-.11.497 0 .047.018.09.058.127.04.04.08.06.122.06.073 0 .15-.03.22-.094.198-.152.43-.432.702-.833l.22.125c-.653 1.09-1.347 1.634-2.083 1.634-.282 0-.504-.075-.67-.227-.17-.15-.252-.343-.252-.575 0-.152.038-.35.11-.584l.9-2.973c.09-.287.132-.502.132-.648 0-.09-.04-.173-.124-.24-.08-.072-.192-.11-.335-.11-.066 0-.146.003-.235.008l.085-.25 2.202-.34h.39zM293.975 80.594l-.52 1.694h.853l-.23.715h-.835l-1.086 3.607c-.068.223-.106.394-.106.51 0 .053.02.102.062.14.038.04.083.058.127.058.076 0 .15-.028.23-.086.196-.146.428-.4.693-.76l.228.138c-.297.497-.626.863-.987 1.095-.36.232-.71.347-1.06.347-.293 0-.52-.07-.685-.215-.16-.14-.24-.324-.24-.542 0-.242.055-.55.168-.927l1.025-3.365h-.884l.132-.462c.556-.194 1.022-.42 1.402-.68.382-.264.84-.684 1.38-1.266h.335z"/><path d="M294.196 82.672l2-.558c.16.188.273.368.336.54.117.293.2.7.25 1.22.09 1.02.15 2.108.186 3.266.462-.586.995-1.36 1.593-2.322.18-.29.273-.565.273-.82 0-.162-.106-.315-.317-.46-.21-.146-.34-.258-.39-.34-.055-.08-.08-.186-.08-.315 0-.206.08-.387.236-.54.16-.154.35-.23.577-.23.235 0 .444.086.618.262.173.17.262.377.262.614 0 .278-.082.6-.24.968-.165.365-.545.994-1.14 1.888-.768 1.14-1.518 2.127-2.255 2.96-.474.532-.853.914-1.144 1.148-.288.235-.588.42-.902.556-.183.078-.368.12-.55.12-.248 0-.46-.085-.635-.25-.175-.165-.262-.362-.262-.59 0-.23.08-.422.238-.58.16-.156.344-.236.555-.236.265 0 .507.134.73.4.145.177.267.266.36.266.102 0 .198-.028.294-.082.13-.066.312-.218.544-.46.027-.52.04-.91.04-1.175 0-.356-.015-.858-.05-1.505l-.11-2.37c-.04-.438-.137-.75-.294-.94-.12-.142-.28-.213-.474-.213-.072 0-.157.007-.246.02v-.243zM308.11 79.91l-.98 3.274h.298c.788 0 1.363-.1 1.726-.3.36-.2.666-.55.917-1.058h.243l-.99 3.284h-.225c.04-.22.058-.4.058-.533 0-.23-.072-.415-.21-.563-.14-.143-.324-.248-.552-.31-.145-.04-.45-.06-.914-.06h-.505l-.846 2.828c-.074.25-.11.434-.11.556 0 .094.048.17.142.23.14.082.4.122.788.122.738 0 1.435-.148 2.09-.45.653-.3 1.24-.756 1.758-1.365h.267l-.917 2.314h-7.533l.08-.23c.44 0 .762-.083.967-.24.204-.16.39-.513.553-1.055l1.656-5.43c.09-.304.137-.543.137-.717 0-.155-.06-.28-.176-.364-.116-.084-.38-.14-.8-.17l.076-.23h7.017l-.565 2.108h-.235c-.016-.415-.082-.706-.2-.877-.18-.265-.42-.46-.724-.582-.3-.122-.79-.183-1.464-.183h-.826zM312.56 82.485l2.264-.375c.413.62.7 1.3.87 2.04.425-.597.744-1.02.962-1.26.29-.325.53-.536.717-.632.188-.096.387-.148.6-.148.238 0 .423.066.55.188.126.126.192.295.192.504 0 .2-.066.364-.192.49-.127.125-.29.188-.477.188-.14 0-.3-.024-.478-.07-.178-.047-.305-.07-.373-.07-.183 0-.356.06-.52.185-.226.168-.502.532-.83 1.09.365 1.243.663 2 .883 2.275.13.162.26.244.394.244.115 0 .21-.028.294-.082.124-.087.316-.305.576-.652l.235.13c-.38.59-.753 1.005-1.12 1.244-.273.188-.545.28-.815.28-.28 0-.51-.06-.69-.18-.185-.116-.35-.31-.492-.576-.143-.27-.312-.696-.506-1.285-.507.62-.903 1.07-1.192 1.353-.286.284-.527.47-.715.556-.192.09-.394.13-.612.13-.225 0-.404-.06-.537-.186-.132-.122-.195-.284-.195-.483 0-.214.07-.387.213-.523.14-.14.324-.205.545-.205.115 0 .25.033.397.1.216.1.37.15.467.15.124 0 .24-.027.337-.078.133-.06.297-.195.496-.404.12-.13.343-.4.67-.82-.417-1.478-.743-2.362-.977-2.65-.146-.188-.332-.28-.557-.28-.12 0-.26.017-.43.05l.046-.237zM323.597 86.38l.195.17c-.42.48-.835.83-1.24 1.056-.542.298-1.103.448-1.682.448-.39 0-.737-.082-1.037-.24-.3-.158-.52-.384-.663-.672-.143-.288-.216-.584-.216-.89 0-.677.192-1.347.58-2.004.38-.654.893-1.177 1.526-1.562.628-.382 1.25-.575 1.862-.575.488 0 .858.105 1.105.313.246.207.37.465.37.772 0 .277-.094.514-.28.708-.187.197-.393.293-.623.293-.2 0-.366-.063-.497-.187-.13-.123-.2-.273-.2-.442 0-.225.118-.418.352-.584.16-.117.24-.218.24-.307 0-.073-.032-.132-.097-.18-.087-.067-.2-.1-.338-.1-.366 0-.706.144-1.025.425-.425.373-.75.847-.976 1.417-.225.573-.337 1.115-.337 1.63 0 .407.114.73.344.974.23.242.5.364.82.364.277 0 .574-.07.898-.207.32-.135.63-.343.92-.62M328.876 79.25l-1.688 5.606c.584-.826 1.008-1.384 1.273-1.672.395-.42.733-.704 1.017-.85.283-.15.555-.222.813-.222.22 0 .41.08.57.24.16.16.237.372.237.637 0 .224-.05.503-.157.84l-.823 2.65c-.075.23-.11.386-.11.465 0 .038.014.073.044.104.03.03.067.046.107.046.05 0 .1-.022.152-.064.14-.103.288-.267.442-.497.04-.06.1-.145.188-.263l.253.14c-.37.587-.724.993-1.057 1.21-.333.222-.65.332-.95.332-.268 0-.48-.066-.626-.2-.153-.133-.228-.297-.228-.497 0-.183.052-.44.155-.778l.804-2.65c.053-.182.08-.316.08-.398 0-.044-.02-.09-.055-.122-.038-.035-.078-.054-.13-.054-.152 0-.367.125-.64.376-.562.508-1.127 1.31-1.688 2.4l-.58 1.847h-1.608l2.128-7.032c.087-.296.13-.512.13-.64 0-.1-.043-.186-.13-.242-.112-.077-.286-.11-.52-.1l.047-.247 2.162-.37h.39zM336.194 83.38c0-.336-.054-.578-.162-.726-.078-.105-.185-.157-.32-.157-.133 0-.27.064-.414.188-.29.258-.603.778-.938 1.564-.336.785-.502 1.463-.502 2.037 0 .218.037.378.112.476.075.1.16.146.25.146.194 0 .39-.11.592-.325.284-.307.542-.682.772-1.126.406-.78.61-1.47.61-2.08m2.078-1.18l-1.26 4.136-.13.502c-.013.066-.02.11-.02.14 0 .048.02.093.056.13.036.037.075.056.113.056.092 0 .22-.065.376-.2.068-.053.223-.243.472-.574l.225.115c-.308.537-.636.93-.985 1.178-.345.246-.723.37-1.126.37-.246 0-.434-.06-.563-.183-.132-.122-.196-.277-.196-.464 0-.162.068-.462.207-.9l.156-.505c-.502.824-.985 1.41-1.447 1.755-.27.197-.557.298-.857.298-.4 0-.688-.157-.866-.47-.178-.313-.265-.665-.265-1.06 0-.585.185-1.256.556-2.014.373-.756.863-1.366 1.47-1.825.498-.382.964-.572 1.4-.572.244 0 .44.068.587.2.148.137.256.38.324.738l.23-.764 1.542-.087zM342.103 82.112l-.807 2.67c.544-.78.948-1.314 1.215-1.598.397-.415.735-.697 1.02-.847.287-.15.555-.225.805-.225.226 0 .42.08.58.24.16.16.24.368.24.626 0 .232-.053.513-.156.846l-.833 2.657c-.068.234-.104.38-.104.454 0 .042.017.077.05.11.03.033.065.05.098.05.046 0 .093-.017.14-.05.152-.117.305-.288.46-.51.04-.055.102-.144.19-.26l.246.142c-.638 1.027-1.307 1.538-2.008 1.538-.267 0-.476-.066-.63-.2-.15-.13-.226-.297-.226-.496 0-.176.052-.434.155-.777l.814-2.656c.057-.176.085-.305.085-.387 0-.044-.02-.084-.06-.122-.038-.035-.085-.05-.137-.05-.164 0-.364.107-.598.322-.596.547-1.175 1.363-1.73 2.446l-.536 1.846h-1.653l1.213-3.995c.118-.394.176-.673.176-.84 0-.07-.017-.128-.052-.178-.035-.047-.092-.084-.17-.11-.076-.028-.224-.04-.442-.04l.072-.237 2.188-.368h.397zM349.732 82.417c-.213 0-.392.066-.537.2-.235.204-.44.542-.615 1.018-.175.48-.262.93-.262 1.36 0 .2.06.36.183.48.125.118.277.18.46.18.176 0 .33-.062.462-.177.247-.227.46-.59.64-1.09.184-.5.275-.953.275-1.36 0-.184-.06-.33-.176-.442-.116-.112-.26-.17-.428-.17m-2.24 5.726c-.413.15-.692.317-.842.497-.147.178-.225.368-.225.576 0 .27.15.514.446.732.3.218.772.326 1.422.326.54 0 .93-.094 1.175-.284.242-.187.36-.408.36-.66 0-.226-.11-.41-.332-.547-.223-.144-.65-.29-1.283-.44-.293-.08-.534-.144-.72-.2m3.598-5.653h1.726l-.206.685h-.896c.138.244.206.478.206.697 0 .377-.108.727-.32 1.046-.217.32-.53.574-.95.766-.42.188-.88.287-1.392.287-.136 0-.28-.008-.445-.028-.162-.018-.34-.044-.528-.08-.29.144-.467.256-.54.338-.05.056-.077.118-.077.18 0 .074.03.137.096.193.113.096.28.164.5.21.884.182 1.466.332 1.747.444.386.153.677.35.874.59.197.24.295.532.295.872 0 .515-.25.967-.747 1.357s-1.27.58-2.31.58c-1.053 0-1.827-.165-2.326-.494-.36-.244-.54-.53-.54-.86 0-.25.12-.486.357-.702.234-.214.74-.407 1.512-.573-.262-.14-.44-.268-.53-.387-.126-.155-.19-.32-.19-.49 0-.277.118-.52.35-.734.23-.212.617-.42 1.165-.63-.423-.16-.73-.37-.918-.623-.188-.255-.28-.553-.28-.893 0-.36.11-.704.34-1.028.224-.328.562-.59 1.005-.795.443-.204.954-.305 1.53-.305.367 0 .696.04.98.118.145.042.316.13.513.26M354.732 85.223c.382-.054.675-.13.886-.22.21-.095.415-.245.617-.45.202-.205.375-.463.523-.775.148-.314.22-.607.22-.882 0-.117-.032-.206-.1-.274-.068-.066-.153-.1-.258-.1-.207 0-.44.142-.7.42-.478.503-.874 1.263-1.188 2.28m-.06.324c-.036.27-.055.493-.055.664 0 .314.09.563.28.748.19.188.442.28.757.28.304 0 .607-.07.912-.212.307-.14.66-.387 1.062-.74l.195.17c-.497.575-.985.985-1.456 1.23-.472.245-.993.367-1.565.367-.722 0-1.222-.166-1.498-.5-.28-.33-.416-.714-.416-1.148 0-.68.207-1.36.622-2.04.41-.68.973-1.225 1.686-1.635.71-.413 1.426-.617 2.146-.617.364 0 .64.082.823.248.188.168.282.377.282.63 0 .302-.092.598-.275.882-.25.39-.565.706-.947.943-.382.24-.807.42-1.28.546-.315.083-.74.144-1.272.186M371.406 79.25l-.65 2.68h-.252c-.03-.728-.216-1.272-.563-1.63-.342-.36-.79-.54-1.346-.54-.595 0-1.19.243-1.787.736-.59.488-1.092 1.236-1.503 2.244-.335.817-.502 1.623-.502 2.418 0 .716.183 1.26.55 1.635.367.375.867.563 1.505.563.513 0 .982-.108 1.407-.324.424-.216.853-.565 1.285-1.05h.31c-.536.77-1.078 1.313-1.624 1.622-.55.312-1.22.467-2.01.467-1.063 0-1.916-.306-2.564-.923-.647-.614-.968-1.42-.968-2.408 0-.932.255-1.82.77-2.66.517-.845 1.258-1.528 2.225-2.048.967-.52 1.93-.78 2.883-.78.366 0 .82.07 1.358.22.28.076.47.116.58.116.216 0 .434-.115.657-.337h.24zM372.828 85.223c.383-.054.676-.13.887-.22.21-.095.415-.245.617-.45.2-.205.375-.463.523-.775.147-.314.22-.607.22-.882 0-.117-.033-.206-.098-.274-.07-.066-.155-.1-.26-.1-.207 0-.442.142-.702.42-.476.503-.872 1.263-1.187 2.28m-.058.324c-.038.27-.06.493-.06.664 0 .314.095.563.285.748.188.188.44.28.755.28.303 0 .607-.07.912-.212.308-.14.66-.387 1.063-.74l.194.17c-.498.575-.986.985-1.457 1.23-.47.245-.992.367-1.564.367-.724 0-1.223-.166-1.5-.5-.28-.33-.415-.714-.415-1.148 0-.68.206-1.36.62-2.04.412-.68.975-1.225 1.688-1.635.71-.413 1.426-.617 2.146-.617.362 0 .64.082.822.248.187.168.28.377.28.63 0 .302-.09.598-.273.882-.252.39-.566.706-.95.943-.38.24-.805.42-1.28.546-.313.083-.738.144-1.27.186M380.146 82.112l-.806 2.67c.544-.78.947-1.314 1.214-1.598.397-.415.734-.697 1.02-.847.287-.15.554-.225.805-.225.224 0 .42.08.578.24.16.16.24.368.24.626 0 .232-.052.513-.155.846l-.833 2.657c-.068.234-.103.38-.103.454 0 .042.016.077.05.11.03.033.065.05.098.05.044 0 .09-.017.138-.05.153-.117.305-.288.46-.51.04-.055.103-.144.19-.26l.246.142c-.64 1.027-1.307 1.538-2.008 1.538-.268 0-.477-.066-.63-.2-.15-.13-.227-.297-.227-.496 0-.176.054-.434.155-.777l.814-2.656c.056-.176.082-.305.082-.387 0-.044-.02-.084-.056-.122-.04-.035-.087-.05-.138-.05-.165 0-.364.107-.6.322-.594.547-1.173 1.363-1.73 2.446l-.534 1.846h-1.653l1.212-3.995c.117-.394.176-.673.176-.84 0-.07-.016-.128-.052-.178-.034-.047-.09-.084-.168-.11-.077-.028-.225-.04-.443-.04l.072-.237 2.188-.368h.396zM387.802 80.594l-.518 1.694h.85l-.23.715h-.834l-1.086 3.607c-.068.223-.105.394-.105.51 0 .053.018.102.06.14.037.04.082.058.127.058.077 0 .15-.028.23-.086.2-.146.43-.4.694-.76l.228.138c-.298.497-.626.863-.987 1.095-.358.232-.71.347-1.06.347-.293 0-.52-.07-.684-.215-.162-.14-.242-.324-.242-.542 0-.242.057-.55.17-.927l1.024-3.365h-.884l.13-.462c.557-.194 1.024-.42 1.404-.68.382-.264.84-.684 1.376-1.266h.338zM389.822 85.223c.382-.054.675-.13.886-.22.21-.095.415-.245.617-.45.202-.205.375-.463.523-.775.148-.314.22-.607.22-.882 0-.117-.033-.206-.1-.274-.07-.066-.153-.1-.26-.1-.205 0-.44.142-.7.42-.476.503-.872 1.263-1.186 2.28m-.06.324c-.037.27-.055.493-.055.664 0 .314.09.563.28.748.19.188.442.28.756.28.303 0 .608-.07.912-.212.308-.14.66-.387 1.063-.74l.195.17c-.498.575-.985.985-1.457 1.23-.47.245-.992.367-1.564.367-.723 0-1.222-.166-1.5-.5-.278-.33-.414-.714-.414-1.148 0-.68.206-1.36.622-2.04.41-.68.973-1.225 1.686-1.635.71-.413 1.426-.617 2.146-.617.363 0 .64.082.823.248.188.168.28.377.28.63 0 .302-.09.598-.273.882-.25.39-.565.706-.948.943-.382.24-.806.42-1.28.546-.314.083-.74.144-1.27.186M396.737 82.112l-.98 3.497c.804-1.706 1.41-2.757 1.817-3.148.24-.233.49-.35.753-.35.183 0 .33.064.44.19.116.127.172.305.172.537 0 .403-.104.74-.308 1.015-.13.173-.275.26-.436.26-.172 0-.3-.075-.387-.23-.09-.155-.15-.244-.184-.27-.033-.025-.07-.04-.11-.04-.045 0-.09.012-.137.038-.097.05-.22.17-.373.36-.155.196-.343.52-.568.97-.226.453-.402.832-.53 1.147-.123.314-.3.91-.524 1.79h-1.57l1.07-4.126c.078-.305.115-.51.115-.608 0-.115-.018-.2-.06-.262-.04-.064-.096-.108-.17-.136-.07-.028-.22-.045-.442-.045l.056-.18 1.963-.41h.39z"/><path d="M46.737 0C20.967 0 0 20.767 0 46.293s20.967 46.29 46.737 46.29c25.77 0 46.736-20.764 46.736-46.29S72.506 0 46.737 0" fill="#00723f"/><path d="M46.737 5.456c-22.736 0-41.23 18.32-41.23 40.838C5.507 68.81 24 87.13 46.737 87.13c22.735 0 41.227-18.32 41.227-40.836 0-22.52-18.492-40.838-41.227-40.838" fill="#f68b1f"/><path d="M41.5 86.802v-9.724h10.474v9.724c-1.717.216-3.464.326-5.24.326-1.77 0-3.517-.11-5.234-.326M27.764 10.044v7.67H17.318c3.037-3.07 6.562-5.668 10.446-7.67m24.21-4.262v11.933H41.5V5.782c1.717-.215 3.464-.326 5.234-.326 1.776 0 3.523.11 5.24.326m24.182 11.933H65.71v-7.67c3.884 2 7.404 4.6 10.446 7.67m1.66 23.12V30.832h7.078c1.31 3.16 2.228 6.513 2.702 10.003h-9.78zm0 23.122V53.954h9.42c-.677 3.513-1.807 6.87-3.33 10.003h-6.09zm0 1.56h5.287c-1.473 2.724-3.25 5.267-5.287 7.582v-7.584zm-2.315 10h-9.79v-10h10.472v9.326c-.223.23-.45.453-.68.674m-9.792 1.56h8.09c-2.46 2.122-5.175 3.96-8.09 5.464V77.08zm-1.632 0v6.26c-3.28 1.51-6.795 2.61-10.474 3.223v-9.482h10.474zm-10.474-11.56h10.474v10.002H53.604V65.515zm-12.104 0h10.474v10.002H41.5V65.515zm-12.104 0H39.87v10.002H29.396V65.515zm0 11.56h10.47v9.483c-3.676-.614-7.19-1.712-10.47-3.224v-6.258zm-1.632 0v5.464c-2.918-1.505-5.63-3.34-8.09-5.462h8.09zM17.29 65.518h10.474v10h-9.792c-.23-.22-.457-.444-.682-.674v-9.327zm-1.633 0v7.58c-2.035-2.313-3.813-4.856-5.286-7.58h5.287zm0-11.563v10.003h-6.09c-1.525-3.134-2.653-6.49-3.328-10.003h9.417zm0-23.122v10.003h-9.78c.48-3.558 1.43-6.973 2.775-10.18v.177h7.005zm0-1.557H9.264c1.656-3.567 3.818-6.86 6.393-9.785v9.785zm12.107 0H17.29V19.272h10.474v10.003zm24.21 0H41.5V19.272h10.474v10.003zm13.736 1.557h10.474v10.003H65.71V30.832zm0 11.562h10.474v10.003H65.71V42.394zm0 11.56h10.474v10.003H65.71V53.954zm-12.106 0h10.474v10.003H53.604V53.954zm-12.104 0h10.474v10.003H41.5V53.954zm-12.104 0H39.87v10.003H29.396V53.954zm-1.632 10.003H17.29V53.954h10.474v10.003zm0-11.56H17.29V42.394h10.474v10.003zm0-11.562H17.29V30.832h10.474v10.003zm12.103 0H29.393V30.832h10.474v10.003zm12.107 0H41.5V30.832h10.474v10.003zm1.63-10.003h10.474v10.003H53.604V30.832zm0 11.562h10.474v10.003H53.604V42.394zM39.867 52.397H29.393V42.394h10.474v10.003zM41.5 42.394h10.474v10.003H41.5V42.394zm34.682-13.12H65.708V19.273h10.474v10.003zm1.634-9.784c2.575 2.925 4.735 6.218 6.393 9.785h-6.394V19.49zm-24.212-1.775V6.025c3.68.613 7.193 1.71 10.474 3.226v8.465H53.604zm10.474 11.56H53.604V19.272h10.474v10.003zm-34.682-11.56V9.38h-.282c3.36-1.58 6.97-2.723 10.753-3.356v11.69h-10.47zm10.47 11.56H29.394V19.272h10.474v10.003zm-34.36 17.02c0-1.316.067-2.618.19-3.9h9.96v10.002H5.97c-.304-1.994-.463-4.03-.463-6.103m82.457 0c0 2.074-.157 4.11-.46 6.103h-9.688V42.394h9.96c.125 1.283.188 2.585.188 3.9M46.734 3.03c-24.08 0-43.676 19.408-43.676 43.264 0 23.852 19.595 43.26 43.676 43.26 24.086 0 43.68-19.408 43.68-43.26 0-23.856-19.594-43.263-43.68-43.263" fill="#fff"/><path d="M9.86 66.77L7.31 64.75l32.342-40.097 12.946 23.638L74.965 15.35l2.708 1.802L52.3 54.53 39.13 30.48 9.86 66.77z" fill="#fff"/><path d="M46.602 59.136c-3.025-11.355-10.495-21.87-23.188-26.442l-5.47-1.014 1.596 4.74c.016.033 1.517 3.28.91 6.21-.572 2.75-1.595 10.03 1.19 18.155C24.9 70.302 32.072 77.4 42.96 81.883l3.176 1.31.713-3.334c1.56-7.28 1.476-14.25-.248-20.724" fill="#fff"/><path d="M22.125 35.217s2.856 2.02 1.12 7.983c-1.732 5.96-2.753 26.37 20.81 36.07 1.43-6.67 5.308-30.413-21.93-44.053" fill="#00723f"/><path d="M74.247 36.216l-4.074-3.966-.76 5.605c-.012.092-1.346 8.886-14.097 13.49-5.913 2.01-9.853 5.357-11.71 9.944-3.133 7.736 1.09 15.966 1.27 16.31l1.636 3.13 2.73-2.257c.39-.32 1.695-1.327 2.647-1.794 1.467-.58 2.93-1 4.476-1.44 5.67-1.624 12.097-3.458 19.15-13.998 7.624-11.395 2.504-21.353-1.27-25.026" fill="#fff"/><path d="M47.397 76.47s-8.57-16.38 8.856-22.29c16.05-5.402 16.04-15.777 16.04-15.777s9.162 8.982.825 21.447C64.78 72.31 58 71.337 50.718 74.26c-2.61 1.015-3.32 2.21-3.32 2.21" fill="#00723f"/></svg>