<svg xmlns="http://www.w3.org/2000/svg" width="400" height="148.465"><path d="M116.585 111.434h283.01v-1.758h-283.01v1.758zM150.125 71.584h-4.17l-1.703 7.835h4.344c1.88 0 3.017-.337 3.883-1 1.086-.836 1.86-2.087 1.86-3.666 0-2.083-1.04-3.17-4.215-3.17m-2.307 11.79h-4.436l-1.995 9.035h4.783c1.774 0 3.086-.462 4.085-1.126 1.297-.873 2.307-2.662 2.307-4.45 0-2.297-1.17-3.46-4.744-3.46m5.43-2.29c3.182.573 4.784 2.91 4.784 5.79 0 2.122-1.076 4.746-3.25 6.706-2.262 1.99-4.657 2.746-9.657 2.746h-9.566l6.434-28.773h9.398c5.686 0 8.436 2.365 8.436 6.236 0 3.13-2.048 6.086-6.58 7.295M172.128 80.946c-1.686 0-2.868.354-4.318 2.002-1.693 1.93-2.463 5.416-2.463 7.95 0 1.96.67 2.71 2.048 2.71 1.712 0 3.612-1.632 4.466-3.455l2.015-8.853c-.366-.206-1.125-.354-1.747-.354m5.214 2.387l-1.53 7.144c-.484 2.17-.255 3.1.664 4.066l-3.345 2.39c-1.002-.784-1.418-1.784-1.418-2.958-1.342 1.735-3.23 2.776-5.67 2.776-2.938 0-4.91-1.89-4.91-5.743 0-3.997 1.564-7.845 3.99-10.237 2.002-1.968 4.473-2.93 7.49-2.93 2.16 0 4.36.424 5.847 1.36-.34 1.002-.863 2.852-1.118 4.133M197.508 83.408l-2.875 12.918h-4.05l2.638-11.957c.192-.787.26-1.355.26-1.75 0-1.03-.484-1.42-1.483-1.42-1.342 0-3.21.888-5.18 3.348l-2.612 11.778h-4.032l2.762-12.487c.454-2.106.484-3.33.076-4.643l3.808-1.495c.37.82.59 2.132.335 3.39 1.78-2.074 4.17-3.214 6.782-3.214 2.338 0 3.75 1.388 3.75 3.566 0 .606-.032 1.358-.177 1.964M214.013 82.303c-.977-.927-2.125-1.316-3.246-1.316-1.12 0-2.227.527-3.047 1.46-1.347 1.565-2.617 5.348-2.617 8.133 0 2.14 1.007 3.21 2.796 3.21 1.418 0 2.898-.716 4.286-1.89l1.49 2.46c-2.093 1.605-4.103 2.39-6.666 2.39-4.21 0-6.335-2.242-6.335-6.17 0-4.318 2.23-8.643 4.79-10.706 1.728-1.393 3.59-2.098 5.973-2.098 1.793 0 3.505.602 4.806 1.884l-2.23 2.643zM226.925 80.837c-3.707 0-5.66 5.71-5.66 9.814 0 2.186 1.09 3.143 2.91 3.143 3.654 0 5.63-5.358 5.63-9.737 0-2.43-1.198-3.22-2.88-3.22m-3.49 15.917c-4.17 0-6.55-2.315-6.55-6.46 0-6.958 4.43-12.45 10.685-12.45 4.32 0 6.67 2.39 6.67 6.347 0 6.606-3.875 12.563-10.805 12.563M259.922 71.46h-3.783l-2.22 10h3.916c2.388 0 3.696-.5 4.665-1.46 1.297-1.293 2.072-3.124 2.072-4.87 0-2.377-1.34-3.67-4.65-3.67m5.035 11.953c-2.517 1.503-4.646 1.96-7.82 1.96h-4.076l-2.444 10.95h-5.042L252 67.552h7.838c3.692 0 5.908.535 7.392 1.5 1.79 1.163 2.742 3.04 2.742 5.118 0 4.29-2.044 7.457-5.015 9.245M282.272 81.84c-.367-.215-.752-.29-1.312-.29-1.297 0-2.758.964-4.387 3.176L273.99 96.33h-4.057l2.678-12.07c.573-2.46.538-3.813.157-5.064l3.806-1.495c.405.92.56 2.278.29 3.525 1.72-2.07 3.803-3.383 5.634-3.383.67 0 1 .076 1.563.282l-1.788 3.715zM292.664 80.837c-3.734 0-5.656 5.71-5.656 9.814 0 2.186 1.068 3.143 2.89 3.143 3.658 0 5.63-5.358 5.63-9.737 0-2.43-1.194-3.22-2.864-3.22m-3.505 15.917c-4.174 0-6.55-2.315-6.55-6.46 0-6.958 4.424-12.45 10.687-12.45 4.314 0 6.667 2.39 6.667 6.347 0 6.606-3.87 12.563-10.805 12.563M324.706 72.455c-1.36-1.16-2.967-1.614-4.874-1.614-2.658 0-5.088 1.367-6.873 3.583-2.48 3.028-3.918 8.818-3.918 12.316 0 4.13 2.174 6.303 6.09 6.303 2 0 3.7-.633 5.882-1.964l1.778 3.168c-2.78 1.747-5.74 2.575-9.005 2.575-6.4 0-10.18-3.875-10.18-10.24 0-4.624 1.842-10.165 4.928-13.83 3.066-3.708 7.605-5.707 12.037-5.707 2.906 0 5.52.88 6.995 2.29l-2.86 3.12zM338.225 81.84c-.39-.215-.74-.29-1.315-.29-1.305 0-2.743.964-4.398 3.176l-2.567 11.603h-4.054l2.678-12.07c.56-2.46.523-3.813.153-5.064l3.792-1.495c.42.92.56 2.278.294 3.525 1.73-2.07 3.814-3.383 5.637-3.383.675 0 1.007.076 1.567.282l-1.785 3.715zM348.683 80.768c-2.11 0-3.98 1.606-4.8 4.993.22 0 1.005.112 1.63.112 2.28 0 3.845-.325 4.74-1.18.49-.468.775-1.033.775-1.788 0-1.213-.625-2.136-2.345-2.136m4.817 5.634c-1.564 1.464-4.142 2.288-8.014 2.288-1.045 0-1.937-.14-2.27-.14-.07.358-.216 1.315-.216 1.883 0 2.254 1.36 3.326 3.425 3.326 1.968 0 3.57-.653 5.32-1.96l1.26 2.417c-2.263 1.75-4.49 2.57-7.67 2.57-4.017 0-6.706-2.315-6.706-6.602 0-3.604 1.64-7.494 4.217-9.882 1.857-1.71 3.948-2.464 6.362-2.464 3.65 0 5.964 1.61 5.964 4.824 0 1.453-.595 2.742-1.674 3.738M367.856 81.158c-1.21 0-2.548.58-3.445 1.644-1.528 1.78-2.57 5.278-2.57 7.742 0 1.964.748 2.994 2.27 2.994 1.56 0 3.62-1.312 4.78-3.207l1.895-8.455c-.79-.5-1.564-.717-2.93-.717m5.2 8.89c-.848 3.814-.71 4.96-.188 5.813l-3.49.79c-.488-.583-.785-1.464-.713-2.616-1.457 1.716-3.39 2.643-5.557 2.643-3.757 0-5.546-2.132-5.546-6.198 0-3.613 1.493-7.465 4.136-9.97 1.78-1.675 4.134-2.53 6.297-2.53 1.663 0 2.98.252 3.612.573 0-.176.332-1.82.477-2.426l1.354-6.072 3.894.652-4.276 19.34zM384.91 75.664c-1.507 0-2.724-1.183-2.724-2.605 0-1.47 1.217-2.645 2.754-2.645 1.488 0 2.674 1.175 2.674 2.61 0 1.456-1.186 2.64-2.704 2.64m-3.097 20.66h-4.173l3.947-17.847 4.28-.602-4.054 18.448zM398.463 81.05h-3.623l-2.113 9.707c-.164.675-.222 1.285-.222 1.75 0 1.137.572 1.496 1.747 1.496.588 0 1.312-.103 1.9-.36v2.427c-1.312.504-2.602.75-3.902.75-2.54 0-3.955-1.208-3.955-3.023 0-.65.068-1.575.267-2.468l2.265-10.28h-2.136l.615-2.784h2.125c.37-1.633.747-3.03 1.232-4.39l4.348-.965c-.527 1.546-1.148 3.643-1.534 5.356H400l-1.537 2.784z" fill="#da2128"/><path d="M55.65 95.827C31.667 93.505 10.445 81.853 2.577 68.42c.404 2.52 3.242 8.024 4.542 11.648.953 2.654 2.326 4.82 2.97 6.77 9.932 7.11 21.318 10.832 36.967 12.334 16.156 1.557 30.364-.43 41.566-5.847-9.83 2.53-20.657 3.69-32.973 2.502M36.958 46.96C28.704 37.89 21.3 28.71 14.87 19.764c-.876 1.14-1.834 2.483-2.86 4.013-1.41 2.074-2.544 4.042-3.41 5.67 6.32 6.996 13.315 14.064 20.905 21.01C51.112 70.23 72.17 83.06 88.998 92.325 73.828 81.03 55.434 67.283 36.958 46.96M71.082 30.923C64.907 18.496 60.078 10.263 52.957.616c-.92.1-2.475.88-5.202 1.308-2.048.332-4.123.11-5.78.782 10.368 11.015 18.74 22.55 27.947 39.125 10.466 18.854 15.714 33.882 20.135 49.62-1.888-18.118-7.342-37.09-18.975-60.527" fill="#ffd200"/><path d="M60.983 115.052c-29.994 0-54.308-23.792-54.308-53.15 0-29.353 24.158-52.29 54.156-52.29 29.427 0 53.532 22.03 54.45 50.582.024-.72.043-1.48.043-2.22C115.323 25.95 89.5 0 57.646 0 25.81 0 0 25.95 0 57.974c0 32.023 25.81 57.982 57.646 57.982 6.22 0 12.2-.988 17.79-2.81-4.59 1.24-9.437 1.906-14.453 1.906" fill="#005596"/><path d="M29.918 33.45c20.547-21.195 52.532-22.808 71.434-3.585 11.542 11.74 16.122 29.452 12.186 44.644 5.336-18.072 2.064-38.565-11.503-52.365-19.883-20.222-53.4-18.96-73.96 2.254C14.54 38.354 9.69 57.692 13.618 75.027c-.57-14.562 4.92-29.846 16.3-41.578" fill="#b51a8a"/><path d="M112.494 63.215c-.164-12.758-4.982-24.555-13.853-30.737-17.147-11.927-43.785-2.59-60.38 21.942-8.605 12.705-12.62 26.745-12.114 38.995-3.818-14.36-.682-32.17 9.76-47.588 16.6-24.536 45.384-33.755 64.287-20.592 11.198 7.788 16.64 21.805 15.584 36.935 0 0-.335 4.364-.736 6.27-.392 1.8-1.38 5.722-1.772 6.874-.385 1.16-.774-12.1-.774-12.1" fill="#008265"/><path d="M55.5 55.81c-16.91 18.16-20.756 42.322-8.547 53.97.55.52 1.1 1.004 1.694 1.45C37.914 100.352 41.133 79.535 56 63.28c13.662-14.944 36.91-21.463 48.16-10.73 9.918 9.467 8.598 27.637-2.272 42.99 15.07-17.832 18.052-40.396 6.362-51.522-12.194-11.656-35.807-6.37-52.75 11.793" fill="#f58025"/><path d="M71.444 74.238C60.052 84.26 56.222 98.7 62.94 106.505c5.236 6.106 15.385 6.328 25.012 1.327-8.11 3.77-16.454 3.303-20.898-1.872-5.957-6.923-2.685-19.635 7.247-28.37 9.96-8.753 22.844-10.23 28.79-3.325 4.447 5.187 3.734 13.623-1.095 21.202 6.252-8.936 7.46-19.128 2.216-25.238-6.708-7.804-21.373-6.004-32.766 4.008" fill="#da2128"/><path d="M276.715 124.277h3.36l5.09 16.134 3.088-16.133h2.433l-3.595 18.82h-3.37l-5.078-16.236-3.09 16.236h-2.432l3.595-18.82M295.998 123.483h2.273l-.555 2.937h-2.273l.556-2.937m-1.038 5.496h2.273l-2.705 14.116h-2.273l2.705-14.117M311.946 129.52l-.457 2.295c-.544-.403-1.125-.706-1.743-.908-.61-.2-1.243-.302-1.902-.302-.725 0-1.417.13-2.075.39-.65.26-1.2.63-1.643 1.11-.71.73-1.256 1.588-1.643 2.57-.387.984-.58 2-.58 3.05 0 1.27.308 2.216.925 2.837.625.622 1.572.933 2.84.933.627 0 1.29-.096 1.99-.29.708-.193 1.445-.483 2.21-.87l-.43 2.295c-.66.277-1.34.483-2.04.617-.692.143-1.404.214-2.137.214-1.836 0-3.25-.465-4.237-1.398-.988-.94-1.483-2.28-1.483-4.02 0-1.463.256-2.807.766-4.034.518-1.235 1.284-2.344 2.297-3.328.692-.672 1.503-1.18 2.434-1.525.93-.344 1.948-.516 3.052-.516.642 0 1.28.074 1.915.225.634.143 1.28.362 1.94.656M325.906 135.042l-1.545 8.054h-2.272l.42-2.143c-.667.84-1.43 1.47-2.285 1.89-.848.413-1.795.618-2.84.618-1.18 0-2.147-.364-2.904-1.095-.75-.74-1.125-1.685-1.125-2.836 0-1.648.642-2.95 1.927-3.91 1.293-.957 3.07-1.435 5.336-1.435h3.163l.124-.618c.017-.067.03-.14.037-.214.01-.084.014-.21.014-.38 0-.746-.3-1.326-.902-1.738-.593-.42-1.43-.63-2.508-.63-.74 0-1.503.096-2.285.29-.775.193-1.574.483-2.398.87l.396-2.143c.856-.328 1.692-.572 2.507-.73.824-.17 1.62-.253 2.384-.253 1.63 0 2.87.36 3.718 1.082.856.723 1.285 1.774 1.285 3.152 0 .277-.02.605-.062.983-.04.37-.102.764-.184 1.185m-2.46.958h-2.272c-1.86 0-3.24.256-4.138.768-.89.505-1.334 1.29-1.334 2.358 0 .74.226 1.32.68 1.74.46.42 1.094.63 1.9.63 1.237 0 2.316-.45 3.238-1.35.922-.907 1.532-2.117 1.828-3.63l.1-.516M339.11 131.122c-.23-.126-.493-.223-.79-.29-.296-.068-.613-.1-.95-.1-1.21 0-2.27.47-3.175 1.41-.906.933-1.508 2.185-1.804 3.757l-1.395 7.196h-2.273l2.705-14.117h2.273l-.432 2.192c.6-.815 1.318-1.44 2.15-1.878.84-.437 1.733-.655 2.68-.655.247 0 .49.015.73.05.238.024.477.07.716.138l-.433 2.294M351.847 135.042l-1.544 8.054h-2.273l.42-2.143c-.667.84-1.43 1.47-2.285 1.89-.848.413-1.795.618-2.84.618-1.18 0-2.147-.364-2.904-1.095-.75-.74-1.123-1.685-1.123-2.836 0-1.648.642-2.95 1.927-3.91 1.293-.957 3.07-1.435 5.336-1.435h3.163l.123-.618c.017-.067.03-.14.037-.214.01-.084.013-.21.013-.38 0-.746-.3-1.326-.902-1.738-.593-.42-1.43-.63-2.508-.63-.74 0-1.503.096-2.285.29-.773.193-1.572.483-2.396.87l.396-2.143c.856-.328 1.692-.572 2.507-.73.824-.17 1.62-.253 2.384-.253 1.632 0 2.872.36 3.72 1.082.856.723 1.285 1.774 1.285 3.152 0 .277-.02.605-.062.983-.04.37-.103.764-.186 1.185m-2.458.958h-2.274c-1.86 0-3.24.256-4.138.768-.89.505-1.334 1.29-1.334 2.358 0 .74.226 1.32.68 1.74.46.42 1.094.63 1.9.63 1.237 0 2.316-.45 3.238-1.35.922-.907 1.532-2.117 1.828-3.63l.1-.516M368.858 128.98l-2.36 12.364c-.452 2.395-1.32 4.18-2.606 5.357-1.277 1.177-2.998 1.765-5.164 1.765-.8 0-1.54-.063-2.223-.19-.684-.116-1.322-.3-1.915-.553l.42-2.256c.56.37 1.153.642 1.78.82.625.175 1.292.264 2 .264 1.44 0 2.623-.404 3.545-1.21.93-.8 1.545-1.95 1.84-3.454l.2-1.06c-.635.74-1.372 1.304-2.212 1.69-.84.387-1.746.58-2.718.58-1.4 0-2.504-.47-3.31-1.412-.8-.95-1.2-2.252-1.2-3.907 0-1.303.244-2.576.73-3.82.486-1.25 1.17-2.36 2.05-3.327.585-.64 1.264-1.13 2.04-1.475.78-.344 1.596-.516 2.445-.516.93 0 1.74.22 2.433.667.692.437 1.207 1.058 1.544 1.865l.396-2.193h2.285m-3.422 5.18c0-1.144-.263-2.026-.79-2.648-.528-.62-1.277-.932-2.25-.932-.6 0-1.172.12-1.716.365-.543.244-1.01.584-1.396 1.02-.626.724-1.116 1.577-1.47 2.56-.346.975-.52 1.983-.52 3.025 0 1.16.265 2.05.792 2.672.535.622 1.3.933 2.298.933 1.44 0 2.643-.664 3.607-1.992.964-1.336 1.446-3.004 1.446-5.004M371.526 137.5l1.62-8.52h2.284l-1.618 8.43c-.083.413-.144.766-.186 1.06-.033.294-.05.538-.05.73 0 .715.215 1.27.643 1.665.428.386 1.033.58 1.815.58 1.22 0 2.273-.42 3.163-1.26.89-.84 1.47-1.97 1.742-3.39l1.52-7.816h2.272l-2.68 14.116h-2.274l.457-2.218c-.642.823-1.408 1.462-2.297 1.915-.88.446-1.82.668-2.817.668-1.21 0-2.152-.335-2.828-1.007-.675-.68-1.013-1.626-1.013-2.836 0-.252.02-.567.06-.945.042-.378.104-.77.186-1.172M399.482 135.042l-1.544 8.054h-2.273l.42-2.143c-.667.84-1.43 1.47-2.286 1.89-.85.413-1.796.618-2.842.618-1.178 0-2.145-.364-2.903-1.095-.75-.74-1.124-1.685-1.124-2.836 0-1.648.643-2.95 1.928-3.91 1.293-.957 3.072-1.435 5.337-1.435h3.162l.124-.618c.017-.067.03-.14.038-.214.008-.084.012-.21.012-.38 0-.746-.3-1.326-.902-1.738-.593-.42-1.43-.63-2.507-.63-.74 0-1.502.096-2.285.29-.774.193-1.573.483-2.396.87l.394-2.143c.856-.328 1.692-.572 2.508-.73.823-.17 1.618-.253 2.384-.253 1.63 0 2.87.36 3.718 1.082.857.723 1.285 1.774 1.285 3.152 0 .277-.022.605-.063.983-.04.37-.103.764-.185 1.185m-2.458.958h-2.273c-1.86 0-3.24.256-4.138.768-.89.505-1.334 1.29-1.334 2.358 0 .74.227 1.32.68 1.74.46.42 1.095.63 1.902.63 1.235 0 2.314-.45 3.236-1.35.923-.907 1.532-2.117 1.83-3.63l.098-.516" style="-inkscape-font-specification:MetaBook-Italic" font-size="61.128" font-style="italic" fill="#58595b" font-family="HIKVIZ+MetaBook-Italic"/></svg>