<svg xmlns="http://www.w3.org/2000/svg" width="399.94" height="145.229"><defs><clipPath id="a"><path d="M0 792h1224V0H0v792z"/></clipPath></defs><g clip-path="url(#a)" transform="matrix(.3 0 0 -.3 -3.9 199)"><path d="M1158.835 562.817s4.632 17.31 7.387 27.573c2.756 10.266-7.038 9.433-7.038 9.433h-91.822s-9.282.693-11.996-9.433l-7.39-27.573h-24.096s-9.254-.028-11.816-9.6l-7.46-27.84h177.54s5.355 19.794 7.612 28.394c2.254 8.603-7.06 9.047-7.06 9.047h-23.86z" fill="#2a3587"/><path d="M344.357 562.817s4.633 17.31 7.388 27.573c2.756 10.266-7.038 9.433-7.038 9.433h-91.824s-9.28.693-11.993-9.433l-7.39-27.573h-24.098s-9.253-.028-11.816-9.6l-7.46-27.84h177.541s5.352 19.794 7.608 28.394c2.257 8.603-7.06 9.047-7.06 9.047h-23.86z" fill="#e12f31"/><path d="M194.942 414.8l-6.26-14.916h15.89c3.082 0 5.668 2.486 7.755 7.458 2.088 4.972 1.588 7.458-1.495 7.458h-15.89zm-18.677-44.505l-7.407-17.653h11.866c6.166 0 10.468 2.897 12.905 8.703 2.502 5.965.667 8.95-5.498 8.95h-11.867zM241.435 470c16.224 0 25.296-5.22 27.22-15.664 1.708-10.94.41-21.384-3.897-31.33-2.157-5.14-4.488-9.572-6.99-13.302-2.505-3.73-5.052-6.923-7.638-9.57-2.59-2.655-5.134-4.812-7.64-6.466-2.507-1.66-4.84-2.983-6.998-3.98 2.985-1.826 5.28-5.308 6.88-10.442 1.595-5.14-.595-14.835-6.576-29.09-5.843-13.924-14.78-26.274-26.81-37.05-11.892-10.442-27.158-15.663-45.794-15.663H96.82L169.23 470h72.206z" fill="#2a3587"/><path d="M194.942 414.8l-6.26-14.916h15.89c3.082 0 5.668 2.486 7.755 7.458 2.088 4.972 1.588 7.458-1.495 7.458h-15.89zm-18.677-44.505l-7.407-17.653h11.866c6.166 0 10.468 2.897 12.905 8.703 2.502 5.965.667 8.95-5.498 8.95h-11.867zM241.435 470c16.224 0 25.296-5.22 27.22-15.664 1.708-10.94.41-21.384-3.897-31.33-2.157-5.14-4.488-9.572-6.99-13.302-2.505-3.73-5.052-6.923-7.638-9.57-2.59-2.655-5.134-4.812-7.64-6.466-2.507-1.66-4.84-2.983-6.998-3.98 2.985-1.826 5.28-5.308 6.88-10.442 1.595-5.14-.595-14.835-6.576-29.09-5.843-13.924-14.78-26.274-26.81-37.05-11.892-10.442-27.158-15.663-45.794-15.663H96.82L169.23 470h72.206z" fill="none" stroke="#fff" stroke-width="4" stroke-miterlimit="10"/><path d="M291.812 343.69h12.27l3.667 16.41 5.224 19.642-10.745-18.897-10.418-17.154zm59.233-46.248h-57.12l3.133 14.174h-24.94l-8.564-14.174h-47.868L331.34 470h48.875l-29.17-172.558z" fill="#2a3587"/><path d="M291.812 343.69h12.27l3.667 16.41 5.224 19.642-10.745-18.897-10.418-17.154zm59.233-46.248h-57.12l3.133 14.174h-24.94l-8.564-14.174h-47.868L331.34 470h48.875l-29.17-172.558z" fill="none" stroke="#fff" stroke-width="4" stroke-miterlimit="10"/><path d="M469.885 414.8l-49.248-117.357H369.75L419 414.8h-35.2l23.164 55.2h120.88l-23.164-55.2h-34.795z" fill="#2a3587"/><path d="M469.885 414.8l-49.248-117.357H369.75L419 414.8h-35.2l23.164 55.2h120.88l-23.164-55.2h-34.795z" fill="none" stroke="#fff" stroke-width="4" stroke-miterlimit="10"/><path d="M537.984 343.192l.1 13.18-24.728-58.93h-48.674L537.092 470h47.066l2.993-41.275-.105-13.675 23.06 54.95h48.873l-72.41-172.558h-45.255l-3.33 45.75z" fill="#2a3587"/><path d="M537.984 343.192l.1 13.18-24.728-58.93h-48.674L537.092 470h47.066l2.993-41.275-.105-13.675 23.06 54.95h48.873l-72.41-172.558h-45.255l-3.33 45.75z" fill="none" stroke="#fff" stroke-width="4" stroke-miterlimit="10"/><path d="M675.47 470h48.873l-72.41-172.558h-48.876L675.47 470z" fill="#2a3587"/><path d="M675.47 470h48.873l-72.41-172.558h-48.876L675.47 470z" fill="none" stroke="#fff" stroke-width="4" stroke-miterlimit="10"/><path d="M779.836 415.796c-5.768 0-11.555-2.61-17.367-7.83-5.813-5.223-11.014-13.305-15.606-24.245-4.59-10.94-6.122-18.98-4.588-24.116 1.53-5.14 5.112-7.706 10.745-7.706 5.632 0 11.336 2.567 17.113 7.706 2.784 2.486 5.446 5.632 7.987 9.447h49.48c-4.144-7.953-8.614-15.25-13.408-21.88-11.983-16.41-25.097-28.964-39.34-37.667-14.245-8.702-29.28-13.054-45.1-13.054-9.654 0-17.787 1.946-24.397 5.84-6.614 3.894-11.44 9.575-14.475 17.033-3.04 7.46-4.043 16.574-3.006 27.35 1.033 10.774 4.475 23.125 10.317 37.048 5.083 12.433 12.28 24.947 21.59 37.545 9.233 12.1 18.425 21.548 27.583 28.346 9.082 6.628 17.994 11.81 26.736 15.54 8.735 3.73 18.2 5.594 28.39 5.594 15.42 0 26.77-4.27 34.05-12.803 7.276-8.54 10.02-21.01 8.232-37.42-.854-7.458-2.475-15.002-4.87-22.625h-49.275c.296 1.99.457 3.808.483 5.468.024 1.655-.02 3.148-.133 4.475-1.263 5.305-4.976 7.958-11.14 7.958" fill="#2a3587"/><path d="M779.836 415.796c-5.768 0-11.555-2.61-17.367-7.83-5.813-5.223-11.014-13.305-15.606-24.245-4.59-10.94-6.122-18.98-4.588-24.116 1.53-5.14 5.112-7.706 10.745-7.706 5.632 0 11.336 2.567 17.113 7.706 2.784 2.486 5.446 5.632 7.987 9.447h49.48c-4.144-7.953-8.614-15.25-13.408-21.88-11.983-16.41-25.097-28.964-39.34-37.667-14.245-8.702-29.28-13.054-45.1-13.054-9.654 0-17.787 1.946-24.397 5.84-6.614 3.894-11.44 9.575-14.475 17.033-3.04 7.46-4.043 16.574-3.006 27.35 1.033 10.774 4.475 23.125 10.317 37.048 5.083 12.433 12.28 24.947 21.59 37.545 9.233 12.1 18.425 21.548 27.583 28.346 9.082 6.628 17.994 11.81 26.736 15.54 8.735 3.73 18.2 5.594 28.39 5.594 15.42 0 26.77-4.27 34.05-12.803 7.276-8.54 10.02-21.01 8.232-37.42-.854-7.458-2.475-15.002-4.87-22.625h-49.275c.296 1.99.457 3.808.483 5.468.024 1.655-.02 3.148-.133 4.475-1.263 5.305-4.976 7.958-11.14 7.958z" fill="none" stroke="#fff" stroke-width="4" stroke-miterlimit="10"/><path d="M932.38 395.408c8.982 0 15.517-2.404 19.605-7.212 4.08-4.81 6.068-10.858 5.958-18.15-.114-7.295-2.04-15.166-5.79-23.62-3.748-8.454-8.932-16.33-15.543-23.622-6.614-7.294-14.417-13.343-23.405-18.15-8.99-4.81-18.713-7.212-29.172-7.212h-73.815l23.162 55.2h52.094c7.24 0 12.217 3.233 14.93 9.696 2.85 6.794.652 10.027-6.592 9.698h-8.044c-11.13 0-19.075 2.4-23.826 7.21-4.755 4.805-7.11 10.853-7.066 18.15.043 7.292 2.107 15.17 6.192 23.622 4.082 8.452 9.396 16.323 15.946 23.62 6.546 7.292 13.946 13.34 22.2 18.15 8.25 4.806 16.6 7.21 25.05 7.21h69.792L970.892 414.8H922.82c-6.227.5-10.696-2.487-13.41-8.95-2.714-6.465-.955-9.944 5.27-10.442h17.7z" fill="#2a3587"/><path d="M932.38 395.408c8.982 0 15.517-2.404 19.605-7.212 4.08-4.81 6.068-10.858 5.958-18.15-.114-7.295-2.04-15.166-5.79-23.62-3.748-8.454-8.932-16.33-15.543-23.622-6.614-7.294-14.417-13.343-23.405-18.15-8.99-4.81-18.713-7.212-29.172-7.212h-73.815l23.162 55.2h52.094c7.24 0 12.217 3.233 14.93 9.696 2.85 6.794.652 10.027-6.592 9.698h-8.044c-11.13 0-19.075 2.4-23.826 7.21-4.755 4.805-7.11 10.853-7.066 18.15.043 7.292 2.107 15.17 6.192 23.622 4.082 8.452 9.396 16.323 15.946 23.62 6.546 7.292 13.946 13.34 22.2 18.15 8.25 4.806 16.6 7.21 25.05 7.21h69.792L970.892 414.8H922.82c-6.227.5-10.696-2.487-13.41-8.95-2.714-6.465-.955-9.944 5.27-10.442h17.7z" fill="none" stroke="#fff" stroke-width="4" stroke-miterlimit="10"/><path d="M1013.655 343.69h12.27l3.668 16.41 5.225 19.642-10.744-18.897-10.42-17.154zm59.235-46.248h-57.12l3.13 14.174h-24.94l-8.56-14.174h-47.87L1053.183 470h48.875L1072.89 297.44z" fill="#2a3587"/><path d="M1013.655 343.69h12.27l3.668 16.41 5.225 19.642-10.744-18.897-10.42-17.154zm59.235-46.248h-57.12l3.13 14.174h-24.94l-8.56-14.174h-47.87L1053.183 470h48.875L1072.89 297.44z" fill="none" stroke="#fff" stroke-width="4" stroke-miterlimit="10"/><path d="M1088.52 254.873c-2.26-5.014-8.61-9.116-14.11-9.116H33.37c-5.5 0-8.15 4.102-5.89 9.116l113.332 251.4c2.26 5.014 8.61 9.117 14.11 9.117h1041.04c5.5 0 8.152-4.103 5.892-9.117l-113.332-251.4z" fill="none" stroke="#fff" stroke-width="30" stroke-miterlimit="10"/><path d="M1088.52 254.873c-2.26-5.014-8.61-9.116-14.11-9.116H33.37c-5.5 0-8.15 4.102-5.89 9.116l113.332 251.4c2.26 5.014 8.61 9.117 14.11 9.117h1041.04c5.5 0 8.152-4.103 5.892-9.117l-113.332-251.4z" fill="none" stroke="#e12f31" stroke-width="20" stroke-miterlimit="10"/><path d="M107.706 212.486l-3.154-10.24h4.475c2.1 0 3.905.487 5.413 1.462 1.51.97 2.524 2.313 3.05 4.018.978 3.172-1.013 4.76-5.97 4.76h-3.814zm-5.38-17.47l-3.507-11.384h5.515c2.352 0 4.357.52 6.013 1.565 1.655 1.046 2.762 2.472 3.318 4.28.532 1.724.293 3.08-.717 4.065-1.01.982-2.692 1.474-5.046 1.474h-5.577zm-15.892-18.552l13.3 43.19h16.45c5.043 0 8.647-.885 10.813-2.65 2.166-1.767 2.753-4.257 1.765-7.47-.718-2.328-2.17-4.367-4.357-6.113-2.186-1.747-4.667-2.96-7.44-3.643l-.037-.122c3.096-.383 5.315-1.517 6.656-3.403 1.34-1.887 1.594-4.187.76-6.897-1.218-3.957-3.665-7.093-7.342-9.413-3.676-2.32-8.078-3.478-13.205-3.478H86.434zM154.638 188.994l.64 2.078-6.085-.724c-3.36-.4-5.407-1.796-6.142-4.186-.333-1.084-.213-1.973.36-2.665.576-.693 1.536-1.04 2.88-1.04 1.87 0 3.584.62 5.14 1.85 1.558 1.24 2.626 2.798 3.208 4.687m5.5-12.53h-9.42l1.362 4.427h-.126c-3.228-3.452-6.964-5.18-11.208-5.18-3.13 0-5.333.85-6.605 2.545-1.273 1.698-1.475 3.962-.603 6.794 1.842 5.98 6.615 9.434 14.315 10.358l9.103 1.116c1.04 3.37-.353 5.058-4.176 5.058-3.846 0-7.838-1.094-11.98-3.28l2.208 7.166c1.598.682 3.68 1.284 6.245 1.807 2.566.524 4.837.783 6.812.783 9.202 0 12.453-4.386 9.75-13.163l-5.676-18.43zM194.09 176.827c-1.7-.746-4.03-1.116-6.993-1.116-7.017 0-9.452 3.486-7.306 10.452l4.35 14.126h-5.23l2.16 7.018h5.23l2.05 6.656 10.763 2.71-2.884-9.366h7.247l-2.16-7.018h-7.25l-3.84-12.47c-.99-3.213-.15-4.818 2.52-4.818 1.05 0 2.22.29 3.514.875l-2.17-7.048zM231.516 195.017c1.36 4.418.17 6.627-3.57 6.627-1.597 0-3.173-.633-4.727-1.898-1.557-1.266-2.752-2.84-3.585-4.73h11.88zm7.435-5.844H217.9c-1.042-4.477 1.22-6.715 6.788-6.715 3.55 0 6.917.803 10.1 2.41L232.673 178c-3.452-1.527-7.564-2.29-12.333-2.29-5.21 0-8.83 1.382-10.86 4.143-2.027 2.76-2.28 6.61-.76 11.552 1.578 5.12 4.38 9.175 8.412 12.167 4.03 2.992 8.315 4.487 12.854 4.487 4.705 0 7.934-1.336 9.686-4.01 1.75-2.67 1.92-6.292.512-10.87l-1.233-4.007zM275.32 198.722c-1.005.622-2.307.934-3.903.934-2.164 0-4.09-.758-5.775-2.274-1.685-1.516-2.93-3.577-3.734-6.19l-4.534-14.728h-9.96l9.5 30.843h9.957l-1.76-5.725h.125c2.86 4.177 6.34 6.267 10.438 6.267 1.05 0 1.832-.123 2.347-.364l-2.7-8.764zM308.644 221.914l-12.86-9.73H288.6l11.19 9.73h8.854zm-19.132-45.45h-9.96l9.5 30.843h9.957l-9.498-30.843zM325.698 188.994l.64 2.078-6.085-.724c-3.36-.4-5.406-1.796-6.142-4.186-.332-1.084-.212-1.973.36-2.665.577-.693 1.536-1.04 2.88-1.04 1.87 0 3.583.62 5.14 1.85 1.558 1.24 2.626 2.798 3.208 4.687m5.5-12.53h-9.422l1.364 4.427h-.127c-3.227-3.452-6.963-5.18-11.207-5.18-3.13 0-5.333.85-6.605 2.545-1.273 1.698-1.474 3.962-.604 6.794 1.843 5.98 6.616 9.434 14.316 10.358l9.105 1.116c1.04 3.37-.354 5.058-4.178 5.058-3.846 0-7.838-1.094-11.98-3.28l2.21 7.166c1.595.682 3.676 1.284 6.243 1.807 2.567.524 4.838.783 6.813.783 9.2 0 12.45-4.386 9.75-13.163l-5.678-18.43zM343.67 177.278l2.375 7.708c1.348-.942 2.764-1.645 4.25-2.105 1.486-.463 2.955-.695 4.405-.695 1.764 0 3.227.232 4.39.696 1.16.46 1.886 1.164 2.176 2.106.185.605.11 1.106-.23 1.508-.337.4-.824.752-1.456 1.053-.632.3-1.342.573-2.128.814-.788.242-1.534.512-2.24.813-1.14.46-2.115.96-2.928 1.492-.813.534-1.443 1.15-1.888 1.852-.445.7-.7 1.515-.762 2.44-.062.924.102 2.018.492 3.284.53 1.727 1.382 3.213 2.553 4.457 1.17 1.244 2.535 2.265 4.093 3.057 1.558.793 3.24 1.375 5.043 1.748 1.807.37 3.624.556 5.45.556 1.43 0 2.847-.105 4.253-.315 1.405-.212 2.76-.52 4.065-.92l-2.263-7.35c-1.045.704-2.232 1.233-3.563 1.583-1.33.35-2.69.526-4.077.526-.65 0-1.283-.055-1.894-.165-.614-.11-1.173-.27-1.68-.482-.504-.21-.935-.483-1.29-.812-.353-.332-.594-.71-.724-1.13-.175-.564-.133-1.044.12-1.447.256-.4.642-.748 1.163-1.04.52-.29 1.115-.55 1.79-.782.675-.23 1.342-.466 2.004-.708 1.187-.44 2.236-.924 3.147-1.444.913-.523 1.642-1.135 2.192-1.84.55-.7.887-1.524 1.006-2.468.118-.944-.023-2.07-.425-3.372-.562-1.83-1.458-3.39-2.687-4.685-1.23-1.294-2.656-2.348-4.283-3.162-1.626-.813-3.395-1.405-5.305-1.778-1.912-.37-3.833-.556-5.766-.556-3.55 0-6.68.524-9.382 1.568M431.067 191.464l.714 2.318c.618 2.01.523 3.673-.288 5-.81 1.328-2.192 1.99-4.146 1.99-2.207 0-4.185-.83-5.933-2.49-1.75-1.653-3.07-3.93-3.96-6.818-.836-2.71-.88-4.798-.133-6.267.746-1.463 2.18-2.197 4.302-2.197 2.016 0 3.9.775 5.645 2.318 1.747 1.548 3.014 3.595 3.8 6.146m5.15-15h-9.96l1.31 4.246h-.126c-3.295-3.33-7.14-5-11.53-5-4.034 0-6.86 1.362-8.48 4.083-1.62 2.72-1.68 6.52-.177 11.398 1.57 5.102 4.184 9.19 7.84 12.26 3.656 3.074 7.68 4.61 12.07 4.61 4.16 0 6.622-1.427 7.382-4.28h.126l5.65 18.345h9.958l-14.06-45.66zM476.527 195.017c1.36 4.418.17 6.627-3.57 6.627-1.597 0-3.172-.633-4.728-1.898-1.557-1.266-2.752-2.84-3.584-4.73h11.88zm7.434-5.844h-21.05c-1.044-4.477 1.22-6.715 6.787-6.715 3.55 0 6.917.803 10.1 2.41L477.684 178c-3.453-1.527-7.566-2.29-12.335-2.29-5.21 0-8.83 1.382-10.858 4.143-2.028 2.76-2.282 6.61-.76 11.552 1.576 5.12 4.38 9.175 8.41 12.167 4.03 2.992 8.317 4.487 12.854 4.487 4.706 0 7.934-1.336 9.687-4.01 1.75-2.67 1.92-6.292.512-10.87l-1.234-4.007zM558.317 176.464h-10.274L537.775 203.6c-.605 1.586-.993 2.783-1.166 3.585h-.127c-.302-1.527-.936-3.855-1.9-6.986l-7.308-23.736h-9.613l13.3 43.19h10.967l9.835-26.294c.455-1.185.85-2.36 1.183-3.523h.127c.14 1.004.666 2.98 1.575 5.933l7.354 23.883h9.612l-13.3-43.19zM590.172 212.185c-1.68 0-2.91.478-3.688 1.43-.778.953-.953 2.123-.526 3.508.438 1.426 1.333 2.592 2.683 3.495 1.35.906 2.866 1.356 4.547 1.356 1.7 0 2.943-.45 3.726-1.356.783-.903.954-2.07.516-3.494-.446-1.444-1.342-2.628-2.688-3.553-1.344-.923-2.868-1.384-4.57-1.384m-6.083-35.722h-9.96l9.497 30.843h9.958l-9.496-30.843zM623.725 177.58c-2.632-1.248-6.07-1.87-10.314-1.87-4.956 0-8.53 1.437-10.71 4.307-2.184 2.874-2.576 6.577-1.18 11.115 1.615 5.24 4.53 9.373 8.75 12.393 4.217 3.022 9.08 4.533 14.584 4.533 3.803 0 6.405-.482 7.81-1.444l-2.484-8.072c-1.624 1.485-3.716 2.228-6.28 2.228-2.858 0-5.364-.797-7.528-2.395-2.162-1.595-3.674-3.8-4.542-6.61-.84-2.733-.703-4.874.415-6.432 1.12-1.554 3.075-2.333 5.87-2.333 2.478 0 5.133.743 7.964 2.228l-2.355-7.65zM657.708 188.994l.64 2.078-6.085-.724c-3.36-.4-5.406-1.796-6.143-4.186-.334-1.084-.214-1.973.36-2.665.577-.693 1.536-1.04 2.88-1.04 1.87 0 3.583.62 5.14 1.85 1.558 1.24 2.626 2.798 3.208 4.687m5.5-12.53h-9.422l1.362 4.427h-.125c-3.228-3.452-6.963-5.18-11.208-5.18-3.13 0-5.332.85-6.606 2.545-1.273 1.698-1.476 3.962-.604 6.794 1.842 5.98 6.616 9.434 14.316 10.358l9.103 1.116c1.038 3.37-.352 5.058-4.176 5.058-3.845 0-7.838-1.094-11.98-3.28l2.207 7.166c1.597.682 3.68 1.284 6.245 1.807 2.567.524 4.837.783 6.813.783 9.202 0 12.452-4.386 9.75-13.163l-5.677-18.43zM705.446 198.722c-1.006.622-2.308.934-3.903.934-2.164 0-4.09-.758-5.774-2.274-1.686-1.516-2.932-3.577-3.735-6.19l-4.536-14.728h-9.96l9.498 30.843h9.958l-1.76-5.725h.125c2.862 4.177 6.342 6.267 10.44 6.267 1.048 0 1.832-.123 2.345-.364l-2.7-8.764zM731.03 188.994l.64 2.078-6.086-.724c-3.36-.4-5.406-1.796-6.143-4.186-.334-1.084-.213-1.973.36-2.665.578-.693 1.537-1.04 2.88-1.04 1.87 0 3.583.62 5.14 1.85 1.56 1.24 2.627 2.798 3.21 4.687m5.5-12.53h-9.423l1.363 4.427h-.127c-3.227-3.452-6.963-5.18-11.206-5.18-3.13 0-5.334.85-6.608 2.545-1.272 1.698-1.475 3.962-.604 6.794 1.843 5.98 6.617 9.434 14.317 10.358l9.103 1.116c1.038 3.37-.352 5.058-4.177 5.058-3.844 0-7.837-1.094-11.98-3.28l2.208 7.166c1.597.682 3.68 1.284 6.244 1.807 2.567.524 4.838.783 6.814.783 9.202 0 12.452-4.386 9.75-13.163l-5.677-18.43zM777.233 191.282l.752 2.44c.6 1.947.507 3.61-.278 4.984-.786 1.376-2.143 2.064-4.076 2.064-2.205 0-4.19-.824-5.96-2.47-1.767-1.647-3.112-3.966-4.032-6.958-.792-2.57-.82-4.603-.083-6.1.738-1.494 2.146-2.242 4.226-2.242 2.06 0 3.958.757 5.697 2.273 1.737 1.517 2.99 3.52 3.756 6.01m6.354-11.294c-1.76-5.724-4.86-10.158-9.294-13.3-4.435-3.14-9.94-4.713-16.516-4.713-4.35 0-7.61.593-9.79 1.777l2.468 8.012c2.75-1.848 5.817-2.772 9.2-2.772 3.36 0 6.227.85 8.6 2.546 2.37 1.697 4.003 4 4.9 6.913l.752 2.438h-.126c-3.33-3.452-7.214-5.18-11.65-5.18-4.116 0-6.955 1.386-8.517 4.157-1.564 2.77-1.628 6.486-.194 11.145 1.608 5.218 4.228 9.367 7.864 12.437 3.636 3.073 7.648 4.608 12.04 4.608 3.928 0 6.424-1.444 7.486-4.337h.127l1.104 3.586H792l-8.413-27.317zM827.94 176.464h-9.927l1.447 4.697h-.158c-3.578-3.632-7.426-5.45-11.543-5.45-7.48 0-9.887 4.328-7.222 12.983l5.73 18.614h9.93l-5.474-17.77c-1.343-4.36-.205-6.537 3.408-6.537 1.786 0 3.398.597 4.837 1.79 1.44 1.195 2.475 2.82 3.105 4.866l5.435 17.65h9.926l-9.497-30.842zM864.125 188.994l.64 2.078-6.083-.724c-3.36-.4-5.408-1.796-6.143-4.186-.335-1.084-.214-1.973.36-2.665.576-.693 1.535-1.04 2.878-1.04 1.87 0 3.584.62 5.14 1.85 1.557 1.24 2.627 2.798 3.207 4.687m5.502-12.53h-9.424l1.364 4.427h-.125c-3.227-3.452-6.963-5.18-11.208-5.18-3.13 0-5.332.85-6.606 2.545-1.274 1.698-1.475 3.962-.603 6.794 1.843 5.98 6.615 9.434 14.316 10.358l9.104 1.116c1.04 3.37-.353 5.058-4.176 5.058-3.846 0-7.84-1.094-11.98-3.28l2.208 7.166c1.597.682 3.68 1.284 6.245 1.807 2.568.524 4.84.783 6.814.783 9.202 0 12.452-4.386 9.75-13.163l-5.677-18.43zM895.72 184.054l-9.325-15.24h-7.752l7.907 15.24h9.17zM931.57 178.12l2.968 9.637c1.377-1.464 3.024-2.565 4.94-3.296 1.918-.732 3.97-1.1 6.154-1.1 1.283 0 2.435.11 3.46.332 1.023.22 1.915.526 2.676.92.762.392 1.382.853 1.862 1.385.477.532.814 1.108 1.005 1.73.26.844.24 1.597-.06 2.26-.302.662-.8 1.277-1.5 1.837-.697.564-1.565 1.106-2.602 1.626-1.036.524-2.166 1.056-3.383 1.598-3.098 1.404-5.2 3.122-6.31 5.15-1.108 2.027-1.22 4.477-.337 7.347.692 2.25 1.76 4.184 3.203 5.8 1.445 1.616 3.14 2.945 5.09 3.992 1.95 1.04 4.07 1.81 6.366 2.302 2.295.49 4.64.737 7.035.737 2.353 0 4.396-.137 6.13-.406 1.734-.272 3.282-.687 4.64-1.25l-2.772-9.004c-.6.502-1.29.943-2.066 1.323-.776.38-1.598.698-2.466.95-.867.25-1.75.437-2.648.555-.9.12-1.767.182-2.61.182-1.154 0-2.237-.105-3.246-.315-1.01-.213-1.9-.51-2.67-.89-.768-.38-1.414-.84-1.934-1.372-.52-.53-.883-1.13-1.087-1.79-.224-.724-.224-1.372 0-1.942.223-.573.622-1.115 1.2-1.627s1.315-1.014 2.214-1.505c.9-.492 1.932-.998 3.093-1.52 1.585-.725 2.97-1.492 4.16-2.306 1.19-.814 2.14-1.733 2.853-2.757.716-1.022 1.144-2.192 1.285-3.508.14-1.316-.058-2.846-.595-4.593-.74-2.41-1.843-4.43-3.303-6.07-1.46-1.637-3.166-2.962-5.116-3.973-1.95-1.017-4.08-1.745-6.393-2.185-2.31-.443-4.673-.664-7.09-.664-2.48 0-4.775.202-6.888.602-2.114.403-3.868 1.004-5.26 1.81M979.008 175.71c-1.64 0-2.856.484-3.65 1.446-.797.965-.978 2.15-.545 3.554.444 1.447 1.37 2.63 2.78 3.553 1.408.925 2.953 1.387 4.635 1.387 1.7 0 2.95-.467 3.743-1.4.796-.935.974-2.114.534-3.54-.45-1.465-1.372-2.665-2.764-3.6-1.39-.933-2.967-1.4-4.732-1.4M1028.076 193.542l-.383 14.517c-.02 1.083.124 2.378.44 3.883h-.25c-.495-1.264-1.144-2.518-1.948-3.765l-9.424-14.636h11.566zm11.382-17.078h-11.094l-.256 9.607h-16.07l-6.144-9.606h-11.03l29.752 43.19h12.07l2.772-43.19zM1054.788 175.71c-1.64 0-2.856.484-3.652 1.446-.795.965-.977 2.15-.545 3.554.447 1.447 1.374 2.63 2.783 3.553 1.407.925 2.952 1.387 4.632 1.387 1.703 0 2.95-.467 3.744-1.4.796-.935.972-2.114.534-3.54-.453-1.465-1.374-2.665-2.764-3.6-1.39-.933-2.968-1.4-4.732-1.4" fill="#2a3587"/></g></svg>