<?xml version="1.0" encoding="UTF-8" standalone="no"?>
<!-- Generator: Adobe Illustrator 16.0.0, SVG Export Plug-In . SVG Version: 6.00 Build 0)  -->

<svg
   xmlns:dc="http://purl.org/dc/elements/1.1/"
   xmlns:cc="http://creativecommons.org/ns#"
   xmlns:rdf="http://www.w3.org/1999/02/22-rdf-syntax-ns#"
   xmlns:svg="http://www.w3.org/2000/svg"
   xmlns="http://www.w3.org/2000/svg"
   xmlns:sodipodi="http://sodipodi.sourceforge.net/DTD/sodipodi-0.dtd"
   xmlns:inkscape="http://www.inkscape.org/namespaces/inkscape"
   version="1.1"
   id="Capa_1"
   x="0px"
   y="0px"
   width="300"
   height="152.85091"
   viewBox="0 0 300 152.85091"
   enable-background="new 0 0 212 120"
   xml:space="preserve"
   inkscape:version="0.48.5 r10040"
   sodipodi:docname="biibii.svg"><metadata
     id="metadata31"><rdf:RDF><cc:Work
         rdf:about=""><dc:format>image/svg+xml</dc:format><dc:type
           rdf:resource="http://purl.org/dc/dcmitype/StillImage" /></cc:Work></rdf:RDF></metadata><defs
     id="defs29" /><sodipodi:namedview
     pagecolor="#ffffff"
     bordercolor="#666666"
     borderopacity="1"
     objecttolerance="10"
     gridtolerance="10"
     guidetolerance="10"
     inkscape:pageopacity="0"
     inkscape:pageshadow="2"
     inkscape:window-width="1366"
     inkscape:window-height="708"
     id="namedview27"
     showgrid="false"
     fit-margin-top="0"
     fit-margin-left="0"
     fit-margin-right="0"
     fit-margin-bottom="0"
     inkscape:zoom="1.5424528"
     inkscape:cx="106"
     inkscape:cy="56.422"
     inkscape:window-x="0"
     inkscape:window-y="27"
     inkscape:window-maximized="1"
     inkscape:current-layer="Capa_1" /><g
     id="g3"
     transform="matrix(1.4187106,0,0,1.4187106,0,-12.318217)"><path
       d="M 211.426,44.955 C 210.791,36.992 201.213,31.189 188.573,31.043 188.004,18.581 181.927,9.048 173.851,8.691 164.928,8.337 157.504,19.329 156.88,33.479 c -0.433,9.879 2.524,18.422 7.327,22.887 4.081,4.029 11.229,6.563 19.7,6.563 1.105,0 2.232,-0.044 3.351,-0.134 6.581,-0.524 12.681,-2.54 17.178,-5.671 4.865,-3.39 7.346,-7.711 6.99,-12.169 z m -46.301,3.691 c -0.066,-0.849 0.056,-1.705 0.357,-2.556 l 8.863,8.556 c -0.745,0.296 -1.51,0.455 -2.282,0.455 l -0.256,-0.006 c -1.483,-0.065 -2.888,-0.697 -4.154,-1.773 -1.487,-1.379 -2.39,-2.97 -2.528,-4.676 z m 13.332,2.771 -9.902,-9.558 c 0.491,-0.433 1.026,-0.856 1.617,-1.268 0.834,-0.581 1.74,-1.114 2.7,-1.602 l 8.288,7.998 c -0.782,1.701 -1.696,3.199 -2.703,4.43 z m -0.252,-14.478 c 1.817,-0.508 3.74,-0.882 5.733,-1.102 -0.154,2 -0.465,3.933 -0.913,5.754 l -4.82,-4.652 z m -16.756,-3.258 c 0.487,-11.073 5.958,-20.427 11.945,-20.427 l 0.254,0.005 c 5.488,0.243 9.868,8.166 10.35,17.981 -6.298,0.612 -12.112,2.588 -16.439,5.603 -2.412,1.68 -4.236,3.59 -5.419,5.632 -0.57,-2.71 -0.828,-5.694 -0.691,-8.794 z m 40.374,19.69 c -3.842,2.677 -9.143,4.407 -14.928,4.867 -0.996,0.079 -2.001,0.119 -2.987,0.119 -2.051,0 -4.021,-0.178 -5.868,-0.504 5.663,-3.567 9.866,-12.041 10.493,-22.24 9.892,0.125 17.908,4.34 18.335,9.706 0.222,2.77 -1.569,5.63 -5.045,8.052 z"
       id="path5"
       inkscape:connector-curvature="0"
       style="fill:#f8bf1d" /><path
       d="M 32.78,75.268 C 30.104,74.039 27.372,73.316 24.481,73.316 19.998,73.316 15,74.545 13,77.872 V 60 H 0 v 54 h 13 v -3 h -0.686 c 2.097,3 7.376,5.422 11.499,5.422 12.51,0 20.249,-9.73 20.249,-21.807 0,-8.317 -3.543,-15.731 -11.282,-19.347 z m -10.775,29.721 c -5.857,0 -9.763,-4.629 -9.763,-10.341 0,-5.64 4.266,-10.125 9.979,-10.125 5.642,0 9.836,4.702 9.836,10.198 10e-4,5.713 -4.266,10.268 -10.052,10.268 z"
       id="path7"
       inkscape:connector-curvature="0"
       style="fill:#f8bf1d" /><rect
       x="48"
       y="78"
       width="11"
       height="36"
       id="rect9"
       style="fill:#f8bf1d" /><rect
       x="65"
       y="78"
       width="11"
       height="36"
       id="rect11"
       style="fill:#f8bf1d" /><path
       d="m 113.787,75.268 c -2.675,-1.229 -5.909,-1.952 -8.803,-1.952 -4.483,0 -8.984,1.229 -11.984,4.556 V 60 H 82 v 54 h 11 v -3 h 0.322 c 2.097,3 7.375,5.422 11.499,5.422 12.511,0 20.247,-9.73 20.247,-21.807 0,-8.317 -3.542,-15.731 -11.281,-19.347 z m -10.774,29.721 c -5.858,0 -9.763,-4.629 -9.763,-10.341 0,-5.64 4.266,-10.125 9.98,-10.125 5.64,0 9.834,4.702 9.834,10.198 0,5.713 -4.266,10.268 -10.051,10.268 z"
       id="path13"
       inkscape:connector-curvature="0"
       style="fill:#f8bf1d" /><rect
       x="129"
       y="78"
       width="11"
       height="36"
       id="rect15"
       style="fill:#f8bf1d" /><rect
       x="145"
       y="78"
       width="12"
       height="36"
       id="rect17"
       style="fill:#f8bf1d" /><circle
       cx="53.181999"
       cy="67.313004"
       r="6.0029998"
       id="circle19"
       sodipodi:cx="53.181999"
       sodipodi:cy="67.313004"
       sodipodi:rx="6.0029998"
       sodipodi:ry="6.0029998"
       style="fill:#f8bf1d"
       d="m 59.184999,67.313004 c 0,3.315365 -2.687635,6.002999 -6.003,6.002999 -3.315365,0 -6.003,-2.687634 -6.003,-6.002999 0,-3.315366 2.687635,-6.003 6.003,-6.003 3.315365,0 6.003,2.687634 6.003,6.003 z" /><circle
       cx="70.250999"
       cy="67.313004"
       r="6.0029998"
       id="circle21"
       sodipodi:cx="70.250999"
       sodipodi:cy="67.313004"
       sodipodi:rx="6.0029998"
       sodipodi:ry="6.0029998"
       style="fill:#f8bf1d"
       d="m 76.253999,67.313004 c 0,3.315365 -2.687634,6.002999 -6.003,6.002999 -3.315365,0 -6.002999,-2.687634 -6.002999,-6.002999 0,-3.315366 2.687634,-6.003 6.002999,-6.003 3.315366,0 6.003,2.687634 6.003,6.003 z" /><circle
       cx="134.188"
       cy="67.313004"
       r="6.0029998"
       id="circle23"
       sodipodi:cx="134.188"
       sodipodi:cy="67.313004"
       sodipodi:rx="6.0029998"
       sodipodi:ry="6.0029998"
       style="fill:#f8bf1d"
       d="m 140.191,67.313004 c 0,3.315365 -2.68763,6.002999 -6.003,6.002999 -3.31536,0 -6.003,-2.687634 -6.003,-6.002999 0,-3.315366 2.68764,-6.003 6.003,-6.003 3.31537,0 6.003,2.687634 6.003,6.003 z" /><circle
       cx="151.25999"
       cy="67.313004"
       r="6.0029998"
       id="circle25"
       sodipodi:cx="151.25999"
       sodipodi:cy="67.313004"
       sodipodi:rx="6.0029998"
       sodipodi:ry="6.0029998"
       style="fill:#f8bf1d"
       d="m 157.26299,67.313004 c 0,3.315365 -2.68763,6.002999 -6.003,6.002999 -3.31536,0 -6.003,-2.687634 -6.003,-6.002999 0,-3.315366 2.68764,-6.003 6.003,-6.003 3.31537,0 6.003,2.687634 6.003,6.003 z" /></g></svg>