<svg xmlns="http://www.w3.org/2000/svg" width="316.897" height="166.257"><path d="M0 91.5C0 64.05 70.945 41.8 158.45 41.8c87.51 0 158.447 22.252 158.447 49.7 0 27.453-70.937 49.697-158.447 49.697C70.945 141.197 0 118.953 0 91.5" fill="#3a9946"/><path d="M3.945 90.683c0-26.31 69.533-47.635 155.295-47.635 85.765 0 155.292 21.326 155.292 47.635 0 26.31-69.527 47.638-155.292 47.638-85.762 0-155.295-21.326-155.295-47.637" fill="#f7ed38"/><path d="M112.04 111.645v13.574h-3.974l-.01-9.165-1.58 9.164h-2.82l-1.667-8.955-.01 8.954h-3.974v-13.575h5.882c.174.816.354 1.78.54 2.886l.645 3.454 1.045-6.34h5.913zM119.242 118.043v-.814c0-.576-.04-.95-.12-1.116-.08-.168-.24-.25-.485-.25-.302 0-.49.07-.56.212-.073.143-.11.528-.11 1.153v.813h1.275zm4.373 1.81h-5.648v2.407c0 .503.048.828.14.97.093.148.275.22.54.22.333 0 .554-.096.665-.29.11-.192.168-.566.168-1.117v-1.468h4.135v.82c0 .69-.055 1.216-.168 1.585-.11.37-.372.764-.782 1.184-.41.417-.93.732-1.56.942-.63.21-1.42.315-2.37.315-.923 0-1.735-.104-2.44-.31-.707-.206-1.255-.49-1.648-.85-.39-.362-.664-.757-.815-1.192-.15-.433-.226-1.063-.226-1.89v-3.245c0-.972.17-1.74.507-2.302.338-.56.893-.99 1.663-1.29.77-.3 1.655-.447 2.656-.447 1.224 0 2.234.18 3.03.54.794.36 1.35.838 1.673 1.433.32.595.48 1.433.48 2.512v1.475zM133.688 114.094l-1.74 5.313 2.107 5.812h-4.24c-.422-1.47-.74-2.73-.96-3.79-.29 1.322-.605 2.585-.946 3.79h-3.65l1.88-5.813-1.88-5.313h3.65c.587 2.273.903 3.565.946 3.873.422-1.9.74-3.19.958-3.873h3.874zM139.12 125.218h-4.492v-11.125h4.49v11.125zm0-11.805h-4.492v-1.768h4.49v1.768zM150.327 118.294h-4.114v-1.282c0-.448-.047-.752-.14-.91-.094-.16-.266-.24-.52-.24-.25 0-.42.07-.506.21-.086.14-.13.453-.13.94v5.247c0 .398.065.693.195.893.13.197.32.297.572.297.295 0 .495-.103.6-.31.104-.207.155-.597.155-1.173v-1.327h3.887c-.01.89-.05 1.557-.125 2-.075.445-.317.902-.723 1.368-.407.466-.938.817-1.593 1.057-.655.237-1.465.357-2.43.357-1.23 0-2.207-.164-2.925-.492-.722-.327-1.23-.786-1.528-1.375-.3-.59-.45-1.427-.45-2.51v-3.162c0-.945.124-1.656.37-2.138.243-.48.765-.91 1.564-1.287.8-.378 1.77-.565 2.915-.565 1.137 0 2.11.186 2.916.56.804.376 1.34.847 1.607 1.42.266.57.4 1.376.4 2.42M156.902 119.928c-.7.398-1.103.73-1.215 1-.11.268-.166.653-.166 1.156 0 .577.048.947.146 1.115.097.166.29.25.577.25.274 0 .45-.064.535-.197.082-.13.124-.476.124-1.035v-2.29zm-1.38-1.525h-4.094v-.746c0-.86.128-1.525.383-1.99.257-.47.77-.88 1.54-1.24.77-.356 1.77-.535 3.002-.535 1.475 0 2.586.202 3.336.61.75.404 1.2.9 1.35 1.49.15.59.226 1.804.226 3.644v5.582h-4.243v-.99c-.266.398-.61.695-1.03.895-.422.198-.923.3-1.507.3-.762 0-1.462-.167-2.1-.502-.637-.33-.955-1.06-.955-2.182v-.915c0-.832.17-1.4.508-1.702.337-.3 1.176-.653 2.515-1.053 1.433-.44 2.2-.73 2.3-.883.1-.15.152-.457.152-.92 0-.582-.055-.96-.168-1.138-.11-.175-.297-.263-.556-.263-.295 0-.48.074-.55.22-.073.15-.107.534-.107 1.154v1.166zM167.203 114.094l-.076 1.023c.316-.407.704-.715 1.16-.918.457-.205.985-.308 1.582-.308.748 0 1.36.137 1.836.41.473.275.78.62.917 1.037.136.415.205 1.11.205 2.08v7.8h-4.362v-7.706c0-.765-.032-1.233-.096-1.4-.065-.168-.247-.252-.542-.252-.308 0-.502.096-.582.29-.08.193-.12.708-.12 1.547v7.52h-4.36v-11.126h4.437zM188.785 116.642h-4.545v-1.232c0-.776-.043-1.264-.13-1.46-.087-.195-.29-.293-.615-.293-.28 0-.47.084-.57.252-.103.166-.154.597-.154 1.29v6.515c0 .607.052 1.01.154 1.204.1.19.302.286.603.286.332 0 .557-.11.675-.326.12-.218.18-.643.18-1.275v-1.61h-.92v-2.063h5.323v7.287h-2.856l-.42-.974c-.31.42-.703.733-1.174.943-.47.21-1.028.314-1.67.314-.762 0-1.477-.144-2.142-.432-.668-.288-1.174-.645-1.52-1.07-.347-.425-.562-.868-.65-1.335-.084-.468-.128-1.167-.128-2.102v-4.033c0-1.296.09-2.237.27-2.825.18-.586.696-1.125 1.55-1.613.853-.49 1.955-.734 3.31-.734 1.33 0 2.435.212 3.314.637.877.425 1.45.93 1.717 1.513.267.585.398 1.434.398 2.545v.587zM194.78 114.094l-.175 1.462c.634-1.047 1.552-1.602 2.754-1.664v3.915c-.8 0-1.388.084-1.76.252-.375.167-.606.4-.69.7-.088.3-.13.987-.13 2.066v4.393h-4.364v-11.126h4.363zM202.823 125.218h-4.493v-11.125h4.493v11.125zm0-11.805h-4.493v-1.768h4.493v1.768zM208.88 125.218h-4.492v-13.573h4.492v13.573zM214.938 125.218h-4.493v-13.573h4.493v13.573z" fill="#be1e2d"/><path d="M163.138 31.77s2.71-3.752 5.574-3.413c.422.05 2.187.385 2.187.385l3.67.27-.318-.782-3.668-1.988-5.26-1.38.11-1.23L190.16 11.64l-25.918 6.686-1.83-.79-5.057-2.224-7.14-.86-3.877-5.635-10.376-7.387-.642 3.586.123 9.144-6.87 5.65-10.545 13.832-3.94 14.888.35 8.712 3.72 9.106 3.85 5.033 6.433 5.517 1.1 1.883 3.805-2.603.48-3.726-4.993-2.56-1.13-1.142-1.38-1.918-1.163-3.503-.027-3.926.233-2.388 1.05-2.146 1.288-1.87 2.008-2.076 2.852-2.197 9.29-5.547 8.88-4.273 6.327-2.717 3.74-2.33 2.335-2.085z" fill="#5ebae9"/><path d="M116.39 53.455l.312-5.14 1.455 1.763.745.91-.745 3.9-1.132 5.887-.58-4.347-.055-2.973zm1.767-4.866c-.415-1.047-.748-2.3-.748-3.228 0-.685.34-1.993.747-3.09.31-.834.666-1.55.927-1.77.04 1.717.804 2.426 1.54 3.23.288.315.57.643.81 1.06l-.81 2.056-1.42 3.584c-.315-.28-.707-.993-1.047-1.843m2.468-6.363c-.476-1.084-.816-2.363-.816-3.35v-.264c0-.333.36-1.02.815-1.726.57-.908 1.298-1.837 1.582-2.055 0 2.11.856 2.905 1.67 3.875.247.29.496.602.713.968l-.713 1.25-1.908 3.358c-.45-.34-.95-1.13-1.345-2.056m2.667 22.28l.585-4.003.013-.07.237.05c0 2.138.606 4.744 1.202 6.21.45 1.097 2.353 4.665 2.403 4.858-1.53-.46-3.093-2.096-3.856-4.165-.293-.81-.466-1.685-.466-2.586l-.118-.293zm.585-27.437c-.404-.996-.708-2.1-.708-3.588 0-.19.285-.565.707-1.008.99-1.04 2.707-2.462 3.132-2.77 0 3.924.348 3.418 1.44 4.933.145.2.307.438.477.73l-.478.448-3.592 3.345c-.34-.706-.683-1.365-.98-2.09m5.326-2.173c-.14-.625-.47-1.343-.755-2.043-.26-.637-.485-1.27-.485-1.805v-1.62c0-.238.187-.52.484-.806.253-.245.595-.505.967-.75 1.03-.675 2.323-1.27 2.873-1.41-.132.603-.245.62-.245 1.346v.538c0 1.955.86 2.614 1.18 3.935l.027.116-.028.018-3.807 2.348-.213.13zm.68 12.895c.464-.774 1.786-2.014 3.34-3.208 2.113-1.62 4.65-3.146 6.025-3.27-1.17 1.144-3.422 1.923-4.803 2.97-.217.166-.678.536-1.223.98-1.266 1.026-2.997 2.43-3.34 2.528m21.605-14.31c2.558 0 3.442-.302 4.32-.708.615-.275 1.227-.604 2.4-.91-.297.453-1.318 1.148-2.4 1.673-.878.43-1.8.757-2.4.757h-.48c-.885 0-1.085-.27-1.44-.812m1.92 1.08c.958 0 1.738-.105 2.4-.264 1.277-.306 2.134-.808 3.002-1.108.346-.12.696-.216 1.08-.248-.248.243-.63.548-1.08.863-.88.608-2.018 1.237-3.002 1.47-.248.065-.495.092-.72.092h-.24c-.887 0-1.088-.26-1.44-.805m6.84-5.94h-.842v-.275c.35 0 .625-.086.84-.252.416-.313.6-.903.6-1.63h.24l-.478 2.157h-.36zm0-3.963c-.686.6-1.322 1.294-1.322 2.07v1.617c-.04-.028-.078-.056-.116-.08-.324-.22-.603-.352-.603-.995v-.808c0-.373.24-.802.602-1.213.385-.44.912-.876 1.437-1.228.59-.4 1.18-.702 1.56-.8-.262.405-.93.884-1.56 1.437m-3-1.438V22.14c.472-.283.712-.535 1.447-.535.04 0 .075 0 .115.023.265.107.466.565.596.784v1.078c-.19.323-.28.633-.596.758-.096.034-.212.055-.363.055h-.24c-.563 0-.96-.445-.96-1.08m.72 5.666c-.756.195-1.422.655-2.16 1.03-.632.32-1.32.59-2.163.59h-.237c-1.012 0-1.813-.69-1.733-1.896l.327-2.955.204-.013c0 1.303.42 2.7 1.44 2.7h.96c.502 0 .882-.08 1.202-.204.742-.287 1.174-.782 2.16-.87v1.617zm4.32-9.987c-.715-.068-1.373-.228-2.04-.42-.475-.14-.943-.298-1.438-.446-.9-.282-1.862-.548-3.002-.673-.448-.053-.928-.084-1.442-.084-1.46 0-2.19.503-3.36.813.52-.882 1.606-2.164 2.887-2.164h1.194c.223 0 .472.02.72.05.908.11 1.977.41 3.002.79.5.197.988.41 1.437.637.96.484 1.73 1.018 2.04 1.495M137.568 30.51l-4.035 1.494s-1.448-4.465-.456-5.668c1.108-1.354 2.497-1.476 4.013-1.764-.166.395.395 4.812.478 5.938m9.84-12.69c-.103.07-.99.33-2.16.646-1.546.425-3.58.964-4.945 1.346-.618.175-1.1.32-1.33.408-1.593.595-3.925 1.774-5.75 2.564-.743.318-1.4.577-1.89.706.376-.585 1.037-1.16 1.89-1.71 1.775-1.144 4.386-2.164 7.08-2.883 1.68-.45 3.386-.778 4.944-.946.766-.085 1.49-.13 2.162-.13"/><path d="M150.88 13.78c.047.088.09.17.13.26 6.88 0 8.8 1.43 13.2 4.053l19.926-5.134 9.097-2.532-26.47 13.377c2.69.293 8.003 3.585 8.49 5.625l-6.95-.94c-2.36-.18-3.774 2.765-5.432 4.028-1.86 1.405-3.41 2.49-5.38 3.666 1.56 2.617 4.07 5.637 4.8 9.18-1.315-1.09-1.73-2.118-3.786-3.565-1.043-.736-3.57-2.072-5.094-2.107-.215 1.043-1.305 2.86-2.53 4.46v-1.175c.82-1.184 1.47-2.455 1.574-3.827-1.294.032-1.22.776-1.573 1.8v-3.11c.09-.086.21-.19.368-.31 2.35.62 7.682-2.615 9.456-3.94 2.902-2.167 4.36-5.51 8.547-5.51l.978-.092 3.823.635c-2.414-2.364-8.497-2.587-12.96-2.702 1.704-2.858 9.138-6.03 12.483-7.557 1.77-.81 13.698-5.487 14.142-6l-3.102.87-20.645 5.65c-4.097-2.416-7.022-3.68-13.087-3.754v-1.35zm0 29.198c-1.09 1.592-2.48 3.015-3.234 4.276.76-.233 2.057-1.564 3.235-3.1v-1.176zM129.65 77.22h.48c1.12 0 2.396-1.042 2.396-2.43v-.537c0-1.985-7.918-5.414-7.918-12.154v-2.7c0-5.256 7.657-11.37 11.12-13.414 2.635-1.555 5.06-2.733 7.756-4.23 1.27-.703 2.697-1.35 4.017-1.957.8-.365 1.375-.592 2.075-.91 1.21-.55.823-.577 1.306-1.05v3.11c-.073.216-.164.455-.3.688-.646 1.18-.882 1.655-1.66 2.715-.774 1.04-3.08 3.927-4.15 4.248 1.516-2.55 4.47-4.717 5.284-8.64-6.855 4.08-24.724 9.215-24.724 19.71v2.7c0 2.644 2.153 6.205 3.598 7.293 0-9.094 6.162-16.822 10.183-17.464-5.482 8.164-5.625 11.27-5.625 18 0 .17 1.215 1.396 1.403 2.47.138.77.04 2.835.04 3.74-.155 2.118-1.443 3.606-1.443 4.05V81c0 3.016 1.55 7.98 2.48 10.176.708 1.654 3.85 7.825 4.003 8.453-3.014-1.795-5.11-4.33-7.104-7.4-1.12-1.716-3.887-8.132-3.936-10.69l-.834-4.296c-2.312-.753-8.19-7.536-9.897-9.816-14.784-23.185 4.878-47.09 16.776-54.194 0 0 .732-10.084-2.206-13.234 7.23 0 15.317 8.095 18.115 13.78v1.35c-.19-.01-.392-.01-.592-.01h-1.442c-.808-3.922-8.64-11.21-12.243-12.152.37.562 5.083 3.955 6.425 5.47 1.355 1.53 4.407 4.776 4.863 6.95h-1.443c-.593-2.492-6.532-8.297-8.88-8.91.48.736 3.515 3 4.503 4.116 1.496 1.696 2.632 2.882 3.66 5.065-1.298-.032-3.435-3.395-4.5-4.394-1.278-1.198-3.33-2.976-5.103-3.438 1.084 1.673 7.075 4.83 7.92 8.37-1.385-.128-4.86-4.592-7.68-4.863 1.335 1.3 5.475 3.19 6.003 5.408l-1.914.313c-.025-.045-2.732-2.935-4.09-3.29l3.71 3.64c-1.17.243-1.16.684-1.788.684-.094 0-2.19-2.33-3.6-2.7l3.218 2.818c-21.772 5.703-34.926 41.806-8.26 59.01" fill-rule="evenodd"/><path d="M133.373 35.19c1.734 0 4.58.4 6.002.807.843.24 4.953 2.16 5.034 2.16 1.542 0 3.713-1.406 4.325-2.476l-9.795-1.644s5.42-.332 10.508.882c.36 0 .36-.333.486-.536-6.78-2.71-14.5-1.015-16.56.808M143.33 22.703c-.78 1.792-.402 5.18-.01 6.3l4.09-.115s-1.15-4.445.946-6.847l-5.026.663zM138.06 24.07c-.903.73-.01 6.186-.01 6.186l4.797-1.094c-.515-1.324-.812-5.254-.267-6.328l-4.52 1.237z" fill-rule="evenodd"/><path d="M151.49 33.212c-1.998-1.2-4.583-8.77-.718-11.877-4.6 0-2.957 12.036.717 11.877M123.41 64.8c0 3.208 2.203 6.113 4.323 6.75-.05-.19-1.954-3.76-2.404-4.857-.597-1.465-1.203-4.07-1.203-6.21l-.238-.047-.6 4.07.12.295zM151.677 28.614c-.08 1.206.72 1.896 1.734 1.896h.236c1.824 0 2.92-1.25 4.324-1.62v-1.617c-1.413.127-1.682 1.075-3.36 1.075h-.964c-1.02 0-1.437-1.4-1.437-2.7l-.205.01-.328 2.956zM131.333 23.49c1.69-.442 5.398-2.43 7.64-3.27 1.12-.42 8.14-2.187 8.436-2.398-5.3 0-14.177 2.75-16.077 5.67M151.008 18.093c1.17-.31 1.9-.813 3.36-.813 3.53 0 5.415 1.388 7.923 1.623-.83-1.272-4.954-2.973-7.2-2.973h-1.194c-1.282 0-2.367 1.28-2.888 2.163M129.885 47.79c.48-.144 3.83-2.954 4.562-3.508 1.38-1.046 3.632-1.825 4.802-2.97-2.382.22-8.276 4.652-9.365 6.48M153.41 34.563c.352.544.552.806 1.438.806h.24c1.54 0 3.948-1.59 4.805-2.43-1.834.17-2.947 1.623-6.482 1.623M151.49 33.48c.355.546.556.813 1.44.813h.48c1.334 0 4.26-1.598 4.8-2.43-2.858.75-2.383 1.618-6.72 1.618M158.21 26.464v.808c0 .72.344.8.718 1.076v-1.616c0-1.49 2.325-2.66 2.88-3.51-1.034.27-3.6 2.015-3.6 3.242M159.408 23.49l-.762-.014.282-.793-.772.01.293 1.34c-.413-.122-.96-.31-.96-.807 0-.636.398-1.083.96-1.083.68 0 .443.118.76.59l.198-.318c-.142-.248-.39-.808-.71-.808-.736 0-.976.253-1.45.536V23.226c0 .635.4 1.08.96 1.08h.24c.64 0 .71-.39.96-.813" fill-rule="evenodd"/><path d="M159.408 23.49v-1.078l-.2.318c-.315-.472-.08-.59-.76-.59-.56 0-.96.447-.96 1.083 0 .498.55.685.96.807l-.292-1.34.772-.01-.282.793.762.015zM159.408 28.348v.275h1.203l.48-2.16h-.242c0 1.107-.425 1.885-1.44 1.885" fill-rule="evenodd"/><path d="M48.36 82.66l-.374.873c1.81-.394 3.42-1.11 4.836-2.147 1.26-.932 1.892-1.72 1.892-2.365 0-.503-.466-.752-1.39-.752-.68 0-1.326.084-1.942.26-.6.168-1.01.4-1.248.68-.476.603-1.065 1.753-1.775 3.45m8.217-5.076c0 .77-.3 1.6-.916 2.48-.63.912-1.483 1.73-2.554 2.455-1.068.71-2.294 1.294-3.68 1.75-1.403.487-2.553.735-3.445.735-.57 0-.856-.248-.856-.736 0-.455.458-1.59 1.373-3.4.725-1.48 1.322-2.514 1.79-3.094.475-.57 1.11-.994 1.92-1.278 1.16-.44 2.366-.663 3.61-.663 1.844 0 2.76.587 2.76 1.752m-14.33 20.644c.94.266 1.79.4 2.547.4 1.21 0 2.438-.167 3.663-.497 1.257-.344 2.36-.806 3.31-1.372 1-.61 1.77-1.255 2.29-1.934.53-.69.8-1.418.8-2.17 0-.837-.335-1.427-1.014-1.775-.694-.366-1.8-.543-3.31-.543-1.464 0-3.082.226-4.864.684-.474.128-.833.36-1.09.708-.253.38-.603 1.136-1.06 2.27-.458 1.23-.883 2.635-1.274 4.228M55.99 92.44c0 1.938-1.157 3.63-3.47 5.077-1.12.66-2.354 1.172-3.71 1.534-1.367.393-2.684.59-3.947.59-3.29 0-4.936-.658-4.936-1.986 0-.608.415-2 1.23-4.172.615-1.614 1.102-2.736 1.465-3.384.362-.614.755-1 1.18-1.155.554-.22 1.464-.44 2.74-.662 1.162-.2 2.195-.306 3.094-.306 1.326 0 2.456.174 3.402.517.94.35 1.676.872 2.194 1.562.507.694.757 1.49.757 2.387M40.14 78.692l1.75-.522c.282-.075.497-.116.638-.116.238 0 .353.094.353.283 0 .092-.07.285-.21.567l-1.913 3.66c-.774 1.5-1.61 3.293-2.505 5.387-.91 2.096-1.675 3.952-2.29 5.576-.913 2.502-1.373 4.323-1.373 5.456 0 1.242.74 2.224 2.22 2.954 1.467.755 3.364 1.13 5.694 1.13 1.168 0 2.405-.124 3.73-.375 1.4-.27 2.717-.632 3.947-1.088 1.212-.425 2.48-1 3.8-1.724 2.114-1.167 3.813-2.605 5.104-4.324 1.305-1.71 1.96-3.347 1.96-4.887 0-.864-.243-1.685-.733-2.458-.5-.776-1.187-1.423-2.05-1.958-.882-.553-1.893-.93-3.028-1.14l-1.11-.21c-.25-.045-.375-.168-.375-.355 0-.138.14-.264.42-.375 1.08-.41 2.095-.936 3.056-1.583 2.986-1.904 4.484-3.866 4.484-5.882 0-1.135-.61-2.07-1.814-2.815-1.22-.735-2.717-1.107-4.515-1.107-1.686 0-3.752.282-6.19.85-2.47.605-5.065 1.403-7.77 2.408-1.135.41-1.9.765-2.295 1.062-.407.318-.61.682-.61 1.09 0 .473.195.708.59.708.268 0 .614-.072 1.036-.21m18.28 6.445c3.087 1.953 4.634 4.344 4.634 7.18 0 1.636-.576 3.244-1.726 4.818-1.165 1.624-2.712 3.06-4.654 4.324-1.966 1.29-4.178 2.295-6.636 3.022-2.486.74-4.944 1.11-7.367 1.11-3.072 0-5.587-1-7.536-2.998-.535-.572-.937-1.153-1.205-1.754-.254-.56-.378-1.225-.378-1.98 0-.96.277-2.285.827-3.97.803-2.485 1.89-5.21 3.262-8.168l2.48-5.412-1.445-1.13c-.74-.6-1.11-1.193-1.11-1.775 0-.66.274-1.245.826-1.748.52-.473 1.44-.962 2.764-1.466 1.72-.64 3.104-1.132 4.16-1.462 1.01-.318 2.082-.608 3.232-.874 2.866-.68 5.32-1.015 7.368-1.015 1.373 0 2.7.308 3.994.92 1.275.61 2.312 1.418 3.12 2.41.784 1.004 1.18 2.03 1.18 3.073 0 2.387-1.93 4.687-5.79 6.893M75.03 76.994l-.595 1.203-3.066 6.376c-.367.74-.728 1.566-1.09 2.48-.034.078-.066.165-.107.26-.036.094-.07.185-.106.27-.03.09-.07.18-.118.27-.036.08-.087.205-.166.365-.08.17-.145.322-.214.465-.69 1.606-1.13 2.63-1.31 3.057-.18.433-.325.763-.436.983-.932 2.126-1.457 3.346-1.584 3.656-.25.617-.557 1.45-.918 2.507-.317.91-.474 1.562-.474 1.956 0 .397.11.754.327 1.066.205.3.457.45.763.45.535 0 1.514-.528 2.947-1.586.41-.284.68-.53.805-.752.11-.165.21-.515.307-1.064.096-.538.383-1.42.873-2.646l.688-1.795.734-1.68.633-1.535 2.977-6.73c.236-.55.705-1.517 1.393-2.904.11-.206.332-.638.662-1.3.328-.66.535-1.08.615-1.25.676-1.37 1.25-2.46 1.722-3.26.315-.506.475-.88.475-1.136 0-.482-.306-.733-.922-.733-.46 0-.993.105-1.61.308l-1.06.307c-.564.157-.95.324-1.133.498-.207.19-.446.58-.71 1.18-.018.046-.056.134-.122.265l-.094.255c0 .03 0 .055-.022.072-.015.014-.04.05-.068.12m2.36 10.18l-1.75 4.082-.99 2.288c-.065.207-.166.47-.308.78-.156.38-.302.71-.425.995-.158.372-.278.67-.356.874-.105.297-.225.58-.35.852-.443 1.18-.695 1.935-.758 2.263l-.236 1.136c-.095.47-.3.89-.617 1.253-.285.346-.76.73-1.44 1.154-1.76 1.088-2.92 1.63-3.47 1.63-.565 0-1.204-.48-1.913-1.443-.313-.453-.53-.81-.637-1.058-.115-.242-.17-.555-.17-.945 0-.488.096-1.076.285-1.752.126-.538.466-1.493 1.016-2.88.616-1.543 1.166-2.86 1.66-3.943l1.91-4.32c.202-.427.385-.838.544-1.23.06-.143.118-.276.173-.402.06-.128.115-.255.184-.39.06-.134.112-.264.16-.39.27-.598.436-.953.497-1.065.095-.22.174-.394.24-.518l2.947-6.283c.08-.205.273-.643.572-1.317l.374-.925c.22-.52.48-.907.755-1.158.27-.222.727-.45 1.375-.683 1.38-.508 2.524-.756 3.42-.756.695 0 1.332.36 1.92 1.086.575.722.87 1.372.87 1.934 0 .332-.33 1.033-.993 2.103-.55.87-1.268 2.188-2.148 3.97-.885 1.81-1.66 3.495-2.34 5.057M87.144 89.416l.875-1.8 1.2-2.336c.4-.74.598-1.283.598-1.633 0-.357-.098-.616-.287-.774-.2-.175-.462-.257-.777-.257-.697 0-1.583.216-2.67.656-.487.16-.82.325-.99.496-.177.158-.303.42-.383.778-.122.696-.312 1.302-.565 1.822l-.4.757-1.965 3.896c-.217.426-.61 1.338-1.18 2.742-.31.786-.544 1.396-.682 1.816-.174.457-.3.907-.374 1.348-.082.44-.12.867-.12 1.272 0 1.34.39 2.405 1.177 3.19.79.788 1.845 1.183 3.168 1.183.942 0 2.103-.304 3.468-.917 1.358-.59 2.484-1.303 3.378-2.153.174-.142.31-.215.406-.215.145 0 .21.102.21.312 0 .156-.01.26-.02.325v.334c0 .627.142 1.18.422 1.654.254.485.57.73.944.73.428 0 1.126-.28 2.105-.824 1.04-.618 1.562-1.135 1.562-1.56 0-.092-.023-.244-.074-.446-.066-.254-.093-.608-.093-1.065 0-1.103.375-2.42 1.135-3.943l.42-.876 4.23-8.858.282-.522c.24-.5.356-.9.356-1.176 0-.525-.27-.78-.806-.78-.622 0-1.522.22-2.69.66-.474.19-.842.37-1.11.545-.19.126-.346.336-.47.637-.474 1.368-1.372 3.376-2.696 6.02-.884 1.748-1.71 3.174-2.48 4.276-.753 1.088-1.52 1.944-2.295 2.577-.675.502-1.342.88-2.003 1.13-.71.268-1.314.403-1.82.403-.55 0-1.012-.188-1.39-.565-.375-.38-.57-.846-.57-1.396 0-.502.195-1.212.57-2.12.124-.35.37-.926.734-1.73.392-.896.658-1.486.796-1.77l.877-1.84zm3.69 12.85c-1.91 1.667-3.93 2.502-6.078 2.502-1.158 0-2.232-.283-3.206-.85-.977-.566-1.736-1.362-2.27-2.363-.55-1.005-.827-2.104-.827-3.282 0-1.12.23-2.292.686-3.517.078-.195.14-.35.186-.476.05-.13.133-.337.252-.64.11-.298.245-.595.388-.895.06-.145.134-.294.21-.464.076-.163.137-.293.167-.385.08-.16.133-.277.167-.354.033-.075.054-.142.07-.188l2.314-4.725c.062-.13.128-.245.19-.354.046-.08.082-.158.118-.235.268-.52.436-.93.52-1.228l.215-.71c.138-.46.348-.82.63-1.085.275-.254.728-.475 1.377-.662 1.318-.442 2.354-.662 3.09-.662.678 0 1.348.417 2.006 1.25.535.68.805 1.293.805 1.843 0 .425-.245 1.122-.73 2.08l-3.05 6.07c-.094.207-.196.44-.303.685l-.285.64c-.075.173-.277.613-.592 1.32-.266.63-.402 1.09-.402 1.373 0 .393.207.59.615.59.457 0 1.045-.235 1.745-.71.68-.424 1.3-.983 1.87-1.672 1.21-1.437 2.55-3.693 4.014-6.782l.636-1.323c.416-.853.83-1.835 1.254-2.952.173-.46.36-.765.566-.92.22-.175.704-.408 1.444-.714 1.32-.53 2.397-.798 3.235-.798.548 0 1.16.448 1.842 1.347.49.676.733 1.257.733 1.747 0 .55-.162 1.125-.474 1.724l-.354.687-2.413 4.793c-.188.426-.377.836-.567 1.23-.186.39-.35.73-.492 1.015-.474 1.102-.775 1.778-.9 2.03l-.498 1.3c-.326.817-.492 1.432-.492 1.842 0 .3.03.57.095.804l.12.425c.043.108.066.227.066.352 0 .57-.576 1.23-1.727 1.983-1.43.96-2.625 1.442-3.588 1.442-.85 0-1.642-.705-2.38-2.12M112.8 90.83c1.478-.09 2.747-.558 3.796-1.393.487-.39.89-.81 1.212-1.252.297-.392.442-.74.442-1.035 0-.38-.18-.57-.545-.57-.656 0-1.45.402-2.38 1.205-.96.833-1.805 1.85-2.525 3.045m6.517-4.275c0 .662-.238 1.345-.713 2.055-.468.693-1.12 1.332-1.96 1.913-1.397.93-3.194 1.392-5.384 1.392-.823 0-1.227-.164-1.227-.494 0-.31.248-.863.756-1.655.423-.675.975-1.37 1.652-2.098 1.716-1.86 3.344-2.787 4.887-2.787.616 0 1.092.15 1.442.452.357.31.545.72.545 1.223m4.462-1.347c0-.912-.36-1.636-1.09-2.167-.74-.554-1.683-.83-2.83-.83-1.812 0-3.64.462-5.48 1.37-1.89.915-3.59 2.146-5.105 3.687-1.497 1.51-2.705 3.21-3.636 5.1-.91 1.845-1.367 3.67-1.367 5.483 0 1.002.244 1.898.73 2.663.487.774 1.196 1.372 2.12 1.8.905.44 1.932.655 3.097.655 1.34 0 2.82-.258 4.438-.776 1.596-.52 2.992-1.18 4.21-1.982.487-.318 1.076-.793 1.77-1.443.58-.57 1.086-1.135 1.512-1.7.373-.55.565-.96.565-1.227 0-.147-.05-.27-.164-.378-.108-.094-.258-.142-.45-.142-.28 0-.665.222-1.155.662-1.04.913-2.015 1.645-2.927 2.194-.948.586-1.89 1.006-2.838 1.275-.99.27-1.93.403-2.834.403-1.098 0-1.98-.307-2.62-.92-.66-.612-.993-1.426-.993-2.43 0-1.573.41-2.365 1.23-2.365l1.414.023c.98 0 2.154-.205 3.52-.615 1.295-.372 2.534-.91 3.732-1.6.992-.585 1.875-1.26 2.647-2.035.798-.8 1.413-1.6 1.84-2.384.438-.818.662-1.59.662-2.317m-12.66 10.985c-.203.626-.307 1.125-.307 1.486 0 .85.597 1.278 1.797 1.278 2.075 0 4.202-.828 6.372-2.478l1.54-1.206c.59-.456 1.182-.69 1.745-.69.567 0 1.033.234 1.394.69.362.486.544 1.077.544 1.772 0 .707-.354 1.51-1.064 2.405-.723.91-1.715 1.815-2.97 2.69-1.376.95-2.912 1.71-4.61 2.273-1.702.568-3.293.848-4.77.848-2.16 0-3.955-.686-5.387-2.074-1.445-1.368-2.17-3.095-2.17-5.172 0-1.966.48-3.944 1.437-5.93.978-2.016 2.267-3.828 3.873-5.43 1.62-1.623 3.435-2.914 5.435-3.875 1.984-.96 3.95-1.442 5.91-1.442 1.616 0 2.955.487 4.01 1.465 1.037.992 1.56 2.24 1.56 3.752 0 .9-.253 1.81-.758 2.743-.54.942-1.28 1.826-2.242 2.648-.994.848-2.197 1.648-3.615 2.405-1.31.698-2.526 1.166-3.663 1.42-1.15.283-2.502.425-4.06.425M172.225 101.91l3.68-2.1.075-.593c.25-2.095.41-3.33.47-3.71.253-1.334.434-2.284.545-2.836l2.266-10.483c.383-1.733.755-3.388 1.134-4.96.27-1.256.405-1.988.405-2.193 0-.46-.2-.816-.594-1.066-.405-.265-.918-.405-1.536-.405-1.132 0-2.54.38-4.226 1.136-.68 1.117-1.43 2.262-2.265 3.424l-2.245 3.094-2.86 3.99-2.624 3.593c-1.13 1.543-1.964 2.628-2.506 3.26-.293.347-.483.562-.566.638-.344.423-.61.64-.794.64-.21 0-.31-.39-.31-1.16V91.16c0-.52.02-1.328.07-2.432 0-.155.014-.692.045-1.604l.165-4.7.123-2.625c.06-1.178.09-1.858.09-2.028l.07-1.324c.015-.14.025-.422.025-.85 0-.615-.142-1.087-.423-1.417-.282-.33-.697-.496-1.23-.496-.425 0-1.204.16-2.337.472-1.135.335-2.202.715-3.193 1.136-.535 1.717-1.03 3.016-1.487 3.896l-1.18 2.313-6.425 13.324-.73 1.417-.783 1.653c-.504 1.058-1.094 2.068-1.766 3.048l-.594.777c-.172.272-.257.492-.257.664 0 .284.154.426.47.426.5 0 1.524-.445 3.066-1.322.835-.47 1.447-.873 1.843-1.203.36-.302.7-.697 1.014-1.206.282-.505.735-1.4 1.35-2.695l3.73-8.1c.66-1.45 1.624-3.308 2.882-5.572.155-.3.317-.544.475-.735.123-.124.248-.19.375-.19.22 0 .33.168.33.5v.184l-.093 1.42-.142 2.127c-.05.755-.07 1.212-.07 1.367l-.337 9.31c-.01.224-.02.583-.02 1.086 0 1.436.11 2.417.332 2.952.203.536.626.803 1.255.803.876 0 1.786-.392 2.715-1.18.49-.443 1.15-1.168 1.982-2.173.256-.3.688-.868 1.3-1.698.158-.208.626-.826 1.398-1.87l1.84-2.503 6.99-9.61c.378-.538.667-.805.872-.805.22 0 .33.127.33.376 0 .144-.087.65-.257 1.513l-2.437 10.534c-.28 1.23-.48 2.197-.588 2.908l-.447 2.687c-.092.537-.14 1.018-.14 1.443 0 .708.272 1.06.824 1.06.27 0 .58-.096.923-.304m6.14-1.94l-.14 1.253-4.894 2.79c-.642.36-1.16.54-1.557.54-.235 0-.486-.117-.757-.35-.298-.27-.613-.672-.943-1.205-.427-.707-.636-1.342-.636-1.895 0-.88.19-2.24.566-4.08l1.704-8.197-4.14 5.832c-1.446 2.078-2.47 3.494-3.067 4.25-1.5 1.954-2.757 3.268-3.78 3.946-.962.628-1.868.943-2.714.943-.806 0-1.608-.47-2.41-1.416-.523-.612-.855-1.116-.994-1.513-.16-.376-.235-.955-.235-1.72v-.4l.235-9.9-3.636 7.7-.804 1.82c-.57 1.275-1.11 2.216-1.63 2.832-.52.63-1.292 1.247-2.316 1.842-2.188 1.245-3.69 1.865-4.51 1.865-.5 0-1.023-.364-1.558-1.08-.412-.588-.612-1.075-.612-1.47 0-.374.15-.786.444-1.23l.708-1.036c.215-.3.775-1.328 1.653-3.093l.69-1.394 7.678-15.754.78-1.557c.423-.98.84-2.186 1.248-3.616 1.117-.46 2.25-.855 3.406-1.206 1.46-.458 2.506-.684 3.135-.684.996 0 1.936.576 2.835 1.725.884 1.153 1.32 2.15 1.32 3.002 0 .425-.045 1.03-.14 1.817 0-.19-.01.173-.045 1.087-.062.865-.095 1.316-.095 1.345l-.163 3.095c-.063 1.526-.114 2.985-.148 4.37.838-1.043 1.934-2.513 3.287-4.416.692-.95 1.612-2.22 2.762-3.83l1.373-1.886c.582-.8.88-1.22.895-1.253l1.795-2.62c.095-.124.212-.29.35-.498.068-.095.25-.355.546-.78 1.89-.835 3.592-1.25 5.104-1.25.66 0 1.3.19 1.916.57.61.407 1.12.92 1.51 1.53.38.634.567 1.27.567 1.916 0 .454-.238 1.694-.705 3.71l-.498 2.05-.595 2.504-1.508 7.042c-.22 1.05-.463 2.375-.732 3.968-.225 1.355-.4 2.682-.545 3.99M197.235 94.773c0-.47-.447-.704-1.345-.704-1.004 0-2.008.217-3 .66-1.042.455-1.888 1.014-2.553 1.677-.676.678-1.012 1.327-1.012 1.96 0 .52.366.778 1.108.778.68 0 1.497-.187 2.458-.568.917-.33 1.76-.792 2.528-1.394.598-.486 1.043-.925 1.322-1.32.33-.426.495-.785.495-1.09m1.255-.395c0 .815-.43 1.69-1.275 2.62-.85.926-1.927 1.68-3.213 2.262-1.286.618-2.54.925-3.732.925-.822 0-1.48-.215-1.983-.64-.522-.407-.78-.95-.78-1.627 0-.945.386-1.85 1.156-2.718.803-.913 1.8-1.63 2.998-2.148 1.246-.55 2.526-.828 3.833-.828.924 0 1.662.195 2.195.59.533.394.802.91.802 1.564m-2.65 5.97c-.08.44-.117.767-.117.972 0 .453.128.855.387 1.207.228.345.507.515.82.515.333 0 .878-.247 1.652-.752 1.023-.652 1.534-1.152 1.534-1.516l.03-.684c0-.425.136-.93.424-1.513l3.094-6.445c.502-1.023.943-2.112 1.322-3.26.39-1.042.59-1.947.59-2.717 0-.616-.15-1.187-.45-1.723-.312-.55-.726-.984-1.23-1.3-.975-.647-2.425-.968-4.344-.968-1.702 0-3.306.196-4.815.59-1.528.396-2.817.966-3.855 1.724-1.07.787-1.603 1.465-1.603 2.032 0 .41.22.614.657.614.254 0 .577-.104.968-.307 2.52-1.26 4.79-1.888 6.806-1.888 1.164 0 2.045.203 2.645.61.6.41.896 1.023.896 1.84 0 .7-.206 1.28-.636 1.753-.437.487-.984.73-1.63.73l-1.844-.07c-.96 0-2.003.1-3.138.305-1.26.222-2.285.47-3.068.756-2.222.774-4.075 1.96-5.554 3.57-1.498 1.635-2.24 3.28-2.24 4.934 0 1.132.437 2.026 1.32 2.666.885.666 2.05.996 3.495.996 2.635 0 5.26-.894 7.886-2.67m-.068 3.33l-.354-.4c-2.285 1.308-4.616 1.96-6.992 1.96-1.806 0-3.315-.547-4.51-1.65-1.21-1.095-1.823-2.47-1.823-4.14 0-1.982.833-3.88 2.483-5.69 1.64-1.795 3.747-3.11 6.33-3.942 2.02-.678 3.967-1.018 5.862-1.018l2.07.072c.384 0 .67-.084.88-.236.207-.16.303-.37.303-.64 0-.678-.77-1.015-2.31-1.015-1.037 0-2.058.136-3.044.4-.935.256-1.988.685-3.17 1.3-.378.176-.665.262-.875.262-.47 0-.96-.28-1.457-.83-.51-.55-.758-1.07-.758-1.56 0-.876.523-1.727 1.578-2.546 1.087-.835 2.482-1.51 4.185-2.034 1.745-.5 3.558-.755 5.43-.755 2.557 0 4.55.63 6 1.89.643.57 1.14 1.204 1.488 1.914.344.693.52 1.41.52 2.152 0 1.13-.535 2.88-1.606 5.244l-2.83 6.282c-.337.72-.5 1.353-.5 1.884v.335c.03.66.05.904.05.735 0 .223-.12.464-.36.728-.27.297-.7.686-1.316 1.157-1.248.994-2.298 1.49-3.148 1.49-.377 0-.705-.093-.986-.284-.303-.19-.68-.542-1.138-1.062M215.755 84.195l-.52 1.115-4.626 9.87c-.634 1.385-1.122 2.532-1.47 3.445-.475 1.196-.704 2.112-.704 2.74 0 .805.334 1.206 1.013 1.206.5 0 1.328-.36 2.475-1.085.585-.38.97-.67 1.16-.875.173-.22.293-.474.358-.756l.205-.853c.163-.565.675-1.915 1.538-4.056.757-1.797 1.56-3.404 2.41-4.823.87-1.43 1.62-2.43 2.263-2.995 1.328-1.183 2.634-1.773 3.925-1.773.618 0 1.14.142 1.58.425l.263.187c.22.127.398.19.54.19.473 0 1.22-.385 2.248-1.152.88-.663 1.322-1.233 1.322-1.705 0-.25-.128-.482-.38-.682-.248-.223-.58-.388-.993-.5-.454-.126-.89-.19-1.32-.19-1.654 0-3.646.82-5.975 2.46l-.64.447c-.16.098-.275.14-.35.14-.16 0-.242-.083-.242-.256 0-.096.082-.27.24-.52l.142-.26c.348-.582.518-1.047.518-1.396 0-.486-.257-.733-.78-.733-.597 0-1.578.357-2.927 1.065-.362.174-.61.332-.755.473-.14.14-.315.424-.52.85m6.284-1.936l.19.28c1.84-.994 3.413-1.488 4.716-1.488 1.233 0 2.232.314 3.003.947.785.646 1.18 1.462 1.18 2.454 0 .755-.69 1.615-2.076 2.577-1.06.755-1.954 1.132-2.696 1.132-.268 0-.598-.1-.992-.308-.343-.203-.715-.305-1.105-.305-1.476 0-2.897 1.08-4.257 3.234-.815 1.29-1.784 3.273-2.903 5.952-.71 1.684-1.14 2.93-1.296 3.73-.144.633-.333 1.11-.57 1.443-.235.33-.688.707-1.344 1.132-.68.44-1.465.864-2.364 1.277-.712.314-1.206.47-1.488.47-.208 0-.402-.07-.59-.21-.19-.095-.553-.44-1.085-1.043-.628-.722-.945-1.457-.945-2.195 0-.58.202-1.43.612-2.528.49-1.29 1.01-2.55 1.56-3.78l4.91-10.438c.41-.864.718-1.424.923-1.68.237-.295.552-.54.947-.73 1.636-.926 2.89-1.392 3.755-1.392.394 0 .718.09.97.283.268.22.58.614.944 1.182M238.17 76.994l-.592 1.203-3.07 6.376c-.362.74-.723 1.566-1.087 2.48-.03.078-.065.165-.104.26-.04.094-.072.185-.108.27-.03.09-.07.18-.117.27-.03.08-.084.205-.16.365-.08.17-.155.322-.217.465-.693 1.606-1.128 2.63-1.308 3.057-.184.433-.333.763-.438.983-.93 2.126-1.457 3.346-1.586 3.656-.248.617-.557 1.45-.918 2.507-.317.91-.475 1.562-.475 1.956 0 .397.11.754.33 1.066.21.3.46.45.76.45.533 0 1.52-.528 2.955-1.586.41-.284.674-.53.796-.752.112-.165.22-.515.31-1.064.095-.538.385-1.42.874-2.646l.68-1.795.74-1.68.635-1.535 2.974-6.73c.243-.55.705-1.517 1.397-2.904.113-.206.328-.638.66-1.3.334-.66.535-1.08.618-1.25.676-1.37 1.252-2.46 1.72-3.26.316-.506.475-.88.475-1.136 0-.482-.308-.733-.922-.733-.456 0-.988.105-1.603.308l-1.064.307c-.568.157-.947.324-1.134.498-.21.19-.445.58-.71 1.18-.01.046-.05.134-.116.265-.034.072-.062.16-.095.255 0 .03-.01.055-.03.072-.01.014-.03.05-.065.12m2.36 10.18l-1.748 4.082-.994 2.288c-.06.207-.16.47-.307.78-.153.38-.29.71-.42.995-.16.372-.274.67-.355.874-.115.297-.228.58-.354.852-.444 1.18-.688 1.935-.756 2.263l-.237 1.136c-.093.47-.3.89-.612 1.253-.284.346-.765.73-1.44 1.154-1.762 1.088-2.922 1.63-3.475 1.63-.564 0-1.202-.48-1.914-1.443-.315-.453-.528-.81-.633-1.058-.11-.242-.166-.555-.166-.945 0-.488.095-1.076.286-1.752.12-.538.46-1.493 1.013-2.88.612-1.543 1.165-2.86 1.655-3.943l1.908-4.32c.208-.427.385-.838.547-1.23.06-.143.12-.276.176-.402.057-.128.113-.255.175-.39.065-.134.118-.264.172-.39.26-.598.428-.953.494-1.065.093-.22.175-.394.237-.518l2.955-6.283c.077-.205.264-.643.564-1.317l.38-.925c.22-.52.468-.907.755-1.158.265-.222.726-.45 1.368-.683 1.39-.508 2.527-.756 3.428-.756.69 0 1.33.36 1.91 1.086.585.722.87 1.372.87 1.934 0 .332-.324 1.033-.987 2.103-.554.87-1.27 2.188-2.15 3.97-.88 1.81-1.66 3.495-2.34 5.057M257.066 72.67c0-.237-.076-.43-.236-.57-.172-.126-.41-.186-.71-.186-.504 0-1.252.243-2.245.73-.483.22-.882.48-1.177.78-.317.3-.65.72-.993 1.253-.784 1.243-1.182 2.188-1.182 2.835 0 .483.224.733.683.733.52 0 1.35-.277 2.484-.83 1.035-.5 1.806-1.132 2.292-1.888.23-.35.476-.858.73-1.538.24-.645.354-1.086.354-1.32m1.96 1.418c0 .486-.2 1.175-.613 2.08-.425.89-.86 1.565-1.3 2.002-.48.47-1.246.948-2.337 1.418-1.104.474-1.978.71-2.62.71-.38 0-.68-.082-.903-.236-.232-.127-.573-.448-1.013-.968-.505-.584-.754-1.077-.754-1.49 0-.55.265-1.355.8-2.41.522-1.022 1.065-1.81 1.634-2.36.535-.504 1.383-.985 2.548-1.44.867-.315 1.492-.472 1.865-.472.52 0 1.058.297 1.604.897.723.77 1.09 1.525 1.09 2.268m-11.64 12.492l-2.795 5.644c-1.347 2.79-2.352 5.1-3.002 6.946-.31.91-.467 1.673-.467 2.293 0 .784.333 1.176.987 1.176.555 0 1.545-.498 2.98-1.487.67-.486 1.067-.968 1.15-1.444l.125-.45c.14-.642.427-1.498.847-2.57 1.106-2.71 2.415-5.53 3.93-8.46l1.77-3.42c.468-.883.706-1.496.706-1.847 0-.64-.3-.964-.898-.964-.352 0-1.22.233-2.62.708-.444.137-.767.31-.97.52-.22.22-.468.63-.734 1.226-.373.855-.718 1.56-1.01 2.126m7.556-.616l-2.764 5.645c-.62 1.357-.927 2.048-.942 2.08l-.97 2.223c-.774 1.76-1.274 3.1-1.49 4.01-.27 1.015-.483 1.642-.64 1.894-.158.28-.58.658-1.275 1.127-.703.525-1.495.963-2.36 1.33-.85.36-1.465.538-1.845.538-.458 0-1.027-.493-1.717-1.484-.51-.79-.762-1.43-.762-1.91 0-.654.146-1.413.452-2.294.298-.93.72-2.02 1.274-3.262.996-2.222 1.626-3.597 1.914-4.133l2.835-5.716c.016-.015.183-.42.516-1.204.46-1.025.794-1.67 1.016-1.937.25-.3.654-.578 1.208-.828.568-.267 1.18-.478 1.846-.64.65-.17 1.2-.26 1.626-.26.61 0 1.213.39 1.79 1.16.573.71.856 1.342.856 1.912 0 .36-.192.947-.566 1.747M265.78 86.086l.732-1.324c.427-.8.637-1.377.637-1.722 0-.6-.336-.897-1.017-.897-.376 0-1.176.203-2.407.612-.61.218-1.033.442-1.254.66-.233.232-.463.675-.68 1.32-.036.098-.126.342-.288.736l-.378.73-1.697 3.426-.31.662c-.206.423-.462.97-.777 1.627-1.42 2.902-2.366 5.04-2.84 6.427-.56 1.48-.85 2.5-.85 3.074 0 .325.096.606.29.825.17.22.38.33.63.33.334-.016.93-.265 1.798-.754l1.188-.713c.483-.282.798-.525.938-.732.13-.194.285-.643.476-1.32.282-1.008.75-2.192 1.39-3.567.63-1.323 1.324-2.558 2.08-3.708.9-1.304 1.864-2.463 2.906-3.473 1.02-.974 2.078-1.756 3.164-2.34 1.072-.567 2.046-.85 2.932-.85.643 0 1.16.175 1.555.52.393.35.588.823.588 1.42 0 .726-.374 1.904-1.13 3.544l-1.062 2.267-1.517 3.284c-.234.52-.623 1.555-1.174 3.114-.304.918-.453 1.617-.453 2.105 0 .865.333 1.298.99 1.298.595-.03 1.57-.502 2.905-1.416.395-.267.69-.52.876-.756.157-.207.283-.537.378-1.018.252-1.25.757-2.726 1.534-4.414l1.818-3.99c.963-2.125 1.443-3.8 1.443-5.03 0-1.213-.34-2.157-1.015-2.835-.674-.677-1.61-1.016-2.79-1.016-1.15 0-2.57.373-4.275 1.11-1.665.756-3.22 1.705-4.67 2.835-.273.22-.453.33-.553.33-.107 0-.158-.062-.158-.19l.044-.186zm3.098-2.716c1.353-.71 2.553-1.24 3.613-1.585 1.036-.312 2.037-.473 2.997-.473s1.755.165 2.39.495c.644.346 1.28.936 1.906 1.774 1.014 1.245 1.516 2.545 1.516 3.9 0 .58-.09 1.18-.26 1.792-.173.613-.504 1.48-.993 2.595l-1.653 3.71c-.99 2.143-1.577 3.74-1.748 4.794-.093.667-.237 1.138-.43 1.422-.185.28-.634.684-1.345 1.206-.8.55-1.562 1-2.29 1.34-.8.37-1.36.545-1.676.545-.457 0-1.006-.398-1.65-1.2-.633-.82-.948-1.637-.948-2.46 0-.52.16-1.27.476-2.266.24-.76.7-1.906 1.392-3.45l1.56-3.446.71-1.537c.66-1.445.99-2.346.99-2.692 0-.502-.237-.753-.71-.753-.316 0-.812.16-1.486.47-.63.3-1.304.72-2.01 1.254-.72.535-1.456 1.246-2.194 2.128-.74.847-1.426 1.784-2.053 2.81-.602.947-1.158 2.01-1.676 3.213-.476 1.087-.862 2.21-1.157 3.377-.174.723-.38 1.238-.618 1.534-.253.35-.712.736-1.373 1.16-.67.442-1.406.85-2.195 1.228-.766.362-1.294.542-1.563.542-.543 0-1.174-.488-1.883-1.463-.488-.63-.733-1.28-.733-1.962 0-.88.37-2.268 1.107-4.153.282-.727.884-2.072 1.796-4.04.6-1.324 1.21-2.615 1.823-3.875l1.72-3.52c.012-.015.142-.29.378-.83.027-.044.066-.115.11-.212.036-.092.064-.157.08-.188.076-.19.118-.292.118-.304.252-.678.527-1.176.824-1.488.3-.303.756-.552 1.376-.757 1.51-.55 2.546-.827 3.112-.827.574 0 1.048.167 1.442.498.412.33.807.897 1.208 1.702"/><path d="M102.217 82.592c-.628 0-1.527.223-2.693.662-.47.188-.84.368-1.11.547-.186.122-.342.33-.474.635-.465 1.37-1.366 3.375-2.69 6.024-.885 1.747-1.706 3.17-2.48 4.274-.756 1.085-1.522 1.943-2.29 2.573-.68.505-1.346.882-2.008 1.133-.71.27-1.32.4-1.82.4-.554 0-1.013-.188-1.39-.564-.38-.375-.572-.84-.572-1.394 0-.502.192-1.213.572-2.123.123-.353.366-.926.727-1.73.39-.89.662-1.48.803-1.768l.874-1.846.877-1.794 1.2-2.338c.395-.74.593-1.28.593-1.628 0-.364-.09-.625-.283-.78-.204-.174-.467-.257-.78-.257-.69 0-1.582.22-2.67.656-.49.16-.82.324-.992.495-.175.162-.303.42-.375.782-.125.695-.318 1.297-.57 1.818l-.402.756-1.957 3.9c-.22.424-.62 1.335-1.18 2.74-.316.785-.548 1.393-.69 1.82-.174.454-.298.904-.376 1.34-.077.443-.115.87-.115 1.278 0 1.34.388 2.402 1.18 3.19.785.786 1.842 1.18 3.16 1.18.95 0 2.105-.308 3.476-.92 1.355-.582 2.484-1.302 3.377-2.154.173-.136.308-.208.403-.208.136 0 .21.103.21.305 0 .16-.01.267-.02.33v.332c0 .63.14 1.18.426 1.652.244.485.562.73.936.73.427 0 1.13-.27 2.107-.823 1.04-.614 1.56-1.136 1.56-1.56 0-.096-.025-.243-.07-.45-.065-.25-.095-.603-.095-1.063 0-1.105.378-2.416 1.13-3.945l.424-.87 4.23-8.86.284-.52c.24-.505.355-.896.355-1.178 0-.52-.263-.782-.803-.782M119.128 88.614c-.47.698-1.125 1.33-1.957 1.915-1.404.928-3.198 1.39-5.385 1.39-.82 0-1.228-.165-1.228-.498 0-.31.25-.862.754-1.65.428-.675.975-1.374 1.653-2.103 1.715-1.856 3.35-2.785 4.89-2.785.614 0 1.098.147 1.437.447.368.313.55.723.55 1.228 0 .663-.238 1.348-.712 2.054m4.084-5.574c-.736-.547-1.68-.825-2.83-.825-1.81 0-3.636.46-5.482 1.368-1.89.914-3.59 2.142-5.105 3.686-1.49 1.51-2.704 3.212-3.638 5.1-.91 1.844-1.365 3.67-1.365 5.482 0 1.006.24 1.9.728 2.663.49.774 1.198 1.375 2.126 1.797.9.447 1.93.665 3.1.665 1.334 0 2.82-.26 4.435-.782 1.595-.517 2.998-1.18 4.206-1.982.492-.315 1.077-.796 1.77-1.44.585-.57 1.09-1.136 1.517-1.703.378-.55.568-.956.568-1.23 0-.14-.056-.263-.17-.378-.11-.09-.258-.142-.443-.142-.286 0-.676.224-1.16.667-1.04.912-2.014 1.642-2.93 2.195-.942.586-1.89 1.007-2.83 1.273-.995.267-1.937.402-2.836.402-1.105 0-1.98-.305-2.62-.92-.665-.614-.994-1.424-.994-2.433 0-1.575.41-2.36 1.23-2.36l1.414.02c.98 0 2.148-.2 3.522-.614 1.288-.376 2.536-.91 3.73-1.602.99-.585 1.873-1.26 2.643-2.033.802-.803 1.417-1.598 1.845-2.385.442-.818.662-1.592.662-2.315 0-.913-.36-1.64-1.09-2.175M53.042 97.522c-1.12.66-2.356 1.173-3.71 1.536-1.37.393-2.68.585-3.945.585-3.29 0-4.935-.66-4.935-1.985 0-.612.415-2.003 1.23-4.176.61-1.607 1.103-2.732 1.464-3.38.362-.615.754-1.004 1.18-1.155.552-.22 1.464-.44 2.74-.664 1.164-.202 2.197-.303 3.092-.303 1.325 0 2.46.173 3.403.516.946.35 1.678.87 2.197 1.56.505.694.756 1.492.756 2.386 0 1.935-1.153 3.63-3.47 5.08m-6.026-16.656c.728-1.478 1.325-2.514 1.794-3.09.477-.566 1.116-.993 1.917-1.28 1.165-.436 2.37-.655 3.616-.655 1.844 0 2.762.583 2.762 1.745 0 .767-.305 1.602-.918 2.478-.632.917-1.482 1.734-2.552 2.458-1.072.71-2.304 1.293-3.69 1.75-1.398.487-2.548.733-3.445.733-.57 0-.85-.246-.85-.733 0-.457.456-1.59 1.367-3.404m11.765 5.39c-.882-.556-1.894-.93-3.025-1.138l-1.107-.21c-.253-.046-.378-.168-.378-.355 0-.14.143-.268.424-.38 1.07-.41 2.084-.936 3.046-1.58 2.99-1.905 4.49-3.867 4.49-5.885 0-1.13-.606-2.065-1.82-2.806-1.212-.74-2.72-1.11-4.51-1.11-1.687 0-3.75.283-6.192.85-2.474.6-5.062 1.4-7.772 2.406-1.127.41-1.898.765-2.29 1.06-.407.32-.615.682-.615 1.092 0 .47.198.706.59.706.27 0 .617-.067 1.04-.21l1.75-.52c.285-.08.497-.12.64-.12.233 0 .348.09.348.284 0 .095-.065.285-.21.566l-1.91 3.662c-.777 1.498-1.61 3.292-2.507 5.387-.912 2.093-1.673 3.952-2.286 5.573-.917 2.508-1.37 4.324-1.37 5.454 0 1.243.738 2.23 2.215 2.954 1.465.757 3.365 1.13 5.695 1.13 1.168 0 2.41-.124 3.73-.373 1.405-.266 2.718-.632 3.944-1.088 1.217-.42 2.483-1 3.806-1.72 2.11-1.167 3.805-2.612 5.1-4.328 1.307-1.714 1.964-3.345 1.964-4.885 0-.87-.244-1.687-.738-2.457-.5-.774-1.185-1.427-2.05-1.96M251.732 78.245c.52 0 1.345-.277 2.48-.826 1.03-.503 1.805-1.135 2.29-1.89.237-.347.478-.856.732-1.535.238-.645.355-1.083.355-1.32 0-.237-.08-.428-.238-.57-.172-.126-.413-.188-.705-.188-.507 0-1.25.243-2.25.73-.483.223-.883.483-1.18.78-.315.302-.645.718-.988 1.25-.79 1.246-1.19 2.188-1.19 2.835 0 .487.233.733.692.733M81.294 74.724c0-.484-.313-.73-.925-.73-.46 0-.99.105-1.605.308l-1.065.31c-.566.152-.945.32-1.13.493-.212.19-.445.582-.71 1.18-.02.048-.06.137-.12.262-.034.078-.064.162-.096.257 0 .034-.01.056-.024.072-.02.014-.04.056-.07.117L74.96 78.2l-3.07 6.376c-.365.74-.725 1.567-1.092 2.48-.034.08-.062.166-.102.258-.04.09-.076.185-.105.274-.03.084-.074.18-.12.268-.03.08-.087.202-.167.368-.08.164-.148.32-.21.463-.697 1.607-1.13 2.624-1.31 3.06-.182.43-.33.76-.44.977-.93 2.13-1.457 3.348-1.586 3.66-.246.615-.553 1.453-.92 2.507-.312.912-.468 1.566-.468 1.96 0 .392.11.747.33 1.06.203.3.457.45.756.45.535 0 1.52-.524 2.95-1.584.414-.283.675-.532.803-.754.114-.16.218-.51.31-1.063.098-.536.383-1.417.873-2.65l.688-1.794.73-1.674.64-1.536 2.972-6.73c.24-.55.702-1.518 1.393-2.903.113-.205.333-.64.662-1.3.335-.66.537-1.084.617-1.25.674-1.374 1.25-2.46 1.724-3.264.317-.507.476-.88.476-1.137M197.735 97c-.85.932-1.92 1.687-3.212 2.27-1.29.616-2.535.918-3.734.918-.814 0-1.48-.212-1.984-.637-.52-.404-.776-.952-.776-1.63 0-.943.384-1.848 1.155-2.715.806-.915 1.803-1.628 3-2.148 1.246-.55 2.52-.827 3.826-.827.93 0 1.66.197 2.2.587.536.4.804.916.804 1.56 0 .82-.43 1.695-1.28 2.623m6.686-13.864c-.975-.644-2.422-.97-4.344-.97-1.703 0-3.307.2-4.82.592-1.527.393-2.813.968-3.85 1.727-1.068.785-1.608 1.46-1.608 2.026 0 .413.222.616.66.616.258 0 .578-.1.966-.306 2.522-1.26 4.787-1.888 6.806-1.888 1.165 0 2.046.203 2.65.61.59.41.893 1.025.893 1.844 0 .695-.21 1.276-.632 1.75-.444.487-.99.734-1.635.734l-1.844-.072c-.955 0-2.002.1-3.137.305-1.26.22-2.28.472-3.067.757-2.22.77-4.072 1.958-5.555 3.566-1.495 1.64-2.24 3.282-2.24 4.938 0 1.13.44 2.024 1.32 2.665.883.664 2.05.993 3.493.993 2.633 0 5.266-.892 7.895-2.67-.082.443-.122.766-.122.97 0 .457.132.858.375 1.207.24.344.52.515.83.515.33 0 .884-.25 1.653-.752 1.022-.647 1.535-1.152 1.535-1.517l.025-.685c0-.42.148-.927.425-1.507l3.092-6.444c.51-1.026.948-2.114 1.324-3.262.397-1.043.595-1.95.595-2.718 0-.617-.157-1.19-.452-1.725-.315-.55-.723-.982-1.228-1.3M180.728 73.97c-.405-.265-.917-.402-1.528-.402-1.14 0-2.55.38-4.235 1.134-.672 1.117-1.43 2.26-2.264 3.425l-2.245 3.098-2.857 3.99-2.617 3.588c-1.14 1.546-1.974 2.63-2.508 3.26-.3.35-.486.558-.568.637-.346.43-.614.64-.802.64-.207 0-.31-.386-.31-1.16v-1.012c0-.52.02-1.335.07-2.438 0-.15.017-.692.05-1.605l.167-4.696.114-2.627c.06-1.178.095-1.854.095-2.028l.068-1.325c.017-.14.024-.422.024-.85 0-.614-.14-1.082-.424-1.413-.28-.336-.69-.5-1.223-.5-.425 0-1.21.157-2.342.472-1.13.33-2.196.71-3.19 1.135-.536 1.714-1.028 3.013-1.488 3.893l-1.18 2.314-6.425 13.322-.73 1.42-.784 1.656c-.503 1.058-1.09 2.065-1.768 3.048l-.592.776c-.17.268-.26.485-.26.66 0 .283.165.42.472.42.505 0 1.532-.434 3.074-1.318.83-.47 1.448-.873 1.84-1.206.364-.3.7-.697 1.015-1.206.285-.5.73-1.4 1.35-2.69l3.73-8.1c.66-1.45 1.62-3.308 2.883-5.574.156-.3.317-.542.47-.73.126-.127.252-.193.38-.193.217 0 .33.167.33.498v.188l-.092 1.415-.145 2.126c-.046.76-.07 1.218-.07 1.37l-.33 9.31c-.02.223-.03.58-.03 1.086 0 1.434.114 2.418.336 2.95.202.537.623.803 1.252.803.88 0 1.782-.393 2.715-1.182.49-.438 1.147-1.16 1.985-2.168.25-.304.684-.868 1.294-1.7.16-.208.625-.828 1.4-1.87l1.842-2.5 6.99-9.614c.375-.536.666-.8.874-.8.22 0 .33.12.33.375 0 .142-.09.647-.26 1.508l-2.434 10.54c-.282 1.227-.47 2.192-.59 2.902l-.445 2.697c-.1.53-.146 1.01-.146 1.435 0 .713.276 1.067.83 1.067.266 0 .57-.105.92-.31l3.682-2.103.067-.586c.254-2.097.413-3.332.477-3.714.248-1.335.432-2.282.547-2.832l2.26-10.485c.385-1.734.76-3.386 1.136-4.964.27-1.26.406-1.99.406-2.195 0-.457-.198-.81-.593-1.065M229.888 82.618c-.256-.223-.588-.39-.993-.5-.464-.125-.904-.19-1.325-.19-1.66 0-3.65.82-5.98 2.457l-.637.453c-.158.095-.273.14-.357.14-.15 0-.234-.088-.234-.26 0-.097.082-.266.234-.52l.145-.26c.347-.58.52-1.046.52-1.39 0-.49-.26-.738-.778-.738-.6 0-1.575.358-2.932 1.067-.36.172-.613.33-.753.47-.136.142-.315.425-.522.852l-.518 1.113-4.626 9.87c-.632 1.387-1.117 2.532-1.47 3.45-.47 1.19-.707 2.105-.707 2.74 0 .8.342 1.2 1.013 1.2.51 0 1.336-.364 2.486-1.086.58-.377.966-.667 1.158-.874.175-.218.29-.47.35-.756l.213-.85c.164-.567.672-1.922 1.533-4.063.762-1.795 1.562-3.396 2.415-4.817.865-1.43 1.625-2.435 2.266-3.002 1.32-1.18 2.635-1.77 3.92-1.77.62 0 1.144.143 1.584.425l.258.19c.22.124.408.19.544.19.47 0 1.22-.39 2.24-1.157.885-.663 1.33-1.23 1.33-1.7 0-.254-.13-.483-.374-.685M275.914 82.193c-1.148 0-2.57.368-4.27 1.11-1.673.754-3.228 1.7-4.678 2.83-.27.223-.452.33-.54.33-.117 0-.17-.062-.17-.186l.052-.19.728-1.32c.422-.805.632-1.38.632-1.726 0-.597-.336-.897-1.007-.897-.38 0-1.182.205-2.414.615-.608.22-1.03.443-1.248.66-.238.238-.466.678-.688 1.32-.03.1-.127.344-.28.735l-.38.73-1.7 3.426-.312.664c-.2.423-.458.968-.773 1.625-1.42 2.9-2.365 5.04-2.84 6.427-.563 1.477-.85 2.502-.85 3.07 0 .33.1.607.287.83.173.22.385.326.64.326.33-.016.928-.27 1.796-.754l1.177-.71c.49-.287.803-.53.945-.732.125-.202.288-.646.468-1.32.292-1.01.755-2.197 1.397-3.572.63-1.323 1.328-2.557 2.085-3.71.89-1.302 1.86-2.46 2.898-3.467 1.028-.978 2.08-1.756 3.167-2.34 1.07-.568 2.05-.852 2.927-.852.644 0 1.16.173 1.565.52.388.35.588.82.588 1.42 0 .724-.38 1.903-1.135 3.545l-1.058 2.266-1.517 3.28c-.235.522-.63 1.558-1.18 3.12-.3.916-.45 1.61-.45 2.102 0 .87.328 1.294.992 1.294.6-.03 1.563-.503 2.905-1.418.39-.264.69-.517.874-.755.16-.202.286-.537.38-1.01.245-1.262.76-2.735 1.532-4.42l1.824-3.99c.95-2.126 1.433-3.804 1.433-5.035 0-1.21-.335-2.154-1.01-2.83-.68-.68-1.61-1.015-2.792-1.015M242.232 79.125c.68-1.376 1.255-2.463 1.726-3.265.315-.507.474-.88.474-1.136 0-.484-.31-.73-.92-.73-.462 0-.994.105-1.61.31l-1.06.308c-.565.152-.95.32-1.135.492-.205.19-.444.584-.712 1.18-.01.048-.05.14-.113.263l-.098.257c0 .034 0 .055-.02.07-.016.016-.04.057-.072.12l-.59 1.206-3.07 6.375c-.366.74-.727 1.568-1.09 2.483-.03.076-.065.165-.104.257-.036.09-.075.184-.107.274-.033.083-.07.176-.117.265-.03.08-.085.203-.162.37-.085.163-.15.318-.217.46-.688 1.61-1.128 2.626-1.308 3.06-.184.433-.325.763-.438.98-.93 2.13-1.452 3.346-1.576 3.66-.254.614-.562 1.45-.925 2.506-.315.913-.472 1.566-.472 1.96 0 .393.11.746.33 1.06.205.3.457.45.755.45.534 0 1.52-.525 2.954-1.584.413-.283.676-.532.8-.755.118-.157.218-.51.31-1.06.09-.535.386-1.416.878-2.65l.683-1.794.725-1.675.64-1.534 2.978-6.73c.237-.55.7-1.518 1.396-2.903.11-.205.328-.64.66-1.3.33-.66.536-1.083.61-1.248M253.238 82c-.344 0-1.22.237-2.615.71-.446.144-.766.315-.97.52-.224.222-.465.63-.734 1.228-.377.855-.713 1.556-1.017 2.126l-2.788 5.645c-1.355 2.788-2.35 5.102-3.005 6.94-.305.918-.466 1.68-.466 2.295 0 .79.33 1.177.994 1.177.554 0 1.537-.493 2.977-1.487.674-.483 1.065-.967 1.153-1.436l.12-.45c.14-.652.427-1.506.85-2.576 1.102-2.71 2.41-5.526 3.92-8.457l1.772-3.423c.472-.88.71-1.497.71-1.845 0-.642-.297-.97-.902-.97" fill="#fff"/><path d="M87.188 150.702l-4.7-.945.194-.96c.09-.45.09-.75-.01-.895-.094-.146-.282-.25-.563-.305-.306-.06-.552-.025-.742.11-.19.134-.318.368-.385.705-.09.433-.067.776.064 1.03.124.254.548.615 1.27 1.08 2.073 1.348 3.344 2.365 3.814 3.054.47.69.578 1.67.32 2.94-.185.925-.484 1.57-.896 1.945-.413.372-1.114.613-2.103.723-.99.11-2.1.04-3.334-.21-1.354-.27-2.475-.676-3.362-1.21-.89-.535-1.43-1.097-1.62-1.685-.19-.588-.185-1.367.01-2.34l.17-.848 4.7.945-.318 1.58c-.098.485-.095.81.01.976.104.167.324.283.66.35.337.07.605.03.805-.113.2-.144.336-.387.405-.735.155-.764.1-1.294-.166-1.594-.274-.297-.985-.85-2.13-1.652-1.147-.81-1.9-1.38-2.257-1.714-.358-.335-.627-.75-.805-1.246-.18-.498-.2-1.09-.06-1.78.198-.993.536-1.68 1.008-2.065.474-.38 1.162-.617 2.063-.704.9-.088 1.95-.01 3.153.23 1.313.265 2.405.634 3.273 1.102.868.47 1.41.95 1.623 1.442.213.49.216 1.25.01 2.28l-.105.512zM93.915 155.975c-.845.252-1.353.495-1.52.733-.17.236-.293.597-.373 1.08-.093.556-.098.922-.016 1.1.082.18.284.297.607.35.307.052.517.02.63-.09.113-.11.216-.434.306-.97l.365-2.203zm-1.303-1.723l-4.582-.764.12-.718c.137-.828.387-1.443.747-1.843.362-.4 1.003-.702 1.922-.902.92-.2 2.07-.185 3.446.044 1.653.276 2.865.678 3.64 1.208.773.528 1.196 1.09 1.27 1.688.076.592-.034 1.775-.33 3.542l-.895 5.37-4.75-.792.16-.955c-.363.336-.796.558-1.3.67-.503.112-1.08.112-1.734.01-.855-.144-1.61-.434-2.27-.872-.66-.44-.9-1.2-.72-2.277l.145-.878c.135-.802.415-1.317.842-1.544.428-.226 1.423-.407 2.987-.544 1.672-.15 2.58-.29 2.715-.417.137-.128.244-.413.317-.86.094-.56.093-.933 0-1.123-.096-.19-.29-.31-.58-.356-.33-.056-.547-.02-.652.11-.104.13-.206.49-.306 1.09l-.187 1.12zM105.938 152.028l-.216.978c.41-.346.884-.586 1.424-.715.54-.13 1.147-.147 1.82-.06.842.113 1.514.338 2.012.672.5.337.8.715.9 1.137.102.422.09 1.103-.035 2.043l-1 7.534-4.908-.652.987-7.443c.097-.74.12-1.197.07-1.368-.05-.17-.244-.28-.576-.325-.348-.047-.58.02-.693.193-.113.175-.225.666-.332 1.476l-.963 7.268-4.91-.653 1.426-10.748 4.995.66zM124.485 151.67l-.82 8.805c-.124 1.32-.224 2.163-.3 2.536-.076.375-.294.698-.653.97-.36.274-.827.443-1.403.506-.576.064-1.434.044-2.573-.064l-2.572-.24.215-2.304c.307.046.53.076.67.088.365.035.66 0 .88-.098.225-.1.36-.233.41-.405.048-.17.095-.505.142-1.003l.864-9.27 5.14.48zM137.067 154.945l-.713 10.82-5.027-.33.145-.892c-.368.34-.808.587-1.32.737-.514.15-1.097.203-1.75.16-.742-.05-1.352-.177-1.83-.382-.477-.208-.823-.462-1.037-.767-.212-.302-.337-.612-.373-.927-.038-.318-.024-.94.036-1.87l.48-7.298 4.942.325-.485 7.364c-.055.842-.05 1.345.017 1.51.066.162.273.252.614.276.367.025.59-.044.67-.202.08-.16.15-.682.21-1.568l.48-7.28 4.94.325zM144.177 160.89c-.805.36-1.275.666-1.41.925-.136.256-.21.63-.23 1.12-.018.563.026.926.13 1.093.105.166.322.256.65.266.31.01.513-.046.61-.17.1-.126.158-.46.175-1.005l.075-2.23zm-1.517-1.54l-4.644-.154.024-.728c.03-.84.195-1.482.5-1.927.305-.442.9-.826 1.786-1.144.885-.318 2.028-.456 3.424-.41 1.675.056 2.93.297 3.765.722.836.42 1.33.925 1.484 1.503.15.58.197 1.77.136 3.558l-.18 5.44-4.816-.162.032-.963c-.315.375-.715.653-1.2.832-.484.175-1.056.254-1.718.23-.866-.028-1.655-.216-2.367-.565-.71-.346-1.05-1.07-1.013-2.164l.03-.89c.026-.81.238-1.357.632-1.638.394-.282 1.356-.592 2.89-.933 1.637-.37 2.517-.627 2.637-.77.12-.144.187-.44.202-.892.02-.567-.032-.938-.153-1.114-.12-.176-.33-.27-.622-.28-.335-.012-.547.055-.633.196-.086.142-.14.515-.16 1.118l-.037 1.136zM155.65 155.404l-.087 1c.36-.4.8-.697 1.32-.895.52-.2 1.117-.298 1.795-.298.85 0 1.545.136 2.084.405.538.266.886.602 1.04 1.01.153.406.232 1.082.23 2.032l-.01 7.597h-4.953l.01-7.513c0-.745-.036-1.2-.11-1.365-.073-.165-.276-.245-.61-.245-.352 0-.574.092-.664.28-.09.19-.136.69-.137 1.508l-.01 7.33-4.954-.01.016-10.844 5.038.01zM173.99 157.765c-.017-.397-.08-.66-.186-.794-.11-.13-.313-.19-.615-.176-.296.01-.49.08-.588.207-.097.128-.137.404-.118.83l.218 5.304c.017.44.08.73.183.864.104.135.295.198.572.186.318-.015.528-.1.628-.26.1-.16.137-.54.112-1.146l-.207-5.013zm4.736-5.315l.548 13.218-4.95.205-.032-.787c-.46.348-.95.614-1.465.8-.515.185-1.06.29-1.63.312-.768.03-1.44-.075-2.014-.32-.575-.247-.95-.544-1.12-.892-.176-.346-.28-.92-.312-1.72l-.208-5.07c-.035-.833.02-1.427.165-1.783.145-.354.496-.677 1.057-.963.562-.287 1.24-.45 2.03-.48.613-.028 1.177.024 1.693.15.516.125.99.328 1.417.606l-.127-3.073 4.95-.203zM186.707 158.14l-.06-.788c-.038-.56-.11-.917-.21-1.073-.104-.16-.29-.226-.57-.206-.34.024-.55.11-.62.253-.07.144-.085.52-.04 1.128l.057.79 1.442-.104zm5.08 1.402l-6.396.464.172 2.34c.034.49.11.8.228.934.115.135.323.19.627.17.373-.027.618-.14.73-.338.113-.196.15-.565.11-1.1l-.104-1.427 4.684-.34.057.8c.05.665.023 1.185-.077 1.55-.1.37-.37.776-.804 1.215-.433.442-1 .79-1.698 1.045-.7.256-1.587.422-2.662.5-1.045.076-1.972.045-2.785-.1-.813-.144-1.456-.373-1.925-.69-.47-.32-.805-.684-1.007-1.09-.2-.41-.333-1.018-.39-1.82l-.23-3.155c-.068-.945.07-1.706.414-2.28.342-.574.94-1.038 1.79-1.39.852-.356 1.843-.573 2.976-.656 1.387-.1 2.54-.01 3.47.276.925.285 1.59.705 1.994 1.257.406.552.646 1.353.722 2.403l.104 1.432zM197.503 150.934l1.268 13.17-5.077.49-1.266-13.17 5.076-.49zM214.637 152.885l-4.754.62-.126-.972c-.06-.455-.156-.735-.296-.842-.136-.11-.347-.143-.63-.107-.31.04-.53.154-.667.342-.135.188-.18.455-.137.793.057.438.188.758.395.955.2.2.717.405 1.552.613 2.396.605 3.927 1.157 4.594 1.657.667.502 1.085 1.395 1.252 2.682.123.935.046 1.645-.222 2.13-.27.487-.857.94-1.758 1.363-.9.423-1.975.715-3.222.877-1.37.177-2.562.158-3.575-.06-1.013-.22-1.704-.578-2.073-1.073-.37-.496-.62-1.236-.748-2.22l-.113-.858 4.754-.62.208 1.596c.064.494.173.8.325.922.15.123.398.162.738.118.342-.044.583-.166.726-.366.143-.2.192-.477.146-.828-.1-.77-.325-1.255-.67-1.452-.358-.195-1.208-.49-2.553-.88-1.347-.395-2.242-.693-2.69-.893-.444-.2-.833-.504-1.163-.92-.33-.413-.54-.966-.63-1.663-.133-1.005-.036-1.765.29-2.28.322-.515.897-.958 1.722-1.332.823-.374 1.844-.643 3.06-.8 1.328-.173 2.48-.176 3.453-.014.973.165 1.64.446 2 .84.363.397.61 1.115.745 2.157l.07.518zM227.103 149.26l1.73 10.704-4.974.804-.06-.904c-.28.418-.654.755-1.12 1.016-.468.262-1.024.444-1.67.547-.734.12-1.356.132-1.87.037-.51-.094-.905-.264-1.18-.512-.276-.248-.468-.52-.574-.822-.106-.3-.235-.91-.382-1.83l-1.168-7.22 4.89-.79 1.176 7.284c.135.835.253 1.323.355 1.467.102.142.323.19.662.134.36-.06.564-.174.607-.348.043-.17-.01-.695-.148-1.572l-1.166-7.204 4.888-.79zM233.367 148.073l.07 1.437c.52-1.137 1.443-1.862 2.773-2.172l.706 3.75c-.89.168-1.53.37-1.918.61-.388.24-.603.51-.646.816-.04.305.034.974.23 2.006l.79 4.21-4.866.915-2.006-10.657 4.867-.915z" fill="#57ba4f"/></svg>