<svg xmlns="http://www.w3.org/2000/svg" width="400" height="257.004"><defs><clipPath id="a"><path d="M600.5 217.314c-8.558-3.85-3.917-14.915 1.105-16.624 8.735-2.966 12.147-5.88 12.147-5.88s2.184 7.677.345 14.102c-1.362 4.738-5.228 9.197-10.052 9.198-1.135 0-2.323-.248-3.544-.796"/></clipPath><clipPath id="b"><path d="M615.37 208.776c1.646-9.08.757-13.477.757-13.477s7.766 1.808 12.5 6.548c4.298 4.305 6.372 11.754.745 15.957-1.63 1.215-3.256 1.727-4.79 1.727-5.557 0-9.95-6.67-9.21-10.756"/></clipPath><clipPath id="c"><path d="M629.088 200.87c-7-6.02-11.238-7.478-11.238-7.478s5.496-5.782 11.974-7.456c5.895-1.526 13.366.462 14.14 7.44.703 6.393-4.658 9.168-9.395 9.168-2.175 0-4.217-.585-5.482-1.673"/></clipPath><clipPath id="d"><path d="M616.594 176.91c1.523-5.897 6.887-11.468 13.367-8.756 8.656 3.625 4.312 14.803-.67 16.642-8.65 3.196-11.985 6.198-11.985 6.198s-2.388-7.61-.71-14.085"/></clipPath><clipPath id="e"><path d="M602.395 183.91c-4.31-4.306-6.387-11.75-.767-15.96 7.517-5.623 14.95 3.793 14.01 9.012-1.637 9.084-.737 13.475-.737 13.475s-7.776-1.8-12.505-6.527"/></clipPath><clipPath id="f"><path d="M586.922 192.043c-.98-9.338 10.917-10.89 14.92-7.412 6.963 6.06 11.193 7.543 11.193 7.543s-5.534 5.75-12.013 7.388c-1.204.306-2.473.464-3.735.464-4.932 0-9.78-2.42-10.365-7.98"/></clipPath><clipPath id="g"><path d="M.833 0H719.98v809.27H.832V0z"/></clipPath><clipPath id="h"><path d="M605.64 150.634c-1.79-.803-.817-3.11.23-3.47 1.826-.62 2.54-1.232 2.54-1.232s.458 1.604.073 2.95c-.286.99-1.09 1.918-2.1 1.92-.237 0-.485-.053-.742-.168"/></clipPath><clipPath id="i"><path d="M608.753 148.852c.34-1.9.154-2.818.154-2.818s1.622.38 2.61 1.366c.9.907 1.33 2.46.155 3.345-.34.252-.678.36-1 .36-1.16 0-2.078-1.396-1.92-2.253"/></clipPath><clipPath id="j"><path d="M611.62 147.2c-1.464-1.26-2.354-1.565-2.354-1.565s1.15-1.21 2.502-1.56c1.233-.322 2.796.1 2.958 1.558.148 1.335-.974 1.916-1.962 1.916-.454 0-.88-.124-1.145-.35"/></clipPath><clipPath id="k"><path d="M609.003 142.19c.32-1.234 1.44-2.398 2.796-1.83 1.814.756.903 3.094-.14 3.48-1.81.672-2.51 1.293-2.51 1.293s-.494-1.587-.147-2.944"/></clipPath><clipPath id="l"><path d="M606.036 143.654c-.898-.9-1.334-2.456-.162-3.34 1.576-1.17 3.13.792 2.933 1.886-.34 1.9-.155 2.817-.155 2.817s-1.626-.374-2.616-1.363"/></clipPath><clipPath id="m"><path d="M602.802 145.354c-.206-1.952 2.28-2.274 3.118-1.55 1.458 1.266 2.34 1.578 2.34 1.578s-1.158 1.202-2.515 1.54c-.252.066-.518.1-.783.1-1.03 0-2.04-.506-2.16-1.668"/></clipPath></defs><path d="M25.952 87.172c-.97.352-1.604 1.086-1.883 2.22v31.23c0 6.465.087 11.853.31 16.14.205 4.294.95 7.745 2.2 10.347 1.285 2.597 3.205 4.465 5.82 5.584 2.594 1.125 6.22 1.692 10.856 1.692 6.332-.567 11.726-1.616 16.144-3.17 4.448-1.54 8.06-3.72 10.873-6.542 2.8-2.817 4.888-6.36 6.225-10.658 1.337-4.29 2.137-9.394 2.435-15.294 0-5.203-.856-9.818-2.547-13.818-1.683-4.01-4.388-7.39-8.114-10.136-3.73-2.74-8.65-4.78-14.782-6.113-6.107-1.343-13.602-2.016-22.456-2.016-2.4 0-4.093.187-5.082.532M24.07 72.51c.278 1.55.84 2.46 1.67 2.743.84.288 2.33.418 4.442.418 8.017 0 14.797-.56 20.364-1.693 5.548-1.12 10.057-2.887 13.502-5.264 3.447-2.393 5.94-5.455 7.498-9.185 1.528-3.726 2.317-8.186 2.317-13.4 0-9.844-2.738-16.81-8.24-20.887-5.478-4.083-14.632-6.124-27.424-6.124-5.48 0-9.21.773-11.18 2.32-1.547 2.532-2.435 6.015-2.64 10.46-.223 4.424-.31 10.085-.31 16.984v23.63zm74.174 65.63c-2.617 5.918-6.225 10.76-10.88 14.554-4.635 3.796-10.133 6.616-16.464 8.447-6.32 1.82-13.223 2.74-20.673 2.74H0V5.613h43.256c16.89 0 29.93 3.48 39.163 10.446 9.202 6.968 13.8 16.63 13.8 29.014 0 7.59-1.99 14.415-6.002 20.46-4.02 6.062-9.675 10.77-16.983 14.15 9.415 2.813 16.592 7.312 21.525 13.51 4.912 6.19 7.368 14.206 7.368 24.05 0 8.018-1.29 14.986-3.884 20.895M323.818 87.172c-.983.352-1.63 1.086-1.895 2.22v31.23c0 6.465.106 11.853.318 16.14.21 4.294.95 7.745 2.21 10.347 1.27 2.597 3.2 4.465 5.81 5.584 2.6 1.125 6.232 1.692 10.85 1.692 6.337-.567 11.725-1.616 16.16-3.17 4.437-1.54 8.045-3.72 10.862-6.542 2.82-2.817 4.897-6.36 6.237-10.658 1.312-4.29 2.143-9.394 2.422-15.294 0-5.203-.843-9.818-2.535-13.818-1.683-4.01-4.4-7.39-8.126-10.136-3.728-2.74-8.65-4.78-14.768-6.113-6.12-1.343-13.615-2.016-22.48-2.016-2.393 0-4.076.187-5.064.532m-1.895-14.663c.266 1.55.846 2.46 1.688 2.743.84.288 2.32.418 4.425.418 8.035 0 14.82-.56 20.37-1.693 5.56-1.12 10.064-2.887 13.508-5.264 3.436-2.393 5.93-5.455 7.5-9.185 1.54-3.726 2.31-8.186 2.31-13.4 0-9.844-2.754-16.81-8.227-20.887-5.49-4.083-14.62-6.124-27.426-6.124-5.5 0-9.232.773-11.19 2.32-1.56 2.532-2.43 6.015-2.64 10.46-.21 4.424-.317 10.085-.317 16.984v23.63zm74.163 65.63c-2.593 5.918-6.225 10.76-10.856 14.554-4.642 3.796-10.14 6.616-16.458 8.447-6.343 1.82-13.223 2.74-20.68 2.74h-50.226V5.613h43.244c16.895 0 29.936 3.48 39.163 10.446 9.21 6.968 13.817 16.63 13.817 29.014 0 7.59-2.007 14.415-6.012 20.46-4.015 6.062-9.676 10.77-16.977 14.15 9.416 2.813 16.583 7.312 21.514 13.51 4.924 6.19 7.386 14.206 7.386 24.05 0 8.018-1.304 14.986-3.914 20.895"/><g clip-path="url(#a)" transform="matrix(3 0 0 -3 -1666.2 665.6)"><path d="M611.46 222.257l6.657-27.59-19.42-1.698-5.45 24.894 18.215 4.393z" fill="#c60c46"/><path d="M606.182 207.974c3.637-6.588 6.213-13.806 6.213-13.806l-13.697-1.2-5.452 24.897 4.795 1.157s4.73-4.854 8.142-11.048" fill="#c60c46"/></g><g clip-path="url(#b)" transform="matrix(3 0 0 -3 -1666.2 665.6)"><path d="M639.012 210.622l-20.895-19.207-10.906 16.155 19.12 16.848 12.682-13.796z" fill="#c60c46"/><path d="M623.967 208.305c-3.996-6.38-9.063-12.132-9.063-12.132l-7.693 11.398 19.12 16.848 3.34-3.632s-1.95-6.488-5.702-12.48" fill="#c60c46"/></g><g clip-path="url(#c)" transform="matrix(3 0 0 -3 -1666.2 665.6)"><path d="M642.653 181.426l-27.148 8.282 8.404 17.59 24.214-7.95-5.47-17.922z" fill="#c60c46"/><path d="M633.032 193.23c-7.523.212-15.05 1.658-15.05 1.658l5.927 12.41 24.214-7.95-1.44-4.72s-6.58-1.602-13.652-1.4" fill="#c60c46"/></g><g clip-path="url(#d)" transform="matrix(3 0 0 -3 -1666.2 665.6)"><path d="M618.876 163.498l-5.932 27.758 19.46 1.18 4.796-25.024-18.324-3.914z" fill="#c60c46"/><path d="M624.528 177.64c-3.463 6.682-5.85 13.964-5.85 13.964l13.725.834 4.797-25.026-4.824-1.033s-4.596 4.98-7.848 11.26" fill="#c60c46"/></g><g clip-path="url(#e)" transform="matrix(3 0 0 -3 -1666.2 665.6)"><path d="M591.997 175.146l20.916 19.184 10.89-16.17-19.14-16.824-12.666 13.81z" fill="#c60c46"/><path d="M607.05 177.446c4.003 6.374 9.067 12.118 9.067 12.118l7.684-11.404-19.138-16.823-3.334 3.637s1.96 6.48 5.72 12.472" fill="#c60c46"/></g><g clip-path="url(#f)" transform="matrix(3 0 0 -3 -1666.2 665.6)"><path d="M588.165 204.002l27.19-8.13-8.305-17.637-24.252 7.813 5.367 17.954z" fill="#c60c46"/><path d="M597.85 192.254c7.523-.17 15.057-1.58 15.057-1.58l-5.858-12.44-24.253 7.814 1.408 4.726s6.577 1.645 13.645 1.48" fill="#c60c46"/></g><g clip-path="url(#g)" transform="matrix(3 0 0 -3 -1666.2 665.6)"><path d="M622.034 192.822c0-3.646-2.96-6.6-6.605-6.6-3.652 0-6.61 2.954-6.61 6.6 0 3.648 2.958 6.61 6.61 6.61 3.645 0 6.604-2.96 6.604-6.61" fill="#f2cfcc"/><path d="M615.255 193.07c-4.73.023-5.756-2.24-5.756-2.24-.235.657-.362 1.365-.362 2.1 0 3.467 2.808 6.28 6.275 6.28 2.6 0 4.834-1.58 5.783-3.83 0 0-1.212-2.34-5.94-2.31" fill="#e8aaa8"/><path d="M681.17 136.31c0-.85-.818-1.538-1.818-1.538h-127.78c-1.013 0-1.822.688-1.822 1.54v17.706c0 .85.81 1.54 1.822 1.54h127.78c1 0 1.818-.69 1.818-1.54V136.31z"/><path d="M557.223 145.086c-.068-.02-.115-.07-.133-.15v-2.155c0-.442.004-.813.024-1.11.015-.29.062-.53.15-.714.092-.18.22-.31.398-.383.182-.077.432-.116.752-.116.44.04.807.11 1.116.217.306.102.558.253.744.45.197.197.34.438.433.737.094.293.145.647.166 1.055 0 .356-.06.678-.175.952-.118.28-.305.512-.557.7-.26.187-.6.327-1.022.42-.418.09-.938.14-1.55.14-.165 0-.28-.012-.345-.04m-.133 1.015c.018-.106.06-.17.117-.192.057-.018.16-.027.31-.027.548 0 1.017.037 1.395.118.385.078.698.2.936.366.24.16.404.373.518.63.105.256.16.567.16.924 0 .68-.192 1.16-.573 1.443-.373.283-1.007.42-1.888.42-.373 0-.635-.054-.77-.163-.107-.175-.166-.41-.18-.716-.02-.308-.025-.7-.025-1.17v-1.632zm5.115-4.525c-.177-.41-.427-.74-.752-1.004-.318-.262-.693-.458-1.132-.583-.44-.124-.91-.19-1.43-.19h-3.464v10.914h2.988c1.166 0 2.06-.24 2.702-.723.63-.48.95-1.143.95-1.998 0-.52-.142-.996-.41-1.408-.28-.422-.67-.746-1.173-.978.648-.195 1.14-.502 1.48-.933.34-.423.514-.977.514-1.66 0-.553-.094-1.028-.272-1.436M565.442 141.96c.096-.325.236-.58.414-.776.18-.195.395-.333.65-.417.25-.082.526-.12.827-.106.302-.013.58.025.826.102.257.08.473.212.647.406.188.192.32.456.416.79.1.326.145.734.145 1.216v.51c0 .486-.045.893-.145 1.223-.095.33-.228.595-.416.788-.174.19-.39.33-.648.407-.247.077-.525.115-.827.1-.3.015-.577-.028-.828-.11-.254-.08-.47-.22-.65-.413-.177-.197-.317-.454-.413-.777-.102-.327-.146-.733-.146-1.218v-.51c0-.483.044-.883.146-1.215m3.592 4.8c.445-.21.816-.474 1.105-.814.296-.33.513-.718.657-1.16.143-.432.223-.886.247-1.363-.024-.494-.098-.963-.243-1.402-.14-.44-.354-.828-.643-1.148-.293-.327-.664-.587-1.115-.78-.45-.192-.996-.292-1.635-.292-.668 0-1.236.1-1.71.292-.472.193-.86.456-1.16.792-.3.338-.523.722-.67 1.157-.144.44-.222.9-.243 1.383.01.477.086.93.232 1.364.148.44.365.828.672 1.16.295.34.687.604 1.16.812.48.2 1.05.304 1.72.304.638 0 1.18-.103 1.626-.305M573.97 143.174c0-.48.044-.882.142-1.214.097-.325.24-.58.416-.776.18-.195.392-.333.644-.417.254-.082.533-.12.832-.106.3-.013.578.025.832.102.252.08.465.212.65.406.178.193.313.456.407.79.1.326.15.735.15 1.216v.51c0 .486-.05.902-.15 1.237-.094.342-.23.618-.408.823-.184.215-.397.36-.65.448-.253.088-.53.125-.83.115-.3.01-.58-.027-.833-.12-.252-.095-.463-.243-.644-.454-.176-.21-.32-.48-.416-.817-.098-.336-.14-.743-.14-1.228v-.51zm-1.673.596v6.958h1.674l.03-4.075c.276.136.588.256.92.358.332.1.72.155 1.16.155.64 0 1.182-.094 1.625-.27.45-.176.817-.432 1.108-.76.29-.323.512-.714.654-1.165.143-.458.23-.968.248-1.534-.02-.56-.105-1.066-.248-1.51-.142-.448-.363-.825-.654-1.14-.29-.318-.658-.562-1.108-.73-.443-.17-.986-.256-1.625-.256-.67 0-1.24.086-1.71.255-.47.17-.858.413-1.16.73-.3.316-.524.693-.667 1.142-.144.443-.228.95-.246 1.51v.333zM582.9 139.817h-1.673v7.303h1.672v-7.303zm-1.637 10.562c.207.21.465.32.767.32.295 0 .56-.11.77-.32.21-.213.322-.47.322-.77 0-.15-.033-.285-.1-.417-.06-.13-.14-.25-.25-.347-.105-.104-.228-.185-.36-.242-.132-.053-.257-.088-.382-.088-.302 0-.56.11-.767.323-.205.21-.31.466-.31.77 0 .3.105.557.31.77M589.794 144.86c-.072.323-.19.582-.344.774-.154.195-.35.335-.582.416-.236.084-.504.12-.797.11-.303.01-.58-.026-.835-.1-.25-.078-.468-.214-.644-.408-.18-.196-.316-.46-.415-.788-.098-.33-.143-.737-.143-1.226v-3.82h-1.676v3.376c0 1.184.31 2.115.938 2.802.625.68 1.527 1.023 2.7 1.023.652 0 1.202-.09 1.657-.272.458-.177.832-.433 1.117-.76.28-.335.492-.733.625-1.204.127-.47.197-1 .197-1.59v-3.376h-1.675v3.82c0 .49-.04.895-.12 1.22M598.567 143.685c0 .485-.045.892-.143 1.22-.1.32-.234.58-.414.774-.18.192-.394.332-.646.412-.252.082-.53.125-.832.11-.297.015-.574-.023-.824-.1-.258-.076-.473-.217-.65-.406-.182-.194-.317-.458-.417-.788-.094-.33-.145-.738-.145-1.223v-.51c0-.482.05-.89.146-1.218.1-.333.236-.596.417-.79.178-.193.393-.326.65-.405.25-.077.528-.115.825-.1.613-.024 1.103.23 1.478.754.373.526.557 1.272.557 2.243v.025zm1.676-3.885h-1.688v.043l.012 1.456c-.16-.3-.32-.55-.484-.743-.16-.192-.32-.35-.49-.458-.165-.114-.34-.188-.528-.233-.19-.042-.39-.067-.603-.067-.643 0-1.184.084-1.63.25-.445.164-.816.402-1.11.717-.288.314-.503.7-.653 1.142-.144.448-.222.953-.25 1.513.028.562.106 1.07.25 1.514.15.445.364.827.653 1.144.293.317.664.56 1.108.73.448.168.99.254 1.632.254.67 0 1.238-.086 1.712-.253.467-.17.852-.413 1.15-.73.304-.316.53-.698.675-1.143.14-.445.223-.952.243-1.514V139.8zM618.56 145.086c-.065-.02-.108-.07-.126-.15v-2.155c0-.442.002-.813.018-1.11.015-.29.064-.53.154-.714.09-.18.225-.31.402-.383.176-.077.426-.116.748-.116.438.04.805.11 1.112.217.304.102.556.253.748.45.193.197.34.438.427.737.094.293.153.647.172 1.055 0 .356-.054.678-.172.952-.117.28-.308.512-.564.7-.257.187-.597.327-1.023.42-.423.09-.935.14-1.546.14-.163 0-.283-.012-.35-.04m-.126 1.015c.018-.106.053-.17.115-.192.056-.018.157-.027.302-.027.553 0 1.022.037 1.404.118.387.078.696.2.934.366.236.16.406.373.516.63.103.256.16.567.16.924 0 .68-.19 1.16-.57 1.443-.376.283-1.006.42-1.89.42-.38 0-.636-.054-.77-.163-.108-.175-.17-.41-.184-.716-.016-.308-.018-.7-.018-1.17v-1.632zm5.115-4.525c-.184-.41-.436-.74-.753-1.004-.324-.262-.695-.458-1.136-.583-.437-.124-.91-.19-1.423-.19h-3.47v10.914h2.99c1.163 0 2.06-.24 2.7-.723.63-.48.952-1.143.952-1.998 0-.52-.14-.996-.42-1.408-.273-.422-.665-.746-1.167-.978.646-.195 1.14-.502 1.484-.933.338-.423.506-.977.506-1.66 0-.553-.088-1.028-.264-1.436M626.782 141.96c.096-.325.234-.58.41-.776.182-.195.4-.333.654-.417.25-.082.528-.12.827-.106.302-.013.58.025.832.102.252.08.466.212.646.406.18.192.318.456.413.79.104.326.145.734.145 1.216v.51c0 .486-.04.893-.145 1.223-.095.33-.232.595-.412.788-.18.19-.393.33-.645.407-.252.077-.53.115-.832.1-.3.015-.577-.028-.827-.11-.253-.08-.472-.22-.654-.413-.176-.197-.314-.454-.41-.777-.098-.327-.145-.733-.145-1.218v-.51c0-.483.047-.883.145-1.215m3.594 4.8c.443-.21.818-.474 1.107-.814.287-.33.51-.718.654-1.16.147-.432.23-.886.25-1.363-.02-.494-.103-.963-.244-1.402-.14-.44-.355-.828-.65-1.148-.283-.327-.656-.587-1.107-.78-.452-.192-1-.292-1.64-.292-.67 0-1.24.1-1.708.292-.47.193-.858.456-1.158.792-.3.338-.526.722-.666 1.157-.15.44-.235.9-.25 1.383.01.477.09.93.23 1.364.152.44.37.828.67 1.16.303.34.693.604 1.164.812.48.2 1.047.304 1.72.304.64 0 1.18-.103 1.628-.305M635.413 141.96c.074-.325.19-.58.35-.776.152-.195.35-.333.574-.417.236-.082.504-.12.806-.106.3-.013.577.025.83.102.25.08.465.212.645.406.182.192.32.456.418.79.096.326.145.734.145 1.216v3.917h1.674v-3.462c0-1.188-.314-2.117-.943-2.8-.624-.686-1.522-1.028-2.698-1.028-.653 0-1.197.092-1.656.268-.457.18-.83.433-1.11.768-.29.33-.502.726-.63 1.196-.13.474-.194 1.004-.194 1.596v3.463h1.672v-3.916c0-.482.037-.882.12-1.214M646.42 146.26h-1.684v-6.47h-1.617v6.47h-1.7v.843h1.7v3.61h1.617v-3.61h1.684v-.844zM649.235 139.817h-1.678v7.303h1.678v-7.303zm-1.64 10.562c.21.21.46.32.765.32.295 0 .56-.11.77-.32.215-.213.322-.47.322-.77 0-.15-.033-.285-.096-.417-.064-.13-.15-.25-.253-.347-.106-.104-.227-.185-.36-.242-.13-.053-.258-.088-.383-.088-.306 0-.556.11-.765.323-.21.21-.313.466-.313.77 0 .3.104.557.313.77M652.362 142.93c.018-.448.102-.817.262-1.113.168-.298.36-.533.6-.714.238-.18.505-.306.796-.38.29-.07.578-.105.87-.095.302-.01.607.028.91.104.302.075.58.214.822.408.242.195.44.455.59.787.152.326.226.733.226 1.224v.508c0 .485-.074.888-.226 1.224-.15.328-.348.59-.59.782-.242.195-.52.332-.822.407-.303.077-.608.114-.91.104-.298.01-.6-.027-.9-.106-.3-.083-.575-.222-.814-.416-.246-.197-.443-.452-.59-.78-.152-.326-.224-.73-.224-1.214v-.73zm2.967-3.472c-.343.18-.734.298-1.18.342-.622-.02-1.147.077-1.59.286-.434.208-.79.48-1.07.82-.274.34-.474.73-.607 1.163-.128.437-.19.88-.19 1.325.032 1.126.417 2.012 1.15 2.665.734.648 1.775.973 3.12.973 1.284 0 2.284-.325 3-.973.715-.653 1.098-1.54 1.15-2.665-.04-.935-.306-1.698-.8-2.3-.498-.6-1.19-.996-2.082-1.19.236-.13.43-.246.593-.362.172-.106.31-.224.426-.355.12-.122.202-.27.268-.435.065-.164.102-.354.12-.58v-1.31h-1.7c.01.04.018.135.028.282v.495c-.01.18-.014.356-.014.533v.35c-.076.444-.285.76-.623.935M662.137 141.96c.076-.325.195-.58.348-.776.156-.195.35-.333.582-.417.234-.082.504-.12.8-.106.303-.013.577.025.834.102.246.08.466.212.644.406.18.192.318.456.416.79.094.326.14.734.14 1.216v3.917h1.682v-3.462c0-1.188-.314-2.117-.945-2.8-.62-.686-1.52-1.028-2.695-1.028-.65 0-1.203.092-1.657.268-.457.18-.832.433-1.115.768-.287.33-.496.726-.625 1.196-.133.474-.197 1.004-.197 1.596v3.463h1.672v-3.916c0-.482.04-.882.117-1.214M671.503 145.947c-.223-.127-.406-.296-.557-.507-.152-.212-.265-.447-.357-.722-.087-.272-.142-.556-.175-.842h3.813c-.077.794-.286 1.376-.623 1.73-.344.358-.776.54-1.313.54h-.03c-.29 0-.548-.064-.76-.2m-1.104-2.972c.033-.262.087-.537.173-.813.083-.284.214-.535.392-.773.176-.233.414-.422.705-.58.29-.16.654-.233 1.09-.233.36 0 .848.082 1.457.242l.11-.48c-.298-.132-.602-.258-.91-.374-.31-.12-.64-.167-.977-.144-.514 0-.987.087-1.422.26-.426.17-.803.42-1.12.737-.324.313-.578.693-.767 1.127-.186.434-.293.912-.31 1.438 0 .483.083.944.26 1.368.173.428.42.802.736 1.124.316.33.68.592 1.107.782.433.194.9.3 1.4.322.54-.01 1.02-.108 1.458-.3.436-.187.807-.448 1.118-.774.31-.322.55-.702.71-1.133.17-.43.243-.886.223-1.362 0-.048-.005-.12-.01-.21-.006-.09-.006-.166-.006-.224h-5.416z" fill="#fff"/></g><g clip-path="url(#h)" transform="matrix(3 0 0 -3 -1666.2 665.6)"><path d="M607.932 151.672l1.393-5.77-4.065-.355-1.137 5.203 3.81.922z" fill="#c60c46"/><path d="M606.83 148.685c.76-1.376 1.3-2.887 1.3-2.887l-2.87-.25-1.136 5.202 1.004.243s.984-1.01 1.7-2.308" fill="#c60c46"/></g><g clip-path="url(#i)" transform="matrix(3 0 0 -3 -1666.2 665.6)"><path d="M613.692 149.24l-4.367-4.02-2.29 3.38 4.005 3.52 2.652-2.88z" fill="#c60c46"/><path d="M610.545 148.753c-.836-1.336-1.895-2.535-1.895-2.535l-1.615 2.383 4.004 3.52.7-.76s-.406-1.354-1.195-2.607" fill="#c60c46"/></g><g clip-path="url(#j)" transform="matrix(3 0 0 -3 -1666.2 665.6)"><path d="M614.456 143.136l-5.676 1.728 1.756 3.676 5.06-1.66-1.14-3.744z" fill="#c60c46"/><path d="M612.44 145.603c-1.572.042-3.146.344-3.146.344l1.242 2.594 5.058-1.66-.3-.988s-1.375-.332-2.854-.29" fill="#c60c46"/></g><g clip-path="url(#k)" transform="matrix(3 0 0 -3 -1666.2 665.6)"><path d="M609.48 139.385l-1.237 5.807 4.068.245 1-5.234-3.83-.818z" fill="#c60c46"/><path d="M610.665 142.344c-.725 1.395-1.23 2.918-1.23 2.918l2.876.175 1-5.234-1.006-.213s-.96 1.04-1.64 2.354" fill="#c60c46"/></g><g clip-path="url(#l)" transform="matrix(3 0 0 -3 -1666.2 665.6)"><path d="M603.86 141.82l4.373 4.01 2.28-3.376-4.005-3.52-2.648 2.886z" fill="#c60c46"/><path d="M607.006 142.3c.838 1.335 1.9 2.534 1.9 2.534l1.606-2.38-4.004-3.52-.693.76s.408 1.357 1.19 2.607" fill="#c60c46"/></g><g clip-path="url(#m)" transform="matrix(3 0 0 -3 -1666.2 665.6)"><path d="M603.06 147.854l5.68-1.7-1.734-3.687-5.066 1.633 1.12 3.754z" fill="#c60c46"/><path d="M605.085 145.402c1.57-.042 3.148-.334 3.148-.334l-1.226-2.6-5.067 1.632.293.987s1.375.345 2.852.315" fill="#c60c46"/></g></svg>