<?xml version="1.0" encoding="UTF-8" standalone="no"?>
<!-- Created with Inkscape (http://www.inkscape.org/) -->

<svg
   xmlns:dc="http://purl.org/dc/elements/1.1/"
   xmlns:cc="http://creativecommons.org/ns#"
   xmlns:rdf="http://www.w3.org/1999/02/22-rdf-syntax-ns#"
   xmlns:svg="http://www.w3.org/2000/svg"
   xmlns="http://www.w3.org/2000/svg"
   xmlns:sodipodi="http://sodipodi.sourceforge.net/DTD/sodipodi-0.dtd"
   xmlns:inkscape="http://www.inkscape.org/namespaces/inkscape"
   width="400"
   height="296.10239"
   id="svg85509"
   version="1.1"
   inkscape:version="0.48.3.1 r9886"
   sodipodi:docname="Documento nuevo 60">
  <defs
     id="defs85511">
    <clipPath
       id="clipPath76032"
       clipPathUnits="userSpaceOnUse">
      <path
         inkscape:connector-curvature="0"
         id="path76034"
         d="M 0,0 576,0 576,756 0,756 0,0 z" />
    </clipPath>
  </defs>
  <sodipodi:namedview
     id="base"
     pagecolor="#ffffff"
     bordercolor="#666666"
     borderopacity="1.0"
     inkscape:pageopacity="0.0"
     inkscape:pageshadow="2"
     inkscape:zoom="0.35"
     inkscape:cx="199.99997"
     inkscape:cy="148.0512"
     inkscape:document-units="px"
     inkscape:current-layer="layer1"
     showgrid="false"
     inkscape:showpageshadow="true"
     fit-margin-top="0"
     fit-margin-left="0"
     fit-margin-right="0"
     fit-margin-bottom="0"
     inkscape:window-width="596"
     inkscape:window-height="418"
     inkscape:window-x="0"
     inkscape:window-y="27"
     inkscape:window-maximized="0" />
  <metadata
     id="metadata85514">
    <rdf:RDF>
      <cc:Work
         rdf:about="">
        <dc:format>image/svg+xml</dc:format>
        <dc:type
           rdf:resource="http://purl.org/dc/dcmitype/StillImage" />
        <dc:title></dc:title>
      </cc:Work>
    </rdf:RDF>
  </metadata>
  <g
     inkscape:label="Capa 1"
     inkscape:groupmode="layer"
     id="layer1"
     transform="translate(-150.00003,-384.31099)">
    <g
       id="g85406"
       transform="matrix(1.4080119,0,0,1.4080119,-5061.2894,-193.99825)">
      <path
         id="path76026"
         style="fill:#004a92;fill-opacity:1;fill-rule:nonzero;stroke:none"
         d="m 3985.2571,621.02574 -284.0885,0 0,-210.29822 284.0885,0 0,210.29822 z"
         inkscape:connector-curvature="0" />
      <g
         transform="matrix(8.8297528,0,0,-8.8297528,308.67156,2330.148)"
         id="g76028">
        <g
           clip-path="url(#clipPath76032)"
           id="g76030">
          <g
             transform="translate(386.0146,197.7314)"
             id="g76036">
            <path
               id="path76038"
               style="fill:#ffffff;fill-opacity:1;fill-rule:nonzero;stroke:none"
               d="m 0,0 c 0,-0.232 0.037,-0.401 0.11,-0.514 0.101,-0.157 0.238,-0.235 0.406,-0.235 0.132,0 0.243,0.057 0.336,0.169 0.089,0.109 0.135,0.285 0.135,0.526 0,0.253 -0.046,0.439 -0.137,0.55 C 0.758,0.608 0.638,0.665 0.494,0.665 0.354,0.665 0.234,0.61 0.141,0.501 0.047,0.391 0,0.223 0,0 m -0.581,-1.153 0,3.07 0.587,0 0,-1.11 c 0.182,0.206 0.396,0.308 0.644,0.308 0.271,0 0.496,-0.096 0.671,-0.293 0.178,-0.196 0.268,-0.477 0.268,-0.847 0,-0.381 -0.091,-0.674 -0.272,-0.88 -0.178,-0.203 -0.399,-0.308 -0.654,-0.308 -0.127,0 -0.252,0.031 -0.376,0.099 -0.124,0.068 -0.229,0.161 -0.317,0.285 l 0,-0.324 -0.551,0 z"
               inkscape:connector-curvature="0" />
          </g>
          <g
             transform="translate(389.5361,196.5781)"
             id="g76040">
            <path
               id="path76042"
               style="fill:#ffffff;fill-opacity:1;fill-rule:nonzero;stroke:none"
               d="M 0,0 0,0.331 C -0.078,0.212 -0.187,0.117 -0.317,0.046 -0.448,-0.025 -0.586,-0.06 -0.731,-0.06 c -0.148,0 -0.283,0.032 -0.399,0.098 -0.119,0.066 -0.204,0.16 -0.256,0.278 -0.052,0.12 -0.079,0.285 -0.079,0.495 l 0,1.414 0.588,0 0,-1.026 c 0,-0.313 0.01,-0.505 0.031,-0.578 0.022,-0.07 0.062,-0.126 0.117,-0.167 0.058,-0.041 0.13,-0.063 0.217,-0.063 0.101,0 0.188,0.029 0.267,0.085 0.079,0.054 0.135,0.123 0.162,0.206 0.026,0.081 0.045,0.282 0.045,0.601 l 0,0.942 0.587,0 L 0.549,0 0,0 z"
               inkscape:connector-curvature="0" />
          </g>
          <g
             transform="translate(391.1543,197.7314)"
             id="g76044">
            <path
               id="path76046"
               style="fill:#ffffff;fill-opacity:1;fill-rule:nonzero;stroke:none"
               d="m 0,0 c 0,-0.237 0.031,-0.409 0.1,-0.517 0.095,-0.155 0.229,-0.232 0.404,-0.232 0.136,0 0.254,0.059 0.35,0.175 C 0.95,-0.459 1,-0.287 1,-0.057 1,0.199 0.952,0.385 0.858,0.496 0.767,0.608 0.646,0.665 0.499,0.665 0.356,0.665 0.238,0.608 0.143,0.498 0.045,0.387 0,0.22 0,0 m 1.581,-1.153 -0.549,0 0,0.324 C 0.941,-0.955 0.832,-1.053 0.709,-1.116 0.585,-1.183 0.459,-1.213 0.333,-1.213 c -0.257,0 -0.478,0.105 -0.66,0.311 -0.183,0.206 -0.273,0.493 -0.273,0.863 0,0.378 0.088,0.665 0.266,0.861 0.179,0.197 0.404,0.293 0.677,0.293 0.251,0 0.468,-0.102 0.651,-0.308 l 0,1.11 0.587,0 0,-3.07 z"
               inkscape:connector-curvature="0" />
          </g>
          <g
             transform="translate(393.7715,197.7334)"
             id="g76048">
            <path
               id="path76050"
               style="fill:#ffffff;fill-opacity:1;fill-rule:nonzero;stroke:none"
               d="m 0,0 c 0,-0.235 0.044,-0.406 0.14,-0.516 0.089,-0.109 0.204,-0.164 0.339,-0.164 0.147,0 0.269,0.057 0.372,0.168 0.098,0.112 0.148,0.278 0.148,0.498 0,0.23 -0.047,0.399 -0.144,0.51 C 0.759,0.606 0.639,0.663 0.492,0.663 0.35,0.663 0.229,0.608 0.14,0.499 0.044,0.391 0,0.224 0,0 m -0.524,-1.307 0.672,-0.075 c 0.011,-0.083 0.037,-0.138 0.079,-0.169 0.057,-0.043 0.145,-0.064 0.267,-0.064 0.157,0 0.274,0.023 0.352,0.069 0.051,0.031 0.092,0.081 0.12,0.15 0.017,0.05 0.028,0.142 0.028,0.275 l 0.002,0.327 C 0.814,-1.036 0.591,-1.155 0.32,-1.155 c -0.3,0 -0.539,0.125 -0.715,0.378 -0.137,0.198 -0.208,0.446 -0.208,0.744 0,0.372 0.092,0.657 0.272,0.853 0.181,0.197 0.405,0.293 0.675,0.293 0.275,0 0.507,-0.119 0.686,-0.361 l 0,0.317 0.552,0 0,-2.002 C 1.582,-1.196 1.56,-1.393 1.515,-1.521 1.471,-1.653 1.41,-1.756 1.331,-1.83 1.253,-1.904 1.148,-1.962 1.016,-2.005 0.885,-2.046 0.721,-2.067 0.519,-2.067 c -0.379,0 -0.649,0.066 -0.808,0.195 -0.158,0.13 -0.235,0.294 -0.235,0.494 l 0,0.071 z"
               inkscape:connector-curvature="0" />
          </g>
          <g
             transform="translate(397.2461,197.873)"
             id="g76052">
            <path
               id="path76054"
               style="fill:#ffffff;fill-opacity:1;fill-rule:nonzero;stroke:none"
               d="m 0,0 c -0.005,0.172 -0.048,0.301 -0.131,0.391 -0.085,0.088 -0.185,0.132 -0.307,0.132 -0.128,0 -0.235,-0.045 -0.318,-0.14 C -0.84,0.29 -0.883,0.162 -0.879,0 L 0,0 z M -0.04,-0.6 0.549,-0.697 C 0.474,-0.911 0.354,-1.074 0.192,-1.188 0.03,-1.298 -0.172,-1.354 -0.416,-1.354 c -0.386,0 -0.669,0.125 -0.855,0.378 -0.147,0.205 -0.219,0.46 -0.219,0.769 0,0.371 0.095,0.659 0.288,0.868 0.19,0.21 0.433,0.313 0.728,0.313 0.331,0 0.591,-0.109 0.781,-0.328 0.191,-0.218 0.282,-0.554 0.274,-1.007 l -1.474,0 c 0.005,-0.176 0.053,-0.31 0.145,-0.41 0.09,-0.095 0.202,-0.145 0.336,-0.145 0.092,0 0.169,0.025 0.231,0.075 0.063,0.048 0.11,0.13 0.141,0.241"
               inkscape:connector-curvature="0" />
          </g>
          <g
             transform="translate(399.3311,198.8027)"
             id="g76056">
            <path
               id="path76058"
               style="fill:#ffffff;fill-opacity:1;fill-rule:nonzero;stroke:none"
               d="m 0,0 0,-0.47 -0.398,0 0,-0.901 c 0,-0.182 0.002,-0.289 0.009,-0.319 0.009,-0.03 0.026,-0.055 0.052,-0.074 0.03,-0.02 0.061,-0.031 0.1,-0.031 0.054,0 0.133,0.02 0.235,0.058 l 0.042,-0.46 c -0.134,-0.057 -0.287,-0.087 -0.457,-0.087 -0.105,0 -0.2,0.016 -0.283,0.054 -0.086,0.037 -0.149,0.081 -0.185,0.137 -0.041,0.056 -0.068,0.135 -0.082,0.231 -0.012,0.067 -0.019,0.208 -0.019,0.419 l 0,0.973 -0.272,0 0,0.47 0.272,0 0,0.439 0.588,0.349 L -0.398,0 0,0 z"
               inkscape:connector-curvature="0" />
          </g>
          <path
             id="path76060"
             style="fill:#ffffff;fill-opacity:1;fill-rule:nonzero;stroke:none"
             d="m 399.734,197.163 0.585,0 0,-0.585 -0.585,0 0,0.585 z"
             inkscape:connector-curvature="0" />
          <g
             transform="translate(402.8584,198.1387)"
             id="g76062">
            <path
               id="path76064"
               style="fill:#ffffff;fill-opacity:1;fill-rule:nonzero;stroke:none"
               d="M 0,0 -0.58,-0.104 C -0.599,0.011 -0.644,0.1 -0.712,0.157 -0.779,0.215 -0.87,0.245 -0.979,0.245 c -0.146,0 -0.262,-0.051 -0.348,-0.152 -0.086,-0.101 -0.132,-0.273 -0.132,-0.51 0,-0.267 0.047,-0.453 0.134,-0.562 0.089,-0.109 0.209,-0.163 0.359,-0.163 0.112,0 0.202,0.031 0.275,0.096 0.07,0.064 0.123,0.172 0.149,0.33 L 0.034,-0.813 C -0.027,-1.079 -0.142,-1.28 -0.311,-1.416 -0.479,-1.554 -0.708,-1.62 -0.992,-1.62 c -0.324,0 -0.583,0.104 -0.778,0.307 -0.191,0.207 -0.288,0.491 -0.288,0.856 0,0.368 0.097,0.653 0.289,0.859 0.194,0.206 0.456,0.306 0.785,0.306 0.269,0 0.485,-0.056 0.642,-0.174 C -0.183,0.418 -0.068,0.24 0,0"
               inkscape:connector-curvature="0" />
          </g>
          <g
             transform="translate(403.7725,197.6816)"
             id="g76066">
            <path
               id="path76068"
               style="fill:#ffffff;fill-opacity:1;fill-rule:nonzero;stroke:none"
               d="m 0,0 c 0,-0.22 0.052,-0.391 0.155,-0.509 0.107,-0.118 0.238,-0.176 0.389,-0.176 0.156,0 0.284,0.058 0.388,0.176 0.104,0.118 0.157,0.291 0.157,0.515 0,0.218 -0.053,0.389 -0.157,0.506 C 0.828,0.628 0.7,0.689 0.544,0.689 0.393,0.689 0.262,0.628 0.155,0.512 0.052,0.395 0,0.224 0,0 m -0.6,0.032 c 0,0.197 0.048,0.387 0.142,0.57 0.097,0.183 0.234,0.324 0.411,0.419 0.177,0.096 0.374,0.144 0.591,0.144 0.338,0 0.613,-0.108 0.829,-0.327 C 1.589,0.619 1.696,0.343 1.696,0.007 1.696,-0.327 1.588,-0.61 1.371,-0.83 1.153,-1.052 0.879,-1.163 0.55,-1.163 c -0.204,0 -0.4,0.045 -0.583,0.139 -0.187,0.091 -0.328,0.226 -0.425,0.405 -0.094,0.18 -0.142,0.395 -0.142,0.651"
               inkscape:connector-curvature="0" />
          </g>
          <g
             transform="translate(405.8857,198.8027)"
             id="g76070">
            <path
               id="path76072"
               style="fill:#ffffff;fill-opacity:1;fill-rule:nonzero;stroke:none"
               d="m 0,0 0.541,0 0,-0.303 c 0.194,0.233 0.424,0.347 0.691,0.347 0.145,0 0.269,-0.027 0.372,-0.087 0.105,-0.06 0.19,-0.148 0.256,-0.266 0.098,0.118 0.204,0.206 0.314,0.266 0.114,0.06 0.235,0.087 0.364,0.087 0.162,0 0.302,-0.033 0.413,-0.097 0.113,-0.067 0.197,-0.164 0.253,-0.293 0.04,-0.095 0.061,-0.249 0.061,-0.461 l 0,-1.418 -0.586,0 0,1.266 c 0,0.221 -0.022,0.364 -0.062,0.428 -0.054,0.082 -0.138,0.125 -0.251,0.125 -0.082,0 -0.158,-0.026 -0.233,-0.074 C 2.063,-0.531 2.009,-0.605 1.977,-0.702 1.946,-0.798 1.93,-0.952 1.93,-1.161 l 0,-1.064 -0.587,0 0,1.214 c 0,0.218 -0.012,0.356 -0.031,0.419 -0.022,0.061 -0.053,0.109 -0.099,0.14 -0.044,0.03 -0.104,0.046 -0.178,0.046 -0.093,0 -0.173,-0.026 -0.245,-0.073 C 0.717,-0.529 0.664,-0.599 0.634,-0.689 0.601,-0.782 0.586,-0.934 0.586,-1.148 l 0,-1.077 L 0,-2.225 0,0 z"
               inkscape:connector-curvature="0" />
          </g>
          <path
             id="path76074"
             style="fill:#ffffff;fill-opacity:1;fill-rule:nonzero;stroke:none"
             d="m 409.735,197.163 0.585,0 0,-0.585 -0.585,0 0,0.585 z"
             inkscape:connector-curvature="0" />
          <g
             transform="translate(412.9502,196.5781)"
             id="g76076">
            <path
               id="path76078"
               style="fill:#ffffff;fill-opacity:1;fill-rule:nonzero;stroke:none"
               d="m 0,0 -0.588,0 0,1.131 c 0,0.24 -0.012,0.394 -0.038,0.465 C -0.649,1.667 -0.691,1.721 -0.748,1.759 -0.803,1.8 -0.872,1.818 -0.953,1.818 -1.055,1.818 -1.146,1.791 -1.226,1.734 -1.309,1.679 -1.362,1.605 -1.393,1.512 -1.424,1.422 -1.438,1.252 -1.438,1.004 l 0,-1.004 -0.586,0 0,2.225 0.547,0 0,-0.327 c 0.194,0.249 0.437,0.371 0.732,0.371 0.13,0 0.247,-0.023 0.353,-0.07 C -0.284,2.154 -0.202,2.093 -0.146,2.02 -0.092,1.949 -0.053,1.868 -0.031,1.774 -0.012,1.683 0,1.549 0,1.379 L 0,0 z"
               inkscape:connector-curvature="0" />
          </g>
          <path
             id="path76080"
             style="fill:#ffffff;fill-opacity:1;fill-rule:nonzero;stroke:none"
             d="m 413.542,198.803 0.587,0 0,-2.225 -0.587,0 0,2.225 z m 0,0.845 0.587,0 0,-0.541 -0.587,0 0,0.541 z"
             inkscape:connector-curvature="0" />
          <g
             transform="translate(414.0557,206.9668)"
             id="g76082">
            <path
               id="path76084"
               style="fill:#f8a12e;fill-opacity:1;fill-rule:nonzero;stroke:none"
               d="m 0,0 0,-6.541 -9.206,0 L 0,0 z"
               inkscape:connector-curvature="0" />
          </g>
          <g
             transform="translate(413.416,206.8535)"
             id="g76086">
            <path
               id="path76088"
               style="fill:#f8a12e;fill-opacity:1;fill-rule:nonzero;stroke:none"
               d="m 0,0 -28.223,0 0,-6.313 L 0,0 z"
               inkscape:connector-curvature="0" />
          </g>
          <g
             transform="translate(415.1328,206.9014)"
             id="g76090">
            <path
               id="path76092"
               style="fill:#ffffff;fill-opacity:1;fill-rule:nonzero;stroke:none"
               d="m 0,0 0,0.165 0.11,0 C 0.167,0.165 0.225,0.153 0.225,0.088 0.225,0.005 0.164,0 0.097,0 L 0,0 z m 0,-0.065 0.092,0 0.14,-0.231 0.09,0 -0.15,0.233 c 0.077,0.009 0.137,0.05 0.137,0.146 0,0.104 -0.06,0.149 -0.187,0.149 l -0.201,0 0,-0.528 0.079,0 0,0.231 z M 0.1,-0.49 c 0.247,0 0.462,0.194 0.462,0.459 0,0.263 -0.215,0.457 -0.462,0.457 -0.256,0 -0.468,-0.194 -0.468,-0.457 0,-0.265 0.212,-0.459 0.468,-0.459 m -0.375,0.459 c 0,0.218 0.162,0.38 0.375,0.38 0.205,0 0.369,-0.162 0.369,-0.38 0,-0.22 -0.164,-0.382 -0.369,-0.382 -0.213,0 -0.375,0.162 -0.375,0.382"
               inkscape:connector-curvature="0" />
          </g>
          <g
             transform="translate(389.0361,209.3359)"
             id="g76094">
            <path
               id="path76096"
               style="fill:#ffffff;fill-opacity:1;fill-rule:nonzero;stroke:none"
               d="m 0,0 c -0.171,-0.695 -0.865,-0.672 -0.865,-0.672 l -1.27,0 0,2.16 1.292,0 C -0.356,1.367 -0.109,1.158 0,0.829 0.111,0.5 0,0 0,0 m -2.135,4.65 1.292,0 c 0.487,-0.122 0.672,-0.33 0.78,-0.659 0.113,-0.331 0,-0.612 0,-0.612 -0.168,-0.695 -0.802,-0.67 -0.802,-0.67 l -1.27,0 0,1.941 z M 1.819,0.694 C 1.661,2.122 0.149,2.134 0.149,2.134 1.502,2.271 1.661,3.467 1.661,3.467 1.697,3.744 1.638,4.368 1.638,4.368 1.306,5.883 -0.415,5.809 -0.415,5.809 l -3.416,0 0,-7.642 3.66,0 c 2.417,0.124 1.99,2.527 1.99,2.527"
               inkscape:connector-curvature="0" />
          </g>
          <g
             transform="translate(391.1973,212.8516)"
             id="g76098">
            <path
               id="path76100"
               style="fill:#ffffff;fill-opacity:1;fill-rule:nonzero;stroke:none"
               d="m 0,0 1.648,0 0,-3.811 c 0,0 -0.012,-0.779 0.647,-0.744 0,0 0.56,-0.049 0.61,0.563 l 0,3.992 1.599,0 0,-5.349 -1.575,0 0,0.562 c 0,0 -0.524,-0.754 -1.427,-0.731 0,0 -1.37,-0.06 -1.467,1.247 L 0,0 z"
               inkscape:connector-curvature="0" />
          </g>
          <g
             transform="translate(398.5332,208.2871)"
             id="g76102">
            <path
               id="path76104"
               style="fill:#ffffff;fill-opacity:1;fill-rule:nonzero;stroke:none"
               d="m 0,0 c 0,0 -0.636,-0.146 -0.709,0.976 l 0,1.865 c 0,0 -0.085,0.891 0.636,0.917 0,0 0.502,0.097 0.708,-0.819 l 0,-2.212 C 0.521,0.362 0.33,0.043 0,0 m 0.635,6.907 0,-2.889 c -0.275,0.345 -0.774,0.78 -1.538,0.706 0,0 -1.113,0.011 -1.368,-1.428 0,0 -0.183,-2.225 0.087,-3.064 0,0 0.352,-1.271 1.609,-1.173 0,0 0.686,-0.116 1.21,0.607 l 0,-0.51 1.659,0 0,7.751 -1.659,0 z"
               inkscape:connector-curvature="0" />
          </g>
          <g
             transform="translate(403.585,208.4922)"
             id="g76106">
            <path
               id="path76108"
               style="fill:#ffffff;fill-opacity:1;fill-rule:nonzero;stroke:none"
               d="m 0,0 c -0.72,0.027 -0.633,0.917 -0.633,0.917 l 0,1.658 C -0.561,3.697 0.074,3.553 0.074,3.553 0.401,3.509 0.596,3.188 0.707,2.822 l 0,-2.005 C 0.503,-0.096 0,0 0,0 m 2.363,-1.061 0.008,0 0,5.457 -1.664,0 0,-0.512 C 0.188,4.606 -0.498,4.492 -0.498,4.492 -1.755,4.588 -2.109,3.32 -2.109,3.32 -2.381,2.479 -2.194,0.464 -2.194,0.464 c 0.255,-1.44 1.365,-1.426 1.365,-1.426 0.762,-0.077 1.264,0.357 1.536,0.704 l 0,-0.75 -0.012,-0.006 0,-0.645 c 0,0 0.051,-0.756 -0.597,-0.794 0,0 -0.634,-0.061 -0.621,0.819 l -1.599,0 c 0,0 -0.035,-1.452 1.61,-1.613 0,0 1.282,-0.074 1.674,0.087 0.38,0.155 1.303,0.488 1.201,2.099"
               inkscape:connector-curvature="0" />
          </g>
          <g
             transform="translate(408.0283,210.7744)"
             id="g76110">
            <path
               id="path76112"
               style="fill:#ffffff;fill-opacity:1;fill-rule:nonzero;stroke:none"
               d="M 0,0 C -0.109,1.504 0.893,1.245 0.893,1.245 1.66,1.172 1.503,0 1.503,0 L 0,0 z m 0.024,-0.878 3.114,0 C 3.187,0.244 3.002,0.782 3.002,0.782 2.637,2.296 0.685,2.173 0.685,2.173 c -1.892,0.063 -2.2,-1.281 -2.2,-1.281 -0.113,-0.677 -0.157,-0.829 -0.108,-2.233 0.065,-1.871 1.54,-2.026 1.54,-2.026 0.291,-0.087 1.22,-0.073 1.22,-0.073 1.951,0.144 1.988,1.928 1.988,1.928 l -1.611,0 C 1.563,-2.55 0.733,-2.466 0.733,-2.466 -0.022,-2.402 0.024,-1.465 0.024,-1.465 l 0,0.587 z"
               inkscape:connector-curvature="0" />
          </g>
          <g
             transform="translate(414.0703,212.8516)"
             id="g76114">
            <path
               id="path76116"
               style="fill:#ffffff;fill-opacity:1;fill-rule:nonzero;stroke:none"
               d="m 0,0 -0.854,0 0,1.512 -1.611,-0.694 0,-5.044 c 0,0 0,-1.133 1.257,-1.207 l 1.208,0 0,0.941 -0.463,0 c 0,0 -0.37,-0.051 -0.379,0.513 -0.006,0.285 -0.008,1.711 -0.011,3.04 L 0,-0.939 0,0 z"
               inkscape:connector-curvature="0" />
          </g>
        </g>
      </g>
    </g>
  </g>
</svg>
