<svg xmlns="http://www.w3.org/2000/svg" width="450" height="152.72"><path fill="#011936" d="M0 0h450v152.72H0z"/><path d="M67.88 80.235h43.672V15.49l-43.67 64.745" fill="#f57d14"/><path d="M13.683 14.448v65.787l97.87-65.787h-97.87" fill="#ed451e"/><path d="M148.403 41.477c1.984 0 5.192-.118 7.077-1.023 2.85-1.564 3.76-4.013 3.76-7.73 0-4-2.41-6.368-4.435-7.317-1.546-.78-3.544-1.112-6.663-1.112h-9.127v17.182h9.388zm1.784 28.895c2.838 0 5.048-.335 6.776-1.03 3.542-1.59 5.656-4.485 5.732-8.715 0-4.037-2.268-7.13-5.738-8.615-2.503-1.043-4.553-1.118-7.64-1.118h-10.302v19.478h11.172zm-22.16 9.863V14.448h22.83c8.883 0 19.616 4.68 19.616 17.048 0 7.387-3.46 12.13-6.57 13.896 8.37 3.215 10.007 11.168 10.007 15.856 0 10.514-8.67 18.987-22.458 18.987h-23.425zm95.92-24.34V30.65H213.14v25.245c0 8.976-4.594 14.77-11.787 14.77-7.173 0-11.767-5.794-11.767-14.77V30.65H178.76v25.245c0 15.065 10.042 24.698 22.593 24.698 12.572 0 22.594-9.633 22.594-24.698zm30.037-16.343c-7.776 0-13.858 6.87-13.858 15.656 0 8.527 6.196 15.445 13.858 15.445 7.597 0 14.018-7.065 14.018-15.445 0-8.632-6.294-15.656-14.018-15.656zm0 41.04c-13.827 0-24.69-11.042-24.69-25.477 0-14.487 10.863-25.578 24.69-25.578 5.042 0 10.127 1.83 14.018 5.346V14.447H278.8V79.58h-10.53v-4.56c-3.866 3.664-9.044 5.573-14.286 5.573zm55.485-9.953c-7.776 0-13.86-6.93-13.86-15.71 0-8.533 6.2-15.452 13.86-15.452 7.595 0 14.017 7.065 14.017 15.452 0 8.624-6.295 15.71-14.018 15.71zm14.284-39.99v4.462c-3.865-3.664-9.044-5.575-14.285-5.575-13.83 0-24.67 11.04-24.67 25.484 0 14.484 10.84 25.575 24.67 25.575 5.04 0 10.126-1.83 14.017-5.347 0 0 2.184 18.677-14.284 18.677-6.943 0-11.844-4.988-14.045-8.746l-8.635 6.066c4.244 7.926 13.228 12.787 22.68 12.787 6.36 0 12.613-1.804 17.06-5.702 5.22-4.606 8.084-11.015 8.084-19.654V30.65h-10.593zm27.713 19.852c.39-2.928 3.94-11.096 12.766-11.096 8.56 0 12.31 7.915 12.646 11.096h-25.413zm29.78-14.04c-4.508-4.725-10.63-6.923-17.027-6.923-13.67 0-24.2 11.355-24.2 25.62 0 14.404 10.3 25.433 24.458 25.433 7.452 0 14.987-3.865 19.607-9.772l-8.43-5.91c-2.774 3.813-7.485 5.813-11.177 5.813-5.776 0-11.656-4.125-13.098-11.22h36.223s3.308-12.896-6.357-23.04zm31.076 34.25c-5.49 0-8.044-2.678-8.044-8.446V40.203h10.552V30.65H404.28V16.984h-10.8v45.283c0 11.46 6.568 18.327 17.144 18.327 2.205 0 4.388-.318 4.388-.318v-9.697c-1.356.116-2.124.134-2.69.134zM429.16 23.38c.793 0 1.71-.215 1.71-1.164 0-.855-.82-1.07-1.56-1.07h-1.286v2.234h1.136zm-2.54-3.427h2.754c1.466 0 2.908.613 2.908 2.295 0 1.132-.705 1.867-1.806 2.11l2.107 3.426h-1.714l-1.832-3.273h-1.014v3.274h-1.405v-7.83zm2.722 9.823c3.24 0 5.87-2.664 5.87-5.876 0-3.242-2.63-5.873-5.87-5.873s-5.876 2.63-5.876 5.873c0 3.212 2.637 5.876 5.876 5.876zm0-12.82c3.852 0 6.975 3.09 6.975 6.944s-3.123 6.883-6.975 6.883c-3.853 0-6.976-3.03-6.976-6.883 0-3.854 3.123-6.944 6.976-6.944" fill="#fff"/><g style="line-height:125%;-inkscape-font-specification:Cantarell" font-size="98.417" letter-spacing="0" word-spacing="0" fill="#fff" font-family="ArialMT" font-weight="bold"><path d="M13.683 127.987v-35.07h4.75l18.32 27.527h.1V92.916h4.407v35.07h-4.75L18.19 100.46h-.098v27.527h-4.41M48.397 127.987v-25.372h4.31v25.372h-4.31m0-30.173v-4.898h4.31v4.898h-4.31M75.714 118.68l4.262.54c-.196 1.208-.474 2.253-.833 3.134-.327.882-.768 1.65-1.322 2.302-.522.62-1.06 1.176-1.616 1.666-.555.49-1.126.882-1.714 1.175-.523.23-1.03.41-1.52.54-.488.13-.962.228-1.42.293-.49.065-.914.114-1.273.147-.326.065-.62.098-.882.098-2.09 0-3.885-.327-5.388-.98-1.47-.653-2.644-1.665-3.526-3.036-.88-1.34-1.55-2.76-2.008-4.263-.424-1.535-.636-3.15-.636-4.85 0-2.154.212-4 .636-5.534.458-1.568 1.144-2.84 2.058-3.82.914-.98 1.86-1.78 2.84-2.4 1.013-.62 2.058-1.046 3.136-1.274.26-.067.506-.1.734-.1.262-.032.507-.065.735-.097h.343c.13-.033.26-.05.392-.05.098-.03.196-.048.294-.048h.39c.296 0 .606.017.932.05.327 0 .653.032.98.097.36.033.718.098 1.078.196.358.098.734.212 1.126.343.196.066.392.148.588.246.196.098.408.196.637.293.195.097.39.212.588.342.195.098.39.213.587.343.392.262.75.572 1.078.93.36.327.686.703.98 1.128.26.39.49.767.685 1.126.196.358.343.717.44 1.077.1.326.18.653.246.98.097.326.162.62.195.88l-4.164.54c-.227-.85-.52-1.6-.88-2.253s-.8-1.176-1.323-1.568c-.522-.392-1.094-.686-1.714-.88-.588-.23-1.208-.344-1.86-.344-1.08 0-2.026.147-2.842.44-.783.294-1.436.735-1.96 1.323-.52.588-.962 1.192-1.32 1.812-.328.62-.573 1.274-.736 1.96-.098.392-.18.783-.245 1.175-.066.392-.115.768-.148 1.127-.035.358-.065.7-.098 1.027v1.617c0 .294.015.67.05 1.126.035.425.098.882.196 1.372.097.49.228.98.392 1.47.196.62.456 1.224.783 1.812.36.587.784 1.143 1.274 1.665s1.092.913 1.81 1.175c.752.26 1.618.39 2.597.39.784 0 1.47-.08 2.057-.243.62-.196 1.143-.458 1.568-.784.424-.36.783-.72 1.077-1.078.326-.392.604-.8.832-1.224.163-.294.294-.588.392-.882.098-.294.163-.588.196-.882.065-.294.114-.538.147-.734.035-.23.065-.41.098-.54v-.097M87.225 110.403l-4.212-.54c.065-.162.114-.358.146-.587.065-.26.147-.555.244-.882.066-.293.164-.604.294-.93.164-.327.36-.653.588-.98.327-.555.75-1.077 1.274-1.567.555-.49 1.224-.964 2.008-1.42.75-.458 1.698-.8 2.84-1.03 1.176-.228 2.532-.342 4.067-.342 2.155 0 3.9.212 5.24.637 1.372.39 2.32.996 2.84 1.812.557.816.98 1.682 1.275 2.596.294.914.457 1.86.49 2.84V121.082c.034 1.046.065 1.895.098 2.548.034.653.114 1.273.244 1.86.13.59.31 1.128.54 1.618.034.098.065.195.097.293.034.065.065.13.098.195.065.098.114.18.146.245l.147.147h-4.505c-.163-.26-.294-.54-.392-.832-.098-.294-.18-.588-.245-.882-.03-.26-.082-.506-.147-.735-.034-.228-.064-.424-.097-.588-.914.784-1.796 1.42-2.645 1.91-.816.49-1.6.85-2.35 1.078-.785.196-1.536.343-2.254.44-.72.132-1.42.197-2.106.197-1.405 0-2.645-.163-3.723-.49-1.045-.326-1.943-.832-2.694-1.518-.75-.686-1.32-1.453-1.714-2.302-.358-.882-.538-1.845-.538-2.89 0-1.045.13-1.96.392-2.743.294-.784.734-1.437 1.322-1.96.588-.555 1.192-1.028 1.813-1.42.653-.392 1.322-.702 2.008-.93.424-.13.832-.246 1.224-.344.425-.098.833-.18 1.225-.245.392-.065.75-.114 1.078-.146.36-.066.67-.115.93-.147.098 0 .278-.017.54-.05.293-.064.668-.113 1.126-.146.457-.065.93-.13 1.42-.196.49-.098.996-.196 1.518-.294.262-.065.523-.114.784-.147l.882-.196c.26-.064.506-.13.734-.195.262-.065.507-.147.735-.245v-.196-.293-.146-.147-.098-.148-.05-.097-.098-.05-.097-.098c-.035-.587-.164-1.16-.393-1.714-.195-.555-.473-1.078-.832-1.568-.36-.49-.963-.865-1.813-1.126-.816-.26-1.86-.392-3.135-.392-1.11 0-2.04.098-2.792.294-.75.196-1.338.473-1.763.833-.424.39-.783.8-1.077 1.223-.262.392-.474.817-.637 1.274-.035.033-.065.08-.098.147v.147c-.035.066-.065.13-.098.197v.147c-.035.097-.065.195-.098.293 0 .098-.015.196-.05.294v-.097m12.784 6.417v-1.567c-.26.163-.555.293-.88.39-.328.1-.67.197-1.03.295l-1.176.294c-.39.098-.783.18-1.175.245-.23.033-.474.082-.735.147-.228.033-.473.082-.735.147-.228.034-.473.066-.734.1-.23.032-.44.064-.637.097l-.392.098h-.343l-.39.098c-.1 0-.213.016-.343.05-.588.097-1.144.244-1.666.44-.52.196-1.01.424-1.468.686-.49.293-.85.684-1.078 1.174-.228.49-.343 1.078-.343 1.764v.636c.036.066.066.13.1.196.064.392.21.768.44 1.127.23.36.54.718.93 1.077.393.327.882.572 1.47.735.62.162 1.34.244 2.155.244.196 0 .425-.016.686-.05.295-.032.605-.064.932-.097.36-.065.718-.147 1.077-.245.358-.098.734-.228 1.126-.39.196-.067.392-.148.588-.246.196-.13.39-.262.587-.392.1-.066.198-.13.295-.196.098-.098.196-.18.294-.245.064-.098.146-.18.244-.245l.294-.294c.424-.457.767-.93 1.03-1.42.26-.49.44-.98.538-1.47.098-.49.18-.996.244-1.518.066-.523.098-1.045.098-1.568v-.098M110.72 127.987v-25.372h3.92v3.82h.097c.035 0 .05-.016.05-.05.035-.03.065-.064.098-.097v-.098c.035-.065.065-.114.098-.147.065-.065.114-.146.147-.244.065-.1.114-.197.147-.295.228-.425.49-.833.784-1.225.294-.392.637-.75 1.03-1.077.358-.36.8-.62 1.322-.784.522-.197 1.094-.295 1.714-.295.36 0 .686.033.98.098.326.033.636.082.93.147.164.033.31.082.44.147l.393.098c.097.065.195.114.293.147.13.033.245.08.343.147.098.064.196.13.293.195.098.032.196.08.294.147.065.032.13.08.196.146.097.033.18.066.245.098l-1.47 3.87c-.23-.065-.473-.147-.735-.245l-.784-.293c-.26-.098-.538-.163-.832-.196-.262-.064-.523-.097-.784-.097-.718 0-1.34.13-1.86.392-.524.26-.965.637-1.324 1.127-.326.49-.62 1.012-.88 1.567-.23.522-.41 1.077-.54 1.665l-.196.98c-.035.326-.05.636-.05.93-.035.294-.05.57-.05.833v13.959h-4.31M130.276 110.403l-4.213-.54c.065-.162.115-.358.147-.587.066-.26.147-.555.245-.882.065-.293.163-.604.294-.93.162-.327.358-.653.587-.98.326-.555.75-1.077 1.273-1.567.555-.49 1.225-.964 2.008-1.42.752-.458 1.7-.8 2.84-1.03 1.177-.228 2.532-.342 4.067-.342 2.155 0 3.902.212 5.24.637 1.372.39 2.32.996 2.842 1.812.555.816.98 1.682 1.273 2.596.294.914.458 1.86.49 2.84V121.082c.035 1.046.066 1.895.098 2.548.035.653.115 1.273.245 1.86.13.59.31 1.128.54 1.618.034.098.064.195.097.293.035.065.065.13.098.195.065.098.114.18.147.245l.147.147h-4.506c-.164-.26-.295-.54-.393-.832-.097-.294-.18-.588-.245-.882-.034-.26-.08-.506-.146-.735-.035-.228-.066-.424-.098-.588-.915.784-1.796 1.42-2.645 1.91-.818.49-1.6.85-2.352 1.078-.784.196-1.535.343-2.253.44-.72.132-1.42.197-2.107.197-1.404 0-2.645-.163-3.722-.49-1.046-.326-1.943-.832-2.694-1.518-.752-.686-1.323-1.453-1.715-2.302-.36-.882-.54-1.845-.54-2.89 0-1.045.132-1.96.393-2.743.294-.784.735-1.437 1.323-1.96.588-.555 1.19-1.028 1.812-1.42.653-.392 1.323-.702 2.008-.93.425-.13.833-.246 1.225-.344.424-.098.832-.18 1.225-.245.39-.065.75-.114 1.077-.146.36-.066.67-.115.93-.147.1 0 .278-.017.54-.05.293-.064.67-.113 1.126-.146.457-.065.93-.13 1.42-.196.49-.098.996-.196 1.52-.294.26-.065.522-.114.783-.147l.88-.196c.262-.064.506-.13.735-.195.26-.065.506-.147.735-.245v-.196-.293-.146-.147-.098-.148-.05-.097-.098-.05-.097-.098c-.035-.587-.163-1.16-.392-1.714-.196-.555-.474-1.078-.833-1.568-.36-.49-.963-.865-1.812-1.126-.816-.26-1.86-.392-3.135-.392-1.11 0-2.04.098-2.792.294-.75.196-1.34.473-1.763.833-.424.39-.784.8-1.078 1.223-.26.392-.473.817-.637 1.274-.034.033-.065.08-.098.147v.147c-.034.066-.065.13-.098.197v.147c-.034.097-.065.195-.098.293 0 .098-.015.196-.05.294v-.097m12.785 6.417v-1.567c-.262.163-.556.293-.883.39-.326.1-.67.197-1.028.295l-1.177.294c-.392.098-.784.18-1.175.245-.23.033-.474.082-.735.147-.23.033-.474.082-.735.147-.228.034-.473.066-.735.1-.23.032-.44.064-.637.097l-.39.098h-.344l-.392.098c-.098 0-.213.016-.343.05-.588.097-1.143.244-1.665.44-.523.196-1.013.424-1.47.686-.49.293-.85.684-1.077 1.174-.23.49-.343 1.078-.343 1.764v.636l.098.196c.065.392.212.768.44 1.127.23.36.54.718.93 1.077.393.327.883.572 1.47.735.62.162 1.34.244 2.156.244.196 0 .424-.016.685-.05.296-.032.606-.064.932-.097.36-.065.72-.147 1.078-.245.36-.098.735-.228 1.126-.39.197-.067.392-.148.588-.246l.588-.392.294-.196c.098-.098.196-.18.294-.245.065-.098.147-.18.245-.245l.294-.294c.423-.457.766-.93 1.027-1.42.26-.49.44-.98.54-1.47.097-.49.18-.996.244-1.518.066-.523.1-1.045.1-1.568v-.098M153.662 130.093l4.164.637c0 .098.015.212.05.343.034.13.065.26.098.392.034.163.065.31.098.44.065.164.146.327.244.49.164.294.376.572.637.833.26.294.588.555.98.784.392.26.898.44 1.518.54.654.13 1.39.195 2.205.195.654 0 1.257-.05 1.813-.147.588-.066 1.094-.18 1.518-.343.457-.163.85-.36 1.176-.588.36-.23.67-.49.93-.785.425-.457.752-.98.98-1.567.26-.588.44-1.225.54-1.91.064-.72.113-1.42.146-2.107.065-.717.098-1.452.098-2.203v-.05-.096-.097-.098l-.098-.098c-.065.13-.147.245-.245.343-.066.097-.13.18-.196.244l-.294.294-.196.196c-.13.13-.277.262-.44.392-.13.13-.278.245-.442.343-.457.326-.914.603-1.37.832-.458.228-.915.392-1.372.49-.425.097-.85.163-1.274.195h-1.177c-1.795 0-3.38-.31-4.75-.93-1.34-.62-2.483-1.568-3.43-2.84-.914-1.275-1.616-2.663-2.106-4.165-.457-1.534-.685-3.15-.685-4.85v-.44-.44-.44l.098-.49c.13-1.405.44-2.744.93-4.018.49-1.306 1.16-2.547 2.01-3.722.848-1.176 1.942-2.058 3.28-2.645 1.34-.588 2.906-.882 4.703-.882.26 0 .587.033.98.098.39.033.848.098 1.37.196.49.097.997.276 1.52.538.554.228 1.093.555 1.615.98l.196.195.294.196c.066.064.13.13.196.195.098.065.18.13.245.196.162.132.31.295.44.49.163.164.31.344.44.54l.1-.098v-3.037h3.966V125.586c-.035.196-.05.392-.05.588v.588c0 .13-.015.277-.05.44v.442c-.034.26-.065.538-.097.832-.036.294-.067.588-.1.882-.034.195-.064.39-.097.587-.035.196-.065.392-.098.587-.065.164-.115.343-.147.54-.035.195-.082.39-.147.587-.097.393-.21.752-.342 1.08-.13.325-.277.635-.44.93-.425.75-.948 1.387-1.568 1.91-.588.555-1.257.996-2.008 1.322-.752.36-1.52.637-2.303.833-.784.228-1.568.375-2.352.44h-.196c-.065 0-.13.017-.195.05H164.29c-.064 0-.13.016-.195.048h-.393c-.294 0-.604-.016-.93-.05-.327 0-.67-.03-1.03-.096l-.587-.098c-.196-.034-.375-.067-.54-.1l-.586-.097c-.197-.033-.393-.082-.588-.147-.72-.23-1.42-.54-2.107-.93-.685-.36-1.322-.817-1.91-1.373-.588-.555-1.028-1.257-1.323-2.106-.293-.816-.44-1.796-.44-2.94v-.097-.098-.048m3.526-15.234v.686c0 .26.015.588.05.98 0 .392.035.816.098 1.273.098.424.212.865.343 1.322.064.228.113.457.146.685.065.23.147.458.245.686.1.23.197.44.294.637.13.196.262.376.392.54.294.423.637.815 1.03 1.174.39.36.815.67 1.272.93.458.262.947.458 1.47.59.523.13 1.06.195 1.617.195.587 0 1.142-.067 1.665-.197.555-.13 1.06-.343 1.518-.637.457-.26.865-.555 1.225-.882.36-.36.685-.734.98-1.126.293-.457.538-.915.734-1.372.23-.457.392-.947.49-1.47.098-.522.18-1.044.245-1.567.065-.556.114-1.095.147-1.617v-.147-.147-.1-.097-.05-.097c0-1.436-.132-2.677-.393-3.722-.26-1.078-.67-1.96-1.225-2.645-.522-.687-1.077-1.258-1.665-1.716-.555-.457-1.16-.8-1.812-1.028-.164-.066-.327-.098-.49-.098l-.49-.098c-.164-.033-.327-.05-.49-.05-.163-.032-.327-.048-.49-.048-.947 0-1.828.196-2.645.588-.816.392-1.567.98-2.253 1.763-.685.784-1.192 1.764-1.518 2.94-.328 1.142-.49 2.48-.49 4.016v-.1M198.27 127.987v-3.722h-.1c-.227.36-.456.685-.684.98-.196.26-.41.505-.637.734-.23.228-.458.44-.687.636l-.686.49c-.522.36-1.06.636-1.616.832-.52.196-1.028.327-1.517.392-.49.065-.915.114-1.274.147-.36.065-.654.098-.883.098h-.49c-.098-.033-.195-.05-.293-.05h-.245c-.164-.032-.344-.064-.54-.097-.163 0-.327-.016-.49-.048-.555-.13-1.11-.278-1.665-.44-.523-.165-1.03-.393-1.52-.687-.488-.26-.93-.588-1.32-.98-.36-.392-.67-.832-.932-1.322-.035-.065-.08-.13-.147-.195-.035-.098-.065-.196-.098-.294-.034-.064-.065-.13-.098-.195-.034-.098-.065-.196-.098-.294-.13-.325-.245-.668-.343-1.028-.1-.36-.18-.734-.245-1.126-.035-.392-.066-.865-.1-1.42-.028-.588-.048-1.24-.048-1.96v-15.82h4.31v14.057c0 1.11.015 2.04.05 2.792.034.75.098 1.355.195 1.812.066.425.196.833.392 1.225.196.36.44.685.735.98.26.228.538.44.832.636.294.196.604.36.93.49.36.13.703.228 1.03.294.358.033.717.05 1.077.05.62 0 1.223-.067 1.81-.197.588-.164 1.16-.41 1.715-.735.555-.294 1.03-.637 1.42-1.03.425-.423.752-.897.98-1.42.196-.424.343-.848.44-1.273.132-.457.214-.898.246-1.322.066-.457.1-.898.1-1.323.034-.457.05-.914.05-1.37v-13.667h4.31v25.372h-3.87M212.263 110.403l-4.212-.54c.066-.162.115-.358.147-.587.066-.26.147-.555.245-.882.065-.293.164-.604.294-.93.164-.327.36-.653.588-.98.327-.555.75-1.077 1.273-1.567.556-.49 1.225-.964 2.01-1.42.75-.458 1.697-.8 2.84-1.03 1.175-.228 2.53-.342 4.065-.342 2.156 0 3.903.212 5.24.637 1.373.39 2.32.996 2.842 1.812.555.816.98 1.682 1.274 2.596.294.914.457 1.86.49 2.84V121.082c.034 1.046.065 1.895.098 2.548.03.653.114 1.273.245 1.86.13.59.31 1.128.54 1.618.034.098.065.195.097.293.035.065.066.13.098.195.065.098.115.18.147.245l.147.147h-4.507c-.164-.26-.294-.54-.392-.832-.097-.294-.18-.588-.244-.882-.035-.26-.082-.506-.147-.735-.036-.228-.066-.424-.1-.588-.913.784-1.795 1.42-2.644 1.91-.816.49-1.6.85-2.35 1.078-.785.196-1.536.343-2.254.44-.718.132-1.42.197-2.107.197-1.404 0-2.644-.163-3.722-.49-1.045-.326-1.943-.832-2.694-1.518-.752-.686-1.324-1.453-1.716-2.302-.36-.882-.538-1.845-.538-2.89 0-1.045.13-1.96.392-2.743.293-.784.734-1.437 1.322-1.96.588-.555 1.192-1.028 1.813-1.42.653-.392 1.322-.702 2.008-.93.425-.13.834-.246 1.225-.344.425-.098.833-.18 1.225-.245.392-.065.75-.114 1.078-.146.358-.066.67-.115.93-.147.098 0 .278-.017.54-.05.293-.064.668-.113 1.126-.146.456-.065.93-.13 1.42-.196.49-.098.996-.196 1.52-.294.26-.065.52-.114.782-.147l.882-.196c.26-.064.506-.13.734-.195.262-.065.507-.147.735-.245v-.196-.293-.146-.147-.098-.148-.05-.097-.098-.05-.097-.098c-.035-.587-.163-1.16-.392-1.714-.196-.555-.473-1.078-.832-1.568-.36-.49-.964-.865-1.812-1.126-.816-.26-1.86-.392-3.134-.392-1.11 0-2.042.098-2.793.294-.75.196-1.338.473-1.763.833-.424.39-.784.8-1.077 1.223-.262.392-.474.817-.637 1.274-.035.033-.066.08-.098.147v.147c-.035.066-.066.13-.098.197v.147c-.035.097-.065.195-.098.293 0 .098-.015.196-.05.294v-.097m12.784 6.417v-1.567c-.26.163-.555.293-.88.39-.328.1-.67.197-1.03.295l-1.176.294c-.39.098-.784.18-1.175.245-.23.033-.474.082-.735.147-.228.033-.473.082-.734.147-.23.034-.474.066-.736.1-.228.032-.44.064-.636.097l-.392.098h-.343l-.393.098c-.097 0-.212.016-.343.05-.588.097-1.143.244-1.665.44-.523.196-1.013.424-1.47.686-.49.293-.85.684-1.078 1.174-.23.49-.343 1.078-.343 1.764v.636c.03.066.064.13.097.196.065.392.212.768.44 1.127.23.36.54.718.93 1.077.394.327.883.572 1.47.735.62.162 1.34.244 2.156.244.196 0 .425-.016.686-.05.293-.032.603-.064.93-.097.36-.065.718-.147 1.077-.245.36-.098.735-.228 1.127-.39.196-.067.392-.148.588-.246.195-.13.39-.262.588-.392l.293-.196c.098-.098.196-.18.294-.245.066-.098.147-.18.245-.245l.294-.294c.424-.457.767-.93 1.03-1.42.26-.49.44-.98.537-1.47.098-.49.18-.996.245-1.518.066-.523.098-1.045.098-1.568v-.098" style="text-align:start;line-height:125%;-inkscape-font-specification:ArialMT Bold"/></g></svg>