<svg xmlns="http://www.w3.org/2000/svg" width="480" height="479.992"><path d="M440.433 240.103c0 109.354-88.654 198.008-198.007 198.008-109.354 0-198.004-88.653-198.004-198.007 0-109.358 88.65-198.008 198.004-198.008 109.353 0 198.007 88.65 198.007 198.008" fill="#fff"/><path d="M239.998 428.84c-104.3 0-188.853-84.553-188.853-188.846 0-104.292 84.553-188.852 188.853-188.852 104.304 0 188.842 84.56 188.842 188.852 0 104.293-84.538 188.846-188.842 188.846m0-428.84C107.458 0 0 107.446 0 239.994c0 132.552 107.457 239.998 239.998 239.998C372.543 479.992 480 372.546 480 239.994 480 107.446 372.543 0 239.998 0" fill="#f99b1c"/><path d="M30.632 286.827c-.71.278-1.306.666-1.81 1.223-.658.767-.828 1.768-.557 3.003.414 1.734 1.577 2.713 3.45 2.957 1.032.106 2.326-.015 3.907-.39 1.505-.362 2.664-.818 3.503-1.375 1.475-.993 2.013-2.35 1.618-4.056-.297-1.205-.832-1.98-1.592-2.334-.75-.36-1.677-.47-2.727-.33l-1.257-5.318c1.58-.26 3.187-.038 4.798.647 2.62 1.084 4.324 3.202 5.084 6.374.748 3.172.372 5.73-1.148 7.672-1.505 1.942-3.8 3.274-6.886 4.015-3.477.82-6.344.632-8.598-.59-2.25-1.197-3.718-3.26-4.414-6.168-.595-2.488-.516-4.637.203-6.473.726-1.848 2.453-3.233 5.15-4.192l1.277 5.332zM30.303 264.775c.245.308.46.628.632.952.192.334.362.794.546 1.366l.396 1.174c.34 1.113.692 1.89 1.042 2.336.595.76 1.404 1.073 2.435.952.918-.128 1.565-.46 1.896-1.02.342-.556.485-1.2.39-1.93-.17-1.147-.635-2.16-1.452-3.048-.8-.888-2.103-1.223-3.906-1.038l-1.98.255zm-2.085 3.544c-.26-.957-.496-1.65-.748-2.048-.422-.715-.98-1.027-1.667-.944-.828.11-1.37.474-1.615 1.098-.252.625-.308 1.49-.158 2.627.158 1.257.587 2.11 1.276 2.566.512.312 1.16.477 1.95.507l.65 5.043c-1.75.12-3.247-.19-4.5-.926-1.927-1.178-3.108-3.47-3.537-6.856-.295-2.224-.118-4.24.503-6.07.61-1.825 2.156-2.897 4.613-3.217l9.377-1.2c.655-.075 1.445-.195 2.363-.32.69-.138 1.152-.3 1.374-.503.222-.2.414-.467.52-.828l.76-.092.737 5.71c-.392.202-.745.356-1.09.465-.355.102-.74.215-1.206.31.886.635 1.68 1.387 2.36 2.268.81 1.058 1.306 2.304 1.483 3.74.234 1.85-.094 3.422-.986 4.758-.914 1.332-2.333 2.13-4.27 2.37-2.51.316-4.456-.402-5.825-2.194-.75-.974-1.396-2.464-1.912-4.49l-.452-1.775zm-16.884-4.505l6.205 4.87.492 3.788-5.968-2.825-.73-5.833zM18.816 227.664c.338-.873.937-1.66 1.753-2.37.722-.558 1.598-.945 2.645-1.13.684-.12 1.697-.177 3.01-.158l12.888.166-.05 5.437-13.023-.12c-.77-.016-1.414.097-1.92.337-.958.482-1.436 1.36-1.436 2.642-.015 1.493.576 2.528 1.8 3.096.638.3 1.425.444 2.35.474l12.158.113-.052 5.32-12.09-.112c-1.227-.01-2.09.102-2.642.336-.982.447-1.483 1.332-1.498 2.637-.026 1.528.452 2.567 1.438 3.1.564.29 1.388.44 2.498.456l12.234.12-.06 5.328-20.377-.203.027-5.1 2.98.035c-1.01-.674-1.742-1.302-2.17-1.897-.758-1.042-1.13-2.38-1.12-4.03.027-1.557.362-2.814 1.04-3.755.628-.775 1.41-1.358 2.39-1.742-1.15-.715-1.992-1.588-2.522-2.634-.538-1.11-.798-2.337-.787-3.684.013-.903.186-1.784.536-2.664M31.657 206.937c.162.357.294.726.376 1.09.083.355.136.855.155 1.472l.056 1.226c.038 1.15.154 1.99.38 2.52.358.897 1.06 1.423 2.085 1.566.924.136 1.617-.015 2.098-.463.478-.448.783-1.024.88-1.754.17-1.15-.014-2.265-.552-3.326-.53-1.062-1.69-1.743-3.47-2.044l-2.01-.29zm-2.96 2.844c.03-.996-.024-1.718-.163-2.166-.21-.802-.655-1.253-1.347-1.362-.82-.117-1.45.09-1.867.617-.387.544-.662 1.376-.84 2.486-.18 1.26 0 2.2.532 2.8.414.46.993.79 1.753 1.03l-.73 5.04c-1.727-.362-3.097-1.066-4.083-2.104-1.554-1.66-2.084-4.17-1.58-7.57.327-2.202 1.04-4.122 2.14-5.702 1.077-1.588 2.846-2.213 5.303-1.85l9.35 1.372c.656.09 1.442.207 2.368.31.703.07 1.18.036 1.456-.1.262-.12.515-.35.73-.654l.752.105-.84 5.694c-.425.105-.824.147-1.185.165-.36.008-.775 0-1.223-.026.685.835 1.23 1.795 1.663 2.818.478 1.242.62 2.578.41 4.015-.263 1.82-1.004 3.258-2.23 4.308-1.23 1.04-2.83 1.41-4.75 1.13-2.513-.374-4.195-1.597-5.027-3.68-.463-1.138-.662-2.748-.617-4.84l.023-1.837zM25.74 182.393c.033-.056.09-.2.168-.43l5.242 1.27c-.098.316-.184.6-.256.872-.075.237-.132.452-.165.595-.513 2.092-.16 3.654 1.022 4.692.67.59 1.8 1.07 3.394 1.46l9.505 2.292-1.26 5.174-19.8-4.77 1.17-4.882 3.42.817c-1.124-1.13-1.873-2.04-2.2-2.747-.59-1.163-.693-2.54-.316-4.094.02-.09.052-.177.075-.25M41.206 169.804c.09.39.154.775.158 1.136.01.38-.004.873-.11 1.475l-.172 1.223c-.166 1.12-.196 1.983-.072 2.54.196.963.783 1.596 1.776 1.934.866.294 1.588.267 2.14-.09.55-.34.953-.854 1.19-1.547.373-1.106.38-2.227.046-3.375-.332-1.144-1.34-2.036-3.048-2.645l-1.908-.65zm-3.424 2.27c.2-.983.274-1.698.233-2.17-.06-.823-.422-1.35-1.084-1.583-.793-.266-1.433-.187-1.94.28-.478.44-.904 1.21-1.284 2.276-.406 1.212-.4 2.16.015 2.864.314.515.83.952 1.548 1.32l-1.656 4.836c-1.614-.685-2.833-1.63-3.62-2.826-1.21-1.9-1.283-4.482-.177-7.722.723-2.126 1.765-3.86 3.14-5.23 1.36-1.358 3.212-1.64 5.56-.84l8.948 3.038c.618.222 1.363.466 2.262.745.674.192 1.15.245 1.45.162.296-.08.578-.244.827-.515l.722.237-1.848 5.46c-.44.01-.84 0-1.2-.06-.346-.057-.756-.128-1.2-.245.515.955.895 1.982 1.125 3.077.253 1.302.136 2.634-.323 4.02-.594 1.737-1.584 3.02-2.984 3.822-1.403.797-3.02.88-4.88.247-2.386-.812-3.82-2.333-4.28-4.526-.217-1.207-.145-2.833.276-4.876l.372-1.79zM49.52 129.847c1.603-.64 3.53-.347 5.783.87l12.113 6.546-2.604 4.828-10.946-5.918c-.945-.523-1.75-.794-2.39-.82-1.173-.042-2.1.557-2.792 1.844-.835 1.557-.737 3 .298 4.308.564.685 1.384 1.336 2.513 1.93l9.73 5.28-2.54 4.688-17.918-9.7 2.454-4.57 2.605 1.416c-.602-1.106-.964-2.017-1.07-2.773-.195-1.332.076-2.747.874-4.21 1.01-1.83 2.287-3.067 3.89-3.718M53.31 121.685l2.924-4.455 17.05 11.206-2.928 4.448-17.046-11.2zm.907-5.783l-2.943 4.45-4.052-2.678 2.924-4.448 4.07 2.676zM73.32 106.126c-.665-.383-1.358-.59-2.08-.654-1.024-.03-1.92.447-2.687 1.44-1.103 1.427-1.163 2.943-.158 4.546.55.873 1.46 1.81 2.728 2.808 1.223.944 2.318 1.572 3.27 1.87 1.7.534 3.093.1 4.17-1.272.76-.975 1.042-1.874.835-2.698-.207-.817-.68-1.596-1.45-2.333l3.37-4.316c1.18 1.072 2.027 2.472 2.5 4.165.803 2.717.193 5.385-1.828 7.948-2.002 2.57-4.225 3.868-6.68 3.905-2.456.038-4.95-.936-7.442-2.874-2.822-2.193-4.455-4.545-4.926-7.07-.46-2.52.23-4.948 2.07-7.32 1.577-1.997 3.293-3.29 5.19-3.875 1.873-.57 4.037-.11 6.486 1.42l-3.367 4.31zM90.33 92.06c-.093.395-.206.763-.345 1.11-.15.35-.4.767-.727 1.283l-.68 1.03c-.637.94-1.024 1.71-1.156 2.274-.214.933.034 1.768.78 2.49.673.64 1.327.93 1.975.843.662-.08 1.23-.398 1.738-.906.81-.847 1.306-1.844 1.49-3.033.188-1.17-.36-2.396-1.633-3.69l-1.44-1.4zm-4.074.594c.594-.798.978-1.43 1.14-1.863.297-.77.192-1.398-.313-1.88-.61-.587-1.234-.783-1.862-.587-.64.207-1.36.707-2.155 1.524-.877.918-1.268 1.783-1.193 2.6.07.587.35 1.193.83 1.84l-3.536 3.67c-1.204-1.3-1.896-2.66-2.1-4.09-.293-2.248.75-4.596 3.14-7.072 1.553-1.603 3.224-2.735 5.056-3.386 1.806-.664 3.613-.13 5.39 1.594l6.794 6.57c.486.455 1.054.99 1.75 1.622.523.46.937.722 1.246.77.282.054.613.02.967-.1l.544.51-4 4.144c-.39-.17-.756-.357-1.05-.54-.293-.216-.628-.46-.993-.754.073 1.1-.02 2.19-.29 3.26-.318 1.297-.977 2.463-1.993 3.51-1.275 1.33-2.728 2.054-4.323 2.178-1.61.14-3.127-.478-4.527-1.83-1.83-1.77-2.46-3.74-1.93-5.925.297-1.194 1.068-2.628 2.302-4.302l1.106-1.464zM99.788 68.685c.064-.03.195-.113.384-.25l3.533 4.084c-.28.2-.52.38-.726.54-.193.16-.37.29-.487.404-1.625 1.4-2.257 2.867-1.896 4.402.214.866.84 1.923 1.9 3.165l6.408 7.4-4.03 3.476-13.328-15.432 3.797-3.278 2.3 2.657c-.257-1.562-.325-2.732-.197-3.514.215-1.288.926-2.455 2.14-3.497.065-.068.133-.113.2-.158M119.68 67.437c-.16.377-.326.72-.544 1.035-.204.3-.505.69-.937 1.125l-.852.896c-.798.83-1.32 1.497-1.546 2.028-.384.882-.28 1.747.338 2.59.53.753 1.133 1.148 1.773 1.19.666.033 1.27-.167 1.874-.596.952-.666 1.618-1.565 2.02-2.694.384-1.125.08-2.434-.952-3.932l-1.174-1.64zm-4.104-.146c.734-.68 1.215-1.22 1.44-1.62.438-.716.453-1.36.05-1.917-.504-.677-1.076-.985-1.735-.91-.665.086-1.463.463-2.38 1.117-1.02.746-1.585 1.517-1.656 2.35-.023.59.113 1.255.48 1.95l-4.157 2.967c-.914-1.483-1.35-2.966-1.294-4.384.105-2.273 1.56-4.407 4.354-6.4 1.802-1.307 3.668-2.108 5.58-2.42 1.896-.32 3.578.523 5.016 2.543l5.505 7.67c.388.537.854 1.17 1.42 1.914.43.557.796.888 1.07.99.302.11.618.132.994.057l.437.635-4.667 3.346c-.384-.24-.696-.49-.948-.742-.25-.255-.53-.553-.828-.9-.14 1.08-.43 2.135-.88 3.15-.554 1.205-1.416 2.25-2.586 3.08-1.5 1.086-3.05 1.538-4.65 1.383-1.622-.166-2.98-1.04-4.128-2.627-1.46-2.062-1.76-4.11-.84-6.183.51-1.117 1.525-2.38 3.06-3.8l1.344-1.25zM141.208 59.114c.282-1.234-.09-2.77-1.1-4.59-.95-1.683-2.035-2.78-3.24-3.278-1.2-.497-2.4-.414-3.574.248-1.614.892-2.29 2.307-2.04 4.196.155.99.55 2.1 1.246 3.308.576 1.042 1.265 1.874 2.07 2.483 1.467 1.18 3.014 1.307 4.628.396 1.07-.598 1.727-1.52 2.01-2.762m-8.723-11.955c1.392-.15 2.777.188 4.177 1.064l-1.422-2.52 4.572-2.57 9.437 16.83c1.278 2.285 1.865 4.238 1.75 5.84-.2 2.73-2.2 5.148-5.95 7.26-2.27 1.28-4.373 1.873-6.296 1.79-1.926-.082-3.477-.97-4.617-2.645l5.042-2.827c.443.47.865.726 1.286.805.742.143 1.686-.116 2.86-.782 1.67-.93 2.472-2.104 2.42-3.54-.042-.912-.527-2.22-1.472-3.9l-.624-1.117c-.027.992-.185 1.83-.5 2.494-.513 1.204-1.513 2.216-2.98 3.048-2.262 1.268-4.54 1.475-6.793.632-2.235-.836-4.15-2.638-5.674-5.385-1.48-2.642-2.08-5.235-1.788-7.764.29-2.536 1.64-4.48 4.023-5.813.9-.5 1.734-.806 2.547-.904M153.375 28.855l4.492-1.86 1.698 4.072-4.497 1.87-1.693-4.082zm-1.75 8.884l4.707 11.333c.43 1.07.896 1.817 1.374 2.25.84.764 1.92.88 3.24.343 1.674-.7 2.536-1.852 2.6-3.462.015-.88-.222-1.92-.72-3.124l-4.255-10.223 4.927-2.044 7.815 18.834-4.703 1.945-1.126-2.675c-.015.082-.068.297-.12.666-.072.376-.185.715-.343 1.038-.485 1.03-1.03 1.81-1.64 2.364-.613.546-1.41 1.03-2.374 1.43-2.796 1.167-5.084.933-6.898-.696-1-.87-1.945-2.393-2.844-4.53l-4.704-11.342 5.065-2.107zm-5.13-6.018l4.498-1.87 1.682 4.075-4.486 1.863-1.694-4.068zM177.238 33.69c-.512.936-.69 2.076-.497 3.38l8.822-2.54c-.47-1.32-1.197-2.21-2.236-2.655-1.012-.474-2.137-.527-3.345-.173-1.3.38-2.223 1.053-2.742 1.987m6.352-6.62c1.54.23 2.927.86 4.192 1.926 1.132.94 2.04 2.14 2.705 3.62.41.858.84 2.145 1.295 3.838l-14.134 4.076c.655 1.98 1.75 3.194 3.26 3.62.913.285 1.926.263 3.02-.057 1.163-.327 2.01-.91 2.556-1.742.312-.443.523-1.03.67-1.71l5.14-1.476c.18 1.19-.095 2.536-.87 4.056-1.196 2.397-3.364 4.038-6.49 4.952-2.59.734-5.11.598-7.538-.437-2.446-1.046-4.184-3.375-5.234-6.99-.97-3.403-.824-6.255.448-8.562 1.25-2.333 3.307-3.898 6.156-4.715 1.7-.496 3.315-.62 4.824-.398M210.12 22.442c1.5.858 2.455 2.555 2.89 5.088l2.285 13.58-5.403.915-2.066-12.275c-.166-1.057-.46-1.86-.828-2.37-.685-.953-1.742-1.314-3.153-1.073-1.77.297-2.826 1.268-3.217 2.87-.22.874-.22 1.93 0 3.177l1.85 10.924-5.245.884-3.394-20.102 5.09-.85.505 2.91c.48-1.15.993-1.992 1.494-2.545.954-.982 2.222-1.618 3.878-1.904 2.062-.33 3.842-.09 5.313.772M224.25 33.91c.157.92.435 1.572.838 1.933.707.685 1.964.964 3.763.854 1.065-.056 1.9-.26 2.507-.602.602-.327.88-.81.854-1.445-.04-.583-.304-1.008-.797-1.305-.508-.267-2.404-.704-5.682-1.287-2.362-.433-4.03-1.073-5.02-1.882-.97-.786-1.5-1.98-1.598-3.57-.105-1.882.546-3.534 1.957-4.975 1.4-1.414 3.457-2.208 6.14-2.355 2.53-.15 4.65.245 6.307 1.163 1.667.93 2.68 2.63 3.05 5.087l-5.3.3c-.12-.683-.336-1.23-.686-1.617-.627-.688-1.654-.997-3.07-.91-1.17.056-1.978.286-2.464.677-.48.39-.703.832-.662 1.31.023.624.324 1.053.865 1.31.534.255 2.41.646 5.64 1.162 2.14.387 3.748 1.05 4.847 2.01 1.076.947 1.644 2.193 1.746 3.71.097 2.02-.565 3.698-1.976 5.053-1.445 1.35-3.71 2.122-6.848 2.284-3.17.184-5.574-.357-7.17-1.607-1.588-1.268-2.438-2.927-2.57-5.004l5.33-.294zM248.007 24.597c-.798.723-1.324 1.735-1.58 3.033l9.192.467c-.038-1.4-.452-2.484-1.265-3.248-.816-.76-1.86-1.19-3.116-1.242-1.37-.072-2.458.267-3.233.99m8.154-4.196c1.38.7 2.49 1.764 3.335 3.176.775 1.256 1.23 2.69 1.4 4.297.094.944.087 2.29-.023 4.056l-14.7-.73c-.024 2.09.616 3.59 1.892 4.483.794.572 1.746.87 2.897.937 1.205.056 2.2-.215 2.992-.832.422-.33.825-.798 1.17-1.41l5.352.27c-.204 1.193-.926 2.382-2.145 3.57-1.917 1.87-4.49 2.733-7.75 2.564-2.693-.128-5.015-1.092-6.98-2.853-1.97-1.788-2.87-4.543-2.682-8.305.17-3.515 1.242-6.175 3.187-7.966 1.945-1.79 4.4-2.62 7.36-2.46 1.75.095 3.33.487 4.696 1.202M287.363 39.847c1.02-.955 1.724-2.31 2.11-4.075.536-2.48.32-4.376-.687-5.723-.63-.79-1.423-1.322-2.435-1.53-1.512-.35-2.772 0-3.724 1.01-.978 1.015-1.656 2.378-2.043 4.112-.395 1.863-.362 3.432.11 4.723.488 1.272 1.466 2.08 2.945 2.397 1.468.316 2.706.02 3.725-.915m1.87-14.618c.828.73 1.415 1.62 1.8 2.7l2.065-9.384 5.197 1.144-5.897 26.814-4.967-1.084.58-2.675c-.997.993-2.024 1.663-3.104 1.983-1.068.32-2.3.327-3.71 0-2.337-.497-4.083-1.867-5.245-4.105-1.18-2.24-1.44-4.84-.778-7.808.745-3.402 2.1-5.92 4.105-7.53 2.002-1.603 4.3-2.13 6.924-1.547 1.2.268 2.22.757 3.034 1.49M307.023 35.043c-.978.478-1.75 1.306-2.363 2.487l8.71 2.96c.363-1.357.25-2.505-.326-3.468-.576-.967-1.45-1.633-2.645-2.047-1.296-.436-2.42-.406-3.377.068m8.986-1.806c1.12 1.053 1.903 2.397 2.328 3.988.388 1.42.456 2.92.17 4.516-.17.926-.557 2.225-1.137 3.888l-13.918-4.745c-.602 2.01-.425 3.612.584 4.835.598.764 1.44 1.328 2.517 1.693 1.14.39 2.18.393 3.104.02.505-.188 1.005-.545 1.51-1.02l5.068 1.724c-.516 1.09-1.532 2.05-3.04 2.83-2.345 1.294-5.077 1.4-8.15.353-2.545-.87-4.528-2.427-5.94-4.666-1.41-2.24-1.508-5.154-.29-8.717 1.138-3.346 2.895-5.596 5.258-6.78 2.352-1.18 4.94-1.3 7.752-.343 1.663.556 3.06 1.377 4.184 2.427M332.276 62.206l-4.76-2.382 12.316-24.538 4.764 2.382-12.32 24.538zM352.094 62.035c-.406 0-.81-.022-1.17-.094-.362-.063-.824-.213-1.415-.424l-1.145-.433c-1.07-.414-1.9-.62-2.47-.62-.97-.02-1.726.413-2.268 1.31-.48.785-.594 1.493-.387 2.11.23.613.65 1.114 1.268 1.498 1.005.606 2.1.862 3.285.78 1.178-.064 2.28-.866 3.255-2.405l1.046-1.72zm-1.486-3.834c.918.396 1.603.64 2.058.697.835.11 1.42-.12 1.776-.715.444-.722.497-1.37.166-1.953-.34-.57-.99-1.17-1.96-1.758-1.085-.65-2.022-.854-2.808-.595-.557.192-1.09.595-1.61 1.204l-4.362-2.644c1.012-1.437 2.19-2.427 3.537-2.935 2.14-.77 4.655-.274 7.586 1.503 1.91 1.17 3.377 2.558 4.427 4.18 1.03 1.63.918 3.507-.38 5.626l-4.904 8.066c-.342.557-.745 1.25-1.207 2.055-.324.622-.49 1.088-.478 1.382.007.305.116.617.335.933l-.418.65-4.91-2.99c.078-.433.176-.802.315-1.148.125-.35.3-.723.512-1.125-1.05.297-2.14.448-3.25.43-1.326-.035-2.612-.427-3.858-1.18-1.58-.96-2.608-2.212-3.093-3.732-.473-1.55-.202-3.153.8-4.828 1.323-2.163 3.11-3.217 5.353-3.187 1.242.02 2.804.455 4.708 1.306l1.668.76zM382.085 80.446c.41-.64.65-1.33.745-2.055.075-1.007-.372-1.918-1.324-2.742-1.378-1.163-2.883-1.283-4.535-.37-.89.52-1.87 1.382-2.92 2.613-1 1.17-1.68 2.24-2.027 3.177-.598 1.678-.237 3.093 1.095 4.222.952.808 1.825 1.13 2.657.962.824-.17 1.633-.613 2.4-1.343l4.143 3.554c-1.113 1.137-2.54 1.9-4.263 2.315-2.758.657-5.377-.058-7.86-2.176-2.458-2.123-3.68-4.418-3.598-6.87.083-2.462 1.144-4.897 3.22-7.298 2.3-2.705 4.742-4.248 7.27-4.598 2.518-.354 4.945.444 7.21 2.408 1.935 1.637 3.143 3.425 3.658 5.344.486 1.904-.083 4.05-1.716 6.412l-4.155-3.556zM393.04 102.314c1.376-.15 2.825-.926 4.31-2.318 1.495-1.41 2.36-2.777 2.586-4.154.237-1.35-.188-2.608-1.245-3.76-1.068-1.128-2.302-1.633-3.69-1.493-1.37.13-2.812.902-4.305 2.31-1.494 1.387-2.36 2.784-2.585 4.153-.24 1.377.184 2.63 1.253 3.778 1.068 1.138 2.295 1.634 3.676 1.484m.778 5.08c-2.732.203-5.268-.982-7.654-3.53-2.386-2.547-3.394-5.163-3.03-7.86.355-2.695 1.642-5.058 3.8-7.094 2.14-1.994 4.555-3.1 7.313-3.31 2.717-.223 5.275.95 7.68 3.498 2.386 2.544 3.375 5.17 2.988 7.884-.384 2.72-1.64 5.076-3.778 7.078-2.172 2.028-4.595 3.146-7.32 3.334M421.362 115.592c-.094 1.724-1.182 3.36-3.23 4.866l-11.08 8.192-3.255-4.395 10.005-7.402c.862-.64 1.434-1.246 1.746-1.814.53-1.04.365-2.134-.48-3.297-1.07-1.434-2.406-1.953-4.047-1.57-.856.215-1.786.686-2.794 1.446l-8.907 6.595-3.17-4.278 16.358-12.136 3.093 4.156-2.358 1.753c1.234-.076 2.223 0 2.942.21 1.302.38 2.454 1.245 3.455 2.585 1.24 1.674 1.797 3.372 1.722 5.087M417.397 133.137c-.745.572-1.2 1.114-1.362 1.656-.263.926.072 2.16.967 3.725.546.918 1.084 1.577 1.678 1.95.58.383 1.133.432 1.667.112.508-.3.776-.718.798-1.302.015-.572-.46-2.457-1.426-5.644-.675-2.307-.88-4.087-.614-5.317.27-1.238 1.076-2.25 2.472-3.06 1.625-.932 3.402-1.113 5.298-.507 1.923.594 3.552 2.062 4.918 4.384 1.272 2.208 1.885 4.27 1.81 6.16-.068 1.91-1.114 3.574-3.134 5.038l-2.68-4.606c.56-.414.93-.846 1.126-1.332.32-.865.143-1.927-.565-3.15-.6-1.015-1.177-1.64-1.74-1.896-.554-.237-1.066-.237-1.472 0-.538.31-.794.764-.768 1.358.023.606.523 2.458 1.516 5.566.636 2.084.78 3.83.44 5.234-.383 1.388-1.23 2.465-2.547 3.232-1.74 1.016-3.542 1.19-5.393.53-1.836-.643-3.567-2.32-5.133-5.038-1.618-2.754-2.216-5.136-1.828-7.13.39-1.998 1.497-3.51 3.296-4.553l2.675 4.59zM434.174 142.756l3.37-1.595 1.206 2.54 5.162-2.43 2.262 4.82-5.155 2.435 1.398 2.965-3.38 1.59-1.398-2.956-9.773 4.613c-.76.354-1.185.674-1.294.952-.094.266.09.89.542 1.873.08.124.15.294.233.44.09.155.188.31.275.452l-3.568 1.697-1.215-2.228c-1.163-2.25-1.494-3.988-1.008-5.234.286-.805 1.008-1.48 2.163-2.032l11.383-5.362-1.204-2.54zM449.258 166.62c.012.07.064.227.12.45l-5.042 1.96c-.094-.34-.184-.614-.267-.862-.08-.252-.148-.44-.212-.602-.778-1.994-1.952-3.09-3.525-3.26-.87-.104-2.09.14-3.617.743l-9.098 3.524-1.934-4.96 19.002-7.37 1.825 4.68-3.28 1.276c1.558.28 2.694.613 3.372.993 1.155.625 2.005 1.705 2.592 3.188.027.098.053.174.064.24M452.147 177.29l-11.82 3.308c-1.11.313-1.907.685-2.4 1.1-.87.756-1.11 1.798-.726 3.168.497 1.753 1.54 2.765 3.135 3.002.862.132 1.923.008 3.176-.338l10.66-2.996 1.44 5.114-19.617 5.528-1.396-4.926 2.81-.782-.65-.207c-.365-.108-.69-.26-.99-.455-.952-.594-1.663-1.238-2.137-1.923-.474-.673-.862-1.52-1.144-2.513-.817-2.917-.3-5.175 1.5-6.763 1.006-.896 2.62-1.66 4.855-2.277l11.832-3.315 1.475 5.276zM452.09 210.235c.74-.207 1.358-.572 1.893-1.076.71-.728.974-1.71.77-2.948-.29-1.78-1.36-2.848-3.21-3.213-1.026-.186-2.332-.148-3.935.112-1.528.233-2.71.602-3.582 1.095-1.554.895-2.19 2.212-1.904 3.936.2 1.22.655 2.035 1.4 2.445.733.41 1.63.587 2.705.516l.854 5.42c-1.58.13-3.167-.193-4.744-1-2.528-1.282-4.064-3.517-4.59-6.738-.516-3.232.045-5.746 1.693-7.578 1.655-1.81 4.044-2.973 7.164-3.477 3.537-.586 6.385-.176 8.538 1.2 2.148 1.374 3.46 3.53 3.943 6.484.406 2.514.177 4.66-.677 6.443-.847 1.772-2.672 3.036-5.438 3.796l-.88-5.418zM454.113 232.87c.75-.16 1.418-.453 2.01-.893.782-.658 1.132-1.595 1.064-2.84-.094-1.796-1.06-2.98-2.86-3.545-.997-.302-2.295-.392-3.917-.305-1.54.086-2.762.323-3.688.73-1.633.726-2.393 1.945-2.3 3.695.065 1.234.442 2.092 1.145 2.593.685.477 1.562.74 2.623.8l.297 5.472c-1.595-.05-3.146-.534-4.628-1.497-2.383-1.543-3.67-3.936-3.832-7.2-.2-3.25.636-5.696 2.48-7.336 1.82-1.63 4.312-2.533 7.477-2.717 3.567-.196 6.36.504 8.36 2.1 1.984 1.59 3.068 3.875 3.237 6.867.154 2.525-.3 4.65-1.362 6.336-1.024 1.667-2.965 2.732-5.814 3.184l-.293-5.445zM463.676 249.12l.14-5.313 4.85.128-.136 5.313-4.854-.127zm-2.303-5.377l-.135 5.317-20.376-.52.14-5.316 20.37.52zM467.555 272.66l-4.892-6.21.43-3.78 5.116 4.15-.655 5.84zm-22.84-5.254c1.01.96 2.53 1.543 4.578 1.77 2.02.232 3.64-.013 4.82-.73 1.19-.71 1.867-1.84 2.036-3.392.18-1.565-.234-2.814-1.235-3.774-1.008-.956-2.525-1.562-4.542-1.765-2.043-.233-3.66 0-4.86.715-1.206.72-1.88 1.855-2.052 3.413-.176 1.566.257 2.807 1.254 3.763m-3.353 3.89c-1.922-1.94-2.66-4.635-2.29-8.104.395-3.474 1.723-5.95 4.01-7.413 2.28-1.473 4.92-2.052 7.865-1.728 2.898.32 5.328 1.463 7.266 3.405 1.932 1.934 2.722 4.64 2.334 8.102-.387 3.48-1.734 5.948-4.056 7.408-2.318 1.478-4.933 2.043-7.823 1.723-2.97-.323-5.39-1.46-7.304-3.393M452.998 297.585c-1.366 1.057-3.308 1.27-5.803.7l-13.418-3.105 1.23-5.336 12.124 2.815c1.05.236 1.887.285 2.515.142 1.152-.264 1.863-1.1 2.205-2.51.388-1.723-.086-3.09-1.426-4.083-.726-.51-1.697-.91-2.93-1.197l-10.8-2.49 1.203-5.202 19.857 4.603-1.16 5.04-2.88-.67c.872.895 1.455 1.69 1.782 2.385.542 1.25.63 2.66.268 4.29-.475 2.028-1.393 3.57-2.766 4.617M67.238 342.75c.11.918-.038 1.904-.444 2.932-.362.816-.97 1.57-1.795 2.235-.543.425-1.412.952-2.583 1.558L50.97 355.39l-2.513-4.843 11.56-5.994c.673-.362 1.18-.772 1.516-1.223.61-.862.643-1.863.04-3.003-.683-1.32-1.71-1.945-3.043-1.89-.734.057-1.48.283-2.295.7l-10.8 5.62-2.46-4.74 10.746-5.57c1.077-.558 1.792-1.08 2.165-1.548.666-.855.677-1.867.068-3.01-.685-1.38-1.615-2.063-2.71-2.078-.628 0-1.448.255-2.42.763l-10.86 5.65-2.452-4.73 18.085-9.397 2.356 4.523-2.626 1.36c1.2.112 2.145.334 2.788.65 1.16.557 2.145 1.573 2.883 3.037.734 1.384 1.02 2.653.877 3.81-.2.97-.625 1.86-1.306 2.654 1.347.088 2.517.468 3.473 1.138.99.726 1.783 1.686 2.42 2.886.41.8.672 1.674.778 2.596M70.868 366.26c-.384-.153-.723-.334-1.035-.533-.308-.203-.692-.52-1.132-.94l-.903-.847c-.827-.802-1.486-1.33-2.024-1.547-.88-.39-1.75-.282-2.6.335-.745.538-1.13 1.136-1.17 1.784-.042.654.158 1.28.587 1.88.677.934 1.572 1.596 2.71 1.995 1.13.38 2.437.076 3.927-.948l1.64-1.18zm.14-4.104c.646.73 1.215 1.204 1.61 1.445.718.426 1.354.45 1.923.03.69-.492.99-1.07.9-1.734-.075-.662-.448-1.452-1.114-2.37-.753-1.035-1.528-1.592-2.337-1.652-.595-.042-1.246.128-1.98.478l-2.976-4.128c1.497-.95 2.968-1.377 4.413-1.32 2.243.104 4.384 1.553 6.4 4.34 1.296 1.792 2.105 3.66 2.428 5.567.328 1.912-.527 3.583-2.536 5.028l-7.658 5.524c-.53.384-1.175.858-1.923 1.415-.543.444-.886.805-.987 1.09-.094.298-.117.614-.057.99l-.628.426-3.353-4.662c.24-.364.482-.673.738-.94.263-.27.553-.534.9-.832-1.073-.13-2.138-.42-3.15-.865-1.212-.55-2.24-1.415-3.086-2.59-1.084-1.508-1.554-3.062-1.396-4.654.17-1.596 1.028-2.98 2.64-4.114 2.034-1.482 4.1-1.768 6.155-.85 1.12.49 2.39 1.5 3.815 3.022l1.257 1.358zM96.506 382.114c.072 1.723-.813 3.443-2.713 5.177l-10.14 9.31-3.71-4.037 9.184-8.4c.794-.744 1.295-1.41 1.528-2 .433-1.088.15-2.168-.82-3.225-1.2-1.313-2.593-1.69-4.174-1.137-.83.302-1.707.874-2.64 1.725l-8.154 7.495-3.613-3.928 15.03-13.776 3.5 3.808-2.172 2.013c1.212-.21 2.194-.248 2.955-.116 1.335.234 2.558.983 3.683 2.202 1.408 1.535 2.164 3.164 2.258 4.892M105.105 402.52c-.402-.06-.77-.172-1.117-.292-.365-.117-.802-.342-1.332-.643l-1.058-.625c-1-.583-1.772-.918-2.337-1.04-.954-.157-1.775.156-2.448.946-.606.707-.843 1.362-.723 2.024.108.636.45 1.193.996 1.682.885.75 1.92 1.193 3.112 1.314 1.17.12 2.394-.493 3.586-1.844l1.32-1.52zm-.83-4.036c.83.542 1.474.884 1.92 1.023.792.256 1.416.113 1.872-.414.564-.64.71-1.275.462-1.896-.226-.636-.764-1.317-1.637-2.05-.96-.836-1.852-1.18-2.653-1.058-.584.108-1.186.413-1.803.936l-3.876-3.33c1.255-1.257 2.572-2.032 3.983-2.31 2.23-.426 4.632.485 7.228 2.724 1.694 1.444 2.925 3.066 3.685 4.84.76 1.778.335 3.6-1.283 5.485l-6.164 7.15c-.432.504-.944 1.117-1.535 1.836-.425.565-.658.99-.7 1.288-.022.29.02.628.173.955l-.49.584-4.364-3.748c.154-.41.312-.776.497-1.077.187-.324.394-.666.67-1.028-1.074.132-2.17.09-3.264-.116-1.302-.242-2.513-.837-3.612-1.792-1.408-1.208-2.217-2.604-2.44-4.204-.213-1.59.314-3.123 1.578-4.61 1.656-1.914 3.594-2.678 5.81-2.276 1.197.23 2.675.926 4.418 2.07l1.524 1.016zM122.375 420.55c1.245-.31 2.43-1.334 3.59-3.05 1.098-1.618 1.587-3.075 1.478-4.365-.09-1.29-.707-2.322-1.82-3.075-1.536-1.046-3.083-1-4.66.06-.84.59-1.648 1.438-2.412 2.586-.66 1.012-1.097 1.994-1.278 2.984-.387 1.84.18 3.28 1.724 4.3 1.015.693 2.144.88 3.38.56m6.727-13.176c.77 1.17 1.08 2.566.94 4.214l1.622-2.412 4.34 2.924-10.756 16.02c-1.472 2.166-2.95 3.573-4.414 4.19-2.54 1.04-5.607.373-9.174-2.035-2.168-1.453-3.643-3.067-4.433-4.828-.803-1.754-.71-3.526.28-5.302l4.788 3.23c-.21.593-.268 1.097-.132 1.51.192.724.858 1.454 1.987 2.195 1.573 1.076 2.984 1.26 4.233.56.798-.45 1.738-1.46 2.826-3.058l.726-1.073c-.907.42-1.723.67-2.438.7-1.317.07-2.683-.366-4.083-1.307-2.156-1.448-3.364-3.375-3.627-5.764-.268-2.406.492-4.908 2.238-7.508 1.698-2.522 3.733-4.226 6.134-5.088 2.393-.892 4.738-.564 7.018.97.843.565 1.475 1.19 1.923 1.86M146.344 417.788l-5.542 10.935c-.508 1.03-.78 1.878-.806 2.525-.04 1.132.595 2.024 1.852 2.664 1.63.816 3.07.722 4.338-.282.662-.557 1.29-1.404 1.874-2.578l5.005-9.87 4.752 2.397-9.2 18.196-4.542-2.314 1.298-2.585c-.067.045-.255.147-.59.343-.32.18-.66.327-.994.425-1.096.29-2.048.38-2.876.27-.805-.112-1.685-.387-2.63-.865-2.69-1.358-4.01-3.255-3.974-5.682.027-1.328.565-3.025 1.62-5.114l5.53-10.935 4.884 2.468zM170.928 439.783c-.406.075-.78.132-1.15.132-.378.007-.867-.046-1.46-.14l-1.22-.195c-1.152-.203-1.984-.252-2.548-.143-.963.18-1.618.764-1.96 1.738-.32.866-.302 1.592.03 2.15.338.56.85.973 1.535 1.214 1.087.394 2.21.44 3.368.135 1.15-.31 2.054-1.314 2.71-3.003l.695-1.89zm-2.197-3.473c.97.226 1.683.312 2.16.27.813-.044 1.355-.383 1.6-1.045.293-.79.207-1.434-.245-1.946-.43-.494-1.19-.942-2.258-1.333-1.18-.433-2.14-.448-2.848-.04-.524.3-.96.808-1.363 1.508l-4.79-1.743c.71-1.625 1.666-2.814 2.897-3.57 1.934-1.193 4.508-1.193 7.736-.012 2.093.768 3.816 1.836 5.144 3.236 1.355 1.39 1.588 3.248.738 5.58l-3.232 8.88c-.222.614-.486 1.363-.768 2.24-.215.69-.28 1.16-.215 1.46.076.294.24.572.497.84l-.256.718-5.407-1.972c-.01-.433.012-.824.088-1.193.056-.35.14-.75.263-1.186-.96.493-1.997.85-3.096 1.05-1.31.23-2.642.098-4-.4-1.75-.627-3-1.662-3.774-3.073-.775-1.414-.81-3.036-.143-4.88.87-2.37 2.404-3.763 4.617-4.165 1.208-.22 2.833-.102 4.865.353l1.79.422zM178.798 457.34c1.133-.008 2.02-.283 2.694-.825.674-.542 1.22-1.41 1.614-2.596l-3.164-.856 1.43-5.362 5.584 1.502-1.238 4.64c-.215.816-.565 1.64-1 2.475-.468.827-1.077 1.49-1.83 1.975-.828.523-1.72.846-2.68.967-.955.128-1.598.147-1.94.05l.53-1.973zM225.42 441.672c1.21 1.23 1.672 3.13 1.39 5.674l-1.453 13.697-5.456-.58 1.318-12.38c.124-1.072.07-1.903-.147-2.516-.398-1.1-1.316-1.724-2.746-1.87-1.772-.208-3.055.432-3.88 1.896-.44.77-.722 1.783-.83 3.044l-1.21 11.018-5.286-.572 2.175-20.267 5.152.56-.32 2.928c.786-.975 1.516-1.652 2.145-2.043 1.18-.695 2.577-.955 4.24-.77 2.066.21 3.71.944 4.91 2.182M239.416 438.532l-5.325-.083.076-4.867 5.325.08-.074 4.87zm-5.362 2.344l5.317.086-.304 20.384-5.33-.094.318-20.376zM258.765 447.3c-.146-.745-.45-1.41-.925-1.995-.636-.775-1.596-1.11-2.85-1.023-1.8.135-2.96 1.102-3.49 2.916-.268.99-.362 2.295-.245 3.91.105 1.542.368 2.777.79 3.684.74 1.603 1.983 2.37 3.725 2.238 1.253-.08 2.1-.474 2.56-1.166.484-.71.74-1.58.766-2.645l5.475-.39c-.017 1.597-.503 3.143-1.432 4.64-1.475 2.42-3.857 3.73-7.105 3.978-3.255.226-5.712-.56-7.386-2.37-1.678-1.795-2.62-4.286-2.85-7.455-.25-3.556.408-6.348 1.97-8.372 1.553-2.035 3.82-3.153 6.818-3.363 2.525-.188 4.64.237 6.348 1.253 1.7 1.016 2.784 2.935 3.285 5.764l-5.453.396zM281.898 447.197c-.298.27-.602.504-.93.696-.316.2-.76.402-1.328.636l-1.148.428c-1.08.425-1.836.81-2.273 1.2-.738.62-.986 1.46-.798 2.476.177.918.53 1.52 1.125 1.84.568.3 1.223.4 1.93.27 1.144-.23 2.138-.748 2.962-1.602.834-.85 1.124-2.183.83-3.966l-.372-1.98zm-3.67-1.878c.96-.31 1.623-.596 1.995-.855.69-.467.975-1.04.858-1.716-.168-.833-.563-1.348-1.195-1.563-.618-.207-1.513-.207-2.612 0-1.264.233-2.092.708-2.49 1.423-.294.526-.43 1.174-.4 1.97l-5.023.95c-.21-1.754.02-3.27.688-4.55 1.054-1.99 3.274-3.307 6.646-3.94 2.193-.41 4.218-.35 6.077.15 1.87.54 3.03 2.003 3.485 4.456l1.73 9.287c.118.64.28 1.415.464 2.318.18.697.345 1.145.575 1.367.21.203.5.365.86.467l.122.756-5.648 1.038c-.22-.365-.42-.718-.536-1.057-.116-.334-.244-.72-.36-1.173-.577.93-1.303 1.75-2.146 2.495-1.004.854-2.235 1.422-3.654 1.686-1.817.35-3.416.1-4.8-.727-1.393-.815-2.24-2.192-2.6-4.115-.472-2.487.142-4.478 1.846-5.946.93-.798 2.394-1.52 4.377-2.16l1.742-.56zM301.96 430.732c.075-.02.218-.037.466-.075l1.494 5.178c-.33.07-.62.124-.884.207-.245.056-.44.113-.606.158-2.055.594-3.24 1.663-3.56 3.213-.165.87-.03 2.092.425 3.665l2.74 9.396-5.125 1.475-5.697-19.564 4.83-1.4.98 3.376c.417-1.543.84-2.638 1.287-3.29.726-1.072 1.85-1.847 3.4-2.287.092-.04.174-.053.25-.053M321.237 435.11c-.23.31-.497.62-.77.856-.257.26-.66.554-1.175.89l-1.043.665c-.972.6-1.64 1.137-1.99 1.592-.585.775-.68 1.633-.29 2.597.334.857.823 1.387 1.45 1.572.626.203 1.28.154 1.966-.117 1.057-.43 1.926-1.152 2.588-2.137.655-1.005.667-2.356.023-4.057l-.76-1.86zm-3.95-1.123c.872-.485 1.466-.892 1.8-1.23.577-.58.746-1.208.48-1.86-.302-.778-.798-1.2-1.465-1.286-.654-.078-1.52.087-2.577.51-1.167.48-1.89 1.105-2.156 1.88-.178.57-.178 1.253 0 2.02l-4.72 1.9c-.572-1.673-.65-3.197-.23-4.578.64-2.175 2.56-3.895 5.735-5.174 2.08-.832 4.083-1.174 5.998-1.046 1.923.154 3.357 1.38 4.27 3.687l3.53 8.76c.23.613.543 1.347.91 2.2.295.64.577 1.05.818 1.212.257.162.573.27.945.305l.283.69-5.336 2.147c-.305-.308-.56-.632-.75-.937-.18-.308-.372-.666-.582-1.083-.392 1.035-.918 1.99-1.6 2.863-.827 1.046-1.91 1.833-3.254 2.378-1.724.69-3.342.76-4.843.226-1.54-.54-2.657-1.715-3.38-3.528-.94-2.348-.718-4.41.663-6.194.734-.97 2.032-1.96 3.864-2.973l1.596-.888zM345.23 428.068c.287-1.242-.07-2.78-1.07-4.61-.93-1.696-1.992-2.807-3.2-3.315-1.193-.5-2.385-.432-3.57.215-1.615.888-2.307 2.27-2.063 4.165.11 1.01.516 2.127 1.182 3.33.57 1.054 1.244 1.89 2.057 2.526 1.445 1.17 2.995 1.312 4.602.43 1.083-.593 1.764-1.51 2.06-2.742m-8.6-12.034c1.388-.15 2.776.215 4.15 1.088l-1.393-2.525 4.602-2.53 9.275 16.93c1.257 2.31 1.82 4.256 1.69 5.848-.24 2.724-2.25 5.133-6.014 7.206-2.298 1.25-4.4 1.834-6.34 1.725-1.922-.106-3.435-1-4.58-2.698l5.078-2.77c.43.463.854.745 1.275.828.723.143 1.686-.106 2.875-.753 1.66-.925 2.476-2.092 2.438-3.514-.03-.926-.496-2.235-1.422-3.906l-.632-1.155c-.03 1.012-.192 1.828-.493 2.49-.532 1.22-1.548 2.22-3.02 3.026-2.28 1.253-4.537 1.44-6.795.564-2.242-.857-4.13-2.675-5.648-5.433-1.445-2.66-2.01-5.257-1.693-7.8.308-2.518 1.67-4.452 4.09-5.765.888-.487 1.746-.773 2.555-.856M353.79 405.485l7.173 9.942c.674.96 1.295 1.58 1.856 1.896 1.003.557 2.08.41 3.227-.433 1.483-1.06 2.058-2.382 1.746-3.966-.18-.846-.662-1.795-1.426-2.863l-6.46-8.978 4.304-3.11 11.918 16.53-4.12 2.983-1.705-2.356c0 .078 0 .297.026.67.048.38 0 .74-.076 1.09-.252 1.114-.606 2.002-1.065 2.668-.475.696-1.137 1.344-1.984 1.942-2.446 1.776-4.745 2.08-6.87.918-1.175-.628-2.454-1.885-3.8-3.77l-7.192-9.953 4.447-3.21zM384.646 393.798c-.11.39-.24.745-.414 1.09-.166.32-.433.738-.787 1.228l-.745.982c-.7.925-1.12 1.655-1.294 2.19-.28.933-.075 1.783.636 2.55.636.682 1.26.994 1.92.957.654-.042 1.252-.31 1.783-.813.857-.783 1.41-1.76 1.674-2.91.247-1.17-.215-2.43-1.42-3.803l-1.354-1.472zm-4.106.342c.648-.768 1.058-1.358 1.242-1.78.35-.756.28-1.392-.192-1.91-.568-.622-1.178-.844-1.81-.69-.658.158-1.403.625-2.23 1.388-.953.858-1.4 1.705-1.37 2.518.037.602.274 1.223.722 1.893l-3.763 3.45c-1.104-1.37-1.717-2.778-1.822-4.208-.17-2.26 1.016-4.55 3.544-6.867 1.64-1.505 3.39-2.544 5.23-3.082 1.856-.542 3.62.094 5.295 1.915l6.408 6.954c.437.497.982 1.065 1.61 1.735.52.497.915.775 1.216.843.29.075.61.056.983-.05l.508.565-4.228 3.88c-.4-.188-.745-.39-1.027-.61-.29-.222-.595-.493-.937-.797 0 1.087-.162 2.167-.49 3.232-.402 1.268-1.132 2.397-2.197 3.375-1.376 1.26-2.85 1.9-4.458 1.934-1.61.022-3.074-.674-4.395-2.115-1.712-1.87-2.25-3.865-1.577-6.025.36-1.174 1.216-2.555 2.563-4.162l1.177-1.388zM406.933 363.73c-.658-.388-1.347-.592-2.1-.644-.996-.015-1.888.46-2.652 1.482-1.09 1.41-1.143 2.928-.135 4.523.56.878 1.483 1.81 2.777 2.79 1.212.944 2.307 1.56 3.263 1.862 1.712.497 3.1.068 4.162-1.313.745-.994 1.034-1.905.816-2.714-.2-.81-.71-1.592-1.464-2.322l3.333-4.346c1.186 1.076 2.02 2.45 2.537 4.15.81 2.71.222 5.363-1.765 7.96-1.976 2.588-4.2 3.9-6.66 3.958-2.465.056-4.937-.888-7.462-2.826-2.826-2.164-4.482-4.497-4.982-7.01-.477-2.514.19-4.952 2.02-7.334 1.552-2.03 3.256-3.32 5.14-3.925 1.887-.597 4.05-.146 6.51 1.363l-3.337 4.346zM419.823 358.607l2.987-4.677 4.69 2.976-2.996 4.68-4.68-2.98zM428.305 335.035c.03.407.03.787-.007 1.17-.045.366-.155.828-.335 1.438l-.346 1.17c-.354 1.095-.512 1.93-.474 2.506.06.963.534 1.685 1.46 2.17.82.414 1.55.505 2.133.24.606-.27 1.065-.725 1.41-1.372.532-1.02.727-2.137.573-3.32-.16-1.18-1.04-2.197-2.635-3.07l-1.78-.933zm-3.733 1.724c.354-.938.523-1.63.565-2.112.064-.817-.21-1.385-.832-1.716-.752-.38-1.407-.392-1.956-.027-.55.388-1.093 1.07-1.62 2.074-.586 1.13-.733 2.072-.425 2.82.245.554.674 1.066 1.32 1.548l-2.343 4.515c-1.505-.907-2.57-2.01-3.16-3.326-.923-2.07-.592-4.63.996-7.662 1.027-1.983 2.31-3.556 3.86-4.7 1.555-1.143 3.436-1.143 5.63 0l8.4 4.365c.575.3 1.27.655 2.133 1.073.62.278 1.103.402 1.404.372.297-.022.59-.16.896-.372l.68.35-2.64 5.09c-.445-.048-.86-.108-1.182-.232-.35-.1-.738-.233-1.163-.42.37 1.03.594 2.1.655 3.21.056 1.335-.256 2.618-.918 3.92-.855 1.637-2.032 2.758-3.534 3.34-1.5.573-3.104.412-4.858-.484-2.235-1.17-3.432-2.88-3.526-5.114-.07-1.242.264-2.83.97-4.78l.648-1.733zM437.597 325.56l2.107-5.132 5.13 2.122-2.12 5.136-5.117-2.126z" fill="#fff"/><path d="M208.71 348.696H93.63L237.842 55.878 208.71 348.696zM271.276 348.696H386.36L242.148 55.878l29.13 292.818z" fill="#f99b1c"/></svg>