<svg xmlns="http://www.w3.org/2000/svg" width="400" height="386.658"><defs><clipPath id="a"><path d="M111.37 701.117h27.206V731H111.37v-29.883z"/></clipPath></defs><g clip-path="url(#a)" transform="matrix(14.7 0 0 -14.7 -1637.5 10748)"><path d="M135.312 722.53l-2.124-1.178s.057-7.407-5.914-7.407c-3.1 0-5.914 2.412-6.43 4.163l-1.637-.775s1.435-2.87 4.48-4.335l-.72-.46s-3.5 2.04-4.477 4.42l-1.608-.773s1.55-2.9 4.593-4.622l-.69-.546s-3.73 2.21-4.736 4.708l-1.723-.86s2.67-3.704 4.995-4.795l-.86-.574s-3.446 2.44-4.996 4.966l-2.096-1.005 10.163-8.755h13.78V722.53z" fill="#083d7a"/><path d="M127.58 710.83s1.216-.27 1.216-.68c0-.41-1.242-1.178-1.242-1.178l.025 1.857zm-1.717-.68c0 .41 1.217.68 1.217.68l.025-1.858s-1.242.77-1.242 1.178m6.108 8.362l.014.487-2.894-1.346s-.346-.064-.41-.614-.217-1.51-1.062-1.55v.333H127.042v-.333c-.846.04-1 1-1.063 1.55-.065.55-.41.614-.41.614L122.674 719l.013-.488 2.33-.986.026-.243-2.075.717.025-.358 2.036-.692.027-.294-1.716.46.04-.422 1.638-.37v-.245l-1.332.204.026-.294 1.396-.205.09-.205h-1.05v-.243h1.395l-.345-.487.217-.14.295.447.18-.102-.18-.41.192-.102.205.435.14-.038-.038-.487.243-.025-.013.473.205-.024v-.423h.204v.435h.166l.077-3.278s-1.256.295-1.55.564c-.294.27-.256.69.308.704 0 0 .206-.794.654-.73.448.064.166 1.088-.23 1.255-.398.166-1.59.128-1.64-.768-.05-.897.794-1.153.96-1.217.167-.064.743-.256.743-.256s-1.114-.448-1.114-.948c0-.5.973-1.152 1.28-1.306.308-.153.487-.332.487-.332s-.87-.654-.973-.884c-.102-.23.103-.23.243-.077.14.154.87.615.87.615l.052-1.82h.295l.05 1.82s.73-.46.872-.615c.14-.154.344-.154.242.077-.103.23-.973.884-.973.884s.178.18.485.332c.308.154 1.28.807 1.28 1.306 0 .5-1.113.948-1.113.948s.576.192.743.256c.166.064 1.01.32.96 1.217-.05.896-1.242.934-1.64.768-.396-.167-.678-1.19-.23-1.255.448-.064.653.73.653.73.564-.013.602-.435.308-.704-.294-.27-1.55-.564-1.55-.564l.077 3.278h.167v-.435h.204v.423l.205.025-.014-.472.244.025-.04.487.142.038.205-.435.192.102-.18.41.18.102.294-.448.217.14-.344.487h1.395v.243h-1.05l.09.205 1.397.205.026.294-1.332-.205v.243l1.64.37.038.424-1.716-.46.026.293 2.036.692.026.358-2.075-.717.026.243 2.33.986z" fill="#ee8615"/><path d="M127.31 716.015c.39 0 .704.315.704.704 0 .388-.315.703-.704.703-.39 0-.704-.315-.704-.704 0-.39.315-.705.704-.705" fill="#ee8615"/><path d="M112.864 729.17c-.074-.035-.25-.08-.472-.08-.64 0-.968.402-.968.93 0 .632.45.98 1.01.98.216 0 .38-.043.455-.082l-.09-.33c-.08.037-.2.07-.35.07-.33 0-.587-.2-.587-.615 0-.37.22-.603.59-.603.13 0 .266.024.35.06l.06-.33zM114.093 729.908l-.116.392c-.03.11-.062.25-.09.357h-.008c-.026-.11-.056-.25-.083-.357l-.113-.392h.41zm-.47-.312l-.128-.475h-.434l.566 1.85h.546l.577-1.85h-.452l-.143.476h-.532zM116.585 729.83c-.007.22-.015.487-.015.76h-.007c-.06-.237-.137-.5-.208-.717l-.225-.72h-.326l-.198.712c-.06.22-.12.48-.166.724h-.007c-.008-.25-.02-.536-.03-.766l-.036-.703h-.386l.12 1.85h.555l.18-.62c.062-.21.117-.44.158-.658h.01c.05.214.113.455.176.664l.194.614h.548l.1-1.85h-.407l-.03.71zM118.267 729.908l-.115.392c-.03.11-.063.25-.09.357h-.01c-.024-.11-.054-.25-.08-.357l-.114-.392h.41zm-.47-.312l-.128-.475h-.434l.565 1.85h.547l.575-1.85h-.45l-.142.476h-.532zM119.61 730.15h.166c.208 0 .33.104.33.266 0 .167-.114.255-.306.255-.1 0-.16-.004-.19-.012v-.508zm-.413.793c.134.024.332.04.557.04.274 0 .466-.04.598-.147.112-.088.172-.217.172-.387 0-.234-.167-.396-.326-.453v-.008c.13-.054.2-.175.247-.344.058-.212.112-.453.148-.524h-.428c-.027.052-.074.203-.126.43-.053.233-.133.294-.305.296h-.124v-.726h-.413v1.82zM121.77 729.908l-.114.392c-.03.11-.063.25-.09.357h-.01c-.024-.11-.054-.25-.08-.357l-.114-.392h.41zm-.468-.312l-.13-.475h-.432l.565 1.85h.546l.576-1.85h-.45l-.142.476h-.532zM111.84 726.852c.036-.008.097-.008.146-.008.382-.003.63.205.63.647 0 .4-.224.588-.586.588-.09 0-.154-.008-.19-.016v-1.21zm-.416 1.505c.154.028.354.042.562.042.354 0 .585-.058.76-.192.192-.143.313-.373.313-.702 0-.354-.13-.598-.306-.75-.195-.162-.494-.24-.855-.24-.218 0-.375.015-.476.03v1.81zM114.46 727.32h-.68v-.44h.76v-.343h-1.177v1.85h1.138v-.344h-.72v-.384h.68v-.34zM116.79 726.586c-.075-.036-.25-.08-.473-.08-.64 0-.968.4-.968.93 0 .63.45.98 1.008.98.217 0 .382-.044.456-.083l-.088-.33c-.082.037-.2.07-.35.07-.33 0-.588-.2-.588-.615 0-.37.22-.603.59-.603.13 0 .266.024.35.06l.06-.33zM117.813 726.84c.283 0 .444.265.444.627 0 .332-.156.617-.444.617-.288 0-.45-.28-.45-.625 0-.35.167-.62.447-.62h.003zm-.02-.333c-.545 0-.87.414-.87.94 0 .555.358.97.9.97.57 0 .88-.426.88-.936 0-.608-.366-.973-.906-.973h-.003zM120.566 727.245c-.008.222-.016.488-.016.76h-.006c-.06-.236-.137-.5-.208-.716l-.225-.722h-.326l-.197.713c-.06.22-.12.48-.167.725h-.006c-.008-.25-.02-.535-.03-.766l-.036-.703h-.386l.118 1.85h.556l.18-.62c.062-.212.117-.442.158-.66h.01c.05.215.113.456.176.665l.195.614h.548l.1-1.85h-.407l-.03.71zM122.45 727.32h-.68v-.44h.76v-.343h-1.176v1.85h1.137l.002-.344h-.722v-.384h.68v-.34zM123.257 727.566h.165c.208 0 .332.104.332.266 0 .167-.116.255-.308.255-.1 0-.16-.006-.19-.014v-.507zm-.414.792c.134.025.332.04.557.04.274 0 .466-.04.598-.146.112-.088.172-.217.172-.387 0-.233-.167-.395-.326-.453v-.008c.13-.052.2-.173.247-.343.058-.21.113-.45.15-.523h-.43c-.027.053-.073.203-.125.43-.052.234-.132.294-.305.297h-.123v-.727h-.414v1.82zM125.84 726.586c-.073-.036-.248-.08-.47-.08-.64 0-.97.4-.97.93 0 .63.45.98 1.01.98.217 0 .382-.044.456-.083l-.088-.33c-.082.037-.2.07-.35.07-.33 0-.588-.2-.588-.615 0-.37.22-.603.59-.603.128 0 .266.024.35.06l.06-.33zM126.564 726.537h-.417v1.85h.417v-1.85zM127.758 726.84c.282 0 .444.265.444.627 0 .332-.156.617-.444.617-.288 0-.45-.28-.45-.625 0-.35.167-.62.447-.62h.003zm-.02-.333c-.545 0-.87.414-.87.94 0 .555.358.97.9.97.568 0 .878-.426.878-.936 0-.608-.364-.973-.904-.973h-.003zM111.84 721.684c.036-.008.097-.008.146-.008.382-.003.63.205.63.647 0 .398-.224.587-.586.587-.09 0-.154-.008-.19-.016v-1.21zm-.416 1.506c.154.027.354.04.562.04.354 0 .585-.057.76-.19.192-.144.313-.374.313-.703 0-.354-.13-.598-.306-.75-.195-.16-.494-.238-.855-.238-.218 0-.375.013-.476.027v1.813zM114.46 722.15h-.68v-.44h.76v-.342h-1.177v1.85h1.138v-.343h-.72v-.384h.68v-.34zM115.434 721.37v1.847h.488l.384-.677c.11-.195.217-.425.302-.634h.005c-.024.245-.033.494-.033.774v.537h.384v-1.848h-.438l-.395.712c-.11.2-.232.436-.32.653h-.01c.012-.247.018-.508.018-.81v-.556h-.384zM117.774 721.37h-.417v1.847h.417v-1.848zM119.518 721.418c-.074-.036-.25-.08-.472-.08-.64 0-.968.4-.968.93 0 .63.45.98 1.01.98.216 0 .38-.044.455-.083l-.088-.33c-.082.036-.2.07-.35.07-.33 0-.588-.2-.588-.615 0-.37.22-.603.59-.603.128 0 .266.025.35.06l.06-.33zM120.746 722.156l-.115.392c-.03.11-.062.25-.09.357h-.008c-.025-.11-.055-.25-.082-.357l-.113-.392h.41zm-.47-.313l-.128-.474h-.433l.565 1.847h.546l.576-1.848h-.45l-.143.473h-.533zM122.09 722.397h.165c.208 0 .33.104.33.266 0 .167-.114.255-.306.255-.102 0-.16-.006-.19-.014v-.507zm-.414.793c.134.024.332.04.557.04.274 0 .466-.04.597-.147.113-.088.173-.217.173-.387 0-.233-.167-.395-.326-.453v-.008c.13-.052.2-.173.247-.343.057-.21.112-.452.148-.523h-.428c-.027.05-.074.2-.126.43-.052.232-.132.293-.305.295h-.123v-.726h-.414v1.82zM124.25 722.156l-.115.392c-.03.11-.063.25-.09.357h-.01c-.024-.11-.053-.25-.08-.357l-.113-.392h.408zm-.47-.313l-.128-.474h-.433l.564 1.847h.545l.576-1.848h-.45l-.143.473h-.532zM126.656 721.454c-.13-.044-.373-.104-.617-.104-.338 0-.583.085-.752.247-.168.162-.26.403-.26.674.002.616.45.967 1.055.967.238 0 .422-.047.513-.088l-.088-.338c-.1.046-.225.08-.428.08-.348 0-.614-.198-.614-.6 0-.383.24-.605.584-.605.093 0 .17.01.203.025v.39h-.285v.326h.688v-.974zM127.427 723.217v-1.06c0-.322.123-.484.334-.484.22 0 .34.153.34.483v1.06h.418v-1.036c0-.57-.288-.842-.77-.842-.467 0-.74.26-.74.848v1.03h.418zM129.723 722.156l-.115.392c-.03.11-.063.25-.09.357h-.01c-.024-.11-.054-.25-.08-.357l-.113-.392h.408zm-.47-.313l-.128-.474h-.433l.565 1.847h.545l.576-1.848h-.45l-.142.473h-.532zM136.075 706.792v3.02h.797l.628-1.107c.18-.318.354-.694.493-1.035h.01c-.042.4-.055.807-.055 1.264v.878h.627v-3.02h-.717l-.645 1.165c-.18.327-.38.712-.524 1.066h-.02c.023-.402.032-.83.032-1.32v-.91h-.627zM125.34 724.38c.11-.058.286-.116.465-.116.193 0 .295.08.295.202 0 .115-.088.18-.31.26-.31.11-.514.28-.514.55 0 .317.267.557.703.557.21 0 .363-.04.473-.094l-.094-.337c-.072.036-.207.088-.387.088-.182 0-.27-.085-.27-.18 0-.117.102-.17.345-.26.328-.12.48-.292.48-.554 0-.312-.238-.577-.748-.577-.212 0-.422.057-.526.115l.085.345zm-1.633.494c0-.367.17-.624.452-.624.283 0 .446.27.446.632 0 .336-.157.623-.447.623-.288 0-.453-.27-.453-.63m1.343.02c0-.612-.367-.978-.913-.978-.55 0-.874.416-.874.948 0 .557.358.974.904.974.57 0 .883-.43.883-.945m-2.066-.948h-.42v1.858h.42v-1.858zm-.7.05c-.075-.036-.25-.08-.474-.08-.643 0-.974.402-.974.932 0 .633.452.983 1.015.983.22 0 .384-.04.46-.083l-.09-.33c-.082.035-.2.068-.353.068-.33 0-.59-.2-.59-.614 0-.373.22-.607.593-.607.13 0 .268.025.353.06l.06-.33zm-1.726-.05h-.42v1.858h.42v-1.858zm-1.738 0l-.595 1.858h.46l.227-.785c.063-.224.12-.433.165-.665h.008c.047.223.105.444.168.656l.238.795h.447l-.626-1.858h-.49zm-1.64 1.034h.165c.21 0 .334.106.334.268 0 .17-.117.257-.31.257-.102 0-.16-.006-.19-.014v-.51zm-.417.8c.136.023.334.04.56.04.276 0 .47-.042.6-.147.114-.088.175-.22.175-.39 0-.236-.168-.4-.328-.456v-.01c.13-.05.2-.172.248-.343.058-.212.113-.455.15-.527h-.43c-.03.055-.076.204-.128.433-.052.234-.132.295-.306.298h-.124v-.73h-.417v1.833zm-.366-1.047h-.684v-.44h.764v-.346h-1.183v1.858h1.144v-.344h-.725v-.386h.684v-.342zm-2.58-.353c.11-.058.285-.116.465-.116.193 0 .295.08.295.202 0 .115-.09.18-.312.26-.31.11-.513.28-.513.55 0 .317.268.557.703.557.213 0 .364-.04.475-.094l-.094-.337c-.072.036-.207.088-.386.088-.182 0-.27-.084-.27-.178 0-.12.102-.17.344-.262.328-.12.48-.292.48-.554 0-.312-.237-.577-.747-.577-.212 0-.422.057-.527.115l.086.345zm-1.805-.433v.76l-.587 1.098h.483l.187-.446c.058-.136.1-.235.143-.357h.006c.04.116.085.224.14.356l.188.445h.47l-.61-1.083v-.775h-.42zM138.482 717.712c-.12-.06-.408-.13-.77-.13-1.045 0-1.583.654-1.583 1.52 0 1.03.734 1.6 1.65 1.6.352 0 .62-.073.742-.135l-.143-.538c-.136.057-.328.11-.574.11-.538 0-.96-.326-.96-1.003 0-.605.36-.986.964-.986.21 0 .434.04.573.1l.1-.538zM138.482 714.1c-.12-.06-.408-.13-.77-.13-1.045 0-1.583.653-1.583 1.518 0 1.03.734 1.6 1.65 1.6.352 0 .62-.072.742-.134l-.143-.538c-.136.058-.328.112-.574.112-.538 0-.96-.328-.96-1.004 0-.605.36-.986.964-.986.21 0 .434.04.573.1l.1-.54zM136.424 711.105c.18-.094.468-.19.76-.19.317 0 .483.13.483.33 0 .19-.143.297-.51.423-.503.18-.837.46-.837.9 0 .52.44.91 1.15.91.347 0 .595-.066.775-.152l-.153-.55c-.117.06-.338.145-.63.145-.298 0-.443-.14-.443-.292 0-.194.166-.28.563-.43.536-.197.784-.476.784-.904 0-.51-.388-.942-1.22-.942-.348 0-.69.095-.862.19l.14.563z" fill="#083d7a"/><path d="M136.424 711.105c.18-.094.468-.19.76-.19.317 0 .483.13.483.33 0 .19-.143.297-.51.423-.503.18-.837.46-.837.9 0 .52.44.91 1.15.91.347 0 .595-.066.775-.152l-.153-.55c-.117.06-.338.145-.63.145-.298 0-.443-.14-.443-.292 0-.194.166-.28.563-.43.536-.197.784-.476.784-.904 0-.51-.388-.942-1.22-.942-.348 0-.69.095-.862.19l.14.563z" fill="#083d7a"/></g></svg>