<svg xmlns="http://www.w3.org/2000/svg" xmlns:xlink="http://www.w3.org/1999/xlink" width="400" height="114.853" viewBox="0 0 399.99998 114.8534" id="svg2" overflow="scroll"><style id="style4">.st0{fill:#001970;} .st1{fill:#EE7700;} .st2{fill:#23145F;} .st3{fill:#7D868C;} .st4{fill:url(#SVGID_1_);} .st5{fill:url(#SVGID_2_);} .st6{fill:url(#SVGID_3_);} .st7{fill:url(#SVGID_4_);}</style><defs id="defs6"><radialGradient xlink:href="#SVGID_1_" id="radialGradient3155" gradientUnits="userSpaceOnUse" gradientTransform="translate(.1)" cx="253.039" cy="14.2" r="34.768"/><radialGradient xlink:href="#SVGID_2_" id="radialGradient3157" gradientUnits="userSpaceOnUse" gradientTransform="translate(.1)" cx="257.72" cy="63.438" r="24.378"/><radialGradient id="SVGID_1_" cx="253.039" cy="14.2" r="34.768" gradientTransform="translate(.1)" gradientUnits="userSpaceOnUse"><stop offset="0" id="stop107" stop-color="#F7913A"/><stop offset="1" id="stop109" stop-color="#E70"/></radialGradient><radialGradient id="SVGID_2_" cx="257.72" cy="63.438" r="24.378" gradientTransform="translate(.1)" gradientUnits="userSpaceOnUse"><stop offset="0" id="stop114" stop-color="#353685"/><stop offset="1" id="stop116" stop-color="#001970"/></radialGradient><radialGradient xlink:href="#SVGID_2_" id="radialGradient3166" gradientUnits="userSpaceOnUse" gradientTransform="translate(.1) scale(1.3)" cx="257.72" cy="63.438" r="24.378"/><radialGradient xlink:href="#SVGID_1_" id="radialGradient3169" gradientUnits="userSpaceOnUse" gradientTransform="translate(.1) scale(1.3)" cx="253.039" cy="14.2" r="34.768"/></defs><path id="path14" d="M10.828 79.135c-4.753 0-7.79-1.03-9.408-3.28C.637 74.776 0 73.06 0 70.51c0-1.615.44-4.8 1.812-11.462 1.028-4.9 2.204-7.692 4.605-9.7 2.206-1.862 5.34-2.792 9.897-2.792h.342c3.085 0 6.17.684 8.672 1.96.392.196.635.44.635.733 0 .394-.147.88-.734 2.205l-1.275 2.794c-.245.537-.54.733-.832.733-.394 0-.687-.096-.98-.243-1.715-.784-3.527-1.322-5.584-1.322h-.198c-2.008 0-3.48.538-4.508 1.665-.978 1.077-1.37 2.35-2.057 5.832-.88 4.41-1.225 6.76-1.225 8.376 0 2.06 1.175 2.99 4.8 2.99h.295c1.862 0 4.41-.492 6.17-1.127.393-.148.638-.198.882-.198.343 0 .636.198.735.933l.294 2.155c.145 1.03.243 1.712.243 2.203 0 .588-.538 1.03-1.765 1.47-2.153.785-5.535 1.42-8.915 1.42h-.485z" class="st0" fill="#001970"/><path id="path16" d="M42.622 73.012h-9.16L31.55 77.08c-.587 1.22-.93 1.614-2.89 1.614H24.3c-.98 0-1.42-.395-1.42-.933 0-.682.244-1.124.636-1.956 4.507-9.31 9.65-19.303 13.62-26.605.882-1.616 1.91-2.205 3.872-2.205h4.212c1.96 0 2.792.59 2.99 2.204 1.126 8.134 2.057 16.46 3.037 25.72.098 1.13.197 1.862.197 2.598 0 .783-.49 1.176-1.96 1.176h-4.312c-1.52 0-2.106-.395-2.206-1.615l-.344-4.068zm-.196-6.468c-.146-3.086-.44-7.545-.686-10.974h-.538c-1.667 3.578-3.528 7.545-5.096 10.974h6.32z" class="st0" fill="#001970"/><path id="path18" d="M61.583 77.177c-.245 1.175-.49 1.52-2.01 1.52h-4.8c-1.47 0-1.568-.444-1.37-1.52l5.485-28.316c.245-1.372.784-1.813 2.058-1.96 1.812-.198 4.948-.34 8.28-.34h.537c6.516 0 11.415 1.418 11.415 7.444 0 5.586-2.205 10.73-8.036 12.59l4.314 10.142c.244.588.293.784.293 1.076 0 .54-.342.885-1.324.885H71.38c-1.665 0-2.056-.294-2.4-1.373l-3.283-9.406c-.098-.394-.244-.54-.833-.54h-1.42l-1.86 9.8zm7.104-23.958c-.637 0-1.274 0-1.715.048-.49.053-.832.245-.98 1.08l-1.274 6.515h2.597c2.01 0 3.135-.34 3.82-.93 1.077-.933 1.616-2.99 1.616-4.508 0-1.765-.88-2.206-3.233-2.206h-.83z" class="st0" fill="#001970"/><path id="path20" d="M87.84 49.3c2.157-1.764 5.342-2.742 10.682-2.742h.195c3.333 0 7.154.735 9.8 2.107.49.243.587.537.587.832 0 .39-.146.783-.44 1.47l-1.42 3.282c-.296.684-.59.832-.98.832-.245 0-.54-.05-1.766-.49-1.567-.588-3.968-1.174-5.977-1.174h-.195c-2.4 0-3.92.488-4.95 1.518-1.076 1.076-1.517 2.55-2.204 6.074-1.077 5.635-1.273 6.958-1.273 8.132 0 1.128.295 1.863.833 2.304.637.538 1.715.88 3.136.88h.293c1.028 0 2.204-.05 3.038-.295.733-.195 1.028-.387 1.176-1.17l.93-4.51H96.22c-.54 0-.883-.146-.883-.587 0-.295.05-.686.198-1.47l.49-2.548c.244-1.224.588-1.518 1.714-1.518h9.21c.832 0 1.225.294 1.225.832 0 .392-.196 1.42-.49 2.84l-2.303 11.417c-.197 1.03-.588 1.467-1.813 2.007-2.352 1.03-6.322 1.813-10.24 1.813h-.54c-5.29 0-8.377-1.226-9.798-3.038-1.08-1.37-1.618-2.795-1.618-5.342 0-1.468.198-3.477 1.618-10.727 1.224-6.274 2.45-8.77 4.85-10.73z" class="st0" fill="#001970"/><path id="path22" d="M131.15 76.734c-2.35 1.618-5.486 2.403-10.042 2.403h-.538c-3.724 0-6.762-.93-8.33-2.303-1.713-1.47-2.35-3.53-2.35-6.565 0-1.373.342-4.605 1.32-9.603 1.227-6.32 2.747-9.602 6.273-12.002 2.01-1.372 5.243-2.107 9.406-2.107h.392c3.723 0 6.71.832 8.378 2.303 1.666 1.467 2.5 3.576 2.5 6.123 0 2.205-.344 4.9-1.275 9.75-1.274 6.615-2.548 9.798-5.734 12zm-1.37-19.792c0-1.027-.148-1.862-.587-2.4-.636-.786-1.617-1.127-3.038-1.127h-.59c-1.47 0-2.497.39-3.427 1.173-1.323 1.13-2.106 3.727-2.794 7.35-.684 3.677-1.028 5.49-1.028 6.76 0 1.08.197 1.864.638 2.403.635.785 1.57 1.176 3.037 1.176h.59c1.47 0 2.5-.39 3.43-1.175 1.37-1.175 2.056-3.724 2.792-7.347.734-3.822.98-5.54.98-6.81z" class="st0" fill="#001970"/><path id="path24" d="M140.804 53.66c-.978 0-1.323-.196-1.323-.734 0-.295.147-.98.246-1.52l.538-2.888c.243-1.276.686-1.52 1.862-1.52h20.92c.978 0 1.37.148 1.37.782 0 .298-.1.738-.34 1.96l-.442 2.45c-.245 1.225-.588 1.47-1.86 1.47h-6.37l-4.557 23.468c-.245 1.274-.587 1.568-2.058 1.568h-4.702c-1.176 0-1.518-.197-1.518-.885 0-.34.244-1.418.438-2.4l5.33-23.296-7.534 1.546z" class="st0" fill="#001970"/><path id="path26" d="M169.315 77.177c-.245 1.175-.488 1.52-2.007 1.52h-4.8c-1.47 0-1.567-.444-1.372-1.52l5.486-28.316c.245-1.372.783-1.813 2.057-1.96 1.812-.198 4.95-.34 8.277-.34h.54c6.517 0 11.416 1.418 11.416 7.444 0 5.586-2.205 10.73-8.034 12.59l4.31 10.142c.244.588.294.784.294 1.076 0 .54-.343.885-1.323.885h-5.045c-1.667 0-2.058-.294-2.4-1.373l-3.284-9.406c-.095-.394-.242-.54-.832-.54h-1.42l-1.863 9.8zm7.104-23.958c-.638 0-1.274 0-1.715.048-.49.053-.832.245-.98 1.08l-1.272 6.515h2.597c2.01 0 3.136-.34 3.82-.93 1.08-.933 1.618-2.99 1.618-4.508 0-1.765-.882-2.206-3.233-2.206h-.836z" class="st0" fill="#001970"/><path id="path28" d="M205.424 73.012h-9.16l-1.912 4.067c-.587 1.22-.93 1.614-2.89 1.614h-4.36c-.98 0-1.42-.395-1.42-.933 0-.682.244-1.124.637-1.956 4.507-9.31 9.65-19.303 13.62-26.605.88-1.616 1.91-2.205 3.87-2.205h4.213c1.96 0 2.79.59 2.988 2.204 1.13 8.134 2.058 16.46 3.038 25.72.098 1.13.197 1.862.197 2.598 0 .783-.49 1.176-1.96 1.176h-4.312c-1.518 0-2.108-.395-2.204-1.615l-.346-4.068zm-.196-6.468c-.147-3.086-.44-7.545-.686-10.974h-.538c-1.666 3.578-3.528 7.545-5.095 10.974h6.318z" class="st0" fill="#001970"/><path id="path30" d="M226.785 61.547h-.1l-2.988 15.48c-.244 1.375-.686 1.67-2.008 1.67h-4.214c-1.078 0-1.37-.246-1.37-.886 0-.436.145-1.076.292-1.956l5.29-27.24c.246-1.322.785-1.617 1.96-1.617h1.96c1.522 0 2.156.344 2.648 1.373l7.887 16.217h.098l3.136-15.922c.245-1.372.782-1.668 2.007-1.668h4.165c1.027 0 1.47.196 1.47.835 0 .342-.198 1.223-.393 2.203l-5.243 27.046c-.243 1.323-.882 1.616-1.96 1.616h-2.008c-1.372 0-2.058-.294-2.646-1.373l-7.983-15.776z" class="st0" fill="#001970"/><path id="path32" d="M255.15 79.135c-2.743 0-7.152-.588-9.21-1.373-1.175-.44-1.274-.783-1.03-1.812l.883-4.065c.243-1.128.736-1.374 1.666-1.03 2.548.93 5.387 1.52 7.69 1.52h.245c2.743 0 4.02-.59 4.606-1.96.245-.59.393-1.324.393-2.013 0-1.076-.588-1.812-3.087-2.4l-2.988-.685c-4.555-1.03-6.223-3.234-6.223-6.812 0-3.28.932-7.296 3.774-9.55 2.105-1.666 4.995-2.4 9.453-2.4h.198c2.89 0 6.074.586 8.182 1.37.588.196.83.49.83.98 0 .34-.195.93-.733 2.352l-.834 2.203c-.39 1.077-.835 1.177-1.813.882-2.057-.59-4.017-.93-5.878-.93h-.245c-3.38 0-4.9 1.03-4.9 3.135 0 1.225.588 1.86 3.48 2.597l3.086.783c4.26 1.078 5.976 2.646 5.976 5.928 0 4.605-.88 8.135-2.94 10.29-2.006 2.057-5.388 2.986-10.14 2.986h-.442z" class="st0" fill="#001970"/><path id="path38" d="M64.876 83.493V94.65h6.52v1.307h-8.132V83.493h1.612z" class="st1" fill="#e70"/><path id="path40" d="M73.773 91.382c0-3.05 1.453-4.577 4.358-4.577 2.907 0 4.36 1.526 4.36 4.577 0 3.044-1.454 4.566-4.36 4.566-2.892 0-4.345-1.522-4.357-4.566zm4.358 3.267c1.832 0 2.747-1.102 2.747-3.305 0-2.156-.915-3.234-2.746-3.234-1.83 0-2.744 1.08-2.744 3.235 0 2.203.915 3.304 2.745 3.304z" class="st1" fill="#e70"/><path id="path42" d="M93.47 95.957c0 2.207-1.404 3.312-4.21 3.312-1.127 0-2.127-.146-3-.437v-1.307c.89.29 1.896.436 3.017.436 1.72 0 2.58-.67 2.58-2.005v-.436c-.686.292-1.424.437-2.214.437-2.893 0-4.34-1.543-4.34-4.628 0-3.016 1.526-4.525 4.576-4.525 1.236 0 2.434.125 3.59.375v8.777zm-1.613-7.6c-.552-.14-1.235-.21-2.048-.21-1.948 0-2.92 1.055-2.92 3.165 0 2.167.92 3.25 2.762 3.25.837 0 1.572-.155 2.205-.47v-5.735z" class="st1" fill="#e70"/><path id="path44" d="M98.393 83.493h2.084l-2.084 2.084h-1.43l1.43-2.084zm.55 3.312v9.152H97.33v-9.152h1.612z" class="st1" fill="#e70"/><path id="path46" d="M102.715 95.52v-1.394c1.075.35 2.162.523 3.26.523 1.46 0 2.188-.437 2.188-1.308 0-.814-.508-1.22-1.526-1.22h-1.307c-1.976 0-2.963-.9-2.963-2.703 0-1.744 1.27-2.615 3.81-2.615 1.092 0 2.175.145 3.25.436v1.396c-1.073-.35-2.158-.523-3.25-.523-1.523 0-2.284.436-2.284 1.308 0 .814.48 1.22 1.44 1.22h1.306c2.09 0 3.137.9 3.137 2.703 0 1.743-1.267 2.614-3.8 2.614-1.1 0-2.188-.146-3.262-.436z" class="st1" fill="#e70"/><path id="path48" d="M113.025 85.323h1.01l.35 1.48h2.474v1.308h-2.222v5.257c0 .854.368 1.282 1.107 1.282h1.116v1.306h-1.534c-1.535 0-2.3-.823-2.3-2.467v-8.167z" class="st1" fill="#e70"/><path id="path50" d="M121.765 83.493v1.526h-1.612v-1.527h1.612zm0 3.312v9.152h-1.612v-9.152h1.612z" class="st1" fill="#e70"/><path id="path52" d="M132.51 95.695c-.756.174-1.57.262-2.44.262-3.254 0-4.88-1.583-4.88-4.75 0-2.934 1.626-4.402 4.88-4.402.87 0 1.684.087 2.44.262v1.307c-.756-.174-1.598-.262-2.527-.262-2.12 0-3.182 1.032-3.182 3.095 0 2.295 1.062 3.443 3.183 3.443.93 0 1.773-.087 2.527-.262v1.307z" class="st1" fill="#e70"/><path id="path54" d="M135.194 93.193c0-1.877 1.237-2.816 3.713-2.816.795 0 1.59.058 2.388.174v-.86c0-1.05-.823-1.578-2.467-1.578-.94 0-1.906.145-2.893.436V87.24c.987-.29 1.952-.435 2.893-.435 2.72 0 4.08.948 4.08 2.842v6.31H142l-.557-.906c-.912.606-1.906.907-2.98.907-2.18 0-3.27-.92-3.27-2.764zm3.713-1.507c-1.4 0-2.1.493-2.1 1.482 0 .988.55 1.48 1.655 1.48 1.116 0 2.06-.295 2.833-.888v-1.9c-.797-.116-1.593-.174-2.388-.174z" class="st1" fill="#e70"/><path id="path56" d="M154.07 83.493v12.464h-1.614V83.493h1.613z" class="st1" fill="#e70"/><path id="path58" d="M158.19 95.957v-9.152h1.09l.288 1.168c.935-.778 1.964-1.168 3.086-1.168 2.283 0 3.426 1.136 3.426 3.408v5.744h-1.613v-5.77c0-1.36-.676-2.04-2.03-2.04-.925 0-1.8.388-2.633 1.16v6.65h-1.614z" class="st1" fill="#e70"/><path id="path60" d="M169.764 85.323h1.01l.35 1.48h2.474v1.308h-2.222v5.257c0 .854.37 1.282 1.107 1.282h1.117v1.306h-1.535c-1.535 0-2.3-.823-2.3-2.467v-8.167z" class="st1" fill="#e70"/><path id="path62" d="M180.49 86.805c2.604 0 3.904 1.287 3.904 3.862 0 .366-.026.758-.08 1.177h-6.422c0 1.87 1.092 2.806 3.277 2.806 1.04 0 1.963-.116 2.77-.35v1.31c-.808.23-1.79.348-2.946.348-3.143 0-4.714-1.56-4.714-4.68 0-2.983 1.404-4.473 4.21-4.473zm-2.597 3.696h4.95c-.033-1.602-.818-2.405-2.353-2.405-1.627 0-2.49.802-2.597 2.406z" class="st1" fill="#e70"/><path id="path64" d="M189.337 83.493v12.464h-1.612V83.493h1.612z" class="st1" fill="#e70"/><path id="path66" d="M194.896 83.493v1.526h-1.613v-1.527h1.613zm0 3.312v9.152h-1.613v-9.152h1.613z" class="st1" fill="#e70"/><path id="path68" d="M206.485 95.957c0 2.207-1.402 3.312-4.21 3.312-1.126 0-2.126-.146-2.998-.437v-1.307c.89.29 1.894.436 3.016.436 1.72 0 2.58-.67 2.58-2.005v-.436c-.686.292-1.423.437-2.214.437-2.894 0-4.34-1.543-4.34-4.628 0-3.016 1.525-4.525 4.576-4.525 1.237 0 2.435.125 3.59.375v8.777zm-1.61-7.6c-.554-.14-1.236-.21-2.05-.21-1.946 0-2.918 1.055-2.918 3.165 0 2.167.92 3.25 2.762 3.25.835 0 1.57-.155 2.204-.47v-5.735z" class="st1" fill="#e70"/><path id="path70" d="M213.946 86.805c2.603 0 3.905 1.287 3.905 3.862 0 .366-.026.758-.078 1.177h-6.424c0 1.87 1.092 2.806 3.277 2.806 1.04 0 1.964-.116 2.77-.35v1.31c-.806.23-1.788.348-2.945.348-3.143 0-4.715-1.56-4.715-4.68 0-2.983 1.406-4.473 4.21-4.473zM211.35 90.5h4.95c-.034-1.602-.82-2.405-2.353-2.405-1.628 0-2.493.802-2.598 2.406z" class="st1" fill="#e70"/><path id="path72" d="M221.092 95.957v-9.152h1.09l.287 1.168c.935-.778 1.963-1.168 3.085-1.168 2.283 0 3.425 1.136 3.425 3.408v5.744h-1.612v-5.77c0-1.36-.678-2.04-2.03-2.04-.925 0-1.802.388-2.634 1.16v6.65h-1.612z" class="st1" fill="#e70"/><path id="path74" d="M232.664 85.323h1.013l.348 1.48h2.475v1.308h-2.222v5.257c0 .854.37 1.282 1.108 1.282h1.115v1.306h-1.532c-1.534 0-2.3-.823-2.3-2.467v-8.167z" class="st1" fill="#e70"/><path id="path76" d="M243.392 86.805c2.604 0 3.905 1.287 3.905 3.862 0 .366-.027.758-.08 1.177h-6.423c0 1.87 1.092 2.806 3.277 2.806 1.04 0 1.965-.116 2.772-.35v1.31c-.807.23-1.79.348-2.946.348-3.143 0-4.715-1.56-4.715-4.68.002-2.983 1.407-4.473 4.212-4.473zm-2.597 3.696h4.952c-.034-1.602-.82-2.405-2.354-2.405-1.628 0-2.493.802-2.598 2.406z" class="st1" fill="#e70"/><path id="path82" d="M350.69 15.436l-1.344-6.778-4.344 5.206c1.922.408 3.824.936 5.687 1.572z" class="st1" fill="#e70"/><path id="path84" d="M306.8 21.516c.503-.35 1.007-.695 1.53-1.03 1.435-.91 2.896-1.744 4.383-2.49l-6.305-4.61.39 8.13z" class="st1" fill="#e70"/><path id="path88" d="M322.592 13.858c4.16-.936 8.378-1.423 12.575-1.49L326.942 0l-4.35 13.858z" class="st1" fill="#e70"/><path id="path90" d="M359.7 19.316c2.794 1.646 5.41 3.642 7.784 5.968l2.234-11.228-10.018 5.26z" class="st1" fill="#e70"/><path id="path92" d="M294.328 35.03c1.65-2.79 3.644-5.4 5.967-7.764l-11.198-2.248 5.23 10.012z" class="st1" fill="#e70"/><path id="path96" d="M387.27 89.717c-5.374-.445-5.45-5.28-5.45-5.28h.04s.082 4.836-5.276 5.456l.003.088c5.37.45 5.446 5.278 5.446 5.278H382s-.08-4.828 5.272-5.454v-.087z" class="st2" fill="#23145f"/><path id="path98" d="M381.293 102.88c-9.867-.822-10.01-9.684-10.01-9.684l.07-.003s.147 8.86-9.69 10.008v.165c9.87.82 10.014 9.69 10.014 9.69h-.074s-.14-8.865 9.692-10.01v-.164z" class="st2" fill="#23145f"/><path id="path100" d="M360.34 109.15c-5.526-.458-5.61-5.427-5.61-5.427h.043s.078 4.968-5.428 5.61v.088c5.525.458 5.608 5.433 5.608 5.433l-.04-.007s-.085-4.967 5.428-5.603v-.092z" class="st2" fill="#23145f"/><path id="path104" d="M400 31.014l-28.416-3.05c3.108 3.143 5.693 6.562 7.73 10.216-6.232 5.324-22.315 17.938-41.28 23.946-42.19 13.364-52.45 3.204-53.138-5.738-.61-7.91 7.872-15.673 7.872-15.673s-19.49 8.96-18.898 24.47c.582 15.32 18.462 24.48 61.25 13.257 27.92-7.324 43.495-21.503 48.893-27.25.846 4.504 1.013 9.223.425 14.108L400 31.014z" class="st3" fill="#7d868c"/><path class="st4" d="M304.664 64.168c8.193 0 18.982-2.103 32.082-6.252 15-4.755 28.24-13.912 35.787-19.848l.014-.01c-7.778-12.636-21.73-21.06-37.655-21.06-23.972 0-43.47 19.093-44.15 42.9 2.766 3.418 8.745 4.27 13.922 4.27z" id="path111" fill="url(#radialGradient3169)"/><path class="st5" d="M378.99 61.697c-8.598 6.908-22.57 15.62-42.745 20.913-12.983 3.405-24.373 5.134-33.853 5.134-.983 0-1.928-.024-2.853-.058 8.06 10.735 20.892 17.68 35.35 17.68 24.252 0 43.93-19.538 44.175-43.73l-.074.06z" id="path118" fill="url(#radialGradient3166)"/></svg>