<svg xmlns="http://www.w3.org/2000/svg" width="480" height="488.862"><path d="M113.393 122.25L86.2 141.99l-28.833 25.97s-8.14 15.075-9.43 21.43c-1.234 6.373.646 9.4 5.364 9.63 4.67.184 12.85-3.868 12.85-3.868l5.614-4.59 5.647-1.75 23.222 12.713 36.96 54.873 107.818 59.02s115.956-25.48 127.876-65.937c11.865-40.42 41.983-113.274-22.577-157.21-64.553-43.898-105.3-50.85-149.183-39.283-43.87 11.574-74.565 15.03-74.565 15.03l-5.043 3.467H99.973s-4.833 2.478 2.58 11.655c7.486 9.13 10.84 39.11 10.84 39.11" fill="#fff"/><path d="M413.43 234.79c4.412-10.683 7.677-22.02 9.523-33.72l21.456-2.546-.537-43.32-21.063-2.546c-1.995-11.777-5.396-23.153-9.944-33.973l16.692-11.614-23.785-37.407-19.237 7.27c-8.057-9.21-17.18-17.607-27.246-25.047l8.064-17.41-40.74-21.545-12.558 14.84c-11.92-4.298-24.382-7.38-37.442-9.185L274.28 0h-47.007l-2.89 18.6c-14.27 2.008-27.94 5.585-40.823 10.56l-12.544-14.9-40.238 22.347 8.104 17.607c-7.018 5.444-13.59 11.33-19.57 17.696h.564l4.61.258h1.6l4.617-.258h3.8l2.105.258 3-.713 3.782-2.525 6.49-2.966 4.085-1.283 5.11-.264 2.424-.99 4.588-.734 3.55-.74h7.27l5.403-.495 4.868-.76h1.92l2.397.27h9.51s6.448.24 11.03.986h.163c11.98-3.28 24.735-5.12 37.93-5.12 6.856 0 13.555.497 20.153 1.434 1.922-1.04 5.635-2.444 6.606.448.074.197.115.448.19.7 59.563 11.47 104.39 60.193 104.39 118.542 0 66.907-58.817 121.122-131.338 121.122-14.153 0-27.708-2.085-40.455-5.887-.156 0-.374 0-.564-.142-.075-.033-.164-.033-.198-.142-8.26-2.484-16.168-5.735-23.594-9.577.04.184.08.374.122.605-1.032-.197-1.867.075-2.423-.944-.217-.4-.373-.752-.53-1.153-38.154-21.212-63.744-59.766-63.744-103.88 0-.143.047-.32.047-.537-.807.754-1.676 1.358-2.565 1.935-7.257 4.44-25.305 7.758-32.12 7.758-5.58 0-15.755 12.022-25.59 14.995l20.302 2.45v-.373c2.165 11.756 5.62 22.99 10.338 33.722l-.068-.163-17.615 12.34 23.785 37.292 20.248-7.65-1.962-3.136c9.266 10.915 20.086 20.69 32.154 29.073l-3.36-1.78-8.668 18.776 40.753 21.476 13.46-15.924-5.355-2.865c14.67 5.763 30.423 9.74 46.863 11.608l-5.212-.028 2.614 20.22h46.965l3.047-20.016-6.7-.04c17.405-1.778 34.096-5.94 49.647-12.11l-3.284 1.76 13.52 16.093 40.226-22.312-8.506-18.597-3.617 1.988c11.15-8.062 21.224-17.34 29.967-27.7l-.448.754 20.383 7.745 22.922-37.81-17.39-12.258-.095.15zM56.594 158.57l.088 8.275c2.688-2.973 5.973-6.197 9.286-9.388l-9.374 1.113zm23.35-13.575c4.357-3.652 7.324-6.062 7.324-6.062 6.068-6.686 20.54-16.304 26.126-16.684 5.648-.375 10.06-4.447 9.265-8.9-.822-4.453 0-12.232 0-12.232l1.242-3.523-2.627-1.235-3.04-1.792-2.696-1.2-4.562-2.526-1.928-1.494-2.715-1.982-.523-.99-1.052-1.277-2.2-1.963-2.137-1.758-1.887-2.73-1.59-2.504-.33-1.23-.15-1.207-3.463-1.31-22.888 37.794 16.922 11.892c-2.932 7.42-5.308 15.05-7.093 22.91" fill="#ed1d24"/><path d="M243.928 282.022s.156-.258.435-.645h-.123l-.312.645zM126.93 133.227s-24.904 1.215-33.79 5.987c-8.918 4.73-32.988 30.145-32.988 30.145l-1.595 2.503-1.364 1.724 2.647-1.493 2.77-2.735 4.86-3.735 9.42-9.727 2.682-2.26 1.962-2.24 3.462-2.96 1.887-1.01.828 1.5-2.15 2.26-5.105 6.197-1.636 2.525-1.93 2.966-1.078 2.267-2.165 2.953s-.822 2.002-1.08 2.763c-.217.752-1.052 2.95-1.052 2.95l8.057-10.934s4.087-6 7.1-9.47c2.933-3.48 11.07-9.733 11.07-9.733l6.49-3.74 1.06 1.758-2.146 2.255s-10.568 11.723-15.435 20.173l-.827 2.01s11.39-13.977 17.35-19.712c5.898-5.688 10.23-9.238 10.23-9.238l3-.258-1.93 3.278-1.31 1.493-1.927 2.506-1.086 1.487-1.893 2.484-2.675 4.738-2.41 2.763-1.398 2.47 4.86-3.21 3.28-2.525 2.422-3.476 3.23-2.51 1.895-1.72.524-.752.834-.998 1.053-1.01.876-.98 1.046-1.26.834-.687.523-1.086.834-1.222 1.887-3.475zM207.556 126.853l3.088-5.715 1.955-2.6 2.24-2.566 2.816-2.32 1.717-2.33s-2.016 5.967.245 6.958c2.273 1.06 7.018.794 8.708-2.81 1.704-3.63.265-8.54-3.34-7.21l-2.314.463v-1.792l1.127-1.825.874-2.084 1.4-2.578 1.126-1.04s2.83-2.558 4.534.79c1.642 3.365.828 9.06.828 9.06l-.604 3.897-.584 2.32-3.048 2.573-1.398 1.296-1.94 1.065-4.284.97-1.086.543s-1.44.272-2.26.815c-.83.502-1.963 1.045-1.963 1.045l-1.432.985-3.32 1.805s-1.126.536-3.087.285M227.76 121.374s-6.746.55-10.928 3.652c-4.235 3.116-9.28 5.2-9.28 5.2l-1.132 6.692 1.69 1.867-.244 3.876s.835.747.835 1.766c0 1.045.815-9.042.815-9.042s2.518 6.23 1.134 10.352c-1.393 4.16-1.95 4.656-1.95 4.656l-1.445 2.83.61 5.485.49 2.546-.49 2.85-1.133 2.627-.312.74-.557 1.31.306 2.077h1.696s8.66-6.99 12.028-12.15c3.34-5.193 8.138-11.397 9.537-21.53 1.385-10.08 2.526-15.484 2.526-15.484s-.577-3.407-4.195-.32M175.86 72.133c-.04.68.115 1.548-.116 2.227-.32.93-1.65.82-1.045 2.32.4-.1 1.044.15 1.526.076.557 1.398-1.927 2.185-2.37 3.407-.684 1.697-.236 3.523 1.93 3.455-.313 1.453-2.492 2.152-2.947 3.89-.585 1.955-.985 4.283-.673 6.36.672-.272 1.093-.883 1.69-1.42 1.568-1.377 3.537-2.68 5.28-3.807 2.635-1.648 1.773-3.033 0-4.98-1.553-1.712-1.282-3.585-1.282-5.777.06-1.555.638-2.77.896-4.25.157-.89-.48-2.145.388-2.647l-3.278 1.147z" fill="#00539b"/><path d="M224.433 114.598c-1.847.217-1.046-2.633 0-3.08h.278c1.657-.395 1.393 2.93-.277 3.08m1.894-4.01c-1.616-.368-3.42-.117-4.867.603-1.874.938-2.247 2.383-2.247 4.25 0 2.674 1.92 2.674 4.33 2.674 2.858 0 5.458-1.975 5.417-4.812-.027-1.466-1.12-2.356-2.633-2.715M128.618 119.343c-.033.034-.033.088-.033.163-1.33.292-2.804-.57-1.73-1.738 1.316-1.37 1.845.482 1.763 1.575m1.962-1.48c-.312-1.466-.4-3.462-1.846-4.412-.984-.718-2.722-.644-3.36.388-.645 1.045-.407 2.593-.333 3.706.103 1.75.687 3.394 1.69 4.833.28.387.524.713.836 1.06.564.55 1.73.746 2.376.23.68-.577.8-1.792.8-2.62-.046-1.08.035-2.132-.162-3.184M241.224 89.084c1.086-.034 2.22-.414 3.25-.883.45-.195.81-.57 1.298-.698.577-.136.99-.108 1.56-.285 1.44-.604 2.797-1.357 4.216-1.948 1.025-.38 1.48-1.257 2.383-1.813.38-.218 1.02-.374 1.426-.625 2.756-1.378 4.61-3.604 6.727-5.68.814-.823 1.88-1.556 2.443-2.547.408-.644 1.16-1.18 1.358-1.86-.462 1.114-1.785 1.582-2.756 2.22-.76.523-1.56.944-2.294 1.507-.638.428-1.29 1.005-1.955 1.54-.517.395-1.04.748-1.528 1.114-.68.475-1.276 1.106-1.996 1.554-1.534.958-2.932 2.274-4.663 3.035-.468.21-.957.332-1.44.516-.793.333-1.52.842-2.41 1.04-1.07.264-2.117.406-3.128.59-1.032.162-1.67.556-2.64.556l.15 2.668zM265.69 73.835c.372-.197.895-.788 1.322-1.06.373-.264.754-.57 1.134-.86.746-.64 1.357-1.535 1.84-2.343.678-1.093 1.513-2.104 2.158-3.21.488-.842 1.344-1.942 1.242-2.933-.842.25-1.18 1.14-1.677 1.73-.564.808-1.202 1.548-1.88 2.28-1.318 1.474-2.41 2.892-3.537 4.474l-.604 1.92z" fill="#00539b"/><path d="M240.742 84.05c1.093-.61 2.525-.236 3.726-.454.7-.122 1.385-.393 2.098-.57 1.717-.428 3.06-1.398 4.65-1.968.828-.333 1.574-.754 2.368-1.188.95-.503 1.59-1.18 2.45-1.758.68-.53 1.318-.984 1.922-1.643.312-.36.556-.917.95-1.148-.15.59-.916.74-1.398 1.005-1.12.61-2.267 1.215-3.435 1.758-1.697.807-3.136 1.615-5.016 1.86-2.064.23-3.774 1.113-5.73 1.683-1.248.366-2.293.366-3.583.366l.998 2.057zM100.507 76.11c-.04.754.597 1.215.93 1.867.23.353.482.638.794.97.686.924 1.474 1.765 2.078 2.736.448.7.78 1.29 1.507 1.805.305.197.522.326.787.47.278.216.482.467.72.698.373.346.8.706 1.126 1.052.598.543 1.216 1.01 1.854 1.473 1.052.66 2.287 1.223 3.53 1.76.624.29 1.065.325 1.6.786.558.394 1.243.795 1.915 1.08.76.36 1.202.814 1.853 1.29 1.046.658 2.206.828 3.442 1.038.468.102.882.244 1.12-.04.176-.17.495-.68.522-.965-1.622-.293-3.17-.822-4.683-1.392-1.954-.794-3.732-2.193-5.497-3.374-.754-.427-1.514-.855-2.22-1.384-.53-.442-1.025-.8-1.704-1.16-1.535-.74-2.858-2.12-4.175-3.096-.652-.51-1.208-1.08-1.887-1.494-.49-.285-1.012-.53-1.44-.855-.284-.25-.65-.557-.76-.903l-1.41-2.362z" fill="#00539b"/><path d="M105.29 79.303c.48 1.18 4.642 3.265 5.565 4.012.393.305.68.645 1.1.97.542.374 1.018.822 1.547 1.182.726.515 1.364 1.08 2.036 1.588 1.086.78 2.26 1.46 3.42 2.097.51.306.81.632 1.325.85.49.23.99.338 1.48.522.326.1.713.244.964.312.353.074.65-.068.957-.027.217.026.448.23.645.297.4.055.324-.068.48-.366.19-.366.72-.977.61-1.39-.8.04-1.777-.38-2.564-.483-.727-.122-1.487-.353-2.22-.502-.353-.075-.794-.122-1.147-.244-1.5-.556-2.703-1.364-3.952-2.233-1.48-.997-2.75-2.307-4.188-3.4-.495-.394-1.615-.462-2.097-.856-.428-.304-3.964-2.327-3.964-2.327M275.83 206.19c2.66 1.256 5.125 1.364 7.956 1.92 3.848.768 7.806.734 11.58.3 4.58-.53 5.532-2.186 6.054-6.374.28-2.62.883-5.593-1.683-7.446-1.97 2.708-6.605 3.183-9.775 3.183-4.18 0-8.382-1.33-10.88-4.018-2.01-2.07-6.45-5.824-9.286-2.994-1.283 1.277-.937 3.144-1.093 4.787-.156 1.507-.794 3.156-.68 4.73.15 3.05 5.29 4.698 7.807 5.913M259.962 83.315c3.4 0 6.625.767 9.944.767 3.09 0 4.603 1.133 7.25 2.206 4.507 1.778 9.19 3.638 13.52 5.837 1.48.794 2.567 1.9 4.088 2.586 2.138.986 3.733 2.01 5.572 3.375 1.324.923 2.743 1.54 3.842 2.735 1.093 1.18 2.03 2.505 3.095 3.788 1.894 2.22 4.447 4.29 5.872 6.584.638-1.317-1.168-2.898-1.928-3.97-.733-1.134-1.84-2.35-2.695-3.34-1.29-1.365-3.088-2.763-4.527-3.998-3.618-3.04-7.29-6.28-11.268-8.845-3.7-2.404-7.175-5.2-11.28-6.958-2.913-1.27-5.723-2.132-8.656-3.313-1.485-.612-2.884-1.23-4.2-2.12-.8-.46-1.324-1.112-2.295-1.18l-6.333 5.845zM316.83 125.494c1.82 2.464 2.46 6.164 5.018 8.098-1.61.306-2.675-.977-3.693-1.934-.937-.795-1.324-1.18-1.724-2.118-.304-.645-.196-1.724-1.207-1.806l1.608-2.24z" fill="#00539b"/><path d="M276.28 203.612c.93 9.564 1.404 19.067.725 28.53 1.494-3.517 1.88-7.427 2.742-11.038.672-2.762.028-5.484.503-8.267.556-3.64.774-7.29.774-11.07l-4.745 1.845zM201.86 217.194c2.036-.678 2.687-5.267 5.124-5.124.238 1.717-.604 3.332-1.92 4.37l-3.205.754zM164.1 234.037c6.07-.577 12.2 6.482 18.213 2.118.896-.652 2.057-1.724 2.776-2.546.91-1.14 1.397-2.546 2.443-3.605 1.065-1.08 2.233-1.744 3.136-2.926.95-1.25 1.275-2.607 1.662-4.08.49-1.833.82-2.674-1.59-2.864-1.763-.177-2.598.108-3.57 1.432-1.553 2.145-2.083 4.548-3.963 6.59-2.18 2.404-4.386 3.103-7.99 2.594-1.555-.19-3.252-1.066-4.76-1.446-1.69-.44-3.175-.428-4.777-.068-.957.217-1.656.407-2.763.407l1.18 4.392zM173.55 241.2c.265 2.172-1.248 4.344-1.425 6.49-.156 2.476 1.208 3.814 2.736 5.64-.732-1.99-.875-5.763.245-7.684.97-1.867 4.29-3.082 5.057-4.908l-6.61.462zM174.946 255.125c-.115 1.215.075 5.464 2.308 4.656.054-.718.258-1.804-.04-2.537-.306-.883-1.182-1.06-1.318-2.118h-.95zM197.12 246.4c.195 1.256-.843 2.22-.41 3.42 2.33.74 2.296-1.098 2.296-2.558l-1.887-.862zM267.79 201.646c-.705-1.792-1.655-3.252-3.827-3.822-1.968-.53-5.132-.305-6.896.597-.686-4.662 2.287-6.65 5.973-9.1 1.588-1.033 2.844-2.567 4.697-1.474 1.92 1.08 3.577 4.263 4.78 5.953l-4.726 7.846zM138.645 131.19c.76 1.16 1.73 2.654 1.92 3.91.157 1.038-.834 4.48 1.33 3.91.212-1.765.605-6.463-.88-7.365l-2.37-.455z" fill="#00539b"/><path d="M124.21 125.494c-.305 1.826 2.037 4.765 3.014 6.245 1.358 2.063 2.83 3.875 3.36 6.237.326 1.378.754 3.102.116 4.426-.53 1.113-1.887 1.758-2.573 2.98-.753 1.323-1.16 3.06-1.595 4.547-.32 1.215-.285 2.403-.59 3.605-.177.943-.605 1.914-.768 2.844-.325 2.266-1.12 3.875-2.056 5.945-1.127 2.328-1.806 4.758-3.28 6.958-1.648 2.613-3.882 4.982-6.373 6.95-2.375 1.942-5.54 3.258-8.417 4.406-1.846.793-3.46 1.763-5.498 2.218-1.656.34-3.455.15-5.125.49-4.99.97-9.99 1.594-15 2.212-2.573.285-5.662 1.493-7.55 3.143-1.607 1.37-2.734 3.102-4.48 4.296-1.54 1.146-3.277 2.083-4.98 2.945-1.847.93-3.653 1.826-5.69 2.417-.977.264-2.293.916-3.42.665-1.97-.502-3.482-2.403-4.08-4.053-.292-.895-.407-1.432-.97-2.185-.394-.646.25-3.863.678-4.692 1.16-2.538 2.173-5.057 3.415-7.56 1.03-1.956 1.52-3.748 2.92-5.628.637-.828 1.207-1.5 2-2.152 1.202-.998 2.58-1.792 3.87-2.654 1.554-1.005 2.56-2.403 3.63-3.896 2.703-3.83 5.052-7.833 7.502-11.69.74-1.146 1.724-1.79 2.966-2.565 2.26-1.344 4.412-2.92 6.713-4.222 1.547-.88 2.565-1.417 3.726-2.653 1.765-1.887 3.693-3.462 5.77-4.996 3.733-2.782 7.134-6.02 10.826-8.68 2.892-2.09 5.73-4.385 9.076-5.906 3.923-1.717 8.118-1.113 11.457-4.337l1.405 4.337zm27.226 93.496s.068.088.163.197c.508-.238 1.153-.38 1.445-.448.407-.11.754-.273 1.16-.402-.17-.23-.243-.427-.243-.427s6.183-.217 7.826-1.547c1.677-1.263 4.493-.747 6.747 0 2.274.787 5.593.292 5.593.292v.394c.49.236.733.71 1.337 1.003.476.143.835.21 1.25.414h4.724s7.866-1.317 6.447 1.82c-1.398 3.108-6.197 7.228-7.54 8.002-1.393.773-4.237-.238-4.237-.238v-.102c-.604.25-1.283.285-1.982.312-.224.51-.72.8-1.67.272-.217-.13-.488-.177-.814-.272-1.446.075-2.87.027-4.358-.06-1.982.203-3.944.617-4.928.617-1.093 0-1.928-.667-2.654-1.576-.848-.102-1.683-.238-2.484-.61-.475.576-2.58 1.9-10.27-7.644h4.486zm-2.273-22.027c.563-2.077 1.96.285 1.96.285l1.725.523.55 1.78s-1.147 0-2.837-.49c-1.69-.535-1.397-2.097-1.397-2.097m19.95-3.597c1.906-3.91 4.472-2.607 5.87-1.826 0 0-3.964 1.038-4.493 5.423-.407 3.163-.082 4.31.115 4.745.122.115.204.183.204.183s-.123-.02-.205-.182c-.638-.964-3.237-4.935-1.493-8.342m174.15-52.104c-8.323-1.398-13.278-6.088-18.28-11.274-6.226-6.483-4.026-15.178-11.316-25.89-7.345-10.73-23.256-21.93-30.043-24.727-6.74-2.687-13.223-3.99-13.223-3.99 3.767-3.924 7.84-12.694 6.482-16.664-1.316-3.978-7.853.23-7.853.23-9.708 4.012-26.19 7.487-30.757 7.725-4.63.266-11.07 0-11.07 0l-4.65-1.988s-5.94-1.996-10.515-2.73C207.45 61.208 201 60.97 201 60.97h-9.51l-2.395-.272h-1.92l-4.86.753-5.404.503h-7.27l-3.55.733-4.587.74-2.43.99-5.11.266-4.088 1.283-6.49 2.966-3.773 2.526-3.007.713-2.097-.26H130.7l-4.602.26h-1.616l-4.602-.26h-2.417l-3.808-.454-2.68-.285-2.723-.454-5.94-.807-4.336-.246s-1.67 0-1.92 1.473c-.314 1.48.33 2.023.33 2.023l.232 1.758.326 1.23 1.602 2.503 1.873 2.73 2.137 1.758 2.206 1.962 1.052 1.276.516.99 2.716 1.983 1.928 1.492 4.562 2.525 2.708 1.202 3.034 1.79 2.627 1.236-1.25 3.523s-.813 7.778 0 12.224c.795 4.46-3.61 8.526-9.258 8.912-5.586.374-20.058 9.992-26.126 16.678 0 0-28.508 22.97-35.77 34.476-7.257 11.457-11.662 25.617 0 28.89 11.674 3.372 25.698-15.193 32.6-15.193 6.823 0 24.872-3.312 32.128-7.75 7.222-4.48 10.474-14.446 12.435-21.125 2.037-6.72 3.652-11.132 3.652-11.132s3.998 11.47 4.813 14.804c.8 3.367.434 7.06.434 7.06s-2.043 4.08 1.61 7.412l-2.044 4.806s-5.227 6.68-6.02 10.358c-.836 3.72-3.246 10.392-.836 16.338 0 0 2.043 2.22 1.208 6.306-.78 4.08 1.63 8.9 7.243 8.9 5.66 0 6.856-2.954 6.856-2.954s5.985 6.306 8.035 8.132c1.996 1.867 5.24.36 5.24.36s3.612 4.84 5.248 7.06c1.574 2.226 4.785 4.84 4.785 4.84s.4 9.257.787 12.61c.408 3.333 7.277 10.76 9.28 18.138.25.998.522 1.934.794 2.762.772.353 1.566.645 2.367.93-.72-2.443-1.167-4.425-1.167-4.425s-6.218-10.976-7.806-14.472c-1.656-3.482-2.973-10.738-1.093-13.963l-.277-1.995s-4.853-4.725-6.78-7.182l-1.88-2.545s6.528-1.215 10.554 0c4.08 1.256 7.846.265 10.826-2.722 2.926-2.973 3.76-7.474 7.256-6.45 3.556.965 7.846 2.683 10.826-1.797 0 0-5.376 2.763-11.085-.963-5.68-3.72-10.812-3.72-10.812-3.72s2.974-2.03 2.974-5.274c0-3.21 2.715-6.706 2.715-6.706s1.052-2.974 0-4.494l-2.403 1.25s-.57 3-3.537 3.753c-2.952.753-6.76.27-6.76-3.014 0-3.224 4.08-7.718 8.104-7.718 4.04 0 4.827.265 4.325-3.21-.563-3.51-10.548-5.5-16.454-5.227-5.972.23-7.608 3.937-15.19 1.473-7.54-2.478-17.845 3-18.368 6.204-.53 3.292 1.358 3.496 1.358 3.496s.53-4.942 5.688.502c5.14 5.484 3.503 8.49.53 8.49-2.926 0-5.417-4.26-5.417-4.26s2.18 6.983 2.492 8.96c.21 2.042.523 7.988 3.482 9.997 0 0-3.272 3.726-6.774 2.26-3.496-1.54-4.86-4.494-4.08-7.76.876-3.244-2.138-6.217-2.138-9.692 0-3.516-.787-9.245 2.45-13.684 3.245-4.514 7.06-9.754 7.06-9.754l.21-5.234.313-2.505s7.012-12.183 11.64-12.936c4.515-.788 14.547-3.747 24.58 2.26 9.944 5.946 18.36 13.93 18.36 13.93s8.906 9.726 10.78 12.977l1.364 9.945v2.75l-.53 2.748-.835 2.227-1.025 3.726 2.39-1.004 1.615-1.5 1.887-.97-.523-2.248v-8.47l-.28-1.718.28-3.49v-2.497l.522-1.78 1.08-1.954.27-1.263v-1.242l3.503-3.25s4.08-3.734 5.444-5.967c0 0-2.716 12.21-5.167 15.958 0 0 5.94-7.737 6.774-9.99l.272 4.765v1.215l-1.88 3.51-.28 1.764-1.6 2.45-1.366 2.532-1.093 2.715-1.635 3.476 2.458-1.744 1.316-1.25 1.086-1.988 1.364-1.968 1.106-1.005-.27 3.246-1.366 2.49-.834 1.97-1.087 1.75-2.14 4.23-2.157 1.22-1.61 3.008-.84 1.758-.516 2.743-.835 2.206-.8 3.048s-1.345.25-1.345.978c0 .74-.272 2.477-.272 2.477s-.835 2.26-.835 3.476c0 1.275-.78 3.298-.78 3.298l-1.358 1.737s.25-.753-.502.733l-.85 1.487-.806.502-1.08.47-1.853 1.79-.874 3.21.305 5.03s1.06-4.805 4.033-7.018c2.987-2.268 3.238-3.748 3.238-3.748l1.1-1.493 1.066-1.48 5.417-6.51 2.45-5.444s1.643-2.763 2.403-3.265c.835-.474 3.25-2.463 3.25-2.463s.572-.502 1.1-1.276c.537-.752 1.617-1.486 2.153-2.246.562-.726 4.6-4.962 4.6-4.962l2.933-4.493 2.172-4.23 1.636-2.736 2.723-3.977.774-3.21 1.887-.327-.25 2.26-.802 3.26-.272 3.474-1.08 1.99-.86 1.988-.503 1.99-.564 4.01.313 3.21-.835 4.27-1.05 1.983-.572 2.49-.787 1.216s-1.363 1.976-1.363 3.014c0 1.005-.842 3.476-.842 3.476v2.505s.57 1.513.57 2.24v2.742l.754-.21.603-1.772.278-2.24 1.36-2.49.52-1.522.53-1.262s.523-1.214.836-2.504c.25-1.202.522-4.195.522-4.195s2.722-4.492 2.973-5.463c.273-1.025.836-2.525.836-3.245v-2.756s.564-.753.564-1.473c0-.726.488-3.258.488-3.258l1.08-1.717.807-5.233 1.35-3.014 1.36-1.717s.297 12.918-.524 15.93c-.834 2.954-1.92 7.95-1.92 7.95l-2.41 10.236s-1.63 9.203-1.88 9.957c-.278.76-3.557 6.72-4.317 8.457-.814 1.76-5.68 9.497-5.946 10.46-.27 1.012-7.053 10.474-7.053 10.474s-5.138 7.52-5.375 8.274c-.32.74-1.637 3.944-1.637 3.944l-1.358 2.763-1.35 4.262-.116.108c.678.088 1.323.143 1.967.156 1.982-1.595 2.73-5.036 2.73-5.036l2.416-4.23 3.767-4.744s2.464-2.49 2.722-3.238c.312-.76 1.127-1.472 1.127-1.472l5.402-6.95 1.086-3.3 2.94-3.957 2.992-6.01 1.65-3.69 1.846-4.013 4.073-8.24 1.58-7.738 3.014-8.466 1.88-6.448 1.88-3.252 3.78-5.24s2.194-5.695 2.404-6.523c.312-.698 3.815 3.05 3.815 3.05l-2.94 12.183-.875 7.99-4.018 13.94-1.92 10.46-.802 5.235-.25 3.02-1.366 3.74-1.88 7.956-4.84 12.456-5.382 11.607h.115c1.643-2.444 7.657-11.472 9.265-15.32 1.92-4.5 10.026-31.184 10.026-31.184l1.052-8.437s.876-7.025.876-7.738c0-.787.8-3.482.8-3.482l.822-4.012.224-3.753 1.61-7.208 1.635-6.47.522-.983 2.98-1.026.835 2.532 2.403 2.24 2.484.482 3.495.753 5.417 1.732s8.37 1.493 11.865-3.49c3.523-4.98 2.2-12.427 2.2-12.427s.522 10.71-6.768 12.428c-7.298 1.758-10.06 0-15.403-3.224-5.417-3.26-9.204-6.748-12.184-7.99-2.94-1.215-9.754-2.974-9.754-2.974l-2.69-1.764-3.495.258-4.874-3.727-1.892-1.507-1.88-1.744s-5.105-3.774-5.655-7.48l-1.093-2.75-1.08-2.002-.88-1.73-.755-1.99v-1.262l-.292-1.996v-2.735l-.53-4.243s-.787-4.982-1.05-5.715c-.266-.72 0-2.438 0-3.232 0-.726 1.05-2.756 1.05-2.756l-1.587-.747s-2.18 12.212-3.815 15.225c-1.6 2.98-12.957 20.432-22.148 23.412 0 0-16.752-15.728-25.142-19.468-8.376-3.713-20.805-6.163-29.446-1.215-8.68 4.954-12.13 13.2-12.13 13.2l1.046-7.214.312-3.25 1.61-.232-1.922-6.238-.808-6.985v-2.72l-.55-3.266-.258-1.25-1.364-2.225-.523-1.006-1.893-1.215-1.08-2.26 4.025 1.234-1.575-2.952-2.16-2.295-1.397-1.968-1.046-1.528-1.092-1.99-1.114-2.22s2.437 6.232 1.114 7.705c-1.365 1.507-6.49-3.495-5.655-10.44l-.312-2.266-.523-2.96v-3l-.305-3.264 1.14-3.224v-1.466l-.312-2.044.312-2.973-1.357 2.22-2.193-.49-2.66-.713-2.73-1.527-2.708-2.002-3.82-2.206-2.14-2.023s-5.932-5.737-7.54-8.927c-1.623-3.258.522-5.016 2.94-4.514 2.456.5 7.852.99 13.56 1.465 5.648.503 18.11.754 18.11.754-3.285 4.5-7.575 14.477-7.575 14.477 2.403-3.97 9.463-12.435 9.463-12.435s4.337-2.797 5.946-4.765c1.596-2.003 10.787-5.234 14.024-5.234 3.245 0 8.628-2.016 11.608-2.504 2.993-.504 5.172.25 5.172.25l1.88.502.523 1.75 1.113 2.75 2.13-1.493 2.16-1.257 4.06-3.007 4.33-.237h2.96s10.8.52 18.136.52c7.297 0 16.99 4.95 16.99 4.95l-1.588 1.5 1.88 3.767c7.29 1.99 10.263 7.202 10.263 7.202l-1.322-2.73-1.92-3.224-2.41-2.016-2.764-2.498 3.292-.244c12.395.244 33.52-7.46 38.1-9.965 4.61-2.484 3.768 1.5 3.768 1.5-3.23 18.205-32.942 29.16-32.942 29.16l-.305 4.013-.258 2.47c3.02.985.82 4.718.82 4.718l-1.608.747-1.61 1.507-.55 1.758-.813 2.716s-1.36 5.24-1.637 7.976c-.25 2.743-1.086 5.75-1.086 5.75l2.15-.998.572-2.26.813-4.942 1.324-2.26 1.106-1.025s1.08-1.75 3.767-1.75c2.668 0 3.496 2.776 3.496 2.776 2.73 4.242 17.275 12.68 21.898 17.16 4.615 4.54 9.21 15.97 9.21 15.97l-3.794-1.757s-4.88-5.757-11.322-10.23c-6.53-4.48-7.887-3.985-14.634-5.213-6.734-1.222-10.813-3.965-13.752 0-2.98 4.01 3.774 5.77 3.774 5.77-2.688-1.76-1.365-3.028 1.086-4.02 2.41-1.017 6.448 2.743 6.448 2.743s1.358 1.975 8.146 12.707c6.747 10.69 7.27 21.158 7.27 21.158s4.08-2.47 4.323-5.947c.277-3.516-1.922-14.967-2.662-17.743-.835-2.708-.312-6.95-.312-6.95l6.218 8.47c5.966 5.234 18.938 21.436 18.938 21.436-2.98-7.004-12.707-18.943-12.707-18.943l4.867 2.26c11.88 8.71 21.592 31.36 21.592 31.36s-1.656-9.415-6.455-17.662c-4.86-8.213-16.503-20.934-16.503-20.934s-3.767-10.96-10.568-16.195c-6.735-5.253-17.812-12.937-17.812-12.937 4.018.984 14.023 5.695 14.023 5.695-5.354-5.967-15.08-8.974-15.08-8.974l-4.597-6.47.523-2.94-.523-2.754-2.2-2.01 1.107-2.756c14.044-3.733 24.314-15.45 24.314-15.45s8.62 1.25 19.448 7.746c10.826 6.45 18.653 15.443 22.74 20.167 4.017 4.73 6.427 15.917 9.712 22.685 3.21 6.7 7.284 11.47 19.413 15.442 1.283.435 2.64.726 4.005.93-.278-.93-.53-1.853-.84-2.858" fill="#00539b"/><path d="M343.26 141.222c1.48-.034 3.326.32 4.84.537 1.418.182 2.905.372 4.33.413 3.286.088 6.34.97 9.462 1.812 1.59.407 3.537.713 4.745 1.717.49.414 1.473 1.093 1.69 1.61.598 1.723-3.903.074-4.82-.17-1.282-.476-2.762-.83-4.058-.97-2.24-.252-4.597-.22-6.64-.904-1.805-.53-3.89-1.066-5.735-1.25-1.02-.067-2.492.035-3.503-.305M179.593 273.952c.563 1.995 1.758 3.807 2.41 5.81.36 1.147.407 2.22 1.01 3.224.558 1.025 1.393.754 2.424.957-.122-1.615-.91-3.502-1.595-4.867-.76-1.412-1.357-2.864-1.927-4.33M217.443 281.447c-.754 1.392-1.887 2.627-2.525 4.046-.353.72-.387 1.514-.76 2.186-.91 1.607-2.315 3.08-3.476 4.458-.367.47-.638 1.385-1.575.917-.91-.428-.163-.99.197-1.575.93-1.54 2.206-2.892 3.082-4.514.645-1.256 1.29-2.35 2.145-3.482.517-.713.87-1.935 1.874-2.077M244.318 281.196c-.87 1.534-1.602 3.23-2.457 4.765-1.398 2.404-2.565 5.16-3.353 7.794-.115.516-.896 4.873-2.22 3.747.293-.427.775-.794 1.012-1.316.162-.44.074-1.012.162-1.48.292-2.26 1.195-4.446 2.247-6.448.915-1.792 2.368-3.442 3.556-4.97.597-.69 1.46-1.41 1.303-2.327" fill="#00539b"/><path d="M365.55 145.165c.794-.033 1.615.218 2.328.34 1.215.305 2.294.305 3.448.373 1.453.116 2.892.116 4.29.34.53.162 1.06.095 1.324.448.25.434.25 1.113.25 1.547-1.133.333-2.565-.04-3.7-.074-.962-.076-2.035-.11-3.006-.144-.8 0-1.554 0-2.294-.122-.427-.055-.835-.163-1.283-.238M321.36 159.716c-2.29 4.154-.795 12.97-1.087 17.92-.523 10.527.563 20.92-1.73 31.393-.91 4.072-1.888 8.2-2.64 12.3-.483 2.958-1.244 5.992-2.126 8.85-2.654 8.566-7.005 16.773-11.302 24.796-6.55 12.313-16.243 23.1-25.963 33.35 1.052-1.325 2.253-1.678 3.74-2.492 1.962-1.182 4.487-2.173 6.177-3.564 1.798-1.54 2.286-3.693 3.766-5.308.76-.862 1.846-1.398 2.6-2.288.74-.93 1.174-1.975 2.023-2.85 1.322-1.345 1.356-2.403 2.483-3.856 1.962-2.437 3.808-4.887 5.736-7.344 1.363-1.826 2.442-3.476 3.243-5.512.597-1.616 1.358-3.414 2.484-4.738 1.283-1.588 1.596-3.49 2.044-5.335.408-1.834 1.284-3.3 2.044-4.936 1.357-3.04.97-6.45 2.328-9.367 1.853-4.012 2.898-6.836 3.577-11.214 1.927-11.79 2.96-23.67 4.41-35.37 1.067-8.527-.175-16.272-2.137-24.105M342.777 171.79c0 8.37-.488 16.875-1.323 25.116-.76 7.174-2.33 13.657-3.842 20.71-.856 4.466-2.573 9.15-3.347 13.785-.712 4.678-2.64 7.475-4.16 11.77-1.88 5.445-2.404 11.42-4.97 16.543-.53 1.12-1.282 2.865-2.368 3.666-1.046.76-2.342.277-3.4 1.153 4.757.753 6.936-5.016 8.565-8.07.815-1.61 1.684-2.832 1.955-4.657.34-2.247.49-4.542 1.392-6.686 1.275-3.13 3.583-5.784 4.227-9.096.686-3.924.78-7.793 1.887-11.628 2.336-8.294 3.618-16.447 5.383-24.96 1.324-6.074 2.838-11.843 2.49-18.4-.216-3.53-1.444-6.062-2.49-9.245M286.617 138.82c9.795 1.263 19.896.877 28.883-3.17-4.928 2.703-10.413 6.612-16.155 7.617-3.34.645-6.26.482-9.184-1.005-2.687-1.37-6.828-1.826-8.905-3.407 2.37-1.147 4.487.957 7.1.61M366.345 180.605c.1 3.516-1.507 7.297-2.444 10.61-1.282 4.302-2.986 8.762-4.533 12.937-1.88 5.206-3.55 11.145-4.725 16.637-1.798 8.178-4.56 16.167-6.78 24.136-.795 3.02-1.996 4.97-3.123 7.5 1.05-.115 2.45-2.647 3.087-3.624.835-1.31 1.44-2.763 2.037-4.23.217-.59.604-1.166.76-1.73.183-.638.183-1.357.414-1.995.516-1.765 1.2-3.374 1.772-5.09.482-1.685.638-3.354.91-5.085.36-2.478 1.16-4.874 1.723-7.365.197-1.1.333-2.206.598-3.285.238-1.114.76-2.145 1.134-3.204.272-.808.482-1.65.99-2.424.64-1.147.782-2.464.897-3.828.076-.685.164-1.398.38-2.084.22-.923.972-1.683 1.474-2.504.475-.863.666-1.725.788-2.688.332-2.22.685-4.494 1.446-6.646.882-2.56 2.654-4.88 3.197-7.507.53-2.267.488-4.623.488-7.025l-.488-1.507z" fill="#00539b"/><path d="M142.144 425.412v-2.383h7.54V425.41h-7.54zm8.125-18.402h-8.126v-.937h8.14c0 .04-.015.068-.015.116v.82zm-117.41 6.34l-.7 2.85H18.206v4.494c.04 1.208 0 2.227-.068 3.082-.237-1.785-.394-4.276-.36-7.446 0-1.9.048-3.605.123-5.05v2.07h14.96zm145.517-2.54h6.422v-5.68c.04-4.887-1.712-9.266-5.133-12.07-3.407-2.857-7.813-3.827-12.15-3.827-4.052-.034-7.983 1.113-11.037 3.373v-2.532H111.32v4.127l-1.35-4.126H92.165v4.148c-2.898-2.905-7.127-4.182-11.35-4.148H61.058v18.531l-4.63-18.53H38.67l-.855 3.482-2.47 9.686c-.286-2.03-.856-4.154-2.017-6.3-2.158-4.37-7.73-7.887-14.865-7.71-7.345-.25-13.488 3.556-15.795 8.837C.258 403.23 0 409.128 0 415.72c0 6.61.258 12.543 2.668 17.7 2.233 5.126 8.077 8.846 15.11 8.846.237 0 .468 0 .685-.048 2.756.09 5.288-.448 7.494-1.377l-.095.57h18.544l1.84-8.96h2.606l1.06 5.302.752 3.66h28.189v-4.997c.273.91.646 1.846 1.284 2.844l1.398 2.15h27.784v-4.398l1.46 4.4H157.008v-1.5c2.823 1.573 6.332 2.306 10.106 2.306h.17c5.138.048 10.026-1.2 13.623-4.39 3.576-3.185 5.185-7.868 5.165-13.08.38-5.16-2.186-10.672-7.698-13.937M225.43 414.822c-1.16-1.52-2.687-2.9-4.534-4.012h5.553l-1.02 4.012zm47.726-20.663l-1.365-4.087h-17.789v18.53l-4.636-18.53h-17.716l-.875 3.482-3.455 13.834v-2.255c.034-4.9-1.69-9.265-5.14-12.075-3.4-2.858-7.805-3.822-12.142-3.822-4.745-.04-9.34 1.392-12.592 4.514-3.217 3.184-4.656 7.562-4.656 12.435-.312 5.41 2.077 9.87 5.865 12.972H192.224v6.237c0 4.5 1.004 8.797 4.174 12.11 3.17 3.298 7.948 4.71 13.195 4.71h.224c3.25.054 6.413-.44 9.155-1.622l-.196.814h18.638l1.805-8.954h2.566l1.092 5.302.754 3.65h27.512v-4.39l1.48 4.39h17.688v-51.335h-17.16v4.086zM407.5 433.102c-.116-.7-.238-2.186-.238-4.182-.09-4.615-.17-7.97-1.562-11.227-.32-.72-.685-1.405-1.174-2.05 2.043-2.688 2.946-6.163 2.946-9.564h1.473v27.83l-1.446-.808zm55.313-43.028v4.086l-1.364-4.086h-61.255v1.96c-2.45-1.33-5.32-1.988-8.213-1.96H372.17v18.476l-4.583-18.476H349.83l-.87 3.482-3.91 15.673v-19.156h-20.926l-1.69 8.837-1.717-8.836h-20.934v51.336h55.824l1.84-8.953h2.525l1.087 5.3.76 3.653H390.013v-5.01c.278.89.638 1.854 1.25 2.865l1.43 2.145h34.069v-35.33h2.87v35.33h31.212v-4.392l1.44 4.392H480v-51.336h-17.187z" fill="#ed1d24"/><path d="M387.216 411.17h1.29c2.525 0 3.998-.74 3.998-4.432 0-3.51-1.69-3.99-3.544-3.99h-1.744v8.422zm-29.962 7.88h2.872l-1.392-7.018-1.48 7.02zm87.387 19.76h-12.183v-35.33h-8.511v35.33H411.754v-35.33h-7.182c.075.665.15 1.337.15 1.988 0 5.43-1.853 8.492-4.005 10.25 3.326 2.328 3.658 6.863 3.733 13.223.04 1.508.082 5.567.794 5.994l.978.523V438.81h-11.954l-.604-.91c-1.052-1.6-1.235-3.543-1.283-5.375l-.21-8.132c-.114-3.482-1.75-3.482-2.714-3.482h-2.24V438.81H364.183l-.326-1.52-1.556-7.433h-7.208l-1.534 7.433-.313 1.52H330.678v-16.358l-3.095 14.838-.326 1.52h-9.667l-.373-1.52-3.123-14.838v16.358h-11.504v-46.136h15.795l.292 1.58 3.753 19.604 3.774-19.603.292-1.582H342.21v39.424l9.503-37.93.374-1.494h13.221l.395 1.494 9.313 37.25v-38.743h16.963c5.2 0 8.995 2.043 11.03 5.7V392.675H444.643v46.136zm32.528 0H464.4l-.468-1.337-5.906-17.818V438.81H446.486v-46.136h12.897l.44 1.323 5.818 17.316V392.673h11.525v46.137zM76.082 411.17h1.276c2.525 0 3.985-.74 3.985-4.432 0-3.51-1.69-3.99-3.537-3.99h-1.724v8.422zm-29.955 7.88h2.844l-1.397-7.045-1.446 7.046zm-27.66 20.602c-14.478 0-15.646-11.818-15.646-23.9 0-12.116 1.17-23.914 15.647-23.914 14.43 0 14.43 12.81 14.43 17.038v1.9H20.742v-1.9c0-6.958-1.6-6.958-2.796-6.958-1.82 0-2.946 2.444-2.946 14.452 0 13.182 1.847 13.182 3.09 13.182.942 0 2.945 0 2.945-8.852v-1.907h12.211v1.907c0 .788 0 1.772-.04 2.85l7.35-29.383.394-1.494H54.158l.386 1.494 9.313 37.25v-38.743h16.957c7.956 0 12.714 4.785 12.714 12.794 0 5.41-1.806 8.492-3.964 10.25 3.32 2.328 3.652 6.863 3.774 13.223 0 1.508.034 5.567.753 5.994l.89.455v-42.716H107.88l.448 1.35 5.818 17.29V392.673h11.532v46.136H112.9l-.45-1.337-5.925-17.818V438.81H83.114l-.61-.91c-1.005-1.6-1.243-3.51-1.277-5.375l-.217-8.132c-.156-3.482-1.73-3.482-2.674-3.482h-2.254V438.81H53.04l-.346-1.52-1.546-7.433h-7.19l-1.506 7.433-.332 1.52H29.368l.604-2.328.78-3.06c-2.03 3.474-5.687 6.23-12.285 6.23m134.1-17.88h12.164v3.157c0 4.296 1.284 4.622 3.24 4.622 1.75 0 2.748-1.236 2.748-3.333 0-2.587-.706-3.544-5.87-5.43-7.034-2.6-11.758-6.036-11.758-14.602 0-.937.068-1.826.183-2.708h-13.901v6.15H152.798v10.812H139.372v7.562H152.676c-.075-.815-.11-1.677-.11-2.613V421.775zm14.757 17.88c-6.543 0-10.908-2.125-13.14-6.333v5.49H127.14v-46.136H153.647V401.585c1.588-6.184 6.53-9.748 13.915-9.748 9.15 0 14.397 4.847 14.397 13.298V408.23H170.126v-1.913c0-4.4-1.63-4.4-2.294-4.4-1.025 0-2.532 0-2.532 3.036 0 1.88.26 2.81 2.98 4.045l6.22 2.85c7.27 3.368 8.742 7.583 8.742 12.898 0 9.61-5.655 14.906-15.918 14.906m71.747-20.6h2.88l-1.446-7.047-1.433 7.046zm-29.24 20.6c-9.823 0-14.79-4.8-14.79-14.26v-3.618h12.21V424.928c0 4.296 1.29 4.622 3.25 4.622 1.698 0 2.75-1.236 2.75-3.333 0-2.587-.767-3.544-5.83-5.43-7.1-2.6-11.818-6.036-11.818-14.602 0-9 5.396-14.35 14.43-14.35 9.178 0 14.452 4.847 14.452 13.298V408.23H212.646v-1.913c0-4.4-1.615-4.4-2.34-4.4-.965 0-2.526 0-2.526 3.036 0 1.866.298 2.81 3.013 4.045l6.218 2.85c7.284 3.334 8.75 7.583 8.75 12.898v.4l7.773-30.98.332-1.493H247.13l.392 1.494 9.306 37.25v-38.743h12.885l.42 1.323 5.83 17.33v-18.653H287.476v46.136h-12.747l-.448-1.337-5.906-17.777v19.114H245.97l-.292-1.52-1.554-7.433h-7.19l-1.553 7.433-.293 1.52H222.33l.605-2.328.835-3.346c-2.498 4.242-7.25 6.516-13.943 6.516" fill="#fff"/><path d="M467.705 394.573v28.99h-.116l-9.728-28.99h-9.292v42.322h7.378V407.26h.122l9.87 29.635h9.163v-42.322h-7.398zm-33.207 42.322h8.064v-42.322h-8.064v42.322zm-29.404-35.31h8.742v35.31h8.064v-35.31h8.743v-7.012h-25.55v7.012zm-16.597 11.478h-3.346v-12.218h3.816c3.652 0 5.58 1.968 5.58 5.892 0 4.575-2.16 6.326-6.05 6.326m13.916 15.89c-.163-8.946-.97-12.137-6.448-12.917v-.102c4.527-1.045 6.68-4.84 6.68-10.467 0-7.215-4.08-10.894-10.665-10.894H377.1v42.322h8.05v-17.88h4.338c3.204 0 4.63 2.003 4.738 5.336l.204 8.14c.068 1.65.25 3.224 1.01 4.405h8.737v-.36c-1.493-.82-1.717-3.115-1.765-7.582m-47.61-8.003l3.85-19.026h.115l3.87 19.026h-7.834zm-1.085-26.377l-10.583 42.322h8.383l1.853-8.92H364l1.887 8.92h8.41L363.7 394.573h-9.983zm-31.265 29.887h-.095l-5.736-29.887h-11.946v42.322h7.386v-33.75h.108l7.1 33.75h6.293l7.107-33.75h.09v33.75h7.377v-42.322h-11.906l-5.776 29.887zm-44.4-.896h-.115l-9.76-28.99h-9.273v42.32h7.385V407.26h.12l9.837 29.635h9.177v-42.322h-7.37v28.99zm-41.473-2.614l3.888-19.026h.123l3.836 19.026h-7.847zm-1.046-26.377l-10.55 42.322h8.35l1.847-8.92h10.63l1.847 8.92h8.417l-10.555-42.322h-9.986zm-19.454 18.965l-6.218-2.837c-3.4-1.533-4.113-3.15-4.113-5.75 0-2.49.956-4.886 4.56-4.886 3.088 0 4.37 2.274 4.37 6.252h7.773v-1.18c0-8.12-5.247-11.385-12.414-11.385-7.617 0-12.355 4.196-12.355 12.437 0 7.066 3.278 10.215 10.473 12.83 5.322 1.933 7.175 3.366 7.175 7.2 0 3.578-2.383 5.227-4.826 5.227-4.276 0-5.322-2.525-5.322-6.516v-1.235h-8.064v1.724c0 7.826 3.578 12.306 12.7 12.306 8.75 0 13.923-4.018 13.923-12.978 0-5.14-1.595-8.41-7.663-11.207m-42.5 0l-6.217-2.837c-3.414-1.533-4.133-3.15-4.133-5.75 0-2.49.93-4.886 4.61-4.886 3.08 0 4.322 2.274 4.322 6.252h7.725v-1.18c0-8.12-5.193-11.385-12.32-11.385-7.657 0-12.4 4.196-12.4 12.437 0 7.066 3.284 10.215 10.466 12.83 5.335 1.933 7.167 3.366 7.167 7.2 0 3.578-2.34 5.227-4.832 5.227-4.256 0-5.31-2.525-5.31-6.516v-1.235h-8.056v1.724c0 7.826 3.57 12.306 12.727 12.306 8.7 0 13.874-4.018 13.874-12.978 0-5.14-1.575-8.41-7.623-11.207m-36.293 4.996h13.467v-7.012h-13.467v-9.937h14.28v-7.012h-22.344v42.322h22.936v-6.985h-14.873v-11.376zm-21.063 5.03h-.115l-9.735-28.99h-9.313v42.32h7.392V407.26h.108l9.897 29.635h9.183v-42.322h-7.42v28.99zm-38.86-10.5h-3.367v-12.22h3.808c3.652 0 5.58 1.97 5.58 5.893 0 4.575-2.16 6.326-6.02 6.326m13.887 15.89c-.13-8.946-.964-12.137-6.43-12.917v-.102c4.51-1.045 6.626-4.84 6.626-10.467 0-7.215-4.018-10.894-10.636-10.894h-14.88v42.322h8.065v-17.88h4.33c3.21 0 4.616 2.003 4.745 5.336l.23 8.14c.042 1.65.24 3.224.992 4.405h8.756v-.36c-1.527-.82-1.758-3.115-1.798-7.582m-47.637-8.003l3.87-19.026h.12l3.897 19.026h-7.887zm-1.053-26.377l-10.595 42.322h8.43l1.812-8.92H52.9l1.806 8.92h8.424l-10.59-42.322h-9.978zm-24.477 36.87c-3.51 0-5.158-2.286-5.158-15.108 0-11.967.95-16.27 5.043-16.27 3.625 0 4.833 2.64 4.833 8.817h8.07c0-6.177-.868-15.13-12.407-15.13-12.09 0-13.603 9.122-13.603 22 0 12.87 1.513 21.97 13.603 21.97 10.582 0 12.7-7.866 12.7-17.023h-8.058c0 9.156-2.124 10.744-5.023 10.744" fill="#00539b"/><path d="M89.72 473.662c0-5.057 4.324-11.77 4.894-13.976.04-.245.122-.462.122-.66 0-.522-.312-.773-.76-.773-2.532 0-10.596 6.272-19.454 17.615-.753.95-.726 2.023-1.846 2.023-.306 0-.68-.1-1.16-.27-1.555-.517-2.214-1.63-2.214-3.008 0-5.07 8.105-14.356 9.585-18.185.163-.366.278-.65.278-.855 0-.197-.156-.326-.353-.326-2.403 0-18.884 17.54-21.626 21.823-.305.488-.794.895-1.48.895-.23 0-.448-.04-.665-.102-.908-.305-1.58-1.33-1.58-2.837 0-1.968 1.086-4.874 4.06-8.49 4.445-5.452 9.46-12.28 9.46-15.125 0-.82-.488-1.363-1.513-1.363-1.84 0-5.54 1.615-12.394 5.898-1.086.72-1.88 1.025-2.573 1.025-.638 0-1.08-.366-1.493-.97-.15-.285-.272-.543-.272-.754 0-.577.49-1.052 1.65-1.54-.095.183-.883.787-.883 1.038 0 .054.143.054.19.054.09 0 .408-.13 1.168-.502 3.373-1.887 5.905-3.17 10.664-4.887 1.126-.402 2.45-.66 3.808-.66 3.013 0 5.864 1.188 5.864 4.596 0 1.86-.964 4.588-3.163 7.772-.292.468-.604.903-.706 1.29.292-.177.523-.387 1.453-1.25 3.373-3.122 8.35-7.99 11.71-7.99.88 0 1.69.354 2.286 1.162.564.74.808 1.615.808 2.593 0 2.688-1.8 5.953-3.095 8.247-.157.224-.198.36-.198.61.25-.148.753-.535.842-.61 7.948-6.747 12.91-9.062 15.856-9.062 2.797 0 3.76 1.97 3.76 4.365 0 1.344-.17 2.444-.767 3.984-1.595 4.12-3.407 10.57-3.407 12.952 0 .38.04.664.156.766.11.217.217.454.217.644 0 .347-.333.652-1.162.652-.29 0-.65-.034-1.133-.13-3.733-.786-4.935-2.992-4.935-5.68M119.428 454.058c.455 0 1.086.95 1.086 1.69 0 .387-.265.713-.482.82-1.202.47-4.758 2.295-7.97 3.91-.21.07-.325.07-.447.07s-.15-.07-.15-.137c0-.148.075-.27.23-.406 1.698-1.494 6.253-5.098 7.264-5.702.162-.17.312-.244.468-.244m-3.706 7.765c1.31 0 2.226.842 3.32 3.136.08.175.08.284.08.352 0 .217-.122.326-.264.326-.19 0-.428-.143-.618-.326-.217-.25-.557-.353-1.005-.353-2.89 0-10.032 4.84-11.838 8.307-.108.184-.197.394-.197.618 0 .32.157.57.47.57.175 0 .522-.142.97-.468 2.755-2.077 7.425-6.062 9.02-6.557.292-.11.7-.11.97-.11 1.36-.04 2.2 1.148 2.2 2.22 0 .218-.033.435-.122.605-.482 1.418-2.96 4.56-3.597 6.238-.013.15-.1.332-.1.468 0 .286.148.524.42.524.15 0 .27-.088.434-.238 1.684-1.18 5.33-4.398 6.944-6.13.353-.332.57-.474.76-.474.116 0 .19.08.19.224 0 .074-.034.217-.115.387-1.01 1.378-5.328 5.206-7.25 6.638-.53.402-1.004.585-1.567.585-1.175 0-2.417-.99-2.417-2.87 0-1.257.53-2.907 1.886-4.963.156-.204.204-.387.204-.523 0-.07-.027-.164-.156-.164-.122 0-.197 0-.313.095-3.175 1.576-6.108 6.266-9.27 8.724-.49.373-.978.495-1.474.495-1.656 0-3.217-1.84-3.217-3.592 0-.38.08-.787.236-1.113 2.675-6.027 10.55-10.928 13.4-12.137.964-.427 1.405-.495 2.016-.495" fill="#ed1d24"/><path d="M129.34 462.7c.25 0 .637.338 1.764 1.607.564.652.835 1.12.835 1.54 0 .687-.748 1.264-2.193 1.922-1.568.658-2.634.97-2.634 1.452 0 .142.11.285.305.502 1.12 1.106 2.892 2.49 2.525 4.48 1.046-.706 4.29-3 5.81-4.195.17-.164.36-.21.53-.21.116 0 .204.046.204.168 0 .095-.088.258-.204.4-1.167 1.107-6.455 5.16-6.455 5.37-.08 2.892-5.213 4.37-8.417 4.37-.895 0-1.648-.14-2.096-.372-.306-.156-.448-.394-.448-.7 0-.318.203-.678.617-1.072 1.636-1.54 7.413-3.943 7.413-6.23 0-.293-.075-.632-.36-.93-1.12-1.263-2.593-2.6-2.593-3.944 0-1.365 1.195-2.593 4.833-3.944.217-.068.367-.217.563-.217M151.993 462.7c.258 0 .638.338 1.772 1.607.563.652.87 1.12.87 1.54 0 .687-.755 1.264-2.235 1.922-1.568.658-2.6.97-2.6 1.452 0 .142.075.285.306.502 1.093 1.106 2.87 2.49 2.49 4.48 1.087-.706 4.29-3 5.852-4.195.184-.164.367-.21.49-.21.135 0 .25.046.25.168 0 .095-.115.258-.25.4-1.128 1.107-6.45 5.16-6.45 5.37-.088 2.892-5.22 4.37-8.382 4.37-.93 0-1.684-.14-2.14-.372-.27-.156-.42-.394-.42-.7 0-.318.184-.678.598-1.072 1.67-1.54 7.44-3.943 7.44-6.23 0-.293-.068-.632-.388-.93-1.126-1.263-2.565-2.6-2.565-3.944 0-1.365 1.168-2.593 4.8-3.944.258-.068.366-.217.563-.217" fill="#ed1d24"/><path d="M166.764 475.597c0-1.06.468-2.437 1.602-4.195.13-.21.13-.265.11-.265-.076 0-.232.13-.544.374-3.055 2.336-6.43 6.816-9.076 6.816-.794 0-2.525-.61-2.525-2.688 0-4.073 6.334-11.105 6.334-12.117 0-.073-.047-.1-.156-.1-.115 0-.204-.143-.204-.28 0-.1.204-.372.516-.338 2.485.36 3.38 1.46 3.38 2.62 0 2.668-4.25 6.49-5.13 8.166-.218.502-.374.862-.374 1.06 0 .195.122.27.237.27.455 0 1.5-.72 1.887-1.004 3.768-2.648 4.745-3.72 6.103-4.908 1.208-1.08 1.846-2.722 1.927-2.993.068-.537.17-.74.516-.74.876.034 2.45.794 2.45 2.335 0 .97-.29 1.9-.76 2.85-.97 1.983-2.647 4.277-3.3 5.892-.12.292-.195.503-.195.666 0 .122.075.23.197.23.856 0 3.822-2.864 5.5-4.425 1.125-1.045 1.804-1.452 2.05-1.452.046 0 .094 0 .094.068 0 .224-.53 1.005-1.46 1.975-1.675 1.61-4.41 5.126-6.692 5.126-.448 0-.773-.142-1.16-.394-.8-.556-1.324-1.432-1.324-2.545" fill="#ed1d24"/><path d="M190.624 461.818c1.324 0 2.2.842 3.36 3.136.08.183.08.285.08.353 0 .224-.148.333-.31.333-.17 0-.408-.15-.598-.333-.217-.244-.564-.353-1.012-.353-2.918 0-10.025 4.84-11.838 8.315-.074.183-.19.393-.19.61 0 .32.15.57.442.57.196 0 .522-.135 1.03-.468 2.696-2.07 7.387-6.055 8.96-6.55.354-.11.68-.11.992-.11 1.324-.04 2.172 1.148 2.172 2.22 0 .21-.034.428-.095.612-.502 1.412-2.912 4.554-3.55 6.23-.08.143-.122.327-.122.47 0 .284.156.515.387.515.163 0 .258-.09.448-.232 1.697-1.18 5.335-4.405 6.937-6.13.326-.332.57-.48.76-.48.116 0 .177.087.177.237 0 .06-.027.21-.143.373-.942 1.378-5.246 5.213-7.207 6.645-.523.394-1.046.577-1.568.577-1.16 0-2.403-.99-2.403-2.864 0-1.263.516-2.912 1.873-4.97.13-.196.218-.372.218-.515 0-.074-.04-.162-.197-.162-.055 0-.13 0-.292.088-3.123 1.582-6.102 6.266-9.272 8.723-.462.38-.985.5-1.433.5-1.69 0-3.252-1.838-3.252-3.596 0-.374.13-.788.238-1.114 2.647-6.014 10.595-10.928 13.385-12.123.98-.434 1.467-.51 2.024-.51" fill="#ed1d24"/><path d="M199.567 465.423c0-.183.11-.36.44-.258 2.845.63 3.775 1.724 3.775 3.034 0 2.7-4.14 6.38-4.14 8.402 0 .136.034.34.122.51.034.1.142.135.244.135 1.75 0 9.74-5.647 9.74-11.607 0-1.18-.312-2.294-.95-3.333-.074-.15-.04-.217.04-.217.103 0 .273.102.564.238 1.888 1.018 2.94 2.538 2.94 4.425 0 3.184-3.116 7.23-10.29 11.03-1.16.61-2.288.876-3.015.876-1.086 0-1.92-.442-2.674-1.25-.333-.394-.495-1.16-.495-1.486 0-3.483 4.106-9.07 4.106-9.822 0-.245-.407-.306-.407-.68M220.224 472.337c-.292 0-.414-.123-.414-.252 0-.25.333-.57.645-.794 2.742-1.716 4.582-3.094 4.786-4.54.034-.393-.162-.502-.373-.502-.36 0-.72.197-1.12.394-2.328.964-7.14 4.955-8.152 10.21-.115.86.373 1.07.977 1.07 2.81 0 11.31-5.402 14.24-8.24.07-.108.19-.142.273-.142.115 0 .19.075.19.217 0 .09-.04.217-.15.34-3.013 3.89-9.584 9.184-14.152 9.184-1.453 0-2.56-.495-3.496-1.84-.522-.725-.72-1.513-.72-2.34 0-1.603.72-3.32 1.657-4.84 1.778-2.838 5.437-7.148 8.084-7.148.326 0 .652.048 1.005.23 1.812 1.114 2.68 2.153 3.536 3.334.196.25.278.543.278.862 0 1.934-4.168 3.977-6.374 4.676-.333.09-.523.123-.72.123" fill="#ed1d24"/><path d="M236.625 462.7c.265 0 .638.338 1.724 1.607.603.652.875 1.12.875 1.54 0 .687-.76 1.264-2.193 1.922-1.574.658-2.586.97-2.586 1.452 0 .142.054.285.25.502 1.128 1.106 2.88 2.49 2.52 4.48 1.06-.706 4.303-3 5.81-4.195.21-.164.38-.21.536-.21.116 0 .23.046.23.168 0 .095-.114.258-.23.4-1.18 1.107-6.455 5.16-6.455 5.37-.075 2.892-5.233 4.37-8.35 4.37-.997 0-1.716-.14-2.164-.372-.292-.156-.442-.394-.442-.7 0-.318.212-.678.64-1.072 1.615-1.54 7.385-3.943 7.385-6.23 0-.293-.082-.632-.333-.93-1.147-1.263-2.6-2.6-2.6-3.944 0-1.365 1.16-2.593 4.813-3.944.237-.068.373-.217.57-.217M243.866 475.295c0-.034.136-.143.258-.197.075-.075.23-.142.272-.075 1.06.788 1.527 1.582 1.527 2.35 0 1.934-2.81 3.746-6.218 5.2-.108.026-.21.066-.25.066-.157 0-.232-.09-.232-.157 0-.15.075-.25.272-.454 2.668-2.296 4.663-5.215 4.663-6.253 0-.183-.034-.285-.19-.32-.102-.04-.102-.108-.102-.162M265.42 462.16c0-.182.27-.27.604-.27.91 0 1.622.875 1.622 2.226 0 .91-.34 2.057-1.14 3.414-.217.292-.285.543-.285.59 0 .042 0 .082.035.082.203 0 .835-.434 2.565-1.846 1.494-1.296 3.13-1.975 4.413-1.975 1.242 0 2.07.646 2.07 2.098 0 .57-.11 1.344-.455 2.22-.088.3-.183.556-.183.63 0 .042 0 .07.02.07.075 0 .197-.07.51-.286 4.405-3.8 7.46-5.233 9.305-5.233 1.657 0 2.403 1.146 2.403 2.76 0 1.182-.4 2.472-1.08 3.823-1.777 3.305-2.606 5.35-2.606 6.183 0 .428.23.598.523.598.808 0 2.722-1.46 5.09-3.835 1.087-1.02 1.576-1.468 1.963-1.468.04 0 .08 0 .08.11 0 .25-.48.91-1.356 1.75-3.252 3.184-4.78 4.86-6.782 4.86-.36 0-.678-.034-.997-.13-2.28-.67-3.048-1.682-3.048-3.073 0-2.05 1.778-4.556 3.326-6.884.794-1.256 1.12-1.99 1.12-2.505 0-.36-.15-.508-.448-.508-2.07 0-10.094 6.774-12.503 12.4-.082.218-.28.32-.475.32-.482 0-1.243-.495-1.684-1.147-.38-.638-.61-1.27-.61-1.99 0-1.947 1.527-4.343 3.13-6.34.806-.983 1.526-2.096 1.526-2.673 0-.19-.122-.333-.367-.333-.108 0-.25.047-.516.142-2.81 1.106-10.108 9.584-11.078 11.73-.075.19-.15.25-.23.25-.042 0-.19-.06-.45-.25-.753-.455-1.078-1.195-1.078-2.07 0-4.128 7.412-11.554 7.412-12.905 0-.244-.346-.176-.346-.536" fill="#ed1d24"/><path d="M307.003 454.058c.448 0 1.052.95 1.052 1.69 0 .387-.217.713-.448.82-1.242.47-4.745 2.295-7.99 3.91-.15.07-.305.07-.427.07-.13 0-.17-.07-.17-.137 0-.148.075-.27.21-.406 1.752-1.494 6.26-5.098 7.284-5.702.197-.17.333-.244.49-.244m-3.694 7.765c1.324 0 2.18.842 3.326 3.136.075.175.075.284.075.352 0 .217-.155.326-.27.326-.19 0-.4-.143-.598-.326-.278-.25-.57-.353-1.052-.353-2.87 0-10.012 4.84-11.852 8.307-.06.184-.142.394-.142.618 0 .32.095.57.448.57.197 0 .53-.142.977-.468 2.757-2.077 7.4-6.062 9.015-6.557.313-.11.68-.11.97-.11 1.325-.04 2.16 1.148 2.16 2.22 0 .218-.04.435-.09.605-.52 1.418-2.924 4.56-3.562 6.238-.04.15-.082.332-.082.468 0 .286.117.524.334.524.15 0 .305-.088.502-.238 1.684-1.18 5.3-4.398 6.937-6.13.333-.332.564-.474.74-.474.075 0 .15.08.15.224 0 .074-.034.217-.11.387-.976 1.378-5.266 5.206-7.228 6.638-.49.402-1.005.585-1.602.585-1.16 0-2.362-.99-2.362-2.87 0-1.257.523-2.907 1.888-4.963.115-.204.23-.387.23-.523 0-.07-.04-.164-.19-.164-.088 0-.203 0-.332.095-3.13 1.576-6.13 6.266-9.293 8.724-.448.373-.97.495-1.46.495-1.67 0-3.196-1.84-3.196-3.592 0-.38.11-.787.244-1.113 2.642-6.027 10.577-10.928 13.394-12.137.95-.427 1.44-.495 2.036-.495" fill="#ed1d24"/><path d="M316.873 462.7c.305 0 .685.338 1.778 1.607.57.652.83 1.12.83 1.54 0 .687-.72 1.264-2.132 1.922-1.602.658-2.647.97-2.647 1.452 0 .142.116.285.286.502 1.113 1.106 2.885 2.49 2.484 4.48 1.12-.706 4.324-3 5.858-4.195.197-.164.367-.21.523-.21.116 0 .232.046.232.168 0 .095-.116.258-.23.4-1.196 1.107-6.456 5.16-6.456 5.37-.048 2.892-5.227 4.37-8.39 4.37-.95 0-1.656-.14-2.16-.372-.25-.156-.406-.394-.406-.7 0-.318.197-.678.597-1.072 1.616-1.54 7.426-3.943 7.426-6.23 0-.293-.108-.632-.366-.93-1.127-1.263-2.566-2.6-2.566-3.944 0-1.365 1.162-2.593 4.78-3.944.27-.068.386-.217.563-.217M341.048 467.765c-.407 0-.604.163-1.03.706-6.552 8.275-10.17 15.05-10.17 17.914 0 1.005.455 1.54 1.33 1.54.53 0 1.162-.176 1.942-.535 5.736-2.798 11.254-10.916 11.254-15.824 0-1.846-.8-3.204-2.6-3.713-.36-.068-.57-.088-.726-.088m.93-12.272c0-.177.204-.482.727-.32 2.233.57 3.434 1.616 3.434 3.204 0 1.29-.836 3.04-2.533 5.33-.115.17-.19.284-.19.372 0 .135.19.23.68.23 1.73 0 5.81 0 7.812.04.57 0 .82.184.82.3 0 .122-.25.305-.726.407-1.975.502-6.428.502-9.38.624-.374 0-.564.334-.564.693 0 .21.122.408.346.516 2.973.814 4.215 2.58 4.215 4.77 0 4.983-6.176 12.192-10.785 15.376-1.92 1.316-3.495 1.826-4.73 1.826-2.526 0-3.85-2.118-3.74-4.127.182-5.125 4.975-13.135 8.47-18.26.082-.102.156-.19.156-.305 0-.102-.195-.23-1.05-.387-1.14-.292-1.63-.645-1.63-.964 0-.252.387-.47 1.093-.47.394 0 1.032.035 1.622.035.693 0 1.446-.075 1.582-.306 1.968-2.64 5.098-6.47 5.098-7.868 0-.285-.184-.468-.523-.468-.122 0-.204-.122-.204-.25" fill="#ed1d24"/><path d="M348.996 472.785c-.156 0-.21-.088-.21-.196 0-.144.136-.348.366-.538 1.473-1.222 3.964-3.692 3.802-3.957-.59-1.04-.95-1.962-.95-2.702 0-1.513 1.153-2.694 3.93-4.31.156-.068.393-.142.604-.142.237 0 .522.102.638.218 1.092 1.147 1.69 1.99 1.69 2.62 0 .82-.66 1.534-2.132 2.627-.196.13-.278.237-.278.298 0 .082.082.184.224.184.095 0 .244-.034.38-.102 1.398-.428 2.383-.686 3.21-.686 1.162 0 1.956.48 3.008 1.33.312.27.46.665.46 1.072 0 .896-.596 2.295-1.16 3.23-.8 1.393-1.71 2.54-2.042 3.15-.116.143-.265.38-.265.612 0 .034 0 .068.123.068.075 0 .258-.068.597-.3 2.186-1.486 6.856-5.07 9.164-6.828.258-.176.366-.264.53-.264.176 0 .325.088.325.21s-.116.32-.327.468c-3.407 2.722-8.905 7.76-10.63 9.116-1.113.863-2.076 1.27-2.755 1.27-.42 0-.76-.163-1.33-.604-1.087-.957-1.487-1.528-1.487-2.43 0-.564.17-1.1.442-1.752.455-1.126 1.493-2.233 3.285-4.256 1.012-1.147 2.064-2.43 2.064-2.912 0-.17-.087-.353-.53-.353-1.09 0-2.293.64-2.775.863-.61.305-1.283.678-2.24.855-.516.095-.753.25-1.045.502-.99.787-2.647 2.328-3.652 3.095-.312.306-.835.543-1.032.543" fill="#ed1d24"/><path d="M373.346 472.337c-.333 0-.4-.123-.4-.252 0-.25.305-.57.63-.794 2.763-1.716 4.57-3.094 4.765-4.54.022-.393-.162-.502-.392-.502-.326 0-.72.197-1.086.394-2.3.964-7.175 4.955-8.146 10.21-.122.86.333 1.07.937 1.07 2.878 0 11.342-5.402 14.268-8.24.09-.108.164-.142.286-.142.075 0 .19.075.19.217 0 .09-.04.217-.15.34-3.013 3.89-9.618 9.184-14.172 9.184-1.44 0-2.566-.495-3.516-1.84-.482-.725-.68-1.513-.68-2.34 0-1.603.68-3.32 1.63-4.84 1.82-2.838 5.464-7.148 8.07-7.148.367 0 .713.048 1.012.23 1.806 1.114 2.715 2.153 3.55 3.334.177.25.292.543.292.862 0 1.934-4.14 3.977-6.408 4.676-.298.09-.488.123-.678.123" fill="#ed1d24"/><path d="M389.7 462.7c.31 0 .637.338 1.79 1.607.564.652.815 1.12.815 1.54 0 .687-.712 1.264-2.172 1.922-1.595.658-2.606.97-2.606 1.452 0 .142.08.285.25.502 1.155 1.106 2.926 2.49 2.533 4.48 1.106-.706 4.303-3 5.803-4.195.238-.164.428-.21.53-.21.156 0 .237.046.237.168 0 .095-.08.258-.237.4-1.127 1.107-6.394 5.16-6.394 5.37-.117 2.892-5.255 4.37-8.418 4.37-.95 0-1.65-.14-2.16-.372-.25-.156-.406-.394-.406-.7 0-.318.197-.678.604-1.072 1.65-1.54 7.42-3.943 7.42-6.23 0-.293-.076-.632-.367-.93-1.127-1.263-2.566-2.6-2.566-3.944 0-1.365 1.174-2.593 4.792-3.944.223-.068.372-.217.55-.217" fill="#ed1d24"/><path d="M404.782 462.52c.434 0 .835.144 1.147.538 1.01 1.398 1.757 2.477 1.757 3.584 0 .964-.713 2.056-2.437 3.204-.163.088-.23.13-.353.13-.115 0-.17-.076-.115-.504.075-.4.197-.774.197-1.106 0-.272-.157-.577-.415-.47-2.715 1.257-7.765 5.84-8.743 9.043-.156.555.292.773.896.773 2.763 0 10.704-3.57 15.55-8.03.055-.11.205-.143.293-.143.143 0 .272.075.272.258 0 .102-.08.177-.163.3-2.96 3.284-9.83 9.21-14.67 9.21-1.248 0-2.253-.34-3.17-1.16-.854-.83-1.207-1.8-1.207-2.798 0-1.683.964-3.482 2.043-4.934 2.54-3.415 4.975-5.64 8.152-7.61.258-.183.638-.285.964-.285" fill="#ed1d24"/><path d="M423.636 461.818c1.283 0 2.192.842 3.326 3.136.068.183.068.285.068.353 0 .224-.15.333-.272.333-.217 0-.44-.15-.638-.333-.176-.244-.522-.353-1.01-.353-2.9 0-9.986 4.84-11.84 8.315-.074.183-.19.393-.19.61 0 .32.157.57.483.57.197 0 .516-.135.998-.468 2.71-2.07 7.38-6.055 8.98-6.55.327-.11.693-.11.965-.11 1.364-.04 2.192 1.148 2.192 2.22 0 .21-.034.428-.074.612-.523 1.412-2.953 4.554-3.632 6.23-.04.143-.06.327-.06.47 0 .284.136.515.373.515.15 0 .292-.09.448-.232 1.705-1.18 5.323-4.405 6.972-6.13.313-.332.53-.48.76-.48.075 0 .197.087.197.237 0 .06-.082.21-.157.373-.99 1.378-5.287 5.213-7.25 6.645-.522.394-1.01.577-1.567.577-1.168 0-2.376-.99-2.376-2.864 0-1.263.523-2.912 1.847-4.97.15-.196.25-.372.25-.515 0-.074-.08-.162-.217-.162-.067 0-.156 0-.312.088-3.122 1.582-6.102 6.266-9.265 8.723-.482.38-.998.5-1.432.5-1.69 0-3.25-1.838-3.25-3.596 0-.374.074-.788.23-1.114 2.695-6.014 10.596-10.928 13.4-12.123.963-.434 1.41-.51 2.056-.51" fill="#ed1d24"/><path d="M437.208 462.7c.265 0 .645.338 1.772 1.607.563.652.835 1.12.835 1.54 0 .687-.747 1.264-2.2 1.922-1.568.658-2.6.97-2.6 1.452 0 .142.075.285.272.502 1.134 1.106 2.9 2.49 2.532 4.48 1.085-.706 4.29-3 5.81-4.195.21-.164.4-.21.522-.21.156 0 .204.046.204.168 0 .095-.048.258-.204.4-1.16 1.107-6.414 5.16-6.414 5.37-.123 2.892-5.247 4.37-8.417 4.37-.93 0-1.683-.14-2.137-.372-.272-.156-.42-.394-.42-.7 0-.318.202-.678.603-1.072 1.67-1.54 7.432-3.943 7.432-6.23 0-.293-.108-.632-.38-.93-1.126-1.263-2.56-2.6-2.56-3.944 0-1.365 1.162-2.593 4.794-3.944.217-.068.366-.217.556-.217M443.47 476.984c0-.455.218-.74.64-.85.725-.21 1.92-.637 2.646-1.18.075-.068.13-.068.17-.068.08 0 .122.136.122.577 0 .706-.38 2.037-.686 2.68-.15.287-.53.572-.97.572-.638 0-1.324-.387-1.59-.828-.175-.3-.33-.672-.33-.903" fill="#ed1d24"/></svg>