<svg xmlns="http://www.w3.org/2000/svg" width="400" height="385.534"><path d="M75.67 176.37S61.94 126.81 0 142.46c0 0 12.92 56.94 75.67 33.913" fill="#4c8b2b"/><path d="M76.235 179.4s-31.458 3.097-28.375 42.274c0 0 35.84-1.82 28.375-42.273M77.1 177.732s11.47 9.092 22.914-5.048c0 0-12.537-10.916-22.913 5.048M349.296 310.473s2.9-38.433 50.704-35.94c0 0-1.208 43.747-50.704 35.94" fill="#4c8b2b"/><path d="M349.334 312.795s23.57-2.308 27.02 26.932c0 0-26.625 3.89-27.02-26.932M348.443 311.683s-7.114 8.355-17.592-.387c0 0 7.63-9.85 17.593.387" fill="#4c8b2b"/><path d="M146.85 42.174s8.07 2.41 13.816.178c5.748-2.213 17.058-8.71 16.97-18.915-.052-6.287-7.166-11.8-17.707-10.045-3.403.58-11.325 3.28-22.864 13.434-5.83 5.595-13.02 14-20.167 26.137-4.108 7.02-8.425 15.615-12.513 25.927 0 0-7.147 16.13-7.058 29.857.1 13.733 5.295 23.835 5.295 23.835s2.06 4.432 5.94 8.24c7.965 8.54 20.94 4.272 25.068 2.867 13.09-4.464 25.08-14.458 37.047-28.916l.394 9.48S155.974 142.76 135 152.07c0 0-39.826 18.303-56.782-11.585-16.963-29.875 7.642-73.102 15.608-85.41 7.96-12.303 32.482-44.78 64.418-53.152 13.44-3.618 36.812-3.72 45.178 14.076 6.93 14.68.23 35.043-18.126 41.662-3.86 1.38-23.123 6.205-33.353-5.8-3.853-4.697-5.093-9.688-5.093-9.688M141.668 206.608s8.055 2.41 13.802.184c5.76-2.22 17.07-8.717 16.982-18.92-.05-6.276-7.178-11.8-17.706-10.033-3.415.558-11.324 3.266-22.863 13.42-5.83 5.595-13.034 13.993-20.167 26.143-4.12 7.02-8.424 15.602-12.512 25.927 0 0-7.147 16.137-7.045 29.857.076 13.72 5.283 23.83 5.283 23.83s2.06 4.437 5.938 8.245c7.967 8.54 20.956 4.266 25.07 2.86 13.084-4.468 25.07-14.457 37.047-28.902l18.33-17.318-17.936 26.785s-15.086 18.508-36.086 27.816c0 0-39.813 18.304-56.782-11.578-16.95-29.888 7.655-73.11 15.62-85.417 7.96-12.303 32.458-44.778 64.42-53.145 13.452-3.612 36.798-3.726 45.203 14.063 6.905 14.7.203 35.05-18.164 41.676-3.846 1.386-23.11 6.2-33.327-5.805-3.866-4.705-5.105-9.69-5.105-9.69M243.694 53.77l-16.486 55.11s-1.564 5.11-2.41 8.95c-.42 1.82-.743 3.548.134 5.227 1.768 2.626 5.08 1.856 6.69 1.125 3.98-1.818 8.53-6.49 10.07-11.75.483 2.843.972 5.8.972 5.8s-4.883 9.994-12.137 16.237c-2.32 2.008-9.422 6.726-16.416 6.452 0 0-8.506.407-11.036-7.737-1.246-6.81.388-15.933.712-17.668.49-2.613 15.5-51.836 15.5-51.836s9.702-12.028 24.408-9.91" fill="#412020"/><path d="M219.285 63.684s-5.232-3-11.126 4.145c0 0-7.185 8.9-12.113 21.082-1.106 2.765-5.925 14.68-6.714 22.78-.82 8.093.91 11.12 3.688 11.488 2.798.37 11.458-4.418 13.613-15.12l-2.295 18.274s-5.748 7.483-15.583 11.99c-4.73 2.188-10.853 3.682-15.5 1.736-4.98-2.085-8.285-8.138-6.492-21.02 0 0 4.317-26.765 20.708-46.48 0 0 11.623-13.23 24.917-17.866 13.275-4.635 22.526-5.023 31.306-.922L232.21 67.53l-8.856.235-4.07-4.08zM373.68 53.77l-16.486 55.11s-1.55 5.11-2.41 8.95c-1.882 6.804.65 8.43 1.342 9.035 3.713 3.75 11.42-.31 11.42-.31s.22 1.67-7.02 7.914c-2.334 2.008-9.435 6.726-16.43 6.452 0 0-8.493.407-11.024-7.737-1.258-6.81.376-15.933.713-17.668.49-2.613 15.5-51.836 15.5-51.836s9.69-12.028 24.395-9.91" fill="#412020"/><path d="M349.284 63.684s-5.245-3-11.14 4.145c0 0-7.196 8.9-12.085 21.082-1.12 2.765-5.94 14.68-6.74 22.78-.808 8.093.922 11.12 3.687 11.488 2.798.37 11.47-4.418 13.612-15.12l-2.296 18.274s-5.747 7.483-15.57 11.99c-4.743 2.188-10.866 3.682-15.513 1.736-4.965-2.085-8.283-8.138-6.478-21.02 0 0 4.305-26.765 20.695-46.48 0 0 11.622-13.23 24.916-17.866 13.288-4.635 22.54-5.023 31.306-.922L362.196 67.53l-8.844.235-4.07-4.08zM243.568 215.04l-16.79 55.644s-1.577 5.15-2.46 9.022c-.414 1.844-.74 3.586.145 5.296 1.812 2.64 5.188 1.863 6.81 1.12 4.062-1.838 8.703-6.556 10.267-11.865l1.01 5.862c0-.007-4.996 10.083-12.384 16.396-2.37 2.022-9.613 6.79-16.727 6.504 0 0-8.66.407-11.255-7.807-1.26-6.886.382-16.092.738-17.834.49-2.646 15.786-52.32 15.786-52.32s9.886-12.156 24.858-10.02" fill="#412020"/><path d="M218.708 225.056s-5.347-3.033-11.35 4.177c0 0-7.31 8.99-12.333 21.28-1.125 2.803-6.046 14.826-6.847 22.996-.833 8.168.94 11.24 3.776 11.608 2.836.375 11.667-4.463 13.854-15.26l-2.32 18.44s-5.875 7.558-15.89 12.11c-4.844 2.194-11.068 3.726-15.81 1.743-5.074-2.104-8.43-8.207-6.613-21.216 0 0 4.412-27.008 21.102-46.92 0 0 11.85-13.358 25.386-18.037 13.562-4.686 22.99-5.068 31.904-.94l-11.68 13.897-9.027.24-4.152-4.118zM243.894 335l36.736-123.418s8.532-31.89 11.126-36.596c2.588-4.698 7.032-14.59 18.552-14.59 8.793 0 12.95 6.885 10.198 12.83-3.147 6.834-8.12 4.908-9.212 1.76-1.475-4.202 1.545-6.955 1.545-6.955s-8.712-2.752-13.53 6.028c-4.814 8.774-1.012 18.476 10.604 18.222 0 0 13.98.635 19.792-14.445 0 0 4.616-9.423-1.227-18.133-.93-1.367-3.714-7.343-18.916-7.667-9.098-.325-20.89 2.41-31.54 14.788 0 0-9.39 8.41-16.436 35.362l-15.697 52.668L224 327.06l-2.27 7.737s-7.126 27.872-14.666 39.615c-1.857 3.21-6.555 6.55-12.125 2.22-4.49-3.498-1.457-14.865 6.02-14.668 1.76.044 4.082.877 6.294 2.454 0 0 7.967-16.346-12.804-18.076 0 0-14.833-1.602-18.546 15.96-3.7 17.54 16.085 23.364 23.365 23.23 7.285-.114 20.91-2.48 30.67-17.795C239.704 352.402 243.893 335 243.893 335" fill="#412020"/><path d="M293.728 218.995s-2.778 21.705 12.233 23.18c-6.675 9.46-18.907 19.487-29.283 11.7-7.242-6.137-6.123-18.93-6.123-18.93l23.174-15.95zM264.777 153.142l-9.226 30.79c-.75 2.804-1.543 5.22-.215 5.576 1.774.47 4.222-3.14 4.222-3.14h.515s-1.195 3.496-4.737 6.294c-3.54 2.81-8.595 1.348-6.74-5.697 1.85-7.05 10.034-33.823 10.034-33.823h6.147zM235.913 153.248l-9.225 30.797c-.75 2.804-1.558 5.22-.217 5.582 1.763.458 4.223-3.147 4.223-3.147h.515s-1.195 3.497-4.737 6.294c-3.54 2.81-8.607 1.355-6.75-5.696 1.862-7.05 10.045-33.83 10.045-33.83h6.148z" fill="#412020"/><path d="M224.267 172.078s-2.08-.655-3.61 1.367c0 0-2.15 2.264-3.422 5.716-.273.79-1.525 4.16-1.735 6.448-.204 2.295.222 3.338 1.112 3.363.732.014 3.6-1.747 4.177-2.612l-.128 2.97s-2.282 2.523-4.825 3.807c-1.22.61-3.802 1.202-5.01.65-1.265-.605-1.946-2.163-1.494-5.806 0 0 1.13-7.586 5.36-13.16 0 0 3.083-3.683 6.51-4.992 3.446-1.31 5.76-1.507 8.03-.344l-2.982 3.898-1.404-.37-.58-.934zM253.256 177.6c-7.363 13.778-16.2 15.78-16.562 9.384-.16-3.026.286-5.563.972-7.674 2.626-9.39 8.68-10.42 8.68-10.42s-3.733-.445-6.353.807c-2.784 1.157-7.16 3.923-8.888 10.103-.68 2.11-.903 4.628-.744 7.655.357 6.402 10.345 11.406 19.068-2.105l3.828-7.75z" fill="#412020"/><path d="M235.913 182.23s4.527 1.215 6.39-3.49c1.843-4.698 3.16-8.506.152-8.6l1.36-1.063s3.707-1.367 5.08 1.9c1.33 3.142-1.277 10.358-6.44 12.564-5.163 2.232-7.922.115-7.922.115l1.38-1.424zM327.423 198.47l1.08 3.16 39.012-10.37v-15.367l-40.092 22.577zM337.714 293.33c-7.598 6.136-14.782 8.602-21.54 9.156-5.653.476-11.14-.178-15.418-2.524-7.503-4.108-12.385-11.737-12.85-19.996-.267-4.997-.24-9.62.102-13.892 2.245-18.145 8.494-25.787 11.006-29.837 7.165-11.463 19.677-18.864 25.177-20.803 5.83-2.06 10.637-2.428 12.932-2.505 4.457-.153 7.598.292 7.598.292s-8.062.693-16.51 10.23c-4.954 5.594-10.136 14.737-13.588 27.198-2.41 7.585-4.68 16.22-3.637 27.046 1.253 12.652 9.137 16.39 26.055 13.078 0 0 2.15-.693 2.543-.197.63 1.075-1.265 2.276-1.87 2.753" fill="#412020"/><path d="M306.64 256.85s3.727 4.8 8.31 4.673c5.507-.16 12.284-5.83 15.762-14.115 5.36-12.81 10.54-27.192 4.145-28-1.647-.203-7.572 3.014-15.87 9.747l16.805-15.233s12.912-4.84 18 6.84c5.74 13.168-4.096 35.91-22.254 44.39-21.985 10.27-28.337-2.18-28.337-2.18l3.44-6.122zM271.126 121.216s3.802-9.485-5.08-15.735c-8.888-6.262-22.843-3.045-25.965 9.22-3.133 12.264 6.6 26.13 22.673 26.22 16.734.088 33.652-9.048 33.32-30.366 0 0 .173-12.855-11.684-21.476-7.815-5.69-10.83-9.664-11.54-13.79-1.145-6.6 1.563-11.375 3.254-13.028 2.62-2.537 6.16-4.062 9.378-4.062 0 0 6.7-.668 7.382 5.416.66 6.09-7.954 9.817-13.453 4.4-1.45 1.863-3.712 13.447 9.556 15.895 0 0 16.582 3.05 18.355-15.476 1-14.547-16.402-16.823-16.402-16.823S265.2 47.29 256.23 67.004c0 0-6.587 14.547 4.57 27.65 0 0 3.123 3.898 6.76 6.682 3.643 2.798 9.65 6.428 10.33 17.936 0 0 0 14.128-12.937 14.974-10.828-.337-7.617-10.32-7.617-10.32s2.11-6.052 7.693-5.785c2.962 0 6.096 3.076 6.096 3.076" fill="#412020"/></svg>