<?xml version="1.0" encoding="UTF-8" standalone="no"?>
<!-- Created with Inkscape (http://www.inkscape.org/) -->

<svg
   xmlns:dc="http://purl.org/dc/elements/1.1/"
   xmlns:cc="http://creativecommons.org/ns#"
   xmlns:rdf="http://www.w3.org/1999/02/22-rdf-syntax-ns#"
   xmlns:svg="http://www.w3.org/2000/svg"
   xmlns="http://www.w3.org/2000/svg"
   xmlns:xlink="http://www.w3.org/1999/xlink"
   xmlns:sodipodi="http://sodipodi.sourceforge.net/DTD/sodipodi-0.dtd"
   xmlns:inkscape="http://www.inkscape.org/namespaces/inkscape"
   width="400"
   height="82.292656"
   id="svg25636"
   version="1.1"
   inkscape:version="0.48.3.1 r9886"
   sodipodi:docname="Documento nuevo 22">
  <defs
     id="defs25638">
    <linearGradient
       inkscape:collect="always"
       xlink:href="#linearGradient24014"
       id="linearGradient25548"
       gradientUnits="userSpaceOnUse"
       gradientTransform="matrix(0,-85.947266,-85.947266,0,241.21338,332.30518)"
       spreadMethod="pad"
       x1="0"
       y1="0"
       x2="1"
       y2="0" />
    <linearGradient
       id="linearGradient24014"
       spreadMethod="pad"
       gradientTransform="matrix(0,-85.947266,-85.947266,0,241.21338,332.30518)"
       gradientUnits="userSpaceOnUse"
       y2="0"
       x2="1"
       y1="0"
       x1="0">
      <stop
         id="stop24016"
         offset="0"
         style="stop-opacity:1;stop-color:#26a9e0" />
      <stop
         id="stop24018"
         offset="1"
         style="stop-opacity:1;stop-color:#2b388f" />
    </linearGradient>
    <linearGradient
       inkscape:collect="always"
       xlink:href="#linearGradient24034"
       id="linearGradient25550"
       gradientUnits="userSpaceOnUse"
       gradientTransform="matrix(0,-85.652832,-85.652832,0,446.521,332.01074)"
       spreadMethod="pad"
       x1="0"
       y1="0"
       x2="1"
       y2="0" />
    <linearGradient
       id="linearGradient24034"
       spreadMethod="pad"
       gradientTransform="matrix(0,-85.652832,-85.652832,0,446.521,332.01074)"
       gradientUnits="userSpaceOnUse"
       y2="0"
       x2="1"
       y1="0"
       x1="0">
      <stop
         id="stop24036"
         offset="0"
         style="stop-opacity:1;stop-color:#26a9e0" />
      <stop
         id="stop24038"
         offset="1"
         style="stop-opacity:1;stop-color:#2b388f" />
    </linearGradient>
    <linearGradient
       inkscape:collect="always"
       xlink:href="#linearGradient24054"
       id="linearGradient25552"
       gradientUnits="userSpaceOnUse"
       gradientTransform="matrix(0,-85.652832,-85.652832,0,579.71094,332.01074)"
       spreadMethod="pad"
       x1="0"
       y1="0"
       x2="1"
       y2="0" />
    <linearGradient
       id="linearGradient24054"
       spreadMethod="pad"
       gradientTransform="matrix(0,-85.652832,-85.652832,0,579.71094,332.01074)"
       gradientUnits="userSpaceOnUse"
       y2="0"
       x2="1"
       y1="0"
       x1="0">
      <stop
         id="stop24056"
         offset="0"
         style="stop-opacity:1;stop-color:#26a9e0" />
      <stop
         id="stop24058"
         offset="1"
         style="stop-opacity:1;stop-color:#2b388f" />
    </linearGradient>
    <linearGradient
       inkscape:collect="always"
       xlink:href="#linearGradient24074"
       id="linearGradient25554"
       gradientUnits="userSpaceOnUse"
       gradientTransform="matrix(0,-85.654785,-85.654785,0,579.39551,331.66406)"
       spreadMethod="pad"
       x1="0"
       y1="0"
       x2="1"
       y2="0" />
    <linearGradient
       id="linearGradient24074"
       spreadMethod="pad"
       gradientTransform="matrix(0,-85.654785,-85.654785,0,579.39551,331.66406)"
       gradientUnits="userSpaceOnUse"
       y2="0"
       x2="1"
       y1="0"
       x1="0">
      <stop
         id="stop24076"
         offset="0"
         style="stop-opacity:1;stop-color:#26a9e0" />
      <stop
         id="stop24078"
         offset="1"
         style="stop-opacity:1;stop-color:#2b388f" />
    </linearGradient>
    <linearGradient
       inkscape:collect="always"
       xlink:href="#linearGradient24094"
       id="linearGradient25556"
       gradientUnits="userSpaceOnUse"
       gradientTransform="matrix(0,-73.293457,-73.293457,0,703.40723,320.56738)"
       spreadMethod="pad"
       x1="0"
       y1="0"
       x2="1"
       y2="0" />
    <linearGradient
       id="linearGradient24094"
       spreadMethod="pad"
       gradientTransform="matrix(0,-73.293457,-73.293457,0,703.40723,320.56738)"
       gradientUnits="userSpaceOnUse"
       y2="0"
       x2="1"
       y1="0"
       x1="0">
      <stop
         id="stop24096"
         offset="0"
         style="stop-opacity:1;stop-color:#a6a8ab" />
      <stop
         id="stop24098"
         offset="1"
         style="stop-opacity:1;stop-color:#231f20" />
    </linearGradient>
    <linearGradient
       inkscape:collect="always"
       xlink:href="#linearGradient24114"
       id="linearGradient25558"
       gradientUnits="userSpaceOnUse"
       gradientTransform="matrix(0,-75.091309,-75.091309,0,754.35352,320.56738)"
       spreadMethod="pad"
       x1="0"
       y1="0"
       x2="1"
       y2="0" />
    <linearGradient
       id="linearGradient24114"
       spreadMethod="pad"
       gradientTransform="matrix(0,-75.091309,-75.091309,0,754.35352,320.56738)"
       gradientUnits="userSpaceOnUse"
       y2="0"
       x2="1"
       y1="0"
       x1="0">
      <stop
         id="stop24116"
         offset="0"
         style="stop-opacity:1;stop-color:#a6a8ab" />
      <stop
         id="stop24118"
         offset="1"
         style="stop-opacity:1;stop-color:#231f20" />
    </linearGradient>
    <linearGradient
       inkscape:collect="always"
       xlink:href="#linearGradient24134"
       id="linearGradient25560"
       gradientUnits="userSpaceOnUse"
       gradientTransform="matrix(0,-142.78711,-142.78711,0,727.30371,352.03271)"
       spreadMethod="pad"
       x1="0"
       y1="0"
       x2="1"
       y2="0" />
    <linearGradient
       id="linearGradient24134"
       spreadMethod="pad"
       gradientTransform="matrix(0,-142.78711,-142.78711,0,727.30371,352.03271)"
       gradientUnits="userSpaceOnUse"
       y2="0"
       x2="1"
       y1="0"
       x1="0">
      <stop
         id="stop24136"
         offset="0"
         style="stop-opacity:1;stop-color:#26a9e0" />
      <stop
         id="stop24138"
         offset="1"
         style="stop-opacity:1;stop-color:#2b388f" />
    </linearGradient>
  </defs>
  <sodipodi:namedview
     id="base"
     pagecolor="#ffffff"
     bordercolor="#666666"
     borderopacity="1.0"
     inkscape:pageopacity="0.0"
     inkscape:pageshadow="2"
     inkscape:zoom="0.35"
     inkscape:cx="-270"
     inkscape:cy="-264.56796"
     inkscape:document-units="px"
     inkscape:current-layer="layer1"
     showgrid="false"
     fit-margin-top="0"
     fit-margin-left="0"
     fit-margin-right="0"
     fit-margin-bottom="0"
     inkscape:window-width="596"
     inkscape:window-height="418"
     inkscape:window-x="2"
     inkscape:window-y="123"
     inkscape:window-maximized="0" />
  <metadata
     id="metadata25641">
    <rdf:RDF>
      <cc:Work
         rdf:about="">
        <dc:format>image/svg+xml</dc:format>
        <dc:type
           rdf:resource="http://purl.org/dc/dcmitype/StillImage" />
        <dc:title></dc:title>
      </cc:Work>
    </rdf:RDF>
  </metadata>
  <g
     inkscape:label="Capa 1"
     inkscape:groupmode="layer"
     id="layer1"
     transform="translate(-620,-185.50157)">
    <g
       id="g25511"
       transform="matrix(0.46106847,0,0,0.46106847,925.88726,297.84153)">
      <g
         transform="matrix(1.25,0,0,-1.25,-794.25246,196.38864)"
         id="g24002">
        <g
           id="g24004">
          <g
             id="g24010">
            <g
               id="g24012">
              <path
                 id="path24020"
                 style="fill:url(#linearGradient25548);stroke:none"
                 d="m 233.198,332.305 -82.857,0 c -49.302,-7.752 -45.622,-42.974 -45.622,-42.974 l 0,0 0,-42.972 128.479,0 0,21.488 -98.151,0 0,22.657 c 0.009,20.598 25.356,20.608 25.356,20.608 l 0,0 187.144,0 0,-21.928 c -0.003,-23.157 -26.004,-21.045 -26.004,-21.045 l 0,0 -46.99,0 0,30.316 -25.313,0 0,-52.036 82.378,0 c 49.56,6.931 46.1,43.502 46.1,43.502 l 0,0 0,42.384 -144.52,0 z"
                 inkscape:connector-curvature="0" />
            </g>
          </g>
        </g>
      </g>
      <g
         transform="matrix(1.25,0,0,-1.25,-794.25246,196.38864)"
         id="g24022">
        <g
           id="g24024">
          <g
             id="g24030">
            <g
               id="g24032">
              <path
                 id="path24040"
                 style="fill:url(#linearGradient25550);stroke:none"
                 d="m 485.005,332.011 -0.295,-50.333 c -12.164,14.913 -22.957,25.214 -32.376,30.906 l 0,0 c -9.418,5.688 -24.235,12.165 -44.446,19.427 l 0,0 0.148,0 -25.754,0 0,-21.34 0,-64.312 25.754,0 -0.148,53.863 c 14.324,-3.338 27.081,-8.735 38.265,-16.188 l 0,0 c 11.184,-7.459 24.137,-20.014 38.852,-37.675 l 0,0 25.61,0 0.146,21.337 0,64.315 -25.756,0 z"
                 inkscape:connector-curvature="0" />
            </g>
          </g>
        </g>
      </g>
      <g
         transform="matrix(1.25,0,0,-1.25,-794.25246,196.38864)"
         id="g24042">
        <g
           id="g24044">
          <g
             id="g24050">
            <g
               id="g24052">
              <path
                 id="path24060"
                 style="fill:url(#linearGradient25552);stroke:none"
                 d="M 618.195,332.011 617.9,281.678 c -12.168,14.913 -22.958,25.214 -32.38,30.906 l 0,0 c -9.417,5.688 -24.233,12.165 -44.444,19.427 l 0,0 0.146,0 -25.752,0 0,-21.34 0,-64.312 25.752,0 -0.146,53.863 c 14.326,-3.338 27.08,-8.735 38.267,-16.188 l 0,0 c 11.184,-7.459 24.135,-20.014 38.852,-37.675 l 0,0 25.606,0 0.151,21.337 0,64.315 -25.757,0 z"
                 inkscape:connector-curvature="0" />
            </g>
          </g>
        </g>
      </g>
      <g
         transform="matrix(1.25,0,0,-1.25,-794.25246,196.38864)"
         id="g24062">
        <g
           id="g24064">
          <g
             id="g24070">
            <g
               id="g24072">
              <path
                 id="path24080"
                 style="fill:url(#linearGradient25554);stroke:none"
                 d="m 617.881,331.664 -0.297,-50.33 c -12.166,14.911 -22.958,25.212 -32.378,30.904 l 0,0 c -9.417,5.688 -24.233,12.164 -44.445,19.426 l 0,0 0.149,0 -25.755,0 0,-21.34 0,-64.314 25.755,0 -0.149,53.865 c 14.325,-3.337 27.078,-8.735 38.266,-16.189 l 0,0 c 11.183,-7.456 24.135,-20.013 38.854,-37.676 l 0,0 25.606,0 0.149,21.339 0,64.315 -25.755,0 z"
                 inkscape:connector-curvature="0" />
            </g>
          </g>
        </g>
      </g>
      <g
         transform="matrix(1.25,0,0,-1.25,-794.25246,196.38864)"
         id="g24082">
        <g
           id="g24084">
          <g
             id="g24090">
            <g
               id="g24092">
              <path
                 id="path24100"
                 style="fill:url(#linearGradient25556);stroke:none"
                 d="m 687.854,313.934 c -4.489,-4.425 -6.912,-10.491 -7.267,-18.203 l 0,0 13.269,0 c 0.129,3.727 1.167,6.675 3.111,8.846 l 0,0 c 1.943,2.172 4.374,3.256 7.292,3.256 l 0,0 c 2.883,0 5.238,-0.899 7.069,-2.695 l 0,0 c 1.832,-1.8 2.747,-4.077 2.747,-6.83 l 0,0 c 0,-2.657 -0.884,-5.632 -2.648,-8.92 l 0,0 c -1.768,-3.287 -5.326,-7.639 -10.669,-13.049 l 0,0 -22.115,-22.553 0,-6.512 49.528,0 0,12.587 -25.483,0 8.024,8.459 c 6.42,6.674 10.836,12.457 13.252,17.348 l 0,0 c 2.414,4.893 3.624,9.464 3.624,13.71 l 0,0 c 0,3.564 -0.998,7.071 -2.991,10.522 l 0,0 c -1.992,3.449 -4.649,6.092 -7.971,7.921 l 0,0 c -3.32,1.831 -7.153,2.746 -11.493,2.746 l 0,0 c -7.033,0 -12.792,-2.21 -17.279,-6.633"
                 inkscape:connector-curvature="0" />
            </g>
          </g>
        </g>
      </g>
      <g
         transform="matrix(1.25,0,0,-1.25,-794.25246,196.38864)"
         id="g24102">
        <g
           id="g24104">
          <g
             id="g24110">
            <g
               id="g24112">
              <path
                 id="path24120"
                 style="fill:url(#linearGradient25558);stroke:none"
                 d="m 738.242,313.861 c -3.111,-3.208 -5.005,-7.454 -5.687,-12.735 l 0,0 13.076,0 c 0.58,1.88 1.668,3.411 3.254,4.592 l 0,0 c 1.587,1.184 3.353,1.776 5.297,1.776 l 0,0 c 2.204,0 3.988,-0.641 5.347,-1.92 l 0,0 c 1.362,-1.281 2.042,-2.89 2.042,-4.837 l 0,0 c 0,-1.489 -0.447,-2.899 -1.337,-4.228 l 0,0 c -0.89,-1.33 -2.136,-2.374 -3.742,-3.134 l 0,0 c -1.604,-0.763 -4.042,-1.273 -7.314,-1.532 l 0,0 0,-11.665 c 5.314,-0.067 9.38,-1.215 12.2,-3.451 l 0,0 c 2.817,-2.235 4.226,-4.973 4.226,-8.212 l 0,0 c 0,-2.949 -1.043,-5.446 -3.134,-7.487 l 0,0 c -2.09,-2.042 -4.722,-3.062 -7.897,-3.062 l 0,0 c -3.048,0 -5.566,0.9 -7.559,2.698 l 0,0 c -1.991,1.8 -3.277,4.545 -3.862,8.238 l 0,0 -13.466,0 c 0.424,-7.226 2.819,-12.937 7.194,-17.133 l 0,0 c 4.376,-4.196 10.031,-6.292 16.964,-6.292 l 0,0 c 7.322,0 13.347,2.226 18.081,6.681 l 0,0 c 4.729,4.456 7.095,9.89 7.095,16.307 l 0,0 c 0,4.375 -1.223,8.172 -3.668,11.397 l 0,0 c -2.447,3.226 -5.841,5.485 -10.185,6.782 l 0,0 c 3.309,1.619 5.824,3.741 7.56,6.365 l 0,0 c 1.734,2.625 2.597,5.525 2.597,8.701 l 0,0 c 0,5.12 -1.982,9.543 -5.953,13.268 l 0,0 c -3.97,3.725 -8.884,5.589 -14.749,5.589 l 0,0 c -6.577,0 -12.04,-2.235 -16.38,-6.706"
                 inkscape:connector-curvature="0" />
            </g>
          </g>
        </g>
      </g>
      <g
         transform="matrix(1.25,0,0,-1.25,-794.25246,196.38864)"
         id="g24122">
        <g
           id="g24124">
          <g
             id="g24130">
            <g
               id="g24132">
              <path
                 id="path24140"
                 style="fill:url(#linearGradient25560);stroke:none"
                 d="m 655.91,280.64 c 0,-39.43 31.964,-71.394 71.393,-71.394 l 0,0 c 39.429,0 71.394,31.964 71.394,71.394 l 0,0 c 0,39.429 -31.965,71.392 -71.394,71.392 l 0,0 c -39.429,0 -71.393,-31.963 -71.393,-71.392 m 9.53,-0.737 c 0,34.071 27.621,61.693 61.693,61.693 l 0,0 c 34.073,0 61.695,-27.622 61.695,-61.693 l 0,0 c 0,-34.072 -27.622,-61.694 -61.695,-61.694 l 0,0 c -34.072,0 -61.693,27.622 -61.693,61.694"
                 inkscape:connector-curvature="0" />
            </g>
          </g>
        </g>
      </g>
    </g>
  </g>
</svg>
