<svg xmlns="http://www.w3.org/2000/svg" width="400" height="147.351"><path d="M106.767 0L32.993 88.525H0L73.762 0" fill="#ee332a"/><path d="M151.415 0l-73.77 88.525h-33.01L118.415 0" fill="#242a63"/><path d="M154.525 78.745V60.94c0-5.136 4.167-9.303 9.3-9.303h27.95v8.984h-26.507c-.974 0-1.76.786-1.76 1.764V77.7c0 .972.786 1.84 1.76 1.84h26.507v8.987H163.98c-5.132 0-9.42-4.084-9.42-9.22" fill="#242a63" fill-rule="evenodd"/><path d="M171.044 73.93h20.73v-7.693h-20.73v7.693z" fill="#242a63"/><path d="M114.53 60.94c0-5.136 4.172-9.3 9.3-9.3h27.585v8.98h-26.14c-.975 0-1.768.786-1.768 1.76v15.323c0 .97.793 1.837 1.767 1.837h26.14v8.985h-27.423c-5.136 0-9.457-4.64-9.457-9.778M245.637 78.745V60.94c0-5.136 4.17-9.303 9.302-9.303h27.953v8.984h-26.51c-.98 0-1.76.786-1.76 1.764V77.7c0 .972.78 1.84 1.76 1.84h26.51v8.987H255.1c-5.14 0-9.42-4.084-9.42-9.22" fill="#242a63" fill-rule="evenodd"/><path d="M262.156 73.93h20.737v-7.693h-20.737v7.693z" fill="#242a63"/><path d="M204.907 60.62v27.905h-8.982V51.637h36.247c5.134 0 9.306 4.167 9.306 9.304v27.585h-9.146V62.382c0-.976-.79-1.763-1.772-1.763h-7.373v27.905h-9.138V60.62M308.326 75.49l-11.98 7.543v5.492h-9.297v-7.74c.078-1.5.89-2.935 2.242-3.765l11.23-6.94-11.23-6.94c-1.352-.825-2.164-2.264-2.243-3.763v-7.74h9.297v5.49l12.04 7.55 11.97-7.55v-5.49h9.303v7.74c-.083 1.493-.89 2.938-2.25 3.762l-10.99 6.9 10.99 6.98c1.36.83 2.167 2.265 2.25 3.766v7.74h-9.302v-5.493" fill="#242a63" fill-rule="evenodd"/><path d="M128.48 125.33c.13-4.138-2.152-7.398-6.52-7.398-6.566 0-7.342 6.53-7.342 11.74 0 5.51.257 12.383 7.373 12.383 2.212 0 3.813-.935 5.02-2.592 1.1-1.6 1.197-3.016 1.35-4.896.068-.458.068-.953.12-1.41h-2.552c-.063.52-.092 1.04-.152 1.564-.31 2.532-.96 5.028-4 5.028-4.685 0-4.625-6.987-4.507-10.143 0-3.046.066-9.358 4.507-9.358 3.2 0 4.088 2.336 4.15 5.083M141.164 133.126c0 4.033-.704 6.773-3.6 6.773-2.83 0-3.61-2.74-3.61-6.774 0-5.18 1.116-7.157 3.61-7.157 2.557 0 3.6 1.976 3.6 7.156m2.535-.774c0-5.174-1.917-8.445-6.137-8.445-4.217 0-6.133 3.27-6.133 8.445 0 7.394 2.444 9.605 6.133 9.605 3.76 0 6.136-2.18 6.136-9.605M149.63 124.377h-2.37v17.125h2.442v-11.46c0-1.232.122-2.223 1.104-3.116.652-.614 1.512-.96 2.398-.96 1.97 0 2.563 1.212 2.563 3V141.5h2.43v-13.22c0-3.015-1.662-4.375-4.228-4.375-1.845 0-3.108.864-4.268 2.343h-.07M171.867 128.965c.07-3.515-1.906-5.06-5.29-5.06-2.96 0-5.028 1.88-5.028 4.847 0 2.98 1.542 3.872 4.196 4.86 1.756.737 4.215.955 4.215 3.385 0 2.095-1.287 2.902-3.257 2.902-2.282 0-2.992-1.292-2.905-3.39h-2.303c0 1.172-.058 2.316.945 3.666.905 1.293 2.75 1.816 4.263 1.78 3.51.036 5.778-1.99 5.778-5.26 0-3.206-2.45-3.82-4.918-4.927-1.663-.714-3.484-.988-3.484-3.212 0-1.78.982-2.59 2.708-2.59 2.066 0 2.81.958 2.705 2.997M178.648 119.722h-2.413v4.655h-2.37v2.062h2.37v12.255c0 2.587 1.078 2.836 2.53 2.807h2.678v-2.068h-1.626c-1.356 0-1.146-.74-1.146-1.326v-11.67h2.837v-2.06h-2.86M186.735 124.377h-2.346v17.125h2.43v-10.38c0-3.118 1.857-5.09 4.992-4.532v-2.402c-2.558-.218-4.005.74-5.025 2.99h-.052M202.513 141.502h2.434v-17.125h-2.434v10.992c0 .98-.15 2.162-.704 3.022-.675.982-1.755 1.51-2.924 1.51-1.732 0-2.19-.773-2.19-2.218v-13.307h-2.434v13.21c0 3.02 1.57 4.372 4.136 4.372 1.657 0 3.23-.956 4.06-2.713h.055M212.656 141.893c-.683 1.698-.74 3.392-3.027 3.392-.582 0-1.26-.124-1.818-.37v2.154c.586.184 1.17.28 1.755.28 1.787 0 3.014-.648 3.914-2.25.488-.86 1.267-3.363 1.568-4.376l5.087-16.35h-2.52l-3.975 14.84h-.066l-3.848-14.84h-2.528M230.237 135.803c.15 1.93-.505 4.1-2.843 4.1-3.41 0-3.02-4.443-3.073-6.745h8.31c-.118-4.008.185-9.25-5.365-9.25-4.526 0-5.48 5.398-5.48 8.996 0 6.896 2.316 9.053 5.545 9.053 3.61 0 5.332-2.8 5.182-6.154h-2.275zm-5.916-4.655c.086-2.025.15-5.18 2.977-5.18 2.84 0 2.717 3.182 2.803 5.18M238.51 124.377h-2.38v17.125h2.437v-11.46c0-1.232.13-2.223 1.113-3.116.637-.614 1.507-.96 2.402-.96 1.973 0 2.558 1.212 2.558 3V141.5h2.436v-13.22c0-3.015-1.66-4.375-4.223-4.375-1.842 0-3.107.864-4.286 2.343h-.056M259.667 126.133h-.067c-1.13-1.486-2.184-2.226-3.943-2.226-3.665 0-5.324 3.977-5.143 9 .064 1.51-.37 9.052 5.025 9.052 2.06 0 3.115-.678 4.158-2.713h.062v2.255h2.338v-23.107h-2.43v7.738zm0 8.65c0 1.94-.708 5.116-3.235 5.116-3.33 0-3.45-3.366-3.45-7.06 0-5.262 1.334-6.873 3.352-6.873 3.266 0 3.333 4.344 3.333 6.69M275.5 133.126c0 4.033-.716 6.773-3.604 6.773-2.844 0-3.613-2.74-3.613-6.774 0-5.18 1.11-7.157 3.613-7.157 2.552 0 3.605 1.976 3.605 7.156m2.52-.774c0-5.174-1.913-8.445-6.124-8.445-4.22 0-6.13 3.27-6.13 8.445 0 7.394 2.432 9.605 6.13 9.605 3.756 0 6.125-2.18 6.125-9.605M296.567 135.803c.146 1.93-.502 4.1-2.846 4.1-3.423 0-3.02-4.443-3.072-6.745h8.307c-.125-4.008.193-9.25-5.357-9.25-4.52 0-5.477 5.398-5.477 8.996 0 6.896 2.31 9.053 5.542 9.053 3.607 0 5.328-2.8 5.168-6.154h-2.263zm-5.92-4.655c.088-2.025.148-5.18 2.986-5.18 2.833 0 2.716 3.182 2.803 5.18" fill="#ee332a" fill-rule="evenodd"/><path d="M302.43 141.502h2.428v-23.107h-2.427v23.107z" fill="#ee332a"/><path d="M317.115 141.502h2.43v-15.06h2.673v-2.065h-2.672v-1.82c0-2.098.706-2.28 2.672-2.098v-2.063c-2.27-.222-3.718.097-4.516 1.23-.623.87-.623 2.283-.623 3.294v1.457h-2.467v2.064h2.502M333.18 141.502h2.433v-17.125h-2.432v10.992c0 .98-.154 2.162-.7 3.022-.688.982-1.763 1.51-2.932 1.51-1.726 0-2.195-.773-2.195-2.218v-13.307h-2.425v13.21c0 3.02 1.57 4.372 4.128 4.372 1.66 0 3.24-.956 4.067-2.713h.058M342.766 119.722h-2.41v4.655h-2.372v2.062h2.373v12.255c0 2.587 1.078 2.836 2.53 2.807h2.67v-2.068h-1.622c-1.36 0-1.138-.74-1.138-1.326v-11.67h2.824v-2.06h-2.854M356.642 141.502h2.435v-17.125h-2.435v10.992c0 .98-.154 2.162-.712 3.022-.675.982-1.755 1.51-2.918 1.51-1.73 0-2.192-.773-2.192-2.218v-13.307h-2.43v13.21c0 3.02 1.568 4.372 4.122 4.372 1.663 0 3.235-.956 4.068-2.713h.062M366.004 124.377h-2.342v17.125h2.43v-10.38c0-3.118 1.854-5.09 5-4.532v-2.402c-2.567-.218-4.012.74-5.032 2.99h-.056M382.468 133.126c0 4.033-.713 6.773-3.605 6.773-2.832 0-3.605-2.74-3.605-6.774 0-5.18 1.11-7.157 3.605-7.157 2.554 0 3.605 1.976 3.605 7.156m2.524-.774c0-5.174-1.904-8.445-6.13-8.445-4.22 0-6.13 3.27-6.13 8.445 0 7.394 2.43 9.605 6.13 9.605 3.76 0 6.13-2.18 6.13-9.605M390.492 125.434c-.097.388-.15.772-.2 1.156h-.018c-.045-.494-.083-.812-.168-1.142l-1.505-5.992H387.1v7.684h.847v-6.314c0-.326-.02-.666-.02-1h.02c.093.42.153.674.23.95l1.597 6.364h1.024l1.61-6.272c.07-.3.14-.584.235-1.043h.02c.02.335 0 .648 0 .978v6.337h.85v-7.684h-1.494M395.945 123.758h1.495c.988 0 1.3.654 1.3 1.43 0 .507.085 1.462.265 1.954H400v-.176c-.2 0-.262-.336-.293-.482-.085-.57-.143-1.133-.166-1.713-.126-1.022-.366-1.342-1.363-1.43v-.024c.895-.11 1.445-.766 1.466-1.674.064-1.767-.966-2.188-2.58-2.188h-1.97v7.688h.852v-3.384zm0-3.542h1.204c.568 0 1.598.03 1.62 1.356.022 1.345-1.087 1.407-1.488 1.416h-1.337" fill="#ee332a" fill-rule="evenodd"/></svg>