<svg xmlns="http://www.w3.org/2000/svg" width="400" height="190.263"><defs><clipPath id="a"><path d="M0 0h396v612H0V0z"/></clipPath><clipPath id="b"><path d="M0 0h396v612H0V0z"/></clipPath><clipPath id="c"><path d="M0 0h396v612H0V0z"/></clipPath><clipPath id="d"><path d="M0 0h396v612H0V0z"/></clipPath><clipPath id="e"><path d="M0 0h396v612H0V0z"/></clipPath><clipPath id="f"><path d="M0 0h396v612H0V0z"/></clipPath><clipPath id="g"><path d="M0 0h396v612H0V0z"/></clipPath><clipPath id="h"><path d="M0 0h396v612H0V0z"/></clipPath><clipPath id="i"><path d="M0 0h396v612H0V0z"/></clipPath></defs><path d="M0 190.263h400V0H0v190.263z" fill="#2e3092"/><g clip-path="url(#a)" transform="matrix(1.64995 0 0 -1.64995 -135.227 960.855)"><path d="M167.25 474.984c.467 1.87.898 3.573 1.314 5.278 1.892 7.743 3.764 15.492 5.684 23.23.404 1.63 1.01 3.21 1.468 4.83.176.62.486.788 1.144.793 6.52.05 12.9.98 19.077 3.022 1.166.385 2.263.964 3.392 1.453-.768-1.302-1.606-2.592-2.312-3.946-4.22-8.1-7.857-16.427-10.308-25.198-.196-.702-.328-1.424-.428-2.145-.098-.716-.118-1.442-.172-2.16-2.228.83-4.433.1-6.62-.468-3.917-1.018-7.626-2.573-11.28-4.253-.256-.118-.513-.234-.96-.436M146.526 526.624c4.36-6.067 10.607-10.276 17.27-13.994.815-.453.968-.916.783-1.668-1.25-5.07-2.45-10.15-3.754-15.205-1.526-5.922-3.14-11.823-4.718-17.732-.025-.096-.08-.185-.176-.405-.377.553-.716 1.03-1.036 1.52-2.434 3.714-5.422 6.97-8.86 9.842-.685.574-1.456 1.07-2.246 1.505-.527.29-1.157.407-1.728.597 1.97 3.74 2.486 7.946 3.07 12.105.6 4.286 1.02 8.598 1.37 12.91.29 3.576.46 7.17.024 10.524M175.587 509.03c-.702-2.284-1.45-4.42-2.01-6.6-2.265-8.8-4.473-17.615-6.693-26.427-.23-.913-1.11-1.67-2.386-1.81-2.05-.225-4.06.038-5.99.723-1.34.476-2.147 2.164-1.79 3.472 2.517 9.206 5.042 18.408 7.523 27.62.484 1.792.787 3.626 1.196 5.545 1.094-1.72 2.938-2.06 4.713-2.5 1.782-.44 3.576-.99 5.437-.022M118.387 554.036c.02 0 .015-.257.185-.702.163-.434.61-1.055 1.446-1.434.815-.416 1.92-.612 3.058-1.084.282-.116.572-.266.822-.432.236-.224.555-.407.743-.666.467-.46.83-1.11 1.21-1.75.368-.655.78-1.357 1.36-1.99.16-.146.273-.306.475-.46l.513-.374c.375-.212.804-.458 1.222-.597 1.68-.678 3.61-.84 5.14-1.897 1.623-.983 2.814-2.48 3.92-4.136.555-.824 1.07-1.684 1.76-2.48.692-.785 1.503-1.498 2.475-1.956 1.89-.942 3.985-1.344 5.154-2.922 1.13-1.44 1.503-3.64 3.117-4.92 1.522-1.316 3.262-2.05 4.823-2.843.803-.378 1.47-.84 2.182-1.296.384-.198.602-.507.894-.76.278-.264.554-.523.752-.843.938-1.162 1.46-2.51 2.47-3.337.975-.812 1.948-1.318 2.718-1.773.776-.44 1.372-.823 1.727-1.14.36-.314.455-.56.455-.56s-.08.25-.434.58c-.344.335-.93.74-1.686 1.21-.748.49-1.707 1.037-2.608 1.862-.46.394-.805.93-1.147 1.538-.343.593-.74 1.204-1.185 1.843-.194.33-.482.62-.773.91-.3.274-.567.63-.93.82-.67.455-1.402.974-2.198 1.374-1.552.824-3.26 1.626-4.64 2.824-1.498 1.18-1.758 3.193-3.048 4.913-.617.828-1.57 1.467-2.518 1.88-.943.444-1.925.785-2.796 1.228-1.84.83-2.94 2.535-4.037 4.198-.567.82-1.144 1.642-1.84 2.37-.32.383-.7.725-1.09 1.05-.375.355-.788.604-1.198.855-1.692 1.134-3.685 1.247-5.278 1.86-.42.14-.762.32-1.127.515l-.524.362c-.136.098-.28.27-.418.4-.55.564-.964 1.225-1.354 1.882-.406.642-.768 1.285-1.312 1.793-.24.285-.54.437-.795.647-.307.203-.6.33-.9.445-1.2.432-2.294.582-3.103.96-.838.34-1.293.915-1.47 1.345-.19.424-.196.69-.213.69" fill="#fff"/><path d="M118.386 554.036c.018.01.02-.257.213-.69.177-.43.632-1.004 1.47-1.343.81-.38 1.903-.53 3.103-.96.3-.116.593-.243.9-.446.256-.21.555-.362.795-.647.544-.508.906-1.15 1.313-1.793.39-.657.803-1.318 1.355-1.883.138-.128.282-.3.418-.4l.524-.36c.365-.195.706-.377 1.127-.516 1.593-.613 3.585-.726 5.278-1.86.41-.25.823-.5 1.2-.854.388-.326.77-.668 1.087-1.05.696-.73 1.273-1.552 1.84-2.37 1.095-1.664 2.194-3.37 4.036-4.2.87-.442 1.854-.783 2.796-1.226.947-.414 1.9-1.053 2.517-1.88 1.29-1.72 1.55-3.733 3.045-4.914 1.382-1.2 3.09-2 4.642-2.823.796-.4 1.527-.918 2.197-1.372.364-.192.632-.547.93-.822.292-.29.58-.578.774-.91.445-.637.842-1.25 1.185-1.842.342-.607.686-1.144 1.147-1.538.9-.825 1.86-1.373 2.607-1.862.757-.47 1.343-.875 1.687-1.21.354-.332.434-.58.434-.58s-.095.246-.455.56c-.355.317-.952.7-1.727 1.14-.77.455-1.743.96-2.718 1.773-1.01.827-1.532 2.175-2.47 3.337-.198.32-.474.58-.752.842-.292.254-.51.563-.894.762-.713.454-1.38.918-2.182 1.295-1.56.792-3.3 1.527-4.823 2.842-1.614 1.28-1.986 3.482-3.118 4.92-1.17 1.58-3.265 1.98-5.155 2.923-.972.458-1.783 1.17-2.474 1.956-.69.796-1.205 1.656-1.76 2.48-1.106 1.655-2.297 3.153-3.92 4.136-1.53 1.057-3.46 1.22-5.14 1.897-.417.14-.847.385-1.222.598l-.513.372c-.202.155-.317.315-.475.463-.578.63-.992 1.333-1.36 1.988-.38.64-.743 1.29-1.21 1.75-.187.26-.506.442-.742.666-.25.166-.54.316-.822.432-1.14.472-2.243.668-3.058 1.084-.837.38-1.283 1-1.446 1.434-.17.445-.166.702-.186.702M145.565 539.287l3.693-4.062c1.093-1.224 2.374-2.66 3.743-4.19 1.36-1.545 2.813-3.19 4.26-4.836 1.44-1.65 2.877-3.308 4.223-4.86 1.338-1.562 2.586-3.016 3.654-4.265 2.118-2.517 3.526-4.193 3.526-4.193s-1.474 1.624-3.69 4.058c-1.096 1.226-2.373 2.66-3.746 4.193l-4.26 4.833c-1.438 1.653-2.872 3.31-4.22 4.863-1.34 1.555-2.585 3.012-3.655 4.262l-3.527 4.195M154.09 537.795s-.012-.043-.042-.12c-.032-.077-.048-.202-.14-.33-.043-.067-.08-.14-.136-.22-.064-.07-.135-.147-.21-.226-.082-.075-.18-.14-.28-.217-.107-.062-.228-.12-.35-.18-.265-.09-.572-.167-.896-.125-.356.012-.638.132-.972.33-.305.204-.546.506-.69.86-.136.364-.168.73-.078 1.148.095.313.326.71.613.953.302.245.662.4 1.028.448.36.026.725 0 1.022-.14.298-.11.548-.324.735-.516.077-.112.156-.218.22-.322.05-.113.106-.214.144-.315.025-.11.05-.2.074-.295.01-.092.008-.177.013-.26.02-.15-.028-.272-.033-.35l-.024-.125m0 0s.008.045.018.124c.003.08.045.2.02.354-.007.075-.01.16-.024.25l-.083.285c-.043.1-.098.197-.155.303-.064.104-.15.19-.24.293-.206.17-.418.333-.726.41-.283.108-.61.1-.916.044-.308-.07-.597-.233-.843-.435-.234-.235-.378-.467-.482-.833-.062-.272-.068-.62.033-.917.122-.29.298-.558.535-.763.224-.172.557-.348.833-.374.292-.066.583-.022.844.04.12.05.245.092.352.152.094.07.196.13.28.196.078.08.15.15.213.214.06.074.1.15.145.212.094.125.115.25.153.323.032.077.045.12.045.12M144.974 547.533c-.14 0-.28-.005-.42-.016-.63-.08-1.258-.35-1.78-.78-.5-.42-.9-1.103-1.068-1.65-.15-.727-.098-1.365.132-2 .252-.614.675-1.134 1.2-1.493.584-.345 1.074-.544 1.692-.578.103-.013.205-.018.306-.018.45 0 .876.114 1.248.24.214.105.424.208.61.315.174.13.345.248.49.37.126.142.25.277.36.398.096.135.164.272.236.385.164.222.19.44.247.572l.072.207s-.03-.07-.08-.207c-.066-.13-.1-.344-.266-.563-.082-.108-.152-.24-.25-.366-.116-.11-.236-.237-.37-.37-.145-.125-.32-.228-.486-.346-.187-.102-.403-.178-.613-.263-.294-.068-.61-.126-.935-.126-.175 0-.354.017-.532.06-.484.042-1.06.347-1.446.647-.417.356-.717.824-.927 1.33-.178.51-.165 1.115-.06 1.59.186.63.43 1.038.843 1.446.426.352.925.628 1.46.758.24.04.482.066.72.066.303 0 .6-.04.873-.145.53-.135.903-.41 1.264-.712.15-.174.303-.334.414-.505.094-.188.2-.36.27-.53.052-.175.097-.342.144-.497.024-.156.027-.303.042-.433.04-.267-.032-.474-.033-.615l-.03-.218s.014.078.036.218c.01.136.096.35.062.612-.01.133-.005.288-.024.445-.043.16-.086.327-.13.51-.067.178-.16.354-.25.556-.116.177-.248.353-.39.55-.32.336-.752.708-1.272.9-.4.187-.87.257-1.358.257" fill="#fff"/><path d="M148.3 543.484l-.072-.207c-.058-.13-.084-.35-.247-.572-.072-.113-.14-.25-.237-.384-.11-.12-.233-.255-.358-.398-.146-.122-.317-.24-.49-.37-.187-.107-.397-.21-.61-.315-.456-.154-.993-.29-1.555-.22-.618.032-1.108.232-1.69.576-.527.36-.95.88-1.202 1.495-.23.634-.28 1.27-.132 1.998.168.547.568 1.23 1.068 1.65.522.43 1.15.7 1.78.78.637.048 1.265 0 1.78-.24.518-.192.95-.564 1.27-.9.143-.198.274-.373.39-.55.09-.202.184-.378.252-.555.042-.182.085-.35.128-.512.02-.156.014-.31.024-.444.035-.264-.052-.476-.062-.612-.022-.14-.037-.218-.037-.218m0 0l.03.218c.002.14.076.346.034.615-.015.13-.018.276-.04.434-.05.156-.094.322-.146.498-.07.17-.176.342-.27.53-.11.17-.264.33-.414.505-.36.3-.733.576-1.263.712-.49.187-1.052.17-1.59.078-.536-.13-1.036-.405-1.46-.757-.414-.408-.66-.816-.846-1.447-.104-.475-.118-1.08.06-1.592.21-.504.51-.972.928-1.327.385-.3.962-.603 1.446-.647.508-.118 1.015-.038 1.467.066.21.084.426.16.613.26.165.12.34.223.486.35.134.13.254.257.37.368.098.125.17.258.25.365.167.22.2.434.268.564l.077.207M155.35 534.48c-.047 0-.092 0-.138-.003-.255-.026-.51-.13-.725-.3-.208-.168-.363-.437-.435-.677-.055-.266-.046-.547.06-.792.106-.248.28-.448.49-.592.244-.136.426-.21.677-.214.034-.004.07-.005.103-.005.185 0 .356.05.506.104.168.083.313.173.417.277.102.107.185.205.23.302.067.084.074.168.097.22l.028.08-.03-.08c-.028-.048-.04-.135-.104-.216-.05-.094-.13-.19-.24-.286-.117-.088-.256-.17-.43-.22-.105-.023-.22-.042-.337-.042-.072 0-.145.007-.218.025-.173.023-.406.15-.536.258-.15.14-.256.316-.327.505-.05.192-.063.39-.017.588.066.22.16.368.305.52.153.136.33.24.528.29.103.022.208.037.312.037.098 0 .194-.013.285-.045.205-.05.345-.153.486-.263.125-.124.217-.257.274-.39.048-.132.076-.253.076-.36.015-.1-.017-.18-.017-.24l-.01-.08.013.08c.005.057.037.14.02.243.004.104-.017.225-.054.367-.046.14-.125.288-.237.436-.12.13-.29.287-.49.363-.166.08-.362.11-.566.11" fill="#fff"/><path d="M156.662 532.88l-.03-.08c-.022-.053-.03-.136-.095-.22-.045-.098-.13-.196-.23-.304-.105-.104-.25-.193-.418-.276-.18-.065-.387-.122-.61-.1-.253.007-.435.08-.68.215-.21.145-.383.344-.49.593-.105.245-.113.525-.058.792.07.24.226.508.434.676.216.17.47.275.725.3.253.016.5-.007.703-.108.2-.076.37-.232.49-.362.114-.148.193-.296.238-.437.038-.142.06-.264.055-.367.017-.106-.014-.186-.02-.243l-.013-.08zm0 0l.01.08c0 .058.032.137.017.24 0 .106-.028.228-.077.358-.057.134-.148.268-.274.39-.143.11-.283.212-.488.264-.187.064-.396.05-.596.01-.198-.053-.376-.157-.528-.292-.146-.153-.24-.3-.305-.52-.047-.196-.034-.396.015-.588.072-.188.178-.365.328-.505.13-.108.362-.234.535-.257.192-.045.387-.02.557.018.175.05.313.13.432.22.107.096.19.192.238.285.063.082.075.17.103.216l.032.08zM158.02 529.604zm.002.014l-.003-.013c-.002-.002-.004-.01-.007-.023l.008.022.002.014m-.76.904h-.034c-.15-.007-.306-.066-.434-.162-.128-.085-.232-.286-.264-.385-.038-.195-.025-.34.038-.493.066-.144.18-.264.305-.338.16-.082.24-.105.394-.107l.038-.002c.115 0 .216.036.304.073.315.165.383.4.403.474-.01-.028-.03-.08-.068-.14-.047-.098-.182-.216-.368-.256-.04-.006-.082-.01-.124-.01-.053 0-.108.007-.163.026-.073.01-.212.092-.257.146-.062.074-.104.16-.134.25-.022.084-.017.197-.006.254.045.144.074.17.14.255.068.066.144.122.24.162.06.013.123.023.187.023.038 0 .076-.003.113-.012.11-.02.178-.06.26-.116.14-.113.202-.28.2-.39.003-.074-.006-.13-.01-.156.015.06.08.304-.13.602-.056.078-.156.173-.263.22-.103.057-.233.082-.368.082" fill="#fff"/><path d="M158.02 529.604c-.01.01-.025-.294-.41-.496-.1-.04-.212-.08-.343-.07-.153 0-.235.024-.395.106-.126.074-.24.194-.305.338-.062.152-.075.298-.037.493.032.1.135.3.264.385.128.096.283.155.434.16.146.005.29-.02.402-.082.107-.046.207-.14.262-.22.247-.35.113-.627.13-.615m0 0c-.006-.007.015.063.01.17.002.11-.06.277-.2.39-.082.056-.15.097-.26.117-.1.025-.205.01-.298-.012-.097-.04-.172-.096-.242-.162-.065-.086-.094-.11-.14-.255-.01-.056-.014-.17.006-.254.03-.088.072-.175.134-.25.045-.054.185-.135.258-.145.098-.034.195-.028.286-.015.187.04.322.158.368.255.06.094.074.163.077.163M159.586 527.164c-.11-.016-.23-.02-.334-.133-.134-.096-.132-.166-.183-.244-.033-.13-.018-.143-.02-.22l.047-.173c.034-.11.153-.196.25-.258.097-.025.135-.05.262-.05h.01c.094.006.176.018.24.065.067.033.114.075.152.12l.08.112.046.11-.058-.106-.093-.094c-.044-.038-.087-.064-.156-.066-.015-.004-.032-.006-.05-.006-.045 0-.09.013-.136.027l-.18.114c-.01.07-.03.086-.036.153l-.013.114c.028.075.077.183.098.183h.002l.12.103.177.022c.08-.015.15-.032.186-.072l.106-.122.034-.13v-.117s.005.046.01.118l-.012.142c-.01.055-.032.112-.08.173-.044.074-.107.12-.17.163-.09.063-.187.055-.3.076" fill="#fff"/><path d="M160.137 526.493s-.015-.04-.047-.11l-.078-.114c-.04-.045-.086-.087-.153-.12-.065-.048-.146-.06-.24-.066-.136 0-.173.025-.274.05-.097.063-.215.15-.25.26l-.047.172c.002.077-.014.09.018.22.052.078.05.148.183.245.106.113.227.118.335.134.113-.02.21-.013.3-.076.063-.043.127-.09.17-.163.048-.06.07-.118.08-.173l.012-.14c-.005-.073-.01-.12-.01-.12m0 0v.12l-.034.13-.105.12c-.037.04-.106.058-.187.073l-.177-.022-.12-.104c-.02.004-.07-.107-.098-.183l.012-.114c.006-.067.027-.083.037-.152l.18-.113c.06-.02.125-.038.186-.02.07 0 .113.027.157.065l.092.094.057.107M162.1 523.766zm-.554.67c-.108-.02-.226-.02-.337-.132-.132-.1-.13-.17-.184-.246-.03-.13-.01-.144-.017-.222-.01-.06.02-.117.044-.172.037-.108.155-.198.253-.26.092-.02.13-.05.24-.05.01 0 .022 0 .034.002.095.005.176.016.24.064.065.03.116.072.15.12l.08.112c.028.07.05.11.05.114 0-.003-.022-.044-.058-.107l-.094-.1c-.04-.034-.09-.063-.155-.063h-.002c-.015-.004-.03-.006-.048-.006-.047 0-.097.016-.14.028l-.174.118c-.014.06-.038.083-.04.14l-.016.124c.035.07.077.18.1.18h.003l.12.1.173.023c.085-.016.154-.028.188-.068.06-.027.086-.077.107-.128l.038-.124v-.117s0 .044.008.117l-.016.14c-.007.055-.025.11-.075.174-.045.072-.108.117-.172.16-.09.064-.188.058-.3.08" fill="#fff"/><path d="M162.1 523.766s-.02-.042-.05-.114l-.08-.113c-.034-.048-.085-.09-.15-.12-.064-.05-.145-.06-.24-.064-.137-.006-.172.025-.273.047-.098.063-.216.153-.253.26-.023.056-.052.114-.044.173.005.078-.013.093.016.222.054.077.052.145.183.246.11.11.228.11.336.133.11-.022.21-.016.3-.08.063-.043.126-.087.17-.16.052-.064.07-.12.077-.175l.016-.14c-.01-.072-.01-.116-.01-.116m0 0v.117l-.037.124c-.02.05-.046.1-.106.128-.035.04-.103.052-.188.068l-.174-.022-.12-.1c-.025.005-.068-.108-.104-.18l.017-.123c0-.058.024-.082.038-.14l.175-.12c.058-.016.127-.037.188-.02.066 0 .117.03.16.063l.092.1.06.106M187.007 521.88c-.05 0-.095-.02-.143-.033-.116-.022-.222-.13-.294-.22-.032-.088-.07-.12-.077-.25 0-.095.008-.17.05-.24.027-.066.063-.12.108-.154l.112-.09.11-.054s-.04.022-.106.063l-.094.1c-.027.04-.055.087-.047.152-.016.064.01.122.036.18l.138.157c.064.007.087.03.152.03h.127c.07-.038.187-.095.178-.113l.093-.128.01-.173c-.024-.074-.047-.137-.09-.17l-.14-.09-.135-.025-.122.014s.043-.01.125-.026l.143.01c.057 0 .12.01.188.058.082.032.132.09.18.146.076.078.078.175.11.276-.012.105-.003.224-.103.336-.092.137-.165.144-.24.2-.133.038-.15.022-.225.035-.014.003-.028.004-.04.004" fill="#fff"/><path d="M186.87 520.84l-.108.053-.112.09c-.044.034-.08.088-.107.154-.042.07-.05.145-.05.24.008.13.045.162.077.25.072.09.178.198.294.22.06.018.118.042.184.028.076-.013.092.003.223-.034.078-.056.15-.063.243-.2.1-.112.09-.23.102-.336-.032-.1-.033-.198-.11-.276-.047-.055-.097-.114-.18-.146-.067-.048-.13-.056-.187-.058l-.143-.01c-.082.015-.124.025-.124.025m0 0s.043-.006.123-.014l.136.024.14.09c.04.033.065.095.088.17l-.01.172-.093.127c.01.017-.107.074-.178.112h-.127c-.066 0-.09-.023-.152-.03l-.137-.156c-.026-.06-.052-.116-.035-.18-.008-.066.02-.114.047-.153l.094-.1.105-.064M184.004 520.246c-.047 0-.095-.02-.14-.032-.115-.02-.22-.128-.288-.222-.034-.09-.07-.12-.08-.257 0-.09.003-.168.048-.23.026-.07.064-.122.108-.16l.11-.086c.07-.036.112-.06.112-.06s-.04.03-.103.068l-.093.1c-.03.043-.06.09-.05.154-.017.06.01.123.036.18l.134.158c.068.007.09.024.158.024h.123c.074-.035.186-.09.18-.114l.09-.116.014-.177c-.03-.08-.048-.138-.092-.168l-.137-.096-.137-.02-.122.007s.044-.004.122-.016h.143c.057.002.12.02.19.064.08.03.13.09.18.144.075.082.078.175.107.28-.01.106-.002.223-.102.334-.095.14-.17.14-.245.2-.128.042-.145.026-.222.034-.014.004-.03.006-.044.006" fill="#fff"/><path d="M183.873 519.2s-.04.023-.11.058l-.112.085c-.043.04-.08.09-.106.162-.046.06-.047.14-.047.23.007.136.044.166.078.257.07.093.173.2.29.22.058.02.12.044.183.027.077-.008.093.007.22-.036.078-.06.152-.06.246-.2.1-.11.092-.226.103-.33-.03-.108-.032-.2-.107-.282-.05-.053-.1-.113-.18-.144-.072-.043-.133-.063-.192-.065h-.142l-.123.017m0 0l.123-.007.137.02.136.095c.043.03.063.09.09.17l-.012.176-.09.116c.006.023-.107.078-.18.114h-.124c-.068 0-.09-.018-.158-.024l-.134-.158c-.026-.058-.053-.122-.036-.18-.01-.063.02-.112.05-.155l.094-.1.103-.067M168.812 514.015c.04-.07.074-.137.105-.193.106-.204.16-.313.144-.31.018-.003-.033.11-.138.31-.06.12-.146.28-.24.462-.378.773-1.018 2.108-1.848 3.928-1.345 3.007-3.253 7.307-5.55 12.466-2.302 5.16-4.965 11.188-7.95 17.613-1.494 3.212-3.064 6.525-4.772 9.87-.858 1.67-1.748 3.35-2.725 5.015-.493.833-1.003 1.665-1.578 2.48-.292.404-.587.81-.946 1.2-.183.197-.38.387-.605.574-.144.095-.215.174-.437.276-.098.045-.21.092-.265.094l-.104.024-.134.02-.114-.01c-.347-.034-.467-.28-.502-.41-.05-.15-.043-.273-.043-.4.01-.25.053-.484.102-.71.104-.457.25-.905.402-1.347.313-.88.674-1.748 1.044-2.612.755-1.72 1.57-3.415 2.395-5.095 1.66-3.356 3.377-6.633 5.06-9.796 3.38-6.33 6.64-12.203 9.457-17.23 2.807-5.03 5.247-9.197 6.913-12.12.836-1.462 1.49-2.61 1.935-3.392l.192-.344c.29-.565.45-.866.45-.866l-.248.503m-2.224 4.13c-1.606 2.945-3.908 7.148-6.673 12.187-2.767 5.04-5.986 10.926-9.313 17.26-1.658 3.173-3.35 6.456-4.973 9.808-.812 1.68-1.607 3.372-2.345 5.088-.36.858-.707 1.714-1.01 2.58-.148.432-.28.865-.375 1.29-.05.212-.08.426-.088.627-.023.118.023.226.038.277.195-.04.613-.36.91-.707.332-.354.62-.75.913-1.14.558-.787 1.075-1.605 1.563-2.424.985-1.65 1.883-3.317 2.75-4.98 1.73-3.326 3.325-6.63 4.85-9.836 3.03-6.41 5.746-12.423 8.088-17.575 2.33-5.154 4.363-9.428 5.795-12.418.6-1.245 1.106-2.26 1.493-3.023-.41.757-.953 1.75-1.625 2.986M168.644 512.904v-.002c.012-.014.02-.02.02-.02l-.02.022" fill="#fff"/></g><g clip-path="url(#b)" transform="matrix(1.64995 0 0 -1.64995 -135.227 960.855)"><path d="M169.063 513.512h-.002.003m-.418.845v-.047c.27-.522.416-.798.416-.798l-.248.503c.04-.07.074-.137.105-.193.094-.183.15-.29.147-.308v-.002.005c0 .024-.05.132-.142.305l-.24.46-.037.075" fill="#fff"/></g><g clip-path="url(#c)" transform="matrix(1.64995 0 0 -1.64995 -135.227 960.855)"><path d="M169.554 513.412l.335.63.396.717c.152.275.326.587.464.942.154.356.32.736.49 1.142.192.395.29.86.46 1.307.153.455.33.917.44 1.412.128.486.257.984.388 1.477.223.997.462 1.996.653 2.945.193.938.413 1.82.58 2.57.172.75.37 1.366.485 1.804.125.43.2.678.2.678s-.19-1.01-.47-2.525c-.137-.758-.298-1.644-.468-2.594-.17-.95-.392-1.955-.605-2.963-.142-.498-.283-1-.415-1.487-.124-.496-.31-.964-.474-1.425-.17-.452-.3-.907-.516-1.302-.196-.405-.383-.787-.558-1.136-.157-.362-.357-.657-.536-.92-.17-.262-.326-.49-.45-.68-.257-.377-.4-.595-.4-.595M222.862 524.6c-.057-.076-.177-.23-.387-.408-.275-.24-.77-.5-1.413-.5-.057 0-.116.003-.175.007-.726.02-1.566.307-2.59.423-.14.012-.277.02-.42.02-.126 0-.257-.006-.394-.025-.272-.068-.548-.075-.835-.207-.592-.19-1.108-.56-1.658-.9-.545-.368-1.107-.727-1.725-.962-.153-.043-.325-.127-.462-.15l-.518-.088c-.16-.003-.312-.01-.467-.01-.177 0-.356.008-.546.036-1.165.102-2.387.597-3.74.597-.245 0-.496-.016-.75-.054-.394-.033-.787-.078-1.197-.218-.41-.102-.82-.217-1.202-.397-.788-.307-1.535-.732-2.27-1.164-1.417-.86-2.85-1.75-4.44-1.75l-.132.003-.163-.002c-.747 0-1.53.095-2.317.103-.084.003-.168.005-.253.005-.77 0-1.598-.147-2.295-.52-1.617-.856-2.62-2.33-4.16-2.68-1.47-.418-3.004-.398-4.44-.453-.725-.007-1.455-.14-2.114-.238-.332-.015-.67-.192-.994-.295-.327-.114-.644-.23-.92-.413-.57-.327-1.103-.66-1.59-.998-.49-.34-.952-.625-1.44-.762-.974-.304-1.876-.366-2.607-.467-.723-.082-1.304-.17-1.684-.303-.386-.126-.544-.29-.544-.29s.162.16.547.267c.38.11.957.175 1.688.23.728.064 1.627.086 2.645.357 1.056.262 1.976 1.122 3.115 1.67.275.18.57.28.88.374.303.087.59.248.937.26.663.08 1.3.184 1.984.184h.09c1.428.03 2.963-.056 4.57.39 1.672.393 2.83 1.973 4.22 2.672.667.357 1.368.453 2.097.453.42 0 .852-.03 1.29-.064.436-.032.88-.064 1.33-.064h.165c.86 0 1.71.245 2.51.59.812.36 1.53.838 2.26 1.266 1.454.878 2.907 1.596 4.465 1.75.252.04.5.057.75.057 1.24 0 2.437-.433 3.66-.517.184-.028.366-.042.546-.042 1.305 0 2.47.694 3.375 1.362.533.356 1.05.723 1.57.91.242.132.543.158.803.235.173.032.358.04.54.04.073 0 .145 0 .215-.003.975-.07 1.82-.316 2.553-.316.017 0 .034.002.05.003.03-.002.055-.002.082-.002.71 0 1.247.303 1.53.578.207.187.32.344.374.422m.04.052c-.005 0-.017-.02-.04-.052.024.032.037.05.04.052zm0 0l.002-.002v.002z" fill="#fff"/><path d="M222.904 524.65c-.013.014-.112-.2-.415-.472-.296-.286-.863-.6-1.612-.575-.745-.013-1.607.243-2.605.314-.247.007-.513.007-.755-.037-.26-.077-.56-.103-.804-.234-.52-.187-1.036-.555-1.57-.91-1.03-.76-2.394-1.552-3.92-1.32-1.468.1-2.9.705-4.41.46-1.558-.155-3.012-.872-4.465-1.75-.732-.428-1.45-.906-2.26-1.267-.813-.35-1.676-.598-2.552-.59-1.726-.023-3.37.464-4.84-.327-1.39-.7-2.55-2.28-4.222-2.67-1.607-.448-3.142-.36-4.568-.393-.72.01-1.384-.098-2.076-.183-.347-.01-.634-.172-.938-.26-.31-.095-.605-.194-.88-.372-1.14-.55-2.058-1.41-3.114-1.67-1.018-.272-1.916-.294-2.644-.36-.732-.053-1.31-.118-1.688-.228-.386-.107-.55-.267-.55-.267s.16.163.545.29c.38.133.96.22 1.684.303.732.1 1.633.163 2.608.467.487.136.95.423 1.44.76.486.34 1.018.672 1.59 1 .275.18.592.298.918.412.325.103.663.28.996.295.657.098 1.387.23 2.11.237 1.44.056 2.972.035 4.442.453 1.54.35 2.543 1.824 4.16 2.68.775.416 1.71.55 2.548.516.846-.01 1.686-.116 2.482-.1 1.643-.05 3.116.862 4.57 1.748.736.433 1.483.858 2.272 1.165.38.18.79.294 1.2.397.41.14.804.184 1.197.217 1.66.246 3.115-.423 4.492-.544.356-.052.673-.033 1.013-.026l.517.09c.14.02.31.104.463.148.618.234 1.18.594 1.725.96.55.342 1.066.71 1.66.902.285.133.56.14.832.206.293.043.552.03.814.007 1.026-.117 1.865-.404 2.59-.425.727-.052 1.29.23 1.59.494.31.264.422.472.428.458M204.33 525.636s-2.096-.776-5.23-1.93c-1.568-.593-3.39-1.287-5.342-2.024-1.952-.753-4.03-1.56-6.115-2.364-2.07-.815-4.144-1.633-6.09-2.404-1.938-.778-3.745-1.504-5.296-2.13l-.858-.352v-.188c.3.112.614.227.94.347l5.338 2.028c1.953.755 4.03 1.558 6.11 2.36l6.09 2.407c1.94.777 3.75 1.507 5.303 2.128 3.09 1.272 5.15 2.123 5.15 2.123" fill="#fff"/><path d="M175.4 514.433l-4.296-1.77 4.295 1.582v.188z" fill="#fff"/></g><g clip-path="url(#d)" transform="matrix(1.64995 0 0 -1.64995 -135.227 960.855)"><path d="M204.33 525.636l-5.15-2.123c-1.552-.62-3.36-1.35-5.3-2.128-1.945-.767-4.02-1.587-6.09-2.407-2.083-.802-4.16-1.605-6.112-2.36l-5.34-2.027c-3.142-1.157-5.233-1.93-5.233-1.93s2.06.852 5.153 2.125c1.55.625 3.358 1.35 5.294 2.13 1.947.77 4.022 1.588 6.09 2.403l6.117 2.364c1.95.737 3.773 1.43 5.34 2.023l5.23 1.93M197.455 529.384c-.26 0-.517-.067-.726-.138-.124-.065-.244-.12-.353-.183-.1-.075-.197-.14-.282-.21-.07-.087-.144-.16-.207-.23-.056-.078-.095-.156-.136-.22-.092-.13-.108-.255-.143-.33-.027-.08-.043-.117-.043-.117s.018.038.048.115c.04.072.055.2.154.322.042.063.086.144.144.21.066.07.137.14.21.215.082.07.185.13.283.204.106.056.23.1.353.15.177.038.354.07.543.07.096 0 .195-.007.3-.028.3-.037.582-.19.83-.38.242-.202.415-.473.535-.765.092-.313.106-.58.027-.948-.082-.27-.242-.582-.475-.795-.25-.207-.533-.36-.845-.44-.122-.024-.263-.038-.405-.038-.183 0-.367.023-.51.08-.293.074-.527.246-.726.414-.085.1-.17.194-.24.29-.054.112-.112.212-.153.304l-.083.29c-.015.092-.02.175-.024.252-.027.146.018.27.022.348l.012.132-.02-.132c-.005-.077-.052-.193-.035-.348.004-.077.003-.166.017-.26l.07-.294c.04-.1.093-.2.145-.315.067-.102.146-.205.22-.32.192-.194.425-.403.736-.512.25-.112.492-.152.773-.152.08 0 .163.003.25.01.365.046.725.205 1.025.45.295.258.5.573.626.982.07.318.052.77-.085 1.115-.147.35-.39.653-.693.858-.306.19-.642.325-.97.335-.058.008-.115.01-.172.01" fill="#fff"/><path d="M195.567 527.957l-.012-.132c-.005-.077-.05-.202-.022-.348.005-.078.01-.16.024-.252.026-.092.052-.184.084-.29.04-.092.1-.192.153-.304.07-.095.156-.19.24-.288.2-.168.434-.34.727-.415.255-.1.637-.096.915-.042.312.08.595.234.845.44.233.214.393.527.475.795.08.367.066.635-.027.947-.12.292-.293.563-.533.766-.25.19-.532.343-.833.38-.308.06-.576.015-.842-.043-.122-.05-.247-.093-.353-.148-.098-.073-.2-.134-.283-.205-.073-.073-.145-.146-.21-.214-.06-.066-.102-.147-.145-.21-.1-.124-.115-.25-.155-.322-.03-.075-.048-.114-.048-.114m0 0s.016.04.042.118c.034.075.05.2.142.33.04.063.08.14.136.22.063.07.136.143.208.23.084.07.18.135.28.21.11.063.23.118.353.183.255.086.583.167.896.127.33-.01.665-.147.972-.336.303-.206.545-.507.69-.858.138-.344.155-.798.086-1.115-.127-.41-.33-.724-.626-.983-.3-.245-.66-.403-1.025-.45-.395-.027-.702 0-1.023.142-.31.11-.544.32-.734.512-.075.115-.154.22-.22.32-.052.115-.105.217-.145.316l-.07.295c-.015.093-.013.18-.02.26-.015.155.032.27.037.348l.02.13M191.442 525.038l-.03-.08-.014-.084.014.085.03.078zm1.263.902c-.186 0-.375-.05-.52-.102-.17-.084-.31-.175-.42-.276-.1-.112-.182-.21-.226-.302-.066-.088-.075-.174-.097-.222.026.048.036.13.103.214.05.094.132.194.24.286.118.088.257.168.43.222.115.02.226.04.344.04.067 0 .137-.007.21-.025.2-.03.38-.138.538-.26.15-.137.254-.312.325-.5.052-.206.07-.35.013-.612-.045-.157-.155-.358-.297-.492-.154-.142-.332-.246-.53-.3-.085-.017-.192-.028-.3-.028-.108 0-.217.01-.3.04-.193.047-.35.156-.488.267-.126.118-.212.254-.27.39-.053.13-.076.255-.076.354-.016.104.013.188.013.24-.004-.052-.038-.136-.023-.237-.004-.106.02-.228.054-.37.05-.14.13-.284.24-.437.127-.135.28-.28.492-.36.188-.084.348-.112.556-.112.046 0 .095 0 .147.004.253.027.508.126.72.298.217.177.354.4.443.695.042.204.042.54-.06.775-.11.248-.283.45-.495.586-.22.132-.45.22-.675.22-.03.003-.06.004-.092.004" fill="#fff"/><path d="M191.412 524.96l-.013-.086c0-.054-.03-.137-.015-.24 0-.1.023-.226.076-.356.06-.134.146-.27.272-.39.136-.11.294-.22.49-.267.16-.055.427-.045.596-.012.2.056.378.16.53.302.143.134.252.337.298.492.055.262.04.407-.014.61-.07.19-.176.365-.325.502-.16.122-.337.23-.537.26-.202.048-.374.016-.555-.015-.173-.054-.312-.134-.43-.222-.107-.093-.19-.192-.24-.286-.066-.084-.076-.166-.102-.215l-.03-.078zm0 0l.03.077c.022.05.03.135.096.223.045.09.126.19.228.302.11.1.25.19.42.276.168.06.398.118.61.097.227 0 .458-.087.676-.22.213-.134.384-.338.494-.585.103-.235.103-.57.06-.775-.088-.297-.225-.52-.44-.696-.214-.173-.468-.272-.722-.3-.285-.012-.473.007-.703.11-.21.08-.364.225-.49.36-.112.153-.19.296-.24.436-.035.142-.058.265-.054.37-.015.1.02.184.023.238l.012.085zM188.627 522.674c0-.004-.003-.006-.003-.007 0 0-.006-.014-.01-.042l.01.038c0 .004.002.007.003.01m.714.56c-.11 0-.232-.035-.31-.075-.338-.176-.39-.435-.403-.484.008.02.024.076.07.15.05.1.178.22.362.26.045.006.086.01.127.01.05 0 .1-.006.158-.025.1-.02.19-.086.258-.147.068-.078.108-.164.14-.25.012-.105.028-.14-.003-.29-.015-.055-.07-.16-.13-.225-.067-.063-.146-.122-.244-.154-.04-.02-.126-.033-.2-.033-.036 0-.07.005-.095.01-.097.02-.185.072-.264.12-.14.117-.197.288-.197.394-.003.057 0 .1.004.13-.02-.09-.05-.313.134-.576.065-.083.147-.167.264-.217.137-.065.224-.083.406-.083.148.01.304.063.43.16.13.113.213.23.27.42.024.1.027.322-.04.46-.07.145-.18.262-.307.335-.126.066-.256.11-.378.11H189.34" fill="#fff"/><path d="M188.622 522.667s-.02-.06-.013-.173c0-.105.054-.276.195-.393.08-.047.167-.1.265-.12.07-.018.233-.008.296.024.098.033.177.092.244.154.058.065.114.17.13.224.03.152.015.186 0 .29-.03.088-.07.173-.137.25-.068.062-.158.128-.26.147-.107.033-.182.026-.285.015-.183-.042-.31-.162-.362-.26-.058-.094-.068-.16-.074-.158m0 0c.01-.018.024.292.406.49.088.045.228.083.346.075.126.005.263-.04.396-.11.127-.072.238-.19.306-.336.068-.137.066-.36.04-.458-.056-.19-.138-.307-.27-.42-.124-.098-.28-.15-.43-.16-.18 0-.268.018-.405.084-.115.05-.198.133-.263.216-.246.352-.11.63-.125.62M169.19 512.878zM169.07 515.367c-.056 1.582-.08 3.845-.13 6.56-.054 2.717-.09 5.886-.23 9.28-.07 1.7-.164 3.455-.32 5.235-.08.89-.177 1.784-.32 2.69-.08.442-.166.896-.292 1.34-.067.224-.14.446-.244.67-.052.112-.116.22-.2.328-.043.054-.096.107-.18.162l-.1.05-.037.02c-.07.025-.067.015-.104.025-.12.01-.243-.05-.306-.118-.07-.066-.106-.133-.137-.193-.056-.128-.09-.245-.118-.362-.053-.233-.08-.468-.1-.698-.035-.457-.042-.915-.04-1.366.008-.91.055-1.807.11-2.7.12-1.783.286-3.53.463-5.22.357-3.384.783-6.527 1.143-9.22.36-2.694.71-4.936.936-6.506.11-.786.204-1.402.257-1.823.012-.07.02-.125.027-.184.026-.294.043-.458.043-.458s-.008.096-.017.262c.02-.166.027-.264.017-.262.014-.004 0 .174-.032.48-.025.42-.06 1.097-.09 2.01m-2.186 25.988v.002-.002zm2.045-26.002l-.785 6.52c-.327 2.696-.684 5.846-1.026 9.227-.168 1.69-.328 3.433-.435 5.213-.053.887-.096 1.78-.096 2.678 0 .45.004.898.046 1.338.023.22.046.44.092.65.026.1.058.2.095.285.034.08.074.097.064.093l.023-.013.072-.04.057-.063c.06-.068.11-.16.157-.255.093-.19.16-.398.226-.606.118-.432.21-.87.284-1.308.15-.883.25-1.775.334-2.66.162-1.772.266-3.52.344-5.215.156-3.39.26-6.56.348-9.276.08-2.713.19-4.98.278-6.556.036-.633.072-1.15.103-1.553-.047.4-.11.917-.18 1.544M172.65 525.055c.327 1.38.67 2.83 1.024 4.34.352 1.512.716 3.067 1.083 4.65.32 1.593.604 3.22.918 4.842.288 1.622.582 3.247.87 4.844.146.792.29 1.602.38 2.384.082.8.142 1.58.187 2.334l.242 4.365c.08 1.39.194 2.697.352 3.913.163 1.21.352 2.317.604 3.285.1.496.277.927.4 1.344.14.41.31.76.443 1.094.333.617.608 1.096.85 1.352.226.283.346.43.346.43s-.12-.142-.358-.41c-.25-.25-.538-.72-.89-1.335-.14-.325-.328-.682-.484-1.087-.134-.418-.325-.853-.44-1.35-.29-.97-.513-2.097-.693-3.32-.36-2.452-.526-5.294-.713-8.32-.05-.757-.115-1.525-.197-2.293-.09-.786-.236-1.552-.39-2.355l-.894-4.824c-.297-1.615-.57-3.234-.886-4.823-.354-1.586-.712-3.145-1.056-4.65-.336-1.516-.663-2.973-.973-4.358-.3-1.38-.615-2.693-.854-3.912-.244-1.21-.453-2.324-.672-3.305-.212-.98-.44-1.824-.648-2.51-.232-.68-.42-1.22-.6-1.56l-.254-.522s.094.177.27.52c.188.322.39.853.64 1.537.47 1.373.97 3.385 1.48 5.807.255 1.21.592 2.51.915 3.895M169.11 544.245l.29-.204c.187-.14.498-.3.774-.632.32-.29.606-.723.9-1.23.113-.272.255-.55.366-.86.087-.32.208-.64.276-.995.142-.703.247-1.476.258-2.303.035-.826-.034-1.695-.108-2.596-.16-1.774-.536-3.64-.94-5.51h.393c.382 1.85.73 3.713.88 5.48.073.915.107 1.796.053 2.635-.033.838-.158 1.63-.324 2.34-.083.358-.216.69-.316 1.01-.13.307-.29.59-.42.858-.322.507-.637.933-.977 1.213-.292.326-.614.475-.806.607l-.3.188M171.32 529.914h-.393c-.006-.026-.01-.053-.017-.08-.188-.95-.386-1.902-.55-2.848-.166-.94-.33-1.862-.43-2.773-.143-.903-.185-1.78-.24-2.61-.075-.837-.03-1.633-.005-2.356.026-.725.074-1.387.074-1.98.012-.29.008-.567-.007-.82-.006-.254-.014-.49-.045-.7-.023-.207-.048-.394-.066-.558-.037-.16-.07-.3-.09-.408-.057-.225-.084-.34-.084-.34s.033.115.093.338c.035.104.07.24.117.402.03.16.06.35.095.56.04.208.06.444.08.696.024.26.043.538.046.83.028.592.013 1.256.002 1.986-.005.722-.026 1.508.07 2.33.075.826.146 1.702.285 2.597.116.895.283 1.813.457 2.75.17.938.378 1.887.576 2.832l.03.152" fill="#fff"/></g><g clip-path="url(#e)" transform="matrix(1.64995 0 0 -1.64995 -135.227 960.855)"><path d="M170.174 543.408c.32-.29.607-.723.9-1.23.113-.272.256-.55.366-.86.087-.32.21-.64.276-.995.143-.703.247-1.476.257-2.303.036-.825-.033-1.695-.107-2.596-.163-1.8-.547-3.695-.956-5.59-.188-.95-.386-1.902-.55-2.847-.165-.94-.33-1.863-.43-2.774-.143-.904-.186-1.782-.24-2.61-.075-.837-.03-1.633-.005-2.356.026-.725.073-1.387.073-1.98.014-.292.01-.567-.005-.82-.006-.254-.014-.49-.044-.698-.025-.21-.05-.397-.068-.56-.037-.16-.07-.3-.09-.408l-.084-.34s.033.114.093.338c.035.104.072.24.117.402.03.16.06.35.095.56.04.208.06.444.08.696.024.26.043.537.046.83.03.592.013 1.256.002 1.986-.005.722-.026 1.508.07 2.33.075.825.146 1.702.285 2.597.116.895.283 1.813.457 2.75.172.937.38 1.887.576 2.832.395 1.9.76 3.817.912 5.63.073.917.108 1.798.053 2.637-.032.838-.158 1.63-.324 2.34-.082.357-.215.69-.316 1.01-.13.307-.29.59-.418.858-.323.506-.638.933-.98 1.212-.29.326-.613.475-.805.607l-.298.188.29-.204c.185-.14.496-.3.772-.632M192.754 545.11c-.457 0-.91-.124-1.28-.255-.212-.12-.42-.222-.613-.336-.17-.14-.342-.258-.487-.388-.127-.154-.252-.29-.365-.42-.1-.136-.168-.274-.245-.392-.16-.23-.186-.462-.25-.597-.05-.142-.075-.218-.075-.218s.03.076.08.215c.07.128.106.356.276.58.078.115.154.255.255.383.112.125.24.252.37.394.145.12.32.233.492.36.186.105.402.188.613.277.314.075.63.138.967.138.16 0 .326-.014.497-.05.52-.058 1.007-.33 1.433-.662.41-.363.71-.847.915-1.37.156-.564.17-1.047.027-1.708-.142-.485-.432-1.05-.836-1.44-.438-.378-.935-.662-1.473-.804-.22-.048-.476-.075-.732-.075-.306 0-.612.04-.852.134-.514.13-.915.433-1.258.738-.147.17-.296.34-.41.52-.09.193-.188.37-.26.543-.052.182-.094.353-.14.514-.026.16-.026.31-.036.452-.043.27.033.49.035.633.024.15.033.228.033.228s-.017-.08-.04-.224c-.008-.146-.092-.357-.065-.636.006-.137.004-.3.023-.465.037-.16.082-.337.12-.53.067-.18.16-.36.248-.563.114-.187.245-.37.376-.575.326-.347.728-.72 1.262-.913.42-.19.826-.26 1.294-.26.152 0 .31.01.477.02.634.097 1.262.384 1.787.826.516.48.876 1.045 1.103 1.782.123.576.104 1.39-.128 2.01-.252.63-.66 1.172-1.182 1.536-.53.336-1.113.572-1.68.58-.092.012-.186.017-.28.017" fill="#fff"/><path d="M189.356 541.18c.036-.16.08-.337.12-.53.067-.18.16-.36.248-.563.114-.187.245-.37.376-.575.325-.347.727-.72 1.26-.913.558-.25 1.09-.29 1.773-.238.634.095 1.262.382 1.787.824.515.48.875 1.046 1.103 1.784.122.574.104 1.39-.128 2.01-.25.627-.662 1.17-1.182 1.534-.53.336-1.113.572-1.68.58-.547.07-1.113-.082-1.56-.24-.21-.12-.42-.22-.612-.335-.17-.14-.342-.258-.487-.387-.128-.155-.252-.29-.365-.42-.1-.137-.17-.275-.245-.393-.16-.232-.186-.462-.25-.597l-.076-.22s.032.078.08.218c.07.128.107.356.277.582.077.113.153.253.254.38.115.126.24.253.372.395.145.12.32.233.492.36.186.105.402.188.612.277.465.11.936.196 1.465.09.52-.06 1.008-.333 1.433-.664.41-.363.71-.848.915-1.37.156-.564.17-1.046.027-1.708-.142-.485-.432-1.05-.836-1.44-.438-.378-.935-.662-1.473-.804-.484-.104-1.143-.114-1.584.06-.514.13-.916.432-1.258.737-.148.17-.296.34-.41.52-.09.194-.188.37-.26.543-.052.182-.094.353-.14.514-.025.16-.025.312-.036.452-.043.27.033.49.035.633.024.15.032.227.032.227s-.016-.078-.04-.223c-.007-.145-.09-.357-.064-.636.006-.138.004-.3.023-.465M226.67 562.89l-.097.054-.134.053-.107.025c-.054.03-.183.032-.296.032-.255 0-.364-.063-.546-.094-.31-.097-.59-.224-.866-.362-.543-.27-1.042-.59-1.544-.914-.98-.652-1.914-1.36-2.827-2.083-1.834-1.443-3.59-2.95-5.31-4.466-3.44-3.036-6.743-6.106-9.92-9.1-6.345-5.99-12.173-11.678-17.182-16.528-5.01-4.865-9.176-8.91-12.097-11.752-1.794-1.713-3.138-2.952-3.916-3.663-.184-.158-.342-.292-.463-.394-.21-.19-.32-.294-.305-.3-.015.006.094.11.307.293.05.04.123.1.182.15-.322-.293-.49-.443-.49-.443s.306.263.874.76l.392.327c.85.684 2.092 1.688 3.674 2.973 3.17 2.558 7.734 6.18 13.13 10.614 5.4 4.438 11.68 9.63 18.324 15.296 3.32 2.834 6.73 5.785 10.135 8.86 1.698 1.538 3.398 3.108 5.054 4.732.828.82 1.645 1.655 2.434 2.532.386.437.773.885 1.127 1.365.18.248.345.495.497.78.072.153.144.294.192.492.037.172.064.532-.224.762m-1.06-1.615c-.327-.455-.696-.897-1.074-1.322-.76-.864-1.564-1.694-2.38-2.504-1.633-1.634-3.318-3.207-5-4.76-3.378-3.086-6.766-6.06-10.066-8.91-6.605-5.708-12.85-10.935-18.215-15.41-5.36-4.474-9.822-8.206-12.95-10.82-1.28-1.074-2.32-1.95-3.118-2.623.778.693 1.796 1.61 3.023 2.737 2.997 2.766 7.258 6.72 12.288 11.558 5.045 4.828 10.912 10.468 17.29 16.417 3.197 2.967 6.514 6.01 9.965 9.015 1.726 1.495 3.49 2.99 5.31 4.408.915.71 1.837 1.397 2.797 2.03.483.314.97.614 1.463.864.457.242 1.018.404 1.222.357-.014-.07-.035-.226-.123-.354-.113-.233-.267-.458-.433-.685M172.123 514.932c.963 1.287 2.35 3.11 3.978 5.33 1.627 2.22 3.528 4.81 5.478 7.64.976 1.417 1.97 2.887 2.94 4.415.482.757.963 1.535 1.404 2.334.22.402.44.808.632 1.233.092.21.18.426.25.66.03.112.063.237.07.37.004.073 0 .144-.03.237-.02.08-.1.196-.213.235-.036.013-.028.016-.103.028l-.044.006-.108-.007c-.1-.012-.176-.038-.235-.066-.132-.05-.237-.123-.344-.197-.198-.15-.37-.316-.538-.48-.326-.344-.62-.7-.904-1.062-.568-.73-1.085-1.482-1.59-2.23-1-1.508-1.93-3.014-2.816-4.488-1.773-2.934-3.338-5.724-4.702-8.102-1.36-2.382-2.478-4.37-3.296-5.75-.5-.848-.88-1.462-1.1-1.81-.148-.214-.226-.33-.214-.332-.01.002.045.085.145.226-.09-.144-.144-.226-.144-.226s.103.148.282.417l.09.125c.258.345.637.85 1.115 1.494m14.357 22.118zm-14.47-22.04c.844 1.358 2.036 3.314 3.424 5.676 1.392 2.362 3.02 5.12 4.798 8.042.894 1.463 1.833 2.97 2.834 4.464.504.742 1.022 1.486 1.58 2.2.282.355.572.704.89 1.03.155.154.32.308.49.433.09.063.175.12.262.156l.1.03.07.01.022-.002c-.008.01.02-.024.01-.117-.004-.09-.025-.194-.05-.288-.065-.207-.144-.416-.233-.616-.183-.41-.392-.813-.61-1.207-.436-.792-.91-1.565-1.383-2.326-.96-1.525-1.944-2.998-2.91-4.415-1.94-2.835-3.782-5.464-5.38-7.7-1.596-2.24-2.922-4.11-3.853-5.416-.397-.56-.715-1.014-.956-1.354.23.348.53.814.895 1.4M189.114 553.065s-.128-.026-.37-.083c-.245-.07-.608-.083-1.053-.35-.455-.175-.976-.553-1.555-1.04-.274-.28-.572-.555-.87-.893-.274-.355-.585-.718-.87-1.14-.567-.842-1.14-1.8-1.663-2.874-.544-1.062-1.035-2.235-1.51-3.463-.95-2.456-1.773-5.158-2.558-7.85-.393-1.34-.776-2.688-1.182-4.003-.406-1.32-.806-2.61-1.243-3.84-.266-.814-.554-1.603-.84-2.363v-.813c.385.96.79 1.966 1.144 3.04.45 1.24.858 2.537 1.276 3.86.414 1.315.806 2.67 1.21 4.01.77 2.693 1.566 5.375 2.49 7.813.47 1.21.93 2.383 1.447 3.442.498 1.068 1.043 2.024 1.584 2.864.27.422.567.775.83 1.143.274.337.564.625.82.917.553.5 1.056.912 1.505 1.114.434.28.796.32 1.04.398.24.073.37.11.37.11" fill="#fff"/><path d="M175.4 525.167l-.45-1.18c-.403-1.12-.885-2.134-1.32-3.073-.44-.94-.846-1.805-1.173-2.588-.17-.387-.323-.758-.45-1.11-.133-.34-.256-.655-.346-.955l-.25-.78-.144-.59-.114-.488.132.487c.045.162.098.35.16.582.082.225.173.485.274.765.098.292.232.6.377.933.136.338.3.7.478 1.08.35.766.785 1.605 1.237 2.533.45.93.96 1.946 1.394 3.083l.195.488v.813z" fill="#fff"/></g><g clip-path="url(#f)" transform="matrix(1.64995 0 0 -1.64995 -135.227 960.855)"><path d="M177.482 531.37c-.406-1.32-.805-2.61-1.243-3.838-.405-1.245-.864-2.427-1.288-3.546-.404-1.12-.886-2.133-1.322-3.072-.44-.94-.846-1.805-1.173-2.588-.17-.387-.322-.758-.448-1.11-.136-.34-.258-.655-.348-.955-.093-.29-.18-.554-.253-.78l-.143-.59-.115-.488.132.487c.046.162.1.352.16.582.083.225.173.484.274.765.1.292.233.6.377.933.137.338.3.7.478 1.08.352.766.786 1.605 1.237 2.533.45.93.96 1.945 1.394 3.083.44 1.108.926 2.272 1.34 3.53.45 1.24.858 2.535 1.276 3.857.415 1.316.807 2.67 1.212 4.012.768 2.692 1.564 5.375 2.49 7.812.47 1.21.927 2.383 1.445 3.442.498 1.07 1.043 2.024 1.584 2.865.272.422.567.774.83 1.142.275.338.564.626.822.917.552.502 1.054.912 1.504 1.113.433.282.795.32 1.038.4.242.073.37.108.37.108s-.128-.026-.37-.082c-.245-.07-.608-.084-1.052-.35-.456-.175-.978-.554-1.556-1.04-.275-.28-.573-.556-.872-.893-.273-.356-.583-.717-.867-1.14-.57-.84-1.142-1.8-1.664-2.874-.544-1.062-1.036-2.234-1.512-3.462-.947-2.457-1.77-5.16-2.555-7.852-.394-1.34-.776-2.687-1.183-4.002M108.93 557.042c-.238-1.623-.785-2.98-1.647-4.072-1.472-1.86-3.514-2.79-6.135-2.79-2.93 0-5.165 1.064-6.71 3.186-1.2 1.648-1.796 3.658-1.796 6.053 0 3.068.852 5.463 2.56 7.183 1.573 1.583 3.586 2.375 6.04 2.375 2.132 0 3.864-.542 5.19-1.622 1.33-1.078 2.11-2.587 2.35-4.52H106.5c-.23 1.114-.62 2-1.18 2.65-.97 1.126-2.323 1.69-4.06 1.69-2.18 0-3.837-.84-4.973-2.52-.91-1.367-1.363-3.066-1.363-5.095 0-2.123.484-3.868 1.456-5.22 1.112-1.57 2.668-2.358 4.676-2.358 1.545 0 2.81.442 3.788 1.33.978.89 1.586 2.133 1.82 3.73h2.267zM126.447 556.554c-.237-1.142-.602-2.105-1.103-2.9-1.46-2.318-3.71-3.475-6.75-3.475-2.77 0-4.914.947-6.432 2.843-1.36 1.68-2.04 3.798-2.04 6.358 0 2.86.805 5.18 2.412 6.968 1.572 1.754 3.572 2.63 6.004 2.63 1.956 0 3.632-.578 5.03-1.73 1.08-.912 1.87-2.017 2.364-3.324.49-1.303.733-2.92.72-4.866h-14.247c.024-1.194.17-2.18.448-2.972.923-2.735 2.85-4.104 5.776-4.104 1.482 0 2.7.384 3.655 1.16.956.773 1.62 1.91 1.994 3.412h2.167zm-2.08 4.3c-.07 1.503-.425 2.75-1.06 3.748-1.126 1.715-2.734 2.574-4.824 2.574-1.71 0-3.084-.538-4.125-1.617-1.043-1.084-1.695-2.652-1.953-4.705h11.963zM131.118 568.457v-3.333c.522.89 1.023 1.56 1.496 2.017 1.298 1.226 2.972 1.838 5.03 1.838 1.656 0 3.05-.386 4.17-1.154.838-.576 1.417-1.28 1.743-2.114.32-.837.482-2.035.482-3.595V550.7h-2.24v10.733c0 1.582-.155 2.73-.452 3.44-.302.686-.823 1.222-1.57 1.62-.75.395-1.626.593-2.638.593-1.682 0-3.046-.496-4.092-1.495-.666-.633-1.128-1.39-1.393-2.273-.272-.887-.406-2.114-.406-3.685V550.7h-2.246v17.757h2.114zM153.763 568.457v-1.8h-3.835v-11.2c0-1.26.145-2.074.428-2.44.29-.37.917-.55 1.89-.55.398 0 .9.036 1.517.106v-1.853c-.71-.096-1.388-.143-2.022-.143-1.857 0-3.06.477-3.61 1.44-.187.335-.308.773-.365 1.315-.053.536-.08 1.603-.08 3.184v10.14h-3.216v1.8h3.214v5.437h2.244v-5.436h3.835zM164.4 568.726v-2.197c-.275.01-.468.02-.583.02-1.958 0-3.526-.663-4.712-1.983-.634-.71-1.065-1.517-1.288-2.432-.226-.91-.34-2.306-.34-4.178V550.7h-2.244v17.757h2.113v-4.252c1.286 3.076 3.636 4.58 7.053 4.52M172.996 568.977c2.654 0 4.79-.93 6.416-2.79 1.43-1.647 2.145-3.866 2.145-6.665 0-2.963-.825-5.28-2.486-6.95-1.58-1.595-3.65-2.394-6.204-2.394-2.833 0-5.026.923-6.586 2.773-1.456 1.718-2.184 3.92-2.184 6.61 0 2.642.683 4.803 2.054 6.483 1.61 1.957 3.892 2.935 6.846 2.935m-.056-1.8c-1.957-.002-3.53-.666-4.713-2.002-1.222-1.366-1.835-3.24-1.835-5.616 0-2.354.594-4.206 1.78-5.565 1.17-1.343 2.75-2.014 4.732-2.014 1.868 0 3.365.622 4.487 1.873 1.257 1.393 1.887 3.293 1.887 5.707 0 2.294-.563 4.13-1.7 5.507-1.112 1.36-2.655 2.06-4.637 2.11" fill="#fff"/><path d="M199.827 552.503v-1.677c-.56-.178-1.17-.268-1.815-.268-.873 0-1.49.243-1.843.73-.356.486-.532 1.327-.532 2.527-.588-.9-1.204-1.59-1.853-2.07-1.37-1.046-3.078-1.567-5.123-1.567-1.784 0-3.19.398-4.226 1.19-1.198.898-1.796 2.183-1.796 3.854 0 2.327 1.16 3.923 3.478 4.79.662.252 1.29.42 1.89.512.598.09 2.123.25 4.578.48 1.125.106 1.893.32 2.314.645.415.323.624.872.624 1.64 0 1.338-.388 2.327-1.16 2.95-.77.625-1.99.936-3.662.936-1.586 0-2.782-.34-3.592-1.018-.812-.676-1.292-1.744-1.44-3.192h-2.152c.087 1.917.776 3.4 2.066 4.443 1.29 1.047 3.084 1.567 5.375 1.567 2.52 0 4.397-.606 5.63-1.82.448-.455.75-.98.91-1.566.154-.585.23-1.534.23-2.843l-.018-5.186c.013-2.758.04-4.24.094-4.447.11-.49.495-.738 1.14-.738.258 0 .556.043.88.128m-4.302 7.866c-.388-.31-.83-.532-1.336-.658-.51-.126-1.757-.32-3.753-.584-1.978-.262-3.382-.665-4.207-1.205-.87-.576-1.31-1.417-1.31-2.52 0-1.05.395-1.884 1.183-2.514.785-.63 1.825-.945 3.122-.945.983 0 1.927.183 2.826.547.896.37 1.64.874 2.22 1.522.84.926 1.256 2.083 1.256 3.473v2.882zM203.286 568.457v-3.098c.646 1.018 1.298 1.78 1.96 2.285 1.184.888 2.57 1.333 4.153 1.333 2.664 0 4.44-1.164 5.31-3.478.56.917 1.144 1.608 1.757 2.092 1.194.923 2.66 1.386 4.395 1.386 2.142 0 3.75-.686 4.823-2.056.71-.908 1.065-2.244 1.065-3.995V550.7h-2.243v11.632c0 1.417-.19 2.43-.562 3.045-.71 1.138-1.942 1.71-3.7 1.71-2.096 0-3.58-.81-4.45-2.43-.464-.852-.693-2.103-.693-3.747V550.7h-2.246v11.577c0 1.382-.17 2.387-.503 3.012-.636 1.195-1.822 1.796-3.553 1.796-1.025 0-1.95-.23-2.768-.7-.824-.47-1.454-1.123-1.887-1.963-.49-.936-.735-2.253-.735-3.943v-9.78h-2.24v17.757h2.116zM245.464 556.554c-.237-1.142-.6-2.105-1.1-2.9-1.46-2.318-3.71-3.475-6.754-3.475-2.765 0-4.91.947-6.43 2.843-1.36 1.68-2.04 3.798-2.04 6.358 0 2.86.803 5.18 2.414 6.968 1.572 1.754 3.575 2.63 6 2.63 1.96 0 3.633-.578 5.03-1.73 1.084-.912 1.877-2.017 2.37-3.324.495-1.303.73-2.92.717-4.866h-14.248c.024-1.194.177-2.18.448-2.972.925-2.735 2.85-4.104 5.78-4.104 1.482 0 2.704.384 3.652 1.16.964.773 1.618 1.91 1.994 3.412h2.168zm-2.07 4.3c-.08 1.503-.435 2.75-1.07 3.748-1.124 1.715-2.732 2.574-4.828 2.574-1.705 0-3.08-.538-4.12-1.617-1.044-1.084-1.69-2.652-1.954-4.705h11.97zM257.207 568.726v-2.197c-.276.01-.468.02-.583.02-1.957 0-3.527-.663-4.71-1.983-.635-.71-1.066-1.517-1.294-2.432-.218-.91-.335-2.306-.335-4.178V550.7h-2.245v17.757h2.12v-4.252c1.28 3.076 3.627 4.58 7.047 4.52" fill="#fff"/></g><path d="M293.863 17.41h-3.702v-5.738h3.703v5.74zm0 34.818h-3.702V22.93h3.703v29.298z" fill="#fff"/><g clip-path="url(#g)" transform="matrix(1.64995 0 0 -1.64995 -135.227 960.855)"><path d="M278.87 557.042c-.234-1.623-.784-2.98-1.644-4.072-1.468-1.86-3.513-2.79-6.13-2.79-2.932 0-5.174 1.064-6.72 3.186-1.196 1.648-1.794 3.658-1.794 6.053 0 3.068.854 5.463 2.567 7.183 1.566 1.583 3.578 2.375 6.034 2.375 2.135 0 3.862-.542 5.187-1.622 1.33-1.078 2.117-2.587 2.354-4.52h-2.282c-.224 1.114-.62 2-1.184 2.65-.97 1.126-2.32 1.69-4.053 1.69-2.182 0-3.84-.84-4.972-2.52-.915-1.367-1.37-3.066-1.37-5.095 0-2.123.487-3.868 1.456-5.22 1.11-1.57 2.67-2.358 4.678-2.358 1.546 0 2.808.442 3.787 1.33.978.89 1.586 2.133 1.822 3.73h2.263zM296.747 552.503v-1.677c-.566-.178-1.17-.268-1.816-.268-.873 0-1.484.243-1.842.73-.355.486-.53 1.327-.53 2.527-.586-.9-1.208-1.59-1.858-2.07-1.366-1.046-3.077-1.567-5.125-1.567-1.777 0-3.187.398-4.222 1.19-1.2.898-1.797 2.183-1.797 3.854 0 2.327 1.163 3.923 3.478 4.79.66.252 1.296.42 1.892.512.603.09 2.12.25 4.58.48 1.122.106 1.887.32 2.31.645.417.323.625.872.625 1.64 0 1.338-.385 2.327-1.155 2.95-.773.625-1.996.936-3.67.936-1.58 0-2.775-.34-3.585-1.018-.814-.676-1.293-1.744-1.443-3.192h-2.147c.087 1.917.774 3.4 2.066 4.443 1.292 1.047 3.077 1.567 5.375 1.567 2.52 0 4.393-.606 5.63-1.82.443-.455.75-.98.905-1.566.156-.585.237-1.534.237-2.843l-.024-5.186c.016-2.758.045-4.24.095-4.447.112-.49.492-.738 1.138-.738.266 0 .558.043.887.128m-4.306 7.866c-.385-.31-.826-.532-1.334-.658-.502-.126-1.756-.32-3.748-.584-1.982-.262-3.392-.665-4.21-1.205-.873-.576-1.308-1.417-1.308-2.52 0-1.05.395-1.884 1.18-2.514.784-.63 1.822-.945 3.12-.945.986 0 1.927.183 2.827.547.898.37 1.637.874 2.224 1.522.837.926 1.25 2.083 1.25 3.473v2.882z" fill="#fff"/></g><path d="M263.318 12.032l-3.864 5.047h-3.968l1.645-5.048h6.188z" fill="#fff"/><g clip-path="url(#h)" transform="matrix(1.64995 0 0 -1.64995 -135.227 960.855)"><path d="M243.367 526.668c-.494.298-.805.885-.94 1.762-.727-.775-1.59-1.4-2.592-1.875-1.002-.478-2.138-.717-3.41-.717-1.357 0-2.506.45-3.46 1.337-.945.89-1.418 2.173-1.418 3.847v1.952l.037 6.803c0 .827-.23 1.49-.684 1.992-.455.5-1.262.763-2.435.786v.34c.132.123.337.233.618.322.287.085.695.18 1.212.28.626.125 1.068.224 1.33.3.39.124.804.324 1.244.597.364.202.72.354 1.055.454.335.097.834.15 1.483.15v-.3c-.258-.504-.39-1.98-.39-4.436v-1.314c-.023-1.654-.038-3.668-.038-6.05 0-1.677.18-2.86.546-3.548.366-.69 1.05-1.034 2.066-1.034 1.018 0 1.85.32 2.516.962.66.636 1.33 1.49 2.013 2.572.18.297.285.464.307.486v7.478c0 .828-.227 1.487-.68 1.988-.454.502-1.27.766-2.44.793v.34c.132.118.34.227.624.314.287.09.694.188 1.21.282.626.127 1.07.225 1.33.3.388.127.807.33 1.25.603.362.2.71.35 1.05.45.34.1.834.152 1.483.152v-.304c-.26-.5-.387-1.976-.387-4.43v-3.455c0-2.18.016-3.703.057-4.567.038-.86.122-1.595.254-2.196.1-.428.256-.726.446-.9.195-.173.476-.264.84-.264.212 0 .55.073 1.013.223.42.128.702.194.86.194.182 0 .313-.09.39-.266.078-.174.117-.362.117-.563 0-.278-.18-.55-.546-.827-.365-.277-.79-.513-1.285-.715-1.07-.5-2.02-.748-2.85-.748-.7 0-1.298.15-1.795.45M217.066 541.074c-1.146-1.115-1.717-2.66-1.717-4.638 0-1.055.14-2.082.43-3.085.284-1 .712-1.89 1.286-2.683.57-.79 1.29-1.424 2.147-1.895.858-.478 1.83-.713 2.924-.713.804 0 1.56.142 2.266.43.704.284 1.34.646 1.91 1.07.415.3.91.752 1.483 1.35.39.426.65.64.777.64.134 0 .218-.107.255-.317.04-.214.06-.46.06-.732-.028-.426-.15-.864-.37-1.32-.224-.445-.502-.796-.843-1.047-1.013-.778-2.003-1.354-2.963-1.728-.963-.376-2.134-.567-3.51-.567-1.612 0-3.02.253-4.215.753-1.194.5-2.173 1.19-2.922 2.07-.758.875-1.318 1.897-1.68 3.062-.366 1.16-.55 2.42-.55 3.773 0 1.304.242 2.518.723 3.643.48 1.126 1.177 2.112 2.087 2.95.914.84 2.016 1.49 3.32 1.954 1.298.46 2.73.696 4.29.696.596 0 1.235-.085 1.91-.246.68-.163 1.3-.4 1.872-.715.574-.31 1.044-.68 1.404-1.106.368-.427.546-.89.546-1.388 0-.278-.1-.55-.31-.827-.206-.278-.466-.52-.78-.734-.312-.21-.625-.378-.938-.503-.31-.128-.557-.187-.738-.187-.18 0-.358.06-.526.187-.172.125-.255.334-.255.634 0 .35-.06.71-.18 1.074-.112.36-.33.66-.642.882-.076.074-.155.14-.23.187-.342.25-.643.438-.92.564-.27.126-.592.187-.955.187-1.818 0-3.304-.554-4.447-1.67M266.572 537.053c-.153-.06-.453-.093-.898-.093h-12.836c-.024-.125-.037-.3-.037-.527 0-1.052.142-2.082.432-3.08.283-.997.715-1.9 1.283-2.686.573-.79 1.29-1.42 2.15-1.898.855-.476 1.83-.713 2.923-.713.807 0 1.563.145 2.265.432.702.287 1.34.642 1.91 1.07.443.324.99.825 1.64 1.504.493.523.806.79.935.79.13 0 .22-.132.276-.4.05-.258.08-.528.08-.805-.03-.4-.2-.855-.51-1.353-.314-.504-.664-.887-1.055-1.162-1.016-.78-2.004-1.354-2.968-1.73-.958-.376-2.132-.567-3.51-.567-1.612 0-3.018.256-4.213.753-1.2.5-2.173 1.19-2.928 2.07-.758.875-1.314 1.897-1.676 3.062-.363 1.16-.547 2.42-.547 3.773 0 2.727.883 4.96 2.655 6.686 1.762 1.73 4.21 2.595 7.33 2.595.678 0 1.438-.13 2.286-.377.846-.248 1.674-.665 2.475-1.237.807-.58 1.473-1.336 1.993-2.275.52-.938.778-2.055.778-3.362 0-.25-.077-.406-.234-.47m-3.9 1.71c.025.026.038.072.038.15v.112c-.03.104-.04.177-.04.228-.105.904-.512 1.695-1.226 2.386-.717.69-1.725 1.027-3.025 1.027-2.654 0-4.386-1.123-5.188-3.377-.03-.052-.042-.14-.042-.265 0-.124.013-.21.042-.262h9.44z" fill="#fff"/><path d="M266.71 525.838v.302c.65.296 1.173.763 1.58 1.39.403.625.605 1.313.605 2.067 0 2.628.013 4.294.04 4.993v3.833c0 .78-.04 1.378-.12 1.804-.075.427-.198.744-.367.958-.173.212-.405.36-.705.43-.3.076-.75.16-1.345.265h-.155v.34c.132.148.336.267.623.357.283.087.676.18 1.17.28.545.124.94.226 1.17.3.7.227 1.508.6 2.422 1.128.36.2.568.298.62.298.13 0 .216-.037.257-.11.04-.077.057-.188.057-.34v-1.88l.274.23c.806.694 1.613 1.246 2.417 1.632.807.388 1.884.584 3.24.584 1.715 0 3.047-.438 4-1.316.95-.88 1.422-2.194 1.422-3.944v-1.958c0-.95.02-1.864.062-2.74.033-.878.08-1.918.132-3.12l.12-1.914c.05-.83.262-1.548.64-2.158.38-.616.945-1.088 1.7-1.41v-.302c-1.69.126-3.162.19-4.41.19-1.25 0-2.587-.064-4.02-.19v.302c.652.322 1.183.776 1.6 1.352.415.575.64 1.242.663 1.995.055 1.9.078 3.33.078 4.278v3.792c0 1.506-.308 2.595-.934 3.272-.623.676-1.42 1.012-2.38 1.012-.884 0-1.803-.246-2.75-.73-.953-.492-1.57-1.036-1.854-1.635v-3.12c0-1.604.078-3.82.232-6.65.053-.83.27-1.547.646-2.157.376-.616.943-1.088 1.695-1.41v-.302c-1.693.126-3.16.19-4.41.19-1.243 0-2.584-.064-4.014-.19M284.766 543.14c.14.14.37.294.683.47.365.176.636.34.82.486.467.35.974.79 1.52 1.315.545.53 1.015 1.03 1.405 1.506.23.273.493.712.778 1.31.29.63.54.94.744.94.23 0 .38-.027.45-.09.062-.065.1-.196.1-.393 0-1.156-.027-2.68-.085-4.587h3.28v-1.76h-3.318v-.605c0-3.508.107-7.263.314-11.267.027-.5.21-.98.547-1.427.337-.454.768-.678 1.286-.678.546 0 1.225.2 2.032.598.388.175.65.265.78.265.36 0 .545-.184.545-.563 0-.527-.444-1.128-1.325-1.805-.886-.672-1.99-1.014-3.317-1.014-1.2 0-2.224.36-3.08 1.074-.864.713-1.29 1.822-1.29 3.322.05 2.533.08 6.326.08 11.385v.715h-3.086c-.05 0-.078.096-.078.3 0 .198.07.365.214.505" fill="#fff"/><path d="M307.345 526.234c-.468.263-.79.743-.974 1.44-.78-.5-1.585-.915-2.416-1.255-.833-.336-1.577-.506-2.225-.506-.65 0-1.298.114-1.932.34-.638.223-1.203.546-1.7.953-.49.418-.89.897-1.188 1.452-.297.547-.446 1.12-.446 1.724 0 .775.168 1.45.506 2.03.335.577.786 1.06 1.347 1.462.557.4 1.166.747 1.83 1.034.67.288 1.49.608 2.48.96 1.714.6 2.94 1.1 3.67 1.502v3.305c0 .777-.184 1.404-.55 1.88-.365.473-.804.712-1.328.712-.39 0-.788-.097-1.187-.283-.406-.184-.77-.44-1.092-.75-.328-.315-.588-.65-.783-1.018-.197-.36-.29-.716-.29-1.068 0-.15.038-.39.117-.713.075-.327.116-.563.116-.718 0-.197-.116-.38-.352-.54-.23-.17-.468-.246-.702-.246-.518 0-1.068.15-1.638.452-.886.447-1.328.975-1.328 1.575 0 .676.237 1.312.704 1.9.47.587 1.106 1.108 1.91 1.558.754.422 1.58.756 2.478 1 .893.232 1.802.35 2.716.35.778 0 1.427-.042 1.948-.13.52-.09.99-.276 1.4-.562.418-.288.74-.733.963-1.334.214-.6.326-1.412.326-2.443v-1.423c.026-2.733.13-5.788.31-9.17.027-.427.154-.725.37-.895.225-.178.53-.27.92-.27.21 0 .55.08 1.014.227.418.124.703.186.86.186.183 0 .314-.088.39-.263.077-.173.117-.36.117-.56 0-.283-.182-.556-.55-.832-.362-.27-.79-.51-1.282-.71-1.07-.5-2.02-.752-2.848-.752-.652 0-1.212.134-1.682.396m-1.09 9.447c-.287-.15-.636-.327-1.053-.526-1.537-.75-2.712-1.415-3.532-1.987-.816-.58-1.227-1.24-1.227-1.992 0-.705.252-1.364.76-1.974.504-.61 1.23-.92 2.163-.92.497.026.996.2 1.502.532.508.32.956.722 1.347 1.197.027 1.126.04 3.016.04 5.67M258.047 500.645l5.89 5.168c1.945 1.706 3.076 2.934 3.076 4.5 0 1.73-1.19 2.598-2.843 2.598-1.77 0-2.99-1.004-3.627-2.85l-1.857.503c.697 2.572 2.786 4.137 5.454 4.137 3.076 0 4.962-1.736 4.962-4.304 0-1.928-1.45-3.63-3.54-5.477l-2.205-1.93c-.522-.472-1.508-.975-1.508-.975s1.07.084 1.624.084h6.006v-1.704h-11.433v.25zM272.065 507.435c0 4.247 3.57 7.264 7.66 7.264 4.12 0 7.69-3.018 7.69-7.265 0-4.163-3.57-7.267-7.69-7.267-4.09 0-7.66 3.104-7.66 7.267m13.232 0c0 3.268-2.467 5.502-5.57 5.502-3.104 0-5.514-2.234-5.514-5.502 0-3.186 2.41-5.503 5.513-5.503 3.104 0 5.57 2.317 5.57 5.503" fill="#fff"/></g><path d="M347.19 114.763h-5.315v-2.765h8.713v23.23h-3.4v-20.465z" fill="#fff"/><g clip-path="url(#i)" transform="matrix(1.64995 0 0 -1.64995 -135.227 960.855)"><path d="M297.608 500.563l1.712.892c.754-1.286 2.002-2.18 4.09-2.18 2.466 0 4.09 1.62 4.09 3.97.002 2.374-1.42 3.91-4.176 3.91-2.002 0-3.162-.753-4.063-1.48l-.26.084v8.715h9.52V512.8h-7.75v-4.666c.64.39 1.567.726 2.933.726 3.538 0 5.947-2.347 5.947-5.617 0-3.296-2.496-5.728-6.24-5.728-2.9 0-4.903 1.343-5.802 3.047" fill="#fff"/></g></svg>