<?xml version="1.0" encoding="UTF-8" standalone="no"?>
<!-- Generator: Adobe Illustrator 21.1.0, SVG Export Plug-In . SVG Version: 6.00 Build 0)  -->

<svg
   xmlns:dc="http://purl.org/dc/elements/1.1/"
   xmlns:cc="http://creativecommons.org/ns#"
   xmlns:rdf="http://www.w3.org/1999/02/22-rdf-syntax-ns#"
   xmlns:svg="http://www.w3.org/2000/svg"
   xmlns="http://www.w3.org/2000/svg"
   xmlns:sodipodi="http://sodipodi.sourceforge.net/DTD/sodipodi-0.dtd"
   xmlns:inkscape="http://www.inkscape.org/namespaces/inkscape"
   version="1.1"
   id="Capa_1"
   x="0px"
   y="0px"
   viewBox="0 0 300 148.91044"
   xml:space="preserve"
   inkscape:version="0.48.5 r10040"
   width="100%"
   height="100%"
   sodipodi:docname="century_travel.svg"><metadata
     id="metadata85"><rdf:RDF><cc:Work
         rdf:about=""><dc:format>image/svg+xml</dc:format><dc:type
           rdf:resource="http://purl.org/dc/dcmitype/StillImage" /></cc:Work></rdf:RDF></metadata><defs
     id="defs83" /><sodipodi:namedview
     pagecolor="#ffffff"
     bordercolor="#666666"
     borderopacity="1"
     objecttolerance="10"
     gridtolerance="10"
     guidetolerance="10"
     inkscape:pageopacity="0"
     inkscape:pageshadow="2"
     inkscape:window-width="1366"
     inkscape:window-height="708"
     id="namedview81"
     showgrid="false"
     fit-margin-top="0"
     fit-margin-left="0"
     fit-margin-right="0"
     fit-margin-bottom="0"
     inkscape:zoom="1.6598985"
     inkscape:cx="122.80275"
     inkscape:cy="59.887906"
     inkscape:window-x="0"
     inkscape:window-y="27"
     inkscape:window-maximized="1"
     inkscape:current-layer="Capa_1" /><style
     type="text/css"
     id="style3">
	.st0{fill:#21356A;}
	.st1{fill:#EEA820;}
	.st2{fill:#FFFFFF;}
</style><g
     id="g5"
     transform="matrix(1.537673,0,0,1.537673,-1.537673,-2.4602768)"><path
       class="st0"
       d="m 33.6,87.5 c 0.1,-0.6 0.4,-1.1 0.8,-1.4 0.4,-0.3 0.8,-0.6 1.2,-0.7 0.4,-0.1 0.8,-0.1 1.1,0 0.3,0.1 0.4,0.3 0.3,0.6 -0.1,0.4 -0.2,0.9 -0.3,1.6 -0.1,0.7 -0.2,1.3 -0.3,2 -0.1,0.7 -0.1,1.3 -0.2,1.9 -0.1,0.6 -0.1,1.1 -0.1,1.3 0.1,-0.4 0.2,-0.8 0.4,-1.2 0.2,-0.4 0.3,-0.8 0.5,-1.2 0.2,-0.4 0.4,-0.7 0.6,-1.1 0.2,-0.3 0.4,-0.6 0.5,-0.8 0.2,-0.3 0.5,-0.5 0.9,-0.6 0.4,-0.1 0.8,-0.2 1.1,-0.2 0.3,0 0.6,0.1 0.8,0.3 0.2,0.2 0.3,0.5 0.1,0.8 0.1,0.2 0,0.5 0,1 -0.1,0.5 -0.1,1 -0.2,1.5 0.2,-0.4 0.4,-0.8 0.7,-1.3 0.3,-0.5 0.5,-0.9 0.8,-1.3 0.3,-0.4 0.5,-0.8 0.8,-1.2 0.2,-0.4 0.4,-0.6 0.6,-0.8 0.2,-0.3 0.5,-0.5 0.9,-0.7 0.4,-0.2 0.7,-0.3 1.1,-0.3 0.4,0 0.7,0.1 0.9,0.3 0.2,0.2 0.4,0.5 0.3,0.9 0,0.2 -0.1,0.5 -0.1,1 -0.1,0.5 -0.2,1 -0.3,1.6 -0.1,0.6 -0.2,1.2 -0.3,1.9 -0.1,0.7 -0.2,1.2 -0.2,1.8 -0.1,0.5 -0.1,1 -0.1,1.3 0,0.4 0,0.5 0.1,0.5 0.2,0 0.4,-0.2 0.7,-0.6 0.3,-0.4 0.5,-0.8 0.8,-1.4 0.3,-0.5 0.5,-1.1 0.7,-1.6 0.2,-0.6 0.4,-1 0.5,-1.4 0.1,-0.2 0.2,-0.4 0.4,-0.5 0.2,-0.1 0.3,-0.1 0.5,-0.1 0.2,0 0.3,0.1 0.4,0.3 0.1,0.1 0.1,0.3 0.1,0.6 -0.1,0.4 -0.3,0.9 -0.6,1.6 -0.3,0.7 -0.6,1.4 -1,2.1 -0.4,0.7 -0.9,1.3 -1.3,1.9 -0.5,0.6 -1,0.9 -1.5,1 -0.6,0.1 -1,0 -1.4,-0.2 -0.3,-0.2 -0.6,-0.6 -0.7,-1.1 -0.1,-0.5 -0.2,-1 -0.3,-1.6 0,-0.6 0,-1.2 0,-1.7 0.1,-0.6 0.1,-1.1 0.2,-1.5 0.1,-0.4 0.2,-0.8 0.2,-1 -0.1,0.1 -0.3,0.3 -0.6,0.8 -0.3,0.5 -0.6,1 -0.8,1.5 -0.3,0.6 -0.6,1.1 -0.8,1.6 -0.2,0.5 -0.4,0.9 -0.5,1.1 v 0 c -0.1,0.2 -0.2,0.3 -0.4,0.6 -0.2,0.2 -0.4,0.4 -0.7,0.5 C 39.5,96 39.2,96 39,96 38.8,96 38.6,95.9 38.5,95.6 38.4,95.3 38.4,95 38.3,94.5 c 0,-0.5 0,-0.9 0,-1.4 0,-0.4 0,-0.9 0,-1.2 0,-0.4 0,-0.6 0,-0.7 -0.1,0.1 -0.3,0.3 -0.4,0.7 -0.2,0.4 -0.3,0.9 -0.5,1.5 -0.2,0.5 -0.3,1.1 -0.5,1.7 -0.1,0.6 -0.2,1 -0.3,1.3 0,0.4 -0.2,0.6 -0.5,0.8 -0.3,0.2 -0.6,0.3 -1,0.3 -0.4,0 -0.7,-0.1 -1,-0.3 -0.3,-0.2 -0.4,-0.5 -0.4,-0.9 0,-0.5 0,-1.1 0,-1.9 0,-0.8 -0.1,-1.6 -0.1,-2.4 0,-0.8 -0.1,-1.7 -0.1,-2.5 -0.1,-0.7 0,-1.4 0.1,-2"
       id="path7"
       inkscape:connector-curvature="0"
       style="fill:#21356a" /><path
       class="st0"
       d="m 51.9,89.3 c 0.3,0.1 0.5,0.2 0.7,0.4 0.2,0.2 0.4,0.4 0.5,0.6 0.2,-0.2 0.3,-0.3 0.6,-0.3 0.2,0 0.5,0 0.7,0.1 0.2,0.1 0.4,0.2 0.5,0.4 0.1,0.2 0.2,0.4 0.1,0.7 -0.1,0.3 -0.2,0.8 -0.2,1.3 -0.1,0.5 -0.1,1 -0.1,1.5 0,0.5 0,0.9 0,1.3 0.1,0.3 0.2,0.5 0.3,0.5 0.1,0 0.3,-0.2 0.4,-0.4 0.2,-0.3 0.3,-0.7 0.5,-1.1 0.2,-0.4 0.3,-0.8 0.4,-1.2 0.1,-0.4 0.2,-0.7 0.3,-0.9 0.1,-0.2 0.2,-0.3 0.3,-0.4 0.1,-0.1 0.3,-0.1 0.4,-0.1 0.1,0 0.2,0.1 0.3,0.2 0.1,0.1 0.1,0.3 0,0.4 0,0.1 -0.1,0.3 -0.2,0.7 -0.1,0.3 -0.2,0.7 -0.3,1.1 -0.1,0.4 -0.3,0.8 -0.5,1.2 -0.2,0.4 -0.4,0.8 -0.6,1.1 -0.2,0.3 -0.5,0.6 -0.8,0.7 -0.3,0.2 -0.6,0.2 -1,0.1 -0.6,-0.2 -1,-0.5 -1.2,-1 -0.2,0.5 -0.4,0.9 -0.6,1.3 -0.3,0.4 -0.6,0.7 -1,0.8 -0.4,0.1 -0.8,0.2 -1.1,0.1 -0.6,-0.2 -1,-0.5 -1.3,-1 -0.3,-0.5 -0.6,-1.2 -0.7,-1.9 -0.1,-0.7 -0.1,-1.5 0,-2.2 0.1,-0.8 0.3,-1.5 0.6,-2.1 0.3,-0.6 0.7,-1.1 1.2,-1.5 0.5,-0.4 1.1,-0.5 1.8,-0.4 m 0.8,2.9 c 0,-0.3 -0.1,-0.6 -0.2,-1 -0.1,-0.3 -0.3,-0.5 -0.5,-0.5 -0.3,-0.1 -0.6,0.1 -0.8,0.3 -0.2,0.3 -0.4,0.7 -0.6,1.1 -0.2,0.5 -0.3,1 -0.3,1.5 -0.1,0.6 -0.1,1.1 -0.1,1.6 0,0.5 0.1,0.9 0.2,1.3 0.1,0.4 0.3,0.5 0.6,0.6 0.2,0 0.5,-0.1 0.7,-0.4 0.2,-0.3 0.4,-0.7 0.6,-1.2 0.2,-0.5 0.3,-1 0.4,-1.6 0,-0.6 0,-1.1 0,-1.7"
       id="path9"
       inkscape:connector-curvature="0"
       style="fill:#21356a" /><path
       class="st0"
       d="m 57.6,92.5 c 0,0.2 -0.1,0.3 -0.2,0.3 -0.1,0.1 -0.3,0.1 -0.4,0.1 -0.1,0 -0.2,-0.1 -0.3,-0.2 -0.1,-0.1 -0.1,-0.3 0,-0.4 l 0.2,-0.5 c -0.2,-0.2 -0.3,-0.4 -0.3,-0.6 0,-0.2 0,-0.5 0.1,-0.7 0.1,-0.2 0.2,-0.4 0.4,-0.5 0.2,-0.1 0.4,-0.2 0.6,-0.2 0.4,0 0.6,0.1 0.7,0.5 0,0.3 0,0.6 -0.2,1 0.1,0.1 0.3,0.1 0.6,0 0.3,0 0.5,-0.1 0.7,-0.1 0.2,0 0.4,0 0.6,0.1 0.2,0.1 0.2,0.3 0.1,0.7 -0.1,0.3 -0.2,0.8 -0.2,1.2 -0.1,0.5 -0.1,0.9 -0.2,1.4 0,0.4 0,0.8 0,1.1 0,0.3 0.1,0.5 0.3,0.5 0.1,0 0.3,-0.2 0.5,-0.5 0.2,-0.3 0.4,-0.7 0.6,-1.2 0.2,-0.4 0.4,-0.9 0.5,-1.3 0.2,-0.5 0.2,-0.8 0.3,-1 0,-0.2 0.1,-0.3 0.2,-0.4 0.1,-0.1 0.3,-0.1 0.4,-0.1 0.1,0 0.2,0.1 0.3,0.2 0.1,0.1 0.1,0.3 0.1,0.4 0,0.1 -0.1,0.3 -0.1,0.6 -0.1,0.3 -0.2,0.7 -0.3,1.1 -0.1,0.4 -0.3,0.8 -0.5,1.2 -0.2,0.4 -0.4,0.8 -0.7,1.2 -0.3,0.4 -0.6,0.7 -0.9,0.9 -0.3,0.2 -0.7,0.3 -1.1,0.3 -0.5,0 -0.8,-0.2 -1,-0.6 -0.2,-0.4 -0.3,-0.9 -0.4,-1.4 -0.1,-0.6 0,-1.1 0,-1.8 0.1,-0.6 0.2,-1.2 0.4,-1.6 -0.1,0 -0.2,0 -0.3,0 h -0.3 c -0.2,0.1 -0.2,0.2 -0.2,0.3"
       id="path11"
       inkscape:connector-curvature="0"
       style="fill:#21356a" /><path
       class="st0"
       d="m 66.5,92.2 c 0,0.4 -0.2,0.7 -0.4,0.9 -0.2,0.2 -0.4,0.4 -0.6,0.5 -0.2,0.1 -0.4,0.1 -0.6,0 -0.2,-0.1 -0.2,-0.2 -0.2,-0.4 0,-0.2 0.1,-0.4 0.1,-0.8 0.1,-0.3 0.1,-0.7 0.1,-1.1 0,-0.4 0,-0.7 0,-0.9 0,-0.3 -0.1,-0.4 -0.2,-0.4 -0.1,0 -0.2,0.2 -0.4,0.4 -0.1,0.3 -0.3,0.6 -0.4,1 -0.1,0.4 -0.2,0.8 -0.3,1.3 -0.1,0.5 -0.1,0.9 -0.1,1.3 0,0.4 0.1,0.8 0.2,1.1 0.1,0.3 0.3,0.5 0.6,0.6 0.5,0.1 0.9,0 1.3,-0.3 0.4,-0.3 0.7,-0.7 1.1,-1.2 0.3,-0.5 0.6,-0.9 0.8,-1.4 0.2,-0.5 0.3,-0.8 0.4,-1 0.1,-0.2 0.2,-0.3 0.3,-0.3 0.1,-0.1 0.2,-0.1 0.4,-0.1 0.1,0 0.2,0.1 0.3,0.2 0.1,0.1 0.1,0.2 0.1,0.4 0,0.1 -0.1,0.3 -0.2,0.6 -0.1,0.3 -0.2,0.6 -0.4,1 -0.2,0.4 -0.4,0.8 -0.6,1.2 -0.2,0.4 -0.5,0.8 -0.9,1.1 -0.3,0.3 -0.7,0.6 -1.2,0.8 -0.4,0.2 -0.9,0.3 -1.5,0.3 -0.7,0 -1.2,-0.3 -1.6,-0.7 -0.4,-0.4 -0.7,-0.9 -0.8,-1.6 -0.1,-0.6 -0.2,-1.3 -0.1,-2 0.1,-0.7 0.3,-1.4 0.5,-2 0.3,-0.6 0.6,-1.1 1,-1.5 0.4,-0.4 0.8,-0.6 1.3,-0.6 0.7,0 1.3,0.3 1.6,1 0.3,1 0.5,1.7 0.4,2.6"
       id="path13"
       inkscape:connector-curvature="0"
       style="fill:#21356a" /><path
       class="st0"
       d="m 71.3,89.3 c 0.3,0.1 0.5,0.2 0.7,0.4 0.2,0.2 0.4,0.4 0.5,0.6 0.2,-0.2 0.4,-0.3 0.6,-0.3 0.2,0 0.5,0 0.7,0.1 0.2,0.1 0.4,0.2 0.5,0.4 0.1,0.2 0.2,0.4 0.1,0.7 -0.1,0.3 -0.2,0.8 -0.2,1.3 -0.1,0.5 -0.1,1 -0.1,1.5 0,0.5 0,0.9 0,1.3 0,0.3 0.1,0.5 0.3,0.5 0.1,0 0.3,-0.2 0.4,-0.4 0.2,-0.3 0.3,-0.7 0.5,-1.1 0.2,-0.4 0.3,-0.8 0.4,-1.2 0.1,-0.4 0.2,-0.7 0.3,-0.9 0.1,-0.2 0.2,-0.3 0.3,-0.4 0.1,-0.1 0.3,-0.1 0.4,-0.1 0.1,0 0.2,0.1 0.3,0.2 0.1,0.1 0.1,0.3 0,0.4 0,0.1 -0.1,0.3 -0.2,0.7 -0.1,0.3 -0.2,0.7 -0.3,1.1 -0.1,0.4 -0.3,0.8 -0.5,1.2 -0.2,0.4 -0.4,0.8 -0.6,1.1 -0.2,0.3 -0.5,0.6 -0.8,0.7 -0.3,0.2 -0.6,0.2 -1,0.1 -0.6,-0.2 -1,-0.5 -1.2,-1 -0.2,0.5 -0.4,0.9 -0.6,1.3 -0.3,0.4 -0.6,0.7 -1,0.8 -0.4,0.1 -0.8,0.2 -1.1,0.1 -0.6,-0.2 -1,-0.5 -1.3,-1 -0.3,-0.5 -0.5,-1.2 -0.7,-1.9 -0.1,-0.7 -0.1,-1.5 0,-2.2 0.1,-0.8 0.3,-1.5 0.6,-2.1 0.3,-0.6 0.7,-1.1 1.2,-1.5 0.5,-0.4 1.1,-0.5 1.8,-0.4 m 0.7,2.9 c 0,-0.3 -0.1,-0.6 -0.2,-1 -0.1,-0.3 -0.3,-0.5 -0.5,-0.5 -0.3,-0.1 -0.6,0.1 -0.8,0.3 -0.2,0.3 -0.4,0.7 -0.6,1.1 -0.2,0.5 -0.3,1 -0.3,1.5 -0.1,0.6 -0.1,1.1 -0.1,1.6 0,0.5 0.1,0.9 0.2,1.3 0.1,0.4 0.3,0.5 0.6,0.6 0.3,0 0.5,-0.1 0.7,-0.4 0.2,-0.3 0.4,-0.7 0.6,-1.2 0.2,-0.5 0.3,-1 0.4,-1.6 0.1,-0.6 0.1,-1.1 0,-1.7"
       id="path15"
       inkscape:connector-curvature="0"
       style="fill:#21356a" /><path
       class="st0"
       d="m 76.1,90.3 c 0.1,-0.4 0.3,-0.8 0.6,-1 0.3,-0.2 0.6,-0.4 0.9,-0.5 0.3,-0.1 0.6,-0.1 0.8,0 0.2,0.1 0.3,0.2 0.2,0.4 -0.1,0.3 -0.1,0.6 -0.2,1.1 -0.1,0.5 -0.1,0.9 -0.2,1.4 -0.1,0.5 -0.1,0.9 -0.1,1.4 0,0.4 -0.1,0.8 -0.1,0.9 0.1,-0.3 0.2,-0.5 0.3,-0.8 0.1,-0.3 0.2,-0.6 0.4,-0.8 0.1,-0.3 0.3,-0.5 0.4,-0.8 0.1,-0.2 0.3,-0.4 0.4,-0.6 0.1,-0.2 0.3,-0.3 0.6,-0.5 0.3,-0.1 0.5,-0.2 0.8,-0.2 0.2,0 0.4,0.1 0.6,0.2 0.2,0.1 0.2,0.3 0.1,0.6 0,0.1 -0.1,0.3 -0.1,0.7 0,0.3 -0.1,0.7 -0.1,1.1 0.1,-0.3 0.3,-0.6 0.5,-0.9 0.2,-0.3 0.4,-0.6 0.6,-0.9 0.2,-0.3 0.4,-0.6 0.5,-0.8 0.2,-0.3 0.3,-0.4 0.4,-0.6 0.1,-0.2 0.3,-0.3 0.6,-0.5 0.3,-0.1 0.5,-0.2 0.8,-0.2 0.3,0 0.5,0.1 0.6,0.2 0.2,0.1 0.2,0.3 0.2,0.6 0,0.1 -0.1,0.4 -0.1,0.7 0,0.3 -0.1,0.7 -0.2,1.1 -0.1,0.4 -0.1,0.9 -0.2,1.3 -0.1,0.5 -0.1,0.9 -0.2,1.3 0,0.4 -0.1,0.7 -0.1,0.9 0,0.3 0,0.4 0.1,0.4 0.1,0 0.3,-0.1 0.5,-0.4 0.2,-0.3 0.4,-0.6 0.6,-1 0.2,-0.4 0.4,-0.8 0.5,-1.2 0.2,-0.4 0.3,-0.7 0.4,-1 0.1,-0.2 0.1,-0.3 0.3,-0.4 0.1,-0.1 0.3,-0.1 0.4,-0.1 0.1,0 0.2,0.1 0.3,0.2 0.1,0.1 0.1,0.2 0.1,0.4 -0.1,0.3 -0.2,0.7 -0.4,1.1 -0.2,0.5 -0.4,1 -0.7,1.5 -0.3,0.5 -0.6,1 -1,1.4 -0.3,0.4 -0.7,0.6 -1.1,0.7 -0.4,0.1 -0.7,0 -1,-0.1 -0.2,-0.2 -0.4,-0.4 -0.5,-0.7 -0.1,-0.3 -0.2,-0.7 -0.2,-1.1 0,-0.4 0,-0.8 0,-1.2 0,-0.4 0.1,-0.8 0.1,-1.1 0.1,-0.3 0.1,-0.6 0.2,-0.7 -0.1,0 -0.2,0.2 -0.4,0.6 -0.2,0.3 -0.4,0.7 -0.6,1.1 -0.2,0.4 -0.4,0.8 -0.6,1.2 -0.2,0.4 -0.3,0.6 -0.3,0.8 v 0 c 0,0.1 -0.1,0.2 -0.3,0.4 -0.1,0.1 -0.3,0.3 -0.5,0.3 -0.2,0.1 -0.4,0.1 -0.5,0.1 -0.2,0 -0.3,-0.1 -0.3,-0.3 -0.1,-0.2 -0.1,-0.5 -0.1,-0.8 0,-0.3 0,-0.7 0,-1 0,-0.3 0,-0.6 0,-0.9 0,-0.3 0,-0.4 0,-0.5 -0.1,0 -0.2,0.2 -0.3,0.5 -0.1,0.3 -0.2,0.7 -0.4,1 -0.1,0.4 -0.2,0.8 -0.3,1.2 -0.1,0.4 -0.2,0.7 -0.2,1 0,0.3 -0.2,0.4 -0.4,0.6 -0.2,0.1 -0.5,0.2 -0.7,0.2 -0.3,0 -0.5,-0.1 -0.7,-0.2 -0.2,-0.1 -0.3,-0.3 -0.3,-0.6 0,-0.3 0,-0.8 0,-1.3 0,-0.5 -0.1,-1.1 -0.1,-1.7 0,-0.6 0,-1.2 0,-1.8 0,-0.6 -0.3,-1 -0.3,-1.4"
       id="path17"
       inkscape:connector-curvature="0"
       style="fill:#21356a" /><path
       class="st0"
       d="m 89.3,96.4 c -0.7,0 -1.3,-0.2 -1.7,-0.5 -0.4,-0.4 -0.7,-0.8 -0.9,-1.4 -0.2,-0.5 -0.2,-1.1 -0.1,-1.8 0.1,-0.6 0.2,-1.2 0.5,-1.8 0.3,-0.5 0.6,-1 1,-1.3 0.4,-0.3 0.9,-0.5 1.5,-0.5 0.7,0 1.2,0.2 1.7,0.6 0.4,0.4 0.7,0.8 0.9,1.4 0.2,0.5 0.3,1.1 0.2,1.7 0,0.6 -0.2,1.2 -0.4,1.7 -0.3,0.5 -0.6,1 -1.1,1.3 -0.4,0.5 -0.9,0.6 -1.6,0.6 m 0.4,-1.3 c 0.2,0 0.4,-0.1 0.5,-0.3 0.1,-0.2 0.2,-0.5 0.3,-0.9 0.1,-0.4 0.1,-0.8 0.1,-1.2 0,-0.4 0,-0.8 -0.1,-1.2 -0.1,-0.4 -0.2,-0.7 -0.4,-0.9 -0.2,-0.3 -0.3,-0.4 -0.5,-0.4 -0.2,0 -0.4,0.1 -0.5,0.3 -0.1,0.2 -0.2,0.5 -0.3,0.9 -0.1,0.3 -0.1,0.7 -0.1,1.1 0,0.4 0,0.8 0.1,1.2 0.1,0.4 0.2,0.7 0.4,0.9 0.1,0.4 0.3,0.5 0.5,0.5"
       id="path19"
       inkscape:connector-curvature="0"
       style="fill:#21356a" /><path
       class="st0"
       d="m 97.6,89.6 c 0.3,-0.1 0.5,-0.1 0.8,0 0.2,0.1 0.4,0.3 0.6,0.6 0.1,0.2 0.2,0.5 0.1,0.8 0,0.3 -0.2,0.4 -0.6,0.5 -0.3,0.1 -0.6,0.2 -1,0.2 -0.3,0.1 -0.7,0.1 -1,0.2 -0.3,0.1 -0.5,0.1 -0.7,0.2 -0.2,0.1 -0.3,0.1 -0.4,0.1 0,0 0.2,0.1 0.6,0.2 0.4,0.1 0.8,0.3 1.2,0.5 0.4,0.2 0.8,0.6 1.2,1 0.3,0.4 0.5,0.9 0.5,1.5 0,0.7 -0.2,1.2 -0.7,1.6 -0.5,0.4 -1,0.7 -1.6,0.8 -0.4,0.1 -0.8,0.1 -1.1,0 -0.4,-0.1 -0.7,-0.2 -1,-0.4 -0.3,-0.2 -0.5,-0.4 -0.7,-0.8 -0.2,-0.3 -0.3,-0.7 -0.3,-1.1 0,-0.4 0.1,-0.7 0.4,-0.9 0.2,-0.2 0.5,-0.3 0.8,-0.4 0.3,-0.1 0.5,0 0.7,0.1 0.2,0.1 0.3,0.3 0.3,0.6 -0.1,0.6 -0.1,1 0.1,1.3 0.2,0.3 0.3,0.4 0.5,0.4 0.2,0 0.4,-0.1 0.5,-0.2 0.1,-0.1 0.2,-0.3 0.2,-0.5 0,-0.2 0,-0.5 -0.1,-0.8 C 96.8,94.8 96.6,94.5 96.4,94.2 96.2,94 96,93.7 95.7,93.5 95.4,93.3 95.2,93.1 94.9,93 94.6,92.9 94.4,92.7 94.1,92.7 93.9,92.6 93.6,92.5 93.5,92.5 93.3,92.5 93.2,92.3 93.1,92.1 93,91.9 93,91.7 93,91.5 c 0,-0.2 0.1,-0.4 0.2,-0.6 0.1,-0.2 0.4,-0.3 0.6,-0.3 0.6,0 1.2,-0.1 1.9,-0.3 0.8,-0.1 1.4,-0.4 1.9,-0.7"
       id="path21"
       inkscape:connector-curvature="0"
       style="fill:#21356a" /><path
       class="st0"
       d="m 105.4,87.7 c 0,-0.1 0,-0.3 0,-0.4 0,-0.1 0,-0.2 0,-0.3 0,-0.5 0.1,-0.8 0.4,-1 0.3,-0.2 0.5,-0.3 0.8,-0.2 0.3,0 0.5,0.1 0.8,0.3 0.2,0.2 0.3,0.4 0.2,0.7 l -0.1,0.8 h 0.7 c 0.4,0 0.6,0.1 0.8,0.2 0.2,0.1 0.2,0.3 0.2,0.4 0,0.1 -0.1,0.3 -0.3,0.4 -0.2,0.1 -0.4,0.2 -0.7,0.2 h -0.9 c -0.1,0.7 -0.1,1.5 -0.2,2.3 -0.1,0.8 -0.1,1.6 -0.1,2.4 0,0.7 0,1.4 0,1.9 0,0.5 0.1,0.7 0.3,0.7 0.1,0 0.3,-0.2 0.5,-0.5 0.2,-0.3 0.4,-0.7 0.6,-1.2 0.2,-0.5 0.4,-0.9 0.6,-1.3 0.2,-0.4 0.3,-0.7 0.4,-0.9 0,-0.2 0.1,-0.3 0.3,-0.3 0.1,-0.1 0.3,-0.1 0.4,-0.1 0.1,0 0.2,0.1 0.3,0.2 0.1,0.1 0.1,0.2 0,0.4 -0.1,0.4 -0.3,0.9 -0.5,1.5 -0.2,0.6 -0.4,1.2 -0.7,1.8 -0.3,0.6 -0.6,1.1 -1,1.5 -0.4,0.4 -0.9,0.6 -1.4,0.6 -0.4,0 -0.7,-0.1 -0.9,-0.4 -0.2,-0.3 -0.4,-0.7 -0.5,-1.1 -0.1,-0.5 -0.2,-1 -0.2,-1.6 0,-0.6 0,-1.3 0,-1.9 0,-0.7 0.1,-1.3 0.1,-2 0.1,-0.7 0.1,-1.3 0.1,-1.8 h -0.7 c -0.3,0 -0.5,-0.1 -0.7,-0.2 -0.2,-0.1 -0.3,-0.2 -0.3,-0.4 0,-0.1 0.1,-0.3 0.2,-0.4 0.1,-0.1 0.4,-0.2 0.8,-0.2 h 0.7 z"
       id="path23"
       inkscape:connector-curvature="0"
       style="fill:#21356a" /><path
       class="st0"
       d="m 109.4,90.4 c 0,-0.3 0.1,-0.6 0.4,-0.7 0.2,-0.2 0.5,-0.3 0.8,-0.3 0.3,0 0.6,0 0.8,0.1 0.2,0.1 0.3,0.3 0.3,0.5 0,0.6 -0.1,1.3 -0.2,1.9 -0.1,0.7 -0.2,1.3 -0.2,1.9 -0.1,0.6 -0.1,1.1 -0.1,1.5 0,0.4 0,0.6 0.1,0.6 0.1,0 0.2,0 0.3,-0.2 0.1,-0.2 0.2,-0.4 0.3,-0.7 0.1,-0.3 0.2,-0.7 0.4,-1 0.1,-0.4 0.3,-0.8 0.4,-1.2 0.1,-0.4 0.2,-0.8 0.3,-1.1 0.1,-0.3 0.2,-0.6 0.3,-0.8 0,-0.3 0.1,-0.5 0.4,-0.5 0.2,-0.1 0.5,-0.1 0.8,0 0.3,0.1 0.5,0.2 0.7,0.4 0.2,0.2 0.3,0.3 0.3,0.5 -0.1,0.3 -0.2,0.8 -0.2,1.3 -0.1,0.5 -0.1,1 -0.1,1.5 0,0.5 0,0.9 0,1.2 0,0.3 0.2,0.5 0.3,0.5 0.1,0 0.2,-0.2 0.4,-0.4 0.2,-0.3 0.3,-0.7 0.5,-1.1 0.2,-0.4 0.3,-0.8 0.4,-1.2 0.1,-0.4 0.2,-0.7 0.3,-0.9 0,-0.2 0.1,-0.3 0.3,-0.4 0.1,-0.1 0.3,-0.1 0.4,-0.1 0.1,0 0.2,0.1 0.3,0.2 0.1,0.1 0.1,0.3 0,0.4 0,0.2 -0.1,0.4 -0.2,0.9 -0.1,0.4 -0.3,0.9 -0.5,1.4 -0.2,0.5 -0.4,1 -0.7,1.4 -0.3,0.5 -0.6,0.8 -0.9,1 -0.2,0.1 -0.4,0.2 -0.7,0.2 -0.3,0 -0.5,-0.1 -0.8,-0.2 -0.2,-0.1 -0.5,-0.3 -0.6,-0.6 -0.2,-0.2 -0.3,-0.5 -0.4,-0.9 -0.1,-0.3 -0.1,-0.6 -0.1,-1 -0.2,0.5 -0.4,1.1 -0.6,1.5 -0.2,0.5 -0.5,0.9 -0.8,1.2 -0.2,0.2 -0.4,0.3 -0.7,0.4 -0.3,0 -0.5,0 -0.8,-0.1 -0.2,-0.1 -0.4,-0.3 -0.6,-0.5 -0.2,-0.2 -0.3,-0.5 -0.4,-0.8 -0.1,-0.3 -0.1,-0.7 -0.1,-1.1 0,-0.4 0,-0.9 0,-1.4 0,-0.5 0.1,-1.1 0.1,-1.6 0.1,-0.6 0.1,-1.1 0.1,-1.7"
       id="path25"
       inkscape:connector-curvature="0"
       style="fill:#21356a" /><path
       class="st0"
       d="m 127.1,84.7 c 0,-0.5 0.1,-0.8 0.4,-1 0.3,-0.2 0.5,-0.3 0.8,-0.2 0.3,0 0.5,0.1 0.8,0.3 0.2,0.2 0.3,0.4 0.2,0.8 0,0.2 -0.1,0.7 -0.2,1.3 -0.1,0.6 -0.2,1.4 -0.2,2.2 -0.1,0.8 -0.2,1.7 -0.2,2.6 -0.1,0.9 -0.1,1.7 -0.1,2.5 0,0.8 0,1.4 0.1,1.9 0.1,0.5 0.2,0.7 0.4,0.7 0.2,0 0.3,-0.2 0.5,-0.5 0.2,-0.3 0.4,-0.7 0.5,-1.1 0.2,-0.4 0.3,-0.9 0.4,-1.3 0.1,-0.4 0.2,-0.7 0.2,-0.9 0.1,-0.2 0.1,-0.3 0.3,-0.4 0.1,-0.1 0.3,-0.1 0.4,-0.1 0.1,0 0.2,0.1 0.3,0.2 0.1,0.1 0.1,0.3 0.1,0.5 0,0.2 -0.1,0.6 -0.3,1.1 -0.1,0.6 -0.3,1.1 -0.6,1.7 -0.3,0.6 -0.6,1.1 -1.1,1.6 -0.4,0.5 -0.9,0.7 -1.6,0.7 -0.4,0 -0.8,-0.2 -1,-0.5 -0.2,-0.4 -0.4,-0.8 -0.6,-1.4 -0.2,0.4 -0.4,0.7 -0.6,1 -0.3,0.3 -0.6,0.5 -1,0.6 -0.4,0.2 -0.8,0.2 -1.1,0.1 -0.6,-0.1 -1,-0.4 -1.3,-0.9 -0.3,-0.5 -0.6,-1 -0.7,-1.7 -0.1,-0.6 -0.1,-1.3 0,-2 0.1,-0.7 0.3,-1.3 0.6,-1.8 0.3,-0.5 0.7,-1 1.2,-1.3 0.5,-0.3 1.1,-0.4 1.8,-0.3 0.4,0.1 0.7,0.3 1,0.6 0.1,-1.1 0.2,-2.1 0.3,-3.1 0.2,-0.7 0.3,-1.4 0.3,-1.9 m -0.7,7.2 c 0,-0.3 -0.1,-0.5 -0.2,-0.8 -0.1,-0.3 -0.3,-0.4 -0.5,-0.5 -0.3,-0.1 -0.6,0 -0.8,0.3 -0.2,0.3 -0.4,0.6 -0.6,1 -0.1,0.4 -0.3,0.8 -0.3,1.3 -0.1,0.5 -0.1,0.9 -0.1,1.4 0,0.4 0.1,0.8 0.2,1.1 0.1,0.3 0.3,0.5 0.6,0.5 0.2,0 0.5,-0.1 0.7,-0.3 0.2,-0.3 0.4,-0.6 0.6,-1 0.2,-0.4 0.3,-0.9 0.4,-1.4 0.1,-0.7 0.1,-1.2 0,-1.6"
       id="path27"
       inkscape:connector-curvature="0"
       style="fill:#21356a" /><path
       class="st0"
       d="m 135.6,92.1 c -0.2,0.2 -0.3,0.4 -0.6,0.5 -0.2,0.1 -0.5,0.2 -0.8,0.3 -0.3,0.1 -0.5,0.1 -0.8,0.2 -0.3,0 -0.5,0.1 -0.7,0.1 -0.1,0.4 -0.1,0.8 -0.1,1.2 0,0.4 0,0.7 0.1,1 0,0.3 0.1,0.6 0.2,0.8 0.1,0.2 0.3,0.3 0.4,0.4 0.3,0.1 0.5,0 0.8,-0.1 0.3,-0.2 0.6,-0.4 0.8,-0.7 0.3,-0.3 0.5,-0.6 0.8,-1 0.3,-0.4 0.5,-0.8 0.7,-1.1 0.2,-0.4 0.4,-0.7 0.5,-1 0.1,-0.3 0.2,-0.5 0.3,-0.7 0.1,-0.2 0.1,-0.3 0.3,-0.3 0.1,-0.1 0.2,-0.1 0.4,-0.1 0.1,0 0.2,0.1 0.3,0.2 0.1,0.1 0.1,0.2 0.1,0.4 0,0.1 -0.1,0.3 -0.2,0.7 -0.1,0.3 -0.2,0.7 -0.4,1.1 -0.2,0.4 -0.4,0.9 -0.7,1.3 -0.3,0.5 -0.6,0.9 -0.9,1.2 -0.4,0.4 -0.8,0.7 -1.3,0.9 -0.5,0.3 -1,0.4 -1.6,0.4 -0.7,0 -1.2,-0.2 -1.6,-0.7 -0.4,-0.5 -0.6,-1.1 -0.8,-1.8 -0.1,-0.7 -0.2,-1.5 -0.1,-2.4 0.1,-0.8 0.3,-1.6 0.5,-2.4 0.3,-0.7 0.6,-1.3 1,-1.8 0.4,-0.5 0.8,-0.7 1.3,-0.7 0.5,0 0.9,0.2 1.2,0.5 0.4,0.3 0.6,0.7 0.8,1.1 0.2,0.4 0.3,0.9 0.3,1.3 0.1,0.6 0,1 -0.2,1.2 m -1.8,-2.5 c -0.1,0.1 -0.3,0.3 -0.4,0.7 -0.2,0.4 -0.3,1 -0.4,1.6 0.2,0 0.4,0 0.6,-0.1 0.2,0 0.4,-0.1 0.5,-0.3 0.1,-0.1 0.1,-0.3 0.1,-0.5 0,-0.2 0,-0.4 0,-0.7 0,-0.2 -0.1,-0.4 -0.1,-0.6 -0.1,-0.1 -0.2,-0.2 -0.3,-0.1"
       id="path29"
       inkscape:connector-curvature="0"
       style="fill:#21356a" /><path
       class="st0"
       d="m 141.7,89.6 c 0.3,-0.1 0.5,-0.1 0.8,0 0.2,0.1 0.4,0.3 0.6,0.6 0.1,0.2 0.2,0.5 0.1,0.8 0,0.3 -0.2,0.4 -0.6,0.5 -0.3,0.1 -0.6,0.2 -1,0.2 -0.3,0.1 -0.7,0.1 -1,0.2 -0.3,0.1 -0.6,0.1 -0.8,0.2 -0.2,0.1 -0.3,0.1 -0.4,0.1 0,0 0.2,0.1 0.6,0.2 0.4,0.1 0.8,0.3 1.2,0.5 0.4,0.2 0.8,0.6 1.2,1 0.3,0.4 0.5,0.9 0.5,1.5 0,0.7 -0.2,1.2 -0.7,1.6 -0.5,0.4 -1,0.7 -1.6,0.8 -0.4,0.1 -0.8,0.1 -1.1,0 -0.4,-0.1 -0.7,-0.2 -1,-0.4 -0.3,-0.2 -0.5,-0.4 -0.7,-0.8 -0.2,-0.3 -0.3,-0.7 -0.3,-1.1 0,-0.4 0.1,-0.7 0.4,-0.9 0.2,-0.2 0.5,-0.3 0.8,-0.4 0.3,-0.1 0.5,0 0.8,0.1 0.2,0.1 0.3,0.3 0.3,0.6 -0.1,0.6 -0.1,1 0.1,1.3 0.2,0.3 0.3,0.4 0.5,0.4 0.2,0 0.4,-0.1 0.5,-0.2 0.1,-0.1 0.2,-0.3 0.2,-0.5 0,-0.2 0,-0.5 -0.1,-0.8 -0.1,-0.3 -0.3,-0.6 -0.5,-0.9 -0.2,-0.2 -0.4,-0.5 -0.7,-0.7 -0.3,-0.2 -0.5,-0.4 -0.8,-0.5 -0.3,-0.1 -0.5,-0.3 -0.8,-0.3 -0.3,-0.1 -0.5,-0.2 -0.6,-0.2 -0.2,0 -0.3,-0.2 -0.4,-0.4 -0.1,-0.2 -0.1,-0.4 -0.1,-0.6 0,-0.2 0.1,-0.4 0.2,-0.6 0.1,-0.2 0.4,-0.3 0.7,-0.3 0.6,0 1.2,-0.1 1.9,-0.3 0.6,-0.1 1.2,-0.4 1.8,-0.7"
       id="path31"
       inkscape:connector-curvature="0"
       style="fill:#21356a" /><path
       class="st0"
       d="m 144.3,87.7 c 0,-0.1 0,-0.3 0,-0.4 0,-0.1 0,-0.2 0,-0.3 0,-0.5 0.1,-0.8 0.4,-1 0.3,-0.2 0.5,-0.3 0.8,-0.2 0.3,0 0.5,0.1 0.8,0.3 0.2,0.2 0.3,0.4 0.2,0.7 l -0.1,0.8 h 0.7 c 0.4,0 0.6,0.1 0.8,0.2 0.2,0.1 0.2,0.3 0.2,0.4 0,0.1 -0.1,0.3 -0.3,0.4 -0.2,0.1 -0.4,0.2 -0.7,0.2 h -0.9 c -0.1,0.7 -0.1,1.5 -0.2,2.3 -0.1,0.8 -0.1,1.6 -0.1,2.4 0,0.7 0,1.4 0,1.9 0,0.5 0.1,0.7 0.3,0.7 0.1,0 0.3,-0.2 0.5,-0.5 0.2,-0.3 0.4,-0.7 0.6,-1.2 0.2,-0.5 0.4,-0.9 0.6,-1.3 0.2,-0.4 0.3,-0.7 0.3,-0.9 0,-0.2 0.1,-0.3 0.3,-0.3 0.1,-0.1 0.3,-0.1 0.4,-0.1 0.1,0 0.2,0.1 0.3,0.2 0.1,0.1 0.1,0.2 0,0.4 -0.1,0.4 -0.3,0.9 -0.5,1.5 -0.2,0.6 -0.4,1.2 -0.7,1.8 -0.3,0.6 -0.6,1.1 -1,1.5 -0.4,0.4 -0.9,0.6 -1.4,0.6 -0.4,0 -0.7,-0.1 -0.9,-0.4 -0.2,-0.3 -0.4,-0.7 -0.5,-1.1 -0.1,-0.5 -0.2,-1 -0.2,-1.6 0,-0.6 0,-1.3 0,-1.9 0,-0.7 0.1,-1.3 0.1,-2 0.1,-0.7 0.1,-1.3 0.1,-1.8 h -0.7 c -0.3,0 -0.5,-0.1 -0.7,-0.2 -0.2,-0.1 -0.3,-0.2 -0.3,-0.4 0,-0.1 0.1,-0.3 0.2,-0.4 0.2,-0.1 0.4,-0.2 0.8,-0.2 h 0.8 z"
       id="path33"
       inkscape:connector-curvature="0"
       style="fill:#21356a" /><path
       class="st0"
       d="m 151.5,87.2 c 0,0.2 0,0.4 -0.1,0.6 -0.1,0.2 -0.2,0.3 -0.4,0.5 -0.2,0.1 -0.4,0.3 -0.6,0.4 -0.2,0.1 -0.5,0.2 -0.7,0.2 -0.5,0.1 -0.9,0 -1.4,-0.1 -0.5,-0.2 -0.7,-0.4 -0.8,-0.8 -0.1,-0.4 0.1,-0.8 0.4,-1.1 0.3,-0.3 0.8,-0.5 1.3,-0.6 0.6,-0.1 1.1,-0.1 1.5,0.1 0.5,0.1 0.8,0.4 0.8,0.8 m -3.3,4 c 0,-0.5 0.1,-0.8 0.4,-1 0.2,-0.2 0.5,-0.2 0.8,-0.2 0.3,0 0.5,0.2 0.8,0.4 0.2,0.2 0.3,0.5 0.2,0.8 -0.1,0.4 -0.2,0.8 -0.2,1.3 -0.1,0.5 -0.1,1 -0.1,1.5 0,0.5 0,0.9 0,1.3 0.1,0.3 0.2,0.5 0.3,0.5 0.1,0 0.3,-0.2 0.4,-0.4 0.2,-0.3 0.3,-0.7 0.5,-1.1 0.2,-0.4 0.3,-0.8 0.4,-1.2 0.1,-0.4 0.2,-0.7 0.3,-0.9 0.1,-0.2 0.2,-0.3 0.3,-0.4 0.1,-0.1 0.3,-0.1 0.4,-0.1 0.1,0 0.2,0.1 0.3,0.2 0.1,0.1 0.1,0.3 0,0.4 0,0.1 -0.1,0.3 -0.2,0.7 -0.1,0.3 -0.2,0.7 -0.3,1.1 -0.1,0.4 -0.3,0.8 -0.5,1.2 -0.2,0.4 -0.4,0.8 -0.6,1.1 -0.2,0.3 -0.5,0.6 -0.8,0.7 -0.3,0.2 -0.6,0.2 -1,0.1 -0.5,-0.2 -0.9,-0.4 -1.1,-0.9 -0.2,-0.4 -0.3,-0.9 -0.4,-1.4 0,-0.6 0,-1.1 0,-1.8 0.1,-0.7 0.1,-1.3 0.1,-1.9"
       id="path35"
       inkscape:connector-curvature="0"
       style="fill:#21356a" /><path
       class="st0"
       d="m 152.1,90.7 c 0.1,-0.4 0.2,-0.7 0.5,-0.9 0.3,-0.2 0.5,-0.3 0.8,-0.3 0.3,0 0.5,0 0.7,0.2 0.2,0.1 0.3,0.3 0.3,0.6 0,0.3 -0.1,0.6 -0.2,0.9 -0.1,0.3 -0.1,0.7 -0.2,1 -0.1,0.3 -0.1,0.7 -0.1,1 0,0.3 0,0.6 0,0.7 0.2,-0.5 0.3,-1 0.5,-1.4 0.2,-0.4 0.4,-0.8 0.6,-1.1 0.2,-0.2 0.4,-0.3 0.6,-0.4 0.3,-0.1 0.5,-0.2 0.8,-0.1 0.2,0 0.5,0.1 0.6,0.2 0.2,0.1 0.2,0.3 0.1,0.6 -0.1,0.2 -0.1,0.4 -0.2,0.8 0,0.4 -0.1,0.7 -0.1,1.1 0,0.4 0,0.7 0.1,1 0,0.3 0.1,0.4 0.2,0.4 0.1,0 0.3,-0.1 0.5,-0.3 0.2,-0.2 0.4,-0.5 0.6,-0.8 0.2,-0.3 0.4,-0.6 0.5,-1 0.2,-0.3 0.3,-0.6 0.4,-0.9 0,-0.2 0.1,-0.3 0.3,-0.3 0.1,-0.1 0.2,-0.1 0.4,-0.1 0.1,0 0.2,0.1 0.3,0.2 0.1,0.1 0.1,0.2 0.1,0.4 -0.1,0.3 -0.2,0.6 -0.4,1.1 -0.2,0.5 -0.5,0.9 -0.8,1.4 -0.3,0.4 -0.6,0.8 -1,1.2 -0.3,0.3 -0.7,0.5 -1,0.5 -0.6,0 -1,-0.1 -1.2,-0.4 -0.2,-0.3 -0.4,-0.6 -0.5,-1 -0.1,-0.4 -0.1,-0.7 -0.1,-1.1 0,-0.4 0,-0.6 0,-0.7 -0.1,0 -0.2,0.2 -0.3,0.4 -0.1,0.2 -0.2,0.5 -0.3,0.8 -0.1,0.3 -0.2,0.6 -0.3,1 -0.1,0.3 -0.1,0.6 -0.1,0.9 0,0.3 -0.2,0.4 -0.4,0.6 -0.2,0.1 -0.5,0.2 -0.7,0.2 -0.3,0 -0.5,-0.1 -0.7,-0.2 -0.2,-0.1 -0.3,-0.3 -0.3,-0.6 0,-0.3 0,-0.7 0,-1.2 0,-0.5 0,-1 -0.1,-1.5 0,-0.5 0,-1 0,-1.5 0,-0.6 0,-1 0.1,-1.4"
       id="path37"
       inkscape:connector-curvature="0"
       style="fill:#21356a" /><path
       class="st0"
       d="m 161.8,96.4 c -0.7,0 -1.3,-0.2 -1.7,-0.5 -0.4,-0.4 -0.7,-0.8 -0.9,-1.4 -0.2,-0.5 -0.2,-1.1 -0.1,-1.8 0.1,-0.6 0.2,-1.2 0.5,-1.8 0.3,-0.5 0.6,-1 1,-1.3 0.4,-0.3 0.9,-0.5 1.5,-0.5 0.7,0 1.2,0.2 1.6,0.6 0.4,0.4 0.7,0.8 0.9,1.4 0.2,0.5 0.3,1.1 0.2,1.7 0,0.6 -0.2,1.2 -0.4,1.7 -0.2,0.5 -0.6,1 -1,1.3 -0.4,0.5 -1,0.6 -1.6,0.6 m 0.4,-1.3 c 0.2,0 0.4,-0.1 0.5,-0.3 0.1,-0.2 0.2,-0.5 0.3,-0.9 0.1,-0.4 0.1,-0.8 0.1,-1.2 0,-0.4 -0.1,-0.8 -0.1,-1.2 -0.1,-0.4 -0.2,-0.7 -0.4,-0.9 -0.2,-0.3 -0.3,-0.4 -0.5,-0.4 -0.2,0 -0.4,0.1 -0.5,0.3 -0.1,0.2 -0.2,0.5 -0.3,0.9 -0.1,0.3 -0.1,0.7 -0.1,1.1 0,0.4 0,0.8 0.1,1.2 0.1,0.4 0.2,0.7 0.4,0.9 0,0.4 0.2,0.5 0.5,0.5"
       id="path39"
       inkscape:connector-curvature="0"
       style="fill:#21356a" /><path
       class="st0"
       d="m 16.2,70.6 c -0.6,0.4 -1.4,0.8 -2.5,0.9 -1,0.2 -2.1,0.3 -3.1,0.3 C 9.3,71.8 8.1,71.6 7,71.2 5.8,70.8 4.8,70.2 3.9,69.4 3,68.6 2.3,67.5 1.8,66.2 1.3,65 1,63.4 1,61.6 c 0,-1.9 0.3,-3.5 0.9,-4.8 0.6,-1.3 1.4,-2.4 2.3,-3.2 0.9,-0.8 2,-1.4 3.1,-1.7 1.2,-0.4 2.3,-0.5 3.4,-0.5 1.2,0 2.3,0.1 3.1,0.2 0.8,0.2 1.5,0.3 2.1,0.5 l -0.8,3.5 C 14.6,55.4 14.1,55.2 13.4,55.2 12.8,55 12,55 11.1,55 10.3,55 9.5,55.1 8.8,55.4 8.1,55.7 7.5,56.1 7,56.6 c -0.5,0.5 -0.9,1.2 -1.1,2.1 -0.3,0.8 -0.4,1.8 -0.4,2.9 0,1 0.1,1.9 0.4,2.7 0.2,0.8 0.6,1.5 1.1,2.1 0.5,0.6 1.1,1 1.9,1.4 0.8,0.3 1.6,0.5 2.6,0.5 0.9,0 1.7,-0.1 2.3,-0.3 0.6,-0.2 1.2,-0.4 1.7,-0.7 l 0.7,3.3 z"
       id="path41"
       inkscape:connector-curvature="0"
       style="fill:#21356a" /><path
       class="st0"
       d="M 30.6,70.1 C 30,70.6 29.1,71 28,71.4 c -1.1,0.3 -2.3,0.5 -3.5,0.5 -2.5,0 -4.4,-0.7 -5.6,-2.1 -1.2,-1.4 -1.8,-3.3 -1.8,-5.7 0,-2.6 0.7,-4.5 2,-5.9 1.3,-1.3 3.2,-2 5.6,-2 0.8,0 1.6,0.1 2.3,0.3 0.8,0.2 1.5,0.5 2.1,1 0.6,0.5 1.1,1.1 1.5,1.9 0.4,0.8 0.6,1.7 0.6,2.9 0,0.4 0,0.8 -0.1,1.3 C 31,64 31,64.5 30.9,65 H 21 c 0.1,1.3 0.5,2.2 1.1,2.8 0.7,0.6 1.7,0.9 3.2,0.9 0.9,0 1.7,-0.1 2.4,-0.4 0.7,-0.3 1.2,-0.5 1.6,-0.8 l 1.3,2.6 z M 24.7,59.3 c -1.2,0 -2,0.3 -2.6,0.9 -0.6,0.6 -0.9,1.4 -1,2.4 h 6.4 c 0.1,-1 -0.1,-1.9 -0.6,-2.5 -0.4,-0.5 -1.2,-0.8 -2.2,-0.8"
       id="path43"
       inkscape:connector-curvature="0"
       style="fill:#21356a" /><path
       class="st0"
       d="m 44.7,71.5 v -8.1 c 0,-1.3 -0.2,-2.2 -0.6,-2.8 C 43.7,60 43,59.7 42,59.7 c -0.8,0 -1.6,0.2 -2.2,0.7 -0.6,0.5 -1,1 -1.2,1.8 0,1.5 0,3.1 0,4.6 0,1.6 0,3.1 0,4.6 h -4 V 56.7 h 3.1 l 0.4,2.1 h 0.4 c 0.5,-0.7 1.1,-1.3 2,-1.8 0.8,-0.5 1.9,-0.7 3.2,-0.7 0.8,0 1.5,0.1 2.1,0.3 0.6,0.2 1.1,0.5 1.5,1 0.4,0.5 0.7,1.1 0.9,1.9 0.2,0.8 0.3,1.8 0.3,3.1 v 8.9 h -3.8 z"
       id="path45"
       inkscape:connector-curvature="0"
       style="fill:#21356a" /><path
       class="st0"
       d="m 50.9,56.7 h 2.3 v -2 l 3.9,-1 v 3.1 h 4 V 60 h -4 v 5.1 c 0,1.2 0.1,2 0.4,2.6 0.2,0.5 0.7,0.8 1.4,0.8 0.4,0 0.8,0 1.1,-0.1 0.3,-0.1 0.6,-0.2 1,-0.3 l 0.8,3 c -0.6,0.3 -1.3,0.5 -2.1,0.7 -0.8,0.2 -1.5,0.3 -2.3,0.3 -1.5,0 -2.5,-0.4 -3.2,-1.1 -0.7,-0.7 -1,-1.9 -1,-3.5 V 60 h -2.3 v -3.3 z"
       id="path47"
       inkscape:connector-curvature="0"
       style="fill:#21356a" /><path
       class="st0"
       d="m 68.1,56.7 v 8.2 c 0,1.2 0.2,2.1 0.5,2.7 0.3,0.6 1,0.8 1.9,0.8 0.8,0 1.5,-0.2 2.1,-0.6 0.6,-0.4 1,-1 1.2,-1.6 v -9.5 h 4 V 67 c 0,0.8 0,1.6 0.1,2.4 0.1,0.8 0.2,1.5 0.4,2.1 h -2.9 l -0.8,-2.3 h -0.3 c -0.5,0.8 -1.2,1.4 -2.1,2 C 71.3,71.7 70.3,72 69.1,72 68.3,72 67.6,71.9 67,71.7 66.4,71.5 65.9,71.1 65.4,70.7 65,70.2 64.7,69.6 64.4,68.8 64.2,68 64.1,67 64.1,65.9 v -9.1 h 4 z"
       id="path49"
       inkscape:connector-curvature="0"
       style="fill:#21356a" /><path
       class="st0"
       d="M 91,60.3 C 90.4,60.1 89.9,60 89.3,60 c -0.8,0 -1.5,0.2 -2.1,0.6 -0.5,0.4 -0.9,0.9 -1.1,1.5 v 9.4 h -4 V 56.7 h 3.1 l 0.4,2.1 H 86 c 0.4,-0.8 0.9,-1.4 1.5,-1.8 0.6,-0.4 1.4,-0.6 2.2,-0.6 0.5,0 1.1,0.1 1.7,0.3 L 91,60.3 z"
       id="path51"
       inkscape:connector-curvature="0"
       style="fill:#21356a" /><path
       class="st0"
       d="m 99.2,64.9 0.6,2.4 h 0.3 l 0.5,-2.4 2.5,-8.2 h 4 l -4.9,13.4 c -0.4,1.1 -0.8,2.1 -1.2,3 -0.4,0.9 -0.8,1.6 -1.2,2.3 -0.4,0.6 -0.9,1.1 -1.5,1.4 -0.5,0.3 -1.2,0.5 -1.9,0.5 -0.5,0 -1,0 -1.4,-0.1 -0.4,-0.1 -0.8,-0.2 -1.1,-0.4 l 0.8,-3 c 0.3,0.1 0.6,0.1 0.9,0.1 0.3,0 0.5,0 0.8,-0.1 0.2,-0.1 0.5,-0.2 0.7,-0.3 0.2,-0.2 0.4,-0.4 0.6,-0.7 0.2,-0.3 0.3,-0.7 0.5,-1.2 L 91.4,56.7 h 4.8 l 3,8.2 z"
       id="path53"
       inkscape:connector-curvature="0"
       style="fill:#21356a" /><path
       style="fill:#21356a"
       d="m 129.6,55.4 -6.3,0 0,16.1 -4.2,0 0,-16.1 -6.2,0 0,-3.7 16.7,0 z"
       id="polygon55"
       inkscape:connector-curvature="0" /><path
       class="st0"
       d="m 137.5,60.3 c -0.6,-0.2 -1.1,-0.3 -1.7,-0.3 -0.8,0 -1.5,0.2 -2,0.6 -0.5,0.4 -0.9,0.9 -1.1,1.5 v 9.4 h -4 V 56.7 h 3.1 l 0.4,2.1 h 0.4 c 0.4,-0.8 0.9,-1.4 1.5,-1.8 0.6,-0.4 1.4,-0.6 2.2,-0.6 0.5,0 1.1,0.1 1.8,0.3 l -0.6,3.6 z"
       id="path57"
       inkscape:connector-curvature="0"
       style="fill:#21356a" /><path
       class="st0"
       d="m 140.1,57.7 c 0.8,-0.4 1.9,-0.7 3.1,-0.9 1.2,-0.2 2.5,-0.4 3.8,-0.4 1,0 1.9,0.1 2.6,0.4 0.7,0.2 1.3,0.6 1.7,1.1 0.4,0.5 0.7,1 0.9,1.7 0.2,0.6 0.3,1.4 0.3,2.2 0,1 0,1.9 -0.1,2.9 -0.1,0.9 -0.1,1.9 -0.1,3 0,0.7 0,1.4 0.1,2.1 0.1,0.7 0.2,1.3 0.5,2 h -3.2 L 149,69.6 h -0.3 c -0.5,0.7 -1.1,1.2 -1.9,1.7 -0.8,0.5 -1.7,0.7 -2.9,0.7 -0.7,0 -1.4,-0.1 -2,-0.3 -0.6,-0.2 -1.1,-0.5 -1.5,-0.9 -0.4,-0.4 -0.8,-0.8 -1,-1.4 -0.2,-0.5 -0.3,-1.1 -0.3,-1.7 0,-1.7 0.6,-2.9 1.7,-3.8 1.1,-0.9 2.8,-1.3 5.1,-1.3 0.5,0 1.1,0 1.6,0.1 0.5,0.1 0.9,0.1 1.1,0.2 0.1,-0.4 0.1,-0.7 0.1,-1 0,-0.7 -0.2,-1.2 -0.5,-1.6 -0.4,-0.3 -1,-0.5 -2,-0.5 -0.9,0 -1.8,0.1 -2.6,0.3 -0.9,0.2 -1.6,0.5 -2.3,0.8 l -1.2,-3.2 z m 5.1,10.8 c 0.9,0 1.6,-0.2 2.1,-0.6 0.5,-0.4 0.9,-0.9 1.2,-1.3 v -1.7 c -0.1,0 -0.2,-0.1 -0.4,-0.1 -0.2,0 -0.4,-0.1 -0.6,-0.1 -0.2,0 -0.5,-0.1 -0.7,-0.1 -0.2,0 -0.4,0 -0.6,0 -1,0 -1.8,0.2 -2.3,0.6 -0.5,0.4 -0.7,0.8 -0.7,1.4 0,0.7 0.2,1.2 0.6,1.5 0.2,0.3 0.8,0.4 1.4,0.4"
       id="path59"
       inkscape:connector-curvature="0"
       style="fill:#21356a" /><path
       style="fill:#21356a"
       d="m 161.8,64.3 0.6,2.3 0.4,0 0.4,-2.3 2.8,-7.6 4.3,0 -6.8,14.9 -2.3,0 -7,-14.9 4.6,0 z"
       id="polygon61"
       inkscape:connector-curvature="0" /><path
       class="st0"
       d="m 184.4,70.1 c -0.6,0.5 -1.5,0.9 -2.6,1.3 -1.1,0.3 -2.3,0.5 -3.5,0.5 -2.5,0 -4.4,-0.7 -5.6,-2.1 -1.2,-1.4 -1.8,-3.3 -1.8,-5.7 0,-2.6 0.7,-4.5 2,-5.9 1.3,-1.3 3.2,-2 5.7,-2 0.8,0 1.6,0.1 2.3,0.3 0.8,0.2 1.5,0.5 2.1,1 0.6,0.5 1.1,1.1 1.5,1.9 0.4,0.8 0.5,1.7 0.5,2.9 0,0.4 0,0.8 -0.1,1.3 0,0.5 -0.1,1 -0.2,1.5 h -9.9 c 0.1,1.3 0.5,2.2 1.1,2.8 0.6,0.6 1.7,0.9 3.2,0.9 0.9,0 1.7,-0.1 2.4,-0.4 0.7,-0.3 1.3,-0.5 1.6,-0.8 l 1.3,2.5 z m -5.9,-10.8 c -1.2,0 -2,0.3 -2.6,0.9 -0.6,0.6 -0.9,1.4 -1,2.4 h 6.4 c 0.1,-1 -0.1,-1.9 -0.6,-2.5 -0.4,-0.5 -1.2,-0.8 -2.2,-0.8"
       id="path63"
       inkscape:connector-curvature="0"
       style="fill:#21356a" /><path
       class="st0"
       d="m 192.6,66.3 c 0,1.4 0.5,2.2 1.4,2.2 0.3,0 0.5,0 0.8,-0.1 0.2,-0.1 0.5,-0.1 0.8,-0.2 l 0.5,3.1 c -0.4,0.2 -0.9,0.3 -1.6,0.5 -0.7,0.2 -1.4,0.2 -2.1,0.2 -1.2,0 -2.1,-0.3 -2.7,-0.8 -0.6,-0.5 -0.9,-1.4 -0.9,-2.6 V 51.7 h 4 v 14.6 z"
       id="path65"
       inkscape:connector-curvature="0"
       style="fill:#21356a" /><path
       style="fill:#21356a"
       d="m 62.200001,1.6 44.899999,0 0,44.900002 -44.899999,0 z"
       id="rect67"
       inkscape:connector-curvature="0" /><path
       class="st1"
       d="m 89.6,12.1 c 1.2,0 3,0.1 5.3,0.3 2.3,0.2 5,0.6 8.1,1.3 1.6,0.3 3.2,0.8 4.9,1.3 1.7,0.5 3.5,1.2 5.2,2 0.4,0.2 0.9,0.4 1.3,0.7 0.2,0.1 0.4,0.2 0.7,0.3 0.2,0.1 0.4,0.2 0.7,0.4 0.9,0.5 1.7,1.1 2.5,1.7 0.2,0.2 0.4,0.3 0.6,0.5 0.2,0.2 0.4,0.3 0.6,0.5 0.2,0.2 0.4,0.4 0.6,0.5 l 0.3,0.3 0.3,0.3 c 0.7,0.8 1.3,1.6 1.7,2.6 l 0.1,0.4 0.1,0.2 c 0,0.1 0,0.1 0.1,0.2 l 0.1,0.4 c 0,0.1 0,0.1 0,0.2 l 0,0.2 0.1,0.3 0,0.1 0,0.1 0,0.2 0,0.4 v 0 0 l 0,0 0,0.1 0,0.2 c -0.1,1 -0.5,2 -1,2.9 -0.6,0.9 -1.3,1.7 -2.2,2.4 -0.9,0.7 -1.8,1.4 -2.8,2 -1,0.6 -2.1,1.1 -3.2,1.6 -1.1,0.5 -2.2,0.9 -3.4,1.3 -2.3,0.7 -4.7,1.3 -7.2,1.8 -1.2,0.2 -2.5,0.4 -3.7,0.6 l -0.9,0.1 -0.9,0.1 c -0.6,0.1 -1.3,0.1 -1.9,0.2 -1.3,0.1 -2.5,0.2 -3.8,0.2 -0.6,0 -1.3,0 -1.9,0.1 l -1.9,0 -1.9,0 c -0.6,0 -1.3,0 -1.9,-0.1 -1.3,-0.1 -2.5,-0.1 -3.8,-0.2 -0.4,0 -0.8,-0.1 -1.2,-0.1 -0.5,1.5 -0.9,3 -0.6,3.1 0.2,0 0.6,0.2 1.2,0.3 0.1,0 0.2,0 0.3,0 0.7,0.1 1.3,0.1 2,0.2 0.7,0.1 1.3,0.1 2,0.1 0.7,0 1.3,0.1 2,0.1 l 2,0 2,0 c 0.7,0 1.3,0 2,-0.1 1.3,-0.1 2.7,-0.2 4,-0.3 0.7,-0.1 1.3,-0.1 2,-0.2 l 1,-0.1 1,-0.2 c 1.3,-0.2 2.6,-0.5 3.9,-0.7 0.6,-0.1 1.3,-0.3 1.9,-0.5 0.6,-0.2 1.3,-0.3 1.9,-0.5 1.3,-0.4 2.5,-0.8 3.7,-1.2 1.2,-0.5 2.4,-1 3.6,-1.5 1.2,-0.6 2.3,-1.2 3.4,-1.9 1.1,-0.7 2.1,-1.5 3,-2.4 0.9,-0.9 1.8,-1.9 2.4,-3 0.6,-1.1 1,-2.4 1.1,-3.8 l 0,-0.2 v -0.1 -0.1 c 0,0 0,-0.1 0,-0.1 l 0,-0.4 0,-0.2 0,-0.1 0,-0.1 -0.1,-0.5 c -0.1,-0.6 -0.4,-1.2 -0.6,-1.8 -0.5,-1.1 -1.3,-2 -2.1,-2.8 l -0.3,-0.3 -0.3,-0.3 c -0.2,-0.2 -0.4,-0.4 -0.6,-0.5 -0.2,-0.2 -0.4,-0.3 -0.7,-0.5 -0.2,-0.1 -0.5,-0.3 -0.7,-0.5 -0.9,-0.6 -1.8,-1.1 -2.7,-1.6 -0.2,-0.1 -0.5,-0.2 -0.7,-0.3 -0.2,-0.1 -0.5,-0.2 -0.7,-0.3 -0.5,-0.2 -0.9,-0.4 -1.4,-0.6 -3.7,-1.5 -7.2,-2.3 -10.3,-2.9 -3.1,-0.6 -5.9,-0.9 -8.2,-1.1 -3,-0.6 -4.8,-0.7 -6.1,-0.7 -0.3,0 -0.5,0 -0.7,0 l 0,0 c 0.3,0 0.5,0 0.7,0"
       id="path69"
       inkscape:connector-curvature="0"
       style="fill:#eea820" /><path
       class="st2"
       d="m 100.9,43.7 c -2.3,-0.2 -5,-0.6 -8.1,-1.3 -1.6,-0.3 -3.2,-0.8 -4.9,-1.3 -1.7,-0.5 -3.4,-1.2 -5.2,-2 C 82.3,38.9 81.8,38.7 81.4,38.4 81.2,38.3 81,38.2 80.7,38.1 80.5,38 80.3,37.9 80.1,37.7 79.2,37.2 78.4,36.6 77.5,36 77.3,35.8 77.1,35.7 76.9,35.5 76.7,35.3 76.5,35.2 76.3,35 76.1,34.8 75.9,34.6 75.7,34.5 L 75.4,34.2 75.2,34 C 74.5,33.2 73.9,32.4 73.5,31.4 L 73.4,31 73.3,30.8 c 0,-0.1 0,-0.1 0,-0.2 l -0.1,-0.4 c 0,-0.1 0,-0.1 0,-0.2 l 0,-0.2 0,-0.3 0,-0.1 v -0.1 l 0,-0.2 0,-0.4 c 0,0 0,0 0,0 0,0 0,0 0,0 l 0,-0.1 0,-0.1 0,-0.2 c 0.1,-1 0.5,-2 1,-2.9 0.6,-0.9 1.3,-1.7 2.2,-2.4 0.9,-0.7 1.8,-1.4 2.8,-2 1,-0.6 2.1,-1.1 3.2,-1.6 1.1,-0.5 2.2,-0.9 3.4,-1.3 2.3,-0.8 4.8,-1.3 7.2,-1.8 1.2,-0.2 2.5,-0.4 3.7,-0.6 l 0.9,-0.1 1,-0.1 c 0.6,-0.1 1.3,-0.1 1.9,-0.2 1.3,-0.1 2.5,-0.2 3.8,-0.2 0.6,0 1.3,0 1.9,-0.1 l 2,0 1.9,0 c 0.6,0 1.3,0 1.9,0.1 1.3,0.1 2.6,0.1 3.8,0.2 h 0 c 0.8,-0.2 1.6,-0.4 1.8,-0.4 0.3,-0.1 -0.1,-1.4 -0.5,-2.8 -0.3,0 -0.7,-0.1 -1,-0.1 -0.7,-0.1 -1.3,-0.1 -2,-0.2 -0.7,-0.1 -1.3,-0.1 -2,-0.1 -0.7,0 -1.3,0 -2,-0.1 l -2,0 -2,0 c -0.7,0 -1.4,0 -2,0.1 -1.3,0.1 -2.7,0.2 -4,0.3 -0.7,0.1 -1.3,0.1 -2,0.2 l -1,0.1 -1,0.1 c -1.3,0.2 -2.6,0.5 -3.9,0.7 -0.6,0.1 -1.3,0.3 -1.9,0.5 -0.6,0.2 -1.3,0.3 -1.9,0.5 -1.3,0.4 -2.5,0.8 -3.7,1.2 -1.2,0.5 -2.4,1 -3.6,1.5 -1.2,0.6 -2.3,1.2 -3.4,1.9 -1.1,0.7 -2.1,1.5 -3,2.4 -0.9,0.9 -1.8,1.9 -2.4,3.1 -0.6,1.1 -1,2.4 -1.1,3.7 v 0.2 l 0,0.1 0,0.1 c 0,0 0,0.1 0,0.1 l 0,0.4 0,0.2 0,0.1 0,0.1 0.1,0.5 c 0.1,0.7 0.4,1.2 0.6,1.8 0.5,1.1 1.3,2 2.1,2.8 l 0.3,0.3 0.3,0.3 c 0.2,0.2 0.4,0.4 0.6,0.5 0.2,0.2 0.4,0.3 0.7,0.5 0.2,0.2 0.5,0.3 0.7,0.5 0.9,0.6 1.8,1.1 2.7,1.6 0.2,0.1 0.5,0.2 0.7,0.3 0.2,0.1 0.5,0.2 0.7,0.3 0.5,0.2 0.9,0.4 1.4,0.6 3.7,1.5 7.2,2.3 10.3,2.9 3.5,1.1 6.3,1.5 8.5,1.6 0.1,0.1 0.3,0.1 0.4,0.1 v -0.1 c -0.1,0 -0.2,0 -0.4,0"
       id="path71"
       inkscape:connector-curvature="0"
       style="fill:#ffffff" /><path
       class="st1"
       d="m 92.3,17.4 c 0.8,0 2,0.1 3.6,0.2 1.5,0.1 3.4,0.4 5.5,0.8 1,0.2 2.1,0.5 3.3,0.9 1.1,0.3 2.3,0.8 3.5,1.4 0.3,0.1 0.6,0.3 0.9,0.4 0.1,0.1 0.3,0.2 0.4,0.2 0.2,0.1 0.3,0.2 0.4,0.2 0.6,0.3 1.2,0.7 1.7,1.1 0.1,0.1 0.3,0.2 0.4,0.3 0.1,0.1 0.3,0.2 0.4,0.3 0.1,0.1 0.3,0.2 0.4,0.4 l 0.2,0.2 0.2,0.2 c 0.5,0.5 0.9,1.1 1.1,1.7 l 0.1,0.2 0,0.1 c 0,0 0,0.1 0,0.1 l 0.1,0.3 c 0,0 0,0.1 0,0.1 l 0,0.1 0,0.2 0,0.1 V 27 l 0,0.1 0,0.3 c 0,0 0,0 0,0 l 0,0 0,0.1 0,0.1 c -0.1,0.7 -0.3,1.3 -0.7,1.9 -0.4,0.6 -0.9,1.1 -1.5,1.6 -0.6,0.5 -1.2,0.9 -1.9,1.3 -0.7,0.4 -1.4,0.7 -2.1,1.1 -0.7,0.3 -1.5,0.6 -2.3,0.9 -1.6,0.5 -3.2,0.9 -4.8,1.2 -0.8,0.1 -1.7,0.3 -2.5,0.4 l -0.6,0.1 -0.6,0.1 c -0.4,0.1 -0.9,0.1 -1.3,0.1 -0.9,0.1 -1.7,0.1 -2.6,0.2 -0.4,0 -0.8,0 -1.3,0 l -1.3,0 -1.3,0 c -0.4,0 -0.9,0 -1.3,0 -0.9,0 -1.7,-0.1 -2.6,-0.2 -0.3,0 -0.5,0 -0.8,-0.1 -0.3,1 -0.6,2 -0.4,2.1 0.1,0 0.4,0.1 0.8,0.2 0.1,0 0.1,0 0.2,0 0.4,0 0.9,0.1 1.3,0.1 0.4,0 0.9,0.1 1.3,0.1 0.4,0 0.9,0 1.3,0 l 1.3,0 1.3,0 c 0.5,0 0.9,0 1.4,0 0.9,-0.1 1.8,-0.1 2.7,-0.2 0.4,-0.1 0.9,-0.1 1.3,-0.2 l 0.7,-0.1 0.7,-0.1 c 0.9,-0.1 1.8,-0.3 2.6,-0.5 0.4,-0.1 0.9,-0.2 1.3,-0.3 0.4,-0.1 0.9,-0.2 1.3,-0.4 0.8,-0.2 1.7,-0.5 2.5,-0.8 0.8,-0.3 1.6,-0.7 2.4,-1 0.8,-0.4 1.5,-0.8 2.3,-1.3 0.7,-0.5 1.4,-1 2,-1.6 0.6,-0.6 1.2,-1.3 1.6,-2 0.4,-0.8 0.7,-1.6 0.7,-2.5 l 0,-0.2 v -0.1 l 0,0 c 0,0 0,-0.1 0,-0.1 l 0,-0.3 0,-0.1 0,-0.1 0,-0.1 -0.1,-0.3 c -0.1,-0.4 -0.3,-0.8 -0.4,-1.2 -0.4,-0.7 -0.9,-1.4 -1.4,-1.9 l -0.2,-0.2 -0.2,-0.2 c -0.1,-0.1 -0.3,-0.3 -0.4,-0.4 -0.1,-0.1 -0.3,-0.2 -0.4,-0.3 -0.2,-0.1 -0.3,-0.2 -0.5,-0.3 -0.6,-0.4 -1.2,-0.8 -1.8,-1.1 -0.2,-0.1 -0.3,-0.2 -0.5,-0.2 -0.2,-0.1 -0.3,-0.1 -0.5,-0.2 -0.3,-0.1 -0.6,-0.3 -0.9,-0.4 -2.5,-1 -4.8,-1.5 -6.9,-1.9 -2.1,-0.4 -4,-0.6 -5.5,-0.7 -1.5,0 -2.8,0 -3.6,0 -0.2,0 -0.3,0 -0.5,0 l 0,0 c 0.2,0 0.4,0 0.5,0"
       id="path73"
       inkscape:connector-curvature="0"
       style="fill:#eea820" /><path
       class="st2"
       d="M 99.9,38.5 C 98.4,38.4 96.5,38.1 94.4,37.7 93.4,37.5 92.3,37.2 91.1,36.8 90,36.4 88.8,36 87.6,35.5 87.3,35.4 87,35.2 86.7,35.1 86.6,35 86.4,34.9 86.3,34.9 86.2,34.8 86,34.7 85.9,34.6 85.3,34.3 84.7,33.9 84.2,33.5 84.1,33.4 83.9,33.3 83.8,33.2 83.7,33.1 83.5,33 83.4,32.9 83.3,32.8 83.1,32.7 83,32.5 L 82.8,32.3 82.7,32 c -0.5,-0.5 -0.9,-1.1 -1.1,-1.7 l -0.2,-0.3 0,-0.1 c 0,0 0,-0.1 0,-0.1 l -0.1,-0.2 c 0,0 0,-0.1 0,-0.1 l 0,-0.1 0,-0.2 0,-0.1 V 29 l 0,-0.2 0,-0.3 0,0 c 0,0 0,0 0,0 v 0 l 0,-0.1 0,-0.1 c 0.1,-0.7 0.3,-1.3 0.7,-1.9 0.4,-0.6 0.9,-1.1 1.5,-1.6 0.6,-0.5 1.2,-0.9 1.9,-1.3 0.7,-0.4 1.4,-0.7 2.1,-1.1 0.7,-0.3 1.5,-0.6 2.3,-0.9 1.6,-0.5 3.2,-0.9 4.8,-1.2 0.8,-0.1 1.7,-0.3 2.5,-0.4 l 0.6,-0.1 0.6,-0.1 c 0.4,-0.1 0.9,-0.1 1.3,-0.1 0.9,-0.1 1.7,-0.1 2.6,-0.2 0.4,0 0.9,0 1.3,0 l 1.3,0 1.3,0 c 0.4,0 0.9,0 1.3,0 0.9,0 1.7,0.1 2.6,0.2 0,0 0,0 0,0 0.5,-0.1 1.1,-0.3 1.2,-0.3 0.2,0 -0.1,-0.9 -0.3,-1.9 -0.2,0 -0.4,0 -0.7,-0.1 -0.4,-0.1 -0.9,-0.1 -1.3,-0.1 -0.4,0 -0.9,-0.1 -1.3,-0.1 -0.4,0 -0.9,0 -1.3,0 l -1.4,0 -1.3,0 c -0.4,0 -0.9,0 -1.4,0 -0.9,0 -1.8,0.1 -2.7,0.2 -0.4,0 -0.9,0.1 -1.3,0.2 l -0.7,0.1 -0.7,0.1 c -0.9,0.1 -1.7,0.3 -2.6,0.5 -0.4,0.1 -0.9,0.2 -1.3,0.3 -0.4,0.1 -0.9,0.2 -1.3,0.4 -0.8,0.2 -1.7,0.5 -2.5,0.8 -0.8,0.3 -1.6,0.7 -2.4,1 -0.8,0.4 -1.5,0.8 -2.2,1.3 -0.7,0.5 -1.4,1 -2,1.6 -0.6,0.6 -1.2,1.3 -1.6,2 -0.4,0.8 -0.7,1.6 -0.7,2.5 l 0,0.2 v 0.1 l 0,0 c 0,0 0,0.1 0,0.1 l 0,0.3 0,0.1 0,0.1 0,0.1 0.1,0.3 c 0.1,0.4 0.2,0.8 0.4,1.2 0.4,0.7 0.9,1.4 1.4,1.9 l 0.2,0.2 0.2,0.2 c 0.1,0.1 0.3,0.3 0.4,0.4 0.2,0.1 0.3,0.2 0.4,0.3 0.1,0.1 0.3,0.2 0.4,0.3 0.6,0.4 1.2,0.8 1.8,1.1 0.2,0.1 0.3,0.2 0.5,0.2 0.2,0.1 0.3,0.1 0.5,0.2 0.3,0.1 0.6,0.3 0.9,0.4 2.5,1 4.8,1.5 6.9,1.9 2.2,0.6 4.1,0.8 5.6,0.8 0.1,0 0.2,0.1 0.3,0.1 v 0 c -0.1,0 -0.2,0 -0.3,-0.1"
       id="path75"
       inkscape:connector-curvature="0"
       style="fill:#ffffff" /><path
       class="st1"
       d="m 95.2,23 c 0.4,0 1,0 1.7,0.1 0.7,0.1 1.6,0.2 2.6,0.4 0.5,0.1 1,0.2 1.5,0.4 0.5,0.2 1.1,0.4 1.6,0.6 0.1,0.1 0.3,0.1 0.4,0.2 0.1,0 0.1,0.1 0.2,0.1 0.1,0 0.1,0.1 0.2,0.1 0.3,0.2 0.5,0.3 0.8,0.5 0.1,0 0.1,0.1 0.2,0.2 0.1,0.1 0.1,0.1 0.2,0.2 0.1,0.1 0.1,0.1 0.2,0.2 l 0.1,0.1 0.1,0.1 c 0.2,0.2 0.4,0.5 0.5,0.8 l 0,0.1 0,0.1 c 0,0 0,0 0,0.1 l 0,0.1 c 0,0 0,0 0,0.1 l 0,0.1 0,0.1 0,0 v 0 0.1 l 0,0.1 v 0 0 l 0,0 v 0 l 0,0.1 c 0,0.3 -0.1,0.6 -0.3,0.9 -0.2,0.3 -0.4,0.5 -0.7,0.8 -0.3,0.2 -0.6,0.4 -0.9,0.6 -0.3,0.2 -0.7,0.3 -1,0.5 -0.3,0.2 -0.7,0.3 -1.1,0.4 -0.7,0.2 -1.5,0.4 -2.3,0.6 -0.4,0.1 -0.8,0.1 -1.2,0.2 l -0.3,0 -0.3,0 c -0.2,0 -0.4,0 -0.6,0.1 -0.4,0 -0.8,0.1 -1.2,0.1 -0.2,0 -0.4,0 -0.6,0 l -0.6,0 -0.6,0 c -0.2,0 -0.4,0 -0.6,0 -0.4,0 -0.8,0 -1.2,-0.1 -0.1,0 -0.3,0 -0.4,0 -0.2,0.5 -0.3,1 -0.2,1 0,0 0.2,0.1 0.4,0.1 0,0 0.1,0 0.1,0 0.2,0 0.4,0 0.6,0.1 0.2,0 0.4,0 0.6,0 0.2,0 0.4,0 0.6,0 l 0.6,0 0.6,0 c 0.2,0 0.4,0 0.6,0 0.4,0 0.8,0 1.3,-0.1 0.2,0 0.4,0 0.6,-0.1 l 0.3,0 0.3,0 c 0.4,-0.1 0.8,-0.1 1.2,-0.2 0.2,0 0.4,-0.1 0.6,-0.1 0.2,-0.1 0.4,-0.1 0.6,-0.2 0.4,-0.1 0.8,-0.2 1.2,-0.4 0.4,-0.1 0.8,-0.3 1.1,-0.5 0.4,-0.2 0.7,-0.4 1.1,-0.6 0.3,-0.2 0.7,-0.5 1,-0.8 0.3,-0.3 0.6,-0.6 0.8,-1 0.2,-0.4 0.3,-0.8 0.3,-1.2 l 0,-0.1 v 0 0 0 l 0,-0.1 0,-0.1 0,0 0,0 0,-0.2 c 0,-0.2 -0.1,-0.4 -0.2,-0.6 -0.2,-0.4 -0.4,-0.6 -0.7,-0.9 l -0.1,-0.1 -0.1,-0.1 c -0.1,-0.1 -0.1,-0.1 -0.2,-0.2 -0.1,-0.1 -0.1,-0.1 -0.2,-0.2 -0.1,0 -0.1,-0.1 -0.2,-0.1 -0.3,-0.2 -0.6,-0.4 -0.9,-0.5 -0.1,0 -0.1,-0.1 -0.2,-0.1 -0.1,0 -0.1,-0.1 -0.2,-0.1 -0.1,-0.1 -0.3,-0.1 -0.4,-0.2 -1.2,-0.5 -2.3,-0.7 -3.3,-0.9 -1,-0.2 -1.9,-0.3 -2.6,-0.3 -0.4,-0.2 -1,-0.2 -1.4,-0.3 -0.1,0 -0.1,0 -0.2,0 v 0 h 0.2 z"
       id="path77"
       inkscape:connector-curvature="0"
       style="fill:#eea820" /><path
       class="st2"
       d="m 98.8,33 c -0.7,-0.1 -1.6,-0.2 -2.6,-0.4 -0.5,-0.1 -1,-0.2 -1.5,-0.4 -0.5,-0.2 -1.1,-0.4 -1.6,-0.6 -0.1,-0.1 -0.3,-0.1 -0.4,-0.2 -0.1,0 -0.1,-0.1 -0.2,-0.1 -0.1,0 -0.1,-0.1 -0.2,-0.1 C 92,31 91.8,30.9 91.5,30.7 91.4,30.7 91.4,30.6 91.3,30.5 91.2,30.4 91.2,30.4 91.1,30.3 91,30.2 91,30.2 90.9,30.1 L 90.8,30 90.7,30 c -0.2,-0.3 -0.4,-0.5 -0.5,-0.8 l 0,-0.1 0,-0.1 c 0,0 0,0 0,-0.1 l 0,-0.1 c 0,0 0,0 0,-0.1 l 0,-0.1 0,-0.1 0,0 v 0 -0.1 l 0,-0.1 v 0 0 l 0,0 v 0 l 0,-0.1 c 0,-0.3 0.1,-0.6 0.3,-0.9 0.2,-0.3 0.4,-0.5 0.7,-0.8 0.3,-0.2 0.6,-0.4 0.9,-0.6 0.3,-0.2 0.7,-0.3 1,-0.5 0.3,-0.2 0.7,-0.3 1.1,-0.4 0.7,-0.2 1.5,-0.4 2.3,-0.6 0.4,-0.1 0.8,-0.1 1.2,-0.2 l 0.3,0 0.3,0 c 0.2,0 0.4,0 0.6,-0.1 0.4,0 0.8,-0.1 1.2,-0.1 0.2,0 0.4,0 0.6,0 l 0.6,0 0.6,0 c 0.2,0 0.4,0 0.6,0 0.4,0 0.8,0 1.2,0.1 h 0 c 0.2,-0.1 0.5,-0.1 0.6,-0.1 0.1,0 0,-0.4 -0.2,-0.9 -0.1,0 -0.2,0 -0.3,0 -0.2,0 -0.4,0 -0.6,-0.1 -0.2,0 -0.4,0 -0.6,0 -0.2,0 -0.4,0 -0.6,0 l -0.6,0 -0.6,0 c -0.2,0 -0.4,0 -0.6,0 -0.4,0 -0.8,0 -1.3,0.1 -0.2,0 -0.4,0 -0.6,0.1 l -0.3,0 -0.3,0.1 c -0.4,0.1 -0.8,0.1 -1.2,0.2 -0.2,0 -0.4,0.1 -0.6,0.1 -0.2,0.1 -0.4,0.1 -0.6,0.2 -0.4,0.1 -0.8,0.2 -1.2,0.4 -0.4,0.2 -0.8,0.3 -1.1,0.5 -0.4,0.2 -0.7,0.4 -1.1,0.6 -0.3,0.2 -0.7,0.5 -0.9,0.8 -0.3,0.3 -0.6,0.6 -0.8,1 -0.2,0.4 -0.3,0.8 -0.3,1.2 l 0,0.1 v 0 0 c 0,0 0,0 0,0 l 0,0.1 0,0.1 0,0 0,0 0,0.2 c 0,0.2 0.1,0.4 0.2,0.6 0.2,0.4 0.4,0.6 0.7,0.9 l 0.1,0.1 0.1,0.1 c 0.1,0.1 0.1,0.1 0.2,0.2 0.1,0.1 0.1,0.1 0.2,0.2 0.1,0 0.1,0.1 0.2,0.1 0.3,0.2 0.6,0.4 0.9,0.5 0.1,0 0.1,0.1 0.2,0.1 0.1,0 0.2,0.1 0.2,0.1 0.1,0.1 0.3,0.1 0.4,0.2 1.2,0.5 2.3,0.7 3.3,0.9 0.6,0.1 1.5,0.2 2.2,0.2 0,0 0.1,0 0.1,0 v 0 c 0,0 0,0 -0.1,0"
       id="path79"
       inkscape:connector-curvature="0"
       style="fill:#ffffff" /></g></svg>