<svg xmlns="http://www.w3.org/2000/svg" width="400" height="338.979"><path d="M9.467 233.154s23.74-123.66 143.632-123.66c118.703 0 143.63 123.66 143.63 123.66H254s-22.554-95.124-112.77-95.124c-91.402 0-131.76 95.124-131.76 95.124" fill="#2d7041"/><path d="M37.955 233.154s27.302-74.91 103.273-74.91c77.158 0 135.323 108.203 23.74 61.83-111.58-46.373 5.936-47.562 5.936-36.86 0 9.512-45.107-2.378-28.49 9.512 17.807 11.89 37.987 27.348 49.857 3.567 10.684-22.592-35.61-38.05-70.035-30.915-34.424 8.323-61.726 48.75 5.936 59.452 66.475 10.702 80.72 23.78 90.216 40.428 0 0-17.806-45.184-180.43-32.104" fill="#83c350"/><path d="M306.227 233.154S271.803 54.797 132.92 101.17c-8.31 3.567-9.498-17.836 49.854-17.836 23.74 0 46.295 8.324 53.417-10.7 7.123-17.837 9.498-30.916 2.375-46.374C232.63 10.802 210.075-7.033 225.508.1c15.43 7.135 32.05 30.916 32.05 54.697 0 23.78 3.56 26.16 27.302 60.64 24.928 34.484 30.863 80.856 37.985 117.717h-16.618z" fill="#e97c35"/><path d="M223.133 44.096c7.123 9.512 9.497 21.403 2.375 26.16-5.936 5.944-17.806 1.188-24.928-8.324-8.31-9.513-9.497-21.403-3.562-26.16 5.936-5.945 17.806-1.19 26.115 8.324" fill="#e97c35"/><path d="M35.58 314.01l-22.553-60.642c-1.188-3.567-2.375-4.756-3.562-4.756-1.187-1.19-4.748-1.19-9.496-1.19v-1.188h37.984v1.19h-9.496c-2.374 1.188-3.56 2.377-3.56 3.566 0 0 1.186 1.19 1.186 2.378l16.62 43.995 10.682-33.294c1.187-3.568 1.187-5.946 1.187-8.324 0-5.945-3.56-8.323-10.683-8.323v-1.19h27.302v1.19c-5.936 0-10.684 2.378-13.058 8.323-1.187 1.19-2.374 4.756-3.56 9.512l-16.62 48.75H35.58zM85.436 291.417c0-7.134 0-11.89-1.187-15.457-1.188-3.567-3.562-5.945-5.936-5.945-3.562 0-5.936 1.19-8.31 4.756-1.187 3.568-2.374 9.513-2.374 16.647h17.806zm-17.806 1.19c0 7.134 1.187 11.89 3.56 15.457 1.188 3.567 3.562 5.945 7.124 5.945 4.748 0 7.122-2.38 10.683-4.757 3.56-2.378 4.748-7.134 4.748-13.08h1.187c0 5.946-1.187 9.513-4.748 13.08-3.56 3.567-8.31 4.756-13.058 4.756-4.748 0-9.496-1.19-13.057-4.757-4.75-4.756-7.123-9.512-7.123-16.647 0-7.134 2.374-13.08 7.122-17.835 3.56-3.566 8.308-5.944 13.056-5.944 4.75 0 8.31 1.19 10.684 4.756 4.748 3.567 7.122 9.512 7.122 19.024H67.63zM129.356 284.283c0-4.756 0-8.323-1.187-10.7-2.375-2.38-4.75-3.568-7.123-3.568-3.56 0-5.935 1.19-7.123 3.567-1.187 2.378-2.374 5.945-2.374 10.7 0 4.757 1.187 8.324 2.374 10.703 1.188 1.19 3.562 2.378 7.123 2.378 2.374 0 4.748-1.19 5.935-3.568 1.187-1.19 2.374-4.756 2.374-9.512m-7.122 49.94c4.748 0 8.31-1.19 10.683-2.378 2.374-2.378 3.56-4.756 3.56-7.134 0-3.567-1.186-5.945-2.373-7.134-2.374-1.19-7.122-1.19-11.87-1.19-7.122 0-11.87 0-14.245 1.19-1.188 2.378-2.375 3.567-2.375 7.135 0 2.38 1.187 4.757 2.374 5.946 2.373 2.378 7.122 3.567 14.244 3.567m-13.058-38.05c-2.374-1.19-3.56-2.378-4.748-4.756-1.187-1.19-2.374-3.567-2.374-7.134s2.374-8.323 5.935-10.7c3.56-3.568 8.31-4.757 13.057-4.757 1.187 0 2.374 0 3.56 1.19 1.188 0 2.375 0 4.75 1.188v-2.378c0-3.568 0-5.946 1.186-7.135 1.187-1.188 2.374-1.188 4.748-1.188 1.188 0 2.375 0 3.562 1.19 0 1.188 1.187 1.188 1.187 2.377 0 2.377-1.188 3.566-3.562 3.566-2.374 0-3.56-1.19-3.56-2.378v-2.378c-1.188 0-2.375 0-2.375 1.19 0 1.188-1.187 2.377-1.187 4.756 1.187 1.19 1.187 2.378 1.187 2.378 2.374 1.19 4.748 3.567 5.935 5.945 1.187 2.377 2.374 4.755 2.374 7.133 0 4.756-2.374 8.323-5.935 10.7-3.56 2.38-8.31 3.57-11.87 3.57-3.56 0-7.123-1.19-9.497-1.19-2.374 0-4.748 0-5.935 1.19-2.374 0-3.56 2.377-3.56 4.755 0 1.19 1.186 1.19 3.56 2.378 1.187 0 4.748 1.19 9.497 1.19h5.935c5.935 0 10.683 0 14.244 2.377 3.562 1.19 5.936 4.756 5.936 10.7 0 4.758-2.374 8.325-5.935 11.892-3.56 2.378-8.308 3.567-14.243 3.567-7.123 0-11.87-1.19-16.62-3.567-3.56-2.378-5.934-4.756-5.934-8.323 0-1.19 1.187-3.568 3.56-4.757 1.188-1.19 3.562-1.19 7.123-2.378-3.56-1.19-4.748-2.378-7.122-3.567-1.187-2.378-2.374-3.567-2.374-7.134 0-2.378 0-4.756 2.374-7.134 1.187-1.19 3.56-2.378 7.122-2.378M170.902 302.12v-14.27c-1.187 1.19-2.374 2.378-3.56 2.378-1.188 0-3.562 0-4.75 1.19-2.373 0-3.56 1.188-4.747 2.377-1.187 2.38-2.374 5.946-2.374 9.513s1.188 7.134 1.188 8.323c1.187 1.19 2.374 2.38 3.56 2.38 3.562 0 5.936-1.19 7.123-3.568 2.375-2.378 3.562-4.756 3.562-8.323m0-19.026v-5.945c0-2.38 0-4.757-1.187-5.946 0-1.19-2.374-1.19-5.935-1.19-2.374 0-3.56 0-5.935 1.19l-3.56 3.567h1.186c1.188 0 2.375 1.19 3.562 2.38 0 0 1.187 1.188 1.187 3.566 0 1.19-1.188 2.378-1.188 3.567-1.187 1.19-2.374 1.19-4.748 1.19 0 0-1.188 0-2.375-1.19-1.188-1.19-2.375-2.378-2.375-4.756v-3.567c1.187-2.378 3.56-4.756 7.123-5.945 3.56 0 5.935-1.19 9.496-1.19 4.748 0 8.31 1.19 10.683 3.568 2.374 1.19 3.56 3.567 3.56 5.945v23.78c0 3.568 1.19 5.946 1.19 7.135 0 2.378 1.186 3.567 3.56 3.567 1.187 0 2.374-1.19 3.56-2.378 0-2.378 1.188-4.756 1.188-8.323V294.983h1.187v8.325c0 4.756-1.187 7.134-1.187 8.323-2.374 2.38-4.748 2.38-8.31 2.38-2.374 0-4.748 0-7.122-1.19-1.187-1.19-2.374-3.567-2.374-5.945-2.375 3.567-4.75 5.945-7.123 7.134h-7.122c-2.374 0-4.75 0-7.123-1.19-3.56-2.378-4.748-4.756-4.748-8.323 0-4.756 1.187-7.134 4.748-10.702 2.374-2.378 5.936-3.567 10.684-3.567 3.56 0 5.935-1.19 8.31-2.378 1.186 0 1.186-2.378 1.186-4.756M249.247 278.338h-11.87v32.104c0 1.19 1.186 1.19 1.186 1.19 1.187 1.188 2.374 1.188 3.56 1.188h9.498c4.75 0 8.31-1.19 10.684-4.756 2.374-2.378 3.56-5.945 3.56-10.7 0-5.947-1.186-10.703-4.747-14.27-2.374-3.567-5.935-4.756-11.87-4.756m-11.87-1.19h9.495c4.75 0 8.31-1.188 10.684-2.377 3.56-2.377 4.748-5.944 4.748-11.89 0-5.945-1.187-9.512-3.56-11.89-2.375-2.378-5.936-3.567-11.872-3.567h-8.308c-1.188 0-1.188 1.19-1.188 1.19v28.535zm20.18 36.86h-48.67v-1.188c7.122 0 11.87 0 13.058-1.19 1.187 0 1.187 0 1.187-1.188 1.187 0 1.187-1.19 1.187-3.567v-53.507c0-2.378 0-3.567-1.188-4.756h-1.187c-1.187-1.19-5.936-1.19-13.058-1.19v-1.188h42.734c7.123 0 13.058 2.378 17.806 5.945 3.56 3.566 5.936 7.133 5.936 9.51 0 4.757-1.188 8.325-3.562 9.514-2.374 3.567-8.31 4.756-16.618 5.945 8.31 1.188 15.43 3.566 18.992 8.322 3.562 2.378 4.75 5.945 4.75 10.702 0 4.756-2.375 8.323-5.937 11.89-3.56 3.567-9.496 5.945-15.43 5.945M309.785 302.12v-14.27c0 1.19-1.187 2.378-3.56 2.378-1.188 0-2.375 0-4.75 1.19-1.186 0-3.56 1.188-4.747 2.377-1.187 2.38-2.374 5.946-2.374 9.513s1.187 7.134 1.187 8.323c1.188 1.19 2.375 2.38 4.75 2.38 2.373 0 4.747-1.19 7.12-3.568 1.188-2.378 2.375-4.756 2.375-8.323m1.187-19.026v-5.945c0-2.38-1.187-4.757-1.187-5.946-1.187-1.19-3.56-1.19-5.935-1.19-2.374 0-4.748 0-7.122 1.19l-3.56 3.567h1.186c1.187 0 2.374 1.19 3.56 2.38 1.188 0 1.188 1.188 1.188 3.566 0 1.19 0 2.378-1.187 3.567-1.187 1.19-2.374 1.19-3.56 1.19-1.188 0-2.375 0-2.375-1.19-2.374-1.19-3.56-2.378-3.56-4.756 0-1.19 0-2.378 1.186-3.567 0-2.378 2.374-4.756 7.122-5.945 2.374 0 4.748-1.19 8.31-1.19 4.747 0 8.31 1.19 11.87 3.568 2.374 1.19 3.56 3.567 3.56 5.945v30.915c0 2.378 1.188 3.567 3.562 3.567 2.374 0 3.56-1.19 3.56-2.378 1.188-2.378 1.188-4.756 1.188-8.323V294.983h1.187v8.325c0 4.756 0 7.134-1.187 8.323-1.187 2.38-3.56 2.38-8.31 2.38-2.373 0-4.747 0-5.934-1.19-2.374-1.19-3.562-3.567-3.562-5.945-1.187 3.567-3.56 5.945-7.122 7.134h-7.122c-2.374 0-4.748 0-7.122-1.19-3.56-2.378-4.748-4.756-4.748-8.323 0-4.756 1.187-7.134 4.748-10.702 2.374-2.378 5.935-3.567 10.683-3.567 3.56 0 7.12-1.19 8.308-2.378 1.187 0 2.374-2.378 2.374-4.756" fill="#196739"/><path d="M344.21 245.045c1.186 0 2.373 1.19 3.56 2.378 1.188 1.19 2.375 2.378 2.375 3.567 0 2.378-1.187 3.567-2.375 4.756-1.187 1.19-2.374 1.19-3.56 1.19-2.375 0-3.562 0-4.75-1.19-1.186-1.19-1.186-2.378-1.186-4.756 0-1.19 0-2.378 1.187-3.567 1.188-1.19 2.375-2.378 4.75-2.378m-4.75 78.477V273.58c-1.186-1.19-1.186-1.19-2.373-1.19-1.187 0-3.56-1.188-8.31-1.188l20.18-2.378v48.75c0 4.757-1.187 8.324-4.748 11.89-3.562 3.568-8.31 5.946-11.87 5.946-2.375 0-4.75 0-7.123-1.19l-3.56-3.566v-3.567c0-2.38 0-3.568 2.373-4.757 1.187 0 2.374-1.19 2.374-1.19 2.374 0 3.56 1.19 3.56 2.38 1.188 0 2.375 2.377 2.375 3.566 0 1.188-1.188 2.377-2.375 3.566 0 1.19-1.187 1.19-3.56 1.19 1.186 1.188 1.186 2.377 2.373 2.377h2.374c2.374 0 4.748-1.19 5.935-2.378 1.187-1.19 2.374-4.756 2.374-8.323M381.007 302.12v-14.27c-1.187 1.19-2.374 2.378-3.56 2.378-2.375 0-3.562 0-4.75 1.19-2.373 0-3.56 1.188-4.747 2.377-2.374 2.38-2.374 5.946-2.374 9.513s0 7.134 1.187 8.323c1.187 1.19 2.374 2.38 3.56 2.38 2.375 0 4.75-1.19 7.123-3.568 2.374-2.378 3.56-4.756 3.56-8.323m0-19.026v-5.945c0-2.38 0-4.757-1.186-5.946-1.187-1.19-2.374-1.19-5.935-1.19-2.374 0-4.748 0-5.935 1.19-2.374 1.19-3.56 2.378-3.56 3.567h1.186c1.187 0 2.374 1.19 2.374 2.38 1.187 0 1.187 1.188 1.187 3.566 0 1.19 0 2.378-1.187 3.567-1.187 1.19-2.374 1.19-3.56 1.19-1.188 0-1.188 0-2.375-1.19-2.374-1.19-3.56-2.378-3.56-4.756 0-1.19 1.186-2.378 1.186-3.567 1.188-2.378 3.562-4.756 7.123-5.945 2.374 0 5.935-1.19 8.31-1.19 5.934 0 9.495 1.19 11.87 3.568 2.374 1.19 3.56 3.567 3.56 5.945v30.915c1.188 2.378 2.375 3.567 3.562 3.567 2.374 0 3.56-1.19 4.748-2.378v-15.459H400v8.325c0 4.756 0 7.134-1.187 8.323-1.187 2.38-3.56 2.38-7.122 2.38-3.56 0-5.935 0-7.122-1.19-1.187-1.19-2.374-3.567-3.56-5.945-1.188 3.567-3.562 5.945-5.936 7.134h-7.122c-3.56 0-5.935 0-8.31-1.19-2.374-2.378-3.56-4.756-3.56-8.323 0-4.756 1.186-7.134 3.56-10.702 3.562-2.378 7.123-3.567 10.684-3.567 4.748 0 7.122-1.19 8.31-2.378 1.186 0 2.373-2.378 2.373-4.756M156.656 334.223h2.374c-1.187 1.19-1.187 2.378-2.374 3.567-1.187 1.19-2.374 1.19-3.56 1.19-2.375 0-3.562 0-4.75-1.19 0 0-1.186-1.19-1.186-2.378-1.187-1.19-1.187-2.378-1.187-3.567 0-2.378 0-3.567 1.187-4.756 0-1.19 1.187-1.19 2.374-2.38 1.187 0 2.374-1.188 3.56-1.188 1.188 0 2.375 1.19 3.562 1.19 1.187 1.188 1.187 2.377 2.374 3.566h-2.374c0-1.19-1.187-1.19-1.187-2.378H149.534c0 1.19-1.188 1.19-1.188 2.378v5.945c0 1.19 1.187 2.378 1.187 2.378 1.187 0 2.374 1.19 3.56 1.19 0 0 1.188-1.19 2.375-1.19 0-1.188 1.186-1.188 1.186-2.377M161.404 338.98v-14.27h10.683v1.19h-9.496v4.756h8.31v1.19h-8.31v4.755h9.497v2.38h-10.683zM174.46 338.98v-14.27h2.375l7.122 10.702v-10.7h2.374v14.267h-2.373l-7.122-11.89v11.89h-2.374zM193.453 338.98V325.9h-4.748v-1.19h10.683v1.19h-4.748v13.08h-1.187zM204.136 330.656H210.07l1.19-1.19V325.9H204.135v4.756zm-2.374 8.323v-14.27h9.497c1.186 0 1.186 0 1.186 1.19 1.187 1.19 1.187 1.19 1.187 2.378 0 1.19 0 2.378-1.187 2.378-1.187 1.19-1.187 1.19-3.562 1.19 1.187 0 1.187 1.188 1.187 1.188 1.19 0 1.19 1.19 2.376 1.19l2.374 4.755h-2.374l-2.375-3.568-1.186-1.19c0-1.188-1.187-1.188-1.187-1.188v-1.19h-3.561v7.135h-2.374zM218.38 331.845c0 1.19 0 3.567 1.187 3.567 1.187 1.19 2.374 2.378 3.562 2.378 1.186 0 2.373-1.19 3.56-2.378 1.187 0 1.187-2.378 1.187-3.567v-3.567l-2.374-2.378h-2.374c-1.19 0-2.376 0-3.563 1.19-1.187 1.188-1.187 2.377-1.187 4.755m-2.374 0c0-2.378 0-4.756 2.374-5.945 1.187-1.19 2.374-2.378 4.75-2.378 1.186 0 2.373 1.19 3.56 1.19 1.187 1.188 2.374 1.188 2.374 2.377 0 1.188 1.187 2.377 1.187 4.755 0 1.19-1.186 2.378-1.186 3.567-1.187 1.19-1.187 2.378-2.374 2.378-1.187 1.19-2.374 1.19-3.56 1.19-1.19 0-2.376 0-3.563-1.19-1.187 0-2.374-1.19-2.374-2.378-1.187-1.19-1.187-2.378-1.187-3.567M237.373 334.223h2.374v1.19c0 1.188 1.187 1.188 1.187 1.188 1.187 0 1.187 1.19 2.374 1.19s1.187-1.19 2.374-1.19h1.187v-3.566h-1.188c-1.187 0-1.187-1.19-2.374-1.19-2.374 0-2.374 0-3.56-1.188 0 0-1.188 0-1.188-1.19l-1.187-1.188c0-1.19 1.187-1.19 1.187-2.378 0-1.19 1.187-1.19 2.374-1.19 0-1.188 1.187-1.188 2.374-1.188s2.374 0 2.374 1.19c1.187 0 1.187 1.188 2.374 1.188v2.378h-1.187c0-1.19 0-1.19-1.188-2.378h-4.748c-1.187 1.19-1.187 1.19-1.187 2.378l1.187 1.19s1.187 0 2.374 1.188h3.56c0 1.19 1.188 1.19 1.188 2.378 1.187 0 1.187 1.19 1.187 1.19 0 1.188 0 2.377-1.187 2.377 0 1.19-1.187 1.19-1.187 2.38h-7.122c0-1.19-1.188-1.19-1.188-2.38-1.187-1.188-1.187-1.188-1.187-2.377M252.804 331.845c0 1.19 1.187 3.567 1.187 3.567 1.188 1.19 2.375 2.378 3.562 2.378 2.374 0 3.56-1.19 3.56-2.378 1.188 0 2.375-2.378 2.375-3.567 0-1.19-1.187-2.378-1.187-3.567 0-1.19-1.187-1.19-1.187-2.378h-3.56c-1.188 0-2.375 0-3.562 1.19 0 1.188-1.186 2.377-1.186 4.755m-1.187 0c0-2.378 0-4.756 1.187-5.945 1.187-1.19 3.56-2.378 4.748-2.378 2.374 0 3.56 1.19 3.56 1.19 1.188 1.188 2.375 1.188 3.562 2.377v8.322c-1.187 1.19-2.374 2.378-3.56 2.378-1.188 1.19-2.375 1.19-3.562 1.19-1.187 0-2.374 0-3.56-1.19-1.188 0-1.188-1.19-2.375-2.378v-3.567M277.73 334.223h2.376c-1.188 1.19-1.188 2.378-2.375 3.567-1.186 1.19-2.373 1.19-3.56 1.19-2.374 0-3.56 0-4.748-1.19 0 0-1.187-1.19-1.187-2.378-1.187-1.19-1.187-2.378-1.187-3.567 0-2.378 0-3.567 1.187-4.756 0-1.19 1.187-1.19 2.374-2.38 1.186 0 2.373-1.188 3.56-1.188 1.187 0 2.374 1.19 3.56 1.19 1.188 1.188 1.188 2.377 2.376 3.566h-2.375c0-1.19-1.186-1.19-1.186-2.378h-5.934c0 1.19-1.188 1.19-1.188 2.378v5.945c0 1.19 1.187 2.378 1.187 2.378 1.186 0 2.373 1.19 3.56 1.19 0 0 1.187-1.19 2.374-1.19 0-1.188 1.187-1.188 1.187-2.377M282.48 324.71h2.373v14.27h-2.374v-14.27zM290.788 333.034h4.748l-1.187-4.756c-1.188-1.19-1.188-1.19-1.188-2.378 0 1.19-1.187 1.19-1.187 2.378l-1.187 4.756zm-4.748 5.945l5.935-14.27h2.374l5.935 14.27h-2.375l-2.374-4.757H289.6l-1.186 4.756h-2.374zM301.47 338.98v-14.27h2.375v11.89h7.123v2.38h-9.497z" fill="#196739"/></svg>