<?xml version="1.0" encoding="utf-8"?>
<!-- Generator: Adobe Illustrator 23.0.1, SVG Export Plug-In . SVG Version: 6.00 Build 0)  -->
<svg version="1.1" id="Layer_1" xmlns="http://www.w3.org/2000/svg" xmlns:xlink="http://www.w3.org/1999/xlink" x="0px" y="0px"
	 viewBox="0 0 167.4 96.9" style="enable-background:new 0 0 167.4 96.9;" xml:space="preserve">
<style type="text/css">
	.st0{fill-rule:evenodd;clip-rule:evenodd;fill:#E1251B;}
	.st1{fill:url(#SVGID_1_);}
	.st2{fill:#FF9E18;}
	.st3{fill:url(#SVGID_2_);}
	.st4{fill:url(#SVGID_3_);}
	.st5{fill:#E1251B;}
	.st6{fill:url(#SVGID_4_);}
	.st7{fill:url(#SVGID_5_);}
	.st8{fill:#6F6259;}
</style>
<g>
	<g>
		<g>
			<path class="st0" d="M90.2,40.4c-1,2.4-2.2,4.4-5.8,6.2c4,0.7,8.5,0.3,6.7-5.5c0.1,1.1-0.8,1.9-1.4,2.9
				C89.9,42.9,90.1,41.7,90.2,40.4L90.2,40.4z M63.8,15.4c11.8,8.7,31.6,6,37.5,5.5c8.6-0.6,26.1-1.6,25.1,12
				c-0.1,1.9-1.2,3.6-1.2,3.6c2.5-11.5-12.3-12.9-20.5-10.6c-3.2,0.9-7.8,1.4-7.8,1.4s2.2-0.8,3.8-1.5c1.6-0.7,4-2.3,4-2.3
				s-6.7,1.3-10.9,2C89.6,26,86,25.7,86,25.7l4.9,1.2C75.5,26.6,67.1,19.8,63.8,15.4L63.8,15.4z M60.5,16
				c-7.2-4.1-15.3-4.6-23.6-3.6c9.1,2.3,13.7,3.2,18,5.8C67,25.7,65.3,32.9,83.1,34.2c-1.5-0.6-2.9-1.3-4.4-1.9
				c14.6,0.9,18.2-0.7,26.3-5.9c-8.2,2.4-17.1,3.9-29.8-1.2C70.5,23.2,67.3,20,60.5,16L60.5,16z M63.5,28.8c0,0,2.1,5.4,4.9,7.8
				c7.8,6.5,18.3,2.3,25.7-2.4C83.4,36.1,72.5,37,63.5,28.8L63.5,28.8z M89.5,38.5c-4.6,2.1-12.2,5.1-17.4,3.4
				C78.1,47.3,86.7,45.8,89.5,38.5L89.5,38.5z"/>
		</g>
		<g>
			
				<linearGradient id="SVGID_1_" gradientUnits="userSpaceOnUse" x1="108.6544" y1="1428.2134" x2="107.1154" y2="1456.9412" gradientTransform="matrix(1 0 0 1 9.3926 -1421.3917)">
				<stop  offset="0" style="stop-color:#EC1C24"/>
				<stop  offset="1" style="stop-color:#F89F1B"/>
			</linearGradient>
			<path class="st1" d="M116.3,26.6c-0.9,1.1-2,2-3.4,2.7c-2.3,1.2-3.8,1-3.8,1c2.5,2,6.4,1.5,8.9,0.4c0,0-0.1,0.2-0.4,0.5
				c-0.8,0.9-1.6,1.2-2.6,1.7c-0.7,0.3-1.8,0.5-1.8,0.5c2,0.9,3.4,0.9,5.5,0.2c0,0,0,0.1-0.1,0.2c-0.3,0.7-0.7,1-1.4,1.3
				c0,0,1.4,0.3,2.1,0.3c1.6,0,2.9-0.7,3.4-2.5c0,0,0,1-0.1,1.8c-0.1,0.8-0.8,1.5-0.7,1.4c0.9-0.2,1.6-0.4,2.3-0.8
				C124.6,28.3,118.6,26.9,116.3,26.6z"/>
			<path class="st2" d="M116.3,26.6c-0.9,1.1-2,2-3.4,2.7c-2.3,1.2-3.8,1-3.8,1c2.5,2,6.4,1.5,8.9,0.4c0,0-0.1,0.2-0.4,0.5
				c-0.8,0.9-1.6,1.2-2.6,1.7c-0.7,0.3-1.8,0.5-1.8,0.5c2,0.9,3.4,0.9,5.5,0.2c0,0,0,0.1-0.1,0.2c-0.3,0.7-0.7,1-1.4,1.3
				c0,0,1.4,0.3,2.1,0.3c1.6,0,2.9-0.7,3.4-2.5c0,0,0,1-0.1,1.8c-0.1,0.8-0.8,1.5-0.7,1.4c0.9-0.2,1.6-0.4,2.3-0.8
				C124.6,28.3,118.6,26.9,116.3,26.6z"/>
			
				<linearGradient id="SVGID_2_" gradientUnits="userSpaceOnUse" x1="106.6408" y1="1427.8237" x2="108.1684" y2="1456.3398" gradientTransform="matrix(1 0 0 1 9.3926 -1421.3917)">
				<stop  offset="0" style="stop-color:#EC1C24"/>
				<stop  offset="1" style="stop-color:#F89F1B"/>
			</linearGradient>
			<path class="st3" d="M116.2,0.6C116.2,0.6,116.2,0.6,116.2,0.6c-0.3-0.1-0.6-0.1-1-0.1C115.9,0.7,116.3,0.8,116.2,0.6z"/>
			
				<linearGradient id="SVGID_3_" gradientUnits="userSpaceOnUse" x1="103.6306" y1="1427.9509" x2="102.093" y2="1456.6515" gradientTransform="matrix(1 0 0 1 9.3926 -1421.3917)">
				<stop  offset="0" style="stop-color:#EC1C24"/>
				<stop  offset="1" style="stop-color:#F89F1B"/>
			</linearGradient>
			<path class="st4" d="M114.6,8.2c-1.4-1.4-3.3-1.7-3.3-1.7l1.1,1.1C113,8.2,113.9,7.9,114.6,8.2z"/>
			<path class="st5" d="M114.6,8.2c-1.4-1.4-3.3-1.7-3.3-1.7l1.1,1.1C113,8.2,113.9,7.9,114.6,8.2z"/>
			
				<linearGradient id="SVGID_4_" gradientUnits="userSpaceOnUse" x1="115.5294" y1="1428.5878" x2="113.991" y2="1457.3055" gradientTransform="matrix(1 0 0 1 9.3926 -1421.3917)">
				<stop  offset="0" style="stop-color:#EC1C24"/>
				<stop  offset="1" style="stop-color:#F89F1B"/>
			</linearGradient>
			<path class="st6" d="M131.2,13.3c2.8-0.5,6.9,4.2,6.9,4.2c-2.1-4.4-8.3-11.7-14.5-14.5c7.8,2.5,13.3,9.9,17.3,17.6
				c-3.2-10.8-12-17.2-18.2-19.8c-0.6-0.1-1.4-0.1-2.6-0.1c-0.9,0-2.4-0.1-4-0.1c0,0,0,0.1,0,0.1c0.1,0.2-0.3,0.1-1-0.1
				c-1.9-0.1-3.9-0.3-5.6-0.5c-0.6,0.5-0.9,1.2-1.1,1.7c-0.5,1.7,0.4,2.6,0.4,2.6s0.1-1.1,1.2-1.1s2.8,1.5,3.7,2.8
				c0.9,1.3,1.5,2.6,1.5,2.6c-2.1-0.4-4.2-0.8-6.2,0.2c0,0,1.9,0.1,5.4,3.2c2.6,2.3,3.9,5.2,4.1,7.9c2.5,0.3,11.5,2.1,9.6,14.3
				l5.7-7c-1-1.8-2-3.9-2.6-5.2C130.2,19.4,128.4,13.9,131.2,13.3z M118.3,5.7c-1.1-0.6-1-1.8-1-1.8s1.5,0,4.6,1.6
				C121.9,5.5,119.4,6.3,118.3,5.7z"/>
			
				<linearGradient id="SVGID_5_" gradientUnits="userSpaceOnUse" x1="114.9825" y1="1427.3109" x2="116.493" y2="1455.5063" gradientTransform="matrix(1 0 0 1 9.3926 -1421.3917)">
				<stop  offset="0" style="stop-color:#EC1C24"/>
				<stop  offset="1" style="stop-color:#F89F1B"/>
			</linearGradient>
			<path class="st7" d="M131.2,13.3c2.8-0.5,6.9,4.2,6.9,4.2c-2.1-4.4-8.3-11.7-14.5-14.5c7.8,2.5,13.3,9.9,17.3,17.6
				c-3.2-10.8-12-17.2-18.2-19.8c-0.6-0.1-1.4-0.1-2.6-0.1c-0.9,0-2.4-0.1-4-0.1c0,0,0,0.1,0,0.1c0.1,0.2-0.3,0.1-1-0.1
				c-1.9-0.1-3.9-0.3-5.6-0.5c-0.6,0.5-0.9,1.2-1.1,1.7c-0.5,1.7,0.4,2.6,0.4,2.6s0.1-1.1,1.2-1.1s2.8,1.5,3.7,2.8
				c0.9,1.3,1.5,2.6,1.5,2.6c-2.1-0.4-4.2-0.8-6.2,0.2c0,0,1.9,0.1,5.4,3.2c2.6,2.3,3.9,5.2,4.1,7.9c2.5,0.3,11.5,2.1,9.6,14.3
				l5.7-7c-1-1.8-2-3.9-2.6-5.2C130.2,19.4,128.4,13.9,131.2,13.3z M118.3,5.7c-1.1-0.6-1-1.8-1-1.8s1.5,0,4.6,1.6
				C121.9,5.5,119.4,6.3,118.3,5.7z"/>
		</g>
	</g>
	<g>
		<g>
			<path class="st5" d="M48.8,43.2c2.1,0,4.5,1.5,7.3,4.5c1.2,2,1.8,5.6,1.8,10.6v0.5l-0.4,13.6v1c0,2.6-0.7,4.8-2.2,6.4l0.6-0.1
				c1.2,0,2.6,0.1,4.4,0.2c0.9,0,1.7-0.2,2.5-0.5l0.3,0.4v0.1c-2.2,2.2-4.7,4.1-7.3,5.5l-2.1,0.2c-1.7-0.1-3.2-0.1-4.6-0.1h-0.3
				c-0.4,0-1.1,0-2,0.1l-0.2-0.7v-0.2c2.3-1.4,3.4-3.7,3.4-6.9C50,75.3,50,73.6,50,72.5c0-1.1,0.1-1.7,0.2-1.7
				c-0.1-1-0.1-1.7-0.1-2.2V54.3c-0.5-1.5-1.9-3-4-4.4c-0.6-0.4-1.4-0.7-2.5-1.1c-2.1,0.8-3.4,1.7-3.9,2.6c-0.2,0.3-0.3,0.6-0.3,0.8
				v3.7l0.4,11.8c0,4-0.6,7.4-1.9,10.3c-0.9,1-1.4,1.7-1.4,1.9c0.1-0.1,0.2-0.1,0.3-0.1c3.8,0,6.2-0.3,7-0.8
				c0.3,0.1,0.5,0.3,0.5,0.4v0.1c-1.2,1.5-2.7,2.7-4.4,3.7c-2.1,1.6-3.7,2.4-4.8,2.4h-0.6c-1.2,0-2.9-0.1-5-0.3
				c-0.1,0.1-0.3,0.1-0.5,0.1c-0.1,0-0.2-0.2-0.4-0.6c2.1-2.7,3.2-4.7,3.2-6v-0.1c0-2.9,0.1-10,0.3-21.3c0-3.7-1.3-6-4-7
				c-1.8-0.9-3-1.4-3.6-1.4h-0.4c-0.7,0-1.2,0.6-1.4,1.8c-0.4,1.1-0.6,2.8-0.6,5.1V68c0,4.4-0.3,7.9-1,10.5
				c-1.9,2.2-3.4,3.7-4.7,4.3c-3,1.9-4.9,2.8-5.6,2.8h-0.3c-0.6,0-2.3-0.4-5-1.3H4.3c-0.5,0-1.6,0.9-3.1,2.6L0.7,87
				c-0.5,0-0.7-0.2-0.7-0.3c0-1.3,1.2-3.1,3.7-5.4c2.5-2.1,4.4-3.1,5.5-3.1h0.5c1,0,2.4,0.3,4.3,0.9c0.3-0.3,0.4-1.5,0.4-3.7v-1
				c0-1.5-0.1-5.3-0.2-11.4c0-6.2,1.2-10.8,3.7-13.8c1.2-1.4,2.4-2.4,3.5-3c3.7-1.9,6.5-2.8,8.3-2.8h0.2c1.5,0,3.7,1.1,6.6,3.4
				c0.9,1,1.3,1.5,1.4,1.5c4.3-3.4,7.7-5.1,10.1-5.1H48.8z M10,43.4c0.9,0,2.1,0.3,3.6,0.9c0.7,0.3,1.5,0.4,2.4,0.4h0.4
				c1.7,0,3.6-0.4,5.7-1.2v0.1l0.1,0.6c-3.8,3.5-6.2,5.3-7.2,5.4c-0.6,0.3-1.4,0.5-2.5,0.5H12c-0.4,0-2.1-0.5-5.2-1.4
				c-0.4-0.1-0.8-0.1-1.2-0.1c-1,0-2.1,0.6-3.1,1.7C2.1,50.7,2,51.3,2,52v1.9c-0.1,0.3-0.3,0.4-0.7,0.4c-0.9-0.2-1.3-0.8-1.3-2V52
				c0-1.8,1.1-3.8,3.3-5.9c2.4-1.8,4.6-2.7,6.5-2.7H10z"/>
			<path class="st5" d="M73.4,55.9c0.9,0.4,2.6,1.9,5.1,4.3l-1.8,2c-0.2,9.6-0.3,15.1-0.3,16.6c0.9,1,1.6,1.5,2,1.5h0.2
				c0.3,0,1.8-1,4.4-3c0.1-4.6,0.2-9.6,0.3-14.9c-0.2-0.4-0.9-1.1-1.9-2.2c2.4-2.5,3.9-3.9,4.4-4.1h0.2c0.6,0,1.5,0.7,2.7,2
				c0.9,0.7,1.7,1.4,2.3,2.1c-1.1,1.3-1.8,2.1-1.9,2.4c0,4.5,0,9.8-0.1,15.9c0.1,3.1,0.1,9.3,0.1,11.7c0.3,0.8,0.6,1.3,1,1.5h0.2
				c0.2,0,0.7-0.3,1.5-0.9c0.3,0.1,0.5,0.3,0.5,0.7V92c-2,1.9-3.8,3.6-5.2,4.8H87c-2.2-1.7-3.4-3.1-3.6-4.4
				c0.3-2.9,0.4-9.2,0.4-12.1h-0.1c-4.8,3.1-7.5,4.9-8.1,5.5V86c-0.7-0.4-1.8-1.2-3.2-2.4c-1-0.8-2.1-1.5-3.2-2
				c-0.1,0-0.2-0.1-0.3-0.4c0-0.3,0.4-0.7,1.1-1.2c0.4-0.8,0.6-1.2,0.6-1.4l0.2-16.3c-0.5-0.5-0.8-0.7-1.1-0.7h-0.4
				c-0.3,0.1-0.5,0.4-0.8,0.7c-0.3,0-0.5-0.3-0.7-0.9c0-0.5,0.7-1.2,2-2.1C69.9,58.9,71.1,57.8,73.4,55.9L73.4,55.9z"/>
			<path class="st5" d="M106.1,48.4h0.1l0.1,0.5v7.8c0.6,0.1,1.1,0.2,1.5,0.2h1.2c1.4,0,2.1,0.1,2.1,0.3l0.1,0.6v1.6
				c0,0.6-0.3,0.9-0.9,0.9h-0.1c-0.7,0-1.6-0.1-2.6-0.2c-1,0.1-1.5,0.5-1.5,1c0,0.2,0,0.4,0.1,0.8c-0.1,5.3-0.1,9.8-0.1,13.5
				c0,0.6,0,1.8-0.1,3.5l2.7,2c0.1,0,0.6-0.4,1.5-1.1c0.1-0.1,0.3-0.1,0.4-0.1h0.1c0.3,0.1,0.5,0.3,0.6,0.6v0.5
				c-0.2,0.3-2.3,1.9-6.1,4.9H105c-2.1-1.7-4-2.9-5.8-3.8c-0.7,0-1.2-0.3-1.3-0.8v-0.1c0-0.2,0.4-0.7,1.3-1.5
				c0.5-1.9,0.8-4.7,0.8-8.3c-0.1-1.7-0.1-3.3-0.1-4.9v-3.2c0-0.6,0-1.4,0.1-2.5c-0.3-0.2-1-0.3-2.1-0.4c-0.3-0.3-0.5-0.4-0.5-0.5
				v-0.1C98.5,57.5,101.4,53.8,106.1,48.4z"/>
			<path class="st5" d="M127,56h0.2c2.2,1.4,5.4,2.9,9.8,4.4v0.2c-0.1,3.8-0.2,6.2-0.2,7.3v13.2c-0.4,0.3-2.2,1.2-5.5,2.7
				c-1,0.6-2,1.3-2.9,1.9h-0.2c-4.7-2.9-8.3-4.3-10.9-4.3l-0.1-0.5c0-0.2,0.4-0.7,1.2-1.7c0.2-1.4,0.3-4.1,0.4-7.9
				c-0.1-4.8-0.1-7.9-0.1-9.3c-0.1-0.4-0.1-0.6-0.1-0.8c0.5-0.4,2.1-1.2,4.9-2.5C123.5,58.6,124.7,57.7,127,56z M124.8,61.1
				c0.1,1.2,0.1,2.1,0.1,2.7v14.7l5.8,2.2V64.6c0-1.1-0.4-1.6-1.1-1.6C128.9,62.6,127.3,62,124.8,61.1z"/>
			<path class="st5" d="M157.6,55.6c1.9,2.1,4.3,3.1,7.3,3.1c0.8,0,1.1-0.7,1.1-2.1h1.1v3.6c-2.9,1.4-5.1,2-6.7,2
				c-2.2,0-4.4-0.7-6.7-2h-0.6c-0.7,0.1-1.1,0.4-1.1,1v2.1c0.9,1.3,5.4,3.9,13.4,7.7c1.1,1.2,1.7,2.4,1.7,3.6v5.1
				c-3.3,4.1-6.4,6.2-9.5,6.2c-3.4-2-6.2-3.1-8.4-3.1h-2.8c-0.8,0.1-1.1,0.4-1.1,1v0.5l0.6,1h-1.1c-0.5,0-1.1-0.5-1.7-1.6
				c1.4-3.4,4.2-5.1,8.4-5.1h1.7c1.5,0,4.7,1,9.5,3.1v-0.5c0-0.4,0.2-0.9,0.6-1.6c0-1.9-5-4.8-14.9-8.6c-1.3-2-1.9-4.2-1.9-6.7
				c0-1.8,3-4.5,8.9-8.2C155.6,56.1,156.3,55.9,157.6,55.6z"/>
		</g>
		<g>
			<path class="st8" d="M116.2,51.1l0.5,0.2c-0.2,0.6-0.6,1.1-1.1,1.4c-0.5,0.3-1.1,0.5-1.8,0.5c-0.9,0-1.7-0.3-2.2-0.8
				c-0.5-0.5-0.8-1.2-0.8-2c0-0.9,0.3-1.7,0.9-2.3c0.6-0.6,1.4-0.9,2.5-0.9c0.7,0,1.3,0.1,1.7,0.4c0.4,0.3,0.6,0.7,0.6,1.1
				c0,0.3-0.1,0.5-0.3,0.7c-0.2,0.2-0.4,0.3-0.7,0.3c-0.2,0-0.4-0.1-0.6-0.2c-0.1-0.1-0.2-0.3-0.2-0.5c0-0.2,0.1-0.4,0.2-0.7
				c0.1-0.1,0.1-0.2,0.1-0.2c0-0.1-0.1-0.1-0.2-0.2c-0.2-0.1-0.4-0.1-0.7-0.1c-0.5,0-0.9,0.2-1.1,0.5c-0.3,0.4-0.5,1.1-0.5,2
				c0,0.9,0.2,1.5,0.5,1.9c0.3,0.4,0.7,0.5,1.2,0.5c0.4,0,0.7-0.1,1.1-0.4C115.7,52,115.9,51.6,116.2,51.1z"/>
			<path class="st8" d="M124.6,50.4h-3.8c0,0.8,0.2,1.3,0.5,1.7c0.3,0.4,0.7,0.6,1.2,0.6c0.3,0,0.7-0.1,1-0.3c0.3-0.2,0.6-0.5,0.9-1
				l0.4,0.3c-0.3,0.6-0.7,1-1.1,1.3c-0.4,0.3-1,0.4-1.6,0.4c-0.9,0-1.6-0.3-2.2-0.8c-0.6-0.5-0.8-1.2-0.8-2.1c0-0.9,0.3-1.6,0.8-2.1
				c0.6-0.6,1.2-0.9,2.1-0.9c0.6,0,1,0.1,1.5,0.3c0.4,0.2,0.7,0.6,0.9,1C124.5,49.1,124.6,49.7,124.6,50.4z M120.8,49.8h1.8
				c0.2,0,0.3,0,0.4-0.1c0.1-0.1,0.1-0.2,0.1-0.5c0-0.5-0.1-0.8-0.3-1.1c-0.2-0.2-0.5-0.4-0.8-0.4c-0.4,0-0.7,0.2-0.9,0.5
				C120.9,48.6,120.8,49.2,120.8,49.8z"/>
			<path class="st8" d="M131,52.5v0.5h-3.8v-0.5h0.5c0.2,0,0.3,0,0.4-0.1c0.1-0.1,0.1-0.2,0.1-0.3v-3.3c0-0.3-0.1-0.5-0.2-0.6
				c-0.1-0.1-0.3-0.2-0.5-0.2h-0.3v-0.5l2.3-0.1v1.8c0.1-0.6,0.4-1.1,0.7-1.4c0.3-0.3,0.7-0.5,1.2-0.5c0.4,0,0.7,0.1,0.9,0.3
				c0.2,0.2,0.3,0.4,0.3,0.7c0,0.3-0.1,0.5-0.2,0.6c-0.1,0.2-0.3,0.2-0.5,0.2c-0.2,0-0.4-0.1-0.5-0.2c-0.1-0.1-0.2-0.3-0.2-0.5
				c0-0.1,0-0.2,0.1-0.4c0-0.1,0.1-0.1,0.1-0.2c0-0.1,0-0.1,0-0.1c0,0-0.1,0-0.1,0c-0.1,0-0.3,0.1-0.5,0.2c-0.3,0.3-0.5,0.7-0.6,1.2
				c-0.2,0.5-0.3,1.1-0.3,1.6v1.2c0,0.1,0,0.2,0.1,0.3c0.1,0.1,0.2,0.1,0.3,0.1H131z"/>
			<path class="st8" d="M134.6,47.6h3.3v0.5h-0.3c-0.2,0-0.4,0-0.4,0.1c-0.1,0.1-0.1,0.1-0.1,0.2c0,0.1,0,0.2,0.1,0.4l1.4,2.6
				l1.2-2.4c0.1-0.1,0.1-0.2,0.1-0.4c0-0.3-0.3-0.5-0.8-0.5v-0.5h2.4v0.5c-0.2,0-0.4,0.1-0.5,0.2c-0.1,0.1-0.2,0.2-0.3,0.4l-2.3,4.6
				H138l-2.5-4.7c-0.1-0.2-0.2-0.3-0.3-0.4c-0.1-0.1-0.2-0.1-0.3-0.1h-0.1V47.6z"/>
			<path class="st8" d="M149.4,50.4h-3.8c0,0.8,0.2,1.3,0.5,1.7c0.3,0.4,0.7,0.6,1.2,0.6c0.3,0,0.7-0.1,1-0.3c0.3-0.2,0.6-0.5,0.9-1
				l0.4,0.3c-0.3,0.6-0.7,1-1.1,1.3c-0.4,0.3-1,0.4-1.6,0.4c-0.9,0-1.6-0.3-2.2-0.8c-0.6-0.5-0.8-1.2-0.8-2.1c0-0.9,0.3-1.6,0.8-2.1
				c0.6-0.6,1.2-0.9,2.1-0.9c0.6,0,1,0.1,1.5,0.3c0.4,0.2,0.7,0.6,0.9,1C149.3,49.1,149.4,49.7,149.4,50.4z M145.6,49.8h1.8
				c0.2,0,0.3,0,0.4-0.1c0.1-0.1,0.1-0.2,0.1-0.5c0-0.5-0.1-0.8-0.3-1.1c-0.2-0.2-0.5-0.4-0.8-0.4c-0.4,0-0.7,0.2-0.9,0.5
				C145.7,48.6,145.6,49.2,145.6,49.8z"/>
			<path class="st8" d="M152.5,47.6h4.7v0.5l-3.3,4.4h1.5c0.3,0,0.6-0.1,0.8-0.4c0.2-0.2,0.4-0.7,0.5-1.3h0.5l-0.1,2.2h-5.1v-0.5
				l3.3-4.4h-1.3c-0.3,0-0.5,0.1-0.7,0.3c-0.2,0.2-0.3,0.6-0.4,1.2h-0.5L152.5,47.6z"/>
			<path class="st8" d="M166.3,52.4l0.2,0.4c-0.2,0.2-0.5,0.3-0.6,0.3c-0.2,0.1-0.4,0.1-0.6,0.1c-0.3,0-0.6-0.1-0.8-0.2
				c-0.2-0.1-0.4-0.4-0.6-0.8c-0.4,0.4-0.8,0.7-1.1,0.8c-0.3,0.1-0.7,0.2-1.1,0.2c-0.6,0-1-0.1-1.3-0.4c-0.3-0.3-0.5-0.6-0.5-1
				c0-0.6,0.3-1.1,0.9-1.4c0.5-0.3,1.5-0.6,3-0.8v-0.8c0-0.3-0.1-0.6-0.3-0.8c-0.2-0.2-0.5-0.3-0.8-0.3c-0.3,0-0.5,0.1-0.7,0.2
				c-0.1,0.1-0.2,0.1-0.2,0.2c0,0,0,0.1,0.1,0.2c0.1,0.2,0.2,0.4,0.2,0.5c0,0.2-0.1,0.4-0.2,0.5c-0.1,0.1-0.3,0.2-0.6,0.2
				c-0.3,0-0.5-0.1-0.6-0.2c-0.2-0.1-0.2-0.3-0.2-0.6c0-0.4,0.2-0.7,0.6-1c0.5-0.4,1.2-0.5,1.9-0.5c0.6,0,1.1,0.1,1.5,0.3
				c0.3,0.1,0.5,0.3,0.7,0.6c0.2,0.3,0.3,0.6,0.3,1V52c0,0.2,0,0.4,0.1,0.5c0.1,0.1,0.2,0.1,0.3,0.1C166,52.6,166.1,52.5,166.3,52.4
				z M163.8,50.1c-0.8,0.1-1.4,0.3-1.7,0.5c-0.3,0.2-0.4,0.5-0.4,0.9c0,0.3,0.1,0.5,0.2,0.6c0.1,0.1,0.3,0.2,0.6,0.2
				c0.4,0,0.7-0.1,1-0.4c0.3-0.3,0.4-0.7,0.4-1.1V50.1z"/>
		</g>
	</g>
</g>
</svg>
