<svg xmlns="http://www.w3.org/2000/svg" width="301.579" height="400"><g fill-rule="evenodd"><path d="M149.322 325.625c-5.41 12.51-11.12 24.437-17.798 35.51-6.698 11.11-14.53 21.122-21.823 31.485 12.07 4.033 25.48 6.738 40.96 7.38 2.07-3.64 2.93-8.468 5.038-12.06 10.592.273 19.69-.91 28.547-2.355 1.413 3.736 3.138 7.13 4.354 11.042 16.42-3.267 30.353-9.005 43.33-15.73-8.523-8.703-17.177-17.237-24.86-26.794-5.88-7.323-10.998-15.228-15.773-23.113-1.615-2.67-3.108-5.522-5.373-7.715-10.134 2.885-24.15 3.805-36.602 2.35m-42.66-18.438c-8.188-5.94-18.38-16.97-31.563-11.715-5.516 2.206-13.215 8.84-15.782 14.742-5.373 12.406 4.993 21.553 11.077 27.482 2.96 2.856 11.27 8.89 11.09 12.382-.04.935-1.1 3.324-3.023 3.69-3.264.625-7.855-3.49-10.072-5.364-8.947-7.554-14.94-16.457-21.158-25.44-4.11 4.607-9.4 8.026-13.093 13.042 9.138 15.035 21.865 31.286 37.95 40.544 9.186 5.268 25.04 10.97 34.244 2.662 5.576-5.028 10.725-19.462 6.045-28.13-3.09-5.725-9.658-9.27-15.447-13.065-4.353-2.843-12.116-7.354-11.76-11.384.115-1.186 1.742-3.144 3.368-3.358 2.46-.303 5.858 2.35 8.05 3.695 7.35 4.486 16.017 10.604 22.173 13.734 2.584-6.67 4.99-13.563 7.38-20.434-6.314-4.315-12.998-8.357-19.482-13.083m125.27-15.058c-3.054 3.384-6.154 6.692-9.063 10.05-2.296 2.654-6.51 7.52-8.075 11.388-4.1 10.258 1.242 23.887 7.06 29.14 3.583 3.245 10.17 4.715 16.11 2.346 4.936-1.974 10.182-6.46 14.785-10.726 1.72-1.58 3.783-3.81 6.385-6.363 2.483-2.414 5.967-5.496 8.047-5 2.927.638 2.385 3.616 1.352 6.007-1.14 2.6-3.015 4.19-4.04 5.356-9.515 11.002-19.8 17.612-32.24 24.132 2.13 5.8 5.226 10.638 7.737 16.07 20.172-8.736 40.41-26.602 52.363-45.89 4.477-7.197 8.454-15.19 9.08-23.787.157-2.37.23-4.87 0-6.688-1.084-8-9.098-14.29-18.134-14.08-4.166.092-7.905 2.284-10.414 4.35-4.384 3.634-8.922 10.387-12.755 15.414-2.09 2.743-3.837 4.74-6.382 7.708-2.104 2.462-5.27 6.71-8.39 5.697-1.993-.648-2.068-3.166-1.345-5.37.63-1.89 2.37-4.11 3.023-5.013 2.477-3.403 5.133-6.51 7.05-9.05 4.91-6.502 9.817-13.06 13.093-19.082-5.736-3.22-11.885-6.02-17.797-9.048-4.542 7.484-11.01 15.267-17.453 22.437M6.605 278.397c3.443 15.43 9.15 28.608 15.782 40.868 9.62-6.22 18.278-13.716 27.533-20.444 9.26-6.715 18.944-12.87 27.87-20.082-4.39-6.895-8.046-14.523-10.413-23.47h-.655c-20.08 7.673-40.53 14.965-60.117 23.128m270.642-29.81c-.613-1.07-3.955-4.018-4.695-4.36-7.53-3.444-15.536 2.137-16.46 8.042-.9 5.775 2.38 10.9 7.73 13.064h7.056c6.12-2.526 10.17-10.13 6.37-16.747m-16.77-30.817c-5.55 6.596-.782 16.42 5.372 18.09 5.6 1.517 10.898-.982 13.083-4.357 1.28-1.955 1.813-5.354 1.68-7.382-.41-6.307-6.35-10.376-11.754-10.03-3.67.22-6.842 1.818-8.383 3.68m-9.09-24.444c-5.004 13.21 13.233 19.854 19.812 10.7 1.518-2.086 2.104-5.267 2.04-7.36-.263-6.94-6.443-10.88-12.107-10.385-5.42.472-8.443 3.66-9.745 7.046M66.045 198.67c-.716-9.752-5.47-18.194-11.762-23.096-4.097-3.227-10.693-7.174-16.11-8.043-10.47-1.685-19.26 4.36-24.184 10.366-14.62 17.87-18.212 57.89-8.73 83.08 6.5-1.567 12.63-3.468 19.145-5.015-3.564-11.018-8.438-40.844 3.695-45.562 3.405-1.335 7.546-.617 9.738 1.012 2.312 1.71 3.41 5.987 3.69 10.048.67 9.972-.855 22.652.67 29.812 6.827-1.905 14.01-3.454 20.818-5.373.43-15.82 4.166-31.66 3.03-47.226m189.047-27.786c-.576-2.733-3.828-6.35-6.38-7.382-1.86-.767-4.896-.942-6.714-.662-7.02.968-11.914 9.47-8.065 16.742.628 1.185 2.046 2.223 3.023 3.01 1.116.915 2.197 1.516 3.695 2.345h6.718c4.58-2.58 9.42-6.06 7.723-14.053m-25.848-38.21c-2.593 2.14-6.186 8.402-6.05 12.402.155 4.673 7.106 9.26 13.442 8.39 5.016-.713 9.702-6.76 11.738-10.727.89-1.73 2.708-5.298 2.023-8.382-1.04-4.56-7.803-5.197-13.76-4.347-2.61.358-5.393 1.01-7.393 2.665m28.883-13.73c-.122 3.268-2.434 6.02-2.035 8.702.594 1.092 3.292.718 4.384.36 1.464-2.89 2.622-6.112 3.345-9.73-1.367-1.352-4.954-.636-5.694.667m-25.196-.33c-.274 2.97-1.48 4.99-1.68 8.037 7.917.15 15.19.928 22.834 1.357.42-2.62 1.696-5.614 2.352-8.055.15-.586 1.394-2.26 0-2.333-8.006.658-15.08.512-23.506.995m27.2-20.442c-8.098.98-17.237 3.8-25.852 5.37 0 2.686.125 5.49-.345 7.7 4.314.393 11.343-2.758 13.1.696.674 1.297-.285 2.318 0 3.65 3.68-.337 7.402-.643 11.41-.654 1.006-.94 1.353-3.418.687-5.03-.758-1.132-2.685-1.13-3.706-2.006 1.145-.423 3.02-.1 4.035-.668.6-2.456.902-6.867.67-9.06m-3.692-25.78c-3.69-2.303-8.975.407-13.424 2.68-5.637 2.875-10.095 5.55-12.437 9.723-.276 2.947.24 5.124 1.675 6.346 1.22.48 3.03.358 4.027 1.028-1.232.204-2.1.797-3.348.992.412 2.38.907 4.676 1.003 7.38 9.028-1.938 17.424-4.52 26.196-6.724.202-3.652-.412-6.488-.67-9.707-1.724-.266-2.207.707-3.688.685 4.165-1.986 4.14-10.252.666-12.402M71.75 61.008c-1.694-1.484-4.645-3.357-7.378-3.694-4.393-.52-9.138 2.034-11.422 4.016-2.764 2.433-5.29 6.507-7.393 10.4-2.625 4.85-4.625 9.3-4.713 13.383-.048 2.805 1.106 7.534 3.363 9.726 1.43 1.366 3.978 2.198 6.055 3.015 2.192.84 4.683 1.62 7.38 2.013 1.894-5.385 4.414-10.133 6.386-15.415-1.515-1.533-5.056-1.774-5.366-4.702-.235-2.122 1.18-4.272 3.344-4.333 2.07-.1 4.606 3.26 5.044 5.016 1.695 6.82 3.4 17.48 5.04 23.442 3.67.843 7.738 2.913 11.072 3.014C85.45 96.45 89.53 87.782 93.235 78.746c-3.073-2.066-5.47-4.794-9.067-6.354-1.372 3.855-3.17 7.332-5.03 10.712-.79-9.313-2.295-17.625-7.388-22.097m49.364 6.024c-13.13 10.527-22.73 25.673-22.838 47.567-.042 7.966 1.604 15.167 3.364 20.107 1.634 4.636 4.647 10.56 8.06 15.386 2.946 4.204 8.177 9.13 6.708 17.1-.637 3.445-3.99 5.855-7.05 8.38-8.713 7.12-17.552 16.01-22.825 23.773-5.624 8.266-9.004 16.956-10.754 26.803-3.086 17.32 1.01 32.965 7.046 44.55 10.52 20.158 29.334 34.543 52.728 40.858 18.395 4.96 38.22 4.113 55.074-1 15.94-4.84 28.237-14.132 37.937-24.45 10.03-10.68 17.852-24.112 18.806-43.208.957-19.41-4.894-35.304-14.438-47.94-2.15-2.792-4.75-5.034-7.06-7.35-2.155-2.137-4.59-4.74-7.38-7.03-4.573-3.738-13.733-7.136-14.763-14.05-1.17-7.706 4.26-12.846 7.38-17.433 6.913-10.175 11.89-21.798 10.742-38.518-.496-7.256-2.52-13.88-5.04-19.772-9.203-21.504-30.485-39.593-61.45-37.178-14.228 1.104-25.48 6.362-34.248 13.402m121.55-17.748c-4.123.08-12.026 6.972-12.087 11.387-.04 3.31 3.143 4.507 2.694 7.7-4.49 1.264-4.26-4.833-6.724-6.707-1.678 2.027-4.568 2.816-5.694 5.37 1.97 4.176 3.452 8.83 7.376 11.06 4.806.332 7.377-1.247 10.07-3.02 3.784-2.5 4.41-4.77 2.688-9.38-.446-1.184-3.024-3.318 0-4.363 3.074 1.318 3.426 5.3 4.705 8.38 2.914-1.34 5.908-2.583 8.058-4.69-1.81-6.013-3.975-15.877-11.084-15.736m-12.766-16.742c-6.628 7.767-13.276 15.546-19.8 23.438 2.218 1.47 3.406 3.97 6.05 5.028 3.246-1.87 7.36-10.11 12.08-9.382 1.578.218 1.598 1.78 3.356 2.333 3.556-3.253 7.528-6.113 10.747-9.72-.26-4.47-7.143-2.682-8.732-1.655.934-1.42 2.68-2.004 3.36-3.7-2.112-2.342-4.205-4.727-7.06-6.343m-144.385-3.69c-3.705 3.49-7.835 6.486-11.412 10.032-2.548 2.564-5.25 5.23-7.378 7.706-.776.89-1.753 1.882-2.033 3.024 2.687 3.27 6.165 5.645 9.41 8.39 3.226 2.7 5.746 6.445 9.735 8.36 1.99-2.106 4.234-10.66 8.4-10.047 2.638.375 2.884 4.288 2.01 6.012-1.52 3.034-5.825 6.082-7.045 8.384 2.165 1.975 4.953 3.327 6.38 6.03 2.116-1.094 4.168-4.125 6.375-7.033 3.346-4.403 7.663-8.822 5.035-16.405-.677-1.97-3.022-5.983-5.035-7.71-5.654-4.84-11.608.55-14.102 5.026-1.118-1.006-2.39-1.86-3.027-3.36 3.31-3.06 6.48-6.246 9.74-9.38-2.245-3.1-3.917-6.798-7.053-9.03m137.354-2.03c-2.18-4.592-12.367-10.107-18.814-5.668-4.126 2.82-8.81 12.54-9.404 18.076-1.043 9.823 5.78 11.42 13.094 13.41 1.844-1.974 4.366-3.238 5.374-6.048-4.537-1.046-11.708-2.686-9.39-8.373 4.577 1.69 7.423 5.093 11.742 7.04 3.36-4.676 11.146-10.447 7.397-18.438M123.79 12.087c-5.612 1.993-10.018 5.19-14.433 8.39 2.466 10.822 4.412 22.17 8.407 31.488 1.666-1.916 4.542-2.6 6.026-4.705.106-1.758-.867-2.478-.66-4.345 1.433-1.13 2.874-2.26 5.034-2.682.59 1.307 1.392 2.414 1.675 4.008 2.826-.956 5.853-1.728 8.056-3.34-4.335-9.97-9.082-19.515-14.106-28.812m52.393-3.004c-.097 10.186.35 20.89-.67 30.144 3.247 1.005 6.51 1.99 10.078 2.672 5.73-8.903 11.895-17.368 17.79-26.122-3.15-1.333-6.638-2.28-10.067-3.348-3.058 5.675-6.184 11.26-9.068 17.077 1.157-5.98 1.993-12.3 2.346-19.074-3.487-.246-7.464-1.694-10.407-1.35m-15.11 28.47c2.673.69 4.406.664 8.058.664 1.414-9.865 3.572-18.974 4.702-29.133-3.06.15-7.055.118-10.41-.345-.82 9.572-1.527 19.24-2.348 28.814m-2.69-26.12c-1.428-3.163-6.656-4.688-10.75-2.032-2.087 1.383-2.48 3.893-3.694 6.718.26-2.147-.392-3.408-.33-5.36-3.643.49-6.716 1.574-9.737 2.677 1.756 9.174 3.375 18.53 5.378 27.462 2.445-.564 4.735-1.307 7.385-1.672-.313-2.813-.677-6.997-1.016-10.707-.28-3.183-1.82-8.587 2.688-8.392 2.625 4.197 1.19 12.444 2.03 18.434 2.468-.318 5.23-.377 7.705-.683-.486-7.167 2.628-21.377.34-26.447m7.04-11.4c-2.02.49-2.02 4.6-1.328 6.694 2.758.56 7.388.414 9.737.34 1.16-1.283 1.484-3.417 1.35-6.023-1.946-1.652-6.374-.79-9.76-1.01" fill="#fff"/><path d="M175.18 1.044c.136 2.606-.187 4.74-1.348 6.023-2.348.074-6.978.22-9.737-.34-.69-2.093-.69-6.204 1.328-6.695 3.384.222 7.812-.64 9.758 1.012M158.043 37.88c-2.476.305-5.237.364-7.706.682-.84-5.99.596-14.237-2.03-18.434-4.508-.195-2.968 5.21-2.688 8.393.338 3.71.702 7.895 1.015 10.708-2.65.365-4.94 1.108-7.384 1.67-2.002-8.932-3.62-18.287-5.378-27.46 3.022-1.105 6.095-2.19 9.737-2.68-.062 1.954.59 3.215.33 5.362 1.213-2.825 1.607-5.335 3.695-6.718 4.093-2.656 9.32-1.13 10.75 2.03 2.286 5.07-.828 19.28-.342 26.447M163.42 8.74c3.356.462 7.35.493 10.41.344-1.128 10.16-3.287 19.268-4.7 29.133-3.65 0-5.385.027-8.057-.663.823-9.574 1.53-19.242 2.347-28.815M186.59 10.433c-.35 6.775-1.187 13.095-2.345 19.074 2.885-5.82 6.01-11.402 9.067-17.077 3.43 1.068 6.916 2.015 10.067 3.35-5.894 8.752-12.06 17.217-17.79 26.12-3.568-.682-6.83-1.667-10.076-2.672 1.02-9.255.572-19.958.67-30.144 2.94-.344 6.92 1.103 10.406 1.35M120.764 34.87c1.656-.364 3.11-.942 3.705-2.33-1.686-2.48-3.253-5.762-4.707-8.365-.433-.793-.797-2.192-1.677-2.02 1.327 3.826 1.895 8.37 2.678 12.716m17.13 6.03c-2.2 1.613-5.228 2.383-8.055 3.34-.284-1.594-1.085-2.7-1.677-4.008-2.16.422-3.6 1.553-5.034 2.683-.207 1.867.765 2.587.66 4.345-1.484 2.105-4.36 2.79-6.026 4.707-3.995-9.32-5.94-20.667-8.407-31.49 4.415-3.2 8.82-6.396 14.434-8.39 5.024 9.298 9.77 18.845 14.105 28.812M207.07 31.867c2.383 1.084 4.04 2.885 6.727 3.69 4.328-5.07-5.137-9.205-6.727-3.69m8.4 13.39c-4.32-1.947-7.166-5.35-11.742-7.04-2.318 5.687 4.853 7.327 9.39 8.373-1.008 2.81-3.53 4.074-5.374 6.048-7.315-1.99-14.138-3.587-13.095-13.41.594-5.537 5.277-15.256 9.403-18.076 6.447-4.44 16.633 1.076 18.815 5.668 3.747 7.99-4.037 13.76-7.397 18.436" fill="#373535"/><path d="M118.086 22.156c.88-.173 1.244 1.226 1.677 2.02 1.454 2.6 3.02 5.886 4.706 8.365-.597 1.388-2.05 1.967-3.706 2.33-.783-4.345-1.35-8.89-2.678-12.714" fill="#fff"/><path d="M92.567 37.88c-3.26 3.134-6.43 6.32-9.74 9.38.636 1.5 1.91 2.354 3.026 3.36 2.494-4.474 8.448-9.867 14.103-5.026 2.012 1.728 4.357 5.74 5.033 7.71 2.627 7.584-1.688 12.003-5.034 16.406-2.208 2.91-4.26 5.94-6.378 7.032-1.425-2.7-4.213-4.053-6.38-6.028 1.222-2.302 5.528-5.35 7.047-8.385.873-1.725.627-5.638-2.01-6.013-4.165-.613-6.41 7.94-8.4 10.048-3.99-1.916-6.51-5.66-9.734-8.362-3.246-2.744-6.723-5.12-9.41-8.39.278-1.14 1.256-2.134 2.03-3.023 2.13-2.475 4.833-5.142 7.38-7.706 3.578-3.546 7.708-6.542 11.413-10.034 3.137 2.23 4.808 5.93 7.054 9.03" fill="#373535"/><path d="M213.797 35.557c-2.688-.805-4.344-2.605-6.727-3.69 1.59-5.516 11.055-1.38 6.727 3.69" fill="#fff"/><path d="M236.958 38.884c-.68 1.698-2.426 2.28-3.36 3.7 1.59-1.026 8.47-2.815 8.733 1.657-3.218 3.607-7.19 6.467-10.746 9.72-1.758-.552-1.778-2.116-3.356-2.334-4.72-.728-8.833 7.512-12.08 9.382-2.644-1.058-3.832-3.556-6.05-5.028 6.524-7.892 13.172-15.67 19.8-23.44 2.855 1.618 4.948 4.002 7.06 6.344M253.748 65.02c-2.15 2.107-5.144 3.35-8.057 4.69-1.278-3.08-1.63-7.062-4.704-8.38-3.024 1.045-.445 3.18 0 4.364 1.72 4.61 1.096 6.88-2.687 9.378-2.695 1.774-5.266 3.353-10.072 3.02-3.924-2.227-5.407-6.883-7.376-11.06 1.126-2.552 4.016-3.342 5.694-5.37 2.463 1.876 2.234 7.972 6.725 6.707.45-3.193-2.734-4.388-2.694-7.7.062-4.414 7.966-11.305 12.088-11.386 7.11-.14 9.275 9.723 11.084 15.736M207.07 264.33c-3.717 6.55-5.936 16.198-1.668 24.783 3.105-2.698 6.84-4.78 9.39-8.03-8.93-9.862-.99-27.21 15.106-23.786 1.102-3.058 2-6.276 2.688-9.727-14.273 1.19-19.906 6.915-25.516 16.76M88.877 252.27c14.026-5.357 23.863 10.493 16.792 21.115-.55.81-4.015 3.244-4.03 4.01-.007.153 1.956 2.165 2.682 3.015 2.313 2.65 3.384 3.634 5.707 5.355.982.727 2.28 1.844 3.35 1.666 1.714-4.66 3.763-9.472 3.698-14.734-.124-9.424-5.932-17.59-10.077-23.108-5.72-3.66-11.847-6.93-20.467-7.7.616 4.257.734 7.63 2.344 10.382m126.594-19.434c-8.813 3.228-14.05 6.592-19.145 13.06-6.37 8.12-12.368 19.745-12.08 32.502.137 5.963 1.78 13.13 4.017 19.425 1.962-.954 4.564-1.267 5.708-3.01-6.653-19.104-1.03-36.2 9.41-46.893 7.592-7.776 17.437-12.5 30.218-12.38-.284-2.187-.44-4.478-1.012-6.39-6.144-.015-11.068 1.487-17.115 3.686m-79.584 37.522c-.344-6.4-2.986-14.122-6.047-20.104-2.994-5.837-6.893-11.943-11.078-15.4-1.667-1.382-4.104-2.408-6.384-3.688-6.606-3.687-15.678-7.09-23.5-7.366-1.063 2.37-1.282 3.526-1.68 6.365 2.073.46 3.932 0 6.38.333 16.504 2.232 31.366 16.835 34.585 33.504 1.836 9.53.224 21.64-4.373 30.477 2.332.474 3.366 2.234 6.05 2.34 3.268-8.353 6.543-17.375 6.046-26.462m-1.018-71.012c-2.077-2.95-5.37-6.37-7.716-8.385-1.47-1.26-1.447-1.352-3.014-2.338-1.965-1.218-4.28-2.754-6.052-3.007-3.242 3.575-8.57 5.066-11.75 8.707 2.546 4.093 6.753 8.324 10.742 10.707 5.308 3.175 15.376 8.452 21.835 5.683.59-4.056-1.12-7.27-4.045-11.367m64.492-16.07c-.077.25-.288.377-.674.334-3.144 1.21-5.486 3.227-8.732 4.342-1.332 2.346-3.893 3.94-5.708 6.036-1.8 2.02-3.734 4.488-5.04 6.696-1.33 2.237-2.786 5.392-2.016 8.702 3.557 2.22 9.515-.016 13.772-1.672 8.338-3.25 15.648-8.86 19.468-16.067-4.2-2.285-7.85-5.127-11.07-8.37m-5.71-14.413c-.667-7.607.927-14.004 2.675-18.426.386-.954.417-2.16.667-2.682.635-1.18 1.945-1.916 2.69-3.005 7.032-10.085 13.252-24.775 9.074-40.534-1.904-7.177-4.76-12.608-8.06-17.75-5.062-7.875-11.17-12.475-20.498-16.755-6.826-3.15-14.56-5.9-22.155-5.364-6.587.494-13.74 2.97-19.47 5.71-5.41 2.563-11 5.855-14.435 9.373-7.06 7.208-14.234 21.793-14.782 34.494-.372 8.714 3.24 16.29 6.047 22.108 1.37 2.852 2.972 5.347 4.697 8.033 1.604 2.51 3.596 5.476 4.7 8.393 2.88 7.576 2.183 20.14-1.347 26.795 5.143 3.093 10.77 6.91 15.46 12.057 3.782 4.147 9.088 11.565 9.063 18.756-.044 8.79-9 11.292-17.125 9.705-6.24-1.204-12.158-4.4-17.13-7.697-5.13-3.395-9.557-7.535-13.43-11.39-2.667 3.588-5.11 7.4-7.055 11.734 15.598 1.354 29.21 9.666 38.956 20.756 9.804 11.168 16.5 26.19 15.106 45.225-.62 8.642-3.315 15.56-6.366 22.455 10.493 3.405 25.38 4.298 35.927.337-.92-2.85-2.083-5.124-2.696-7.725-9.32-39.612 19.275-73.003 54.738-76.03-2.95-7.903-7.09-14.597-12.417-20.105-5.865 8.71-18.967 18.705-31.91 21.108-1.177.23-2.777.353-4.016.338-11.52-.092-14.7-8.036-11.09-17.43 4.073-10.61 16.92-20.507 25.86-24.78-.54-2.59-1.456-5.12-1.675-7.702M155.36 53.63c30.965-2.415 52.247 15.674 61.45 37.178 2.52 5.893 4.545 12.516 5.04 19.77 1.148 16.72-3.83 28.344-10.743 38.52-3.12 4.586-8.552 9.726-7.382 17.432 1.03 6.914 10.19 10.312 14.763 14.05 2.79 2.29 5.227 4.893 7.38 7.03 2.312 2.316 4.91 4.558 7.06 7.35 9.546 12.636 15.398 28.53 14.44 47.94-.954 19.096-8.775 32.53-18.805 43.208-9.7 10.318-21.998 19.61-37.936 24.452-16.855 5.11-36.68 5.96-55.076 1-23.395-6.317-42.21-20.702-52.727-40.86-6.038-11.585-10.133-27.23-7.048-44.55 1.75-9.848 5.128-18.538 10.753-26.804 5.273-7.764 14.112-16.652 22.823-23.772 3.062-2.526 6.415-4.936 7.052-8.38 1.47-7.972-3.762-12.897-6.707-17.1-3.414-4.826-6.426-10.75-8.06-15.387-1.76-4.94-3.405-12.14-3.365-20.108.108-21.895 9.71-37.04 22.84-47.568 8.768-7.04 20.02-12.298 34.247-13.402M79.138 83.104c1.86-3.38 3.658-6.856 5.03-10.71 3.596 1.56 5.994 4.287 9.068 6.353-3.707 9.037-7.786 17.705-10.074 28.14-3.334-.1-7.402-2.168-11.073-3.01-1.642-5.965-3.345-16.623-5.04-23.444-.437-1.755-2.973-5.116-5.043-5.016-2.166.062-3.58 2.21-3.344 4.334.31 2.93 3.85 3.17 5.365 4.703-1.973 5.28-4.492 10.03-6.385 15.414-2.7-.39-5.19-1.173-7.38-2.012-2.08-.816-4.625-1.648-6.056-3.015-2.257-2.193-3.41-6.923-3.363-9.728.088-4.08 2.09-8.534 4.712-13.382 2.103-3.894 4.63-7.967 7.394-10.4 2.284-1.98 7.03-4.534 11.422-4.017 2.733.338 5.683 2.21 7.378 3.694 5.093 4.473 6.6 12.786 7.388 22.097" fill="#373535"/><path d="M160.753 290.466c2.84-.36 6.627-2.98 6.703-7.71.072-5.36-4.052-8.64-9.413-7.7-10.16 1.775-7.14 16.557 2.71 15.41m-1.36-161.455c-5.335.584-7.878-1.114-11.417-2.36-2.418-.823-5.127-1.517-7.046-2.34-4.537 2.754 1.503 6.77 4.35 9.052 3.154 2.483 5.83 4.775 7.723 6.027h7.056c.946-.51 1.337-1.602 3.027-1.357 2.858-3.024 6.036-5.273 8.73-8.022 1.142-1.175 2.9-2.133 2.344-4.352-4.884-1.302-9.35 2.744-14.768 3.353m4.704-20.45c2.965 1.287 6.18 2.325 7.72 5.026.127 1.35-.306 3.212.334 4.033 2.53-.676 4.296-2.8 6.044-4.36 1.882-1.67 3.908-3.27 5.374-5.36-3.245-4.59-16.924-4.69-19.472.66m-22.838-4.014c-4.357-.17-9.118 1.307-10.072 4.013 2.917 2.298 5.993 5.168 8.722 7.38.87.697 1.518 2.537 3.02 1.68v-4.034c2.007-2.134 4.362-3.92 7.73-4.69-.3-3.09-4.977-4.178-9.4-4.35m45.332-4.005c-1.322-2.807-6.653-6.47-9.733-7.038-5.558-1.03-9.318 1.65-12.092 4.012-1.93 1.648-4.23 4.292-2.683 6.028 4.664-.913 11.037-3.058 18.472-2.338 2.288 1.08 3.64 4.258 6.702 2.67.188-1.04-.16-2.275-.666-3.333m-37.268-3.375c-1.687-1.403-4.877-3.618-6.72-4.005-7.232-1.54-15.465 4.488-15.783 10.382 2.86 2.17 4.288-1.943 7.053-2.682 5.816-1.518 12.767 1.2 16.107 2.015.52.123 2.104.963 2.36 0 1.217-1.84-1.502-4.426-3.018-5.71m46.002 79.402c-8.94 4.272-21.786 14.168-25.86 24.78-3.61 9.393-.43 17.337 11.09 17.43 1.24.014 2.84-.11 4.017-.34 12.943-2.402 26.044-12.396 31.912-21.107 5.326 5.508 9.465 12.202 12.416 20.105-35.463 3.027-64.06 36.418-54.737 76.03.614 2.6 1.777 4.875 2.697 7.725-10.546 3.96-25.434 3.068-35.927-.337 3.05-6.896 5.745-13.813 6.367-22.455 1.394-19.034-5.304-34.057-15.106-45.225-9.745-11.09-23.357-19.402-38.955-20.756 1.945-4.335 4.39-8.146 7.056-11.733 3.873 3.854 8.3 7.993 13.43 11.39 4.972 3.295 10.892 6.49 17.13 7.697 8.127 1.588 17.082-.914 17.126-9.704.025-7.19-5.28-14.61-9.064-18.756-4.688-5.147-10.315-8.964-15.46-12.057 3.53-6.656 4.23-19.22 1.348-26.795-1.104-2.917-3.096-5.882-4.7-8.393-1.725-2.686-3.327-5.18-4.697-8.033-2.807-5.817-6.42-13.394-6.047-22.108.55-12.7 7.722-27.286 14.783-34.495 3.433-3.52 9.024-6.81 14.435-9.375 5.728-2.74 12.88-5.215 19.468-5.71 7.595-.536 15.33 2.215 22.156 5.366 9.325 4.28 15.434 8.88 20.497 16.756 3.3 5.142 6.154 10.572 8.06 17.75 4.177 15.76-2.043 30.45-9.075 40.535-.745 1.09-2.055 1.826-2.69 3.006-.25.52-.28 1.728-.666 2.682-1.75 4.422-3.343 10.82-2.676 18.426.218 2.583 1.134 5.112 1.674 7.703" fill="#fff"/><path d="M240.32 88.132c2.46 3.035 10.24.097 8.726-4.023-3.404-1.626-8.116.708-8.726 4.022m15.452-3.338c1.48.024 1.964-.95 3.69-.685.256 3.218.87 6.053.67 9.705-8.773 2.205-17.17 4.788-26.197 6.727-.096-2.706-.59-5.002-1.003-7.382 1.248-.195 2.116-.79 3.347-.992-.997-.67-2.81-.548-4.028-1.027-1.436-1.22-1.95-3.398-1.675-6.346 2.342-4.173 6.8-6.848 12.437-9.722 4.45-2.273 9.733-4.982 13.424-2.678 3.475 2.15 3.5 10.415-.666 12.4" fill="#373535"/><path d="M249.046 84.11c1.514 4.118-6.267 7.057-8.726 4.022.61-3.315 5.322-5.648 8.726-4.023" fill="#fff"/><path d="M152.34 102.875c-.256.963-1.84.122-2.36 0-3.34-.816-10.29-3.533-16.107-2.015-2.764.74-4.192 4.85-7.055 2.682.318-5.895 8.552-11.92 15.784-10.38 1.843.385 5.032 2.6 6.72 4.003 1.517 1.284 4.234 3.87 3.02 5.71M187.256 103.875c-3.06 1.587-4.414-1.59-6.702-2.67-7.435-.722-13.808 1.425-18.472 2.337-1.547-1.736.752-4.38 2.683-6.028 2.774-2.36 6.534-5.043 12.092-4.012 3.08.567 8.41 4.23 9.733 7.04.507 1.058.854 2.29.666 3.333M259.46 107.232c-1.015.568-2.89.246-4.034.668 1.02.877 2.948.874 3.706 2.008.666 1.61.32 4.09-.687 5.028-4.008.012-7.73.318-11.41.655-.285-1.332.674-2.353 0-3.65-1.757-3.455-8.785-.304-13.1-.695.47-2.21.345-5.016.345-7.703 8.615-1.568 17.754-4.387 25.85-5.37.232 2.193-.07 6.604-.67 9.06M150.658 108.896c-3.368.77-5.723 2.556-7.73 4.69v4.033c-1.502.857-2.15-.982-3.02-1.68-2.73-2.212-5.805-5.08-8.723-7.38.956-2.708 5.716-4.183 10.072-4.014 4.424.173 9.1 1.26 9.4 4.35" fill="#373535"/><path d="M183.567 107.9c-1.465 2.092-3.49 3.69-5.373 5.36-1.748 1.56-3.514 3.684-6.044 4.358-.64-.82-.207-2.682-.333-4.03-1.542-2.703-4.756-3.74-7.722-5.03 2.55-5.35 16.228-5.25 19.472-.658M256.438 117.618c1.394.073.15 1.748 0 2.334-.656 2.44-1.93 5.434-2.352 8.055-7.643-.43-14.916-1.206-22.835-1.357.2-3.046 1.407-5.066 1.68-8.035 8.43-.483 15.502-.337 23.508-.997M263.822 118.278c-.723 3.617-1.88 6.84-3.345 9.73-1.092.357-3.79.73-4.384-.36-.4-2.683 1.913-5.435 2.035-8.704.74-1.303 4.327-2.02 5.694-.666M174.16 125.658c.557 2.22-1.2 3.178-2.344 4.354-2.693 2.748-5.87 4.997-8.73 8.02-1.69-.244-2.08.848-3.027 1.357H153c-1.89-1.254-4.568-3.545-7.722-6.028-2.847-2.28-8.887-6.297-4.35-9.052 1.918.823 4.628 1.517 7.045 2.34 3.54 1.247 6.083 2.944 11.417 2.36 5.418-.608 9.884-4.655 14.77-3.352M231.585 141.727c.55 3.917 9.87 3.955 9.068-2.004-2.238-3.36-9.65-2.16-9.068 2.004m5.05-11.716c5.96-.85 12.72-.213 13.763 4.348.685 3.085-1.134 6.653-2.023 8.38-2.035 3.967-6.722 10.015-11.74 10.727-6.334.87-13.286-3.716-13.44-8.39-.136-4 3.458-10.26 6.05-12.4 2-1.655 4.782-2.306 7.39-2.664" fill="#373535"/><path d="M240.653 139.723c.803 5.96-8.517 5.92-9.07 2.005-.58-4.166 6.832-5.366 9.07-2.005" fill="#fff"/><path d="M247.37 184.937h-6.717c-1.498-.828-2.58-1.43-3.695-2.347-.977-.785-2.395-1.823-3.023-3.007-3.85-7.274 1.046-15.774 8.063-16.743 1.82-.28 4.854-.104 6.715.662 2.552 1.03 5.803 4.65 6.38 7.382 1.697 7.993-3.144 11.473-7.722 14.053M63.016 245.897c-6.808 1.918-13.99 3.468-20.817 5.373-1.527-7.16 0-19.84-.673-29.812-.28-4.06-1.377-8.34-3.69-10.048-2.192-1.628-6.333-2.347-9.737-1.012-12.134 4.717-7.258 34.545-3.695 45.563-6.514 1.548-12.646 3.448-19.145 5.016-9.482-25.188-5.89-65.21 8.73-83.08 4.924-6.005 13.715-12.052 24.183-10.366 5.417.87 12.012 4.817 16.11 8.045 6.292 4.9 11.046 13.343 11.762 23.096 1.137 15.57-2.597 31.407-3.03 47.227" fill="#373535"/><path d="M210.43 191.646c-3.82 7.21-11.13 12.82-19.468 16.068-4.257 1.656-10.215 3.892-13.772 1.673-.77-3.312.685-6.466 2.015-8.703 1.307-2.208 3.24-4.676 5.04-6.696 1.816-2.096 4.377-3.69 5.71-6.036 3.245-1.115 5.587-3.13 8.73-4.34.387.04.598-.086.675-.335 3.222 3.242 6.87 6.086 11.07 8.37M138.912 210.713c-6.46 2.77-16.526-2.508-21.834-5.684-3.99-2.384-8.197-6.616-10.743-10.708 3.18-3.64 8.51-5.13 11.75-8.707 1.772.252 4.087 1.79 6.054 3.007 1.564.986 1.542 1.078 3.01 2.34 2.347 2.014 5.64 5.434 7.717 8.383 2.926 4.097 4.636 7.313 4.045 11.368" fill="#fff"/><path d="M261.133 186.28c5.663-.493 11.844 3.447 12.106 10.388.064 2.092-.522 5.273-2.04 7.357-6.58 9.155-24.818 2.51-19.812-10.7 1.302-3.384 4.324-6.572 9.745-7.044M268.86 214.09c5.4-.346 11.344 3.723 11.752 10.03.134 2.028-.4 5.428-1.68 7.383-2.184 3.375-7.483 5.875-13.082 4.356-6.154-1.67-10.922-11.494-5.373-18.09 1.54-1.862 4.713-3.46 8.382-3.68" fill="#373535"/><path d="M129.84 296.82c-2.683-.106-3.717-1.866-6.05-2.342 4.597-8.836 6.21-20.946 4.373-30.476-3.22-16.67-18.08-31.272-34.585-33.504-2.448-.333-4.307.126-6.38-.333.398-2.84.617-3.994 1.68-6.365 7.822.276 16.894 3.68 23.5 7.366 2.28 1.28 4.717 2.306 6.384 3.69 4.185 3.455 8.085 9.56 11.077 15.4 3.06 5.98 5.702 13.703 6.045 20.102.498 9.087-2.777 18.11-6.046 26.462M232.586 229.15c.57 1.913.728 4.204 1.012 6.388-12.78-.118-22.626 4.607-30.22 12.382-10.438 10.692-16.06 27.79-9.408 46.893-1.144 1.743-3.747 2.056-5.708 3.01-2.236-6.295-3.88-13.462-4.016-19.425-.288-12.758 5.708-24.38 12.08-32.5 5.094-6.47 10.33-9.835 19.144-13.062 6.048-2.2 10.972-3.702 17.116-3.687" fill="#fff"/><path d="M86.533 241.89c8.62.77 14.748 4.037 20.468 7.698 4.146 5.518 9.953 13.684 10.078 23.108.065 5.262-1.983 10.074-3.698 14.735-1.07.18-2.368-.938-3.352-1.665-2.322-1.72-3.393-2.707-5.706-5.355-.726-.85-2.69-2.862-2.682-3.015.015-.766 3.48-3.2 4.03-4.01 7.07-10.622-2.768-26.472-16.792-21.115-1.61-2.752-1.73-6.125-2.345-10.38" fill="#fff"/><path d="M270.878 265.334h-7.056c-5.35-2.164-8.63-7.29-7.73-13.065.924-5.905 8.93-11.486 16.46-8.043.74.343 4.082 3.29 4.695 4.36 3.802 6.617-.25 14.22-6.37 16.747" fill="#373535"/><path d="M232.586 247.57c-.687 3.45-1.586 6.67-2.688 9.728-16.098-3.426-24.036 13.923-15.107 23.786-2.547 3.25-6.284 5.33-9.388 8.028-4.267-8.584-2.05-18.233 1.668-24.782 5.61-9.845 11.243-15.57 25.516-16.76" fill="#fff"/><path d="M66.722 255.27h.655c2.367 8.948 6.024 16.576 10.413 23.47-8.926 7.212-18.61 13.367-27.87 20.082-9.256 6.728-17.913 14.225-27.532 20.444-6.634-12.26-12.34-25.438-15.783-40.868 19.588-8.163 40.037-15.455 60.117-23.128M249.383 269.692c5.912 3.027 12.06 5.83 17.796 9.048-3.277 6.023-8.183 12.58-13.094 19.083-1.918 2.54-4.573 5.647-7.05 9.05-.654.9-2.393 3.123-3.023 5.013-.723 2.203-.647 4.72 1.346 5.37 3.117 1.01 6.283-3.236 8.388-5.697 2.544-2.97 4.293-4.968 6.383-7.71 3.834-5.03 8.372-11.782 12.755-15.414 2.51-2.067 6.248-4.26 10.414-4.35 9.035-.212 17.05 6.077 18.132 14.08.23 1.816.158 4.318 0 6.687-.625 8.596-4.602 16.59-9.08 23.787-11.95 19.288-32.19 37.154-52.363 45.89-2.51-5.432-5.607-10.27-7.738-16.07 12.44-6.52 22.725-13.13 32.24-24.132 1.025-1.165 2.9-2.756 4.04-5.355 1.032-2.392 1.576-5.37-1.353-6.01-2.082-.494-5.564 2.588-8.048 5.002-2.602 2.553-4.665 4.783-6.385 6.363-4.603 4.268-9.85 8.752-14.785 10.727-5.94 2.368-12.528.898-16.11-2.347-5.817-5.253-11.16-18.882-7.06-29.14 1.563-3.867 5.78-8.733 8.075-11.387 2.91-3.36 6.01-6.666 9.062-10.05 6.442-7.17 12.91-14.954 17.453-22.438M158.043 275.057c5.36-.942 9.486 2.338 9.412 7.7-.075 4.73-3.863 7.35-6.702 7.708-9.85 1.148-12.87-13.634-2.71-15.408M126.142 320.27c-2.39 6.872-4.795 13.766-7.38 20.434-6.155-3.13-14.82-9.248-22.172-13.734-2.192-1.345-5.59-3.998-8.05-3.695-1.624.214-3.253 2.172-3.368 3.358-.355 4.03 7.41 8.54 11.762 11.384 5.788 3.796 12.357 7.34 15.444 13.065 4.68 8.668-.468 23.102-6.044 28.13-9.204 8.308-25.057 2.606-34.245-2.66-16.086-9.26-28.813-25.51-37.95-40.546 3.692-5.016 8.982-8.435 13.092-13.042 6.217 8.982 12.21 17.886 21.16 25.44 2.215 1.872 6.807 5.99 10.07 5.365 1.923-.368 2.983-2.758 3.022-3.692.18-3.49-8.13-9.526-11.09-12.38-6.083-5.93-16.45-15.078-11.076-27.484 2.567-5.9 10.266-12.535 15.78-14.742 13.183-5.255 23.376 5.775 31.564 11.715 6.483 4.726 13.166 8.768 19.48 13.082M160.753 369.516c6.39.134 11.834-.67 17.44-1.35-3.792-9.5-7.79-18.78-9.734-30.15-.065-.254-.277-.385-.682-.32-.437 12.487-4.58 21.315-7.025 31.82m25.17-46.24c2.266 2.19 3.76 5.043 5.375 7.714 4.774 7.885 9.893 15.79 15.772 23.112 7.683 9.558 16.336 18.093 24.86 26.796-12.977 6.724-26.91 12.46-43.33 15.73-1.217-3.913-2.942-7.307-4.355-11.044-8.858 1.446-17.954 2.63-28.546 2.358-2.11 3.59-2.97 8.418-5.042 12.058-15.478-.64-28.89-3.348-40.957-7.38 7.293-10.363 15.126-20.376 21.824-31.487 6.677-11.072 12.388-22.998 17.798-35.508 12.453 1.456 26.468.535 36.602-2.35" fill="#373535"/><path d="M167.778 337.696c.405-.065.617.066.68.32 1.944 11.37 5.943 20.65 9.736 30.15-5.607.678-11.05 1.484-17.44 1.35 2.444-10.504 6.587-19.333 7.024-31.82" fill="#fff"/></g></svg>