<svg xmlns="http://www.w3.org/2000/svg" width="400" height="437.202"><path d="M150.23 432.77c-13.97-3.945-42.143-17.615-44.647-21.665-.85-1.378 5.43-19.155 7.863-22.257.343-.438 2.934.886 5.75 2.944 9.438 6.91 26.13 13.662 36.9 14.928 9.82 1.158 10.622.97 10.008-2.298-.485-2.562-4.708-4.926-15.16-8.485-24.7-8.41-30.487-14.32-29.013-29.648 1.125-11.677 8.19-22.662 17.39-27.028 7.59-3.602 19.216-3.035 34.956 1.7 4.636 1.397 13.175 3.132 18.975 3.855 7.928.994 10.56 2.076 10.608 4.374 0 1.684.555 7.897 1.158 13.812l1.088 10.752h-5.364c-2.95 0-12.305-1.17-20.788-2.547-11.896-1.934-16.116-2.003-18.44-.307-5.105 3.733 1.248 7.814 14.495 9.313 21.33 2.413 31.44 8.895 35.282 22.616 4.16 14.87-1.808 27.35-15.567 32.548-8.528 3.223-29.077 2.06-45.49-2.576zm70.39 3.14c0-.78 2.143-11.773 4.758-24.425 2.616-12.65 5.352-33.6 6.078-46.552l1.32-23.55 12.33-4.99c6.78-2.742 16.41-7.742 21.398-11.11 7.97-5.377 9.328-5.767 11.202-3.204 5.864 8.018 42.57 27.662 70.575 37.77l8.913 3.215-8.912 9.553c-10.674 11.44-27.15 25.69-32.584 28.176-3.202 1.467-4.66.863-7.983-3.303l-4.065-5.097-14.82 8.447c-8.15 4.644-15.294 8.445-15.873 8.445-.58 0-1.017 3.572-.98 7.935l.117 7.936-10.285 3.382c-5.657 1.86-17.017 4.6-25.246 6.088-17.622 3.185-15.894 3.046-15.894 1.285zm54.88-54.188c3.244-1.79 6.828-3.896 7.963-4.68 1.337-.922-.993-4.562-6.614-10.305-4.776-4.882-10.173-10.982-11.99-13.553-2.52-3.56-3.012-3.784-2.06-.934.687 2.057 2.147 10.262 3.244 18.233 1.1 7.97 2.344 14.493 2.774 14.493.438 0 3.437-1.465 6.682-3.253zm-204.672 6.33c-6.684-5.512-15.662-14.132-19.955-19.152l-7.804-9.13 7.897-8.124c4.343-4.47 17.678-17.306 29.634-28.53l21.74-20.403 8.18 8.063c4.504 4.434 10.166 9.408 12.587 11.054l4.403 2.993-21.06 35.22c-11.583 19.37-21.603 35.85-22.267 36.624-.673.768-6.673-3.104-13.355-8.615zm280.914-42.226l-8.198-7.2 5.71-7.213c14.862-18.785 26.234-49.29 18.372-49.29-1.708 0-3.972 2.314-5.03 5.142-4.78 12.76-13.343 28.203-18.233 32.887-10.963 10.505-25.63 7.618-36.994-7.28-7.49-9.82-7.657-18.05-.77-38.107 6.893-20.07 11.263-36.12 11.263-41.354 0-3.292 1.364-3.648 13.978-3.648h13.98l-1.063 6.077c-.58 3.343-3.088 14.77-5.564 25.395-5.31 22.802-5.258 22.067-1.71 23.43 3.7 1.418 7.054-5.48 11.24-23.112 6.055-25.522 12.945-34.194 27.003-34 34.286.472 31.77 64.246-4.495 113.944-4.69 6.427-9.15 11.65-9.91 11.608-.756 0-5.07-3.32-9.58-7.28zM24.322 329.34C8.79 308.606-.073 283.132 0 259.413c0-16.153 3.942-26.374 12.926-33.935 7.58-6.377 12.404-7.578 26.38-6.568 8.518.614 13.042 2.125 19.1 6.37 8.71 6.105 18.482 20.853 22.678 34.228 1.482 4.724 4.864 14.48 7.516 21.68l4.82 13.09-5.124 4.362c-2.817 2.4-7.624 6.486-10.682 9.08l-5.56 4.72-2.84-4.277c-1.562-2.353-5.695-10.646-9.183-18.43-8.262-18.445-10.805-21.297-17.75-19.907-6.273 1.253-10.387 5.836-10.472 11.663-.118 6.91 7.376 23.894 14.89 33.823l7.186 9.493-9.066 7.643c-4.987 4.203-9.825 7.643-10.753 7.643-.934 0-5.314-4.838-9.744-10.75zm152.354-5.512c-29.543-3.93-66.54-29.034-78.18-53.05-10.385-21.435-12.894-40.954-7.783-60.573 4.754-18.257 12.76-30.744 31.888-49.735 16.408-16.29 17.722-18.133 16.893-23.69-.497-3.312-3.54-9.863-6.768-14.554-17.675-25.69-20.116-51.92-7.33-78.793 7.063-14.85 21.126-28.864 36.622-36.493 10.3-5.07 14.955-6.185 28.448-6.82 26.892-1.262 46.15 7.304 63.29 28.155 21.64 26.32 22.87 61.617 3.216 92.17-8.587 13.348-10.303 21.217-5.562 25.5 1.507 1.36 7.187 5.74 12.624 9.733 16.586 12.184 31.168 33.157 36.204 52.074 11.26 42.3-11.22 86.153-54.58 106.472-19.783 9.27-45.04 12.786-68.98 9.604zm32.252-14.775l5.606-1.123-2.714-8.696c-3.678-11.792-2.124-33.53 3.42-47.854 8.265-21.346 34.334-43.225 55.827-46.857 4.14-.697 7.527-1.875 7.527-2.61 0-1.17-10.406-18.497-12.406-20.65-.414-.45-3.894 2.233-7.733 5.958-10.678 10.363-27.088 18.23-38.023 18.23-25.17 0-20.602-25.583 8.385-46.96l7.26-5.353.214-14.568c.202-13.182.852-15.643 6.93-25.83 8.114-13.618 12.925-27.14 12.925-36.32 0-16.925-13.474-41.643-27.588-50.61-20.163-12.814-40.415-14.012-61.484-3.64-12.886 6.344-20.752 14.548-27.917 29.117-9.51 19.336-7.937 37.768 5.116 59.993 8.28 14.097 11.154 29.264 7.52 39.688-1.862 5.34-1.587 5.96 4.228 9.552 12.915 7.982 26.2 29.02 23.896 37.835-1.666 6.37-8.945 9.587-19 8.397-11.47-1.36-30.226-11.356-37.19-19.824-2.224-2.7-2.72-2.63-5.28.757-6.306 8.345-6.71 10.283-2.15 10.313 17.248.118 44.23 20.35 54.814 41.113 10.01 19.64 10.718 44.342 1.882 65.78-.993 2.42-.118 3.315 3.997 3.928 8.703 1.305 25.94 1.43 31.932.236zm-22.613-17.26c-4.06-4.486-3.927-10.207.32-14.055 6.73-6.09 17.152-2.426 17.152 6.03 0 9.884-11.158 15.007-17.476 8.025zm-7.034-189.72c-2.68-2.28-6.405-5.043-8.28-6.137-4.422-2.582-2.322-9.212 2.426-7.655 16.89 5.54 18.973 5.74 28.443 2.71 12.247-3.916 13.714-1.334 4.562 8.04-6.015 6.157-8.334 7.3-14.708 7.25-5.04 0-9.195-1.444-12.443-4.206zm29.837-21.066c-.154-.98-.366-3.035-.473-4.564-.118-1.53-2.63-3.954-5.62-5.386l-5.434-2.605 4.5-2.495c5.836-3.232 17.495-3.322 20.123-.154 1.574 1.896.32 4.164-5.38 9.73-4.088 3.992-7.56 6.456-7.718 5.476zm-44.425-6.45c-5.392-4.61-6.007-5.898-3.982-8.34 2.877-3.463 15.4-3.855 20.547-.64 3.41 2.134 3.318 2.413-1.896 5.585-3.02 1.836-5.49 4.613-5.49 6.17 0 4.022-1.91 3.445-9.178-2.77zm-11.39-13.938c0-3.713 11.572-12.25 16.605-12.25 5.003 0 12.803 4.9 15.336 9.634 1.77 3.306 1.17 3.43-11.033 2.296-8.773-.816-13.325-.52-14.213.91-1.878 3.037-6.696 2.61-6.696-.59zm43.01.26c0-3.216 7.615-9.836 13.44-11.685 4.72-1.5 16.1 4.386 17.596 9.098 1.512 4.76-.118 5.74-4.967 3.11-3.952-2.116-12.453-1.683-21.86 1.11-3.088.922-4.208.485-4.208-1.636zm37.62 222.474c-.59-20.267 2.644-29.586 14.385-41.483 7.84-7.942 23.103-15.8 30.743-15.83 3.89 0 5.142-.932 5.142-3.757 0-4.7-2.18-4.678-17.905.178-24.62 7.604-40.707 31.37-40.28 59.5.213 14.16 3.3 24.005 6.513 20.792 1.11-1.11 1.7-9.263 1.403-19.4zm-71.222-.757c1.844-9.38 1.822-13.44-.118-20.57-6.26-23.084-18.805-38.712-36.265-45.176-12.588-4.66-20.388-4.552-21.306.297-.496 2.61.698 3.272 5.907 3.272 23.24 0 45.056 25.338 44.966 52.23 0 6.758-1.134 15.54-2.472 19.52-2.026 6.027-2.008 7.496.12 8.806 3.41 2.108 6.267-3.615 9.17-18.378zm95.66 3.74c2.912-2.495 2.927-3.187.19-8.932-2.513-5.27-2.6-7.123-.555-12.036 3.148-7.6 10.407-13.162 17.174-13.162 3.9 0 5.862-1.182 7.008-4.208 2.075-5.488 1.583-5.825-6.34-4.34-14.197 2.664-27.043 20.07-27.12 36.755-.12 11.902 1.537 12.88 9.658 5.92zm-119.098-13.19c0-9.98-.85-13.72-4.21-18.422-2.31-3.244-4.2-6.64-4.2-7.545 0-2.18-9.16-7.5-18.722-10.874l-7.69-2.714.58 6.036c.495 5.19 1.23 5.962 5.21 5.515 6.855-.768 13.882 2.787 17.456 8.836 4.275 7.236 3.974 13.52-.946 19.773l-4.103 5.218 6.36 5.31c8.3 6.932 10.265 4.8 10.26-11.132zm28.988-79.633c0-4.466-11.864-20.488-18.428-24.885l-6.274-4.205-6.815 5.013c-3.75 2.758-7.14 5.23-7.538 5.498-2.548 1.713 7.065 10.494 16.836 15.377 12.345 6.168 22.22 7.59 22.22 3.2zm68.78-4.097c5.32-2.65 11.882-7.443 14.578-10.65l4.906-5.828-6.265-5.196c-3.446-2.86-7.198-5.22-8.337-5.247-6.246-.154-28.643 25.555-25.998 29.836 2.05 3.32 11.114 2.068 21.115-2.916zm85.153 21.62c-8.65-3.448-10.7-15.548-3.742-22.084 5.41-5.08 13.216-5.222 18.113-.33 10.36 10.357-.827 27.806-14.37 22.41zM298.886 171c-2.94-6.447-.59-13.873 4.808-15.228 9.81-2.464 16.898 6.908 11.476 15.18-4.15 6.337-13.408 6.363-16.284 0zm-19.317-20.935c-3.648-3.645-3.1-7.975 1.36-10.783 3.813-2.4 9.464.27 10.378 4.906.568 2.906-4.214 8.908-7.106 8.908-.887 0-2.966-1.364-4.633-3.03z"/></svg>