<svg xmlns="http://www.w3.org/2000/svg" width="400" height="127.006"><path d="M117.526 102.928c-1.18 0-2.084-.252-2.713-.762-.628-.51-.943-1.24-.943-2.178 0-.92.293-1.653.88-2.204.587-.552 1.407-.824 2.46-.824.957 0 1.677.232 2.158.695.483.47.725 1.136.725 2v.633h-4.27c.018.266.08.483.183.66.102.177.242.313.412.415.167.11.36.177.586.225.22.048.464.068.728.068.226 0 .45-.02.67-.068.216-.048.42-.102.6-.177.16-.06.308-.135.442-.203.138-.075.247-.143.334-.198h.204v1.448c-.16.062-.306.11-.438.164-.13.048-.313.095-.542.143-.21.054-.43.095-.654.122-.225.027-.5.04-.822.04zm.646-3.696c-.012-.374-.106-.66-.288-.85-.18-.198-.455-.293-.824-.293-.38 0-.676.1-.89.305-.213.204-.33.484-.354.837h2.356zm11.42 3.546h-2.283l-1.19-1.627-1.23 1.628h-2.234l2.3-2.825-2.26-2.816h2.283l1.17 1.592 1.172-1.593h2.24l-2.26 2.77 2.29 2.87zm9.178-2.9c0 .9-.25 1.628-.76 2.18-.504.55-1.128.83-1.872.83-.31 0-.582-.035-.81-.096-.23-.07-.476-.164-.736-.3v2.355h-1.946v-7.71h1.946v.585c.286-.218.576-.4.875-.538.296-.136.64-.204 1.03-.204.722 0 1.283.258 1.68.776.396.517.593 1.224.593 2.123zm-1.992.035c0-.55-.093-.945-.28-1.197-.188-.245-.48-.368-.877-.368-.174 0-.346.02-.52.076-.17.048-.342.122-.508.224v2.838c.104.04.218.068.342.08.126.02.273.028.443.028.475 0 .827-.143 1.057-.422.23-.28.344-.694.344-1.26zm7.316 2.865h-1.947v-7.82h1.947v7.82zm9.822-2.818c0 .926-.28 1.654-.843 2.192-.562.53-1.357.803-2.385.803-1.023 0-1.815-.27-2.38-.803-.567-.538-.85-1.266-.85-2.192 0-.938.284-1.673.85-2.204.565-.53 1.357-.797 2.38-.797 1.025 0 1.82.266 2.383.796.565.538.846 1.272.846 2.204zm-1.997.007c0-.333-.033-.612-.093-.837-.064-.225-.146-.4-.255-.537-.114-.137-.245-.24-.388-.293-.146-.054-.31-.082-.495-.082-.176 0-.333.028-.476.076-.142.047-.27.136-.39.278-.11.13-.198.307-.267.538-.066.224-.1.51-.1.857 0 .348.032.626.095.838.063.21.145.38.245.51.104.13.235.225.39.286.156.062.328.096.517.096.155 0 .315-.034.476-.095.16-.06.29-.15.386-.27.116-.144.203-.314.262-.518.06-.204.09-.484.09-.845zm9.556-1.17h-.16c-.074-.027-.183-.04-.322-.054-.14-.014-.298-.014-.468-.014-.206 0-.418.026-.645.074-.223.054-.442.122-.652.19v3.785h-1.95v-5.643h1.95v.803c.09-.068.214-.163.37-.272.158-.115.302-.204.433-.27.14-.077.308-.144.49-.2.19-.053.367-.08.535-.08.06 0 .133 0 .21.006.08 0 .15.007.21.015v1.657zm6.52 2.51v-1.176c-.33.028-.598.055-.8.076-.208.02-.406.068-.604.13-.172.053-.3.135-.396.244-.095.11-.143.252-.143.435 0 .26.08.443.238.545.158.095.39.143.697.143.172 0 .345-.033.526-.102.177-.067.338-.17.483-.292zm0 .872l-.36.27c-.107.076-.246.158-.425.24-.174.074-.343.135-.508.175-.166.042-.396.06-.694.06-.552 0-1.013-.17-1.376-.502-.368-.333-.55-.755-.55-1.265 0-.416.092-.756.28-1.015.183-.26.452-.462.798-.613.354-.156.776-.258 1.266-.32.49-.06 1.017-.11 1.58-.142v-.034c0-.306-.126-.524-.38-.64-.255-.122-.638-.183-1.145-.183-.227 0-.497.042-.806.116-.31.075-.61.17-.904.286h-.166v-1.36c.194-.05.505-.11.934-.178.432-.068.868-.102 1.303-.102 1.08 0 1.864.164 2.355.483.493.327.74.817.74 1.484v3.837h-1.94v-.598zm8.066-1.375l-1.946 3.83h-1.186l1.095-3.83h2.037zm10.074 2.123c-1.18 0-2.086-.252-2.714-.762-.627-.51-.944-1.24-.944-2.178 0-.92.293-1.653.88-2.204.586-.55 1.407-.824 2.46-.824.957 0 1.68.232 2.162.695.48.47.72 1.136.72 2v.633h-4.27c.02.266.08.483.186.66.1.177.24.313.41.415.166.11.362.177.585.225.222.048.466.068.73.068.225 0 .45-.02.668-.068.22-.048.42-.102.6-.177.16-.06.31-.135.445-.203.136-.075.246-.143.33-.198h.207v1.448c-.16.062-.306.11-.437.164-.13.048-.313.095-.545.143-.21.054-.428.095-.652.122-.223.027-.497.04-.82.04zm.646-3.696c-.012-.374-.107-.66-.287-.85-.182-.198-.456-.293-.827-.293-.38 0-.676.1-.89.305-.21.204-.33.484-.353.837h2.357zm7.2 3.546h-1.95v-7.82h1.95v7.82zm5.768 0h-1.946v-5.64h1.946v5.64zm.058-6.445h-2.058V94.96h2.058v1.373zm7.498 4.663v-2.553c-.096-.04-.218-.074-.355-.102-.142-.026-.284-.04-.42-.04-.47 0-.824.137-1.058.41-.238.27-.353.652-.353 1.142 0 .244.015.45.05.62.037.17.1.32.2.448.092.13.213.225.363.293.15.06.34.095.578.095.18 0 .348-.027.512-.08.17-.056.334-.13.484-.232zm1.946 1.13c0 .523-.08.965-.252 1.333-.163.365-.395.652-.68.85-.293.21-.64.36-1.042.45-.408.094-.85.142-1.347.142-.416 0-.81-.027-1.18-.075-.374-.048-.7-.102-.973-.17v-1.41h.23c.095.035.21.07.34.11.133.04.266.074.398.11.16.04.317.067.47.094.15.02.305.035.463.035.334 0 .607-.034.83-.095.22-.062.382-.15.498-.266.11-.115.19-.25.23-.408.05-.164.07-.36.07-.6v-.108c-.218.176-.47.313-.763.422-.286.102-.58.157-.884.157-.813 0-1.436-.24-1.875-.715-.438-.476-.66-1.197-.66-2.17 0-.444.068-.838.205-1.192.135-.347.32-.653.565-.898.228-.24.506-.423.833-.552.327-.13.667-.19 1.02-.19.32 0 .605.034.857.11.252.074.484.17.687.298l.075-.25h1.886v4.987zm7.023.802c-1.177 0-2.083-.252-2.715-.762-.626-.51-.946-1.24-.946-2.178 0-.92.293-1.653.885-2.204.584-.552 1.4-.824 2.455-.824.96 0 1.68.232 2.164.695.483.47.72 1.136.72 2v.633h-4.267c.015.266.076.483.185.66.102.177.238.313.407.415.164.11.362.177.586.225.226.048.464.068.73.068.224 0 .45-.02.666-.068.218-.048.422-.102.606-.177.156-.06.306-.135.442-.203.137-.075.245-.143.334-.198h.204v1.448c-.163.062-.306.11-.442.164-.13.048-.313.095-.538.143-.21.054-.435.095-.653.122-.226.027-.505.04-.825.04zm.647-3.696c-.015-.374-.11-.66-.286-.85-.184-.198-.457-.293-.83-.293-.38 0-.674.1-.885.305-.217.204-.332.484-.353.837h2.355zm7.608 1.573l-1.946 3.83H221.4l1.095-3.83h2.035zm12.556 1.973h-1.947v-.592c-.13.095-.272.197-.436.306-.156.102-.3.183-.422.238-.157.068-.313.115-.462.15-.15.033-.334.053-.545.053-.714 0-1.28-.265-1.695-.802-.415-.53-.626-1.245-.626-2.137 0-.49.075-.91.21-1.28.144-.36.34-.674.586-.938.232-.245.504-.443.824-.586.327-.144.667-.212 1.028-.212.327 0 .592.028.803.09.212.06.456.162.735.29v-2.4h1.947v7.82zm-1.947-1.558v-2.77c-.103-.04-.225-.08-.382-.11-.156-.027-.286-.04-.4-.04-.463 0-.818.15-1.056.442-.232.293-.354.708-.354 1.24 0 .55.096.95.286 1.203.183.245.49.367.905.367.176 0 .346-.027.516-.088.178-.06.34-.143.483-.244zm7.717 1.558h-1.953v-5.64h1.953v5.64zm.055-6.445h-2.063V94.96h2.062v1.373zm5.668 6.602c-.462 0-.9-.048-1.306-.136-.41-.097-.75-.198-1.014-.32v-1.484h.156c.095.06.204.13.32.21.115.075.286.156.497.238.183.082.387.143.612.198.232.054.476.082.742.082.28 0 .518-.035.728-.11.21-.08.313-.205.313-.367 0-.137-.048-.232-.143-.3-.095-.068-.28-.13-.564-.19-.142-.034-.333-.07-.558-.11-.224-.04-.428-.08-.598-.13-.49-.142-.858-.346-1.11-.61-.245-.273-.367-.628-.367-1.063 0-.252.062-.49.19-.715.13-.218.314-.416.565-.593.252-.17.558-.305.92-.408.367-.103.78-.15 1.238-.15.442 0 .843.04 1.212.115.367.08.674.177.925.286v1.423h-.156c-.06-.04-.17-.11-.313-.184-.143-.08-.285-.15-.42-.205-.165-.068-.35-.122-.553-.163-.198-.048-.408-.07-.62-.07-.278 0-.516.042-.713.13-.196.09-.292.205-.292.348 0 .13.048.225.143.3.103.075.307.15.634.218.163.04.36.074.57.108.22.035.43.082.634.143.442.13.782.326 1.014.577.23.252.354.586.354 1.008 0 .258-.068.517-.21.755-.137.238-.334.442-.587.606-.266.177-.58.313-.94.408-.36.103-.797.15-1.3.15zm10.29-6.65h-.157c-.068-.02-.183-.048-.347-.08-.156-.028-.306-.05-.45-.05-.387 0-.66.07-.796.2-.15.135-.217.373-.217.734v.047h1.545v1.224h-1.477v4.418h-1.945V98.36h-.783v-1.223h.783v-.157c0-.687.197-1.212.598-1.552.4-.347 1.007-.517 1.818-.517.286 0 .545.008.79.028.244.02.456.04.64.075v1.272zm6.887 2.512h-.164c-.074-.027-.183-.04-.32-.054-.142-.014-.3-.014-.47-.014-.203 0-.42.026-.645.074-.225.054-.443.122-.654.19v3.785h-1.946v-5.643h1.946v.803c.088-.068.21-.163.374-.272.156-.115.3-.204.43-.27.142-.077.305-.144.49-.2.19-.053.366-.08.53-.08.068 0 .136 0 .217.006.076 0 .15.007.21.015v1.657h.002zm8.874 3.98h-1.945v-.625c-.334.26-.647.45-.926.58-.287.135-.62.203-1.015.203-.62 0-1.096-.177-1.443-.53-.353-.354-.523-.885-.523-1.6v-3.668h1.96v2.797c0 .293.005.53.025.714.015.184.055.34.116.462.063.116.15.21.28.267.123.06.293.095.517.095.137 0 .3-.034.49-.095.184-.055.362-.143.518-.245v-3.995h1.947v5.64zm6.222.11c-.797 0-1.376-.15-1.736-.442-.36-.3-.544-.776-.544-1.45v-2.634h-.75v-1.223h.75v-1.613h1.946v1.613h1.88v1.224h-1.88v1.995c0 .205.007.374.007.524.007.142.034.278.088.394.054.116.143.21.28.28.13.067.32.1.57.1.11 0 .246-.02.416-.06.163-.04.285-.075.353-.11h.164v1.24c-.21.047-.436.088-.674.115-.24.033-.53.047-.87.047zm8.11-1.58v-1.176c-.325.028-.598.055-.802.076-.205.02-.4.068-.6.13-.17.053-.3.135-.394.244-.095.11-.143.252-.143.435 0 .26.075.443.238.545.158.095.39.143.695.143.17 0 .348-.033.524-.102.176-.067.34-.17.483-.292zm0 .872c-.128.1-.25.19-.353.27-.11.076-.252.158-.43.24-.175.074-.34.135-.51.175-.163.042-.395.06-.694.06-.55 0-1.006-.17-1.375-.502-.367-.333-.55-.755-.55-1.265 0-.416.095-.756.278-1.015.184-.26.457-.462.804-.613.354-.156.776-.258 1.266-.32.49-.06 1.014-.11 1.58-.142v-.034c0-.306-.13-.524-.382-.64-.26-.122-.64-.183-1.144-.183-.232 0-.503.042-.81.116-.306.075-.605.17-.898.286h-.17v-1.36c.197-.05.503-.11.932-.178.436-.068.872-.102 1.307-.102 1.076 0 1.864.164 2.355.483.49.327.735.817.735 1.484v3.837h-1.94v-.598z" fill="#6a7a80"/><path d="M0 43.046l15.72 2.065c-.57 24.014 29.214 66.61 65.395 64.576l2.277 17.32c-30.382-.83-78.33-26.38-83.392-83.96zm54.853 5.39c1.644-7.614 9.63-10.64 17.835-6.772 8.206 3.872 13.524 13.183 11.88 20.79-1.642 7.612-9.632 10.64-17.834 6.77-8.202-3.87-13.523-13.18-11.88-20.788zm24.897 58.16l-3.423-18.992c21.495.34 23.877-13.136 22.44-28.084l12.72 1.407c6.782 33.447-12.916 47.084-31.737 45.67zM60.41 2.288l1.242 9.405c18.783 2.767 47.35 27.4 52.048 50.193l8.796 1.13c-9.272-27.762-31.418-52.01-62.086-60.728zm-40.8 44.456C19.638 14.94 44.32 8.522 62.697 13.96l2.04 12.304C48.06 22.876 35.092 32.83 37.83 49.586l-18.22-2.842z" clip-rule="evenodd" fill="#d1d3d4" fill-rule="evenodd"/><path d="M56.26 46.112c1.69-7.6 9.698-10.58 17.878-6.657 8.178 3.923 13.442 13.266 11.75 20.865-1.692 7.598-9.696 10.58-17.876 6.656-8.18-3.924-13.443-13.268-11.752-20.864z" clip-rule="evenodd" fill="#005833" fill-rule="evenodd"/><path d="M21.032 44.2c.225-31.808 24.95-38.07 43.29-32.514L66.283 24C49.63 20.51 36.6 30.385 39.228 47.157L21.03 44.2z" clip-rule="evenodd" fill="#6a7a80" fill-rule="evenodd"/><path d="M80.79 104.432l-3.302-19.017c21.49.477 23.96-12.984 22.615-27.942l12.712 1.487c6.57 33.487-13.215 47.003-32.026 45.472z" clip-rule="evenodd" fill="#fbaa27" fill-rule="evenodd"/><path d="M62.108 0l1.184 9.414c18.764 2.885 47.177 27.698 51.728 50.52l8.79 1.187C114.712 33.3 92.72 8.914 62.107 0zM1.445 40.374l15.703 2.166c-.72 24.01 28.794 66.792 64.988 64.988l2.166 17.326C53.928 123.84 6.14 97.988 1.445 40.374z" clip-rule="evenodd" fill="#6a7a80" fill-rule="evenodd"/><path d="M67.693 61.43l14.092-7.207-17.45-11.65z" fill="#fff" fill-rule="evenodd"/><path d="M193.33 40.888c-2.812 3.918-8.448 2.025-7.058-6.717.847-5.35 4.62-7.642 6.948-5.712l.3-5.284c-4.42-1.884-10.55 1.754-12.02 10.882-2.292 14.253 5.898 18.15 11.987 12.04l-.156-5.208zm-42.038 10.928c-5.5 5.334-16.514 2.758-13.8-9.144 1.66-7.282 9.038-10.406 13.58-7.774l.588-7.195c-8.64-2.562-20.62 2.39-23.49 14.81-4.484 19.41 11.522 24.708 23.422 16.395l-.3-7.092zm56.946-29.673l-3.288.007-4.196 9.868V12.25h-3.304v33.19l3.304-1.047V33.215l3.67 10.014 3.875-1.232-4.11-10.205 4.048-9.65zm-49.577-9.965h6.32v43.568l-6.32 2.006V12.178zm17.837 12.732v27.18l-5.323 1.69V24.91h5.323zm-5.323-11.757h5.323v6.206h-5.323v-6.207z" clip-rule="evenodd" fill="#fbaa27" fill-rule="evenodd"/><path d="M115.73 90.426h14.203l3.015-16.9h3.106l-3.013 16.9h13.46l3.015-16.9h3.107l-3.015 16.9h13.308l1.523-7.987c.507-2.664 1.014-5.33 1.522-7.99.558-2.932-1.38-5.33-4.31-5.33h-41.862c-.683 3.553-1.36 7.11-2.035 10.66-.677 3.546-1.352 7.1-2.024 10.646zm250.767.02h30.332c.502-2.664 1.006-5.327 1.516-7.99.51-2.663 1.02-5.327 1.525-7.99.558-2.93-.742-5.328-2.892-5.328-8.888 0-17.728-.017-26.596-.017-3.185 0-4.457 4.612-1.265 4.612h17.347l-.26 2.143h-15.95c-1.3 0-4.738.853-5.737 4.502-.43 1.55-.607 3.165-.906 4.743-.55 2.93.737 5.326 2.887 5.326zM377.97 80.42h7.133l-1.232 5.52h-7.13l1.23-5.52zM249.065 90.427H279.388c.51-2.66 1.014-5.325 1.524-7.987.51-2.665 1.014-5.328 1.525-7.99.558-2.93-.742-5.33-2.892-5.33-8.89 0-17.735-.016-26.596-.016-3.187 0-4.458 4.61-1.267 4.61h17.347l-.26 2.145h-15.95c-1.3 0-4.737.85-5.737 4.5-.43 1.55-.606 3.164-.905 4.744-.558 2.927.735 5.322 2.886 5.322zm11.473-10.022h7.132l-1.232 5.52h-7.132l1.23-5.52zm-89.65 10.022h30.326c.507-2.66 1.01-5.325 1.52-7.987.51-2.665 1.02-5.328 1.524-7.99.557-2.93-.744-5.33-2.894-5.33-8.884 0-17.728-.016-26.594-.016-3.182 0-4.455 4.61-1.267 4.61h17.35l-.26 2.145h-15.95c-1.3 0-4.738.85-5.74 4.5-.427 1.55-.602 3.164-.903 4.744-.555 2.927.737 5.322 2.886 5.322zm11.472-10.022h7.13l-1.23 5.52h-7.133l1.232-5.52zM361.82 69.12h-13.854l-3.015 16.903h-7.547l3.015-16.903h-13.046c-.502 2.664-1.006 5.33-1.516 7.99-.51 2.664-1.022 5.328-1.525 7.993-.557 2.928.736 5.323 2.88 5.323H357.757c.675-3.55 1.355-7.103 2.036-10.654.674-3.548 1.348-7.102 2.028-10.652zM206.463 90.426h13.856l3.014-16.9h7.54l-3.014 16.9h13.045c.504-2.66 1.014-5.323 1.525-7.987.503-2.665 1.014-5.328 1.524-7.99.558-2.93-.735-5.33-2.878-5.33h-30.556c-.674 3.553-1.354 7.11-2.028 10.66-.674 3.546-1.354 7.1-2.028 10.646zM322.276 69.12H296.58c-8.59 0-9.134 2.803-10.1 7.928l-1.524 8.054c-.552 2.93.728 5.323 2.858 5.323h16.523l-.96 5.683h-3.66c-4.09 0-5.112 5.063-1.736 5.063 2.75 0 5.636-.005 8.38-.005 7.608 0 10.657-4.92 11.875-11.197l4.04-20.848zm-21.437 4.74l6.77.068-2.144 11.88-6.77-.067 2.143-11.88z" clip-rule="evenodd" fill="#e82c2e" fill-rule="evenodd"/></svg>