<svg xmlns="http://www.w3.org/2000/svg" width="264.661" height="184.576"><defs><clipPath id="a"><path d="M28.254 122.78h99.703V21.437H28.254V122.78z"/></clipPath><clipPath id="b"><path d="M28.254 122.78h99.703V21.437H28.254V122.78z"/></clipPath><clipPath id="c"><path d="M78.105 122.78c27.533 0 49.852-22.686 49.852-50.672 0-27.986-22.32-50.672-49.852-50.672-27.53 0-49.85 22.686-49.85 50.672 0 27.986 22.32 50.673 49.85 50.673" clip-rule="evenodd"/></clipPath><linearGradient x2="1" gradientUnits="userSpaceOnUse" gradientTransform="matrix(32 -90 -90 -32 62.3 116.56)" id="d"><stop offset="0" stop-color="#737577"/><stop offset=".774" stop-color="#fff"/><stop offset="1" stop-color="#fff"/></linearGradient><clipPath id="e"><path d="M33.402 114.767h76.61V34.484h-76.61v80.283z"/></clipPath><clipPath id="f"><path d="M33.402 114.767h76.61V34.484h-76.61v80.283z"/></clipPath><linearGradient x2="1" gradientUnits="userSpaceOnUse" gradientTransform="matrix(32 -90 -90 -32 62.3 116.56)" id="g"><stop offset="0" stop-color="#373535"/><stop offset=".86" stop-color="#fff"/><stop offset="1" stop-color="#fff"/></linearGradient><clipPath id="h"><path d="M4.907 142.524h236.736V11.628H4.907v130.896z"/></clipPath><linearGradient id="A" gradientTransform="matrix(0 -53.5 -53.5 0 189.46 104.5)" gradientUnits="userSpaceOnUse" x2="1"><stop offset="0" stop-color="#33afa2"/><stop offset="1" stop-color="#ebf6f4"/></linearGradient><linearGradient id="z" gradientTransform="matrix(0 -53.5 -53.5 0 156.13 104.5)" gradientUnits="userSpaceOnUse" x2="1"><stop offset="0" stop-color="#33afa2"/><stop offset="1" stop-color="#ebf6f4"/></linearGradient><linearGradient id="y" gradientTransform="matrix(0 -53.5 -53.5 0 117.67 104.5)" gradientUnits="userSpaceOnUse" x2="1"><stop offset="0" stop-color="#33afa2"/><stop offset="1" stop-color="#ebf6f4"/></linearGradient><linearGradient id="x" gradientTransform="matrix(0 -53.5 -53.5 0 66.9 104.5)" gradientUnits="userSpaceOnUse" x2="1"><stop offset="0" stop-color="#33afa2"/><stop offset="1" stop-color="#ebf6f4"/></linearGradient><clipPath id="i"><path d="M4.907 142.524h236.736V11.628H4.907v130.896z"/></clipPath><clipPath id="v"><path d="M4.907 142.524h236.736V11.628H4.907v130.896z"/></clipPath><clipPath id="u"><path d="M33.402 114.767h76.61V34.484h-76.61v80.283z"/></clipPath><mask id="t" height="1" width="1" y="0" x="0" maskUnits="userSpaceOnUse"><g clip-path="url(#j)"><path d="M33.402 114.767h76.61V34.485H33.4v80.282z"/><g clip-path="url(#k)"><path d="M78.105 122.78c27.533 0 49.852-22.686 49.852-50.672 0-27.986-22.32-50.672-49.852-50.672-27.53 0-49.85 22.686-49.85 50.672 0 27.986 22.32 50.673 49.85 50.673" fill="url(#l)" fill-rule="evenodd"/></g></g></mask><linearGradient id="l" gradientTransform="matrix(32 -90 -90 -32 62.3 116.56)" gradientUnits="userSpaceOnUse" x2="1"><stop offset="0" stop-color="#373535"/><stop offset=".86" stop-color="#fff"/><stop offset="1" stop-color="#fff"/></linearGradient><clipPath id="k"><path d="M33.402 114.767h76.61V34.484h-76.61v80.283z"/></clipPath><clipPath id="j"><path d="M33.402 114.767h76.61V34.484h-76.61v80.283z"/></clipPath><clipPath id="s"><path d="M28.254 122.78h99.703V21.437H28.254V122.78z"/></clipPath><mask id="r" height="1" width="1" y="0" x="0" maskUnits="userSpaceOnUse"><g clip-path="url(#m)"><path d="M28.254 122.78h99.703V21.436H28.254V122.78z"/><g clip-path="url(#n)"><path d="M78.105 122.78c27.533 0 49.852-22.686 49.852-50.672 0-27.986-22.32-50.672-49.852-50.672-27.53 0-49.85 22.686-49.85 50.672 0 27.986 22.32 50.673 49.85 50.673" fill="url(#o)" fill-rule="evenodd"/></g></g></mask><linearGradient id="o" gradientTransform="matrix(32 -90 -90 -32 62.3 116.56)" gradientUnits="userSpaceOnUse" x2="1"><stop offset="0" stop-color="#737577"/><stop offset=".774" stop-color="#fff"/><stop offset="1" stop-color="#fff"/></linearGradient><clipPath id="n"><path d="M28.254 122.78h99.703V21.437H28.254V122.78z"/></clipPath><clipPath id="m"><path d="M28.254 122.78h99.703V21.437H28.254V122.78z"/></clipPath><clipPath id="q"><path d="M0 144h216V0H0v144z"/></clipPath><linearGradient id="p" gradientTransform="scale(135.36) rotate(-55 1.05 .19)" gradientUnits="userSpaceOnUse" x2="1"><stop offset="0" stop-color="#1e8f93"/><stop offset=".307" stop-color="#99c6c8"/><stop offset=".6" stop-color="#fff"/><stop offset="1" stop-color="#fff"/></linearGradient></defs><path fill="#fff" d="M0 0h264.66v184.576H0z"/><path d="M11.332 72c0-37.265 30.222-67.487 67.487-67.487 37.266 0 67.487 30.222 67.487 67.487 0 37.266-30.22 67.487-67.488 67.487-37.266 0-67.488-30.22-67.488-67.487m14.884 0c0 29.048 23.557 52.603 52.603 52.603 29.046 0 52.603-23.555 52.603-52.603 0-29.047-23.557-52.603-52.604-52.603S26.215 42.953 26.215 72" fill="url(#p)" transform="matrix(1.25 0 0 -1.25 -2.22 182.29)"/><g clip-path="url(#q)" transform="matrix(1.25 0 0 -1.25 -2.22 182.29)"><g mask="url(#r)"><g clip-path="url(#s)"><path d="M78.106 122.78c27.532 0 49.852-22.687 49.852-50.672 0-27.986-22.32-50.673-49.852-50.673-27.53 0-49.852 22.687-49.852 50.673 0 27.985 22.32 50.673 49.852 50.673" fill="#9ed8d6" fill-rule="evenodd"/></g></g><g mask="url(#t)"><g clip-path="url(#u)"><path d="M77.924 38.42l1.945-.983 1.697.457 1.193-.275 2.994-.07 2.783.327 1.63 1.102-.686 2.545-1.34.83-.94 1.148-8.314 5.536-1.812-.032-2.146 1.733-1.012-.27-1.353.475-2.026-.404-.93-1.614.68-.972.78-2.906 2.904-3.77 3.954-2.858zM39.387 61.424l4.846 1.2 1.193 1.734-.56 1.987L46 68.805l1.43-.003.703.972-.522.542-2.57 6.67 3.117 1.606 3.466.72 1.994 4.477 1.468 1.962 1.2-.93 1.89-.46 2.228-1.094.917.294-.52 1.643 2.76 3.268 2.407 4.608.834.446 1.022 1.394-.54.607.218 3.48 1.274.056.45 1.103-.878.57.204.456-.024.74 1.752 2.16 1.456.467 1.908-1.734 4.153.09 1.697 1.79.998-.07.18 1.192 1.914.224.293 1.054 2.517.417 2.762 2.057.885 1.492.982.315 1.514 2.476 2.153.904 2.52-.257-.096-.03-.3-4.54 3.997-6.78-2.228-8.35 1.345-10.83 3.25-8.05-.34-1.78 2.054-4.386.49-1.547-1.58-.508-.358-2.496.604-4.21-.917-.295-.215-.425 1.613-1.898.777-1.35 1.61-3.427-1.414-2.904-.882-2.38 3.786-5.89 2.602-1.722.006-.566-1.552-1.92-2.147-1.47-1.717.8-1.795-.932-1.763.18-.41 1.29-2.838 1.256-1.74-.56-3.714.834-3.267-3.43-8.335 1.554-1.866-.6-2.23.99-1.178-3.432-.033-.224-2.62.9-2.034 1.905-13.198 6.776-4.174 3.6-.198 1.284-6.798 2.864-8.013 4.39-2.27 1.225-2.464.843-.257.485 1.08 2.087 4.382-1.292.522 1.87z" fill="#69c1b0"/></g></g><path d="M31.58 90.337c17.944 33.04 64.533 38.05 88.994 8.32M53.407 116.132c1.766-.512 3.573-1.068 5.425-1.668.805 2.05 2.305 4.102 4.82 6.153M54.53 112.545c-31.327-33.96-23.29-78.38 13.45-90.063M56.86 113.64C39.92 76.198 53.93 22.816 84.126 21.8M58.832 114.464c2.238-21.172 26.643-80.09 37.175-89.662M60.266 115.007c32.98-22.514 57.113-66.542 47.124-83.91M62.283 115.695c34.15 1.48 68.096-33.216 58.69-69.464M37.857 102.01c-.744-19.967 60.172 8.37 42.628 20.714M28.426 76.335c13.45-21.662 80.97 10.09 79.9 36.074M35.01 46.624c23.675-10.553 84.316 15.326 89.62 43.72" fill="none" stroke="#fff" stroke-width=".85" stroke-linecap="square" stroke-linejoin="round" stroke-miterlimit="22.926"/><path d="M24.176 60.615c-.082.17-.182.332-.3.49l-1.702-.394c.104-.1.188-.21.25-.324.064-.116.11-.236.14-.36.05-.234.028-.45-.074-.648-.1-.2-.276-.373-.527-.526-.25-.152-.575-.274-.97-.367-.622-.142-1.11-.153-1.47-.03-.36.123-.584.373-.67.752-.027.11-.037.227-.03.35.005.127.03.258.068.393l-1.626-.377c-.022-.19-.027-.384-.016-.58.01-.193.038-.39.084-.592.09-.386.256-.723.493-1.015.238-.29.537-.523.896-.698.36-.176.768-.282 1.224-.32.456-.037.948.003 1.477.124.61.14 1.124.34 1.548.595.424.257.76.582 1.01.974.205.326.34.66.404 1.004.065.344.058.686-.02 1.028-.042.18-.104.355-.186.523M18.1 63.455c-.023.174.028.315.15.423.123.108.322.195.595.264.273.068.62.126 1.048.176.428.055.783.084 1.064.084.28 0 .494-.037.636-.113.146-.075.23-.2.248-.373.024-.174-.026-.315-.148-.426-.12-.107-.32-.197-.59-.265-.273-.07-.625-.13-1.053-.18-.428-.056-.78-.082-1.06-.08-.283 0-.495.038-.64.115-.147.077-.23.202-.25.375m2.236-2.36c.775.095 1.414.28 1.922.553.508.272.875.62 1.103 1.038.228.422.31.905.245 1.448-.068.544-.263.992-.585 1.342-.322.352-.762.598-1.32.737-.558.138-1.224.162-1.997.068-.775-.096-1.416-.28-1.926-.55-.508-.27-.877-.616-1.108-1.037-.23-.418-.312-.9-.248-1.444.07-.545.264-.993.588-1.347.325-.35.767-.598 1.325-.738.56-.14 1.228-.165 2-.07M23.018 68.776l-4.933.157 4.933.775v1.45l-4.933.775 4.933.147v1.785l-6.964-.5V71.04l3.672-.607-3.672-.608V67.5l6.964-.5v1.776zM23.168 76.494l-6.937.61-.167-1.945L23 74.55l.168 1.944zM16.742 78.62c.153-.214.345-.388.574-.523.228-.136.486-.226.776-.27.223-.028.433-.025.628.012.196.037.386.104.572.2.185.097.372.216.565.358.193.143.396.304.61.482.11.09.213.17.303.235.09.07.177.12.26.152.08.034.164.045.247.034.092-.013.17-.046.236-.1.067-.057.115-.126.147-.212.03-.086.04-.18.025-.29-.023-.165-.104-.356-.246-.57-.142-.216-.345-.45-.613-.705l1.904-.27c.213.247.38.495.506.75.123.25.205.515.243.79.063.475.027.9-.108 1.276-.135.374-.357.68-.663.92-.308.24-.686.39-1.137.458-.252.035-.48.037-.685.002-.206-.034-.397-.1-.578-.192-.18-.096-.362-.218-.54-.366-.18-.148-.373-.32-.576-.515-.097-.096-.187-.18-.27-.254-.082-.072-.164-.127-.244-.164-.08-.038-.167-.05-.26-.038-.123.02-.215.076-.28.17-.065.098-.087.222-.067.375.023.164.094.342.214.53.12.19.29.388.506.595l-1.79.253c-.17-.26-.305-.513-.41-.766-.102-.252-.17-.5-.205-.742-.043-.318-.033-.613.03-.887.062-.272.172-.516.324-.73M24.148 83.527L17.29 84.74l-.336-1.922 6.857-1.213.338 1.922zM23.308 87.148c-.05-.168-.152-.276-.31-.327-.154-.05-.37-.05-.647-.002-.275.048-.62.137-1.033.265-.412.124-.744.244-1 .36-.258.115-.437.238-.54.367-.1.13-.127.277-.074.445.05.167.153.276.31.323.155.05.37.05.65 0 .275-.05.618-.14 1.028-.267.414-.124.75-.243 1.007-.357.256-.116.435-.235.536-.364.102-.128.127-.275.075-.442m.8 2.155c-.453.355-1.05.648-1.797.878-.744.23-1.405.322-1.98.283-.574-.04-1.05-.204-1.433-.493-.38-.29-.65-.696-.81-1.218-.158-.526-.16-1.014-.008-1.47.154-.454.457-.86.91-1.216.455-.357 1.054-.652 1.8-.883.746-.226 1.406-.318 1.98-.277.574.04 1.05.207 1.428.498.38.292.65.7.81 1.223.157.523.16 1.013.008 1.464-.15.454-.454.86-.907 1.213M20.44 95.19l3.395-1.38-3.798.38-.724-1.802 6.457-2.62.666 1.655-3.232 1.313 3.637-.303.72 1.78-6.458 2.622-.662-1.645zM24.322 103.308l3.17-1.84-3.708.906-.967-1.68 6.03-3.496.89 1.545-3.02 1.75 3.562-.807.955 1.664-6.03 3.495-.883-1.537zM31.047 105.533l-.454-.626-1.86 1.83 2.314-1.204zm-4.54 1.47l4.74-5.348 1.113 1.54-.744.724.678.934.915-.485 1.113 1.538-6.53 2.87-1.285-1.776zM35.32 109.828c-.052-.12-.118-.23-.198-.33-.15-.188-.334-.3-.553-.344-.22-.04-.465-.01-.738.095-.274.103-.57.285-.886.54-.494.404-.804.784-.93 1.145-.124.36-.066.692.178.994.07.086.157.168.26.238.1.072.22.135.348.187l-1.297 1.055c-.164-.1-.32-.215-.464-.344-.146-.127-.284-.27-.412-.43-.248-.31-.412-.65-.496-1.017-.082-.367-.08-.747.004-1.14.084-.39.25-.78.502-1.164.252-.384.586-.748 1.006-1.092.484-.395.957-.68 1.42-.86.462-.175.924-.24 1.385-.196.382.038.728.137 1.038.298.31.16.573.376.793.648.117.145.217.302.298.47.08.168.148.348.2.538l-1.357 1.104c-.015-.144-.05-.277-.1-.398M32.313 114.383l5.008-4.855 1.35 1.403-5.006 4.857-1.352-1.404zM39.815 114.463c-.127-.12-.27-.163-.43-.128-.16.034-.348.142-.563.322-.216.18-.47.43-.765.75-.294.314-.522.583-.686.813-.165.228-.258.425-.283.588-.023.164.028.305.157.423.126.122.27.163.43.126.16-.036.345-.145.56-.327.216-.182.468-.432.76-.75.295-.313.527-.586.692-.813.165-.23.26-.422.283-.584.025-.162-.027-.302-.155-.42m.647 3.127c-.533.572-1.058.984-1.576 1.24-.516.254-1.01.35-1.486.29-.472-.06-.91-.276-1.31-.648-.396-.374-.642-.797-.737-1.27-.093-.47-.03-.973.184-1.51.215-.536.588-1.092 1.118-1.667.533-.57 1.06-.982 1.577-1.234.517-.252 1.013-.347 1.484-.284.474.062.91.28 1.31.652.398.374.644.797.738 1.264.095.47.034.97-.182 1.506-.217.534-.59 1.088-1.12 1.662M41.397 122.7l2.254-2.897-3.1 2.234-1.524-1.195 4.286-5.51 1.4 1.098-2.146 2.76 3-2.09 1.51 1.183-4.287 5.51-1.394-1.092zM48.683 122.124l-.654-.41-1.045 2.397 1.698-1.986zm-3.66 3.07l2.397-6.74 1.607 1.007-.42.952.978.613.667-.795 1.608 1.008-4.983 5.118-1.854-1.163zM53.072 123.777l-2.377 4.683-1.74-.89 3.16-6.23 3.012 1.54-.785 1.547-1.27-.65zM59.665 126.83c-.075-.155-.216-.264-.42-.326l-.084-.026-1.033 3.395.065.02c.213.067.395.056.547-.03.154-.087.29-.25.41-.488.12-.24.24-.555.356-.945.12-.387.196-.71.227-.975.03-.262.008-.47-.068-.625m1.082 3.582c-.255.385-.542.673-.86.86-.22.128-.435.22-.645.273-.21.053-.426.078-.642.072-.216-.004-.443-.033-.68-.084-.235-.052-.487-.12-.758-.203l-1.382-.424 2.036-6.686 1.793.55c.925.287 1.536.78 1.84 1.482.3.705.28 1.61-.056 2.717-.177.575-.39 1.057-.647 1.442M64.338 128.05l-.264.925 1.305.376-.45 1.575-1.306-.376-.244.857 1.445.416-.466 1.63-3.324-.956 1.92-6.72 3.323.957-.497 1.734-1.445-.417zM71.29 129.338l1.51 5.422-4.478-.553.213-1.742 1.803.223-1.517-5.462 4.53.557-.22 1.782-1.84-.227zM76.85 130.49c-.033-.278-.096-.486-.188-.62-.09-.136-.224-.202-.4-.2-.173-.002-.307.064-.4.2-.094.134-.158.342-.193.62-.037.28-.053.64-.05 1.07-.003.433.013.787.05 1.067.034.28.098.488.19.625.095.134.23.203.403.202.175 0 .308-.068.4-.202.09-.137.154-.344.188-.625.035-.28.05-.634.048-1.066.002-.43-.013-.79-.047-1.07m.812 4.238c-.386.28-.854.42-1.4.422-.544-.002-1.012-.142-1.4-.422-.388-.28-.686-.69-.892-1.23-.207-.54-.313-1.203-.314-1.986 0-.783.107-1.443.314-1.983.206-.54.504-.948.892-1.226s.856-.418 1.4-.42c.546.002 1.014.142 1.4.42.386.278.683.686.888 1.225.205.54.31 1.2.31 1.982 0 .783-.105 1.445-.31 1.986-.205.54-.502.95-.888 1.23M82.932 134.953l-.255-3.668-.816 3.743-1.928.136-.486-6.975 1.773-.126.242 3.493.838-3.57 1.91-.133.486 6.975-1.764.123zM87.042 129.988l.692 2.523.074-2.616-.766.094zm-.155 4.604l-2.362-6.754 1.88-.23.272 1.003 1.143-.14.02-1.04 1.882-.232-.664 7.126-2.17.268zM93.314 133.53c-.312.063-.605.075-.882.03-.277-.043-.526-.135-.75-.273-.223-.14-.41-.32-.56-.54-.152-.217-.258-.47-.32-.757-.046-.222-.057-.433-.034-.63.024-.2.077-.394.16-.587.082-.19.188-.388.316-.59.13-.203.274-.418.435-.646.082-.116.154-.224.213-.32.062-.094.106-.184.133-.27.027-.084.032-.168.016-.25-.02-.09-.06-.166-.118-.23-.06-.063-.132-.106-.22-.132-.086-.025-.182-.027-.288-.005-.165.035-.35.13-.552.287-.203.156-.422.377-.656.662l-.4-1.89c.23-.23.464-.416.707-.557.24-.142.497-.242.77-.3.467-.096.89-.09 1.274.02.38.108.7.308.96.6.26.29.438.657.536 1.105.053.25.07.478.05.686-.02.208-.07.404-.15.592-.083.188-.193.378-.328.567-.133.19-.292.395-.47.612-.09.104-.165.2-.234.29-.067.086-.115.172-.146.253-.03.083-.036.17-.02.263.03.124.093.212.192.27.1.06.224.073.375.042.162-.034.335-.117.512-.25.18-.135.366-.32.557-.55l.375 1.775c-.246.188-.49.34-.733.464-.243.12-.484.208-.723.26M100.814 128.32l-1.255.408.31.96 1.43-.466.523 1.614-3.28 1.07-2.15-6.65 1.848-.604.812 2.51 1.254-.41.508 1.567zM104.103 126.633c-.167-.072-.372-.057-.612.048l.676 1.523.07-.03c.205-.093.334-.226.383-.4.047-.17.016-.386-.097-.642-.113-.258-.254-.424-.42-.497m.5-1.3c.853-.004 1.444.365 1.774 1.11.177.403.242.79.196 1.164-.045.372-.2.714-.46 1.022-.26.308-.625.57-1.093.78l-2.043.912-2.832-6.386 1.775-.793 1.096 2.47-.293-2.83 1.85-.827.033.036-.003 3.342zM108.342 122.502l-.668.388 1.62 2.05-.952-2.438zm.98 4.686l-4.715-5.196v-.05l-.034.014-.052-.058 1.642-.95.64.818.997-.58-.387-.965 1.642-.95 2.162 6.82-1.895 1.098zM115.754 123.053l-2.1-3.012 1.22 3.632-1.583 1.113-3.993-5.726 1.455-1.025 2 2.868-1.11-3.493 1.565-1.1 3.994 5.725-1.446 1.018zM117.414 114.856c-.12.054-.23.123-.324.204-.184.154-.293.34-.332.56-.04.22-.004.465.105.74.11.27.295.565.555.88.412.487.795.79 1.156.912.36.118.69.055.986-.195.086-.074.167-.162.235-.265.07-.104.13-.222.18-.354l1.074 1.285c-.1.166-.21.322-.335.47-.125.15-.266.29-.424.424-.302.254-.636.424-1 .514-.364.09-.743.095-1.136.016-.39-.076-.78-.237-1.168-.482-.386-.246-.756-.576-1.105-.992-.4-.478-.693-.947-.878-1.408-.184-.46-.258-.924-.22-1.39.03-.384.122-.732.277-1.046.153-.313.364-.583.63-.808.144-.12.298-.22.462-.305.168-.086.346-.156.533-.213l1.124 1.345c-.144.018-.275.054-.396.108M120.547 112.816l-.535.557 2.12 1.523-1.585-2.08zm2.23 4.232l-6.07-3.755 1.317-1.37.84.61.8-.832-.635-.82 1.316-1.37 3.95 5.958-1.52 1.58zM127.516 111.988c-.127.24-.27.452-.434.635-.214.236-.447.42-.695.545-.25.13-.506.202-.766.22-.262.02-.518-.015-.768-.103s-.484-.23-.703-.425c-.167-.15-.3-.315-.398-.49-.095-.175-.168-.364-.213-.57-.045-.203-.077-.423-.09-.664-.016-.24-.024-.5-.028-.78 0-.14-.006-.27-.013-.384-.007-.113-.025-.21-.052-.296-.028-.084-.072-.155-.133-.21-.07-.064-.145-.1-.23-.117-.084-.017-.168-.01-.254.02-.085.032-.163.087-.238.167-.11.125-.205.31-.277.556-.072.25-.12.555-.143.924l-1.43-1.292c.05-.32.134-.61.247-.868.11-.257.26-.49.444-.695.322-.356.67-.6 1.043-.738.373-.137.75-.165 1.13-.082.378.083.737.275 1.08.58.19.17.335.345.44.525.108.18.18.368.225.567.045.2.068.42.068.652.004.233-.003.492-.02.772-.013.138-.02.26-.023.372 0 .11.01.207.034.29.022.09.07.163.137.226.096.084.2.117.313.105.115-.01.225-.073.328-.186.11-.123.2-.293.266-.506.068-.214.11-.473.13-.77l1.342 1.212c-.088.296-.195.566-.32.808" fill="#fff"/><path d="M69.8 107.505c9.423 0 17.816-4.267 23.224-10.908l-4.31-3.434c-4.38 5.444-11.225 8.95-18.914 8.95-13.222 0-23.943-10.358-23.943-23.128S56.577 55.857 69.8 55.857c7.846 0 14.81 3.648 19.178 9.282l4.556-3.118C88.154 55.01 79.527 50.464 69.8 50.464c-16.305 0-29.527 12.772-29.527 28.52 0 15.75 13.222 28.52 29.527 28.52" fill="#fff" fill-rule="evenodd"/><path d="M69.8 107.505c9.423 0 17.816-4.267 23.224-10.908l-4.31-3.434c-4.38 5.444-11.225 8.95-18.914 8.95-13.222 0-23.943-10.358-23.943-23.128S56.577 55.857 69.8 55.857c7.846 0 14.81 3.648 19.178 9.282l4.556-3.118C88.154 55.01 79.527 50.464 69.8 50.464c-16.305 0-29.527 12.772-29.527 28.52 0 15.75 13.222 28.52 29.527 28.52z" fill="none" stroke="#fff" stroke-width="1.629" stroke-linejoin="round" stroke-miterlimit="22.926"/><path d="M96.035 106.36h1.615l35.096-40.57.816-.76v41.33h5.737V51.467h-1.462l-36.158 41.28v-41.28h-5.645v54.895z" fill="#fff" fill-rule="evenodd"/><path d="M96.035 106.36h1.615l35.096-40.57.816-.76v41.33h5.737V51.467h-1.462l-36.158 41.28v-41.28h-5.645v54.895z" fill="none" stroke="#fff" stroke-width="1.629" stroke-linejoin="round" stroke-miterlimit="22.926"/><path d="M143.467 106.554h28.123L149.983 58.25h21.203v-6.798l-30.514-.036 22.63 49.644h-19.835v5.494z" fill="#fff" fill-rule="evenodd"/><g><path d="M143.467 106.554h28.123L149.983 58.25h21.203v-6.798l-30.514-.036 22.63 49.644h-19.835v5.494z" fill="none" stroke="#fff" stroke-width="1.629" stroke-linejoin="round" stroke-miterlimit="22.926"/></g><g><path d="M175.793 106.7h27.34v-5.364h-21.46V84.312h21.46v-5.364h-21.46V51.27h-5.88v55.43z" fill="#fff" fill-rule="evenodd"/></g><g><path d="M175.793 106.7h27.34v-5.364h-21.46V84.312h21.46v-5.364h-21.46V51.27h-5.88v55.43z" fill="none" stroke="#fff" stroke-width="1.629" stroke-linejoin="round" stroke-miterlimit="22.926"/></g></g><path d="M40.272 78.985c0-15.748 13.223-28.52 29.527-28.52 9.727 0 18.354 4.546 23.734 11.558l-4.556 3.116c-4.368-5.635-11.332-9.282-19.18-9.282-13.22 0-23.94 10.357-23.94 23.127s10.72 23.127 23.94 23.127c7.69 0 14.536-3.504 18.916-8.95l4.31 3.435c-5.408 6.642-13.8 10.908-23.225 10.908-16.305 0-29.528-12.772-29.528-28.52" fill="url(#x)" transform="matrix(1.25 0 0 -1.25 -2.22 182.29)"/><path d="M133.563 106.36V65.03l-.817.76-35.096 40.57h-1.615V51.468h5.644v41.28l36.158-41.28h1.46v54.894h-5.735z" fill="url(#y)" transform="matrix(1.25 0 0 -1.25 -2.22 182.29)"/><path d="M143.467 106.554v-5.495H163.3l-22.628-49.644 30.513.036v6.8h-21.203l21.607 48.302h-28.123z" fill="url(#z)" transform="matrix(1.25 0 0 -1.25 -2.22 182.29)"/><path d="M175.793 106.7V51.27h5.88v27.678h21.46v5.365h-21.46v17.022h21.46v5.365h-27.34z" fill="url(#A)" transform="matrix(1.25 0 0 -1.25 -2.22 182.29)"/></svg>