<svg xmlns="http://www.w3.org/2000/svg" width="400" height="201.381"><path d="M157.352 0L143.92 161.67l-82.995-11.034L0 80.836 146.318 0h11.034z" fill="#f14625"/><path d="M151.622 91.306c0 33.035-19.907 59.81-44.454 59.81-24.548 0-44.452-26.775-44.452-59.81 0-33.03 19.904-59.806 44.452-59.806 24.547 0 44.454 26.777 44.454 59.806" fill="#fff"/><path d="M139.362 101.707c0 16.933-9.635 30.65-21.522 30.65-11.88 0-21.514-13.717-21.514-30.65 0-16.926 9.634-30.645 21.514-30.645 11.887 0 21.522 13.72 21.522 30.645" fill="#f9ac16"/><path d="M200.748 39.72c-.827.4-2.78.89-5.246.89-7.11 0-10.773-4.457-10.773-10.314 0-7.017 5.004-10.89 11.23-10.89 2.41 0 4.238.454 5.062.914l-.975 3.66c-.917-.4-2.228-.764-3.907-.764-3.66 0-6.53 2.23-6.53 6.804 0 4.123 2.443 6.716 6.563 6.716 1.432 0 2.957-.277 3.904-.67l.67 3.654zM206.875 30.02c0 4.058 1.89 6.9 5.004 6.9 3.14 0 4.938-2.993 4.938-6.99 0-3.724-1.735-6.894-4.94-6.894-3.175 0-5.003 2.99-5.003 6.984m14.858-.24c0 6.773-4.06 10.83-10.097 10.83-6.073 0-9.673-4.608-9.673-10.5 0-6.16 3.964-10.767 10.004-10.767 6.316 0 9.766 4.728 9.766 10.436M242.164 32.405c-.087-2.475-.178-5.465-.178-8.454h-.065c-.67 2.626-1.524 5.55-2.315 7.962l-2.506 8.022h-3.63l-2.194-7.93c-.673-2.438-1.344-5.368-1.862-8.053h-.063c-.086 2.777-.212 5.947-.33 8.513l-.4 7.808h-4.304l1.312-20.56h6.196l2.015 6.866c.67 2.38 1.28 4.942 1.737 7.35h.123c.548-2.378 1.25-5.097 1.952-7.383l2.166-6.833h6.103l1.1 20.56h-4.516l-.34-7.865zM255.246 40.272h-4.64v-20.56h4.64v20.56zM259.424 35.485c1.222.635 3.176 1.28 5.156 1.28 2.138 0 3.266-.883 3.266-2.227 0-1.28-.977-2.015-3.45-2.872-3.416-1.216-5.672-3.11-5.672-6.1 0-3.507 2.956-6.16 7.78-6.16 2.347 0 4.025.454 5.246 1.037l-1.037 3.72c-.794-.396-2.29-.976-4.27-.976-2.017 0-2.99.947-2.99 1.98 0 1.313 1.127 1.897 3.813 2.9 3.633 1.343 5.31 3.237 5.31 6.134 0 3.45-2.622 6.375-8.27 6.375-2.346 0-4.668-.64-5.826-1.282l.944-3.808zM280.41 40.272h-4.64v-20.56h4.64v20.56zM298.682 14.828l-3.724 3.754h-3.723l2.56-3.754h4.887zM288.4 30.02c0 4.058 1.89 6.897 5 6.897 3.144 0 4.942-2.99 4.942-6.987 0-3.723-1.738-6.894-4.94-6.894-3.174 0-5.003 2.99-5.003 6.984m14.857-.24c0 6.773-4.06 10.83-10.1 10.83-6.07 0-9.67-4.61-9.67-10.5 0-6.16 3.964-10.77 10.007-10.77 6.316 0 9.763 4.73 9.763 10.44M306.298 40.27V19.71h5.432l4.273 7.534c1.22 2.166 2.41 4.728 3.354 7.047h.063c-.28-2.715-.367-5.488-.367-8.6v-5.98h4.274v20.56h-4.887l-4.39-7.928c-1.223-2.198-2.594-4.85-3.566-7.263h-.126c.153 2.745.213 5.647.213 8.998v6.193H306.3zM185.674 76.874V56.307h5.432l4.27 7.54c1.222 2.166 2.41 4.73 3.355 7.042h.064c-.277-2.712-.365-5.485-.365-8.598v-5.985h4.27v20.567h-4.88l-4.395-7.935c-1.22-2.196-2.593-4.852-3.568-7.26h-.126c.157 2.747.22 5.644.22 8.998v6.196h-4.276zM211.39 76.874h-4.645V56.307h4.644v20.567zM230.485 76.323c-.827.397-2.78.89-5.246.89-7.11 0-10.774-4.458-10.774-10.314 0-7.018 5.002-10.892 11.227-10.892 2.41 0 4.24.454 5.065.914l-.974 3.66c-.92-.4-2.232-.763-3.907-.763-3.66 0-6.53 2.228-6.53 6.803 0 4.12 2.442 6.71 6.563 6.71 1.432 0 2.954-.274 3.904-.668l.67 3.658zM243.87 68.12l-1.276-4.364c-.37-1.22-.733-2.75-1.04-3.967h-.063c-.3 1.217-.604 2.775-.944 3.966l-1.22 4.364h4.544zm-5.215 3.48l-1.462 5.273h-4.79l6.252-20.564h6.1l6.41 20.563h-5.033l-1.59-5.273h-5.887zM258.48 65.433h1.83c2.32 0 3.693-1.158 3.693-2.96 0-1.862-1.284-2.834-3.42-2.834-1.128 0-1.77.057-2.102.147v5.646zm-4.613-8.85c1.5-.243 3.694-.426 6.2-.426 3.05 0 5.187.46 6.65 1.615 1.25.978 1.92 2.442 1.92 4.337 0 2.592-1.858 4.393-3.627 5.03v.097c1.432.575 2.226 1.914 2.744 3.81.64 2.35 1.248 5.033 1.648 5.827h-4.76c-.302-.61-.823-2.26-1.406-4.786-.575-2.6-1.462-3.27-3.384-3.3h-1.37v8.086h-4.615v-20.29zM282.236 68.12l-1.278-4.364c-.367-1.22-.73-2.75-1.038-3.967h-.063c-.3 1.217-.605 2.775-.945 3.966l-1.22 4.364h4.544zm-5.215 3.48l-1.46 5.273h-4.79l6.25-20.564h6.103l6.407 20.563h-5.032l-1.586-5.273h-5.89zM308.652 75.932c-1.432.488-4.15 1.156-6.864 1.156-3.748 0-6.466-.945-8.358-2.75-1.86-1.795-2.897-4.48-2.897-7.5.03-6.834 5.002-10.744 11.743-10.744 2.658 0 4.7.523 5.705.977l-.973 3.755c-1.128-.518-2.506-.887-4.76-.887-3.876 0-6.835 2.17-6.835 6.656 0 4.268 2.688 6.74 6.5 6.74 1.037 0 1.89-.12 2.258-.276v-4.334h-3.173V65.1h7.655V75.93zM321.95 53.046c0-1.19.884-2.11 2.072-2.11 1.164 0 2.045.89 2.045 2.11 0 1.128-.85 2.075-2.075 2.075-1.188 0-2.043-.946-2.043-2.074m-6.347 0c0-1.19.917-2.11 2.105-2.11 1.13 0 2.016.89 2.016 2.11 0 1.128-.855 2.075-2.046 2.075-1.158 0-2.075-.946-2.075-2.074m1.314 3.26V68.12c0 3.568 1.372 5.37 3.724 5.37 2.437 0 3.782-1.707 3.782-5.37V56.306h4.638V67.84c0 6.35-3.204 9.372-8.575 9.372-5.19 0-8.208-2.902-8.208-9.43V56.307h4.64zM345.316 68.18h-7.567v4.878h8.45v3.816h-13.095V56.307h12.668v3.82h-8.024v4.265h7.566v3.787zM349.36 76.874V56.307h5.433l4.27 7.54c1.222 2.166 2.41 4.73 3.358 7.042h.06c-.276-2.712-.363-5.485-.363-8.598v-5.985h4.27v20.567h-4.88l-4.395-7.935c-1.22-2.196-2.593-4.852-3.568-7.26h-.125c.155 2.747.212 5.644.212 8.998v6.196h-4.27zM370.558 72.088c1.224.635 3.176 1.278 5.158 1.278 2.136 0 3.266-.88 3.266-2.228 0-1.28-.977-2.013-3.45-2.87-3.416-1.218-5.675-3.11-5.675-6.1 0-3.507 2.96-6.16 7.78-6.16 2.347 0 4.028.455 5.25 1.038l-1.038 3.72c-.798-.396-2.293-.977-4.272-.977-2.015 0-2.99.946-2.99 1.98 0 1.313 1.128 1.893 3.81 2.9 3.632 1.342 5.315 3.237 5.315 6.133 0 3.45-2.628 6.374-8.273 6.374-2.347 0-4.668-.64-5.826-1.278l.944-3.812zM399.116 68.18h-7.568v4.878H400v3.816h-13.09V56.307h12.663v3.82h-8.025v4.265h7.568v3.787zM190.314 109.966c.394.087 1.068.087 1.615.087 4.243.033 7.014-2.283 7.014-7.198 0-4.273-2.497-6.527-6.527-6.527-1.008 0-1.71.088-2.103.18v13.458zm-4.64-16.75c1.71-.28 3.936-.455 6.255-.455 3.934 0 6.5.726 8.448 2.197 2.14 1.585 3.48 4.117 3.48 7.745 0 3.934-1.435 6.65-3.387 8.33-2.162 1.8-5.488 2.652-9.515 2.652-2.412 0-4.154-.15-5.282-.3v-20.17zM219.14 104.776h-7.57v4.882h8.453v3.813h-13.09V92.91h12.663v3.814h-8.025v4.27h7.57v3.782zM223.222 92.91h4.635v16.657h8.178v3.904h-12.813V92.91zM249.604 92.91v7.902h7.658V92.91h4.638v20.56h-4.638v-8.604h-7.658v8.605h-4.638V92.91h4.638zM270.59 92.91v11.808c0 3.568 1.37 5.367 3.72 5.367 2.44 0 3.784-1.71 3.784-5.367V92.91h4.64v11.53c0 6.345-3.205 9.37-8.577 9.37-5.188 0-8.205-2.9-8.205-9.43V92.91h4.638zM298.987 104.776h-7.568v4.882h8.454v3.813H286.78V92.91h12.664v3.814h-8.025v4.27h7.567v3.782zM308.1 113.47l-6.592-20.56h5.1l2.498 8.692c.704 2.472 1.34 4.788 1.834 7.357h.088c.523-2.474 1.158-4.913 1.862-7.265l2.625-8.786h4.942l-6.924 20.56H308.1zM326.373 103.225c0 4.052 1.89 6.894 5.002 6.894 3.143 0 4.942-2.993 4.942-6.99 0-3.724-1.74-6.894-4.942-6.894-3.173 0-5.002 2.99-5.002 6.99m14.855-.247c0 6.772-4.06 10.83-10.097 10.83-6.07 0-9.672-4.608-9.672-10.5 0-6.16 3.965-10.768 10.007-10.768 6.316 0 9.763 4.728 9.763 10.437M192.706 138.964l-.964-3.28c-.276-.92-.55-2.064-.78-2.987h-.044c-.233.923-.46 2.092-.715 2.987l-.917 3.28h3.42zm-3.924 2.617l-1.103 3.974h-3.604l4.706-15.47h4.592l4.818 15.47h-3.79l-1.19-3.973h-4.43zM200.246 145.555v-15.47h4.087l3.214 5.668c.918 1.632 1.813 3.56 2.525 5.303h.043c-.202-2.048-.27-4.13-.27-6.475v-4.494h3.21v15.47h-3.67l-3.308-5.97c-.917-1.656-1.952-3.652-2.688-5.465h-.09c.113 2.07.162 4.25.162 6.778v4.657h-3.216zM223.63 138.964l-.964-3.28c-.274-.92-.55-2.064-.778-2.987h-.05c-.232.923-.456 2.092-.71 2.987l-.918 3.28h3.42zm-3.924 2.617l-1.103 3.974h-3.606l4.71-15.47h4.59l4.82 15.47h-3.788l-1.194-3.973h-4.43zM234.64 137.314c.298.07.646.093 1.17.093 1.863 0 3.007-.944 3.007-2.505 0-1.423-.985-2.272-2.75-2.272-.694 0-1.173.046-1.427.112v4.572zm-3.467-7.025c1.076-.184 2.596-.324 4.73-.324 2.16 0 3.698.413 4.727 1.243 1.01.78 1.656 2.06 1.656 3.577s-.484 2.823-1.426 3.672c-1.19 1.1-2.962 1.63-5.027 1.63-.46 0-.87-.02-1.193-.093v5.558h-3.467V130.29zM250.673 138.964l-.963-3.28c-.274-.92-.55-2.064-.78-2.987h-.047c-.23.923-.457 2.092-.712 2.987l-.916 3.28h3.42zm-3.926 2.617l-1.098 3.974h-3.606l4.703-15.47h4.592l4.82 15.47h-3.784l-1.196-3.973h-4.433zM263.22 140.688h-6.01v-2.32h6.01v2.32zM272.84 138.964l-.963-3.28c-.277-.92-.55-2.064-.778-2.987h-.047c-.23.923-.46 2.092-.71 2.987l-.92 3.28h3.418zm-3.923 2.617l-1.103 3.974h-3.603l4.707-15.47h4.592l4.817 15.47h-3.786l-1.193-3.973h-4.43zM283.85 137.314c.302.07.647.093 1.178.093 1.856 0 3.004-.944 3.004-2.505 0-1.423-.99-2.272-2.755-2.272-.687 0-1.17.046-1.426.112v4.572zm-3.465-7.025c1.08-.184 2.595-.324 4.73-.324 2.16 0 3.697.413 4.732 1.243 1.007.78 1.65 2.06 1.65 3.577s-.48 2.823-1.423 3.672c-1.196 1.1-2.96 1.63-5.024 1.63-.46 0-.876-.02-1.2-.093v5.558h-3.465V130.29zM302.937 139.01h-5.695v3.674h6.363v2.872h-9.85v-15.472h9.527v2.867h-6.04v3.215h5.695v2.845zM319.086 139.63c-.066-1.857-.134-4.107-.134-6.358h-.044c-.507 1.974-1.15 4.176-1.747 5.994l-1.882 6.036h-2.733l-1.65-5.968c-.507-1.837-1.01-4.04-1.403-6.062h-.046c-.066 2.087-.162 4.48-.25 6.407l-.3 5.874h-3.24l.992-15.468h4.657l1.514 5.16c.505 1.794.965 3.718 1.313 5.534h.088c.414-1.79.943-3.833 1.474-5.553l1.63-5.14h4.59l.82 15.467h-3.39l-.258-5.924zM334.644 139.01h-5.695v3.674h6.362v2.872h-9.85v-15.472h9.527v2.867h-6.04v3.215h5.694v2.845zM341.176 137.314c.3.07.646.093 1.17.093 1.86 0 3.01-.944 3.01-2.505 0-1.423-.985-2.272-2.754-2.272-.692 0-1.172.046-1.426.112v4.572zm-3.466-7.025c1.08-.184 2.592-.324 4.73-.324 2.158 0 3.697.413 4.73 1.243 1.006.78 1.653 2.06 1.653 3.577s-.485 2.823-1.424 3.672c-1.195 1.1-2.96 1.63-5.025 1.63-.465 0-.876-.02-1.2-.093v5.558h-3.465V130.29zM357.208 138.964l-.963-3.28c-.27-.92-.55-2.064-.778-2.987h-.05c-.226.923-.456 2.092-.706 2.987l-.918 3.28h3.416zm-3.923 2.617l-1.103 3.974h-3.603l4.705-15.47h4.59l4.82 15.47h-3.784l-1.195-3.973h-4.43zM364.752 145.555v-15.47h4.082l3.217 5.668c.92 1.632 1.817 3.56 2.526 5.303h.046c-.205-2.048-.276-4.13-.276-6.475v-4.494h3.214v15.47h-3.672l-3.304-5.97c-.923-1.656-1.952-3.652-2.69-5.465h-.09c.116 2.07.163 4.25.163 6.778v4.657h-3.215z" fill="#231f20"/><path d="M95.417 196l3.48-18.312h3.64l3.205 8.507c.788 2.223 1.22 3.91 1.63 5.727h.084c.082-1.793.326-3.556.81-6.193l1.525-8.042h2.963l-3.48 18.31h-3.23l-3.288-8.665c-.84-2.392-1.306-3.887-1.74-5.897l-.08.025c-.192 1.74-.573 3.998-1.088 6.717L98.38 196h-2.963zM126.705 182.767l-1.74 9.128c-.3 1.577-.49 2.965-.653 4.104h-2.823l.297-2.31h-.054c-1.276 1.712-2.938 2.61-4.594 2.61-1.93 0-3.448-1.038-3.448-3.754 0-.703.076-1.464.27-2.362l1.413-7.417h3.154l-1.364 7.23c-.134.652-.216 1.304-.216 1.818 0 1.09.432 1.876 1.69 1.876 1.458 0 3.147-1.738 3.69-4.478l1.196-6.445h3.18zM134.537 179.37l-.624 3.396h2.963l-.49 2.45h-2.96l-1.038 5.326c-.13.624-.243 1.303-.243 1.872 0 .73.33 1.19 1.17 1.19.38 0 .762-.02 1.086-.078l-.295 2.472c-.463.195-1.306.27-2.067.27-2.174 0-3.124-1.19-3.124-2.71 0-.738.082-1.47.268-2.45l1.142-5.89h-1.763l.46-2.452h1.767l.49-2.47 3.26-.925zM136.88 196l1.546-8.152c.36-1.872.548-3.912.68-5.08h2.748c-.082.89-.164 1.82-.3 2.775h.084c.895-1.77 2.332-3.072 4.128-3.072.244 0 .488.028.704.028l-.624 3.094c-.162-.03-.378-.03-.594-.03-2.26 0-3.7 2.286-4.217 5.114L140.033 196h-3.154zM149.33 179.18c0-1.113.87-1.9 1.9-1.9 1.01 0 1.687.68 1.687 1.685-.024 1.166-.898 1.903-1.982 1.903-.953 0-1.604-.685-1.604-1.69M146.315 196l2.527-13.232h3.155L149.468 196h-3.154zM162.543 195.512c-.786.384-2.117.756-3.806.756-3.31 0-5.352-2.116-5.352-5.265 0-4.62 3.504-8.504 8.397-8.504 1.17 0 2.198.268 2.715.487l-.813 2.472c-.49-.223-1.117-.41-2.012-.41-3.042 0-4.972 2.8-4.972 5.57 0 1.985 1.142 3.1 2.905 3.1 1.227 0 2.152-.327 2.804-.628l.133 2.42zM167.795 179.18c0-1.113.868-1.9 1.897-1.9 1.01 0 1.69.68 1.69 1.685-.028 1.166-.9 1.903-1.985 1.903-.95 0-1.602-.685-1.602-1.69M164.775 196l2.527-13.232h3.15L167.93 196h-3.155zM184.178 177.14l-3.562 4.03h-2.39l2.612-4.03h3.34zm-2.524 10.816c0-1.355-.625-3.042-2.527-3.042-2.527 0-3.998 3.368-3.998 5.843 0 1.818.955 3.096 2.584 3.096 2.363 0 3.94-3.263 3.94-5.897m-9.783 2.88c0-4.482 3.125-8.367 7.634-8.367 3.562 0 5.41 2.554 5.41 5.46 0 4.51-3.126 8.37-7.635 8.37-3.344 0-5.41-2.31-5.41-5.464M186.31 196l1.713-9.132c.325-1.57.517-2.957.68-4.1h2.824l-.298 2.364h.053c1.224-1.766 2.908-2.66 4.753-2.66 1.906 0 3.376 1.138 3.376 3.638 0 .594-.115 1.52-.252 2.174L197.723 196h-3.18l1.417-7.473c.076-.487.16-1.057.16-1.577 0-1.114-.404-1.9-1.655-1.9-1.44 0-3.288 1.74-3.863 4.84l-1.14 6.11h-3.15zM209.85 193.175c.518.43 1.222.676 2.122.676 2.475 0 4.455-3.26 4.455-6.244 0-1.2-.518-2.557-2.092-2.557-1.602 0-3.343 1.793-3.915 4.89l-.57 3.235zm-4.725 8.206l2.61-13.69c.27-1.58.57-3.645.76-4.976h2.85l-.295 2.226h.054c1.115-1.547 2.768-2.44 4.455-2.47 2.88 0 4.182 2.308 4.182 4.885 0 4.65-3.176 8.947-7.685 8.947-1.23 0-2.176-.304-2.642-.57h-.052l-1.087 5.65h-3.15zM231.057 185.05c-.326-.085-.734-.137-1.304-.137-2.91 0-5.19 3.286-5.19 6.308 0 1.387.517 2.526 1.902 2.526 1.498 0 3.288-1.85 3.913-5.22l.68-3.476zm-1.28 10.95c0-.787.11-1.85.22-2.96h-.052c-1.306 2.417-3.072 3.26-4.755 3.26-2.37 0-3.916-1.848-3.916-4.512 0-4.51 3.154-9.317 9.323-9.317 1.437 0 2.984.27 4.022.595l-1.39 6.902c-.383 1.955-.6 4.46-.544 6.032h-2.908zM235.82 196l1.548-8.152c.353-1.872.545-3.912.682-5.08h2.743c-.082.89-.164 1.82-.298 2.775h.082c.895-1.77 2.332-3.072 4.128-3.072.244 0 .488.028.707.028l-.622 3.094c-.164-.03-.383-.03-.6-.03-2.258 0-3.695 2.286-4.213 5.114L238.97 196h-3.15zM254.928 185.05c-.328-.085-.736-.137-1.305-.137-2.908 0-5.19 3.286-5.19 6.308 0 1.387.516 2.526 1.9 2.526 1.493 0 3.29-1.85 3.916-5.22l.678-3.476zM253.65 196c0-.787.11-1.85.216-2.96h-.052c-1.303 2.417-3.074 3.26-4.755 3.26-2.367 0-3.917-1.848-3.917-4.512 0-4.51 3.154-9.317 9.323-9.317 1.437 0 2.987.27 4.022.595l-1.388 6.902c-.378 1.955-.592 4.46-.543 6.032h-2.907zM271.297 179.37l-.625 3.396h2.963l-.49 2.45h-2.96l-1.038 5.326c-.13.624-.243 1.303-.243 1.872 0 .73.328 1.19 1.17 1.19.38 0 .763-.02 1.086-.078l-.3 2.472c-.46.195-1.302.27-2.063.27-2.174 0-3.127-1.19-3.127-2.71 0-.738.085-1.47.27-2.45l1.143-5.89h-1.763l.46-2.452h1.766l.493-2.47 3.257-.925zM277.092 190.756c0 1.818.953 3.096 2.582 3.096 2.362 0 3.94-3.263 3.94-5.894 0-1.358-.628-3.045-2.528-3.045-2.53 0-3.994 3.37-3.994 5.843m9.782-2.823c0 4.507-3.127 8.367-7.636 8.367-3.343 0-5.407-2.308-5.407-5.465 0-4.48 3.128-8.364 7.637-8.364 3.56 0 5.407 2.553 5.407 5.463M298.46 185.43c-.385-.296-1.036-.515-1.825-.515-2.716 0-4.728 3.017-4.728 5.98 0 1.6.627 2.85 2.122 2.85 1.41 0 3.125-1.547 3.64-4.293l.79-4.022zm4.782-8.726l-2.777 14.568c-.295 1.547-.517 3.29-.59 4.726h-2.91l.272-2.336h-.057c-1.166 1.794-2.825 2.64-4.537 2.64-2.365 0-4.022-1.906-4.022-4.893 0-4.674 3.4-8.94 8.262-8.94.68 0 1.467.134 2.036.378l1.17-6.144h3.154zM306.758 190.756c0 1.818.95 3.096 2.58 3.096 2.364 0 3.938-3.263 3.938-5.894 0-1.358-.624-3.045-2.527-3.045-2.525 0-3.992 3.37-3.992 5.843m9.782-2.823c0 4.507-3.127 8.367-7.633 8.367-3.348 0-5.413-2.308-5.413-5.465 0-4.48 3.127-8.364 7.636-8.364 3.56 0 5.41 2.553 5.41 5.463M318.26 193.066c.678.378 1.98.865 3.177.865 1.276 0 2.04-.73 2.04-1.625 0-.816-.435-1.356-1.74-2.037-1.524-.816-2.608-1.93-2.608-3.45 0-2.557 2.228-4.348 5.35-4.348 1.387 0 2.53.323 3.1.68l-.785 2.28c-.52-.274-1.39-.6-2.475-.6-1.196 0-2.012.63-2.012 1.525 0 .76.572 1.276 1.71 1.846 1.47.792 2.744 1.88 2.744 3.56 0 2.937-2.442 4.564-5.623 4.542-1.55-.033-2.99-.466-3.695-.98l.814-2.256z" fill="#46785d"/></svg>