<?xml version="1.0" encoding="UTF-8" standalone="no"?>
<svg
   xmlns:dc="http://purl.org/dc/elements/1.1/"
   xmlns:cc="http://creativecommons.org/ns#"
   xmlns:rdf="http://www.w3.org/1999/02/22-rdf-syntax-ns#"
   xmlns:svg="http://www.w3.org/2000/svg"
   xmlns="http://www.w3.org/2000/svg"
   xmlns:sodipodi="http://sodipodi.sourceforge.net/DTD/sodipodi-0.dtd"
   xmlns:inkscape="http://www.inkscape.org/namespaces/inkscape"
   width="450"
   height="286.91849"
   version="1.1"
   id="svg14"
   sodipodi:docname="compania_distribuidora_de_nicaragua.svg"
   inkscape:version="0.92.1 r15371">
  <metadata
     id="metadata20">
    <rdf:RDF>
      <cc:Work
         rdf:about="">
        <dc:format>image/svg+xml</dc:format>
        <dc:type
           rdf:resource="http://purl.org/dc/dcmitype/StillImage" />
        <dc:title></dc:title>
      </cc:Work>
    </rdf:RDF>
  </metadata>
  <defs
     id="defs18" />
  <sodipodi:namedview
     pagecolor="#ffffff"
     bordercolor="#666666"
     borderopacity="1"
     objecttolerance="10"
     gridtolerance="10"
     guidetolerance="10"
     inkscape:pageopacity="0"
     inkscape:pageshadow="2"
     inkscape:window-width="1280"
     inkscape:window-height="656"
     id="namedview16"
     showgrid="false"
     fit-margin-top="0"
     fit-margin-left="0"
     fit-margin-right="0"
     fit-margin-bottom="0"
     inkscape:zoom="0.76679817"
     inkscape:cx="199.94033"
     inkscape:cy="174.8634"
     inkscape:window-x="0"
     inkscape:window-y="27"
     inkscape:window-maximized="1"
     inkscape:current-layer="svg14" />
  <g
     id="g4928"
     transform="matrix(2.7826533,0,0,2.7826533,-195.15037,403.6467)">
    <path
       style="fill:#1c73b7"
       inkscape:connector-curvature="0"
       class="st1"
       d="m 79.354366,-52.64853 h 3.5 c 2.6,0 4.5,1.2 4.5,4.2 0,1.8 -0.8,3.6 -2,4.7 -1.5,1.4 -3.2,1.5 -4.5,1.5 h -4.4 z m 0.4,8.4 h 1 c 0.5,0 1,0 1.5,-0.2 1.7,-0.6 2.5,-2.5 2.5,-3.9 0,-1.1 -0.4,-1.6 -0.7,-1.9 -0.5,-0.4 -1.2,-0.5 -1.8,-0.5 h -0.7 z"
       id="path4561" />
    <path
       style="fill:#1c73b7"
       inkscape:connector-curvature="0"
       class="st1"
       d="m 96.254366,-44.24853 -1.9,2 h -6.5 l 2.8,-10.3 h 6.9 l -0.6,2 h -4.2 l -0.5,2.1 h 3.7 l -0.5,2 h -3.6 l -0.6,2.3 h 5 z"
       id="path4563" />
    <path
       style="fill:#1c73b7"
       inkscape:connector-curvature="0"
       class="st1"
       d="m 113.35437,-52.64853 -2.8,10.3 h -1.6 l -4,-6.8 -1.8,6.8 h -2.6 l 2.8,-10.3 h 2.2 l 3.6,6.1 1.6,-6.1 z"
       id="path4565" />
    <path
       style="fill:#1c73b7"
       inkscape:connector-curvature="0"
       class="st1"
       d="m 115.75437,-42.34853 h -2.6 l 2.8,-10.3 h 2.6 z"
       id="path4567" />
    <path
       style="fill:#1c73b7"
       inkscape:connector-curvature="0"
       class="st1"
       d="m 128.25437,-50.34853 c -0.4,-0.2 -1.3,-0.7 -2.5,-0.7 -2.5,0 -4.1,2.2 -4.1,4.2 0,1.6 0.9,3 3.2,3 1.1,0 2,-0.3 2.7,-0.6 l 0.2,-0.1 -2.1,2.2 c -0.4,0.1 -1,0.2 -1.9,0.2 -3.4,0 -4.9,-2.3 -4.9,-4.7 0,-2.9 2.3,-6.2 6.8,-6.2 0.7,0 1.9,0.1 3,0.5 z"
       id="path4569" />
    <path
       style="fill:#1c73b7"
       inkscape:connector-curvature="0"
       class="st1"
       d="m 137.65437,-42.34853 h -2.6 l -0.2,-2.1 h -3.7 l -1.3,2.1 h -2.8 l 6.8,-10.3 h 2.8 z m -2.9,-3.8 -0.3,-3.6 -2.3,3.6 z"
       id="path4571" />
    <path
       style="fill:#1c73b7"
       inkscape:connector-curvature="0"
       class="st1"
       d="m 147.65437,-42.34853 h -2.7 l -1.4,-4.4 c -0.2,0 -0.4,0 -0.6,0 -0.2,0 -0.4,0 -0.6,0 l -1.2,4.4 h -2.6 l 2.8,-10.3 h 3.5 c 0.5,0 1.2,0 1.8,0.3 1.2,0.5 1.7,1.5 1.7,2.5 0,0.9 -0.5,1.8 -1.2,2.4 -0.5,0.4 -0.9,0.5 -1.2,0.6 z m -3.7,-6 c 0.1,0 0.2,0 0.3,0 1,0 1.5,-0.7 1.5,-1.3 0,-0.6 -0.3,-0.9 -0.7,-1 -0.3,-0.1 -0.6,-0.1 -0.9,-0.1 h -0.7 l -1,3.8 z"
       id="path4573" />
    <path
       style="fill:#1c73b7"
       inkscape:connector-curvature="0"
       class="st1"
       d="m 158.35437,-42.34853 h -2.6 l -0.2,-2.1 h -3.7 l -1.3,2.1 h -2.8 l 6.8,-10.3 h 2.8 z m -2.9,-3.8 -0.3,-3.6 -2.2,3.6 z"
       id="path4575" />
    <path
       style="fill:#1c73b7"
       inkscape:connector-curvature="0"
       class="st1"
       d="m 170.15437,-47.84853 -1.3,4.9 c -0.5,0.2 -2,0.9 -3.9,0.9 -3.3,0 -5.3,-2 -5.3,-4.7 0,-2.6 1.9,-6.1 7.1,-6.1 1.9,0 3.3,0.4 3.8,0.6 l -0.5,2.1 c -1,-0.6 -2.1,-0.9 -3.2,-0.9 -2.9,0 -4.5,2.2 -4.5,4.3 0,1.8 1.3,3.1 3,3.1 0.6,0 1,-0.1 1.2,-0.2 l 0.6,-2.1 h -2.5 l 1.5,-1.7 h 4 z"
       id="path4577" />
    <path
       style="fill:#1c73b7"
       inkscape:connector-curvature="0"
       class="st1"
       d="m 182.65437,-52.64853 -1.8,6.7 c -0.3,1 -0.6,2 -1.6,2.9 -0.8,0.6 -1.9,1.1 -3.3,1.1 -2.7,0 -4.3,-1.4 -4.3,-3.4 0,-0.5 0.1,-1 0.3,-1.8 l 1.4,-5.4 h 2.7 l -1.6,5.7 c -0.1,0.3 -0.2,0.9 -0.2,1.3 0,1 0.8,1.6 1.7,1.6 0.8,0 1.3,-0.3 1.6,-0.6 0.4,-0.5 0.6,-0.9 0.8,-1.8 l 1.7,-6.2 h 2.6 z"
       id="path4579" />
    <path
       style="fill:#1c73b7"
       inkscape:connector-curvature="0"
       class="st1"
       d="m 191.45437,-42.34853 h -2.6 l -0.2,-2.1 h -3.7 l -1.3,2.1 h -2.8 l 6.8,-10.3 h 2.8 z m -2.8,-3.8 -0.3,-3.6 -2.2,3.6 z"
       id="path4581" />
    <path
       style="fill:#1c73b7"
       inkscape:connector-curvature="0"
       class="st1"
       d="m 204.65437,-50.14853 c -0.8,-0.8 -1.7,-0.9 -2.1,-0.9 -1,0 -1.5,0.7 -1.5,1.3 0,0.6 0.4,0.9 1,1.5 l 0.4,0.3 c 0.5,0.5 1.4,1.2 1.4,2.5 0,1.6 -1.2,3.4 -4.1,3.4 -0.7,0 -2.1,-0.1 -3.3,-0.8 l 0.6,-2.1 c 0.7,0.5 1.5,0.9 2.4,0.9 1.2,0 1.8,-0.8 1.8,-1.4 0,-0.6 -0.4,-1 -1.1,-1.5 -0.8,-0.7 -1.7,-1.4 -1.7,-2.7 0,-1.5 1.3,-3.2 3.8,-3.2 0.6,0 1.7,0.1 3,0.7 z"
       id="path4583" />
    <path
       style="fill:#1c73b7"
       inkscape:connector-curvature="0"
       class="st1"
       d="m 206.05437,-42.14853 c -0.7,0 -1.2,-0.5 -1.2,-1.2 0,-0.7 0.6,-1.2 1.2,-1.2 0.7,0 1.2,0.5 1.2,1.2 0,0.6 -0.5,1.2 -1.2,1.2 z"
       id="path4585" />
    <path
       style="fill:#1c73b7"
       inkscape:connector-curvature="0"
       class="st1"
       d="m 217.95437,-42.34853 h -2.6 l -0.2,-2.1 h -3.7 l -1.3,2.1 h -2.8 l 6.8,-10.3 h 2.8 z m -2.9,-3.8 -0.3,-3.6 -2.2,3.6 z"
       id="path4587" />
    <path
       style="fill:#1c73b7"
       inkscape:connector-curvature="0"
       class="st1"
       d="m 220.35437,-42.14853 c -0.7,0 -1.2,-0.5 -1.2,-1.2 0,-0.7 0.6,-1.2 1.2,-1.2 0.7,0 1.2,0.5 1.2,1.2 0,0.6 -0.5,1.2 -1.2,1.2 z"
       id="path4589" />
  </g>
  <g
     id="g4911"
     transform="matrix(2.198339,0,0,2.198339,-169.83129,370.40704)">
    <path
       style="fill:#1c73b7"
       inkscape:connector-curvature="0"
       class="st1"
       d="m 87.654366,-66.34853 c -1.3,-0.7 -2.6,-0.7 -3,-0.7 -3.3,0 -5.8,2.5 -5.8,5.6 0,1.2 0.4,2.4 1.2,3.1 1.2,1.1 2.7,1.1 3.2,1.1 1.1,0 2.6,-0.3 3.4,-0.7 l -1.5,1.5 c -0.4,0.1 -0.9,0.3 -2,0.3 -0.7,0 -1.5,-0.1 -2.3,-0.3 -2.3,-0.7 -3.6,-2.6 -3.6,-4.9 0,-3.1 2.6,-6.8 7.5,-6.8 1.6,0 2.7,0.3 3.2,0.5 z"
       id="path4519" />
    <path
       style="fill:#1c73b7"
       inkscape:connector-curvature="0"
       class="st1"
       d="m 93.454366,-56.14853 c -3.1,0 -5,-2 -5,-5 0,-2.6 1.7,-7 6.5,-7 3.7,0 5.100004,2.8 5.100004,5 0,2.7 -1.800004,7 -6.600004,7 z m 5.1,-7 c 0,-2.1 -1.3,-3.9 -3.7,-3.9 -3.9,0 -4.9,4.3 -4.9,5.9 0,2.3 1.4,4 3.7,4 3.8,0 4.9,-4.1 4.9,-6 z"
       id="path4521" />
    <path
       style="fill:#1c73b7"
       inkscape:connector-curvature="0"
       class="st1"
       d="m 113.15437,-56.34853 h -1.4 l 1.6,-9.5 -6.8,9.5 h -0.1 l -1.6,-9.5 -3.5,9.5 h -1.400004 l 4.400004,-11.4 h 1.5 l 1.4,8.5 6,-8.5 h 1.6 z"
       id="path4523" />
    <path
       style="fill:#1c73b7"
       inkscape:connector-curvature="0"
       class="st1"
       d="m 116.95437,-56.34853 h -1.4 l 3,-11.4 h 2.5 c 1.6,0 3.5,0.7 3.5,2.9 0,1.1 -0.5,2.1 -1.3,2.7 -0.7,0.6 -1.9,1 -3.5,1 -0.2,0 -0.9,0 -1.5,-0.1 z m 2.5,-6 c 0.2,0 0.3,0.1 0.7,0.1 1.8,0 2.9,-1.2 2.9,-2.5 0,-1.5 -1.2,-1.9 -2.3,-1.9 h -1 l -1.4,5.3 z"
       id="path4525" />
    <path
       style="fill:#1c73b7"
       inkscape:connector-curvature="0"
       class="st1"
       d="m 132.75437,-56.34853 h -1.4 l -0.4,-3.3 h -5.1 l -2.1,3.3 h -1.6 l 7.6,-11.5 h 1.5 z m -2,-4.4 -0.6,-5.6 -3.6,5.6 z"
       id="path4527" />
    <path
       style="fill:#1c73b7"
       inkscape:connector-curvature="0"
       class="st1"
       d="m 146.65437,-67.84853 -3.1,11.5 h -0.1 l -5.7,-10 -2.6,10 h -1.4 l 3.1,-11.4 h 1.6 l 4.7,8.4 2.2,-8.4 h 1.3 z m -6.1,-2.4 c 0.3,-0.2 0.6,-0.2 0.8,-0.2 0.3,0 0.6,0.1 0.8,0.2 0.6,0.2 0.7,0.2 0.9,0.2 0.4,0 0.6,-0.1 1.2,-0.4 l -0.5,1.1 c -0.4,0.2 -0.7,0.2 -0.8,0.2 -0.2,0 -0.4,-0.1 -0.8,-0.2 -0.4,-0.1 -0.7,-0.2 -1,-0.2 -0.5,0 -0.9,0.2 -1.1,0.4 z"
       id="path4529" />
    <path
       style="fill:#1c73b7"
       inkscape:connector-curvature="0"
       class="st1"
       d="m 147.35437,-56.34853 h -1.5 l 3.1,-11.4 h 1.4 z m 5.1,-14.5 -0.3,1.1 -3.1,1.2 0.3,-1.1 z"
       id="path4531" />
    <path
       style="fill:#1c73b7"
       inkscape:connector-curvature="0"
       class="st1"
       d="m 159.05437,-56.34853 h -1.4 l -0.4,-3.3 h -5.1 l -2.1,3.3 h -1.6 l 7.7,-11.4 h 1.5 z m -1.9,-4.4 -0.6,-5.6 -3.6,5.6 z"
       id="path4533" />
    <path
       style="fill:#1c73b7"
       inkscape:connector-curvature="0"
       class="st1"
       d="m 167.55437,-67.84853 h 3.5 c 2.6,0 4.7,1.3 4.7,4.7 0,4.2 -3,6.8 -6.9,6.8 h -4.4 z m -1.4,10.4 h 2.1 c 0.7,0 1.4,0 2,-0.2 2.8,-0.7 4,-3.5 4,-5.5 0,-2.3 -1.1,-3.6 -3.6,-3.6 h -2 z"
       id="path4535" />
    <path
       style="fill:#1c73b7"
       inkscape:connector-curvature="0"
       class="st1"
       d="m 177.75437,-56.34853 h -1.5 l 3.1,-11.4 h 1.4 z"
       id="path4537" />
    <path
       style="fill:#1c73b7"
       inkscape:connector-curvature="0"
       class="st1"
       d="m 188.75437,-66.14853 c -1,-0.8 -1.9,-0.9 -2.3,-0.9 -1.3,0 -2.2,1 -2.2,2 0,0.9 0.5,1.3 1.2,2 0.1,0.1 0.2,0.2 0.3,0.3 0.9,0.8 1.8,1.6 1.8,3.1 0,1.7 -1.3,3.5 -4,3.5 -0.9,0 -2,-0.2 -3.2,-0.9 l 0.4,-1.4 c 0.8,0.8 1.9,1.3 2.8,1.3 1.5,0 2.5,-1.1 2.5,-2.4 0,-1.1 -0.8,-1.8 -1.3,-2.3 -1,-0.8 -1.9,-1.7 -1.9,-3.1 0,-1.6 1.4,-3.1 3.7,-3.1 0.9,0 1.8,0.2 2.6,0.7 z"
       id="path4539" />
    <path
       style="fill:#1c73b7"
       inkscape:connector-curvature="0"
       class="st1"
       d="m 192.45437,-56.34853 h -1.4 l 2.8,-10.4 h -3.7 l 0.3,-1.1 h 8.7 l -0.3,1.1 h -3.6 z"
       id="path4541" />
    <path
       style="fill:#1c73b7"
       inkscape:connector-curvature="0"
       class="st1"
       d="m 200.65437,-67.84853 h 2.5 c 1.7,0 3.4,0.8 3.4,2.9 0,1.1 -0.6,2.1 -1.4,2.6 -0.6,0.4 -1.1,0.6 -1.5,0.7 l 2.2,5.3 h -1.5 l -2,-5 c -0.4,0 -0.6,0 -1.1,0 -0.3,0 -0.7,0 -0.9,0 l -1.4,5 h -1.4 z m 0.9,5.3 c 0.2,0 0.4,0 0.6,0 2.1,0 2.9,-1.3 2.9,-2.4 0,-1.2 -1,-1.8 -2.2,-1.8 h -1.1 l -1.4,5.2 z"
       id="path4543" />
    <path
       style="fill:#1c73b7"
       inkscape:connector-curvature="0"
       class="st1"
       d="m 208.75437,-56.34853 h -1.5 l 3.1,-11.4 h 1.4 z"
       id="path4545" />
    <path
       style="fill:#1c73b7"
       inkscape:connector-curvature="0"
       class="st1"
       d="m 214.75437,-67.84853 h 2.7 c 1.5,0 3.2,0.6 3.2,2.5 0,1.1 -0.7,2.3 -2.1,2.7 -0.4,0.1 -0.8,0.2 -1.2,0.2 1.5,0.3 2.3,1.3 2.3,2.5 0,2.4 -2.4,3.4 -4.2,3.4 h -3.7 z m 0.6,10.4 c 1.3,0 2.9,-0.7 2.9,-2.4 0,-0.4 -0.1,-0.9 -0.4,-1.2 -0.6,-0.8 -1.6,-0.8 -2.4,-0.8 h -1 l -1.2,4.4 z m 0.5,-5.5 c 0.6,0 1.6,0 2.4,-0.5 0.6,-0.4 1,-1 1,-1.7 0,-1.3 -1.1,-1.6 -2.3,-1.6 h -1 l -1.3,4.8 z"
       id="path4547" />
    <path
       style="fill:#1c73b7"
       inkscape:connector-curvature="0"
       class="st1"
       d="m 233.55437,-67.84853 -2.1,7.6 c -0.2,0.9 -0.6,2.1 -1.8,3 -1,0.7 -2.2,1.1 -3.4,1.1 -2.5,0 -4.2,-1.5 -4.2,-3.5 0,-0.6 0.1,-1.2 0.4,-2 l 1.7,-6.2 h 1.5 l -1.6,6 c -0.1,0.5 -0.4,1.5 -0.4,2.1 0,1.4 1,2.5 2.8,2.5 1,0 1.8,-0.3 2.3,-0.8 0.9,-0.7 1.2,-1.9 1.5,-2.9 l 1.9,-6.8 h 1.4 z"
       id="path4549" />
    <path
       style="fill:#1c73b7"
       inkscape:connector-curvature="0"
       class="st1"
       d="m 234.75437,-56.34853 h -1.5 l 3.1,-11.4 h 1.4 z"
       id="path4551" />
    <path
       style="fill:#1c73b7"
       inkscape:connector-curvature="0"
       class="st1"
       d="m 240.75437,-67.84853 h 3.5 c 2.6,0 4.7,1.3 4.7,4.7 0,4.2 -3,6.8 -6.9,6.8 h -4.3 z m -1.3,10.4 h 2.1 c 0.7,0 1.4,0 2,-0.2 2.8,-0.7 4,-3.5 4,-5.5 0,-2.3 -1.1,-3.6 -3.6,-3.6 h -2 z"
       id="path4553" />
    <path
       style="fill:#1c73b7"
       inkscape:connector-curvature="0"
       class="st1"
       d="m 255.55437,-56.14853 c -3.1,0 -5,-2 -5,-5 0,-2.6 1.7,-7 6.5,-7 3.7,0 5.1,2.8 5.1,5 -0.1,2.7 -1.8,7 -6.6,7 z m 5.1,-7 c 0,-2.1 -1.3,-3.9 -3.7,-3.9 -3.9,0 -4.9,4.3 -4.9,5.9 0,2.3 1.4,4 3.7,4 3.8,0 4.9,-4.1 4.9,-6 z"
       id="path4555" />
    <path
       style="fill:#1c73b7"
       inkscape:connector-curvature="0"
       class="st1"
       d="m 265.75437,-67.84853 h 2.5 c 1.7,0 3.4,0.8 3.4,2.9 0,1.1 -0.6,2.1 -1.4,2.6 -0.6,0.4 -1.1,0.6 -1.5,0.7 l 2.2,5.3 h -1.5 l -2,-5 c -0.4,0 -0.6,0 -1.1,0 -0.3,0 -0.7,0 -0.9,0 l -1.4,5 h -1.3 z m 0.9,5.3 c 0.2,0 0.4,0 0.6,0 2.1,0 2.9,-1.3 2.9,-2.4 0,-1.2 -1,-1.8 -2.2,-1.8 h -1.1 l -1.4,5.2 z"
       id="path4557" />
    <path
       style="fill:#1c73b7"
       inkscape:connector-curvature="0"
       class="st1"
       d="m 281.95437,-56.34853 h -1.4 l -0.4,-3.3 h -5.1 l -2.1,3.3 h -1.6 l 7.7,-11.4 h 1.5 z m -2,-4.4 -0.6,-5.6 -3.6,5.6 z"
       id="path4559" />
  </g>
  <style
     id="style4497"
     type="text/css">
	.st0{fill:#077A3E;}
	.st1{fill:#1C73B7;}
</style>
  <g
     id="g4517"
     transform="matrix(2.5229429,0,0,2.5229429,89.501544,0)">
    <g
       id="g4503">
      <path
         style="fill:#077a3e"
         inkscape:connector-curvature="0"
         class="st0"
         d="m 91.3,42.9 c 0.3,-0.9 0.5,-1.8 0.7,-2.7 0.2,-0.9 0.3,-1.7 0.3,-2.5 0,-1.2 -0.3,-2.3 -1,-3.2 -0.7,-0.9 -1.6,-1.7 -2.8,-2.4 -1.2,-0.6 -2.5,-1.1 -4.1,-1.5 -1.5,-0.3 -3.2,-0.5 -4.9,-0.5 -1.5,0 -3,0.1 -4.3,0.4 -1.4,0.2 -2.7,0.6 -3.9,1 -1.2,0.4 -2.3,0.9 -3.3,1.4 -1,0.5 -1.8,1.1 -2.6,1.7 h -0.2 v -3.4 h -0.1 c -1.6,0.4 -3.6,0.9 -6,1.2 -1.2,0.2 -2.5,0.3 -3.7,0.4 l -8.5,27.4 h 10.7 l 4.6,-14.7 c 0.2,-0.7 0.4,-1.2 0.6,-1.7 0.2,-0.5 0.4,-0.9 0.6,-1.3 0.2,-0.4 0.4,-0.7 0.7,-1 0.2,-0.3 0.5,-0.6 0.7,-0.8 1.3,-1.4 2.9,-2.5 4.8,-3.3 1.9,-0.8 4,-1.2 6.2,-1.2 1.8,0 3.1,0.3 4,0.9 0.9,0.6 1.3,1.4 1.3,2.4 0,0.3 -0.1,0.8 -0.2,1.3 -0.1,0.5 -0.3,1.1 -0.4,1.7 L 75,60.2 87.4,54.8 Z"
         id="path4499" />
      <path
         style="fill:#077a3e"
         inkscape:connector-curvature="0"
         class="st0"
         d="M 56.3,69.2 C 30.9,73.6 9.2,68.6 0,57.7 c 6.2,14.2 28.5,21.2 55.1,16 18.7,-3.7 34,-11.2 44.3,-22 -11,8.7 -25.6,14.4 -43.1,17.5 z"
         id="path4501" />
    </g>
    <g
       id="g4515">
      <g
         id="g4507">
        <path
           style="fill:#1c73b7"
           inkscape:connector-curvature="0"
           class="st1"
           d="M 70.4,7.3 C 68.8,6.8 67.1,6.5 65.5,6.2 63.9,6 62.4,5.9 61.1,5.9 c -2,0 -3.8,0.2 -5.3,0.7 -1.6,0.4 -2.9,1 -4.1,1.7 -1.2,0.7 -2.2,1.5 -3,2.5 -0.8,0.9 -1.5,1.9 -2,2.8 -0.5,1 -0.9,1.9 -1.1,2.9 -0.2,0.9 -0.3,1.8 -0.3,2.6 0,1.2 0.2,2.1 0.6,2.9 0.4,0.8 1,1.4 1.8,1.8 0.8,0.5 1.7,0.8 2.7,1 1.1,0.2 2.2,0.3 3.4,0.3 2,0 4.2,-0.2 6.4,-0.6 2.2,-0.4 4.4,-0.9 6.6,-1.6 l -2,6.3 c -1.5,0.4 -3.5,0.8 -5.7,1.2 -2.3,0.4 -4.7,0.5 -7.3,0.5 -2.2,0 -4.4,-0.2 -6.5,-0.6 -2.1,-0.4 -3.9,-1.1 -5.6,-2 -1.6,-0.9 -2.9,-2.1 -3.9,-3.6 -1,-1.5 -1.5,-3.2 -1.5,-5.3 0,-1.4 0.2,-2.8 0.6,-4.3 0.4,-1.5 1,-2.9 1.9,-4.4 0.9,-1.4 2,-2.8 3.4,-4.1 1.4,-1.3 3,-2.4 4.9,-3.4 1.9,-1 4.1,-1.8 6.7,-2.3 2.7,-0.6 5.5,-0.9 8.6,-0.9 1.7,0 3.7,0.1 6,0.4 2.3,0.3 4.2,0.7 5.8,1.1 z"
           id="path4505" />
      </g>
      <g
         id="g4513">
        <g
           id="g4511">
          <path
             style="fill:#1c73b7"
             inkscape:connector-curvature="0"
             class="st1"
             d="m 29.3,31 c 1.9,0 3.7,0.1 5.3,0.2 1.6,0.1 3,0.3 4.4,0.6 1.7,0.4 3.2,0.8 4.6,1.4 1.4,0.6 2.5,1.3 3.5,2.2 1,0.9 1.7,1.9 2.2,3 0.5,1.1 0.8,2.4 0.8,3.9 0,2 -0.4,4 -1.2,5.8 -0.8,1.8 -2.1,3.5 -3.7,5 -1.6,1.5 -3.7,2.8 -6.1,3.9 -2.5,1.1 -5.3,1.9 -8.6,2.4 -2.9,0.5 -6.4,0.7 -10.4,0.7 H 5.7 L 14.8,31 Z M 17.2,54.7 h 4.3 c 1.5,0 2.8,0 3.9,-0.1 1.1,-0.1 2.1,-0.2 3.1,-0.4 2,-0.4 3.8,-1 5.3,-1.8 1.5,-0.8 2.7,-1.7 3.7,-2.8 1,-1 1.7,-2.2 2.2,-3.4 0.5,-1.2 0.7,-2.5 0.7,-3.8 0,-2 -0.9,-3.4 -2.7,-4.4 -1.8,-0.9 -4.7,-1.4 -8.6,-1.4 h -6 z"
             id="path4509" />
        </g>
      </g>
    </g>
  </g>
</svg>
