<?xml version="1.0" encoding="UTF-8" standalone="no"?>
<!-- Generator: Adobe Illustrator 23.0.1, SVG Export Plug-In . SVG Version: 6.00 Build 0)  -->

<svg
   xmlns:dc="http://purl.org/dc/elements/1.1/"
   xmlns:cc="http://creativecommons.org/ns#"
   xmlns:rdf="http://www.w3.org/1999/02/22-rdf-syntax-ns#"
   xmlns:svg="http://www.w3.org/2000/svg"
   xmlns="http://www.w3.org/2000/svg"
   xmlns:sodipodi="http://sodipodi.sourceforge.net/DTD/sodipodi-0.dtd"
   xmlns:inkscape="http://www.inkscape.org/namespaces/inkscape"
   version="1.1"
   id="Layer_1"
   x="0px"
   y="0px"
   viewBox="0 0 400.00002 101.39608"
   xml:space="preserve"
   sodipodi:docname="compania_cervecera_de_nicaragua_v.svg"
   width="400"
   height="101.39608"
   inkscape:version="0.92.1 r15371"><metadata
     id="metadata101"><rdf:RDF><cc:Work
         rdf:about=""><dc:format>image/svg+xml</dc:format><dc:type
           rdf:resource="http://purl.org/dc/dcmitype/StillImage" /><dc:title></dc:title></cc:Work></rdf:RDF></metadata><defs
     id="defs99" /><sodipodi:namedview
     pagecolor="#ffffff"
     bordercolor="#666666"
     borderopacity="1"
     objecttolerance="10"
     gridtolerance="10"
     guidetolerance="10"
     inkscape:pageopacity="0"
     inkscape:pageshadow="2"
     inkscape:window-width="1280"
     inkscape:window-height="656"
     id="namedview97"
     showgrid="false"
     fit-margin-top="0"
     fit-margin-left="0"
     fit-margin-right="0"
     fit-margin-bottom="0"
     inkscape:zoom="1.517456"
     inkscape:cx="144.74999"
     inkscape:cy="36.608668"
     inkscape:window-x="0"
     inkscape:window-y="27"
     inkscape:window-maximized="1"
     inkscape:current-layer="Layer_1" /><style
     type="text/css"
     id="style2">
	.st0{fill:#006937;}
	.st1{fill:#C89211;}
</style><g
     id="g94"
     transform="matrix(1.384083,0,0,1.384083,0.1384083,0)"><g
       id="g92"><g
         id="g38"><path
           class="st0"
           d="m 138.3,21.3 c -1.1,-0.6 -2.2,-0.6 -2.6,-0.6 -2.9,0 -5,2.2 -5,4.9 0,1.1 0.4,2.1 1.1,2.7 1,1 2.4,1 2.8,1 0.9,0 2.3,-0.3 2.9,-0.6 l -1.3,1.3 c -0.3,0.1 -0.8,0.2 -1.7,0.2 -0.7,0 -1.3,-0.1 -2,-0.2 -2,-0.6 -3.1,-2.3 -3.1,-4.3 0,-2.7 2.2,-5.9 6.5,-5.9 1.4,0 2.4,0.3 2.8,0.4 z"
           id="path4"
           inkscape:connector-curvature="0"
           style="fill:#006937" /><path
           class="st0"
           d="m 143.8,30.2 c -2.7,0 -4.4,-1.7 -4.4,-4.4 0,-2.3 1.5,-6 5.6,-6 3.3,0 4.4,2.4 4.4,4.4 0,2.2 -1.5,6 -5.6,6 z m 4.4,-6.1 c 0,-1.8 -1.1,-3.4 -3.2,-3.4 -3.4,0 -4.3,3.8 -4.3,5.2 0,2 1.2,3.5 3.2,3.5 3.3,-0.1 4.3,-3.7 4.3,-5.3 z"
           id="path6"
           inkscape:connector-curvature="0"
           style="fill:#006937" /><path
           class="st0"
           d="m 161.3,30 h -1.2 l 1.4,-8.3 -5.9,8.3 h -0.1 l -1.4,-8.3 -3,8.3 h -1.2 l 3.8,-10 h 1.3 l 1.2,7.4 5.2,-7.4 h 1.4 z"
           id="path8"
           inkscape:connector-curvature="0"
           style="fill:#006937" /><path
           class="st0"
           d="m 165,30 h -1.3 l 2.7,-10 h 2.2 c 1.4,0 3,0.6 3,2.5 0,0.9 -0.5,1.8 -1.2,2.4 -0.6,0.5 -1.7,0.9 -3.1,0.9 -0.2,0 -0.8,0 -1.3,-0.1 z m 2.2,-5.3 c 0.2,0 0.3,0.1 0.6,0.1 1.6,0 2.6,-1.1 2.6,-2.2 0,-1.3 -1,-1.6 -2,-1.6 h -0.9 l -1.3,4.6 z"
           id="path10"
           inkscape:connector-curvature="0"
           style="fill:#006937" /><path
           class="st0"
           d="m 179.1,30 h -1.2 l -0.4,-2.9 h -4.4 l -1.8,2.9 h -1.4 l 6.7,-10 h 1.3 z m -1.6,-3.9 -0.5,-4.9 -3.2,4.9 z"
           id="path12"
           inkscape:connector-curvature="0"
           style="fill:#006937" /><path
           class="st0"
           d="M 191.7,20 189,30 h -0.1 l -5,-8.8 -2.3,8.7 h -1.2 l 2.7,-10 h 1.4 l 4.1,7.3 1.9,-7.3 h 1.2 z m -5.3,-2.1 c 0.3,-0.1 0.5,-0.2 0.7,-0.2 0.3,0 0.6,0.1 0.7,0.1 0.5,0.2 0.6,0.2 0.8,0.2 0.4,0 0.5,-0.1 1,-0.4 l -0.4,0.9 c -0.3,0.2 -0.6,0.2 -0.7,0.2 -0.2,0 -0.4,-0.1 -0.7,-0.2 -0.3,-0.1 -0.6,-0.2 -0.8,-0.2 -0.4,0 -0.8,0.2 -1,0.4 z"
           id="path14"
           inkscape:connector-curvature="0"
           style="fill:#006937" /><path
           class="st0"
           d="m 192.7,30 h -1.3 l 2.7,-10 h 1.2 z m 4.4,-12.6 -0.2,0.9 -2.7,1 0.3,-0.9 z"
           id="path16"
           inkscape:connector-curvature="0"
           style="fill:#006937" /><path
           class="st0"
           d="m 203.3,30 h -1.2 l -0.4,-2.9 h -4.4 l -1.8,2.9 h -1.4 l 6.7,-10 h 1.3 z m -1.7,-3.9 -0.5,-4.9 -3.2,4.9 z"
           id="path18"
           inkscape:connector-curvature="0"
           style="fill:#006937" /><path
           class="st0"
           d="m 218.8,21.3 c -1.1,-0.6 -2.2,-0.6 -2.6,-0.6 -2.9,0 -5.1,2.2 -5.1,4.9 0,1.1 0.4,2.1 1.1,2.7 1,1 2.4,1 2.8,1 0.9,0 2.3,-0.3 2.9,-0.6 l -1.3,1.3 c -0.3,0.1 -0.8,0.2 -1.7,0.2 -0.6,0 -1.3,-0.1 -2,-0.2 -2,-0.6 -3.1,-2.3 -3.1,-4.3 0,-2.7 2.2,-5.9 6.5,-5.9 1.4,0 2.4,0.3 2.8,0.4 z"
           id="path20"
           inkscape:connector-curvature="0"
           style="fill:#006937" /><path
           class="st0"
           d="m 225.9,29 -1,1 h -5.6 L 222,20 h 5.5 l -0.3,0.9 h -4.3 l -0.9,3.3 h 3.7 l -0.3,1 h -3.7 l -1,3.8 z"
           id="path22"
           inkscape:connector-curvature="0"
           style="fill:#006937" /><path
           class="st0"
           d="m 230,20 h 2.2 c 1.5,0 3,0.7 3,2.5 0,1 -0.5,1.8 -1.2,2.3 -0.5,0.4 -0.9,0.5 -1.3,0.6 l 1.9,4.6 h -1.3 l -1.8,-4.4 c -0.3,0 -0.5,0 -0.9,0 -0.3,0 -0.6,0 -0.8,0 l -1.2,4.4 h -1.2 z m 0.8,4.6 c 0.2,0 0.4,0 0.5,0 1.8,0 2.5,-1.2 2.5,-2 0,-1.1 -0.8,-1.6 -1.9,-1.6 h -1 l -1.2,4.5 z"
           id="path24"
           inkscape:connector-curvature="0"
           style="fill:#006937" /><path
           class="st0"
           d="m 239.6,30 h -1.2 l -1,-10 h 1.2 l 0.8,8.5 5.7,-8.5 h 1.4 z"
           id="path26"
           inkscape:connector-curvature="0"
           style="fill:#006937" /><path
           class="st0"
           d="m 252.1,29 -1,1 h -5.6 l 2.7,-10 h 5.5 l -0.3,0.9 h -4.3 l -0.9,3.3 h 3.7 l -0.3,1 H 248 l -1,3.8 z"
           id="path28"
           inkscape:connector-curvature="0"
           style="fill:#006937" /><path
           class="st0"
           d="m 263.2,21.3 c -1.1,-0.6 -2.2,-0.6 -2.6,-0.6 -2.9,0 -5,2.2 -5,4.9 0,1.1 0.4,2.1 1.1,2.7 1,1 2.4,1 2.8,1 0.9,0 2.3,-0.3 2.9,-0.6 L 261,30 c -0.3,0.1 -0.8,0.2 -1.7,0.2 -0.7,0 -1.3,-0.1 -2,-0.2 -2,-0.6 -3.1,-2.3 -3.1,-4.3 0,-2.7 2.2,-5.9 6.5,-5.9 1.4,0 2.4,0.3 2.8,0.4 z"
           id="path30"
           inkscape:connector-curvature="0"
           style="fill:#006937" /><path
           class="st0"
           d="m 270.3,29 -1,1 h -5.6 l 2.7,-10 h 5.5 l -0.3,0.9 h -4.3 l -0.9,3.3 h 3.7 l -0.3,1 h -3.7 l -1,3.8 z"
           id="path32"
           inkscape:connector-curvature="0"
           style="fill:#006937" /><path
           class="st0"
           d="m 274.4,20 h 2.2 c 1.5,0 3,0.7 3,2.5 0,1 -0.5,1.8 -1.2,2.3 -0.5,0.4 -0.9,0.5 -1.3,0.6 L 279,30 h -1.3 l -1.8,-4.4 c -0.3,0 -0.5,0 -0.9,0 -0.3,0 -0.6,0 -0.8,0 L 273,30 h -1.2 z m 0.8,4.6 c 0.2,0 0.4,0 0.5,0 1.8,0 2.5,-1.2 2.5,-2 0,-1.1 -0.8,-1.6 -1.9,-1.6 h -1 l -1.2,4.5 z"
           id="path34"
           inkscape:connector-curvature="0"
           style="fill:#006937" /><path
           class="st0"
           d="m 288.9,30 h -1.2 l -0.4,-2.9 h -4.4 l -1.8,2.9 h -1.4 l 6.7,-10 h 1.3 z m -1.7,-3.9 -0.5,-4.9 -3.2,4.9 z"
           id="path36"
           inkscape:connector-curvature="0"
           style="fill:#006937" /></g><g
         id="g70"><path
           class="st0"
           d="m 142,35 h 3.4 c 2.5,0 4.4,1.2 4.4,4.1 0,1.7 -0.7,3.5 -1.9,4.5 -1.5,1.3 -3.1,1.4 -4.3,1.4 h -4.2 z m 0.3,8.2 h 1 c 0.5,0 0.9,0 1.4,-0.2 1.7,-0.5 2.4,-2.4 2.4,-3.8 0,-1 -0.4,-1.6 -0.7,-1.8 -0.5,-0.4 -1.1,-0.5 -1.7,-0.5 H 144 Z"
           id="path40"
           inkscape:connector-curvature="0"
           style="fill:#006937" /><path
           class="st0"
           d="m 158.5,43.2 -1.9,1.9 h -6.3 l 2.7,-10 h 6.7 L 159.2,37 H 155 l -0.5,2 h 3.5 l -0.5,1.9 H 154 l -0.6,2.3 z"
           id="path42"
           inkscape:connector-curvature="0"
           style="fill:#006937" /><path
           class="st0"
           d="m 175.4,35 -2.7,10.1 h -1.5 l -3.9,-6.6 -1.7,6.6 H 163 l 2.7,-10 h 2.2 l 3.5,5.9 1.6,-6 z"
           id="path44"
           inkscape:connector-curvature="0"
           style="fill:#006937" /><path
           class="st0"
           d="m 177.9,45.1 h -2.6 l 2.7,-10 h 2.5 z"
           id="path46"
           inkscape:connector-curvature="0"
           style="fill:#006937" /><path
           class="st0"
           d="m 190.2,37.2 c -0.4,-0.2 -1.3,-0.7 -2.4,-0.7 -2.5,0 -4,2.1 -4,4.1 0,1.5 0.9,2.9 3.2,2.9 1,0 2,-0.3 2.6,-0.6 l 0.2,-0.1 -2,2.2 c -0.4,0.1 -1,0.2 -1.8,0.2 -3.3,0 -4.8,-2.2 -4.8,-4.5 0,-2.9 2.2,-6 6.6,-6 0.7,0 1.8,0.1 3,0.5 z"
           id="path48"
           inkscape:connector-curvature="0"
           style="fill:#006937" /><path
           class="st0"
           d="M 199.5,45.1 H 197 l -0.2,-2 h -3.6 l -1.3,2 h -2.7 l 6.6,-10 h 2.8 z m -2.8,-3.8 -0.3,-3.5 -2.2,3.5 z"
           id="path50"
           inkscape:connector-curvature="0"
           style="fill:#006937" /><path
           class="st0"
           d="m 209.4,45.1 h -2.6 l -1.3,-4.2 c -0.2,0 -0.4,0 -0.6,0 -0.2,0 -0.4,0 -0.6,0 l -1.1,4.2 h -2.5 l 2.7,-10 h 3.4 c 0.5,0 1.1,0 1.7,0.3 1.2,0.5 1.6,1.5 1.6,2.4 0,0.9 -0.5,1.8 -1.1,2.3 -0.4,0.4 -0.9,0.5 -1.2,0.6 z m -3.6,-5.9 c 0.1,0 0.2,0 0.3,0 1,0 1.5,-0.7 1.5,-1.3 0,-0.5 -0.3,-0.9 -0.7,-1 -0.3,-0.1 -0.5,-0.1 -0.9,-0.1 h -0.7 l -1,3.7 z"
           id="path52"
           inkscape:connector-curvature="0"
           style="fill:#006937" /><path
           class="st0"
           d="m 219.9,45.1 h -2.5 l -0.2,-2 h -3.6 l -1.3,2 h -2.7 l 6.6,-10 h 2.8 z m -2.8,-3.8 -0.3,-3.5 -2.2,3.5 z"
           id="path54"
           inkscape:connector-curvature="0"
           style="fill:#006937" /><path
           class="st0"
           d="m 231.6,39.7 -1.3,4.8 c -0.5,0.2 -1.9,0.9 -3.8,0.9 -3.2,0 -5.1,-1.9 -5.1,-4.6 0,-2.5 1.8,-6 6.9,-6 1.9,0 3.2,0.4 3.7,0.6 l -0.5,2 c -1,-0.5 -2,-0.8 -3.1,-0.8 -2.9,0 -4.4,2.2 -4.4,4.1 0,1.8 1.2,3 3,3 0.6,0 1,-0.1 1.2,-0.2 l 0.5,-2 h -2.4 l 1.5,-1.7 h 3.8 z"
           id="path56"
           inkscape:connector-curvature="0"
           style="fill:#006937" /><path
           class="st0"
           d="m 243.8,35 -1.7,6.5 c -0.3,1 -0.6,2 -1.6,2.8 -0.8,0.6 -1.9,1 -3.3,1 -2.6,0 -4.2,-1.4 -4.2,-3.3 0,-0.5 0.1,-1 0.3,-1.7 l 1.4,-5.2 h 2.6 l -1.5,5.6 c -0.1,0.3 -0.2,0.9 -0.2,1.3 0,1 0.7,1.5 1.6,1.5 0.8,0 1.2,-0.3 1.5,-0.6 0.4,-0.4 0.6,-0.9 0.8,-1.7 l 1.6,-6 h 2.7 z"
           id="path58"
           inkscape:connector-curvature="0"
           style="fill:#006937" /><path
           class="st0"
           d="m 252.6,45.1 h -2.5 l -0.2,-2 h -3.6 l -1.3,2 h -2.7 l 6.6,-10 h 2.8 z m -2.8,-3.8 -0.3,-3.5 -2.2,3.5 z"
           id="path60"
           inkscape:connector-curvature="0"
           style="fill:#006937" /><path
           class="st0"
           d="m 265.7,37.5 c -0.8,-0.8 -1.7,-0.9 -2,-0.9 -1,0 -1.5,0.7 -1.5,1.2 0,0.6 0.3,0.9 1,1.5 l 0.4,0.3 c 0.5,0.5 1.3,1.2 1.3,2.4 0,1.5 -1.2,3.3 -4,3.3 -0.7,0 -2,-0.1 -3.3,-0.7 l 0.6,-2.1 c 0.7,0.5 1.4,0.9 2.4,0.9 1.2,0 1.7,-0.7 1.7,-1.4 0,-0.6 -0.4,-1 -1,-1.5 -0.8,-0.7 -1.6,-1.3 -1.6,-2.6 0,-1.5 1.2,-3.1 3.7,-3.1 0.6,0 1.6,0.1 2.9,0.7 z"
           id="path62"
           inkscape:connector-curvature="0"
           style="fill:#006937" /><path
           class="st0"
           d="m 267.1,45.2 c -0.7,0 -1.2,-0.5 -1.2,-1.2 0,-0.7 0.6,-1.2 1.2,-1.2 0.7,0 1.2,0.5 1.2,1.2 0,0.7 -0.5,1.2 -1.2,1.2 z"
           id="path64"
           inkscape:connector-curvature="0"
           style="fill:#006937" /><path
           class="st0"
           d="m 278.8,45.1 h -2.5 l -0.2,-2 h -3.6 l -1.3,2 h -2.7 l 6.6,-10 h 2.8 z m -2.7,-3.8 -0.3,-3.5 -2.2,3.5 z"
           id="path66"
           inkscape:connector-curvature="0"
           style="fill:#006937" /><path
           class="st0"
           d="m 281.3,45.2 c -0.7,0 -1.2,-0.5 -1.2,-1.2 0,-0.7 0.6,-1.2 1.2,-1.2 0.7,0 1.2,0.5 1.2,1.2 0,0.7 -0.5,1.2 -1.2,1.2 z"
           id="path68"
           inkscape:connector-curvature="0"
           style="fill:#006937" /></g><g
         id="g90"><path
           class="st0"
           d="m 45.8,30.7 c -2.2,-0.3 -4.1,-0.4 -5.7,-0.4 -2.9,0 -5.6,0.3 -8,0.8 -2.4,0.5 -4.5,1.3 -6.4,2.2 -1.8,0.9 -3.4,2 -4.7,3.3 -1.3,1.2 -2.4,2.6 -3.2,3.9 -0.8,1.4 -1.5,2.7 -1.9,4.2 -0.4,1.4 -0.6,2.8 -0.6,4.1 0,2 0.5,3.7 1.4,5.1 0.9,1.4 2.2,2.5 3.7,3.4 1.5,0.9 3.3,1.5 5.3,1.9 2,0.4 4.1,0.6 6.2,0.6 2.5,0 4.8,-0.2 7,-0.5 1.6,-0.2 2.9,-0.5 4.1,-0.8 l 1.9,-6 c -1.7,0.5 -3.3,0.8 -5,1.1 -2.1,0.4 -4.1,0.5 -6.1,0.5 -1.2,0 -2.2,-0.1 -3.2,-0.3 -1,-0.2 -1.9,-0.5 -2.6,-0.9 -0.7,-0.4 -1.3,-1 -1.7,-1.8 -0.4,-0.7 -0.6,-1.7 -0.6,-2.8 0,-0.7 0.1,-1.6 0.3,-2.4 0.2,-0.9 0.6,-1.8 1,-2.7 0.5,-0.9 1.1,-1.8 1.9,-2.7 0.8,-0.9 1.7,-1.7 2.8,-2.3 1.1,-0.7 2.4,-1.2 3.9,-1.7 1.5,-0.4 3.2,-0.6 5.1,-0.6 1.2,0 2.6,0.1 4.2,0.3 1.5,0.2 3.1,0.5 4.7,1 l 1.7,-5.5 c -1.6,-0.4 -3.4,-0.7 -5.5,-1"
           id="path72"
           inkscape:connector-curvature="0"
           style="fill:#006937" /><path
           class="st0"
           d="M 68.3,0.4 C 66.1,0.1 64.2,0 62.6,0 59.7,0 57,0.3 54.6,0.8 52.2,1.3 50.1,2.1 48.2,3 c -1.8,0.9 -3.4,2 -4.7,3.3 -1.3,1.2 -2.4,2.5 -3.2,3.9 -0.8,1.4 -1.5,2.8 -1.9,4.2 -0.4,1.4 -0.6,2.8 -0.6,4.1 0,2 0.5,3.7 1.4,5.1 0.9,1.4 2.2,2.5 3.7,3.4 1.5,0.9 3.3,1.5 5.3,1.9 2,0.4 4.1,0.6 6.2,0.6 2.5,0 4.8,-0.2 7,-0.5 1.6,-0.2 2.9,-0.5 4.1,-0.8 l 1.9,-6 c -1.7,0.4 -3.3,0.8 -5,1.1 -2.1,0.4 -4.1,0.5 -6.1,0.5 -1.2,0 -2.2,-0.1 -3.2,-0.3 -1,-0.2 -1.9,-0.5 -2.6,-0.9 -0.7,-0.4 -1.3,-1 -1.7,-1.8 -0.4,-0.7 -0.6,-1.7 -0.6,-2.8 0,-0.7 0.1,-1.6 0.3,-2.4 0.2,-0.9 0.6,-1.8 1,-2.7 0.5,-0.9 1.1,-1.8 1.9,-2.7 0.8,-0.9 1.7,-1.7 2.8,-2.4 1.1,-0.7 2.4,-1.2 3.9,-1.7 1.5,-0.4 3.2,-0.6 5.1,-0.6 1.2,0 2.6,0.1 4.2,0.3 1.6,0.2 3.1,0.5 4.7,1 L 73.8,1.3 C 72.2,1.1 70.4,0.7 68.3,0.4"
           id="path74"
           inkscape:connector-curvature="0"
           style="fill:#006937" /><path
           class="st1"
           d="m 107.4,44.4 c -2,0.2 -3,0.3 -5,0.3 0,0 1.3,-1.4 2.7,-3.2 1.7,-2.2 4.1,-3.8 6.1,-4.6 1.9,-0.7 2.8,-1.1 4.6,-1.9 1.7,-3.4 2.9,-6.9 3.9,-10.3 0,0 0.1,0 0.1,0.1 -1.4,5.1 -3.3,10.2 -6.1,15 -1.7,2.7 -4.3,4.4 -6.3,4.6"
           id="path76"
           inkscape:connector-curvature="0"
           style="fill:#c89211" /><path
           class="st1"
           d="m 112.6,34.5 c -1.8,0.9 -2.7,1.2 -4.6,1.8 0,0 0.8,-1.7 1.6,-3.7 1,-2.5 2.7,-4.6 4.3,-5.9 1.5,-1.2 2.3,-1.8 3.7,-3.1 0.6,-3.5 0.8,-6.9 0.8,-10.2 0.1,0 0.1,0 0.1,0 0.1,4.8 -0.3,9.9 -1.6,15 -0.6,3 -2.6,5.2 -4.3,6.1"
           id="path78"
           inkscape:connector-curvature="0"
           style="fill:#c89211" /><path
           class="st1"
           d="m 98.9,34.4 c 2.1,-4.2 4.3,-8.3 6.2,-12.4 0,0 0.1,0 0.1,0 -1.3,2.9 -2.6,5.7 -4.1,8.6 0.5,1.9 0.7,2.8 1.3,4.7 0.5,2 0.3,4.9 -0.9,7.4 -1,1.9 -1.9,3.7 -1.9,3.7 -0.7,-1.9 -1,-2.9 -1.6,-4.8 -0.5,-2 -0.3,-4.7 0.9,-7.2"
           id="path80"
           inkscape:connector-curvature="0"
           style="fill:#c89211" /><path
           class="st1"
           d="m 104.5,27.3 c 2.3,-4.3 4.1,-8.7 6.1,-12.9 0.1,0 0.1,0 0.1,0 -1.4,2.9 -2.3,6.1 -3.8,9.1 0.4,1.9 0.7,2.9 1.1,4.8 0.4,2.1 0.2,5.1 -1.1,7.5 -1.1,2 -2,3.7 -2,3.7 -0.6,-2 -0.9,-2.9 -1.5,-4.9 -0.5,-2 -0.2,-4.8 1.1,-7.3"
           id="path82"
           inkscape:connector-curvature="0"
           style="fill:#c89211" /><path
           class="st1"
           d="m 111.2,27.2 c -1,1.2 -2.1,2.1 -2.1,2.1 0.4,-2.2 0.5,-3.2 0.6,-5.3 0.1,-2.1 0.6,-4.6 1.5,-6.4 0.5,-0.8 0.9,-1.5 1.2,-2 1.4,-3.9 2,-6.8 2.7,-10.7 0,0 0.1,0 0.1,0 -0.4,3.6 -1.2,6.9 -2.5,10.8 0.2,1.8 0.3,2.9 0.4,4.9 0.1,2.1 -0.5,5 -1.9,6.6"
           id="path84"
           inkscape:connector-curvature="0"
           style="fill:#c89211" /><path
           class="st1"
           d="m 117.2,36.5 c -1.9,3.1 -4.1,6.2 -6.5,8.9 -2,0.3 -2.9,0.4 -4.9,0.5 -2.1,0.1 -4.7,1 -6.9,2.6 -1,0.8 -2,1.4 -2.6,1.8 0.1,-0.1 0.1,-0.2 0.2,-0.3 1.2,-2.4 1.2,-5.4 0.7,-7.4 -0.5,-1.9 -0.8,-2.8 -1.3,-4.6 1.4,-2.9 2.7,-5.6 4,-8.4 -0.1,0 -0.1,0 -0.1,0 -1.9,4 -4,8 -6.2,12.1 -1.2,2.5 -1.4,5.2 -0.8,7.1 0.4,1.4 0.6,2 1,3 C 82.2,60 66.6,66 49.7,68 27.4,70.6 8.8,65.3 -0.1,55.4 6.1,68.7 26,76 50.5,72.3 68.7,69.6 85.4,61.5 96.6,51.1 c 1.2,0.4 2.2,0.6 3.7,0.9 1.9,0.3 4.8,-0.5 7.1,-2.7 3.9,-3.8 7.2,-8.2 9.8,-12.8 0.1,0 0.1,0 0,0"
           id="path86"
           inkscape:connector-curvature="0"
           style="fill:#c89211" /><path
           class="st0"
           d="M 88,33.7 C 87.4,32.8 86.5,32.1 85.4,31.4 84.3,30.8 83,30.3 81.5,30 c -1.5,-0.3 -3,-0.5 -4.7,-0.5 -1.4,0 -2.8,0.1 -4.2,0.3 -1.3,0.2 -2.5,0.5 -3.7,0.9 -1.1,0.4 -2.2,0.8 -3.1,1.3 -0.9,0.5 -2.2,1.4 -2.2,1.4 l 0.9,-2.8 c -0.9,0.2 -1.9,0.4 -2.9,0.5 -2.3,0.4 -4.7,0.5 -7.3,0.5 -0.1,0 -0.2,0 -0.3,0 l -8,26.1 c 0.5,-0.1 1,-0.3 1.5,-0.5 3.8,-1.2 7.3,-2.8 10.3,-4.7 l 2.6,-8.2 c 0.2,-0.6 0.4,-1.2 0.6,-1.7 0.2,-0.5 0.4,-0.9 0.6,-1.3 0.2,-0.4 0.4,-0.7 0.6,-1 0.2,-0.3 0.4,-0.6 0.7,-0.8 1.2,-1.3 2.7,-2.4 4.6,-3.1 1.8,-0.8 3.8,-1.2 5.9,-1.2 1.7,0 3,0.3 3.8,0.8 0.8,0.5 1.2,1.3 1.2,2.3 0,0.3 0,0.7 -0.2,1.2 -0.1,0.5 -0.2,1 -0.4,1.6 L 72.6,58 c 4.3,-1.6 8.3,-3.5 12,-5.6 L 88,41.7 c 0.3,-0.9 0.5,-1.7 0.7,-2.6 0.2,-0.9 0.3,-1.7 0.3,-2.4 0,-1.1 -0.3,-2.1 -1,-3"
           id="path88"
           inkscape:connector-curvature="0"
           style="fill:#006937" /></g></g></g></svg>