<svg xmlns="http://www.w3.org/2000/svg" width="447.015" height="101.583"><g fill="#7f001a"><path d="M7.924 101.583l-1.435-.75c-.5 0-.812-1.122-1.623-2.37.375-2.184-.81-4.93 0-7.55l.81-.624.812.31.31.812c0 1.373.313 2.62.313 4.493l.81 1.373c0 .56 1.062.81 2.31 1.62 11.668-.435 23.337-2.62 35.504-2.306.437 0 1.124-.313 2.37-1.124 13.542-.312 27.58-2.683 41.558-3.307l1.497.625-.374.75-1.56.81c-19.655 1.934-38.936 2.933-58.903 5.366-7.3.312-14.413 1.124-21.964 1.873h-.436zM111.317 92.785c-.75-.624-1.56 0-2.683-.624.686-.436.686-1.247 2.246-1.87h1.497c.75.31 1.935.623 3.058 1.434.81-.312 2.12-.81 2.933-1.934 1.123 0 2.37-.312 3.868-.312l2.247 1.123h1.497c.81-.31 1.935-.81 2.933-1.558h2.37v1.247c0 .31-1.122.623-2.37 1.434-5.678.687-11.357.687-17.347 1.06h-.25zM137.337 90.913l-1.124-1.123c0-1.123 1.56-.748 1.935-1.935 10.545-.748 21.09-2.932 31.76-1.81 1.123-.31 2.246-.31 3.868-1.434 13.478-.498 27.58-2.744 41.495-3.556l1.186 1.123c-.5 0-1.185.5-2.433 1.186-18.345 1.56-37.75 3.744-56.72 4.492-4.43 1.623-8.61.812-13.477 1.935l-.81.5h-.813l-.686.31c-1.248 0-2.246.313-3.744.313h-.436zM24.647 85.734c-6.177-2.37-9.547-6.49-11.855-13.29 0-3.745-.625-8.05 0-12.168 1.622-5.554 4.243-10.795 10.233-13.103h2.37l1.187 1.622v1.435l-.625.75c-1.31 7.36.625 15.35.81 23.397l.438.812c0 1.31.687 3.244.687 5.053.5.81.81 1.934 1.622 3.12l-.374 1.56-1.56.81h-2.933zM4.555 84.61l-.686-1.62c0-1.124 0-2.123.186-3.745l.81-.312c-.31 1.934 1.124 3.244-.31 5.678zM36.752 84.112l-.81-.75v-.685c1.933-2.434 3.306-4.243 6.05-7.3.438 0 1.5.81 1.5 1.62v.688c-1.5 2.558-2.996 4.492-5.617 6.427h-1.123zM61.274 82.177c-5.304-1.934-9.047-5.18-11.793-11.294v-.81l-.373-.563v-.81l-.437-.81c-.562-3.87-.562-7.926.437-12.044v-.75c1.497-4.866 4.243-8.672 9.547-10.856.374 0 1.123 0 2.184.312l.81 1.622c-1.185 10.482 0 21.402 2.684 32.26l.374 1.62c0 .813-.374 1.812-1.123 2.123h-2.31zM235.55 81.866c-.313-.812-1.123 0-1.935-.812l.437-.81c.375 0 1.185-.19 2.184-1 1.124 0 2.247.81 3.868 1.623 1.56 0 2.122-1.622 4.556-2.433h2.246l2.246 1.185h1.498c.437 0 1.123-.375 2.37-1.186 1.062 0 2.184-.75 3.745 0 0 1.185-1.56.81-1.935 1.81h-.748l-.81.623c-5.555.56-11.357.56-17.285 1h-.437zM71.133 81.428l-1.123-1.373c.81-9.983-.81-20.09-1.56-30.137-.374-1.56-.812-2.745-1.498-4.555l.686-1.56c.812-.686 1.935 0 3.183-.374.563 0 1.81 1.62 2.934 1.122 2.308 1.622 4.554 3.432 6.49 6.177 0 1.37 1.122 3.18 1.933 5.116v.81l.312.812v.686l.25.562c.56 2.746.56 6.115 0 9.173l-.25.81v.81c-1.56 4.867-4.182 9.423-8.736 11.544-.437-.187-1.123.812-2.37.374h-.25zM93.846 80.243l-1.56-.624-.687-1.5c0-.81.686-1.933 1.123-2.93 1.934-7.3-2.746-14.54 1.123-22.027V52.6c-.312-3.493-3.495-5.615-4.868-9.17v-.75c.25-.81.687-1.186 1.81-1.872 3.307-.312 6.8 0 10.545-.312l2.31.998c3.056 3.87 5.677 8.736 9.483 12.417h1.498c.437 0 .81-1.122 1.622-2.12.312-3.432-.81-6.74-3.12-9.92v-1.374c0-.437 1.186-.81 2.31-1.56.31 0 1.122 0 2.12-.374.5 0 1.248.374 2.434.81l.75 1.436c-.438.686 0 1.872-1.25 2.995 0 2.62-1.122 5.304-.31 8.298-.376 1.5-1.124 3.434-1.81 5.368.186.187 0 .873.186 2.06.812 2.37 1.248 4.49 2.746 6.8.81 2.684.437 5.305.437 8.3l-1.25 2.37c-.31 0-1.122.312-2.12 1.123h-1.623c-8.36-4.18-10.295-15.1-17.783-20.652-.687 0-1.934.187-2.31.873 0 4.68 0 8.738 1.124 13.667.5 1.56 1.934 2.37 2.746 4.492v1.62l-.312.813c0 .312-1.248.686-2.434 1.31h-2.932zM262.006 80.055l-1.123-1.122c0-.812 1.934-.812 2.246-1.935 9.11-.81 18.53-1.81 28.016-2.62l.81.998-.436.81c-.374 0-1.123.313-2.308 1.124-8.61 1.124-18.16 1.935-27.206 2.745zM134.28 76.5l-1.5-.75-.685-1.373c.374-10.544 0-21.59-2.683-32.508l-.5-1.374v-.81l.812-1.56 1.56-1.124c2.308 0 4.93 0 7.612-.375l1.373.375c1.62.748 1.933 1.56 3.18 3.494 0 3.307 0 6.677.688 10.483l.81 1.62c0 .188 1 1 2.247 1 1.123-.812 1.935-2.62 4.18-3.682.687.312 1.062.81 1.873 1.872 0 2.12.748 4.866.312 7.363l-.687.81h-1.497c-1.56-.436-1.56-1.81-3.806-2.495-.375 0-1.186.187-2.184.686-1.248 4.867.312 9.735 2.496 15.1l-.687 1.373-1.497 1.123c-3.807.75-7.238 0-11.42.75zM168.66 73.567l-.562-.313c-.437 0-.81-1.247-1.622-2.37 1.185-10.608-.312-21.403-2.683-32.322v-2.37l1.56-1.374h.81l.687-.437c3.058-.685 6.427-.685 9.86-.685l1.496 1.123.75 1.373v1.56l-.312.812c0 10.233.312 20.965 3.307 31.51l-.686 1.56-1.497 1.124c-3.495 0-6.802.498-10.67.81h-.437zM334.637 73.254l-1.124-1.62 1.498-1.124c1.873 0 3.745 0 6.116.373l1.435-.81c13.167-.563 26.582-1.374 40.184-3.307h.812l.81-.437c6.242-.376 12.73 0 19.532-1.124l1.248 1.123c0 .436-.81 1.56-1.623 1.56-2.932.373-6.427.373-9.733-.314-.5 0-1.25.313-2.372 1.123-15.91 1.81-31.698 2.183-47.608 4.554-.75-.498-1.935 0-3.183-1.247h-1.435c-.812.437-1.81 0-2.933 1.247h-1.623zM194.055 71.633c-.31-.75-1.123 0-2.246-.75l-.687-1.373c0-.498.25-1.247.686-2.432 0-10.047 0-20.093-2.934-30.887v-2.183l1.436-1.56h.81l.687-.375c2.745-.312 5.24 0 8.423-.312.624.687 1.872 1.124 2.496 2.62.436 10.67 1.56 21.466 3.18 32.386 0 .312-.498 1.123-1.247 2.246-.374.686-1.934 1.06-2.995 1.87-2.246 0-4.992.438-7.613.75zM211.09 69.51c-.81-.498-1.123-.81-1.934-1.934v-.81c.5-.812 0-1.935 1.123-2.933.498-7.987-1.124-15.85-1.436-24.148l-.437-.75v-.81l-.375-1.498c-.25-.81-.686-1.81-1.497-2.246v-1.496l1.248-1.56c4.43-.375 8.673 3.494 11.294 6.115 1.31 2.62 1.81 5.24 3.245 8.298.5 2.62 1.123 6.052.5 8.984l-.5.812c0 .81-.313 1.934-.313 2.807l-.437 1.624c-1.186 3.057-3.307 4.055-5.117 6.802-1.185.312-1.934 1.123-2.995 2.246-.436-.313-1.247.686-2.37.498zM232.492 67.89c-.81-.314-1.123-.812-1.81-1.936 1.498-11.232 0-22.837-3.057-34.63 0-.812 1.124-1.935 1.935-2.62 2.932-.376 5.677 0 8.923-.376l1.62.81c.813.25 1.125 1.81 1.812 2.934 0 2.996 0 6.49.81 9.797l.75 1.56 1.497 1.122h.81l1.56-.75c.562-.373.562-2.308 2.497-2.495l1.62.187.75 1.623c.374 1.934 0 4.43.81 6.8l-.81 1.436-.75.437h-.81c-2.247-.437-2.247-2.31-4.555-3.432-.687 0-1.934.437-2.246 1.123-.813 4.43 1.122 9.236 1.122 14.353l-1.123 2.12c-.376 0-1.125.376-2.186 1.125-3.18.498-5.677.81-9.172.81zM251.46 66.33c-.81-.376-1.934-.687-2.308-1.5v-.81c.687-2.932 3.87-3.37 5.242-6.365 0-.187 1.123-.624 2.37-1.31l1.498.31.81 1.5c0 1.81 0 3.743-.372 5.864l-1.56 1.623c-1.623.31-3.557 0-5.367.686h-.312zM421.37 65.954l-.5-.748c0-.812.5-1.935 1.31-2.185 5.99-.81 12.48-.435 18.906-1.932l.562-.437c.5 0 .81-1.123 1.623-2.31 0-7.61-1.622-15.66-1.622-23.96l1.934-.685 1.248 1.373c1.123 5.74-.436 12.105 2.185 18.095 0 3.182-1.062 5.553 0 9.047l-.688 1.623c-7.924.998-16.597 1.81-24.958 2.12z"/><path d="M2.745 65.643l-.81-1.624C1.934 56.344.31 48.357 0 40.06l1.123-1.498c9.11-.812 17.846-1.56 27.268-2.37l1.124 1.247v.685l-.81.81c-7.614 1.124-15.413.75-23.462 2.56L3.87 43.116c-.813 7.113 2.93 15.037-.813 22.526h-.312zM268.807 64.83c-.686-.436-1.123-.81-1.934-1.81v-2.37c.81-1.123.437-2.31 1.623-3.62.748-6.05-3.12-11.667.748-18.094v-2.31c-1.123-2.93-3.058-5.303-4.867-7.487v-1.56c.25-.81.562-1.186 1.81-1.934 3.057-.375 6.364 0 9.858-.812l2.184 1.248c4.555 3.057 5.678 10.545 11.355 13.603l.812-.312.75-1.623c0-3.743 0-7.8-3.06-11.356v-.748c.375-.812.812-1.124 1.936-1.81 1.123 0 2.31-.374 3.743-.374l1.498.81c.812.562 0 1.81.437 2.933-.81 1.123-.436 2.184-1.56 3.744-.81 2.745.75 5.24-.374 8.423l-.998 1.435c0 .686-.436 1.872-.436 2.995.997 2.37 1.434 4.555 2.932 6.926.437 2.433.812 5.926.812 8.797l-.812 1.56c0 .375-1.123.81-2.31 1.498h-2.93l-2.373-1.123c-4.054-5.616-8.172-11.98-12.727-18.033 0-.313-1.124-.75-2.372-1.56l-1.497.81c-.436 6.115-.436 12.417 3.433 18.782v1.56l-1.124 1.372c-1.497 0-2.745.437-4.555.437zM317.602 60.276l-.81-.312h-.75c-6.052-1.623-9.42-6.365-11.606-12.79v-.75l-.312-.686c-1.247-6.802 0-13.978 4.43-20.467 1.248-1.434 3.37-2.62 6.116-3.743h1.372l1.56 1.123v1.623l-.312.56c-.81 10.983-.5 22.152 3.37 33.32l-.313 1.374c-.436 0-1.123.75-2.37.75h-.375zM327.4 58.716c-.376-.375 0-1.06-.376-2.06 1.935-1.934 3.87-3.868 6.053-5.927h.75l.81 1.06c-.81 2.932-2.933 6.364-7.238 6.926zM40.06 58.154l-.812-.5c-1.934-3.743-4.43-5.553-6.8-9.67 0-.437.81-1.56 1.62-1.56 1.873 0 3.807-.25 5.99-.25l1.935 2.184c0 2.37.812 4.805.812 7.488-.375.81-.812 2.495-2.31 2.308h-.436zM344.87 58.154l-1.498-1.498c0-11.293 0-22.96-3.37-34.755v-.81l.313-.686c0-.437 1.123-.81 2.246-1.56 3.12 0 6.49-.81 9.923-.81 1.122.56 1.934.81 2.683 2.37-.75 10.92.248 21.9 2.995 33.195v2.246l-1.934 1.622c-3.743 0-7.176.686-11.357.686zM368.332 55.846c-.75-.312-1-.75-1.81-1.935.25-1.31 1.373-2.12 2.184-4.43v-.685l.436-.81v-.812l.313-.75v-.685l.374-.687c0-.81.436-1.933.436-3.18l.374-.563v-.81l.437-.812v-.75l.312-.81c0-.686.373-1.934.373-3.057l.436-.687v-.685c.374-2.372 1.81-3.744 2.933-6.115.374-3.058 0-5.68.374-8.986l.81-1.622c.75-.312 1.81-.75 2.934-1.56h5.305l1.622.81c.687.75 1.934 1.81 2.62 3.745v.81l.438.75v.812l.31.685v.81c.5 1.436.688 2.56 1.873 4.493v.81c.437 1.374.75 3.31 1.872 5.243v.688l.5.748v.81c1.123 4.68 2.93 9.112 5.677 13.604v.75c0 .81-1.248 1.808-1.934 2.62-3.743.31-7.987.81-12.168.81-.436 0-.81-1.247-1.56-2.31v-2.993c-.25-1.56-1.06-1.934-2.184-2.933-.81 0-1.932-.436-2.93-.436-.812-.375-1.935-.687-2.372-1.498v-.81c1.56-1.125 2.933-1.936 4.18-3.745 0-1.935 0-3.87-1.247-5.99l-1.372-1.623c-.437 0-1.123.375-2.37.812l-.688 1.497c-.436 3.06-1.56 5.68.313 9.05-.313 1.122-1.124 1.62-1.872 2.994v3.057c.75 1.25.75 2.31 1.56 3.683l-.436 1.56c-.375 0-1.123.374-2.185 1.123h-3.868zM408.89 52.6l-.812-.5-.81-1.37c1.622-9.922-.812-20.218-1.436-30.326-.375-.81 0-1.81-1.186-3.057V15.1l1.186-1.622c4.18-.562 8.236-.312 12.79-.562l1.124 1.373v1.56l-.31.81v.687l-.44.686c0 7.238 1.25 14.414 1.562 22.026l.312.748c0 .686.5 1.872.5 2.995l.31 1.56c.5.81.812 1.81 1.623 2.184h2.122c2.37-1.123 3.556-3.307 4.866-6.24 0-.5 1.25-1.248 2.435-1.248l1.124 1.434c.31 1.935 0 3.87.31 6.053l-1.123 2.37-1.497 1.062h-5.304l-2.184-1.062h-2.37c-1.124.312-3.06 1.435-4.556 2.183-2.558 0-5.18.5-8.236.5zM155.12 45.05c-2.247-1.62-3.495-3.743-6.802-5.365l-1.123-1.56.687-1.498 1.56-.81c1.622 0 3.43-.188 5.366 0 .686.81 1.497 1.622 2.183 3.12 0 1.56.314 2.557.314 4.492l-2.184 1.62zM39.747 37.75l-1.622-1.123.437-.81c.374-.75 1.185-.188 1.934-1 2.496 0 5.24-.436 8.174.812 1.248 0 2.37-.812 3.87-1.623 20.777-1.123 41.555-5.304 62.895-4.056 1.56 0 2.62-1.247 4.555-1.622l1.435.81v1.374c-2.62 1.56-5.99-.374-9.048 1.248-6.49 0-12.853.312-19.654 1.498l-.812.437c-4.554.312-8.61.686-13.602 0l-.81.312c-4.867 1.06-10.546.81-15.85 1.622l-.81.186h-.812l-.56.375c-6.49.812-12.918 0-19.72 1.56zM253.583 36.19c-1.81-1.81-4.057-3.743-6.99-5.678-.498-.374-.498-1.123 0-2.184.313 0 1.124-.312 2.123-1.123h3.868l2.246 1.123c0 .375.374 1.06 1.186 2.184 0 1.248.312 2.372.312 3.87l-.81 1.434-1.935.375zM331.205 32.447c-2.246-2.496-4.18-6.365-7.55-8.61 0-.375 0-1.187.436-2.31l.813-.436c1.935-.312 3.744 0 5.99-.312l1.623.75.56 1.497c.437 2.246 0 4.99.75 7.487l-.75 1.56-1.87.375zM164.23 27.58l-.812-.375v-1.56c.375 0 1.124-.374 2.31-1.123h.748l.81-.25c8.612-.81 17.347-2.745 26.458-1.933l.31.685c-.747.437-.747 1.248-2.245 1.81-9.11.436-17.722 1.56-27.268 2.745h-.312zM441.086 24.834l-.75-1.372v-1.56c.19-.375.19-1.498 1.312-1.935l.81.437.44 1.497c-.44.75 0 2.373-1.562 2.934h-.25zM200.233 23.836l-1.623-.374.375-.812c.75-.75.75-.75 1.872-1.56 4.243 0 9.11-1.497 13.665-.686l1.435-.81c1.872 0 3.68.373 6.052.373l-1.124 1.56-1.497.812h-2.247c-.5 0-1.872-1.936-3.12-1.562-.562.75-1.31 1.56-2.933 2.247l-1.435.437c-.81 0-1.872-.812-3.12-1.123h-2.246c-1.124.685-2.185.685-3.745 1.496h-.312zM240.417 20.778l-1.436-.81v-.812l1.437-.562c19.343-2.37 38.624-3.182 58.216-5.428 17.41 0 34.444-2.995 52.226-3.432l1.623-.686c2.246 0 4.866 0 7.612-1.81 1.123 0 2.12-.56 3.744-.56l1.87 1.933-.312.812-.81.312c-1.935.437-3.745 0-6.115 1.248-6.802.687-14.102 1.934-21.09 1.123l-2.372 1.06h-6.05l-.813.313c-15.1 2.37-30.512 1.248-46.174 3.494-2.184.81-4.867 0-7.487.375l-.687.436c-10.983 1.06-22.027 1.373-33.383 2.995zM440.525 12.916l-.687-1.56c0-1.934.5-3.868-.686-6.052 0-.437-1.248-.81-2.37-1.56-1.936 0-4.556 0-6.802.312l-1-.686c.188-.812 2.123-1.56 3.745-2.37 2.12 0 4.867-.688 7.612-1l.75.312c.56.437.25 1.248 1.06 1.81v.81c.312.812 0 1.935 1.124 3.058 0 1.81.312 4.992-1.622 6.926h-1.123zM370.64 9.048v-.81c.75-.75 2.932-1 4.493-2.248h2.995l2.37 1.498-.435.75c-2.996.81-5.68.81-8.986.81h-.437zM386.49 7.8l-.75-.312V5.99l1.56-.686c.81 0 1.935.374 2.933.374l.81-.374c3.433-.437 6.802-1.248 10.546-1.56v1.56c-1 .686-2.123.374-3.745 1.373-3.37.56-7.612.81-11.356 1.123zM422.492 4.493l.312-1.56c.812 0 2.31-1.123 3.12.437-.5.686-1.248.374-1.872 1.123h-1.56z"/></g></svg>