<svg xmlns="http://www.w3.org/2000/svg" width="386.274" height="279.482"><path d="M100.132 161.77c-4.63-1.266-8.452-1.813-12.528-1.813-8.772 0-15.028 2.754-19.19 8.402-2.6 3.495-4.074 7.882-4.074 12.103 0 8.768 5.95 14.206 15.413 14.206 4.018 0 8.322-.957 12.535-2.856 2.366-1.065 3.605-1.717 6.982-3.815l-1.877 12.527c-6.51 2.9-12.445 4.225-18.79 4.225-15.534 0-25.925-9.79-25.925-24.434 0-17.94 14.166-30.39 34.516-30.39 5.025 0 9.482.642 14.822 1.968l-1.884 9.873z" fill="#231f20"/><path d="M131.077 159.872c-10.427 0-18.898 8.87-18.898 19.67 0 9.096 6.28 15.422 15.277 15.422 10.576 0 18.967-8.677 18.967-19.81 0-8.852-6.53-15.282-15.347-15.282m17.528 37.287c-5.547 5.093-12.688 7.593-21.148 7.593-16.136 0-26.99-9.938-26.99-24.835 0-17.297 13.28-29.992 31.396-29.992 15.58 0 26.288 9.946 26.288 24.376 0 8.76-3.596 17.445-9.545 22.857M188.47 161.525c-1.96-1.95-3.763-2.337-9.63-2.337h-3.053l-2.127 14.956h4.25c4.84 0 7.192-.475 9.304-1.888 2.123-1.405 3.2-3.387 3.2-5.952 0-1.975-.693-3.53-1.943-4.78m2.972 42.535l-5.16-10.816c-3.3-6.96-5.017-9.474-7.136-10.256-1.084-.384-2.12-.544-4.16-.544h-2.496l-3.054 21.615H157.93l7.76-53.415h17.907c2.03 0 4.005.218 5.896.55 2.24.472 4.286 1.323 6.09 2.57 4.072 2.83 6.348 7.44 6.348 12.706 0 4.776-1.862 8.913-5.325 11.493-1.942 1.5-3.21 1.956-6.576 2.75 3.126 1.412 3.75 2.275 7.455 9.945l6.395 13.4h-12.438zM235.93 161.525c-1.967-1.95-3.77-2.337-9.64-2.337h-3.055l-2.134 14.956h4.23c4.865 0 7.22-.475 9.34-1.888 2.11-1.405 3.227-3.387 3.227-5.952 0-1.975-.728-3.53-1.967-4.78m2.964 42.535l-5.156-10.816c-3.326-6.96-5.01-9.474-7.144-10.256-1.102-.384-2.116-.544-4.127-.544h-2.536l-3.046 21.615H205.36l7.77-53.415h17.943c2.028 0 3.99.218 5.882.55 2.243.472 4.312 1.323 6.083 2.57 4.073 2.83 6.348 7.44 6.348 12.706 0 4.776-1.88 8.913-5.322 11.493-1.946 1.5-3.228 1.956-6.576 2.75 3.12 1.412 3.78 2.275 7.434 9.945l6.428 13.4h-12.456zM292.523 159.644H270.6l-1.8 12.616h19.292l-1.286 8.836h-19.252l-2.037 14.094h27.73l-1.27 8.87h-39.053l7.518-53.415h33.367l-1.287 9z" fill="#231f20"/><path d="M321.188 159.872c-10.408 0-18.872 8.87-18.872 19.67 0 9.096 6.272 15.422 15.293 15.422 10.556 0 18.944-8.677 18.944-19.81 0-8.852-6.496-15.282-15.366-15.282m17.532 37.287c-5.543 5.093-12.677 7.593-21.11 7.593-16.15 0-27.05-9.938-27.05-24.835 0-17.297 13.354-29.992 31.415-29.992 15.593 0 26.34 9.946 26.34 24.376 0 8.76-3.635 17.445-9.595 22.857M384.684 163.55c-5.304-3.044-9.235-4.283-13.195-4.283-4.403 0-7.627 2.417-7.627 5.696 0 2.916.8 3.605 8.46 8.155 8.14 4.844 11.3 9.152 11.3 15.434 0 4.695-1.888 8.992-5.24 11.978-3.38 2.963-7.452 4.224-13.412 4.224-5.002 0-8.828-.79-13.223-2.74-2.043-.87-2.74-1.238-4.384-2.35l1.725-9.31c1.844 1.332 2.547 1.698 5.17 2.817 4.06 1.79 7.04 2.577 10.072 2.577 4.713 0 7.768-2.35 7.768-5.94 0-2.204-1.334-4.407-3.844-6.037-1.167-.783-2.98-1.9-5.468-3.453-7.62-4.627-10.564-8.616-10.564-14.325 0-9.228 7.978-16.065 18.778-16.065 4.376 0 10.028 1.337 13.684 3.384.42.15.89.454 1.59.838l-1.59 9.402z" fill="#231f20"/><path d="M84.255 215.34c-1.862-.843-3.315-1.104-6.535-1.104h-2.062L72.82 233.1h5.443c2.467 0 3.888-.224 5.442-.934 3.35-1.576 5.322-4.935 5.322-9.054 0-3.543-1.663-6.217-4.772-7.77m7.656 18.117c-2.546 2.702-6.013 4.21-9.84 4.38-.753 0-1.985 0-3.738.04l-2.63.06-10.138-.06 4.33-28.48h7.192c6.253 0 8.65.318 11.37 1.655 4.647 2.22 7.335 6.652 7.335 12.162 0 4.014-1.35 7.565-3.88 10.242M120.022 214.197h-12.51l-1.044 6.717h11.007l-.754 4.717H105.76l-1.17 7.534h15.818l-.706 4.717H97.393l4.308-28.483h19.014l-.692 4.8zM162.133 237.88h-6.06l-12.515-19.22-3.06 19.22h-6.487l4.498-28.48h6.503l12.192 18.568 2.975-18.567h6.445l-4.49 28.48zM172.937 237.88h-6.554l4.413-28.48h6.467l-4.326 28.48zM204.98 215.31c-2.673-.646-4.85-.95-7.19-.95-4.99 0-8.57 1.485-10.956 4.474-1.493 1.88-2.305 4.214-2.305 6.453 0 4.695 3.387 7.59 8.8 7.59 2.286 0 4.742-.504 7.155-1.522 1.34-.572 2.054-.902 3.978-2.04L203.39 236c-3.724 1.53-7.115 2.257-10.734 2.257-8.855 0-14.796-5.232-14.796-13.036 0-9.592 8.09-16.204 19.72-16.204 2.836 0 5.412.35 8.437 1.043l-1.036 5.25zM222.142 216.194l-5.363 11.427h7.082l-1.72-11.426zm3.188 21.683l-.94-6.22h-9.49l-2.92 6.22h-7.167l14.937-28.86h6.873l5.38 28.86h-6.673zM250.556 215.186c-1.138-1.03-2.152-1.24-5.5-1.24H243.3l-1.182 7.964h2.41c2.79 0 4.09-.232 5.307-.996 1.2-.765 1.83-1.794 1.83-3.156 0-1.08-.385-1.88-1.11-2.572m1.71 22.698l-2.956-5.78c-1.892-3.723-2.877-5.02-4.077-5.462-.608-.185-1.22-.287-2.373-.287h-1.413l-1.77 11.53h-6.53l4.402-28.485h10.23c1.156 0 2.28.134 3.337.286 1.3.24 2.486.7 3.51 1.37 2.312 1.517 3.638 3.963 3.638 6.767 0 2.558-1.12 4.772-3.047 6.152-1.14.775-1.844 1.025-3.775 1.47 1.772.733 2.16 1.197 4.268 5.294l3.657 7.144h-7.1z" fill="#82898f"/><path d="M276.252 216.194l-5.304 11.427h7.057l-1.753-11.426zm3.217 21.683l-.936-6.22h-9.456l-2.978 6.22h-7.152l14.938-28.86h6.905l5.35 28.86h-6.67zM316.805 215.31c-3.34-.813-5.445-1.11-8.2-1.11-8.872 0-15.248 4.46-15.248 10.695 0 4.85 4.03 8.018 10.133 8.018 1.522 0 2.225-.072 4.163-.482l.765-5.03h-5.587l.66-4.505h12.156l-2.25 14.554c-2.848.517-6.018.807-8.873.807-3.09 0-6-.315-8.297-.967-1.74-.51-3.358-1.32-4.858-2.453-3.076-2.406-4.696-5.623-4.696-9.442 0-9.767 8.99-16.38 22.032-16.38 3.326 0 5.786.29 8.916 1.044l-.815 5.25zM346.152 223.873c-.743 4.8-.866 5.478-1.638 7.243-.61 1.547-1.68 2.956-3.108 4.137-2.497 2.033-5.68 3-9.982 3-5.13 0-8.307-1.04-10.818-3.587-1.775-1.79-2.648-3.884-2.648-6.445 0-.945.09-2.043.322-3.22l.37-2.438 2.007-13.163h6.568l-2.065 13.5c-.105.948-.268 1.644-.348 2.1-.155 1.13-.27 2.083-.27 2.757 0 3.17 2.72 5.3 6.87 5.3 1.9 0 3.853-.568 5.11-1.583 1.482-1.155 2.26-2.8 2.713-5.492l.435-2.873 2.033-13.71h6.637l-2.188 14.473zM362.786 216.194l-5.326 11.427h7.047l-1.72-11.426zm3.192 21.683l-.91-6.22h-9.503l-2.95 6.22h-7.15l14.96-28.86h6.864l5.358 28.86h-6.67z" fill="#82898f"/><g><path d="M184.805 20.618c2.768-10.23-4.243-19.053-15.695-19.723-11.452-.66-22.966 7.076-25.73 17.314-2.79 10.227 4.253 19.063 15.698 19.73 11.44.66 22.973-7.094 25.727-17.322" fill="#2c4ea3"/></g><g><path d="M184.805 20.618l-.826-.224c.39-1.438.575-2.84.575-4.188-.018-7.757-6.083-13.876-15.496-14.456-.44-.025-.878-.04-1.32-.04-10.608-.022-21.035 7.34-23.535 16.724-.395 1.442-.58 2.847-.58 4.2.015 7.748 6.102 13.875 15.503 14.45.44.026.877.04 1.312.04 10.6.023 21.05-7.357 23.54-16.727l.825.22.826.222c-2.796 10.27-13.828 17.973-25.19 17.995-.467 0-.942-.015-1.413-.04-10.104-.558-17.126-7.434-17.11-16.162 0-1.507.205-3.065.636-4.648C145.36 7.705 156.375.022 167.74 0c.475 0 .946.014 1.42.04 10.116.56 17.12 7.434 17.105 16.166 0 1.503-.207 3.057-.634 4.637l-.825-.225z" fill="#fff"/></g><g><path d="M157.303 38.34S67.91 73.136 29.035 173.235c0 0 20.546-76.387 47.972-101.91 0 0-39.056 8.35-76.634 33.81 0 0 75.3-65.47 156.93-66.795" fill="#4993d4"/></g><g><path d="M157.303 38.34l.207.53c-.004.003-1.377.536-3.888 1.68-17.58 7.996-90.133 45.516-124.058 132.892l-1.08-.355c.004-.01 5.145-19.122 13.72-41.44 8.587-22.32 20.564-47.834 34.415-60.74l.387.417.12.558c-.008 0-2.42.515-6.656 1.692-12.71 3.532-41.674 12.988-69.778 32.03L0 104.707c.047-.025 75.373-65.58 157.292-66.934l.218 1.097-.207-.53.01.57C116.65 39.564 77.49 56.22 48.51 72.73 34.02 80.983 22.07 89.193 13.753 95.34c-4.16 3.077-7.416 5.63-9.626 7.42-2.214 1.787-3.377 2.8-3.38 2.8l-.374-.426-.32-.47c37.684-25.53 76.794-33.887 76.834-33.898l2.015-.43-1.508 1.405C63.82 84.36 51.81 109.8 43.266 132.057c-4.275 11.127-7.7 21.463-10.05 29.013-2.352 7.553-3.627 12.3-3.63 12.314l-.55-.15-.53-.205c38.98-100.344 128.53-135.19 128.59-135.22l.207.53.01.57-.01-.57z" fill="#fff"/></g><g><path d="M307.165 24.15l-38.9 64.53-72.163-13.414 27.17 59.182L334.39 83.44l-27.227-59.29zm-2.268-4.953l-.497-1.062-111.08 51.02.48 1.09c23.844 4.45 70.037 13.028 72.244 13.456 1.185-1.98 26.556-44.113 38.853-64.503" fill="#99cfed"/></g><g><path d="M307.165 24.15l2.326 1.402-39.87 66.14-68.863-12.795 23.85 51.95 106.18-48.744-26.093-56.82 2.47-1.134 2.327 1.402-2.325-1.403 2.47-1.135 28.358 61.762-116.06 53.272-30.487-66.414 75.464 14.028 40.58-67.32 2.146 4.67-2.47 1.135zm-2.268-4.953l-2.46 1.152-.497-1.063 2.46-1.152 1.134 2.47-111.08 51.02-1.135-2.47 2.485-1.098.482 1.09-2.486 1.098.5-2.67c23.85 4.45 70.012 13.024 72.262 13.46l-.518 2.666-2.333-1.394c1.196-1.996 26.56-44.117 38.86-64.51l2.327 1.4-2.46 1.153 2.46-1.153 2.326 1.402c-12.293 20.386-37.672 62.528-38.846 64.495l-.978 1.634-1.874-.363c-2.163-.42-48.39-9.003-72.225-13.452l-1.404-.26-1.062-2.403-1.083-2.45 115.97-53.26 2.253 4.818-.75 1.24-2.326-1.403z" fill="#fff"/></g><g><path d="M307.165 24.15l-38.9 64.53-72.163-13.414 27.17 59.182L334.39 83.44l-27.227-59.29zm-2.268-4.953l-.497-1.062-111.08 51.02.48 1.09c23.844 4.45 70.037 13.028 72.244 13.456 1.185-1.98 26.556-44.113 38.853-64.503" fill="#99cfed"/></g><g><path d="M307.165 24.15l.123.072-38.95 64.616-71.99-13.38 26.992 58.802 110.863-50.89-27.17-59.163.132-.058.123.072-.123-.073.13-.06 27.285 59.42-111.378 51.126-27.346-59.562 72.336 13.445 38.99-64.675.113.246-.13.06zm-2.268-4.953l-.13.06-.435-.933-110.824 50.903.424.96-.13.058.025-.14c23.843 4.448 70.036 13.027 72.242 13.454l-.026.14-.123-.072c1.185-1.982 26.557-44.113 38.854-64.504l.123.073-.13.06.13-.06.123.072c-12.296 20.39-37.668 62.525-38.853 64.503l-.054.087-.098-.018c-2.203-.428-48.396-9.007-72.24-13.456l-.075-.014-.51-1.16-.06-.13 111.34-51.135.557 1.188.033.07-.04.064-.123-.073z" fill="#99cfed"/></g><g><path d="M333.862 37.304c-.714 1.7-1.36 3.192-3.692 4.49-2.36 1.32-3.99 1.068-5.873.8-2.036-.297-4.36-.65-7.482 1.08-3.137 1.75-4.075 3.894-4.872 5.767-.78 1.722-1.424 3.24-3.79 4.537-2.384 1.337-4.014 1.087-5.895.82-2.03-.313-4.362-.646-7.514 1.097-3.126 1.742-4.05 3.858-4.887 5.764-.765 1.74-1.4 3.232-3.765 4.543-2.358 1.313-3.996 1.074-5.876.79-2.018-.303-4.34-.64-7.467 1.092l1.234 2.206c2.366-1.293 4.004-1.05 5.87-.783 2.043.316 4.344.667 7.47-1.072 3.127-1.72 4.062-3.862 4.884-5.757.768-1.746 1.402-3.243 3.782-4.55 2.388-1.337 4.033-1.084 5.902-.826 2.04.297 4.348.644 7.493-1.095 3.144-1.72 4.054-3.855 4.873-5.753.757-1.728 1.416-3.235 3.768-4.543 2.39-1.33 4.017-1.092 5.916-.81 2.032.316 4.337.66 7.467-1.082 3.075-1.7 4.002-3.86 4.817-5.732.725-1.725 1.363-3.2 3.67-4.492l-1.202-2.23c-3.12 1.726-4.018 3.86-4.833 5.74" fill="#246ebc"/></g><g><path d="M334.224 49.104c-2.355 1.326-4 1.09-5.87.815-2.036-.312-4.362-.65-7.48 1.083-3.142 1.74-4.06 3.858-4.874 5.75-.768 1.746-1.41 3.257-3.782 4.55-2.392 1.322-4.033 1.087-5.902.808-2.036-.307-4.355-.64-7.514 1.102-3.127 1.728-4.062 3.884-4.873 5.764-.762 1.74-1.41 3.232-3.78 4.536-2.398 1.33-3.978 1.087-5.858.816-2.03-.32-4.36-.66-7.482 1.072l1.232 2.225c2.387-1.294 3.996-1.062 5.858-.776 2.055.296 4.348.633 7.467-1.106 3.134-1.732 4.058-3.862 4.913-5.742.743-1.747 1.388-3.246 3.772-4.55 2.387-1.323 4.003-1.09 5.88-.812 2.05.286 4.365.637 7.503-1.094 3.13-1.743 4.06-3.88 4.88-5.765.76-1.74 1.4-3.252 3.764-4.553 2.387-1.315 4.028-1.083 5.91-.797 2.035.312 4.346.645 7.466-1.087 3.104-1.72 4.01-3.847 4.825-5.724.722-1.726 1.36-3.222 3.682-4.504l-1.24-2.22c-3.086 1.716-3.995 3.84-4.796 5.712-.728 1.714-1.365 3.225-3.702 4.496" fill="#246ebc"/></g><g><path d="M338.3 56.425c-2.383 1.326-3.995 1.09-5.883.826-2.054-.3-4.373-.665-7.492 1.08-3.134 1.74-4.054 3.87-4.877 5.77-.768 1.727-1.41 3.238-3.77 4.524-2.4 1.322-4.037 1.087-5.91.797-2.026-.285-4.363-.622-7.522 1.12-3.108 1.74-4.043 3.877-4.873 5.754-.746 1.742-1.39 3.246-3.764 4.565-2.385 1.31-4.008 1.06-5.88.778-2.026-.294-4.33-.642-7.486 1.1l1.257 2.215c2.378-1.315 3.99-1.084 5.845-.805 2.047.298 4.362.67 7.478-1.076 3.123-1.728 4.072-3.87 4.876-5.757.764-1.74 1.423-3.23 3.793-4.546 2.39-1.327 4.014-1.088 5.898-.79 2.037.274 4.356.633 7.508-1.124 3.123-1.72 4.043-3.862 4.88-5.746.742-1.76 1.402-3.236 3.768-4.555 2.376-1.318 4.01-1.072 5.887-.804 2.043.32 4.355.66 7.485-1.086 3.083-1.713 4.01-3.847 4.804-5.73.72-1.71 1.373-3.19 3.696-4.49l-1.22-2.22c-3.11 1.71-4.016 3.847-4.823 5.705-.725 1.72-1.348 3.224-3.674 4.495" fill="#246ebc"/></g><g><path d="M342.334 63.746c-2.37 1.333-3.985 1.094-5.87.826-2.028-.3-4.36-.66-7.5 1.08-3.122 1.74-4.042 3.87-4.88 5.757-.735 1.73-1.408 3.24-3.767 4.542-2.377 1.315-4.003 1.098-5.89.82-2.052-.317-4.37-.654-7.508 1.09-3.127 1.73-4.073 3.872-4.885 5.763-.753 1.74-1.39 3.243-3.778 4.554-2.37 1.31-3.978 1.072-5.848.786-2.062-.312-4.363-.656-7.504 1.086l1.264 2.22c2.38-1.3 3.982-1.067 5.86-.792 2.02.308 4.325.66 7.47-1.08 3.093-1.728 4.053-3.858 4.88-5.75.753-1.753 1.405-3.238 3.775-4.56 2.394-1.3 4.003-1.095 5.89-.8 2.058.288 4.366.633 7.493-1.106 3.137-1.73 4.08-3.87 4.898-5.757.747-1.732 1.402-3.218 3.765-4.536 2.395-1.322 4-1.08 5.892-.822 2.043.323 4.347.65 7.496-1.09 3.075-1.696 3.985-3.815 4.793-5.717.743-1.713 1.377-3.195 3.693-4.496l-1.23-2.224c-3.096 1.714-4.01 3.837-4.828 5.735-.707 1.703-1.333 3.206-3.68 4.47" fill="#246ebc"/></g><g><path d="M32.552 200.608s14.343-182.48 256.75-182.342c0 0-107.682 13.77-133.768 62.258 0 0-20.92 36.708-22.006 127.145 0 0-6.565-102.33-26.62-97.423 0 0-30.804 7.3-74.356 90.36" fill="#2c4ea3"/></g><g><path d="M32.552 200.608l-.57-.044c.008-.06 3.602-45.747 37.546-91.466 33.944-45.726 98.288-91.412 219.5-91.4h.275l.072 1.133c-.003 0-1.674.215-4.663.686-10.463 1.645-37 6.427-63.743 16.086-26.75 9.648-53.668 24.21-64.936 45.19l-.003.007-.003.006s-.315.55-.884 1.72c-3.978 8.186-20.097 46.093-21.046 125.15l-1.137.03c0-.015-.392-6.09-1.272-15.232-1.326-13.71-3.757-34.28-7.627-51.392-1.933-8.554-4.23-16.245-6.904-21.752-1.337-2.75-2.764-4.953-4.257-6.44-1.5-1.488-3.02-2.245-4.606-2.245-.41 0-.826.05-1.253.156l.004-.003-.007.004-.32.092c-3.343 1.043-32.87 12.184-73.662 89.98l-1.072-.308.57.044-.505-.265c43.59-83.137 74.507-90.596 74.728-90.65h-.003c.51-.124 1.018-.185 1.52-.185 2.635.003 4.954 1.688 6.986 4.423 7.1 9.577 11.716 32.91 14.676 53.966 2.942 21.04 4.138 39.73 4.14 39.737l-.568.036-.568-.008c1.086-90.52 22.03-127.334 22.082-127.42l.492.282-.5-.268c13.21-24.503 46.766-40.053 76.996-49.585 30.234-9.52 57.18-12.965 57.2-12.97l.073.566v.57h-.276c-120.928.01-184.823 45.493-218.586 90.94-16.875 22.727-26.208 45.457-31.32 62.504-2.558 8.525-4.057 15.622-4.92 20.59-.43 2.484-.7 4.434-.862 5.76-.163 1.326-.217 2.02-.22 2.02l-.566-.042-.504-.265.504.265z" fill="#fff"/></g><g><path d="M96.9 257.787c0 .655-.24 1.203-.74 1.677-.488.457-1.06.703-1.74.703-.672 0-1.244-.246-1.71-.703-.5-.474-.75-1.022-.75-1.677 0-.645.25-1.19.75-1.638.466-.483 1.038-.707 1.71-.707.68 0 1.252.224 1.74.706.5.448.74.992.74 1.637m-2.797 3.884c-.12 1.99-.145 3.696-.145 5.116v3.01c0 .42-.02.83-.04 1.19-.025.358-.05.666-.14.876-.175.76-.555 1.348-1.12 1.728-.573.4-1.207.59-1.888.59-.576 0-1.072-.16-1.453-.51-.387-.352-.587-.79-.587-1.297 0-.32.062-.678.2-1.03.094-.336.304-.836.612-1.477.32-.714.837-1.84 1.533-3.39.717-1.545 1.38-3.143 2.025-4.805h1.003zM104.504 274.31c-1.004 0-2.025-.13-3.047-.378-1.025-.246-1.935-.565-2.703-1.003l-1.1.89h-1.088l1.355-6.532h1.124c.098.652.283 1.308.562 2.003.28.68.626 1.295 1.054 1.834.45.533.978 1.008 1.648 1.373.642.36 1.41.544 2.25.544 1.25 0 2.243-.303 2.975-.887.74-.612 1.123-1.395 1.123-2.387 0-.63-.207-1.178-.623-1.65-.442-.47-1.112-.88-2.054-1.223-.585-.214-1.186-.42-1.76-.613-.55-.2-1.093-.394-1.582-.623-1.003-.402-1.77-.996-2.286-1.775-.49-.76-.746-1.565-.746-2.427 0-.805.206-1.573.57-2.32.375-.727.897-1.387 1.59-1.956.67-.58 1.517-1.03 2.503-1.366.988-.36 2.078-.518 3.285-.518.985 0 1.98.148 2.952.416.953.294 1.678.576 2.145.83l.986-.765h1.09l-1.33 6.15h-1.112c-.105-.726-.268-1.404-.482-2.045-.188-.623-.49-1.195-.862-1.713-.344-.487-.804-.878-1.34-1.168-.54-.29-1.185-.442-1.935-.442-1.025 0-1.9.29-2.587.862-.696.58-1.054 1.312-1.054 2.185 0 .627.195 1.145.634 1.612.42.452 1.09.843 1.982 1.177.543.202 1.09.394 1.677.608.575.214 1.137.428 1.684.65.967.408 1.768.952 2.326 1.662.58.7.866 1.53.866 2.478 0 .898-.218 1.76-.627 2.56-.432.798-1.012 1.487-1.773 2.056-.793.613-1.735 1.09-2.78 1.403-1.06.33-2.25.496-3.513.496M123.7 256.47c0 .654-.217 1.197-.706 1.657-.507.446-1.11.674-1.8.674-.693 0-1.294-.227-1.787-.673-.49-.46-.74-1.003-.74-1.656 0-.633.25-1.172.74-1.636.493-.468 1.094-.692 1.786-.692s1.294.224 1.8.692c.49.464.707 1.003.707 1.637m-.257 15.544l-.29 1.134c-.84.33-1.51.587-2.025.754-.49.17-1.083.253-1.764.253-1.022 0-1.805-.253-2.392-.74-.565-.484-.862-1.11-.862-1.89l.087-.9c.036-.317.105-.665.192-1.046l1.075-3.72c.094-.353.167-.697.22-1l.103-.885c0-.47-.102-.79-.3-1-.19-.18-.592-.268-1.146-.268l-.84.12-.73.238.266-1.14c.692-.273 1.37-.512 2.01-.707.616-.207 1.218-.308 1.787-.308 1.01 0 1.804.242 2.355.742.543.49.826 1.116.826 1.895 0 .167-.026.442-.073.855-.043.42-.105.783-.21 1.13l-1.06 3.68c-.085.302-.146.654-.212 1.038-.082.376-.1.66-.1.858 0 .486.1.83.312.997.246.177.626.264 1.177.264l.883-.128c.333-.08.562-.166.71-.228M133.847 264.187c0-.725-.16-1.28-.417-1.652-.268-.395-.656-.598-1.11-.598-.647 0-1.28.536-1.875 1.605-.584 1.058-.95 2.41-1.102 4.036.49-.058.993-.138 1.482-.232.504-.094.895-.21 1.185-.344.648-.264 1.094-.62 1.398-1.07.268-.426.44-1.017.44-1.745m-2.922 10.032c-1.025 0-1.945-.15-2.702-.42-.79-.27-1.43-.65-1.92-1.14-.51-.495-.874-1.068-1.116-1.713-.247-.648-.363-1.37-.363-2.17 0-.985.18-1.956.54-2.89.395-.936.938-1.79 1.68-2.544.722-.718 1.61-1.3 2.668-1.747 1.1-.456 2.293-.684 3.586-.684 1.514 0 2.7.242 3.492.724.797.486 1.206 1.22 1.206 2.167 0 .927-.34 1.732-1.054 2.387-.695.67-1.63 1.156-2.81 1.482-.94.272-1.74.475-2.414.587-.67.12-1.478.227-2.43.332.013.377.068.794.15 1.258.084.467.236.87.392 1.203.207.365.504.684.86.89.38.222.858.338 1.44.338 1.012 0 1.88-.188 2.58-.56.707-.407 1.384-1.008 2.015-1.852l.938.775c-.768 1.094-1.75 1.964-2.953 2.61-1.195.65-2.467.966-3.786.966M164.536 271.902l-.29 1.12c-.847.333-1.507.587-2.032.76-.486.178-1.09.25-1.754.25-1.007 0-1.804-.25-2.358-.742-.576-.518-.866-1.13-.866-1.884 0-.196.03-.453.043-.783.014-.308.09-.7.202-1.184l.917-3.374c.09-.37.17-.7.223-.98l.073-.723c0-.402-.127-.725-.297-.96-.22-.22-.566-.337-1.005-.337-.344 0-.742.152-1.232.434-.514.287-1.028.663-1.52 1.145l-2.124 9.174h-4.273l1.797-7.736c.113-.424.163-.768.207-1.037l.073-.684c0-.402-.087-.725-.315-.96-.192-.22-.543-.337-1.004-.337-.253 0-.634.116-1.105.3-.457.23-1.055.645-1.758 1.28l-2.108 9.173h-4.254l1.815-7.802c.044-.246.105-.56.196-.956.07-.384.113-.7.113-.924 0-.5-.076-.833-.282-1.018-.17-.174-.554-.264-1.115-.264l-.837.12-.746.242.29-1.138c.684-.28 1.365-.518 1.974-.71.66-.217 1.24-.315 1.83-.315 1.036 0 1.775.22 2.23.648.5.413.817.935 1 1.602h.085c.863-.772 1.696-1.362 2.48-1.768.803-.413 1.712-.623 2.752-.623.873 0 1.612.24 2.163.706.576.47.888 1.044.935 1.728h.098c.924-.782 1.768-1.37 2.55-1.793.794-.43 1.696-.64 2.703-.64.943 0 1.704.263 2.244.788.536.51.822 1.134.822 1.874 0 .192-.025.48-.06.826-.034.35-.092.72-.215 1.126l-.98 3.564c-.092.3-.16.645-.23 1.022-.08.39-.097.68-.097.87 0 .492.123.818.322 1.007.22.17.584.264 1.15.264l.865-.127c.34-.1.572-.184.706-.228" fill="#2c4ea3"/><path d="M175.79 270.794c.36-.74.634-1.507.826-2.322.178-.82.276-1.724.276-2.74 0-.42-.022-.792-.098-1.144-.054-.35-.16-.652-.315-.91l-.603-.604c-.268-.152-.583-.218-.97-.218-.443 0-.877.127-1.305.417-.43.28-.74.54-.938.793l-1.616 6.986c0 .558.163 1.054.51 1.445.338.388.83.562 1.454.562.532 0 1.04-.193 1.52-.606.48-.4.9-.95 1.258-1.66m5.696-5.007c0 1.142-.196 2.23-.602 3.257-.416 1.02-.96 1.917-1.655 2.678-.708.775-1.556 1.373-2.447 1.804-.906.43-1.898.627-2.985.627-.815 0-1.475-.083-1.986-.225-.492-.166-.91-.387-1.282-.677l-.805 3.414-.068.337-.044.312.13.544.37.347c.207.095.504.17.92.258.42.084.78.12 1.04.146l-.192.876h-9.306l.206-.876c.2-.026.482-.062.83-.098.34-.047.58-.102.753-.152l.678-.435c.146-.19.27-.46.338-.807l2.56-11.097c.074-.24.132-.558.21-.95.088-.376.114-.695.114-.93 0-.457-.09-.783-.28-.993-.188-.2-.568-.287-1.122-.287l-.848.12-.76.243.278-1.143c.707-.27 1.362-.518 2.025-.71.638-.21 1.23-.315 1.815-.315.47 0 .9.076 1.247.156.38.094.703.22.978.42l.576.58.403.7h.09c.772-.678 1.526-1.19 2.28-1.504.71-.32 1.434-.493 2.115-.493 1.464 0 2.573.436 3.323 1.302.733.876 1.106 2.072 1.106 3.575M196.573 263.553c0 .384-.058.75-.167 1.11-.116.347-.293.655-.492.912l-.805.63c-.283.15-.664.214-1.156.214-.65 0-1.153-.153-1.515-.472-.37-.315-.56-.663-.56-1.05 0-.363.045-.67.168-.935.094-.272.268-.667.514-1.192-.576.236-1.06.526-1.48.87-.41.344-.817.754-1.197 1.192l-2.007 8.99h-4.26l1.774-7.805c.044-.243.11-.558.192-.928.084-.403.116-.72.116-.953 0-.497-.105-.84-.282-1.015-.18-.18-.555-.268-1.105-.268l-.837.12-.703.246.246-1.14c.7-.277 1.365-.52 2.01-.71.605-.215 1.217-.313 1.768-.313 1.004 0 1.768.203 2.257.61.5.39.83.937.986 1.65h.106c.85-.89 1.576-1.514 2.155-1.865.596-.36 1.23-.54 1.91-.54.744 0 1.31.243 1.714.685.435.46.65 1.112.65 1.956M206.328 264.187c0-.725-.137-1.28-.416-1.652-.25-.395-.63-.598-1.09-.598-.668 0-1.28.536-1.878 1.605-.587 1.058-.963 2.41-1.12 4.036.5-.058 1.004-.138 1.497-.232.512-.094.88-.21 1.18-.344.647-.264 1.114-.62 1.4-1.07.272-.426.428-1.017.428-1.745m-2.913 10.032c-1.03 0-1.934-.15-2.706-.42-.773-.27-1.4-.65-1.903-1.14-.515-.495-.87-1.068-1.13-1.713-.258-.648-.38-1.37-.38-2.17 0-.985.202-1.956.58-2.89.383-.936.93-1.79 1.676-2.544.714-.718 1.602-1.3 2.663-1.747 1.09-.456 2.275-.684 3.587-.684 1.518 0 2.688.242 3.485.724.815.486 1.207 1.22 1.207 2.167 0 .927-.348 1.732-1.03 2.387-.706.67-1.65 1.156-2.843 1.482-.928.272-1.73.475-2.42.587-.65.12-1.468.227-2.413.332.006.377.07.794.15 1.258.095.467.204.87.385 1.203.203.365.492.684.884.89.36.222.825.338 1.426.338 1.004 0 1.86-.188 2.57-.56.71-.407 1.376-1.008 2.01-1.852l.93.775c-.75 1.094-1.738 1.964-2.94 2.61-1.2.65-2.48.966-3.79.966M230.845 264.163l-.076-.645-.265-.656-.606-.503c-.243-.114-.555-.175-.91-.175-.572 0-1.11.195-1.565.608-.478.406-.888.94-1.264 1.61-.347.662-.637 1.42-.836 2.307-.214.877-.32 1.77-.32 2.684 0 .42.033.812.106 1.15.06.365.177.673.308.923l.616.608c.28.124.6.203.974.203.417 0 .794-.112 1.174-.34.366-.243.714-.518 1.026-.87l1.637-6.905zm-1.532 8.068h-.084l-.86.697c-.268.206-.615.43-1.01.64-.352.193-.743.338-1.145.47-.4.114-.82.18-1.312.18-1.48 0-2.605-.435-3.355-1.29-.757-.873-1.134-2.07-1.134-3.572 0-1.174.207-2.258.645-3.26.398-1.03.963-1.932 1.67-2.7.713-.772 1.52-1.36 2.485-1.797.946-.46 1.924-.69 2.99-.69.785 0 1.452.103 2.035.273.544.186 1.03.425 1.406.733l3.942-.8.17.188-1.9 7.837c-.046.25-.133.584-.205.964-.07.407-.12.71-.12.918 0 .47.12.81.326.996.25.185.623.264 1.177.264.243 0 .543-.036.884-.126.327-.087.577-.16.704-.24l-.28 1.145c-.825.32-1.52.573-2.043.74-.488.188-1.075.275-1.756.275-.887 0-1.594-.167-2.108-.518-.54-.345-.906-.783-1.123-1.323M264.06 255.778l-1.212 5.18h-.968c-.03-.292-.09-.658-.18-1.09-.106-.434-.247-.862-.414-1.282-.2-.442-.377-.8-.61-1.087l-.745-.505c-.256-.03-.59-.06-.984-.097-.42-.015-.75-.015-1.055-.015h-.647l-3.257 13.988-.08.422-.043.28.123.535.463.39c.19.066.507.143.887.226.395.094.707.145 1 .16l-.225.938H245.94l.21-.938c.253-.014.62-.043 1.075-.09.442-.055.805-.105.993-.178l.743-.536.388-.826 3.344-14.37h-.503c-.345 0-.653 0-.97.005-.34.03-.712.06-1.136.108-.32.048-.656.225-1.036.55-.384.313-.754.66-1.124 1.04-.41.483-.778.914-1.047 1.305-.28.37-.514.728-.728 1.07h-.954l1.207-5.182h17.658zM271.068 256.47c0 .654-.258 1.197-.754 1.657-.504.446-1.087.674-1.78.674-.684 0-1.296-.227-1.785-.673-.494-.46-.762-1.003-.762-1.656 0-.633.268-1.172.76-1.636.49-.468 1.102-.692 1.787-.692.692 0 1.275.224 1.78.692.495.464.753 1.003.753 1.637m-.276 15.544l-.3 1.134c-.848.33-1.522.587-2.026.754-.5.17-1.08.253-1.753.253-1.03 0-1.823-.253-2.39-.74-.596-.484-.864-1.11-.864-1.89l.075-.9c.047-.317.105-.665.192-1.046l1.076-3.72c.073-.353.167-.697.236-1l.086-.885c0-.47-.087-.79-.3-1-.19-.18-.566-.268-1.135-.268l-.84.12-.75.238.3-1.14c.686-.273 1.327-.512 1.976-.707.627-.207 1.24-.308 1.786-.308 1.033 0 1.804.242 2.35.742.567.49.817 1.116.817 1.895 0 .167 0 .442-.038.855-.054.42-.12.783-.213 1.13l-1.048 3.68c-.09.302-.182.654-.232 1.038-.08.376-.102.66-.102.858 0 .486.102.83.334.997.228.177.605.264 1.155.264l.877-.128c.344-.08.576-.166.728-.228M281.182 264.187c0-.725-.152-1.28-.417-1.652-.257-.395-.637-.598-1.108-.598-.667 0-1.283.536-1.87 1.605-.59 1.058-.956 2.41-1.116 4.036.508-.058 1.005-.138 1.498-.232.5-.094.88-.21 1.18-.344.646-.257 1.12-.62 1.388-1.07.283-.426.446-1.017.446-1.745m-2.93 10.032c-1.023 0-1.914-.142-2.693-.42-.765-.27-1.436-.65-1.928-1.14-.48-.495-.848-1.068-1.116-1.713-.243-.648-.37-1.37-.37-2.162 0-.993.19-1.964.57-2.9.36-.934.952-1.79 1.68-2.542.71-.718 1.594-1.3 2.667-1.747 1.09-.456 2.26-.684 3.56-.684 1.54 0 2.704.242 3.508.724.802.486 1.21 1.22 1.21 2.167 0 .927-.354 1.732-1.05 2.387-.692.67-1.634 1.156-2.818 1.482-.964.272-1.736.475-2.402.587-.685.12-1.482.227-2.46.332.047.377.083.794.17 1.258.083.467.21.87.398 1.203.19.365.482.684.863.89.356.222.86.338 1.428.338 1.03 0 1.877-.188 2.573-.56.703-.407 1.388-1.008 2.04-1.852l.924.775c-.772 1.094-1.76 1.964-2.963 2.61-1.2.65-2.445.966-3.79.966M311.876 271.902l-.28 1.12c-.847.333-1.52.587-2.032.76-.496.178-1.098.25-1.746.25-1.036 0-1.826-.25-2.377-.742-.575-.515-.858-1.13-.858-1.884 0-.196 0-.453.048-.783.003-.308.08-.7.2-1.184l.92-3.374c.093-.37.148-.7.235-.98l.05-.723c0-.402-.1-.725-.322-.96-.203-.22-.525-.337-.982-.337-.325 0-.745.152-1.26.434-.47.287-.985.663-1.507 1.145l-2.12 9.174h-4.256l1.797-7.736c.09-.424.16-.768.2-1.037l.08-.684c0-.402-.096-.725-.295-.96-.222-.22-.555-.337-1.026-.337-.272 0-.634.116-1.098.3-.46.23-1.04.645-1.772 1.28l-2.112 9.173h-4.253l1.836-7.802c.047-.246.105-.56.188-.956.083-.384.123-.7.123-.924 0-.5-.094-.833-.297-1.018-.174-.174-.54-.264-1.105-.264l-.848.12-.735.242.286-1.138c.68-.28 1.348-.518 1.996-.71.62-.217 1.214-.315 1.786-.315 1.044 0 1.797.22 2.25.648.493.413.816.935 1.008 1.602h.072c.85-.772 1.677-1.362 2.475-1.768.815-.413 1.717-.623 2.77-.623.86 0 1.592.24 2.153.706.57.47.88 1.044.93 1.728h.103c.91-.782 1.754-1.37 2.548-1.793.793-.43 1.702-.64 2.71-.64.938 0 1.702.263 2.228.788.543.51.804 1.134.804 1.874 0 .192-.007.48-.036.826-.036.35-.105.72-.214 1.126l-.97 3.564c-.102.3-.167.645-.24 1.022-.062.39-.094.68-.094.87 0 .5.105.818.333 1.007.206.17.582.264 1.133.264l.862-.127.71-.228" fill="#2c4ea3"/><path d="M323.12 270.794c.36-.74.628-1.507.83-2.322.18-.82.27-1.724.27-2.74 0-.42-.023-.792-.09-1.144-.067-.35-.16-.652-.302-.91l-.605-.604c-.268-.152-.59-.218-.964-.218-.457 0-.892.127-1.32.424-.413.272-.735.533-.953.786l-1.605 6.986c0 .558.167 1.054.508 1.445.344.388.822.562 1.445.562.533 0 1.047-.193 1.547-.606.482-.4.906-.95 1.24-1.66m5.695-5.007c0 1.142-.203 2.23-.584 3.257-.427 1.02-.97 1.917-1.677 2.678-.714.775-1.522 1.373-2.427 1.804-.907.43-1.904.627-2.983.627-.83 0-1.5-.073-1.996-.225-.49-.166-.91-.387-1.282-.677l-.797 3.414-.086.337-.043.312.15.544.387.347c.18.095.474.17.905.258.417.084.758.12 1.03.146l-.203.876h-9.302l.207-.876c.22-.026.5-.062.833-.098.333-.047.58-.102.746-.152l.678-.435c.16-.19.264-.46.33-.807l2.605-11.097c.043-.24.108-.558.18-.95.077-.376.124-.695.124-.93 0-.457-.104-.783-.274-.993-.203-.2-.587-.287-1.142-.287l-.858.12-.76.243.296-1.143c.7-.27 1.377-.518 2.025-.71.63-.21 1.25-.315 1.808-.315.486 0 .91.076 1.246.156.385.094.7.22.983.42l.562.58.387.7h.105c.787-.678 1.55-1.19 2.283-1.504.732-.32 1.446-.493 2.11-.493 1.473 0 2.585.436 3.332 1.302.728.876 1.105 2.072 1.105 3.575M341.035 264.765c0-.978-.156-1.72-.504-2.174-.34-.466-.832-.702-1.463-.702-.67 0-1.268.265-1.822.776-.547.518-.99 1.297-1.337 2.293-.297.837-.503 1.753-.645 2.728-.116.96-.177 1.837-.177 2.612 0 1.022.177 1.78.503 2.243.35.46.833.666 1.474.666.717 0 1.333-.275 1.844-.833.514-.57.92-1.264 1.21-2.094.297-.81.536-1.715.68-2.704.168-.974.237-1.916.237-2.81m4.528 1.444c0 1.062-.192 2.073-.6 3.047-.42.993-1 1.83-1.758 2.547-.808.783-1.757 1.37-2.855 1.786-1.1.42-2.315.627-3.685.627-1.837 0-3.315-.467-4.438-1.442-1.112-.956-1.666-2.268-1.666-3.938 0-1.13.2-2.16.627-3.13.42-.964 1.018-1.804 1.786-2.525.75-.71 1.69-1.265 2.765-1.685 1.112-.402 2.297-.61 3.572-.61 1.942 0 3.46.476 4.576 1.396 1.145.953 1.677 2.254 1.677 3.927M355.405 259.79c-.373.777-.91 1.882-1.536 3.327-.656 1.453-1.338 3.072-2.04 4.884h-.986c.098-2.173.138-3.92.138-5.242v-2.912c0-.497.022-.892.04-1.182l.116-.898c.188-.764.558-1.35 1.144-1.728.61-.39 1.21-.594 1.877-.594.608 0 1.064.174 1.47.518.37.362.558.782.558 1.308 0 .27-.043.597-.174.992-.098.402-.33.906-.61 1.53m-2.415 12.078c0 .642-.244 1.19-.75 1.66-.49.46-1.07.688-1.722.688-.663 0-1.246-.228-1.75-.688-.5-.47-.746-1.018-.746-1.66 0-.634.246-1.188.746-1.66.504-.47 1.087-.71 1.75-.71.652 0 1.232.24 1.72.71.508.472.75 1.026.75 1.66" fill="#2c4ea3"/></g></svg>