<svg xmlns="http://www.w3.org/2000/svg" width="400" height="234.898"><path d="M313.907 209.965c4.772-7.627 14.83-9.95 22.46-5.184 7.623 4.78 9.938 14.82 5.178 22.458-4.772 7.63-14.824 9.944-22.457 5.192-7.636-4.78-9.95-14.84-5.18-22.465M310.225 179.425C304.205 129.277 324.36 32.45 388.06 1.68c11.764-6.158 14.818 6.2 9.237 11.575-105.367 50.763-78.21 157.535-75.482 167.073-.603 7.714-10.66 6.774-11.59-.903" fill="#f89b3b"/><path d="M44.853 130.32l-2.257 3.788c-2.59 1.39-5.18 2.4-7.74 3.045-2.528.642-5.387.96-8.59.96-7.913 0-14.228-2.367-18.933-7.118-4.68-4.782-7.007-11.34-7.007-19.665 0-4.41.62-8.23 1.87-11.472 1.284-3.266 2.84-5.807 4.686-7.573 1.253-1.234 3.604-2.846 7.064-4.806 3.508-1.99 5.953-3.272 7.35-3.827 2.555-1.104 5.627-1.658 9.206-1.658 3.39 0 6.447.36 9.153 1.083 1.73.446 3.47 1.204 5.198 2.248-.444 2.92-.763 5.107-.956 6.622-.2 1.48-.432 4.173-.717 8.083h-3.236c-.235-3.64-.45-5.93-.69-6.835-.14-.57-.477-1.094-1.008-1.54-1.36-1.05-3.108-1.953-5.252-2.702-2.107-.796-4.433-1.187-6.957-1.187-3.152 0-5.905.653-8.246 1.975-2.3 1.287-4.077 3.34-5.365 6.154-1.29 2.84-1.917 6.335-1.917 10.52 0 5.134.9 9.757 2.714 13.894 1.797 4.154 4.247 7.188 7.332 9.112 3.136 1.885 6.624 2.807 10.47 2.807 1.91 0 3.794-.203 5.583-.672 1.857-.477 4.198-1.38 7.066-2.708l1.18 1.474zM74.598 136.81v-3.217c4.264-.08 6.548-.143 6.884-.227.652-.12 1.12-.283 1.415-.506.357-.267.61-.633.79-1.073.388-.86.61-2.218.677-4.06.232-10.065.35-15.327.35-15.777v-6.723c0-3.01-.06-6.25-.174-9.724-.076-2.213-.243-3.54-.506-3.95-.233-.41-.668-.718-1.295-.902-.606-.22-3.067-.32-7.35-.286v-3.22c7.596-1.05 13.16-2.438 16.658-4.124.75-.378 1.268-.566 1.534-.566.273 0 .46.095.63.274.136.188.23.48.23.85 0 .267-.033.57-.07.912-.194 2.295-.29 5.85-.345 10.674 1.698-1.963 3.27-3.888 4.7-5.823 1.425-1.905 2.466-3.152 3.102-3.722 1.127-.986 2.428-1.738 3.906-2.31 1.47-.62 2.998-.908 4.58-.908 1.574 0 3.145.328 4.688 1.015l.33.793c-.557 5-.88 9.42-.955 13.225h-2.547c-.87-1.81-1.893-3.125-3.045-3.966-1.133-.827-2.56-1.242-4.3-1.242-2.904 0-5.367 1.208-7.397 3.624-2.04 2.374-3.063 5.953-3.063 10.734v5.816c0 2.498.102 7.033.294 13.616.03 2.336.134 3.836.28 4.474.15.644.336 1.113.563 1.405.264.268.677.496 1.245.68 1.13.34 4.187.672 9.16 1.018v3.218c-6.633-.256-12.287-.396-16.957-.396-4.82 0-9.507.14-14.01.397" fill="#334b98"/><path d="M154.063 104.94c1.057.108 3.058.224 5.99.338 5.616.202 9.485.286 11.588.286 5.004 0 8.308-.083 9.903-.286.034-.9.043-1.59.043-2.08 0-5.96-1.2-10.334-3.614-13.106-2.405-2.79-5.632-4.198-9.662-4.198-4.254 0-7.688 1.54-10.288 4.578-2.594 3.06-3.906 7.88-3.96 14.47m36.23 23.118l-1.8 4.063c-2.61 1.62-4.505 2.698-5.722 3.223-1.757.787-3.797 1.455-6.086 1.99-2.273.554-4.648.844-7.192.844-4.96 0-9.473-1.032-13.504-3.11-4.035-2.07-7.18-5.17-9.43-9.277-2.23-4.137-3.334-8.978-3.334-14.526 0-4.322.57-8.223 1.75-11.687 1.202-3.51 2.562-6.093 4.07-7.742 1.085-1.206 2.784-2.587 5.072-4.132 2.305-1.58 4.59-2.83 6.854-3.726 2.957-1.252 6.194-1.872 9.654-1.872 4.225 0 8.032.97 11.414 2.89 3.428 1.912 5.937 4.534 7.52 7.856 1.587 3.31 2.372 7.043 2.372 11.245 0 1.064-.073 2.326-.223 3.84-2.712.524-5.14.86-7.29 1.02-4.065.302-8.145.44-12.215.44h-18.14c.08 5.4 1.008 9.765 2.776 13.127 1.804 3.314 4.275 5.756 7.396 7.338 3.176 1.586 6.45 2.362 9.842 2.362 2.29 0 4.58-.346 6.844-1.06 2.29-.75 5.114-2.117 8.468-4.073l.904.966zM258.74 106.975c-4.894.826-9.087 1.753-12.553 2.77-3.465 1.015-5.914 2.076-7.334 3.17-.87.633-1.623 1.607-2.267 2.885-.97 1.886-1.476 3.965-1.476 6.267 0 2.79.772 4.973 2.31 6.553 1.556 1.554 3.7 2.32 6.462 2.32 2.514 0 5.008-.718 7.442-2.153 2.496-1.455 4.954-3.647 7.415-6.558v-15.255zM232.79 98.1l-2.995-.786c.053-.862.065-2.044.065-3.553 0-1.58-.015-2.847-.065-3.792 4.792-3.127 8.715-5.238 11.76-6.315 2.336-.797 4.958-1.2 7.86-1.2 4.286 0 7.91.8 10.85 2.423 2.93 1.628 5.107 3.95 6.562 6.962.976 2.1 1.454 4.99 1.465 8.638l-.218 10.34v16.842c0 1.807.14 3.11.434 3.897.23.568.586.98 1.08 1.24.377.234 1.16.392 2.372.452l3.678.346v3.218c-3.095-.256-5.822-.396-8.142-.396-2.262 0-5.277.14-9.044.397l.287-9.943c-7.69 5.8-12.257 9.088-13.686 9.84-1.42.712-3.23 1.064-5.42 1.08-4.552 0-8.118-1.215-10.68-3.63-2.53-2.45-3.792-5.688-3.792-9.725 0-2.598.447-4.96 1.297-7.113.92-2.14 1.978-3.846 3.23-5.078 1.244-1.273 2.51-2.228 3.788-2.842 2.187-1.005 5.715-2.1 10.63-3.266 4.92-1.164 9.81-2.035 14.63-2.595.03-3.584-.403-6.37-1.306-8.376-.9-1.993-2.42-3.637-4.572-4.913-2.16-1.272-4.76-1.926-7.854-1.926-2.224 0-4.188.298-5.872.907-1.662.606-2.682 1.11-3.058 1.53l-1.014 2.04c-1.02 2.25-1.78 4.028-2.273 5.3" fill="#334b98" fill-rule="evenodd"/><path d="M10.292 163.442l.238.698c-1.107.89-1.945 1.53-2.507 1.898-.878.553-1.686.94-2.408 1.193-.554.178-1.117.276-1.712.276-.75 0-1.422-.158-2.03-.47-.59-.31-1.062-.83-1.372-1.57-.327-.72-.5-1.628-.5-2.7 0-1.148.16-2.332.463-3.544.304-1.222.693-2.227 1.188-3.03.48-.816.974-1.427 1.467-1.83.996-.842 2.195-1.56 3.587-2.16.718-.296 1.448-.454 2.148-.454.528 0 1.027.064 1.468.197.44.134.856.347 1.245.63-.294 1.178-.536 2.518-.724 4.042h-.738l.023-1.703c0-.37-.06-.612-.188-.776-.125-.203-.42-.376-.87-.55-.437-.163-.95-.247-1.548-.247-1.064 0-1.922.27-2.58.798-.654.536-1.22 1.558-1.683 3.078-.6 1.9-.9 3.53-.9 4.91 0 1.124.18 1.965.546 2.535.5.807 1.246 1.2 2.217 1.2.45 0 .92-.066 1.392-.224.5-.143 1.055-.41 1.7-.772.385-.233 1.08-.71 2.08-1.422" fill="#334b98"/><path d="M21.667 162.385c0 1.008.11 1.77.322 2.28.212.526.55.926.986 1.194.446.27.977.41 1.606.41.664 0 1.254-.174 1.75-.534.502-.357.99-.99 1.485-1.952.478-.964.828-2.07 1.046-3.35.217-1.303.333-2.458.333-3.484 0-1.3-.23-2.297-.722-2.965-.473-.694-1.184-1.035-2.13-1.035-1.498 0-2.663.896-3.47 2.692-.803 1.803-1.207 4.05-1.207 6.743m-2.484.217c0-1.282.126-2.486.41-3.593.262-1.13.64-2.105 1.118-2.922.485-.84 1.067-1.554 1.763-2.186.708-.635 1.502-1.145 2.373-1.506.882-.4 1.72-.585 2.528-.585.76 0 1.476.165 2.146.496.686.328 1.206.853 1.572 1.54.39.688.573 1.634.573 2.857 0 1.59-.312 3.203-.95 4.805-.51 1.267-1.106 2.302-1.748 3.103-.66.777-1.517 1.46-2.57 2.02-1.02.554-2.05.828-3.084.828-1.26 0-2.252-.402-3.012-1.202-.745-.814-1.117-2.04-1.117-3.654" fill="#334b98" fill-rule="evenodd"/><path d="M40.026 167.285l-.214-.274.9-3.196c.317-1.266.607-2.494.87-3.698.323-1.543.564-2.9.724-4.056.067-.534.102-.936.102-1.21 0-.31-.052-.52-.147-.64-.075-.112-.187-.176-.304-.176-.155 0-.384.084-.69.238-.58.307-1.166.653-1.762 1.1l-.223-.68c.502-.4 1.18-.874 2.04-1.446.887-.578 1.615-.964 2.203-1.206.307-.095.558-.148.78-.148.215 0 .374.053.495.187.134.122.195.316.195.584 0 .262-.04.623-.132 1.09-.014.136-.33 1.65-.94 4.538 1.02-1.392 1.864-2.42 2.545-3.1 1.146-1.13 2.32-2 3.51-2.662.804-.402 1.51-.605 2.118-.605.255 0 .456.05.584.164.115.112.175.29.175.533 0 .402-.05.936-.165 1.586-.084.464-.387 1.82-.905 4.125 1.052-1.476 2.122-2.662 3.246-3.616 1.102-.958 2.252-1.716 3.458-2.265.81-.376 1.48-.55 2.02-.55.258 0 .45.06.57.184.13.112.19.332.19.592 0 .313-.074.793-.204 1.437-.224 1.118-.687 2.9-1.35 5.374-.778 2.906-1.165 4.668-1.165 5.295 0 .198.036.364.116.485.097.095.196.15.323.15.128 0 .28-.046.45-.107.225-.083.536-.255.92-.502l1.217-.857.268.617c-.472.397-1.174.9-2.07 1.504-.91.612-1.618 1.015-2.167 1.248-.263.095-.505.14-.72.14-.243 0-.453-.098-.64-.303-.185-.212-.282-.508-.282-.884 0-.286.03-.554.06-.813.053-.242.187-.78.41-1.613.235-.825.624-2.265 1.12-4.33.42-1.712.688-2.94.794-3.682.11-.734.17-1.167.17-1.298 0-.182-.044-.335-.144-.444-.083-.09-.176-.143-.31-.143-.278 0-.728.163-1.35.474-.623.336-1.33.893-2.14 1.67-.815.76-1.457 1.568-1.975 2.372-.508.82-.95 1.8-1.312 2.972-.374 1.145-.752 2.967-1.18 5.46-.627.096-1.362.248-2.185.445l-.22-.213c.483-1.757.967-3.648 1.42-5.682.475-2.058.797-3.718.97-4.965.13-.894.198-1.504.198-1.815 0-.23-.06-.407-.157-.536-.074-.093-.18-.144-.317-.144-.29 0-.625.125-1.053.346-.63.333-1.326.868-2.077 1.614-.756.757-1.42 1.602-1.977 2.53-.57.94-1.04 2.043-1.41 3.34-.36 1.293-.736 2.974-1.1 5.038-.827.135-1.54.277-2.17.422M69.768 155.348l-.312-.605c.962-.724 2.22-1.52 3.782-2.386.655-.36 1.15-.534 1.483-.534.204 0 .358.083.498.227.128.152.2.35.2.614 0 .247-.083.716-.25 1.4-1.46 5.935-2.197 9.424-2.197 10.463 0 .232.05.417.134.536.083.113.2.162.34.162.183 0 .432-.08.723-.24.757-.408 1.62-1.095 2.546-2.063.945-.988 1.805-2.108 2.59-3.36.46-.766.87-1.678 1.234-2.757.363-1.098.702-2.557 1.054-4.404.26-.043.98-.198 2.145-.494l.23.242-.854 2.822c-.405 1.48-.808 3.093-1.182 4.84-.378 1.74-.61 2.965-.724 3.678-.03.35-.058.704-.058 1.03 0 .27.038.455.142.558.084.116.218.173.356.173.146 0 .335-.065.59-.22.244-.11.876-.572 1.91-1.363l.342.605c-1.78 1.414-3.03 2.345-3.752 2.765-.562.302-.98.45-1.275.45-.206 0-.396-.097-.554-.303-.158-.186-.245-.455-.245-.815 0-.2.036-.466.076-.78.084-.483.272-1.45.583-2.89l.656-2.748-.098-.058c-1.065 1.54-1.698 2.416-1.908 2.684-.795.958-1.682 1.88-2.69 2.762-1.014.88-1.96 1.537-2.87 1.954-.288.15-.546.212-.77.212-.288 0-.55-.138-.776-.415-.214-.3-.346-.762-.346-1.354 0-.815.205-2.04.618-3.676.594-2.427 1.01-4.33 1.273-5.745.172-.91.252-1.498.252-1.8 0-.175-.03-.283-.103-.378-.08-.083-.18-.12-.308-.12-.344 0-1.167.448-2.484 1.33M92.932 167.37l-.206-.275c.705-2.205 1.375-4.848 1.956-7.913.43-2.256.63-3.723.63-4.434 0-.214-.022-.387-.096-.476-.06-.095-.17-.134-.313-.134-.12 0-.26.025-.387.065-.262.1-.584.263-.968.49l-1.24.808-.2-.643 1.448-1.08c.564-.39 1.148-.763 1.757-1.113.643-.342 1.1-.55 1.394-.633.137-.055.3-.085.467-.085.22 0 .383.08.52.208.152.194.24.44.24.758 0 .193-.033.442-.082.72-.084.468-.272 1.33-.583 2.598l-.712 2.888.11.04c.912-1.49 1.956-2.795 3.155-3.927 1.178-1.162 2.427-2.033 3.74-2.62.933-.44 1.633-.645 2.095-.645.275 0 .497.083.675.256.177.18.25.443.25.774 0 .728-.346 2.475-1.065 5.247-.977 3.727-1.454 5.913-1.454 6.574 0 .207.038.36.112.46.082.08.177.11.31.11.15 0 .41-.078.745-.263.73-.406 1.38-.85 1.99-1.31l.263.632c-.878.71-1.602 1.262-2.17 1.638-1.012.644-1.766 1.06-2.244 1.258-.206.083-.414.12-.63.12-.283 0-.516-.102-.702-.295-.162-.192-.25-.488-.25-.884 0-.32.052-.7.134-1.16.15-.777.55-2.405 1.173-4.836.752-2.93 1.135-4.737 1.135-5.388 0-.318-.04-.536-.146-.65-.117-.128-.26-.184-.44-.184-.347 0-.77.14-1.26.402-.81.432-1.64 1.093-2.498 1.984-.86.892-1.592 1.843-2.163 2.85-.58 1.006-1.078 2.293-1.523 3.888-.17.597-.416 1.83-.76 3.675-.767.117-1.5.29-2.208.508" fill="#334b98"/><path d="M115.372 155.435l-.272-.618c1.852-1.282 3.086-2.07 3.726-2.382.62-.307 1.104-.45 1.46-.45.195 0 .362.056.452.208.156.188.22.47.22.852 0 .177-.03.43-.108.752-.14.618-.423 1.76-.86 3.42-1.133 4.237-1.703 6.73-1.703 7.488 0 .216.03.388.103.486.08.1.19.144.33.144.21 0 .466-.08.78-.227.33-.154.915-.54 1.756-1.174l.33.633c-1.71 1.293-2.982 2.158-3.833 2.598-.417.204-.74.303-1.023.303-.263 0-.5-.11-.7-.36-.208-.23-.302-.565-.302-.99 0-.35.044-.708.11-1.13.075-.384.254-1.134.557-2.19 1.214-4.388 1.826-7.102 1.826-8.148 0-.22-.033-.358-.097-.442-.047-.07-.13-.11-.23-.11-.133 0-.284.036-.45.104-.074.045-.774.447-2.07 1.232m4.038-8.864c0-.575.188-1.07.555-1.474.36-.408.774-.61 1.24-.61.383 0 .658.124.87.342.222.223.326.534.326.92 0 .544-.145 1.054-.457 1.51-.333.44-.737.672-1.254.672-.386 0-.684-.128-.922-.376-.235-.25-.357-.588-.357-.984" fill="#334b98" fill-rule="evenodd"/><path d="M140.294 163.442l.233.698c-1.107.89-1.95 1.53-2.516 1.898-.87.553-1.657.94-2.394 1.193-.553.178-1.112.276-1.707.276-.746 0-1.423-.158-2.037-.47-.592-.31-1.05-.83-1.368-1.57-.326-.72-.488-1.628-.488-2.7 0-1.148.15-2.332.45-3.544.302-1.222.695-2.227 1.184-3.03.49-.816.975-1.427 1.464-1.83.99-.842 2.213-1.56 3.61-2.16.7-.296 1.423-.454 2.128-.454.545 0 1.018.064 1.483.197.436.134.864.347 1.23.63-.284 1.178-.53 2.518-.716 4.042h-.738l.018-1.703c0-.37-.067-.612-.17-.776-.143-.203-.43-.376-.884-.55-.437-.163-.954-.247-1.552-.247-1.07 0-1.922.27-2.592.798-.646.536-1.195 1.558-1.685 3.078-.584 1.9-.89 3.53-.89 4.91 0 1.124.185 1.965.546 2.535.516.807 1.245 1.2 2.218 1.2.452 0 .912-.066 1.4-.224.485-.143 1.058-.41 1.682-.772.402-.233 1.094-.71 2.092-1.422" fill="#334b98"/><path d="M159.11 153.935c-.385-.182-.798-.316-1.232-.4-.426-.104-.86-.15-1.342-.15-.897 0-1.58.15-2.065.46-.22.132-.452.477-.722 1.03-.536 1.11-.975 2.34-1.373 3.713-.6 2.13-.9 4-.9 5.62 0 .27.014.488.065.622.043.143.11.238.212.317.103.05.18.092.25.092.21 0 .505-.134.922-.41.795-.56 1.65-1.343 2.533-2.377.888-1.04 1.62-2.217 2.2-3.53.566-1.304 1.05-2.97 1.454-4.99m2.595 9.832l.162.677-2.347 1.813c-.724.534-1.325.884-1.75 1.083-.167.07-.29.104-.418.104-.18 0-.37-.095-.553-.303-.18-.19-.263-.442-.263-.73 0-1.102.357-2.947 1.04-5.53l-.117-.052c-.773 1.105-1.396 1.93-1.847 2.45-.81.97-1.632 1.814-2.484 2.53-.84.695-1.59 1.203-2.292 1.53-.183.084-.376.12-.56.12-.274 0-.505-.132-.676-.412-.268-.43-.42-1.178-.42-2.217 0-1.343.245-2.897.723-4.69.486-1.795 1.06-3.366 1.737-4.68.342-.673.804-1.252 1.43-1.708 1.002-.773 1.916-1.318 2.748-1.604.54-.203 1.135-.306 1.813-.306.46 0 .884.04 1.28.103.41.08.93.227 1.562.456l1-.59.332.28c-.66 2.31-1.252 4.49-1.755 6.552-.322 1.228-.534 2.15-.65 2.76-.198.977-.355 1.902-.466 2.76-.023.182-.026.316-.026.44 0 .196.043.37.12.474.08.078.174.116.293.116.162 0 .39-.07.648-.207.273-.135.85-.542 1.736-1.22" fill="#334b98" fill-rule="evenodd"/><path d="M179.777 163.442l.236.698c-1.11.89-1.945 1.53-2.514 1.898-.872.553-1.665.94-2.39 1.193-.552.178-1.118.276-1.72.276-.738 0-1.432-.158-2.024-.47-.603-.31-1.06-.83-1.374-1.57-.33-.72-.5-1.628-.5-2.7 0-1.148.162-2.332.452-3.544.307-1.222.704-2.227 1.178-3.03.49-.816.985-1.427 1.478-1.83.99-.842 2.198-1.56 3.6-2.16.712-.296 1.43-.454 2.14-.454.54 0 1.027.064 1.463.197.456.134.87.347 1.248.63-.302 1.178-.538 2.518-.73 4.042h-.726l.02-1.703c0-.37-.067-.612-.172-.776-.134-.203-.43-.376-.884-.55-.44-.163-.947-.247-1.554-.247-1.06 0-1.915.27-2.578.798-.647.536-1.206 1.558-1.684 3.078-.595 1.9-.912 3.53-.912 4.91 0 1.124.207 1.965.566 2.535.495.807 1.24 1.2 2.202 1.2.47 0 .932-.066 1.424-.224.478-.143 1.04-.41 1.68-.772.385-.233 1.083-.71 2.075-1.422" fill="#334b98"/><path d="M188.933 155.435l-.264-.618c1.84-1.282 3.075-2.07 3.695-2.382.626-.307 1.12-.45 1.482-.45.193 0 .338.056.454.208.136.188.215.47.215.852 0 .177-.04.43-.112.752-.128.618-.42 1.76-.863 3.42-1.128 4.237-1.705 6.73-1.705 7.488 0 .216.037.388.12.486.085.1.19.144.322.144.21 0 .473-.08.79-.227.32-.154.896-.54 1.747-1.174l.313.633c-1.686 1.293-2.965 2.158-3.818 2.598-.412.204-.74.303-1.013.303-.268 0-.508-.11-.692-.36-.218-.23-.322-.565-.322-.99 0-.35.05-.708.11-1.13.08-.384.255-1.134.557-2.19 1.21-4.388 1.827-7.102 1.827-8.148 0-.22-.03-.358-.092-.442-.05-.07-.122-.11-.238-.11-.122 0-.28.036-.458.104-.085.045-.762.447-2.056 1.232m4.035-8.864c0-.575.176-1.07.526-1.474.392-.408.806-.61 1.275-.61.358 0 .656.124.857.342.22.223.322.534.322.92 0 .544-.152 1.054-.47 1.51-.304.44-.726.672-1.244.672-.372 0-.666-.128-.906-.376-.234-.25-.36-.588-.36-.984M206.037 162.385c0 1.008.122 1.77.33 2.28.215.526.54.926.986 1.194.462.27.98.41 1.595.41.683 0 1.277-.174 1.742-.534.51-.357 1.01-.99 1.49-1.952.48-.964.846-2.07 1.058-3.35.223-1.303.342-2.458.342-3.484 0-1.3-.253-2.297-.733-2.965-.465-.694-1.185-1.035-2.116-1.035-1.516 0-2.674.896-3.485 2.692-.802 1.803-1.208 4.05-1.208 6.743m-2.475.217c0-1.282.12-2.486.396-3.593.266-1.13.65-2.105 1.128-2.922.48-.84 1.074-1.554 1.764-2.186.702-.635 1.5-1.145 2.364-1.506.892-.4 1.73-.585 2.535-.585.753 0 1.473.165 2.143.496.683.328 1.217.853 1.588 1.54.373.688.555 1.634.555 2.857 0 1.59-.316 3.203-.95 4.805-.51 1.267-1.09 2.302-1.758 3.103-.657.777-1.5 1.46-2.548 2.02-1.02.554-2.065.828-3.085.828-1.26 0-2.272-.402-3.013-1.202-.754-.814-1.12-2.04-1.12-3.654" fill="#334b98" fill-rule="evenodd"/><path d="M224.488 167.37l-.212-.275c.726-2.205 1.37-4.848 1.975-7.913.412-2.256.64-3.723.64-4.434 0-.214-.05-.387-.13-.476-.058-.095-.148-.134-.29-.134-.13 0-.258.025-.395.065-.274.1-.587.263-.972.49l-1.243.808-.2-.643 1.464-1.08c.564-.39 1.142-.763 1.766-1.113.614-.342 1.074-.55 1.37-.633.14-.055.3-.085.48-.085.223 0 .38.08.5.208.16.194.25.44.25.758 0 .193-.046.442-.07.72-.08.468-.277 1.33-.6 2.598l-.688 2.888.106.04c.904-1.49 1.954-2.795 3.13-3.927 1.195-1.162 2.447-2.033 3.743-2.62.942-.44 1.644-.645 2.09-.645.306 0 .535.083.693.256.162.18.268.443.268.774 0 .728-.366 2.475-1.078 5.247-.972 3.727-1.465 5.913-1.465 6.574 0 .207.04.36.113.46.077.08.18.11.316.11.16 0 .406-.078.74-.263.725-.406 1.395-.85 1.987-1.31l.266.632c-.88.71-1.61 1.262-2.167 1.638-1.015.644-1.763 1.06-2.232 1.258-.213.083-.414.12-.628.12-.298 0-.525-.102-.703-.295-.178-.192-.262-.488-.262-.884 0-.32.043-.7.112-1.16.158-.777.566-2.405 1.178-4.836.772-2.93 1.154-4.737 1.154-5.388 0-.318-.054-.536-.155-.65-.102-.128-.247-.184-.444-.184-.352 0-.756.14-1.242.402-.812.432-1.638 1.093-2.51 1.984-.87.892-1.58 1.843-2.157 2.85-.582 1.006-1.08 2.293-1.518 3.888-.164.597-.412 1.83-.763 3.675-.77.117-1.5.29-2.213.508" fill="#334b98"/><path d="M249.43 159.54c1.33-.25 2.48-.615 3.44-1.075.95-.49 1.637-1.064 2.087-1.744.426-.69.655-1.344.655-1.972 0-.54-.137-.93-.417-1.213-.266-.29-.603-.415-1.03-.415-.607 0-1.222.17-1.84.534-.625.356-1.113.89-1.51 1.623-.37.707-.827 2.133-1.385 4.262m7.14 4.01l.2.612c-1.184 1.113-2.38 1.934-3.56 2.48-1.162.552-2.152.825-2.975.825-.523 0-1.094-.128-1.682-.4-.594-.277-1.06-.713-1.396-1.3-.326-.58-.5-1.417-.5-2.487 0-1.178.19-2.47.59-3.9.396-1.427.802-2.49 1.198-3.197.385-.724.93-1.35 1.612-1.91.97-.777 1.965-1.412 3.05-1.916.743-.36 1.474-.534 2.172-.534.777 0 1.42.212 1.925.632.52.415.762 1.005.762 1.748 0 .54-.097 1.08-.34 1.625-.222.523-.535.984-.926 1.364-.554.54-1.32 1.03-2.286 1.496-.99.443-2.016.836-3.09 1.137l-2.02.48c-.206 1.058-.29 1.895-.29 2.51 0 1.023.218 1.788.667 2.292.448.52 1.02.767 1.694.767.624 0 1.288-.137 2.05-.432.742-.295 1.8-.923 3.147-1.89" fill="#334b98" fill-rule="evenodd"/><path d="M265.58 166.745c.242-1.094.406-1.87.48-2.412.088-.534.16-1.146.202-1.81h.778l-.024 2.624c.513.394.964.683 1.396.86.567.24 1.137.357 1.708.357.707 0 1.335-.16 1.913-.46.575-.292 1.005-.718 1.298-1.262.308-.55.455-1.154.455-1.807 0-.45-.088-.852-.276-1.178-.18-.337-.407-.564-.693-.683-.283-.15-.873-.283-1.804-.415-1.325-.2-2.2-.412-2.706-.666-.47-.238-.835-.603-1.127-1.098-.268-.504-.412-1.06-.412-1.697 0-.6.11-1.146.356-1.64.242-.5.584-.965 1.03-1.397.475-.433 1.03-.84 1.663-1.217.62-.38 1.16-.644 1.613-.796.47-.14 1.026-.207 1.634-.207.603 0 1.178.064 1.687.197.537.118 1.032.332 1.482.594-.14.486-.253.925-.313 1.3-.04.23-.13 1.017-.27 2.352h-.715c-.02-.85-.04-1.5-.05-1.925-.386-.405-.8-.706-1.313-.9-.486-.208-1.038-.3-1.653-.3-.985 0-1.767.27-2.38.835-.584.565-.88 1.252-.88 2.054 0 .632.187 1.142.572 1.507.396.396 1.198.685 2.395.873 1.22.163 2.03.346 2.436.495.598.244 1.07.593 1.385 1.038.302.44.462.987.462 1.61 0 .737-.18 1.456-.51 2.116-.347.66-.862 1.295-1.56 1.877-.687.573-1.43 1.063-2.23 1.444-.804.413-1.665.606-2.605.606-.575 0-1.128-.065-1.64-.208-.508-.122-1.104-.34-1.786-.663" fill="#334b98"/></svg>