<svg xmlns="http://www.w3.org/2000/svg" width="500" height="103.889"><g fill="#ad1015"><path d="M276.38 23.825v2.093l-1.23.14c-2.95.303-4.724.68-5.323 1.133-.576.454-.865 1.33-.865 2.632v1.018l-.066 9.477.033 10.834.032 5.517c0 1.622.09 2.64.267 3.055.198.415.53.726.997.934.798.358 2.44.707 4.923 1.046.266.038.677.094 1.23.17v2.093c-4.545-.207-8.55-.31-12.008-.31-3.283 0-7.63.103-13.04.31v-2.093c3.458-.547 5.355-.877 5.687-.99.51-.17.898-.415 1.164-.736.332-.433.51-1.32.532-2.66.044-3.13.067-8.457.067-15.98l-.1-10.298v-.85c0-1.507-.255-2.48-.765-2.912-.51-.434-2.23-.858-5.157-1.273-.332-.057-.808-.142-1.43-.255v-2.093c5.7.207 9.97.31 12.81.31 3.037 0 7.118-.103 12.24-.31" style="-inkscape-font-specification:Calisto MT" font-size="278.056" font-weight="bold" font-family="Calisto MT"/><path d="M59.55 84.993c-1.273 1.402-2.365 2.672-3.276 3.81-.9 1.14-1.602 2.114-2.103 2.922-.5.798-.79 1.392-.87 1.782-.15.72.1 1.08.75 1.08.692 0 2.444-.915 5.258-2.745l-.24 1.007c-3.385 2.793-5.733 4.19-7.045 4.19-1.562 0-2.183-.788-1.862-2.365.19-.945.942-2.283 2.254-4.016 1.312-1.734 3.224-3.973 5.738-6.718-2.794 2.433-5.122 4.434-6.985 6-1.853 1.57-3.755 3.087-5.708 4.558-.46.36-.882.69-1.263.992-.38.293-.75.526-1.11.7-.352.167-.717.25-1.098.25-.59 0-1.037-.224-1.337-.672-.3-.448-.366-1.08-.196-1.898.11-.526.396-1.135.856-1.826.46-.7 1.112-1.514 1.953-2.438.84-.925 1.853-1.938 3.034-3.038 1.913-1.8 3.24-3.07 3.98-3.81.742-.74 1.137-1.213 1.187-1.418.03-.146-.035-.22-.195-.22-.19 0-.526.09-1.006.264-.48.166-1.127.443-1.938.832-.81.38-1.867.925-3.17 1.636-.97.526-1.907.954-2.808 1.285-.9.32-1.522.48-1.863.48-.2 0-.36-.053-.48-.16-.11-.107-.146-.243-.106-.41.052-.232.232-.612.542-1.138.32-.535.706-1.085 1.157-1.65.46-.574.85-1.002 1.17-1.285.882-.78 2.008-1.465 3.38-2.06 1.372-.593 2.75-1.05 4.13-1.37 1.393-.323 2.52-.483 3.38-.483.64 0 1.087.107 1.337.32.26.205.34.546.24 1.023-.22 1.042-.525 1.85-.916 2.424-.38.566-.98 1.3-1.8 2.206-.302.35-.742.833-1.323 1.446-.58.603-1.167 1.197-1.757 1.78-.58.576-1.062 1.058-1.442 1.447-.38.39-.776.817-1.187 1.284-1.13 1.246-1.852 2.05-2.162 2.41-.3.36-.476.67-.526.934-.07.34.06.51.39.51.3 0 .612-.1.932-.305.33-.214 1.037-.71 2.118-1.49 1.242-.886 2.463-1.815 3.665-2.79 1.202-.972 2.303-1.897 3.305-2.773 1-.886 2.278-2.03 3.83-3.432 1.742-1.597 2.85-2.595 3.32-2.994.47-.4.83-.598 1.08-.598.22 0 .382.175.482.525.11.342.1.824-.03 1.447-.07.33-.336.774-.796 1.33-.45.544-1.407 1.62-2.87 3.226" style="-inkscape-font-specification:Brush Script MT" font-size="134.242" font-style="italic" font-family="Brush Script MT"/><path d="M69.823 89.257c-2.153 1.908-3.305 3.237-3.455 3.987-.09.418.04.628.39.628.29 0 .697-.146 1.217-.438.53-.302 1.372-.833 2.524-1.592l-.212 1.007c-1.702 1.362-3 2.346-3.89 2.95-.88.603-1.562.905-2.043.905-.82 0-1.12-.526-.9-1.578.06-.31.17-.618.33-.92.17-.3.375-.613.615-.934.24-.33.6-.798 1.082-1.402.49-.612 1.05-1.304 1.682-2.073-.63.283-1.462.842-2.493 1.68-.67.525-1.25 1.027-1.742 1.504-.48.468-1.006.994-1.577 1.578-.56.574-.965.964-1.216 1.168-.24.195-.465.292-.675.292-.322 0-.552-.326-.692-.978-.14-.652-.12-1.412.06-2.278.11-.536.26-.954.45-1.256.19-.302.526-.73 1.007-1.285.9-1.03 1.652-1.786 2.253-2.263.6-.486 1.13-.73 1.592-.73.32 0 .566.054.736.16.18.108.245.273.195.497-.02.098-.07.2-.15.307-.08.108-.17.205-.27.293-.09.088-.28.258-.57.51-1.933 1.705-2.954 2.81-3.064 3.316-.05.28.02.423.21.423.12 0 .39-.185.81-.555l1.638-1.475c.67-.614 1.447-1.25 2.33-1.913.88-.662 1.86-1.3 2.943-1.913.6-.36 1.076-.54 1.427-.54.16 0 .275.214.345.642.07.427.06.86-.03 1.3-.05.213-.336.54-.857.977" style="-inkscape-font-specification:Brush Script MT" font-size="134.242" font-style="italic" font-family="Brush Script MT"/><path d="M72.685 89.286c1.792-1.343 3.47-2.34 5.03-2.993 1.574-.653 2.75-.98 3.53-.98.212 0 .387.09.527.264.15.166.255.36.315.584.06.225.08.39.06.498-.04.175-.14.306-.3.394-.15.078-.415.175-.796.292.04.156.09.355.15.6.06.242.106.442.136.598.03.146.035.277.015.394-.05.233-.384.672-1.005 1.314-.61.633-1.046 1.1-1.307 1.402-.26.302-.435.672-.525 1.11-.15.72.115 1.08.796 1.08.7 0 1.93-.637 3.694-1.913l-.196.89c-3.094 2.736-5.187 4.104-6.278 4.104-.39 0-.646-.127-.766-.38-.11-.243-.115-.61-.015-1.095.16-.77.675-1.885 1.546-3.345-1.783 1.577-3.1 2.7-3.95 3.373-.852.662-1.508.993-1.968.993-.22 0-.456-.184-.706-.554-.25-.37-.446-.847-.586-1.43-.13-.595-.13-1.208 0-1.84.09-.46.21-.838.36-1.14.16-.312.4-.628.72-.95.332-.32.838-.744 1.518-1.27m7.526-1.606c-2.844 1.158-4.902 2.142-6.174 2.95-1.27.808-1.997 1.64-2.178 2.497-.06.31-.055.57.015.774.07.196.2.293.39.293.11 0 .316-.068.617-.205 1.18-.603 2.308-1.387 3.38-2.35 1.07-.974 2.388-2.293 3.95-3.958M100.563 91.93l-.21.978c-1.282 1.022-2.32 1.815-3.11 2.38s-1.512 1.003-2.163 1.314c-.65.312-1.257.468-1.817.468-.55 0-1.012-.21-1.382-.628-.37-.43-.615-.984-.735-1.665-.12-.69-.1-1.42.06-2.19.13-.662.395-1.25.796-1.767.41-.516 1.132-1.183 2.164-2 1.22-.975 2.323-1.724 3.304-2.25.992-.535 1.738-.803 2.238-.803.36 0 .64.122.842.365.2.243.26.55.18.92-.06.312-.316.754-.766 1.33-.45.573-.926 1.075-1.427 1.503-.49.42-.856.628-1.097.628-.26 0-.36-.136-.3-.41.02-.077.04-.15.06-.218.02-.068.035-.136.045-.204.03-.116 0-.18-.09-.19-.08-.02-.185.015-.316.103-1.14.68-1.927 1.163-2.358 1.446-.43.27-.782.55-1.052.83-.27.283-.44.58-.51.892-.12.574-.026 1.04.284 1.402.31.36.772.54 1.382.54.63 0 1.437-.234 2.42-.7.98-.478 2.167-1.17 3.56-2.075" style="-inkscape-font-specification:Brush Script MT" font-size="134.242" font-style="italic" font-family="Brush Script MT"/><path d="M110.16 91.87l-.194.98c-.78.584-1.392.973-1.833 1.168-.44.194-1.03.272-1.772.233-1.61 1.5-2.913 2.25-3.904 2.25-.56 0-1.037-.18-1.427-.54-.382-.36-.647-.852-.798-1.475-.15-.623-.145-1.32.015-2.088.13-.623.486-1.315 1.067-2.074.58-.76 1.277-1.465 2.088-2.117.81-.662 1.642-1.193 2.493-1.592.86-.41 1.622-.613 2.283-.613.47 0 .827.074 1.067.22.24.136.335.33.285.584-.04.194-.2.418-.48.67.36.08.59.21.69.396.11.175.116.5.016.978-.1.467-.336 1.056-.706 1.767-.37.71-.817 1.378-1.337 2l.225.264h.225c.17 0 .346-.04.526-.118.18-.088.345-.175.495-.263.15-.098.475-.308.976-.63m-2.297-3.84c-.93.487-1.732.93-2.403 1.33-.67.39-1.257.788-1.758 1.197-.49.4-.846.803-1.066 1.212-.48 1.09-.726 1.678-.736 1.766-.14.642.25.964 1.17.964.432 0 1.228-.36 2.39-1.08-.07-.46-.065-.897.015-1.315.13-.614.39-1.237.78-1.87.39-.642.927-1.377 1.608-2.205" style="-inkscape-font-specification:Brush Script MT" font-size="134.242" font-style="italic" font-family="Brush Script MT"/><path d="M120.796 89.257c-2.153 1.908-3.304 3.237-3.455 3.987-.09.418.042.628.392.628.29 0 .696-.146 1.217-.438.53-.302 1.37-.833 2.522-1.592l-.21 1.007c-1.702 1.362-3 2.346-3.89 2.95-.882.603-1.563.905-2.043.905-.822 0-1.123-.526-.903-1.578.06-.31.17-.618.33-.92.17-.3.376-.613.617-.934.24-.33.6-.798 1.08-1.402.492-.612 1.053-1.304 1.684-2.073-.63.283-1.462.842-2.494 1.68-.67.525-1.252 1.027-1.742 1.504-.48.468-1.007.994-1.577 1.578-.56.574-.967.964-1.217 1.168-.24.195-.466.292-.676.292-.32 0-.55-.326-.69-.978-.14-.652-.12-1.412.06-2.278.11-.536.26-.954.45-1.256.19-.302.525-.73 1.006-1.285.9-1.03 1.652-1.786 2.253-2.263.602-.486 1.133-.73 1.593-.73.32 0 .566.054.736.16.18.108.245.273.195.497-.02.098-.07.2-.15.307-.08.108-.17.205-.27.293-.09.088-.28.258-.572.51-1.932 1.705-2.954 2.81-3.064 3.316-.05.28.02.423.21.423.12 0 .39-.185.81-.555.42-.38.967-.872 1.638-1.475.67-.614 1.447-1.25 2.328-1.913.88-.662 1.862-1.3 2.944-1.913.6-.36 1.076-.54 1.427-.54.16 0 .275.214.345.642.07.427.06.86-.03 1.3-.05.213-.335.54-.856.977" style="-inkscape-font-specification:Brush Script MT" font-size="134.242" font-style="italic" font-family="Brush Script MT"/><path d="M121.21 92.31l.075-.35c3.134-2.65 5.292-4.504 6.474-5.565.47-1.198 1.125-1.796 1.966-1.796.21 0 .426.057.646.174l.03.277c-.07.118-.125.284-.165.498-.04.185-.04.53 0 1.037.05.496.08.915.09 1.256.01.34-.03.726-.12 1.154-.13.643-.41 1.26-.84 1.855-.422.583-.972 1.148-1.653 1.693-.68.535-1.527 1.085-2.54 1.65.342.058.617.087.827.087.412 0 .878-.097 1.398-.292.52-.204 1.062-.472 1.622-.803.56-.34 1.227-.78 1.998-1.314l-.195.98c-1.532 1.216-2.87 2.14-4.01 2.774-1.142.623-2.078.935-2.81.935-.94 0-1.732-.39-2.373-1.17-.37-.467-.57-.915-.6-1.343-.03-.43.03-1.008.18-1.738m6.068-2.235l.165-2.132c-.76.68-2.358 1.99-4.79 3.928.58.128.955.298 1.125.512.18.214.406.628.676 1.24.74-.27 1.342-.64 1.803-1.108.46-.478.776-1.125.946-1.943.02-.096.035-.184.045-.262l.03-.233" style="-inkscape-font-specification:Brush Script MT" font-size="134.242" font-style="italic" font-family="Brush Script MT"/><path d="M137.792 84.32h.646c.72-.924 1.337-1.576 1.847-1.956.51-.39 1.042-.584 1.593-.584.55 0 .8.122.75.365-.03.117-.315.434-.855.95-.53.516-.942.95-1.232 1.3.33.038.627.072.887.1.26.03.46.055.6.075-.78 1.03-1.712 2.088-2.793 3.168-.28-.02-.516-.034-.706-.043-.18-.02-.365-.035-.556-.044-.19-.02-.425-.038-.706-.058-.71.847-1.322 1.607-1.832 2.278-.5.662-.906 1.27-1.217 1.826-.31.555-.516 1.08-.616 1.577-.14.672.066 1.007.617 1.007.38 0 .92-.194 1.622-.584.7-.4 1.647-1.007 2.838-1.825l-.195.98c-3.295 2.852-5.588 4.278-6.88 4.278-.45 0-.78-.17-.99-.51-.2-.342-.246-.78-.136-1.315.08-.36.245-.79.496-1.285.26-.497.696-1.247 1.306-2.25-.17.118-.33.234-.48.35-.14.108-.277.21-.407.308-.12.088-.25.185-.39.292-.14.097-.28.2-.42.307l.194-1.008c1.232-.857 2.814-2.36 4.747-4.512-.15-.01-.29-.015-.42-.015-.12-.01-.27-.014-.45-.014-.592 0-1.043.04-1.353.116-.13.03-.25.064-.36.103-.11.03-.185.043-.225.043-.04 0-.055-.03-.045-.087.07-.32.375-.802.916-1.445.44-.545.836-.95 1.187-1.212.35-.263.746-.438 1.186-.526.45-.097 1.06-.146 1.832-.146" style="-inkscape-font-specification:Brush Script MT" font-size="134.242" font-style="italic" font-family="Brush Script MT"/><path d="M138.273 93.025l.195-.95c.66-.623 1.177-1.153 1.547-1.59-.29-.108-.496-.24-.616-.396-.11-.156-.136-.39-.076-.702.08-.35.326-.793.736-1.328.41-.536.88-1.037 1.412-1.504.54-.468 1.007-.77 1.397-.906.15-.068.29-.102.42-.102.2 0 .28.092.24.277-.03.166-.255.502-.676 1.008 2.133-.312 3.47-.467 4.01-.467.21 0 .35.02.42.058.15.088.247.292.287.613.05.322.04.643-.03.964-.04.206-.18.43-.42.673-.23.234-.616.58-1.157 1.037-.64.555-1.21 1.158-1.712 1.81-.49.653-.77 1.144-.84 1.475-.09.458.155.687.736.687.61 0 1.792-.604 3.545-1.81l-.195.977c-1 .846-1.822 1.513-2.463 2-.64.487-1.222.876-1.742 1.168-.52.283-.962.424-1.322.424-.42 0-.736-.185-.946-.555-.2-.38-.226-.925-.076-1.636.08-.417.286-.894.616-1.43.33-.535.77-1.115 1.322-1.738.56-.632 1.172-1.26 1.833-1.883-.29.057-.62.12-.992.188l-1.156.19c-.402.068-.707.122-.918.16-.87 1.208-1.997 2.303-3.38 3.287" style="-inkscape-font-specification:Brush Script MT" font-size="134.242" font-style="italic" font-family="Brush Script MT"/><path d="M154.916 90.907c-1.843 1.87-3.224 3.198-4.146 3.987-.91.788-1.607 1.183-2.088 1.183-.38 0-.7-.15-.96-.453-.26-.312-.427-.725-.497-1.24-.06-.527-.03-1.087.09-1.68.08-.39.19-.74.33-1.052.14-.312.35-.652.632-1.022.29-.38.65-.79 1.08-1.227.442-.438.973-.935 1.594-1.49.37-.34.68-.627.932-.86.25-.235.48-.39.69-.468.22-.088.552-.132.992-.132.32 0 .616.044.886.132.27.078.396.16.376.248-.03.175-.24.492-.63.95-.392.457-.982 1.017-1.773 1.678-.792.654-1.683 1.296-2.674 1.93-.312.573-.497 1.012-.557 1.313-.09.42.03.628.36.628.12 0 .34-.096.662-.29.33-.205.886-.59 1.667-1.154.78-.575 1.482-1.08 2.103-1.52.46-.33 1.016-.822 1.667-1.474.65-.662 1.172-1.16 1.562-1.49.89-.76 1.497-1.25 1.818-1.474.32-.234.606-.35.856-.35.24 0 .385.072.435.218.06.146.04.443-.06.89-.04.205-.095.37-.165.497-.06.127-.175.293-.345.497-.16.195-.486.56-.977 1.095-.49.536-1.07 1.168-1.742 1.9-.36.388-.696.816-1.006 1.284-.3.456-.476.802-.526 1.035-.1.507.055.76.465.76.34 0 .762-.137 1.262-.41.51-.272 1.3-.763 2.372-1.474l-.195.98c-1.392 1.05-2.418 1.815-3.08 2.292-.65.477-1.206.837-1.666 1.08-.46.244-.876.366-1.246.366-.84 0-1.162-.487-.96-1.46.07-.37.294-.867.675-1.49.38-.633.975-1.543 1.786-2.73" style="-inkscape-font-specification:Brush Script MT" font-size="134.242" font-style="italic" font-family="Brush Script MT"/><path d="M168.517 91.93l-.21.978c-1.282 1.022-2.32 1.815-3.11 2.38s-1.512 1.003-2.163 1.314c-.65.312-1.256.468-1.817.468-.55 0-1.012-.21-1.382-.628-.37-.43-.616-.984-.736-1.665-.12-.69-.1-1.42.06-2.19.13-.662.395-1.25.795-1.767.41-.516 1.132-1.183 2.163-2 1.222-.975 2.323-1.724 3.305-2.25.99-.535 1.737-.803 2.238-.803.36 0 .642.122.842.365.2.243.26.55.18.92-.06.312-.315.754-.766 1.33-.45.573-.926 1.075-1.427 1.503-.492.42-.857.628-1.097.628-.26 0-.36-.136-.3-.41.02-.077.04-.15.06-.218.02-.068.034-.136.044-.204.03-.116 0-.18-.09-.19-.08-.02-.185.015-.315.103-1.142.68-1.928 1.163-2.358 1.446-.43.27-.782.55-1.052.83-.27.283-.44.58-.51.892-.12.574-.026 1.04.285 1.402.31.36.77.54 1.382.54.63 0 1.436-.234 2.417-.7.98-.478 2.168-1.17 3.56-2.075" style="-inkscape-font-specification:Brush Script MT" font-size="134.242" font-style="italic" font-family="Brush Script MT"/><path d="M175.292 84.32h.645c.72-.924 1.337-1.576 1.848-1.956.51-.39 1.04-.584 1.592-.584.55 0 .8.122.75.365-.03.117-.314.434-.855.95-.53.516-.94.95-1.232 1.3.33.038.626.072.887.1.26.03.46.055.6.075-.78 1.03-1.712 2.088-2.793 3.168-.28-.02-.516-.034-.706-.043-.18-.02-.366-.035-.556-.044-.19-.02-.426-.038-.706-.058-.71.847-1.322 1.607-1.833 2.278-.5.662-.906 1.27-1.216 1.826-.31.555-.516 1.08-.616 1.577-.14.672.066 1.007.617 1.007.38 0 .92-.194 1.622-.584.7-.4 1.646-1.007 2.838-1.825l-.195.98c-3.295 2.852-5.588 4.278-6.88 4.278-.45 0-.78-.17-.99-.51-.202-.342-.247-.78-.137-1.315.08-.36.246-.79.496-1.285.26-.497.696-1.247 1.307-2.25-.17.118-.33.234-.482.35-.14.108-.275.21-.405.308-.12.088-.25.185-.39.292-.14.097-.28.2-.42.307l.194-1.008c1.232-.857 2.814-2.36 4.746-4.512-.15-.01-.29-.015-.42-.015-.12-.01-.27-.014-.45-.014-.592 0-1.042.04-1.353.116-.13.03-.25.064-.36.103-.11.03-.185.043-.225.043-.04 0-.056-.03-.045-.087.07-.32.375-.802.916-1.445.44-.545.836-.95 1.186-1.212.35-.263.746-.438 1.187-.526.45-.097 1.06-.146 1.832-.146" style="-inkscape-font-specification:Brush Script MT" font-size="134.242" font-style="italic" font-family="Brush Script MT"/><path d="M185.806 91.87l-.195.98c-.78.584-1.39.973-1.832 1.168-.44.194-1.03.272-1.772.233-1.612 1.5-2.914 2.25-3.906 2.25-.56 0-1.036-.18-1.427-.54-.38-.36-.645-.852-.796-1.475-.15-.623-.145-1.32.015-2.088.13-.623.486-1.315 1.067-2.074.58-.76 1.276-1.465 2.087-2.117.81-.662 1.642-1.193 2.493-1.592.86-.41 1.622-.613 2.283-.613.47 0 .826.074 1.067.22.24.136.335.33.285.584-.04.194-.2.418-.48.67.36.08.59.21.69.396.11.175.116.5.015.978-.1.467-.335 1.056-.706 1.767-.37.71-.816 1.378-1.336 2l.225.264h.225c.17 0 .346-.04.526-.118.18-.088.345-.175.496-.263.15-.098.475-.308.976-.63m-2.298-3.84c-.93.487-1.733.93-2.404 1.33-.67.39-1.256.788-1.757 1.197-.49.4-.846.803-1.066 1.212-.48 1.09-.725 1.678-.735 1.766-.14.642.25.964 1.17.964.432 0 1.228-.36 2.39-1.08-.07-.46-.066-.897.015-1.315.13-.614.39-1.237.78-1.87.39-.642.927-1.377 1.608-2.205" style="-inkscape-font-specification:Brush Script MT" font-size="134.242" font-style="italic" font-family="Brush Script MT"/><path d="M185.4 93.025l.196-.95c.66-.623 1.177-1.153 1.547-1.59-.29-.108-.495-.24-.616-.396-.11-.156-.135-.39-.075-.702.08-.35.326-.793.736-1.328.41-.536.882-1.037 1.412-1.504.54-.468 1.007-.77 1.397-.906.15-.068.29-.102.42-.102.2 0 .28.092.24.277-.03.166-.254.502-.675 1.008 2.133-.312 3.47-.467 4.01-.467.21 0 .35.02.42.058.152.088.247.292.287.613.05.322.04.643-.03.964-.04.206-.182.43-.422.673-.23.234-.616.58-1.157 1.037-.64.555-1.21 1.158-1.71 1.81-.492.653-.772 1.144-.842 1.475-.09.458.155.687.736.687.61 0 1.792-.604 3.545-1.81l-.196.977c-1.002.846-1.823 1.513-2.464 2-.64.487-1.22.876-1.742 1.168-.52.283-.962.424-1.322.424-.42 0-.736-.185-.946-.555-.2-.38-.226-.925-.075-1.636.08-.417.285-.894.615-1.43.33-.535.77-1.115 1.322-1.738.56-.632 1.172-1.26 1.833-1.883-.29.057-.62.12-.992.188l-1.156.19c-.4.068-.706.122-.916.16-.87 1.208-1.997 2.303-3.38 3.287" style="-inkscape-font-specification:Brush Script MT" font-size="134.242" font-style="italic" font-family="Brush Script MT"/><path d="M197.057 89.286c1.793-1.343 3.47-2.34 5.032-2.993 1.57-.653 2.748-.98 3.53-.98.21 0 .384.09.525.264.15.166.255.36.315.584.06.225.08.39.06.498-.04.175-.14.306-.3.394-.15.078-.416.175-.796.292.04.156.09.355.15.6.06.242.105.442.135.598.03.146.034.277.014.394-.05.233-.385.672-1.006 1.314-.61.633-1.047 1.1-1.307 1.402-.26.302-.435.672-.525 1.11-.15.72.115 1.08.796 1.08.702 0 1.934-.637 3.696-1.913l-.195.89c-3.093 2.736-5.186 4.104-6.278 4.104-.39 0-.645-.127-.766-.38-.11-.243-.115-.61-.015-1.095.162-.77.677-1.885 1.548-3.345-1.782 1.577-3.1 2.7-3.95 3.373-.85.662-1.507.993-1.968.993-.22 0-.455-.184-.706-.554-.25-.37-.445-.847-.585-1.43-.132-.595-.132-1.208 0-1.84.09-.46.21-.838.36-1.14.16-.312.4-.628.72-.95.33-.32.836-.744 1.517-1.27m7.525-1.606c-2.843 1.158-4.9 2.142-6.173 2.95-1.273.808-2 1.64-2.18 2.497-.06.31-.054.57.016.774.07.196.2.293.39.293.11 0 .316-.068.616-.205 1.182-.603 2.31-1.387 3.38-2.35 1.072-.974 2.388-2.293 3.95-3.958M223.103 91.74l-.226 1.08c-2.643 2.697-4.62 4.045-5.933 4.045-.71 0-1.19-.375-1.442-1.124-.25-.76-.25-1.752 0-2.978.21-.993.696-2.17 1.457-3.534.76-1.373 1.687-2.76 2.778-4.162 1.102-1.412 2.193-2.638 3.275-3.68 1.08-1.05 2.032-1.786 2.854-2.205.34-.174.595-.262.766-.262.21 0 .33.093.36.278.03.175 0 .482-.09.92-.27 1.353-1.177 3.018-2.72 4.994-1.53 1.966-3.524 3.977-5.977 6.03-.2.507-.33.896-.39 1.17-.12.622-.086 1.128.105 1.518.2.39.546.584 1.037.584.25 0 .536-.093.856-.278.33-.194.686-.433 1.067-.715.38-.283 1.12-.843 2.223-1.68m-3.95-2.63c.62-.495 1.236-1.06 1.847-1.693.62-.633 1.22-1.31 1.802-2.03.58-.72 1.052-1.368 1.412-1.942.37-.574.586-1.007.646-1.3.04-.223-.02-.335-.18-.335-.06 0-.185.053-.376.16-.71.487-1.592 1.44-2.643 2.862-1.05 1.412-1.887 2.838-2.508 4.28" style="-inkscape-font-specification:Brush Script MT" font-size="134.242" font-style="italic" font-family="Brush Script MT"/><path d="M230.117 91.9l-.225 1.066c-1.222 1.217-2.318 2.137-3.29 2.76-.96.613-1.737.92-2.328.92-.82 0-1.347-.418-1.577-1.256-.23-.837-.24-1.752-.03-2.745.08-.38.195-.74.346-1.08.15-.35.3-.638.45-.862.16-.224.44-.575.84-1.052 1.864-2.15 3.386-3.226 4.568-3.226.61 0 .872.23.782.686-.07.312-.37.8-.902 1.46-.53.663-.98 1.135-1.35 1.417-1.043.818-1.73 1.387-2.06 1.71-.33.32-.535.685-.615 1.094-.07.35.005.644.225.877.22.234.546.35.977.35.47 0 1.02-.165 1.652-.496.64-.34 1.486-.88 2.537-1.62m.12-8.674c-.17 0-.315-.053-.435-.16-.12-.117-.165-.244-.135-.38.08-.36.79-1.28 2.133-2.76.58-.614 1.04-1.018 1.382-1.212.35-.205.806-.307 1.366-.307.74 0 1.062.248.962.745-.06.282-.48.75-1.262 1.402-.78.652-1.597 1.26-2.448 1.825-.852.564-1.372.846-1.563.846" style="-inkscape-font-specification:Brush Script MT" font-size="134.242" font-style="italic" font-family="Brush Script MT"/><path d="M236.846 91.93c-1.08.973-2.042 1.8-2.884 2.482-.83.68-1.502 1.192-2.012 1.533-.5.33-.83.497-.992.497-.26 0-.51-.205-.75-.614-.24-.41-.41-.93-.51-1.562-.102-.633-.087-1.275.044-1.928.19-.944.856-1.893 1.997-2.847 1.14-.963 2.378-1.76 3.71-2.394 1.33-.633 2.298-.95 2.9-.95.49 0 .905.302 1.245.906 1.102-1.567 2.123-2.96 3.064-4.176.95-1.217 1.722-2.123 2.313-2.717.59-.594.986-.89 1.186-.89.22 0 .4.106.54.32.14.204.185.438.135.7-.1.507-.66 1.378-1.682 2.615-1.01 1.226-2.008 2.424-2.99 3.592-.98 1.168-1.857 2.322-2.628 3.46-.76 1.13-1.237 2.177-1.427 3.14-.18.877.02 1.315.6 1.315.352 0 .827-.19 1.428-.57.61-.39 1.502-1.036 2.674-1.942l-.226 1.066c-2.713 2.716-4.656 4.074-5.828 4.074-.47 0-.776-.175-.916-.525-.13-.35-.125-.872.015-1.563.19-.934.52-1.942.99-3.023m1.834-3.564c-.952.292-2.094.765-3.426 1.417-1.332.642-2.148 1.085-2.448 1.33-.26.193-.53.558-.81 1.094-.282.535-.452.94-.512 1.212-.03.164-.01.3.06.408.08.107.195.16.346.16.14 0 .31-.058.51-.175.21-.117.546-.345 1.007-.686.47-.34.776-.56.916-.657.2-.146.64-.458 1.322-.935.69-.487 1.196-.866 1.517-1.14.33-.272.626-.573.886-.904.26-.34.47-.715.63-1.124" style="-inkscape-font-specification:Brush Script MT" font-size="134.242" font-style="italic" font-family="Brush Script MT"/><path d="M245.108 92.426l-.075.365c-.12.575-.07 1.023.15 1.344.23.322.58.482 1.052.482.49 0 1.02-.112 1.592-.336.57-.223 1.15-.52 1.742-.89.6-.37 1.34-.867 2.222-1.49l-.18.89c-1.402 1.325-2.674 2.342-3.815 3.053-1.132.7-2.208 1.05-3.23 1.05-.89 0-1.532-.334-1.922-1.006-.38-.672-.45-1.592-.21-2.76.21-1.022.645-1.947 1.306-2.775.662-.837 1.643-1.718 2.945-2.643.89-.634 1.748-1.11 2.57-1.432.82-.32 1.526-.482 2.117-.482.47 0 .82.107 1.05.32.23.206.302.517.21.936-.12.613-.48 1.227-1.08 1.84-.59.604-1.432 1.207-2.524 1.81-1.09.595-2.398 1.17-3.92 1.724m.346-.95c.97-.34 1.827-.764 2.568-1.27.75-.506 1.327-.988 1.727-1.445.4-.467.62-.807.66-1.022.05-.224-.03-.336-.24-.336-.18 0-.5.112-.96.336-.452.224-.923.516-1.413.877-.48.36-.937.783-1.367 1.27-.43.487-.756 1.017-.976 1.592" style="-inkscape-font-specification:Brush Script MT" font-size="134.242" font-style="italic" font-family="Brush Script MT"/><path d="M251.642 92.31l.075-.35c3.135-2.65 5.293-4.504 6.474-5.565.472-1.198 1.128-1.796 1.97-1.796.21 0 .425.057.645.174l.03.277c-.07.118-.125.284-.165.498-.04.185-.04.53 0 1.037.05.496.08.915.09 1.256.01.34-.03.726-.12 1.154-.13.643-.41 1.26-.84 1.855-.422.583-.973 1.148-1.654 1.693-.68.535-1.527 1.085-2.538 1.65.34.058.616.087.826.087.41 0 .876-.097 1.397-.292.522-.204 1.062-.472 1.623-.803.56-.34 1.227-.78 1.998-1.314l-.194.98c-1.532 1.216-2.87 2.14-4.01 2.774-1.142.623-2.08.935-2.81.935-.94 0-1.732-.39-2.373-1.17-.37-.467-.57-.915-.6-1.343-.03-.43.03-1.008.18-1.738m6.068-2.235l.166-2.132c-.76.68-2.358 1.99-4.792 3.928.58.128.957.298 1.127.512.18.214.406.628.677 1.24.74-.27 1.342-.64 1.802-1.108.46-.478.775-1.125.946-1.943.02-.096.035-.184.045-.262l.03-.233M269.6 93.127l.21-1.022c1.712-1.48 3.21-2.872 4.49-4.177 1.282-1.304 2.3-2.34 3.05-3.11s1.382-1.31 1.892-1.62c.52-.322 1.122-.483 1.803-.483.34 0 .486.127.436.38-.05.204-.255.506-.615.905-.35.4-.786.808-1.307 1.227-.68.545-1.382 1.23-2.103 2.06-.71.816-1.542 1.863-2.493 3.138.63-.41 1.356-.89 2.178-1.445.82-.565 1.487-1.003 1.997-1.315.51-.32 1.002-.574 1.472-.76.47-.184.926-.276 1.366-.276.28 0 .45.047.51.145.07.097.076.287.016.57-.15.74-.486 1.464-1.006 2.175-.51.7-1.192 1.43-2.043 2.19-.84.76-1.858 1.587-3.05 2.483.32.126.666.19 1.037.19 1.162 0 2.894-.862 5.197-2.585l-.21 1.05c-.9.663-1.778 1.286-2.63 1.87-.84.585-1.616 1.052-2.327 1.402-.71.35-1.337.526-1.878.526-.2 0-.41-.024-.63-.073-.21-.04-.406-.088-.586-.146-.18-.068-.41-.16-.69-.277-.272-.117-.482-.2-.632-.25-.33.08-.516.118-.556.118-.35 0-.736-.136-1.156-.41-.46.624-.992 1.428-1.593 2.41-.59.994-1.082 1.782-1.473 2.366-.39.585-.866 1.144-1.427 1.68-.3.243-.5.365-.6.365-.43 0-.57-.37-.42-1.11.13-.643.4-1.315.81-2.016.41-.69.87-1.348 1.382-1.972.51-.623 1.06-1.25 1.652-1.883.6-.644 1.027-1.12 1.277-1.432 2.124-2.648 3.82-4.902 5.093-6.762-2.864 2.726-5.012 4.683-6.444 5.87m5.947.716c1.202-1.012 2.118-1.874 2.75-2.584.63-.71.985-1.256 1.066-1.636.08-.36-.065-.54-.436-.54-.5 0-1.287.404-2.358 1.212-1.073.798-2.23 1.88-3.47 3.242.75-.078 1.246-.102 1.486-.073.25.02.57.146.96.38" style="-inkscape-font-specification:Brush Script MT" font-size="134.242" font-style="italic" font-family="Brush Script MT"/><path d="M284.822 89.286c1.793-1.343 3.47-2.34 5.032-2.993 1.573-.653 2.75-.98 3.53-.98.21 0 .386.09.526.264.15.166.255.36.315.584.06.225.08.39.06.498-.04.175-.14.306-.3.394-.15.078-.416.175-.796.292.04.156.09.355.15.6.06.242.104.442.134.598.03.146.035.277.015.394-.05.233-.386.672-1.007 1.314-.61.633-1.046 1.1-1.307 1.402-.26.302-.435.672-.526 1.11-.15.72.116 1.08.797 1.08.7 0 1.932-.637 3.695-1.913l-.196.89c-3.094 2.736-5.187 4.104-6.278 4.104-.39 0-.646-.127-.766-.38-.11-.243-.115-.61-.015-1.095.16-.77.676-1.885 1.547-3.345-1.783 1.577-3.1 2.7-3.95 3.373-.852.662-1.508.993-1.968.993-.22 0-.456-.184-.706-.554-.25-.37-.446-.847-.586-1.43-.13-.595-.13-1.208 0-1.84.09-.46.21-.838.36-1.14.16-.312.4-.628.72-.95.332-.32.838-.744 1.518-1.27m7.526-1.606c-2.844 1.158-4.902 2.142-6.174 2.95-1.27.808-1.997 1.64-2.178 2.497-.06.31-.055.57.015.774.07.196.202.293.392.293.11 0 .315-.068.616-.205 1.18-.603 2.308-1.387 3.38-2.35 1.07-.974 2.388-2.293 3.95-3.958" style="-inkscape-font-specification:Brush Script MT" font-size="134.242" font-style="italic" font-family="Brush Script MT"/><path d="M294.638 93.025l.196-.95c.66-.623 1.176-1.153 1.547-1.59-.29-.108-.495-.24-.615-.396-.11-.156-.135-.39-.075-.702.08-.35.325-.793.736-1.328.41-.536.88-1.037 1.412-1.504.54-.468 1.006-.77 1.397-.906.15-.068.29-.102.42-.102.2 0 .28.092.24.277-.03.166-.255.502-.675 1.008 2.133-.312 3.47-.467 4.01-.467.21 0 .35.02.42.058.15.088.246.292.286.613.05.322.04.643-.03.964-.04.206-.18.43-.42.673-.23.234-.616.58-1.157 1.037-.642.555-1.213 1.158-1.713 1.81-.49.653-.772 1.144-.842 1.475-.09.458.156.687.736.687.612 0 1.794-.604 3.546-1.81l-.195.977c-1 .846-1.822 1.513-2.462 2-.64.487-1.222.876-1.743 1.168-.52.283-.96.424-1.322.424-.42 0-.736-.185-.946-.555-.2-.38-.225-.925-.075-1.636.08-.417.285-.894.616-1.43.33-.535.77-1.115 1.322-1.738.56-.632 1.17-1.26 1.832-1.883-.29.057-.62.12-.99.188l-1.158.19c-.4.068-.706.122-.916.16-.87 1.208-1.998 2.303-3.38 3.287" style="-inkscape-font-specification:Brush Script MT" font-size="134.242" font-style="italic" font-family="Brush Script MT"/><path d="M306.295 89.286c1.792-1.343 3.47-2.34 5.032-2.993 1.572-.653 2.748-.98 3.53-.98.21 0 .385.09.525.264.15.166.255.36.316.584.06.225.08.39.06.498-.04.175-.14.306-.3.394-.15.078-.416.175-.797.292.04.156.09.355.15.6.06.242.106.442.137.598.03.146.035.277.015.394-.05.233-.386.672-1.007 1.314-.61.633-1.046 1.1-1.307 1.402-.26.302-.435.672-.525 1.11-.15.72.115 1.08.796 1.08.7 0 1.93-.637 3.694-1.913l-.195.89c-3.096 2.736-5.19 4.104-6.28 4.104-.39 0-.646-.127-.766-.38-.11-.243-.115-.61-.015-1.095.16-.77.675-1.885 1.546-3.345-1.783 1.577-3.1 2.7-3.95 3.373-.852.662-1.508.993-1.968.993-.22 0-.456-.184-.706-.554-.25-.37-.446-.847-.586-1.43-.13-.595-.13-1.208 0-1.84.09-.46.21-.838.36-1.14.16-.312.4-.628.722-.95.33-.32.836-.744 1.517-1.27m7.525-1.606c-2.844 1.158-4.902 2.142-6.174 2.95-1.27.808-1.997 1.64-2.178 2.497-.06.31-.055.57.015.774.07.196.2.293.39.293.11 0 .316-.068.617-.205 1.182-.603 2.308-1.387 3.38-2.35 1.07-.974 2.388-2.293 3.95-3.958M327.428 92.426l-.075.365c-.12.575-.07 1.023.15 1.344.23.322.58.482 1.052.482.49 0 1.02-.112 1.592-.336.57-.223 1.152-.52 1.743-.89.6-.37 1.34-.867 2.223-1.49l-.18.89c-1.403 1.325-2.674 2.342-3.816 3.053-1.13.7-2.208 1.05-3.23 1.05-.89 0-1.53-.334-1.922-1.006-.38-.672-.45-1.592-.21-2.76.21-1.022.646-1.947 1.307-2.775.66-.837 1.642-1.718 2.944-2.643.89-.634 1.747-1.11 2.568-1.432.82-.32 1.527-.482 2.118-.482.47 0 .82.107 1.05.32.232.206.302.517.212.936-.12.613-.48 1.227-1.082 1.84-.59.604-1.432 1.207-2.523 1.81-1.093.595-2.4 1.17-3.922 1.724m.346-.95c.97-.34 1.827-.764 2.568-1.27.75-.506 1.327-.988 1.728-1.445.4-.467.62-.807.66-1.022.05-.224-.03-.336-.24-.336-.18 0-.5.112-.96.336-.452.224-.922.516-1.413.877-.48.36-.936.783-1.367 1.27-.43.487-.756 1.017-.976 1.592" style="-inkscape-font-specification:Brush Script MT" font-size="134.242" font-style="italic" font-family="Brush Script MT"/><path d="M341.323 91.74l-.225 1.08c-2.644 2.697-4.622 4.045-5.934 4.045-.71 0-1.19-.375-1.442-1.124-.25-.76-.25-1.752 0-2.978.21-.993.696-2.17 1.457-3.534.76-1.373 1.687-2.76 2.778-4.162 1.102-1.412 2.193-2.638 3.275-3.68 1.08-1.05 2.033-1.786 2.854-2.205.34-.174.595-.262.766-.262.21 0 .33.093.36.278.03.175 0 .482-.09.92-.27 1.353-1.177 3.018-2.72 4.994-1.53 1.966-3.524 3.977-5.977 6.03-.2.507-.33.896-.39 1.17-.12.622-.086 1.128.105 1.518.2.39.546.584 1.037.584.25 0 .536-.093.856-.278.33-.194.686-.433 1.067-.715.38-.283 1.12-.843 2.223-1.68m-3.95-2.63c.62-.495 1.236-1.06 1.847-1.693.62-.633 1.222-1.31 1.802-2.03.58-.72 1.052-1.368 1.412-1.942.37-.574.586-1.007.646-1.3.04-.223-.02-.335-.18-.335-.06 0-.185.053-.375.16-.71.487-1.593 1.44-2.644 2.862-1.05 1.412-1.887 2.838-2.508 4.28M365.273 92.28c-.16-.448-.456-.852-.886-1.212-.42-.36-.92-.648-1.502-.862-.58-.224-1.202-.39-1.863-.496-1.962-.292-3.72-.93-5.272-1.913-.13-.078-.255-.244-.376-.497-.12-.253-.155-.496-.105-.73.18-.857.505-1.713.976-2.57.47-.866.986-1.543 1.547-2.03.91-.808 2.388-1.514 4.43-2.117 2.054-.604 4.287-.906 6.7-.906 1.442 0 2.534.107 3.275.322.75.213 1.076.544.976.992-.15.73-.37 1.294-.66 1.694-.28.4-.552.666-.812.803-.26.125-.71.3-1.352.524-.67.215-1.267.44-1.787.672-.51.234-.957.458-1.337.672-.37.214-.596.32-.676.32-.1 0-.14-.038-.12-.116.03-.165.255-.413.676-.744.43-.34.93-.638 1.502-.89.61-.283.926-.464.946-.54.02-.128-.275-.19-.886-.19-1.853 0-3.6.16-5.242.48-1.633.322-2.96.745-3.98 1.27-1.012.527-1.573 1.062-1.683 1.607-.07.34.065.584.405.73.35.137 1.132.37 2.344.7 1.22.332 2.293.712 3.214 1.14 1.332.604 2.278 1.232 2.84 1.884.57.652.77 1.382.6 2.19-.11.555-.36 1.114-.75 1.68-.392.554-.903 1.065-1.533 1.532-.62.468-1.312.852-2.073 1.154-.64.243-1.432.472-2.374.686-.93.215-1.932.38-3.004.497-1.07.125-2.083.19-3.034.19-1.752 0-3.13-.162-4.13-.483-1.002-.322-1.438-.808-1.307-1.46.06-.293.336-.745.827-1.36.49-.622 1-1.04 1.532-1.254.46-.166.89-.258 1.29-.278.41-.03.606.015.586.132-.01.03-.035.058-.075.087-.03.03-.07.054-.12.073l-.12.06c-.22.076-.395.14-.525.188-.13.04-.24.083-.33.132-.08.04-.13.097-.15.175-.04.204.976.307 3.05.307 1.8 0 3.288-.065 4.46-.19 1.182-.128 2.248-.356 3.2-.687.95-.33 1.847-.79 2.688-1.373M377.17 85.373c-.25 0-.47-.093-.66-.278-.182-.185-.242-.418-.182-.7.09-.43.396-.906.917-1.432.53-.525 1.02-.788 1.472-.788.3 0 .53.092.69.277.17.175.22.433.15.774-.09.42-.395.88-.915 1.387-.51.507-1.002.76-1.472.76m-.316 6.527l-.225 1.066c-1.223 1.217-2.32 2.137-3.29 2.76-.962.613-1.738.92-2.33.92-.82 0-1.346-.418-1.576-1.256-.23-.837-.24-1.752-.03-2.745.08-.38.195-.74.345-1.08.15-.35.3-.638.45-.862.16-.224.44-.575.84-1.052 1.864-2.15 3.386-3.226 4.567-3.226.61 0 .872.23.782.686-.072.312-.372.8-.903 1.46-.53.663-.98 1.135-1.352 1.417-1.04.818-1.727 1.387-2.057 1.71-.33.32-.536.685-.616 1.094-.07.35.005.644.225.877.22.234.546.35.976.35.47 0 1.022-.165 1.653-.496.64-.34 1.487-.88 2.538-1.62" style="-inkscape-font-specification:Brush Script MT" font-size="134.242" font-style="italic" font-family="Brush Script MT"/><path d="M388.465 92.88l-5.813 3.985c-1.883 2.356-3.52 4.113-4.912 5.272-1.392 1.168-2.368 1.752-2.93 1.752-.3 0-.414-.18-.344-.54.15-.702.7-1.598 1.652-2.688.38-.428.8-.847 1.262-1.256.46-.41.886-.764 1.277-1.066.4-.292.92-.662 1.562-1.11.64-.438 1.075-.74 1.306-.905 1.41-1.986 2.448-3.505 3.11-4.556-1.143.972-2.13 1.77-2.96 2.394-.83.623-1.577 1.105-2.238 1.445-.65.33-1.212.496-1.683.496-.51 0-.9-.394-1.17-1.183-.262-.798-.307-1.616-.136-2.453.08-.39.254-.8.524-1.227.28-.428.666-.886 1.157-1.373.502-.486 1.107-.983 1.818-1.49.72-.515 1.542-1.016 2.464-1.503 1.742-.945 3.044-1.417 3.905-1.417.64 0 .916.23.826.687-.13.632-.956 1.25-2.478 1.854-.92.36-1.863.838-2.824 1.432-.95.594-1.756 1.227-2.417 1.9-.65.66-1.032 1.26-1.142 1.795-.05.263-.03.472.06.628.1.156.256.233.467.233.35 0 .78-.155 1.292-.467.52-.31 1.3-.86 2.342-1.65.48-.36 1.136-.938 1.968-1.737.83-.808 1.507-1.42 2.027-1.84.52-.428.957-.642 1.307-.642.2 0 .35.064.45.19.1.117.126.293.076.526-.09.448-.406 1.1-.946 1.957-.54.847-1.488 2.24-2.84 4.177l4.176-2.57-.195.95" style="-inkscape-font-specification:Brush Script MT" font-size="134.242" font-style="italic" font-family="Brush Script MT"/><path d="M395.772 91.74l-.225 1.08c-2.644 2.697-4.62 4.045-5.933 4.045-.71 0-1.192-.375-1.442-1.124-.25-.76-.25-1.752 0-2.978.21-.993.696-2.17 1.457-3.534.76-1.373 1.686-2.76 2.778-4.162 1.1-1.412 2.193-2.638 3.274-3.68 1.082-1.05 2.033-1.786 2.854-2.205.34-.174.596-.262.766-.262.21 0 .33.093.36.278.03.175 0 .482-.09.92-.27 1.353-1.176 3.018-2.718 4.994-1.532 1.966-3.525 3.977-5.978 6.03-.2.507-.33.896-.39 1.17-.12.622-.086 1.128.104 1.518.2.39.546.584 1.037.584.25 0 .535-.093.856-.278.33-.194.686-.433 1.066-.715.38-.283 1.12-.843 2.222-1.68m-3.95-2.63c.62-.495 1.237-1.06 1.847-1.693.62-.633 1.22-1.31 1.802-2.03.58-.72 1.05-1.368 1.412-1.942.37-.574.586-1.007.646-1.3.04-.223-.02-.335-.18-.335-.06 0-.186.053-.376.16-.71.487-1.592 1.44-2.644 2.862-1.05 1.412-1.887 2.838-2.508 4.28" style="-inkscape-font-specification:Brush Script MT" font-size="134.242" font-style="italic" font-family="Brush Script MT"/><path d="M405.265 91.87l-.195.98c-.78.584-1.392.973-1.832 1.168-.44.194-1.032.272-1.773.233-1.612 1.5-2.914 2.25-3.905 2.25-.56 0-1.037-.18-1.427-.54-.38-.36-.646-.852-.796-1.475-.15-.623-.146-1.32.015-2.088.13-.623.485-1.315 1.066-2.074.58-.76 1.277-1.465 2.088-2.117.81-.662 1.642-1.193 2.493-1.592.86-.41 1.622-.613 2.283-.613.47 0 .826.074 1.066.22.24.136.335.33.284.584-.04.194-.2.418-.48.67.36.08.59.21.69.396.11.175.116.5.016.978-.1.467-.336 1.056-.706 1.767-.37.71-.816 1.378-1.337 2l.225.264h.226c.17 0 .345-.04.525-.118.18-.088.346-.175.496-.263l.975-.63m-2.298-3.84c-.93.487-1.732.93-2.403 1.33-.67.39-1.257.788-1.758 1.197-.49.4-.846.803-1.066 1.212-.48 1.09-.726 1.678-.736 1.766-.14.642.25.964 1.172.964.43 0 1.226-.36 2.388-1.08-.07-.46-.065-.897.015-1.315.13-.614.39-1.237.78-1.87.39-.642.926-1.377 1.607-2.205M425.416 87.592l1.502-6.556c-.97.136-1.948.384-2.93.744-.98.35-1.867.726-2.658 1.125-.78.4-1.437.774-1.967 1.124-.53.35-.807.57-.827.656-.02.098.106.146.376.146.1 0 .245-.005.435-.014.2-.02.47-.044.812-.073.18 0 .264.03.254.087-.01.03-.05.07-.12.117-.07.048-.115.072-.135.072-1.013.36-1.92.657-2.72.89-.79.225-1.242.337-1.352.337-.18 0-.245-.113-.195-.337.12-.584.435-1.275.946-2.074.51-.81 1.136-1.514 1.877-2.118.52-.438 1.22-.89 2.103-1.358.88-.467 1.817-.89 2.808-1.27.992-.38 1.978-.682 2.96-.906.98-.233 1.857-.35 2.628-.35.46 0 .796.087 1.006.263.22.166.266.546.136 1.14-.05.243-.226.9-.526 1.97-.29 1.072-.55 2.143-.78 3.214l3.41-2.965c.54-.468 1.09-.95 1.65-1.446.562-.507.937-.818 1.127-.935.19-.128.37-.19.54-.19.35 0 .496.145.436.437-.08.4-.676 1.31-1.788 2.73-.33.157-.72.274-1.17.35l-4.928 4.426-2.103 7.93c-.08.262-.075.457.015.584.09.126.245.19.466.19.28 0 .706-.137 1.276-.41.58-.282 1.347-.7 2.3-1.255.04-.02.1-.03.18-.03.18 0 .254.078.224.234-.05.244-.47.735-1.262 1.475-.79.73-1.672 1.383-2.643 1.958-.962.584-1.788.876-2.48.876-.51 0-.815-.19-.915-.57-.09-.38-.045-1.007.135-1.883l.18-.846c.06-.283.15-.69.27-1.227l.376-1.665c.14-.574.305-1.29.495-2.146-1.442 1.226-2.64 2.278-3.59 3.154-.95.876-1.677 1.562-2.178 2.06-.49.495-.806.822-.946.977-.61.575-1.296 1.08-2.057 1.52-.76.437-1.302.656-1.622.656-.32 0-.43-.238-.33-.715.12-.584.536-1.266 1.247-2.045.72-.78 1.562-1.455 2.523-2.03.26-.126.752-.355 1.473-.686l6.053-5.345M443.996 87.592l1.502-6.556c-.97.136-1.947.384-2.93.744-.98.35-1.866.726-2.657 1.125-.78.4-1.436.774-1.967 1.124-.53.35-.806.57-.826.656-.02.098.105.146.375.146.1 0 .246-.005.436-.014.2-.02.47-.044.81-.073.18 0 .266.03.256.087-.01.03-.05.07-.12.117-.07.048-.115.072-.135.072-1.012.36-1.92.657-2.72.89-.79.225-1.24.337-1.352.337-.18 0-.245-.113-.195-.337.12-.584.436-1.275.947-2.074.51-.81 1.136-1.514 1.877-2.118.52-.438 1.222-.89 2.103-1.358.88-.467 1.817-.89 2.81-1.27.99-.38 1.977-.682 2.958-.906.98-.233 1.858-.35 2.63-.35.46 0 .795.087 1.005.263.22.166.265.546.135 1.14-.05.243-.225.9-.526 1.97-.29 1.072-.55 2.143-.78 3.214l3.41-2.965c.54-.468 1.09-.95 1.65-1.446.562-.507.938-.818 1.128-.935.19-.128.37-.19.54-.19.35 0 .496.145.436.437-.08.4-.676 1.31-1.787 2.73-.332.157-.722.274-1.173.35l-4.927 4.426-2.103 7.93c-.08.262-.075.457.015.584.09.126.246.19.466.19.28 0 .706-.137 1.277-.41.58-.282 1.347-.7 2.298-1.255.04-.02.1-.03.18-.03.18 0 .256.078.226.234-.05.244-.472.735-1.263 1.475-.79.73-1.672 1.383-2.644 1.958-.96.584-1.787.876-2.478.876-.51 0-.816-.19-.916-.57-.092-.38-.047-1.007.134-1.883l.18-.846c.06-.283.15-.69.27-1.227l.376-1.665c.14-.574.305-1.29.496-2.146-1.442 1.226-2.64 2.278-3.59 3.154-.952.876-1.678 1.562-2.178 2.06-.49.495-.807.822-.947.977-.61.575-1.296 1.08-2.057 1.52-.76.437-1.3.656-1.622.656-.32 0-.43-.238-.33-.715.12-.584.536-1.266 1.247-2.045.72-.78 1.563-1.455 2.524-2.03.26-.126.752-.355 1.473-.686l6.053-5.345M455.247 96.924l-.796-.658c-.11-.116-.155-.238-.134-.365.03-.125.355-.563.976-1.313.45-.535 1.06-1.27 1.832-2.205.77-.935 1.392-1.704 1.863-2.307.47-.604 1.06-1.392 1.772-2.366.71-.984 1.37-1.943 1.982-2.878 1.412-2.15 2.178-3.524 2.298-4.118.15-.7-.055-1.05-.616-1.05-.42 0-1.06.208-1.922.627-.86.41-1.778.95-2.75 1.622-.97.672-1.806 1.372-2.507 2.103-.7.73-1.107 1.372-1.217 1.927-.02.088-.01.156.03.205.04.04.125.058.255.058.24 0 .66-.136 1.262-.41.26-.116.376-.096.345.06-.03.155-.495.56-1.396 1.212-.892.642-1.518.963-1.878.963-.31 0-.69-.258-1.142-.774-.45-.525-.63-1.002-.54-1.43.04-.166.275-.56.706-1.183.44-.624 1.01-1.324 1.712-2.103.7-.79 1.412-1.47 2.133-2.045.83-.67 1.742-1.27 2.734-1.796 1-.527 1.936-.935 2.808-1.228.88-.292 1.572-.438 2.072-.438.72 0 1.227.268 1.518.804.3.525.35 1.265.15 2.22-.26 1.265-1.147 3.095-2.66 5.49-1.51 2.395-3.66 5.2-6.443 8.41l.03.322c.02.108.02.21 0 .307 0 .02-.02.06-.06.117-.04.05-.09.102-.15.16-.05.06-.08.098-.09.117l-1.457 1.754c-.16.204-.306.306-.436.306-.12 0-.215-.04-.285-.116" style="-inkscape-font-specification:Brush Script MT" font-size="134.242" font-style="italic" font-family="Brush Script MT"/><path d="M48.61 20.65c0 8.558-3.618 14.76-10.854 18.604-2.61 1.385-5.6 2.295-8.968 2.73-1.992.247-5.005.37-9.038.37-1.827 0-4.187-.05-7.082-.154-2.87-.103-5.243-.155-7.117-.155H1.39c-.214 0-.344-.03-.392-.093-.023-.062-.035-.134-.035-.217V40.34c0-.228.143-.34.428-.34h5.266c.38 0 .57-.31.57-.932 0-.31.012-2.966.035-7.968.023-5.023.035-7.762.035-8.217 0-.496-.024-2.925-.07-7.287-.05-4.36-.072-6.718-.072-7.07 0-4.32-.463-6.48-1.388-6.48H.355C.12 2.046 0 1.943 0 1.736V.31C0 .207.024.134.07.093.12.03.238 0 .428 0h23.7c3.416 0 6.583.403 9.5 1.21 2.92.785 5.707 2.22 8.364 4.31 4.413 3.472 6.62 8.516 6.62 15.13m-7.723 3.69c0-3.1-.344-5.695-1.032-7.782-.782-2.336-2.182-4.682-4.2-7.04-2.157-2.48-4.91-4.36-8.254-5.642-3.178-1.22-6.262-1.83-9.252-1.83-.996 0-1.85.062-2.562.186-.522.104-.783.507-.783 1.21 0 .31-.012 2.832-.035 7.565-.024 4.734-.036 7.42-.036 8.062v12.37c0 5.355.392 8.104 1.175 8.25 1.542.31 4.53.464 8.967.464 4.935 0 8.6-1.065 10.996-3.194 3.345-2.956 5.017-7.163 5.017-12.62" style="-inkscape-font-specification:Californian FB" font-size="301.082" font-weight="bold" font-family="Californian FB"/><path d="M73.737 43.946v2.235c-3.062.512-5.006.95-5.833 1.318-.402.184-.704.53-.905 1.04-.202.512-.303 2.084-.303 4.717 0 4.206.067 7.92.2 11.146-1.518.246-3.183.542-4.993.89-4.738.94-8.157 1.53-10.258 1.776-2.078.245-4.313.367-6.704.367-5.564 0-9.967-.633-13.207-1.898-4.045-1.613-7.14-4.104-9.286-7.472-2.146-3.37-3.22-7.38-3.22-12.035 0-8.268 3.342-14.637 10.024-19.108 4.782-3.184 11.096-4.777 18.94-4.777 5.25 0 11.173.694 17.766 2.082-.045 1.205-.067 2.175-.067 2.91 0 2.388.11 5.777.335 10.166h-3.42c-.938-3.388-1.888-5.735-2.848-7.042-.94-1.327-2.414-2.378-4.425-3.154-1.99-.796-4.425-1.194-7.308-1.194-3.777 0-6.94.704-9.486 2.113-2.525 1.408-4.49 3.593-5.9 6.553-1.385 2.94-2.077 6.328-2.077 10.166 0 6.125 1.575 10.76 4.726 13.903 3.172 3.143 7.34 4.715 12.502 4.715 2.593 0 5.397-.53 8.414-1.592v-9.432c0-2.06-.11-3.388-.335-3.98-.155-.368-.468-.664-.938-.888-.446-.225-1.877-.562-4.29-1.01-.268-.062-.682-.154-1.24-.277v-2.234c5.14.225 9.005.337 11.598.337 1.9 0 6.078-.112 12.537-.337" style="-inkscape-font-specification:Calisto MT" font-size="290.401" font-weight="bold" font-family="Calisto MT"/><path d="M75.767 45.44v-1.01c2.505.1 4.512.15 6.02.15 1.51 0 3.496-.05 5.958-.15v1.01c-1.573.22-2.558.406-2.954.56-.256.092-.427.224-.513.397-.107.227-.16.828-.16 1.802v6.99c0 1.8.117 3.026.353 3.672.3.855.878 1.543 1.734 2.06.856.52 2.066.78 3.63.78 1.722 0 3.023-.296 3.9-.888.878-.6 1.44-1.388 1.686-2.362.257-.974.386-2.644.386-5.01 0-.546-.043-2.085-.13-4.615-.052-1.402-.132-2.226-.24-2.47-.064-.147-.176-.26-.337-.343-.204-.118-.9-.273-2.088-.464-.14-.027-.348-.064-.626-.11v-1.01c2.258.1 3.86.15 4.8.15 1.114 0 2.57-.05 4.368-.15v1.01c-1.627.256-2.57.46-2.826.615-.257.155-.412.383-.466.683-.096.51-.16 2.826-.192 6.95-.022 2.366-.09 3.918-.21 4.655-.18 1.01-.475 1.834-.882 2.47-.396.63-.985 1.212-1.766 1.75-.77.536-1.627.927-2.57 1.173-1.24.32-2.568.478-3.98.478-2.39 0-4.283-.29-5.686-.874-1.402-.592-2.38-1.36-2.938-2.307-.546-.956-.82-2.35-.82-4.178v-8.438c0-1.083-.063-1.765-.19-2.048-.098-.183-.27-.32-.515-.41-.236-.09-1.15-.264-2.746-.52M101.892 45.44v-1.01c2.58.11 5.384.164 8.413.164 3.51 0 7.13-.054 10.855-.163.032 1.912.166 3.573.4 4.984h-1.364c-.128-.29-.22-.514-.273-.67-.524-1.3-.936-2.056-1.236-2.265-.3-.21-.974-.315-2.023-.315h-6.134c-.086 1.538-.14 3.772-.16 6.703l2.793.027c1.456 0 2.35-.118 2.682-.354.342-.245.7-1.06 1.076-2.443h1.333c-.117 1.338-.176 2.516-.176 3.536 0 .974.06 2.19.176 3.645h-1.332c-.3-1.474-.588-2.32-.866-2.54-.28-.218-1.12-.327-2.52-.327h-3.148v7.633h6.39c.707 0 1.178-.036 1.413-.11.374-.118.716-.327 1.027-.627.653-.61 1.418-1.575 2.296-2.895h1.413c-.62 1.494-1.29 3.292-2.007 5.394-3.65-.1-7.468-.15-11.45-.15-1.81 0-4.335.05-7.578.15v-1.01c1.777-.273 2.793-.492 3.05-.655.354-.21.53-.74.53-1.585v-.464l.032-5.406v-4.37l-.016-2.02c0-.973-.06-1.58-.176-1.815-.118-.238-.348-.425-.69-.56-.333-.138-1.242-.297-2.73-.48M123.76 45.44v-1.01c3.62.1 5.755.15 6.408.15.696 0 1.702-.013 3.018-.04 1.317-.037 2.286-.055 2.907-.055 1.595 0 2.836.173 3.725.52.888.345 1.6.896 2.135 1.65.546.757.82 1.598.82 2.527 0 .792-.193 1.556-.58 2.294-.384.728-.898 1.347-1.54 1.856-.418.337-1.087.7-2.007 1.093.728 1.065 1.793 2.57 3.195 4.52 1.03 1.428 1.698 2.283 2.008 2.566.32.283.664.5 1.028.656.556.218 1.573.428 3.05.628v1.01c-1.82-.1-3.302-.15-4.447-.15-1.21 0-2.7.05-4.465.15-1.306-2.557-2.98-5.484-5.026-8.78-.61-.017-1.248-.053-1.91-.108l.047 5.68c.02.7.09 1.138.208 1.31.118.164.284.283.498.356.15.063 1.108.24 2.874.532v1.01c-2.494-.1-4.496-.15-6.005-.15-1.488 0-3.468.05-5.94.15v-1.01c1.82-.282 2.84-.5 3.066-.655.235-.156.385-.46.45-.916.032-.246.053-2.58.064-7.004l-.016-4.07c0-1.91-.043-3.062-.13-3.453-.063-.282-.213-.49-.448-.628-.225-.147-.98-.315-2.264-.506l-.723-.123m8.335 7.933c.535.02.93.028 1.188.028 1.498 0 2.6-.3 3.307-.9.718-.61 1.076-1.534 1.076-2.772 0-1.165-.337-2.052-1.01-2.662-.676-.62-1.59-.93-2.747-.93-.472 0-1.082.033-1.83.097l.015 7.14" style="-inkscape-font-specification:Calisto MT" font-size="134.204" font-weight="bold" font-family="Calisto MT"/><path d="M147.734 45.44v-1.01c3.618.1 5.753.15 6.406.15.696 0 1.702-.013 3.02-.04 1.316-.037 2.284-.055 2.905-.055 1.595 0 2.837.173 3.725.52.89.345 1.6.896 2.136 1.65.546.757.82 1.598.82 2.527 0 .792-.194 1.556-.58 2.294-.385.728-.898 1.347-1.54 1.856-.418.337-1.087.7-2.008 1.093.728 1.065 1.793 2.57 3.196 4.52 1.027 1.428 1.696 2.283 2.007 2.566.322.283.664.5 1.028.656.557.218 1.574.428 3.05.628v1.01c-1.82-.1-3.3-.15-4.447-.15-1.208 0-2.696.05-4.462.15-1.306-2.557-2.982-5.484-5.026-8.78-.61-.017-1.247-.053-1.91-.108l.047 5.68c.02.7.09 1.138.208 1.31.118.164.284.283.498.356.15.063 1.108.24 2.874.532v1.01c-2.494-.1-4.496-.15-6.005-.15-1.488 0-3.47.05-5.94.15v-1.01c1.818-.282 2.84-.5 3.065-.655.236-.156.386-.46.45-.916.032-.246.054-2.58.064-7.004l-.016-4.07c0-1.91-.043-3.062-.128-3.453-.064-.282-.214-.49-.45-.628-.225-.147-.98-.315-2.264-.506l-.722-.123m8.333 7.933c.535.02.93.028 1.188.028 1.5 0 2.6-.3 3.308-.9.717-.61 1.076-1.534 1.076-2.772 0-1.165-.338-2.052-1.013-2.662-.674-.62-1.59-.93-2.745-.93-.472 0-1.082.033-1.83.097l.015 7.14" style="-inkscape-font-specification:Calisto MT" font-size="134.204" font-weight="bold" font-family="Calisto MT"/><path d="M171.77 45.44v-1.01c2.58.11 5.385.164 8.414.164 3.51 0 7.13-.054 10.855-.163.03 1.912.164 3.573.4 4.984h-1.365c-.128-.29-.22-.514-.273-.67-.524-1.3-.936-2.056-1.236-2.265-.3-.21-.974-.315-2.023-.315h-6.134c-.087 1.538-.14 3.772-.162 6.703l2.794.027c1.456 0 2.35-.118 2.682-.354.342-.245.7-1.06 1.076-2.443h1.332c-.117 1.338-.176 2.516-.176 3.536 0 .974.06 2.19.176 3.645H186.8c-.3-1.474-.59-2.32-.867-2.54-.28-.218-1.12-.327-2.52-.327h-3.15v7.633h6.392c.707 0 1.178-.036 1.413-.11.375-.118.717-.327 1.028-.627.653-.61 1.418-1.575 2.296-2.895h1.413c-.62 1.494-1.29 3.292-2.007 5.394-3.65-.1-7.467-.15-11.45-.15-1.808 0-4.334.05-7.578.15v-1.01c1.777-.273 2.794-.492 3.05-.655.355-.21.53-.74.53-1.585v-.464l.033-5.406v-4.37l-.016-2.02c0-.973-.06-1.58-.176-1.815-.117-.238-.347-.425-.69-.56-.332-.138-1.242-.297-2.73-.48M193.64 45.44v-1.01c3.618.1 5.754.15 6.407.15.695 0 1.702-.013 3.018-.04 1.317-.037 2.286-.055 2.906-.055 1.596 0 2.838.173 3.727.52.888.345 1.6.896 2.135 1.65.546.757.82 1.598.82 2.527 0 .792-.194 1.556-.58 2.294-.384.728-.898 1.347-1.54 1.856-.418.337-1.087.7-2.007 1.093.727 1.065 1.792 2.57 3.195 4.52 1.027 1.428 1.696 2.283 2.007 2.566.32.283.664.5 1.028.656.556.218 1.573.428 3.05.628v1.01c-1.82-.1-3.302-.15-4.447-.15-1.21 0-2.698.05-4.464.15-1.306-2.557-2.98-5.484-5.026-8.78-.61-.017-1.247-.053-1.91-.108l.047 5.68c.022.7.09 1.138.21 1.31.117.164.283.283.497.356.15.063 1.108.24 2.874.532v1.01c-2.494-.1-4.496-.15-6.005-.15-1.487 0-3.467.05-5.94.15v-1.01c1.82-.282 2.842-.5 3.067-.655.235-.156.385-.46.45-.916.03-.246.053-2.58.064-7.004l-.015-4.07c0-1.91-.043-3.062-.13-3.453-.063-.282-.213-.49-.45-.628-.223-.147-.978-.315-2.263-.506l-.722-.123m8.333 7.933c.536.02.932.028 1.19.028 1.497 0 2.6-.3 3.306-.9.716-.61 1.075-1.534 1.075-2.772 0-1.165-.337-2.052-1.012-2.662-.674-.62-1.59-.93-2.745-.93-.47 0-1.08.033-1.83.097l.015 7.14M217.173 54.425c0-3.122 1.124-5.634 3.372-7.537 2.258-1.91 5.282-2.867 9.072-2.867 3.575 0 6.38.86 8.413 2.58 2.045 1.713 3.067 4.006 3.067 6.883 0 1.83-.4 3.495-1.204 4.997-.632 1.192-1.45 2.198-2.457 3.017-.995.82-2.018 1.43-3.067 1.83-1.564.59-3.448.887-5.653.887-3.66 0-6.503-.86-8.526-2.58-2.01-1.72-3.017-4.124-3.017-7.21m5.555-.737c0 3.314.707 5.748 2.12 7.305 1.05 1.165 2.553 1.747 4.512 1.747 1.348 0 2.483-.296 3.404-.888.93-.592 1.627-1.538 2.087-2.84.46-1.31.69-2.83.69-4.56 0-1.32-.138-2.585-.416-3.796-.278-1.21-.658-2.157-1.14-2.84-.482-.682-1.13-1.233-1.943-1.65-.802-.42-1.776-.63-2.92-.63-1.275 0-2.41.305-3.405.915-.996.602-1.745 1.553-2.248 2.855-.493 1.292-.74 2.753-.74 4.382M279.57 45.44v-1.01c1.465.1 2.83.15 4.093.15 1.274 0 2.773-.05 4.496-.15 1.305 1.493 5.233 5.62 11.785 12.384l-.065-7.427c-.053-1.812-.14-2.817-.257-3.018-.107-.21-.29-.37-.545-.478-.257-.12-1.162-.27-2.714-.45v-1.01c1.723.1 3.227.15 4.512.15 1.242 0 2.826-.05 4.753-.15v1.01c-.333.054-.58.09-.74.108-1.263.164-2.018.346-2.264.546-.246.19-.39.592-.433 1.202-.108 1.274-.16 3.895-.16 7.864 0 2.548.058 5.46.176 8.738-.505.127-1.002.277-1.495.45l-6.085-6.526-9.28-9.598.047 6.485.13 6.31c.03.472.084.773.16.9.074.118.18.214.32.287.236.118.996.277 2.28.478.15.018.375.054.675.11v1.01c-1.84-.1-3.32-.15-4.432-.15-.953 0-2.57.05-4.85.15v-1.01c.333-.056.584-.097.756-.124 1.23-.163 1.964-.322 2.2-.477.15-.1.256-.24.32-.423.065-.19.134-1.547.21-4.07.117-3.65.176-6.78.176-9.392 0-.874-.06-1.433-.177-1.68-.107-.245-.305-.436-.594-.573-.288-.136-1.02-.295-2.2-.478-.18-.027-.448-.072-.8-.136M333.4 53.742v.997c-1.468.226-2.4.422-2.795.586-.193.082-.337.236-.434.464-.095.228-.143.928-.143 2.103 0 1.875.032 3.53.096 4.97-.728.108-1.525.24-2.392.395-2.27.42-3.906.683-4.913.792-.995.11-2.066.164-3.21.164-2.666 0-4.775-.282-6.327-.847-1.938-.72-3.42-1.83-4.448-3.33-1.028-1.503-1.54-3.29-1.54-5.367 0-3.686 1.6-6.526 4.8-8.52 2.29-1.42 5.314-2.13 9.072-2.13 2.515 0 5.352.31 8.51.93-.022.536-.032.97-.032 1.296 0 1.065.053 2.576.16 4.533h-1.638c-.45-1.512-.904-2.558-1.365-3.14-.45-.593-1.157-1.06-2.12-1.407-.953-.355-2.12-.533-3.5-.533-1.81 0-3.324.314-4.544.942-1.21.628-2.152 1.602-2.826 2.922-.664 1.31-.996 2.822-.996 4.533 0 2.73.755 4.797 2.264 6.198 1.52 1.402 3.516 2.103 5.99 2.103 1.24 0 2.584-.237 4.03-.71v-4.205c0-.92-.054-1.51-.16-1.775-.076-.164-.226-.296-.45-.396-.215-.1-.9-.25-2.056-.45-.128-.028-.326-.07-.594-.123v-.998c2.462.1 4.314.15 5.556.15.91 0 2.91-.05 6.005-.15M349.985 49.974h-1.605c-.354-1.748-.89-2.917-1.606-3.51-.717-.6-1.69-.9-2.922-.9-1.103 0-1.965.246-2.586.737-.61.484-.915 1.102-.915 1.858 0 .673.285 1.283.852 1.83.568.555 1.916 1.242 4.046 2.06 2.13.82 3.62 1.685 4.464 2.595.846.92 1.27 2.057 1.27 3.413 0 1.64-.73 3.077-2.185 4.315-1.445 1.23-3.784 1.844-7.017 1.844-1.156 0-2.248-.073-3.275-.22-.782-.1-1.75-.308-2.907-.627.182-1.602.273-3.18.273-4.737v-.915h1.575c.407 1.81.91 3.022 1.51 3.632.802.828 1.915 1.242 3.34 1.242 1.134 0 2.044-.288 2.73-.86.684-.574 1.026-1.307 1.026-2.2 0-.563-.143-1.064-.432-1.5-.28-.438-.7-.834-1.27-1.19-.555-.354-1.572-.822-3.05-1.405-2.27-.91-3.79-1.79-4.56-2.635-.77-.837-1.156-1.825-1.156-2.963 0-1.675.728-3.063 2.184-4.164 1.456-1.1 3.554-1.652 6.294-1.652 1.82 0 3.795.297 5.925.888-.064 1.43-.096 2.422-.096 2.977 0 .646.03 1.342.095 2.09M356.335 59.217c.802 0 1.482.24 2.04.723.566.483.85 1.06.85 1.734 0 .683-.284 1.266-.85 1.748-.57.473-1.248.71-2.04.71-.803 0-1.488-.237-2.056-.71-.557-.482-.836-1.065-.836-1.748 0-.673.28-1.25.835-1.734.567-.482 1.252-.723 2.055-.723" style="-inkscape-font-specification:Calisto MT" font-size="134.204" font-weight="bold" font-family="Calisto MT"/><path d="M404.208 35.31h-3.327c-.73-3.62-1.84-6.045-3.326-7.27-1.486-1.245-3.504-1.867-6.054-1.867-2.285 0-4.07.51-5.356 1.527-1.265 1-1.897 2.282-1.897 3.847 0 1.396.588 2.66 1.764 3.79 1.176 1.15 3.97 2.575 8.384 4.272 4.413 1.697 7.496 3.488 9.248 5.374 1.752 1.905 2.628 4.262 2.63 7.072-.002 3.395-1.51 6.374-4.526 8.94-2.994 2.545-7.84 3.818-14.538 3.818-2.395 0-4.657-.15-6.786-.453-1.62-.206-3.627-.64-6.022-1.3.377-3.32.566-6.59.566-9.816V51.35h3.26c.843 3.752 1.885 6.26 3.127 7.523 1.663 1.717 3.97 2.575 6.92 2.575 2.35 0 4.236-.594 5.655-1.783 1.42-1.188 2.13-2.706 2.13-4.554 0-1.168-.3-2.205-.9-3.11-.576-.906-1.452-1.726-2.627-2.462-1.152-.735-3.26-1.706-6.32-2.913-4.702-1.886-7.85-3.706-9.448-5.46-1.597-1.735-2.395-3.78-2.395-6.138 0-3.47 1.508-6.346 4.524-8.628 3.017-2.283 7.364-3.424 13.042-3.424 3.77 0 7.862.613 12.276 1.84-.133 2.96-.2 5.015-.2 6.166 0 1.34.067 2.78.2 4.328M417.363 54.46c1.663 0 3.072.5 4.225 1.5 1.175 1 1.763 2.197 1.763 3.592 0 1.415-.587 2.622-1.762 3.62-1.176.982-2.584 1.472-4.225 1.472-1.663 0-3.083-.49-4.258-1.47-1.154-1-1.73-2.207-1.73-3.622 0-1.395.576-2.593 1.73-3.592 1.175-1 2.595-1.5 4.258-1.5M458.732 63.965v-2.093c2.683-.415 4.236-.754 4.657-1.018.42-.264.63-.623.63-1.075 0-.265-.065-.567-.198-.907-.355-.792-1.508-3.168-3.46-7.128-3.127-.057-5.733-.085-7.818-.085-1.708 0-4.558.028-8.55.085-2.462 4.94-3.693 7.647-3.693 8.118 0 .453.18.793.534 1.02.355.206 1.93.536 4.724.99v2.092c-2.795-.207-5.467-.31-8.018-.31-2.75 0-5.544.103-8.383.31v-2.093c1.996-.358 3.37-.764 4.125-1.216.51-.302.976-.755 1.397-1.358.864-1.188 3.448-5.79 7.75-13.805 2.73-5.073 6.62-12.578 11.678-22.517h2.694c2.063 4.432 6.332 12.7 12.808 24.81 3.593 6.73 5.744 10.56 6.454 11.483.488.64.976 1.093 1.464 1.357s2.03.68 4.624 1.245v2.093c-3.925-.207-7.574-.31-10.945-.31-3.327 0-7.485.103-12.475.31m-6.388-28.797l-6.786 13.324 6.587.028c1.574 0 3.837-.01 6.786-.028l-6.586-13.324M494.012 54.46c1.663 0 3.072.5 4.225 1.5 1.175 1 1.763 2.197 1.763 3.592 0 1.415-.588 2.622-1.763 3.62-1.176.982-2.584 1.472-4.225 1.472-1.664 0-3.083-.49-4.258-1.47-1.154-1-1.73-2.207-1.73-3.622 0-1.395.576-2.593 1.73-3.592 1.175-1 2.594-1.5 4.258-1.5" style="-inkscape-font-specification:Calisto MT" font-size="278.056" font-weight="bold" font-family="Calisto MT"/></g></svg>