<svg xmlns="http://www.w3.org/2000/svg" width="400" height="322.173"><path d="M297.225 0H88.407v241.355h208.818V0z" fill="#f58220"/><path d="M199.592 16.543c-18.44 2.707-35.25 7.323-50.71 14.096l15.727-1.892c12.204-1.353 24.137-1.63 34.716-.816 34.44 2.44 53.424 14.918 57.49 37.153 3.795 22.512-3.256 43.665-21.153 63.73-5.97 6.236-14.646 14.37-26.307 24.14-13.83 11.382-23.05 19.243-27.116 23.593 24.13-12.21 45.834-26.845 65.622-44.203C288 97.633 298.035 66.71 277.97 39.865c-15.19-20.615-41.497-28.482-78.378-23.322" fill="#fff"/><path d="M155.117 174.108c-14.096-17.897-8.405-40.416 17.093-67.532 12.742-13.552 26.838-25.226 42.566-35.527-17.08 6.24-33.896 14.917-50.167 26.584-32.272 22.772-46.374 47.454-42.307 73.76 5.425 33.08 35.255 48.814 90.31 47.177 27.388-.537 54.233-4.603 80.812-11.92l-36.61 1.07-37.423-1.07c-28.476-3.27-50.173-14.114-64.275-32.542" fill="#fff"/><path d="M396.478 244.34H1.903M397.015 322.173H1.903M5.426 256.816h5.154l4.338.544 2.978 2.972c1.088 1.366 1.36 3.263 1.36 5.982l-.544 4.87c-.544 1.36-.816 2.175-1.897 3.257l-2.17 1.088-3.8.538h-5.42v-19.25zm5.42-2.99H1.902v25.497h9.22l4.06-.81c1.36-.278 2.448-.544 2.985-1.087l2.44-2.176 1.36-3.788c.538-1.36.81-2.985.81-5.148 0-2.44-.272-4.344-.81-5.982-.815-1.89-1.63-3.244-2.984-4.332-1.088-.815-2.44-1.625-3.8-1.897l-4.34-.278zM57.224 264.677H43.388v-7.86h14.918v-2.992h-18.44v25.498h18.983v-3.257H43.387v-8.676h13.836v-2.713zM78.915 256.816c-.816 1.088-1.354 2.44-1.354 3.795l1.083 2.985c.272.81 1.36 1.62 2.713 2.44l4.882 1.355 4.61 1.353c1.087.278 1.625.816 2.17 1.36.543.81.808 1.36.808 2.175 0 .81-.265 1.613-1.08 2.163-.273.81-1.082 1.088-1.898 1.626l-3.53.55-3.793-.822c-1.088-.266-1.897-1.08-2.44-1.903L80 270.647l-3.256.538c.272 1.638.815 2.985 1.63 4.344l3.252 2.985 5.97 1.082 4.875-1.082 3.263-2.72c.81-1.08 1.08-2.434 1.08-3.793 0-1.632-.27-2.713-.814-3.523-.816-1.087-1.897-1.89-3.53-2.44l-5.418-1.632-5.154-1.897-.816-2.176 1.353-2.706c.822-.81 2.176-1.082 4.345-1.082 1.897 0 3.25.272 4.338 1.082 1.08.815 1.625 1.903 1.625 3.535l3.53-.284c0-1.347-.54-2.706-1.36-3.788-1.09-1.36-2.17-2.175-3.53-2.713-1.075-.55-2.706-.815-4.603-.815l-4.882.815-2.985 2.44zM123.118 261.16c.544-1.903 1.36-3.256 1.36-4.616l4.61 12.2h-8.676l2.706-7.583zm3.257-7.335h-3.522l-9.77 25.498h3.528l2.714-7.86h10.845l2.712 7.86h3.8l-10.307-25.498zM157.292 256.544h7.86c1.904 0 3.257.544 4.067 1.36.815.537 1.358 1.625 1.358 2.707 0 1.088-.27 1.898-.543 2.442l-2.17 1.625-3.256.266h-7.318v-8.4zm12.743-2.17l-4.882-.55h-11.39v25.5h3.53V267.94h5.69l1.626.803 1.63 1.625 5.692 8.955h4.072l-4.072-7.045-2.985-3.535c-.266-.266-1.08-.803-1.89-1.08 2.44-.273 4.337-1.35 5.42-2.45 1.086-1.34 1.63-2.977 1.63-4.602 0-1.08-.278-2.44-1.094-3.794-.537-1.087-1.62-1.63-2.978-2.44M203.12 256.544c1.898 0 3.25.544 4.067 1.36l1.353 2.707-.537 2.442-2.17 1.625-3.256.266h-7.323v-8.4h7.867zm8.95 4.067c0-1.08-.273-2.44-1.09-3.794l-2.977-2.44-4.882-.55h-11.388v25.497h3.522V267.94h5.69l1.633.803 1.625 1.625 5.698 8.955h4.066l-4.066-7.045-2.985-3.535-1.897-1.08c2.44-.273 4.338-1.35 5.42-2.45 1.087-1.34 1.63-2.977 1.63-4.602M234.847 258.707c1.626-1.62 3.53-2.163 5.97-2.163l4.338 1.082c1.353.815 2.707 1.903 3.25 3.535.816 1.626 1.088 3.517 1.088 5.426 0 3.245-.81 5.692-2.44 7.583-1.626 1.624-3.795 2.718-6.236 2.718-2.44 0-4.344-1.094-5.97-2.72-1.903-1.89-2.713-4.065-2.713-7.316 0-3.53.81-6.24 2.713-8.145m5.97-5.147c-3.53 0-6.507 1.08-8.683 3.256-2.44 2.44-3.256 5.692-3.256 10.036 0 2.17.55 4.332 1.36 6.235.82 2.163 2.175 3.53 4.072 4.882l6.507 1.625c2.163 0 4.338-.55 6.235-1.626 1.632-1.082 3.257-2.442 4.345-4.61 1.075-2.176 1.353-4.617 1.353-6.774 0-2.18-.278-4.616-1.353-6.79-.816-1.892-2.176-3.252-4.073-4.61-1.897-1.36-4.066-1.626-6.507-1.626M276.344 253.825h-3.263v25.498h15.735v-3.257h-12.47v-22.24zM308.88 253.825h-3.25v25.498h15.727v-3.257H308.88v-22.24zM343.326 258.707c1.625-1.62 3.522-2.163 5.963-2.163 1.625 0 3.256.272 4.337 1.082 1.354.815 2.707 1.903 3.257 3.535.81 1.626 1.088 3.517 1.088 5.426 0 3.245-.822 5.692-2.447 7.583-1.626 1.624-3.795 2.718-6.236 2.718-2.442 0-4.34-1.094-5.964-2.72-1.903-1.89-2.72-4.065-2.72-7.316 0-3.53.817-6.24 2.72-8.145m12.477-3.522c-1.904-1.36-4.073-1.625-6.514-1.625-3.53 0-6.514 1.08-8.683 3.256-2.435 2.44-3.25 5.692-3.25 10.036 0 2.17.543 4.332 1.353 6.235.815 2.163 2.175 3.53 4.066 4.882 2.175 1.075 4.338 1.625 6.513 1.625 2.168 0 4.337-.55 6.235-1.626 1.625-1.082 3.256-2.442 4.338-4.61 1.087-2.176 1.36-4.617 1.36-6.774 0-2.18-.273-4.616-1.36-6.79-.81-1.892-2.17-3.252-4.06-4.61M382.92 262.508c-.823-.81-.823-1.63-.823-2.175 0-1.075.278-1.89 1.36-2.707.816-.81 2.175-1.08 4.344-1.08l4.333 1.08c.816.816 1.632 1.904 1.632 3.535l3.25-.283-1.08-3.788-3.53-2.714-4.882-.816-4.604.816c-1.36.537-2.176 1.353-2.986 2.44-.815 1.088-1.08 2.442-1.08 3.795 0 .823 0 1.898.802 2.986l2.72 2.44 4.88 1.354 4.34 1.354c1.353.278 2.17.815 2.44 1.36l.81 2.174-1.08 2.163-2.17 1.627-3.257.55-3.795-.822c-1.088-.266-1.898-1.082-2.448-1.904-.537-.802-.81-1.89-1.08-3.243l-3.258.538c.27 1.637.82 2.984 1.63 4.344.544 1.36 1.898 2.44 3.53 2.984l5.685 1.08c1.63 0 3.263-.27 4.888-1.08l3.256-2.72c.81-1.08 1.08-2.434 1.08-3.794 0-1.63-.27-2.713-.815-3.522l-3.25-2.44-5.698-1.632-5.148-1.898zM4.072 297.22c.538-1.632 1.62-2.714 2.707-3.523 1.63-.81 2.984-1.626 4.887-1.626 1.897 0 3.25.54 4.338 1.36.81.804 1.89 2.158 2.435 4.06l3.257-.81c-.816-2.174-1.897-4.07-3.8-5.424-1.626-1.088-3.79-1.897-6.23-1.897-1.903 0-4.072.536-5.975 1.352-1.89 1.36-3.25 2.72-4.332 4.604C.272 297.22 0 299.654 0 302.373c0 1.897.272 4.344 1.088 6.78.815 1.896 2.17 3.528 4.066 4.61 1.625 1.08 3.794 1.63 6.513 1.63 2.44 0 4.876-.55 6.5-1.897 2.17-1.63 3.258-4.072 3.802-6.513l-3.258-.81c-.544 1.898-1.08 3.517-2.44 4.876-1.354 1.087-2.986 1.63-4.877 1.63-1.63 0-2.984-.543-4.344-1.36-1.358-.808-2.44-1.896-2.712-3.527-.81-1.354-1.08-3.25-1.08-5.42l.814-5.154zM65.357 294.506c1.63-1.353 3.794-2.163 6.235-2.163 1.63 0 3.257.544 4.338 1.088 1.36 1.076 2.447 2.158 2.985 3.79.816 1.36 1.36 3.262 1.36 5.425 0 2.985-1.088 5.426-2.714 7.317-1.358 1.903-3.527 2.72-5.968 2.72-2.44 0-4.604-.817-6.235-2.72-1.626-1.89-2.713-4.067-2.713-7.317 0-3.53 1.087-6.242 2.713-8.14m16.543 1.36c-.816-2.168-2.17-3.522-4.067-4.887-1.63-1.082-4.066-1.62-6.24-1.62-3.524 0-6.502 1.076-8.95 3.53-2.162 2.428-3.25 5.69-3.25 9.757 0 2.435.544 4.338 1.625 6.507.816 1.897 2.17 3.25 4.073 4.61 1.898 1.082 4.34 1.632 6.502 1.632 1.903 0 4.072-.55 5.97-1.632 1.897-1.08 3.522-2.44 4.338-4.338 1.087-2.44 1.625-4.616 1.625-6.78 0-2.434-.538-4.87-1.625-6.778M123.662 289.63h-3.8v25.486h3.534V295.05l13.287 20.066h3.25V289.63h-3.25v19.794l-13.02-19.794zM197.695 289.63h-3.522l-8.145 22.507-1.354-4.066-6.507-18.44h-3.516l9.487 25.486h3.528l10.03-25.486zM237.832 289.63h-3.25v25.486h3.25V289.63zM278.507 289.63h-3.522l9.492 25.486H288l10.035-25.486h-3.53l-8.13 22.507-1.355-4.066-6.513-18.44zM338.172 289.63h-3.25v25.486h3.25V289.63zM381.288 292.61h7.873c1.898 0 3.245.543 4.06 1.087.817.81 1.088 1.89 1.088 2.984l-.543 2.164-1.897 1.638-3.53.53h-7.05v-8.403zm7.595-2.98H377.76v25.486h3.528v-11.112h5.698l1.353.538 1.896 1.897 5.426 8.676H400l-4.338-7.045-2.713-3.262-2.17-1.082c2.713-.537 4.338-1.353 5.426-2.44 1.353-1.354 1.625-2.98 1.625-4.605 0-1.092-.27-2.446-.815-3.793l-2.978-2.453-5.154-.804z"/></svg>