<svg xmlns="http://www.w3.org/2000/svg" width="400" height="179.754"><path d="M30.27 150.465c0 4.013 0 10.057.962 13.94 1.232 4.723 9.176 4 13.008 4.29v3.307c-6.85-.148-13.698-.427-20.546-.575-6.98.148-13.966.427-20.957.575v-3.306c3.564-.137 12.47.295 14.103-3.45 1.242-2.857 1.242-11.474 1.242-14.78v-51.11c0-3.16 0-10.052-1.505-12.784-1.37-2.578-5.617-2.578-8.628-2.578H0V81.12c11.37-.712 20.135-1.435 30.27-7.326v76.67z"/><path d="M124.655 159.515l-3.827 20.24h-3.01l.268-5.163c.416-3.296-1.364-2.874-3.97-2.874h-46.57c5.21-10.342 12.887-19.243 20.83-27.707 11.77-12.344 24.1-23.693 24.1-42.783 0-11.496-5.475-22.697-17.81-22.697-9.306 0-16.845 6.465-16.845 16.66 0 7.034 4.796 14.36 12.05 14.36 3.153 0 5.628-1.868 7.68-4.162-.69 6.597-7.122 10.758-13.144 10.758-10.007 0-15.766-7.752-15.766-17.793 0-15.65 14.666-23.12 27.668-23.12 15.613 0 29.858 8.908 29.858 26.854 0 16.642-11.228 25.265-22.593 34.31-8.49 6.754-17.12 14.068-23.42 23.118h44.502z" fill="#00ab7d"/><path d="M162.676 132.378c-1.506 0-2.606-1.15-2.606-2.58 0-3.448 5.617-5.895 7.675-7.335 10.544-6.75 19.588-13.05 19.588-27.56 0-8.616-3.706-15.07-13.018-15.07-7.665 0-14.513 4.588-14.513 13.057 0 5.03 3.153 10.05 8.343 10.05 3.3 0 5.617-1.433 8.097-3.437-1.796 6.022-6.86 9.175-12.876 9.175-6.723 0-12.066-4.878-12.066-12.055 0-14.064 14.798-21.39 26.573-21.39 10.83 0 22.588 5.454 22.588 18.38 0 13.5-12.443 20.244-22.44 25.116l.27.295c1.373-.148 2.873-.148 4.242-.296 13.008 0 23.83 7.324 23.83 22.11 0 20.11-18.624 32.74-36.42 32.74-7.82 0-22.327-3.154-22.327-13.775 0-3.164 2.864-5.595 5.88-5.595 11.097 0 2.737 16.068 19.725 16.068 14.924 0 19.445-12.915 19.445-26.267 0-10.34-2.047-21.974-14.513-21.974-9.86 0-9.717 10.342-15.476 10.342M241.717 172.577h-1.368l-.56-20.53h2.743c2.195 9.187 6.85 18.23 16.977 18.23 6.027 0 11.502-3.153 11.502-10.045 0-8.184-7.938-11.486-13.824-14.65-7.943-4.303-16.434-9.044-16.434-19.812 0-9.898 7.538-17.234 16.976-17.234 4.25 0 9.46 1.303 13.282 3.602l2.748-3.46h1.648l-.274 17.957h-2.732c-2.474-7.177-5.496-14.798-14.113-14.798-4.523 0-8.777 2.726-8.777 7.905 0 7.462 7.544 10.057 12.745 13.063 9.45 5.167 18.077 8.912 18.077 21.82 0 11.777-9.586 18.954-20.136 18.954-5.207 0-10.955-1.726-15.06-5.175l-3.423 4.172z"/><path d="M285.995 165.542c0-4.308 3.165-8.326 7.396-8.326 4.255 0 8.224 3.17 8.224 7.9 0 4.44-3.284 8.463-7.8 8.463-4.244 0-7.82-3.587-7.82-8.038" fill="#f8bb61"/><path d="M352.336 132.65c1.374-.705 1.095-2.566 1.095-4.148 0-9.773-.826-16.665-12.054-16.665-6.838 0-12.46.575-12.87 8.195-.28 3.165-2.054 6.318-5.48 6.318-3.017 0-5.19-2.004-5.19-5.173 0-10.62 18.208-12.64 25.182-12.64 15.203 0 22.188 4.17 22.188 20.687v23.683c0 3.59-.536 14.217 4.796 14.217 2.737 0 4.106-2.595 5.612-4.604l2.61 1.446c-2.194 4.73-7.258 9.613-12.328 9.613-5.6 0-10.412-4.452-11.78-10.2-6.434 5.463-14.377 10.2-22.874 10.2-7.248 0-14.24-4.59-14.24-12.63 0-12.06 13.01-17.23 21.768-21.4l13.566-6.9zm1.232 3.603c-8.218 4.16-23.826 9.767-23.826 21.242 0 5.32 3.143 10.347 8.765 10.347 5.343 0 11.234-4.314 15.06-8.18v-23.41z"/><path d="M384.236 165.542c0-4.308 3.16-8.326 7.396-8.326 4.254 0 8.223 3.17 8.223 7.9 0 4.44-3.285 8.463-7.813 8.463-4.237 0-7.806-3.587-7.806-8.038" fill="#00ab7d"/><path d="M9.67 7.015v20.098h3.044c3.47 0 6.118-.86 7.942-2.58 1.838-1.722 2.758-4.222 2.758-7.502 0-3.264-.912-5.75-2.736-7.455-1.824-1.706-4.48-2.56-7.964-2.56H9.67M1.175.595h8.957c5 0 8.72.36 11.163 1.082 2.456.706 4.56 1.912 6.31 3.618 1.543 1.485 2.69 3.2 3.44 5.14.75 1.94 1.126 4.14 1.126 6.596 0 2.487-.375 4.708-1.125 6.664-.75 1.94-1.898 3.655-3.442 5.14-1.765 1.706-3.883 2.92-6.353 3.64-2.47.706-6.178 1.06-11.12 1.06H1.177V.595M39.716.596h22.92v6.42H48.21v6.132h13.567v6.42H48.21v7.545h14.913v6.42H39.716V.596M98.647 1.633v6.97c-1.81-.808-3.574-1.418-5.295-1.83-1.72-.412-3.346-.618-4.875-.618-2.03 0-3.53.28-4.5.838-.97.56-1.457 1.427-1.457 2.604 0 .882.324 1.573.97 2.073.663.486 1.854.905 3.575 1.258l3.618.728c3.662.735 6.265 1.853 7.81 3.353 1.544 1.5 2.316 3.632 2.316 6.397 0 3.633-1.082 6.34-3.244 8.118-2.147 1.765-5.434 2.648-9.86 2.648-2.09 0-4.186-.2-6.29-.596-2.102-.397-4.205-.985-6.308-1.765v-7.17c2.103 1.118 4.132 1.964 6.088 2.537 1.97.558 3.87.838 5.692.838 1.853 0 3.273-.31 4.258-.927.986-.617 1.478-1.5 1.478-2.646 0-1.03-.338-1.824-1.015-2.383-.662-.558-1.994-1.058-3.994-1.5l-3.287-.727c-3.295-.706-5.707-1.83-7.237-3.375-1.515-1.545-2.272-3.626-2.272-6.244 0-3.28 1.06-5.802 3.178-7.567C80.115.882 83.16 0 87.13 0c1.81 0 3.67.14 5.582.42 1.912.264 3.89.668 5.935 1.213M131.722 27.532h-13.28l-2.096 6h-8.538l12.2-32.936h10.126l12.2 32.937h-8.538l-2.074-6M120.56 21.42h9.022l-4.5-13.103-4.523 13.104M162.342 15.2c1.78 0 3.05-.33 3.816-.993.78-.66 1.17-1.75 1.17-3.265 0-1.5-.39-2.573-1.17-3.22-.765-.648-2.037-.97-3.816-.97h-3.574V15.2h3.574m-3.574 5.868v12.465h-8.494V.596h12.972c4.34 0 7.516.728 9.53 2.184 2.03 1.456 3.045 3.758 3.045 6.905 0 2.177-.528 3.964-1.587 5.36-1.045 1.398-2.626 2.428-4.744 3.09 1.16.264 2.198.867 3.11 1.808.927.927 1.86 2.34 2.802 4.236l4.61 9.353h-9.044l-4.016-8.185c-.81-1.647-1.632-2.772-2.47-3.375-.824-.603-1.927-.905-3.31-.905h-2.404M200.882 15.2c1.78 0 3.05-.33 3.816-.993.78-.66 1.17-1.75 1.17-3.265 0-1.5-.39-2.573-1.17-3.22-.765-.648-2.037-.97-3.816-.97h-3.574V15.2h3.574m-3.574 5.868v12.465h-8.494V.596h12.972c4.34 0 7.516.728 9.53 2.184 2.03 1.456 3.045 3.758 3.045 6.905 0 2.177-.528 3.964-1.587 5.36-1.045 1.398-2.626 2.428-4.744 3.09 1.16.264 2.198.867 3.11 1.808.927.927 1.86 2.34 2.802 4.236l4.61 9.353h-9.044l-4.015-8.185c-.81-1.647-1.633-2.772-2.47-3.375-.825-.603-1.928-.905-3.31-.905h-2.405M241.63 6.155c-2.587 0-4.595.956-6.02 2.868-1.428 1.912-2.14 4.604-2.14 8.074 0 3.457.712 6.14 2.14 8.053 1.425 1.912 3.433 2.868 6.02 2.868 2.605 0 4.62-.956 6.046-2.868 1.427-1.912 2.14-4.596 2.14-8.053 0-3.47-.713-6.162-2.14-8.074-1.426-1.912-3.44-2.868-6.045-2.868m0-6.155c5.296 0 9.444 1.515 12.444 4.545 3 3.03 4.5 7.214 4.5 12.552 0 5.325-1.5 9.5-4.5 12.53-3 3.03-7.148 4.546-12.443 4.546-5.28 0-9.426-1.515-12.44-4.545-3-3.03-4.502-7.206-4.502-12.53 0-5.34 1.5-9.524 4.5-12.553C232.205 1.515 236.352 0 241.632 0M267.61.596h8.494v26.517h14.914v6.42H267.61V.596M301.135.596h8.494v26.517h14.912v6.42h-23.407V.596M348.937 6.155c-2.588 0-4.596.956-6.022 2.868-1.427 1.912-2.14 4.604-2.14 8.074 0 3.457.713 6.14 2.14 8.053 1.426 1.912 3.434 2.868 6.022 2.868 2.603 0 4.618-.956 6.045-2.868 1.427-1.912 2.14-4.596 2.14-8.053 0-3.47-.713-6.162-2.14-8.074s-3.442-2.868-6.045-2.868m0-6.155c5.295 0 9.442 1.515 12.443 4.545 3 3.03 4.5 7.214 4.5 12.552 0 5.325-1.5 9.5-4.5 12.53-3 3.03-7.148 4.546-12.443 4.546-5.28 0-9.427-1.515-12.442-4.545-3-3.03-4.5-7.206-4.5-12.53 0-5.34 1.5-9.524 4.5-12.553C339.51 1.515 343.657 0 348.937 0M397.838 1.633v6.97c-1.81-.808-3.574-1.418-5.295-1.83-1.72-.412-3.346-.618-4.875-.618-2.03 0-3.53.28-4.5.838-.97.56-1.457 1.427-1.457 2.604 0 .882.325 1.573.972 2.073.662.486 1.853.905 3.574 1.258l3.618.728c3.662.735 6.265 1.853 7.81 3.353 1.544 1.5 2.316 3.632 2.316 6.397 0 3.633-1.08 6.34-3.243 8.118-2.147 1.765-5.434 2.648-9.86 2.648-2.09 0-4.186-.2-6.29-.596-2.102-.397-4.205-.985-6.308-1.765v-7.17c2.102 1.118 4.13 1.964 6.088 2.537 1.97.558 3.868.838 5.69.838 1.854 0 3.274-.31 4.26-.927.985-.617 1.477-1.5 1.477-2.646 0-1.03-.338-1.824-1.015-2.383-.66-.558-1.992-1.058-3.993-1.5l-3.287-.727c-3.294-.706-5.706-1.83-7.236-3.375-1.515-1.545-2.272-3.626-2.272-6.244 0-3.28 1.06-5.802 3.177-7.567C379.306.882 382.35 0 386.32 0c1.81 0 3.67.14 5.582.42 1.91.264 3.89.668 5.934 1.213" style="-inkscape-font-specification:Arial-Black" font-size="36.746" font-weight="900" font-family="Arial Black"/></svg>