<svg xmlns="http://www.w3.org/2000/svg" width="400" height="370.75"><path d="M397.538 48.065c0-25.177-19.96-45.608-44.473-45.608H46.85c-24.51 0-44.383 20.43-44.383 45.608v274.707c0 25.08 19.873 45.516 44.382 45.516h306.215c24.513 0 44.473-20.436 44.473-45.516V48.065z" fill="#fff"/><path d="M397.538 48.065c0-25.177-19.96-45.608-44.473-45.608H46.85c-24.51 0-44.383 20.43-44.383 45.608v274.707c0 25.08 19.873 45.516 44.382 45.516h306.215c24.513 0 44.473-20.436 44.473-45.516V48.065zm-5.193 274.707c0 22.133-17.585 40.15-39.28 40.15H46.85c-21.644 0-39.22-18.017-39.22-40.15V48.065c0-22.248 17.576-40.328 39.22-40.328h306.215c21.695 0 39.28 18.08 39.28 40.328v274.707z" fill="#67b441"/><path d="M10.088 322.772V48.065c0-20.878 16.488-37.866 36.76-37.866h306.217c20.3 0 36.813 16.987 36.813 37.865v274.707c0 20.782-16.512 37.688-36.813 37.688H46.848c-20.272 0-36.76-16.906-36.76-37.688M46.848 5.28c-22.984 0-41.684 19.185-41.684 42.785v274.707c0 23.49 18.7 42.612 41.684 42.612h306.217c23.013 0 41.742-19.123 41.742-42.612V48.065c0-23.6-18.73-42.785-41.742-42.785H46.848z" fill="#67b441"/><path d="M4.93 322.772V48.065c0-23.797 18.8-43.14 41.92-43.14h306.215c23.162 0 42.01 19.343 42.01 43.14v274.707c0 23.74-18.848 43.054-42.01 43.054H46.85c-23.12 0-41.92-19.315-41.92-43.054M46.85 0C21.012 0 0 21.56 0 48.065v274.707c0 26.456 21.013 47.978 46.85 47.978h306.215c25.88 0 46.935-21.522 46.935-47.978V48.065C400 21.56 378.944 0 353.065 0H46.85z" fill="#67b441"/><path d="M369.23 299.7H35.67v-17.425h333.56V299.7zM248.14 125.92v-16.99c0-2.418-1.952-4.35-4.232-4.35h-80.796c-2.35 0-4.23 1.932-4.23 4.35v16.99h89.258z" fill="#67b441"/><path d="M76.33 277.226H56.787V215.36h19.54v61.866zM101.117 277.226H81.604V215.36h19.513v61.866zM125.938 277.226h-19.532V215.36h19.532v61.866zM150.82 277.226H131.21V215.36h19.613v61.866zM274.11 277.226h-19.537V215.36h19.537v61.866zM298.936 277.226H279.38V215.36h19.556v61.866zM323.743 277.226H304.24V215.36h19.503v61.866zM348.56 277.226h-19.533V215.36h19.532v61.866zM76.33 166.064H56.787V104.26h19.54v61.804zM101.117 166.064H81.604V104.26h19.513v61.804zM125.938 166.064h-19.532V104.26h19.532v61.804zM150.82 166.064H131.21V104.26h19.613v61.804zM274.11 166.064h-19.537V104.26h19.537v61.804zM298.936 166.064H279.38V104.26h19.556v61.804zM323.743 166.064H304.24V104.26h19.503v61.804zM348.56 166.064h-19.533V104.26h19.532v61.804z" fill="#00b25a"/><path d="M76.33 277.226H56.787V215.36h19.54v61.866zM101.117 277.226H81.604V215.36h19.513v61.866zM125.938 277.226h-19.532V215.36h19.532v61.866zM150.82 277.226H131.21V215.36h19.613v61.866zM274.11 277.226h-19.537V215.36h19.537v61.866zM298.936 277.226H279.38V215.36h19.556v61.866zM323.743 277.226H304.24V215.36h19.503v61.866zM348.56 277.226h-19.533V215.36h19.532v61.866zM76.33 166.064H56.787V104.26h19.54v61.804zM101.117 166.064H81.604V104.26h19.513v61.804zM125.938 166.064h-19.532V104.26h19.532v61.804zM150.82 166.064H131.21V104.26h19.613v61.804zM274.11 166.064h-19.537V104.26h19.537v61.804zM298.936 166.064H279.38V104.26h19.556v61.804zM323.743 166.064H304.24V104.26h19.503v61.804zM348.56 166.064h-19.533V104.26h19.532v61.804zM348.56 98.68H56.816V62.244L203.29 26.177l145.27 36.068V98.68z" fill="#67b441"/><path d="M64.813 204.056h9.896c1.903 0 3.538-.183 4.682-.596 1.52-.534 2.794-1.27 3.645-2.18 1.27-1.254 2.145-2.86 2.832-4.84.528-1.655.75-3.593.75-5.843 0-2.48-.265-4.664-.866-6.453-.5-1.774-1.35-3.217-2.404-4.433-1.164-1.197-2.482-2.048-3.958-2.504-1.144-.41-2.78-.544-4.943-.544h-9.637v27.394zm7.607-22.72c2.173 0 3.65.043 4.376.207.932.23 1.793.668 2.4 1.284.624.687 1.09 1.59 1.494 2.76.37 1.096.52 2.697.52 4.774 0 2.05-.15 3.83-.52 5.007-.403 1.265-.793 2.12-1.404 2.64-.572.534-1.23.938-2.077 1.154-.655.155-1.698.232-3.213.232h-3.875v-18.056h2.298zM91.15 204.056v-27.394h19.28v4.674H96.376v6.04h13.103v4.668H96.375v7.348h14.55v4.664H91.15zM113.975 195.175l5.125-.553c.327 1.817.98 3.072 1.914 3.996.914.836 2.202 1.27 3.784 1.27 1.717 0 2.958-.347 3.842-1.184.823-.74 1.236-1.59 1.236-2.61 0-.63-.13-1.174-.51-1.65-.336-.443-.952-.842-1.856-1.164-.62-.303-2.01-.66-4.217-1.236-2.79-.668-4.722-1.634-5.933-2.683-1.62-1.494-2.376-3.38-2.376-5.524 0-1.404.38-2.697 1.14-3.914.784-1.21 1.822-2.178 3.25-2.793 1.39-.626 3.087-.95 5.093-.95 3.236 0 5.75.795 7.328 2.29 1.692 1.505 2.558 3.544 2.654 6.05l-5.262.196c-.226-1.423-.678-2.447-1.485-3.005-.654-.638-1.804-.937-3.236-.937-1.554 0-2.727.366-3.588 1-.65.424-.88.977-.88 1.66 0 .71.23 1.235.827 1.682.644.616 2.23 1.26 4.75 1.818 2.587.65 4.467 1.35 5.684 2.04 1.26.634 2.227 1.538 2.934 2.73.654 1.144.99 2.64.99 4.39 0 1.524-.403 2.977-1.254 4.41-.823 1.375-1.953 2.327-3.472 3.03-1.52.634-3.41 1.018-5.698 1.018-3.29 0-5.814-.802-7.588-2.427-1.755-1.553-2.794-4-3.197-6.948M152.673 176.662h-5.737l-9.94 27.394h5.622l2.12-6.174h10.43l2.227 6.174h5.717l-10.44-27.394zm-6.304 16.522l3.45-10.146 3.637 10.146h-7.088zM171.142 204.056V192.62h1.072c1.274 0 2.077.126 2.635.304.562.26 1.13.606 1.596 1.14.514.558 1.394 1.947 2.75 3.972l3.784 6.02h6.227l-3.178-5.352c-1.17-2.116-2.184-3.592-2.94-4.448-.74-.832-1.672-1.635-2.77-2.284 2.256-.365 3.978-1.163 5.132-2.572 1.096-1.284 1.712-2.986 1.712-5.073 0-1.577-.42-2.99-1.15-4.27-.735-1.25-1.77-2.12-2.986-2.66-1.293-.422-3.317-.735-6.068-.735h-11.03v27.394h5.212zm0-22.72h4.14c2.1 0 3.35.043 3.76.043.846.163 1.486.5 1.972 1.163.47.495.72 1.293.72 2.125 0 .92-.225 1.534-.523 2.164-.36.447-.826.86-1.5 1.092-.562.23-2.154.36-4.664.36h-3.904v-6.948zM197.45 204.056V192.62h1.047c1.227 0 2.078.126 2.626.304.596.26 1.125.606 1.59 1.14.55.558 1.434 1.947 2.752 3.972l3.755 6.02h6.294l-3.154-5.352c-1.265-2.116-2.25-3.592-2.967-4.448-.707-.832-1.678-1.635-2.803-2.284 2.265-.365 3.938-1.163 5.082-2.572 1.145-1.284 1.707-2.986 1.707-5.073 0-1.577-.352-2.99-1.13-4.27-.74-1.25-1.722-2.12-2.977-2.66-1.265-.422-3.27-.735-6.05-.735H192.21v27.394h5.24zm0-22.72h4.057c2.12 0 3.414.043 3.775.043.943.163 1.596.5 2.068 1.163.418.495.658 1.293.658 2.125 0 .92-.192 1.534-.533 2.164-.375.447-.866.86-1.457 1.092-.65.23-2.193.36-4.756.36h-3.813v-6.948zM220.794 200.887c2.284 2.385 5.37 3.664 9.256 3.664 3.828 0 6.876-1.278 9.13-3.74 2.252-2.558 3.39-6.025 3.39-10.45 0-4.38-1.138-7.918-3.39-10.385-2.316-2.577-5.355-3.794-9.255-3.794-2.034 0-3.952.4-5.592 1.078-1.125.563-2.28 1.342-3.342 2.453-1.033 1.155-1.855 2.39-2.413 3.804-.822 1.92-1.226 4.246-1.226 6.997 0 4.41 1.14 7.776 3.444 10.377m3.98-17.623c1.328-1.62 3.117-2.4 5.276-2.4 2.154 0 3.885.78 5.188 2.323 1.352 1.597 2.04 3.924 2.04 7.083 0 3.154-.756 5.544-2.092 7.165-1.347 1.577-3.087 2.38-5.136 2.38-2.13 0-3.885-.803-5.203-2.38-1.38-1.664-2.038-4.01-2.038-7.074 0-3.196.657-5.557 1.965-7.096M246.904 204.056v-27.163h5.178v22.5h13.137v4.663h-18.316zM269.1 204.056v-27.163h5.23v22.5h13.09v4.663H269.1zM293.498 200.887c2.332 2.385 5.39 3.664 9.265 3.664 3.862 0 6.9-1.278 9.204-3.74 2.24-2.558 3.395-6.025 3.395-10.45 0-4.38-1.222-7.918-3.462-10.385-2.347-2.577-5.372-3.794-9.218-3.794-2.14 0-3.953.4-5.593 1.078-1.222.563-2.347 1.342-3.347 2.453-1.048 1.155-1.823 2.39-2.443 3.804-.832 1.92-1.178 4.246-1.178 6.997 0 4.41 1.178 7.776 3.376 10.377m4.005-17.623c1.385-1.62 3.04-2.4 5.26-2.4 2.18 0 3.88.78 5.198 2.323 1.295 1.597 1.978 3.924 1.978 7.083 0 3.154-.683 5.544-2.03 7.165-1.312 1.577-3.034 2.38-5.145 2.38-2.072 0-3.827-.803-5.207-2.38-1.342-1.664-2.024-4.01-2.024-7.074 0-3.196.682-5.557 1.97-7.096M318.126 195.175l5.126-.553c.26 1.817.91 3.072 1.87 3.996.92.836 2.217 1.27 3.814 1.27 1.707 0 2.943-.347 3.813-1.184.816-.74 1.235-1.59 1.235-2.61 0-.63-.197-1.174-.51-1.65-.322-.443-1-.842-1.822-1.164-.65-.303-2.025-.66-4.314-1.236-2.76-.668-4.698-1.634-5.804-2.683-1.674-1.494-2.467-3.38-2.467-5.524 0-1.404.393-2.697 1.148-3.914.755-1.21 1.813-2.178 3.23-2.793 1.4-.626 3.127-.95 5.118-.95 3.298 0 5.755.795 7.352 2.29 1.66 1.505 2.53 3.544 2.572 6.05l-5.178.196c-.29-1.423-.77-2.447-1.448-3.005-.76-.638-1.875-.937-3.347-.937-1.476 0-2.683.366-3.54 1-.595.424-.854.977-.854 1.66 0 .71.26 1.235.84 1.682.612.616 2.223 1.26 4.776 1.818 2.528.65 4.456 1.35 5.658 2.04 1.178.634 2.18 1.538 2.818 2.73.707 1.144 1.063 2.64 1.063 4.39 0 1.524-.415 2.977-1.218 4.41-.808 1.375-1.986 2.327-3.505 3.03-1.534.634-3.453 1.018-5.674 1.018-3.308 0-5.862-.802-7.607-2.427-1.76-1.553-2.813-4-3.15-6.948M41.054 331.254l14.575-.702c.302 1.832.946 3.226 1.94 4.212 1.535 1.625 3.786 2.356 6.728 2.356 2.188 0 3.89-.385 5.064-1.12 1.178-.832 1.764-1.77 1.764-2.895 0-.967-.586-1.875-1.702-2.693-1.1-.735-3.79-1.505-7.862-2.178-6.688-1.25-11.516-2.803-14.4-4.784-2.82-1.93-4.29-4.516-4.29-7.468 0-2.024.75-3.91 2.236-5.65 1.438-1.765 3.746-3.183 6.65-4.313 2.972-.924 7.015-1.477 12.19-1.477 6.332 0 11.107.96 14.468 2.798 3.323 1.92 5.294 4.805 5.89 8.873l-14.478.707c-.288-1.76-1.053-3.087-2.36-3.86-1.208-.785-2.886-1.223-5.055-1.223-1.764 0-3.11.308-3.957.938-.947.553-1.385 1.22-1.385 2.188 0 .586.338 1.125 1.102 1.596.702.47 2.41.99 5.112 1.466 6.65 1.082 11.477 2.28 14.363 3.428 2.928 1.125 5.005 2.52 6.356 4.222 1.29 1.784 1.98 3.67 1.98 5.818 0 2.52-.883 4.833-2.634 6.91-1.78 2.092-4.17 3.688-7.386 4.76-3.11 1.058-7.13 1.654-11.954 1.654-8.396 0-14.224-1.235-17.464-3.87-3.237-2.544-5.04-5.78-5.492-9.694M95.197 336.1c2.222 3.04 5.232 5.227 8.93 6.588 3.616 1.428 8.265 2.13 13.848 2.13 5.51 0 10.117-.774 13.776-2.385 3.694-1.683 6.56-3.952 8.47-6.837 1.932-2.93 2.927-6.69 2.927-11.2 0-6.226-2.23-11.068-6.688-14.54-4.483-3.496-10.883-5.313-19.1-5.313-8.083 0-14.325 1.817-18.797 5.328-4.553 3.597-6.775 8.483-6.775 14.892 0 4.515 1.106 8.29 3.41 11.34m14.656-19.88c1.894-1.644 4.39-2.572 7.505-2.572 3.22 0 5.726.928 7.66 2.563 1.87 1.668 2.817 4.37 2.817 8.02 0 4.405-.923 7.386-2.74 9.06-1.804 1.702-4.333 2.543-7.64 2.543-3.185 0-5.71-.88-7.618-2.563-1.852-1.72-2.742-4.568-2.742-8.472 0-3.933.952-6.832 2.756-8.578M152.83 336.1c2.338 3.04 5.247 5.227 8.926 6.588 3.702 1.428 8.266 2.13 13.887 2.13 5.505 0 10.112-.774 13.834-2.385 3.664-1.683 6.448-3.952 8.443-6.837 1.914-2.93 2.88-6.69 2.88-11.2 0-6.226-2.22-11.068-6.722-14.54-4.366-3.496-10.76-5.313-19.032-5.313-8.06 0-14.314 1.817-18.82 5.328-4.496 3.597-6.77 8.483-6.77 14.892 0 4.515 1.16 8.29 3.375 11.34m14.734-19.88c1.86-1.644 4.395-2.572 7.42-2.572 3.24 0 5.804.928 7.684 2.563 1.904 1.668 2.813 4.37 2.813 8.02 0 4.405-.908 7.386-2.65 9.06-1.836 1.702-4.398 2.543-7.654 2.543-3.217 0-5.79-.88-7.64-2.563-1.87-1.72-2.74-4.568-2.74-8.472 0-3.933.922-6.832 2.768-8.578M209.13 305.274h14.222l18.767 21.508v-21.508h14.497v38.93H242.12l-18.653-21.432v21.43H209.13v-38.928zM266.604 305.274h41.194v8.3h-25.816v6.163h23.955v7.968h-23.955v7.742h26.51v8.756h-41.888v-38.93zM332.297 344.203v-15.806h1.36c1.342 0 2.626.24 3.694.88.866.49 1.77 1.448 2.732 2.996l8.203 11.93h17.344l-7.454-11.257c-.365-.6-1.043-1.394-2.154-2.418-1.043-1.053-1.87-1.74-2.428-2.087-.818-.48-2.126-.98-3.986-1.456 2.26-.366 4.116-.88 5.37-1.553 2.078-.908 3.62-2.25 4.886-3.716 1.1-1.64 1.697-3.525 1.697-5.626 0-2.515-.763-4.616-2.263-6.386-1.525-1.678-3.564-2.894-6.093-3.457-2.476-.74-6.11-.97-10.838-.97H316.89v38.928h15.407zm0-31.144h6.727c2.693 0 4.63.407 5.63 1.028 1.02.692 1.544 1.668 1.544 2.942 0 .808-.322 1.602-.96 2.26-.665.664-1.487 1.063-2.507 1.188-1.956.413-3.307.572-3.994.572h-6.44v-7.99z"/></svg>