<svg xmlns="http://www.w3.org/2000/svg" width="420" height="55.009"><path d="M13.54 27.905c2.655 0 5.614-1.176 7.834-3.222 2.482-2.307 3.57-4.745 3.57-7.923 0-4.875-1.392-7.662-5.006-10.536-2.393-1.914-5.398-2.958-8.707-2.958-2.09 0-3.045.39-3.045 1.26 0 .22.043.742.043 1.526 0 2.002-.174 4.832-.174 8.532 0 2.308.088 3.83.088 4.613l.043 4.05c0 2.96 1.958 4.658 5.354 4.658M4.09 6.008c0-.48.044-.784.044-.958 0-.827-.392-1.263-1.218-1.263-.872 0-1.655.305-2.396.305C.174 4.092 0 3.962 0 3.7c0-1.436 3.614-1.61 11.362-1.61 5.224 0 9.1.653 12.363 3.265 3.354 2.655 5.268 6.616 5.268 10.882 0 7.75-5.79 12.974-15.237 12.974-1.13 0-2.35-.13-3.613-.13H3.178c-.436 0-.87.13-1.263.13-.61 0-1-.13-1-.435 0-1.087 1.74-1.044 2.61-1.437.654-.304.698-.784.698-2.09v-.957L4.093 6.01zM37.046 2.132c1.262 0 1.915.654 1.915 1.742 0 1.176-.696 1.873-1.87 1.873-1.22 0-1.916-.61-1.916-1.83 0-1.13.697-1.785 1.872-1.785m-2.003 14.716c0-1.873-1.872-1.612-1.872-2.308 0-.523.61-.478 1.482-.827 1.785-.74 2.654-2.22 3.178-2.22.348 0 .434.174.434.652 0 .35-.26 2.526-.26 6.618v6.833c0 1.09.042 1.7.608 1.917 1.308.522 2.265.392 2.265 1.044 0 .262-.348.436-.914.436-1.655 0-2.917-.174-3.744-.174-1.917 0-3.005.173-3.31.173-.48 0-.782-.218-.782-.478 0-.698 1.13-.393 2.306-.96.48-.217.61-1.13.61-2.828V16.85zM52.5 27.556c3.526 0 4.223-1.088 4.223-3.265 0-4.22-.045-6.702-.348-7.573-.61-1.742-2.35-3.004-4.44-3.004-3.31 0-6.096 2.873-6.096 6.92 0 3.963 2.918 6.923 6.66 6.923m4.05-23.378c0-1.696-2.134-1.305-2.134-1.958 0-.522.696-.74 1.872-1.218 1.436-.612 2.307-.915 2.57-.915.477 0 .738.262.738.827 0 .39-.087 1-.087 1.872 0 .696.044 1.437.044 2.308 0 1.043-.088 2.263-.088 3.57v17.325c0 1.436.043 1.915.87 1.915.654 0 1.09-.174 1.35-.174.304 0 .523.175.523.392 0 .262-.263.566-.742.697-2.264.695-3.57 1-3.96 1-.74 0-.83-.26-.872-.783-.086-.915.042-1.22-.348-1.22-.48 0-2.134 1.394-5.4 1.394-4.526 0-8.095-3.352-8.095-7.706 0-5.006 4.134-8.793 9.23-8.793 1.913 0 3.177.654 3.786.654.478 0 .74-.304.74-.913V4.18zM68.78 2.132c1.264 0 1.916.654 1.916 1.742 0 1.176-.697 1.873-1.872 1.873-1.218 0-1.915-.61-1.915-1.83 0-1.13.696-1.785 1.87-1.785M66.78 16.848c0-1.873-1.87-1.612-1.87-2.308 0-.523.607-.478 1.48-.827 1.784-.74 2.653-2.22 3.177-2.22.348 0 .434.174.434.652 0 .35-.26 2.526-.26 6.618v6.833c0 1.09.042 1.7.61 1.917 1.305.522 2.262.392 2.262 1.044 0 .262-.348.436-.914.436-1.654 0-2.917-.174-3.743-.174-1.917 0-3.005.173-3.31.173-.48 0-.782-.218-.782-.478 0-.698 1.13-.393 2.306-.96.478-.217.608-1.13.608-2.828V16.85zM79.708 17.37c4.57 0 6.53-.132 6.53-1.916 0-1.785-1.307-2.872-3.31-2.872-2.61 0-4.788 2.654-4.788 4.09 0 .698.26.698 1.568.698m-1.394.958c-.652 0-.826.305-.826 1.566 0 4.44 2.35 7.184 6.007 7.184 2.394 0 3.918-1.394 4.528-1.394.218 0 .348.174.348.393 0 .696-2.567 3.438-6.006 3.438-4.44 0-7.836-3.657-7.836-8.707 0-5.312 3.526-9.36 8.01-9.36 3.873 0 6.616 3.136 6.616 6.574 0 .306-.348.567-1.044.567-.13 0-.348-.046-.566-.046l-9.23-.216zM94.465 17.37c0-2.09-1.742-1.916-1.742-2.7 0-.435 1.176-.74 1.96-1.61.957-1.133 1.524-1.83 2.09-1.83.348 0 .52.262.52.784 0 .218-.043.437-.043.61 0 .305.044.566.044.74 0 .305-.044.567-.044.742 0 .172 0 .26.175.26.523 0 1.7-2.48 4.223-2.48 1.61 0 2.57.87 2.57 2.306 0 .958-.655 1.48-1.962 1.48-1.087 0-2-.828-2.83-.828-1.522 0-2 1.307-2 3.962l.043 6.53c0 .13.043.522.043 1.175v.176c0 .48.044.652.695.827 2.222.653 3.44.392 3.44 1.087 0 .307-.218.48-.696.48-.262 0-1.35-.173-3.266-.173-2.568 0-4.18.477-4.745.477-.608 0-.913-.26-.913-.696 0-.828.914-.61 1.698-1.043.697-.394.74-.83.74-2.22V17.37zM126.33 15.324c0 .347.22.522.61.522.175 0 .435-.043.87-.043.48 0 1.09.087 1.742.087.435 0 .957-.087 1.48-.087h.654c.435 0 .523-.045.523-.436 0-.217-.438-1.916-1.57-5.05-.653-1.785-.827-2.7-1.13-2.7-.306 0-.525.784-1.177 2.44l-1.567 4.09c-.217.61-.435.96-.435 1.177m1.003-6.618c.652-1.48 1.13-2.654 1.437-3.395l1.13-2.96c.218-.564.392-.913.828-.913.304 0 .566.35.783.957l6.358 18.24c1.262 3.657 2.22 5.834 2.83 6.486 1.087 1.176 2.872.61 2.872 1.48 0 .437-.262.61-.828.61-1.436 0-3.44-.13-5.876-.13-1.132 0-2.22.13-3.265.13-.74 0-1.174-.217-1.174-.653 0-.652.697-.565 1.96-.826 1.042-.217 1.39-.435 1.39-1.176 0-.303-.216-.783-.434-1.567l-1.784-6.093c-.262-.96-.306-1.35-.96-1.35h-.564c-.61 0-1.437-.13-2.482-.13-1.48 0-2.57.13-3.308.13-.61 0-.566.087-.915.914-2.046 4.788-2.613 7.793-2.613 7.924 0 .738.392 1.088 1.307 1.263 1.262.26 2.045.433 2.045.955 0 .393-.176.61-.523.61-.26 0-1.088-.173-2.524-.173-2.57 0-4.702.174-6.444.174-.436 0-.654-.13-.654-.435 0-.915 1.917-.39 3.048-1.524 1.002-.956 1.697-3.263 3.09-6.485l5.27-12.06zM148.23 5.485V3.787c0-.61-.09-.696-.612-.958-.827-.436-1.394-.61-1.394-1.088 0-.305.174-.305.524-.437L150.23.087c.174-.043.304-.087.435-.087.48 0 .784.305.784.827 0 .435-.176 3.222-.22 8.49l-.086 16.367c0 1.264.087 1.61.87 1.96 1 .434 2.395.13 2.395 1 0 .393-.306.393-1.088.393-.784 0-1.656-.087-2.526-.087-1.916 0-3.57.218-5.007.218h-.175c-.39 0-.61-.045-.61-.568 0-.695 1.393-.347 2.613-1.13.348-.22.522-1.393.522-3.57l.09-18.415zM161.592 17.37c4.57 0 6.53-.132 6.53-1.916 0-1.785-1.306-2.872-3.308-2.872-2.613 0-4.79 2.654-4.79 4.09 0 .698.263.698 1.568.698m-1.394.958c-.652 0-.827.305-.827 1.566 0 4.44 2.352 7.184 6.01 7.184 2.394 0 3.917-1.394 4.527-1.394.217 0 .347.174.347.393 0 .696-2.567 3.438-6.007 3.438-4.44 0-7.836-3.657-7.836-8.707 0-5.312 3.527-9.36 8.012-9.36 3.874 0 6.616 3.136 6.616 6.574 0 .306-.348.567-1.045.567-.13 0-.347-.046-.565-.046l-9.23-.216zM176.26 17.02v-.085c0-1.96-1.696-1.872-1.696-2.612 0-.26.13-.35.348-.48l3.614-2.176c.174-.087.305-.13.435-.13.348 0 .437.304.437 1v1c0 .394.086.57.392.57.346 0 1.913-2.222 5.702-2.222 3.003 0 4.09 2.393 4.875 2.393.218 0 .48-.26.827-.61 1.305-1.174 2.438-2.045 4.83-2.045 4.14 0 5.923 2.308 5.923 7.01v4.396c0 .435-.044.782-.044 1.088v1.436c0 1 0 1.654.61 2.002 1.043.566 2.046.436 2.046.872 0 .39-.22.565-.7.565-.477 0-1.827-.26-4.004-.26-.477 0-1.61.26-3.35.26-.348 0-.74-.26-.74-.565 0-.653.824-.523 2.176-.828.87-.174.914-.696.914-1.48 0-.61.086-1.48.086-2.57l.045-5.745c0-2.787-.87-4.004-4.31-4.004-3.658 0-4.092 1.436-4.092 4.135v.74l.044 6.967v.87c0 .696.217.914.91 1.088 1.223.35 1.962.392 1.962.784 0 .435-.263.61-.827.61-1.09 0-2.22-.22-3.44-.22-1.045 0-2.09.263-3.222.263-1.044 0-1.524-.175-1.524-.653 0-.828 1.392-.567 2.218-.914.612-.262.872-.87.872-1.874 0-.303-.044-.61-.044-.913l.044-7.008v-.437c0-2.307-1.217-3.437-3.7-3.437-2.09 0-3.7.958-4.266 1.87-.262.438-.48 1.83-.48 4.007v6.138c0 .784.045 1.176.48 1.523.74.522 2.22.393 2.22 1.046 0 .523-.218.61-.74.61-1.524 0-3.047-.262-4.528-.262-1.306 0-2.308.305-2.96.305-.26 0-.478-.218-.478-.522 0-.61.914-.48 1.914-.96.784-.39 1.09-1.087 1.09-2.262l.13-8.272zM211.785 9.056l5.136-6.488c.57-.697 1.004-1.087 1.526-1.087.652 0 1.176.48 1.176 1.088 0 .523-.35.914-1.003 1.48l-5.79 5.008h-1.045zm1.524 18.064c2.26 0 3.61-1.436 3.61-3.613 0-.826-.042-1.522-.042-2.177 0-.39.043-.696.043-.87 0-.39-.172-.566-.564-.566-.434 0-1.74.35-3.047 1.176-1.482.957-2.31 2.308-2.31 3.526 0 1.698.785 2.524 2.31 2.524m-2.267 2.264c-1.827 0-3.307-1.48-3.307-3.395 0-2.483 1.914-4.572 5.746-6.182 2.526-1.045 3.525-.697 3.525-1.873v-2.7c0-1.26-1.085-2.22-2.784-2.22-1.48 0-2.83 1.047-3.31 2.31-.61 1.61-.826 2.785-2.525 2.785-.522 0-.958-.393-.958-.784 0-.696.698-1.915 2.135-3.178 1.828-1.61 3.57-2.394 5.746-2.394 3.396 0 4.485 1.35 4.485 5.006 0 1.612-.086 2.612-.086 3.004l.04 4.266v.522c0 1.263.48 1.83 1.568 1.83.915 0 1.393-.61 1.786-.61.175 0 .392.217.392.522 0 .914-1.786 2.525-3.615 2.525-1.216 0-2.087-.698-3.264-2.09-1.916 1.785-4.005 2.654-5.573 2.654M227.368 17.805c0-.044-.044-.217-.044-.435v-.26c0-.48-.042-.83-.432-1.176-.48-.438-1.308-.13-1.308-.784 0-.523.914-.827 1.698-1.524 1.568-1.394 2.22-2.264 2.612-2.264.436 0 .48.218.48.87 0 .523.042.828.042.915 0 .217-.042.435-.042.566 0 .218.042.304.174.304.522 0 1.74-2.09 5.266-2.09 5.137 0 6.008 2.482 6.052 8.36l.044 5.224c0 .436-.044.828-.044 1.22 0 .826.566.87 1.697 1.087.567.088.87.218.87.654 0 .523-.434.567-1.566.567-.912 0-1.784-.175-2.7-.175-.87 0-1.914.175-3.176.175-.566 0-.826-.218-.826-.697 0-.61 1.044-.435 1.96-.827.475-.218.65-.697.65-1.436V24.16l-.043-5.788v-.437c0-2.742-1.262-4.134-3.827-4.134-2.615 0-4.487 1.393-4.487 2.003v.477c0 .26-.086 1.395-.086 3.354l.044 5.006c0 1.48.174 2.394.433 2.698.7.87 2.7.437 2.7 1.262 0 .35-.26.48-.87.48-.87 0-2.09-.26-3.57-.26-1.218 0-2.22.217-3.09.217-.566 0-.742-.13-.742-.566 0-.653.83-.52 1.742-1.132.305-.173.437-1.087.437-2.655l-.046-6.878zM265.024 12.842c0 .218-.042.392-.042.522 0 .48.695.567 2.263.567 4.83 0 7.27-1.785 7.27-5.354 0-3.57-2.09-4.963-6.836-4.963-2.57 0-2.612.392-2.612 2.046l-.086 6.79c0 .175.042.305.042.392m4.31 14.67c4.398 0 6.704-2.132 6.704-5.964 0-4.744-3.352-6.398-10.098-6.398-.83 0-.958.13-.958.784 0 .39-.088.958-.088 1.654 0 .217.044.61.044 1.262 0 .13-.044.435-.044.74v3.613c0 3.048.783 4.31 4.44 4.31M261.28 9.708v-2.22c0-2.048-.043-3.048-.39-3.135-1.787-.435-3.355-.13-3.355-.915 0-.87 1.786-.956 6.312-.956 2.05 0 3.66-.13 4.878-.13 5.832 0 9.272 2.654 9.272 6.136 0 1.525-.608 3.048-1.61 4.006-.524.522-1.175.696-1.175 1.044 0 .436.566.48 1.305 1.002 2.35 1.654 3.396 3.482 3.396 6.18 0 5.574-3.918 8.49-11.798 8.49-.958 0-1.872-.173-2.83-.173-2.134 0-4.31.174-6.444.174-1.173 0-1.738-.217-1.738-.826 0-.35 1.132-.914 2.872-.914.87 0 1.088-1.262 1.13-3.875l.177-13.887zM289.01 17.37c4.57 0 6.53-.132 6.53-1.916 0-1.785-1.305-2.872-3.308-2.872-2.61 0-4.79 2.654-4.79 4.09 0 .698.263.698 1.567.698m-1.392.958c-.653 0-.826.305-.826 1.566 0 4.44 2.35 7.184 6.005 7.184 2.396 0 3.92-1.394 4.528-1.394.217 0 .348.174.348.393 0 .696-2.566 3.438-6.006 3.438-4.443 0-7.835-3.657-7.835-8.707 0-5.312 3.525-9.36 8.01-9.36 3.873 0 6.616 3.136 6.616 6.574 0 .306-.35.567-1.044.567-.13 0-.35-.046-.567-.046l-9.23-.216zM303.463 17.805c0-.044-.04-.217-.04-.435v-.26c0-.48-.045-.83-.437-1.176-.48-.438-1.307-.13-1.307-.784 0-.523.913-.827 1.698-1.524 1.565-1.394 2.22-2.264 2.61-2.264.436 0 .48.218.48.87 0 .523.042.828.042.915 0 .217-.042.435-.042.566 0 .218.042.304.174.304.522 0 1.742-2.09 5.268-2.09 5.137 0 6.008 2.482 6.05 8.36l.045 5.224c0 .436-.046.828-.046 1.22 0 .826.567.87 1.7 1.087.564.088.87.218.87.654 0 .523-.437.567-1.568.567-.913 0-1.784-.175-2.7-.175-.868 0-1.913.175-3.177.175-.566 0-.826-.218-.826-.697 0-.61 1.043-.435 1.957-.827.478-.218.653-.697.653-1.436V24.16l-.044-5.788v-.437c0-2.742-1.264-4.134-3.83-4.134-2.612 0-4.486 1.393-4.486 2.003v.477c0 .26-.086 1.395-.086 3.354l.044 5.006c0 1.48.174 2.394.435 2.698.698.87 2.7.437 2.7 1.262 0 .35-.262.48-.87.48-.873 0-2.09-.26-3.572-.26-1.216 0-2.22.217-3.09.217-.565 0-.74-.13-.74-.566 0-.653.83-.52 1.743-1.132.305-.173.434-1.087.434-2.655l-.044-6.878zM328.975 27.12c2.262 0 3.61-1.436 3.61-3.613 0-.826-.04-1.522-.04-2.177 0-.39.04-.696.04-.87 0-.39-.172-.566-.564-.566-.435 0-1.742.35-3.045 1.176-1.48.957-2.31 2.308-2.31 3.526 0 1.698.785 2.524 2.31 2.524m-2.266 2.264c-1.828 0-3.308-1.48-3.308-3.395 0-2.483 1.915-4.572 5.746-6.182 2.524-1.045 3.526-.697 3.526-1.873v-2.7c0-1.26-1.09-2.22-2.786-2.22-1.48 0-2.83 1.047-3.308 2.31-.61 1.61-.83 2.785-2.525 2.785-.524 0-.957-.393-.957-.784 0-.696.695-1.915 2.13-3.178 1.83-1.61 3.57-2.394 5.748-2.394 3.397 0 4.484 1.35 4.484 5.006 0 1.612-.088 2.612-.088 3.004l.045 4.266v.522c0 1.263.48 1.83 1.567 1.83.914 0 1.393-.61 1.786-.61.172 0 .392.217.392.522 0 .914-1.785 2.525-3.616 2.525-1.217 0-2.09-.698-3.265-2.09-1.912 1.785-4.004 2.654-5.57 2.654M349.174 29.82c-.39 0-.61-.48-.915-1.263-.394-.957-1.003-2.263-1.83-4.048-2.306-5.007-3.35-7.793-3.57-8.185-1.523-2.83-3.527-2.83-3.527-3.57 0-.26.133-.392.436-.392.262 0 1.262.175 3.09.175 2.57 0 4.18-.175 4.788-.175.524 0 .785.175.785.48 0 .52-.652.48-1.653.695-.784.175-1.176.61-1.176 1.09 0 .086.13.826.436 1.523l2.524 6.226c.523 1.262.87 1.828 1.392 1.828.434 0 .653-.566 1.046-1.698l2.003-5.57c.434-1.178.565-1.96.565-2.31 0-.61-.218-1-.654-1.13-.87-.218-1.74-.132-1.74-.567 0-.48.478-.567 1.522-.567.698 0 1.44.088 2.134.088.825 0 1.655-.087 2.525-.087.567 0 .872.22.872.523 0 .61-.915.392-1.743.87-.915.522-1.175 1.698-1.828 3.265l-3.92 9.622c-.826 2.046-1 3.178-1.566 3.178M364.366 2.132c1.262 0 1.913.654 1.913 1.742 0 1.176-.697 1.873-1.872 1.873-1.217 0-1.916-.61-1.916-1.83 0-1.13.7-1.785 1.874-1.785m-2.004 14.716c0-1.873-1.873-1.612-1.873-2.308 0-.523.612-.478 1.48-.827 1.785-.74 2.656-2.22 3.18-2.22.348 0 .433.174.433.652 0 .35-.26 2.526-.26 6.618v6.833c0 1.09.043 1.7.61 1.917 1.305.522 2.263.392 2.263 1.044 0 .262-.35.436-.914.436-1.654 0-2.916-.174-3.745-.174-1.913 0-3.003.173-3.307.173-.48 0-.783-.218-.783-.478 0-.698 1.132-.393 2.306-.96.48-.217.61-1.13.61-2.828V16.85zM379.82 27.556c3.525 0 4.223-1.088 4.223-3.265 0-4.22-.044-6.702-.35-7.573-.608-1.742-2.35-3.004-4.44-3.004-3.308 0-6.094 2.873-6.094 6.92 0 3.963 2.915 6.923 6.66 6.923m4.048-23.378c0-1.696-2.132-1.305-2.132-1.958 0-.522.695-.74 1.87-1.218 1.437-.612 2.308-.915 2.57-.915.478 0 .738.262.738.827 0 .39-.085 1-.085 1.872 0 .696.042 1.437.042 2.308 0 1.043-.086 2.263-.086 3.57v17.325c0 1.436.043 1.915.868 1.915.655 0 1.09-.174 1.35-.174.307 0 .523.175.523.392 0 .262-.26.566-.74.697-2.264.695-3.57 1-3.96 1-.742 0-.828-.26-.873-.783-.086-.915.045-1.22-.347-1.22-.48 0-2.133 1.394-5.397 1.394-4.53 0-8.1-3.352-8.1-7.706 0-5.006 4.137-8.793 9.23-8.793 1.916 0 3.18.654 3.788.654.48 0 .74-.304.74-.913V4.18zM396.753 17.37c4.57 0 6.53-.132 6.53-1.916 0-1.785-1.306-2.872-3.308-2.872-2.613 0-4.79 2.654-4.79 4.09 0 .698.26.698 1.568.698m-1.393.958c-.653 0-.827.305-.827 1.566 0 4.44 2.352 7.184 6.008 7.184 2.394 0 3.92-1.394 4.528-1.394.218 0 .35.174.35.393 0 .696-2.57 3.438-6.01 3.438-4.438 0-7.835-3.657-7.835-8.707 0-5.312 3.527-9.36 8.01-9.36 3.874 0 6.617 3.136 6.617 6.574 0 .306-.35.567-1.044.567-.132 0-.35-.046-.568-.046l-9.228-.216zM408.856 26.642v-1c0-.96.087-1.308.78-1.308.438 0 .57.697 1.136 1.743.783 1.393 1.568 2.132 2.96 2.132 1.958 0 3.307-1.22 3.307-3.09 0-1.787-1.74-2.526-4.047-3.832-2.57-1.436-3.92-2.7-3.92-4.658 0-2.874 2.177-5.007 5.877-5.007 3.788 0 3.96.39 3.96 2.44v.74c0 .955-.04 1.348-.345 1.348-.916 0-.916-1-1.61-1.915-.656-.87-1.57-1.22-2.918-1.22-1.393 0-2.438 1.047-2.438 2.31 0 1.784 1.696 2.35 4.31 3.83 2.784 1.566 4.09 2.437 4.09 4.963 0 3.57-2.263 5.44-6.66 5.44-3.484 0-4.484-.826-4.484-2.916" fill="#f0db71"/><path d="M67.83 48.47c0 .107.065.16.185.16.053 0 .133-.013.265-.013.147 0 .332.026.53.026.134 0 .292-.026.452-.026h.2c.132 0 .158-.015.158-.134 0-.065-.134-.583-.477-1.538-.2-.545-.253-.823-.345-.823-.093 0-.16.24-.358.742l-.48 1.248c-.065.185-.13.292-.13.36m.304-2.02c.2-.45.345-.808.44-1.034l.343-.902c.066-.173.12-.278.253-.278.092 0 .172.105.238.292l1.937 5.558c.386 1.116.677 1.778.863 1.978.33.358.875.185.875.45 0 .133-.08.187-.253.187-.435 0-1.048-.04-1.79-.04-.344 0-.676.04-.995.04-.226 0-.358-.067-.358-.2 0-.198.21-.17.597-.252.318-.064.423-.132.423-.357 0-.093-.066-.238-.13-.477l-.546-1.857c-.077-.294-.09-.413-.29-.413h-.172c-.187 0-.438-.04-.757-.04-.45 0-.782.04-1.007.04-.186 0-.173.027-.28.28-.62 1.458-.795 2.373-.795 2.413 0 .226.118.332.4.385.382.08.623.133.623.292 0 .12-.054.186-.16.186-.08 0-.332-.054-.77-.054-.783 0-1.43.053-1.962.053-.133 0-.2-.04-.2-.133 0-.278.584-.12.93-.464.304-.292.516-.996.942-1.978l1.604-3.675zM82.637 47.714c0 .065-.014.12-.014.16 0 .146.213.17.69.17 1.474 0 2.217-.54 2.217-1.63 0-1.088-.638-1.512-2.084-1.512-.783 0-.796.12-.796.622l-.027 2.07c0 .054.014.093.014.12m1.313 4.472c1.34 0 2.044-.65 2.044-1.82 0-1.444-1.022-1.948-3.08-1.948-.25 0-.29.038-.29.24 0 .118-.026.29-.026.502 0 .067.013.186.013.386 0 .04-.012.132-.012.225v1.1c0 .93.238 1.316 1.352 1.316m-2.455-5.427v-.678c0-.623-.013-.93-.118-.955-.544-.133-1.022-.04-1.022-.28 0-.264.543-.29 1.924-.29.622 0 1.113-.04 1.484-.04 1.78 0 2.826.81 2.826 1.872 0 .462-.185.926-.49 1.218-.158.16-.36.212-.36.318 0 .133.174.146.4.305.716.506 1.035 1.063 1.035 1.885 0 1.7-1.194 2.588-3.596 2.588-.293 0-.57-.054-.864-.054-.65 0-1.314.053-1.963.053-.36 0-.532-.067-.532-.253 0-.105.348-.278.877-.278.265 0 .333-.385.346-1.18l.052-4.233zM96.45 48.602c0 2.27 1.458 3.836 3.064 3.836 1.818 0 2.96-1.447 2.96-4.153 0-1.314-.4-2.27-1.315-2.986-.492-.385-.983-.572-1.514-.572-1.99 0-3.197 1.54-3.197 3.874m.424-3.435c.77-.545 1.62-.836 2.52-.836 2.774 0 4.472 1.712 4.472 4.166 0 2.668-1.832 4.394-4.418 4.394-1.048 0-2.07-.36-2.8-.97-.97-.81-1.538-2.043-1.538-3.357 0-1.34.622-2.587 1.764-3.396M117.292 49.24c-.065 0-.25-.013-.583-.013-.134 0-.2-.028-.2-.173 0-.172.37-.172 1.17-.172 1.244 0 2.028-.08 2.333-.08.306 0 .437.013.437.132 0 .36-.264.16-.902.345-.226.066-.305.252-.305.57l.013 1.54v.278c0 .213 0 .345-.05.424-.135.24-1.356.822-3.187.822-1.287 0-2.336-.423-3.33-1.3-.73-.648-1.168-1.684-1.168-2.918 0-2.43 1.976-4.3 4.79-4.3 1.34 0 2.28.332 2.573.545.133.093.173.52.173 1.275 0 .174 0 .238-.053.238-.28 0-.29-.21-.452-.438-.57-.835-.955-1.22-2.19-1.22-2.083 0-3.475 1.526-3.475 3.756 0 1.115.357 2.044 1.048 2.746.757.784 1.46 1.128 2.402 1.128 1.3 0 1.83-.265 1.83-1.247v-.04l-.012-1.313c0-.464-.226-.584-.864-.584M130.27 48.47c0 .107.065.16.184.16.053 0 .134-.013.266-.013.147 0 .332.026.53.026.134 0 .293-.026.454-.026h.197c.134 0 .16-.015.16-.134 0-.065-.132-.583-.477-1.538-.2-.545-.252-.823-.346-.823-.092 0-.157.24-.357.742l-.478 1.248c-.067.185-.132.292-.132.36m.305-2.02c.2-.45.344-.808.437-1.034l.345-.902c.067-.173.12-.278.252-.278.094 0 .172.105.237.292l1.938 5.558c.384 1.116.677 1.778.864 1.978.33.358.874.185.874.45 0 .133-.08.187-.252.187-.44 0-1.048-.04-1.792-.04-.345 0-.676.04-.994.04-.226 0-.36-.067-.36-.2 0-.198.214-.17.6-.252.316-.064.423-.132.423-.357 0-.093-.067-.238-.134-.477l-.544-1.857c-.08-.294-.093-.413-.292-.413h-.172c-.186 0-.438-.04-.758-.04-.45 0-.782.04-1.007.04-.186 0-.17.027-.28.28-.623 1.458-.794 2.373-.794 2.413 0 .226.117.332.396.385.385.08.625.133.625.292 0 .12-.054.186-.16.186-.08 0-.33-.054-.768-.054-.784 0-1.434.053-1.965.053-.133 0-.2-.04-.2-.133 0-.278.585-.12.93-.464.306-.292.518-.996.942-1.978l1.605-3.675zM146.72 52.305c.81 0 1.712-.36 2.39-.98.756-.705 1.088-1.448 1.088-2.416 0-1.49-.425-2.337-1.525-3.213-.732-.584-1.648-.9-2.655-.9-.637 0-.93.118-.93.383 0 .066.015.225.015.464 0 .61-.054 1.473-.054 2.6 0 .704.027 1.168.027 1.408l.012 1.233c0 .902.595 1.42 1.63 1.42m-2.878-6.675c0-.144.013-.238.013-.29 0-.253-.12-.385-.37-.385-.266 0-.506.092-.73.092-.108 0-.16-.04-.16-.12 0-.438 1.102-.49 3.463-.49 1.592 0 2.772.2 3.768.995 1.02.81 1.606 2.017 1.606 3.317 0 2.36-1.765 3.953-4.645 3.953-.344 0-.716-.04-1.102-.04h-2.12c-.134 0-.266.04-.385.04-.187 0-.307-.04-.307-.133 0-.33.532-.32.797-.438.198-.093.212-.24.212-.637v-.29l-.04-5.575zM160.587 48.602c0 2.27 1.46 3.836 3.065 3.836 1.818 0 2.96-1.447 2.96-4.153 0-1.314-.4-2.27-1.315-2.986-.49-.385-.982-.572-1.513-.572-1.99 0-3.197 1.54-3.197 3.874m.424-3.435c.77-.545 1.62-.836 2.523-.836 2.773 0 4.472 1.712 4.472 4.166 0 2.668-1.833 4.394-4.42 4.394-1.047 0-2.07-.36-2.798-.97-.97-.81-1.54-2.043-1.54-3.357 0-1.34.624-2.587 1.764-3.396M175.832 50.26c.212 0 .186.28.278.757.146.705.93 1.38 1.938 1.38 1.034 0 1.658-.53 1.658-1.42 0-.834-.583-1.312-1.725-1.884-1.485-.742-2.23-1.498-2.23-2.653 0-1.22.996-2.122 2.443-2.122.943 0 1.594.238 1.7.398.04.065.106.556.106 1.42 0 .17-.068.277-.16.277-.28 0-.186-.464-.372-.794-.305-.56-.797-.84-1.446-.84-.876 0-1.434.506-1.434 1.235 0 .89.624 1.155 1.567 1.633 1.62.808 2.427 1.46 2.427 2.693 0 1.62-1.022 2.535-2.826 2.535-.73 0-1.38-.16-1.924-.478-.24-.132-.252-.238-.252-.597v-.106c0-.98.013-1.433.252-1.433M238.962 48.988c.025-.624.04-1.18.04-1.66 0-1.273-.094-1.99-.267-2.175-.134-.132-.36-.12-.717-.16-.383-.038-.545-.025-.545-.17 0-.134.07-.187.215-.187.065 0 .29.027.688.027.704 0 1.09-.04 1.156-.04.425 0 .425.212.597.424l3.435 4.166c.94 1.14 1.66 1.753 1.685 1.753.08 0 .133-.028.133-.068 0-.027-.026-.16-.026-.437l-.04-4.14c0-.105.013-.198.013-.29 0-.134-.012-.267-.012-.386 0-.133.012-.252.012-.345 0-.28-.225-.28-.638-.318-.544-.055-.794-.027-.794-.227 0-.08.118-.185.264-.185.303 0 .545.066.704.066.373 0 .663-.014.875-.014.6 0 .943-.052 1.062-.052.214 0 .318.052.318.185 0 .147-.183.172-.61.227-.516.065-.596.092-.596.702v.292c0 .358-.066 1.55-.066 3.61 0 1.95.053 3.038.053 3.237 0 .198-.038.304-.16.304-.238 0-.344-.145-.49-.304l-5.042-5.786c-.425-.478-.53-.81-.718-.81-.065 0-.092.04-.092.12 0 .08.027.146.027.24 0 .08-.014.132-.014.172l.11 3.834c.012.756.05 1.22.105 1.393.052.145.437.358.916.358h.186c.292 0 .437.04.437.172 0 .173-.12.186-.37.186h-.347c-.663 0-1.074-.027-1.232-.027-.677 0-1.102.027-1.3.027-.226 0-.36 0-.36-.133 0-.265.4-.173.956-.292.384-.08.346-.265.357-.65l.095-2.64zM255.957 48.602c0 2.27 1.46 3.836 3.065 3.836 1.818 0 2.96-1.447 2.96-4.153 0-1.314-.4-2.27-1.314-2.986-.493-.385-.984-.572-1.515-.572-1.99 0-3.196 1.54-3.196 3.874m.425-3.435c.77-.545 1.62-.836 2.52-.836 2.775 0 4.472 1.712 4.472 4.166 0 2.668-1.83 4.394-4.416 4.394-1.05 0-2.07-.36-2.802-.97-.967-.81-1.54-2.043-1.54-3.357 0-1.34.625-2.587 1.766-3.396M273.896 46.228v-.252c0-.704-.014-.796-.943-.796-.756 0-1.18.265-1.618.822-.24.293-.332.544-.532.544-.105 0-.158-.066-.158-.212 0-.067.013-.12.026-.16l.64-1.764c.053-.16.118-.225.223-.225.12 0 .147.093.213.225.12.265.253.28.53.28h.173c.704 0 1.46.05 2.295.05.65 0 1.234-.05 1.727-.05h.476c.133 0 .25.012.346.012.16 0 .276-.027.385-.16.156-.026.156-.25.34-.25.108 0 .188.105.188.317v.053l-.04 1.58c0 .13-.106.224-.213.224-.305 0-.16-.504-.357-.77-.292-.398-.942-.517-2.137-.517-.33 0-.37.16-.37.968v.637l.026 4.3v.343c0 .426.028.61.292.704.597.213 1.1.014 1.1.4 0 .144-.078.17-.28.17-.05 0-.275-.012-.66-.012h-.466c-.145 0-.462-.014-.98-.014-.53 0-.944.027-1.194.027-.266 0-.387-.027-.387-.172 0-.305.492-.172 1.037-.384.29-.12.358-.478.358-1.208 0-.12-.01-.225-.01-.318l-.03-4.392zM287.71 48.47c0 .107.065.16.183.16.054 0 .133-.013.266-.013.146 0 .33.026.53.026.132 0 .293-.026.45-.026h.2c.134 0 .158-.015.158-.134 0-.065-.133-.583-.475-1.538-.2-.545-.255-.823-.346-.823-.093 0-.16.24-.36.742l-.477 1.248c-.065.185-.13.292-.13.36m.303-2.02c.2-.45.346-.808.438-1.034l.346-.902c.064-.173.12-.278.252-.278.093 0 .172.105.24.292l1.934 5.558c.386 1.116.676 1.778.865 1.978.33.358.876.185.876.45 0 .133-.08.187-.254.187-.438 0-1.047-.04-1.793-.04-.342 0-.675.04-.993.04-.224 0-.36-.067-.36-.2 0-.198.214-.17.598-.252.32-.064.425-.132.425-.357 0-.093-.066-.238-.132-.477l-.545-1.857c-.08-.294-.093-.413-.29-.413h-.174c-.187 0-.44-.04-.756-.04-.452 0-.782.04-1.01.04-.185 0-.17.027-.276.28-.625 1.458-.796 2.373-.796 2.413 0 .226.118.332.397.385.385.08.625.133.625.292 0 .12-.056.186-.162.186-.078 0-.33-.054-.77-.054-.783 0-1.43.053-1.96.053-.134 0-.202-.04-.202-.133 0-.278.584-.12.93-.464.305-.292.52-.996.94-1.978l1.607-3.675zM303.484 48.325c.983 0 1.58-.624 1.58-1.593 0-1.194-.638-1.777-1.952-1.777-.464 0-.518.172-.518.822v.332l.028 2.2c.372 0 .663.015.862.015m-2.005-1.036v-1.7c0-.37-.026-.463-.318-.543-.545-.16-.928-.026-.928-.266 0-.13.173-.21.503-.21.37 0 .797.066 1.275.066.557 0 1.153-.093 1.79-.093 1.473 0 2.348.81 2.348 2.056 0 .49-.185.927-.543 1.3-.372.385-.81.504-.81.677 0 .053.025.12.093.226l1.514 2.52c.212.358.398.57.768.743.584.266 1.05.173 1.05.425 0 .093-.094.213-.214.213-.067 0-.49-.054-1.246-.054-.2 0-.386.053-.57.053-.293 0-.426-.08-.558-.32l-1.658-3.023c-.292-.518-.597-.638-1.262-.638h-.12l-.012 2.588c0 .066.04.225.04.477 0 .265.29.32.796.438.357.08.583.093.583.292 0 .147-.092.186-.316.186-.093 0-.214-.027-.36-.027l-2.387.014c-.266 0-.452.013-.53.013-.148 0-.226-.054-.226-.186 0-.225.332-.185.78-.292.39-.093.482-.212.482-.53v-.2l.037-4.206zM315.955 46.507v-.173c0-.836 0-1.234-.238-1.287-.4-.106-.744-.08-.744-.306 0-.09.066-.145.2-.145.066 0 .185.027.397.027.584 0 1.248-.066 1.99-.066h.214c.293 0 .41.014.41.107 0 .078-.065.16-.145.184-.36.135-.73.055-.876.2-.095.092-.132.477-.132 1.155v.305l.037 2.296v.862c0 .358-.014.822-.014 1.42v.133c0 .61.013.914.385 1.06.32.133.784.027.784.28 0 .106-.065.145-.21.145-.227 0-.678-.067-1.342-.067-.106 0-.638.067-1.633.067h-.16c-.145 0-.238-.027-.238-.16 0-.238.397-.17.957-.318.316-.093.33-.226.33-.716v-.346l.025-4.657zM327.207 48.602c0 2.27 1.458 3.836 3.064 3.836 1.82 0 2.96-1.447 2.96-4.153 0-1.314-.397-2.27-1.314-2.986-.49-.385-.98-.572-1.51-.572-1.993 0-3.2 1.54-3.2 3.874m.427-3.435c.767-.545 1.617-.836 2.52-.836 2.772 0 4.47 1.712 4.47 4.166 0 2.668-1.83 4.394-4.42 4.394-1.047 0-2.07-.36-2.796-.97-.97-.81-1.54-2.043-1.54-3.357 0-1.34.622-2.587 1.766-3.396M342.45 50.26c.213 0 .188.28.28.757.146.705.93 1.38 1.936 1.38 1.035 0 1.66-.53 1.66-1.42 0-.834-.584-1.312-1.726-1.884-1.486-.742-2.228-1.498-2.228-2.653 0-1.22.994-2.122 2.44-2.122.943 0 1.595.238 1.698.398.042.065.107.556.107 1.42 0 .17-.065.277-.16.277-.276 0-.185-.464-.37-.794-.305-.56-.795-.84-1.446-.84-.874 0-1.43.506-1.43 1.235 0 .89.62 1.155 1.565 1.633 1.617.808 2.427 1.46 2.427 2.693 0 1.62-1.02 2.535-2.827 2.535-.73 0-1.38-.16-1.925-.478-.238-.132-.25-.238-.25-.597v-.106c0-.98.012-1.433.25-1.433M206.73 47.16c.332.313.478.52.583.52.31 0 1.37-.935 1.37-1.974 0-1.057-.54-1.597-1.558-1.597-.767 0-1.244.58-1.244 1.41 0 .665.312 1.1.85 1.64m-.704 1.62c-.022 0-.416.123-.79.395-.83.58-1.265 1.35-1.265 2.24 0 1.517 1.058 2.514 2.636 2.514 1.185 0 2.12-.5 2.866-1.496-1.992-2.493-3.24-3.654-3.446-3.654m-.27 6.23c-2.16 0-3.488-1.268-3.488-2.95 0-1.267.685-2.2 2.076-3.053.79-.476 1.204-.622 1.204-.704 0-.25-.934-.81-.934-2.202 0-1.368 1.142-2.47 2.7-2.47 1.41 0 2.448.894 2.448 2.118 0 .707-.29 1.122-.955 1.6-.6.436-1.08.436-1.08.622 0 .29.458.5.934 1.018 1.165 1.267 1.705 1.95 1.913 1.95.04 0 .228-.103.35-.29l1.455-2.117c.208-.29.31-.6.31-.788 0-.208-.122-.312-.374-.353-.6-.105-.953-.085-.953-.332 0-.126.146-.188.415-.188l2.804-.02c.33 0 .497.082.497.227 0 .332-.166.312-.477.353-.583.104-.852.435-1.184.852l-2.077 2.7c-.145.185-.353.31-.353.538 0 .23.208.478.54.81.892.893 1.536 1.39 2.136 1.39.46 0 .854-.186 1.185-.186.084 0 .167.083.167.23 0 .476-.81 1.245-2.138 1.245-1.102 0-1.868-.75-3.03-2.057-1.288 1.39-2.514 2.056-4.09 2.056"/><g><path d="M13.54 27.905c2.655 0 5.614-1.176 7.834-3.222 2.482-2.307 3.57-4.745 3.57-7.923 0-4.875-1.392-7.662-5.006-10.536-2.393-1.914-5.398-2.958-8.707-2.958-2.09 0-3.045.39-3.045 1.26 0 .22.043.742.043 1.526 0 2.002-.174 4.832-.174 8.532 0 2.308.088 3.83.088 4.613l.043 4.05c0 2.96 1.958 4.658 5.354 4.658M4.09 6.008c0-.48.044-.784.044-.958 0-.827-.392-1.263-1.218-1.263-.872 0-1.655.305-2.396.305C.174 4.092 0 3.962 0 3.7c0-1.436 3.614-1.61 11.362-1.61 5.224 0 9.1.653 12.363 3.265 3.354 2.655 5.268 6.616 5.268 10.882 0 7.75-5.79 12.974-15.237 12.974-1.13 0-2.35-.13-3.613-.13H3.178c-.436 0-.87.13-1.263.13-.61 0-1-.13-1-.435 0-1.087 1.74-1.044 2.61-1.437.654-.304.698-.784.698-2.09v-.957L4.093 6.01zM37.046 2.132c1.262 0 1.915.654 1.915 1.742 0 1.176-.696 1.873-1.87 1.873-1.22 0-1.916-.61-1.916-1.83 0-1.13.697-1.785 1.872-1.785m-2.003 14.716c0-1.873-1.872-1.612-1.872-2.308 0-.523.61-.478 1.482-.827 1.785-.74 2.654-2.22 3.178-2.22.348 0 .434.174.434.652 0 .35-.26 2.526-.26 6.618v6.833c0 1.09.042 1.7.608 1.917 1.308.522 2.265.392 2.265 1.044 0 .262-.348.436-.914.436-1.655 0-2.917-.174-3.744-.174-1.917 0-3.005.173-3.31.173-.48 0-.782-.218-.782-.478 0-.698 1.13-.393 2.306-.96.48-.217.61-1.13.61-2.828V16.85zM52.5 27.556c3.526 0 4.223-1.088 4.223-3.265 0-4.22-.045-6.702-.348-7.573-.61-1.742-2.35-3.004-4.44-3.004-3.31 0-6.096 2.873-6.096 6.92 0 3.963 2.918 6.923 6.66 6.923m4.05-23.378c0-1.696-2.134-1.305-2.134-1.958 0-.522.696-.74 1.872-1.218 1.436-.612 2.307-.915 2.57-.915.477 0 .738.262.738.827 0 .39-.087 1-.087 1.872 0 .696.044 1.437.044 2.308 0 1.043-.088 2.263-.088 3.57v17.325c0 1.436.043 1.915.87 1.915.654 0 1.09-.174 1.35-.174.304 0 .523.175.523.392 0 .262-.263.566-.742.697-2.264.695-3.57 1-3.96 1-.74 0-.83-.26-.872-.783-.086-.915.042-1.22-.348-1.22-.48 0-2.134 1.394-5.4 1.394-4.526 0-8.095-3.352-8.095-7.706 0-5.006 4.134-8.793 9.23-8.793 1.913 0 3.177.654 3.786.654.478 0 .74-.304.74-.913V4.18zM68.78 2.132c1.264 0 1.916.654 1.916 1.742 0 1.176-.697 1.873-1.872 1.873-1.218 0-1.915-.61-1.915-1.83 0-1.13.696-1.785 1.87-1.785M66.78 16.848c0-1.873-1.87-1.612-1.87-2.308 0-.523.607-.478 1.48-.827 1.784-.74 2.653-2.22 3.177-2.22.348 0 .434.174.434.652 0 .35-.26 2.526-.26 6.618v6.833c0 1.09.042 1.7.61 1.917 1.305.522 2.262.392 2.262 1.044 0 .262-.348.436-.914.436-1.654 0-2.917-.174-3.743-.174-1.917 0-3.005.173-3.31.173-.48 0-.782-.218-.782-.478 0-.698 1.13-.393 2.306-.96.478-.217.608-1.13.608-2.828V16.85zM79.708 17.37c4.57 0 6.53-.132 6.53-1.916 0-1.785-1.307-2.872-3.31-2.872-2.61 0-4.788 2.654-4.788 4.09 0 .698.26.698 1.568.698m-1.394.958c-.652 0-.826.305-.826 1.566 0 4.44 2.35 7.184 6.007 7.184 2.394 0 3.918-1.394 4.528-1.394.218 0 .348.174.348.393 0 .696-2.567 3.438-6.006 3.438-4.44 0-7.836-3.657-7.836-8.707 0-5.312 3.526-9.36 8.01-9.36 3.873 0 6.616 3.136 6.616 6.574 0 .306-.348.567-1.044.567-.13 0-.348-.046-.566-.046l-9.23-.216zM94.465 17.37c0-2.09-1.742-1.916-1.742-2.7 0-.435 1.176-.74 1.96-1.61.957-1.133 1.524-1.83 2.09-1.83.348 0 .52.262.52.784 0 .218-.043.437-.043.61 0 .305.044.566.044.74 0 .305-.044.567-.044.742 0 .172 0 .26.175.26.523 0 1.7-2.48 4.223-2.48 1.61 0 2.57.87 2.57 2.306 0 .958-.655 1.48-1.962 1.48-1.087 0-2-.828-2.83-.828-1.522 0-2 1.307-2 3.962l.043 6.53c0 .13.043.522.043 1.175v.176c0 .48.044.652.695.827 2.222.653 3.44.392 3.44 1.087 0 .307-.218.48-.696.48-.262 0-1.35-.173-3.266-.173-2.568 0-4.18.477-4.745.477-.608 0-.913-.26-.913-.696 0-.828.914-.61 1.698-1.043.697-.394.74-.83.74-2.22V17.37zM126.33 15.324c0 .347.22.522.61.522.175 0 .435-.043.87-.043.48 0 1.09.087 1.742.087.435 0 .957-.087 1.48-.087h.654c.435 0 .523-.045.523-.436 0-.217-.438-1.916-1.57-5.05-.653-1.785-.827-2.7-1.13-2.7-.306 0-.525.784-1.177 2.44l-1.567 4.09c-.217.61-.435.96-.435 1.177m1.003-6.618c.652-1.48 1.13-2.654 1.437-3.395l1.13-2.96c.218-.564.392-.913.828-.913.304 0 .566.35.783.957l6.358 18.24c1.262 3.657 2.22 5.834 2.83 6.486 1.087 1.176 2.872.61 2.872 1.48 0 .437-.262.61-.828.61-1.436 0-3.44-.13-5.876-.13-1.132 0-2.22.13-3.265.13-.74 0-1.174-.217-1.174-.653 0-.652.697-.565 1.96-.826 1.042-.217 1.39-.435 1.39-1.176 0-.303-.216-.783-.434-1.567l-1.784-6.093c-.262-.96-.306-1.35-.96-1.35h-.564c-.61 0-1.437-.13-2.482-.13-1.48 0-2.57.13-3.308.13-.61 0-.566.087-.915.914-2.046 4.788-2.613 7.793-2.613 7.924 0 .738.392 1.088 1.307 1.263 1.262.26 2.045.433 2.045.955 0 .393-.176.61-.523.61-.26 0-1.088-.173-2.524-.173-2.57 0-4.702.174-6.444.174-.436 0-.654-.13-.654-.435 0-.915 1.917-.39 3.048-1.524 1.002-.956 1.697-3.263 3.09-6.485l5.27-12.06zM148.23 5.485V3.787c0-.61-.09-.696-.612-.958-.827-.436-1.394-.61-1.394-1.088 0-.305.174-.305.524-.437L150.23.087c.174-.043.304-.087.435-.087.48 0 .784.305.784.827 0 .435-.176 3.222-.22 8.49l-.086 16.367c0 1.264.087 1.61.87 1.96 1 .434 2.395.13 2.395 1 0 .393-.306.393-1.088.393-.784 0-1.656-.087-2.526-.087-1.916 0-3.57.218-5.007.218h-.175c-.39 0-.61-.045-.61-.568 0-.695 1.393-.347 2.613-1.13.348-.22.522-1.393.522-3.57l.09-18.415zM161.592 17.37c4.57 0 6.53-.132 6.53-1.916 0-1.785-1.306-2.872-3.308-2.872-2.613 0-4.79 2.654-4.79 4.09 0 .698.263.698 1.568.698m-1.394.958c-.652 0-.827.305-.827 1.566 0 4.44 2.352 7.184 6.01 7.184 2.394 0 3.917-1.394 4.527-1.394.217 0 .347.174.347.393 0 .696-2.567 3.438-6.007 3.438-4.44 0-7.836-3.657-7.836-8.707 0-5.312 3.527-9.36 8.012-9.36 3.874 0 6.616 3.136 6.616 6.574 0 .306-.348.567-1.045.567-.13 0-.347-.046-.565-.046l-9.23-.216zM176.26 17.02v-.085c0-1.96-1.696-1.872-1.696-2.612 0-.26.13-.35.348-.48l3.614-2.176c.174-.087.305-.13.435-.13.348 0 .437.304.437 1v1c0 .394.086.57.392.57.346 0 1.913-2.222 5.702-2.222 3.003 0 4.09 2.393 4.875 2.393.218 0 .48-.26.827-.61 1.305-1.174 2.438-2.045 4.83-2.045 4.14 0 5.923 2.308 5.923 7.01v4.396c0 .435-.044.782-.044 1.088v1.436c0 1 0 1.654.61 2.002 1.043.566 2.046.436 2.046.872 0 .39-.22.565-.7.565-.477 0-1.827-.26-4.004-.26-.477 0-1.61.26-3.35.26-.348 0-.74-.26-.74-.565 0-.653.824-.523 2.176-.828.87-.174.914-.696.914-1.48 0-.61.086-1.48.086-2.57l.045-5.745c0-2.787-.87-4.004-4.31-4.004-3.658 0-4.092 1.436-4.092 4.135v.74l.044 6.967v.87c0 .696.217.914.91 1.088 1.223.35 1.962.392 1.962.784 0 .435-.263.61-.827.61-1.09 0-2.22-.22-3.44-.22-1.045 0-2.09.263-3.222.263-1.044 0-1.524-.175-1.524-.653 0-.828 1.392-.567 2.218-.914.612-.262.872-.87.872-1.874 0-.303-.044-.61-.044-.913l.044-7.008v-.437c0-2.307-1.217-3.437-3.7-3.437-2.09 0-3.7.958-4.266 1.87-.262.438-.48 1.83-.48 4.007v6.138c0 .784.045 1.176.48 1.523.74.522 2.22.393 2.22 1.046 0 .523-.218.61-.74.61-1.524 0-3.047-.262-4.528-.262-1.306 0-2.308.305-2.96.305-.26 0-.478-.218-.478-.522 0-.61.914-.48 1.914-.96.784-.39 1.09-1.087 1.09-2.262l.13-8.272zM211.785 9.056l5.136-6.488c.57-.697 1.004-1.087 1.526-1.087.652 0 1.176.48 1.176 1.088 0 .523-.35.914-1.003 1.48l-5.79 5.008h-1.045zm1.524 18.064c2.26 0 3.61-1.436 3.61-3.613 0-.826-.042-1.522-.042-2.177 0-.39.043-.696.043-.87 0-.39-.172-.566-.564-.566-.434 0-1.74.35-3.047 1.176-1.482.957-2.31 2.308-2.31 3.526 0 1.698.785 2.524 2.31 2.524m-2.267 2.264c-1.827 0-3.307-1.48-3.307-3.395 0-2.483 1.914-4.572 5.746-6.182 2.526-1.045 3.525-.697 3.525-1.873v-2.7c0-1.26-1.085-2.22-2.784-2.22-1.48 0-2.83 1.047-3.31 2.31-.61 1.61-.826 2.785-2.525 2.785-.522 0-.958-.393-.958-.784 0-.696.698-1.915 2.135-3.178 1.828-1.61 3.57-2.394 5.746-2.394 3.396 0 4.485 1.35 4.485 5.006 0 1.612-.086 2.612-.086 3.004l.04 4.266v.522c0 1.263.48 1.83 1.568 1.83.915 0 1.393-.61 1.786-.61.175 0 .392.217.392.522 0 .914-1.786 2.525-3.615 2.525-1.216 0-2.087-.698-3.264-2.09-1.916 1.785-4.005 2.654-5.573 2.654M227.368 17.805c0-.044-.044-.217-.044-.435v-.26c0-.48-.042-.83-.432-1.176-.48-.438-1.308-.13-1.308-.784 0-.523.914-.827 1.698-1.524 1.568-1.394 2.22-2.264 2.612-2.264.436 0 .48.218.48.87 0 .523.042.828.042.915 0 .217-.042.435-.042.566 0 .218.042.304.174.304.522 0 1.74-2.09 5.266-2.09 5.137 0 6.008 2.482 6.052 8.36l.044 5.224c0 .436-.044.828-.044 1.22 0 .826.566.87 1.697 1.087.567.088.87.218.87.654 0 .523-.434.567-1.566.567-.912 0-1.784-.175-2.7-.175-.87 0-1.914.175-3.176.175-.566 0-.826-.218-.826-.697 0-.61 1.044-.435 1.96-.827.475-.218.65-.697.65-1.436V24.16l-.043-5.788v-.437c0-2.742-1.262-4.134-3.827-4.134-2.615 0-4.487 1.393-4.487 2.003v.477c0 .26-.086 1.395-.086 3.354l.044 5.006c0 1.48.174 2.394.433 2.698.7.87 2.7.437 2.7 1.262 0 .35-.26.48-.87.48-.87 0-2.09-.26-3.57-.26-1.218 0-2.22.217-3.09.217-.566 0-.742-.13-.742-.566 0-.653.83-.52 1.742-1.132.305-.173.437-1.087.437-2.655l-.046-6.878zM265.024 12.842c0 .218-.042.392-.042.522 0 .48.695.567 2.263.567 4.83 0 7.27-1.785 7.27-5.354 0-3.57-2.09-4.963-6.836-4.963-2.57 0-2.612.392-2.612 2.046l-.086 6.79c0 .175.042.305.042.392m4.31 14.67c4.398 0 6.704-2.132 6.704-5.964 0-4.744-3.352-6.398-10.098-6.398-.83 0-.958.13-.958.784 0 .39-.088.958-.088 1.654 0 .217.044.61.044 1.262 0 .13-.044.435-.044.74v3.613c0 3.048.783 4.31 4.44 4.31M261.28 9.708v-2.22c0-2.048-.043-3.048-.39-3.135-1.787-.435-3.355-.13-3.355-.915 0-.87 1.786-.956 6.312-.956 2.05 0 3.66-.13 4.878-.13 5.832 0 9.272 2.654 9.272 6.136 0 1.525-.608 3.048-1.61 4.006-.524.522-1.175.696-1.175 1.044 0 .436.566.48 1.305 1.002 2.35 1.654 3.396 3.482 3.396 6.18 0 5.574-3.918 8.49-11.798 8.49-.958 0-1.872-.173-2.83-.173-2.134 0-4.31.174-6.444.174-1.173 0-1.738-.217-1.738-.826 0-.35 1.132-.914 2.872-.914.87 0 1.088-1.262 1.13-3.875l.177-13.887zM289.01 17.37c4.57 0 6.53-.132 6.53-1.916 0-1.785-1.305-2.872-3.308-2.872-2.61 0-4.79 2.654-4.79 4.09 0 .698.263.698 1.567.698m-1.392.958c-.653 0-.826.305-.826 1.566 0 4.44 2.35 7.184 6.005 7.184 2.396 0 3.92-1.394 4.528-1.394.217 0 .348.174.348.393 0 .696-2.566 3.438-6.006 3.438-4.443 0-7.835-3.657-7.835-8.707 0-5.312 3.525-9.36 8.01-9.36 3.873 0 6.616 3.136 6.616 6.574 0 .306-.35.567-1.044.567-.13 0-.35-.046-.567-.046l-9.23-.216zM303.463 17.805c0-.044-.04-.217-.04-.435v-.26c0-.48-.045-.83-.437-1.176-.48-.438-1.307-.13-1.307-.784 0-.523.913-.827 1.698-1.524 1.565-1.394 2.22-2.264 2.61-2.264.436 0 .48.218.48.87 0 .523.042.828.042.915 0 .217-.042.435-.042.566 0 .218.042.304.174.304.522 0 1.742-2.09 5.268-2.09 5.137 0 6.008 2.482 6.05 8.36l.045 5.224c0 .436-.046.828-.046 1.22 0 .826.567.87 1.7 1.087.564.088.87.218.87.654 0 .523-.437.567-1.568.567-.913 0-1.784-.175-2.7-.175-.868 0-1.913.175-3.177.175-.566 0-.826-.218-.826-.697 0-.61 1.043-.435 1.957-.827.478-.218.653-.697.653-1.436V24.16l-.044-5.788v-.437c0-2.742-1.264-4.134-3.83-4.134-2.612 0-4.486 1.393-4.486 2.003v.477c0 .26-.086 1.395-.086 3.354l.044 5.006c0 1.48.174 2.394.435 2.698.698.87 2.7.437 2.7 1.262 0 .35-.262.48-.87.48-.873 0-2.09-.26-3.572-.26-1.216 0-2.22.217-3.09.217-.565 0-.74-.13-.74-.566 0-.653.83-.52 1.743-1.132.305-.173.434-1.087.434-2.655l-.044-6.878zM328.975 27.12c2.262 0 3.61-1.436 3.61-3.613 0-.826-.04-1.522-.04-2.177 0-.39.04-.696.04-.87 0-.39-.172-.566-.564-.566-.435 0-1.742.35-3.045 1.176-1.48.957-2.31 2.308-2.31 3.526 0 1.698.785 2.524 2.31 2.524m-2.266 2.264c-1.828 0-3.308-1.48-3.308-3.395 0-2.483 1.915-4.572 5.746-6.182 2.524-1.045 3.526-.697 3.526-1.873v-2.7c0-1.26-1.09-2.22-2.786-2.22-1.48 0-2.83 1.047-3.308 2.31-.61 1.61-.83 2.785-2.525 2.785-.524 0-.957-.393-.957-.784 0-.696.695-1.915 2.13-3.178 1.83-1.61 3.57-2.394 5.748-2.394 3.397 0 4.484 1.35 4.484 5.006 0 1.612-.088 2.612-.088 3.004l.045 4.266v.522c0 1.263.48 1.83 1.567 1.83.914 0 1.393-.61 1.786-.61.172 0 .392.217.392.522 0 .914-1.785 2.525-3.616 2.525-1.217 0-2.09-.698-3.265-2.09-1.912 1.785-4.004 2.654-5.57 2.654M349.174 29.82c-.39 0-.61-.48-.915-1.263-.394-.957-1.003-2.263-1.83-4.048-2.306-5.007-3.35-7.793-3.57-8.185-1.523-2.83-3.527-2.83-3.527-3.57 0-.26.133-.392.436-.392.262 0 1.262.175 3.09.175 2.57 0 4.18-.175 4.788-.175.524 0 .785.175.785.48 0 .52-.652.48-1.653.695-.784.175-1.176.61-1.176 1.09 0 .086.13.826.436 1.523l2.524 6.226c.523 1.262.87 1.828 1.392 1.828.434 0 .653-.566 1.046-1.698l2.003-5.57c.434-1.178.565-1.96.565-2.31 0-.61-.218-1-.654-1.13-.87-.218-1.74-.132-1.74-.567 0-.48.478-.567 1.522-.567.698 0 1.44.088 2.134.088.825 0 1.655-.087 2.525-.087.567 0 .872.22.872.523 0 .61-.915.392-1.743.87-.915.522-1.175 1.698-1.828 3.265l-3.92 9.622c-.826 2.046-1 3.178-1.566 3.178M364.366 2.132c1.262 0 1.913.654 1.913 1.742 0 1.176-.697 1.873-1.872 1.873-1.217 0-1.916-.61-1.916-1.83 0-1.13.7-1.785 1.874-1.785m-2.004 14.716c0-1.873-1.873-1.612-1.873-2.308 0-.523.612-.478 1.48-.827 1.785-.74 2.656-2.22 3.18-2.22.348 0 .433.174.433.652 0 .35-.26 2.526-.26 6.618v6.833c0 1.09.043 1.7.61 1.917 1.305.522 2.263.392 2.263 1.044 0 .262-.35.436-.914.436-1.654 0-2.916-.174-3.745-.174-1.913 0-3.003.173-3.307.173-.48 0-.783-.218-.783-.478 0-.698 1.132-.393 2.306-.96.48-.217.61-1.13.61-2.828V16.85zM379.82 27.556c3.525 0 4.223-1.088 4.223-3.265 0-4.22-.044-6.702-.35-7.573-.608-1.742-2.35-3.004-4.44-3.004-3.308 0-6.094 2.873-6.094 6.92 0 3.963 2.915 6.923 6.66 6.923m4.048-23.378c0-1.696-2.132-1.305-2.132-1.958 0-.522.695-.74 1.87-1.218 1.437-.612 2.308-.915 2.57-.915.478 0 .738.262.738.827 0 .39-.085 1-.085 1.872 0 .696.042 1.437.042 2.308 0 1.043-.086 2.263-.086 3.57v17.325c0 1.436.043 1.915.868 1.915.655 0 1.09-.174 1.35-.174.307 0 .523.175.523.392 0 .262-.26.566-.74.697-2.264.695-3.57 1-3.96 1-.742 0-.828-.26-.873-.783-.086-.915.045-1.22-.347-1.22-.48 0-2.133 1.394-5.397 1.394-4.53 0-8.1-3.352-8.1-7.706 0-5.006 4.137-8.793 9.23-8.793 1.916 0 3.18.654 3.788.654.48 0 .74-.304.74-.913V4.18zM396.753 17.37c4.57 0 6.53-.132 6.53-1.916 0-1.785-1.306-2.872-3.308-2.872-2.613 0-4.79 2.654-4.79 4.09 0 .698.26.698 1.568.698m-1.393.958c-.653 0-.827.305-.827 1.566 0 4.44 2.352 7.184 6.008 7.184 2.394 0 3.92-1.394 4.528-1.394.218 0 .35.174.35.393 0 .696-2.57 3.438-6.01 3.438-4.438 0-7.835-3.657-7.835-8.707 0-5.312 3.527-9.36 8.01-9.36 3.874 0 6.617 3.136 6.617 6.574 0 .306-.35.567-1.044.567-.132 0-.35-.046-.568-.046l-9.228-.216zM408.856 26.642v-1c0-.96.087-1.308.78-1.308.438 0 .57.697 1.136 1.743.783 1.393 1.568 2.132 2.96 2.132 1.958 0 3.307-1.22 3.307-3.09 0-1.787-1.74-2.526-4.047-3.832-2.57-1.436-3.92-2.7-3.92-4.658 0-2.874 2.177-5.007 5.877-5.007 3.788 0 3.96.39 3.96 2.44v.74c0 .955-.04 1.348-.345 1.348-.916 0-.916-1-1.61-1.915-.656-.87-1.57-1.22-2.918-1.22-1.393 0-2.438 1.047-2.438 2.31 0 1.784 1.696 2.35 4.31 3.83 2.784 1.566 4.09 2.437 4.09 4.963 0 3.57-2.263 5.44-6.66 5.44-3.484 0-4.484-.826-4.484-2.916" fill="#f0db71"/><path d="M67.83 48.47c0 .107.065.16.185.16.053 0 .133-.013.265-.013.147 0 .332.026.53.026.134 0 .292-.026.452-.026h.2c.132 0 .158-.015.158-.134 0-.065-.134-.583-.477-1.538-.2-.545-.253-.823-.345-.823-.093 0-.16.24-.358.742l-.48 1.248c-.065.185-.13.292-.13.36m.304-2.02c.2-.45.345-.808.44-1.034l.343-.902c.066-.173.12-.278.253-.278.092 0 .172.105.238.292l1.937 5.558c.386 1.116.677 1.778.863 1.978.33.358.875.185.875.45 0 .133-.08.187-.253.187-.435 0-1.048-.04-1.79-.04-.344 0-.676.04-.995.04-.226 0-.358-.067-.358-.2 0-.198.21-.17.597-.252.318-.064.423-.132.423-.357 0-.093-.066-.238-.13-.477l-.546-1.857c-.077-.294-.09-.413-.29-.413h-.172c-.187 0-.438-.04-.757-.04-.45 0-.782.04-1.007.04-.186 0-.173.027-.28.28-.62 1.458-.795 2.373-.795 2.413 0 .226.118.332.4.385.382.08.623.133.623.292 0 .12-.054.186-.16.186-.08 0-.332-.054-.77-.054-.783 0-1.43.053-1.962.053-.133 0-.2-.04-.2-.133 0-.278.584-.12.93-.464.304-.292.516-.996.942-1.978l1.604-3.675zM82.637 47.714c0 .065-.014.12-.014.16 0 .146.213.17.69.17 1.474 0 2.217-.54 2.217-1.63 0-1.088-.638-1.512-2.084-1.512-.783 0-.796.12-.796.622l-.027 2.07c0 .054.014.093.014.12m1.313 4.472c1.34 0 2.044-.65 2.044-1.82 0-1.444-1.022-1.948-3.08-1.948-.25 0-.29.038-.29.24 0 .118-.026.29-.026.502 0 .067.013.186.013.386 0 .04-.012.132-.012.225v1.1c0 .93.238 1.316 1.352 1.316m-2.455-5.427v-.678c0-.623-.013-.93-.118-.955-.544-.133-1.022-.04-1.022-.28 0-.264.543-.29 1.924-.29.622 0 1.113-.04 1.484-.04 1.78 0 2.826.81 2.826 1.872 0 .462-.185.926-.49 1.218-.158.16-.36.212-.36.318 0 .133.174.146.4.305.716.506 1.035 1.063 1.035 1.885 0 1.7-1.194 2.588-3.596 2.588-.293 0-.57-.054-.864-.054-.65 0-1.314.053-1.963.053-.36 0-.532-.067-.532-.253 0-.105.348-.278.877-.278.265 0 .333-.385.346-1.18l.052-4.233zM96.45 48.602c0 2.27 1.458 3.836 3.064 3.836 1.818 0 2.96-1.447 2.96-4.153 0-1.314-.4-2.27-1.315-2.986-.492-.385-.983-.572-1.514-.572-1.99 0-3.197 1.54-3.197 3.874m.424-3.435c.77-.545 1.62-.836 2.52-.836 2.774 0 4.472 1.712 4.472 4.166 0 2.668-1.832 4.394-4.418 4.394-1.048 0-2.07-.36-2.8-.97-.97-.81-1.538-2.043-1.538-3.357 0-1.34.622-2.587 1.764-3.396M117.292 49.24c-.065 0-.25-.013-.583-.013-.134 0-.2-.028-.2-.173 0-.172.37-.172 1.17-.172 1.244 0 2.028-.08 2.333-.08.306 0 .437.013.437.132 0 .36-.264.16-.902.345-.226.066-.305.252-.305.57l.013 1.54v.278c0 .213 0 .345-.05.424-.135.24-1.356.822-3.187.822-1.287 0-2.336-.423-3.33-1.3-.73-.648-1.168-1.684-1.168-2.918 0-2.43 1.976-4.3 4.79-4.3 1.34 0 2.28.332 2.573.545.133.093.173.52.173 1.275 0 .174 0 .238-.053.238-.28 0-.29-.21-.452-.438-.57-.835-.955-1.22-2.19-1.22-2.083 0-3.475 1.526-3.475 3.756 0 1.115.357 2.044 1.048 2.746.757.784 1.46 1.128 2.402 1.128 1.3 0 1.83-.265 1.83-1.247v-.04l-.012-1.313c0-.464-.226-.584-.864-.584M130.27 48.47c0 .107.065.16.184.16.053 0 .134-.013.266-.013.147 0 .332.026.53.026.134 0 .293-.026.454-.026h.197c.134 0 .16-.015.16-.134 0-.065-.132-.583-.477-1.538-.2-.545-.252-.823-.346-.823-.092 0-.157.24-.357.742l-.478 1.248c-.067.185-.132.292-.132.36m.305-2.02c.2-.45.344-.808.437-1.034l.345-.902c.067-.173.12-.278.252-.278.094 0 .172.105.237.292l1.938 5.558c.384 1.116.677 1.778.864 1.978.33.358.874.185.874.45 0 .133-.08.187-.252.187-.44 0-1.048-.04-1.792-.04-.345 0-.676.04-.994.04-.226 0-.36-.067-.36-.2 0-.198.214-.17.6-.252.316-.064.423-.132.423-.357 0-.093-.067-.238-.134-.477l-.544-1.857c-.08-.294-.093-.413-.292-.413h-.172c-.186 0-.438-.04-.758-.04-.45 0-.782.04-1.007.04-.186 0-.17.027-.28.28-.623 1.458-.794 2.373-.794 2.413 0 .226.117.332.396.385.385.08.625.133.625.292 0 .12-.054.186-.16.186-.08 0-.33-.054-.768-.054-.784 0-1.434.053-1.965.053-.133 0-.2-.04-.2-.133 0-.278.585-.12.93-.464.306-.292.518-.996.942-1.978l1.605-3.675zM146.72 52.305c.81 0 1.712-.36 2.39-.98.756-.705 1.088-1.448 1.088-2.416 0-1.49-.425-2.337-1.525-3.213-.732-.584-1.648-.9-2.655-.9-.637 0-.93.118-.93.383 0 .066.015.225.015.464 0 .61-.054 1.473-.054 2.6 0 .704.027 1.168.027 1.408l.012 1.233c0 .902.595 1.42 1.63 1.42m-2.878-6.675c0-.144.013-.238.013-.29 0-.253-.12-.385-.37-.385-.266 0-.506.092-.73.092-.108 0-.16-.04-.16-.12 0-.438 1.102-.49 3.463-.49 1.592 0 2.772.2 3.768.995 1.02.81 1.606 2.017 1.606 3.317 0 2.36-1.765 3.953-4.645 3.953-.344 0-.716-.04-1.102-.04h-2.12c-.134 0-.266.04-.385.04-.187 0-.307-.04-.307-.133 0-.33.532-.32.797-.438.198-.093.212-.24.212-.637v-.29l-.04-5.575zM160.587 48.602c0 2.27 1.46 3.836 3.065 3.836 1.818 0 2.96-1.447 2.96-4.153 0-1.314-.4-2.27-1.315-2.986-.49-.385-.982-.572-1.513-.572-1.99 0-3.197 1.54-3.197 3.874m.424-3.435c.77-.545 1.62-.836 2.523-.836 2.773 0 4.472 1.712 4.472 4.166 0 2.668-1.833 4.394-4.42 4.394-1.047 0-2.07-.36-2.798-.97-.97-.81-1.54-2.043-1.54-3.357 0-1.34.624-2.587 1.764-3.396M175.832 50.26c.212 0 .186.28.278.757.146.705.93 1.38 1.938 1.38 1.034 0 1.658-.53 1.658-1.42 0-.834-.583-1.312-1.725-1.884-1.485-.742-2.23-1.498-2.23-2.653 0-1.22.996-2.122 2.443-2.122.943 0 1.594.238 1.7.398.04.065.106.556.106 1.42 0 .17-.068.277-.16.277-.28 0-.186-.464-.372-.794-.305-.56-.797-.84-1.446-.84-.876 0-1.434.506-1.434 1.235 0 .89.624 1.155 1.567 1.633 1.62.808 2.427 1.46 2.427 2.693 0 1.62-1.022 2.535-2.826 2.535-.73 0-1.38-.16-1.924-.478-.24-.132-.252-.238-.252-.597v-.106c0-.98.013-1.433.252-1.433M238.962 48.988c.025-.624.04-1.18.04-1.66 0-1.273-.094-1.99-.267-2.175-.134-.132-.36-.12-.717-.16-.383-.038-.545-.025-.545-.17 0-.134.07-.187.215-.187.065 0 .29.027.688.027.704 0 1.09-.04 1.156-.04.425 0 .425.212.597.424l3.435 4.166c.94 1.14 1.66 1.753 1.685 1.753.08 0 .133-.028.133-.068 0-.027-.026-.16-.026-.437l-.04-4.14c0-.105.013-.198.013-.29 0-.134-.012-.267-.012-.386 0-.133.012-.252.012-.345 0-.28-.225-.28-.638-.318-.544-.055-.794-.027-.794-.227 0-.08.118-.185.264-.185.303 0 .545.066.704.066.373 0 .663-.014.875-.014.6 0 .943-.052 1.062-.052.214 0 .318.052.318.185 0 .147-.183.172-.61.227-.516.065-.596.092-.596.702v.292c0 .358-.066 1.55-.066 3.61 0 1.95.053 3.038.053 3.237 0 .198-.038.304-.16.304-.238 0-.344-.145-.49-.304l-5.042-5.786c-.425-.478-.53-.81-.718-.81-.065 0-.092.04-.092.12 0 .08.027.146.027.24 0 .08-.014.132-.014.172l.11 3.834c.012.756.05 1.22.105 1.393.052.145.437.358.916.358h.186c.292 0 .437.04.437.172 0 .173-.12.186-.37.186h-.347c-.663 0-1.074-.027-1.232-.027-.677 0-1.102.027-1.3.027-.226 0-.36 0-.36-.133 0-.265.4-.173.956-.292.384-.08.346-.265.357-.65l.095-2.64zM255.957 48.602c0 2.27 1.46 3.836 3.065 3.836 1.818 0 2.96-1.447 2.96-4.153 0-1.314-.4-2.27-1.314-2.986-.493-.385-.984-.572-1.515-.572-1.99 0-3.196 1.54-3.196 3.874m.425-3.435c.77-.545 1.62-.836 2.52-.836 2.775 0 4.472 1.712 4.472 4.166 0 2.668-1.83 4.394-4.416 4.394-1.05 0-2.07-.36-2.802-.97-.967-.81-1.54-2.043-1.54-3.357 0-1.34.625-2.587 1.766-3.396M273.896 46.228v-.252c0-.704-.014-.796-.943-.796-.756 0-1.18.265-1.618.822-.24.293-.332.544-.532.544-.105 0-.158-.066-.158-.212 0-.067.013-.12.026-.16l.64-1.764c.053-.16.118-.225.223-.225.12 0 .147.093.213.225.12.265.253.28.53.28h.173c.704 0 1.46.05 2.295.05.65 0 1.234-.05 1.727-.05h.476c.133 0 .25.012.346.012.16 0 .276-.027.385-.16.156-.026.156-.25.34-.25.108 0 .188.105.188.317v.053l-.04 1.58c0 .13-.106.224-.213.224-.305 0-.16-.504-.357-.77-.292-.398-.942-.517-2.137-.517-.33 0-.37.16-.37.968v.637l.026 4.3v.343c0 .426.028.61.292.704.597.213 1.1.014 1.1.4 0 .144-.078.17-.28.17-.05 0-.275-.012-.66-.012h-.466c-.145 0-.462-.014-.98-.014-.53 0-.944.027-1.194.027-.266 0-.387-.027-.387-.172 0-.305.492-.172 1.037-.384.29-.12.358-.478.358-1.208 0-.12-.01-.225-.01-.318l-.03-4.392zM287.71 48.47c0 .107.065.16.183.16.054 0 .133-.013.266-.013.146 0 .33.026.53.026.132 0 .293-.026.45-.026h.2c.134 0 .158-.015.158-.134 0-.065-.133-.583-.475-1.538-.2-.545-.255-.823-.346-.823-.093 0-.16.24-.36.742l-.477 1.248c-.065.185-.13.292-.13.36m.303-2.02c.2-.45.346-.808.438-1.034l.346-.902c.064-.173.12-.278.252-.278.093 0 .172.105.24.292l1.934 5.558c.386 1.116.676 1.778.865 1.978.33.358.876.185.876.45 0 .133-.08.187-.254.187-.438 0-1.047-.04-1.793-.04-.342 0-.675.04-.993.04-.224 0-.36-.067-.36-.2 0-.198.214-.17.598-.252.32-.064.425-.132.425-.357 0-.093-.066-.238-.132-.477l-.545-1.857c-.08-.294-.093-.413-.29-.413h-.174c-.187 0-.44-.04-.756-.04-.452 0-.782.04-1.01.04-.185 0-.17.027-.276.28-.625 1.458-.796 2.373-.796 2.413 0 .226.118.332.397.385.385.08.625.133.625.292 0 .12-.056.186-.162.186-.078 0-.33-.054-.77-.054-.783 0-1.43.053-1.96.053-.134 0-.202-.04-.202-.133 0-.278.584-.12.93-.464.305-.292.52-.996.94-1.978l1.607-3.675zM303.484 48.325c.983 0 1.58-.624 1.58-1.593 0-1.194-.638-1.777-1.952-1.777-.464 0-.518.172-.518.822v.332l.028 2.2c.372 0 .663.015.862.015m-2.005-1.036v-1.7c0-.37-.026-.463-.318-.543-.545-.16-.928-.026-.928-.266 0-.13.173-.21.503-.21.37 0 .797.066 1.275.066.557 0 1.153-.093 1.79-.093 1.473 0 2.348.81 2.348 2.056 0 .49-.185.927-.543 1.3-.372.385-.81.504-.81.677 0 .053.025.12.093.226l1.514 2.52c.212.358.398.57.768.743.584.266 1.05.173 1.05.425 0 .093-.094.213-.214.213-.067 0-.49-.054-1.246-.054-.2 0-.386.053-.57.053-.293 0-.426-.08-.558-.32l-1.658-3.023c-.292-.518-.597-.638-1.262-.638h-.12l-.012 2.588c0 .066.04.225.04.477 0 .265.29.32.796.438.357.08.583.093.583.292 0 .147-.092.186-.316.186-.093 0-.214-.027-.36-.027l-2.387.014c-.266 0-.452.013-.53.013-.148 0-.226-.054-.226-.186 0-.225.332-.185.78-.292.39-.093.482-.212.482-.53v-.2l.037-4.206zM315.955 46.507v-.173c0-.836 0-1.234-.238-1.287-.4-.106-.744-.08-.744-.306 0-.09.066-.145.2-.145.066 0 .185.027.397.027.584 0 1.248-.066 1.99-.066h.214c.293 0 .41.014.41.107 0 .078-.065.16-.145.184-.36.135-.73.055-.876.2-.095.092-.132.477-.132 1.155v.305l.037 2.296v.862c0 .358-.014.822-.014 1.42v.133c0 .61.013.914.385 1.06.32.133.784.027.784.28 0 .106-.065.145-.21.145-.227 0-.678-.067-1.342-.067-.106 0-.638.067-1.633.067h-.16c-.145 0-.238-.027-.238-.16 0-.238.397-.17.957-.318.316-.093.33-.226.33-.716v-.346l.025-4.657zM327.207 48.602c0 2.27 1.458 3.836 3.064 3.836 1.82 0 2.96-1.447 2.96-4.153 0-1.314-.397-2.27-1.314-2.986-.49-.385-.98-.572-1.51-.572-1.993 0-3.2 1.54-3.2 3.874m.427-3.435c.767-.545 1.617-.836 2.52-.836 2.772 0 4.47 1.712 4.47 4.166 0 2.668-1.83 4.394-4.42 4.394-1.047 0-2.07-.36-2.796-.97-.97-.81-1.54-2.043-1.54-3.357 0-1.34.622-2.587 1.766-3.396M342.45 50.26c.213 0 .188.28.28.757.146.705.93 1.38 1.936 1.38 1.035 0 1.66-.53 1.66-1.42 0-.834-.584-1.312-1.726-1.884-1.486-.742-2.228-1.498-2.228-2.653 0-1.22.994-2.122 2.44-2.122.943 0 1.595.238 1.698.398.042.065.107.556.107 1.42 0 .17-.065.277-.16.277-.276 0-.185-.464-.37-.794-.305-.56-.795-.84-1.446-.84-.874 0-1.43.506-1.43 1.235 0 .89.62 1.155 1.565 1.633 1.617.808 2.427 1.46 2.427 2.693 0 1.62-1.02 2.535-2.827 2.535-.73 0-1.38-.16-1.925-.478-.238-.132-.25-.238-.25-.597v-.106c0-.98.012-1.433.25-1.433M206.73 47.16c.332.313.478.52.583.52.31 0 1.37-.935 1.37-1.974 0-1.057-.54-1.597-1.558-1.597-.767 0-1.244.58-1.244 1.41 0 .665.312 1.1.85 1.64m-.704 1.62c-.022 0-.416.123-.79.395-.83.58-1.265 1.35-1.265 2.24 0 1.517 1.058 2.514 2.636 2.514 1.185 0 2.12-.5 2.866-1.496-1.992-2.493-3.24-3.654-3.446-3.654m-.27 6.23c-2.16 0-3.488-1.268-3.488-2.95 0-1.267.685-2.2 2.076-3.053.79-.476 1.204-.622 1.204-.704 0-.25-.934-.81-.934-2.202 0-1.368 1.142-2.47 2.7-2.47 1.41 0 2.448.894 2.448 2.118 0 .707-.29 1.122-.955 1.6-.6.436-1.08.436-1.08.622 0 .29.458.5.934 1.018 1.165 1.267 1.705 1.95 1.913 1.95.04 0 .228-.103.35-.29l1.455-2.117c.208-.29.31-.6.31-.788 0-.208-.122-.312-.374-.353-.6-.105-.953-.085-.953-.332 0-.126.146-.188.415-.188l2.804-.02c.33 0 .497.082.497.227 0 .332-.166.312-.477.353-.583.104-.852.435-1.184.852l-2.077 2.7c-.145.185-.353.31-.353.538 0 .23.208.478.54.81.892.893 1.536 1.39 2.136 1.39.46 0 .854-.186 1.185-.186.084 0 .167.083.167.23 0 .476-.81 1.245-2.138 1.245-1.102 0-1.868-.75-3.03-2.057-1.288 1.39-2.514 2.056-4.09 2.056"/></g></svg>