<svg xmlns="http://www.w3.org/2000/svg" width="430" height="325.353"><path d="M13.36 254.11c4 0 5.9-.542 6.797-.995 1.224-.625 2.22-1.683 3.042-3.24.858-1.625 1.286-3.693 1.286-6.156 0-3.798-.985-6.616-3.02-8.622-1.778-1.745-4.825-2.63-9.075-2.63h-.587v21.642h1.557zM0 265.772v-44.888h11.245c6.313 0 10.944.802 14.147 2.433 3.234 1.65 5.912 4.333 7.974 7.984 2.032 3.61 3.063 7.845 3.063 12.6 0 3.38-.585 6.553-1.715 9.418-1.15 2.906-2.77 5.36-4.818 7.292-2.057 1.948-4.333 3.313-6.77 4.073-2.36.735-6.2 1.09-11.746 1.09H0zm43.013-44.888H54.81v44.888H43.013v-44.888zm79.51 44.888v-44.888h26.36v11.693h-14.564v3.287h14.562v11.547H134.32v6.648h14.562v11.714h-26.36zm31.13 0v-44.888h11.855v33.398h11.318v11.49h-23.173zm79.77 0l-3.302-19.45-6.54 19.45h-9.788l-6.485-19.465-3.39 19.465h-11.72l7.776-44.888h10.76l7.99 24.048 8.064-24.048h10.76l7.533 44.888h-11.657zm64.43 0v-33.137h-7.235v-11.75h26.632v11.75h-7.428v33.137h-11.97zm79.806-28.934c2.838 0 3.723-.47 3.92-.61.13-.088.527-.364.527-1.552 0-.468-.104-.833-.323-1.15-.224-.318-.505-.527-.885-.673-.194-.072-1.017-.302-3.548-.302h-.084v4.288h.39zm6.213 28.934l-6.605-12.45v12.45h-11.86v-44.888h10.277c4.823 0 8.235.453 10.417 1.375 2.302.963 4.167 2.577 5.558 4.807 1.364 2.187 2.052 4.786 2.052 7.708 0 3.105-.776 5.766-2.308 7.912-1.135 1.594-2.687 2.896-4.63 3.896l10.224 19.19h-13.125zm-279.26 1.026c-3.296 0-6.233-.834-8.718-2.474-2.453-1.615-4.547-4.136-6.234-7.5l-.817-1.626v10.574h-26.36v-44.888h26.36v11.693H74.28v3.287h14.563v11.547H74.28v6.648h14.563v1.062l9.938-6.005 1.027 1.875c1.568 2.88 3.245 4.344 4.985 4.344.843 0 1.49-.214 2.026-.677.573-.49.646-.86.646-1.136 0-.473-.204-.983-.63-1.55-.39-.543-1.45-1.652-4.173-3.88-4.655-3.793-7.603-6.684-9.03-8.85-1.51-2.298-2.277-4.663-2.277-7.017 0-3.4 1.303-6.35 3.88-8.77 2.537-2.38 5.694-3.595 9.38-3.595 2.356 0 4.627.557 6.752 1.65 2.094 1.07 4.255 2.918 6.6 5.637l1.317 1.53-8.96 7.908-1.317-1.834c-1.104-1.532-2.786-3.365-4.516-3.365-.777 0-1.08.26-1.183.338-.177.146-.234.25-.24.276 0 .15.032.374.277.708.29.38 1.395 1.54 5.39 4.917 4.048 3.385 5.094 4.37 5.537 4.817 1.725 1.745 2.986 3.48 3.74 5.147.777 1.712 1.173 3.592 1.173 5.598 0 3.917-1.386 7.208-4.115 9.782-2.698 2.54-6.21 3.828-10.454 3.828m164.19-35.247c-3.223 0-5.864 1.09-8.057 3.324-2.198 2.25-3.27 5.058-3.27 8.584 0 3.896 1.338 6.875 4.098 9.115 2.167 1.76 4.573 2.62 7.376 2.62 3.136 0 5.73-1.104 7.944-3.375 2.23-2.28 3.307-5.037 3.307-8.417 0-3.36-1.093-6.12-3.338-8.432-2.224-2.302-4.864-3.417-8.057-3.417m.146 35.248c-6.672 0-12.307-2.344-16.74-6.985-4.412-4.604-6.646-10.157-6.646-16.495 0-4.25 1.042-8.214 3.104-11.782 2.063-3.573 4.933-6.438 8.532-8.527 3.6-2.084 7.537-3.152 11.693-3.152 6.308 0 11.808 2.318 16.34 6.875 4.526 4.553 6.823 10.178 6.823 16.725 0 6.48-2.266 12.053-6.74 16.553-4.48 4.5-9.985 6.788-16.365 6.788m69.457-35.247c-3.23 0-5.865 1.09-8.063 3.324-2.203 2.25-3.27 5.058-3.27 8.584 0 3.896 1.338 6.875 4.098 9.115 2.167 1.76 4.573 2.62 7.376 2.62 3.135 0 5.734-1.104 7.943-3.375 2.23-2.28 3.308-5.037 3.308-8.417 0-3.36-1.094-6.12-3.34-8.432-2.223-2.302-4.858-3.417-8.05-3.417m.14 35.248c-6.678 0-12.308-2.344-16.74-6.985-4.412-4.604-6.647-10.157-6.647-16.495 0-4.25 1.048-8.214 3.105-11.782 2.058-3.573 4.933-6.438 8.532-8.527 3.604-2.084 7.537-3.152 11.693-3.152 6.308 0 11.808 2.318 16.34 6.875 4.53 4.553 6.823 10.178 6.823 16.725 0 6.48-2.26 12.053-6.74 16.553-4.474 4.5-9.98 6.788-16.365 6.788m76.785 0c-3.303 0-6.235-.834-8.72-2.474-2.448-1.615-4.547-4.136-6.234-7.5l-.855-1.688 9.98-6.02 1.015 1.874c1.573 2.88 3.25 4.344 4.99 4.344.85 0 1.495-.214 2.026-.677.573-.49.646-.86.646-1.136 0-.473-.203-.983-.62-1.55-.406-.543-1.453-1.652-4.183-3.88-4.652-3.788-7.605-6.684-9.032-8.85-1.51-2.298-2.276-4.662-2.276-7.017 0-3.4 1.302-6.35 3.88-8.77 2.53-2.38 5.693-3.595 9.38-3.595 2.355 0 4.63.557 6.75 1.65 2.1 1.07 4.262 2.918 6.6 5.637l1.318 1.53-8.96 7.908-1.317-1.834c-1.104-1.532-2.786-3.365-4.515-3.365-.776 0-1.08.26-1.178.338-.177.146-.24.25-.24.276 0 .15.022.374.277.708.286.38 1.396 1.54 5.386 4.917 4.047 3.385 5.094 4.37 5.53 4.817 1.725 1.745 2.99 3.48 3.75 5.147.772 1.712 1.168 3.592 1.168 5.598 0 3.917-1.384 7.208-4.12 9.782-2.692 2.54-6.208 3.828-10.447 3.828m-317.776 57.53V291.19h-7.235v-11.75h26.637v11.75h-7.434v33.137h-11.97zm37.627-28.94c2.838 0 3.73-.464 3.927-.604.13-.09.522-.365.522-1.553 0-.467-.1-.837-.318-1.15-.224-.317-.505-.53-.89-.677-.188-.068-1.016-.302-3.542-.302h-.09v4.288h.392zm41.752 8.875l-2.46-6.333-2.468 6.333h4.928zm31.548 8.402c4 0 5.896-.542 6.792-1 1.23-.62 2.224-1.688 3.047-3.24.86-1.62 1.287-3.693 1.287-6.152 0-3.797-.985-6.62-3.02-8.625-1.778-1.745-4.825-2.625-9.075-2.625h-.588v21.642h1.557zm-23.902 11.662l-3.193-8.407h-13.84l-3.323 8.407h-22.824l-6.61-12.45v12.45h-11.855V279.44h10.277c4.823 0 8.23.447 10.417 1.364 2.297.97 4.167 2.594 5.558 4.812 1.364 2.193 2.052 4.787 2.052 7.714 0 3.1-.776 5.76-2.308 7.907-1.135 1.594-2.687 2.9-4.63 3.9l8.636 16.205 16.157-41.903h10.683l15.35 39.907V279.44h11.24c6.312 0 10.943.796 14.146 2.43 3.234 1.647 5.917 4.335 7.974 7.986 2.026 3.605 3.063 7.84 3.063 12.595 0 3.386-.578 6.553-1.714 9.423-1.147 2.9-2.766 5.354-4.82 7.292-2.056 1.943-4.332 3.313-6.77 4.068-2.36.73-6.198 1.094-11.745 1.094h-21.923zm52.648-44.888h11.803v44.887H237.23V279.44zm44.56 44.887l-14.277-21.923v21.923h-11.86V279.44h10.605l14.297 21.995V279.44h11.855v44.887h-10.62zm37.522 1.026c-4.568 0-8.714-1.016-12.323-3.02-3.637-2.017-6.554-4.923-8.663-8.637-2.1-3.703-3.162-7.745-3.162-12.02 0-5.892 1.974-11.09 5.87-15.445 4.61-5.187 10.688-7.812 18.053-7.812 3.808 0 7.428.72 10.75 2.13 2.87 1.22 5.678 3.308 8.36 6.204l1.344 1.453-8.36 8.266-1.437-1.52c-3.09-3.26-6.557-4.85-10.615-4.85-3.49 0-6.323 1.116-8.662 3.413-2.323 2.28-3.448 4.98-3.448 8.245 0 3.396 1.177 6.188 3.6 8.542 2.437 2.375 5.374 3.526 8.984 3.526 2.287 0 4.214-.463 5.724-1.385.64-.395 1.235-.906 1.787-1.51H316.99v-11.386h24.547l.11 3.698c.005 3.985-1.02 7.745-3.037 11.24-2.026 3.5-4.703 6.22-7.943 8.074-3.24 1.854-7.058 2.797-11.355 2.797m30.856-171.576c-4.78-3.256-9.96-6.318-15.417-9.2 10.24-13.593 16-29.005 16-45.355 0-16.136-5.613-31.35-15.598-44.815 5.505-2.927 10.72-6.03 15.52-9.34 20.07 15.21 31.935 33.914 31.935 54.155 0 20.418-12.063 39.273-32.44 54.555m-27.615 16.21c-3.135-1.38-6.38-2.69-9.683-3.944 6.552-4.88 12.37-10.22 17.375-15.923 4.844 2.537 9.443 5.21 13.714 8.042-6.47 4.287-13.642 8.24-21.408 11.824m-41.867 14.162c-.072-.02-.15-.037-.23-.052 9.19-3.76 17.69-8.188 25.367-13.173 2.64.938 5.282 1.88 7.813 2.896-10.178 4.088-21.21 7.567-32.95 10.328M116.34 173.804c3.05-1.22 6.202-2.37 9.395-3.48 7.688 5.08 16.21 9.58 25.44 13.412-.62.14-1.26.26-1.88.402-11.747-2.756-22.778-6.24-32.956-10.334m-30.294-15.636c4.766-3.162 9.943-6.126 15.417-8.907 4.96 5.788 10.787 11.194 17.334 16.153-3.89 1.442-7.677 2.97-11.333 4.578-7.766-3.577-14.94-7.536-21.418-11.822M47.398 99.222c0-20.235 11.865-38.945 31.924-54.154 5.323 3.662 11.136 7.084 17.318 10.282-9.558 13.23-14.907 28.116-14.907 43.872 0 15.975 5.51 31.06 15.313 44.424-6.13 3.15-11.912 6.526-17.204 10.136-20.38-15.287-32.444-34.142-32.444-54.56m55.362-68.53c3.954 1.865 8.058 3.62 12.292 5.282-5.23 4.297-9.927 8.896-14.037 13.76-5.526-2.832-10.755-5.848-15.547-9.072 5.307-3.552 11.09-6.886 17.292-9.97m44.93-15.985c.75.178 1.52.33 2.276.5-10.47 4.45-20.017 9.767-28.434 15.803-3.568-1.323-7.047-2.713-10.412-4.177 11.136-4.854 23.402-8.943 36.57-12.126m171.16 12.11c-2.85 1.24-5.804 2.417-8.8 3.558-8.43-5.943-17.98-11.173-28.427-15.543.208-.046.432-.088.646-.14 13.166 3.182 25.438 7.27 36.58 12.125m-15.273 33.68c-2.604-6.183-5.797-12.038-9.537-17.496 5.303-1.52 10.46-3.166 15.44-4.968 5.728 4.26 10.853 8.88 15.312 13.792-6.64 3.182-13.72 6.09-21.215 8.672m2.235 71.66c3.6-10.313 5.6-21.387 5.6-32.934 0-11.297-1.907-22.137-5.36-32.257 8.26-2.85 16.073-6.063 23.365-9.62 9.683 12.568 15.13 26.798 15.13 41.877 0 15.303-5.598 29.725-15.557 42.424-7.245-3.505-14.99-6.683-23.178-9.49m-14.38 26.907c4.723-6.276 8.718-13.136 11.864-20.454 7.417 2.54 14.433 5.406 21.017 8.536-5.397 5.86-11.75 11.282-18.94 16.183-4.52-1.537-9.17-2.954-13.942-4.267m-4.838 5.964c3.76.985 7.448 2.047 11.058 3.177-8.933 5.22-18.886 9.71-29.69 13.308 6.892-4.682 13.132-10.24 18.632-16.485m-37.445 13.793c4.12-5.49 7.793-11.975 10.918-19.262 6.448.995 12.77 2.15 18.886 3.547-6.176 6.63-13.354 12.298-21.333 16.793-2.797-.396-5.615-.76-8.47-1.078m-103.713-14.33c5.49 6.324 11.745 11.954 18.652 16.705-.11.015-.208.04-.312.057-10.87-3.672-20.882-8.245-29.825-13.563 3.744-1.147 7.572-2.215 11.484-3.2m-16.548-26.58c3.105 7.372 7.058 14.283 11.76 20.612-4.91 1.302-9.697 2.724-14.343 4.266-7.183-4.98-13.51-10.496-18.855-16.434 6.714-3.11 13.88-5.937 21.438-8.443m-2.718-70.205c-3.297 9.9-5.1 20.496-5.1 31.517 0 11.277 1.907 22.1 5.344 32.2-8.323 2.765-16.21 5.9-23.58 9.375-9.536-12.49-14.906-26.61-14.906-41.575 0-14.735 5.204-28.663 14.475-41.018 7.428 3.527 15.377 6.704 23.768 9.5m11.88-24.11c-3.713 5.506-6.88 11.397-9.453 17.616-7.636-2.542-14.866-5.412-21.642-8.574 4.412-4.984 9.537-9.672 15.26-14 5.11 1.802 10.392 3.453 15.835 4.958m25.168-25.714c-7.85 5.53-14.87 12.167-20.824 19.714-4.495-1.198-8.89-2.495-13.162-3.896 9.704-6.334 20.83-11.735 33.07-15.996.312.058.61.12.916.178m105.516-.39c.177-.032.354-.07.536-.105 12.235 4.187 23.392 9.505 33.127 15.756-4.13 1.397-8.376 2.694-12.73 3.89-5.995-7.494-13.053-14.067-20.933-19.54m-6.964 25.547c-3.334-8.672-7.433-16.33-12.105-22.704 3.037-.35 6.032-.745 9.006-1.177 8.973 5.22 16.927 11.896 23.53 19.792-6.603 1.6-13.42 2.964-20.432 4.09m7.214 26.5c-1.23-6.984-2.865-13.63-4.88-19.855 7.807-1.286 15.38-2.87 22.688-4.73 3.865 5.51 7.136 11.49 9.74 17.835-8.73 2.688-17.944 4.948-27.548 6.75m-.14 60.102c9.546 1.792 18.703 4.026 27.386 6.693-3.157 7.527-7.287 14.51-12.22 20.824-6.885-1.672-14-3.094-21.313-4.26 2.583-7.173 4.656-14.975 6.146-23.257M215 149.162c-13.568 0-26.75.89-39.43 2.542-2.53-7.178-4.536-15.074-5.937-23.512 14.428-2.234 29.637-3.453 45.367-3.453 16.61 0 32.642 1.348 47.784 3.832-1.422 8.423-3.438 16.293-5.985 23.444-13.398-1.85-27.393-2.854-41.8-2.854m0 27.762c-8.5 0-16.85.35-25.022 1.015-4.542-5.256-8.506-11.876-11.803-19.543 11.865-1.47 24.163-2.292 36.825-2.292 13.5 0 26.616.9 39.184 2.563-3.307 7.65-7.292 14.255-11.85 19.48-8.91-.792-18.03-1.224-27.334-1.224m-42.742-17.74c3.115 7.333 6.782 13.87 10.902 19.396-2.948.313-5.87.656-8.77 1.047-7.965-4.558-15.106-10.277-21.258-16.964 6.204-1.36 12.58-2.527 19.126-3.48m-8.698-29.965c1.47 8.298 3.52 16.12 6.094 23.31-7.39 1.113-14.59 2.504-21.563 4.134-4.9-6.37-9.01-13.39-12.13-20.975 8.76-2.6 17.99-4.755 27.6-6.47m4.693-79.138c-1.995 6.24-3.62 12.895-4.828 19.89-9.668-1.723-18.95-3.906-27.752-6.526 2.563-6.385 5.823-12.386 9.667-17.95 7.386 1.814 15.032 3.356 22.913 4.585m14.39-29.508c-4.666 6.423-8.744 14.126-12.067 22.84-7.105-1.073-14.01-2.4-20.7-3.96 6.553-7.968 14.48-14.723 23.44-20.01 3.078.427 6.187.797 9.328 1.13m5.292-6.47c-1.088-.098-2.156-.233-3.234-.342 1.85-.76 3.72-1.495 5.635-2.136-.817.78-1.604 1.63-2.4 2.48M215 46.708c-13.355 0-26.345-.88-38.8-2.51 3.44-9.122 7.8-16.92 12.908-22.997 8.448.713 17.09 1.083 25.892 1.083 9.605 0 19.01-.458 28.184-1.307 5.135 6.04 9.505 13.807 12.97 22.906C242.99 45.72 229.208 46.71 215 46.71m0 27.76c-15.83 0-31.137-1.223-45.648-3.49 1.11-7.12 2.636-13.854 4.563-20.088 13.177 1.79 26.928 2.76 41.085 2.76 15.01 0 29.56-1.094 43.46-3.1 1.938 6.22 3.49 12.94 4.61 20.038-15.22 2.516-31.35 3.88-48.07 3.88m50.206 24.158c0 7.954-.495 15.683-1.422 23.07-15.48-2.538-31.85-3.897-48.784-3.897-16.053 0-31.585 1.25-46.346 3.538-.9-7.277-1.38-14.88-1.38-22.71 0-7.162.396-14.115 1.15-20.787 14.835 2.308 30.44 3.574 46.576 3.574 17.022 0 33.465-1.375 49.023-3.938.78 6.782 1.183 13.865 1.183 21.152m-23.064-87.004c1.74.578 3.427 1.26 5.12 1.938-.984.104-1.953.213-2.943.312-.725-.766-1.433-1.542-2.178-2.25m-25.897-4.266c2.37.13 4.745.255 7.078.464 4.75 1.15 9.2 3.437 13.282 6.698-7.073.51-14.266.828-21.605.828-6.542 0-12.96-.276-19.293-.682 4.136-3.334 8.63-5.678 13.45-6.844 2.332-.21 4.713-.334 7.088-.464m-87.4 91.864c0-10.224 1.557-20.063 4.48-29.25 9.24 2.754 18.948 5.056 29.068 6.853-.932 7.204-1.442 14.688-1.442 22.397 0 7.974.553 15.714 1.547 23.142-10.068 1.786-19.735 4.068-28.923 6.802-3.068-9.39-4.73-19.46-4.73-29.944m61.5 87.598c-1.387-.458-2.726-1.016-4.08-1.542.787-.073 1.563-.166 2.355-.234.57.588 1.134 1.22 1.723 1.776m25.902 4.26c-2.318-.12-4.64-.24-6.917-.442-4.443-1.083-8.62-3.193-12.49-6.172 5.974-.354 12.01-.604 18.162-.604 6.938 0 13.745.286 20.46.75-3.824 2.896-7.933 4.963-12.31 6.026-2.275.203-4.593.323-6.905.443m27.387-5.802c.682.068 1.354.14 2.036.214-1.172.443-2.328.932-3.526 1.328.505-.484.995-1.026 1.49-1.542m60.008-86.056c0 10.735-1.756 21.017-4.96 30.595-9.124-2.807-18.745-5.146-28.75-7.016 1.03-7.562 1.604-15.442 1.604-23.578 0-7.865-.542-15.5-1.505-22.834 10.062-1.886 19.73-4.245 28.89-7.08 3.053 9.382 4.72 19.44 4.72 29.914m40.882-58.57c-4.292 2.885-8.933 5.604-13.818 8.182-4.14-4.787-8.855-9.318-14.09-13.542 3.636-1.464 7.183-2.995 10.605-4.605 6.208 3.084 11.99 6.407 17.302 9.964m46.05 58.572c0-54.45-77.604-98.635-173.718-99.198V.02c-.15-.01-.312-.02-.47-.02-.05 0-.092.004-.14.004-.05 0-.093-.005-.145-.005-.09 0-.173.004-.26.01-.283-.006-.56-.01-.84-.01C118.032 0 39.43 44.422 39.43 99.22c0 54.805 78.602 99.23 175.57 99.23.28 0 .557-.01.84-.017.087.005.17.016.26.016.05 0 .093-.01.145-.01.047 0 .088.01.14.01.157 0 .318-.015.47-.025v-.005c96.113-.568 173.716-44.747 173.716-99.198" fill="#1c75bc"/></svg>