<svg xmlns="http://www.w3.org/2000/svg" xmlns:xlink="http://www.w3.org/1999/xlink" width="430" height="316.647"><defs><radialGradient id="a" spreadMethod="pad" gradientTransform="matrix(18.7 0 0 -18.7 347.4 708.5)" gradientUnits="userSpaceOnUse" r="1" cy="0" cx="0" fy="0" fx="0"><stop offset="0" stop-color="#9a090d"/><stop offset="1" stop-color="#f47d5f"/></radialGradient><radialGradient id="b" spreadMethod="pad" gradientTransform="matrix(10.6 0 0 -10.6 347.4 708.6)" gradientUnits="userSpaceOnUse" r="1" cy="0" cx="0" fy="0" fx="0"><stop offset="0" stop-color="#9a090d"/><stop offset="1" stop-color="#ee2529"/></radialGradient><linearGradient id="c" gradientTransform="matrix(13.7 0 0 -13.7 340.9 714.2)" gradientUnits="userSpaceOnUse" x2="1"><stop offset="0" stop-color="#fdddcf"/><stop offset="1" stop-color="#d92128"/></linearGradient><radialGradient xlink:href="#a" id="d" gradientUnits="userSpaceOnUse" gradientTransform="matrix(104.8 0 0 104.8 345.2 472.3)" spreadMethod="pad" cx="0" cy="0" fx="0" fy="0" r="1"/><radialGradient xlink:href="#b" id="e" gradientUnits="userSpaceOnUse" gradientTransform="matrix(59.7 0 0 59.7 345.1 471.8)" spreadMethod="pad" cx="0" cy="0" fx="0" fy="0" r="1"/><linearGradient xlink:href="#c" id="f" gradientUnits="userSpaceOnUse" gradientTransform="matrix(77 0 0 77 308.2 440.5)" x2="1"/></defs><path d="M349.407 374.04v31.63h34.225l36.01 62.38h36.523l-54.278-94.01h-52.48zm-60.976 0l-54.276 94.01h36.516l36.01-62.38h34.23v-31.63h-52.48zm131.22 102.5l-36.018 62.397h-34.225v31.62h52.48l54.278-94.017H419.65zm-185.496 0l54.277 94.017h52.48v-31.62h-34.23l-36.01-62.397h-36.516z" fill="url(#d)" transform="translate(-135 -374)"/><path d="M285.432 471.8c0 32.985 26.73 59.72 59.713 59.72 32.984 0 59.72-26.735 59.72-59.72 0-32.983-26.736-59.712-59.72-59.712-32.984 0-59.713 26.73-59.713 59.713" fill="url(#e)" transform="translate(-135 -374)"/><path d="M308.247 440.485c0 12.752 17.233 23.09 38.493 23.09 21.242 0 38.48-10.338 38.48-23.09 0-12.753-17.238-23.096-38.48-23.096-21.26 0-38.493 10.342-38.493 23.095" fill="url(#f)" transform="translate(-135 -374)"/><path d="M196.985 123.505c-2.437 0-5.452-.398-9.057-1.19v-49.02c3.262-.82 6.16-1.23 8.715-1.23 3.863 0 7.294.824 10.36 2.307-2.746 2.308-5.194 4.947-6.997 8.316-2.583 4.824-3.874 10.107-3.874 15.863 0 7.138 1.96 13.35 5.868 18.62 1.27 1.714 2.684 3.202 4.194 4.494-2.78 1.213-5.84 1.84-9.21 1.84m16.364-6.928c-.41.444-.882.758-1.314 1.163-1.488-1.59-2.757-3.393-3.695-5.55-1.674-3.818-2.505-8.344-2.505-13.555 0-6.322.88-11.606 2.656-15.857.866-2.078 1.893-3.858 3.06-5.38.602.517 1.242.96 1.798 1.55 4.34 4.588 6.514 10.87 6.514 18.834 0 7.906-2.173 14.173-6.514 18.794m33.372-4.47c-3.414 4.768-6.57 7.946-9.423 9.546-2.87 1.606-6.17 2.404-9.916 2.404-3.756 0-7.08-.916-10.13-2.477 1.848-1.174 3.527-2.527 4.987-4.11 4.88-5.386 7.322-12.09 7.322-20.115 0-5.98-1.376-11.247-4.105-15.818-2.252-3.746-5.11-6.564-8.558-8.547 2.813-1.527 5.862-2.42 9.265-2.42 4.548 0 8.468 1.292 11.72 3.87 3.262 2.577 5.766 6.805 7.535 12.673h1.303l-1.303-19.603h-1.5c-.303 1.364-.83 2.426-1.566 3.19-.572.538-1.23.808-1.998.808-.51 0-1.36-.31-2.55-.938-4.054-2.038-8.158-3.06-12.336-3.06-4.857 0-9.366 1.15-13.54 3.34-4.294-1.324-9.904-2.02-16.98-2.02h-23.465v1.577h2.162c2.185 0 3.83.624 4.925 1.865.797.91 1.196 3.16 1.196 6.766v37.24c0 3.257-.32 5.352-.932 6.29-1.02 1.566-2.75 2.34-5.188 2.34h-2.16v1.574h25.756c5.054 0 9.445-.708 13.336-1.927 3.92 2.1 8.43 3.24 13.623 3.24 5.295 0 9.877-1.184 13.735-3.565 3.846-2.387 7.227-6.138 10.113-11.264l-1.325-.86z" fill="#fff"/><path d="M379.186 215.033l-6.502 13.752h12.988l-6.486-13.752zm.483-8.064l17.715 37.97h-4.1l-5.968-12.494h-16.363l-5.924 12.494h-4.228l17.946-37.97h.92zm-43.087 3.71v12.916l6.553.05c2.533 0 4.408-.235 5.62-.724 1.225-.477 2.157-1.258 2.854-2.308.68-1.06 1.016-2.246 1.016-3.554 0-1.27-.348-2.426-1.04-3.47-.684-1.04-1.594-1.792-2.7-2.235-1.128-.444-2.993-.674-5.598-.674h-6.705zm-3.784-3.71h7.562c4.217 0 7.07.162 8.564.51 2.268.522 4.093 1.623 5.508 3.324 1.415 1.69 2.112 3.785 2.112 6.273 0 2.06-.483 3.886-1.46 5.452-.978 1.566-2.353 2.75-4.173 3.56-1.79.797-4.29 1.2-7.474 1.223l13.65 17.627h-4.683l-13.673-17.627h-2.15v17.627h-3.785v-37.97zm-27.382 2.734c-2.813 0-5.48.73-8 2.2-2.51 1.46-4.477 3.432-5.897 5.908-1.403 2.482-2.11 5.256-2.11 8.3 0 4.51 1.56 8.322 4.688 11.432 3.122 3.11 6.9 4.66 11.32 4.66 2.943 0 5.683-.706 8.187-2.138 2.5-1.438 4.46-3.38 5.868-5.868 1.41-2.477 2.112-5.234 2.112-8.272 0-3.01-.702-5.738-2.112-8.175-1.41-2.436-3.38-4.385-5.935-5.845-2.56-1.47-5.26-2.2-8.12-2.2m-.18-3.696c5.768 0 10.574 1.925 14.454 5.755 3.88 3.846 5.807 8.557 5.807 14.173 0 5.57-1.927 10.27-5.796 14.156-3.87 3.87-8.575 5.812-14.15 5.812-5.633 0-10.395-1.938-14.264-5.79-3.87-3.852-5.8-8.513-5.8-14 0-3.643.88-7.023 2.633-10.134 1.764-3.117 4.172-5.56 7.227-7.323 3.05-1.764 6.345-2.65 9.89-2.65m-53.257 35.353h4.392c5.244 0 8.883-.33 10.91-.988 2.864-.927 5.116-2.6 6.744-5.015 1.64-2.414 2.453-5.374 2.453-8.86 0-3.662-.887-6.8-2.662-9.39-1.762-2.6-4.233-4.374-7.405-5.345-2.376-.72-6.284-1.084-11.747-1.084h-2.685v30.683zm-3.638 3.577v-37.97h7.872c5.677 0 9.8.454 12.376 1.364 3.673 1.29 6.56 3.526 8.63 6.716 2.068 3.183 3.112 6.98 3.112 11.382 0 3.807-.825 7.154-2.465 10.046-1.65 2.89-3.78 5.025-6.402 6.407-2.622 1.375-6.306 2.055-11.045 2.055h-12.078zm-11.972-37.97h3.785v37.975h-3.785V206.97zm-33.428 0h3.796v22.92c0 2.72.052 4.414.153 5.088.202 1.5.64 2.746 1.32 3.762.69 1 1.763 1.842 3.178 2.522 1.432.685 2.87 1.027 4.302 1.027 1.27 0 2.482-.27 3.64-.804 1.144-.533 2.11-1.274 2.88-2.223.774-.95 1.336-2.09 1.7-3.437.265-.954.394-2.937.394-5.935v-22.92h3.784v22.92c0 3.392-.325 6.127-1 8.227-.65 2.095-1.976 3.914-3.958 5.458-1.982 1.55-4.397 2.33-7.22 2.33-3.06 0-5.69-.74-7.88-2.2-2.184-1.46-3.644-3.403-4.38-5.807-.465-1.482-.707-4.144-.707-8.007v-22.92zm-26.14 19.698v14.56h4.707c2.78 0 4.818-.275 6.103-.814 1.292-.54 2.336-1.387 3.128-2.544.775-1.157 1.168-2.403 1.168-3.74 0-1.69-.55-3.167-1.65-4.425-1.112-1.246-2.628-2.11-4.548-2.577-1.297-.303-3.555-.46-6.755-.46h-2.15zm0-15.987v12.164h2.18c2.64 0 4.576-.247 5.817-.736 1.247-.49 2.23-1.263 2.954-2.32.72-1.066 1.078-2.234 1.078-3.525 0-1.736-.595-3.106-1.82-4.1-1.218-.982-3.155-1.482-5.817-1.482h-4.39zm-3.71-3.71h7.485c3.015 0 5.317.36 6.94 1.066 1.623.713 2.898 1.808 3.84 3.29.944 1.483 1.41 3.128 1.41 4.937 0 1.69-.415 3.223-1.24 4.61-.82 1.387-2.022 2.504-3.623 3.363 1.977.668 3.488 1.46 4.566 2.364 1.05.91 1.886 1.994 2.47 3.28.59 1.274.893 2.672.893 4.166 0 3.055-1.112 5.632-3.34 7.738-2.236 2.106-5.217 3.156-8.974 3.156h-10.428v-37.97zm-12.08 0h3.797v37.975h-3.796V206.97zm-27.025 3.71v12.916l6.547.05c2.538 0 4.414-.235 5.627-.724 1.212-.477 2.16-1.258 2.852-2.308.668-1.06 1.016-2.246 1.016-3.554 0-1.27-.348-2.426-1.038-3.47-.69-1.04-1.6-1.792-2.713-2.235-1.116-.444-2.986-.674-5.586-.674h-6.704zm-3.796-3.71h7.575c4.205 0 7.068.162 8.562.51 2.263.522 4.093 1.623 5.514 3.324 1.41 1.69 2.106 3.785 2.106 6.273 0 2.06-.483 3.886-1.46 5.452-.977 1.566-2.358 2.75-4.167 3.56-1.797.797-4.3 1.2-7.49 1.223l13.656 17.627h-4.688l-13.667-17.627h-2.145v17.627h-3.796v-37.97zm-25.954 3.71v-3.71h20.804v3.71h-8.462v34.26h-3.874v-34.26h-8.468zm-25.965 27.19l3.234-1.937c2.273 4.183 4.896 6.272 7.866 6.272 1.275 0 2.47-.298 3.6-.88 1.106-.597 1.96-1.394 2.543-2.394.595-.998.88-2.06.88-3.177 0-1.275-.426-2.52-1.296-3.745-1.18-1.68-3.34-3.718-6.497-6.098-3.156-2.387-5.138-4.122-5.907-5.19-1.348-1.785-2.022-3.716-2.022-5.805 0-1.645.4-3.156 1.19-4.52.792-1.36 1.915-2.426 3.342-3.218 1.443-.77 2.998-1.168 4.688-1.168 1.797 0 3.46.443 5.02 1.33 1.567.887 3.212 2.52 4.942 4.89l-3.094 2.36c-1.432-1.9-2.656-3.14-3.656-3.752-1.005-.606-2.105-.904-3.29-.904-1.528 0-2.785.46-3.762 1.393-.966.932-1.455 2.077-1.455 3.436 0 .826.174 1.623.522 2.404.332.77.977 1.617 1.882 2.526.505.483 2.133 1.747 4.913 3.796 3.274 2.42 5.537 4.587 6.755 6.485 1.224 1.892 1.83 3.79 1.83 5.705 0 2.752-1.033 5.138-3.133 7.17-2.09 2.034-4.632 3.056-7.63 3.056-2.31 0-4.403-.624-6.273-1.853-1.865-1.23-3.6-3.29-5.195-6.183m-8.047-30.9h3.802v37.975h-3.802V206.97zm-34.635 34.393h4.39c5.257 0 8.896-.33 10.93-.988 2.857-.927 5.097-2.6 6.742-5.015 1.63-2.414 2.45-5.374 2.45-8.86 0-3.662-.888-6.8-2.663-9.39-1.77-2.6-4.245-4.374-7.418-5.345-2.358-.72-6.283-1.084-11.736-1.084h-2.695v30.683zm-3.64 3.577v-37.97h7.88c5.682 0 9.804.454 12.364 1.364 3.684 1.29 6.565 3.526 8.642 6.716 2.066 3.183 3.12 6.98 3.12 11.382 0 3.807-.84 7.154-2.486 10.046-1.645 2.89-3.768 5.025-6.402 6.407-2.622 1.375-6.29 2.055-11.034 2.055H31.954z" fill="#231f20"/><path d="M397.438 258.444H430v5.565h-26.88v17.8h26.657v5.564H403.12v22.32h26.657v5.565h-32.34v-56.816zm-40.127 29.463v21.788h7.032c4.155 0 7.204-.4 9.136-1.22 1.943-.802 3.487-2.07 4.672-3.8 1.156-1.724 1.746-3.594 1.746-5.6 0-2.526-.825-4.72-2.47-6.602-1.652-1.882-3.91-3.173-6.806-3.87-1.932-.46-5.296-.696-10.108-.696h-3.2zm0-23.898V282.2h3.247c3.948 0 6.845-.37 8.715-1.106 1.853-.73 3.33-1.892 4.408-3.476 1.084-1.583 1.623-3.347 1.623-5.278 0-2.6-.91-4.638-2.73-6.115-1.82-1.477-4.71-2.218-8.692-2.218h-6.57zm-5.563-5.566h11.197c4.51 0 7.98.533 10.4 1.6 2.42 1.073 4.323 2.712 5.727 4.93 1.4 2.213 2.112 4.672 2.112 7.368 0 2.527-.612 4.835-1.847 6.9-1.23 2.067-3.05 3.752-5.43 5.043 2.953 1 5.233 2.185 6.822 3.532 1.595 1.348 2.83 2.993 3.723 4.908.882 1.91 1.32 3.998 1.32 6.24 0 4.547-1.674 8.416-5.004 11.566-3.335 3.15-7.805 4.73-13.42 4.73h-15.6v-56.816zm-19.244 0h5.683v56.815h-5.683v-56.816zm-41.615 5.565v19.304l9.793.08c3.786 0 6.61-.36 8.413-1.085 1.82-.714 3.234-1.87 4.256-3.45 1.027-1.588 1.538-3.357 1.538-5.317 0-1.903-.528-3.638-1.56-5.194-1.03-1.545-2.382-2.674-4.055-3.342-1.68-.668-4.46-1-8.356-1h-10.03zm-5.677-5.566h11.333c6.3 0 10.568.253 12.82.77 3.37.785 6.11 2.43 8.22 4.97 2.112 2.542 3.162 5.665 3.162 9.376 0 3.1-.725 5.818-2.185 8.165-1.448 2.34-3.526 4.12-6.233 5.323-2.7 1.185-6.43 1.808-11.196 1.83l20.435 26.38h-7.025l-20.44-26.38h-3.212v26.38h-5.677v-56.814zm-36.723 12.067l-9.73 20.57h19.428l-9.698-20.57zm.73-12.066l26.488 56.815h-6.138l-8.923-18.7h-24.477l-8.86 18.7h-6.34l26.852-56.816h1.397zm-35.005 10.54l-4.48 3.436c-2.478-3.217-5.448-5.654-8.918-7.305-3.46-1.668-7.26-2.5-11.41-2.5-4.52 0-8.72 1.09-12.584 3.27-3.858 2.172-6.857 5.098-8.98 8.76-2.127 3.67-3.19 7.793-3.19 12.38 0 6.93 2.388 12.708 7.12 17.352 4.752 4.62 10.75 6.946 17.987 6.946 7.95 0 14.617-3.116 19.974-9.35l4.482 3.403c-2.836 3.6-6.368 6.39-10.608 8.35-4.24 1.977-8.967 2.96-14.2 2.96-9.928 0-17.773-3.302-23.512-9.928-4.812-5.587-7.22-12.33-7.22-20.232 0-8.322 2.908-15.313 8.742-21 5.834-5.673 13.134-8.503 21.922-8.503 5.3 0 10.096 1.04 14.364 3.14 4.273 2.105 7.788 5.036 10.512 8.82m-112.15-10.54h5.678v51.33h21.855v5.486h-27.532v-56.816zm-42.765 0h32.558v5.566h-26.88v17.8H91.63v5.564H64.974v22.32H91.63v5.565H59.297v-56.816zm-53.85 51.442h6.56c7.866 0 13.307-.488 16.345-1.465 4.273-1.38 7.642-3.88 10.068-7.502 2.465-3.616 3.683-8.036 3.683-13.263 0-5.475-1.325-10.153-3.986-14.044-2.645-3.88-6.34-6.54-11.08-7.98-3.554-1.077-9.416-1.62-17.57-1.62h-4.02v45.875zM0 315.26v-56.816h11.787c8.495 0 14.65.68 18.49 2.044 5.515 1.937 9.81 5.273 12.916 10.04 3.116 4.767 4.655 10.44 4.655 17.037 0 5.694-1.224 10.702-3.69 15.02-2.453 4.33-5.648 7.525-9.58 9.58-3.924 2.067-9.42 3.094-16.502 3.094H0z" fill="#808285"/></svg>