<svg xmlns="http://www.w3.org/2000/svg" width="400" height="136.897"><path d="M32.782 104.924c2.25-.97 4.675-2.47 4.94-3.926.09-.62-.485-.886-1.148-.796-.53.086-1.235.53-1.94 1.235-.926.883-1.9 2.25-2.868 3.883.267-.086.792-.31 1.016-.396m-18.8 10.46c2.294 0 5.298-1.594 5.427-4.107.047-.573-.044-.93-.13-1.19-.882.35-1.988.837-3.004 1.323-1.455.706-3.486 1.85-5.467 3.133.92.616 2.203.84 3.13.84h.042zm-.043.438c-1.193 0-2.562-.353-3.53-1.016-.84.53-1.503 1.016-2.342 1.63-.44.354-1.145.888-1.545 1.24 1.545 1.632 4.416 2.16 6.753 1.985 4.635-.4 8.08-3.438 11.34-9.266.53-.882 1.284-2.117 1.9-2.957v-.043c-1.856.62-4.236 1.498-6.09 2.25.22.354.442 1.013.395 1.68-.26 2.91-4.01 4.498-6.838 4.498h-.043zm-1.236-8.298c-3.09.223-7.106 2.34-7.416 6.137-.086 1.413.18 2.605.71 3.397.482-.443 1.01-.835 1.41-1.145.97-.71 1.413-1.02 2.382-1.635-.396-.396-.75-.973-.835-1.54-.048-.225 0-.445.133-.445.086 0 .086.134.176.353.216.66.526 1.06.926 1.412 1.898-1.145 4.012-2.25 5.867-3.133.925-.443 2.03-.926 3.043-1.322-1.012-1.898-4.28-2.255-6.396-2.078m14.12-.745c1.985-2.695 4.19-4.68 5.958-5.74 1.012-.618 2.647-1.238 3.882-1.238.793 0 1.59.267 1.498 1.196-.13 1.455-2.556 3.216-5.38 4.412-.4.173-.84.306-1.235.44-.663 1.19-1.545 2.91-2.34 4.587-3.354 6.753-10.413 9.224-16.327 9.62-2.25.133-5.914-.043-7.855-1.188-1.368 1.1-2.69 2.69-3.306 3.79-.134.22-.177.444-.31.397-.134-.043-.048-.396 0-.53.44-1.144 1.497-2.603 2.91-4.1-1.322-.927-2.385-2.472-2.252-4.413.353-4.326 6.043-6.62 10.636-6.882 2.34-.177 5.956.35 7.41 2.07 1.943-.702 4.503-1.72 6.71-2.423M31.298 113.837c-.663.53-1.37 1.146-1.812 1.546-.31.262-.525.396-.615.305-.133-.13 0-.305.263-.572.444-.4 1.808-1.635 3.177-2.514 1.196-.753 2.474-1.278 3.93-1.278 1.63 0 1.94.13 1.454.702-.75.886-1.63 1.898-2.514 3-.75.93-1.325 1.72-1.674 2.384-.18.31-.224.616-.047.75.17.132.48.09 1.015-.177.968-.483 1.94-1.193 3.31-2.247 1.85-1.46 3-2.69 4.544-4.02.44-.35.658-.482 2.07-.482 1.722 0 1.94.09 1.455.705-.702.882-1.455 1.85-2.29 3.086-.663.972-1.016 1.502-1.28 1.988-.265.486-.308.792-.09.97.22.175.66.09 1.103-.135.53-.263 1.102-.66 1.765-1.19.968-.79 1.678-1.41 2.25-1.944.13-.13.397-.306.53-.173.134.173-.09.35-.53.75-.662.62-1.63 1.454-2.513 2.164-.925.75-2.694 1.937-4.37 1.937-2.12 0-2.297-1.145-2.206-1.894.043-.486.353-1.106.705-1.588.176-.267.533-.71.84-1.106l-.088-.09c-.796.71-1.855 1.545-2.56 2.074-1.236.93-3.357 2.56-5.56 2.56-1.5 0-1.986-.614-1.986-1.41 0-.573.31-1.15.75-1.808.972-1.416 2.956-3.573 3.796-4.016-.75.263-1.636.796-2.824 1.72M70.224 118.91c4.46 0 9.27-1.764 11.914-5.956 1.902-2.957 1.902-6.663.134-8.867-1.942 1.94-3.53 4.765-5.6 7.19-3.4 4.234-7.373 6.002-11.432 7.148 1.632.266 3.93.486 4.984.486m.09-12.046c0-1.145-.882-1.94-1.94-1.985-1.15-.048-2.118.53-2.824 1.148-.62.526-.706.883-.84.836-.086-.043.134-.573.707-1.145.443-.445 1.545-1.413 3.176-1.327 1.28.047 2.514.926 2.69 2.518.177 1.718-.702 3.703-2.466 5.118-1.593 1.28-4.593 2.028-7.193 1.895-2.956-.087-6.047-1.546-6.09-4.236-.043-5.294 8.07-9.486 15.796-9.486 5.25 0 8.165 1.323 10.455 2.738.663-.396 1.722-.93 3-1.372 1.59-.526 3.047-.792 4.592-.792 1.412 0 2.208.4 2.604.71.35.262.44.615.35.658-.086.043-.086-.22-.568-.486-.4-.216-1.153-.44-2.208-.44-1.412 0-2.87.397-4.15.926-1.144.486-2.164 1.102-2.69 1.502 3.483 2.69 5.028 7.06 3.354 10.28-3.047 5.606-10.765 5.43-15.177 5.43-2.34 0-5.607-.31-6.8-.443-.79.177-3.968.354-5.203.354-3.972 0-7.106.133-6.972-.706.086-.882 2.47-.97 6.22-.882 1.41 0 3.882.266 6.18.615 3.702-1.01 5.823-4.454 8.47-7.716 2.867-3.534 6.53-6.134 8.475-7.287-1.945-1.278-4.812-2.643-9.93-2.643-6.972 0-12.93 4.412-12.972 9.353-.043 2.294 1.188 3.4 3.31 3.533 2.423.13 4.717-.93 6.262-2.388 1.46-1.365 2.385-3 2.385-4.23v-.048zM98.573 105.232c.925 0 1.282.663.576 1.59-.797 1.01-2.385 1.763-3.044 1.763-.267-.443-.357-1.455-.047-2.164.438-1.01 1.324-1.188 2.47-1.188h.043zm-9.087 8.604c-.666.53-1.368 1.15-1.81 1.545-.31.264-.53.44-.66.307-.133-.13.043-.306.306-.568.443-.4 1.808-1.637 3.176-2.52 1.196-.748 2.475-1.277 4.063-1.277 1.762 0 2.028.176 1.546.705-1.106 1.193-1.72 1.895-2.565 2.957-.744.926-1.187 1.632-1.454 2.16-.266.53-.31.84-.133.974.177.128.486.042.93-.178.53-.266 1.192-.71 1.94-1.325.926-.75 1.37-1.192 2.075-1.808.31-.268.487-.4.62-.268.13.134-.09.31-.357.577-.528.524-1.85 1.716-2.6 2.29-1.454 1.1-2.826 1.944-4.677 1.944-1.5 0-1.942-.577-1.942-1.278 0-.577.31-1.197.62-1.68.88-1.5 3.087-3.928 3.75-4.28-.75.26-1.635.795-2.824 1.72" fill="#231f20"/><path d="M105.773 117.014c1.23-.792 2.38-1.855 2.866-2.294.22-.177.443-.353.572-.22.09.087.09.173-.176.44-.53.486-1.632 1.497-2.734 2.25-1.15.793-2.12 1.146-3.266 1.502-1.193.353-2.957.616-4.322.616-2.388 0-3.8-1.192-3.753-2.604.044-1.502 1.28-2.294 2.21-2.294.967 0 1.41.482 1.41 1.016 0 .396-.176.706-.666 1.102-.44.353-.702.753-.702 1.278.043.706.616.973 1.145.973.97 0 1.898-.664 2.824-2.166.97-1.54 1.59-4.055 2.08-4.765l-.048-.044c-.353.353-1.412 1.192-1.94 1.588-.707.53-1.723 1.24-2.123 1.455-.217.133-.436.266-.526.133-.09-.134.043-.263.31-.44.615-.396 1.278-.882 1.984-1.41 1.06-.797 2.03-1.59 2.647-2.12.09-.175.353-.666.706-1.058.354-.4.926-.576 1.37-.576 1.015 0 1.278.485.086 1.324-.396.263-.75.396-1.06.663-.352.35-.22.882.09 1.32.707 1.103.883 2.386.397 3.617-.306.753-.706 1.24-1.192 1.635.487-.177 1.103-.483 1.813-.926" fill="#231f20"/><path d="M108.558 115.383c-.353.305-.53.44-.663.305-.133-.13.133-.396.353-.615 1.192-1.06 2.647-2.337 3.486-3.18-.353 0-1.01.046-1.498.09-.4.043-.62.043-.576-.177.043-.263.576-.263 1.145-.306.533-.047 1.02-.047 1.33-.047 1.454-1.674 2.733-3.086 4.1-4.54 1.503-1.593 2.472-1.946 3.66-1.946.753 0 1.282.176 1.46.4-.617.482-1.676 1.674-2.695 2.867-1.012 1.192-1.765 2.113-2.643 3.266.92-.047 1.72-.047 2.466 0 .177 0 .71.043.62.26-.086.223-.53.18-.792.18-.972 0-1.63 0-2.65.043-.88 1.062-2.557 3.486-3.22 4.854-.22.444-.44.97-.133 1.19.22.18.706.09 1.24-.178.525-.26 1.234-.703 1.98-1.28.752-.572 1.41-1.187 2.164-1.85.31-.263.487-.31.574-.22.09.086.047.22-.087.35-.75.71-2.117 1.94-2.956 2.56-.925.663-2.694 1.94-4.85 1.94-1.46 0-2.032-.615-2.08-1.367-.042-1.012.578-2.16 2.21-4.37-.664.577-1.5 1.37-1.942 1.77" fill="#231f20"/><path d="M126.39 112.56c0 .57-.444 1.054-1.546 2.422-.486.62-1.06 1.37-1.498 2.075-.267.443-.31.753-.133.925.22.224.62.09.968-.086.62-.306 1.24-.706 1.99-1.282 1.015-.793 1.674-1.412 2.16-1.848.09-.09.444-.4.573-.266.133.133-.13.396-.35.615-.575.573-1.634 1.5-2.65 2.295-.97.75-2.294 1.768-4.15 1.855-2.113.13-2.642-.706-2.642-1.455 0-.973.793-1.942 1.942-2.914 1.235-1.016 2.733-2.208 2.867-2.518.175-.486-.707-.44-1.766-.353-.486.043-.84 0-1.016-.086-.44.485-1.06 1.148-1.717 1.764-.666.62-1.325 1.235-1.81 1.678-.354.306-.53.44-.664.306-.09-.086-.043-.263.22-.486.576-.526 1.278-1.145 1.945-1.765.57-.525 1.28-1.235 1.675-1.674-.396-.263-.486-.973.047-1.542.393-.442 1.19-.842 1.98-.842.71 0 1.197.177 1.413.443-.306.22-.616.484-.88.794-.575.71-.4.972.13 1.02 1.103.085 2.87.085 2.914.878v.047z" fill="#231f20"/><path d="M139.188 105.232c.925 0 1.282.663.576 1.59-.796 1.01-2.384 1.763-3.043 1.763-.266-.443-.356-1.455-.046-2.164.44-1.01 1.325-1.188 2.47-1.188h.044zm-9.087 8.604c-.665.53-1.367 1.15-1.81 1.545-.31.264-.53.44-.66.307-.132-.13.044-.306.307-.568.443-.4 1.808-1.637 3.176-2.52 1.192-.748 2.475-1.277 4.063-1.277 1.76 0 2.027.176 1.545.705-1.105 1.193-1.72 1.895-2.564 2.957-.745.926-1.188 1.632-1.455 2.16-.265.53-.308.84-.132.974.177.128.486.042.93-.178.53-.266 1.192-.71 1.94-1.325.926-.75 1.37-1.192 2.075-1.808.31-.268.486-.4.62-.268.13.134-.09.31-.357.577-.53.524-1.85 1.716-2.6 2.29-1.46 1.1-2.827 1.944-4.678 1.944-1.5 0-1.942-.577-1.942-1.278 0-.577.31-1.197.62-1.68.878-1.5 3.082-3.928 3.75-4.28-.754.26-1.636.795-2.825 1.72" fill="#231f20"/><path d="M153.32 104.263c4.32-3.62 7.807-7.37 8.03-9.138.086-.572-.133-.835-.71-.835-.658 0-1.898.706-3 1.76-1.498 1.46-3.31 3.667-5.513 6.315-2.385 2.823-4.37 5.294-6.224 7.72 1.502-1.19 5.384-4.148 7.416-5.822m-8.033 13.635c.75-.49 1.408-1.06 2.028-1.855-.53.263-2.028.62-2.734.84-1.587.482-2.297.79-2.25 1.368.044.35.353.44.84.397.66-.047 1.545-.396 2.117-.75m4.765-.795c-1.765 1.368-4.502 2.16-6.443 2.16h-.044c-1.37 0-2.16-.262-2.16-1.01 0-.844.968-1.193 2.732-1.68 1.236-.353 2.738-.662 3.534-1.01.392-.488 1.145-1.546 1.364-2.21.18-.49.357-1.325-.396-1.325-.792 0-2.247.75-3.84 1.99-1.94 1.497-3.132 2.512-4.94 4.453-.4.397-1.145.53-1.94.573-1.46.086-2.03 0-1.637-.66.534-.928 1.236-1.944 1.942-2.956.49-.71.84-1.153 1.415-1.898l-.047-.048c-.706.62-1.06.973-1.545 1.412-.486.443-.792.62-.878.49-.09-.133.086-.357.392-.62.886-.796 1.855-1.635 2.957-2.513 1.458-1.987 3.352-4.368 5.12-6.49 4.012-4.807 8.075-8.207 10.898-10.145 1.326-.93 3.31-1.902 4.68-1.81.924.042 1.454.618 1.367 1.587-.176 2.78-4.058 6.357-8.254 9.357-2.823 1.98-7.854 5.29-8.956 6.262-.66.84-2.295 3.09-3.22 4.415l.086.043c.93-.753 2.385-2.03 3.71-2.823.88-.577 2.6-1.502 4.498-1.502 1.77 0 2.428.796 2.337 1.808-.133 1.41-1.145 2.913-2.733 4.15M155.798 113.837c-.667.53-1.37 1.146-1.812 1.546-.31.262-.525.396-.615.305-.133-.13 0-.305.263-.572.443-.4 1.808-1.635 3.177-2.514 1.196-.753 2.474-1.278 3.93-1.278 1.63 0 1.936.13 1.454.702-.75.886-1.63 1.898-2.514 3-.753.93-1.325 1.72-1.674 2.384-.18.31-.224.616-.047.75.175.132.48.09 1.014-.177.97-.483 1.942-1.193 3.31-2.247 1.85-1.46 3-2.69 4.545-4.02.44-.35.658-.482 2.07-.482 1.72 0 1.94.09 1.455.705-.702.882-1.455 1.85-2.29 3.086-.667.972-1.016 1.502-1.28 1.988-.265.486-.31.792-.09.97.22.175.66.09 1.103-.135.53-.263 1.102-.66 1.765-1.19.968-.79 1.678-1.41 2.25-1.944.13-.13.397-.306.53-.173.133.173-.09.35-.53.75-.662.62-1.63 1.454-2.513 2.164-.926.75-2.694 1.937-4.37 1.937-2.12 0-2.297-1.145-2.207-1.894.044-.486.353-1.106.706-1.588.176-.267.533-.71.84-1.106l-.092-.09c-.792.71-1.85 1.545-2.557 2.074-1.234.93-3.355 2.56-5.56 2.56-1.497 0-1.984-.614-1.984-1.41 0-.573.31-1.15.75-1.808.972-1.416 2.956-3.573 3.795-4.016-.748.263-1.634.796-2.822 1.72" fill="#231f20"/><path d="M182.63 105.232c.926 0 1.283.663.577 1.59-.796 1.01-2.385 1.763-3.044 1.763-.266-.443-.356-1.455-.047-2.164.44-1.01 1.326-1.188 2.47-1.188h.044zm-9.086 8.604c-.667.53-1.37 1.15-1.812 1.545-.31.264-.53.44-.66.307-.132-.13.044-.306.307-.568.442-.4 1.807-1.637 3.176-2.52 1.196-.748 2.474-1.277 4.062-1.277 1.76 0 2.028.176 1.546.705-1.106 1.193-1.722 1.895-2.565 2.957-.746.926-1.19 1.632-1.456 2.16-.267.53-.31.84-.133.974.177.128.487.042.93-.178.53-.266 1.192-.71 1.94-1.325.927-.75 1.37-1.192 2.076-1.808.31-.268.486-.4.62-.268.133.134-.09.31-.358.577-.53.524-1.85 1.716-2.6 2.29-1.458 1.1-2.823 1.944-4.678 1.944-1.502 0-1.94-.577-1.94-1.278 0-.577.31-1.197.618-1.68.88-1.5 3.087-3.928 3.75-4.28-.75.26-1.636.795-2.824 1.72" fill="#231f20"/><path d="M190.143 111.675c-.84 0-2.518 1.32-4.15 2.91-1.63 1.635-2.473 2.913-2.426 3.49.043.31.262.435.572.435.838 0 2.513-.97 3.705-2.07 1.373-1.236 3.09-3.267 3.133-3.973.044-.573-.305-.792-.792-.792h-.043zm-.4-.534c1.455 0 1.808.845 1.588 1.594l.044.043c1.502-2.07 3.444-4.46 5.65-7.016 1.543-1.807 2.915-3.395 4.986-5.25.71-.616 1.455-1.06 2.866-1.06.62 0 1.236.178 1.283.397-1.193 1.15-3.397 3.62-5.03 5.47-1.457 1.68-2.956 3.534-5.563 6.754-1.498 1.856-3.526 4.503-3.836 5.075-.18.31-.18.663 0 .796.22.178.707.088 1.103-.09.44-.175 1.145-.662 1.85-1.234.927-.75 1.637-1.365 2.166-1.85.132-.134.438-.4.572-.268.133.134-.134.396-.31.577-.526.525-1.894 1.717-2.738 2.38-1.898 1.455-3 1.94-4.41 1.94-1.146 0-1.81-.395-1.986-1.144-.133-.532.134-1.195.396-1.544l-.043-.043c-1.144 1.012-3.308 2.733-5.646 2.733-1.588 0-2.647-.443-2.647-1.72 0-.75.616-1.81 1.412-2.648l-.044-.043s-.31.266-.4.353c-.353.305-.62.44-.702.35-.09-.13.04-.303.306-.57.443-.443 1.192-1.02 1.72-1.37.974-.66 1.9-1.148 3.135-1.677 1.055-.438 2.69-.93 4.278-.93" fill="#231f20"/><path d="M196.855 115.336c-.487.443-.62.533-.75.4-.09-.133.044-.31.263-.533.443-.44.887-.793 1.502-1.236.353-.262 1.06-.706 1.675-1.055 1.325-.753 3.666-1.768 5.56-1.768.706 0 1.193.09 1.193.31 0 .09-.353.176-.706.352-.97.487-2.032 1.322-3.177 2.428-1.15 1.15-2.513 3.09-2.513 4.06 0 .265.176.575.572.575 1.06 0 3-1.413 4.46-2.824-.048-.534.085-1.196.658-2.08.486-.705 1.015-1.054 1.455-1.407 0-.18-.043-.444-.087-.577-.09-.353-.266-.482-.133-.616.086-.09.663.043 1.15.35.438.266.88.795.88 1.544 0 1.064-.967 2.61-2.47 3.84.09.09.307.134.483.134.577 0 1.24-.31 1.765-.706.886-.66 1.72-1.412 2.165-1.812.176-.172.353-.26.482-.172.09.086.09.22-.043.35-.527.49-1.503 1.367-2.43 2.03-.57.4-1.187.753-2.026.753-.306 0-.706-.133-.84-.267-1.144.883-3.968 1.898-5.733 1.898-2.646 0-3.575-.972-3.618-2.207-.047-.795.31-1.63 1.055-2.384l-.043-.043c-.173.134-.393.353-.75.663" fill="#231f20"/><path d="M219.5 112.56c0 .57-.442 1.054-1.544 2.422-.486.62-1.06 1.37-1.498 2.075-.267.443-.31.753-.133.925.22.224.62.09.968-.086.62-.306 1.24-.706 1.99-1.282 1.01-.793 1.673-1.412 2.16-1.848.09-.09.44-.4.572-.266.133.133-.133.396-.353.615-.573.573-1.63 1.5-2.647 2.295-.97.75-2.294 1.768-4.15 1.855-2.117.13-2.642-.706-2.642-1.455 0-.973.792-1.942 1.94-2.914 1.236-1.016 2.734-2.208 2.868-2.518.173-.486-.705-.44-1.764-.353-.486.043-.84 0-1.016-.086-.44.485-1.06 1.148-1.717 1.764-.667.62-1.33 1.235-1.812 1.678-.352.306-.53.44-.662.306-.09-.086-.047-.263.22-.486.576-.526 1.278-1.145 1.945-1.765.568-.525 1.278-1.235 1.674-1.674-.396-.263-.486-.973.047-1.542.393-.442 1.19-.842 1.98-.842.71 0 1.197.177 1.413.443-.306.22-.616.484-.88.794-.575.71-.4.972.13 1.02 1.102.085 2.87.085 2.914.878v.047zM237.333 111.675c-.836 0-2.514 1.32-4.145 2.91-1.632 1.635-2.475 2.913-2.428 3.49.043.31.263.435.573.435.84 0 2.513-.97 3.71-2.07 1.368-1.236 3.086-3.267 3.13-3.973.042-.573-.307-.792-.793-.792h-.047zm-.396-.534c1.454 0 1.81.845 1.588 1.594l.043.043c1.502-2.07 3.443-4.46 5.647-7.016 1.55-1.807 2.918-3.395 4.988-5.25.71-.616 1.455-1.06 2.867-1.06.62 0 1.235.178 1.282.397-1.192 1.15-3.396 3.62-5.027 5.47-1.46 1.68-2.957 3.534-5.565 6.754-1.498 1.856-3.525 4.503-3.835 5.075-.177.31-.177.663 0 .796.22.178.706.088 1.102-.09.44-.175 1.145-.662 1.85-1.234.926-.75 1.636-1.365 2.165-1.85.13-.134.44-.4.573-.268.133.134-.133.396-.31.577-.525.525-1.894 1.717-2.733 2.38-1.898 1.455-3.004 1.94-4.416 1.94-1.145 0-1.808-.395-1.984-1.144-.13-.532.133-1.195.396-1.544l-.043-.043c-1.145 1.012-3.31 2.733-5.647 2.733-1.59 0-2.647-.443-2.647-1.72 0-.75.616-1.81 1.412-2.648l-.043-.043s-.31.266-.4.353c-.354.305-.62.44-.707.35-.086-.13.044-.303.31-.57.443-.443 1.192-1.02 1.722-1.37.968-.66 1.898-1.148 3.133-1.677 1.055-.438 2.69-.93 4.28-.93" fill="#231f20"/><path d="M250.67 114.808c1.15-.883 1.855-1.99 1.988-2.557.09-.4-.043-.666-.443-.666-.486 0-1.322.443-2.6 1.855-1.02 1.1-1.588 1.897-2.03 2.736.752-.09 1.897-.49 3.085-1.368m1.812 1.984c.835-.573 1.898-1.408 2.604-2.075.262-.22.396-.22.486-.133.086.133-.09.357-.533.753-.53.482-1.413 1.235-2.515 1.984-1.808 1.237-3.663 1.9-5.518 1.99-2.867.13-3.482-.973-3.482-2.08 0-.79.44-1.63 1.06-2.29l-.048-.046c-.13.133-.397.357-.487.443-.392.35-.615.44-.702.35-.09-.13 0-.26.31-.57.482-.443.97-.843 1.412-1.15.482-.352 1.588-1.057 2.29-1.41 1.898-.926 3.62-1.416 5.34-1.416h.048c1.59 0 2.247.62 2.204 1.374-.09 1.192-1.588 2.07-2.957 2.737-1.325.616-3.443 1.19-4.635 1.365-.13.224-.263.616-.263.926 0 .668.396.974 1.106.974.702 0 2.337-.44 4.28-1.722M278.788 108.014c2.824 0 6.22-1.236 6.62-4.236.133-1.902-1.325-2.737-3.31-2.737-.796 0-1.588.09-2.12.22.308.663.485 1.546.532 2.428.043 1.06-.133 1.678-.224 1.63-.086-.042 0-.528-.133-1.363-.133-.93-.482-1.855-.925-2.475-2.295.706-5.78 3.177-7.412 4.988 1.63 1.102 4.635 1.546 6.925 1.546h.048zm-4.855-9.314c-2.737 0-5.117 1.235-5.117 3.533 0 .835.306 1.898.925 2.514 3.22-1.94 6.268-3.09 9.225-3.706-.71-1.148-2.87-2.34-4.988-2.34h-.043zm-.047-.616c2.78 0 4.855 1.192 5.914 2.78.53-.09 1.545-.22 2.384-.22 2.38-.046 5.514.836 5.295 3.31-.178 3.177-5.43 4.456-8.782 4.456-2.47 0-5.47-.396-7.192-1.632-2.78 2.467-4.988 6.134-4.988 8.824 0 2.208.93 4.192 4.592 4.012 2.384-.173 4.674-1.365 6.176-2.424 1.012-.706 1.942-1.588 2.824-2.337.4-.353.62-.443.706-.353.09.133-.086.353-.616.835-.925.843-1.988 1.765-2.957 2.475-1.325.882-3.576 2.423-6.925 2.647-4.592.353-7.636-1.192-7.77-4.68-.132-3.838 2.248-7.587 6.84-10.767-.706-.745-1.102-1.675-1.102-2.777 0-2.427 2.38-4.15 5.557-4.15h.043z" fill="#231f20"/><path d="M280.208 115.336c-.486.443-.62.533-.75.4-.09-.133.044-.31.264-.533.443-.44.886-.793 1.502-1.236.353-.262 1.06-.706 1.674-1.055 1.326-.753 3.667-1.768 5.56-1.768.707 0 1.193.09 1.193.31 0 .09-.352.176-.705.352-.968.487-2.027 1.322-3.176 2.428-1.15 1.15-2.515 3.09-2.515 4.06 0 .265.177.575.573.575 1.058 0 3-1.413 4.458-2.824-.047-.534.087-1.196.66-2.08.486-.705 1.01-1.054 1.454-1.407 0-.18-.043-.444-.086-.577-.09-.353-.267-.482-.133-.616.087-.09.663.043 1.15.35.44.266.882.795.882 1.544 0 1.064-.97 2.61-2.47 3.84.09.09.305.134.482.134.576 0 1.24-.31 1.764-.706.887-.66 1.722-1.412 2.165-1.812.177-.172.353-.26.482-.172.09.086.09.22-.043.35-.525.49-1.502 1.367-2.423 2.03-.578.4-1.193.753-2.033.753-.305 0-.705-.133-.84-.267-1.144.883-3.967 1.898-5.732 1.898-2.65 0-3.577-.972-3.62-2.207-.047-.795.31-1.63 1.055-2.384l-.043-.043c-.172.134-.392.353-.75.663" fill="#231f20"/><path d="M304.31 117.456c.133-.75.576-1.37 1.5-2.514.62-.753 1.323-1.545 1.766-2.165.176-.22.176-.486-.086-.572-.267-.087-.753.043-1.37.352-.928.487-2.03 1.19-3.176 2.028-2.078 1.502-3.223 2.427-5.078 3.925-.482.4-1.06.49-2.204.577-1.412.09-1.588-.086-1.32-.706.39-.838 1.234-1.94 2.026-2.956.75-.968 1.365-1.678 1.898-2.427.177-.263.263-.487.086-.62-.133-.086-.353-.043-.706.18-.482.306-1.058.706-1.545 1.106-.657.526-1.544 1.28-1.983 1.67-.396.354-.62.487-.75.354-.046-.086 0-.22.307-.526.62-.575 1.545-1.414 2.298-1.987 1.235-.968 2.78-2.03 4.412-2.03 1.368 0 1.76.532 1.76 1.19 0 .664-.568 1.413-.968 1.942-.66.886-1.365 1.722-2.032 2.514l.09.09c.797-.703 2.385-1.938 4.197-3.217 1.5-1.062 3.703-2.52 5.91-2.52 1.28 0 1.942.532 1.9 1.414-.048.797-.884 1.808-1.59 2.69-.662.84-1.058 1.326-1.325 1.765-.306.487-.35.84-.09 1.016.223.133.71 0 1.106-.22.663-.352 1.326-.796 1.808-1.192.62-.486 1.765-1.498 2.208-1.898.267-.22.396-.31.53-.176.09.09.047.223-.134.4-.53.482-2.03 1.808-2.91 2.466-1.02.753-2.694 1.812-4.325 1.855-2.074.047-2.34-1.015-2.208-1.807" fill="#231f20"/><path d="M328.852 104.263c4.326-4.016 6.534-6.93 7.68-8.914.4-.664.31-1.236-.354-1.193-.66.043-1.898.968-2.824 1.894-1.502 1.416-3.266 3.534-5.556 6.267-1.37 1.636-4.68 5.87-5.87 7.326.968-.616 4.94-3.573 6.924-5.38m-20.298 23.517c-1.455 2.208-3.66 5.47-4.325 7.15-.135.352-.178.79.09.925.266.133.528 0 1.062-.4 1.145-.88 3-3.13 4.85-6.35 1.632-2.87 3.31-7.195 3.93-9.09-1.592 1.985-3.31 4.326-5.608 7.765m27.977-33.976c1.37 0 1.636.882 1.326 1.855-.4 1.363-3.4 5.203-8.384 9.042-3.133 2.427-6.443 4.678-7.988 5.647-2.208 2.736-4.855 6.18-6.487 8.426.397-.086 1.37-.44 1.99-.702.7-.31 1.763-.886 2.775-1.545.753-.487 1.77-1.326 2.25-1.765.31-.267.487-.4.62-.267.13.133-.133.396-.62.84-.662.572-1.454 1.234-2.603 1.94-1.37.84-2.295 1.236-3.44 1.722-.486.22-.882.396-1.106.706-.31.443-.392.706-.616 1.41-.796 2.825-1.63 5.252-3.352 8.386-1.455 2.647-3.71 5.16-5.514 6.53-.843.662-1.898.968-2.608.838-.97-.176-1.545-.972-1.322-2.25.353-2.075 3.134-7.06 6.267-11.342 2.026-2.78 4.72-6.176 7.144-9.31l-.043-.043c-.438.44-.79.75-1.058 1.016-.396.354-.62.53-.75.397-.09-.133-.042-.263.264-.53.796-.705 1.678-1.5 2.65-2.337 2.115-2.737 4.06-5.164 5.424-6.753 2.08-2.427 6.048-6.576 8.212-8.427 2.957-2.427 5.514-3.486 6.926-3.486h.043z" fill="#231f20"/><path d="M332.873 105.232c.926 0 1.283.663.577 1.59-.796 1.01-2.385 1.763-3.043 1.763-.267-.443-.357-1.455-.048-2.164.44-1.01 1.325-1.188 2.47-1.188h.043zm-9.086 8.604c-.667.53-1.37 1.15-1.812 1.545-.31.264-.53.44-.66.307-.132-.13.044-.306.307-.568.443-.4 1.808-1.637 3.177-2.52 1.195-.748 2.473-1.277 4.06-1.277 1.766 0 2.03.176 1.547.705-1.106 1.193-1.722 1.895-2.565 2.957-.745.926-1.188 1.632-1.455 2.16-.267.53-.31.84-.133.974.176.128.486.042.93-.178.528-.266 1.19-.71 1.94-1.325.926-.75 1.37-1.192 2.075-1.808.308-.268.485-.4.618-.268.134.134-.09.31-.357.577-.528.524-1.85 1.716-2.6 2.29-1.453 1.1-2.826 1.944-4.677 1.944-1.502 0-1.94-.577-1.94-1.278 0-.577.31-1.197.618-1.68.88-1.5 3.088-3.928 3.75-4.28-.75.26-1.635.795-2.823 1.72" fill="#231f20"/><path d="M340.38 111.675c-.837 0-2.515 1.32-4.146 2.91-1.632 1.635-2.475 2.913-2.428 3.49.043.31.263.435.573.435.838 0 2.512-.97 3.705-2.07 1.372-1.236 3.09-3.267 3.133-3.973.043-.573-.306-.792-.792-.792h-.047zm4.238-.31c1.408 0 1.63.176 1.188.706-.882 1.06-1.455 1.77-2.337 2.915-.574.75-1.323 1.807-1.5 2.16-.176.31-.176.663 0 .796.22.178.707.088 1.103-.09.44-.175 1.145-.662 1.85-1.234.926-.75 1.722-1.455 2.166-1.85.128-.134.438-.4.57-.268.134.134-.22.487-.4.663-.524.527-1.803 1.632-2.642 2.295-1.902 1.455-3.004 1.94-4.416 1.94-1.145 0-1.808-.395-1.984-1.144-.133-.532.133-1.195.396-1.544l-.043-.043c-1.144 1.012-3.31 2.733-5.646 2.733-1.588 0-2.647-.443-2.647-1.72 0-.75.44-1.633 1.412-2.648l-.045-.043-.4.353c-.396.35-.62.44-.705.35-.087-.13.043-.303.31-.57.662-.62 1.188-1.02 1.72-1.37.973-.66 1.9-1.148 3.134-1.677 1.055-.438 2.69-.93 4.28-.93 1.454 0 1.72.8 1.677 1.417 1.146-1.192 1.236-1.192 2.958-1.192" fill="#231f20"/><path d="M357.288 117.456c.133-.75.576-1.37 1.502-2.514.615-.753 1.32-1.545 1.764-2.165.177-.22.177-.486-.09-.572-.263-.087-.75.043-1.364.352-.93.487-2.032 1.19-3.177 2.028-2.078 1.502-3.223 2.427-5.078 3.925-.487.4-1.06.49-2.204.577-1.41.09-1.588-.086-1.325-.706.396-.838 1.24-1.94 2.032-2.956.75-.968 1.364-1.678 1.898-2.427.176-.263.262-.487.086-.62-.132-.086-.352-.043-.705.18-.482.306-1.06.706-1.545 1.106-.66.526-1.545 1.28-1.984 1.67-.396.354-.62.487-.753.354-.043-.086 0-.22.31-.526.62-.575 1.545-1.414 2.294-1.987 1.24-.968 2.784-2.03 4.415-2.03 1.37 0 1.76.532 1.76 1.19 0 .664-.568 1.413-.968 1.942-.662.886-1.364 1.722-2.03 2.514l.09.09c.795-.703 2.384-1.938 4.19-3.217 1.503-1.062 3.707-2.52 5.915-2.52 1.278 0 1.94.532 1.893 1.414-.043.797-.878 1.808-1.588 2.69-.66.84-1.055 1.326-1.322 1.765-.31.487-.352.84-.09 1.016.224.133.71 0 1.106-.22.662-.352 1.325-.796 1.807-1.192.62-.486 1.765-1.498 2.208-1.898.266-.22.396-.31.53-.176.09.09.046.223-.134.4-.53.482-2.027 1.808-2.91 2.466-1.02.753-2.693 1.812-4.324 1.855-2.075.047-2.342-1.015-2.208-1.807" fill="#231f20"/><path d="M353.637 136.297c2.424 0 6.663-3.443 9.926-6.925 2.34-2.432 5.69-6.667 6.53-8.832-.793.49-1.805 1.063-2.91 1.68-2.032 1.148-5.252 3.09-8.514 5.563-3.445 2.6-5.83 5.247-6.05 7.322-.042.573.135 1.192.97 1.192h.047zm16.196-19.15c1.45 0 2.91.393 3.44 1.456.796-.396 1.764-1.016 2.6-1.588 1.015-.71 2.384-1.898 2.78-2.25.267-.225.486-.31.576-.225.086.09.042.224-.134.4-.62.573-1.855 1.632-3.047 2.47-.84.573-1.9 1.193-2.6 1.542.042.133.132.443.132.843-.047 3.133-3.223 6.926-7.235 10.412-3.71 3.31-10.33 6.576-12.933 6.576-1.412 0-2.247-.62-2.247-1.63 0-2.166 2.823-4.856 6.835-7.813 3.223-2.337 7.016-4.325 9.004-5.47 1.235-.71 2.294-1.283 3.22-1.855.396-1.632-.22-2.385-1.055-2.385-1.325 0-2.517.973-3.18 1.632-.176.176-.353.353-.53.223-.176-.133-.176-.486 0-.75.354-.528.973-.97 1.722-1.324 1.68-.795 2.867-1.282 4.59-2.16 1.41-.71 2.602-1.46 3.575-2.34.133-.13.267-.35.173-.484-.087-.09-.216.044-.35.134-1.148.835-2.737 1.408-3.84 1.408-1.28 0-2.207-.44-2.56-1.145-.752.882-1.678 1.807-2.513 2.56-.4.353-.577.396-.663.306-.09-.087-.043-.264.263-.53.882-.792 1.812-1.765 2.737-2.78-.043-.354.043-.93.443-1.412.392-.487 1.012-.663 1.585-.663.356 0 .796.09.886.443-.267 0-.71.09-.753.486-.043.483.353.883 2.298.883 1.145 0 2.953-.224 3.878-.534.444-.133.754-.22.974-.043.22.22-.043.71-.263 1.02-.615.878-1.634 1.937-3.88 3-1.503.702-4.237 1.188-5.3 1.765.4-.134.887-.177 1.373-.177" fill="#231f20"/><path d="M387.798 111.675c-.84 0-2.518 1.32-4.15 2.91-1.63 1.635-2.47 2.913-2.427 3.49.048.31.268.435.574.435.843 0 2.517-.97 3.71-2.07 1.368-1.236 3.09-3.267 3.133-3.973.043-.573-.31-.792-.796-.792h-.042zm4.235-.31c1.412 0 1.63.176 1.192.706-.882 1.06-1.46 1.77-2.34 2.915-.57.75-1.323 1.807-1.5 2.16-.18.31-.18.663 0 .796.224.178.707.088 1.107-.09.435-.175 1.145-.662 1.85-1.234.926-.75 1.718-1.455 2.162-1.85.133-.134.443-.4.576-.268.13.134-.227.487-.404.663-.525.527-1.804 1.632-2.643 2.295-1.898 1.455-3.004 1.94-4.416 1.94-1.145 0-1.808-.395-1.984-1.144-.13-.532.137-1.195.4-1.544l-.047-.043c-1.14 1.012-3.306 2.733-5.647 2.733-1.59 0-2.648-.443-2.648-1.72 0-.75.44-1.633 1.41-2.648l-.042-.043-.4.353c-.392.35-.615.44-.702.35-.09-.13.044-.303.31-.57.66-.62 1.188-1.02 1.718-1.37.972-.66 1.898-1.148 3.137-1.677 1.055-.438 2.686-.93 4.28-.93 1.45 0 1.72.8 1.677 1.417 1.145-1.192 1.235-1.192 2.953-1.192" fill="#231f20"/><path d="M.285 76.103c-1.615-5.455 3.844-9.482 10.76-9.224 6.923.254 16.915.513 21.013-2.307 2.177-1.494 9.996-10.505 11.788-19.73 1.793-9.226 7.173-26.136 19.475-31.517 12.3-5.384 33.825-7.18 31.52 3.07-2.307 10.252-18.448 5.64-23.574 6.41-5.125.767-21.526 6.916-24.86 21.78-3.328 14.862-12.038 28.187-22.803 32.8-10.76 4.61-21.267 5.635-23.317-1.283" fill="#f58220"/><path d="M63.065 9.992L55.12 14.35S45.383 8.2 35.132 8.2c-10.247 0-17.165 2.82-19.47 4.357-2.31 1.533-6.15-.26-2.566-3.847C16.686 5.125 27.96 0 38.72 0c10.765 0 22.294 7.686 24.345 9.992M17.198 25.11c6.415-1.234 13.07-1.277 15.63-.512 0 0 1.538-8.455-10.505-7.432-12.043 1.028-17.423 4.102-19.73 5.64-2.31 1.537-2.31 6.917 2.303 6.403 4.615-.51 5.64-2.816 12.302-4.1M43.847 29.98l-2.306 5.125s-15.117.77-20.242 2.306C16.172 38.95 8.23 41.77 5.153 43.56c-3.075 1.792-5.38-4.098-1.024-6.404 4.356-2.31 11.532-5.64 18.19-6.663 6.664-1.027 21.527-.513 21.527-.513M41.285 41.766l-2.82 8.2s-9.227 2.05-14.608 4.357c-5.38 2.306-14.564 3.718-16.14 1.283-2.82-4.357 3.454-9.455 13.58-12.044 11.02-2.82 19.988-1.796 19.988-1.796M51.022 41.51l-3.33 9.994s6.663 4.102 7.687 8.713c1.022 4.612-3.59 16.91-4.872 19.73-1.282 2.82-5.894 14.863-3.33 15.886 2.562 1.024 8.71-9.478 9.993-12.553 1.283-3.074 8.715-17.937 11.276-19.474 2.56-1.542 2.306 1.278 2.05 2.56-.254 1.28-1.537 8.97-1.537 8.97h17.678s10.25-16.4 11.788-15.887c1.537.51-3.074 16.14-3.074 16.14h16.145s.255-8.71.51-12.557c.258-3.843 1.537-23.06 1.537-23.06l-15.632 5.123L85.87 65.853s-2.562 2.564-2.307 0c.255-2.56.514-17.424.514-17.424s-.514-2.048-2.82-1.283c-2.305.768-7.76 2.235-8.91 2.64-1.148.403-2.933 1.666-3.678 3.22-.75 1.552-2.07 3.39-2.762 3.277-.69-.118-.976-3.337-1.725-5.176-.745-1.84-3.847-7.58-13.16-9.597" fill="#231f20"/><path d="M64.587 28.343l7.416-2.07s.63 6.553.63 8.968c0 2.417-1.207 6.44-2.065 7.82-.863 1.38-3.393 1.726-3.393-.69 0-2.415-.517-10.176-2.588-14.027M36.648 72.723s2.59-5.98 6.612-7.012c4.024-1.034 6.267-.344 6.84.805.576 1.15-1.38 5.518-5.287 5.922-3.91.4-8.165.286-8.165.286M136.56 57.374c1.668 0 5.06.557 5.52-2.76.516-3.734-1.21-3.448-4.715-3.448-3.506 0-5.224.228-5.577 2.99-.458 3.622 1.667 3.218 4.773 3.218m-8.968 8.97c-.4 2.01 1.84 3.446 3.97 3.446h13.85c1.498 0 4.082-1.435 4.082-1.435.29 5.69-4.713 7.357-7.243 7.357h-21.787c-4.714 0-4.596-5.977-4.196-8.22.404-2.243 2.702-12.933 3.623-16.44.918-3.51 6.095-5.576 8.506-5.576h21.56c3.62 0 4.425 3.388 3.907 5.863-.518 2.47-2.702 12.242-2.702 12.242h-21.266c-1.153 0-1.898.75-2.302 2.76M167.892 55.65c-.804 4.255-1.78 9.255 1.898 9.255s4.886-1.208 6.208-8.506c1.32-7.303-1.38-7.13-3.16-7.13-3.338 0-4.142 2.125-4.946 6.38m-9.6-10.29h26.27c3.28 0 5.463 2.815 4.832 5.808-.636 2.988-2.302 10.462-3.047 13.564-.75 3.106-3.22 3.738-3.22 3.738l3.275 5.75.92 1.552h-13.74l.23-.922c.92-4.54-2.814-5.23-5.17-5.23-2.358 0-4.1 1.108-4.6 2.242-.69 1.553-.06 3.85-.06 3.85H150.012c2.07-1.84 3.506-6.666 4.024-8.795.517-2.126 2.588-11.898 3.106-14.487.517-2.588-.06-7.01-.06-7.01l1.21-.06zM215.376 56.684h12.648s.74-4.137.862-5.862c.173-2.416-1.266-5.463-6.208-5.463H202.27c-4.082 0-7.474 2.128-8.337 5.807-.862 3.678-2.815 12.82-3.392 15.635-.57 2.816 1.495 8.91 6.382 8.91h18.513c2.643 0 8.792.06 11.094-12.702H213.88s-.63 6.608-4.368 6.608h-4.37c-1.897 0-2.183-1.722-1.552-5.173.632-3.45 1.855-8.615 2.47-10.75.632-2.183 2.648-2.356 5.118-2.356 2.757 0 5.46-.805 4.196 5.344M267.057 56.684s.742-4.137.863-5.862c.173-2.416-1.267-5.463-6.208-5.463h-20.408c-4.082 0-7.474 2.128-8.337 5.807-.863 3.678-2.816 12.82-3.392 15.635-.573 2.816 1.494 8.91 6.38 8.91h18.514c2.642 0 8.795.06 11.093-12.702l1.494-6.326zm-14.14 6.326s-.632 6.608-4.37 6.608h-4.368c-1.9 0-2.185-1.722-1.554-5.173.63-3.45 1.855-8.615 2.47-10.75.632-2.183 2.644-2.356 5.118-2.356 2.76 0 5.463-.805 4.196 5.344l-1.494 6.326zM269.415 68.757h10.98v1.15l-9.372 7.3h-5.114l3.505-8.45zM331.422 69.822h11.345l-.933 5.835H330.48l.942-5.835zM388.655 69.822H400l-.933 5.835h-11.353l.94-5.835zM295.768 65.93l-1.458 9.73h25.776c3.89 0 7.624-2.435 8.27-5.674.648-3.243 1.3-6.322 1.46-8.43.16-2.11-1.95-4.217-4.867-4.217h-11.997c-3.08 0-4.216-1.625-3.57-3.73.652-2.11 1.625-3.244 4.868-3.244 3.244 0 5.68.165 5.028 4.055h11.996s.487-2.434.322-4.214c-.16-1.785-1.777-5.028-6.157-5.028h-19.134c-3.08 0-6.483 2.11-7.13 4.702-.65 2.596-1.298 6.16-1.298 7.945 0 1.785 1.463 4.702 6.487 4.702h12.317c2.11 0 2.275 1.784 2.11 2.592-.165.81-1.95 2.92-4.22 2.92h-14.588c-1.784 0-4.216-1.136-4.216-2.11M361.904 67.228c.185-3.494.45-7.11.824-8.592.812-3.243 2.92-.973 3.73 0 .458.553 3.682 4.804 6.442 8.592h-10.996zm20.765 4.702c-1.3-1.784-14.915-18.97-15.89-20.263-.974-1.298-2.593-2.92-4.052-3.408-1.46-.487-10.538-3.89-10.538-3.89s-2.27-.326-2.435.972l-3.4 30.368h15.236s.052-2.494.165-5.24h13.475c.988 1.413 1.682 2.464 1.764 2.758.326 1.133.326 2.392.326 2.392h9.89s-3.247-1.91-4.54-3.69" fill="#231f20"/></svg>