<svg xmlns="http://www.w3.org/2000/svg" width="400" height="314.476"><path d="M345.937 98.852c-.343 1.423.314 1.708 1.258 2.692l11.99 13.42c.297.353.563.535.86.89l2.983 3.682c1.542 1.905 3.214 3.69 4.6 5.712l4.304 5.842c.486.68.97 1.22 1.414 1.916l4.004 6.134c1.363 2.2 3.87 6.498 4.822 8.778.184.437.29.7.513 1.067 1.262 2.076.785 1.627 1.668 3.387 1.45 2.885 3.508 10.332 3.508 13.486 0 1.14-.17 2.468-.46 3.302-.908 2.592-3.906 4.663-6.824 4.663l-3.217-.175c-1.635-.285-2.503-.294-4.23-.294-.48 0-.647.49-.647.937 0 .694 1.02 2.026 1.392 2.56l2.278 3.584c.31.5.518.735.807 1.253l7.344 12.905c.233.435.338.823.585 1.31.28.555.467.737.76 1.295.503.955.93 1.8 1.402 2.71 1.847 3.57 4.784 10.608 5.573 14.46.498 2.43.578 3.6.578 6 0 1.585-2.11 3.125-4.37 3.125-4.437 0-7.383-3.056-9.806-6.158-1.388-1.775-2.486-3.68-3.522-5.66l-3.853-8.15c-.58-1.386-1.054-2.864-1.666-4.332-.787-1.885-.58-2.81-1.71-4.44-2.412.194-2.592 2.25-2.592 4.218 0 4.824 4.194 15.11 5.927 19.897l18.215 45.056c1.206 3.062 3.378 8.157 3.378 11.423 0 2.522.115 2.966-1.594 5.024-3.034 3.656-7.658.186-9.667-2.75-3.028-4.42-4.573-9.906-5.75-15.07-.437-1.925-1.134-3.855-2.295-5.437-.684-.928-1.027-1.135-2.224-1.135-2.017 0-1.78 5.932-1.78 7.5 0 1.292.664 3.904.343 4.848-.435 1.275-3.026 1.6-4.16 1.18-2.455-.916-3.5-4.592-3.464-7.908.018-1.748-.502-2.7-.486-4.996l-.372-5.264c-.1-.733-.016-1.892-.135-2.683-.116-.778-.446-1.42-.468-2.358-.092-4.098-2.253-14.93-3.618-18.846-.96-2.757-1.816-5.514-3.072-8.123-2.183-4.55-2.99-6.74-6.256-10.832-.502-.625-2.107-2.152-1.94-.35.173 1.85.898 3.72 1.662 5.46.603 1.368.92 2.835 1.57 4.108.604 1.18 1.055 2.75 1.537 4.14.493 1.428.912 2.713 1.396 4.118 1.008 2.91 1.797 5.84 2.476 8.86l1.392 9.747c.023 1.672.334 3.61.325 5.308-.01 1.874-.002 3.75-.002 5.625l.156 8.128c.004 3.18.56 6.313 2.497 8.837.455.592.982.834 1.62 1.248 3.11 2.016 8.188 2.072 11.266.06.577-.376.685-.34 1.294-.622.89 1.283 1.13 3.655 2.536 6.145.905 1.605 2.528 3.598 4.13 4.607.402.253.725.37 1.138.62 2.113 1.27 4.04 2.06 7.088 2.06 4.878 0 8.64-1.99 10.578-6.193.704-1.53 1.076-3.076 1.076-4.742l-.598-3.324c-.323-1.922-1.177-4.408-2.045-6.15-.497-1-.8-1.813-1.197-2.907l-9.222-23.587c-.395-.97-.72-2.05-1.152-2.95l-2.818-7.435c-.09-.31-.314-1.328-.448-1.597 1.685 0 2.474.67 3.98 1.157 2.774.897 5.688 1.036 8.212-.325 1.112-.6 1.94-1.127 2.63-2.147 1.874-2.767 2.335-5.676 2.335-9.15 0-2.182-.61-4.137-1.04-6.024l-.775-2.69c-.334-1.22-1.312-3.91-1.96-5.137-1.206-2.29-2.102-4.968-3.604-7.142-1.764-2.552-2.258-4.778-4.41-7.928-.73-1.07-1.21-2.385-1.968-3.412-.267-.358-.466-.56-.744-1-1.076-1.708-3.524-4.344-3.627-5.557 2.162-1.4 6.188.95 9.912-3.084 2.365-2.564 1.92-7.567 1.74-10.977-.08-1.607-1.608-8.897-2.496-10.396-.623-1.054-1.31-3.105-1.928-4.387l-2.212-4.426c-.26-.51-.47-.79-.756-1.3-1.037-1.86-1.972-3.74-3.2-5.5-.24-.346-.232-.252-.47-.644-.156-.262-.23-.455-.374-.73-.484-.938-1.168-1.79-1.77-2.666-2.363-3.417-4.62-6.837-7.165-10.113-1.174-1.507-4.64-5.932-5.892-7.12-.455-.433-.626-.695-1.02-1.202-1.294-1.67-3.15-3.394-4.14-4.593l-3.175-3.343c-2.25-2.174-4.456-4.313-6.886-6.32l-2.53-1.774c-1.075-.623-2.032-1.05-3.25-.926M253.185 68.55c0 3.534 4.028 5.484 6.527 6.746.56.282.816.442 1.47.64.203.066.808.205.915.196 1.807-.14-1.026-2.233 1.213-5.548.834-1.233 2.706-1.968 4.185-2.29 4.712-1.026 10.478-.66 15.264-.02 1.81.24 3.65.633 5.482.992 5.107 1 15.226 4.425 19.705 6.678.764.385 1.486.668 2.212 1.026l4.424 2.213c.747.42 1.475.782 2.184 1.213l6.115 3.76 11.3 8.45c1.417.868 3.517-.314.164-2.918l-11.53-9.998c-1.26-.852-1.683-1.41-3.397-2.43-.684-.408-1.193-.66-1.812-1.103-2.232-1.6-4.712-2.964-7.13-4.363-2.493-1.44-5.183-2.474-7.763-3.73-1.233-.598-2.767-1.105-4.07-1.594-1.342-.504-3.06-1.082-4.382-1.445-1.52-.422-2.822-.875-4.398-1.267-3.31-.823-6.438-1.44-9.825-1.83-7.564-.87-17.15-.073-23.567 3.112-1.316.655-3.288 1.68-3.288 3.51" fill="#fff" fill-rule="evenodd"/><path d="M255.634 81.782c0 2.347.278 4.197.913 6.37.854 2.92 1.834 5.354 3.425 7.908 1.004 1.614 2.68 3.78 4.145 4.92 1.063.825 2.97 2.145 4.347 2.466 3.012.697.834-1.47.44-3.044-.317-1.253-.934-4.582-.295-5.97.176-.386.188-.224.367-.6.99-2.088.137-1.75 3.468-4.464.383-.314.675-.53 1.09-.856.508-.404.6-.556 1.17-.933 2.864-1.904 2.62-5.242 2.62-8.226 0-3.615-4.62-.988-7.31-1.916-.67-.23-.944-.558-1.54-.888-2.74-1.524-9.855-3.647-11.71.372-.55 1.188-1.13 3.125-1.13 4.86" fill="#fff" fill-rule="evenodd"/><path d="M348.174 161.345l10.004 7.317c1.915 1.237 5.017 3.293 7.476 2.72-.807-1.53-1.728-1.53-3.11-2.395-2.287-1.437-4.71-2.825-6.83-4.497-1.59-1.25-2.91-2.672-4.49-3.93-.75-.6-1.416-1.46-2.04-2.168l-2.075-2.295c-2.193-2.79-2.478-4.423-3.747-7.586-.63-1.575-3.927-8.907-4.07-9.847-.552-3.562-.297-9.01 2.656-11.224 2.462-1.846 6.21-1.332 9.026-.137 1.07.452 3.262 2.073 3.672 1.667.695-.686-.933-2.342-1.31-2.737-.024-.022-.058-.058-.08-.08-2.968-2.968-8.3-4.614-12.44-2.273-2.5 1.414-5.27 4.375-5.27 7.68l-.76-1.184c-1.19-2.163-2.642-4.398-4.218-6.3-.955-1.15-1.773-2.427-2.83-3.485l-3.075-3.236c-.44-.408-.686-.51-1.136-.968-1.03-1.04-2.216-2.103-3.52-2.794.728-1.09 1.844-1.795 2.92-2.42.42-.245.868-.467 1.31-.635 4.85-1.836 10.275-.542 14.76 1.706.756.38 1.754.946 2.7 1.027 0-2.578-2.567-4.37-4.347-5.692-2.024-1.502-4.44-2.186-7.56-2.636-5.204-.75-9.73 1.132-13.44 4.02-.556.434-.82.87-1.363 1.232-.79-.42-1.553-.888-2.376-1.347-.865-.487-1.636-.74-2.53-1.19-1.673-.843-3.536-1.462-5.29-2.16-5.66-2.243-11.958-3.344-18.038-4.46-2.268-.417-4.28-.617-6.662-.946-1.863-.257-4.898-.7-6.7-.743-1.265-.032-2.296-.225-3.41-.314l-10.684-.648c-2.432-.202-2.858.928-4.387-1.114-1.033-1.378-.46-1.837-.46-4.884 0-.594-.006-1.19-.006-1.784.002-.89.13-1.043.168-1.776.067-1.235-.088-2.434.094-3.63.358-2.364-.003-8.856-.243-10.952-.307-2.685-1.184-4.737-2.388-7-.173-.326-.536-.94-.747-1.198-.585-.722-1.175-1.226-2.12-1.605-2.29-.913-4.585.546-6.576.59-.764-1.14-.452-2.548-.296-4.02l2.028-17.396c.202-1.51.222-2.89.442-4.414.217-1.495.04-3.197.087-4.768.027-.86.177-1.22.17-2.26-.013-2.313-.233-5.003.02-7.263l.462-6.825c-.014-2.997 1.705-7.467 1.208-10.755-.227-1.493-.316-2.84-1.16-3.697-1.66-1.69-4.13-2.694-6.485-3.228-2.548-.576-6.034-.62-8.242.413-3.348 1.564-3.133 3.56-3.286 6.424-.042.805-.17 1.236-.163 2.265l-.32 9.392c.01 1.826-.338 5.106-.48 6.805-.132 1.594-.02 3.09-.194 4.66-.294 2.668-.47 6.495-.458 9.256l-.558 9.154c-.334 2.244-.182 4.457-.51 6.774-.122.864-.082 1.406-.243 2.184-.274 1.316-.635 2.775-.635 4.223-.495-.132-3.207-2.667-3.763-3.196l-10.712-8.717c-.4-.3-.657-.446-1.043-.738l-4.044-2.914c-.687-.51-1.43-.965-2.128-1.43L185.096 35c-.225-.11-.38-.214-.624-.346-4.528-2.444-12.732-5.405-17.785-6.82-1.874-.524-3.706-1.093-5.616-1.506l-11.902-2.18c-2.107-.306-4.183-.34-6.308-.65-1.112-.165-2.282.008-3.4-.162-2.69-.408-7.492.114-10.288.096-8.354-.052-21.816 3.033-29.485 5.804-1.72.623-3.402 1.29-5.02 1.94-.864.344-1.575.714-2.474 1.086l-5.81 2.93C80.74 38.214 75.55 41.778 70.595 45.79l-2.887 2.453c-.97.81-1.765 1.85-2.8 2.542-2.883-1.93-5.95-3.607-9.25-4.833-3.405-1.262-7.872-2.345-11.936-.975-9.373 3.156-4.847 12.867-2.332 19.292 1.838 4.697 2.038 6.076 1.11 11.86-.345 2.145-.53 4.133-.832 6.29-.61 4.33-.917 8.363-1.64 12.607-.117.695-.155.847-.21 1.567-.118 1.49-1.723 7.99-2.06 10.406-.165 1.2-.255 1.948-.414 3.147-.112.845-.36 2.16-.44 3.123-2.073.172-8.235 1.35-10.237 1.737-6.56 1.273-12.746 2.715-18.785 5.335-.442.19-.592.332-.93.527-1.588.923-3.088 1.893-4.406 3.2-1.7 1.688-2.497 3.593-2.546 6.28v.508c.056 2.61 1.05 4.38 2.33 6.303 1.577 2.366 3.58 4.588 5.787 6.354l1.634 1.442c2.256 2.147 7.75 6.02 10.418 7.875l19.11 12.453c.97.655.97 2.224 1.202 3.334 1.305 6.294 3.398 12.535 5.55 18.568 1.585 4.443 3.246 8.644 5.336 12.793l1.468 3.064c1.722 2.894 3.125 5.977 4.918 8.84.39.622.738 1.16 1.135 1.78l2.394 3.595c2.99 4.508 8.293 11.502 12.003 15.192l9.063 9.066c.358.346.45.352.805.65.308.26.435.456.745.716l8.415 6.8c1.19.893 2.278 1.626 3.468 2.518 3.416 2.56 7.427 5.093 11.16 7.133 4.332 2.367 8.242 4.515 12.79 6.636 11.482 5.35 25.206 10.095 37.65 12.364.916.168 1.786.316 2.58.497 4.92 1.13 10.898 1.723 15.976 2.153 1.854.155 3.87.09 5.797.355 2.6.354 6 .11 8.786.116 3.412.01 10.4-.67 14.013-1.204 7.546-1.11 14.556-2.835 21.65-5.404.73-.265 1.36.316 1.983.688.65.385 1.23.728 1.85 1.065 5.718 3.097 11.826 6.914 17.587 9.763 2.43 1.202 6.555 3.713 8.864 4.735 3.735 1.657 7.21 3.936 11.007 5.503 1.53.633 2.73 1.382 4.143 2.01 2.778 1.237 5.466 2.5 8.256 3.72 2.82 1.236 5.646 2.532 8.554 3.588 1.443.524 2.856 1.058 4.344 1.645.744.294 1.48.49 2.172.742 5.7 2.06 15.827 5.057 21.828 5.528.975.076 1.533.294 2.593.32.786.02 2.005.133 2.82.256.172.024.35.046.53.066h5.83c2.713-.197 5.51-.594 7.636-.99l2.468-.608c4.98-1.57 9.93-3.68 13.697-7.348l4.41-4.654c.256-.334.42-.46.675-.78l1.885-2.81c3.07-4.868 5.246-10.898 6.575-17.545 1.865-9.333 2.145-19.956 1.4-29.7l-.77-9.752c-.75-5.465-1.25-10.745-2.224-16.066-.33-1.812-.55-3.417-.886-5.102-1.758-8.828-3.8-19.987-6.37-28.27l-4.328-15.584c2.177 1.152 4.55 2.13 6.9 2.974 1.247.45 2.347.82 3.692 1.164.65.166 1.51.278 2.078.354 1.21.166 1.372-.085 2.222-.283 0-1.723-1.78-1.6-4.154-2.808-2.677-1.36-5.403-2.374-8.095-3.722l-3.076-1.618c-1.547-.742-1.285-1.25-1.776-2.92-.35-1.19-2.244-6.103-2.324-7.062" fill="#fff" fill-rule="evenodd"/><path d="M332.63 88.658c4.144 2.14 10.983 7.072 20.573 18.252 9.592 11.177 21.937 28.595 28.102 38.895 6.167 10.298 6.156 13.477 5.98 16.887-.172 3.41-.508 7.05-1.654 8.944-1.144 1.894-3.1 2.04-4.186 2.885-1.085.85-1.302 2.39.933 7.542 2.235 5.15 6.922 13.905 9.116 20.386 2.197 6.483 1.9 10.693 1.993 14.024.095 3.33.576 5.786-1.284 7.236-1.863 1.45-6.07 1.9-9.025 1.28-2.955-.62-4.658-2.304-4.22-.527.438 1.78 3.018 7.025 5.36 14.615 2.34 7.59 4.442 17.525 5.883 23.96 1.44 6.437 2.222 9.374 1.464 11.858-.758 2.483-3.053 4.512-4.93 4.89-1.876.38-3.333-.89-5.63-2.846-2.298-1.955-5.437-4.593-7.696-5.936-2.262-1.342-3.645-1.39-5.188-1.994-1.542-.603-3.24-1.76-5.906-14.567-2.666-12.81-6.297-37.27-10.902-56.903-4.606-19.633-10.186-34.442-21.125-49.72-10.938-15.28-27.235-31.03-37.484-40.188-10.25-9.156-14.454-11.718-17.072-12.792-2.62-1.074-3.653-.66-4.93-2.15-1.277-1.488-2.8-4.882-4.238-8.4-1.44-3.52-2.8-7.16-3.734-10.246-.933-3.087-1.442-5.615 1.865-6.617 3.306-1.005 10.428-.482 18.274 1.192 7.844 1.675 16.41 4.502 23.636 7.895 7.225 3.394 13.105 7.355 16.77 9.01 3.665 1.652 5.116.997 9.258 3.136" fill="#fff" fill-rule="evenodd"/><path d="M271.637 94.955c0 1.1 1.55 2.23 2.49 2.554 1.225.42 3.047.373 4.345.696 2.367.585 4.3 2.374 7.904 2.374 8.716 0 12.054-8.008 7.425-12.47-1.76-1.696-4.774-2.516-6.973-3.69l-3.125-2.112c-.442-.388-.565-.354-.955-.79-.764-.847-.65-1.367-2.19-1.497-.816 3.507-.948 6.386-2.85 8.984-1.87 2.56-6.07 3.053-6.07 5.95M63.387 199.617c-19.357-37.238-22.66-91.438-.534-125.375s69.676-47.61 113.138-28.985c43.463 18.622 82.833 69.54 94.477 111.636 11.643 42.1-4.44 75.38-28.546 93.996-24.1 18.614-56.225 22.566-89.993 14.404-33.767-8.162-69.183-28.438-88.54-65.677" fill="#fff" fill-rule="evenodd"/><path d="M135.825 40.386c-29.256 0-55.44 13.37-70.04 35.766-19.87 30.473-19.564 82.86.705 121.853 22.264 42.83 63.6 58.414 86.26 63.89 10.798 2.61 21.374 3.934 31.43 3.934 21.682 0 40.39-5.96 55.603-17.71 26.977-20.834 37.188-54.59 27.313-90.293-10.756-38.884-48.288-90.418-92.483-109.356-12.52-5.363-25.57-8.084-38.788-8.084m48.356 232.437c-10.61 0-21.737-1.39-33.073-4.13-18.534-4.48-36.118-12.245-50.846-22.46-17.206-11.93-30.654-27.07-39.977-45.002-9.965-19.17-15.723-42.42-16.214-65.463-.255-11.834.893-23.163 3.41-33.67 2.682-11.2 6.87-21.213 12.444-29.765 7.83-12.01 19.014-21.942 32.343-28.718 13.152-6.69 28.214-10.223 43.558-10.223 14.17 0 28.147 2.91 41.543 8.652 20.888 8.95 42.372 26 60.492 48.006 8.485 10.303 15.923 21.267 22.114 32.583 6.237 11.406 10.9 22.62 13.863 33.332 2.898 10.473 4.232 20.855 3.967 30.853-.248 9.37-1.898 18.467-4.904 27.04-5.515 15.724-15.488 29.488-28.84 39.802-8.292 6.402-17.698 11.28-27.962 14.495-9.895 3.1-20.633 4.67-31.917 4.67" fill="#e7ae22"/><path d="M63.462 117.914c49.68-6.122 138.195-13.497 188.386-11.226 50.192 2.27 62.06 14.183 74.146 44.78 12.085 30.6 24.383 79.878 21.59 111.024-2.793 31.146-20.677 44.16-55.094 34.28-34.417-9.88-85.363-42.648-138.19-73.63-52.822-30.983-107.52-60.177-129.442-77.21-21.926-17.03-11.077-21.896 38.604-28.018" fill="#f9f5af" fill-rule="evenodd"/><path d="M231.076 109.764c-50.064 0-121.76 6.024-167.187 11.62-17.184 2.12-28.087 3.908-35.352 5.805-9.478 2.47-10.763 4.653-10.93 5.26-.13.47-.288 3.2 9.394 10.722 15.048 11.69 45.71 29.17 81.214 49.407 15.607 8.896 31.744 18.096 47.855 27.545 9.645 5.658 19.305 11.42 28.646 16.992 41.675 24.86 81.037 48.342 108.74 56.293 7.19 2.064 13.73 3.11 19.432 3.11 18.93 0 29.14-11.232 31.21-34.34 2.658-29.612-8.732-77.463-21.357-109.427-5.68-14.387-11.253-24.654-21.452-31.377-10.222-6.738-25.053-10.085-49.598-11.195-6.115-.274-13.05-.416-20.614-.416m81.812 193.75c-6.355 0-13.542-1.135-21.363-3.38-28.577-8.202-68.317-31.91-110.392-57.01-9.332-5.566-18.978-11.322-28.6-16.965-16.074-9.43-32.192-18.618-47.78-27.504-35.737-20.37-66.6-37.965-82.042-49.96-6.856-5.327-13.628-11.644-11.846-18.104 1.253-4.546 6.01-7.588 15.907-10.17 7.68-2.005 18.526-3.794 36.265-5.98 45.632-5.62 117.68-11.672 168.04-11.672 7.667 0 14.71.14 20.932.424 25.89 1.17 41.782 4.86 53.13 12.34 11.7 7.712 18.1 19.43 24.11 34.65 12.927 32.73 24.572 81.925 21.82 112.62-3.018 33.65-22.426 40.71-38.18 40.71" fill="#ee2a24"/><path d="M281.663 72.773c1.688 0 3.058 1.37 3.058 3.058 0 1.69-1.37 3.056-3.057 3.056-1.688 0-3.057-1.367-3.057-3.055 0-1.687 1.37-3.057 3.057-3.057" fill="#435a37" fill-rule="evenodd"/><path d="M72.573 109.098c.2-1.36.144-5.537-.244-6.8-.256-.826-.568-2.052-.738-2.904l-.79-2.86c-.542-2.475-1.403-5.954-4-7.015-3.088-1.263-3.695 5.12-3.727 6.75-.058 3.046-.168 1.653-.392 3.267-.16 1.16.01 2-.334 3.235l-.815 6.52c-.352 1.916-.578 5.677-.737 6.49-.406 2.057-.635 4.323-.84 6.435-.25 2.557-2.126 11.692 1.35 11.784 2.39.066 3.893-2.236 4.76-4.224.168-.388.347-.935.54-1.294l2.204-5.104c.58-1.23 2.437-6.78 2.748-8.124.224-.973.426-2.006.668-2.968.287-1.137.182-2.07.345-3.188M100.753 120.518c-.022.98-.296 1.242-.327 2.25-.027.9-.032 1.518-.204 2.368-.3 1.497-.334 5.552-.28 7.363.042 1.324-.018 1.044.47 2.046 1.44 2.943 4.564 2.383 5.87-.072l1.443-6.2c.1-2.273.267-.99.383-2.12.088-.85.01-1.352.21-2.207.608-2.64.94-15.5.63-17.1-.203-1.062-1.208-1.817-2.077-1.56-1.642.485-2.174 1.655-2.636 3.798l-2.084 5.45c-.52 1.338-1.363 4.52-1.397 5.983" fill="#fffcfd" fill-rule="evenodd"/><path d="M351.426 178.21l.098-.575c-.755-.766-1.94-.948-2.844-1.4-1.334-.662-2.94-1.328-4.347-1.97-4.41-2.005-9.796-4.698-13.6-7.7-.484-.385-.924-.508-1.406-.867-12.77-9.498-27.093-26.54-24.27-43.64.365-2.218 1.208-4.07 2.833-5.592.36-.334.677-.768 1.085-1.01 1.63-.964 2.697-1.558 4.647-1.83 7.987-1.114 11.955 3.09 13.85 3.116.127-1.712-1.527-3.096-2.964-4.423-.48-.442-.455-.182-.807-.47-.22-.18-.306-.382-.674-.593-3.546-2.036-8.328-2.757-12.237-1.742-2.3.6-4.796 1.856-6.583 3.27-1.766 1.397-4.26 4.903-4.643 7.59-.065.454-.21.528-.26.99-.042.42-.022.773-.085 1.22-.868 6.21 1.615 13.628 3.89 19.316 2.3 5.735 7.454 12.18 11.725 16.603.926.957 2.894 2.894 3.826 3.63 1.87 1.474 3.633 2.893 5.608 4.276l6.012 3.85c1.03.64 2.14 1.072 3.152 1.773 1.266.875 8.184 4.09 10.01 4.782 1.662.625 6.397 2.378 7.984 1.396M264.76 76.73c.453-1.35-1.264-1.968.516-4.85 2.15-3.486 10.662-3.018 14.398-2.776 14.93.966 34.09 9.213 45.915 18.725 1.115.896 2.435 1.92 3.62 2.723.867.585 3.24 2.98 3.8 1.064.187-.916-2.617-2.887-3.823-3.997-.733-.782-4.44-4.21-5.268-4.76-1.187-.788-2.035-1.87-3.285-2.626-.698-.42-1.47-1.16-2.25-1.68-.83-.557-1.714-.98-2.54-1.56-2.357-1.65-7.48-4.67-10.09-5.816-1.877-.82-3.657-1.75-5.57-2.47-10.486-3.94-22.212-6.797-33.4-4.47-2.42.504-10.23 2.33-10.583 5.265-.274 2.253 1.506 3.603 3.013 4.925.565.496 1.82 1.047 2.53 1.4.81.405 2.166 1.194 3.016.902" fill="#465c39" fill-rule="evenodd"/><path d="M235.11 93.477c.376.558.85 14.517.786 16.18l-.486 8.1c-.415 2.37-.2 5.92-.213 8.41-.007 1.227-.316 2.448-.45 3.68-.156 1.378-.232 2.682-.227 4.072.024 8.356 5.62 6.617 7.144 1.42 1.73-5.898 1.385-9.643 1.782-15.26.195-2.75.02-5.69.23-8.372.427-5.384-.24-11.42-.196-16.85.038-4.535.96-20.364-7.156-18.427-2.724.65-4.672 3.637-5.236 3.063-.373-.836.278-6.72.28-8.184.004-1.6.81-5.953.847-8.03l1.022-7.81c.93-4.177.715-12.595.64-17.14-.02-1.462.003-2.908.01-4.37.016-3.188 1.467-7.812.473-11.955-.38-1.585-1.8-5.3-3.936-4.752-2.603.67-2.74 3.788-2.943 5.976-.06.674-.268 1.053-.378 1.665-.13.733-.074 1.448-.128 2.18-.05.653-.237 1.29-.316 1.942-.374 3.105-.406 7.3-.77 10.402-.532 4.516-.508 3.467-.604 8.214-.058 2.843.094 6.008-.132 8.79-.112 1.36-.043 2.934-.056 4.327-.014 1.45-.19 2.785-.213 4.226-.038 2.192-1.892 14.114-2.21 15.593-.218 1.017-.655 2.6-.763 3.58-.13 1.178-.343 2.64-.64 3.788-.95 3.647-1.487 7.433-2.352 10.863-.317 1.252-.36 2.518-.756 3.776-.614 1.948-1.204 5.43-1.432 7.49-.126 1.125-.556 2.472-.756 3.577l-1.033 7.862c-.044.744-.176 1.293-.26 1.997-.223 1.847-.495 8.95-.492 10.688.004 2.4-.31 5.705 1.226 7.718 1.57 2.054 4.472 1.518 5.965-.31 2.13-2.617 2.606-7.96 2.743-8.298.25-.627.926-4.63 1.118-5.658l3.496-14.19c.57-2.396 1.186-4.768 1.74-7.164.403-1.74 2.35-13.062 4.633-12.81M194.272 104.728c-.343 2.16-.587 5.17-1.257 7.24-.354 1.093-.56 2.225-.922 3.314-1.082 3.255-2.098 5.947-3.627 9.36l-2.945 5.63c-1.066 1.964-1.75 3.51-3.395 5.2-1.668 1.714-3.813 2.99-5.403.458-.94-1.502-1.19-5.78-1.217-7.377-.03-1.928.038-6.254.6-8.005l.725-4.553c.054-.735.083-.26.285-.758.244-.607-.012-.946.354-1.764.56-1.264.63-3.79 1.265-5.082.242-.492.164-.47.22-.99.08-.76.092-.266.305-.733.376-.825.778-2.396 1.01-3.288l2.56-5.99c.256-.474.467-.93.714-1.41.262-.512.493-.864.773-1.45.915-1.92 1.457-4.02 3.105-5.507.81-.73 1.576-1.367 2.732-1.48 1.1-.105 2.486.32 2.935 1.42 1.243 3.06 1.324 3.916 1.355 7.307.02 2.392.182 6.22-.173 8.458m-1.152-22.562c-2.51.73-4.5 1.376-6.292 3.602-2.28 2.83-2.157 2.1-4.183 5.687-.9 1.592-4.68 7.958-5.273 9.545-1.154 3.083-2.466 5.504-3.412 8.85-.125.45-.056.76-.154 1.157-.09.354-.262.45-.357.91-.534 2.632-1.413 5.293-1.834 7.972-.426 2.696-1.114 5.962-1.197 8.658-.053 1.614-.36 2.926-.365 4.513-.002 1.658.24 3.02.3 4.67.048 1.332.752 2.52 1.205 3.675.632 1.614 1.09 1.676 2.11 2.788.685.75.187.628 1.26 1.096.69.3 1.017.6 1.83.66 2.99.22 4.033-.916 5.703-1.59l4.645-2.785c3.284-1.675 2.804 5.225 2.374 6.622l-.73 4.234c-.38 1.24-.826 2.52-1.115 3.783-.083.36-.056.693-.132 1.047l-.915 2.838c-.385 1.222-.733 2.654-1.03 3.91-.577 2.452-.936 5.15-2.904 6.95-2.09 1.91-5.124-1.976-6.575-2.393-2.64-.756-.286 6.182-.062 7.128.538 2.278 1.52 5.015 3.79 6.048 1.568.714 2.6.445 4.146.26 1.092-.133.944.138 1.85-.56.596-.463.85-.5 1.425-1.113.947-1.02 1.324-1.762 1.987-2.948 1.652-2.944 1.82-4.045 2.883-6.97l2.29-7.537c1.236-4.607 3.036-11.4 3.848-15.985.074-.42 0-.742.05-1.14.053-.456.217-.465.33-.862.118-.415.057-.762.144-1.17.142-.65.43-1.022.727-2.923.118-.756.384-1.49.454-2.087.16-1.397.513-2.735.79-4.112.163-.807 0-1.248.284-2.11.27-.813.237-1.427.334-2.25.145-1.237.708-2.894.8-4.084.112-1.442.385-2.83.64-4.27.15-.846.183-1.357.22-2.213.043-.92.256-1.327.366-2.12l1.184-13.648c.305-1.247.094-3.413.188-4.79.11-1.604.388-2.804.42-4.532.024-1.374.217-3.454-.286-4.696-1.163-2.874-2.932-2.034-5.678-4.24-.493-.398-1.652-2.11-2.268-2.656-.987-.87-2.565-1.186-3.818-.82M112.65 106.702c-.35 2.33-.07 5.037-.358 7.3-.307 2.406-.143 4.908-.392 7.215-.116 1.06-.323 1.92-.34 3.385-.03 2.638-.32 8.464-1.06 10.567-.64 1.824-1.225 3.617-2.875 4.73-1.61 1.088-8.303 1.93-9.84 1.36-1.458-.543-2.036-2.403-2.094-3.54-.168-3.212-.024-10.424.063-13.537l.446-5.206c.31-1.38.542-3.763.934-4.795l1.51-6.218c.048-.55.073-.274.55-1.336.283-.63.236-.852.565-1.376 1.483-2.36 3.608-7.127 7.352-7.87 2.807-.557 3.51.604 4.595 2.76.263.523.272.817.536 1.296.32.58.123 1.043.292 1.69.336 1.29.313 2.26.116 3.574m-2.344-16.008c-.925.182-1.683.256-2.622.296-2.67.117-8.682 2.07-10.55 5.02-3.037 4.794-1.845 3.182-3.752 8.47-.236.655-.202.505-.307 1.224-.09.606-.317.662-.386 1.148-.41 2.813-1.187 4.445-1.28 4.943-.546 3.004-2.857 10.094-3.04 12.388-.072.87-.337 1.688-.458 2.643-.578 4.604-1.05 9.63.123 14.326.79 3.154 1.823 5.76 3.92 8.35 1.173 1.446 1.935 1.783 3.41 2.79 1.704 1.167 3.466 1.24 4.625 1.575 1.706.495 3.824.238 5.52-.148 4.653-1.06 7.206-5.058 10.03-8.57 1.245-1.548 3.747-6.14 4.25-7.99.194-.71.644-1.587.79-2.296.11-.533.51-1.88.704-2.394.273-.728.652-4.66.816-5.416.87-3.974.332-19.848.204-23.876-.088-2.726-1.343-6.938-3.078-9.148-2.282-2.903-5.23-4.067-8.92-3.336M150.54 133.163c.58.877.35 1.305.736 2.152l.66 2.34c.162.65.65 1.363.886 1.832.146.29.34.655.42.942.594 2.168 2.042 3.256 2.844 4.533.77 1.222 1.585 1.77 2.704 2.29.226.107.177.154.473.344 2.414.16 3.275-.148 4.644-2.01 1.655-2.25 1.018-2.81 1.462-3.634.326-.61.225-.964.22-1.677-2.274.03-3.72 1.316-5.42-1.05-1.362-1.9-.932-3.705-1.14-5.883-.21-2.188-.238-4.42-.447-6.625-.29-3.037-.612-6.8-.632-9.865l.028-15.79c.004-1.204.08-.662.29-1.43.194-.712.12-6.056.044-7.042-.57-1.003-.16-1.28-.596-1.958-.415-.644-.854-2.217-2.8-2.233-2.2-.017-.998.284-2.14.382-.102.565-1.03 1.52-1.3 2.516-1.238 4.552-.593 7.485-1.102 10.44-.235 1.358-.318 4.982-.847 6.88-.343 1.23-.48 5.406-1.54 6.17.01.435.054.955-.08 1.365-.17.516-.285.184-.353.978-.074.86-.15.6-.314 1.173-.224.78.03.372-.51.993-.066 1.17-.126.673-.397 1.464-.37 1.076-.872 3.085-1.733 3.76-.06 1.125-1.38 2.902-1.74 3.907-.262.737-.522.923-.733 1.273-.19.316.023.195-.233.627-.648 1.1-2.094 3.41-3.367 3.464-.034-1.588.395-12.61.722-14.187.194-.935.097-1.555.138-2.47l.802-4.084c.086-.768.088-1.638.17-2.373.075-.682.328-1.247.362-1.993.13-2.878.18-9.996-.303-12.246-.15-.695-.187-5.156-.774-6.604-.63-1.55-1.076-3.372-3.19-4.284-1.103-.473-2.502.89-2.97 1.834-1.567 3.16-1.428 4.97-1.375 8.464.057 3.464.376 8.78-.33 12.047-.21.962.192 2.555-.36 4.584-.24.882-.003 3.904-.18 4.803-.117.592-.27.244-.328.84-.034.344-.01.895-.016 1.265-.03 1.713-.11 3.064-.363 4.743-.22 1.463.01 3.32-.128 4.837-.387 4.248-.36 5.234-.36 9.453 0 3.69.365 9.51 5.267 9.624 5.2.12 8.494-5.275 11.056-9.003l1.527-2.13c.108-.13.507-1.29 1.374-2.447.24-.32.41-.36.59-.645.35-.56-.026-.43.68-.655" fill="#fcb51b" fill-rule="evenodd"/><path d="M235.11 93.477c-2.285-.25-4.23 11.072-4.634 12.81-.554 2.397-1.17 4.77-1.74 7.166l-3.495 14.19c-.19 1.026-.866 5.03-1.12 5.657-.134.34-.61 5.68-2.74 8.297-1.494 1.83-4.4 2.365-5.966.31-1.536-2.012-1.224-5.316-1.226-7.717-.002-1.737.27-8.84.49-10.688.084-.704.218-1.253.263-1.997l1.034-7.864c.2-1.102.628-2.45.756-3.575.228-2.058.818-5.54 1.432-7.49.397-1.254.44-2.523.756-3.774.865-3.43 1.403-7.215 2.35-10.862.3-1.148.512-2.61.642-3.79.108-.978.545-2.56.763-3.58.318-1.478 2.172-13.4 2.21-15.592.025-1.44.2-2.777.213-4.225.013-1.392-.056-2.965.056-4.326.226-2.782.074-5.947.132-8.79.096-4.747.072-3.698.603-8.215.365-3.104.397-7.298.77-10.403.08-.65.266-1.29.315-1.943.056-.73 0-1.446.13-2.18.11-.61.316-.99.38-1.665.203-2.19.34-5.307 2.94-5.977 2.14-.55 3.558 3.167 3.94 4.752.992 4.143-.46 8.77-.474 11.955-.01 1.462-.034 2.908-.01 4.37.075 4.545.29 12.963-.64 17.14l-1.023 7.807c-.036 2.08-.843 6.434-.847 8.032-.004 1.463-.652 7.345-.28 8.183.565.574 2.513-2.412 5.236-3.062 8.115-1.936 7.194 13.893 7.156 18.428-.045 5.43.623 11.466.197 16.85-.21 2.682-.036 5.623-.23 8.373-.398 5.617-.052 9.362-1.783 15.26-1.524 5.197-7.12 6.936-7.144-1.42-.004-1.39.07-2.695.226-4.074.135-1.23.444-2.452.45-3.68.014-2.49-.2-6.038.214-8.41l.486-8.1c.063-1.662-.41-15.62-.787-16.18m-16.85-23.11l-1.615 9.815c-.424 1.22-.2 1.288-.43 2.37-.3 1.41-1.852 11.295-2.22 12.054-.32.664-1.75 10.364-1.98 12.166-1.228 9.516-3.13 18.43-3.13 28.126 0 4.32-.37 8.463 2.76 11.352.826.763.778.635 1.684 1.153 1.16.662 3.415 1.207 4.72 1.054 3.07-.358 5.412-1.62 6.98-4.317.783-1.345 1.35-2.23 1.93-3.695.342-.872 1.14-3.732 1.58-4.216.745.143 3.216 5.236 3.97 6.34 3.9 5.707 9.183 2.49 11.517-2.15 1.224-2.43 2.24-5 2.365-7.78.074-1.613.385-2.938.385-4.648 0-1.594.083-3.51-.027-5.067-.11-1.543-.365-3.085-.374-4.66-.01-1.692-.05-3.377-.05-5.074 0-3.836-.033-8.65.153-12.412l.143-4.925c-.004-.864.132-1.528.13-2.4-.018-4.903.973-14.423-1.944-18.303-2.95-7.532-9.14-1.128-9.58-3.648-.414-2.36 2.558-20.815 2.558-26.683 0-3.29.105-6.562.1-9.868l.456-7.193 1.105-6.498c.17-1.7.01-3.057-.346-4.682-.323-1.484-1.267-1.91-2.39-2.683-3.85-2.65-14.945-3.968-14.938 3.43.002 3.335-.426 7.42-.426 10.856-.002 1.756-.148 3.617-.27 5.365-.703 10.3-.882 20.155-1.85 30.752l-.97 6.07zM72.573 109.098c-.163 1.117-.058 2.05-.345 3.188-.242.962-.444 1.995-.668 2.968-.31 1.343-2.168 6.895-2.748 8.124l-2.204 5.104c-.193.36-.372.906-.54 1.294-.868 1.988-2.37 4.29-4.76 4.225-3.476-.09-1.6-9.226-1.35-11.783.205-2.112.434-4.378.84-6.436.16-.81.385-4.572.737-6.49l.814-6.518c.342-1.235.172-2.076.333-3.234.224-1.615.334-.222.392-3.27.032-1.63.64-8.01 3.728-6.75 2.596 1.062 3.457 4.54 4 7.016l.79 2.86c.17.852.48 2.078.736 2.905.387 1.26.443 5.438.243 6.798M63.47 77.556c-.973.282-1.1.24-1.724 1.107-1.094 1.522-1.672 5.048-1.708 6.893-.074 3.762-.318 7.375-.4 11.144-.02.916-.394 1.434-.41 2.385-.037 2.48-.41 3.76-.423 5.22-.045 4.325-.42 1.402-.433 5.36-.004 1.222-.358 1.435-.408 2.383-.127 2.363-.558 5.246-.867 7.678l-1.363 12.92c-.06.92-.283.185-.422 2.398l-.825 4.918c-.09 1.347-.19 4.077.47 5.236.822 1.44 3.258.59 4.375.004.29-.152.677-.44.86-.538.426-.22.438-.038 1.012-.435 1.815-1.256 4.31-3.94 5.62-5.784.224-.314.304-.655.486-.957l1.674-2.676c.64-.856 1.706-3.555 2.368-4.696.136-.233.423-.53.576-.8.33-.592.587-1.417.9-2.067l2.346-6.132c.172-.55.224-.538.31-1.164l1.01-3.288c.614-1.946.69-2.982.722-5.04.016-1.002.392-1.233.397-2.53.007-1.462.17-4.34-.03-5.65-.192-1.248-.246.58-.383-2.394-.03-.594-.05-.652-.27-1.183-.252-.618-.086-.752-.185-1.357-.083-.498-.302-.572-.374-1-.114-.686.138-.543-.264-1.238L72.31 85.88c-.67-1.923-3.092-5.606-4.75-6.745-1.122-.775-2.503-2.042-4.09-1.58M182.524 121.378c-.972-.84-.96-1.087-.952-2.412.013-1.928.757-3.784 1.23-5.537.195-.72 1.06-2.518 1.397-3.774.086-.327.326-.896.463-1.248.72-1.852 1.865-5.957 3.64-6.658 1.363-.047 1.744.53 1.783 1.85.05 1.87-.39 4.492-1.097 6.166l-2.395 6.63c-.39 1.043-1.347 4.27-2.36 4.803-.563.295-1.065.227-1.71.178m11.748-16.65c.354-2.238.193-6.065.17-8.457-.03-3.39-.11-4.247-1.354-7.307-.45-1.1-1.834-1.526-2.935-1.42-1.16.113-1.92.748-2.733 1.48-1.65 1.487-2.192 3.587-3.104 5.506-.28.587-.51.94-.774 1.447-.248.482-.457.94-.715 1.413l-2.558 5.99c-.234.892-.635 2.46-1.01 3.286-.217.466-.226-.025-.31.735-.052.52.026.5-.216.99-.634 1.293-.706 3.82-1.27 5.084-.362.816-.106 1.157-.353 1.762-.2.5-.23.024-.282.76l-.724 4.553c-.564 1.75-.632 6.076-.6 8 .024 1.602.275 5.88 1.217 7.38 1.587 2.534 3.735 1.256 5.402-.456 1.646-1.693 2.33-3.237 3.394-5.203l2.947-5.626c1.527-3.414 2.544-6.106 3.625-9.363.363-1.09.57-2.22.92-3.31.674-2.072.918-5.082 1.26-7.24M101.64 116.592c.115-1.013.174-1.192.51-2.057l2.082-5.45c.465-2.143.994-3.313 2.64-3.8.87-.255 1.87.5 2.077 1.563.308 1.6-.023 14.46-.633 17.1-.197.854-.12 1.356-.21 2.205-.115 1.13-.28-.152-.384 2.12l-1.442 6.2c-1.303 2.456-4.428 3.016-5.867.073-.49-1.002-.43-.722-.47-2.047-.057-1.812-.02-5.867.28-7.365.17-.85.176-1.468.203-2.367.032-1.008.305-1.27.327-2.25.056-2.424.26-1.043.413-2.094.235-1.646-.25-.984.473-1.832m11.01-9.89c.2-1.314.222-2.284-.114-3.573-.17-.65.027-1.11-.294-1.694-.262-.477-.27-.77-.536-1.295-1.085-2.154-1.786-3.315-4.593-2.76-3.746.745-5.87 5.513-7.353 7.872-.33.524-.282.746-.565 1.374-.48 1.065-.502.787-.553 1.338l-1.51 6.22c-.39 1.03-.622 3.41-.934 4.794l-.444 5.205c-.087 3.113-.23 10.325-.065 13.537.058 1.137.638 2.995 2.093 3.54 1.538.572 8.234-.27 9.84-1.36 1.653-1.113 2.236-2.908 2.88-4.73.737-2.103 1.026-7.93 1.058-10.568.018-1.466.225-2.325.34-3.385.25-2.307.086-4.808.39-7.218.288-2.263.01-4.967.36-7.298" fill="#ed2224" fill-rule="evenodd"/><path d="M183.053 226.556c-.984-.46-2.212-2.32-2.68-3.497-.6-1.512-.97-3.796-.808-5.28 2.563-.025 4.87.67 7.104 1.796l-.07 6.79c-.724.645-2.66.605-3.547.19m34.235-16.987c.332-.13.572-.073.895-.15.018-.005 1.773-.804 3.035-.85-.033 1.066-.3 1.03-.542 1.795-.133.414-.007.53-.227.94-.476.884-.124.584-.904 2.175-.076.155-.563 1.93-.883 2.38-.455.64-1.44 4.69-2.155 5.247-.48-.496-.228-.7-.3-1.352-.065-.59-.19-.26-.262-1.12-.068-.803-.06-2.1-.173-2.814-.072-.454-.13-.212-.213-.6l-.345-4.764 2.073-.887zm-22.132 17.724c.05.51.056.973.052 1.497-.004.923-.135.5.347.927.097.865.03 1.735.2 2.553.1.485.217.363.285 1.018.076.738.262 1.067.795 1.773.787 1.04 1.112 1.456 2.758 1.483 2.936.045 2.022-.258 3.667-.453.836-.098 4.102-1.504 5.21-1.7.634-.11.435-.22.878-.353.402-.12.902-.047 1.287-.18.52-.174 1.363-.647 1.926-.733 1.222-.188 2.567-.807 3.242-.876 1.45-.153.464-.307 2.264-.453.79-.063.298-.224.97-.372.396-.09.947-.01 1.364-.094.484-.1.51-.286 1.024-.353 8.324-1.085 8.225.024 15.522-.01.805-.003 1.804.1 2.515-.136.5-.165.517-.246 1.158-.3 1.05-.09.132.075.934-.41 1.33-.802 1.632-1.88 2.052-3.393.28-1.007-.036-3.278-1.42-3.897-2.024-.903-2.985-.208-4.93-.573-4.12-.778-1.04-4.53.436-6.542 1.504-2.05 2.957-4.346 4.36-6.496 1.424-2.184 3.053-4.32 4.44-6.553 1.644-2.65 3.632-4.968 4.518-6.448.702-1.173 1.753-2.572 1.372-4.047-.38-1.475-3.183-1.148-4.298-1.148-8.908 0-18.357.21-27.196-.134-1.972-.075-3.028-.275-4.73.743-2.74 1.643-1.623 5.272-3.326 7.675-.71.996-2.652 1.462-3.795 1.59-1.258.14-5.934 2.257-8.162 2.585-.53.078-.47.22-.88.338-.48.14-.79.008-1.254.185-.934.356-1.333.327-2.304.502-2.777.504-6.227-.744-8.574-2.183-.545-.334-1.298-.592-1.755-.946-1.27-.99-3.798-2.323-5.203-3.112-3.123-1.75-5.26-2.096-8.797-2.096-5.59-.002-7.577.28-6.01 7.014.1.433.287.637.38 1.01.127.5.035.645.262 1.192.563 1.365.848 2.826 1.263 4.234.244.825.242 1.46.462 2.244.148.53.582 1.68.623 2.116.253 2.66 1.058 4.517 1.246 5.535.09.49.002.762.184 1.267l.724 3.21c.05.298.666 1.69.83 3.37.25 2.57 1.385 6.38 2.07 8.948.102.383.075.748.167 1.132.09.38.24.648.324 1.083l1.31 7.027c.194 1.148.963 2.867 1.65 3.818 1.08 1.504 2.337 1.417 3.926.948 10.823-3.188 2.8-8.873 1.96-12.735-.738-3.385 3.366-3.876 5.554-5.257 3.408-2.15 3.44-2.93 5.58-4.727.473-.4-.045-.123.542-.306M261.882 213.118c-.504-.133-4.31 6.375-3.477 8.904-.074 2.288 2.562 2.42 4.497 2.26 3.044.304 7.055.618 7.877.33.932.053.2.54 1.113.606.95.072.657-.143 1.614-.094 2.202.114 5.127.296 7.33.11 1.496-.126 3.81-.395 4.867-1.48 2.507-2.566 2.186-8.37-2.555-8.514-.9-.01-2.263-.042-3.247-.112-1.827-1.224 1.715-6.707 2.57-8.455l3.538-5.226c.936-1.374 2.02-2.62 2.842-3.934.314-.504.704-.802.97-1.26l2.686-4.133c.24-.395.688-.783 1.013-1.233.91-1.265 2.617-2.796 1.893-4.553-.157-.38-1.015-.975-1.08-.99-1.02 0-1.287-.16-2.184-.292l-12.21-.334c-1.568-.004-3.175.206-4.794.226-1.64.02-3.293.03-4.934.013-4.192-.042-10.197-2.19-11.867 2.36-.467 1.276-.933 2.28-1.24 3.695-.146.675-.395 1.428-.433 2.1-.076 1.352-.775 3.666-.863 6.63-.045 1.486-.263 3.12 1.134 3.965 2.107 1.278 6.996-.995 7.78 2.248.467 1.93-2.683 6.452-2.842 7.162M314.902 208.764c.553-.36 1.275-.47 1.952-.61.38-.078.475-.278.812-.383.452-.14.504.003 1.062-.237.81-.345 3.157-.93 4.013-.852.032.87-.474 2.458-.947 3.207-1.052 1.66-1.186 1.327-1.84 2.188l-2.933-.01c-.43-.432-1.943-1.158-2.118-3.3m-.71-12.694c-.268-1.684.044-4.314.862-5.76 1.614-2.85 5.15-1.085 5.136 1.962-.018 3.098-5.315 3.905-6 3.8m-13.882-.817c.794.023.998.265 1.62.397.808.173.936.128 1.682.49 1.253-.026 2.724.02 3.946.185.57.076 1.253.208 1.836.224.724.02 1.423-.012 2.134.084-.236.744-2.397 1.796-3.208 2.09-.65.237-2.352 1.57-3.13 2.035-4.958 2.962-7.926 8.77-5.965 13.976.89 2.362 2.867 4.43 5.378 5.162 6.195 1.802 11.46-3.22 15.735-.78.137.08 1.124.426 1.767.91 2 1.5 4.85 1.518 5.8.193.544-.76.37-1.263.645-2.084 1.08-3.25.188-8.285.964-12.112l.548-7.41c.027-4.914.163-4.356-.42-8.763-.105-.793-.242-.546-.367-1.024-.098-.38 0-.773-.102-1.204-.094-.396-.28-.468-.357-.876-.25-1.347-.234-.865-.77-1.948-.23-.466.047-.386-.807-1.75-1.53-2.447-4.595-5.222-7.532-5.746-2.758-.49-1.41-.498-4.805-.47-3.903.035-8.214 2.066-10.993 4.866-.888.892-1.87 1.692-2.513 2.678-1.292 1.98-4.19 7.27-2.54 9.572.398.56 1.142.82 1.458 1.307" fill="#3c5d34" fill-rule="evenodd"/><path d="M199.407 188.958c-.538.112-1.103.246-1.65.302l-2.98 1.013c-.35.22-.83.543-1.138.83-2.828 2.62-3.35 5.972.07 8.314l1.95 1.002c2.218.818 4.653 1.2 7.16.87 1.58-.207 4.673-1.025 5.79-2.115 2.824-2.755 3.014-6.303.4-8.032-1.55-1.024-3.445-2.22-5.608-2.306-1.292-.052-2.793-.133-3.995.12" fill="#3c5d34" fill-rule="evenodd"/><path d="M110.306 90.693c3.69-.73 6.638.433 8.92 3.338 1.735 2.21 2.99 6.42 3.078 9.147.127 4.028.665 19.902-.204 23.88-.164.752-.543 4.684-.816 5.412-.193.515-.592 1.86-.704 2.396-.146.708-.597 1.582-.792 2.295-.502 1.848-3.003 6.444-4.248 7.99-2.824 3.51-5.377 7.51-10.03 8.568-1.696.386-3.814.643-5.52.15-1.16-.336-2.92-.41-4.625-1.576-1.475-1.008-2.237-1.345-3.41-2.79-2.098-2.587-3.13-5.197-3.92-8.35-1.175-4.697-.7-9.723-.123-14.327.12-.953.385-1.77.457-2.643.183-2.294 2.494-9.384 3.04-12.388.093-.495.87-2.127 1.28-4.94.068-.487.295-.545.384-1.15.106-.72.072-.568.307-1.222 1.91-5.288.716-3.68 3.754-8.472 1.867-2.95 7.88-4.902 10.55-5.02.94-.04 1.696-.113 2.622-.297m40.234 42.47c-.706.225-.327.095-.682.656-.18.28-.347.324-.59.644-.867 1.155-1.266 2.316-1.37 2.446l-1.53 2.132c-2.562 3.728-5.857 9.12-11.054 9.002-4.904-.114-5.27-5.933-5.27-9.623 0-4.218-.027-5.204.36-9.452.14-1.518-.09-3.374.13-4.838.252-1.677.333-3.028.364-4.74.004-.37-.02-.925.014-1.268.058-.594.21-.248.327-.838.176-.9-.057-3.92.18-4.806.552-2.03.15-3.623.36-4.584.705-3.267.387-8.584.333-12.047-.056-3.495-.195-5.302 1.372-8.463.47-.946 1.867-2.308 2.97-1.833 2.114.913 2.56 2.736 3.19 4.282.588 1.45.626 5.912.774 6.604.483 2.253.43 9.368.3 12.247-.032.746-.286 1.313-.362 1.995-.08.735-.083 1.605-.166 2.37l-.805 4.086c-.04.914.056 1.535-.136 2.468-.33 1.578-.757 12.598-.723 14.188 1.273-.054 2.72-2.363 3.367-3.462.255-.432.042-.31.233-.63.21-.347.47-.535.733-1.27.36-1.005 1.68-2.783 1.74-3.91.86-.673 1.365-2.683 1.732-3.757.27-.793.332-.295.397-1.465.54-.62.286-.21.51-.993.164-.572.24-.312.314-1.173.067-.794.182-.46.352-.978.134-.408.092-.928.083-1.363 1.06-.768 1.194-4.942 1.537-6.172.53-1.9.612-5.522.847-6.88.51-2.955-.137-5.887 1.1-10.442.272-.995 1.2-1.948 1.3-2.513 1.146-.098-.058-.4 2.142-.383 1.945.013 2.387 1.59 2.8 2.233.434.68.024.955.596 1.957.076.988.15 6.332-.045 7.043-.21.77-.285.224-.29 1.428l-.026 15.79c.02 3.066.344 6.83.633 9.867.21 2.204.235 4.44.446 6.626.208 2.177-.223 3.982 1.14 5.88 1.7 2.37 3.145 1.08 5.418 1.052.007.715.108 1.067-.22 1.68-.443.824.193 1.38-1.46 3.63-1.37 1.863-2.23 2.17-4.646 2.013-.296-.192-.244-.237-.473-.343-1.12-.522-1.935-1.07-2.704-2.293-.803-1.275-2.25-2.363-2.845-4.533-.077-.288-.272-.655-.418-.942-.235-.47-.722-1.184-.886-1.832l-.66-2.34c-.386-.847-.158-1.278-.736-2.152m42.578-50.998c1.256-.366 2.834-.05 3.82.82.617.545 1.773 2.258 2.27 2.657 2.745 2.205 4.514 1.365 5.675 4.24.504 1.24.31 3.32.287 4.695-.032 1.728-.31 2.928-.42 4.533-.094 1.377.115 3.543-.188 4.79l-1.183 13.646c-.113.794-.324 1.202-.367 2.12-.04.857-.074 1.368-.222 2.213-.252 1.436-.526 2.828-.638 4.27-.09 1.19-.654 2.847-.8 4.084-.096.823-.063 1.437-.334 2.25-.285.862-.12 1.303-.282 2.11-.278 1.377-.63 2.715-.792 4.112-.07.598-.336 1.33-.455 2.087-.3 1.9-.588 2.273-.727 2.923-.087.408-.027.755-.146 1.17-.112.397-.275.408-.332.86-.047.4.027.722-.047 1.142-.067.374-.248.578-.336.917-.17.665.043 1.19-.652 3.04-.345.923-.157 1.35-.413 2.154-.75 2.355-1.73 7.2-2.448 9.873l-2.29 7.537c-1.062 2.925-1.23 4.026-2.882 6.97-.666 1.185-1.04 1.927-1.99 2.947-.572.614-.828.65-1.424 1.112-.906.698-.758.427-1.852.56-1.542.185-2.576.454-4.142-.26-2.27-1.032-3.255-3.77-3.79-6.047-.225-.948-2.58-7.884.06-7.128 1.452.417 4.485 4.302 6.574 2.392 1.97-1.8 2.33-4.497 2.908-6.95.296-1.255.643-2.687 1.03-3.91l.913-2.837c.076-.354.05-.686.132-1.047.29-1.264.736-2.542 1.115-3.782l.728-4.233c.43-1.397.912-8.297-2.372-6.622l-4.644 2.786c-1.67.674-2.715 1.81-5.703 1.59-.815-.06-1.14-.36-1.83-.66-1.072-.47-.575-.348-1.26-1.097-1.018-1.112-1.478-1.174-2.11-2.788-.453-1.155-1.157-2.343-1.206-3.675-.058-1.65-.3-3.01-.298-4.67.004-1.586.312-2.898.36-4.512.086-2.696.774-5.962 1.2-8.66.422-2.678 1.3-5.34 1.834-7.97.094-.462.267-.557.356-.91.1-.397.03-.707.155-1.157.947-3.346 2.258-5.767 3.413-8.85.594-1.587 4.37-7.953 5.27-9.545 2.03-3.586 1.905-2.856 4.185-5.687 1.794-2.226 3.782-2.87 6.29-3.602M71.57 141.882c-2.07 3.55-8.346 10.186-11.704 11.892-2.41 1.224-3.963 2.253-6.676 2.92-1.3.32-2.63.79-3.992.8-3.627.03-8.69.382-11.496-2.653-2.365-2.56-1.62-4.17 1.28-5.495 2.334-1.065 3.83-1.924 5.423-4.006.852-1.118 1.067-1.965 1.6-3.176 1.03-2.324 1.552-9.988 1.63-12.492l1.323-12.892c.074-.71.282-1.372.33-2.05.053-.752.105-1.468.197-2.22.096-.78.195-1.348.244-2.155.05-.84.342-1.045.385-1.953.132-2.83.88-6.265.95-8.47.058-1.832.415-.687.426-4.222.008-1.394.366-2.802.41-4.398.026-.912.423-.97.425-1.923 0-.76-.018-1.52.038-2.28.08-1.062.518-2.96.758-4.027.19-.84-.125-1.332.24-2.206.36-.854.216-1.043.23-1.953.062-3.68.04-4.384-1.704-7.617-1.242-2.295-2.507-3.887-2.823-6.633-.29-2.506 1.397-5.102 3.96-5.49 4.382-.663 9.697 3.096 12.965 5.772 4.977 4.076 10.005 9.476 13.085 15.23 1.802 3.363 1.627 2.933 2.835 6.616.397 1.203.745 2.497 1.088 3.716.39 1.383.59.998 1.035 3.538.125.7.01 1.49.158 2.284.155.836.314 1.103.32 2.03.012 1.958.28 9.927-.11 11.454-.25.97-.252 1.06-.333 2.07-.186 2.3-2.087 8.714-2.94 11.223-2.034 5.963-4.33 10.594-7.57 15.99-.544.908-1.414 1.795-1.985 2.775M34.465 156.25c6.252 7.41 15.798 6.016 23.845 3.427 3.026-.976 9.17-4.883 11.316-6.74 1.527-1.328 3.753-3.588 4.42-4.606 2.02-2.4 1.655-2.263 4.146-4.87 5.86-6.133 8.034 8.63 16.63 11.73 5.33 1.924 10.39 2.4 15.758-.183 6.072-2.92 6.792-7.312 12.506-9.085 3.24-.807 5.272 3.85 8.67 5.79 3.518 2.183 6.488 1.03 9.925-.61 5.766-2.84 6.385-10.32 13.363-3.374.832.745 2.022 1.984 2.9 2.448 1.67.886 2.458 1.415 5.244 1.01 2.285-.328 4.567-1.104 6.76-1.69 5.747-1.167 14.783-2.032 12.934 4.86-.41 2.326-.997 7.652-3.353 8.06-1.13.195-1.724-3.334-3.674-2.816-6.517 1.73-6.275 6.237-5.407 12.17 2.015 10.397 4.145 16.423 16.956 12.892 12.973-3.564 23.31-74.504 23.388-92.763.044-10.35-2.415-8.824-6.434-12.938-2.58-2.638-4.188-4.63-8.29-4.573-2.672.035-5.3.804-7.69 1.896-1.732.787-2.47 1.118-4.1 2.273-8.168 5.774-14.225 30.387-17.596 30.457-.267-.388-1.018-3.66-1.03-3.856-.033-.598-.044-1.006-.13-1.58-.754-4.976.04-13.443-1.075-17.23-.208-.7-.03-1.055-1.083-2.2-2.596-2.832-6.498-3.634-10.01-1.986-2.33 1.09-3.018 3.423-5.036 5.113-.502.42-.81.305-1.453.25-1.5-1.313-1.304-4.473-2.528-6.354-1.977-3.036-9.09-3.925-12.594-.177-1.714 1.836-1.696 3.165-1.723 5.144-.058 4.4-3.093 3.518-5.606 1.294-1.26-1.114-3.39-3.504-4.705-4.16-3.13-1.56-12.728-.79-16.27.028-5.158 1.195-8.06 7.015-11.735 2.446-2.81-3.495-3.385-8.41-5.902-11.993-.655-.935-.973-1.735-1.794-2.573-.798-.82-1.277-1.628-1.992-2.522-.864-1.074-3.47-3.625-4.57-4.455-.468-.354-.65-.665-1.05-1.06-.386-.38-.82-.643-1.23-1.03-.55-.517-1.898-1.476-2.563-1.936-5.525-3.807-12.642-7.94-19.497-7.107-2.21.27-4.44 1.316-5.844 3.058-2.992 3.713-.212 10.138 1.317 13.985.81 2.042 1.876 4.67 2.026 6.85.186 2.697-.663 5.346-.863 8.005l-2.09 15.83c-.077.676-.048 1.32-.13 2.014-.08.666-.3 1.253-.34 1.9-.047.73.027 1.438-.114 2.17-1.18 6.1-1.784 16.358-2.033 22.516-.056 1.377-.368 2.68-.435 4.085-.045.887-1.533 5.555-1.948 6.453-1.446 3.13-5.113 3.123-7.59 5.17-3.13 2.59-2.998 8.287-.595 11.14" fill="#ee2a24" fill-rule="evenodd"/><path d="M199.407 188.958c1.202-.254 2.703-.173 3.995-.12 2.163.086 4.06 1.28 5.608 2.305 2.614 1.73 2.424 5.277-.4 8.032-1.117 1.09-4.21 1.908-5.79 2.116-2.507.33-4.942-.052-7.16-.87l-1.95-1.003c-3.42-2.342-2.898-5.694-.07-8.314.308-.287.788-.61 1.136-.83l2.98-1.013c.548-.056 1.113-.19 1.65-.302m-4.25 38.337c-.59.184-.07-.094-.542.303-2.14 1.8-2.174 2.58-5.58 4.73-2.187 1.38-6.292 1.87-5.556 5.254.842 3.865 8.863 9.55-1.957 12.737-1.59.465-2.844.553-3.927-.95-.686-.95-1.455-2.67-1.647-3.82l-1.314-7.027c-.08-.434-.23-.7-.323-1.08-.093-.383-.066-.75-.17-1.132-.683-2.568-1.817-6.377-2.068-8.95-.164-1.677-.78-3.07-.83-3.367l-.724-3.212c-.18-.502-.094-.773-.183-1.264-.19-1.02-.993-2.874-1.247-5.537-.04-.438-.475-1.586-.623-2.117-.22-.784-.217-1.42-.462-2.244-.414-1.406-.7-2.868-1.264-4.233-.228-.547-.136-.693-.26-1.193-.095-.374-.28-.578-.382-1.008-1.567-6.734.42-7.02 6.01-7.017 3.537 0 5.673.347 8.796 2.097 1.406.787 3.932 2.12 5.203 3.11.457.356 1.21.612 1.755.946 2.347 1.44 5.797 2.69 8.575 2.185.97-.177 1.37-.146 2.302-.504.463-.177.772-.043 1.254-.184.406-.117.348-.258.88-.336 2.227-.328 6.903-2.446 8.16-2.587 1.144-.126 3.088-.592 3.794-1.59 1.704-2.403.59-6.032 3.33-7.673 1.7-1.02 2.756-.818 4.73-.742 8.838.343 18.286.135 27.195.132 1.114 0 3.918-.325 4.297 1.15.38 1.473-.67 2.872-1.372 4.044-.885 1.48-2.874 3.798-4.52 6.448-1.387 2.234-3.014 4.37-4.437 6.552-1.403 2.15-2.855 4.445-4.36 6.5-1.475 2.012-4.557 5.762-.434 6.54 1.943.365 2.905-.33 4.927.574 1.385.616 1.7 2.89 1.42 3.896-.418 1.51-.723 2.59-2.05 3.39-.803.486.114.324-.935.412-.64.053-.66.134-1.157.3-.71.238-1.71.132-2.514.137-7.296.036-7.198-1.074-15.52.01-.517.068-.54.254-1.026.35-.417.086-.968.008-1.365.095-.67.15-.18.31-.968.372-1.8.146-.814.303-2.264.453-.675.072-2.022.69-3.242.876-.562.088-1.404.558-1.924.736-.386.13-.886.057-1.287.178-.445.132-.246.242-.88.352-1.107.195-4.373 1.603-5.21 1.7-1.645.196-.73.5-3.667.452-1.645-.025-1.97-.44-2.757-1.482-.534-.704-.72-1.033-.796-1.773-.067-.652-.184-.534-.285-1.016-.17-.82-.103-1.687-.2-2.554-.48-.426-.35-.004-.347-.924.004-.526-.002-.986-.05-1.497m87.317-20.624l-2.083 3.8c-.37.476-.625 1.25-.9 1.938-.42 1.047-.664 1.067-.36 2.41 2.688 1.29 4.278-.13 6.468 1.39 1.03.712 1.177 1.8 1.448 2.472.172.426.22 1.222.074 1.68-.496 1.535.04 1.12-1.148 2.768-.99 1.37-3.035 1.443-3.365 1.542-.4.12-.117.188-.617.303-1.123.26-6.214.062-7.698.042-1.345-.018-2.098-.376-3.517-.4-1.88-.037-1.92-.124-3.527-.342-2.177-.294-5.46.44-7.33-.437-2.514-1.18-1.366-3.636-.817-5.636.14-.522 2.065-4.88 2.78-5.08.16-.712 3.308-5.234 2.84-7.166-.785-3.24-5.672-.968-7.78-2.246-1.395-.845-1.178-2.482-1.135-3.966.09-2.963.787-5.28.865-6.63.038-.673.285-1.424.433-2.1.307-1.413.77-2.42 1.24-3.695 1.67-4.55 7.675-2.403 11.867-2.36 1.638.02 3.293.008 4.934-.012 1.616-.02 3.225-.23 4.79-.226l12.213.333c.897.132 1.163.293 2.183.29.063.015.924.61 1.08.992.725 1.755-.986 3.288-1.89 4.55-.326.453-.775.84-1.014 1.236l-2.687 4.134c-.267.455-.657.756-.97 1.258-.82 1.316-1.906 2.56-2.84 3.934l-3.538 5.225zm-94.873-20.046c-1.105 1.486-2.46 3.09-4.284 3.61-1.17.33-1.02.3-2.33.3-5.276-.002-10.674-.202-15.93.015-.937.037-4.2 1.057-5.152 1.497-.863.4-1.782 1.105-2.797 1.282l-.015 2.646c.545.648 1.137 5.66 1.204 6.725.13 2.055.667 4.04 1.005 6.06 2.253 13.538 4.66 28.627 7.858 41.772.13.53.15 1.282.27 1.704.185.66.326 1.038.357 1.766.408.924 3.91 2.18 5.304 2.038 2.583-.264 3.63-1.41 5.28-2.224.436-.215.882-.307 1.29-.565.267-.167.22-.238.45-.37l1.862-.945c.645-.208.708-.44 1.28-.715.188-.09 4.55-2.448 4.7-2.835l.025-7.322c.503-.466 1.11-.538 1.71-.892.67-.393 1.19-.67 1.99-.66.063.78-.177 2.692.193 3.19.343.35 2.94-.46 3.497-.543l11.275-2.188c1.345-.03.637-.344 1.673-.422 1.815-.14 1.748-.543 3.557-.88.722-.133 1.206-.236 1.908-.387.625-.133.93-.29 1.674-.416 1.715-.29 3.616-.838 5.192-1.55.064-.844.78-1.866 1.414-2.388.807-.668 1.46-1.264 2.618-1.247 4.55.064 13.152 2.2 19.07 2.698 2.19.642 1.643-.643 1.908-2.232.347-2.083 1.83-12.184 1.506-14.035-.34-.6-2.596-1.723-3.217-2.13-2.135-1.39-.942-2.24.436-3.875 1.38-1.636 2.86-3.97 3.874-5.842.296-.038.9-.184 1.1-.193 1.527.124 6.945.413 7.766 1.276-2.188 2.874-5.925 17.333-5.356 20.406 5.81 2.11 28.613 1.085 35.51.065 1.292-.19 3.038-.628 3.86-1.677.698-.89.382-5.487.382-6.817 0-2.354.115-5.008-.022-7.326-2.197-.293-3.15.314-5.205-.712-.444-3.836 5.8-10.014 8.47-12.8.772-.81 2.3-2.372 3.068-2.986l.123-1.115c.616-.305 1.663-.095 2.354-.128-.316-.49-1.06-.75-1.462-1.307-1.65-2.302 1.25-7.595 2.54-9.574.643-.987 1.627-1.785 2.515-2.68 2.778-2.8 7.088-4.83 10.993-4.864 3.394-.03 2.045-.02 4.804.47 2.937.523 6 3.3 7.535 5.747.854 1.36.573 1.283.804 1.75.535 1.08.522.598.773 1.945.076.41.262.482.354.877.103.43.007.825.105 1.206.124.477.26.228.366 1.022.585 4.41.446 3.85.42 8.765l-.546 7.41c-.778 3.825.117 8.86-.966 12.113-.27.818-.1 1.322-.646 2.084-.948 1.323-3.8 1.305-5.797-.195-.643-.482-1.632-.83-1.766-.908-4.277-2.444-9.54 2.58-15.734.777-2.51-.73-4.49-2.8-5.378-5.16-1.962-5.205 1.004-11.016 5.965-13.98.775-.463 2.48-1.795 3.13-2.032.81-.294 2.97-1.345 3.205-2.09-.71-.098-1.41-.065-2.132-.083-.585-.015-1.267-.15-1.838-.226-1.22-.164-2.69-.208-3.943-.186-1.305 1.394-1.39 1.542-2.34 2.946l-.236.33c-.12.212-.108.297-.222.49l-.973 1.556c-.203.282-.24.618-.95 1.726l-1.073 2.163c-.596 1.593-.924 1.274-1.71 4.224-.388 1.457-.583 3.195-.35 4.82.13.908 2.293 5.792 3.616 6.786 1.41 1.06 1.044.603 1.78.896 2.257.897 3.434.52 4.322.88 2.066.83 9.273-.407 12.327.806 2.77 1.1 4.608 3.394 5.93 3.02l5.294-1.334c.385-.1.867-.038 1.217-.112.417-.09.26-.267.865-.366 1.672-.273 1.244-.37 2.253-.464.118-.01 4.182-1.078 4.193-1.083.356-.372-.49-1.932-.77-2.45-.322-.6-.535-1.798-.822-2.284-1.456-2.467-.317-7.753-.308-10.07.002-1.06.21-.696.3-1.285.287-1.834-.022-4.163.512-5.87.19-.61.022-2.207.127-2.987.2-1.473.38-6.54.625-7.28l.087-3.166c-.047-.702-.242-.39-.265-1.25-.06-2.362-.4-2.11-.508-2.7-.217-1.177.173-.462-.696-2.46-2.374-5.458-4.8-6.83-9.765-9.27-.593-.29-.714-.023-2.38-.84-1.322-.652-4.2-.627-5.693-.63-2.525 0-7.95 1.17-9.9 2.75l-2.562 2.084-3.493 4.512-49.15.01c-.084.57-.023 1.17-.14 1.658-.092.386-.336 1.025-.385 1.363-.164 1.122-.312 2.178-.413 3.317-.567.175-8.854.242-9.89-.12-.603-.214-8.588-.104-10.197-.252-1.233-.11-3.05.152-4.188-.043-1.254-.217-2.664-.132-3.984-.13l-4.087-.15c-3.115 0-1.723-.206-4.128-.926-.368-.11-.455-.224-.76-.336-.347-.126-.513-.072-.852-.16-.26-.07-.48-.22-.8-.304-2.316-.594-4.956-.944-7.42-.937-.955 0-.823-.25-1.68-.26-2.797-.04-3.1-.29-5.785-.55-5.508-.532-6.87-.774-10.583 4.214" fill="#e7ae22" fill-rule="evenodd"/><path d="M346.86 102.295c-.3 1.327.52 1.44 1.287 2.46.505.672 1.338 1.384 1.9 2.037 1.205 1.4 2.467 2.79 3.725 4.167 1.26 1.378 2.445 2.848 3.553 4.343 1.035 1.397 2.46 2.794 3.59 4.157.337.408.492.802.792 1.192.318.41.56.605.895 1.083.46.648 1.215 1.578 1.755 2.177 1.302 1.443 2.282 2.952 3.362 4.534l3.304 4.59c1.206 1.488 2.04 3.102 3.077 4.684 1.05 1.6 2.138 3.204 3.003 4.896.22.433.567.776.773 1.186.247.49.274.872.588 1.408.988 1.672 1.81 3.46 2.665 5.236.22.462.546.767.734 1.195.182.416.323 1.02.51 1.5.235.6.414.635.618 1.315l1.444 4.357c.44.996.452 2.173.753 3.21l.604 3.31c.07 2.207.186 4.615-1.444 6.323-1.49 1.56-3.075 2.605-5.32 2.65-1.31.024-2.416.067-3.684-.316-.73-.22-2.865-.335-3.545-.073-.53 1.062.235 1.95.806 2.793.523.773.935 1.43 1.428 2.228 1.287 2.083 7.13 12.034 7.958 14.19.312.803.464.713.726 1.23.265.52.07.702.527 1.317.73.977 3.26 6.418 3.576 7.384.58 1.763 1.49 3.5 2.01 5.36.257.922.696 1.82.905 2.758.11.496.352 1.004.424 1.403.3 1.703.68 2.87.725 4.922.03 1.4.087 1.81-.73 2.945-.454.63-1.332 1.363-2.128 1.482-.68.102-2.912.17-3.49-.08-1.112-.48-1.5-.483-2.596-1.19-1.598-1.03-4.333-4.223-5.236-5.765-.97-1.66-.935-1.39-1.506-2.285-.316-.495-.886-1.862-1.197-2.5-1.616-3.303-3.293-6.787-4.39-10.264-.315-.993-.714-1.535-1.02-2.6-.274-.948-.28-2.16-.976-2.77-3.342-.272-2.213 5.43-1.937 7.287 1.612 7.61 15.696 44.25 16.902 47.035 2.15 4.972 10.076 21.482 7.96 26.192-3.614 6.624-9.904 2.74-13.493-7.427l-1.883-6.806c-.377-1.728-.977-4.04-1.852-5.54-.6-1.028-1.206-2.288-2.685-1.985-1.836.77-1.614 7.272-1.265 8.882.133.607.34 2.7.137 3.232-.507.82-2.913 1.385-3.816 1.004-2.706-1.143-3.18-4.32-3.4-6.985-.072-.86 0-1.68-.218-2.477-.256-.912-.193-1.338-.21-2.31-.037-2.536-.395-4.937-.465-7.47-.008-.388.023-.848-.077-1.197-.142-.488-.252-.293-.303-.912-.47-5.82-1.482-12.262-3.042-17.852l-2.257-6.9-3.272-7.133c-.21-.5-.19-.4-.453-.832-.332-.55-.632-1.23-.942-1.75-.717-1.208-1.923-2.842-2.94-3.813-.21-.197-.236-.28-.8-.222-.223 1.285.788 4.63 1.456 5.894l.39.992c.23.67.513 1.407.734 2.12.204.657.617 1.42.863 2.092l3.226 9.73c.505 1.66.91 4.02 1.377 5.818.273 2.24.654 5.472 1.082 7.664.285 1.464.415 6.454.415 8.135l.267 14.386c.045 1.513 1.027 3.908 1.863 5.235.607.97 1.504 1.498 2.387 2.016.47.273.536.226.946.45l2.338.635c.47.02.946.032 1.415.04.88.015 1.753-.017 2.575-.286.928-.302 1.13-.307 2.025-.795.68-.374 1.044-.923 1.867-.914.32.384.827 2.107.917 2.52.37 1.69 1.215 3.338 2.235 4.743.5.692.968 1.248 1.546 1.828.852.857.92.994 2.018 1.536.646.32 1.244.962 2.09 1.267 2.212.794 3.44 1.014 5.87.922 1.937-.074 3.786-.496 5.362-1.574 1.36-.93 2.484-2.19 3.213-3.72l.525-1.308c.222-.56.296-.663.37-1.322.112-.998.51-2.056.227-3.074-.12-.43-.126.018-.198-.594-.123-1.062-.282-2.632-.672-3.602-.296-.736-.23-.493-.37-1.334-.164-1.002-1.518-3.804-1.986-4.907-.186-.437-.25-.95-.46-1.4-.264-.568-.325-.434-.51-1.15l-2.808-7.488c-.262-.607-.06-.716-.394-1.304-.25-.435-.096-.244-.244-.614l-3.468-9.355c-.525-.692-.215-.354-.53-1.147l-1.416-3.8c-.195-.55-.4-.79-.525-1.143-.62-1.746-2.53-6.555-2.538-7.812 1.053.02 1.365.29 2.217.63 2.1.836 2.22.777 4.12 1.096 2.783.465 4.002-.138 6.114-1.508 1.105-.717 1.688-1.973 2.184-3.087 1.405-3.16 1.484-5.535 1.093-9.02-.194-1.76-.886-3.863-1.184-5.486-.072-.386-.254-.52-.352-.897-.144-.55.027-.47-.26-.996l-1.455-3.77c-.246-.7-.308-.442-.46-.765-.247-.522-.454-1.358-.736-1.98l-1.722-3.485c-.92-1.41-2.18-3.636-2.687-5.066-.337-.952-1.238-2.602-1.863-3.348l-.984-1.7c-.34-.57-.52-1.07-.926-1.604-.46-.608-.704-.904-1.072-1.608-.235-.45-.692-1.15-1.038-1.515l-1.16-1.462c-.416-.916-.747-.643-.69-1.847.88-.715 2.61-.3 3.767-.38 3.274-.23 6.226-2.153 6.798-5.54.303-1.787.303-6.324.11-8.176l-1.345-6.864c-.53-.885-.498-1.618-.874-2.37-.17-.337-.15.005-.37-.582-.2-.527-.308-1.114-.526-1.618l-1.912-4.147c-.33-.89-.917-1.85-1.363-2.712-.91-1.744-1.91-3.598-2.904-5.277l-.85-1.252c-.24-.343-.44-.905-.683-1.295l-6.58-9.913c-1.82-2.358-3.51-4.712-5.458-6.947-.37-.428-.42-.677-.92-1.193l-.927-1.047c-2.394-3.257-16.412-19.016-19.028-16.848" fill="#cc3946" fill-rule="evenodd"/><path d="M63.47 77.555c1.588-.462 2.97.805 4.092 1.58 1.657 1.14 4.078 4.822 4.748 6.748l3.797 10.395c.4.692.15.55.265 1.235.07.428.29.502.374 1 .1.607-.067.74.186 1.356.218.53.24.588.267 1.182.138 2.973.192 1.146.384 2.397.2 1.306.036 4.184.03 5.646-.007 1.3-.384 1.53-.397 2.53-.032 2.06-.11 3.094-.722 5.04l-1.01 3.288c-.086.626-.14.615-.313 1.164l-2.344 6.133c-.314.653-.57 1.476-.902 2.068-.15.273-.44.567-.573.8-.664 1.14-1.73 3.842-2.368 4.696l-1.676 2.675c-.18.304-.26.642-.486.958-1.31 1.845-3.804 4.528-5.62 5.78-.576.398-.587.217-1.013.44-.18.093-.566.382-.857.534-1.117.588-3.553 1.435-4.376-.004-.66-1.16-.558-3.887-.47-5.236l.824-4.916c.142-2.213.362-1.48.422-2.4l1.363-12.92c.31-2.432.742-5.315.868-7.678.052-.948.403-1.16.408-2.383.014-3.958.39-1.035.434-5.36.015-1.46.387-2.74.426-5.22.013-.95.39-1.47.41-2.383.08-3.77.323-7.382.4-11.144.035-1.847.613-5.373 1.707-6.895.623-.868.75-.825 1.724-1.107M53.026 59.183c-2.565.39-4.25 2.986-3.962 5.492.317 2.746 1.58 4.338 2.82 6.633 1.747 3.23 1.77 3.936 1.71 7.617-.017.91.126 1.1-.232 1.953-.365.874-.05 1.365-.24 2.206-.24 1.067-.678 2.963-.757 4.028-.056.758-.038 1.52-.038 2.277-.002.954-.4 1.01-.424 1.923-.043 1.596-.402 3-.41 4.398-.01 3.536-.366 2.39-.425 4.224-.07 2.204-.818 5.636-.952 8.467-.043.91-.332 1.115-.384 1.956-.05.807-.15 1.374-.245 2.156-.092.75-.144 1.466-.197 2.217-.05.68-.256 1.342-.332 2.05l-1.32 12.892c-.08 2.504-.6 10.17-1.63 12.493-.536 1.21-.75 2.058-1.603 3.175-1.59 2.082-3.087 2.94-5.42 4.005-2.903 1.325-3.645 2.937-1.283 5.497 2.807 3.035 7.87 2.683 11.498 2.654 1.363-.01 2.692-.484 3.992-.802 2.713-.666 4.266-1.697 6.676-2.92 3.358-1.705 9.635-8.34 11.704-11.89.572-.983 1.44-1.868 1.986-2.776 3.24-5.398 5.535-10.027 7.568-15.99.854-2.51 2.755-8.922 2.94-11.222.082-1.01.084-1.1.333-2.07.39-1.528.123-9.497.112-11.454-.008-.928-.167-1.195-.322-2.03-.148-.795-.033-1.586-.156-2.285-.444-2.54-.646-2.157-1.036-3.538-.343-1.222-.69-2.514-1.087-3.72-1.21-3.68-1.035-3.25-2.837-6.615-3.08-5.752-8.108-11.152-13.085-15.228-3.268-2.676-8.583-6.436-12.963-5.774" fill="#f8ba16" fill-rule="evenodd"/><path d="M271.67 104.21c.24-.54-.288-1.2-.662-1.688-.565-1.74-1.193-5.04-.592-6.67.48-.6.276.006.46-.712.09-.365.226-.728.378-1.078.63-1.437 3.085-2.966 4.394-4.2.233-.22.087-.052.41-.276.247-.17.594-.458.776-.642 1.712-1.723 1.793-4.234 1.77-6.49-.05-4.534-4.832-.51-7.554-2.52-2.782-2.055-9.892-3.89-11.57.093-2.756 6.552 1.572 17.272 6.652 21.733.883.776 4.167 3.24 5.54 2.45" fill="#141512" fill-rule="evenodd"/><path d="M349.595 170.718c-.262-1.065-2.127-1.645-3.004-2.248-1.1-.758-2.048-1.267-3.195-2.014-3.515-2.288-4.24-3.16-7.147-5.83-.453-.417-.9-.9-1.334-1.347-3.38-3.485-4.43-5.106-6.586-9.07-.55-1.015-1.354-2.52-1.627-3.592-.172-.675-.403-1.21-.627-1.883-.536-1.61-1.033-5.078-1.047-6.878-.063-8.413 4.654-11.054 11.84-7.756.297.138.662.35.92.503.267.157.49.352.742.53.14.098.294.207.457.266.04.014.162.057.2.06.928.09.27-1.704-1.527-3.135-5.904-4.687-13.28-2.764-15.59 4.295-.483 1.482-.45 5.85-.162 7.725.05.343.55 3.177.634 3.403.236.62.475 1.527.71 2.224.938 2.755 1.01 3.306 2.84 6.207 1.008 1.602 1.906 2.913 3.06 4.415l2.184 2.46c.5.542.98.98 1.496 1.468.544.51.898 1.01 1.544 1.55l5.492 4.112c1.72 1.336 7.63 5.27 9.73 4.533" fill="#f7e357" fill-rule="evenodd"/><path d="M280.777 82.856c-.53 1.005-.3 6.624-4.2 8.53-2.072 1.013-4.08 2.95-1.388 4.548 1.185.704 2.65.37 4.215.88 1.507.387 3.004 1.768 6.03 1.73 3.352-.04 7.02-2.083 6.972-5.797-.065-4.986-5.08-5.13-7.846-7.16-.673-.496-1.866-1.164-2.397-1.845-.103-.135-.25-.756-1.386-.886" fill="#181816" fill-rule="evenodd"/><path d="M182.524 121.378c.646.05 1.148.117 1.71-.18 1.014-.533 1.97-3.76 2.36-4.803l2.395-6.63c.706-1.673 1.147-4.294 1.096-6.166-.04-1.32-.42-1.897-1.783-1.85-1.775.7-2.92 4.806-3.64 6.658-.137.352-.377.92-.464 1.248-.337 1.256-1.203 3.053-1.398 3.773-.473 1.752-1.217 3.608-1.23 5.536-.01 1.325-.02 1.57.952 2.412" fill="snow" fill-rule="evenodd"/><path d="M215.215 210.456l.346 4.763c.083.387.142.147.213.602.11.713.106 2.01.173 2.813.072.86.197.53.262 1.12.072.65-.18.855.3 1.35.714-.555 1.7-4.606 2.155-5.242.32-.453.805-2.226.88-2.383.783-1.59.43-1.292.907-2.175.22-.408.094-.527.224-.94.244-.766.51-.728.545-1.795-1.264.045-3.02.843-3.037.848-.325.078-.562.022-.896.15l-2.072.888z" fill="#f4b11b" fill-rule="evenodd"/><path d="M314.192 196.07c.684.106 5.98-.7 5.996-3.8.018-3.045-3.52-4.81-5.133-1.96-.818 1.446-1.13 4.075-.863 5.76" fill="#e3ac24" fill-rule="evenodd"/><path d="M314.902 208.764c.175 2.143 1.688 2.87 2.118 3.302l2.934.01c.653-.862.787-.53 1.84-2.19.472-.748.978-2.337.947-3.205-.855-.077-3.203.508-4.012.853-.558.24-.61.097-1.062.238-.337.106-.43.306-.812.384-.677.14-1.4.25-1.952.61" fill="#daa627" fill-rule="evenodd"/><path d="M186.6 226.414l.07-6.89c-2.268-1.144-4.61-1.85-7.208-1.825-.166 1.505.206 3.825.818 5.36.475 1.19 1.72 3.08 2.72 3.547.9.42 2.864.46 3.6-.193" fill="#fbb516" fill-rule="evenodd"/></svg>