<svg xmlns="http://www.w3.org/2000/svg" width="400" height="96.337"><defs><clipPath id="a"><path d="M439.5 529.43h109.44V568H439.5v-38.57z"/></clipPath></defs><g clip-path="url(#a)" transform="matrix(4 0 0 -4 -1776.2 2240.1)"><path d="M506.908 538.973l.015-.683h-.06c-.027.167-.103.306-.217.41-.11.107-.236.158-.372.158-.1 0-.183-.027-.242-.085-.06-.052-.09-.115-.09-.19 0-.04.01-.08.032-.12.03-.044.077-.09.14-.138.047-.035.156-.092.33-.177.24-.12.4-.23.485-.333.08-.104.122-.226.122-.363 0-.17-.067-.32-.202-.44-.133-.124-.302-.185-.507-.185-.064 0-.126.004-.183.02-.056.013-.13.037-.216.075-.05.017-.09.03-.12.03-.027 0-.054-.013-.084-.03-.028-.022-.05-.053-.07-.094h-.057v.774h.056c.043-.216.13-.385.257-.5.125-.113.262-.168.408-.168.112 0 .202.028.27.09.065.06.1.133.1.213 0 .05-.012.1-.038.143-.026.044-.065.088-.115.13-.057.04-.148.092-.28.16-.187.092-.32.168-.402.233-.08.065-.147.137-.19.217-.043.08-.064.166-.064.264 0 .163.058.3.18.415.12.115.27.173.453.173.064 0 .13-.01.194-.026.046-.013.104-.033.172-.067.068-.03.114-.05.142-.05.027 0 .048.012.06.025.02.016.032.054.044.118h.046z" fill="#1c1c1a"/><path d="M508.06 537.194v.472c-.124-.074-.214-.146-.273-.23-.04-.056-.058-.107-.058-.167 0-.044.015-.084.048-.118.026-.03.06-.043.107-.043.05 0 .108.027.174.084m0-.112c-.172-.15-.327-.227-.466-.227-.08 0-.146.026-.2.08-.054.05-.08.117-.08.196 0 .11.045.21.14.293.093.086.294.2.605.344v.143c0 .105-.007.173-.018.203-.01.026-.033.053-.066.07-.03.022-.067.032-.108.032-.065 0-.12-.015-.164-.044-.023-.016-.04-.04-.04-.065 0-.017.017-.044.045-.077.038-.043.055-.083.055-.126 0-.047-.017-.088-.053-.126-.037-.034-.084-.05-.147-.05-.06 0-.116.018-.157.057-.043.038-.065.082-.065.135 0 .07.028.14.086.208.058.064.135.117.24.152.103.033.21.054.32.054.133 0 .24-.03.316-.088.08-.055.13-.118.153-.187.015-.04.022-.138.022-.29v-.548c0-.065.003-.105.008-.123.003-.016.01-.027.023-.038.01-.008.02-.013.034-.013.025 0 .052.02.08.054l.045-.03c-.05-.077-.103-.13-.156-.164-.057-.033-.115-.05-.184-.05-.08 0-.145.018-.19.056-.046.04-.073.096-.083.17" fill="#140c11"/><path d="M509.38 538.924v-1.756c0-.097.013-.162.035-.194.024-.022.07-.04.138-.044v-.054h-.765v.054c.063.002.108.022.138.052.02.027.032.09.032.186v1.464c0 .1-.013.16-.035.188-.024.03-.07.044-.135.05v.054h.593z" fill="#1c1c1a"/><path d="M511.054 538.29v-1.11c0-.107.008-.172.03-.203.018-.026.058-.04.12-.048v-.054h-.574v.188c-.068-.083-.133-.138-.203-.177-.067-.035-.143-.057-.227-.057-.08 0-.15.027-.212.076-.06.048-.102.105-.126.17-.02.066-.032.18-.032.345v.56c0 .108-.01.174-.028.2-.02.026-.06.045-.124.052v.057h.577v-.967c0-.1.004-.167.013-.197.01-.03.026-.053.046-.066.02-.016.044-.02.074-.02.034 0 .067.008.097.028.04.025.088.077.145.157v.755c0 .108-.01.174-.03.2-.02.026-.06.045-.123.052v.057h.577z" fill="#140c11"/><path d="M512.36 537.968c-.073.143-.166.212-.273.212-.037 0-.067-.01-.093-.03-.037-.03-.067-.084-.09-.164-.024-.08-.036-.2-.036-.36 0-.18.014-.313.04-.398.025-.085.06-.147.105-.183.025-.02.057-.032.097-.032.088 0 .173.07.25.21v.745zm.425.956v-1.627c0-.106.002-.173.01-.195.008-.03.02-.057.044-.072.023-.017.063-.027.12-.03v-.05l-.6-.12v.225c-.07-.086-.136-.144-.19-.175-.056-.03-.12-.05-.19-.05-.182 0-.323.082-.427.243-.086.134-.13.295-.13.483 0 .155.03.288.08.41.055.12.126.21.216.273.09.06.19.093.293.093.07 0 .128-.017.18-.043.052-.026.108-.07.168-.135v.425c0 .108-.003.174-.012.193-.013.03-.03.056-.055.07-.025.01-.07.018-.136.018v.064h.628z" fill="#1c1c1a"/><path d="M514.684 537.194v.472c-.12-.074-.21-.146-.27-.23-.04-.056-.06-.107-.06-.167 0-.044.016-.084.05-.118.027-.03.06-.043.106-.043.05 0 .108.027.174.084m0-.112c-.172-.15-.327-.227-.464-.227-.08 0-.147.026-.2.08-.055.05-.078.117-.078.196 0 .11.046.21.137.293.092.086.293.2.604.344v.143c0 .105-.006.173-.016.203-.013.026-.033.053-.066.07-.03.022-.07.032-.11.032-.065 0-.12-.015-.16-.044-.027-.016-.04-.04-.04-.065 0-.017.016-.044.043-.077.037-.043.058-.083.058-.126 0-.047-.02-.088-.055-.126-.037-.034-.087-.05-.144-.05-.064 0-.118.018-.16.057-.044.038-.065.082-.065.135 0 .07.027.14.085.208.058.064.14.117.242.152.1.033.208.054.32.054.133 0 .24-.03.318-.088.076-.055.127-.118.152-.187.014-.04.02-.138.02-.29v-.548c0-.065.003-.105.007-.123.006-.016.012-.027.023-.038.01-.008.022-.013.036-.013.024 0 .052.02.08.054l.044-.03c-.05-.077-.104-.13-.156-.164-.05-.033-.115-.05-.182-.05-.08 0-.144.018-.19.056-.044.04-.074.096-.084.17" fill="#140c11"/><path d="M516.007 538.924v-1.756c0-.097.01-.162.034-.194.024-.022.068-.04.138-.044v-.054h-.764v.054c.062.002.108.022.14.052.02.027.03.09.03.186v1.464c0 .1-.013.16-.036.188-.022.03-.068.044-.134.05v.054h.593z" fill="#1c1c1a"/><path d="M517.673 538.29v-.187c.08.085.152.143.217.177.065.032.137.052.216.052.09 0 .167-.023.23-.066.06-.04.108-.105.14-.192.08.092.16.156.233.195.072.04.15.062.232.062.095 0 .175-.023.23-.068.06-.045.1-.102.124-.17.022-.07.033-.18.033-.33v-.58c0-.11.01-.176.03-.207.02-.023.06-.04.122-.048v-.054h-.73v.053c.057.004.1.024.126.065.02.027.028.088.028.188v.608c0 .128-.005.207-.015.24-.01.035-.024.063-.047.075-.022.02-.05.026-.076.026-.044 0-.087-.012-.13-.044-.046-.03-.09-.08-.136-.143v-.76c0-.102.01-.166.026-.192.023-.037.067-.057.134-.06v-.054h-.733v.053c.042.002.072.01.095.03.022.014.037.038.045.062.006.024.01.08.01.16v.61c0 .126-.004.206-.015.237-.01.035-.027.058-.05.075-.024.02-.05.03-.076.03-.04 0-.077-.01-.11-.032-.048-.032-.1-.085-.153-.16v-.76c0-.1.01-.166.03-.2.02-.03.06-.05.124-.054v-.054h-.73v.053c.06.004.104.024.13.055.015.024.022.088.022.198v.797c0 .108-.01.174-.03.2-.02.026-.06.045-.122.052v.057h.575z" fill="#140c11"/><path d="M520.795 538.993l-.5-.522h-.13l.173.523h.457zm-.35-1.8v.474c-.12-.074-.21-.146-.27-.23-.04-.057-.06-.108-.06-.168 0-.043.018-.084.05-.118.024-.03.06-.042.108-.042s.108.027.173.084m0-.112c-.172-.15-.325-.227-.463-.227-.08 0-.15.027-.2.08-.055.05-.083.117-.083.197 0 .11.05.207.14.29.094.088.296.203.606.346v.143c0 .105-.004.174-.014.203-.014.027-.037.053-.067.07-.034.023-.07.033-.11.033-.066 0-.12-.015-.162-.045-.027-.015-.04-.04-.04-.064 0-.018.015-.045.044-.078.04-.042.056-.083.056-.125 0-.048-.017-.088-.055-.127-.037-.034-.086-.05-.144-.05-.064 0-.116.02-.16.058-.043.038-.064.08-.064.134 0 .07.028.14.087.208.057.065.137.117.238.152.103.034.21.055.323.055.132 0 .238-.03.317-.09.08-.053.13-.116.153-.185.014-.04.02-.14.02-.29v-.55c0-.063.003-.103.008-.12s.014-.027.023-.038c.008-.008.02-.012.035-.012.024 0 .052.02.08.054l.043-.03c-.05-.08-.1-.133-.156-.165-.053-.034-.115-.052-.183-.052-.083 0-.144.02-.192.057-.045.04-.07.097-.082.17" fill="#1c1c1a"/><path d="M522.11 538.326l.02-.482h-.05c-.062.144-.125.242-.193.295-.065.05-.13.08-.196.08-.04 0-.075-.017-.105-.043-.028-.03-.045-.06-.045-.096 0-.03.01-.054.03-.08.033-.04.125-.114.27-.21.15-.102.247-.19.294-.257.047-.07.072-.148.072-.236 0-.078-.02-.155-.06-.23-.04-.076-.094-.134-.17-.175-.07-.04-.147-.062-.234-.062-.066 0-.158.023-.27.066-.03.012-.05.016-.064.016-.032 0-.06-.025-.08-.077h-.053l-.022.51h.052c.044-.132.107-.233.186-.3.078-.068.155-.1.225-.1.048 0 .088.016.117.045.03.032.048.065.048.107 0 .048-.017.093-.045.127-.03.034-.1.088-.204.16-.153.106-.253.188-.296.246-.068.08-.102.172-.102.273 0 .11.037.208.113.295.074.087.184.134.327.134.076 0 .15-.02.22-.058.03-.015.052-.022.07-.022.015 0 .03 0 .042.012.012.008.028.028.052.062h.053z" fill="#140c11"/><path d="M524.157 537.57l-.307.704-.314-.704h.62zm.05-.112h-.725l-.085-.2c-.03-.066-.044-.12-.044-.164 0-.06.025-.1.07-.128.027-.015.094-.027.2-.037v-.055h-.682v.054c.075.01.137.04.184.09.046.052.107.155.175.31l.732 1.635h.03l.74-1.68c.07-.16.126-.257.172-.303.034-.03.082-.045.144-.053v-.055h-.99v.054h.04c.08 0 .136.01.167.03.023.016.035.043.035.072 0 .018-.005.038-.01.057-.002.007-.016.045-.045.112l-.107.256zM527.107 537.593l-.075-.717h-1.82v.054h.07c.057 0 .105.01.142.032.026.012.045.04.06.073.01.023.016.086.016.19v1.35c0 .104-.005.17-.017.195-.01.026-.033.048-.068.072-.033.016-.077.027-.134.027h-.07v.054h1.094v-.055h-.09c-.058 0-.104-.012-.142-.03-.026-.02-.046-.043-.062-.076-.012-.024-.017-.086-.017-.19v-1.31c0-.1.007-.17.017-.195.014-.03.038-.052.073-.066.027-.01.087-.013.182-.013h.17c.11 0 .2.02.273.056.073.037.136.1.187.182.055.085.105.204.15.365h.062zM528.888 538.924v-.552h-.054c-.034.125-.068.217-.11.274-.038.055-.09.102-.16.134-.037.017-.105.027-.2.027h-.152v-1.58c0-.105.004-.173.017-.197.01-.027.033-.053.066-.07.034-.02.08-.03.138-.03h.07v-.054h-1.073v.054h.066c.062 0 .108.01.144.032.025.012.05.04.063.074.012.022.016.086.016.19v1.58h-.148c-.138 0-.24-.028-.302-.088-.088-.08-.143-.2-.166-.346h-.06v.552h1.844zM530.158 538.857c-.186 0-.33-.096-.43-.287-.078-.157-.117-.386-.117-.68 0-.35.06-.606.184-.775.088-.114.207-.175.36-.175.105 0 .19.026.26.074.09.067.16.172.21.312.05.14.072.327.072.554 0 .27-.024.473-.074.607-.052.137-.116.23-.196.286-.076.055-.166.084-.268.084m-.018.095c.327.014.59-.08.797-.286.203-.203.304-.456.304-.76 0-.258-.075-.49-.228-.685-.2-.26-.483-.393-.853-.393s-.655.124-.856.375c-.16.196-.24.433-.24.704 0 .303.106.557.312.76.206.205.46.3.764.286M536.443 536.93v-.054h-1.07v.054h.068c.058 0 .107.01.142.032.027.012.046.04.06.073.014.023.02.087.02.19v1.35c0 .104-.006.17-.02.196-.01.026-.033.048-.066.072-.032.016-.08.027-.135.027h-.068v.054h1.07v-.055h-.068c-.06 0-.105-.012-.143-.03-.026-.02-.044-.043-.06-.075-.013-.024-.017-.087-.017-.19v-1.35c0-.103.005-.17.017-.195.01-.027.034-.053.067-.07.035-.02.082-.03.137-.03h.07zM538.718 538.924v-.055c-.074-.012-.14-.053-.2-.12-.04-.05-.104-.17-.188-.356l-.706-1.566h-.05l-.703 1.63c-.083.196-.14.313-.168.345-.03.037-.084.058-.163.066v.054h.98v-.055h-.032c-.088 0-.15-.012-.18-.033-.024-.017-.036-.04-.036-.066 0-.018.004-.04.012-.064.01-.025.035-.09.082-.2l.436-1.02.405.908c.05.11.077.183.088.22.012.04.018.07.018.097 0 .03-.01.058-.023.08-.017.023-.04.04-.073.055-.042.016-.1.024-.17.024v.054h.67zM539.594 538.806v-.836h.042c.13 0 .224.043.28.125.06.082.098.2.113.36h.056v-1.075h-.057c-.013.12-.038.213-.08.29-.033.074-.082.125-.133.15-.05.024-.126.038-.223.038v-.578c0-.112.005-.182.015-.207.008-.023.026-.044.05-.06.027-.015.07-.028.128-.028h.123c.19 0 .345.047.462.136.115.087.198.226.247.404h.056l-.09-.648h-1.775v.054h.07c.06 0 .108.01.145.03.026.014.045.043.06.075.01.023.014.086.014.19v1.35c0 .09 0 .15-.006.17-.01.034-.03.06-.057.084-.038.023-.09.038-.157.038h-.07v.055h1.718v-.605h-.056c-.032.148-.07.256-.124.32-.055.064-.127.11-.226.14-.056.02-.16.028-.315.028h-.213zM542.77 537.593l-.078-.717h-1.82v.054h.068c.06 0 .107.01.144.032.026.012.046.04.06.073.01.023.016.086.016.19v1.35c0 .104-.005.17-.017.195-.01.026-.032.048-.066.072-.032.016-.078.027-.137.027h-.067v.054h1.094v-.055h-.09c-.06 0-.11-.012-.146-.03-.024-.02-.045-.043-.058-.076-.012-.024-.016-.086-.016-.19v-1.31c0-.1.004-.17.016-.195.012-.03.035-.052.07-.066.026-.01.087-.013.186-.013h.167c.11 0 .202.02.275.056.07.037.133.1.186.182.053.085.103.204.152.365h.062zM543.4 537.326c.068 0 .125-.022.174-.07.046-.05.07-.11.07-.178-.002-.067-.025-.125-.07-.17-.05-.05-.106-.074-.174-.074-.067 0-.126.025-.174.073-.047.046-.072.104-.072.17 0 .07.025.127.072.174.046.052.105.076.174.076m.032.215h-.067c-.007.118-.03.256-.07.42l-.08.33c-.046.197-.067.337-.067.42 0 .08.02.143.066.19.047.046.106.072.18.072.075 0 .133-.026.18-.072.052-.048.075-.11.075-.182 0-.077-.026-.222-.076-.43l-.08-.33c-.032-.116-.052-.256-.063-.417" fill="#1c1c1a"/><path d="M525.178 535.544s1.255.184 3.496.433c2.24.248 3.874.23 4.147 1.154.276.925.817 2.208.874 2.368 0 0 .223-1.303.24-1.752 0 0 .662 2.206 2.22 2.653 0 0-1.796-.867-1.824-3.896 0 0-.556 1.01-.628 1.468 0 0-.32-1.513-1.534-1.692-1.21-.18-4.692-.52-6.99-.736" fill="#41a939"/><path d="M449.128 555.853l-.242-.1-.243-.19-.027-.22s.157-.095.203-.293c0 0 3.03-2.606 4.228-3.4.3-.197.6-.416.876-.655l1.853.63c-1.483 1.453-3.625 3.025-6.65 4.228" fill="#2a2776"/><path d="M448.914 555.11c.296-.252 3.07-2.63 4.193-3.37.303-.2.588-.41.84-.623l1.627.554c-1.764 1.692-3.93 3.06-6.446 4.065l-.186-.076-.198-.152-.014-.118c.06-.047.143-.142.184-.28m4.986-4.238l-.047.042c-.26.22-.55.438-.867.648-1.19.786-4.207 3.38-4.238 3.406l-.028.023-.006.036c-.034.15-.153.225-.153.225l-.06.04.042.333.304.232.282.114.04-.02c2.62-1.038 4.87-2.467 6.684-4.248l.125-.12-2.077-.71z" fill="#2a2776"/><path d="M458.73 547.55s-.74 1.903-2.953 4.075l-1.853-.63c.83-.71 1.472-1.587 1.472-2.557 0-1.296-1.52-2.028-2.11-2.615-.1-.1-.418-.314-.872-.6 2.648.304 4.975 1.342 6.055 1.887.09.144.18.29.26.44" fill="#fff"/><path d="M454.135 550.953c.91-.824 1.37-1.668 1.37-2.515 0-1.028-.876-1.695-1.58-2.23-.218-.165-.422-.32-.56-.46-.072-.072-.23-.187-.486-.354 2.385.353 4.446 1.262 5.512 1.8.084.13.154.248.22.362-.13.3-.917 2.02-2.865 3.944l-1.612-.547zm-1.708-5.837l-.07.2c.48.3.766.496.854.583.152.152.362.31.584.478.666.51 1.496 1.138 1.496 2.06 0 .825-.484 1.657-1.437 2.476l-.143.123 2.095.712.047-.047c2.205-2.165 2.972-4.097 2.98-4.117l.018-.047-.024-.046c-.076-.137-.164-.28-.27-.442l-.014-.024-.025-.012c-1.143-.58-3.45-1.597-6.09-1.9" fill="#2a2776"/><path d="M452.414 545.222c-2.163-1.36-7.51-4.385-8.36-5.178 0 0 10.92 1.7 14.414 7.066-1.08-.546-3.406-1.583-6.054-1.888" fill="#2a2776"/><path d="M452.45 545.118c-.732-.458-1.823-1.106-2.976-1.79-1.945-1.156-4.112-2.443-5.02-3.105 1.975.37 10.45 2.184 13.69 6.607-1.227-.588-3.326-1.436-5.694-1.712m-8.728-5.233l.257.24c.572.53 3.13 2.05 5.383 3.39 1.165.688 2.262 1.34 2.995 1.8l.018.015h.025c2.608.3 4.89 1.303 6.017 1.878l.36.182-.22-.337c-3.477-5.344-14.377-7.1-14.488-7.115l-.348-.053zM448.945 557.563s.23 1.56-.79 1.896c-1.02-.337-.792-1.897-.792-1.897-.84.972-2.854-.215-1.727-.432 1.126-.214 1.883-1.054 1.883-1.054s.498.187 1.27 0c0 0 .756.84 1.882 1.055 1.128.218-.887 1.405-1.727.433" fill="#2a2776"/><path d="M448.118 556.304c.202 0 .414-.024.625-.07.204.206.91.848 1.902 1.04.168.03.222.08.218.092-.01.127-.465.43-1.018.43-.232 0-.555-.056-.79-.327l-.323-.373.072.485c.003.016.192 1.397-.65 1.723-.842-.327-.65-1.707-.648-1.723l.072-.488-.324.375c-.233.27-.557.326-.788.326-.555 0-1.008-.303-1.02-.43 0-.01.05-.062.218-.093.986-.188 1.69-.825 1.898-1.033.107.025.297.064.556.064m-.64-.397l-.065.073c-.008.008-.74.806-1.803 1.01-.417.08-.46.288-.45.405.034.35.68.69 1.306.69.28 0 .527-.066.732-.195-.008.515.1 1.437.912 1.703l.045.017.046-.017c.812-.266.92-1.188.913-1.703.206.13.453.195.732.195.627 0 1.27-.34 1.305-.69.01-.117-.035-.325-.45-.405-1.063-.204-1.796-1.002-1.803-1.01l-.058-.063-.083.02c-.217.05-.432.077-.64.077-.342 0-.547-.07-.55-.072l-.09-.035z" fill="#2a2776"/><path d="M447.483 556.048s-.435-.173-.305-.345c.13-.17.33-.125.565-.027.234.097.796.105 1.053-.07.256-.175.642.238.036.44-.607.204-1.35 0-1.35 0" fill="#fff"/><path d="M448.196 555.782c.26 0 .488-.053.62-.146.112-.075.283-.006.302.104.016.103-.095.206-.297.273-.175.06-.38.09-.608.09-.39 0-.715-.088-.718-.09-.074-.03-.276-.13-.302-.225-.006-.023-.002-.044.014-.064.1-.13.232-.138.524-.015.107.044.282.072.466.072m.735-.253c-.054 0-.107.015-.155.047-.12.084-.333.132-.58.132-.173 0-.337-.027-.437-.068-.15-.065-.255-.09-.346-.09-.113 0-.198.042-.263.13-.03.036-.04.08-.028.123.043.15.316.263.347.277.02.005.343.092.742.092.236 0 .45-.03.632-.09.344-.115.356-.286.344-.355-.018-.112-.13-.2-.257-.2" fill="#2a2776"/><path d="M447.708 555.66s-.14-.112-.022-.223c.117-.113.193-.092.34-.028.15.063.405.02.573-.053.165-.074.322.188.196.25-.126.064-.55.263-1.088.053" fill="#fff"/><path d="M448.21 555.477c.128 0 .283-.033.403-.087.083-.036.172.042.19.116.005.024.006.054-.022.07-.336.168-.706.19-1.057.05.002 0-.046-.04-.05-.09 0-.025.013-.05.036-.073.103-.098.173-.074.302-.02.053.022.12.034.197.034m.448-.168c-.023 0-.05.005-.075.015-.174.076-.422.103-.54.053-.153-.065-.26-.086-.382.033-.04.037-.06.084-.058.13.006.083.08.145.085.148.39.156.772.13 1.125-.048.054-.03.076-.084.06-.15-.02-.088-.107-.18-.214-.18" fill="#2a2776"/><path d="M448.203 555.438s-.703-.105-.685-1.167c.02-1.06.72-13.074.72-13.074s.027-.317.2-.314c.17.004.286.224.286.84 0 .618.117 13.136.117 13.136s.042.612-.637.58" fill="#fff"/><path d="M448.25 555.332h-.043c-.013-.002-.598-.11-.58-1.058.018-1.05.712-12.95.72-13.07.008-.104.052-.215.085-.215v-.108l.002.106c.088.002.182.196.182.732 0 .61.116 13.014.117 13.138 0 .008.01.21-.118.347-.08.085-.203.127-.364.127m.182-14.56c-.195 0-.286.223-.3.413-.008.124-.704 12.034-.72 13.086-.02 1.142.767 1.274.775 1.275.028.003.047.003.064.003.225 0 .4-.066.524-.197.192-.204.176-.487.176-.5-.004-.12-.118-12.518-.118-13.13 0-.4-.04-.938-.394-.947h-.006z" fill="#2a2776"/><path d="M448.697 553.804s-.238.503-1.17.252c-.934-.252-1.095-1.242-1.078-1.51.017-.27.095-1.055 1.248-1.854l-.062 1.152s-.516.215-.483.818c.033.602.5.782.833.747.333-.038.71-.063.71.394" fill="#fff"/><path d="M448.006 554.054c-.14 0-.295-.024-.46-.068-.906-.243-1.04-1.21-1.025-1.437.042-.628.412-1.203 1.1-1.712l-.054.96c-.13.072-.515.328-.483.868.03.567.434.82.82.82.032 0 .063-.003.092-.005.08-.01.167-.018.25-.018.125 0 .215.023.274.066.068.05.103.134.106.258-.036.056-.192.268-.62.268m-.228-3.506l-.12.085c-.803.558-1.234 1.198-1.28 1.908-.017.25.13 1.317 1.128 1.585.18.048.348.072.5.072.577 0 .75-.345.756-.36l.008-.033c0-.18-.056-.31-.165-.393-.086-.062-.2-.09-.36-.09-.09 0-.18.01-.266.017-.307.034-.726-.13-.754-.68-.03-.544.432-.745.438-.747l.04-.017.074-1.345z" fill="#2a2776"/><path d="M448.24 553.804c0-.024-.09-.044-.198-.044-.11 0-.2.02-.2.044 0 .025.09.044.2.044.108 0 .198-.02.198-.044" fill="#2a2776"/><path d="M448.94 549.955s.02-.295-.243-.61c-.26-.317-1.124-1.017-1.124-1.017s-.27-.182-.305-.55c-.037-.368.425-.818.644-.898l-.024.413s-.11.353.152.57c.264.214 1.385.994 1.495 1.803.108.81-.686 1.572-.726 1.607l-.018-1.752s.072-.045.148.435" fill="#fff"/><path d="M448.87 549.966l.142-.007c0-.012.017-.33-.26-.66-.26-.32-1.1-1.002-1.133-1.028-.017-.01-.25-.17-.28-.5-.03-.28.282-.626.492-.77l-.014.28c-.017.062-.1.41.177.636.03.023.07.054.116.094.38.29 1.26.974 1.35 1.665.082.598-.36 1.177-.58 1.42l-.01-1.134v.004zm-.88-3.193l-.103.037c-.226.087-.73.552-.69.978.04.397.323.593.336.6.002.003.857.695 1.11 1 .028.037.056.073.077.107l.017 1.932.118-.1c.01-.007.866-.8.75-1.67-.1-.75-1.015-1.458-1.402-1.76-.05-.034-.088-.065-.115-.09-.224-.182-.132-.488-.13-.49l.003-.02.03-.524z" fill="#2a2776"/><path d="M448.84 545.602c-.024-.19-.315-.63-.797-.99-.486-.36-.518-.76-.445-1.083.07-.326.528-.39.528-.39l-.03.497c-.164.227.424.694.808 1.102.386.408.55.9.48 1.21-.072.314-.617.88-.617.88l-.012-1.408.084.18z" fill="#fff"/><path d="M448.83 545.617l.08-.024c-.03-.23-.347-.683-.826-1.04-.37-.274-.506-.603-.417-1.01.043-.192.26-.28.382-.313l-.024.382c-.133.228.2.555.556.905.092.09.185.182.27.27.343.367.533.837.462 1.148-.044.188-.297.51-.476.713l-.01-1.03zm-.627-2.562l-.087.012c-.02.004-.507.076-.59.447-.102.465.052.844.472 1.156.34.253.58.544.694.75l-.008.004.013 1.586.124-.13c.024-.025.558-.586.633-.912.085-.362-.116-.874-.496-1.28-.086-.088-.18-.182-.276-.275-.274-.272-.617-.607-.524-.734l.01-.02.037-.605zM462.272 550.083v-2.848h.243c.397 0 .694.04.89.122.2.08.353.23.466.44.113.213.17.49.17.836 0 .492-.1.86-.31 1.096-.206.238-.54.353-1 .353h-.458zm0-3.192v-1.822c0-.35.017-.573.057-.664.038-.093.104-.166.203-.22.096-.052.278-.08.544-.08v-.18h-2.974v.18c.268 0 .45.028.545.083.096.058.163.13.203.22.038.088.06.31.06.66v4.226c0 .352-.022.574-.06.663-.04.093-.106.164-.205.22-.096.053-.277.08-.542.08v.18h2.698c.705 0 1.22-.055 1.544-.165.327-.108.594-.306.798-.6.206-.294.308-.637.308-1.03 0-.48-.154-.878-.462-1.19-.197-.2-.473-.35-.828-.447l1.397-2.204c.183-.287.314-.466.39-.533.12-.1.256-.154.41-.162v-.18h-1.83l-1.875 2.966h-.38zM469.72 550.217c-.532 0-.935-.303-1.215-.91-.224-.5-.335-1.217-.335-2.152 0-1.11.172-1.932.522-2.46.242-.372.582-.56 1.02-.56.293 0 .54.083.736.242.25.205.447.53.586.98.142.45.212 1.037.212 1.76 0 .862-.073 1.507-.213 1.932-.143.427-.326.728-.548.903-.22.177-.476.264-.764.264m-.05.31c.923.038 1.675-.264 2.254-.91.58-.642.87-1.448.87-2.414 0-.825-.217-1.552-.65-2.18-.57-.83-1.376-1.247-2.422-1.247-1.044 0-1.853.398-2.425 1.19-.452.627-.676 1.37-.676 2.234 0 .964.293 1.77.882 2.417.588.646 1.31.948 2.167.91M479.162 550.585v-2.296h-.157c-.193.626-.48 1.103-.863 1.43-.382.326-.802.49-1.256.49-.434 0-.795-.14-1.084-.414-.29-.272-.494-.653-.614-1.142-.12-.49-.178-.994-.178-1.508 0-.623.063-1.17.195-1.64.13-.47.344-.82.637-1.038.293-.22.64-.333 1.044-.333.14 0 .283.018.43.052.147.034.3.085.452.145v1.354c0 .258-.016.42-.046.496-.03.076-.098.145-.196.205-.097.062-.217.092-.357.092h-.15v.176h2.825v-.177c-.215-.017-.364-.05-.45-.098-.085-.052-.15-.132-.194-.246-.025-.065-.038-.212-.038-.45v-1.354c-.37-.185-.757-.323-1.16-.418-.4-.095-.817-.14-1.25-.14-.55 0-1.007.08-1.373.25-.366.168-.687.39-.964.663-.28.273-.497.58-.654.925-.2.44-.3.935-.3 1.482 0 .978.306 1.807.922 2.482.613.674 1.387 1.013 2.318 1.013.287 0 .55-.028.78-.08.125-.023.33-.098.61-.218.283-.12.448-.18.5-.18.08 0 .154.034.224.1.067.066.13.19.19.373h.156zM480.14 550.435h3v-.178h-.15c-.226 0-.38-.027-.466-.08-.083-.05-.144-.126-.18-.217-.034-.092-.054-.326-.054-.695v-3.19c0-.583.04-.968.118-1.156.08-.19.208-.347.388-.47.18-.125.408-.19.682-.19.315 0 .582.083.804.238.22.16.387.377.496.657.11.278.165.762.165 1.455v2.655c0 .292-.026.5-.08.624-.055.122-.123.208-.207.256-.128.073-.31.11-.542.11v.18h2.007v-.18h-.117c-.162 0-.3-.037-.41-.11-.106-.07-.183-.182-.235-.33-.034-.103-.055-.287-.055-.55v-2.472c0-.768-.044-1.318-.134-1.657-.09-.343-.31-.653-.658-.936-.35-.285-.827-.427-1.428-.427-.502 0-.89.074-1.165.224-.376.208-.64.47-.794.788-.155.32-.23.75-.23 1.29v3.19c0 .373-.022.607-.057.7-.042.09-.102.16-.194.216-.09.056-.26.08-.507.077v.178zM488.664 550.06v-2.65h.115c.368 0 .635.13.802.39.166.26.27.64.317 1.15h.16v-3.41h-.16c-.034.37-.11.674-.22.91-.108.236-.238.4-.382.48-.146.08-.357.12-.634.12v-1.834c0-.357.014-.576.04-.657.028-.082.078-.146.15-.197.077-.053.198-.078.362-.078h.347c.545 0 .98.14 1.306.423.324.28.56.71.704 1.286h.16l-.262-2.07h-5.023v.18h.19c.168 0 .305.032.408.1.073.045.13.12.172.23.032.08.047.278.047.605v4.282c0 .294-.008.473-.02.542-.03.113-.084.198-.16.26-.107.087-.26.133-.447.133h-.19v.178h4.862v-1.925h-.162c-.082.47-.2.81-.35 1.01-.15.207-.363.358-.636.452-.16.06-.46.088-.9.088h-.6zM494.46 550.083v-2.848h.24c.4 0 .696.04.894.122.2.08.352.23.467.44.112.213.167.49.167.836 0 .492-.1.86-.307 1.096-.207.238-.543.353-1.003.353h-.456zm0-3.192v-1.822c0-.35.02-.573.057-.664.04-.093.105-.166.205-.22.098-.052.277-.08.544-.08v-.18h-2.978v.18c.268 0 .45.028.548.083.097.058.164.13.203.22.036.088.056.31.056.66v4.226c0 .352-.02.574-.057.663-.04.093-.107.164-.206.22-.097.053-.28.08-.546.08v.18h2.7c.708 0 1.22-.055 1.546-.165.326-.108.59-.306.795-.6.204-.294.31-.637.31-1.03 0-.48-.154-.878-.462-1.19-.198-.2-.473-.35-.83-.447l1.398-2.204c.183-.287.313-.466.39-.533.12-.1.25-.154.41-.162v-.18h-1.832l-1.875 2.966h-.38zM501.456 552.657l-1.418-1.665h-.367l.498 1.665h1.288zm.223-8.552v-.18h-3.037v.18h.193c.167 0 .302.03.407.1.072.044.128.12.17.228.03.08.046.28.046.605v4.283c0 .333-.016.544-.048.625-.03.085-.094.156-.19.218-.096.063-.224.094-.386.094h-.193v.178h3.036v-.177h-.193c-.17 0-.304-.033-.407-.1-.073-.046-.133-.123-.175-.232-.03-.077-.048-.277-.048-.604v-4.283c0-.332.017-.54.05-.624.034-.084.098-.157.192-.22.096-.063.224-.092.387-.092h.192zM505.386 546.136l-.863 2.24-.89-2.24h1.753zm.147-.357h-2.05l-.248-.636c-.077-.21-.117-.385-.117-.522 0-.183.063-.317.196-.404.075-.05.27-.09.57-.114v-.18h-1.93v.18c.205.035.376.13.51.29.134.158.3.485.498.98l2.08 5.193h.08l2.098-5.336c.2-.506.362-.82.492-.953.096-.1.235-.158.41-.173v-.18h-2.81v.18h.116c.225 0 .382.035.474.103.062.053.097.125.097.223 0 .057-.01.116-.03.177-.006.03-.047.147-.128.36l-.31.812zM525.448 552.886l-1.295-1.697h-.335l.453 1.696h1.178zm-3.784-2.263h2.737v-.178h-.136c-.207 0-.348-.03-.424-.082-.076-.056-.13-.127-.165-.224-.034-.095-.05-.328-.05-.71v-3.245c0-.592.037-.985.11-1.178.072-.19.192-.353.353-.478.164-.13.37-.192.622-.192.284 0 .53.08.732.245.202.16.353.378.454.664.1.282.15.78.15 1.48v2.703c0 .297-.026.51-.074.636-.05.125-.11.215-.188.265-.114.074-.282.115-.496.115v.178h1.83v-.178h-.107c-.147 0-.27-.04-.368-.114-.102-.073-.172-.186-.217-.336-.034-.105-.048-.293-.048-.564v-2.516c0-.778-.044-1.342-.124-1.684-.083-.347-.283-.663-.602-.957-.315-.29-.748-.433-1.302-.433-.457 0-.81.077-1.06.23-.345.208-.584.476-.726.802-.14.323-.208.762-.208 1.313v3.245c0 .383-.02.62-.055.712-.035.094-.093.165-.174.223-.084.054-.237.08-.462.08v.178zM531.175 552.566h.21v-.163c0-.36-.08-.648-.24-.867-.163-.22-.357-.326-.586-.326-.17 0-.385.076-.64.228-.258.154-.43.23-.515.23-.077 0-.143-.033-.195-.098-.053-.064-.09-.182-.11-.353h-.227c-.012.426.065.757.234 1 .164.24.37.36.61.36.08 0 .144-.01.197-.03.07-.025.198-.09.376-.194.267-.153.457-.23.574-.23.056 0 .11.03.162.086.053.06.103.178.15.356m-1.923-1.943l2.614-4.108v2.846c0 .4-.047.67-.134.808-.126.19-.338.282-.63.276v.18h1.75v-.18c-.222-.038-.376-.082-.45-.14-.077-.06-.138-.15-.18-.28-.045-.13-.064-.35-.064-.663v-5.517h-.133l-3.587 5.518v-4.208c0-.384.068-.64.21-.775.137-.13.297-.2.476-.2h.127v-.182h-1.88v.18c.292.005.494.08.61.226.114.148.17.397.17.752v4.674l-.112.177c-.11.175-.21.29-.298.348-.086.053-.21.088-.37.094v.18h1.88zM535.223 550.242v-2.697h.106c.336 0 .577.13.73.394.15.263.248.653.29 1.168h.147v-3.47h-.146c-.033.377-.1.688-.2.93-.1.24-.216.403-.35.484-.13.084-.323.124-.577.124v-1.867c0-.366.014-.587.038-.67.024-.08.07-.145.14-.198.07-.053.178-.08.325-.08h.318c.496 0 .894.144 1.193.43.295.288.512.725.642 1.31h.146l-.237-2.106h-4.585v.18h.177c.15 0 .275.032.37.106.066.043.116.122.156.23.026.082.043.285.043.614v4.364c0 .3-.008.482-.02.552-.024.114-.074.2-.146.264-.098.09-.233.14-.405.14h-.178v.177h4.438v-1.96h-.15c-.073.48-.182.822-.32 1.032-.136.208-.33.36-.58.46-.145.056-.418.087-.817.087h-.55zM543.268 550.623l-3.115-6.256h1.007c.48 0 .81.038 1.004.112.308.117.58.333.8.646.225.317.377.74.466 1.266h.153l-.216-2.396h-4.855l3.12 6.267h-.787c-.306 0-.506-.012-.603-.036-.18-.042-.35-.125-.514-.25-.158-.128-.29-.294-.398-.5-.105-.21-.185-.474-.248-.794h-.146l.146 1.94h4.186z" fill="#2a2776"/><path d="M508.496 541.158c5.412.95 5.835 7.247 5.835 7.247.32-2.03 2.783-6.505 2.783-6.505.125 13.427 8.088 17.263 8.088 17.263-6.905-1.983-9.847-11.76-9.847-11.76-.073 1.992-1.055 7.763-1.055 7.763-.254-.703-2.653-6.394-3.868-10.487-1.215-4.092-18.51-3.062-18.51-3.062l-14.012.233s27.45-1.243 30.588-.692" fill="#41a939"/></g></svg>