<svg xmlns="http://www.w3.org/2000/svg" xmlns:xlink="http://www.w3.org/1999/xlink" width="289.41" height="231.553"><defs><radialGradient id="a" gradientTransform="translate(3.9 -4.3)" gradientUnits="userSpaceOnUse" r="1" cy="0" cx="0" fy="0" fx="0"><stop offset="0" stop-color="#d2deea"/><stop offset="1" stop-color="#00446a"/></radialGradient><radialGradient id="b" gradientTransform="matrix(5.8 0 0 -5.8 468.3 3980.5)" gradientUnits="userSpaceOnUse" r="1" cy="0" cx="0" fy="0" fx="0"><stop offset="0" stop-color="#d6e0eb"/><stop offset="1" stop-color="#00658a"/></radialGradient><radialGradient id="c" gradientTransform="translate(3.8 -3.9)" gradientUnits="userSpaceOnUse" r="1" cy="0" cx="0" fy="0" fx="0"><stop offset="0" stop-color="#d6e0eb"/><stop offset="1" stop-color="#186b90"/></radialGradient><radialGradient id="d" gradientTransform="matrix(10.8 0 0 -10.8 484.5 3993.4)" gradientUnits="userSpaceOnUse" r="1" cy="0" cx="0" fy="0" fx="0"><stop offset="0" stop-color="#e7f4ee"/><stop offset=".657" stop-color="#3dbb97"/><stop offset=".657" stop-color="#3dbb97"/><stop offset="1" stop-color="#00b085"/></radialGradient><radialGradient id="e" gradientTransform="translate(2.5 -2.7)" gradientUnits="userSpaceOnUse" r="1" cy="0" cx="0" fy="0" fx="0"><stop offset="0" stop-color="#e7f4ee"/><stop offset="1" stop-color="#00b085"/></radialGradient><clipPath id="k"><path clip-rule="evenodd" d="M493.718 5345.222c1.572-4.72 9.824-6.22 18.433-3.352 6.332 2.11 11.09 5.993 12.54 9.778 0 .468-.053.933-.168 1.39l-.032.12c-.21-3.924-5.437-8.188-12.577-9.98-7.942-1.992-15.243-.173-16.307 4.067-1.064 4.24 4.512 9.29 12.455 11.284 1.286.323 2.555.544 3.784.673-2.056-.042-4.242-.33-6.47-.888-.68-.17-1.348-.363-1.997-.574-6.84-3.162-11.035-8.388-9.66-12.518"/></clipPath><clipPath id="l"><path d="M3.492-14.043H5.05v.972H3.49v-.973z"/></clipPath><clipPath id="m"><path d="M-.046-.737H1.51v.973H-.045v-.973z"/></clipPath><radialGradient xlink:href="#f" id="n" gradientUnits="userSpaceOnUse" gradientTransform="translate(3.5 -13.3)" cx="0" cy="0" fx="0" fy="0" r="1"/><radialGradient id="f" gradientTransform="translate(3.5 -13.3)" gradientUnits="userSpaceOnUse" r="1" cy="0" cx="0" fy="0" fx="0"><stop offset="0" stop-color="#d2deea"/><stop offset="1" stop-color="#00446a"/></radialGradient><clipPath id="o"><path clip-rule="evenodd" d="M493.522 5346.353s-.925 4.073 5.713 8.988c0 0 3.354 2.254 4.926 2.646 0 0 3.993 1.193 7.564 1.193 0 0-6.523-.34-11.005-3.35-3.246-2.18-6.622-5.026-7.198-9.477"/></clipPath><clipPath id="p"><path d="M7.384-29.587h1.94v1.3h-1.94v-1.3z"/></clipPath><clipPath id="q"><path d="M-.102-1.284h1.94v1.3h-1.94v-1.3z"/></clipPath><radialGradient xlink:href="#g" id="r" gradientUnits="userSpaceOnUse" gradientTransform="translate(7.5 -28.3)" cx="0" cy="0" fx="0" fy="0" r="1"/><radialGradient id="g" gradientTransform="translate(7.5 -28.3)" gradientUnits="userSpaceOnUse" r="1" cy="0" cx="0" fy="0" fx="0"><stop offset="0" stop-color="#d6e0eb"/><stop offset="1" stop-color="#00658a"/></radialGradient><clipPath id="s"><path clip-rule="evenodd" d="M524.666 5352.225s.24-1.685-.78-2.865c-.866-.998-2.997-3.32-8.303-6.03 0 0-4.715-2.32-10.06-2.79 0 0-8.648-1.03-11.454 3.863 0 0 3.078-4.79 13.103-3.078 0 0 6.8.786 11.28 4.008 0 0 5.915 3.433 6.213 6.892"/></clipPath><clipPath id="t"><path d="M3.313-12.702h1.375v.567H3.313v-.567z"/></clipPath><clipPath id="u"><path d="M-.14-.513h1.374v.567H-.14v-.567z"/></clipPath><radialGradient xlink:href="#h" id="v" gradientUnits="userSpaceOnUse" gradientTransform="translate(3.5 -12.2)" cx="0" cy="0" fx="0" fy="0" r="1"/><radialGradient id="h" gradientTransform="translate(3.5 -12.2)" gradientUnits="userSpaceOnUse" r="1" cy="0" cx="0" fy="0" fx="0"><stop offset="0" stop-color="#d2deea"/><stop offset="1" stop-color="#186b90"/></radialGradient><clipPath id="w"><path clip-rule="evenodd" d="M519.95 5369c-2.634 4.044-11.788 2.753-20.444-2.885-7.75-5.05-12.47-11.867-11.485-16.142.652 3.77 4.645 8.89 10.564 13.043 7.947 5.574 16.354 7.29 18.78 3.836 2.424-3.457-2.053-10.778-10-16.353-.198-.14-.397-.277-.596-.41.76.426 1.522.884 2.28 1.377 8.655 5.638 13.536 13.488 10.903 17.533"/></clipPath><clipPath id="x"><path d="M487.035 5373.044h35.55v-23.072h-35.55v23.072z"/></clipPath><clipPath id="y"><path d="M-1.796-.28H.21v1.302h-2.006v-1.3z"/></clipPath><radialGradient xlink:href="#i" id="z" gradientUnits="userSpaceOnUse" gradientTransform="matrix(17.7 0 0 -17.7 518.9 5368.1)" cx="0" cy="0" fx="0" fy="0" r="1"/><radialGradient id="i" gradientTransform="matrix(17.7 0 0 -17.7 518.9 5368.1)" gradientUnits="userSpaceOnUse" r="1" cy="0" cx="0" fy="0" fx="0"><stop offset="0" stop-color="#e7f4ee"/><stop offset=".657" stop-color="#3dbb97"/><stop offset=".657" stop-color="#3dbb97"/><stop offset="1" stop-color="#00b085"/></radialGradient><clipPath id="A"><path clip-rule="evenodd" d="M517.958 5365.266s-.408 3.982-6.485 3.318c0 0-8.37-.51-18.498-10.38 0 0 11.352 12.984 22.838 10.483 0 0 2.706-.92 2.145-3.42"/></clipPath><clipPath id="B"><path d="M492.975 5371.188h25.544v-12.985h-25.545v12.985z"/></clipPath><clipPath id="C"><path d="M-.55-.028h.615v.312H-.55v-.312z"/></clipPath><radialGradient xlink:href="#j" id="D" gradientUnits="userSpaceOnUse" gradientTransform="matrix(41.5 0 0 -41.5 515.8 5370)" cx="0" cy="0" fx="0" fy="0" r="1"/><radialGradient id="j" gradientTransform="matrix(41.5 0 0 -41.5 515.8 5370)" gradientUnits="userSpaceOnUse" r="1" cy="0" cx="0" fy="0" fx="0"><stop offset="0" stop-color="#e7f4ee"/><stop offset="1" stop-color="#00b085"/></radialGradient></defs><path d="M27.273 209.133H26.12c-3.578 0-6.85-.33-9.63-.82-2.78-.65-5.053-1.47-6.85-2.777-3.11-1.962-5.396-4.407-7.19-7.348C.82 195.242 0 191.818 0 188.23s.82-6.87 2.45-9.97c1.63-2.933 4.08-5.538 7.19-7.5 1.797-1.152 4.07-1.976 6.85-2.636 2.78-.652 6.052-.816 9.63-.816h1.153v9.485H24.99c-3.597 0-6.538.496-8.66 1.63-2.295.98-3.765 2.782-4.726 4.912h15.667v9.47H11.437c.656 2.287 2.122 4.07 4.563 5.214 2.285 1.147 5.395 1.64 9.31 1.64H27.274v9.473zM37.445 209.133v-41.825h7.68c4.085 0 7.345.164 9.635.66 2.45.493 4.394 1.312 6.366 2.45 3.264 2.13 5.718 4.58 7.517 7.68 1.794 3.107 2.61 6.544 2.61 10.132 0 3.43-.816 6.68-2.45 9.79-1.63 2.95-3.757 5.39-6.698 7.516-1.626.98-3.43 1.958-5.555 2.454-2.122.652-4.403.97-7.02 1.143v-9.967c3.277-.16 5.88-1.147 8.008-3.273 1.962-1.944 2.94-4.562 2.94-7.663 0-3.27-.978-5.887-3.268-8.01-2.122-1.962-4.9-3.104-8.332-3.104 0 0-.16 0-.487.175h-.487v31.845H37.445zM81.423 167.308h10.454v41.825H81.423v-41.825zM121.482 177.116v32.017h-10.445v-32.017h-8.988v-9.808h28.593v9.808h-9.16zM140.81 209.133v-24.66c0-5.56 1.47-9.807 4.416-13.067 2.778-3.283 6.693-4.9 11.593-4.9 4.734 0 8.645 1.617 11.59 4.9 2.947 3.26 4.417 7.677 4.417 13.068v24.66h-10.454v-15.358h-9.306v-9.967h9.306v-.475c0-1.976-.487-3.597-1.466-4.75-.992-1.14-2.45-1.793-4.088-1.793-1.795 0-3.275.652-4.245 1.794-.824 1.307-1.302 2.937-1.302 5.39v25.157H140.81zM183 209.133v-27.437c0-4.58 1.3-8.168 4.07-10.936 2.786-2.792 6.37-4.253 10.954-4.253 4.084 0 7.513 1.147 10.454 3.588 2.77 2.454 4.24 5.23 4.24 8.655 0 2.122-.652 3.925-1.8 5.56-1.297 1.63-2.945 2.772-5.058 3.597 2.618.16 4.576.974 5.72 2.435 1.137 1.317 1.788 3.434 1.788 6.225v12.566h-10.445v-9.967c0-2.29-.49-3.76-1.47-4.562-.824-.828-2.614-1.31-5.4-1.31h-.97v-9.317h1.625c1.65 0 2.942-.324 3.757-.98.815-.654 1.32-1.792 1.32-3.104 0-.98-.332-1.953-1.156-2.777-.643-.647-1.622-1.138-2.77-1.138-1.316 0-2.454.49-3.27 1.634-.823.974-1.15 2.45-1.15 4.253v27.268H183zM242.968 177.116v32.017h-10.44v-32.017h-8.993v-9.808h28.426v9.808h-8.992zM289.405 209.133h-1.138c-3.756 0-6.86-.33-9.64-.82-2.763-.65-5.057-1.47-6.85-2.777-3.107-1.962-5.556-4.407-7.186-7.348-1.638-2.946-2.458-6.37-2.458-9.958s.82-6.87 2.46-9.97c1.63-2.933 4.078-5.538 7.184-7.5 1.794-1.152 4.088-1.976 6.852-2.636 2.778-.652 5.883-.816 9.64-.816h1.137v9.485H287.125c-3.59 0-6.525.496-8.652 1.63-2.29.98-3.765 2.782-4.74 4.912h15.672v9.47H273.57c.646 2.287 2.117 4.07 4.412 5.214 2.445 1.147 5.377 1.64 9.306 1.64h2.117v9.473zM9.894 219.19H9.024c-2.08 0-3.806.37-5.003 1.057-1.215.706-1.74 1.59-1.74 2.828 0 1.23.525 2.122 1.74 2.818 1.198.71 2.924 1.066 5.004 1.066H9.894v1.237h-.688c-1.224 0-2.076 0-3.114-.178-.874 0-1.562-.184-2.072-.534-1.393-.528-2.262-1.057-2.945-1.767-.697-.89-1.04-1.767-1.04-2.646 0-.88.343-1.767 1.04-2.46.683-.882 1.552-1.424 2.945-1.943.51-.177 1.198-.356 2.072-.527 1.038-.18 1.89-.18 3.114-.18h.688v1.226zM26.45 219.19c0-.174.176-.345.354-.518.173-.178.515-.178.86-.178.174 0 .515 0 .688.178.346.172.346.346.346.52 0 .178 0 .368-.346.54-.173.165-.514.165-.687.165-.346 0-.688 0-.86-.164-.18-.175-.356-.364-.356-.542m.176 1.94h1.908v7.067h-1.908v-7.066zM42.585 217.966v6.165c0 .703 0 1.067-.173 1.417 0 .346-.173.706-.35.883-.51.702-1.202 1.057-1.9 1.408-.86.36-1.907.54-2.93.54-1.576 0-2.778-.36-3.807-1.064-1.043-.71-1.567-1.594-1.567-2.65 0-.36.182-.883.35-1.24.347-.527.693-.882 1.043-1.228.516-.36 1.03-.705 1.718-.888.687-.178 1.38-.178 2.09-.178h1.557c.51.178 1.03.36 1.375.36v1.407c-.346-.178-.865-.357-1.21-.514-.525 0-1.04-.186-1.376-.186-1.056 0-1.917.346-2.6.7-.687.53-1.038 1.058-1.038 1.937 0 .714.35 1.242 1.038 1.598.683.528 1.375.7 2.427.7 1.025 0 1.895-.174 2.587-.7.515-.354.865-1.052.865-1.767v-6.697h1.903zM54.697 228.197v-3.533c0-.71-.183-1.24-.875-1.766-.678-.357-1.552-.702-2.422-.702-1.024 0-1.898.346-2.586.702-.515.527-.874 1.056-.874 1.766 0 .715.36 1.41.874 1.766.688.53 1.562.702 2.586.702.52 0 .87 0 1.403-.17.505 0 .856-.18 1.375-.358v1.234c-.52.182-1.034.36-1.375.36-.533.182-1.048.182-1.567.182-.523 0-1.033 0-1.548-.182-.528-.178-1.047-.178-1.39-.36-.7-.35-1.383-.88-1.733-1.408-.342-.537-.692-1.05-.692-1.766 0-1.052.52-1.944 1.548-2.632 1.053-.54 2.268-.9 3.816-.9 1.034 0 2.072.177 2.942.536.86.167 1.552.715 1.894 1.23.182.353.35.714.523.883 0 .35.182.884.182 1.6v2.817h-2.08zM60.58 228.197v-4.066c0-.878.34-1.747 1.042-2.293.85-.53 1.885-.706 3.1-.706.693 0 1.385 0 1.908.18.52.18 1.038.527 1.38.887.52-.36 1.038-.706 1.557-.888.524-.18 1.043-.18 1.73-.18 1.384 0 2.418.18 3.12.707.87.705 1.215 1.415 1.215 2.294v4.067h-1.917v-4.243c0-.53-.164-.88-.692-1.234-.34-.335-1.03-.335-1.726-.335-.687 0-1.206 0-1.548.335-.524.357-.702.705-.702 1.234v4.243h-1.9v-4.243c0-.53-.18-.88-.69-1.234-.52-.335-1.043-.335-1.735-.335-.692 0-1.216 0-1.72.335-.357.357-.53.705-.53 1.234v4.243H60.58zM80.813 224.664c0 .715.346 1.23 1.043 1.766.52.53 1.375.702 2.418.702v1.248c-.865 0-1.562-.183-2.08-.36-.684-.183-1.208-.343-1.722-.707-.524-.353-1.038-.71-1.21-1.238-.352-.353-.525-.88-.525-1.41 0-.534.173-.885.524-1.413.174-.354.688-.71 1.212-1.056.514-.36 1.038-.706 1.72-.888.52-.18 1.217-.18 2.082-.18v1.067c-1.043 0-1.9.346-2.418.7-.697.53-1.043 1.057-1.043 1.767m3.46 2.468c.86 0 1.735-.17 2.427-.7.52-.538.86-1.053.86-1.768 0-.71-.34-1.238-.86-1.766-.692-.354-1.566-.7-2.426-.7v-1.067c.687 0 1.38 0 2.08.178.52.182 1.207.528 1.717.888.525.346.875.7 1.212 1.056.182.528.346.88.346 1.412 0 .532-.164 1.056-.346 1.41-.337.53-.687.884-1.21 1.24-.51.364-1.198.523-1.718.705-.7.177-1.393.36-2.08.36v-1.248zM92.57 226.96h4.676c.52 0 .87 0 1.033-.18.345 0 .527-.178.527-.35 0-.178-.182-.353-.346-.537-.18-.175-.527-.175-1.214-.346l-1.74-.537c-1.202-.346-1.894-.52-2.24-.88-.52-.348-.697-.705-.697-1.233 0-.514.36-.865 1.042-1.23.52-.36 1.384-.536 2.6-.536h3.966v1.253h-4.49c-.346 0-.692 0-.856.16-.186.18-.355.18-.355.357 0 .18.17.354.355.528.164 0 .51.186.856.354l1.904.523c1.215.186 2.076.53 2.422.893.514.35.692.696.692 1.056 0 .706-.346 1.234-1.038 1.585-.86.18-1.903.36-3.456.36H92.57v-1.24zM111.775 226.96h4.666c.525 0 .87 0 1.035-.18.346 0 .524-.178.524-.35 0-.178-.18-.353-.343-.537-.182-.175-.523-.175-1.215-.346l-1.717-.537c-1.225-.346-1.917-.52-2.263-.88-.514-.348-.687-.705-.687-1.233 0-.514.34-.865 1.033-1.23.52-.36 1.38-.536 2.61-.536h3.965v1.253h-4.503c-.346 0-.692 0-.86.16-.16.18-.347.18-.347.357 0 .18.187.354.346.528.168 0 .514.186.86.354l1.908.523c1.21.186 2.08.53 2.44.893.5.35.674.696.674 1.056 0 .706-.346 1.234-1.034 1.585-.87.18-1.903.36-3.45.36h-3.643v-1.24zM132.52 221.13v3.88c0 1.065-.502 1.95-1.194 2.477-.865.533-2.086.892-3.46.892-1.39 0-2.428-.36-3.288-.893-.87-.528-1.216-1.412-1.216-2.477v-3.88h1.908v4.067c0 .697.346 1.056.85 1.407.357.357 1.053.528 1.914.528.692 0 1.38-.17 1.898-.528.342-.35.706-.71.706-1.407v-4.066h1.88zM144.288 228.197v-4.066c0-.878.524-1.747 1.216-2.293.692-.53 1.72-.706 3.123-.706.68 0 1.207 0 1.726.18.68.18 1.207.527 1.553.887.346-.36.87-.706 1.384-.888.7-.18 1.197-.18 1.903-.18 1.216 0 2.24.18 3.105.707.688.705 1.038 1.415 1.038 2.294v4.067h-1.903v-4.243c0-.53-.173-.88-.505-1.234-.52-.335-1.038-.335-1.735-.335-.706 0-1.202 0-1.73.335-.34.357-.688.705-.688 1.234v4.243h-1.907v-4.243c0-.53-.178-.88-.515-1.234-.52-.335-1.047-.335-1.726-.335-.705 0-1.22 0-1.743.335-.346.357-.688.705-.688 1.234v4.243h-1.908zM173.52 225.197c-.165.878-.86 1.762-1.726 2.29-1.034.533-2.254.892-3.625.892-.347 0-.866 0-1.394-.183-.52 0-.865-.178-1.215-.36-.86-.35-1.548-.706-2.067-1.234-.52-.71-.692-1.225-.692-1.94 0-.533.174-.884.347-1.412.346-.352.692-.71 1.21-1.055.516-.36 1.204-.706 1.723-.888.696-.178 1.402-.178 2.09-.178 1.197 0 2.062.177 2.932.536.87.365 1.557.875 2.076 1.585l-6.92 2.642-.866-1.06 5.186-1.936c-.346-.18-.692-.357-1.038-.515-.51 0-.85-.185-1.37-.185-.866 0-1.74.346-2.432.702-.692.528-1.038 1.056-1.038 1.766 0 .715.346 1.23 1.038 1.767.692.528 1.566.7 2.43.7.862 0 1.718-.17 2.41-.527.524-.528.87-1.056 1.06-1.593l1.88.185zM179.065 228.716c0 .897-.346 1.603-1.216 1.954-.688.528-1.9.7-3.288.7h-1.207v-1.23h1.043c1.015 0 1.726-.177 2.072-.368.34-.342.692-.7.692-1.224v-7.417h1.903v7.586zm-2.254-9.525c0-.173.17-.345.352-.518.34-.178.515-.178.86-.178.347 0 .697 0 .866.178.177.175.34.346.34.52 0 .178-.163.368-.34.54-.17.165-.52.165-.865.165-.346 0-.52 0-.86-.164-.183-.175-.352-.364-.352-.542M184.602 224.664c0 .715.34 1.23.856 1.766.692.53 1.552.702 2.417.702v1.248c-.687 0-1.38-.183-2.07-.36-.516-.183-1.203-.343-1.727-.707-.52-.353-.86-.71-1.207-1.238-.172-.353-.345-.88-.345-1.41 0-.534.173-.885.346-1.413.348-.354.69-.71 1.208-1.056.524-.36 1.21-.706 1.726-.888.692-.18 1.384-.18 2.07-.18v1.067c-.864 0-1.724.346-2.416.7-.515.53-.856 1.057-.856 1.767m3.273 2.468c1.048 0 1.904-.17 2.436-.7.69-.538 1.03-1.053 1.03-1.768 0-.71-.34-1.238-1.03-1.766-.53-.354-1.387-.7-2.435-.7v-1.067c.865 0 1.558 0 2.086.178.688.182 1.38.528 1.904.888.514.346.86.7 1.033 1.056.342.528.52.88.52 1.412 0 .532-.178 1.056-.52 1.41-.173.53-.52.884-1.033 1.24-.524.364-1.216.523-1.903.705-.527.177-1.22.36-2.085.36v-1.248zM196.877 228.197v-7.066h1.72v1.066c.35-.36.89-.705 1.394-.888.516-.178 1.39-.178 2.423-.178h.347v1.252h-.183c-1.38 0-2.23.16-2.936.515-.518.357-.87 1.056-.87 1.934v3.366h-1.893zM213.482 219.19c0-.174 0-.345.346-.518.173-.178.515-.178.692-.178.346 0 .688 0 .865.178.342.172.342.346.342.52 0 .178 0 .368-.342.54-.177.165-.52.165-.865.165-.177 0-.52 0-.692-.164-.346-.175-.346-.364-.346-.542m.168 1.94h1.904v7.067h-1.904v-7.066zM219.542 228.197v-4.066c0-.878.342-1.747 1.198-2.293.7-.53 1.74-.706 3.12-.706.686 0 1.21 0 1.73.18.695.18 1.032.527 1.55.887.357-.36.876-.706 1.395-.888.514-.18 1.206-.18 1.898-.18 1.21 0 2.24.18 3.106.707.686.705 1.055 1.415 1.055 2.294v4.067h-1.92v-4.243c0-.53-.165-.88-.51-1.234-.52-.335-1.04-.335-1.732-.335s-1.224 0-1.73.335c-.346.357-.687.705-.687 1.234v4.243h-1.908v-4.243c0-.53-.173-.88-.52-1.234-.518-.335-1.042-.335-1.73-.335-.682 0-1.38 0-1.73.335-.52.357-.687.705-.687 1.234v4.243h-1.898zM246.86 228.197v-3.533c0-.71-.35-1.24-1.037-1.766-.515-.357-1.39-.702-2.413-.702-1.043 0-1.917.346-2.436.702-.688.527-1.038 1.056-1.038 1.766 0 .715.35 1.41 1.038 1.766.706.53 1.57.702 2.61.702.33 0 .85 0 1.2-.17.524 0 1.04-.18 1.4-.358v1.234c-.36.182-.876.36-1.4.36-.514.182-1.037.182-1.552.182-.52 0-1.038 0-1.38-.182-.518-.178-1.05-.178-1.38-.36-.873-.35-1.397-.88-1.916-1.408-.346-.537-.514-1.05-.514-1.766 0-1.052.514-1.944 1.557-2.632 1.028-.54 2.253-.9 3.81-.9 1.024 0 1.898.177 2.773.536.85.167 1.557.715 2.067 1.23.168.353.34.714.34.883.18.35.18.884.18 1.6v2.817h-1.91zM262.956 227.838c0 1.056-.52 2.126-1.57 2.65-.847.71-2.24 1.065-3.966 1.065-.524 0-1.038 0-1.562-.182-.688 0-1.21-.17-1.9-.17l.52-1.234c.692.178 1.202.178 1.72.178.348.18.876.18 1.222.18 1.206 0 1.907-.18 2.595-.707.692-.353 1.034-.897 1.034-1.594v-3.355c0-.71-.343-1.24-1.035-1.767-.688-.352-1.39-.7-2.436-.7-1.034 0-1.9.346-2.578.7-.524.53-.87 1.058-.87 1.768 0 .715.346 1.41 1.038 1.767.51.528 1.376.7 2.41.7.518 0 1.046 0 1.4-.17.507 0 .853-.18 1.38-.357v1.233c-.527.183-.873.362-1.38.362-.522.182-1.037.182-1.56.182-.524 0-1.038 0-1.562-.182-.515-.18-.856-.18-1.38-.36-.7-.35-1.388-.88-1.734-1.407-.346-.538-.692-1.052-.692-1.767 0-1.052.52-1.944 1.56-2.632 1.035-.542 2.424-.902 3.967-.902 1.046 0 1.907.18 2.78.538.857.167 1.545.715 1.886 1.23.35.356.35.714.537.883 0 .35.173.883.173 1.598v2.458zM277.14 225.197c-.352.878-1.048 1.762-1.895 2.29-1.052.533-2.258.892-3.642.892-.346 0-.865 0-1.38-.183-.514 0-.88-.178-1.225-.36-.847-.35-1.548-.706-2.07-1.234-.52-.71-.69-1.225-.69-1.94 0-.533.17-.884.342-1.412.346-.352.692-.71 1.212-1.055.523-.36 1.206-.706 1.725-.888.706-.178 1.398-.178 2.085-.178 1.198 0 2.072.177 2.95.536.848.365 1.54.875 2.068 1.585l-6.912 2.642-.87-1.06 5.178-1.936c-.342-.18-.683-.357-1.03-.515-.35 0-.864-.185-1.384-.185-.865 0-1.743.346-2.417.702-.706.528-1.034 1.056-1.034 1.766 0 .715.33 1.23 1.035 1.767.674.528 1.552.7 2.417.7 1.034 0 1.73-.17 2.414-.527.537-.528.87-1.056 1.05-1.593l2.073.185zM280.422 228.197v-3.706c0-1.065.346-1.948 1.207-2.458.877-.724 1.897-.9 3.295-.9 1.38 0 2.586.177 3.278.9.865.51 1.207 1.393 1.207 2.46v3.705h-1.9v-4.066c0-.518-.167-1.055-.686-1.232-.52-.357-1.034-.515-1.9-.515-.696 0-1.397.16-1.907.515-.51.178-.692.714-.692 1.233v4.067h-1.903zM23.043 221.13v3.88c0 1.065-.355 1.95-1.21 2.477-.86.533-1.904.892-3.274.892-1.4 0-2.6-.36-3.476-.893-.687-.528-1.22-1.412-1.22-2.477v-3.88h1.93v4.067c0 .697.338 1.056.852 1.407.515.357 1.034.528 1.913.528.677 0 1.37-.17 1.893-.528.52-.35.687-.71.687-1.407v-4.066h1.903zM227.606 83.4c-.05-.183-.105-.362-.155-.543-.955 17.867-24.754 37.28-57.26 45.436-36.164 9.074-69.402.792-74.247-18.513-4.844-19.3 20.54-42.303 56.71-51.377 5.85-1.476 11.628-2.482 17.224-3.07-9.36.194-19.32 1.5-29.454 4.044-42.158 10.577-71.48 38.492-65.497 62.336 5.987 23.854 45.017 34.613 87.174 24.032 42.162-10.582 71.484-38.492 65.506-62.346" fill="#00446a" fill-rule="evenodd"/><g clip-path="url(#k)" transform="matrix(4.6 0 0 -4.6 -2160.5 24456.4)"><g clip-path="url(#l)" transform="matrix(20.8 0 0 -20.8 419.8 5067.4)"><path d="M3.492-14.043H5.05v.972H3.49v-.973z" fill="#00446a"/><g clip-path="url(#m)"><path d="M3.492-14.043H5.05v.972H3.49v-.973z" fill="url(#n)"/></g></g></g><g clip-path="url(#o)" transform="matrix(4.6 0 0 -4.6 -2160.5 24456.4)"><g clip-path="url(#p)" transform="matrix(9.9 0 0 -9.9 419.8 5067.4)"><path d="M7.384-29.587h1.94v1.3h-1.94v-1.3z" fill="#00658a"/><g clip-path="url(#q)"><path d="M7.384-29.587h1.94v1.3h-1.94v-1.3z" fill="url(#r)"/></g></g></g><g clip-path="url(#s)" transform="matrix(4.6 0 0 -4.6 -2160.5 24456.4)"><g clip-path="url(#t)" transform="matrix(22.4 0 0 -22.4 419.8 5067.4)"><path d="M3.313-12.702h1.375v.567H3.313v-.567z" fill="#186b90"/><g clip-path="url(#u)"><path d="M3.313-12.702h1.375v.567H3.313v-.567z" fill="url(#v)"/></g></g></g><path d="M206.88 10.827c-11.997-18.413-53.672-12.53-93.084 13.14-38.556 25.11-60.66 59.855-50.37 78.596C61.635 87.22 80.8 62.796 110.47 44.165c33.83-21.236 68.51-26.896 77.463-12.63 8.95 14.26-11.22 43.03-45.044 64.27-12.416 7.79-24.94 13.478-36.274 16.857 15.5-3.25 33.28-10.71 50.617-22 39.416-25.676 61.64-61.418 49.647-79.835" fill="#00b085" fill-rule="evenodd"/><g clip-path="url(#w)" transform="matrix(4.6 0 0 -4.6 -2160.5 24456.4)"><g clip-path="url(#x)"><path d="M487.035 5373.044h35.55v-23.072h-35.55v23.072z" fill="#00b085"/><g clip-path="url(#y)"><path d="M487.035 5373.044h35.55v-23.072h-35.55v23.072z" fill="url(#z)"/></g></g></g><g clip-path="url(#A)" transform="matrix(4.6 0 0 -4.6 -2160.5 24456.4)"><g clip-path="url(#B)"><path d="M492.975 5371.188h25.544v-12.985h-25.545v12.985z" fill="#00b085"/><g clip-path="url(#C)"><path d="M492.975 5371.188h25.544v-12.985h-25.545v12.985z" fill="url(#D)"/></g></g></g></svg>