<svg xmlns="http://www.w3.org/2000/svg" width="400" height="123.016"><path d="M0 123.016h384.683L400 107.103V0H15.18v107.143L0 123.016z" fill="#0077c1"/><path style="-inkscape-font-specification:'ELBZGA+TitlingGothicFBComp-Standard'" d="M51.737 92.46H30.38v-57h21.214V42.6H37.737v17.643h12.786v7.07H37.737v18h14v7.144M76.308 92.46H55.094v-57h7.572v49.856h13.642v7.143M113.95 92.46h-7.284l-9.858-33.43v33.43H89.95v-57h7.358l9.715 35.285V35.46h6.928v57M143.023 81.674c0 3.57-1.072 6.357-3.215 8.357-2.142 1.953-5.095 2.93-8.857 2.93-3.76 0-6.76-.953-9-2.858-2.237-1.952-3.356-4.786-3.356-8.5V35.46h7.43V80.6c0 3.62 1.618 5.43 4.856 5.43 3.095 0 4.643-1.787 4.643-5.358V35.46h7.5v46.214M169.237 92.46H147.88v-57h21.214V42.6h-13.857v17.643h12.786v7.07h-12.786v18h14v7.144M197.95 35.46l-9.784 57h-8.643l-9.43-57h7.5l6.43 43 6.5-43h7.428M212.023 35.102c5 0 8.476 1.81 10.428 5.43 1.144 2.142 1.882 4.975 2.216 8.5.333 3.475.5 8.332.5 14.57 0 6.286-.19 11.262-.572 14.93-.333 3.665-1.048 6.618-2.143 8.856-1.856 3.762-5.332 5.643-10.427 5.643-5.048 0-8.5-1.856-10.357-5.57-1.096-2.19-1.834-5.12-2.215-8.786-.332-3.667-.5-8.62-.5-14.858 0-6.285.168-11.19.5-14.714.335-3.57 1.096-6.452 2.287-8.643 1.905-3.572 5.333-5.358 10.286-5.358m.07 51.072c2 0 3.358-.786 4.072-2.358.62-1.333 1-3.428 1.143-6.285.19-2.904.286-7.452.286-13.642v-2.5c0-3.857-.024-6.62-.07-8.286 0-1.714-.12-3.428-.358-5.143-.19-1.715-.524-3-1-3.858-.715-1.333-2.072-2-4.072-2-1.81 0-3.095.69-3.857 2.072-.762 1.333-1.238 3.38-1.43 6.143-.14 2.714-.213 7.31-.213 13.785 0 6.19.095 10.715.286 13.572.19 2.81.62 4.857 1.286 6.142.714 1.572 2.023 2.358 3.928 2.358M262.308 87.46c-1.81 3.333-5.19 5-10.143 5H239.88v-57h12.143c5.238 0 8.738 1.88 10.5 5.642 1.238 2.524 1.857 9.738 1.857 21.643 0 7-.143 12.476-.43 16.43-.237 3.903-.785 6.665-1.642 8.284m-6.07-4.43c.142-.666.26-1.452.356-2.356.143-.905.214-2.12.214-3.643.048-1.523.072-2.76.072-3.714v-5.142-5.43c0-8.808-.238-14.356-.715-16.642-.57-2.62-2.047-3.928-4.428-3.928h-4.5v44h4.57c2.477 0 3.954-1.048 4.43-3.143M276.094 92.46h-7.714v-57h7.714v57M287.88 78.745l-1.857 13.714h-7.43l9.358-57h10.144l8.214 57h-7.5l-1.643-13.715h-9.285m8.357-6.57c-1.714-12.382-2.62-19-2.714-19.858l-.786-8.858c-.334 4.714-.572 7.666-.714 8.857l-3.215 19.857h7.43M332.737 51.388c0 4.38-.38 7.57-1.143 9.57-.38 1.05-.952 1.978-1.714 2.787-.762.762-1.5 1.262-2.215 1.5l6.715 27.214h-7.715l-5.785-25.143h-4.715V92.46h-7.214v-57h13.715c4.43 0 7.334 1.952 8.715 5.857.904 2.57 1.357 5.928 1.357 10.07m-7.5.858c0-3.095-.12-5.238-.357-6.428-.334-2.19-1.5-3.286-3.5-3.286h-5.143v18.144c3.38 0 5.214-.024 5.5-.072 1.38-.143 2.285-.81 2.714-2 .525-1.285.787-3.404.787-6.357M345.165 92.46h-7.714v-57h7.715v57M362.308 35.102c5 0 8.476 1.81 10.43 5.43 1.142 2.142 1.88 4.975 2.213 8.5.334 3.475.5 8.332.5 14.57 0 6.286-.19 11.262-.57 14.93-.334 3.665-1.048 6.618-2.143 8.856-1.857 3.762-5.334 5.643-10.43 5.643-5.046 0-8.5-1.856-10.356-5.57-1.094-2.19-1.832-5.12-2.213-8.786-.334-3.667-.5-8.62-.5-14.858 0-6.285.166-11.19.5-14.714.333-3.57 1.095-6.452 2.285-8.643 1.905-3.572 5.334-5.358 10.286-5.358m.072 51.072c2 0 3.357-.786 4.07-2.358.62-1.333 1-3.428 1.144-6.285.19-2.904.286-7.452.286-13.642v-2.5c0-3.857-.024-6.62-.072-8.286 0-1.714-.12-3.428-.357-5.143-.19-1.715-.523-3-1-3.858-.713-1.333-2.07-2-4.07-2-1.81 0-3.096.69-3.858 2.072-.76 1.333-1.238 3.38-1.428 6.143-.143 2.714-.214 7.31-.214 13.785 0 6.19.095 10.715.285 13.572.19 2.81.62 4.857 1.286 6.142.715 1.572 2.025 2.358 3.93 2.358" font-size="112.5" fill="#fff" font-family="ELBZGA+TitlingGothicFBComp-Standard"/><path d="M15.186 0v107.143L0 123.016V0h15.186z" fill="#034ea2"/><path d="M15.163 15.873H384.8L400 0H0l15.163 15.873z" fill="#034ea2"/><path d="M221.26 105.556h1.638v-2.482h1.245c1.673 0 3.012-.99 3.012-2.905v-.025c0-1.69-1.074-2.86-2.85-2.86h-3.045v8.27zm1.638-4.1v-2.53h1.267c.82 0 1.33.438 1.33 1.254v.024c0 .71-.478 1.253-1.298 1.253h-1.3zm5.472 4.1h5.672v-1.617h-4.045v-1.74h3.512v-1.617h-3.513v-1.68h3.992v-1.618h-5.62v8.27zm7.13 0h1.64v-2.647h1.288l1.596 2.646h1.915l-1.82-2.954c.946-.39 1.596-1.228 1.596-2.563v-.025c0-.78-.224-1.43-.638-1.89-.49-.544-1.223-.84-2.172-.84H235.5v8.27zm1.64-4.252v-2.377h1.628c.798 0 1.288.402 1.288 1.182v.023c0 .698-.457 1.17-1.256 1.17h-1.66zm6.13 4.252h1.638v-8.27h-1.638v8.27zm7.12.142c2.3 0 3.97-1.925 3.97-4.277v-.023c0-2.352-1.648-4.253-3.948-4.253s-3.97 1.925-3.97 4.277v.025c0 2.35 1.65 4.253 3.948 4.253m.022-1.677c-1.32 0-2.257-1.18-2.257-2.6v-.023c0-1.418.915-2.577 2.235-2.577 1.32 0 2.257 1.183 2.257 2.6v.025c0 1.418-.915 2.576-2.235 2.576m5.408 1.536h2.904c2.342 0 3.96-1.806 3.96-4.135v-.023c0-2.328-1.618-4.112-3.96-4.112h-2.904v8.27zm1.637-1.64v-4.99h1.267c1.342 0 2.246 1.03 2.246 2.495v.025c0 1.465-.904 2.47-2.246 2.47h-1.267zm6.76 1.64h1.638v-8.27h-1.638v8.27zm6.15.118c1.61 0 2.736-.92 2.736-2.562v-.024c0-1.442-.85-2.045-2.362-2.483-1.288-.366-1.607-.543-1.607-1.087v-.024c0-.4.33-.72.958-.72.63 0 1.28.307 1.94.815l.85-1.37c-.756-.674-1.68-1.052-2.767-1.052-1.523 0-2.607.99-2.607 2.492v.023c0 1.644.968 2.104 2.468 2.53 1.246.354 1.502.59 1.502 1.052v.024c0 .483-.405.78-1.075.78-.852 0-1.554-.392-2.224-1.006l-.968 1.288c.893.886 2.03 1.322 3.16 1.322m4.163-.118h1.606v-5.364l2.076 3.497h.043l2.097-3.533v5.4h1.628v-8.272h-1.766l-1.96 3.498-1.958-3.498h-1.765v8.27zm12.857.142c2.3 0 3.97-1.925 3.97-4.277v-.023c0-2.352-1.65-4.253-3.948-4.253-2.3 0-3.97 1.925-3.97 4.277v.025c0 2.35 1.648 4.253 3.947 4.253m.02-1.677c-1.32 0-2.256-1.18-2.256-2.6v-.023c0-1.418.917-2.577 2.237-2.577s2.257 1.183 2.257 2.6v.025c0 1.418-.916 2.576-2.236 2.576m12.09 1.678c1.437 0 2.29-.567 3.055-1.476l-1.043-1.17c-.585.59-1.107.97-1.958.97-1.278 0-2.16-1.183-2.16-2.6v-.025c0-1.418.904-2.577 2.16-2.577.745 0 1.33.355 1.905.934l1.043-1.335c-.692-.757-1.533-1.276-2.938-1.276-2.288 0-3.883 1.925-3.883 4.277v.025c0 2.375 1.626 4.253 3.818 4.253m7.77 0c2.3 0 3.97-1.925 3.97-4.277v-.023c0-2.352-1.648-4.253-3.948-4.253s-3.97 1.925-3.97 4.277v.025c0 2.35 1.65 4.253 3.95 4.253m.02-1.677c-1.32 0-2.257-1.18-2.257-2.6v-.023c0-1.418.916-2.577 2.236-2.577 1.32 0 2.256 1.183 2.256 2.6v.025c0 1.418-.916 2.576-2.236 2.576m5.407 1.536h1.617V100.3l3.61 5.256h1.392v-8.27H317.7v5.092l-3.492-5.093h-1.51v8.27zm13.975.06h1.447l3.01-8.33h-1.766l-1.948 5.825-1.946-5.825h-1.81l3.012 8.33zm3.906-.06h1.672l.68-1.856h3.15l.682 1.856h1.713l-3.193-8.33h-1.51l-3.194 8.33zm2.938-3.46l.99-2.683.99 2.682h-1.98zm6.11 3.46h5.352v-1.653h-3.715v-6.618h-1.637v8.27zm9.78.142c2.3 0 3.97-1.925 3.97-4.277v-.023c0-2.352-1.65-4.253-3.95-4.253-2.3 0-3.968 1.925-3.968 4.277v.025c0 2.35 1.65 4.253 3.948 4.253m.02-1.677c-1.318 0-2.256-1.18-2.256-2.6v-.023c0-1.418.916-2.577 2.236-2.577 1.32 0 2.257 1.183 2.257 2.6v.025c0 1.418-.916 2.576-2.236 2.576m5.408 1.536h1.638v-2.647h1.288l1.598 2.646h1.915l-1.82-2.954c.947-.39 1.597-1.228 1.597-2.564v-.023c0-.78-.224-1.43-.638-1.89-.49-.544-1.224-.84-2.172-.84h-3.405v8.27zm1.638-4.252v-2.377h1.63c.797 0 1.287.402 1.287 1.182v.023c0 .698-.458 1.17-1.256 1.17h-1.66zm6.057 4.252h5.672v-1.618h-4.044V102.2h3.51v-1.617h-3.51v-1.68h3.99v-1.618h-5.618v8.27zm9.78.118c1.608 0 2.736-.92 2.736-2.562v-.024c0-1.442-.85-2.046-2.362-2.483-1.29-.367-1.61-.543-1.61-1.087v-.024c0-.402.33-.72.96-.72.628 0 1.278.307 1.937.815l.852-1.37c-.755-.674-1.68-1.052-2.767-1.052-1.522 0-2.607.99-2.607 2.492v.023c0 1.644.968 2.104 2.47 2.53 1.244.354 1.5.59 1.5 1.052v.023c0 .485-.404.78-1.076.78-.85 0-1.553-.39-2.223-1.004l-.97 1.288c.894.886 2.032 1.322 3.16 1.322" fill="#fff"/><path d="M221.148 112.64h2.057c.99 0 1.643-.425 1.643-1.22v-.013c0-.603-.362-.9-.88-1.078.328-.173.633-.458.633-.992v-.013c0-.3-.1-.54-.298-.737-.253-.253-.653-.392-1.16-.392h-1.994v4.443zm.767-2.57v-1.183h1.125c.5 0 .78.216.78.565v.013c0 .407-.336.604-.838.604h-1.067zm0 1.878v-1.22h1.24c.615 0 .913.222.913.597v.013c0 .4-.324.61-.857.61h-1.295zm3.62.69h.8l.457-1.072h2.1l.452 1.073h.825l-1.957-4.476h-.723l-1.955 4.475zm1.543-1.763l.76-1.778.77 1.778h-1.53zm4.038 1.764h3.116v-.71h-2.336v-3.734h-.78v4.443zm3.733 0h.8l.455-1.074h2.102l.45 1.073h.826l-1.955-4.476h-.724l-1.955 4.475zm1.54-1.765l.763-1.778.768 1.778h-1.53zm4.04 1.764h.768v-3.162l2.45 3.16h.654v-4.442h-.767v3.072l-2.382-3.072h-.723v4.443zm7.263.075c.832 0 1.34-.304 1.803-.786l-.502-.51c-.38.356-.73.58-1.276.58-.85 0-1.466-.712-1.466-1.582v-.014c0-.87.615-1.568 1.466-1.568.508 0 .89.222 1.245.552l.5-.577c-.424-.405-.92-.69-1.738-.69-1.347 0-2.292 1.033-2.292 2.298v.012c0 1.277.965 2.285 2.26 2.285m2.807-.076h3.326v-.698h-2.546v-1.195h2.23v-.698h-2.23v-1.157h2.514v-.697H250.5v4.443zm6.386-1.512h.844v-.87h-.844v.87zm4.12 1.51h.78v-1.548h.98l1.092 1.55h.92l-1.2-1.683c.623-.178 1.06-.615 1.06-1.346v-.012c0-.387-.133-.718-.367-.96-.285-.277-.723-.442-1.282-.442h-1.98v4.443zm.78-2.24v-1.492h1.14c.576 0 .92.26.92.736v.013c0 .452-.356.744-.915.744h-1.143zm3.996 2.24h3.326v-.696h-2.546v-1.195h2.228v-.698h-2.228v-1.157h2.514v-.697h-3.294v4.443zm5.993.065c.934 0 1.587-.495 1.587-1.327v-.012c0-.737-.488-1.074-1.428-1.303-.852-.202-1.055-.354-1.055-.697v-.013c0-.292.266-.527.724-.527.406 0 .806.16 1.206.457l.418-.59c-.45-.36-.964-.558-1.61-.558-.885 0-1.52.526-1.52 1.288v.013c0 .82.534 1.098 1.48 1.328.826.19 1.004.363 1.004.68v.013c0 .336-.305.558-.788.558-.553 0-.978-.208-1.403-.576l-.47.558c.535.476 1.175.71 1.855.71m2.692-.063h.78v-1.43h.884c.98 0 1.778-.52 1.778-1.517v-.013c0-.895-.653-1.484-1.688-1.484h-1.753v4.443zm.78-2.133v-1.6h.91c.583 0 .958.272.958.793v.012c0 .464-.368.795-.96.795h-.907zm5.766 2.208c1.365 0 2.33-1.046 2.33-2.297v-.014c0-1.25-.952-2.285-2.317-2.285-1.366 0-2.33 1.046-2.33 2.298v.012c0 1.25.95 2.285 2.317 2.285m.013-.716c-.883 0-1.512-.72-1.512-1.582v-.014c0-.863.616-1.568 1.5-1.568.882 0 1.51.717 1.51 1.582v.012c0 .864-.615 1.57-1.498 1.57m3.448.64h.767v-3.162l2.453 3.16h.653v-4.442h-.768v3.072l-2.38-3.072h-.724v4.443zm6.755.063c.933 0 1.586-.495 1.586-1.327v-.012c0-.737-.488-1.074-1.428-1.303-.852-.202-1.055-.354-1.055-.697v-.013c0-.292.267-.527.725-.527.406 0 .806.16 1.206.457l.418-.59c-.45-.36-.964-.558-1.61-.558-.885 0-1.52.526-1.52 1.288v.013c0 .82.534 1.098 1.48 1.328.826.19 1.004.362 1.004.68v.013c0 .336-.305.558-.788.558-.553 0-.978-.208-1.403-.576l-.47.558c.534.476 1.174.71 1.854.71m2.215-.063h.8l.457-1.074h2.1l.452 1.073h.825l-1.956-4.476h-.723l-1.955 4.475zm1.543-1.765l.762-1.778.767 1.778h-1.53zm4.038 1.764h2.057c.99 0 1.644-.425 1.644-1.22v-.013c0-.603-.36-.9-.882-1.078.33-.173.634-.458.634-.992v-.013c0-.3-.102-.54-.3-.737-.252-.253-.652-.393-1.16-.393h-1.994v4.444zm.768-2.57v-1.183h1.124c.502 0 .78.216.78.565v.013c0 .407-.335.604-.837.604h-1.066zm0 1.878v-1.22h1.238c.616 0 .915.222.915.597v.013c0 .4-.324.61-.857.61h-1.296zm4.045.69h.78v-4.443h-.78v4.444zm2.15 0h3.118v-.71h-2.337v-3.733h-.78v4.444zm4.16 0h.78v-4.443h-.78v4.444zm2.152 0h1.657c1.396 0 2.36-.97 2.36-2.22v-.014c0-1.25-.964-2.21-2.36-2.21H312.3v4.445zm.78-.71v-3.022h.877c.932 0 1.542.64 1.542 1.51v.014c0 .87-.61 1.5-1.543 1.5h-.878zm3.684.71h.8l.456-1.072h2.102l.45 1.073h.826l-1.956-4.476h-.724l-1.954 4.475zm1.542-1.763l.762-1.778.768 1.778h-1.53zm4.04 1.764h1.655c1.398 0 2.362-.97 2.362-2.223v-.013c0-1.25-.964-2.21-2.362-2.21h-1.656v4.445zm.78-.71v-3.024h.875c.933 0 1.544.64 1.544 1.51v.014c0 .87-.61 1.5-1.544 1.5h-.876zm6.317-.802h.844v-.87h-.845v.87zm6.183 1.587c.83 0 1.34-.304 1.803-.786l-.5-.51c-.382.356-.73.58-1.277.58-.85 0-1.467-.712-1.467-1.582v-.014c0-.87.616-1.568 1.467-1.568.508 0 .89.222 1.244.552l.502-.577c-.426-.405-.922-.69-1.74-.69-1.347 0-2.292 1.033-2.292 2.298v.012c0 1.277.964 2.285 2.26 2.285m4.8 0c1.365 0 2.33-1.046 2.33-2.297v-.014c0-1.25-.952-2.285-2.317-2.285-1.365 0-2.33 1.046-2.33 2.298v.012c0 1.25.953 2.285 2.318 2.285m.013-.716c-.88 0-1.51-.72-1.51-1.582v-.014c0-.863.616-1.568 1.498-1.568.883 0 1.512.717 1.512 1.582v.012c0 .864-.616 1.57-1.5 1.57m3.45.64h.766v-3.162l2.452 3.16h.653v-4.443h-.767v3.073l-2.38-3.073h-.724v4.444zm5.2 0h.78v-1.81h2.24v-.71h-2.24v-1.214h2.526v-.71h-3.307v4.443zm4.392 0h.78v-4.445h-.78v4.444zm1.772 0h.8l.457-1.074h2.102l.45 1.073h.826l-1.955-4.476h-.724l-1.956 4.475zm1.543-1.765l.762-1.778.766 1.778h-1.53zm4.038 1.764h.767v-3.162l2.452 3.16h.653v-4.443h-.768v3.073l-2.382-3.073h-.723v4.444zm5.04 0h3.638v-.692h-2.62l2.62-3.176v-.577h-3.554v.692h2.537l-2.62 3.175v.577zm4.42 0h.8l.457-1.074h2.1l.452 1.073h.825l-1.956-4.476h-.723l-1.955 4.475zm1.543-1.765l.762-1.778.767 1.778h-1.53z" fill="#bfd3ed"/></svg>