<svg xmlns="http://www.w3.org/2000/svg" width="450" height="360.162"><defs><linearGradient id="a" gradientTransform="matrix(0 -156.2 -156.2 0 234 207.2)" gradientUnits="userSpaceOnUse" x2="1"><stop offset="0" stop-color="#fff"/><stop offset="1" stop-color="#fab93d"/></linearGradient><linearGradient id="b" gradientTransform="matrix(29.3 9.3 9.3 -29.3 189.1 128.6)" gradientUnits="userSpaceOnUse" x2="1"><stop offset="0" stop-color="#fff"/><stop offset="1" stop-color="#fab93d"/></linearGradient><linearGradient id="c" gradientTransform="scale(217.3) rotate(123.7 .5 .4)" gradientUnits="userSpaceOnUse" x2="1"><stop offset="0" stop-color="#fab93d"/><stop offset=".951" stop-color="#fff"/><stop offset="1" stop-color="#fff"/></linearGradient><linearGradient id="d" gradientTransform="rotate(162.2 129.5 86) scale(30.8)" gradientUnits="userSpaceOnUse" x2="1"><stop offset="0" stop-color="#fff"/><stop offset="1" stop-color="#fab93d"/></linearGradient><linearGradient id="e" gradientTransform="scale(217.3) rotate(56.3 .4 1.1)" gradientUnits="userSpaceOnUse" x2="1"><stop offset="0" stop-color="#fab93d"/><stop offset=".951" stop-color="#fff"/><stop offset="1" stop-color="#fff"/></linearGradient><linearGradient id="f" gradientTransform="matrix(-57 -68 -68 57 131.9 328.6)" gradientUnits="userSpaceOnUse" x2="1"><stop offset="0" stop-color="#fab93d"/><stop offset=".503" stop-color="#fff"/><stop offset="1" stop-color="#fab93d"/></linearGradient><linearGradient id="g" gradientTransform="matrix(33 -31 -31 -33 119.4 340.9)" gradientUnits="userSpaceOnUse" x2="1"><stop offset="0" stop-color="#fab93d"/><stop offset=".503" stop-color="#fff"/><stop offset="1" stop-color="#fab93d"/></linearGradient><linearGradient id="h" gradientTransform="matrix(72 48 48 -72 137.3 273.1)" gradientUnits="userSpaceOnUse" x2="1"><stop offset="0" stop-color="#fab93d"/><stop offset=".503" stop-color="#fff"/><stop offset="1" stop-color="#fab93d"/></linearGradient><linearGradient id="i" gradientTransform="matrix(57 -68 68 57 336.1 328.6)" gradientUnits="userSpaceOnUse" x2="1"><stop offset="0" stop-color="#fab93d"/><stop offset=".503" stop-color="#fff"/><stop offset="1" stop-color="#fab93d"/></linearGradient><linearGradient id="j" gradientTransform="matrix(-33 -31 31 -33 348.5 340.9)" gradientUnits="userSpaceOnUse" x2="1"><stop offset="0" stop-color="#fab93d"/><stop offset=".503" stop-color="#fff"/><stop offset="1" stop-color="#fab93d"/></linearGradient><linearGradient id="k" gradientTransform="matrix(-72 48 -48 -72 330.6 273.1)" gradientUnits="userSpaceOnUse" x2="1"><stop offset="0" stop-color="#fab93d"/><stop offset=".503" stop-color="#fff"/><stop offset="1" stop-color="#fab93d"/></linearGradient><linearGradient id="l" gradientTransform="matrix(78.3 0 0 -78.3 194.8 291.4)" gradientUnits="userSpaceOnUse" x2="1"><stop offset="0" stop-color="#fab93d"/><stop offset=".503" stop-color="#fff"/><stop offset="1" stop-color="#fab93d"/></linearGradient><linearGradient id="m" gradientTransform="matrix(38 35 35 -38 209.9 319.7)" gradientUnits="userSpaceOnUse" x2="1"><stop offset="0" stop-color="#fab93d"/><stop offset=".503" stop-color="#fff"/><stop offset="1" stop-color="#fab93d"/></linearGradient><clipPath id="n"><path d="M0 392h468V0H0v392z"/></clipPath></defs><path d="M234 38.664l-29.71 180.61h59.42L234 38.665z" fill="url(#a)" transform="matrix(1 0 0 -1 -18.8 385)"/><path d="M225 344.75l-30.95-188.136h61.9L225 344.75z" fill="none" stroke="#fff" stroke-width="3.1250100000000005" stroke-miterlimit="10"/><path d="M234 38.664l-29.71 180.61h-57.76L234 38.665z" fill="url(#b)" transform="matrix(1 0 0 -1 -18.8 385)"/><path d="M225 344.75l-30.95-188.136h-60.166L225 344.75z" fill="none" stroke="#fff" stroke-width="3.1250100000000005" stroke-miterlimit="10"/><path d="M234 38.664L85.39 219.274h61.14L234 38.665z" fill="url(#c)" transform="matrix(1 0 0 -1 -18.8 385)"/><path d="M225 344.75L70.198 156.615h63.686L225 344.75z" fill="none" stroke="#fff" stroke-width="3.1250100000000005" stroke-miterlimit="10"/><path d="M234 38.664l29.71 180.61h57.76L234 38.665z" fill="url(#d)" transform="matrix(1 0 0 -1 -18.8 385)"/><path d="M225 344.75l30.95-188.136h60.166L225 344.75z" fill="none" stroke="#fff" stroke-width="3.1250100000000005" stroke-miterlimit="10"/><path d="M234 38.664l148.61 180.61h-61.14L234 38.665z" fill="url(#e)" transform="matrix(1 0 0 -1 -18.8 385)"/><path d="M225 344.75l154.8-188.136h-63.684L225 344.75z" fill="none" stroke="#fff" stroke-width="3.1250100000000005" stroke-miterlimit="10"/><path d="M116.713 277.19v64.662L60.836 277.19h55.877z" fill="url(#f)" transform="matrix(1 0 0 -1 -18.8 385)"/><path d="M102.826 96.287V28.93L44.62 96.287h58.206z" fill="none" stroke="#fff" stroke-width="3.1250100000000005" stroke-miterlimit="10"/><path d="M116.713 341.852V277.19l72.295 64.662h-72.295z" fill="url(#g)" transform="matrix(1 0 0 -1 -18.8 385)"/><path d="M102.826 28.93v67.356l75.307-67.356h-75.307z" fill="none" stroke="#fff" stroke-width="3.1250100000000005" stroke-miterlimit="10"/><path d="M116.713 277.19l72.295 64.662h3.87l41.087-36.207-39.14-28.44-78.112-.016z" fill="url(#h)" transform="matrix(1 0 0 -1 -18.8 385)"/><path d="M102.826 96.287l75.307-67.357h4.03l42.8 37.715-40.77 29.624-81.367.017z" fill="none" stroke="#fff" stroke-width="3.1250100000000005" stroke-miterlimit="10"/><path d="M351.217 277.19v64.662l55.877-64.663h-55.877z" fill="url(#i)" transform="matrix(1 0 0 -1 -18.8 385)"/><path d="M347.1 96.287V28.93l58.206 67.357H347.1z" fill="none" stroke="#fff" stroke-width="3.1250100000000005" stroke-miterlimit="10"/><path d="M351.217 341.852V277.19l-72.295 64.662h72.295z" fill="url(#j)" transform="matrix(1 0 0 -1 -18.8 385)"/><path d="M347.1 28.93v67.356L271.795 28.93H347.1z" fill="none" stroke="#fff" stroke-width="3.1250100000000005" stroke-miterlimit="10"/><path d="M351.217 277.19l-72.295 64.662h-3.87l-41.087-36.207 39.14-28.44 78.112-.016z" fill="url(#k)" transform="matrix(1 0 0 -1 -18.8 385)"/><path d="M347.1 96.287L271.795 28.93h-4.033l-42.797 37.715 40.77 29.624 81.368.017z" fill="none" stroke="#fff" stroke-width="3.1250100000000005" stroke-miterlimit="10"/><path d="M194.827 277.19l39.138 28.455L273.1 277.19h-78.273z" fill="url(#l)" transform="matrix(1 0 0 -1 -18.8 385)"/><path d="M184.195 96.287l40.77-29.642 40.763 29.642h-81.533z" fill="none" stroke="#fff" stroke-width="3.1250100000000005" stroke-miterlimit="10"/><path d="M275.102 341.852l-41.137-36.207-41.138 36.207h82.275z" fill="url(#m)" transform="matrix(1 0 0 -1 -18.8 385)"/><path d="M267.814 28.93l-42.85 37.715L182.11 28.93h85.702z" fill="none" stroke="#fff" stroke-width="3.1250100000000005" stroke-miterlimit="10"/><path d="M25.024 110.566L225 353.604l199.975-243.038-75.224-87.26H100.25l-75.224 87.26zM225 360.162L19.578 110.502 98.34 19.14h253.32l78.762 91.363L225 360.163z" fill="#2151a8"/><path d="M431.2 175.428H-.8v-62.58h432v62.58z" fill="#2151a8"/><g clip-path="url(#n)" transform="matrix(1 0 0 -1 -18.8 385)"><path d="M398.068 196.963h.906c1.02 0 1.77.375 1.77 1.124 0 .75-.588 1.177-1.66 1.177-.428 0-.75-.053-1.016-.053v-2.247zm-.057-4.925h-2.35v8.62c.695.104 1.976.318 3.584.318 1.816 0 2.623-.266 3.21-.694.59-.374.964-1.018.964-1.873 0-.91-.8-1.66-1.926-1.978v-.11c.906-.32 1.39-.963 1.656-2.195.27-1.228.483-1.764.645-2.09h-2.623c-.264.326-.426 1.075-.64 1.986-.16.91-.646 1.286-1.608 1.286h-.91v-3.272zm1.234 11.456c-3.8 0-6.688-3.16-6.688-7.01 0-3.85 2.89-6.957 6.74-6.957 3.852-.05 6.688 3.106 6.688 6.957 0 3.85-2.836 7.01-6.687 7.01h-.053zm.105 2.03c5.136 0 9.204-4.012 9.204-8.988 0-5.083-4.068-9.098-9.257-9.098-5.137 0-9.31 4.015-9.31 9.098 0 4.976 4.173 8.988 9.31 8.988h.052z" fill="#2151a8"/><path d="M50.363 240.558c0-5.18.047-8.944.095-9.873.047-1.22.14-3.176.52-3.714.613-.928 2.454-1.954 6.186-1.954 4.817 0 8.028.978 10.862 3.52 3.023 2.687 3.967 7.135 3.967 12.168 0 6.208-2.503 10.215-4.534 12.22-4.346 4.3-9.73 4.886-13.413 4.886-.945 0-2.692-.146-3.07-.34-.425-.197-.567-.44-.567-.98-.047-1.66-.047-5.913-.047-9.774v-6.158zm-5.903 5.376c0 7.43 0 8.797-.095 10.36-.094 1.663-.472 2.445-2.03 2.787-.378.1-1.18.148-1.842.148-.52 0-.803.098-.803.44 0 .342.33.44 1.04.44 2.502 0 5.477-.147 6.8-.147 1.464 0 4.438.148 7.272.148 5.904 0 13.79 0 18.938-5.572 2.36-2.54 4.58-6.598 4.58-12.414 0-6.158-2.502-10.85-5.146-13.636-2.173-2.297-7.084-5.767-15.822-5.767-1.7 0-3.635.146-5.43.292-1.795.147-3.448.294-4.628.294-.52 0-1.56 0-2.693-.05-1.085 0-2.312-.097-3.258-.097-.613 0-.944.146-.944.488 0 .244.19.39.756.39.708 0 1.275.1 1.7.196.945.196 1.18 1.27 1.37 2.688.236 2.053.236 5.914.236 10.41v8.602zM85.836 242.56c0 6.306 0 7.48-.048 8.798-.095 1.418-.52 1.906-1.417 2.2-.47.146-.99.195-1.51.195-.424 0-.66.098-.66.49 0 .243.33.34.99.34 1.56 0 4.393-.097 5.574-.097 1.04 0 3.73.098 5.336.098.52 0 .85-.098.85-.342 0-.39-.236-.49-.66-.49-.426 0-.757-.048-1.23-.146-1.132-.195-1.463-.78-1.557-2.248-.095-1.32-.095-2.492-.095-8.797v-7.33c0-4.007 0-7.33.19-9.09.14-1.124.425-1.76 1.652-1.954.566-.1 1.51-.148 2.125-.148.473 0 .66-.245.66-.44 0-.293-.33-.44-.802-.44-2.74 0-5.572.148-6.706.148-.944 0-3.778-.148-5.43-.148-.52 0-.803.148-.803.44 0 .195.142.44.66.44.614 0 1.087.05 1.465.147.85.195 1.085.78 1.227 2.003.19 1.71.19 5.034.19 9.042v7.33z" fill="#fff"/><path d="M115.73 235.915c.19 0 .237.098.19.245L112 246.716c-.047.147-.094.39-.19.39-.14 0-.187-.243-.234-.39l-4.015-10.508c-.094-.195 0-.293.143-.293h8.028zm-8.877-2.297c-.236 0-.283-.05-.378-.293l-2.22-5.572c-.424-1.026-.614-2.052-.614-2.54 0-.735.38-1.174 1.654-1.174h.614c.52 0 .614-.197.614-.44 0-.343-.236-.44-.66-.44-1.37 0-3.307.146-4.63.146-.424 0-2.644-.147-4.816-.147-.52 0-.756.097-.756.44 0 .243.142.44.472.44.378 0 .85.048 1.228.048 1.89.293 2.598 1.563 3.448 3.665l10.86 26.148c.474 1.174.804 1.662 1.23 1.662.613 0 .803-.39 1.228-1.32.992-2.296 7.933-19.305 10.58-25.61 1.604-3.762 2.785-4.3 3.54-4.446.614-.098 1.087-.147 1.558-.147.378 0 .568-.148.568-.44 0-.343-.237-.44-1.795-.44-1.464 0-4.487 0-7.982.097-.756.05-1.227.05-1.227.342 0 .243.094.39.52.44.282.048.566.438.377.927l-3.212 8.358c-.093.244-.236.293-.425.293h-9.775z" fill="#fff"/><path d="M137.41 254.438c.096.684.473 1.075.804 1.075.425 0 .708-.196 1.275-1.32l11.144-23.166 11.145 23.46c.33.684.708 1.026 1.086 1.026.33 0 .803-.44.944-1.32l3.78-25.658c.376-2.59.754-3.715 2.03-4.106 1.18-.343 1.84-.392 2.36-.392.378 0 .66-.146.66-.39 0-.343-.47-.49-1.084-.49-1.04 0-6.943.196-8.596.294-.99.048-1.228.244-1.228.488 0 .196.19.343.473.44.235.098.33.587.188 1.76l-2.314 17.985h-.143l-8.925-18.572c-.945-1.954-1.18-2.345-1.653-2.345-.52 0-.993.83-1.654 2.1-.99 1.907-4.297 8.26-4.77 9.434-.33.78-2.786 6.01-4.156 8.895h-.14l-1.985-16.226c-.095-.733-.14-1.27-.14-1.954 0-.782.565-1.076 1.274-1.222.707-.147 1.085-.196 1.463-.196.378 0 .66-.195.66-.39 0-.392-.377-.49-.99-.49-1.748 0-3.637.147-4.393.147-.803 0-2.786-.146-4.108-.146-.426 0-.756.096-.756.487 0 .196.236.39.66.39.33 0 .615 0 1.276.1 1.133.146 1.51 1.807 1.7 3.176l4.11 27.125zM202.92 238.114c0 9.188-5.338 14.858-12.044 14.858-4.628 0-10.06-2.542-10.06-12.805 0-8.553 4.724-15.298 12.563-15.298 2.928 0 9.54 1.417 9.54 13.244m-28.242.782c0 7.087 4.817 16.275 17.427 16.275 10.483 0 17-6.01 17-15.54s-6.706-17.01-17.426-17.01c-12.09 0-17.002 8.896-17.002 16.276M219.453 228.828c.094-3.226.613-4.203 1.416-4.497.708-.243 1.51-.292 2.172-.292.472 0 .708-.195.708-.44 0-.342-.377-.44-.944-.44-2.693 0-4.628.147-5.384.147-.378 0-2.362-.146-4.487-.146-.566 0-.944.047-.944.44 0 .243.284.438.662.438.567 0 1.322.05 1.89.196 1.085.293 1.227 1.417 1.274 5.033l.377 24.633c0 .83.284 1.417.71 1.417.52 0 1.085-.635 1.794-1.368.52-.54 6.753-7.137 12.798-13.246 2.833-2.883 8.358-8.748 8.974-9.335h.186l-.424 18.474c-.047 2.54-.425 3.274-1.418 3.665-.613.243-1.605.243-2.172.243-.52 0-.66.196-.66.44 0 .343.424.39 1.04.39 2.17 0 4.39-.096 5.288-.096.473 0 2.03.097 4.06.097.567 0 .946-.048.946-.39 0-.245-.236-.44-.71-.44-.424 0-.755 0-1.274-.147-1.133-.342-1.463-1.075-1.512-3.42l-.47-26.198c0-.93-.333-1.32-.663-1.32-.71 0-1.275.44-1.7.88-2.596 2.492-7.792 7.624-12.137 11.973-4.534 4.497-8.925 9.53-9.728 10.264h-.142l.473-16.96zM262.148 237.967c0-4.398.05-7.575.096-8.406.047-1.026.14-2.492.47-2.932.52-.782 2.174-1.66 5.432-1.66 3.78 0 6.565.683 9.068 2.833 2.692 2.298 3.54 6.013 3.54 10.313 0 5.28-2.03 8.7-3.872 10.362-3.824 3.52-8.357 3.96-11.617 3.96-.85 0-2.22-.1-2.55-.295-.378-.146-.518-.34-.518-.83-.05-1.418-.05-4.84-.05-8.114v-5.23zm-5.572 4.594c0 6.306 0 7.48-.047 8.8-.095 1.416-.474 1.856-1.796 2.247-.33.097-1.04.146-1.652.146-.426 0-.71.147-.71.44 0 .294.33.39.946.39 2.172 0 4.816-.096 5.998-.096 1.273 0 4.25.097 6.752.097 5.195 0 12.185 0 16.72-4.74 2.077-2.15 3.92-5.62 3.92-10.557 0-5.23-2.173-9.19-4.535-11.584-1.89-1.954-6.28-4.887-13.93-4.887-1.513 0-3.308.147-4.96.245-1.655.147-3.164.245-4.203.245-.473 0-1.37-.05-2.362-.05-.992-.048-2.03-.097-2.88-.097-.52 0-.803.147-.803.44 0 .196.14.44.66.44.615 0 1.086.05 1.465.147.85.195 1.086.977 1.226 2.2.19 1.758.19 5.033.19 8.845v7.33zM311.648 227.802c-4.63 4.203-5.855 9.677-5.855 14.417 0 3.323.99 9.09 5.525 13.39 3.4 3.227 7.887 5.182 14.922 5.182 2.93 0 4.676-.196 6.847-.49 1.795-.244 3.307-.683 4.723-.83.52-.05.71-.293.71-.587 0-.39-.142-.977-.237-2.687-.094-1.613-.047-4.3-.14-5.28-.048-.732-.143-1.123-.567-1.123-.38 0-.473.39-.473 1.075-.047 1.515-.662 3.226-1.842 4.497-1.557 1.71-5.24 3.03-9.587 3.03-4.107 0-6.8-1.075-8.877-3.03-3.45-3.275-4.345-7.918-4.345-12.66 0-11.63 8.548-17.398 14.878-17.398 4.203 0 6.752.488 8.64 2.736.805.93 1.418 2.346 1.608 3.226.14.782.234.977.613.977.33 0 .425-.343.425-.734 0-.586-.57-4.84-1.04-6.5-.236-.83-.425-1.075-1.228-1.417-1.888-.783-5.478-1.126-8.5-1.126-6.47 0-11.902 1.467-16.2 5.328M353.352 235.23c0-5.326 0-7.965.898-8.748.707-.635 2.315-.88 5.526-.88 2.22 0 3.824.05 4.863 1.174.52.538.944 1.71 1.038 2.492.047.39.143.636.473.636.284 0 .378-.44.378-.93 0-.488-.283-3.567-.613-4.788-.284-.93-.473-1.124-2.645-1.124-2.975 0-5.383.048-7.46.146-2.08.05-3.827.098-5.526.098-.473 0-1.37-.05-2.362-.05-.992-.048-2.03-.097-2.88-.097-.52 0-.803.146-.803.44 0 .194.14.44.66.44.614 0 1.085.048 1.464.146.85.194 1.086.976 1.226 2.198.19 1.76.19 5.035.19 8.847v7.332c0 6.304 0 7.477-.047 8.796-.094 1.418-.473 1.857-1.795 2.248-.33.098-.85.147-1.37.147-.472 0-.708.147-.708.44 0 .293.283.39.898.39 1.936 0 4.58-.097 5.713-.097.993 0 4.394.098 6 .098.614 0 .898-.098.898-.39 0-.294-.237-.44-.756-.44-.473 0-1.135-.05-1.606-.148-1.134-.195-1.465-.78-1.558-2.248-.096-1.32-.096-2.492-.096-8.797v-7.33zM371.113 242.56c0 6.306.047 7.48-.047 8.798-.096 1.467-.473 1.857-1.795 2.248-.33.098-1.038.147-1.604.147-.473 0-.71.147-.71.44 0 .293.284.39.897.39 2.22 0 5.006-.097 6.235-.097 1.04 0 3.826.098 5.336.098.615 0 .898-.098.898-.39 0-.294-.236-.44-.662-.44-.47 0-.707-.05-1.227-.148-1.086-.195-1.418-.78-1.51-2.248-.095-1.32-.095-2.492-.095-8.797v-5.815c0-6.06 1.133-8.406 3.164-10.068 1.842-1.515 3.824-1.662 5.242-1.662 1.793 0 3.918.538 5.572 2.2 2.315 2.248 2.41 5.865 2.41 10.117v5.23c0 6.304-.048 7.477-.095 8.796-.095 1.418-.425 1.857-1.747 2.248-.33.098-1.04.147-1.512.147s-.708.147-.708.44c0 .293.285.39.852.39 2.125 0 4.91-.097 4.96-.097.47 0 3.256.098 4.862.098.566 0 .85-.098.85-.39 0-.294-.237-.44-.708-.44-.472 0-.71-.05-1.228-.148-1.133-.195-1.416-.78-1.512-2.248-.047-1.32-.094-2.492-.094-8.797v-4.447c0-4.642-.472-9.53-3.966-12.51-2.928-2.542-6.092-2.982-8.785-2.982-2.172 0-6.47.098-9.493 2.835-2.125 1.906-3.777 4.985-3.777 10.997v6.11zM413.242 229.66c0-2.738.143-3.57 1.465-4.106 1.086-.44 2.03-.49 2.974-.49 2.22 0 5.1 1.272 5.1 5.866 0 1.906-.802 5.18-3.92 7.38-.848.635-1.98 1.075-3.587 1.075h-1.795c-.142 0-.236-.05-.236-.293v-9.433zm0 12.218c0-.343.143-.39.283-.44.38-.098.992-.147 1.938-.147 1.37 0 2.55.148 3.258.734 1.086.88 1.89 2.395 1.89 4.4 0 2.785-1.606 6.255-5.196 6.255-.567 0-1.37 0-1.793-.1-.284-.048-.378-.243-.378-.683v-10.02zm-5.383.684c0 6.305 0 7.477-.05 8.797-.093 1.417-.47 1.856-1.793 2.247-.332.098-1.04.147-1.654.147-.424 0-.707.147-.707.44 0 .293.33.39.943.39 2.17 0 4.818-.097 5.62-.097 2.08 0 4.817.098 6.233.098 7.51 0 8.832-4.008 8.832-6.207 0-3.226-2.314-5.72-4.676-7.282 3.4-1.124 7.65-4.106 7.65-8.993 0-4.448-3.4-9.042-11.05-9.042-.474 0-1.89.05-3.306.148-1.418.05-2.88.097-3.543.097-.472 0-1.368-.048-2.36-.048-.992-.05-2.03-.098-2.88-.098-.52 0-.804.145-.804.44 0 .194.143.438.662.438.614 0 1.086.05 1.463.147.85.196 1.087.978 1.23 2.2.19 1.76.19 5.034.19 8.846v7.332zM202.255 366.14c9.25.158 9.725-4.98 9.725-4.98s.08-3.006-5.85-4.666c-2.04-.57-9.28-2.547-17.94-4.61 2.532 6.312 6.86 14.133 14.065 14.256m-13.76-53.48c-22.157 0-33.69-11.783-33.69-18.39 0-6.594 8.163-8.865 16.733-8.968 8.57-.102 17.56 2.79 22.912 5.728 0 0 1.18.556.786 1.212-.405.674-1.615.07-1.615.07-8.515-3.77-10.985-5.275-22.082-5.653-7.274-.25-14.713 2.897-14.772 7.16-.058 4.196 11.892 13.67 32.26 13.79 21.176.126 26.134-6.906 26-13.19-.19-8.78-15.21-23.384-43.26-23.588-25.206-.184-43.38 10.2-44.996 28.038-.3 3.317 2.8 10.16 5.652 12.888 12.283 11.756 44.165 15.072 64.44 16.205l4.825 5.276c.585.64 1.365 1.825-3.694 1.506-2.54-.16-5.884-.434-9.753-.882-3.248 4-3.04 9.567-1.798 13.22.283.833.613 1.796.995 2.834 8.873 2.11 16.522 4.223 19.167 4.994 7.59 2.215 7.115 6.247 7.115 6.247s.232 6.537-11.623 6.956c-12.362.437-22.668-9.103-23.08-18.312-.736-.158-1.47-.313-2.204-.465-13.683-2.833-26.977-4.705-26.977-4.705s-1.728-.218-1.627-1.098c.105-.915 1.626-.642 1.626-.642s13.372 1.847 27.197 4.7c.676.14 1.353.284 2.03.43.01-.103.013-.206.026-.307.64-5.146 4.536-10.724 7.263-14.082-16.262-2.043-40.452-7.13-54.91-19.542-7.934-6.81-11.717-12.93-11.76-22.385-.086-19.636 24.59-29.396 46.05-29.395 38.326 0 50.726 22.913 50.726 32.408 0 8.105-7.312 17.938-27.964 17.938" fill="#fff"/><path d="M202.255 366.14c9.25.158 9.725-4.98 9.725-4.98s.08-3.006-5.85-4.666c-2.04-.57-9.28-2.547-17.94-4.61 2.532 6.312 6.86 14.133 14.065 14.256zm-13.76-53.48c-22.157 0-33.69-11.783-33.69-18.39 0-6.594 8.163-8.865 16.733-8.968 8.57-.102 17.56 2.79 22.912 5.728 0 0 1.18.556.786 1.212-.405.674-1.615.07-1.615.07-8.515-3.77-10.985-5.275-22.082-5.653-7.274-.25-14.713 2.897-14.772 7.16-.058 4.196 11.892 13.67 32.26 13.79 21.176.126 26.134-6.906 26-13.19-.19-8.78-15.21-23.384-43.26-23.588-25.206-.184-43.38 10.2-44.996 28.038-.3 3.317 2.8 10.16 5.652 12.888 12.283 11.756 44.165 15.072 64.44 16.205l4.825 5.276c.585.64 1.365 1.825-3.694 1.506-2.54-.16-5.884-.434-9.753-.882-3.248 4-3.04 9.567-1.798 13.22.283.833.613 1.796.995 2.834 8.873 2.11 16.522 4.223 19.167 4.994 7.59 2.215 7.115 6.247 7.115 6.247s.232 6.537-11.623 6.956c-12.362.437-22.668-9.103-23.08-18.312-.736-.158-1.47-.313-2.204-.465-13.683-2.833-26.977-4.705-26.977-4.705s-1.728-.218-1.627-1.098c.105-.915 1.626-.642 1.626-.642s13.372 1.847 27.197 4.7c.676.14 1.353.284 2.03.43.01-.103.013-.206.026-.307.64-5.146 4.536-10.724 7.263-14.082-16.262-2.043-40.452-7.13-54.91-19.542-7.934-6.81-11.717-12.93-11.76-22.385-.086-19.636 24.59-29.396 46.05-29.395 38.326 0 50.726 22.913 50.726 32.408 0 8.105-7.312 17.938-27.964 17.938z" fill="none" stroke="#fff" stroke-width="3" stroke-miterlimit="10"/><path d="M242.705 347.058c-1.002-.177-.768-1.774-.768-1.774s.155-1.364.05-2.663c-.177-2.23-6.796-17.886-11.335-28.48-1.898-4.432-5.974-14.153-7.2-17.367-1.92-5.042-3.343-8.61-3.856-11.704-.81-4.87 1.128-10.474 4.916-10.948 5.624-.703 16.52 13.66 19.433 18.68 0 0 .52.756-.056 1.008-.5.22-1-.656-1-.656-2.576-3.677-9.39-13.156-14.512-16.57-3.27-2.18-4.66-1.11-4.273 2.674.2 1.956 3.356 9.605 5.932 15.698 1.31 3.1 5.537 12.88 7.404 17.145 3.583 8.177 7.84 18.575 8.165 24.344.334 5.935-1.162 9.203-2.033 10.242-.213.256-.498.437-.867.372" fill="#fff"/><path d="M242.705 347.058c-1.002-.177-.768-1.774-.768-1.774s.155-1.364.05-2.663c-.177-2.23-6.796-17.886-11.335-28.48-1.898-4.432-5.974-14.153-7.2-17.367-1.92-5.042-3.343-8.61-3.856-11.704-.81-4.87 1.128-10.474 4.916-10.948 5.624-.703 16.52 13.66 19.433 18.68 0 0 .52.756-.056 1.008-.5.22-1-.656-1-.656-2.576-3.677-9.39-13.156-14.512-16.57-3.27-2.18-4.66-1.11-4.273 2.674.2 1.956 3.356 9.605 5.932 15.698 1.31 3.1 5.537 12.88 7.404 17.145 3.583 8.177 7.84 18.575 8.165 24.344.334 5.935-1.162 9.203-2.033 10.242-.213.256-.498.437-.867.372z" fill="none" stroke="#fff" stroke-width="3" stroke-miterlimit="10"/><path d="M264.465 301.954c1.234 2.39 2.96 5.333 1.807 9.46-.657 2.34-2.137 4.337-4.727 4.337-5.476 0-13.514-11.88-13.514-11.88s-.993-1.27-.43-1.613c.484-.295 1.44.99 1.44.99s5.593 7.415 9.786 10.252c2.64 1.786 4.1.82 2.68-1.943-1.42-2.764-12.582-23.936-13.744-26.75-2.293-5.552.348-11.096 4.426-11.182 5.34-.112 13.123 10.33 13.86 12.348 0 0 .763 1.32.185 1.57-.58.25-1.194-.91-1.194-.91-4.97-7.572-10.366-11.88-12.425-11.726-1.107.083-1.046 1.983-.273 3.572 4.574 9.392 6.77 13.1 12.123 23.474" fill="#fff"/><path d="M264.465 301.954c1.234 2.39 2.96 5.333 1.807 9.46-.657 2.34-2.137 4.337-4.727 4.337-5.476 0-13.514-11.88-13.514-11.88s-.993-1.27-.43-1.613c.484-.295 1.44.99 1.44.99s5.593 7.415 9.786 10.252c2.64 1.786 4.1.82 2.68-1.943-1.42-2.764-12.582-23.936-13.744-26.75-2.293-5.552.348-11.096 4.426-11.182 5.34-.112 13.123 10.33 13.86 12.348 0 0 .763 1.32.185 1.57-.58.25-1.194-.91-1.194-.91-4.97-7.572-10.366-11.88-12.425-11.726-1.107.083-1.046 1.983-.273 3.572 4.574 9.392 6.77 13.1 12.123 23.474z" fill="none" stroke="#fff" stroke-width="3" stroke-miterlimit="10"/><path d="M266.408 336.738c-3.332 0-5.033-3.807-5.078-5.253-.043-1.447-.315-4.572 2.973-4.704 3.97-.158 5.492 4.127 5.437 5.88-.04 1.3 0 4.078-3.332 4.078" fill="#fff"/><path d="M266.408 336.738c-3.332 0-5.033-3.807-5.078-5.253-.043-1.447-.315-4.572 2.973-4.704 3.97-.158 5.492 4.127 5.437 5.88-.04 1.3 0 4.078-3.332 4.078z" fill="none" stroke="#fff" stroke-width="3" stroke-miterlimit="10"/><path d="M297.758 314.894h-5.283c1.763 4.647 3.564 9.448 4.597 12.337.65 1.817 1.124 2.52.588 2.97-.166.138-.703.037-2.033-.538l-5.777-2.656-4.715-12.112h-5.89c-.495 0-1.01-.396-1.15-.883-.14-.487.15-.882.647-.882h5.705l-.67-1.727s-9.02-22.386-9.808-25.83c-1.65-7.215.82-12.042 5.184-12.04 5.358 0 13.997 10.555 17.31 15.2 0 0 .972 1.284.19 1.784-.66.422-1.515-.89-1.515-.89-3.482-4.685-7.296-9.048-10.417-11.704-2.14-1.82-7.81-5.62-5.444 1.97 2.974 9.54 8.25 22.065 8.25 22.065s2.017 5.233 4.275 11.173h5.45c.497 0 1.013.395 1.15.883.14.488-.15.884-.647.884" fill="#fff"/><path d="M297.758 314.894h-5.283c1.763 4.647 3.564 9.448 4.597 12.337.65 1.817 1.124 2.52.588 2.97-.166.138-.703.037-2.033-.538l-5.777-2.656-4.715-12.112h-5.89c-.495 0-1.01-.396-1.15-.883-.14-.487.15-.882.647-.882h5.705l-.67-1.727s-9.02-22.386-9.808-25.83c-1.65-7.215.82-12.042 5.184-12.04 5.358 0 13.997 10.555 17.31 15.2 0 0 .972 1.284.19 1.784-.66.422-1.515-.89-1.515-.89-3.482-4.685-7.296-9.048-10.417-11.704-2.14-1.82-7.81-5.62-5.444 1.97 2.974 9.54 8.25 22.065 8.25 22.065s2.017 5.233 4.275 11.173h5.45c.497 0 1.013.395 1.15.883.14.488-.15.884-.647.884z" fill="none" stroke="#fff" stroke-width="3" stroke-miterlimit="10"/><path d="M326.28 314.183c3.343-.06 3.74-3.065 3.642-3.71-1.264-8.08-14.737-17.413-21.456-19.506 3.04 9.617 9.813 23.36 17.813 23.216m6.958-4.357c.193 3.378-2.584 5.848-6.766 5.848-10.068 0-18.693-9.802-22.443-18.145-2.067-4.596-3.08-8.84-3.564-11.722-.312-1.874-.5-4.38-.27-5.754.495-2.943 2.435-7.095 7.862-6.882 7.795.305 18.846 10.575 22.83 16.028.272.373.61.89.032 1.235-.428.254-.955-.268-1.172-.58-2.906-4.17-13.23-13.903-18.73-14.365-2.4-.202-3.436 1.72-3.868 3.897-.406 2.057.096 7.717.828 9.972 7.057 2.228 24.828 12.952 25.26 20.466" fill="#fff"/><path d="M326.28 314.183c3.343-.06 3.74-3.065 3.642-3.71-1.264-8.08-14.737-17.413-21.456-19.506 3.04 9.617 9.813 23.36 17.813 23.216zm6.958-4.357c.193 3.378-2.584 5.848-6.766 5.848-10.068 0-18.693-9.802-22.443-18.145-2.067-4.596-3.08-8.84-3.564-11.722-.312-1.874-.5-4.38-.27-5.754.495-2.943 2.435-7.095 7.862-6.882 7.795.305 18.846 10.575 22.83 16.028.272.373.61.89.032 1.235-.428.254-.955-.268-1.172-.58-2.906-4.17-13.23-13.903-18.73-14.365-2.4-.202-3.436 1.72-3.868 3.897-.406 2.057.096 7.717.828 9.972 7.057 2.228 24.828 12.952 25.26 20.466z" fill="none" stroke="#fff" stroke-width="3" stroke-miterlimit="10"/><path d="M202.255 366.14c9.25.158 9.725-4.98 9.725-4.98s.08-3.006-5.85-4.666c-2.04-.57-9.28-2.547-17.94-4.61 2.532 6.312 6.86 14.133 14.065 14.256m-13.76-53.48c-22.157 0-33.69-11.783-33.69-18.39 0-6.594 8.163-8.865 16.733-8.968 8.57-.102 17.56 2.79 22.912 5.728 0 0 1.18.556.786 1.212-.405.674-1.615.07-1.615.07-8.515-3.77-10.985-5.275-22.082-5.653-7.274-.25-14.713 2.897-14.772 7.16-.058 4.196 11.892 13.67 32.26 13.79 21.176.126 26.134-6.906 26-13.19-.19-8.78-15.21-23.384-43.26-23.588-25.206-.184-43.38 10.2-44.996 28.038-.3 3.317 2.8 10.16 5.652 12.888 12.283 11.756 44.165 15.072 64.44 16.205l4.825 5.276c.585.64 1.365 1.825-3.694 1.506-2.54-.16-5.884-.434-9.753-.882-3.248 4-3.04 9.567-1.798 13.22.283.833.613 1.796.995 2.834 8.873 2.11 16.522 4.223 19.167 4.994 7.59 2.215 7.115 6.247 7.115 6.247s.232 6.537-11.623 6.956c-12.362.437-22.668-9.103-23.08-18.312-.736-.158-1.47-.313-2.204-.465-13.683-2.833-26.977-4.705-26.977-4.705s-1.728-.218-1.627-1.098c.105-.915 1.626-.642 1.626-.642s13.372 1.847 27.197 4.7c.676.14 1.353.284 2.03.43.01-.103.013-.206.026-.307.64-5.146 4.536-10.724 7.263-14.082-16.262-2.043-40.452-7.13-54.91-19.542-7.934-6.81-11.717-12.93-11.76-22.385-.086-19.636 24.59-29.396 46.05-29.395 38.326 0 50.726 22.913 50.726 32.408 0 8.105-7.312 17.938-27.964 17.938M242.705 347.058c-1.002-.177-.768-1.774-.768-1.774s.155-1.364.05-2.663c-.177-2.23-6.796-17.886-11.335-28.48-1.898-4.432-5.974-14.153-7.2-17.367-1.92-5.042-3.343-8.61-3.856-11.704-.81-4.87 1.128-10.474 4.916-10.948 5.624-.703 16.52 13.66 19.433 18.68 0 0 .52.756-.056 1.008-.5.22-1-.656-1-.656-2.576-3.677-9.39-13.156-14.512-16.57-3.27-2.18-4.66-1.11-4.273 2.674.2 1.956 3.356 9.605 5.932 15.698 1.31 3.1 5.537 12.88 7.404 17.145 3.583 8.177 7.84 18.575 8.165 24.344.334 5.935-1.162 9.203-2.033 10.242-.213.256-.498.437-.867.372M264.465 301.954c1.234 2.39 2.96 5.333 1.807 9.46-.657 2.34-2.137 4.337-4.727 4.337-5.476 0-13.514-11.88-13.514-11.88s-.993-1.27-.43-1.613c.484-.295 1.44.99 1.44.99s5.593 7.415 9.786 10.252c2.64 1.786 4.1.82 2.68-1.943-1.42-2.764-12.582-23.936-13.744-26.75-2.293-5.552.348-11.096 4.426-11.182 5.34-.112 13.123 10.33 13.86 12.348 0 0 .763 1.32.185 1.57-.58.25-1.194-.91-1.194-.91-4.97-7.572-10.366-11.88-12.425-11.726-1.107.083-1.046 1.983-.273 3.572 4.574 9.392 6.77 13.1 12.123 23.474M266.408 336.738c-3.332 0-5.033-3.807-5.078-5.253-.043-1.447-.315-4.572 2.973-4.704 3.97-.158 5.492 4.127 5.437 5.88-.04 1.3 0 4.078-3.332 4.078M297.758 314.894h-5.283c1.763 4.647 3.564 9.448 4.597 12.337.65 1.817 1.124 2.52.588 2.97-.166.138-.703.037-2.033-.538l-5.777-2.656-4.715-12.112h-5.89c-.495 0-1.01-.396-1.15-.883-.14-.487.15-.882.647-.882h5.705l-.67-1.727s-9.02-22.386-9.808-25.83c-1.65-7.215.82-12.042 5.184-12.04 5.358 0 13.997 10.555 17.31 15.2 0 0 .972 1.284.19 1.784-.66.422-1.515-.89-1.515-.89-3.482-4.685-7.296-9.048-10.417-11.704-2.14-1.82-7.81-5.62-5.444 1.97 2.974 9.54 8.25 22.065 8.25 22.065s2.017 5.233 4.275 11.173h5.45c.497 0 1.013.395 1.15.883.14.488-.15.884-.647.884M326.28 314.183c3.343-.06 3.74-3.065 3.642-3.71-1.264-8.08-14.737-17.413-21.456-19.506 3.04 9.617 9.813 23.36 17.813 23.216m6.958-4.357c.193 3.378-2.584 5.848-6.766 5.848-10.068 0-18.693-9.802-22.443-18.145-2.067-4.596-3.08-8.84-3.564-11.722-.312-1.874-.5-4.38-.27-5.754.495-2.943 2.435-7.095 7.862-6.882 7.795.305 18.846 10.575 22.83 16.028.272.373.61.89.032 1.235-.428.254-.955-.268-1.172-.58-2.906-4.17-13.23-13.903-18.73-14.365-2.4-.202-3.436 1.72-3.868 3.897-.406 2.057.096 7.717.828 9.972 7.057 2.228 24.828 12.952 25.26 20.466" fill="#2151a8"/></g></svg>