<svg xmlns="http://www.w3.org/2000/svg" width="400" height="258.607"><path d="M13.985 219.978c-.195 1.28-.28 2.734-.28 4.352l-.132.135-9.225-.083c-1.543 0-2.637.027-3.266.083l-.127-.135v-.367l.063-.162c.63-.41.963-.67 1.015-.778.08-.164.116-.75.143-1.752l.037-2.955v-6.686c0-2.09-.064-3.458-.168-4.09-.038-.25-.19-.416-.435-.487-.13-.038-.618-.08-1.48-.135L0 206.79v-.9l.13-.115c.847.053 2.173.075 3.963.075 1.596 0 4.618-.02 9.083-.075l.142.1-.168 1.47c-.053.464-.09.86-.116 1.183l-.09 1.225-.127.15h-.735l-.13-.135c-.013-1.195-.076-1.877-.207-2.045-.09-.124-.54-.22-1.363-.288-.81-.072-1.528-.105-2.146-.105-.745 0-1.48.03-2.24.09-.09.925-.142 2.206-.142 3.842v2.727c.67.044 1.21.066 1.622.066l1.674-.015c.77-.005 1.22-.07 1.31-.193.143-.16.233-.753.27-1.783l.128-.13h.786l.128.13c-.027.985-.05 1.884-.05 2.704 0 .888.022 1.86.05 2.914l-.128.12h-.85l-.127-.13c0-1.012-.064-1.615-.206-1.803-.127-.192-.54-.315-1.22-.375-.517-.045-1.068-.068-1.66-.068-.617 0-1.183.02-1.726.068v4.022c0 1.154.027 2.266.064 3.348h1.726c2.468 0 3.99-.097 4.555-.303.088-.034.152-.082.204-.142.075-.124.154-.39.233-.79l.307-1.637.127-.15h.773l.142.135zM42.236 224.33l-.128.135c-.84-.057-2.15-.083-3.914-.083-1.812 0-3.123.027-3.91.083l-.116-.124v-.894l.13-.13c.863-.053 1.35-.098 1.48-.132.244-.07.386-.232.435-.487.105-.637.157-1.996.157-4.09v-8.914l-2.83 6.023c-.155.333-.71 1.565-1.65 3.693l-2.325 5.276h-.85c-.438-1.09-1.03-2.468-1.786-4.128l-1.777-3.917-3.333-7.186v9.153c0 2.094.052 3.453.168 4.09.038.255.18.416.424.487.127.034.63.08 1.49.13l.13.132v.895l-.13.125c-.977-.057-1.876-.083-2.71-.083-.98 0-1.96.027-2.938.083l-.127-.124v-.894l.127-.13c.865-.053 1.352-.098 1.48-.132.247-.07.39-.232.438-.487.105-.637.168-1.996.168-4.09v-6.977c0-2.09-.064-3.457-.168-4.09-.05-.25-.19-.416-.438-.487-.128-.038-.615-.08-1.48-.135l-.127-.127v-.898l.127-.116c.877.052 1.997.074 3.334.074 1.04 0 1.943-.02 2.715-.074.27.666.667 1.606 1.183 2.82l.824 1.82 4.038 8.77 1.944-4.088 3.037-6.738c.344-.802.692-1.663 1.04-2.584.952.052 1.596.074 1.93.074 1.658 0 2.92-.02 3.808-.074l.127.116v.91l-.127.116c-.86.056-1.363.097-1.494.135-.244.07-.386.236-.423.487-.115.632-.168 2-.168 4.09v6.977c0 2.094.053 3.453.17 4.09.036.254.178.416.422.487.13.034.633.078 1.494.13l.127.132v.884zM61.044 218.435c0 2.206-1.03 3.918-3.086 5.13-1.02.597-2.33.9-3.925.9-.513 0-.94-.006-1.262-.015l-3.033-.067c-1.082 0-1.933.026-2.524.082l-.128-.135v-.367l.064-.16c.632-.413.966-.67 1.018-.78.075-.157.127-.74.138-1.753l.042-2.955v-6.685c0-2.09-.053-3.457-.17-4.09-.036-.25-.178-.416-.422-.487-.13-.037-.633-.08-1.494-.135l-.128-.127v-.898l.128-.116c.76.053 2.06.075 3.887.075 1.168 0 2.224-.017 3.16-.063.75-.037 1.38-.052 1.896-.052 2.363 0 3.91.558 4.655 1.674.387.59.58 1.265.58 2.033 0 1.243-.463 2.284-1.403 3.123-.45.394-.925.69-1.4.884-.566.22-1.173.408-1.828.566 3.485.157 5.234 1.63 5.234 4.42m-4.438-8.35c0-1.943-.977-2.917-2.92-2.917-.645 0-1.196.037-1.634.108-.037.92-.052 1.775-.052 2.558v3.64c.194.015.58.027 1.157.027 1.547 0 2.547-.51 3.026-1.528.28-.592.423-1.22.423-1.887m.54 8.756c0-2.637-1.326-3.955-4-3.955-.334 0-.72.014-1.146.036v6.11c0 .654.015 1.302.052 1.935.348.065.824.095 1.453.095 1.184 0 2.098-.386 2.742-1.157.603-.742.9-1.76.9-3.064M84.316 224.33l-.116.135c-1.88-.057-3.022-.083-3.408-.083-1.558 0-3.01.027-4.348.083l-.105-.135v-.832l.115-.142 1.108-.067c.476-.028.704-.2.704-.518 0-.184-.127-.596-.36-1.236l-1.025-2.783c-1.173-.02-2.367-.027-3.577-.027-.67 0-1.648.003-2.948.027l-.565 1.61c-.423 1.218-.63 1.985-.63 2.293 0 .333.19.53.592.59.218.04.656.073 1.3.11l.127.127v.847l-.126.134c-1.573-.056-2.573-.082-3.026-.082-.345 0-1.21.027-2.573.082l-.128-.123v-.857l.128-.127c.876-.056 1.415-.236 1.61-.543.206-.307.95-2.142 2.25-5.502l3.308-8.61c.244-.67.614-1.674 1.116-3.018h1.8l6.742 16.445c.26.626.49.978.708 1.057.285.105.682.157 1.21.157l.116.143v.847zm-8.052-7.094l-2.727-6.914-2.6 6.914c.694.02 1.597.038 2.7.038 1.08 0 1.957-.015 2.627-.038M96.537 206.803l-.127.116c-.862.052-1.364.097-1.495.134-.243.067-.386.232-.423.487-.116.64-.17 2.005-.17 4.087v9.813c0 1.77-.18 3.146-.538 4.127-.423 1.127-1.172 2.18-2.24 3.154-1.183 1.072-2.303 1.61-3.382 1.61-.348 0-.693-.066-1.04-.198.05-.66.063-1.472.063-2.438l.296-.187c.682.644 1.29.962 1.813.962.734 0 1.135-.4 1.225-1.2.1-1.036.165-2.595.165-4.666v-10.977c0-2.083-.064-3.446-.165-4.086-.04-.254-.195-.42-.438-.486-.053-.018-.644-.064-1.775-.135l-.132-.132v-.895l.132-.12c1.168.056 2.573.08 4.194.08 1.838 0 3.15-.022 3.91-.08l.127.12v.91zM119.038 224.33l-.116.135c-1.88-.057-3.01-.083-3.397-.083-1.554 0-3.01.027-4.348.083l-.117-.135v-.832l.132-.142 1.105-.067c.464-.028.696-.2.696-.518 0-.184-.116-.596-.348-1.236l-1.03-2.783c-1.17-.02-2.367-.027-3.588-.027-.656 0-1.648.003-2.948.027l-.555 1.61c-.423 1.218-.64 1.985-.64 2.293 0 .333.206.53.603.59.22.04.644.073 1.288.11l.127.127v.847l-.127.134c-1.558-.056-2.573-.082-3.026-.082-.345 0-1.195.027-2.573.082l-.128-.123v-.857l.142-.127c.872-.056 1.4-.236 1.606-.543.195-.307.94-2.142 2.24-5.502l3.318-8.61c.244-.67.618-1.674 1.12-3.018h1.802l6.726 16.445c.27.626.502.978.708 1.057.285.105.682.157 1.21.157l.116.143v.847zm-8.052-7.094l-2.716-6.914-2.6 6.914c.683.02 1.596.038 2.7.038 1.07 0 1.945-.015 2.615-.038M142.27 214.016c0 2.98-.924 5.45-2.804 7.412-.914.96-2.02 1.704-3.33 2.228-1.39.573-3.026.84-4.89.806l-4.477-.08c-1.222-.014-2.226.013-3.023.08l-.128-.13v-.368l.063-.162c.63-.412.963-.67 1.015-.78.08-.156.116-.74.142-1.75l.038-2.956v-6.686c0-2.093-.064-3.457-.17-4.09-.036-.254-.19-.415-.433-.487-.13-.037-.618-.078-1.48-.134l-.13-.132v-.895l.13-.116c.9.052 1.75.074 2.56.074 1.98 0 3.755-.02 5.34-.073.782-.03 1.58-.042 2.378-.042 2.198 0 3.884.26 5.056.775 1.283.574 2.302 1.472 3.02 2.693.747 1.255 1.12 2.858 1.12 4.813m-3.898.637c0-2.438-.565-4.315-1.696-5.622-.592-.684-1.337-1.167-2.225-1.448-.85-.266-2.022-.397-3.538-.397-.798 0-1.543.056-2.266.172-.087.985-.128 3.367-.128 7.146l.027 5.764c.015 1.285.038 2.14.1 2.558.75.123 1.507.183 2.293.183 1.686 0 3.012-.25 3.99-.764 1.04-.554 1.876-1.49 2.494-2.82.644-1.374.95-2.962.95-4.77M165.273 224.33l-.116.135c-1.876-.057-3.023-.083-3.408-.083-1.56 0-3.012.027-4.35.083l-.104-.135v-.832l.116-.142 1.108-.067c.476-.028.704-.2.704-.518 0-.184-.127-.596-.36-1.236l-1.026-2.783c-1.172-.02-2.367-.027-3.576-.027-.67 0-1.648.003-2.948.027l-.565 1.61c-.425 1.218-.63 1.985-.63 2.293 0 .333.19.53.59.59.218.04.657.073 1.3.11l.128.127v.847l-.127.134c-1.572-.056-2.572-.082-3.025-.082-.345 0-1.21.027-2.573.082l-.128-.123v-.857l.128-.127c.876-.056 1.415-.236 1.61-.543.206-.307.95-2.142 2.25-5.502l3.308-8.61c.244-.67.618-1.674 1.116-3.018h1.802l6.74 16.445c.26.626.492.978.71 1.057.284.105.68.157 1.21.157l.115.143v.847zm-8.052-7.094l-2.726-6.914-2.6 6.914c.694.02 1.596.038 2.7.038 1.083 0 1.956-.015 2.627-.038M197.19 214.016c0 2.98-.94 5.45-2.805 7.412-.914.96-2.034 1.704-3.33 2.228-1.404.573-3.026.84-4.89.806l-4.492-.08c-1.206-.014-2.224.013-3.022.08l-.127-.13v-.368l.064-.162c.633-.412.967-.67 1.02-.78.074-.156.126-.74.137-1.75l.042-2.956v-6.686c0-2.093-.053-3.457-.17-4.09-.036-.254-.18-.415-.422-.487-.13-.037-.633-.078-1.495-.134l-.128-.132v-.895l.127-.116c.902.052 1.763.074 2.572.074 1.97 0 3.746-.02 5.326-.073.798-.03 1.585-.042 2.382-.042 2.2 0 3.884.26 5.068.775 1.284.574 2.288 1.472 3.022 2.693.745 1.255 1.12 2.858 1.12 4.813m-3.9.637c0-2.438-.564-4.315-1.71-5.622-.592-.684-1.323-1.167-2.21-1.448-.85-.266-2.034-.397-3.55-.397-.787 0-1.548.056-2.267.172-.075.985-.116 3.367-.116 7.146l.027 5.764c0 1.285.038 2.14.09 2.558.746.123 1.517.183 2.29.183 1.684 0 3.01-.25 3.987-.764 1.058-.554 1.893-1.49 2.51-2.82.63-1.374.952-2.962.952-4.77M215.368 219.978c-.195 1.28-.285 2.734-.285 4.352l-.127.135-9.225-.083c-1.542 0-2.636.027-3.265.083l-.13-.135v-.367l.067-.162c.63-.41.962-.67 1.015-.778.08-.164.116-.75.142-1.752l.037-2.955v-6.686c0-2.09-.064-3.458-.17-4.09-.037-.25-.19-.416-.434-.487-.13-.038-.618-.08-1.48-.135l-.13-.128v-.9l.13-.115c.847.053 2.173.075 3.964.075 1.59 0 4.617-.02 9.082-.075l.137.1-.165 1.47c-.052.464-.09.86-.115 1.183l-.09 1.225-.132.15h-.73l-.13-.135c-.013-1.195-.076-1.877-.207-2.045-.09-.124-.54-.22-1.363-.288-.81-.072-1.532-.105-2.146-.105-.75 0-1.48.03-2.24.09-.09.925-.143 2.206-.143 3.842v2.727c.67.044 1.21.066 1.62.066l1.672-.015c.774-.005 1.223-.07 1.313-.193.143-.16.233-.753.27-1.783l.127-.13h.787l.127.13c-.027.985-.052 1.884-.052 2.704 0 .888.027 1.86.052 2.914l-.127.12h-.85l-.128-.13c0-1.012-.064-1.615-.206-1.803-.13-.192-.54-.315-1.22-.375-.518-.045-1.073-.068-1.664-.068-.615 0-1.184.02-1.723.068v4.022c0 1.154.027 2.266.064 3.348h1.727c2.468 0 3.985-.097 4.554-.303.088-.034.155-.082.204-.142.08-.124.157-.39.232-.79l.31-1.637.128-.15h.772l.142.135zM240.736 205.878l-.168 1.505c-.027.334-.064.772-.113 1.315l-.067 1.056-.128.146h-.745l-.116-.13c-.028-1.188-.09-1.866-.207-2.03-.195-.274-1.378-.41-3.55-.41-.35 0-.888.028-1.633.076-.09.9-.143 2.51-.143 4.83v1.78l1.442.042c.422.006 1.22-.012 2.39-.053.23-.012.384-.074.463-.198.127-.21.206-.79.232-1.746l.116-.126h.8l.126.127c-.037.987-.052 1.89-.052 2.71 0 .887.015 1.857.052 2.913l-.127.116h-.862l-.116-.128c0-.925-.042-1.464-.116-1.625-.143-.307-.58-.49-1.31-.555-.507-.04-.994-.063-1.47-.063-.59 0-1.104.01-1.57.036v3.14c0 2.085.054 3.444.166 4.092.042.25.184.416.427.487.063.015.67.06 1.827.13l.127.132v.884l-.142.132-5.105-.078c-.734-.012-1.738.015-3.026.078l-.127-.12v-.895l.128-.13c.862-.057 1.353-.098 1.48-.132.247-.07.4-.236.438-.487.105-.648.17-2.007.17-4.093v-6.974c0-2.085-.065-3.448-.17-4.09-.037-.254-.19-.415-.438-.486-.127-.037-.618-.08-1.48-.135l-.127-.132v-.895l.128-.12c.814.057 2.113.08 3.915.08 1.157 0 4.01-.022 8.554-.08l.126.105zM252.983 224.33l-.116.135c-.85-.057-2.15-.083-3.925-.083-1.76 0-3.06.027-3.91.083l-.116-.135v-.884l.13-.13c.862-.054 1.364-.098 1.492-.132.243-.07.385-.233.423-.487.117-.637.17-1.996.17-4.09v-6.978c0-2.09-.053-3.458-.17-4.09-.037-.25-.18-.416-.422-.487-.128-.038-.63-.08-1.49-.135l-.132-.128v-.898l.13-.117c.81.053 2.12.075 3.91.075 1.788 0 3.087-.02 3.9-.075l.127.117v.898l-.127.128c-.865.056-1.352.097-1.48.135-.247.07-.4.236-.438.487-.105.632-.168 2-.168 4.09v6.977c0 2.094.063 3.453.168 4.09.038.254.19.416.44.487.126.034.613.078 1.478.13l.127.132v.884zM277.027 206.79l-.127.13c-.876.053-1.367.098-1.494.132-.244.07-.386.235-.438.49-.1.63-.154 1.996-.154 4.086v5.356c0 3.948.053 6.52.154 7.715l-.154.115c-.962-.164-1.685-.28-2.172-.352-2.277-2.648-6.15-7.475-11.633-14.483v8.626c0 2.093.066 3.457.168 4.09.052.254.194.42.438.486.127.034.618.08 1.48.13l.127.136v.895l-.128.12c-.966-.052-1.876-.082-2.715-.082-.978 0-1.955.03-2.933.083l-.127-.12v-.895l.127-.135c.862-.052 1.364-.097 1.495-.13.243-.068.385-.233.423-.488.116-.632.165-1.996.165-4.09v-6.977c0-2.09-.05-3.457-.165-4.086-.038-.255-.18-.42-.423-.49-.13-.034-.633-.08-1.495-.132l-.127-.13v-.9l.127-.116c.813.053 1.57.075 2.304.075 1.147 0 2.083-.022 2.843-.076 3.05 4.218 6.626 8.742 10.742 13.57v-7.716c0-2.09-.053-3.457-.165-4.086-.04-.255-.184-.42-.427-.49-.127-.034-.63-.08-1.49-.13l-.132-.132v-.9l.133-.115c.95.052 1.85.075 2.7.075 1.094 0 2.082-.02 2.96-.075l.115.116v.9zM294.845 219.978c-.18 1.28-.27 2.734-.27 4.352l-.13.135-9.236-.083c-1.545 0-2.623.027-3.267.083l-.128-.135v-.367l.064-.162c.628-.41.962-.67 1.014-.778.08-.157.127-.74.142-1.752l.038-2.955v-6.686c0-2.09-.053-3.458-.17-4.09-.036-.25-.178-.416-.422-.487-.127-.038-.63-.08-1.49-.135l-.13-.128v-.9l.13-.115c.872.053 2.146.075 3.83.075 1.75 0 3.076-.02 3.98-.075l.126.116v.912l-.127.116c-.865.056-1.352.097-1.48.134-.246.072-.385.236-.437.487-.105.632-.153 2-.153 4.09v7.887c0 1.153.012 2.266.063 3.348h1.723c2.468 0 3.99-.097 4.543-.303.09-.034.164-.083.2-.143.095-.124.17-.39.248-.79l.296-1.638.127-.15h.788l.127.135zM317.615 224.33l-.116.135c-1.877-.057-3.023-.083-3.41-.083-1.557 0-3.01.027-4.347.083l-.105-.135v-.832l.116-.142 1.11-.067c.474-.028.706-.2.706-.518 0-.184-.13-.596-.363-1.236l-1.026-2.783c-1.17-.02-2.366-.027-3.576-.027-.67 0-1.648.003-2.947.027l-.566 1.61c-.422 1.218-.628 1.985-.628 2.293 0 .333.19.53.592.59.217.04.655.073 1.3.11l.127.127v.847l-.127.134c-1.57-.056-2.573-.082-3.026-.082-.345 0-1.206.027-2.573.082l-.127-.123v-.857l.127-.127c.876-.056 1.416-.236 1.61-.543.206-.307.952-2.142 2.25-5.502l3.31-8.61c.242-.67.616-1.674 1.118-3.018h1.802l6.738 16.445c.258.626.49.978.708 1.057.284.105.68.157 1.21.157l.115.143v.847zm-8.052-7.094l-2.727-6.914-2.6 6.914c.694.02 1.597.038 2.7.038 1.084 0 1.957-.015 2.627-.038M341.247 206.79l-.127.13c-.876.053-1.363.098-1.494.132-.244.07-.386.235-.438.49-.1.63-.154 1.996-.154 4.086v5.356c0 3.948.053 6.52.154 7.715l-.154.115c-.962-.164-1.685-.28-2.172-.352-2.277-2.648-6.15-7.475-11.63-14.483v8.626c0 2.093.065 3.457.165 4.09.053.254.195.42.44.486.126.034.617.08 1.478.13l.127.136v.895l-.127.12c-.966-.052-1.876-.082-2.715-.082-.978 0-1.955.03-2.933.083l-.127-.12v-.895l.127-.135c.862-.052 1.363-.097 1.495-.13.243-.068.385-.233.423-.488.116-.632.165-1.996.165-4.09v-6.977c0-2.09-.05-3.457-.165-4.086-.038-.255-.18-.42-.423-.49-.13-.034-.633-.08-1.495-.132l-.127-.13v-.9l.127-.116c.813.053 1.57.075 2.304.075 1.147 0 2.083-.022 2.843-.076 3.05 4.218 6.626 8.742 10.742 13.57v-7.716c0-2.09-.053-3.457-.165-4.086-.04-.255-.183-.42-.427-.49-.127-.034-.63-.08-1.49-.13l-.132-.132v-.9l.132-.115c.952.052 1.85.075 2.7.075 1.094 0 2.083-.02 2.96-.075l.115.116v.9zM364.7 214.016c0 2.98-.94 5.45-2.806 7.412-.914.96-2.03 1.704-3.33 2.228-1.404.573-3.026.84-4.89.806l-4.488-.08c-1.21-.014-2.228.013-3.026.08l-.127-.13v-.368l.064-.162c.633-.412.966-.67 1.018-.78.075-.156.128-.74.14-1.75l.04-2.956v-6.686c0-2.093-.053-3.457-.17-4.09-.036-.254-.178-.415-.422-.487-.13-.037-.633-.078-1.494-.134l-.128-.132v-.895l.127-.116c.9.052 1.763.074 2.572.074 1.97 0 3.745-.02 5.326-.073.797-.03 1.584-.042 2.382-.042 2.198 0 3.884.26 5.067.775 1.285.574 2.288 1.472 3.023 2.693.745 1.255 1.12 2.858 1.12 4.813m-3.9.637c0-2.438-.565-4.315-1.707-5.622-.596-.684-1.326-1.167-2.214-1.448-.85-.266-2.034-.397-3.55-.397-.788 0-1.548.056-2.267.172-.075.985-.117 3.367-.117 7.146l.027 5.764c0 1.285.038 2.14.09 2.558.746.123 1.517.183 2.292.183 1.682 0 3.008-.25 3.985-.764 1.057-.554 1.892-1.49 2.51-2.82.63-1.374.95-2.962.95-4.77M377.18 224.33l-.117.135c-.85-.057-2.16-.083-3.925-.083-1.76 0-3.075.027-3.91.083l-.117-.135v-.884l.133-.13c.86-.054 1.348-.098 1.48-.132.243-.07.385-.233.433-.487.105-.637.17-1.996.17-4.09v-6.978c0-2.09-.065-3.458-.17-4.09-.048-.25-.19-.416-.434-.487-.13-.038-.618-.08-1.48-.135l-.13-.128v-.898l.13-.117c.81.053 2.11.075 3.91.075 1.787 0 3.087-.02 3.9-.075l.127.117v.898l-.128.128c-.866.056-1.364.097-1.495.135-.243.07-.386.236-.423.487-.116.632-.168 2-.168 4.09v6.977c0 2.094.052 3.453.168 4.09.037.254.18.416.423.487.13.034.63.078 1.495.13l.127.132v.884zM400 224.33l-.116.135c-1.876-.057-3.01-.083-3.397-.083-1.554 0-3.007.027-4.348.083l-.117-.135v-.832l.13-.142 1.106-.067c.463-.028.695-.2.695-.518 0-.184-.116-.596-.348-1.236l-1.03-2.783c-1.17-.02-2.367-.027-3.588-.027-.656 0-1.65.003-2.95.027l-.55 1.61c-.426 1.218-.643 1.985-.643 2.293 0 .333.206.53.603.59.22.04.644.073 1.288.11l.127.127v.847l-.127.134c-1.558-.056-2.573-.082-3.022-.082-.35 0-1.2.027-2.577.082l-.13-.123v-.857l.144-.127c.876-.056 1.4-.236 1.607-.543.195-.307.94-2.142 2.24-5.502l3.32-8.61c.242-.67.617-1.674 1.118-3.018h1.802l6.726 16.445c.27.626.502.978.708 1.057.285.105.682.157 1.21.157l.116.143v.847zm-8.052-7.094l-2.716-6.914-2.6 6.914c.683.02 1.597.038 2.705.038 1.068 0 1.94-.015 2.61-.038M143.3 257.973l-.127.135c-.84-.056-2.14-.082-3.914-.082-1.814 0-3.113.027-3.91.082l-.117-.12v-.895l.13-.135c.862-.052 1.364-.097 1.492-.13.243-.072.385-.233.423-.487.116-.632.168-1.996.168-4.09v-8.913l-2.83 6.022c-.166.333-.71 1.565-1.66 3.696l-2.315 5.273h-.85c-.45-1.09-1.04-2.47-1.8-4.128l-1.776-3.918-3.318-7.187v9.154c0 2.094.052 3.458.153 4.09.052.255.194.416.437.487.13.034.618.08 1.48.13l.13.136v.895l-.13.12c-.963-.056-1.877-.082-2.716-.082-.976 0-1.954.027-2.93.082l-.128-.12v-.895l.127-.135c.864-.052 1.362-.097 1.493-.13.244-.072.386-.233.423-.487.116-.632.17-1.996.17-4.09v-6.977c0-2.09-.054-3.457-.17-4.09-.037-.25-.18-.415-.423-.487-.13-.037-.63-.078-1.494-.13l-.128-.132v-.9l.127-.115c.887.052 1.995.074 3.343.074 1.03 0 1.933-.02 2.705-.075.28.666.68 1.61 1.194 2.82l.813 1.82 4.037 8.77 1.944-4.088 3.034-6.738c.363-.802.708-1.663 1.045-2.585.95.052 1.592.074 1.93.074 1.658 0 2.93-.02 3.808-.075l.127.115v.91l-.127.12c-.865.053-1.352.094-1.48.132-.247.07-.4.235-.438.486-.105.633-.168 2-.168 4.09v6.978c0 2.094.063 3.458.168 4.09.038.255.19.416.438.488.128.033.615.078 1.48.13l.127.135v.88zM166.02 257.973l-.117.135c-1.88-.056-3.022-.082-3.408-.082-1.558 0-3.01.027-4.35.082l-.103-.135v-.83l.116-.143 1.108-.068c.476-.027.708-.198.708-.513 0-.188-.13-.6-.363-1.24l-1.025-2.783c-1.173-.02-2.367-.027-3.577-.027-.67 0-1.648.003-2.948.027l-.565 1.61c-.424 1.217-.63 1.985-.63 2.292 0 .333.19.53.592.59.217.038.656.072 1.3.11l.127.13v.843l-.127.135c-1.57-.056-2.573-.082-3.026-.082-.344 0-1.21.026-2.572.082l-.128-.12v-.858l.128-.13c.876-.057 1.415-.237 1.61-.544.206-.307.95-2.138 2.25-5.498l3.308-8.614c.243-.67.614-1.674 1.12-3.02h1.798l6.74 16.447c.26.626.492.978.71 1.057.284.105.68.157 1.21.157l.115.146v.843zm-8.053-7.093l-2.727-6.914-2.6 6.914c.694.02 1.596.037 2.7.037 1.08 0 1.956-.015 2.627-.037M189.65 240.433l-.14.13c-.862.054-1.364.1-1.48.136-.26.067-.397.23-.438.486-.116.63-.165 1.996-.165 4.086v5.356c0 3.947.05 6.52.165 7.715l-.165.12c-.955-.17-1.686-.285-2.176-.356-2.26-2.648-6.134-7.475-11.617-14.483v8.626c0 2.093.052 3.457.168 4.09.043.254.18.42.428.486.128.034.63.08 1.49.132l.128.134v.896l-.127.12c-.978-.053-1.877-.08-2.716-.08-.978 0-1.955.028-2.933.08l-.126-.12v-.896l.127-.134c.863-.053 1.353-.098 1.48-.132.244-.067.386-.232.44-.487.1-.633.152-1.997.152-4.09v-6.978c0-2.09-.052-3.457-.153-4.086-.054-.255-.196-.42-.44-.487-.127-.038-.617-.083-1.48-.136l-.126-.13v-.9l.127-.116c.8.052 1.57.08 2.293.08 1.143 0 2.094-.028 2.843-.08 3.05 4.217 6.637 8.745 10.753 13.57v-7.716c0-2.09-.065-3.457-.17-4.086-.05-.255-.19-.42-.434-.487-.13-.04-.618-.084-1.48-.136l-.13-.13v-.9l.13-.116c.937.052 1.84.078 2.7.078 1.094 0 2.072-.027 2.948-.078l.127.116v.9zM212.293 257.973l-.116.135c-1.88-.056-3.022-.082-3.408-.082-1.56 0-3.012.027-4.35.082l-.104-.135v-.83l.116-.143 1.11-.068c.474-.027.706-.198.706-.513 0-.188-.13-.6-.363-1.24l-1.026-2.783c-1.173-.02-2.368-.027-3.578-.027-.67 0-1.648.003-2.947.027l-.566 1.61c-.424 1.217-.63 1.985-.63 2.292 0 .333.19.53.592.59.217.038.655.072 1.3.11l.127.13v.843l-.13.135c-1.572-.056-2.572-.082-3.025-.082-.345 0-1.21.026-2.573.082l-.127-.12v-.858l.127-.13c.876-.057 1.416-.237 1.61-.544.206-.307.952-2.138 2.25-5.498l3.308-8.614c.244-.67.615-1.674 1.117-3.02h1.8l6.743 16.447c.258.626.49.978.707 1.057.285.105.682.157 1.21.157l.116.146v.843zm-8.052-7.093l-2.73-6.914-2.595 6.914c.693.02 1.596.037 2.7.037 1.08 0 1.956-.015 2.626-.037M235.526 251.367l-.127.143c-.53.135-.84.314-.915.55-.09.232-.127 1.12-.127 2.67 0 .75.037 1.488.1 2.214-2.83 1.11-5.39 1.663-7.692 1.663-3.038 0-5.495-.88-7.37-2.644-1.866-1.764-2.806-4.165-2.806-7.206 0-3.97 1.648-6.794 4.966-8.483 1.517-.772 3.434-1.16 5.775-1.16 1.353 0 2.728.152 4.117.463 1.146.255 2.045.543 2.7.87l.117.235c-.218.775-.397 2.12-.54 4.038l-.142.13h-.756l-.13-.13c0-.17-.028-.513-.05-1.038-.042-.52-.08-.887-.13-1.097-.372-.528-1.016-.978-1.904-1.348-.966-.386-2.007-.58-3.127-.58-2.996 0-5.068 1.257-6.214 3.77-.527 1.162-.78 2.51-.78 4.038 0 2.446.628 4.472 1.875 6.08 1.3 1.673 2.996 2.508 5.094 2.508 1.107 0 2.175-.247 3.216-.738.052-.618.09-1.46.09-2.535 0-.87-.038-1.397-.09-1.585-.053-.138-.217-.24-.487-.3-.233-.052-.94-.12-2.15-.202l-.143-.127v-.83l.142-.132c1.235.033 2.52.045 3.857.037.786-.005 1.944-.02 3.502-.036l.126.13v.634zM258.515 240.433l-.127.13c-1.004 0-1.57.278-1.7.833-.064.307-.116.974-.143 2.003-.02.764-.037 1.868-.037 3.314v4.06c0 2.61-.502 4.476-1.49 5.588-1.316 1.483-3.18 2.22-5.61 2.22-2.226 0-3.95-.385-5.196-1.15-1.056-.65-1.738-1.572-2.06-2.767-.206-.767-.307-2.764-.307-5.988v-3.405c0-2.09-.053-3.457-.157-4.086-.053-.255-.19-.42-.44-.487-.126-.038-.613-.083-1.49-.136l-.116-.13v-.885l.117-.132c.823.052 2.122.08 3.924.08 1.824 0 3.123-.028 3.895-.08l.115.13v.885l-.116.13c-.874.054-1.364.1-1.492.136-.243.067-.386.23-.423.486-.116.63-.17 1.996-.17 4.086v2.72c0 3.32.144 5.355.425 6.104.58 1.476 1.996 2.217 4.258 2.217 1.48 0 2.637-.378 3.476-1.135.385-.36.655-.726.81-1.097.152-.366.268-.935.347-1.71.076-.723.117-1.454.117-2.192v-2.74c0-2.304 0-3.877-.027-4.724-.015-.79-.064-1.307-.153-1.543-.068-.175-.206-.31-.438-.407-.196-.08-.72-.146-1.57-.2l-.117-.13v-.884l.116-.132c.745.052 1.505.08 2.276.08.592 0 1.712-.028 3.37-.08l.13.13v.885zM280.99 257.973l-.116.135c-1.88-.056-3.022-.082-3.408-.082-1.558 0-3.01.027-4.348.082l-.105-.135v-.83l.116-.143 1.107-.068c.476-.027.708-.198.708-.513 0-.188-.13-.6-.363-1.24l-1.03-2.783c-1.17-.02-2.363-.027-3.573-.027-.672 0-1.65.003-2.95.027l-.564 1.61c-.423 1.217-.63 1.985-.63 2.292 0 .333.19.53.592.59.218.038.656.072 1.3.11l.127.13v.843l-.127.135c-1.573-.056-2.573-.082-3.026-.082-.345 0-1.21.026-2.573.082l-.13-.12v-.858l.13-.13c.875-.057 1.414-.237 1.61-.544.205-.307.95-2.138 2.25-5.498l3.307-8.614c.244-.67.614-1.674 1.116-3.02h1.802l6.74 16.447c.26.626.492.978.71 1.057.284.105.68.157 1.21.157l.115.146v.843zm-8.052-7.093l-2.73-6.914-2.596 6.914c.693.02 1.595.037 2.7.037 1.08 0 1.955-.015 2.626-.037" fill="#004990"/><path d="M131.85 102.764c-1.336-39.66 28.53-72.92 66.723-74.303 38.187-1.373 70.24 29.664 71.584 69.323 1.345 39.652-28.52 72.925-66.715 74.296-38.187 1.377-70.24-29.657-71.59-69.316" fill="#4f6da9"/><path d="M145.27 60.347c.373-.558.75-1.112 1.137-1.66 3.28-4.666 7.225-8.31 11.6-11.08-1.29 3.65-1.592 7.688-.716 12.02l.072.316c-5.255 3.78-10.01 8.206-13.985 13.277-.558-4.63.135-8.955 1.89-12.873m-1.28 16.202c3.836-5.24 8.588-9.99 14.038-14.11 1.685 5.334 5.05 10.41 9.63 14.97-4.67 5.716-8.82 11.814-12.282 18.076-5.745-5.817-9.753-12.28-11.385-18.937m48.48-19.364c.9-.65 1.815-1.277 2.714-1.876.464-1.06.805-2.277 1.056-3.465-2.723 1.697-5.404 3.562-8.026 5.562 1.023-.05 2.367-.135 4.255-.22m13.57 97.478c-1.237 4.158-2.503 7.44-3.728 9.925-4.836-.273-9.693-.985-14.487-2.086-5.042-1.15-10.053-2.7-14.877-4.693-.045-3.79.446-8.957 1.704-15.61-.72-.49-1.39-.928-2.075-1.366-1.217 6.255-1.88 11.67-1.91 16.01-8.36-3.722-16.07-8.774-22.314-15.302-1.557-5.333-1.82-11.828-.47-19.333 4.276 4.036 9.242 7.766 14.77 11.032l-.006-.142c0-.794.25-1.532.64-2.206-5.62-3.382-10.636-7.24-14.85-11.405 1.506-6.69 4.09-13.52 7.525-20.2 1.68 1.544 3.46 3.027 5.36 4.458.572-.648 1.163-1.236 1.714-1.648-2.127-1.584-4.11-3.232-5.948-4.947.637-1.158 1.292-2.315 1.97-3.457l.064-.11c2.98-5.036 6.43-9.924 10.225-14.572.277.247.554.495.84.742.17-1.67.25-3.517.092-5.46-.37.434-.753.868-1.123 1.31-4.49-4.502-7.7-9.468-9.165-14.603 5.246-3.7 11.085-6.835 17.317-9.262l.034.102c.627-.27 1.406-.562 2.143-.828 5.543-2.078 11.397-3.513 17.42-4.303l-.54-2.16c-5.816.83-11.707 2.27-17.453 4.28-.546-2.932-.097-5.714 1.21-8.198 5.494-.427 11.082-.1 16.506.84-.296.94-.394 1.973-.263 3.078.97-.225 1.39-.337 2.263-.423-.057-.76.063-1.502.348-2.21 2.374.487 4.682 1.082 6.94 1.787-1.854.048-3.723.183-5.61.363.052.408.453 1.277 1.048 2.176 1.925-.146 3.862-.23 5.81-.24-1.447.64-2.888 1.33-4.323 2.075.752.715 1.568 1.165 2.25.925 3.7-1.284 4.427-1.794 7.506-4.337 0 2.798.56 5.88.85 6.513.753 1.71 1.453 2.598 2.086 3.033-.247-1.99-.517-3.895-.82-5.727 1.726 1.858 3.378 3.824 4.966 5.9.79-.117 1.64-.3 2.45-.6-1.356-1.813-2.75-3.543-4.2-5.2 2.252 1.136 4.454 2.37 6.574 3.694l.18.12c.348.22 1.146.727 2.06 1.33 1.104.73 2.172 1.483 3.236 2.254.554 0 1.168-.006 1.85-.006l2.974 1.053c-2.18-1.786-4.41-3.46-6.67-5.007.53-.89.876-1.883.977-2.973 5.272 1.558 10.418 3.734 15.148 6.57.18 2.89-.614 5.598-2.254 7.97-.847-.86-1.716-1.705-2.596-2.525l-2.116.928c1.157 1.06 2.28 2.146 3.375 3.266-.38.408-.79.805-1.236 1.187.66.516 1.218 1.074 1.694 1.66.412-.368.812-.743 1.183-1.132 4.87 5.243 9.01 10.992 12.292 17.01-3.33 3.63-8.06 6.59-13.9 8.596-.726-2.62-1.543-5.23-2.445-7.804-.61.382-1.28.768-2.027 1.15.618 1.783 1.2 3.588 1.73 5.404.518 1.41.903 2.862 1.166 4.188 1.146.7 1.442.374 2.805 1.786-.2-.83-.413-1.655-.62-2.487 5.892-2.007 10.825-4.94 14.454-8.61 2.977 5.925 5.12 12.09 6.318 18.284-3.925 4.896-9.79 8.91-17.187 11.66-.464-6.202-1.468-12.53-2.96-18.8-.49 1.048-.99 2.396-1.512 3.726 1.128 5.31 1.873 10.633 2.232 15.85-2.277.74-4.68 1.367-7.217 1.872.566.6 1.075 1.356 1.536 2.057 2.007-.442 3.95-.952 5.816-1.536.34 7.576-.168 14.91-1.648 21.64l-.07.273-.18.067c-.207.99-.488 2.2-.488 2.648 0 .255-.063.468-.18.648-1.782 6.26-4.348 11.292-7.468 15.083-8.737 3.72-18.273 5.257-27.943 5.013 1.27-2.737 2.472-6.1 3.603-9.996-.262.015-.528.02-.78.02-.527 0-1.052-.02-1.6-.05m57.986-52.94c-1.37-6.05-3.633-11.892-6.573-17.42 2.52-3.113 4.175-6.678 4.767-10.596 1.348 2.462 2.506 5.08 3.42 7.896.445 1.614.86 3.24 1.202 4.648.268 1.674.508 3.33.714 4.966-.34 3.75-1.55 7.29-3.532 10.506m4.15-2.98c.232 6.358-.296 12.624-1.974 19.175-.277.948-.607 1.87-.977 2.783.548-5.314.32-10.565-.546-15.692 1.453-1.95 2.63-4.048 3.498-6.265m-5.592 8.797c.903 6.416.75 12.832-.614 19.023-4.075 5.68-10.344 10.416-18.34 13.693 1.37-6.794 1.8-14.143 1.415-21.7 7.252-2.596 13.244-6.35 17.54-11.016m-108.355-9.898c-3.423 6.558-6.052 13.28-7.682 19.895-6.112-6.548-10.258-13.773-11.8-21.076 1.4-6.176 3.99-12.056 7.55-17.465 2.037 6.644 6.205 12.966 11.932 18.644M141.48 75.782c-3.08 4.39-5.588 9.217-7.375 14.48.02-1.78.217-3.51.592-5.184 1.382-6.183 3.51-12.015 6.33-17.502-.252 2.633-.113 5.38.453 8.206m97.194-31.677c2.438 2.647 4.18 5.516 5.03 8.45-4.483-2.544-9.442-4.6-14.794-6.098-.27-1.188-.794-2.32-1.517-3.394 3.82-.273 7.667-.018 11.28 1.042m-14.003-.76c.682.774 1.22 1.598 1.603 2.426-2.34-.56-4.75-1.02-7.213-1.358 1.828-.446 3.708-.82 5.61-1.068m-17.36-1.715c-2.273-.743-4.516-1.372-6.76-1.885.592-.536 1.32-1.01 2.18-1.405 1.58 1.02 3.113 2.128 4.58 3.29m-6.894-4.698c-1.03.633-1.9 1.38-2.58 2.247-5.47-1.046-10.832-1.398-15.952-1.113 1.794-2.12 4.326-3.92 7.48-5.25 3.846.65 7.565 2.14 11.052 4.115m-15.438-4.483c-2.645 1.602-4.787 3.58-6.274 5.88-5.236.565-10.206 1.83-14.775 3.733 1.396-1.66 18.96-9.603 21.048-9.614m8.584-1.05c3.438-.89 7.378-1.322 11.734-1.18 1.067.52 2.258 1.937 3.408 4.52-2.02.054-3.955.39-5.652.98-3.198-1.945-6.37-3.39-9.49-4.32m12.09 6.015c1.202-.232 2.528-.348 3.992-.318.45 1.3.907 2.794 1.333 4.502-1.77-1.552-3.55-2.952-5.325-4.185m10.412 5.307c1.056-1.33 2.052-2.48 2.97-3.445 1.224.584 2.344 1.247 3.34 1.985-2.044.348-4.142.835-6.31 1.46m9.423-1.902c-1.304-1.247-2.895-2.36-4.67-3.277 1.943-1.727 3.486-2.528 4.617-2.652 3.753 1.694 7.12 3.765 9.94 6.098-3.063-.475-6.367-.528-9.887-.168m25.4 105.82c-4.224 4.314-8.824 8.352-13.827 10.992 2.528-4.015 4.54-8.9 5.947-14.595 7.038-2.67 12.944-6.4 17.382-10.966-1.158 3.285-8.143 13.188-9.503 14.57m-117.033-44.903c2.32 6.525 6.495 12.82 12.08 18.54-1.346 6.546-1.533 12.505-.698 17.722-4-4.933-6.584-10.892-8.72-17.353-1.152-3.498-3.09-15.037-2.662-18.91m25.554-43.217c-.797-4.648-.033-9.015 2.072-12.884 4.958-2.505 10.348-4.022 15.898-4.722-1.022 2.584-1.3 5.487-.636 8.715-6.075 2.306-11.944 5.27-17.334 8.89m60.356-11.576c2.36.37 4.72.865 7.06 1.47-.03.795-.255 1.57-.682 2.282-2.1-1.36-4.24-2.614-6.378-3.752m23.932 18.385c1.764-2.4 2.787-5.17 2.88-8.24 5.285 3.516 9.948 7.913 13.57 13.262-.015 4.266-1.397 8.232-3.944 11.693-3.468-6.042-7.73-11.663-12.506-16.716m-15.063 98.4c-3.892 3.052-17.483 6.55-27.337 6.625.906-.98 1.453-1.712 2.322-3.28 9.73.41 18.05-1.016 25.015-3.345m-27.588 3.198c-1.633 2.678-2.813 3.34-4.07 3.303-8.215-.882-15.33-2.55-21.33-4.99-1.094-.533-2.24-1.724-2.548-4.82 4.622 1.838 9.41 3.302 14.24 4.403 4.84 1.11 9.405 1.783 13.708 2.105m-30.31-7.483c.108 1.79.707 2.78 1.112 4.07-7.73-3.827-19.656-13.673-21.29-16.632 5.923 5.24 12.82 9.386 20.177 12.562m51.532-125.857c-1.184.674-2.438 1.655-3.753 2.914-2.288-.895-4.77-1.487-7.285-1.693-.704-1.735-1.468-3.18-2.284-4.316 4.168.596 8.247 1.498 12.165 2.67.388.135.774.278 1.156.424m-5.54 4.76c-1.04 1.142-2.108 2.435-3.247 3.854-.42-1.78-.87-3.423-1.353-4.918 1.603.203 3.154.57 4.6 1.064m42.962 27.6c-3.63-4.503-8.095-8.473-13.293-11.78-.045-.284-.094-.576-.154-.87-.528-2.583-1.64-5.088-3.228-7.46 1.66.858 15.753 15.738 16.674 20.11" fill="#004990"/><path d="M171.113 130.838c.296.138.625.31.97.547.633.42.824.622.824.622s-.116.374-.127.6c-.015.216-.045.557-.045.557s-.708.535-1.012.962c-.295.442-.46.723-.546.94l-.233.547s-.423-.157-.595-.165c-.188-.02-.87.072-1.226.263-.34.184-.917.592-1.33 1.2-.423.606-.67 1.07-.715 1.494-.038.426-.038.8.134 1.112.187.314.438.595.438.595s-.797-.036-1.42-.647c-.64-.603-.91-1.134-.977-1.913-.078-.78.173-1.4.296-1.656.12-.25.297-.513.297-.513s-.592-.1-.84-1.17c0-.02-.213-.747.016-1.59.153-.598.57-1.27 1.007-1.782h5.083zm27.21 0c-.06.36-.09.73-.17 1.082-.167.757-.167.933-.268 1.17-.098.23-.397 1.02-.397 1.02l-4.188.365s.41-1.012.543-1.704c.14-.685.18-1.044.195-1.262.012-.224-.027-.513-.027-.513l-3.67 1.547s-.014 1.12-.33 2.01c-.313.896-.76 1.765-1.576 2.26-.81.502-1.53.378-2.54.363-1.003-.015-1.137.064-1.475.168-.334.11-1.454.577-2.038 1.102-.592.535-1.056 1.007-1.056 1.007s.618-1.67 1.45-2.494c.827-.828 1.344-.955 1.587-1l.566-.11s-.432-.658-.477-1.26c-.052-.62.116-1.237.285-1.563.165-.33.344-.57.344-.57s-.68-.164-1.194-.09c-.528.083-1.558.44-2.618 1.207-1.075.76-2.25 1.93-3.19 2.247-.934.31-1.537.355-2.33.017-.78-.348-1.188-.974-1.188-.974s-.607.113-1.172.562c-.555.45-.96.97-1.248 1.375-.284.404-.584 1.015-.584 1.015s.154-1.532.603-2.435c.45-.906.907-1.31 1.035-1.42.138-.112.6-.362.6-.362s-.117-.813.063-1.435c.157-.524.386-.985.84-1.326h23.624zm40.344 0c.067.1.108.157.108.157l-1.25 3.43s-.27-.355-.454-.527c-.175-.176-.463-.423-.93-.7-.492-.28-1.057-.43-1.057-.43l-.558 2.212s.333.116 1.097 1.068c.768.95.925 1.483.97 2.236.048.75-.12 1.048-.146 1.138-.027.094-.08.187-.08.187s.44.464.742 1.086c.304.633.555 1.33.626 2.037.075.7.093 1.023.04 1.382-.04.363-.134.985-.134.985s-.056-.423-.292-1.12c-.24-.71-.517-1.3-.884-1.827-.378-.536-1.04-1.154-1.04-1.154s-.285.26-.682.418c-.412.154-1.05.28-1.678.128-.626-.165-1.128-.536-1.43-.97-.3-.438-.424-.637-.533-.862-.107-.217-.23-.498-.23-.498s-.353.746-.484 1.28c-.116.53-.244 1.39-.172 2.136.056.75.142 1.816-.08 2.873-.23 1.063-.662 2.075-1.38 2.64-.717.562-1.057.622-1.518.667-.465.048-.723-.015-.723-.015s-.345.595-.438 1.266c-.09.674-.09 1.404 0 1.947.093.547.105.783.15.925.045.135.153.42.153.42s-.63-.622-1.052-1.543c-.42-.922-.614-1.716-.562-2.34.064-.623.195-.73.217-.833.028-.087.06-.2.06-.2s-.635-.41-.93-1.018c-.305-.607-.36-1.382-.17-2.198.206-.81.573-1.41.573-1.41l-.307-.37s-.303.41-.58.7c-.27.304-.682.784-1.35 1.128-.677.345-1.594.656-2.677.31-.394-.122-.836-.467-1.068-.718-.22-.255-.374-.562-.374-.562s-.618.038-.99.176c-.377.13-.797.288-1.44.95-.645.66-.98 1.17-1.1 1.387-.122.22-.257.495-.257.495s.046-1.102.548-2.165c.487-1.064 1.003-1.54 1.51-1.81.508-.265 1.08-.336 1.08-.336s-.212-.66.12-1.63c.33-.967.975-1.626 1.825-1.978.835-.36 1.543-.442 1.753-.442.206 0 .498-.015.498-.015l.056-.49s-.295.026-.81-.094c-.5-.126-1.216-.37-1.7-.958-.48-.592-.568-1.202-.595-1.48-.033-.28-.015-.834-.015-.834s-.603-.23-1.01-.293c-.405-.06-1.454-.045-1.896.03-.438.083-.914.25-1.172.35l-.667.242s.685-.726 1.775-1.296c1.08-.553 2.064-.68 2.487-.62.42.067.888.157.888.157s.464-.69 1.157-1.04c.697-.36 1.656-.413 2.453-.177.798.236 1.802.876 2.386 1.404.585.536.71.828 1.263 1.154.55.325 1.465.97 2.686-.188 1.19-1.12.868-3.524.83-3.913 0-.015-.012-.034-.012-.06l8.858.012zm-54.947 2.39s-.192.655-.192.98c0 .334 0 .705.027.78.02.08.05.16.05.16l-1.3.9s-.154-.228-.21-.558c-.067-.326-.034-1.094.27-1.43.303-.35.584-.63.898-.727.315-.09.457-.105.457-.105m-2 10.082l2.135-3.296s2.91 1.592 5.405 2.498c2.502.907 6.09 1.978 8.812 2.307 2.72.325 5.337.28 7.82-.094 2.49-.375 6.177-1.498 8.195-2.513 2.015-1.015 2.84-1.69 2.84-1.69s-.338.675-.41 1.05c-.07.378-.07.767-.07.767s-.828.247-1.652 1.345c-.835 1.082-.988 2.045-1.067 2.71-.08.675.012 1.51.108 1.88.087.376.154.616.207.713.044.09.224.386.224.386s.375-.97.723-1.592c.345-.618.835-1.262 1.438-1.742.607-.483 1.113-.707 1.113-.707s.69.764 1.386 1.063c.693.3 1.427.356 1.922.322.494-.02.902-.075 1.415-.258.51-.19.746-.34.746-.34s-.013.894.156 1.362c.157.476.296.663.39.78.086.13.277.366.277.366s-1.6.783-3.517 1.435c-1.925.655-4.697 1.45-7.416 1.84-2.723.392-6.57.542-10.01.107-3.443-.438-6.76-1.45-9.27-2.487-2.502-1.056-5.802-2.633-7.285-3.475-1.495-.84-2.6-1.49-3.1-1.79-.492-.296-1.514-.948-1.514-.948m-8.868-5.888s.42-.565.68-.81c.26-.25.78-.64.78-.64s.315.36.776.652c.472.3.83.457 1.57.457.73 0 .928-.092 1.32-.2.39-.11.82-.297.82-.297l2.125 1.45s-.442.902-.51 1.592c-.074.69-.074 1.42-.056 1.62.006.204.056.432.056.432s.555-.742.93-1.116c.378-.374.853-.868 1.325-1.205.468-.322.64-.468.64-.468s-.55.895-1.175 1.83c-.637.938-1.184 1.836-1.776 2.728-.61.895-1.72 2.622-1.72 2.622s.593.187.94.63c.368.452.814 1.46.233 2.44-.423.72-1.344 1.368-2.483 1.053-1.123-.314-1.39-1.19-1.472-1.517-.07-.326-.134-.768.027-1.31.14-.547.218-.63.218-.63l3.146-4.94s-2.367-1.36-3.974-2.558c-1.61-1.202-2.42-1.813-2.42-1.813" fill="#ffe384"/><path d="M178.684 108.34c-.18.508-.52 1.23-1.13 1.714-1.012.813-1.615.873-1.997.94-.37.064-.828.105-1.202.075-.368-.03-.585-.094-.585-.094s.51-.064 1.217-.446c.7-.393 1.158-.906 1.562-1.468.198-.285.348-.524.44-.734l1.694.012zm45.446 0c.037.085.075.17.116.25.378.764 1.048 1.558 1.876 1.917.824.36 1.408.442 1.865.405.45-.03.768-.108.768-.108l1.34 4s-.595.31-1.452.49c-.847.195-1.278.116-1.53.116-.257 0-.93-.172-.93-.172s.12.798.388 1.603c.28.814.735 2.05 1.32 2.716.588.667 1.183 1.232 2.097 1.232.154 0 .382-.012.835-.153.453-.138 1.146-.438 1.7-.345.56.094.933.315 1.282.952.34.64.28.88.887 1.292.597.427 1.15.46 1.51 1.3.36.838.394 1.28.158 2.25-.247.963-.46 1.322-.465 1.723-.018.412.003.614.532.96.528.34 1.135.756 1.663 1.355.288.333.468.57.577.71l-8.858.004c-.063-.457-.404-1.7-1.12-2.756-.737-1.113-1.632-2.247-3.363-3.206-1.723-.948-3.633-1.214-4.31-1.232-.675-.015-1.787.067-2.675.524-.888.446-1.308.88-1.626 1.228-.32.35-.453.544-.453.544l-1.363-1.903s.27-.573.742-1.09c.46-.517 1.066-.918 1.617-1.176.554-.248 1.022-.353 1.022-.353s-.84-.95-1.323-1.876c-.483-.92-.816-1.902-.902-2.336-.075-.435-.37-2.51-.637-3.364-.333-1.075-.78-2.082-1.64-2.974-.772-.812-1.293-.97-1.293-.97s.38.61.742 1.143c.217.332.708 1.066 1.08 2.017.25.652.403 1.772.474 2.386.06.603.042 1.1.042 1.1s-1.487-.62-3.43-.7c-1.937-.074-4.16.098-5.802.75-1.625.66-2.277 1.262-2.61 2.124-.337.854-.315 1.65-.13 2.247.175.588.34.828.49 1 .15.172.692.696.887 1.344.206.633.244 1.278-.038 1.727-.296.453-.62.61-.813 1.03-.206.42-.217.734-.262.944-.038.223-.09 1.017-.6 1.43-.513.4-1.19.49-1.857.557-.682.064-1.45.11-1.918.697-.25.326-.356.723-.42 1.142h-23.625c.087-.06.18-.116.277-.172.63-.337 1.274-.464 1.648-.51.38-.048.528-.097.528-.097l-.033-.595s-1.29.333-2.25.037c-.96-.3-1.597-.922-1.92-1.64-.332-.72-.306-1.06-.287-1.312.012-.247.012-.42.012-.42s-.727-.528-1.35-.685c-.632-.16-1.107-.296-1.89-.296-.78 0-.974.042-.974.042s.723-.39 1.274-.56c.547-.175 1.408-.303 1.872-.25.562.06.843.142 1.094.232.266.093.457.247.457.247s.285-.413.74-.716c.443-.296 1.136-.517 1.915-.435.794.082 1.506.55 1.99.954.482.405.992 1.3.992 1.3l.46-.43s-.816-.776-1.033-1.686c-.207-.903-.113-1.37.048-1.805.17-.446.454-.783.454-.783s-.53-.656-1.226-1.187c-.686-.532-1.195-.73-1.554-.873-.364-.14-.967-.296-.967-.296s.536-.09.835-.09c.304 0 1.38 0 2.105.247.746.25 1.165.616 1.337.814.188.184.382.48.382.48s.783-.36 1.652-.237c.87.132 1.715.64 2.36 1.517.644.87.663 1.098.928 1.993.27.91.57 2.25 1.626 2.92 1.056.672 2.206.608 3.363.33 1.166-.28 3.04-1.217 4.24-2.4 1.196-1.19 2.128-2.674 2.128-4.85 0-.13-.082-1.614-.05-2.304.028-.68.102-1.183.163-1.494.057-.315.09-.536.09-.536s-.606.348-1.558.348c-.962 0-1.31-.11-1.64-.19-.333-.076-.532-.17-.532-.17l-.015-2.045s.663.128 1.775-.06c1.113-.187 2.015-.487 3.23-1.3 1.216-.808 1.93-1.74 4.29-2.958.38-.2.765-.39 1.147-.567l21.303-.015zm-58.098 22.497c.173-.202.368-.39.54-.524.607-.487 1.442-.993 2.36-1.128.913-.142 1.456-.08 1.943-.142.476-.068.682-.094.895-.154l.51-.14s-.195.323-.555.622c-.355.293-.876.61-1.37.813-.495.21-.76.28-.76.28s.565.06.947.17c.165.052.36.116.573.217l-5.083-.015z" fill="#ffe384"/><path d="M178.472 85.785l.194 4.753-6.64-4.183.038-.57h6.408zm10.326 0l.082.04s-1.23 1.028-1.918 2.623c-.693 1.588-.876 2.656-.966 3.528-.082.87-.146 2.056-.146 2.056l-6.247-3.83-.217-3.634 1.105-.783h8.308zm21.853 0l-3.568 4.296s-.232-.448-.378-.826c-.13-.37-.42-.884-.884-1.51-.46-.622-1.27-1.45-1.27-1.45s.41.78.7 1.933c.3 1.158.435 1.768.413 2.453-.034.686-.113.907-.113.907s.4.27 1.19.843c.78.558 1.874 1.36 3.29 2.528 1.415 1.168 2.262 1.962 4.07 2.68 1.802.713 3.383 1.327 4.78 2.413 1.4 1.1 1.83 1.72 2.06 1.983.22.266.494.614.57.72.07.103.205.332.205.332s.626.06 1.892-.04c1.28-.087 4.588-.477 6.363-1.878 1.76-1.404 2.674-3.16 2.914-4.98.235-1.825-.08-3.465-1.128-5.323-1.052-1.854-2.1-2.685-2.404-2.95-.304-.263-.528-.496-.528-.496s.842-.53 1.202-.737c.36-.198 1.382-.636 1.382-.636s1.45 1.337 2.375 2.775c.932 1.434 1.794 3.104 1.988 4.872.2 1.76-.078 3.056-.15 3.337l-.152.527s.626-.172 1.202-.172c.573 0 1.23.142 1.727.438.494.3.783.625.783.625l-.9 2.31s-.587-.422-1.27-.486c-.673-.063-1.527.045-2.475.637-.943.595-1.015.756-1.202.965-.172.225-1.397 1.502-2.753 2.334-1.344.823-3.198 1.497-5 1.834-1.805.348-2.108.33-2.108.33s.314 1.16.655 1.954l-21.303.012c1.9-.868 3.592-1.43 4.67-1.65 1.29-.27 2.322-.338 2.787-.346.47-.015.997 0 .997 0s-.876-.83-2.16-1.183c-1.3-.363-1.675-.6-3.694-.703-2.015-.113-3.81-.17-5.52-1-1.716-.824-2.682-1.712-2.978-1.978-.3-.27-.603-.585-.603-.585s.244.67.34 1.157c.136.66.323 1.236.252 2.026-.052.682-.2.925-.2.925l-4.04.78s-.168-.956-.494-1.626c-.333-.67-.742-1.135-.907-1.333-.157-.21-.475-.442-.475-.442s.25.663.434 1.498c.176.824.22 1.258.25 1.622.028.355.028.498.028.498l-4.123.8s-.018-.658-.23-1.287c-.205-.622-.695-1.48-1.317-2.026-.633-.547-1.34-.7-1.865-.76-.528-.072-.877-.016-1.064.026-.205.053-.35.105-.35.105s.074.768-.274 1.72c-.34.958-.776 1.7-1.345 2.2-.576.503-1.025.676-1.445.81-.42.146-.636.16-.636.16s-.054.25-.174.593h-1.692c.108-.216.168-.377.198-.493.08-.24.08-.394.08-.394s-.612-.408-.934-1.044c-.314-.642-.49-1.14-.36-1.89.135-.752.495-1.23.798-1.58.3-.333.674-.64.674-.64s-.535 0-.79.037c-.266.027-1.296.278-1.854.622-.554.347-.734.56-1.067.98-.33.427-.89 1.454-1.803 2.188-.917.73-2.052 1.325-3.15 1.36-1.12.03-1.64-.375-2.003-.65-.36-.26-.457-.43-.513-.523-.063-.098-.19-.345-.19-.345s-.892-.03-1.52.143c-.63.164-1.518.5-2.027.876-.513.37-.888.73-.888.73s.51-1.094.87-1.514c.36-.423.932-.91 1.535-1.157.6-.252.876-.346 1.07-.376l.387-.06s-.027-.775.333-1.42c.36-.654.715-.954 1.28-1.186.548-.236 1.03-.326 1.03-.326l-.086-.46s-1.303.415-2.58-.117c-1.25-.532-1.663-1.22-1.92-1.92-.252-.702-.18-1.08-.17-1.267.027-.184.053-.33.053-.33s-.51-.6-1.165-1.015c-.667-.4-1.24-.595-1.734-.663-.49-.08-1.352-.08-1.352-.08s.764-.44 1.64-.553c.87-.105 1.49-.056 2.146.195.644.247 1.094.57 1.094.57s.438-.56 1.022-.806c.588-.25 1.37-.348 2.105-.015.734.33 1.146.746 1.23.84l.257.266.36-.232s-.33-.262-.644-1.098c-.315-.824-.225-1.486-.03-2.07.198-.578.39-.81.494-.918.1-.11.18-.225.18-.225s-.232-.633-.51-1.09c-.27-.453-.906-.996-1.498-1.34-.603-.342-.753-.375-1.01-.47-.256-.092-.746-.186-.746-.186s1.063-.266 2.097 0c1.04.27 1.506.67 1.89.98.395.32.698.72.814.907.128.188.262.394.262.394s1.33-.35 2.142.127c.816.464 1.33 1.04 1.678 1.835.374.794.558 1.652.79 2.045.225.393.464.813 1.71 1.045 1.245.23 3.245.255 4.923.172 1.685-.074 2.367-.048 3.55-.5 1.19-.455 2.06-1.12 2.45-1.406.393-.28 1.577-1.217 2.966-1.903 1.374-.685 2.617-.98 3.12-1.063.512-.068 1.714-.18 1.714-.18s-1.176-.13-1.95-.064c-.788.064-2.35.296-3.675.858-1.32.562-1.687.794-2.117 1.06-.42.262-.843.547-.843.547s-.015-1.42.277-2.606c.28-1.187.888-2.734 1.58-3.633.682-.91 1.102-1.2 1.345-1.374.064-.037.128-.086.187-.13l20.453-.02zm19.12 0c-.643.304-1.306.7-1.842 1.225-1.265 1.217-2.224 2.745-2.647 4.4-.426 1.656-.45 3.49-.295 4.716.146 1.214.532 2.775.532 2.775s-1.645-.463-2.19-.654c-.537-.184-2.376-.906-2.376-.906s-.572-1.682-.538-3.06c.037-1.37.3-2.9.603-3.555.296-.66.386-1.123.386-1.123s-.805.936-1.228 1.81c-.416.872-.876 2.493-.876 3.714 0 1.22.097 1.558.097 1.558s-2.288-1.498-2.805-2.895c-.498-1.417-.892-3.656.183-5.435.683-1.113 1.458-1.955 2.406-2.585l10.595.015z" fill="#ffe384"/><path d="M172.065 85.785l.288-5.48 6.04 3.555.08 1.925h-6.408zm8.427 0l3.157-2.27 5.145 2.27h-8.303zm9.708 0c.172-.104.318-.21.318-.21l-2.127-.95s.432-1.094.754-1.667c.307-.58 1.112-1.66 1.92-2.17.814-.516 1.36-.534 1.566-.553.21-.012.55 0 .55 0s-.115-.682.02-1.446c.13-.765.587-1.548.587-1.548s.012.334.082.832c.086.498.322 1.18.83 1.805.506.628 1.23 1.04 2.342 1.03.917-.007 1.738-.596 2.49-1.316.566-.53 1.027-1.715 1.027-1.715s-1.05-1.38-3.32-1.668c-2.27-.277-2.977.02-3.472.14-.498.13-2.528.77-3.86.628-1.402-.157-2.323-.828-2.765-1.315-.43-.483-.78-1.086-.813-2.217-.018-.48.18-1.116.36-1.464.183-.34.258-.547.258-.547s.027.596.15.985c.12.393.416 1.17 1.157 1.67.734.495 1.667.772 2.933.772 1.28 0 1.936-.408 3.712-.303 1.764.11 2.895.405 4.194 1.105.573.32.985.577 1.13.723.155.16.676.555.676.555s.31-.742.337-2.027c.03-1.367-.637-2.87-.985-3.344-.555-.775-1.2-1.554-2.682-1.596-1.127-.037-1.978.42-2.644 1.2-.663.782-.78 1.497-.858 1.838-.075.34-.135.8-.135.8s-.423-.44-.565-1.05c-.16-.604-.16-.952-.12-1.215.02-.27.02-.375.02-.375s-.43.08-1.007-.113c-.56-.18-1.478-.745-1.725-1.606-.244-.862-.075-1.607.06-1.918.135-.31.187-.374.187-.374l-1.21-.783s.296-1.19.798-1.857c.54-.74 1.4-1.622 1.775-1.932.322-.262.895-.67 1.416-1.273.65-.768 1.23-1.794 1.67-2.195.18-.153 1.147-.397 1.147-.397l8.978 4.214s.947-.94 2.165-1.147c1.22-.202 1.73-.075 2.07-.012.345.068 1.17.394 1.17.394l-1.184 2.76s2.78 1.322 3.262 1.547c.483.218 1.075.51 1.667.638.603.12 1.393.153 1.393.153l-2.172 6.372s-.87.217-1.963.274c-.977.048-2.24-.083-2.24-.083s1.173.408 2.22.877c.646.288 1.256.7 1.597 1.075.217.247.648.95.648.95l-1.55 6.03s-1.368-.995-2.05-1.276c-.838-.338-1.988-.48-1.988-.48s1.183.823 1.652 1.437c.243.304.78 1.225.895 1.555.198.535.277 1.093.277 1.093l-.573.69H190.2zm28.977 0c.577-.39 1.23-.693 1.955-.925 1.948-.63 5.08-.75 8.33-1.595 3.24-.84 4.056-1.277 5.532-2.154 1.47-.875 3.325-2.43 3.782-4.61.45-2.19-.483-4.25-1.325-5.34-.842-1.09-2.007-1.993-3.25-2.434-.693-.248-1.454-.53-1.555-.338-.097.173.296.794.352 1.12.16.746.124 1.244.04 1.555-.096.314-.156.565-.156.565l-2.25-.123s.11-1.154-.36-1.847c-.34-.505-.726-.794-.932-.932-.397-.274-.753-.21-1.51.01-.752.22-1.61.635-2.164 1.047-1.015.787-2.367 2.004-2.63 3.686-.276 1.684.046 3.624.772 4.995.72 1.367 2.07 2.648 2.528 3.116.446.473 1.176 1.132 1.176 1.132l-3.524.554s-1.285-1.434-1.685-1.996c-.385-.558-2.037-2.87-2.25-5.4-.173-2.083.303-3.738 1.236-5.207.925-1.47 2.79-3.65 6.04-4.524 3.248-.877 7.506-.27 9.948 1.808 1.836 1.562 2.794 2.622 3.424 4.745.636 2.12.33 4.236-.573 6.146-.9 1.898-2.195 3.337-4.323 4.494-2.134 1.153-2.83 1.31-3.794 1.622-.546.172-1.39.426-2.24.83h-10.59zm-38.254-18.112l-.285-10.034-.03-1.06v-.124c-.027-.18-.086-.506-.195-.738-.164-.326-.487-.655-.584-.78-.11-.13-.394-.347-.394-.347s.027-.34.15-.512c.116-.176.412-.293.494-.293.09 0 .315-.02.315-.02s-.18-.44.078-.855c.25-.423.637-.513.925-.498.304.012.603.233.772.48.16.25.213.517.213.644 0 .12-.027.292-.027.292s.386-.015.49.03c.102.045.3.187.346.393.04.207.033.387.033.387s-.187.11-.36.285c-.187.168-.41.352-.58.84-.09.25-.135.546-.142.763-.003.206.116 5.36.116 5.36l.212 5.673v.053c.012.09.038.23.098.432.135.498.438.985.62 1.16.177.173.395.285.395.285s-.027.31-.072.51c-.037.202-.235.333-.34.39-.098.044-.495.03-.495.03s.027.175.027.3c0 .12-.04.276-.206.53-.17.244-.473.465-.773.48-.303.012-.677-.08-.928-.502-.252-.42-.076-.858-.076-.858s-.225-.015-.315-.015c-.087 0-.383-.127-.5-.295-.11-.17-.152-.513-.152-.513s.288-.225.4-.345c.1-.124.416-.454.585-.784.116-.228.168-.565.18-.74m32.583-11.293c.162.153.94.947 1.075 1.558.15.694.204 1.218-.126 1.896-.2.408-.843.955-1.524.7-.806-.3-.933-1.01-.933-1.255v-1.313s-.663.547-.996.78c-.336.224-.722.302-1.138.254-.322-.03-.75-.337-.91-.6-.416-.65-.127-1.298.05-1.632.34-.603.853-.81 1.246-.97.386-.157 1.17-.172 1.498-.086.38.1.656.18.76.21.064.027.076-.034.076-.034s-.057-.247-.12-.435c-.06-.187-.364-.72-1.045-1.213-.693-.502-1.3-.412-1.3-.412s.116-.348.213-.625c.09-.28.304-1.064.476-1.967.18-.902.15-2.217.15-2.217s-1.378 1.186-1.794 1.62c-.42.44-1.416 2.004-1.416 2.004s-.517-.408-1.326-.63c-.812-.22-1.898.372-1.898.372.115.082.36.236.696.476.277.19.79.805.936 1.206.15.408.345.947.143 1.606-.187.588-.528.97-1.05 1.087-.287.064-1.003-.138-1.11-.28-.27-.34-.443-.52-.503-.925-.056-.405-.142-1.315-.142-1.315s-.476.584-.907.99c-.165.152-.906.347-1.65-.076-.638-.348-.638-1.202-.477-1.622.258-.715.67-1.033 1.258-1.374.536-.3 1.468-.206 1.686-.184l.04.006s-.06-.12-.15-.24c-.096-.13-.18-.295-.32-.46-.263-.303-.55-.45-.945-.64-.385-.184-1.442-.184-1.442-.184s-.12-.63-.18-.974c-.055-.34-.213-.84-.513-1.81-.295-.96-1.318-2.62-1.318-2.62s.09.752.146 1.404c.07.66-.027 3.438-.483 5.78-.45 2.343-1.554 5.62-1.554 5.62l8.42 3.993s.894-.533 1.587-.817c.693-.274 1.472-.375 2.86-.18 1.38.18 2.342.87 2.342.87l-1.142 2.782 2.708 1.28 1.022-1.872c.506-.94 2.11-3.34 3.034-4.532.933-1.183 2.554-2.587 3.1-3 .537-.396 1.263-.988 1.263-.988s-.213.03-.333.03c-.116 0-.536.09-1.05.184-.508.097-1.71.528-2.347.81-.633.28-1.775 1.002-1.775 1.002s-.116-.19-.33-.374c-.206-.188-.45-.502-1.08-.69-.632-.19-1.478-.033-1.478-.033l.02.06zm-7.92 8.34c.475-.89 1.464-1.468 2.063-1.65.598-.192 1.568-.1 1.568-.1s-1.127.425-1.472.675c-.374.266-.78.907-1.075 1.386-.005.015-1.092-.295-1.085-.31m-8.64.434s-.1-.745.105-1.17c.19-.407.7-.815.7-.815s-.36-.483-.333-.993c.048-1.116.917-1.254.917-1.254s-.288.576.13 1.393c.166.325.702.445.893.49.475.112.7.18.973.273.27.09.633.18.633.18l-.295.876s-.873-.28-1.233-.248c-.36.03-1.022.056-1.565.405-.54.344-.925.86-.925.86m-17.128-3.733l-3.925-2.847s.128-.134.244-.19c.176-.068.453-.203.727-.176.284.03.56.29.633.364.12.16.247.51.247.51s.112-.574.57-.82c.467-.24.86-.094 1.025.026.184.124.35.39.382.472.03.09.027.12.027.12l.072 2.543zm56.247-1.37l-4.352 1.905-15.565.928s1.022-1.618 1.382-2.09c.366-.464 1.767-2.12 1.767-2.12l12.172-.344 4.594 1.72zm-52.722 4.842l-.18-5.14 10.69-.35s-.26.497-.432.774c-.172.263-.797.926-1.202 1.26-.562.456-.985.812-1.46 1.24-.472.44-.78.8-.997 1.09-.366.504-.52.774-.52.774l-5.898.352zM169.5 60.162l.074 5.288s-.75.232-1.438.083c-.697-.158-1.46-.577-2.13-1.17-.683-.595-1.39-1.475-1.39-1.475s.786-1.183 1.325-1.68c.54-.5 1.128-1.013 1.855-1.185.502-.127.854-.093 1.094-.064.235.03.61.202.61.202m1.014 4.865l-.07-5.618s.096-.36.32-.74c.136-.22.53-.49.97-.46.458.03.73.266.832.386.1.13.225.442.225.442s.196-.404.394-.577c.195-.17.53-.313.94-.25.397.064.757.468.817.686.065.224.046.36.046.36s.07 2.62.07 2.76c0 .142 0 .576-.15.924-.152.345-.414.903-.763 1.248-.348.337-.715.56-.902.62-.172.065-.306.088-.306.088l-.053-2.58s-.074.36-.242.748c-.154.39-.34.794-.645 1.124-.303.326-.468.483-.756.61-.31.12-.723.23-.723.23m1.55 4.703s-.636-.662-.97-1.565c-.33-.902-.36-1.404-.385-1.595-.035-.18-.035-.498-.035-.498s.42-.124.716-.25c.3-.12.753-.593.753-.593l.038.842s.476.067 1.353-.37c.873-.44 1.258-.806 1.524-1.248.27-.438.468-.768.532-.952.063-.187.15-.505.15-.505s.23.33.5.577c.154.157.514.374.514.374l-.43.333c-.162.125-.72.548-1.057 1.046-.326.495-.63 1.158-.685 1.356-.06.206-.195.783-.195.783s.464-.69.932-1.154c.464-.467.947-.886 1.39-1.193.422-.29.76-.386.76-.386l-.035-1.415s-.72-.442-1.067-.98c-.348-.552-.558-1.054-.54-1.705.02-.656.135-.824.135-.824l3.866 2.786s.07 3.72.115 4.334c.052.633.063 1.284-.304 1.82-.358.524-.898.798-1.774.82-.87.037-5.802.165-5.802.165m.42 4.177l-.064-3.277 6.966-.158.064 3.278-6.966.157zm4.056 7.798l-3.64-2.21.176-4.682 5.98-.127 1.113 4.273-3.63 2.745zm2.82 3.81l-.09-2.118-1.958-1.22 4.33-3.184.385 2.307 1.835.97-4.502 3.244z" fill="#ffe384"/><path d="M281.717 97.033l16.12-.876-.15-2.85-16.12.872.15 2.853zm15.22-11.92l-1.77-8.668-15.79 3.48.553 2.726 7.236-1.594.936 4.577 2.124-.476-.94-4.573 4.285-.944 1.158 5.618 2.21-.146zm-18.052-12.214c.966-.368 1.45-1.473 1.1-2.473-.347-.978-1.38-1.465-2.347-1.105-.99.374-1.517 1.483-1.17 2.48.335.962 1.436 1.47 2.417 1.097m-15.082-25.47l11.805-11.426-1.738-1.933-5.367 5.256c-1.07 1.04-2.64 2.794-3.195 3.434l-.09-.006c.398-.69 1.31-2.58 1.896-4.195l3.108-8.566-2.078-2.303-11.798 11.435 1.783 2 5.654-5.603c1.023-1.026 2.25-2.25 3.165-3.292h.096c-.49.902-1.37 3.015-2.093 4.944l-3.08 8.116 1.93 2.142zm-24.738-23.55l-5.457-2.524 5.667-13.214-2.495-1.15-6.56 15.32 7.538 3.486 1.307-1.918zm40.13 33.528c-3.17 1.9-5.377 1.858-6.797-.7l-.895-1.603 10.247-6.135.854 1.535c.716 1.296.817 2.248.304 3.454-.58 1.35-1.918 2.373-3.712 3.448m1.738 2.54c2.19-1.304 3.58-2.813 4.172-4.596.734-2.262.315-4.172-1.195-6.9l-1.673-3.018-13.98 8.386 2 3.58c1.497 2.705 2.666 3.69 4.834 4.012 1.758.262 3.713-.188 5.844-1.465m-28.708-32.704l-3.255-2.363c.927-.693 5.608-4.648 5.608-4.648-.243.622-2.288 6.614-2.352 7.01m.255 8.41l5.046-16.82-2.547-1.847L241.37 27.58l2.277 1.656 3.505-2.843 4.277 3.12-1.363 4.386 2.41 1.752zm-29.194-15.76l3.633-16.326-2.477-.596-1.614 7.468c-.323 1.487-.697 3.862-.806 4.7-.12-.745-.37-2.846-.764-4.528l-2.045-8.895-2.955-.71-3.633 16.336 2.566.61 1.674-7.928c.303-1.442.663-3.164.842-4.56.164.984.572 3.235 1.014 5.257l1.817 8.512 2.746.66zm-17.947-3l.85-16.735L203.435 0l-.85 16.738 2.753.153zM195.562.01l-8.505.924 1.693 16.67 2.67-.284-.77-7.644 4.475-.483-.225-2.247-4.475.49-.453-4.532 5.487-.595.103-2.3zm-13.94 17.44c-.262-1.033-1.284-1.628-2.27-1.35-.973.27-1.53 1.306-1.265 2.332.273 1.05 1.292 1.697 2.273 1.42.95-.262 1.54-1.352 1.263-2.4m-10.57 5.052L163.98 7.43l-2.285 1.162 3.27 6.857c.643 1.37 1.8 3.453 2.224 4.183l-.03.1c-.525-.613-1.982-2.07-3.316-3.12l-6.977-5.583-2.723 1.378 7.082 15.067 2.368-1.194-3.514-7.254c-.648-1.315-1.408-2.895-2.108-4.105l.034-.096c.69.753 2.37 2.243 3.94 3.528l6.57 5.43 2.538-1.277zm-16.003 9.067l-9.48-13.558-2.24 1.678 9.496 13.558 2.224-1.677zm-7.692 5.79l-12.772-10.36-2.438 2.716 4.996 8.437c.6 1.023 1.21 1.907 1.532 2.31-.43-.284-1.14-.767-2.386-1.445l-8.374-4.59-2.435 2.706 10.81 12.55 1.798-2.007-6.663-7.433c-.674-.76-1.69-1.873-2.082-2.255.45.31 1.666 1.057 2.655 1.592l8.974 4.873 1.57-1.73-5.476-9.465c-.532-.963-1.09-1.8-1.41-2.266.365.345 1.282 1.17 2.072 1.843l7.843 6.52 1.788-1.997zM117.526 54.06c1.124-2.188 2.285-2.588 3.723-1.79.74.408 1.21 1 1.39 1.62.197.69.017 1.462-.642 2.74l-.644 1.26-4.51-2.482.682-1.348zm15.592.464l-4.536.285c-1.58.11-3.468.336-4.007.722 1.14-2.225.172-4.618-2.034-5.84-2.227-1.224-4.845-.756-6.546 2.562l-2.303 4.514 14.256 7.868 1.236-2.42-6.158-3.4c.26-.457.51-.592.922-.72 1.202-.385 2.547-.52 4.816-.583l2.862-.06 1.494-2.93zm-9.37 22.798c1.164-4.195-1.315-7.558-6.166-8.99-4.52-1.35-8.606-.2-9.857 4.342-1.116 4.026 1.007 7.584 6.123 9.105 4.596 1.366 8.63.126 9.9-4.458m-1.978-.513c-.753 2.744-3.266 3.13-7.255 1.946-3.723-1.112-5.55-2.76-4.79-5.46.783-2.892 3.393-3 7.176-1.873 4.177 1.243 5.54 2.985 4.87 5.386m-16.993 10.654l-.6 8.846 16.102 1.17.186-2.78-7.37-.54.307-4.66-2.16-.16-.316 4.667-4.382-.315.386-5.726-2.153-.502z" fill="#004990"/></svg>