<svg xmlns="http://www.w3.org/2000/svg" width="400" height="175.887"><path d="M211.023 173.005c-.392-.342-.697-.684-.915-1.025-.222-.343-.16-.794.183-1.358.49-.854.976-1.696 1.467-2.53.49-.83 1.007-1.61 1.56-2.345.547-.732 1.152-1.385 1.814-1.96.66-.574 1.415-1.02 2.27-1.34 0 .027.023.038.075.038.194-.172.48-.128.86.128.38.258.82.656 1.32 1.19.502.54 1.063 1.182 1.685 1.926.625.746 1.267 1.532 1.924 2.36.76-.998 1.497-1.933 2.22-2.8.72-.867 1.374-1.874 1.96-3.025.59.317 1.063.623 1.43.917.37.293.71.587 1.026.88.32.293.636.592.953.897.32.305.698.643 1.136 1.008.244.194.342.462.294.806-.05.344-.166.702-.348 1.08-.184.38-.403.753-.66 1.12-.256.367-.483.67-.677.913-.516.588-1.146 1.153-1.888 1.688-.747.538-1.512.977-2.293 1.32-.785.342-1.53.544-2.254.607-.723.06-1.326-.095-1.816-.46-.463-.293-.847-.55-1.154-.77-.306-.22-.57-.434-.79-.64-.218-.21-.42-.406-.603-.59-.184-.18-.362-.383-.534-.6-.563.34-1.216.736-1.962 1.19-.743.452-1.503.84-2.273 1.173-.768.328-1.513.535-2.23.622-.726.087-1.317-.053-1.782-.422" fill="#f2f2f4"/><path d="M17.927 165.413H0v-31.125h17.927v5.408H6.6v6.832H17.14v5.408H6.6v8.027h11.327v5.45zM39.425 158.345c0 2.44-.848 4.3-2.544 5.58-1.695 1.277-4.233 1.915-7.61 1.915-1.73 0-3.208-.12-4.43-.352-1.22-.234-2.363-.58-3.425-1.032v-5.366c1.205.567 2.565 1.043 4.075 1.428 1.513.38 2.843.572 3.992.572 2.357 0 3.534-.68 3.534-2.043 0-.51-.156-.927-.468-1.245-.312-.318-.85-.682-1.618-1.084-.766-.407-1.788-.876-3.065-1.417-1.83-.765-3.175-1.477-4.034-2.13-.858-.65-1.483-1.4-1.874-2.245-.39-.844-.585-1.883-.585-3.12 0-2.114.82-3.75 2.46-4.906 1.64-1.157 3.964-1.736 6.972-1.736 2.868 0 5.657.625 8.367 1.874l-1.96 4.682c-1.19-.51-2.305-.93-3.34-1.256-1.038-.325-2.095-.488-3.174-.488-1.916 0-2.873.518-2.873 1.554 0 .582.308 1.085.926 1.512.617.427 1.967 1.056 4.053 1.896 1.86.75 3.223 1.454 4.088 2.107.868.653 1.506 1.403 1.918 2.256.41.853.617 1.867.617 3.045M54.557 146.358c-1.605 0-2.775.494-3.512 1.48-.738.988-1.123 2.614-1.15 4.887v.7c0 2.557.38 4.39 1.138 5.493.76 1.11 1.962 1.663 3.61 1.663 2.908 0 4.364-2.397 4.364-7.196 0-2.343-.358-4.1-1.076-5.27-.715-1.17-1.84-1.756-3.373-1.756m1.916 19.483c-2.796 0-4.99-1.016-6.578-3.047h-.34c.226 1.988.34 3.138.34 3.452v9.642H43.4V141.61h5.282l.914 3.09h.3c1.517-2.356 3.766-3.536 6.748-3.536 2.81 0 5.008 1.087 6.6 3.256 1.588 2.173 2.384 5.19 2.384 9.05 0 2.54-.374 4.75-1.118 6.622-.746 1.872-1.806 3.298-3.184 4.277-1.376.98-2.993 1.47-4.853 1.47M83.102 154.386l-2.51.084c-1.89.056-3.295.398-4.217 1.023-.922.624-1.384 1.575-1.384 2.853 0 1.83 1.053 2.745 3.152 2.745 1.504 0 2.707-.43 3.61-1.298.9-.866 1.35-2.015 1.35-3.45v-1.956zm1.916 11.027l-1.256-3.235h-.17c-1.093 1.376-2.218 2.33-3.374 2.862-1.158.533-2.666.8-4.524.8-2.286 0-4.084-.655-5.397-1.96-1.312-1.307-1.97-3.165-1.97-5.578 0-2.526.884-4.387 2.65-5.587 1.77-1.202 4.432-1.864 7.996-1.99l4.13-.13v-1.043c0-2.412-1.235-3.618-3.705-3.618-1.902 0-4.138.573-6.705 1.723l-2.15-4.386c2.74-1.43 5.775-2.147 9.11-2.147 3.193 0 5.643.694 7.346 2.086 1.702 1.388 2.552 3.503 2.552 6.342v15.86h-4.534zM102.556 136.756c-.44 0-.86.19-1.267.564-.405.378-.7.95-.884 1.716h-3.17c.155-2.06.738-3.67 1.754-4.833 1.015-1.164 2.36-1.746 4.036-1.746.58 0 1.15.118 1.713.352.56.233 1.112.488 1.66.765.545.277 1.08.53 1.607.755.525.228 1.044.34 1.554.34.44 0 .863-.184 1.267-.552.405-.368.7-.938.885-1.704h3.17c-.154 2.06-.746 3.67-1.775 4.832-1.03 1.165-2.37 1.748-4.015 1.748-.58 0-1.152-.12-1.713-.354-.562-.232-1.116-.488-1.66-.766-.548-.275-1.084-.53-1.61-.765-.525-.235-1.04-.354-1.554-.354m14.562 28.657h-6.493V151.51c0-1.716-.306-3.004-.915-3.864-.61-.86-1.583-1.288-2.916-1.288-1.818 0-3.13.607-3.94 1.822-.81 1.21-1.212 3.225-1.212 6.034v11.2h-6.495V141.61h4.96l.874 3.043h.363c.724-1.15 1.722-2.016 2.99-2.607 1.272-.59 2.716-.883 4.334-.883 2.768 0 4.87.747 6.3 2.245 1.434 1.498 2.15 3.66 2.15 6.482v15.52zM135.913 154.386l-2.512.084c-1.887.056-3.292.398-4.215 1.023-.923.624-1.383 1.575-1.383 2.853 0 1.83 1.05 2.745 3.15 2.745 1.504 0 2.708-.43 3.61-1.298.9-.866 1.35-2.015 1.35-3.45v-1.956zm1.916 11.027l-1.257-3.235h-.17c-1.093 1.376-2.218 2.33-3.375 2.862-1.157.533-2.665.8-4.524.8-2.285 0-4.082-.655-5.397-1.96-1.312-1.307-1.97-3.165-1.97-5.578 0-2.526.884-4.387 2.652-5.587 1.765-1.202 4.43-1.864 7.994-1.99l4.13-.13v-1.043c0-2.412-1.236-3.618-3.705-3.618-1.905 0-4.14.573-6.707 1.723l-2.15-4.386c2.74-1.43 5.776-2.147 9.11-2.147 3.194 0 5.643.694 7.346 2.086 1.7 1.388 2.554 3.503 2.554 6.342v15.86h-4.535z" fill="#323291"/><path d="M154.788 141.61h7.11l4.493 13.393c.385 1.162.648 2.54.79 4.13h.126c.157-1.463.46-2.838.916-4.13l4.407-13.392h6.96l-10.068 26.85c-.924 2.48-2.24 4.34-3.95 5.575-1.71 1.234-3.71 1.852-5.993 1.852-1.12 0-2.222-.12-3.3-.36v-5.154c.78.185 1.63.278 2.554.278 1.15 0 2.152-.35 3.012-1.054.86-.702 1.528-1.764 2.012-3.185l.383-1.167-9.452-23.632z" fill="#231f20"/><path d="M220.268 165.413h-8.39l-13.54-23.548h-.19c.268 4.16.403 7.125.403 8.9v14.648h-5.897v-31.125h8.326l13.518 23.312h.15c-.215-4.045-.32-6.905-.32-8.58v-14.732h5.94v31.125zM232.995 165.413H226.5V141.61h6.495v23.803zm-6.77-29.955c0-2.113 1.177-3.172 3.532-3.172 2.357 0 3.536 1.06 3.536 3.172 0 1.01-.296 1.792-.885 2.353-.59.562-1.472.842-2.65.842-2.356 0-3.534-1.063-3.534-3.194M248.383 165.84c-7.41 0-11.114-4.066-11.114-12.2 0-4.046 1.007-7.135 3.023-9.27 2.014-2.136 4.903-3.206 8.663-3.206 2.754 0 5.223.54 7.41 1.616l-1.917 5.026c-1.023-.41-1.974-.748-2.854-1.01-.88-.264-1.76-.394-2.64-.394-3.377 0-5.067 2.397-5.067 7.195 0 4.657 1.69 6.984 5.066 6.984 1.25 0 2.406-.167 3.47-.5 1.066-.334 2.13-.856 3.194-1.567v5.56c-1.05.665-2.11 1.13-3.182 1.382-1.073.256-2.424.386-4.055.386M273.243 154.386l-2.51.084c-1.89.056-3.295.398-4.218 1.023-.922.624-1.384 1.575-1.384 2.853 0 1.83 1.053 2.745 3.153 2.745 1.503 0 2.706-.43 3.61-1.298.9-.866 1.35-2.015 1.35-3.45v-1.956zm1.916 11.027l-1.257-3.235h-.17c-1.093 1.376-2.22 2.33-3.375 2.862-1.157.533-2.665.8-4.523.8-2.287 0-4.085-.655-5.397-1.96-1.313-1.307-1.97-3.165-1.97-5.578 0-2.526.884-4.387 2.65-5.587 1.768-1.202 4.43-1.864 7.995-1.99l4.13-.13v-1.043c0-2.412-1.234-3.618-3.705-3.618-1.902 0-4.136.573-6.705 1.723l-2.15-4.386c2.738-1.43 5.775-2.147 9.112-2.147 3.192 0 5.64.694 7.343 2.086 1.705 1.388 2.555 3.503 2.555 6.342v15.86h-4.534zM298.575 141.164c.88 0 1.61.063 2.192.19l-.49 6.09c-.525-.14-1.163-.21-1.916-.21-2.072 0-3.686.53-4.842 1.595-1.157 1.062-1.736 2.552-1.736 4.47v12.113h-6.493V141.61h4.917l.958 4.004h.32c.737-1.335 1.735-2.41 2.99-3.225 1.256-.818 2.622-1.226 4.1-1.226M317.197 154.386l-2.51.084c-1.888.056-3.294.398-4.216 1.023-.923.624-1.383 1.575-1.383 2.853 0 1.83 1.05 2.745 3.15 2.745 1.503 0 2.707-.43 3.61-1.298.902-.866 1.35-2.015 1.35-3.45v-1.956zm1.916 11.027l-1.255-3.235h-.17c-1.093 1.376-2.218 2.33-3.375 2.862-1.156.533-2.664.8-4.524.8-2.286 0-4.084-.655-5.397-1.96-1.313-1.307-1.97-3.165-1.97-5.578 0-2.526.884-4.387 2.65-5.587 1.768-1.202 4.432-1.864 7.994-1.99l4.13-.13v-1.043c0-2.412-1.234-3.618-3.705-3.618-1.9 0-4.136.573-6.705 1.723l-2.15-4.386c2.74-1.43 5.776-2.147 9.113-2.147 3.19 0 5.64.694 7.344 2.086 1.703 1.388 2.554 3.503 2.554 6.342v15.86h-4.535zM333.947 149.405c0 1.29.296 2.312.884 3.063.59.753 1.488 1.128 2.696 1.128 1.22 0 2.113-.375 2.68-1.128.57-.75.853-1.773.853-3.063 0-2.87-1.18-4.303-3.534-4.303-2.385 0-3.58 1.432-3.58 4.303m-2.36 19.37c0 .897.43 1.598 1.288 2.107.858.513 2.06.77 3.608.77 2.327 0 4.15-.32 5.47-.96 1.32-.638 1.98-1.51 1.98-2.617 0-.895-.39-1.513-1.17-1.854-.78-.337-1.986-.51-3.62-.51h-3.363c-1.193 0-2.19.282-2.992.84-.802.564-1.203 1.306-1.203 2.226m18.372-27.164v3.3l-3.725.957c.682 1.063 1.022 2.255 1.022 3.576 0 2.554-.89 4.544-2.672 5.97-1.78 1.428-4.255 2.14-7.42 2.14l-1.17-.062-.958-.107c-.666.51-1 1.08-1 1.703 0 .938 1.192 1.407 3.576 1.407h4.045c2.61 0 4.603.56 5.972 1.682 1.37 1.12 2.054 2.764 2.054 4.935 0 2.783-1.158 4.94-3.48 6.473-2.32 1.532-5.652 2.3-9.996 2.3-3.32 0-5.858-.58-7.61-1.736-1.754-1.156-2.628-2.778-2.628-4.864 0-1.432.446-2.634 1.34-3.6.895-.965 2.207-1.652 3.94-2.064-.668-.284-1.25-.747-1.748-1.394-.496-.645-.744-1.33-.744-2.055 0-.905.263-1.665.787-2.266.527-.604 1.286-1.195 2.28-1.78-1.25-.54-2.24-1.405-2.97-2.598-.73-1.192-1.097-2.595-1.097-4.213 0-2.6.843-4.606 2.533-6.026 1.688-1.42 4.102-2.13 7.24-2.13.667 0 1.457.06 2.373.18.914.12 1.5.21 1.755.268h8.302zM369.647 165.413l-.873-3.045h-.34c-.696 1.107-1.683 1.963-2.96 2.564-1.278.605-2.733.91-4.364.91-2.798 0-4.905-.752-6.325-2.25-1.418-1.496-2.127-3.65-2.127-6.46v-15.52h6.493v13.9c0 1.717.305 3.006.916 3.865.61.86 1.58 1.29 2.917 1.29 1.816 0 3.13-.606 3.937-1.823.81-1.21 1.215-3.226 1.215-6.035v-11.2h6.494v23.803h-4.983zM393.55 154.386l-2.51.084c-1.89.056-3.296.398-4.217 1.023-.923.624-1.385 1.575-1.385 2.853 0 1.83 1.052 2.745 3.152 2.745 1.503 0 2.706-.43 3.61-1.298.9-.866 1.35-2.015 1.35-3.45v-1.956zm1.916 11.027l-1.256-3.235h-.17c-1.093 1.376-2.22 2.33-3.374 2.862-1.157.533-2.666.8-4.524.8-2.286 0-4.085-.655-5.397-1.96-1.313-1.307-1.97-3.165-1.97-5.578 0-2.526.884-4.387 2.65-5.587 1.768-1.202 4.43-1.864 7.995-1.99l4.13-.13v-1.043c0-2.412-1.234-3.618-3.704-3.618-1.903 0-4.138.573-6.707 1.723l-2.15-4.386c2.738-1.43 5.776-2.147 9.11-2.147 3.194 0 5.643.694 7.346 2.086 1.704 1.388 2.554 3.503 2.554 6.342v15.86h-4.534zM74.913 63.377c1.057-1.782 2.443-3.844 4.16-6.188 1.715-2.344 3.614-4.573 5.693-6.686 2.08-2.112 4.257-3.894 6.536-5.35 2.277-1.45 4.57-2.176 6.883-2.176 1.517 0 2.936.43 4.256 1.288 1.322.858 2.492 1.93 3.517 3.218s1.882 2.69 2.575 4.208c.693 1.52 1.138 2.972 1.336 4.356 1.32-2.176 3.07-4.438 5.25-6.782 2.178-2.343 4.486-4.472 6.932-6.39 2.442-1.91 4.835-3.478 7.178-4.7 2.343-1.22 4.34-1.834 5.99-1.834 2.973 0 5.76.83 8.37 2.475 2.605 1.65 4.9 3.715 6.883 6.19 1.98 2.477 3.548 5.184 4.704 8.12 1.155 2.94 1.732 5.662 1.732 8.173 0 2.44-.247 4.885-.74 7.325-.498 2.444-1.042 4.936-1.637 7.478-.594 2.542-1.14 5.116-1.634 7.72-.495 2.61-.744 5.303-.744 8.075 0 2.047.263 3.515.792 4.406.53.894 1.256 1.336 2.18 1.336 1.318 0 3.07-.743 5.248-2.227 2.18-1.485 4.62-3.416 7.328-5.792 2.707-2.376 5.546-5.065 8.516-8.073 2.973-3 5.857-6.005 8.667-9.01 2.804-3.003 5.46-5.89 7.97-8.663 2.508-2.775 4.62-5.152 6.338-7.13l7.924 11.585c-1.586 2.31-3.534 5.146-5.844 8.516-2.31 3.367-4.952 6.93-7.922 10.695-2.97 3.764-6.256 7.527-9.853 11.29-3.598 3.762-7.477 7.13-11.635 10.1-4.16 2.97-8.552 5.397-13.17 7.278-4.62 1.882-9.477 2.823-14.557 2.823-3.434 0-6.157-.99-8.17-2.97-2.014-1.98-3.55-4.52-4.606-7.626-1.056-3.1-1.75-6.536-2.08-10.3-.33-3.762-.494-7.425-.494-10.99 0-2.374.032-4.62.098-6.735.067-2.11.1-3.994.1-5.645 0-1.715-.066-3.084-.197-4.11-.133-1.02-.43-1.533-.89-1.533-2.05.528-3.962 2.062-5.744 4.604-1.784 2.54-3.485 5.53-5.1 8.96-1.62 3.437-3.22 7.1-4.805 10.994-1.585 3.896-3.185 7.493-4.8 10.794-1.62 3.302-3.285 6.025-5.004 8.17-1.714 2.145-3.562 3.218-5.543 3.218-1.584 0-3.236-.183-4.95-.545-1.72-.362-3.336-.826-4.853-1.387-1.52-.56-2.857-1.204-4.012-1.93-1.157-.725-1.965-1.487-2.426-2.28.33-.922.858-2.242 1.583-3.96.724-1.714 1.518-3.663 2.376-5.84.858-2.18 1.75-4.474 2.675-6.885.926-2.408 1.767-4.752 2.526-7.03.758-2.28 1.387-4.39 1.882-6.338.493-1.946.743-3.516.743-4.703 0-2.773-.283-4.587-.843-5.447-.56-.858-.94-1.286-1.138-1.286-.33 0-.91.297-1.732.892-.826.594-1.7 1.255-2.626 1.98-.926.727-1.767 1.42-2.524 2.08-.76.66-1.205 1.057-1.34 1.188l-7.325-10.993z" fill="#eb232c"/><path d="M114.524 29.016c-1.058-.926-1.883-1.847-2.477-2.774-.595-.925-.43-2.144.495-3.664 1.32-2.31 2.64-4.588 3.962-6.832 1.32-2.244 2.723-4.356 4.207-6.337 1.488-1.982 3.12-3.746 4.903-5.3 1.784-1.55 3.83-2.756 6.14-3.616 0 .068.067.1.198.1.53-.46 1.305-.345 2.33.346 1.023.695 2.21 1.768 3.564 3.22 1.35 1.452 2.872 3.186 4.555 5.2 1.683 2.01 3.415 4.142 5.197 6.386 2.047-2.708 4.045-5.23 5.99-7.575 1.95-2.342 3.717-5.065 5.3-8.17 1.585.858 2.872 1.682 3.862 2.476.99.792 1.913 1.584 2.773 2.377.856.793 1.715 1.6 2.57 2.427.86.825 1.886 1.733 3.074 2.723.658.53.923 1.253.792 2.18-.135.923-.45 1.897-.942 2.92-.495 1.024-1.09 2.03-1.783 3.02-.692.99-1.305 1.816-1.832 2.475-1.386 1.586-3.086 3.106-5.1 4.555-2.013 1.453-4.077 2.64-6.19 3.565-2.112.925-4.142 1.47-6.09 1.634-1.947.164-3.58-.247-4.9-1.238-1.255-.79-2.297-1.484-3.12-2.08-.825-.595-1.536-1.17-2.13-1.733-.594-.557-1.14-1.087-1.632-1.582-.495-.495-.975-1.04-1.435-1.635-1.52.926-3.285 2-5.3 3.218-2.014 1.225-4.06 2.28-6.14 3.17-2.077.89-4.094 1.453-6.038 1.685-1.95.23-3.55-.15-4.803-1.14" fill="#f7ed19"/><path d="M194.55 63.377c1.057-1.782 2.444-3.844 4.16-6.188 1.715-2.344 3.615-4.573 5.693-6.686 2.08-2.112 4.26-3.894 6.537-5.35 2.277-1.45 4.57-2.176 6.88-2.176 1.52 0 2.937.43 4.26 1.288 1.32.858 2.492 1.93 3.515 3.218 1.023 1.288 1.883 2.69 2.575 4.208.694 1.52 1.138 2.972 1.337 4.356 1.32-2.176 3.07-4.438 5.25-6.782 2.176-2.343 4.487-4.472 6.93-6.39 2.442-1.91 4.835-3.478 7.18-4.7 2.342-1.22 4.34-1.834 5.99-1.834 2.972 0 5.76.83 8.37 2.475 2.606 1.65 4.9 3.715 6.88 6.19 1.98 2.477 3.55 5.184 4.705 8.12 1.154 2.94 1.73 5.662 1.73 8.173 0 2.44-.246 4.885-.74 7.325-.496 2.444-1.04 4.936-1.635 7.478-.593 2.542-1.138 5.116-1.633 7.72-.495 2.61-.744 5.303-.744 8.075 0 2.047.264 3.515.794 4.406.527.894 1.254 1.336 2.18 1.336 1.318 0 3.068-.743 5.246-2.227 2.18-1.485 4.62-3.416 7.33-5.792 2.705-2.376 5.544-5.065 8.515-8.073 2.97-3 5.857-6.005 8.664-9.01 2.804-3.003 5.462-5.89 7.97-8.663 2.51-2.775 4.622-5.152 6.338-7.13l7.924 11.585c-1.585 2.31-3.534 5.146-5.844 8.516-2.31 3.367-4.95 6.93-7.922 10.695-2.97 3.764-6.255 7.527-9.853 11.29-3.598 3.762-7.477 7.13-11.636 10.1-4.158 2.97-8.55 5.397-13.17 7.278-4.62 1.882-9.475 2.823-14.557 2.823-3.434 0-6.157-.99-8.17-2.97-2.015-1.98-3.55-4.52-4.603-7.626-1.06-3.1-1.752-6.536-2.08-10.3-.334-3.762-.497-7.425-.497-10.99 0-2.374.033-4.62.1-6.735.063-2.11.1-3.994.1-5.645 0-1.715-.068-3.084-.2-4.11-.13-1.02-.428-1.533-.89-1.533-2.047.528-3.96 2.062-5.745 4.604-1.78 2.54-3.482 5.53-5.1 8.96-1.617 3.437-3.216 7.1-4.8 10.994-1.586 3.896-3.187 7.493-4.805 10.794-1.617 3.302-3.285 6.025-5 8.17-1.717 2.145-3.565 3.218-5.547 3.218-1.584 0-3.234-.183-4.95-.545-1.717-.362-3.334-.826-4.85-1.387-1.52-.56-2.858-1.204-4.013-1.93-1.156-.725-1.965-1.487-2.427-2.28.332-.922.858-2.242 1.586-3.96.724-1.714 1.517-3.663 2.376-5.84.856-2.18 1.747-4.474 2.672-6.885.924-2.408 1.768-4.752 2.526-7.03.76-2.28 1.388-4.39 1.882-6.338.495-1.946.742-3.516.742-4.703 0-2.773-.282-4.587-.84-5.447-.564-.858-.942-1.286-1.14-1.286-.332 0-.907.297-1.732.892-.826.594-1.702 1.255-2.624 1.98-.926.727-1.77 1.42-2.527 2.08-.758.66-1.206 1.057-1.336 1.188l-7.33-10.993z" fill="#323291"/></svg>