<svg xmlns="http://www.w3.org/2000/svg" width="400" height="140.674"><path d="M40.066 140.674H0V.004h40.066v140.67zM65.857 0h-24.06v140.67h24.06V0zM87.52 0H67.424v140.67H87.52V0z" fill="#3cb4e7"/><path d="M1.035.108L39.29 38.36 1.035 76.62V.107z" fill="#ed1d24"/><path d="M42.298 85.568L65.166 62.7 42.298 39.832v45.736z" fill="#f7941e"/><path d="M67.4 103.707l19.83-19.832-19.83-19.83v39.662z" fill="#fff200"/><path d="M100.228 112.024V93.85h10.216v3.073h-7.214v4.304h6.244v3.074h-6.244v7.724h-3.002zM119.33 104.313c-.023-1.028-.242-1.804-.655-2.32-.413-.52-.905-.778-1.476-.778-.605 0-1.114.27-1.524.806-.424.55-.63 1.312-.622 2.293h4.277zm-.146 3.53l2.838.586c-.382 1.32-.973 2.304-1.776 2.943-.803.642-1.78.96-2.93.96-1.596 0-2.83-.533-3.696-1.602-1.028-1.24-1.54-2.978-1.54-5.215 0-2.203.515-3.966 1.55-5.29.874-1.118 2.008-1.678 3.395-1.678 1.544 0 2.756.574 3.63 1.715 1.012 1.308 1.514 3.238 1.514 5.786l-.01.396h-7.157c.017 1.045.253 1.855.704 2.43.45.57.997.856 1.636.856.92 0 1.533-.63 1.84-1.886M127.228 112.024h-2.863V98.86h2.65v1.87c.455-.876.862-1.457 1.224-1.747.357-.29.774-.434 1.245-.434.653 0 1.274.217 1.87.655l-.893 3.036c-.47-.378-.915-.566-1.34-.566-.395 0-.743.144-1.044.437-.304.298-.52.828-.652 1.596-.133.772-.198 2.186-.198 4.246v4.072zM132.582 98.858h2.862v13.163h-2.862V98.86zm0-5.008h2.862v3.225h-2.862V93.85zM144.322 105.7c-.365.15-.93.326-1.697.524-.885.232-1.466.488-1.735.772-.274.28-.41.645-.41 1.093 0 .504.15.928.45 1.273.305.345.68.516 1.135.516.406 0 .806-.138 1.202-.418.396-.277.673-.605.826-.987.15-.383.23-1.073.23-2.077v-.697zm-3.818-2.837l-2.59-.57c.31-1.333.83-2.29 1.555-2.87.723-.584 1.76-.874 3.117-.874 1.206 0 2.128.17 2.763.508.636.338 1.09.8 1.363 1.383.273.585.41 1.644.41 3.184l-.024 4.068c0 1.14.044 1.992.136 2.552.092.557.26 1.15.51 1.78h-2.83l-.372-1.438c-.488.577-1.007 1.014-1.567 1.308-.557.293-1.152.44-1.78.44-1.05 0-1.91-.355-2.575-1.062-.67-.707-1.008-1.65-1.008-2.825 0-.744.137-1.393.41-1.947.273-.556.66-.997 1.154-1.328.496-.332 1.288-.625 2.38-.882 1.323-.307 2.245-.59 2.764-.857 0-.73-.05-1.212-.153-1.44-.107-.227-.295-.415-.572-.56-.277-.148-.67-.22-1.17-.22-.514 0-.917.116-1.21.348-.294.234-.533.667-.714 1.303M148.946 108.28l2.862-.534c.25 1.38 1.018 2.07 2.306 2.07.686 0 1.198-.133 1.54-.396.338-.266.506-.608.506-1.03 0-.288-.072-.517-.222-.68-.158-.168-.468-.312-.933-.435-2.346-.625-3.836-1.22-4.47-1.78-.797-.703-1.193-1.67-1.193-2.896 0-1.227.39-2.207 1.165-2.945.778-.738 1.906-1.107 3.385-1.107 1.414 0 2.486.273 3.224.823.734.55 1.25 1.44 1.55 2.662l-2.69.608c-.24-1.06-.92-1.588-2.033-1.588-.704 0-1.202.102-1.5.304-.3.205-.447.468-.447.79 0 .29.137.528.41.72.27.2 1.117.498 2.538.9 1.595.452 2.677.995 3.248 1.634.563.635.844 1.482.844 2.54 0 1.275-.434 2.327-1.305 3.154-.874.826-2.076 1.24-3.616 1.24-1.394 0-2.535-.345-3.42-1.035-.884-.69-1.468-1.7-1.748-3.02M165.954 98.858h3.05l2.572 9.352 2.52-9.352h2.965l-3.807 12.67-.73 2.468c-.326.926-.647 1.602-.964 2.032-.32.43-.725.76-1.217.99-.496.233-1.1.35-1.82.35-.554 0-1.097-.072-1.627-.212l-.25-2.726c.448.106.85.16 1.207.16.543 0 .994-.184 1.342-.546.352-.362.642-1.02.868-1.978l-4.11-13.208zM184.71 112.024V93.85h11.056v3.073h-8.054v4.03h7.484v3.064h-7.484v4.932h8.327v3.074h-11.33zM201.557 112.024L197.18 98.86h2.99l2.04 6.718.593 2.244.605-2.244 2.066-6.718h2.928l-4.304 13.164h-2.54zM216.57 104.313c-.024-1.028-.243-1.804-.66-2.32-.41-.52-.905-.778-1.472-.778-.604 0-1.113.27-1.526.806-.42.55-.63 1.312-.62 2.293h4.278zm-.147 3.53l2.835.586c-.38 1.32-.97 2.304-1.773 2.943-.802.642-1.78.96-2.93.96-1.596 0-2.83-.533-3.7-1.602-1.024-1.24-1.537-2.978-1.537-5.215 0-2.203.516-3.966 1.548-5.29.878-1.118 2.012-1.678 3.398-1.678 1.544 0 2.757.574 3.63 1.715 1.01 1.308 1.514 3.238 1.514 5.786l-.01.396h-7.156c.017 1.045.253 1.855.704 2.43.45.57.997.856 1.633.856.92 0 1.532-.63 1.843-1.886M231.545 112.024h-2.863v-6.726c0-1.35-.054-2.247-.164-2.695-.105-.447-.307-.79-.6-1.028-.29-.242-.626-.362-.995-.362-.48 0-.915.154-1.304.465-.387.31-.66.74-.82 1.284-.158.55-.233 1.578-.233 3.09v5.972H221.7V98.86h2.655v1.92c.47-.745 1.004-1.302 1.59-1.674.596-.373 1.248-.557 1.97-.557.832 0 1.536.217 2.11.65.577.435.973.992 1.192 1.675.218.683.328 1.67.328 2.958v8.19zM239.38 98.858v2.777h-1.948v5.315c0 1.15.03 1.817.09 1.998.112.33.35.498.706.498.263 0 .642-.112 1.14-.334l.247 2.7c-.66.346-1.407.52-2.244.52-.727 0-1.307-.174-1.748-.52-.437-.347-.73-.85-.878-1.5-.116-.48-.174-1.46-.174-2.932v-5.745h-1.315v-2.777h1.315V96.24l2.862-2.03v4.648h1.947zM243.632 105.44c0 1.336.26 2.344.782 3.03.523.684 1.15 1.025 1.89 1.025.72 0 1.338-.345 1.85-1.03.512-.69.77-1.706.77-3.048 0-1.312-.26-2.31-.784-2.996-.522-.69-1.147-1.033-1.875-1.033-.72 0-1.34.344-1.858 1.034-.516.688-.775 1.696-.775 3.02m-2.927-.184c0-1.294.256-2.47.768-3.528.512-1.06 1.182-1.855 2.008-2.384.828-.53 1.757-.796 2.792-.796 1.735 0 3.098.683 4.092 2.043.99 1.364 1.486 2.955 1.486 4.776 0 1.36-.26 2.582-.776 3.675-.515 1.094-1.195 1.917-2.032 2.467-.84.55-1.76.827-2.76.827-1.602 0-2.934-.612-3.99-1.838-1.058-1.226-1.587-2.972-1.587-5.24M253.09 108.28l2.862-.534c.25 1.38 1.018 2.07 2.306 2.07.686 0 1.198-.133 1.537-.396.34-.266.51-.608.51-1.03 0-.288-.077-.517-.223-.68-.158-.168-.468-.312-.933-.435-2.348-.625-3.837-1.22-4.472-1.78-.796-.703-1.192-1.67-1.192-2.896 0-1.227.39-2.207 1.165-2.945.776-.738 1.907-1.107 3.386-1.107 1.414 0 2.486.273 3.224.823.734.55 1.25 1.44 1.55 2.662l-2.69.608c-.243-1.06-.92-1.588-2.037-1.588-.7 0-1.202.102-1.5.304-.296.205-.443.468-.443.79 0 .29.136.528.41.72.27.2 1.117.498 2.538.9 1.595.452 2.677.995 3.248 1.634.563.635.847 1.482.847 2.54 0 1.275-.44 2.327-1.308 3.154-.875.826-2.08 1.24-3.617 1.24-1.397 0-2.538-.345-3.42-1.035-.884-.69-1.468-1.7-1.748-3.02M273.742 105.155c0 1.192.1 2.084.304 2.668.202.584.49 1.02.865 1.318.376.295.8.442 1.268.442.625 0 1.17-.342 1.632-1.02.462-.68.694-1.702.694-3.072 0-1.516-.226-2.61-.673-3.276-.45-.666-1.02-1-1.714-1-.66 0-1.22.328-1.68.983-.46.653-.694 1.64-.694 2.958m7.61 6.87h-2.65v-1.934c-.44.742-.956 1.302-1.55 1.678-.595.376-1.207.564-1.835.564-1.21 0-2.258-.602-3.153-1.804-.898-1.206-1.35-2.927-1.35-5.16 0-2.252.442-3.953 1.313-5.1.874-1.145 1.954-1.72 3.23-1.72.606 0 1.166.155 1.692.46.52.303 1.003.764 1.44 1.376V93.85h2.862v18.174zM290.6 104.313c-.027-1.028-.242-1.804-.652-2.32-.417-.52-.91-.778-1.476-.778-.604 0-1.113.27-1.53.806-.42.55-.625 1.312-.618 2.293h4.276zm-.147 3.53l2.84.586c-.38 1.32-.975 2.304-1.777 2.943-.803.642-1.78.96-2.927.96-1.6 0-2.833-.533-3.7-1.602-1.025-1.24-1.54-2.978-1.54-5.215 0-2.203.515-3.966 1.55-5.29.874-1.118 2.008-1.678 3.395-1.678 1.547 0 2.756.574 3.634 1.715 1.007 1.308 1.512 3.238 1.512 5.786l-.013.396h-7.154c.014 1.045.246 1.855.704 2.43.45.57.994.856 1.636.856.92 0 1.53-.63 1.837-1.886M301.597 112.024V93.85h2.928l6.097 12.138v-12.14h2.804v18.176H310.4l-6.002-11.853v11.854h-2.8zM316.573 98.858h2.862v13.163h-2.862V98.86zm0-5.008h2.862v3.225h-2.862V93.85zM331.785 102.738l-2.815.622c-.208-1.38-.86-2.074-1.957-2.074-.707 0-1.277.3-1.71.9-.43.593-.647 1.6-.647 3.018 0 1.568.216 2.675.646 3.32.43.646 1.008.97 1.728.97.54 0 .984-.184 1.33-.55.347-.37.597-1.02.747-1.953l2.815.58c-.58 3.178-2.245 4.763-4.998 4.763-1.762 0-3.067-.67-3.917-2.012-.85-1.338-1.278-2.954-1.278-4.843 0-2.26.48-3.98 1.444-5.157.967-1.182 2.23-1.773 3.795-1.773 1.263 0 2.294.335 3.093 1.004.8.674 1.374 1.733 1.722 3.188M339.89 105.7c-.36.15-.928.326-1.697.524-.885.232-1.462.488-1.735.772-.273.28-.41.645-.41 1.093 0 .504.15.928.454 1.273.3.345.68.516 1.134.516.403 0 .803-.138 1.203-.418.395-.277.668-.605.822-.987.15-.383.23-1.073.23-2.077v-.697zm-3.818-2.837l-2.59-.57c.312-1.333.83-2.29 1.555-2.87.724-.584 1.762-.874 3.12-.874 1.204 0 2.126.17 2.762.508.637.338 1.092.8 1.365 1.383.27.585.41 1.644.41 3.184l-.027 4.068c0 1.14.044 1.992.136 2.552.092.557.263 1.15.51 1.78h-2.83l-.37-1.438c-.486.577-1.01 1.014-1.57 1.308-.556.293-1.15.44-1.78.44-1.047 0-1.908-.355-2.574-1.062-.67-.707-1.004-1.65-1.004-2.825 0-.744.133-1.393.406-1.947.273-.556.66-.997 1.155-1.328.495-.332 1.287-.625 2.38-.882 1.322-.307 2.244-.59 2.764-.857 0-.73-.05-1.212-.156-1.44-.103-.227-.29-.415-.567-.56-.277-.148-.667-.22-1.172-.22-.512 0-.915.116-1.21.348-.293.234-.53.667-.713 1.303M348.258 112.024h-2.862V98.86h2.65v1.87c.458-.876.86-1.457 1.223-1.747.358-.29.77-.434 1.243-.434.655 0 1.277.217 1.875.655l-.895 3.036c-.47-.378-.915-.566-1.336-.566-.4 0-.748.144-1.048.437-.305.298-.52.828-.654 1.596-.133.772-.198 2.186-.198 4.246v4.072zM359.565 105.7c-.366.15-.93.326-1.698.524-.888.232-1.465.488-1.735.772-.277.28-.41.645-.41 1.093 0 .504.15.928.45 1.273.305.345.68.516 1.135.516.407 0 .806-.138 1.202-.418.396-.277.672-.605.826-.987.15-.383.23-1.073.23-2.077v-.697zm-3.82-2.837l-2.588-.57c.31-1.333.83-2.29 1.554-2.87.725-.584 1.764-.874 3.116-.874 1.21 0 2.128.17 2.767.508.64.338 1.093.8 1.363 1.383.273.585.41 1.644.41 3.184l-.024 4.068c0 1.14.044 1.992.133 2.552.092.557.263 1.15.51 1.78h-2.826l-.373-1.438c-.49.577-1.01 1.014-1.568 1.308-.558.293-1.152.44-1.78.44-1.05 0-1.91-.355-2.58-1.062-.67-.707-1.004-1.65-1.004-2.825 0-.744.137-1.393.41-1.947.274-.556.66-.997 1.155-1.328.496-.332 1.29-.625 2.382-.882 1.32-.307 2.24-.59 2.763-.857 0-.73-.055-1.212-.157-1.44-.103-.227-.29-.415-.567-.56-.276-.148-.67-.22-1.174-.22-.513 0-.916.116-1.21.348-.293.234-.53.667-.71 1.303M367.473 105.162c0 1.407.225 2.432.676 3.077.446.648.993.97 1.628.97.687 0 1.274-.33 1.763-.98.486-.657.728-1.647.728-2.983 0-1.373-.232-2.387-.7-3.047-.464-.655-1.042-.987-1.728-.987-.677 0-1.244.325-1.69.97-.452.646-.677 1.64-.677 2.98m-2.555 7.728l3.275.483c.048.482.2.823.45 1.025.254.2.654.304 1.197.304.628 0 1.137-.106 1.527-.31.27-.15.48-.397.63-.746.148-.345.223-.956.223-1.834v-1.92c-.43.71-.912 1.244-1.448 1.6-.54.354-1.134.532-1.786.532-1.2 0-2.207-.543-3.026-1.626-.943-1.24-1.415-2.92-1.415-5.038 0-2.25.448-3.95 1.336-5.093.886-1.147 1.965-1.718 3.232-1.718.666 0 1.274.177 1.828.54.546.357 1.035.897 1.468 1.614v-1.847h2.675v11.814c0 1.894-.17 3.267-.52 4.117-.344.85-.88 1.496-1.605 1.93-.72.434-1.725.65-3.006.65-1.18 0-2.13-.158-2.838-.472-.71-.315-1.257-.783-1.633-1.408-.374-.62-.562-1.345-.562-2.162v-.434zM384.99 112.024v-1.968c-.398.714-.917 1.27-1.562 1.674-.643.403-1.315.604-2.016.604-.71 0-1.345-.187-1.906-.56-.56-.372-.98-.902-1.257-1.588-.277-.687-.414-1.68-.414-2.99V98.86h2.862v6.05c0 1.724.045 2.823.13 3.288.09.468.277.83.578 1.086.297.256.652.383 1.072.383.478 0 .92-.168 1.322-.502.403-.335.67-.762.8-1.288.126-.526.19-1.68.19-3.464V98.86h2.863v13.164h-2.664zM396.58 105.7c-.36.15-.928.326-1.697.524-.884.232-1.465.488-1.735.772-.276.28-.41.645-.41 1.093 0 .504.15.928.45 1.273.305.345.68.516 1.135.516.407 0 .806-.138 1.206-.418.392-.277.668-.605.822-.987.15-.383.23-1.073.23-2.077v-.697zm-3.818-2.837l-2.59-.57c.312-1.333.83-2.29 1.555-2.87.724-.584 1.763-.874 3.115-.874 1.21 0 2.132.17 2.767.508.638.338 1.092.8 1.362 1.383.273.585.41 1.644.41 3.184l-.024 4.068c0 1.14.044 1.992.136 2.552.09.557.26 1.15.506 1.78h-2.825l-.372-1.438c-.49.577-1.01 1.014-1.568 1.308-.557.293-1.15.44-1.78.44-1.048 0-1.91-.355-2.578-1.062-.67-.707-1-1.65-1-2.825 0-.744.132-1.393.405-1.947.274-.556.66-.997 1.155-1.328.495-.332 1.288-.625 2.38-.882 1.323-.307 2.245-.59 2.764-.857 0-.73-.054-1.212-.156-1.44-.103-.227-.29-.415-.567-.56-.277-.148-.67-.22-1.172-.22-.516 0-.915.116-1.212.348-.294.234-.53.667-.71 1.303" fill="#00aeef"/><path d="M99.91 136.396V121.86h8.846v2.458h-6.445v3.22h5.992v2.45h-5.99v3.95h6.663v2.458H99.91zM109.897 136.396l3.098-5.387-2.968-5.148h2.794l1.572 2.72 1.564-2.72h2.678l-2.9 5.035 3.177 5.5h-2.807l-1.77-3.068-1.768 3.066h-2.668zM122.45 130.95c0 1.193.195 2.074.577 2.638.386.564.854.844 1.4.844.523 0 .96-.26 1.32-.78.354-.522.532-1.372.532-2.55 0-1.12-.182-1.95-.55-2.484-.366-.533-.814-.8-1.34-.8-.553 0-1.018.26-1.387.78-.368.522-.553 1.304-.553 2.353m-2.258-5.088h2.122v1.55c.29-.556.676-.994 1.15-1.315.48-.32.99-.48 1.54-.48.988 0 1.84.47 2.55 1.41.71.94 1.065 2.274 1.065 4.003 0 1.813-.356 3.203-1.07 4.167-.714.966-1.565 1.448-2.548 1.448-.458 0-.882-.113-1.274-.335-.393-.222-.81-.62-1.247-1.202v5.294h-2.288v-14.54zM135.573 130.227c-.02-.823-.195-1.44-.526-1.858-.332-.414-.724-.623-1.18-.623-.484 0-.89.216-1.218.65-.34.437-.503 1.048-.5 1.83h3.423zm-.12 2.825l2.272.468c-.304 1.06-.78 1.84-1.418 2.357-.645.512-1.424.768-2.346.768-1.277 0-2.26-.427-2.957-1.284-.82-.993-1.23-2.383-1.23-4.17 0-1.762.41-3.173 1.236-4.232.703-.894 1.608-1.342 2.718-1.342 1.237 0 2.207.458 2.907 1.37.806 1.048 1.21 2.59 1.21 4.628l-.01.32h-5.722c.013.834.2 1.483.56 1.94.362.46.8.688 1.308.688.74 0 1.227-.502 1.473-1.51M141.89 136.396h-2.292v-10.534h2.124v1.5c.362-.7.687-1.17.977-1.4.286-.23.617-.346.997-.346.52 0 1.017.174 1.496.526l-.714 2.43c-.377-.305-.736-.456-1.074-.456-.317 0-.594.117-.837.352-.243.232-.414.66-.52 1.274-.11.618-.16 1.75-.16 3.4v3.254zM146.173 125.865h2.292V136.4h-2.292v-10.535zm0-4.006h2.292v2.577h-2.292v-2.578zM155.943 130.227c-.02-.823-.195-1.44-.526-1.858-.332-.414-.724-.623-1.18-.623-.484 0-.89.216-1.218.65-.34.437-.503 1.048-.5 1.83h3.423zm-.12 2.825l2.272.468c-.304 1.06-.78 1.84-1.418 2.357-.646.512-1.424.768-2.346.768-1.277 0-2.26-.427-2.957-1.284-.82-.993-1.23-2.383-1.23-4.17 0-1.762.41-3.173 1.236-4.232.703-.894 1.608-1.342 2.718-1.342 1.237 0 2.207.458 2.907 1.37.806 1.048 1.21 2.59 1.21 4.628l-.01.32h-5.722c.013.834.2 1.483.56 1.94.362.46.8.688 1.308.688.74 0 1.227-.502 1.473-1.51M167.923 136.396h-2.292v-5.38c0-1.08-.04-1.8-.126-2.155-.088-.358-.25-.63-.48-.826-.237-.19-.503-.287-.8-.287-.383 0-.73.123-1.042.373-.31.25-.53.59-.656 1.028-.123.437-.188 1.26-.188 2.473v4.776h-2.288v-10.534h2.12v1.54c.376-.597.803-1.04 1.275-1.338.47-.298.997-.448 1.57-.448.67 0 1.234.174 1.692.523.46.344.78.79.953 1.338.174.546.263 1.335.263 2.367v6.55zM177.78 128.968l-2.25.495c-.168-1.103-.69-1.656-1.568-1.656-.564 0-1.018.24-1.366.717-.345.478-.516 1.284-.516 2.418 0 1.254.17 2.138.516 2.654.345.52.806.78 1.383.78.43 0 .785-.15 1.06-.445.28-.293.48-.812.6-1.56l2.25.464c-.46 2.542-1.793 3.81-3.996 3.81-1.408 0-2.453-.537-3.136-1.61-.68-1.072-1.02-2.364-1.02-3.873 0-1.81.385-3.183 1.157-4.13.772-.94 1.783-1.413 3.033-1.413 1.014 0 1.837.267 2.476.803.64.536 1.1 1.387 1.377 2.548M179.506 125.865h2.292V136.4h-2.292v-10.535zm0-4.006h2.292v2.577h-2.292v-2.578zM188.898 131.34c-.29.118-.745.258-1.36.415-.707.188-1.168.393-1.386.62-.22.224-.328.514-.328.873 0 .403.12.745.362 1.02.24.275.543.41.908.41.325 0 .643-.108.96-.33.318-.222.537-.485.66-.793.122-.304.184-.857.184-1.66v-.556zm-3.054-2.273l-2.073-.457c.254-1.063.667-1.828 1.244-2.296.578-.464 1.41-.7 2.494-.7.966 0 1.704.137 2.213.41.51.27.872.64 1.094 1.107.215.465.325 1.316.325 2.545l-.022 3.255c0 .916.038 1.596.11 2.043.075.444.208.92.406 1.424h-2.26l-.298-1.15c-.39.46-.81.81-1.254 1.044-.447.237-.922.353-1.424.353-.84 0-1.527-.283-2.063-.847-.537-.567-.803-1.318-.803-2.26 0-.595.11-1.115.328-1.56.218-.443.526-.798.922-1.06.396-.267 1.032-.503 1.906-.708 1.055-.246 1.793-.47 2.21-.683 0-.588-.04-.97-.123-1.155-.085-.18-.236-.33-.458-.447-.222-.116-.533-.174-.936-.174-.41 0-.733.09-.965.276-.236.184-.427.532-.57 1.04M193.34 133.61h2.283v1.994c0 1.13-.134 1.967-.4 2.517-.32.68-.864 1.186-1.622 1.518l-.447-1.148c.45-.188.772-.437.974-.75.198-.316.3-.763.314-1.344h-1.1v-2.787zM202.603 121.86h2.4v14.536h-2.4V121.86zM215.148 136.396h-2.292v-5.38c0-1.08-.04-1.8-.126-2.155-.085-.358-.246-.63-.482-.826-.235-.19-.502-.287-.8-.287-.38 0-.73.123-1.04.373-.31.25-.53.59-.656 1.028-.123.437-.185 1.26-.185 2.473v4.776h-2.295v-10.534h2.124v1.54c.38-.597.803-1.04 1.274-1.338.472-.298.998-.448 1.572-.448.67 0 1.233.174 1.69.523.46.344.78.79.953 1.338.174.546.263 1.335.263 2.367v6.55zM225.324 136.396h-2.292v-5.38c0-1.08-.04-1.8-.13-2.155-.085-.358-.242-.63-.478-.826-.235-.19-.502-.287-.8-.287-.382 0-.73.123-1.04.373-.312.25-.53.59-.657 1.028-.123.437-.184 1.26-.184 2.473v4.776h-2.295v-10.534h2.124v1.54c.376-.597.803-1.04 1.274-1.338.472-.298.998-.448 1.57-.448.667 0 1.234.174 1.692.523.458.344.78.79.953 1.338.175.546.264 1.335.264 2.367v6.55zM229.45 131.13c0 1.066.207 1.876.624 2.422.42.547.922.82 1.513.82.574 0 1.07-.273 1.48-.823.412-.55.617-1.364.617-2.44 0-1.05-.208-1.848-.625-2.398-.42-.55-.92-.823-1.504-.823-.577 0-1.072.272-1.486.822-.413.55-.62 1.356-.62 2.418m-2.34-.15c0-1.03.204-1.974.614-2.82.41-.848.946-1.484 1.608-1.907.66-.424 1.404-.64 2.227-.64 1.39 0 2.48.548 3.275 1.637.792 1.09 1.19 2.364 1.19 3.82 0 1.085-.206 2.065-.62 2.94-.413.878-.956 1.533-1.625 1.974-.673.44-1.408.66-2.207.66-1.284 0-2.346-.49-3.194-1.47-.848-.98-1.27-2.377-1.27-4.194M240.21 136.396l-3.502-10.534h2.39l1.634 5.38.475 1.793.48-1.797 1.658-5.376h2.34l-3.443 10.534h-2.033zM251.842 131.34c-.29.118-.745.258-1.356.415-.71.188-1.172.393-1.39.62-.22.224-.328.514-.328.873 0 .403.12.745.362 1.02s.543.41.908.41c.325 0 .643-.108.96-.33.32-.222.537-.485.66-.793.122-.304.184-.857.184-1.66v-.556zm-3.054-2.273l-2.073-.457c.253-1.063.666-1.828 1.243-2.296.58-.464 1.41-.7 2.494-.7.966 0 1.704.137 2.213.41.51.27.874.64 1.093 1.107.215.465.328 1.316.328 2.545l-.02 3.255c0 .916.034 1.596.105 2.043.077.444.21.92.408 1.424h-2.26l-.295-1.15c-.393.46-.813.81-1.257 1.044-.444.237-.922.353-1.424.353-.837 0-1.527-.283-2.063-.847-.534-.567-.804-1.318-.804-2.26 0-.595.113-1.115.328-1.56.218-.443.526-.798.922-1.06.396-.267 1.032-.503 1.906-.708 1.06-.246 1.793-.47 2.21-.683 0-.588-.04-.97-.123-1.155-.086-.18-.237-.33-.46-.447-.217-.116-.532-.174-.935-.174-.41 0-.73.09-.966.276-.237.184-.428.532-.572 1.04M263.88 128.968l-2.25.495c-.167-1.103-.686-1.656-1.564-1.656-.567 0-1.02.24-1.37.717-.345.478-.515 1.284-.515 2.418 0 1.254.17 2.138.516 2.654.345.52.807.78 1.384.78.43 0 .785-.15 1.065-.445.277-.293.475-.812.595-1.56l2.25.464c-.46 2.542-1.793 3.81-3.996 3.81-1.407 0-2.452-.537-3.135-1.61-.68-1.072-1.02-2.364-1.02-3.873 0-1.81.384-3.183 1.155-4.13.772-.94 1.783-1.413 3.034-1.413 1.013 0 1.836.267 2.478.803.64.536 1.097 1.387 1.373 2.548M265.608 125.865h2.292V136.4h-2.292v-10.535zm0-4.006h2.292v2.577h-2.292v-2.578zM272.985 124.574l1.124-2.964h2.575l-2.248 2.964h-1.452zm-.942 6.555c0 1.068.208 1.874.628 2.42.418.55.92.824 1.51.824.578 0 1.073-.277 1.483-.827.41-.55.615-1.363.615-2.435 0-1.05-.208-1.848-.628-2.398-.414-.55-.916-.826-1.5-.826-.574 0-1.072.276-1.486.826-.413.55-.62 1.356-.62 2.415m-2.34-.148c0-1.035.204-1.974.614-2.825.41-.847.946-1.482 1.605-1.906.663-.422 1.407-.634 2.234-.634 1.387 0 2.48.543 3.272 1.633.792 1.088 1.188 2.362 1.188 3.82 0 1.087-.205 2.067-.618 2.942-.414.874-.957 1.53-1.626 1.97-.673.44-1.407.663-2.21.663-1.28 0-2.347-.492-3.19-1.472-.847-.98-1.27-2.377-1.27-4.19M288.268 136.396h-2.292v-5.38c0-1.08-.04-1.8-.126-2.155-.086-.358-.246-.63-.482-.826-.235-.19-.502-.287-.8-.287-.382 0-.73.123-1.04.373-.308.25-.527.59-.653 1.028-.127.437-.188 1.26-.188 2.473v4.776h-2.292v-10.534h2.12v1.54c.38-.597.804-1.04 1.28-1.338.467-.298.993-.448 1.57-.448.666 0 1.23.174 1.687.523.458.344.78.79.953 1.338.178.546.263 1.335.263 2.367v6.55zM294.13 125.863h2.443l2.053 7.48 2.02-7.48h2.37L299.97 136l-.588 1.972c-.26.74-.515 1.284-.768 1.63-.256.34-.58.604-.974.792-.396.184-.88.276-1.455.276-.444 0-.88-.054-1.304-.167l-.2-2.183c.36.086.68.13.965.13.437 0 .796-.147 1.08-.437.28-.29.508-.82.69-1.582l-3.287-10.567zM316.76 131.05l2.334.902c-.366 1.626-.97 2.815-1.817 3.566-.847.752-1.89 1.127-3.126 1.127-1.55 0-2.81-.6-3.773-1.796-1.11-1.385-1.67-3.246-1.67-5.593 0-2.48.56-4.423 1.68-5.823.974-1.216 2.278-1.824 3.918-1.824 1.34 0 2.46.457 3.358 1.37.642.645 1.113 1.608 1.407 2.882l-2.377.697c-.154-.79-.455-1.39-.91-1.81-.453-.422-.99-.633-1.604-.633-.883 0-1.603.386-2.16 1.15-.553.77-.833 2.036-.833 3.8 0 1.83.273 3.135.816 3.906.543.776 1.243 1.162 2.11 1.162.636 0 1.183-.246 1.647-.738.46-.495.796-1.274 1-2.347M325.894 131.34c-.293.118-.744.258-1.36.415-.706.188-1.167.393-1.386.62-.218.224-.328.514-.328.873 0 .403.12.745.362 1.02.24.275.543.41.905.41.325 0 .646-.108.964-.33.318-.222.537-.485.66-.793.123-.304.184-.857.184-1.66v-.556zm-3.053-2.273l-2.073-.457c.253-1.063.666-1.828 1.244-2.296.578-.464 1.41-.7 2.494-.7.967 0 1.705.137 2.213.41.51.27.87.64 1.094 1.107.216.465.325 1.316.325 2.545l-.017 3.255c0 .916.034 1.596.106 2.043.072.444.208.92.406 1.424h-2.26l-.298-1.15c-.39.46-.81.81-1.254 1.044-.447.237-.922.353-1.424.353-.84 0-1.527-.283-2.063-.847-.535-.567-.802-1.318-.802-2.26 0-.595.113-1.115.328-1.56.22-.443.526-.798.922-1.06.397-.267 1.032-.503 1.906-.708 1.056-.246 1.794-.47 2.21-.683 0-.588-.04-.97-.123-1.155-.084-.18-.234-.33-.456-.447-.222-.116-.537-.174-.936-.174-.41 0-.735.09-.967.276-.238.184-.426.532-.57 1.04M330.4 121.86h2.29v14.536h-2.29V121.86zM335.03 125.865h2.293V136.4h-2.292v-10.535zm0-4.006h2.293v2.577h-2.292v-2.578zM341.485 130.9c0 .958.082 1.668.242 2.136.16.468.393.816.694 1.052.3.236.64.355 1.015.355.5 0 .936-.273 1.305-.816.37-.543.553-1.363.553-2.456 0-1.215-.177-2.086-.536-2.622-.362-.533-.82-.8-1.373-.8-.53 0-.977.264-1.346.786-.37.523-.553 1.312-.553 2.367m6.09 5.497h-2.125v-1.547c-.348.594-.76 1.04-1.236 1.342-.478.3-.97.45-1.47.45-.966 0-1.806-.48-2.523-1.444-.716-.963-1.078-2.34-1.078-4.13 0-1.8.35-3.16 1.052-4.078.7-.915 1.56-1.373 2.585-1.373.48 0 .928.12 1.352.366.417.246.803.61 1.15 1.1v-5.226h2.293v14.54zM354.596 131.34c-.29.118-.745.258-1.356.415-.71.188-1.172.393-1.39.62-.22.224-.328.514-.328.873 0 .403.12.745.362 1.02.24.275.543.41.905.41.324 0 .645-.108.962-.33.318-.222.537-.485.66-.793.123-.304.184-.857.184-1.66v-.556zm-3.054-2.273l-2.073-.457c.252-1.063.665-1.828 1.242-2.296.578-.464 1.41-.7 2.494-.7.967 0 1.704.137 2.213.41.508.27.87.64 1.092 1.107.215.465.325 1.316.325 2.545l-.017 3.255c0 .916.034 1.596.106 2.043.07.444.208.92.406 1.424h-2.26l-.298-1.15c-.39.46-.81.81-1.254 1.044-.447.237-.922.353-1.424.353-.84 0-1.527-.283-2.063-.847-.537-.567-.803-1.318-.803-2.26 0-.595.113-1.115.328-1.56.22-.443.526-.798.922-1.06.396-.267 1.032-.503 1.906-.708 1.056-.246 1.793-.47 2.21-.683 0-.588-.04-.97-.123-1.155-.085-.18-.236-.33-.458-.447-.222-.116-.536-.174-.935-.174-.41 0-.735.09-.967.276-.24.184-.427.532-.57 1.04M360.924 130.9c0 .958.082 1.668.243 2.136.16.468.393.816.693 1.052.3.236.635.355 1.01.355.503 0 .937-.273 1.31-.816.368-.543.553-1.363.553-2.456 0-1.215-.18-2.086-.54-2.622-.36-.533-.816-.8-1.37-.8-.53 0-.977.264-1.345.786-.37.523-.554 1.312-.554 2.367m6.09 5.497h-2.124v-1.547c-.352.594-.762 1.04-1.24 1.342-.475.3-.963.45-1.47.45-.962 0-1.802-.48-2.523-1.444-.714-.963-1.076-2.34-1.076-4.13 0-1.8.353-3.16 1.053-4.078.7-.915 1.558-1.373 2.582-1.373.485 0 .933.12 1.353.366.42.246.806.61 1.15 1.1v-5.226h2.296v14.54z" fill="#231f20"/></svg>