<svg xmlns="http://www.w3.org/2000/svg" width="400" height="123.352"><path d="M400 2.467h-.53v.565h.53v-.565zM400 117.852h-.53v.564h.53v-.564z" fill="#d7f2fc"/><path d="M145.752 77.252c0-2.133 0-2.516-.028-2.955-.03-.464-.136-.682-.587-.778l-.466-.044-.11-.08.22-.11c.313 0 .683 0 .984.013l.563.027c.27.013 3.048 0 3.362-.012.26-.017.478-.017.6-.056l.192-.082.082.12c0 .097-.067.26-.108.643l-.068.904-.108.15-.096-.163c0-.108-.042-.34-.122-.52-.083-.178-.397-.423-.93-.438l-2.108-.04-.12.148v3.777l.095.124 1.748-.013c.232 0 .425 0 .615-.017.33-.024.507-.067.63-.245l.152-.136.067.108c0 .082-.067.315-.11.768-.028.27-.055.82-.055.916l-.092.257-.098-.124-.082-.49c-.067-.192-.288-.44-.71-.49-.344-.046-1.832-.046-2.065-.046l-.096.125v1.163c0 1.314 0 2.392.067 2.968.043.396.124.7.534.75.19.03.493.057.617.057l.108.082-.218.107c-.752 0-1.613-.04-1.68-.04-.07 0-.932.04-1.343.04l-.218-.107.11-.082.407-.056c.275-.052.344-.355.398-.75.07-.577.07-1.655.07-2.97v-2.406zM157.213 83.296c1.078 0 3.254-.576 3.254-3.938 0-2.79-1.697-4.252-3.598-4.252-2.012 0-3.46 1.256-3.46 3.79 0 2.706 1.627 4.4 3.803 4.4m-.275-8.628c2.706 0 4.76 1.654 4.76 4.36 0 2.6-1.93 4.75-4.83 4.75-3.294 0-4.703-2.478-4.703-4.572 0-1.872 1.45-4.538 4.773-4.538M164.72 82.04c.027.954.136 1.244.464 1.322.22.057.494.07.602.07l.096.1-.22.092c-.683 0-1.16-.04-1.27-.04-.11 0-.617.04-1.162.04l-.193-.093.096-.097c.097 0 .316-.014.493-.07.3-.08.342-.395.342-1.445v-6.663c0-.464.067-.587.165-.587l.465.355c.19.19 1.94 2.05 3.8 3.966 1.188 1.23 2.476 2.612 2.846 2.995l-.122-5.828c-.015-.75-.083-1.013-.453-1.08-.22-.04-.492-.054-.59-.054l-.092-.108.232-.083c.545 0 1.12.028 1.258.028.136 0 .532-.028 1.026-.028l.218.083-.136.108-.288.028c-.396.08-.424.315-.424 1.01l-.027 6.815c0 .762-.015.833-.097.833-.122 0-.247-.097-.916-.714-.122-.106-1.86-1.818-3.13-3.145-1.396-1.463-2.75-2.885-3.118-3.296l.135 5.485zM176.426 79.454c0 1.23 0 2.31.015 2.53.016.288.04.71.137.836.15.217.576.463 1.996.463 1.11 0 2.093-.368 2.818-1.054.63-.59.943-1.696.943-2.76 0-1.482-.642-2.424-1.134-2.915-1.136-1.15-2.463-1.3-3.898-1.3-.233 0-.615.044-.725.08l-.15.235v3.884zm-1.093-1.256c0-1.806 0-2.137-.03-2.507-.027-.39-.095-.585-.49-.64l-.412-.028-.094-.095.19-.095c.548 0 1.327.028 1.395.028.138 0 .904-.028 1.616-.028 1.203 0 3.405-.11 4.825 1.325.605.602 1.18 1.572 1.18 2.955 0 1.463-.63 2.585-1.3 3.267-.522.535-1.6 1.343-3.652 1.343-.52 0-1.163-.043-1.682-.07-.52-.043-.93-.07-.985-.07-.025 0-.244.015-.49.015-.247.013-.534.026-.726.026l-.19-.094.097-.097.367-.054c.233-.055.262-.276.316-.616.068-.48.068-1.394.068-2.517v-2.05zM190.074 83.296c1.078 0 3.254-.576 3.254-3.938 0-2.79-1.697-4.252-3.598-4.252-2.01 0-3.46 1.256-3.46 3.79 0 2.706 1.628 4.4 3.804 4.4m-.275-8.628c2.706 0 4.758 1.654 4.758 4.36 0 2.6-1.93 4.75-4.828 4.75-3.295 0-4.704-2.478-4.704-4.572 0-1.872 1.45-4.538 4.773-4.538M202.982 79.454c0 1.23 0 2.31.015 2.53.015.288.04.71.136.836.15.217.576.463 1.996.463 1.106 0 2.092-.368 2.818-1.054.628-.59.943-1.696.943-2.76 0-1.482-.642-2.424-1.135-2.915-1.136-1.15-2.463-1.3-3.9-1.3-.23 0-.614.044-.722.08l-.15.235v3.884zm-1.093-1.256c0-1.806 0-2.137-.03-2.507-.027-.39-.095-.585-.49-.64l-.412-.028-.096-.095.193-.095c.545 0 1.325.028 1.392.028.137 0 .904-.028 1.617-.028 1.2 0 3.403-.11 4.827 1.325.6.602 1.177 1.572 1.177 2.955 0 1.463-.63 2.585-1.3 3.267-.52.535-1.6 1.343-3.65 1.343-.52 0-1.164-.043-1.683-.07-.52-.043-.93-.07-.987-.07-.024 0-.243.015-.49.015-.247.013-.532.026-.725.026l-.192-.094.097-.097.368-.054c.232-.055.26-.276.314-.616.068-.48.068-1.394.068-2.517v-2.05zM212.83 78.197c0-1.804 0-2.136-.026-2.504-.03-.395-.096-.587-.494-.643l-.41-.03-.096-.094.192-.095c.546 0 1.327.03 1.396.03.08 0 2.596.012 2.87 0 .23-.015.452-.055.547-.07l.163-.054.056.11c0 .08-.07.22-.098.546l-.068.766-.11.123-.098-.146-.067-.415c-.083-.19-.204-.272-.862-.354-.204-.028-1.6-.042-1.737-.042l-.067.124v3.158l.068.124c.15 0 1.738 0 2.012-.028.288-.028.464-.04.587-.165l.18-.15.066.094c0 .07-.067.26-.096.644-.028.234-.057.673-.057.754l-.107.218-.084-.108-.052-.383c-.04-.165-.15-.3-.615-.355-.33-.044-1.615-.057-1.82-.057l-.083.084v.97c0 .4-.015 1.75 0 1.984.03.78.247.93 1.438.93.314 0 .89 0 1.203-.124.314-.136.48-.342.546-.805l.123-.177.082.178c0 .083-.095.873-.162 1.122-.084.3-.208.3-.67.3-.904 0-1.6-.03-2.095-.042-.504-.026-.818-.026-.996-.026-.028 0-.26 0-.52.013-.233.014-.508.026-.698.026l-.19-.09.095-.098.367-.056c.232-.042.262-.276.314-.616.07-.48.07-1.395.07-2.516v-2.05zM231.62 80.137c0-1.108-.07-1.258-.615-1.407l-.466-.043-.11-.08.217-.11c.617 0 1.48.04 1.548.04.066 0 .93-.04 1.338-.04l.22.11-.11.08-.342.043c-.37.067-.478.3-.506.78-.028.437-.028.846-.028 1.418v1.534c0 .617-.015.64-.177.74-.876.464-2.106.613-2.9.613-1.04 0-2.982-.136-4.5-1.463-.833-.725-1.627-2.19-1.627-3.895 0-2.19 1.067-3.732 2.284-4.5 1.232-.767 2.585-.862 3.637-.862.864 0 1.833.177 2.093.232.288.07.767.123 1.107.138l.164.12c0 .196-.095.577-.095 1.945 0 .217-.026.288-.122.288l-.096-.21c-.015-.19-.082-.57-.288-.9-.34-.52-1.448-1.11-3.212-1.11-.862 0-1.888.084-2.925.904-.798.63-1.356 1.875-1.356 3.475 0 1.927.97 3.323 1.448 3.788 1.082 1.054 2.325 1.464 3.585 1.464.49 0 1.203-.084 1.557-.29.177-.096.274-.246.274-.478v-2.325zM239.77 79.905l.042-.083-1.19-3.186c-.068-.176-.137-.176-.206 0l-1.12 3.186.04.083h2.435zm-1.34-4.84c.15-.384.206-.454.286-.454.123 0 .164.166.288.428.218.49 2.147 5.29 2.886 7.053.437 1.046.766 1.194 1.024 1.274.177.054.357.07.48.07l.15.096-.273.094c-.18 0-1.064 0-1.902-.026-.232-.014-.422-.014-.422-.08l.082-.085c.067-.026.19-.123.108-.314l-1.08-2.668-.11-.067h-2.776l-.12.095-.685 1.86c-.11.288-.178.574-.178.78 0 .23.206.313.41.313h.107l.123.097-.176.094c-.287 0-.945-.04-1.08-.04-.125 0-.725.04-1.218.04l-.232-.094.108-.097.357-.026c.546-.07.78-.48 1.013-1.067l2.83-7.276zM246.17 79.18l.082.15c.177.097.794.18 1.325.18.288 0 .617-.016.902-.207.413-.274.727-.887.727-1.78 0-1.446-.795-2.28-2.08-2.28-.356 0-.74.04-.862.068l-.096.137v3.733zm-1.04-.983c0-1.804 0-2.136-.028-2.505-.026-.394-.096-.587-.49-.64l-.41-.03-.098-.094.192-.097c.548 0 1.353.03 1.42.03.126 0 1.137-.03 1.505-.03.77 0 1.616.068 2.246.507.3.22.833.78.833 1.587 0 .86-.356 1.695-1.477 2.652.985 1.23 1.818 2.286 2.515 3.01.642.655 1.04.766 1.34.807.232.04.356.04.423.04l.113.098c0 .067-.07.093-.288.093h-.753c-.682 0-.983-.066-1.286-.23-.518-.275-.955-.832-1.64-1.71-.507-.63-1.038-1.382-1.298-1.696l-.164-.067-1.533-.028-.08.095v.275c0 1.12 0 2.022.053 2.5.04.343.11.563.48.616l.532.056.098.097-.193.093c-.658 0-1.424-.04-1.476-.04-.015 0-.82.04-1.19.04l-.19-.092.094-.096.368-.056c.232-.053.26-.273.315-.615.07-.48.07-1.394.07-2.516v-2.05z" fill="#231f20"/><path d="M257.56 79.905l.04-.083-1.188-3.186c-.07-.176-.137-.176-.205 0l-1.122 3.186.04.083h2.434zm-1.34-4.84c.152-.384.206-.454.288-.454.12 0 .163.166.286.428.22.49 2.148 5.29 2.886 7.053.44 1.046.766 1.194 1.028 1.274.176.054.353.07.477.07l.15.096-.274.094c-.176 0-1.064 0-1.898-.026-.233-.014-.426-.014-.426-.08l.082-.085c.07-.026.193-.123.11-.314l-1.08-2.668-.11-.067h-2.775l-.123.095-.684 1.86c-.108.288-.178.574-.178.78 0 .23.206.313.412.313h.107l.123.097-.178.094c-.288 0-.944-.04-1.08-.04-.123 0-.723.04-1.217.04l-.23-.094.106-.097.356-.026c.548-.07.782-.48 1.013-1.067l2.83-7.276zM263.428 82.04c.028.954.134 1.244.463 1.322.222.057.495.07.603.07l.097.1-.22.092c-.682 0-1.16-.04-1.27-.04-.112 0-.616.04-1.164.04l-.19-.093.092-.097c.098 0 .316-.014.494-.07.3-.08.342-.395.342-1.445v-6.663c0-.464.067-.587.164-.587l.466.355c.19.19 1.942 2.05 3.8 3.966 1.19 1.23 2.476 2.612 2.846 2.995l-.123-5.828c-.015-.75-.082-1.013-.452-1.08-.22-.04-.49-.054-.587-.054l-.096-.108.232-.083c.548 0 1.122.028 1.258.028.138 0 .533-.028 1.026-.028l.22.083-.137.108-.287.028c-.396.08-.424.315-.424 1.01l-.027 6.815c0 .762-.015.833-.097.833-.123 0-.247-.097-.916-.714-.122-.106-1.86-1.818-3.13-3.145-1.395-1.463-2.75-2.885-3.12-3.296l.138 5.485zM276.94 80.247c0 1.123 0 2.037.053 2.517.04.34.097.56.465.613l.546.056.097.098-.19.094c-.658 0-1.422-.04-1.49-.04-.056 0-.89.04-1.246.04l-.19-.093.095-.085.354-.053c.247-.056.314-.287.355-.628.056-.48.056-1.394.056-2.517v-4.882l-1.736.026c-.753.016-1.04.098-1.22.373-.136.204-.15.284-.19.37l-.122.107-.084-.096.26-1.258.125-.218c.082 0 .205.093.532.136.342.04.806.056.942.056h4.542c.396 0 .67-.028.86-.056.18-.028.29-.054.343-.054l.056.137c0 .356-.042 1.19-.042 1.327l-.112.147-.092-.203-.015-.123c-.04-.355-.3-.615-1.45-.643l-1.504-.025v4.882zM285.28 73l-.056.162c-.04 0-.177-.028-.41 0-.67.068-1.625.384-2.077.576l-.206.067-.066-.08.093-.11c.493-.342 1.766-1.11 1.86-1.163.233-.136.315-.18.384-.18l.137.124c.096.14.19.327.342.604m-1.533 7.246c0 1.123 0 2.037.055 2.518.04.34.08.56.436.614.18.028.44.057.547.057l.096.095-.188.093c-.67 0-1.452-.04-1.505-.04-.068 0-.822.04-1.19.04l-.19-.093.092-.095.37-.057c.23-.054.274-.274.315-.614.052-.48.067-1.395.067-2.518v-2.048c0-1.806 0-2.137-.028-2.507-.03-.39-.123-.57-.383-.627l-.368-.04-.097-.096.193-.096c.396 0 1.15.03 1.218.03.053 0 .834-.03 1.202-.03l.19.097-.095.095-.3.028c-.328.07-.397.232-.423.64-.015.37-.015.702-.015 2.507v2.05zM291.146 79.905l.04-.083-1.19-3.186c-.067-.176-.135-.176-.203 0l-1.122 3.186.04.083h2.436zm-1.34-4.84c.15-.384.204-.454.288-.454.12 0 .163.166.286.428.22.49 2.148 5.29 2.886 7.053.437 1.046.766 1.194 1.026 1.274.177.054.355.07.478.07l.15.096-.273.094c-.178 0-1.067 0-1.9-.026-.234-.014-.425-.014-.425-.08l.082-.085c.067-.026.193-.123.108-.314l-1.08-2.668-.11-.067h-2.777l-.122.095-.683 1.86c-.11.288-.177.574-.177.78 0 .23.206.313.41.313h.11l.12.097-.176.094c-.288 0-.946-.04-1.082-.04-.12 0-.724.04-1.215.04l-.234-.094.11-.097.356-.026c.547-.07.78-.48 1.01-1.067l2.833-7.276zM302.046 79.454c0 1.23 0 2.31.015 2.53.016.288.043.71.14.836.15.217.573.463 1.994.463 1.108 0 2.093-.368 2.818-1.054.628-.59.944-1.696.944-2.76 0-1.482-.645-2.424-1.134-2.915-1.137-1.15-2.464-1.3-3.9-1.3-.23 0-.614.044-.722.08l-.152.235v3.884zm-1.094-1.256c0-1.806 0-2.137-.03-2.507-.025-.39-.092-.585-.49-.64l-.41-.028-.096-.095.19-.095c.548 0 1.328.028 1.395.028.138 0 .906-.028 1.616-.028 1.202 0 3.405-.11 4.828 1.325.6.602 1.175 1.572 1.175 2.955 0 1.463-.63 2.585-1.3 3.267-.52.535-1.6 1.343-3.65 1.343-.522 0-1.164-.043-1.684-.07-.52-.043-.93-.07-.985-.07-.024 0-.244.015-.49.015-.247.013-.533.026-.726.026l-.19-.094.095-.097.368-.054c.23-.055.26-.276.314-.616.07-.48.07-1.394.07-2.517v-2.05zM311.892 78.197c0-1.804 0-2.136-.028-2.504-.03-.395-.096-.587-.492-.643l-.41-.03-.097-.094.192-.095c.546 0 1.326.03 1.395.03.082 0 2.598.012 2.872 0 .232-.015.45-.055.546-.07l.165-.054.057.11c0 .08-.072.22-.098.546l-.067.766-.11.123-.096-.146-.068-.415c-.08-.19-.204-.272-.862-.354-.205-.028-1.6-.042-1.736-.042l-.07.124v3.158l.07.124c.152 0 1.736 0 2.01-.028.29-.028.465-.04.588-.165l.178-.15.07.094c0 .07-.07.26-.096.644-.028.234-.055.673-.055.754l-.11.218-.08-.108-.056-.383c-.042-.165-.148-.3-.615-.355-.33-.044-1.614-.057-1.82-.057l-.082.084v.97c0 .4-.015 1.75 0 1.984.028.78.247.93 1.437.93.314 0 .89 0 1.204-.124.313-.136.475-.342.545-.805l.122-.177.082.178c0 .083-.096.873-.163 1.122-.084.3-.206.3-.67.3-.904 0-1.6-.03-2.094-.042-.507-.026-.82-.026-1-.026-.025 0-.258 0-.52.013-.23.014-.503.026-.695.026l-.19-.09.095-.098.368-.056c.233-.042.26-.276.315-.616.07-.48.07-1.395.07-2.516v-2.05zM325.335 78.73c0 1.45.015 2.707.026 2.967.016.342.044.888.15 1.037.18.26.713.55 2.325.55 1.273 0 2.45-.465 3.256-1.273.71-.696 1.095-2.008 1.095-3.27 0-1.736-.75-2.854-1.312-3.44-1.286-1.36-2.845-1.552-4.473-1.552-.275 0-.778.043-.89.1l-.162.272c-.015.464-.015 1.86-.015 2.916v1.693zm-1.15-1.48c0-2.13 0-2.515-.024-2.952-.028-.466-.137-.684-.588-.78l-.465-.04-.11-.083.22-.11c.614 0 1.476.043 1.543.043.165 0 1.026-.043 1.847-.043 1.353 0 3.858-.124 5.484 1.56.683.712 1.328 1.847 1.328 3.475 0 1.72-.712 3.05-1.48 3.857-.586.612-1.815 1.57-4.142 1.57-.587 0-1.312-.04-1.9-.08-.6-.043-1.067-.082-1.136-.082-.027 0-.26 0-.545.01-.275 0-.59.028-.795.028l-.218-.106.11-.084.41-.056c.274-.053.342-.354.398-.75.067-.576.067-1.656.067-2.97V77.25zM336.262 78.197c0-1.804 0-2.136-.028-2.504-.03-.395-.096-.587-.494-.643l-.41-.03-.095-.094.19-.095c.55 0 1.328.03 1.395.03.084 0 2.598.012 2.873 0 .232-.015.452-.055.548-.07l.163-.054.055.11c0 .08-.068.22-.097.546l-.066.766-.108.123-.097-.146-.068-.415c-.082-.19-.206-.272-.864-.354-.203-.028-1.598-.042-1.734-.042l-.07.124v3.158l.07.124c.15 0 1.734 0 2.01-.028.287-.028.465-.04.588-.165l.178-.15.068.094c0 .07-.068.26-.097.644-.026.234-.053.673-.053.754l-.11.218-.083-.108-.052-.383c-.043-.165-.15-.3-.617-.355-.33-.044-1.613-.057-1.818-.057l-.082.084v.97c0 .4-.015 1.75 0 1.984.028.78.246.93 1.435.93.316 0 .89 0 1.204-.124.314-.136.478-.342.547-.805l.122-.177.084.178c0 .083-.097.873-.164 1.122-.083.3-.206.3-.67.3-.902 0-1.6-.03-2.093-.042-.507-.026-.82-.026-1-.026-.025 0-.26 0-.52.013-.232.014-.505.026-.696.026l-.192-.09.095-.098.37-.056c.23-.042.26-.276.315-.616.068-.48.068-1.395.068-2.516v-2.05zM343.797 78.197c0-1.804 0-2.136-.027-2.504-.028-.395-.097-.587-.492-.643l-.41-.03-.098-.094.192-.095c.548 0 1.3.03 1.395.03.26 0 1.162-.03 1.71-.03 1.546 0 2.09.48 2.297.66.275.244.602.76.602 1.39 0 1.67-1.258 2.78-3.107 2.78l-.34-.016-.123-.107c0-.097.068-.125.314-.125 1.302 0 2.23-.82 2.23-1.875 0-.38-.04-1.132-.682-1.762-.63-.63-1.355-.56-1.628-.56-.205 0-.547.055-.67.083l-.096.217v4.732c0 1.122 0 2.037.054 2.516.04.34.11.562.478.615l.533.056.096.097-.19.092c-.66 0-1.453-.04-1.505-.04-.043 0-.82.04-1.19.04l-.19-.09.095-.098.368-.056c.232-.053.26-.275.316-.615.067-.48.067-1.394.067-2.516v-2.05zM357.307 73l-.054.162c-.04 0-.177-.028-.41 0-.67.068-1.63.384-2.077.576l-.206.067-.07-.08.097-.11c.493-.342 1.764-1.11 1.86-1.163.233-.136.314-.18.383-.18l.136.124c.097.14.192.327.342.604m-1.82 10.296c1.082 0 3.257-.575 3.257-3.94 0-2.788-1.697-4.252-3.598-4.252-2.01 0-3.46 1.258-3.46 3.79 0 2.71 1.63 4.402 3.802 4.402m-.276-8.627c2.71 0 4.76 1.653 4.76 4.36 0 2.597-1.926 4.748-4.827 4.748-3.297 0-4.704-2.48-4.704-4.57 0-1.874 1.45-4.54 4.77-4.54M361.848 83.462c-.164-.084-.18-.125-.18-.437 0-.576.058-1.04.07-1.234l.095-.188.11.137.043.42c.19.85 1.093 1.15 1.9 1.15 1.19 0 1.806-.67 1.806-1.545 0-.836-.452-1.232-1.518-2.023l-.547-.413c-1.3-.97-1.726-1.68-1.726-2.488 0-1.368 1.084-2.187 2.67-2.187.48 0 .957.07 1.243.135.234.056.33.056.425.056l.125.082c0 .054-.056.437-.056 1.23 0 .18-.015.26-.097.26l-.108-.152-.178-.574c-.082-.134-.478-.572-1.558-.572-.875 0-1.6.438-1.6 1.256 0 .74.37 1.163 1.558 1.97l.34.234c1.466.996 1.973 1.805 1.973 2.802 0 .684-.262 1.42-1.122 1.98-.506.33-1.258.416-1.914.416-.56 0-1.258-.086-1.75-.316M370.846 80.247c0 1.123 0 2.037.054 2.517.04.34.082.56.438.613.177.03.44.056.547.056l.096.098-.19.094c-.67 0-1.45-.04-1.505-.04-.066 0-.82.04-1.19.04l-.19-.093.097-.097.368-.056c.23-.052.273-.272.314-.613.057-.48.068-1.394.068-2.517v-2.05c0-1.804 0-2.137-.028-2.505-.028-.393-.122-.572-.383-.628l-.367-.04-.097-.096.192-.096c.396 0 1.15.028 1.217.028.054 0 .835-.028 1.204-.028l.19.096-.096.095-.3.028c-.328.07-.398.233-.424.642-.015.368-.015.7-.015 2.504v2.05zM377.698 80.247c0 1.123 0 2.037.056 2.517.04.34.095.56.46.613l.55.056.097.098-.19.094c-.658 0-1.422-.04-1.49-.04-.055 0-.89.04-1.246.04l-.19-.093.095-.085.354-.053c.247-.056.316-.287.355-.628.056-.48.056-1.394.056-2.517v-4.882l-1.738.026c-.75.016-1.04.098-1.217.373-.135.204-.148.284-.19.37l-.122.107-.082-.096.26-1.258.123-.218c.08 0 .204.093.53.136.343.04.81.056.945.056h4.54c.396 0 .67-.028.863-.056.178-.028.286-.054.34-.054l.054.137c0 .356-.04 1.19-.04 1.327l-.11.147-.096-.203-.015-.123c-.042-.355-.302-.615-1.45-.643l-1.504-.025v4.882zM386.777 83.296c1.08 0 3.256-.576 3.256-3.938 0-2.79-1.697-4.252-3.598-4.252-2.01 0-3.46 1.256-3.46 3.79 0 2.706 1.626 4.4 3.802 4.4m-.273-8.628c2.707 0 4.76 1.654 4.76 4.36 0 2.6-1.93 4.75-4.83 4.75-3.296 0-4.703-2.478-4.703-4.572 0-1.872 1.45-4.538 4.774-4.538M393.137 83.462c-.165-.084-.178-.125-.178-.437 0-.576.056-1.04.068-1.234l.096-.188.107.137.045.42c.19.85 1.093 1.15 1.9 1.15 1.19 0 1.804-.67 1.804-1.545 0-.836-.453-1.232-1.517-2.023l-.55-.413c-1.298-.97-1.72-1.68-1.72-2.488 0-1.368 1.078-2.187 2.665-2.187.478 0 .956.07 1.244.135.232.056.327.056.425.056l.122.082c0 .054-.055.437-.055 1.23 0 .18-.014.26-.097.26l-.107-.152-.18-.574c-.08-.134-.475-.572-1.556-.572-.876 0-1.6.438-1.6 1.256 0 .74.37 1.163 1.56 1.97l.34.234c1.465.996 1.97 1.805 1.97 2.802 0 .684-.26 1.42-1.122 1.98-.507.33-1.26.416-1.914.416-.56 0-1.258-.086-1.75-.316M147.182 95.864c0 1.232 0 2.31.015 2.53.015.29.04.71.135.835.15.22.575.462 1.996.462 1.106 0 2.093-.366 2.817-1.052.63-.587.943-1.695.943-2.76 0-1.48-.643-2.425-1.134-2.915-1.135-1.15-2.462-1.3-3.897-1.3-.232 0-.617.04-.725.084l-.15.23v3.884zm-1.093-1.26c0-1.803 0-2.13-.03-2.502-.026-.396-.094-.587-.49-.64l-.412-.03-.096-.096.19-.095c.55 0 1.328.03 1.395.03.138 0 .905-.03 1.615-.03 1.204 0 3.404-.106 4.826 1.328.602.603 1.177 1.573 1.177 2.95 0 1.468-.627 2.59-1.298 3.272-.522.536-1.602 1.34-3.65 1.34-.522 0-1.165-.038-1.685-.068-.52-.037-.93-.07-.985-.07-.025 0-.244.016-.49.016-.248.017-.534.026-.726.026l-.19-.095.096-.096.368-.054c.232-.058.262-.273.316-.617.07-.477.07-1.394.07-2.516v-2.052zM157.027 94.605c0-1.804 0-2.133-.028-2.503-.028-.396-.094-.587-.49-.643l-.414-.027-.092-.097.19-.096c.548 0 1.327.03 1.394.03.083 0 2.598.012 2.873 0 .233-.015.452-.056.547-.07l.164-.055.057.11c0 .08-.067.217-.096.548l-.068.765-.11.123-.096-.15-.067-.408c-.083-.192-.207-.276-.863-.357-.205-.026-1.6-.043-1.736-.043l-.068.123v3.163l.07.12c.15 0 1.735 0 2.008-.027.288-.025.464-.04.59-.16l.176-.153.068.095c0 .068-.068.262-.096.643-.028.232-.054.67-.054.752l-.11.222-.083-.113-.053-.383c-.04-.163-.15-.3-.614-.355-.328-.042-1.615-.054-1.82-.054l-.082.08v.97c0 .397-.014 1.75 0 1.984.03.78.248.93 1.437.93.314 0 .89 0 1.203-.12.314-.14.477-.347.548-.81l.12-.18.085.18c0 .082-.096.876-.165 1.12-.082.302-.205.302-.67.302-.9 0-1.6-.028-2.092-.04-.506-.03-.82-.03-1-.03-.025 0-.26 0-.52.016-.23.015-.504.026-.697.026l-.19-.095.096-.097.368-.056c.232-.04.26-.27.314-.616.067-.476.067-1.392.067-2.513v-2.052zM170.1 96.686c0 1.706.03 2.403.248 2.61.19.19.656.275 1.6.275.628 0 1.163-.016 1.45-.354.15-.18.247-.426.286-.658l.123-.15.082.178c0 .122-.083.82-.178 1.16-.083.278-.124.317-.767.317-.86 0-1.53-.015-2.09-.04-.55-.016-.958-.03-1.313-.03-.057 0-.26 0-.493.014-.248.017-.508.028-.7.028l-.19-.097.096-.095.367-.055c.233-.056.26-.27.315-.616.07-.477.07-1.393.07-2.516v-2.05c0-1.806 0-2.133-.03-2.503-.028-.396-.095-.587-.49-.643l-.412-.026-.096-.097.193-.096c.546 0 1.3.03 1.368.03.053 0 .956-.03 1.326-.03l.19.097-.095.084-.393.027c-.357.07-.426.247-.453.656-.015.37-.015.697-.015 2.503v2.08zM179.62 96.315l.038-.08-1.187-3.19c-.068-.176-.136-.176-.204 0l-1.124 3.19.042.08h2.435zm-1.343-4.842c.153-.382.208-.45.288-.45.124 0 .165.164.288.423.22.494 2.147 5.292 2.886 7.058.436 1.04.763 1.188 1.025 1.273.176.054.355.067.478.067l.15.093-.273.097c-.18 0-1.067 0-1.9-.026-.234-.015-.425-.015-.425-.082l.082-.082c.07-.03.19-.123.108-.312l-1.08-2.67-.11-.068h-2.775l-.126.097-.682 1.86c-.108.286-.177.574-.177.782 0 .228.205.312.41.312h.11l.122.093-.177.098c-.288 0-.946-.042-1.08-.042-.126 0-.726.042-1.217.042l-.232-.098.107-.093.357-.03c.546-.067.78-.477 1.013-1.063l2.828-7.277zM184.09 99.87c-.163-.082-.177-.123-.177-.437 0-.575.055-1.04.068-1.23l.097-.192.11.137.04.427c.192.846 1.094 1.147 1.902 1.147 1.19 0 1.804-.67 1.804-1.545 0-.835-.452-1.23-1.517-2.024l-.548-.41c-1.302-.97-1.724-1.68-1.724-2.49 0-1.366 1.08-2.186 2.667-2.186.478 0 .957.07 1.245.136.23.056.327.056.424.056l.12.08c0 .055-.053.438-.053 1.233 0 .174-.016.256-.097.256l-.11-.15-.178-.573c-.082-.136-.478-.575-1.558-.575-.875 0-1.6.44-1.6 1.26 0 .737.37 1.16 1.558 1.97l.342.23c1.464 1 1.97 1.806 1.97 2.806 0 .68-.26 1.42-1.12 1.982-.507.327-1.26.41-1.917.41-.56 0-1.258-.083-1.75-.315M198.177 96.07c0 1.31 0 2.39.07 2.967.038.396.12.695.53.75.19.027.493.057.616.057l.11.08-.22.11c-.75 0-1.612-.04-1.68-.04-.07 0-.93.04-1.34.04l-.22-.11.11-.08.41-.056c.273-.056.342-.355.398-.75.068-.577.068-1.66.068-2.97v-2.407c0-2.133 0-2.514-.027-2.954-.027-.463-.165-.695-.466-.762l-.422-.054-.11-.084.218-.11c.452 0 1.314.04 1.38.04.07 0 .932-.04 1.34-.04l.22.11-.108.084-.342.04c-.37.066-.48.298-.506.777-.026.44-.026.82-.026 2.954v2.41zM203.236 98.45c.028.956.136 1.242.465 1.326.22.054.494.067.603.067l.095.096-.218.096c-.684 0-1.163-.043-1.273-.043-.108 0-.615.043-1.163.043l-.19-.097.095-.097c.095 0 .313-.013.493-.067.3-.084.342-.395.342-1.45v-6.66c0-.465.067-.59.163-.59l.465.358c.19.193 1.942 2.053 3.8 3.966 1.19 1.23 2.478 2.61 2.848 2.993l-.125-5.824c-.015-.754-.082-1.014-.45-1.08-.22-.044-.493-.056-.59-.056l-.094-.112.232-.08c.548 0 1.122.026 1.258.026.138 0 .535-.026 1.026-.026l.22.08-.137.112-.29.027c-.395.08-.42.315-.42 1.014l-.027 6.81c0 .763-.015.834-.097.834-.123 0-.247-.093-.918-.712-.12-.11-1.86-1.817-3.13-3.146-1.395-1.463-2.75-2.884-3.118-3.295l.136 5.484zM213.11 99.87c-.164-.082-.18-.123-.18-.437 0-.575.057-1.04.07-1.23l.095-.192.108.137.043.427c.192.846 1.095 1.147 1.9 1.147 1.19 0 1.806-.67 1.806-1.545 0-.835-.452-1.23-1.517-2.024l-.548-.41c-1.3-.97-1.725-1.68-1.725-2.49 0-1.366 1.082-2.186 2.67-2.186.476 0 .956.07 1.244.136.23.056.327.056.422.056l.126.08c0 .055-.057.438-.057 1.233 0 .174-.015.256-.097.256l-.108-.15-.178-.573c-.082-.136-.478-.575-1.558-.575-.877 0-1.6.44-1.6 1.26 0 .737.37 1.16 1.558 1.97l.34.23c1.468 1 1.972 1.806 1.972 2.806 0 .68-.26 1.42-1.12 1.982-.508.327-1.26.41-1.915.41-.56 0-1.26-.083-1.75-.315M223.914 96.656c0 1.124 0 2.04.053 2.516.04.344.096.56.464.617l.548.053.098.095-.193.098c-.656 0-1.422-.043-1.49-.043-.055 0-.89.043-1.244.043l-.194-.098.096-.08.357-.054c.246-.058.313-.288.354-.632.056-.476.056-1.392.056-2.516v-4.88l-1.74.028c-.75.01-1.038.094-1.217.367-.136.204-.15.29-.19.37l-.122.11-.08-.096.257-1.258.124-.22c.085 0 .208.097.535.138.342.04.806.054.944.054h4.54c.394 0 .67-.026.86-.054.178-.026.29-.053.343-.053l.054.136c0 .355-.04 1.19-.04 1.327l-.11.15-.097-.206-.015-.12c-.04-.357-.303-.616-1.45-.643l-1.503-.03v4.882zM230.723 96.656c0 1.124 0 2.04.054 2.516.04.344.082.56.437.617.178.023.44.053.548.053l.096.095-.19.098c-.672 0-1.45-.043-1.506-.043-.067 0-.82.043-1.19.043l-.19-.098.095-.095.368-.054c.234-.057.275-.274.314-.618.055-.476.07-1.392.07-2.516v-2.052c0-1.803 0-2.13-.03-2.502-.026-.395-.12-.574-.382-.628l-.368-.04-.097-.1.192-.092c.397 0 1.15.026 1.217.026.054 0 .834-.026 1.204-.026l.19.093-.095.1-.3.026c-.327.068-.396.234-.424.642-.015.372-.015.7-.015 2.502v2.052zM237.574 96.656c0 1.124 0 2.04.057 2.516.04.344.094.56.463.617l.55.053.095.095-.192.098c-.657 0-1.423-.043-1.49-.043-.056 0-.888.043-1.245.043l-.19-.098.096-.08.355-.054c.248-.058.315-.288.356-.632.057-.476.057-1.392.057-2.516v-4.88l-1.738.028c-.75.01-1.04.094-1.217.367-.138.204-.15.29-.192.37l-.122.11-.082-.096.258-1.258.123-.22c.084 0 .207.097.534.138.342.04.806.054.944.054h4.54c.397 0 .67-.026.865-.054.175-.026.286-.053.34-.053l.054.136c0 .355-.04 1.19-.04 1.327l-.112.15-.096-.206-.015-.12c-.042-.357-.303-.616-1.45-.643l-1.503-.03v4.882zM242.675 94.605c0-1.804 0-2.133-.028-2.503-.03-.37-.096-.587-.492-.643l-.41-.027-.097-.097.193-.096c.546 0 1.27.03 1.382.03.107 0 .86-.03 1.217-.03l.204.096-.11.097-.302.026c-.314.055-.383.26-.41.642-.024.37-.024.7-.024 2.503v1.63c0 1.68.366 2.38.888 2.844.588.532 1.106.627 1.79.627.738 0 1.45-.325 1.86-.822.562-.67.686-1.624.686-2.817v-1.463c0-1.804-.017-2.133-.03-2.503-.015-.37-.082-.587-.477-.643l-.413-.027-.093-.097.19-.096c.535 0 1.23.03 1.3.03.08 0 .655-.03 1.01-.03l.193.096-.096.097-.3.026c-.33.068-.397.26-.425.642-.025.37-.015.7-.015 2.503v1.246c0 1.257-.165 2.67-1.12 3.487-.878.755-1.807.847-2.517.847-.398 0-1.656-.024-2.505-.82-.587-.546-1.052-1.354-1.052-3.05v-1.71zM253.395 98.942c-1.175-1.013-1.463-2.34-1.463-3.447 0-.78.288-2.134 1.353-3.172.725-.697 1.82-1.246 3.665-1.246.48 0 1.163.04 1.752.136.45.084.833.166 1.23.178l.15.126c0 .095-.028.232-.053.654-.016.383-.016 1.026-.03 1.19-.015.18-.067.247-.136.247l-.095-.246c0-.45-.192-.913-.508-1.16-.422-.357-1.3-.643-2.366-.643-1.544 0-2.284.41-2.708.806-.888.82-1.08 1.86-1.08 3.037 0 2.228 1.764 4.21 4.336 4.21.902 0 1.504-.068 1.983-.545.26-.258.424-.75.465-.972l.123-.164.11.163c0 .082-.166 1.095-.287 1.49-.07.22-.097.26-.303.342-.492.192-1.394.26-2.174.26-1.804 0-3.02-.425-3.965-1.243M264.077 96.656c0 1.124 0 2.04.054 2.516.042.344.083.56.438.617.177.023.44.053.547.053l.096.095-.19.098c-.67 0-1.45-.043-1.502-.043-.07 0-.823.043-1.193.043l-.19-.098.095-.095.37-.054c.232-.057.273-.274.314-.618.054-.476.07-1.392.07-2.516v-2.052c0-1.803 0-2.13-.03-2.502-.026-.395-.122-.574-.382-.628l-.368-.04-.097-.1.192-.092c.395 0 1.15.026 1.218.026.052 0 .83-.026 1.202-.026l.19.093-.096.1-.3.026c-.328.068-.397.234-.423.642-.014.372-.014.7-.014 2.502v2.052zM271.79 99.708c1.08 0 3.254-.575 3.254-3.94 0-2.79-1.695-4.252-3.596-4.252-2.01 0-3.46 1.258-3.46 3.79 0 2.705 1.626 4.402 3.802 4.402m-.275-8.63c2.708 0 4.76 1.655 4.76 4.36 0 2.6-1.928 4.747-4.827 4.747-3.297 0-4.704-2.473-4.704-4.566 0-1.874 1.45-4.543 4.77-4.543M279.296 98.45c.028.956.136 1.242.465 1.326.22.054.495.067.603.067l.097.096-.22.096c-.682 0-1.163-.043-1.27-.043-.112 0-.618.043-1.163.043l-.193-.097.096-.097c.097 0 .315-.013.493-.067.3-.084.342-.395.342-1.45v-6.66c0-.465.067-.59.165-.59l.463.358c.193.193 1.944 2.053 3.804 3.966 1.186 1.23 2.474 2.61 2.844 2.993l-.125-5.824c-.015-.754-.08-1.014-.45-1.08-.22-.044-.492-.056-.587-.056l-.097-.112.235-.08c.547 0 1.12.026 1.256.026.138 0 .535-.026 1.03-.026l.215.08-.134.112-.287.027c-.398.08-.424.315-.424 1.014l-.028 6.81c0 .763-.015.834-.097.834-.123 0-.247-.093-.916-.712-.124-.11-1.86-1.817-3.132-3.146-1.396-1.463-2.75-2.884-3.12-3.295l.137 5.484zM289.91 94.605c0-1.804 0-2.133-.027-2.503-.028-.396-.095-.587-.49-.643l-.412-.027-.095-.097.19-.096c.547 0 1.328.03 1.395.03.082 0 2.598.012 2.873 0 .232-.015.452-.056.546-.07l.163-.055.055.11c0 .08-.068.217-.095.548l-.07.765-.11.123-.095-.15-.07-.408c-.08-.192-.203-.276-.86-.357-.204-.026-1.6-.043-1.737-.043l-.068.123v3.163l.07.12c.15 0 1.737 0 2.01-.027.288-.025.464-.04.587-.16l.178-.153.068.095c0 .068-.068.262-.096.643-.026.232-.054.67-.054.752l-.11.222-.083-.113-.054-.383c-.043-.163-.15-.3-.616-.355-.33-.042-1.615-.054-1.818-.054l-.084.08v.97c0 .397-.015 1.75 0 1.984.028.78.25.93 1.437.93.313 0 .89 0 1.203-.12.314-.14.478-.347.546-.81l.12-.18.085.18c0 .082-.097.876-.165 1.12-.082.302-.207.302-.67.302-.903 0-1.6-.028-2.092-.04-.506-.03-.82-.03-1-.03-.025 0-.258 0-.52.016-.23.015-.504.026-.697.026l-.19-.095.098-.097.368-.056c.232-.04.26-.27.314-.616.067-.476.067-1.392.067-2.513v-2.052zM296.432 99.87c-.164-.082-.177-.123-.177-.437 0-.575.054-1.04.067-1.23l.096-.192.11.137.042.427c.193.846 1.095 1.147 1.9 1.147 1.192 0 1.806-.67 1.806-1.545 0-.835-.452-1.23-1.517-2.024l-.55-.41c-1.3-.97-1.722-1.68-1.722-2.49 0-1.366 1.08-2.186 2.667-2.186.478 0 .957.07 1.245.136.23.056.327.056.424.056l.12.08c0 .055-.054.438-.054 1.233 0 .174-.015.256-.093.256l-.11-.15-.178-.573c-.082-.136-.478-.575-1.56-.575-.875 0-1.6.44-1.6 1.26 0 .737.37 1.16 1.56 1.97l.34.23c1.464 1 1.97 1.806 1.97 2.806 0 .68-.26 1.42-1.12 1.982-.507.327-1.26.41-1.916.41-.56 0-1.258-.083-1.75-.315M309.37 93.66c0-2.133 0-2.515-.03-2.954-.025-.463-.134-.68-.587-.777l-.465-.04-.108-.085.22-.11c.313 0 .683 0 .982.015l.563.024c.274.017 3.048 0 3.364-.012.26-.013.477-.013.6-.056l.19-.08.083.123c0 .095-.067.26-.11.642l-.07.903-.107.15-.095-.165c0-.108-.038-.342-.122-.518-.082-.18-.396-.424-.93-.44l-2.105-.04-.123.15v3.775l.097.122 1.75-.013c.232 0 .422 0 .615-.015.33-.028.506-.068.63-.245l.15-.14.068.114c0 .083-.067.315-.11.765-.026.275-.054.82-.054.916l-.096.263-.096-.126-.083-.493c-.067-.19-.285-.44-.71-.49-.342-.04-1.83-.04-2.063-.04l-.097.12v1.163c0 1.31 0 2.393.067 2.968.04.396.126.695.534.752.194.026.495.056.616.056l.11.082-.218.108c-.753 0-1.613-.04-1.682-.04-.07 0-.93.04-1.34.04l-.22-.108.11-.082.408-.056c.275-.057.344-.356.398-.752.068-.575.068-1.658.068-2.968V93.66zM318.244 96.656c0 1.124 0 2.04.054 2.516.042.344.083.56.438.617.177.023.44.053.547.053l.096.095-.194.098c-.67 0-1.448-.043-1.5-.043-.07 0-.823.043-1.19.043l-.193-.098.095-.095.368-.054c.232-.057.275-.274.316-.618.056-.476.07-1.392.07-2.516v-2.052c0-1.803 0-2.13-.03-2.502-.028-.395-.125-.574-.382-.628l-.37-.04-.094-.1.19-.092c.397 0 1.15.026 1.22.026.05 0 .83-.026 1.2-.026l.19.093-.094.1-.3.026c-.328.068-.398.234-.426.642-.015.372-.015.7-.015 2.502v2.052zM322.703 98.45c.028.956.136 1.242.465 1.326.22.054.49.067.6.067l.097.096-.22.096c-.683 0-1.16-.043-1.27-.043-.11 0-.616.043-1.164.043l-.19-.097.096-.097c.096 0 .314-.013.494-.067.3-.084.34-.395.34-1.45v-6.66c0-.465.068-.59.164-.59l.465.358c.192.193 1.94 2.053 3.8 3.966 1.19 1.23 2.476 2.61 2.846 2.993l-.123-5.824c-.015-.754-.08-1.014-.45-1.08-.22-.044-.494-.056-.587-.056l-.097-.112.23-.08c.548 0 1.124.026 1.258.026.138 0 .533-.026 1.026-.026l.22.08-.137.112-.288.027c-.397.08-.423.315-.423 1.014l-.03 6.81c0 .763-.014.834-.094.834-.123 0-.247-.093-.918-.712-.12-.11-1.86-1.817-3.13-3.146-1.395-1.463-2.748-2.884-3.118-3.295l.136 5.484zM336.76 96.315l.042-.08-1.188-3.19c-.07-.176-.138-.176-.206 0l-1.12 3.19.04.08h2.434zm-1.34-4.842c.152-.382.206-.45.288-.45.12 0 .163.164.288.423.22.494 2.146 5.292 2.884 7.058.44 1.04.766 1.188 1.028 1.273.176.054.355.067.476.067l.152.093-.273.097c-.18 0-1.067 0-1.9-.026-.234-.015-.427-.015-.427-.082l.082-.082c.07-.03.193-.123.11-.312l-1.08-2.67-.11-.068h-2.776l-.122.097-.684 1.86c-.108.286-.178.574-.178.782 0 .228.206.312.41.312h.11l.123.093-.177.098c-.288 0-.944-.042-1.08-.042-.123 0-.727.042-1.217.042l-.232-.098.11-.093.355-.03c.544-.067.78-.477 1.012-1.063l2.83-7.277zM342.628 98.45c.028.956.134 1.242.463 1.326.222.054.495.067.603.067l.097.096-.22.096c-.683 0-1.163-.043-1.27-.043-.112 0-.618.043-1.164.043l-.192-.097.095-.097c.096 0 .315-.013.495-.067.3-.084.34-.395.34-1.45v-6.66c0-.465.067-.59.164-.59l.465.358c.19.193 1.94 2.053 3.8 3.966 1.19 1.23 2.476 2.61 2.846 2.993l-.122-5.824c-.015-.754-.082-1.014-.452-1.08-.22-.044-.492-.056-.587-.056l-.098-.112.233-.08c.548 0 1.122.026 1.258.026.138 0 .533-.026 1.026-.026l.216.08-.134.112-.288.027c-.396.08-.424.315-.424 1.014l-.026 6.81c0 .763-.015.834-.097.834-.122 0-.247-.093-.916-.712-.12-.11-1.858-1.817-3.13-3.146-1.394-1.463-2.75-2.884-3.12-3.295l.14 5.484zM353.416 98.942c-1.175-1.013-1.463-2.34-1.463-3.447 0-.78.288-2.134 1.353-3.172.727-.697 1.82-1.246 3.665-1.246.482 0 1.166.04 1.753.136.45.084.833.166 1.23.178l.15.126c0 .095-.028.232-.053.654-.015.383-.015 1.026-.028 1.19-.015.18-.068.247-.136.247l-.096-.246c0-.45-.19-.913-.507-1.16-.422-.357-1.3-.643-2.364-.643-1.547 0-2.287.41-2.71.806-.89.82-1.08 1.86-1.08 3.037 0 2.228 1.763 4.21 4.335 4.21.902 0 1.504-.068 1.983-.545.26-.258.424-.75.465-.972l.123-.164.11.163c0 .082-.166 1.095-.288 1.49-.068.22-.097.26-.302.342-.492.192-1.393.26-2.174.26-1.805 0-3.024-.425-3.966-1.243M364.096 96.656c0 1.124 0 2.04.055 2.516.042.344.082.56.44.617.176.023.436.053.544.053l.098.095-.193.098c-.67 0-1.45-.043-1.504-.043-.068 0-.822.043-1.19.043l-.193-.098.098-.095.37-.054c.23-.057.272-.274.313-.618.056-.476.07-1.392.07-2.516v-2.052c0-1.803 0-2.13-.028-2.502-.027-.395-.123-.574-.384-.628l-.367-.04-.096-.1.19-.092c.397 0 1.15.026 1.22.026.052 0 .833-.026 1.2-.026l.192.093-.094.1-.3.026c-.328.068-.4.234-.425.642-.014.372-.014.7-.014 2.502v2.052zM368.05 94.605c0-1.804 0-2.133-.03-2.503-.025-.396-.095-.587-.49-.643l-.412-.027-.095-.097.192-.096c.548 0 1.325.03 1.394.03.08 0 2.597.012 2.872 0 .232-.015.452-.056.546-.07l.164-.055.057.11c0 .08-.07.217-.098.548l-.067.765-.11.123-.097-.15-.07-.408c-.08-.192-.202-.276-.86-.357-.204-.026-1.6-.043-1.736-.043l-.07.123v3.163l.07.12c.15 0 1.736 0 2.01-.027.288-.025.466-.04.587-.16l.18-.153.066.095c0 .068-.067.262-.096.643-.025.232-.055.67-.055.752l-.108.222-.082-.113-.054-.383c-.04-.163-.148-.3-.616-.355-.327-.042-1.612-.054-1.816-.054l-.084.08v.97c0 .397-.015 1.75 0 1.984.028.78.247.93 1.437.93.315 0 .89 0 1.205-.12.316-.14.477-.347.548-.81l.12-.18.083.18c0 .082-.096.876-.163 1.12-.082.302-.205.302-.67.302-.904 0-1.6-.028-2.092-.04-.508-.03-.82-.03-1-.03-.027 0-.26 0-.52.016-.23.015-.503.026-.696.026l-.19-.095.095-.097.367-.056c.232-.04.26-.27.316-.616.067-.476.067-1.392.067-2.513v-2.052zM376.623 95.592l.082.148c.178.095.795.18 1.325.18.288 0 .617-.016.903-.208.41-.273.727-.886.727-1.776 0-1.45-.794-2.286-2.08-2.286-.355 0-.738.043-.862.07l-.095.134v3.738zm-1.04-.987c0-1.805 0-2.132-.027-2.502-.026-.396-.096-.587-.492-.643l-.41-.026-.094-.098.19-.095c.547 0 1.354.03 1.42.03.124 0 1.138-.03 1.506-.03.766 0 1.613.07 2.245.508.3.218.832.78.832 1.585 0 .863-.353 1.7-1.476 2.656.987 1.226 1.82 2.28 2.517 3.006.642.658 1.04.762 1.34.807.232.04.356.04.423.04l.11.095c0 .07-.066.097-.287.097h-.753c-.684 0-.983-.067-1.285-.232-.52-.273-.957-.835-1.642-1.71-.506-.628-1.04-1.38-1.297-1.695l-.166-.07-1.53-.025-.083.095v.27c0 1.126 0 2.027.054 2.504.042.345.11.56.48.616l.533.055.097.095-.19.097c-.66 0-1.425-.043-1.48-.043-.014 0-.82.043-1.188.043l-.194-.097.098-.095.368-.055c.23-.056.26-.27.314-.616.07-.477.07-1.393.07-2.516v-2.05z" fill="#231f20"/><path d="M388.014 96.315l.04-.08-1.19-3.19c-.066-.176-.136-.176-.203 0l-1.12 3.19.038.08h2.435zm-1.34-4.842c.15-.382.206-.45.288-.45.12 0 .163.164.286.423.22.494 2.148 5.292 2.886 7.058.44 1.04.766 1.188 1.026 1.273.176.054.357.067.48.067l.148.093-.27.097c-.182 0-1.068 0-1.904-.026-.233-.015-.424-.015-.424-.082l.082-.082c.067-.03.19-.123.108-.312l-1.08-2.67-.11-.068h-2.775l-.123.097-.684 1.86c-.11.286-.177.574-.177.782 0 .228.206.312.412.312h.108l.12.093-.175.098c-.288 0-.944-.042-1.082-.042-.123 0-.723.042-1.217.042l-.23-.098.11-.093.354-.03c.548-.067.782-.477 1.013-1.063l2.83-7.277zM392.486 99.87c-.164-.082-.177-.123-.177-.437 0-.575.054-1.04.066-1.23l.097-.192.108.137.042.427c.193.846 1.095 1.147 1.903 1.147 1.19 0 1.803-.67 1.803-1.545 0-.835-.452-1.23-1.517-2.024l-.545-.41c-1.3-.97-1.725-1.68-1.725-2.49 0-1.366 1.082-2.186 2.67-2.186.475 0 .954.07 1.242.136.233.056.327.056.424.056l.124.08c0 .055-.056.438-.056 1.233 0 .174-.015.256-.096.256l-.108-.15-.18-.573c-.08-.136-.475-.575-1.556-.575-.876 0-1.602.44-1.602 1.26 0 .737.37 1.16 1.56 1.97l.34.23c1.467 1 1.973 1.806 1.973 2.806 0 .68-.262 1.42-1.123 1.982-.507.327-1.258.41-1.914.41-.56 0-1.258-.083-1.75-.315M167.838 37.982c0-7.6 0-8.964-.097-10.525-.096-1.655-.487-2.435-2.094-2.777-.39-.095-1.22-.144-1.658-.144-.195 0-.39-.1-.39-.293 0-.292.246-.393.78-.393 1.122 0 2.436 0 3.51.053l1.997.097c.973.046 10.864 0 11.984-.05.924-.047 1.703-.047 2.143-.193.293-.1.487-.294.684-.294.192 0 .29.195.29.44 0 .34-.244.925-.39 2.29-.05.487-.146 2.63-.242 3.214-.05.243-.148.536-.39.536-.244 0-.34-.243-.34-.585 0-.39-.15-1.218-.44-1.85-.294-.634-1.413-1.512-3.314-1.56l-7.5-.146c-.293 0-.44.147-.44.536v13.446c0 .293.05.44.34.44l6.236-.05c.828 0 1.513 0 2.193-.05 1.17-.095 1.802-.243 2.242-.875.194-.246.34-.49.534-.49.196 0 .245.147.245.39 0 .294-.244 1.122-.388 2.73-.098.973-.196 2.922-.196 3.264 0 .438 0 .925-.342.925-.243 0-.34-.197-.34-.438-.05-.488-.097-1.172-.294-1.755-.24-.682-1.022-1.56-2.53-1.755-1.22-.144-6.53-.144-7.36-.144-.242 0-.34.096-.34.437v4.14c0 4.677 0 8.527.244 10.573.145 1.413.438 2.484 1.9 2.68.683.096 1.754.19 2.192.19.293 0 .39.15.39.297 0 .244-.245.388-.78.388-2.68 0-5.748-.144-5.99-.144-.244 0-3.313.143-4.777.143-.535 0-.78-.097-.78-.388 0-.148.097-.296.39-.296.438 0 1.023-.096 1.462-.193.974-.195 1.217-1.266 1.413-2.68.243-2.045.243-5.895.243-10.572v-8.573zM211.343 59.516c4.385 0 13.448-2.533 13.448-16.71 0-11.696-7.113-17.977-14.81-17.977-8.137 0-14.226 5.357-14.226 16.026 0 11.352 6.822 18.66 15.59 18.66M210.32 23.17c10.96 0 19.147 6.92 19.147 18.27 0 10.914-7.696 19.924-19.44 19.924-13.348 0-18.903-10.376-18.903-19.142 0-7.895 5.75-19.05 19.197-19.05M264.398 48.26c0-3.945-.245-4.48-2.193-5.016-.388-.1-1.218-.147-1.656-.147-.197 0-.39-.096-.39-.292 0-.293.242-.39.778-.39 2.193 0 5.26.147 5.506.147.243 0 3.312-.146 4.774-.146.536 0 .78.096.78.39 0 .195-.195.29-.39.29-.342 0-.633.05-1.218.148-1.316.243-1.705 1.07-1.804 2.776-.097 1.558-.097 3.022-.097 5.068v5.456c0 2.19-.047 2.288-.634 2.63-3.116 1.656-7.503 2.19-10.33 2.19-3.7 0-10.618-.486-16.025-5.21-2.973-2.582-5.8-7.794-5.8-13.887 0-7.792 3.802-13.298 8.14-16.027 4.383-2.73 9.205-3.07 12.958-3.07 3.07 0 6.527.636 7.454.83 1.023.244 2.73.438 3.946.487.487.048.585.243.585.44 0 .68-.34 2.044-.34 6.916 0 .78-.1 1.024-.44 1.024-.243 0-.29-.295-.34-.732-.05-.682-.293-2.045-1.024-3.215-1.22-1.852-5.163-3.947-11.45-3.947-3.068 0-6.724.295-10.424 3.216-2.83 2.238-4.824 6.673-4.824 12.372 0 6.87 3.46 11.84 5.164 13.498 3.848 3.75 8.282 5.213 12.763 5.213 1.753 0 4.287-.295 5.552-1.024.634-.34.976-.88.976-1.706V48.26zM295.334 44.557c.243 0 .243-.145.195-.34l-4.63-13.154c-.242-.73-.487-.73-.73 0l-4.287 13.154c-.097.243 0 .34.145.34h9.306zM290.27 25.07c.582-1.606.777-1.9 1.07-1.9.294 0 .486.243 1.07 1.755.732 1.85 8.38 21.972 11.352 29.376 1.755 4.34 3.168 5.116 4.19 5.41.733.244 1.464.29 1.948.29.293 0 .49.05.49.295 0 .29-.44.388-.974.388-.73 0-4.29 0-7.65-.097-.927-.046-1.462-.046-1.462-.34 0-.196.147-.292.34-.342.294-.097.585-.536.294-1.314l-4.53-11.986c-.1-.193-.197-.292-.44-.292h-10.474c-.245 0-.39.148-.488.39l-2.923 8.623c-.437 1.218-.682 2.387-.682 3.265 0 .972 1.025 1.41 1.85 1.41h.49c.34 0 .487.098.487.295 0 .29-.294.388-.73.388-1.17 0-3.264-.144-3.8-.144-.537 0-3.216.143-5.507.143-.632 0-.925-.097-.925-.388 0-.197.194-.296.437-.296.342 0 1.025-.046 1.415-.096 2.24-.292 3.215-2.144 4.093-4.58l11.06-30.253zM321.446 43.245c0 5.16.05 9.646.1 10.57.048 1.218.145 3.167.533 3.702.633.927 2.534 1.95 8.28 1.95 4.533 0 8.724-1.657 11.596-4.53 2.535-2.485 3.9-7.162 3.9-11.647 0-6.185-2.68-10.18-4.68-12.276-4.578-4.822-10.133-5.504-15.93-5.504-.973 0-2.778.146-3.167.34-.44.196-.586.44-.586.974-.05 1.658-.05 6.627-.05 10.378v6.043zm-4.093-5.263c0-7.6 0-8.964-.096-10.525-.097-1.656-.488-2.435-2.095-2.777-.39-.095-1.22-.144-1.658-.144-.192 0-.39-.1-.39-.293 0-.292.246-.39.78-.39 2.193 0 5.264.147 5.505.147.584 0 3.655-.148 6.578-.148 4.822 0 13.737-.437 19.535 5.555 2.437 2.532 4.725 6.58 4.725 12.375 0 6.137-2.533 10.864-5.26 13.74-2.095 2.19-6.48 5.6-14.76 5.6-2.096 0-4.68-.146-6.774-.293-2.144-.147-3.8-.29-4.045-.29-.098 0-.924 0-1.95.046-.972 0-2.092.097-2.826.097-.535 0-.778-.097-.778-.387 0-.15.097-.297.39-.297.438 0 1.023-.095 1.462-.194.972-.194 1.217-1.265 1.413-2.678.242-2.047.242-5.897.242-10.573v-8.573zM361.54 37.982c0-7.6 0-8.964-.096-10.525-.097-1.655-.486-2.435-2.095-2.777-.39-.095-1.22-.144-1.657-.144-.194 0-.39-.1-.39-.293 0-.292.244-.393.78-.393 1.12 0 2.434 0 3.51.053l1.995.097c.34 0 10.037 0 11.156-.05.927-.047 1.707-.145 2.095-.242.242-.05.437-.245.682-.245.148 0 .194.195.194.44 0 .34-.243.925-.39 2.29-.05.487-.147 2.63-.244 3.214-.046.243-.145.536-.34.536-.29 0-.39-.243-.39-.635 0-.34-.05-1.168-.292-1.75-.342-.783-.83-1.366-3.46-1.66-.828-.097-6.137-.145-6.674-.145-.194 0-.293.146-.293.488v13.446c0 .343.05.488.293.488.634 0 6.628 0 7.747-.097 1.168-.1 1.85-.196 2.29-.682.34-.39.536-.634.73-.634.147 0 .244.097.244.39 0 .293-.243 1.12-.39 2.73-.097.973-.195 2.776-.195 3.116 0 .39 0 .926-.34.926-.243 0-.34-.193-.34-.438 0-.488 0-.974-.197-1.607-.192-.682-.634-1.51-2.532-1.707-1.316-.145-6.14-.243-6.968-.243-.243 0-.342.146-.342.34v4.288c0 1.658-.048 7.308 0 8.33.148 3.363.878 3.996 5.654 3.996 1.267 0 3.41 0 4.676-.533 1.265-.537 1.85-1.512 2.192-3.508.098-.538.195-.732.438-.732.293 0 .293.39.293.73 0 .39-.39 3.703-.633 4.724-.343 1.267-.73 1.267-2.63 1.267-3.654 0-6.334-.097-8.235-.147-1.9-.097-3.067-.144-3.8-.144-.097 0-.925 0-1.947.046-.975 0-2.095.097-2.827.097-.535 0-.78-.097-.78-.39 0-.146.098-.294.39-.294.44 0 1.023-.097 1.463-.194.973-.194 1.218-1.265 1.412-2.678.243-2.047.243-5.897.243-10.573v-8.573z" fill="#231f20"/><path d="M80.894 50.668l-19.532-33.67-19.53 33.67L33.225 65.5h56.27L80.895 50.67z" fill="#b3e6fa"/><path d="M61.434 46.558l1.243-35.33h-2.64l1.397 35.33zM60.532 46.578l-4.3-35.084-2.608.41 6.908 34.674zM59.642 46.74L49.91 12.762l-2.51.813L59.642 46.74zM58.79 47.043L43.863 15l-2.355 1.2L58.79 47.044zM57.997 47.474L38.237 18.16 36.1 19.713l21.895 27.76zM57.28 48.023L33.18 22.16l-1.87 1.868 25.97 23.995zM56.658 48.675l-27.85-21.77-1.552 2.134 29.402 19.635zM56.145 49.417L25.233 32.27l-1.198 2.352 32.11 14.795zM55.755 50.23L22.54 38.132l-.814 2.514 34.03 9.584zM55.5 51.098l-34.702-6.755-.41 2.608L55.5 51.1zM55.38 51.993L20.05 50.75v2.643l35.33-1.4zM55.4 52.895l-35.085 4.3.41 2.606L55.4 52.896zM55.564 53.78L21.58 63.52l.815 2.507 33.17-12.246zM55.86 54.634L23.823 69.562l1.2 2.353 30.84-17.28zM56.292 55.43l-29.31 19.757 1.553 2.136L56.292 55.43zM56.84 56.145L30.982 80.248l1.87 1.865L56.84 56.145zM57.495 56.768l-21.772 27.85 2.136 1.55 19.635-29.4zM58.238 57.28L41.092 88.19l2.353 1.2 14.793-32.11zM59.054 57.67l-12.1 33.215 2.51.815 9.59-34.03zM59.918 57.93l-6.754 34.694 2.61.415 4.144-35.11zM60.81 58.048L59.57 93.376h2.645L60.81 58.048zM61.714 58.026l4.3 35.085 2.61-.412-6.91-34.672zM62.602 57.865l9.736 33.977 2.514-.81-12.25-33.167zM63.454 57.562l14.93 32.04 2.354-1.2-17.284-30.84zM64.25 57.133L84.01 86.44l2.135-1.548-21.895-27.76zM64.967 56.586l24.1 25.855 1.868-1.867-25.968-23.987zM65.59 55.932l27.847 21.77 1.55-2.14-29.397-19.63zM66.1 55.187L97.016 72.33l1.198-2.35L66.1 55.186zM66.492 54.374L99.704 66.47l.82-2.51-34.032-9.586zM66.75 53.507l34.695 6.753.417-2.605-35.112-4.148zM66.867 52.612l35.327 1.245v-2.645l-35.327 1.4zM66.846 51.71l35.087-4.3-.415-2.607-34.672 6.908zM66.684 50.823l33.98-9.737-.814-2.51-33.166 12.247zM66.383 49.97l32.04-14.933-1.197-2.35-30.843 17.284zM65.953 49.175l29.31-19.755-1.55-2.14-27.76 21.895zM65.406 48.46L91.26 24.357l-1.863-1.867-23.99 25.97zM64.75 47.836l21.77-27.848-2.135-1.55L64.75 47.835zM64.008 47.324l17.146-30.91-2.355-1.2-14.792 32.11zM63.195 46.932l12.098-33.21-2.512-.818-9.585 34.028zM62.33 46.676l6.75-34.696-2.608-.415-4.143 35.11z" fill="#fff"/><path d="M3.245 66.78c.184-.242.436-.382.763-.427.327-.04.61.03.85.215.245.18.387.437.43.763.044.324-.028.61-.213.85-.187.242-.443.384-.768.427-.325.043-.607-.03-.847-.21-.24-.184-.38-.44-.424-.767-.043-.325.025-.61.21-.85M3.858 52.91c.06-.463.015-.844-.142-1.14-.154-.293-.48-.47-.97-.536-.53-.067-.916.073-1.16.43-.126.19-.21.45-.255.792l-.31 2.42 2.542.33.296-2.296zM0 55.778l.436-3.417c.073-.558.216-1.014.427-1.358.412-.652 1.047-.92 1.907-.81.45.057.807.2 1.07.42.263.224.46.512.59.87.155-.276.342-.48.555-.598.215-.123.542-.164.98-.123l1.018.09c.284.025.5.03.64.008.246-.034.412-.127.5-.277l.174.022-.16 1.252-.263.052c-.103.014-.304.007-.6-.013l-1.26-.105c-.495-.037-.846.097-1.057.406-.114.18-.198.47-.25.87l-.29 2.25 3.224.414-.128 1.006L0 55.777zM1.515 46.342l1.538-5.318.873.252-1.256 4.346 2.232.647 1.16-4.018.836.24-1.16 4.02 2.464.714 1.273-4.41.875.255-1.553 5.374-7.282-2.102zM6.877 34.622c-.188.157-.364.413-.527.77l-.84 1.828 2.386 1.1.843-1.833c.184-.415.25-.79.19-1.13-.058-.34-.314-.612-.763-.817-.508-.232-.938-.206-1.29.082m-2.605 3.173l1.41-3.072c.28-.61.678-1.023 1.195-1.243.518-.217 1.092-.18 1.716.104.538.25.93.632 1.174 1.154.247.52.21 1.12-.105 1.8l-.98 2.14 2.913 1.334-.434.942-6.888-3.16zM8.815 28.897l3.902 2.58c.458.3.898.465 1.318.495.628.043 1.142-.24 1.544-.847.483-.73.563-1.39.24-1.98-.177-.32-.49-.63-.95-.93l-3.906-2.578.574-.863 3.55 2.344c.78.514 1.31 1.013 1.592 1.5.506.888.41 1.868-.297 2.94-.707 1.066-1.57 1.542-2.583 1.42-.557-.068-1.226-.358-2.004-.87l-3.55-2.348.57-.863zM20.85 24.118c.425-.47.593-.93.505-1.375-.055-.282-.205-.533-.448-.75-.41-.373-.853-.44-1.337-.207-.254.125-.53.348-.822.67l-1.38 1.526 1.98 1.792 1.5-1.656zm-2.825-2.09c.293-.324.476-.616.55-.88.114-.41-.016-.78-.375-1.113-.366-.33-.75-.406-1.153-.223-.228.105-.49.327-.794.662l-1.243 1.372 1.75 1.58 1.265-1.4zM13.7 22.02l2.2-2.43c.6-.66 1.224-.95 1.87-.875.382.044.722.205 1.026.482.354.32.556.684.6 1.09.026.214 0 .46-.08.747.37-.19.69-.29.956-.308.473-.03.924.15 1.355.542.36.327.585.738.67 1.23.133.74-.14 1.482-.812 2.222l-2.164 2.39-5.62-5.09zM19.87 15.618l.784-.66 4.3 5.113 2.922-2.453.578.688-3.705 3.116-4.88-5.802zM25.878 10.893l.856-.585 4.284 6.252-.853.585-4.287-6.252zM34.513 6.447c.7.196 1.226.57 1.578 1.112l-.88.466c-.33-.38-.706-.617-1.136-.714-.43-.097-.91-.007-1.445.277-.65.34-1.053.853-1.208 1.528-.155.676.022 1.49.53 2.446.414.785.928 1.323 1.548 1.623.623.3 1.286.257 2.002-.124.658-.347 1.024-.87 1.1-1.564.036-.368-.016-.794-.158-1.283l.882-.466c.295.747.352 1.48.163 2.188-.22.854-.78 1.518-1.674 1.99-.77.408-1.54.513-2.316.32-1.016-.256-1.87-1.04-2.562-2.34-.52-.987-.69-1.934-.51-2.843.198-.98.788-1.732 1.775-2.256.84-.445 1.61-.567 2.31-.363M43.27 7.164L41.08 4.39l-.046 3.55 2.233-.776zm-3.06-3.658l1.098-.38 5.07 6.266-1.065.366-1.49-1.893-2.805.966-.035 2.425-.993.346.22-8.094zM53.877 7.132c.338-.043.613-.11.822-.207.37-.18.66-.47.863-.877.16-.325.258-.727.29-1.21.014-.285.014-.55-.02-.79-.114-.923-.38-1.618-.804-2.09-.427-.465-1.042-.652-1.85-.553l-1.775.215.686 5.723 1.786-.21zM50.29.847l2.998-.36c1.015-.122 1.852.152 2.5.814.577.603.93 1.42 1.05 2.455.098.798.037 1.536-.18 2.215-.385 1.2-1.21 1.876-2.482 2.03l-2.987.356-.9-7.51zM59.854 0l5.53.18-.026.928-4.523-.14-.077 2.29 4.176.133-.03.894-4.172-.135-.084 2.562 4.58.146-.03.893-5.585-.18.243-7.57zM72.964 1.255l1.155.3 2.128 6.897 1.548-5.936.934.245-1.918 7.34-1.1-.29-2.178-6.925-1.555 5.95-.932-.242 1.916-7.338zM82.042 3.99l.968.377-2.744 7.063-.972-.378 2.748-7.063zM90.604 8.618c.23.693.215 1.334-.034 1.93l-.884-.465c.13-.484.115-.93-.044-1.34-.164-.407-.51-.753-1.043-1.035-.65-.342-1.3-.387-1.948-.137-.643.257-1.22.86-1.723 1.822-.416.783-.573 1.516-.47 2.194.1.68.51 1.205 1.227 1.585.658.347 1.294.356 1.91.023.326-.172.65-.454.97-.845l.883.464c-.45.667-1.023 1.12-1.714 1.368-.832.297-1.692.206-2.587-.262-.77-.41-1.294-.983-1.57-1.732-.358-.99-.193-2.13.496-3.437.52-.99 1.21-1.667 2.062-2.025.923-.395 1.878-.33 2.863.19.84.443 1.375 1.01 1.603 1.703M94.907 16.284l1.06-3.383L93 14.866l1.907 1.42zm1.306-4.606l.927.69-2.313 7.723-.9-.668.716-2.295-2.383-1.772-2.014 1.334-.843-.627 6.81-4.385zM101.46 20.817c.327.33.652.52.977.58.327.057.667-.09 1.022-.442.383-.376.51-.768.386-1.174-.07-.216-.222-.444-.46-.685l-1.7-1.717-1.836 1.81 1.61 1.63zm.128-4.8l2.415 2.443c.398.403.665.794.805 1.174.258.72.08 1.386-.538 2-.32.317-.652.51-.99.583-.337.067-.688.042-1.05-.075.12.295.167.562.132.813-.034.243-.2.525-.5.845l-.692.742c-.2.21-.337.383-.413.508-.127.213-.163.4-.105.56l-.115.113-.886-.897.122-.232c.06-.09.19-.24.393-.456l.86-.927c.334-.364.444-.724.33-1.076-.066-.202-.24-.446-.525-.734l-1.59-1.606-2.31 2.282-.728-.738 5.387-5.32zM106.706 28.724l2.028-2.904-3.42.985 1.392 1.92zm2.626-3.995l.678.937-4.532 6.676-.658-.91 1.38-1.98-1.744-2.405-2.33.67-.614-.85 7.82-2.14zM115.213 35.002c-.02.838-.428 1.557-1.23 2.15l-.458-.903c.434-.356.676-.76.73-1.218.05-.454-.055-.938-.317-1.456-.31-.615-.806-1.015-1.488-1.198-.68-.183-1.484-.04-2.413.43-.802.404-1.366.91-1.7 1.51-.326.6-.29 1.292.103 2.075.306.596.73 1.004 1.282 1.22.552.212 1.224.124 2.017-.27l-1.066-2.103.756-.382 1.5 2.96-3.612 1.825-.297-.59.76-.662c-.495-.132-.865-.28-1.114-.453-.428-.277-.796-.724-1.103-1.33-.398-.788-.48-1.595-.252-2.425.34-.944 1.07-1.707 2.205-2.282 1.13-.57 2.185-.722 3.158-.454.927.248 1.623.835 2.084 1.747.316.626.47 1.228.456 1.81M117.793 40.77l-4.467 1.397c-.526.165-.93.398-1.215.705-.433.456-.54 1.03-.323 1.723.256.828.72 1.308 1.378 1.426.36.065.798.016 1.32-.15l4.468-1.393.31.99-4.055 1.268c-.892.278-1.61.37-2.167.284-1.006-.17-1.703-.863-2.086-2.08-.38-1.222-.2-2.184.534-2.893.402-.388 1.05-.72 1.94-1l4.054-1.27.31.994zM116.217 53.468l3.13-1.646-3.48-.698.35 2.344zm4.155-2.34l.174 1.146-7.087 3.846-.166-1.112 2.133-1.123-.44-2.94-2.373-.48-.16-1.04 7.918 1.703zM117.806 67.75c-.233.194-.514.272-.843.244-.327-.03-.592-.166-.787-.4-.196-.233-.276-.515-.248-.843.036-.326.168-.59.402-.784.235-.194.517-.276.848-.24.33.03.59.162.78.396.194.23.276.515.243.844-.03.327-.162.59-.394.784M5.36 83.766l2.678-2.318-3.553.11.875 2.208zm3.527-3.226l.424 1.075-6.03 5.347-.415-1.043 1.824-1.575-1.09-2.762-2.42.075-.388-.98 8.095-.138zM11.94 87.365l.79 1.236-4.225 5.29 6.566-1.63.786 1.226-6.384 4.086-.53-.822 3.77-2.415c.13-.082.348-.21.657-.398.307-.184.632-.387.978-.604l-6.56 1.61-.548-.857 4.207-5.287-.194.122c-.157.105-.39.258-.708.475-.313.215-.544.372-.694.465l-3.77 2.41-.526-.82 6.387-4.087zM18.607 96.843l3.8 3.997-.673.636-3.104-3.27-1.67 1.588 2.877 3.028-.632.598-2.876-3.028-1.874 1.78 3.15 3.32-.65.617-3.845-4.045 5.497-5.222zM26.29 108.452c.377.273.73.413 1.063.413.335.007.65-.194.944-.608.32-.433.38-.842.194-1.226-.103-.195-.294-.4-.567-.6l-1.96-1.428-1.526 2.095 1.854 1.355zm-.645-4.768l2.777 2.026c.458.33.787.673.985 1.03.374.67.303 1.355-.207 2.06-.268.368-.563.613-.884.736-.318.12-.668.153-1.043.1.168.272.256.528.263.776 0 .245-.114.552-.362.92l-.572.85c-.163.234-.27.428-.32.56-.093.23-.097.416-.015.57l-.102.134-1.016-.746.087-.247c.045-.095.15-.267.316-.512l.69-1.06c.272-.417.323-.793.153-1.125-.1-.186-.31-.4-.638-.636l-1.827-1.332-1.917 2.632-.834-.61 4.46-6.126zM34.618 109.532l.922.48-3.503 6.725-.923-.476 3.504-6.728zM44.654 114.29c.33.65.424 1.287.27 1.915l-.954-.324c.05-.496-.034-.93-.256-1.31-.224-.376-.62-.66-1.192-.86-.696-.236-1.344-.176-1.94.17-.6.35-1.073 1.037-1.423 2.06-.287.84-.328 1.582-.12 2.237.208.654.694 1.11 1.46 1.37.7.243 1.33.153 1.885-.27.295-.22.57-.553.828-.99l.953.327c-.342.723-.836 1.256-1.48 1.607-.772.42-1.638.47-2.593.143-.822-.28-1.43-.77-1.817-1.463-.506-.923-.525-2.075-.046-3.473.36-1.054.933-1.824 1.718-2.317.854-.526 1.805-.613 2.86-.256.896.306 1.513.788 1.846 1.435M52.9 119.947l-.662-3.467-1.684 3.12 2.346.347zm-1.03-4.654l1.147.168 1.615 7.892-1.11-.164-.452-2.364-2.94-.436-1.152 2.133-1.04-.152 3.932-7.075zM69.514 115.84c.58.438.938.972 1.074 1.606l-.992.114c-.166-.464-.436-.825-.804-1.062-.368-.245-.854-.333-1.458-.26-.738.088-1.3.417-1.69.993-.394.575-.528 1.4-.4 2.472.105.88.395 1.566.868 2.067.473.498 1.114.7 1.92.608.747-.09 1.28-.445 1.6-1.065.17-.333.278-.746.32-1.253l.99-.117c.014.8-.206 1.497-.638 2.09-.518.713-1.276 1.13-2.282 1.246-.867.105-1.626-.074-2.278-.534-.86-.61-1.376-1.64-1.55-3.1-.128-1.113.053-2.053.554-2.834.54-.848 1.364-1.333 2.472-1.465.95-.11 1.712.048 2.294.493M74.404 114.252l5.282-1.642.277.895-4.327 1.345.68 2.19 3.998-1.24.266.854-3.998 1.237.758 2.455 4.385-1.37.267.858-5.337 1.658-2.25-7.238zM83.537 111.03l1.074-.567 6.186 3.66-2.852-5.415.87-.46 3.535 6.706-1.03.544-6.232-3.645 2.852 5.42-.87.466-3.533-6.71zM96.854 102.42l.552.716-2.01 1.56 4.11 5.272-.816.633-4.11-5.268-2.01 1.57-.547-.71 4.83-3.77zM104.49 99.604c.313-.346.486-.682.526-1.01.037-.336-.13-.666-.5-1-.403-.364-.803-.468-1.2-.315-.212.083-.433.248-.66.502l-1.625 1.805 1.926 1.727 1.534-1.71zm-4.805.155l2.295-2.558c.383-.42.755-.71 1.125-.87.71-.303 1.385-.165 2.032.418.34.303.553.622.64.953.092.333.09.688-.014 1.054.288-.138.55-.196.798-.175.25.02.54.175.88.454l.78.65c.225.185.4.31.53.376.218.118.407.135.566.065l.127.114-.84.936-.246-.105c-.09-.055-.25-.174-.482-.36l-.987-.786c-.387-.312-.753-.406-1.1-.27-.193.075-.427.266-.696.565l-1.505 1.672 2.42 2.17-.69.766-5.638-5.07zM112.077 90.87l-3.465-.76 2.222 2.782 1.243-2.022zm-4.704-.896l.607-.987 7.904 1.627-.59.958-2.356-.516-1.553 2.526 1.51 1.89-.547.9-4.975-6.398zM111.027 83.24l.383-.948 6.192 2.484 1.415-3.537.836.336-1.798 4.484-7.028-2.82z" fill="#231f20"/><path d="M89.092 64.804H33.63L22.297 84.342h78.126l-11.33-19.538z" fill="#176fc1"/><path d="M22.297 84.343l19.535-33.675 19.53-33.67 19.533 33.67 19.53 33.675H22.297zM82.164 49.66L61.36 13.635 40.564 49.66l-20.8 36.026H102.96L82.164 49.66z" fill="#fab239"/><path d="M22.297 84.343l19.535-33.675 19.53-33.67 19.533 33.67 19.53 33.675H22.297zM82.164 49.66L61.36 13.635 40.564 49.66l-20.8 36.026H102.96L82.164 49.66z" fill="none" stroke="#231f20" stroke-width=".15512463999999998"/><path d="M40.547 64.982c0-11.547 9.385-20.91 20.965-20.91 11.577 0 20.963 9.363 20.963 20.91 0 .246-.015.484-.02.728h2.278c.015-.244.02-.482.02-.728 0-12.92-10.406-23.393-23.24-23.393-12.84 0-23.242 10.47-23.242 23.392 0 .246.016.484.02.728h2.277c-.015-.244-.02-.482-.02-.728" fill="#1c63b7"/><path d="M61.517 40.546c-8.107 0-15.284 3.99-19.693 10.136l-.055.083-2.288 3.966c-1.437 3.122-2.258 6.58-2.258 10.247 0 .247.024.5.027.744H38.3c-.015-.244-.027-.496-.027-.743 0-12.92 10.407-23.384 23.247-23.384 12.835 0 23.247 10.463 23.247 23.384 0 .247-.025.5-.028.744h1.047c.015-.244 0-.496 0-.743 0-2.952-.507-5.78-1.46-8.4-.003-.01.003-.02 0-.028l-3.415-5.868-.827-1.432c-4.45-5.32-11.114-8.704-18.563-8.704z" fill="#3c9bdc"/><path d="M61.517 39.39c-6.49 0-12.42 2.47-16.91 6.5l-2.783 4.792c4.41-6.146 11.587-10.136 19.693-10.136 7.45 0 14.11 3.385 18.564 8.704l-2.285-3.91c-4.41-3.71-10.08-5.95-16.278-5.95zM39.482 54.73l-2.81 4.82c-.375 1.75-.577 3.563-.577 5.427 0 .247.026.5.027.744h1.13c0-.244-.028-.496-.028-.743 0-3.666.82-7.125 2.258-10.246zm44.84 1.846c.954 2.62 1.46 5.45 1.46 8.4 0 .248.003.5 0 .745h1.13v-.743c0-1.593-.136-3.142-.413-4.655l-2.177-3.746z" fill="#4e9c69"/><path d="M61.517 38.15c-5.653 0-10.89 1.77-15.204 4.792l-1.707 2.947c4.49-4.03 10.42-6.5 16.91-6.5 6.197 0 11.87 2.24 16.28 5.95l-1.598-2.756c-4.21-2.804-9.254-4.434-14.68-4.434zm-24.844 21.4L34.965 62.5c-.075.82-.11 1.638-.11 2.48 0 .246.026.498.028.743h1.24c-.016-.244-.028-.496-.028-.743 0-1.864.202-3.676.578-5.426zm49.826.772c.276 1.513.412 3.062.412 4.655v.744h1.24c.014-.244 0-.496 0-.743 0-.652-.038-1.287-.083-1.928L86.5 60.32z" fill="#fae418"/><path d="M61.517 37.103c-5.143 0-9.948 1.425-14.075 3.884l-1.13 1.955c4.314-3.022 9.552-4.792 15.205-4.792 5.427 0 10.47 1.63 14.68 4.434l-1.074-1.873c-4.02-2.29-8.655-3.607-13.606-3.607zM34.965 62.498l-1.13 1.928c-.002.184 0 .366 0 .55 0 .246-.014.5 0 .745h1.048c-.015-.244 0-.496 0-.743h-.028c0-.84.035-1.658.11-2.48zm53.104.55c.044.642.08 1.277.08 1.93 0 .246.016.498 0 .743H89.2v-.743l-1.13-1.928z" fill="#f68712"/><path d="M61.517 36.056c-4.703 0-9.137 1.15-13.055 3.168l-1.02 1.735c4.12-2.45 8.943-3.857 14.075-3.857 4.95 0 9.585 1.318 13.606 3.608l-.99-1.706c-3.81-1.88-8.087-2.948-12.616-2.948zm-27.68 28.398l-.745 1.267h.744c0-.244-.027-.498-.027-.743 0-.176.023-.348.026-.523zm55.36.523c0 .245.016.5 0 .744h.442l-.442-.743zM63.196 53.67s.602-.33.602-1.264c0-.934-.47-2.8-.87-3.798-.397-1-1.195-1.332-1.795-1.267-.6.068-1.73.67-1.667 1.003 0 0-.093.667.394.546.486-.125.91-.334.91.057 0 .396-.697.61-.972.7-.27.09-1.156.67-1.214 1.974-.06 1.304.092 1.49.304 1.732.21.24.79.456 1.032.456.243 0 .607.18.67.82.06.636-.123 2.884.726 2.912.852.032.82-3.065.82-3.065s.268-.79 1.06-.804" fill="#e21d25"/><path d="M28.63 73.427s7.202-1.972 11.187-7.203c3.982-5.235 2.05-6.26 3.758-6.3 1.7-.038 2.273 0 2.5 1.023.23 1.025.913 3.187 2.24 5.237 0 0 2.463-1.82 3.22-2.693.763-.872 1.632-2.35 1.632-2.35s.27-.836.95-.836c.682 0 1.517-.04 1.973 1.14.456 1.174 1.288 3.032 3.49 5.458 0 0 2.882-1.704 4.476-4.816 0 0 1.097-1.516 2.048.304.95 1.82.95 2.808 3.565 5.497 0 0 2.768-3.676 2.957-4.016.19-.343 1.443-1.29 2.01.036.568 1.33 1.635 2.96 2.01 3.112.382.153 1.428-2.58 1.428-2.58s.026-.592.208-.72c.18-.133.903-.575 1.704.616.806 1.19 2.978 3.574 4.297 4.273 1.322.7 5.98 1.162 7.067 1.162 1.09 0 .753 1.294.753 1.294s-1.942 1.81-5.694 2.845c-3.755 1.038-4.118 1.01-7.404 2.02-3.287 1.01-6.988 1.89-6.988 1.89s-3.078 1.11-6.47.777c-3.39-.337-7.53.44-9.783.88-2.25.437-7.714-.93-11.283-.596-3.572.337-7.712 1.37-9.086 1.346-1.37-.024-6.958-2.1-8.952-1.605l.8-3.05 1.385-2.143z" fill="#61a85b"/><path d="M27.658 74.816s5.28-1.243 8.853-4.112c0 0 .616 1.547 5.814-4.635 0 0-4.478 4.02-4.704 3.68-.23-.345 2.426-3.302 3.15-4.1.717-.792 2.386-3.11 2.5-3.865.113-.757.342-1.594.947-1.594.61 0 1.256 0 1.48 1.027.227 1.022 2.2 10.427 12.934 15.055 0 0-5.952-3.222-10.05-9.863 0 0 2.39-1.552 2.732-1.894.338-.344 2.503-3.036 2.503-3.036s.454-.8.796-.72c.343.075 1.405 2.313 1.937 3.184.53.874 5.12 9.294 16.233 13.464l.342-.15s-6.904-2.77-13.465-10.43c0 0 2.466-2.01 2.96-2.768.49-.757.947-2.355 1.438-2.428.492-.077 1.56-.303 1.822.682.266.99 2.73 8.422 12.024 12.023 0 0-6.258-3.755-8.268-6.558 0 0 1.553-1.937 1.897-2.62.34-.684.49-1.897 1.324-1.936.838-.036 1.442-.15 1.67 1.176.23 1.33 3.566 7.472 12.33 9.292 0 0-6.64-2.162-10.205-6.674 0 0 .91-.532 1.44-2.92 0 0 1.102-.8 1.667.19.572.985 3.074 5.31 7.21 5.65 4.135.34 5.802-1.327 5.688 1.06 0 0-3.413 2.77-9.558 3.758 0 0-4.933 1.555-5.764 1.78-.836.23-4.97 1.14-6.3 1.63-1.324.498-5.042.648-6.183.42-1.137-.227-5.995.04-8.193.758-2.2.72-8.683-.3-10.545-.38-1.857-.076-4.78.494-6.182.758-1.404.265-4.778.912-6.637.342-1.86-.566-4.893-2.237-8.005-.985l2.37-4.264z" fill="#00813c"/><path d="M60.44 79.35s-3.075.93-6.746.33c-3.665-.597-6.416-1.5-8.49-1.342-2.07.153-4.294 1.188-5.28 1.603-.98.412-3.05.83-3.88.676 0 0 1.864.617 4.038 0 2.175-.624 6.158-1.607 10.353-.52 3.186.828 7.54.94 10.006-.747M94.81 81.682s-3.078.933-6.747.335c-3.667-.598-6.418-1.5-8.49-1.346-2.07.155-4.296 1.192-5.28 1.607-.982.41-3.053.826-3.88.673 0 0 1.863.618 4.034 0 2.178-.625 6.162-1.608 10.355-.52 3.186.826 7.54.938 10.008-.748M66.256 81.533l-2.38-.673s-1.242-.31-2.277-.054c-1.035.263-1.66.882-3.055.833 0 0 1.914.567 4.35.41 2.43-.155 3.36-.517 3.36-.517M31.075 79.578s-2.586-.93-6 .57c0 0 4.242-.415 6-.57M22.845 83.307s1.09-.363 2.176.465l-1.707.57h-1.015l.547-1.035zM91.067 72.537s1.24-.826 2.277.363c0 0-1.19.624-2.277-.363M95.776 76.42s-.88-.88-3.312-.414c-2.434.47-6.47 1.4-7.35 1.4-.88 0-3.935.05-6.11-.725 0 0 3.315 1.866 5.8 1.866 2.483 0 6.624-.985 8.54-1.14 1.916-.155 3.056-.052 3.056-.052l-.624-.933z" fill="#fff"/><path d="M68.396 79.163s2.536-.41 3.52-.775c.982-.36 4.347-.88 6.16-.67 1.81.204 4.554 1.345 5.175 1.238.62-.1 1.346-.308 1.346-.308s-.62.775-1.863.93c-1.24.156-3.312-.463-4.192-.878-.878-.413-2.12-.882-3.156-.21-1.035.673-2.123 1.45-4.297 1.19-2.173-.257-2.69-.517-2.69-.517M48.35 82.534s-2.844-1.137-5.177 0c-3.18 1.555-6.934 1.09-6.934 1.09l-6.576-.885s3.26-.414 4.4-.414c1.14 0 2.846.67 3.934.933 1.088.257 3.158-.263 4.502-1.037 1.346-.777 3.727-1.448 4.712-.985.985.47 3.725.625 3.725.625-.673.463-2.587.67-2.587.67M36.78 68.224s-.882-1.086-2.123-.776c-1.243.31-2.174 1.19-3.004 1.19 0 0 1.142 1.087 2.434.468 1.295-.622 1.76-.983 2.693-.882M89.04 67.605s-1.397-1.502-4.19-.36l1.76.723s1.294.727 2.43-.363" fill="#fff"/></svg>