<svg xmlns="http://www.w3.org/2000/svg" xmlns:xlink="http://www.w3.org/1999/xlink" width="400" height="223.878"><defs><radialGradient fx="0" fy="0" cx="0" cy="0" r="1" gradientUnits="userSpaceOnUse" gradientTransform="scale(50.7) rotate(31.07 -8.27 13.21)" spreadMethod="pad" id="a"><stop offset="0" stop-color="#f9a033"/><stop offset=".923" stop-color="#ffde23"/><stop offset=".923" stop-color="#ffde23"/><stop offset="1" stop-color="#ffde23"/></radialGradient><radialGradient fx="0" fy="0" cx="0" cy="0" r="1" gradientUnits="userSpaceOnUse" gradientTransform="scale(50.62) rotate(31.07 -8.29 13.23)" spreadMethod="pad" id="b"><stop offset="0" stop-color="#f9a033"/><stop offset=".923" stop-color="#ffde23"/><stop offset=".923" stop-color="#ffde23"/><stop offset="1" stop-color="#ffde23"/></radialGradient><radialGradient fx="0" fy="0" cx="0" cy="0" r="1" gradientUnits="userSpaceOnUse" gradientTransform="matrix(43.35 26.12 26.12 -43.35 285.49 312.54)" spreadMethod="pad" id="c"><stop offset="0" stop-color="#f9a033"/><stop offset=".923" stop-color="#ffde23"/><stop offset=".923" stop-color="#ffde23"/><stop offset="1" stop-color="#ffde23"/></radialGradient><radialGradient fx="0" fy="0" cx="0" cy="0" r="1" gradientUnits="userSpaceOnUse" gradientTransform="scale(50.62) rotate(31.07 -8.29 13.23)" spreadMethod="pad" id="d"><stop offset="0" stop-color="#f9a033"/><stop offset=".923" stop-color="#ffde23"/><stop offset=".923" stop-color="#ffde23"/><stop offset="1" stop-color="#ffde23"/></radialGradient><radialGradient fx="0" fy="0" cx="0" cy="0" r="1" gradientUnits="userSpaceOnUse" gradientTransform="scale(50.62) rotate(31.07 -8.29 13.23)" spreadMethod="pad" id="e"><stop offset="0" stop-color="#f9a033"/><stop offset=".923" stop-color="#ffde23"/><stop offset=".923" stop-color="#ffde23"/><stop offset="1" stop-color="#ffde23"/></radialGradient><linearGradient x2="1" gradientUnits="userSpaceOnUse" gradientTransform="matrix(-57.24 111.45 125.47 64.44 376.77 344.9)" id="f"><stop offset="0" stop-color="#a4ce47"/><stop offset="1" stop-color="#2d7546"/></linearGradient><linearGradient x2="1" gradientUnits="userSpaceOnUse" gradientTransform="scale(107.17) rotate(-90 3.36 .96)" id="g"><stop offset="0" stop-color="#008cb5"/><stop offset=".203" stop-color="#aee2fa"/><stop offset=".203" stop-color="#aee2fa"/><stop offset="1" stop-color="#164672"/></linearGradient><linearGradient x2="1" gradientUnits="userSpaceOnUse" gradientTransform="matrix(-61.95 -117.07 -126.62 67 202.45 374.52)" id="h"><stop offset="0" stop-color="#a4ce47"/><stop offset="1" stop-color="#2d7546"/></linearGradient><linearGradient x2="1" gradientUnits="userSpaceOnUse" gradientTransform="matrix(94.36 64.9 64.9 -94.36 172.26 207.4)" id="i"><stop offset="0" stop-color="#008cb5"/><stop offset=".17" stop-color="#aee2fa"/><stop offset="1" stop-color="#164672"/></linearGradient><linearGradient x2="1" gradientUnits="userSpaceOnUse" gradientTransform="matrix(147.27 -6.22 -6.73 -159.28 267.68 208.06)" id="j"><stop offset="0" stop-color="#a4ce47"/><stop offset="1" stop-color="#2d7546"/></linearGradient><radialGradient xlink:href="#a" id="k" gradientUnits="userSpaceOnUse" gradientTransform="matrix(26.06 15.7 15.7 -26.06 223.44 249.89)" spreadMethod="pad" cx="0" cy="0" fx="0" fy="0" r="1"/><radialGradient xlink:href="#b" id="l" gradientUnits="userSpaceOnUse" gradientTransform="scale(30.38) rotate(31.07 -11.12 17.34)" spreadMethod="pad" cx="0" cy="0" fx="0" fy="0" r="1"/><radialGradient xlink:href="#c" id="m" gradientUnits="userSpaceOnUse" gradientTransform="matrix(26.02 15.68 15.68 -26.02 223.44 249.89)" spreadMethod="pad" cx="0" cy="0" fx="0" fy="0" r="1"/><radialGradient xlink:href="#d" id="n" gradientUnits="userSpaceOnUse" gradientTransform="matrix(26.02 15.68 15.68 -26.02 223.44 249.89)" spreadMethod="pad" cx="0" cy="0" fx="0" fy="0" r="1"/><radialGradient xlink:href="#e" id="o" gradientUnits="userSpaceOnUse" gradientTransform="scale(30.38) rotate(31.07 -11.12 17.34)" spreadMethod="pad" cx="0" cy="0" fx="0" fy="0" r="1"/><linearGradient xlink:href="#f" id="p" gradientUnits="userSpaceOnUse" gradientTransform="matrix(-34.35 66.9 75.3 38.67 278.22 269.31)" x2="1"/><linearGradient xlink:href="#g" id="q" gradientUnits="userSpaceOnUse" gradientTransform="matrix(0 -64.32 -64.32 0 206.31 339.89)" x2="1"/><linearGradient xlink:href="#h" id="r" gradientUnits="userSpaceOnUse" gradientTransform="matrix(-37.18 -70.26 -76 40.22 173.6 287.08)" x2="1"/><linearGradient xlink:href="#i" id="s" gradientUnits="userSpaceOnUse" gradientTransform="matrix(56.63 38.95 38.95 -56.63 155.49 186.79)" x2="1"/><linearGradient xlink:href="#j" id="t" gradientUnits="userSpaceOnUse" gradientTransform="matrix(88.38 -3.73 -4.04 -95.6 212.75 187.18)" x2="1"/></defs><path d="M185.283 68.52l17.58-27.952c1.473-2.347 2.52-4.1 3.53-5.805.41-.156 1.23-.477 1.132-.423.82-.215 2.05-.588 3.446-.642h15.902c-2.128 2.98-2.958 3.626-4.342 3.94-1.004.214-2.12.214-4.106.214h-7.21l-6.83 10.863h11.677c-2.587 3.726-3.796 4.258-5.72 4.258h-8.634c-3.582 5.694-6.632 10.65-9.743 15.49-.754.212-2.36.693-3.847.693-1.185 0-2.137-.162-2.833-.635M224.63 65.805c2.92 0 6.973-2.397 11.395-9.426 4.185-6.655 3.58-9.16.17-9.16-2.923 0-7.103 2.505-11.25 9.105-4.46 7.083-3.544 9.48-.316 9.48m-2.6 3.938c-7.95 0-9.975-3.888-4.116-13.205 5.758-9.16 13.62-13.364 21.01-13.364 8.134 0 9.426 4.472 4.035 13.045-5.627 8.945-13.787 13.523-20.93 13.523M261.898 49.51L251.35 66.28c-.536.856-1.002 1.49-1.99 2.185-1.398.64-2.363.692-6.4.692 1.833-2.817 4.174-6.44 6.754-10.537l5.65-8.893c1.074-1.703 1.467-2.93 1.705-3.995.762-.423 1.837-.85 3.505-1.327.44-.11.69-.11.938-.11 1.306 0 1.662.32 1.567 1.065 1.617-.692 3.224-1.17 4.635-1.542 1.29-.374 2.794-.59 3.868-.428 1.7.158 2.486.692 2.17 1.492-.505.8-1.687 2.29-3.23 3.35-.5.11-.5.11-1.058.11-.68 0-1.27-.053-1.734-.11-.366-.105-.55-.105-.738-.105-1.678 0-3.278.376-5.094 1.386M278.235 65.805c2.917 0 6.97-2.397 11.392-9.426 4.186-6.655 3.582-9.16.165-9.16-2.916 0-7.096 2.505-11.252 9.105-4.45 7.083-3.535 9.48-.305 9.48m-2.606 3.938c-7.95 0-9.976-3.888-4.114-13.205 5.757-9.16 13.62-13.364 21.005-13.364 8.14 0 9.43 4.472 4.037 13.045-5.625 8.945-13.778 13.523-20.928 13.523M187.95 91.542c-.046 2.134-.2 4.362-.372 6.362 1.206-2.092 2.96-4.97 4.305-7.108l7.036-11.185c.695-1.113 1.33-1.855 2.145-2.55 1.684-.698 2.062-.698 5.528-.698-1.772 2.742-3.958 6.127-6.238 9.747l-12.876 20.468c-.304.144-2.207.93-3.454.93-.487 0-1.756-.044-2.394-.323.024-2.276-.107-4.738-.24-7.29l-.026.05c-.045-1.392-.087-2.88-.153-4.32l-.01-3.434c.118-1.394.188-2.88.342-4.407.052-.606.168-1.395.193-1.95-.025-.046-.018-.142-.04-.187-1.596 2.786-3.32 5.616-4.522 7.616l-6.8 10.813c-.76 1.205-1.302 1.807-2.04 2.458-1.36.788-2.25.84-5.72.84 1.72-2.65 3.875-5.992 6.185-9.658l12.258-19.498c-.094-.28-.182-.74-.125-.834 0 0 .117-.185.4-.463 1.076-.42 3.548-.558 4.472-.558.537 0 1.178.183 1.728.603-.09 1.95.093 4.504.225 7.384.05.787.04 1.576.062 2.317-.006.697.077 1.348.126 2.04l.003 2.835zM211.01 100.083l1.926-3.067h-.54c-.542 0-1.17.048-1.74.095h.057c-2.564.37-5.122 1.256-6.843 3.99-1.344 2.136-.862 2.926.43 3.02h.323c1.407 0 3.415-.603 4.53-1.346l-.085.045c-.026.048.233-.278.462-.557.46-.558.9-1.253 1.48-2.18m-3.008-11.838c.07-.28.153-.416.273-.602.09-.14.288-.372.54-.606 1.78-.93 6.003-2.226 9.854-2.32.865 0 1.026 0 1.864.046 4.19.234 4.134 2.554 1.594 6.594l-1.286 2.04c-1.075 1.717-2.215 3.527-3.353 5.245-.67 1.067-2.04 3.16-2.565 3.992 0 0-1.475 2.09.38 1.812-.46.647-1.185 1.717-1.364 1.995-.866.604-2.467 1.255-4.173 1.3-1.246 0-2.11-.696-2.403-1.345-.386.183-1.19.51-1.63.697-1.648.555-3.06.647-4.576.647-3.684 0-5.98-1.948-3.264-6.264 3.538-5.62 10.62-7.245 14.235-7.568.517-.045 1.115-.045 1.598-.045.492 0 .867 0 1.166.045l1.427-2.272c1.228-1.95 1.657-2.972-.13-2.972-1.733 0-4.254.647-6.15 1.163-.74.227-1.422.367-2.234.367-.32-.694-.04-1.487.168-1.995l.028.045zM250.203 86.76c-.38.604-1.404 1.717-2.442 2.506h-.65c-.54 0-1.048-.14-1.582-.326-.665-.324-1.598-.555-2.518-.555-.165 0-.325 0-.625.047-3.288.232-7.027 2.646-10.387 7.984-4.03 6.403-1.787 7.75 1.408 7.75 1.68 0 3.895-.51 5.685-1.11-.168.693-.414 1.436-.623 1.76-.492.7-1.58 1.486-2.664 1.998-1.49.65-3.596 1.064-5.706 1.064-6.008 0-10.014-1.9-4.145-11.23 3.065-4.876 6.887-7.94 10.136-9.656 3.242-1.717 6.412-2.274 9.12-2.274 3.41 0 5.135 1.39 5.024 1.997l-.03.045zM267.236 74.833c2.544 0 2.45.924 1.285 2.69-1.16 1.766-2.57 2.97-5.17 2.97-2.22 0-2.476-.882-1.22-2.874 1.137-1.815 2.832-2.787 5.106-2.787m-4.432 10.487c-.036.746-.39 1.395-1.61 3.344l-9.785 15.548c-.673 1.067-1.352 1.81-2.362 2.554-.698.51-1.62.51-5.417.606l2.395-3.81c.847-1.346 1.806-2.784 2.74-4.27l5.08-8.075c1.316-2.09 2.165-3.53 2.87-4.733 1.38-1.164 3.308-1.302 5.747-1.302l.342.138zM269.19 104.446c2.546 0 6.082-2.09 9.934-8.22 3.648-5.798 3.125-7.98.147-7.98-2.543 0-6.185 2.182-9.81 7.936-3.882 6.175-3.085 8.264-.27 8.264m-2.27 3.432c-6.93 0-8.695-3.386-3.586-11.51 5.02-7.984 11.874-11.65 18.316-11.65 7.097 0 8.218 3.9 3.522 11.37-4.91 7.8-12.022 11.79-18.252 11.79M301.483 90.38l.25-.14-8.988 14.298c-.644 1.02-1.1 1.578-2.052 2.228-1.11.555-1.705.555-4.116.605h-1.406c1.6-2.46 3.64-5.617 5.86-9.146l4.903-7.796c.935-1.488 1.39-2.555 1.595-3.484.61-.366 1.548-.742 3.004-1.158.38-.095.706-.095.812-.095.98 0 1.367.42 1.34.978 1.493-.652 2.92-1.117 4.07-1.394 1.344-.326 2.544-.51 3.84-.51 6.77 0 6.203 2.972 2.876 8.263l-4.41 7.006c-1.576 2.51-2.953 4.784-4.04 6.595-1.057.556-2.146.743-5.722.743.01-.694.282-1.392.72-2.09l7.65-12.16c2.104-3.344 1.938-4.55-.823-4.55-1.73 0-3.636.788-5.362 1.81M327.987 100.083l1.924-3.067h-.54c-.54 0-1.163.048-1.74.095h.056c-2.56.37-5.12 1.256-6.84 3.99-1.34 2.136-.865 2.926.43 3.02h.323c1.41 0 3.412-.603 4.53-1.346l-.085.045c-.026.048.232-.278.463-.557.457-.558.896-1.253 1.48-2.18m-3.01-11.838c.066-.28.153-.416.27-.602.09-.14.288-.372.546-.606 1.772-.93 6.006-2.226 9.848-2.32.87 0 1.034 0 1.867.046 4.187.234 4.135 2.554 1.598 6.594l-1.287 2.04c-1.08 1.717-2.22 3.527-3.35 5.245-.674 1.067-2.043 3.16-2.568 3.992 0 0-1.472 2.09.378 1.812-.463.647-1.183 1.717-1.362 1.995-.87.604-2.466 1.255-4.176 1.3-1.245 0-2.108-.696-2.4-1.345-.39.183-1.19.51-1.63.697-1.65.555-3.06.647-4.577.647-3.683 0-5.978-1.948-3.262-6.264 3.534-5.62 10.62-7.245 14.233-7.568.516-.045 1.114-.045 1.6-.045.49 0 .865 0 1.16.045l1.435-2.272c1.224-1.95 1.647-2.972-.135-2.972-1.738 0-4.25.647-6.146 1.163-.743.227-1.423.367-2.24.367-.316-.694-.04-1.487.174-1.995l.025.045zM346.5 104.49c-.466.65-1.224 1.764-1.367 1.996-.95.65-2.523 1.253-4.175 1.304-.757 0-1.396-.28-1.757-.653-.65-.604-.61-1.534-.023-2.46l14.892-23.675c1.402-2.225 2.335-3.804 3.13-5.15 1.462-1.3 3.5-1.437 6.264-1.437-.345 1.067-.964 2.13-2.453 4.5l-14.943 23.767s-1.478 2.09.432 1.81M377.092 94.518c-.324-.293-.978-.497-1.762-.497-2.08 0-5.252 1.59-8.027 5.92-2.598 4.063-1.818 5.35.3 5.35 1.024 0 2.213-.328 3.065-.856l-.062.03c.062-.03.224-.232.33-.397.272-.365.59-.857 1.035-1.552l5.122-7.997zm-1.928 11.04c-.336.46-.9 1.287-1.006 1.45-.688.464-1.826.895-3.025.926-1.026.066-1.528-.492-1.743-.957-.34.165-.78.363-1.282.53l.02-.035c-1.113.396-2.218.528-3.296.497-3.975-.168-5.77-2.018-2.132-7.702 1.882-2.938 4.405-5.22 6.98-6.74 2.323-1.354 4.743-2.017 6.706-2.017 1.18 0 1.878.134 2.396.365l2.24-3.503c.91-1.42 1.484-2.376 1.934-3.14 1.044-.892 2.48-1.056 4.48-1.056-.083.562-.386 1.156-1.335 2.643l-7 10.938-2.37 3.7c-.464.726-1.48 2.244-1.86 2.844 0 0-1.07 1.486.294 1.255M394.2 93.955c-1.515.167-3.78 1.558-5.915 4.528h1.096c1.372 0 3.002-.03 3.83-.1.22-.03.413-.03.67-.13.232-.234.543-.596.796-.99.08-.134.108-.233.192-.365l.213-.332c.926-1.752.768-2.61-.723-2.61h-.156zm-.987 10.312c-.168.628-.473 1.29-.666 1.652-.484.693-2.264 1.456-3.65 1.716h.037c-.672.136-2.016.333-3.27.333-1.962 0-3.772-.3-4.498-1.62-.65-1.257-.023-3.337 1.714-6.05 4.105-6.408 8.924-8.79 13.436-8.79 3.726 0 4.464 1.854 2.938 4.726-.28.494-.577 1.027-.937 1.587-.464.726-1.01 1.45-1.446 1.948-.68.332-2.405.764-3.627.894-1.303.137-3.348.2-5.19.2-.624 0-.767.03-1.374 0-2.038 3.303-1.065 4.36 1.367 4.36 1.527 0 3.19-.262 5.166-.957M164.725 124.677c2.25-3.576 1.383-5.384-1.49-5.384-.915 0-1.755.048-2.384.093l-7.12 11.324h2.166c.76 0 1.516 0 2.12-.184 1.89-.51 4.462-2.273 6.71-5.85m-3.587 21.12c.272 1.117-3.902 1.21-3.902 1.21h-.76c-2.046-.186-2.015-2.045-1.84-3.53.2-2.645.163-6.545-.805-9.146-.157 0-.346-.042-.508-.042h-1.845l-6.364 10.116c-.466.743-.926 1.298-1.762 1.858-.974.605-2.112.605-4.548.605h-1.083c1.746-2.694 3.874-5.992 6.15-9.61l9.722-15.457c1.05-1.675 1.898-3.018 2.66-4.316.147-.234.38-.606.64-.928.607-.28 1.013-.327 1.863-.464.107 0 .297-.05.354-.05.19-.048.517-.048.816-.092h.322c.68-.046 1.52-.09 2.168-.09h2.6c.432 0 1.003.044 1.435.044 6.294.325 7.988 2.973 4.28 8.87-2.396 3.8-8.18 7.234-10.26 8.212.48 2.6.344 5.57.34 7.984.03 2.363 0 4.226.3 4.782l.026.044zM186.255 127.648c-2.095.233-5.217 2.182-8.17 6.36h1.514c1.895 0 4.15-.047 5.287-.14.304-.047.57-.047.928-.185.317-.324.744-.838 1.093-1.393.12-.187.152-.324.268-.51l.296-.465c1.273-2.46 1.057-3.667-1.003-3.667h-.215zm-1.368 14.482c-.222.883-.647 1.812-.914 2.32-.672.98-3.13 2.043-5.04 2.417h.053c-.93.185-2.784.46-4.516.46-2.703 0-5.204-.414-6.204-2.277-.895-1.758-.03-4.683 2.363-8.49 5.665-9.004 12.32-12.346 18.544-12.346 5.142 0 6.165 2.6 4.054 6.638-.383.695-.797 1.438-1.293 2.225-.642 1.023-1.393 2.04-1.99 2.74-.945.463-3.326 1.07-5.013 1.256-1.798.183-4.618.276-7.162.276-.86 0-1.057.048-1.894 0-2.81 4.642-1.47 6.125 1.887 6.125 2.114 0 4.402-.37 7.124-1.345M219.893 126.255c-.377.604-1.406 1.715-2.444 2.506h-.65c-.544 0-1.047-.14-1.58-.326-.667-.32-1.6-.554-2.523-.554-.16 0-.325 0-.623.048-3.285.232-7.028 2.645-10.385 7.98-4.03 6.408-1.788 7.752 1.408 7.752 1.678 0 3.894-.508 5.68-1.11-.163.694-.416 1.435-.623 1.76-.49.7-1.58 1.486-2.66 1.997-1.492.653-3.596 1.067-5.708 1.067-6.012 0-10.013-1.902-4.145-11.23 3.065-4.874 6.888-7.937 10.137-9.654 3.242-1.718 6.407-2.277 9.12-2.277 3.406 0 5.132 1.39 5.02 1.997l-.027.045zM236.925 114.325c2.545 0 2.455.928 1.288 2.693-1.165 1.763-2.572 2.972-5.174 2.972-2.223 0-2.476-.883-1.224-2.88 1.14-1.81 2.837-2.785 5.11-2.785m-4.432 10.494c-.032.74-.388 1.39-1.614 3.34l-9.78 15.55c-.672 1.066-1.35 1.81-2.364 2.553-.695.507-1.618.507-5.413.604l2.395-3.808c.842-1.35 1.8-2.788 2.737-4.27l5.08-8.08c1.313-2.09 2.166-3.526 2.87-4.732 1.377-1.16 3.306-1.3 5.746-1.3l.344.14zM257.262 126.255c-.382.604-1.403 1.715-2.445 2.506h-.654c-.538 0-1.047-.14-1.58-.326-.658-.32-1.597-.554-2.513-.554-.166 0-.327 0-.633.048-3.286.232-7.018 2.645-10.378 7.98-4.03 6.408-1.79 7.752 1.403 7.752 1.682 0 3.894-.508 5.686-1.11-.17.694-.42 1.435-.624 1.76-.493.7-1.582 1.486-2.666 1.997-1.49.653-3.593 1.067-5.702 1.067-6.015 0-10.015-1.902-4.147-11.23 3.065-4.874 6.886-7.937 10.132-9.654 3.247-1.718 6.416-2.277 9.12-2.277 3.41 0 5.14 1.39 5.03 1.997l-.03.045zM259.758 143.985c-.465.65-1.216 1.766-1.364 1.998-.952.65-2.523 1.25-4.175 1.298-.76 0-1.395-.274-1.762-.648-.646-.6-.603-1.53-.024-2.46l14.893-23.675c1.4-2.224 2.337-3.804 3.13-5.15 1.47-1.302 3.503-1.437 6.27-1.437-.348 1.066-.964 2.132-2.453 4.5l-14.95 23.766s-1.476 2.09.434 1.81M280.02 139.578l1.926-3.066h-.54c-.542 0-1.17.048-1.74.094h.057c-2.56.372-5.123 1.255-6.844 3.99-1.343 2.136-.863 2.924.43 3.018h.323c1.414 0 3.414-.6 4.533-1.345l-.083.046c-.03.046.23-.28.457-.554.462-.56.9-1.258 1.48-2.184m-3.006-11.835c.066-.278.154-.42.272-.605.09-.135.284-.373.542-.605 1.77-.93 6.002-2.227 9.852-2.32.866 0 1.03 0 1.864.045 4.187.235 4.138 2.556 1.6 6.594l-1.29 2.045c-1.08 1.713-2.217 3.522-3.355 5.244-.67 1.063-2.034 3.156-2.563 3.99 0 0-1.476 2.088.378 1.81-.465.65-1.185 1.72-1.362 1.998-.867.602-2.467 1.253-4.176 1.295-1.245 0-2.108-.693-2.403-1.342-.387.186-1.185.51-1.627.693-1.65.56-3.063.65-4.58.65-3.684 0-5.978-1.946-3.26-6.264 3.53-5.62 10.617-7.24 14.233-7.568.515-.043 1.112-.043 1.604-.043.484 0 .86 0 1.16.042l1.43-2.274c1.224-1.948 1.65-2.968-.138-2.968-1.735 0-4.25.647-6.142 1.158-.74.233-1.424.372-2.237.372-.317-.694-.04-1.483.173-1.993l.024.046zM313.178 114.325c2.543 0 2.45.928 1.286 2.693-1.165 1.763-2.572 2.972-5.17 2.972-2.224 0-2.482-.883-1.227-2.88 1.14-1.81 2.838-2.785 5.11-2.785M308.8 124.82c-.057.6-.327 1.203-1.462 3.014l-9.14 14.528c-1.373 2.18-2.675 4.084-4.034 5.895-1.24 1.717-2.805 3.34-4.57 4.69-2.072 1.483-4.418 2.46-6.784 2.69-.465.046-.952.046-1.275.046-.868 0-1.486-.046-1.887-.185-1.126-.188-1.59-.74-1.17-1.672.262-.417.864-1.113 1.51-1.623h.54c.108 0 .188.047.297.047.918 0 2.29-.278 3.688-.698 1.81-.556 3.233-2.04 5-4.593.7-1.022 1.63-2.417 2.417-3.667l7.327-11.652c1.547-2.46 2.546-4.13 3.453-5.662 1.378-1.16 3.254-1.3 5.693-1.3l.397.14zM324.778 127.648c-2.092.233-5.212 2.182-8.166 6.36h1.518c1.892 0 4.142-.047 5.287-.14.3-.047.57-.047.927-.185.313-.324.746-.838 1.093-1.393.122-.187.152-.324.264-.51l.296-.465c1.277-2.46 1.06-3.667-1-3.667h-.218zm-1.36 14.482c-.228.883-.652 1.812-.92 2.32-.67.98-3.126 2.043-5.037 2.417h.056c-.93.185-2.786.46-4.516.46-2.706 0-5.21-.414-6.202-2.277-.896-1.758-.035-4.683 2.36-8.49 5.665-9.004 12.316-12.346 18.543-12.346 5.147 0 6.165 2.6 4.057 6.638-.385.695-.798 1.438-1.293 2.225-.644 1.023-1.396 2.04-1.993 2.74-.944.463-3.327 1.07-5.01 1.256-1.796.183-4.62.276-7.162.276-.865 0-1.055.048-1.895 0-2.81 4.642-1.47 6.125 1.89 6.125 2.113 0 4.402-.37 7.124-1.345" fill="#045993"/><path d="M193.31 256.48s5.822-17.203 29.578-6.29c0 0-5.48 3.248-8.124 11.21 0 0-3.85 2.598-8.826 2.598-3.952 0-8.614-1.638-12.627-7.517" fill="url(#k)" transform="matrix(1.25 0 0 -1.25 -162.88 418.69)"/><path d="M208.733 245.21s-10.284-5.198-3.2-19.024c0 0 17.635-2.735 18.225 23.398 0 0-6.71-5.48-15.025-4.373" fill="url(#l)" transform="matrix(1.25 0 0 -1.25 -162.88 418.69)"/><path d="M223.125 251.264s1.744 6.128 8.77 10.714c0 0 4.93 14.108-10.227 19.485 0 0-15.974-9.872 1.457-30.2" fill="url(#m)" transform="matrix(1.25 0 0 -1.25 -162.88 418.69)"/><path d="M223.948 251.447s7.336-.315 13.56-5.936c0 0 12.87.703 13.402 15.565 0 0-3.262 2.843-8.412 2.844-4.877 0-11.447-2.55-18.55-12.473" fill="url(#n)" transform="matrix(1.25 0 0 -1.25 -162.88 418.69)"/><path d="M223.293 237.512s2.832-13.336 18.668-10.55c0 0 7.46 15.25-17.432 23.518 0 0 1.605-5.144-1.235-12.968" fill="url(#o)" transform="matrix(1.25 0 0 -1.25 -162.88 418.69)"/><path d="M247.37 334.85l-3.08-.003c-6.58-.017-11.546-5.31-14.443-9.347-1.022-1.425-9.016-9.58-9.06-10.064-.143-1.373 38.916-55.642 38.916-55.642l31.91 49.238c-.55-.292-6.258-.23-9.765-.166-1.494.027-2.59.054-2.716.054-.32 0-7.307 11.355-13.94 19.224-5.016 5.686-10.91 6.706-17.655 6.706h-.167" fill="url(#p)" transform="matrix(1.25 0 0 -1.25 -162.88 418.69)"/><path d="M214.77 334.89c-12.777-.023-22.718.296-27.684-5.466-2.396-2.644-21.59-28.985-22.152-30.59l38.294-20.065c.515 1.336 22.634 38.67 26.87 44.207 2.912 3.81 3.243 4.594 7.027 7.68 1.845 1.502 7.36 4.067 10.544 4.067l.02.226c-10.98-.018-21.948-.037-32.92-.06" fill="url(#q)" transform="matrix(1.25 0 0 -1.25 -162.88 418.69)"/><path d="M139.21 262.89c.177-.268-5.384-12.977-8.23-23.283-1.947-7.695.58-13.272 4.436-18.96l1.74-2.574c3.723-5.492 10.95-6.445 15.966-6.43.825.005 3.734-.377 6.646-.758 3.324-.435 6.652-.87 6.883-.732 1.23.71 33.5 62.884 33.5 62.884l-68.072.22c.79-.402 6.89-10.012 7.13-10.367" fill="url(#r)" transform="matrix(1.25 0 0 -1.25 -162.88 418.69)"/><path d="M135.152 220.855c6.204-9.17 12.404-18.334 18.612-27.494 7.222-10.674 12.56-19.18 20.18-19.85 3.564-.408 30.272-.62 31.93-.12l-.173 40.13c-1.41-.38-15.435-.27-18.303-.223-7.15.13-3.887.166-10.992.144-6.988-.024-14.293-.256-21.316-.06-4.832.135-5.672-.064-10.39 1.233-2.297.637-7.55 3.697-9.347 6.36l-.2-.118z" fill="url(#s)" transform="matrix(1.25 0 0 -1.25 -162.88 418.69)"/><path d="M213.864 213.523l32.832-57.675c.023.886-.043 12.31.174 12.682.06.1 2.218-.07 5.447-.24 5.705-.302 14.756-.602 21.48.587 9.554 1.216 15.395 13.976 15.395 13.976 3.076 6.727 13.605 30.072 13.185 30.35-.532.364-18.82.464-38.633.464-23.836 0-49.88-.144-49.88-.144" fill="url(#t)" transform="matrix(1.25 0 0 -1.25 -162.88 418.69)"/></svg>