<svg xmlns="http://www.w3.org/2000/svg" width="400" height="243.827"><path d="M211.582 0l-1.798 1.046L207.84.45 193.7 18.59l-1.6 109.292c1.878 2.12 3.433 4.86 4.185 7.81l-.045-3.94 1.687-.753.095 7.847c.736.09 1.47.234 2.203.42l-.088-7.93 1.694-.75.112 9.203c.674.24 1.328.518 1.967.833l-.102-9.896 1.695-.752.11 10.05-1.29.804c1.272.664 2.45 1.468 3.465 2.394.815.744 1.525 1.596 2.158 2.505.543-.752 1.095-1.507 1.77-2.153 1.64-1.573 3.726-2.837 5.96-3.69l.11-8.925 1.69.737-.082 7.618c.948-.263 1.905-.463 2.86-.567v-.073l-.037-.013-.223-20.603-3-1.797 3.25-2.41-.05-2.01 1.474.485.03.464.908-.67.553-16.675-1.1-.656 1.35-2.29.906-1.077-.236-.058-.118-4.422 1.474.48.088 2.556 1.076-1.275V74.328c-.367-.36-.65-.737-.87-1.105l.1 3.14-1.428-.834-.2-3.98 1.055.34c-.145-1.4.82-2.7 2.896-3.552l-.064-2.388 1.487.678-.03 1.253c.76-.197 1.62-.354 2.585-.45l.25-6.682c-3.085-2.08-1.103-2.93 0-3.994-.183-1.058.03-2.536.478-4.163l-.13-.073-.12-4.126 1.416.598v.33c.79-1.835 1.78-3.653 2.822-5.127v-.11l.067.03c.378-.527.76-1.008 1.142-1.43l-1.076-.574-.116-4.288 1.326.633v4.09c.56-.596 1.115-1.06 1.643-1.34l-.03-23.705L211.582.002zm-3.492 3.028l.11 10.05-1.694 1.062-.1-10.375zm4.14.192l1.71.973-.073 9.358-1.732-.95zm3.847 2.18l1.65.937-.302 9.225-1.474-.825zm-11.193 1.24l.11 9.195-1.7 1.275-.096-9.734zm14.826.935l1.562.722-.155 9.233-1.673-.884zm3.544 1.982l1.37.626-.17 9.218-1.416-.743zm70.548.678l-1.68.612.302 2.29-2.38 1.438.243 1.923 2.034-1.555-.127 2.145-1.312 1.54c-2.85.847-6.362 3.928-6.328 11.215 0 .312.154.88-.162.973-5.71 1.672-2.48 6.285-.398 6.948l.162 7.184c-5.212 3.853-11.27 7.392-6.146 9.698l.973 18.178-15.024 6.057-5.01-1.694c.705-6.086-1.573-6.768-6.463-9.13l-.162-5.983c.665-.68 5.304-2.606.73-4.68-.17-.077-.144-.428-.16-.566-.254-1.905-.784-3.997-1.614-5.895-1.31-2.988-3.29-5.365-5.498-5.254-1.78.09-4.163 1.51-5.894 5.01-.703 1.42-1.3 3.19-1.695 5.328-.033.16.076.433-.082.486-3.945 1.32-.562 3.782 0 3.633l-.08 8.165c-8.657 1.21-7.717 3.468-5.58 5.813l.082 15.592-3.39 2.02-1.695 2.667 1.37.405c.21 6.21.033 12.445 0 18.657l-6.056 2.02 3.145 1.856-.5 21.406c1.06.1 2.134.302 3.182.604.118-1.214.33-2.017.796-2.46.607-.59 1.047-.847 1.37-.826.785.05.863 1.76.82 4.43 1.288.617 2.493 1.37 3.558 2.23.085-3.383.172-5.798 1.195-6.638.56-.504.998-.75 1.326-.766 1.163-.058 1.04 2.708.878 6.5 1.246-.79 2.548-1.49 3.898-2.094.03-.32.03-.677.045-.98.112-2.174.28-2.765 1.534-3.714 1.722-1.09 2.18.626 2.21 3.287 1.042-.317 2.098-.588 3.17-.797.15-1.325.425-2.307.92-2.653 2.253-1.804 2.823-.284 2.925 2.152.73-.052 1.462-.08 2.195-.08.047 0 .094.012.14.012.74-3.315 2.348-6.67 4.99-9.093 3.173-2.908 7.887-4.656 12.07-4.656 4.2 0 8.838 1.756 12.003 4.657 3.726 3.416 5.504 8.702 5.505 13.08v.08c3.204-1.764 6.712-2.994 10.33-3.558-.03-3.996.125-7.69 2.35-7.685 2.484.117 2.66 3.504 2.52 7.346 2.52.04 4.91.46 7.318 1.098.042.008.075.008.112.014 1.945.535 3.857 1.21 5.718 2.218-.222-4.627-.5-9.323 2.432-9.46 2.242-.003 2.297 4.237 2.343 8.51 2.556-1.088 5.253-1.824 8.002-2.167-.03-4.02.36-7.415 1.93-7.235 1.442-.62 1.97 2.866 2.108 7.022 2.762.062 5.5.55 8.128 1.407-.135-3.518-.032-6.62 1.238-7.377 1.666-.157 2.078 4.207 2.263 8.77 1.31.617 2.577 1.323 3.787 2.12.35-.438.645-.897 1.07-1.296.74-.697 1.522-1.266 2.32-1.73-.094-3.94-.054-7.384.818-7.46.094-.006.21.01.323.083.706-.048 1.087 2.85 1.305 6.263 1.757-.596 3.472-.796 4.87-.796 1.99 0 4.57.444 7.016 1.77 1.23-.47 2.485-.848 3.76-1.136.05-2.948.558-5.286 2.6-5.378 1.553-.002 2.036 2.072 2.196 4.76.242-.007.486-.013.73-.013 6.433 0 13.052 2.46 17.83 6.86.033.012.033.03.047.043 1.93 1.774 3.345 3.91 4.362 6.256l.045-38.34-14.95-1.54-1.128-13.89 1.938-.08-9.616-9.536-4.68 1.452-30.86 5.254-26.578-5.49-.648-7.03 2.748-2.505-3.072-.89.323-3.39-5.165-2.1-.324-18.982c2.968-.758 4.092-2.335-5.82-9.13l.08-6.544c3.696-2.427 1.548-5.677-.243-6.382-.596-.234-.54-1.376-.56-1.857-.087-2.044-.448-3.72-1.296-5.658-.982-2.24-2.522-4.085-4.865-4.863l-1.79-1.652v-2.99l2.144-.68-.156-2.136-1.68 1.267zm-91.88.11l.11 9.196-1.694 1.276-.1-9.734zm24.537.936l1.333.775.118 9.233-1.524-.78zm3.397 1.947l1.274.722.033 9.24-1.32-.738.033-9.225zm-31.302.626l.036 8.857-1.325.855.032-8.975zm14 .84l1.48.75-.31 4.673-1.29-.648zm20.632.39l1.275.73-.074 9.262-1.326-.78zm-25.422.81l-.11 3.752-1.135.795-.057-3.86zm8.63.605l1.37.752v4.67l-1.496-.603.117-4.82zm19.8.31l1.266.685.082 9.262-1.408-.81zm-40.603.685l.032 8.864-1.326.848.036-8.975zm9.565.81l-.118 3.75-1.135.797-.058-3.86zm34.323.39l1.06.59.384 9.292-1.348-.773zm-18.606.244l1.474.796.21 4.28-1.49-.706zm-8.378 1.643l1.474.752-.2 4.84-1.31-.75zm-10.397.295l-.112 3.75-1.142.796-.05-3.86zm23.483.11l1.43.693-.046 4.723-1.282-.7zm-18.016.53l-.11 3.76-1.143.795-.05-3.87zm8.864.944l1.533.824-.11 4.547-1.482-.707zm14.023 1.023l1.378.65v4.663l-1.347-.693zm-25.458.288l-.11 3.75-1.143.797-.05-3.86zm-6.433.163l-.11 3.75-1.143.796-.052-3.87zm22.224.655l1.473.804-.102 4.4-1.274-.598zm13.683 1.187l1.377.678-.074 4.598-1.223-.662zm-22.13.84l1.483.59-.155 4.34-1.253-.516zm-10.24.05l-.112 3.752-1.142.796-.05-3.87zm23.225.09l1.473.803.21 4.273-1.482-.7zm-29.82.552l-.112 3.75-1.135.797-.057-3.862zm11.9.324l-.112 3.752-1.134.796-.06-3.87zm31.412.274l1.378.76v4.472l-1.26-.7zm-22.37.612l1.48.692v4.252l-1.4-.626zm13.97.655l1.378.753-.095 3.98-1.31-.59zm-31.855.87l-.11 3.752-1.143.795-.052-3.86zm6.27 0l-.11 3.752-1.143.795-.05-3.86zm16.22.598l1.473.59v4.354l-1.378-.604zm13.572.847l1.253.693.05 3.876-1.274-.62zm-9.218 1.002l1.474.64.154 4.437-1.51-.7zm-12.96.045l1.553.714-.186 4.252-1.437-.61zm-17.097.243l-.12 3.75-1.133.796-.057-3.86zm6.587.162l-.11 3.75-1.136.796-.056-3.868zm36.953.464l1.342.7-.074 3.435-1.15-.523zm-31.323.178l-.11 3.75-1.143.796-.05-3.86zm9.247.825l1.474.745-.074 4.295-1.437-.648zm13.58.06l1.386.618.08 4.496-1.347-.774zm-31.832 1.046l-.11 3.75-1.143.795-.052-3.86zm6.11.08l-.112 3.75-1.135.796-.057-3.868zm30.195.795l1.29.634.05 4.236-1.297-.56zm-14.008.14l1.444.67v4.216l-1.548-.684zm-25.673 1.717l-.118 3.75-1.135.797-.057-3.862zm30.278.126l1.51.67.082 4.26-1.474-.612zm-23.918.766l-.11 3.75-1.136.796-.056-3.86zm10.883.162l1.473.48-.073 4.332-1.585-.686zm-5.343.39l-.117 3.758-1.135.796-.057-3.868zm23.175.767l1.34.64v4.252l-1.37-.582zm-13.897.228l1.555.71-.074 4.33-1.364-.912zm-17.987.944l-.11 3.758-1.136.796-.057-3.868zm5.902.074l-.108 3.75-1.142.797-.05-3.87zm30.292.472l1.342.67.036 4.304-1.334-.62zm-13.506.47l1.48.488v4.406l-1.436-.39zm-25.88.797l-.11 3.75-1.142.797-.05-3.862zm30.404 1.135l1.48.486.15 4.326-1.512-.384zm-23.97.36l-.118 3.76-1.135.795-.057-3.87zm10.508.708l1.4.708.073 4.406-1.657-.76zm-5.202.966l-.118 3.75-1.135.796-.057-3.868zm23.3.02l1.34.53.074 4.333-1.297-.59zm-31.863.353l-.118 3.75-1.134.796-.057-3.86zm-18.79.397L98.6 49.557l.36 21.437-85.02 2.18-.05 5.092 1.872-.007-.154 51.123c.82-1.785 1.796-3.485 2.91-5.085l-.215-45.31h16.35l-.248 33.07c.97-.35 1.96-.66 2.97-.92l.154-32.164 15.68-.125-.032 3.676-14.538.354v.213l-.18 27.795c2.24-.492 4.562-.76 6.942-.76 2.26 0 4.462.243 6.588.693v-6.336l.995-.013-.057 6.567c1.176.286 2.325.633 3.448 1.046l.064-7.65 4.973-.057-.08 10.02c3.526 1.854 5.902 4.98 8.71 7.937 3.334-10.648 12.08-20.22 19.57-24.95v-5.505l2.358-.023-.03 4.237c1.184-.61 2.395-1.162 3.64-1.658v-2.616l3.433-.037v1.46c.49-.147.978-.283 1.474-.412v-1.01l6.676-.155c1.27-.117 2.56-.185 3.86-.184v.006c1.492 0 2.963.075 4.415.23v-.244l5.018-.12v1.217c.506.117 1.005.246 1.503.383v-1.636l9.416-.096-.045 5.557c6.24 3.484 11.517 8.515 15.313 14.553l-.127-8.054 6.396-.067.11 10.662-4.892.013c.266.496.52.996.766 1.503l4.14-.013.13 11.31-.65.008c.386 2.277.59 4.614.59 6.993 0 2.33-.232 4.603-.604 6.838.09-.047.18-.11.273-.155.984-4.568 3.196-8.962 6.506-12.204.557-.543 1.142-1.055 1.748-1.532l-1.4.007-.032-11.207 11.635-.013v6.484c2.09-.465 4.22-.692 6.323-.692 4.295 0 8.48 1.682 11.68 4.053l.7-41.36-4.142-4.738-.285.007v.11l-8.783.214v-3.05l13.352-.28.124-7.26-5.334.06-.413-15.032-4.87-6.558zm37.013 0l1.554.487.148 4.4-1.878-.834zm-12.468 1.26l-.11 3.75-1.136.797-.057-3.86zm17.102.686l1.4.486-.073 4.177-1.437-.538zm-26.372.023l-.118 3.758-1.134.796-.058-3.87zm30.69 1.606l1.334.413.148 4.554-1.436-.694zm-24.72.28l-.12 3.76-1.134.794-.057-3.868zm11.236.84l1.474.708-.074 4.185-1.437-.685zm17.972.936l1.415.457.15 4.407-1.446-.737zm-32.053.664l-.11 3.75-1.144.796-.05-3.87zm8.953.007l-.118 3.75-1.135.795-.057-3.87zm9.814.19l1.474.708.074 4.25-1.503-.684zm4.886 1.798l1.48.48v4.103l-1.51-.537.032-4.045zm-26.844.074l-.118 3.758-1.134.796-.057-3.87zm9.203.177l-.11 3.75-1.143.795-.05-3.87zm97.848.735c.155.007.31.046.494.09 2.678-1.006 2.285 9.443 2.18 15.104l-4.766-1.21c.53-4.84-1.1-13.646 1.946-13.977.05-.003.097-.01.148-.007zm-18.01.08c.052.002.105.003.173.008 3.09.442 1.942 8.882 2.424 14.54l-4.362 1.377c-.242-4.935-2.048-15.562 1.614-15.917.057-.003.104-.007.155-.007zm-58.13.7l1.474.635.303 4.326-1.658-.612zm-24.434.525l-.12 3.758-1.134.795-.057-3.868zm28.515 1.333l1.415.678.074 4.113-1.223-.516zm-17.353.23l1.408.485v4.178l-1.363-.31zm-14.31.603l-.11 3.75-1.142.797-.05-3.87zm8.814.627l-.118 3.75-1.135.796-.057-3.862zm10.234.272l1.48.487v4.25l-1.656-.61zm-21.965 1.01l-.11 3.758-1.136.796-.058-3.87zm26.21.213l1.473.48v4.406l-1.356-.538zm-17.714.42l-.11 3.76-1.135.794-.057-3.868zm22.025 1.224l1.474.633v4.178l-1.357-.383zm-24.913 1.12l-.11 3.75-1.143.796-.052-3.86zm-2.918 2.048l-.11 3.75-1.136.797-.057-3.87zm14.325.376l1.554.634-.074 4.178-1.584-.612zm-5.284 1.194l-.118 3.758-1.135.796-.057-3.87zm10.257.007l1.554.633-.08 4.178-1.577-.61zm-22.438.177l-.118 3.75-1.135.796-.057-3.868zm8.923 1.304l-.117 3.758-1.134.796-.057-3.87zm18.208.11l1.253.553.302 4.105-1.437-.456zm-21.14 1.393l-.11 3.752-1.143.796-.05-3.87zm-2.867 2.256l-.118 3.75-1.135.796-.057-3.868zm14.766 1.577l1.48.486.15 4.325-1.51-.384zm-17.663.287l-.11 3.75-1.135.797-.057-3.87zm11.628.45l-.11 3.75-1.142.796-.05-3.86zm-33.157.074v3.315l-17.015.42v-3.265l17-.47zm76.427.265c.067-.002.127 0 .192.006 1.73.137 2.585 2.42 3.315 3.55l-4.93 5.093c-.363-2.913-1.197-8.14.81-8.563.217-.057.418-.087.613-.088zm-32.68.065l1.474.48.148 4.332-1.504-.39zm-64.564.08l.036 3.413-17.014.42.032-3.294zm83.464.51c2.07.023 1.013 7.658 1.29 12.033l-3.154.08c.32-4.782-.293-12.056 1.864-12.113zm-103.705.05l-.032 3.354-16.845.412.032-3.294 16.837-.472zm-20.235.15v3.698l-16.542.405V77.98zm109.468.227l1.48.487.15 4.33-1.51-.39zM92.056 77.9l-.032 3.677-15.99.39.032-3.706 15.983-.36zm164.71.007l7.922 3.13-7.597-1.598-9.232 9.078 21.42-5.667.575.23-24.957 7.19zm-53.23.066l-.118 3.75-1.135.796-.057-3.862zM72.7 78.43l-.052 3.618-16.004.39.03-3.58zm153.325.75l1.48.48.15 4.333-1.504-.39zm-25.208.37l-.095 3.78-.965.803-.045-3.898zm-177.65.833l-.128 38.677c.966-.91 1.987-1.76 3.057-2.55l-.036-35.06zm174.54.795l-.117 3.75-1.135.797-.057-3.86zm-168.424.95l-.28 32.467c1.026-.6 2.085-1.147 3.176-1.636l.045-29.69zm165.536.738l-.12 3.75-1.134.796-.057-3.868zm17.706.89l1.48.48.15 4.333-1.512-.39zm71.224.775c3.956.643 2.24 11.183 2.587 17.936 0 0-4.552 1.054-5.416 1.054.213-6.66-1.218-18.208 2.83-18.99zm-66.56.025l1.474.48.148 4.33-1.504-.39zm86.448.14c.074-.002.152-.002.23 0 3.557.347 1.786 11.828 2.26 17.935l-5.415-.65c.036-6.255-1.726-17.16 2.925-17.285zm-97.2.177l-.11 3.758-1.134.796-.057-3.87zm-3.13.832l-.118 3.758-1.135.796-.057-3.868zm18.31.214l1.48.48.15 4.332-1.51-.39zm-21.044.93l-.11 3.75-1.136.795-.057-3.87zm175.667.92l7.193 8.562-14.214-3.64.33-.236 13.02 3.405-6.72-7.186-4.068 2.218zm-178.503 1.01l-.118 3.75-1.136.796-.057-3.862zm-3.375 1.362l-.11 3.75-1.143.804-.058-3.868zm-23.44.273l.1 11.252-11.442-.11V90.722l11.333-.31zm-12.755.236l-.057 10.72-1.716.014.03-10.722 1.755-.013zm-5.394.035l.11 10.722-6.306.05V90.723l6.19-.037zm111.104.148c2.228-.003.788 8.218 1.047 12.608l-3.47.317c.252-4.494-.562-12.62 2.423-12.924zm-51.24 1.34l1.48.48.148 4.333-1.51-.39zM61.41 92.47l-.088 10.52-4.87.025.094-10.493 4.863-.052zm10.81 0l-.074 10.52-9.336.038V92.572zm-19.136.087l-.088 10.463-1.01.007V92.57l1.098-.012zm203.682.295c2.228-.003.795 8.298 1.054 12.688l-3.478.236c.253-4.494-.56-12.62 2.424-12.925zm-50.48.058l-.12 3.758-1.134.796-.057-3.868zm11.014.398l1.48.48.15 4.332-1.51-.39zm-14.22.583l-.12 3.76-1.134.794-.057-3.868zm18.885.443l1.473.48.155 4.33-1.51-.39zm27.53.383c2.226-.003.794 8.21 1.053 12.6l-3.47.324c.252-4.494-.57-12.62 2.416-12.924zm-49.15.774l-.11 3.75-1.135.796-.057-3.87zm-3.065 1.363l-.118 3.75-1.134.796-.058-3.87zm-3.102 1.024l-.11 3.75-1.136.796-.057-3.868zm123.254.147c.074-.007.162-.003.243 0 1.788.107 1.292 4.703 1.377 7.11l-3.315-.08c-.032-2.407-.574-6.835 1.694-7.03zm53.276.56c.045-.002.087 0 .127.007 1.733.674 1.525 7.538 1.776 11.79l-3.064.082c-.064-4.818-1.03-11.82 1.046-11.87.032 0 .074-.004.118-.008zm-10.457.413c3.847-.052 2.158 7.635 3.23 11.466l-4.768.405c-.138-4.787-2.022-11.84 1.54-11.87zm-125.375.236c1.835.273.81 7.84 1.134 11.878l-3.316.326c.293-4.54-.64-12.046 2.18-12.203zm141.366 0c2.125.165 1.523 7.23 1.785 11.15l-2.83-.082c-.178-4.264-1.206-10.982 1.046-11.067zm-48.595.472c.07-.002.15 0 .216.013 1.494.146.708 5.96.804 8.968l-2.18.08c-.085-3.935-.704-8.846.97-9.048.058-.007.122-.013.193-.013zm54.174.987c1.893-.096 1.195 6.074 1.775 9.528h-3.47c.054-4.25-.855-9.544 1.532-9.447.067-.017.1-.078.162-.08zm-169.405.464l1.474.48.147 4.332-1.504-.39zm-6.13.118l-.118 3.75-1.135.797-.057-3.86zm140.96.14c3.04.29 2.803 5.697 3.066 10.987h-4.766c.35-3.898-1.72-10.156 1.702-10.986zm-10.426.405c.117 0 .262.023.404.08.924-.083.7 6.107.81 9.454h-2.26c.13-3.638-.73-9.564 1.045-9.535zm-119.29.132l1.473.48.154 4.332-1.51-.39zm-57.963 1.06l11.444.015.163 10.758-11.59.125zm62.28.075l1.48.48.15 4.332-1.512-.392zm-63.768.066l.063 10.7-1.776.006.032-10.693 1.686-.013zm44.77.066l-.117 3.75-1.135.796-.057-3.87zm-2.954.677l-.118 3.758-1.135.796-.057-3.867zm-127.676.494l-.074 10.53-9.336.037V104.5zm125.06.988l-.118 3.75-1.134.797-.058-3.86zm-3.007.818l-.11 3.75-1.135.797-.057-3.87zm98.04.31l36.025 4.12.486 3.64c22.77.933 46.66-.192 70.525-.325l.08 1.128c-23.762.174-47.57.755-71.41.162l-.728-3.795-34.98-3.957-14.464 2.1-4.517-2.02-44.27 6.942-.08-.722 44.587-7.19 4.443 1.937zm-79.787 3.853l1.48.486.15 4.333-1.512-.392zm-6.566.08l-.118 3.75-1.135.797-.057-3.86zm11.57.833l1.473.48.154 4.332-1.51-.39zm-15.136.81l-.11 3.76-1.143.795-.05-3.87zm-2.955.686l-.112 3.75-1.142.795-.05-3.86zm-2.727 1.023l-.118 3.75-1.135.797-.058-3.87zm-2.963 1.025l-.11 3.75-1.135.796-.058-3.87zm-35.48.545l-.036 11.29-1.893.012.032-11.297 1.91-.007zm142.12 2.535h3.558c-.057 1.806-.118 2.933-.08 4.524l-3.398.08zm18.258.648h3.47c-.056 1.806-.035 3.015 0 4.605h-3.47zm-113.012 1.702l-.11 3.75-1.136.797-.057-3.862zm6.89.007l1.48.48.15 4.332-1.512-.39zm5.342.457l1.48.48.15 4.332-1.512-.39zm-15.216.28l-.118 3.75-1.135.797-.058-3.863zm-3.213.295l-.112 3.75-1.142.796-.05-3.86zm62.743.162l-.082 3.72-5.01.398.162-3.066zm-65.817.478l-.11 3.758-1.136.795-.057-3.867zm-2.837.508l-.12 3.75-1.133.796-.058-3.868zm182.475.147v3.228l-4.524.082-.08-3.227zm-43.142.406l.16 2.578h-2.26v-2.498zm10.58.802l.082 2.586h-2.18v-2.505zm-96.933.08l-.162 3.56-3.478.08.08-2.91zm106.955.082l.162 2.586h-2.262v-2.505zm-121.5 1.533l-.156 3.478-2.91.162.16-2.992zm-19.373 4.664l1.687.753-.102 10.36-1.695-1.06zm23.388 13.3c.032.032.067.054.094.083.032-.014.032-.024.045-.037z" fill="#072b61"/><path d="M267.687 129.93c-3.808 0-6.462 2.98-6.462 6.7v15.31c-2.308-1.902-5.12-3.647-10.663-3.647-11.25 0-19.94 10.345-19.94 23.33 0 12.99 8.69 23.32 19.94 23.32 4.88 0 8.18-1.4 11.083-4.965.904 1.986 2.895 4.14 6.042 4.14 3.798 0 6.448-2.984 6.448-6.705V136.63c0-3.72-2.65-6.7-6.448-6.7zm-93.567.84c-7.938 0-13.396 6.036-13.396 13.89v5.792h-1.488c-4.135 0-6.78 1.818-6.78 5.954 0 4.14 2.645 5.96 6.78 5.96h1.488v25.887c0 3.72 2.646 6.69 6.455 6.69 3.803 0 6.454-2.97 6.454-6.69v-25.886h3.55c4.135 0 6.78-1.82 6.78-5.96 0-4.137-2.645-5.955-6.78-5.955h-3.55v-3.55c0-3.313.983-4.224 2.97-4.224 4.052 0 6.116-1.904 6.116-5.96 0-4.88-4.63-5.947-8.6-5.947zm161.262 15.924c-13.304 0-20.757 11.618-20.757 24.125 0 12.506 7.453 24.124 20.757 24.124 13.304 0 20.75-11.617 20.75-24.125s-7.447-24.126-20.75-24.126zm-36.725.155c-14.32 0-21.214 11.587-21.214 24.05 0 12.47 6.895 24.044 21.214 24.044 8.048 0 12.387-3.18 12.387-6.094 0-2.125-1.238-3.27-3.014-3.27-2.474 0-3.885 2.65-9.373 2.65-9.627 0-13.433-9.37-13.433-17.33 0-7.953 3.806-17.33 13.433-17.33 5.31 0 6.46 2.475 9.462 2.475 1.854 0 3.19-1.682 3.19-3.27 0-3.183-4.687-5.926-12.653-5.926zm64.505 2.247c-2.28 0-3.714 1.515-3.714 3.964v37.927c0 2.445 1.435 3.957 3.714 3.957 2.27 0 3.706-1.51 3.706-3.957v-24.44c0-7.844 5.473-11.047 10.368-11.047 4.886 0 10.368 3.204 10.368 11.046v24.44c0 2.446 1.433 3.958 3.714 3.958 2.267 0 3.698-1.51 3.698-3.957v-24.862c0-12.642-8.68-17.028-15.592-17.028-4.465 0-9.097 1.69-12.386 5.902l-.172-.17v-1.77c0-2.448-1.436-3.963-3.706-3.963zm-169.44.03c-3.804 0-6.45 2.978-6.45 6.698v21.914c0 11.916 9.267 17.205 20.014 17.205 10.754 0 20.02-5.29 20.02-17.206v-21.915c0-3.72-2.65-6.698-6.454-6.698s-6.447 2.978-6.447 6.698v20.102c0 4.878-3.724 7.103-7.12 7.103-3.39 0-7.11-2.225-7.11-7.103v-20.102c0-3.72-2.645-6.698-6.454-6.698zm141.66 4.31c9.584 0 12.947 9.403 12.947 17.383 0 7.984-3.364 17.39-12.948 17.39-9.582 0-12.946-9.406-12.946-17.39 0-7.98 3.364-17.382 12.946-17.382zm-83 7.266c5.698 0 8.843 4.97 8.843 10.92 0 5.955-3.145 10.913-8.842 10.913-5.708 0-8.858-4.958-8.858-10.913 0-5.95 3.15-10.92 8.858-10.92z" fill="#0956a4"/><path d="M110.95 100.243c-18.302 0-33.137 14.836-33.137 33.136v26.718c0 3.527 2.89 6.418 6.418 6.418h26.72c18.3 0 33.136-14.832 33.136-33.137 0-18.3-14.836-33.137-33.137-33.137zm-67.394 19.873c-12.535 0-22.703 10.167-22.703 22.702 0 12.533 10.17 22.696 22.703 22.696h18.296c2.417 0 4.4-1.982 4.4-4.4V142.82c0-12.535-10.165-22.702-22.696-22.702zm37.698 58.44c-2.417 0-4.392 1.98-4.392 4.4v18.296c0 12.534 10.164 22.695 22.695 22.695 12.537 0 22.703-10.16 22.703-22.695 0-12.538-10.166-22.696-22.703-22.696H81.254zm-48.854.472c-17.897 0-32.4 14.506-32.4 32.4 0 17.885 14.503 32.4 32.4 32.4 17.894 0 32.4-14.515 32.4-32.4v-26.13c0-3.448-2.83-6.27-6.28-6.27H32.4z" fill="#072b61"/><path style="line-height:125%;-inkscape-font-specification:Comfortaa" d="M222.59 207.972c-.38 0-.706.137-.98.412-.264.264-.4.58-.4.958v24.766c0 .38.136.705.4.98.275.264.6.39.98.39.377 0 .693-.126.957-.39.276-.275.412-.6.412-.98V215.17l9.733 19.47c.276.56.702.84 1.275.84.55 0 .946-.225 1.187-.672l9.815-19.637v18.938c0 .38.135.705.397.98.276.264.602.39.98.39s.695-.126.958-.39c.276-.275.413-.6.413-.98v-24.766c0-.378-.138-.694-.413-.958-.262-.275-.58-.412-.958-.412-.55 0-.96.24-1.223.722l-11.156 22.334-11.163-22.334c-.263-.482-.666-.722-1.216-.722zm39.886 0c-.378 0-.695.127-.958.39-.172.172-.293.36-.36.568l-9.566 24.59c-.08.17-.118.37-.118.588 0 .378.128.705.39.98.276.264.602.39.98.39.38 0 .705-.126.98-.39.13-.137.226-.29.297-.45l3.427-8.783h9.867l3.42 8.784c.066.16.17.31.308.448.263.264.588.39.966.39s.702-.126.965-.39c.276-.275.413-.602.413-.98 0-.218-.047-.417-.128-.59L263.8 208.93c-.066-.207-.184-.396-.346-.568-.275-.263-.6-.39-.98-.39zm15.135 0c-.377 0-.704.137-.98.412-.262.264-.398.58-.398.958v24.766c0 .38.135.705.4.98.275.264.6.39.98.39.377 0 .693-.126.957-.39.274-.275.412-.6.412-.98v-20.742l16.85 21.67c.288.3.632.443 1.033.443.378 0 .7-.128.965-.392.276-.275.413-.602.413-.98v-24.766c0-.378-.138-.694-.413-.958-.262-.275-.587-.412-.965-.412s-.705.137-.98.412c-.262.264-.398.58-.398.958V230.1l-16.815-21.635c-.297-.332-.648-.493-1.06-.493zm34.39 0c-.378 0-.702.127-.965.39-.172.172-.293.36-.36.568l-9.565 24.59c-.08.17-.118.37-.118.588 0 .378.135.705.398.98.275.264.602.39.98.39s.705-.126.98-.39c.128-.137.22-.29.286-.45l3.426-8.783h9.867l3.425 8.784c.067.16.172.31.31.448.263.264.58.39.958.39s.702-.126.965-.39c.276-.275.413-.602.413-.98 0-.218-.035-.417-.117-.59l-9.565-24.588c-.067-.207-.178-.396-.34-.568-.275-.263-.6-.39-.98-.39zm25.856 0c-3.794 0-7.04 1.344-9.734 4.038-2.682 2.682-4.023 5.925-4.023 9.72 0 3.793 1.34 7.032 4.022 9.725 2.694 2.683 5.94 4.024 9.734 4.024 3.21 0 6.095-1.02 8.65-3.06.264-.263.392-.586.392-.965V223.1c0-.38-.128-.705-.39-.98-.277-.264-.6-.39-.966-.39h-6.824c-.378 0-.705.136-.98.412-.262.263-.398.58-.398.957 0 .378.135.704.398.98.276.263.602.397.98.397h5.43v6.293c-1.82 1.307-3.92 1.96-6.292 1.96-3.037 0-5.633-1.07-7.788-3.213-2.144-2.155-3.213-4.75-3.213-7.788 0-3.04 1.07-5.63 3.213-7.775 2.155-2.155 4.75-3.235 7.788-3.235 2.59 0 4.857.777 6.794 2.336.276.275.602.413.98.413s.694-.128.958-.392c.276-.275.413-.602.413-.98s-.126-.705-.39-.98c-2.555-2.098-5.475-3.146-8.753-3.146zm13.477 0c-.378 0-.705.137-.98.412-.262.264-.39.58-.39.958v16.513c0 2.66.935 4.93 2.815 6.81s4.15 2.814 6.81 2.814c2.658 0 4.935-.936 6.814-2.816 1.88-1.88 2.815-4.15 2.815-6.81v-16.512c0-.378-.138-.694-.412-.958-.263-.275-.58-.412-.958-.412-.38 0-.705.137-.98.412-.263.264-.4.58-.4.958v16.513c0 1.903-.67 3.523-2.01 4.864-1.34 1.34-2.968 2.01-4.87 2.01-1.904 0-3.523-.67-4.864-2.01-1.34-1.342-2.01-2.962-2.01-4.865v-16.513c0-.378-.14-.694-.414-.958-.264-.275-.59-.412-.967-.412zm31.64 0c-.377 0-.7.127-.964.39-.173.172-.294.36-.362.568l-9.557 24.59c-.08.17-.117.37-.117.588 0 .378.128.705.39.98.276.264.603.39.98.39.38 0 .706-.126.98-.39.125-.137.226-.29.294-.45l3.42-8.783h9.873l3.42 8.784c.066.16.17.31.308.448.263.264.587.39.966.39.378 0 .694-.126.957-.39.278-.275.414-.602.414-.98 0-.218-.036-.417-.117-.59L384.3 208.93c-.068-.207-.185-.396-.347-.568-.276-.263-.6-.39-.98-.39zm-120.497 5.172l3.868 9.955h-7.737l3.87-9.956zm49.524 0l3.87 9.955h-7.746l3.876-9.956zm70.974 0l3.87 9.955h-7.738l3.868-9.956z" font-size="92" letter-spacing="0" word-spacing="0" fill="#072b61" font-family="Comfortaa"/></svg>