<svg xmlns="http://www.w3.org/2000/svg" width="449.907" height="450.089" viewBox="-300 -300 449.90729 450.08936"><path d="M140.044-74.96c0 118.79-96.3 215.09-215.09 215.09s-215.09-96.3-215.09-215.09 96.3-215.09 215.09-215.09 215.09 96.3 215.09 215.09z" opacity=".96" fill="#002a80" stroke="red" stroke-width="19.82"/><path d="M-133.637-19.693c-10.84-7.915-23.305-7.4-27.842-47.156-.796-6.594-3.297-7.34-7.22-9.42l-2.716-66.937c-.053-10.872-4.058-11.31-11.228-4.383-3.742 3.62-8.802 9.203-12.07 17.205-5.47-.94-13.903 9.666-19.008 20.248-.682 4.705-.26 10.626.938 14.955-9.984 7.675-15.96 15.173-11.458 34.334-4.348-1.6-13.908 16.853-10.364 28.425L-220.894.23c-7.727-10.254-18.468 11.584 5.252 37.428l12.678 15.164c8.264 8.694 9.512 1.803 13.055 1.055-2.51 9.305-3.417 21.744 16.76 28.828 39.6 10.673 29.964-3.713 45.49-5.578z" opacity=".96" fill="#ffbd21" stroke="#fff" stroke-width="3.889"/><path d="M-193.004-129.262c-2.263 27.677 3.577 54.453 10.758 81.08 6.826 38.9 28.433 44.406 35.262 51.4" opacity=".96" fill="none" stroke="#fff" stroke-width="3.889"/><path d="M-211.33-94c.664 22.206 8.895 44.788 18.526 65.94-1.208 6.45-.614 12.204 2.39 18.13 11.268 20.79 25.194 27.234 39.047 34.065" opacity=".96" fill="none" stroke="#fff" stroke-width="3.889"/><path d="M-224.48-59.536c4.102 21.394 16.25 44.716 27.094 62.155l.597 17.33c13.382 16.526 27.796 26.022 43.83 24.505" opacity=".96" fill="none" stroke="#fff" stroke-width="3.889"/><path d="M-220.894-.37c4.7 12.54 13.028 20.04 19.723 25.302 1.302 12.002 3.683 21.85 8.166 27.492 15.823 16.54 34.85 21.78 49.008 18.527l.797-.597" opacity=".96" fill="none" stroke="#fff" stroke-width="4.672"/><path d="M-167.703-74.08c-6.315 3.852-11.748 12.577-14.346 26.52-3.253-.133-6.514 4.523-10.778 19.082" opacity=".96" fill="none" stroke="#fff" stroke-width="3.955"/><path d="M-191.61-10.728c-3.06.883-5.824 7.736-6.2 12.822" opacity=".96" fill="none" stroke="#fff" stroke-width="4.483"/><path d="M-196.988 18.557l-4.98 4.183" opacity=".96" fill="none"/><path d="M-200.815 24.535c-1.043-3.162 1.695-6.643 4.438-5" opacity=".96" fill="none" stroke="#fff" stroke-width="3.955"/><path d="M-10.263-21.287C.577-29.2 13.043-28.685 17.58-68.443c.796-6.594 3.298-7.34 7.22-9.42l2.716-66.938c.053-10.873 4.06-11.31 11.23-4.384 3.74 3.62 8.8 9.204 12.07 17.205 5.47-.94 13.9 9.667 19.007 20.25.68 4.704.258 10.625-.938 14.954C78.87-89.1 84.843-81.602 80.343-62.442c4.348-1.6 13.908 16.853 10.363 28.426l-13.71 32.65c7.726-10.25 18.466 11.587-5.254 37.43L59.065 51.228c-8.265 8.694-9.512 1.804-13.056 1.055 2.51 9.306 3.418 21.744-16.76 28.828-39.6 10.674-29.963-3.712-45.49-5.577z" opacity=".96" fill="#ffbd21" stroke="#fff" stroke-width="3.889"/><path d="M49.104-130.856c2.264 27.677-3.576 54.454-10.758 81.08-6.825 38.9-28.432 44.406-35.26 51.4" opacity=".96" fill="none" stroke="#fff" stroke-width="3.889"/><path d="M67.432-95.595c-.666 22.207-8.896 44.79-18.527 65.94 1.207 6.452.613 12.205-2.39 18.13C35.244 9.267 21.32 15.71 7.467 22.54" opacity=".96" fill="none" stroke="#fff" stroke-width="3.889"/><path d="M80.58-61.13c-4.1 21.395-16.248 44.716-27.093 62.156l-.598 17.332C39.51 34.883 25.094 44.378 9.06 42.86" opacity=".96" fill="none" stroke="#fff" stroke-width="3.889"/><path d="M76.995-1.963c-4.7 12.54-13.028 20.038-19.723 25.3-1.304 12.003-3.685 21.85-8.168 27.493C33.282 67.37 14.254 72.61.097 69.357L-.7 68.76" opacity=".96" fill="none" stroke="#fff" stroke-width="4.672"/><path d="M23.804-75.673C30.12-71.82 35.55-63.097 38.15-49.155c3.253-.13 6.515 4.525 10.78 19.083" opacity=".96" fill="none" stroke="#fff" stroke-width="3.955"/><path d="M47.71-12.322c3.06.883 5.825 7.737 6.2 12.823" opacity=".96" fill="none" stroke="#fff" stroke-width="4.483"/><path d="M53.088 16.963l4.98 4.184" opacity=".96" fill="none"/><path d="M56.915 22.94c1.044-3.16-1.695-6.642-4.437-5" opacity=".96" fill="none" stroke="#fff" stroke-width="3.955"/><path d="M.987 27.04c0 40.746-33.032 73.778-73.78 73.778-40.745 0-73.777-33.032-73.777-73.78 0-40.746 33.032-73.777 73.778-73.777 40.747 0 73.78 33.032 73.78 73.78z" opacity=".96" fill="#002a80" fill-opacity=".961" stroke="red" stroke-width="18.573"/><path d="M-73.457-15.066l-38.558 67.177 78.074.593z" opacity=".96" fill="none" stroke="#fff" stroke-width="17.543"/><path d="M-227.325-182.004c2-2.033 4-4.065 5.998-6.098 7.607 2.36 15.31 4.534 22.924 6.887l-15.094-14.847 6.05-6.152 27.252 26.806-6.05 6.152c-7.55-2.318-15.195-4.46-22.738-6.784l14.947 14.703c-2.012 2.046-4.025 4.092-6.037 6.14-9.086-8.938-18.17-17.875-27.252-26.807M-197.778-209.068l7.3-5.594 23.288 30.39-7.3 5.595-23.288-30.39M-153.64-212.195c2.838-.422 5.686-.9 8.52-1.328.996 2.777 1.453 5.31 1.46 7.582.006 2.27-.54 4.258-1.513 5.986-.964 1.723-2.642 3.264-4.937 4.6-2.783 1.617-5.365 2.44-7.735 2.41-2.362-.035-4.992-.928-7.787-2.847-2.804-1.915-5.425-4.884-7.816-8.995-3.187-5.48-4.45-10.352-3.95-14.62.505-4.24 2.878-7.57 7.006-9.97 3.245-1.887 6.284-2.55 9.11-1.91 2.81.652 5.724 2.378 8.63 5.38-1.926 2.027-3.902 4.044-5.835 6.076-.83-.875-1.523-1.438-2.056-1.766-.888-.54-1.787-.794-2.676-.86-.895-.06-1.727.163-2.52.624-1.8 1.047-2.653 2.77-2.51 5.2.102 1.792.995 4.202 2.714 7.157 2.14 3.682 4.05 5.92 5.682 6.788 1.635.874 3.26.82 4.822-.087 1.527-.888 2.365-2.088 2.494-3.652.112-1.555-.224-3.463-1.1-5.77M-118.036-216.94l-9.876 3.382c.25 2.143.45 4.296.692 6.442l-8.855 3.032c-.686-13.265-1.155-26.575-1.84-39.84l9.468-3.242c7.59 10.9 15.368 21.708 22.957 32.61l-9.1 3.115c-1.143-1.838-2.302-3.663-3.446-5.5zm-4.49-7.213c-2.5-3.998-5.06-7.968-7.56-11.966.486 4.69.914 9.39 1.39 14.08l6.17-2.113zM-98.893-214.63l-3.62-38.117 15.222-1.446c2.823-.268 5.018-.178 6.562.315 1.543.493 2.887 1.51 3.942 3.122 1.045 1.607 1.727 3.64 1.956 6.055.2 2.105.02 3.956-.536 5.56-.54 1.606-1.42 2.934-2.544 4.022-.723.68-1.75 1.29-3.06 1.81 1.13.4 1.972.78 2.51 1.206.373.277.932.906 1.665 1.86.714.956 1.228 1.717 1.5 2.246 1.794 3.547 3.682 7.064 5.476 10.603l-10.314.98c-1.967-3.737-4.027-7.443-5.993-11.18-.753-1.457-1.416-2.38-1.934-2.787-.714-.537-1.492-.747-2.32-.668l-.807.076 1.47 15.47-9.176.87zm7.02-23.548l3.852-.366c.427-.04 1.218-.293 2.375-.744.583-.22 1.06-.655 1.38-1.34.307-.69.428-1.433.35-2.265-.117-1.225-.522-2.153-1.173-2.746-.66-.597-1.834-.827-3.507-.668-1.34.128-2.672.254-4.013.38.246 2.587.49 5.172.736 7.75zM-43.72-220.588c-3.432-.493-6.882-.99-10.314-1.482-.772 2.02-1.563 4.03-2.326 6.05l-9.264-1.332c5.428-12.123 11.07-24.187 16.497-36.31l9.897 1.422c1.795 13.16 3.81 26.325 5.606 39.486l-9.53-1.37c-.172-2.154-.384-4.308-.566-6.464zm-.704-8.465c-.405-4.698-.878-9.398-1.284-14.096-1.702 4.396-3.47 8.774-5.163 13.17 2.145.31 4.3.62 6.446.927zM-9.828-218.48c1.08-2.424 2.157-4.85 3.238-7.28 4.32 1.922 8.63 3.84 12.95 5.76-2.21 4.972-4.423 9.944-6.637 14.922-3.415 1.098-6.285 1.557-8.544 1.512-2.25-.04-4.712-.663-7.322-1.823-3.22-1.43-5.55-3.312-6.916-5.623-1.383-2.32-2.06-5.145-1.908-8.423.136-3.292.993-6.768 2.606-10.395 1.696-3.816 3.806-6.843 6.27-9.162 2.45-2.287 5.236-3.595 8.222-4.033 2.318-.324 5.064.223 8.17 1.605 3.002 1.335 5.098 2.686 6.268 4.05 1.164 1.355 1.947 3.004 2.265 4.896.302 1.907.227 4.096-.294 6.583-2.968-.563-5.938-1.17-8.916-1.737.26-1.456.14-2.734-.336-3.78-.477-1.042-1.35-1.856-2.588-2.407-1.833-.815-3.664-.67-5.473.508-1.82 1.174-3.55 3.54-5.132 7.096-1.688 3.795-2.317 6.737-1.942 8.855.348 2.107 1.542 3.606 3.523 4.487.943.42 1.907.647 2.915.66 1.008.016 2.262-.124 3.718-.483l1.466-3.298-5.602-2.492M41.446-216.028l7.442 5.34c-4.434 6.18-8.87 12.36-13.307 18.546-1.323 1.846-2.78 3.403-4.387 4.724-1.61 1.327-3.37 2.24-5.165 2.79-1.833.558-3.472.68-4.86.434-1.93-.34-3.923-1.265-5.948-2.718-1.172-.84-2.378-1.863-3.62-3.05-1.24-1.22-2.11-2.463-2.572-3.77-.48-1.294-.71-2.792-.63-4.51.077-1.713.36-3.304.975-4.735.965-2.295 1.986-4.227 3.084-5.756l13.307-18.547 7.44 5.34-13.623 18.99c-1.22 1.7-1.788 3.28-1.748 4.762.018 1.467.704 2.656 2.008 3.592 1.28.918 2.627 1.188 4.03.774 1.39-.43 2.718-1.497 3.952-3.216 4.54-6.33 9.083-12.66 13.624-18.99M52.837-165.43l-7.797-6.927c-1.75 1.266-3.517 2.507-5.275 3.766l-6.99-6.21c11.21-7.126 22.56-14.09 33.77-21.215 2.49 2.214 4.99 4.434 7.482 6.648-5.756 11.97-11.335 24.06-17.083 36.038-2.4-2.13-4.798-4.262-7.197-6.393 1.043-1.893 2.054-3.807 3.09-5.707zm4.078-7.45c2.243-4.15 4.446-8.327 6.69-12.477-3.837 2.735-7.724 5.414-11.567 8.143l4.877 4.333z" opacity=".96" fill="#fff" fill-rule="evenodd"/><path d="M-147.644-60.632l12.25-10.06.2-44.575c4.536-4.23 10.69-8.186 17.083-10.56l.348-14.193c-7.116 1.414-12.504 5.224-18.328 8.965l.1-18.776c7.452-6.03 16.597-9.028 23.21-11.407l.198-12.7c-10.664 2.857-27.36 9.11-36.01 16.984zM-76.41-178.898c-12.248.03-24.847 7.734-24.474 22.104l-1.133 69.958 11.845.103.31-43.322 24.946-.185.33 43.446h10.814l-.04-71.05c.104-14.34-11.095-21.082-22.6-21.054zm.102 13.555c4.364-.037 8.594 1.978 10.897 5.953l.246 15.842-23.463-.165.556-15.285c2.9-4.225 7.397-6.308 11.762-6.345zM-37.08-172.094l-1.36 87.034c6.587 1.787 9 3.954 11.57 6.107l.15-54.294C-18.157-116.515-12.462-93.57-6-72.287c2.98 1.84 6.23 4.48 9.96 8.567l.398-89.847c-2.513-3.668-5.55-6.55-9.562-7.968l-.2 45.62c-8.985-25.41-16.94-55.2-31.675-56.18z" opacity=".98" fill="red"/></svg>