<svg xmlns="http://www.w3.org/2000/svg" width="400" height="78.49"><path d="M106.542 1.788c37.918-.497 75.84-.96 113.76-1.463 6.09-.093 12.19-.05 18.273-.325 2.52.108 4.52 1.824 6.66 2.968 6.5 3.552 13.12 6.908 20.02 9.587l.352-.252.222.505c4.53 1.478 9.116 2.75 13.723 3.938 8.716 2.275 17.48 4.35 26.22 6.523 2.133.694 4.338 1.118 6.49 1.762.47-.006.49.48.574.822-1.792.527-3.66.666-5.497.912-.027 6.58-.206 13.158-.256 19.735l.5.314c.177 2.354-.097 4.73.057 7.09-.77.646-1.806.62-2.735.803-8.4 1.414-16.81 2.796-25.208 4.226-6.09 1.643-12.412 2.27-18.703 2.18-6.48-.145-12.966-.097-19.448-.12-30.473-.23-60.95-.215-91.423-.435-12.758-.06-25.52.012-38.275-.313-3.252-.1-6.523.133-9.754-.304-5.13-.077-10.26.016-15.387-.11-.203-13.067-.468-26.13-.678-39.198-1.07-.24-1.878-1.045-2.783-1.62-.363-.186-.504-.563-.604-.94 4.692-2.696 9.382-5.453 13.67-8.8 2.043-1.587 4.054-3.282 5.628-5.37.49-.64.82-1.392 1.354-1.994 1.073-.177 2.163-.087 3.248-.12" fill="#201b19"/><path d="M226.186 1.255c4.006-.19 8.035.148 12.026-.346-.04.174-.127.523-.168.697-.327-.114-.645-.26-.946-.418-.684.336-1.338.75-2.066.98-.743-.063-1.262-.824-2.028-.82-.887-.035-1.837-.074-2.632.393-.65.28-1.41.912-2.084.36-.782-.553-1.698-.836-2.65-.77-1.097-.03-1.925.9-2.98 1.012-.83-.473-1.654-1.078-2.656-.97-1.22-.162-2.114.9-3.26 1.042-.767-.358-1.433-1.026-2.33-.987-1.24-.24-2.3.536-3.32 1.123-.61-.214-1.142-.59-1.722-.86-1.365-.47-2.786-.077-3.99.634-1.12.602-1.923-.918-3.052-.783-1.082-.177-2.01.446-2.942.88-.763.41-1.432-.302-2.075-.62-.863-.17-1.732-.293-2.614-.218-.66.458-1.37.837-2.122 1.105-.54-.38-1.093-.74-1.69-1.013 1.755.09 3.497-.172 5.245-.217 2.546.256 5.107.012 7.663.066 7.463-.08 14.927-.253 22.393-.27M172.916 1.866c1.35.067 2.7 0 4.053-.015-.68.34-1.34.754-2.073.962-.766-.003-1.338-.602-1.98-.946M178.826 1.785c1.365.072 2.73.01 4.098.006-.702.34-1.37.763-2.11 1-.682-.295-1.318-.686-1.988-1.005M184.934 1.782c1.356-.048 2.715-.057 4.074-.018-.78.29-1.524.665-2.297.966-.588-.328-1.172-.66-1.776-.948M137.56 2.42c1.31.003 2.68-.274 3.964.012-.115-.006-.348-.02-.465-.03-.582.322-1.16.683-1.814.825-.634-.078-1.14-.512-1.686-.807M143.15 2.417c.302-.454.865-.358 1.316-.244.976.27 1.97-.012 2.948-.087-.44.49-1.123.626-1.69.912-.683.385-1.352-.114-1.892-.506l-.68-.075M149.533 2.225c1.185-.06 2.376-.043 3.564-.058-.77.407-1.58 1.126-2.506.798-.38-.208-.715-.48-1.057-.74M155.416 2.152c1.215-.033 2.426-.057 3.64-.048-.668.364-1.332.774-2.08.92-.6-.104-1.06-.553-1.56-.872M161.326 2.065c1.21-.01 2.42-.063 3.63-.003-.688.38-1.375.807-2.165.918-.538-.21-.99-.59-1.464-.915M167.17 2.014c1.26-.018 2.525-.036 3.786-.087-.725.373-1.43.948-2.278.94-.572-.14-1.03-.53-1.51-.853M119.523 2.583c1.082.024 2.164.01 3.246-.033-.585.307-1.142.728-1.808.812-.563-.054-.982-.484-1.44-.78M125.427 2.513c1.07-.024 2.14-.03 3.213-.024-.492.303-.975.653-1.54.782-.662.09-1.154-.44-1.673-.76M131.072 2.393c1.23.07 2.46.018 3.693.057-.642.274-1.267.62-1.95.762-.635-.127-1.177-.527-1.743-.82" fill="#fff"/><path d="M198.47 3.4c1.217.245 2.213-.586 3.29-.986.79-.144 1.29.71 2.015.873.92.133 1.9.09 2.72-.406.63-.273 1.37-.863 2.046-.38.71.45 1.455.923 2.333.844 1.276.13 2.217-.94 3.434-1.1.967.98 2.335 1.148 3.63.917.116.097.35.293.464.392l-.347-.087c-.533.29-1.08.548-1.636.785-.816-.472-1.618-1.147-2.62-1.038-1.2-.17-2.15.716-3.236 1.032-.9-.277-1.618-1.1-2.632-.987-1.397-.28-2.473.822-3.773 1.07-.663-.44-1.305-1.067-2.15-1.016-1.172-.207-2.165.522-3.19.943-.814.32-1.383-.57-2.108-.767-.91-.175-1.925-.295-2.777.16-.548.243-1.055.59-1.642.725-.498-.084-.878-.46-1.317-.677-.73-.43-1.618-.322-2.405-.168-.21-.093-.412-.187-.613-.286.68-.23 1.34-.54 2.002-.832 1.418 1.213 3.472 1.394 5.025.316 1.264-.972 2.216.8 3.49.677M218.646 2.827c.43-.27.893-.49 1.356-.702.524.298 1.03.647 1.58.897.837.223 1.757-.04 2.558.358-.586.26-1.143.58-1.762.74-.867-.366-1.636-1.15-2.647-.977-.327-.07-1.226.295-1.084-.316M223.91 2.935c.97-.172 2.037-1.3 2.972-.452 1.002.79 2.464.846 3.56.214.728-.352 1.654-1.005 2.388-.286 1.23 1.025 3.057.754 4.324-.077.36.093.73.18 1.1.268-.25.09-.5.178-.743.27-1.108.1-2.045.748-3.06 1.145-.77-.596-1.65-1.068-2.65-.98-1.228-.166-2.142.827-3.27 1.077-.65-.154-1.144-.64-1.755-.876-.736-.196-1.523-.247-2.254-.012-.206-.096-.41-.193-.61-.29M107.712 2.79c1.014-.063 2.034-.096 3.054-.07-.876.8-2.193.998-3.054.07M113.607 2.72c1.076-.068 2.155-.09 3.23-.07-.568.273-1.113.643-1.744.74-.584.063-1.026-.392-1.486-.67" fill="#fff"/><path d="M168.407 3.678c1.406.256 2.443-.97 3.79-1.09.708.52 1.456 1.14 2.394 1.018 1.21.145 2.13-.813 3.25-1.053.866.174 1.482 1.017 2.4 1.02 1.172.226 2.23-.385 3.235-.89.634-.353 1.185.273 1.736.508.897.615 2.02.07 2.975.47-.604.26-1.173.6-1.807.774-.825-.17-1.423-.972-2.314-.94-1.314-.303-2.42.558-3.563 1.033-.922-.186-1.612-1.138-2.637-.975-1.1-.166-2.03.46-2.972.91-1.125.502-1.856-.934-2.955-.865-1.39-.274-2.426 1.042-3.752 1.03-.793-.374-1.495-1.045-2.43-1-1.205-.078-2.122.86-3.25 1.096-.908-.235-1.592-1.123-2.603-1.01-1.23-.185-2.125.86-3.257 1.067-.852-.084-1.42-.996-2.323-.957-1.418-.29-2.547.795-3.864 1.072-.743-.446-1.448-1.108-2.373-1.04-1.2-.174-2.134.757-3.234 1.04-.997.003-1.63-1.147-2.677-.985-1.094-.108-2.005.57-2.963.97-.89.328-1.518-.61-2.313-.81-.935-.133-1.96-.298-2.818.204-.7.33-1.552 1.033-2.306.464-.673-.473-1.42-.894-2.27-.756-1.197-.07-2.063 1.07-3.24 1.05-.77-.38-1.456-1.035-2.367-.995-1.31-.145-2.3.966-3.557 1.077-.77-.34-1.412-1.065-2.32-.98-1.212-.194-2.167.72-3.263 1.022-.982.022-1.624-1.07-2.635-.966-1.306-.223-2.294.846-3.51 1.04-.862-.122-1.445-1.052-2.37-.983-1.427-.14-2.524.973-3.877 1.198.18-.334.374-.66.572-.98 1.005-.064 1.85-.61 2.738-1.018 1.1-.54 1.845.894 2.927.815 1.303.23 2.32-.76 3.514-1.047.875.09 1.45 1.005 2.367.966 1.317.233 2.42-.646 3.572-1.128.867.362 1.607 1.135 2.603 1.08 1.206.157 2.152-.728 3.242-1.056.976.03 1.633 1.108 2.665.964.993.147 1.854-.41 2.718-.81 1.143-.7 1.995.9 3.16.755 1.23.214 2.193-.692 3.304-1.017 1.21-.223 1.978 1.19 3.198 1.026 1.223.184 2.152-.785 3.272-1.053.934.15 1.62 1.1 2.635 1 1.21.18 2.152-.74 3.245-1.05.98-.006 1.604 1.135 2.642.972 1.322.24 2.29-.936 3.545-1.038.872.35 1.627 1.12 2.64.99 1.21.09 2.1-.924 3.246-1.075.83.207 1.43 1.04 2.34.97 1.225.257 2.19-.637 3.282-.992.982-.066 1.61 1.05 2.615.96" fill="#fff"/><path d="M234.168 4.828c1.394.187 2.473-.873 3.78-1.125.31.385.712.623 1.213.638l-.623.29c.282.31.58.614.884.91-1.36-1.052-3.3-.847-4.653.113-.708.52-1.41-.15-2.073-.397-1.288-.536-2.726-.193-3.87.527-.87.647-1.7-.226-2.47-.58-.716-.19-1.48-.197-2.21-.12-.797.263-1.466.892-2.318.97-.79-.355-1.46-1.098-2.396-.966-1.335-.286-2.335.9-3.58 1-.838-.398-1.614-1.08-2.6-.943-1.216-.135-2.13.834-3.264 1.027-.943-.46-1.837-1.152-2.96-.986-1.22-.172-2.095.98-3.248 1.044-.778-.343-1.435-1.017-2.337-.984-1.196-.187-2.172.614-3.23 1.002-.53.205-.94-.316-1.376-.527-.625-.47-1.44-.416-2.173-.425-1.09-.02-1.915.882-2.96 1.038-.827-.46-1.622-1.14-2.636-.97-1.212-.2-2.105.85-3.234 1.01-.88-.33-1.64-1.11-2.66-.958-1.207-.156-2.14.783-3.247 1.057-.875-.37-1.645-1.093-2.66-1-1.004-.135-1.85.51-2.725.885-1.173.64-1.966-.972-3.154-.824-1.333-.21-2.317.99-3.573 1.07-.857-.387-1.61-1.13-2.622-1-1.206-.11-2.072.974-3.228 1.055-.884-.358-1.656-1.155-2.685-.98-1.094-.106-1.916.755-2.92 1.008-1.012.135-1.622-1.078-2.642-.946-1.126-.168-2.08.488-3.054.93-1.074.41-1.79-.966-2.85-.87-1.343-.264-2.345.858-3.592 1.054-.825-.193-1.417-.972-2.3-.99-1.3-.226-2.345.716-3.515 1.08-.79-.105-1.338-.818-2.117-.954-.586-.072-1.182-.1-1.768-.063-.973.066-1.69.942-2.66 1.005-.815-.237-1.405-1.074-2.316-.99-1.105-.205-2.03.482-2.986.903-1.102.557-1.84-1.01-2.95-.834-1.215-.182-2.202.615-3.275 1.013-1.087.12-1.765-1.192-2.903-.958-1.39-.267-2.402 1.367-3.778.91-.67-.374-1.295-.946-2.115-.852-1.335-.238-2.287 1.113-3.572 1.04-.764-.336-1.41-1.04-2.308-.953-1.106-.1-2.025.575-2.986.993-.632.256-1.21-.14-1.717-.472.23-.22.457-.44.69-.658 1.303.322 2.494-.25 3.608-.852.823-.455 1.507.307 2.188.656 1.323.48 2.64-.115 3.797-.756 1.09-.532 1.82.95 2.9.84 1.323.214 2.352-.783 3.57-1.074.85.195 1.45 1.035 2.372 1.01 1.197.2 2.176-.607 3.24-.99.74-.255 1.294.482 1.928.738 1.29.497 2.605-.063 3.73-.704 1.086-.605 1.835.858 2.905.81 1.217.216 2.234-.554 3.3-.985 1.227-.373 2.02 1.087 3.214 1.002 1.376.21 2.42-.894 3.71-1.125.75.48 1.49 1.168 2.445 1.06 1.222.105 2.203-.74 3.29-1.157.838.42 1.596 1.168 2.595 1.084 1.21.162 2.137-.77 3.24-1.064.866.058 1.43.982 2.325.967 1.102.216 2.09-.346 3.03-.834 1.162-.7 1.97.96 3.154.772 1.11.202 2.043-.52 3.007-.94 1.09-.31 1.81 1.073 2.916.922 1.1.103 2.01-.565 2.98-.963 1.108-.408 1.804 1.1 2.93.874 1.235.2 2.24-.653 3.31-1.114 1 .304 1.798 1.213 2.906 1.108 1.206.154 2.16-.716 3.255-1.05.828.13 1.406 1.008 2.31.942 1.31.28 2.43-.545 3.58-1.01.925.14 1.603 1.14 2.63.95 1.145.18 2.1-.52 3.108-.928 1.052-.352 1.73.95 2.762.894 1.418.313 2.547-.722 3.832-1.09.8.534 1.63 1.19 2.658 1.045 1.223.128 2.13-.91 3.29-1.04.898.3 1.626 1.095 2.64 1.03 1.103.14 2.028-.528 2.98-.96.63-.245 1.138.303 1.66.562.55.352 1.226.322 1.85.313 1.092.01 1.896-.924 2.96-1.048.82.464 1.613 1.1 2.618.96 1.317.25 2.264-1.065 3.525-1.005.765.35 1.443 1.036 2.348.942 1.23.2 2.175-.773 3.3-1.035.956.062 1.59 1.18 2.63.998M245.4 4.317c.626.25 1.307.424 1.808.918.593.078 1.324.448 1.227 1.17.44.35 1.126-.044 1.636.247l-.683.86c-.826-.408-1.595-1.13-2.568-1.025l-.617.792c-.286-.327-.563-.66-.828-.998.165-.003.492-.012.657-.018.148-.235.295-.47.448-.707.357.195.767.46 1.19.274-.538-.68-2.02-1.535-2.475-.27-.144-.145-.43-.428-.572-.572l-.35.343c.16-.508.78-.643 1.126-1.013" fill="#fff"/><path d="M215.577 6.956c1.3.24 2.362-.623 3.517-1.032.867.13 1.462 1.01 2.393.948 1.415.277 2.544-.725 3.82-1.117.817.5 1.63 1.177 2.653 1.072 1.22.123 2.12-.936 3.278-1.08.864.373 1.607 1.143 2.624 1.01 1.33.19 2.334-.884 3.575-1.095 1.21.418 2.187 1.46 3.493 1.574l-.68.238c-.045.142-.13.428-.172.57-1.117-.016-1.842-1.15-2.98-1.045-1.297-.257-2.37.607-3.502 1.076-.975-.367-1.892-1.074-2.986-.948-1.19-.093-2.057.957-3.198 1.063-.925-.523-1.845-1.185-2.968-1.023-1.197-.18-2.058.975-3.198.975-.775-.41-1.504-1.044-2.438-.927-1.214-.183-2.146.7-3.23 1.033-.932-.187-1.625-1.102-2.64-.97-1.083-.162-1.985.488-2.917.913-1.007.38-1.66-.848-2.65-.83-1.422-.33-2.684.457-3.893 1.083-.94-.436-1.795-1.234-2.906-1.053-1.21-.127-2.11.957-3.265 1.014-.84-.418-1.624-1.068-2.614-.987-1.223-.214-2.184.68-3.27 1.04-.862-.128-1.463-1.016-2.377-.953-1.12-.19-2.137.304-3.086.83-1.032.573-1.77-.866-2.806-.77-1.11-.17-2.142.247-3.08.8-1.046.688-1.786-.775-2.83-.742-1.187-.25-2.24.382-3.262.88-1.088.598-1.804-.87-2.865-.8-1.324-.255-2.382.663-3.56 1.045-1.04-.16-1.81-1.225-2.95-1.002-1.016-.108-1.767.677-2.672.966-.7.28-1.22-.417-1.812-.664-1.324-.638-2.735.012-3.917.66-1.17.544-1.933-1.054-3.118-.834-1.418-.253-2.426 1.174-3.823.996-.667-.557-1.454-1.045-2.356-.945-1.206-.076-2.102.98-3.263 1.062-.804-.23-1.396-1.065-2.304-.96-1.21-.187-2.205.605-3.28.993-.526.12-.95-.277-1.375-.508-.706-.536-1.63-.452-2.457-.485-1.085.018-1.878 1.063-2.965 1.017-.778-.34-1.433-1.09-2.347-.97-1.22-.182-2.17.715-3.265 1.055-.952-.088-1.612-1.102-2.626-.988-1.097-.175-1.993.544-2.95.933-.783.36-1.407-.374-2.068-.666-1.252-.572-2.582.018-3.69.648-1.232.71-2.09-1.057-3.35-.804-1.316-.156-2.265 1.11-3.545 1.048-.77-.385-1.44-1.1-2.375-.948-1.32-.18-2.282 1.096-3.555 1.054-.78-.37-1.474-.942-2.36-1.036.352-.292.71-.587 1.063-.882.657.425 1.406.732 2.2.614 1.19.015 2.05-1.2 3.265-1 .784.272 1.423.985 2.325.87 1.117.172 2.002-.62 2.983-.995.982-.23 1.613.915 2.58.903 1.158.222 2.187-.37 3.177-.876 1.06-.563 1.766.9 2.806.833 1.106.19 2.08-.406 3.036-.876 1.167-.603 1.97.954 3.142.806 1.067.184 1.943-.51 2.868-.903 1.123-.54 1.863.957 2.995.837 1.21.244 2.16-.668 3.24-1.014 1.317-.235 2.204 1.312 3.54 1.05 1.194.027 2.09-1.02 3.257-1.08.84.424 1.618 1.134 2.632.975 1.215.127 2.093-.956 3.263-1.047.875.337 1.61 1.165 2.63.975 1.104.142 1.947-.71 2.943-1.008 1.014-.093 1.645 1.087 2.694.948 1.297.27 2.293-.824 3.5-1.044.928.247 1.638 1.16 2.687.978 1.22.172 2.093-.903 3.243-1.053.816.26 1.43 1.055 2.346 1.007 1.088.174 2.028-.452 2.965-.903.817-.455 1.5.376 2.205.674 1.247.464 2.535-.042 3.617-.695.843-.536 1.612.337 2.37.638 1.297.534 2.67.02 3.81-.655 1.11-.64 1.864 1.01 3.022.788 1.31.26 2.314-.734 3.5-1.056.9.337 1.665 1.12 2.702.98 1.212.176 2.134-.766 3.243-1.037.96.093 1.618 1.074 2.626 1.02 1.314.184 2.393-.695 3.555-1.153.834.458 1.618 1.195 2.64 1.06 1.112.144 2.008-.605 2.984-.994.978-.177 1.63.894 2.585.937 1.182.246 2.3-.23 3.295-.828 1.07-.584 1.813.97 2.915.794M247.55 7.116c.728.382 1.395 1.014 2.24 1.08.478.097.652-.403.91-.698 1.04.702 2.218 1.006 3.432 1.21-.126.277-.253.557-.374.837-.89-.295-1.627-1.062-2.61-1.005-.25.2-.456.433-.624.707-.72-.373-1.397-.86-2.193-1.038-.503-.046-.665.525-.97.8-.382-.29-.756-.59-1.124-.892l-.587-.04c.512-.11 1.03-.21 1.555-.29.086-.17.26-.503.345-.672" fill="#fff"/><path d="M209.393 9.166c1.227.123 2.25-.635 3.305-1.132.896.515 1.79 1.21 2.885 1.05 1.206.172 2.064-.972 3.204-1.005.796.34 1.486 1.035 2.415.932 1.134.193 2.1-.502 3.09-.942 1.05-.394 1.738.957 2.778.882 1.333.253 2.358-.776 3.58-1.065.992.262 1.788 1.216 2.91 1.026 1.218.066 2.144-.867 3.282-1.108.757.088 1.285.83 2.05.943.558.06 1.124.006 1.684-.046.4.256.814.5 1.268.657-.97-.218-1.754.568-2.674.682-.902-.28-1.627-1.078-2.63-1.005-1.208-.29-2.168.6-3.23.97-1.046.31-1.683-.904-2.682-.86-1.21-.186-2.202.6-3.26 1.027-1.008.205-1.612-1.014-2.62-.927-1.065-.174-2.11.103-3 .696-1.136.858-2.01-.876-3.2-.68-1.326-.308-2.337.758-3.536 1.01-.894-.32-1.66-1.08-2.674-.957-1.206-.16-2.13.774-3.234 1.05-.904-.3-1.64-1.113-2.67-1.004-1.315-.28-2.32.755-3.508 1.03-.837-.2-1.456-1.003-2.36-.958-1.315-.223-2.412.62-3.562 1.1-.925-.504-1.833-1.18-2.94-1.076-1.22-.184-2.15.77-3.264 1.048-.864-.377-1.62-1.126-2.632-.976-1.218-.186-2.155.735-3.258 1.042-.875-.325-1.618-1.114-2.626-.98-1.22-.21-2.158.727-3.25 1.058-.847-.2-1.46-1.042-2.386-.99-1.182-.22-2.21.44-3.22.942-1.11.4-1.856-.994-2.958-.876-1.094-.196-2 .524-2.962.9-1.094.524-1.813-.92-2.898-.858-1.317-.247-2.35.804-3.552 1.105-.65-.223-1.16-.726-1.798-.964-.572-.088-1.158-.088-1.724.01-.84.203-1.512.862-2.37.992-.934-.23-1.624-1.168-2.662-1.003-1.205-.16-2.113.82-3.233 1.04-.954-.12-1.618-1.128-2.652-.98-1.335-.268-2.276 1.068-3.552 1.04-.78-.372-1.468-1.067-2.394-.983-1.07-.11-1.957.578-2.89.975-.806.328-1.404-.47-2.08-.758-.686-.16-1.4-.214-2.1-.187-.947.196-1.737.804-2.636 1.132-.926-.504-1.828-1.278-2.95-1.07-1.088-.033-1.91.807-2.92 1.063-.945-.145-1.602-1.186-2.64-1.003-1.11-.15-2.013.584-2.986.98-.557.258-1.008-.203-1.456-.462-.9-.623-2.16-.632-3.113-.123-.624.283-1.22.74-1.938.686-.793-.27-1.418-1.022-2.314-.95-1.315-.21-2.317.852-3.537 1.11-.904-.523-1.827-1.28-2.94-1.035-1.083.084-1.914.912-2.954 1.09-.94-.17-1.62-1.138-2.65-.982-1.17-.27-2.193.377-3.228.81 1.035-.623 1.91-1.484 2.956-2.08 1.218-.205 1.978 1.198 3.205 1.006 1.416.263 2.445-1.338 3.836-.944.664.344 1.285.86 2.075.837 1.325.223 2.306-.98 3.56-1.074.85.393 1.617 1.166 2.63.974 1.204.123 2.088-.945 3.232-1.045.896.303 1.633 1.143 2.656.984 1.312.2 2.243-1.177 3.528-.99.77.385 1.46 1.07 2.388.92 1.32.214 2.272-1.186 3.57-.963.745.377 1.405 1.037 2.31.922 1.22.142 2.13-.864 3.27-1.086 1.113-.015 1.81 1.17 2.935 1.092 1.322.205 2.345-.834 3.557-1.16.81.492 1.6 1.19 2.614 1.064 1.095.114 1.97-.66 2.943-1.01 1.014-.15 1.65 1.067 2.682.94 1.303.223 2.323-.78 3.517-1.035.846.154 1.468 1.003 2.38.966 1.13.208 2.097-.487 3.082-.918 1.067-.448 1.748.897 2.782.846 1.32.287 2.364-.706 3.564-1.02.926.175 1.6 1.142 2.62 1.01 1.218.135 2.152-.777 3.25-1.115.948.19 1.62 1.17 2.67 1.018 1.205.168 2.148-.73 3.23-1.078 1.03.214 1.795 1.234 2.933 1.063 1.23.177 2.17-.753 3.28-1.05.835.192 1.436 1.06 2.367.96 1.112.2 2.11-.356 3.054-.87.725-.416 1.297.32 1.922.587 1.347.602 2.803.06 4.015-.62 1.16-.624 1.943.915 3.087.83 1.317.265 2.355-.7 3.534-1.065.912.25 1.622 1.116 2.645 1.014 1.306.17 2.287-.93 3.525-1.084.885.344 1.636 1.117 2.653 1.036M248.726 8.892c.72.382 1.383.987 2.223 1.057.447.038.63-.474.963-.694.775.33 1.423 1.06 2.328.99.29-.237.55-.514.82-.78.9.738 1.99 1.04 3.116 1.178-.014.32-.18.602-.28.897-.716-.366-1.37-.968-2.196-1.04-.536-.175-.754.367-1.005.716-.804-.46-1.606-1.01-2.56-1.018-.172.265-.34.527-.505.79-.767-.434-1.512-1.073-2.432-1.054-.298.23-.548.502-.84.73-.472-.267-.887-.616-1.282-.986.42-.033.843-.064 1.27-.09.094-.175.286-.524.38-.696" fill="#fff"/><path d="M208.786 11.198c1.33.244 2.358-.77 3.573-1.063.762.38 1.44 1.045 2.354.994 1.29.24 2.323-.736 3.502-1.037.854.325 1.577 1.057 2.558.96 1.235.202 2.226-.68 3.33-1.044.97.11 1.66 1.06 2.69 1.007 1.205.17 2.145-.764 3.24-1.07.957.023 1.605 1.11 2.622.974 1.326.242 2.382-.682 3.567-1.06.88-.035 1.48.916 2.364.94 1.34.3 2.452-.85 3.793-.56-.25.124-.5.25-.746.374.092.126.275.382.366.512-1.282-.16-2.217.927-3.425 1.044-.808-.3-1.456-1.044-2.37-.993-1.415-.31-2.57.692-3.81 1.177-.833-.476-1.628-1.2-2.65-1.09-1.207-.07-2.106.92-3.244 1.09-.898-.3-1.608-1.14-2.634-1-1.314-.277-2.337.726-3.52 1.078-1.2-1.13-3.077-1.43-4.497-.563-.58.282-1.316.815-1.914.3-1.168-.94-2.89-.963-4.133-.17-.536.242-1.206.733-1.757.272-.745-.51-1.586-.888-2.502-.785-1.21-.136-2.087.915-3.225 1.062-.78-.365-1.457-1.063-2.37-1.006-1.316-.163-2.353.78-3.544 1.138-.87-.617-1.813-1.213-2.924-1.117-1.214-.13-2.11.903-3.25 1.06-.827-.473-1.643-1.09-2.65-.97-1.118-.144-1.99.666-2.98 1.012-.877.027-1.45-.93-2.345-.912-1.388-.3-2.588.548-3.8 1.068-.836-.448-1.638-1.14-2.646-1.047-1.22-.142-2.177.734-3.277 1.08-.958-.102-1.618-1.107-2.635-1.008-1.315-.163-2.33.885-3.572 1.114-.793-.5-1.607-1.117-2.59-1.05-1.225-.145-2.106.996-3.28 1.062-.854-.422-1.626-1.186-2.658-.994-1.208-.14-2.07.943-3.222 1.045-.83-.226-1.438-1.075-2.367-.978-1.09-.154-2.017.47-2.96.91-1.123.516-1.825-1.004-2.936-.853-1.32-.26-2.317.843-3.537 1.08-.4-.08-.725-.35-1.067-.55-.985-.684-2.335-.617-3.337-.006-.692.316-1.556.936-2.258.31-.766-.672-1.768-.76-2.735-.723-1.114-.08-1.93.954-3.012 1.012-.88-.33-1.6-1.16-2.618-.973-.996-.087-1.81.54-2.682.903-1.094.533-1.813-.978-2.91-.836-1.317-.246-2.343.777-3.55 1.057-.933-.192-1.61-1.207-2.657-1.017-1.2-.118-2.116.81-3.23 1.044-.943-.117-1.603-1.092-2.614-.978-1.21-.15-2.155.756-3.258 1.054-.887-.025-1.46-.964-2.36-.946-1.51-.283-2.65.97-4.083 1.114-1.04-1.038-2.565-1.27-3.94-.936-.688.253-1.28.755-2.014.873-.565.102-.957-.406-1.396-.67.52-.305 1.034-.733 1.677-.655 1.23.12 2.132-.888 3.284-1.083 1.076.075 1.796 1.183 2.9 1.107 1.206.14 2.156-.713 3.243-1.053.997-.165 1.618 1.01 2.62.91 1.162.21 2.13-.515 3.134-.957 1.083-.4 1.758 1.05 2.843.894 1.134.183 2.09-.503 3.068-.954.717-.344 1.32.36 1.93.64 1.272.627 2.675.052 3.813-.616 1.208-.648 2.03 1.02 3.254.8 1.206.157 2.14-.752 3.228-1.083.952.15 1.618 1.132 2.653 1.008 1.11.175 1.995-.596 2.97-.972 1.32-.43 2.194 1.186 3.51.966 1.228.187 2.133-.837 3.262-1.044.922.16 1.6 1.143 2.62.978 1.046.144 1.913-.512 2.818-.918 1.067-.485 1.763.915 2.812.85 1.415.27 2.514-.826 3.83-1.097.74.43 1.443 1.08 2.354 1.04 1.282.13 2.32-.78 3.5-1.127.84.49 1.655 1.2 2.693 1.08 1.088.036 1.934-.752 2.933-1.038.96.036 1.606 1.074 2.617.96 1.336.27 2.317-.924 3.573-1.03.9.283 1.618 1.14 2.65.98 1.226.152 2.11-.952 3.278-1.058.887.334 1.624 1.117 2.64 1.033 1.032.144 1.93-.416 2.81-.873 1.114-.605 1.895 1.06 3.068.807 1.31.23 2.308-.778 3.5-1.088.842.466 1.653 1.147 2.687 1.01 1.206.134 2.108-.817 3.225-1.058.867.11 1.456.963 2.352 1.008 1.412.316 2.582-.668 3.838-1.117.805.527 1.63 1.16 2.647 1.057 1.126.153 2.004-.704 3.018-1.027 1.06-.024 1.778 1.126 2.883 1.003M244.29 10.18c1.08-.102 2 .572 3.04.723l-.045.09c.72.145 1.438.313 2.175.367l.33-.78c.846.464 1.654 1.08 2.66 1.114.158-.27.32-.54.49-.81.738.443 1.49.868 2.298 1.178.27-.295.524-.602.78-.915.832.436 1.64.993 2.61 1.032.08-.2.235-.597.315-.796.908.45 1.78 1.18 2.86.964.48.132.963.24 1.458.328-.353.36-.874.316-1.322.406l.123.43c-.883-.346-1.637-1.08-2.64-1.014-.13.172-.386.518-.515.69-.92-.452-2.4-1.716-3.05-.232-.83-.43-1.617-1.054-2.595-.985-.153.266-.307.534-.454.8-.917-.546-2.46-1.84-3.136-.326-1.616-1.072-3.446-1.812-5.38-1.96v-.304z" fill="#fff"/><path d="M232.385 13.067c1.39.148 2.455-.97 3.785-1.144.698.527 1.45 1.114 2.375 1.03 1.06.147 1.9-.61 2.845-.942.675-.297 1.232.527 1.925.262-.9.124-.363 1.08.224 1.25-.862-.223-1.73-.596-2.63-.42-.965.104-1.696.85-2.63 1.043-.843-.184-1.453-1-2.352-.982-.793-.084-1.642-.108-2.344.338-.583.24-1.11.81-1.78.696-.763-.39-1.46-1.036-2.37-.975-1.093-.12-1.978.627-2.94.997-1.036.322-1.658-.984-2.672-.897-1.15-.24-2.228.205-3.195.792-1.08.6-1.872-.934-2.99-.77-1.305-.206-2.416.565-3.525 1.125-.843-.46-1.638-1.17-2.664-1.054-1.197-.168-2.155.653-3.213 1.04-.758-.098-1.27-.823-2.028-.934-.625-.1-1.265-.128-1.884-.02-.82.22-1.497.807-2.33.982-.89-.268-1.59-1.123-2.595-.987-1.11-.145-2.007.59-2.98.978-1.026.307-1.645-1.01-2.668-.903-1.135-.202-2.22.192-3.19.764-1.163.74-2.03-1.05-3.274-.73-1.388-.323-2.352 1.11-3.705.983-.627-.524-1.36-.97-2.2-.933-1.192-.138-2.17.626-3.214 1.048-.937-.163-1.636-1.09-2.66-.96-1.325-.25-2.336.79-3.536 1.06-.922-.21-1.61-1.157-2.64-1.003-1.218-.176-2.123.865-3.26 1.043-.89-.06-1.46-1.02-2.385-.984-1.094-.218-2.03.462-2.972.896-1.084.542-1.842-.906-2.903-.83-1.32-.245-2.367.697-3.54 1.092-.837-.187-1.433-.98-2.317-1.018-1.312-.29-2.38.656-3.543 1.054-.964-.112-1.64-1.105-2.66-.994-1.216-.195-2.177.72-3.274 1.048-.972-.045-1.636-1.105-2.658-.98-1.312-.245-2.273.926-3.51 1.034-.65-.174-1.15-.67-1.778-.897-.672-.117-1.362-.144-2.04-.096-.91.222-1.666.94-2.62.995-.885-.4-1.68-1.168-2.727-.98-1.2-.094-2.06 1.098-3.243 1-.875-.336-1.627-1.137-2.65-.935-1.205-.08-2.09 1.002-3.24 1.066-.85-.404-1.608-1.14-2.622-.985-1.215-.15-2.1.962-3.26 1.025-.902-.28-1.63-1.12-2.65-.96-1.11-.14-1.955.737-2.96 1.023-1.093.072-1.798-1.207-2.94-.963-1.245-.11-2.153.906-3.317 1.114-.627-.164-1.128-.607-1.718-.856-.666-.184-1.368-.2-2.054-.184-.93.175-1.672.855-2.59 1.057-.665-.15-1.14-.693-1.76-.937-.514-.096-1.036-.102-1.552-.135.5-.295.994-.596 1.48-.918.634.39 1.288.855 2.07.798 1.208.19 2.116-.79 3.22-1.048 1.23-.12 2.02 1.273 3.276 1.07 1.208.104 2.107-.892 3.248-1.08.938.152 1.63 1.067 2.647.937 1.106.142 1.99-.61 2.963-.984.996-.322 1.62.966 2.617.9 1.41.277 2.53-.765 3.817-1.108.746.45 1.456 1.117 2.385 1.063 1.393.228 2.4-1.063 3.754-1.05.725.52 1.492 1.128 2.438.98 1.188.037 2.137-.82 3.24-1.137.842.46 1.635 1.177 2.658 1.095 1.206.08 2.108-.924 3.25-1.104 1.163.122 1.99 1.314 3.238 1.112 1.202.042 2.075-1.056 3.248-1.077.78.33 1.44 1.044 2.35.963 1.093.172 1.995-.527 2.95-.924.607-.367 1.143.226 1.67.47 1.29.845 2.875.243 4.084-.458 1.152-.668 1.948.915 3.1.786 1.315.255 2.288-.86 3.51-1.045.853.15 1.45.996 2.353.987 1.315.208 2.38-.73 3.567-1.116.84.478 1.65 1.162 2.68 1.065 1.08.103 1.93-.704 2.915-.993 1-.175 1.635 1.02 2.652.897 1.312.22 2.403-.653 3.56-1.12.938.476 1.823 1.25 2.943 1.123 1.205.126 2.107-.828 3.225-1.075.84.437 1.624 1.126 2.638 1.012 1.217.174 2.13-.837 3.257-1.04.893.293 1.62 1.103 2.626.982 1.22.147 2.16-.75 3.263-1.07.966.085 1.63 1.057 2.643 1.03 1.335.268 2.35-.812 3.573-1.077.88.325 1.603 1.156 2.62.993 1.108.133 2.007-.614 2.986-.996 1.082-.154 1.813 1.023 2.895.97 1.09.18 2.057-.392 3-.856.864-.542 1.518.506 2.31.7.903.152 1.888.158 2.707-.315.637-.275 1.386-.92 2.066-.386.905.735 2.132.87 3.228.593.802-.283 1.506-.837 2.367-.942.873.36 1.615 1.144 2.635 1.035 1.21.058 2.108-.984 3.278-1.074.864.34 1.6 1.098 2.597.98M248.732 12.59c.746.55 1.88.91 2.32-.203.758.442 1.492 1.017 2.405 1.05.254-.243.48-.514.68-.815.744.442 1.472 1.1 2.395 1.023.16-.187.474-.566.633-.755.43.198.87.388 1.315.568l-.516.35c-.53-.037-.934.26-1.07.776-.772-.424-1.518-1.044-2.44-.99-.27.205-.44.53-.75.662-.77-.42-1.502-.993-2.425-.948-.184.25-.375.49-.573.725-.542-.243-1.05-.56-1.562-.852-.142-.197-.28-.393-.413-.59M260.078 13.08c.772.457 1.54.932 2.423 1.14.186-.292.378-.587.573-.882.754.443 1.52.894 2.384 1.09.103-.145.316-.437.422-.584.995.403 2.01.764 3.055 1.023-.123.196-.224.398-.35.584-.764-.426-1.49-1.01-2.406-.98-.086.196-.257.584-.346.78-.778-.485-1.562-1.012-2.502-1.045-.16.286-.313.572-.463.858-.785-.47-1.554-1.087-2.515-1.02-.086.186-.254.562-.34.75-.29-.124-.58-.248-.863-.365-.138-.157-.418-.47-.557-.63.315.01.94.022 1.256.028.057-.187.172-.56.228-.747" fill="#fff"/><path d="M248.56 13.862c1.018.253 1.935.837 2.993.936l.498-.816c.874.476 1.723 1.17 2.784.988.047-.19.147-.57.197-.76.868.443 1.7 1.08 2.722 1.024l.354-.827c.973.445 2.38 1.78 3.163.34.6.277 1.122.746 1.78.9.527.253.786-.437 1.08-.735.752.434 1.486 1.006 2.403.97.333-1.35 1.403.066 2.14.168.575.265.855-.208 1.11-.665.667.406 1.334.84 2.11 1.01.14-.134.42-.405.562-.54.95.376 1.945.6 2.92.884.05.41-.123.595-.52.56-.69-.368-1.35-.825-2.153-.877-.082.2-.247.593-.33.79-.737-.36-1.406-.988-2.263-.958l-.56.734c-.74-.464-1.487-.982-2.395-.985-.074.196-.227.59-.3.786-.808-.448-1.592-1.04-2.562-.987l-.366.81c-.766-.382-1.48-.945-2.352-1.038-.24.24-.445.508-.616.8-.83-.487-1.65-1.104-2.66-1.002l-.306.8c-.778-.38-1.495-.97-2.385-1.023-.39.09-.53.52-.788.777-.76-.416-1.482-1.09-2.405-.985-.236.24-.46.485-.675.735-1.058-.608-2.102-1.243-3.18-1.815M219.436 15.096c1.488.358 2.676-.756 4.053-1.066.812.566 1.667 1.192 2.714 1.04 1.35.15 2.482-1.66 3.79-.733 1.412 1.186 3.337.636 4.764-.213.81-.545 1.503.225 2.204.563.513.183 1.07.204 1.607.304 1.228-.228 2.43-1.727 3.663-.77.746.442 1.57.725 2.337 1.13-.16.194-.31.393-.454.592-1.114.238-1.777-1.11-2.897-.918-1.098-.18-1.994.54-2.95.94-.904.405-1.517-.666-2.345-.802-.846-.117-1.772-.25-2.553.187-.62.312-1.205.688-1.866.908-.813-.497-1.615-1.186-2.63-1.096-1.225-.105-2.12.927-3.274 1.1-.887-.32-1.603-1.12-2.617-1.016-1.335-.32-2.36.813-3.59 1.006-1.04-.83-2.36-1.246-3.667-.843-.76.222-1.397.82-2.193.902-.864-.382-1.642-1.135-2.656-.966-1.2-.12-2.115.804-3.226 1.032-.84-.222-1.453-1.05-2.38-.978-1.183-.253-2.22.36-3.23.87-.8.427-1.435-.443-2.142-.68-1.26-.467-2.547.04-3.637.686-1.135.722-1.916-.906-3.072-.774-1.44-.39-2.567.75-3.876 1.01-.813-.465-1.603-1.082-2.597-.952-1.226-.202-2.143.794-3.266 1.038-.85-.394-1.63-1.09-2.626-.972-1.23-.193-2.178.72-3.278 1.062-.866-.4-1.645-1.128-2.667-1.023-1.318-.26-2.24 1.056-3.505 1.03-.91-.266-1.63-1.16-2.66-.96-1.228-.14-2.092 1.03-3.27 1.053-.797-.28-1.436-.955-2.31-1.003-1.302-.21-2.31.888-3.53 1.09-.875-.38-1.642-1.13-2.665-.993-1.217-.175-2.09.936-3.242 1.03-.854-.182-1.452-1.094-2.384-.976-1.09-.163-2.004.48-2.94.918-.794.415-1.44-.337-2.1-.65-1.24-.56-2.585.01-3.685.647-1.113.71-1.935-.815-3.044-.78-1.403-.25-2.502.844-3.805 1.124-.774-.632-1.667-1.144-2.693-1.102-1.338-.3-2.326.876-3.57 1.045-.807-.262-1.415-1.06-2.322-.987-1.082-.18-2.01.44-2.942.875-1.097.606-1.85-.96-2.954-.803-1.14-.205-2.105.463-3.09.918-1.064.454-1.765-.948-2.812-.864-1.317-.277-2.33.774-3.546 1.014-.866-.045-1.444-.984-2.35-.948-1.308-.277-2.36.662-3.52 1.057-1.04-.152-1.814-1.272-2.95-.995-1.096-.003-1.95.76-2.95 1.078-.887.084-1.465-.86-2.325-.92-.885-.08-1.857-.236-2.653.27-.72.367-1.613 1.065-2.358.355-1.153-.927-2.81-.867-4.006-.06-.7.512-1.556.478-2.28.045.538-.434 1.142-.78 1.847-.795 1.076-.02 1.874-.945 2.93-1.017.816.23 1.43 1.057 2.346.973 1.23.208 2.202-.704 3.313-1.032 1.203-.123 1.98 1.184 3.19 1.042 1.41.268 2.413-1.264 3.802-.972.684.322 1.294.912 2.104.86 1.306.19 2.302-.86 3.517-1.086.886.37 1.652 1.162 2.687 1.027 1.18.08 2.087-.85 3.19-1.09.925.257 1.615 1.205 2.673.985 1.214.175 2.13-.825 3.26-1.026.92.19 1.598 1.152 2.626.983 1.3.193 2.255-1.008 3.51-1.05.788.373 1.475 1.086 2.415.993 1.2.147 2.103-.843 3.217-1.03 1.164-.162 1.863 1.12 3.015 1.027 1.286.192 2.31-.76 3.464-1.153.922.494 1.816 1.276 2.933 1.075 1.113.036 1.935-.85 2.982-1.07.996.284 1.792 1.27 2.933 1.033 1.353.088 2.555-1.72 3.846-.737 1.298 1.13 3.12.6 4.44-.198 1.168-.773 2.005.985 3.2.783 1.1.144 2.003-.56 2.964-.963 1.034-.313 1.674.97 2.69.912 1.186.21 2.182-.536 3.22-.963 1.03-.355 1.677.904 2.673.88 1.115.21 2.108-.368 3.057-.864.808-.476 1.512.33 2.22.626 1.317.572 2.747.09 3.908-.62 1.044-.675 1.75.915 2.824.75 1.323.27 2.444-.516 3.587-1.04.935.19 1.613 1.175 2.665.994 1.093.2 1.998-.494 2.945-.915 1.117-.466 1.86.916 2.95.886 1.132.196 2.137-.4 3.104-.897.73-.474 1.36.318 1.987.61 1.24.533 2.644.12 3.743-.58 1.288-.826 2.22.992 3.537.776 1.203.237 2.134-.714 3.222-1.024.55-.1.95.434 1.424.64 1.294.73 2.812.215 3.994-.5 1.037-.733 1.804.817 2.862.694" fill="#fff"/><path d="M249.835 15.876c.993-.56 1.783.79 2.838.445l.52-.745c.79.43 1.673 1.402 2.628.863.057-.147.172-.436.228-.584.88.338 1.64.99 2.615 1.024.18-.292.365-.587.554-.88.9.462 2.326 1.762 2.977.275.277.126.825.376 1.1.503-.334.174-.67.34-1.006.496-.085.157-.26.47-.344.626-.157-.102-.466-.3-.62-.403-.21.123-.412.247-.613.37l.818.437c-.55-.03-1.1-.042-1.64-.1.013-.514.473-.866.723-1.282-.756-.165-1.434-.012-1.74.74-.817-.484-1.65-1.092-2.65-.92-.057.186-.17.562-.225.75-.875-.422-1.692-1.042-2.69-1.073-.116.21-.346.633-.46.843-.944-.596-1.964-1.03-3.01-1.384M231.19 16.935c1.195.18 2.23-.445 3.273-.915 1.105-.515 1.836.948 2.945.822 1.308.217 2.355-.726 3.522-1.138 1.16.78 2.485 1.415 3.91.96.04.13.122.386.164.512-.552.268-1.094.578-1.7.69-.865-.172-1.46-1.066-2.395-1.01-1.177-.186-2.135.582-3.16.997-1.132.226-1.855-1.104-3.007-.94-1.108-.225-2.04.44-2.962.937-1.167.653-2.004-1.032-3.212-.81-1.324-.228-2.28 1.054-3.546 1.027-.85-.452-1.648-1.096-2.668-.972-1.21-.217-2.14.728-3.234 1.03-.822-.26-1.438-1.084-2.37-.982-1.114-.16-2.11.37-3.056.882-.42.26-.89.078-1.24-.196-1.098-.868-2.686-.808-3.865-.15-.505.212-1 .637-1.575.483-.513-.225-.958-.584-1.474-.788-.96-.334-2.007.135-2.947-.26.693-.297 1.34-.76 2.093-.905.51 0 .902.4 1.338.62.64.445 1.447.4 2.184.376.976-.072 1.716-.85 2.662-1.032.828.234 1.43 1.074 2.364.972 1.32.307 2.332-.76 3.546-1.01.83.182 1.444 1.004 2.355.94 1.415.26 2.55-.77 3.84-1.134.726.448 1.407 1.135 2.327 1.053 1.196.214 2.163-.626 3.227-1.002 1.007-.117 1.623 1.093 2.66.942M171.36 17.513c1.456.307 2.665-1.68 4.04-.713 1.328 1.035 3.173.833 4.51-.067 1.18-.854 2.038.873 3.258.7 1.31.252 2.323-.72 3.5-1.067.707.283 1.308.82 2.068.97.67.105 1.336-.06 2-.16.04.85-1.165.87-1.687 1.228-.86-.39-1.655-1.08-2.65-1.002-1.08-.133-1.97.542-2.922.915-.708.27-1.244-.38-1.845-.635-1.174-.494-2.5-.157-3.567.457-.637.397-1.427.237-2.01-.178-.7-.482-1.57-.473-2.373-.39-.923.11-1.627.98-2.594.817-.89.09-1.484-.81-2.37-.79-1.295-.313-2.285.906-3.54.83-.876.116-1.466-.778-2.33-.75-1.506-.3-2.664 1.088-4.18.808-1.072-.924-2.635-1.02-3.846-.325-1.023.593-2.267.39-3.22-.238-1.558-.695-2.87.804-4.406.624-.834-.007-1.476-.766-2.325-.71-1.27-.176-2.293.958-3.564.74-.838.008-1.495-.645-2.32-.69-1.46-.03-2.692 1.035-4.19.722-.624-.36-1.296-.67-2.033-.638-1.554-.268-2.845 1.047-4.416.653-1.01-.88-2.498-.783-3.63-.217-.725.388-1.568.235-2.352.23-.602-.38-1.268-.675-1.99-.582-.943-.075-1.7.68-2.632.647-1.448.253-2.727-1.084-4.17-.445-.99.51-2.094.553-3.176.45-.92-.637-2.16-.703-3.162-.237-.785.38-1.67.33-2.512.286-.687-.13-1.306-.603-2.03-.497-1.015.003-1.91.656-2.94.55-1.585.17-3.133-.92-4.7-.295-1.354.557-2.854.395-4.19-.114-1.594-.135-3.086.792-4.713.51-.61-.31-1.276-.46-1.945-.564.418-.232.837-.464 1.26-.683 1.266 1.134 3.108.716 4.408-.14 1.265-.772 2.12 1.007 3.39.772 1.208.164 2.107-.847 3.23-1.055 1.112-.075 1.85 1.108 2.966 1.045 1.3.195 2.3-.795 3.49-1.078.955.19 1.68 1.078 2.714.97 1.094.096 1.975-.642 2.94-1.02 1.004-.176 1.65.95 2.637.91 1.13.257 2.11-.42 3.084-.884.846-.42 1.538.397 2.246.73 1.28.417 2.54-.18 3.664-.77.922-.466 1.69.446 2.46.832.502-.012 1.01.006 1.51-.05.96-.167 1.695-.992 2.694-1.028.785.322 1.42 1.03 2.318 1.02 1.217.205 2.163-.734 3.266-1.038 1.205-.235 1.984 1.15 3.19 1.014 1.33.26 2.287-.984 3.536-1.047.88.395 1.654 1.175 2.7.982 1.21.145 2.067-1.03 3.23-1.038.903.304 1.605 1.186 2.645.987 1.21.11 2.078-.968 3.24-1.056.82.253 1.45 1.04 2.37.973 1.317.237 2.313-.837 3.53-1.078.826.255 1.436 1.047 2.347 1.032 1.208.177 2.178-.663 3.257-1.02.984-.106 1.623 1.07 2.643.94 1.214.197 2.208-.586 3.272-1.013 1.07-.08 1.795 1.146 2.915.953M190.788 17.11c.586-.28 1.16-.617 1.792-.804 1.055.154 1.84 1.19 2.974 1.06 1.21.078 2.117-.91 3.257-1.105.45.163.84.45 1.254.687.858.578 1.987-.003 2.85.59-.604.262-1.193.545-1.795.798-1.082-.63-2.27-1.352-3.567-.96-1.076.198-2.167 1.466-3.225.575-1.005-.876-2.4-.362-3.54-.84M263.668 17.173c.77.49 1.094-.286 1.483-.713.752.46 1.486 1.038 2.418 1.002.138-.265.28-.533.424-.798.578.352 1.12.807 1.78 1.003.484.033.74-.42 1.012-.738.557.306 1.055.79 1.706.887.537.184.778-.43 1.088-.743.666.463 1.36.924 2.184 1.02l.268-.798c.59.313 1.16.687 1.8.888.443.205.732-.304.835-.668.684.292 1.303.855 2.082.813 1.476-.016 2.868.54 4.282.893-.154.16-.3.32-.446.475-1.002-.662-2.493-1.818-3.543-.623-.677-.367-1.337-.81-2.13-.8-.106.198-.32.593-.43.79-.708-.46-2.117-1.68-2.49-.218l-.422-.253c-.033.274-.027.55-.015.825-.528-.19-1.064-.33-1.592-.48.39-.244.788-.473 1.183-.717-.377-.08-1.13-.246-1.506-.328l-.425.762c-.683-.467-1.41-.885-2.23-1.008-.12.2-.352.607-.47.808-.6-.33-1.176-.74-1.836-.924-.522-.177-.675.54-1.123.602-.72-.304-1.368-.99-2.208-.788-.127.18-.377.54-.504.722l-.733-.3-.44-.597" fill="#fff"/><path d="M250.996 16.908c.85.46 1.686 1.078 2.706.95.1-.188.304-.57.407-.76.82.42 1.71 1.303 2.693.864.082-.157.245-.467.327-.62.49.273.98.56 1.456.86-2.057-.07-4.112-.1-6.17-.087-.606.015-1.19-.162-1.765-.322l.756-.072c-.103-.2-.307-.607-.41-.812M233.505 18.064c.622-.34 1.356-.47 1.954-.003-.655.064-1.31.064-1.955.004M239.368 18.046c.68-.443 1.51-.518 2.166.01-.722.053-1.447.065-2.166-.01M265.734 18.257c.086-.57 1.19-.277 1.038.237-.307.214-.92.175-1.038-.237M268.685 18.275c.303-.295.917-.106 1.046.292-.09.61-1.322.298-1.045-.292M233.555 19.01c7.372.026 14.744-.07 22.116.044 6.68.193 13.39.295 20.018 1.225 10.16 1.98 20.318 3.98 30.473 5.984-.046 6.718-.21 13.434-.247 20.153-.13.024-.392.066-.52.087-.025-2.667.05-5.334-.004-7.998-.93-.018-1.858.003-2.78.063-.02 2.78.08 5.562-.072 8.34-5.135.61-10.216 1.623-15.35 2.24-1.708.198-3.397.518-5.103.71-.036-5.63-.33-11.255-.392-16.884-.003-.656-.074-1.31-.165-1.953-1.586-.112-3.166-.337-4.755-.32.015 6.605.03 13.212.183 19.813-.823.05-1.645.094-2.464.142-.086-6.505-.16-13.01-.22-19.515-.057-.32.002-.93-.444-.96-1.824-.133-3.652-.238-5.476-.316-.124.13-.242.26-.357.39.106 6.885.147 13.77.218 20.657-3.295.17-6.59-.054-9.886-.045-5.574.035-11.15.008-16.725.035.088-7.27.492-14.54.436-21.81-7.407-.023-14.823-.008-22.23.09-.25 2.054-.154 4.125-.263 6.184-.22 5.195-.298 10.393-.495 15.586-4.578-.08-9.16-.072-13.736-.283-.448-4.892-.174-9.813-.257-14.72-.01-2.354-.01-4.71-.014-7.065-1.592-.225-3.2-.045-4.8-.07-3.95.08-7.905.01-11.85.167-.33 2.306-.028 4.675-.22 7-.11 3.72-.12 7.44-.165 11.16.024.885-.545 1.67-.442 2.565.62.472.127.69-.227.662-4.564-.063-9.127-.23-13.69-.26-.026-6.82.074-13.638.136-20.456-.056-.5.162-1.532-.643-1.343-5.597 0-11.195.04-16.792.067-1.146.006-2.298-.058-3.433.108-.248 7.062-.484 14.127-.672 21.192-4.212.018-8.42-.178-12.63-.226-.372-7.213.262-14.44.06-21.655-5.703-.043-11.41-.134-17.113-.092-.297 3.655-.22 7.327-.454 10.984-.032 2.914-.274 5.825-.177 8.742-.016.57-.11 1.132-.18 1.695-2.82-.14-5.655-.016-8.46-.272.17-4.5.14-9.007.362-13.507.006-2.214.173-4.427.07-6.64-6.68-.02-13.358-.13-20.038-.12-.194 6.656-.12 13.31-.197 19.973-1.922-.006-3.84-.136-5.763-.097-.212-9.41-.31-18.82-.51-28.23 1.008-.273 2.03-.556 3.09-.483 1.122-.094 2.178.653 3.304.325 1.71-.515 3.572-.464 5.28.045.786.168 1.535-.232 2.3-.355 1.074-.15 2.17-.076 3.23.14 1.3.338 2.566-.357 3.878-.246 1.282-.114 2.535.497 3.808.18 1.468-.294 2.992-.315 4.46-.01 1.185.2 2.328-.374 3.52-.248 1.193-.093 2.366.283 3.55.19 1.84-.38 3.724-.18 5.575-.036 2.057-.316 4.15-.26 6.207.006 1.948-.265 3.93-.374 5.883-.08 2.302-.185 4.728-.477 6.965.218l.115-.283c2.023-.437 4.133.11 6.182-.148 2.07-.238 4.147.15 6.216-.08 24.253-.107 48.518-.258 72.777-.363M276.947 18.81c.8.74 2.102 1.41 2.93.31.684.308 1.288.84 2.054.937.473.117.685-.434.97-.69.644.347 1.283.702 1.944 1.018l.77-.166c.08-.172.238-.52.317-.693.903.427 2.09 1.652 3.026.635 1.14.427 2.305.76 3.525.846-.273.29-.55.58-.807.876l-.37-.35c-.14.23-.275.458-.405.687l.504.212c-.566-.15-1.126-.31-1.68-.467.224-.205.354-.68.784-.24.14-.178.28-.353.427-.527-.545-.136-1.084-.265-1.633-.353-.232.59-.613.837-1.16.398-.29.05-.587.105-.87.15l.06.21c-.2-.053-.396-.104-.59-.153.385-.144.768-.307 1.146-.484-.54-.265-1.1-.38-1.683-.304-.118.144-.35.436-.47.58-.792-.29-1.494-.8-2.325-.99l-.54.386c-2.054-.47-4.126-.837-6.204-1.18.09-.217.186-.434.283-.648M293.168 21.75c.103-.146.21-.294.32-.44.452.104.912.204 1.375.3.026.12.082.358.112.48-.36-.116-.702-.26-1.03-.435-.144.16-.285.32-.424.48.638.28 1.29.553 1.976.697.133-.28.272-.557.41-.837.607.373 1.19.834 1.895 1.006.393-.084.747-.355 1.154-.373 1.795.777 3.8.717 5.618 1.448-.168.154-.333.31-.498.467-.68-.476-1.377-.948-2.2-1.1-.114.21-.344.624-.46.832-.836-.406-1.947-1.532-2.755-.5-.682-.153-1.295-.57-1.982-.647-1.485.166-2.894-.457-4.36-.58.28-.266.56-.534.85-.796" fill="#fff"/><path d="M302.38 24.226c.306-.265 1.048.045.957.48-.32.146-1.04-.038-.958-.48M304.876 24.933c.126-.82.784-.343 1.276-.177.083-.012.248-.04.33-.052l.4-.006c-.146.18-.158.362-.037.54.442.234.875-.44 1.353-.233.404.09.772.292 1.152.467-.616.072-1.226.15-1.82.298-.762-.617-1.767-.56-2.654-.837M123.243 28.277c5.256.037 10.508.067 15.764.112-.262 6.06-.065 12.142-.386 18.2-.547-.017-1.096-.03-1.644-.04.036-5.71.37-11.415.383-17.126-3.797-.144-7.606.006-11.405-.036-.31.075-1.023-.156-.976.39-.133 5.594-.06 11.2-.234 16.792-.71.04-1.42.07-2.13.094.212-6.13.447-12.258.627-18.387M156.345 28.973c5.56-.006 11.118-.057 16.678-.054-.104 8.8-.095 17.605-.22 26.404-.638-.05-1.275-.094-1.912-.13.167-8.17.426-16.333.612-24.5-5.362-.273-10.742-.165-16.106-.192-.395 8.09-.445 16.213-.693 24.313-.62-.054-1.235-.11-1.85-.17.217-8.514.58-17.024.76-25.54.9-.16 1.82-.13 2.732-.132M94.356 29.183c6.205.022 12.41.097 18.615.12-.135 8.336-.415 16.665-.604 24.997-.636.02-1.27.045-1.904.066.145-8 .445-16 .575-24.003-4.967-.18-9.936-.132-14.903-.147-.106 7.932-.174 15.863-.277 23.795-.537-.005-1.073-.014-1.607-.026.04-8.27.056-16.535.106-24.8M189.093 29.527c5.055-.036 10.113-.118 15.172-.13l.03 18.504c-.555-.01-1.112-.026-1.663-.04.203-5.68.274-11.362.45-17.04-1.13-.207-2.28-.083-3.42-.1-2.99-.01-5.98-.02-8.968.03-.068 5.71-.24 11.42-.22 17.133-.594.042-1.183.075-1.773.096.296-6.145.104-12.307.393-18.453M220.468 29.746c6.977-.033 13.954-.048 20.93-.057-.244 8.903-.483 17.804-.674 26.71-.69.05-1.38.095-2.064.137.14-8.516.44-17.026.616-25.535-4.943-.163-9.898.04-14.847.003-.814.03-1.663-.115-2.43.222-.056 8.402-.45 16.8-.566 25.2-.604-.04-1.205-.092-1.804-.152.307-8.84.587-17.685.838-26.53" fill="#fff"/><path d="M126.397 30.378c.162.003.483.006.646.006-.056.678-.136 1.358-.13 2.04.21-.658.118-1.437.54-2.01.415 1.063-.124 2.336.483 3.36-.522-.02-1.04-.024-1.557-.012.06-1.126.052-2.255.017-3.383M130.04 30.13c.516.273.407.863.422 1.35-.012.882-.053 1.767-.136 2.646-.277-.162-.563-.313-.81-.515-.104-1.163-.115-2.34-.03-3.508.416.918.11 1.983.442 2.93.056-.965.02-1.937.112-2.903M131.46 30.366c1.563.067 3.126.09 4.688.088-.053 1.17-.056 2.345-.06 3.516-1.58-.036-3.16-.06-4.74.015.048-1.207.028-2.414.113-3.62M127.894 30.37l.59-.01c.047 1.15-.13 2.345.248 3.456l-.77-.072c-.076-1.123-.056-2.25-.068-3.374M128.743 30.634h.555c-.048 1.105 0 2.213.06 3.318l-.52-.283c-.11-1.007-.033-2.024-.095-3.036M268.838 30.59c1.524.035 3.05.11 4.575.19.106 8.334.177 16.672.34 25.007-.555.1-1.104.196-1.65.292.004-8.083-.11-16.168-.11-24.25-.74-.17-1.492-.256-2.244-.247-.02 8.088-.028 16.176-.054 24.267.082.467-.115.753-.59.858-.115-8.705-.11-17.413-.268-26.12M102.244 31.032c.148-.02.44-.06.587-.082-.035 1.123.016 2.252-.11 3.366-.104.105-.31.316-.41.42-.15-1.23-.048-2.47-.066-3.704M104.028 30.926l.577.133c-.044 1.185-.06 2.374-.04 3.56l-.614-.13c-.037-1.19.033-2.378.077-3.564M97.183 30.947l.327-.015c-.02.684-.094 1.373-.01 2.056.122-.767.072-1.59.49-2.278.18.936.136 1.893.086 2.84l.17-.017c.166-.837.13-1.692.1-2.537l.8.16c.348 1.02.033 2.14.263 3.193-.735-.016-1.47-.01-2.203.017.026-1.14 0-2.28-.024-3.42M99.494 31.288c.428-.034.858-.034 1.288.01l-.06-.263c.33.003.99.003 1.316.003-.077 1.116-.077 2.233-.053 3.35-.145.003-.43.006-.572.01.018-.62.053-1.244-.035-1.858-.09.695-.095 1.396-.163 2.092-.247-.473-.324-1.01-.465-1.517-.024.508-.04 1.014-.086 1.52-.2-.5-.356-1.012-.557-1.508.03.31.086.93.112 1.243-.154.003-.458.015-.61.02.008-.84.005-1.68-.045-2.518.26-.003.778-.016 1.037-.02-.5-.03-.872-.218-1.108-.564M104.797 31.254c.648.04 1.303-.036 1.954.01.134 1.116.128 2.275.037 3.4-.39-1.035.05-2.187-.3-3.238-.278 1.01-.075 2.14-.166 3.197l-.42-.32c-.1-.99.04-1.992-.14-2.973-.152 1.144 0 2.302-.114 3.45-.478-1.084.003-2.334-.457-3.438-.057 1.147.04 2.303-.116 3.446-.554-1.083-.097-2.366-.277-3.534M106.946 31.242c.147-.015.44-.05.586-.066-.1 1.07.003 2.146-.09 3.215l-.39.398c-.044-1.183-.015-2.366-.106-3.546M107.683 31.387c.103-.096.31-.292.412-.39-.044 1.287.05 2.626-.386 3.858-.098-1.153-.113-2.315-.027-3.468M108.154 34.602c.127-1.25-.153-2.613.448-3.763.086 1.23.018 2.464.077 3.696l-.526.066zM108.803 31.29c.286-.102.855-.306 1.14-.41.242 1.293.124 2.65-.1 3.94-.14-.152-.424-.453-.566-.607l-.406.575c-.053-1.165-.032-2.332-.067-3.497M156.728 31.556c.442.006.89.012 1.338.003-.014.585-.197 1.22.154 1.747.044-.58.06-1.165.06-1.748.134-.026.405-.07.54-.095-.03 1.054-.126 2.11.004 3.16.306-1.086-.183-2.365.498-3.328.062 1.11-.112 2.245.133 3.34.097-.99-.033-1.995.11-2.982l.394-.304c.008 1.208-.146 2.412-.137 3.62-.993-.058-1.99-.073-2.983-.046.065-1.126.05-2.255-.112-3.37M160.215 31.495c.077.03.236.09.316.118-.268 1.174.22 2.585-.433 3.612-.065-1.243-.003-2.49.118-3.73M160.734 31.685l.413-.346c-.01 1.22-.05 2.446-.018 3.668l-.48.045c.028-1.122-.025-2.248.084-3.368M161.303 34.996c.16-1.2-.43-2.715.436-3.69.087 1.246.02 2.495.014 3.74l-.45-.05zM162.096 31.426l.57.04c-.04 1.203-.06 2.407-.075 3.61-.167-.026-.503-.077-.67-.104.143-1.177.146-2.363.176-3.546M164.75 31.57c.128-.008.385-.03.51-.04-.15 1.236.13 2.662-.503 3.746-.082-1.234.015-2.47-.01-3.705M165.45 31.56l.407-.044c-.198 1.228-.133 2.475-.212 3.71-.07-.088-.215-.26-.286-.347-.045-1.11.067-2.21.09-3.32M166.046 31.72c.097-.09.29-.276.386-.37.014 1.175.014 2.352-.024 3.526l-.44.35c-.01-1.17-.085-2.346.078-3.505M166.58 34.96c.16-1.2-.243-2.532.367-3.64.065 1.24.003 2.484.054 3.724-.106-.02-.315-.063-.42-.084M169.267 31.658c.29.165.39.466.304.903-.093-.005-.282-.02-.376-.026.017-.22.053-.656.073-.876" fill="#fff"/><path d="M169.816 31.48l.504.08c-.09 1.182.02 2.398-.127 3.566-.448.367-1.167.06-1.713.126-.07-1.222-.12-2.447-.227-3.666l.68-.018c-.084 1.22-.226 2.45-.096 3.672.18-.816.09-1.665.127-2.492.185.192.377.388.566.583-.065.49-.124.977-.18 1.464l.43.217.047-.47c-.12-1.016-.056-2.04-.01-3.06M192.067 31.646c.655.018 1.39.503 1.98-.012.207 1.21.16 2.444.2 3.67-.806-.076-1.614-.076-2.42-.058.134-1.195-.05-2.43.24-3.6M277.54 31.3c1.11.072 2.22.204 3.333.27.195 7.67.39 15.343.616 23.013l-1.103.23c-.07-7.415-.07-14.832-.148-22.246-.684-.075-1.368-.148-2.052-.178-.088 7.606-.065 15.216-.047 22.82-.105-.016-.318-.052-.42-.067-.045-7.95-.157-15.897-.18-23.843M156.492 31.276c.325 1.198.195 2.453.19 3.678l-.28.01c.03-1.232-.02-2.463.09-3.688M163.903 31.55l.61-.094c-.056 1.243-.036 2.493-.08 3.736l-.557-.157c-.076-1.162.04-2.324.027-3.486M167.16 31.577l.53-.037c-.085 1.162-.112 2.327-.082 3.495l-.448.003c.01-1.156.017-2.31 0-3.46M167.897 31.59c.498 1.07.24 2.328.353 3.478l-.46-.057c-.002-1.143-.014-2.287.107-3.42M194.228 31.778c.433.07.88.106 1.314.2.115 1.074-.044 2.17.17 3.235.134-1.186.004-2.38-.008-3.567.145.036.437.114.584.153.035 1.173-.044 2.347-.065 3.524-.58-.05-1.16-.07-1.736-.06-.018-1.165.115-2.363-.26-3.486M197.27 35.315c-.145-1.16.032-2.333-.01-3.495 1.475.145 2.963.11 4.443.064-.065 1.134-.08 2.27-.062 3.404-1.258-.04-2.516-.04-3.772-.027-.024-.908.006-1.82-.094-2.726-.148.984-.048 1.98-.062 2.97l-.442-.19zM223.203 31.884c.118.024.348.075.466.1-.043 1.152-.045 2.308-.05 3.46-.125.013-.37.034-.494.043-.017-1.2.003-2.405.077-3.604M229.352 31.953l.56-.04c-.03 1.217-.083 2.433-.103 3.652l-.603-.024c.006-.992.09-1.99.02-2.982l-.223-.202c-.277 1.09.412 2.523-.47 3.378-.07-1.22-.022-2.442.004-3.66.16.017.48.056.64.074l.174-.195zM233.363 35.258c.313-1.153-.34-2.607.52-3.54.14 1.285.02 2.58.035 3.87-.392-.023-.78-.035-1.165-.04.106-1.286-.017-2.59.215-3.863.537 1.123-.09 2.426.395 3.573M223.88 34.177c.036-.833-.085-1.71.275-2.492.345 1.29.1 2.658.04 3.973-.456-.367-.276-.98-.314-1.48M224.58 31.96h.386c-.033 1.122-.056 2.244-.033 3.367-.103.012-.31.033-.415.042.053-1.136.062-2.273.062-3.41M225.216 31.96l.498.014c-.017 1.16-.01 2.318-.017 3.474l-.54.054c.03-1.183.065-2.363.06-3.543M226.018 31.835c.53 1.072.074 2.378.233 3.543l-.374-.057c.12-1.158.042-2.323.142-3.485M226.434 32.04l.507.115c.02 1.056.033 2.122-.094 3.172l-.38.328c-.056-1.204-.02-2.41-.032-3.615M227.32 31.736c.794.942.145 2.345.496 3.474.103-1.096.056-2.2.056-3.3l.466.037c-.042 1.12-.068 2.24-.02 3.36-.402-.01-.803-.01-1.198 0 .106-1.19.062-2.385.2-3.57M231.28 31.89l.636.06c-.05 1.174.02 2.354-.085 3.525-.167.02-.503.063-.67.087-.05-1.228.108-2.447.12-3.672M232.167 32.05c.12.032.365.098.486.132-.15 1.198-.074 2.41-.21 3.612l-.377-.422c.033-1.107.127-2.215.1-3.323M234.153 35.8c-.01-1.346-.18-2.81.328-4.07.007 1.33.295 2.854-.327 4.07M234.834 32.085c.1-.006.3-.015.4-.018-.046 1.186-.06 2.375-.084 3.564l-.52.013c.03-1.19.16-2.372.204-3.558M235.492 31.947l.38.04c-.065 1.155 0 2.32-.127 3.476-.074.084-.215.26-.29.346-.055-1.29.034-2.575.037-3.863M236.16 32.14l.393-.335c.014 1.28-.103 2.56-.11 3.838l-.383.036c.03-1.18-.04-2.37.1-3.54M236.765 32.15c.45.035.893-.023 1.326-.17 0 1.222-.078 2.444-.14 3.666-.416-.075-.825-.08-1.235-.015.003-1.158.04-2.32.05-3.478M270.48 32.203l.76.045c.033 8.154.12 16.312.216 24.47.863-.025 1.72-.154 2.58-.272.013.557.034 1.117.058 1.677-1.6.295-3.207.575-4.808.876-.053-.582-.106-1.166-.15-1.747.448-.117.9-.238 1.35-.364-.083-8.228.018-16.458-.006-24.687" fill="#fff"/><path d="M278.878 33.088c.153-.015.457-.045.61-.058.06 7.47.15 14.937.21 22.408.8-.03 1.597-.132 2.384-.307 0 .53.01 1.06.014 1.59-1.462.2-2.91.49-4.362.726-.02-.518-.032-1.036-.04-1.553.373-.08.753-.157 1.134-.232.01-7.525.006-15.05.05-22.572M97.006 35.132c2.067.063 4.14.02 6.208.057-.065 5.52.038 11.043-.082 16.558-.192-1.33-.015-2.68-.118-4.016-.257-2.63.035-5.28-.17-7.91-.794 0-1.587-.016-2.38-.03-.08 4.897-.124 9.797-.053 14.695.932.003 1.884.03 2.75-.38l-.06.428c-1.878.247-3.818.358-5.693.06.142 1.334.03 2.673.11 4.01 1.305.024 2.614.04 3.91-.15.523.002 1.04-.007 1.563-.03-.003.07-.006.22-.01.29-1.938-.062-3.88.152-5.818-.014.027-1.654.068-3.31-.094-4.96-.035-5.132-.06-10.267-.05-15.403.22-1.06.21-2.15-.012-3.205M132.048 35.505c-.03-.145-.092-.43-.12-.575 1.122.03 2.25.04 3.377-.015-.006.707-.01 1.418-.01 2.128-1.125-.048-2.25-.054-3.374 0l.195-.376-.362.123c.003-.313.012-.945.014-1.26l.28-.025z" fill="#fff"/><path d="M97.257 35.4c1.618.005 3.266.21 4.863-.112.03.136.086.406.115.545-1.494-.08-2.988.02-4.48-.1.156.913.115 1.843.088 2.767.204.087.614.268.817.358-.327.027-.98.08-1.306.11 1.704.634 3.673-.29 5.344.468-.277-1.177-.25-2.42-.053-3.61-.14-.195-.283-.39-.42-.586l.836.406c.03 1.343-.002 2.685-.002 4.028-1.93-.108-3.868.012-5.8-.042-.04-1.412.114-2.82 0-4.232" fill="#201b19"/><path d="M126.715 35.104c1.17.022 2.34.022 3.51.043.007.547.022 1.095.045 1.643-1.196-.018-2.396-.057-3.596-.018.015-.557.03-1.11.04-1.668M160.256 36.086c.923-.003 1.843-.027 2.768-.033 0 .572.018 1.147-.044 1.715-.065-.472-.112-.948-.138-1.423-.885.03-1.766.048-2.647.072l.06-.33zM163.546 36.026c2.184.078 4.37.05 6.56.102-.007.497.008 1-.046 1.496-.03-.292-.085-.88-.112-1.174-2.016-.403-4.082.078-6.12-.154-.025 1.283-.084 2.565-.07 3.847.994.02 2.096-.35 3.016.16l.345-.06c-.24 3.185-.28 6.38-.346 9.575-.003 1.755-.14 3.516.032 5.265-1.16-.063-2.31-.262-3.472-.238-.036 1.186-.027 2.372-.027 3.558-.566-1.698-.156-3.52-.18-5.27.08-5.705.34-11.403.42-17.107M223.097 36.05c1.595.06 3.207-.145 4.79.126-1.568.096-3.142 0-4.705.223-.017 1.38-.035 2.768.22 4.132.025 2.297-.17 4.596-.084 6.896-.11 2.52-.348 5.045-.165 7.568-.142.07-.425.207-.566.274.215-6.406.36-12.818.51-19.22M230.893 36.13c.855 0 1.713.004 2.57 0 .024.08.068.24.09.317-.53-.018-1.053-.033-1.575-.066-.077.407-.19.802-.333 1.184.006-.325.015-.982.02-1.31l-.47.283c.028 1.304-.346 2.73.16 3.956-.182 4.62-.35 9.247-.36 13.874l-.146.872-.172-.064c-.427-.58-.183-1.35-.233-2.023.218-5.67.28-11.348.448-17.022M235.59 36.11c.75.102 1.51.135 2.274.153.154 3.318-.162 6.635-.13 9.955-.197 3.052-.126 6.114-.232 9.17-1.173-.137-2.355-.05-3.528-.004l.076-.32c-.34.097-1.02.29-1.36.39.352-.37 1.24-.383 1.192-1.05.06-4.336.248-8.67.295-13.005-.056-.263-.162-.793-.215-1.055l.722.072c-.212 2.628-.127 5.268-.174 7.902-.206 2.242-.186 4.496-.242 6.745.976-.027 1.955-.033 2.933-.057.04-1.824.028-3.652.1-5.476.25-2.9.066-5.81.252-8.714-.637-.04-1.27-.075-1.9-.106l.016-.15c.62.027 1.238.048 1.863.06.367-1.357.243-2.78.178-4.17-.448-.01-.893-.02-1.338-.017-.195-.08-.587-.244-.78-.325M104.567 36.08c1.494-.06 3.17.394 4.536-.31-.115 1.128-.103 2.263-.047 3.395-1.427-.096-2.856-.042-4.283.024l.21-.398-.357.063c.015-.927.02-1.85-.06-2.775" fill="#fff"/><path d="M157.08 36.93c-.125-.22-.246-.435-.352-.66.778.333 1.648.132 2.467.138l-.04.722c.21-.337.636-1.008.848-1.345l.003.975c.83-.05 1.665-.057 2.502-.063.012.105.04.32.05.424l-.524-.282c.02.897.012 1.797-.003 2.694.18.073.546.217.73.29-1.935-.148-3.877.023-5.81-.064l-.416-.244 1.66-.027c-.278-.08-.835-.247-1.112-.328.02-.744.02-1.488-.003-2.23M229.83 36.038l.397.102c.044 6.475-.354 12.944-.412 19.418-.13-.123-.39-.37-.522-.493.368-.897.194-1.888.256-2.833.14-3.83.288-7.658.294-11.49l-1.176-.325c.357-.036 1.073-.102 1.43-.135-.036-1.415.194-2.878-.27-4.244M164.023 36.588c1.462.2 2.95.11 4.425.09.168-.068.51-.2.68-.267.26.296.496.61.708.946-.194-.172-.583-.51-.778-.677.053 1 .28 2.106-.23 3.033.165-.027.495-.078.66-.102.015.22.042.666.056.89.106-.164.322-.486.428-.65-.015 2.054-.018 4.11-.148 6.16-.088 3.056-.02 6.12-.297 9.166l-.384.01c.505-1.957.195-4 .322-5.997.065-2.79.312-5.573.224-8.37l-.505-.806c-.507-.202-1.073.063-1.59.063l.157-.343c-1.26.06-2.526-.036-3.782.078.964-.502.354-1.896.496-2.796-.112-.105-.333-.322-.443-.428M192.695 36.372c1.102.02 2.208.027 3.316.006-.017.63-.022 1.258-.014 1.89-1.21-.07-2.422-.08-3.63-.027.087-.628.18-1.254.33-1.868M197.738 36.396c1.177.063 2.356.075 3.535.024-.01.644-.003 1.285.03 1.93l-.402-.232.17.418c-.83-.033-1.657-.027-2.483-.003l.083-.328c-.24.03-.722.096-.964.13.024-.648.035-1.292.032-1.94" fill="#fff"/><path d="M223.568 36.682c1.636.045 3.27-.024 4.905.033l-.1-.29 1.33.037-.048.25c-.268.057-.807.17-1.076.23l.674.125c-.026.906-.032 1.815.048 2.72-.616-.038-1.23-.053-1.84-.077l.103.427-.55-.192-.293-.65-.076.764c-1.002-.037-2.007-.04-3.007-.058-.007-.425-.015-.85-.027-1.273l.11-.013c.064.42.143.836.244 1.252.08-1.037.04-2.078.094-3.114l-.39.23c-.028-.103-.075-.305-.1-.404M231.972 37.055c1.44-.03 2.877-.04 4.315-.042l.174-.24c.21-.022.63-.07.84-.094.004 1.15.02 2.296-.016 3.445-1.406-.084-2.833-.12-4.206.247-.024-.087-.068-.265-.092-.352 1.377-.08 2.75-.253 4.136-.2-.018-1 .215-2.052-.165-3.01-.077.946-.05 1.898-.04 2.85-1.66.062-3.327.086-4.99.074.02-.894.03-1.785.045-2.68M126.138 36.965c.45.575.126 1.34.162 2.008-.05 2.663.038 5.327.038 7.99l-.212-.396c-.062-3.197-.06-6.402.012-9.602M128.375 37.486c.056-.127.17-.377.227-.503.177.855.05 1.73.056 2.598-.01 2.108.088 4.215-.015 6.322l-.19-.015c-.046-2.715.116-5.437-.08-8.143l.002-.26zM131.2 37.082l.53-.144c-.09 2.044-.154 4.09-.03 6.134.247-1.923-.106-3.883.28-5.797.256.096.77.29 1.03.385l.23-.063c-.037 2.944-.09 5.888-.063 8.83-.643-.047-1.297-.065-1.89-.36l.554.654-.727-.01c.056-3.21.092-6.42.086-9.628M126.518 46.332c-.003-3.016-.254-6.06.144-9.054.28.04.846.114 1.126.153l.336.29c.074 2.79-.044 5.587.06 8.378l-.36-.097.153.362c-.486-.015-.973-.027-1.46-.03M128.87 37.365c.47-.012.94-.027 1.412-.045.056 3.02-.05 6.04-.026 9.06-.504-.02-1.006-.036-1.507-.048.188-2.986-.033-5.98.12-8.967M134.376 37.753l-.05-.445c.227.018.678.048.905.066l.095.325.204-.11c-.037 2.924-.022 5.85-.004 8.772-.58.02-1.165.034-1.742.052.04-2.968.026-5.94-.04-8.904.16.06.473.183.632.243M191.805 38.407c.097 0 .292.003.39.006l-.098.445c.595-.02 1.19-.036 1.79-.057-.04 2.855.005 5.708.008 8.562l.33.03c-.044-2.556-.1-5.12.032-7.673.295 1.588-.03 3.23.278 4.815.173-1.896-.257-3.835.197-5.7.522 0 1.046 0 1.57-.01-.025.283-.08.843-.11 1.126-.272 2.544-.15 5.118-.243 7.674-.516-.027-1.038-.06-1.55-.097l.185.362c-.192.01-.58.038-.773.053.042-.118.13-.35.17-.464-.57.062-1.142.108-1.71.15-.187-2.83.075-5.67-.087-8.5-.197.84-.112 1.712-.124 2.567.04 2.083-.084 4.17.07 6.246l-.564-.048c.35-1.12.257-2.303.245-3.462-.052-2.008-.043-4.02-.005-6.026" fill="#fff"/><path d="M194.243 39.48c-.186-.264-.254-1 .17-1.025.222.25.233.993-.17 1.026M201.564 38.26c.024 1.89.168 3.783.033 5.673-.23-1.505.085-3.055-.28-4.542-.156 2.647-.062 5.305-.012 7.954l-.44-.14c.054.17.154.504.207.673-.48-.022-.96-.043-1.438-.058-.192-2.656 0-5.323-.154-7.978-.082-.523-.598-1.33.336-1.092.01.207.027.623.04.834.064-.184.2-.55.267-.738l.846-.003c.076.114.232.34.31.455l.284-1.04" fill="#fff"/><path d="M197.08 38.5l.408-.024c-.13 1.725-.26 3.474.018 5.19.08-1.6-.07-3.203.132-4.796.457-.01.917-.02 1.38-.033l-.13.596.318-.033c0 .65.012 1.297.04 1.948l-.326-.187c.04 2.246-.064 4.49.01 6.732-.602-.04-1.2-.058-1.796-.08-.067 1 .048 2.027-.26 2.996-.16-4.105.16-8.208.207-12.308M303.364 39.105c.44-.01.88-.015 1.33-.018-.045 4.717.052 9.44-.075 14.154-.45.055-.89.112-1.33.172.015-4.768.05-9.54.074-14.307M103.798 39.183c.118.142.36.425.48.57-.1 4.915-.3 9.83-.242 14.752-.288 1.35.015 2.742-.082 4.112 1.792.018 3.587-.036 5.376.042-1.877.26-3.793.017-5.686.11.165-2.384-.07-4.768-.017-7.155.047-4.145.05-8.29.17-12.432" fill="#fff"/><path d="M97.49 39.86c.828-.03 1.66-.02 2.49-.003-.02 4.88.027 9.756-.03 14.633-.79-.033-1.58.006-2.366-.045-.18-4.853-.035-9.723-.094-14.585" fill="#201b19"/><path d="M106.663 39.833l.153-.29c.425.603.097 1.422.165 2.118.02 4.278-.3 8.546-.244 12.824.79.01 1.58.01 2.373.01.05-2.343.31-4.68.215-7.03l.297.036c-.014 2.432-.33 4.86-.2 7.29-1.39-.114-2.786-.023-4.174-.108.283-.087.855-.258 1.138-.346.19-4.83.236-9.665.277-14.503M97.75 40.156c.62.012 1.284-.13 1.886.087.05 4.617.017 9.238-.018 13.86-.6.005-1.2.017-1.8.032-.08-4.66-.004-9.32-.07-13.98M100.703 40.243c.63-.124 1.273-.1 1.904.033-.062 4.608-.065 9.217-.12 13.826-.596.015-1.19.027-1.784.042-.31-4.624-.024-9.272 0-13.9M156.23 39.93l.645.216c-.424 1.26-.35 2.61-.235 3.914-.165-.217-.33-.437-.493-.657.042-1.158.068-2.314.083-3.473" fill="#fff"/><path d="M157.265 40.318c1.89-.168 3.808.1 5.683-.27-.133.94-.242 1.89-.2 2.844.06 5.397-.31 10.782-.316 16.176-2.26-.036-4.525.036-6.79.02.178-5.1.547-10.212.408-15.32.207.355.37.737.436 1.15-.032 3.208-.064 6.42-.247 9.626.89.38 1.874.19 2.81.223.122-4.77.266-9.54.325-14.313-.704-.03-1.424.042-2.11-.136M104.458 40.3c.62 0 1.24.012 1.863.033-.046 4.612-.173 9.223-.247 13.832-.595-.015-1.185-.033-1.777-.048.04-4.606.038-9.215.162-13.817M107.285 40.345c.62.006 1.235.015 1.857.024-.056 3.65-.19 7.3-.19 10.95.013.948-.076 1.89-.152 2.836-.6-.01-1.19-.006-1.786-.006-.003-2.55.01-5.096.058-7.646.222-2.044.157-4.106.213-6.16" fill="#fff"/><path d="M159.82 40.454c.94-.003 1.884-.034 2.824-.058-.277 2.824-.118 5.665-.253 8.495-.1 1.934-.047 3.872-.12 5.805-.98.06-1.966.033-2.92-.2.19-.228.385-.457.585-.68l-.094.57c.67.024 1.34.042 2.01.054.178-4.565.237-9.134.34-13.7-.707-.02-1.415-.03-2.12-.052-.06 3.646-.076 7.29-.28 10.93-.01.71-.052 1.436.128 2.134-.118.024-.354.073-.472.094.265-4.458.212-8.928.374-13.392M163.808 45.002c.086-1.55-.082-3.12.21-4.65.846.01 1.694 0 2.543-.037.013 4.825-.22 9.645-.29 14.467-.908.003-1.813-.063-2.712-.142-.003-3.214.27-6.423.25-9.638" fill="#201b19"/><path d="M226.316 40.324l.65.012c-.235 4.356-.373 8.724-.4 13.088-.018.56.018 1.123.1 1.677-.41-.005-1.232-.02-1.64-.026l1.02-.494c.196-3.787.158-7.58.355-11.366.025-.963.063-1.936-.084-2.89M156.926 40.676c.68.006 1.364.01 2.048.006.003 4.53-.268 9.055-.227 13.585-.678.115-1.365.148-2.045.184-.272-1.22-.133-2.48-.033-3.714.14-3.35.093-6.71.256-10.06" fill="#fff"/><path d="M223.77 40.767c.736-.058 1.48-.046 2.22-.076-.043 4.595-.178 9.185-.34 13.776-.746.003-1.492-.003-2.235-.015.062-4.563.207-9.123.354-13.683M227.224 40.66c.613.007 1.226 0 1.842-.014l-.148.25c.133.03.398.093.534.126-.147 4.576-.15 9.172-.407 13.75-.642-.005-1.28 0-1.913.034l.168-.385-.46.088c.14-4.615.14-9.235.384-13.847M164.186 40.842c.686-.006 1.376 0 2.066.018-.142 4.53-.286 9.06-.342 13.594-.69-.012-1.377-.024-2.06-.024.047-4.534.306-9.058.336-13.588M167.322 40.87c.65-.007 1.303-.004 1.957 0-.048 4.535-.18 9.07-.32 13.602-.668 0-1.337-.003-2.006-.006.188-4.53.06-9.073.368-13.597M231.274 54.553c.085-4.52.17-9.042.34-13.56.715-.007 1.434-.02 2.156-.028.015.21.04.635.056.85l-.56.08.52-.02c-.12 4.27-.2 8.542-.343 12.814-.722-.077-1.45-.11-2.17-.137M234.94 40.986c.743-.006 1.492.003 2.24 0-.212 4.534-.285 9.076-.35 13.615-.752.013-1.498.01-2.243-.008.035-4.54.29-9.066.353-13.606M199.206 48.024c.07-1.963-.174-3.95.118-5.9.192 1.975-.065 3.968.19 5.94l-.308-.04zM126.447 46.937c1.188.03 2.38.067 3.567-.003l-.098.36.316-.077c-.01.53-.003 1.057.01 1.587-1.263.012-2.524-.018-3.786.01.015-.627.01-1.254-.01-1.877M131.753 46.96c1.173.05 2.35.06 3.522-.02-.02.63-.02 1.262-.01 1.894-1.175-.03-2.348-.048-3.524-.04.022-.61.025-1.22.013-1.833M123.155 47.582c.775-.025 1.55-.055 2.325-.11-.014.573-.032 1.142-.05 1.714-.822-.018-1.647-.042-2.47-.054.07-.515.133-1.033.195-1.55M136.092 47.434c.716.024 1.432.03 2.152.036.058.638.126 1.276.2 1.915-.787-.012-1.574-.015-2.36-.02-.004-.646 0-1.29.008-1.93M305.394 47.536l.513-.072c-.062 1.87-.03 3.736-.064 5.605-.118 0-.354.005-.472.005.013-1.845.027-3.693.025-5.54M282.11 50.902c6.84-.88 13.634-2.083 20.47-3.01.047 1.887-.027 3.774-.012 5.662-6.556 1.14-13.13 2.197-19.687 3.32-.23-.804.452-2.22-.62-2.502-.022-1.158-.1-2.314-.15-3.47M192.474 48.503l-.06-.346c1.115.04 2.235.05 3.352-.003l-.13.36.502-.06-.68.86.54.083c-.002.226-.01.67-.013.894-1.49-.035-2.975-.03-4.46.034.01-.467-.003-.933-.02-1.4l.102.024c.136.452.11 1.015.552 1.304.034-.62.03-1.244.01-1.864l.304.115zM197.765 48.494l-.032-.33c.987.04 1.98.05 2.968-.01.033.523.095 1.047.34 1.526l-.404-.012.174.602c-1.123-.036-2.246-.042-3.366.015.01-.63 0-1.256-.018-1.885l.34.094zM188.866 48.94c.743-.04 1.49-.085 2.237-.127-.02.587-.04 1.17-.047 1.758-.813-.005-1.627-.01-2.438-.038.077-.533.163-1.063.248-1.593M201.59 48.77c.794.02 1.59.02 2.39.022l.084 1.9c-.81.017-1.624.008-2.432.01-.006-.643-.02-1.287-.04-1.93M87.74 49.376c1.915.036 3.83.06 5.747.093-.065 3.114.17 6.227-.1 9.336-1.822.214-3.655.157-5.486.13-.002-3.188-.158-6.373-.16-9.56M113.227 49.878c5.043.01 10.08.295 15.12.27 7.945.143 15.886.344 23.83.456-.035 2.884-.292 5.758-.15 8.642-9.377-.123-18.75-.13-28.127-.15-3.65-.097-7.304.09-10.95-.15.04-1.365-.12-2.737.015-4.095.356-1.63.22-3.313.262-4.972M173.606 51.052c4.068.003 8.136.154 12.203.19 5.2.412 10.425.174 15.634.397 5.857.008 11.71.153 17.565.225.108 2.56-.53 5.08-.234 7.634-15.024-.13-30.054-.08-45.08-.22-.208-2.74-.037-5.485-.09-8.228M241.593 51.844c7.64-.042 15.28-.096 22.92.04 1.22.01 2.444.023 3.67-.025.074 1.53.004 3.063.08 4.595.15.967.257 1.94.286 2.92-3.488.395-7.01.404-10.515.286-5.494-.038-10.992-.035-16.486-.065.043-.948.117-1.905.005-2.85-.248-1.626.06-3.27.038-4.9M274.577 51.615c.787-.06 1.577-.11 2.367-.156.1 2.18-.07 4.37.103 6.552-.74.168-1.48.34-2.23.442-.028-2.28-.384-4.548-.24-6.84M94.524 54.782c.678.01 1.356.024 2.034.042-.014 1.324.015 2.646.03 3.973-.758-.01-1.515-.006-2.273-.003.11-1.336.215-2.673.21-4.012M97.767 55.014c1.695.15 3.395.015 5.093.105-.162.065-.483.2-.642.267.19.924-.292 2.035.348 2.817-1.595-.135-3.202-.135-4.796-.027.15-1.047.197-2.12-.003-3.163M104.257 55.01c1.57.07 3.15.133 4.714-.026-.418.978-.397 2.21-.014 3.196-1.565-.07-3.166-.225-4.71.09.124-1.08.16-2.18.012-3.26" fill="#fff"/><path d="M156.015 54.87c.21.038.63.12.84.162.86.024 1.724.012 2.585.03l.032-.274c.938.084 1.878.114 2.818.13 0 1.29-.003 2.58.003 3.87-2.107.04-4.215.15-6.325.115-.003-1.346.006-2.69.047-4.034" fill="#201b19"/><path d="M109.67 55.11c.75.003 1.503.003 2.257-.006.038 1.207.07 2.414.053 3.624-.78.006-1.562.012-2.343.003.026-1.206.044-2.413.032-3.62M156.466 55.33c1.79.087 3.587.09 5.38-.003-.036.454-.063.906-.07 1.366l-.314-.153c.01.26.027.78.033 1.038l.282-.11c.027.33.06.66.095.995-1.816-.08-3.638-.072-5.45.024.115-1.047.112-2.107.044-3.157M163.405 55.595c.82-.446 1.786-.133 2.67-.223.65.063 1.374-.232 1.966.147-1.143.084-2.286.072-3.427.07l.02.16c1.324 0 2.645-.05 3.968-.005.007.894-.022 1.788-.002 2.682-1.515-.054-3.033-.027-4.548-.006l.177-.366-.35.084c.096-.864-.328-2.062.674-2.492-.285-.012-.857-.04-1.146-.05" fill="#fff"/><path d="M168.613 55.64c-.407.003-.504-.172-.298-.518.516.015.613.187.298.518M228.898 55.616c.174.186.174.186 0 0M230.436 55.504c.062.04.18.12.24.16.064 1.18-.06 2.36-.013 3.54 2.105-.1 4.224-.226 6.332-.087.256-.226.516-.452.778-.678-.286-.73-.327-1.515-.215-2.28.07.476.124.964.303 1.418.85-.123 1.71-.16 2.572-.19-.036.735-.08 1.47-.118 2.204-.793-.012-1.586-.015-2.376-.012l-.2-.406c-2.438.436-4.926.072-7.38.222.05-1.297.017-2.6.078-3.892M153.238 59.086c-.032-1.146-.085-2.293-.076-3.44.678.054 1.36.105 2.045.153-.085 1.098-.106 2.2-.1 3.3-.625-.002-1.247-.008-1.87-.014M223.728 56.046l-.045-.37c1.68.04 3.364.045 5.047-.015-.195 1 .533 2.62-.828 2.942l1.208-.235c.01.102.027.307.032.41-.66-.025-1.32-.052-1.974-.094l.112.316c-.328-.004-.982-.007-1.31-.01-.01-.07-.035-.21-.043-.283.462-.04.963.015 1.394-.232-1.308-.135-2.623-.1-3.93-.057.052-.837.034-1.673.002-2.507l.336.136z" fill="#fff"/><path d="M231.347 55.637c1.504.054 3.013.06 4.522.048l-.137.346c.174-.014.52-.047.693-.062-.018.92-.047 1.84-.068 2.76-1.795-.06-3.593-.01-5.385.05.026-.33.06-.658.1-.986.036.187.103.563.14.753l.196.024c-.02-.98.002-1.958-.063-2.933M169.945 56.067c.79.063 1.586.124 2.38.163.06 1.02.15 2.044.173 3.067-.905-.006-1.807-.006-2.71-.018.036-1.073-.01-2.15.157-3.213M219.878 57.265c.65.054 1.3.112 1.95.16-.02.578-.043 1.16-.07 1.74-.604-.024-1.202-.05-1.8-.085l-.08-1.815M222.398 59.13c.015-.83-.032-1.678.274-2.464.036.87.033 1.746.148 2.613l-.422-.15M236.51 58.554c.193.17.193.17 0 0M163.092 58.797c.18.196.18.196 0 0" fill="#fff"/><path d="M136.104 63.478c1.347.048 2.697-.02 4.044.06-1.562.675-3.16 1.26-4.728 1.924-.395.135-.787.376-1.218.334.47-.9 1.262-1.55 1.902-2.318M87.58 66.025c.75.78 1.15 1.815 1.698 2.736 1.33 2.322 2.623 4.67 3.923 7.012.33.566.65 1.177 1.17 1.59.7.49 1.616.234 2.353.622-1.53.328-3.083.006-4.627.102-1.41-.072-2.877.22-4.242-.234.98-.157 2.046.04 2.93-.515-.236-1.06-.828-1.975-1.344-2.905-1.99-.015-3.98.018-5.966-.02-.442.673-.76 1.426-.772 2.25.533.8 1.512.892 2.22 1.443-2.047-.046-4.113.11-6.147-.136.802-.338 1.73-.42 2.394-1.036.898-.74 1.455-1.794 2.01-2.81 1.437-2.714 2.914-5.408 4.4-8.1M99.898 68.668c1.913-2.023 4.855-2.83 7.537-2.37 1.167.18 2.13.922 3.228 1.313.742.028 1.25-.604 1.756-1.058l.512-.13c.1 1.93.292 3.86.233 5.792-.477-.584-.642-1.346-1.023-1.987-1.043-1.746-2.72-3.13-4.68-3.612-1.542-.292-3.493-.2-4.47 1.252-1.096 1.686-1.057 3.826-.97 5.767.107 1.584.77 3.396 2.356 3.97 3.004 1.088 7 .05 8.42-3.066.11-.323.373-.512.677-.624-.348 1.1-1.02 2.062-1.896 2.797.21.082.42.16.636.24l-.693.188.106-.364c-2.895 2.095-6.907 2.026-9.97.343-1.476-.782-2.73-2.122-3.17-3.787-.443-1.676.25-3.46 1.408-4.662M135.563 66.188c-.32.005-.62.033-.938.062-2.355.235-4.765 1.172-6.313 3.063-1.137 1.333-1.43 3.397-.593 4.968.918 1.837 2.75 2.974 4.624 3.564 3.062.918 6.543.624 9.28-1.125 1.537-.99 2.76-2.68 2.72-4.595-.13-1.644-1.11-3.123-2.406-4.063-1.834-1.35-4.13-1.913-6.375-1.874zm-.22.343c1.046-.1 2.11.092 3 .69 1.678.962 2.316 3.054 2.407 4.905-.018 1.535-.346 3.16-1.375 4.344-1.963 2.314-6.13 2.017-7.625-.69-1.568-2.792-1.073-6.914 1.656-8.78.003.144-.003.418 0 .563.03-.142.096-.425.125-.563.572-.248 1.186-.41 1.814-.47zM226.495 66.515c2.67-.806 5.46-.048 7.968.952.908.454 1.485-.434 1.987-1.04.04 1.392.038 2.783.03 4.176-.1-.033-.3-.093-.396-.123-.477-.795-.858-1.692-1.615-2.258-1.832-1.41-4.237-1.896-6.486-1.65-1.005.15-2.252.738-2.334 1.912-.02.837.837 1.237 1.488 1.484 1.81.58 3.696.855 5.545 1.28 1.618.388 3.48.728 4.53 2.188.825 1.2.242 2.862-.86 3.65-1.875 1.42-4.413 1.437-6.612.985-1.656-.306-3.336-1.48-5.025-.67-.298.373-.607.735-.922 1.09-.05-1.918-.236-3.895.082-5.783.466 1.07.89 2.216 1.828 2.965 1.718 1.41 3.908 2.192 6.098 2.327 1.216.023 2.613-.15 3.465-1.136.518-.587.4-1.61-.248-2.05-1.085-.755-2.426-.918-3.667-1.255-2.04-.528-4.17-.795-6.1-1.686-1.027-.476-2.01-1.605-1.658-2.824.274-1.412 1.674-2.146 2.903-2.535M247.594 66.188l-.344.03c-1.56 2.737-3.04 5.538-4.53 8.313-.482.88-1.022 1.726-1.782 2.376-.658.63-1.617.724-2.407 1.094 1.18.19 2.376.05 3.564.094.866-.01 1.808.23 2.625-.188-.96-.162-2.385-.642-2.22-1.906.197-.662.473-1.77 1.375-1.563 1.77.028 3.544-.053 5.313.032.583.88 1.094 1.81 1.375 2.843-.78.43-1.67.454-2.532.5.04-.14.12-.393.157-.532-.14.26-.298.52-.437.782 1.654.175 3.343-.016 5 .032 1.206-.01 2.394.07 3.594-.125-.982-.32-2.238-.204-2.813-1.25-2.036-3.475-3.914-7.047-5.936-10.532zM246.124 69c1.036 1.662 1.906 3.424 2.876 5.125-1.875-.015-3.75-.022-5.625-.03.943-1.69 1.827-3.394 2.75-5.095zM328.474 68c2.155-1.76 5.206-2.29 7.818-1.403.922.274 1.71 1.207 2.738.915.604-.352 1.114-.85 1.67-1.273.166 1.985.33 3.978.32 5.974-.558-.678-.758-1.563-1.23-2.288-1.364-2.1-3.746-3.654-6.28-3.426-1.34-.01-2.616.83-3.105 2.108-.675 1.757-.696 3.705-.486 5.556.173 1.358.792 2.82 2.13 3.35 2.762 1.135 6.376.38 8.126-2.188.378-.442.42-1.34 1.13-1.35-.785 2.238-2.836 3.846-5.11 4.225-1.635.248-3.353.24-4.927-.324-.496-.15-1.02-.434-1.53-.2l-.17-.48c-1.644-.934-3.162-2.478-3.353-4.477-.222-1.86.85-3.628 2.257-4.72M351.375 66.188c-1.035 1.884-2.047 3.777-3.094 5.656-1.04 1.884-1.83 4.086-3.624 5.375-.524.435-1.4.243-1.78.843 1.927.252 3.89-.145 5.812.156-.018-.143-.03-.297-.032-.44-.68-.146-1.552-.25-1.844-1-.498-.784.226-1.614.5-2.343 2-.01 4.002-.01 6-.03.525.96 1.223 1.902 1.344 3.03-.925.422-1.948.233-2.906.5 1.362.35 2.77.124 4.156.157 1.52-.042 3.048.11 4.563-.125-.726-.32-1.6-.2-2.25-.69-.632-.54-.975-1.317-1.376-2.03-1.67-3.016-3.4-5.994-5.03-9.03-.108-.01-.333-.023-.44-.032zm-1.063 2.78c.96 1.704 1.845 3.443 2.844 5.126-1.87.054-3.722.022-5.594.03.908-1.724 1.825-3.442 2.75-5.155zM391.188 66.188c-.61.01-1.213.053-1.813.156-2.458.47-5.017 1.78-6.125 4.187-.76 1.612-.254 3.582.875 4.876 1.542 1.8 3.884 2.636 6.156 2.906 2.607.21 5.376-.305 7.5-1.937 1.395-1.026 2.386-2.768 2.19-4.563-.255-2.004-1.77-3.586-3.47-4.468-1.645-.82-3.483-1.19-5.313-1.156zm-.063.343c1.56-.092 3.18.495 4.125 1.814 1.453 2.077 1.504 5.076.375 7.312-1.497 2.977-6.214 3.185-8 .406-1.144-1.57-1.167-3.676-.875-5.53.357-1.572 1.313-3.143 2.875-3.688.484-.185.98-.282 1.5-.313zM.006 66.558c1.306-.226 2.635-.097 3.95-.12 3.955.035 7.914-.037 11.873.02-.057 1.71.016 3.423-.057 5.133-.755-.716-.7-1.917-1.383-2.693-.822-1.23-2.222-1.94-3.652-2.065-1.52-.136-3.054-.052-4.577-.064-.023 2.68.06 5.352-.008 8.028.01.858-.077 1.918.68 2.496.908.62 2.052.376 3.072.563-1.34.445-2.777.165-4.16.238-1.912-.085-3.843.153-5.744-.127.86-.38 1.984-.093 2.656-.882.545-.494.48-1.294.507-1.968.006-2.014.01-4.03.006-6.045.028-.73-.205-1.546-.844-1.952-.72-.39-1.577-.238-2.32-.56M17.33 66.657c.695-.352 1.49-.2 2.24-.226 2.455.055 4.913-.068 7.365.04l.675.196c-1.058.193-2.234-.084-3.204.488-.648.397-.837 1.22-.813 1.94.003 1.898-.01 3.797.01 5.693-.043 1.325.957 2.466 2.156 2.827 1.52.61 3.168.32 4.754.343.026-.178.082-.533.112-.71l.475.445c.776-.427 1.695-.77 2.143-1.604.817-1.496.478-3.263.552-4.895-.012-1.246.123-2.76-.885-3.67-.79-.755-1.945-.682-2.933-.875 1.01-.39 2.105-.17 3.157-.21 1.398.053 2.807-.127 4.192.11-1.16.362-2.656.554-3.045 1.96-.34 2.12.025 4.293-.202 6.427-.142.933-.628 1.833-1.427 2.34-1.597 1.064-3.586 1.037-5.423 1.076-1.73-.047-3.54-.24-5.075-1.12-.78-.426-1.374-1.214-1.495-2.118-.165-2.326.106-4.674-.133-6.995-.395-1.41-2.06-1.31-3.195-1.46M38.08 66.582c2.016-.31 4.08-.103 6.114-.1 3.16 2.866 6.5 5.527 9.712 8.336.012-1.8.05-3.604-.006-5.404-.018-.834-.477-1.604-1.14-2.07-.684-.537-1.616-.416-2.365-.804 2.45-.19 4.93-.14 7.38-.028-1.263.39-3.038.593-3.297 2.243-.413 3.203.08 6.47-.292 9.675-4.14-3.534-8.286-7.065-12.477-10.533.034 2.312 0 4.627.016 6.94.015.823.115 1.81.858 2.3.905.667 2.087.45 3.098.817-1.412.36-2.865.093-4.3.13-1.2-.028-2.423.177-3.602-.14.958-.276 2.05-.243 2.868-.902.56-.464.66-1.243.657-1.932.01-1.903-.012-3.808.01-5.71-.02-.642.076-1.404-.434-1.888-.745-.753-1.862-.644-2.8-.93M62.53 66.406c-1.4-.02-2.795 0-4.186.156.9.35 1.99.066 2.78.72.832.875.484 2.213.563 3.312-.085 2.002.17 4.044-.124 6.03-.54 1.323-2.13.952-3.22 1.314 2.872.355 5.768.038 8.657.156 2.606.168 5.372-.104 7.656-1.5 1.53-.903 2.64-2.664 2.5-4.5-.153-1.635-1.2-3.03-2.47-3.97-2.298-1.66-5.255-1.765-7.967-1.686-1.398.042-2.788-.013-4.19-.032zm2.22.375c2.184.086 4.537-.328 6.563.72 2.384 1.48 2.755 4.81 1.906 7.313-.53 1.595-2.05 2.672-3.657 2.843-1.607.175-3.232.076-4.844.094.01-3.66.004-7.308.03-10.97zM115.59 66.555c1.487-.238 2.996-.076 4.493-.115 1.663.045 3.337-.138 4.99.118-.822.237-1.712.22-2.496.59-.716.493-.763 1.46-.78 2.254l.002 5.726c.008.785.08 1.733.783 2.215.73.464 1.63.355 2.444.54-1.616.42-3.32.182-4.97.2-1.483-.072-2.98.208-4.445-.123.922-.346 2.054-.126 2.806-.88.59-.94.35-2.112.4-3.166-.055-1.926.116-3.87-.093-5.788-.334-1.442-2.046-1.234-3.134-1.57M146.264 66.576c1.97-.283 3.973-.106 5.957-.118 3.412 2.643 6.59 5.614 9.95 8.335-.024-1.697.005-3.398-.015-5.096.02-.84-.277-1.734-.973-2.233-.74-.623-1.757-.55-2.597-.95 1.506-.164 3.02-.038 4.534-.077.992.02 2.015-.138 2.982.175-1.436.11-3.225.662-3.43 2.378-.158 3.124.016 6.26-.087 9.39-3.048-2.277-5.863-4.87-8.802-7.292-1.264-1.072-2.555-2.104-3.778-3.224-.065 2.218-.018 4.44-.03 6.658.018.852-.012 1.873.702 2.47.928.84 2.25.613 3.366.956-2.52.43-5.082-.04-7.617.232-.015-.103-.038-.31-.05-.416 1.11-.04 2.46-.228 2.998-1.378.377-1.91.17-3.874.23-5.807-.048-1.054.215-2.264-.498-3.152-.796-.666-1.902-.572-2.842-.852M173.335 66.52c1.604-.188 3.22-.047 4.828-.08 1.728.03 3.458-.093 5.18.066-1.006.527-2.385-.006-3.243.906-.448.43-.416 1.096-.43 1.67.008 2.894-.02 5.787.008 8.68 1.524-.013 3.05.066 4.572-.046 1.745-.24 3.21-1.496 4.027-3.05.34-.66.536-1.423 1.08-1.96.13 1.786.034 3.58.055 5.368-5.29.02-10.574.012-15.86.003l.03-.28c1.103 0 2.72-.096 2.966-1.48.145-2.204.018-4.42.07-6.626-.023-.806.11-1.796-.574-2.377-.766-.632-1.84-.42-2.71-.792M190.705 66.64c1.283-.395 2.636-.143 3.953-.2 2.096.04 4.198-.105 6.29.085-1.06.484-2.352.075-3.386.752-.254.57-.534 1.153-.472 1.797.02 2.005-.035 4.013.026 6.017.054 1.528 1.533 2.485 2.87 2.744 1.755.32 3.662.29 5.307-.494 1.076-.503 1.87-1.607 1.9-2.83.06-1.706.043-3.416.01-5.12.027-1.056-.7-2.056-1.668-2.396-.696-.196-1.432-.174-2.102-.457 2.42-.196 4.867-.112 7.293-.046-.578.284-1.206.42-1.795.66-.833.392-1.287 1.325-1.335 2.228-.117 1.927.077 3.865-.08 5.792-.315 1.86-2.225 2.784-3.887 3.007-2.394.295-4.902.29-7.2-.533-1.198-.397-2.3-1.475-2.3-2.827-.027-1.91.017-3.82 0-5.73-.02-.7-.174-1.488-.78-1.906-.797-.493-1.77-.355-2.642-.54M211.934 66.642c.51-.2 1.055-.23 1.598-.217 2.163.024 4.327.015 6.49 0 .448-.015.896.07 1.33.205-.958.217-2.202.027-2.854.945-.415.506-.368 1.195-.38 1.815.015 2.34-.003 4.678.018 7.02.563 1.144 1.79 1.466 2.965 1.366l-.064.4c-3.04-.234-6.098.106-9.122-.216.86-.385 1.986-.07 2.676-.84.696-.674.495-1.74.542-2.616-.064-2.116.11-4.244-.097-6.348-.374-1.39-1.98-1.367-3.1-1.514M263.56 66.555c2.083-.25 4.19-.088 6.283-.08 1.698 3.002 3.567 5.9 5.285 8.89 1.745-2.98 3.552-5.924 5.288-8.91 1.925.006 3.86-.105 5.784.045-.852.467-2.002.103-2.706.89-.57.492-.52 1.317-.53 2.003.017 2.1-.027 4.205.008 6.306-.018.722.336 1.495 1.017 1.784.71.283 1.51.2 2.213.527-1.913.25-3.85.077-5.772.08-1.28-.05-2.587.16-3.842-.178 1.187-.244 2.994.006 3.375-1.526.185-2.86.064-5.744.064-8.612-2.09 3.413-4.047 6.91-6.142 10.322-.098-.03-.298-.085-.398-.112-2.076-3.41-4.1-6.857-6.143-10.29-.027 2.376.01 4.748-.02 7.123.002.678.023 1.47.53 1.98.728.868 1.942.832 2.93 1.163-1.085.28-2.205.157-3.305.136-1.31-.046-2.648.228-3.924-.172 1.11-.26 2.632-.298 3.148-1.562.357-1.286.15-2.646.21-3.965-.068-1.553.182-3.16-.242-4.67-.63-1.154-2.08-.772-3.113-1.172M287.054 66.636c.522-.187 1.076-.232 1.63-.214 4.58.054 9.162.006 13.745.01-.02 1.595.085 3.196-.072 4.788-.748-1.405-1.27-3.133-2.803-3.862-1.975-.882-4.19-.53-6.28-.58.008 1.838.002 3.678.002 5.514 1.173.012 2.526-.102 3.34-1.087.698-.767.863-1.83 1.164-2.793.384.44.234 1.056.263 1.595-.065 2.128.06 4.263-.05 6.39-.73-.692-.584-1.89-1.28-2.627-.81-1.07-2.222-1.18-3.44-1.222.007 1.743.004 3.49.004 5.234 2.376-.078 5.058.326 7.086-1.252 1.253-.79 1.577-2.333 2.352-3.507.168 1.683.056 3.378.074 5.066-4.01.033-8.022-.043-12.03.005-1.226-.024-2.464.103-3.676-.126.926-.33 2.19-.06 2.788-1.04.496-.59.384-1.414.42-2.134-.042-2 .014-4.003-.03-6.005.02-.637-.263-1.27-.785-1.63-.733-.446-1.618-.36-2.422-.524M306.188 66.438c-.477.006-.962 0-1.438.03.77.43 1.772.23 2.5.782.625.512.61 1.416.656 2.156.01 1.9-.01 3.788 0 5.688-.065.725.006 1.63-.625 2.125-.68.553-1.623.478-2.436.593.545.586 1.423.258 2.125.312 2.38-.16 4.834.23 7.186-.22-1.132-.197-2.816-.097-3.187-1.53-.208-1.327-.05-2.663-.095-4 1.052.012 2.12-.13 3.156.063 1.755 1.782 3.27 3.82 4.97 5.656 1.836-.076 3.68.23 5.5-.156-.88-.36-1.946-.084-2.72-.72-.848-.67-1.495-1.522-2.155-2.374-.327-.377-.623-.872-1.156-.938-1.363-.322-2.727-.716-3.876-1.562 2.23.057 4.573.017 6.625-1 1.013-.497 1.645-1.784 1.06-2.844-.747-1.394-2.407-1.842-3.842-1.97-2.647-.19-5.29-.032-7.938-.093-1.433.032-2.882-.02-4.313 0zm4.687.312c2.246.126 4.572-.328 6.75.406 1.433.47 1.893 2.47 1.094 3.688-.626.803-1.668 1.084-2.626 1.156-1.742.114-3.477.023-5.22.063.007-1.764.016-3.546 0-5.313zM361.323 66.49c3.652-.182 7.322.09 10.977-.116-.195.157-.384.313-.572.467-1.403-.117-2.806-.08-4.206-.063.03 3.658.01 7.32.01 10.98 2.253-.12 4.706.387 6.784-.757 2.02-1.23 2.414-3.962 2.007-6.135-.294-1.857-1.69-3.657-3.616-3.823-.042-.144-.12-.433-.163-.575 2.132.232 4.375.843 5.905 2.478 1.43 1.357 2.04 3.708 1.054 5.508-.88 1.734-2.688 2.71-4.466 3.21-2.007.628-4.127.384-6.19.41-2.26.035-4.52.013-6.78.026-.285.053-.498-.047-.64-.296.78-.073 1.616-.012 2.315-.443.634-.405.81-1.224.8-1.937.002-2.11.002-4.22.002-6.33.023-.74-.174-1.587-.852-1.975-.716-.482-1.674-.12-2.37-.627" fill="#201b19"/><path d="M9.462 70.802c.657-.656.578-1.75 1.285-2.354.077 2.255-.003 4.512.047 6.77-.097.02-.292.066-.39.09-.22-.85-.417-1.776-1.13-2.348-.758-.804-1.905-.82-2.922-.816-.01-.07-.026-.21-.035-.283 1.1-.077 2.414-.056 3.145-1.058" fill="#201b19"/><path d="M86.35 69.02c1.082 1.62 1.9 3.4 2.866 5.09-1.863-.024-3.73.024-5.592-.02.905-1.69 1.834-3.37 2.727-5.07" fill="#fff"/></svg>