<?xml version="1.0" encoding="UTF-8" standalone="no"?>
<!-- Created with Inkscape (http://www.inkscape.org/) -->

<svg
   xmlns:dc="http://purl.org/dc/elements/1.1/"
   xmlns:cc="http://creativecommons.org/ns#"
   xmlns:rdf="http://www.w3.org/1999/02/22-rdf-syntax-ns#"
   xmlns:svg="http://www.w3.org/2000/svg"
   xmlns="http://www.w3.org/2000/svg"
   xmlns:sodipodi="http://sodipodi.sourceforge.net/DTD/sodipodi-0.dtd"
   xmlns:inkscape="http://www.inkscape.org/namespaces/inkscape"
   width="400"
   height="267.81567"
   id="svg406943"
   version="1.1"
   inkscape:version="0.48.3.1 r9886"
   sodipodi:docname="Documento nuevo 253">
  <defs
     id="defs406945" />
  <sodipodi:namedview
     id="base"
     pagecolor="#ffffff"
     bordercolor="#666666"
     borderopacity="1.0"
     inkscape:pageopacity="0.0"
     inkscape:pageshadow="2"
     inkscape:zoom="0.35"
     inkscape:cx="200.00005"
     inkscape:cy="133.90788"
     inkscape:document-units="px"
     inkscape:current-layer="layer1"
     showgrid="false"
     fit-margin-top="0"
     fit-margin-left="0"
     fit-margin-right="0"
     fit-margin-bottom="0"
     inkscape:window-width="596"
     inkscape:window-height="418"
     inkscape:window-x="1"
     inkscape:window-y="61"
     inkscape:window-maximized="0" />
  <metadata
     id="metadata406948">
    <rdf:RDF>
      <cc:Work
         rdf:about="">
        <dc:format>image/svg+xml</dc:format>
        <dc:type
           rdf:resource="http://purl.org/dc/dcmitype/StillImage" />
        <dc:title></dc:title>
      </cc:Work>
    </rdf:RDF>
  </metadata>
  <g
     inkscape:label="Capa 1"
     inkscape:groupmode="layer"
     id="layer1"
     transform="translate(-149.99995,-398.45439)">
    <g
       id="g406894"
       transform="matrix(0.83283606,0,0,0.83283606,-5391.2034,2286.7475)">
      <path
         id="path404156"
         style="fill:#367c53;fill-opacity:1;fill-rule:nonzero;stroke:none"
         d="m 6653.4143,-2267.3047 480.2866,0 0,321.5707 -480.2866,0 0,-321.5707 z"
         inkscape:connector-curvature="0" />
      <path
         inkscape:connector-curvature="0"
         d="m 7095.8321,-1982.2413 0,-7.1579 c -2.0668,0.8182 -3.4001,1.4001 -3.9941,1.7456 -1.0849,0.6 -1.8546,1.2303 -2.3213,1.8849 -0.4667,0.6606 -0.697,1.3758 -0.697,2.1516 0,0.9879 0.2909,1.8061 0.8788,2.4546 0.594,0.6485 1.2667,0.9758 2.0304,0.9758 1.0364,0 2.4122,-0.6848 4.1032,-2.0546 m 0,1.3334 c -1.9274,1.491 -3.1395,2.3516 -3.6305,2.588 -0.7394,0.3394 -1.5212,0.5091 -2.3576,0.5091 -1.2971,0 -2.3698,-0.4425 -3.2123,-1.3334 -0.8364,-0.8849 -1.2606,-2.0546 -1.2606,-3.5092 0,-0.9152 0.206,-1.7031 0.6121,-2.3759 0.5697,-0.9334 1.5395,-1.8061 2.9274,-2.6243 1.3879,-0.8243 3.6911,-1.8183 6.9215,-3.0002 l 0,-0.7333 c 0,-1.8728 -0.297,-3.1638 -0.8909,-3.8608 -0.594,-0.697 -1.4607,-1.0425 -2.5941,-1.0425 -0.8606,0 -1.5455,0.2303 -2.0486,0.697 -0.5273,0.4667 -0.7818,1.0001 -0.7818,1.6001 l 0.042,1.1879 c 0,0.6304 -0.1636,1.1152 -0.4849,1.4546 -0.3272,0.3455 -0.7454,0.5152 -1.2606,0.5152 -0.5091,0 -0.9213,-0.1758 -1.2425,-0.5334 -0.3212,-0.3515 -0.4788,-0.8424 -0.4788,-1.4546 0,-1.1818 0.6,-2.2546 1.8001,-3.2425 1.2061,-0.9819 2.8971,-1.4789 5.0669,-1.4789 1.6728,0 3.0364,0.2849 4.1032,0.8425 0.806,0.4243 1.4061,1.0849 1.7879,1.994 0.2485,0.5879 0.3697,1.788 0.3697,3.6062 l 0,6.3821 c 0,1.788 0.03,2.885 0.1031,3.2911 0.067,0.4 0.1818,0.6666 0.3394,0.8121 l 0.5394,0.2 0.5697,-0.1394 c 0.2909,-0.1818 0.8425,-0.6788 1.6667,-1.497 l 0,1.1455 c -1.5334,2.0486 -2.994,3.0789 -4.388,3.0789 -0.6728,0 -1.2001,-0.2303 -1.6001,-0.697 -0.4,-0.4667 -0.6,-1.2546 -0.6182,-2.3819 m -17.5341,-26.4557 c 0.5758,0 1.0607,0.194 1.4668,0.6001 0.4,0.406 0.6,0.8909 0.6,1.4667 0,0.5758 -0.2,1.0667 -0.6,1.4788 -0.4061,0.4061 -0.891,0.6122 -1.4668,0.6122 -0.5757,0 -1.0667,-0.2061 -1.4788,-0.6122 -0.4122,-0.4121 -0.6122,-0.903 -0.6122,-1.4788 0,-0.5758 0.2,-1.0607 0.6001,-1.4667 0.406,-0.4061 0.903,-0.6001 1.4909,-0.6001 m 1.7031,9.8186 0,15.0976 c 0,1.1758 0.085,1.9637 0.2546,2.3516 0.1697,0.3879 0.4243,0.6789 0.7576,0.8728 0.3333,0.194 0.9455,0.2849 1.8364,0.2849 l 0,0.7394 -9.1276,0 0,-0.7394 c 0.9152,0 1.5273,-0.091 1.8486,-0.2667 0.3091,-0.1758 0.5636,-0.4728 0.7454,-0.8788 0.1819,-0.4122 0.2788,-1.2001 0.2788,-2.3638 l 0,-7.2427 c 0,-2.0304 -0.061,-3.3516 -0.1879,-3.9577 -0.091,-0.4304 -0.2424,-0.7395 -0.4485,-0.9092 -0.2121,-0.1757 -0.4909,-0.2545 -0.8424,-0.2545 -0.3818,0 -0.8485,0.103 -1.394,0.303 l -0.2849,-0.7394 5.6548,-2.2971 0.9091,0 z m -14.9763,0 0,4.2305 c 1.5758,-2.8183 3.1819,-4.2305 4.8426,-4.2305 0.7515,0 1.3758,0.2303 1.8667,0.691 0.491,0.4545 0.7334,0.9879 0.7334,1.5879 0,0.5334 -0.1758,0.9819 -0.5334,1.3576 -0.3515,0.3637 -0.7758,0.5516 -1.2667,0.5516 -0.4849,0 -1.0182,-0.2364 -1.6122,-0.7091 -0.5939,-0.4728 -1.0303,-0.7092 -1.3212,-0.7092 l -0.8001,0.4122 c -0.6182,0.5576 -1.2546,1.4849 -1.9091,2.7698 l 0,9.0064 c 0,1.0364 0.1272,1.8243 0.3879,2.3577 0.1818,0.3697 0.4909,0.6788 0.9454,0.9213 0.4546,0.2485 1.0971,0.3697 1.9456,0.3697 l 0,0.7394 -9.6186,0 0,-0.7394 c 0.9576,0 1.6667,-0.1516 2.1334,-0.4485 0.3455,-0.2182 0.5819,-0.5637 0.7152,-1.0486 0.073,-0.2303 0.103,-0.897 0.103,-1.9879 l 0,-7.2852 c 0,-2.1879 -0.042,-3.485 -0.1333,-3.9032 -0.085,-0.4182 -0.2546,-0.7273 -0.4909,-0.9152 -0.2364,-0.1939 -0.5334,-0.2848 -0.891,-0.2848 -0.4242,0 -0.903,0.103 -1.4364,0.303 l -0.2061,-0.7394 5.6851,-2.2971 0.8607,0 z m -13.4976,15.3037 0,-7.1579 c -2.0667,0.8182 -3.4001,1.4001 -4.0001,1.7456 -1.0789,0.6 -1.8547,1.2303 -2.3213,1.8849 -0.4607,0.6606 -0.697,1.3758 -0.697,2.1516 0,0.9879 0.2969,1.8061 0.8848,2.4546 0.5879,0.6485 1.2668,0.9758 2.0304,0.9758 1.0364,0 2.4062,-0.6848 4.1032,-2.0546 m 0,1.3334 c -1.9273,1.491 -3.1395,2.3516 -3.6304,2.588 -0.7395,0.3394 -1.5274,0.5091 -2.3638,0.5091 -1.297,0 -2.3637,-0.4425 -3.2062,-1.3334 -0.8364,-0.8849 -1.2606,-2.0546 -1.2606,-3.5092 0,-0.9152 0.2,-1.7031 0.6121,-2.3759 0.5637,-0.9334 1.5395,-1.8061 2.9274,-2.6243 1.3819,-0.8243 3.6911,-1.8183 6.9215,-3.0002 l 0,-0.7333 c 0,-1.8728 -0.303,-3.1638 -0.8909,-3.8608 -0.594,-0.697 -1.4607,-1.0425 -2.5941,-1.0425 -0.8606,0 -1.5455,0.2303 -2.0546,0.697 -0.5212,0.4667 -0.7818,1.0001 -0.7818,1.6001 l 0.042,1.1879 c 0,0.6304 -0.1637,1.1152 -0.4788,1.4546 -0.3213,0.3455 -0.7395,0.5152 -1.2607,0.5152 -0.5091,0 -0.9212,-0.1758 -1.2425,-0.5334 -0.3212,-0.3515 -0.4788,-0.8424 -0.4788,-1.4546 0,-1.1818 0.594,-2.2546 1.8001,-3.2425 1.2001,-0.9819 2.8971,-1.4789 5.0669,-1.4789 1.6667,0 3.0365,0.2849 4.1032,0.8425 0.8061,0.4243 1.4061,1.0849 1.7819,1.994 0.2485,0.5879 0.3697,1.788 0.3697,3.6062 l 0,6.3821 c 0,1.788 0.036,2.885 0.103,3.2911 0.073,0.4 0.1818,0.6666 0.3394,0.8121 l 0.5455,0.2 0.5758,-0.1394 c 0.2848,-0.1818 0.8424,-0.6788 1.6607,-1.497 l 0,1.1455 c -1.5334,2.0486 -2.9941,3.0789 -4.3881,3.0789 -0.6788,0 -1.2061,-0.2303 -1.6001,-0.697 -0.4,-0.4667 -0.6061,-1.2546 -0.6182,-2.3819 m -19.1402,-16.6371 0,4.2305 c 1.5698,-2.8183 3.182,-4.2305 4.8427,-4.2305 0.7515,0 1.3758,0.2303 1.8606,0.691 0.497,0.4545 0.7395,0.9879 0.7395,1.5879 0,0.5334 -0.1758,0.9819 -0.5273,1.3576 -0.3576,0.3637 -0.7819,0.5516 -1.2728,0.5516 -0.4788,0 -1.0182,-0.2364 -1.6061,-0.7091 -0.6001,-0.4728 -1.0425,-0.7092 -1.3274,-0.7092 l -0.8,0.4122 c -0.6182,0.5576 -1.2546,1.4849 -1.9092,2.7698 l 0,9.0064 c 0,1.0364 0.1273,1.8243 0.394,2.3577 0.1758,0.3697 0.4849,0.6788 0.9394,0.9213 0.4546,0.2485 1.097,0.3697 1.9516,0.3697 l 0,0.7394 -9.6186,0 0,-0.7394 c 0.9516,0 1.6668,-0.1516 2.1335,-0.4485 0.3394,-0.2182 0.5818,-0.5637 0.7151,-1.0486 0.067,-0.2303 0.1031,-0.897 0.1031,-1.9879 l 0,-7.2852 c 0,-2.1879 -0.048,-3.485 -0.1334,-3.9032 -0.091,-0.4182 -0.2545,-0.7273 -0.497,-0.9152 -0.2363,-0.1939 -0.5333,-0.2848 -0.8909,-0.2848 -0.4243,0 -0.897,0.103 -1.4304,0.303 l -0.2121,-0.7394 5.6851,-2.2971 0.8606,0 z m -20.9827,6.4427 8.6913,0 c -0.067,-1.2 -0.2061,-2.0485 -0.4242,-2.5455 -0.3395,-0.7637 -0.8486,-1.3637 -1.5334,-1.8001 -0.6728,-0.4425 -1.3819,-0.6606 -2.1213,-0.6606 -1.1334,0 -2.1516,0.4424 -3.0426,1.3273 -0.8909,0.8788 -1.4182,2.1031 -1.5698,3.6789 m 0,1.188 c -0.018,2.794 0.6607,4.982 2.0304,6.5639 1.3698,1.5879 2.9699,2.3819 4.8184,2.3819 1.2364,0 2.3031,-0.3394 3.2183,-1.0182 0.9031,-0.6789 1.6668,-1.8304 2.2789,-3.4729 l 0.6425,0.4061 c -0.291,1.8788 -1.1274,3.5819 -2.5092,5.1214 -1.3758,1.5394 -3.1092,2.3031 -5.1881,2.3031 -2.2547,0 -4.1881,-0.8788 -5.7942,-2.6304 -1.6061,-1.7637 -2.4122,-4.1214 -2.4122,-7.0912 0,-3.2062 0.8303,-5.7154 2.4728,-7.5155 1.6486,-1.8 3.7153,-2.7031 6.2063,-2.7031 2.1031,0 3.8365,0.697 5.1881,2.0849 1.3576,1.388 2.0365,3.2486 2.0365,5.57 l -12.9885,0 z m -18.6916,-3.6487 c 2.2001,-2.6546 4.2971,-3.982 6.2972,-3.982 1.0243,0 1.9092,0.2546 2.6486,0.7698 0.7394,0.5151 1.3273,1.3576 1.7637,2.5395 0.297,0.8121 0.4485,2.0728 0.4485,3.7698 l 0,8.0185 c 0,1.194 0.097,2.0001 0.2909,2.4244 0.1455,0.3394 0.3879,0.6061 0.7273,0.8 0.3334,0.194 0.9516,0.2849 1.8546,0.2849 l 0,0.7394 -9.2912,0 0,-0.7394 0.3878,0 c 0.8789,0 1.485,-0.1334 1.8365,-0.4 0.3515,-0.2667 0.594,-0.6607 0.7273,-1.1819 0.055,-0.2061 0.085,-0.8425 0.085,-1.9274 l 0,-7.6912 c 0,-1.7092 -0.2242,-2.9516 -0.6667,-3.7214 -0.4424,-0.7758 -1.1939,-1.1636 -2.2425,-1.1636 -1.6303,0 -3.2547,0.8909 -4.8668,2.6728 l 0,9.9034 c 0,1.2789 0.073,2.0607 0.2242,2.3638 0.194,0.3939 0.4546,0.6848 0.794,0.8667 0.3333,0.1879 1.0121,0.2788 2.0425,0.2788 l 0,0.7394 -9.2974,0 0,-0.7394 0.4122,0 c 0.9576,0 1.6,-0.2425 1.9395,-0.7273 0.3333,-0.4849 0.503,-1.4122 0.503,-2.782 l 0,-6.97 c 0,-2.2607 -0.049,-3.6365 -0.1576,-4.1274 -0.103,-0.4909 -0.2606,-0.8243 -0.4667,-1.0061 -0.2182,-0.1758 -0.503,-0.2606 -0.8485,-0.2606 -0.3879,0 -0.8485,0.103 -1.3819,0.303 l -0.3091,-0.7394 5.6669,-2.2971 0.8789,0 0,3.982 z m -10.0065,-3.4304 0,11.3883 c 0,2.1759 0.049,3.5032 0.1515,3.9881 0.103,0.4909 0.2667,0.8303 0.4909,1.0182 l 0.7879,0.2849 c 0.4243,0 0.9092,-0.1152 1.4365,-0.3455 l 0.2909,0.7152 -5.6184,2.3152 -0.9273,0 0,-3.9759 c -1.6122,1.7516 -2.8426,2.8547 -3.6911,3.3032 -0.8485,0.4545 -1.7455,0.6727 -2.685,0.6727 -1.0545,0 -1.9697,-0.303 -2.7455,-0.9091 -0.7698,-0.6061 -1.3031,-1.394 -1.6062,-2.3456 -0.303,-0.9576 -0.4545,-2.3152 -0.4545,-4.0668 l 0,-8.3882 c 0,-0.891 -0.091,-1.5031 -0.2849,-1.8486 -0.1879,-0.3394 -0.4727,-0.6 -0.8485,-0.7879 -0.3818,-0.1818 -1.0606,-0.2727 -2.0425,-0.2546 l 0,-0.7636 6.5821,0 0,12.5763 c 0,1.7515 0.3091,2.9031 0.9152,3.4486 0.6061,0.5515 1.3455,0.8182 2.2061,0.8182 0.5879,0 1.2546,-0.1818 2.0001,-0.5515 0.7455,-0.3698 1.6304,-1.0728 2.6547,-2.1153 l 0,-10.6428 c 0,-1.0668 -0.194,-1.788 -0.5819,-2.1638 -0.3879,-0.3757 -1.2,-0.5758 -2.4364,-0.6061 l 0,-0.7636 6.4063,0 z m -32.5529,-7.5034 0,10.9338 5.0669,0 c 1.1637,0 2.0122,-0.2545 2.5516,-0.7697 0.5394,-0.5152 0.897,-1.5273 1.0788,-3.0486 l 0.7577,0 0,9.4185 -0.7577,0 c -0.018,-1.0788 -0.1575,-1.8728 -0.4242,-2.3819 -0.2667,-0.503 -0.6364,-0.8849 -1.1092,-1.1333 -0.4666,-0.2546 -1.1697,-0.3819 -2.097,-0.3819 l -5.0669,0 0,8.7337 c 0,1.4122 0.085,2.3456 0.2606,2.7941 0.1394,0.3394 0.4243,0.6364 0.8667,0.8849 0.6001,0.3212 1.2304,0.4848 1.885,0.4848 l 1.0061,0 0,0.7637 -11.9399,0 0,-0.7637 0.9818,0 c 1.1516,0 1.988,-0.3333 2.5092,-1 0.3273,-0.4364 0.491,-1.491 0.491,-3.1638 l 0,-17.9644 c 0,-1.4061 -0.091,-2.3395 -0.2667,-2.788 -0.1394,-0.3454 -0.4182,-0.6364 -0.8425,-0.8848 -0.5879,-0.3273 -1.2182,-0.491 -1.891,-0.491 l -0.9818,0 0,-0.7576 20.6978,0 0.2667,6.1094 -0.7152,0 c -0.3576,-1.2971 -0.7697,-2.2547 -1.2425,-2.8608 -0.4727,-0.6061 -1.0546,-1.0485 -1.7455,-1.3212 -0.6909,-0.2788 -1.7577,-0.4122 -3.2123,-0.4122 l -6.1275,0 z"
         style="fill:#fff799;fill-opacity:1;fill-rule:nonzero;stroke:none"
         id="path404180" />
      <path
         inkscape:connector-curvature="0"
         d="m 6900.227,-2198.0897 21.5948,0 c -0.1697,-2.988 -0.5333,-5.0911 -1.0788,-6.3154 -0.8485,-1.9031 -2.1031,-3.3941 -3.788,-4.479 -1.6728,-1.0909 -3.4426,-1.6304 -5.273,-1.6304 -2.8183,0 -5.3457,1.0971 -7.5639,3.285 -2.2244,2.1941 -3.5153,5.2305 -3.8911,9.1398 m 0,2.9516 c -0.03,6.9276 1.6425,12.3581 5.0426,16.2977 3.3881,3.9395 7.3822,5.9093 11.9702,5.9093 3.0547,0 5.7033,-0.8364 7.9701,-2.5213 2.2425,-1.6789 4.1456,-4.5517 5.679,-8.6246 l 1.5697,1.0122 c -0.7091,4.6547 -2.7819,8.8912 -6.2123,12.7035 -3.4244,3.8184 -7.7216,5.7336 -12.8794,5.7336 -5.6002,0 -10.4004,-2.1819 -14.3824,-6.5457 -4.0001,-4.3638 -5.9881,-10.2247 -5.9881,-17.5947 0,-7.9761 2.0364,-14.2006 6.1336,-18.6674 4.085,-4.4608 9.2246,-6.6912 15.4006,-6.6912 5.2305,0 9.5277,1.7213 12.8915,5.1638 3.3637,3.4486 5.0365,8.0549 5.0365,13.8248 l -32.2316,0 z m -23.2798,-32.8983 0,15.34 10.9035,0 0,3.5638 -10.9035,0 0,30.2498 c 0,3.0183 0.4304,5.0547 1.3031,6.1093 0.8607,1.0485 1.9819,1.5698 3.3396,1.5698 1.1212,0 2.2061,-0.3455 3.2607,-1.0425 1.0546,-0.697 1.8667,-1.7152 2.4425,-3.0729 l 1.9819,0 c -1.1879,3.3214 -2.8668,5.8245 -5.0365,7.5094 -2.1698,1.6789 -4.4123,2.5153 -6.7215,2.5153 -1.5637,0 -3.0911,-0.4303 -4.582,-1.297 -1.4971,-0.8667 -2.6062,-2.1031 -3.3214,-3.7214 -0.7091,-1.6061 -1.0606,-4.0971 -1.0606,-7.4548 l 0,-31.365 -7.3882,0 0,-1.6849 c 1.8667,-0.7515 3.7759,-2.0122 5.7275,-3.7941 1.9576,-1.788 3.6971,-3.8911 5.2244,-6.3397 0.7819,-1.2909 1.8668,-3.6486 3.2608,-7.0851 l 1.5697,0 z m -52.087,23.8313 c 5.4669,-6.5821 10.6732,-9.8731 15.6249,-9.8731 2.5516,0 4.7457,0.6363 6.5761,1.9091 1.8364,1.2789 3.2971,3.3759 4.382,6.2912 0.7454,2.0364 1.1212,5.1638 1.1212,9.3701 l 0,19.9038 c 0,2.9577 0.2364,4.9578 0.7091,6.0124 0.3758,0.8485 0.9758,1.5213 1.8001,1.988 0.8364,0.4788 2.3759,0.7212 4.6184,0.7212 l 0,1.8304 -23.0737,0 0,-1.8304 0.9758,0 c 2.1698,0 3.685,-0.3394 4.5456,-1 0.8728,-0.6667 1.4728,-1.6425 1.8122,-2.9335 0.1334,-0.5091 0.2,-2.1031 0.2,-4.7881 l 0,-19.0856 c 0,-4.2487 -0.5515,-7.3276 -1.6485,-9.2489 -1.1091,-1.9152 -2.9638,-2.8728 -5.5821,-2.8728 -4.0365,0 -8.0548,2.2061 -12.0611,6.6184 l 0,24.5889 c 0,3.1577 0.1819,5.1154 0.5516,5.867 0.4788,0.9879 1.1333,1.7031 1.9576,2.1637 0.8425,0.4545 2.5274,0.6909 5.073,0.6909 l 0,1.8304 -23.0616,0 0,-1.8304 1.0182,0 c 2.3759,0 3.9699,-0.6061 4.8063,-1.8182 0.8243,-1.2001 1.2485,-3.5032 1.2485,-6.9034 l 0,-17.3098 c 0,-5.6063 -0.1273,-9.0064 -0.3879,-10.2307 -0.2485,-1.2182 -0.6424,-2.0607 -1.1637,-2.5031 -0.5333,-0.4364 -1.2364,-0.6546 -2.1152,-0.6546 -0.9516,0 -2.0849,0.2485 -3.4062,0.7576 l -0.7697,-1.8304 14.0551,-5.7032 2.194,0 0,9.8731 z m -44.5109,-6.5579 c -1.8001,0 -3.6062,0.5334 -5.4305,1.6001 -1.8062,1.0667 -3.285,2.9456 -4.4002,5.6305 -1.1213,2.6789 -1.6789,6.1155 -1.6789,10.3338 0,6.7882 1.3516,12.649 4.0426,17.5704 2.7032,4.9215 6.2609,7.3761 10.6732,7.3761 3.291,0 6.0063,-1.3576 8.1458,-4.0729 2.1395,-2.7153 3.2122,-7.3761 3.2122,-13.9945 0,-8.2791 -1.7819,-14.8067 -5.3517,-19.5584 -2.4062,-3.2547 -5.479,-4.8851 -9.2125,-4.8851 m 1.5758,-3.3152 c 7.0609,0 12.7278,2.6789 17.0068,8.0427 3.6365,4.582 5.4548,9.8489 5.4548,15.7825 0,4.182 -1.0062,8.4125 -3.0062,12.6914 -2.0062,4.2729 -4.7639,7.5034 -8.2731,9.6792 -3.5214,2.1698 -7.4246,3.2547 -11.7338,3.2547 -7.0306,0 -12.6187,-2.8062 -16.7644,-8.4064 -3.4971,-4.7154 -5.2365,-10.0186 -5.2365,-15.8855 0,-4.279 1.0485,-8.5276 3.1758,-12.7581 2.1213,-4.2244 4.9154,-7.3518 8.3762,-9.3701 3.4668,-2.0183 7.1275,-3.0304 11.0004,-3.0304 m -76.1244,48.0262 -26.6859,-58.1115 0,46.1352 c 0,4.2426 0.4485,6.8973 1.3697,7.9519 1.2546,1.4243 3.2486,2.1334 5.9639,2.1334 l 2.4425,0 0,1.891 -24.0373,0 0,-1.891 2.4486,0 c 2.9152,0 4.988,-0.8849 6.2123,-2.6486 0.7455,-1.0849 1.1152,-3.5638 1.1152,-7.4367 l 0,-45.117 c 0,-3.0547 -0.3394,-5.2608 -1.0182,-6.6184 -0.4727,-0.988 -1.3455,-1.8062 -2.6243,-2.4668 -1.2668,-0.6606 -3.3153,-1.0001 -6.1336,-1.0001 l 0,-1.8788 19.5523,0 25.0556,54.0265 24.6495,-54.0265 19.5584,0 0,1.8788 -2.4001,0 c -2.9577,0 -5.0366,0.8849 -6.2609,2.6486 -0.7455,1.091 -1.1212,3.5638 -1.1212,7.4367 l 0,45.117 c 0,4.2426 0.4788,6.8973 1.4303,7.9519 1.2546,1.4243 3.2365,2.1334 5.9518,2.1334 l 2.4001,0 0,1.891 -29.3346,0 0,-1.891 2.4426,0 c 2.9577,0 5.0244,-0.8849 6.2123,-2.6486 0.7516,-1.0849 1.1213,-3.5638 1.1213,-7.4367 l 0,-46.1352 -26.6375,58.1115 -1.6728,0 z"
         style="fill:#e8c453;fill-opacity:1;fill-rule:nonzero;stroke:none"
         id="path404184" />
      <path
         inkscape:connector-curvature="0"
         d="m 6920.3581,-2135.4059 0,9.0731 -0.9576,0 c -0.7394,-2.8486 -1.6849,-4.7881 -2.8365,-5.8184 -1.1576,-1.0304 -2.6183,-1.5395 -4.4062,-1.5395 -1.3577,0 -2.4547,0.3637 -3.285,1.0789 -0.8364,0.7151 -1.2486,1.5091 -1.2486,2.3819 0,1.0909 0.3031,2.0182 0.9273,2.788 0.594,0.8 1.8183,1.6425 3.6669,2.5334 l 4.2486,2.0668 c 3.9275,1.9152 5.9033,4.4486 5.9033,7.5882 0,2.4243 -0.9212,4.3759 -2.7516,5.8608 -1.8304,1.4789 -3.885,2.2243 -6.1518,2.2243 -1.6304,0 -3.491,-0.2909 -5.582,-0.8727 -0.6425,-0.2 -1.1637,-0.297 -1.5698,-0.297 -0.4546,0 -0.8,0.2545 -1.0485,0.7576 l -0.9577,0 0,-9.5095 0.9577,0 c 0.5394,2.7153 1.5818,4.7638 3.1092,6.1397 1.5273,1.3758 3.2486,2.0607 5.1517,2.0607 1.3395,0 2.4304,-0.3879 3.2729,-1.1759 0.8424,-0.7818 1.2606,-1.7273 1.2606,-2.8364 0,-1.3334 -0.4727,-2.4607 -1.4061,-3.3699 -0.9455,-0.9152 -2.8243,-2.0667 -5.6305,-3.4607 -2.8123,-1.394 -4.6548,-2.6547 -5.5215,-3.782 -0.8788,-1.1031 -1.3152,-2.4971 -1.3152,-4.188 0,-2.188 0.7516,-4.0184 2.2547,-5.4912 1.5031,-1.4728 3.4486,-2.2122 5.8305,-2.2122 1.0485,0 2.3153,0.2182 3.8123,0.6667 0.9879,0.2909 1.6425,0.4424 1.9758,0.4424 l 0.7334,-0.206 c 0.1697,-0.1394 0.3758,-0.4364 0.6061,-0.9031 l 0.9576,0 z m -34.8621,1.891 c -1.0364,0 -2.0667,0.3091 -3.0971,0.9152 -1.0424,0.6121 -1.8788,1.6849 -2.5152,3.2122 -0.6425,1.5274 -0.9576,3.4971 -0.9576,5.9033 0,3.879 0.7697,7.2246 2.3092,10.0307 1.5394,2.8123 3.5698,4.2184 6.0911,4.2184 1.8728,0 3.4305,-0.7758 4.6548,-2.3274 1.2182,-1.5516 1.8303,-4.2123 1.8303,-7.9943 0,-4.7335 -1.0182,-8.4488 -3.0546,-11.1641 -1.3819,-1.8667 -3.1335,-2.794 -5.2609,-2.794 m 0.8971,-1.891 c 4.0304,0 7.273,1.5334 9.7155,4.5941 2.0728,2.6183 3.1092,5.6245 3.1092,9.0125 0,2.388 -0.5758,4.8002 -1.7152,7.2428 -1.1455,2.4425 -2.7153,4.285 -4.7214,5.5214 -2.0122,1.2425 -4.2487,1.8667 -6.7033,1.8667 -4.0123,0 -7.2064,-1.6 -9.5701,-4.8002 -2.0001,-2.697 -2.9941,-5.7154 -2.9941,-9.0731 0,-2.4425 0.6061,-4.8668 1.8183,-7.2851 1.2061,-2.4122 2.8062,-4.1941 4.782,-5.3518 1.9758,-1.1515 4.0729,-1.7273 6.2791,-1.7273 m -20.407,-13.9279 0,35.3288 c 0,1.6728 0.1152,2.7759 0.3637,3.3153 0.2364,0.5394 0.6061,0.9576 1.1152,1.2364 0.503,0.2788 1.4425,0.4182 2.8183,0.4182 l 0,1.0485 -13.0551,0 0,-1.0485 c 1.2243,0 2.0546,-0.1273 2.5031,-0.3758 0.4425,-0.2545 0.794,-0.6667 1.0486,-1.2485 0.2424,-0.5819 0.3757,-1.6971 0.3757,-3.3456 l 0,-24.1889 c 0,-3.0062 -0.073,-4.8547 -0.2,-5.5457 -0.1394,-0.6849 -0.3576,-1.1576 -0.6545,-1.4061 -0.3091,-0.2485 -0.6849,-0.3758 -1.1516,-0.3758 -0.5091,0 -1.1455,0.1515 -1.9213,0.4607 l -0.4909,-1.0183 7.9397,-3.2547 1.3091,0 z m -46.0019,23.0556 12.3278,0 c -0.103,-1.7031 -0.303,-2.9032 -0.6121,-3.6002 -0.4849,-1.091 -1.2061,-1.9395 -2.1638,-2.5637 -0.9576,-0.6182 -1.9637,-0.9274 -3.0122,-0.9274 -1.6122,0 -3.0486,0.6243 -4.3153,1.8729 -1.2728,1.2485 -2.0122,2.994 -2.2244,5.2184 m 0,1.6909 c -0.024,3.9517 0.9395,7.0549 2.8789,9.3034 1.9335,2.2486 4.2123,3.3759 6.8306,3.3759 1.7456,0 3.2608,-0.4848 4.5517,-1.4424 1.2849,-0.9577 2.3698,-2.6062 3.2426,-4.9275 l 0.9031,0.5818 c -0.4061,2.6547 -1.5941,5.073 -3.5517,7.2549 -1.9577,2.1819 -4.4123,3.2728 -7.3518,3.2728 -3.2002,0 -5.9397,-1.2485 -8.2186,-3.7395 -2.2788,-2.491 -3.4122,-5.8427 -3.4122,-10.0489 0,-4.5517 1.1576,-8.1034 3.5032,-10.655 2.3334,-2.5456 5.2608,-3.8244 8.7943,-3.8244 2.9819,0 5.4366,0.9879 7.3578,2.9516 1.9153,1.9698 2.879,4.6002 2.879,7.8973 l -18.4069,0 z m -37.0742,13.7521 c 2.4607,0.5394 4.5214,0.8122 6.1942,0.8122 4.4911,0 8.2306,-1.5819 11.1944,-4.7396 2.9637,-3.1577 4.4486,-7.4428 4.4486,-12.849 0,-5.4487 -1.4849,-9.7398 -4.4486,-12.8794 -2.9638,-3.1395 -6.7761,-4.7153 -11.4248,-4.7153 -1.7515,0 -3.7395,0.2788 -5.9638,0.8425 l 0,33.5286 z m -11.2551,2.8486 0,-1.0727 1.485,0 c 1.6667,0 2.8486,-0.5395 3.5456,-1.6001 0.4242,-0.6425 0.6424,-2.0789 0.6424,-4.3032 l 0,-25.4738 c 0,-2.4607 -0.2788,-4.0002 -0.8121,-4.6244 -0.7577,-0.8546 -1.885,-1.2789 -3.3759,-1.2789 l -1.485,0 0,-1.0728 16.0553,0 c 5.8851,0 10.3701,0.6667 13.4429,2.0001 3.0668,1.3395 5.5397,3.5699 7.4185,6.6912 1.8668,3.1274 2.8062,6.7276 2.8062,10.8186 0,5.4851 -1.6728,10.0732 -5.0002,13.7521 -3.7456,4.1093 -9.4428,6.1639 -17.0977,6.1639 l -17.625,0 z"
         style="fill:#e8c453;fill-opacity:1;fill-rule:nonzero;stroke:none"
         id="path404188" />
      <path
         inkscape:connector-curvature="0"
         d="m 7095.9139,-2071.7117 0,16.0188 -1.697,0 c -1.2971,-5.0305 -2.9699,-8.4488 -5.0063,-10.267 -2.0304,-1.8183 -4.6244,-2.7214 -7.7761,-2.7214 -2.4001,0 -4.3335,0.6364 -5.8124,1.9031 -1.4606,1.2607 -2.194,2.6668 -2.194,4.2063 0,1.9213 0.5394,3.5638 1.6364,4.9335 1.0546,1.4001 3.2123,2.891 6.473,4.4669 l 7.4973,3.6425 c 6.9458,3.3941 10.4186,7.861 10.4186,13.4067 0,4.285 -1.6121,7.7336 -4.8426,10.3458 -3.2425,2.6244 -6.8669,3.9335 -10.8732,3.9335 -2.8728,0 -6.1578,-0.5151 -9.8549,-1.5455 -1.1334,-0.3394 -2.0607,-0.5152 -2.7759,-0.5152 -0.7818,0 -1.4001,0.4486 -1.8486,1.3395 l -1.6909,0 0,-16.7946 1.6909,0 c 0.9637,4.8002 2.7941,8.4064 5.4972,10.8368 2.7032,2.4364 5.7336,3.6486 9.0913,3.6486 2.3638,0 4.2911,-0.697 5.776,-2.0789 1.4971,-1.3879 2.2304,-3.0607 2.2304,-5.0123 0,-2.3637 -0.8303,-4.3456 -2.4789,-5.9578 -1.6667,-1.6061 -4.982,-3.6426 -9.9458,-6.1033 -4.9578,-2.4668 -8.2186,-4.6972 -9.758,-6.6851 -1.5395,-1.9456 -2.3031,-4.4123 -2.3031,-7.3943 0,-3.8668 1.3212,-7.1033 3.9759,-9.7034 2.6486,-2.6001 6.0851,-3.9032 10.2974,-3.9032 1.8485,0 4.085,0.394 6.7215,1.1819 1.7455,0.5091 2.9152,0.7697 3.491,0.7697 0.5516,0 0.9879,-0.1212 1.291,-0.3576 0.3091,-0.2364 0.6606,-0.7697 1.0728,-1.594 l 1.697,0 z m -61.5723,3.3395 c -1.8122,0 -3.6365,0.5455 -5.4669,1.6122 -1.8364,1.0849 -3.3152,2.9759 -4.4426,5.679 -1.1273,2.7032 -1.7031,6.1821 -1.7031,10.4247 0,6.8488 1.3637,12.7521 4.0911,17.7159 2.7153,4.9639 6.3033,7.4488 10.758,7.4488 3.3153,0 6.0609,-1.3698 8.2125,-4.1093 2.1637,-2.7395 3.2365,-7.4488 3.2365,-14.1218 0,-8.3518 -1.794,-14.9279 -5.3881,-19.722 -2.4365,-3.285 -5.5275,-4.9275 -9.2974,-4.9275 m 1.594,-3.3395 c 7.1155,0 12.8369,2.7031 17.1523,8.1155 3.6607,4.6184 5.4911,9.9337 5.4911,15.9219 0,4.2062 -1.0121,8.473 -3.0244,12.7884 -2.0303,4.3092 -4.8002,7.5639 -8.3518,9.7519 -3.5335,2.194 -7.4852,3.291 -11.8429,3.291 -7.0852,0 -12.7097,-2.8243 -16.8856,-8.4791 -3.5274,-4.7578 -5.2972,-10.0974 -5.2972,-16.0188 0,-4.3154 1.0728,-8.6065 3.2183,-12.8672 2.1335,-4.2608 4.9578,-7.4064 8.4489,-9.4489 3.491,-2.0365 7.1882,-3.0547 11.0913,-3.0547 m -78.0153,1.3879 22.1403,0 0,1.8971 -1.4425,0 c -1.3273,0 -2.3516,0.3273 -3.0486,0.9818 -0.7091,0.6425 -1.0546,1.5213 -1.0546,2.6123 0,1.2061 0.3576,2.6243 1.0728,4.2668 l 10.9398,25.9829 10.9944,-26.9587 c 0.7819,-1.9213 1.1758,-3.3759 1.1758,-4.3638 0,-0.4849 -0.1333,-0.8728 -0.406,-1.1819 -0.3758,-0.5151 -0.8546,-0.8667 -1.4425,-1.0546 -0.5758,-0.1878 -1.7698,-0.2848 -3.5396,-0.2848 l 0,-1.8971 15.3522,0 0,1.8971 c -1.7758,0.1394 -3.0123,0.497 -3.7032,1.0788 -1.1879,1.0304 -2.2728,2.7456 -3.2304,5.1396 l -16.6916,40.3653 -2.1032,0 -16.7946,-39.6986 c -0.7455,-1.8485 -1.4667,-3.1759 -2.1577,-3.982 -0.6788,-0.8061 -1.5576,-1.4849 -2.6122,-2.0304 -0.5879,-0.303 -1.7273,-0.5939 -3.4486,-0.8727 l 0,-1.8971 z m -14.837,-25.9889 c 1.4425,0 2.6607,0.5091 3.6729,1.5213 1.0061,1.0061 1.5091,2.2303 1.5091,3.6668 0,1.4364 -0.503,2.6728 -1.5091,3.6971 -1.0122,1.0303 -2.2304,1.5455 -3.6729,1.5455 -1.4364,0 -2.6668,-0.5152 -3.6971,-1.5455 -1.0243,-1.0243 -1.5395,-2.2607 -1.5395,-3.6971 0,-1.4365 0.5031,-2.6607 1.5092,-3.6668 1.0121,-1.0122 2.2546,-1.5213 3.7274,-1.5213 m 4.2608,24.601 0,37.7955 c 0,2.9456 0.2121,4.9093 0.6424,5.879 0.4304,0.9819 1.0667,1.7031 1.8971,2.188 0.8424,0.4788 2.3698,0.7152 4.6002,0.7152 l 0,1.8486 -22.8555,0 0,-1.8486 c 2.297,0 3.8426,-0.2243 4.6184,-0.6606 0.8,-0.4485 1.4121,-1.1819 1.8788,-2.2123 0.4606,-1.0242 0.697,-3.0001 0.697,-5.9093 l 0,-18.128 c 0,-5.0972 -0.1515,-8.4004 -0.4606,-9.9095 -0.2424,-1.097 -0.6182,-1.8607 -1.1334,-2.285 -0.5152,-0.4303 -1.2122,-0.6424 -2.1092,-0.6424 -0.9455,0 -2.1213,0.2545 -3.491,0.7697 l -0.7213,-1.8485 14.1764,-5.7518 2.2607,0 z m -29.274,-24.601 0,62.3965 c 0,2.9456 0.2122,4.9032 0.6425,5.8609 0.4303,0.9515 1.0849,1.6849 1.9819,2.1758 0.8849,0.497 2.5516,0.7455 4.976,0.7455 l 0,1.8486 -23.0555,0 0,-1.8486 c 2.1576,0 3.6243,-0.2243 4.4183,-0.6606 0.7819,-0.4485 1.4001,-1.1819 1.8486,-2.2123 0.4364,-1.0242 0.6606,-3.0001 0.6606,-5.9093 l 0,-42.723 c 0,-5.3032 -0.1212,-8.57 -0.3576,-9.7822 -0.2364,-1.2182 -0.6182,-2.0486 -1.1576,-2.491 -0.5273,-0.4425 -1.2001,-0.6667 -2.0243,-0.6667 -0.897,0 -2.0244,0.2727 -3.388,0.8182 l -0.8789,-1.8001 14.0249,-5.7517 2.3091,0 z m -57.9296,5.5457 c -6.2245,0 -11.2248,2.3152 -14.9946,6.9396 -4.6911,5.7457 -7.0306,14.1703 -7.0306,25.2617 0,11.3702 2.4304,20.116 7.2912,26.2435 3.7274,4.6548 8.6549,6.9882 14.7885,6.9882 6.5397,0 11.9338,-2.5516 16.2007,-7.6549 4.2608,-5.1032 6.3942,-13.146 6.3942,-24.1343 0,-11.9157 -2.3395,-20.8009 -7.0367,-26.6557 -3.7638,-4.6547 -8.964,-6.9881 -15.6127,-6.9881 m 0.9818,-3.7456 c 9.0368,0 16.8613,3.4365 23.4919,10.2973 6.6185,6.867 9.9338,15.431 9.9338,25.6981 0,10.5822 -3.3335,19.3644 -10.0065,26.3526 -6.6791,6.9821 -14.7643,10.4732 -24.2435,10.4732 -9.5882,0 -17.6431,-3.4123 -24.1646,-10.2186 -6.5275,-6.8124 -9.7822,-15.631 -9.7822,-26.4496 0,-11.055 3.7698,-20.0797 11.2974,-27.0618 6.5457,-6.0608 14.3582,-9.0912 23.4737,-9.0912"
         style="fill:#e8c453;fill-opacity:1;fill-rule:nonzero;stroke:none"
         id="path404192" />
      <path
         inkscape:connector-curvature="0"
         d="m 6900.264,-1982.9601 0.8364,-0.1758 c 4.279,-1.6061 0.3818,-10.8428 -7.6064,-17.8371 0,0 -0.4545,14.2734 4.0729,17.4735 -3.5092,-0.6485 -6.9215,-1.3455 -10.255,-2.085 l 0.5637,-0.1151 c 4.279,-1.6061 0.3818,-10.8368 -7.6124,-17.8371 0,0 -0.4304,13.5036 3.7032,17.2007 -10.4975,-2.4365 -20.1403,-5.2426 -28.9649,-8.3216 0.5455,-0.03 1.1273,-0.1454 1.7577,-0.3757 5.4062,-2.0304 0.4788,-13.6915 -9.6126,-22.5282 0,0 -0.5515,17.1825 4.7275,21.7827 -13.2551,-4.8245 -24.6556,-10.2247 -34.359,-15.7764 0.8425,0.2545 1.788,0.3697 2.8789,0.297 8.2064,-0.5698 6.2245,-18.4978 -3.9638,-34.6621 0,0 -8.6003,25.8011 -1.4243,32.8923 -5.1457,-3.0486 -9.8004,-6.1154 -13.9945,-9.1459 l 0.6667,0.049 c 8.77,0.042 8.3034,-19.0735 -1.0485,-36.9712 0,0 -9.5338,22.0797 -5.97,32.1104 -4.5456,-3.6244 -8.4246,-7.1215 -11.7096,-10.364 0.5576,0.1939 1.1516,0.3454 1.8183,0.4545 9.2792,1.388 11.7156,-18.9341 4.5517,-39.3168 0,0 -14.3036,23.2677 -10.9823,34.0742 -7.6306,-8.3579 -10.7519,-14.0794 -10.7519,-14.0794 l -2.6244,1.1273 c 31.868,48.7354 89.6037,64.4815 135.345,74.6031 45.7353,10.1277 91.4766,6.3761 91.4766,6.3761 -43.8443,0.697 -85.7188,-7.6428 -91.519,-8.8489"
         style="fill:#fff799;fill-opacity:1;fill-rule:nonzero;stroke:none"
         id="path404196" />
      <path
         inkscape:connector-curvature="0"
         d="m 6757.8405,-2056.2165 c 5.8608,-4.9881 -9.7459,-20.9948 -28.1163,-27.3708 0,0 10.4974,42.3654 28.1163,27.3708"
         style="fill:#fff799;fill-opacity:1;fill-rule:nonzero;stroke:none"
         id="path404200" />
      <path
         inkscape:connector-curvature="0"
         d="m 6770.5883,-2058.8421 c 6.6548,2.9577 15.3703,-11.9944 9.3761,-40.4865 0,0 -26.2435,32.9892 -9.3761,40.4865"
         style="fill:#fff799;fill-opacity:1;fill-rule:nonzero;stroke:none"
         id="path404204" />
      <path
         inkscape:connector-curvature="0"
         d="m 6773.5866,-2032.9749 c 4.8244,-6.7518 -11.9944,-15.7461 -32.6195,-17.2431 0,0 23.2494,30.3649 32.6195,17.2431"
         style="fill:#fff799;fill-opacity:1;fill-rule:nonzero;stroke:none"
         id="path404208" />
      <path
         inkscape:connector-curvature="0"
         d="m 6882.7687,-1972.4215 c 0,0 20.8251,2.1152 18.3099,-6.37 -1.3031,-4.3759 -10.7823,-1.1212 -18.3099,6.37"
         style="fill:#fff799;fill-opacity:1;fill-rule:nonzero;stroke:none"
         id="path404212" />
      <path
         inkscape:connector-curvature="0"
         d="m 6837.608,-2002.8573 c 6.2003,-0.4303 4.7032,-13.9763 -3.0001,-26.189 0,0 -9.0004,26.989 3.0001,26.189"
         style="fill:#fff799;fill-opacity:1;fill-rule:nonzero;stroke:none"
         id="path404216" />
      <path
         inkscape:connector-curvature="0"
         d="m 6871.9488,-1990.9368 c 5.4063,-2.0243 0.4788,-13.6915 -9.6125,-22.5282 0,0 -0.8607,26.4253 9.6125,22.5282"
         style="fill:#fff799;fill-opacity:1;fill-rule:nonzero;stroke:none"
         id="path404220" />
      <path
         inkscape:connector-curvature="0"
         d="m 6886.0422,-1981.8134 c -1.4849,-4.982 -12.2793,-1.2728 -20.8554,7.2609 0,0 23.7161,2.4062 20.8554,-7.2609"
         style="fill:#fff799;fill-opacity:1;fill-rule:nonzero;stroke:none"
         id="path404224" />
      <path
         inkscape:connector-curvature="0"
         d="m 6872.1573,-1985.6663 c -1.6243,-5.4608 -13.449,-1.4001 -22.8373,7.9458 0,0 25.9708,2.6365 22.8373,-7.9458"
         style="fill:#fff799;fill-opacity:1;fill-rule:nonzero;stroke:none"
         id="path404228" />
      <path
         inkscape:connector-curvature="0"
         d="m 6854.4245,-1990.3283 c -1.891,-6.3578 -15.6491,-1.6243 -26.5708,9.2428 0,0 30.2194,3.0729 26.5708,-9.2428"
         style="fill:#fff799;fill-opacity:1;fill-rule:nonzero;stroke:none"
         id="path404232" />
      <path
         inkscape:connector-curvature="0"
         d="m 6836.9747,-1996.6765 c -0.8667,-6.7882 -15.6794,-4.2668 -28.6315,4.9941 0,0 30.2982,8.1701 28.6315,-4.9941"
         style="fill:#fff799;fill-opacity:1;fill-rule:nonzero;stroke:none"
         id="path404236" />
      <path
         inkscape:connector-curvature="0"
         d="m 6815.7398,-2005.192 c -0.8788,-8.6428 -18.6977,-8.4913 -34.4499,0.4303 0,0 36.1166,16.3159 34.4499,-0.4303"
         style="fill:#fff799;fill-opacity:1;fill-rule:nonzero;stroke:none"
         id="path404240" />
      <path
         inkscape:connector-curvature="0"
         d="m 6794.3529,-2017.6937 c 0.5697,-8.667 -17.0371,-11.4732 -34.0438,-5.2851 0,0 32.9104,22.0797 34.0438,5.2851"
         style="fill:#fff799;fill-opacity:1;fill-rule:nonzero;stroke:none"
         id="path404244" />
    </g>
  </g>
</svg>
