<svg xmlns="http://www.w3.org/2000/svg" width="533.438" height="141.129"><path d="M2.9 135.26l.76 4.204.494-.09c.344-.064.597-.042.766.06.163.1.263.254.3.46.04.21-.003.387-.122.54-.12.154-.35.26-.693.322l-1.88.337c-.342.06-.593.046-.76-.06-.164-.1-.264-.252-.303-.462-.035-.2.004-.384.124-.536.12-.15.35-.26.69-.324l-.98-5.44-.217.038c-.348.06-.6.04-.762-.058-.166-.1-.268-.26-.305-.464-.037-.21.005-.39.12-.54.12-.152.353-.257.697-.318l1.583-.285 4.585 4.92-.752-4.186-.502.092c-.34.06-.595.038-.758-.062-.164-.1-.266-.26-.303-.463-.036-.207 0-.388.122-.537.12-.153.35-.26.693-.32l1.878-.338c.343-.063.597-.044.76.056.164.102.266.256.303.463.038.204-.004.387-.123.538-.12.152-.35.26-.693.32l1.23 6.826-1.352.24L2.9 135.26z" fill="#ef5ba1"/><path d="M26.268 48.142l.673-1.702 2.73 3.2c.16.188.208.363.144.524-.04.11-.114.185-.214.234-.1.05-.193.056-.28.02-.064-.025-.142-.073-.237-.142l-2.815-2.134zM22.167 53.81l-2.927.025 2.112 2.03.815-2.055zm1.48-.024l-1.224 3.092.653.615.122-.307c.122-.308.27-.503.44-.586.17-.085.348-.09.538-.014.188.073.313.2.378.378.07.175.042.42-.08.724l-.678 1.712c-.122.31-.268.503-.437.585-.17.086-.352.09-.542.015-.19-.076-.32-.205-.383-.388-.066-.185-.034-.434.098-.744l-4.185-3.972-.332.834c-.12.305-.266.5-.436.583-.17.085-.35.087-.54.014-.19-.075-.32-.202-.385-.378-.068-.18-.04-.423.08-.727l1.096-2.75 7.256-.057c.12-.298.232-.483.334-.552.212-.134.432-.158.654-.07.185.073.314.197.378.373.07.173.04.417-.078.722l-.678 1.713c-.122.305-.27.5-.44.585-.165.083-.348.088-.538.013-.186-.075-.31-.2-.378-.375-.07-.178-.04-.422.08-.727l.125-.31-.898-.002z" fill="#00aeef"/><path d="M19.66 66.126l-4.978-1.97c-.112.268-.25.444-.422.524-.166.083-.344.085-.532.012-.19-.075-.32-.202-.383-.378-.068-.18-.04-.422.08-.727l1.062-2.66c.163-.415.4-.79.712-1.124.306-.332.628-.574.96-.722.248-.112.565-.204.956-.275.387-.076.756-.1 1.1-.08.346.022.74.122 1.182.297l.61.242c.54.214.98.49 1.324.836.342.346.588.722.732 1.122.146.4.232.756.25 1.066.033.49-.082 1.065-.343 1.724l-1.013 2.558c-.12.305-.266.5-.437.583-.166.083-.35.088-.54.012-.184-.073-.31-.197-.382-.375-.066-.178-.046-.4.06-.664m.506-1.273l.534-1.35c.203-.508.28-.915.237-1.23-.056-.412-.198-.758-.427-1.046-.227-.286-.573-.522-1.04-.707l-.604-.24c-.402-.158-.783-.22-1.144-.187-.57.053-1 .195-1.294.427-.296.23-.532.57-.71 1.024l-.53 1.34 4.978 1.97z" fill="#ec008c"/><path d="M13.04 68.304l4.98 1.97.507-1.285c.122-.306.268-.5.437-.584.17-.085.348-.087.538-.012.188.073.315.2.378.373.07.176.042.42-.08.727l-1.522 3.844c-.12.307-.266.502-.436.585-.17.085-.35.088-.54.012-.187-.073-.31-.197-.377-.375-.07-.178-.042-.42.08-.727l.51-1.283-4.98-1.97-.507 1.282c-.122.308-.27.503-.44.588-.168.083-.348.088-.538.012-.19-.078-.32-.202-.386-.38-.065-.178-.04-.42.083-.727l1.527-3.84c.122-.306.268-.5.432-.584.17-.087.346-.09.54-.014.19.076.318.2.384.378.066.176.04.42-.083.725l-.507 1.284z" fill="#00aeef"/><path d="M10.265 78.614l3.85 1.524.182-.46c.122-.306.266-.5.44-.586.167-.083.345-.086.535-.013.188.075.315.202.38.375.067.18.04.422-.082.727l-.66 1.67c-.123.305-.267.503-.438.586-.168.083-.348.087-.54.012-.182-.073-.308-.195-.377-.373-.068-.176-.05-.398.056-.666l-4.98-1.97-.077.198c-.12.307-.265.502-.436.585-.168.083-.35.088-.54.012-.192-.075-.32-.202-.387-.378-.066-.178-.04-.42.083-.726l.59-1.467 6.39-1.235-3.83-1.514-.182.46c-.118.303-.265.498-.435.58-.17.087-.35.09-.54.016-.19-.076-.32-.205-.385-.378-.066-.178-.04-.42.08-.727l.67-1.668c.12-.307.267-.502.43-.585.17-.086.35-.09.54-.015.187.073.312.2.382.376.07.178.054.395-.05.66l6.25 2.474-.498 1.263-6.42 1.244z" fill="#ec008c"/><path d="M7.897 82.594l3.607 1.43c.788.31 1.344.855 1.67 1.638.327.785.335 1.573.02 2.368-.156.393-.373.734-.646 1.027-.278.29-.605.52-.983.688-.378.17-.742.273-1.095.31-.35.038-.773-.042-1.26-.232L5.6 88.393c-.107.27-.246.444-.417.527-.17.078-.35.086-.536.01-.192-.076-.32-.202-.384-.376-.064-.173-.037-.414.087-.726l.654-1.673c.122-.305.266-.503.437-.586.168-.086.348-.088.54-.01.19.075.32.197.384.378.068.178.04.417-.08.724l-.184.46 3.722 1.47c.378.15.778.126 1.195-.074.418-.203.716-.527.89-.973.12-.298.162-.605.123-.922-.04-.315-.156-.61-.36-.883-.13-.17-.315-.305-.56-.4l-3.72-1.473-.18.46c-.123.306-.27.5-.44.586-.166.083-.35.086-.54.01-.19-.075-.32-.202-.385-.375-.065-.18-.04-.422.083-.727l.67-1.67c.12-.305.265-.5.434-.585.165-.083.343-.088.536-.012.185.073.312.197.383.375.068.174.05.398-.056.666" fill="#00aeef"/><path d="M13.422 132.087l.98 5.443 1.393-.253c.343-.06.597-.042.76.063.166.098.27.254.305.46.037.208-.002.386-.122.538-.122.156-.35.258-.692.32l-4.17.753c-.342.062-.596.042-.76-.058-.165-.102-.267-.256-.304-.463-.04-.204.003-.392.122-.54.122-.15.35-.26.695-.322l1.39-.25-.98-5.442-1.39.248c-.345.06-.6.042-.762-.058-.166-.1-.268-.256-.307-.46-.036-.21.008-.39.127-.542.118-.154.35-.26.693-.322l4.168-.75c.34-.062.593-.043.76.06.167.1.264.253.303.463.038.202 0 .388-.123.536-.117.155-.35.265-.69.323l-1.395.254z" fill="#00b3f0"/><path d="M21.854 129.52c.066-.13.14-.236.23-.316.092-.07.196-.122.314-.144.2-.034.378.002.53.12.155.117.26.343.318.675l.212 1.178c.06.334.042.583-.063.75-.102.164-.25.262-.454.3-.186.03-.342.008-.472-.077-.13-.08-.25-.263-.353-.54-.066-.182-.16-.316-.27-.404-.223-.168-.51-.285-.864-.346-.353-.063-.694-.063-1.033-.003-.415.07-.78.232-1.095.478-.317.243-.57.594-.764 1.048-.192.458-.24.963-.14 1.526l.165.903c.122.67.465 1.18 1.03 1.543.565.36 1.28.464 2.14.308.515-.09.94-.24 1.27-.447.19-.12.386-.316.58-.6.116-.172.21-.286.284-.345.073-.056.163-.095.268-.114.186-.03.36.008.525.12.163.117.265.27.295.456.036.193-.02.415-.17.66-.22.367-.528.68-.928.94-.54.35-1.158.585-1.863.712-.822.15-1.59.112-2.312-.107-.578-.177-1.11-.52-1.588-1.038-.48-.517-.782-1.122-.907-1.812l-.17-.94c-.132-.723-.08-1.428.14-2.113.225-.686.603-1.252 1.135-1.698.54-.445 1.136-.728 1.805-.85.402-.073.787-.09 1.153-.063.366.032.72.112 1.054.244" fill="#ef5ba1"/><path d="M30.82 132.27l-1.62-2.564-.63 2.97 2.25-.407zm.81 1.282l-3.37.605-.194.912.34-.06c.34-.063.59-.04.76.06.16.1.263.257.302.46.037.21-.007.387-.124.538-.12.152-.352.26-.693.32l-1.82.33c-.352.063-.608.046-.776-.057-.164-.1-.26-.253-.3-.462-.037-.208.002-.39.124-.534.117-.16.354-.266.702-.33l1.227-5.838-.91.163c-.343.063-.597.038-.763-.062-.166-.1-.266-.253-.302-.46-.042-.208.002-.388.122-.54.117-.153.35-.255.695-.32l2.957-.533 4.01 6.326c.348-.062.58-.06.687.006.222.134.35.31.388.512.04.207-.003.385-.122.542-.12.153-.354.256-.705.32l-1.827.328c-.348.064-.607.05-.77-.056-.166-.1-.268-.253-.303-.463-.04-.204 0-.386.122-.538.117-.15.354-.263.705-.324l.337-.06-.5-.786z" fill="#00b3f0"/><path d="M37.098 130.202l1.088-.198c.402-.07.748-.197 1.044-.378.4-.24.65-.466.765-.668.115-.21.16-.4.125-.58-.047-.262-.232-.48-.556-.654-.32-.176-.744-.212-1.286-.115l-1.594.287.414 2.305zm.25 1.382l.316 1.756.5-.088c.34-.063.595-.04.76.06.164.097.267.253.303.46.037.21-.005.388-.122.54-.122.153-.353.26-.692.32l-2.1.38c-.342.057-.598.04-.76-.06-.164-.102-.27-.256-.303-.463-.04-.208.002-.39.12-.538.12-.15.353-.26.694-.322l.22-.04-.98-5.447-.22.042c-.342.063-.598.04-.76-.06-.165-.1-.267-.255-.306-.462-.037-.207.005-.388.127-.54.117-.15.35-.255.69-.32l3.14-.564c.98-.177 1.78-.072 2.406.316.63.387 1.003.93 1.13 1.624.075.434.02.85-.17 1.246-.19.402-.518.788-.984 1.154.34.204.712.48 1.115.824.257.224.608.578 1.06 1.06.346-.063.58-.058.7.01.21.132.336.303.372.51.04.207-.005.386-.124.54-.117.155-.354.26-.702.324l-.71.124c-1.434-1.54-2.55-2.417-3.35-2.636l-1.37.248z" fill="#ef5ba1"/><path d="M49.31 128.94l-1.62-2.563-.625 2.97 2.246-.407zm.813 1.278l-3.37.61-.195.912.34-.06c.34-.065.594-.043.76.06.16.1.266.253.302.458.037.21-.005.388-.122.542-.122.15-.35.258-.692.32l-1.824.328c-.35.06-.608.044-.77-.056-.17-.102-.27-.256-.306-.463-.036-.208 0-.39.122-.535.12-.154.354-.266.707-.33l1.227-5.84-.912.166c-.344.06-.598.04-.763-.058-.166-.102-.27-.258-.303-.463-.036-.21.003-.39.122-.54.12-.154.35-.26.695-.322l2.957-.532 4.012 6.324c.35-.064.582-.06.69.005.22.136.348.31.384.512.04.212-.002.39-.12.54-.12.155-.355.26-.704.323l-1.827.33c-.35.063-.607.046-.773-.057-.163-.1-.266-.253-.305-.463-.034-.205.008-.388.125-.537.12-.153.353-.26.704-.324l.337-.064-.497-.788z" fill="#00b3f0"/><path d="M60.182 128.12l.334 1.855c-.566.448-1.06.775-1.476.977-.417.205-.88.352-1.39.444-.707.127-1.385.137-2.024.034-.502-.078-.912-.217-1.23-.414-.32-.198-.636-.52-.953-.963-.317-.444-.53-.97-.636-1.57l-.18-.998c-.166-.927-.035-1.803.4-2.627.577-1.124 1.52-1.8 2.828-2.036.376-.07.744-.093 1.098-.08.353.016.697.07 1.03.167.157-.2.323-.313.496-.347.202-.034.375.005.53.117.15.12.255.347.313.68l.164.898c.058.337.04.585-.066.75-.104.165-.258.265-.46.3-.166.03-.312.006-.45-.07-.1-.053-.206-.19-.306-.41-.105-.224-.203-.365-.29-.433-.15-.108-.383-.188-.713-.234-.32-.043-.68-.03-1.06.037-.55.098-1.01.3-1.37.593-.258.224-.473.56-.644 1.022-.168.458-.21.934-.122 1.42l.183 1.01c.132.745.45 1.272.95 1.584.504.307 1.226.378 2.162.207.638-.112 1.196-.34 1.682-.67l-.178-.996-1.41.256c-.346.06-.6.042-.76-.06-.17-.1-.27-.254-.308-.464-.037-.206.007-.384.124-.535.12-.154.352-.258.695-.32l2.79-.504c.17-.03.344.006.51.106.163.1.263.256.302.458.037.21-.004.388-.124.542-.12.15-.266.243-.44.275" fill="#ef5ba1"/><path d="M67.386 122.37l.713 3.945c.152.863-.023 1.646-.53 2.36-.505.713-1.19 1.15-2.056 1.305-.427.078-.842.076-1.247-.01-.405-.087-.78-.246-1.134-.49-.353-.24-.64-.505-.865-.792-.225-.288-.386-.705-.48-1.237l-.71-3.947c-.344.063-.6.04-.76-.06-.167-.1-.27-.255-.304-.46-.04-.207.003-.385.122-.54.117-.155.35-.26.693-.318l1.876-.342c.305-.05.537-.03.703.07.165.106.262.257.3.467.038.205 0 .385-.12.54-.12.148-.33.253-.635.306l-.497.09.734 4.08c.075.418.312.752.717 1.013.4.255.847.34 1.335.252.327-.056.62-.19.873-.395.26-.205.45-.473.578-.8.078-.205.095-.444.047-.71l-.734-4.08-.5.09c-.304.052-.535.03-.704-.07-.163-.1-.263-.258-.302-.463-.037-.208.005-.388.122-.537.12-.153.33-.256.634-.312l1.88-.34c.346-.06.595-.043.76.062.164.1.267.254.303.46.037.206-.004.39-.12.54-.12.154-.35.26-.697.324" fill="#00b3f0"/><path d="M74.234 124.453l-1.622-2.56-.624 2.965 2.246-.405zm.81 1.28l-3.373.607-.19.912.34-.063c.34-.062.597-.04.76.062.164.1.266.254.3.46.04.21-.005.387-.12.54-.12.15-.35.26-.692.317l-1.824.33c-.35.064-.61.045-.773-.055-.165-.103-.267-.254-.304-.46-.04-.208.002-.39.124-.542.117-.152.354-.26.703-.325l1.23-5.84-.913.165c-.344.06-.595.04-.764-.058-.165-.1-.263-.26-.3-.466-.04-.208 0-.386.12-.54.122-.15.35-.26.697-.32l2.954-.53 4.012 6.325c.352-.066.58-.063.69.005.22.134.35.305.387.512.04.207-.005.385-.12.54-.122.153-.358.26-.71.323l-1.824.327c-.35.06-.605.044-.773-.056-.163-.102-.263-.256-.302-.463-.037-.208.005-.388.122-.534.12-.158.353-.267.707-.328l.336-.066-.5-.783z" fill="#ef5ba1"/><path d="M86.49 118.927l.98 5.446.94-.17c.344-.064.595-.04.76.063.167.097.27.253.306.46.036.208-.008.386-.125.54-.118.15-.347.258-.69.317l-3.242.585c-.347.063-.598.044-.764-.06-.163-.1-.263-.252-.302-.46-.037-.204.005-.387.122-.536.12-.156.35-.263.695-.324l.923-.166-.98-5.446-1.515.276.234 1.304c.064.342.044.595-.058.76-.1.165-.254.27-.46.304-.21.04-.386-.003-.538-.125-.15-.12-.26-.35-.324-.69l-.48-2.687 7.177-1.293.484 2.687c.06.34.042.596-.058.76-.1.167-.254.265-.464.3-.21.043-.387 0-.536-.12-.154-.118-.264-.352-.325-.693l-.235-1.303-1.524.27z" fill="#00b3f0"/><path d="M93.103 120.118l1.082-.195c.405-.073.752-.2 1.044-.378.397-.24.653-.466.765-.668.115-.212.16-.405.124-.586-.047-.257-.23-.474-.552-.652-.322-.173-.75-.207-1.29-.112l-1.592.287.417 2.305zm.248 1.383l.316 1.757.498-.088c.34-.064.595-.043.763.06.16.097.263.254.297.458.04.208-.002.388-.12.54-.12.153-.35.258-.69.32l-2.102.38c-.34.06-.597.043-.76-.06-.166-.102-.26-.255-.3-.463-.037-.204 0-.387.12-.534.116-.155.35-.262.692-.323l.222-.042-.98-5.443-.223.04c-.34.06-.597.038-.76-.06-.164-.1-.264-.258-.3-.463-.04-.208 0-.386.12-.54.116-.15.35-.258.692-.317l3.14-.568c.98-.178 1.78-.07 2.408.317.624.388 1.002.93 1.13 1.624.075.434.018.847-.174 1.25-.19.396-.518.784-.984 1.15.34.205.712.483 1.114.827.26.222.608.575 1.06 1.056.345-.062.584-.055.696.01.215.133.34.306.376.51.037.21-.003.386-.122.54-.12.153-.356.26-.702.324l-.712.127c-1.43-1.54-2.55-2.416-3.35-2.638l-1.365.25z" fill="#ef5ba1"/><path d="M102.886 115.976l.978 5.444 1.397-.252c.343-.058.596-.04.762.064.164.097.264.253.303.458.036.21-.008.386-.125.542-.12.15-.35.258-.692.317l-4.168.752c-.342.06-.595.042-.76-.058-.17-.103-.267-.256-.304-.466-.04-.205 0-.385.122-.532.12-.158.35-.263.693-.324l1.396-.254-.978-5.443-1.397.254c-.34.06-.594.038-.76-.062-.166-.1-.266-.256-.303-.464-.036-.207 0-.387.122-.54.12-.152.35-.257.69-.318l4.172-.75c.342-.062.595-.045.76.057.162.1.264.256.303.464.037.202-.004.385-.12.54-.123.147-.355.26-.694.316l-1.394.253z" fill="#00b3f0"/><path d="M113.204 114.12l.71 3.945c.153.863-.023 1.646-.527 2.36-.508.713-1.19 1.15-2.06 1.305-.423.076-.84.076-1.245-.01-.405-.085-.783-.243-1.136-.487-.352-.242-.64-.505-.86-.793-.228-.29-.387-.705-.484-1.24l-.71-3.945c-.346.06-.597.04-.76-.058-.167-.103-.27-.256-.306-.463-.036-.208.005-.386.127-.54.115-.153.346-.258.688-.32l1.88-.338c.304-.054.538-.032.704.07.163.1.263.257.302.464.037.203-.005.386-.122.537-.122.15-.33.256-.632.31l-.502.09.732 4.08c.078.42.32.753.722 1.012.402.255.85.34 1.336.252.327-.056.62-.19.873-.395.26-.205.45-.473.576-.8.08-.204.096-.443.05-.71l-.734-4.077-.503.088c-.305.054-.536.03-.702-.07-.162-.1-.265-.257-.3-.464-.038-.207 0-.388.123-.537.117-.15.327-.256.632-.312l1.877-.34c.347-.06.598-.043.764.062.163.1.266.256.305.464.037.203-.004.386-.126.537-.12.15-.35.26-.69.322" fill="#ef5ba1"/><path d="M117.753 114.58l.76 4.204.5-.09c.34-.064.596-.042.76.06.163.1.265.252.302.462.04.21-.005.385-.122.54-.117.152-.354.257-.692.318l-1.88.337c-.34.064-.592.047-.758-.055-.166-.1-.264-.254-.303-.466-.037-.204 0-.384.12-.535.12-.154.348-.264.69-.325l-.98-5.44-.218.036c-.344.064-.598.042-.76-.056-.165-.102-.265-.26-.304-.466-.036-.205.005-.385.122-.536.12-.154.35-.26.693-.32l1.583-.285 4.587 4.916-.75-4.183-.504.09c-.342.06-.596.042-.76-.058-.165-.1-.265-.26-.3-.465-.04-.207 0-.385.118-.54.122-.152.354-.257.695-.318l1.878-.34c.342-.06.596-.04.762.06.163.102.266.253.302.463.04.205-.002.387-.124.54-.117.147-.35.257-.693.318l1.234 6.824-1.352.244-4.605-4.936z" fill="#00b3f0"/><path d="M127.48 115.066l.367 2.037 1.422-.257c.345-.063.594-.04.762.06.166.1.266.255.305.46.037.21-.005.39-.124.54-.122.155-.35.26-.695.32l-3.024.545c-.342.064-.595.045-.76-.055-.165-.103-.265-.254-.3-.466-.038-.206.004-.387.12-.535.12-.156.352-.264.69-.325l.225-.04-.984-5.447-.222.044c-.34.063-.595.04-.758-.06-.163-.1-.266-.26-.302-.462-.037-.207.004-.388.122-.54.12-.152.348-.257.692-.318l6.534-1.17.378 2.106c.06.346.043.6-.057.76-.1.164-.256.264-.46.303-.21.04-.39-.002-.54-.12-.155-.12-.258-.35-.32-.697l-.13-.73-3.554.64.363 2.023 1.23-.222c-.062-.34-.057-.564.01-.67.135-.224.306-.355.513-.392.207-.036.385.005.54.125.15.12.255.35.316.69l.25 1.38c.062.344.043.593-.06.76-.1.164-.253.264-.46.3-.208.04-.41-.02-.615-.184-.103-.08-.183-.287-.247-.63l-1.23.226z" fill="#ef5ba1"/><path d="M137.836 113.002l-1.62-2.563-.626 2.967 2.246-.405zm.81 1.278l-3.373.607-.19.912.336-.06c.343-.063.595-.043.763.062.16.092.263.253.3.458.04.207-.005.388-.122.54-.12.153-.348.26-.692.32l-1.824.328c-.35.063-.607.046-.77-.054-.17-.102-.266-.256-.303-.466-.036-.204.003-.387.123-.536.117-.154.35-.26.705-.327l1.226-5.838-.912.163c-.344.06-.597.042-.76-.058-.164-.1-.266-.26-.303-.464-.04-.207.004-.385.12-.54.12-.152.35-.257.694-.318l2.96-.534 4.01 6.323c.35-.064.582-.06.692.007.22.134.346.307.383.512.036.21-.006.387-.123.54-.12.15-.354.256-.705.322l-1.826.33c-.347.06-.608.043-.77-.057-.167-.102-.267-.256-.306-.466-.036-.205.005-.388.125-.535.12-.153.353-.263.702-.324l.34-.062-.5-.788z" fill="#00b3f0"/><path d="M147.56 114.478c.035.195-.01.378-.13.54-.125.165-.318.27-.58.318-.262.046-.477.012-.65-.095-.173-.11-.278-.267-.312-.462-.034-.193.007-.373.127-.537.124-.162.317-.267.583-.316.263-.046.483-.017.656.09.168.113.27.266.307.464m-1.006-6.934l.366 4.25c.022.223-.022.406-.127.547-.103.143-.25.228-.44.265-.19.034-.358.002-.51-.093-.14-.097-.248-.254-.304-.468l-1.144-4.112c-.057-.21-.093-.35-.105-.415-.063-.353-.004-.656.167-.91.173-.248.417-.404.734-.46.31-.056.593.007.842.18.256.18.412.434.47.764.013.07.03.223.052.454" fill="#ef5ba1"/><path d="M61.313 55.43c-.8-.303-1.74-1.18-1.224-3.025.233-.858 1.435-1.785 3.12-1.72 1.72.062 3.444 1.127 4.766 2.96 1.3 1.796 2.285 4.776.693 6.115-1.596 1.337-3.133.72-3.504.77-.378.047-1.346-.116-2.372.257-1.025.378-2.464 1.456-3.146.13-.688-1.327.146-2.68 1.234-3.537.692-.54 1.553-1.524.43-1.95" fill="#ec008c"/><path d="M29.988 97.47c1.03-4.898 14.937-19.718 20.858-22.818 3.983-2.075 6.982-.402 9.175 1.288 2.19 1.695 4.027 2.69 5.788 2.422 1.763-.26 4.075-2.115 6.007-3.176 1.887-1.038 4.2-.658 5.838.28 1.234.708 3.795 1.876 4.84 2.17 1.564.457 2.996-.76 4.054-1.252 1.493-.703 3.25-.368 4.62.363 1.363.732 2.6 1.85 4.496 2.017 1.905.166 3.724-.758 5.902-.268 2.18.488 5.1 1.07 5.25 2.597.154 1.53-.443 3.136-2.675 3.253-1.653.083-3.406-1.226-4.49-1.36-1.094-.14-2.177 0-2.648.563-.463.562-2.57 2.235-3.916 1.423-1.573-.94-2.637-1.812-3.55-2.317-1.435-.778-3.184.63-4.26 1.76-1.072 1.123-3.175 1.45-5.213.743-1.91-.665-5.305-4.89-8.485-2.126-1.326 1.15-3.685 3.94-5.31 5.678-.538.573-2.882 1.646-4.323.54-1.434-1.118-4.17-2.233-5.19-3.25-1.853-1.86-4.665-2.692-7.955.503-1.222 1.19-7.733 9.947-11.88 13.184-2.877 2.245-7.642 1.142-6.932-2.22" fill="#f58220"/><path d="M57.024 58.206L46.598 59.91c-1.036.162-1.46-.88-.083-1.11 1.376-.228 9.868-1.074 10.38-1.064.51.005 2.056.12.13.47M56.517 61.835s-9.087 5.336-9.496 5.53c-.985.47-1.733-.443-.502-1.184 1.23-.738 9.136-4.604 9.616-4.838.61-.297 3.436-1.45.383.493M63.78 63.246s.567 8.885.552 9.263c-.027.923-1.048 1.157-1.14-.048-.09-1.212.04-8.655.048-9.106.01-.576.385-2.27.54-.11M59.095 63.507s-4.336 7.04-4.53 7.346c-.342.532-1.442.31-.864-.654.58-.964 4.644-6.573 4.912-6.897.35-.434 1.868-2.27.483.204M62.102 63.51s-.45 6.896-.478 7.192c-.042.53-1.112.846-1.07-.093.046-.945.955-6.688 1.024-7.04.09-.51.553-2.428.524-.06M57.887 62.552s-4.897 4.875-5.116 5.082c-.382.37-1.394-.107-.738-.78.656-.678 5.138-4.378 5.42-4.604.41-.32 2.028-1.444.435.302M57.06 59.956s-6.9 2.144-7.2 2.23c-.985.282-1.368-.903-.442-1.225.927-.32 6.53-1.467 7.322-1.56.38-.05 2.62-.342.32.556M60.923 63.498s-2.288 6.85-2.39 7.15c-.346.96-1.534.583-1.26-.36.287-.94 2.626-6.154 3.01-6.858.186-.337 1.257-2.324.64.068M65.51 63.232s1.525 7.09 1.58 7.404c.193 1.01-1.14 1.385-1.385.426-.236-.955-.824-6.7-.834-7.518-.008-.39-.062-2.683.64-.312M57.823 54.732s-7.516-1.64-7.848-1.683c-.79-.1-1.097.7-.073.933 1.02.237 7.385 1.122 7.77 1.178.493.067 2.715.228.15-.428M61.566 48.813s-1.48-6.607-1.576-6.885c-.236-.666-1.275-.57-1.092.334.193.9 2.01 6.285 2.12 6.61.138.42.943 2.23.548-.06M57.855 51.674s-6.394-5.475-6.677-5.71c-.498-.41-1.495.145-.634.906.86.758 6.55 4.924 6.91 5.158.474.31 2.518 1.617.4-.354M60.435 49.666s-2.42-5.685-2.537-5.926c-.446-.95-1.436-.412-1.126.363.314.786 2.914 5.375 3.082 5.656.244.4 1.283 1.89.58-.094M63.368 48.572s-.326-6.41-.356-6.68c-.13-1.085-1.243-.834-1.185.005.056.84.888 6.26.96 6.582.11.46.637 2.194.58.092M58.01 53.402s-6.98-3.54-7.29-3.685c-.537-.263-1.447.583-.508 1.078.944.5 7.063 2.932 7.443 3.073.55.202 2.68.86.354-.466M57.302 55.946s-7.992-.507-8.336-.522c-1.132-.04-1.127 1.395-.044 1.502 1.09.103 7.368-.156 8.238-.268.42-.05 2.868-.344.142-.712M59.004 50.708s-4.053-5.685-4.24-5.93c-.586-.79-1.606-.136-1.086.652.53.79 4.18 4.956 4.74 5.502.266.26 1.832 1.802.586-.224M71.92 56.113s10.06-1.187 10.486-1.234c1.043-.132 1.168-1.252-.22-1.093-1.39.163-9.787 1.685-10.274 1.84-.488.143-3.502.82.007.486M72.495 59.393s11.116 2.692 11.565 2.77c1.075.176 1.54-.907.158-1.28-1.385-.37-10.962-1.976-11.49-2.066-.672-.124-3.703-.45-.233.576M66.812 62.82s1.907 8.693 2.024 9.054c.283.883 1.327.827 1.083-.36-.247-1.188-2.428-8.305-2.557-8.736-.168-.55-1.024-2.002-.55.04M71.388 61.782s6.11 5.572 6.382 5.81c.476.416 1.47-.1.65-.867-.823-.77-6.278-5.036-6.622-5.275-.46-.32-2.424-1.668-.41.332M68.5 62.61s2.332 6.507 2.44 6.785c.19.495 1.31.5 1.004-.388-.303-.895-2.76-6.165-2.922-6.485-.23-.465-1.21-2.177-.522.088M71.953 60.587c5.86 3.232 6.177 3.17 6.655 3.417.468.25 1.31-.488.493-.95-.814-.474-6.562-2.79-6.894-2.928-.482-.195-2.268-.782-.253.46M71.84 57.775s7.745.19 8.062.19c1.022-.004 1.07-1.246.088-1.3-.98-.053-7.73.328-8.526.454-.378.058-2.083.43.375.655M69.63 62.274s4.084 5.958 4.27 6.21c.596.83 1.633.14 1.104-.69-.53-.823-4.214-5.19-4.78-5.762-.27-.27-1.42-1.073-.595.242M70.193 52.993s6.77-3.648 7.077-3.78c.734-.315 1.25.376.332.878-.915.508-6.792 3.113-7.146 3.274-.456.202-2.548.965-.263-.37M64.764 48.608s-.2-7.033-.183-7.326c.042-.704 1.07-.9 1.137.02.07.92-.392 6.865-.41 7.21-.02.44-.29 2.408-.543.096M68.78 50.31s5.175-7.272 5.385-7.577c.364-.532 1.473-.27.86.697-.62.966-5.476 6.783-5.757 7.107-.373.43-1.978 2.246-.488-.227M66.16 49.02s.92-6.305.93-6.573c.047-.99 1.27-.788 1.184.044-.086.837-1.442 6.14-1.532 6.456-.122.456-.714 2.173-.583.073M69.65 51.767s5.73-5.33 5.987-5.55c.444-.403 1.55.158.783.894-.77.743-5.978 4.767-6.304 5.006-.476.348-2.344 1.565-.466-.35M71.03 54.02s7.538-2.696 7.87-2.803c1.073-.352 1.468 1.03.45 1.434-1.016.398-7.122 1.88-7.986 2.015-.42.066-2.855.46-.334-.646M67.36 49.635s2.913-6.765 3.025-7.048c.354-.927 1.515-.58 1.227.324-.29.906-3.24 6.108-3.63 6.783-.184.325-1.262 2.234-.623-.058M58.963 24.826c3.173-.5 6.314-.453 9.33.06-.794-.948-1.53-1.826-2.182-2.61-2.44-.254-4.944-.208-7.47.192-.896.14-1.774.327-2.637.55-.524.95-1.056 1.925-1.59 2.913 1.463-.482 2.98-.855 4.55-1.104" fill="#fd0"/><path d="M73.02 30.508l-2.427-2.888c-3.605-.853-7.407-1.04-11.257-.43-2.31.362-4.507.998-6.587 1.86-.575 1.085-1.153 2.197-1.73 3.314 2.667-1.373 5.574-2.356 8.684-2.846 4.597-.73 9.116-.33 13.316.99" fill="#00aeef"/><path d="M60.076 31.872c3.64-.578 7.236-.442 10.66.295l.085.014c.013.01.026.01.038.01 1.65.362 3.265.867 4.824 1.5-.886-1.065-1.778-2.126-2.646-3.162-4.202-1.32-8.73-1.72-13.328-.995-3.105.497-6.017 1.468-8.694 2.834-.608 1.183-1.215 2.378-1.822 3.585.37-.227.746-.45 1.127-.666 2.954-1.67 6.232-2.856 9.756-3.414" fill="#2e3092"/><path d="M78.61 37.213c-.955-1.16-1.938-2.34-2.918-3.512-1.56-.636-3.178-1.143-4.834-1.51-.012 0-.024 0-.036-.008l-.086-.015c-3.426-.734-7.018-.863-10.657-.283-3.527.556-6.805 1.732-9.76 3.402-.38.215-.757.44-1.128.67-.66 1.313-1.314 2.635-1.963 3.966 3.772-2.89 8.254-4.902 13.222-5.687 6.42-1.014 12.7.154 18.157 2.978" fill="#ed1d24"/><path d="M70.86 32.192c-.014-.005-.026-.005-.038-.01.012.005.024.005.037.01M60.076 31.872c-3.524.558-6.802 1.743-9.757 3.414 2.957-1.67 6.232-2.846 9.758-3.402 3.64-.58 7.234-.45 10.658.283-3.424-.737-7.02-.873-10.66-.295" fill="#ed1d24"/><path d="M60.737 36.653c.3-.046.593-.085.888-.124.21-.026.417-.053.622-.075.015-.002.032-.002.05-.005 5.815-.63 11.483.517 16.487 3.05 1.09.543 2.154 1.15 3.183 1.81-1.05-1.3-2.18-2.674-3.346-4.082-5.462-2.824-11.727-4.01-18.14-2.994-4.98.787-9.478 2.81-13.265 5.726-.69 1.414-1.373 2.843-2.05 4.275 4.27-3.92 9.58-6.63 15.572-7.582" fill="#90278f"/><path d="M78.785 39.5c-5.236-2.605-10.694-3.657-16.49-3.05-.016.003-.033.003-.047.006-.205.022-.415.046-.622.073-.256.033-.51.067-.764.108-6.175.978-11.418 3.685-15.666 7.563-.844 1.803-1.876 4.01-2.683 5.818 4.663-5.644 11.11-9.607 18.63-10.797 9.245-1.465 18.242 1.562 25.1 7.55-1.105-1.48-2.632-3.42-4.278-5.46-1.05-.7-2.058-1.25-3.18-1.81" fill="#00a99d"/><path d="M62.296 36.45c-.017.003-.034.003-.05.005.016-.002.033-.002.05-.005" fill="#f7941e"/><path d="M70.586 27.613c-.795-.948-1.563-1.856-2.277-2.71-3.013-.51-6.15-.572-9.298-.072-1.59.254-3.13.63-4.61 1.125-.548 1.01-1.1 2.04-1.645 3.085 2.07-.866 4.267-1.502 6.577-1.868 3.85-.612 7.653-.417 11.252.44" fill="#bfd730"/><path d="M59.012 24.832c3.148-.503 6.284-.442 9.296.07-.002-.007-.007-.012-.014-.014-3.017-.515-6.158-.564-9.33-.06-1.572.245-3.086.62-4.552 1.104-.005.007-.01.012-.01.022 1.48-.493 3.02-.87 4.61-1.122" fill="#fff200"/><path d="M19.78 118.33c5.263-3.555 16.04-6.052 22.52-7.547 7.814-1.795 16.225-3.422 31.675-4.96 16.593-1.65 47.824-3.03 50.86-3.142 5.533-.184 3.034 1.353 2.382 1.374-5.614.208-32.728 3.103-59.995 8.35-10.614 2.044-33.963 8.132-44.17 11.614-4.145 1.415-6.864-3.256-3.272-5.69" fill="#fd0"/><path d="M14.958 106.19c-1.537 5.8-.398 7.47.67 8.978 1.06 1.505 5.1 2.79 5.356-1.73.314-5.657 11.586-36.392 14.45-44.772 7.974-23.317 24.372-52.928 32.06-63.93 2.428-3.482 4.057-7.2-.537-2.575-3.975 4-19.63 28.07-24.33 37.38-8.77 17.386-20.72 40.383-27.67 66.65" fill="#00b3f0"/><path d="M64.84 17.363c-.547-.742-3.513-1.152-1.445 1.736 2.064 2.886 20.4 23.938 24.417 30.042 6.573 10 13.233 17.42 24.55 36.65 3.593 6.104 7.227 13.754 9.65 14.878 1.51.703 6.688.556 4.286-4.087-3.11-6.02-14.415-21.797-19.224-28.363-6.836-9.338-20.54-26.706-22.788-29.528-4.74-5.946-18.362-19.847-19.447-21.33" fill="#bfd730"/><path d="M154.766 49.104v3.617c-1.16.657-2.148 1.105-2.96 1.347-.815.24-1.693.36-2.637.36-1.31 0-2.525-.207-3.642-.614-.875-.317-1.566-.714-2.07-1.195-.505-.483-.97-1.192-1.398-2.134-.424-.94-.636-1.992-.636-3.153v-1.943c0-1.792.52-3.394 1.563-4.802 1.402-1.907 3.31-2.86 5.72-2.86.704 0 1.37.073 2 .224.63.148 1.228.372 1.796.672.34-.33.675-.5 1-.5.375 0 .68.137.912.41.234.268.35.73.35 1.375v1.744c0 .647-.118 1.108-.357 1.384-.242.275-.547.414-.925.414-.302 0-.563-.097-.78-.287-.166-.13-.307-.42-.42-.868-.112-.448-.24-.75-.38-.907-.227-.25-.624-.475-1.195-.673-.57-.195-1.212-.292-1.922-.292-1.017 0-1.9.22-2.65.656-.535.324-1.025.887-1.476 1.692-.45.802-.676 1.675-.676 2.62v1.94c0 1.444.398 2.537 1.198 3.283.797.75 2.063 1.123 3.802 1.123 1.178 0 2.25-.232 3.22-.695v-1.934h-2.596c-.63 0-1.075-.122-1.336-.373-.264-.246-.395-.572-.395-.972 0-.403.13-.727.395-.976.26-.25.707-.373 1.336-.373h5.158c.317 0 .61.123.87.372.264.25.393.573.393.976 0 .4-.13.726-.393.973-.26.252-.554.374-.87.374M167.706 48.285c0-.86-.295-1.653-.883-2.375-.803-.976-1.86-1.464-3.168-1.464-1.15 0-2.112.388-2.883 1.16-.768.777-1.153 1.674-1.153 2.694 0 .834.39 1.617 1.167 2.343.778.727 1.734 1.09 2.868 1.09 1.144 0 2.105-.363 2.882-1.09.778-.726 1.17-1.512 1.17-2.358m2.56-.012c0 1.03-.27 2.03-.815 2.992-.544.966-1.354 1.734-2.43 2.305-1.075.573-2.197.856-3.367.856-1.16 0-2.273-.278-3.336-.842-1.065-.565-1.872-1.33-2.428-2.3-.558-.968-.836-1.98-.836-3.038 0-1.073.282-2.127.848-3.163.564-1.034 1.376-1.85 2.434-2.44 1.06-.596 2.163-.89 3.317-.89 1.163 0 2.28.3 3.356.908 1.076.608 1.888 1.423 2.434 2.45.55 1.026.822 2.08.822 3.163M183.373 48.403c0-1.107-.37-2.04-1.107-2.807-.737-.765-1.64-1.15-2.71-1.15-1.06 0-1.958.385-2.697 1.15-.737.766-1.108 1.688-1.108 2.766 0 .985.334 1.792.995 2.424.663.632 1.6.946 2.81.946s2.148-.314 2.816-.946c.666-.632 1-1.427 1-2.383m-7.62-11.377v6.014c.623-.43 1.255-.753 1.9-.968.642-.214 1.29-.322 1.947-.322 1.766 0 3.266.642 4.492 1.927 1.227 1.283 1.844 2.834 1.844 4.648 0 1.737-.588 3.188-1.756 4.353-1.17 1.166-2.712 1.75-4.63 1.75-.68 0-1.335-.094-1.967-.28-.63-.187-1.24-.462-1.83-.826v.673h-2.994c-.654 0-1.11-.122-1.37-.373-.264-.246-.396-.573-.396-.975 0-.4.132-.725.395-.973.26-.25.716-.373 1.37-.373h.43V39.72h-.43c-.654 0-1.11-.12-1.37-.372-.264-.246-.396-.573-.396-.975 0-.403.132-.727.395-.976.26-.246.716-.37 1.37-.37h2.992zM195.215 37.026v2.828h-3.06v-2.828h3.06zm.365 5.09V51.3h3.063c.65 0 1.108.124 1.37.373.262.248.39.573.39.975 0 .403-.128.727-.39.976-.262.248-.72.37-1.37.37h-8.686c-.63 0-1.076-.122-1.337-.37-.263-.25-.392-.573-.392-.976 0-.402.13-.727.392-.975.26-.25.707-.373 1.337-.373h3.06v-6.488h-2.06c-.632 0-1.076-.124-1.34-.373-.26-.247-.392-.574-.392-.976 0-.4.132-.727.393-.976.263-.246.707-.373 1.338-.373h4.624zM212.097 46.708c-.393-.758-.907-1.324-1.54-1.7-.638-.375-1.394-.563-2.27-.563-.87 0-1.62.188-2.258.564-.635.374-1.152.94-1.554 1.698h7.62zm2.83 2.695H204.41c.266.698.74 1.26 1.42 1.69.677.427 1.597.64 2.755.64.95 0 2.21-.213 3.783-.64.648-.173 1.097-.258 1.346-.258.34 0 .63.124.86.378.235.256.352.575.352.958 0 .352-.124.65-.376.894-.33.324-1.143.63-2.433.924-1.288.295-2.53.44-3.717.44-2.05 0-3.683-.606-4.912-1.82-1.224-1.215-1.84-2.707-1.84-4.48 0-1.885.665-3.42 1.99-4.602 1.328-1.183 2.855-1.776 4.586-1.776 1.042 0 1.995.193 2.863.576.87.383 1.517.797 1.942 1.244.596.646 1.09 1.443 1.484 2.395.266.663.4 1.43.4 2.3l.012 1.138zM223.305 42.116v1.678c1.07-.82 1.917-1.364 2.537-1.634.617-.27 1.197-.41 1.736-.41.832 0 1.636.324 2.417.973.532.44.797.885.797 1.34 0 .387-.126.713-.38.98-.25.267-.56.402-.915.402-.317 0-.648-.17-.997-.5-.35-.332-.66-.5-.934-.5-.356 0-.89.236-1.602.707-.71.47-1.595 1.178-2.66 2.12V51.3h3.662c.65 0 1.11.124 1.37.373.26.25.393.573.393.976 0 .4-.133.725-.393.974-.26.25-.72.37-1.37.37h-7.754c-.63 0-1.075-.12-1.336-.37-.264-.25-.393-.573-.393-.975 0-.404.13-.728.393-.977.26-.25.707-.373 1.336-.373h1.532v-6.49h-.932c-.63 0-1.075-.12-1.34-.37-.26-.25-.39-.573-.39-.978 0-.4.13-.724.39-.973.265-.25.71-.374 1.34-.374h3.492zM236.58 42.116v.865c.463-.408.975-.716 1.536-.923.558-.202 1.165-.307 1.82-.307 1.51 0 2.704.493 3.584 1.478.695.785 1.044 1.814 1.044 3.087V51.3c.653 0 1.107.124 1.37.373.26.25.393.573.393.976 0 .4-.132.725-.393.974-.263.25-.717.37-1.37.37h-2.56c-.633 0-1.076-.12-1.34-.37-.26-.25-.392-.573-.392-.975 0-.404.13-.728.392-.977.264-.25.707-.373 1.34-.373v-5.05c0-.586-.152-1.013-.45-1.283-.387-.347-.97-.522-1.748-.522-.588 0-1.105.12-1.546.356-.442.237-1.003.742-1.68 1.51v4.99c.65 0 1.058.083 1.226.25.356.33.536.696.536 1.1 0 .4-.13.725-.395.974-.26.25-.717.37-1.368.37h-2.564c-.63 0-1.075-.12-1.336-.37-.264-.25-.393-.573-.393-.975 0-.404.173-.772.522-1.106.175-.163.577-.244 1.206-.244v-6.49c-.63 0-1.075-.12-1.336-.37-.264-.25-.393-.573-.393-.978 0-.4.13-.724.393-.973.26-.25.707-.374 1.336-.374h2.563zM258.57 48.285c0-.86-.296-1.653-.884-2.375-.802-.976-1.858-1.464-3.168-1.464-1.15 0-2.112.388-2.883 1.16-.768.777-1.153 1.674-1.153 2.694 0 .834.39 1.617 1.168 2.343.778.727 1.734 1.09 2.868 1.09 1.144 0 2.105-.363 2.883-1.09.78-.726 1.17-1.512 1.17-2.358m2.56-.012c0 1.03-.27 2.03-.815 2.992-.546.966-1.354 1.734-2.43 2.305-1.072.573-2.196.856-3.367.856-1.163 0-2.273-.278-3.336-.842-1.06-.565-1.87-1.33-2.427-2.3-.556-.968-.834-1.98-.834-3.038 0-1.073.282-2.127.845-3.163.566-1.034 1.378-1.85 2.436-2.44 1.06-.596 2.164-.89 3.318-.89 1.163 0 2.283.3 3.356.908 1.075.608 1.887 1.423 2.436 2.45.546 1.026.82 2.08.82 3.163M286.345 48.403c0-1.107-.37-2.04-1.11-2.807-.744-.765-1.65-1.15-2.724-1.15-1.063 0-1.97.385-2.71 1.15-.738.766-1.108 1.688-1.108 2.766 0 .985.33 1.792.997 2.424.665.632 1.606.946 2.82.946 1.208 0 2.15-.314 2.822-.946.676-.632 1.013-1.427 1.013-2.383m2.563-11.377V51.3h.43c.652 0 1.108.125 1.372.374.26.248.393.573.393.973 0 .402-.132.73-.393.975-.264.25-.72.373-1.373.373h-2.992v-.665c-.583.36-1.193.636-1.832.82-.637.184-1.295.277-1.975.277-1.925 0-3.476-.583-4.65-1.75-1.174-1.164-1.76-2.615-1.76-4.352 0-1.814.618-3.365 1.85-4.648 1.23-1.285 2.733-1.927 4.508-1.927.666 0 1.32.108 1.96.322.64.215 1.274.537 1.9.968v-3.32h-.433c-.632 0-1.076-.12-1.34-.372-.26-.246-.392-.573-.392-.975 0-.403.133-.727.394-.976.263-.246.707-.37 1.34-.37h2.994zM301.98 46.708c-.394-.758-.91-1.324-1.543-1.7-.636-.375-1.39-.563-2.268-.563-.87 0-1.622.188-2.257.564-.634.374-1.153.94-1.553 1.698h7.62zm2.828 2.695h-10.514c.264.698.74 1.26 1.417 1.69.68.427 1.598.64 2.757.64.95 0 2.21-.213 3.782-.64.648-.173 1.097-.258 1.346-.258.34 0 .63.124.863.378.23.256.348.575.348.958 0 .352-.125.65-.376.894-.332.324-1.144.63-2.434.924-1.29.295-2.526.44-3.717.44-2.047 0-3.68-.606-4.91-1.82-1.224-1.215-1.84-2.707-1.84-4.48 0-1.885.664-3.42 1.99-4.602 1.328-1.183 2.854-1.776 4.586-1.776 1.04 0 1.995.193 2.865.576.87.383 1.516.797 1.94 1.244.6.646 1.093 1.443 1.485 2.395.266.663.4 1.43.4 2.3l.013 1.138zM325.33 45.244h1.994c.74 0 1.397-.117 1.98-.352.78-.314 1.305-.643 1.575-.992.27-.35.407-.69.407-1.03 0-.507-.26-.975-.773-1.404-.515-.432-1.27-.646-2.256-.646h-2.93v4.424zm0 2.694v3.364h.93c.65 0 1.11.124 1.37.37.262.25.394.573.394.976 0 .402-.132.726-.393.975-.26.25-.72.37-1.37.37h-3.892c-.632 0-1.075-.12-1.34-.37-.26-.25-.39-.573-.39-.975 0-.403.13-.727.39-.976.265-.246.708-.37 1.34-.37h.398V40.82h-.398c-.632 0-1.075-.125-1.34-.373-.26-.247-.39-.574-.39-.976 0-.4.13-.726.39-.972.265-.25.708-.376 1.34-.376h5.79c1.804 0 3.204.47 4.197 1.41.995.94 1.492 2.08 1.492 3.427 0 .837-.236 1.598-.704 2.284-.47.685-1.178 1.295-2.122 1.83.535.494 1.106 1.13 1.718 1.903.38.495.89 1.27 1.534 2.325.634 0 1.046.082 1.23.253.338.327.506.69.506 1.093 0 .402-.13.726-.39.975-.264.25-.712.37-1.346.37h-1.29c-2.064-3.355-3.773-5.374-5.132-6.055h-2.52zM346.92 46.708c-.396-.758-.905-1.324-1.542-1.7-.637-.375-1.39-.563-2.268-.563-.87 0-1.622.188-2.256.564-.634.374-1.153.94-1.553 1.698h7.62zm2.828 2.695h-10.516c.266.698.742 1.26 1.42 1.69.68.427 1.597.64 2.755.64.95 0 2.21-.213 3.783-.64.65-.173 1.097-.258 1.35-.258.338 0 .625.124.86.378.23.256.348.575.348.958 0 .352-.124.65-.375.894-.332.324-1.144.63-2.434.924-1.29.295-2.528.44-3.718.44-2.046 0-3.682-.606-4.91-1.82-1.226-1.215-1.84-2.707-1.84-4.48 0-1.885.663-3.42 1.99-4.602 1.326-1.183 2.855-1.776 4.585-1.776 1.038 0 1.994.193 2.865.576.868.383 1.515.797 1.94 1.244.6.646 1.094 1.443 1.484 2.395.266.663.4 1.43.4 2.3l.012 1.138zM362.616 42.582c.307-.31.622-.466.946-.466.366 0 .666.14.9.415.237.274.354.73.354 1.366v1.732c0 .644-.117 1.102-.354 1.373-.234.27-.544.406-.926.406-.347 0-.644-.103-.88-.31-.176-.156-.313-.476-.413-.954-.1-.48-.34-.836-.72-1.065-.673-.417-1.53-.632-2.575-.632-1.202 0-2.165.37-2.892 1.11-.727.736-1.088 1.673-1.088 2.802 0 1.043.346 1.865 1.044 2.47.695.603 1.853.907 3.47.907 1.06 0 1.93-.114 2.6-.34.398-.142.776-.38 1.132-.718.356-.34.678-.507.973-.507.353 0 .656.135.912.406.255.273.382.593.382.96 0 .596-.386 1.162-1.16 1.696-1.147.797-2.823 1.195-5.035 1.195-1.987 0-3.53-.432-4.638-1.295-1.496-1.16-2.243-2.746-2.243-4.76 0-1.91.603-3.493 1.817-4.744 1.212-1.25 2.793-1.878 4.744-1.878.707 0 1.36.07 1.965.207.608.14 1.17.35 1.683.625M378.055 48.285c0-.86-.293-1.653-.883-2.375-.802-.976-1.858-1.464-3.165-1.464-1.15 0-2.112.388-2.883 1.16-.768.777-1.153 1.674-1.153 2.694 0 .834.388 1.617 1.166 2.343.78.727 1.737 1.09 2.87 1.09 1.145 0 2.103-.363 2.883-1.09.777-.726 1.165-1.512 1.165-2.358m2.563-.012c0 1.03-.273 2.03-.814 2.992-.547.966-1.356 1.734-2.43 2.305-1.072.573-2.197.856-3.367.856-1.163 0-2.276-.278-3.336-.842-1.06-.565-1.87-1.33-2.428-2.3-.556-.968-.834-1.98-.834-3.038 0-1.073.282-2.127.846-3.163.566-1.034 1.378-1.85 2.436-2.44 1.056-.596 2.163-.89 3.317-.89 1.163 0 2.28.3 3.358.908 1.07.608 1.883 1.423 2.43 2.45.548 1.026.823 2.08.823 3.163M386.737 42.116v.865c.463-.408.975-.716 1.536-.923.558-.202 1.168-.307 1.822-.307 1.51 0 2.704.493 3.582 1.478.698.785 1.044 1.814 1.044 3.087V51.3c.652 0 1.11.124 1.372.373.263.25.392.573.392.976 0 .4-.13.725-.392.974-.26.25-.72.37-1.37.37h-2.562c-.63 0-1.078-.12-1.336-.37-.263-.25-.395-.573-.395-.975 0-.404.13-.728.394-.977.258-.25.705-.373 1.336-.373v-5.05c0-.586-.15-1.013-.448-1.283-.388-.347-.97-.522-1.746-.522-.59 0-1.105.12-1.547.356-.445.237-1.005.742-1.683 1.51v4.99c.65 0 1.06.083 1.23.25.352.33.533.696.533 1.1 0 .4-.132.725-.393.974-.263.25-.72.37-1.37.37h-2.564c-.63 0-1.075-.12-1.336-.37-.26-.25-.393-.573-.393-.975 0-.404.176-.772.522-1.106.176-.163.578-.244 1.207-.244v-6.49c-.63 0-1.075-.12-1.336-.37-.26-.25-.393-.573-.393-.978 0-.4.132-.724.393-.973.26-.25.707-.374 1.336-.374h2.564zM408.622 42.582c.305-.31.622-.466.944-.466.366 0 .666.14.902.415.234.274.354.73.354 1.366v1.732c0 .644-.12 1.102-.354 1.373-.236.27-.543.406-.93.406-.345 0-.64-.103-.88-.31-.172-.156-.31-.476-.41-.954-.1-.48-.338-.836-.718-1.065-.673-.417-1.532-.632-2.576-.632-1.202 0-2.168.37-2.894 1.11-.725.736-1.088 1.673-1.088 2.802 0 1.043.35 1.865 1.046 2.47.695.603 1.854.907 3.47.907 1.06 0 1.927-.114 2.6-.34.398-.142.773-.38 1.132-.718.356-.34.678-.507.973-.507.35 0 .656.135.912.406.258.273.383.593.383.96 0 .596-.388 1.162-1.16 1.696-1.147.797-2.825 1.195-5.035 1.195-1.987 0-3.53-.432-4.638-1.295-1.495-1.16-2.244-2.746-2.244-4.76 0-1.91.606-3.493 1.818-4.744 1.212-1.25 2.795-1.878 4.743-1.878.71 0 1.365.07 1.97.207.607.14 1.165.35 1.682.625M420.9 37.026v2.828h-3.06v-2.828h3.06zm.366 5.09V51.3h3.06c.652 0 1.108.124 1.374.373.26.248.392.573.392.975 0 .403-.13.727-.392.976-.266.248-.722.37-1.373.37h-8.685c-.63 0-1.075-.122-1.336-.37-.26-.25-.393-.573-.393-.976 0-.402.132-.727.393-.975.26-.25.707-.373 1.336-.373h3.063v-6.488h-2.063c-.632 0-1.075-.124-1.34-.373-.26-.247-.39-.574-.39-.976 0-.4.13-.727.39-.976.265-.246.708-.373 1.34-.373h4.624zM435.538 37.026V51.3h3.06c.65 0 1.11.124 1.37.373.262.248.393.573.393.975 0 .403-.13.727-.39.976-.262.248-.72.37-1.372.37h-8.684c-.63 0-1.076-.122-1.337-.37-.263-.25-.395-.573-.395-.976 0-.402.132-.727.395-.975.26-.25.708-.373 1.337-.373h3.06V39.72h-2.063c-.63 0-1.072-.122-1.335-.373-.264-.246-.395-.573-.395-.975 0-.4.13-.725.395-.973.263-.25.705-.374 1.336-.374h4.628zM450.506 37.026v2.828h-3.06v-2.828h3.06zm.366 5.09V51.3h3.06c.652 0 1.11.124 1.37.373.264.248.394.573.394.975 0 .403-.13.727-.393.976-.26.248-.72.37-1.37.37h-8.685c-.63 0-1.076-.122-1.336-.37-.26-.25-.393-.573-.393-.976 0-.402.13-.727.392-.975.26-.25.707-.373 1.336-.373h3.06v-6.488h-2.06c-.63 0-1.076-.124-1.34-.373-.26-.247-.392-.574-.392-.976 0-.4.132-.727.393-.976.262-.246.71-.373 1.338-.373h4.624zM467.24 49.182c-1.028-.207-1.972-.31-2.837-.31-1.04 0-1.937.264-2.685.793-.47.34-.7.68-.7 1.027 0 .253.112.456.336.612.417.285.985.43 1.712.43.617 0 1.315-.128 2.093-.38.777-.248 1.472-.592 2.08-1.026v-1.146zm0 4.814v-.634c-.645.356-1.352.622-2.13.8-.773.178-1.478.266-2.114.266-1.376 0-2.493-.38-3.354-1.144-.856-.763-1.287-1.605-1.287-2.53 0-1.126.548-2.17 1.646-3.133 1.098-.962 2.615-1.445 4.547-1.445.775 0 1.675.088 2.692.263v-.64c0-.4-.164-.723-.496-.974-.33-.25-.956-.378-1.878-.378-.76 0-1.744.156-2.948.463-.454.114-.8.168-1.05.168-.338 0-.626-.13-.862-.386-.235-.258-.354-.588-.354-.99 0-.227.04-.424.124-.588.083-.165.2-.3.352-.4.148-.1.46-.222.936-.36.632-.183 1.275-.33 1.936-.44.656-.11 1.25-.163 1.78-.163 1.59 0 2.827.36 3.705 1.08.876.718 1.315 1.7 1.315 2.95v5.52h.434c.65 0 1.11.126 1.37.374.26.247.393.573.393.973 0 .403-.132.73-.393.976-.26.25-.72.373-1.37.373h-2.995zM484.233 42.582c.305-.31.622-.466.944-.466.368 0 .666.14.903.415.236.274.353.73.353 1.366v1.732c0 .644-.117 1.102-.353 1.373-.237.27-.544.406-.927.406-.35 0-.644-.103-.883-.31-.173-.156-.312-.476-.41-.954-.102-.48-.34-.836-.722-1.065-.668-.417-1.53-.632-2.572-.632-1.203 0-2.17.37-2.895 1.11-.724.736-1.087 1.673-1.087 2.802 0 1.043.35 1.865 1.046 2.47.694.603 1.853.907 3.47.907 1.06 0 1.93-.114 2.6-.34.397-.142.772-.38 1.13-.718.357-.34.68-.507.974-.507.35 0 .658.135.912.406.256.273.383.593.383.96 0 .596-.39 1.162-1.16 1.696-1.148.797-2.826 1.195-5.035 1.195-1.988 0-3.532-.432-4.64-1.295-1.494-1.16-2.243-2.746-2.243-4.76 0-1.91.605-3.493 1.817-4.744 1.214-1.25 2.794-1.878 4.743-1.878.707 0 1.363.07 1.968.207.608.14 1.166.35 1.683.625M496.51 37.026v2.828h-3.06v-2.828h3.06zm.367 5.09V51.3h3.063c.65 0 1.107.124 1.37.373.26.248.393.573.393.975 0 .403-.132.727-.392.976-.263.248-.72.37-1.37.37h-8.684c-.632 0-1.078-.122-1.34-.37-.26-.25-.392-.573-.392-.976 0-.402.132-.727.393-.975.26-.25.707-.373 1.34-.373h3.06v-6.488h-2.064c-.632 0-1.075-.124-1.34-.373-.26-.247-.392-.574-.392-.976 0-.4.133-.727.394-.976.264-.246.707-.373 1.34-.373h4.623zM512.867 37.832l-2.804 2.4c-.28.236-.517.353-.71.353-.232 0-.43-.08-.59-.25-.163-.164-.244-.37-.244-.616 0-.28.165-.56.497-.84l2.814-2.4c.284-.236.523-.353.713-.353.234 0 .43.083.59.25.164.165.244.367.244.6 0 .29-.17.574-.51.855m2.142 10.452c0-.86-.297-1.653-.884-2.375-.803-.977-1.86-1.464-3.168-1.464-1.15 0-2.112.387-2.883 1.16-.768.778-1.153 1.674-1.153 2.693 0 .833.39 1.616 1.165 2.343.78.726 1.74 1.09 2.87 1.09 1.147 0 2.103-.364 2.883-1.09.778-.727 1.17-1.512 1.17-2.36m2.562-.01c0 1.03-.276 2.028-.817 2.994-.544.963-1.354 1.73-2.427 2.304-1.075.572-2.2.858-3.37.858-1.16 0-2.276-.28-3.336-.844s-1.87-1.33-2.43-2.298c-.553-.97-.83-1.982-.83-3.04 0-1.074.28-2.127.845-3.16.564-1.035 1.376-1.852 2.437-2.445 1.053-.594 2.16-.89 3.314-.89 1.163 0 2.282.303 3.356.91 1.075.608 1.885 1.422 2.433 2.45.55 1.026.825 2.08.825 3.162M523.688 42.116v.865c.463-.408.978-.716 1.536-.923.56-.202 1.17-.307 1.822-.307 1.512 0 2.705.493 3.585 1.478.696.785 1.045 1.814 1.045 3.087V51.3c.65 0 1.107.124 1.368.373.264.25.395.573.395.976 0 .4-.13.725-.395.974-.26.25-.72.37-1.368.37h-2.563c-.63 0-1.076-.12-1.337-.37-.263-.25-.392-.573-.392-.975 0-.404.13-.728.392-.977.26-.25.708-.373 1.337-.373v-5.05c0-.586-.15-1.013-.446-1.283-.39-.347-.973-.522-1.75-.522-.59 0-1.104.12-1.545.356-.443.237-1.004.742-1.682 1.51v4.99c.65 0 1.06.083 1.23.25.355.33.533.696.533 1.1 0 .4-.128.725-.39.974-.262.25-.72.37-1.372.37h-2.563c-.63 0-1.073-.12-1.336-.37-.262-.25-.394-.573-.394-.975 0-.404.175-.772.524-1.106.176-.163.576-.244 1.205-.244v-6.49c-.63 0-1.073-.12-1.336-.37-.262-.25-.394-.573-.394-.978 0-.4.132-.724.393-.973.262-.25.706-.374 1.335-.374h2.563zM147.533 77.35l-4.45-9.115c-.635 0-1.08-.122-1.345-.37-.26-.25-.392-.574-.392-.976 0-.404.13-.728.392-.977.264-.248.71-.373 1.346-.373h2.878c.637 0 1.083.125 1.346.373.26.25.393.573.393.976 0 .4-.13.726-.392.974-.263.25-.71.37-1.346.37l3 6.16 2.98-6.16c-.64 0-1.09-.12-1.35-.37-.264-.248-.396-.573-.396-.975 0-.404.132-.728.395-.977.262-.248.713-.373 1.352-.373h2.873c.634 0 1.083.125 1.344.373.262.25.394.573.394.976 0 .4-.132.726-.395.974-.262.25-.71.37-1.345.37l-5.84 12.08h1.933c.524.498.788.946.788 1.35 0 .4-.134.726-.395.974-.26.25-.716.37-1.363.37h-6.4c-.65 0-1.104-.12-1.365-.37-.26-.248-.395-.575-.395-.975 0-.403.134-.727.395-.976.26-.248.715-.373 1.366-.373h2.56l1.435-2.963zM185.493 64.243v7.626c0 1.66-.57 3.075-1.707 4.238-1.14 1.163-2.507 1.746-4.11 1.746-.79 0-1.533-.146-2.23-.44-.696-.292-1.32-.723-1.876-1.294-.554-.568-.986-1.16-1.293-1.778-.31-.614-.463-1.44-.463-2.473v-7.627c-.63 0-1.076-.122-1.34-.373-.26-.246-.39-.57-.39-.975 0-.4.13-.725.39-.973.264-.25.71-.374 1.34-.374h3.494c.56 0 .974.125 1.237.374.26.248.393.573.393.973 0 .404-.132.73-.393.975-.263.25-.676.373-1.237.373h-.93V72.1c0 .806.316 1.515.955 2.132.636.617 1.407.925 2.307.925.6 0 1.163-.147 1.69-.444.524-.298.954-.732 1.288-1.3.207-.36.312-.795.312-1.312v-7.857h-.932c-.563 0-.975-.122-1.236-.373-.26-.246-.393-.57-.393-.975 0-.4.13-.725.392-.973.26-.25.673-.374 1.236-.374h3.495c.65 0 1.11.125 1.37.374.26.248.393.573.393.973 0 .404-.132.73-.392.975-.26.25-.72.373-1.37.373M192.376 65.54v.867c.465-.412.978-.717 1.536-.924.56-.205 1.168-.307 1.822-.307 1.51 0 2.704.492 3.582 1.477.698.786 1.044 1.815 1.044 3.088v4.986c.654 0 1.11.122 1.37.373.264.248.396.57.396.972s-.132.727-.395.975c-.26.25-.716.374-1.37.374h-2.56c-.63 0-1.076-.124-1.337-.373-.263-.248-.393-.573-.393-.975s.13-.724.393-.973c.26-.252.707-.374 1.336-.374v-5.05c0-.586-.15-1.013-.447-1.284-.39-.348-.973-.522-1.748-.522-.588 0-1.105.12-1.547.356-.444.24-1.004.742-1.682 1.508v4.992c.65 0 1.06.08 1.23.25.355.328.533.694.533 1.096 0 .402-.133.727-.394.975-.26.25-.72.374-1.37.374h-2.564c-.63 0-1.073-.124-1.336-.373-.26-.248-.393-.573-.393-.975s.176-.768.525-1.105c.175-.16.575-.24 1.204-.24v-6.49c-.63 0-1.073-.123-1.336-.37-.26-.25-.393-.577-.393-.98 0-.4.132-.724.393-.972.263-.25.707-.374 1.336-.374h2.564zM211.205 60.45v2.83h-3.06v-2.83h3.06zm.366 5.092v9.182h3.064c.65 0 1.107.125 1.368.373.264.25.395.574.395.976s-.13.727-.395.975c-.26.25-.717.37-1.368.37h-8.687c-.63 0-1.075-.12-1.336-.37-.26-.248-.392-.573-.392-.975s.132-.727.393-.976c.262-.248.708-.373 1.337-.373h3.06v-6.487h-2.06c-.63 0-1.075-.124-1.34-.373-.26-.246-.39-.573-.39-.975 0-.404.13-.728.39-.977.265-.246.71-.37 1.34-.37h4.624zM228.936 71.828c0-1.105-.37-2.04-1.112-2.807-.74-.767-1.646-1.15-2.722-1.15-1.065 0-1.968.383-2.71 1.15-.738.767-1.11 1.69-1.11 2.77 0 .982.333 1.79 1 2.42.664.632 1.606.947 2.82.947 1.207 0 2.15-.315 2.822-.946.675-.63 1.012-1.424 1.012-2.382M231.5 60.45v14.275h.43c.652 0 1.11.125 1.37.373.265.25.394.574.394.973 0 .404-.13.73-.393.977-.26.25-.718.373-1.37.373h-2.994v-.666c-.583.36-1.193.637-1.83.822-.636.186-1.297.278-1.98.278-1.92 0-3.47-.583-4.643-1.748-1.175-1.166-1.76-2.617-1.76-4.356 0-1.814.614-3.366 1.846-4.648 1.233-1.286 2.735-1.927 4.508-1.927.666 0 1.32.107 1.958.322.644.217 1.276.537 1.9.968v-3.32h-.434c-.63 0-1.073-.12-1.337-.372-.26-.25-.392-.573-.392-.976 0-.402.13-.724.392-.975.264-.246.708-.37 1.337-.37h2.997zM243.273 72.608c-1.024-.21-1.97-.312-2.834-.312-1.044 0-1.942.266-2.69.795-.466.338-.7.68-.7 1.028 0 .25.114.456.338.612.417.285.988.427 1.71.427.617 0 1.317-.125 2.095-.376.778-.253 1.473-.594 2.08-1.026v-1.146zm0 4.812v-.632c-.64.354-1.35.622-2.126.798-.776.178-1.483.268-2.115.268-1.378 0-2.495-.38-3.356-1.146-.858-.76-1.287-1.605-1.287-2.53 0-1.124.547-2.167 1.645-3.133 1.097-.96 2.612-1.444 4.548-1.444.776 0 1.67.09 2.69.262v-.64c0-.396-.166-.72-.495-.972-.33-.254-.953-.378-1.88-.378-.756 0-1.74.154-2.946.463-.45.113-.8.166-1.05.166-.338 0-.626-.125-.862-.384-.237-.26-.354-.585-.354-.988 0-.227.042-.424.125-.59.083-.166.2-.297.352-.4.15-.1.46-.22.936-.358.632-.186 1.276-.332 1.934-.44.656-.11 1.25-.165 1.785-.165 1.59 0 2.824.36 3.702 1.08.877.72 1.316 1.702 1.316 2.95v5.52h.432c.65 0 1.107.124 1.37.373.26.25.393.573.393.973 0 .404-.13.73-.39.977-.265.25-.72.373-1.372.373h-2.995zM259.607 71.828c0-1.105-.37-2.04-1.112-2.807-.74-.767-1.65-1.15-2.722-1.15-1.065 0-1.968.383-2.71 1.15-.74.767-1.11 1.69-1.11 2.77 0 .982.333 1.79 1 2.42.664.632 1.606.947 2.82.947 1.207 0 2.146-.315 2.822-.946.673-.63 1.012-1.424 1.012-2.382m2.563-11.377v14.275h.432c.65 0 1.107.125 1.368.373.263.25.395.574.395.973 0 .404-.132.73-.395.977-.26.25-.717.373-1.368.373h-2.995v-.666c-.583.36-1.193.637-1.83.822-.638.186-1.297.278-1.98.278-1.92 0-3.472-.583-4.645-1.748-1.173-1.166-1.76-2.617-1.76-4.356 0-1.814.616-3.366 1.848-4.648 1.23-1.286 2.733-1.927 4.51-1.927.662 0 1.316.107 1.957.322.642.217 1.273.537 1.9.968v-3.32h-.432c-.63 0-1.075-.12-1.34-.372-.26-.25-.39-.573-.39-.976 0-.402.13-.724.39-.975.265-.246.71-.37 1.34-.37h2.995zM283.754 66.616v8.11h.934c.65 0 1.107.124 1.368.372.264.25.393.574.393.973 0 .404-.13.73-.394.977-.26.25-.72.373-1.368.373h-3.495c-.63 0-1.075-.124-1.34-.373-.26-.246-.39-.573-.39-.976 0-.398.13-.723.39-.972.265-.248.71-.373 1.34-.373V64.243h-.4c-.648 0-1.107-.12-1.37-.373-.26-.246-.393-.57-.393-.975 0-.4.132-.727.393-.973.263-.25.722-.373 1.37-.373h2.944l6.572 10.763v-8.07h-.932c-.63 0-1.073-.12-1.337-.373-.26-.246-.394-.57-.394-.975 0-.4.134-.727.395-.973.265-.25.71-.373 1.338-.373h3.495c.65 0 1.107.123 1.37.372.26.246.393.573.393.973 0 .405-.132.73-.393.975-.263.252-.72.373-1.37.373V77.42h-2.52l-6.6-10.804zM304.612 72.608c-1.024-.21-1.968-.312-2.836-.312-1.04 0-1.934.266-2.685.795-.465.338-.7.68-.7 1.028 0 .25.113.456.338.612.417.285.987.427 1.712.427.617 0 1.314-.125 2.095-.376.778-.253 1.47-.594 2.077-1.026v-1.146zm0 4.812v-.632c-.64.354-1.35.622-2.126.798-.776.178-1.48.268-2.115.268-1.376 0-2.49-.38-3.352-1.146-.858-.76-1.29-1.605-1.29-2.53 0-1.124.55-2.167 1.646-3.133 1.098-.96 2.615-1.444 4.55-1.444.774 0 1.672.09 2.688.262v-.64c0-.396-.163-.72-.492-.972-.33-.254-.956-.378-1.878-.378-.758 0-1.744.154-2.95.463-.452.113-.798.166-1.047.166-.342 0-.627-.125-.866-.384-.235-.26-.352-.585-.352-.988 0-.227.04-.424.124-.59.083-.166.198-.297.35-.4.148-.1.46-.22.936-.358.63-.186 1.277-.332 1.933-.44.66-.11 1.255-.165 1.79-.165 1.587 0 2.823.36 3.7 1.08.877.72 1.316 1.702 1.316 2.95v5.52h.43c.652 0 1.11.124 1.372.373.263.25.393.573.393.973 0 .404-.13.73-.392.977-.26.25-.72.373-1.37.373h-2.996zM321.608 66.007c.307-.31.622-.466.944-.466.366 0 .666.138.905.416.234.273.35.73.35 1.368v1.727c0 .647-.116 1.105-.35 1.376-.24.27-.547.405-.93.405-.346 0-.64-.102-.882-.31-.174-.155-.313-.474-.413-.952-.097-.48-.336-.837-.72-1.066-.67-.42-1.528-.632-2.572-.632-1.202 0-2.168.37-2.892 1.11-.727.736-1.088 1.673-1.088 2.802 0 1.04.346 1.866 1.044 2.47.697.603 1.853.905 3.47.905 1.06 0 1.93-.112 2.6-.34.397-.14.773-.38 1.13-.718.357-.338.68-.506.974-.506.354 0 .66.136.913.407.257.274.383.594.383.962 0 .595-.385 1.158-1.158 1.695-1.15.797-2.826 1.195-5.036 1.195-1.99 0-3.532-.432-4.64-1.295-1.494-1.158-2.243-2.746-2.243-4.76 0-1.912.605-3.49 1.817-4.744 1.214-1.253 2.795-1.878 4.746-1.878.707 0 1.36.07 1.965.208.607.14 1.168.348 1.683.624M333.887 60.45v2.83h-3.063v-2.83h3.063zm.366 5.092v9.182h3.06c.652 0 1.11.125 1.37.373.262.25.394.574.394.976s-.132.727-.393.975c-.26.25-.72.37-1.37.37h-8.685c-.63 0-1.076-.12-1.34-.37-.26-.248-.39-.573-.39-.975s.13-.727.39-.976c.264-.248.71-.373 1.34-.373h3.06v-6.487h-2.063c-.63 0-1.076-.124-1.337-.373-.26-.246-.393-.573-.393-.975 0-.404.132-.728.393-.977.26-.246.707-.37 1.337-.37h4.626zM352.383 71.71c0-.863-.295-1.655-.883-2.377-.802-.973-1.858-1.46-3.168-1.46-1.148 0-2.11.387-2.88 1.16-.77.775-1.153 1.673-1.153 2.69 0 .836.386 1.617 1.164 2.343.78.727 1.737 1.09 2.868 1.09 1.147 0 2.105-.363 2.883-1.09.778-.726 1.168-1.512 1.168-2.356m2.56-.012c0 1.03-.27 2.027-.814 2.993-.545.966-1.354 1.735-2.427 2.305-1.076.573-2.2.86-3.37.86-1.162 0-2.276-.284-3.334-.848-1.065-.563-1.874-1.33-2.43-2.297-.557-.968-.837-1.983-.837-3.04 0-1.072.285-2.125.85-3.162.565-1.034 1.374-1.848 2.433-2.44 1.058-.596 2.163-.893 3.316-.893 1.164 0 2.283.304 3.358.912 1.074.607 1.886 1.42 2.434 2.448.547 1.027.82 2.08.82 3.163M361.064 65.54v.867c.463-.412.975-.717 1.536-.924.558-.205 1.168-.307 1.822-.307 1.51 0 2.704.492 3.582 1.477.698.786 1.044 1.815 1.044 3.088v4.986c.65 0 1.11.122 1.37.373.264.248.393.57.393.972s-.128.727-.39.975c-.262.25-.72.374-1.372.374h-2.56c-.632 0-1.076-.124-1.337-.373-.262-.248-.394-.573-.394-.975s.132-.724.395-.973c.262-.252.706-.374 1.337-.374v-5.05c0-.586-.148-1.013-.448-1.284-.39-.348-.972-.522-1.75-.522-.588 0-1.102.12-1.544.356-.444.24-1.007.742-1.682 1.508v4.992c.648 0 1.06.08 1.23.25.352.328.533.694.533 1.096 0 .402-.132.727-.393.975-.26.25-.722.374-1.37.374H358.5c-.63 0-1.075-.124-1.336-.373-.263-.248-.393-.573-.393-.975s.175-.768.523-1.105c.176-.16.578-.24 1.207-.24v-6.49c-.63 0-1.075-.123-1.336-.37-.263-.25-.393-.577-.393-.98 0-.4.13-.724.394-.972.26-.25.707-.374 1.336-.374h2.564zM381.29 72.608c-1.024-.21-1.97-.312-2.836-.312-1.042 0-1.937.266-2.685.795-.47.338-.7.68-.7 1.028 0 .25.11.456.335.612.415.285.988.427 1.71.427.617 0 1.314-.125 2.095-.376.778-.253 1.473-.594 2.08-1.026v-1.146zm0 4.812v-.632c-.644.354-1.354.622-2.13.798-.775.178-1.48.268-2.114.268-1.375 0-2.492-.38-3.35-1.146-.86-.76-1.29-1.605-1.29-2.53 0-1.124.548-2.167 1.643-3.133 1.1-.96 2.614-1.444 4.548-1.444.777 0 1.675.09 2.692.262v-.64c0-.396-.166-.72-.493-.972-.33-.254-.958-.378-1.88-.378-.758 0-1.744.154-2.948.463-.455.113-.8.166-1.05.166-.34 0-.627-.125-.863-.384-.235-.26-.354-.585-.354-.988 0-.227.04-.424.124-.59.083-.166.2-.297.35-.4.15-.1.462-.22.936-.358.63-.186 1.28-.332 1.936-.44.655-.11 1.25-.165 1.784-.165 1.588 0 2.822.36 3.702 1.08.878.72 1.315 1.702 1.315 2.95v5.52h.435c.65 0 1.107.124 1.368.373.263.25.395.573.395.973 0 .404-.132.73-.395.977-.26.25-.717.373-1.368.373h-2.995zM395.593 60.45v14.274h3.063c.65 0 1.107.125 1.368.373.26.25.395.574.395.976s-.135.727-.396.975c-.26.25-.72.37-1.368.37h-8.687c-.63 0-1.074-.12-1.337-.37-.26-.248-.393-.573-.393-.975s.132-.727.393-.976c.263-.248.707-.373 1.336-.373h3.06v-11.58h-2.063c-.63 0-1.073-.12-1.337-.37-.26-.248-.392-.575-.392-.978 0-.4.13-.724.392-.973.264-.248.707-.373 1.337-.373h4.626z" fill="#00abea"/><path d="M210.965 114.178c-.2-2.183-.098-3.858.966-6.23 1.447-3.22 3.578-5.084 4.298-5.53.72-.446 1.163.168 1.497.646.332.483.1 1.108-.38 2.817-.48 1.71-1.556 3.457-2.634 4.935-1.08 1.475-3.745 3.31-3.745 3.31v.053zm11.418 4.353c-.298-.02-.707-.394-.632-.555.082-.164.284-.87-.894-.307-1.178.56-6.655 2.175-8.686-1.164 3.016-1.81 6.494-6.465 7.108-9.77.613-3.304-.258-5.177-.946-5.76-.683-.58-2.078-1.553-2.62-1.62-.54-.075-.016.455-.69.63-.67.173-2.104 1.578-4.64 5.997-2.266 3.947-1.288 9.178-1.288 9.178s-4.38 2.617-7.39 3.322c-.553.13-1.638.436-1.416-.65.222-1.084 1.697-3.218 2.04-3.545.345-.332 1.74-.79 2.17-.96.428-.172 1.165-1.184 1.345-1.645.183-.46-.558-1.043-.882-1.036-.324.007-.387-.558-.85-.795-.464-.235-.898-.333-.976-.225-.078.11-1.146.83-2.1 1.765-.956.94-3.912 1.642-4.936 1.632-1.03-.008-2.456.153-2.495-.55-.04-.7.847-2.472 3.55-5.167 2.703-2.694 6.49-3.765 7.65-3.865 1.157-.103 1.11.168 1.033.466-.076.297-1 1.395-1.16 1.48-.162.083-.27.032-.43.17-.16.137.36.506.605.635.247.133.18.728.1 1.025-.075.3.33.75.506.937.33.346.597.258 1.34-.376.747-.634 1.842-2.653 1.935-3.49.094-.84-.32-1.185-.726-1.392-.41-.21-1.54-1.59-2.414-2.06-.873-.472-1.54.028-3.017.323-1.48.3-7.067 3.13-10.23 7.48-1.39 1.914-.85 3.687-.53 4.948.322 1.263.676 1.473 1.766 2.05 1.09.572 4.86.045 4.86.045s-.484 1.6-.588 1.763c-.105.164-.042.568.175.75.22.187-.034.977.44 1.83.472.856.443 2.07 3.777 1.415 2.84-.56 8.03-3.766 8.03-3.766s1.722 2.615 4.79 3.556c3.068.944 7.5-1.705 7.763-2.03.266-.33-.146-.65-.444-.667M250.19 102.494c-.327 1.383-1.244 2.776-2.565 4.232-1.325 1.456-2.817 2.243-3.037 2.377-.773.474-2.282.554-2.42.583.767-1.095 1.945-3.058 1.913-3.192-.026-.137-1.245-1.678-1.406-1.73 0 0 1.41-2.618 2.875-3.67 1.463-1.053 3.077-1.326 3.682-.877.6.446 1.283.892.958 2.277m1.934-2.063c-.373-1.1-1.98-1.88-2.665-2.567-.692-.688-3.362-.64-5.564 1.398-2.202 2.04-4.778 6.002-5.468 8.04-.69 2.035-3.212 8.805-3.47 9.378-.26.57.2.644.283.776.084.136.142.405.123.646-.025.24-.093.84.32 1.48.42.64.52.178.867.12.35-.064.988-.642.986-.83-.005-.187-.196-.88.553-2.143.89-1.502 2.423-4.687 2.423-4.687.764.444.51 1.285 3.06.565 2.554-.724 6.99-4.558 8.007-6.518 1.015-1.964.915-4.553.544-5.656M253.174 106.19c.105-.042 1.217.112 1.36.514.14.403.552.56.688.717.137.162.44.396-.014.838-.45.44-2.454 1.422-3.476 4.573-.482 1.486.032 1.808.542 1.664.512-.144 1.805-.276 3.82-2.337.2-2.11.896-2.636 1.338-3.4.446-.762 1.79-2.543 2.22-2.687.428-.144.765.42 1.07.954.305.534.76.31.778 1.2.014.89-1.517 4.158-2.66 5.15.362.588 3.672.013 4.933-.468 1.26-.483.222.32-.044.542-.267.22.735.417.843.443.11.023.968-.29.76.094-.21.38-1.514 1.432-3.046 1.866-1.53.43-4.955.63-5.565-.356-.558.495-3.01 2.214-5.172 2.065-1.883-.13-2.754-2.874-2.044-5.364.988-3.472 2.917-5.694 3.668-6.006" fill="#ef5ba1"/><path d="M294.554 100.163c1.005-1.1 1.35-1.054.742.607-1.542 4.212-4.617 7.32-4.617 7.32.077-1.73 2.87-6.83 3.874-7.927m-10.947 8.004c-.115 1.027-1.75 4.512-2.478 4.66-.725.152-2.425.315-2.947-.214 0 0 2.878-3.483 4.44-5.075.723-.737 1.1-.4.984.63m26.033-3.857c-.6-1.823-1.836-1.586-2.514-1.76-.68-.178-.297.11-.73.15-.428.03-.853.472-1.167.828-.32.36.772-.282 1.072-.26.297.02-.454.33-.963.556-.51.224-1.123.64-1.39.89-.263.246.36.37.657.365.295-.005.614-.227 1.022-.154.406.073 0 .16-.665.66-.663.498.356.237.76.013.4-.225.91-.235 1.7-.113.78.12 1.396 1.217 1.018 2.68-.578 2.236-3.197 3.702-5.22 3.902-1.465.143-2.872-.625-1.782-1.56 1.092-.938 2.682-3.882 2.806-4.48.122-.597-.64-1.175-.64-1.175s.042-1.202-.994-1.007c-1.29.24-3.36 3.57-3.502 4.707-1.076 1.746-6.61 3.28-7.272 2.292 2.16-2.873 2.533-3.148 3.628-5.224 1.095-2.068 2.605-5.175 2.45-7.818-.057-.917-.6-.098-.61-.664-.01-.564-.057-1.725-.974-1.49-1.934.494-5.646 5.476-6.887 8.413-1.244 2.938-.83 4.9-.6 5.628-1.244 1.262-2.5 2.016-3.602 2.252.156-.327.983-3.824.2-5.32-.785-1.5-1.78-2.645-2.668-2.57-.65.054-1.366.68-1.64.967.635-.79 3.745-4.81 4.315-5.257.64-.498-.02-1.132-.24-1.32-.218-.182-.44-.424-.2-.724.236-.303-.235-1.315-.88-.766-2.367 2.014-8.81 12.77-9.354 13.94-.29.62-.302 1.204-.234 1.704-.717.2-2.44.788-3.578.932-.753.092-2.38-.047-2.548-.603-.06-.187.846-.958 1.007-.99.163-.03.775-.446.883-.448.107-.004 1.078-.128 1.853-.548.775-.42.494-.9-.057-1.456-.55-.558-1.105-1.465-1.912-1.287-.34.074-2.328 1.094-4.028 1.016-1.24-.056-.763-.417.378-1.276 1.147-.856 4.117-2.344 4.68-2.46.566-.12 1.244.004 1.512-.003.352-.005.483-.195.398-.41-.085-.214-.798-.848-1.017-1.114-.222-.268.32-.144.236-.303-.086-.16-.422-.83-1.693-.97-1.273-.137-6.575 3.526-7.507 4.326-.93.8-.25.976-.348 1.57-.098.598-.476 2.322 1.053 2.925 1.115.44 1.98.506 2.737.435-.503.714-.064 2.675.814 3.414.88.738 2.017.906 3.61.823 1.707-.087 3.592-1.28 4.043-1.695.072-.065.128-.165.165-.282.23.102.47.11.53.107.11-.003.835-.23 1.104-.45-.26.76-.223 1.245 1.247 2.055 1.473.81 3.566.124 5.41-.883.877.74 5.638-1.832 6.35-2.546 1.01 1.896 6.42 1.257 9.25-.71-.073 3.482 3.712 3.816 7.256 2.51 3.536-1.31 4.406-4 4.42-6.05.013-2.05-.55-2.095-1.153-3.92M314.207 110.3c-.093.065-.797.8-1.373 1.807-.573 1.01-.844 2.553-.836 2.85.004.298-.04 2.188.485 2.854.524.664 1.34 1.054 1.373-.214.03-1.27 1.64-4.592 2.543-5.365.907-.772-.147-.755-.34-.884-.192-.132-.72-1.012-1.046-1.115-.324-.1-.273-.318-.807.07M328.295 113.145c-.264-.122-.205-.968-.264-1.236-.06-.27-.6-.394-.506-1.018.098-.624 5.368-10.574 5.582-10.767.21-.193.493.37.676.095.183-.273.17-.812.663-.55.49.26 1.37 1.133 1.456 1.32.087.188-.7 1.608-.7 1.608s1.684.397 3.045-.273c1.712-.842 3.678-3.273 4.234-6.073.518-2.6-.223-3.34-.928-3.465-1.117-.19-3.21 2.236-4.59 4.404-1.075 1.694-1.458 2.754-1.748 3.193-.198.3-.986-.765-1.203-.84-.216-.08-.438-.235-.54-.018-.103.217-.317.278-.32.168-.002-.107.044-.46.044-.46s3.06-5.35 4.812-7.134c1.746-1.79 2.36-2.152 3.636-1.69 1.28.462 2.822 2.162 2.983 3.59.163 1.428.575 3.337-.786 5.74-1.36 2.4-2.922 5.48-6.107 5.538-3.183.06-3.076-1.346-3.212-1.454-.136-.104-4.062 7.958-4.535 8.83-.468.874-.954.828-1.69.49M347.682 106.064c-.542-.097-.95-.304-.446-.748.504-.44 2.348-2.985 4.46-4.075 1.432-.743 1.36.513 1.34.974-.016.458-.69 1.956-2.48 3.097-1.786 1.14-2.874.754-2.874.754m9.7 4.68c-.143-.348-.39-.45-.24-1.046.153-.6-.473-.26-1.81-.158-2.724.212-4.91-1.393-4.91-1.393 1.374-.107 5.22-2.282 4.476-6.02-.556-2.815-3.034-3.535-3.548-3.608-.512-.072-.593.065-.778.31-.183.245-1.232-.04-3.678 2.58-3.387 3.625-5.46 8.254-5.772 9.07-.308.813.314.83.563 1.203.25.374.337.752.456 1.073.108.32.325.18.51.07.186-.11.325.02.645-.2.32-.223 1.314-3.345 2.682-5.315.14.215 4.722 4.234 7.812 4.744 1.913.317 2.745-.158 3.254-.52.505-.36.478-.44.337-.79M372.983 106.38c-.483.037-1.03-.116-.99-.953.007-.097 2.543-2.638 3.53-3.224.99-.585 1.043-.614.867.12-.176.73-2.922 4.02-3.407 4.058m15.43.796c-.27.032-1.75.14-2.292.205-.536.064-2.536-.063-3.01-.863 1.32-1.51 2.698-4.37 2.89-5.72.19-1.354-.235-1.103-.267-1.293-.03-.188-.17-1.94-.995-1.276-.822.663-2.298 2.688-2.87 4.022-.57 1.33-.652 2.52-.652 2.52s-1.797 2.086-5.328 2.477c1.014-.642 2.26-1.825 2.33-2.634.064-.812.403-2.87.12-3.568-.282-.695-.824-2.668-2.197-2.146-2.842 1.077-5.49 4.41-7.737 6.566-2.81 2.698-4.75 2.868-5.263 2.824-.514-.044-.87-.253-.75-.878.126-.62.062-1.16.706-1.524.64-.36 2.412-.88 3.027-1.27.61-.39.656-.903.485-1.495-.176-.588-.402-1.26-.94-1.222-.54.037-3.02 1.676-3.56 1.766-.538.09-1.16.157-1.03-.304.126-.46.297-1.383 2.25-2.444.997-.546 2.2-.634 2.524-.64.322-.006.807-.233.693-.553-.115-.324-.06-1.916-1.815-1.777-.73.058-2.768.753-4.153 1.777-1.385 1.025-2.244 2.58-1.756 4.273.49 1.69.982 1.895 1.467 1.968-.1.434-.512 2.954.97 4.302 1.57 1.43 4.198.705 5.132.095.933-.612 3.957-3.502 3.957-3.502s-.07 2.216 3.155 2.803c1.978.452 3.956.74 7.795-1.84.112 1.59 2.8 2.348 4.575 1.992 1.773-.356 2.343-.152 2.5-.478.156-.327.258-.57.28-.922.022-.35.032-1.27-.24-1.24M384.927 92.473c-.454.143-.086-.43-.034-.513.05-.08.075-.297-.06-.32-.135-.026.474-.658.686-.823.212-.17-.857.365-.94.395-.08.03-.458-.1-.007-.488.45-.385 2.54-1.288 2.566-1.37.026-.08-.79-.227-.494-.315.295-.087 2.597-1.235 3.63-.767 1.035.466 1.938.96 1.97 2.714.03 1.754.1 3.968-2.927 5.427-3.023 1.46-5.517.965-6.144.52-1.29-.918-1.205-3.84-.676-4.388.53-.55.637-.605.922.117.28.724.437 1.773 1.732 1.75 1.295-.024 3.948-.697 4.794-1.926.607-.873.137-1.592-1.24-1.46-1.374.134-3.323 1.304-3.78 1.446M398.454 101.97c-.32.29-2.534 3.043-3.943 3.596-1.407.552-1.972.683-1.314-.99.66-1.673 2.783-5.072 4.934-4.867 0 0-.08.242.05.523.125.283.37.44.416.64.043.2.175.806-.142 1.096m7.56 5.126c-.327-.022-.007-.247-.063-.432-.055-.188-.22-.24-.41-.21-.187.032-.562.203-.7.012-.14-.185.726-.282.935-.422.217-.136.315-.68.176-.73-.13-.052-2.328.826-3.59-.257-1.265-1.083-.948-3.09-.81-4.117.145-1.03 1.64-4.997 3.277-6.92 1.638-1.918.817-2.496.62-2.896-.196-.402-.684-1.658-1.16-1.356-.824.527-3.923 5.283-4.587 8.804 0 0-1.03-1.817-2.407-1.656-1.373.16-4.168 2.48-5.26 4.524-1.256 2.344-1.517 4.197-.505 6.326.56 1.178 2.495 1.095 3.497.664 2.034-.873 4.675-4.134 4.675-4.134s.756 3.063 3.112 3.397c2.458.35 2.75-.132 2.966-.244.212-.113.56-.335.236-.354" fill="#ef5ba1"/><path d="M412.474 93.793c-.283.044-3.933.742-6.082 2.846-2.15 2.104-2.427 3.467-1.822 5.377.603 1.914 2.995 2.134 4.392 2.068-.41.958-.59 3.187 2.168 3.54 2.76.355 3.03-.48 3.225-.806.2-.328.192-.61.168-.835-.025-.222.066-.75-.156-.827-.225-.078-1.337.046-1.863.015-.527-.032-1.542-.134-1.37-.764.17-.632 2.345-1.118 2.708-1.288.142-.066.537-.252.554-.576.037-.507-.376-1.23-.488-1.45-.19-.36-.934-1.115-1.76-.898-.825.217-1.947 1.11-2.225 1.236-.28.127-1.72.032-2.392-.178-.672-.212-1.79-.454-.636-1.55.74-.696 3.47-2.835 6.885-3.303.555-.078.284-.978.138-1.278-.146-.302-.446-1.166-.57-1.205-.123-.04-.127-.24-.874-.127M417.99 95.232c-.12.112.246.217.436.68.19.46-.302 1.12.127 1.414.432.296 1.173-.224 1.366.42.194.644.3.824-.21 1.727-.513.897-1.955 3.92-1.86 4.77.098.85.01 1.558.637 1.465.624-.092 1.144.547 1.524-.695.384-1.24 2.494-5.35 2.55-5.594.058-.247.922-1.72 1.585-1.913.663-.195 1.31.563 1.088 1.844-.22 1.28-.227 5.246 1.002 6.034 1.617 1.037 3.043.35 5.187-1.958-.14 1.32-.168 2.9.28 3.073.45.172 1.34.125 1.364-.553.195-5.004 3.602-10.09 3.602-10.09l4.92-.028s-.204 1.053-.296 1.62c-.09.57 1.102 1.562 1.407 1.596.306.036-.155.368-.89 1.212s-2.164 4.414-.472 5.11c1.695.7 5.412.287 6.62-.04 1.21-.327 1.487-.634 1.282-.732-.205-.1-.525.07-.37-.258.158-.325.255-.51.053-.527-.203-.014-.488-.072-.39-.172.1-.105.924-.424.636-.64-.286-.22-.472-.197-.672-.172-.2.024-4.346.385-4.67.29-.327-.095-.836-.39-.122-.97.722-.58 2.924-1.856 3.036-2.344.115-.488-.16-1.05-.348-1.33-.186-.28-.995-1.297-1.078-1.477-.083-.18.573-.64.895-.727.325-.085 3.293-.485 3.698-.493.407-.007.893.086.866-.34-.03-.425-.356-.6-.156-.828.197-.227.82-.397.692-.8-.13-.402-.644-.8-1.21-.73-.565.074-5.596.55-5.596.55l-6.687-.22s1.153-2.29 3.426-5.184c.2-.252-.032-.608-.14-1.132-.114-.523-.12-1.092-.248-1.29-.124-.202-.463-1.045-.844-.736-.377.313-4.947 8.395-4.947 8.395s-3.873-.175-4.5-.282c-.626-.112-1.875-.695-1.943-.088-.07.61-.295 2.7 1.35 2.97 1.645.276 3.77.054 3.77.054s-.974 2.285-1.945 3.398c-.973 1.112-2.348 3.343-3.963 3.555-.383.05-.79-.005-.8-.512-.01-.507.366-4.32.005-5.143-.356-.822-.953-2.563-2.13-2.612-1.967-.085-3.294 1.66-3.41 1.805-.118.143-.764-1.85-2.22-1.842-.483 0-.812.015-1.288.47M456.682 106.32c-.18.363-.412 1.75-.28 2.353.13.608.748 1.08 1.516.986.768-.096 1.127-.426 1.076-1.074-.054-.647-.366-2.14-.695-2.376-.328-.236-1.15-.83-1.618.11M458.56 100.495c-.1.152-.44.21-.527-.073-.086-.278-.293-1.124-.274-1.614.05-1.54 5.23-12.77 5.938-13.874.707-1.11.375-1.63.77-2.042.398-.412 1.052-.26 1.266.425.215.683.415 2.62.017 3.197-.394.573-1.652 2.663-1.923 3.192-.275.532-3.787 7.563-4.02 8.214-.23.654-1.01 2.207-1.248 2.575" fill="#ef5ba1"/></svg>