<svg xmlns="http://www.w3.org/2000/svg" xmlns:xlink="http://www.w3.org/1999/xlink" width="400" height="133.003"><defs><linearGradient id="a" gradientTransform="matrix(0 -25.9 -34.2 0 438.4 124.1)" gradientUnits="userSpaceOnUse" x2="1"><stop offset="0" stop-color="#fff"/><stop offset="1" stop-color="#a7a5a6"/></linearGradient><linearGradient xlink:href="#a" id="b" gradientUnits="userSpaceOnUse" gradientTransform="matrix(0 43.6 -57.4 0 448.9 397.1)" x2="1"/></defs><path d="M158.66 51.07h10.044l-2.784 13.434h-1.936l-.12-3.146c-2.18 1.815-4.6 3.75-9.077 3.75-2.42 0-5.083-1.33-6.05-2.42-2.542-2.783-2.784-7.02-2.058-10.65.725-3.51 2.66-7.745 6.413-10.648 1.33-.97 4.478-2.542 7.745-2.542 1.815-.12 3.752.242 4.962.968 3.63 2.3 3.51 5.446 3.39 7.02h-3.027c.242-2.06-1.452-5.084-5.81-5.084-2.177 0-4.477.727-6.292 2.42-1.935 1.694-3.63 4.84-4.235 7.867-.726 3.024-.242 6.17.968 7.865 1.21 1.695 3.268 2.42 5.325 2.42 1.695 0 3.268-.483 4.478-1.21 4.115-2.54 4.357-5.688 4.72-7.26h-7.26l.604-2.784M183.71 55.427c-.484 2.542-2.178 5.81-4.96 6.656v2.784c3.024-.605 6.413-2.904 7.744-9.44 1.694-8.108-2.663-9.68-5.81-9.68-.604 0-1.21.12-1.935.24v2.905c.483-.122.967-.242 1.45-.242 3.63 0 4.116 3.752 3.51 6.777zm-4.96 6.656c-.364.122-.848.122-1.333.122-3.63 0-4.114-3.872-3.51-6.777.485-2.54 2.058-5.808 4.842-6.535V45.99c-2.906.604-6.416 2.903-7.747 9.438-1.573 7.987 2.663 9.682 5.81 9.682.604 0 1.33 0 1.936-.242v-2.784M199.322 60.752c-.605.726-1.452 1.21-2.178 1.453v2.783c.605-.12 1.21-.363 1.815-.605 2.783-1.33 4.84-4.478 5.687-7.866.968-3.268.847-6.657-.484-8.472-1.21-1.815-2.904-2.3-4.478-2.3-.968 0-1.815.243-2.54.485v2.662c.362-.122.846-.242 1.33-.242 1.33 0 2.663.485 3.268 1.816.968 2.057.363 7.14-2.42 10.286zm-2.178 1.453c-.605.12-1.21.242-1.694.12-1.332 0-2.42-.726-2.905-1.936-1.452-3.873.968-8.715 2.178-10.046.605-.605 1.453-1.21 2.42-1.452V46.23c-.604.12-1.088.363-1.45.605-.85.484-1.575 1.09-1.817 1.573h-.12l1.936-9.198h-2.783l-5.084 25.172h2.42l.363-2.057c.484.726 1.09 1.33 1.936 2.057.605.485 1.694.727 2.904.727.484 0 1.09 0 1.695-.123v-2.783M209.004 64.383h-2.783l3.63-18.153h2.785l-3.63 18.153zm4.357-21.542h-2.783l.726-3.63h2.784l-.726 3.63M222.437 48.287c.484-.242 1.09-.242 1.574-.12 1.332.12 2.42.726 2.663 1.573.363.484.847 2.542.363 4.115h-4.6v2.54h7.14c.607-3.266.97-5.444-.362-8.108-.726-1.33-2.42-2.42-4.598-2.54-.605 0-1.453 0-2.18.12v2.42zm0 16.58v-2.542c2.058-.725 3.026-2.662 3.51-3.51h2.783c-.484 1.09-.968 2.3-2.3 3.632-1.088 1.21-2.54 1.936-3.993 2.42zm-4.84-11.012c.484-1.816 1.815-3.753 2.3-4.116.725-.848 1.693-1.332 2.54-1.453v-2.42c-1.452.363-3.146 1.21-4.598 2.662-1.817 1.572-3.027 4.235-3.51 6.897-.606 2.663-.485 5.204.362 6.778.968 1.936 3.147 2.904 5.446 2.904.726 0 1.573-.123 2.3-.243v-2.542c-.485.123-1.21.242-1.816.242-2.057 0-2.904-1.09-3.51-2.178-.605-1.574-.484-2.663-.12-3.994h5.446v-2.54h-4.84M235.145 46.23h2.662l-.484 2.905c1.452-2.058 3.268-3.27 4.6-3.39h1.45l-.604 3.026c-.97 0-1.816.123-2.664.365-2.057.967-3.388 2.662-3.993 5.81l-1.936 9.438h-2.784l3.752-18.153M248.578 46.23l-.484 2.3h.12c.726-.848 1.573-1.574 2.3-1.937.968-.727 2.3-.847 3.51-.847s2.42.242 2.783.484c.726.484 2.057 1.33 1.815 4.115l-2.783 14.038h-2.785l2.542-12.586c.484-2.3-.848-3.39-2.663-3.39-2.3 0-5.083 1.453-6.05 6.295l-1.937 9.68h-2.784l3.63-18.152h2.784M273.63 55.427c-.606 2.542-2.18 5.81-4.962 6.656v2.784c2.904-.605 6.414-2.904 7.745-9.44 1.573-8.108-2.663-9.68-5.81-9.68-.604 0-1.21.12-1.935.24v2.905c.363-.122.847-.242 1.33-.242 3.63 0 4.236 3.752 3.63 6.777zm-4.962 6.656c-.485.122-.97.122-1.453.122-3.51 0-4.115-3.872-3.51-6.777.485-2.54 2.18-5.808 4.963-6.535V45.99c-3.026.604-6.415 2.903-7.746 9.438-1.694 7.987 2.663 9.682 5.81 9.682.604 0 1.21 0 1.936-.242v-2.784M296.502 42.115h1.09c4.72 0 4.84 2.784 4.598 4.236-.363 1.574-1.573 3.632-5.082 3.632h-.606v2.904c2.784 0 5.325.605 4.6 4.115-.364 1.816-1.816 4.236-4.6 4.478v2.905c1.816 0 6.536-2.058 7.504-7.26.968-4.6-2.18-5.69-2.784-6.052 2.18-.968 3.63-3.025 4.115-5.324.968-4.962-3.026-6.536-4.962-6.536h-3.873v2.905zm-4.114 0h4.114V39.21h-6.656l-4.962 25.173h11.618v-2.905H288.514l1.694-8.592h6.292v-2.904h-5.688l1.574-7.867M319.497 55.427c-.485 2.542-2.058 5.81-4.84 6.656v2.784c2.903-.605 6.413-2.904 7.744-9.44 1.574-8.108-2.66-9.68-5.808-9.68-.605 0-1.33.12-1.936.24v2.905c.363-.122.847-.242 1.33-.242 3.632 0 4.116 3.752 3.51 6.777zm-4.84 6.656c-.485.122-.97.122-1.454.122-3.63 0-4.114-3.872-3.51-6.777.485-2.54 2.18-5.808 4.963-6.535V45.99c-3.026.604-6.535 2.903-7.746 9.438-1.694 7.987 2.542 9.682 5.688 9.682.605 0 1.332 0 2.058-.242v-2.784M329.178 39.21h2.784l-5.083 25.173h-2.785l5.083-25.173M342.733 59.058c-.12.484-1.574 2.42-3.994 3.267v2.18c1.33-.485 2.54-1.332 3.388-1.938-.12 1.09.847 2.542 2.057 2.542.968 0 1.452-.123 2.178-.243l.484-2.3c-.242.123-.484.123-.605.123-.726 0-1.21-.606-1.09-1.09l2.42-12.102c.244-1.694-1.33-2.904-3.266-3.39-1.09-.36-2.058-.36-2.904-.36-1.09 0-1.937.12-2.663.36v2.543c.483-.24 1.088-.363 1.693-.363 1.815 0 4.115.606 4.115 1.937l-.484 2.058c-.12.967-1.21 1.33-1.573 1.452-1.21.242-2.178.242-3.75.362v2.422c1.572-.242 3.266-.485 4.72-.97l-.727 3.51zm-3.994 3.267c-.606.242-1.453.364-2.18.364-1.573-.123-2.904-.848-2.42-3.148.242-1.33 1.573-2.178 2.18-2.42.604-.364 1.45-.484 2.42-.605v-2.42c-.727.12-1.695.362-2.906.725-1.815.484-3.75 1.695-4.477 4.72-.12.605-.242 1.09-.242 1.694 0 2.42 1.936 3.873 5.082 3.873.848 0 1.695-.243 2.542-.606v-2.18zm0-16.216v2.54c-1.816.605-2.3 2.42-2.42 3.026h-2.664l.484-1.574c.363-1.09 1.573-2.662 3.51-3.51.363-.24.726-.362 1.09-.483M366.21 39.695c-.725 1.573-1.21 2.42-2.42 3.146-.726.364-1.452.606-1.936.486l-2.54-.605c-1.575-.363-1.696-.12-2.785 1.332h-1.453c.484-1.09 1.815-4.236 4.478-3.753l2.3.484c2.177.484 2.54-.485 3.024-1.09h1.33zm-10.528 6.535l-.484 2.3h.12c.605-.848 1.574-1.574 2.3-1.937.968-.727 2.3-.847 3.51-.847s2.3.242 2.783.484c.727.484 2.058 1.33 1.816 4.115l-2.783 14.038h-2.784l2.54-12.586c.485-2.3-.847-3.39-2.783-3.39-2.3 0-5.083 1.453-5.93 6.295l-1.936 9.68h-2.783l3.63-18.152h2.784M380.612 55.427c-.484 2.542-2.057 5.81-4.84 6.656v2.784c2.904-.605 6.414-2.904 7.745-9.44 1.573-8.108-2.663-9.68-5.81-9.68-.604 0-1.33.12-1.936.24l.002 2.905c.363-.122.847-.242 1.33-.242 3.63 0 4.116 3.752 3.51 6.777zm-4.84 6.656c-.485.122-.97.122-1.453.122-3.51 0-4.116-3.872-3.51-6.777.484-2.54 2.178-5.808 4.96-6.535l.002-2.904c-3.026.604-6.415 2.903-7.746 9.438-1.694 7.987 2.663 9.682 5.81 9.682.483 0 1.21 0 1.935-.242l.002-2.784M387.753 59.058c-.242 1.694.484 2.784 2.3 3.51.604.122 1.45.122 2.42.122.847-.243 1.815-.485 2.3-.847.725-.364 1.33-1.21 1.45-2.18.243-.847-.12-1.814-1.33-2.298-2.057-.485-4.72-1.09-6.05-1.816-1.21-.485-2.18-1.695-1.575-4.358.727-3.51 3.994-5.445 7.383-5.445 5.69 0 5.568 3.51 5.205 5.566h-2.663c.242-.968.484-2.904-3.267-2.904-1.695 0-3.147.967-3.752 1.935-.605.968-.484 1.937.242 2.542.847.484 2.18.847 3.752 1.33 1.33.243 2.662.606 3.75 1.332 1.333.968 1.575 2.782.97 4.477-.605 1.816-2.058 3.51-3.994 4.356-.968.364-2.057.605-3.268.727-1.09 0-2.3 0-3.267-.242-3.752-.97-3.51-4.236-3.147-5.81h2.543" fill-rule="evenodd"/><path d="M192.666 82.657h2.54l-1.45 13.07-1.09 5.93h-4.84l1.21-6.414 3.63-12.586zm3.752-1.573h-4.6l.97-4.84h4.598l-.968 4.84M218.08 94.638h-4.477l-6.293-17.063-3.268 17.063h-4.478l4.84-25.414h4.48l6.292 17.064 3.268-17.064h4.477l-4.84 25.414M224.495 76.243h4.6l-2.18 10.892c-.363 1.332-.484 2.178-.484 2.42 0 .605.243 1.09.485 1.452.363.364.726.606 1.33.606.364 0 .728-.122.97-.364.362-.12.726-.363 1.09-.726.483-.364.725-.726 1.088-1.21.242-.485.605-1.09.847-1.816.12-.484.363-1.33.605-2.42l1.815-8.835h4.478l-3.75 18.395h-4.237l.485-2.42c-1.815 1.936-3.63 2.904-5.688 2.904-1.33 0-2.3-.484-3.026-1.33-.725-.848-1.088-2.058-1.088-3.51 0-.606.12-1.815.605-3.752l2.058-10.287M255.113 87.014h-7.503V83.99h3.63v-.486c0-1.45-.242-2.42-.847-3.146-.605-.605-1.33-.968-2.3-.968h-.483v-3.51h1.09c2.056 0 3.63.605 4.84 2.057 1.21 1.33 1.815 3.268 1.815 5.81 0 1.21 0 2.3-.242 3.267zm-7.503 4.478c1.21-.243 2.178-1.09 2.904-2.54l4.115.846c-.848 1.694-1.937 3.025-3.27 3.993-1.088.728-2.298 1.212-3.75 1.332v-3.63zm0-4.478h-3.994v.484c0 1.21.363 2.178.968 2.904.605.727 1.453 1.21 2.3 1.21.242 0 .484-.12.726-.12v3.63h-.726c-2.3 0-4.115-.847-5.567-2.3-1.453-1.573-2.058-3.752-2.058-6.292 0-2.542.604-4.72 1.815-6.778 1.573-2.3 3.75-3.63 6.535-3.873v3.51c-.726.12-1.332.483-2.057 1.21-.727.725-1.21 1.814-1.453 3.388h3.51v3.025M263.706 94.638h-3.873l-3.39-18.395h4.48l1.088 7.988.727 4.357c0-.12.484-.967 1.09-2.178.605-1.332 1.09-2.06 1.21-2.42l4.115-7.747h4.96l-10.406 18.395M278.954 76c.605-.12 1.332-.12 2.058-.12 2.178 0 3.75.363 4.84 1.33 1.09.97 1.574 2.18 1.574 3.51 0 .605-.12 1.21-.12 1.816-.12.605-.484 2.178-.97 4.84-.483 2.3-.725 3.752-.725 4.6 0 .846.122 1.693.485 2.662h-4.477c-.243-.605-.363-1.332-.363-2.058-.606.848-1.453 1.453-2.3 1.815V91.25c.242-.122.605-.243.847-.364.605-.484 1.09-.847 1.33-1.452.365-.605.607-1.452.85-2.662l.12-.727c-.243.12-.606.242-1.09.242-.726.12-1.452.243-2.058.363v-3.146c1.816-.12 3.147-.363 3.752-.605.242-.728.242-1.212.242-1.695 0-.484-.12-.97-.484-1.33-.484-.365-.968-.486-1.815-.486-.727 0-1.21.12-1.696.362V76zm-1.21 5.447l-4.478-.363c.606-1.694 1.453-2.905 2.663-3.873.846-.604 1.814-.967 3.024-1.21v3.753c-.12.122-.12.122-.242.122-.484.363-.726.967-.968 1.572zm1.21 12.95c-.847.483-1.815.725-2.662.725-1.33 0-2.542-.484-3.51-1.452-.847-1.09-1.33-2.3-1.33-3.872 0-1.816.483-3.268 1.572-4.236.97-1.09 2.784-1.694 5.325-1.936.24 0 .362 0 .604-.122v3.147c-1.21.243-1.936.605-2.42.97-.484.362-.726.967-.726 1.693 0 .605.12 1.09.484 1.452.484.363.968.605 1.573.605.363 0 .726 0 1.09-.122v3.147M295.534 94.638l4.962-25.414h17.306l-.847 4.236H304.37l-1.09 5.808h12.223l-.847 4.236h-12.224l-1.33 6.898h13.554l-.848 4.236h-18.274M319.133 76.243h4.236l-.606 3.51c1.573-2.663 3.268-3.873 5.083-3.873.726 0 1.33.122 2.178.484l-1.815 4.115c-.363-.243-.847-.243-1.33-.243-.727 0-1.574.242-2.422.968-.847.605-1.452 1.452-1.936 2.542-.363 1.09-.847 2.783-1.33 5.082l-1.09 5.808h-4.478l3.51-18.395M335.955 76c.726-.12 1.332-.12 2.18-.12 2.177 0 3.75.363 4.84 1.33.968.97 1.452 2.18 1.452 3.51 0 .605 0 1.21-.12 1.816-.12.605-.364 2.178-.97 4.84-.362 2.3-.604 3.752-.604 4.6 0 .846.12 1.693.363 2.662h-4.477c-.122-.605-.243-1.332-.243-2.058-.727.848-1.453 1.453-2.42 1.815V91.25c.362-.122.604-.243.967-.364.605-.484.968-.847 1.332-1.452.24-.605.605-1.452.847-2.662l.12-.727c-.363.12-.726.242-1.21.242-.726.12-1.452.243-2.058.363v-3.146c1.937-.12 3.147-.363 3.873-.605.12-.728.242-1.212.242-1.695 0-.484-.242-.97-.605-1.33-.363-.365-.968-.486-1.694-.486s-1.33.12-1.815.362V76zm-1.09 5.447l-4.477-.363c.484-1.694 1.332-2.905 2.663-3.873.848-.604 1.816-.967 2.905-1.21v3.753c0 .122-.12.122-.12.122-.484.363-.847.967-.968 1.572zm1.09 12.95c-.847.483-1.694.725-2.54.725-1.453 0-2.543-.484-3.51-1.452-.97-1.09-1.332-2.3-1.332-3.872 0-1.816.484-3.268 1.452-4.236.97-1.09 2.784-1.694 5.446-1.936.122 0 .364 0 .485-.122v3.147c-1.09.243-1.936.605-2.42.97-.484.362-.726.967-.726 1.693 0 .605.24 1.09.604 1.452.363.363.847.605 1.452.605.484 0 .847 0 1.09-.122v3.147M346.605 89.798h4.6l-.97 4.84h-4.598l.968-4.84zm3.752-1.574h-2.54l1.45-12.95 1.09-6.05h4.84l-1.21 6.414-3.63 12.586" fill="#7d7d7d" fill-rule="evenodd"/><path d="M192.666 82.657h2.54l-1.45 13.07-1.09 5.93h-4.84l1.21-6.414 3.63-12.586zm3.752-1.573h-4.6l.97-4.84h4.598l-.968 4.84M218.08 94.638h-4.477l-6.293-17.063-3.268 17.063h-4.478l4.84-25.414h4.48l6.292 17.064 3.268-17.064h4.477l-4.84 25.414M224.495 76.243h4.6l-2.18 10.892c-.363 1.332-.484 2.178-.484 2.42 0 .605.243 1.09.485 1.452.363.364.726.606 1.33.606.364 0 .728-.122.97-.364.362-.12.726-.363 1.09-.726.483-.364.725-.726 1.088-1.21.242-.485.605-1.09.847-1.816.12-.484.363-1.33.605-2.42l1.815-8.835h4.478l-3.75 18.395h-4.237l.485-2.42c-1.815 1.936-3.63 2.904-5.688 2.904-1.33 0-2.3-.484-3.026-1.33-.725-.848-1.088-2.058-1.088-3.51 0-.606.12-1.815.605-3.752l2.058-10.287M255.113 87.014h-7.503V83.99h3.63v-.486c0-1.45-.242-2.42-.847-3.146-.605-.605-1.33-.968-2.3-.968h-.483v-3.51h1.09c2.056 0 3.63.605 4.84 2.057 1.21 1.33 1.815 3.268 1.815 5.81 0 1.21 0 2.3-.242 3.267zm-7.503 4.478c1.21-.243 2.178-1.09 2.904-2.54l4.115.846c-.848 1.694-1.937 3.025-3.27 3.993-1.088.728-2.298 1.212-3.75 1.332v-3.63zm0-4.478h-3.994v.484c0 1.21.363 2.178.968 2.904.605.727 1.453 1.21 2.3 1.21.242 0 .484-.12.726-.12v3.63h-.726c-2.3 0-4.115-.847-5.567-2.3-1.453-1.573-2.058-3.752-2.058-6.292 0-2.542.604-4.72 1.815-6.778 1.573-2.3 3.75-3.63 6.535-3.873v3.51c-.726.12-1.332.483-2.057 1.21-.727.725-1.21 1.814-1.453 3.388h3.51v3.025M263.706 94.638h-3.873l-3.39-18.395h4.48l1.088 7.988.727 4.357c0-.12.484-.967 1.09-2.178.605-1.332 1.09-2.06 1.21-2.42l4.115-7.747h4.96l-10.406 18.395M278.954 76c.605-.12 1.332-.12 2.058-.12 2.178 0 3.75.363 4.84 1.33 1.09.97 1.574 2.18 1.574 3.51 0 .605-.12 1.21-.12 1.816-.12.605-.484 2.178-.97 4.84-.483 2.3-.725 3.752-.725 4.6 0 .846.122 1.693.485 2.662h-4.477c-.243-.605-.363-1.332-.363-2.058-.606.848-1.453 1.453-2.3 1.815V91.25c.242-.122.605-.243.847-.364.605-.484 1.09-.847 1.33-1.452.365-.605.607-1.452.85-2.662l.12-.727c-.243.12-.606.242-1.09.242-.726.12-1.452.243-2.058.363v-3.146c1.816-.12 3.147-.363 3.752-.605.242-.728.242-1.212.242-1.695 0-.484-.12-.97-.484-1.33-.484-.365-.968-.486-1.815-.486-.727 0-1.21.12-1.696.362V76zm-1.21 5.447l-4.478-.363c.606-1.694 1.453-2.905 2.663-3.873.846-.604 1.814-.967 3.024-1.21v3.753c-.12.122-.12.122-.242.122-.484.363-.726.967-.968 1.572zm1.21 12.95c-.847.483-1.815.725-2.662.725-1.33 0-2.542-.484-3.51-1.452-.847-1.09-1.33-2.3-1.33-3.872 0-1.816.483-3.268 1.572-4.236.97-1.09 2.784-1.694 5.325-1.936.24 0 .362 0 .604-.122v3.147c-1.21.243-1.936.605-2.42.97-.484.362-.726.967-.726 1.693 0 .605.12 1.09.484 1.452.484.363.968.605 1.573.605.363 0 .726 0 1.09-.122v3.147M295.534 94.638l4.962-25.414h17.306l-.847 4.236H304.37l-1.09 5.808h12.223l-.847 4.236h-12.224l-1.33 6.898h13.554l-.848 4.236h-18.274M319.133 76.243h4.236l-.606 3.51c1.573-2.663 3.268-3.873 5.083-3.873.726 0 1.33.122 2.178.484l-1.815 4.115c-.363-.243-.847-.243-1.33-.243-.727 0-1.574.242-2.422.968-.847.605-1.452 1.452-1.936 2.542-.363 1.09-.847 2.783-1.33 5.082l-1.09 5.808h-4.478l3.51-18.395M335.955 76c.726-.12 1.332-.12 2.18-.12 2.177 0 3.75.363 4.84 1.33.968.97 1.452 2.18 1.452 3.51 0 .605 0 1.21-.12 1.816-.12.605-.364 2.178-.97 4.84-.362 2.3-.604 3.752-.604 4.6 0 .846.12 1.693.363 2.662h-4.477c-.122-.605-.243-1.332-.243-2.058-.727.848-1.453 1.453-2.42 1.815V91.25c.362-.122.604-.243.967-.364.605-.484.968-.847 1.332-1.452.24-.605.605-1.452.847-2.662l.12-.727c-.363.12-.726.242-1.21.242-.726.12-1.452.243-2.058.363v-3.146c1.937-.12 3.147-.363 3.873-.605.12-.728.242-1.212.242-1.695 0-.484-.242-.97-.605-1.33-.363-.365-.968-.486-1.694-.486s-1.33.12-1.815.362V76zm-1.09 5.447l-4.477-.363c.484-1.694 1.332-2.905 2.663-3.873.848-.604 1.816-.967 2.905-1.21v3.753c0 .122-.12.122-.12.122-.484.363-.847.967-.968 1.572zm1.09 12.95c-.847.483-1.694.725-2.54.725-1.453 0-2.543-.484-3.51-1.452-.97-1.09-1.332-2.3-1.332-3.872 0-1.816.484-3.268 1.452-4.236.97-1.09 2.784-1.694 5.446-1.936.122 0 .364 0 .485-.122v3.147c-1.09.243-1.936.605-2.42.97-.484.362-.726.967-.726 1.693 0 .605.24 1.09.604 1.452.363.363.847.605 1.452.605.484 0 .847 0 1.09-.122v3.147M346.605 89.798h4.6l-.97 4.84h-4.598l.968-4.84zm3.752-1.574h-2.54l1.45-12.95 1.09-6.05h4.84l-1.21 6.414-3.63 12.586M161.685 109.645s138.69-12.465 207.067-4.115l7.02 6.294s-26.262-11.497-214.087-2.18" fill="#7d7d7d" fill-rule="evenodd"/><path d="M66.44 0c36.67 0 66.562 29.892 66.562 66.56 0 36.55-29.892 66.443-66.56 66.443v-3.632l6.292-.36 6.293-1.09 6.172-1.574 5.687-1.936 5.446-2.663 5.325-3.147 4.72-3.75 4.477-3.995 4.115-4.478 3.51-4.96 3.146-5.084 2.784-5.446 2.178-5.688 1.574-5.932.726-6.292.484-6.293-.484-6.414-.726-6.295-1.574-6.172-2.178-5.688-2.784-5.446-3.146-5.325-3.51-4.72-4.115-4.478-4.477-4.115-4.72-3.51-5.325-3.147-5.446-2.783L85.2 6.414 79.026 4.84l-6.293-.726-6.293-.484V0zm0 0v3.63h-.12l-6.293.484-6.293.727-5.93 1.574-5.688 2.178-5.446 2.783-5.083 3.147-4.962 3.51-4.477 4.114-3.994 4.48-3.752 4.72-3.146 5.323-2.663 5.445-2.057 5.688-1.574 6.172-.968 6.294-.363 6.413.364 6.293.968 6.292 1.574 5.93 2.057 5.69 2.663 5.445 3.146 5.083 3.752 4.96 3.994 4.48 4.477 3.993 4.962 3.75 5.083 3.147 5.446 2.663 5.688 1.936 5.93 1.574 6.293 1.09 6.293.36h.12v3.633C29.893 133.003 0 103.11 0 66.56 0 29.893 29.892 0 66.44 0" fill="#949494" fill-rule="evenodd"/><path d="M101.416 85.44l-34.37-57.364-34.49 57.365h68.86" fill="#fff"/><path d="M209.75 471.084l-34.337 56.992h68.854l-34.22-56.992h-.298z" fill="url(#b)" transform="translate(-142.9 -443)"/><path d="M109.724 98.273V96.7c.968.242 1.815.362 2.057.362.606 0 .606 0 .97-.604 0 .242.24.604 0 .847 0 .363-.364.484-1.09 1.452-.605.605-.605.968-.605.968 0 .242-.363.242-.363.242v-.605c0-.363 0-.605-.363-.968-.122 0-.365-.12-.606-.12zm0-5.81V90.77l4.114 1.936c.242.242.605 0 1.21-1.09.606-1.21.606-1.815-.363-2.3v-.967h.363c0 .362.727.967 1.695 1.09v.603c0 .363-.242.363-1.574 2.905-1.09 1.816-1.09 2.42-1.09 2.42l-.242.243c-.363 0-.363-.242-.363-.604 0-.242 0-.606-.484-.727l-3.266-1.816zm9.076-14.038c-.363.97-1.452 1.816-2.3 1.574-1.33-.364-1.815-1.575-1.815-2.3.363-1.332 1.453-1.937 2.663-1.937.968.484 1.694 1.573 1.452 2.662zm-9.076 12.345v1.694l-1.332-.727c-.968-.604-.968-.12-1.09.364h-.483l-.12-.483c.12-.484.604-.484.725-1.21.605-.968.605-1.09.605-1.453l.363-.242.242.605c-.242.122 0 .726.484 1.09l.604.363zm0 5.93v1.573c-.363-.242-.97-.484-1.332-.484l-1.694 2.177c.605.484.726 1.453 1.33 2.057.364 0 .97 0 .97-.604h.12v.604c0 .12-.484.727-.727 1.09 0 0-.362.605-.603.847h-.364v-.24c0-.606-.12-1.575-1.694-3.995l-.727-1.09v-1.33l1.33 2.057 1.09-1.694h-.726l-.605-.363.605-1.694c0 .363.605.363.726.485.727.242 1.574.363 2.3.605zm-4.72 9.56c.242 0 .484-.122.726-.242.605-.605.605-1.573.605-2.057.363 0 0-.24 0-.24h-.242s0 .24-.363.604c-.242.12-.484.242-.726.12v1.816zm0-9.198l1.09.243.604-1.694c-.363 0-1.09-.122-1.694-.122v1.574zm0-1.573v1.572h-.242l.242.243v1.33c-.605-.846-1.09-1.573-1.332-1.573s-.242 0-.242-.362v-.605c.605-.727.242-1.09.242-1.09.363-.24.363-.24.484.363 0 0 .364 0 .848.12zm0 8.955v1.815c-.484-.122-1.09-.242-2.18-.847-1.45-.968-2.056-.968-2.54-.122l1.452 1.817c.605.605.726.605 1.33.363.364-.363.364-.363.364 0v.242c-.363.605-.968.968-1.09 1.09-.604.362-.967.604-1.21.967 0 0 0 .24-.362 0v-.364c.363-.605 0-.726-.12-1.33l-3.268-3.27 1.33-1.45.606 1.088c.363 0 .363 0 .97-.484.846-.605.846-1.21.362-1.936-.606-.605-.97-.605-1.937.12-.24 0-.604.606-.604.606l.605.605-1.33 1.09c-.12-.122-.363-.243-.484-.364v-1.33c1.09-.727 1.21-1.33 1.815-1.695.97-.725 2.06-1.09 3.027-.242.605.606.605 1.937-.363 2.904.847-.725 2.54.606 3.63.727zm-8.11 8.47v-.967c.364.122.727 0 1.09-.12h.12v.242c-.12 0 0 0-.12.362-.363 0-.726.364-1.09.485zm0-10.164v1.332c-.362-.122-.604-.122-1.088-.122 0 .364-.12.364-.12.364v-.606c.12 0 .12-.363 1.09-.968h.12zm0 9.198c-.12-.12-.362-.242-.483-.483l-3.266-4.963.968-.122c.605-.604 1.21-.362 1.573 0 .12.606.12.606.605.606v-.968s-.484-.242-.605-1.21c-.605-.364-.605-.484-.605-.484 0-.364-.363-.364-.363-.364 0 .364 0 .847-1.09 1.453l-2.904 2.057c-.12.122-.363.242-.484.242v2.057c.12.12.12.24.12.24l.362.364v-.605-.364c-.363-.605-.363-.726.606-1.694l.726-.242 3.025 4.962c.24.605.24.726 0 1.21v.484c.604-.363.725-.484 1.33-1.09.12 0 .364-.12.485-.12v-.968zm-6.655 4.84v-3.51l.12.365c.362.726.604 1.09.968 1.694 0 .122 0 .122-.606.847 0 .242 0 .605-.363.605 0 .12 0 .12-.12 0zm0-9.076v2.058c-.12-.242-.243-.605-.485-.97-.12-.12-.12-.482-.484-.724l.364-.364s.12.242.605 0zm0 5.567l-.606-1.937c-.968-1.936-.968-2.178-.605-2.542v-.12s0-.362 0 0c-.364 0-.97.12-1.574.12-.364.365-.847.607-.847.607-.244 0-.244.363-.244.363 0 .242.243.242.243 0 .846-.363 1.088 0 1.693 1.21l1.452 3.752-4.962-3.267c-.484-.485-.726-1.09-1.09-.727 0 0-.604.242-.967.605h-.484v.484c.242 0 .605.485.847 1.21l1.693 3.995c.605.967.484 1.09 0 1.45v.606c.605-.362.968-.362 1.21-.605.363-.362.968-.362 1.453-.484v-.485c0-.12 0-.12-.364 0-.726.484-1.09 0-1.694-1.33l-1.33-3.148 4.96 2.784c.727.606 1.09.848 1.21.97v-3.51zm-7.988 6.414v-2.3h.483s-.12 1.09 0 1.694c0 .242 0 .606-.12.606h-.363zm0-8.35v.483c-.12 0-.242.12-.242.242h-.363c0-.243 0-.605.363-.727h.242zm0 6.05v.12c0 .606-.242 1.574-1.816 1.816-1.33.364-1.694.364-1.694-.242l-.726-2.663c.242-.24.726-.24 1.09-.24.846-.364 1.21-.364 1.33.24v.364c.484 0 .484 0 .484-.365.12 0 .12 0 .12-.24 0 0-.12-.364-.604-.848v-.605-.363c-.12 0-.12.482-1.332.967-.484 0-.847 0-1.09.122l-.725-1.817c.362-.484.725-.484 1.33-.484 1.09-.123 1.695-.123 1.816 0 .605.483.605.604.605.604.364 0 .364-.12.364-.12 0-.484-.363-.606-.363-1.21-.604-.606-.12-.97-.604-.97-.12.364 0 .364-4.357 1.574-.727.122-1.09.122-1.332.122 0 0 0 .12-.12.242v.363h.12c.605 0 .847 0 .847.606l1.452 5.325c0 .484 0 .726-.363.726-.242.365-.242.607-.242.607 0 .363 0 .363.242 0 .363 0 1.33-.242 2.662-.606 1.816-.483 2.542-.725 2.905-.725v-2.3zm-7.625 2.905v-1.09c0-.122.12-.122.12-.122v1.089c0 .122-.12.122-.12.122zm0-6.9v.363h-.242c0-.12.12-.242.242-.362zm0 5.81c-.363.242-.968 1.21-1.936 1.21-1.45.363-2.66-.605-2.782-2.905-.485-2.057.484-2.783 1.694-3.146 1.452 0 1.694.967 2.057 1.088v.726c.24 0 .24-.363.24-.363v-.362-.726c-.24-.97 0-.97 0-1.09 0-.483-.24-.483-.24-.483l-.606.483c-.363 0-.484-.484-1.452 0-2.18.12-3.51 2.54-3.51 4.478.605 2.663 1.937 4.236 3.63 3.752.97 0 1.332-.484 2.905-1.573v-1.09zm-19.847 2.178v-.605c.605-.122 1.33-1.09 2.42-3.39.726-1.21 1.332-2.66 1.695-3.024 0-.243-.363-.243-.363-.243 0-.364.363-.364.363-.364h.484c.846-.12.846-.604 1.21-.604v.967s.12 1.33.483 2.057l-1.452.242-.24-1.09-1.454 2.18 2.058.483-.363-.968v-.606l1.453-.242c0 .242 0 .605.484.848.12 1.694 1.09 3.75 1.33 4.356 0 .363.364.363.485.484 0 .484 0 .484-.12.484h-2.178c-.848-.484-1.09-.484-1.453-.484 0-.122.364-.484.364-.484.605 0 .605-.363.605-.605 0-.363-.364-1.453-.364-2.057l-2.54-.605c-.485.968-.97 1.695-.97 2.3 0 .363.485.605.606.968h.363s-.363 0-.363.363h-.12c-.485 0-.97-.362-1.21-.362h-1.21zm0-7.382c.242-.847.242-.847.242-.97h-.242v.97zm0-.97v.97c0 .12-.12.242-.12.363-.12.362-.12.482-.12.967h-.485v.122c-.12-.123-.12-.123 0-.607 0-.483 0-1.21-1.33-1.693-1.453-.122-2.18 0-2.543 2.178-.968 2.662 0 3.75.848 3.993 1.33.365 2.54-.604 2.54-.604s.364 0 .364.363h-.363c0 .605 0 .605-.24.605-2.058.483-2.3.725-3.148.483-.847-.242-1.573-.725-1.815-1.452V115.7v-.24c.242-2.3 2.663-3.995 4.6-3.027.967 0 1.088.605 1.572.605h.24zm0 7.747v.605h-.242s0-.605.12-.605h.12zm-6.414-9.44v-.484c.12 0 .12.12.242.12v.364h-.242zm0-.484v.483c-.363 0-.605.242-.848.726l-2.3 4.962c-.24.483 0 .967.485 1.09l-.484.36c0-.36-.243-.36-1.21-.483-.364-.243-.606-.364-.848-.485v-.605c.12-.12.363-.242.484-.726l2.057-4.84c.484-.606.484-.97-.12-1.332 0 0-.363 0-.363-.242h.484c.484 0 .605.242 1.21.605.726.242 1.21.363 1.452.484zm0 4.84c-.484 1.21-.363 2.18 0 3.026V115.7zm-5.204-4.962c.12-.122.242-.242.363-.363.363-.726.242-1.452-.363-2.057v2.42zm0-2.42v2.42c-.605.605-1.573.727-2.542.605 1.33.726-.363 3.39.605 4.115h.726c0 .363-.12.726-.12.726-.604-.363-1.572.242-1.814 0-.484-.726-.847-.847-.484-3.147.484-1.694.12-2.057-.847-2.662l-1.332 2.057c-.363.727-.363 1.21 0 1.33l.242.365c0 .242-.242.242-.242.242-.363-.485-.726-.607-1.09-.85v-2.66l2.3-3.148 1.453.606-.484 1.09c-.363 0 0 .362.484.604.847.726 1.33.363 1.936-.242.363-.605 0-1.09-.726-1.694-.363 0-.363-.364-.968-.364l-.242.606-1.452-.606v-.242c.605-.483.605-1.09 0-1.452H38.2l.364-.242h.605c0 .242 0 .242.846.605 1.21.727 1.815 1.09 2.54 1.332.243.122.364.364.606.606zm0 8.592v.605c-.484-.12-.605-.12-.605-.12v-.363s0-.242.363 0c0 0 .12 0 .242-.122zm-6.898-12.102c.484.363.605.605.605.968 0 .605-.364.726-.364.726 0 .485.363 0 .484 0 .363-.122.363-.484.363-.726.605-.968.847-.968.605-.968-.242-.242-.363-.12-1.694-1.21v1.21zm-5.93-6.414c.242-.243.483-.363.605 0 0 0 0 .363.604.968l.968.97h-.605s-.363-.365-.968 0c0 0-.244.36-.607.724v-2.662zm5.93 5.204v1.21c-.243-.242-.485-.605-.97-.847-.12-.24-.12-.604-.725-.846l-1.332 1.33c.363.364.363.848.968.97.968.967 1.09.967 1.452.967-.363.123-.363.607-.484.607-.484.483-.605.725-.605.725 0 .364-.364 0-.364 0s-.242.364-.605 0l.364-.242c.242-.483.242-.483-.363-1.452-.362 0-.967-.242-.967-.605l-1.816 2.057c-.484.606 0 .848 1.09 1.695.726 1.21 1.33.605 2.3.242h.362v.363s-.97.605-1.574 1.573h-.484c0-.363-.363-.605-2.18-2.42v-3.63l2.3-2.663c.606-.606.606-1.21 0-1.21v-.364h.606c.363 0 .363.364 1.33.968.727.727 1.332 1.21 1.696 1.574zm0 7.26l-.364.607c-.242.604-.605.967-.726.967h-.604v.242c.605.363.726.485 1.33.485.12.24.243.36.364.36v-2.66zM25.25 100.332c1.937-.605 3.752-1.33 4.6-1.573.12-.122.24-.242.483-.363v2.662c-.847.848-2.178 2.3-2.783 2.905-.968.848-.968 1.332-.605 1.453v.605h-.363s-.242 0-.242-.242c-.363-.363-.484-.968-.847-1.33-.242-.12-.848-.727-1.21-1.332h.605s.363.242.968 0c1.09-.97 2.3-2.058 3.388-3.39l-3.993 1.332c-.968.364-1.09.968-1.09.606-.967-.242-1.21 0-1.572-.242 0-.364.605-.364 3.39-5.81-.606.727-2.664 1.816-3.51 2.54v-.966c0-.122.12-.122.12-.122 2.3-1.452 3.388-2.3 3.75-2.3.243-.363.243-.483 0-1.33h.606s.242.362.605.967c.604.363.604.605.968.968l-.364.726c-1.21 1.21-1.573 1.694-2.904 4.236zm5.083 4.962l-1.09 1.21c-.24.485-.604.605-.725.485h-.363v.12s.847.605 2.058 1.694c0 .123 0 .123.12.123v-3.63zM22.467 91.86v-1.332l.726.605c.363-.122 1.09-1.694 1.452-1.694.243 0 .606-.124.243-.124 0-.362-.243 0-.727-.604 0-.364-.362-.727-.362-.727h-.242l-.363.363s-.242 0-.726.122v.847h.484l-.483.363v.848l.726.605c-.242 0-.605.604-.605.604 0 .122-.12.122-.12.122zm0 6.29c-.12.124-.242.124-.242.244-.605.363-.605.968-.242 1.33.242 0 .242.243.242.243-.242.364-.605.364-.605 0-.484-.605-.484-.605-.726-1.21l-.968-.968h.605c.364 0 .848 0 1.937-.606v.967zm0-9.68v.847l-2.54.122 1.21 1.693.483-.726.363-.363.484.484v1.332c-1.09 1.573-2.54 3.146-2.662 3.75-.485.364 0 .486 0 .848H19.2c-.364-.362-.606-.847-.97-1.694-.604-.968-.604-1.33-.725-1.33v-.123h.484c.24.123.604.123.846.123.484-.122 1.09-1.09 1.695-1.695l-1.33-2.3c-.606 0-1.574 0-2.42.606-.243 0-.243.605 0 .968v.122h-.243l-.363-.122c-.242-.363-.242-.968-.605-1.21 0-.363-.122-.484-.606-1.09h.605c.362.606 1.21.243 4.356 0 .968 0 1.936-.12 2.54-.24zm0 1.21l-.484.363.484.485v-.848zm-8.592-11.255c0-1.452.605-2.178 1.694-2.662.967-.12 2.056.484 2.42 1.936.24.725-.485 1.936-1.453 2.3-1.09.24-2.3-.606-2.662-1.575M112.87 51.92v-1.208h.484l.726-.485c.605 0 .968-.363.605-.968v-.364c.363-.242.484 0 .484 0 0 .363 0 .363.484 1.33.484 1.333.847 1.695.847 1.695v.123c-.362 0-.362-.122-.725-.122 0 0-.12-.36-.727 0l-1.21.123c-.363.484-.484.484-.484.484s-.363 0-.363-.484c-.12 0-.12-.122-.12-.122zm0-4.718c.363-.243.968-.605 1.573-.847 2.058-.485 3.268 0 3.39 1.21.604 1.09.483 1.815-.12 2.3l-.364.362c0 .12 0 .12.362.12.12 0 .605-.12 1.09-.484h.725c.484 0 .484-.483.484-.483s-.604-.122-.604-.484c0-.606 0-.847-.363-1.695-.726-1.935-3.39-2.904-5.688-2.298-.242 0-.363.12-.484.242V47.2zm0-6.172v-.968l.484.483c.12-.605 1.33-1.694 1.33-1.694.364-.483.364-.603.364-.603 0-.364-.363 0-.968-.606 0-.362-.242-.362-.605-.483h-.12v.12c-.12.12-.242.243-.484.243v2.542l.485.483s-.363.242-.484.484zm6.535 25.656l-.363.243-.726.36v-2.056l2.42.726-1.33.726.604 1.332c.484-.122 2.058-.605 2.058-.605.605 0 .605 0 .605-.122 0-.362-.484-.362-.605-1.33v-.243l-.363-.363s0 .363-.363.363c-.242 0-1.816-.484-3.026-1.452-2.662-.847-3.63-1.21-3.873-1.694 0-.24-.363-.24-.363-.24h-.242c0 .604.242.725.242 1.33 0 .363-.242.968-.242 1.09 0 0 .242 0 .242.483h.363c0-.483.242-.968.605-.968.727 0 1.695.485 2.3.485v2.662c-.605.483-1.694.968-2.3.968 0 0-.363-.363-.605-.485l-.363-.483v3.509s0 .364.363.364c.242-.363.242-.605.605-.967.606-.242 2.3-1.09 3.994-1.937.363 0 .484 0 .968-.363l-.605-1.33zm-3.63-10.77l3.63-.606c.726-.362.726-.362 1.332.605h.363v-.242c0-.363 0-.725-.363-1.815-.243-.847-.243-1.21-.243-1.332h-.363c0 .727-.604.727-1.33 1.09l-3.752.605c-1.694.485-2.3 2.06-2.057 3.39.485 2.663 2.058 3.63 4.116 3.267l2.904-.604c1.09-.364 1.09 0 1.695.12l.363.484v-.484c0-.12 0-.12-.363-1.09v-1.088c0-.242-.363-.242-.363-.605h-.242v.363c0 .726-.363 1.09-1.574 1.33l-2.783.364c-1.574.242-2.3-.363-2.663-1.452 0-1.33.605-2.3 1.695-2.3zM112.87 37.52v2.542l-.726-.726.605-1.09-2.664.605 1.09 1.695.605-.605.364-.604.726.726v.968h-.12c-1.09 1.573-2.42 3.267-2.663 3.873v.967c0 .122-.363.122-.363 0-.242-.362-.605-.605-1.09-1.936-.24-.605-.604-.726-.604-.726v-.363h.363c.605.363.605.363.726 0 .604-.242.967-1.21 1.572-1.33l-1.573-2.3c-.485 0-1.09 0-1.574.363v-1.21c.484-.12 1.21-.364 2.178-.485 1.452 0 2.542-.12 3.147-.363zm0 7.625c-1.936.967-2.662 2.783-1.815 4.72.484.967 1.452 1.33 1.815 2.056v-1.208c-.363-.242-.605-.485-.726-.848-.363-1.09-.12-1.936.726-2.662v-2.057zm-5.325-11.618v-1.453c.12 0 .363-.12.484-.242.362-.242.604-.847 0-1.33-.12-.364-.364-.485-.485-.727v-1.21c.605.846 1.09 1.09 1.573 1.936.968.727.968 1.816 0 2.422-.484.605-.968.725-1.573.605zm0-4.963v1.21c-.12 0-.242-.12-.242-.24l-.605.362-1.21-1.21h.242c.605-.484.605-.848.605-1.21-.242-.243-.605-.243-.242-.606h.242c0 .363.363 0 .363.363 0 0 0 .242.605.97 0 .12.12.24.242.36zm0 3.51c-.484.242-.968.122-1.452-.484-.363-.363-.363-.968-.363-.968l.968-.726-1.21-1.21-3.51 2.904c-.363.363-.605.484-.726.605v.968c0 .122.12.122.12.122 0 .605.363.968.968 1.573h.12v-.605c-.12-.363-.12-.605.364-1.33l1.936-1.332c.726.606.968.727-.12 2.663-1.21 1.937-1.21 2.42-.605 2.905.12.483 1.09.12 1.694.726l.604-.243v-.36s-.605 0-.605-.122c-.97-.968 1.693-2.904.604-4.235.363.362.726.483 1.21.605v-1.453zm0 6.293v1.21c-.12 0-.242.12-.242.12-.605 0-.484.606 0 .848v.364h-.605v-.365c-.363 0-.605-.847-.968-.847 0-.484-.605-.847-.605-1.33v-.12h.605c.363.36.726.36 1.815.12zm-6.293-13.07v-2.662c.484.242.726.242 1.09.242 0 0 0 .363-.606.605 0 0-.363 1.21-.484 1.815zm0-2.662v2.662c0 .12-.12.12-.12.242l-1.453-.606.362-1.09-2.057 1.09 1.33 1.332.364-.727v-.606l1.452.605c0 .12-.363.604-.363.726-.122 1.936-1.09 4.235-1.09 4.356 0 .605.362.605.362.968.242 0 .242 0 0 0 0 .242-.363.242-.363.242-.364-.242-.97-.605-1.574-1.21-.726-.726-1.09-.726-1.33-.726v-.363h.604c.605 0 .726 0 .726-.242.363-.362.605-1.452.968-2.057l-2.3-1.694c-.362.12-1.088.726-1.693 1.33-.362.363 0 .968.243.968v.364h-.604V25.66c.484-.243 1.21-.606 2.3-1.09 1.693-.726 3.024-1.694 3.024-1.694.243-.242.243-.606.243-.606h.363s.12.364.484.364h.12zm0 9.56v.968c-.484-.24-.726-.483-.968-.847 0-.12-.242-.12 0-.12h.968zm-6.535-12.828v-1.452c.968.605.968.968 1.09.968 0 .242.604.242.604.242 0 .363.364.363 0 .363 0 .12 0 .12-.604 1.09-.12.24-.12.604-.12.725h-.605v-.484c0-.243.12-.848-.362-1.453zm0-1.452v1.452c-.242-.242-.363-.363-.605-.484-1.09-.606-2.058 0-2.784 1.694-1.573 2.058-.968 3.267 0 3.994 1.09.606 2.42 0 2.42 0 .364 0 .364 0 0 0v.364c-.12.242-.12.605-.604.605-1.816 0-2.42 0-3.026-.364-.363-.242-.605-.484-.847-.847v-3.753c.12-.12.243-.363.364-.605.726-1.695 3.268-2.784 5.083-2.057zm0 7.745v2.42c-.242-.363-.605-.725-.968-.847-.122-.363-.606-.605-.727-.967-.363 0-.363 0 0 0h.12c.363 0 .726-.122 1.573-.606zM89.27 16.1v-.727c.243.122.364.242.364.242h.12c0 .242-.12.606-.12.606-.12-.12-.242-.12-.363-.12zm0-.727v.726c-.362-.12-.604.12-.604.363l-2.3 4.84c0 .968 0 1.332.243 1.574h.36c0 .363-.36.363-.604.363 0 0-.363-.363-1.09-.605-.362-.242-.604-.364-.846-.485v-.847c.242-.122.363-.242.363-.484l2.178-4.963c.122-.605.122-.726-.36-1.21h-.244c.243-.122.605-.122.605-.122.122 0 .486.122 1.09.606.606 0 .97.12 1.21.242zm0 5.204c-.846 1.573-.725 2.905 0 3.752v-3.753zm-4.84-6.172v-.847h.847c0 .363-.484.363-.484.363 0 .12-.12.243-.363.485zm0-.847v.847c-.12.363-.363.847-.726 1.816l-.605 2.3c-.364 1.09-.364 1.452-.364 1.694-.12.363-.484.363-.726.605-.605.362-.605.362-.97.362-.12 0 0-.363-.604-1.694l-1.694-5.567-1.09 3.39c-.362 1.573-.362 2.178.364 2.3.242 0 .605 0 .605.362-.362 0-.604.242-.604.242-.726-.242-.968-.605-1.33-.605-.243 0-.606 0-1.09-.122h-.243l.242-.362c.485 0 .848-.243 1.09-1.332l1.33-4.235c.243-.728 0-1.333-.725-1.696 0 0 .363-.242.726-.242 0 0 .242.242.726.242.363 0 .968.363.968.363.242 0 .242.605.605 1.332l1.695 5.566 1.09-3.874c.483-1.33 0-1.693-.848-1.936v-.363h.484s.363 0 .968.363c.242.12.605.243.726.243zm0 7.745v.847c-.484-.242-.726-.242-.726-.242 0-.242 0-.605.363-.605h.363zm-46.835 7.26v-1.33c.242.122.605.122.968 0v.605s-.363.242-.968.726zm0-4.476V18.4c.242-.123.363-.365.605-.485.968-.605 1.33-.12 1.33-.605.12 0 .485-.122.485-.122h.242l.605.726c.363.605.363.968.484.968 0 0 0 .243-.12.243v.362l-.363-.362c-.242-.243-.847-.848-2.3-.243-.968.726-1.21 1.694 0 3.388 1.09 2.3 2.663 2.3 3.39 1.695 1.572-.484 1.572-2.057 1.572-2.057h.12v.968c-.725 1.694-.725 2.3-1.694 2.662-1.21.727-3.145.243-4.355-1.452zm9.32-6.9l.603.123.364.605-1.695.97V16.22l.727.97 1.09-1.332c-.122-.242-1.333-1.33-1.333-1.33 0-.606-.362-.97-.483-.606 0 0 0 .242-.605.726-.363 0-.363 0-.605.484v.12s.242 0 .242.363v3.268c0 3.026 0 3.994-.606 4.357v.605h.363c.242 0 .726-.605 1.21-.605.12 0 .727-.363 1.09-.363l.24-.242v-.364h-.24c-.363 0-.606 0-.97-.36-.12-.606-.12-1.695-.12-2.3l2.18-1.09c.604.606 1.21 1.453 1.33 2.058.485 0 .485.242-.12.604v.485c.605 0 .605-.363 1.452-.485.847-.362 1.694-.604 1.694-.604.242 0 .242-.363.242-.605h-.242s-.363 0-.484-.364c-.605-.12-2.058-1.695-3.63-3.147-.243 0-.243-.242-.606-.606l-1.09 1.332zm9.8-1.935l.485 2.058c0 1.573 0 1.573-.484 1.815-.12 0-.12.363-.12.484h.12s.484-.122 1.21-.122h1.695c2.663-.605 4.115-2.3 3.752-5.325-.12-2.54-1.694-3.51-3.75-3.267h-1.09c-.243.363-.606.363-1.332.363-1.21.362-1.21 0-1.573 0l-.363.604h.726c.242 0 .242.363.605 1.09l.12 2.298 1.816-.12-.604-2.904c.605 0 .968-.364 1.09-.364 1.572 0 2.54.606 2.66 2.663.364 2.3-.12 3.388-1.45 3.75h-1.21c-.122-.362-.122-.362-.122-.967l-.363-2.178-1.814.12zm9.32-3.39c0-.604-.484-.966-.968-.966h-.12c0-.242.12-.606.604-.606h1.454c3.993.364 3.993 0 4.235 0 .362 0 0 .364.362 1.33v1.212l-.363.12s0-.483-.606-.725c-.242-.606-.726-.606-1.694-.606-.605-.362-.847-.362-1.21-.362l-.12 2.3h1.33c.97 0 1.453-.606 1.453-.606v2.299c-.363 0-.363.364-.484.364v-.363c0-.725-.485-.725-1.21-.725h-1.09l-.364 2.663c0 .605.485.726 2.058.726 1.33 0 1.694-.605 1.936-1.09v-.362h.484c0 .363-.484 1.33-.484 2.057 0 .362 0 .362-.242.362H65.07c-.12 0-.12-.363-.12-.363l.12-.243c.484-.363.605-.363.605-1.09l.363-5.324zM37.595 18.4v5.687l-.242-.243c-.968-1.694-.968-4.114.242-5.445zm0 8.833c-.12-.12-.12-.242-.242-.363l-3.39-3.993c-.362-.606-.362-.97-.362-1.21.364-.364 0-.364 0-.485-.24.122-.362.122-.483.364v3.025l2.783 3.632c.364.12.364.726 0 .726v.605h.364c.242 0 .242-.605 1.09-.847.12 0 .24 0 .24-.122v-1.33zm-4.478 4.72v-.847s.12 0 .12-.122c.726-.484.97-1.452.363-2.3v-.483h.363c.243 0 .605 1.09 1.21 1.695.12 0 .12.122 0 .605 0 0-.362.122-2.057 1.452zm0-10.407v3.025l-.605-.726c-.363-.604-.605-.604-1.21-.362 0 .362-.363.362-.363.362v-.967c.362 0 .604 0 1.572-.606.242-.362.484-.604.605-.724zm0 9.56v.847c-.12.12-.242.242-.484.363-1.33 1.573-1.694 1.937-1.694 2.18h-.122v-.607s0-.606-.484-.968l-3.146-3.026v-3.268c.12-.122.242-.242.363-.362 0 0 .12.362 0 .362 0 .605 0 1.21.606 1.574l3.39 3.388c.362.484.846.242 1.572-.484zm-5.93 8.23c.363-.485.968-1.21 1.33-1.453 1.09-1.694.485-3.63-.362-4.6-.363-.12-.726-.24-.968-.24v1.936c.968.604 1.33 1.21.363 2.298l-.363.363v1.696zm0-12.708v3.268l-.605-.605c-.605-.604-.726-.604-1.33-.362 0 0 0 .363 0 0v-.242s.24-.364.725-.848l1.21-1.21zm0 6.414v1.937c-1.21-.727-1.936-.122-2.542.604-.363.363-.363.605-.363.605l.606.483-.727 1.574-1.935-1.332v-1.21l.363-.726.605.604c.363 0 .363 0 .968-.605.485-.727.122-1.09-.362-1.696-.605-.362-1.21-.362-1.573.605v-1.937c.726-.484 1.694-.605 2.42-.122.848.486.606 1.454.243 2.422h.363c.364-.726 1.09-1.21 1.937-1.21zm0 4.6c-.363.362-.605.483-.605.24l-1.694-1.21-.727 1.575.728.967c.968.484 1.09.726.968 1.09 0 .24 0 .24.12.605v-.365c.363 0 .363 0 .968-.847.12-.12.12-.242.242-.362V37.64zm-4.962 9.197v-1.817c.363-.12.726-.484.968-1.09.484-.725.363-2.177-.968-2.782v-.847l.363.242c1.694.97 2.663 2.058 1.573 4.72-.604.727-1.21 1.332-1.935 1.574zm0-11.135l.363-.726-.363-.244v.97zm-4.357 34.49c.242 0 .363 0 .363.123h.364v.363c.242 0 .242 0 .242-.362 0-.242-.242-.727-.242-1.09 0-.605.242-1.21.242-1.815l-.242-.122c-.363 0-.363 0-.363.123 0 .484-.12.726-.362.847v1.936zm0-4.598c.848-.363.968-.726.968-1.33.363-.243-.605-.85-.847-1.332 0-.122 0-.242-.12-.364v3.027zm4.357-33.644v1.936c-.242 0-.605.363-.605.605l.605.24v.97l-.605.847.605.363v-1.21l-.605.847c-1.09-.968-1.33-.605-1.694-.363-.12 0-.12.362-.12 0v-.606s.12-.242.726-.726c.605-.97.968-1.574 1.09-2.542.24-.12.362-.242.604-.363zm0 8.35v.848c-.12 0-.12 0-.242-.12l-2.178-1.09c-.97-.484-1.453-.242-1.937-.12v-1.09c.12-.122.12-.242.12-.363.243-.484.243-.727.606-1.09 0 0 .242.363.242.606 0 .363 0 .968 1.09 1.33l2.298 1.09zm0 4.72v1.816c-.605.24-1.33.12-1.936-.243l-2.422-1.21v-1.815l2.663 1.33c.606.243 1.21.363 1.695.12zm-4.357 16.58V59.79c.363-.122.484-.726.726-1.573.242-1.21-.242-1.816-.726-2.178v-.243c.363 0 .968.12 1.452.12.485 0 .485.364.485.485 0 0 0 .483-.606 3.266 0 1.574-.364 2.663-.364 2.663v.24c-.242 0-.605-.24-.605-.24 0-.485 0-.485-.362-.727zm0-8.108V51.68l1.33.363c.728.483 1.333.483 1.333-.484h.364s.242.36 0 .36c0 .606 0 .728-.363 1.333-.24 1.09-.604 1.452-.604 1.695 0 0-.12 0-.12-.243 0-.363-.485-.484-.97-.847l-.967-.363zm-5.325 16.217l4.6.363c.24 0 .483 0 .725.12V68.26c-.12.12-.242.12-.363.12h-2.662c0-1.09 0-1.452 1.694-2.058.605-.24 1.09-.483 1.33-.725V62.57h-.362c0 .364.12.485.12.848 0 1.332-3.146 1.21-3.146 2.54h-.243c0-.725-.968-1.693-1.694-1.693-1.332 0-1.937.485-1.937 2.057v4.357c0 .24 0 .24.363.24.24 0 0-.24.24-.603 0-.242.364-.242.97-.242h.363V68.38h-.97v-1.09c0-.968.365-1.573.97-1.573.726 0 1.33.605 1.33 1.695 0 .605 0 .968-.24.968h-1.09v1.33zm5.325-30.98v1.088c0 .12-.12.12-.242.12 0 .363-.12.363-.12.363v-.363-.242s0-.242.363-.968zm0 4.84v1.815l-1.09-.484c-.846-.606-1.21-.606-1.814 0v.362c-.12 0-.12-.362-.12-.604 0 0 .12-.363.605-1.33.483-.727.483-1.09.725-1.696h.363v.606c0 .605.242.605.968 1.09l.363.242zm0 8.107v1.815l-3.63-.97.605-1.57 1.09.362c.604 0 .604-.363.846-.605.362-1.332-.243-1.816-1.21-2.058-.606-.363-1.332.242-1.332.726-.363.484-.363.847-.363 1.332h.968l-.605 1.814h-.363c-.606-.483-.727 0-1.09.122-.242 0-.242.363-.242.363l-.363-.483c.363 0 .363 0 .605-1.21.363-1.09.363-1.936.484-2.662.605-1.453 1.573-2.058 2.662-1.695 1.573.606 2.3 2.3 1.694 3.752-.12.242-.12.605-.12.847l.363.12zm0 4.114v.243s-.12-.122-.242-.122h-.12v-.242s0-.363.12 0c0 0 .12 0 .242.122zm0 3.994c0 .12-.12.12-.242.12l-2.783-.605c0-.24 0-.726.12-1.088 0-.847.484-1.21.968-1.21h.606c0-.12-.363-.12-.363-.12-.242 0-.242-.486-.242-.486h-1.693c-.363-.12-.363 0-.363 0s.363.484.363 1.573c0 .605-.363.726-.363 1.33l-1.694-.24V57.61c.363-1.21.363-1.695.968-1.695.12-.242.726-.242.726-.242 0-.363-.242-.725-.242-.725h-2.058c0 .725 0 .725-.605 4.72-.364.725-.364 1.21-.364 1.572 0 0 .363.484.605.484v-.363c0-.483.364-.967.97-.483l5.324.484c.12.122.242.244.363.244v-1.816" fill-rule="evenodd"/><path d="M104.035 86.655L67.003 24.57 29.85 86.656h74.185z" fill="none" stroke="#000" stroke-width=".655"/><path d="M51.875 62.33h.363" fill="none" stroke="#201b1d" stroke-width=".845"/><path d="M68.697 77.94c10.045-.24 18.76 0 26.02 0 2.057 0-6.05.485-8.35.485-8.35 0-13.676 0-13.676.97 1.695.24 3.27-.485 4.6.604v.24h-1.695v.364c.364.122.485.484.848.484 2.662 0 3.872-.363 6.293-.363.363 0 2.057-.122 2.54-.122 3.753.122 6.657 0 11.135.122 0 0-3.266.605-3.387.605-7.625 0-11.376.363-17.67.363-.605 0-.968.242-1.452.242 0 .484.485.363.848.363 7.867.12 12.95.12 20.937.12.12 0 2.42 0 2.42.363 0 .486-.12.486-.484.486-5.566.122-10.164 0-16.58 0H77.05c-1.453 0-2.784-.485-3.147-.485-1.33 0-2.177 0-2.177.607-.12.968 1.573.363 2.178.363 8.352.605 17.065 0 25.416.605.726.726-8.593 0-12.95 0-11.98.606-23.72.242-36.185 0-5.203 0-9.318 0-15.61-.363-.364-.242.725-.605 1.33-.605 8.35.363 16.822 0 25.173 0 1.573 0 0-.968-2.178-.122.12 0-5.93-.484-5.567-.484-2.3 0-3.752 0-8.714-.362h-7.26s-2.06-.12-2.06-.484c.606-.243 1.575-.243 2.06-.243.846.244 2.66 0 3.508 0 7.02.728 11.013.244 18.033.607 0 0 2.178-.363 2.662-.363 1.09 0 1.09.484 2.178 0 0 0 2.3 0 1.21-.243-1.694-.966-11.012 0-15.732-.36-4.6-.243-11.86 0-11.618-1.09 9.32.362 18.395.847 27.472.484.484 0 .968.363 1.21-.122-.242 0-.605-.363-1.33-.363-3.27-.243-6.052-.243-9.683-.243H53.57c-1.695 0-3.39.242-5.567-.363-1.09-.242 1.573-.242 2.178-.242 6.536 0 8.835 0 14.16-.363 0-.606-2.783-.606-3.267-.606-7.503-.484-13.555-.484-22.873-.484-.847 0 1.815-.243 1.452-.243H52.964c3.268 0 6.415 0 9.682.243-.605 0 1.937-.243 2.905 0h3.147" fill="#fff" fill-rule="evenodd"/><path d="M54.538 61.966L76.685 49.26M61.557 64.265l9.077-16.58m-3.63 17.548V27.838M72.69 64.75L62.647 47.686M91.812 69.59L56.716 49.26m-6.172 5.445h32.192" fill="none" stroke="#fffdfb" stroke-width="1.31"/><path d="M67.003 59.304c2.42 0 4.236-1.936 4.236-4.6 0-2.178-1.817-4.477-4.237-4.477-2.663 0-4.72 2.3-4.72 4.478 0 2.663 2.057 4.6 4.72 4.6" fill="#949494" fill-rule="evenodd"/><path d="M67.003 59.304c2.42 0 4.236-1.936 4.236-4.6 0-2.178-1.817-4.477-4.237-4.477-2.663 0-4.72 2.3-4.72 4.478 0 2.663 2.057 4.6 4.72 4.6z" fill="none" stroke="#fffdfb" stroke-width=".384"/><path d="M63.977 56.4s0 .484 1.574 1.21c1.453.605 1.695.968 2.18.968h.967l.242-1.21s.483-1.453.483-2.42c0-.606-.12-1.695-.484-2.3-.848-1.694-1.695-1.694-1.937-1.694-.968 0-1.452.363-1.936.605-.484 0-.484 0-.484.36-.243.606-.606.728-.243 1.09.243.243.606 0 .606 0 .605-.484 1.09-.362 1.09-.362 0 .968-.97 1.573-1.09 2.057-.606.605-1.21 1.21-.97 1.694" fill="#ebebeb" fill-rule="evenodd"/><path d="M63.977 56.4s0 .484 1.574 1.21c1.453.605 1.695.968 2.18.968h.967l.242-1.21s.483-1.453.483-2.42c0-.606-.12-1.695-.484-2.3-.848-1.694-1.695-1.694-1.937-1.694-.968 0-1.452.363-1.936.605-.484 0-.484 0-.484.36-.243.606-.606.728-.243 1.09.243.243.606 0 .606 0 .605-.484 1.09-.362 1.09-.362 0 .968-.97 1.573-1.09 2.057-.606.605-1.21 1.21-.97 1.694z" fill="none" stroke="#201b1d" stroke-width=".384"/><path d="M64.34 56.28s1.695 0 4.357 2.298" fill="none" stroke="#201b1d" stroke-width=".437"/><path d="M40.015 72.738c.242 0 1.21-.485 1.21-.97.606-.362.606-.483.726-.846.364-.605.97-.847 1.575-.847 1.452-1.09 2.178-1.695 3.39-3.146 1.45-2.18 3.266-3.512 5.323-4.6.726-.606 1.816-.606 2.42 0 .364 0 .606.24.606.24 1.33.848 2.42 1.454 4.115 1.696 1.21.484 1.693 1.452 2.903 2.663.605.483 1.09.966 1.694 1.088.363 0 .363.362.363.362.727.606 1.332.847 1.937 1.332.968.968 1.815 2.057 3.025 3.026.12.242.12.605.12.605.97.726 1.816 1.694 2.663 1.935.968.485 1.816.97 2.663 1.453-8.714.243-16.822 0-25.536 0H37.353l2.662-3.992" fill="#c1c1c1" fill-rule="evenodd"/><path d="M40.015 72.738c.242 0 1.21-.485 1.21-.97.606-.362.606-.483.726-.846.364-.605.97-.847 1.575-.847 1.452-1.09 2.178-1.695 3.39-3.146 1.45-2.18 3.266-3.512 5.323-4.6.726-.606 1.816-.606 2.42 0 .364 0 .606.24.606.24 1.33.848 2.42 1.454 4.115 1.696 1.21.484 1.693 1.452 2.903 2.663.605.483 1.09.966 1.694 1.088.363 0 .363.362.363.362.727.606 1.332.847 1.937 1.332.968.968 1.815 2.057 3.025 3.026.12.242.12.605.12.605.97.726 1.816 1.694 2.663 1.935.968.485 1.816.97 2.663 1.453-8.714.243-16.822 0-25.536 0H37.353l2.662-3.992z" fill="none" stroke="#201b1d" stroke-width="1.192"/><path d="M74.385 76.73c-.726-.483-1.33-1.088-2.3-1.45-.846-.243-1.693-1.21-2.662-1.937 0 0 0-.363-.12-.605-1.21-.97-2.057-2.058-3.025-3.026-.606-.485-1.21-.726-1.937-1.332 0 0 0-.362-.362-.362-.605-.122-1.09-.605-1.694-1.09-.726-.968-1.21-1.573-2.058-2.178h.363c.12 0 .484-.484.968-.484.726-.242 1.694-.242 2.178 0 0 0 .605.363.605.484.727.484 1.696.968 2.906 1.21 1.452.726 1.694 1.453 2.662 2.42.484.243.726.606 1.332.847.362 0 .362.364.483.364.363.485.97.485 1.574 1.09.968.726 1.694 1.694 2.3 2.663.362 0 .362.242.483.242.605.484 1.21 1.452 2.18 1.694.483.362 1.45.967 2.056 1.088-2.057.363-4.236.363-5.93.363" fill="#c1c1c1" fill-rule="evenodd"/><path d="M74.385 76.73c-.726-.483-1.33-1.088-2.3-1.45-.846-.243-1.693-1.21-2.662-1.937 0 0 0-.363-.12-.605-1.21-.97-2.057-2.058-3.025-3.026-.606-.485-1.21-.726-1.937-1.332 0 0 0-.362-.362-.362-.605-.122-1.09-.605-1.694-1.09-.726-.968-1.21-1.573-2.058-2.178h.363c.12 0 .484-.484.968-.484.726-.242 1.694-.242 2.178 0 0 0 .605.363.605.484.727.484 1.696.968 2.906 1.21 1.452.726 1.694 1.453 2.662 2.42.484.243.726.606 1.332.847.362 0 .362.364.483.364.363.485.97.485 1.574 1.09.968.726 1.694 1.694 2.3 2.663.362 0 .362.242.483.242.605.484 1.21 1.452 2.18 1.694.483.362 1.45.967 2.056 1.088-2.057.363-4.236.363-5.93.363z" fill="none" stroke="#201b1d" stroke-width="1.192"/><path d="M66.277 65.96h.968c1.452.726 1.694 1.453 2.663 2.42.484.243.726.606 1.33.847.364 0 .364.364.485.364.363.485.968.485 1.573 1.09.968.726 1.694 1.694 2.3 2.663.363 0 .363.242.484.242.605.484 1.21 1.452 2.178 1.694.484.362 1.09.483 1.694.967h4.84c-.725-.484-1.088-.968-2.056-1.21-.484-.363-1.09-.968-1.694-1.452l-.12-.242c-.97-.97-1.816-1.937-2.3-2.42-.605-.606-1.33-.848-1.574-1.21l-.363-.122c-.605-.362-1.09-.603-1.33-.967-.97-.727-.97-1.33-2.3-1.694-1.33-.243-2.058-.97-2.663-1.574-.363 0-.484-.123-.484-.123-.605-.483-1.573-.483-2.178 0-.484 0-.726.485-1.452.727" fill="#c1c1c1" fill-rule="evenodd"/><path d="M66.277 65.96h.968c1.452.726 1.694 1.453 2.663 2.42.484.243.726.606 1.33.847.364 0 .364.364.485.364.363.485.968.485 1.573 1.09.968.726 1.694 1.694 2.3 2.663.363 0 .363.242.484.242.605.484 1.21 1.452 2.178 1.694.484.362 1.09.483 1.694.967h4.84c-.725-.484-1.088-.968-2.056-1.21-.484-.363-1.09-.968-1.694-1.452l-.12-.242c-.97-.97-1.816-1.937-2.3-2.42-.605-.606-1.33-.848-1.574-1.21l-.363-.122c-.605-.362-1.09-.603-1.33-.967-.97-.727-.97-1.33-2.3-1.694-1.33-.243-2.058-.97-2.663-1.574-.363 0-.484-.123-.484-.123-.605-.483-1.573-.483-2.178 0-.484 0-.726.485-1.452.727z" fill="none" stroke="#201b1d" stroke-width="1.192"/><path d="M74.385 67.896c.363.122.605.484.968.727.242.363.727.604 1.332.968l.363.12c.242.365.968.607 1.573 1.212.485.484 1.332 1.452 2.3 2.42l.12.242c.606.484 1.21 1.09 1.695 1.452.363.242.968.606 1.33.726h5.69c-.12-.484-.727-.726-1.453-1.09-.605-.24-1.21-.604-1.694-1.088v-.242c-.605-.968-1.21-1.573-1.816-1.936-.12-.484-.726-.484-1.09-1.09h-.12c-.846-.24-.967-.605-1.33-.725-.848-.604-.848-1.21-1.816-1.573-.726-.122-1.694-.605-2.178-1.09-.242 0-.242-.24-.605-.24H76.08c-.485.24-1.09.725-1.695 1.21" fill="#c1c1c1" fill-rule="evenodd"/><path d="M74.385 67.896c.363.122.605.484.968.727.242.363.727.604 1.332.968l.363.12c.242.365.968.607 1.573 1.212.485.484 1.332 1.452 2.3 2.42l.12.242c.606.484 1.21 1.09 1.695 1.452.363.242.968.606 1.33.726h5.69c-.12-.484-.727-.726-1.453-1.09-.605-.24-1.21-.604-1.694-1.088v-.242c-.605-.968-1.21-1.573-1.816-1.936-.12-.484-.726-.484-1.09-1.09h-.12c-.846-.24-.967-.605-1.33-.725-.848-.604-.848-1.21-1.816-1.573-.726-.122-1.694-.605-2.178-1.09-.242 0-.242-.24-.605-.24H76.08c-.485.24-1.09.725-1.695 1.21z" fill="none" stroke="#201b1d" stroke-width="1.192"/><path d="M89.634 75.28c-.363 0-.968-.243-1.33-.606-.606-.242-1.212-.605-1.695-1.09v-.24c-.607-.97-1.212-1.575-1.817-1.938-.12-.484-.726-.484-1.09-1.09h-.12c-.847-.24-.968-.604-1.33-.725-.606-.363-.848-.967-1.332-1.21.12-.362.485-.484 1.09-.967.242 0 .726 0 1.09.483h.605c.363.484.968.727 1.694.727.967.604.967.968 1.572 1.452.12.242.484.242 1.09.605v.242c.604.363.968.484 1.21.484.484.847 1.09 1.332 1.452 1.937l.605.604c.725.485 1.693.485 1.814.485.605.242 1.33.605 1.574.847h-5.083" fill="#c1c1c1" fill-rule="evenodd"/><path d="M89.634 75.28c-.363 0-.968-.243-1.33-.606-.606-.242-1.212-.605-1.695-1.09v-.24c-.607-.97-1.212-1.575-1.817-1.938-.12-.484-.726-.484-1.09-1.09h-.12c-.847-.24-.968-.604-1.33-.725-.606-.363-.848-.967-1.332-1.21.12-.362.485-.484 1.09-.967.242 0 .726 0 1.09.483h.605c.363.484.968.727 1.694.727.967.604.967.968 1.572 1.452.12.242.484.242 1.09.605v.242c.604.363.968.484 1.21.484.484.847 1.09 1.332 1.452 1.937l.605.604c.725.485 1.693.485 1.814.485.605.242 1.33.605 1.574.847h-5.083z" fill="none" stroke="#201b1d" stroke-width="1.192"/><path d="M51.27 62.57h.605-.605M50.544 63.056c.484 0 .726-.12 1.09 0h-1.09M50.18 63.418c.364 0 .364-.362 1.09 0h-1.09M49.576 64.024h1.09-1.09M49.213 64.266c.363 0 .484.363 1.33 0h-1.33M48.608 64.75h.605c.363.484.363 0 .484.484l-1.09-.484M48.003 65.355h.605c.605.363.363.363.968 0h-1.573M47.882 65.96h1.09-1.09M46.67 67.29c.848-.36.848-.36 1.333 0H46.67M46.914 66.686h1.694-1.694M46.308 67.896c.606-.483 1.21-.483 1.574 0h-1.574M47.518 68.38c-.604-.362-.847 0-1.33 0h1.33M46.914 68.623c-.243 0-.727-.243-1.332 0h1.332M44.614 69.227c.968 0 1.573-.24 2.057 0h-2.056M44.25 69.59h2.058-2.057M43.525 70.075h2.178s.484-.363.484 0h-2.662M46.187 70.317c-1.573.363-2.54 0-3.63 0h3.63M45.22 70.922c-.243 0-.97.363-1.574 0h-.12c-.606 0-.97 0-1.574.363l3.268-.363M41.83 71.406h2.421c.364.363.364.363.727.363l-3.146-.364M41.346 71.77h1.574c.605.483 1.09.604 1.694.604l-3.268-.605M40.862 72.374H44.25h-3.388M40.257 72.374c.605.364 1.574.364 2.3.364.363 0 1.09 0 1.694.242l-3.993-.606M40.015 73.343c.847 0 1.936-.363 2.905 0 .605 0 .726.242 1.09 0h-3.995M39.53 73.585c1.09 0 1.816 0 3.027.362.363.123.968.123 1.09.123l-4.116-.485M39.168 74.432c0-.363 0-.363.363-.363.727 0 1.332.362 2.3 0 .727 0 1.21 0 1.816.362h-4.478M38.563 75.037c1.694-.363 3.388 0 4.962 0h-4.962M38.2 75.28c1.815.362 3.63 0 5.325.362L38.2 75.28M38.2 75.763h2.057c.605.484 1.09.484 1.694.484.607-.484.97 0 1.575-.484H38.2M50.544 68.986v.24-.24M50.18 69.227h.364-.363M49.697 69.59h.847-.847M49.576 69.712h.968-.968M49.213 70.075h1.33-1.329M48.97 70.68h1.21-1.21M48.608 70.922h1.573-1.572M48.366 71.406h1.815-1.814M48.366 71.77c.242 0 .242.483.847.483h.484l-1.33-.484M48.003 72.374h1.573-1.573M47.882 72.738h1.09c.24.242.604 0 .604 0h-1.694M47.276 73.343c.606-.363 1.09 0 1.695 0h.606-2.3M47.276 73.585h2.301-2.3M46.67 74.07h2.543-2.542M46.67 74.432c.606.242 1.212 0 1.938.242 0 0 .605 0 .605-.242H46.67M46.187 75.037c.12 0 .484-.363.727 0h2.3-3.027M45.703 75.28c.484 0 .484.362.484.362 1.09-.363 2.18 0 3.026-.363h-3.51M45.582 75.763c.726.484 1.332 0 2.3.484h1.09l-3.39-.484M52.238 69.59h.12-.12M51.875 69.712c.363 0 .363-.12.484-.12l-.485.12M51.875 70.075h.484-.485M51.633 70.317c.242 0 .605 0 .726.363l-.727-.363M51.27 70.922h1.09-1.09M51.27 71.406h1.09-1.09M51.27 71.77h.968c0 .483 0 0 .12 0h-1.09M51.028 72.374h1.33-1.33M51.028 72.98h1.33-1.33M50.665 73.343h1.695-1.695M50.665 73.947c.605-.362 1.21.123 1.694-.362l-1.695.362M50.544 74.432h1.816-1.816M50.544 75.037c.484-.363 1.33 0 1.815 0h-1.816M50.18 75.28h2.542-2.54M50.18 75.763h2.784-2.783M50.18 76.368c.848 0 .848-.12 2.058-.12h1.816l-3.873.12M54.538 76.247h2.178c.605.12.605 0 1.21 0h-3.388M50.18 76.247h-.967.968M45.22 75.763h-1.574 1.573M55.264 65.234h.363-.363M55.264 65.718h.726-.726M55.264 65.96h.726-.726M56.232 66.323c-.242 0-.242 0-.605.363l.605-.363M55.99 66.93s.242-.244.242 0h-.242M56.595 67.29h-.605.605M55.99 67.413h.726-.726M57.2 68.018h-.968.968M56.232 68.623c.484 0 .968 0 .968-.243l-.968.243M57.32 68.623c-.12 0-.604.363-.725.363l.726-.363M56.595 69.59c.605-.363.726 0 1.09-.363l-1.09.364M57.926 69.59c-.242 0-.726 0-.726.12h-.484l1.21-.12M56.716 70.317h.968c0-.242.242 0 .242 0 0-.242 0 0 .363 0h-1.574M58.532 70.68c-.606 0-.848.242-1.332.242l1.332-.242M57.2 71.406c.484-.122 1.09-.122 1.695-.122l-1.695.122M57.2 72.253c.484-.484 1.332-.484 1.695-.484l-1.695.483M59.38 72.253c-.485.12-1.454 0-2.06.12l2.06-.12M57.684 72.98s0 .363.242.363c.606-.605.97-.605 1.695-.605l-1.936.242M59.62 73.343c-.605.242-1.088 0-1.694 0-.242 0-.242.242-.242.242l1.937-.242M57.926 73.947c.606 0 1.453-.362 2.058-.362l-2.058.362M60.59 74.07h-1.695c-.363 0-.606.362-.97.362l2.664-.363M57.926 75.037h.606c.483-.605 1.452-.605 2.057-.605l-2.664.605M60.71 75.037c-.484 0-1.09-.363-1.815 0 0 0-.363.24-.606.24l2.42-.24M58.532 75.763c.363 0 .483-.12.847-.484h2.298l-3.146.483M61.678 75.763h-1.09c-.967 0-1.573.484-2.056.484l3.146-.484M58.895 76.368c.484 0 1.09-.12 1.694-.12.12-.485.967 0 1.088 0l-2.783.12M62.283 76.247c1.09.12 2.3 0 3.752.12l-3.752-.12M65.672 73.947h.363-.363M65.672 74.07h.363-.363M66.035 74.432h.242-.242M66.035 75.28c.242-.243.605 0 .968-.243l-.968.24M66.277 75.763c0-.484.726 0 .968-.484l-.968.483M66.277 76.247c.363-.484.968 0 1.33-.484l-1.33.484M66.277 76.368c.968-.12 1.452.363 2.42-.12l-2.42.12M68.94 76.247c1.09.12 3.146 0 4.96.12l-4.96-.12M69.423 76.73c1.574 0 3.147-.362 4.478 0h-4.477M66.277 76.73c.968-.362 1.815 0 2.662 0h-2.663M62.646 76.73s0-.362.242-.362c.847 0 2.058 0 3.147.363h-3.39M58.895 76.73c.726 0 1.33 0 2.178-.362h.968l-3.145.363M54.66 76.368c1.33 0 2.54.363 3.63 0h-3.63M49.697 76.73c1.573-.362 3.025 0 4.357-.362l-4.357.363M49.213 76.73s.363-.362.363 0h-.363M37.595 76.73c1.936-.483 4.236 0 5.93-.362l-5.93.363M43.646 76.368h.968-.968M45.22 76.368h3.75-3.75M61.678 66.323c.363 0 1.21-.363 1.21-.363l-1.21.363M62.04 66.686h1.332-1.33M62.646 66.93h1.089-1.09M62.888 67.29h1.452-1.452M64.583 67.413h-1.21 1.21M63.977 68.018c.363-.122.97-.122 1.09-.122l-1.09.122M65.55 68.38h-1.21 1.21M64.946 68.623c.12 0 .726 0 1.09-.243l-1.09.243M66.277 68.986c-.242 0-.605 0-.726.24l.727-.24M66.035 69.59c.242 0 .968 0 .968-.363l-.968.364M67.608 69.59c-.363 0-.605 0-1.33.12l1.33-.12M67.003 70.317c.242-.242.726-.242 1.09-.242l-1.09.242M68.697 70.317h-1.09c-.362 0-.362.363-.362 0h1.452M69.423 71.406h-1.33 1.33M68.697 72.253c.605-.484 1.21-.484 1.695-.484l-1.695.483M69.908 73.343h.726c.605 0 .968-.363 1.452 0h-2.178M72.69 73.585h-2.056c-.242 0-.242.362-.242.362l2.3-.362M70.634 74.07c.605 0 1.936 0 2.42-.123l-2.42.122M73.9 74.07c-.604.362-1.21.362-1.814.362h-.847l2.66-.363M71.723 75.037h.363c.605-.605 1.573-.363 2.3-.363l-2.663.363M74.99 75.037h-1.694c-.242 0-.605.24-.726.24l2.42-.24M73.054 75.763c.847-.12 2.3-.484 1.33-.12.97-.364.97-.364 1.696-.364l-3.026.483M76.443 75.763H74.99c-.242 0-.242 0-1.33.484l2.783-.484M74.264 76.247h1.09c.24-.484.726 0 1.09-.484l-2.18.484M74.385 76.368c.968-.12.605-.12 1.574-.12.12.12.483.12.725.12h-2.3M61.557 65.96c.12 0 .484-.242.726 0-.242-.242.363 0 .363-.242h.242l-1.33.242M61.073 65.718c.484-.363.484-.363.968 0-.362-.363 0 0 0-.363h.606l-1.573.363M67.73 71.285c0-.363 0-.363.362-.363h.847l-1.21.363M68.94 72.374c.483 0 1.452 0 1.694-.12l-1.695.12M71.602 72.738c-.968 0-1.694 0-2.18.242l2.18-.242M62.04 65.234h-1.33 1.33M68.697 66.686h.605-.605M68.697 66.93h.726-.726M68.94 67.413c0-.122.483-.122.968-.122h.12l-1.09.123M69.423 67.413h.97-.97M70.634 67.896h-1.21 1.21M70.03 68.38c.362 0 .967-.362 1.21-.362l-1.21.362M71.723 68.38c-.12 0-1.09.243-1.33.243l1.33-.243" fill-rule="evenodd"/><path d="M70.634 68.986c.605 0 1.09-.363 1.452-.363l-1.452.363" fill="#c1c1c1" fill-rule="evenodd"/><path d="M72.69 69.227h-1.088 1.09M71.723 69.59h1.33-1.33M73.66 69.59c-.364.12-.97.12-1.09.485l1.09-.484M73.054 70.317c.242-.242.847 0 1.21-.242l-1.21.242M74.385 70.317h-.726s0 .363-.364.363l1.09-.363M75.595 71.406h-1.21 1.21M74.748 71.77h1.332-1.332M75.96 73.343h.483c.605 0 .847-.363 1.573-.363l-2.057.363M78.258 73.343c-.968.242-1.21.242-1.815.242h-.363l2.178-.242M76.443 73.947c.605 0 1.573 0 2.3-.362l-2.3.362M79.71 74.07h-2.662 2.662M77.29 74.674h.726c.242-.242 1.09-.242 1.936-.242l-2.662.242M80.436 74.674c-.726 0-1.09 0-1.694.363h-.726l2.42-.363M78.62 75.28c.485 0 1.816-.243 1.332 0 .484-.243.968-.243 1.453-.243l-2.784.24M81.647 75.28h-1.21c-.12.362-.12.362-1.332.483l2.542-.485M79.347 75.763h1.09c.605-.12.968 0 1.573-.12l-2.663.12M79.952 76.247c.484 0 .484-.484 1.453-.484h.847l-2.3.484M68.092 66.686c0-.363 0-.363.605-.363h.242c0-.363 0-.363.362-.363l-1.21.726M67.608 65.96h1.089c0-.242 0 0 .242 0h-1.332M73.9 71.285c0-.363 0-.363.364-.363h.726l-1.09.363M74.99 72.374c.605 0 1.09 0 1.453-.12l-1.453.12M77.29 72.738h-1.695 1.695M68.697 65.718c-.968 0-1.09 0-1.452.242l1.452-.242M75.353 68.38h.727-.727M75.595 68.623s.485 0 .848-.243l-.848.243M75.595 68.986c0-.363.848-.363.848-.363h.242l-1.09.363M76.08 69.227l.968-.24-.968.24M77.29 69.227c-.242 0-.847 0-.847.364l.847-.363M77.048 69.59h.605-.605" fill-rule="evenodd"/><path d="M78.016 69.712h-.968.968" fill="#c1c1c1" fill-rule="evenodd"/><path d="M77.29 70.075h.968-.968M78.742 70.317h-.726.726M78.016 70.68c.242 0 .726 0 1.09-.363l-1.09.363M79.347 70.68c-.242.242-.605.242-.726.242l.727-.242M78.742 71.285c.363-.363.968 0 .968-.363l-.968.363M80.315 71.406h-1.21 1.21M81.04 72.253c-.604-.484-.725 0-1.33 0h1.33M80.315 72.374h1.09-1.09M81.04 73.343c0 .242.365 0 .607 0h1.09-1.696M83.1 73.585h-1.695H83.1M81.405 73.947h2.178-2.178M84.067 74.07H82.01h2.057M82.252 74.432h2.057-2.058M84.793 74.432c-.726 0-.726.242-1.21.242s-.847.363-.968.363l2.178-.605M83.1 75.037h2.298-2.3M85.76 75.037h-1.088c0 .24-.363.24-1.09.24l2.18-.24M83.704 75.28h2.057-2.056M84.067 75.642h1.936-1.936M74.99 68.38c.363-.362.363-.362.605-.362h.484l-1.09.362M74.748 68.018c.242-.122.242-.122.605-.122h.606l-1.212.122M79.71 71.77h.242c0-.364.363 0 .363 0 0-.364.12-.364.12-.364l-.725.363M80.436 72.738c.605 0 .97 0 1.21-.364l-1.21.364M82.252 72.98c-.242 0-1.21 0-1.332.363l1.332-.363M75.595 67.413c-.605 0-.605.483-.847.483l.847-.483M81.405 68.623h.847-.847M81.647 68.986c.363 0 .605 0 .605-.363l-.605.363M82.01 69.227h.605c0-.24.12 0 .12 0h-.726M82.252 69.59l.847-.363-.848.364M83.1 69.59h-.848.847M82.736 69.712s.847-.12.968-.12l-.968.12M84.067 70.075H83.1h.967M83.1 70.317c.483 0 .967-.242 1.21-.242l-1.21.242M84.672 70.317h-.968.968M84.067 70.68h.726-.726M85.277 70.922h-.968.967M84.672 71.285h1.09-1.09M85.76 71.406h-.967.968M86.61 72.253h-.85.85M85.76 72.374h1.332-1.33M86.61 73.343H88.3 86.61M88.666 73.343c-.605.242-.968.242-1.574.242h-.12l1.695-.242M87.092 73.947c.364 0 1.574-.362 1.937-.362l-1.938.362M89.634 73.947c-.605.123-.968 0-1.573.123h-.604l2.178-.123M87.698 74.432c.363 0 .605-.363.968-.363h1.09l-2.058.362M90.36 74.432h-1.33c-.364 0-.727.242-.97.242l2.3-.242M88.666 75.037c.363 0 1.694-.363 1.09-.363h1.21l-2.3.363M91.328 75.037h-2.3 2.3M89.634 75.28c.12 0 .12 0 .726-.243h.968l-1.694.24M89.634 75.28h1.694-1.694M81.405 68.623c0-.243 0-.243.242-.243h.605l-.847.243M81.04 68.38h.365c.242 0 .242 0 .242-.362h.363l-.97.362M85.398 71.77h.969-.968M86.366 72.738c.243 0 .726 0 1.09-.364l-1.09.364M87.698 72.98c-.242 0-1.09-.242-1.09 0h1.09" fill-rule="evenodd"/><path d="M81.647 67.896c-.242 0-.606.122-.606.484l.607-.484" fill-rule="evenodd"/><path d="M101.373 85.082l-34.37-57.244-34.49 57.244h68.86z" fill="none" stroke="#000" stroke-width=".655"/><path d="M61.557 37.036s5.204-2.057 11.013 0l.847 1.453s-7.503-2.906-12.95.24l1.09-1.694" fill="#d7d7d7" fill-rule="evenodd"/><path d="M61.557 37.036s5.204-2.057 11.013 0l.847 1.453s-7.503-2.906-12.95.24l1.09-1.694z" fill="none" stroke="#000" stroke-width=".384"/><path d="M60.347 38.73s5.325-3.146 13.312-.12l.725 1.452s-7.382-3.753-14.764.12l.727-1.452" fill="#d7d7d7" fill-rule="evenodd"/><path d="M60.347 38.73s5.325-3.146 13.312-.12l.725 1.452s-7.382-3.753-14.764.12l.727-1.452z" fill="none" stroke="#000" stroke-width=".384"/><path d="M59.38 40.425s5.808-4.236 14.884-.363l1.09 1.572s-8.714-4.96-16.943.485l.97-1.695" fill="#d7d7d7" fill-rule="evenodd"/><path d="M59.38 40.425s5.808-4.236 14.884-.363l1.09 1.572s-8.714-4.96-16.943.485l.97-1.695z" fill="none" stroke="#000" stroke-width=".384"/><path d="M58.29 42.12s7.382-5.447 17.063-.364l.97 1.573s-9.32-6.052-18.88.362l.846-1.573" fill="#d7d7d7" fill-rule="evenodd"/><path d="M58.29 42.12s7.382-5.447 17.063-.364l.97 1.573s-9.32-6.052-18.88.362l.846-1.573z" fill="none" stroke="#000" stroke-width=".384"/><path d="M57.2 43.934s7.867-6.777 19.243-.484l1.09 1.937s-10.65-8.23-21.3.363l.967-1.816" fill="#d7d7d7" fill-rule="evenodd"/><path d="M57.2 43.934s7.867-6.777 19.243-.484l1.09 1.937s-10.65-8.23-21.3.363l.967-1.816z" fill="none" stroke="#000" stroke-width=".384"/><path d="M55.87 45.992s9.197-9.077 21.904-.364l1.21 2.3s-11.618-11.376-24.325.484l1.21-2.42" fill="#d7d7d7" fill-rule="evenodd"/><path d="M55.87 45.992s9.197-9.077 21.904-.364l1.21 2.3s-11.618-11.376-24.325.484l1.21-2.42z" fill="none" stroke="#000" stroke-width=".384"/><path d="M54.417 48.412s11.376-11.98 24.81-.242l1.45 2.542s-13.432-15.37-27.834.605l1.574-2.905" fill="#d7d7d7" fill-rule="evenodd"/><path d="M54.417 48.412s11.376-11.98 24.81-.242l1.45 2.542s-13.432-15.37-27.834.605l1.574-2.905z" fill="none" stroke="#000" stroke-width=".384"/></svg>