<svg xmlns="http://www.w3.org/2000/svg" width="430" height="261.543"><g fill="#483737"><path d="M22.338 208.402h7.2v30.966h-7.2v-30.966zM45.322 208.402h4.916l21.79 18.254c1.252 1.017 2.46 2.096 3.534 3.352-.176-2.582-.29-4.374-.29-5.33v-16.276h6.48v30.966H76.83L54.08 220.22c-.902-.78-1.734-1.555-2.58-2.515.243 2.396.3 4.026.3 4.924v16.738h-6.476v-30.966zM90.09 208.402h8.224l12.54 22.385 11.93-22.385h7.21l-17.047 30.966h-4.978l-17.88-30.966zM138.394 208.402h31.685v5.285h-24.484v6.9h14.272v5.28h-14.272v7.682h24.773v5.818h-31.976v-30.966zM190.777 213.745v8.633h16.202c2.21 0 3.236-.418 3.236-2.45v-3.712c0-2.053-1.026-2.47-3.237-2.47h-16.203zm-7.078-5.343h26.516c4.744 0 6.964 1.682 6.964 6.003v7.255c0 4.326-2.22 6.013-6.964 6.013h-4.08l14.286 11.695h-10.32l-12.488-11.695h-6.837v11.695H183.7v-30.966zM238.36 213.934v19.615h19.443v-6.665l7.202 1.51v3.648c0 5.823-1.855 7.325-7.678 7.325h-18.492c-5.814 0-7.67-1.502-7.67-7.325v-16.316c0-5.823 1.856-7.325 7.67-7.325h18.492c5.823 0 7.678 1.502 7.678 7.325v2.938l-7.202 1.14v-5.87H238.36zM300.257 227.003l-6.66-12.598-6.902 12.598h13.562zm-9.902-18.6h6.964l17.76 30.965h-8.1l-3.732-6.775h-19.61l-3.595 6.775h-7.21l17.522-30.966zM330.462 213.807v6.66h19.333c5.82 0 7.74 1.493 7.74 7.316v4.26c0 5.823-1.92 7.325-7.74 7.325h-19.14c-5.822 0-7.748-1.502-7.748-7.325v-.842l6.375-1.315v3.664h21.892v-7.08h-19.33c-5.813 0-7.663-1.502-7.663-7.325v-3.418c0-5.823 1.85-7.325 7.665-7.325h17.58c5.524 0 7.696 1.44 7.696 6.788v.665l-6.365 1.48v-3.528h-20.293zM392.85 227.003l-6.657-12.598-6.907 12.598h13.563zm-9.908-18.6h6.956l17.77 30.965h-8.097l-3.72-6.775h-19.634l-3.603 6.775h-7.185l17.514-30.966zM2.64 252.222v7.184h8.254v-2.524H6.586v-1.933h6.88v3.914c0 2.124-.687 2.68-2.82 2.68h-7.83c-2.13 0-2.816-.556-2.816-2.68v-5.986c0-2.127.687-2.687 2.815-2.687h7.832c2.066 0 2.82.54 2.82 2.587v.264l-2.573.45v-1.268H2.64zM33.52 252.147v3.172h5.93c.816 0 1.194-.153 1.194-.896v-1.36c0-.758-.378-.917-1.193-.917h-5.93zm-2.597-1.956h9.72c1.737 0 2.556.622 2.556 2.208v2.656c0 1.582-.82 2.207-2.556 2.207H39.15l5.234 4.283h-3.78l-4.58-4.282H33.52v4.283h-2.597V250.19zM63.074 259.406h7.528v-9.215h2.634v8.674c0 2.124-.682 2.68-2.82 2.68H63.25c-2.136 0-2.81-.556-2.81-2.68v-8.673h2.634v9.216zM93.508 252.147v3.022h5.942c.81 0 1.18-.156 1.18-.896v-1.21c0-.758-.37-.917-1.18-.917h-5.942zm-2.595-1.956h9.718c1.74 0 2.56.622 2.56 2.208v2.524c0 1.577-.82 2.198-2.56 2.198H93.51v4.423h-2.595V250.19zM130.232 252.222h-8.71v7.18h8.71v-7.18zm-8.524-2.03h8.348c2.136 0 2.82.56 2.82 2.686v5.986c0 2.124-.684 2.68-2.82 2.68h-8.348c-2.132 0-2.82-.556-2.82-2.68v-5.986c0-2.127.688-2.687 2.82-2.687M170.7 250.19h11.483v1.983h-8.845v2.996h4.77v2.07h-4.77v4.303H170.7V250.19zM197.328 250.19h2.647v11.353h-2.647V250.19zM217.634 250.19h1.798l7.98 6.692c.468.38.91.77 1.305 1.234-.067-.948-.113-1.617-.113-1.956v-5.97h2.38v11.353h-1.807l-8.33-7.013-.95-.92c.087.863.104 1.466.104 1.805v6.128h-2.364V250.19zM256.512 257.006l-2.445-4.608-2.528 4.608h4.972zm-3.625-6.815h2.55l6.507 11.353h-2.97l-1.365-2.485h-7.19l-1.317 2.485h-2.647l6.43-11.352zM277.45 250.19h1.8l7.986 6.692c.46.38.904.77 1.3 1.234-.07-.948-.12-1.617-.12-1.956v-5.97h2.38v11.353h-1.803l-8.334-7.013-.943-.92c.084.863.105 1.466.105 1.805v6.128h-2.374V250.19zM310.847 252.222v7.184h7.132v-2.44l2.637.555v1.344c0 2.124-.678 2.68-2.828 2.68h-6.762c-2.128 0-2.81-.556-2.81-2.68v-5.986c0-2.127.682-2.687 2.81-2.687h6.76c2.15 0 2.83.56 2.83 2.688v1.088l-2.64.405v-2.148h-7.13zM337.942 250.19h2.647v11.353h-2.648V250.19zM358.27 250.19h11.603v1.94h-8.97v2.532h5.23v1.934h-5.23v2.81h9.09v2.137H358.27V250.19zM389.347 252.147v3.172h5.93c.814 0 1.197-.153 1.197-.896v-1.36c0-.758-.383-.917-1.198-.917h-5.93zm-2.603-1.956h9.73c1.74 0 2.55.622 2.55 2.208v2.656c0 1.582-.81 2.207-2.55 2.207h-1.493l5.23 4.283h-3.78l-4.585-4.282h-2.498v4.283h-2.603V250.19zM427.375 252.222h-8.713v7.18h8.713v-7.18zm-8.537-2.03h8.352c2.132 0 2.81.56 2.81 2.686v5.986c0 2.124-.678 2.68-2.81 2.68h-8.352c-2.145 0-2.832-.556-2.832-2.68v-5.986c0-2.127.687-2.687 2.832-2.687M267.11 79.998v103.666h-1.71l-2.18-100.318 3.89-3.348zM259.948 86.16v97.424h-1.718l-2.18-94.102 3.898-3.32zM253.045 92.045v90.584h-1.718l-2.184-87.184 3.902-3.4zM245.857 98.243v84.386h-1.718l-2.182-80.99 3.9-3.397zM270.348 79.998v103.666h1.718l2.19-100.318-3.908-3.348zM277.528 86.16v98.358h1.714l2.18-95.036-3.894-3.32zM284.422 92.045v93.398h1.713l2.19-89.997-3.903-3.4zM291.606 98.243v87.2h1.723l2.175-83.804-3.9-3.397zM171.625 79.998V184.61h-1.714l-2.184-101.264 3.9-3.348zM164.453 86.16v98.358h-1.713l-2.185-95.036 3.898-3.32zM157.555 92.045V184.5h-1.718l-2.17-89.054 3.888-3.4zM150.367 98.243V184.5h-1.71l-2.184-82.86 3.894-3.397zM174.87 79.998V184.61h1.71l2.18-101.264-3.89-3.348zM182.038 86.16v98.358h1.714l2.18-95.036-3.894-3.32zM188.936 92.045v91.513h1.71l2.184-88.112-3.894-3.4zM196.125 98.243v84.386h1.71l2.188-80.99-3.898-3.397zM223.823 0v182.73h3.03L230.71 5.916 223.823 0zM236.483 10.87v171.714h3.017l3.86-165.832-6.877-5.88z"/><path d="M248.645 21.267v75.16h3.035l3.845-69.143-6.88-6.017zM267.11 79.96l1.106-41.747-6.88-6.008v52.973l5.774-5.22zM218.105 0v182.73h-3.02l-3.86-176.814L218.105 0zM205.46 10.87v171.714h-3.027L198.58 16.752l6.88-5.88zM193.284 96.058v-74.79l-6.88 6.016 1.52 63.625 5.36 5.148zM190.2 182.038l.057 2.38h3.026v-2.16l-3.083-.218zM180.602 85.36V32.204l-6.88 6.008 1.114 42.35 5.766 4.796z"/><path d="M335.558 194.592c-21.364-8-67.58-13.523-121.144-13.523-54.36 0-101.15 5.703-122.096 13.866 6.947-.555 14.123-1.01 21.483-1.384 24.29-5.942 63.965-9.818 108.798-9.818 33.866 0 64.77 2.21 88.346 5.863-21.65-3.224-49.516-5.017-79.91-4.727-41.094.397-77.47 4.516-100.018 10.542 4.3.306 8.435.76 12.364 1.32 22.72-5.5 57.383-9.214 96.288-9.593 39.732-.384 75.17 2.805 98.027 8.064-.696-.208-1.41-.414-2.137-.612"/></g></svg>