<svg xmlns="http://www.w3.org/2000/svg" width="396.938" height="400.004"><path d="M37.76 261.67c-9.035-9.093-19.986-25.343-13.284-38.498 2.84-5.574 15.99 6.635 17.846 8.646 6.958 7.534 7.546 19.444 5.37 29.06l-1.217 5.786 6.457 7.31s7.004-6.336 16.325-5.12c14.76 1.926 22.996 24.59 13.35 36l4.57 7.006s8.102 10.536-.484 19.98c0 0-8.952 10.295-21.135 4.576-3.945-1.854-6.88-5.907-6.39-10.312.352-3.15 2.305-6.973 5.912-6.71 6.033.44 9.675 8.13 5.743 12.825 2.26.637 4.596 2.25 6.913 2.56 3.484.47 5.77-.94 7.656-3.828 3.402-5.207 3.83-13.235-.043-18.36 0-.003-4.512-5.97-4.512-5.97s-9.56 7.007-16.324 6.886c0 0-8.53 1.647-17.97-3.408 0 0-8.348-4.08-11.03-12.548 0 0-4.265-7.128-1.648-20.895l3.895-14.987z" fill="#fa8910"/><path d="M37.76 261.67c-9.035-9.093-19.986-25.343-13.284-38.498 2.84-5.574 15.99 6.635 17.846 8.646 6.958 7.534 7.546 19.444 5.37 29.06l-1.217 5.786 6.457 7.31s7.004-6.336 16.325-5.12c14.76 1.926 22.996 24.59 13.35 36l4.57 7.006s8.102 10.536-.484 19.98c0 0-8.952 10.295-21.135 4.576-3.945-1.854-6.88-5.907-6.39-10.312.352-3.15 2.305-6.973 5.912-6.71 6.033.44 9.675 8.13 5.743 12.825 2.26.637 4.596 2.25 6.913 2.56 3.484.47 5.77-.94 7.656-3.828 3.402-5.207 3.83-13.235-.043-18.36 0-.003-4.512-5.97-4.512-5.97s-9.56 7.007-16.324 6.886c0 0-8.53 1.647-17.97-3.408 0 0-8.348-4.08-11.03-12.548 0 0-4.265-7.128-1.648-20.895l3.895-14.987z" fill="none" stroke="#000" stroke-width="1.53"/><path d="M38.98 257.65s3.348-13.707 3.65-15.596c0 0 1.707-8.104-5.178-12.062 0 0-3.96-3.716-7.31 1.16 0 0-3.714 5.726.368 13.28l8.47 13.217z" fill="#fff"/><path d="M38.98 257.65s3.348-13.707 3.65-15.596c0 0 1.707-8.104-5.178-12.062 0 0-3.96-3.716-7.31 1.16 0 0-3.714 5.726.368 13.28l8.47 13.217z" fill="none" stroke="#000" stroke-width="1.53"/><path d="M45.258 270.685l5.42 5.603s-5.847 10.114-2.92 19.19c0 0 2.5 12.428 17.12 10.11 0 0-13.22-.363-13.22-12.73 0 0-.732-5.36 4.566-10.662l21.446 21.807s-5.602 10.722-20.1 6.277c0 0-13.28-3.165-14.32-17.237 0 0-2.497-3.594 2.008-22.358" fill="#fff"/><path d="M45.258 270.685l5.42 5.603s-5.847 10.114-2.92 19.19c0 0 2.5 12.428 17.12 10.11 0 0-13.22-.363-13.22-12.73 0 0-.732-5.36 4.566-10.662l21.446 21.807s-5.602 10.722-20.1 6.277c0 0-13.28-3.165-14.32-17.237 0 0-2.497-3.594 2.008-22.358z" fill="none" stroke="#000" stroke-width="1.53"/><path d="M58.783 279.76c.062.068 7.29-1.762 8.04-1.756 11.447.132 18.596 15.41 12.858 24.84L58.784 279.76" fill="#fff"/><path d="M58.783 279.76c.062.068 7.29-1.762 8.04-1.756 11.447.132 18.596 15.41 12.858 24.84L58.784 279.76z" fill="none" stroke="#000" stroke-width="1.53"/><path d="M61.8 143.533c3.2 3.33 21.408-1.66 24.937-2.726 17.055-5.145 25.143-22.425 38.05-32.913 10.85-8.817 29.2-14.148 43.023-14.396 6.663-.118 15.892 2.138 20.49 7.503 0 0 6.543 5.454 0 22.904l-16.356 61.07s-1.09 9.81 8.724 2.178l28.354-26.174s9.814-3.267 5.452 11.998l-34.897 77.428s34.808-1.086 34.897-1.09c11.964-.372 25.747 13.365 27.367 24.37 1.693 11.488-4.064 19.84-12.7 26.435-10.734 8.196-25.164 8.79-38.11 8.777-12.552-.014-27.726 1.406-38.383-6.62-4.55-3.424-6.65-10.282-5.787-15.884l47.984-92.698s4.364-14.174-8.722 1.092c0 0-16.36 18.54-28.357 18.54 0 0-13.084-2.182-3.27-33.806l9.81-39.242c3.957-15.83-26.158-9.225-33.124-5.102-11.46 6.788-18.325 16.81-32.042 19.67-13.982 2.91-27.34-.897-37.338-11.313"/><path d="M61.8 143.533c3.2 3.33 21.408-1.66 24.937-2.726 17.055-5.145 25.143-22.425 38.05-32.913 10.85-8.817 29.2-14.148 43.023-14.396 6.663-.118 15.892 2.138 20.49 7.503 0 0 6.543 5.454 0 22.904l-16.356 61.07s-1.09 9.81 8.724 2.178l28.354-26.174s9.814-3.267 5.452 11.998l-34.897 77.428s34.808-1.086 34.897-1.09c11.964-.372 25.747 13.365 27.367 24.37 1.693 11.488-4.064 19.84-12.7 26.435-10.734 8.196-25.164 8.79-38.11 8.777-12.552-.014-27.726 1.406-38.383-6.62-4.55-3.424-6.65-10.282-5.787-15.884l47.984-92.698s4.364-14.174-8.722 1.092c0 0-16.36 18.54-28.357 18.54 0 0-13.084-2.182-3.27-33.806l9.81-39.242c3.957-15.83-26.158-9.225-33.124-5.102-11.46 6.788-18.325 16.81-32.042 19.67-13.982 2.91-27.34-.897-37.338-11.313z" fill="none" stroke="#d89f48" stroke-width="3.06125"/><path d="M54.7 249.62c23.2-17.056 46.025-33.84 46.025-33.84" fill="#fff"/><path d="M54.7 249.62c23.2-17.056 46.025-33.84 46.025-33.84" fill="none" stroke="#000" stroke-width="1.53"/><path d="M6.36 285.167l24.61-18.094" fill="#fff"/><path d="M6.36 285.167l24.61-18.094" fill="none" stroke="#000" stroke-width="1.53"/><path d="M58.33 263.752l43.436-31.32" fill="#fff"/><path d="M58.33 263.752l43.436-31.32" fill="none" stroke="#000" stroke-width="1.53"/><path d="M6.012 301.472s9.333-6.728 22.17-15.985" fill="#fff"/><path d="M6.012 301.472s9.333-6.728 22.17-15.985" fill="none" stroke="#000" stroke-width="1.53"/><path d="M78.348 265.333l23.072-16.595" fill="#fff"/><path d="M78.348 265.333l23.072-16.595" fill="none" stroke="#000" stroke-width="1.53"/><path d="M11.215 313.617l19.55-14.06" fill="#fff"/><path d="M11.215 313.617l19.55-14.06" fill="none" stroke="#000" stroke-width="1.53"/><path d="M86.93 276.08c8.945-6.385 14.49-10.34 14.49-10.34" fill="#fff"/><path d="M86.93 276.08c8.945-6.385 14.49-10.34 14.49-10.34" fill="none" stroke="#000" stroke-width="1.53"/><path d="M20.237 323.676l17.58-12.548" fill="#fff"/><path d="M20.237 323.676l17.58-12.548" fill="none" stroke="#000" stroke-width="1.53"/><path d="M90.988 290.724l10.596-7.536" fill="#fff"/><path d="M90.988 290.724l10.596-7.536" fill="none" stroke="#000" stroke-width="1.53"/><path d="M37.236 327.84l11.52-8.194" fill="#fff"/><path d="M37.236 327.84l11.52-8.194" fill="none" stroke="#000" stroke-width="1.53"/><path d="M.864 188.715l3.285-27.02 6.964.846-2.055 16.917 5.184.63 1.907-15.692 6.656.81-1.907 15.69 6.432.782 2.115-17.405 7.388.9-3.342 27.507-32.63-3.965z" fill="#6ec8de"/><path d="M.864 188.715l3.285-27.02 6.964.846-2.055 16.917 5.184.63 1.907-15.692 6.656.81-1.907 15.69 6.432.782 2.115-17.405 7.388.9-3.342 27.507-32.63-3.965z" fill="none" stroke="#000" stroke-width="1.53"/><path d="M6.838 151.546l2.41-8.824 31.703 8.658-2.41 8.824-31.702-8.658z" fill="#6ec8de"/><path d="M6.838 151.546l2.41-8.824 31.703 8.658-2.41 8.824-31.702-8.658z" fill="none" stroke="#000" stroke-width="1.53"/><path d="M19.45 113.88l6.82-11.496 19.842 5.772L31.524 93.53l6.8-11.46 28.28 16.777-4.236 7.14L40.8 93.19l18.283 18.33-3.834 6.462-24.84-7.276L51.977 123.5l-4.246 7.158-28.28-16.778z" fill="#6ec8de"/><path d="M19.45 113.88l6.82-11.496 19.842 5.772L31.524 93.53l6.8-11.46 28.28 16.777-4.236 7.14L40.8 93.19l18.283 18.33-3.834 6.462-24.84-7.276L51.977 123.5l-4.246 7.158-28.28-16.778z" fill="none" stroke="#000" stroke-width="1.53"/><path d="M72.28 72.396c-1.408-1.08-2.653-1.602-3.736-1.564-1.084.037-2.056.513-2.918 1.427-.994 1.055-1.37 2.293-1.128 3.715.143.895.68 1.884 1.61 2.968l6.172-6.547zm9.556-3.757l-12.56 13.32c1.18.885 2.246 1.348 3.2 1.38 1.357.07 2.522-.415 3.497-1.45.615-.652 1.036-1.426 1.264-2.323.132-.554.132-1.284 0-2.19L84.01 71.4c.8 2.643.91 5.03.332 7.157-.58 2.127-2.114 4.513-4.607 7.158-2.166 2.296-4.192 3.798-6.08 4.505-1.89.707-3.947.828-6.172.364-2.225-.464-4.29-1.593-6.194-3.39-2.71-2.553-4.085-5.49-4.126-8.805-.038-3.317 1.384-6.505 4.266-9.563 2.34-2.48 4.562-4.085 6.667-4.813 2.106-.73 4.226-.798 6.36-.205 2.133.592 4.343 1.967 6.628 4.12l.75.71z" fill="#6ec8de"/><path d="M72.28 72.396c-1.408-1.08-2.653-1.602-3.736-1.564-1.084.037-2.056.513-2.918 1.427-.994 1.055-1.37 2.293-1.128 3.715.143.895.68 1.884 1.61 2.968l6.172-6.547zm9.556-3.757l-12.56 13.32c1.18.885 2.246 1.348 3.2 1.38 1.357.07 2.522-.415 3.497-1.45.615-.652 1.036-1.426 1.264-2.323.132-.554.132-1.284 0-2.19L84.01 71.4c.8 2.643.91 5.03.332 7.157-.58 2.127-2.114 4.513-4.607 7.158-2.166 2.296-4.192 3.798-6.08 4.505-1.89.707-3.947.828-6.172.364-2.225-.464-4.29-1.593-6.194-3.39-2.71-2.553-4.085-5.49-4.126-8.805-.038-3.317 1.384-6.505 4.266-9.563 2.34-2.48 4.562-4.085 6.667-4.813 2.106-.73 4.226-.798 6.36-.205 2.133.592 4.343 1.967 6.628 4.12l.75.71z" fill="none" stroke="#000" stroke-width="1.53"/><path d="M77.71 54.068l7.126-5.74L99.33 66.32c1.846 2.294 2.988 4.053 3.424 5.274.438 1.223.447 2.492.03 3.808-.418 1.317-1.46 2.645-3.126 3.987-1.374 1.106-3.245 2.275-5.61 3.51l-3.1-6.028c.666-.345 1.13-.625 1.4-.84.605-.487.9-1.064.88-1.732-.018-.665-.525-1.616-1.52-2.85L77.71 54.067zm-5.684-7.06l7.127-5.738 3.938 4.89-7.125 5.74-3.94-4.89z" fill="#6ec8de"/><path d="M77.71 54.068l7.126-5.74L99.33 66.32c1.846 2.294 2.988 4.053 3.424 5.274.438 1.223.447 2.492.03 3.808-.418 1.317-1.46 2.645-3.126 3.987-1.374 1.106-3.245 2.275-5.61 3.51l-3.1-6.028c.666-.345 1.13-.625 1.4-.84.605-.487.9-1.064.88-1.732-.018-.665-.525-1.616-1.52-2.85L77.71 54.067zm-5.684-7.06l7.127-5.738 3.938 4.89-7.125 5.74-3.94-4.89z" fill="none" stroke="#000" stroke-width="1.53"/><path d="M104.99 48.815c1.092 1.82 2.27 2.944 3.528 3.374 1.26.427 2.45.306 3.564-.364 1.128-.677 1.795-1.662 2.003-2.956.208-1.293-.257-2.888-1.396-4.784-1.065-1.768-2.22-2.865-3.47-3.29-1.25-.428-2.413-.318-3.49.328-1.14.686-1.817 1.69-2.033 3.014-.216 1.325.215 2.883 1.292 4.677m-7.83 4.73c-1.872-3.113-2.363-6.31-1.474-9.59.89-3.282 3.12-5.996 6.697-8.143 4.088-2.455 7.888-3.126 11.4-2.01 2.826.902 5.076 2.75 6.755 5.542 1.885 3.14 2.39 6.338 1.512 9.594-.877 3.257-3.154 5.99-6.832 8.197-3.28 1.972-6.433 2.73-9.458 2.28-3.726-.57-6.593-2.525-8.6-5.87" fill="#6ec8de"/><path d="M104.99 48.815c1.092 1.82 2.27 2.944 3.528 3.374 1.26.427 2.45.306 3.564-.364 1.128-.677 1.795-1.662 2.003-2.956.208-1.293-.257-2.888-1.396-4.784-1.065-1.768-2.22-2.865-3.47-3.29-1.25-.428-2.413-.318-3.49.328-1.14.686-1.817 1.69-2.033 3.014-.216 1.325.215 2.883 1.292 4.677zm-7.83 4.73c-1.872-3.113-2.363-6.31-1.474-9.59.89-3.282 3.12-5.996 6.697-8.143 4.088-2.455 7.888-3.126 11.4-2.01 2.826.902 5.076 2.75 6.755 5.542 1.885 3.14 2.39 6.338 1.512 9.594-.877 3.257-3.154 5.99-6.832 8.197-3.28 1.972-6.433 2.73-9.458 2.28-3.726-.57-6.593-2.525-8.6-5.87z" fill="none" stroke="#000" stroke-width="1.53"/><path d="M121.98 25.96l7.91-3.228 1.473 3.612c.123-1.875.47-3.27 1.04-4.19.57-.918 1.45-1.62 2.64-2.107 1.246-.508 2.767-.678 4.564-.506l-.158 7.088c-1.167-.007-2.04.106-2.623.343-1.106.453-1.778 1.26-2.014 2.423-.347 1.643.2 4.23 1.64 7.758l3.018 7.394-8.492 3.465-8.998-22.05z" fill="#6ec8de"/><path d="M121.98 25.96l7.91-3.228 1.473 3.612c.123-1.875.47-3.27 1.04-4.19.57-.918 1.45-1.62 2.64-2.107 1.246-.508 2.767-.678 4.564-.506l-.158 7.088c-1.167-.007-2.04.106-2.623.343-1.106.453-1.778 1.26-2.014 2.423-.347 1.643.2 4.23 1.64 7.758l3.018 7.394-8.492 3.465-8.998-22.05z" fill="none" stroke="#000" stroke-width="1.53"/><path d="M185.193 20.012l9.165 1.546c-.28 2.55-.95 4.738-2.013 6.56-1.065 1.823-2.487 3.275-4.27 4.36-1.782 1.085-4.134 1.814-7.053 2.184-3.543.45-6.502.303-8.88-.442-2.376-.744-4.543-2.31-6.504-4.696-1.96-2.387-3.197-5.603-3.71-9.65-.687-5.395.22-9.723 2.72-12.987 2.5-3.26 6.373-5.226 11.62-5.894 4.105-.52 7.44-.1 10 1.262 2.56 1.36 4.63 3.688 6.207 6.982l-8.64 3.107c-.44-.952-.857-1.636-1.256-2.053-.663-.698-1.428-1.203-2.296-1.515-.868-.31-1.806-.403-2.813-.274-2.282.29-3.914 1.432-4.895 3.425-.747 1.48-.934 3.68-.563 6.6.46 3.616 1.324 6.027 2.59 7.228 1.268 1.2 2.895 1.676 4.882 1.423 1.927-.244 3.313-.97 4.16-2.178.85-1.207 1.365-2.87 1.55-4.986" fill="#6ec8de"/><path d="M185.193 20.012l9.165 1.546c-.28 2.55-.95 4.738-2.013 6.56-1.065 1.823-2.487 3.275-4.27 4.36-1.782 1.085-4.134 1.814-7.053 2.184-3.543.45-6.502.303-8.88-.442-2.376-.744-4.543-2.31-6.504-4.696-1.96-2.387-3.197-5.603-3.71-9.65-.687-5.395.22-9.723 2.72-12.987 2.5-3.26 6.373-5.226 11.62-5.894 4.105-.52 7.44-.1 10 1.262 2.56 1.36 4.63 3.688 6.207 6.982l-8.64 3.107c-.44-.952-.857-1.636-1.256-2.053-.663-.698-1.428-1.203-2.296-1.515-.868-.31-1.806-.403-2.813-.274-2.282.29-3.914 1.432-4.895 3.425-.747 1.48-.934 3.68-.563 6.6.46 3.616 1.324 6.027 2.59 7.228 1.268 1.2 2.895 1.676 4.882 1.423 1.927-.244 3.313-.97 4.16-2.178.85-1.207 1.365-2.87 1.55-4.986z" fill="none" stroke="#000" stroke-width="1.53"/><path d="M209 21.18c-.15 2.12.17 3.716.957 4.79.787 1.075 1.827 1.656 3.125 1.748 1.312.092 2.426-.332 3.338-1.272.913-.94 1.447-2.514 1.603-4.723.142-2.057-.175-3.62-.955-4.686-.78-1.066-1.795-1.644-3.05-1.732-1.326-.093-2.457.342-3.394 1.303-.936.96-1.477 2.486-1.624 4.573m-9.13-.617c.253-3.624 1.686-6.525 4.297-8.703 2.61-2.178 5.997-3.12 10.158-2.828 4.76.333 8.256 1.965 10.495 4.894 1.797 2.36 2.582 5.166 2.354 8.417-.255 3.655-1.68 6.564-4.264 8.73-2.59 2.163-6.024 3.095-10.305 2.795-3.817-.268-6.837-1.454-9.058-3.56-2.724-2.602-3.952-5.85-3.678-9.745" fill="#6ec8de"/><path d="M209 21.18c-.15 2.12.17 3.716.957 4.79.787 1.075 1.827 1.656 3.125 1.748 1.312.092 2.426-.332 3.338-1.272.913-.94 1.447-2.514 1.603-4.723.142-2.057-.175-3.62-.955-4.686-.78-1.066-1.795-1.644-3.05-1.732-1.326-.093-2.457.342-3.394 1.303-.936.96-1.477 2.486-1.624 4.573zm-9.13-.617c.253-3.624 1.686-6.525 4.297-8.703 2.61-2.178 5.997-3.12 10.158-2.828 4.76.333 8.256 1.965 10.495 4.894 1.797 2.36 2.582 5.166 2.354 8.417-.255 3.655-1.68 6.564-4.264 8.73-2.59 2.163-6.024 3.095-10.305 2.795-3.817-.268-6.837-1.454-9.058-3.56-2.724-2.602-3.952-5.85-3.678-9.745z" fill="none" stroke="#000" stroke-width="1.53"/><path d="M236.694 12.062l8.222 2.132-.973 3.755c1.627-1.215 3.154-1.99 4.582-2.322 1.43-.33 3.048-.26 4.857.207 2.444.634 4.17 1.858 5.173 3.67 1.004 1.81 1.113 4.235.326 7.273l-3.8 14.645-8.872-2.302 3.286-12.67c.374-1.445.372-2.538-.007-3.278-.38-.74-1.053-1.235-2.022-1.486-1.07-.277-2.045-.098-2.92.54-.874.64-1.585 2.006-2.128 4.102l-2.87 11.066-8.83-2.29 5.977-23.042z" fill="#6ec8de"/><path d="M236.694 12.062l8.222 2.132-.973 3.755c1.627-1.215 3.154-1.99 4.582-2.322 1.43-.33 3.048-.26 4.857.207 2.444.634 4.17 1.858 5.173 3.67 1.004 1.81 1.113 4.235.326 7.273l-3.8 14.645-8.872-2.302 3.286-12.67c.374-1.445.372-2.538-.007-3.278-.38-.74-1.053-1.235-2.022-1.486-1.07-.277-2.045-.098-2.92.54-.874.64-1.585 2.006-2.128 4.102l-2.87 11.066-8.83-2.29 5.977-23.042z" fill="none" stroke="#000" stroke-width="1.53"/><path d="M279.738 39.21c.79-1.69 1.025-3.12.7-4.29-.328-1.167-1.04-2.007-2.136-2.52-.96-.45-1.95-.43-2.977.063-1.022.494-1.976 1.682-2.857 3.563-.825 1.76-1.095 3.203-.81 4.336.288 1.133.926 1.93 1.912 2.394 1.056.494 2.13.493 3.22 0 1.09-.497 2.072-1.68 2.948-3.545m17.146-15.033L282.94 53.93l-7.734-3.625 1.494-3.187c-1.718.845-3.132 1.297-4.248 1.352-1.483.064-2.955-.247-4.415-.93-2.937-1.378-4.658-3.546-5.16-6.504-.502-2.96-.006-6.035 1.492-9.228 1.674-3.572 3.81-5.903 6.41-6.996 2.598-1.09 5.22-1.02 7.857.217 1.286.602 2.35 1.366 3.196 2.29.846.925 1.47 2.01 1.876 3.258l4.834-10.31 8.34 3.91z" fill="#6ec8de"/><path d="M279.738 39.21c.79-1.69 1.025-3.12.7-4.29-.328-1.167-1.04-2.007-2.136-2.52-.96-.45-1.95-.43-2.977.063-1.022.494-1.976 1.682-2.857 3.563-.825 1.76-1.095 3.203-.81 4.336.288 1.133.926 1.93 1.912 2.394 1.056.494 2.13.493 3.22 0 1.09-.497 2.072-1.68 2.948-3.545zm17.146-15.033L282.94 53.93l-7.734-3.625 1.494-3.187c-1.718.845-3.132 1.296-4.248 1.35-1.483.066-2.955-.245-4.415-.93-2.937-1.377-4.658-3.544-5.16-6.502-.502-2.96-.006-6.035 1.492-9.228 1.674-3.572 3.81-5.903 6.41-6.996 2.598-1.092 5.22-1.02 7.857.217 1.286.602 2.35 1.366 3.196 2.29.846.925 1.47 2.01 1.876 3.257l4.834-10.31 8.34 3.91z" fill="none" stroke="#000" stroke-width="1.53"/><path d="M305.76 29.728l7.65 4.97-3.384 5.208-7.65-4.97 3.383-5.208zm-4.936 7.596l7.65 4.97-12.97 19.966-7.65-4.97 12.97-19.966z" fill="#6ec8de"/><path d="M305.76 29.728l7.65 4.97-3.384 5.208-7.65-4.97 3.383-5.208zm-4.936 7.596l7.65 4.97-12.97 19.966-7.65-4.97 12.97-19.966z" fill="none" stroke="#000" stroke-width="1.53"/><path d="M317.47 47.562l6.185 5.865-2.392 2.522c1.887-.21 3.494-.106 4.823.308 1.327.415 2.632 1.23 3.913 2.443 1.377 1.308 2.235 2.586 2.575 3.835.342 1.25.308 2.6-.095 4.048 2.11-.14 3.787-.007 5.03.398 1.243.407 2.495 1.206 3.753 2.4 1.856 1.76 2.782 3.684 2.78 5.773-.003 2.09-1.115 4.305-3.336 6.65L330.41 92.66l-6.64-6.296 9.338-9.85c.74-.78 1.14-1.505 1.195-2.172.12-1.02-.15-1.842-.81-2.47-.783-.74-1.68-1.055-2.692-.943-1.01.11-2.11.79-3.29 2.037l-8.46 8.92-6.643-6.296 9.03-9.52c.72-.762 1.165-1.32 1.335-1.67.273-.57.358-1.152.265-1.746-.096-.595-.377-1.114-.843-1.556-.76-.72-1.656-1.024-2.69-.912-1.034.11-2.175.825-3.42 2.138l-8.363 8.822-6.642-6.297 16.39-17.288z" fill="#6ec8de"/><path d="M317.47 47.562l6.185 5.865-2.392 2.522c1.887-.21 3.494-.106 4.823.308 1.327.415 2.632 1.23 3.913 2.443 1.377 1.308 2.235 2.586 2.575 3.835.342 1.25.308 2.6-.095 4.048 2.11-.14 3.787-.007 5.03.398 1.243.407 2.495 1.206 3.753 2.4 1.856 1.76 2.782 3.684 2.78 5.773-.003 2.09-1.115 4.305-3.336 6.65L330.41 92.66l-6.64-6.296 9.338-9.85c.74-.78 1.14-1.505 1.195-2.172.12-1.02-.15-1.842-.81-2.47-.783-.74-1.68-1.055-2.692-.943-1.01.11-2.11.79-3.29 2.037l-8.46 8.92-6.643-6.296 9.03-9.52c.72-.762 1.165-1.32 1.335-1.67.273-.57.358-1.152.265-1.746-.096-.595-.377-1.114-.843-1.556-.76-.72-1.656-1.024-2.69-.912-1.034.11-2.175.825-3.42 2.138l-8.363 8.822-6.642-6.297 16.39-17.288z" fill="none" stroke="#000" stroke-width="1.53"/><path d="M354.453 104.053c1.373-1.122 2.163-2.215 2.375-3.277.213-1.064-.03-2.118-.72-3.165-.8-1.208-1.92-1.857-3.357-1.948-.902-.066-1.987.23-3.255.89l4.958 7.5zm1.47 10.156l-10.09-15.266c-1.13.946-1.822 1.878-2.074 2.796-.375 1.306-.17 2.55.61 3.735.497.748 1.154 1.334 1.973 1.76.508.255 1.218.422 2.13.5l4.267 7.96c-2.755.17-5.1-.267-7.04-1.316-1.936-1.05-3.908-3.09-5.91-6.12-1.742-2.63-2.736-4.947-2.992-6.945-.256-2 .098-4.03 1.056-6.087.96-2.06 2.532-3.81 4.716-5.253 3.102-2.053 6.273-2.72 9.507-2 3.238.722 6.012 2.834 8.33 6.337 1.878 2.844 2.932 5.373 3.16 7.59.227 2.212-.193 4.29-1.256 6.23-1.065 1.94-2.906 3.777-5.525 5.508l-.86.57z" fill="#6ec8de"/><path d="M354.453 104.053c1.373-1.122 2.163-2.215 2.375-3.277.213-1.064-.03-2.118-.72-3.165-.8-1.208-1.92-1.857-3.357-1.948-.902-.066-1.987.23-3.255.89l4.958 7.5zm1.47 10.156l-10.09-15.266c-1.13.946-1.822 1.878-2.074 2.796-.375 1.306-.17 2.55.61 3.735.497.748 1.154 1.334 1.973 1.76.508.255 1.218.422 2.13.5l4.267 7.96c-2.755.17-5.1-.267-7.04-1.316-1.936-1.05-3.908-3.09-5.91-6.12-1.742-2.63-2.736-4.947-2.992-6.945-.256-2 .098-4.03 1.056-6.087.96-2.06 2.532-3.81 4.716-5.253 3.102-2.053 6.273-2.72 9.507-2 3.238.722 6.012 2.834 8.33 6.337 1.878 2.844 2.932 5.373 3.16 7.59.227 2.212-.193 4.29-1.256 6.23-1.065 1.94-2.906 3.777-5.525 5.508l-.86.57z" fill="none" stroke="#000" stroke-width="1.53"/><path d="M371.71 114.058l3.31 7.824-3.57 1.512c1.95.55 3.494 1.295 4.626 2.227 1.133.935 2.065 2.26 2.792 3.98.984 2.327 1.062 4.44.236 6.34-.827 1.9-2.686 3.46-5.577 4.682l-13.935 5.896-3.572-8.446 12.058-5.1c1.374-.58 2.24-1.25 2.597-1.998.355-.75.338-1.588-.05-2.51-.434-1.018-1.167-1.68-2.207-1.99-1.038-.306-2.555-.037-4.55.808l-10.528 4.452-3.555-8.4 21.925-9.276z" fill="#6ec8de"/><path d="M371.71 114.058l3.31 7.824-3.57 1.512c1.95.55 3.494 1.295 4.626 2.227 1.133.935 2.065 2.26 2.792 3.98.984 2.327 1.062 4.44.236 6.34-.827 1.9-2.686 3.46-5.577 4.682l-13.935 5.896-3.572-8.446 12.058-5.1c1.374-.58 2.24-1.25 2.597-1.998.355-.75.338-1.588-.05-2.51-.434-1.018-1.167-1.68-2.207-1.99-1.038-.306-2.555-.037-4.55.808l-10.528 4.452-3.555-8.4 21.925-9.276z" fill="none" stroke="#000" stroke-width="1.53"/><path d="M395.52 154.526l-8.783 2.207 1.226 4.87-6.46 1.624-1.224-4.872-8.197 2.062c-.987.246-1.614.505-1.887.773-.42.413-.54.982-.357 1.708.163.652.58 1.518 1.253 2.597l-5.946 2.187c-1.027-2.068-1.782-4.053-2.256-5.95-.555-2.205-.68-3.9-.376-5.084.302-1.186.968-2.174 1.995-2.963 1.024-.79 2.83-1.51 5.41-2.158l8.13-2.043-.82-3.262 6.458-1.622.82 3.262 4.24-1.066 6.773 7.73z" fill="#6ec8de"/><path d="M395.52 154.526l-8.783 2.207 1.226 4.87-6.46 1.624-1.224-4.872-8.197 2.062c-.987.246-1.614.505-1.887.773-.42.413-.54.982-.357 1.708.163.652.58 1.518 1.253 2.597l-5.946 2.187c-1.027-2.068-1.782-4.053-2.256-5.95-.555-2.205-.68-3.9-.376-5.084.302-1.186.968-2.174 1.995-2.963 1.024-.79 2.83-1.51 5.41-2.158l8.13-2.043-.82-3.262 6.458-1.622.82 3.262 4.24-1.066 6.773 7.73z" fill="none" stroke="#000" stroke-width="1.53"/><path d="M378.463 178.592c-2.114.196-3.64.77-4.572 1.72-.93.95-1.337 2.073-1.216 3.367.124 1.31.72 2.338 1.797 3.087 1.077.748 2.716 1.02 4.92.814 2.053-.19 3.543-.757 4.468-1.698.926-.943 1.33-2.04 1.213-3.29-.12-1.325-.733-2.37-1.834-3.138-1.1-.77-2.69-1.056-4.773-.862m-.874-9.108c3.617-.337 6.71.606 9.283 2.83 2.57 2.222 4.05 5.41 4.437 9.562.442 4.748-.6 8.463-3.127 11.146-2.036 2.156-4.676 3.385-7.922 3.69-3.645.338-6.746-.592-9.302-2.795-2.554-2.2-4.028-5.438-4.426-9.71-.357-3.81.324-6.982 2.04-9.513 2.126-3.112 5.134-4.848 9.017-5.21" fill="#6ec8de"/><path d="M378.463 178.592c-2.114.196-3.64.77-4.572 1.72-.93.95-1.337 2.073-1.216 3.367.124 1.31.72 2.338 1.797 3.087 1.077.748 2.716 1.02 4.92.814 2.053-.19 3.543-.757 4.468-1.698.926-.943 1.33-2.04 1.213-3.29-.12-1.325-.733-2.37-1.834-3.138-1.1-.77-2.69-1.056-4.773-.862zm-.874-9.108c3.617-.337 6.71.606 9.283 2.83 2.57 2.222 4.05 5.41 4.437 9.562.442 4.748-.6 8.463-3.127 11.146-2.036 2.156-4.676 3.385-7.922 3.69-3.645.338-6.746-.592-9.302-2.795-2.554-2.2-4.028-5.438-4.426-9.71-.357-3.81.324-6.982 2.04-9.513 2.126-3.112 5.134-4.848 9.017-5.21z" fill="none" stroke="#000" stroke-width="1.53"/><path d="M110.73 340.807l11.984 5.928-4.245 20.224 13.475-15.66 11.943 5.907-14.58 29.48-7.44-3.68 11.12-22.482-16.89 19.628-6.736-3.332 5.367-25.322-11.118 22.48-7.46-3.69 14.578-29.48z" fill="#6ec8de"/><path d="M110.73 340.807l11.984 5.928-4.245 20.224 13.475-15.66 11.943 5.907-14.58 29.48-7.44-3.68 11.12-22.482-16.89 19.628-6.736-3.332 5.367-25.322-11.118 22.48-7.46-3.69 14.578-29.48z" fill="none" stroke="#000" stroke-width="1.53"/><path d="M166.263 396.404l-8.28-1.994.903-3.747c-1.606 1.24-3.116 2.04-4.53 2.39-1.413.353-3.037.307-4.866-.134-2.442-.59-4.18-1.78-5.215-3.573-1.036-1.794-1.188-4.21-.456-7.244l3.544-14.73 8.912 2.144-3.063 12.726c-.35 1.453-.33 2.55.062 3.288.39.742 1.07 1.227 2.046 1.463 1.06.254 2.026.056 2.897-.594.872-.65 1.56-2.03 2.068-4.137l2.68-11.134 8.87 2.132-5.572 23.142z" fill="#6ec8de"/><path d="M166.263 396.404l-8.28-1.994.903-3.747c-1.606 1.24-3.116 2.04-4.53 2.39-1.413.353-3.037.307-4.866-.134-2.442-.59-4.18-1.78-5.215-3.573-1.036-1.794-1.188-4.21-.456-7.244l3.544-14.73 8.912 2.144-3.063 12.726c-.35 1.453-.33 2.55.062 3.288.39.742 1.07 1.227 2.046 1.463 1.06.254 2.026.056 2.897-.594.872-.65 1.56-2.03 2.068-4.137l2.68-11.134 8.87 2.132-5.572 23.142z" fill="none" stroke="#000" stroke-width="1.53"/><path d="M176.17 391.27l9.092-.3c.307 1.096.782 1.895 1.425 2.4.642.5 1.524.787 2.643.855 1.223.075 2.187-.13 2.89-.61.546-.356.835-.826.87-1.41.04-.653-.272-1.182-.936-1.583-.478-.28-1.764-.674-3.86-1.176-3.127-.744-5.293-1.388-6.494-1.93-1.203-.545-2.192-1.402-2.967-2.574-.774-1.168-1.12-2.47-1.03-3.9.092-1.567.63-2.888 1.607-3.967.98-1.08 2.284-1.85 3.914-2.313 1.63-.462 3.787-.61 6.473-.45 2.833.172 4.91.514 6.235 1.03 1.324.513 2.41 1.254 3.257 2.218.845.964 1.52 2.24 2.024 3.828l-8.687.326c-.178-.775-.518-1.356-1.018-1.747-.688-.518-1.54-.81-2.553-.872-1.03-.063-1.79.075-2.282.413-.493.336-.754.766-.785 1.288-.037.58.236 1.04.816 1.374.577.335 1.858.683 3.843 1.04 3.007.527 5.23 1.143 6.67 1.843 1.438.7 2.515 1.64 3.23 2.82.713 1.183 1.03 2.453.948 3.81-.085 1.372-.58 2.682-1.485 3.93-.906 1.247-2.274 2.202-4.103 2.862-1.83.66-4.28.897-7.352.71-4.34-.263-7.395-1.068-9.16-2.418-1.768-1.35-2.844-3.182-3.228-5.496" fill="#6ec8de"/><path d="M176.17 391.27l9.092-.3c.307 1.096.782 1.895 1.425 2.4.642.5 1.524.787 2.643.855 1.223.075 2.187-.13 2.89-.61.546-.356.835-.826.87-1.41.04-.653-.272-1.182-.936-1.583-.478-.28-1.764-.674-3.86-1.176-3.127-.744-5.293-1.388-6.494-1.93-1.203-.545-2.192-1.402-2.967-2.574-.774-1.168-1.12-2.47-1.03-3.9.092-1.567.63-2.888 1.607-3.967.98-1.08 2.284-1.85 3.914-2.313 1.63-.462 3.787-.61 6.473-.45 2.833.172 4.91.514 6.235 1.03 1.324.513 2.41 1.254 3.257 2.218.845.964 1.52 2.24 2.024 3.828l-8.687.326c-.178-.775-.518-1.356-1.018-1.747-.688-.518-1.54-.81-2.553-.872-1.03-.063-1.79.075-2.282.413-.493.336-.754.766-.785 1.288-.037.58.236 1.04.816 1.374.577.335 1.858.683 3.843 1.04 3.007.527 5.23 1.143 6.67 1.843 1.438.7 2.515 1.64 3.23 2.82.713 1.183 1.03 2.453.948 3.81-.085 1.372-.58 2.682-1.485 3.93-.906 1.247-2.274 2.202-4.103 2.862-1.83.66-4.28.897-7.352.71-4.34-.263-7.395-1.068-9.16-2.418-1.768-1.35-2.844-3.182-3.228-5.496z" fill="none" stroke="#000" stroke-width="1.53"/><path d="M208.238 375.09l9.105-.616 1.6 23.762-9.105.612-1.6-23.758zm-.61-9.04l9.106-.614.418 6.198-9.105.612-.418-6.196z" fill="#6ec8de"/><path d="M208.238 375.09l9.105-.616 1.6 23.762-9.105.612-1.6-23.758zm-.61-9.04l9.106-.614.418 6.198-9.105.612-.418-6.196z" fill="none" stroke="#000" stroke-width="1.53"/><path d="M244.696 384.668l8.696-.8c-.1 1.87-.55 3.56-1.348 5.08-.8 1.516-1.955 2.806-3.468 3.868-1.512 1.06-3.55 1.86-6.11 2.388-2.475.514-4.583.712-6.326.594-1.74-.118-3.312-.57-4.71-1.358-1.4-.783-2.58-1.803-3.543-3.053-.962-1.25-1.682-3.024-2.158-5.323-.5-2.402-.506-4.483-.018-6.248.357-1.295.96-2.516 1.805-3.66.845-1.146 1.77-2.06 2.773-2.74 1.594-1.08 3.752-1.902 6.474-2.466 3.804-.792 6.847-.714 9.13.232 2.28.946 4.093 2.646 5.44 5.098l-8.173 2.866c-.47-.94-1.104-1.59-1.905-1.952-.8-.36-1.786-.42-2.955-.176-1.48.308-2.566 1.088-3.26 2.337-.694 1.252-.818 2.954-.37 5.105.397 1.917 1.153 3.278 2.267 4.085 1.113.806 2.374 1.063 3.78.774 1.17-.246 2.092-.75 2.765-1.518.674-.765 1.076-1.81 1.214-3.134" fill="#6ec8de"/><path d="M244.696 384.668l8.696-.8c-.1 1.87-.55 3.56-1.348 5.08-.8 1.516-1.955 2.806-3.468 3.868-1.512 1.06-3.55 1.86-6.11 2.388-2.475.514-4.583.712-6.326.594-1.74-.118-3.312-.57-4.71-1.358-1.4-.783-2.58-1.803-3.543-3.053-.962-1.25-1.682-3.024-2.158-5.323-.5-2.402-.506-4.483-.018-6.248.357-1.295.96-2.516 1.805-3.66.845-1.146 1.77-2.06 2.773-2.74 1.594-1.08 3.752-1.902 6.474-2.466 3.804-.792 6.847-.714 9.13.232 2.28.946 4.093 2.646 5.44 5.098l-8.173 2.866c-.47-.94-1.104-1.59-1.905-1.952-.8-.36-1.786-.42-2.955-.176-1.48.308-2.566 1.088-3.26 2.337-.694 1.252-.818 2.954-.37 5.105.397 1.917 1.153 3.278 2.267 4.085 1.113.806 2.374 1.063 3.78.774 1.17-.246 2.092-.75 2.765-1.518.674-.765 1.076-1.81 1.214-3.134z" fill="none" stroke="#000" stroke-width="1.53"/><path d="M275.492 372.306c-.992.892-2.05 1.755-3.177 2.59-1.528 1.16-2.43 2.055-2.703 2.684-.284.65-.307 1.264-.068 1.844.27.663.726 1.11 1.362 1.344.637.23 1.404.162 2.302-.207.942-.384 1.722-.972 2.344-1.76.623-.787.967-1.58 1.036-2.374.07-.796-.112-1.72-.542-2.772l-.554-1.348zm-9.14-1.433l-8.418 2.46c-.274-1.536-.29-2.823-.05-3.868.244-1.045.78-2.085 1.615-3.122.598-.746 1.527-1.516 2.783-2.307 1.26-.79 2.677-1.51 4.254-2.157 2.528-1.038 4.62-1.732 6.27-2.077 1.652-.346 3.173-.28 4.566.2.975.325 1.9.975 2.786 1.945.88.97 1.535 1.973 1.96 3.01l3.992 9.728c.426 1.037.824 1.822 1.197 2.355.37.535.965 1.167 1.784 1.897l-7.922 3.253c-.553-.438-.937-.784-1.156-1.04-.22-.258-.506-.685-.865-1.284-.67 1.52-1.454 2.732-2.36 3.636-1.243 1.222-2.853 2.24-4.83 3.048-2.627 1.08-4.87 1.29-6.733.63-1.86-.656-3.156-1.875-3.89-3.66-.684-1.673-.76-3.25-.22-4.733.54-1.48 2.02-3.025 4.448-4.634 2.903-1.936 4.774-3.225 5.608-3.865.837-.643 1.696-1.386 2.574-2.233-.425-1.037-.938-1.674-1.537-1.913-.598-.24-1.438-.138-2.516.305-1.382.567-2.328 1.213-2.837 1.94-.398.568-.565 1.396-.505 2.486" fill="#6ec8de"/><path d="M275.492 372.306c-.992.892-2.05 1.755-3.177 2.59-1.528 1.16-2.43 2.055-2.703 2.684-.284.65-.307 1.264-.068 1.844.27.663.726 1.11 1.362 1.344.637.23 1.404.162 2.302-.207.942-.384 1.722-.972 2.344-1.76.623-.787.967-1.58 1.036-2.374.07-.796-.112-1.72-.542-2.772l-.554-1.348zm-9.14-1.433l-8.418 2.46c-.274-1.536-.29-2.823-.05-3.868.244-1.045.78-2.085 1.615-3.122.598-.746 1.527-1.516 2.783-2.307 1.26-.79 2.677-1.51 4.254-2.157 2.528-1.038 4.62-1.732 6.27-2.077 1.652-.346 3.173-.28 4.566.2.975.325 1.9.975 2.786 1.945.88.97 1.535 1.973 1.96 3.01l3.992 9.728c.426 1.037.824 1.822 1.197 2.355.37.535.965 1.167 1.784 1.897l-7.922 3.253c-.553-.438-.937-.784-1.156-1.04-.22-.258-.506-.685-.865-1.284-.67 1.52-1.454 2.732-2.36 3.636-1.243 1.222-2.853 2.24-4.83 3.048-2.627 1.08-4.87 1.29-6.733.63-1.86-.656-3.156-1.875-3.89-3.66-.684-1.673-.76-3.25-.22-4.733.54-1.48 2.02-3.025 4.448-4.634 2.903-1.936 4.774-3.225 5.608-3.865.837-.643 1.696-1.386 2.574-2.233-.425-1.037-.938-1.674-1.537-1.913-.598-.24-1.438-.138-2.516.305-1.382.567-2.328 1.213-2.837 1.94-.398.568-.565 1.396-.505 2.486z" fill="none" stroke="#000" stroke-width="1.53"/><path d="M280.45 345.953l7.9-4.6 16.533 28.38-7.9 4.604-16.534-28.384z" fill="#6ec8de"/><path d="M280.45 345.953l7.9-4.6 16.533 28.38-7.9 4.604-16.534-28.384z" fill="none" stroke="#000" stroke-width="1.53"/><path d="M229.257 261.81c-6.345-4.998-20.036-10.985-27.758-7.615-.002 0-8.53 3.722-13.74 3.722-1.058 0-3.12-1.872-4.214-2.265-1.232-.444-2.428-.713-3.447.228-.79.73-1.772 2.83-1.377 3.868.742 1.95 3.647 2.455 5.45 2.12 1.037-.192 1.963-.775 2.95-1.12 1.437-.5 3.093-.168 4.428-.596.002 0 10.422-3.352 10.422 1.86 0 1.965-2.424 5.096-4.538 4.637-1.13-.245-1.733-1.47-2.666-2.04-1.407-.86-3.56-.85-5.11-.364-1.608.505-2.34 2.424-1.36 3.803 1.402 1.968 3.588.497 5.41.36 2.264-.174 4.485.746 6.705 1 1.28.148 2.552.072 3.834.256 2.376.34 6.247 1.172 6.252 4.258-.006 3.993-14.108 2.132-16.712 1.827-2.537-.297-5.67-.235-7.966-1.22-2.85-1.222-4.563-5.538-8.48-4.7-1.377.295-4.505 2.22-4.7 3.376-.817 4.91 21.403 1.544 24.592 7.046.595 1.027.9 4.505-.522 5.01-.86.306-1.402-.697-2.06-1.012-1.27-.606-2.74-.356-4.05.1 0 0-3.788 3.725-.946 6.33 0 0 1.895 3.72 10.894-.742 0 0 9.947-8.193 16.106-1.865 1.024 1.052 1.782 3.017 1.828 4.453.05 1.524-1.095 3.183-2.49 3.727-1.725.673-2.733-.33-3.96-1.384-2.438-2.098-6.29-4.544-9.114-1.584 0 0-7.577 5.212-2.84 6.7 24.703 7.775 47.772-20.098 30.82-36.743-.47-.462-1.02-.942-1.643-1.432" fill="#88c936"/><path d="M229.257 261.81c-6.345-4.998-20.036-10.985-27.758-7.615-.002 0-8.53 3.722-13.74 3.722-1.058 0-3.12-1.872-4.214-2.265-1.232-.444-2.428-.713-3.447.228-.79.73-1.772 2.83-1.377 3.868.742 1.95 3.647 2.455 5.45 2.12 1.037-.192 1.963-.775 2.95-1.12 1.437-.5 3.093-.168 4.428-.596.002 0 10.422-3.352 10.422 1.86 0 1.965-2.424 5.096-4.538 4.637-1.13-.245-1.733-1.47-2.666-2.04-1.407-.86-3.56-.85-5.11-.364-1.608.505-2.34 2.424-1.36 3.803 1.402 1.968 3.588.497 5.41.36 2.264-.174 4.485.746 6.705 1 1.28.148 2.552.072 3.834.256 2.376.34 6.247 1.172 6.252 4.258-.006 3.993-14.108 2.132-16.712 1.827-2.537-.297-5.67-.235-7.966-1.22-2.85-1.222-4.563-5.538-8.48-4.7-1.377.295-4.505 2.22-4.7 3.376-.817 4.91 21.403 1.544 24.592 7.046.595 1.027.9 4.505-.522 5.01-.86.306-1.402-.697-2.06-1.012-1.27-.606-2.74-.356-4.05.1 0 0-3.788 3.725-.946 6.33 0 0 1.895 3.72 10.894-.742 0 0 9.947-8.193 16.106-1.865 1.024 1.052 1.782 3.017 1.828 4.453.05 1.524-1.095 3.183-2.49 3.727-1.725.673-2.733-.33-3.96-1.384-2.438-2.098-6.29-4.544-9.114-1.584 0 0-7.577 5.212-2.84 6.7 24.703 7.775 47.772-20.098 30.82-36.743-.47-.462-1.02-.942-1.643-1.432z" fill="none" stroke="#106224" stroke-width="1.53"/><path d="M162.406 172.34c-1.596 3.627-2.59 7.674-3.585 11.5-1.43 5.516-7.33 25.322 4.518 22.686 1.226-.274 2.695-1.472 3.787-2.103 1.192-.69 2.37-1.402 3.514-2.17 1.358-.917 3.804-2.273 4.5-3.87 1.17-2.69-5.397-.1-6.335.254-1.466.555-2.955 1.027-4.357 1.738-1.3.662-3.3.01-3.974-1.187-.728-1.294-.844-3.156-1.143-4.593-.905-4.36-.547-8.903.25-13.26.56-3.08 1.565-6.13 2.826-8.994" fill="#88c936"/><path d="M162.406 172.34c-1.596 3.627-2.59 7.674-3.585 11.5-1.43 5.516-7.33 25.322 4.518 22.686 1.226-.274 2.695-1.472 3.787-2.103 1.192-.69 2.37-1.402 3.514-2.17 1.358-.917 3.804-2.273 4.5-3.87 1.17-2.69-5.397-.1-6.335.254-1.466.555-2.955 1.027-4.357 1.738-1.3.662-3.3.01-3.974-1.187-.728-1.294-.844-3.156-1.143-4.593-.905-4.36-.547-8.903.25-13.26.56-3.08 1.565-6.13 2.826-8.994z" fill="none" stroke="#106224" stroke-width="1.53"/><path d="M236.06 198.357c-.296 0-.615.1-.956.296-.344.194-.687.428-1.03.698-.343.27-.623.564-.845.882-.22.32-.332.576-.332.77v7.714c0 .393.16.712.478.957.318.245.71.427 1.175.55.467.122.97.197 1.507.22.538.024 1.03.036 1.47.036v-10.8c0-.098-.11-.306-.33-.625-.223-.318-.405-.526-.552-.624-.245-.047-.44-.073-.586-.073m-12.86 13.665c.05-1.957.087-3.6.113-4.922.023-1.32.084-2.325.183-3.012 0-.782.06-1.506.184-2.167.122-.66.28-1.31.476-1.946.294-.98.735-1.886 1.324-2.72.586-.83 1.345-1.54 2.277-2.13.93-.587 2.08-1.052 3.453-1.395 1.37-.344 2.986-.515 4.85-.515.83 0 1.86.086 3.083.257 1.224.17 2.4.44 3.526.808 1.126.367 2.093.834 2.903 1.396.806.563 1.212 1.238 1.212 2.02l.072 12.783c.05 3.183-1.518 4.775-4.702 4.775h-9.257v11.534c0 .343.294.758.882 1.248.686.54 1.298.734 1.838.587 1.713 0 2.717-.563 3.01-1.69 0-1.565.013-2.766.037-3.6.023-.832.11-1.344.26-1.542.193-.392.61-.857 1.246-1.394.638-.54 1.618-.81 2.94-.81.93 0 1.69.048 2.278.146.587.098 1.053.49 1.397 1.176v.734c0 .392.01.796.035 1.212.025.417.037.847.037 1.286v.66c0 .59-.025 1.348-.072 2.28-.05.93-.246 1.85-.588 2.754-.344.906-.907 1.69-1.69 2.352-.783.66-1.887.99-3.307.99h-11.167c-.98 0-1.787-.208-2.424-.624-.638-.416-1.226-.967-1.763-1.653-.393-.637-.687-1.076-.88-1.32-.052-.247-.136-.54-.26-.884-.12-.342-.306-.834-.55-1.47-.146-.44-.258-.894-.33-1.36-.075-.465-.185-.967-.33-1.506 0-.49-.027-1.065-.074-1.726-.05-.66-.1-1.408-.15-2.24-.048-.246-.072-.71-.072-1.397v-6.978z" fill="#008837"/><path d="M236.06 198.357c-.296 0-.615.1-.956.296-.344.194-.687.428-1.03.698-.343.27-.623.564-.845.882-.22.32-.332.576-.332.77v7.714c0 .393.16.712.478.957.318.245.71.427 1.175.55.467.122.97.197 1.507.22.538.024 1.03.036 1.47.036v-10.8c0-.098-.11-.306-.33-.625-.223-.318-.405-.526-.552-.624-.245-.047-.44-.073-.586-.073zm-12.86 13.665c.05-1.957.087-3.6.113-4.922.023-1.32.084-2.325.183-3.012 0-.782.06-1.506.184-2.168.122-.66.28-1.31.476-1.946.294-.98.735-1.886 1.324-2.72.586-.83 1.345-1.54 2.277-2.13.93-.587 2.08-1.052 3.453-1.395 1.37-.344 2.986-.515 4.85-.515.83 0 1.86.085 3.083.257 1.224.17 2.4.44 3.526.808 1.126.367 2.093.834 2.903 1.396.806.563 1.212 1.238 1.212 2.02l.072 12.783c.05 3.183-1.518 4.775-4.702 4.775h-9.257v11.534c0 .343.294.758.882 1.248.686.538 1.298.734 1.838.587 1.713 0 2.717-.563 3.01-1.69 0-1.565.013-2.766.037-3.6.023-.832.11-1.344.26-1.542.193-.392.61-.857 1.246-1.394.638-.54 1.618-.81 2.94-.81.93 0 1.69.048 2.278.146.587.098 1.053.49 1.397 1.176v.734c0 .392.01.796.035 1.212.025.417.037.847.037 1.286v.66c0 .59-.025 1.348-.072 2.28-.05.93-.246 1.85-.588 2.754-.344.906-.907 1.69-1.69 2.352-.783.66-1.887.99-3.307.99h-11.167c-.98 0-1.787-.208-2.424-.624-.638-.416-1.226-.967-1.763-1.653-.393-.637-.687-1.076-.88-1.32-.052-.247-.136-.54-.26-.884-.12-.342-.306-.834-.55-1.47-.146-.44-.258-.894-.33-1.36-.075-.465-.185-.967-.33-1.506 0-.49-.027-1.065-.074-1.726-.05-.66-.1-1.408-.15-2.24-.048-.246-.072-.71-.072-1.397v-6.978z" fill="none" stroke="#000" stroke-width="1.53"/><path d="M266.62 193.215v4.628c-.54.1-1.263.257-2.17.48-.904.22-1.786.5-2.643.843-.858.344-1.604.748-2.24 1.212-.637.467-.955.944-.955 1.432l-.147 30.342c-.343.44-.81.783-1.396 1.028h-5.364c-.147 0-.404-.035-.773-.108-.368-.074-.672-.38-.917-.92l-.22-2.792v-33.5c0-.048.11-.33.33-.844.22-.514.404-.894.55-1.14.05-.098.196-.233.442-.404.245-.172.44-.257.588-.257h14.913z" fill="#008837"/><path d="M266.62 193.215v4.628c-.54.1-1.263.257-2.17.48-.904.22-1.786.5-2.643.843-.858.344-1.604.748-2.24 1.212-.637.467-.955.944-.955 1.432l-.147 30.342c-.343.44-.81.783-1.396 1.028h-5.364c-.147 0-.404-.035-.773-.108-.368-.074-.672-.38-.917-.92l-.22-2.792v-33.5c0-.048.11-.33.33-.844.22-.514.404-.894.55-1.14.05-.098.196-.233.442-.404.245-.172.44-.257.588-.257h14.913z" fill="none" stroke="#000" stroke-width="1.53"/><path d="M283.002 198.43c-2.5 0-3.748.86-3.748 2.572v24.464c0 .882.147 1.445.44 1.692.295.245.884.365 1.766.365.636 0 1.198-.073 1.688-.22.49-.145.736-.563.736-1.25V199.02c0-.1-.11-.222-.332-.367-.222-.147-.404-.222-.55-.222m-13.077 33.5v-49.734c0-.196.196-.38.587-.552.39-.17.844-.32 1.36-.44.513-.123 1.03-.21 1.543-.258.514-.048.868-.074 1.064-.074h.88c.737 0 1.482.05 2.24.147.76.097 1.14.293 1.14.587v11.167c1.812 0 3.27-.037 4.373-.11 1.102-.072 2.08-.072 2.938 0 .857.073 1.666.294 2.426.66.76.368 1.7.97 2.827 1.8.93.443 1.542 1.104 1.838 1.984v30.93c-.344.393-.674.773-.993 1.14-.318.367-.747.794-1.285 1.284-.44.49-.882.906-1.323 1.25-.44.343-.92.623-1.432.844-.514.22-1.103.38-1.764.477-.66.1-1.482.147-2.46.147h-6.54c-3.282 0-5.216-.096-5.804-.294-.392-.098-.637-.22-.733-.367l-.882-.59z" fill="#008837"/><path d="M283.002 198.43c-2.5 0-3.748.86-3.748 2.572v24.464c0 .882.147 1.445.44 1.692.295.245.884.365 1.766.365.636 0 1.198-.073 1.688-.22.49-.145.736-.563.736-1.25V199.02c0-.1-.11-.222-.332-.367-.222-.147-.404-.222-.55-.222zm-13.077 33.5v-49.734c0-.196.196-.38.587-.552.39-.17.844-.32 1.36-.44.513-.123 1.03-.21 1.543-.258.514-.048.868-.074 1.064-.074h.88c.737 0 1.482.05 2.24.147.76.097 1.14.293 1.14.587v11.167c1.812 0 3.27-.037 4.373-.11 1.102-.072 2.08-.072 2.938 0 .857.073 1.666.294 2.426.66.76.368 1.7.97 2.827 1.8.93.443 1.542 1.104 1.838 1.984v30.93c-.344.393-.674.773-.993 1.14-.318.367-.747.794-1.285 1.284-.44.49-.882.906-1.323 1.25-.44.343-.92.623-1.432.844-.514.22-1.103.38-1.764.477-.66.1-1.482.147-2.46.147h-6.54c-3.282 0-5.216-.096-5.804-.294-.392-.098-.637-.22-.733-.367l-.882-.59z" fill="none" stroke="#000" stroke-width="1.53"/><path d="M308.2 213.785c-.147 0-.443.026-.882.074-.245.048-.526.17-.845.366-.318.196-.626.404-.918.625-.292.223-.66.504-1.102.845v12.343c0 .05.233.136.698.258.466.123.87.232 1.213.33.245.1.416.146.514.146.294 0 .623-.096.992-.292.366-.196.71-.44 1.028-.736.318-.292.6-.586.845-.882.244-.292.368-.563.368-.808v-11.607c0-.392-.233-.6-.698-.623-.465-.025-.87-.04-1.212-.04m1.91-13.516l-3.01-1.543c-.737.783-1.398 1.726-1.986 2.828-.588 1.104-1.102 2.193-1.543 3.27h-6.536c-.39 0-.65-.294-.77-.88-.123-.588-.185-1.13-.185-1.618v-.735c0-2.547.916-4.58 2.753-6.098 1.836-1.518 4.665-2.277 8.485-2.277 1.713 0 3.22.208 4.517.624 1.298.416 2.51.895 3.638 1.432.54.246.98.453 1.324.624.34.172.623.355.843.55.22.2.416.407.588.626.17.222.33.502.48.845l-.15 33.575-1.028 1.688h-16.824c-.832 0-1.53-.157-2.094-.476-.563-.318-1.028-.7-1.395-1.14-.37-.44-.637-.93-.81-1.47-.17-.536-.256-1.026-.256-1.468V213.86c0-.785.344-1.47 1.03-2.058.685-.586 1.543-1.1 2.57-1.543 1.03-.442 2.156-.82 3.38-1.14 1.225-.318 2.35-.586 3.38-.808l2.573-.55c.684-.146 1.028-.27 1.028-.368v-7.126z" fill="#008837"/><path d="M308.2 213.785c-.147 0-.443.026-.882.074-.245.048-.526.17-.845.366-.318.196-.626.404-.918.625-.292.223-.66.504-1.102.845v12.343c0 .05.233.136.698.258.466.123.87.232 1.213.33.245.1.416.146.514.146.294 0 .623-.096.992-.292.366-.196.71-.44 1.028-.736.318-.292.6-.586.845-.882.244-.292.368-.563.368-.808v-11.607c0-.392-.233-.6-.698-.623-.465-.025-.87-.04-1.212-.04zm1.91-13.518l-3.01-1.542c-.737.783-1.398 1.726-1.986 2.828-.588 1.104-1.102 2.193-1.543 3.27h-6.536c-.39 0-.65-.294-.77-.88-.123-.588-.185-1.13-.185-1.618v-.735c0-2.547.916-4.58 2.753-6.098 1.836-1.518 4.665-2.277 8.485-2.277 1.713 0 3.22.208 4.517.624 1.298.416 2.51.895 3.638 1.432.54.246.98.453 1.324.624.34.172.623.355.843.55.22.2.416.407.588.626.17.222.33.502.48.845l-.15 33.575-1.028 1.688h-16.824c-.832 0-1.53-.157-2.094-.476-.563-.318-1.028-.7-1.395-1.14-.37-.44-.637-.93-.81-1.47-.17-.536-.256-1.026-.256-1.47V213.86c0-.785.344-1.47 1.03-2.058.685-.587 1.543-1.1 2.57-1.543 1.03-.442 2.156-.82 3.38-1.14 1.225-.318 2.35-.586 3.38-.808l2.573-.55c.684-.146 1.028-.27 1.028-.368v-7.127z" fill="none" stroke="#000" stroke-width="1.53"/><path d="M247.318 299.946V268.43c0-.442.147-.82.442-1.14.294-.318.66-.588 1.1-.808.443-.22.933-.392 1.47-.514.54-.123 1.053-.184 1.544-.184.292 0 .684.014 1.174.037.49.025.966.074 1.433.148.467.075.858.197 1.175.367.32.172.48.43.48.772v31.517c0 .685.33 1.09.99 1.212.662.122 1.286.183 1.875.183.54 0 1.127-.062 1.764-.184.636-.123.953-.527.953-1.212v-29.607c0-.882.59-1.666 1.765-2.35 1.223-.685 2.325-1.03 3.306-1.03.292 0 .65.014 1.063.038.418.023.836.085 1.252.184.415.097.76.244 1.027.44.268.196.403.464.403.806v37.983c0 .098-.343.233-1.03.403-.683.17-1.247.257-1.687.257h-1.028c-.54 0-1.15.012-1.838.038-.686.02-1.346.035-1.983.035h-1.69c-2.644 0-4.654-.05-6.025-.147-1.373-.096-2.45-.34-3.233-.733-.783-.392-1.482-.98-2.096-1.765-.612-.782-1.48-1.86-2.606-3.232" fill="#008837"/><path d="M247.318 299.946V268.43c0-.442.147-.82.442-1.14.294-.318.66-.588 1.1-.808.443-.22.933-.392 1.47-.514.54-.123 1.053-.184 1.544-.184.292 0 .684.014 1.174.037.49.025.966.074 1.433.148.467.075.858.197 1.175.367.32.172.48.43.48.772v31.517c0 .685.33 1.09.99 1.212.662.122 1.286.183 1.875.183.54 0 1.127-.062 1.764-.184.636-.123.953-.527.953-1.212v-29.607c0-.882.59-1.666 1.765-2.35 1.223-.685 2.325-1.03 3.306-1.03.292 0 .65.014 1.063.038.418.023.836.085 1.252.184.415.097.76.244 1.027.44.268.196.403.464.403.806v37.983c0 .098-.343.233-1.03.403-.683.17-1.247.257-1.687.257h-1.028c-.54 0-1.15.012-1.838.038-.686.02-1.346.035-1.983.035h-1.69c-2.644 0-4.654-.05-6.025-.147-1.373-.096-2.45-.34-3.233-.733-.783-.392-1.482-.98-2.096-1.765-.612-.782-1.48-1.86-2.606-3.232z" fill="none" stroke="#000" stroke-width="1.53"/><path d="M286.328 270.927c-.294 0-.612.1-.955.295-.343.195-.686.43-1.027.698-.344.268-.626.563-.846.882-.222.318-.33.575-.33.77v7.713c0 .394.157.712.475.957.32.245.71.427 1.177.55.465.122.967.197 1.505.22.538.024 1.028.037 1.47.037v-10.8c0-.1-.11-.307-.33-.625-.222-.32-.404-.527-.55-.625-.246-.047-.442-.073-.59-.073m-12.855 13.664c.047-1.956.085-3.598.11-4.92.024-1.322.086-2.326.184-3.013 0-.782.06-1.506.185-2.167.123-.66.28-1.31.477-1.947.292-.98.734-1.886 1.322-2.718.587-.83 1.346-1.542 2.278-2.13.93-.59 2.08-1.054 3.452-1.397 1.37-.342 2.987-.514 4.848-.514.83 0 1.86.086 3.086.257 1.224.173 2.398.442 3.526.81 1.127.367 2.094.834 2.902 1.395.808.563 1.212 1.238 1.212 2.022l.074 12.782c.047 3.182-1.518 4.774-4.702 4.774h-9.257v11.534c0 .345.292.76.88 1.25.685.538 1.3.734 1.838.588 1.712 0 2.718-.564 3.012-1.69 0-1.567.012-2.768.036-3.6.023-.832.11-1.346.258-1.544.194-.39.612-.857 1.248-1.394.637-.54 1.617-.81 2.94-.81.928 0 1.687.05 2.277.147.586.098 1.052.49 1.394 1.177v.734c0 .39.013.797.037 1.212.024.416.038.846.038 1.285v.662c0 .587-.026 1.346-.074 2.277-.05.93-.244 1.85-.587 2.757-.343.903-.906 1.688-1.69 2.35-.784.66-1.886.99-3.306.99h-11.166c-.98 0-1.788-.208-2.424-.625-.637-.416-1.225-.967-1.762-1.653-.393-.636-.69-1.076-.883-1.32-.05-.247-.135-.54-.257-.884-.123-.34-.306-.832-.55-1.47-.148-.44-.258-.893-.332-1.358-.075-.465-.183-.967-.33-1.506 0-.49-.025-1.065-.072-1.727-.05-.66-.1-1.406-.15-2.24-.048-.245-.072-.71-.072-1.396v-6.98z" fill="#008837"/><path d="M286.328 270.927c-.294 0-.612.1-.955.295-.343.195-.686.43-1.027.698-.344.268-.626.563-.846.882-.222.318-.33.575-.33.77v7.713c0 .394.157.712.475.957.32.245.71.427 1.177.55.465.122.967.197 1.505.22.538.024 1.028.037 1.47.037v-10.8c0-.1-.11-.307-.33-.625-.222-.32-.404-.527-.55-.625-.246-.047-.442-.073-.59-.073zm-12.856 13.664c.047-1.956.085-3.598.11-4.92.024-1.322.086-2.326.184-3.013 0-.782.06-1.506.185-2.167.123-.66.28-1.31.477-1.947.292-.98.734-1.886 1.322-2.718.587-.83 1.346-1.542 2.278-2.13.93-.59 2.08-1.054 3.452-1.397 1.37-.342 2.987-.514 4.848-.514.83 0 1.86.086 3.086.257 1.224.173 2.398.442 3.526.81 1.127.367 2.094.834 2.902 1.395.808.563 1.212 1.238 1.212 2.022l.074 12.782c.047 3.182-1.518 4.774-4.702 4.774h-9.257v11.534c0 .345.292.76.88 1.25.685.538 1.3.734 1.838.588 1.712 0 2.718-.564 3.012-1.69 0-1.567.012-2.768.036-3.6.023-.832.11-1.346.258-1.544.194-.39.612-.857 1.248-1.394.637-.54 1.617-.81 2.94-.81.928 0 1.687.05 2.277.147.586.098 1.052.49 1.394 1.177v.734c0 .39.013.797.037 1.212.024.416.038.846.038 1.285v.662c0 .587-.026 1.346-.074 2.277-.05.93-.244 1.85-.587 2.757-.343.903-.906 1.688-1.69 2.35-.784.66-1.886.99-3.306.99h-11.166c-.98 0-1.788-.208-2.424-.625-.637-.416-1.225-.967-1.762-1.653-.393-.636-.69-1.076-.883-1.32-.05-.247-.135-.54-.257-.884-.123-.34-.306-.832-.55-1.47-.148-.44-.258-.893-.332-1.358-.075-.465-.183-.967-.33-1.506 0-.49-.025-1.065-.072-1.727-.05-.66-.1-1.406-.15-2.24-.048-.245-.072-.71-.072-1.396v-6.98z" fill="none" stroke="#000" stroke-width="1.53"/><path d="M300.066 266.96l.882-1.323c.048 0 .317-.023.808-.073.49-.048.857-.074 1.102-.074 1.127 0 2.02.135 2.68.404.66.27 1.482.404 2.463.404 1.175 0 2.278-.12 3.307-.366 1.028-.246 2.202-.368 3.526-.368 2.057 0 3.83.356 5.326 1.066 1.493.71 2.24 1.92 2.24 3.637v34.16l-.955 1.25c-.05.05-.344.097-.88.146-.54.048-.98.074-1.324.074-.538 0-1.187-.026-1.946-.074-.76-.05-1.26-.096-1.506-.147l-.845-.33c-.318-.123-.477-.233-.477-.33v-32.84c0-.098-.123-.22-.368-.368-.244-.145-.54-.28-.88-.402-.345-.123-.7-.233-1.066-.33-.37-.1-.674-.15-.92-.15-.244 0-.55.05-.92.15-.366.097-.72.207-1.062.33-.345.122-.637.257-.882.402-.245.147-.367.27-.367.37v32.837c0 .098-.184.208-.552.33-.367.125-.672.235-.917.33-.05 0-.43.015-1.137.04-.71.022-1.237.035-1.58.035h-.808c-.344 0-.65-.013-.92-.036-.268-.024-.525-.038-.77-.038h-.367c-.147 0-.332-.084-.55-.257-.223-.17-.332-.307-.332-.405V266.96z" fill="#008837"/><path d="M300.066 266.96l.882-1.323c.048 0 .317-.023.808-.073.49-.048.857-.074 1.102-.074 1.127 0 2.02.135 2.68.404.66.27 1.482.404 2.463.404 1.175 0 2.278-.12 3.307-.366 1.028-.246 2.202-.368 3.526-.368 2.057 0 3.83.356 5.326 1.066 1.493.71 2.24 1.92 2.24 3.637v34.16l-.955 1.25c-.05.05-.344.097-.88.146-.54.048-.98.074-1.324.074-.538 0-1.187-.026-1.946-.074-.76-.05-1.26-.096-1.506-.147l-.845-.33c-.318-.123-.477-.233-.477-.33v-32.84c0-.098-.123-.22-.368-.368-.244-.145-.54-.28-.88-.402-.345-.123-.7-.233-1.066-.33-.37-.1-.674-.15-.92-.15-.244 0-.55.05-.92.15-.366.097-.72.207-1.062.33-.345.122-.637.257-.882.402-.245.147-.367.27-.367.37v32.837c0 .098-.184.208-.552.33-.367.125-.672.235-.917.33-.05 0-.43.015-1.137.04-.71.022-1.237.035-1.58.035h-.808c-.344 0-.65-.013-.92-.036-.268-.024-.525-.038-.77-.038h-.367c-.147 0-.332-.084-.55-.257-.223-.17-.332-.307-.332-.405V266.96z" fill="none" stroke="#000" stroke-width="1.53"/><path d="M337.387 286.355c-.148 0-.442.026-.88.073-.248.05-.53.172-.848.367-.32.196-.625.405-.92.626-.29.222-.66.503-1.1.845v12.342c0 .05.232.136.698.26.464.12.868.23 1.213.33.246.097.415.145.515.145.292 0 .623-.097.99-.293.367-.196.71-.44 1.03-.737.317-.292.6-.586.845-.88.245-.294.367-.565.367-.81v-11.607c0-.392-.232-.6-.698-.623-.467-.025-.87-.038-1.213-.038m1.91-13.518l-3.012-1.543c-.734.784-1.397 1.727-1.985 2.83-.588 1.102-1.102 2.192-1.543 3.268h-6.537c-.39 0-.65-.294-.77-.88-.123-.588-.185-1.128-.185-1.618v-.735c0-2.548.917-4.58 2.755-6.098 1.835-1.52 4.665-2.278 8.486-2.278 1.712 0 3.218.21 4.516.625 1.297.415 2.51.894 3.638 1.433.538.245.978.45 1.323.623.343.17.623.355.845.55.22.198.414.406.587.625.17.223.33.503.478.846l-.15 33.576-1.026 1.688h-16.825c-.832 0-1.53-.158-2.094-.476-.563-.32-1.028-.698-1.395-1.14-.368-.44-.637-.93-.807-1.468-.173-.54-.257-1.03-.257-1.47v-14.768c0-.783.34-1.468 1.027-2.057.684-.585 1.542-1.1 2.57-1.54 1.03-.442 2.155-.822 3.38-1.14 1.224-.32 2.35-.587 3.38-.81 1.028-.217 1.886-.403 2.572-.548.683-.147 1.027-.27 1.027-.37v-7.125z" fill="#008837"/><path d="M337.387 286.355c-.148 0-.442.026-.88.073-.248.05-.53.172-.848.367-.32.196-.625.405-.92.626-.29.222-.66.503-1.1.845v12.342c0 .05.232.136.698.26.464.12.868.23 1.213.33.246.097.415.145.515.145.292 0 .623-.097.99-.293.367-.196.71-.44 1.03-.737.317-.292.6-.586.845-.88.245-.294.367-.565.367-.81v-11.607c0-.392-.232-.6-.698-.623-.467-.025-.87-.038-1.213-.038zm1.91-13.518l-3.012-1.543c-.734.784-1.397 1.727-1.985 2.83-.588 1.102-1.102 2.192-1.543 3.268h-6.537c-.39 0-.65-.294-.77-.88-.123-.588-.185-1.128-.185-1.618v-.735c0-2.548.917-4.58 2.755-6.098 1.835-1.52 4.665-2.278 8.486-2.278 1.712 0 3.218.21 4.516.625 1.297.415 2.51.894 3.638 1.433.538.245.978.45 1.323.623.343.17.623.355.845.55.22.198.414.406.587.625.17.223.33.503.478.846l-.15 33.576-1.026 1.688h-16.825c-.832 0-1.53-.158-2.094-.476-.563-.32-1.028-.698-1.395-1.14-.368-.44-.637-.93-.807-1.468-.173-.54-.257-1.03-.257-1.47v-14.768c0-.784.34-1.468 1.027-2.057.684-.585 1.542-1.1 2.57-1.54 1.03-.443 2.155-.822 3.38-1.14 1.224-.32 2.35-.587 3.38-.81 1.028-.217 1.886-.403 2.572-.548.683-.147 1.027-.27 1.027-.37v-7.125z" fill="none" stroke="#000" stroke-width="1.53"/><path d="M79.394 148.292c4.278-2.47 9.714-2.316 14.24-4.45 4.872-2.3 9.515-5.185 13.43-8.91 2.357-2.244 4.138-4.705 5.58-7.604.99-1.985 2.618-6.96 5.618-6.56 0 0 7.536 1.005 1.005 6.03 0 0-11.052 6.026-11.053 10.047-.005 7.538 8.312-.755 10.22-2.55 6.102-5.732 6.068-13.965 9.452-21.2 3.55-7.59 9.252-8.85 17.01-8.986 5.507-.097 11.402-.523 16.524-2.717 4.104-1.76 8.622-3.05 13.114-3.012 2.573.022 7.158.336 8.315 3.017 2.683 6.22-5.634 4.367-8.43 3.355-2.586-.935-5.495-1.716-8.266-1.608-4.345.168-7.352 3.962-10.64 6.286-3.178 2.248-7.117 3.333-10.992 2.762-3.086-.453-7.12-3.768-10.157-2.215-4.176 2.136-2.18 7.814 1.33 9.247 4.95 2.015 8.667-4.886 13.225-2.945 2.402 1.023 3.67 4.652 1.826 6.468-2.064 2.038-7.108 1.575-9.495.86 0 0-8.036-1.608-11.544 3.946-1.67 2.783-3.745 5.437-6.055 7.71-1.422 1.403-3.35 3.36-5.024 4.356-6.18 3.676-13.022 6.284-20.055 7.766-3.092.652-6.237 1.083-9.393 1.296-1.962.132-8.377-1.203-9.783-.39" fill="#88c936"/><path d="M79.394 148.292c4.278-2.47 9.714-2.316 14.24-4.45 4.872-2.3 9.515-5.185 13.43-8.91 2.357-2.244 4.138-4.705 5.58-7.604.99-1.985 2.618-6.96 5.618-6.56 0 0 7.536 1.005 1.005 6.03 0 0-11.052 6.026-11.053 10.047-.005 7.538 8.312-.755 10.22-2.55 6.102-5.732 6.068-13.965 9.452-21.2 3.55-7.59 9.252-8.85 17.01-8.986 5.507-.097 11.402-.523 16.524-2.717 4.104-1.76 8.622-3.05 13.114-3.012 2.573.022 7.158.336 8.315 3.017 2.683 6.22-5.634 4.367-8.43 3.355-2.586-.935-5.495-1.716-8.266-1.608-4.345.168-7.352 3.962-10.64 6.286-3.178 2.248-7.117 3.333-10.992 2.762-3.086-.453-7.12-3.768-10.157-2.215-4.176 2.136-2.18 7.814 1.33 9.247 4.95 2.015 8.667-4.886 13.225-2.945 2.402 1.023 3.67 4.652 1.826 6.468-2.064 2.038-7.108 1.575-9.495.86 0 0-8.036-1.608-11.544 3.946-1.67 2.783-3.745 5.437-6.055 7.71-1.422 1.403-3.35 3.36-5.024 4.356-6.18 3.676-13.022 6.284-20.055 7.766-3.092.652-6.237 1.083-9.393 1.296-1.962.132-8.377-1.203-9.783-.39z" fill="none" stroke="#106224" stroke-width="1.53"/></svg>