<svg xmlns="http://www.w3.org/2000/svg" width="400" height="203.522"><path d="M8.464 150.79c-5.07 0-8.464 4.698-8.464 10.5 0 5.8 3.393 10.436 8.464 10.436 1.976 0 3.55-.58 4.794-1.548l1.425 1.214h1.154V161.29h-7.07v3.367h2.003v2.154c-.422.214-.907.334-1.456.334-2.55 0-3.974-2.727-3.974-5.855 0-3.165 1.423-5.857 3.974-5.857 1.728 0 2.943 1.067 4.066 2.245l2.427-2.67c-1.428-2.097-3.823-4.217-7.343-4.217zm47.452 0c-4.224 0-7.767 3.088-7.767 8.8v11.802h5.43v-6.402h4.703v6.402h5.4V159.59c0-5.712-3.547-8.8-7.767-8.8zm23.634 0c-4.68 0-7.797 4.698-7.797 10.5 0 5.8 3.117 10.436 7.797 10.436 3.28 0 5.333-1.817 6.645-4.582l-2.61-2.336c-1.007 1.4-1.94 2.336-3.155 2.336-2.156 0-3.337-2.727-3.337-5.855 0-3.16 1.18-5.857 3.337-5.857 1.215 0 2.642 1.18 3.428 2.276l2.337-2.337c-1.216-2.434-3.366-4.582-6.645-4.582zm20.813 0c-4.22 0-7.736 3.088-7.736 8.8v11.802h5.4v-6.402h4.703v6.402h5.43V159.59c0-5.712-3.57-8.8-7.797-8.8zm82.16 0c-4.86 0-8.1 4.75-8.1 10.5 0 5.734 3.24 10.436 8.1 10.436 4.864 0 8.1-4.702 8.1-10.437 0-5.75-3.236-10.5-8.1-10.5zm113.047 0c-4.223 0-7.737 3.088-7.737 8.8v11.802h5.4v-6.402h4.703v6.402h5.43V159.59c0-5.712-3.576-8.8-7.796-8.8zm56.947 0c-3.644 0-7.068 2.577-7.068 6.04 0 6.592 8.31 6.188 8.31 8.89 0 1-1.03 1.637-1.667 1.637-1.12 0-3.028-.277-5.734-2.397l-.67 4.035c1.824 1.79 4.097 2.73 6.252 2.73 3.59 0 7.22-2.393 7.22-6.31 0-6.443-8.374-6.098-8.374-8.768 0-.672.79-1.456 1.67-1.456.938 0 2.272.03 4.52 1.973l1.79-3.368c-1.79-1.886-4.07-3.004-6.25-3.004zm38.988 0c-4.223 0-7.767 3.088-7.767 8.8v11.802h5.43v-6.402h4.703v6.402h5.402V159.59c0-5.712-3.547-8.8-7.767-8.8zm-367.264.335v11.833c0 5.706 3.517 8.768 7.738 8.768 4.223 0 7.797-3.062 7.797-8.768v-11.833h-5.4v12.985c0 2.192-1 3.368-2.397 3.368-1.37 0-2.336-1.176-2.336-3.368v-12.985h-5.4zm92.295 0v20.267h11.135v-3.7h-5.735v-16.567h-5.4zm17.142 0v3.398h3.368v13.5h-3.368v3.37h12.166v-3.37h-3.367v-13.5h3.367v-3.398h-12.166zm18.507 0v3.762h5.43v16.505h5.402v-16.505h5.37v-3.762h-16.202zm60.285 0v20.267h6.735c5.038 0 9.102-4.52 9.102-10.103 0-5.622-4.064-10.165-9.102-10.165h-6.736zm23.907 0v20.267h12.136v-3.7h-6.735v-5.402h6.735v-3.7h-6.735v-3.733h6.735v-3.732h-12.136zm34.314 0v20.267h11.106v-3.7h-5.705v-16.567h-5.4zm54.826 0v3.398h3.367v13.5h-3.367v3.37h12.166v-3.37h-3.4v-13.5h3.4v-3.398h-12.166zm41.08 0v20.267h11.134v-3.7h-5.704v-16.567h-5.43zm-148.726 3.732h.697c2.22 0 4.006 2.904 4.006 6.432 0 3.494-1.786 6.34-4.006 6.34h-.697v-12.773zm-35.346.06c1.46 0 2.67 2.847 2.67 6.372 0 3.486-1.21 6.34-2.67 6.34-1.425 0-2.64-2.854-2.64-6.34 0-3.526 1.214-6.372 2.64-6.372zm-126.608.153c1.395 0 2.367 1.176 2.367 3.367v2.852H53.58v-2.853c0-2.19.966-3.367 2.336-3.367zm44.447 0c1.4 0 2.367 1.176 2.367 3.367v2.852h-4.703v-2.853c0-2.19.964-3.367 2.336-3.367zm195.207 0c1.397 0 2.366 1.176 2.366 3.367v2.852h-4.702v-2.853c0-2.19.967-3.367 2.336-3.367zm95.935 0c1.392 0 2.366 1.176 2.366 3.367v2.852h-4.702v-2.853c0-2.19.968-3.367 2.337-3.367z" fill="#43412a"/><path d="M132.625 1.705H264.16v123.02H132.625z" fill="#97b9d2"/><path d="M132.625 90.373H264.16v34.35H132.625z" fill="#a3d9c1"/><path d="M262.007 31.173c-1.343 1.494-1.723 3.948-3.238 5.27-.078 2.753-1.856 3.807-2.024 6.472-1.048 1.382-2.32 2.545-2.434 4.856-.54.41-.79 1.098-1.618 1.218.852 4.638-3.47 6.234-2.427 9.716.72-3.054 2.885-4.668 2.833-8.5 1.264-1.168 2.15-2.71 2.43-4.858 1.745-.952 1.463-3.94 3.24-4.86-.29-1.5.69-1.736.4-3.24 1.872-1.906 2.384-5.175 4.05-7.288-.192-1.42-.464-1.33 0-2.43.513-.377.96-.82 1.386-1.283v-1.273c-.84 1.016-1.772 1.937-2.6 2.963v3.238zM244.193 10.526c-.078 1.94-.7 3.854-.812 5.67-.047.744.43 1.493.408 2.43-.267 12.45-1.565 25.286-.81 38.056.37-.995-.097-2.013 0-3.243.078-1.016.76-2.236.81-3.236.107-2.062-1.16-4.51.405-6.478-1.2-1.782-.135-5.083 0-8.1.185-4.228-.43-8.512.807-10.927-1.3-2.185-.377-4.356-.407-6.482 0-.93-.438-1.998-.4-2.835.087-2.034.705-4.025.807-6.074.048-.932-.395-1.454-.407-2.43-.01-1.544.234-3.262.47-4.958h-.903c-.078 1.528-.39 3.04-.372 4.554.01 1.34.455 2.642.405 4.05M249.86 4.86c-1.42 2.283-.896 5.086-1.212 8.094-.127 1.204-.618 2.365-.81 3.645-.684 4.566-.295 9.227-.814 13.76-.145 1.27-.677 2.726-.81 4.052-.147 1.484.116 3.052 0 4.452-.248 3.07-.95 5.985-1.21 8.91-.27 3-.16 6.177-1.215 8.906 1.01.163 1.086-1.558 1.213-2.027.484-1.77.308-3.42.402-4.856.06-.77.702-2.235.81-3.643.1-1.262-.158-2.39 0-3.647.152-1.17.7-2.418.81-3.643.14-1.55-.146-3.194 0-4.857.22-2.51.92-4.686.407-7.287 1.232-2.978.766-7.104 1.216-10.933.486-4.197.96-8.583 2.023-11.334-.253-.74-.413-1.56-.438-2.53h-.83c.02 1.114.64 1.623.458 2.937M251.887 3.644c.107 2.59-.087 5.518-.41 8.094-.206 1.678-1.257 5.11-1.21 6.478.01.525.487.553.405 1.215-.01.102-.773 1.042-.81 1.22-.574 2.553.154 4.276-.813 6.068 1.755-.473.933-3.314 1.218-4.857.163-.92.695-1.615.807-2.43.272-2.028 0-4.067.402-6.07.163-.784.69-1.573.81-2.43.165-1.15.277-2.305.41-3.64.108-1.142.41-2.68.402-2.837-.02-.214-.54-.2-.403-.81.135-.628.406-1.18.664-1.72h-.593c-.19.675-.262 1.474-.88 1.72M232.043 8.5c.524 3.36.728 6.846 1.217 10.524.295 2.21 1.107 5.162.806 6.48-.124.59.403 1.05.408 1.215.165 3.885.79 6.22 1.22 9.31.15 1.084.256 2.08.402 3.238.104.817-.16 1.965.81 2.433-.03-2.22-.487-4.367-.81-6.477-.336-2.192-.98-4.37-1.215-6.483-.18-1.617.152-3.243 0-4.854-.128-1.398-.61-2.943-.814-4.455-.23-1.727-.205-3.49-.404-5.26-.145-1.355-.598-2.727-.807-4.048-.288-1.835-.102-3.66-.402-5.266-.198-1.04-.583-1.988-.94-2.935h-.57c.262.854.543 1.712.7 2.53.23 1.248.187 2.66.4 4.05M234.883 8.5c.183 1.6 1.04 3.24 1.21 4.858.104.96-.44 1.962-.403 2.838.04 1.066.687 2.265.805 3.235.315 2.455-.15 4.98.814 7.29-.676 2.066-.836 5.033-.406 8.098.125.89.723 1.874.815 2.833.15 1.702-.233 3.37 0 4.86.136.927.782 1.64.806 2.43.292 1.233-.416 1.475-.408 2.43 1.45 2.46.507 7.323 2.024 9.716-.077-4.844-1.33-9.68-1.616-14.576-.078-1.333.132-2.36 0-3.645-.322-3.04-1.284-6.19-1.217-9.31.028-1.314.41-2.41.41-3.64-.03-4.305-1.722-8.698-.816-12.962-1.63-2.627-.833-5.814-1.214-9.31-.068-.59-.178-1.16-.324-1.722h-.662c.068.3.138.604.18.912.23 1.88-.238 3.704 0 5.67M247.025 9.31c.03-1.576.298-2.912.405-4.45.068-.964.175-1.952.262-2.94h-.967c-.078 2.51-.03 5.025.3 7.39M254.312 12.953c0 .036.484.35.405.81-.415 2.637-1.054 5.24-1.617 7.287-.203.74-.147 1.317-.4 2.027-.267.715-.638 1.31-.814 2.023-.407 1.642-.443 3.64-.812 5.264-.17.756-.656 1.74-.81 2.43-.638 2.88-1.035 5.222-1.615 7.688-.376 1.594-.04 3.768-1.625 4.862 1.193 3.632-2.28 8.242-1.212 11.74.48-2.816 1.364-5.57 2.026-8.505.348-1.543.028-2.427.404-3.236.173-.38.23-.514.405-1.217 1.093-4.444 1.762-8.807 2.83-13.356.668-2.844 1.19-5.89 2.43-8.503-.356-2.65.746-3.838 1.217-5.668-.078-2.745.37-4.32.804-6.075.637-2.54 1.167-5.758 1.67-8.6h-.867c-.1 2.527-.67 5.01-1.204 7.383-.337 1.51-1.06 2.686-1.218 3.645M257.957 8.903c-.237 1.245.18 2.752 0 4.05-.374 2.72-2.494 5.272-1.617 8.097-1.847 2.457-1.334 5.682-2.028 8.502-.25 1.026-.92 1.82-1.212 2.836-.705 2.423-1.013 4.846-1.62 6.88-.338 1.117-.933 2.11-1.213 3.243-.33 1.317-.11 2.745-.404 4.048-.237 1.028-.942 2.143-1.22 3.24-.155.632.115 1.38 0 2.024-.318 1.807-1.576 3.66-1.616 5.666 1.183-.04 1.012-1.662 1.214-2.423.538-2.036.675-4.04 1.215-6.08.04-.134.745-.607.812-.808.19-.614-.15-1.392 0-2.02 1.344-5.67 3.166-12.632 4.857-17.412v-3.243c2.25-3.146 1.646-9.143 3.644-12.55-.48-1.2.26-2.748 0-4.855.658-.965.91-2.332 1.615-3.243v-2.93h-.606c-.143.96-.224 1.922-.204 2.93-.8 1.168-1.326 2.548-1.616 4.05M261.2 8.903c.803 5.804-2.58 7.41-2.027 12.96-1.706 2.153-2.183 4.823-2.833 7.69-.24 1.06-1.3 1.98-.407 2.835.87-2.785 1.534-5.537 2.43-7.69.31-.748.99-1.68 1.218-2.43.428-1.475-.077-3.28.405-4.86.354-1.186 1.35-1.978 1.62-3.238.363-1.723.038-3.67.4-5.67 1.197-1.495 2.203-4.298 2.145-6.576h-.69c-.03.98.02 1.965-.242 2.93-.392 1.468-1.484 2.644-2.018 4.05M262.82 23.885c.154-1.766.964-3.362 1.783-4.946v-1.477c-1.166 1.94-2.34 4.325-1.784 6.422M228.4 10.12c.23 1.06.937 2.023 1.213 3.24.463 1.952.438 4.294.812 5.666 1.356 4.923 2.296 10.635 3.24 14.982.47 2.154.903 3.666 1.214 5.67.183 1.185.157 2.466.404 3.642.463 2.166 1.26 4.202 1.62 6.48.462 2.89 0 5.985 1.62 7.687-1.018-3.225-.613-6.852-1.214-10.12-.354-1.907-1.276-3.84-1.624-5.666-.41-2.206-.425-4.3-.807-6.477-.3-1.71-.848-3.592-1.215-5.264-.478-2.193-.76-4.354-1.21-6.477-.406-1.88-1.208-3.8-1.625-5.67-.507-2.256-.703-4.318-1.217-6.48-.25-1.06-.612-1.745-.802-2.832-.193-1.033-.24-2.21-.41-3.237-.16-.99-.69-1.955-.805-2.836-.03-.17-.04-.336-.05-.504h-.432c.02.166.04.33.068.504.392 2.63.67 5.165 1.21 7.693M237.31 4.045c.283 1.975 1.052 4.052 1.215 6.073.506 6.36-.392 12.885 1.213 19.435-1.02 2.812-.676 6.623 0 9.713-.077-3.164.47-6.427.405-9.713-.02-1.174-.738-2.454-.81-3.643-.03-.412.405-.478.405-.812 0-3.64-1.02-9.34-.81-13.358.11-2.164-.06-2.994-.403-4.857-.192-1.033-.253-2.212-.408-3.243-.078-.57-.193-1.145-.313-1.718h-.47c-.05.69-.128 1.387-.02 2.123M240.955 9.31c0 1.3.02 2.632 0 4.05-.02 1.283-.422 3.446-.405 3.645.04.697.667 1.054.807 1.62.662 2.674-.352 5.036-.402 7.286-.102 4.033.455 8.078.402 12.15-.01.856-.313 1.945-.402 2.834-.354 3.45-.247 8.88 0 12.546.11 1.662-.723 3.844.807 4.05-.46-2.782-.02-6.017 0-8.904.01-.79-.423-1.3-.405-2.024.02-.636.425-1.395.405-2.03-.02-.905-.46-1.605-.405-2.427.087-1.288.766-2.677.81-4.044.038-1.015-.372-2.168-.405-3.24-.03-1.074.4-2.1.404-3.24.01-5.272-.55-11.96-.404-17.816.068-2.715-.107-7.74-.135-11.843h-.655c0 .17-.02.337-.02.512-.02 2.294-.01 4.495 0 6.878M261.6 17.407c-.266 2.46-.217 1.876-.4 4.86-.566 1.46-1.785 2.267-2.027 4.046 1.044.135 1.227-1.35 1.617-2.026.493-.83.98-1.4 1.216-2.426.336-1.455-.254-3.308.405-4.853 1.092-1.036 1.508-2.74 2.192-4.177V8.717c-.058.058-.103.127-.165.185.19 3.974-1.685 5.878-2.836 8.505M264.032 72.875c-2.055.385-4.59-.364-4.86 1.217 1.802-.555 3.663-.782 5.435-1.054v-.277c-.194.04-.387.082-.575.115M263.222 74.497c-.56.063-1.322.326-2.022.4-.485.053-2.2-.588-2.026.81 1.79-.19 3.626-.342 5.43-.494v-.985c-.48.097-.962.216-1.382.27M138.52 65.182c-1.07 0-2.31-.15-2.835.407-.575-.615-2.63-1.81-2.833-.408 2.098.056 4.08 1.715 5.67 0M221.114 72.875c-1.822-.387-3.382-.148-5.26-.407-.67-.087-1.34-.672-2.027-.805-.94-.18-1.77.135-2.836 0-1.79-.234-3.454-1.145-4.854-1.214-.898-.05-1.776.23-2.433.402-1.018-1.138-3-1.322-5.26-1.22-2.455-1.056-6.743-2.425-9.312-2.018 3.656 1.288 6.255 1.143 9.312 2.835 1.827-.62 3.48.575 5.26.804 4.33.562 8.83.178 12.15 2.03.174-.91 1.996-.167 2.834-.41.38 1.236 2.522.72 4.045.81.42-1.26-1.16-.712-1.616-.81M258.362 79.354c.48.193.918.43 1.214.806 1.746.135 3.38-.147 5.03-.015v-.64c-2.14-.223-4.234-.322-6.244-.152M258.362 81.784c1.786.288 4.25 1.263 6.243 1.742v-.63c-2.235-.434-4.14-1.705-6.243-1.112M256.745 85.832c2.665 1.01 5.26 2.087 7.86 3.16v-1.147c-3.07-.2-5.56-2.542-7.86-2.013M264.836 91.094c-.068-.046-.152-.08-.234-.127v.466c.098-.046.178-.153.234-.34" fill="#43412a"/><path d="M257.15 88.26c1.923 1.003 4.183 1.3 5.26 2.836.968-.468 1.742.593 2.194.34v-.47c-2.685-1.507-5.73-2.662-8.67-3.92-.33.78.815 1.008 1.215 1.214M259.577 66.8c-.542.306-1.817.71-1.616 1.627 2.068-1.367 4.613-2.245 6.644-3.648v-.556c-.376.166-.715.34-.98.555-1.22.997-2.794 1.32-4.047 2.02M258.362 69.635c1.08.05 1.82-.758 2.836-1.212.997-.453 2.268-.763 3.237-1.214.06-.03.112-.065.17-.092v-.667c-.643.21-1.356.345-2.194.35-.928 1.364-2.944 1.654-4.048 2.836M261.6 69.23c-.736 1.022-2.505 1.007-3.24 2.023 2.185-.624 4.18-1.443 6.242-2.19v-.475c-.185.08-.373.163-.572.242-1.054.73-1.225-.184-2.43.4M262.82 63.157c-.19.148-.227.64-.408.812-1.46 1.353-3.747 1.198-4.857 2.835 1.558-.06 1.866-1.37 3.645-1.217.965-1.08 2.154-1.947 3.403-2.747v-.56c-.208.172-.392.337-.572.47-.353.264-.896.163-1.21.407M258.77 77.328c1.8.054 3.792.214 5.836.35v-.668c-2.217-.045-4.284-.023-5.837.318M198.442 68.017c-.422-1.21-1.764-.868-2.836-1.212-4.88-1.583-10.406-2.815-14.98-4.457h-2.83c-.812-.43-2.835-1.723-3.647-.81 4.234 1.706 10.07 1.805 13.77 4.05h3.235c1.644 1.59 5.292 1.187 7.287 2.43M131.233 73.28v.41c.173.075.347.13.522.195v-.54c-.175-.017-.35-.036-.522-.064M150.667 48.18h-2.835c-2.958-1.363-6.906-1.732-9.314-3.646-1.952 1.03-3.747-.2-5.264-.807-.176 1.527 2.115.58 2.43 1.616 1.144.428 2.78-.667 2.834 0 1.337.153 2.026.947 2.836 1.62 2.326.103 4.16.7 5.67 1.623h3.237c1.48 0 1.817 1.145 2.836 1.616 1.39.122 2.937.082 4.01.522-.018-.173-.028-.366-.038-.573-2.527-.266-4.843-.74-6.403-1.97M161.21 47.815c-.54-.122-1.103-.224-1.635-.445-2.1-.878-4.223-2.35-7.695-2.433-.672-.672-1.947-.75-2.428-1.617-4.068.29-5.206-2.347-9.31-2.03-1.873-1.763-5.563-1.717-7.696-3.23.338 1.552 2.357 1.513 3.645 2.02 2.093.82 3.967 2.026 7.29 2.03 1.613.813 2.92 1.936 5.672 1.615 2.85 2.408 8.108 2.416 11.333 4.454-.087.035-.16.084-.243.122.49-.026.912-.125 1.067-.487M156.993 54.053c-.906-.18-1.9-1-3.088-.206-1.33-.158-1.784-1.18-2.836-1.62-4.01.64-4.893-1.854-8.902-1.218-2.16-1.488-6.435-.854-8.504-2.43-.068 1.28 1.636.792 2.024 1.622h3.24c.535.675 1.805.63 2.426 1.217h3.24c1.792.498 2.938 1.648 5.666 1.21 1.19.3 1.996.983 2.836 1.622 1.652.053 2.235-.685 3.543-.05.19-.01.296-.05.353-.15M151.918 56.596c-2.34-.478-5.445-.185-6.514-1.942-4.653-.343-8.88-1.107-12.953-2.02.146 1.544 3.46.826 4.45 2.02 1.278.2 1.43-.728 2.835-.4 2.088 1.28 6.005.74 7.696 2.426h4.047v.064c.247-.01.377-.04.443-.147M149.584 64.696c-1.09.448-3.13-.033-3.373-.728-1.043-.1-1.944.14-2.827 0-.848-.135-1.367-.713-2.028-.815-1.166-.168-2.078.19-3.238 0-1.85-.28-3.7-1.37-6.074-.804.51 1.704 2.19.144 3.643.404.54.68 1.802.626 2.43 1.214 2.83-1.21 4.554 1.527 7.288.407 1.27-.193 1.07 1.087 2.027 1.214.247-.232 1.917-.95 2.02 0-.04.162-.088.305-.146.437h1.008c0-.51-.306-1.008-.728-1.33M148.298 66.914c-1.237.305-3.113-.746-4.513-.922-1.833-.23-3.536.3-4.86-.404.448 1.476 3.07 1.412 4.455.814.75.227 1.713.583 2.835.805.813.162 2.284-.52 2.42.496.372-.384.04-.59-.337-.79M148.642 68.58c-.176.34-.85-.15-.81-.153-.664.1-.91.464-1.618.4-1.04-.087-1.828-.68-2.833-.807-3.342-.428-7.437-.395-10.53-.812 2.853 1.275 6.59 1.27 10.126 1.22 1.46.9 2.986.88 4.957 1.12.457-.268 1.177-.47.71-.968M146.215 70.448c-1.26.037-1.935-.5-2.836-.81-3.078.962-6.273-.863-10.124-.41.148 1.314 1.492.27 2.43.41.99.148 1.752.715 2.832.81 1.527.127 3.387-.148 4.86 0 .897.086 1.633.66 2.432.806.278.057.723-.078 1.125-.157v-.01h.04c.224-.05.425-.074.582-.04.16-.057.207-.18.22-.46-.688.215-1.518.177-1.564-.14" fill="#43412a"/><path d="M146.94 71.097c.01 0 .028-.01.038-.01h-.04v.01M146.8 71.682c-4.573.086-10.16-.222-14.76-.428.626.725 2.433.275 2.836 1.22 3.866-1.296 6.33.366 10.93 0-.02.073-.048.132-.077.203.463-.166.868-.545 1.066-.995M140.545 72.875c-2.362.667-5.7.89-8.792.47v.538c3.398 1.17 7.942-.67 11.81.163.037-.09.086-.173.13-.255-1.004-.1-2.18-.587-3.148-.915M211.4 76.114c2.62-1.527 6.477.153 10.93 0-3.61-1.135-7.43-.9-10.93-1.214-1.887-.166-3.496-.698-5.262-.807-.147-.013-1.608.033-2.436 0-1.624-.077-2.352.47-4.044 0-.932-.265-3.197-.563-4.86-.815.33 1.357 1.922.642 2.834.815 1.015.186 1.872.682 2.837.807 3.43.445 7.328-.288 10.523.407-.38.137-.788.247-1.202.35.467.317.978.43 1.663.467-.02 0-.03-.01-.058-.01" fill="#43412a"/><path d="M257.957 90.688c-1.02-.323-2.15-1.074-3.24-1.21-1.378-.177-2.693.444-4.048.4-1.008-.03-1.945-.51-3.238-.812-.953-.216-2.656-.178-3.24-.397-1.892-.726-3.445-2.54-4.858-3.648-3.8.22-6.2-.942-10.523-2.03-.69-.925-1.617-1.62-2.43-2.425-3.314-.328-5.426-1.866-8.91-2.023-2.047-.764-3.51-2.11-6.013-2.416-.685-.046-1.2-.158-1.665-.468-2.082.504-4.48.692-5.68 2.074-2.94-.842-5.227-2.334-8.908-2.428-1.794-1.316-3.47-2.736-5.666-3.64-.893-2.49-2.128-4.63-4.05-6.08-3.15.31-4.464-1.21-7.69-.81-3.542-2.126-5.462-5.886-9.32-7.69-1.38-3.34-4.59-4.852-6.074-8.1.19.18.42.313.682.415-.21-.452-.92-.908-1.092-1.363-.255-.095-.514-.16-.784-.224-.163.36-.577.463-1.074.488-1 .498-1.88 1.11-2.586 1.903-.163-.016-.32-.033-.477-.05 0 .203.02.4.03.575.93.386 1.498 1.142 1.25 2.713-.434.625-.887.71-1.37.617-.05.094-.16.14-.347.15.03.02.068.028.102.046-.82 1.476-3.572 1.02-4.457 2.43-.114-.032-.244-.056-.366-.09-.068.11-.193.147-.448.152-.038 1.272-.65 1.962-.4 3.512.375.145.515.306-.185.542.16.14.152.274-.215.333 0 .448-.132.682-.344.794.118.78 1.256 2.082-.203 2.355-.124.185-.316.318-.54.412.423.323.73.825.73 1.33h-1.01c-.224.526-.58.788-1 .892.377.194.705.4.336.787.01.09.02.19 0 .315.068.285.06.458 0 .563.472.497-.248.7-.71.96.233.03.467.06.71.097.102.464-.337.787-.862.952-.018.28-.057.404-.218.458.23.04.36.203.27.618-.328.01-.682.016-1.028.016-.2.455-.603.83-1.067.995-.35.977-1.13 1.204-2.04 1.117-.048.077-.087.166-.13.252.076.018.143.03.215.046-.11.097-.24.176-.376.252-.138.23-.294.366-.517.242-2.412.906-6.66-.03-9.63.313 1.98.658 4.744 1.037 6.877.406-.575.9-2.187.77-2.826 1.62-1.882.195-3.875-1.218-4.86.4.708.202 2.24-.65 4.053 0-.58 2.39-.976 4.97-4.053 4.863.242 3.535-.497 8.055.405 10.932 13.04.06 28.137-.46 43.322-.81 3.95-.09 7.866-.606 11.738-.812.7-.036 1.346.42 2.026.405.86-.018 4.06-.792 5.674-.807 1.796-.025 4.264.78 7.693.402.423-.05 1.24.186 1.62 0 .048-.028.406-.812.4-.812.836-.045 2.412.38 4.05.41 2.836.046 5.224.03 7.69 0 1.266-.023 2.813-.038 4.048 0 5.577.148 11.12.16 16.606.402 3.526.155 6.447.868 11.333.812.678-.01 1.212-.425 2.026-.407 2.774.066 7.127.34 10.528 0-.807-1.036-2.3-.782-3.648-1.217" fill="#43412a"/><path d="M143.4 74.345c-.157.09-.33.173-.515.242.223.127.38-.016.516-.242M150.327 61.93c-.583.315-1.747-.36-2.09-.388-1.02-.09-2.095-.315-2.834-.407.03.01-3 .354-4.454-.812-.965.247-2.938-.504-3.24.407-1.55-.473-2.537-1.514-4.855-1.217 2.665 2.508 7.575.268 10.525 2.43 2.584.25 6.203-.536 6.88 1.62.04.298-.02.532-.14.723 1.462-.277.324-1.578.207-2.357M151.066 60.26v.063c-1.9-.66-4.865-.262-6.068-1.62h-4.458c-1.568.22-1.667-1.027-2.836-1.213-1.957.074-3.456-.318-4.86-.812-.174 2.072 2.87.916 4.456 1.214.66.833 1.95 1.024 2.835 1.622 1.568.216 1.973-.718 3.643-.402 1.362-.013 2.144.557 2.836 1.21h2.833c.346-.037 1.158.23 1.435.477.7-.233.558-.398.18-.54M168.074 51.01c1.53-.31 1.94.5 3.246.407.438.91 1.982.713 2.423 1.616 4.668.33 6.95 3.047 11.747 3.246.375 1.233 2.243.987 2.828 2.02 3.762.288 6.557 1.543 8.907 3.24 1.565-.08 2.985-.015 4.05.4 2.496 1.555 6.042 2.06 8.506 3.645 1.304-.084 1.71.723 3.236.41.667.954 2.09 1.148 2.836 2.023 3.213.02 4.68 1.798 7.692 2.022-1.978-1.26-4.225-2.253-7.287-2.43-.995-.62-2.07-1.165-2.833-2.025-3.908.132-5.277-2.276-8.91-2.428-.845-.904-2.26-1.25-3.24-2.027h-3.644c-2.57-1.88-5.705-3.197-9.712-3.64-.322-.893-1.906-.526-2.028-1.62-2.858.045-5.363-1.625-7.692-2.427-2.587-.896-5.227-1.173-7.286-2.838h-2.026c-1.254-.094-1.573-1.125-2.43-1.616h-3.236c-.318-.508-.743-.775-1.224-.958.17.458.886.914 1.09 1.37 1.573.628 4.288.114 4.988 1.608M255.53 63.97c.932.498.723-.8 1.208-1.217.418-.344 1.164-.395 1.625-.807 1.817-1.63 3.26-3.404 4.856-4.86.343-.308.977-.445 1.386-.65V55.27c-1.298 1.14-2.894 2.64-3.817 3.43-1.888 1.645-3.97 3.136-5.26 5.27M261.6 53.44c-1.124.23-1.304 1.396-2.427 1.623-.672 3.38-5.918 4.332-5.26 7.695.8-1.66 2.086-2.757 3.236-4.055 1.116-1.26 2.548-2.365 3.237-4.05.764.094.888-.456 1.62-.402.486-1.898 1.422-3.34 2.595-4.55v-.792c-.277.21-.582.387-.977.48-.473 1.554-1.482 2.574-2.024 4.053" fill="#43412a"/><path d="M262.007 46.963c-.723 3.192-2.614 5.215-4.856 6.88-.322 3.462-4.88 4.836-4.05 8.102.363-1.03.994-1.932 1.62-2.835.677-.98.92-2.355 2.43-2.43-.267-1.483.877-1.552.808-2.837 2.494-1.413 3.817-4.012 4.856-6.88 1.494.023.62-.738 1.792-1.362v-.928c-1.018.613-1.486 1.77-2.6 2.29" fill="#43412a"/><path d="M259.174 48.18c-1.303-.36-.844 1.045-1.62 1.21-.624 2.48-2.544 6.44-4.86 8.505.516 1.36-1.58 2.14-.402 2.835.358-.858 1.232-1.2 1.213-2.428 1.072-.275.454-2.248 2.025-2.026.284-2.95 2.387-4.088 2.833-6.886 2.596-2.543 4.115-6.116 6.072-9.308.06-.095.113-.19.17-.285v-1.464c-.918 1.26-1.38 2.843-2.193 4.177-1.11 1.825-2.907 3.33-3.238 5.67M263.222 53.44c-.736.84-1.194 1.99-2.022 2.84-.304.302-.862.127-1.22.4-.13.106.123.686 0 .81-.533.533-1.253.335-1.617.808-.22.288-.148.95-.405 1.212-1.036 1.094-2.494 1.865-3.233 3.248 3.368-1.624 4.73-5.257 8.095-6.886.152-1.33 1.183-1.787 1.616-2.838.06-.038.112-.08.168-.127v-.845c-.494.45-.962.906-1.382 1.38M262.82 60.326c-1.162.898-2.562 1.624-4.05 2.02-.17 1.86-2.12 1.938-2.837 3.24 2.984-.925 4.02-3.81 7.288-4.45.45-.604.913-1.19 1.383-1.765v-1.01c-.544.72-1.092 1.42-1.784 1.966M173.744 7.69c1.372 1.325 3.073 2.333 4.053 4.048 1.486.395 2.08 1.696 2.83 2.836 4.15 1.652 5.378 6.23 9.31 8.094.477 1.276 1.262 2.253 2.028 3.246 1.257.36 1.886 1.35 3.24 1.614 1.19 4.075 5.96 4.564 6.877 8.91 1.09.533 2.16 1.083 3.244 1.618.582 2.265 2.646 3.362 4.04 4.86 1.46 1.546 2.36 3.56 4.46 4.453.176.77.874 1.017.81 2.025 1.006-.07 1.256.632 2.024.81 1.787 2.797 4.088 5.088 6.883 6.88.562 1.874 1.85 3.016 3.238 4.05.125.36 1.1 1.772 1.213.81-1.587-1.375-3.17-2.768-4.045-4.86-2.43-2.02-5.292-3.617-6.474-6.88-1.03-.453-1.98-.998-2.838-1.62-.392-1.99-2.46-2.776-3.642-4.05-.303-.33-.137-.83-.405-1.216-.874-1.253-2.414-1.762-3.24-2.834-.362-.855-1.233-1.2-1.213-2.43-1.47-.423-2.438-1.347-3.644-2.022-.358-1.267-1.1-2.138-1.625-3.242-3.732-1.795-5.086-5.982-8.903-7.69-1.76-3.778-6.084-4.987-7.696-8.91-2.907-.867-3.824-3.728-6.473-4.853-1.057-2.727-4.208-3.36-5.267-6.08-1.046-.433-1.507-1.46-2.835-1.62 0-.87-.553-1.2-.914-1.714h-.51c.36.82 1.078 1.288 1.425 2.12 1.794.764 2.748 2.385 4.05 3.645M224.356 4.045c.76 2.278.736 4.388 1.21 6.48.274 1.202.862 2.332 1.216 3.643.37 1.38.4 3.04.812 4.452.38 1.324.896 2.286 1.214 3.648.323 1.4.402 3.067.807 4.45.435 1.475 1.642 2.924 2.028 4.456.446 1.787.474 3.72.81 5.664.713 4.174 1.54 8.16 2.83 11.742.05-3.17-1.38-5.944-2.026-8.907-.628-2.957-.463-6.002-1.214-8.906-.417-1.634-1.586-3.182-2.02-4.857-.24-.91.167-1.9 0-2.835-.187-1.014-.902-2.177-1.215-3.238-.14-.476-.675-1.06-.812-1.617-.178-.756.21-1.69 0-2.436-.31-1.09-.91-2.074-1.214-3.237-.334-1.26-.502-2.676-.813-4.045-.48-2.166-1.283-4.39-1.84-6.58h-.688c.03.165.058.34.102.504.137.568.623 1.067.812 1.62M255.205 1.924h-.615c.02.432.17.863.54 1.316 0-.466.028-.896.076-1.316M264.032 34.007c-1.94 1.97-3.26 4.57-4.048 7.695-2.168 1.474-3.342 3.943-3.645 7.285-1.52 2.538-3.75 4.35-4.05 8.102-.484.88-2.472 2.35-1.617 3.232 1.838-1.934 2.85-4.7 3.64-7.69 1.27-.888 1.822-2.497 2.838-3.645-.018-3.258 1.355-5.116 3.237-6.475.694-3.46 2.257-6.048 4.22-8.237v-4.42c-.058.03-.107.078-.17.103.238 1.725-.294 2.678-.405 4.05M195.205 4.86c.123.183-.097.6 0 .81.06.13.705.25.807.4.326.503.097 1.124.405 1.623.328.517.898.764 1.215 1.214.612.876 1.473 1.578 2.026 2.426.623.965.82 2.04 1.615 2.835.088 1.176.637 1.052.813 2.836 3.148 1.95 4.938 6.048 6.48 8.904.29.547.845 1.257.804 2.026 1.207.033 1.683 2.876 2.434 2.024-2.29-2.973-4.23-6.295-5.67-10.123-1.055-.963-2.557-1.49-3.24-2.83-1.318-4.08-3.62-7.18-6.072-10.124-1.047-1.656-2.103-3.318-3.16-4.958h-.765c.616.917 1.166 1.792 1.5 2.53.057.13.706.258.808.408M221.52 4.453c.617 1.81.314 3.52.803 5.26.364 1.264 1.285 2.402 1.624 3.647.286 1.038.18 2.304.41 3.24.244 1.03.888 1.88 1.21 2.83 1.07 3.17 1.615 5.69 2.428 8.91.038.16.763.995.814 1.214.134.636-.18 1.397 0 2.026.605 2.174 1.97 4.13 1.616 6.48 2.58 3.353 1.756 10.116 4.456 13.36-.25 1.252.174 2.293.403 3.24.196.778.078 2.497 1.212 2.428.208-1.433-.586-2.327-.807-3.24-.256-1.03-.256-1.772-.405-2.84-.52-1.096-1.268-1.97-1.62-3.234.288-1.17-.205-2.133-.406-3.243-.185-1.047-.122-2.27-.404-3.23-.456-1.557-1.583-2.94-2.023-4.458-.2-.678-.258-1.742-.407-2.43-.39-1.76-.782-3.214-1.215-4.858-.663-2.53-1.144-4.887-2.022-7.288-.596-1.624-1.326-2.978-2.026-4.454.516-3.332-1.614-5.95-2.43-8.91-.676-2.466-.717-4.83-1.213-6.472-.05-.166-.098-.34-.15-.507h-.97c.09.44.187.88.312 1.314.058.23.683.85.807 1.216M230.83 9.31c-.427-2.44-.844-4.933-1.28-7.39h-.5c.393 2.462.793 4.94 1.376 7.39-.088.692.455 1.005.405 0M208.565 14.575c.547 1.014.638 2.2 1.208 3.236.507.91 1.477 1.84 2.032 2.834.275.5.088.998.404 1.624.203.402 1.033.855 1.21 1.214.19.37.602 1.122.81 1.616.288.688.12 1.5.405 2.03.798 1.45 2.383 2.412 2.836 4.044.658.626-.238 1.344 0 2.026.31.88 2.11 1.395 1.623 3.24.997.48 1.58 1.387 2.023 2.43 1.064 2.57 2.968 5.583 4.048 8.095.25.583-.2 2.706 1.22 2.024-2.28-5.69-5.026-10.907-8.104-15.79.326-1.402-.603-1.554-.404-2.835-1.2-.962-1.927-2.39-2.836-3.642.295-1.243-.695-1.192-.405-2.434-3.696-4.26-5.457-10.46-8.906-14.977-.663-3.04-2.465-4.934-3.702-7.388h-.288c.865 1.713 1.612 3.543 2.772 4.96.44 3.063 2.663 5.123 4.053 7.693M200.872 4.453c-.213-.923-.67-1.743-1.186-2.53h-.42c.762 1.327 1.947 3.424 1.606 2.53M213.83 11.335c.48 3.7 2.95 5.414 3.237 9.313 2.28 2.846 3.35 6.898 4.452 10.93.9 1.16 1.725 2.243 2.428 3.645.923 1.843 1.165 4.045 2.028 6.074.83 1.962 2.722 3.51 2.424 6.073.89.833 1.497 2.052 2.026 3.235.577 1.276.508 2.862 1.62 3.648-.225-3.32-1.812-4.566-2.835-6.883-.442-1.01-.388-2.224-.81-3.24-.393-.965-1.228-1.492-1.617-2.434-.862-2.074-1.094-4.492-2.023-6.473-.754-1.613-2.238-2.835-2.836-4.457-.598-.837-.068-2.128-.405-2.83-.07-.158-.73-.204-.813-.405-.392-1.104-.392-2.66-.807-3.644-.417-.988-1.14-1.772-1.618-2.836-.512-1.117-.77-2.614-1.215-3.647-.394-.9-1.433-1.63-1.62-2.014-.156-.34.142-.88 0-1.22-.467-1.125-1.317-2.1-1.215-3.642-.672-.815-1.47-1.505-1.617-2.84-.766-1.388-.36-3.1-.81-4.448-.157-.458-.366-.896-.603-1.318h-.816c.234.43.446.865.606 1.318 1.01 2.75.786 5.857 2.838 8.095M232.958 1.924h-.44c.086 1.387.338 2.7 1.145 3.744-.283-1.163-.565-2.614-.705-3.744" fill="#43412a"/><path d="M202.492 11.74c.98.637 1.79 1.45 2.428 2.43 1.436 3.016 3.376 5.536 4.45 8.906.65.613 1.527 1.28 2.023 2.024.42.623.433 1.78.812 2.43.553.935 1.334 1.09 1.622 2.027-.327 1.4.603 1.555.402 2.828 1.526 1.043 2.68 2.45 3.643 4.052-.13.94.068 1.555.41 2.03 1.238 1.437 2.365 3.147 3.236 4.85.373.736.467 1.713.803 2.434.543 1.13 1.616 2.167 2.034 2.836.712 1.158 1.018 2.304 1.616 3.235 1.6 2.857 3.13 5.785 5.26 8.098-.637-2.362-2.424-4.088-3.64-6.07-1.093-1.78-2.172-4.956-3.236-6.076-.804-.835-1.738-2.543-2.034-3.24-.264-.64-.117-1.475-.4-2.022-.106-.206-.628-.53-.81-.812-.498-.774-.554-1.456-.806-2.02-.293-.64-1.67-.815-1.62-1.62-.07-1.148-.745-1.692-.814-2.835-1.312-.71-2.023-2.026-2.83-3.24-.47-.477-.46-1.43-.405-2.426-3.538-4.972-6.714-10.294-9.313-16.197-.986-.64-1.79-1.446-2.428-2.43-.21-2.76-2.846-3.096-2.833-6.07-.752-1.107-1.826-1.873-2.604-2.934h-.606c.692 1.082 1.65 1.896 2.395 2.935.447 2.926 3.05 3.69 3.242 6.88M218.28 11.74c-.197 3.644 2.213 6.034 3.242 8.905.55 1.558.71 3.13 1.213 4.86.43 1.49 1.44 3.03 1.212 4.86.88 1.205 1.84 2.608 2.434 4.048.184.458-.14 1.138 0 1.62.06.21.673.87.805 1.213.827 2.14 1.33 3.97 2.023 6.07.34 1.01.84 1.83 1.22 2.837 1.16 3.105 2.184 6.41 3.24 8.91.333.795.128 2.577 1.62 2.427.145-.81-.587-.784-.813-1.212-.295-.557-.186-1.043-.402-1.62-.298-.78-.522-1.622-.812-2.432-.666-1.835-1.997-3.698-2.023-6.475-1.448-1.49-1.71-3.627-2.428-5.668-.724-2.05-1.744-4.213-2.03-6.478-.796-.957-1.4-2.105-2.023-3.238-.428-.815-.097-1.46-.402-2.43-.174-.546-1.036-1.368-1.22-2.022-.46-1.665-.24-3.632-.804-5.27-.626-1.8-2.468-3.468-2.837-5.26-.764-5.226-3.18-8.813-4.52-13.458h-.602c.502 1.133 1.083 2.225 1.483 3.334.79 2.243.755 4.735 2.428 6.48M190.348 4.86c.555.562 1.085 1.003 1.614 1.616 1.634 1.89 2.815 3.632 4.454 5.262.342.47.535 1.09.405 2.026 2.873 1.72 3.46 5.717 6.075 7.695.57.775 1.07 1.63 1.22 2.827.732.476 1.366 1.06 2.022 1.62.316.76.675 1.482.81 2.434 2.76 1.55 3.296 5.334 5.67 7.286.34.474.53 1.087.4 2.02.983.645 1.792 1.452 2.43 2.435 1.898 3.23 4.14 6.118 6.477 8.907v1.215c3.512 2.293 4.605 7.002 7.692 9.718-.66-2.713-3.44-3.314-3.645-6.478-1.246-.91-2.328-1.99-3.24-3.24.337-1.143-.564-1.05-.4-2.024-.808-.407-1.732-.7-2.028-1.62-.526-2.315-2.667-3.552-3.642-4.853-.222-.306-.244-.947-.404-1.222-.41-.702-.957-1.234-1.215-1.62-.223-.332-.64-.53-.808-.803-.39-.63-.39-1.825-.81-2.434-.862-1.252-2.153-1.92-2.835-3.237.087-.768-.455-.897-.405-1.62-1.61-1.092-2.803-2.597-3.235-4.862-.982-.636-1.797-1.443-2.434-2.426-.67-2.975-3.58-3.706-4.047-6.883-1.42-.836-2.39-2.327-3.24-3.646-.293-.455-.184-1.242-.405-1.62-1.46-2.52-4.234-4.054-5.665-6.474-.458-.9-.906-1.815-1.143-2.938h-.91c.146.166.28.34.436.51.128.94.48 1.67.81 2.428M207.755 2.83c2.105 2.623 3.164 6.286 4.05 10.122 1.026.636.524-.196.402-.804-.448-2.263-1.99-4.91-2.024-6.886-.717-.972-1.34-2.135-1.912-3.34h-.688c.068.298.132.6.173.91M211.8 15.384c.463.89.457 2.088.81 2.833.08.156.73.212.808.408.54 1.214 1.08 2.705 1.22 4.044.788 1.104 1.933 1.842 2.425 3.24.183 2.652 1.968 3.706 2.836 5.668.767 3.28 2.6 5.5 3.233 8.907.914.977 1.708 2.08 2.436 3.24-.298 1.235.415 1.474.404 2.428 3.136 3.61 3.91 9.587 7.286 12.954-.342-1.428-1.41-2.403-2.025-3.642-.67-1.354-.934-3.017-1.62-4.455-1.19-2.492-3.58-4.778-3.64-8.097-2.737-1.853-3.042-6.134-4.857-8.904-.135-.955-.645-1.52-.41-2.84-1.39-.763-1.84-2.478-2.836-3.64-.246-2.216-1.847-3.687-2.83-5.67-.993-1.996-1.443-4.556-2.43-6.476-.793-1.547-2.44-3.095-2.832-4.457-.7-2.403-1.17-3.645-2.026-5.26-.52-.99-1.176-1.87-1.616-2.837-.12-.242 0-.598.02-.908h-.812c1.512 3.1 3.467 5.762 4.027 9.817.964 1.068 1.76 2.35 2.428 3.644M222.736 19.026c.27.847.947 1.664 1.212 2.433.75 2.137.858 3.812 1.62 5.663.378.92.915 1.85 1.213 2.833 1.045 3.46 1.486 6.386 2.834 8.91-.33.96.578 1.864.408.403-.596-3.315-2.516-5.308-2.43-9.314-1.98-2.062-2.17-5.134-2.837-8.095-.03-.15-.738-1.002-.807-1.21-.98-3.113-2.14-6.24-2.828-8.502-.995-3.243-1.522-6.32-2.44-9.316-.294-.263-.515-.576-.716-.912h-.393c1.252 3.704 2.412 7.364 3.55 11.032.585 1.922.995 4.15 1.616 6.074M204.036 1.924h-.427c.86 1.542 1.724 3.064 2.526 4.553-.218-1.748-1.18-3.153-2.1-4.553M189.13 8.097c.255.357.136.828.407 1.212.23.337.968.462 1.21.81.127.177-.087.61 0 .813.058.125.71.252.81.4.127.188-.097.605 0 .814.058.122.71.265.814.4 1.138 1.55 1.992 3.024 3.24 4.457 1.246 1.435 2.595 2.81 4.046 4.05-.333 1.145.57 1.048.405 2.02 2.716.932 3.37 3.926 5.265 5.667-.102 1.19.913 1.25.81 2.43 1.494.81 2.26 2.333 3.236 3.647.12-2.14-1.903-2.14-2.42-3.648-1.56-4.52-5.665-6.482-7.294-10.926-5.393-4.465-8.652-11.055-13.363-16.2-.262-.796-.794-1.328-1.062-2.122h-.544c.078.896.9 1.054.802 2.123 1.545 1.003 2.583 2.568 3.643 4.052M188.723 16.598c-.01 0-.03-.015-.04-.02.01.017.03.03.04.045v-.025M208.722 39.774c-.05-.063-.1-.13-.15-.196v.098c.048.033.107.068.158.1" fill="#43412a"/><path d="M214.232 44.938c-1.673-2.07-3.353-3.877-5.51-5.165 2.088 2.55 4.662 4.618 6.726 7.186.03-.818-.717-1.406-1.216-2.022M178.603 7.69c1.655 1.454 3.27 2.928 4.86 4.456 1.605 1.55 2.944 3.617 5.226 4.44-3.245-3.09-6.312-6.342-9.682-9.302.058-1.003-.64-1.25-.81-2.024-1.448-.97-2.682-2.148-3.912-3.334h-.815c1.39 1.295 2.78 2.596 4.324 3.744-.06 1.003.634 1.25.81 2.02M191.963 20.648c.384.827.83 1.6 1.214 2.426 5.263 4.05 8.72 9.904 13.765 14.175.482.83 1.042 1.598 1.63 2.33.14-1.188-.594-1.51-.817-2.33-2.765-1.974-4.65-4.794-6.89-7.29-2.29-2.56-4.878-4.837-7.284-7.29-.23-.85-1-1.157-.808-2.43-1.398-1.155-2.734-2.372-4.044-3.617.108 2.3 2.387 2.452 3.235 4.025M179.82 5.26c-.91-1.252-1.987-2.33-3.242-3.235v-.102h-.218c.087.153.157.316.21.504 1.33.698 1.918 2.133 3.24 2.833M189.13 12.547c.173.777.87 1.018.807 2.024 1.375.647 2.312 1.732 3.243 2.84.413.483.45 1.544.81 2.02.17.234.998.166 1.214.407.262.296.165.932.407 1.215.958 1.15 2.08 2.273 3.236 3.235.6 1.026 1.436 1.815 1.62 3.245 1.83.868 2.963 2.434 3.647 4.452 1.044.57 1.868 1.37 2.836 2.024-.432 1.77 1.363 1.326 1.208 2.835 1.568.05 1.6 1.642 2.836 2.02-.03.71.087 1.26.406 1.625 1.72 1.515 3.633 2.84 4.453 5.262 3.41 3.067 6.007 6.95 8.904 10.525 1.42 1.28 2.973 4.86 4.454 4.452-6.17-6.514-10.73-14.636-17.405-20.646.107-1.182-.92-1.243-.81-2.43-1.282-.336-2.06-1.18-2.837-2.023-.652-2.99-4.073-3.21-4.453-6.478-.888-.864-2.25-1.26-2.838-2.43-1.702-4.093-5.874-5.724-7.28-10.12-1.12-.777-2.127-1.663-3.242-2.43.346-1.294-.64-1.254-.808-2.022-1.53-.84-2.577-2.587-3.65-3.248-1.853-1.138-2.443-2.668-3.637-4.045-.526-.593-1.17-1.05-1.62-1.616-.3-.373-.06-.913-.406-1.216-.058-.043-.112-.078-.173-.1h-1.027c.127.167.257.34.392.505 3.113 3.97 6.045 7.208 9.716 10.117M165.65 6.07c1.664 1.1 3.05 2.665 3.644 4.457 4.936 2.617 7.657 7.456 12.954 9.716 2.303 3.5 5.67 5.938 9.306 8.097.59 1.3 1.514 2.268 2.034 3.642 1.344.268 1.975 1.258 3.235 1.62.387.827.822 1.603 1.214 2.433 1.81 1.155 3.54 2.4 4.457 4.452 2.1 1 3.65 2.553 4.857 4.452 2.933 1.25 4.402 3.962 7.285 5.26.182 1.19 1.918 2.917 2.43 2.436-2.808-2.724-5.288-5.786-8.907-7.697-3.065-4.492-8.192-6.925-10.93-11.74-1.584-.306-2.2-1.58-3.64-2.03-2.182-5.243-8.416-6.434-10.933-11.334-5.393-1.894-7.628-6.947-12.554-9.31-.974-2.562-2.753-3.74-4.45-5.263-1.187-1.06-2.33-2.23-3.514-3.34h-.905c1.542 1.543 2.95 3.175 4.42 4.147M159.98 4.045c.586 1.542.975 1.148.405-.405-.81-.42-1.43-1.046-2-1.718h-.742c.772.718 1.8 1.174 2.337 2.123M223.95 61.54c-2.79-2.743-5.314-5.757-8.908-7.694-.554-1.064-1.705-1.535-2.023-2.836-3-1.32-5.168-3.47-6.884-6.068-1.91-.252-2.48-1.843-4.457-2.03-.88-1.546-2.648-2.208-3.236-4.043-2.07-.887-3.66-2.562-5.262-4.054-2.58-2.398-5.335-4.818-7.694-6.88-2.71-2.37-5.21-4.62-8.502-6.073-1.74-2.716-4.365-4.547-7.287-6.07-.384-1.24-1.544-2.328-2.43-3.242-1.884-1.93-3.727-3.056-5.67-4.453-2.64-1.897-4.57-4.51-7.292-6.07 0-.045-.02-.07-.02-.103h-.363c.272.43.537.866.796 1.31 2.038.55 2.962 2.4 4.453 3.65 1.46 1.223 3.348 1.956 4.857 3.236 2.867 2.426 5.1 5.987 8.097 7.69 2.077 1.19 3.25 2.61 4.454 4.457 5.525 2.317 9.346 7.303 13.362 10.528.92.733 1.968 1.242 2.833 2.02 1.658 1.498 2.86 3.835 5.267 4.453 1.565 3.03 4.396 4.78 7.69 6.076.23.855 1.07 1.42 1.62 2.02.58.635 1.352 1.068 1.617 2.03 1.59.3 2.2 1.58 3.647 2.026.57 1.046 1.364 1.866 2.023 2.833 4.862 2.426 7.268 7.308 12.145 9.72-.308-1.45-1.983-1.53-2.833-2.432M215.45 9.713c0-2.568-1.994-3.138-1.62-6.068-.44-.5-.773-1.092-1.07-1.72h-.824c.41.83 1.16 1.715 1.487 2.53.756 1.883.946 3.838 2.026 5.258M149.05 3.644c2.662.435 3.28 2.927 6.068 3.238.81 1.758 2.574 2.55 4.454 3.237.665 1.903 2.434 2.697 4.458 3.24.88 1.272 2.133 2.19 2.833 3.645 1.426.053 1.812 1.155 3.236 1.21.934 1.322 2.2 2.435 3.643 3.646.34.29.823.134 1.217.406.336.232.494.937.81 1.214 1.252 1.125 2.183 1.808 3.234 2.434 1.296.76 2.268 2.25 3.243 2.023-4.08-3.207-8.27-6.312-11.742-10.125-1.43-.057-1.806-1.153-3.235-1.217-.634-1.255-1.654-2.118-2.43-3.235-2.44-.667-3.895-2.314-5.268-4.05-2.733-.367-3.334-2.87-6.072-3.238-1.202-1.81-3.335-2.685-4.877-4.15h-.617c.48.418.86.948 1.044 1.722" fill="#43412a"/><path d="M211.8 52.226c-1.48.267-1.55-.876-2.834-.807-1.474-2.04-3.62-3.404-5.662-4.86-1.954-1.392-4.044-3.228-6.487-4.05-.317-1.298-1.46-1.77-2.02-2.835-1.4-.212-2.155-1.08-3.64-1.212-.162-1.056-1.216-1.222-1.22-2.43-3.304-1.69-6.092-3.89-8.498-6.48-2.97-.54-4.173-2.847-6.888-3.644-.55-1.063-1.703-1.53-2.024-2.832-2.56-.272-3.024-2.647-5.666-2.835-1.064-1.904-3.436-2.502-4.458-4.455-4.016-.567-5.396-3.777-8.904-4.86-.582-2.117-2.626-2.77-4.45-3.64-.08-1.41-1.434-1.536-1.62-2.837-1.29-.057-1.784-.915-3.237-.806-.38-.682-.884-1.237-1.454-1.723h-.91c.6.762 1.372 1.35 1.955 2.13 1.458-.108 1.95.745 3.238.81.38 1.108 1.24 1.727 1.618 2.83 2.763.612 4.087 2.666 5.67 4.458 2.1.186 2.905 1.678 4.05 2.833 1.406.215 2.154 1.08 3.645 1.213 2.757 3.05 6.013 5.59 10.118 7.288.318 1.304 1.475 1.77 2.024 2.834 3.01.504 3.798 3.222 6.886 3.642 2.285 2.708 5.212 4.778 8.503 6.483 0 1.2 1.052 1.374 1.212 2.425 1.614-.26 1.624 1.074 3.24.81.833 1.458 2.404 2.186 3.24 3.645 1.673.11 2.81 1.583 4.048 2.43 2.863 1.955 5.506 3.432 7.285 6.07 1.152.07 1.69.742 2.84.813.832.8 2.09 3.28 3.237 2.43-.995-.895-2.65-1.13-2.836-2.837M173.744 10.526c.03 1.186.924 1.5 1.62 2.026-.904-2.067-3.178-2.762-4.048-4.864-1.153-.425-2.252-1.563-2.836-2.02-.733-.582-1.38-.96-2.026-1.623-.443-.448-.387-1.102-.804-1.614-.148-.182-.387-.347-.64-.508h-.638c2.93 3.063 5.68 6.305 9.372 8.604M138.926 4.045c1.142-.328 1.046.57 2.023.407.572 1.688 2.63 2.16 3.642 2.836 1.855 1.232 2.81 3.762 5.666 3.64 1.742 2.986 6.14 3.316 7.695 6.48.954-.01 1.194.7 2.43.403 1.627 1.82 3.567 3.325 5.59 4.75-1.175-1.995-3.57-2.784-4.777-4.75-.958.01-1.196-.694-2.433-.402-1.727-3.26-6.333-3.655-8.097-6.882-1.457.104-1.948-.75-3.238-.812-1.426-2.492-4.654-3.177-6.076-5.67-.973.172-.876-.735-2.02-.404-.414-.52-.93-1.133-1.5-1.718h-.887c.74.624 1.41 1.326 1.98 2.123M166.216 22.723c-.087-.05-.16-.107-.24-.158.03.036.05.066.08.107.047.017.106.038.16.05M166.216 22.723c1.148.802 2.32 1.583 3.48 2.377-.512-1.443-2.01-1.894-3.48-2.377M139.735 7.69c3.607.378 4.974 3.412 6.88 4.858.177.127.617-.084.813 0-2.694-3.51-6.842-5.572-10.93-7.693-.843-.79-2.663-2.713-3.64-2.026.318.093.582.208.81.412 1.865 1.64 4.65 2.4 6.067 4.45" fill="#43412a"/><path d="M204.512 50.607c-.576-.415-.962-.74-1.612-1.215-.447-.313-1.152-.432-1.626-.81-1.053-.832-1.483-2.135-2.425-2.835-.508-.374-1.45-.404-2.027-.81-.764-.53-1.508-1.297-2.024-1.618-.84-.513-1.218-.424-2.028-.81-.157-.074-.206-.723-.406-.81-.332-.148-.86.107-1.212 0-1.527-.46-2.958-2.03-4.05-3.238-2.382-.13-4.482-2.067-5.67-2.835-.43-.283-.826-.54-1.215-.807-2.272-1.573-4.187-2.58-6.475-4.053-1.405-.898-2.698-2.334-4.45-2.833-.7-1.323-2.14-1.91-2.842-3.235-2.433-.67-3.887-2.322-5.26-4.05-2.437-.67-3.893-2.32-5.263-4.05-1.405.323-1.56-.606-2.835-.405-1.58-1.522-3.073-3.134-5.666-3.648.136.07.237.716.4.812 1.306.753 2.237.832 3.238 1.62.413.316.832.93 1.217 1.215 1.384.366 2.505 1.003 4.05 1.212.804 2.033 2.71 2.96 4.86 3.645.717.962 1.505 2.07 2.428 2.835.603.502 1.38.35 2.025.812.52.363.728 1.23 1.212 1.615 2.062 1.65 4.26 3.032 6.478 4.452 4.386 2.816 8.61 6.527 13.766 8.505 1.087.664 1.792 1.715 2.833 2.428 3.96.77 5.885 3.56 9.314 4.86.24.842.85 1.305 1.217 2.023 3.304 1.112 4.834 3.996 8.41 4.834-1.532-.99-3.1-1.9-4.365-2.81M217.874 59.917c.86.71 1.248 2.3 2.426 2.024-2.153-2.557-5.075-4.36-8.092-6.07-.965-.863-2.07-1.64-3.192-2.362 1.92 2.937 6.377 4.363 8.858 6.41M208.966 53.44c-.03-.008-.058-.01-.087-.022.038.028.086.053.14.086-.02-.02-.04-.037-.05-.063M151.07 16.598c-.954.01-1.194-.7-2.428-.405-.273-.94-1.346-1.084-1.616-2.023-1.502-.387-3.09-.693-3.645-2.024-2-.163-3.214-1.105-4.05-2.428-2.53-.446-4.113-1.83-6.075-2.836.087.313.02.797.41.807 1.932 1.844 5.42 2.137 6.88 4.456 2.772.056 3.332 2.33 6.073 2.43.273.938 1.347 1.083 1.616 2.022 1.243-.293 1.477.415 2.434.405.272.942 1.344 1.087 1.617 2.023 1.152.064 1.69.744 2.84.812.42.957 1.836 1.42 2.828 2.024.985.593 1.996 1.914 2.833 1.212-3.075-2.317-7.328-3.46-9.716-6.476M188.723 44.13c1.568.057 1.878 1.37 3.644 1.213 1.535 2.11 4.644 2.648 6.074 4.854 2.323.52 3.903 1.772 5.265 3.243 1.24-.292 1.192.7 2.43.405.273.942 1.342 1.082 1.618 2.024 2.08.215 3.347 1.243 4.456 2.432 1.677-.056.077-.265 0-.812-1.775-1.463-4.504-1.978-5.667-4.05-1.463.107-1.957-.746-3.243-.807-.817-1.616-2.545-2.316-4.454-2.835-2.657-2.742-5.934-4.862-10.123-6.074-.71-.638-.84-1.86-2.022-2.023.39 1.1 1.458 1.513 2.023 2.43M134.47 11.335c.35.257.516.577.81.81 1.317 1.032 3.226 1.62 4.862 2.432.747.364 1.604.815 2.43 1.212 1.95.946 2.697 1.404 3.636 2.425.527.565 1.008.45 1.223 1.217 3.446.465 4.648 3.176 8.097 3.642.608.746 1.685 1.01 2.024 2.026 3.71.204 4.684 3.146 8.098 3.645.382 1.237 1.97 1.268 2.026 2.833 3.325.59 4.62 3.205 8.097 3.645 1.03 1.67 2.753 2.648 4.048 4.048 3.187-.086 3.745 2.462 6.885 2.426-2.235-1.293-4.372-2.36-6.885-3.235-1.598-.556-2.617-2.745-4.047-3.64-1.165-.734-2.804-.956-4.046-1.623-1.268-.677-2.133-2.006-3.65-2.026-.26-1.078-1.156-1.534-1.614-2.425-2.37-.336-3.317-2.087-5.264-2.835-1.736-1.103-4.086-1.584-5.266-3.238-1.237.293-1.19-.698-2.43-.405-.783-.975-2.163-1.35-2.833-2.428-1.29-.064-1.783-.923-3.236-.813-.563-1.19-1.876-1.64-2.43-2.83-1.595.277-2.5-1.042-3.646-1.62-1.93-.977-3.767-1.618-4.856-2.433-1.3-.972-2.457-1.797-3.64-2.428-.258 1.32.95 1.13 1.613 1.62M148.642 21.05c-.97.166-.878-.738-2.023-.402-2.022-2.433-6.255-2.657-8.098-5.266-1.146.335-1.05-.568-2.026-.4-.853-1.036-1.99-1.795-3.24-2.43-.07 1.552 2.094.875 2.023 2.43 3.046.056 3.438 2.772 6.482 2.828.555 1.066 1.484 1.75 3.238 1.624.7 1.183 1.896 1.88 3.642 2.023.614 1 1.388 1.848 2.836 2.024-.265-.544-.87-.755-1.624-.808-.118-.83-1.09-.797-1.212-1.622M216.662 61.944c-2.833-1.532-6.03-2.782-8.095-5.266-1.002.053-1.955.066-2.428-.4-2.022-1.764-5.06-2.507-6.892-4.454-2.555-.415-4.67-1.265-5.66-3.243-4.297-.564-5.608-4.118-10.123-4.45-.396-1.363-1.493-2.02-2.432-2.834-1.28.193-1.428-.73-2.835-.402-2.198-2.126-5.81-2.828-7.696-5.267-3.453-.463-5.18-2.642-8.496-3.243-.77-2.61-3.548-3.194-6.48-3.642-1.515-.644-1.802-2.518-3.646-2.83-.496-.584-1.392-.767-2.43-.815-.133-.878-.962-.716-1.617-1.212-.51-.384-1.064-1.306-1.624-1.62-1.424-.82-3.058-.78-4.45-1.618-.595-.36-.99-1.094-1.617-1.62-1.57-1.297-3.037-1.674-4.86-2.432-.754-.313-1.493-1.672-2.427-.807 3.225 1.634 6.822 2.894 8.904 5.666 4.633.494 5.956 4.305 10.525 4.865.962 1.057 1.612 2.434 3.24 2.83 1.085.4 2.136.834 3.645.806.937.817 2.04 1.476 2.43 2.838 3.282.624 4.97 2.856 8.503 3.235.804.816 1.912 1.326 2.426 2.433 3.42.766 5.01 3.357 8.91 3.642.227 1.123 1.39 1.306 1.617 2.43 1.293.057 1.784.92 3.238.81 2.166 1.21 3.642 3.11 6.477 3.64 1.722 1.52 3.447 3.037 6.476 3.24 1.652 2.266 5.142 2.69 6.89 4.86h2.022c3.507 3.174 8.575 5.51 12.55 7.692 1.366.754 2.78 2.373 4.45 1.622-3.135-.87-5.7-2.946-8.498-4.456M141.356 23.075c.51 1.377 2.3 1.48 4.05 1.624.69.414 1.608 2.67 2.423 1.616-.84-.502-1.52-1.176-2.02-2.03-1.502.286-1.74-.686-3.24-.4-.88-1.684-3.864-1.27-4.455-3.24-2.072.304-3.574-2.076-4.86-1.216.882 1.1 2.23.726 3.245 1.217 1.5.73 2.682 2.73 4.856 2.428M205.73 57.488c-2.034-.99-4.626-1.438-6.07-3.235-3.183-.196-5.16-1.59-6.89-3.24-2.613.186-3.473-1.385-4.86-2.43-3.168.335-3.526-2.14-6.472-2.025-.338-1.013-1.42-1.283-2.026-2.023-2.924-.31-4.643-1.833-6.476-3.24-2.41-.02-3.842-1.02-4.864-2.43h-2.828c-.987-1.178-2.807-1.514-3.644-2.832-5.96-1.196-8.275-6.033-14.573-6.885-.985-1.036-2.344-1.706-3.246-2.834-1.605.123-2.03-.936-3.64-.81-.12-.826-1.093-.793-1.21-1.618-2.747.176-3.623-1.51-5.674-2.02-.14 1.277 1.006.857 1.62 1.21 2.39 1.362 4.998 3.004 8.098 3.64 2.037 1.607 3.798 3.493 7.286 3.646 3.955 3.87 10.13 5.528 14.577 8.91 1.512.04 1.156.452 2.43 0 2.486 2.646 7.264 2.997 9.72 5.665 1.397-.323 1.55.606 2.833.407 2.53 2.996 7.906 3.162 10.528 6.076h2.018c1.718 1.655 3.838 2.912 6.886 3.233 1.402 1.85 4.29 2.18 6.478 3.243 1.07.52 1.88 1.545 2.833 2.023.537.27 1.563.205 2.023.404.446.19.794 1.807 1.214.405-2.056-.816-4.01-2.234-6.07-3.242M153.095 23.48c-.96-.33-1.862.572-.405.406.794.687 2.02.947 2.434 2.026 1.177-.11 1.24.914 2.428.807.697 1.188 1.893 1.885 3.643 2.025.885.48 2.21 2.62 3.237 1.617-1.972-.993-3.645-2.29-6.073-2.83.358-1.304-1.335-.556-1.216-1.62-1.705-.453-3.075-1.244-4.05-2.43M146.618 31.173c-1.466-1.097-3.495-1.635-4.45-3.238-3.942.562-5.765-3.14-8.51-2.43 2.976.67 4.133 3.163 8.104 2.832.16.78 1.565.32 1.213 1.62 1.43-.052 2.89 1.946 3.643 1.216M255.53 36.438c2.272-1.782 3.818-6.432 3.24-9.72-.578 1.857-1.054 3.805-1.217 6.075-.71 1.515-2.22 2.436-2.835 4.047-.74 1.94-.19 4.11-.805 6.076-.504 1.6-1.458 2.71-2.436 4.042.782 1.474-1.47 3.386-.804 6.08-.608.54-1.17 1.806-1.62 2.832-.462 1.04-1.112 2.324-.81 2.838.087-.32.335-.473.81-.407.047-2.384 1.45-3.407 2.022-5.263.79-6.672 4.455-10.12 4.455-16.6M213.83 63.563c-1.174-.598-2.46-.96-3.243-2.02-1.527.307-1.937-.5-3.235-.408-.72-.766-1.71-1.255-2.426-2.026-3.65.008-4.348-2.944-8.105-2.832-.47-1.28-2.096-1.408-2.827-2.43-4.235-.49-7.183-2.27-10.123-4.05-2.983-.253-4.946-1.533-6.48-3.24-4.058.01-5.328-2.77-9.315-2.83-1.937-1.844-4.307-3.255-7.69-3.65-1.214-1.213-2.455-2.402-4.856-2.427-1.7-2.084-4.894-2.67-7.297-4.047-.964-.244-1.844-.583-3.232-.404-1.124-.903-2.12-1.93-3.24-2.837-2.64.214-3.267-1.593-6.072-1.214-.163-.688-1.907-1.82-2.43-.81 2.422 1.09 4.835 2.183 8.098 2.43 1.11 1.316 2.66 2.194 4.047 3.238h2.83c1.23.934 2.226 2.1 4.458 2.024 2.246 2.476 6.538 2.912 8.91 5.26 1.316-.23 1.88.278 2.835.408 1.775 1.59 3.96 2.793 6.876 3.24 2.243 2.08 6.777 1.866 8.51 4.453 1.304.18 2.194.776 3.646.812.59.89 2.163.8 2.428 2.018 1.51-.427 2.734.728 4.044 1.22 1.283.478 2.874.69 4.055 1.214 1.023.458 1.715 1.547 2.828 2.026 2.18.93 3.98.672 4.86 2.426 1.278-.2 1.43.727 2.836.4.884 1.01 2.212 1.57 3.238 2.434h2.428c1.347 1.49 3.286 1.968 5.266 2.836.518.226.72.578 1.215.804 1.578.738 3.553.47 4.044 2.03 1.45-.467 2.79 1.223 3.24.403-3.484-1.42-7.236-2.978-10.117-4.454M195.612 57.895c-4.492-3.335-11.54-4.124-16.2-7.29-1.504.287-1.74-.69-3.24-.403-.124-1.092-1.7-.728-2.023-1.62-1.53-.378-1.902-.022-2.837-.403-1.576-.852-2.647-2.213-5.26-2.025-.447-1.453-2.424-1.354-3.236-2.43h-3.648c-.873-1.016-2.503-1.276-3.24-2.43-3.76-.287-4.964-3.13-8.905-3.237-1.787-2.13-5.844-1.983-7.694-4.05-1.5.285-1.736-.692-3.237-.405-.46-.267-1.57-1.88-2.027-.81 1.833 1.81 6 1.29 7.29 3.644 2.976-.138 4.363 1.303 6.07 2.428h2.022c.886 1.003 2.357 1.425 3.243 2.43 3.183-.213 4.122 1.818 6.075 2.834 1.77-.284 2.28.684 4.052.404.876 1.01 2.596 1.18 3.235 2.43 3.047-.48 3.714 1.416 5.666 2.024h2.43c.714.77 1.715 1.258 2.43 2.026h2.427c3.03 1.83 6.298 3.42 10.533 4.045.785 2.045 4.45 1.216 5.26 3.242 1.076 0 2.308-.155 2.833.402.945-.346 1.747 1.418 2.027.405-1.265-.49-2.01-1.498-4.045-1.215M150.26 41.295h-2.427c-.73-1.43-2.17-2.146-4.453-2.024-.323-.89-1.9-.526-2.023-1.62-3.356.11-5.41-3.22-8.102-2.426 2.817.692 4.44 2.573 7.697 2.835.122 1.09 1.703.722 2.023 1.618 2.69-.4 3.594.995 4.858 2.024h2.428c.96.8 2.106 1.4 3.243 2.023-.646-1.247-2.362-1.42-3.242-2.43M263.627 70.85c-1.55.49-3.09.873-4.453 1.622 1.78-.497 3.605-.945 5.432-1.4v-.52c-.328.102-.643.196-.98.298M138.116 42.51c.967.28 2.494 1.8 4.052 1.215 1.102 1.064 3.665 2.797 5.662 1.62-1.665.317-2.075-.628-3.64-.406-1.668-1.98-4.91-2.38-8.097-2.84-.85-.384-2.26-2.293-3.236-1.208 1.11.453 1.985 1.188 3.236 1.618.603.21 1.405-.18 2.023 0M136.9 47.37c.48.368 1.758 1.97 2.43.808-1.364.158-1.724-.702-2.43-1.216-1.926.175-3.023-.484-4.043-1.215.122 1.762 2.214 1.558 4.044 1.622M170.1 53.847c1.063.558 1.394 1.846 2.837 2.02 2.902-.335 3.477 1.646 6.476 1.218.677.675 1.945.754 2.425 1.622 5.198-.336 6.93 2.782 11.745 2.835 1.11 1.586 4.015 1.38 5.264 2.83 4.64-.236 7.214 3.23 10.528 2.03-.97-.247-1.848-.583-3.24-.408-2.24-1.138-4.325-2.426-7.693-2.428-.458-1.026-1.794-1.174-3.238-1.217-.605-.472-.992-1.172-2.026-1.215-.954-.13-1.516-.64-2.83-.407-1.314-1.258-3.73-1.403-5.267-2.426h-2.832c-.458-.76-1.57-.858-2.03-1.622-3.178.074-4.616-1.58-7.688-1.62-1.308-1.8-4.557-1.65-6.476-2.834.29 1.596 2.03 1.75 4.047 1.62" fill="#43412a"/><path d="M185.08 62.348h2.834c4.44 2.716 11.294 3.016 15.792 5.67 4.282-.233 6.92 1.182 9.716 2.427h2.836c1.784.863 5.735 1.428 6.475 1.217-.947-.807-2.573-.937-4.452-.812-1.297-.726-3.394-1.423-4.858-.81-2.527-1.652-5.658-2.703-9.716-2.83-2.41-1.237-4.973-2.32-8.502-2.434-1.608-1.49-4.904-1.298-6.48-2.835-1.62.14-2.25-.717-4.05-.4-.787-1.104-3.068-.71-3.642-2.028H178.2c-.445-.908-1.987-.71-2.43-1.616-2.904.466-4.518-2.49-6.883-1.217 2.902 1.015 6.55 1.275 8.502 3.24 3.234.142 5.525 1.22 7.69 2.428M221.114 62.753c1.522.384 3.194 2.724 4.454 2.02-.7.026-1.57-1.185-2.433-1.615-.812-.402-2.517-1.113-2.02-.405M214.232 74.09c-.583-.078-1.413-.678-2.022-.808-1.885-.41-3.925-.05-5.668-.407-1.342-.275-2.344-1.06-3.647-1.212-.978-.117-1.808.43-2.834.405-3.364-.097-6.803-2.255-10.122-1.214 4.108 1.38 9.403 1.08 14.173 1.62.816.09 1.57.658 2.432.808 1.366.232 3.21-.53 4.045.807 3.144-.823 8.483 2.246 11.337.406-2.49-.5-5.14-.077-7.692-.407M259.577 83.807c-.65-.125-2.136-.825-1.616.407 2.714.112 4.715.955 6.476 2.024.06-.018.115-.018.168-.03v-.736c-.19-.015-.376-.036-.57-.043-.858-.885-3.072-1.36-4.457-1.623" fill="#43412a"/><path d="M253.912 93.93c-1.968-.14-3.757-.686-5.674-.81-7.132-.466-13.95.226-19.43-.403-.93-.112-2.038-.715-2.837-.81-2.193-.266-4.522.238-5.663.403-2.553.38-5.13-.028-8.102 0-3.034.023-6.262.848-9.313.81-4.144-.052-7.42-.07-10.93 0-2.587.048-5.087-.398-7.688-.403-4.976-.015-9.886 1.192-14.58 1.212-1.685.01-3.57-.47-5.26-.408-1.51.066-2.954.733-4.46.814-1.884.097-3.804-.466-5.665-.407-.833.024-1.58.256-2.43.406-1.228.214-2.09-.028-2.43 0-4.696.34-10.41.133-14.977.402-.604.036-2.388-.633-2.43.81 6.263.63 12.53.537 18.626 0 1.677-.145 3.187-.754 4.856-.81 1.784-.064 3.473.41 5.262.41 4.075-.01 8.397-.11 12.556-.41 1.79-.13 3.826-.687 5.664-.81 15.214-.997 29.506.44 43.727-.808 1.164-.102 2.678-.454 3.236-.403 1.067.085 1.763.626 2.84.805 6.335 1.048 13.602-.128 20.645.407 1.748.13 3.553.69 5.26.808 3.313.237 6.657.105 9.89-.135v-.875c-3.525.26-7.102.46-10.693.2" fill="#256944"/><path d="M253.912 95.548c-1.645-.04-3.2-.34-4.862-.408-1.11-.038-2.522.42-3.645.408-1.703-.026-3.212-.352-4.856-.408-6.905-.23-13.63-.157-20.648-.4-3.46-.12-6.902-.793-10.125-.404-3.97.476-8.99.855-13.358.804-1.625-.015-3.554-.435-5.265-.4-2.037.04-3.984.782-6.074.808-1.887.025-3.786-.456-5.668-.408-1.738.054-3.596.306-5.263.408-1.455.09-2.715-.03-4.047 0-3.66.094-7.042.768-10.53.81-2.087.024-4.047-.446-6.073-.403-2.306.038-4.53.776-6.88.81-3.646.045-6.98-.32-10.123 0-1.1.106-3.312-.632-3.645 1.213 2.52.454 6.46.084 8.91-.41.678-.132 1.052.416 1.617.41 3.436-.063 7.012-.855 10.93-.81 1.626.014 3.405.434 5.263.4 2.078-.028 3.755-.664 6.07-.804 12.334-.758 25.89-.214 36.037-.81 12.4-.735 23.683-.12 35.223.403 4.676.21 10.89-.077 14.578.407 3.82.5 8.582.013 13.125-.394v-.973c-.885.038-1.76.087-2.6.15-3.312.255-5.952.05-8.093 0" fill="#256944"/><path d="M242.575 97.573c-4.65-.033-9.263-.494-14.173-.408-7.084.128-17.33-.292-25.098 0-3.332.128-6.43.68-9.715.812-1.69.07-3.17-.386-4.866-.404-2.563-.026-5.742.79-8.904.812-1.283 0-2.728-.446-4.053-.408-2.585.08-5.187.802-7.692.807-5.41.016-10.754-.34-16.196 0-1.495.097-2.997.77-4.45.81-1.79.058-3.505-.51-5.262-.4-1.616.097-3.347.565-4.86.81-1.493.236-3.522-.44-4.453 1.214 6.678-.306 15.443-.298 23.074-.812 2.682-.178 5.12-.77 7.29-.812 1.752-.028 4.176.54 6.88.41 1.924-.097 3.662-.73 5.667-.81.604-.025.835.36 1.218.4.727.086 1.26-.42 1.618-.4 1.314.07 2.334.47 3.646.4 2.002-.11 4.13-.833 6.07-.81 2.833.05 5.39.237 7.692 0 3.03-.3 7.247-.354 10.937-.4 2.013-.03 4.05.428 6.068.4 1.932-.02 3.696-.346 5.663-.4 1.854-.053 3.782-.04 5.675 0 11.655.25 26.24.28 40.248.17v-.925c-7.47.027-15-.01-22.028-.058M227.594 100c-4.257 0-8.99.434-12.147.41-1.296-.014-2.676-.442-4.047-.41-2.567.06-5 .717-7.696.81-2.6.092-5.438-.096-8.09 0-5.706.204-11.446.01-17.01.403-1.906.14-3.67.682-5.666.812-9.49.626-18.795 0-27.53.407-2.124.1-4.22.288-6.48.405-2.117.11-4.848-.19-6.072 1.214 6.258-.077 12.765.322 19.43 0 7.02-.332 14.27-.297 21.462-.808 1.807-.128 3.785-.69 5.666-.81 5.238-.346 10.527-.048 15.79-.407 3.93-.265 8.114.048 11.746-.4 1.283-.163 2.345-.77 3.635-.814 1.263-.035 2.73.35 4.052.403 1.367.06 2.658-.382 4.05-.402 1.003-.017 2.133.383 3.238.403.706.02 1.403-.41 2.024-.402 5.66.04 10.465.204 15.383.403 8.222.34 16.963.288 25.273.125v-1.026c-5.164-.053-10.433-.32-15.557-.31-7.494.02-14.23 0-21.456 0M235.69 102.835c-5.284-.115-11.622-.34-15.387 0-4.02.374-8.043.168-12.14.405-9.863.567-19.715 1.463-30.368 1.216-1.87-.048-3.833-.504-5.67-.407-2.292.12-4.644 1.05-6.887 1.216-6.87.514-15.74.145-21.045.404-4.193.2-8.352-.173-11.745 1.622 7.122-.283 14.31-.216 21.458-.402 5.1-.143 10.953-.01 14.168-.41 1.805-.222 3.393-.753 5.264-.81 2.724-.078 5.427.34 8.102.408 2.678.063 5.287-.28 8.092-.408 5.17-.234 10.533.057 15.795-.404 1.626-.145 3.23-.69 4.856-.81 3.02-.224 6.145.148 9.312 0 2.705-.132 5.438-.773 8.1-.812 8.722-.114 19.16.76 26.718.405.746-.04 1.383.43 2.03.406 1.822-.073 3.526-.328 5.26-.407 1.16-.05 2.133-.047 3.004-.04v-1.17c-10.75.02-20.547.18-28.916-.01M235.286 106.885c4.266.227 11.307-.353 15.387.405.19-.99-1.464-1.102-2.024-1.21-2.503-.498-4.478-.08-6.888 0-4.73.14-9.63-.378-13.362.393-.087-.308 0-.792-.4-.804-.25.024-.488.062-.406.41 1.542.693-1.58-.037-1.212.805 3.194-.117 6.763-.114 8.904 0M254.312 106.885c3.516.135 6.97.038 10.294-.045v-1.146c-2.815.11-5.577.19-7.866.385-.82.068-1.852 0-2.428.806M166.054 109.315c1.774-.117 3.482-.738 5.256-.812 1.45-.06 2.976.415 4.457.403 1.637-.013 3.18-.802 4.862-.805 1.646-.01 3.54.84 5.258.806 1.76-.024 3.556-.69 5.266-.805 12.09-.806 21.328.51 31.58-1.21-2.95-.76-5.864-.176-8.905 0-6.894.39-14.923.147-20.247.402-8.138.38-15.558-.176-23.482.402-1.962.145-4.04.79-6.075.81-3.43.037-6.845-.174-10.525 0-3.607.172-7.486.455-10.928.402-2.886-.036-4.81-.47-7.29 0-.705.132-2.384-.324-2.43 1.22 8.582-.05 16.87-1.238 25.102-1.22 2.683.01 5.38.582 8.1.41M245.405 108.91c-1.542.05-4.485-.766-6.472.807 3.074-.486 6.025.04 9.31 0 2.296-.023 4.638.11 5.257-.806-3.16-.987-5.93-.078-8.095 0M256.34 109.315c2.214.568 5.263.456 8.264.375v-.866c-2.726-.017-5.427.058-8.265.49M236.096 108.91c-2.515.96-7.578-1.165-11.337.807 3.41-.735 8.406 1.08 11.336-.806M219.9 109.315c-1.604.68-3.687.713-5.26.4-.397 1.212 1.046.748 1.617.81 2.188.262 4.184-.617 5.666-.4.417-1.365-1.257-.637-2.022-.81M136.09 112.957c.586-.09.872.415 1.215.407.746-.023 2.143-.36 2.43-.407.586-.09.874.415 1.215.407 1.62-.053 3.174-.384 4.856-.407 1.41-.013 3.05.104 4.456 0 1.965-.143 3.713-.774 5.672-.805 2.755-.048 5.4.67 8.096.403 1.277-.13 2.667-.795 4.044-.81 1.853-.025 3.84.756 5.67.81 2.84.083 5.846-.78 8.905-.81 1.86-.023 3.86.474 5.67.407 3.246-.132 6.555-1.252 9.72-1.216 3.15.028 5.97.387 8.903 0 1.357-.18 3.11-.082 4.05-1.222-2.37-.328-4.5.283-6.88.407-2.73.162-5.568-.106-8.508 0-2.743.103-5.7.816-8.5.816-1.617 0-3.237-.4-4.855-.408-3.08-.017-6.17.82-9.315.807-3.407-.01-6.592-.135-10.12 0-2.31.095-4.48-.458-6.88-.4-1.935.042-4.08.708-6.078.81-5.23.255-10.762.2-14.576.81-.643.1-2.447-.667-2.424.81 1.237.388 3.125-.385 3.235-.408M250.672 111.744c-.582.117-2.227.227-2.023 1.21 2.39.24 3.92-.39 5.665-.803 1.184 1.213 5.346 1.185 6.07-.406-2.425.636-6.742-.608-9.713 0M264.605 112.527v-.74c-.41-.022-.863-.036-1.382-.044-.52 1.005.682.76 1.382.784M234.07 112.554c-.69.815 1.003.387 1.215.402 2.41.168 5.197-.028 7.282 0 1.466.024 2.994 1.15 3.243-.402-5.27-.552-8.247-.3-11.74 0M216.257 113.363c4.062-.267 7.728-.298 10.522 0 1.184.127 3.268.608 3.648-.81-4.277.438-10.17-.77-14.17.81M145.405 116.198c3.668-.15 7.366-.57 10.928-.81 4.218-.285 8.418-.104 12.554-.402 2.808-.21 5.745.417 8.502.402 6.03-.03 11.49-.23 16.598-.402.954-.04 2.178-.35 3.24-.407 1.07-.062 2.764.584 3.24-.81-7.773-.51-16.563.424-25.915.404-6.063-.013-12.55-.298-19.03 0-3.26.15-6.467.664-9.716.812-3.657.155-6.934-.01-9.715.402-.893.133-2.885-.198-3.238 1.212 2.812-.168 7.626-.81 10.123-.81.623 0 1.446.443 2.428.408M263.222 116.198c-.05.64.728.445 1.382.376v-.794c-2.344.01-4.574.135-6.24.82 1.76.01 3.643.135 4.858-.402M218.28 117.007c1.737.02 3.53.982 4.455-.408-3.935-.352-8.934-.645-13.36.407 2.217.422 5.854-.03 8.906 0M244.193 116.198c-1.426.188-6.15-.423-5.26.402 2.84-.316 3.89.977 5.26-.402M251.075 116.6c-.79.092-3.1-.315-2.023.408h4.86c.22-1.632-1.686-.537-2.837-.407M196.013 117.41c.068.47.642.443 1.215.405 1.682-.107 1.572.53 2.835 0 .9-.048 2.357.063 3.642 0 1.008-.048 2.992.58 2.836-.804-2.557-1.073-6.197.27-8.91.4h-1.617zM141.356 120.245c1.346-.13 2.426-.776 3.644-.807 1.447-.043 2.96.53 4.45.402 1.265-.107 2.726-.527 4.052-.804 2.994 1.036 5.698.542 8.907.402.56-.03 1.053-.012 1.618 0 2.825.06 4.404-.743 6.475-.814.683-.018 1.63.384 2.434.412 2.66.06 4.48-.412 6.478-.412 4.587 0 9.775 1.127 13.766-1.214-7.04-.408-13.597.384-19.84.404-2.388.013-4.85-.23-6.48 0-4.456.63-9.845-.09-14.17 0-1.727.04-3.066.642-4.86.81-.562.058-1.004-.41-1.615-.397-.86 0-1.98.313-2.836.397-3.432.336-7.064.682-10.523 1.62 3.15-.185 5.85.253 8.5 0M235.286 120.245c1.813-.618 3.853.68 5.67-.405-.483-.064-1.152.07-1.216-.402-.796.886-4.013-1.194-4.454.807M229.614 119.84c-.967.134-4.625-.34-3.645.41 1.635-.444 3.13 1.317 3.644-.41M247.43 120.245c1.914-.158 3.377.127 4.856.407.323-1.596-6.313-.733-4.856-.407M262.41 119.84c-.98.022-1.89-.024-2.835 0-5.284.136.48.96 2.836 0M203.3 120.245c-2.284.364-3.295-.394-4.857.81 1.606-.283 4.483.71 4.857-.81M215.042 120.65c1.494-.258 4.032.523 4.86-.408-1.495.264-4.036-.517-4.86.41M182.65 121.46c-.088-1.34-3.305-.96-4.046-.807-7.438 1.474-17.507.094-26.317.807-1.517.127-2.998.69-4.452.812-3.86.323-7.435-.06-10.528.405-1.632.242-3.892.422-4.05 1.62 2.274-.65 4.612.13 6.886 0 1.36-.083 2.626-.668 4.047-.818 1.72-.17 3.454.174 5.262 0 1.185-.108 2.415-.684 3.645-.803 4.43-.435 11.874.73 15.38 0 .246-.05.422-.41.41-.405.274-.058.495.392.406.405 4.022-.47 10.487-.19 13.356-1.217M194.393 120.65c-4.39.225-6.132-.225-8.904.808 2.88-.354 7.29.82 8.903-.807M241.36 123.89c2.754-.62 6.628 1.125 7.69-.41-1.128.34-2.646-.362-4.046-.397-1.224-.038-3.382-.63-3.644.807M261.2 123.077c-.438.92-2.548.153-3.65.405h-2.826c-.23 0-.463.33 0 .408 4.093-.377 7.17 1.023 9.31-.408h-2.43c-.03-.252-.058-.476-.404-.405M208.157 124.297c1.27-.048 3.545.64 3.647-.812-3.316.298-5.477-.44-8.1.812 1.182-.044 2.897.046 4.453 0M219.9 124.297c1.274-.74 4.03.794 5.667-.812-1.45.34-7.142-.794-5.666.812M233.26 123.483c-1.328-.018-3.667-.263-2.83.407 2.398-.247 3.607.713 6.07.405.355-1.286-2.035-.792-3.24-.812M179.008 125.507h2.836c.542-.127.77-.572 1.62-.404 2.114.086 4.04-.01 5.665-.4.427-1.387-.72-.407-1.218-.405-1.33 0-3.482-.01-4.856 0-.754.318-1.48.667-2.43.805-.533-.05-2.924-.062-1.618.404M193.99 124.7h5.663c.183-1.324-1.848-.853-2.83-.81-1 .043-2.65.364-2.833.81M203.704 113.363c.03.57-1.175.458-.402.807 2.625-1.217 8.556 1.28 9.714-.807-2.71-1.123-5.862.537-9.312 0M225.568 116.6c3.103.802 5.47.115 9.312.408.51-1.59-1.393-.794-2.836-.81-2.8-.035-6.295-.09-6.476.403" fill="#256944"/><path d="M133.678 123.433h129.43V3h-129.43v120.433zm132.425 2.996H130.68V0h135.423v126.43zM37.44 190.445c-2.05-.09-3.788.6-5.158 1.912-1.32 1.267-1.973 2.827-1.973 4.672 0 1.16.273 2.276.848 3.276.573.998 1.375 1.79 2.367 2.366.986.566 2.21.85 3.61.85 1.696 0 3.22-.357 4.52-1.062l.274-.152v-3.185l-.85.546c-1.248.808-2.54 1.212-3.854 1.212-1.22 0-2.2-.33-2.973-1.062-.764-.725-1.123-1.65-1.123-2.79 0-1.126.375-2.013 1.153-2.762 1.564-1.497 4.137-1.484 6.705-.03l.82.455V191.6l-.334-.153c-1.465-.625-2.806-.948-4.035-1zm70.114 0c-1.952 0-3.622.654-4.915 1.912-1.307 1.262-1.943 2.84-1.943 4.733 0 1.807.62 3.352 1.882 4.58 1.248 1.23 2.955 1.852 5.035 1.852 1.486 0 2.99-.32 4.49-.97l.334-.153v-5.856h-5.007v2.58h2.245v1.485c-.782.238-1.472.363-2.033.363-1.246 0-2.225-.346-3.003-1.092-.766-.74-1.124-1.695-1.124-2.88 0-1.126.385-2.05 1.154-2.823 1.652-1.624 4.26-1.438 6.736 0l.818.486v-3.034l-.333-.123c-.91-.387-1.698-.666-2.337-.82-.65-.152-1.327-.242-2.002-.242zm61.802 0c-1.153 0-2.11.335-2.85 1.002-.757.682-1.155 1.595-1.155 2.67 0 .722.206 1.374.608 1.94.385.538 1.01 1.05 1.88 1.58l1.276.788c.85.53 1.274 1.04 1.274 1.547 0 .28-.107.477-.334.668-.252.21-.578.333-.97.333-1.016 0-1.9-.5-2.7-1.517l-.972-1.244v3.975l.212.182c1.034.775 2.217 1.152 3.49 1.152 1.143 0 2.09-.35 2.82-1.032.742-.69 1.124-1.583 1.124-2.67 0-1.512-.8-2.774-2.397-3.73l-1.274-.76c-.516-.308-.9-.59-1.122-.85-.172-.2-.273-.42-.273-.637 0-.145.05-.327.304-.515.265-.19.602-.273 1.032-.273.835 0 1.6.35 2.336 1.062l.91.88v-3.46l-.212-.18c-.898-.602-1.92-.912-3.004-.912zm157.343 0c-2.05-.09-3.754.598-5.13 1.912-1.318 1.262-2 2.822-2 4.672 0 1.165.304 2.28.88 3.276.568.998 1.37 1.79 2.366 2.366.982.566 2.176.85 3.58.85 1.692 0 3.217-.357 4.52-1.062l.272-.152v-3.185l-.818.546c-1.247.808-2.543 1.212-3.853 1.212-1.225 0-2.207-.36-2.973-1.092-.77-.723-1.154-1.62-1.154-2.76 0-1.126.405-2.016 1.184-2.762.786-.748 1.734-1.122 2.943-1.122 1.2 0 2.452.37 3.732 1.092l.818.455v-3.095l-.334-.15c-1.463-.625-2.807-.95-4.035-1.003zm18.05 0c-1.944 0-3.573.61-4.854 1.85-1.285 1.254-1.942 2.845-1.942 4.734 0 1.85.634 3.41 1.912 4.64 1.273 1.226 2.89 1.852 4.794 1.852 1.98 0 3.637-.6 4.945-1.82 1.324-1.235 2.003-2.83 2.003-4.703 0-1.87-.666-3.45-1.973-4.704-1.308-1.24-2.945-1.85-4.885-1.85zm34.62 0c-1.156 0-2.113.335-2.853 1.002-.754.684-1.154 1.598-1.154 2.67 0 .728.205 1.376.608 1.94.385.538 1.013 1.055 1.88 1.58l1.276.788c.847.53 1.274 1.04 1.274 1.547 0 .277-.115.482-.334.668-.25.21-.58.333-.97.333-1.02 0-1.9-.5-2.7-1.517l-.972-1.244v3.975l.213.182c1.034.775 2.217 1.152 3.49 1.152 1.144 0 2.09-.35 2.82-1.032.74-.69 1.123-1.583 1.123-2.67 0-1.512-.8-2.774-2.397-3.73l-1.304-.76c-.523-.31-.877-.592-1.094-.85-.175-.203-.273-.42-.273-.637 0-.145.03-.324.304-.515.252-.187.6-.273 1.03-.273.833 0 1.59.35 2.337 1.062l.94.88v-3.49l-.242-.15c-.907-.602-1.923-.912-3.003-.912zm-222.756.03c-.33.046-.652.213-.91.486-.3.324-.455.706-.455 1.154 0 .64.288 1.15.848 1.456-.03.2-.058.34-.087.425-.077.168-.22.345-.424.546l-.152.153v1.304l.698-.212c.727-.227 1.33-.65 1.76-1.214.427-.56.637-1.23.637-1.97 0-.59-.14-1.07-.426-1.457-.36-.506-.935-.744-1.487-.667zm-103.064.06L48.058 203.4h2.913l1.457-3.46h4.278l1.547 3.46h2.913l-5.735-12.864h-1.88zm34.404 0l-5.49 12.865h2.912l1.456-3.46h4.278l1.577 3.46h2.883l-5.704-12.864h-1.912zm54.096 0l-5.49 12.865h2.912l1.456-3.46h4.278l1.547 3.46h2.913l-5.734-12.864h-1.882zm119.175 0l-5.49 12.865h2.912l1.456-3.46h4.278l1.548 3.46h2.913l-5.733-12.864h-1.882zm100.91 0l-5.49 12.865h2.91l1.458-3.46h4.278l1.548 3.46h2.912l-5.733-12.864h-1.88zm-294.72.062V203.4h2.79v-5.097c.553.01.73.09.79.12.17.09.395.255.667.517.26.25.555.642.85 1.062l2.184 3.398h3.368l-1.245-1.7c-.242-.322-.574-.836-.97-1.485-.67-1.093-1.174-1.833-1.548-2.276-.17-.205-.34-.38-.516-.547.366-.247.66-.55.91-.91.4-.59.607-1.28.607-2.063 0-1.16-.42-2.097-1.244-2.792-.79-.666-1.845-1.03-3.156-1.03h-3.49zm173.27 0V203.4h2.762v-5.097c.535.01.75.086.818.12.125.07.345.23.668.548.24.232.51.566.85 1.032l1.092 1.79.333.455.455-.303-.364.425.667 1.03h3.367l-1.244-1.7c-.24-.322-.575-.83-.97-1.485-.698-1.126-1.184-1.843-1.547-2.276-.17-.205-.342-.38-.517-.547.364-.247.664-.55.91-.91.403-.586.608-1.274.608-2.063 0-1.16-.39-2.1-1.214-2.792-.794-.666-1.875-1.03-3.185-1.03h-3.49zm148.453 0v2.58h4.005V203.4h2.76v-10.224H400v-2.58h-10.862zm-388.622.03V203.4h2.67v-8.1l7.008 8.1h2.245v-12.773H9.77v8.13l-7.1-8.13H.516zm19.66 0V203.4h2.76v-12.773h-2.76zm99.696 0v7.16c0 .995.068 1.706.212 2.215.148.5.33.923.547 1.274.227.346.477.66.79.94 1.013.87 2.377 1.305 4.034 1.305 1.627 0 2.958-.428 3.975-1.303.32-.28.597-.595.82-.94.212-.345.39-.78.544-1.305.142-.527.243-1.26.243-2.185v-7.16h-2.79v7.16c0 1.062-.105 1.546-.183 1.76-.114.298-.29.542-.547.758-.516.436-1.234.668-2.093.668-.61 0-1.142-.115-1.577-.334-.415-.21-.71-.48-.91-.82-.14-.232-.304-.79-.304-2.033v-7.16h-2.76zm71.33 0v12.743h7.857v-2.58h-5.098v-2.548h4.793v-2.58h-4.793v-2.456h4.945v-2.58H191.2zm14.835 0V203.4h2.76v-8.1l2.822 3.52h.85l2.79-3.52v8.1h2.76v-12.773h-2.366l-3.61 4.46-3.61-4.46h-2.397zm19.72 0v12.743h7.89v-2.58h-5.097v-2.548h4.763v-2.58h-4.763v-2.456h4.945v-2.58h-7.737zm49.303 0V203.4h8.04v-2.61h-5.28v-10.163h-2.76zm14.746 0v12.743h4.246c1.13 0 1.798-.028 2.185-.092.406-.063.84-.18 1.305-.364.824-.313 1.563-.79 2.184-1.395.61-.594 1.103-1.293 1.426-2.064.326-.777.486-1.605.486-2.458 0-1.183-.315-2.294-.91-3.307-.6-1.01-1.412-1.783-2.427-2.305-1.015-.52-2.312-.758-4.005-.758h-4.49zm-219.6 2.488c.913 0 1.32.088 1.516.152.238.084.418.226.547.424.135.205.212.434.212.7 0 .274-.06.53-.183.727-.13.206-.295.326-.517.425-.108.05-.44.182-1.486.182h-.087v-2.61zm173.24 0c.916 0 1.35.082 1.547.152.242.08.415.223.547.424.133.202.21.432.21.7 0 .274-.057.526-.18.727-.12.2-.27.328-.486.425-.134.06-.516.182-1.517.182H243.45v-2.61zm101.366 0c1.135 0 2.08.37 2.85 1.122.77.744 1.124 1.634 1.124 2.73 0 1.134-.352 2.036-1.123 2.792-.766.753-1.712 1.122-2.882 1.122-1.16 0-2.117-.352-2.88-1.092-.762-.733-1.123-1.64-1.123-2.76 0-1.154.364-2.082 1.122-2.823.745-.728 1.725-1.092 2.912-1.092zm-52.246.09h1.548c.766 0 1.34 0 1.67.062.31.05.628.16 1 .334.348.164.66.373.94.638.74.69 1.093 1.565 1.093 2.67 0 1.138-.367 2.05-1.093 2.79-.224.225-.458.405-.728.547-.26.153-.594.29-1.002.395-.422.102-1.033.152-1.82.152h-1.608v-7.586zm-238.077 1.82l1.03 2.307h-1.97l.94-2.306zm34.435 0l1.032 2.307h-2.003l.97-2.306zm54.066 0l1.032 2.307h-1.972l.94-2.306zm119.206 0l1 2.307h-1.97l.97-2.306zm100.88 0l1.032 2.307h-1.972l.94-2.306z" fill="#43412a"/></svg>