<?xml version="1.0" encoding="UTF-8" standalone="no"?>
<!-- Created with Inkscape (http://www.inkscape.org/) -->

<svg
   xmlns:dc="http://purl.org/dc/elements/1.1/"
   xmlns:cc="http://creativecommons.org/ns#"
   xmlns:rdf="http://www.w3.org/1999/02/22-rdf-syntax-ns#"
   xmlns:svg="http://www.w3.org/2000/svg"
   xmlns="http://www.w3.org/2000/svg"
   xmlns:sodipodi="http://sodipodi.sourceforge.net/DTD/sodipodi-0.dtd"
   xmlns:inkscape="http://www.inkscape.org/namespaces/inkscape"
   width="343.00208"
   height="400"
   id="svg58920"
   version="1.1"
   inkscape:version="0.48.5 r10040"
   sodipodi:docname="hoteles_la_ceiba.svg">
  <defs
     id="defs58922">
    <clipPath
       id="clipPath54332"
       clipPathUnits="userSpaceOnUse">
      <path
         inkscape:connector-curvature="0"
         id="path54334"
         d="m 201.652,527.909 213.864,0 0,195.228 -213.864,0 0,-195.228 z" />
    </clipPath>
    <clipPath
       id="clipPath54500"
       clipPathUnits="userSpaceOnUse">
      <path
         inkscape:connector-curvature="0"
         id="path54502"
         d="M 0,0 612,0 612,792 0,792 0,0 z" />
    </clipPath>
  </defs>
  <sodipodi:namedview
     id="base"
     pagecolor="#ffffff"
     bordercolor="#666666"
     borderopacity="1.0"
     inkscape:pageopacity="0.0"
     inkscape:pageshadow="2"
     inkscape:zoom="0.35"
     inkscape:cx="171.50107"
     inkscape:cy="199.99999"
     inkscape:document-units="px"
     inkscape:current-layer="layer1"
     showgrid="false"
     fit-margin-top="0"
     fit-margin-left="0"
     fit-margin-right="0"
     fit-margin-bottom="0"
     inkscape:window-width="596"
     inkscape:window-height="434"
     inkscape:window-x="1"
     inkscape:window-y="61"
     inkscape:window-maximized="0" />
  <metadata
     id="metadata58925">
    <rdf:RDF>
      <cc:Work
         rdf:about="">
        <dc:format>image/svg+xml</dc:format>
        <dc:type
           rdf:resource="http://purl.org/dc/dcmitype/StillImage" />
        <dc:title />
      </cc:Work>
    </rdf:RDF>
  </metadata>
  <g
     inkscape:label="Capa 1"
     inkscape:groupmode="layer"
     id="layer1"
     transform="translate(-178.49893,-332.36218)">
    <path
       inkscape:connector-curvature="0"
       d="m 521.50101,732.36218 -343.00208,0 0,-400 343.00208,0 0,399.99989 z"
       style="fill:#ffffff;fill-opacity:1;fill-rule:nonzero;stroke:none"
       id="path54224" />
    <path
       inkscape:connector-curvature="0"
       d="m 516.81294,726.90133 -333.62714,0 0,-389.06874 333.62714,0 0,389.06874 z"
       style="fill:#005097;fill-opacity:1;fill-rule:nonzero;stroke:none"
       id="path54226" />
    <path
       inkscape:connector-curvature="0"
       d="m 501.03522,630.0772 -303.93752,0 0,-279.39122 303.93752,0 0,279.39122 z"
       style="fill:#39b54a;fill-opacity:1;fill-rule:nonzero;stroke:none"
       id="path54228" />
    <path
       inkscape:connector-curvature="0"
       d="m 202.44448,624.60811 294.02772,0 0,-268.40629 -294.02772,0 0,268.40629 z"
       style="fill:#00a1e4;fill-opacity:1;fill-rule:nonzero;stroke:none"
       id="path54230" />
    <path
       inkscape:connector-curvature="0"
       d="m 202.44448,356.54685 294.02772,0 0,-0.34503 -294.02772,0 0,0.34503 z"
       style="fill:#00b1e9;fill-opacity:1;fill-rule:nonzero;stroke:none"
       id="path54232" />
    <path
       inkscape:connector-curvature="0"
       d="m 202.44448,361.93345 294.02772,0 0,-3.36009 -294.02772,0 0,3.36009 z"
       style="fill:#00b1e9;fill-opacity:1;fill-rule:nonzero;stroke:none"
       id="path54234" />
    <path
       inkscape:connector-curvature="0"
       d="m 202.44448,367.32006 294.02772,0 0,-3.25418 -294.02772,0 0,3.25418 z"
       style="fill:#00b1e9;fill-opacity:1;fill-rule:nonzero;stroke:none"
       id="path54236" />
    <path
       inkscape:connector-curvature="0"
       d="m 202.44448,372.70809 294.02772,0 0,-3.15112 -294.02772,0 0,3.15112 z"
       style="fill:#00b1e9;fill-opacity:1;fill-rule:nonzero;stroke:none"
       id="path54238" />
    <path
       inkscape:connector-curvature="0"
       d="m 202.44448,378.09194 294.02772,0 0,-3.04531 -294.02772,0 0,3.04531 z"
       style="fill:#00b1e9;fill-opacity:1;fill-rule:nonzero;stroke:none"
       id="path54240" />
    <path
       inkscape:connector-curvature="0"
       d="m 202.44448,383.47987 294.02772,0 0,-2.94072 -294.02772,0 0,2.94072 z"
       style="fill:#00b1e9;fill-opacity:1;fill-rule:nonzero;stroke:none"
       id="path54242" />
    <path
       inkscape:connector-curvature="0"
       d="m 202.44448,388.86647 294.02772,0 0,-2.83623 -294.02772,0 0,2.83623 z"
       style="fill:#00b1e9;fill-opacity:1;fill-rule:nonzero;stroke:none"
       id="path54244" />
    <path
       inkscape:connector-curvature="0"
       d="m 202.44448,394.25175 294.02772,0 0,-2.73185 -294.02772,0 0,2.73185 z"
       style="fill:#00b1e9;fill-opacity:1;fill-rule:nonzero;stroke:none"
       id="path54246" />
    <path
       inkscape:connector-curvature="0"
       d="m 202.44448,399.63968 294.02772,0 0,-2.62726 -294.02772,0 0,2.62726 z"
       style="fill:#00b1e9;fill-opacity:1;fill-rule:nonzero;stroke:none"
       id="path54248" />
    <path
       inkscape:connector-curvature="0"
       d="m 202.44448,405.02628 294.02772,0 0,-2.52277 -294.02772,0 0,2.52277 z"
       style="fill:#00b1e9;fill-opacity:1;fill-rule:nonzero;stroke:none"
       id="path54250" />
    <path
       inkscape:connector-curvature="0"
       d="m 202.44448,410.41156 294.02772,0 0,-2.41696 -294.02772,0 0,2.41696 z"
       style="fill:#00b1e9;fill-opacity:1;fill-rule:nonzero;stroke:none"
       id="path54252" />
    <path
       inkscape:connector-curvature="0"
       d="m 202.44448,415.79817 294.02772,0 0,-2.31247 -294.02772,0 0,2.31247 z"
       style="fill:#00b1e9;fill-opacity:1;fill-rule:nonzero;stroke:none"
       id="path54254" />
    <path
       inkscape:connector-curvature="0"
       d="m 202.44448,421.18609 294.02772,0 0,-2.20798 -294.02772,0 0,2.20798 z"
       style="fill:#00b1e9;fill-opacity:1;fill-rule:nonzero;stroke:none"
       id="path54256" />
    <path
       inkscape:connector-curvature="0"
       d="m 202.44448,426.57137 294.02772,0 0,-2.10217 -294.02772,0 0,2.10217 z"
       style="fill:#00b1e9;fill-opacity:1;fill-rule:nonzero;stroke:none"
       id="path54258" />
    <path
       inkscape:connector-curvature="0"
       d="m 202.44448,431.95798 294.02772,0 0,-1.99769 -294.02772,0 0,1.99769 z"
       style="fill:#00b1e9;fill-opacity:1;fill-rule:nonzero;stroke:none"
       id="path54260" />
    <path
       inkscape:connector-curvature="0"
       d="m 202.44448,437.34458 294.02772,0 0,-1.89177 -294.02772,0 0,1.89177 z"
       style="fill:#00b1e9;fill-opacity:1;fill-rule:nonzero;stroke:none"
       id="path54262" />
    <path
       inkscape:connector-curvature="0"
       d="m 202.44448,442.73251 294.02772,0 0,-1.78861 -294.02772,0 0,1.78861 z"
       style="fill:#00b1e9;fill-opacity:1;fill-rule:nonzero;stroke:none"
       id="path54264" />
    <path
       inkscape:connector-curvature="0"
       d="m 202.44448,448.11911 294.02772,0 0,-1.68412 -294.02772,0 0,1.68412 z"
       style="fill:#00b1e9;fill-opacity:1;fill-rule:nonzero;stroke:none"
       id="path54266" />
    <path
       inkscape:connector-curvature="0"
       d="m 202.44448,453.50714 294.02772,0 0,-1.57974 -294.02772,0 0,1.57974 z"
       style="fill:#00b1e9;fill-opacity:1;fill-rule:nonzero;stroke:none"
       id="path54268" />
    <path
       inkscape:connector-curvature="0"
       d="m 202.44448,458.89232 294.02772,0 0,-1.47515 -294.02772,0 0,1.47515 z"
       style="fill:#00b1e9;fill-opacity:1;fill-rule:nonzero;stroke:none"
       id="path54270" />
    <path
       inkscape:connector-curvature="0"
       d="m 202.44448,464.27892 294.02772,0 0,-1.36934 -294.02772,0 0,1.36934 z"
       style="fill:#00b1e9;fill-opacity:1;fill-rule:nonzero;stroke:none"
       id="path54272" />
    <path
       inkscape:connector-curvature="0"
       d="m 202.44448,469.66552 294.02772,0 0,-1.26485 -294.02772,0 0,1.26485 z"
       style="fill:#00b1e9;fill-opacity:1;fill-rule:nonzero;stroke:none"
       id="path54274" />
    <path
       inkscape:connector-curvature="0"
       d="m 202.44448,475.05213 294.02772,0 0,-1.16036 -294.02772,0 0,1.16036 z"
       style="fill:#00b1e9;fill-opacity:1;fill-rule:nonzero;stroke:none"
       id="path54276" />
    <path
       inkscape:connector-curvature="0"
       d="m 202.44448,480.43873 294.02772,0 0,-1.05587 -294.02772,0 0,1.05587 z"
       style="fill:#00b1e9;fill-opacity:1;fill-rule:nonzero;stroke:none"
       id="path54278" />
    <path
       inkscape:connector-curvature="0"
       d="m 202.44448,612.58512 294.02772,0 0,-3.55807 -294.02772,0 0,3.55807 z"
       style="fill:#00b1e9;fill-opacity:1;fill-rule:nonzero;stroke:none"
       id="path54280" />
    <path
       inkscape:connector-curvature="0"
       d="m 202.44448,607.02254 294.02772,0 0,-3.44809 -294.02772,0 0,3.44809 z"
       style="fill:#00b1e9;fill-opacity:1;fill-rule:nonzero;stroke:none"
       id="path54282" />
    <path
       inkscape:connector-curvature="0"
       d="m 202.44448,601.45996 294.02772,0 0,-3.33942 -294.02772,0 0,3.33942 z"
       style="fill:#00b1e9;fill-opacity:1;fill-rule:nonzero;stroke:none"
       id="path54284" />
    <path
       inkscape:connector-curvature="0"
       d="m 202.44448,595.90012 294.02772,0 0,-3.23086 -294.02772,0 0,3.23086 z"
       style="fill:#00b1e9;fill-opacity:1;fill-rule:nonzero;stroke:none"
       id="path54286" />
    <path
       inkscape:connector-curvature="0"
       d="m 202.44448,590.33622 294.02772,0 0,-3.12362 -294.02772,0 0,3.12362 z"
       style="fill:#00b1e9;fill-opacity:1;fill-rule:nonzero;stroke:none"
       id="path54288" />
    <path
       inkscape:connector-curvature="0"
       d="m 202.44448,584.77639 294.02772,0 0,-3.01232 -294.02772,0 0,3.01232 z"
       style="fill:#00b1e9;fill-opacity:1;fill-rule:nonzero;stroke:none"
       id="path54290" />
    <path
       inkscape:connector-curvature="0"
       d="m 202.44448,579.21238 294.02772,0 0,-2.90366 -294.02772,0 0,2.90366 z"
       style="fill:#00b1e9;fill-opacity:1;fill-rule:nonzero;stroke:none"
       id="path54292" />
    <path
       inkscape:connector-curvature="0"
       d="m 202.44448,573.65254 294.02772,0 0,-2.79366 -294.02772,0 0,2.79366 z"
       style="fill:#00b1e9;fill-opacity:1;fill-rule:nonzero;stroke:none"
       id="path54294" />
    <path
       inkscape:connector-curvature="0"
       d="m 202.44448,568.08996 294.02772,0 0,-2.68643 -294.02772,0 0,2.68643 z"
       style="fill:#00b1e9;fill-opacity:1;fill-rule:nonzero;stroke:none"
       id="path54296" />
    <path
       inkscape:connector-curvature="0"
       d="m 202.44448,562.52881 294.02772,0 0,-2.57919 -294.02772,0 0,2.57919 z"
       style="fill:#00b1e9;fill-opacity:1;fill-rule:nonzero;stroke:none"
       id="path54298" />
    <path
       inkscape:connector-curvature="0"
       d="m 202.44448,556.96623 294.02772,0 0,-2.46921 -294.02772,0 0,2.46921 z"
       style="fill:#00b1e9;fill-opacity:1;fill-rule:nonzero;stroke:none"
       id="path54300" />
    <path
       inkscape:connector-curvature="0"
       d="m 202.44448,551.40364 294.02772,0 0,-2.35789 -294.02772,0 0,2.35789 z"
       style="fill:#00b1e9;fill-opacity:1;fill-rule:nonzero;stroke:none"
       id="path54302" />
    <path
       inkscape:connector-curvature="0"
       d="m 202.44448,545.84106 294.02772,0 0,-2.24923 -294.02772,0 0,2.24923 z"
       style="fill:#00b1e9;fill-opacity:1;fill-rule:nonzero;stroke:none"
       id="path54304" />
    <path
       inkscape:connector-curvature="0"
       d="m 202.44448,540.28123 294.02772,0 0,-2.142 -294.02772,0 0,2.142 z"
       style="fill:#00b1e9;fill-opacity:1;fill-rule:nonzero;stroke:none"
       id="path54306" />
    <path
       inkscape:connector-curvature="0"
       d="m 202.44448,534.71997 294.02772,0 0,-2.03333 -294.02772,0 0,2.03333 z"
       style="fill:#00b1e9;fill-opacity:1;fill-rule:nonzero;stroke:none"
       id="path54308" />
    <path
       inkscape:connector-curvature="0"
       d="m 202.44448,529.15881 294.02772,0 0,-1.92345 -294.02772,0 0,1.92345 z"
       style="fill:#00b1e9;fill-opacity:1;fill-rule:nonzero;stroke:none"
       id="path54310" />
    <path
       inkscape:connector-curvature="0"
       d="m 202.44448,523.5948 294.02772,0 0,-1.81335 -294.02772,0 0,1.81335 z"
       style="fill:#00b1e9;fill-opacity:1;fill-rule:nonzero;stroke:none"
       id="path54312" />
    <path
       inkscape:connector-curvature="0"
       d="m 202.44448,518.03365 294.02772,0 0,-1.7048 -294.02772,0 0,1.7048 z"
       style="fill:#00b1e9;fill-opacity:1;fill-rule:nonzero;stroke:none"
       id="path54314" />
    <path
       inkscape:connector-curvature="0"
       d="m 202.44448,512.47107 294.02772,0 0,-1.59624 -294.02772,0 0,1.59624 z"
       style="fill:#00b1e9;fill-opacity:1;fill-rule:nonzero;stroke:none"
       id="path54316" />
    <path
       inkscape:connector-curvature="0"
       d="m 202.44448,506.91123 294.02772,0 0,-1.48768 -294.02772,0 0,1.48768 z"
       style="fill:#00b1e9;fill-opacity:1;fill-rule:nonzero;stroke:none"
       id="path54318" />
    <path
       inkscape:connector-curvature="0"
       d="m 202.44448,501.34722 294.02772,0 0,-1.37758 -294.02772,0 0,1.37758 z"
       style="fill:#00b1e9;fill-opacity:1;fill-rule:nonzero;stroke:none"
       id="path54320" />
    <path
       inkscape:connector-curvature="0"
       d="m 202.44448,495.78607 294.02772,0 0,-1.2676 -294.02772,0 0,1.2676 z"
       style="fill:#00b1e9;fill-opacity:1;fill-rule:nonzero;stroke:none"
       id="path54322" />
    <path
       inkscape:connector-curvature="0"
       d="m 202.44448,490.22349 294.02772,0 0,-1.15905 -294.02772,0 0,1.15905 z"
       style="fill:#00b1e9;fill-opacity:1;fill-rule:nonzero;stroke:none"
       id="path54324" />
    <path
       inkscape:connector-curvature="0"
       d="m 202.44448,484.66222 294.02772,0 0,-1.04894 -294.02772,0 0,1.04894 z"
       style="fill:#00b1e9;fill-opacity:1;fill-rule:nonzero;stroke:none"
       id="path54326" />
    <g
       clip-path="url(#clipPath54332)"
       id="g54330"
       transform="matrix(1.374835,0,0,-1.374835,-74.793743,1350.3958)">
      <g
         transform="translate(198.6106,524.4617)"
         id="g54336">
        <path
           id="path54338"
           style="fill:#39b54a;fill-opacity:1;fill-rule:nonzero;stroke:none"
           d="m 0,0 c 0,0 43.883,37.63 60.598,40.274 0,0 48.239,11.02 85.846,5.323 0,0 23.357,0 37.422,-12.149 0,0 33.8,-32.681 38.732,-34.193 L 165.243,-1.106 139.032,-2.645 90.414,-12.898 23.934,-10.634 0,0 z"
           inkscape:connector-curvature="0" />
      </g>
      <g
         transform="translate(198.6106,524.4617)"
         id="g54340">
        <path
           id="path54342"
           style="fill:none;stroke:#005097;stroke-width:1.70899999;stroke-linecap:round;stroke-linejoin:round;stroke-miterlimit:4;stroke-opacity:1;stroke-dasharray:none"
           d="m 0,0 c 0,0 43.883,37.63 60.598,40.274 0,0 48.239,11.02 85.846,5.323 0,0 23.357,0 37.422,-12.149 0,0 33.8,-32.681 38.732,-34.193 L 165.243,-1.106 139.032,-2.645 90.414,-12.898 23.934,-10.634 0,0 z"
           inkscape:connector-curvature="0" />
      </g>
      <g
         transform="translate(238.8838,667.5269)"
         id="g54344">
        <path
           id="path54346"
           style="fill:#a97b50;fill-opacity:1;fill-rule:nonzero;stroke:none"
           d="m 0,0 c 0,0 41.186,-21.941 46.195,-51.586 l 0,-39.262 c 0,0 2.322,-35.432 -30.402,-35.432 l 7.312,-3.463 c 0,0 36.578,24.258 43.109,5 l 2.32,-0.382 c 0,0 6.535,23.109 38.873,13.117 0,0 -26.937,9.608 -28.868,29.628 l 0,35.406 c 0,0 -0.387,18.492 16.558,31.97 0,0 14.625,13.091 38.106,12.709 l -0.383,3.839 c 0,0 -15.399,0 -28.873,-2.3 0,0 2.415,1.684 4.506,2.041 0,0 5.694,9.309 13.472,14.054 0,0 3.613,10.461 -27.149,-15.185 0,0 -10.823,-10.057 -18.044,-12.702 0,0 -10.633,-4.395 -12.916,-13.323 0,0 0.384,4.182 2.657,7.602 0,0 -11.394,16.914 -3.22,32.11 0,0 -5.708,7.601 -7.412,-15.968 l -0.762,3.799 c 0,0 -5.315,8.545 -15.756,11.412 l -0.96,-2.269 c 0,0 18.618,-11.79 18.236,-41.239 0,0 3.042,-3.989 3.233,-7.403 0,0 -1.912,6.081 -11.401,13.108 l -16.9,12.339 c 0,0 -8.543,3.8 -13.105,21.27 0,0 -7.416,3.42 4.175,-19.365 l -2.849,3.418 c 0,0 -13.485,10.078 -21.075,12.722 L 0,0 z"
           inkscape:connector-curvature="0" />
      </g>
      <g
         transform="translate(238.8838,667.5269)"
         id="g54348">
        <path
           id="path54350"
           style="fill:none;stroke:#005097;stroke-width:1.70899999;stroke-linecap:round;stroke-linejoin:round;stroke-miterlimit:4;stroke-opacity:1;stroke-dasharray:none"
           d="m 0,0 c 0,0 41.186,-21.941 46.195,-51.586 l 0,-39.262 c 0,0 2.322,-35.432 -30.402,-35.432 l 7.312,-3.463 c 0,0 36.578,24.258 43.109,5 l 2.32,-0.382 c 0,0 6.535,23.109 38.873,13.117 0,0 -26.937,9.608 -28.868,29.628 l 0,35.406 c 0,0 -0.387,18.492 16.558,31.97 0,0 14.625,13.091 38.106,12.709 l -0.383,3.839 c 0,0 -15.399,0 -28.873,-2.3 0,0 2.415,1.684 4.506,2.041 0,0 5.694,9.309 13.472,14.054 0,0 3.613,10.461 -27.149,-15.185 0,0 -10.823,-10.057 -18.044,-12.702 0,0 -10.633,-4.395 -12.916,-13.323 0,0 0.384,4.182 2.657,7.602 0,0 -11.394,16.914 -3.22,32.11 0,0 -5.708,7.601 -7.412,-15.968 l -0.762,3.799 c 0,0 -5.315,8.545 -15.756,11.412 l -0.96,-2.269 c 0,0 18.618,-11.79 18.236,-41.239 0,0 3.042,-3.989 3.233,-7.403 0,0 -1.912,6.081 -11.401,13.108 l -16.9,12.339 c 0,0 -8.543,3.8 -13.105,21.27 0,0 -7.416,3.42 4.175,-19.365 l -2.849,3.418 c 0,0 -13.485,10.078 -21.075,12.722 L 0,0 z"
           inkscape:connector-curvature="0" />
      </g>
      <g
         transform="translate(204.89,663.8818)"
         id="g54352">
        <path
           id="path54354"
           style="fill:#a6ce39;fill-opacity:1;fill-rule:nonzero;stroke:none"
           d="M 0,0 C 0,0 6.831,19.749 33.429,6.084 33.429,6.084 26.586,-15.179 0,0"
           inkscape:connector-curvature="0" />
      </g>
      <g
         transform="translate(204.89,663.8818)"
         id="g54356">
        <path
           id="path54358"
           style="fill:none;stroke:#005097;stroke-width:1.70899999;stroke-linecap:round;stroke-linejoin:round;stroke-miterlimit:4;stroke-opacity:1;stroke-dasharray:none"
           d="M 0,0 C 0,0 6.831,19.749 33.429,6.084 33.429,6.084 26.586,-15.179 0,0 z"
           inkscape:connector-curvature="0" />
      </g>
      <g
         transform="translate(207.2124,687.4787)"
         id="g54360">
        <path
           id="path54362"
           style="fill:#a6ce39;fill-opacity:1;fill-rule:nonzero;stroke:none"
           d="M 0,0 C 0,0 15.049,4.228 30.413,-16.532 30.413,-16.532 14.916,-23.486 0,0"
           inkscape:connector-curvature="0" />
      </g>
      <g
         transform="translate(207.2124,687.4787)"
         id="g54364">
        <path
           id="path54366"
           style="fill:none;stroke:#005097;stroke-width:1.70899999;stroke-linecap:round;stroke-linejoin:round;stroke-miterlimit:4;stroke-opacity:1;stroke-dasharray:none"
           d="M 0,0 C 0,0 15.049,4.228 30.413,-16.532 30.413,-16.532 14.916,-23.486 0,0 z"
           inkscape:connector-curvature="0" />
      </g>
      <g
         transform="translate(234.1316,709.8557)"
         id="g54368">
        <path
           id="path54370"
           style="fill:#a6ce39;fill-opacity:1;fill-rule:nonzero;stroke:none"
           d="M 0,0 C 0,0 -15.192,-20.886 2.656,-38.732 2.656,-38.732 14.82,-24.686 0,0"
           inkscape:connector-curvature="0" />
      </g>
      <g
         transform="translate(234.1316,709.8557)"
         id="g54372">
        <path
           id="path54374"
           style="fill:none;stroke:#005097;stroke-width:1.70899999;stroke-linecap:round;stroke-linejoin:round;stroke-miterlimit:4;stroke-opacity:1;stroke-dasharray:none"
           d="M 0,0 C 0,0 -15.192,-20.886 2.656,-38.732 2.656,-38.732 14.82,-24.686 0,0 z"
           inkscape:connector-curvature="0" />
      </g>
      <g
         transform="translate(256.2002,709.1269)"
         id="g54376">
        <path
           id="path54378"
           style="fill:#a6ce39;fill-opacity:1;fill-rule:nonzero;stroke:none"
           d="m 0,0 c 0,0 -17.971,-10.672 0.769,-33.946 0,0 19.464,10.959 -0.769,33.946"
           inkscape:connector-curvature="0" />
      </g>
      <g
         transform="translate(256.2002,709.1269)"
         id="g54380">
        <path
           id="path54382"
           style="fill:none;stroke:#005097;stroke-width:1.70899999;stroke-linecap:round;stroke-linejoin:round;stroke-miterlimit:4;stroke-opacity:1;stroke-dasharray:none"
           d="m 0,0 c 0,0 -17.971,-10.672 0.769,-33.946 0,0 19.464,10.959 -0.769,33.946 z"
           inkscape:connector-curvature="0" />
      </g>
      <g
         transform="translate(233.5519,702.0832)"
         id="g54384">
        <path
           id="path54386"
           style="fill:#a6ce39;fill-opacity:1;fill-rule:nonzero;stroke:none"
           d="M 0,0 C 0,0 -1.095,-15.583 22.331,-26.431 22.331,-26.431 26.01,-9.867 0,0"
           inkscape:connector-curvature="0" />
      </g>
      <g
         transform="translate(233.5519,702.0832)"
         id="g54388">
        <path
           id="path54390"
           style="fill:none;stroke:#005097;stroke-width:1.70899999;stroke-linecap:round;stroke-linejoin:round;stroke-miterlimit:4;stroke-opacity:1;stroke-dasharray:none"
           d="M 0,0 C 0,0 -1.095,-15.583 22.331,-26.431 22.331,-26.431 26.01,-9.867 0,0 z"
           inkscape:connector-curvature="0" />
      </g>
      <g
         transform="translate(217.0582,671.2286)"
         id="g54392">
        <path
           id="path54394"
           style="fill:#a6ce39;fill-opacity:1;fill-rule:nonzero;stroke:none"
           d="M 0,0 C 0,0 17.413,19.096 38.488,5.188 38.488,5.188 27.174,-9.54 0,0"
           inkscape:connector-curvature="0" />
      </g>
      <g
         transform="translate(217.0582,671.2286)"
         id="g54396">
        <path
           id="path54398"
           style="fill:none;stroke:#005097;stroke-width:1.70899999;stroke-linecap:round;stroke-linejoin:round;stroke-miterlimit:4;stroke-opacity:1;stroke-dasharray:none"
           d="M 0,0 C 0,0 17.413,19.096 38.488,5.188 38.488,5.188 27.174,-9.54 0,0 z"
           inkscape:connector-curvature="0" />
      </g>
      <g
         transform="translate(248.1945,680.3481)"
         id="g54400">
        <path
           id="path54402"
           style="fill:#a6ce39;fill-opacity:1;fill-rule:nonzero;stroke:none"
           d="M 0,0 C 0,0 11.871,17.21 33.834,-3.081 33.834,-3.081 21.556,-21.733 0,0"
           inkscape:connector-curvature="0" />
      </g>
      <g
         transform="translate(248.1945,680.3481)"
         id="g54404">
        <path
           id="path54406"
           style="fill:none;stroke:#005097;stroke-width:1.70899999;stroke-linecap:round;stroke-linejoin:round;stroke-miterlimit:4;stroke-opacity:1;stroke-dasharray:none"
           d="M 0,0 C 0,0 11.871,17.21 33.834,-3.081 33.834,-3.081 21.556,-21.733 0,0 z"
           inkscape:connector-curvature="0" />
      </g>
      <g
         transform="translate(256.7532,702.4653)"
         id="g54408">
        <path
           id="path54410"
           style="fill:#a6ce39;fill-opacity:1;fill-rule:nonzero;stroke:none"
           d="M 0,0 C 0,0 15.615,0.044 24.86,-24.081 24.86,-24.081 8.087,-26.608 0,0"
           inkscape:connector-curvature="0" />
      </g>
      <g
         transform="translate(256.7532,702.4653)"
         id="g54412">
        <path
           id="path54414"
           style="fill:none;stroke:#005097;stroke-width:1.70899999;stroke-linecap:round;stroke-linejoin:round;stroke-miterlimit:4;stroke-opacity:1;stroke-dasharray:none"
           d="M 0,0 C 0,0 15.615,0.044 24.86,-24.081 24.86,-24.081 8.087,-26.608 0,0 z"
           inkscape:connector-curvature="0" />
      </g>
      <g
         transform="translate(288.672,716.8183)"
         id="g54416">
        <path
           id="path54418"
           style="fill:#a6ce39;fill-opacity:1;fill-rule:nonzero;stroke:none"
           d="m 0,0 c 0,0 -20.232,-16.055 -7.81,-38.044 0,0 15.474,10.288 7.81,38.044"
           inkscape:connector-curvature="0" />
      </g>
      <g
         transform="translate(288.672,716.8183)"
         id="g54420">
        <path
           id="path54422"
           style="fill:none;stroke:#005097;stroke-width:1.70899999;stroke-linecap:round;stroke-linejoin:round;stroke-miterlimit:4;stroke-opacity:1;stroke-dasharray:none"
           d="m 0,0 c 0,0 -20.232,-16.055 -7.81,-38.044 0,0 15.474,10.288 7.81,38.044 z"
           inkscape:connector-curvature="0" />
      </g>
      <g
         transform="translate(332.4101,678.66)"
         id="g54424">
        <path
           id="path54426"
           style="fill:#a6ce39;fill-opacity:1;fill-rule:nonzero;stroke:none"
           d="m 0,0 c 0,0 -9.737,18.516 -33.97,0.983 0,0 9.961,-20.014 33.97,-0.983"
           inkscape:connector-curvature="0" />
      </g>
      <g
         transform="translate(332.4101,678.66)"
         id="g54428">
        <path
           id="path54430"
           style="fill:none;stroke:#005097;stroke-width:1.70899999;stroke-linecap:round;stroke-linejoin:round;stroke-miterlimit:4;stroke-opacity:1;stroke-dasharray:none"
           d="m 0,0 c 0,0 -9.737,18.516 -33.97,0.983 0,0 9.961,-20.014 33.97,-0.983 z"
           inkscape:connector-curvature="0" />
      </g>
      <g
         transform="translate(326.5485,701.6583)"
         id="g54432">
        <path
           id="path54434"
           style="fill:#a6ce39;fill-opacity:1;fill-rule:nonzero;stroke:none"
           d="m 0,0 c 0,0 -15.501,1.88 -27.567,-20.971 0,0 16.369,-4.506 27.567,20.971"
           inkscape:connector-curvature="0" />
      </g>
      <g
         transform="translate(326.5485,701.6583)"
         id="g54436">
        <path
           id="path54438"
           style="fill:none;stroke:#005097;stroke-width:1.70899999;stroke-linecap:round;stroke-linejoin:round;stroke-miterlimit:4;stroke-opacity:1;stroke-dasharray:none"
           d="m 0,0 c 0,0 -15.501,1.88 -27.567,-20.971 0,0 16.369,-4.506 27.567,20.971 z"
           inkscape:connector-curvature="0" />
      </g>
      <g
         transform="translate(296.5678,719.6985)"
         id="g54440">
        <path
           id="path54442"
           style="fill:#a6ce39;fill-opacity:1;fill-rule:nonzero;stroke:none"
           d="m 0,0 c 0,0 18.165,-18.382 3.204,-38.711 0,0 -14.127,12.087 -3.204,38.711"
           inkscape:connector-curvature="0" />
      </g>
      <g
         transform="translate(296.5678,719.6985)"
         id="g54444">
        <path
           id="path54446"
           style="fill:none;stroke:#005097;stroke-width:1.70899999;stroke-linecap:round;stroke-linejoin:round;stroke-miterlimit:4;stroke-opacity:1;stroke-dasharray:none"
           d="m 0,0 c 0,0 18.165,-18.382 3.204,-38.711 0,0 -14.127,12.087 -3.204,38.711 z"
           inkscape:connector-curvature="0" />
      </g>
      <g
         transform="translate(389.7646,680.1804)"
         id="g54448">
        <path
           id="path54450"
           style="fill:#a6ce39;fill-opacity:1;fill-rule:nonzero;stroke:none"
           d="m 0,0 c 0,0 -9.73,18.507 -33.964,0.978 0,0 9.967,-19.984 33.964,-0.978"
           inkscape:connector-curvature="0" />
      </g>
      <g
         transform="translate(389.7646,680.1804)"
         id="g54452">
        <path
           id="path54454"
           style="fill:none;stroke:#005097;stroke-width:1.70899999;stroke-linecap:round;stroke-linejoin:round;stroke-miterlimit:4;stroke-opacity:1;stroke-dasharray:none"
           d="m 0,0 c 0,0 -9.73,18.507 -33.964,0.978 0,0 9.967,-19.984 33.964,-0.978 z"
           inkscape:connector-curvature="0" />
      </g>
      <g
         transform="translate(383.9079,703.1539)"
         id="g54456">
        <path
           id="path54458"
           style="fill:#a6ce39;fill-opacity:1;fill-rule:nonzero;stroke:none"
           d="m 0,0 c 0,0 -15.496,1.918 -27.568,-20.927 0,0 16.363,-4.532 27.568,20.927"
           inkscape:connector-curvature="0" />
      </g>
      <g
         transform="translate(383.9079,703.1539)"
         id="g54460">
        <path
           id="path54462"
           style="fill:none;stroke:#005097;stroke-width:1.70899999;stroke-linecap:round;stroke-linejoin:round;stroke-miterlimit:4;stroke-opacity:1;stroke-dasharray:none"
           d="m 0,0 c 0,0 -15.496,1.918 -27.568,-20.927 0,0 16.363,-4.532 27.568,20.927 z"
           inkscape:connector-curvature="0" />
      </g>
      <g
         transform="translate(353.9366,721.2139)"
         id="g54464">
        <path
           id="path54466"
           style="fill:#a6ce39;fill-opacity:1;fill-rule:nonzero;stroke:none"
           d="m 0,0 c 0,0 18.16,-18.358 3.204,-38.689 0,0 -14.136,12.044 -3.204,38.689"
           inkscape:connector-curvature="0" />
      </g>
      <g
         transform="translate(353.9366,721.2139)"
         id="g54468">
        <path
           id="path54470"
           style="fill:none;stroke:#005097;stroke-width:1.70899999;stroke-linecap:round;stroke-linejoin:round;stroke-miterlimit:4;stroke-opacity:1;stroke-dasharray:none"
           d="m 0,0 c 0,0 18.16,-18.358 3.204,-38.689 0,0 -14.136,12.044 -3.204,38.689 z"
           inkscape:connector-curvature="0" />
      </g>
      <g
         transform="translate(399.2985,684.8365)"
         id="g54472">
        <path
           id="path54474"
           style="fill:#a6ce39;fill-opacity:1;fill-rule:nonzero;stroke:none"
           d="m 0,0 c 0,0 0.248,-20.887 -29.402,-17.003 0,0 -0.745,22.339 29.402,17.003"
           inkscape:connector-curvature="0" />
      </g>
      <g
         transform="translate(399.2985,684.8365)"
         id="g54476">
        <path
           id="path54478"
           style="fill:none;stroke:#005097;stroke-width:1.70899999;stroke-linecap:round;stroke-linejoin:round;stroke-miterlimit:4;stroke-opacity:1;stroke-dasharray:none"
           d="m 0,0 c 0,0 0.248,-20.887 -29.402,-17.003 0,0 -0.745,22.339 29.402,17.003 z"
           inkscape:connector-curvature="0" />
      </g>
      <g
         transform="translate(405.0759,661.8361)"
         id="g54480">
        <path
           id="path54482"
           style="fill:#a6ce39;fill-opacity:1;fill-rule:nonzero;stroke:none"
           d="M 0,0 C 0,0 -12.721,-9.036 -34.199,5.314 -34.199,5.314 -21.968,17.06 0,0"
           inkscape:connector-curvature="0" />
      </g>
      <g
         transform="translate(405.0759,661.8361)"
         id="g54484">
        <path
           id="path54486"
           style="fill:none;stroke:#005097;stroke-width:1.70899999;stroke-linecap:round;stroke-linejoin:round;stroke-miterlimit:4;stroke-opacity:1;stroke-dasharray:none"
           d="M 0,0 C 0,0 -12.721,-9.036 -34.199,5.314 -34.199,5.314 -21.968,17.06 0,0 z"
           inkscape:connector-curvature="0" />
      </g>
      <g
         transform="translate(387.3109,631.705)"
         id="g54488">
        <path
           id="path54490"
           style="fill:#a6ce39;fill-opacity:1;fill-rule:nonzero;stroke:none"
           d="M 0,0 C 0,0 7.242,24.787 -15.597,35.55 -15.597,35.55 -22.291,18.206 0,0"
           inkscape:connector-curvature="0" />
      </g>
      <g
         transform="translate(387.3109,631.705)"
         id="g54492">
        <path
           id="path54494"
           style="fill:none;stroke:#005097;stroke-width:1.70899999;stroke-linecap:round;stroke-linejoin:round;stroke-miterlimit:4;stroke-opacity:1;stroke-dasharray:none"
           d="M 0,0 C 0,0 7.242,24.787 -15.597,35.55 -15.597,35.55 -22.291,18.206 0,0 z"
           inkscape:connector-curvature="0" />
      </g>
    </g>
    <g
       clip-path="url(#clipPath54500)"
       id="g54498"
       transform="matrix(1.374835,0,0,-1.374835,-74.793743,1350.3958)">
      <g
         transform="translate(214.5636,497.5767)"
         id="g54504">
        <path
           id="path54506"
           style="fill:#ffffff;fill-opacity:1;fill-rule:nonzero;stroke:none"
           d="m 0,0 c 0,-6.01 0,-9.25 0.987,-10.095 0.797,-0.704 2.018,-1.034 5.68,-1.034 2.488,0 4.32,0.048 5.494,1.315 0.563,0.611 1.127,1.926 1.22,2.818 0.048,0.423 0.141,0.704 0.517,0.704 0.329,0 0.376,-0.234 0.376,-0.798 0,-0.516 -0.329,-4.039 -0.704,-5.399 -0.282,-1.033 -0.517,-1.269 -2.959,-1.269 -3.38,0 -5.821,0.095 -7.934,0.141 -2.113,0.095 -3.803,0.141 -5.729,0.141 -0.517,0 -1.55,0 -2.677,-0.046 -1.079,0 -2.3,-0.095 -3.239,-0.095 -0.61,0 -0.939,0.141 -0.939,0.47 0,0.235 0.188,0.376 0.751,0.376 0.704,0 1.268,0.093 1.691,0.188 0.939,0.187 1.173,1.22 1.36,2.582 0.236,1.972 0.236,5.682 0.236,10.001 l 0,8.264 c 0,7.137 0,8.452 -0.094,9.955 -0.094,1.596 -0.47,2.347 -2.019,2.675 -0.376,0.095 -0.939,0.141 -1.55,0.141 -0.517,0 -0.798,0.095 -0.798,0.423 0,0.329 0.329,0.423 1.034,0.423 2.206,0 5.164,-0.141 6.432,-0.141 1.127,0 4.554,0.141 6.385,0.141 0.658,0 0.987,-0.094 0.987,-0.423 0,-0.328 -0.282,-0.423 -0.846,-0.423 -0.516,0 -1.267,-0.046 -1.831,-0.141 C 0.564,20.659 0.188,19.861 0.094,18.219 0,16.716 0,15.401 0,8.264 L 0,0 z"
           inkscape:connector-curvature="0" />
      </g>
      <g
         transform="translate(247.1478,498.2813)"
         id="g54508">
        <path
           id="path54510"
           style="fill:#ffffff;fill-opacity:1;fill-rule:nonzero;stroke:none"
           d="m 0,0 c 0.234,0 0.282,0.141 0.234,0.282 l -4.225,11.55 c -0.046,0.188 -0.094,0.423 -0.235,0.423 -0.141,0 -0.234,-0.235 -0.282,-0.423 L -8.827,0.328 C -8.874,0.141 -8.827,0 -8.639,0 L 0,0 z m -9.578,-2.347 c -0.235,0 -0.329,-0.094 -0.423,-0.376 l -2.536,-6.433 c -0.469,-1.174 -0.704,-2.301 -0.704,-2.864 0,-0.845 0.422,-1.456 1.878,-1.456 l 0.705,0 c 0.563,0 0.704,-0.094 0.704,-0.376 0,-0.375 -0.282,-0.469 -0.798,-0.469 -1.503,0 -3.522,0.141 -4.978,0.141 -0.516,0 -3.098,-0.141 -5.541,-0.141 -0.61,0 -0.891,0.094 -0.891,0.469 0,0.282 0.188,0.376 0.563,0.376 0.423,0 1.081,0.047 1.456,0.094 2.16,0.281 3.052,1.878 3.991,4.226 l 11.785,29.111 c 0.564,1.362 0.846,1.878 1.315,1.878 0.423,0 0.705,-0.422 1.173,-1.502 1.128,-2.583 8.641,-21.364 11.646,-28.501 1.784,-4.226 3.145,-4.884 4.131,-5.118 0.705,-0.141 1.409,-0.188 1.972,-0.188 0.376,0 0.611,-0.046 0.611,-0.376 0,-0.375 -0.423,-0.469 -2.16,-0.469 -1.69,0 -5.118,0 -8.874,0.094 -0.845,0.047 -1.409,0.047 -1.409,0.375 0,0.282 0.188,0.376 0.657,0.423 0.33,0.094 0.657,0.517 0.423,1.08 l -3.756,9.672 c -0.095,0.236 -0.236,0.33 -0.47,0.33 l -10.47,0 z"
           inkscape:connector-curvature="0" />
      </g>
      <g
         transform="translate(278.6519,488.4211)"
         id="g54512">
        <path
           id="path54514"
           style="fill:#ffffff;fill-opacity:1;fill-rule:nonzero;stroke:none"
           d="m 0,0 c -4.602,4.037 -5.823,9.296 -5.823,13.852 0,3.193 0.987,8.733 5.495,12.865 3.38,3.099 7.841,4.976 14.837,4.976 2.911,0 4.649,-0.187 6.808,-0.469 1.785,-0.234 3.287,-0.657 4.695,-0.798 0.518,-0.047 0.705,-0.282 0.705,-0.564 0,-0.375 -0.141,-0.939 -0.235,-2.582 -0.094,-1.549 -0.047,-4.132 -0.141,-5.071 -0.047,-0.704 -0.141,-1.08 -0.564,-1.08 -0.375,0 -0.469,0.376 -0.469,1.033 -0.047,1.456 -0.657,3.099 -1.831,4.32 -1.55,1.643 -5.212,2.911 -9.532,2.911 -4.085,0 -6.762,-1.033 -8.827,-2.911 -3.428,-3.146 -4.32,-7.606 -4.32,-12.161 0,-11.175 8.498,-16.716 14.791,-16.716 4.179,0 6.715,0.47 8.592,2.629 0.798,0.892 1.409,2.254 1.596,3.1 0.141,0.751 0.235,0.939 0.611,0.939 0.329,0 0.422,-0.329 0.422,-0.704 0,-0.564 -0.562,-4.649 -1.033,-6.246 C 25.543,-3.475 25.355,-3.71 24.557,-4.038 22.679,-4.79 19.11,-5.118 16.105,-5.118 9.673,-5.118 4.273,-3.71 0,0"
           inkscape:connector-curvature="0" />
      </g>
      <g
         transform="translate(313.1609,505.8409)"
         id="g54516">
        <path
           id="path54518"
           style="fill:#ffffff;fill-opacity:1;fill-rule:nonzero;stroke:none"
           d="m 0,0 c 0,7.137 0,8.452 -0.094,9.954 -0.095,1.596 -0.47,2.348 -2.019,2.677 -0.375,0.093 -1.174,0.14 -1.831,0.14 -0.516,0 -0.798,0.094 -0.798,0.423 0,0.328 0.328,0.423 1.033,0.423 1.268,0 2.629,-0.047 3.803,-0.047 1.221,-0.048 2.301,-0.094 2.959,-0.094 1.501,0 10.845,0 11.738,0.046 0.892,0.095 1.643,0.188 2.018,0.282 0.236,0.048 0.517,0.188 0.752,0.188 0.235,0 0.282,-0.188 0.282,-0.422 0,-0.329 -0.236,-0.893 -0.376,-3.052 -0.046,-0.47 -0.141,-2.536 -0.235,-3.099 -0.046,-0.236 -0.141,-0.516 -0.469,-0.516 -0.329,0 -0.423,0.234 -0.423,0.657 0,0.328 -0.047,1.126 -0.282,1.69 -0.327,0.845 -0.798,1.408 -3.146,1.69 -0.798,0.094 -5.728,0.188 -6.667,0.188 -0.235,0 -0.329,-0.141 -0.329,-0.47 l 0,-11.879 c 0,-0.328 0.048,-0.517 0.329,-0.517 1.034,0 6.433,0 7.513,0.094 1.127,0.095 1.831,0.235 2.253,0.705 0.329,0.375 0.518,0.61 0.752,0.61 0.187,0 0.328,-0.094 0.328,-0.376 0,-0.282 -0.187,-1.033 -0.376,-3.428 -0.047,-0.937 -0.186,-2.816 -0.186,-3.145 0,-0.376 0,-0.892 -0.423,-0.892 -0.329,0 -0.423,0.188 -0.423,0.422 -0.047,0.47 -0.047,1.081 -0.189,1.691 -0.234,0.939 -0.892,1.642 -2.629,1.831 -0.891,0.093 -5.54,0.141 -6.667,0.141 -0.234,0 -0.282,-0.188 -0.282,-0.469 l 0,-3.71 c 0,-1.597 -0.047,-5.916 0,-7.278 0.094,-3.239 0.846,-3.944 5.635,-3.944 1.221,0 3.193,0 4.414,0.564 1.221,0.563 1.784,1.549 2.113,3.474 0.093,0.516 0.187,0.704 0.516,0.704 0.376,0 0.376,-0.375 0.376,-0.845 0,-1.079 -0.376,-4.272 -0.611,-5.212 -0.329,-1.221 -0.752,-1.221 -2.536,-1.221 -3.52,0 -6.103,0.094 -8.122,0.141 -2.019,0.094 -3.475,0.141 -4.883,0.141 -0.516,0 -1.55,0 -2.677,-0.047 -1.08,0 -2.301,-0.094 -3.239,-0.094 -0.611,0 -0.939,0.141 -0.939,0.47 0,0.235 0.187,0.376 0.75,0.376 0.705,0 1.268,0.093 1.691,0.187 0.939,0.188 1.173,1.221 1.362,2.583 C 0,-16.293 0,-12.583 0,-8.264 L 0,0 z"
           inkscape:connector-curvature="0" />
      </g>
      <g
         transform="translate(340.4866,505.8409)"
         id="g54520">
        <path
           id="path54522"
           style="fill:#ffffff;fill-opacity:1;fill-rule:nonzero;stroke:none"
           d="m 0,0 c 0,7.137 0,8.452 -0.094,9.954 -0.095,1.596 -0.563,2.395 -1.596,2.629 -0.517,0.141 -1.127,0.188 -1.69,0.188 -0.47,0 -0.752,0.094 -0.752,0.47 0,0.281 0.375,0.376 1.127,0.376 1.784,0 4.743,-0.141 6.104,-0.141 1.175,0 3.943,0.141 5.729,0.141 0.61,0 0.985,-0.095 0.985,-0.376 0,-0.376 -0.281,-0.47 -0.751,-0.47 -0.469,0 -0.845,-0.047 -1.408,-0.14 C 6.387,12.396 6.01,11.597 5.916,9.954 5.822,8.452 5.822,7.137 5.822,0 l 0,-8.264 c 0,-4.555 0,-8.264 0.188,-10.283 0.14,-1.268 0.47,-2.113 1.878,-2.301 0.658,-0.094 1.69,-0.187 2.396,-0.187 0.515,0 0.75,-0.141 0.75,-0.376 0,-0.329 -0.375,-0.47 -0.892,-0.47 -3.1,0 -6.057,0.141 -7.324,0.141 -1.08,0 -4.039,-0.141 -5.917,-0.141 -0.61,0 -0.938,0.141 -0.938,0.47 0,0.235 0.187,0.376 0.751,0.376 0.704,0 1.267,0.093 1.69,0.187 0.939,0.188 1.221,0.987 1.362,2.347 C 0,-16.528 0,-12.819 0,-8.264 L 0,0 z"
           inkscape:connector-curvature="0" />
      </g>
      <g
         transform="translate(371.1945,501.2863)"
         id="g54524">
        <path
           id="path54526"
           style="fill:#ffffff;fill-opacity:1;fill-rule:nonzero;stroke:none"
           d="m 0,0 c -0.987,0.704 -2.066,1.033 -3.898,1.126 -0.845,0.048 -1.314,0.048 -2.019,0.048 -0.188,0 -0.281,-0.094 -0.281,-0.329 l 0,-11.128 c 0,-3.099 0.14,-3.897 1.644,-4.508 1.267,-0.516 2.347,-0.563 3.427,-0.563 2.113,0 5.68,1.127 5.68,6.01 C 4.553,-6.433 3.569,-2.489 0,0 m -6.198,3.756 c 0,-0.376 0.14,-0.469 0.329,-0.517 0.422,-0.093 1.126,-0.14 2.207,-0.14 1.549,0 2.582,0.188 3.38,0.893 1.221,0.985 1.925,2.675 1.925,4.976 0,3.146 -1.832,7.278 -5.869,7.278 -0.657,0 -1.08,0 -1.549,-0.094 -0.33,-0.094 -0.423,-0.282 -0.423,-0.798 l 0,-11.598 z m -5.635,0.798 c 0,7.137 0,8.452 -0.094,9.955 -0.093,1.596 -0.47,2.347 -2.019,2.676 -0.375,0.094 -1.173,0.14 -1.831,0.14 -0.516,0 -0.798,0.095 -0.798,0.423 0,0.33 0.329,0.423 1.033,0.423 2.488,0 5.447,-0.141 6.386,-0.141 2.3,0 4.131,0.141 5.728,0.141 8.498,0 10.001,-4.554 10.001,-7.043 0,-3.85 -2.206,-6.151 -4.789,-8.217 3.85,-1.315 8.546,-4.648 8.546,-10.142 0,-5.024 -3.898,-10.236 -12.537,-10.236 -0.563,0 -1.926,0.094 -3.287,0.141 -1.41,0.094 -2.817,0.14 -3.523,0.14 -0.515,0 -1.548,0 -2.675,-0.046 -1.08,0 -2.301,-0.094 -3.241,-0.094 -0.609,0 -0.938,0.14 -0.938,0.47 0,0.234 0.188,0.375 0.752,0.375 0.703,0 1.267,0.093 1.69,0.188 0.939,0.187 1.173,1.22 1.362,2.582 0.234,1.972 0.234,5.682 0.234,10.001 l 0,8.264 z"
           inkscape:connector-curvature="0" />
      </g>
      <g
         transform="translate(401.8986,498.2813)"
         id="g54528">
        <path
           id="path54530"
           style="fill:#ffffff;fill-opacity:1;fill-rule:nonzero;stroke:none"
           d="m 0,0 c 0.234,0 0.282,0.141 0.234,0.282 l -4.226,11.55 c -0.045,0.188 -0.093,0.423 -0.234,0.423 -0.141,0 -0.234,-0.235 -0.281,-0.423 L -8.827,0.328 C -8.875,0.141 -8.827,0 -8.639,0 L 0,0 z m -9.578,-2.347 c -0.236,0 -0.329,-0.094 -0.423,-0.376 l -2.536,-6.433 c -0.469,-1.174 -0.705,-2.301 -0.705,-2.864 0,-0.845 0.423,-1.456 1.879,-1.456 l 0.704,0 c 0.564,0 0.706,-0.094 0.706,-0.376 0,-0.375 -0.283,-0.469 -0.798,-0.469 -1.504,0 -3.523,0.141 -4.979,0.141 -0.516,0 -3.098,-0.141 -5.541,-0.141 -0.609,0 -0.891,0.094 -0.891,0.469 0,0.282 0.188,0.376 0.563,0.376 0.423,0 1.081,0.047 1.456,0.094 2.161,0.281 3.053,1.878 3.991,4.226 l 11.785,29.111 c 0.564,1.362 0.845,1.878 1.315,1.878 0.422,0 0.705,-0.422 1.173,-1.502 1.128,-2.583 8.641,-21.364 11.646,-28.501 1.784,-4.226 3.145,-4.884 4.131,-5.118 0.704,-0.141 1.41,-0.188 1.972,-0.188 0.376,0 0.611,-0.046 0.611,-0.376 0,-0.375 -0.423,-0.469 -2.16,-0.469 -1.69,0 -5.118,0 -8.874,0.094 -0.846,0.047 -1.41,0.047 -1.41,0.375 0,0.282 0.189,0.376 0.658,0.423 0.329,0.094 0.657,0.517 0.423,1.08 l -3.756,9.672 c -0.094,0.236 -0.236,0.33 -0.47,0.33 l -10.47,0 z"
           inkscape:connector-curvature="0" />
      </g>
      <g
         transform="translate(249.3836,471.6116)"
         id="g54532">
        <path
           id="path54534"
           style="fill:#ffffff;fill-opacity:1;fill-rule:nonzero;stroke:none"
           d="m 0,0 c 0.064,0 0.128,0.043 0.128,0.149 l 0,0.447 c 0,3.233 0,3.829 -0.043,4.51 C 0.043,5.829 -0.128,6.169 -0.829,6.318 -1,6.36 -1.362,6.381 -1.66,6.381 c -0.233,0 -0.361,0.043 -0.361,0.192 0,0.149 0.149,0.192 0.446,0.192 1.149,0 2.49,-0.064 3.064,-0.064 0.51,0 1.851,0.064 2.68,0.064 0.298,0 0.447,-0.043 0.447,-0.192 C 4.616,6.424 4.489,6.381 4.233,6.381 4.063,6.381 3.871,6.36 3.617,6.318 3.042,6.211 2.872,5.85 2.83,5.106 2.787,4.425 2.787,3.829 2.787,0.596 l 0,-3.744 c 0,-1.957 0,-3.638 0.107,-4.553 0.063,-0.595 0.19,-1.063 0.828,-1.148 0.298,-0.043 0.767,-0.085 1.086,-0.085 0.233,0 0.34,-0.064 0.34,-0.17 0,-0.149 -0.17,-0.213 -0.425,-0.213 -1.383,0 -2.724,0.064 -3.319,0.064 -0.489,0 -1.83,-0.064 -2.659,-0.064 -0.298,0 -0.447,0.064 -0.447,0.213 0,0.106 0.085,0.17 0.34,0.17 0.32,0 0.575,0.042 0.767,0.085 0.425,0.085 0.531,0.553 0.616,1.17 0.107,0.893 0.107,2.574 0.107,4.531 l 0,1.872 c 0,0.085 -0.064,0.127 -0.128,0.127 l -8.126,0 c -0.064,0 -0.128,-0.021 -0.128,-0.127 l 0,-1.872 c 0,-1.957 0,-3.638 0.106,-4.553 0.064,-0.595 0.192,-1.063 0.831,-1.148 0.297,-0.043 0.765,-0.085 1.085,-0.085 0.233,0 0.339,-0.064 0.339,-0.17 0,-0.149 -0.169,-0.213 -0.425,-0.213 -1.383,0 -2.723,0.064 -3.318,0.064 -0.49,0 -1.83,-0.064 -2.681,-0.064 -0.277,0 -0.425,0.064 -0.425,0.213 0,0.106 0.085,0.17 0.34,0.17 0.319,0 0.574,0.042 0.766,0.085 0.425,0.085 0.532,0.553 0.617,1.17 0.106,0.893 0.106,2.574 0.106,4.531 l 0,3.744 c 0,3.233 0,3.829 -0.042,4.51 -0.043,0.723 -0.213,1.063 -0.916,1.212 -0.169,0.042 -0.531,0.063 -0.828,0.063 -0.234,0 -0.362,0.043 -0.362,0.192 0,0.149 0.149,0.192 0.446,0.192 1.149,0 2.489,-0.064 3.064,-0.064 0.51,0 1.85,0.064 2.68,0.064 0.298,0 0.447,-0.043 0.447,-0.192 0,-0.149 -0.128,-0.192 -0.383,-0.192 -0.171,0 -0.362,-0.021 -0.617,-0.063 C -7.999,6.211 -8.169,5.85 -8.212,5.106 -8.254,4.425 -8.254,3.829 -8.254,0.596 l 0,-0.447 C -8.254,0.043 -8.19,0 -8.126,0 L 0,0 z"
           inkscape:connector-curvature="0" />
      </g>
      <g
         transform="translate(277.4034,469.9312)"
         id="g54536">
        <path
           id="path54538"
           style="fill:#ffffff;fill-opacity:1;fill-rule:nonzero;stroke:none"
           d="m 0,0 c 0,4.765 -2.745,7.722 -6.232,7.722 -2.447,0 -5.234,-1.362 -5.234,-6.658 0,-4.425 2.446,-7.935 6.53,-7.935 C -3.446,-6.871 0,-6.147 0,0 m -14.401,0.404 c 0,3.637 2.404,8.339 8.785,8.339 5.298,0 8.595,-3.084 8.595,-7.956 0,-4.871 -3.404,-8.722 -8.808,-8.722 -6.105,0 -8.572,4.574 -8.572,8.339"
           inkscape:connector-curvature="0" />
      </g>
      <g
         transform="translate(293.8727,477.185)"
         id="g54540">
        <path
           id="path54542"
           style="fill:#ffffff;fill-opacity:1;fill-rule:nonzero;stroke:none"
           d="m 0,0 -3.169,-0.085 c -1.234,-0.043 -1.745,-0.148 -2.065,-0.617 -0.212,-0.319 -0.318,-0.574 -0.361,-0.745 -0.042,-0.169 -0.106,-0.254 -0.234,-0.254 -0.149,0 -0.191,0.106 -0.191,0.339 0,0.341 0.404,2.276 0.447,2.447 0.063,0.277 0.127,0.404 0.255,0.404 0.169,0 0.382,-0.213 0.915,-0.255 0.616,-0.064 1.424,-0.107 2.127,-0.107 l 8.423,0 c 0.682,0 1.149,0.064 1.468,0.107 0.32,0.064 0.49,0.106 0.575,0.106 0.148,0 0.17,-0.127 0.17,-0.447 0,-0.446 -0.063,-1.914 -0.063,-2.467 -0.022,-0.213 -0.064,-0.34 -0.192,-0.34 -0.17,0 -0.213,0.106 -0.234,0.425 L 7.85,-1.255 C 7.807,-0.702 7.232,-0.106 5.339,-0.064 L 2.659,0 l 0,-8.722 c 0,-1.956 0,-3.637 0.107,-4.552 0.064,-0.595 0.191,-1.064 0.828,-1.149 0.298,-0.042 0.767,-0.085 1.086,-0.085 0.233,0 0.34,-0.064 0.34,-0.17 0,-0.149 -0.17,-0.213 -0.404,-0.213 -1.404,0 -2.744,0.064 -3.34,0.064 -0.489,0 -1.829,-0.064 -2.68,-0.064 -0.277,0 -0.426,0.064 -0.426,0.213 0,0.106 0.085,0.17 0.341,0.17 0.319,0 0.574,0.043 0.766,0.085 0.425,0.085 0.553,0.554 0.617,1.17 C 0,-12.359 0,-10.678 0,-8.722 L 0,0 z"
           inkscape:connector-curvature="0" />
      </g>
      <g
         transform="translate(312.5312,472.2076)"
         id="g54544">
        <path
           id="path54546"
           style="fill:#ffffff;fill-opacity:1;fill-rule:nonzero;stroke:none"
           d="m 0,0 c 0,3.233 0,3.828 -0.043,4.51 -0.042,0.723 -0.213,1.063 -0.914,1.212 -0.171,0.043 -0.532,0.064 -0.831,0.064 -0.233,0 -0.36,0.043 -0.36,0.192 0,0.148 0.149,0.191 0.467,0.191 0.575,0 1.192,-0.022 1.724,-0.022 0.553,-0.021 1.042,-0.042 1.339,-0.042 0.681,0 4.914,0 5.319,0.021 0.404,0.043 0.744,0.085 0.914,0.128 0.107,0.021 0.235,0.085 0.341,0.085 0.106,0 0.128,-0.085 0.128,-0.192 C 8.084,5.999 7.977,5.744 7.913,4.765 7.892,4.552 7.85,3.616 7.807,3.361 7.786,3.255 7.743,3.127 7.594,3.127 7.445,3.127 7.402,3.233 7.402,3.424 7.402,3.573 7.381,3.935 7.276,4.19 7.126,4.574 6.913,4.828 5.85,4.956 5.488,4.998 3.255,5.041 2.829,5.041 2.723,5.041 2.681,4.977 2.681,4.828 l 0,-5.382 c 0,-0.148 0.02,-0.233 0.148,-0.233 0.468,0 2.915,0 3.403,0.043 0.51,0.042 0.831,0.105 1.021,0.318 0.149,0.17 0.235,0.277 0.341,0.277 0.085,0 0.149,-0.043 0.149,-0.17 0,-0.128 -0.085,-0.468 -0.17,-1.554 -0.022,-0.425 -0.085,-1.275 -0.085,-1.424 0,-0.171 0,-0.405 -0.192,-0.405 -0.148,0 -0.191,0.085 -0.191,0.192 -0.022,0.213 -0.022,0.49 -0.085,0.765 -0.107,0.426 -0.404,0.745 -1.191,0.83 -0.405,0.042 -2.511,0.064 -3.021,0.064 -0.107,0 -0.127,-0.086 -0.127,-0.212 l 0,-1.681 c 0,-0.723 -0.023,-2.68 0,-3.298 0.042,-1.468 0.382,-1.787 2.552,-1.787 0.553,0 1.447,0 2,0.255 0.553,0.256 0.808,0.703 0.956,1.575 0.043,0.234 0.085,0.319 0.235,0.319 0.171,0 0.171,-0.17 0.171,-0.383 0,-0.489 -0.171,-1.935 -0.278,-2.361 -0.148,-0.553 -0.34,-0.553 -1.149,-0.553 -1.595,0 -2.765,0.043 -3.68,0.064 -0.914,0.043 -1.573,0.064 -2.212,0.064 -0.234,0 -0.702,0 -1.213,-0.021 -0.489,0 -1.041,-0.043 -1.467,-0.043 -0.277,0 -0.425,0.064 -0.425,0.213 0,0.106 0.084,0.17 0.34,0.17 0.319,0 0.574,0.042 0.765,0.085 0.426,0.085 0.533,0.553 0.619,1.17 C 0,-7.382 0,-5.701 0,-3.744 L 0,0 z"
           inkscape:connector-curvature="0" />
      </g>
      <g
         transform="translate(335.0191,468.4634)"
         id="g54548">
        <path
           id="path54550"
           style="fill:#ffffff;fill-opacity:1;fill-rule:nonzero;stroke:none"
           d="m 0,0 c 0,-2.723 0,-4.19 0.446,-4.574 0.362,-0.319 0.916,-0.468 2.574,-0.468 1.128,0 1.957,0.021 2.49,0.596 0.255,0.277 0.51,0.872 0.552,1.277 0.022,0.19 0.064,0.318 0.234,0.318 0.149,0 0.171,-0.107 0.171,-0.361 0,-0.234 -0.149,-1.83 -0.32,-2.447 -0.127,-0.467 -0.233,-0.573 -1.34,-0.573 -1.531,0 -2.637,0.042 -3.594,0.063 -0.958,0.043 -1.724,0.064 -2.595,0.064 -0.235,0 -0.703,0 -1.214,-0.021 -0.488,0 -1.042,-0.043 -1.468,-0.043 -0.275,0 -0.424,0.064 -0.424,0.212 0,0.107 0.085,0.171 0.34,0.171 0.32,0 0.575,0.042 0.766,0.085 0.425,0.085 0.531,0.553 0.616,1.17 0.107,0.893 0.107,2.574 0.107,4.531 l 0,3.744 c 0,3.234 0,3.829 -0.043,4.51 -0.043,0.723 -0.212,1.063 -0.914,1.212 -0.17,0.042 -0.425,0.064 -0.702,0.064 -0.234,0 -0.362,0.042 -0.362,0.191 0,0.149 0.149,0.192 0.468,0.192 1,0 2.339,-0.064 2.914,-0.064 0.511,0 2.063,0.064 2.893,0.064 0.298,0 0.447,-0.043 0.447,-0.192 C 2.042,9.572 1.915,9.53 1.66,9.53 1.425,9.53 1.085,9.508 0.829,9.466 0.255,9.359 0.085,8.998 0.043,8.254 0,7.573 0,6.978 0,3.744 L 0,0 z"
           inkscape:connector-curvature="0" />
      </g>
      <g
         transform="translate(351.6147,472.2076)"
         id="g54552">
        <path
           id="path54554"
           style="fill:#ffffff;fill-opacity:1;fill-rule:nonzero;stroke:none"
           d="m 0,0 c 0,3.233 0,3.828 -0.043,4.51 -0.041,0.723 -0.211,1.063 -0.913,1.212 -0.17,0.043 -0.532,0.064 -0.83,0.064 -0.235,0 -0.361,0.043 -0.361,0.192 0,0.148 0.148,0.191 0.467,0.191 0.574,0 1.191,-0.022 1.723,-0.022 0.553,-0.021 1.042,-0.042 1.34,-0.042 0.68,0 4.914,0 5.318,0.021 0.404,0.043 0.745,0.085 0.915,0.128 0.106,0.021 0.234,0.085 0.341,0.085 0.106,0 0.128,-0.085 0.128,-0.192 C 8.085,5.999 7.977,5.744 7.914,4.765 7.892,4.552 7.85,3.616 7.807,3.361 7.787,3.255 7.744,3.127 7.594,3.127 7.446,3.127 7.403,3.233 7.403,3.424 7.403,3.573 7.382,3.935 7.276,4.19 7.127,4.574 6.914,4.828 5.851,4.956 5.488,4.998 3.256,5.041 2.83,5.041 2.723,5.041 2.681,4.977 2.681,4.828 l 0,-5.382 c 0,-0.148 0.021,-0.233 0.149,-0.233 0.468,0 2.914,0 3.402,0.043 0.511,0.042 0.831,0.105 1.022,0.318 0.149,0.17 0.235,0.277 0.34,0.277 0.085,0 0.15,-0.043 0.15,-0.17 0,-0.128 -0.085,-0.468 -0.17,-1.554 -0.023,-0.425 -0.085,-1.275 -0.085,-1.424 0,-0.171 0,-0.405 -0.192,-0.405 -0.149,0 -0.192,0.085 -0.192,0.192 -0.021,0.213 -0.021,0.49 -0.085,0.765 -0.106,0.426 -0.404,0.745 -1.191,0.83 -0.404,0.042 -2.511,0.064 -3.021,0.064 -0.106,0 -0.127,-0.086 -0.127,-0.212 l 0,-1.681 c 0,-0.723 -0.022,-2.68 0,-3.298 0.042,-1.468 0.382,-1.787 2.553,-1.787 0.552,0 1.447,0 1.999,0.255 0.554,0.256 0.809,0.703 0.957,1.575 0.043,0.234 0.085,0.319 0.234,0.319 0.171,0 0.171,-0.17 0.171,-0.383 0,-0.489 -0.171,-1.935 -0.277,-2.361 -0.149,-0.553 -0.341,-0.553 -1.149,-0.553 -1.596,0 -2.765,0.043 -3.68,0.064 -0.915,0.043 -1.574,0.064 -2.213,0.064 -0.234,0 -0.701,0 -1.212,-0.021 -0.489,0 -1.042,-0.043 -1.468,-0.043 -0.276,0 -0.425,0.064 -0.425,0.213 0,0.106 0.085,0.17 0.341,0.17 0.319,0 0.574,0.042 0.765,0.085 0.426,0.085 0.532,0.553 0.618,1.17 C 0,-7.382 0,-5.701 0,-3.744 L 0,0 z"
           inkscape:connector-curvature="0" />
      </g>
      <g
         transform="translate(370.2737,462.5499)"
         id="g54556">
        <path
           id="path54558"
           style="fill:#ffffff;fill-opacity:1;fill-rule:nonzero;stroke:none"
           d="m 0,0 c -0.341,0.149 -0.404,0.254 -0.404,0.723 0,1.17 0.086,2.446 0.106,2.787 0.021,0.318 0.085,0.553 0.255,0.553 0.191,0 0.213,-0.192 0.213,-0.362 0,-0.276 0.085,-0.723 0.191,-1.084 0.468,-1.575 1.724,-2.15 3.042,-2.15 1.915,0 2.851,1.298 2.851,2.426 0,1.042 -0.319,2.02 -2.085,3.403 L 3.19,7.062 c -2.339,1.83 -3.147,3.318 -3.147,5.042 0,2.34 1.956,4.02 4.914,4.02 1.382,0 2.275,-0.213 2.829,-0.361 0.19,-0.043 0.298,-0.106 0.298,-0.255 0,-0.277 -0.085,-0.894 -0.085,-2.553 0,-0.469 -0.065,-0.638 -0.235,-0.638 -0.149,0 -0.213,0.127 -0.213,0.382 0,0.192 -0.106,0.852 -0.553,1.404 -0.318,0.405 -0.936,1.043 -2.319,1.043 -1.573,0 -2.531,-0.915 -2.531,-2.191 0,-0.979 0.49,-1.723 2.255,-3.063 L 5,9.444 C 7.573,7.509 8.487,6.041 8.487,4.02 8.487,2.787 8.019,1.319 6.488,0.318 5.424,-0.362 4.233,-0.553 3.106,-0.553 1.872,-0.553 0.914,-0.405 0,0"
           inkscape:connector-curvature="0" />
      </g>
    </g>
  </g>
</svg>
