<svg xmlns="http://www.w3.org/2000/svg" width="400" height="184.782"><path d="M326.018 147.965c40.85 0 73.982-33.124 73.982-73.983C400 33.132 366.867 0 326.018 0c-40.86 0-73.983 33.133-73.983 73.982 0 40.86 33.124 73.983 73.983 73.983" fill="#065487"/><path d="M326.018 129.48c30.64 0 55.49-24.85 55.49-55.5 0-30.64-24.85-55.48-55.49-55.48s-55.49 24.84-55.49 55.48c0 30.65 24.85 55.5 55.49 55.5" fill="#fff"/><path d="M.767 147.42L59.785 1.045h24.302L26.702 147.612.767 147.42zM40.906 147.42L99.64 1.045h25.123L66.85 147.622l-25.944-.203zM213.02 102.597l-.77-59.028-22.862 58.956 23.633.07m-1.002 20.197l-31.075-.203-9.815 25.013h-13.403l56.95-146.556 20.114-.01.172 101.692h15.694l.01 19.992h-15.49l.06 24.88h-23.37l.152-24.81zM182.492 46.428l-14.67-.67s12.855-26.978-1.572-31.013c-11.386-3.174-19.68 21.97-21.292 26.22-1.48 3.902-31.085 79.263-31.085 79.263s-5.657 17.53 14.52 14.093c6.934-1.5 14.568-25.02 14.76-26.634 6.672.203 13.688-.09 13.688-.09s-13.605 39.926-25.802 39.926c-16 .324-17.773-.203-20.795-1.41-2.342-.953-22.396-11.74-15.137-33.163 7.27-21.445 36.145-92.07 42.37-101.5 8.212-12.45 33.133-14.5 43.03-2.312 9.255 11.396 6.63 22.133 1.986 37.29" fill="#065487"/><path d="M368.94 74.22c0 24.557-19.893 44.45-44.45 44.45-24.545 0-44.458-19.893-44.458-44.45 0-24.566 19.913-44.458 44.46-44.458 24.555 0 44.447 19.892 44.447 44.46" fill="#fff"/><path d="M368.94 74.22h-.275c0 12.197-4.958 23.24-12.947 31.228-8 8-19.04 12.937-31.227 12.937-12.196 0-23.237-4.938-31.237-12.937-8-7.99-12.927-19.03-12.927-31.227 0-12.196 4.928-23.247 12.927-31.237 8-7.99 19.04-12.917 31.238-12.917 12.187 0 23.23 4.928 31.228 12.917 7.99 7.99 12.947 19.04 12.947 31.238h.568c0-24.718-20.044-44.73-44.742-44.73-24.697 0-44.73 20.012-44.73 44.73 0 24.71 20.033 44.733 44.73 44.733 24.7 0 44.743-20.024 44.743-44.732h-.294" fill="#065487"/><path d="M324.6 118.668h.55V29.76h-.55v88.908z" fill="#065487"/><path d="M297.44 39.17h54.09v-.578h-54.09v.578zm-.05 70.586h54.1v-.578h-54.1v.578zm-13.84-52.67h81.87v-.56h-81.87v.56zm.192 35.22h81.505v-.577h-81.505v.577zm-3.71-17.803h88.906v-.577H280.03v.577zm64.857-.283h-.295c0 12.227-2.22 23.32-5.83 31.328-3.61 7.99-8.577 12.866-13.91 12.846-5.343.02-10.29-4.856-13.92-12.846-3.59-8.01-5.84-19.1-5.84-31.328 0-12.238 2.25-23.32 5.84-31.32 3.63-8.01 8.577-12.855 13.92-12.835 5.333-.02 10.3 4.826 13.91 12.826 3.61 8.01 5.83 19.092 5.83 31.33h.568c0-12.31-2.24-23.45-5.88-31.552-3.66-8.08-8.71-13.17-14.428-13.18-5.73.01-10.778 5.1-14.418 13.18-3.66 8.1-5.9 19.243-5.9 31.552 0 12.308 2.24 23.46 5.9 31.54 3.64 8.092 8.69 13.18 14.418 13.192 5.718-.01 10.767-5.1 14.427-13.19 3.64-8.08 5.88-19.234 5.88-31.542h-.273zm13.22 0h-.284c0 12.217-3.71 23.278-9.713 31.257-6.002 7.99-14.245 12.917-23.36 12.917-9.094 0-17.357-4.927-23.36-12.917-5.99-7.98-9.712-19.04-9.712-31.257 0-12.228 3.722-23.28 9.714-31.268 6.002-7.99 14.265-12.887 23.36-12.887 9.114 0 17.357 4.897 23.36 12.887 6 7.99 9.712 19.04 9.712 31.268h.578c0-12.34-3.752-23.512-9.845-31.613-6.064-8.09-14.49-13.12-23.807-13.12-9.317 0-17.732 5.03-23.816 13.12-6.073 8.1-9.824 19.274-9.824 31.613 0 12.328 3.75 23.49 9.824 31.602 6.084 8.1 14.5 13.13 23.816 13.13 9.318 0 17.743-5.03 23.806-13.13 6.092-8.11 9.844-19.274 9.844-31.602h-.294z" fill="#065487"/><path d="M292.612 122.964l-5.384 7.97-.933-.64 5.384-7.96.932.63zM290.384 121.46L284.412 129l-.86-.69 2.178-6.478-3.994 5.05-.82-.65 5.96-7.543.902.7-2.13 6.337 3.905-4.917.83.65zM283.71 120.063l-.932-.64c.77-.972.892-1.682.416-2.18-.254-.242-.538-.333-.852-.293-.324.05-.598.203-.882.467-.132.162-.233.324-.304.466-.06.172-.06.324-.04.497.04.172.162.527.395 1.054.224.507.295.903.295 1.237 0 .326-.092.69-.274 1.066-.18.355-.415.71-.72 1.034-.384.385-.78.66-1.175.852-.416.162-.81.233-1.176.172-.356-.05-.7-.223-1.015-.537-.487-.457-.68-1.004-.588-1.623.09-.618.446-1.267 1.075-1.956l.882.73c-.335.405-.507.74-.527 1.003-.03.265.07.508.294.71.214.224.457.315.69.305.243-.02.466-.11.64-.314.19-.172.293-.395.313-.618.02-.243-.1-.628-.324-1.155-.265-.568-.407-1.024-.407-1.38 0-.364.09-.75.294-1.125.173-.375.467-.78.872-1.196.577-.598 1.195-.973 1.865-1.136.648-.152 1.247.05 1.825.578.993.974.77 2.302-.64 3.985M280.824 112.627l-6.073 5.19 1.086 1.268-1.237 1.055-2.9-3.397 1.246-1.064 1.065 1.276 6.074-5.18.74.85zM278.36 109.598l-7.717 5.748-.68-.902 7.706-5.75.69.904zM276.08 106.39l-6.72 4.35.922 1.398-1.37.882-2.432-3.75 1.37-.893.9 1.41 6.713-4.34.618.943zM265.433 107.458l-.528-1.003 4.634-2.383c.72-.375 1.175-.63 1.388-.77.355-.244.578-.497.7-.77.12-.275.12-.55-.03-.822-.123-.244-.295-.386-.508-.457-.233-.07-.487-.07-.77.01-.294.072-.852.335-1.714.78l-4.714 2.435-.528-1.004 4.492-2.322c1.146-.588 1.997-.973 2.555-1.146.548-.182 1.065-.202 1.552-.06.456.152.82.466 1.095.973.264.516.355.992.223 1.418-.09.426-.355.842-.77 1.197-.396.385-1.237.902-2.525 1.57l-4.552 2.353M270.78 96.38l-7.422 2.96.61 1.552-1.512.598-1.643-4.147 1.51-.608.62 1.55 7.41-2.96.427 1.055zM264.502 93.2c1.054-.303 1.815-.668 2.27-1.114.447-.436.6-.872.478-1.298-.112-.426-.477-.72-1.085-.85-.61-.133-1.46-.032-2.555.272-1.075.315-1.825.68-2.27 1.105-.427.416-.59.852-.447 1.298.12.446.486.73 1.074.862.61.132 1.45.04 2.535-.274m.385 1.117c-1.105.314-2.048.456-2.818.425-.782-.03-1.4-.172-1.867-.456-.446-.274-.75-.68-.902-1.206-.232-.78 0-1.53.7-2.25.68-.73 1.785-1.31 3.316-1.745 1.55-.446 2.828-.548 3.852-.284.903.244 1.45.74 1.683 1.532.235.78.022 1.5-.607 2.18-.73.76-1.845 1.358-3.356 1.805M267.235 83.933l-9.49 1.5-.182-1.114 9.49-1.492.182 1.105zM266.81 81.27l-9.57.78-.103-1.104 6.215-2.82-6.397.528-.092-1.054 9.58-.79.103 1.135-6.073 2.767 6.255-.496.08 1.054zM266.433 73.924l-7.98-.122-.04 1.673-1.622-.03.072-4.482 1.633.04-.03 1.663 7.98.132-.01 1.126zM266.562 69.953l-9.57-1.024.445-4.158 1.622.173-.325 3.04 2.11.224.303-2.81 1.612.163-.304 2.82 2.606.272.334-3.143 1.602.183-.436 4.258zM262.032 62.072l.173-.83c.1-.508.14-.832.1-.984-.02-.153-.12-.284-.293-.426-.183-.102-.406-.203-.74-.274-.294-.06-.527-.07-.73-.02-.203.04-.355.142-.446.263-.07.092-.173.387-.274.893l-.183.872 2.392.507m5.18 2.25l-9.398-1.986.497-2.342c.133-.598.305-1.014.528-1.227.224-.213.558-.365 1.004-.446.456-.09.974-.05 1.55.072.742.152 1.31.406 1.705.75.395.345.598.76.618 1.247.284-.183.588-.325.903-.416.324-.102.882-.213 1.672-.325l1.967-.285-.273 1.33-2.21.374c-.802.14-1.31.232-1.52.303-.204.06-.356.132-.448.243-.09.102-.172.284-.233.537l-.05.224 3.933.83-.243 1.116zM265.864 54.35l-3.64-.365 3.163 1.825.477-1.46m4.268-.81l-.375 1.165-2.24-.203-.69 2.14 1.936 1.114-.375 1.136-8.466-5.04.355-1.145 9.855.832zM270.502 52.587l-8.76-3.975.71-1.55 6.377 1.783-5.547-3.63.71-1.55 8.76 3.974-.446.952-6.884-3.123 6.427 4.146-.466.994-7.34-2.11 6.894 3.123-.436.964zM273.512 46.24l-8.273-4.906 2.118-3.59 1.4.832-1.552 2.626 1.845 1.075 1.44-2.434 1.4.82-1.46 2.445 2.25 1.328 1.603-2.697 1.4.82-2.17 3.68zM272.68 37.18l.508-.668c.294-.406.466-.71.497-.852.04-.152 0-.324-.102-.507-.1-.182-.294-.375-.537-.558-.264-.172-.467-.294-.67-.324-.212-.04-.385-.02-.527.052-.102.06-.305.304-.62.7l-.516.71 1.967 1.45m3.783 4.206l-7.726-5.687 1.41-1.946c.374-.487.69-.79.993-.892.304-.122.67-.122 1.115.01.426.11.892.345 1.38.71.597.435 1.013.892 1.226 1.378.224.477.234.943.05 1.4.326-.05.67-.05.995 0 .335.04.882.172 1.642.395l1.917.568-.79 1.085-2.18-.578c-.792-.203-1.29-.335-1.502-.355-.202-.04-.395-.02-.517.03-.12.06-.253.203-.425.406l-.142.193 3.224 2.373-.67.912zM280.156 36.587l-7.3-6.256.74-.87 7.3 6.275-.74.852zM281.928 29.508l1.187-.355c.66.872 1.013 1.632 1.095 2.26.06.65-.122 1.167-.538 1.572-.517.528-1.206.67-2.078.436-1.024-.272-2.1-.962-3.184-2.057-1.176-1.166-1.875-2.24-2.18-3.285-.233-.892-.08-1.612.467-2.16.436-.435 1.024-.608 1.744-.476.538.08 1.146.375 1.836.872l-.467 1.136c-.426-.325-.79-.517-1.156-.558-.345-.05-.62.03-.832.253-.294.295-.345.71-.172 1.248.172.537.66 1.236 1.5 2.058.852.852 1.552 1.37 2.09 1.552.546.182.962.132 1.246-.172.213-.213.294-.497.213-.893-.082-.385-.336-.86-.772-1.43M286.156 25.468l-2.84-2.282 1.654 3.255 1.186-.972m4.015 1.622l-.932.78-1.764-1.368-1.744 1.41 1.014 1.986-.932.77-4.38-8.85.953-.76 7.786 6.032zM291.037 26.508l-5.262-8.05.933-.61 5.434 4.107-3.518-5.373.902-.568 5.252 8.04-.963.62-5.313-3.986 3.437 5.222-.903.598zM294.87 18.497c.506.984 1.003 1.653 1.53 2.008.507.365.974.436 1.37.243.395-.213.607-.62.618-1.237 0-.628-.244-1.44-.76-2.453-.487-.993-.994-1.672-1.5-2.007-.498-.355-.954-.426-1.36-.203-.416.203-.618.61-.64 1.217-.02.618.224 1.42.74 2.433m-1.023.588c-.506-1.014-.82-1.916-.953-2.687-.11-.77-.07-1.41.092-1.916.192-.497.527-.862 1.024-1.125.72-.365 1.5-.274 2.342.274.84.528 1.632 1.51 2.352 2.93.72 1.43 1.044 2.667.994 3.722-.06.932-.436 1.57-1.177 1.946-.73.365-1.47.294-2.25-.182-.894-.568-1.684-1.562-2.425-2.96M303.116 11.428l1.977 6.053.81-.283c.346-.1.6-.223.72-.375.113-.132.204-.314.234-.537.06-.223.04-.537-.03-.953-.07-.416-.203-.953-.416-1.612-.222-.68-.424-1.207-.617-1.572-.203-.375-.416-.65-.62-.82-.21-.173-.434-.275-.668-.275-.162 0-.456.07-.892.203l-.497.172m-1.58-1.196l1.976-.66c.507-.15.902-.202 1.186-.11.324.06.63.243.973.547.326.293.65.73.995 1.276.304.548.588 1.258.892 2.13.254.79.416 1.51.456 2.13.07.627.07 1.144-.01 1.55-.09.406-.243.73-.466.994-.223.263-.538.476-.984.618l-2.017.66-3-9.136zM310.344 17.556l-2.048-9.388 4.066-.892.345 1.58-2.96.65.455 2.09 2.748-.6.365 1.572-2.768.608.558 2.555 3.072-.668.344 1.582-4.176.912zM321.87 12.3l1.135.516c-.09 1.085-.334 1.886-.7 2.413-.364.517-.83.8-1.42.83-.718.062-1.337-.293-1.854-1.054-.587-.872-.932-2.078-1.043-3.64-.122-1.622.07-2.94.527-3.893.406-.84.983-1.277 1.754-1.338.64-.03 1.176.233 1.642.81.345.397.6 1.015.79 1.846l-1.063.55c-.122-.518-.304-.914-.517-1.167-.254-.264-.507-.385-.78-.355-.427.02-.75.294-.985.82-.212.518-.294 1.36-.212 2.526.09 1.206.283 2.058.577 2.555.264.496.62.73 1.035.698.304-.03.547-.202.74-.547.203-.324.324-.86.375-1.57M325.72 10.953c-.03 1.095.072 1.926.366 2.494.273.568.638.852 1.074.872.446.01.822-.244 1.146-.772.314-.557.487-1.378.527-2.524.05-1.105-.07-1.947-.334-2.484-.275-.537-.62-.82-1.086-.842-.467-.02-.852.244-1.156.77-.314.528-.487 1.35-.537 2.485m-1.176.01c.06-1.136.203-2.078.477-2.808.265-.74.6-1.268 1.005-1.623.395-.354.882-.507 1.44-.486.81.03 1.44.476 1.906 1.358.487.882.7 2.11.65 3.71-.072 1.603-.376 2.86-.954 3.732-.496.79-1.155 1.166-1.967 1.136-.812-.03-1.43-.457-1.886-1.258-.497-.932-.72-2.18-.67-3.76M332.83 11.438c-.162 1.084-.142 1.936.09 2.534.204.588.538.913.964.984.446.06.852-.152 1.227-.66.366-.496.63-1.307.812-2.433.162-1.095.152-1.926-.05-2.504-.213-.57-.538-.893-1.004-.964-.456-.06-.872.142-1.247.64-.364.485-.618 1.286-.79 2.402m-1.176-.112c.172-1.125.456-2.048.8-2.737.335-.71.74-1.188 1.167-1.512.447-.294.954-.406 1.51-.325.772.132 1.37.66 1.735 1.582.385.923.446 2.17.213 3.74-.243 1.593-.69 2.8-1.348 3.62-.6.71-1.298 1.025-2.09.903-.81-.132-1.398-.618-1.723-1.47-.405-.963-.486-2.24-.263-3.802M340.73 9.696l-.668 2.626.598.152c.395.11.7.152.84.1.184-.04.346-.14.488-.333.162-.192.254-.435.345-.74.07-.304.11-.577.05-.81-.05-.244-.12-.406-.233-.528-.142-.1-.415-.223-.882-.334l-.537-.132m-3.112 7.43l2.444-9.306 1.754.466c.66.173 1.075.335 1.237.467.304.233.486.608.578 1.135.092.517.03 1.146-.172 1.886-.152.68-.405 1.217-.69 1.622-.313.416-.618.67-.932.78-.334.123-.81.092-1.47-.07l-.73-.193-.902 3.498-1.116-.283zM343.118 18.636l3.305-9.023 3.934 1.44-.568 1.52-2.85-1.044-.74 1.996 2.656.984-.568 1.52-2.656-.983-.902 2.454 2.95 1.096-.547 1.52-4.015-1.48zM351.88 16.17l.75.365c.456.234.76.335.922.345.163 0 .325-.06.487-.193.15-.142.303-.334.465-.628.122-.275.183-.528.183-.73 0-.204-.04-.366-.132-.488-.09-.1-.355-.253-.81-.476l-.802-.396-1.065 2.2m-3.458 4.492l4.208-8.638 2.16 1.034c.557.284.902.547 1.074.81.152.275.203.64.172 1.096-.04.466-.172.963-.456 1.49-.324.68-.7 1.156-1.135 1.46-.426.304-.872.406-1.36.294.102.325.173.67.194.994.02.334-.022.892-.103 1.683l-.213 1.997-1.206-.598.172-2.24c.05-.812.09-1.32.09-1.552-.04-.213-.07-.375-.14-.487-.07-.13-.224-.243-.467-.344l-.203-.11-1.764 3.598-1.024-.486zM358.414 21.755l1.227-3.427-2.534 2.616 1.308.81m-.233 4.35l-1.054-.67.72-2.108-1.896-1.186-1.55 1.602-1.025-.64 6.955-6.984 1.014.628-3.163 9.358zM364.03 26.132l.496 1.155c-.812.75-1.5 1.177-2.14 1.33-.628.15-1.156.05-1.622-.316-.568-.445-.79-1.124-.68-2.037.143-1.034.72-2.17 1.664-3.396 1.003-1.298 2.007-2.14 2.98-2.545.862-.355 1.612-.304 2.21.172.507.386.72.954.69 1.694-.01.527-.243 1.176-.65 1.916l-1.155-.325c.254-.457.375-.852.396-1.217 0-.345-.123-.61-.346-.8-.335-.245-.75-.255-1.278-.01-.496.242-1.145.81-1.845 1.743-.74.942-1.175 1.703-1.276 2.27-.132.548-.02.964.304 1.217.243.183.537.203.912.092.365-.122.812-.426 1.34-.943M363.732 30.557l6.468-7.117.832.75-6.47 7.128-.83-.76zM369.86 29.706c-.812.76-1.32 1.44-1.5 2.037-.194.61-.143 1.055.15 1.38.305.324.772.415 1.36.232.608-.152 1.318-.628 2.14-1.4.81-.77 1.317-1.438 1.52-2.016.192-.57.12-1.015-.183-1.36-.324-.334-.78-.416-1.39-.263-.587.152-1.297.618-2.097 1.39m-.872-.802c.85-.79 1.622-1.35 2.342-1.683.68-.325 1.297-.487 1.835-.436.517.03.983.243 1.368.648.568.578.69 1.36.416 2.322-.275.974-1.005 1.977-2.16 3.072-1.156 1.115-2.26 1.775-3.295 1.998-.903.212-1.623.03-2.19-.568-.558-.588-.71-1.328-.457-2.22.274-1.004 1.004-2.06 2.14-3.133M370.127 37.18l7.685-5.82.67.893-3.742 5.708 5.12-3.872.64.842-7.656 5.81-.7-.903 3.63-5.607-4.988 3.782-.66-.83zM382.672 41.428l-2.373 1.318.283.558c.203.375.386.588.527.7.142.08.345.12.558.1.264-.02.507-.1.79-.273.285-.14.488-.314.65-.496.142-.203.203-.395.192-.537 0-.173-.12-.467-.354-.872l-.274-.497m-7.554 2.86l8.436-4.634.902 1.59c.304.61.497 1.025.517 1.238.03.386-.12.78-.426 1.197-.344.425-.83.82-1.51 1.185-.62.345-1.156.547-1.653.598-.507.06-.922.01-1.206-.132-.315-.16-.63-.536-.953-1.144l-.365-.65-3.184 1.745-.558-.993zM382.246 49.993l2.95-2.14-3.58.72.63 1.42m-2.666 3.437l-.497-1.125 1.815-1.318-.903-2.07-2.19.447-.476-1.115 9.69-1.826.488 1.105-7.93 5.9zM385.553 53.835l.254.81c.162.487.304.78.385.903.122.122.284.193.487.203.212.03.465-.01.76-.1.293-.092.516-.203.668-.335.142-.152.223-.304.244-.466.03-.113-.04-.407-.183-.894l-.285-.85-2.332.73m-5.627.587l9.176-2.91.72 2.3c.182.6.233 1.036.142 1.33-.07.304-.305.598-.65.892-.354.284-.82.517-1.398.69-.7.232-1.318.283-1.836.192-.527-.102-.902-.365-1.166-.79-.152.303-.365.577-.577.82-.234.233-.67.598-1.298 1.095l-1.573 1.217-.405-1.31 1.744-1.398c.628-.517 1.003-.852 1.166-1.014.152-.162.233-.304.253-.446.05-.132.02-.314-.07-.568l-.072-.233-3.812 1.218-.344-1.085zM386.02 62.45l3.334-1.472-3.64-.02.305 1.49m-3.307 2.81l-.253-1.208 2.048-.922-.446-2.2-2.23-.02-.244-1.187 9.855.234.243 1.187-8.973 4.117zM383.087 68.627l9.52-.618.072 1.134-7.9.507.173 2.83-1.612.1-.252-3.953zM387.078 76.934l3.59-.65-3.54-.87-.05 1.52m-3.873 1.987l.04-1.256 2.21-.406.072-2.25-2.18-.538.04-1.207 9.53 2.505-.03 1.196-9.682 1.957zM386.04 85.865l3.66-.142-3.387-1.36-.274 1.502m-4.107 1.4l.202-1.228 2.25-.1.397-2.21-2.07-.843.204-1.176 9.095 3.832-.212 1.177-9.865.547zM384.336 91.766l1.56.466-.678 2.332-3.68-1.065c-.335-.345-.568-.77-.73-1.298-.153-.517-.153-1.004-.03-1.44.15-.527.475-.933.962-1.237.487-.314 1.125-.466 1.926-.497.812-.02 1.704.112 2.697.406 1.024.304 1.856.67 2.484 1.115.66.455 1.116.932 1.35 1.408.262.497.293 1.014.14 1.54-.192.65-.567 1.106-1.145 1.36-.558.243-1.318.304-2.23.152l-.04-1.196c.506.07.9.03 1.226-.122.304-.132.517-.355.608-.65.132-.465 0-.92-.436-1.347-.426-.446-1.166-.81-2.19-1.116-1.115-.315-2.007-.416-2.677-.274-.577.12-.932.405-1.064.86-.062.225-.062.448.01.73.06.275.202.52.405.782l1.166.335.366-1.247M384.415 97.726l-.325.78c-.192.477-.284.782-.284.944 0 .152.07.304.213.466.16.142.385.284.668.406.284.132.528.172.73.152.203 0 .386-.05.477-.173.09-.07.253-.343.436-.81l.356-.82-2.27-.944m-4.675-3.173l8.872 3.69-.923 2.21c-.234.558-.477.933-.73 1.106-.274.18-.63.262-1.085.242-.457-.01-.953-.1-1.51-.345-.7-.284-1.208-.638-1.532-1.044-.324-.426-.446-.872-.375-1.36-.325.133-.65.214-.973.255-.325.03-.903.03-1.694 0l-1.996-.08.507-1.258 2.252.04c.83.02 1.328.02 1.55-.01.214-.03.386-.08.498-.162.11-.08.213-.244.324-.487l.07-.212-3.7-1.54.447-1.045zM377.305 100.103l8.578 4.34-.517 1.003-8.578-4.34.517-1.003zM377.256 107.38l-1.085.648c-.82-.71-1.348-1.348-1.55-1.967-.223-.587-.193-1.134.12-1.64.356-.62 1.025-.934 1.928-.924 1.074.04 2.24.436 3.58 1.247 1.398.852 2.35 1.744 2.878 2.677.446.8.466 1.54.08 2.21-.323.527-.86.83-1.6.882-.518.04-1.177-.1-1.988-.405l.193-1.217c.487.213.913.294 1.258.264.345-.05.598-.193.74-.436.233-.345.182-.77-.132-1.278-.284-.476-.933-1.024-1.936-1.622-1.024-.64-1.846-.973-2.413-1.014-.568-.05-.953.112-1.156.466-.15.254-.15.558 0 .913.173.355.528.76 1.086 1.196M380.534 113.458l-.67.913-4.167-3.152c-.628-.497-1.064-.79-1.277-.923-.375-.213-.7-.324-1.004-.304-.294 0-.537.143-.73.376-.152.213-.223.436-.192.67.04.232.14.456.344.68.193.232.68.627 1.44 1.205l4.238 3.215-.69.913-4.014-3.052c-1.045-.78-1.744-1.39-2.14-1.805-.415-.435-.65-.88-.71-1.378-.09-.507.04-.963.376-1.42.365-.466.76-.74 1.196-.82.426-.082.913-.01 1.42.182.506.213 1.348.73 2.494 1.602l4.086 3.102M369.098 112.48l6.996 6.468-.75.83-5.82-5.373-1.906 2.09-1.217-1.096 2.698-2.92zM364.99 116.726l5.433 5.87 1.227-1.145 1.105 1.197-3.305 3.052-1.095-1.187 1.237-1.146-5.424-5.87.82-.77zM367.87 127.043l-.912.68-3.133-4.147c-.507-.64-.83-1.055-1.004-1.227-.293-.315-.597-.518-.88-.58-.295-.07-.558 0-.812.184-.213.162-.324.355-.345.588-.04.223 0 .476.132.75.122.264.487.78 1.055 1.55l3.224 4.23-.903.69-3.06-4.037c-.77-1.003-1.288-1.794-1.572-2.3-.274-.518-.385-1.035-.314-1.522.06-.497.314-.912.76-1.247.466-.365.913-.517 1.37-.487.425.04.88.232 1.307.567.447.335 1.106 1.075 1.988 2.23l3.102 4.076M359.018 128.36l-.7.446c-.456.254-.72.457-.79.59-.092.12-.132.282-.112.485.04.214.122.468.294.74.173.265.325.447.497.55.172.12.325.17.507.15.09-.02.395-.15.82-.425l.762-.456-1.278-2.08m-1.896-5.322l4.988 8.202-2.048 1.247c-.527.314-.932.476-1.257.456-.324-.01-.65-.152-1.014-.436-.374-.274-.698-.66-1.012-1.166-.396-.648-.6-1.226-.6-1.753-.04-.527.133-.963.488-1.318-.355-.082-.67-.194-.943-.376-.294-.162-.75-.497-1.38-.994l-1.55-1.247 1.156-.7 1.793 1.36c.64.496 1.065.79 1.258.902.193.1.345.152.487.152.152 0 .325-.06.527-.193l.213-.132-2.088-3.427.982-.577zM350.79 130.845l2.23 2.89-.83-3.54-1.4.65m-3.518-2.555l1.126-.537 1.37 1.774 2.047-.963-.517-2.17 1.074-.517 2.14 9.642-1.095.516-6.145-7.746zM309.156 137.162l.416-1.856 2.14.467-.417 1.865-2.14-.476zM316.147 136.102c-.142 1.136-.07 2.008.192 2.616.232.598.577.933 1.033.973.467.042.872-.2 1.237-.73.365-.536.61-1.377.72-2.564.122-1.145.07-2.007-.162-2.595-.254-.567-.588-.89-1.065-.932-.476-.05-.892.183-1.257.7-.345.537-.578 1.368-.7 2.534m-1.226-.06c.142-1.187.365-2.14.69-2.88.324-.73.71-1.267 1.165-1.602.426-.334.933-.466 1.51-.395.812.08 1.45.588 1.877 1.53.425.944.557 2.23.365 3.884-.153 1.65-.568 2.92-1.217 3.79-.578.77-1.278 1.126-2.11 1.035-.84-.09-1.47-.558-1.865-1.43-.435-.993-.588-2.31-.415-3.934M321.394 141.568l.152-9.956 4.31.07-.03 1.674-3.144-.04-.03 2.2 2.93.05-.03 1.683-2.94-.052-.03 2.707 3.243.06-.03 1.674-4.4-.072zM330.018 137.42l-1.064-3.62-.507 3.74 1.57-.12m2.445 3.77l-1.278.092-.67-2.22-2.31.192-.294 2.282-1.258.1 1.5-10.117 1.238-.093 3.072 9.764zM335.107 138.073l-.365-1.886 2.16-.385.344 1.876-2.14.395z" fill="#fff"/><path d="M298.86 48.508l.516-1.34 1.957-.2 1.46-.518s.82.1 1.45.517c.618.405 1.55.405 1.55.405l.315 1.967.61.932s-.61.527-.508 1.146c.09.618.618 2.372.618 2.372l-.943.63-.82 2.27s-.924.84-.417 2.484c.527 1.662 1.653 4.674 1.764 4.978.112.304 1.136 2.697 1.136 2.697l.324.506v-1.562l-.527-2.17 1.764 2.17.516 2.393s.102 1.764.832 2.28c.72.508 2.484 1.137 3.204 1.137.72 0 2.707.628 2.707.628s.19.61.91.61c.75 0 1.573.74 1.573.74l.415 1.236s1.53 1.55 2.8 1.44c1.215-.092 1.63-.092 1.63-.092s0 1.34.123 1.754c.092.406-.82 1.35-.82 1.35l-1.065.72-.304.73v1.144l.214.71-.61.517.7 1.654c1.947 2.544 1.907 3.538 4.35 6.022h1.065s0 6.205.202 6.62c.192.406.608 2.06.192 2.474-.395.416-.517 1.876-.304 2.606.213.73.933 1.754.933 1.754l.608 1.876v1.237l.528 2.372 1.744 1.136.852-.09.395 1.135 2.088.203-1.46-1.44v-.83l-.507-.316v-1.967l-.303-.83s.608-.102.7-.417c.11-.304 0-1.348 0-1.348l-.7-.82h.933l.618-1.45 1.237-.305.517-.842-.63-1.45s2.09.528 2.09.203c0-.304.406-1.44.406-1.44s.932-.82.932-1.125c0-.323.406-1.875.406-1.875l.74-1.865s2.068-.517 2.27-.832c.214-.314 2.586-3.203 3.002-3.73.416-.528 2.28-3.934 2.068-4.664-.202-.71-3.315-2.576-4.45-2.576-1.136 0-2.07.102-2.07.102l-.73-1.136h-1.236l-1.338-.314-.213-1.754s-1.136-1.56-1.552-1.866c-.436-.314-1.653-.314-1.653-.314l-1.166-1.348-.832-.203.122-.517-3.306-.112-.628-.82-1.034.293-.822-.194-1.47.416-.202.933-.812-.102-1.368.203s-1.45 0-1.45-.933c0-.922-.183-.922 0-1.45.213-.516.426-2.17.426-2.17l-.73-.11-1.126.73-.953-.832s1.663-1.865 1.247-2.483c-.415-.618-1.652.09-1.652.09l-1.045 1.147s-.922.416-1.237.416c-.314 0-1.135-.416-1.034-.933.102-.507-.517-2.575-.304-2.99.203-.417 1.136-2.2 1.977-2.292.81-.112 1.764.415 2.048.304.335-.082.832-.914.832-.914l2.3.406.285 1.764s.64 1.034.943 1.146c.324.09.507.517.507-.213v-3.104s1.237-2.18 1.57-2.29c.316-.092 1.015.526 1.45-.092.417-.63.518-1.977.812-2.393.335-.415 1.886-1.337 2.292-1.652.415-.314 2.18-1.45 2.18-1.45l1.236.315.943-.315s1.024-.1 1.136-.415c.082-.304.396-.62.396-.62l-1.744.103v-.73s.416-.61.102-.61c-.304 0-.72-.323-.213-.627.528-.305 1.978-.417 1.978-.417l.933.304 1.035-.415-.73 1.247s-.102.93.527.93c.608 0 1.44.417 1.54.103.113-.304.832-1.126.315-1.237-.517-.1-.932-1.237-.618-1.866.303-.618-.427-1.247-.427-1.247l-.203-.608s-.82.304-.608 0c.203-.314.09-1.146-.213-1.348-.315-.203-.204-1.136-.204-1.136l-.932.092-.213.73-.638-.09.11-1.056-1.124-.304-.74-.415-1.338-.102-.406 1.237-.83.73-.123 1.136-1.763 1.044v.72s-1.115.618-1.227.203c-.09-.416 0-.507.304-1.136.325-.62-.304-.62-.304-.62l-1.44-.314-1.672-.314-.507-1.125s2.8-1.663 3.62-2.18c.83-.517 1.744-.73 1.957-1.247.223-.517.618-.73.618-.73l-.294-.822-.212-.73-.84-.82-.397-.305h-1.55l-1.257.406 1.054-1.553-1.865 1.34-1.784.11-.72-.618-.822-.224-1.875.223-1.023.72 1.855.2v.518l-1.014.933-.415-.72-5.82.316-.203.517-1.45-.213-.517-.304s-1.865-.315-2.28-.315c-.406 0-1.755.093-1.755.093l-2.068-.193c-1.866.862-3.58.902-5.384 1.957l-1.247.527 1.662.294-.933.426-.934.415-.83.212-.72.832-.214 1.247 1.034-.11v1.033l1.663.305M0 184.782h397.6v-27.76H0v27.76z" fill="#065487"/><path d="M37.06 161.964c-.863 0-1.704.203-2.526.588-.82.385-1.652 1.024-2.453 1.916-.81.872-1.54 2.038-2.19 3.478-.79 1.754-1.185 3.427-1.185 4.988 0 1.115.314 2.11.943 2.97.638.863 1.6 1.3 2.9 1.3.78 0 1.55-.194 2.31-.54.75-.343 1.532-.972 2.363-1.814 1.015-1.084 1.897-2.463 2.587-4.126.7-1.673 1.044-3.234 1.044-4.684 0-1.065-.313-2.018-.942-2.84-.64-.82-1.582-1.236-2.85-1.236m.427-.75c1.176 0 2.21.223 3.102.69.903.456 1.592 1.135 2.11 2.037.516.904.76 1.836.76 2.81 0 1.723-.538 3.508-1.633 5.404-1.085 1.875-2.514 3.315-4.268 4.32-1.764.982-3.59 1.47-5.465 1.47-1.358 0-2.483-.255-3.395-.812-.913-.548-1.582-1.268-2.018-2.16-.436-.902-.66-1.784-.66-2.616 0-1.49.396-2.98 1.187-4.43.79-1.46 1.744-2.687 2.84-3.65 1.094-.994 2.25-1.744 3.497-2.27 1.238-.54 2.566-.792 3.945-.792M52.09 167.183l-.234.78H49.98l-1.43 5.16c-.627 2.282-1.266 4.036-1.905 5.283-.902 1.744-1.886 2.95-2.92 3.63-.8.527-1.58.77-2.382.77-.507 0-.953-.152-1.308-.426-.274-.202-.406-.446-.406-.76 0-.264.11-.466.334-.66.213-.192.476-.283.8-.283.234 0 .416.07.58.213.17.132.252.274.252.446 0 .183-.09.345-.284.487l-.203.253.09.163c.082.05.203.08.366.08.375 0 .76-.112 1.176-.315.405-.223.77-.527 1.085-.953.324-.426.628-1.024.902-1.825.13-.334.445-1.41.972-3.285l2.24-7.98h-2.24l.173-.78c.73 0 1.226-.05 1.51-.13.284-.093.548-.265.78-.518.234-.264.548-.74.934-1.44.506-.943.992-1.673 1.46-2.2.637-.7 1.296-1.227 2.006-1.572.7-.334 1.36-.527 1.987-.527.65 0 1.176.152 1.572.456.405.295.598.64.598.995 0 .274-.09.497-.294.68-.204.202-.457.283-.772.283-.263 0-.476-.06-.648-.203-.173-.142-.244-.314-.244-.517 0-.12.05-.273.163-.466.11-.162.17-.304.17-.365l-.13-.254c-.102-.07-.265-.1-.488-.1-.537 0-1.034.15-1.46.455-.577.436-1.084 1.065-1.55 1.967-.224.467-.66 1.612-1.278 3.458h1.896M58.188 162.212c.365 0 .67.12.913.344.264.233.376.507.376.842 0 .314-.122.598-.375.82-.253.244-.557.346-.912.346s-.66-.102-.912-.345c-.254-.224-.376-.508-.376-.822 0-.335.112-.61.376-.842.253-.223.547-.344.912-.344m.162 4.684l-2.555 8.283c-.172.557-.253.89-.253 1.003l.11.294.295.132c.132 0 .294-.072.467-.204.486-.335.983-.852 1.49-1.5l.446.273c-.578.81-1.277 1.5-2.068 2.057-.588.416-1.136.64-1.683.64-.346 0-.64-.103-.853-.285-.233-.203-.344-.446-.344-.74 0-.284.11-.78.324-1.45L55.4 170.1c.274-.862.416-1.4.416-1.613 0-.172-.07-.324-.193-.425-.142-.122-.314-.163-.548-.163-.202 0-.588.03-1.186.12v-.465l4.46-.66zM70.525 175.014c-.902.983-1.815 1.703-2.717 2.16-.923.476-1.886.7-2.91.7-1.217 0-2.17-.326-2.86-.954-.69-.63-1.023-1.47-1.023-2.535 0-1.206.365-2.383 1.095-3.548.75-1.166 1.733-2.11 2.98-2.84 1.237-.74 2.464-1.104 3.67-1.104.933 0 1.633.192 2.1.547.476.355.71.79.71 1.318 0 .477-.163.902-.498 1.247-.233.264-.537.406-.882.406-.284 0-.507-.09-.68-.243-.182-.152-.263-.354-.263-.588l.102-.416c.05-.132.202-.274.394-.446.213-.193.335-.305.365-.386l.08-.253c0-.153-.09-.305-.253-.417-.254-.152-.61-.233-1.075-.233-.83 0-1.673.274-2.494.82-.83.54-1.54 1.31-2.13 2.313-.69 1.216-1.054 2.423-1.054 3.63 0 .81.254 1.45.75 1.906.497.465 1.177.708 2.04.708.668 0 1.317-.152 1.986-.456.638-.294 1.368-.852 2.17-1.642l.395.304M78.625 162.212c.365 0 .67.12.912.344.264.233.385.507.385.842 0 .314-.12.598-.385.82-.253.244-.547.346-.912.346-.345 0-.65-.102-.903-.345-.253-.224-.375-.508-.375-.822 0-.335.122-.61.365-.842.254-.223.548-.344.913-.344m.172 4.684l-2.565 8.283c-.162.557-.254.89-.254 1.003l.122.294.304.132c.112 0 .274-.072.457-.204.487-.335.984-.852 1.49-1.5l.447.273c-.588.81-1.277 1.5-2.058 2.057-.6.416-1.157.64-1.694.64-.355 0-.65-.103-.862-.285-.223-.203-.335-.446-.335-.74 0-.284.1-.78.314-1.45l1.683-5.303c.273-.862.415-1.4.415-1.613 0-.172-.07-.324-.192-.425-.132-.122-.325-.163-.558-.163-.193 0-.588.03-1.176.12v-.465l4.46-.66zM86.58 166.895l-1.724 5.373c1.612-2.19 2.85-3.64 3.71-4.32.852-.71 1.674-1.053 2.475-1.053.426 0 .78.142 1.065.385.284.263.416.608.416 1.024 0 .466-.13 1.105-.364 1.886l-1.592 4.968c-.172.578-.264.932-.264 1.054l.102.284.223.11.375-.15c.456-.335.953-.842 1.5-1.52l.396.222c-.8 1.054-1.56 1.794-2.27 2.25-.498.315-.944.467-1.35.467-.314 0-.577-.09-.77-.274-.183-.17-.274-.404-.274-.72 0-.364.152-1.013.436-1.945l1.5-4.745c.193-.588.295-1.045.295-1.38 0-.16-.06-.283-.173-.384-.12-.092-.253-.142-.415-.142-.244 0-.538.09-.862.283-.65.345-1.308.933-2.008 1.744-.68.823-1.41 1.867-2.18 3.134-.405.68-.74 1.4-1.003 2.19l-.65 1.967h-1.946l2.363-7.41c.272-.893.414-1.42.414-1.602 0-.173-.08-.325-.233-.456-.14-.122-.344-.183-.557-.183-.1 0-.294 0-.547.03l-.487.08-.072-.425 4.47-.74M102.47 167.51c-.567 0-1.135.232-1.773.71-.872.678-1.663 1.672-2.342 2.97-.68 1.328-1.024 2.504-1.024 3.578 0 .538.143.953.426 1.268.305.294.64.466 1.024.466.933 0 1.957-.63 3.062-1.916 1.47-1.673 2.21-3.407 2.21-5.17 0-.67-.15-1.157-.425-1.45-.284-.305-.68-.457-1.156-.457m4.604-.62l-2.535 8.01-.274 1.085-.04.253.13.335.264.09c.102 0 .244-.06.426-.18.345-.224.79-.69 1.34-1.41l.455.283c-.597.81-1.206 1.45-1.844 1.866-.63.436-1.217.65-1.744.65-.365 0-.65-.072-.832-.255-.182-.172-.273-.415-.273-.75 0-.375.09-.882.273-1.51l.274-.893c-1.135 1.338-2.16 2.29-3.123 2.83-.678.384-1.347.577-1.996.577-.63 0-1.176-.243-1.632-.71-.446-.496-.68-1.135-.68-1.966 0-1.257.406-2.575 1.227-3.974.83-1.39 1.875-2.494 3.142-3.326.994-.67 1.927-1.004 2.81-1.004.516 0 .952.132 1.306.396.355.243.61.66.79 1.247l.468-1.348 2.068-.295zM125.357 169.182c0-.507-.152-.913-.476-1.217-.314-.304-.72-.466-1.216-.466-1.075 0-2.21.82-3.397 2.452-1.176 1.633-1.764 3.214-1.764 4.715 0 .588.142 1.034.426 1.338.283.315.628.467 1.023.467.903 0 2.028-.872 3.376-2.657 1.358-1.764 2.027-3.305 2.027-4.633m4.806-8.385l-4.45 13.93c-.244.75-.366 1.258-.366 1.48l.11.244.235.103c.1 0 .233-.05.385-.162.294-.192.79-.658 1.48-1.42l.446.265c-.618.77-1.257 1.42-1.885 1.906-.64.477-1.227.73-1.775.73-.294 0-.527-.09-.73-.273-.182-.182-.284-.476-.284-.81 0-.457.13-1.055.385-1.816l.517-1.45c-1.257 1.755-2.393 2.982-3.417 3.65-.71.478-1.39.7-2.038.7-.66 0-1.227-.273-1.713-.8-.487-.527-.73-1.257-.73-2.17 0-1.176.405-2.423 1.226-3.75.822-1.33 1.907-2.414 3.255-3.256 1.054-.66 2.028-1.003 2.92-1.003.456 0 .862.092 1.196.264.346.183.67.467.995.872l1.277-4.126c.08-.284.173-.497.234-.69.1-.304.152-.568.152-.77 0-.173-.07-.305-.193-.416-.183-.132-.416-.203-.7-.203-.212 0-.527.032-.983.082v-.436l4.45-.67zM132.98 172.558c1.28-.132 2.313-.365 3.114-.68 1.075-.435 1.866-.962 2.393-1.57.537-.6.8-1.167.8-1.704 0-.335-.12-.598-.344-.81-.233-.184-.558-.305-.983-.305-.883 0-1.805.435-2.8 1.276-.982.862-1.712 2.12-2.18 3.792m-.09.578c-.06.395-.09.72-.09.983 0 .7.283 1.287.82 1.784.548.497 1.207.74 1.977.74.62 0 1.217-.112 1.785-.355.577-.234 1.43-.75 2.565-1.532l.273.335c-2.048 1.855-4.004 2.778-5.85 2.778-1.257 0-2.22-.364-2.86-1.084-.638-.73-.942-1.52-.942-2.393 0-1.186.396-2.382 1.176-3.62.8-1.216 1.805-2.17 2.99-2.848 1.208-.69 2.445-1.034 3.712-1.034.902 0 1.582.183 2.028.518.436.334.66.74.66 1.206 0 .65-.285 1.278-.863 1.886-.74.76-1.844 1.41-3.304 1.876-.963.334-2.322.567-4.076.76M150.036 160.796l-4.42 14.063c-.224.678-.335 1.114-.335 1.286l.133.274.294.132c.172 0 .354-.08.537-.213.456-.315.912-.812 1.42-1.48l.385.353c-.833 1.055-1.583 1.795-2.272 2.21-.507.305-1.004.457-1.45.457-.325 0-.6-.112-.822-.325-.212-.192-.324-.436-.324-.7 0-.283.132-.86.416-1.753l3.498-11.072c.283-.912.425-1.42.425-1.56 0-.194-.08-.336-.242-.467-.162-.122-.416-.173-.77-.173-.193 0-.487.02-.893.07v-.435l4.42-.67M163.997 177.153l-.152.446h-7.21l.184-.447c.718-.02 1.195-.08 1.438-.172.375-.12.66-.314.842-.557.274-.365.568-1.024.872-1.977l3.05-9.662c.265-.8.397-1.4.397-1.815 0-.204-.062-.386-.173-.508-.112-.152-.284-.264-.507-.335-.234-.07-.67-.11-1.34-.11l.143-.437h6.783l-.132.436c-.557-.01-.973.04-1.227.162-.395.152-.69.395-.902.68-.193.283-.456.942-.77 1.926l-3.042 9.662c-.284.882-.416 1.45-.416 1.693 0 .192.05.374.162.506.1.142.273.253.517.314.223.07.73.142 1.48.193M173.477 177.153l-.142.446h-7.21l.173-.447c.72-.02 1.207-.08 1.44-.172.375-.12.66-.314.84-.557.285-.365.58-1.024.884-1.977l3.05-9.662c.255-.8.387-1.4.387-1.815 0-.204-.062-.386-.174-.508-.11-.152-.284-.264-.507-.335-.234-.07-.67-.11-1.35-.11l.163-.437h6.773l-.122.436c-.568-.01-.973.04-1.237.162-.405.152-.7.395-.892.68-.193.283-.466.942-.78 1.926l-3.042 9.662c-.274.882-.416 1.45-.416 1.693 0 .192.05.374.162.506.11.142.283.253.516.314.233.07.73.142 1.48.193M195.07 161.212l-1.297 5.18h-.476l-.05-1.307c-.042-.467-.153-.872-.295-1.247-.162-.375-.406-.7-.7-.974-.314-.273-.71-.476-1.176-.628-.476-.162-1.003-.233-1.58-.233-1.553 0-2.89.385-4.057 1.155-1.47.974-2.627 2.383-3.468 4.178-.69 1.48-1.034 2.97-1.034 4.49 0 1.552.507 2.79 1.5 3.712.984.933 2.28 1.39 3.863 1.39 1.207 0 2.262-.255 3.195-.72.943-.508 1.814-1.258 2.615-2.272h.61c-.954 1.39-2.01 2.393-3.154 3.042-1.156.638-2.555.963-4.157.963-1.43 0-2.698-.253-3.803-.81-1.105-.538-1.947-1.33-2.525-2.302-.578-.993-.872-2.058-.872-3.204 0-1.754.517-3.457 1.55-5.11 1.015-1.652 2.425-2.95 4.22-3.883 1.794-.952 3.598-1.418 5.413-1.418.842 0 1.815.192 2.87.547.466.162.8.243 1.013.243.203 0 .376-.04.538-.122.152-.07.415-.293.77-.668h.487M205.848 165.143l-5.08 6.306h4.41l.67-6.307m2.555-3.934l-1.318 13.32c-.07.61-.11 1.025-.11 1.228 0 .314.06.568.19.71.174.243.387.395.67.517.284.11.75.172 1.42.172l-.142.446h-6.904l.13-.446h.305c.547 0 1.013-.132 1.358-.345.264-.142.456-.395.588-.74.103-.233.194-.81.285-1.713l.193-2.04h-5.02l-1.783 2.21c-.406.498-.66.853-.76 1.066-.102.213-.153.415-.153.608 0 .264.102.466.335.65.223.17.588.283 1.115.303l-.142.446h-5.19l.14-.446c.64-.03 1.197-.223 1.684-.588.487-.366 1.217-1.157 2.18-2.343l10.483-13.018h.446zM221.66 172.558c1.278-.132 2.323-.365 3.124-.68 1.064-.435 1.855-.962 2.382-1.57.527-.6.79-1.167.79-1.704 0-.335-.11-.598-.334-.81-.233-.184-.567-.305-.983-.305-.873 0-1.806.435-2.81 1.276-.983.862-1.693 2.12-2.17 3.792m-.09.578c-.06.395-.092.72-.092.983 0 .7.274 1.287.81 1.784.55.497 1.208.74 2 .74.607 0 1.195-.112 1.783-.355.57-.234 1.41-.75 2.556-1.532l.264.335c-2.048 1.855-3.995 2.778-5.84 2.778-1.268 0-2.21-.364-2.85-1.084-.648-.73-.962-1.52-.962-2.393 0-1.186.405-2.382 1.196-3.62.8-1.216 1.784-2.17 2.98-2.848 1.207-.69 2.444-1.034 3.71-1.034.904 0 1.593.183 2.02.518.445.334.668.74.668 1.206 0 .65-.284 1.278-.85 1.886-.752.76-1.857 1.41-3.317 1.876-.963.334-2.332.567-4.076.76M236.68 166.895l-1.723 5.373c1.622-2.19 2.85-3.64 3.7-4.32.872-.71 1.683-1.053 2.484-1.053.427 0 .792.142 1.066.385.274.263.416.608.416 1.024 0 .466-.122 1.105-.376 1.886l-1.57 4.968c-.184.578-.275.932-.275 1.054l.103.284.233.11.375-.15c.447-.335.944-.842 1.49-1.52l.417.222c-.81 1.054-1.572 1.794-2.28 2.25-.508.315-.954.467-1.35.467-.324 0-.578-.09-.76-.274-.203-.17-.284-.404-.284-.72 0-.364.142-1.013.436-1.945l1.49-4.745c.202-.588.293-1.045.293-1.38 0-.16-.06-.283-.162-.384-.13-.092-.262-.142-.425-.142-.243 0-.527.09-.86.283-.64.345-1.31.933-2 1.744-.688.823-1.418 1.867-2.18 3.134-.404.68-.74 1.4-1.002 2.19l-.65 1.967h-1.946l2.363-7.41c.273-.893.405-1.42.405-1.602 0-.173-.07-.325-.233-.456-.142-.122-.325-.183-.548-.183-.11 0-.294 0-.547.03l-.487.08-.09-.425 4.48-.74M259.626 161.578l5.414 12.552 2.94-9.38c.244-.77.355-1.357.355-1.793 0-.294-.11-.517-.334-.69-.222-.152-.648-.243-1.256-.243l-.325-.01.14-.436h5.638l-.152.436c-.588-.01-1.014.04-1.298.172-.405.152-.71.375-.912.62-.274.384-.558 1.033-.842 1.945l-4.126 13.192h-.466l-5.83-13.495-3.113 9.977c-.234.76-.356 1.328-.356 1.733 0 .315.112.517.315.68.212.152.708.253 1.51.314l-.143.447h-5.505l.183-.446c.69-.02 1.155-.08 1.39-.16.353-.143.617-.336.79-.57.243-.334.537-1.013.84-1.996l3.478-11.143c-.334-.475-.69-.79-1.084-.962-.376-.172-.975-.284-1.796-.304l.152-.436h4.39M276.27 162.212c.385 0 .67.12.933.344.243.233.375.507.375.842 0 .314-.132.598-.396.82-.243.244-.547.346-.912.346-.345 0-.64-.102-.892-.345-.264-.224-.386-.508-.386-.822 0-.335.122-.61.365-.842.264-.223.568-.344.913-.344m.172 4.684l-2.555 8.283c-.162.557-.253.89-.253 1.003l.11.294.306.132c.11 0 .273-.072.466-.204.476-.335.973-.852 1.48-1.5l.446.273c-.588.81-1.277 1.5-2.068 2.057-.588.416-1.136.64-1.673.64-.364 0-.638-.103-.86-.285-.244-.203-.345-.446-.345-.74 0-.284.1-.78.324-1.45l1.692-5.303c.274-.862.416-1.4.416-1.613 0-.172-.07-.324-.203-.425-.142-.122-.334-.163-.557-.163-.193 0-.59.03-1.177.12v-.465l4.452-.66zM288.602 175.014c-.893.983-1.785 1.703-2.707 2.16-.923.476-1.876.7-2.9.7-1.227 0-2.17-.326-2.86-.954-.69-.63-1.033-1.47-1.033-2.535 0-1.206.365-2.383 1.115-3.548.73-1.166 1.713-2.11 2.98-2.84 1.238-.74 2.454-1.104 3.65-1.104.944 0 1.633.192 2.11.547.476.355.7.79.7 1.318 0 .477-.153.902-.498 1.247-.244.264-.538.406-.873.406-.283 0-.507-.09-.68-.243-.17-.152-.252-.354-.252-.588l.08-.416c.072-.132.204-.274.416-.446.184-.193.326-.305.356-.386l.08-.253c0-.153-.09-.305-.262-.417-.244-.152-.61-.233-1.055-.233-.842 0-1.674.274-2.505.82-.82.54-1.55 1.31-2.12 2.313-.72 1.216-1.074 2.423-1.074 3.63 0 .81.265 1.45.762 1.906.486.465 1.176.708 2.038.708.67 0 1.328-.152 1.967-.456.66-.294 1.378-.852 2.21-1.642l.355.304M298.632 167.51c-.548 0-1.136.232-1.754.71-.913.678-1.683 1.672-2.352 2.97-.71 1.328-1.034 2.504-1.034 3.578 0 .538.162.953.436 1.268.294.294.638.466 1.013.466.934 0 1.968-.63 3.063-1.916 1.47-1.673 2.22-3.407 2.22-5.17 0-.67-.15-1.157-.435-1.45-.294-.305-.67-.457-1.156-.457m4.583-.62l-2.515 8.01-.274 1.085-.03.253.122.335.253.09c.133 0 .265-.06.437-.18.345-.224.79-.69 1.338-1.41l.457.283c-.61.81-1.207 1.45-1.835 1.866-.63.436-1.217.65-1.754.65-.386 0-.65-.072-.832-.255-.19-.172-.273-.415-.273-.75 0-.375.082-.882.274-1.51l.275-.893c-1.136 1.338-2.15 2.29-3.123 2.83-.68.384-1.348.577-1.997.577-.62 0-1.176-.243-1.632-.71-.447-.496-.69-1.135-.69-1.966 0-1.257.416-2.575 1.227-3.974.83-1.39 1.886-2.494 3.153-3.326.984-.67 1.926-1.004 2.81-1.004.536 0 .962.132 1.327.396.324.243.608.66.77 1.247l.467-1.348 2.048-.295zM306.087 167.56l4.46-.66-1.854 5.748c1.51-2.362 2.88-4.025 4.126-4.937.678-.547 1.256-.81 1.702-.81.274 0 .507.08.65.233.182.152.263.375.263.66 0 .516-.152 1.023-.446 1.5-.214.344-.498.527-.904.527-.182 0-.354-.06-.496-.183-.132-.122-.223-.294-.274-.537l-.102-.294-.263-.102-.405.102c-.233.11-.557.415-1.024.902-.698.79-1.48 1.785-2.32 3.01-.365.53-.68 1.117-.933 1.765-.355.893-.558 1.43-.63 1.612l-.415 1.5h-1.966l2.382-7.33c.274-.86.406-1.47.406-1.834l-.173-.344c-.18-.132-.394-.193-.698-.193-.173 0-.497.03-1.004.112l-.08-.446M323.513 167.51c-.557 0-1.135.232-1.784.71-.863.678-1.654 1.672-2.343 2.97-.67 1.328-1.014 2.504-1.014 3.578 0 .538.142.953.426 1.268.293.294.648.466 1.023.466.933 0 1.947-.63 3.052-1.916 1.48-1.673 2.22-3.407 2.22-5.17 0-.67-.132-1.157-.426-1.45-.275-.305-.67-.457-1.157-.457m4.583-.62l-2.514 8.01-.274 1.085-.03.253.12.335.255.09c.1 0 .253-.06.446-.18.323-.224.78-.69 1.337-1.41l.446.283c-.608.81-1.206 1.45-1.855 1.866-.61.436-1.207.65-1.744.65-.355 0-.63-.072-.82-.255-.184-.172-.275-.415-.275-.75 0-.375.09-.882.273-1.51l.273-.893c-1.135 1.338-2.17 2.29-3.122 2.83-.68.384-1.35.577-1.998.577-.638 0-1.176-.243-1.632-.71-.456-.496-.68-1.135-.68-1.966 0-1.257.406-2.575 1.217-3.974.833-1.39 1.887-2.494 3.144-3.326.994-.67 1.937-1.004 2.81-1.004.526 0 .972.132 1.317.396.346.243.63.66.792 1.247l.466-1.348 2.048-.295zM338.9 169.49c0-.63-.194-1.126-.59-1.48-.374-.376-.88-.55-1.49-.55-.973 0-1.784.437-2.402 1.34-.64.902-.964 1.825-.964 2.778 0 .618.203 1.105.6 1.5.404.385.89.578 1.49.578.445 0 .89-.122 1.327-.334.417-.234.792-.558 1.066-.964.294-.385.537-.912.71-1.52.172-.63.253-1.075.253-1.35m-6.186 8.112c-.72.274-1.227.65-1.602 1.115-.355.446-.527.903-.527 1.33 0 .526.264.972.78 1.296.74.498 1.826.73 3.255.73 1.227 0 2.282-.19 3.164-.567.882-.395 1.318-.87 1.318-1.48 0-.314-.163-.608-.487-.872-.335-.272-.953-.506-1.886-.668-.508-.1-1.856-.405-4.016-.882m10.666-9.966l-.375 1.227h-2.16c.163.426.254.832.254 1.197 0 1.024-.488 1.957-1.44 2.768-.974.81-2.302 1.267-4.016 1.348-.912.244-1.602.558-2.048.903-.182.12-.273.253-.273.385 0 .153.07.305.233.437.152.12.547.253 1.176.385l2.514.537c1.38.304 2.312.658 2.738 1.054.446.426.68.902.68 1.46 0 .628-.265 1.227-.772 1.774-.537.527-1.297.933-2.3 1.257-1.015.294-2.12.436-3.347.436-1.054 0-2.038-.11-2.92-.343-.882-.224-1.5-.538-1.886-.933-.376-.406-.558-.81-.558-1.227 0-.345.11-.68.355-1.054.243-.365.557-.66.943-.893.212-.162.872-.517 1.977-1.064-.416-.294-.61-.61-.61-.943 0-.304.174-.65.518-1.004.345-.346 1.116-.75 2.23-1.167-.952-.162-1.692-.527-2.26-1.085-.548-.567-.83-1.186-.83-1.865 0-1.115.536-2.12 1.6-3 1.075-.883 2.505-1.33 4.3-1.33.648 0 1.175.06 1.58.193.417.102.822.294 1.218.548h3.477zM355.968 167.183l-2.26 7.036c-.335 1.053-.497 1.712-.497 1.986l.082.314.223.092c.132 0 .314-.05.487-.183.182-.113.618-.6 1.338-1.45l.385.273c-.68.983-1.38 1.703-2.1 2.17-.465.304-.92.456-1.367.456-.325 0-.588-.092-.77-.265-.214-.172-.305-.405-.305-.67 0-.273.05-.628.172-1.074.142-.577.528-1.834 1.176-3.8-1.46 2.19-2.685 3.72-3.67 4.542-.992.84-1.925 1.267-2.746 1.267-.416 0-.74-.143-1.014-.386-.284-.254-.416-.568-.416-.953 0-.598.183-1.5.568-2.727l1.125-3.64c.294-.872.416-1.42.416-1.622l-.112-.252-.232-.09c-.182 0-.355.05-.557.16-.172.122-.588.57-1.226 1.33l-.396-.255c.66-.922 1.33-1.612 2.058-2.037.548-.335 1.065-.507 1.53-.507.306 0 .59.09.772.283.213.182.304.425.304.71 0 .415-.162 1.196-.507 2.28l-1.216 3.813c-.336 1.034-.508 1.693-.508 1.956l.172.376c.08.09.243.14.436.14.274 0 .63-.14 1.105-.384.446-.274 1.065-.84 1.825-1.744.76-.882 1.39-1.733 1.896-2.504.487-.79 1.024-2.038 1.57-3.74l.296-.903h1.966M365.236 167.51c-.557 0-1.135.232-1.784.71-.862.678-1.653 1.672-2.342 2.97-.68 1.328-1.024 2.504-1.024 3.578 0 .538.142.953.456 1.268.284.294.618.466 1.004.466.943 0 1.957-.63 3.062-1.916 1.47-1.673 2.21-3.407 2.21-5.17 0-.67-.132-1.157-.436-1.45-.274-.305-.67-.457-1.146-.457m4.603-.62l-2.535 8.01-.274 1.085-.04.253.132.335.254.09c.1 0 .253-.06.446-.18.324-.224.77-.69 1.348-1.41l.426.283c-.608.81-1.207 1.45-1.845 1.866-.618.436-1.206.65-1.723.65-.385 0-.65-.072-.852-.255-.182-.172-.273-.415-.273-.75 0-.375.11-.882.294-1.51l.253-.893c-1.116 1.338-2.15 2.29-3.093 2.83-.7.384-1.37.577-2.018.577-.63 0-1.187-.243-1.633-.71-.446-.496-.69-1.135-.69-1.966 0-1.257.416-2.575 1.248-3.974.82-1.39 1.865-2.494 3.143-3.326.973-.67 1.906-1.004 2.788-1.004.537 0 .973.132 1.318.396.355.243.618.66.79 1.247l.467-1.348 2.07-.295z" fill="#fff"/></svg>