<svg xmlns="http://www.w3.org/2000/svg" width="400" height="110.834"><path d="M48.997 15.82H24.512l-4.32 10.808h24.484l4.32-10.81M36.902 46.055h-24.47L8.02 57.077h24.474l4.406-11.022M43.367 29.893H18.885l-5.15 12.88h24.474l5.157-12.88M54.165 2.922l.67-1.7H30.358l-.306.757L26 12.09h24.482l3.683-9.17M3.278 68.908l-.68 1.697h24.48l.298-.765 3.806-9.512H6.708l-3.43 8.58M38.092 68.908l-.686 1.697h55.24l.294-.765 2.747-6.827.668-1.69H65.37l.386-.995H41.532l-3.44 8.58M47.242 46.055l-4.428 11.022H67.08l4.403-11.022h-24.24M79.26 26.628l4.322-10.81H59.32l-4.308 10.81h24.25M77.96 29.893H53.68l-5.13 12.88H72.79l5.17-12.88M88.73 2.922l.688-1.7H65.163l-.298.757-4.033 10.112h24.234l3.663-9.17M133.196 63.414c-3-.165-5.192-1.097-6.47-2.76l-.193-.326h-23.26c.397.932.86 1.814 1.395 2.633 3.81 5.807 11.17 8.76 21.927 8.76 8.453 0 15.336-1.423 21.038-4.338 3.745-1.86 7.205-4.304 10.124-7.054h-13.74c-3.064 1.906-6.668 3.086-10.82 3.086M110.54 26.628h24.882c1.474-3.07 3.12-6.06 5.1-8.9.472-.68.96-1.302 1.44-1.91h-22.603c-3.41 3.33-6.366 6.986-8.82 10.81M166.61 46.055h-11.57c-.133.364-.226.71-.373 1.073-1.38 3.478-3.563 7.027-6.526 9.95h12.703c1.848-2.206 3.278-4.52 4.204-6.795.56-1.37 1.1-2.784 1.564-4.228M125.67 53.455c.472-2.448 1.16-4.962 1.97-7.4H102.52c-.82 4.088-.888 7.798-.233 11.022h23.175c-.093-1.098-.048-2.288.21-3.622M133.892 29.893h-25.297c-1.256 2.2-2.332 4.448-3.234 6.71-.857 2.124-1.542 4.185-2.088 6.17h25.445c.73-2.033 1.485-3.97 2.192-5.734.962-2.442 1.95-4.805 2.982-7.147M160.843 23.367c-.302.727-.645 1.485-.912 2.202l-.445 1.058h3.597l9.208-3.234.562-.174.202-.566c.906-2.41 1.46-4.705 1.69-6.835h-11.713c-.09 1.645-.48 3.473-1.224 5.34-.312.736-.648 1.487-.963 2.207M155.884 8.323c2.895 0 4.942.87 6.074 2.616.253.346.428.754.593 1.15h12.195c-.24-2.104-.86-4.004-1.972-5.62C169.99 2.3 164.42.104 156.713.104c-13.02 0-24.3 4.838-33.16 11.988h22.12c3.123-2.522 6.508-3.767 10.21-3.767M200.173 29.893h-25.59c-.884 1.756-1.714 3.583-2.46 5.49-1.037 2.603-1.86 5.05-2.44 7.39h25.23c.826-2.167 1.697-4.307 2.548-6.437.858-2.143 1.787-4.307 2.713-6.443M211.277 46.055l-.84 1.955-.106.254c-1.176 2.56-2.695 5.89-4.746 8.813h22.387c3.125-3.2 5.954-6.886 8.413-11.022h-25.106M243.385 29.893h-25.38c-.717 1.84-1.437 3.666-2.16 5.476-.988 2.486-2.078 4.968-3.142 7.403h25.504c1.087-2.05 2.054-4.194 2.953-6.437.908-2.246 1.64-4.372 2.225-6.443M193.74 46.055h-24.807c-.748 4.088-.748 7.798-.076 11.022h21.748c.25-1.45.61-2.88.91-3.923.616-2.343 1.364-4.74 2.225-7.1M201.572 26.628l1.26-2.918c.84-1.938 2.224-4.99 4.083-7.89h-22.74c-2.92 3.168-5.55 6.78-7.828 10.808h25.225M218.276 7.922c1.852 0 3.107.45 3.824 1.378.504.71.703 1.715.734 2.792h20.888c-.45-1.214-.988-2.356-1.69-3.378C238.278 2.934 230.988 0 220.43 0 207.995 0 196.89 4.263 188 12.092h21.803c2.266-2.404 5.06-4.17 8.473-4.17M219.22 26.628h24.933c.827-3.98.998-7.603.518-10.81h-22.23c-.24 1.105-.515 2.1-.71 2.858-.66 2.596-1.533 5.267-2.51 7.952M194.913 63.822c-1.85 0-3.087-.453-3.776-1.375-.43-.545-.614-1.293-.703-2.12h-20.6c.405.964.854 1.863 1.424 2.723 3.79 5.748 11 8.67 21.487 8.67 12.1 0 22.908-3.978 31.694-11.392h-21.61c-2.163 2.067-4.75 3.494-7.917 3.494M332.625 2.922l.69-1.7h-24.96l-.37.5-7.386 10.37h28.342l3.683-9.17M282.774 26.628l.933-10.81h-28.943l-4.318 10.81h32.328M282.427 68.908l-.682 1.697h23.81l.305-.765 3.803-9.512h-23.82l-3.416 8.58M255.878 69.285l-.113 1.32h13.988l.37-.507 6.93-9.77h-20.516l-.66 8.957M284.825 2.555l.106-1.334h-24.32l-.298.76-4.063 10.11h27.748l.827-9.535M281.762 38.552l.74-8.66H249.16l-5.164 12.88h10.16l4.555-11.363-.867 11.363h31.663l7.712-10.89-4.342 10.89h23.806l5.158-12.88h-33.926l-6.152 8.66M323.136 26.628l4.328-10.81H297.93l-7.673 10.81h32.88M233.547 68.908l-.69 1.697h10.165l.298-.765 3.803-9.512h-10.14l-3.436 8.58M291.577 46.055l-4.424 11.022h23.813l4.413-11.022h-23.803M242.686 46.055l-4.407 11.022h10.164l4.403-11.022h-10.16M257.613 46.055l-.843 11.022h22.58l7.84-11.022h-29.577M398.333 15.82H374.76c-.198 2.448-1.2 5.287-2.105 7.523-.418 1.073-.957 2.19-1.615 3.285h23.823c.648-1.173 1.245-2.414 1.78-3.752 1.018-2.554 1.58-4.883 1.69-7.057M320.194 57.077h24.697l4.4-11.022h-24.683l-4.413 11.022M357.065 34.53h-3.14l1.854-4.637H331.07l-5.158 12.88h39.025c10.362-1.022 21.055-4.074 27.773-12.88H368.56c-2.56 2.637-6.258 4.636-11.495 4.636M363.756 9.924h4.14c3.168 0 5.27.724 6.203 2.168h23.955c-.322-1.29-.775-2.483-1.502-3.563-3.113-4.806-10.23-7.31-20.544-7.31H342.52l-.288.76-4.067 10.112h24.708l.88-2.168M357.065 26.628l4.335-10.81h-24.715l-4.328 10.81h24.708M315.465 68.908l-.686 1.697h24.704l.315-.765 3.795-9.512h-24.708l-3.422 8.58" fill="#294486"/><path d="M0 106.277h2.17v-15.91H0v15.91zM12.246 106.277v-6.763c0-1.24-.19-2.106-.563-2.603-.37-.496-.998-.74-1.87-.74-.472 0-.962.14-1.48.422-.51.285-.91.628-1.18 1.04v8.645H5.09V94.65h1.415l.648 1.496c.68-1.14 1.79-1.714 3.334-1.714 2.544 0 3.82 1.55 3.82 4.646v7.2h-2.06M15.92 105.58l.73-1.958c1.15.758 2.074 1.132 2.777 1.132 1.275 0 1.913-.54 1.913-1.605 0-.77-.617-1.428-1.845-1.976-.953-.436-1.59-.765-1.92-.99-.326-.224-.61-.478-.854-.766-.242-.28-.424-.587-.544-.912-.12-.323-.178-.666-.178-1.036 0-.953.346-1.7 1.042-2.24.693-.53 1.605-.798 2.726-.798.844 0 1.914.267 3.203.8l-.59 1.912c-.82-.655-1.64-.974-2.463-.974-.494 0-.91.113-1.24.347-.34.23-.51.52-.51.878 0 .747.426 1.31 1.267 1.694l1.48.67c.906.416 1.565.886 1.98 1.414.408.524.617 1.19.617 1.99 0 1.038-.366 1.854-1.096 2.444-.73.59-1.742.884-3.035.884-1.23 0-2.38-.305-3.46-.912M25.863 96.276H24.52V94.65h1.343v-2.434l2.06-.792v3.227h3.194v1.626h-3.193v5.775c0 .982.17 1.678.494 2.086.333.415.86.618 1.59.618.533 0 1.078-.134 1.64-.405l.306 1.817c-.854.216-1.79.325-2.816.325-.92 0-1.694-.343-2.32-1.028-.64-.683-.955-1.55-.955-2.586v-6.602M35.513 90.25c.354 0 .655.125.906.375.25.25.376.55.376.9 0 .352-.127.65-.377.907-.252.247-.553.37-.907.37-.35 0-.648-.123-.895-.37-.25-.257-.377-.555-.377-.908 0-.357.128-.655.372-.906.243-.243.545-.367.9-.367zm-1.13 16.026v-9.89h-1.596V94.65h3.663v11.626h-2.068M39.91 96.276h-1.348V94.65h1.348v-2.434l2.06-.792v3.227h3.193v1.626H41.97v5.775c0 .982.165 1.678.495 2.086.33.415.86.618 1.587.618.532 0 1.077-.134 1.643-.405l.305 1.817c-.854.216-1.793.325-2.815.325-.92 0-1.69-.343-2.33-1.028-.626-.683-.945-1.55-.945-2.586v-6.602M49.38 94.65v7.412c0 1.797.78 2.692 2.337 2.692.682 0 1.303-.192 1.865-.583.566-.393.943-.846 1.122-1.357V94.65h2.06v11.627h-2.06v-1.61c-.234.457-.7.876-1.396 1.253-.696.384-1.38.573-2.047.573-1.275 0-2.25-.364-2.92-1.098-.677-.73-1.02-1.773-1.02-3.114v-7.63h2.06M59.762 96.276h-1.348V94.65h1.348v-2.434l2.06-.792v3.227h3.194v1.626h-3.193v5.775c0 .982.16 1.678.494 2.086.332.415.86.618 1.59.618.53 0 1.074-.134 1.64-.405l.302 1.817c-.855.216-1.788.325-2.813.325-.92 0-1.694-.343-2.33-1.028-.63-.683-.945-1.55-.945-2.586v-6.602M68.695 100.433c0 2.915 1.03 4.38 3.093 4.38.96 0 1.718-.392 2.264-1.177.545-.778.816-1.848.816-3.203 0-2.88-1.026-4.32-3.08-4.32-.943 0-1.687.383-2.25 1.15-.562.77-.843 1.826-.843 3.17zm-2.17 0c0-1.797.48-3.247 1.45-4.348.963-1.104 2.236-1.653 3.813-1.653 1.667 0 2.953.528 3.875 1.59.92 1.057 1.38 2.532 1.38 4.41 0 1.877-.474 3.355-1.41 4.442-.94 1.08-2.223 1.62-3.845 1.62-1.66 0-2.952-.547-3.875-1.637-.93-1.1-1.39-2.57-1.39-4.424M84.963 106.277v-15.91h2.17v13.955h7.186v1.955h-9.357M101.877 100.563c-.652-.144-1.108-.216-1.37-.216-1.04 0-1.892.264-2.55.802-.662.538-.988 1.17-.988 1.9 0 1.21.713 1.817 2.136 1.817 1.042 0 1.965-.5 2.77-1.492v-2.812zm.195 4.376c-.826 1.034-2.088 1.552-3.793 1.552-.91 0-1.702-.332-2.37-.994-.67-.662-1.005-1.482-1.005-2.466 0-1.183.514-2.177 1.547-2.997 1.032-.81 2.35-1.217 3.947-1.217.434 0 .925.092 1.477.28 0-1.882-.84-2.82-2.52-2.82-1.287 0-2.278.345-2.974 1.038l-.868-1.722c.388-.322.926-.593 1.62-.82.695-.233 1.354-.342 1.984-.342 1.687 0 2.908.38 3.672 1.148.765.77 1.146 1.99 1.146 3.66v4.17c0 1.02.305 1.7.908 2.043v1.026c-.84 0-1.46-.118-1.875-.355-.418-.24-.72-.637-.898-1.186M107.367 96.276h-1.344V94.65h1.344v-2.434l2.06-.792v3.227h3.197v1.626h-3.196v5.775c0 .982.168 1.678.497 2.086.33.415.86.618 1.588.618.532 0 1.077-.134 1.64-.405l.304 1.817c-.853.216-1.786.325-2.812.325-.922 0-1.694-.343-2.325-1.028-.634-.683-.953-1.55-.953-2.586v-6.602M117.017 90.25c.353 0 .655.125.905.375.247.25.37.55.37.9 0 .352-.123.65-.37.907-.25.247-.552.37-.905.37-.347 0-.648-.123-.895-.37-.254-.257-.378-.555-.378-.908 0-.357.124-.655.37-.906.244-.243.546-.367.903-.367zm-1.132 16.026v-9.89h-1.598V94.65h3.66v11.626h-2.062M127.826 106.277v-6.763c0-1.24-.185-2.106-.56-2.603-.373-.496-.997-.74-1.87-.74-.475 0-.965.14-1.48.422-.51.285-.908.628-1.18 1.04v8.645h-2.067V94.65h1.412l.655 1.496c.68-1.14 1.79-1.714 3.33-1.714 2.548 0 3.823 1.55 3.823 4.646v7.2h-2.064M133.683 100.433c0 2.915 1.026 4.38 3.087 4.38.963 0 1.718-.392 2.263-1.177.545-.778.82-1.848.82-3.203 0-2.88-1.022-4.32-3.083-4.32-.937 0-1.688.383-2.25 1.15-.562.77-.837 1.826-.837 3.17zm-2.174 0c0-1.797.48-3.247 1.45-4.348.963-1.104 2.232-1.653 3.81-1.653 1.666 0 2.956.528 3.878 1.59.92 1.057 1.38 2.532 1.38 4.41 0 1.877-.47 3.355-1.414 4.442-.936 1.08-2.22 1.62-3.844 1.62-1.653 0-2.946-.547-3.876-1.637-.922-1.1-1.385-2.57-1.385-4.424M150.013 100.563c-.65-.144-1.107-.216-1.364-.216-1.047 0-1.898.264-2.556.802-.66.538-.988 1.17-.988 1.9 0 1.21.717 1.817 2.143 1.817 1.035 0 1.96-.5 2.763-1.492v-2.812zm.196 4.376c-.828 1.034-2.09 1.552-3.787 1.552-.912 0-1.704-.332-2.377-.994-.668-.662-1-1.482-1-2.466 0-1.183.514-2.177 1.546-2.997 1.028-.81 2.345-1.217 3.943-1.217.436 0 .93.092 1.478.28 0-1.882-.84-2.82-2.517-2.82-1.29 0-2.28.345-2.976 1.038l-.868-1.722c.39-.322.93-.593 1.626-.82.69-.233 1.347-.342 1.982-.342 1.68 0 2.908.38 3.67 1.148.767.77 1.144 1.99 1.144 3.66v4.17c0 1.02.306 1.7.916 2.043v1.026c-.844 0-1.468-.118-1.883-.355-.418-.24-.72-.637-.898-1.186M168.23 106.277v-7.363c0-1.83-.796-2.744-2.377-2.744-.5 0-.97.15-1.402.46-.435.305-.73.658-.888 1.046v8.6h-2.064v-8.26c0-.573-.216-1.023-.648-1.355-.43-.325-.995-.49-1.708-.49-.41 0-.854.158-1.317.477-.47.316-.802.67-.994 1.053v8.577h-2.064V94.65h1.345l.686 1.346c.8-1.043 1.79-1.564 2.987-1.564 1.664 0 2.83.518 3.495 1.55.23-.44.662-.806 1.293-1.104.628-.3 1.28-.446 1.945-.446 1.2 0 2.133.353 2.788 1.066.658.714.988 1.715.988 3.004v7.775h-2.06M177.45 96.17c-.915 0-1.69.295-2.31.885-.594.562-.93 1.265-1.01 2.113h6.438c0-.84-.264-1.533-.785-2.09-.57-.606-1.348-.908-2.332-.908zm5.008 4.493h-8.382c0 1.36.37 2.404 1.118 3.134.66.64 1.506.957 2.54.957 1.178 0 2.162-.343 2.954-1.026l.87 1.482c-.32.322-.812.593-1.47.826-.823.302-1.746.456-2.754.456-1.464 0-2.706-.493-3.727-1.488-1.132-1.094-1.7-2.562-1.7-4.403 0-1.92.578-3.46 1.744-4.618 1.047-1.032 2.282-1.55 3.705-1.55 1.656 0 2.956.463 3.9 1.4.908.897 1.364 2.084 1.364 3.572 0 .456-.056.875-.162 1.26M190.554 96.633c-.442-.31-.898-.463-1.354-.463-.734 0-1.37.333-1.914 1.008-.55.673-.826 1.482-.826 2.428v6.67h-2.058V94.65h2.058v1.853c.757-1.382 1.872-2.07 3.357-2.07.37 0 .902.06 1.598.19l-.86 2.01M194.45 90.25c.356 0 .658.125.908.375.247.25.374.55.374.9 0 .352-.127.65-.374.907-.25.247-.552.37-.908.37-.347 0-.645-.123-.892-.37-.254-.257-.377-.555-.377-.908 0-.357.124-.655.37-.906.245-.243.546-.367.9-.367zm-1.13 16.026v-9.89h-1.593V94.65h3.662v11.626h-2.07M206.877 95.594l-1.018 1.45c-.21-.208-.584-.407-1.116-.592-.53-.19-1.05-.282-1.57-.282-1.122 0-2.01.39-2.668 1.173-.66.79-.988 1.866-.988 3.23 0 1.362.336 2.398 1.008 3.11.673.718 1.612 1.07 2.802 1.07.93 0 1.862-.36 2.802-1.073l.813 1.742c-1.108.714-2.48 1.07-4.112 1.07-1.587 0-2.897-.535-3.932-1.598-1.036-1.063-1.55-2.503-1.55-4.32 0-1.852.535-3.337 1.608-4.462 1.077-1.12 2.548-1.68 4.417-1.68.603 0 1.25.123 1.95.377.704.256 1.222.513 1.554.784M214.93 100.563c-.65-.144-1.105-.216-1.365-.216-1.043 0-1.893.264-2.552.802-.658.538-.99 1.17-.99 1.9 0 1.21.712 1.817 2.14 1.817 1.04 0 1.967-.5 2.766-1.492v-2.812zm.198 4.376c-.826 1.034-2.088 1.552-3.792 1.552-.91 0-1.698-.332-2.367-.994-.673-.662-1.005-1.482-1.005-2.466 0-1.183.51-2.177 1.546-2.997 1.033-.81 2.347-1.217 3.945-1.217.435 0 .93.092 1.474.28 0-1.882-.837-2.82-2.518-2.82-1.286 0-2.28.345-2.973 1.038l-.868-1.722c.39-.322.93-.593 1.618-.82.693-.233 1.355-.342 1.982-.342 1.69 0 2.915.38 3.68 1.148.758.77 1.145 1.99 1.145 3.66v4.17c0 1.02.3 1.7.91 2.043v1.026c-.84 0-1.47-.118-1.884-.355-.418-.24-.716-.637-.895-1.186M226.84 106.277v-6.763c0-1.24-.186-2.106-.556-2.603-.374-.496-1.002-.74-1.873-.74-.472 0-.966.14-1.48.422-.51.285-.91.628-1.183 1.04v8.645h-2.06V94.65h1.408l.652 1.496c.685-1.14 1.793-1.714 3.336-1.714 2.545 0 3.82 1.55 3.82 4.646v7.2h-2.064M232.69 100.433c0 2.915 1.032 4.38 3.093 4.38.963 0 1.718-.392 2.263-1.177.545-.778.82-1.848.82-3.203 0-2.88-1.026-4.32-3.083-4.32-.94 0-1.69.383-2.25 1.15-.562.77-.844 1.826-.844 3.17zm-2.17 0c0-1.797.482-3.247 1.45-4.348.963-1.104 2.235-1.653 3.813-1.653 1.666 0 2.952.528 3.875 1.59.922 1.057 1.378 2.532 1.378 4.41 0 1.877-.47 3.355-1.41 4.442-.94 1.08-2.218 1.62-3.843 1.62-1.657 0-2.95-.547-3.875-1.637-.926-1.1-1.39-2.57-1.39-4.424M256.166 97.34c-.518-.78-1.23-1.17-2.136-1.17-1.11 0-2.006.412-2.69 1.235-.68.823-1.024 1.88-1.024 3.148 0 2.802 1.272 4.2 3.82 4.2.33 0 .72-.102 1.173-.304.458-.21.743-.426.856-.663V97.34zm0 8.923v-.854c-.717.716-1.756 1.07-3.127 1.07-1.452 0-2.632-.522-3.54-1.565-.906-1.04-1.355-2.43-1.355-4.166 0-1.747.518-3.235 1.564-4.466 1.04-1.238 2.286-1.852 3.723-1.852 1.2 0 2.112.28 2.733.843v-5.39h2.065v16.378h-2.064M265.418 96.17c-.922 0-1.69.295-2.318.885-.593.562-.93 1.265-1.008 2.113h6.437c0-.84-.262-1.533-.783-2.09-.573-.606-1.348-.908-2.33-.908zm5.004 4.493h-8.38c0 1.36.37 2.404 1.116 3.134.655.64 1.502.957 2.542.957 1.176 0 2.163-.343 2.952-1.026l.868 1.482c-.323.322-.806.593-1.468.826-.826.302-1.745.456-2.754.456-1.464 0-2.71-.493-3.727-1.488-1.134-1.094-1.7-2.562-1.7-4.403 0-1.92.576-3.46 1.745-4.618 1.04-1.032 2.277-1.55 3.697-1.55 1.663 0 2.963.463 3.903 1.4.912.897 1.37 2.084 1.37 3.572 0 .456-.06.875-.163 1.26M288.655 90.958l-.727 1.855c-.696-.504-1.787-.76-3.282-.76-1.392 0-2.513.602-3.357 1.803-.845 1.2-1.266 2.75-1.266 4.646 0 1.81.428 3.275 1.296 4.4.864 1.132 1.985 1.694 3.35 1.694 1.495 0 2.64-.535 3.447-1.588l1.19 1.66c-1.262 1.252-2.878 1.883-4.863 1.883-2.078 0-3.71-.754-4.91-2.25-1.194-1.5-1.79-3.476-1.79-5.928 0-2.373.637-4.345 1.913-5.92 1.272-1.566 2.918-2.355 4.938-2.355 1.728 0 3.086.288 4.06.86M292.493 100.433c0 2.915 1.035 4.38 3.096 4.38.96 0 1.72-.392 2.266-1.177.545-.778.816-1.848.816-3.203 0-2.88-1.025-4.32-3.083-4.32-.94 0-1.695.383-2.254 1.15-.562.77-.843 1.826-.843 3.17zm-2.17 0c0-1.797.482-3.247 1.453-4.348.963-1.104 2.24-1.653 3.813-1.653 1.666 0 2.955.528 3.878 1.59.92 1.057 1.378 2.532 1.378 4.41 0 1.877-.473 3.355-1.413 4.442-.94 1.08-2.222 1.62-3.844 1.62-1.657 0-2.953-.547-3.876-1.637-.926-1.1-1.392-2.57-1.392-4.424M315.918 106.277v-7.363c0-1.83-.79-2.744-2.373-2.744-.5 0-.967.15-1.403.46-.435.305-.73.658-.888 1.046v8.6h-2.068v-8.26c0-.573-.21-1.023-.64-1.355-.433-.325-1.003-.49-1.712-.49-.412 0-.854.158-1.32.477-.467.316-.796.67-.992 1.053v8.577h-2.068V94.65h1.352l.682 1.346c.8-1.043 1.793-1.564 2.987-1.564 1.663 0 2.83.518 3.49 1.55.234-.44.666-.806 1.297-1.104.628-.3 1.28-.446 1.944-.446 1.204 0 2.13.353 2.788 1.066.66.714.992 1.715.992 3.004v7.775h-2.068M322.423 97.158v6.77c.13.198.405.387.823.558.422.18.83.268 1.228.268 2.56 0 3.844-1.444 3.844-4.338 0-1.475-.302-2.545-.912-3.23-.607-.68-1.585-1.016-2.922-1.016-.292 0-.645.1-1.063.302-.418.202-.75.425-.997.686zm0 8.477v5.2h-2.065V94.65h2.065v.955c.778-.782 1.725-1.173 2.836-1.173 1.645 0 2.93.51 3.85 1.54.92 1.032 1.38 2.534 1.38 4.516 0 1.766-.464 3.21-1.39 4.324-.926 1.12-2.267 1.68-4.016 1.68-.494 0-1.02-.085-1.58-.26-.563-.175-.923-.37-1.08-.597M334.148 94.65v7.412c0 1.797.77 2.692 2.328 2.692.686 0 1.303-.192 1.87-.583.562-.393.935-.846 1.117-1.357V94.65h2.064v11.627h-2.064v-1.61c-.23.457-.696.876-1.392 1.253-.7.384-1.38.573-2.047.573-1.275 0-2.25-.364-2.928-1.098-.676-.73-1.015-1.773-1.015-3.114v-7.63h2.068M344.525 96.276h-1.345V94.65h1.345v-2.434l2.06-.792v3.227h3.193v1.626h-3.192v5.775c0 .982.164 1.678.493 2.086.33.415.857.618 1.587.618.528 0 1.08-.134 1.643-.405l.302 1.817c-.854.216-1.787.325-2.816.325-.912 0-1.687-.343-2.325-1.028-.626-.683-.945-1.55-.945-2.586v-6.602M358.42 100.563c-.655-.144-1.11-.216-1.372-.216-1.04 0-1.89.264-2.548.802-.66.538-.99 1.17-.99 1.9 0 1.21.716 1.817 2.136 1.817 1.046 0 1.965-.5 2.774-1.492v-2.812zm.192 4.376c-.826 1.034-2.088 1.552-3.79 1.552-.91 0-1.7-.332-2.37-.994-.67-.662-1.004-1.482-1.004-2.466 0-1.183.515-2.177 1.547-2.997 1.032-.81 2.346-1.217 3.944-1.217.434 0 .93.092 1.48.28 0-1.882-.84-2.82-2.52-2.82-1.29 0-2.28.345-2.977 1.038l-.868-1.722c.39-.322.93-.593 1.622-.82.69-.233 1.355-.342 1.982-.342 1.687 0 2.914.38 3.676 1.148.764.77 1.145 1.99 1.145 3.66v4.17c0 1.02.303 1.7.91 2.043v1.026c-.84 0-1.465-.118-1.88-.355-.414-.24-.716-.637-.898-1.186M371.938 95.594l-1.018 1.45c-.21-.208-.58-.407-1.115-.592-.53-.19-1.05-.282-1.567-.282-1.125 0-2.013.39-2.668 1.173-.662.79-.988 1.866-.988 3.23 0 1.362.333 2.398 1.01 3.11.67.718 1.604 1.07 2.797 1.07.932 0 1.86-.36 2.8-1.073l.82 1.742c-1.11.714-2.486 1.07-4.118 1.07-1.585 0-2.895-.535-3.93-1.598-1.036-1.063-1.554-2.503-1.554-4.32 0-1.852.54-3.337 1.615-4.462 1.074-1.12 2.542-1.68 4.41-1.68.604 0 1.252.123 1.955.377.7.256 1.22.513 1.55.784M375.752 90.25c.35 0 .65.125.9.375.252.25.382.55.382.9 0 .352-.13.65-.38.907-.25.247-.553.37-.902.37-.354 0-.65-.123-.9-.37-.246-.257-.373-.555-.373-.908 0-.357.126-.655.366-.906.247-.243.545-.367.906-.367zm-1.136 16.026v-9.89h-1.59V94.65h3.658v11.626h-2.068M386.34 88.708l-2.447 3.61h-1.523l1.835-3.61h2.136zm-5.523 11.725c0 2.915 1.032 4.38 3.096 4.38.964 0 1.715-.392 2.263-1.177.55-.78.82-1.85.82-3.203 0-2.88-1.03-4.32-3.083-4.32-.943 0-1.69.383-2.253 1.15-.56.77-.843 1.826-.843 3.17zm-2.175 0c0-1.797.487-3.248 1.454-4.348.964-1.105 2.236-1.653 3.817-1.653 1.667 0 2.96.528 3.875 1.59.92 1.057 1.38 2.532 1.38 4.41 0 1.877-.474 3.355-1.41 4.442-.944 1.08-2.223 1.618-3.845 1.618-1.66 0-2.95-.545-3.878-1.635-.923-1.1-1.393-2.57-1.393-4.424M397.936 106.277v-6.763c0-1.24-.186-2.106-.56-2.603-.37-.496-.997-.74-1.872-.74-.47 0-.96.14-1.478.422-.514.285-.91.628-1.18 1.04v8.645h-2.067V94.65h1.415l.652 1.496c.68-1.14 1.786-1.714 3.333-1.714 2.544 0 3.82 1.55 3.82 4.646v7.2h-2.064" fill="#1a4487"/></svg>