<svg xmlns="http://www.w3.org/2000/svg" width="450" height="155.244"><path d="M269.296 56.186h-27.384v2.532h10.94v36.428c-2.328-2.316-46.816-46.526-46.816-46.526l-.01 1.725-.04 57.146h-13V58.72h7.58v-2.532h-27.379v2.532h7.297v48.773h-7.297v2.524h49.522v-2.523h-10.964V71.946c2.33 2.32 46.646 46.36 46.646 46.36s.22-58.192.22-59.587H271.48v48.773h-7.302v2.524h27.384v-2.523h-7.597V58.72h7.597v-2.532H269.296zM334.536 56.194v2.523h7.293V107.6h-7.784v2.514l42.583-.044.038-10.21h-2.532v4.863h-19.813V88.417h19.813v2.63h2.524V80.935h-2.524v2.192h-19.813V61.355h19.813v5.264h2.524v-5.265h.123V56.07h-.723l-41.524.124zM318.14 77.37l-2.573-1.42c-7.862-4.373-9.362-6.548-9.362-9.045 0-3.706 4.112-6.194 10.2-6.194 0 0 11.343.063 12.627.067v5.753h2.5l.187-10.46h-15.332v.146c-12.397.33-20.696 5.647-20.696 13.376 0 6.005 4.183 10.95 13.928 16.55l4.227 2.412c7.95 4.496 8.62 7.58 8.62 10.112 0 3.366-4.028 6.94-11.567 6.94l-2.55-.142-.067-.048h-12.04V99.91h-2.523v6.23l-.013 3.268v.715h11.435l4.478.15c5.974 0 10.844-.93 14.89-2.823 7.87-3.76 9.04-9.336 9.04-12.336 0-6.657-4.037-11.298-15.41-17.744M449.28 107.782c-10.327 0-15.868-6.04-15.92-6.106l-9.125-9.384s-5.144-5.475-6.957-7.407c5.488-3.027 8.77-7.734 8.77-12.777 0-8.272-8.5-15.132-19.773-15.953h-.022l-.027-.084-26.364.116-.71.01v2.523h7.292v48.77h-7.293v2.524h27.385v-2.523h-7.597V60.4h7.06c5.664.952 9.77 5.876 9.77 11.708 0 6.56-5.25 11.886-11.708 11.886h-.728v4.182s2.413-.1 2.952-.128c.432.44 9.18 9.732 9.18 9.732 0 .027 6.464 6.547 6.464 6.547 6.944 6.95 14.153 6.076 14.784 5.978H450v-2.523h-.72z" fill="#00589c"/><path d="M340.09 143.167s44.836-14.436 107.96-8.034l.405 5.466s-33.34-11.533-108.366 2.567" fill="#d2232a"/><path d="M143.754 77.02c0-36.437-29.546-65.983-65.987-65.983-36.433 0-65.987 29.546-65.987 65.983 0 36.45 29.554 66 65.987 66 36.44 0 65.987-29.55 65.987-66" fill="#fff"/><path d="M10.963 77.62c0-36.76 29.903-66.667 66.67-66.667 36.742 0 66.658 29.907 66.658 66.666 0 36.762-29.915 66.67-66.656 66.67-36.768 0-66.67-29.908-66.67-66.67M0 77.62c0 42.806 34.822 77.624 77.634 77.624 42.794 0 77.62-34.818 77.62-77.625 0-42.804-34.826-77.622-77.62-77.622C34.822-.002 0 34.816 0 77.618" fill="#00589c"/><path d="M76.936 45.886c13.098 0 24.128 8.788 27.556 20.775l15.31-11.646-43.193-31.072-42.976 30.75 15.76 11.92c3.432-11.973 14.465-20.726 27.542-20.726" fill="#97a4cc"/><path d="M104.493 66.66c.706 2.51 1.107 5.15 1.107 7.884 0 15.64-12.52 28.332-28.076 28.646l.64 29.386 40.5-34.226 1.138-43.337-15.31 11.647z" fill="#5f7ab2"/><path d="M76.936 103.207c-15.834 0-28.668-12.825-28.668-28.663 0-2.757.393-5.413 1.125-7.932l-15.76-11.92 3.813 44.752 40.716 33.132-.64-29.386c-.198 0-.396.017-.586.017" fill="#00589c"/><path d="M76.936 45.886c-13.077 0-24.11 8.753-27.543 20.726L77.068 87.53l27.424-20.87c-3.428-11.986-14.458-20.774-27.556-20.774" fill="#f9a03a"/><path d="M77.524 103.19C93.08 102.88 105.6 90.186 105.6 74.54c0-2.73-.4-5.368-1.107-7.878L77.07 87.53l.454 15.66z" fill="#f7941e"/><path d="M49.39 66.612c-.727 2.52-1.124 5.175-1.124 7.933 0 15.838 12.838 28.663 28.668 28.663.19 0 .392-.018.59-.018l-.453-15.66L49.39 66.61z" fill="#e57525"/><path d="M182.504 118.817l-1.813 1.602c-.635-.888-1.283-1.33-1.945-1.33-.318 0-.582.085-.785.257-.208.172-.31.366-.31.582 0 .215.07.418.22.612.2.256.796.808 1.797 1.655.935.78 1.5 1.27 1.7 1.473.493.503.846.984 1.053 1.443.207.454.313.957.313 1.495 0 1.055-.366 1.928-1.094 2.617-.733.688-1.682 1.032-2.855 1.032-.918 0-1.716-.225-2.396-.675-.68-.45-1.263-1.15-1.748-2.113l2.06-1.245c.618 1.138 1.333 1.707 2.136 1.707.42 0 .776-.123 1.058-.37.287-.243.433-.526.433-.848 0-.29-.11-.582-.328-.873-.216-.29-.692-.736-1.43-1.336-1.398-1.143-2.306-2.025-2.712-2.647-.41-.622-.614-1.24-.614-1.857 0-.892.34-1.66 1.02-2.3.68-.634 1.517-.956 2.52-.956.638 0 1.252.15 1.834.45.578.295 1.204.838 1.884 1.623M191.95 123.987c-.155-.53-.468-.962-.93-1.293-.47-.335-1.007-.498-1.62-.498-.667 0-1.25.185-1.752.56-.313.23-.604.64-.874 1.23h5.175zm2.386 1.88h-7.667c.11.68.404 1.213.885 1.614.48.403 1.094.6 1.84.6.896 0 1.66-.312 2.3-.94l2.015.95c-.503.71-1.103 1.235-1.805 1.575-.697.344-1.53.516-2.492.516-1.49 0-2.705-.47-3.644-1.415-.94-.94-1.413-2.118-1.413-3.538 0-1.452.472-2.656 1.407-3.614.935-.96 2.105-1.438 3.516-1.438 1.5 0 2.718.477 3.658 1.438.94.958 1.407 2.224 1.407 3.8l-.01.453zM200.827 122.405c-.755 0-1.372.25-1.862.754-.49.502-.737 1.138-.737 1.905 0 .79.252 1.443.755 1.946.503.508 1.13.764 1.888.764.742 0 1.35-.247 1.832-.746.48-.494.723-1.142.723-1.95 0-.79-.242-1.438-.728-1.932-.485-.494-1.107-.74-1.87-.74m2.475-1.986h2.378v8.148c0 1.61-.322 2.797-.97 3.552-.87 1.028-2.18 1.54-3.927 1.54-.93 0-1.716-.12-2.352-.35-.634-.233-1.172-.577-1.61-1.027-.436-.45-.758-1.002-.97-1.65h2.634c.234.27.534.472.9.61.366.136.803.202 1.302.202.644 0 1.16-.097 1.548-.296.388-.2.666-.455.825-.77.162-.312.242-.86.242-1.626-.42.42-.86.72-1.32.904-.463.185-.983.278-1.565.278-1.28 0-2.356-.463-3.24-1.385-.877-.92-1.318-2.082-1.318-3.498 0-1.51.467-2.722 1.398-3.635.847-.83 1.853-1.244 3.026-1.244.547 0 1.063.1 1.553.304.485.2.975.534 1.465.993v-1.05zM208.086 120.42h2.413v4.583c0 .89.06 1.513.184 1.857.124.35.318.618.592.807.273.194.604.292 1.006.292.392 0 .732-.1 1.01-.288.278-.19.485-.468.617-.834.1-.274.15-.86.15-1.76v-4.66h2.386v4.033c0 1.664-.132 2.798-.392 3.41-.322.747-.795 1.32-1.417 1.718-.626.4-1.416.6-2.378.6-1.046 0-1.89-.234-2.533-.697-.648-.467-1.098-1.116-1.363-1.954-.185-.573-.278-1.623-.278-3.145v-3.96zM218.284 120.42h2.047v1.194c.22-.467.517-.83.883-1.072.366-.247.772-.37 1.205-.37.313 0 .635.084.97.247l-.74 2.055c-.28-.14-.513-.212-.694-.212-.366 0-.675.23-.93.684-.252.454-.38 1.345-.38 2.678l.01.463v3.847h-2.37v-9.516zM224.308 120.42h2.386v9.515h-2.386v-9.516zm1.195-3.918c.42 0 .777.15 1.077.454.3.304.45.67.45 1.103 0 .422-.15.784-.446 1.09-.296.3-.648.45-1.063.45-.423 0-.784-.156-1.084-.465-.3-.304-.45-.675-.45-1.11 0-.42.145-.782.445-1.078.297-.3.654-.445 1.073-.445M233.38 122.378c-.742 0-1.35.26-1.84.78-.49.526-.733 1.192-.733 2.012 0 .82.247 1.496.746 2.025.494.53 1.107.8 1.83.8.75 0 1.377-.26 1.867-.786.494-.522.74-1.206.74-2.053 0-.825-.246-1.496-.74-2.012-.49-.51-1.116-.767-1.87-.767m2.51-5.634h2.382v13.19h-2.382v-1.005c-.468.44-.936.762-1.403.956-.468.195-.975.292-1.522.292-1.23 0-2.294-.477-3.194-1.43-.895-.953-1.34-2.14-1.34-3.556 0-1.47.432-2.673 1.3-3.613.87-.936 1.92-1.408 3.164-1.408.565 0 1.103.11 1.606.326.503.216.962.538 1.39.97v-4.724zM245.203 122.378c-.737 0-1.35.26-1.84.78-.485.526-.732 1.192-.732 2.012 0 .82.252 1.496.746 2.025.5.53 1.112.8 1.835.8.75 0 1.373-.26 1.868-.786.494-.522.74-1.206.74-2.053 0-.825-.246-1.496-.74-2.012-.495-.51-1.12-.767-1.875-.767m2.51-1.96h2.387v9.517h-2.387v-1.006c-.468.44-.93.762-1.403.956-.468.195-.975.292-1.522.292-1.23 0-2.294-.477-3.19-1.43-.895-.953-1.345-2.14-1.345-3.556 0-1.47.436-2.673 1.3-3.613.87-.936 1.925-1.408 3.164-1.408.57 0 1.108.11 1.606.326.503.216.966.538 1.39.97v-1.05zM257.027 122.378c-.737 0-1.35.26-1.84.78-.49.526-.732 1.192-.732 2.012 0 .82.247 1.496.746 2.025.5.53 1.112.8 1.836.8.75 0 1.372-.26 1.866-.786.494-.522.74-1.206.74-2.053 0-.825-.246-1.496-.74-2.012-.494-.51-1.12-.767-1.875-.767m2.51-5.634h2.387v13.19h-2.387v-1.005c-.467.44-.93.762-1.403.956-.467.195-.975.292-1.522.292-1.23 0-2.294-.477-3.19-1.43-.9-.953-1.345-2.14-1.345-3.556 0-1.47.437-2.673 1.3-3.613.87-.936 1.925-1.408 3.165-1.408.57 0 1.107.11 1.606.326.503.216.96.538 1.39.97v-4.724zM273.862 122.378c-.737 0-1.35.26-1.84.78-.49.526-.732 1.192-.732 2.012 0 .82.247 1.496.745 2.025.5.53 1.108.8 1.836.8.75 0 1.373-.26 1.867-.786.494-.522.74-1.206.74-2.053 0-.825-.246-1.496-.74-2.012-.494-.51-1.12-.767-1.875-.767m2.51-1.96h2.387v12.998h-2.388v-4.487c-.467.44-.93.762-1.403.956-.468.195-.976.292-1.523.292-1.23 0-2.294-.477-3.19-1.43-.895-.953-1.345-2.14-1.345-3.556 0-1.47.432-2.673 1.3-3.613.87-.936 1.92-1.408 3.165-1.408.57 0 1.107.11 1.605.326.503.216.962.538 1.39.97v-1.05zM281.165 120.42h2.413v4.583c0 .89.062 1.513.185 1.857.12.35.318.618.59.807.27.194.606.292 1.003.292.4 0 .737-.1 1.015-.288.28-.19.486-.468.618-.834.102-.274.15-.86.15-1.76v-4.66h2.387v4.033c0 1.664-.132 2.798-.393 3.41-.322.747-.794 1.32-1.416 1.718-.626.4-1.416.6-2.378.6-1.045 0-1.888-.234-2.532-.697-.644-.467-1.1-1.116-1.36-1.954-.19-.573-.28-1.623-.28-3.145v-3.96zM299.064 123.987c-.154-.53-.468-.962-.93-1.293-.464-.335-1.002-.498-1.62-.498-.662 0-1.248.185-1.75.56-.315.23-.606.64-.875 1.23h5.174zm2.387 1.88h-7.667c.11.68.406 1.213.887 1.614.48.403 1.094.6 1.84.6.895 0 1.663-.312 2.303-.94l2.01.95c-.502.71-1.102 1.235-1.803 1.575-.697.344-1.53.516-2.488.516-1.496 0-2.71-.47-3.65-1.415-.938-.94-1.41-2.118-1.41-3.538 0-1.452.472-2.656 1.407-3.614.934-.96 2.108-1.438 3.52-1.438 1.495 0 2.717.477 3.652 1.438.94.958 1.412 2.224 1.412 3.8l-.013.453zM308.686 116.913h2.387v3.507h1.42v2.056h-1.42v7.46h-2.387v-7.46h-1.227v-2.056h1.226v-3.507zM320.913 123.987c-.155-.53-.468-.962-.93-1.293-.465-.335-1.003-.498-1.62-.498-.662 0-1.25.185-1.752.56-.312.23-.603.64-.873 1.23h5.176zm2.386 1.88h-7.668c.11.68.406 1.213.886 1.614.48.403 1.095.6 1.84.6.896 0 1.663-.312 2.303-.94l2.013.95c-.503.71-1.103 1.235-1.805 1.575-.697.344-1.53.516-2.488.516-1.495 0-2.71-.47-3.648-1.415-.94-.94-1.412-2.118-1.412-3.538 0-1.452.472-2.656 1.407-3.614.936-.96 2.11-1.438 3.52-1.438 1.496 0 2.718.477 3.654 1.438.94.958 1.413 2.224 1.413 3.8l-.014.453zM334.758 122.378c-.737 0-1.35.26-1.84.78-.485.526-.733 1.192-.733 2.012 0 .82.252 1.496.746 2.025.5.53 1.113.8 1.836.8.75 0 1.372-.26 1.867-.786.494-.522.74-1.206.74-2.053 0-.825-.246-1.496-.74-2.012-.495-.51-1.12-.767-1.875-.767m2.51-5.634h2.387v13.19h-2.387v-1.005c-.468.44-.93.762-1.403.956-.468.195-.975.292-1.522.292-1.23 0-2.294-.477-3.19-1.43-.895-.953-1.345-2.14-1.345-3.556 0-1.47.436-2.673 1.3-3.613.87-.936 1.925-1.408 3.164-1.408.57 0 1.108.11 1.606.326.503.216.966.538 1.39.97v-4.724zM346.582 122.378c-.736 0-1.35.26-1.84.78-.49.526-.732 1.192-.732 2.012 0 .82.247 1.496.746 2.025.498.53 1.112.8 1.835.8.75 0 1.373-.26 1.867-.786.495-.522.742-1.206.742-2.053 0-.825-.248-1.496-.743-2.012-.494-.51-1.12-.767-1.875-.767m2.51-1.96h2.387v9.517h-2.387v-1.006c-.468.44-.93.762-1.403.956-.468.195-.975.292-1.522.292-1.23 0-2.294-.477-3.19-1.43-.896-.953-1.346-2.14-1.346-3.556 0-1.47.437-2.673 1.302-3.613.87-.936 1.923-1.408 3.163-1.408.57 0 1.107.11 1.606.326.503.216.962.538 1.39.97v-1.05zM368.217 122.343l-1.985 1.094c-.375-.393-.746-.662-1.107-.816-.367-.15-.795-.224-1.284-.224-.89 0-1.618.264-2.165.798-.552.534-.83 1.213-.83 2.047 0 .813.265 1.47.8 1.987.528.51 1.225.767 2.09.767 1.068 0 1.9-.366 2.497-1.094l1.88 1.288c-1.02 1.328-2.458 1.99-4.32 1.99-1.672 0-2.982-.494-3.93-1.487-.95-.99-1.42-2.147-1.42-3.48 0-.917.228-1.77.69-2.545.46-.772 1.104-1.38 1.93-1.827.824-.445 1.746-.666 2.766-.666.944 0 1.79.19 2.545.565.75.375 1.368.91 1.844 1.606M374.88 122.42c-.743 0-1.36.26-1.854.777-.49.517-.742 1.174-.742 1.98 0 .826.248 1.5.733 2.013.49.512 1.107.768 1.853.768.75 0 1.372-.26 1.866-.78.494-.517.746-1.188.746-2 0-.816-.248-1.482-.733-1.99-.486-.51-1.113-.767-1.87-.767m-.04-2.245c.894 0 1.742.225 2.53.67.79.45 1.41 1.06 1.85 1.832.445.767.666 1.597.666 2.492s-.225 1.733-.67 2.52c-.446.78-1.05 1.388-1.823 1.83-.767.436-1.62.66-2.545.66-1.364 0-2.528-.484-3.494-1.46-.967-.97-1.447-2.148-1.447-3.537 0-1.483.542-2.722 1.636-3.715.953-.865 2.056-1.293 3.296-1.293M381.835 120.42h2.386v.974c.544-.46 1.034-.772 1.475-.953.437-.176.887-.268 1.35-.268.944 0 1.743.33 2.4.988.556.56.83 1.39.83 2.484v6.29h-2.36v-4.168c0-1.134-.054-1.888-.155-2.26-.102-.374-.278-.656-.53-.855-.25-.193-.57-.29-.94-.29-.48 0-.895.163-1.244.485-.344.322-.586.772-.72 1.34-.07.297-.105.94-.105 1.93v3.82h-2.385v-9.516zM391.448 120.42h.847c.004-1.25.026-1.987.062-2.212.062-.525.287-.944.662-1.248.374-.31.903-.46 1.59-.46.5 0 1.06.116 1.682.34v1.823c-.344-.102-.626-.15-.847-.15-.278 0-.485.057-.613.172-.093.088-.14.27-.14.543l-.01 1.19h1.513v2.02h-1.513v7.497h-2.387v-7.496h-.847v-2.02zM397.333 120.42h2.386v9.515h-2.387v-9.516zm1.19-3.918c.42 0 .782.15 1.082.454.295.304.445.67.445 1.103 0 .422-.145.784-.44 1.09-.3.3-.654.45-1.064.45-.428 0-.79-.156-1.09-.465-.295-.304-.45-.675-.45-1.11 0-.42.15-.782.446-1.078.3-.3.657-.445 1.072-.445M406.402 122.378c-.737 0-1.35.26-1.84.78-.485.526-.732 1.192-.732 2.012 0 .82.25 1.496.746 2.025.498.53 1.11.8 1.835.8.75 0 1.373-.26 1.867-.786.494-.522.74-1.206.74-2.053 0-.825-.246-1.496-.74-2.012-.494-.51-1.12-.767-1.875-.767m2.51-1.96h2.387v9.517h-2.388v-1.006c-.467.44-.93.762-1.403.956-.468.195-.976.292-1.523.292-1.23 0-2.294-.477-3.19-1.43-.895-.953-1.345-2.14-1.345-3.556 0-1.47.437-2.673 1.3-3.613.87-.936 1.925-1.408 3.165-1.408.57 0 1.107.11 1.606.326.503.216.966.538 1.39.97v-1.05zM413.715 120.42h2.386v.974c.544-.46 1.034-.772 1.475-.953.437-.176.887-.268 1.345-.268.945 0 1.747.33 2.405.988.55.56.83 1.39.83 2.484v6.29h-2.36v-4.168c0-1.134-.054-1.888-.155-2.26-.102-.374-.278-.656-.534-.855-.252-.193-.565-.29-.936-.29-.485 0-.9.163-1.244.485-.348.322-.586.772-.72 1.34-.07.297-.105.94-.105 1.93v3.82h-2.385v-9.516zM424.06 120.42h7.287l-4.28 7.494h4.033v2.02h-7.694l4.292-7.495h-3.64v-2.02zM437.212 122.378c-.737 0-1.35.26-1.84.78-.485.526-.732 1.192-.732 2.012 0 .82.247 1.496.746 2.025.498.53 1.11.8 1.835.8.75 0 1.373-.26 1.867-.786.494-.522.74-1.206.74-2.053 0-.825-.246-1.496-.74-2.012-.494-.51-1.12-.767-1.875-.767m2.51-1.96h2.387v9.517h-2.388v-1.006c-.467.44-.93.762-1.403.956-.468.195-.976.292-1.523.292-1.23 0-2.294-.477-3.19-1.43-.895-.953-1.345-2.14-1.345-3.556 0-1.47.437-2.673 1.302-3.613.87-.936 1.923-1.408 3.163-1.408.57 0 1.107.11 1.606.326.503.216.96.538 1.39.97v-1.05z" fill="#231f20"/></svg>