<?xml version="1.0" encoding="UTF-8" standalone="no"?>
<svg
   xmlns:dc="http://purl.org/dc/elements/1.1/"
   xmlns:cc="http://creativecommons.org/ns#"
   xmlns:rdf="http://www.w3.org/1999/02/22-rdf-syntax-ns#"
   xmlns:svg="http://www.w3.org/2000/svg"
   xmlns="http://www.w3.org/2000/svg"
   xmlns:sodipodi="http://sodipodi.sourceforge.net/DTD/sodipodi-0.dtd"
   xmlns:inkscape="http://www.inkscape.org/namespaces/inkscape"
   viewBox="0 0 231.06 156.36"
   version="1.1"
   id="svg86"
   sodipodi:docname="instituto_prevision_social_militar.svg"
   inkscape:version="0.92.1 r15371">
  <metadata
     id="metadata90">
    <rdf:RDF>
      <cc:Work
         rdf:about="">
        <dc:format>image/svg+xml</dc:format>
        <dc:type
           rdf:resource="http://purl.org/dc/dcmitype/StillImage" />
      </cc:Work>
    </rdf:RDF>
  </metadata>
  <sodipodi:namedview
     pagecolor="#ffffff"
     bordercolor="#666666"
     borderopacity="1"
     objecttolerance="10"
     gridtolerance="10"
     guidetolerance="10"
     inkscape:pageopacity="0"
     inkscape:pageshadow="2"
     inkscape:window-width="640"
     inkscape:window-height="480"
     id="namedview88"
     showgrid="false"
     inkscape:zoom="1.5093374"
     inkscape:cx="115.53"
     inkscape:cy="78.18"
     inkscape:window-x="0"
     inkscape:window-y="27"
     inkscape:window-maximized="0"
     inkscape:current-layer="svg86" />
  <defs
     id="defs4">
    <style
       id="style2">.cls-1{fill:#a8bf34;}.cls-1,.cls-3{fill-rule:evenodd;}.cls-2,.cls-3{fill:#211915;}</style>
  </defs>
  <title
     id="title6">Asset 3</title>
  <g
     id="g207">
    <path
       style="fill:#a8bf34;fill-rule:evenodd"
       inkscape:connector-curvature="0"
       id="path8"
       d="M 115.52,0 A 54.87,54.87 0 1 1 60.69,54.87 54.85,54.85 0 0 1 115.52,0"
       class="cls-1" />
    <path
       style="fill:#211915"
       inkscape:connector-curvature="0"
       id="path10"
       d="m 35.6,7 h 26.31 v 3.79 h -4.75 a 3,3 0 0 0 -2.22,0.72 2.89,2.89 0 0 0 -0.7,2.1 v 46.76 a 3.06,3.06 0 0 0 0.76,2.32 3.73,3.73 0 0 0 2.7,0.91 h 4.23 v 3.79 H 35.6 V 63.6 h 4 a 4.18,4.18 0 0 0 2.93,-0.82 3.19,3.19 0 0 0 0.85,-2.41 V 14.18 A 3.56,3.56 0 0 0 42.6,11.65 3.27,3.27 0 0 0 40.15,10.83 H 35.6 Z"
       class="cls-2" />
    <path
       style="fill:#211915;fill-rule:evenodd"
       inkscape:connector-curvature="0"
       id="path12"
       d="m 82.7,36.78 h 6.55 a 11.21,11.21 0 0 0 6.09,-1.67 9.79,9.79 0 0 0 3.8,-4.11 q 1.12,-2.38 1.12,-7.73 Q 100.26,16 96.8,13 c -1.7,-1.45 -4.58,-2.16 -8.65,-2.16 -2.37,0 -3.85,0.22 -4.49,0.67 a 2.61,2.61 0 0 0 -1,2.3 z M 87.74,7 h 6.76 q 7.87,0 12.65,4.82 a 16,16 0 0 1 4.79,11.78 15.61,15.61 0 0 1 -10.21,15 25.53,25.53 0 0 1 -9.24,1.8 H 82.7 v 19.74 a 3.6,3.6 0 0 0 0.83,2.53 2.73,2.73 0 0 0 2.11,0.9 h 6.08 v 3.79 H 63.55 v -3.78 h 4.72 a 3,3 0 0 0 2.38,-0.9 3.67,3.67 0 0 0 0.81,-2.53 l 0.1,-37.29 C 79.08,11.36 80.68,13.33 87.74,7 Z M 63.55,7 H 83.14 A 39.05,39.05 0 0 0 71.46,18.8 v -4.61 a 3.47,3.47 0 0 0 -0.83,-2.45 2.61,2.61 0 0 0 -2,-0.9 h -5.08 z"
       class="cls-3" />
    <path
       style="fill:#211915"
       inkscape:connector-curvature="0"
       id="path14"
       d="m 123.51,47.28 3,-5.42 h 2.27 l 0.3,20.95 h -2.88 q -2.24,-9 -6.37,-13.5 -4.13,-4.5 -9.12,-4.49 a 8.86,8.86 0 0 0 -6.92,3 10.26,10.26 0 0 0 -2.68,7.11 9.61,9.61 0 0 0 1.06,4.51 9,9 0 0 0 3.41,3.51 33.31,33.31 0 0 0 8.23,3 46.45,46.45 0 0 1 9.5,3.32 15.79,15.79 0 0 1 6.25,6.3 20.13,20.13 0 0 1 2.07,9.53 q 0,8.42 -4.51,13.41 a 17.42,17.42 0 0 1 -13.46,6 q -7.4,0 -13.51,-6.6 l -3.75,6 H 94.05 V 81.42 h 2.77 q 4.19,19.23 17,19.23 c 3.49,0 6.21,-1 8.16,-3.09 a 10.81,10.81 0 0 0 2.92,-7.72 10.63,10.63 0 0 0 -1.28,-5.43 9.32,9.32 0 0 0 -4,-3.55 54.79,54.79 0 0 0 -7.29,-2.34 q -7.83,-2.2 -11.18,-4.56 a 14.34,14.34 0 0 1 -4.9,-5.78 19.91,19.91 0 0 1 -1.57,-8.34 q 0,-8.29 4.33,-13.52 a 14.34,14.34 0 0 1 11.63,-5.22 q 7,0 12.83,6.19"
       class="cls-2" />
    <path
       style="fill:#211915;fill-rule:evenodd"
       inkscape:connector-curvature="0"
       id="path16"
       d="m 153.58,103.57 v 0.8 h -0.77 z m 13.65,-24 v 0 c 0.45,-1.5 0.82,-2.95 1.1,-4.28 v 0 l 8.77,-34.05 h 20 v 4 h -4.33 a 2.69,2.69 0 0 0 -2.21,0.77 4.4,4.4 0 0 0 -0.6,2.65 v 48.19 a 3.6,3.6 0 0 0 0.66,2.52 3.48,3.48 0 0 0 2.65,1 h 3.84 v 4 h -24.66 v -4 h 4.65 a 2.26,2.26 0 0 0 2,-0.95 4.4,4.4 0 0 0 0.67,-2.61 V 45.23 l -15.47,59.14 h -2.89 l -1.84,-7.15 v 0 a 80,80 0 0 0 7.67,-17.61 z M 135.59,41.26 h 19.53 l 10.07,36.84 c -1.93,4.94 -5.69,8.41 -7.49,12 l 0.25,1 L 146,44.72 v 46.12 a 10.44,10.44 0 0 0 2,6.51 7.72,7.72 0 0 0 4.28,2.79 v 0.06 0 l -0.05,0.07 -0.05,0.07 -0.09,0.12 v 0 0 0.06 l -0.15,0.19 v 0 l -0.05,0.07 -0.21,0.27 -0.05,0.07 v 0 l -0.09,0.11 v 0 0 l -0.55,0.66 v 0 l -0.11,0.13 v 0 0 0 l -0.1,0.12 -0.06,0.07 -0.33,0.38 v 0 q -0.68,0.77 -1.4,1.53 h -13 v -4 a 7.12,7.12 0 0 0 5.29,-3.12 12,12 0 0 0 1.88,-7 V 49.54 a 5.93,5.93 0 0 0 -0.68,-3.45 3.32,3.32 0 0 0 -2.66,-0.86 h -3.83 z"
       class="cls-3" />
    <path
       style="fill:#211915"
       inkscape:connector-curvature="0"
       id="path18"
       d="m 0,123 h 6.85 v 0.9 H 5.61 A 0.83,0.83 0 0 0 5,124 0.65,0.65 0 0 0 4.82,124.5 v 11 a 0.69,0.69 0 0 0 0.19,0.55 1,1 0 0 0 0.7,0.21 h 1.1 v 0.9 H 0 v -0.9 h 1 a 1.17,1.17 0 0 0 0.76,-0.19 0.71,0.71 0 0 0 0.22,-0.57 v -10.83 a 0.79,0.79 0 0 0 -0.2,-0.6 0.9,0.9 0 0 0 -0.64,-0.19 H 0 Z"
       class="cls-2" />
    <path
       style="fill:#211915"
       inkscape:connector-curvature="0"
       id="path20"
       d="m 8.1,125.36 h 3.46 l 6,8.15 V 128 a 1.91,1.91 0 0 0 -0.44,-1.31 1.74,1.74 0 0 0 -1.24,-0.55 v -0.75 H 20 v 0.75 a 1.77,1.77 0 0 0 -1.22,0.54 2,2 0 0 0 -0.37,1.32 v 9.27 h -0.87 l -6.86,-9.37 v 6.49 a 2.32,2.32 0 0 0 0.48,1.63 1.56,1.56 0 0 0 1.19,0.51 h 0.19 v 0.75 H 8 v -0.75 h 0.31 a 1.38,1.38 0 0 0 1.11,-0.56 2.23,2.23 0 0 0 0.45,-1.44 v -7.67 A 1.52,1.52 0 0 0 8.58,126.15 H 8.1 Z"
       class="cls-2" />
    <path
       style="fill:#211915"
       inkscape:connector-curvature="0"
       id="path22"
       d="m 28,126.27 0.7,-1.06 h 0.53 l 0.07,4.11 h -0.68 a 5.67,5.67 0 0 0 -1.5,-2.65 3.13,3.13 0 0 0 -2.15,-0.88 2.3,2.3 0 0 0 -1.63,0.58 1.83,1.83 0 0 0 -0.63,1.39 1.65,1.65 0 0 0 0.25,0.88 2,2 0 0 0 0.8,0.69 8.9,8.9 0 0 0 1.94,0.59 12.39,12.39 0 0 1 2.24,0.65 3.44,3.44 0 0 1 1.47,1.23 3.79,3.79 0 0 1 -0.57,4.49 4.5,4.5 0 0 1 -3.17,1.18 4.65,4.65 0 0 1 -3.18,-1.29 l -0.88,1.17 H 21.05 V 133 h 0.66 q 1,3.77 4,3.77 a 2.8,2.8 0 0 0 1.92,-0.61 1.94,1.94 0 0 0 0.68,-1.51 1.81,1.81 0 0 0 -0.3,-1.06 2.08,2.08 0 0 0 -0.93,-0.69 14.22,14.22 0 0 0 -1.71,-0.46 10.21,10.21 0 0 1 -2.63,-0.9 3,3 0 0 1 -1.16,-1.13 3.35,3.35 0 0 1 -0.37,-1.63 3.58,3.58 0 0 1 1,-2.65 3.69,3.69 0 0 1 2.74,-1 4.46,4.46 0 0 1 3.05,1.14 z"
       class="cls-2" />
    <path
       style="fill:#211915"
       inkscape:connector-curvature="0"
       id="path24"
       d="m 31.43,125.36 h 9.74 l 0.25,4.51 h -0.69 a 8.84,8.84 0 0 0 -0.63,-2.26 2.84,2.84 0 0 0 -0.88,-1.15 1.86,1.86 0 0 0 -1.08,-0.34 0.7,0.7 0 0 0 -0.5,0.15 0.56,0.56 0 0 0 -0.16,0.43 v 9.19 a 0.62,0.62 0 0 0 0.15,0.43 0.49,0.49 0 0 0 0.37,0.17 h 1.27 v 0.75 h -6 v -0.75 h 1.2 a 0.57,0.57 0 0 0 0.43,-0.16 0.61,0.61 0 0 0 0.16,-0.44 v -9.14 a 0.62,0.62 0 0 0 -0.16,-0.47 0.72,0.72 0 0 0 -0.51,-0.15 q -1.92,0 -2.6,3.75 h -0.66 z"
       class="cls-2" />
    <path
       style="fill:#211915"
       inkscape:connector-curvature="0"
       id="path26"
       d="m 42.37,125.36 h 5.71 v 0.75 H 47 a 0.69,0.69 0 0 0 -0.48,0.14 0.54,0.54 0 0 0 -0.15,0.41 v 9.2 a 0.58,0.58 0 0 0 0.16,0.46 0.87,0.87 0 0 0 0.59,0.18 h 0.92 v 0.75 h -5.67 v -0.75 h 0.87 a 1,1 0 0 0 0.64,-0.16 0.6,0.6 0 0 0 0.18,-0.47 v -9.09 a 0.66,0.66 0 0 0 -0.17,-0.5 0.75,0.75 0 0 0 -0.53,-0.16 h -1 z"
       class="cls-2" />
    <path
       style="fill:#211915"
       inkscape:connector-curvature="0"
       id="path28"
       d="m 49.41,125.36 h 9.74 l 0.25,4.51 h -0.69 a 8.83,8.83 0 0 0 -0.63,-2.26 2.84,2.84 0 0 0 -0.88,-1.15 1.86,1.86 0 0 0 -1.08,-0.34 0.7,0.7 0 0 0 -0.5,0.15 0.56,0.56 0 0 0 -0.16,0.43 v 9.19 a 0.62,0.62 0 0 0 0.15,0.43 0.49,0.49 0 0 0 0.37,0.17 h 1.27 v 0.75 h -6 v -0.75 h 1.2 a 0.57,0.57 0 0 0 0.43,-0.16 0.61,0.61 0 0 0 0.16,-0.44 v -9.14 a 0.62,0.62 0 0 0 -0.16,-0.47 0.72,0.72 0 0 0 -0.51,-0.15 q -1.92,0 -2.6,3.75 h -0.66 z"
       class="cls-2" />
    <path
       style="fill:#211915"
       inkscape:connector-curvature="0"
       id="path30"
       d="m 60.26,125.36 h 5.6 v 0.75 h -1.13 a 0.45,0.45 0 0 0 -0.38,0.17 0.84,0.84 0 0 0 -0.14,0.53 v 6.57 a 3,3 0 0 0 0.69,2.13 2.48,2.48 0 0 0 1.91,0.74 3.27,3.27 0 0 0 1.63,-0.41 2.24,2.24 0 0 0 0.88,-1 4,4 0 0 0 0.34,-1.76 v -5 a 2.22,2.22 0 0 0 -0.4,-1.45 1.34,1.34 0 0 0 -1.08,-0.48 H 68 v -0.75 h 4.25 v 0.75 H 72 a 1.13,1.13 0 0 0 -1,0.54 2.38,2.38 0 0 0 -0.35,1.32 v 5.47 a 3.9,3.9 0 0 1 -1.14,2.93 4.35,4.35 0 0 1 -3.16,1.12 5.82,5.82 0 0 1 -2.5,-0.5 3.26,3.26 0 0 1 -1.51,-1.29 4.24,4.24 0 0 1 -0.45,-2.09 v -6.68 a 0.93,0.93 0 0 0 -0.17,-0.64 0.81,0.81 0 0 0 -0.59,-0.17 h -0.82 z"
       class="cls-2" />
    <path
       style="fill:#211915"
       inkscape:connector-curvature="0"
       id="path32"
       d="m 73.39,125.36 h 9.74 l 0.25,4.51 h -0.69 a 8.83,8.83 0 0 0 -0.63,-2.26 2.84,2.84 0 0 0 -0.88,-1.15 1.86,1.86 0 0 0 -1.08,-0.34 0.7,0.7 0 0 0 -0.5,0.15 0.56,0.56 0 0 0 -0.16,0.43 v 9.19 a 0.62,0.62 0 0 0 0.15,0.43 0.49,0.49 0 0 0 0.37,0.17 h 1.27 v 0.75 h -6 v -0.75 h 1.2 a 0.57,0.57 0 0 0 0.43,-0.16 0.61,0.61 0 0 0 0.16,-0.44 v -9.14 a 0.62,0.62 0 0 0 -0.16,-0.47 0.72,0.72 0 0 0 -0.51,-0.15 q -1.92,0 -2.6,3.75 h -0.66 z"
       class="cls-2" />
    <path
       style="fill:#211915"
       inkscape:connector-curvature="0"
       id="path34"
       d="m 90.14,125.06 a 5.47,5.47 0 0 1 2.9,0.81 5.62,5.62 0 0 1 2.07,2.21 6.65,6.65 0 0 1 0.74,3.16 6.34,6.34 0 0 1 -1.64,4.46 5.53,5.53 0 0 1 -6.95,1 5.78,5.78 0 0 1 -2,-2.19 6.67,6.67 0 0 1 -0.74,-3.2 6.33,6.33 0 0 1 1.62,-4.46 5.23,5.23 0 0 1 4,-1.79 z m 0,0.77 a 2.42,2.42 0 0 0 -1.55,0.53 3.53,3.53 0 0 0 -1,1.7 10.6,10.6 0 0 0 -0.39,3.21 11.17,11.17 0 0 0 0.36,3.25 3.26,3.26 0 0 0 1,1.63 2.54,2.54 0 0 0 1.6,0.53 2.47,2.47 0 0 0 2.15,-1.23 8.27,8.27 0 0 0 0.81,-4.28 11.13,11.13 0 0 0 -0.35,-3.21 3.17,3.17 0 0 0 -1,-1.6 2.54,2.54 0 0 0 -1.59,-0.53 z"
       class="cls-2" />
    <path
       style="fill:#211915"
       inkscape:connector-curvature="0"
       id="path36"
       d="m 102.51,125.36 h 6 a 5.49,5.49 0 0 1 2.87,0.74 5.1,5.1 0 0 1 1.94,2.1 6.65,6.65 0 0 1 0.7,3.08 7,7 0 0 1 -0.64,3.09 5,5 0 0 1 -1.91,2.09 5.15,5.15 0 0 1 -2.73,0.78 h -6.21 v -0.75 h 0.93 a 0.65,0.65 0 0 0 0.51,-0.2 0.8,0.8 0 0 0 0.17,-0.55 v -8.95 a 0.68,0.68 0 0 0 -0.18,-0.53 0.89,0.89 0 0 0 -0.61,-0.17 h -0.82 z m 5.49,11.13 a 3.13,3.13 0 0 0 1.83,-0.55 3.1,3.1 0 0 0 1.15,-1.52 9.25,9.25 0 0 0 0.35,-3 9.8,9.8 0 0 0 -0.42,-3.25 3.19,3.19 0 0 0 -1.13,-1.61 3.79,3.79 0 0 0 -2.1,-0.48 2,2 0 0 0 -1,0.14 0.57,0.57 0 0 0 -0.19,0.5 v 9 a 0.88,0.88 0 0 0 0.15,0.58 0.62,0.62 0 0 0 0.49,0.18 z"
       class="cls-2" />
    <path
       style="fill:#211915"
       inkscape:connector-curvature="0"
       id="path38"
       d="M 115.31,125.36 H 125 l 0.22,4.15 h -0.66 a 7.07,7.07 0 0 0 -0.58,-2.12 2.37,2.37 0 0 0 -0.92,-1 3,3 0 0 0 -1.49,-0.32 h -1.52 a 0.73,0.73 0 0 0 -0.51,0.15 0.54,0.54 0 0 0 -0.16,0.41 v 4.12 h 0.52 a 1.78,1.78 0 0 0 1.39,-0.55 2.93,2.93 0 0 0 0.58,-1.76 h 0.68 V 134 h -0.68 a 3.19,3.19 0 0 0 -0.56,-1.94 1.9,1.9 0 0 0 -1.5,-0.56 h -0.43 v 4.39 a 0.48,0.48 0 0 0 0.16,0.41 1.16,1.16 0 0 0 0.69,0.18 h 1.34 a 2.93,2.93 0 0 0 2.25,-0.94 4.87,4.87 0 0 0 1.08,-2.84 h 0.68 l -0.17,4.52 h -10.1 v -0.75 h 1 a 0.68,0.68 0 0 0 0.52,-0.18 0.69,0.69 0 0 0 0.18,-0.5 v -9.14 a 0.5,0.5 0 0 0 -0.18,-0.43 1.08,1.08 0 0 0 -0.64,-0.14 h -0.88 z"
       class="cls-2" />
    <path
       style="fill:#211915"
       inkscape:connector-curvature="0"
       id="path40"
       d="m 132.94,123 h 7.82 a 4.48,4.48 0 0 1 3.2,1.14 3.67,3.67 0 0 1 1.21,2.79 3.57,3.57 0 0 1 -0.7,2.19 3.94,3.94 0 0 1 -1.88,1.36 6.87,6.87 0 0 1 -2.34,0.42 h -2.48 v 4.65 a 0.82,0.82 0 0 0 0.21,0.6 0.71,0.71 0 0 0 0.53,0.21 h 1.54 v 0.9 h -7.12 v -0.9 h 1.19 a 0.79,0.79 0 0 0 0.6,-0.21 0.83,0.83 0 0 0 0.2,-0.6 v -10.88 a 0.79,0.79 0 0 0 -0.21,-0.58 0.68,0.68 0 0 0 -0.51,-0.21 h -1.28 z m 4.84,7 h 1.65 a 3,3 0 0 0 1.54,-0.4 2.37,2.37 0 0 0 1,-1 4.3,4.3 0 0 0 0.28,-1.83 3,3 0 0 0 -0.88,-2.45 3.58,3.58 0 0 0 -2.19,-0.51 2.48,2.48 0 0 0 -1.18,0.19 0.61,0.61 0 0 0 -0.24,0.54 z"
       class="cls-2" />
    <path
       style="fill:#211915"
       inkscape:connector-curvature="0"
       id="path42"
       d="m 146.74,125.36 h 5.81 a 5.83,5.83 0 0 1 2.31,0.39 2.92,2.92 0 0 1 1.33,1.06 2.67,2.67 0 0 1 0.44,1.49 2.51,2.51 0 0 1 -1.1,2.12 5.3,5.3 0 0 1 -2.57,0.8 3.32,3.32 0 0 1 1.34,0.49 2.89,2.89 0 0 1 0.83,1 8.67,8.67 0 0 1 0.78,2.08 3.55,3.55 0 0 0 0.33,1 0.4,0.4 0 0 0 0.32,0.2 q 0.5,0 0.59,-1.41 h 0.66 a 3.6,3.6 0 0 1 -0.63,2.14 1.94,1.94 0 0 1 -3.36,-0.58 11.87,11.87 0 0 1 -0.38,-1.62 11.06,11.06 0 0 0 -0.5,-2 1.75,1.75 0 0 0 -0.58,-0.76 1.48,1.48 0 0 0 -0.87,-0.25 h -0.82 v 4.38 a 0.59,0.59 0 0 0 0.16,0.44 0.76,0.76 0 0 0 0.53,0.2 h 1 v 0.75 h -5.64 v -0.75 h 0.87 a 0.66,0.66 0 0 0 0.51,-0.19 0.75,0.75 0 0 0 0.17,-0.53 v -9 a 0.78,0.78 0 0 0 -0.16,-0.54 0.58,0.58 0 0 0 -0.45,-0.17 h -0.95 z m 3.95,5.39 h 0.94 a 2.76,2.76 0 0 0 2,-0.68 2.37,2.37 0 0 0 0.54,-1.76 2.26,2.26 0 0 0 -0.53,-1.67 2.61,2.61 0 0 0 -1.85,-0.53 1.51,1.51 0 0 0 -0.89,0.17 1,1 0 0 0 -0.18,0.74 z"
       class="cls-2" />
    <path
       style="fill:#211915"
       inkscape:connector-curvature="0"
       id="path44"
       d="m 158.93,125.36 h 9.7 l 0.22,4.15 h -0.66 a 7.07,7.07 0 0 0 -0.58,-2.12 2.37,2.37 0 0 0 -0.92,-1 3,3 0 0 0 -1.49,-0.32 h -1.52 a 0.73,0.73 0 0 0 -0.51,0.15 0.54,0.54 0 0 0 -0.16,0.41 v 4.12 h 0.52 a 1.78,1.78 0 0 0 1.39,-0.55 2.93,2.93 0 0 0 0.58,-1.76 h 0.68 V 134 h -0.68 a 3.19,3.19 0 0 0 -0.56,-1.94 1.9,1.9 0 0 0 -1.5,-0.56 H 163 v 4.39 a 0.48,0.48 0 0 0 0.16,0.41 1.16,1.16 0 0 0 0.69,0.18 h 1.34 a 2.93,2.93 0 0 0 2.25,-0.94 4.87,4.87 0 0 0 1.08,-2.84 h 0.68 l -0.17,4.52 h -10.1 v -0.75 h 1 a 0.68,0.68 0 0 0 0.52,-0.18 0.69,0.69 0 0 0 0.18,-0.5 v -9.14 a 0.5,0.5 0 0 0 -0.18,-0.43 1.08,1.08 0 0 0 -0.64,-0.14 h -0.88 z"
       class="cls-2" />
    <path
       style="fill:#211915"
       inkscape:connector-curvature="0"
       id="path46"
       d="m 169.92,125.36 h 5.45 v 0.75 h -0.6 a 1.69,1.69 0 0 0 -0.81,0.13 0.39,0.39 0 0 0 -0.2,0.34 2.15,2.15 0 0 0 0.17,0.64 l 2.79,7.2 2.29,-6.14 a 3.31,3.31 0 0 0 0.23,-1.15 1,1 0 0 0 -0.28,-0.76 1.21,1.21 0 0 0 -0.84,-0.26 h -0.5 v -0.75 h 4.31 v 0.75 h -0.32 a 1.06,1.06 0 0 0 -0.74,0.31 3,3 0 0 0 -0.63,1.09 l -3.79,10 h -0.9 L 171.47,127 a 1.47,1.47 0 0 0 -0.47,-0.71 1.58,1.58 0 0 0 -0.85,-0.18 h -0.23 z"
       class="cls-2" />
    <path
       style="fill:#211915"
       inkscape:connector-curvature="0"
       id="path48"
       d="m 182.37,125.36 h 5.71 v 0.75 h -1 a 0.69,0.69 0 0 0 -0.48,0.14 0.54,0.54 0 0 0 -0.15,0.41 v 9.2 a 0.58,0.58 0 0 0 0.16,0.46 0.87,0.87 0 0 0 0.59,0.18 h 0.92 v 0.75 h -5.71 v -0.75 h 0.87 a 1,1 0 0 0 0.64,-0.16 0.6,0.6 0 0 0 0.18,-0.47 v -9.09 a 0.66,0.66 0 0 0 -0.17,-0.5 0.75,0.75 0 0 0 -0.53,-0.16 h -1 z"
       class="cls-2" />
    <path
       style="fill:#211915"
       inkscape:connector-curvature="0"
       id="path50"
       d="m 196.27,126.27 0.7,-1.06 h 0.53 l 0.07,4.11 h -0.68 a 5.67,5.67 0 0 0 -1.5,-2.65 3.13,3.13 0 0 0 -2.15,-0.88 2.3,2.3 0 0 0 -1.63,0.58 1.83,1.83 0 0 0 -0.63,1.39 1.65,1.65 0 0 0 0.25,0.88 2,2 0 0 0 0.8,0.69 8.91,8.91 0 0 0 1.94,0.59 12.38,12.38 0 0 1 2.24,0.65 3.44,3.44 0 0 1 1.47,1.23 3.79,3.79 0 0 1 -0.57,4.49 4.5,4.5 0 0 1 -3.17,1.18 4.65,4.65 0 0 1 -3.18,-1.29 l -0.88,1.17 h -0.56 V 133 H 190 q 1,3.77 4,3.77 a 2.8,2.8 0 0 0 1.92,-0.61 1.94,1.94 0 0 0 0.68,-1.51 1.8,1.8 0 0 0 -0.3,-1.06 2.08,2.08 0 0 0 -0.93,-0.69 14.23,14.23 0 0 0 -1.71,-0.46 10.2,10.2 0 0 1 -2.63,-0.9 3,3 0 0 1 -1.16,-1.13 3.35,3.35 0 0 1 -0.37,-1.63 3.58,3.58 0 0 1 1,-2.65 3.69,3.69 0 0 1 2.74,-1 4.45,4.45 0 0 1 3.03,1.14 z"
       class="cls-2" />
    <path
       style="fill:#211915"
       inkscape:connector-curvature="0"
       id="path52"
       d="m 199.5,125.36 h 5.71 v 0.75 h -1 a 0.69,0.69 0 0 0 -0.48,0.14 0.54,0.54 0 0 0 -0.15,0.41 v 9.2 a 0.58,0.58 0 0 0 0.16,0.46 0.87,0.87 0 0 0 0.59,0.18 h 0.92 v 0.75 h -5.75 v -0.75 h 0.87 a 1,1 0 0 0 0.64,-0.16 0.6,0.6 0 0 0 0.18,-0.47 v -9.09 a 0.66,0.66 0 0 0 -0.17,-0.5 0.75,0.75 0 0 0 -0.53,-0.16 h -1 z"
       class="cls-2" />
    <path
       style="fill:#211915"
       inkscape:connector-curvature="0"
       id="path54"
       d="m 212.15,125.06 a 5.47,5.47 0 0 1 2.9,0.81 5.63,5.63 0 0 1 2.07,2.21 6.65,6.65 0 0 1 0.74,3.16 6.33,6.33 0 0 1 -1.64,4.46 5.53,5.53 0 0 1 -7,1 5.78,5.78 0 0 1 -2,-2.19 6.67,6.67 0 0 1 -0.74,-3.2 6.33,6.33 0 0 1 1.62,-4.46 5.23,5.23 0 0 1 4.05,-1.79 z m 0,0.77 a 2.42,2.42 0 0 0 -1.55,0.53 3.52,3.52 0 0 0 -1,1.7 10.59,10.59 0 0 0 -0.39,3.21 11.16,11.16 0 0 0 0.36,3.25 3.26,3.26 0 0 0 1,1.63 2.54,2.54 0 0 0 1.6,0.53 2.46,2.46 0 0 0 2.15,-1.23 8.27,8.27 0 0 0 0.81,-4.28 11.11,11.11 0 0 0 -0.35,-3.21 3.17,3.17 0 0 0 -1,-1.6 2.54,2.54 0 0 0 -1.59,-0.53 z m -1.15,-1.37 -0.21,-0.18 1.22,-1.86 q 0.58,-0.88 1.19,-0.88 a 0.86,0.86 0 0 1 0.61,0.27 0.79,0.79 0 0 1 0.27,0.57 0.87,0.87 0 0 1 -0.2,0.57 2.76,2.76 0 0 1 -0.9,0.57 z"
       class="cls-2" />
    <path
       style="fill:#211915"
       inkscape:connector-curvature="0"
       id="path56"
       d="m 219.19,125.36 h 3.46 l 6,8.15 V 128 a 1.91,1.91 0 0 0 -0.44,-1.31 1.74,1.74 0 0 0 -1.24,-0.55 v -0.75 h 4.07 v 0.75 a 1.77,1.77 0 0 0 -1.22,0.54 2,2 0 0 0 -0.37,1.32 v 9.27 h -0.87 l -6.86,-9.37 v 6.49 a 2.32,2.32 0 0 0 0.48,1.63 1.56,1.56 0 0 0 1.19,0.51 h 0.19 v 0.75 h -4.48 v -0.75 h 0.31 a 1.38,1.38 0 0 0 1.11,-0.56 2.23,2.23 0 0 0 0.45,-1.44 v -7.67 a 1.52,1.52 0 0 0 -1.29,-0.71 h -0.5 z"
       class="cls-2" />
    <path
       style="fill:#211915"
       inkscape:connector-curvature="0"
       id="path58"
       d="m 49.27,142.91 0.84,-1.27 h 0.64 l 0.08,4.93 H 50 a 6.8,6.8 0 0 0 -1.8,-3.18 3.75,3.75 0 0 0 -2.57,-1.06 2.77,2.77 0 0 0 -2,0.7 2.2,2.2 0 0 0 -0.75,1.67 2,2 0 0 0 0.3,1.06 2.36,2.36 0 0 0 1,0.82 10.64,10.64 0 0 0 2.32,0.71 14.83,14.83 0 0 1 2.68,0.78 4.12,4.12 0 0 1 1.82,1.48 4.54,4.54 0 0 1 -0.69,5.39 5.4,5.4 0 0 1 -3.8,1.42 5.58,5.58 0 0 1 -3.81,-1.55 l -1.06,1.41 h -0.67 v -5.28 h 0.79 q 1.18,4.52 4.8,4.52 a 3.36,3.36 0 0 0 2.3,-0.73 2.33,2.33 0 0 0 0.82,-1.82 2.17,2.17 0 0 0 -0.36,-1.28 2.5,2.5 0 0 0 -1.12,-0.83 17.32,17.32 0 0 0 -2.06,-0.55 12.25,12.25 0 0 1 -3.14,-1.08 3.62,3.62 0 0 1 -1.39,-1.36 4,4 0 0 1 -0.44,-2 4.3,4.3 0 0 1 1.22,-3.17 4.43,4.43 0 0 1 3.28,-1.23 5.35,5.35 0 0 1 3.6,1.5 z"
       class="cls-2" />
    <path
       style="fill:#211915"
       inkscape:connector-curvature="0"
       id="path60"
       d="m 58.83,143.89 a 5.47,5.47 0 0 1 2.9,0.81 5.63,5.63 0 0 1 2.07,2.21 6.65,6.65 0 0 1 0.74,3.16 6.34,6.34 0 0 1 -1.64,4.46 5.53,5.53 0 0 1 -6.95,1 5.78,5.78 0 0 1 -2,-2.19 6.67,6.67 0 0 1 -0.74,-3.2 6.33,6.33 0 0 1 1.62,-4.46 5.23,5.23 0 0 1 4,-1.79 z m 0,0.77 a 2.42,2.42 0 0 0 -1.55,0.53 3.53,3.53 0 0 0 -1,1.7 10.6,10.6 0 0 0 -0.39,3.21 11.17,11.17 0 0 0 0.36,3.25 3.26,3.26 0 0 0 1,1.63 2.54,2.54 0 0 0 1.6,0.53 2.47,2.47 0 0 0 2.15,-1.24 8.27,8.27 0 0 0 0.81,-4.28 11.13,11.13 0 0 0 -0.35,-3.21 3.17,3.17 0 0 0 -1,-1.6 2.54,2.54 0 0 0 -1.59,-0.52 z"
       class="cls-2" />
    <path
       style="fill:#211915"
       inkscape:connector-curvature="0"
       id="path62"
       d="m 74.83,145.08 0.52,-1.18 h 0.56 l 0.19,4.76 h -0.69 a 5.88,5.88 0 0 0 -1.22,-3.05 2.69,2.69 0 0 0 -2,-1 2.44,2.44 0 0 0 -2.19,1.29 7.68,7.68 0 0 0 -0.83,4.05 8.21,8.21 0 0 0 0.91,4.35 2.41,2.41 0 0 0 2.15,1.12 3.05,3.05 0 0 0 2.39,-1.12 4.93,4.93 0 0 0 1,-2.39 h 0.68 a 5.18,5.18 0 0 1 -1.45,3.21 4.11,4.11 0 0 1 -3,1.18 5,5 0 0 1 -3.84,-1.72 6.35,6.35 0 0 1 -1.55,-4.41 6.44,6.44 0 0 1 1.78,-4.77 4.89,4.89 0 0 1 3.56,-1.52 4.07,4.07 0 0 1 1.49,0.27 5.52,5.52 0 0 1 1.54,0.93 z"
       class="cls-2" />
    <path
       style="fill:#211915"
       inkscape:connector-curvature="0"
       id="path64"
       d="m 77.86,144.18 h 5.71 v 0.75 h -1 a 0.69,0.69 0 0 0 -0.48,0.14 0.54,0.54 0 0 0 -0.15,0.41 v 9.2 a 0.58,0.58 0 0 0 0.16,0.46 0.87,0.87 0 0 0 0.59,0.18 h 0.92 v 0.75 h -5.75 v -0.75 h 0.87 a 1,1 0 0 0 0.64,-0.16 0.6,0.6 0 0 0 0.18,-0.47 v -9.09 a 0.66,0.66 0 0 0 -0.17,-0.5 0.75,0.75 0 0 0 -0.53,-0.16 h -1 z"
       class="cls-2" />
    <path
       style="fill:#211915"
       inkscape:connector-curvature="0"
       id="path66"
       d="m 90.42,143.89 4.18,10.66 a 1.44,1.44 0 0 0 0.39,0.61 0.9,0.9 0 0 0 0.56,0.16 h 0.41 v 0.75 h -5.24 v -0.75 h 0.49 a 1.64,1.64 0 0 0 0.8,-0.14 0.41,0.41 0 0 0 0.22,-0.36 1.16,1.16 0 0 0 -0.09,-0.41 l -0.86,-2.2 h -4.17 l -0.4,1 a 2.86,2.86 0 0 0 -0.25,0.93 1.08,1.08 0 0 0 0.36,0.85 1.42,1.42 0 0 0 1,0.33 h 0.35 v 0.75 h -4.23 v -0.75 h 0.24 a 1.05,1.05 0 0 0 0.72,-0.27 2.56,2.56 0 0 0 0.68,-1 l 4,-10.17 z m -1.21,3 -1.78,4.53 H 91 Z"
       class="cls-2" />
    <path
       style="fill:#211915"
       inkscape:connector-curvature="0"
       id="path68"
       d="m 96.48,144.93 v -0.75 h 5.72 v 0.75 h -1 a 0.8,0.8 0 0 0 -0.58,0.17 0.76,0.76 0 0 0 -0.17,0.55 v 8.84 a 1,1 0 0 0 0.16,0.69 1.21,1.21 0 0 0 0.75,0.15 H 103 a 2.21,2.21 0 0 0 1.67,-0.91 6.56,6.56 0 0 0 1.19,-2.9 h 0.68 l -0.26,4.55 h -9.8 v -0.75 h 1 a 0.64,0.64 0 0 0 0.49,-0.18 0.7,0.7 0 0 0 0.17,-0.5 v -9.09 a 0.61,0.61 0 0 0 -0.17,-0.48 0.89,0.89 0 0 0 -0.58,-0.15 z"
       class="cls-2" />
    <path
       style="fill:#211915"
       inkscape:connector-curvature="0"
       id="path70"
       d="m 112.87,141.81 h 5.38 l 3,9.66 3,-9.66 h 5.52 v 0.9 h -1.2 a 0.64,0.64 0 0 0 -0.78,0.77 v 10.89 a 0.72,0.72 0 0 0 0.18,0.57 1.1,1.1 0 0 0 0.74,0.23 h 1.06 v 0.9 H 123 v -0.9 h 1.28 a 0.68,0.68 0 0 0 0.54,-0.21 0.86,0.86 0 0 0 0.19,-0.59 V 142.7 l -4.25,13.36 H 120 l -4.23,-13.48 V 153 a 2.07,2.07 0 0 0 0.53,1.47 2.39,2.39 0 0 0 1.54,0.69 v 0.9 h -5 v -0.9 a 2.07,2.07 0 0 0 1.46,-0.7 2.36,2.36 0 0 0 0.52,-1.57 v -9.22 a 1.15,1.15 0 0 0 -0.19,-0.78 1,1 0 0 0 -0.73,-0.19 h -1.06 z"
       class="cls-2" />
    <path
       style="fill:#211915"
       inkscape:connector-curvature="0"
       id="path72"
       d="m 131,144.18 h 5.71 v 0.75 h -1 a 0.69,0.69 0 0 0 -0.48,0.14 0.54,0.54 0 0 0 -0.15,0.41 v 9.2 a 0.58,0.58 0 0 0 0.16,0.46 0.87,0.87 0 0 0 0.59,0.18 h 0.92 v 0.75 H 131 v -0.75 h 0.87 a 1,1 0 0 0 0.64,-0.16 0.6,0.6 0 0 0 0.18,-0.47 v -9.09 a 0.66,0.66 0 0 0 -0.17,-0.5 0.75,0.75 0 0 0 -0.53,-0.16 h -1 z"
       class="cls-2" />
    <path
       style="fill:#211915"
       inkscape:connector-curvature="0"
       id="path74"
       d="m 137.93,144.93 v -0.75 h 5.72 v 0.75 h -1 a 0.8,0.8 0 0 0 -0.58,0.17 0.76,0.76 0 0 0 -0.17,0.55 v 8.84 a 1,1 0 0 0 0.16,0.69 1.21,1.21 0 0 0 0.75,0.15 h 1.6 a 2.21,2.21 0 0 0 1.67,-0.91 6.56,6.56 0 0 0 1.19,-2.9 H 148 l -0.26,4.55 h -9.8 v -0.75 h 1 a 0.64,0.64 0 0 0 0.49,-0.18 0.7,0.7 0 0 0 0.17,-0.5 v -9.09 a 0.61,0.61 0 0 0 -0.17,-0.48 0.89,0.89 0 0 0 -0.58,-0.15 z"
       class="cls-2" />
    <path
       style="fill:#211915"
       inkscape:connector-curvature="0"
       id="path76"
       d="m 149,144.18 h 5.71 v 0.75 h -1 a 0.69,0.69 0 0 0 -0.48,0.14 0.54,0.54 0 0 0 -0.15,0.41 v 9.2 a 0.58,0.58 0 0 0 0.16,0.46 0.87,0.87 0 0 0 0.59,0.18 h 0.92 v 0.75 H 149 v -0.75 h 0.87 a 1,1 0 0 0 0.64,-0.16 0.6,0.6 0 0 0 0.18,-0.47 v -9.09 a 0.66,0.66 0 0 0 -0.17,-0.5 0.75,0.75 0 0 0 -0.53,-0.16 h -1 z"
       class="cls-2" />
    <path
       style="fill:#211915"
       inkscape:connector-curvature="0"
       id="path78"
       d="m 156,144.18 h 9.74 l 0.25,4.51 h -0.68 a 8.87,8.87 0 0 0 -0.63,-2.26 2.84,2.84 0 0 0 -0.88,-1.15 1.87,1.87 0 0 0 -1.08,-0.34 0.7,0.7 0 0 0 -0.5,0.15 0.56,0.56 0 0 0 -0.16,0.43 v 9.19 a 0.62,0.62 0 0 0 0.15,0.43 0.49,0.49 0 0 0 0.37,0.17 h 1.27 v 0.75 h -6 v -0.75 h 1.2 a 0.57,0.57 0 0 0 0.43,-0.16 0.61,0.61 0 0 0 0.16,-0.44 v -9.14 a 0.62,0.62 0 0 0 -0.16,-0.47 0.72,0.72 0 0 0 -0.51,-0.15 q -1.92,0 -2.6,3.75 h -0.66 z"
       class="cls-2" />
    <path
       style="fill:#211915"
       inkscape:connector-curvature="0"
       id="path80"
       d="m 172.69,143.89 4.18,10.66 a 1.44,1.44 0 0 0 0.39,0.61 0.9,0.9 0 0 0 0.56,0.16 h 0.41 v 0.75 H 173 v -0.75 h 0.49 a 1.63,1.63 0 0 0 0.8,-0.14 0.41,0.41 0 0 0 0.22,-0.36 1.15,1.15 0 0 0 -0.09,-0.41 l -0.86,-2.2 h -4.17 l -0.4,1 a 2.88,2.88 0 0 0 -0.25,0.93 1.08,1.08 0 0 0 0.36,0.85 1.42,1.42 0 0 0 1,0.33 h 0.35 v 0.75 h -4.23 v -0.75 h 0.24 a 1.05,1.05 0 0 0 0.72,-0.27 2.57,2.57 0 0 0 0.68,-1 l 4,-10.17 z m -1.21,3 -1.78,4.53 h 3.55 z"
       class="cls-2" />
    <path
       style="fill:#211915"
       inkscape:connector-curvature="0"
       id="path82"
       d="m 179,144.18 h 5.81 a 5.83,5.83 0 0 1 2.31,0.39 2.92,2.92 0 0 1 1.33,1.06 2.67,2.67 0 0 1 0.44,1.49 2.51,2.51 0 0 1 -1.1,2.12 5.31,5.31 0 0 1 -2.57,0.8 3.32,3.32 0 0 1 1.34,0.49 2.89,2.89 0 0 1 0.83,1 8.67,8.67 0 0 1 0.78,2.08 3.55,3.55 0 0 0 0.33,1 0.4,0.4 0 0 0 0.32,0.2 q 0.5,0 0.59,-1.41 h 0.66 a 3.6,3.6 0 0 1 -0.63,2.14 1.94,1.94 0 0 1 -3.36,-0.58 11.88,11.88 0 0 1 -0.38,-1.62 11.07,11.07 0 0 0 -0.5,-2 1.75,1.75 0 0 0 -0.58,-0.76 1.48,1.48 0 0 0 -0.87,-0.25 H 183 v 4.38 a 0.58,0.58 0 0 0 0.16,0.44 0.76,0.76 0 0 0 0.53,0.2 h 1 v 0.75 H 179 v -0.75 h 0.87 a 0.66,0.66 0 0 0 0.51,-0.19 0.75,0.75 0 0 0 0.17,-0.53 v -9 a 0.78,0.78 0 0 0 -0.16,-0.54 0.58,0.58 0 0 0 -0.45,-0.17 H 179 Z m 3.95,5.39 h 0.94 a 2.76,2.76 0 0 0 2,-0.68 2.37,2.37 0 0 0 0.54,-1.76 2.26,2.26 0 0 0 -0.53,-1.67 2.61,2.61 0 0 0 -1.85,-0.53 1.51,1.51 0 0 0 -0.89,0.17 1,1 0 0 0 -0.18,0.74 z"
       class="cls-2" />
  </g>
</svg>
