<svg xmlns="http://www.w3.org/2000/svg" width="400" height="103.949"><defs><clipPath id="y"><path d="M158.148 81.613h1.428V70.6h-1.428v11.013z"/></clipPath><clipPath id="z"><path d="M158.148 70.6h1.428v11.014h-1.428V70.6z"/></clipPath><clipPath id="w"><path d="M144.586 67.88h.81V50.334h-.81V67.88z"/></clipPath><clipPath id="x"><path d="M144.586 50.333h.81V67.88h-.81V50.334z"/></clipPath><clipPath id="t"><path d="M143.09 69.17h.81V50.136h-.81V69.17z"/></clipPath><clipPath id="u"><path d="M143.09 50.137h.81V69.17h-.81V50.136z"/></clipPath><clipPath id="v"><path d="M143.09 50.137h.81v19.03h-.81v-19.03z"/></clipPath><clipPath id="r"><path d="M141.656 70.394h.813V49.938h-.814v20.456z"/></clipPath><clipPath id="s"><path d="M141.656 49.94h.813v20.455h-.814V49.94z"/></clipPath><clipPath id="o"><path d="M140.166 71.676h.813V49.92h-.814v21.756z"/></clipPath><clipPath id="p"><path d="M140.166 49.92h.813v21.756h-.814V49.92z"/></clipPath><clipPath id="q"><path d="M140.166 49.92h.812v21.756h-.812V49.92z"/></clipPath><clipPath id="m"><path d="M164.444 67.88h.81V49.745h-.81V67.88z"/></clipPath><clipPath id="n"><path d="M164.444 49.744h.81V67.88h-.81V49.745z"/></clipPath><clipPath id="k"><path d="M162.95 69.17h.812V49.745h-.813V69.17z"/></clipPath><clipPath id="l"><path d="M162.95 49.746h.812V69.17h-.813V49.745z"/></clipPath><clipPath id="i"><path d="M161.515 70.394h.81V49.938h-.81v20.456z"/></clipPath><clipPath id="j"><path d="M161.515 49.94h.81v20.455h-.81V49.94z"/></clipPath><clipPath id="g"><path d="M160.023 71.676h.81V50.114h-.81v21.562z"/></clipPath><clipPath id="h"><path d="M160.023 50.114h.81v21.56h-.81v-21.56z"/></clipPath><clipPath id="e"><path d="M155.51 83.89h1.43V68.257h-1.43V83.89z"/></clipPath><clipPath id="f"><path d="M155.51 68.257h1.43V83.89h-1.43V68.257z"/></clipPath><clipPath id="c"><path d="M152.98 86.05h1.43V50.342h-1.43V86.05z"/></clipPath><clipPath id="d"><path d="M152.98 50.343h1.43V86.05h-1.43V50.342z"/></clipPath><clipPath id="a"><path d="M150.348 88.31h1.43V50.313h-1.43v38z"/></clipPath><clipPath id="b"><path d="M150.348 50.312h1.43v38h-1.43v-38z"/></clipPath></defs><path d="M189.817 44.067l.043-.718c.01-.264.22-.362.474-.227.796.406 1.665.6 2.583.6 1.932 0 2.976-1.157 2.976-3.013 0-1.752-.837-2.805-2.763-3.61-2.405-1.01-3.405-2.454-3.405-4.58 0-2.408 1.61-3.95 4.216-3.95.9 0 1.73.158 2.452.442.19.08.26.2.25.376l-.035.653c-.01.264-.215.354-.476.23-.636-.304-1.346-.43-2.074-.43-1.813 0-2.86 1.022-2.86 2.657 0 1.654.842 2.604 2.745 3.445 2.387 1.067 3.43 2.475 3.43 4.715 0 2.72-1.617 4.335-4.473 4.335-.96 0-1.992-.19-2.832-.555-.194-.08-.26-.205-.248-.37M207.927 36.78c0-4.695-1.29-6.942-3.75-6.942-2.446 0-3.736 2.247-3.736 6.943 0 4.72 1.29 6.942 3.738 6.942 2.46 0 3.75-2.222 3.75-6.94m-8.964 0c0-5.194 1.792-8.21 5.214-8.21 3.435 0 5.22 3.016 5.22 8.21 0 5.215-1.766 8.214-5.22 8.214-3.44 0-5.214-3-5.214-8.215M219.976 43.63l.057.615c.01.184-.057.284-.21.35-.674.276-1.528.4-2.352.4-4.04 0-6.47-3.266-6.47-8.213 0-4.943 2.39-8.21 6.402-8.21.852 0 1.612.127 2.297.408.162.065.232.182.218.366l-.03.608c-.026.246-.225.342-.467.246-.575-.224-1.26-.36-1.95-.36-3.09 0-4.992 2.634-4.992 6.942 0 4.335 1.927 6.94 5.013 6.94.724 0 1.42-.104 2.02-.344.24-.087.44 0 .466.25M223.46 28.838c.18 0 .323.142.323.328V44.39c0 .193-.144.33-.324.33h-.792c-.188 0-.332-.137-.332-.33V29.167c0-.186.144-.328.332-.328h.79zM234.375 43.474c.184 0 .328.136.328.317v.6c0 .195-.144.328-.328.328h-6.966c-.178 0-.327-.133-.327-.327V29.17c0-.19.15-.328.326-.328h6.804c.195 0 .335.138.335.328v.603c0 .18-.14.32-.336.32h-5.68v5.83h5.273c.182 0 .332.147.332.33v.588c0 .183-.15.328-.333.328h-5.274v6.308h5.842zM239.932 30.088h-1.497v13.385h1.497c3.454 0 4.832-2.065 4.832-6.692 0-4.6-1.378-6.692-4.832-6.692m0-1.248c4.2 0 6.31 2.478 6.31 7.94 0 5.495-2.11 7.938-6.31 7.938h-2.62c-.193 0-.33-.134-.33-.326V29.17c0-.192.137-.33.33-.33h2.62zM249.91 39.118h4.577l-2.29-8.684-2.287 8.684zm2.82-10.278c.24 0 .406.138.48.366l4.18 15.105c.07.252-.03.41-.307.41h-.735c-.25 0-.395-.108-.455-.33l-1.084-4.025h-5.224L248.5 44.39c-.054.222-.206.33-.453.33h-.74c-.272 0-.375-.158-.306-.41l4.192-15.104c.063-.228.238-.366.472-.366h1.067zM262.22 30.088h-1.5v13.385h1.5c3.444 0 4.83-2.065 4.83-6.692 0-4.6-1.386-6.692-4.83-6.692m0-1.248c4.194 0 6.303 2.478 6.303 7.94 0 5.495-2.11 7.938-6.304 7.938h-2.628c-.194 0-.324-.134-.324-.326V29.17c0-.192.13-.33.324-.33h2.627zM191.903 66.37h4.583l-2.295-8.687-2.287 8.687zm2.82-10.276c.24 0 .412.14.477.368l4.182 15.103c.07.25-.03.41-.302.41h-.735c-.255 0-.397-.107-.46-.332l-1.083-4.02h-5.22l-1.09 4.02c-.053.225-.2.332-.452.332h-.737c-.27 0-.376-.16-.303-.41l4.187-15.103c.065-.228.234-.368.47-.368h1.065zM204.21 57.35h-1.5V70.73h1.5c3.447 0 4.827-2.072 4.827-6.7 0-4.597-1.38-6.683-4.826-6.683m0-1.256c4.198 0 6.31 2.474 6.31 7.937 0 5.495-2.112 7.944-6.31 7.944h-2.626c-.19 0-.32-.136-.32-.33V56.43c0-.2.13-.336.32-.336h2.627zM218.215 66.576c-.28 0-.45-.125-.55-.374l-3.345-8.542v13.986c0 .194-.15.33-.334.33h-.745c-.18 0-.33-.136-.33-.33V56.43c0-.196.15-.336.33-.336h1.544c.246 0 .386.13.463.336l3.398 8.517 3.414-8.517c.074-.207.2-.336.454-.336h1.55c.183 0 .323.14.323.336v15.216c0 .194-.14.33-.323.33h-.75c-.184 0-.334-.136-.334-.33V57.66l-3.337 8.542c-.11.25-.28.374-.56.374h-.868zM228.82 56.094c.182 0 .326.138.326.335v15.215c0 .194-.144.328-.325.328h-.797c-.18 0-.326-.134-.326-.328V56.43c0-.198.146-.336.326-.336h.798zM233.85 58.075v13.568c0 .197-.145.332-.33.332h-.75c-.193 0-.324-.135-.324-.332V56.43c0-.195.13-.335.324-.335h1.41c.248 0 .385.125.465.334L240.175 70V56.43c0-.195.152-.335.333-.335h.748c.19 0 .33.14.33.334v15.213c0 .197-.14.332-.33.332h-1.408c-.246 0-.382-.123-.465-.332l-5.532-13.568zM246.01 56.094c.185 0 .333.138.333.335v15.215c0 .194-.148.328-.334.328h-.788c-.186 0-.33-.134-.33-.328V56.43c0-.198.144-.336.33-.336h.787zM249.04 71.317l.054-.714c.01-.263.213-.365.472-.227.797.405 1.664.6 2.59.6 1.924 0 2.972-1.158 2.972-3.012 0-1.748-.843-2.805-2.77-3.61-2.404-1.01-3.406-2.448-3.406-4.584 0-2.406 1.62-3.94 4.222-3.94.9 0 1.73.152 2.45.438.19.077.258.205.252.372l-.038.657c-.01.264-.215.355-.48.23-.633-.307-1.347-.432-2.073-.432-1.813 0-2.855 1.02-2.855 2.658 0 1.65.842 2.606 2.744 3.443 2.382 1.07 3.43 2.475 3.43 4.72 0 2.723-1.616 4.33-4.476 4.33-.963 0-1.99-.19-2.828-.55-.196-.08-.263-.207-.26-.38M261.26 57.35h-3.41c-.19 0-.334-.14-.334-.32v-.6c0-.2.144-.336.334-.336h8.28c.18 0 .328.137.328.336v.6c0 .18-.15.32-.328.32h-3.418v14.294c0 .194-.15.33-.332.33h-.792c-.184 0-.328-.136-.328-.33V57.35zM271.913 57.35h-2.295v6.57h2.295c1.996 0 3.034-1.178 3.034-3.287 0-2.11-1.038-3.284-3.034-3.284m.45 7.823h-2.745v6.47c0 .195-.133.33-.327.33h-.795c-.184 0-.328-.135-.328-.33V56.43c0-.2.144-.336.328-.336h3.462c2.77 0 4.47 1.683 4.47 4.54 0 2.18-.997 3.674-2.682 4.265l3.142 6.61c.142.272.032.464-.296.464h-.674c-.227 0-.403-.11-.5-.315l-3.054-6.487zM280.317 66.37h4.58l-2.292-8.687-2.288 8.687zm2.82-10.276c.245 0 .416.14.48.368l4.184 15.103c.072.25-.03.41-.306.41h-.73c-.254 0-.4-.107-.465-.332l-1.08-4.02H280l-1.093 4.02c-.054.225-.2.332-.453.332h-.735c-.274 0-.38-.16-.306-.41l4.185-15.103c.068-.228.24-.368.47-.368h1.068zM292.625 57.35h-1.497V70.73h1.497c3.446 0 4.834-2.072 4.834-6.7 0-4.597-1.39-6.683-4.835-6.683m0-1.256c4.195 0 6.304 2.474 6.304 7.937 0 5.495-2.11 7.944-6.305 7.944h-2.62c-.197 0-.324-.136-.324-.33V56.43c0-.2.128-.336.325-.336h2.62zM309.494 64.03c0-4.685-1.29-6.934-3.744-6.934-2.452 0-3.742 2.25-3.742 6.935 0 4.722 1.29 6.946 3.742 6.946 2.455 0 3.744-2.224 3.744-6.945m-8.963 0c0-5.186 1.797-8.2 5.22-8.2 3.43 0 5.216 3.014 5.216 8.2 0 5.22-1.767 8.218-5.216 8.218-3.45 0-5.22-2.997-5.22-8.217M317.106 57.35h-2.288v6.57h2.288c2 0 3.045-1.178 3.045-3.287 0-2.11-1.043-3.284-3.044-3.284m.457 7.823h-2.745v6.47c0 .195-.14.33-.326.33h-.798c-.186 0-.33-.135-.33-.33V56.43c0-.2.144-.336.33-.336h3.456c2.767 0 4.47 1.683 4.47 4.54 0 2.18-.993 3.674-2.676 4.265l3.145 6.61c.138.272.02.464-.3.464h-.68c-.22 0-.408-.11-.498-.315l-3.05-6.487zM325.51 66.37h4.583l-2.29-8.687-2.293 8.687zm2.83-10.276c.237 0 .406.14.47.368L333 71.565c.06.25-.036.41-.307.41h-.737c-.25 0-.4-.107-.455-.332l-1.087-4.02h-5.216l-1.093 4.02c-.052.225-.204.332-.453.332h-.736c-.267 0-.372-.16-.303-.41l4.186-15.103c.065-.228.236-.368.476-.368h1.067zM193.353 84.6h-1.496v13.384h1.496c3.447 0 4.832-2.068 4.832-6.695 0-4.6-1.385-6.69-4.832-6.69m0-1.246c4.193 0 6.308 2.47 6.308 7.935 0 5.493-2.114 7.942-6.307 7.942h-2.62c-.19 0-.327-.135-.327-.327v-15.22c0-.193.138-.33.328-.33h2.62zM209.352 97.982c.173 0 .324.136.324.32v.6c0 .195-.15.33-.324.33h-6.968c-.184 0-.328-.135-.328-.33V83.68c0-.188.144-.326.328-.326h6.803c.194 0 .328.138.328.326v.602c0 .183-.134.32-.328.32h-5.684v5.83h5.275c.184 0 .33.147.33.327v.592c0 .18-.146.326-.33.326h-5.275v6.304h5.85zM217.022 83.68c0-.19.144-.325.323-.325h6.804c.197 0 .333.136.333.326v.602c0 .184-.136.318-.334.318h-5.677v5.76h5.275c.18 0 .325.15.325.327v.597c0 .177-.144.326-.325.326h-5.275v7.294c0 .194-.142.328-.328.328h-.8c-.18 0-.323-.134-.323-.328V83.68zM234.59 91.29c0-4.695-1.293-6.94-3.747-6.94-2.447 0-3.74 2.245-3.74 6.94 0 4.718 1.293 6.942 3.74 6.942 2.454 0 3.747-2.224 3.747-6.943m-8.96 0c0-5.194 1.793-8.21 5.213-8.21 3.43 0 5.223 3.016 5.223 8.21 0 5.215-1.77 8.22-5.223 8.22-3.443 0-5.214-3.005-5.214-8.22M239.863 85.325v13.58c0 .193-.148.327-.324.327h-.75c-.188 0-.33-.134-.33-.328V83.68c0-.19.142-.324.33-.324h1.41c.246 0 .383.12.463.325l5.535 13.576V83.68c0-.19.147-.324.326-.324h.754c.19 0 .324.135.324.325v15.224c0 .194-.134.328-.324.328h-1.414c-.244 0-.38-.126-.465-.328l-5.537-13.58zM253.744 84.6h-1.497v13.384h1.497c3.45 0 4.83-2.068 4.83-6.695 0-4.6-1.38-6.69-4.83-6.69m0-1.246c4.195 0 6.308 2.47 6.308 7.935 0 5.493-2.113 7.942-6.308 7.942h-2.62c-.195 0-.33-.135-.33-.327v-15.22c0-.193.135-.33.33-.33h2.62zM270.61 91.29c0-4.695-1.288-6.94-3.742-6.94-2.453 0-3.744 2.245-3.744 6.94 0 4.718 1.29 6.942 3.744 6.942s3.742-2.224 3.742-6.943m-8.964 0c0-5.194 1.796-8.21 5.222-8.21 3.427 0 5.214 3.016 5.214 8.21 0 5.215-1.764 8.22-5.214 8.22-3.445 0-5.222-3.005-5.222-8.22M273.895 98.567l.04-.71c.012-.26.223-.36.48-.227.794.41 1.667.6 2.585.6 1.928 0 2.968-1.156 2.968-3.012 0-1.75-.84-2.805-2.767-3.608-2.396-1.01-3.397-2.45-3.397-4.584 0-2.403 1.61-3.947 4.216-3.947.893 0 1.726.162 2.447.444.194.082.263.205.254.376l-.034.656c-.015.257-.22.346-.48.22-.633-.306-1.347-.427-2.074-.427-1.812 0-2.854 1.02-2.854 2.653 0 1.662.837 2.608 2.74 3.448 2.384 1.07 3.43 2.473 3.43 4.72 0 2.72-1.612 4.337-4.466 4.337-.965 0-2-.196-2.842-.555-.193-.086-.26-.21-.245-.385M291.85 84.6h-1.497v13.384h1.497c3.448 0 4.83-2.068 4.83-6.695 0-4.6-1.382-6.69-4.83-6.69m0-1.246c4.198 0 6.31 2.47 6.31 7.935 0 5.493-2.112 7.942-6.31 7.942h-2.624c-.19 0-.324-.135-.324-.327v-15.22c0-.193.134-.33.324-.33h2.624zM307.846 97.982c.182 0 .324.136.324.32v.6c0 .195-.142.33-.324.33h-6.96c-.18 0-.334-.135-.334-.33V83.68c0-.188.153-.326.334-.326h6.808c.19 0 .328.138.328.326v.602c0 .183-.138.32-.328.32h-5.686v5.83h5.27c.184 0 .334.147.334.327v.592c0 .18-.15.326-.334.326h-5.27v6.304h5.838zM316.75 83.355c.185 0 .34.135.34.325V98.9c0 .197-.155.333-.34.333h-.78c-.194 0-.338-.136-.338-.332V83.68c0-.19.144-.325.338-.325h.78zM321.788 85.325v13.58c0 .193-.148.327-.332.327h-.747c-.187 0-.33-.134-.33-.328V83.68c0-.19.143-.324.33-.324h1.404c.253 0 .39.12.47.325l5.527 13.576V83.68c0-.19.152-.324.335-.324h.744c.195 0 .335.135.335.325v15.224c0 .194-.14.328-.336.328h-1.404c-.245 0-.38-.126-.464-.328l-5.534-13.58zM336.734 97.643l3.698-13.963c.054-.21.202-.326.45-.326h.736c.275 0 .378.155.305.41l-4.185 15.1c-.07.233-.24.37-.47.37H336.2c-.243 0-.408-.137-.477-.37l-4.19-15.1c-.064-.255.037-.41.308-.41h.74c.25 0 .395.117.45.326l3.704 13.963zM351.343 97.982c.173 0 .323.136.323.32v.6c0 .195-.15.33-.323.33h-6.967c-.18 0-.33-.135-.33-.33V83.68c0-.188.15-.326.33-.326h6.806c.194 0 .33.138.33.326v.602c0 .183-.136.32-.33.32h-5.688v5.83h5.278c.18 0 .33.147.33.327v.592c0 .18-.15.326-.33.326h-5.278v6.304h5.85zM357.693 84.6H355.4v6.574h2.293c1.998 0 3.042-1.175 3.042-3.284 0-2.112-1.044-3.29-3.042-3.29m.45 7.83H355.4v6.475c0 .192-.132.327-.324.327h-.798c-.18 0-.33-.135-.33-.327v-15.22c0-.193.15-.33.33-.33h3.46c2.77 0 4.47 1.674 4.47 4.535 0 2.175-1 3.675-2.676 4.264l3.14 6.613c.14.27.022.465-.296.465h-.676c-.226 0-.405-.112-.5-.32l-3.056-6.483zM364.006 98.567l.044-.71c.014-.26.225-.36.484-.227.79.41 1.67.6 2.583.6 1.932 0 2.972-1.156 2.972-3.012 0-1.75-.837-2.805-2.772-3.608-2.4-1.01-3.398-2.45-3.398-4.584 0-2.403 1.612-3.947 4.225-3.947.893 0 1.718.162 2.443.444.198.082.263.205.252.376l-.033.656c-.01.257-.22.346-.48.22-.633-.306-1.347-.427-2.076-.427-1.807 0-2.855 1.02-2.855 2.653 0 1.662.84 2.608 2.75 3.448 2.378 1.07 3.42 2.473 3.42 4.72 0 2.72-1.61 4.337-4.47 4.337-.96 0-1.993-.196-2.834-.555-.196-.086-.26-.21-.254-.385M375.195 83.355c.182 0 .326.135.326.325V98.9c0 .197-.143.333-.325.333h-.79c-.183 0-.33-.136-.33-.332V83.68c0-.19.147-.325.33-.325h.79zM383.83 78.54c.14-.213.275-.265.515-.265h.9c.163 0 .255.063.255.178 0 .127-.048.204-.17.365l-2.15 2.913c-.12.17-.238.22-.464.22h-.513c-.276 0-.395-.17-.222-.43l1.85-2.98zm3.16 12.748c0-4.694-1.3-6.94-3.748-6.94-2.45 0-3.74 2.246-3.74 6.94 0 4.72 1.29 6.948 3.74 6.948 2.448 0 3.747-2.228 3.747-6.948m-8.966 0c0-5.193 1.792-8.208 5.218-8.208 3.423 0 5.223 3.015 5.223 8.208 0 5.22-1.773 8.217-5.223 8.217s-5.218-2.998-5.218-8.217M392.26 85.325v13.58c0 .193-.14.327-.324.327h-.756c-.186 0-.32-.134-.32-.328V83.68c0-.19.134-.324.32-.324h1.41c.248 0 .385.12.47.325l5.533 13.576V83.68c0-.19.15-.324.327-.324h.742c.2 0 .338.135.338.325v15.224c0 .194-.138.328-.338.328h-1.4c-.25 0-.386-.126-.465-.328l-5.536-13.58z" fill="#939598"/><path d="M0 90.502h3.126v13.445H0V90.502zM9.975 90.502h2.14l9.46 7.92c.548.443 1.07.91 1.536 1.456-.078-1.12-.124-1.9-.124-2.318v-7.058h2.808v13.446h-2.136l-9.88-8.313c-.385-.336-.75-.677-1.118-1.09.104 1.038.136 1.74.136 2.13v7.273h-2.82V90.502zM29.418 90.502h3.567l5.448 9.718 5.185-9.718h3.128l-7.4 13.446H37.18l-7.764-13.446zM50.4 90.502h13.756v2.29H53.52v3.002h6.205v2.292H53.52v3.335h10.764v2.528H50.4V90.502zM73.145 92.82v3.753h7.035c.967 0 1.403-.186 1.403-1.07V93.89c0-.89-.436-1.07-1.403-1.07h-7.035zm-3.074-2.317h11.513c2.063 0 3.026.724 3.026 2.606v3.148c0 1.873-.964 2.608-3.027 2.608H79.82l6.196 5.082H81.54l-5.43-5.082h-2.965v5.082H70.07V90.503zM93.81 92.9v8.52h8.443v-2.894l3.128.65v1.59c0 2.527-.81 3.183-3.334 3.183H94.02c-2.525 0-3.338-.657-3.338-3.184V93.68c0-2.53.813-3.18 3.337-3.18h8.026c2.523 0 3.335.65 3.335 3.18v1.277l-3.127.493V92.9H93.81zM120.69 98.575l-2.895-5.466-2.994 5.465h5.89zm-4.302-8.072h3.02l7.715 13.445h-3.515l-1.616-2.946h-8.528l-1.556 2.946h-3.126l7.606-13.445zM133.803 92.847v2.892h8.395c2.524 0 3.364.647 3.364 3.177v1.848c0 2.527-.84 3.183-3.364 3.183h-8.313c-2.53 0-3.36-.656-3.36-3.183v-.367l2.763-.566v1.59h9.513v-3.08h-8.393c-2.53 0-3.337-.65-3.337-3.18V93.68c0-2.526.808-3.176 3.337-3.176h7.63c2.4 0 3.337.627 3.337 2.942v.286l-2.757.652v-1.535h-8.814zM160.896 98.575l-2.892-5.466-2.998 5.465h5.89zm-4.303-8.072h3.023l7.716 13.445h-3.516l-1.62-2.946h-8.523l-1.566 2.946h-3.12l7.606-13.445zM85.017 0v79.348h-1.32l-1.67-76.782L85.017 0zM79.52 4.723v74.56h-1.318L76.53 7.272l2.99-2.55z" fill="#009444"/><g clip-path="url(#a)" opacity=".5" transform="matrix(2.08815 0 0 -2.08815 -226.452 184.406)"><g clip-path="url(#b)"><path d="M150.348 88.31V50.313h.63l.8 36.77-1.43 1.23z" fill="#009444"/></g></g><g clip-path="url(#c)" opacity=".5" transform="matrix(2.08815 0 0 -2.08815 -226.452 184.406)"><g clip-path="url(#d)"><path d="M152.98 86.05V50.342h.63l.8 34.485-1.43 1.22z" fill="#009444"/></g></g><g clip-path="url(#e)" opacity=".5" transform="matrix(2.08815 0 0 -2.08815 -226.452 184.406)"><g clip-path="url(#f)"><path d="M155.51 83.89V68.257h.63l.802 14.382-1.432 1.25z" fill="#009444"/></g></g><path d="M74.236 41.716V9.23l-2.988 2.615.658 27.63 2.33 2.24zM72.896 79.048l.028 1.04h1.313v-.942l-1.34-.098zM106.294 34.736V79.76h-.74l-.953-43.57 1.694-1.454zM103.18 37.41v42.31h-.743l-.95-40.862 1.694-1.447zM100.185 39.97v39.335h-.745l-.948-37.852 1.693-1.482zM97.06 42.66v36.643h-.74l-.95-35.164 1.69-1.48z" fill="#009444"/><g clip-path="url(#g)" opacity=".5" transform="matrix(2.08815 0 0 -2.08815 -226.452 184.406)"><g clip-path="url(#h)"><path d="M160.023 71.676V50.114h.355l.455 20.865-.81.696z" fill="#009444"/></g></g><g clip-path="url(#i)" opacity=".5" transform="matrix(2.08815 0 0 -2.08815 -226.452 184.406)"><g clip-path="url(#j)"><path d="M161.515 70.394V49.938h.356l.456 19.763-.81.694z" fill="#009444"/></g></g><g clip-path="url(#k)" opacity=".5" transform="matrix(2.08815 0 0 -2.08815 -226.452 184.406)"><g clip-path="url(#l)"><path d="M162.95 69.17V49.745h.355l.456 18.713-.81.71z" fill="#009444"/></g></g><g clip-path="url(#m)" opacity=".5" transform="matrix(2.08815 0 0 -2.08815 -226.452 184.406)"><g clip-path="url(#n)"><path d="M164.444 67.88V49.745h.354l.457 17.43-.81.707z" fill="#009444"/></g></g><path d="M64.83 34.736v45.428h-.744l-.95-43.973 1.693-1.454zM61.717 37.41v42.717h-.747l-.946-41.27 1.693-1.446zM58.72 39.97v40.152h-.75l-.944-38.67 1.694-1.48zM55.6 42.66v37.46h-.746l-.95-35.98 1.696-1.48z" fill="#009444"/><g clip-path="url(#o)" opacity=".5" transform="matrix(2.08815 0 0 -2.08815 -226.452 184.406)"><g clip-path="url(#p)"><path d="M140.166 49.92h.812v21.756h-.812V49.92z" fill="#009444"/></g><g clip-path="url(#q)"><path d="M140.166 71.676V49.92h.356l.456 21.06-.812.696z" fill="#009444"/></g></g><g><g clip-path="url(#r)" opacity=".5" transform="matrix(2.08815 0 0 -2.08815 -226.452 184.406)"><g clip-path="url(#s)"><path d="M141.656 70.394V49.938h.356l.456 19.763-.812.694z" fill="#009444"/></g></g></g><g><g clip-path="url(#t)" opacity=".5" transform="matrix(2.08815 0 0 -2.08815 -226.452 184.406)"><g clip-path="url(#u)"><path d="M143.09 50.137h.81V69.17h-.81V50.136z" fill="#009444"/></g><g clip-path="url(#v)"><path d="M143.09 69.17V50.136h.357l.454 18.322-.81.71z" fill="#009444"/></g></g></g><g><g clip-path="url(#w)" opacity=".5" transform="matrix(2.08815 0 0 -2.08815 -226.452 184.406)"><g clip-path="url(#x)"><path d="M144.586 67.88V50.334h.356l.455 16.84-.81.708z" fill="#009444"/></g></g></g><g><path d="M136.018 84.5c-9.278-3.468-29.345-5.875-52.607-5.875-23.605 0-43.925 2.476-53.02 6.03 3.012-.242 6.13-.446 9.325-.6 10.547-2.582 27.778-4.27 47.248-4.27 14.705 0 28.13.96 38.366 2.544-9.406-1.396-21.507-2.18-34.704-2.047-17.843.17-33.64 1.956-43.432 4.577 1.867.134 3.663.326 5.367.574 9.863-2.39 24.923-4.007 41.814-4.172 17.26-.16 32.646 1.22 42.567 3.506-.298-.092-.602-.18-.922-.27" fill="#009444"/></g><g><g clip-path="url(#y)" opacity=".5" transform="matrix(2.08815 0 0 -2.08815 -226.452 184.406)"><g clip-path="url(#z)"><path d="M159.35 71.684l.227 8.682-1.428 1.248V70.6l1.2 1.084z" fill="#009444"/></g></g></g><g><path d="M68.724 37.067V13.984l-2.99 2.606.49 18.39 2.5 2.087z" fill="#009444"/></g><path d="M178.667 103.575h-1.11V24.633h1.11v78.942z" fill="#d1d3d4"/></svg>