<svg xmlns="http://www.w3.org/2000/svg" width="400" height="159.649"><g font-size="388.48" font-family="Technique BRK"><path d="M181.838 0c-21.567 0-40.094 7.79-55.56 23.372-15.267 15.383-22.92 33.962-22.976 55.73.47 9.543-4.12 17.027-9.59 24.37-6.526 6.29-14.196 9.434-22.993 9.434l-5.947.894-18.594.257V80.323c0-3.288-.632-6.37-1.91-9.228-1.134-2.716-2.77-5.142-4.897-7.287-2.128-2.144-4.62-3.87-7.458-5.155-2.838-1.144-5.815-1.72-8.936-1.72-6.244 0-11.632 2.3-16.172 6.875C2.268 68.383.002 73.89.002 80.323v55.955c0 3.145.567 6.146 1.702 9.005 1.277 2.86 2.894 5.365 4.88 7.51 2.128 2.144 4.556 3.788 7.252 4.932 2.633 1.194 5.44 1.822 8.438 1.907v.017H70.718c21.708 0 40.234-7.71 55.558-23.15 15.466-15.582 23.2-34.304 23.2-56.178-.402-9.393 3.805-16.77 9.366-23.92 6.385-6.434 14.055-9.66 22.994-9.66l11.806.034v.137l39.285.104c3.12 0 6.098-.575 8.935-1.72 2.838-1.286 5.33-2.992 7.46-5.137 2.127-2.144 3.76-4.57 4.897-7.287 1.276-2.86 1.907-5.94 1.907-9.228 0-3.145-.632-6.146-1.908-9.005-1.136-2.86-2.77-5.366-4.898-7.51-2.13-2.144-4.62-3.79-7.46-4.932C239.03.91 236.052.273 232.93.273l-4.76-.016c1.835.27 3.63.763 5.36 1.46 2.838 1.287 5.313 2.994 7.442 5.14 2.128 2.143 3.762 4.57 4.898 7.285 1.277 2.86 1.907 5.94 1.907 9.23 0 3.144-.63 6.144-1.907 9.004-1.136 2.86-2.77 5.365-4.898 7.51-2.13 2.144-4.604 3.788-7.44 4.932-2.84 1.286-5.833 1.924-8.955 1.924-3.263 0-6.304-.638-9.142-1.924-2.696-1.144-5.107-2.788-7.235-4.933-1.987-2.144-3.62-4.65-4.898-7.51-1.135-2.86-1.7-5.86-1.7-9.004 0-6.433 2.264-11.94 6.804-16.514 3.68-3.71 7.918-5.914 12.717-6.617l-27.48-.07V.033L181.84 0z" style="-inkscape-font-specification:Technique BRK"/><path d="M22.975.98c-6.243 0-11.63 2.282-16.17 6.856C2.265 12.41 0 17.918 0 24.35c0 3.147.566 6.147 1.7 9.006 1.278 2.86 2.895 5.366 4.882 7.51 2.128 2.145 4.555 3.79 7.25 4.932 2.84 1.287 5.88 1.925 9.143 1.925 3.122 0 6.098-.638 8.936-1.925 2.84-1.143 5.33-2.787 7.46-4.932 2.127-2.144 3.76-4.65 4.897-7.51 1.277-2.86 1.907-5.86 1.907-9.005 0-3.287-.63-6.368-1.907-9.227-1.136-2.716-2.77-5.142-4.898-7.287-2.13-2.144-4.62-3.868-7.46-5.155-2.837-1.143-5.813-1.7-8.935-1.7z" style="-inkscape-font-specification:Technique BRK" fill="#ed9902"/><path d="M247.775 136.27c0 3.144-.64 6.146-1.916 9.006-1.136 2.86-2.768 5.36-4.896 7.505-2.128 2.146-4.61 3.79-7.45 4.934-2.837 1.286-5.816 1.93-8.938 1.93-3.263 0-6.314-.644-9.152-1.93-2.696-1.145-5.108-2.788-7.236-4.933-1.987-2.143-3.618-4.645-4.895-7.504-1.135-2.86-1.703-5.862-1.703-9.007V80.3c0-6.432 2.27-11.936 6.81-16.51 4.54-4.575 9.933-6.862 16.176-6.862 3.122 0 6.1.57 8.94 1.715 2.837 1.287 5.32 3.002 7.448 5.146s3.76 4.574 4.895 7.29c1.276 2.86 1.915 5.933 1.915 9.22v55.97" style="-inkscape-font-specification:Technique BRK" fill="#036085"/><path d="M396.808 119.972c2.128-3.574 3.192-7.505 3.192-11.794 0-3.145-.64-6.076-1.915-8.792-1.136-2.86-2.767-5.36-4.896-7.505-2.13-2.143-4.612-3.86-7.45-5.146-2.696-1.286-5.605-1.93-8.726-1.93-9.08 0-15.82 3.932-20.22 11.794-2.98 5.147-6.88 9.15-11.705 12.01-4.825 2.858-10.217 4.288-16.176 4.287-8.94 0-16.6-3.216-22.986-9.65-6.385-6.432-9.578-14.08-9.578-22.944 0-9.148 3.193-16.868 9.578-23.158 6.527-6.29 14.19-9.436 22.986-9.436 12.486 0 21.78 5.433 27.88 16.298 2.13 3.717 4.967 6.647 8.514 8.792 3.69 2 7.59 3.002 11.706 3.002 3.973 0 7.804-1.072 11.493-3.217C396.17 68.15 400 61.503 400 52.64c0-4.29-1.064-8.293-3.192-12.01-3.548-6.147-7.805-11.65-12.77-16.512-4.825-5.003-10.146-9.22-15.963-12.652-5.818-3.43-12.06-6.004-18.73-7.72C342.82 1.89 336.01.96 328.916.96c-21.71 0-40.298 7.79-55.764 23.372-15.323 15.44-22.985 34.096-22.985 55.97 0 21.872 7.662 40.6 22.986 56.182 15.467 15.44 34.055 23.16 55.764 23.16 13.905 0 26.958-3.575 39.16-10.723 12.06-7.003 21.64-16.653 28.734-28.948" style="-inkscape-font-specification:Technique BRK"/></g></svg>