<?xml version="1.0" encoding="UTF-8" standalone="no"?>
<!-- Created with Inkscape (http://www.inkscape.org/) -->

<svg
   xmlns:dc="http://purl.org/dc/elements/1.1/"
   xmlns:cc="http://creativecommons.org/ns#"
   xmlns:rdf="http://www.w3.org/1999/02/22-rdf-syntax-ns#"
   xmlns:svg="http://www.w3.org/2000/svg"
   xmlns="http://www.w3.org/2000/svg"
   xmlns:sodipodi="http://sodipodi.sourceforge.net/DTD/sodipodi-0.dtd"
   xmlns:inkscape="http://www.inkscape.org/namespaces/inkscape"
   id="svg2"
   version="1.1"
   inkscape:version="0.48.5 r10040"
   width="400"
   height="395.17123"
   xml:space="preserve"
   sodipodi:docname="logo_je.ai"><metadata
     id="metadata8"><rdf:RDF><cc:Work
         rdf:about=""><dc:format>image/svg+xml</dc:format><dc:type
           rdf:resource="http://purl.org/dc/dcmitype/StillImage" /><dc:title></dc:title></cc:Work></rdf:RDF></metadata><defs
     id="defs6"><clipPath
       clipPathUnits="userSpaceOnUse"
       id="clipPath16"><path
         d="m 0,532.473 612,0 L 612,0 0,0 0,532.473 z"
         id="path18"
         inkscape:connector-curvature="0" /></clipPath></defs><sodipodi:namedview
     pagecolor="#ffffff"
     bordercolor="#666666"
     borderopacity="1"
     objecttolerance="10"
     gridtolerance="10"
     guidetolerance="10"
     inkscape:pageopacity="0"
     inkscape:pageshadow="2"
     inkscape:window-width="1366"
     inkscape:window-height="702"
     id="namedview4"
     showgrid="false"
     fit-margin-top="0"
     fit-margin-left="0"
     fit-margin-right="0"
     fit-margin-bottom="0"
     inkscape:zoom="0.35457197"
     inkscape:cx="290.13425"
     inkscape:cy="281.51225"
     inkscape:window-x="0"
     inkscape:window-y="27"
     inkscape:window-maximized="1"
     inkscape:current-layer="g10" /><g
     id="g10"
     inkscape:groupmode="layer"
     inkscape:label="logo_je"
     transform="matrix(1.25,0,0,-1.25,-92.365749,446.45461)"><path
       inkscape:connector-curvature="0"
       id="path22"
       style="fill:#231f20;fill-opacity:1;fill-rule:nonzero;stroke:none"
       d="m 335.61983,127.87233 c 0,10.77123 -8.73196,19.50389 -19.50389,19.50389 -10.77123,0 -19.50319,-8.73266 -19.50319,-19.50389 0,-10.77123 8.73196,-19.50389 19.50319,-19.50389 10.77193,0 19.50389,8.73266 19.50389,19.50389" /><path
       inkscape:connector-curvature="0"
       id="path26"
       style="fill:#f47216;fill-opacity:1;fill-rule:nonzero;stroke:none"
       d="m 189.20611,66.955983 c 0,10.771232 -8.73196,19.503888 -19.50389,19.503888 -10.77123,0 -19.50319,-8.732656 -19.50319,-19.503888 0,-10.771232 8.73196,-19.503888 19.50319,-19.503888 10.77193,0 19.50389,8.732656 19.50389,19.503888" /><path
       inkscape:connector-curvature="0"
       id="path30"
       style="fill:#231f20;fill-opacity:1;fill-rule:nonzero;stroke:none"
       d="m 125.59458,196.83444 c 36.93703,0 43.89616,13.92036 43.89616,54.8702 l 0,105.45905 42.02123,0 0,-114.28961 c 0,-25.96299 -4.81775,-44.43186 -17.13033,-57.81512 -16.05824,-17.66743 -34.79565,-20.07525 -63.43431,-20.07525 l -52.995975,0 0,31.85073 47.643225,0 z" /><path
       inkscape:connector-curvature="0"
       id="path34"
       style="fill:#231f20;fill-opacity:1;fill-rule:nonzero;stroke:none"
       d="m 281.9127,279.00687 111.88108,0 0,-33.45852 -112.14963,0 c 0.26855,-34.5257 13.91826,-47.10613 45.7697,-47.10613 l 66.37993,0 0,-33.45851 -68.25137,0 c -23.28801,0 -41.22048,1.87563 -59.9579,16.86108 -19.8053,15.79529 -29.4429,40.95334 -29.4429,75.75039 0,67.98423 28.64146,99.56851 90.47079,99.56851 l 67.18138,0 0,-33.45782 -66.37993,0 c -29.17436,0 -43.89547,-14.45465 -45.50115,-44.699" /><path
       inkscape:connector-curvature="0"
       id="path38"
       style="fill:#f47216;fill-opacity:1;fill-rule:nonzero;stroke:none"
       d="m 78.990787,148.07262 c 3.910009,3.97994 10.26491,5.72619 19.552143,5.72619 l 16.06104,0 0,-8.72846 -16.968783,0 c -9.007497,0 -13.058074,-3.56243 -13.197242,-12.22026 l 30.166025,0 0,-8.65853 -30.166025,0 0,-20.53052 -10.545345,0 0,23.04395 c 0,9.98587 0.558772,16.75898 5.098187,21.36763" /><path
       inkscape:connector-curvature="0"
       id="path42"
       style="fill:#f47216;fill-opacity:1;fill-rule:nonzero;stroke:none"
       d="m 130.89495,124.53955 14.94349,0 -7.61161,19.27381 -7.33188,-19.27381 z m 13.33781,29.25968 21.36833,-50.13777 -11.73213,0 -4.60865,11.94053 -21.78723,0 -4.46948,-11.94053 -11.17265,0 21.22916,50.13777 11.17265,0 z" /><path
       inkscape:connector-curvature="0"
       id="path46"
       style="fill:#f47216;fill-opacity:1;fill-rule:nonzero;stroke:none"
       d="m 185.4352,144.86069 c -5.51639,0 -8.10045,-1.95465 -8.10045,-6.5647 0,-3.62958 2.23509,-5.44576 6.63393,-5.44576 l 13.96652,0 c 11.17265,0 15.9918,-3.70091 15.9918,-14.17632 0,-10.54325 -5.65766,-15.01273 -17.52825,-15.01273 l -28.0722,0 0,8.93826 26.39588,0 c 5.58703,0 8.17039,1.32595 8.17039,5.65627 0,4.46948 -2.37426,5.79612 -7.47105,5.79612 l -12.43006,0 c -11.45239,0 -16.68975,4.33032 -16.68975,14.38403 0,10.89431 5.65626,15.36309 17.59749,15.36309 l 27.58266,0 0,-8.93826 -26.04691,0 z" /><path
       inkscape:connector-curvature="0"
       id="path50"
       style="fill:#f47216;fill-opacity:1;fill-rule:nonzero;stroke:none"
       d="m 232.3651,133.47796 19.34234,0 0,20.32142 10.54465,0 0,-50.13847 -10.54465,0 0,20.94872 -19.34234,0 0,-20.94872 -10.54395,0 0,50.13847 10.54395,0 0,-20.32142 z" /><path
       d="m 272.65924,153.79895 11.03419,0 0,-50.13777 -11.03419,0 0,50.13777 z"
       style="fill:#f47216;fill-opacity:1;fill-rule:nonzero;stroke:none"
       id="path52"
       inkscape:connector-curvature="0" /><path
       inkscape:connector-curvature="0"
       id="path56"
       style="fill:#f47216;fill-opacity:1;fill-rule:nonzero;stroke:none"
       d="m 302.40937,129.14946 c 0,-12.22236 4.05058,-17.87652 13.47698,-17.87652 9.28723,0 13.54761,5.65416 13.54761,17.45762 0,11.80135 -4.26038,17.45692 -13.54761,17.45692 -9.07743,0 -13.47698,-5.65557 -13.47698,-17.03802 m 13.47698,25.62801 c 17.04011,0 25.0007,-8.31096 25.0007,-26.04691 0,-17.73666 -7.96059,-26.11615 -25.0007,-26.11615 -17.24782,0 -24.9986,8.37949 -24.9986,26.60428 0,17.24782 8.17038,25.55878 24.9986,25.55878" /><path
       inkscape:connector-curvature="0"
       id="path60"
       style="fill:#f47216;fill-opacity:1;fill-rule:nonzero;stroke:none"
       d="m 361.41959,153.79909 20.52912,-36.03209 -0.48884,36.03209 10.75515,0 0,-50.13777 -12.22096,0 -21.57883,37.91751 0.48883,-37.91751 -10.82158,0 0,50.13777 13.33711,0 z" /><path
       inkscape:connector-curvature="0"
       id="path64"
       style="fill:#231f20;fill-opacity:1;fill-rule:nonzero;stroke:none"
       d="m 97.120332,92.212151 12.778338,-38.476978 12.77974,38.476978 15.43303,0 0,-50.138469 -10.33555,0 0.83851,39.034351 -12.84897,-39.034351 -11.17265,0 -13.267877,39.454655 1.046912,-39.454655 -10.753049,0 0,50.138469 15.501566,0 z" /><path
       inkscape:connector-curvature="0"
       id="path68"
       style="fill:#231f20;fill-opacity:1;fill-rule:nonzero;stroke:none"
       d="m 156.76059,67.561751 c 0,-12.220963 4.04988,-17.876524 13.47698,-17.876524 9.28723,0 13.54691,5.655561 13.54691,17.45692 0,11.802758 -4.25968,17.45762 -13.54691,17.45762 -9.07743,0 -13.47698,-5.654862 -13.47698,-17.038016 m 13.47698,25.628007 c 17.03871,0 24.9986,-8.310255 24.9986,-26.047611 0,-17.735258 -7.95989,-26.115447 -24.9986,-26.115447 -17.24852,0 -24.9993,8.380189 -24.9993,26.604985 0,17.247818 8.17108,25.558073 24.9993,25.558073" /><path
       inkscape:connector-curvature="0"
       id="path72"
       style="fill:#231f20;fill-opacity:1;fill-rule:nonzero;stroke:none"
       d="m 212.97723,83.483341 0,-32.680849 12.22026,0 c 9.35717,0 12.2902,3.979943 12.2902,16.340075 0,12.288799 -2.93303,16.340774 -12.2902,16.340774 l -12.22026,0 z m 12.43007,8.72846 c 16.13097,0 23.60202,-8.239621 23.60202,-25.976977 0,-9.077431 -2.51273,-15.642134 -7.68155,-19.761246 -4.88769,-3.911407 -9.56627,-4.400246 -15.64144,-4.400246 l -23.25375,0 0,50.138469 22.97472,0 z" /><path
       inkscape:connector-curvature="0"
       id="path76"
       style="fill:#231f20;fill-opacity:1;fill-rule:nonzero;stroke:none"
       d="m 265.07462,71.82129 29.18905,0 0,-8.72846 -29.25898,0 c 0.0699,-9.008896 3.63237,-12.290898 11.94122,-12.290898 l 17.31776,0 0,-8.72846 -17.80729,0 c -6.07447,0 -10.75375,0.488839 -15.64144,4.400246 -5.16672,4.119112 -7.68155,10.683815 -7.68155,19.761246 0,17.737355 7.47105,25.976977 23.60272,25.976977 l 17.52756,0 0,-8.72846 -17.31776,0 c -7.61091,0 -11.45169,-3.77084 -11.87129,-11.662191" /><path
       inkscape:connector-curvature="0"
       id="path80"
       style="fill:#231f20;fill-opacity:1;fill-rule:nonzero;stroke:none"
       d="m 306.83696,47.310268 c -3.84147,4.050576 -4.54011,8.449424 -4.54011,15.083361 l 0,29.818451 10.54394,0 0,-27.514126 0,-1.954655 c 0,-4.119811 0.0706,-7.122077 1.74695,-9.077431 2.23509,-2.653295 5.23736,-3.282701 9.70684,-3.282701 l 12.42867,0 0,-8.309556 -13.33711,0 c -7.26195,0 -12.0797,0.488839 -16.54918,5.236657" /><path
       inkscape:connector-curvature="0"
       id="path84"
       style="fill:#231f20;fill-opacity:1;fill-rule:nonzero;stroke:none"
       d="m 358.65293,83.273679 c -5.51779,0 -8.10115,-1.955354 -8.10115,-6.565402 0,-3.629574 2.23509,-5.44506 6.63533,-5.44506 l 13.96512,0 c 11.17335,0 15.99041,-3.701606 15.99041,-14.177017 0,-10.543946 -5.65487,-15.012728 -17.52616,-15.012728 l -28.0715,0 0,8.938962 26.39518,0 c 5.58703,0 8.17039,1.325948 8.17039,5.65626 0,4.469481 -2.37496,5.795429 -7.47175,5.795429 l -12.42936,0 c -11.45239,0 -16.68905,4.330312 -16.68905,14.384721 0,10.894316 5.65486,15.363097 17.59539,15.363097 l 27.58406,0 0,-8.938262 -26.04691,0 z" /><path
       d="m 230.71214,279.84586 163.18046,0 0,-34.7418 -163.18046,0 0,34.7418 z"
       style="fill:#f47216;fill-opacity:1;fill-rule:nonzero;stroke:none"
       id="path86"
       inkscape:connector-curvature="0" /></g></svg>