<svg xmlns="http://www.w3.org/2000/svg" width="400" height="191.281"><path d="M24.752 134.842H0V.405h24.752v134.437zM94.865 135.665L59.728 74.673 87.84 40.63l-27.13.738s-25.05 30.37-28.42 42.12c-1.365 4.76 1.44 19.755 1.44 19.755L46.718 88.97l24.3 46.5 23.848.195zM231.404 135.665l-35.137-60.992 28.55-33.32-27.124.74S172.2 71.737 168.83 83.488c-1.364 4.758 1.442 19.753 1.442 19.753l11.044-14.272 24.298 46.5 25.79.195zM343.298 40.06c-25.107 0-45.46 21.692-45.46 48.446 0 26.758 20.353 48.45 45.46 48.45 25.108 0 45.462-21.692 45.462-48.45 0-26.754-20.354-48.447-45.462-48.447m0 82.582c-13.044 0-23.613-15.283-23.613-34.133s10.57-34.135 23.613-34.135c13.045 0 23.617 15.284 23.617 34.134s-10.572 34.132-23.617 34.132" fill="#2e2528"/><path d="M299.502 117.272l-.134.003V75.5s2.778-52.5-67.735-27.975l5.56 15.137s35.445-14.56 39.47 12.838v31.823l-5.425 4.254c-17.915 14.853-25.1.1-25.005-4.884.095-4.978 3.737-10.253 9.486-11.113 5.747-.865 9.77-4.31 9.77-4.31 6.515-9.1 3.706-12.738 3.706-12.738-4.77 1.666-10.337 1.912-16.697 3.02-9.542 1.663-16.973 5.285-22.26 10.832-4.776 5-7.16 9.673-7.16 17.445 0 6.67 2.384 12.5 7.16 17.5 5.287 5.56 12.98 8.336 23.055 8.336 11.097 0 17.497-5.04 24.557-12.232 1.132 3.814 3.19 10.46 6.666 11.875h17.818s-2.834-13.632-2.834-18.038M161.966 120.83V0h-22.788v42.258c-10.006-2.923-24.494-2.442-45.466 4.85l5.56 15.136s35.445-14.56 39.47 12.838v31.823l-5.425 4.254c-17.915 14.852-25.1.098-25.005-4.883.095-4.98 3.737-10.253 9.486-11.114 5.747-.864 9.77-4.31 9.77-4.31 6.516-9.1 3.707-12.737 3.707-12.737-4.77 1.664-10.337 1.91-16.697 3.017-9.54 1.666-16.972 5.287-22.26 10.833-4.775 5-7.16 9.673-7.16 17.446 0 6.67 2.385 12.502 7.16 17.503 5.288 5.558 12.98 8.333 23.056 8.333 11.097 0 17.497-5.04 24.557-12.232 1.133 3.815 3.192 10.46 6.667 11.876h17.82s-1.678-8.866-2.45-14.063" fill="#2e2528"/><path d="M213.107 157.53c0-4.846-5.477-8.775-12.238-8.775-3.676 0-6.963 1.165-9.206 3.006-2.245-1.84-5.53-3.005-9.204-3.005-6.762 0-12.24 3.93-12.24 8.774 0 .168.022.336.035.502h-.035v18.46h7.344V158.692c0-2.436 2.192-4.413 4.896-4.413 2.702 0 4.894 1.977 4.894 4.414v17.803h8.622V158.69c0-2.436 2.19-4.413 4.893-4.413s4.895 1.977 4.895 4.414v17.803h7.342v-18.46h-.035c.014-.167.035-.335.035-.504M229.25 164.085H241.216c.075-.618.128-1.242.128-1.88 0-7.893-5.91-14.29-13.196-14.29-7.287 0-13.198 6.397-13.198 14.29 0 7.89 5.91 14.287 13.197 14.287 5.432 0 10.096-3.56 12.12-8.64h-6.693c-1.235 1.533-2.956 2.488-4.86 2.488-3.187 0-5.843-2.665-6.585-6.255h7.117zm-5.782-5.11c0-2.84 2.428-5.144 5.425-5.144 2.998 0 5.427 2.304 5.427 5.146 0 .16-.034.314-.048.472h-10.756c-.015-.158-.048-.31-.048-.472M123.104 152.12h.102c1.828-2.724 4.724-4.206 8.382-4.206 6.197 0 10.77 5.45 10.77 13.623 0 9.8-5.895 14.103-11.635 14.103-3.098 0-5.485-1.338-6.704-3.107h-.103v13.242h-7.52v-28.587c0-3.44-.1-6.262-.2-8.7h6.55l.357 3.632zm.813 12.238c0 3.872 2.49 5.737 5.03 5.737 3.81 0 5.79-3.538 5.79-8.318 0-4.733-1.93-8.175-5.64-8.175-2.894 0-5.18 2.582-5.18 5.784v4.972zM160.95 148.755h7.822l-6.4 18.5c-3.15 8.605-5.537 13.29-8.738 16.3-2.744 2.487-5.64 3.443-7.314 3.73l-1.88-5.975c1.22-.336 2.64-1.1 3.962-1.96 2.488-1.673 3.76-4.4 3.76-4.924 0-.287-.104-.67-.306-1.196l-9.5-24.475h8.23l4.165 13.91c.46 1.626.966 3.49 1.322 4.972h.153c.305-1.434.76-3.3 1.168-4.972l3.556-13.91z" fill="#92969a"/><path d="M238.8 187.64c-20.85-5.3-43.404-8.89-64.74-4.234-6.067 1.324-13.958 3.404-18.742 7.875 1.07-.15 2.112-.32 3.105-.535 4.936-2.455 12.397-4.58 16.036-5.405 19.168-4.345 40.16-.283 58.814 4.46 1.452.368 3.253-.06 4.61-.59.487-.19 2.37-1.2.917-1.57M281.548 160.056c-.77.027-2.622 3.227-5.56 9.595-2.416 5.245-4.888 9.92-7.413 14.025-2.526 4.102-4.38 6.156-5.56 6.156-3.405 0-6.555-5.06-9.45-15.176-2.898-10.115-4.344-18.263-4.344-24.44 0-2.004.5-3.666 1.503-4.983 1.002-1.318 2.19-2.03 3.563-2.14.19-.028.535-.022 1.03.02.494.04 1.096.493 1.81 1.358.714.865 1.07 1.71 1.07 2.533v.166c0 .328-.15 1.704-.452 4.12-.247 1.784-.37 3.966-.37 6.546 0 4.092.782 8.607 2.346 13.548 1.566 4.943 2.883 7.415 3.954 7.415.768 0 3.31-4.174 7.618-12.52 2.72-5.3 4.667-8.95 5.85-10.955l1.316-2.472c1.896-3.624 3.692-6.12 5.396-7.493 2.36.3 3.542 1.482 3.542 3.54 0 .688-.055 1.264-.165 1.73-.11.467-.165 1.043-.165 1.73 0 5.08 1.32 10.4 3.954 15.957 2.634 5.56 4.516 8.34 5.642 8.34.822 0 2.127-2.91 3.913-8.73 2.415-7.907 4.646-13.837 6.69-17.79 2.046-3.955 3.55-6.3 4.51-7.042.96-.743 2.045-1.113 3.254-1.113.684 0 1.268.296 1.75.885.477.59.72 1.23.72 1.915 0 1.017-.152 1.717-.454 2.1-3.404 4.475-6.67 11.464-9.8 20.962-2.664 8.153-4.49 13.274-5.478 15.36-.988 2.088-1.812 3.13-2.47 3.13-3.323 0-6.042-1.214-8.155-3.644-2.115-2.43-4.915-8.89-8.402-19.377-.41-1.236-.808-2.32-1.192-3.254M354.384 173.357c0 2.802-2.478 6.178-7.432 10.132-4.957 3.95-10.07 5.93-15.34 5.93-4.42 0-7.833-1.306-10.235-3.913-2.403-2.61-3.603-6.246-3.603-10.914 0-7.85 2.648-15.32 7.948-22.402 5.298-7.082 11.09-10.625 17.378-10.625 2.06 0 3.74.673 5.045 2.02 1.304 1.343 1.957 2.964 1.957 4.858 0 4.228-2.074 8.277-6.218 12.15-4.147 3.87-9.693 7.673-16.638 11.405-1.428.74-2.142 1.704-2.142 2.883 0 2.28.66 4.105 1.977 5.48 1.318 1.372 3.268 2.057 5.848 2.057 5.902 0 11.93-3.265 18.08-9.8.906-.906 1.59-1.36 2.06-1.36.877 0 1.316.702 1.316 2.1m-28.62-6.424c11.64-6.917 17.46-12.478 17.46-16.678 0-1.648-.742-2.47-2.224-2.47-2.526 0-5.374 1.85-8.546 5.56-3.17 3.704-5.4 8.234-6.69 13.588M366.395 163.885c3.515-6.396 7.715-11.578 12.602-15.545 4.886-3.967 9.293-5.952 13.22-5.952 2.168 0 4.007 1.004 5.518 3.007 1.51 2.004 2.265 4.447 2.265 7.33 0 8.54-3.22 16.55-9.658 24.03-6.437 7.48-13.24 11.223-20.404 11.223-1.95 0-3.743-.53-5.375-1.586-1.633-1.056-2.548-2.382-2.74-3.975-.108-1.29-.478-2.25-1.11-2.88-1.18-1.183-1.772-2.446-1.772-3.79 0-2.5.687-7.84 2.06-16.02l4.243-24.628c1.454-8.264 2.517-13.37 3.19-15.32.673-1.95 1.42-3.254 2.245-3.912.823-.66 1.84-.99 3.047-.99 1.922 0 2.883 1.663 2.883 4.985 0 3.156-1.055 7.576-3.17 13.26-2.032 5.463-4.378 15.72-7.043 30.762m-.99 13.714c1.43 2.663 3.16 3.995 5.192 3.995 3.128 0 6.437-1.298 9.924-3.893 3.487-2.594 6.502-6.246 9.04-10.954 2.54-4.708 3.81-8.683 3.81-11.922 0-1.456-.26-2.704-.782-3.747-.522-1.045-1.18-1.566-1.977-1.566-3.816 0-8.476 3.122-13.98 9.367-5.505 6.248-9.246 12.487-11.224 18.72" fill="#f2a53c"/></svg>