<svg xmlns="http://www.w3.org/2000/svg" width="400" height="284.323"><path d="M274.588 254.174c-.942-2.198-2.303-4.082-3.874-5.757-3.454-3.56-8.165-5.758-13.504-5.758-5.234 0-10.05 2.197-13.504 5.757-3.455 3.56-5.548 8.374-5.548 13.713 0 5.34 2.198 10.155 5.548 13.714 3.454 3.56 8.165 5.758 13.504 5.758 5.234 0 10.05-2.2 13.504-5.758 1.57-1.675 2.932-3.455 3.874-5.653h.942c-.942 2.41-2.408 4.503-4.187 6.387-3.664 3.768-8.585 5.967-14.133 5.967-5.548 0-10.468-2.303-14.132-5.967-3.56-3.664-5.863-8.794-5.863-14.447 0-5.548 2.303-10.677 5.863-14.34 3.664-3.77 8.584-5.968 14.132-5.968s10.47 2.303 14.133 5.967c1.78 1.778 3.245 3.977 4.187 6.384h-.942z"/><path d="M257.315 283.8c-5.653 0-10.992-2.303-15.075-6.386-3.978-4.082-6.176-9.526-6.176-15.284 0-5.653 2.198-11.096 6.176-15.284 3.978-4.082 9.317-6.385 15.075-6.385 5.653 0 10.992 2.304 15.074 6.386 1.884 1.99 3.454 4.292 4.5 6.805l.734 1.78h-3.77l-.313-.837c-.837-1.884-2.093-3.77-3.558-5.34-3.35-3.453-7.747-5.338-12.562-5.338-4.816 0-9.213 1.885-12.563 5.34-3.35 3.454-5.234 8.06-5.234 12.77 0 4.816 1.884 9.318 5.234 12.772 3.35 3.455 7.852 5.34 12.563 5.34 4.71 0 9.212-1.885 12.562-5.34 1.57-1.675 2.826-3.454 3.56-5.234l.313-.838h3.77l-.734 1.78c-1.046 2.513-2.512 4.816-4.5 6.805-3.98 4.292-9.317 6.49-15.075 6.49zM289.244 247.265c3.768-3.873 9.003-6.176 14.656-6.176 5.757 0 10.99 2.302 14.76 6.175 3.77 3.77 6.072 9.003 6.072 14.76 0 5.758-2.408 10.993-6.072 14.76-3.77 3.875-9.003 6.178-14.76 6.178-5.758 0-10.992-2.303-14.656-6.177-3.77-3.768-6.072-9.003-6.072-14.76-.105-5.758 2.303-10.992 6.072-14.76zm28.788.733c-3.664-3.664-8.584-5.967-14.132-5.967-5.444 0-10.47 2.304-14.028 5.968-3.56 3.664-5.863 8.584-5.863 14.132 0 5.55 2.302 10.47 5.862 14.133 3.664 3.664 8.584 5.967 14.028 5.967 5.443 0 10.468-2.303 14.132-5.967 3.56-3.56 5.758-8.584 5.758-14.133 0-5.548-2.2-10.573-5.758-14.132z"/><path d="M303.9 284.323c-5.863 0-11.62-2.407-15.598-6.595-4.188-4.292-6.49-9.84-6.49-15.702 0-5.863 2.302-11.516 6.49-15.703 4.082-4.187 9.735-6.595 15.598-6.595 5.967 0 11.515 2.303 15.702 6.595 4.188 4.292 6.49 9.84 6.49 15.703 0 5.862-2.302 11.515-6.49 15.702-4.187 4.292-9.735 6.595-15.702 6.595zm0-41.036c-4.92 0-9.63 1.99-13.086 5.548-3.56 3.56-5.444 8.27-5.444 13.19s1.885 9.632 5.444 13.19c3.56 3.56 8.165 5.55 13.086 5.55 4.92 0 9.63-1.99 13.19-5.55 3.454-3.558 5.443-8.164 5.443-13.19 0-4.92-1.884-9.63-5.443-13.19-3.56-3.56-8.27-5.548-13.19-5.548zM347.134 241.717c26.695 0 26.695 40.722 0 40.722H333.42v-40.723h13.714zm0 39.885c25.543 0 25.543-38.943 0-38.943h-12.876V281.6h12.876z"/><path d="M347.134 283.8H332.06v-43.34h15.074c6.595 0 12.144 2.304 16.017 6.805 3.456 3.978 5.34 9.212 5.34 14.865 0 5.653-1.884 10.888-5.34 14.866-3.872 4.396-9.42 6.804-16.016 6.804zm-11.62-3.56h11.516c5.548 0 10.154-1.988 13.4-5.652 2.93-3.245 4.5-7.747 4.5-12.562 0-8.794-5.548-18.215-17.9-18.215h-11.516v36.43zM376.97 281.602h21.67v.837h-22.613v-40.723h22.507v.837H376.97v18.948h21.04v.942h-21.04v19.158z"/><path d="M378.33 263.805v16.436H400v3.56h-25.23v-43.34h25.02v3.455h-21.46v16.33h21.042v3.56zM5.862 241.717v40.722H0v-40.723h5.862zm1.152 18.843l14.237-18.843h7.434L13.086 261.92l17.168 20.52h-7.642L7.014 263.595v-3.036zM41.56 261.816h6.91c4.92 0 7.432-3.56 7.432-7.118 0-3.455-2.408-7.014-7.433-7.014h-9.004v34.86h-5.862v-40.827H48.47c8.897 0 13.294 6.49 13.294 12.98 0 5.758-3.56 11.202-10.573 12.458l12.877 15.284h-7.642L41.56 264.537v-2.722zM72.128 247.37c3.768-3.77 9.003-6.177 14.656-6.177 5.757 0 10.99 2.408 14.76 6.177 3.664 3.768 6.072 9.003 6.072 14.76 0 5.758-2.408 10.992-6.072 14.76-3.77 3.874-9.003 6.177-14.76 6.177-5.758 0-10.992-2.303-14.656-6.176-3.664-3.768-6.072-9.002-6.072-14.76 0-5.862 2.408-10.992 6.072-14.76zm25.23 4.187c-2.723-2.722-6.492-4.397-10.574-4.397-3.978 0-7.747 1.675-10.47 4.397-2.72 2.722-4.396 6.386-4.396 10.573 0 4.188 1.675 7.852 4.397 10.573 2.722 2.722 6.386 4.397 10.47 4.397 3.977 0 7.85-1.675 10.572-4.397 2.617-2.72 4.292-6.385 4.292-10.573 0-4.292-1.676-7.956-4.293-10.573zM114.21 282.44V241.61l4.502.105 19.89 28.683v-28.683h5.863v40.827h-4.71l-19.682-28.474v28.474h-5.862zM156.4 247.37c3.767-3.77 9.002-6.177 14.655-6.177 5.757 0 10.992 2.408 14.76 6.177 3.664 3.768 6.072 9.003 6.072 14.76 0 5.758-2.408 10.992-6.072 14.76-3.768 3.874-9.003 6.177-14.76 6.177-5.758 0-10.992-2.303-14.656-6.176-3.665-3.768-6.073-9.002-6.073-14.76 0-5.862 2.408-10.992 6.072-14.76zm25.228 4.187c-2.722-2.722-6.49-4.397-10.573-4.397-3.978 0-7.747 1.675-10.47 4.397-2.72 2.722-4.396 6.386-4.396 10.573 0 4.188 1.674 7.852 4.396 10.573 2.722 2.722 6.386 4.397 10.47 4.397 3.977 0 7.85-1.675 10.572-4.397 2.617-2.72 4.292-6.385 4.292-10.573 0-4.292-1.675-7.956-4.292-10.573zM220.78 252.185c-.838-3.664-4.816-5.234-8.375-5.234-2.722.106-5.758.943-7.432 3.037-.838 1.047-1.152 2.408-.943 3.77.314 4.186 4.92 4.71 9.213 5.128 5.548.733 12.562 2.2 14.132 8.69.21.836.314 1.883.314 2.72 0 7.852-7.852 12.458-15.18 12.458-6.28 0-13.923-3.768-14.656-10.992l-.105-1.15 5.966-.105.105.838v-.21c.42 3.77 5.026 5.758 8.795 5.758 4.396 0 9.107-2.407 9.107-6.594 0-.42-.105-.838-.21-1.36-.732-3.142-4.92-3.665-9.002-3.98-6.386-.627-13.82-1.988-14.447-10.572v.104c-.21-2.72.42-5.443 2.2-7.746 2.72-3.56 7.64-5.444 12.352-5.444 6.28 0 12.77 3.245 13.818 10.678l-5.653.21zM188.328 102.8l61.136-55.692h-31.092L157.236 102.8l61.136 58.414h31.092z"/><path d="M267.68 178.592c-8.795 6.176-19.473 9.84-31.093 9.84H169.59c-29.73 0-53.913-24.077-53.913-53.808V67.626c0-29.73 24.182-54.017 53.912-54.017h66.997c13.4 0 25.648 4.92 35.174 13.085l10.156-9.213C269.982 6.595 254.07 0 236.692 0h-66.998c-37.268 0-67.522 30.36-67.522 67.626v66.998c0 37.268 30.254 67.417 67.522 67.417h66.998c15.39 0 29.626-5.233 41.036-13.922l-10.05-9.526z"/></svg>