<svg xmlns="http://www.w3.org/2000/svg" width="400" height="121.884"><path d="M18.962 72.96c.315-5.56-1.92-14.804-7.637-20.802-7.532-7.867-8.745-12.43-8.745-12.43S-2.07 49.945 1.115 63.14C4.287 76.348 13.833 79.366 14.748 79.7c.614.215 1.56.61 2.294 1.324.512.507.998 1.183 1.483 1.95-.587-4.427.463-8.013.437-10.014m-2.884 3.587c-.462-1.623-3.822-8.7-5.742-14.853-1.955-6.15-6.842-16.02-6.842-16.02s5.144 8.322 7.84 15.117c2.686 6.783 5.7 18.118 5.7 18.118s-.486-.747-.956-2.36M45.664 47.447l-.255-.994S44 59.567 35.564 69.505c-9.137 10.742-18.883 20.248-18.883 20.248S27.775 76.085 31.58 71.795C43.764 58.12 45.41 46.453 45.41 46.453l-.317.7c-.323 1.26-1.05 2.27-1.603 2.877-1.8 2.326-13.455 9.69-17.576 15.66-2.644 3.823-4.6 9.243-5.747 13.018-1.045 6.156-3.73 11.435-3.73 11.435.843-1.763 10.588-6.79 10.588-6.79 25.807-15.346 18.64-35.906 18.64-35.906" fill="#60b632" fill-rule="evenodd"/><path d="M58.72 121.884V0h1.884v121.884H58.72zM90.634 88.57c-5.528.086-8.513-.403-8.975-5.2-.085-.566-.36-5.673-.36-15.164v-33.47c-.025-4.412.905-7.185 3.924-8.218v-.043H72.07v.067c2.867 1.18 4.026 3.747 3.994 8.195v33.47c-.034 13.93.067 20.22-4.676 21.833h39.296l3.224-13.402c-5.41 9.673-12.94 11.967-23.274 11.932M129.905 91.27c6.33-.013 10.905-3.357 13.617-9.842l.58-1.403.24 1.49c.228 1.46.707 3.517 1.245 5.27.452 1.493.948 2.826 1.16 3.374h6.51c-3.85-1.89-4.192-8.14-4.232-20.535v-6.68c0-7.323-.232-12.23-3.083-16.082-2.572-3.498-6.96-5.565-12.89-5.574-5.706 0-10.792 1.494-15.288 4.582l1.826 7.957c1.407-7.385 6-11.612 12.977-11.584 8.12 0 11.167 6.242 11.32 18.467l.008.41h-2.181c-17.676.05-25.654 5.44-25.673 15.353.036 9.032 5.206 14.77 13.865 14.794m-3.336-25.135c3.327-2.582 8.207-3.958 14.546-3.97v.012c.974-.01 1.34 0 2.39.09l.382.027v8.433c0 11.71-4.16 17.962-12.047 17.978-6.123-.007-10.28-4.214-10.288-11.576 0-4.632 1.696-8.42 5.017-10.995M328.82 72.115l-.046.393v-.403h-1.002c-.86.05-1.173.744-1.233.95-2.527 8.98-7.013 13.926-13.957 13.93-6.353-.032-13.196-4.906-13.24-21.67 0-1.762.044-1.544.16-3.244h29.102c.476-.058 1.016-.53.99-1.366 0-.13-.017-.256-.027-.38-.545-4.462-3.317-19.13-17.01-19.806-.18-.01-.41-.05-.658-.05-.41 0-.817.016-1.235.05-8.276.368-13.113 5.503-15.82 10.58-.817 1.49-1.52 3.122-2.055 4.86-.068.193-.128.4-.186.607-1.02 3.567-1.24 7.2-1.248 9.576.12 14.46 8.576 24.92 20.333 24.92h.006c8.813 0 15.34-6.692 17.958-17.698.017-.11.017-.17.017-.236.035-.696-.568-1.01-.85-1.01M321.387 58.3h-21.354c1.195-7.243 5.7-14.77 11.057-14.702 6.256-.035 9.83 6.646 10.298 14.702M399.682 89.048l-.076.103.014-.162s-.055 0-.296-.265c-.718-.76-2.424-3.686-2.578-13.23V56.036c.01-5.786-2.07-9.703-5.16-12.106-3.093-2.412-7.126-3.336-11.032-3.336-1.042 0-2.022.017-2.986.07-3.9.263-6.238 1.13-6.973 1.447-1.558.752-3.767 2.016-5.33 3.874-.34.532-.453.965-.453 1.325 0 .213.034.402.104.565l2.32 3.974.093.05c.087.053.223.113.402.113.323 0 .623-.23.793-.583l.015-.025c1.247-2.642 4.267-7.364 10.55-7.364 8.536-.025 9.535 8.81 9.535 8.81h.014c.232 1.437.342 2.985.342 4.62v2.573h-3.438c-7.063.012-23.095 1.326-23.163 15.45.018 10.946 7.474 15.416 14.657 15.444h.062c5.622 0 9.535-2.93 12.275-9.15.017.214.044.437.076.65.745 6.355 3.072 7.655 4.063 7.902v.05h5.205c.45-.033 1.14.01 1.28-.78.02-.264-.188-.492-.316-.562m-10.7-22.445c-.127 3.758-.595 9.2-2.182 13.395-.076.19-.147.396-.23.566v.008c-1.206 2.736-2.722 4.15-3.865 4.892-.75.43-1.623.79-2.63 1.027-.538.112-1.05.163-1.535.163-.35 0-.683-.027-1.007-.067l-.282-.044v.007l-.05-.016c-.427-.095-.82-.24-1.21-.43-2.047-.905-5.417-3.308-5.436-10.02l.008-.198c.077-8.665 7.05-11.387 8.677-11.906l.008.018.367-.104c2.73-.822 5.802-.984 7.736-.984.72 0 1.29.017 1.632.034v3.66zM270.02 41.536c-.206-.087-.513-.206-1.006-.23H257.51c-.73.043-1.176.186-1.498.417-.22.266-.32.516-.32.72 0 .222.09.41.173.54.12.125.233.238.367.34.255.17.54.3.81.41 1.614.436 2.4.977 2.765 1.367.197.156.274.27.288.31.14.29.268.81.268 1.6 0 .89-.173 2.104-.667 3.705 0 .015-.025.032-.05.163-.156.487-.308.956-.42 1.273l-9.956 25.72-9.913-25.43c-.436-1.23-1.09-2.907-1.45-4.395-.16-.693-.232-1.25-.232-1.72.035-1.685.762-2.114 1.51-2.337l.32-.073v-.042c.246-.112.612-.31.91-.576l.18-.17.073-.093c.19-.26.294-.514.294-.77 0-.385-.238-.62-.367-.713-.258-.14-.487-.2-.788-.245h-14.012c-.534.025-.866.144-.948.187-.343.23-.7.513-.777 1.028v.145c.008.317.158.616.442.865l-.02-.01c.32.274.738.436.872.495.88.215 2.125.778 3.344 2.577 1.735 2.99 3.337 7.313 5.13 12.11l12.053 31.373c.445.834.352 1.48 1.206 1.627.518-.088.552-.36.775-.623.172-.286.343-.613.452-.92l13.415-34.298c1.373-3.26 2.772-6.27 4.12-8.612 1.4-2.173 2.696-2.935 3.495-3.208l.02-.01.255-.094v-.023c.177-.078.408-.205.6-.36.314-.274.482-.598.482-.925-.025-.58-.433-.898-.69-1.094M206.5 88.76l-.007.007c-3.12-1.747-5.597-8.5-6.748-12.624-.293-1.087-.564-2.164-.82-3.216l-.024-.11c-.102-.377-.19-.764-.275-1.13-2.01-8.716-7.055-12.686-12.738-14.57.77-.093 1.64-.244 2.554-.477 3.403-1.095 11.26-4.645 11.866-13.828.017-.445.044-.883.044-1.312.008-8.645-5.736-12.82-10.408-14.41-2.1-.534-4.495-.812-7.287-.812h-25.413c-.548.01-.916.05-1.222.196-.333.148-.504.53-.486.815.1 1.024 1.04 1.065 1.656 1.44 2.352 1.103 2.575 6.04 2.533 9.008v41.45c-.01 4.84-.607 7.49-3.075 9.347-.56.453-1.036.342-1.25 1.122-.036.24.247.558.443.565.198.06.333.033.52.033h14.99c.597-.018 1.05 0 1.17-.598-.128-.67-.495-.626-1.137-1.122-2.293-1.466-3.206-4.525-3.206-9.348V58.64l.23-.024-.077-.19 6.596.008.008-.007c.385.007 2.305.104 4.615 1.06 1.468.533 3.286 1.55 5.024 3.51 1.18 1.31 2.254 2.994 3.08 5.175l.044.11c.332.83.656 1.728.972 2.686.04.162.094.324.137.486.06.223.12.402.18.61.288 1.144.603 2.378.927 3.678.045.212.095.408.14.632l.05.265.04.008c.037.13.07.254.103.373l.804 3.16c2.4 7.938 4.104 9.544 4.72 9.91l.076.165h6.657v.026h3.883c.16-.096.688.137.892-.65-.05-.48-.333-.59-.777-.87m-15.38-46.977c0 4.816-2.076 9.657-6.067 11.762l-.11.058c-1.34.695-2.902 1.088-4.702 1.088h-12.063V29.563h12.55c7.063.036 10.35 5.028 10.392 12.22M224.42 88.452c-2.758-.67-3.295-4.56-3.277-10.352V45.17c.033-3.207-1.852-3.872-2.45-3.994l-.04-.044H210.3c-.25.01-.428.044-.57.077-.456.18-.778.463-.778.876.11.836.885 1 .894 1.067.47.187 1.102.546 1.7 1.187.332.395 1.1 1.516 1.493 3.518l.012.1.012.01c.075.488.187 1.607.187 3.942V78.1c.01 5.8-.563 9.69-3.36 10.352-.48.04-1.04.522-.983 1.23-.023.34.352.624.572.624.23.058.478.05.786.05.085 0 .188-.006.315-.006h13.182l.29.006h.2c.215 0 .405-.006.595-.05.212 0 .602-.266.572-.623.047-.727-.523-1.192-1-1.23M288.687 88.452c-2.766-.676-3.3-4.56-3.278-10.352V45.17c.036-3.19-1.834-3.866-2.442-3.994l-.04-.044h-8.362c-.266.018-.425.044-.572.077-.442.18-.777.463-.784.876.12.836.898 1 .898 1.058.476.196 1.098.555 1.703 1.196.334.395 1.104 1.516 1.495 3.526l.016.09.01.01c.078.496.188 1.617.188 3.944V78.1c.017 5.8-.57 9.68-3.37 10.352-.476.04-1.04.522-.98 1.23-.027.34.357.624.572.632.24.042.485.042.79.042.09 0 .19-.006.31-.018h13.18l.303.018h.107c.257 0 .468-.006.683-.042.203-.008.598-.274.574-.63.05-.71-.52-1.193-1-1.232M363.132 44.59l-.04-.087-.062-.077h-.008c-.224-.384-2.39-3.77-6.627-3.79-2.278 0-5.08 1.003-8.398 3.867-1.605 1.575-2.804 3.337-3.677 4.893v-4.224c.036-3.122-1.755-3.834-2.387-3.99l-.044-.05h-8.414c-.254.01-.436.043-.57.078-.445.18-.778.463-.778.876.112.836.888 1 .897 1.058.462.196 1.1.555 1.7 1.196.328.394 1.1 1.524 1.492 3.52l.014.107.01.01c.086.494.18 1.615.18 3.934V78.1c.017 5.798-.564 9.682-3.353 10.352-.485.04-1.04.522-.99 1.23-.025.34.36.624.58.624.242.058.48.05.785.05.086 0 .186-.007.316-.007h13.164c.112 0 .214.006.3.006h.13c.253 0 .468 0 .672-.042.215-.008.606-.274.582-.63.05-.728-.532-1.193-1.015-1.232-2.75-.66-3.297-4.554-3.27-10.35V61.754l.018-.01v-.29c0-1.745.238-3.548.663-5.226.07-.247.133-.47.2-.7l.034-.087c.68-2.25 1.562-3.653 2.43-4.55l.3-.325c.615-.606 2.108-1.908 3.643-2.18l.213-.046v-.014c.083-.018.222-.026.385-.026.946.026 2.78.323 3.967 3.095l.307.745.15-.25.207.045c.186 0 .33-.077.47-.17l5.696-6.083c.115-.146.216-.35.206-.616 0-.146-.027-.3-.078-.478" fill="#30b143"/><path d="M92.47 106.548v3.84c0 .52-.053.926-.145 1.23-.105.3-.292.583-.554.82-.273.26-.615.49-1.033.72-1.21.65-2.37 1.13-3.49 1.437-1.116.303-2.337.445-3.66.445-1.534 0-2.935-.23-4.197-.708-1.264-.47-2.346-1.163-3.234-2.06-.886-.908-1.577-2.005-2.055-3.287-.476-1.28-.717-2.72-.717-4.31 0-1.556.23-2.986.7-4.278.46-1.292 1.143-2.384 2.048-3.292.898-.907 1.996-1.6 3.285-2.078 1.296-.475 2.757-.71 4.392-.71 1.35 0 2.545.18 3.576.536 1.032.362 1.88.814 2.526 1.365.64.548 1.127 1.126 1.458 1.736.323.604.486 1.15.486 1.623 0 .517-.188.95-.565 1.302-.374.354-.827.546-1.355.546-.29 0-.57-.077-.844-.206-.264-.14-.485-.333-.675-.574-.494-.787-.92-1.377-1.262-1.776-.35-.403-.817-.738-1.4-1.02-.588-.263-1.338-.4-2.24-.4-.942 0-1.778.16-2.512.478-.74.323-1.362.794-1.89 1.408-.52.62-.92 1.373-1.202 2.267-.276.89-.414 1.884-.414 2.963 0 2.35.54 4.165 1.616 5.437 1.082 1.265 2.583 1.9 4.503 1.9.946 0 1.817-.127 2.645-.368.82-.25 1.655-.607 2.5-1.06v-3.253h-3.132c-.758 0-1.33-.117-1.714-.34-.384-.23-.582-.617-.582-1.162 0-.445.164-.823.488-1.105.324-.29.76-.446 1.313-.446h4.6c.566 0 1.04.054 1.434.155.392.102.708.323.947.666.238.34.36.862.36 1.558M105.24 107.54c-.546.198-1.34.41-2.382.633-1.04.225-1.763.385-2.157.49-.4.11-.782.303-1.15.613-.36.315-.546.736-.546 1.285 0 .567.214 1.042.64 1.45.436.39.988.585 1.68.585.733 0 1.418-.164 2.04-.487.622-.325 1.082-.736 1.374-1.25.333-.568.5-1.494.5-2.786v-.53zm.248 5.396c-.904.714-1.776 1.234-2.618 1.584-.838.35-1.784.52-2.825.52-.955 0-1.8-.186-2.525-.56-.716-.386-1.272-.9-1.663-1.544-.395-.64-.59-1.35-.59-2.112 0-1.016.324-1.883.97-2.608.642-.707 1.532-1.197 2.656-1.444.238-.054.828-.18 1.765-.37.93-.187 1.73-.37 2.408-.53.665-.152 1.39-.35 2.173-.582-.052-.983-.246-1.71-.597-2.163-.35-.46-1.075-.69-2.176-.69-.946 0-1.655.126-2.132.393-.478.266-.888.657-1.228 1.188-.34.538-.58.88-.717 1.05-.144.163-.454.25-.914.25-.416 0-.776-.13-1.083-.403-.306-.267-.45-.608-.45-1.026 0-.66.23-1.305.688-1.918.464-.624 1.188-1.13 2.168-1.53.982-.404 2.202-.608 3.67-.608 1.638 0 2.925.198 3.864.583.94.39 1.596.998 1.98 1.84.384.84.58 1.95.58 3.334 0 .88 0 1.626-.007 2.23 0 .61-.01 1.296-.02 2.046 0 .695.114 1.42.352 2.19.23.76.348 1.258.348 1.47 0 .387-.18.728-.534 1.04-.368.332-.77.475-1.23.475-.374 0-.76-.178-1.125-.538-.377-.36-.767-.882-1.187-1.566M112.67 112.777V96.584c0-.745.172-1.318.5-1.693.33-.384.78-.572 1.343-.572.564 0 1.025.188 1.367.564.342.377.52.948.52 1.702v16.193c0 .75-.178 1.317-.53 1.7-.35.377-.8.563-1.357.563-.545 0-.988-.194-1.33-.58-.34-.404-.512-.96-.512-1.683M123.353 106.25h6.757c-.093-1.273-.446-2.232-1.032-2.867-.596-.626-1.383-.947-2.355-.947-.93 0-1.69.32-2.288.954-.595.65-.955 1.602-1.082 2.86m7.284 2.128h-7.284c.01.84.178 1.59.51 2.23.333.642.78 1.14 1.325 1.465.554.335 1.16.494 1.824.494.445 0 .845-.05 1.222-.153.366-.11.716-.27 1.065-.496.352-.223.665-.46.956-.713.287-.262.665-.603 1.134-1.048.187-.155.46-.238.81-.238.384 0 .7.1.93.315.238.204.357.504.357.89 0 .332-.128.725-.39 1.18-.266.453-.667.88-1.195 1.292-.538.42-1.205.768-2.005 1.034-.802.274-1.735.41-2.773.41-2.397 0-4.256-.675-5.588-2.05-1.324-1.37-1.987-3.215-1.987-5.56 0-1.103.16-2.13.484-3.07.333-.95.81-1.764 1.44-2.43.626-.67 1.4-1.19 2.315-1.55.92-.366 1.94-.546 3.05-.546 1.46 0 2.716.316 3.748.922 1.04.62 1.824 1.413 2.337 2.397.52.973.785 1.96.785 2.976 0 .94-.274 1.548-.81 1.82-.54.282-1.288.428-2.263.428M140.536 109.66v3.117c0 .75-.17 1.317-.53 1.7-.35.377-.8.563-1.346.563-.54 0-.983-.186-1.322-.573-.353-.382-.522-.948-.522-1.69V102.38c0-1.672.606-2.52 1.817-2.52.615 0 1.066.195 1.34.59.263.393.418.976.442 1.736.453-.76.907-1.343 1.374-1.737.47-.395 1.094-.59 1.876-.59.788 0 1.536.195 2.277.59.738.393 1.103.913 1.103 1.556 0 .462-.155.838-.47 1.14-.307.288-.648.434-1.015.434-.134 0-.466-.077-.99-.248-.52-.17-.98-.257-1.38-.257-.546 0-.992.145-1.34.437-.34.282-.613.712-.804 1.273-.195.567-.323 1.24-.39 2.02-.08.77-.12 1.735-.12 2.855M152.804 101.99v10.786c0 .743-.18 1.31-.535 1.69-.353.388-.804.575-1.35.575-.547 0-.992-.195-1.323-.58-.35-.403-.522-.958-.522-1.684v-10.684c0-.743.17-1.3.522-1.667.33-.38.776-.566 1.322-.566s.997.185 1.35.565c.355.366.534.887.534 1.566m-.638-7.484h1.83c.472 0 .702.068.702.205 0 .07-.247.37-.76.89-.51.52-1.022 1.01-1.543 1.49-.513.472-.88.76-1.074.864-.522.263-1.076.394-1.663.394-.392 0-.592-.113-.592-.335 0-.164.123-.426.358-.813l.608-1.154c.36-.658.666-1.088.93-1.267.265-.182.668-.274 1.206-.274M165.815 107.54c-.545.198-1.34.41-2.383.633-1.037.225-1.756.385-2.155.49-.402.11-.787.303-1.146.613-.366.315-.544.736-.544 1.285 0 .567.213 1.042.64 1.45.427.39.98.585 1.68.585.733 0 1.417-.164 2.032-.487.622-.325 1.082-.736 1.372-1.25.342-.568.505-1.494.505-2.786v-.53zm.248 5.396c-.908.714-1.775 1.234-2.612 1.584-.844.35-1.783.52-2.832.52-.954 0-1.792-.186-2.516-.56-.716-.386-1.28-.9-1.672-1.544-.392-.64-.59-1.35-.59-2.112 0-1.016.326-1.883.973-2.608.64-.707 1.536-1.197 2.663-1.444.228-.054.82-.18 1.756-.37.94-.187 1.742-.37 2.406-.53.673-.152 1.4-.35 2.177-.582-.04-.983-.24-1.71-.588-2.163-.35-.46-1.076-.69-2.178-.69-.945 0-1.656.126-2.14.393-.47.266-.88.657-1.22 1.188-.345.538-.58.88-.728 1.05-.144.163-.442.25-.903.25-.427 0-.786-.13-1.082-.403-.31-.267-.462-.608-.462-1.026 0-.66.23-1.305.69-1.918.47-.624 1.188-1.13 2.175-1.53.984-.404 2.205-.608 3.67-.608 1.637 0 2.917.198 3.856.583.94.39 1.605.998 1.987 1.84.385.84.58 1.95.58 3.334 0 .88-.005 1.626-.005 2.23-.01.61-.01 1.296-.03 2.046 0 .695.122 1.42.35 2.19.24.76.353 1.258.353 1.47 0 .387-.18.728-.538 1.04-.36.332-.766.475-1.22.475-.383 0-.76-.178-1.136-.538-.364-.36-.766-.882-1.183-1.566M185.24 110.157c0 1.034-.248 1.916-.75 2.65-.495.737-1.238 1.286-2.22 1.672-.968.374-2.165.56-3.565.56-1.338 0-2.483-.195-3.438-.605-.956-.41-1.656-.933-2.114-1.54-.455-.624-.682-1.24-.682-1.857 0-.412.153-.77.434-1.06.3-.283.666-.436 1.11-.436.39 0 .69.104.903.294.204.194.41.454.598.808.383.67.836 1.165 1.373 1.49.53.33 1.255.497 2.177.497.74 0 1.358-.17 1.833-.505.48-.335.718-.72.718-1.138 0-.66-.25-1.14-.745-1.445-.492-.29-1.31-.583-2.446-.853-1.287-.327-2.33-.662-3.13-1.004-.813-.36-1.453-.813-1.938-1.396-.48-.57-.718-1.28-.718-2.12 0-.744.224-1.454.667-2.12.442-.66 1.1-1.2 1.97-1.594.87-.39 1.918-.598 3.15-.598.964 0 1.822.103 2.593.31.768.197 1.407.47 1.927.8.51.343.905.722 1.17 1.124.265.408.4.815.4 1.198 0 .434-.135.787-.426 1.058-.29.275-.692.41-1.223.41-.383 0-.706-.11-.978-.32-.268-.225-.575-.55-.914-.986-.283-.365-.616-.66-1-.88-.38-.212-.896-.325-1.552-.325-.674 0-1.236.145-1.68.434-.444.285-.666.637-.666 1.072 0 .39.16.71.485.957.334.257.77.46 1.325.62.553.163 1.32.372 2.293.613 1.163.272 2.1.614 2.834 1.004.725.395 1.28.86 1.662 1.39.377.538.564 1.144.564 1.82M210.836 108.688c0 1.212-.316 2.3-.938 3.257-.624.974-1.536 1.735-2.738 2.275-1.202.547-2.62.82-4.265.82-1.973 0-3.604-.366-4.884-1.117-.91-.53-1.654-1.25-2.215-2.147-.572-.898-.854-1.773-.854-2.63 0-.496.173-.906.514-1.262.34-.35.773-.527 1.297-.527.427 0 .793.132 1.084.414.296.276.555.674.76 1.215.255.644.536 1.172.825 1.6.297.427.72.787 1.246 1.063.535.27 1.244.417 2.116.417 1.203 0 2.176-.282 2.928-.845.75-.557 1.124-1.252 1.124-2.088 0-.676-.204-1.214-.604-1.624-.4-.42-.93-.737-1.57-.96-.638-.213-1.502-.445-2.568-.696-1.443-.328-2.646-.734-3.608-1.186-.977-.442-1.742-1.058-2.316-1.836-.56-.79-.843-1.756-.843-2.91 0-1.105.297-2.08.893-2.943.608-.856 1.47-1.514 2.613-1.97 1.136-.455 2.468-.69 4.012-.69 1.23 0 2.287.158 3.183.462.895.292 1.637.698 2.235 1.205.59.504 1.014 1.043 1.29 1.602.27.545.408 1.093.408 1.614 0 .488-.17.934-.512 1.32-.34.382-.758.58-1.272.58-.46 0-.82-.116-1.06-.35-.236-.23-.503-.616-.782-1.148-.357-.754-.803-1.35-1.307-1.763-.51-.428-1.33-.64-2.454-.64-1.05 0-1.897.23-2.535.696-.64.458-.957 1.004-.957 1.655 0 .406.103.745.325 1.037.215.292.513.545.896.762.383.194.765.365 1.16.482.392.122 1.043.295 1.937.527 1.127.26 2.15.552 3.064.87.913.317 1.69.707 2.33 1.164.647.45 1.143 1.033 1.5 1.728.357.7.546 1.557.546 2.566M223.183 107.54c-.556.198-1.348.41-2.38.633-1.052.225-1.77.385-2.17.49-.4.11-.774.303-1.143.613-.365.315-.544.736-.544 1.285 0 .567.213 1.042.637 1.45.43.39.99.585 1.682.585.735 0 1.41-.164 2.04-.487.62-.325 1.075-.736 1.364-1.25.342-.568.513-1.494.513-2.786v-.53zm.246 5.396c-.905.714-1.784 1.234-2.62 1.584-.846.35-1.783.52-2.832.52-.948 0-1.794-.186-2.507-.56-.727-.386-1.282-.9-1.68-1.544-.397-.64-.582-1.35-.582-2.112 0-1.016.315-1.883.962-2.608.653-.707 1.537-1.197 2.665-1.444.24-.054.818-.18 1.756-.37.94-.187 1.743-.37 2.417-.53.664-.152 1.39-.35 2.176-.582-.053-.983-.247-1.71-.598-2.163-.35-.46-1.076-.69-2.173-.69-.95 0-1.66.126-2.137.393-.475.266-.885.657-1.227 1.188-.343.538-.582.88-.725 1.05-.14.163-.44.25-.905.25-.417 0-.784-.13-1.082-.403-.307-.267-.46-.608-.46-1.026 0-.66.23-1.305.7-1.918.46-.624 1.183-1.13 2.166-1.53.98-.404 2.2-.608 3.67-.608 1.636 0 2.926.198 3.854.583.938.39 1.605.998 1.988 1.84.392.84.58 1.95.58 3.334 0 .88 0 1.626-.01 2.23 0 .61-.01 1.296-.016 2.046 0 .695.11 1.42.348 2.19.23.76.343 1.258.343 1.47 0 .387-.18.728-.537 1.04-.36.332-.76.475-1.22.475-.385 0-.763-.178-1.13-.538-.375-.36-.775-.882-1.184-1.566M233.988 101.93v.45c.66-.87 1.376-1.5 2.154-1.905.775-.408 1.67-.616 2.687-.616.977 0 1.856.223 2.626.65.777.428 1.348 1.033 1.73 1.823.25.452.406.94.49 1.467.065.534.1 1.21.1 2.02v6.957c0 .742-.17 1.308-.512 1.69-.34.387-.785.573-1.33.573-.555 0-1.006-.195-1.35-.58-.347-.404-.52-.96-.52-1.683v-6.23c0-1.23-.172-2.172-.51-2.823-.342-.65-1.023-.973-2.04-.973-.665 0-1.272.196-1.818.6-.547.393-.944.94-1.192 1.634-.19.556-.27 1.59-.27 3.112v4.68c0 .75-.184 1.318-.533 1.702-.348.376-.804.562-1.356.562-.534 0-.982-.195-1.32-.58-.353-.404-.522-.96-.522-1.683V101.99c0-.722.155-1.25.46-1.6.317-.35.735-.53 1.27-.53.326 0 .624.084.89.233.263.16.474.39.63.698.16.32.236.696.236 1.14M247.694 100.19h.398v-2.236c0-.61.018-1.07.055-1.422.033-.343.117-.63.272-.882.134-.25.348-.46.62-.623.272-.154.58-.24.91-.24.47 0 .907.187 1.286.54.253.23.416.523.485.862.067.342.102.83.102 1.454v2.547h1.365c.527 0 .93.13 1.21.38.274.248.412.574.412.958 0 .504-.2.852-.59 1.06-.402.205-.964.3-1.703.3h-.695v6.87c0 .57.017 1.033.06 1.344.042.314.154.558.333.767.18.187.462.286.86.286.222 0 .512-.04.886-.117.38-.068.67-.112.882-.112.3 0 .562.12.81.368.24.233.36.53.36.89 0 .606-.324 1.058-.982 1.376-.657.318-1.595.48-2.833.48-1.15 0-2.04-.197-2.644-.583-.6-.403-.983-.94-1.18-1.635-.178-.68-.28-1.606-.28-2.768v-7.168h-.484c-.54 0-.95-.133-1.23-.39-.283-.253-.42-.57-.42-.972 0-.384.145-.71.446-.958.29-.25.722-.38 1.288-.38M267.58 107.455c0-1.523-.342-2.715-1.007-3.56-.664-.844-1.563-1.265-2.696-1.265-.725 0-1.366.188-1.92.566-.554.375-.98.94-1.28 1.677-.3.734-.452 1.598-.452 2.582 0 .975.145 1.82.445 2.557.288.727.714 1.29 1.267 1.675.55.387 1.198.584 1.94.584 1.133 0 2.032-.427 2.696-1.283.665-.846 1.006-2.028 1.006-3.532m3.738 0c0 1.103-.173 2.136-.522 3.08-.34.933-.844 1.743-1.5 2.418-.65.677-1.435 1.19-2.347 1.55-.908.36-1.93.537-3.073.537-1.126 0-2.14-.178-3.038-.537-.905-.367-1.68-.89-2.337-1.575-.657-.674-1.16-1.48-1.502-2.403-.34-.923-.513-1.95-.513-3.07 0-1.128.174-2.164.52-3.106.342-.94.84-1.737 1.485-2.403.64-.67 1.426-1.18 2.347-1.55.923-.352 1.93-.538 3.037-.538 1.133 0 2.158.185 3.072.557.922.36 1.705.88 2.364 1.555.655.676 1.15 1.48 1.49 2.403.34.93.514 1.96.514 3.08M285.572 97.867v13.607h3.062c.674 0 1.204-.017 1.587-.058.388-.034.777-.13 1.188-.267.41-.155.76-.36 1.068-.616 1.348-1.154 2.03-3.13 2.03-5.936 0-1.978-.303-3.454-.895-4.448-.6-.986-1.33-1.608-2.202-1.875-.87-.27-1.928-.408-3.165-.408h-2.67zm-1.57-3.214h5.273c1.38 0 2.56.126 3.533.382.98.257 1.877.738 2.68 1.44 2.077 1.777 3.12 4.495 3.12 8.148 0 1.197-.102 2.31-.316 3.294-.207.99-.528 1.89-.965 2.693-.435.796-.997 1.507-1.68 2.138-.538.48-1.116.872-1.758 1.165-.64.29-1.32.493-2.048.607-.744.125-1.56.18-2.48.18h-5.284c-.73 0-1.287-.113-1.654-.336-.375-.22-.62-.534-.734-.94-.12-.402-.17-.932-.17-1.58V97.147c0-.88.198-1.513.58-1.91.392-.39 1.03-.584 1.902-.584M312.114 107.455c0-1.523-.33-2.715-.998-3.56-.673-.844-1.57-1.265-2.694-1.265-.726 0-1.366.188-1.923.566-.562.375-.99.94-1.288 1.677-.298.734-.452 1.598-.452 2.582 0 .975.154 1.82.442 2.557.3.727.716 1.29 1.274 1.675.543.387 1.196.584 1.946.584 1.123 0 2.02-.427 2.694-1.283.667-.846.998-2.028.998-3.532m3.738 0c0 1.103-.172 2.136-.52 3.08-.342.933-.845 1.743-1.5 2.418-.65.677-1.436 1.19-2.343 1.55-.91.36-1.936.537-3.068.537-1.128 0-2.144-.178-3.047-.537-.896-.367-1.68-.89-2.338-1.575-.66-.674-1.16-1.48-1.502-2.403-.344-.923-.504-1.95-.504-3.07 0-1.128.16-2.164.514-3.106.35-.94.833-1.737 1.493-2.403.64-.67 1.417-1.18 2.338-1.55.92-.352 1.935-.538 3.047-.538 1.123 0 2.148.185 3.067.557.915.36 1.706.88 2.366 1.555.647.676 1.144 1.48 1.482 2.403.342.93.514 1.96.514 3.08M331.173 107.727v4.97c0 .78-.18 1.36-.535 1.762-.36.385-.82.58-1.41.58-.563 0-1.016-.195-1.365-.58-.348-.403-.53-.983-.53-1.762v-5.953c0-.942-.024-1.667-.092-2.19-.06-.52-.237-.94-.518-1.275-.283-.334-.728-.496-1.342-.496-1.213 0-2.013.41-2.397 1.25-.394.84-.58 2.04-.58 3.62v5.044c0 .77-.18 1.36-.53 1.754-.35.393-.81.59-1.38.59-.567 0-1.024-.197-1.385-.59-.357-.395-.543-.984-.543-1.754v-10.692c0-.695.162-1.23.485-1.59.325-.37.753-.557 1.28-.557.503 0 .93.18 1.27.52.34.342.514.813.514 1.413v.36c.64-.778 1.338-1.345 2.073-1.71.73-.37 1.552-.55 2.457-.55.938 0 1.738.19 2.415.555.674.388 1.22.953 1.664 1.705.628-.77 1.294-1.345 2.012-1.705.726-.366 1.518-.554 2.387-.554 1.017 0 1.9.2 2.637.6.74.4 1.29.974 1.646 1.724.325.67.48 1.73.48 3.184v7.296c0 .78-.173 1.36-.532 1.76-.357.387-.818.583-1.407.583-.562 0-1.024-.195-1.383-.588-.355-.395-.532-.984-.532-1.754v-6.287c0-.795-.04-1.444-.108-1.922-.068-.48-.253-.89-.554-1.216-.297-.334-.75-.488-1.363-.488-.494 0-.955.137-1.39.437-.455.283-.793.674-1.033 1.175-.282.628-.41 1.734-.41 3.332M347.222 101.99v10.786c0 .743-.17 1.31-.53 1.69-.36.388-.802.575-1.347.575-.545 0-.99-.195-1.332-.58-.34-.403-.51-.958-.51-1.684v-10.684c0-.743.17-1.3.51-1.667.343-.38.787-.566 1.332-.566s.988.185 1.347.565c.36.366.53.887.53 1.566m-1.838-3.858c-.517 0-.96-.162-1.327-.488-.368-.316-.554-.76-.554-1.352 0-.52.186-.964.56-1.297.386-.342.82-.515 1.32-.515.484 0 .918.154 1.285.462.373.31.554.76.554 1.35 0 .582-.18 1.03-.537 1.352-.37.326-.804.488-1.3.488M354.455 101.93v.45c.657-.87 1.373-1.5 2.15-1.905.777-.408 1.665-.616 2.68-.616.98 0 1.86.223 2.635.65.768.428 1.35 1.033 1.723 1.823.25.452.414.94.48 1.467.075.534.11 1.21.11 2.02v6.957c0 .742-.17 1.308-.512 1.69-.34.387-.776.573-1.332.573-.552 0-.995-.195-1.347-.58-.34-.404-.518-.96-.518-1.683v-6.23c0-1.23-.17-2.172-.51-2.823-.333-.65-1.02-.973-2.033-.973-.674 0-1.27.196-1.82.6-.543.393-.944.94-1.202 1.634-.18.556-.272 1.59-.272 3.112v4.68c0 .75-.17 1.318-.52 1.702-.358.376-.8.562-1.363.562-.54 0-.974-.195-1.325-.58-.34-.404-.51-.96-.51-1.683V101.99c0-.722.153-1.25.46-1.6.306-.35.733-.53 1.264-.53.332 0 .62.084.887.233.262.16.474.39.64.698.16.32.235.696.235 1.14M370.855 107.325c0 1.525.324 2.664.978 3.44.668.78 1.52 1.163 2.57 1.163.614 0 1.194-.163 1.746-.505.557-.336 1-.828 1.34-1.498.35-.673.523-1.485.523-2.444 0-1.523-.337-2.712-1-3.558-.676-.848-1.555-1.268-2.645-1.268-1.055 0-1.912.402-2.558 1.22-.64.808-.955 1.966-.955 3.45m10.78-4.728v10.853c0 1.232-.125 2.302-.39 3.19-.265.898-.682 1.635-1.27 2.217-.58.59-1.34 1.018-2.28 1.3-.947.284-2.118.425-3.513.425-1.28 0-2.43-.177-3.44-.546-1.005-.357-1.783-.82-2.336-1.383-.538-.577-.813-1.163-.813-1.765 0-.455.158-.827.462-1.12.307-.28.683-.425 1.12-.425.544 0 1.022.247 1.43.725.196.25.412.488.622.744.213.256.444.47.71.65.255.17.572.31.93.394.368.084.786.128 1.255.128.963 0 1.716-.128 2.243-.403.536-.274.914-.648 1.12-1.127.22-.49.348-1.003.382-1.55.034-.55.06-1.442.08-2.668-.576.815-1.24 1.42-1.983 1.84-.75.415-1.647.625-2.678.625-1.254 0-2.338-.32-3.277-.96-.93-.632-1.648-1.527-2.142-2.675-.5-1.146-.753-2.472-.753-3.985 0-1.123.148-2.13.455-3.03.306-.898.74-1.67 1.306-2.283.56-.623 1.21-1.086 1.95-1.4.737-.322 1.546-.472 2.425-.472 1.06 0 1.97.198 2.74.604.774.402 1.494 1.043 2.157 1.91v-.515c0-.634.153-1.14.48-1.497.314-.353.724-.54 1.228-.54.715 0 1.195.243 1.434.712.237.47.346 1.145.346 2.026M394.912 107.455c0-1.523-.332-2.715-.997-3.56-.675-.844-1.57-1.265-2.7-1.265-.72 0-1.36.188-1.925.566-.546.375-.98.94-1.282 1.677-.296.734-.45 1.598-.45 2.582 0 .975.154 1.82.45 2.557.293.727.717 1.29 1.265 1.675.548.387 1.203.584 1.943.584 1.128 0 2.024-.427 2.7-1.283.664-.846.996-2.028.996-3.532m3.74 0c0 1.103-.175 2.136-.514 3.08-.352.933-.846 1.743-1.503 2.418-.658.677-1.443 1.19-2.347 1.55-.91.36-1.938.537-3.072.537-1.122 0-2.138-.178-3.044-.537-.897-.367-1.68-.89-2.336-1.575-.66-.674-1.164-1.48-1.504-2.403-.34-.923-.51-1.95-.51-3.07 0-1.128.178-2.164.52-3.106.342-.94.835-1.737 1.485-2.403.647-.67 1.432-1.18 2.345-1.55.92-.352 1.934-.538 3.044-.538 1.128 0 2.152.185 3.072.557.913.36 1.708.88 2.356 1.555.657.676 1.16 1.48 1.494 2.403.34.93.513 1.96.513 3.08" fill="#231f20"/><path d="M9.688 40.457v.077c.024 8.355 6.81 15.114 15.144 15.114 8.36 0 15.16-6.785 15.16-15.155 0-8.32-6.8-15.106-15.16-15.106-8.335 0-15.12 6.758-15.144 15.07" fill="#6cbf35" fill-rule="evenodd"/><path d="M24.95 55.245c8.234 0 14.93-6.683 14.93-14.928 0-8.198-6.696-14.88-14.93-14.88-8.21 0-14.894 6.656-14.916 14.845v.075c.022 8.23 6.705 14.888 14.916 14.888" fill="#71c139" fill-rule="evenodd"/><path d="M25.066 54.842c8.11 0 14.707-6.583 14.707-14.702 0-8.073-6.596-14.655-14.707-14.655-8.084 0-14.667 6.556-14.69 14.62v.074c.023 8.104 6.606 14.662 14.69 14.662" fill="#75c33e" fill-rule="evenodd"/><path d="M25.183 54.438c7.985 0 14.48-6.48 14.48-14.476 0-7.947-6.495-14.428-14.48-14.428-7.96 0-14.44 6.455-14.463 14.395V40c.023 7.98 6.502 14.436 14.463 14.436" fill="#7ac443" fill-rule="evenodd"/><path d="M25.3 54.036c7.86 0 14.253-6.38 14.253-14.25 0-7.824-6.392-14.202-14.252-14.202-7.835 0-14.213 6.353-14.235 14.168v.072c.022 7.855 6.4 14.212 14.236 14.212" fill="#7fc648" fill-rule="evenodd"/><path d="M25.42 53.63c7.735 0 14.024-6.276 14.024-14.022 0-7.697-6.29-13.975-14.025-13.975-7.713 0-13.99 6.252-14.01 13.943v.072c.02 7.728 6.297 13.983 14.01 13.983" fill="#83c84e" fill-rule="evenodd"/><path d="M25.535 53.228c7.61 0 13.798-6.176 13.798-13.795 0-7.574-6.188-13.75-13.798-13.75-7.586 0-13.76 6.15-13.783 13.716v.07c.022 7.603 6.197 13.758 13.783 13.758" fill="#88ca53" fill-rule="evenodd"/><path d="M25.653 52.824c7.485 0 13.57-6.074 13.57-13.57 0-7.447-6.085-13.524-13.57-13.524-7.462 0-13.537 6.05-13.557 13.493v.07c.02 7.478 6.095 13.53 13.557 13.53" fill="#8dcc58" fill-rule="evenodd"/><path d="M25.77 52.422c7.36 0 13.344-5.975 13.344-13.344 0-7.324-5.983-13.297-13.344-13.297-7.336 0-13.31 5.95-13.33 13.267v.068c.02 7.353 5.994 13.307 13.33 13.307" fill="#92ce5e" fill-rule="evenodd"/><path d="M25.887 52.02c7.236 0 13.118-5.874 13.118-13.12 0-7.198-5.882-13.07-13.118-13.07-7.21 0-13.083 5.848-13.1 13.04v.068c.017 7.228 5.89 13.08 13.1 13.08" fill="#96d064" fill-rule="evenodd"/><path d="M26.004 51.615c7.112 0 12.89-5.772 12.89-12.89 0-7.076-5.778-12.846-12.89-12.846-7.086 0-12.857 5.746-12.875 12.814v.066c.017 7.103 5.788 12.855 12.874 12.855" fill="#9bd269" fill-rule="evenodd"/><path d="M26.12 51.212c6.988 0 12.666-5.67 12.666-12.664 0-6.95-5.678-12.622-12.665-12.622-6.96 0-12.63 5.647-12.646 12.592v.064c.015 6.978 5.687 12.63 12.647 12.63" fill="#a0d46f" fill-rule="evenodd"/><path d="M26.24 50.808c6.862 0 12.437-5.567 12.437-12.438 0-6.825-5.575-12.393-12.438-12.393-6.837 0-12.405 5.546-12.423 12.365v.065c.018 6.85 5.586 12.4 12.422 12.4" fill="#a4d675" fill-rule="evenodd"/><path d="M26.356 50.405c6.737 0 12.21-5.467 12.21-12.21 0-6.703-5.473-12.17-12.21-12.17-6.712 0-12.178 5.446-12.194 12.14v.064c.016 6.727 5.482 12.175 12.194 12.175" fill="#a9d87b" fill-rule="evenodd"/><path d="M26.473 50c6.613 0 11.984-5.365 11.984-11.983 0-6.577-5.37-11.942-11.984-11.942-6.586 0-11.95 5.343-11.968 11.914v.06C14.522 44.653 19.887 50 26.473 50" fill="#aeda82" fill-rule="evenodd"/><path d="M26.59 49.598c6.487 0 11.757-5.265 11.757-11.76 0-6.45-5.27-11.713-11.756-11.713-6.46 0-11.726 5.24-11.742 11.688v.06c.016 6.478 5.28 11.725 11.743 11.725" fill="#b3dc88" fill-rule="evenodd"/><path d="M26.708 49.195c6.362 0 11.53-5.164 11.53-11.53 0-6.328-5.168-11.492-11.53-11.492-6.337 0-11.5 5.14-11.515 11.463v.06c.015 6.353 5.178 11.5 11.515 11.5" fill="#b7de8e" fill-rule="evenodd"/><path d="M26.825 48.792c6.237 0 11.303-5.062 11.303-11.306 0-6.202-5.066-11.264-11.303-11.264-6.212 0-11.274 5.04-11.287 11.238v.058c.013 6.227 5.075 11.274 11.287 11.274" fill="#bce095" fill-rule="evenodd"/><path d="M26.942 48.388c6.114 0 11.077-4.96 11.077-11.08 0-6.077-4.964-11.037-11.078-11.037-6.087 0-11.047 4.94-11.06 11.014v.056c.013 6.103 4.973 11.048 11.06 11.048" fill="#c1e29c" fill-rule="evenodd"/><path d="M27.06 47.985c5.986 0 10.85-4.86 10.85-10.853 0-5.953-4.864-10.81-10.85-10.81-5.963 0-10.822 4.837-10.834 10.786v.055c.012 5.978 4.87 10.822 10.834 10.822" fill="#c6e4a3" fill-rule="evenodd"/><path d="M27.176 47.58c5.864 0 10.624-4.758 10.624-10.625 0-5.827-4.76-10.585-10.624-10.585-5.837 0-10.593 4.736-10.607 10.562v.055c.013 5.85 4.77 10.594 10.606 10.594" fill="#cae6aa" fill-rule="evenodd"/><path d="M27.293 47.178c5.74 0 10.397-4.657 10.397-10.4 0-5.703-4.658-10.36-10.397-10.36-5.712 0-10.368 4.638-10.38 10.337v.054c.012 5.725 4.668 10.368 10.38 10.368" fill="#cfe9b1" fill-rule="evenodd"/><path d="M27.41 46.774c5.614 0 10.17-4.554 10.17-10.172 0-5.58-4.556-10.135-10.17-10.135-5.586 0-10.142 4.537-10.153 10.11v.054c.01 5.603 4.567 10.144 10.154 10.144" fill="#d4ebb8" fill-rule="evenodd"/><path d="M27.53 46.37c5.486 0 9.94-4.452 9.94-9.945 0-5.455-4.454-9.907-9.94-9.907-5.465 0-9.918 4.433-9.928 9.884v.052c.01 5.476 4.463 9.917 9.927 9.917" fill="#d9edc0" fill-rule="evenodd"/><path d="M27.646 45.967c5.364 0 9.715-4.35 9.715-9.72 0-5.33-4.35-9.68-9.714-9.68-5.338 0-9.69 4.332-9.7 9.66v.05c.01 5.35 4.362 9.69 9.7 9.69" fill="#ddefc7" fill-rule="evenodd"/><path d="M27.763 45.564c5.238 0 9.49-4.25 9.49-9.494 0-5.203-4.252-9.454-9.49-9.454-5.212 0-9.465 4.232-9.472 9.433v.048c.008 5.227 4.26 9.466 9.473 9.466" fill="#e2f1cf" fill-rule="evenodd"/><path d="M27.88 45.16c5.114 0 9.262-4.15 9.262-9.266 0-5.08-4.148-9.228-9.262-9.228-5.088 0-9.237 4.13-9.246 9.207v.048c.01 5.103 4.158 9.24 9.246 9.24" fill="#e7f3d6" fill-rule="evenodd"/><path d="M27.998 44.758c4.99 0 9.035-4.05 9.035-9.04 0-4.956-4.046-9.004-9.035-9.004-4.963 0-9.012 4.03-9.02 8.984v.047c.008 4.975 4.057 9.013 9.02 9.013" fill="#ecf6de" fill-rule="evenodd"/><path d="M28.115 44.355c4.863 0 8.808-3.948 8.808-8.815 0-4.83-3.945-8.777-8.808-8.777-4.838 0-8.786 3.93-8.792 8.758v.047c.006 4.85 3.954 8.788 8.792 8.788" fill="#f1f8e6" fill-rule="evenodd"/><path d="M28.232 43.95c4.738 0 8.583-3.845 8.583-8.586 0-4.706-3.845-8.552-8.583-8.552-4.713 0-8.56 3.828-8.566 8.532v.045c.007 4.724 3.853 8.56 8.566 8.56" fill="#f6faef" fill-rule="evenodd"/><path d="M28.35 43.548c4.614 0 8.355-3.745 8.355-8.362 0-4.58-3.74-8.324-8.356-8.324-4.59 0-8.334 3.727-8.34 8.306v.043c.006 4.603 3.75 8.338 8.34 8.338" fill="#fafdf7" fill-rule="evenodd"/><path d="M20.354 34.992v.042c.006 4.476 3.65 8.11 8.113 8.11 4.49 0 8.128-3.643 8.128-8.134 0-4.458-3.64-8.1-8.128-8.1-4.463 0-8.107 3.626-8.113 8.082" fill="#fff" fill-rule="evenodd"/></svg>