<svg xmlns="http://www.w3.org/2000/svg" width="450" height="69.611"><g fill="#025"><path d="M66.88 40.848c-3.617-5.585-7.94-12.27-11.575-17.865 1.286-.52 2.67-.797 4.07-.797 5.983 0 10.85 4.873 10.85 10.85 0 2.98-1.232 5.78-3.344 7.812m4.11 12.545c4.37 6.782-2.07 12.416-6.44 12.416H35.172c4.094-2.185 6.892-6.575 6.892-11.632 0-1.324-.194-2.6-.548-3.802h7.082c.184 0 .383-.046.585-.118v9.44c0 2.367 1.92 3.293 4.287 3.293 2.362 0 4.28-.925 4.28-3.29V38.836h-8.567v6.202c-1.26-1.96-3.228-5.006-4.523-7.002V26.424h-6.877V37.8c-.782 1.25-1.855 2.978-2.876 4.608-.632-.317-1.298-.594-1.985-.807V28.364h-7.304V41.6c-5.285 1.613-9.145 6.63-9.145 12.578 0 5.057 2.802 9.447 6.892 11.63H9.7c-5.29 0-7.474-7.47-4.83-11.61C5.9 52.585 29.82 14.18 29.82 14.18c3.105-4.487 12.423-4.14 15.988.347.87 1.097 25.18 38.866 25.18 38.866M91.52 34.69v-2.182H73.104c-.023-.577-.076-1.14-.166-1.696l11.784-3.25-.58-2.1-11.72 3.232c-.25-.75-.553-1.47-.922-2.157l16.88-7.426-.88-1.995-17.215 7.572c-.175-.23-.36-.455-.548-.677l9.35-8.14-1.43-1.645-9.483 8.247c-.517-.43-1.07-.81-1.65-1.165l11.53-14.343-1.702-1.368-11.816 14.698c-.568-.234-1.157-.418-1.762-.574l4.214-12.51-2.068-.693-4.325 12.825c-.256-.02-.516-.03-.78-.04V0H57.63v19.408c-.357.05-.712.1-1.06.18L53.28 5.95l-2.122.512 3.323 13.763c-.26.1-.513.19-.764.303-3.257-5.02-5.67-8.718-5.954-9.11-3.926-5.415-16.555-5.816-20.35-.46 0 0-25.01 39.44-26.102 41.397-3.684 6.56.8 17.256 8.507 17.256h57.61c5.16 0 12.06-9.314 6.9-17.255 0 0-2.44-3.768-5.832-9.015.424-.378.813-.782 1.185-1.206l16.553 9.358 1.073-1.898L71 40.374c.506-.813.933-1.678 1.268-2.576l11.625 4.49.782-2.04-11.813-4.555c.07-.338.123-.67.164-1.004H91.52z"/><path d="M105.615 17.128v-2.78-1.728-1.054c.02-.273.04-.526.06-.76.038-.508.126-.888.262-1.142.156-.273.45-.45.878-.527.176-.04.35-.06.527-.06.195-.018.342-.028.44-.028.155 0 .233-.06.233-.177 0-.156-.156-.234-.468-.234-.215 0-.498.01-.85.03-.33 0-.662.01-.994.028-.332 0-.624.01-.878.03h-.85c-.214-.02-.487-.03-.818-.03-.313-.02-.654-.03-1.025-.03-.37-.02-.722-.03-1.054-.03-.312 0-.468.08-.468.235 0 .118.078.176.234.176.137 0 .303.01.498.028.214 0 .38.02.497.06.487.097.81.272.965.526.156.254.254.634.293 1.14.02.236.03.49.03.762.02.254.028.605.028 1.054V22.28c0 1.404-.01 2.663-.03 3.775 0 1.092-.038 1.95-.116 2.575-.058.43-.146.79-.263 1.083-.098.293-.293.47-.586.527-.135.04-.282.07-.438.088-.156.02-.302.03-.44.03-.155 0-.233.058-.233.175 0 .156.155.234.467.234.215 0 .47-.01.76-.03.314 0 .616-.01.91-.028.29 0 .545-.01.76-.03h1.785c.47.02 1.015.048 1.64.087.624.02 1.326.04 2.107.06.78.018 1.696.028 2.75.028.39 0 .693-.01.907-.03.235-.02.41-.058.527-.116.117-.06.195-.138.234-.235.06-.098.117-.235.176-.41.058-.215.107-.468.146-.76.06-.313.108-.616.147-.91.058-.29.097-.555.117-.79.02-.233.03-.39.03-.467 0-.293-.06-.44-.177-.44-.136 0-.224.128-.263.38-.04.275-.127.577-.263.91-.136.33-.302.613-.497.848-.35.43-.84.682-1.464.76-.605.08-1.298.118-2.08.118-.565 0-1.052-.01-1.462-.03-.39-.04-.722-.078-.995-.117-.254-.058-.47-.126-.644-.205-.157-.097-.294-.204-.41-.322-.274-.253-.45-.897-.528-1.93-.078-1.035-.117-2.626-.117-4.772v-5.21M118.64 28.016c-.254.624-.536 1.14-.85 1.55-.29.41-.73.655-1.316.733-.097.018-.224.038-.38.057h-.38c-.157 0-.235.07-.235.205 0 .137.165.205.497.205.253 0 .517-.01.79-.03.293 0 .556-.01.79-.028.254 0 .468-.01.644-.03h.762c.195.02.41.03.644.03.234.018.468.028.703.028.233.02.428.03.584.03.254 0 .38-.07.38-.206 0-.136-.087-.205-.263-.205h-.233c-.215 0-.42-.048-.615-.146-.175-.097-.263-.272-.263-.526 0-.45.126-1.005.38-1.668l1.463-3.98c.058-.137.146-.206.263-.206h5.942c.097 0 .175.05.234.147l2.312 5.707c.098.215.098.37 0 .468-.078.098-.156.166-.234.205-.058.04-.107.07-.146.088-.02 0-.03.03-.03.088 0 .078.088.127.264.146.176 0 .39.01.644.028.45.02.888.03 1.317.03.448.02.858.03 1.228.03h1.522c.157 0 .293-.02.41-.06.117-.02.176-.068.176-.146 0-.078-.04-.127-.117-.146-.06-.04-.128-.06-.206-.06-.137 0-.293-.01-.468-.028-.176-.02-.36-.06-.557-.117-.137-.038-.284-.097-.44-.175-.156-.078-.33-.214-.526-.41-.176-.195-.37-.458-.586-.79-.195-.332-.41-.78-.644-1.346-.273-.626-.605-1.406-.995-2.343-.372-.956-.772-1.96-1.2-3.015-.43-1.053-.87-2.117-1.318-3.19-.43-1.093-.83-2.088-1.2-2.985-.37-.918-.693-1.698-.966-2.342-.254-.644-.42-1.054-.498-1.23l-.322-.643c-.058-.176-.156-.264-.292-.264-.098 0-.186.06-.264.176-.078.117-.195.38-.35.79l-6.06 15.572m3.717-5.21c-.097 0-.126-.06-.087-.176l2.4-6.82c.136-.37.283-.37.44 0l2.545 6.82c.02.117-.01.176-.088.176h-5.21M139.275 23.538c0 1.21-.01 2.283-.03 3.22 0 .936-.038 1.658-.116 2.165-.06.37-.128.683-.206.937-.058.253-.214.4-.468.44-.117.018-.254.048-.41.087-.136.02-.263.03-.38.03-.137 0-.205.048-.205.145 0 .137.137.205.41.205.215 0 .46-.01.732-.03.273 0 .547-.01.82-.028.273 0 .507-.01.702-.03h.908c.33.02.702.038 1.112.058.41.04.82.058 1.23.058.428.02.76.03.994.03 1.093 0 2.04-.156 2.84-.47.82-.31 1.492-.72 2.02-1.228.545-.527.945-1.122 1.2-1.785.272-.664.41-1.347.41-2.05 0-.702-.147-1.336-.44-1.902-.293-.584-.664-1.09-1.112-1.52-.43-.43-.918-.79-1.464-1.084-.527-.292-1.034-.517-1.522-.673.332-.293.654-.585.966-.878.312-.312.585-.644.82-.995.253-.35.448-.732.585-1.142.157-.41.235-.858.235-1.346 0-.332-.078-.712-.234-1.142-.155-.448-.438-.868-.848-1.258s-.966-.722-1.668-.995c-.703-.274-1.59-.41-2.664-.41-.605 0-1.18.01-1.727.03-.546.02-.975.028-1.288.028h-.38c-.195-.02-.44-.03-.732-.03h-.936c-.332-.018-.644-.028-.937-.028-.273 0-.41.068-.41.205 0 .097.07.146.205.146.117 0 .264.01.44.03.194 0 .34.01.438.03.43.057.703.203.82.438.117.234.195.565.234.995.02.196.03.41.03.645.02.214.028.517.028.907v8.195m2.225-10.42c0-.117.107-.204.322-.263.214-.04.45-.068.702-.088.254-.02.46-.03.615-.03.643 0 1.19.128 1.638.382.468.234.85.546 1.142.936.292.37.507.8.643 1.288.137.468.205.937.205 1.405 0 .605-.097 1.122-.292 1.55-.196.43-.43.8-.703 1.114-.273.293-.585.48-.936.557-.332.058-.86.087-1.58.087-.49 0-.86-.01-1.113-.03-.234-.038-.39-.067-.47-.087-.116-.02-.174-.107-.174-.263v-6.556m0 7.932c0-.117.05-.176.146-.176h1.025c.215 0 .41.01.586.03.195 0 .332.01.41.03.312.057.663.116 1.053.174.39.04.81.195 1.258.468.507.332.917.703 1.23 1.113.33.39.585.8.76 1.228.176.41.293.81.352 1.2.078.39.117.722.117.995 0 .8-.117 1.454-.352 1.96-.234.49-.536.88-.907 1.172-.37.273-.78.46-1.23.556-.43.1-.858.148-1.287.148-.233 0-.584-.02-1.053-.06-.45-.038-.85-.136-1.2-.292-.195-.097-.35-.195-.468-.292-.1-.098-.177-.205-.235-.322-.06-.137-.098-.303-.117-.498-.02-.215-.04-.468-.06-.76 0-.098-.01-.333-.028-.703v-1.346-1.64-2.984M155.08 21.313c0 1.112.196 2.254.586 3.425.39 1.15.995 2.205 1.815 3.16.82.937 1.864 1.708 3.133 2.313 1.268.586 2.78.88 4.536.88 1.54 0 2.946-.264 4.214-.79 1.288-.548 2.38-1.28 3.278-2.196.898-.917 1.59-1.99 2.08-3.22.506-1.25.76-2.566.76-3.95 0-1.445-.264-2.743-.79-3.894-.508-1.15-1.22-2.127-2.137-2.927-.898-.82-1.97-1.444-3.22-1.873-1.25-.43-2.595-.644-4.04-.644-1.775 0-3.307.322-4.595.966-1.287.624-2.35 1.424-3.19 2.4-.82.956-1.434 2.01-1.844 3.16-.39 1.133-.585 2.196-.585 3.19m2.664-.672c0-1.346.186-2.527.556-3.542.37-1.014.878-1.853 1.522-2.517.664-.682 1.444-1.19 2.342-1.52.917-.352 1.912-.528 2.985-.528 1.014 0 1.98.195 2.897.586.937.39 1.756.966 2.46 1.727.72.76 1.287 1.717 1.696 2.868.43 1.132.644 2.44.644 3.922 0 1.795-.253 3.25-.76 4.36-.508 1.094-1.132 1.943-1.874 2.548-.722.605-1.483 1.014-2.283 1.23-.78.194-1.463.292-2.05.292-1.17 0-2.253-.215-3.248-.644-.975-.448-1.834-1.082-2.575-1.902-.722-.82-1.288-1.805-1.698-2.956-.41-1.17-.616-2.478-.616-3.922M181.336 23.538c0 1.21-.01 2.283-.03 3.22 0 .936-.04 1.658-.117 2.165-.06.37-.128.673-.206.908-.058.215-.214.352-.468.41-.117.04-.254.07-.41.088-.136.02-.263.03-.38.03-.137 0-.205.068-.205.204 0 .137.137.205.41.205.196 0 .44-.01.732-.03.293 0 .566-.01.82-.028.273 0 .507-.01.702-.03h.615c.214.02.467.03.76.03.312.018.644.028.995.028.37.02.732.03 1.083.03.273 0 .41-.07.41-.206 0-.136-.068-.205-.205-.205-.117 0-.293-.01-.527-.03-.234-.018-.44-.048-.614-.087-.39-.058-.654-.195-.79-.41-.118-.234-.196-.536-.235-.907-.058-.507-.097-1.22-.117-2.136V22.98c0-.135.06-.203.176-.203l3.278.058c.136 0 .254.05.35.146.138.177.304.4.5.675.213.273.438.575.672.907.254.312.517.654.79 1.024.273.352.546.693.82 1.025.74.937 1.366 1.708 1.873 2.313.526.605 1.072 1.054 1.638 1.347.332.175.683.302 1.054.38.39.078.956.117 1.697.117h1.61c.233 0 .39-.02.467-.058.098-.02.147-.07.147-.148 0-.136-.078-.205-.234-.205h-.322c-.137-.02-.332-.048-.586-.087-.33-.04-.722-.157-1.17-.352-.45-.214-1.015-.673-1.698-1.375-.742-.78-1.56-1.717-2.46-2.81-.896-1.093-1.872-2.303-2.926-3.63 1.19-1.014 2.01-1.98 2.46-2.897.467-.937.7-1.864.7-2.78 0-.43-.067-.82-.203-1.172-.118-.37-.274-.702-.47-.995-.174-.294-.37-.537-.584-.733-.194-.214-.37-.38-.526-.497-.683-.468-1.454-.76-2.312-.878-.84-.137-1.67-.205-2.488-.205-.195 0-.47.01-.82.03H184c-.333 0-.635.01-.908.028h-.878c-.215-.02-.47-.03-.76-.03h-.967c-.332-.018-.644-.028-.937-.028-.273 0-.41.068-.41.205 0 .136.07.205.205.205.117 0 .264.01.44.03.194 0 .34.01.438.028.43.06.703.195.82.41.117.215.195.537.234.966.02.196.03.41.03.645.02.214.03.517.03.907v8.196m2.223-10.274c0-.117.068-.215.205-.293.137-.038.38-.067.732-.087.35-.04.722-.058 1.112-.058 1.384 0 2.467.43 3.248 1.288.8.84 1.2 2.04 1.2 3.6 0 .956-.146 1.756-.44 2.4-.292.644-.663 1.112-1.11 1.405-.314.215-.636.34-.967.38-.33.04-.653.06-.965.06-.293 0-.586-.01-.878-.03-.293-.02-.576-.05-.85-.088-.253-.04-.477-.078-.672-.117-.195-.04-.342-.088-.44-.146-.116-.078-.175-.186-.175-.322v-7.99" style="-inkscape-font-specification:TrajanPro-Bold" font-size="49.046" font-weight="bold" font-family="Trajan Pro"/><path d="M199.278 28.016c-.254.624-.537 1.14-.85 1.55-.292.41-.73.655-1.316.733-.098.018-.225.038-.38.057h-.38c-.157 0-.236.07-.236.205 0 .137.166.205.498.205.254 0 .517-.01.79-.03.293 0 .556-.01.79-.028.254 0 .47-.01.644-.03h.76c.197.02.41.03.645.03.235.018.47.028.703.028.234.02.43.03.585.03.255 0 .382-.07.382-.206 0-.136-.088-.205-.264-.205h-.234c-.214 0-.42-.048-.614-.146-.176-.097-.264-.272-.264-.526 0-.45.127-1.005.38-1.668l1.464-3.98c.06-.137.146-.206.264-.206h5.94c.1 0 .177.05.235.147l2.312 5.707c.097.215.097.37 0 .468-.078.098-.156.166-.234.205-.06.04-.108.07-.147.088-.02 0-.028.03-.028.088 0 .078.088.127.263.146.176 0 .39.01.644.028.448.02.887.03 1.316.03.45.02.86.03 1.23.03h1.522c.156 0 .293-.02.41-.06.117-.02.175-.068.175-.146 0-.078-.04-.127-.117-.146-.058-.04-.127-.06-.205-.06-.135 0-.29-.01-.467-.028-.176-.02-.36-.06-.556-.117-.137-.038-.283-.097-.44-.175-.155-.078-.33-.214-.526-.41-.175-.195-.37-.458-.584-.79-.196-.332-.41-.78-.644-1.346-.274-.626-.605-1.406-.996-2.343-.37-.956-.77-1.96-1.2-3.015-.43-1.053-.868-2.117-1.317-3.19-.43-1.093-.83-2.088-1.2-2.985-.372-.918-.693-1.698-.967-2.342-.253-.644-.42-1.054-.497-1.23l-.322-.643c-.06-.176-.156-.264-.293-.264-.096 0-.184.06-.262.176-.078.117-.195.38-.352.79l-6.058 15.572m3.717-5.21c-.098 0-.127-.06-.088-.176l2.4-6.82c.137-.37.283-.37.44 0l2.546 6.82c.02.117-.01.176-.088.176h-5.21M223.63 13.088l3.22.06c.604.018 1.102.067 1.492.145.41.06.722.156.937.293.233.117.4.254.496.41.098.156.156.33.176.527l.03.263c.02.176.038.293.058.35.038.06.087.09.146.09.156 0 .234-.108.234-.323v-.468c.02-.234.03-.488.03-.76.02-.294.03-.587.03-.88.018-.292.028-.536.028-.73 0-.196-.04-.294-.117-.294-.058 0-.146.01-.263.03-.117.02-.273.05-.468.088-.216.04-.47.07-.762.088-.293.02-.654.03-1.083.03h-9.717c-.157 0-.44-.01-.85-.03-.41-.02-.8-.05-1.17-.088-.35-.04-.605-.097-.76-.175-.157-.078-.284-.117-.382-.117-.038 0-.087.058-.146.175-.04.118-.078.216-.117.294 0 .058-.03.224-.088.497-.058.255-.127.538-.205.85-.058.293-.117.576-.175.85-.06.272-.088.438-.088.497 0 .078.02.136.058.175.04.02.078.03.117.03.137 0 .225-.08.264-.235.04-.097.078-.195.117-.292.04-.117.136-.283.293-.498.195-.293.468-.488.82-.585.37-.117.965-.186 1.785-.205l3.718-.06v10.45c0 1.21-.01 2.283-.03 3.22 0 .937-.03 1.66-.087 2.166-.038.37-.107.673-.204.907-.098.235-.283.38-.556.44-.117.038-.244.068-.38.087-.137.02-.264.03-.38.03-.138 0-.206.058-.206.175 0 .137.137.205.41.205.195 0 .43-.01.702-.03.293 0 .576-.01.85-.03.292 0 .536-.01.73-.028h.732c.215.02.47.028.76.028.314.02.645.03.997.03.37.02.73.03 1.083.03.273 0 .41-.07.41-.206 0-.137-.07-.205-.206-.205-.117 0-.302-.01-.556-.03-.234-.02-.44-.048-.614-.087-.39-.058-.644-.195-.76-.41-.118-.234-.196-.536-.235-.907-.06-.507-.098-1.23-.118-2.166v-13.67M233.23 21.313c0 1.112.195 2.254.586 3.425.39 1.15.995 2.205 1.814 3.16.82.937 1.864 1.708 3.132 2.313 1.27.586 2.78.88 4.537.88 1.54 0 2.945-.264 4.214-.79 1.288-.548 2.38-1.28 3.278-2.196.898-.917 1.59-1.99 2.078-3.22.507-1.25.76-2.566.76-3.95 0-1.445-.262-2.743-.79-3.894-.506-1.15-1.22-2.127-2.136-2.927-.897-.82-1.97-1.444-3.22-1.873-1.248-.43-2.595-.644-4.04-.644-1.774 0-3.306.322-4.594.966-1.288.624-2.35 1.424-3.19 2.4-.82.956-1.435 2.01-1.844 3.16-.39 1.133-.586 2.196-.586 3.19m2.664-.672c0-1.346.185-2.527.556-3.542.37-1.014.878-1.853 1.522-2.517.663-.682 1.444-1.19 2.342-1.52.917-.352 1.912-.528 2.985-.528 1.014 0 1.98.195 2.897.586.936.39 1.756.966 2.458 1.727.722.76 1.288 1.717 1.698 2.868.43 1.132.644 2.44.644 3.922 0 1.795-.254 3.25-.76 4.36-.508 1.094-1.133 1.943-1.874 2.548-.722.605-1.483 1.014-2.283 1.23-.78.194-1.464.292-2.05.292-1.17 0-2.253-.215-3.248-.644-.976-.448-1.834-1.082-2.576-1.902-.722-.82-1.288-1.805-1.697-2.956-.41-1.17-.616-2.478-.616-3.922M259.485 23.538c0 1.21-.01 2.283-.03 3.22 0 .936-.038 1.658-.116 2.165-.06.37-.128.673-.206.908-.06.215-.215.352-.47.41-.116.04-.252.07-.408.088-.137.02-.264.03-.38.03-.137 0-.206.068-.206.204 0 .137.137.205.41.205.195 0 .44-.01.732-.03.292 0 .566-.01.82-.028.273 0 .507-.01.702-.03h.613c.216.02.47.03.762.03.312.018.643.028.995.028.37.02.73.03 1.083.03.273 0 .41-.07.41-.206 0-.136-.07-.205-.206-.205-.117 0-.292-.01-.526-.03-.235-.018-.44-.048-.615-.087-.39-.058-.653-.195-.79-.41-.116-.234-.194-.536-.233-.907-.06-.507-.098-1.22-.118-2.136V22.98c0-.135.058-.203.175-.203l3.278.058c.137 0 .254.05.35.146.138.177.304.4.5.675.214.273.438.575.672.907.254.312.517.654.79 1.024.274.352.547.693.82 1.025.742.937 1.366 1.708 1.873 2.313.527.605 1.074 1.054 1.64 1.347.33.175.682.302 1.053.38.39.078.957.117 1.7.117h1.61c.233 0 .39-.02.467-.058.097-.02.146-.07.146-.148 0-.136-.078-.205-.234-.205h-.323c-.136-.02-.332-.048-.585-.087-.332-.04-.722-.157-1.17-.352-.45-.214-1.016-.673-1.7-1.375-.74-.78-1.56-1.717-2.457-2.81-.898-1.093-1.874-2.303-2.927-3.63 1.19-1.014 2.01-1.98 2.458-2.897.47-.937.703-1.864.703-2.78 0-.43-.07-.82-.206-1.172-.117-.37-.273-.702-.468-.995-.176-.294-.37-.537-.586-.733-.195-.214-.37-.38-.527-.497-.683-.468-1.453-.76-2.312-.878-.838-.137-1.667-.205-2.487-.205-.195 0-.468.01-.82.03h-.995c-.33 0-.634.01-.907.028h-.876c-.216-.02-.47-.03-.762-.03h-.966c-.332-.018-.644-.028-.936-.028-.274 0-.41.068-.41.205 0 .136.068.205.205.205.117 0 .263.01.44.03.194 0 .34.01.438.028.43.06.702.195.82.41.116.215.194.537.233.966.02.196.03.41.03.645.02.214.03.517.03.907v8.196m2.223-10.274c0-.117.068-.215.204-.293.137-.038.38-.067.732-.087.35-.04.722-.058 1.112-.058 1.386 0 2.47.43 3.25 1.288.8.84 1.2 2.04 1.2 3.6 0 .956-.147 1.756-.44 2.4-.293.644-.663 1.112-1.112 1.405-.312.215-.634.34-.966.38-.332.04-.654.06-.966.06-.293 0-.585-.01-.878-.03-.293-.02-.576-.05-.85-.088-.253-.04-.477-.078-.672-.117-.195-.04-.342-.088-.44-.146-.116-.078-.175-.186-.175-.322v-7.99M281.905 19.147v-2.34-1.465-.907c.02-.234.03-.45.03-.644.038-.448.107-.77.204-.965.117-.195.35-.332.702-.41.156-.04.273-.058.35-.058h.294c.136 0 .205-.07.205-.205 0-.137-.136-.205-.41-.205-.194 0-.438.01-.73.03h-.82c-.254 0-.488.01-.703.028H280.355c-.196-.02-.43-.03-.703-.03h-.82c-.273-.018-.517-.028-.732-.028-.273 0-.41.068-.41.205 0 .136.07.205.205.205.098 0 .215.01.352.03.136 0 .283.018.44.057.272.06.467.196.584.41.118.195.196.508.235.937.02.196.03.41.03.645.02.214.03.517.03.907v8.196c0 1.21-.01 2.283-.03 3.22-.02.936-.06 1.658-.118 2.165-.038.37-.097.673-.175.908-.078.215-.244.352-.498.41-.117.04-.254.07-.41.088-.136.02-.263.03-.38.03-.137 0-.205.068-.205.204 0 .137.136.205.41.205.194 0 .428-.01.7-.03.274 0 .538-.01.79-.028.275 0 .51-.01.704-.03h.673c.215.02.478.03.79.03.313.018.654.028 1.025.028.37.02.732.03 1.083.03.273 0 .41-.07.41-.206 0-.136-.07-.205-.205-.205-.117 0-.293-.01-.527-.03-.234-.018-.45-.048-.644-.087-.39-.058-.635-.195-.733-.41-.097-.234-.166-.536-.205-.907-.058-.507-.097-1.23-.117-2.166V19.147M288.257 21.313c0 1.112.195 2.254.585 3.425.39 1.15.995 2.205 1.815 3.16.82.937 1.863 1.708 3.132 2.313 1.267.586 2.78.88 4.536.88 1.54 0 2.946-.264 4.214-.79 1.288-.548 2.38-1.28 3.28-2.196.896-.917 1.59-1.99 2.077-3.22.507-1.25.76-2.566.76-3.95 0-1.445-.263-2.743-.79-3.894-.507-1.15-1.22-2.127-2.136-2.927-.897-.82-1.97-1.444-3.22-1.873-1.248-.43-2.594-.644-4.038-.644-1.776 0-3.308.322-4.595.966-1.288.624-2.352 1.424-3.19 2.4-.82.956-1.435 2.01-1.845 3.16-.39 1.133-.585 2.196-.585 3.19m2.663-.672c0-1.346.186-2.527.556-3.542.37-1.014.88-1.853 1.523-2.517.662-.682 1.442-1.19 2.34-1.52.917-.352 1.912-.528 2.986-.528 1.014 0 1.98.195 2.897.586.937.39 1.756.966 2.46 1.727.72.76 1.287 1.717 1.697 2.868.43 1.132.643 2.44.643 3.922 0 1.795-.253 3.25-.76 4.36-.508 1.094-1.132 1.943-1.874 2.548-.723.605-1.484 1.014-2.284 1.23-.78.194-1.463.292-2.05.292-1.17 0-2.252-.215-3.248-.644-.975-.448-1.834-1.082-2.575-1.902-.722-.82-1.288-1.805-1.698-2.956-.41-1.17-.615-2.478-.615-3.922M334.707 31.177c.47 0 .947-.02 1.435-.06.507-.018.995-.057 1.463-.116.468-.038.907-.106 1.317-.204.41-.078.76-.175 1.054-.292.273-.117.44-.215.498-.293.078-.097.165-.282.263-.555.078-.254.156-.576.234-.966.08-.41.147-.81.206-1.2.06-.39.107-.733.146-1.025.04-.313.06-.498.06-.557 0-.117-.02-.214-.06-.292-.02-.098-.068-.147-.146-.147-.137 0-.234.146-.293.438-.04.274-.156.674-.35 1.2-.177.508-.42.927-.733 1.26-.585.604-1.307 1.004-2.166 1.2-.84.175-1.814.263-2.927.263-1.56 0-2.995-.292-4.302-.878-1.288-.604-2.4-1.395-3.337-2.37-.917-.996-1.64-2.137-2.166-3.425-.507-1.288-.76-2.634-.76-4.04 0-1.502.165-2.887.497-4.155.35-1.288 1.062-2.45 2.135-3.483.254-.255.566-.51.937-.762.37-.254.82-.478 1.346-.674.547-.214 1.18-.38 1.903-.497.723-.137 1.572-.205 2.547-.205 1.288 0 2.46.166 3.513.498 1.053.33 1.834.722 2.34 1.17.392.332.694.77.91 1.317.213.547.32 1.103.32 1.67 0 .41.08.613.235.613.156 0 .244-.204.263-.614v-.527c.02-.235.03-.5.03-.79v-.88c.02-.312.038-.585.058-.82.04-.526.068-.897.088-1.11.04-.235.058-.41.058-.528 0-.098-.03-.166-.088-.205-.04-.058-.136-.097-.292-.117-.47-.04-.947-.098-1.434-.176-.47-.078-.986-.165-1.552-.263-.722-.136-1.463-.223-2.224-.263-.76-.058-1.434-.087-2.02-.087-1.132 0-2.156.087-3.073.263-.9.156-1.708.37-2.43.644-.722.273-1.366.605-1.932.995-.566.39-1.064.8-1.493 1.23-.644.643-1.18 1.336-1.61 2.078-.43.722-.77 1.444-1.024 2.166-.233.702-.4 1.385-.497 2.048-.097.644-.146 1.21-.146 1.698 0 .703.05 1.434.146 2.195.117.742.303 1.483.556 2.225.273.74.633 1.473 1.082 2.195.47.722 1.054 1.405 1.756 2.05 1.17 1.053 2.518 1.843 4.04 2.37 1.54.527 3.414.79 5.62.79M349.928 19.147v-2.34-1.465-.907c.02-.234.03-.45.03-.644.038-.448.106-.77.204-.965.117-.215.37-.36.76-.44.157-.02.313-.028.47-.028.155-.02.282-.03.38-.03.136 0 .205-.058.205-.175 0-.137-.137-.205-.41-.205-.195 0-.45.01-.76.03h-.91c-.29 0-.555.01-.79.03h-.73c-.196-.02-.44-.03-.732-.03h-.908c-.33-.02-.644-.03-.936-.03-.272 0-.41.068-.41.205 0 .136.07.205.206.205.117 0 .263.01.44.03.194 0 .34.01.438.028.43.06.702.195.82.41.117.215.195.537.234.966.02.196.03.41.03.645.018.214.028.517.028.907v8.196c0 1.21-.01 2.283-.03 3.22 0 .936-.038 1.658-.116 2.165-.06.37-.127.673-.205.908-.06.215-.215.352-.468.41-.117.04-.254.07-.41.088-.137.02-.264.03-.38.03-.137 0-.206.068-.206.204 0 .137.138.205.41.205.216 0 .45-.01.704-.03.253 0 .517-.01.79-.028.254-.02.478-.03.673-.03H349.987c.448.02.965.038 1.55.058 1.19.06 2.684.088 4.48.088.35 0 .623-.01.818-.03.195-.02.342-.048.44-.087.116-.04.194-.1.234-.177.057-.097.106-.224.145-.38.058-.176.107-.39.146-.644.04-.274.08-.528.118-.762.04-.254.07-.478.088-.673.02-.215.03-.352.03-.41 0-.254-.06-.38-.176-.38-.137 0-.225.107-.264.32-.04.255-.117.51-.234.762-.098.234-.224.45-.38.644-.313.372-.742.596-1.288.674-.527.06-1.132.088-1.815.088-1.016 0-1.786-.04-2.313-.117-.527-.098-.898-.254-1.112-.468-.118-.117-.215-.303-.293-.556-.06-.253-.108-.595-.147-1.024-.04-.45-.068-.995-.087-1.64v-6.82M366.084 19.147v-2.34-1.465-.907c.02-.234.03-.45.03-.644.04-.448.107-.77.205-.965.116-.195.35-.332.7-.41.157-.04.274-.058.352-.058h.293c.137 0 .205-.07.205-.205 0-.137-.137-.205-.41-.205-.195 0-.44.01-.732.03h-.82c-.253 0-.487.01-.702.028H364.534c-.196-.02-.43-.03-.703-.03h-.82c-.272-.018-.516-.028-.73-.028-.274 0-.41.068-.41.205 0 .136.068.205.205.205.097 0 .214.01.35.03.137 0 .284.018.44.057.273.06.468.196.585.41.117.195.195.508.234.937.02.196.03.41.03.645.02.214.03.517.03.907v8.196c0 1.21-.01 2.283-.03 3.22-.02.936-.06 1.658-.118 2.165-.04.37-.097.673-.175.908-.077.215-.243.352-.497.41-.117.04-.253.07-.41.088-.136.02-.263.03-.38.03-.137 0-.205.068-.205.204 0 .137.137.205.41.205.195 0 .43-.01.702-.03.274 0 .537-.01.79-.028.274 0 .508-.01.703-.03h.673c.215.02.478.03.79.03.313.018.654.028 1.025.028.372.02.733.03 1.084.03.273 0 .41-.07.41-.206 0-.136-.07-.205-.205-.205-.118 0-.294-.01-.528-.03-.234-.018-.45-.048-.644-.087-.39-.058-.634-.195-.732-.41-.097-.234-.166-.536-.205-.907-.057-.507-.096-1.23-.116-2.166V19.147m2.547-12.41c-.116-.176-.214-.263-.292-.263-.078 0-.176.03-.293.087-.097.04-.273.138-.526.294-.06.04-.255.156-.587.35-.312.177-.683.4-1.112.674-.41.254-.828.518-1.258.79-.43.274-.77.498-1.024.674-.137.078-.205.156-.205.234 0 .117.05.176.146.176.058 0 .204-.05.438-.147.235-.097.527-.205.878-.322.37-.136.76-.263 1.17-.38.41-.117.82-.225 1.23-.322.43-.097.82-.165 1.17-.204.255-.04.45-.05.587-.03.156.02.253.03.292.03.06 0 .108-.02.147-.058.058-.06.05-.157-.03-.293-.156-.293-.292-.537-.41-.732-.116-.215-.224-.4-.32-.556M376.446 15.635l.936 1.024c.45.468.976 1.024 1.58 1.668.606.624 1.26 1.317 1.962 2.078.722.74 1.454 1.502 2.195 2.283l2.165 2.223c.76.76 1.464 1.473 2.108 2.137l1.64 1.64c.467.428.73.672.79.73.35.332.633.596.848.79.235.196.42.352.557.47.156.097.273.165.35.204.08.04.147.06.206.06.04 0 .068-.02.088-.06.04-.02.06-.088.06-.205.02-.137.03-.323.03-.557.018-.234.028-.556.028-.966l.058-14.576c0-.37.01-.682.03-.935.02-.254.058-.46.117-.615.058-.176.146-.312.263-.41.117-.098.283-.166.498-.205.156-.04.283-.058.38-.058h.234c.098 0 .166-.03.205-.088.06-.06.088-.108.088-.147 0-.118-.155-.176-.467-.176-.527 0-.986.01-1.376.03-.39.02-.664.03-.82.028-.156 0-.497-.01-1.024-.03-.527-.018-1.083-.028-1.668-.028-.332 0-.498.058-.498.176 0 .04.01.087.03.146.02.057.077.087.175.087.097 0 .273.01.527.03.252.018.496.048.73.087.39.078.644.283.76.614.12.332.187.898.206 1.698l.264 12.47c-.195-.196-.508-.518-.937-.967-.41-.45-.897-.967-1.463-1.552-.547-.586-1.142-1.21-1.786-1.874-.624-.683-1.258-1.356-1.902-2.02-.995-1.014-1.96-2.01-2.898-2.985-.937-.976-1.776-1.854-2.517-2.635-.742-.78-1.356-1.424-1.844-1.932-.488-.527-.78-.84-.878-.936-.137-.137-.303-.293-.498-.47-.175-.194-.34-.29-.497-.29-.098 0-.186.086-.264.262-.058.155-.088.487-.088.994v14.254c0 .566-.01 1.044-.03 1.435-.018.37-.057.673-.116.907-.04.234-.107.41-.205.527-.097.117-.224.195-.38.234-.195.06-.4.1-.615.118-.195.02-.34.03-.44.03-.136 0-.204.068-.204.204 0 .137.137.205.41.205.585 0 1.112-.02 1.58-.058.488-.02.79-.03.908-.03.117 0 .41.01.878.03.488.038 1.102.057 1.844.057.312 0 .468-.068.468-.205 0-.136-.068-.205-.205-.205-.116 0-.3-.01-.555-.03-.254-.018-.497-.057-.732-.116-.175-.038-.322-.106-.44-.204-.116-.117-.213-.283-.29-.497-.08-.236-.138-.52-.177-.85-.04-.352-.068-.78-.088-1.288l-.292-11.737M402.613 19.147v-2.34-1.465-.907c.02-.234.03-.45.03-.644.038-.448.106-.77.204-.965.117-.195.35-.332.702-.41.155-.04.272-.058.35-.058h.293c.137 0 .205-.07.205-.205 0-.137-.137-.205-.41-.205-.195 0-.44.01-.73.03h-.82c-.255 0-.49.01-.703.028H401.06c-.194-.02-.428-.03-.7-.03h-.82c-.274-.018-.518-.028-.732-.028-.274 0-.41.068-.41.205 0 .136.068.205.205.205.097 0 .214.01.35.03.138 0 .284.018.44.057.273.06.468.196.585.41.117.195.195.508.235.937.02.196.03.41.03.645.018.214.028.517.028.907v8.196c0 1.21-.01 2.283-.028 3.22-.02.936-.06 1.658-.117 2.165-.04.37-.098.673-.176.908-.08.215-.245.352-.498.41-.118.04-.254.07-.41.088-.137.02-.264.03-.38.03-.137 0-.206.068-.206.204 0 .137.137.205.41.205.195 0 .43-.01.703-.03.272 0 .535-.01.79-.028.272 0 .506-.01.7-.03h.675c.214.02.478.03.79.03.312.018.654.028 1.024.028.37.02.73.03 1.082.03.273 0 .41-.07.41-.206 0-.136-.068-.205-.205-.205-.117 0-.293-.01-.527-.03-.234-.018-.45-.048-.644-.087-.39-.058-.634-.195-.73-.41-.1-.234-.167-.536-.206-.907-.06-.507-.098-1.23-.117-2.166V19.147M420.584 31.09c.84 0 1.688-.04 2.547-.118.88-.078 1.58-.224 2.108-.44.215-.097.35-.184.41-.262.078-.08.156-.235.234-.47.058-.213.127-.487.205-.818.078-.352.146-.693.205-1.025.058-.33.107-.624.146-.878.04-.274.06-.43.06-.47 0-.097-.03-.175-.09-.233-.038-.078-.087-.117-.146-.117-.097 0-.156.03-.175.087-.02.04-.05.127-.088.264-.04.235-.147.577-.323 1.025-.176.43-.4.78-.673 1.054-.508.506-1.103.828-1.786.965-.663.136-1.483.205-2.458.205-1.386 0-2.644-.244-3.776-.732-1.132-.488-2.107-1.14-2.927-1.96-.82-.84-1.454-1.806-1.902-2.9-.45-1.09-.674-2.233-.674-3.423 0-1.27.148-2.45.44-3.542.293-1.093.917-2.078 1.874-2.956.234-.215.507-.42.82-.615.33-.214.72-.4 1.17-.556.468-.175 1.015-.312 1.64-.41.623-.097 1.345-.146 2.165-.146 1.15 0 2.165.137 3.043.41.898.254 1.57.575 2.02.966.33.273.595.634.79 1.083.195.448.293.916.293 1.404 0 .35.068.527.204.526.176 0 .274-.175.293-.526v-.41c.02-.215.03-.44.03-.673v-.76c.02-.254.03-.488.03-.703.038-.45.067-.77.086-.966.02-.194.03-.34.03-.438 0-.175-.11-.263-.323-.263-.43-.02-.86-.06-1.288-.118-.41-.078-.86-.166-1.348-.264-.624-.097-1.278-.166-1.96-.205-.684-.058-1.28-.087-1.786-.087-.995 0-1.893.068-2.693.205-.78.137-1.493.332-2.137.586-.624.234-1.19.517-1.697.85-.49.31-.928.652-1.318 1.023-.566.565-1.044 1.16-1.434 1.785-.37.605-.664 1.21-.88 1.814-.213.604-.37 1.19-.467 1.755-.077.547-.116 1.025-.116 1.435 0 .585.04 1.2.117 1.844.1.644.265 1.288.5 1.93.233.626.555 1.25.965 1.875.41.604.926 1.18 1.55 1.726 1.016.878 2.196 1.54 3.543 1.99 1.346.45 2.995.673 4.946.673M429.6 21.313c0 1.112.194 2.254.585 3.425.39 1.15.995 2.205 1.814 3.16.82.937 1.863 1.708 3.13 2.313 1.27.586 2.782.88 4.538.88 1.54 0 2.946-.264 4.215-.79 1.288-.548 2.38-1.28 3.278-2.196.898-.917 1.59-1.99 2.08-3.22.506-1.25.76-2.566.76-3.95 0-1.445-.263-2.743-.79-3.894-.508-1.15-1.22-2.127-2.137-2.927-.898-.82-1.97-1.444-3.22-1.873-1.248-.43-2.595-.644-4.04-.644-1.774 0-3.306.322-4.594.966-1.29.624-2.352 1.424-3.19 2.4-.82.956-1.436 2.01-1.845 3.16-.39 1.133-.586 2.196-.586 3.19m2.663-.672c0-1.346.185-2.527.556-3.542.37-1.014.877-1.853 1.52-2.517.664-.682 1.445-1.19 2.342-1.52.917-.352 1.913-.528 2.986-.528 1.015 0 1.98.195 2.898.586.936.39 1.756.966 2.458 1.727.722.76 1.288 1.717 1.698 2.868.43 1.132.644 2.44.644 3.922 0 1.795-.254 3.25-.76 4.36-.51 1.094-1.133 1.943-1.875 2.548-.72.605-1.482 1.014-2.282 1.23-.78.194-1.463.292-2.048.292-1.17 0-2.254-.215-3.25-.644-.975-.448-1.834-1.082-2.575-1.902-.722-.82-1.288-1.805-1.698-2.956-.41-1.17-.614-2.478-.614-3.922M103.157 57.402c0 1.405-.01 2.664-.03 3.776 0 1.093-.038 1.95-.117 2.576-.058.43-.146.79-.263 1.083-.098.292-.293.468-.585.527-.137.04-.283.068-.44.087-.156.02-.302.03-.44.03-.155 0-.233.06-.233.176 0 .156.155.234.468.234.214 0 .478-.01.79-.03.312-.018.614-.028.907-.028.312-.02.576-.03.79-.03h.38c.08 0 .342.02.79.06.45.038.996.077 1.64.116.625.04 1.298.078 2.02.117.74.04 1.424.06 2.05.06 1.248 0 2.35-.118 3.306-.352.957-.215 1.796-.488 2.518-.82.722-.35 1.327-.722 1.815-1.112.507-.39.917-.75 1.23-1.082.41-.43.8-.927 1.17-1.493.39-.566.732-1.19 1.025-1.873.292-.702.526-1.463.702-2.283.176-.82.264-1.69.264-2.606 0-.878-.08-1.688-.235-2.43-.157-.74-.37-1.414-.645-2.02-.253-.623-.556-1.18-.907-1.667-.332-.488-.683-.927-1.054-1.317-.878-.898-1.844-1.57-2.897-2.02-1.054-.468-2.117-.8-3.19-.995-1.074-.195-2.108-.293-3.103-.293-.976-.02-1.825-.03-2.547-.03-.448 0-.888.01-1.317.03-.43 0-.83.01-1.2.03-.35 0-.663.01-.936.03H103.976c-.214-.02-.488-.03-.82-.03-.312-.02-.653-.03-1.024-.03-.37-.02-.722-.03-1.053-.03-.314 0-.47.08-.47.235 0 .117.078.176.234.176.137 0 .303.01.498.03.215 0 .38.018.498.057.487.098.81.274.965.527.156.254.254.634.293 1.142.02.233.03.487.03.76.02.254.03.605.03 1.054V57.402m2.457-5.62v-1.785-1.785-1.58c.02-.47.03-.83.03-1.084 0-.292.116-.487.35-.585.06-.02.157-.04.293-.06.156-.038.332-.067.527-.086.195-.02.38-.03.556-.03.196-.02.372-.03.528-.03.878 0 1.737.04 2.576.118.858.06 1.688.205 2.488.44.8.234 1.58.575 2.34 1.024.762.428 1.484 1.004 2.167 1.726.292.312.604.702.936 1.17.332.45.634.986.907 1.61.293.605.527 1.288.703 2.05.175.76.263 1.61.263 2.546 0 .683-.05 1.356-.147 2.02-.098.663-.254 1.307-.47 1.93-.194.606-.438 1.172-.73 1.7-.293.525-.625.974-.995 1.345-.88.878-1.922 1.55-3.132 2.02-1.19.468-2.47.702-3.835.702-.857 0-1.59-.03-2.194-.09-.585-.077-1.073-.174-1.463-.29-.37-.12-.664-.245-.878-.382-.195-.137-.342-.273-.44-.41-.058-.078-.107-.205-.146-.38-.04-.176-.07-.37-.09-.586-.018-.214-.037-.43-.057-.644-.02-.234-.03-.44-.03-.614 0-.137-.01-.4-.028-.79 0-.39-.01-.87-.03-1.435v-1.903-5.855M127.83 44.377c0 .84-.106 1.63-.32 2.37-.216.743-.43 1.348-.645 1.816-.078.176-.117.302-.117.38 0 .098.05.147.146.147.156 0 .283-.078.38-.234.254-.313.528-.683.82-1.113.293-.448.566-.926.82-1.434.254-.528.458-1.064.615-1.61.174-.547.262-1.084.262-1.61 0-.215-.04-.37-.117-.47-.078-.096-.205-.194-.38-.29-.118-.04-.274-.09-.47-.148-.175-.058-.36-.117-.555-.175-.195-.06-.39-.108-.585-.147-.176-.04-.322-.058-.44-.058-.058 0-.117.02-.175.058-.06.04-.088.078-.088.117 0 .078.01.147.03.205.038.06.116.156.233.293.098.117.215.35.352.702.156.352.234.752.234 1.2M133.597 54.797c0 1.327.215 2.674.644 4.04.43 1.346 1.103 2.575 2.02 3.688.918 1.112 2.088 2.02 3.513 2.722 1.444.702 3.17 1.053 5.18 1.053 1.757 0 3.357-.312 4.8-.936 1.445-.644 2.674-1.503 3.69-2.576 1.013-1.093 1.794-2.36 2.34-3.805.566-1.464.85-3.015.85-4.654 0-1.7-.294-3.22-.88-4.567-.584-1.366-1.394-2.517-2.428-3.454-1.015-.957-2.225-1.69-3.63-2.196-1.405-.507-2.927-.76-4.566-.76-1.347 0-2.567.175-3.66.526-1.092.332-2.068.79-2.926 1.376-.86.585-1.6 1.268-2.225 2.048-.606.76-1.113 1.57-1.523 2.43-.41.84-.712 1.697-.907 2.575-.195.878-.293 1.707-.293 2.487m2.78-.82c0-1.6.215-2.994.645-4.185.43-1.21 1.024-2.214 1.785-3.014.76-.82 1.66-1.425 2.693-1.815 1.053-.41 2.195-.615 3.424-.615 1.152 0 2.264.234 3.337.703 1.074.47 2.02 1.162 2.84 2.08.82.896 1.473 2.018 1.96 3.365.51 1.346.762 2.897.762 4.654 0 2.126-.302 3.852-.907 5.18-.586 1.307-1.308 2.32-2.166 3.043-.84.722-1.718 1.21-2.635 1.464-.917.234-1.708.35-2.37.35-1.328 0-2.557-.262-3.69-.79-1.13-.526-2.126-1.277-2.985-2.253-.84-.976-1.502-2.156-1.99-3.542-.468-1.385-.702-2.927-.702-4.624M162.223 58.66c0 1.21-.01 2.284-.03 3.22 0 .937-.038 1.66-.117 2.167-.058.37-.126.673-.204.907-.06.215-.215.35-.47.41-.116.04-.252.068-.41.087-.135.02-.262.03-.38.03-.136 0-.204.07-.204.206 0 .136.137.204.41.204.195 0 .44-.01.732-.03.292 0 .565-.01.82-.028.272 0 .506-.01.702-.03h.614c.215.02.47.03.76.03.313.02.645.03.996.03.37.02.732.028 1.083.028.274 0 .41-.068.41-.204 0-.137-.068-.205-.205-.205-.117 0-.292-.01-.527-.03-.234-.018-.44-.047-.614-.086-.392-.06-.655-.195-.792-.41-.117-.234-.195-.537-.234-.907-.058-.508-.097-1.22-.117-2.137v-3.805c0-.137.06-.205.176-.205l3.278.058c.138 0 .255.05.352.147.137.175.303.4.498.673.215.273.44.576.673.907.254.313.517.654.79 1.025.273.35.547.692.82 1.024.74.937 1.366 1.708 1.873 2.312.527.605 1.073 1.054 1.64 1.347.33.176.682.302 1.053.38.39.078.955.117 1.697.117h1.61c.233 0 .39-.02.468-.058.097-.02.146-.068.146-.146 0-.137-.077-.205-.233-.205h-.322c-.137-.02-.332-.048-.585-.087-.332-.04-.722-.156-1.17-.35-.45-.216-1.016-.675-1.7-1.377-.74-.78-1.56-1.717-2.458-2.81-.897-1.093-1.873-2.302-2.926-3.63 1.19-1.014 2.01-1.98 2.458-2.897.468-.938.703-1.864.703-2.782 0-.43-.07-.82-.205-1.17-.117-.37-.273-.703-.47-.995-.174-.293-.37-.537-.584-.732-.195-.214-.37-.38-.527-.497-.682-.468-1.453-.76-2.31-.878-.84-.136-1.67-.205-2.49-.205-.194 0-.467.01-.82.03h-.994c-.33 0-.634.01-.907.03h-.88c-.214-.02-.467-.03-.76-.03h-.966c-.332-.02-.644-.03-.937-.03-.273 0-.41.07-.41.205 0 .137.07.205.205.205.118 0 .264.01.44.03.195 0 .34.01.44.03.428.057.7.194.818.408.117.215.195.537.234.966.02.195.03.41.03.644.02.215.03.517.03.907V58.66m2.223-10.273c0-.117.068-.214.205-.292.137-.04.38-.07.732-.088.35-.04.722-.06 1.112-.06 1.385 0 2.468.43 3.25 1.29.8.838 1.2 2.038 1.2 3.6 0 .955-.147 1.755-.44 2.4-.293.643-.664 1.112-1.112 1.404-.313.216-.635.343-.966.382-.332.04-.654.058-.966.058-.293 0-.586-.01-.878-.03-.293-.018-.576-.048-.85-.087-.253-.04-.477-.078-.672-.117-.195-.04-.342-.088-.44-.146-.116-.078-.175-.186-.175-.322v-7.99M184.643 54.27v-2.34-1.465-.907c.02-.234.03-.45.03-.644.038-.45.106-.77.204-.966.117-.195.35-.33.702-.41.156-.038.273-.058.35-.058h.293c.137 0 .205-.068.205-.205 0-.136-.136-.205-.41-.205-.195 0-.44.01-.73.03h-.82c-.254 0-.49.01-.703.03H183.093c-.197-.02-.43-.03-.704-.03h-.82c-.274-.02-.518-.03-.732-.03-.273 0-.41.07-.41.205 0 .137.068.205.205.205.097 0 .215.01.35.03.138 0 .284.02.44.058.273.058.468.195.586.41.116.195.194.507.233.936.02.195.03.41.03.644.02.215.028.517.028.907V58.66c0 1.21-.01 2.284-.028 3.22-.02.937-.06 1.66-.117 2.166-.04.37-.098.674-.176.908-.08.214-.245.35-.498.41-.117.04-.254.068-.41.087-.137.02-.264.03-.38.03-.137 0-.206.07-.206.205 0 .137.137.205.41.205.195 0 .43-.01.703-.03.272 0 .535-.01.79-.028.272 0 .506-.01.7-.03h.675c.214.02.478.03.79.03.312.02.654.03 1.024.03.37.02.73.028 1.082.028.273 0 .41-.068.41-.205 0-.136-.068-.204-.205-.204-.117 0-.293-.01-.527-.03-.234-.018-.448-.047-.644-.086-.39-.06-.634-.196-.73-.41-.1-.234-.167-.537-.206-.908-.06-.507-.098-1.23-.117-2.165V54.27M194.214 58.66c0 1.21-.01 2.284-.03 3.22 0 .937-.038 1.66-.116 2.167-.06.37-.127.673-.205.907-.06.234-.215.37-.468.41-.118.02-.254.048-.41.087-.137.02-.264.03-.38.03-.137 0-.206.07-.206.206 0 .136.136.204.41.204.214 0 .448-.01.702-.03.273 0 .536-.01.79-.028.273-.02.517-.03.732-.03h1.17c.352 0 .8.02 1.347.06.528.02 1.162.038 1.903.058.742.02 1.6.03 2.576.03.253 0 .458-.01.614-.03.175 0 .312-.02.41-.06.097-.038.175-.096.234-.174.078-.098.136-.225.175-.38.04-.137.078-.323.117-.557l.117-.762c.04-.273.07-.507.088-.702.02-.215.03-.342.03-.38 0-.1-.01-.186-.03-.264-.02-.078-.068-.117-.146-.117-.118 0-.206.126-.265.38-.078.507-.214.888-.41 1.142-.175.234-.43.43-.76.585-.332.137-.76.215-1.288.234-.527.02-.956.03-1.288.03-.645 0-1.162-.02-1.552-.06-.39-.058-.703-.155-.937-.292-.214-.156-.36-.36-.438-.614-.078-.274-.127-.615-.146-1.025v-.732-1.258-1.288-3.043c0-.117.058-.176.175-.176h.704c.35 0 .732.01 1.14.03.41 0 .81.01 1.2.03.392.018.674.038.85.057.507.06.84.156.995.293.175.137.282.293.32.468.06.156.09.303.09.44.02.136.028.263.028.38 0 .156.06.234.176.234.097 0 .156-.05.175-.147.038-.117.058-.225.058-.322s.01-.32.03-.673c.02-.37.048-.682.087-.936.04-.41.078-.72.117-.936.06-.214.088-.36.088-.44 0-.135-.05-.204-.146-.204-.04 0-.166.108-.38.322-.138.137-.303.225-.5.264-.194.02-.447.048-.76.087-.156.02-.448.04-.878.06h-3.423c-.098 0-.147-.09-.147-.264v-6.763c0-.175.05-.263.147-.263h.644c.35 0 .73.01 1.14.03.43 0 .83.01 1.2.028.372 0 .616.01.733.03.35.04.633.087.848.146.214.04.39.088.527.146.136.06.234.127.292.205.078.077.137.165.176.263.06.156.098.322.117.497.02.156.03.283.03.38 0 .215.068.323.204.323.06 0 .107-.03.147-.088.04-.06.07-.117.088-.176.02-.08.03-.196.03-.352.02-.156.038-.322.058-.498.02-.175.03-.33.03-.468.02-.156.028-.263.028-.322.04-.35.078-.605.118-.76.058-.176.087-.313.087-.41 0-.157-.04-.235-.118-.235-.058 0-.117.02-.175.06-.06.018-.117.038-.176.057-.097.02-.253.05-.467.088-.215.02-.45.04-.703.058h-6.525c-.196-.02-.44-.03-.733-.03h-.935c-.332-.018-.644-.028-.937-.028-.273 0-.41.068-.41.205 0 .137.07.205.205.205.117 0 .264.01.44.03.195 0 .34.01.438.028.43.06.704.195.82.41.118.215.196.537.235.966.02.195.03.41.03.644.02.215.03.517.03.907V58.66M211.278 50.758c.195.215.507.556.937 1.025.448.468.975 1.024 1.58 1.668.605.625 1.26 1.318 1.96 2.08.723.74 1.455 1.502 2.197 2.282.682.703 1.404 1.444 2.165 2.225.762.76 1.464 1.473 2.108 2.136l1.64 1.64c.467.43.73.673.79.73.35.333.633.596.848.79.234.197.42.353.556.47.155.097.272.166.35.205.078.04.147.058.205.058.04 0 .07-.02.088-.058.04-.02.06-.088.06-.205.018-.137.028-.322.028-.556.02-.235.03-.557.03-.966l.06-14.576c-.002-.37.01-.682.028-.936.02-.254.058-.46.117-.615.058-.175.146-.312.263-.41.117-.097.283-.165.498-.204.156-.04.283-.06.38-.06h.234c.098 0 .166-.03.205-.088.06-.058.088-.107.088-.146 0-.117-.156-.176-.468-.176-.527 0-.986.01-1.376.03-.39.02-.664.03-.82.03-.156 0-.498-.01-1.025-.03-.527-.02-1.083-.03-1.668-.03-.332 0-.498.06-.498.176 0 .04.01.088.03.146.018.06.077.088.174.088.098 0 .273.01.527.03.255.02.5.048.733.087.39.078.644.283.76.615.118.33.186.897.206 1.697l.262 12.468c-.195-.195-.507-.517-.937-.966-.41-.45-.897-.966-1.463-1.55-.546-.586-1.142-1.21-1.785-1.874-.625-.683-1.26-1.356-1.903-2.02-.995-1.015-1.96-2.01-2.898-2.985-.936-.976-1.775-1.854-2.517-2.635-.742-.78-1.357-1.424-1.845-1.93-.488-.528-.78-.84-.878-.938-.137-.137-.302-.293-.498-.468-.176-.195-.342-.293-.498-.293-.098 0-.185.087-.264.262-.058.157-.087.488-.087.996v14.254c0 .566-.01 1.044-.03 1.434-.018.37-.057.673-.116.907-.038.234-.107.41-.204.527-.098.117-.225.195-.38.234-.196.06-.4.098-.616.117-.195.02-.34.03-.44.03-.135 0-.204.07-.204.206 0 .136.137.204.41.204.586 0 1.112-.02 1.58-.058.49-.02.79-.03.908-.03.117 0 .41.01.878.03.488.04 1.103.058 1.844.058.312 0 .47-.068.47-.204 0-.137-.07-.205-.206-.205-.117 0-.303-.01-.557-.03-.253-.018-.497-.057-.73-.116-.177-.04-.323-.107-.44-.205-.117-.118-.215-.283-.293-.498-.078-.234-.137-.517-.176-.85-.038-.35-.068-.78-.087-1.287l-.292-11.737M240.723 48.212l3.22.058c.605.02 1.102.07 1.493.147.41.058.722.156.936.292.234.116.4.253.498.41.097.155.156.33.175.526l.03.263c.02.175.038.292.058.35.04.06.088.088.146.088.156 0 .234-.107.234-.322v-.468c.02-.234.03-.488.03-.76.02-.294.028-.586.028-.88.02-.292.03-.536.03-.73 0-.196-.04-.293-.118-.293-.058 0-.146.01-.263.03-.116.018-.272.048-.468.087-.214.04-.468.068-.76.087-.293.02-.654.03-1.084.03h-9.717c-.155 0-.438-.01-.848-.03-.41-.02-.8-.05-1.17-.088-.352-.04-.606-.098-.762-.176-.156-.078-.283-.117-.38-.117-.04 0-.088.057-.146.174-.04.118-.08.215-.118.293 0 .06-.03.225-.087.498-.06.253-.128.536-.206.85-.06.29-.117.574-.176.847-.058.274-.088.44-.088.498 0 .078.02.137.06.176.038.02.077.03.116.03.136 0 .224-.08.263-.235l.116-.292c.04-.117.137-.283.293-.498.194-.292.467-.487.82-.585.37-.117.965-.185 1.784-.205l3.717-.058v10.45c0 1.21-.01 2.282-.028 3.218 0 .937-.03 1.66-.088 2.166-.038.37-.107.674-.205.908-.098.234-.284.38-.557.44-.117.038-.244.067-.38.087-.137.02-.264.03-.38.03-.137 0-.206.058-.206.175 0 .137.137.205.41.205.195 0 .43-.01.703-.03.292 0 .575-.01.848-.028.293 0 .537-.01.732-.03h.732c.215.02.468.03.76.03.313.02.645.03.996.03.37.02.732.028 1.083.028.274 0 .41-.068.41-.205 0-.136-.067-.204-.204-.204-.117 0-.303-.01-.556-.03-.234-.018-.44-.048-.615-.087-.39-.058-.644-.195-.76-.41-.118-.234-.196-.536-.235-.907-.058-.507-.098-1.23-.117-2.166V48.21M253.63 58.66c0 1.21-.01 2.284-.028 3.22 0 .937-.04 1.66-.117 2.167-.06.37-.127.673-.205.907-.058.234-.215.37-.468.41-.117.02-.254.048-.41.087-.137.02-.263.03-.38.03-.137 0-.205.07-.205.206 0 .136.136.204.41.204.214 0 .448-.01.702-.03.272 0 .535-.01.79-.028.272-.02.516-.03.73-.03H255.623c.35 0 .8.02 1.346.06.527.02 1.16.038 1.903.058.742.02 1.6.03 2.576.03.254 0 .46-.01.615-.03.177 0 .313-.02.41-.06.098-.038.176-.096.235-.174.078-.098.136-.225.175-.38.04-.137.08-.323.118-.557.038-.255.078-.508.117-.762.038-.273.068-.507.087-.702.02-.215.03-.342.03-.38 0-.1-.01-.186-.03-.264-.02-.078-.068-.117-.146-.117-.117 0-.205.126-.263.38-.078.507-.215.888-.41 1.142-.176.234-.43.43-.76.585-.333.137-.762.215-1.29.234-.526.02-.955.03-1.287.03-.644 0-1.16-.02-1.55-.06-.39-.058-.704-.155-.938-.292-.214-.156-.36-.36-.44-.614-.077-.274-.126-.615-.145-1.025v-.732-1.258-1.288-3.043c0-.117.058-.176.176-.176h.7c.352 0 .733.01 1.143.03.41 0 .81.01 1.2.03.39.018.673.038.848.057.51.06.84.156.997.293.175.137.282.293.322.468.057.156.086.303.086.44.02.136.03.263.03.38 0 .156.058.234.175.234.1 0 .157-.05.177-.147.04-.117.058-.225.058-.322s.01-.32.03-.673c.02-.37.048-.682.087-.936.04-.41.078-.72.117-.936.058-.214.087-.36.087-.44 0-.135-.05-.204-.146-.204-.038 0-.165.108-.38.322-.136.137-.302.225-.497.264-.195.02-.45.048-.76.087-.157.02-.45.04-.88.06h-3.424c-.098 0-.147-.09-.147-.264v-6.763c0-.175.05-.263.146-.263h.643c.35 0 .732.01 1.142.03.43 0 .83.01 1.2.028.37 0 .614.01.73.03.353.04.636.087.85.146.215.04.39.088.527.146.137.06.234.127.293.205.078.077.136.165.175.263.06.156.098.322.117.497.02.156.03.283.03.38 0 .215.068.323.205.323.058 0 .107-.03.146-.088.04-.06.068-.117.088-.176.02-.08.03-.196.03-.352.02-.156.038-.322.057-.498.02-.175.03-.33.03-.468.02-.156.03-.263.03-.322.038-.35.077-.605.116-.76.057-.176.087-.313.087-.41 0-.157-.04-.235-.117-.235-.06 0-.117.02-.176.06l-.176.057c-.097.02-.253.05-.468.088-.215.02-.45.04-.702.058h-6.53c-.195-.02-.44-.03-.73-.03h-.938c-.332-.018-.644-.028-.936-.028-.274 0-.41.068-.41.205 0 .137.068.205.205.205.118 0 .264.01.44.03.195 0 .34.01.44.028.428.06.7.195.818.41.117.215.195.537.234.966.02.195.03.41.03.644.02.215.03.517.03.907V58.66" style="-inkscape-font-specification:TrajanPro-Bold" font-size="49.046" font-weight="bold" font-family="Trajan Pro"/></g></svg>