<svg xmlns="http://www.w3.org/2000/svg" width="400" height="103.175"><path d="M27.73 51.983c0 13.104 10.622 23.73 23.73 23.73h33.137V28.252H51.46c-13.108 0-23.73 10.628-23.73 23.733M94.847 3.93c-4.252 2.376-5.775 7.756-3.397 12 2.382 4.257 7.753 5.774 12.01 3.397 4.247-2.38 5.767-7.756 3.392-12.003-2.378-4.257-7.755-5.77-12.005-3.394M126.332 18.66c-2.378-4.258-7.75-5.775-12-3.394-4.26 2.384-5.776 7.76-3.398 12.01 2.382 4.248 7.76 5.765 12.01 3.383 4.25-2.377 5.774-7.755 3.388-12M94.313 26.467c-4.243 2.38-5.765 7.75-3.387 12.005 2.378 4.254 7.75 5.768 12.005 3.387 4.256-2.376 5.77-7.752 3.395-12-2.378-4.258-7.76-5.774-12.012-3.393" fill="#858bce"/><path d="M0 51.983c0 28.274 22.92 51.192 51.192 51.192H84.25V79.33H51.19c-15.1 0-27.336-12.248-27.336-27.347 0-15.102 12.235-27.352 27.336-27.352H84.25V.79H51.19C22.92.79 0 23.71 0 51.983M142.485 56.132l-27.04-19.154-27.438 38.736 27.04 19.158c10.69 7.57 25.507 5.042 33.084-5.654 7.576-10.697 5.043-25.516-5.645-33.086M187.632.338h4.855V17.17h5.288v4.025h-10.143V.338M200.624 21.195h4.857l.503-3.704h3.413l.437 3.705h5.105L210.976.338h-6.444l-3.908 20.857zm7.102-17.622h.053l1.135 10.21h-2.43l1.24-10.21M223.23 3.887h1.084c1.188 0 1.502.81 1.502 2.265 0 1.31-.16 2.436-1.693 2.436h-.892v-4.7zm-4.856 17.308h6.888c4.33 0 5.624-2.69 5.624-6.187 0-2.634-.82-4.384-3.196-4.808v-.046c2.355-.783 2.67-2.712 2.67-4.913 0-3.57-1.72-4.902-5.26-4.902h-6.726v20.857zm4.857-9.216h1.11c1.497 0 1.683 1.388 1.683 2.823 0 2.06-.186 2.845-1.79 2.845h-1.002v-5.67M235.215 15.505c0 3.714 2.405 6.03 6.26 6.03s6.255-2.316 6.255-6.03V6.027c0-4.074-2.64-6.027-6.256-6.027-3.62 0-6.26 1.953-6.26 6.027v9.478zm4.863-9.895c0-.705 0-1.908 1.396-1.908 1.404 0 1.404 1.203 1.404 1.908v10.308c0 .556 0 1.915-1.404 1.915-1.396 0-1.396-1.36-1.396-1.915V5.61M252.057 21.195h4.86V12.19h.904c1.368 0 1.852.52 1.852 1.723v3.343c0 1.38 0 3.256.556 3.94h4.802c-.557-.684-.505-2.56-.505-3.94v-3.683c0-1.745-1.105-2.976-2.83-3.314v-.06c2.596-.775 2.935-2.366 2.935-4.83 0-3.757-1.82-5.032-6.15-5.032h-6.423v20.857zm4.86-17.308h.96c1.896 0 1.896.835 1.896 2.294 0 1.367 0 2.458-1.656 2.458h-1.2v-4.75M268.013 21.195h4.86l.5-3.704h3.4l.456 3.705h5.095L278.36.338h-6.435l-3.912 20.857zm7.104-17.622h.055l1.13 10.21h-2.427l1.242-10.21M283.988.338h11.147V4.35h-3.144v16.845h-4.854V4.35h-3.148V.338M298.672 15.505c0 3.714 2.404 6.03 6.263 6.03 3.857 0 6.255-2.316 6.255-6.03V6.027c0-4.074-2.64-6.027-6.255-6.027-3.618 0-6.263 1.953-6.263 6.027v9.478zm4.864-9.895c0-.705 0-1.908 1.4-1.908s1.4 1.203 1.4 1.908v10.308c0 .556 0 1.915-1.4 1.915s-1.4-1.36-1.4-1.915V5.61M315.52 21.195h4.863V12.19h.896c1.368 0 1.846.52 1.846 1.723v3.343c0 1.38 0 3.256.555 3.94h4.8c-.544-.684-.494-2.56-.494-3.94v-3.683c0-1.745-1.11-2.976-2.827-3.314v-.06c2.59-.775 2.926-2.366 2.926-4.83 0-3.757-1.818-5.032-6.145-5.032h-6.42v20.857zm4.863-17.308h.95c1.896 0 1.896.835 1.896 2.294 0 1.367 0 2.458-1.657 2.458h-1.19v-4.75M332.52 21.195h4.87V.338h-4.87v20.857zM341.875 15.505c0 3.714 2.403 6.03 6.26 6.03 3.86 0 6.258-2.316 6.258-6.03V6.027c0-4.074-2.64-6.027-6.26-6.027-3.622 0-6.258 1.953-6.258 6.027v9.478zm4.858-9.895c0-.705 0-1.908 1.4-1.908 1.403 0 1.403 1.203 1.403 1.908v10.308c0 .556 0 1.915-1.402 1.915-1.4 0-1.4-1.36-1.4-1.915V5.61M363.246 14.12v1.542c0 1.12.26 2.17 1.632 2.17 1.105 0 1.687-.707 1.687-1.622 0-1.83-1.924-3.055-3.853-4.437-1.96-1.594-3.908-2.748-3.908-5.93 0-4.097 2.33-5.843 6.203-5.843 4.226 0 6.074 2.033 6.074 5.24v1.88h-4.543V6c0-1.042-.156-2.298-1.53-2.298-1.03 0-1.667.603-1.667 1.567 0 1.252 2.064 2.69 4.045 4.155 1.8 1.564 4.037 2.584 4.037 6.785 0 2.014-1.53 5.325-6.604 5.325-4.797 0-6.276-3.003-6.276-5.166v-2.25h4.704M188.08 29.62c-11.114 0-19.21 6.682-19.21 20.592v32.36c0 12.66 7.372 20.59 19.21 20.59 11.83 0 19.198-7.93 19.198-20.59v-9.005h-14.91v10.436c0 1.87 0 6.5-4.29 6.5-4.3 0-4.3-4.63-4.3-6.5v-35.22c0-2.405 0-6.506 4.3-6.506 4.29 0 4.29 4.1 4.29 6.507v8.02h14.91V50.21c0-13.91-8.103-20.593-19.2-20.593M225.602 72.41h15.954V58.68h-15.954V44.502h18.232V30.775H210.68v71.236h33.882V88.275h-18.96V72.41M313.28 82.75c0 3.834 0 7.22-4.296 7.22-4.298 0-4.298-3.386-4.298-7.22V30.775H289.78v51.798c0 12.658 7.372 20.588 19.204 20.588 11.833 0 19.215-7.93 19.215-20.587V30.775h-14.92V82.75M346.502 72.41h15.97V58.68h-15.97V44.502h18.243V30.775H331.6v71.236h33.87V88.275h-18.968V72.41M383.787 88.274v-57.5h-14.91v71.237H400V88.275h-16.213M267.178 29.437c-11.107 0-19.203 6.684-19.203 20.59v32.36c0 12.663 7.373 20.593 19.203 20.593 11.826 0 19.21-7.93 19.21-20.594v-19.61h-19.714v13.196h4.803v7.84c0 1.877 0 6.515-4.3 6.515-4.288 0-4.288-4.638-4.288-6.514v-35.21c0-2.407 0-6.514 4.288-6.514 4.3 0 4.3 4.106 4.3 6.512v8.024h14.91v-6.6c0-13.905-8.11-20.59-19.21-20.59" fill="#244ba6"/></svg>