<svg xmlns="http://www.w3.org/2000/svg" width="440" height="96.322"><g fill="#231f20"><path d="M18.675 77.647V0H0v96.322h96.33V77.647H18.675z"/><path d="M96.33 45.32V0H24.01v72.176h18.66V18.672H77.67v5.323H49.024v48.18H96.33V51.74H67.682v-6.42H96.33zM116.235 95.52h17.52V70.04h11.206c3.17 0 5.433.558 6.8 1.628 1.375 1.07 2.138 2.93 2.31 5.483.078.777.102 1.573.134 2.414.048.86.068 2.074.068 3.638v3.188c0 2.746.097 4.733.322 6.003.22 1.242.62 2.312 1.142 3.128h19.507c-1.202-1.093-2.038-2.492-2.565-4.25-.535-1.727-.76-4.236-.76-7.585v-4.982c0-5.713-.752-9.524-2.195-11.434-1.455-1.907-4.08-3.213-7.892-3.848v-.467c3.563-.333 6.38-1.805 8.52-4.483 2.13-2.633 3.196-6.05 3.196-10.18 0-3.75-1.013-6.947-3.043-9.628-2.03-2.678-4.84-4.548-8.435-5.57-2.207-.61-4.792-1.088-7.772-1.382-3.003-.273-7.007-.422-12.025-.422h-26.035v64.23zm29.72-51.244c3.276 0 5.788.535 7.5 1.632 1.706 1.11 2.562 2.706 2.562 4.817 0 2.095-.856 3.703-2.56 4.816-1.714 1.11-4.226 1.678-7.503 1.678h-12.198V44.276h12.198zM177.578 95.52h19.242l3.94-12.27h24.935l3.86 12.27h19.306l-24.424-64.23h-22.313l-24.545 64.23zm36.003-48.79l7.692 23.58H205.19l7.69-23.58h.7zM255.713 95.52h17.505V70.04h11.18c3.19 0 5.48.558 6.856 1.628 1.36 1.07 2.126 2.93 2.31 5.483.058.777.086 1.573.134 2.414 0 .86.012 2.074.012 3.638v3.188c0 2.746.133 4.733.358 6.003.24 1.242.623 2.312 1.17 3.128h19.467c-1.194-1.093-2.03-2.492-2.553-4.25-.515-1.727-.776-4.236-.776-7.585v-4.982c0-5.713-.728-9.524-2.18-11.434-1.45-1.907-4.076-3.213-7.887-3.848v-.467c3.56-.333 6.383-1.805 8.514-4.483 2.12-2.633 3.188-6.05 3.188-10.18 0-3.75-1.005-6.947-3.04-9.628-2.02-2.678-4.844-4.548-8.426-5.57-2.18-.61-4.792-1.088-7.776-1.382-2.995-.273-6.995-.422-12.02-.422h-26.037v64.23zm29.72-51.244c3.276 0 5.768.535 7.5 1.632 1.702 1.11 2.566 2.706 2.566 4.817 0 2.095-.865 3.703-2.566 4.816-1.733 1.11-4.225 1.678-7.502 1.678h-12.214V44.276h12.214zM325.43 95.52h17.863V74.784h13.163c8.214 0 14.574-1.93 19.153-5.737 4.54-3.83 6.842-9.207 6.842-16.058 0-6.834-2.267-12.15-6.835-15.965-4.55-3.807-10.935-5.733-19.16-5.733H325.43v64.23zm26.764-51.244c3.546 0 6.304.776 8.226 2.28 1.91 1.552 2.887 3.735 2.887 6.54 0 2.884-.977 5.083-2.86 6.607-1.912 1.515-4.67 2.26-8.253 2.26h-9.247V44.275h9.247zM392.49 31.29h47.325V44.4H410.12v11.333h24.432v13.063H410.12v13.637H440V95.52h-47.51V31.29z"/></g></svg>