<svg xmlns="http://www.w3.org/2000/svg" width="400" height="166.041"><path d="M96.528 117.245s1.42.712 2.044.808c.633.105 1.878.594 1.878.594l-.45.3s-1.136.12-2.127.12c-.965 0-2.122-.237-2.122-.237l-1.62-.38.328-.904.445-.89-.978-.197h-1.37l-.577-.053H4.865V0H0V120.96h128.918v-4.553H95.69l.838.838z" fill="#0c5235"/><path d="M95.62 107.087c-.214.52 0 2-.39 2.114-.335.127.595 1.503.595 1.503l-.25.843h33.474v-4.555H95.69c-.057.04-.057.066-.07.097M10.892 23.726c.136-.223.716-.804 1.005-.904.23-.096.537-.708.93-.93.436-.175.607-.686.607-.686s-.572-.078-.895.048c-.346.105-.678.144-.678.144s-.254-.31-.293-.537c-.053-.204-.748-.095-.748-.095l-.32-.327s.084-.433.587-.72c.48-.26-.054-.678-.307-.586-.258.078-.97.406-.738.223.07-.04.013-.075 0-.11v5.118l.327-.14s.39-.266.52-.497M11.12 15.3c.262-.097.856-.102.856-.102l.677-.227s.205-.252.987-.055l.026-.577s.65-.808.887-.956c.235-.192-.45-.542-.45-.542l-1.092.367-1.113.08-.633-.28s-.06-.35-.013-.582c.045-.21.7-.576.7-.576s0-.355-.044-.57c-.01-.208.35-.62.35-.62l.567.145.24-.45c.245-.49.58-.227.58-.227l.55.507.23.38.466-.057V7.9c-.215-.056-.468-.1-.468-.1s-.166-.523.17-.637c.135-.07.244-.16.297-.292V.13h-4.85v16.45c.05-.087.11-.192.185-.244.415-.323.63-.93.895-1.035M14.89 111.548h74.077c-.04 0-.04-.018-.04-.018-.13-.292-.427-1.227-.427-1.227s.428-1.07.018-1.493c-.354-.38.157-1.616.157-1.616v-.205H14.89V21.87c-.1.083-.214.174-.297.244-.262.166-.947.258-1.528.48-.58.228-.992.91-1.51 1.332-.525.437-.52.51-1.215.677-.114.022-.206.075-.297.105v86.838h4.847z" fill="#0c5235"/><path d="M24.884 102.157H87.18c-.197-.432-.44-1-.44-1.188 0-.302.042-1.398.41-1.804.14-.166.174-.865.152-1.586H24.884V20.8c-.03-.074-.09-.144-.09-.144s-1.748-.773-2.045-.94c-.315-.182-1.102-.506-1.49-.676-.358-.192-.564-.205-1.013.14-.1.03-.14.065-.232.135v82.842h4.87zM20.58 4.164c-.335.057.29-.323.696-.524.388-.184.58.275.58.275s.58-.275.83-.376c.232-.092.332.3.332.3.105.036.25.088.38.14.227.1.358.223.458.385.062.096.03.214.03.305 0 .158.097.22.19.315.2.135.374.297.54.402.092.078.18.11.267.153V.11h-4.865v4.395c.227-.118.85-.376.563-.34M128.743 97.58h-28.695c.035.088.096.14.122.17.28.316.8.525.926 1.02.166.475.166.802-.258 1.31-.502.484-2.065.885-2.707 1-.427.05-.615.69-.733 1.078h31.346V97.58zM31.202 8.262c0 .04 0 .04-.044.04.114.02.498.192.59.157.018 0 .057.034.096.077-.04 0-.078.044-.078.044.13.115.09.285.23.368.145.074.346.092.48.166-.038-.114.062-.223.154-.28.044-.117.127-.196.162-.297.065-.157.148-.323.205-.48.01-.07.044-.2.092-.288.03-.11.03-.084.156-.084.362 0 .58.37.886.17.123-.052.2-.105.376-.14.122-.03.266-.056.406-.113V.113h-4.87v7.472c.176.153.38.27.564.363.232.11.428.192.594.314M128.873 88.186h-19.878c-.328.23-.655.428-.747.52-.244.305-.306 1.213-.284 1.62.03.41.08 1.305.08 1.305s-.08.573-.254 1.115h21.083v-4.56zM33.996 9.248c.288.043.528-.057.712-.21.065 0 .135-.04.205-.06v-.595c-.114.105-.236.218-.328.275-.16.052-.3.052-.428.087-.2.088-.51.415-.16.503" fill="#0c5235"/><path d="M34.913 92.745h51.7c-.082-.258-.095-.555-.095-.825-.03-.682.013-1.28.235-2.097.11-.31.08-.973 0-1.637h-51.84v-43.19c-.17-.332-.507-.602-.507-.602l-.554-.337s-.808-.47-.948-.685c-.144-.184-.76-.76-.904-.922-.14-.244-.1-1.01-.1-1.01s-.55-.553-.7-.763c-.104-.192-.593-.773-.562-1.048.03-.315.03-.83.03-.83s0-.957-.083-1.236c-.03-.29.083-.66.162-1.022.113-.38.35-2.34.738-2.625.375-.37.48-.803.48-.803l.397-.56s-.07-.93-.288-1.17c-.24-.236-.978-1.3-1.266-1.463-.293-.17-.542-1.248-.764-1.75v64.576h4.87z" fill="#0c5235"/><path d="M40.2 50.43l1.87 3.163v1.052l-1.983-1.673V83.38h46.176c-.092-.75-1.28-1.066-1.943-1.363-.602-.318-2.13-.594-2.642-1.104-.528-.507-1.694-1.638-1.86-2.036 0 0-.01-.04-.052-.078H44.94V53.43l-1.176-.514-.594-.32.083-.497-.048-.582s-.703-.546-.82-.746c-.132-.21-1.01-.935-1.01-.935s-.71-.498-.855-.7c-.123-.195-.197-.523-.32-.71-.017-.062-.06-.088-.113-.145v1.9c.083.08.157.166.157.166l-.043.083zM40.955 8.98c.07.06 0 .134.07.213.083.196.516.3.75.323.12.01.21.04.294.01.104 0 .182-.062.252-.054.06 0 .096.083.153.1.06.05.135.097.236.154.097.078.224.113.307.188 0-.05-.062-.05-.062-.075.062.025.105.082.145.14 0-.058-.07-.058-.083-.066.152.192.305.353.607.248.14-.008.14-.056.244-.148.162-.092.088 0 .162.1.1.088.305.188.192.306-.048.1-.205.114-.266.183-.13.088-.15.2-.306.27-.162.084-.328.12-.51.172.03.148.03.27.165.345.052.056.122.056.175.104.048.044.06.1.078.114.114.1.114.092.25.1.182.027.182.08.305.158.17.11.52 0 .72-.044.044-.018.066-.035.105-.035V.114h-4.852v8.524c.053 0 .136.022.236.035.258.044.494.083.633.306M129.012 78.8H116.64v.074s-.022 2.11-.358 2.904c-.135.406-.37.973-.642 1.602h13.372V78.8zM128.722 73.997v-4.572h-19.1l1.81.63 2.495.265s1.388.315 1.877.402c.503.118 1.053.908 1.32 1.328.257.384 1.51.305 1.877.515.36.18.953 1.166.953 1.166s-.03.088-.122.267h8.892z" fill="#0c5235"/><path d="M54.95 73.997h20.914c-.35-.345-.664-.633-.795-.808-.276-.433-.556-1.197-.835-1.52-.25-.31-.057-1.402-.057-1.402l.018-.843H54.95V57.818h-.712l-2.187-.32s-.628-1.672-1.122-1.973c-.266-.148-.62-.328-.847-.406v18.877h4.87zM54.033 23.504c.245 0 .428 0 .647.08.087.016.183.064.27.117v-5.93c-.03.03-.07.06-.087.088-.493.34-.86.742-1.18 1.205 0 0 .023-.022.023-.057-.153-.052-.236.236-.293.31-.166.266-.502.485-.668.8-.11.26-.057.515-.236.755-.132.228-.193.43-.132.656.04.126.092.24.31.24.11 0 .223-.048.332-.114.074-.056.127-.16.227-.17 0 .01-.022.01-.022.044.162.065.114.24.188.345.087.088.218.145.27.276 0 .04.04.393.097.345-.013.05-.057.084-.074.106.205.16.122.353.017.56-.144.27 0 .33.31.348M50.34 11.653h-.06c.13-.06.23-.06.383 0 .37.113.655.214 1.022.39.118.042.275.09.393.108.24.066.446.193.72.088.27-.087.41-.38.603-.528.154-.118.368-.428.604-.428.03.07 0 .13-.092.183-.083.188-.083.34-.284.46h.057c-.057.047-.057.138 0 .208.227-.16.34.232.32.345-.045.188-.468.42-.285.58-.166.123.06.285.192.228.267-.04.46-.28.572-.445.136-.174.267-.397.38-.602.018-.08.053-.087.088-.153V.098h-4.87V11.7c.03-.02.044-.02.083-.02.03 0 .092-.027.175-.027M51.568 52.785l.537 1.022 1.293-1.21s.515-1.07.773-1.47c.123-.298.42-.565.778-.71V44.37l-.458.13s-.46.19-.533.315c-.11.166-.053.166-.328.28-.245.188-.38.196-.38.196l-.65-.095-1.01-.157-.402.245s.06-.088-1.105.54v6.71c.29.252.607.44.778.484.36.078.708-.232.708-.232M91.865 60.82l1.354.187 1.4.808 1.43.9 1.623.1h.887l2.113.625s1.533.685 2.074 1.11c0 0 .035.016.035.043h26.063v-4.577H91.577c.174.06.358.127.493.192 1.15.498-.205.612-.205.612" fill="#0c5235"/><path d="M64.968 64.594H75.2c.21-.92-2.32-1.253-2.463-1.524 0 0-.834-.127-1.053-.415-.214-.25-1.42-1.175-1.42-1.175-.602-.144-2.672.27-2.672.27l-.45.656s-1.16-.096-1.602-.144c-.41-.07-.935-.467-.935-.467l-1.275.04-.642-.385-1.306-.184-.908-.244-.196-.91-.184-.138v4.62h4.874zM83.32 60.478c.372-.048.656-.366.656-.366.04 0 .104-.066.174-.092h-1.563l.078.188s.302.314.655.27M71.265 60.325l.716.197h.023l.834.563.73.044s1.313-.652 2.322-1.11h-5.246l.62.305z" fill="#0c5235"/><path d="M61.48 55.412s.564.11.962.105c.358 0 .113.49.113.49l.092 1.095s0 .455.07.82c.07.35-.236 1.355-.236 1.355s.307.166.547.463c.262.336.546.45 1.223.677.694.25.956.502.956.502s1.21 0 1.494-.036c.327-.06.947-.672.947-.672l1.245-.192h-3.926V35.914c-.057.078-.183.13-.188.13-.192.057-.55.328-.694.43-.144.07-.236.29-.275.4-.075.123-.39.188-.543.254-.174.048-.367.048-.528.166-.167.096-.246.367-.237.56 0 .186-.122.448-.175.51-.043.113.175.4.227.585.048.195.13.326.13.326s-.344.813-.448.913c-.07.05-.468.375-.468.375s-.7.742-.9.864c-.127.052-.51.432-.778.72v13.105l.337-.157 1.05.314zM60.253 28.588c.044.13.044.13.223.1.18-.044.415-.074.594-.16.28-.198.45-.456.677-.657.266-.234.825-.55.537-.924-.092-.13-.262-.232-.293-.424-.034-.113.032-.284-.07-.367-.147-.214-.44-.292-.54-.528-.03-.11.017-.11.14-.25.1-.156.266-.28.47-.41.115-.052.246-.074.294-.152.043-.018 0-.018 0-.066.083-.114.196-.224.288-.29.1-.095.214-.108.293-.2.074-.13.148-.288.266-.42.24-.257.543-.746.32-1.082-.122-.162-.223-.35-.376-.498-.06-.074-.144-.114-.174-.214-.035-.092.13-.214.113-.328-.052-.122-.327-.096-.327-.192-.04-.113.305-.32.388-.38-.026-.118.018-.305.153-.42.04-.025.13-.07.18-.143.065-.092.043-.205.082-.314 0-.084.082-.154.113-.263 0-.118-.07-.184-.153-.24-.184-.18-.376-.34-.197-.586.105-.226.28-.45.463-.658.092-.105.184-.188.223-.323.043-.063.043-.137.06-.246.083-.14.358-.096.51-.057.093.044.184.044.267.114.04.053.04.12.13.15.023 0 .04 0 .063.025V.102h-4.878V12.16c.07-.027.1-.045.16-.097.224-.205.26-.437.346-.673.057-.196.118-.436.218-.65.018-.096.175-.254.254-.32.07-.065.205-.12.28-.152.13-.153-.027-.153-.127-.288-.04-.114-.018-.114.052-.192.022-.1.105-.262.288-.214.127.004.153.135.262.23.096.062.13.036.28.062.087.057.13.114.222.184.17.078.46.113.472.305.047.162-.18.31-.267.41-.114.163-.114.363-.297.486-.07.066-.28.162-.28.29 0 .03.184.14.21.17.07.056.314.14.336.183.053.078-.083.257-.135.323-.083.166-.2.244-.354.354-.205.18-.148.436-.41.554-.166.066-.463.022-.594-.065-.08 0-.08-.054-.137-.102-.275-.113-.362.166-.567.232-.053 0-.14 0-.214-.044V28.26c.056.018.074.04.1.11.06.025.04.157.06.218M74.95 55.195h54.014v-4.577H74.95V26.556c-.176.162-.315.31-.398.39-.206.182-.878.628-1.586.807-.755.148-1.777.148-1.777.148s-.608.137-1.093.272v2.86c0 .026.06.026.06.026.33.105.556.328.687.498.114.127.245.363.44.45.184.048.735-.38.735-.38l.4-.24.092.28s0 .126-.21.218c-.2.057-.174.188-.49.432-.274.214-.488.402-.71.463-.175.05-.703.056-.82.148-.02.013-.124.013-.185.013V55.196h4.852zM71.103 19.87l.528-.1s.075.288.053.607c-.052.323.022.874.06.922.045.086.163.173.307.143.214-.044.428.323.686.428.275.123.406.315.388.503-.035.2-.214.314-.275.707-.075.376.59.407.785.516.223.06 1.14.18 1.184.244.012.03.174.29.13.42V.062h-4.852v21.324c.096-.2.463-.92.55-1.03.066-.145.455-.485.455-.485" fill="#0c5235"/><path d="M73.256 26.716s.144-.258.122-.306c-.04-.096.022-.232.157-.363.1-.144.337-.11.642-.126.15-.043.49-.174.773-.3v-1.363c0 .044-.017.096-.07.096-.214.048-.214.46-.532.65-.27.18-.91.293-1.11.516-.227.226.13.4.162.488 0 .074-.083.17-.314.402-.206.214.17.306.17.306M85.005 41.21V.06h-4.87v45.72H129.126v-4.57h-44.12z" fill="#0c5235"/><path d="M95 36.375h33.797V31.79H95V.05h-4.88V36.375H95z" fill="#0c5235"/><path d="M105.037 26.997h23.913v-4.59h-23.913V.017h-4.89v26.98h4.89z" fill="#0c5235"/><path d="M115.047 17.606h14.04V13.03h-14.04V.002h-4.9v17.602h4.9z" fill="#0c5235"/><path d="M125.035 8.203h3.747V3.608h-3.747V.128h-4.873v8.075h4.873zM54.95 17.27v.497c.07-.065.188-.16.162-.258-.03-.114-.157-.153-.162-.24M143.074 59.864h11.254v50.872h28.02v10.323h-39.274V59.863zM241.37 121.058l-22.367-61.195h-11.927l-21.752 61.195h12.01l4.585-13.865h22.327l4.84 13.865h12.283zm-36.01-24.206l7.564-22.713 7.72 22.712H205.36zM245.324 59.864h38.272v10.333h-27.058v14.507h23.39V95.05h-23.39v26.01h-11.214V59.863zM290.03 59.863h11.232v61.194H290.03V59.863zM316.705 100.02c.53 3.17 1.987 11.72 12.17 11.72 7.853 0 10.975-4.545 10.975-8.45 0-5.152-3.93-6.265-14.21-8.995-5.568-1.537-17.852-4.9-17.852-18.354 0-6.707 4.004-17.118 20.34-17.118 10.897 0 20.87 4.66 21.373 18.49l-11.335.568c-.476-3.18-1.284-8.905-10.158-8.905-3.376 0-9.454 1.123-9.454 6.05 0 3.942 3.502 5.658 12.45 7.947 8.502 2.24 20.062 5.244 20.062 20.32 0 7.445-4.27 13.637-9.14 16.044-4.966 2.59-10.608 2.75-13.132 2.75-6.035 0-20.87-.598-23.027-20.965l10.94-1.1zM355.92 59.864h41.433v10.333H367.22V83.79h28.032V94.13H367.22v16.608h31.124v10.323H355.92V59.863zM400 131.036H.018v-3.66H400v3.66zM189.205 154.69v6.5h5.87c1.06 0 1.877-.143 2.45-.43 1.06-.53 1.585-1.542 1.585-3.04 0-1.258-.51-2.15-1.533-2.625-.568-.262-1.367-.393-2.41-.406h-5.962zm0-9.373v5.367h5.86c1.058 0 1.91-.2 2.564-.607.65-.393.97-1.11.97-2.13 0-1.136-.42-1.892-1.298-2.25-.738-.253-1.686-.38-2.84-.38h-5.257zm13.14-1.61c.743 1.034 1.114 2.265 1.114 3.702 0 1.475-.38 2.667-1.114 3.576-.428.498-1.044.956-1.86 1.375 1.244.438 2.174 1.163 2.798 2.137.634.978.948 2.166.948 3.555 0 1.432-.367 2.733-1.083 3.87-.46.763-1.032 1.387-1.713 1.916-.773.585-1.685.99-2.738 1.21-1.053.227-2.184.33-3.43.33h-10.917v-24.244h11.713c2.952.048 5.044.908 6.28 2.572M215.166 156.237h6.206l-3.05-9.56-3.156 9.56zm.336-15.105h5.74l8.545 24.25h-5.494l-1.58-4.96h-8.936l-1.62 4.96h-5.293l8.638-24.25zM232.852 141.132h5.284l9.63 16.852v-16.852h4.693v24.25h-5.044l-9.86-17.21v17.21h-4.704v-24.25zM259.538 143.678c1.952-1.983 4.432-2.987 7.446-2.987 4.017 0 6.978 1.332 8.838 4.005 1.03 1.502 1.58 3.013 1.655 4.53h-5.035c-.318-1.172-.725-2.05-1.236-2.656-.9-1.054-2.235-1.582-4.013-1.582-1.808 0-3.223.75-4.275 2.23-1.053 1.482-1.555 3.6-1.555 6.307 0 2.72.542 4.765 1.633 6.11 1.118 1.35 2.494 2.026 4.197 2.026 1.725 0 3.044-.57 3.965-1.733.507-.63.917-1.56 1.254-2.812h5.026c-.432 2.642-1.54 4.782-3.323 6.45-1.778 1.646-4.06 2.476-6.848 2.476-3.463 0-6.157-1.12-8.135-3.35-1.974-2.248-2.96-5.318-2.96-9.23 0-4.232 1.13-7.49 3.366-9.782M299.487 145.434H286.67v5.14h11.764v4.228H286.67v6.205h13.41v4.37H281.7v-24.244h17.787v4.3zM303.948 141.132h5.297l9.62 16.852v-16.852h4.703v24.25h-5.04l-9.882-17.21v17.21h-4.698v-24.25zM346.012 141.132v4.3h-7.28v19.95h-5.092v-19.95h-7.28v-4.3h19.652zM353.974 145.315v6.546h5.463c1.083 0 1.9-.125 2.433-.392.956-.467 1.436-1.375 1.436-2.75 0-1.473-.458-2.464-1.38-2.966-.528-.288-1.305-.437-2.345-.437h-5.606zm10.433-3.55c.904.375 1.66.94 2.266 1.685.524.62.913 1.29 1.22 2.044.304.75.457 1.594.457 2.546 0 1.144-.288 2.28-.87 3.39-.58 1.126-1.532 1.907-2.855 2.37 1.122.446 1.91 1.08 2.358 1.922.46.812.703 2.083.703 3.786v1.624c0 1.118.03 1.86.118 2.254.136.63.463 1.087.944 1.39v.606h-5.564c-.14-.546-.258-.98-.323-1.306-.126-.677-.196-1.38-.21-2.088l-.038-2.257c-.017-1.558-.288-2.576-.808-3.09-.51-.517-1.476-.78-2.87-.78h-4.96v9.522h-4.948v-24.25h11.577c1.65.048 2.926.24 3.804.633M388.756 159.52c1.175-1.47 1.778-3.572 1.778-6.3 0-2.717-.603-4.83-1.778-6.307-1.17-1.48-2.773-2.218-4.777-2.218-2.01 0-3.604.738-4.805 2.21-1.196 1.484-1.79 3.59-1.79 6.314 0 2.728.594 4.83 1.79 6.3 1.2 1.477 2.795 2.223 4.804 2.223 2.003 0 3.606-.746 4.776-2.222m3.136 3.686c-1.817 1.896-4.472 2.835-7.922 2.835-3.463 0-6.114-.938-7.935-2.834-2.467-2.3-3.694-5.637-3.694-9.987 0-4.438 1.228-7.766 3.695-9.988 1.82-1.9 4.472-2.834 7.935-2.834 3.45 0 6.105.934 7.922 2.834 2.45 2.222 3.677 5.55 3.677 9.987 0 4.35-1.228 7.685-3.678 9.986" fill="#0c5235"/></svg>