<svg xmlns="http://www.w3.org/2000/svg" width="400" height="167.337"><path d="M248.562 82.224c-1.29-1.925-3.18-3.76-5.616-5.444-2.328-1.606-5.32-3.39-8.88-5.278-2.463-1.333-4.362-2.494-5.666-3.447-.83-.605-1.073-1.447-.796-2.728.21-1.005.59-1.773 1.125-2.3.613-.62 1.368-1.092 2.295-1.45 1.05-.413 2.182-.68 3.37-.81 4.268-.455 8.714-.15 12.945 1.184 2.995.954 5.42 1.952 7.193 2.97l1.737 1.002 13.866-20.172-1.535-.907c-2.45-1.454-5.77-2.807-9.875-4.023-4.156-1.233-9.12-1.86-14.75-1.86-11.978 0-21.818 2.494-29.256 7.41-7.62 5.038-12.433 11.965-14.303 20.592-.722 3.327-.813 6.264-.29 8.73.534 2.44 1.523 4.64 2.94 6.542 1.402 1.87 3.184 3.492 5.288 4.82 1.997 1.26 4.205 2.464 6.533 3.573 1.952.95 3.56 1.805 4.797 2.53 1.122.66 1.97 1.297 2.543 1.886.462.488.76.998.872 1.502.136.524.1 1.197-.075 1.99-.075.38-.33 1.51-2.712 3.05-1.233.788-3.92 1.728-9.73 1.728-4.865 0-8.888-.696-11.96-2.065-3.237-1.447-5.594-2.65-7.012-3.584l-1.77-1.164-13.988 20.715 1.49.91c.845.524 2.003 1.17 3.547 1.984 1.554.822 3.54 1.635 5.918 2.412 2.34.758 5.128 1.405 8.305 1.92 3.184.506 6.846.763 10.868.763 6.58 0 12.486-.78 17.565-2.33 5.122-1.553 9.584-3.624 13.255-6.148 3.737-2.572 6.758-5.567 8.972-8.92 2.19-3.3 3.675-6.722 4.433-10.16.7-3.24.94-6.14.702-8.597-.237-2.53-1.024-4.826-2.345-6.826M284.27 88.844l11.862-25.856h25.044l10.406-22.324h-25.21l10.96-23.574-28.962 4.27-28.816 63.1c-2.36 5.178-4.172 10.173-5.382 14.852-1.26 4.882-1.437 9.288-.513 13.09.95 3.94 3.342 7.08 7.11 9.33 3.67 2.188 9.23 3.3 16.53 3.3 4.99 0 9.476-.42 13.333-1.242 3.795-.81 7.418-1.792 10.76-2.91l1.64-.55 2.49-21.203-2.705.865c-2.387.76-4.75 1.366-7.017 1.79-2.227.418-4.503.63-6.786.63-2.5 0-4.364-.332-5.532-.973-1.057-.586-1.694-1.357-1.938-2.365-.263-1.11-.163-2.5.315-4.14.536-1.853 1.346-3.882 2.41-6.09" fill="#5e268e"/><path d="M355.693 99.844c-2.52 1.603-5.16 2.383-8.062 2.383-3.47 0-5.547-.988-6.324-3.047-.897-2.37-.855-5.935.156-10.572.62-2.868 1.714-5.964 3.23-9.2 1.495-3.183 3.365-6.156 5.563-8.84 2.14-2.603 4.583-4.79 7.26-6.496 2.52-1.616 5.156-2.397 8.057-2.397 3.467 0 5.545.995 6.322 3.05.91 2.384.852 5.942-.15 10.576-.627 2.866-1.717 5.96-3.23 9.188-1.504 3.203-3.38 6.172-5.57 8.852-2.152 2.614-4.585 4.793-7.25 6.504m44.072-40.33c-.49-4.14-1.8-7.783-3.902-10.846-2.117-3.077-5.174-5.496-9.092-7.194-3.867-1.665-8.63-2.514-14.137-2.514-7.515 0-14.646 1.604-21.19 4.765-6.458 3.125-12.314 7.206-17.39 12.126-5.045 4.9-9.318 10.485-12.69 16.606-3.362 6.09-5.74 12.27-7.06 18.373-1.073 4.926-1.37 9.498-.875 13.57.49 4.133 1.808 7.775 3.903 10.838 2.113 3.083 5.144 5.506 9.02 7.197 3.815 1.668 8.602 2.514 14.212 2.514 7.717 0 14.968-1.605 21.554-4.766 6.522-3.125 12.36-7.212 17.348-12.15 4.936-4.89 9.128-10.473 12.455-16.59 3.307-6.1 5.655-12.273 6.965-18.36 1.083-4.924 1.373-9.487.878-13.57M198.882 50.447c3.603-8.868-2.82-11.398-6.055-11.44h-16.114l-38.275 86.16h27.13l33.304-74.645.01-.075zM212.112 21.272c-2.404 7.39-10.85 13.378-18.868 13.378-8.03 0-12.602-5.987-10.202-13.378 2.394-7.39 10.84-13.38 18.868-13.38 8.03 0 12.595 5.99 10.202 13.38M96.212 100.922l33.345-73.7v-.05c3.594-8.84-2.757-11.38-6.01-11.444h-16.806L57.35 125.166h74.476l11.008-24.244h-46.62z" fill="#5e268e"/><path d="M41.723 79.37l33.31-73.708.032-.04c4.263-8.54 10.374-5.44 12.56-3.043l11.108 12.614-49.54 109.366L0 68.65l10.927-24.28 30.796 35z" fill="#6ec72d"/><path d="M86.795 154.728c-.18-2.03-.36-4.016-.582-5.958-.21-1.94-.436-3.77-.676-5.492h-4.472c-.575.86-1.216 1.915-1.928 3.167-.706 1.245-1.428 2.556-2.16 3.932-.734 1.372-1.453 2.757-2.165 4.178-.703 1.425-1.363 2.74-1.964 3.932-.605-1.193-1.27-2.507-1.99-3.932-.72-1.42-1.448-2.806-2.183-4.178-.735-1.376-1.46-2.687-2.16-3.932-.71-1.252-1.355-2.306-1.924-3.167h-4.584c-.244 1.635-.475 3.417-.686 5.34-.215 1.93-.41 3.92-.576 5.973-.176 2.053-.332 4.128-.485 6.216-.147 2.084-.277 4.11-.375 6.055h4.87c.11-2.74.233-5.563.382-8.474.147-2.9.365-5.714.66-8.44.29.505.635 1.123 1.025 1.852.397.74.81 1.525 1.258 2.37.446.84.898 1.714 1.36 2.62.452.905.907 1.79 1.333 2.636.436.852.836 1.655 1.203 2.403.36.748.677 1.382.943 1.902h3.697c.263-.52.58-1.146.943-1.894.36-.734.77-1.525 1.2-2.377l1.336-2.638c.465-.904.91-1.79 1.36-2.637.442-.852.868-1.64 1.258-2.368.394-.722.732-1.35 1.02-1.87.3 2.725.512 5.538.66 8.44.148 2.91.278 5.732.38 8.474h4.883c-.1-1.944-.234-3.954-.38-6.006-.15-2.052-.306-4.1-.482-6.126M113.953 157.84c.84-2.02 1.646-3.89 2.417-5.616.77-1.723 1.463-3.187 2.065-4.39.578 1.16 1.265 2.615 2.048 4.358.79 1.746 1.594 3.63 2.436 5.648h-8.967zm12.234-4.012c-.88-1.906-1.753-3.72-2.618-5.447-.866-1.723-1.753-3.427-2.68-5.102h-4.725c-.917 1.675-1.812 3.38-2.673 5.103-.865 1.727-1.744 3.542-2.612 5.448-.88 1.905-1.78 3.925-2.692 6.058-.92 2.133-1.893 4.458-2.908 6.975h5.155c.36-.903.735-1.82 1.122-2.737.377-.917.754-1.853 1.122-2.806h11.514c.36.953.748 1.886 1.144 2.79.397.907.774 1.828 1.142 2.754h5.35c-1.025-2.516-2.004-4.84-2.927-6.974-.934-2.133-1.835-4.153-2.716-6.058M164.202 152.5c-.31.5-.78.9-1.395 1.187-.612.3-1.382.504-2.296.618-.92.114-1.99.166-3.19.166h-2.165v-7.62c.894-.066 1.857-.102 2.91-.102.97 0 1.864.065 2.677.185.81.13 1.515.335 2.1.63.59.297 1.05.697 1.36 1.19.315.502.47 1.117.47 1.84 0 .773-.155 1.407-.47 1.907m3.818 8.966c-.657-.87-1.298-1.68-1.926-2.432-.634-.755-1.2-1.386-1.694-1.903 3.646-1.134 5.467-3.303 5.467-6.506 0-2.562-1.044-4.465-3.13-5.71-2.083-1.246-5.09-1.873-9.03-1.873-1.072 0-2.292.036-3.658.114-1.36.085-2.645.238-3.85.462v23.245h4.955v-8.913H158.303c.26 0 .575-.01.943-.04.5.548 1.034 1.17 1.613 1.858.578.696 1.16 1.43 1.748 2.215.595.777 1.178 1.59 1.75 2.413.582.83 1.12 1.655 1.62 2.468h5.537c-.47-.88-1.008-1.784-1.61-2.708-.6-.91-1.228-1.808-1.885-2.686M206.526 159.87c-1.096-1.1-2.218-2.132-3.363-3.1-1.138-.967-2.253-1.806-3.36-2.53.996-.84 2.014-1.73 3.045-2.66 1.044-.928 2.07-1.865 3.096-2.808 1.02-.94 2.016-1.876 2.985-2.806.968-.93 1.885-1.825 2.747-2.69h-5.932c-.69.657-1.447 1.395-2.28 2.208-.845.82-1.733 1.665-2.66 2.537-.933.88-1.873 1.74-2.812 2.593-.947.848-1.854 1.652-2.716 2.396v-9.734h-4.956v23.587h4.957v-10.59c1.025.62 2.06 1.348 3.106 2.183 1.053.84 2.062 1.724 3.053 2.654.982.933 1.92 1.896 2.81 2.89.89 1.003 1.68 1.96 2.364 2.863h5.863c-.845-1.18-1.77-2.368-2.78-3.56-1.015-1.188-2.058-2.336-3.167-3.432M235.836 156.308h11.174v-3.567h-11.174v-5.82h12.54v-3.642h-17.5v23.583h18.446v-3.64h-13.486v-6.912zM266.12 146.983h8.38v19.88h4.993v-19.88h8.384v-3.704H266.12v3.703zM306.597 166.862h4.95V143.28h-4.95v23.582zM350.694 158.933c-.884-1.23-1.91-2.552-3.047-3.964-1.148-1.422-2.315-2.833-3.535-4.244-1.23-1.41-2.442-2.758-3.648-4.062-1.204-1.307-2.332-2.436-3.382-3.385h-4.052v23.582h4.884v-16.88c1.096 1.134 2.257 2.41 3.48 3.83 1.22 1.42 2.416 2.88 3.6 4.393 1.177 1.506 2.315 3.002 3.424 4.484 1.1 1.492 2.094 2.88 2.982 4.172h4.21V143.28h-4.916v15.653zM398.08 154.846v-.2h-7.662v3.956h2.842v4.722c-.37.09-.87.166-1.5.22-.633.06-1.378.083-2.24.083-1.39 0-2.608-.205-3.645-.628-1.037-.414-1.896-1.006-2.592-1.75-.692-.755-1.226-1.652-1.574-2.713-.352-1.05-.527-2.214-.527-3.492 0-2.667.738-4.764 2.22-6.273 1.477-1.51 3.627-2.26 6.436-2.26 1.277 0 2.503.14 3.67.422 1.168.287 2.147.628 2.93 1.035l1.5-3.504c-.192-.088-.504-.237-.963-.442-.465-.208-1.047-.394-1.756-.58-.708-.18-1.553-.344-2.535-.49-.982-.146-2.104-.22-3.363-.22-1.84 0-3.564.266-5.19.815-1.626.542-3.044 1.342-4.25 2.4-1.207 1.053-2.156 2.337-2.852 3.86-.696 1.518-1.044 3.267-1.044 5.235 0 1.983.312 3.727.946 5.245.625 1.525 1.51 2.803 2.65 3.85 1.145 1.048 2.53 1.838 4.157 2.384 1.625.543 3.42.813 5.38.813 2.13 0 4.004-.133 5.636-.406 1.623-.273 2.774-.52 3.457-.75v-11.334h-.133z" fill="#5e268e"/></svg>