<svg xmlns="http://www.w3.org/2000/svg" xmlns:xlink="http://www.w3.org/1999/xlink" width="400" height="230.195"><defs><linearGradient id="b"><stop offset="0" stop-color="#ffe216"/><stop offset="1" stop-color="#d43821"/></linearGradient><linearGradient id="a"><stop offset="0" stop-color="#fead34"/><stop offset="1" stop-color="#fe8228"/></linearGradient><linearGradient xlink:href="#b" id="e" gradientUnits="userSpaceOnUse" x1="8.71" y1="-9.593" x2="11.975" y2="-2.127" gradientTransform="matrix(5.0416 0 0 4.9968 -33.663 466.99)"/><radialGradient xlink:href="#b" id="d" cx="356.887" cy="488.163" fx="356.887" fy="488.163" r="14.094" gradientTransform="matrix(2.72913 -.39794 .31422 2.155 -1108.906 -445.93)" gradientUnits="userSpaceOnUse"/><radialGradient xlink:href="#b" id="c" cx="357.9" cy="484.11" fx="357.9" fy="484.11" r="14.094" gradientTransform="matrix(8.23173 -.8839 .95082 8.85502 -3340.23 -3428.61)" gradientUnits="userSpaceOnUse"/></defs><path d="M144.108 565.985c0 46.356-37.58 83.935-83.936 83.935-46.356 0-83.935-37.58-83.935-83.935 0-46.356 37.58-83.935 83.935-83.935 46.356 0 83.936 37.58 83.936 83.935z" fill="url(#c)" transform="translate(33.663 -419.725)"/><path d="M56.476 70.258s-9.473 20.912-14.47 43.232c-4.985 22.416-1.224 31.4 21.286 31.4h329.59l-17.53 38.66H46.782c-18.882 0-41.075-12.202-41.075-40.858 0-26.248 18.826-55.92 50.77-72.434" fill="#0f72b6" fill-rule="evenodd"/><path d="M153.31 99.35c0-1.86-.358-3.64-1.7-5.003-1.2-1.234-2.64-1.644-4.355-1.644-2.112 0-3.892.594-5.536 1.914-2.098 1.654-3.454 4.142-4.357 6.6-1.038 2.83-1.835 5.952-1.835 8.99 0 2.158.384 4.422 1.896 6.04 1.235 1.32 2.622 1.86 4.437 1.86 2.773 0 4.745-1.25 6.444-3.383 3.59-4.472 5.006-9.7 5.006-15.375m90.46-3.92c-.215-.758-.528-1.448-.992-1.948-.953-1.07-2.193-1.364-3.605-1.364-1.956 0-3.453.78-4.87 2.104-.388.36-.73.77-1.058 1.21h10.526zm125.053 18.88c-3.176.534-6.826 1.348-8.208 2.377-.332.26-.353.445-.353.875 0 .275.04.38.258.6.292.274.942.31 1.315.31 1.437 0 2.748-.32 4.02-1.02 1.012-.55 1.95-1.28 2.534-2.3.15-.253.302-.548.433-.843m4.986-21.142c-2.088.404-4.528.674-6.757.88.202-.49.484-.925.958-1.255.838-.58 2.43-.675 3.42-.675.484 0 1.996.06 2.414.385.005.2 0 .43-.035.665m-25.662 4.357c-2.562 1.06-4.91 2.458-6.852 4.302-4.774 4.582-6.82 10.548-6.82 17.074 0 6.052 1.945 11.534 6.27 15.87 4.296 4.293 9.74 6.287 15.81 6.287 3.95 0 7.73-.89 11.32-2.52.65-.298 1.295-.623 1.925-.963l.64 2.144h26.707l-2.052-7.02c-.625-2.125-1.084-4.408-1.084-6.617 0-3.85 1.317-9.413 2.154-13.18 1.14-5.062 2.53-10.558 3.307-15.685.334-2.074.53-4.197.53-6.336 0-6.072-2.636-11.194-7.32-15.07-5.465-4.573-13.118-5.743-20.066-5.743-7.073 0-14.323 1.295-20.297 5.242-5.445 3.612-9.21 8.648-11.308 14.78l-2.275 6.64 9.413.795zm-118.13 18.338c.247.495.57.954.968 1.384 1.134 1.204 2.34 1.784 4.003 1.784 2.716 0 4.572-1.253 6.024-3.167h-10.996zm-25.96 1.844c-.655-2.823-.962-5.772-.962-8.795 0-5.26.877-10.283 2.677-15.015h-1.724l-4.135 19.637c-.293 1.395-.706 3.108-.983 4.617 1.336-.044 2.853-.238 4.134-.358l.993-.085zm-89.624 11.138l-2.283 10.873H67.26L86.282 49.61h27.71l-13.886 65.898h9.025c-.25-1.674-.377-3.368-.377-5.087 0-10.867 2.924-21.155 10.597-29.165 7.45-7.79 17.086-11.188 27.845-11.188 8.878 0 17.398 2.284 23.862 8.56.484.47.937.944 1.38 1.44l1.796-8.635h7.623l1.497-7.166 30.88-18.408-5.405 25.574h9.514l-1.387 6.615c6.564-5.44 14.69-7.98 23.902-7.98 7.996 0 15.312 2.404 20.888 8.195 3.08 3.198 5.092 6.93 6.302 10.958l3.75-17.788h25.91l-.127.574c2.637-1.22 5.51-1.94 8.662-1.94 2.657 0 5.268.556 7.76 1.46l16.52-23.534h33.688l-25.53 23.44H343l-14.39 68.286h-26.956L311 95.42l-.66 1.41-4.774-1.754c-.832-.31-1.71-.414-2.59-.414-1.786 0-3.535.94-4.927 1.948-2.123 1.55-3.656 3.573-4.745 5.946-1.99 4.273-3.272 10.22-4.235 14.806l-4.74 22.356h-26.946l1.78-8.48c-1.79 1.83-3.802 3.443-6.056 4.822-5.55 3.408-11.706 4.997-18.235 4.997-8.772 0-16.683-2.714-22.894-8.935-1.402-1.41-2.622-2.908-3.666-4.477l-2.51 11.763-3.55.724c-3.086.64-6.242.925-9.398.925-5.4 0-11.363-.88-15.623-4.452-3.217-2.704-4.987-6.24-5.53-10.194-.677.89-1.398 1.77-2.164 2.63-7.367 8.34-17.137 12.017-28.234 12.017-5.954 0-11.732-1.125-17.03-3.853-3.983-2.048-7.31-4.827-9.842-8.36" fill="#fff" fill-rule="evenodd"/><path d="M74.072 134.224l16.708-79.12h16.395l-13.88 65.888h17.122l-2.773 13.232H74.072zM114.3 110.42c0-10.61 3.024-19.08 9.07-25.375 6.034-6.32 13.994-9.5 23.826-9.5 8.53 0 15.185 2.345 19.98 7.012 4.794 4.652 7.2 10.923 7.2 18.808 0 9.284-2.996 17.3-9.005 24.05-5.984 6.78-14.01 10.158-24.063 10.158-5.445 0-10.265-1.07-14.484-3.248-4.2-2.15-7.336-5.202-9.423-9.164-2.062-3.947-3.1-8.194-3.1-12.74m44.547-11.07c0-3.662-1.074-6.59-3.252-8.823-2.158-2.21-4.946-3.318-8.34-3.318-3.387 0-6.377 1.033-9.003 3.112-2.597 2.06-4.633 5.067-6.095 9.02-1.447 3.932-2.173 7.56-2.173 10.862 0 4.112 1.13 7.365 3.377 9.78 2.255 2.387 5.083 3.616 8.502 3.616 4.28 0 7.885-1.823 10.78-5.46 4.123-5.143 6.205-11.4 6.205-18.79m17.504-10.937h7.564l-4.83 23.04c-1.357 6.36-2.022 10.434-2.022 12.202 0 3.733 1.255 6.66 3.75 8.765 2.512 2.103 6.52 3.153 12.045 3.153 2.814 0 5.59-.255 8.27-.815l2.45-11.492c-2.744.255-4.478.39-5.17.39-1.995 0-3.377-.335-4.138-1-.767-.68-1.14-1.6-1.14-2.783 0-.63.453-3.098 1.36-7.45l5.063-24.01h9.58l2.403-11.503h-9.538l4.21-19.852-17.928 10.678-1.906 9.174h-7.618l-2.405 11.503zm86.58 21.956h-39.223c-.036.61-.056 1.083-.056 1.393 0 3.823 1.1 6.9 3.283 9.23 2.214 2.348 4.9 3.517 8.057 3.517 5.178 0 9.236-2.668 12.135-7.985l13.995 2.32c-2.727 5.585-6.347 9.767-10.93 12.545-4.547 2.8-9.664 4.183-15.316 4.183-7.77 0-14.08-2.434-18.956-7.316-4.845-4.86-7.29-11.312-7.29-19.347 0-7.845 2.198-14.83 6.584-20.947 5.984-8.274 14.53-12.417 25.646-12.417 7.084 0 12.715 2.18 16.885 6.506 4.18 4.347 6.26 10.408 6.26 18.223 0 3.743-.352 7.11-1.073 10.094m-13.178-9.455c.03-.675.03-1.19.03-1.564 0-4.23-.948-7.43-2.88-9.538-1.915-2.118-4.496-3.188-7.728-3.188-3.24 0-6.115 1.2-8.686 3.613-2.556 2.403-4.29 5.976-5.198 10.678h24.462zm26.544-24.005L264.2 134.224h15.635l3.806-17.984c1.53-7.29 3.067-12.632 4.63-15.98 1.557-3.367 3.735-6.066 6.503-8.08 2.788-2.018 5.52-3.017 8.198-3.017 1.6 0 3.106.24 4.523.754l5.994-12.687c-2.576-1.104-5-1.684-7.244-1.684-6.353 0-12.25 4.163-17.696 12.477l2.344-11.113h-14.594zm44.28 0h15.61l-12.08 57.314h-15.64l12.11-57.314zm12.84-23.42h16.653l-17.64 16.19h-10.382l11.37-16.19zm28.108 39.655l-15.266-1.29c1.754-5.1 4.794-9.098 9.13-11.97 4.34-2.88 10.093-4.34 17.227-4.34 7.457 0 12.957 1.495 16.506 4.468 3.566 2.96 5.34 6.596 5.34 10.868 0 1.73-.156 3.58-.473 5.508-.293 1.954-1.367 7.06-3.232 15.335-1.523 6.826-2.284 11.618-2.284 14.356 0 2.432.425 5.16 1.302 8.144h-15.185c-.62-2.084-1.004-4.238-1.15-6.48-2.284 2.522-4.905 4.45-7.885 5.805-2.985 1.358-5.99 2.023-8.994 2.023-4.795 0-8.757-1.554-11.878-4.667-3.1-3.113-4.664-7.106-4.664-12.008 0-5.47 1.71-9.838 5.133-13.11 3.432-3.284 9.568-5.263 18.38-5.937 7.447-.61 12.408-1.348 14.918-2.208.656-2.178.99-3.897.99-5.192 0-1.643-.682-3.048-2.028-4.152-1.336-1.12-3.323-1.674-5.985-1.674-2.782 0-5 .565-6.62 1.694-1.607 1.14-2.7 2.743-3.28 4.827m14.866 14.366c-.956.24-2.217.485-3.775.7-7.824.945-12.957 2.31-15.346 4.113-1.715 1.29-2.552 3.038-2.552 5.236 0 1.778.65 3.312 1.95 4.536 1.3 1.255 3.026 1.864 5.168 1.864 2.36 0 4.588-.554 6.67-1.694 2.103-1.124 3.66-2.593 4.684-4.367 1.044-1.78 1.96-4.568 2.748-8.346l.453-2.043zM362.497 208.392h4.205l-.868 4.067h-4.204l.867-4.068zm3.468-1.404h-2.344l1.327-10.978 1.07-5.057h4.456l-1.14 5.442-3.368 10.593zm-10.118-3.588c.01-.18.01-.32.01-.42 0-1.154-.252-2.013-.787-2.593-.52-.58-1.215-.87-2.097-.87-.877 0-1.664.32-2.36.985-.7.66-1.164 1.624-1.41 2.898h6.644zm3.59 2.578h-10.673c-.005.16-.01.29-.01.375 0 1.045.297 1.88.892 2.51.6.633 1.336.958 2.188.958 1.417 0 2.52-.734 3.302-2.168l3.807.62c-.742 1.524-1.735 2.663-2.975 3.413-1.24.764-2.622 1.14-4.154 1.14-2.118 0-3.837-.656-5.163-1.985-1.315-1.324-1.98-3.083-1.98-5.256 0-2.14.6-4.043 1.785-5.702 1.628-2.253 3.957-3.367 6.977-3.367 1.926 0 3.464.59 4.588 1.758 1.14 1.19 1.7 2.834 1.7 4.957 0 1.02-.087 1.934-.283 2.748m-24.35-5.976h2.066l-1.32 6.266c-.364 1.724-.55 2.843-.55 3.313 0 1.02.342 1.815 1.018 2.385.686.58 1.775.86 3.273.86.776 0 1.527-.066 2.253-.216l.666-3.134c-.746.075-1.215.105-1.402.105-.544 0-.922-.084-1.134-.264-.207-.185-.303-.444-.303-.764 0-.16.12-.84.37-2.03l1.37-6.52h2.61l.657-3.128h-2.597l1.145-5.396-4.875 2.908-.52 2.488h-2.072l-.654 3.128zm-9.812-3.128h3.968l-.636 3.028c1.472-2.263 3.08-3.387 4.81-3.387.61 0 1.265.15 1.97.45l-1.632 3.452c-.383-.14-.797-.215-1.23-.215-.72 0-1.467.28-2.224.83-.755.544-1.345 1.274-1.768 2.188-.42.92-.842 2.37-1.256 4.357l-1.038 4.882h-4.25l3.287-15.586zm-8.188 6.526c.01-.18.01-.32.01-.42 0-1.154-.262-2.013-.78-2.593-.525-.58-1.226-.87-2.103-.87-.883 0-1.664.32-2.36.985-.7.66-1.17 1.624-1.417 2.898h6.65zm3.58 2.578H310.01c-.016.16-.02.29-.02.375 0 1.045.3 1.88.9 2.51.6.633 1.327.958 2.184.958 1.412 0 2.51-.734 3.302-2.168l3.802.62c-.74 1.524-1.724 2.663-2.965 3.413-1.245.764-2.63 1.14-4.17 1.14-2.117 0-3.826-.656-5.152-1.985-1.314-1.324-1.985-3.083-1.985-5.256 0-2.14.605-4.043 1.79-5.702 1.628-2.253 3.952-3.367 6.977-3.367 1.92 0 3.454.59 4.588 1.758 1.13 1.19 1.704 2.834 1.704 4.957 0 1.02-.1 1.934-.297 2.748m-30.572-9.104h4.25l-1.936 9.23c-.238 1.11-.36 1.793-.36 2.073 0 .45.172.84.505 1.16.338.32.76.484 1.29.484.374 0 .737-.074 1.11-.214.368-.145.74-.355 1.124-.644.387-.29.73-.625 1.032-.99.308-.375.6-.86.858-1.47.186-.45.393-1.178.61-2.197l1.568-7.43h4.265l-3.303 15.584h-3.967l.443-2.114c-1.734 1.654-3.625 2.478-5.666 2.478-1.3 0-2.31-.365-3.05-1.094-.742-.74-1.11-1.72-1.11-2.948 0-.55.167-1.614.5-3.223l1.835-8.686zm-22.768 8.61l4.25-.215c.065 1.343.292 2.252.696 2.712.655.765 1.86 1.15 3.61 1.15 1.466 0 2.52-.26 3.17-.785.656-.515.98-1.144.98-1.874 0-.634-.264-1.174-.813-1.614-.373-.32-1.397-.845-3.08-1.565-1.68-.73-2.905-1.334-3.68-1.814-.777-.488-1.392-1.113-1.836-1.887-.444-.77-.666-1.674-.666-2.72 0-1.808.666-3.302 1.987-4.506 1.33-1.19 3.242-1.79 5.752-1.79 2.54 0 4.507.59 5.91 1.785 1.396 1.174 2.157 2.753 2.308 4.717l-4.285.194c-.106-1.03-.48-1.814-1.13-2.358-.64-.55-1.583-.83-2.833-.83-1.23 0-2.117.215-2.652.645-.524.44-.786.975-.786 1.635 0 .62.236 1.124.73 1.52.474.418 1.542.978 3.196 1.698 2.516 1.06 4.1 1.918 4.78 2.583 1.013.99 1.522 2.243 1.522 3.777 0 1.904-.756 3.518-2.27 4.862-1.516 1.35-3.624 2.02-6.336 2.02-1.86 0-3.48-.316-4.84-.935-1.37-.61-2.344-1.484-2.9-2.584-.563-1.11-.826-2.373-.785-3.822m-15.962-.29c-.257.065-.595.13-1.018.19-2.128.26-3.52.64-4.18 1.12-.464.354-.696.83-.696 1.428 0 .48.183.9.536 1.23.358.344.832.504 1.406.504.646 0 1.25-.15 1.815-.46.57-.3.994-.7 1.27-1.18.283-.494.535-1.243.752-2.272l.115-.56zm-4.038-3.903l-4.155-.348c.484-1.394 1.306-2.474 2.486-3.263 1.18-.77 2.743-1.165 4.69-1.165 2.02 0 3.518.394 4.486 1.21.968.803 1.447 1.793 1.447 2.952 0 .47-.04.964-.125 1.49-.08.54-.368 1.923-.883 4.176-.413 1.854-.62 3.153-.62 3.903 0 .664.12 1.41.358 2.213h-4.134c-.16-.57-.267-1.15-.313-1.76-.615.685-1.33 1.21-2.142 1.574-.806.37-1.623.55-2.44.55-1.305 0-2.384-.42-3.23-1.27-.848-.844-1.272-1.928-1.272-3.257 0-1.494.464-2.683 1.397-3.573.933-.894 2.596-1.43 4.996-1.61 2.028-.164 3.38-.363 4.065-.603.17-.59.262-1.05.262-1.403 0-.45-.182-.83-.555-1.14-.363-.3-.902-.45-1.623-.45-.762 0-1.357.16-1.8.46-.44.31-.737.74-.893 1.314m-21.175-4.416h4.033l-.423 2.034c1.008-.86 1.95-1.484 2.823-1.85.877-.364 1.795-.543 2.768-.543 1.29 0 2.31.36 3.055 1.094.74.738 1.114 1.718 1.114 2.917 0 .555-.16 1.59-.49 3.108l-1.844 8.824h-4.25l1.86-8.845c.283-1.32.42-2.114.42-2.368 0-.54-.157-.96-.485-1.27-.318-.3-.766-.46-1.336-.46-.62 0-1.316.26-2.077.77-.762.53-1.35 1.214-1.79 2.064-.313.61-.67 1.845-1.07 3.713l-1.34 6.396h-4.25l3.282-15.586zm-8.48 6.526c.01-.18.01-.32.01-.42 0-1.154-.252-2.013-.78-2.593-.52-.58-1.22-.87-2.11-.87-.876 0-1.657.32-2.358.985-.69.66-1.165 1.624-1.412 2.898h6.65zm3.58 2.578H210.6c-.016.16-.02.29-.02.375 0 1.045.296 1.88.896 2.51.6.633 1.33.958 2.188.958 1.407 0 2.516-.734 3.297-2.168l3.808.62c-.747 1.524-1.73 2.663-2.97 3.413-1.24.764-2.632 1.14-4.164 1.14-2.108 0-3.832-.656-5.153-1.985-1.325-1.324-1.985-3.083-1.985-5.256 0-2.14.6-4.043 1.79-5.702 1.628-2.253 3.947-3.367 6.972-3.367 1.93 0 3.454.59 4.588 1.758 1.144 1.19 1.704 2.834 1.704 4.957 0 1.02-.092 1.934-.298 2.748m-30.568-9.104h4.25l-1.936 9.23c-.242 1.11-.357 1.793-.357 2.073 0 .45.167.84.5 1.16.337.32.76.484 1.29.484.373 0 .746-.074 1.114-.214.358-.145.732-.355 1.115-.644.392-.29.735-.625 1.037-.99.313-.375.605-.86.857-1.47.192-.45.4-1.178.61-2.197l1.568-7.43h4.255l-3.292 15.584h-3.967l.443-2.114c-1.733 1.654-3.624 2.478-5.67 2.478-1.29 0-2.305-.365-3.04-1.094-.747-.74-1.115-1.72-1.115-2.948 0-.55.166-1.614.504-3.223l1.834-8.686zm-19.954 12.128h4.305c1.81 0 3.02-.115 3.63-.355.62-.225 1.114-.6 1.488-1.125.373-.534.554-1.094.554-1.673 0-.72-.267-1.31-.802-1.775-.53-.46-1.416-.695-2.66-.695h-5.335l-1.18 5.622zm1.966-9.364h3.408c1.528 0 2.632-.105 3.302-.325.666-.215 1.17-.57 1.503-1.065.342-.48.508-1.004.508-1.564 0-.544-.156-.994-.48-1.354-.3-.344-.755-.574-1.345-.694-.328-.065-1.104-.095-2.35-.095h-3.463l-1.084 5.097zm-7.164 12.82l4.547-21.505h7.416c1.613 0 2.732.045 3.372.14 1.07.15 1.967.44 2.723.88.727.44 1.292 1.03 1.68 1.758.383.746.574 1.545.574 2.44 0 1.19-.337 2.228-1.003 3.113-.67.87-1.703 1.534-3.11 1.983 1.11.3 1.987.84 2.607 1.62.625.774.943 1.653.943 2.628 0 1.3-.373 2.523-1.11 3.682-.745 1.16-1.764 1.994-3.065 2.504-1.305.5-3.08.76-5.344.76h-10.228z" fill="#ef2517"/><path d="M353.773 174.388l4.482-22.555h4.4l-3.73 18.778h10.9l-.75 3.778h-15.302zm-28.062-8.744l-1.24-9.08-5.172 9.08h6.413zm.536 3.762h-8.49l-2.56 4.982h-4.534l12.115-22.555h4.89l3.474 22.555h-4.168l-.726-4.982zm-38.326 4.982h-4.11l-5.777-15.165-3.005 15.165h-4.11l4.468-22.555h4.114l5.808 15.085 2.995-15.085h4.083l-4.466 22.555zm-54.465-8.94c0 1.545.444 2.844 1.336 3.884.9 1.054 2.078 1.58 3.54 1.58 1.185 0 2.325-.42 3.424-1.246 1.104-.814 2-2.073 2.717-3.752.717-1.68 1.075-3.308 1.075-4.897 0-1.784-.454-3.168-1.356-4.172-.91-1.02-2.063-1.524-3.47-1.524-2.148 0-3.892 1.06-5.248 3.173-1.34 2.104-2.017 4.423-2.017 6.956m-4.356.084c0-1.33.19-2.738.57-4.207.493-1.984 1.25-3.703 2.268-5.157 1.023-1.464 2.304-2.608 3.85-3.458 1.55-.85 3.31-1.264 5.29-1.264 2.647 0 4.785.854 6.418 2.593 1.634 1.74 2.445 4.034 2.445 6.892 0 2.393-.528 4.687-1.587 6.92-1.064 2.22-2.5 3.933-4.326 5.127-1.825 1.203-3.877 1.808-6.18 1.808-1.992 0-3.67-.48-5.027-1.43-1.356-.953-2.3-2.138-2.88-3.552-.563-1.41-.84-2.833-.84-4.272m-29.706 8.854l4.482-22.555h4.39l-4.47 22.555h-4.402zm-25.732-8.12l4.447.705c-.874 2.533-2.174 4.462-3.904 5.806-1.74 1.338-3.76 2.008-6.095 2.008-2.615 0-4.667-.83-6.134-2.493-1.483-1.664-2.214-4.078-2.214-7.236 0-2.56.49-4.913 1.482-7.036.984-2.14 2.355-3.758 4.11-4.897 1.754-1.124 3.665-1.68 5.732-1.68 2.314 0 4.19.64 5.62 1.95 1.428 1.31 2.275 3.103 2.522 5.356l-4.22.43c-.232-1.324-.68-2.27-1.356-2.858-.66-.585-1.553-.88-2.662-.88-1.215 0-2.36.39-3.413 1.16-1.06.784-1.9 2.008-2.53 3.657-.636 1.654-.95 3.318-.95 4.972 0 1.804.414 3.198 1.236 4.182.817.98 1.845 1.484 3.07 1.484 1.145 0 2.19-.4 3.136-1.18.952-.773 1.663-1.933 2.122-3.452m-43.454-.624l-1.24-9.08-5.167 9.08h6.408zm.545 3.762h-8.49l-2.57 4.982h-4.53l12.1-22.555h4.907l3.473 22.555h-4.184l-.707-4.982zm-38.33 4.982h-4.11l-5.783-15.165-3.005 15.165H75.42l4.463-22.555h4.124l5.798 15.085 2.995-15.085h4.09l-4.468 22.555z" fill="#fff"/><path d="M47 464.05c0 15.753-12.77 28.523-28.524 28.523-15.753 0-28.523-12.77-28.523-28.523s12.77-28.524 28.523-28.524S47 448.296 47 464.05z" fill="url(#d)" transform="translate(33.663 -419.725)"/><path d="M-33.663 466.99l22.324-10.294-7.263-19.127 47.648-17.845 7.75 19.882 26.028-9.434 1.86 3.433-96.143 37.31-2.203-3.926z" fill="url(#e)" transform="translate(33.663 -419.725)"/></svg>