<svg xmlns="http://www.w3.org/2000/svg" viewBox="0 0 915.28 418.04" id="site-logo"><g id="Layer_2" data-name="Layer 2"><g id="Layer_1-2" data-name="Layer 1"><path class="cls-1" d="M378.76,78.79c-.85,17.06-6.39,34.54-11.09,52-14.93,55.87-22.6,110-19.62,162.06.43,9-1.27,18.76-.44,27.72.86,12.37.44,24.74,4.27,35.4,2.14,6,4.7,12.36-4.27,20.46-3,2.57-3.83,8.1-2.12,11.52-5.12,1.7-4.26-3.42-9-2.56-3.41,4.69-3.84,12.37-12.79,14.93-4.69,1.27-9,3-11.09-.86-1.7-2.56-3.84-3.83-6.82-5.12-10.66-5.54-19.62-11.51-16.63-26.87.43-2.56.43-5.54-2.13-7.24-.85-1.28-.85-4.27-3.84-2.56-2.56,1.7-2.13,4.27-3.41,6.39-2.56-4.26-4.26-7.68-1.28-14.07,3.42,1.28,6,0,6.4-3.84,0-7.67.86-15.35-2.13-22.17,1.71-5.55,3.41-10.66,1.71-15.35-.85-2.56-1.71-6,.85-9.38,3.84-6.4,0-8.11-2.56-11.09-3,6.39-3.84,12.36-6.4,19.19,0-14.07-.42-27.72-.42-43.93,6,3,4.69,7.24,3.84,11.09-.86,5.55,0,10.66,3.41,14.08,3.84-11.52,2.13-21.75,2.13-32.42.43-13.65,2.56-27.72,4.27-41.79.43-3-.43-6-.43-9.39-6.82,4.7-4.69,10.25-6.4,15.36-4.69.86-2.13-5.54-6-3.83-3,1.27-5.55,4.69-5.12,8.1a6.82,6.82,0,0,1-3,6c-8.53,5.55-11.09,13.65-14.93,20.9-8.53,16.64-20.47,32-26.44,49-4.69,11.94-9.38,23.46-11.95,35.39-1.28,6-1.28,11.52-7.25,17.49-3.83,3.84-1.7,8.95-4.26,13.22-2.55.85-2.55-.43-3-1.28-.84-1.71,0-5.54-3.4-4.69s-4.27,3.83-5.55,6.39a16.75,16.75,0,0,1-7.25,9c-8.1,5.54-11.51,5.12-13.22-1.7-.85-3.84-2.13-6-7.25-2.13-4.26-4.7-11.94-6.83-14.07-13.22-1.71-3.85,0-9.38-8.11-6.84-2.56.87-3.41-4.26-3.41-7.67-1.28-18.33-2.56-36.25-4.26-54.59,3.4-1.69,5.54-1.69,7.67-1.27-3-1.71,1.71-6.41,0-9.38-.85-1.71-1.28-2.13-6.4.43-3,1.7-3,0-3.41-1.28-.42-3-.42-6.83-.86-9.8,3.42-1.71,4.27,3,7.25-.86,2.13-2.56-.43-3.41-.86-4.69-2.13-3.84-10.22-2.56-9-9.38,2.13,0,6,1.28,6-2.56,0-8.53,1.7-17.49-3-24.73-3,5.11-3.85,9.38-3,12.79h-.43c-4.69.43-5.54,3.83-7.25,7.25-4.69,12.37-9.81,24.73-14.93,37.1C99,300.55,90.47,317.6,82.36,334.67c-4.69,9.37-10.65,19.19-6.82,28.14.85,2.13,1.28,5.54-4.7,8.1-5.12,1.71-1.71,4.7-2.13,7.26-.43,6.38-2.56,8.1-8.54,6.38-3.4-1.28-3.4.43-5.11,3.42-6,10.24-17.49,13.64-23.87,8.1-9-7.67-17.91-15.35-27.3-22.18-4.27-2.55-5.12-5.54-2.14-10.66,3.84.43.43,7.68,5.55,5.55,4.69-2.13,3.41-6,4.27-9.38,1.27-5.13,2.12-10.23,3.41-15.35.42-1.7,1.7-4.26.42-4.26-11.51-.43-2.56-8.53.43-11.52,3-4.25,2.56-13.21,11.94-11.94,2.56-4.26,4.69-8.52,6.82-12.79-5.55-1.28-4.26,5.12-8.53,5.55L29.92,298c1.28-3,2.13-6,6.83-6.39,2.55-.42,5.11-3,3.83-4.68-5.11-6,2.56-13.65,4.26-20.48a181.88,181.88,0,0,1,12.8-31.55c3.41,10.23-10.23,20.46-7.68,29a4.41,4.41,0,0,0,4.7-3.4c1.71-11.52,8.53-23,13.64-34.11,3.42-8.11,6.82-16.21,9.81-24.31a8.4,8.4,0,0,0-2.56-10.23c-1.28-1.28-.43-4.7,3.84-6,5.55-1.28,7.25-3.41,5.55-6-.86-1.71-6,.85-4.27-3.41,2.13-4.7,3.84-11.09,7.25-13.22,10.66-6.82,11.51-15.78,15.35-23.87s8.53-17.06,5.54-26c-3.84,6-2.13,11.51-9.38,16.63,3.84-9.8,6.82-18.76,9.81-27.29,1.28-2.56,2.13-5.55,5.54-6.4s5.12-2.12,6.4-5.11c.43-1.71,1.71-3.84,3.84-3.84,2.56-.43,3,1.27,3.41,3.41.85,4.69,1.28,9.81,2.56,17.48l12.37-25.59c3.41-.43,6.4-.43,9.38-.85,2.13,0,4.26,0,5.54-3,2.14-5.55,5.55-5.55,7.68-2.56,2.13,2.56,3.41,1.28,5.55-1.7.86-1.28,3.42-1.71,3.42-.86,1.28,5.12,8.53,4.69,9.38,11.52,3,42.65,4.26,86.15,11.51,127.08.85,3.41,0,8.1,4.27,10.67a275.18,275.18,0,0,0,16.63-22.18,892.45,892.45,0,0,1,68.23-90c9-10.23,17.48-21.32,28.58-30.28,3.84-3,7.68-6.4,9.81-1.28.42,1.7,2.55,1.7,3.83,0,7.68-10.23,18.33-9.81,27.3-14.07C366.39,59.17,379.18,67.7,378.76,78.79Zm-310,127.08c.85-1.27,1.71-3.41,3.83-3,1.28.43,1.28,1.28.86,2.55-.86,1.71-2.13,3.42-3.84,3.84C66.59,209.71,68.29,207.58,68.72,205.87Zm59.7,33.27c3,3,1.28,8.1.43,12.8C129.28,247.67,126.3,244.26,128.43,239.14Zm13.65,62.27c.42-4.26.85-8.1.85-11.52C138.66,296.29,138.66,296.29,142.07,301.4Zm2.56,23.45c-.86-.43-2.14-.85-2.14,1.29-.42,1.7-.42,3.4,1.28,3.83,1.29.43,1.71,0,2.13-1.28A3.25,3.25,0,0,0,144.63,324.86Zm137.75-.43c-2.13,5.12-1.71,9.82-5.13,14.92-3.41-5.11-1.69-11.94-.86-18.33C281.53,319.32,279.82,323.58,282.38,324.43Zm-5.13,15.35c3.84,1.29,2.56,5.55,1.28,9.39C274.7,347.46,275.56,344,277.26,339.78Zm-.42-81.88c.84-9.38,1.27-18.77,2.12-28.15a6.18,6.18,0,0,1,2.56-.85C281.53,238.29,283.23,246.82,276.84,257.91Zm0,81.88.42-.43v.43Zm6-16.2v.85h-.42C282.38,324,282.8,324,282.8,323.58ZM299,231.46c-1.27,5.12-2.56,9.81-1.27,14.93C301.14,240,299.86,235.74,299,231.46Zm3.85,105.34c-.43,9.81-1.29,17.48,1.27,24.31C308,348.74,308,346.18,302.85,336.8Zm4.27-87c-5.55,23.88-5.55,52.45-1.29,63.12Zm-3.43,84.45c3.43-5.13,3-8.1.43-11.52C302,327.41,303.28,330,303.69,334.25Zm38.81-52c-3.83,7.25-1.27,9.82-2.55,14.94C344.21,291.17,342.51,288.61,342.51,282.2Z"></path><path class="cls-1" d="M581.15,221.83c-4.07,2-8.48,2.72-12.89,3.73-2.38,10.17-.66,19-3.39,28.81-.67,3.39-1.69,6.77-2.36,10.17-1.35,5.41-4.41,8.13-10.86,11.52-5.77,3-11.52,4.4-17.29,7.45-7.46,3.39-13.21-.34-13.56-6.78-.33-11.53-1.68-23-1-34.91.69-9.83-.66-10.17-11.86-7.8-18.3,3.73-36.61,8.47-54.91,12.2-12.54,2.72-25.08,5.43-37.63,8.82-5.08,1.7-8.13,3.73-10.5,8.14a128.17,128.17,0,0,1-13.22,18c-1.69-1.35.34-3.72-1.35-4.4-3.39,2.71-4.75,6.1-8.14,10.51-1-4.07,2.71-7.45,2.37-11.18-3.73,5.41-9.15,7.45-13.21,11.18-5.43,4.41-6.78-.34-10.52-.34-2.7.34,0-3.73.68-5.77.68-2.36,1.7-4.74,2.37-7.11-2,.67-5.08,4.74-5.42-.34-.67-13.56,2.37-20.68,13.22-32.88,4.4-5.42,6.11-11.18,10.17-16.61,8.48-12.2,16.95-24.07,27.12-35.59,4.07-4.74,7.11-10.17,10.51-15.25a305.18,305.18,0,0,1,18-24.75c3.71-4.74,8.13-9.49,8.48-15.25.34-3.73,4.06-6.44,6.43-9.15,4.07-5.09,7.12-10.17,10.51-15.25,12.19-17.63,18-37,33.55-53.56,3.06-3,3.39-6.44,5.09-9.83C508.27,34,519.13,24.22,526.58,13c1-1.7,3.39-3.39,2-4.75-1.7-2-3.74,1-5.42,2.37-1.36.67-2.38,2-5.09,4.4C524.2,4.21,532.68,2.18,540.48.15a16.44,16.44,0,0,1,4.08,0c4.74,0,4.4,6.1,8.13,5.77,4.06-.34,7.79-2,10.85,1,2,2.71,7.78,1,11.51,2.71,4.4,2,7.13,5.08,7.13,9.83-.34,10.5.35,20.68-1.69,31.87C578.1,63.88,574.71,76.76,574,89c-.33,4.4-.68,8.81-3.72,13.22-2.71,4.4-.68,7.79-1.7,11.52-2.37,12.2-4.06,23.73-3,34.91.68,4.75-1.36,10.85-2.38,15.94-.67,5.08.35,8.13,6.09,7.8,5.77,0,8.15,5.42,15.26,4.07,3.74-.68,2,2.71-.35,4.74-2.71,2.71-7.45,3-8.81,8.48,12.2-4.41,13.56,4.75,17.63,9.49C598.1,205.91,592.33,216.41,581.15,221.83Zm-222.7,29.84c1-3.4,1.69-5.09,4.75-6.78-1.36,1.7-2.72,3.72-4.75,6.78Zm15.26,7.46c-2.72,5.42-8.82,9.14-9.49,14.57C369.64,269.63,372,264.55,373.71,259.13Zm9.83-43.4c-3.73,6.44-7.46,12.54-13.56,19C372.69,226.58,376.75,220.48,383.53,215.73Zm.34-.68c1-4.74,5.09-8.81,7.45-13.55C392.34,206.58,387.59,210.65,383.87,215.06Zm7.8-14.24c0,.34-.34.34-.34.68a.33.33,0,0,0-.33-.34C391.32,201.16,391.67,201.16,391.67,200.82Zm0,0c3.73-2.71,5.76-6.44,8.14-10.17,2.37-3.39,4.4-7.12,8.81-9.15l-12.54,17.29C394.72,200.48,393.37,200.48,391.67,200.82Zm29.49-15.59c-7.79,4.41-9.49,11.87-14.23,18C412.69,197.43,416.75,191.33,421.16,185.23ZM415.74,170c-.68,4.74-6.1,7.46-7.12,11.52C409.64,177.43,412.35,173.7,415.74,170Zm5.76,14.58a127.68,127.68,0,0,0,8.14-12.2C424.89,175.4,421.83,179.81,421.49,184.55ZM430.3,151a80.37,80.37,0,0,1-5.41,7.8c1-3.05,2-5.77,4.07-8.14C429.64,149.64,430.3,150,430.3,151Zm5.09,23.39c-4.05,2.71-4.05,3.06-5.75,7.8C433.36,180.48,433,177.09,435.39,174.38ZM430,171.67c3.4-2.71,5.09-6.1,7.47-10.84C432.69,164.89,430.3,167.94,430,171.67Zm13.91-12.88c-2.37,5.09-7.13,9.15-7.46,14.57C439.13,168.27,443.87,163.87,443.87,158.79Zm-4.74-22.71c1.35-6.1,6.1-10.51,9.15-15.25C445.22,125.57,446.92,131.33,439.13,136.07Zm13.56,7.79c6.77-4.4,12.2-12.54,14.24-21.35l-14.24,21.35c-2.72,4.74-5.43,9.5-8.48,14.24C450,154,454.38,149.64,452.69,143.87Zm-7.12,3.39,2.38-1.36a7.55,7.55,0,0,1,.33-2,1.79,1.79,0,0,0-2.36,1.36C445.57,145.91,445.91,146.58,445.57,147.26Zm2.71-26.44.34-.34A.33.33,0,0,1,448.28,120.82ZM524.2,86.59c-23,38.31-47.79,75.25-72.19,112.88,5.09-1,9.15-2,13.22-2.72,8.81-1.69,8.81-1.69,12.2-4.4-2-2.37-6.78,2.37-8.82-1.69,12.21-3,23.74-5.77,34.93-8.13,3.05-.68,8.47-3.39,6.77,3.38-.34,1.36,3.39.68,5.42-.34,3.4-1,2.38-3,2.38-5.09.34-12.54-.34-25.42,1-38.3,1.35-14.23,1.35-28.14,4.73-43.05C524.88,95.4,526.25,91,524.2,86.59Zm-46.77-10.5a185,185,0,0,1-22,35.25C460.81,98.79,468.29,87.26,477.43,76.08Zm-9.83,45.76c3.73-.68,4.74-3.74,6.11-6.11L492,86.25c3.06-4.75,7.13-9.49,8.13-14.57C487.59,87.95,478.11,105.23,467.6,121.84ZM469,109c5.09-3.39,6.09-5.76,6.44-9.16C473.37,102.52,472,104.89,469,109Zm14.23-42a7.37,7.37,0,0,1,.34-2.71,2.64,2.64,0,0,1,2.71-2c0,.68.67,1.36.33,2C486.24,65.91,484.55,66.58,483.19,66.92Zm13.22,121.69c-6.09-1.36-6.09-1.36-12.87,3.73C487.94,192.35,492.34,190,496.41,188.61ZM488.61,55.4c.67-1,1.37-1.7,2.38-1.7,1,.34,1,1,.33,2.39-.66.33-1.69,1.34-2.37,1.34C487.94,57.77,488.28,56.42,488.61,55.4ZM494,70.65c3.06-3,5.44-5.09,5.09-8.81C497.43,64.89,494.72,66.92,494,70.65Zm14.24-43c-1,6.44-5.42,9.83-8.15,14.24C502.52,35.06,502.52,35.06,508.27,27.61Zm-3.39,35.93c3-1.7,5.42-3.73,4.75-6.78C507.26,58.79,505.22,60.82,504.88,63.54ZM572,175.06c0-.34-.7-.68-1.38-.68a2.3,2.3,0,0,0-3,1.7c0,.34.34.68.66,1A4,4,0,0,0,572,175.06Z"></path><path class="cls-1" d="M623.51,347.25c-6,13.22-16.61,23.88-27.29,34.55-15.35,14.5-31.57,21.74-50.33,25.15-18.33,3-36.25,6.41-53.3,5.12-9.8-.85-15.78-6-22.17-9.8-19.19-10.24-33.69-25.17-33.69-49.47-.43-20.89,4.69-42.22,16.21-64.4,1.27-2.13,3.84-5.54,6-6.81,9.39-3.85,15.78-12.37,24.3-18.34,3-2.56,6.82-3.85,10.24-5.54,6-2.56,9-1.28,7.68,4.69-.86,3.42-2.14,5.54,3.85,5.12,4.25-.42,8.1,4.27,10.23,8.1,2.14,3,1.7,7.68-2.13,12.79-8.1,11.52-8.1,23.89-13.65,35.83-.85,1.28-.43,4.26.85,3.84,11.09-3.84,5.55,4.69,5.55,8.53,1.29,14.93,12.37,24.74,28.59,22.18,6.82-.86,13.63-6.82,18.34-13.65,10.65-14.5,17.05-29.85,23.45-45.21,12.79-30.28,23-60.55,27.72-90.84,2.13-11.51,4.69-23.46,5.53-35,2.57-25.59,11.51-52.46,16.64-78.47.85-3,1.71-6,4.69-8.11,4.27-3.4,4.69-7.24,7.24-11.08,3.85-.43.43,6,4.28,4.69a9.74,9.74,0,0,0,6.82-5.55c3.84-9.8,13.22-8.09,19.62-13.22,3,10.66-4.69,22.6-2.56,33.68,5.55-8.1,3.42-15.34,8.52-22.17,3-.42,2.14,1.28,3,2.13,1.27,1.71-5.54,10.66,4.7,4.27.85-.86,5.11,9.81,4.25,11.94-6,20.47-9,40.09-13.66,60.13-2.54,10.23-1.69,20.47-7.24,31.13-1.7,3.84.86,5.55,3,7.68-4.27,4.69-2.13,8.53-3.42,12.79-7.24,26.45-10.25,52-21.74,78.89-5.56,12.37-11.95,24.31-14.09,37.1-.85,4.69-6.39,10.66-9.38,16.21-3.84,7.24-6.82,14.5-10.67,22.6C617.11,357.48,616.27,347.25,623.51,347.25ZM496.43,294.37c4.27-5.12,6-9,5.55-14.93C498.13,285.41,496,289.25,496.43,294.37Zm15.78,12.79c2.14,0,.43,2.13.43,3.41-.86,1.7-1.71,3.83-3.84,3.41-2.13,0-1.7-1.71-.85-3.41S510.07,306.74,512.21,307.16Zm98.52-111.31c3.84-3.84,3.84-6.82,1.72-9.81A82.06,82.06,0,0,1,610.72,195.85Zm37.94,86.58c1.72-7.25,6.84-14.08,9.4-21.33-6.4,28.57-20.06,57.15-34.55,85.72.44-9.81,5.54-19.19,11.09-29.43C641,306.3,646.12,293.94,648.66,282.43Zm-9.38-52c3.42-3,3-6,3.42-8.53C641.43,224.43,638.87,227,639.29,230.41Zm4.69-11.1c8.11-32,9.8-62.69,17.92-96.81-4.26,5.12-5.12,8.11-6,11.09l-14.06,81.89C641.85,217.61,642.29,218.46,644,219.31Zm6.4,3.83c-3.84,5.55-5.55,10.67-4.69,16.21C650,232.53,647.81,228.27,650.38,223.14Zm7.68-47.76c-1.71,8.52-3.42,14.5-1.71,19.62C657.63,189,661.48,182.64,658.06,175.38Zm0,85.72a24.66,24.66,0,0,1,.85-5.54A25.36,25.36,0,0,1,658.06,261.1Zm7.24-26c2.14,4.69-.43,8.95-3.41,13.22C659.33,244,661,240.21,665.31,235.09Zm-.43-97.66c2.57-4.26,4.26-9,2.57-13.65C664,129.33,665.31,133.17,664.88,137.43Zm7.27,69.52c1.71,5.12-3,9.38-3.84,13.22C666.59,216.33,665.73,212.49,672.14,206.94Zm3.4-27.3c2.56,6-.86,12.79-.86,20-5.55-.85-3-6.82-5.55-8.53C671.71,187.75,671.28,183.49,675.54,179.65ZM683.22,146c-.85,1.28-1.71,3.83-3.83,2.55-1.29-.85-1.72-2.13-.44-4.26.85-1.28,2.13-3.42,3.84-2.56C684.5,142.12,683.64,144.26,683.22,146ZM682.79,134c1.71-12.37,3.84-24.73,9.81-39.23C693,105.44,687.92,126.77,682.79,134Z"></path><path class="cls-1" d="M911.59,105.55c-5.41,6.09-11.59,13.11-18.91,13-12.93-.89-27.44,4-40.35,3.48-6.87-.2-15.24,1.9-23.15,4.38-14.15,4.37-27.46,3.94-41.61,8.31-10.36,3.57-10.4,3.15-13.23,13.7-1,2.67-1.21,5.26-4.37,8.14-3.29-3.11-.31-7.68,1.06-11.24.65-2.21,2.06-5.34-.91-5.06-3.91-.48-4.38,3.42-4.6,5.58-.8,9.51-5.4,19.37-6.25,28.45-.54,7.76-4,15.82-7.12,23.82-1,2.67-.78,5.22,3,4.85,3.79-.79,3-8.43,6.26-6.17,1.43,1.58,2,3.23,5.46,3.33,8.08-.78,16.61-5.47,26.3-7.26-5,6.05-9.61,6.92-13.78,8.19-4.54,1.72-8.8,2.13-13,3-2.93.71-5.95.58-6.42,4.48.2,2.13,2.75,1.88,5.25,1.21,28.36-7.89,56.62-17,84.81-22.34,6.28-1.47,13.33-3.86,19.47-2.32-4,7.24-12.2,6.76-16.33,12.73,1.34,5,4.13,7.3,10.72,4.53,5-1.77,6.79-.66,6.44,4.52,0,4.29-.78,9.92,5.22,9.78-3.24,6.32-8.85,6-12.68,10.65,2.76,1.88,6.52,1.08,9.93.75-2.14,4.49-12.15,2.88-9.23,10.75.49.8-2.31,2.78-4.39,3.42-5.75,2.69-11.9,5.43-18.23,6.48-29.93,5-60.28,14.82-90.72,23.34-10.44,2.73-9.94,3.53-14.08,13.79-1.37,3.56-1.39,7.85-5.77,11.27-.49-5.09,2.84-10.56.95-16.8-13.07,24.4-16.41,47.44-27,70.73,10.66-4.88,19.44-2.73,28.61-5.33,20-6.22,39.63-11.12,59.31-20.31,17.26-7.66,35.05-14.08,52.39-20.91,8.66-3.41,15.46-4.06,17.63,5.14.76,3.36,3.56,5.66,7.52,7,6.58,1.51,9.49,9.37,7.18,16.45a7.74,7.74,0,0,1-3.41,4.61c-17.48,9.83-34.74,21.78-53.16,26.13-1.23.55-2.56.25-3.7,1.64-6,9.14-13.37,8.15-20.53,9.27-5.49,1-10.32,4-15.68,6.23-18.92,8.24-38,10.52-57.31,18.81-11.84-2.71-25,7.56-36.9,8.29-14,.92-28.06,6.56-42.33,9.66-5,1.34-6.5-.66-9.38-3.81-7.72-9.12-4.59-21-.27-33.82,9.21-24.45,18.88-48.52,27.66-72.94,4.84-12,9.67-24.07,9.83-35.65.32-5.6,6.28-10.46,7.82-16.61,3-12.72,7-25.53,10.43-38.29,4.73-17.59,9-35.15,13.33-52.7,1.64-5.31,2.91-9.72-3.14-10.41-3.48-.52-2.66-5.31-5.36-6.77-2.25-1.07-1.35-5,1.08-6.53,7.69-4.6,8.27-11.93,9.9-17.23,5.47-14.24,15.89-21.68,27.25-28.35,20.29-11.81,40.55-19.34,61.22-22.62,1.69-.16,3.44.09,5.7-3.12-2.7-1.45-7.86,2.9-8.78-2.15,5.4-1.8,11.17-4.08,16.66-5a502.71,502.71,0,0,1,79.16-9.79c4.71,0,5.93,3.71,9.88,4.62,5.27,1.21,3.12,5.69-.72,10.35C894,70,897,69.68,898.33,70.4c8.56,4.32,14.3,10.62,16.15,20.72C915.34,95.76,916.61,99.92,911.59,105.55ZM716.81,333.44c3.5-8,2.61-17.38,9.08-25.71C727.56,316.13,720.7,324.93,716.81,333.44Zm4.6-236.08c.19-6.88,4.28-9,8.35-11.09C730.26,91.37,725.75,93.52,721.41,97.37Zm29-19.09c-7.9,6.77-13.77,8.19-19.79,7.92,5.6-4,11.72-7.13,19.79-7.92ZM738,207.16c2.38-2,1.76-4,1.56-6.16-1.08,2.25-2.19,4.08-1.56,6.15Zm7.81-25.61c2.14-4.49,3-8.43,1.48-11.28-.09,3.44-5.63,8.26-1.48,11.28Zm4.78-21.46c2.44-5.8,3.8-9.36,3-13.57-2.13,4.49-3.47,8.47-3,13.57Zm23.16-88.35c-5.45,5.67-10.48,2.3-16.26,4.57,5.7-3.13,11.09-4.93,16.26-4.58Zm-11,107.32c-.2-2.13.86-4.37,4-7.24.28,3,.54,5.52-2.27,7.5C764.08,179.78,762.77,179.48,762.73,179.06Zm14.91,38.83c-4.94-2.1-10,3.1-14.62,4,4.71,0,9,.4,14.62-4Zm80.18-39c-15.68,6.23-31,6.86-47,14l.78-5.21C827.07,184.4,842.85,179,857.82,178.86Zm8.78-122.1c-1-1.19-2.68-1-4.33-.44-1.25.55-1.58,1.44-.68,1.78,1.31.31,2.2.65,3.43.1C865.44,58.17,866.2,57.23,866.59,56.77Z"></path></g></g></svg>
