<svg xmlns="http://www.w3.org/2000/svg" xmlns:xlink="http://www.w3.org/1999/xlink" width="460" height="293.773"><defs><linearGradient id="a" gradientTransform="matrix(0 -21 -21 0 44.3 753.9)" gradientUnits="userSpaceOnUse" x2="1"><stop offset="0" stop-color="#fff"/><stop offset="1" stop-color="#aeacac"/></linearGradient><linearGradient id="b" gradientTransform="matrix(1.6 0 0 -1.6 48.1 753)" gradientUnits="userSpaceOnUse" x2="1"><stop offset="0" stop-color="#227dca"/><stop offset="1" stop-color="#0f214a"/></linearGradient><linearGradient id="c" gradientTransform="matrix(1.6 0 0 -1.6 50.9 751.2)" gradientUnits="userSpaceOnUse" x2="1"><stop offset="0" stop-color="#227dca"/><stop offset="1" stop-color="#0f214a"/></linearGradient><linearGradient id="d" gradientTransform="matrix(1.9 0 0 -1.9 51.8 748.4)" gradientUnits="userSpaceOnUse" x2="1"><stop offset="0" stop-color="#227dca"/><stop offset="1" stop-color="#0f214a"/></linearGradient><linearGradient id="e" gradientTransform="matrix(2.7 0 0 -2.7 55.9 736.8)" gradientUnits="userSpaceOnUse" x2="1"><stop offset="0" stop-color="#227dca"/><stop offset="1" stop-color="#0f214a"/></linearGradient><linearGradient id="f" gradientTransform="matrix(1.3 0 0 -1.3 52.4 745.6)" gradientUnits="userSpaceOnUse" x2="1"><stop offset="0" stop-color="#227dca"/><stop offset="1" stop-color="#0f214a"/></linearGradient><linearGradient id="g" gradientTransform="matrix(19.7 0 0 -19.7 33.1 745.4)" gradientUnits="userSpaceOnUse" x2="1"><stop offset="0" stop-color="#227dca"/><stop offset="1" stop-color="#0f214a"/></linearGradient><radialGradient id="h" spreadMethod="pad" gradientTransform="matrix(16.9 0 0 -16.9 45 752.2)" gradientUnits="userSpaceOnUse" r="1" cy="0" cx="0" fy="0" fx="0"><stop offset="0" stop-color="#227dca"/><stop offset="1" stop-color="#0f214a"/></radialGradient><linearGradient id="i" gradientTransform="matrix(0 10.5 10.5 0 44.3 753.9)" gradientUnits="userSpaceOnUse" x2="1"><stop offset="0" stop-color="#227dca"/><stop offset="1" stop-color="#0f214a"/></linearGradient><linearGradient id="j" gradientTransform="scale(23.8) rotate(-45 39 14.2)" gradientUnits="userSpaceOnUse" x2="1"><stop offset="0" stop-color="#e9e9e9"/><stop offset=".813" stop-color="#706d6e"/><stop offset="1" stop-color="#706d6e"/></linearGradient><linearGradient id="k" gradientTransform="matrix(-9 3.6 3.6 9 60.6 731.7)" gradientUnits="userSpaceOnUse" x2="1"><stop offset="0" stop-color="#227dca"/><stop offset="1" stop-color="#0f214a"/></linearGradient><linearGradient xlink:href="#a" id="l" gradientUnits="userSpaceOnUse" gradientTransform="scale(141) rotate(90 0 3.2)" x2="1"/><linearGradient xlink:href="#b" id="m" gradientUnits="userSpaceOnUse" gradientTransform="matrix(11 0 0 11 465.9 455.1)" x2="1"/><linearGradient xlink:href="#c" id="n" gradientUnits="userSpaceOnUse" gradientTransform="matrix(10.5 0 0 10.5 484.1 466.8)" x2="1"/><linearGradient xlink:href="#d" id="o" gradientUnits="userSpaceOnUse" gradientTransform="matrix(12.5 0 0 12.5 490.7 485.9)" x2="1"/><linearGradient xlink:href="#e" id="p" gradientUnits="userSpaceOnUse" gradientTransform="matrix(17.9 0 0 17.9 517.8 563.9)" x2="1"/><linearGradient xlink:href="#f" id="q" gradientUnits="userSpaceOnUse" gradientTransform="matrix(8.5 0 0 8.5 494.3 504.6)" x2="1"/><linearGradient xlink:href="#g" id="r" gradientUnits="userSpaceOnUse" gradientTransform="translate(365.2 506.3) scale(132.2)" x2="1"/><radialGradient xlink:href="#h" id="s" gradientUnits="userSpaceOnUse" gradientTransform="matrix(113.5 0 0 113.5 445.1 460.6)" spreadMethod="pad" cx="0" cy="0" fx="0" fy="0" r="1"/><linearGradient xlink:href="#i" id="t" gradientUnits="userSpaceOnUse" gradientTransform="scale(70.6) rotate(-90 6.3 .1)" x2="1"/><linearGradient xlink:href="#j" id="u" gradientUnits="userSpaceOnUse" gradientTransform="scale(159.2) rotate(45 -2.3 4.2)" x2="1"/><linearGradient xlink:href="#k" id="v" gradientUnits="userSpaceOnUse" gradientTransform="matrix(-60 -24.1 24.1 -60 549.6 597.9)" x2="1"/></defs><path d="M413.745 448.754l-55.97 120.332c0 11.394 9.228 20.636 20.635 20.636h123.824c11.4 0 20.636-9.242 20.636-20.636L466.9 448.754h-53.155z" fill="url(#l)" transform="translate(-215.7 -379.8)"/><path d="M469.775 453.774l-3.914 1.743 4.197.898.442 4.256 2.144-3.712 4.196.89-2.87-3.182 2.146-3.713-3.92 1.742-2.87-3.177.45 4.256z" fill="url(#m)" transform="translate(-215.7 -379.8)"/><path d="M487.83 465.577l-3.752 1.675 4.02.852.43 4.088 2.065-3.56 4.014.852-2.748-3.056 2.05-3.56-3.753 1.67-2.755-3.056.43 4.095z" fill="url(#n)" transform="translate(-215.7 -379.8)"/><path d="M495.163 484.403l-4.477 1.99 4.786 1.026.516 4.872 2.446-4.25 4.792 1.026-3.284-3.64 2.453-4.242-4.47 1.99-3.278-3.638.516 4.865z" fill="url(#o)" transform="translate(-215.7 -379.8)"/><path d="M259.526 120.947l4.215-1.877-.48-4.584 3.075 3.425 4.216-1.876-2.305 3.995 3.09 3.43-4.517-.965-2.306 3.995-.476-4.585-4.51-.958zM262.98 143.93l4.217-1.876-.476-4.592 3.084 3.425 4.21-1.87-2.306 3.995 3.083 3.425-4.51-.96-2.3 3.996-.48-4.584-4.52-.96z" fill="#fff"/><path d="M524.258 561.734l-6.407 2.855 6.857 1.46.737 6.964 3.5-6.073 6.848 1.463-4.684-5.208 3.512-6.066-6.415 2.848-4.684-5.208.738 6.964z" fill="url(#p)" transform="translate(-215.7 -379.8)"/><path d="M246.71 140.713l4.343-1.93-.49-4.74 3.178 3.54 4.344-1.937-2.373 4.122 3.185 3.54-4.658-.993-2.373 4.122-.502-4.732-4.652-.992z" fill="#fff"/><path d="M497.348 503.552l-3.036 1.354 3.244.683.355 3.303 1.657-2.875 3.257.69-2.225-2.466 1.654-2.875-3.036 1.347-2.225-2.466.355 3.304z" fill="url(#q)" transform="translate(-215.7 -379.8)"/><path d="M365.187 449.277L491.873 565.6l5.536-2.385-129.207-116.297-3.016 2.36z" fill="url(#r)" transform="translate(-215.7 -379.8)"/><path d="M338.586 499.59c0 41.467 46.44 75.086 103.717 75.086 57.284 0 103.724-33.62 103.724-75.085 0-41.473-46.44-75.084-103.724-75.084-57.277 0-103.717 33.61-103.717 75.085m20.153-7.31c0-33.245 37.478-60.188 83.71-60.188 46.232 0 83.71 26.943 83.71 60.187 0 33.242-37.478 60.19-83.71 60.19-46.232 0-83.71-26.948-83.71-60.19" fill="url(#s)" transform="translate(-215.7 -379.8)"/><path d="M423.128 379.76c-3.325 0-6.02 2.702-6.02 6.02 0 3.324 2.695 6.025 6.02 6.025h3.338c-.08.57-.188 1.133-.188 1.716v28.285l-12.533 26.95H466.9l-12.526-26.95V393.52c0-.582-.1-1.145-.2-1.715h2.492c3.324 0 6.012-2.7 6.012-6.025 0-3.318-2.688-6.02-6.012-6.02h-33.538z" fill="url(#t)" transform="translate(-215.7 -379.8)"/><path d="M436.727 420.545c-.248 1.434-.724 3.6-1.683 5.757-.958 2.15-.475 5.268-.475 5.268s-1.2.476-4.07-.242c-2.888-.717-7.674-2.875-10.315-3.35-2.64-.483-23.74-1.2-32.365 1.2-8.632 2.392-9.108 10.066-7.915 13.658 1.206 3.6.965 5.275 1.206 10.074.236 4.792 3.346 6.467 3.346 6.467s3.84 3.124 3.6 8.633c-.236 5.522 4.074 9.108 4.074 9.108l-3.358 8.157s1.44.958 1.93 3.35c.476 2.407-1.447 3.84-1.447 3.84s-.96 2.876-1.917 6.47c-.96 3.605.717 6.232.717 11.755 0 5.51-.483 6.95-.717 17.023-.24 10.067-3.834 31.16-4.303 38.116-.496 6.95-4.812 14.51-4.812 14.51l3.364 1.206v7.908l4.31 1.44s1.675 1.436 4.557 3.828c2.882 2.406 10.315 3.13 12.46.965 2.158-2.158-1.186-6.233-1.186-6.233l-6.723-6.715.49-1.918s1.192-2.634 1.192-5.275c0-2.64.96-4.685.96-4.685s3.833-6.957 5.267-13.19c1.448-6.226 5.764-23.25 5.764-23.25s.476 3.593.95 7.192c.49 3.592 3.6 13.666 4.324 17.982.718 4.31 2.16 10.55 3.11 13.418.96 2.882 1.683 8.7 1.683 10.857 0 2.166 1.44 5.524 1.44 5.524s2.16 1.193 3.11 1.434c.965.235 3.84-.24 3.84-.24s2.16.957 3.84 1.675c1.67.717 7.916.717 12.702.958 4.792.242 3.6-1.2 3.6-3.826 0-2.64-4.076-3.6-5.993-4.8-1.923-1.2-5.764-4.074-5.764-4.074s-.234-5.34-.234-7.982c0-2.64-.483-4.068-2.64-6.227-2.146-2.17-2.876-5.04-3.11-8.155-.242-3.117-.477-6.95-.718-16.54-.24-9.592-.965-18.948-.965-25.416 0-6.47-.96-14.143-.96-18.942 0-4.792-1.922-6.226-1.922-6.226l2.642-4.082c2.654-4.068 3.123-6.95 3.123-6.95s.717 5.033.717 8.385c0 3.364 1.44 6.956 1.44 6.956s.236 3.118.236 4.8c0 1.676-.235 4.792-.235 6.944 0 2.165-1.676 4.323-1.206 6.715.482 2.4 1.206 2.633 2.158 3.357.958.717 1.923.96 2.882 2.4.958 1.44 4.792-1.44 4.792-1.44s.24-.96.48-2.642c.236-1.676-.95-2.393-1.192-4.068-.248-1.676.952-5.516 1.917-7.433.952-1.917.235-5.992.235-8.157 0-2.158.958-5.75 1.917-8.625.958-2.876.723-9.826.24-12.225-.488-2.393-.24-11.025.235-15.59.483-4.544-.234-7.426-.234-7.426s-2.648-2.398-3.117-4.798c-.48-2.392.725-3.592.725-3.592l1.67.958c1.675.96 3.122.96 4.322-.234 1.193-1.207 3.35-2.882 3.35-2.882l2.635-.483-.24-5.275 1.446-.476c1.44-.477 1.676-1.442 1.676-3.124 0-.517.1-1.133.228-1.73.744.416 1.964 1.1 3.016 1.696 1.615.925 3.465.932 3.465.932l-5.18-5.724c7.278-6.42-5.108-12.842-5.108-12.842-2.172-.697-4.102-.985-5.804-.985-8.477 0-11.473 7.152-11.473 7.152m-45.314 23.833s-.18-2.078-.878-3.284c-.684-1.22-.684-4.692-.684-4.692s1.214-.516 3.118.174c1.903.704 2.433.704 2.433.704-.355 2.245-4.168 10.395-4.168 10.395l.18-3.297z" fill="url(#u)" transform="translate(-215.7 -379.8)"/><path d="M491.826 565.588l12.654 11.615h-18.92l-5.55 12.486h72.833l-5.556-12.487H512.95l-15.548-14c-1.816.836-3.68 1.627-5.576 2.385" fill="url(#v)" transform="translate(-215.7 -379.8)"/><path d="M54.31 282.447h-9.145l-5.517-28.67-10.71 29.362h-3.37L14.86 253.776l-5.735 28.67H.015l10.7-53.207h5.016l11.498 35.822 11.256-35.822h4.972l10.854 53.207zM78.123 244.775l-6.39 19.634h12.772l-6.382-19.635zm13.028 37.637l-3.888-10.782H69.047l-3.706 10.782H54.853l21.194-53.897h4.136l21.384 53.897H91.15zM142.07 283.138l-25.805-33.645v32.953h-9.073v-53.208h4.535l25.114 32.09v-32.09h9.075v53.9h-3.846zM156.805 229.24h9.438v36.043c0 2.854.873 5.174 2.614 6.968 1.743 1.79 4.136 2.683 7.18 2.683 3.418 0 6.066-.877 7.975-2.63 1.893-1.752 2.838-4.154 2.838-7.2v-35.864h9.448v36.585c0 5.47-1.84 9.75-5.502 12.85-3.662 3.095-8.56 4.645-14.688 4.645-6.17 0-10.925-1.513-14.282-4.538-3.346-3.023-5.02-7.355-5.02-12.994v-36.55zM214.44 255.555c0 5.567 1.11 10.22 3.337 13.97 2.23 3.755 5.343 5.63 9.366 5.63 4.64 0 8.166-1.72 10.56-5.156 2.397-3.435 3.594-8.25 3.594-14.445 0-12.56-4.712-18.84-14.154-18.84-4.16 0-7.317 1.685-9.472 5.05-2.15 3.36-3.23 7.957-3.23 13.79m43.154 37.855c-1.597.218-3.216.324-4.862.324-4.5 0-8.643-.914-12.436-2.738-3.786-1.828-6.728-4.385-8.83-7.676-.898.168-2.34.253-4.323.253-6.996 0-12.49-2.61-16.5-7.842-4.004-5.223-6.007-11.948-6.007-20.175 0-7.792 2.05-14.282 6.142-19.472 4.083-5.19 9.54-7.786 16.365-7.786 7.673 0 13.58 2.4 17.732 7.205 4.145 4.804 6.222 11.485 6.222 20.053 0 12.703-4.16 21.184-12.482 25.444 2.636 2.9 7.015 4.35 13.137 4.35 2.25 0 4.198-.24 5.842-.726v8.786zM259.885 229.24h9.432v36.043c0 2.854.873 5.174 2.613 6.968 1.744 1.79 4.136 2.683 7.193 2.683 3.406 0 6.06-.877 7.963-2.63 1.9-1.752 2.85-4.154 2.85-7.2v-35.864h9.435v36.585c0 5.47-1.833 9.75-5.5 12.85-3.662 3.095-8.56 4.645-14.682 4.645-6.163 0-10.932-1.513-14.278-4.538-3.353-3.023-5.025-7.355-5.025-12.994v-36.55zM310.44 229.24h9.436v53.173h-9.435V229.24zM365.82 283.138l-25.802-33.645v32.953h-9.073v-53.208h4.532l25.117 32.09v-32.09h9.076v53.9h-3.85zM378.017 279.473l3.487-8.456c3.728 2.61 7.39 3.917 11 3.917 5.537 0 8.31-1.936 8.31-5.804 0-1.815-.652-3.546-1.962-5.19-1.303-1.647-4-3.493-8.072-5.536-4.08-2.046-6.824-3.728-8.243-5.044-1.413-1.32-2.505-2.888-3.266-4.703-.76-1.815-1.14-3.82-1.14-6.023 0-4.114 1.51-7.526 4.516-10.237 3.013-2.707 6.877-4.064 11.593-4.064 6.153 0 10.66 1.15 13.542 3.447l-2.863 8.13c-3.317-2.37-6.813-3.558-10.49-3.558-2.18 0-3.87.577-5.063 1.725-1.203 1.15-1.796 2.645-1.796 4.485 0 3.048 3.373 6.216 10.122 9.507 3.56 1.743 6.123 3.346 7.695 4.81 1.572 1.464 2.77 3.167 3.596 5.117.82 1.946 1.23 4.117 1.23 6.512 0 4.31-1.7 7.853-5.098 10.635-3.4 2.785-7.956 4.173-13.664 4.173-4.958 0-9.437-1.282-13.433-3.845M436.566 244.775l-6.39 19.634h12.774l-6.384-19.635zm13.03 37.637l-3.882-10.782H427.49l-3.706 10.782h-10.486l21.2-53.897h4.135l21.38 53.897h-10.416z" fill="#231f20"/></svg>