<svg xmlns="http://www.w3.org/2000/svg" width="350" height="468.976"><path d="M.69 57.19C71.715 60.454 130.887 42.576 175.477 0 219.106 44.042 278.968 60.453 350 57.672V288.51c-24.95 256.64-342.7 224.053-350 0L.69 57.19z" fill="#231f20"/><path d="M13.578 69.974c65.215 1.458 119.996-14.962 161.888-53.086C215.95 57.785 271.55 72.865 337.49 70.463V284.52c-23.24 238.314-318.122 208.037-324.84 0l.928-214.546z" fill="#fff"/><path d="M174.66 415.195c67.762 0 122.997-57.436 122.997-127.903 0-70.46-55.235-127.894-122.997-127.894-67.677 0-122.786 57.435-122.786 127.894 0 70.467 55.11 127.903 122.786 127.903" fill="#2b3484"/><path d="M174.66 415.195c67.762 0 122.997-57.436 122.997-127.903 0-70.46-55.235-127.894-122.997-127.894-67.677 0-122.786 57.435-122.786 127.894 0 70.467 55.11 127.903 122.786 127.903z" fill="none" stroke="#2b3484" stroke-width="2.29270432"/><path d="M56.873 250.26l235.457-.243c6.5 25.456 6.254 50.44-.236 74.91l-234.54.142c-8.36-25.7-6.615-51.055-.68-74.81" fill="#fff"/><path d="M174.66 415.195c67.762 0 122.997-57.436 122.997-127.903 0-70.46-55.235-127.894-122.997-127.894-67.677 0-122.786 57.435-122.786 127.894 0 70.467 55.11 127.903 122.786 127.903z" fill="none" stroke="#2b3484" stroke-width="12.9807524"/><path d="M174.526 132.483L50.14 359.806h249.035L175.015 133.09l-.49-.607z" fill="#fff"/><path d="M29.822 91.455l-.472-14.953 4.29-.236 3.026 10.123 2.21-10.267 4.416-.236.472 14.96-2.69.128-.463-11.717-2.443 11.835-2.773.118-3.246-11.69.338 11.817-2.664.118zM45.836 75.41l.69 14.96 2.9-.125-.674-15.07-2.916.235zM52.205 90.01L50.713 75.18l2.9-.38 6.852 9.298-1.054-9.896 2.665-.354 1.517 14.945-2.9.38-6.726-9.188 1.037 9.794-2.798.23zM64.76 73.49l1.744 14.826 2.9-.354-1.746-14.835-2.9.363zM70.663 82.773l2.672-.725c.354.96.818 1.577 1.408 1.93.565.372 1.273.48 2.183.372.936-.127 1.526-.498 1.98-.978.363-.48.583-.96.473-1.576 0-.346-.245-.6-.473-.835-.228-.125-.598-.37-1.045-.488-.455 0-1.163-.118-2.428-.236-1.635-.118-2.655-.48-3.363-.86-1.06-.708-1.626-1.677-1.744-2.756-.11-.86 0-1.568.22-2.3.353-.71.825-1.324 1.626-1.805.708-.49 1.517-.725 2.57-.978 1.72-.236 3.23-.1 4.165.633 1.054.59 1.753 1.677 1.972 3.01l-2.91.58c-.226-.708-.563-1.188-1.044-1.44-.33-.363-1.028-.363-1.837-.245-.827.134-1.51.38-1.856.85-.135.254-.26.6-.26.962.125.38.26.615.48.86.455.227 1.4.455 2.798.598 1.492.118 2.537.22 3.237.472.69.253 1.39.717 1.86 1.323.465.49.81 1.332.912 2.175.118.85 0 1.694-.33 2.537-.336.843-.926 1.45-1.626 1.93-.817.498-1.854.852-3.01 1.096-1.862.363-3.253.127-4.323-.598-1.028-.717-1.83-1.93-2.31-3.507M88.426 84.35L85.98 72.16l-4.162.97-.574-2.53 11.262-2.443.438 2.444-4.164.945 2.562 12.188-2.916.616zM97.365 82.048l-3.48-14.48L104.2 64.92l.574 2.394-7.535 1.947.816 3.254 7.09-1.795.572 2.4-7.09 1.805.945 3.987 7.89-2.065.582 2.537-10.68 2.664zM112.325 61.897c1.053-.345 1.87-.48 2.453-.48.81 0 1.365.244 2.082.716.573.615 1.036 1.197 1.272 2.057.363 1.08.363 2.048 0 3.01-.337.86-1.17 1.685-2.31 2.31.802.117 1.383.344 1.847.58.572.245 1.398.86 2.443 1.703l2.537 2.166-3.354 1.213-3.026-2.3c-1.03-.844-1.728-1.443-2.074-1.57-.354-.235-.69-.353-1.037-.353-.245 0-.498.118-.835.118v-2.546h.118c1.28-.463 2.1-.834 2.444-1.08.21-.243.464-.487.573-.84.127-.364 0-.743-.11-1.198-.11-.48-.336-.86-.7-.97-.353-.244-.808-.362-1.272-.244-.11 0-.463.118-1.053.354v-2.647zm0 13.276v2.52l.834-.227-.835-2.293zm-1.956 3.254l-4.645-14.237 5.782-2.057c.245-.126.6-.236.818-.236v2.647c-.22.118-.573.244-.927.38l-2.192.707 1.256 3.626 1.863-.734v2.546c-.11.11-.346.11-.573.236l-.573.228 1.145 3.64v2.52l-1.956.735zM118.826 59.368l5.218 13.975 2.68-1.087-5.133-13.993-2.764 1.105zM132.285 53.815c.936 0 1.77.236 2.562.607 1.737.717 3.018 2.15 3.954 4.45.92 2.184 1.03 4.232.346 6.053-.58 1.67-1.863 3.017-3.852 3.852-1.037.48-2.073.725-3.01.725V66.73c.726.108 1.4 0 1.973-.254 1.037-.49 1.863-1.332 2.21-2.402.353-1.096.243-2.42-.465-4.122-.708-1.55-1.5-2.52-2.436-3.01-.447-.227-.826-.37-1.28-.37v-2.757zm-6.38 10.73c-.574-1.323-.82-2.646-.82-3.734 0-.858.246-1.684.473-2.41.346-.85.7-1.457 1.155-2.064.69-.717 1.627-1.324 2.672-1.796 1.037-.49 1.98-.615 2.9-.725v2.757c-.59-.11-1.155 0-1.863.37-1.138.49-1.837 1.223-2.2 2.293-.337 1.088-.228 2.42.472 4.105.59 1.585 1.39 2.53 2.436 3.018.464.236.8.37 1.155.37v2.774c-.8 0-1.62-.118-2.428-.49-1.745-.716-3.026-2.174-3.953-4.466M149.583 44.756c.573 0 1.045.126 1.61.236.834.244 1.644.742 2.318 1.466.717.725 1.41 1.568 2.108 2.9.582 1.08.936 2.04 1.037 3 .22 1.097.22 2.176-.1 3.018-.23.717-.583 1.45-1.156 2.175-.48.482-1.173.962-2.108 1.577l-3.71 2.05v-3.39l.23.37 1.86-1.086c.81-.362 1.274-.724 1.493-.977.346-.354.582-.717.717-1.205.22-.354.22-.96 0-1.686-.135-.59-.48-1.442-.936-2.53-.59-.96-1.037-1.693-1.5-2.165-.472-.48-.936-.725-1.4-.852h-.463v-2.9zm-8.126 3.995l4.662-2.662c1.035-.59 1.845-1.096 2.544-1.206.337 0 .573-.126.92-.126v2.9c-.347-.127-.71 0-1.046.126-.455.118-1.172.472-2.2 1.08l-1.172.597 4.417 8.327v3.39l-1.155.597-6.97-13.023zM161.2 54.417l-7.687-12.67 9.062-5.907 1.28 2.166-6.616 4.223 1.727 2.898 6.162-3.995 1.272 2.057-6.145 3.995 2.1 3.498 6.835-4.467 1.28 2.166-9.27 6.035zM185.208 45.967l1.5-2.048 5.008 3.724-3.39 4.83c-.79.253-1.836.135-3-.236-1.163-.354-2.334-.834-3.245-1.568-1.28-.96-2.114-2.048-2.68-3.253-.463-1.206-.7-2.42-.463-3.743.236-1.44.818-2.655 1.627-3.852.936-1.205 1.99-2.183 3.16-2.798 1.13-.59 2.403-.708 3.81-.464 1.046.11 2.1.582 3.12 1.45 1.525 1.07 2.46 2.293 2.806 3.507.346 1.323.203 2.51-.236 3.835l-2.672-1.324c.236-.716.236-1.44 0-2.166-.126-.607-.59-1.197-1.264-1.804-1.054-.725-2.124-.977-3.16-.725-1.147.11-2.074.97-3.01 2.293-1.037 1.433-1.5 2.79-1.39 3.87.117 1.204.7 2.148 1.626 3.008.59.354 1.028.607 1.736.725.59.235 1.29.235 1.737.235l1.163-1.44-2.782-2.058zM198.666 45.004c.236-.126.557 0 .826 0 .928.118 1.964.48 3 1.206 1.746 1.087 2.91 2.53 3.364 4.467.363 1.796 0 3.86-1.264 5.9-1.163 2.057-2.672 3.38-4.417 3.87-.447.126-1.045.244-1.51.244v-2.907c.12 0 .355-.11.465-.11 1.155-.362 2.082-1.323 2.908-2.773.944-1.45 1.146-2.78 1.054-3.877-.236-1.07-.818-2.048-1.88-2.647-.792-.472-1.72-.716-2.546-.598v-2.774zm-6.043 4.105c.708-1.332 1.534-2.293 2.452-2.9.692-.48 1.4-.852 2.2-1.088.473-.118.945-.118 1.39-.118v2.774c-.218 0-.336.126-.572.126-1.037.362-1.955 1.315-2.9 2.773-.817 1.442-1.188 2.773-.935 3.86.227 1.19.817 2.04 1.88 2.656.783.59 1.61.725 2.528.59v2.908c-1.264 0-2.528-.378-3.81-1.188-1.87-1.23-3.034-2.672-3.37-4.484-.473-1.947-.12-3.86 1.137-5.91M212.498 52.356l2.082 1.096c1.037.6 1.855.97 2.21 1.315.462.37.8.86 1.154 1.332.236.47.328.968.328 1.575.127.607 0 1.197-.328 1.812-.245.6-.692 1.088-1.282 1.45-.58.363-1.298.464-1.98.464.682.616 1.17 1.35 1.264 2.184.135.86 0 1.56-.33 2.284-.344.615-.69 1.214-1.29 1.576-.572.49-1.136.725-1.828.843v-3.262c.21-.11.33-.354.456-.58.236-.49.354-.86.236-1.215 0-.363-.236-.717-.48-1.096-.102 0-.102-.118-.212-.118v-3.018c.21.127.456.245.548.245.48.244.944.244 1.28.126.482-.127.71-.372.946-.86.236-.355.236-.835.092-1.206 0-.354-.328-.733-.683-.96-.218-.12-.926-.608-2.182-1.206v-2.782zm-3.034-1.56l3.034 1.56v2.782l-1.517-.843-1.516 3.136 1.745.852c.445.345.926.59 1.288.716v3.018c-.362-.362-1.062-.716-1.99-1.214l-2.098-1.197-1.736 3.625 2.343 1.323c.91.472 1.62.717 1.838.835.455.126.8.126 1.154-.118.235 0 .353-.127.488-.245v3.262c-.598.118-1.29 0-1.99-.354-.47-.135-1.49-.615-3.236-1.576l-4.29-2.293 6.482-13.267zM216.09 70.828l5.208-13.993 9.98 3.97-.91 2.42-7.198-2.9-1.18 3.136 6.734 2.656-.817 2.41-6.727-2.773-1.5 3.87 7.552 3.017-.81 2.293-10.333-4.105zM237.193 63.232l1.87.725c1.493.48 2.437 1.07 3.01 1.56.582.463 1.046 1.087 1.172 1.92.21.726.093 1.578-.126 2.42-.347 1.096-.937 1.813-1.763 2.31-.8.464-1.838.59-3.102.346.455.615.81 1.095 1.02 1.694.244.59.472 1.56.834 2.883l.674 3.38-3.23-1.206-.36-1.45v-7.838c.707.252 1.154.362 1.398.362.354 0 .683-.11 1.037-.362.227-.236.48-.607.59-.96.1-.482.1-.962 0-1.333-.11-.363-.473-.607-.81-.843-.245-.118-.953-.354-1.99-.86h-.227v-2.748zM228.62 76.02l4.645-14.12 3.928 1.332v2.748l-1.964-.708-1.173 3.625 1.973.725c.463.118.8.236 1.163.354v7.84l-.556-2.404c-.37-1.34-.607-2.174-.826-2.554-.117-.345-.362-.69-.58-.826-.23-.236-.692-.49-1.4-.725l-.565-.236-1.87 5.91-2.774-.96zM242.426 80.96l3.464-14.606 2.672.724 3.515 11.22 2.293-9.66 2.562.624-3.48 14.6-2.8-.735-3.37-10.966-2.32 9.526-2.536-.725zM269.103 87.484l-3.136-.734-.573-3.498-2.427-.48v-2.655l1.972.472-.928-5.91-1.045 1.694V71.19l.236-.236 3.01.59 2.89 15.94zm-6.136-4.712l-3.246-.717-1.752 3.127-3.136-.606 8.135-13.386v5.184l-1.872 3.39 1.872.353v2.655zM280.496 83.623l2.64 1.19c-.574 1.575-1.485 2.78-2.538 3.395-1.046.717-2.436.96-3.937.717-1.878-.245-3.362-1.096-4.432-2.655-1.03-1.458-1.46-3.38-1.147-5.8.237-2.402 1.063-4.197 2.446-5.546 1.382-1.214 3.135-1.694 5.09-1.315 1.737.1 3.128.834 4.072 2.048.582.724 1.045 1.694 1.172 3.017l-2.908.354c-.118-.852-.354-1.46-.818-2.057-.582-.473-1.163-.7-1.972-.852-1.046-.108-1.964.153-2.68.853-.793.724-1.257 1.93-1.51 3.742-.11 1.804 0 3.262.59 4.097.574.85 1.273 1.323 2.318 1.576.843 0 1.51-.118 2.09-.607.7-.362 1.164-1.086 1.526-2.157M284.892 89.776l2.9.354 1.736-14.835-2.765-.37-1.87 14.85zM297.538 75.762h.472c2.082.135 3.827.97 4.99 2.428 1.164 1.44 1.627 3.37 1.5 5.917-.126 2.402-.926 4.206-2.3 5.428-1.172 1.197-2.807 1.804-4.662 1.804v-2.665c1.046 0 1.855-.362 2.554-1.078.826-.843 1.265-2.04 1.39-3.87.128-1.677-.125-3.017-.79-3.852-.718-.97-1.653-1.45-2.79-1.45-.136-.134-.237-.134-.364-.134v-2.528zm-6.945 7.376c.11-1.577.33-2.79.91-3.87.346-.733.818-1.314 1.4-1.92.69-.5 1.272-.97 1.972-1.232.817-.22 1.618-.354 2.663-.354v2.53c-1.045 0-1.955.378-2.663 1.086-.793.86-1.147 2.065-1.28 3.886-.12 1.686.133 3.01.825 3.852.682.978 1.61 1.44 2.773 1.56h.345v2.663c-.21-.136-.345-.136-.446-.136-2.217-.118-3.87-.96-4.99-2.41-1.18-1.442-1.745-3.372-1.51-5.656M306.353 91.584l.48-15.08 2.9.12 5.437 10.24.354-10.005 2.79.117-.59 14.96-2.89-.125-5.455-10.014-.355 9.786h-2.672z" fill="#fabb18"/><path d="M176.625 238.548l6.507-76.375-8-14-8.613 14.834 6.615 75.668 3.49-.127zM166.185 240.837l-21.24-40.906 10.788-17.852 15.56 56.6-5.108 2.16zM164.435 242.052l-23.896-31.744-7.318 13.638 27.504 22.446 3.71-4.34zM159.443 248.44l-32.477-17.01-5.807 13.285 36.893 7.232 1.39-3.506zM157.362 255.57l-41.547-3.39-9.516 18.106 51.172-10.376-.11-4.34zM158.175 263.267l-52.69 23.543 15.78 16.647 40.163-35.242-3.253-4.948zM163.738 271.237l-22.506 27.395 19.497.733 8.234-24.63-5.226-3.498zM172.222 274.98l-3.48 24.757h12.17l-3.582-24.612-5.108-.144zM180.572 274.272l8.927 25.81 19.377-.716-22.75-28.482-5.555 3.388zM188.69 269.073l37.426 33.362 13.95-1.307 1.593-15.248-49.632-22.708-3.338 5.9zM192.273 259.55l52.926 11.344-11-18.957-41.573 3.633-.354 3.98zM190.44 248.325l33.767-17.38 6.263 13.51-38.538 7.35-1.492-3.48zM185.316 241.807l25.768-34.155 6.035 14.962-27.834 23.896-3.97-4.703zM178.706 238.784l15.442-56.592 10.67 17.254-21.467 41.395-4.644-2.056z" fill="#789bcd"/><path d="M100.6 301.194c3.303-47.422 35.882-83.86 74.807-83.86 38.217 0 70.23 34.862 74.665 81.062" fill="none" stroke="#789bcd" stroke-width="12.744738719999999"/><path d="M106.28 300.692c.86-44.464 32.62-80.017 71.402-80.017 38.41 0 69.944 34.668 71.52 78.516" fill="none" stroke="#30a644" stroke-width="11.69953528"/><path d="M112.21 301.32c0-1.384-.136-2.884-.136-4.266 0-39.195 29.25-70.973 65.123-70.973 36.025 0 65.106 31.78 65.106 70.974v3.624" fill="none" stroke="#ea2026" stroke-width="10.39303098"/><path d="M175.125 277.042c10.536 0 19.142-8.935 19.142-19.918 0-10.966-8.606-19.918-19.142-19.918-10.58 0-19.16 8.952-19.16 19.918 0 10.983 8.58 19.918 19.16 19.918" fill="#fff"/><path d="M175.125 277.042c10.536 0 19.142-8.935 19.142-19.918 0-10.966-8.606-19.918-19.142-19.918-10.58 0-19.16 8.952-19.16 19.918 0 10.983 8.58 19.918 19.16 19.918z" fill="none" stroke="#fff" stroke-width=".48888548000000004"/><path d="M176.85 271.237c.345-7.232 3.118-9.044 6.87-8.328-.6-13.976-4.317-21.46-12.56-19.65-2.537.59-3.692 2.64-1.51 3.862 1.864.236 2.353.97 1.51 2.284-4.392 3.607-5.91 8.075-3.59 13.385 1.626 2.892 4.76 3.154 5.115 8.582l4.164-.135z" fill="#ea2026"/><path d="M87.39 417.028l11.572-17.87 3.448 2.478-.784 16.875 7.763-12.035 3.21 2.343-11.59 17.886-3.422-2.486.64-16.52-7.627 11.69-3.21-2.36zM106.312 429.222l10.09-18.872 3.692 2.115-10.107 18.88-3.675-2.123zM129.822 430.988l3.447 2.605c-1.332 2.014-2.85 3.312-4.61 3.894-1.645.565-3.617.53-5.69-.236-2.64-.884-4.485-2.62-5.47-5.04-1.122-2.444-1.072-5.344-.077-8.58 1.23-3.355 2.908-5.614 5.26-6.895 2.216-1.307 4.762-1.476 7.535-.464 2.41.894 4.147 2.252 5.142 4.317.556 1.23.893 2.68.733 4.484l-4.307-.437c.16-1.223-.06-2.192-.497-3.035-.575-.86-1.367-1.467-2.412-1.863-1.51-.514-2.89-.413-4.063.287-1.28.826-2.36 2.368-3.12 4.78-.85 2.63-1.137 4.686-.572 6.026.556 1.458 1.593 2.428 2.967 2.942 1.02.387 2.082.278 3.01-.06 1.06-.463 1.887-1.407 2.722-2.722M154.277 445.43l-4.39-1.053-.836-5.192-3.455-.658.068-3.742 2.78.53-1.128-8.344-1.543 2.378.144-7.468.244-.363 4.383.927 3.734 22.986zm-8.682-6.903l-4.61-1.054-2.673 4.41-4.383-1.046 11.986-18.957-.144 7.468-2.9 4.78 2.79.657-.067 3.742zM167.32 424.802l.708.008c2.192.17 3.81.447 4.737.945 1.037.387 1.83 1.12 2.386 2.216.566.97.776 2.066.743 3.398-.135 1.55-.616 2.866-1.585 3.953-1.07.937-2.444 1.52-4.215 1.738.81.607 1.51 1.23 2.074 1.947.582.624 1.35 1.863 2.26 3.692l2.334 4.248-5.082-.21-2.722-4.88c-.886-1.468-1.45-2.43-1.897-3.06l.083-4.822c1.408.025 2.2.034 2.68-.186.473-.1.92-.354 1.172-.817.363-.363.515-.978.523-1.568.017-.725-.118-1.315-.472-1.82-.33-.48-.91-.742-1.484-.87-.345-.134-1.028-.15-2.31-.294l.068-3.616zm-9.204 21.19l1.087-21.578 8.117.388-.067 3.616-.81-.017-3.26-.176-.313 5.555 3.127.168 1.146.025-.084 4.82c.007-.125-.11-.243-.22-.252-.346-.47-.7-.724-1.147-.976-.463-.118-1.154-.253-2.09-.388l-.91-.017-.413 9.027-4.164-.194zM199.007 444.46l-4.543.648-2.37-4.627-4.652.515.068-3.608 2.9-.32-2.8-5.48.144-7.357.48-.118 10.773 20.347zm-11.565-3.465l-3.608.53-1.137 5.042-4.29.54 5.52-22.473 3.827-.404-.143 7.358-.994-2.19-1.896 8.284 2.79-.295-.068 3.608zM210.226 434.065l-.877-3.524 8.63-2.477 2.167 8.345c-.6 1.07-1.67 2.15-3.06 3.195-1.44 1.188-3.093 1.896-4.703 2.46-2.09.566-4.08.524-5.816.136-1.83-.524-3.305-1.51-4.57-3.002-1.145-1.467-2.047-3.17-2.57-5.226-.548-2.192-.623-4.24-.11-6.153.38-1.923 1.324-3.592 2.875-4.898 1.045-1.063 2.554-1.88 4.442-2.453 2.57-.676 4.653-.634 6.263 0 1.736.757 2.975 1.996 3.886 3.81l-3.878 1.86c-.556-.985-1.256-1.583-2.166-1.98-.893-.37-1.955-.387-3.127-.058-1.753.472-3.043 1.517-3.768 2.958-.733 1.425-.868 3.254-.236 5.546.54 2.538 1.55 4.24 2.932 5.134 1.374.978 3.018 1.256 4.636.683.936-.228 1.745-.565 2.453-1.164.827-.582 1.41-1.18 1.89-1.897l-.64-2.664-4.654 1.365zM217.59 418.023l3.742-1.728 4.552 10.696c.792 1.704 1.24 2.673 1.568 3.17.564.725 1.146 1.23 2.073 1.475.8.144 1.736.026 2.782-.404 1.053-.606 1.76-1.204 2.132-1.92.345-.7.497-1.417.27-2.15-.102-.725-.55-1.838-1.215-3.406l-4.66-10.966 3.843-1.71 4.467 10.316c1.003 2.335 1.542 4.147 1.762 5.25.202.946.185 2.04-.05 2.876-.254.952-.86 1.905-1.586 2.748-.698.834-1.853 1.542-3.404 2.233-1.728.802-3.28 1.274-4.425 1.24-1.036-.016-2.09-.16-2.874-.657-.826-.48-1.5-.986-2.082-1.72-.682-.977-1.55-2.57-2.46-4.754l-4.434-10.587zM262.27 417.658l-3.852 2.453-4.03-3.202-6.447 4.232.094-4.358 3.405-2.234-3.322-2.58.1-5.065 14.052 10.755zm-14.38 6.727l.53 2.31-.58.227.05-2.537zm.05-3.245l-.598.328.548 2.917-.05 2.537-3.296 2.1-4.097-22.75 3.878-2.345 3.894 2.976-.102 5.066-3.212-2.606 1.712 8.345 1.416-.928-.093 4.358z" fill="#231f20"/><path d="M74.602 322.622c6.575 0 6.575 3.945 13.15 3.945 6.583 0 6.583-3.945 13.166-3.945 6.574 0 6.574 3.945 13.158 3.945 6.574 0 6.574-3.945 13.15-3.945 6.6 0 6.6 3.945 13.165 3.945 6.576 0 6.576-3.945 13.134-3.945 6.566 0 6.566 3.945 13.14 3.945 6.584 0 6.584-3.945 13.175-3.945 6.574 0 6.574 3.945 13.148 3.945 6.592 0 6.592-3.945 13.175-3.945 6.6 0 6.6 3.945 13.192 3.945 6.566 0 6.566-3.945 13.166-3.945 6.6 0 6.6 3.945 13.184 3.945 6.608 0 6.608-3.945 13.225-3.945 6.607 0 6.607 3.945 13.233 3.945" fill="none" stroke="#789bcd" stroke-width="5.74018986"/><path d="M82.057 311.547c6.246 0 6.246 3.76 12.5 3.76 6.22 0 6.22-3.76 12.458-3.76 6.255 0 6.255 3.76 12.492 3.76 6.238 0 6.238-3.76 12.484-3.76 6.238 0 6.238 3.76 12.51 3.76 6.212 0 6.212-3.76 12.432-3.76 6.246 0 6.246 3.76 12.467 3.76 6.245 0 6.245-3.76 12.508-3.76 6.237 0 6.237 3.76 12.483 3.76 6.247 0 6.247-3.76 12.493-3.76 6.263 0 6.263 3.76 12.517 3.76 6.23 0 6.23-3.76 12.492-3.76 6.254 0 6.254 3.76 12.517 3.76 6.27 0 6.27-3.76 12.558-3.76 6.263 0 6.263 3.76 12.534 3.76M82.057 303.885c6.246 0 6.246 3.768 12.5 3.768 6.22 0 6.22-3.768 12.458-3.768 6.255 0 6.255 3.768 12.492 3.768 6.238 0 6.238-3.768 12.484-3.768 6.238 0 6.238 3.768 12.51 3.768 6.212 0 6.212-3.768 12.432-3.768 6.246 0 6.246 3.768 12.467 3.768 6.245 0 6.245-3.768 12.508-3.768 6.237 0 6.237 3.768 12.483 3.768 6.247 0 6.247-3.768 12.493-3.768 6.263 0 6.263 3.768 12.517 3.768 6.23 0 6.23-3.768 12.492-3.768 6.254 0 6.254 3.768 12.517 3.768 6.27 0 6.27-3.768 12.558-3.768 6.263 0 6.263 3.768 12.534 3.768" fill="none" stroke="#789bcd" stroke-width="5.58846678"/><path d="M86.212 297.95c5.817 0 5.817 3.49 11.624 3.49 5.8 0 5.8-3.49 11.6-3.49 5.806 0 5.806 3.49 11.614 3.49 5.807 0 5.807-3.49 11.623-3.49 5.808 0 5.808 3.49 11.624 3.49 5.782 0 5.782-3.49 11.582-3.49 5.798 0 5.798 3.49 11.58 3.49 5.825 0 5.825-3.49 11.632-3.49 5.808 0 5.808 3.49 11.616 3.49 5.8 0 5.8-3.49 11.615-3.49 5.824 0 5.824 3.49 11.64 3.49 5.816 0 5.816-3.49 11.624-3.49 5.84 0 5.84 3.49 11.64 3.49 5.842 0 5.842-3.49 11.675-3.49 5.833 0 5.833 3.49 11.657 3.49" fill="none" stroke="#789bcd" stroke-width="5.3945984"/><path d="M68.922 332.95c7.038 0 7.038 4.232 14.076 4.232 7.03 0 7.03-4.23 14.06-4.23 7.047 0 7.047 4.23 14.094 4.23 7.02 0 7.02-4.23 14.068-4.23 7.038 0 7.038 4.23 14.085 4.23 7.046 0 7.046-4.23 14.085-4.23 7.02 0 7.02 4.23 14.042 4.23 7.047 0 7.047-4.23 14.094-4.23 7.02 0 7.02 4.23 14.068 4.23 7.03 0 7.03-4.23 14.085-4.23 7.037 0 7.037 4.23 14.092 4.23 7.03 0 7.03-4.23 14.085-4.23 7.072 0 7.072 4.23 14.12 4.23 7.062 0 7.062-4.23 14.126-4.23 7.09 0 7.09 4.23 14.144 4.23M64.724 343.63c7.4 0 7.4 4.46 14.82 4.46 7.4 0 7.4-4.46 14.8-4.46 7.41 0 7.41 4.46 14.818 4.46 7.41 0 7.41-4.46 14.82-4.46 7.408 0 7.408 4.46 14.825 4.46 7.41 0 7.41-4.46 14.82-4.46 7.39 0 7.39 4.46 14.775 4.46 7.417 0 7.417-4.46 14.826-4.46 7.41 0 7.41 4.46 14.81 4.46 7.418 0 7.418-4.46 14.827-4.46 7.418 0 7.418 4.46 14.852 4.46 7.4 0 7.4-4.46 14.81-4.46 7.426 0 7.426 4.46 14.86 4.46 7.435 0 7.435-4.46 14.87-4.46 7.442 0 7.442 4.46 14.868 4.46" fill="none" stroke="#789bcd" stroke-width="5.74018986"/><path d="M88.31 319.628c-5.47.724-7.426-.717-6.154-4.586l6.263-3.86c12.542-4.594 22.16-14.355 30.875-25.937 3.928-5.436 10.663-5.436 13.925.48 5.8 20.155 15.897 28.845 26.222 31.138-6.507-4.114-11.944-8.927-16.242-14.7 4.4-3.406 8.47-7.99 11.952-14.262 4.29-4.94 9.854-3.506 10.798 1.324 5.335 13.638 12.18 22.084 20.432 25.818-5.698-4.46-9.99-9.65-13.023-15.433l6.405-10.15c2.436-4.956 5.09-4.215 7.873-.953 6.035 9.635 13.107 17.862 21.376 24.242-4.417-3.97-7.797-8.455-9.888-13.14 2.917-2.918 5.227-6.416 6.97-10.386 2.918-3.372 5.7-3.136 8.228.716 5.707 9.298 12.323 17.02 20.56 22.573-5.227-4.71-9.408-9.65-11.473-15.332 2.066-.943 3.693-2.654 4.84-4.947 2.334-3.136 5.35-2.537 8.84 1.94 8 11.816 16.7 18.812 26.215 21.012l1.745-.75 1.5 2.546c-1.036 1.813-2.79 2.884-5.217 3.263-3.71.48-6.617-3.153-10.562-1.93-3.47 1.812-6.708 2.646-9.498 1.315-3.262-.354-4.653-3.372-11.034-.11-6.507 3.978-9.5-4.476-16.48-.725-7.88 5.664-9.28-4.585-19.267.48-6.507 4.105-9.406-5.2-16.933-.362-5.69 4.94-10.57-3.244-16.125-1.213-9.888 6.878-12.55-3.852-19.522.843-5.226 5.673-10.545-5.428-16.706.127-6.373 5.082-10.9-5.42-17.626 0-7.34 4.956-8.732-6.154-19.268.96" fill="#30a644"/><path d="M299.172 359.817h-124.17v-8.454h108.745L175.003 152.16v-19.076l124.17 226.733zm-124.17 0H50.145l124.38-227.332.48.6v19.074L66.25 351.362h108.75v8.454z" fill="#fabb18"/><path d="M59.352 136.355c.354-.16.86-.53 1.29-.876 3.262-2.446 4.004-5.85 1.104-9.636-2.503-3.32-5.757-3.6-8.833-1.256-.793.6-1.256 1.07-1.51 1.366l7.95 10.4zm-13.495-10.233c1.147-1.213 2.774-2.638 4.577-4.012 3.01-2.284 5.36-3.228 7.772-3.237 2.58-.025 5.1 1.147 7.25 3.945 2.317 3.052 2.823 5.985 2.283 8.446-.6 2.664-2.622 5.25-5.732 7.612-1.838 1.407-3.246 2.292-4.232 2.857l-11.92-15.61zM66.575 110.806l11.01 16.774-3.77 2.453-11-16.766 3.76-2.46zM79.03 113.617l1.543-.877c1.948-1.095 2.546-2.73 1.686-4.256-.92-1.62-2.437-1.804-4.257-.818-.945.53-1.442.92-1.686 1.13l2.714 4.82zm-8.116-5.327c1.138-.91 2.925-2.124 4.998-3.313 2.57-1.44 4.586-2.073 6.373-1.787 1.49.253 2.74 1.155 3.65 2.757 1.264 2.225.564 4.644-.624 6.035l.05.076c1.485-.194 2.808.598 4.148 1.955 1.66 1.67 3.49 3.65 4.206 4.122l-4.012 2.267c-.565-.328-1.77-1.525-3.506-3.388-1.686-1.913-2.765-2.09-4.375-1.214l-1.188.658 3.886 6.886-3.877 2.175-9.726-17.23zM102.788 104.61l-6.617 3.053 1.99 4.332 7.393-3.413 1.56 3.388-11.48 5.293-8.388-18.248 11.11-5.117 1.55 3.38-7.02 3.237 1.744 3.793 6.616-3.06 1.542 3.363zM123.022 105.57c-.64.673-2.234 1.718-4.5 2.536-6.466 2.327-11.254-.53-13.192-5.91-2.327-6.438.918-11.656 6.574-13.687 2.192-.802 4.02-.946 4.923-.82l.354 3.7c-.994-.058-2.31.035-3.8.566-3.355 1.214-5.227 4.198-3.71 8.387 1.366 3.785 4.434 5.36 8.22 4.004 1.272-.455 2.578-1.248 3.286-1.88l1.846 3.102zM138.678 101.31c-.682.625-2.35 1.527-4.686 2.16-6.61 1.778-11.118-1.467-12.585-6.997-1.762-6.617 1.914-11.548 7.704-13.115 2.243-.6 4.064-.6 4.932-.405l.05 3.717c-.977-.135-2.292-.152-3.817.26-3.44.93-5.555 3.752-4.4 8.05 1.028 3.895 3.944 5.725 7.813 4.688 1.298-.354 2.672-1.03 3.43-1.602l1.56 3.245zM141.822 80.965l3.927 19.65-4.417.875-3.937-19.648 4.426-.877zM159.85 73.465l-3.112 4.08-3.557.438 2.007-3.936 4.662-.582zm-8.01 15.965c.473 3.894 2.614 6.43 5.598 6.052 3-.37 4.358-3.48 3.886-7.35-.438-3.574-2.504-6.44-5.563-6.052-3 .37-4.4 3.48-3.92 7.35m14.162-2.032c.8 6.533-2.62 10.975-8.362 11.683-5.833.734-9.786-3.312-10.485-8.976-.734-5.968 2.478-10.9 8.277-11.624 6.027-.74 9.904 3.423 10.57 8.918M169.743 97.496l-.346-19.993 5.226-.1 4.248 7.256c1.215 2.09 2.437 4.56 3.365 6.8h.076c-.337-2.637-.463-5.334-.514-8.335l-.118-5.85 4.13-.067.346 20.002-4.703.084-4.374-7.645c-1.214-2.117-2.554-4.68-3.565-7.006l-.084.034c.16 2.638.27 5.454.337 8.724l.093 6.02-4.113.074zM211.984 98.52c-1.433.32-4.113.683-6.718.388-3.6-.396-6.102-1.6-7.73-3.574-1.626-1.913-2.343-4.62-1.988-7.544.75-6.608 5.95-9.87 12.407-9.145 2.563.278 4.468.994 5.378 1.576L212 83.72c-1.027-.582-2.334-1.122-4.5-1.366-3.717-.405-6.76 1.407-7.24 5.723-.456 4.096 1.828 6.81 5.504 7.207 1.01.118 1.846.084 2.216-.05l.464-4.156-3.05-.346.395-3.515 7.34.818-1.146 10.486zM228.18 94.072l-7.165-1.442-.952 4.662 8 1.61-.75 3.64-12.417-2.503 4.012-19.65 12.02 2.43-.742 3.64-7.603-1.534-.835 4.088 7.174 1.442-.742 3.616zM229.813 103.13l5.766-19.217 4.997 1.51 1.82 8.217c.524 2.36.937 5.09 1.122 7.51l.083.026c.48-2.622 1.18-5.243 2.04-8.126l1.686-5.614 3.935 1.18-5.757 19.21-4.51-1.34-1.82-8.63c-.506-2.387-1.01-5.236-1.256-7.764h-.1c-.65 2.57-1.4 5.293-2.336 8.437l-1.745 5.78-3.927-1.18zM262.677 105.582l-6.777-2.723-1.78 4.407 7.57 3.052-1.39 3.446-11.76-4.737 7.51-18.595 11.38 4.577-1.39 3.455-7.2-2.908-1.566 3.868 6.785 2.73-1.383 3.424zM271.806 106.93l1.576.8c1.998 1.003 3.692.582 4.476-.978.835-1.652.135-3.034-1.686-3.987-.986-.48-1.576-.682-1.888-.775l-2.478 4.94zm-.11-9.694c1.4.43 3.406 1.24 5.538 2.31 2.622 1.323 4.266 2.646 5.016 4.282.632 1.382.58 2.924-.245 4.568-1.155 2.284-3.54 3.043-5.352 2.84l-.042.077c.995 1.13 1.07 2.663.692 4.534-.464 2.3-1.08 4.914-1.08 5.774l-4.112-2.055c-.043-.658.278-2.327.86-4.797.648-2.47.185-3.455-1.425-4.307l-1.206-.606-3.54 7.04-3.98-2 8.877-17.658zM290.912 120.75l1.214-4.258c.337-1.197.826-2.638 1.205-3.8l-.05-.027c-.876.852-1.93 1.973-2.823 2.774l-3.254 2.974 3.71 2.335zm-6.052.176l-3.936 3.6-3.928-2.48 15.788-13.705 4.973 3.137-5.462 20.22-4.072-2.578 1.442-5.16-4.805-3.034zM306.162 117.075l3.582 2.715-9.82 12.955 6.28 4.754-2.31 3.034-9.878-7.477 12.146-15.982zM69.734 159.898c-1.61-1.795-3.548-3.978-5.453-6.195l-.033.034c1.332 2.234 2.756 4.78 3.878 6.92l3.793 7.055-1.855 1.585-6.153-4.956c-1.87-1.49-4.08-3.363-6.027-5.15l-.025.026c1.694 2.124 3.65 4.518 5.192 6.49l4.754 5.968-2.19 1.88-12.333-15.856 3.145-2.705 5.37 4.214c1.837 1.492 3.784 3.12 5.546 4.712l.05-.05c-1.213-2.016-2.57-4.342-3.682-6.332l-3.203-6.043 3.093-2.664 13.58 14.794-2.32 1.99-5.124-5.716zM69.584 144.507l11.96 16.074-2.52 1.88-11.96-16.065 2.52-1.888zM92.423 152.024c-.54.936-1.703 2.487-3.228 3.507-2.108 1.4-4.13 1.653-6.18.877-2.022-.733-4.053-2.52-5.655-4.99-3.666-5.546-2.992-10.578.793-13.1 1.483-.985 2.908-1.33 3.742-1.314l1.458 3.39c-.902.024-1.905.227-3.16 1.07-2.175 1.45-2.64 4.332-.237 7.94 2.293 3.44 5.134 4.475 7.266 3.042.6-.396 1.012-.81 1.12-1.104l-2.325-3.48-1.77 1.18-1.964-2.933 4.3-2.874 5.84 8.79zM92.132 140.443l1.08-.59c1.356-.767 1.6-2.2.758-3.734-.91-1.602-2.1-1.982-3.372-1.316-.666.363-.995.666-1.155.826l2.69 4.813zm-6.903-6.01c.757-.7 1.98-1.584 3.43-2.385 1.786-.995 3.253-1.306 4.66-.8 1.18.42 2.25 1.424 3.162 3.034 1.24 2.233 1.01 4.366.278 5.487l.042.083c1.12.026 2.225.928 3.44 2.36 1.474 1.762 3.126 3.836 3.74 4.375l-2.797 1.56c-.472-.388-1.543-1.653-3.12-3.6-1.533-1.997-2.384-2.3-3.514-1.71l-.825.463 3.86 6.87-2.713 1.5-9.643-17.237zM107.59 135.4l-2.57-3.49c-.735-.976-1.578-2.215-2.26-3.21l-.043.017c.312 1.163.767 2.62 1.062 3.768l1.053 4.206 2.756-1.29zm-1.737 4.56l1.29 5.076-2.925 1.373-4.66-19.96 3.7-1.73 12.347 16.345-3.042 1.425-3.128-4.206-3.582 1.677zM125.99 136.558c-.387.598-1.432 1.458-3.008 2.065-4.468 1.685-8.31-1.46-10.35-6.786-2.437-6.38-.65-11.118 3.26-12.6 1.5-.574 2.833-.566 3.5-.364l.69 3.574c-.733-.135-1.694-.15-2.73.236-2.32.877-3.33 3.583-1.746 7.747 1.433 3.742 3.87 5.512 6.482 4.534.877-.345 1.753-.986 2.21-1.542l1.693 3.136zM124.673 116.624l6.11 19.04-2.992.945-6.118-19.034 3-.952zM133.238 124.547c.96 3.793 2.858 6.153 4.88 5.647 2.04-.522 2.504-3.64 1.56-7.417-.885-3.473-2.782-6.17-4.872-5.64-2.04.515-2.512 3.642-1.568 7.41m3.06-16.057l-1.526 4.164-2.42.606.777-3.953 3.168-.817zm6.532 13.343c1.602 6.347-.084 10.882-3.986 11.876-3.97 1.01-7.384-2.74-8.775-8.26-1.468-5.81-.01-10.816 3.944-11.81 4.096-1.045 7.468 2.84 8.816 8.193M146.87 131.455l-3.235-19.733 3.6-.607 4.02 6.76c1.137 1.947 2.36 4.274 3.33 6.398l.058-.008c-.632-2.57-1.13-5.226-1.61-8.185l-.944-5.765 2.823-.473 3.236 19.733-3.237.54-4.164-7.123c-1.156-1.973-2.454-4.375-3.5-6.575l-.058.034c.514 2.597 1.003 5.37 1.542 8.59l.96 5.95-2.823.465zM167.063 128.817l-.506-8.193-5.074-11.53 3.557-.228 1.71 4.72c.507 1.424.86 2.478 1.29 3.76h.043c.228-1.265.49-2.445.818-3.895l1.105-4.896 3.498-.228-3.835 11.96.506 8.337-3.11.194zM188.202 120.19l-5.075-.16-.168 4.753 5.663.177-.126 3.71-8.8-.288.69-19.994 8.523.27-.135 3.71-5.37-.17-.15 4.156 5.073.16-.126 3.675zM197.506 129.522l-.87-3.726c-.36-1.44-.572-2.503-.833-3.71h-.05c-.405 1.122-.852 2.126-1.434 3.474l-1.518 3.49-3.532-.37 5.024-9.66-2.79-10.234 3.566.363.817 3.758c.278 1.256.472 2.25.683 3.405l.042.01c.464-1.24.818-2.09 1.28-3.213l1.552-3.514 3.54.362-4.888 9.323 2.992 10.604-3.582-.362zM208.145 114.683l-3.658-.657.657-3.75 10.486 1.887-.666 3.743-3.726-.675-2.832 15.99-3.085-.547 2.825-15.99zM218.926 122.125l1.196.304c1.492.387 2.664-.482 3.102-2.184.447-1.78-.16-2.883-1.55-3.262-.725-.194-1.164-.21-1.4-.21l-1.348 5.35zm-.886-9.103c1.03.017 2.512.21 4.122.624 1.99.505 3.27 1.29 3.937 2.63.563 1.112.656 2.58.2 4.366-.614 2.47-2.258 3.86-3.565 4.164l-.016.092c.79.784.976 2.21.875 4.08-.143 2.293-.354 4.93-.286 5.74l-3.103-.784c-.076-.606 0-2.267.21-4.754.253-2.51-.16-3.32-1.373-3.658l-.92-.227-1.913 7.61-3-.758 4.83-19.125zM233.992 129.273l.532-4.3c.15-1.204.387-2.688.573-3.876l-.034-.017c-.573 1.062-1.248 2.428-1.838 3.448l-2.132 3.76 2.9.985zm-4.408 2.074l-2.562 4.55-3.077-1.044 10.385-17.59 3.885 1.322-2.3 20.323-3.195-1.08.623-5.2-3.76-1.28zM237.31 139.453l7.948-18.426 3.338 1.45-.278 7.898c-.085 2.267-.33 4.89-.658 7.207l.06.025c.86-2.512 1.87-5.024 3.067-7.78l2.318-5.386 2.63 1.14-7.948 18.433-2.993-1.315.354-8.277c.1-2.292.295-5.04.6-7.467l-.07.008c-.968 2.462-2.047 5.084-3.345 8.085l-2.394 5.554-2.63-1.147zM261.234 128.42l2.773 1.416-5.75 11.26c-2.578 5.084-5.158 5.986-7.855 4.612-.65-.33-1.407-.92-1.82-1.458l1.972-3.094c.278.37.708.768 1.264 1.046 1.163.598 2.285.194 3.7-2.57l5.716-11.212zM268.382 145.584l-4.4-2.57-2.402 4.104 4.914 2.875-1.87 3.203-7.638-4.45 10.132-17.297 7.384 4.306-1.88 3.21-4.67-2.72-2.107 3.59 4.408 2.562-1.87 3.186zM275.015 146.704l1.02.7c1.28.868 2.69.455 3.675-1.003 1.037-1.525.835-2.772-.33-3.598-.64-.43-1.035-.6-1.255-.675l-3.11 4.577zm2.284-8.884c.97.38 2.3 1.062 3.674 1.998 1.703 1.155 2.647 2.326 2.816 3.818.15 1.248-.27 2.664-1.298 4.19-1.442 2.115-3.456 2.865-4.805 2.714l-.042.067c.48 1.012.16 2.428-.582 4.147-.91 2.116-2.023 4.518-2.233 5.31l-2.656-1.803c.135-.58.776-2.132 1.83-4.408 1.095-2.267.986-3.177-.05-3.91l-.785-.532-4.418 6.524-2.57-1.736 11.117-16.378zM294.818 144.2l-4.223 1.4-1.997-1.502 3.59-1.87 2.63 1.97zm-4.39 2.612l-12.055 15.973-2.512-1.87 12.055-15.982 2.512 1.88zM291.003 162.07l2.065-3.81c.574-1.07 1.332-2.377 1.94-3.414l-.035-.025c-.91.768-2.03 1.805-2.958 2.546l-3.347 2.73 2.335 1.974zm-4.846.337l-4.055 3.313-2.478-2.09 16.066-12.644 3.144 2.646-9.567 18.13-2.57-2.165 2.477-4.628-3.017-2.563z" fill="#231f20"/></svg>