<svg xmlns="http://www.w3.org/2000/svg" xmlns:xlink="http://www.w3.org/1999/xlink" width="400" height="244.677"><defs><linearGradient x2="1" gradientUnits="userSpaceOnUse" gradientTransform="matrix(.2 -15.43 -15.43 -.2 477.55 314.46)" id="a"><stop offset="0" stop-color="#9b743b"/><stop offset="1" stop-color="#dfb239"/></linearGradient><linearGradient x2="1" gradientUnits="userSpaceOnUse" gradientTransform="matrix(124.55 0 0 -124.55 415.72 323.11)" id="b"><stop offset="0" stop-color="#ffe48e"/><stop offset=".528" stop-color="#ae803d"/><stop offset=".624" stop-color="#ad843d"/><stop offset="1" stop-color="#dca53a"/></linearGradient><radialGradient fx="0" fy="0" cx="0" cy="0" r="1" gradientUnits="userSpaceOnUse" gradientTransform="matrix(8.4 .38 0 -9.78 459.42 329.26)" spreadMethod="pad" id="c"><stop offset="0" stop-color="#ebcc7b"/><stop offset="1" stop-color="#aa803d"/></radialGradient><radialGradient fx="0" fy="0" cx="0" cy="0" r="1" gradientUnits="userSpaceOnUse" gradientTransform="matrix(-5.97 -1.16 -.76 6.92 462.75 326.26)" spreadMethod="pad" id="d"><stop offset="0" stop-color="#fdf9cc"/><stop offset=".343" stop-color="#ebcc7b"/><stop offset=".343" stop-color="#ebcc7b"/><stop offset=".725" stop-color="#6d5534"/><stop offset="1" stop-color="#aa803d"/></radialGradient><radialGradient fx="0" fy="0" cx="0" cy="0" r="1" gradientUnits="userSpaceOnUse" gradientTransform="matrix(8.24 .38 0 -9.77 429.87 323.66)" spreadMethod="pad" id="e"><stop offset="0" stop-color="#fdf9cc"/><stop offset=".343" stop-color="#ebcc7b"/><stop offset="1" stop-color="#aa803d"/></radialGradient><radialGradient fx="0" fy="0" cx="0" cy="0" r="1" gradientUnits="userSpaceOnUse" gradientTransform="matrix(-5.88 -1.16 -.75 6.94 433.17 320.67)" spreadMethod="pad" id="f"><stop offset="0" stop-color="#fdf9cc"/><stop offset=".343" stop-color="#ebcc7b"/><stop offset=".343" stop-color="#ebcc7b"/><stop offset=".725" stop-color="#6d5534"/><stop offset="1" stop-color="#aa803d"/></radialGradient><radialGradient fx="0" fy="0" cx="0" cy="0" r="1" gradientUnits="userSpaceOnUse" gradientTransform="matrix(-8.43 .4 0 -9.96 501 328.78)" spreadMethod="pad" id="g"><stop offset="0" stop-color="#ebcc7b"/><stop offset="1" stop-color="#aa803d"/></radialGradient><radialGradient fx="0" fy="0" cx="0" cy="0" r="1" gradientUnits="userSpaceOnUse" gradientTransform="matrix(5.63 -1.1 .72 6.63 497.8 325.99)" spreadMethod="pad" id="h"><stop offset="0" stop-color="#fdf9cc"/><stop offset=".343" stop-color="#ebcc7b"/><stop offset=".343" stop-color="#ebcc7b"/><stop offset=".725" stop-color="#6d5534"/><stop offset="1" stop-color="#aa803d"/></radialGradient><radialGradient fx="0" fy="0" cx="0" cy="0" r="1" gradientUnits="userSpaceOnUse" gradientTransform="matrix(-8.57 .4 0 -9.96 528.61 323.29)" spreadMethod="pad" id="i"><stop offset="0" stop-color="#ebcc7b"/><stop offset="1" stop-color="#aa803d"/></radialGradient><radialGradient fx="0" fy="0" cx="0" cy="0" r="1" gradientUnits="userSpaceOnUse" gradientTransform="matrix(5.85 -1.13 .75 6.76 525.44 320.33)" spreadMethod="pad" id="j"><stop offset="0" stop-color="#fdf9cc"/><stop offset=".343" stop-color="#ebcc7b"/><stop offset=".343" stop-color="#ebcc7b"/><stop offset=".725" stop-color="#6d5534"/><stop offset="1" stop-color="#aa803d"/></radialGradient><linearGradient x2="1" gradientUnits="userSpaceOnUse" gradientTransform="matrix(112.75 -1.36 -1.36 -112.75 422.3 365.34)" id="k"><stop offset="0" stop-color="#ffe48e"/><stop offset=".528" stop-color="#ae803d"/><stop offset=".624" stop-color="#ad843d"/><stop offset="1" stop-color="#dca53a"/></linearGradient><linearGradient x2="1" gradientUnits="userSpaceOnUse" gradientTransform="matrix(9.63 0 0 -9.63 474.31 327.31)" id="l"><stop offset="0" stop-color="#9b743b"/><stop offset="1" stop-color="#dfb239"/></linearGradient><linearGradient x2="1" gradientUnits="userSpaceOnUse" gradientTransform="matrix(-7.63 0 0 7.63 483.07 327.31)" id="m"><stop offset="0" stop-color="#9b743b"/><stop offset="1" stop-color="#dfb239"/></linearGradient><linearGradient x2="1" gradientUnits="userSpaceOnUse" gradientTransform="matrix(7.72 0 0 -7.72 441.39 324.28)" id="n"><stop offset="0" stop-color="#9b743b"/><stop offset="1" stop-color="#dfb239"/></linearGradient><linearGradient x2="1" gradientUnits="userSpaceOnUse" gradientTransform="matrix(-6.12 0 0 6.12 448.41 324.28)" id="o"><stop offset="0" stop-color="#9b743b"/><stop offset="1" stop-color="#dfb239"/></linearGradient><linearGradient x2="1" gradientUnits="userSpaceOnUse" gradientTransform="matrix(7.72 0 0 -7.72 509.06 324.28)" id="p"><stop offset="0" stop-color="#9b743b"/><stop offset="1" stop-color="#dfb239"/></linearGradient><linearGradient x2="1" gradientUnits="userSpaceOnUse" gradientTransform="matrix(-6.12 0 0 6.12 516.08 324.28)" id="q"><stop offset="0" stop-color="#9b743b"/><stop offset="1" stop-color="#dfb239"/></linearGradient><linearGradient x2="1" gradientUnits="userSpaceOnUse" gradientTransform="matrix(7.72 -.17 -.17 -7.72 536.02 318.93)" id="r"><stop offset="0" stop-color="#9b743b"/><stop offset="1" stop-color="#dfb239"/></linearGradient><linearGradient x2="1" gradientUnits="userSpaceOnUse" gradientTransform="matrix(-6.1 .14 .14 6.1 543.03 318.77)" id="s"><stop offset="0" stop-color="#9b743b"/><stop offset="1" stop-color="#dfb239"/></linearGradient><linearGradient x2="1" gradientUnits="userSpaceOnUse" gradientTransform="rotate(178.41 208.81 160.22) scale(7.72)" id="t"><stop offset="0" stop-color="#9b743b"/><stop offset="1" stop-color="#dfb239"/></linearGradient><linearGradient x2="1" gradientUnits="userSpaceOnUse" gradientTransform="matrix(6.1 -.1 .1 6.1 412.76 317.56)" id="u"><stop offset="0" stop-color="#9b743b"/><stop offset="1" stop-color="#dfb239"/></linearGradient><linearGradient xlink:href="#a" id="v" gradientUnits="userSpaceOnUse" gradientTransform="matrix(.12 -8.84 -8.84 -.12 296.32 205.11)" x2="1"/><linearGradient xlink:href="#b" id="w" gradientUnits="userSpaceOnUse" gradientTransform="matrix(71.37 0 0 -71.37 260.89 210.06)" x2="1"/><radialGradient xlink:href="#c" id="x" gradientUnits="userSpaceOnUse" gradientTransform="matrix(4.8 .22 0 -5.6 285.94 213.59)" spreadMethod="pad" cx="0" cy="0" fx="0" fy="0" r="1"/><radialGradient xlink:href="#d" id="y" gradientUnits="userSpaceOnUse" gradientTransform="matrix(-3.42 -.66 -.44 3.96 287.85 211.87)" spreadMethod="pad" cx="0" cy="0" fx="0" fy="0" r="1"/><radialGradient xlink:href="#e" id="z" gradientUnits="userSpaceOnUse" gradientTransform="matrix(4.72 .22 0 -5.6 269 210.38)" spreadMethod="pad" cx="0" cy="0" fx="0" fy="0" r="1"/><radialGradient xlink:href="#f" id="A" gradientUnits="userSpaceOnUse" gradientTransform="matrix(-3.37 -.67 -.43 3.98 270.89 208.67)" spreadMethod="pad" cx="0" cy="0" fx="0" fy="0" r="1"/><radialGradient xlink:href="#g" id="B" gradientUnits="userSpaceOnUse" gradientTransform="matrix(-4.83 .22 0 -5.7 309.76 213.31)" spreadMethod="pad" cx="0" cy="0" fx="0" fy="0" r="1"/><radialGradient xlink:href="#h" id="C" gradientUnits="userSpaceOnUse" gradientTransform="matrix(3.23 -.64 .4 3.8 307.93 211.71)" spreadMethod="pad" cx="0" cy="0" fx="0" fy="0" r="1"/><radialGradient xlink:href="#i" id="D" gradientUnits="userSpaceOnUse" gradientTransform="matrix(-4.9 .22 0 -5.7 325.59 210.17)" spreadMethod="pad" cx="0" cy="0" fx="0" fy="0" r="1"/><radialGradient xlink:href="#j" id="E" gradientUnits="userSpaceOnUse" gradientTransform="matrix(3.35 -.65 .43 3.88 323.77 208.47)" spreadMethod="pad" cx="0" cy="0" fx="0" fy="0" r="1"/><linearGradient xlink:href="#k" id="F" gradientUnits="userSpaceOnUse" gradientTransform="matrix(64.6 -.78 -.78 -64.6 264.67 234.26)" x2="1"/><linearGradient xlink:href="#l" id="G" gradientUnits="userSpaceOnUse" gradientTransform="matrix(5.52 0 0 -5.52 294.47 212.47)" x2="1"/><linearGradient xlink:href="#m" id="H" gradientUnits="userSpaceOnUse" gradientTransform="matrix(-4.37 0 0 4.37 299.49 212.47)" x2="1"/><linearGradient xlink:href="#n" id="I" gradientUnits="userSpaceOnUse" gradientTransform="matrix(4.42 0 0 -4.42 275.61 210.74)" x2="1"/><linearGradient xlink:href="#o" id="J" gradientUnits="userSpaceOnUse" gradientTransform="matrix(-3.5 0 0 3.5 279.63 210.74)" x2="1"/><linearGradient xlink:href="#p" id="K" gradientUnits="userSpaceOnUse" gradientTransform="matrix(4.42 0 0 -4.42 314.38 210.74)" x2="1"/><linearGradient xlink:href="#q" id="L" gradientUnits="userSpaceOnUse" gradientTransform="matrix(-3.5 0 0 3.5 318.41 210.74)" x2="1"/><linearGradient xlink:href="#r" id="M" gradientUnits="userSpaceOnUse" gradientTransform="matrix(4.42 -.1 -.1 -4.42 329.83 207.67)" x2="1"/><linearGradient xlink:href="#s" id="N" gradientUnits="userSpaceOnUse" gradientTransform="matrix(-3.5 .08 .08 3.5 333.85 207.58)" x2="1"/><linearGradient xlink:href="#t" id="O" gradientUnits="userSpaceOnUse" gradientTransform="scale(4.42) rotate(179.2 29.6 23.59)" x2="1"/><linearGradient xlink:href="#u" id="P" gradientUnits="userSpaceOnUse" gradientTransform="matrix(3.5 -.05 .05 3.5 259.2 206.88)" x2="1"/></defs><path d="M200.65 209.354c0-9.293-15.12-21.416-39.218-21.416-7.556 0-15.12 1.1-22.835 2.988 7.4 17.326 21.26 28.824 43.15 28.824 13.074 0 18.903-4.728 18.903-10.396M82.844 158.01c11.97 0 17.952-19.056 17.952-43.466 0-7.877-.625-16.378-1.89-24.884-15.434 21.89-23.935 44.1-23.935 57.014 0 7.086 2.518 11.336 7.874 11.336m-47.566.158c-.313.788-.47 1.734-.47 2.362 0 4.096 5.51 5.828 9.45 6.3 1.26.16 2.202.16 4.248.16.474 0 .792.63.792 1.26 0 .786-.475 1.73-1.575 1.73-1.576 0-9.92-.63-16.852-.63-5.04 0-15.276.16-16.693.314-1.262 0-.95-.787-1.103-1.414 0-.63.154-1.575 1.262-1.734 8.506-.158 12.754-3.148 16.853-9.92l51.654-117.65c-9.45-17.012-22.678-28.822-39.532-28.822-24.57 0-35.75 18.27-35.75 33.862 0 11.496 6.14 21.577 17.48 21.577 15.59 0 21.577-10.08 21.577-17.954 0-2.208-.473-4.254-1.42-5.828-.626-1.1-.942-2.207-.942-2.994 0-1.893 1.574-2.833 3.308-2.833 3.465 0 5.198 2.833 5.198 6.773 0 9.447-9.924 25.67-29.61 25.67C7.874 68.398 0 57.215 0 44.455 0 27.45 14.177 7.605 44.1 7.605c33.547 0 54.65 31.5 62.998 65.834 24.73-27.72 60.482-51.506 103-51.506 1.415 0 1.892.32 1.892.79 0 .943-2.208 2.52-4.408 2.52-43.784 7.717-75.443 75.284-75.443 128.67 0 11.342 1.417 21.895 4.41 31.186 6.454-.945 13.545-1.574 21.103-1.574 29.77 0 52.285 17.166 52.285 29.294 0 6.614-6.77 11.81-22.83 11.81-29.298 0-48.197-12.44-58.433-30.866-23.152 6.928-47.09 17.638-71.348 17.638-12.282 0-18.268-5.67-18.268-10.865 0-4.41 4.252-8.507 12.44-8.507 2.838 0 3.938 1.103 3.938 2.522 0 1.733-1.732 3.777-4.25 3.777-2.682 0-2.523-.945-5.04-.945-2.364 0-4.256 1.733-4.256 3.94 0 2.988 3.625 6.613 13.862 6.613 21.262 0 40.318-13.86 69.615-20.787-4.57-10.713-6.617-22.996-6.617-36.07 0-49.607 31.024-108.826 77.016-124.574 0 0 .94-.476.94-.79 0-.157-.156-.157-.625-.157-36.702 4.252-66.783 26.773-87.884 52.13 2.05 9.922 3.152 20.158 3.152 29.765 0 29.297-9.925 53.706-29.767 53.706-7.563 0-11.185-5.67-11.185-14.486 0-14.81 9.924-39.06 27.564-62.213-2.52-14.647-6.932-29.29-13.073-41.732L35.28 158.168z" fill="#373535"/><path d="M184.258 79.734c-3.78 0-6.772-2.52-6.772-5.51 0-3.147 3.148-5.512 6.924-5.512 3.782 0 6.77 2.365 6.77 5.513 0 2.99-3.147 5.51-6.922 5.51m-20.633 22.68c0-.788.47-1.416 1.417-1.416 1.1 0 6.455.314 9.287.314 2.996 0 4.73-.158 6.463-.158.94 0 1.573.158 1.573.945 0 2.363-4.88 11.184-18.74 43.31-3.15 7.248-4.258 11.026-4.258 13.076 0 2.202 1.267 2.202 2.523 2.202 3.468 0 10.555-5.04 15.906-12.282.315-.318.79-.633 1.108-.633.78 0 1.573.633 1.573 1.58 0 .153 0 .468-.158.627-2.367 4.723-17.485 22.05-28.35 22.05-4.728 0-6.302-2.52-6.302-6.3 0-13.86 22.838-49.296 22.838-59.376 0-2.047-1.256-2.047-3.148-2.047-1.104 0-1.733-.947-1.733-1.892" fill="#373535"/><path d="M234.332 110.92c0-1.257 1.266-3.78 1.266-4.724 0-2.362-2.68-3.622-5.99-3.622-5.353 0-12.126 3.148-12.126 9.92 0 9.61 14.02 20.633 14.02 32.13 0 17.956-18.428 28.034-34.182 28.034-15.743 0-22.83-8.662-22.83-17.796 0-9.922 8.343-20.158 23.306-20.158 7.872 0 11.497 4.568 11.497 8.822 0 3.46-2.36 6.612-6.615 6.612-1.576 0-2.05-.474-2.05-1.42 0-1.257.794-3.15.794-5.986 0-3.147-2.21-5.194-5.834-5.194-8.97 0-13.854 7.873-13.854 15.75 0 8.03 5.04 16.063 16.22 16.063 9.14 0 19.06-7.087 19.06-21.577 0-9.448-12.128-21.735-12.128-29.923 0-12.282 13.544-18.427 24.406-18.427 7.407 0 13.706 2.838 13.706 8.346 0 2.68-2.2 5.827-5.508 5.827-1.733 0-3.158-.946-3.158-2.677" fill="#373535"/><path d="M230.235 90.288c0-.474.474-.787 1.1-.787.317 0 .79.16 1.107.314 5.822 3.154 11.812 5.2 23.465 5.2 2.833 0 5.666 0 8.348-.314 2.832-6.46 4.407-10.866 4.407-12.288 0-.944-.315-1.414-.94-1.414-.635 0-.95-.474-.95-.946 0-.946 1.108-2.36 2.522-2.36 1.1 0 4.566.314 7.4.314 2.996 0 4.73-.16 6.462-.16.467 0 .626.314.626.79 0 1.888-2.207 6.457-5.98 14.172 18.583-3.307 36.378-9.45 54.487-9.45 11.812 0 15.278 3.936 15.278 6.93 0 1.892-1.417 3.467-2.833 3.467-3.782 0-6.14-4.41-17.486-4.41-15.904 0-34.172 4.094-50.866 6.614-5.515 11.653-27.09 57.643-27.09 61.738 0 2.204.944 2.99 2.358 2.99 3.94 0 11.814-6.297 17.01-12.282.318-.318.79-.633 1.107-.633.784 0 1.575.633 1.575 1.58 0 .152 0 .468-.158.627-2.366 4.723-19.06 22.05-29.93 22.05-4.726 0-6.3-2.52-6.3-6.3 0-5.042 2.992-12.127 5.99-18.744 8.505-19.056 17.012-37.324 22.2-49.612-2.2.16-4.564.16-6.614.16 0 0-19.21-.16-25.664-6.14-.474-.475-.635-.794-.635-1.106" fill="#373535"/><path d="M290.548 138.954c.474.158.94.158 1.733.158 18.9 0 34.963-22.05 34.963-30.868 0-2.207-.944-3.62-3.306-3.62-13.072 0-27.715 18.267-33.39 34.33m48.508-30.24c0 11.815-24.25 32.76-47.408 32.76-.466 0-1.1 0-1.89-.155-.943 3.462-1.576 6.927-1.576 9.76 0 6.62 3 11.183 10.24 11.183 11.186 0 22.208-9.922 30.24-21.575.314-.475.632-.63.948-.63.783 0 1.573.94 1.573 1.888 0 .315 0 .633-.313 1.106-8.822 13.07-25.2 28.19-43.944 28.19-10.238 0-14.33-5.04-14.33-12.6 0-20.158 30.242-57.643 53.867-57.643 8.813 0 12.595 3.147 12.595 7.715M353.068 106.196c0-1.415-1.26-1.574-2.992-1.574-1.1 0-1.734-.947-1.734-1.893 0-.787.477-1.416 1.418-1.416 1.11 0 6.456.314 9.296.314 2.993 0 4.722-.155 6.456-.155.784 0 1.258.314 1.258 1.1 0 1.89-2.516 7.09-8.507 20.633-.474.63-5.036 10.866-5.036 12.754 0 .157 0 .318.156.318.16 0 .318-.16.475-.318 7.24-10.39 23.626-34.487 39.21-34.487 4.89 0 6.932 2.834 6.932 5.354 0 2.204-1.574 4.25-3.774 4.25-21.582 0-37.012 19.53-49.14 40.636-3.466 6.14-9.295 18.896-9.295 18.896-.625.787-4.564 1.733-7.716 1.733-2.207 0-4.096-.472-4.096-1.575 0-.318.16-.63.16-.63.473-.943 4.88-11.97 9.92-23.152 12.76-28.03 17.01-37.642 17.01-40.79M217.28 219.38V197.9l14.667 15.343V199.27h3.035V220.6L220.315 205.3v14.08h-3.035zM244.168 219.38h-3.035v-20.11h3.035v20.11zM265.195 200.343v3.588c-1.753-1.466-3.568-2.2-5.443-2.2-2.067 0-3.808.743-5.224 2.227-1.424 1.476-2.136 3.284-2.136 5.418 0 2.11.712 3.89 2.136 5.34 1.425 1.45 3.17 2.176 5.237 2.176 1.067 0 1.975-.173 2.722-.52.416-.174.848-.408 1.296-.703.446-.295.917-.65 1.412-1.07v3.667c-1.736.987-3.56 1.48-5.47 1.48-2.874 0-5.327-1.003-7.358-3.01-2.024-2.023-3.035-4.463-3.035-7.32 0-2.56.846-4.844 2.54-6.85 2.083-2.457 4.78-3.686 8.088-3.686 1.806 0 3.55.49 5.235 1.465M281.416 211.642l-2.983-6.838-3.125 6.838h6.108zm1.238 2.852h-8.61l-2.24 4.885h-3.268l9.95-21.375 9.6 21.374h-3.322l-2.11-4.886zM294.967 208.502h.964c2.875 0 4.312-1.098 4.312-3.294 0-2.058-1.398-3.088-4.194-3.088h-1.08v6.382zm3.777 2.306l6.225 8.57h-3.712l-5.743-8.23h-.548v8.23h-3.035v-20.11h3.556c2.657 0 4.576.5 5.758 1.498 1.3 1.112 1.95 2.58 1.95 4.403 0 1.423-.406 2.647-1.222 3.673-.815 1.023-1.893 1.68-3.23 1.965M319.9 211.642l-2.982-6.838-3.126 6.838h6.11zm1.24 2.852h-8.61l-2.242 4.885h-3.267l9.95-21.375 9.6 21.374h-3.32l-2.11-4.886zM339.846 208.907h8.31v.664c0 1.512-.178 2.85-.534 4.013-.347 1.076-.934 2.084-1.76 3.02-1.865 2.102-4.24 3.153-7.123 3.153-2.814 0-5.224-1.015-7.23-3.048-2.005-2.04-3.008-4.49-3.008-7.345 0-2.92 1.02-5.394 3.06-7.424 2.04-2.04 4.525-3.062 7.45-3.062 1.572 0 3.04.32 4.404.96 1.3.64 2.582 1.678 3.842 3.116l-2.163 2.072c-1.65-2.196-3.66-3.297-6.03-3.297-2.128 0-3.912.734-5.354 2.2-1.44 1.442-2.16 3.25-2.16 5.42 0 2.24.803 4.085 2.408 5.535 1.503 1.346 3.13 2.02 4.886 2.02 1.494 0 2.834-.503 4.024-1.508 1.19-1.014 1.855-2.226 1.992-3.638h-5.014v-2.853zM356.34 199.27v12.102c0 1.728.283 2.99.848 3.788.84 1.153 2.026 1.73 3.555 1.73 1.537 0 2.726-.577 3.57-1.73.563-.773.846-2.035.846-3.788V199.27h3.033v12.945c0 2.12-.66 3.864-1.98 5.235-1.484 1.53-3.308 2.293-5.47 2.293s-3.982-.763-5.458-2.292c-1.32-1.37-1.98-3.116-1.98-5.235V199.27h3.035zM384.062 211.642l-2.983-6.838-3.127 6.838h6.11zm1.237 2.852h-8.61l-2.24 4.885h-3.27l9.95-21.375 9.6 21.374h-3.32l-2.11-4.886zM337.73 241.498h7.488v2.853h-13.505l6.98-8.45c.686-.843 1.26-1.574 1.727-2.19.463-.616.817-1.133 1.06-1.55.496-.816.743-1.548.743-2.2 0-.938-.33-1.724-.99-2.358-.66-.634-1.476-.952-2.448-.952-2.032 0-3.195 1.204-3.49 3.61h-3.022c.486-4.238 2.627-6.357 6.42-6.357 1.832 0 3.37.58 4.612 1.745 1.25 1.164 1.875 2.605 1.875 4.325 0 1.094-.29 2.167-.873 3.216-.295.546-.727 1.196-1.295 1.946-.57.752-1.288 1.64-2.156 2.664l-3.126 3.698zM352.974 234.18c0 2.23.386 4.085 1.157 5.56.772 1.45 1.756 2.176 2.953 2.176 1.188 0 2.172-.725 2.952-2.175.78-1.44 1.17-3.26 1.17-5.457 0-2.196-.39-4.02-1.17-5.47-.78-1.44-1.764-2.162-2.952-2.162-1.178 0-2.158.722-2.94 2.164-.78 1.432-1.17 3.22-1.17 5.365m-2.995-.014c0-3.204.747-5.76 2.24-7.67 1.337-1.73 2.958-2.594 4.86-2.594 1.9 0 3.52.865 4.857 2.593 1.493 1.91 2.24 4.51 2.24 7.802 0 3.28-.747 5.88-2.24 7.788-1.336 1.728-2.952 2.592-4.845 2.592-1.894 0-3.516-.864-4.87-2.592-1.495-1.91-2.242-4.55-2.242-7.92M371.812 227.094h-3.477l1.667-2.852h4.845v20.11h-3.035v-17.258zM385.714 227.094h-3.476l1.667-2.852h4.844v20.11h-3.036v-17.258z" fill="#373535"/><path d="M260.895 199.734c0-1.868 15.92-3.694 35.54-3.694 19.622 0 35.47 1.704 35.47 3.568 0 1.87-14.5 4.06-35.422 4.145l-.95.002c-19.18 0-34.638-2.186-34.638-4.02" fill="url(#v)" transform="matrix(1.25 0 0 -1.25 -66.39 317.61)"/><path d="M261.06 214.147l-.165-14.22s6.55 3.546 36.032 3.546c29.64 0 34.92-3.648 34.92-3.648l.422 15.182s-13.336 5.292-36.29 5.292c-22.96 0-34.92-6.153-34.92-6.153" fill="url(#w)" transform="matrix(1.25 0 0 -1.25 -66.39 317.61)"/><path d="M286.932 215.107c-1.19-.122-2.088-1.393-2.005-2.82.08-1.41 1.078-2.456 2.222-2.342 1.144.124 2.048 1.353 2.007 2.778-.037 1.35-.933 2.394-2.038 2.394-.063 0-.125-.003-.188-.01" fill="url(#x)" transform="matrix(1.25 0 0 -1.25 -66.39 317.61)"/><path d="M286.756 214.372c-.82-.212-1.38-1.193-1.24-2.217.14-1.016.952-1.69 1.807-1.473.855.217 1.293 1.296 1.123 2.31-.152.87-.69 1.422-1.363 1.422-.106 0-.215-.014-.327-.042" fill="url(#y)" transform="matrix(1.25 0 0 -1.25 -66.39 317.61)"/><path d="M269.976 211.9c-1.165-.12-2.05-1.393-1.967-2.815.078-1.415 1.057-2.46 2.182-2.343 1.124.12 2.007 1.35 1.97 2.774-.034 1.35-.918 2.394-2.003 2.394-.062 0-.122-.003-.184-.01" fill="url(#z)" transform="matrix(1.25 0 0 -1.25 -66.39 317.61)"/><path d="M269.803 211.164c-.805-.212-1.358-1.194-1.216-2.213.138-1.017.936-1.687 1.776-1.472.838.215 1.303 1.247 1.133 2.264-.15.876-.708 1.462-1.383 1.462-.1 0-.205-.013-.31-.04" fill="url(#A)" transform="matrix(1.25 0 0 -1.25 -66.39 317.61)"/><path d="M306.535 212.43c-.046-1.453.863-2.704 2.012-2.83 1.15-.12 2.154.947 2.232 2.39.087 1.45-.82 2.748-2.016 2.87-.062.007-.123.01-.184.01-1.11 0-2.012-1.064-2.045-2.44" fill="url(#B)" transform="matrix(1.25 0 0 -1.25 -66.39 317.61)"/><path d="M307.36 212.745c-.17-1.032.28-1.88.872-2.084l.318-.104c.86-.22 1.437.336 1.578 1.372.144 1.045-.36 1.968-1.183 2.182-.117.03-.23.045-.337.045-.646 0-1.097-.53-1.248-1.41" fill="url(#C)" transform="matrix(1.25 0 0 -1.25 -66.39 317.61)"/><path d="M322.302 209.287c-.04-1.453.88-2.71 2.05-2.83 1.166-.12 2.188.946 2.272 2.386.082 1.453-.835 2.75-2.05 2.873-.065.006-.128.01-.19.01-1.127 0-2.047-1.067-2.082-2.44" fill="url(#D)" transform="matrix(1.25 0 0 -1.25 -66.39 317.61)"/><path d="M323.18 209.475c-.178-1.035.074-1.928.946-2.146h.146c.875-.22 1.603.34 1.747 1.376.145 1.044-.427 2.046-1.265 2.26-.103.027-.202.04-.297.04-.674 0-1.124-.632-1.28-1.53" fill="url(#E)" transform="matrix(1.25 0 0 -1.25 -66.39 317.61)"/><path d="M293.75 240.748c-1.004.915-2.476 1.57-4.6 1.758 0 0 3.493-1.44 2.042-6.692-1.357-4.912 2.956-5.185 3.522-5.2-.036-.103-.075-.207-.115-.31-.347-.587-1.203-1.893-2.506-3.045-2.28-1.657-5.436-3.518-9.89-1.278-.406.398-.71.76-.88.98-.042.08-.078.16-.118.24.775.193 3.596 1.144 2.234 4.582-1.57 3.96 1.085 5.59 1.085 5.59-1.52-.407-2.58-1.044-3.303-1.805 1.615 5.974-3.83 9.9-3.83 9.9s-4.582-5.796-1.64-11.053c-.87.583-2.09.898-3.79.753 0 0 2.886-.657 2.153-5.023-.68-4.083 2.76-3.7 3.21-3.633l-.064-.264c-.137-.306-.406-.85-.792-1.465-2.435-2.59-5.005-4.284-10.254-3.48-.938.403-1.927 1.004-2.967 1.875-.39.388-.75.774-1.068 1.154.895.422 4.075 2.255 1.317 6.058-3.184 4.39-.413 6.998-.413 6.998-1.75-.86-2.862-1.887-3.51-2.98.115 7.59-7.838 10.985-7.838 10.985l8.94-24.055s.373-.765.706-2.048l-.006-.003.028-.086c.13-.502.25-1.076.336-1.712-.77-.472-1.015-1.826-.623-3.408 8.39 3.977 20.72 5.983 35.31 5.983 15.653 0 35.092-5.19 35.758-5.503.47.698.582 1.652.114 2.613.33 2.296 1.054 3.77 1.054 3.77l8.94 24.056s-7.954-3.394-7.838-10.985c-.65 1.095-1.758 2.12-3.51 2.98 0 0 2.77-2.61-.415-6.998-2.755-3.8.424-5.637 1.32-6.057-.322-.38-.68-.765-1.067-1.155-1.106-.926-2.158-1.553-3.146-1.95-.735-.102-4.608-.52-7.952 1.546v.006c-1.623 1.295-2.564 3.167-2.87 3.86-.025.09-.046.176-.068.264.45-.067 3.892-.45 3.21 3.633-.734 4.366 2.156 5.023 2.156 5.023-1.705.145-2.924-.17-3.79-.752 2.94 5.256-1.642 11.052-1.642 11.052s-5.443-3.926-3.83-9.9c-.723.76-1.78 1.397-3.302 1.805 0 0 2.653-1.63 1.086-5.59-1.364-3.44 1.455-4.39 2.232-4.584-.037-.078-.078-.16-.118-.237-.257-.332-.808-.98-1.588-1.603l-.028.003c-3.353-.608-4.907-.972-7.53.734-.008.05-.008.1-.013.148-2.073 1.263-3.407 3.29-3.863 4.058-.042.11-.08.216-.118.32.986.072 4.596.637 3.34 5.19-1.454 5.254 2.042 6.693 2.042 6.693-1.938-.172-3.326-.73-4.32-1.516 2.748 7.053-3.508 13.098-3.508 13.098s-6.4-6.18-3.415-13.34" fill="url(#F)" transform="matrix(1.25 0 0 -1.25 -66.39 317.61)"/><path d="M294.472 212.47l2.758-5.53 2.76 5.53-2.76 5.528-2.758-5.53z" fill="url(#G)" transform="matrix(1.25 0 0 -1.25 -66.39 317.61)"/><path d="M295.043 212.47l2.187-4.382 2.187 4.38-2.187 4.384-2.187-4.383z" fill="url(#H)" transform="matrix(1.25 0 0 -1.25 -66.39 317.61)"/><path d="M275.606 210.735l2.212-4.43 2.21 4.43-2.21 4.43-2.212-4.43z" fill="url(#I)" transform="matrix(1.25 0 0 -1.25 -66.39 317.61)"/><path d="M276.064 210.735l1.754-3.51 1.753 3.51-1.752 3.513-1.754-3.513z" fill="url(#J)" transform="matrix(1.25 0 0 -1.25 -66.39 317.61)"/><path d="M314.385 210.735l2.21-4.43 2.212 4.43-2.212 4.43-2.21-4.43z" fill="url(#K)" transform="matrix(1.25 0 0 -1.25 -66.39 317.61)"/><path d="M314.843 210.735l1.752-3.51 1.753 3.51-1.753 3.513-1.752-3.513z" fill="url(#L)" transform="matrix(1.25 0 0 -1.25 -66.39 317.61)"/><path d="M329.83 207.67l2.11-4.48.003.006.233 8.776-.036.078-2.31-4.38z" fill="url(#M)" transform="matrix(1.25 0 0 -1.25 -66.39 317.61)"/><path d="M330.29 207.658l1.67-3.55.008.013.184 6.944-.032.068-1.83-3.475z" fill="url(#N)" transform="matrix(1.25 0 0 -1.25 -66.39 317.61)"/><path d="M261.033 211.214l-.088-8.783v-.002l2.275 4.398-2.15 4.46-.037-.072z" fill="url(#O)" transform="matrix(1.25 0 0 -1.25 -66.39 317.61)"/><path d="M261.024 210.305l-.07-6.947.006-.012 1.8 3.486-1.7 3.54-.036-.067z" fill="url(#P)" transform="matrix(1.25 0 0 -1.25 -66.39 317.61)"/></svg>