<svg xmlns="http://www.w3.org/2000/svg" xmlns:xlink="http://www.w3.org/1999/xlink" width="400" height="188.377"><defs><linearGradient x2="1" gradientUnits="userSpaceOnUse" gradientTransform="matrix(.1 -7.4 -7.4 -.1 393.18 174.2)" id="a"><stop offset="0" stop-color="#91661e"/><stop offset="1" stop-color="#d9ac13"/></linearGradient><linearGradient x2="1" gradientUnits="userSpaceOnUse" gradientTransform="matrix(59.65 0 0 -59.65 363.57 178.34)" id="b"><stop offset="0" stop-color="#fbe370"/><stop offset=".528" stop-color="#a6751e"/><stop offset=".624" stop-color="#a4791e"/><stop offset="1" stop-color="#d89d15"/></linearGradient><radialGradient fx="0" fy="0" cx="0" cy="0" r="1" gradientUnits="userSpaceOnUse" gradientTransform="matrix(4.02 .18 0 -4.68 384.5 181.29)" spreadMethod="pad" id="c"><stop offset="0" stop-color="#e8c95c"/><stop offset="1" stop-color="#a2751e"/></radialGradient><radialGradient fx="0" fy="0" cx="0" cy="0" r="1" gradientUnits="userSpaceOnUse" gradientTransform="matrix(-2.86 -.56 -.37 3.3 386.09 179.85)" spreadMethod="pad" id="d"><stop offset="0" stop-color="#fcfbbe"/><stop offset=".343" stop-color="#e8c95c"/><stop offset=".343" stop-color="#e8c95c"/><stop offset=".725" stop-color="#604419"/><stop offset="1" stop-color="#a2751e"/></radialGradient><radialGradient fx="0" fy="0" cx="0" cy="0" r="1" gradientUnits="userSpaceOnUse" gradientTransform="matrix(3.95 .18 0 -4.68 370.35 178.61)" spreadMethod="pad" id="e"><stop offset="0" stop-color="#fcfbbe"/><stop offset=".343" stop-color="#e8c95c"/><stop offset="1" stop-color="#a2751e"/></radialGradient><radialGradient fx="0" fy="0" cx="0" cy="0" r="1" gradientUnits="userSpaceOnUse" gradientTransform="matrix(-2.82 -.56 -.36 3.33 371.93 177.17)" spreadMethod="pad" id="f"><stop offset="0" stop-color="#fcfbbe"/><stop offset=".343" stop-color="#e8c95c"/><stop offset=".343" stop-color="#e8c95c"/><stop offset=".725" stop-color="#604419"/><stop offset="1" stop-color="#a2751e"/></radialGradient><radialGradient fx="0" fy="0" cx="0" cy="0" r="1" gradientUnits="userSpaceOnUse" gradientTransform="matrix(-4.04 .2 0 -4.77 404.41 181.06)" spreadMethod="pad" id="g"><stop offset="0" stop-color="#e8c95c"/><stop offset="1" stop-color="#a2751e"/></radialGradient><radialGradient fx="0" fy="0" cx="0" cy="0" r="1" gradientUnits="userSpaceOnUse" gradientTransform="matrix(2.7 -.53 .34 3.17 402.88 179.72)" spreadMethod="pad" id="h"><stop offset="0" stop-color="#fcfbbe"/><stop offset=".343" stop-color="#e8c95c"/><stop offset=".343" stop-color="#e8c95c"/><stop offset=".725" stop-color="#604419"/><stop offset="1" stop-color="#a2751e"/></radialGradient><radialGradient fx="0" fy="0" cx="0" cy="0" r="1" gradientUnits="userSpaceOnUse" gradientTransform="matrix(-4.1 .2 0 -4.77 417.64 178.43)" spreadMethod="pad" id="i"><stop offset="0" stop-color="#e8c95c"/><stop offset="1" stop-color="#a2751e"/></radialGradient><radialGradient fx="0" fy="0" cx="0" cy="0" r="1" gradientUnits="userSpaceOnUse" gradientTransform="matrix(2.8 -.54 .36 3.24 416.12 177.01)" spreadMethod="pad" id="j"><stop offset="0" stop-color="#fcfbbe"/><stop offset=".343" stop-color="#e8c95c"/><stop offset=".343" stop-color="#e8c95c"/><stop offset=".725" stop-color="#604419"/><stop offset="1" stop-color="#a2751e"/></radialGradient><linearGradient x2="1" gradientUnits="userSpaceOnUse" gradientTransform="matrix(54 -.65 -.65 -54 366.72 198.57)" id="k"><stop offset="0" stop-color="#fbe370"/><stop offset=".528" stop-color="#a6751e"/><stop offset=".624" stop-color="#a4791e"/><stop offset="1" stop-color="#d89d15"/></linearGradient><linearGradient x2="1" gradientUnits="userSpaceOnUse" gradientTransform="matrix(4.6 0 0 -4.6 391.63 180.35)" id="l"><stop offset="0" stop-color="#91661e"/><stop offset="1" stop-color="#d9ac13"/></linearGradient><linearGradient x2="1" gradientUnits="userSpaceOnUse" gradientTransform="matrix(-3.66 0 0 3.66 395.83 180.35)" id="m"><stop offset="0" stop-color="#91661e"/><stop offset="1" stop-color="#d9ac13"/></linearGradient><linearGradient x2="1" gradientUnits="userSpaceOnUse" gradientTransform="matrix(3.7 0 0 -3.7 375.86 178.9)" id="n"><stop offset="0" stop-color="#91661e"/><stop offset="1" stop-color="#d9ac13"/></linearGradient><linearGradient x2="1" gradientUnits="userSpaceOnUse" gradientTransform="matrix(-2.93 0 0 2.93 379.23 178.91)" id="o"><stop offset="0" stop-color="#91661e"/><stop offset="1" stop-color="#d9ac13"/></linearGradient><linearGradient x2="1" gradientUnits="userSpaceOnUse" gradientTransform="matrix(3.7 0 0 -3.7 408.27 178.9)" id="p"><stop offset="0" stop-color="#91661e"/><stop offset="1" stop-color="#d9ac13"/></linearGradient><linearGradient x2="1" gradientUnits="userSpaceOnUse" gradientTransform="matrix(-2.93 0 0 2.93 411.63 178.91)" id="q"><stop offset="0" stop-color="#91661e"/><stop offset="1" stop-color="#d9ac13"/></linearGradient><linearGradient x2="1" gradientUnits="userSpaceOnUse" gradientTransform="matrix(3.7 -.08 -.08 -3.7 421.19 176.34)" id="r"><stop offset="0" stop-color="#91661e"/><stop offset="1" stop-color="#d9ac13"/></linearGradient><linearGradient x2="1" gradientUnits="userSpaceOnUse" gradientTransform="matrix(-2.93 .07 .07 2.93 424.55 176.26)" id="s"><stop offset="0" stop-color="#91661e"/><stop offset="1" stop-color="#d9ac13"/></linearGradient><linearGradient x2="1" gradientUnits="userSpaceOnUse" gradientTransform="matrix(-3.7 .05 -.05 -3.7 365.51 175.64)" id="t"><stop offset="0" stop-color="#91661e"/><stop offset="1" stop-color="#d9ac13"/></linearGradient><linearGradient x2="1" gradientUnits="userSpaceOnUse" gradientTransform="matrix(2.93 -.04 .04 2.93 362.15 175.69)" id="u"><stop offset="0" stop-color="#91661e"/><stop offset="1" stop-color="#d9ac13"/></linearGradient><linearGradient x2="1" gradientUnits="userSpaceOnUse" gradientTransform="matrix(88.62 0 0 -88.62 73.79 140.47)" id="v"><stop offset="0" stop-color="#164789"/><stop offset=".552" stop-color="#1e5cb3"/><stop offset="1" stop-color="#113e74"/></linearGradient><linearGradient x2="1" gradientUnits="userSpaceOnUse" gradientTransform="matrix(53.18 0 0 -53.18 109.24 114.41)" id="w"><stop offset="0" stop-color="#1e5cb3"/><stop offset="1" stop-color="#165096"/></linearGradient><linearGradient x2="1" gradientUnits="userSpaceOnUse" gradientTransform="matrix(105.73 0 0 -105.73 73.79 181.81)" id="x"><stop offset="0" stop-color="#1e5cb3"/><stop offset="1" stop-color="#165096"/></linearGradient><linearGradient xlink:href="#a" id="y" gradientUnits="userSpaceOnUse" gradientTransform="matrix(.07 -5.37 -5.37 -.07 291 140.88)" x2="1"/><linearGradient xlink:href="#b" id="z" gradientUnits="userSpaceOnUse" gradientTransform="matrix(43.32 0 0 -43.32 269.5 143.88)" x2="1"/><radialGradient xlink:href="#c" id="A" gradientUnits="userSpaceOnUse" gradientTransform="matrix(2.92 .13 0 -3.4 284.7 146.03)" spreadMethod="pad" cx="0" cy="0" fx="0" fy="0" r="1"/><radialGradient xlink:href="#d" id="B" gradientUnits="userSpaceOnUse" gradientTransform="matrix(-2.08 -.4 -.27 2.4 285.86 144.98)" spreadMethod="pad" cx="0" cy="0" fx="0" fy="0" r="1"/><radialGradient xlink:href="#e" id="C" gradientUnits="userSpaceOnUse" gradientTransform="matrix(2.87 .13 0 -3.4 274.42 144.08)" spreadMethod="pad" cx="0" cy="0" fx="0" fy="0" r="1"/><radialGradient xlink:href="#f" id="D" gradientUnits="userSpaceOnUse" gradientTransform="matrix(-2.05 -.4 -.26 2.4 275.57 143.04)" spreadMethod="pad" cx="0" cy="0" fx="0" fy="0" r="1"/><radialGradient xlink:href="#g" id="E" gradientUnits="userSpaceOnUse" gradientTransform="matrix(-2.93 .13 0 -3.47 299.16 145.86)" spreadMethod="pad" cx="0" cy="0" fx="0" fy="0" r="1"/><radialGradient xlink:href="#h" id="F" gradientUnits="userSpaceOnUse" gradientTransform="matrix(1.96 -.4 .25 2.3 298.05 144.89)" spreadMethod="pad" cx="0" cy="0" fx="0" fy="0" r="1"/><radialGradient xlink:href="#i" id="G" gradientUnits="userSpaceOnUse" gradientTransform="matrix(-2.98 .13 0 -3.46 308.76 143.95)" spreadMethod="pad" cx="0" cy="0" fx="0" fy="0" r="1"/><radialGradient xlink:href="#j" id="H" gradientUnits="userSpaceOnUse" gradientTransform="matrix(2.03 -.4 .26 2.35 307.66 142.92)" spreadMethod="pad" cx="0" cy="0" fx="0" fy="0" r="1"/><linearGradient xlink:href="#k" id="I" gradientUnits="userSpaceOnUse" gradientTransform="matrix(39.2 -.47 -.47 -39.2 271.79 158.57)" x2="1"/><linearGradient xlink:href="#l" id="J" gradientUnits="userSpaceOnUse" gradientTransform="matrix(3.35 0 0 -3.35 289.88 145.35)" x2="1"/><linearGradient xlink:href="#m" id="K" gradientUnits="userSpaceOnUse" gradientTransform="matrix(-2.65 0 0 2.65 292.92 145.35)" x2="1"/><linearGradient xlink:href="#n" id="L" gradientUnits="userSpaceOnUse" gradientTransform="matrix(2.68 0 0 -2.68 278.43 144.29)" x2="1"/><linearGradient xlink:href="#o" id="M" gradientUnits="userSpaceOnUse" gradientTransform="matrix(-2.13 0 0 2.13 280.87 144.29)" x2="1"/><linearGradient xlink:href="#p" id="N" gradientUnits="userSpaceOnUse" gradientTransform="matrix(2.68 0 0 -2.68 301.96 144.29)" x2="1"/><linearGradient xlink:href="#q" id="O" gradientUnits="userSpaceOnUse" gradientTransform="matrix(-2.13 0 0 2.13 304.4 144.29)" x2="1"/><linearGradient xlink:href="#r" id="P" gradientUnits="userSpaceOnUse" gradientTransform="matrix(2.68 -.06 -.06 -2.68 311.34 142.43)" x2="1"/><linearGradient xlink:href="#s" id="Q" gradientUnits="userSpaceOnUse" gradientTransform="matrix(-2.13 .05 .05 2.13 313.78 142.38)" x2="1"/><linearGradient xlink:href="#t" id="R" gradientUnits="userSpaceOnUse" gradientTransform="scale(2.68) rotate(179.2 50.28 26.79)" x2="1"/><linearGradient xlink:href="#u" id="S" gradientUnits="userSpaceOnUse" gradientTransform="matrix(2.13 -.03 .03 2.13 268.47 141.96)" x2="1"/><linearGradient xlink:href="#v" id="T" gradientUnits="userSpaceOnUse" gradientTransform="matrix(64.35 0 0 -64.35 59.09 116.38)" x2="1"/><linearGradient xlink:href="#w" id="U" gradientUnits="userSpaceOnUse" gradientTransform="matrix(38.6 0 0 -38.6 84.82 97.46)" x2="1"/><linearGradient xlink:href="#x" id="V" gradientUnits="userSpaceOnUse" gradientTransform="matrix(76.77 0 0 -76.77 59.09 146.4)" x2="1"/></defs><path d="M269.5 137.616c0-1.132 9.662-2.24 21.57-2.24 11.91 0 21.525 1.033 21.525 2.164 0 1.135-8.8 2.465-21.497 2.515h-.588c-11.635 0-21.01-1.325-21.01-2.44" fill="url(#y)" transform="matrix(1.25 0 0 -1.25 -25.11 254.04)"/><path d="M269.6 146.364l-.1-8.63s3.976 2.152 21.87 2.152c17.986 0 21.192-2.214 21.192-2.214l.256 9.214s-8.094 3.213-22.025 3.213c-13.935 0-21.194-3.736-21.194-3.736" fill="url(#z)" transform="matrix(1.25 0 0 -1.25 -25.11 254.04)"/><path d="M285.302 146.946c-.722-.072-1.266-.846-1.217-1.71.048-.856.654-1.49 1.35-1.422.693.076 1.242.82 1.217 1.686-.022.818-.565 1.452-1.236 1.452-.038 0-.076-.002-.114-.006" fill="url(#A)" transform="matrix(1.25 0 0 -1.25 -25.11 254.04)"/><path d="M285.193 146.5c-.496-.127-.835-.723-.75-1.345.084-.616.578-1.026 1.096-.893.52.13.785.785.68 1.4-.09.53-.417.864-.826.864-.065 0-.132-.01-.2-.026" fill="url(#B)" transform="matrix(1.25 0 0 -1.25 -25.11 254.04)"/><path d="M275.013 145c-.708-.072-1.246-.844-1.195-1.708.048-.86.642-1.493 1.324-1.422.683.072 1.218.818 1.195 1.684-.02.82-.556 1.453-1.214 1.453-.037 0-.073-.002-.11-.006" fill="url(#C)" transform="matrix(1.25 0 0 -1.25 -25.11 254.04)"/><path d="M274.906 144.554c-.488-.13-.823-.724-.738-1.344.085-.618.568-1.024 1.078-.893.51.13.79.756.688 1.374-.09.533-.43.888-.84.888-.06 0-.125-.008-.188-.024" fill="url(#D)" transform="matrix(1.25 0 0 -1.25 -25.11 254.04)"/><path d="M297.2 145.322c-.028-.882.524-1.64 1.22-1.717.697-.073 1.307.575 1.356 1.45.053.88-.5 1.668-1.225 1.743-.036.004-.074.006-.11.006-.672 0-1.22-.647-1.24-1.482" fill="url(#E)" transform="matrix(1.25 0 0 -1.25 -25.11 254.04)"/><path d="M297.7 145.514c-.104-.627.17-1.142.53-1.265l.19-.065c.523-.134.875.204.96.833.086.634-.22 1.194-.718 1.324-.07.018-.14.027-.205.027-.39 0-.667-.323-.757-.856" fill="url(#F)" transform="matrix(1.25 0 0 -1.25 -25.11 254.04)"/><path d="M306.768 143.414c-.023-.88.535-1.644 1.244-1.718.707-.072 1.33.576 1.38 1.45.05.88-.507 1.668-1.246 1.743-.04.003-.077.005-.116.005-.683 0-1.24-.648-1.262-1.48" fill="url(#G)" transform="matrix(1.25 0 0 -1.25 -25.11 254.04)"/><path d="M307.3 143.53c-.108-.63.048-1.17.576-1.304h.088c.532-.133.972.207 1.06.836.088.633-.258 1.242-.767 1.37-.063.017-.124.025-.18.025-.41 0-.682-.382-.776-.928" fill="url(#H)" transform="matrix(1.25 0 0 -1.25 -25.11 254.04)"/><path d="M289.44 162.51c-.61.554-1.503.952-2.794 1.066 0 0 2.122-.874 1.24-4.06-.822-2.982 1.795-3.15 2.14-3.157l-.07-.19c-.21-.356-.73-1.15-1.522-1.848-1.384-1.005-3.3-2.135-6-.774-.248.24-.43.46-.535.594-.026.048-.048.098-.074.145.47.118 2.185.694 1.356 2.782-.953 2.4.66 3.392.66 3.392-.924-.248-1.567-.635-2.006-1.097.98 3.627-2.325 6.01-2.325 6.01s-2.777-3.517-.993-6.708c-.53.353-1.268.544-2.302.456 0 0 1.753-.398 1.31-3.048-.414-2.478 1.674-2.246 1.948-2.206-.015-.053-.028-.106-.04-.16-.083-.186-.248-.515-.482-.888-1.476-1.573-3.036-2.6-6.22-2.113-.57.242-1.172.608-1.804 1.136-.236.236-.453.47-.646.7.543.257 2.473 1.37.8 3.677-1.932 2.664-.252 4.248-.252 4.248-1.062-.52-1.736-1.144-2.13-1.81.07 4.608-4.758 6.67-4.758 6.67l5.427-14.6s.225-.464.428-1.242l-.004-.003.018-.052c.08-.305.15-.653.204-1.04-.465-.286-.616-1.108-.378-2.067 5.094 2.413 12.577 3.632 21.43 3.632 9.5 0 21.297-3.153 21.702-3.34.285.423.354 1 .07 1.585.2 1.393.64 2.288.64 2.288l5.425 14.6s-4.828-2.058-4.756-6.666c-.393.664-1.066 1.288-2.13 1.81 0 0 1.68-1.585-.25-4.248-1.674-2.308.255-3.42.8-3.677-.196-.232-.413-.465-.65-.702-.67-.562-1.307-.942-1.908-1.183-.446-.062-2.797-.316-4.825.938v.003c-.985.786-1.556 1.923-1.742 2.344-.015.054-.028.107-.04.16.272-.04 2.36-.273 1.947 2.205-.445 2.65 1.308 3.048 1.308 3.048-1.034.088-1.773-.103-2.3-.456 1.786 3.19-.996 6.707-.996 6.707s-3.304-2.382-2.325-6.01c-.44.463-1.08.85-2.004 1.098 0 0 1.61-.99.66-3.393-.828-2.09.882-2.665 1.354-2.783l-.072-.145c-.154-.2-.49-.594-.965-.972h-.016c-2.035-.367-2.98-.59-4.57.447-.006.03-.006.06-.01.09-1.257.766-2.066 1.995-2.344 2.462-.025.065-.048.13-.07.194.598.043 2.788.385 2.027 3.15-.88 3.188 1.24 4.06 1.24 4.06-1.177-.103-2.02-.442-2.622-.92 1.668 4.282-2.13 7.95-2.13 7.95s-3.885-3.75-2.07-8.096" fill="url(#I)" transform="matrix(1.25 0 0 -1.25 -25.11 254.04)"/><path d="M289.878 145.346l1.675-3.355 1.675 3.356-1.675 3.355-1.675-3.354z" fill="url(#J)" transform="matrix(1.25 0 0 -1.25 -25.11 254.04)"/><path d="M290.224 145.346l1.33-2.658 1.325 2.658-1.327 2.66-1.33-2.66z" fill="url(#K)" transform="matrix(1.25 0 0 -1.25 -25.11 254.04)"/><path d="M278.43 144.293l1.34-2.687 1.343 2.687-1.343 2.69-1.34-2.69z" fill="url(#L)" transform="matrix(1.25 0 0 -1.25 -25.11 254.04)"/><path d="M278.707 144.293l1.063-2.13 1.064 2.13-1.064 2.133-1.063-2.133z" fill="url(#M)" transform="matrix(1.25 0 0 -1.25 -25.11 254.04)"/><path d="M301.963 144.293l1.34-2.687 1.345 2.687-1.345 2.69-1.34-2.69z" fill="url(#N)" transform="matrix(1.25 0 0 -1.25 -25.11 254.04)"/><path d="M302.242 144.293l1.06-2.13 1.066 2.13-1.065 2.133-1.06-2.133z" fill="url(#O)" transform="matrix(1.25 0 0 -1.25 -25.11 254.04)"/><path d="M311.337 142.433l1.28-2.718.002.003.14 5.327-.02.047-1.403-2.66z" fill="url(#P)" transform="matrix(1.25 0 0 -1.25 -25.11 254.04)"/><path d="M311.615 142.425l1.015-2.153.005.01.11 4.21-.018.042-1.112-2.11z" fill="url(#Q)" transform="matrix(1.25 0 0 -1.25 -25.11 254.04)"/><path d="M269.584 144.584l-.053-5.33h.002l1.378 2.668-1.303 2.707-.023-.046z" fill="url(#R)" transform="matrix(1.25 0 0 -1.25 -25.11 254.04)"/><path d="M269.58 144.032l-.043-4.215.004-.007 1.093 2.115-1.034 2.148-.02-.04z" fill="url(#S)" transform="matrix(1.25 0 0 -1.25 -25.11 254.04)"/><path d="M288.412 176.78V163.66l8.962 9.376V164.5h1.85v13.023l-8.962-9.34v8.596h-1.85zM304.832 176.78h-1.85V164.5h1.85v12.28zM317.675 165.15v2.196c-1.07-.895-2.18-1.34-3.322-1.34-1.264 0-2.328.452-3.19 1.357-.875.904-1.304 2-1.304 3.306 0 1.287.428 2.376 1.304 3.273.867.876 1.935 1.312 3.198 1.312.647 0 1.2-.1 1.662-.318.256-.1.513-.242.79-.42.273-.182.562-.4.86-.65v2.227c-1.06.61-2.172.912-3.34.912-1.756 0-3.26-.62-4.49-1.834-1.24-1.247-1.852-2.738-1.852-4.47 0-1.566.51-2.963 1.55-4.185 1.265-1.507 2.92-2.252 4.937-2.252 1.102 0 2.166.293 3.195.886M327.58 172.058l-1.818-4.185-1.912 4.185h3.73zm.755 1.75h-5.255l-1.37 2.97h-1.996l6.076-13.05 5.866 13.05h-2.032l-1.29-2.97zM335.856 170.14h.587c1.757 0 2.633-.67 2.633-2.007 0-1.265-.85-1.893-2.558-1.893h-.662v3.9zm2.305 1.407l3.808 5.232H339.7l-3.507-5.024h-.337v5.023h-1.854V164.5h2.173c1.623 0 2.797.31 3.52.912.79.686 1.187 1.573 1.187 2.695 0 .862-.245 1.607-.748 2.243-.497.62-1.15 1.02-1.973 1.197M351.087 172.058l-1.82-4.185-1.91 4.185h3.73zm.753 1.75h-5.258l-1.366 2.97h-1.998l6.078-13.05 5.862 13.05h-2.028l-1.29-2.97zM363.266 170.376h5.073v.41c0 .92-.107 1.74-.323 2.46-.214.655-.573 1.272-1.076 1.842-1.137 1.29-2.59 1.925-4.352 1.925-1.715 0-3.188-.627-4.416-1.858-1.222-1.254-1.833-2.747-1.833-4.495 0-1.774.623-3.29 1.867-4.537 1.247-1.238 2.766-1.857 4.548-1.857.963 0 1.86.19 2.686.584.802.386 1.58 1.02 2.355 1.91l-1.33 1.263c-.998-1.347-2.226-2.016-3.675-2.016-1.3 0-2.39.443-3.27 1.338-.878.88-1.318 1.985-1.318 3.315 0 1.356.488 2.485 1.464 3.38.922.82 1.918 1.232 2.988 1.232.91 0 1.73-.31 2.458-.92.724-.62 1.134-1.365 1.218-2.227h-3.064v-1.75zM373.344 164.5v7.39c0 1.055.168 1.825.515 2.32.508.702 1.234 1.045 2.168 1.045.94 0 1.668-.343 2.178-1.045.345-.478.52-1.257.52-2.32v-7.39h1.853v7.91c0 1.29-.4 2.352-1.208 3.196-.91.93-2.02 1.4-3.344 1.4-1.32 0-2.43-.47-3.33-1.4-.808-.844-1.214-1.907-1.214-3.197v-7.91h1.86zM390.27 172.058l-1.82-4.185-1.915 4.185h3.735zm.752 1.75h-5.256l-1.368 2.97H382.4l6.078-13.05 5.863 13.05h-2.028l-1.29-2.97z" fill="#231f20"/><path d="M59.085 129.2v-.755c.213-3.075 3.008-5.887 9.31-8.063.04-.013.085-.027.13-.053 16.772-5.706 31.976-12.866 42.107-19 1.49-.89 2.878-1.774 4.136-2.618 5.894-.79 8.565-.126 8.667 1.514v.214c-.144 2.344-4.95 6.47-12.803 11.204-10.13 6.126-25.335 13.29-42.107 18.997-.045.02-.09.04-.13.056-3.152 1.076-5.42 2.322-6.938 3.688-1.42-1.754-2.262-3.495-2.372-5.183" fill="url(#T)" transform="matrix(1.25 0 0 -1.25 -25.11 254.04)"/><path d="M278.254 170.66c0-5.675-9.233-13.082-23.948-13.082-4.615 0-9.236.678-13.944 1.832 4.513 10.572 12.983 17.595 26.35 17.595 7.985 0 11.542-2.887 11.542-6.345m-71.944-31.356c7.308 0 10.96-11.643 10.96-26.552 0-4.804-.38-10-1.15-15.192-9.43 13.368-14.62 26.938-14.62 34.822 0 4.327 1.54 6.922 4.81 6.922m-29.053.1c-.19.47-.28 1.056-.28 1.44 0 2.502 3.36 3.558 5.766 3.85.77.093 1.348.093 2.596.093.287 0 .484.385.484.77 0 .477-.29 1.062-.962 1.062-.962 0-6.06-.394-10.29-.394-3.083 0-9.335.1-10.202.202-.765 0-.576-.486-.67-.872 0-.384.094-.962.77-1.054 5.196-.1 7.79-1.925 10.294-6.07L206.31 66.59c-5.775-10.404-13.847-17.604-24.14-17.604-15.01 0-21.837 11.16-21.837 20.676 0 7.023 3.754 13.175 10.676 13.175 9.52 0 13.176-6.152 13.176-10.965 0-1.34-.286-2.595-.864-3.55-.385-.686-.58-1.347-.58-1.833 0-1.155.965-1.733 2.023-1.733 2.12 0 3.174 1.732 3.174 4.134 0 5.77-6.058 15.69-18.082 15.69-9.333 0-14.147-6.842-14.147-14.626 0-10.388 8.66-22.507 26.938-22.507 20.486 0 33.373 19.243 38.475 40.195 15.104-16.925 36.938-31.456 62.903-31.456.867 0 1.15.21 1.15.493 0 .57-1.343 1.54-2.686 1.54-26.74 4.712-46.07 45.98-46.07 78.582 0 6.93.86 13.367 2.687 19.043 3.942-.578 8.275-.964 12.888-.964 18.18 0 31.93 10.49 31.93 17.906 0 4.026-4.13 7.198-13.94 7.198-17.892 0-29.434-7.592-35.688-18.85-14.136 4.236-28.756 10.773-43.572 10.773-7.5 0-11.152-3.457-11.152-6.63 0-2.695 2.596-5.196 7.594-5.196 1.738 0 2.408.67 2.408 1.54 0 1.063-1.06 2.302-2.6 2.302-1.636 0-1.54-.57-3.075-.57-1.445 0-2.6 1.055-2.6 2.41 0 1.826 2.213 4.027 8.467 4.027 12.98 0 24.617-8.455 42.512-12.683-2.792-6.553-4.042-14.053-4.042-22.04 0-30.3 18.95-66.46 47.037-76.077 0 0 .578-.294.578-.478 0-.11-.1-.11-.385-.11-22.412 2.604-40.785 16.357-53.672 31.85 1.247 6.062 1.92 12.315 1.92 18.182 0 17.886-6.06 32.795-18.175 32.795-4.62 0-6.828-3.457-6.828-8.848 0-9.04 6.055-23.856 16.832-37.993-1.54-8.95-4.235-17.89-7.986-25.5l-30.3 70.514z" fill="#231f20"/><path d="M268.245 91.492c-2.307 0-4.132-1.532-4.132-3.364 0-1.917 1.92-3.367 4.227-3.367 2.306 0 4.137 1.45 4.137 3.368 0 1.832-1.927 3.364-4.232 3.364m-12.604 13.86c0-.485.288-.86.873-.86.67 0 3.942.183 5.67.183 1.83 0 2.883-.1 3.945-.1.577 0 .966.1.966.586 0 1.44-2.98 6.823-11.453 26.45-1.918 4.43-2.593 6.732-2.593 7.98 0 1.346.767 1.346 1.536 1.346 2.117 0 6.45-3.08 9.718-7.49.193-.202.48-.395.675-.395.477 0 .963.396.963.957 0 .1 0 .3-.097.39-1.447 2.89-10.68 13.47-17.317 13.47-2.883 0-3.846-1.54-3.846-3.85 0-8.463 13.944-30.1 13.944-36.27 0-1.238-.763-1.238-1.92-1.238-.67 0-1.06-.58-1.06-1.157" fill="#231f20"/><path d="M298.826 110.543c0-.77.775-2.3.775-2.888 0-1.44-1.64-2.21-3.658-2.21-3.27 0-7.407 1.926-7.407 6.07 0 5.858 8.563 12.587 8.563 19.612 0 10.965-11.254 17.126-20.877 17.126-9.612 0-13.94-5.3-13.94-10.866 0-6.068 5.095-12.32 14.235-12.32 4.808 0 7.02 2.795 7.02 5.39 0 2.117-1.443 4.034-4.042 4.034-.96 0-1.252-.283-1.252-.86 0-.763.488-1.935.488-3.66 0-1.926-1.346-3.163-3.565-3.163-5.48 0-8.46 4.804-8.46 9.61 0 4.913 3.083 9.81 9.907 9.81 5.58 0 11.64-4.337 11.64-13.176 0-5.766-7.404-13.274-7.404-18.28 0-7.49 8.266-11.25 14.897-11.25 4.53 0 8.377 1.733 8.377 5.106 0 1.633-1.346 3.56-3.37 3.56-1.055 0-1.924-.588-1.924-1.643" fill="#231f20"/><path d="M296.323 97.937c0-.285.293-.485.676-.485.19 0 .48.108.675.2 3.552 1.926 7.213 3.173 14.33 3.173 1.728 0 3.456 0 5.094-.192 1.732-3.943 2.693-6.638 2.693-7.5 0-.578-.192-.863-.577-.863-.384 0-.578-.292-.578-.576 0-.58.678-1.44 1.544-1.44.67 0 2.787.192 4.517.192 1.827 0 2.888-.1 3.944-.1.286 0 .382.192.382.476 0 1.156-1.347 3.942-3.652 8.664 11.354-2.034 22.217-5.776 33.274-5.776 7.216 0 9.333 2.41 9.333 4.227 0 1.156-.86 2.127-1.726 2.127-2.31 0-3.755-2.696-10.686-2.696-9.71 0-20.86 2.495-31.057 4.043-3.367 7.116-16.55 35.207-16.55 37.7 0 1.35.58 1.825 1.442 1.825 2.408 0 7.215-3.833 10.39-7.49.2-.2.484-.394.675-.394.483 0 .962.395.962.956 0 .1 0 .3-.096.392-1.445 2.89-11.643 13.47-18.278 13.47-2.89 0-3.844-1.54-3.844-3.85 0-3.083 1.823-7.4 3.658-11.444 5.19-11.644 10.387-22.8 13.555-30.302-1.34.102-2.79.102-4.044.102 0 0-11.724-.102-15.672-3.75-.285-.294-.385-.485-.385-.687" fill="#231f20"/><path d="M333.157 127.66c.293.094.574.094 1.06.094 11.542 0 21.352-13.46 21.352-18.835 0-1.348-.58-2.227-2.018-2.227-7.985 0-16.925 11.157-20.395 20.968m29.623-18.465c0 7.216-14.807 20.005-28.945 20.005-.287 0-.678 0-1.163-.09-.574 2.116-.955 4.227-.955 5.958 0 4.043 1.83 6.822 6.248 6.822 6.832 0 13.56-6.05 18.467-13.166.195-.284.39-.385.585-.385.474 0 .96.57.96 1.162 0 .184 0 .377-.193.662-5.39 7.985-15.39 17.22-26.84 17.22-6.25 0-8.75-3.082-8.75-7.695 0-12.313 18.47-35.198 32.898-35.198 5.383 0 7.688 1.916 7.688 4.703M371.343 107.655c0-.853-.77-.962-1.83-.962-.67 0-1.062-.577-1.062-1.155 0-.477.3-.862.872-.862.678 0 3.942.192 5.675.192 1.828 0 2.884-.1 3.942-.1.476 0 .77.192.77.677 0 1.156-1.536 4.328-5.195 12.606-.29.387-3.078 6.64-3.078 7.786 0 .1 0 .193.096.193.094 0 .197-.093.29-.194 4.42-6.344 14.428-21.068 23.95-21.068 2.99 0 4.23 1.74 4.23 3.273 0 1.35-.96 2.604-2.302 2.604-13.18 0-22.606 11.928-30.015 24.82-2.115 3.74-5.675 11.533-5.675 11.533-.383.485-2.788 1.054-4.712 1.054-1.343 0-2.503-.292-2.503-.952 0-.202.096-.394.096-.394.293-.57 2.986-7.3 6.062-14.13 7.797-17.117 10.39-22.986 10.39-24.92M55.12 181.03c-3.178 0-4.647 0-6.613-.225-5.63-.745-9.794-2.954-9.794-7.365 0-1.215.485-2.446.975-3.91 52.67-130.822 61.005-143.562 65.658-153.12 3.675-7.585 6.37-9.06 9.55-11.76.25-.236.25-.73.25-1.475 0-1.465-.493-3.172-1.955-3.172-.49 0-1.23.243-2.208.98-6.862 5.138-28.42 18.866-46.31 22.784-3.673.736-5.137 2.2-5.137 3.666 0 1.23 1.222 2.21 2.938 2.21 1.472 0 7.843-2.21 12.496-2.21 2.694 0 4.65.745 4.65 2.946 0 .987-.485 2.443-.485 2.443-25.722 62.48-51.203 123.24-55.368 131.794-5.388 11.03-8.57 15.443-21.805 15.685-1.71.244-1.958 1.726-1.958 2.696.247.98-.244 2.2 1.72 2.2 2.2-.24 18.122-.484 25.964-.484 10.783 0 23.764.98 26.215.98 1.71 0 2.452-1.473 2.452-2.696 0-.97-.495-1.967-1.234-1.967M130.822 182.513c-12.497 0-17.888-12.255-17.888-30.143 0-48.74 39.69-139.878 82.316-139.878 14.7 0 21.066 12.747 21.066 31.112 0 6.748-.835 14.28-2.38 22.24 1.93 3.475 5.93 11.075 7.773 17.67 0 0 7.323-7.65 16.692-13.844 2.032-8.044 3.145-15.762 3.145-22.884 0-23.513-12.003-40.162-41.643-40.162-56.836 0-114.403 87.21-114.403 140.858 0 23.756 11.268 40.898 38.952 40.898 23.94 0 49.382-16.892 70.42-40.38h-16.17c-14.373 20.25-31.298 34.513-47.88 34.513" fill="#231f20"/><path d="M91.74 99.483l-6.917-3.093c11.233-3.664 19.706-5.948 25.81-7.132 9.017-1.768 12.87-1.152 12.802.977v10.146c-.102-1.64-2.773-2.303-8.667-1.513-1.232.167-2.61.394-4.136.696-6.103 1.185-14.576 3.476-25.81 7.132l6.917-7.212z" fill="url(#U)" transform="matrix(1.25 0 0 -1.25 -25.11 254.04)"/><path d="M64.566 147.77c-3.293-2.76-5.318-5.59-5.48-8.276V129.2c.11 1.69.95 3.43 2.37 5.184 1.63 1.99 4.012 3.978 6.94 5.886 18.65 12.148 59.436 20.8 67.462 2.51l-3.49 10.528 3.49-.227c-3.325 7.57-12.27 10.526-22.932 10.527-17.033 0-38.45-7.537-48.36-15.836" fill="url(#V)" transform="matrix(1.25 0 0 -1.25 -25.11 254.04)"/><path d="M60.685 73.267c-.75-.48-1.505-.955-2.26-1.43l.374 2.512c.626-.363 1.255-.724 1.885-1.083m.938.61c-.89.503-1.774 1.008-2.656 1.516.09.6.177 1.2.264 1.8l-1 .563c-.374-2.617-.75-5.234-1.128-7.85 2.41 1.462 4.792 2.947 7.145 4.454l-1.027.583c-.53-.356-1.064-.71-1.597-1.065M65.78 73.6c-1.18-2.21-2.38-4.416-3.592-6.616 2.475.78 4.933 1.585 7.375 2.412-.762-1.466-1.533-2.93-2.31-4.392l1.006-.5c1.184 2.255 2.352 4.515 3.5 6.778-2.426-.865-4.872-1.71-7.333-2.53.788 1.46 1.568 2.922 2.34 4.386l-.987.46M72.126 62.806c.985 2.216 1.957 4.435 2.915 6.657l-1.024.42c-.96-2.21-1.938-4.418-2.93-6.623l1.04-.454M75.266 61.47c1.257 1.336 2.5 2.677 3.733 4.024.06-1.853.123-3.706.19-5.56.387-.153.776-.305 1.166-.457-.142 2.9-.276 5.797-.404 8.696-1.92-2.096-3.867-4.18-5.844-6.247.385-.153.772-.304 1.158-.455M86.763 58.436c-.967.318-1.933.637-2.894.96l.518 1.735c.932-.307 1.864-.61 2.8-.91.1.347.2.693.298 1.04-.933.296-1.863.595-2.793.898.24.81.477 1.62.713 2.43.954-.3 1.908-.6 2.865-.893.1.35.197.7.295 1.05-1.314.398-2.625.8-3.932 1.212-.708-2.407-1.43-4.81-2.162-7.213 1.327-.454 2.656-.9 3.99-1.34l.303 1.032M91.04 59.72l.35-.093c1.045-.283 1.478-.838 1.292-1.67-.173-.776-.775-1.022-1.797-.737-.132.038-.265.074-.396.11l.55 2.39m1.57.502c.996.89 1.986 1.786 2.97 2.685-.45.113-.896.225-1.344.34-.918-.865-1.84-1.728-2.772-2.585l-.2.053c.235 1.036.467 2.07.7 3.107-.366.093-.73.185-1.095.28-.57-2.51-1.15-5.016-1.74-7.52.434-.126.87-.247 1.302-.37.974-.276 1.723-.286 2.242-.03.572.286.934.776 1.087 1.467.12.54.073 1.045-.138 1.513-.212.47-.55.82-1.012 1.06M100.737 54.88l-.83.77c-.22-.277-.415-.445-.584-.506-.18-.076-.398-.083-.654-.028-.315.07-.56.22-.736.452-.178.228-.242.482-.2.758.063.383.384.633.96.753l.797.164c.648.133 1.14.36 1.476.677.337.322.546.755.627 1.305.11.735-.028 1.387-.41 1.956-.387.572-.916.922-1.59 1.053-.643.124-1.2.023-1.683-.302-.475-.323-.823-.84-1.044-1.552.363-.166.726-.33 1.09-.495.124.45.265.753.42.905.284.295.645.4 1.086.312.348-.07.618-.25.81-.548.192-.296.26-.637.203-1.022-.024-.153-.068-.29-.127-.412-.06-.12-.14-.225-.24-.316-.102-.09-.228-.168-.378-.236-.15-.065-.323-.12-.524-.168l-.767-.167c-1.092-.24-1.71-.792-1.852-1.66-.095-.587.037-1.124.402-1.614.364-.494.87-.814 1.512-.956.866-.194 1.613.1 2.235.88M107.788 57.61c-.446-.88-.895-1.762-1.347-2.643-.314.983-.628 1.964-.94 2.947.763-.103 1.525-.204 2.288-.303m.555 1.114c-1.073.134-2.145.272-3.216.413-.222.698-.443 1.394-.663 2.092-.404.048-.81.1-1.214.15.97-3.063 1.964-6.125 2.98-9.182 1.46 2.76 2.89 5.526 4.29 8.3-.413.047-.825.096-1.238.144-.313-.64-.625-1.28-.94-1.918M113.462 55.782l.363-.02c1.087-.054 1.632-.544 1.634-1.475-.002-.873-.535-1.28-1.6-1.217-.136.01-.274.017-.41.025.004.896.01 1.792.01 2.687m1.43.905c.784 1.185 1.56 2.37 2.332 3.56l-1.39.042c-.714-1.136-1.434-2.27-2.16-3.404l-.207.01c.004 1.157.01 2.314.01 3.47-.377.015-.756.028-1.133.042-.017-2.81-.035-5.624-.056-8.436.452-.03.903-.06 1.357-.088 1.015-.066 1.747.1 2.197.498.496.443.742 1.054.74 1.83-.002.606-.16 1.135-.47 1.584-.308.45-.716.746-1.22.89M120.942 51.687c-.18 2.897-.363 5.794-.543 8.692-.378-.018-.757-.034-1.135-.05.172-2.887.346-5.772.52-8.66.386.006.77.01 1.157.017M124.45 56.195c-.14.966.022 1.8.485 2.505.46.707 1.05 1.12 1.768 1.233.78.124 1.488-.09 2.124-.643.638-.565 1.03-1.315 1.18-2.252.148-.947.004-1.783-.432-2.503-.434-.72-1.047-1.135-1.838-1.243-.787-.107-1.5.125-2.137.69-.634.554-1.017 1.294-1.15 2.213m-1.142-.17c.174-1.228.714-2.233 1.626-3.015.908-.788 1.915-1.113 3.008-.97 1.082.145 1.94.725 2.564 1.74.632 1.024.842 2.177.638 3.454-.206 1.284-.762 2.306-1.664 3.07-.907.764-1.895 1.054-2.977.876-.96-.157-1.76-.685-2.415-1.583-.717-.99-.98-2.178-.78-3.573" fill="#fff"/></svg>