<svg xmlns="http://www.w3.org/2000/svg" xmlns:xlink="http://www.w3.org/1999/xlink" width="400" height="345.738"><defs><linearGradient x2="1" gradientUnits="userSpaceOnUse" gradientTransform="matrix(6 8.7 8.7 -6 119.49 448.96)" id="a"><stop offset="0" stop-opacity="0" stop-color="#fff"/><stop offset="1" stop-color="#fff"/></linearGradient><linearGradient x2="1" gradientUnits="userSpaceOnUse" gradientTransform="rotate(124.59 -64.48 252.37) scale(10.78)" id="b"><stop offset="0" stop-opacity="0" stop-color="#fff"/><stop offset="1" stop-color="#fff"/></linearGradient><linearGradient x2="1" gradientUnits="userSpaceOnUse" gradientTransform="scale(18.8) rotate(163.51 2.75 11.18)" id="c"><stop offset="0" stop-opacity="0" stop-color="#fff"/><stop offset="1" stop-color="#fff"/></linearGradient><linearGradient x2="1" gradientUnits="userSpaceOnUse" gradientTransform="scale(7.8) rotate(135 -2.14 31.42)" id="d"><stop offset="0" stop-opacity="0" stop-color="#fff"/><stop offset="1" stop-color="#fff"/></linearGradient><linearGradient x2="1" gradientUnits="userSpaceOnUse" gradientTransform="rotate(44.99 -478.74 313.08) scale(7.8)" id="e"><stop offset="0" stop-opacity="0" stop-color="#fff"/><stop offset="1" stop-color="#fff"/></linearGradient><linearGradient x2="1" gradientUnits="userSpaceOnUse" gradientTransform="scale(18.8) rotate(16.49 -71.12 22.46)" id="f"><stop offset="0" stop-opacity="0" stop-color="#fff"/><stop offset="1" stop-color="#fff"/></linearGradient><linearGradient x2="1" gradientUnits="userSpaceOnUse" gradientTransform="matrix(6 8.7 8.7 -6 307.34 448.96)" id="g"><stop offset="0" stop-opacity="0" stop-color="#fff"/><stop offset="1" stop-color="#fff"/></linearGradient><linearGradient x2="1" gradientUnits="userSpaceOnUse" gradientTransform="rotate(124.59 29.45 301.69) scale(10.78)" id="h"><stop offset="0" stop-opacity="0" stop-color="#fff"/><stop offset="1" stop-color="#fff"/></linearGradient><linearGradient x2="1" gradientUnits="userSpaceOnUse" gradientTransform="scale(18.8) rotate(163.51 7.74 11.9)" id="i"><stop offset="0" stop-opacity="0" stop-color="#fff"/><stop offset="1" stop-color="#fff"/></linearGradient><linearGradient x2="1" gradientUnits="userSpaceOnUse" gradientTransform="scale(7.8) rotate(135 9.9 36.41)" id="j"><stop offset="0" stop-opacity="0" stop-color="#fff"/><stop offset="1" stop-color="#fff"/></linearGradient><linearGradient x2="1" gradientUnits="userSpaceOnUse" gradientTransform="rotate(44.99 -384.91 539.74) scale(7.8)" id="k"><stop offset="0" stop-opacity="0" stop-color="#fff"/><stop offset="1" stop-color="#fff"/></linearGradient><linearGradient x2="1" gradientUnits="userSpaceOnUse" gradientTransform="scale(18.8) rotate(16.49 -66.13 56.92)" id="l"><stop offset="0" stop-opacity="0" stop-color="#fff"/><stop offset="1" stop-color="#fff"/></linearGradient><linearGradient x2="1" gradientUnits="userSpaceOnUse" gradientTransform="matrix(6 8.7 8.7 -6 204.83 156.76)" id="m"><stop offset="0" stop-opacity="0" stop-color="#fff"/><stop offset="1" stop-color="#fff"/></linearGradient><linearGradient x2="1" gradientUnits="userSpaceOnUse" gradientTransform="rotate(124.59 54.91 128.66) scale(10.78)" id="n"><stop offset="0" stop-opacity="0" stop-color="#fff"/><stop offset="1" stop-color="#fff"/></linearGradient><linearGradient x2="1" gradientUnits="userSpaceOnUse" gradientTransform="scale(18.8) rotate(163.51 6.14 3.74)" id="o"><stop offset="0" stop-opacity="0" stop-color="#fff"/><stop offset="1" stop-color="#fff"/></linearGradient><linearGradient x2="1" gradientUnits="userSpaceOnUse" gradientTransform="scale(7.8) rotate(135 11.08 14.95)" id="p"><stop offset="0" stop-opacity="0" stop-color="#fff"/><stop offset="1" stop-color="#fff"/></linearGradient><linearGradient x2="1" gradientUnits="userSpaceOnUse" gradientTransform="rotate(44.99 -83.41 270.01) scale(7.8)" id="q"><stop offset="0" stop-opacity="0" stop-color="#fff"/><stop offset="1" stop-color="#fff"/></linearGradient><linearGradient x2="1" gradientUnits="userSpaceOnUse" gradientTransform="scale(18.8) rotate(16.49 -15.26 30.35)" id="r"><stop offset="0" stop-opacity="0" stop-color="#fff"/><stop offset="1" stop-color="#fff"/></linearGradient><linearGradient x2="1" gradientUnits="userSpaceOnUse" gradientTransform="matrix(6 8.7 8.7 -6 489.28 425.95)" id="s"><stop offset="0" stop-opacity="0" stop-color="#fff"/><stop offset="1" stop-color="#fff"/></linearGradient><linearGradient x2="1" gradientUnits="userSpaceOnUse" gradientTransform="rotate(124.59 126.47 337.95) scale(10.78)" id="t"><stop offset="0" stop-opacity="0" stop-color="#fff"/><stop offset="1" stop-color="#fff"/></linearGradient><linearGradient x2="1" gradientUnits="userSpaceOnUse" gradientTransform="scale(18.8) rotate(163.51 12.67 11.99)" id="u"><stop offset="0" stop-opacity="0" stop-color="#fff"/><stop offset="1" stop-color="#fff"/></linearGradient><linearGradient x2="1" gradientUnits="userSpaceOnUse" gradientTransform="scale(7.8) rotate(135 22.17 39.76)" id="v"><stop offset="0" stop-opacity="0" stop-color="#fff"/><stop offset="1" stop-color="#fff"/></linearGradient><linearGradient x2="1" gradientUnits="userSpaceOnUse" gradientTransform="rotate(44.99 -266.24 747.87) scale(7.8)" id="w"><stop offset="0" stop-opacity="0" stop-color="#fff"/><stop offset="1" stop-color="#fff"/></linearGradient><linearGradient x2="1" gradientUnits="userSpaceOnUse" gradientTransform="matrix(6 8.7 8.7 -6 118.17 254.96)" id="x"><stop offset="0" stop-opacity="0" stop-color="#fff"/><stop offset="1" stop-color="#fff"/></linearGradient><linearGradient x2="1" gradientUnits="userSpaceOnUse" gradientTransform="rotate(124.59 -14.2 155.01) scale(10.78)" id="y"><stop offset="0" stop-opacity="0" stop-color="#fff"/><stop offset="1" stop-color="#fff"/></linearGradient><linearGradient x2="1" gradientUnits="userSpaceOnUse" gradientTransform="scale(18.8) rotate(163.51 3.46 6.01)" id="z"><stop offset="0" stop-opacity="0" stop-color="#fff"/><stop offset="1" stop-color="#fff"/></linearGradient><linearGradient x2="1" gradientUnits="userSpaceOnUse" gradientTransform="scale(7.8) rotate(135 2.92 18.95)" id="A"><stop offset="0" stop-opacity="0" stop-color="#fff"/><stop offset="1" stop-color="#fff"/></linearGradient><linearGradient x2="1" gradientUnits="userSpaceOnUse" gradientTransform="rotate(44.99 -245.24 214.46) scale(7.8)" id="B"><stop offset="0" stop-opacity="0" stop-color="#fff"/><stop offset="1" stop-color="#fff"/></linearGradient><linearGradient x2="1" gradientUnits="userSpaceOnUse" gradientTransform="matrix(6 8.7 8.7 -6 532.46 156.76)" id="C"><stop offset="0" stop-opacity="0" stop-color="#fff"/><stop offset="1" stop-color="#fff"/></linearGradient><linearGradient x2="1" gradientUnits="userSpaceOnUse" gradientTransform="rotate(124.59 218.73 214.68) scale(10.78)" id="D"><stop offset="0" stop-opacity="0" stop-color="#fff"/><stop offset="1" stop-color="#fff"/></linearGradient><linearGradient x2="1" gradientUnits="userSpaceOnUse" gradientTransform="scale(18.8) rotate(163.51 14.85 5)" id="E"><stop offset="0" stop-opacity="0" stop-color="#fff"/><stop offset="1" stop-color="#fff"/></linearGradient><linearGradient x2="1" gradientUnits="userSpaceOnUse" gradientTransform="scale(7.8) rotate(135 32.08 23.66)" id="F"><stop offset="0" stop-opacity="0" stop-color="#fff"/><stop offset="1" stop-color="#fff"/></linearGradient><linearGradient x2="1" gradientUnits="userSpaceOnUse" gradientTransform="rotate(44.99 80.28 665.49) scale(7.8)" id="G"><stop offset="0" stop-opacity="0" stop-color="#fff"/><stop offset="1" stop-color="#fff"/></linearGradient><linearGradient x2="1" gradientUnits="userSpaceOnUse" gradientTransform="scale(18.8) rotate(16.49 -6.55 90.44)" id="H"><stop offset="0" stop-opacity="0" stop-color="#fff"/><stop offset="1" stop-color="#fff"/></linearGradient><linearGradient x2="1" gradientUnits="userSpaceOnUse" gradientTransform="matrix(6 8.7 8.7 -6 445.8 254.95)" id="I"><stop offset="0" stop-opacity="0" stop-color="#fff"/><stop offset="1" stop-color="#fff"/></linearGradient><linearGradient x2="1" gradientUnits="userSpaceOnUse" gradientTransform="rotate(124.59 149.62 241.03) scale(10.78)" id="J"><stop offset="0" stop-opacity="0" stop-color="#fff"/><stop offset="1" stop-color="#fff"/></linearGradient><linearGradient x2="1" gradientUnits="userSpaceOnUse" gradientTransform="scale(18.8) rotate(163.51 12.17 7.28)" id="K"><stop offset="0" stop-opacity="0" stop-color="#fff"/><stop offset="1" stop-color="#fff"/></linearGradient><linearGradient x2="1" gradientUnits="userSpaceOnUse" gradientTransform="scale(7.8) rotate(135 23.92 27.65)" id="L"><stop offset="0" stop-opacity="0" stop-color="#fff"/><stop offset="1" stop-color="#fff"/></linearGradient><linearGradient x2="1" gradientUnits="userSpaceOnUse" gradientTransform="scale(7.8) rotate(45 -10.43 78.18)" id="M"><stop offset="0" stop-opacity="0" stop-color="#fff"/><stop offset="1" stop-color="#fff"/></linearGradient><linearGradient x2="1" gradientUnits="userSpaceOnUse" gradientTransform="matrix(6 8.7 8.7 -6 857.49 156.76)" id="N"><stop offset="0" stop-opacity="0" stop-color="#fff"/><stop offset="1" stop-color="#fff"/></linearGradient><linearGradient x2="1" gradientUnits="userSpaceOnUse" gradientTransform="rotate(124.59 381.25 300.02) scale(10.78)" id="O"><stop offset="0" stop-opacity="0" stop-color="#fff"/><stop offset="1" stop-color="#fff"/></linearGradient><linearGradient x2="1" gradientUnits="userSpaceOnUse" gradientTransform="scale(18.8) rotate(163.51 23.49 6.25)" id="P"><stop offset="0" stop-opacity="0" stop-color="#fff"/><stop offset="1" stop-color="#fff"/></linearGradient><linearGradient x2="1" gradientUnits="userSpaceOnUse" gradientTransform="scale(7.8) rotate(135 52.92 32.28)" id="Q"><stop offset="0" stop-opacity="0" stop-color="#fff"/><stop offset="1" stop-color="#fff"/></linearGradient><linearGradient x2="1" gradientUnits="userSpaceOnUse" gradientTransform="rotate(44.99 242.68 1057.84) scale(7.8)" id="R"><stop offset="0" stop-opacity="0" stop-color="#fff"/><stop offset="1" stop-color="#fff"/></linearGradient><linearGradient x2="1" gradientUnits="userSpaceOnUse" gradientTransform="scale(18.8) rotate(16.49 2.09 150.05)" id="S"><stop offset="0" stop-opacity="0" stop-color="#fff"/><stop offset="1" stop-color="#fff"/></linearGradient><linearGradient x2="1" gradientUnits="userSpaceOnUse" gradientTransform="matrix(6 8.7 8.7 -6 770.83 254.95)" id="T"><stop offset="0" stop-opacity="0" stop-color="#fff"/><stop offset="1" stop-color="#fff"/></linearGradient><linearGradient x2="1" gradientUnits="userSpaceOnUse" gradientTransform="rotate(124.59 312.14 326.37) scale(10.78)" id="U"><stop offset="0" stop-opacity="0" stop-color="#fff"/><stop offset="1" stop-color="#fff"/></linearGradient><linearGradient x2="1" gradientUnits="userSpaceOnUse" gradientTransform="scale(18.8) rotate(163.51 20.81 8.53)" id="V"><stop offset="0" stop-opacity="0" stop-color="#fff"/><stop offset="1" stop-color="#fff"/></linearGradient><linearGradient x2="1" gradientUnits="userSpaceOnUse" gradientTransform="scale(7.8) rotate(135 44.76 36.28)" id="W"><stop offset="0" stop-opacity="0" stop-color="#fff"/><stop offset="1" stop-color="#fff"/></linearGradient><linearGradient x2="1" gradientUnits="userSpaceOnUse" gradientTransform="scale(7.8) rotate(45 10.4 128.47)" id="X"><stop offset="0" stop-opacity="0" stop-color="#fff"/><stop offset="1" stop-color="#fff"/></linearGradient><linearGradient x2="1" gradientUnits="userSpaceOnUse" gradientTransform="matrix(6 8.7 8.7 -6 775.73 432.11)" id="Y"><stop offset="0" stop-opacity="0" stop-color="#fff"/><stop offset="1" stop-color="#fff"/></linearGradient><linearGradient x2="1" gradientUnits="userSpaceOnUse" gradientTransform="rotate(124.59 268.08 416.24) scale(10.78)" id="Z"><stop offset="0" stop-opacity="0" stop-color="#fff"/><stop offset="1" stop-color="#fff"/></linearGradient><linearGradient x2="1" gradientUnits="userSpaceOnUse" gradientTransform="scale(18.8) rotate(163.51 20.26 13.26)" id="aa"><stop offset="0" stop-opacity="0" stop-color="#fff"/><stop offset="1" stop-color="#fff"/></linearGradient><linearGradient x2="1" gradientUnits="userSpaceOnUse" gradientTransform="scale(7.8) rotate(135 40.37 47.76)" id="ab"><stop offset="0" stop-opacity="0" stop-color="#fff"/><stop offset="1" stop-color="#fff"/></linearGradient><linearGradient x2="1" gradientUnits="userSpaceOnUse" gradientTransform="scale(7.8) rotate(45 -16.7 140.58)" id="ac"><stop offset="0" stop-opacity="0" stop-color="#fff"/><stop offset="1" stop-color="#fff"/></linearGradient><linearGradient x2="1" gradientUnits="userSpaceOnUse" gradientTransform="matrix(44.47 0 0 -44.47 297.13 437.71)" id="aj"><stop offset="0" stop-color="#68b3e2"/><stop offset=".499" stop-color="#b9e0f4"/><stop offset=".501" stop-color="#d2ecf9"/><stop offset="1" stop-color="#f1f9fd"/></linearGradient><clipPath id="bg"><path d="M256.377 415.957h15.162v-35.432h-15.163v35.432z"/></clipPath><clipPath id="bh"><path d="M256.377 380.525l15.162 9.998-15.13 25.434-.033-35.432z"/></clipPath><mask maskUnits="userSpaceOnUse" x="0" y="0" width="1" height="1" id="bi"><path d="M-32768 32767h65535v-65535h-65535v65535z" fill="url(#ad)"/></mask><linearGradient x2="1" gradientUnits="userSpaceOnUse" gradientTransform="scale(18.8) rotate(16.49 -66.13 56.92)" id="ad"><stop offset="0" stop-opacity="0" stop-color="#fff"/><stop offset="1" stop-color="#fff"/></linearGradient><linearGradient x2="1" gradientUnits="userSpaceOnUse" gradientTransform="scale(18.8) rotate(16.49 -66.13 56.92)" id="ak"><stop offset="0" stop-color="#383332"/><stop offset="1" stop-color="#383332"/></linearGradient><linearGradient x2="1" gradientUnits="userSpaceOnUse" gradientTransform="matrix(25.98 0 0 -25.98 256.37 398.24)" id="al"><stop offset="0" stop-color="#dc2c7d"/><stop offset="1" stop-color="#e676aa"/></linearGradient><clipPath id="aX"><path d="M319.356 442.94h25.972v-24.854h-25.972v24.855z"/></clipPath><clipPath id="aY"><path d="M345.328 442.94L319.356 428v-9.914l25.972 24.855z"/></clipPath><mask maskUnits="userSpaceOnUse" x="0" y="0" width="1" height="1" id="aZ"><path d="M-32768 32767h65535v-65535h-65535v65535z" fill="url(#ae)"/></mask><linearGradient x2="1" gradientUnits="userSpaceOnUse" gradientTransform="scale(7.8) rotate(135 9.9 36.41)" id="ae"><stop offset="0" stop-opacity="0" stop-color="#fff"/><stop offset="1" stop-color="#fff"/></linearGradient><linearGradient x2="1" gradientUnits="userSpaceOnUse" gradientTransform="scale(7.8) rotate(135 9.9 36.41)" id="am"><stop offset="0" stop-color="#383332"/><stop offset="1" stop-color="#383332"/></linearGradient><clipPath id="bb"><path d="M256.353 442.94h25.973v-24.854h-25.973v24.855z"/></clipPath><clipPath id="bc"><path d="M256.353 442.94L282.326 428v-9.914l-25.973 24.855z"/></clipPath><mask maskUnits="userSpaceOnUse" x="0" y="0" width="1" height="1" id="bd"><path d="M-32768 32767h65535v-65535h-65535v65535z" fill="url(#af)"/></mask><linearGradient x2="1" gradientUnits="userSpaceOnUse" gradientTransform="rotate(44.99 -384.91 539.74) scale(7.8)" id="af"><stop offset="0" stop-opacity="0" stop-color="#fff"/><stop offset="1" stop-color="#fff"/></linearGradient><linearGradient x2="1" gradientUnits="userSpaceOnUse" gradientTransform="rotate(44.99 -384.91 539.74) scale(7.8)" id="an"><stop offset="0" stop-color="#383332"/><stop offset="1" stop-color="#383332"/></linearGradient><linearGradient x2="1" gradientUnits="userSpaceOnUse" gradientTransform="scale(58.77) rotate(12.13 -32.76 23.44)" id="ao"><stop offset="0" stop-color="#d1579a"/><stop offset=".527" stop-color="#a72e79"/><stop offset="1" stop-color="#c05b9c"/></linearGradient><linearGradient x2="1" gradientUnits="userSpaceOnUse" gradientTransform="matrix(8.25 0 0 -8.25 319.35 410.3)" id="ap"><stop offset="0" stop-color="#f5ed78"/><stop offset="1" stop-color="#f5ed78"/></linearGradient><clipPath id="aR"><path d="M330.167 415.927h15.162v-35.402h-15.163v35.402z"/></clipPath><clipPath id="aS"><path d="M345.33 380.525l-15.163 9.998 15.13 25.404.032-35.402z"/></clipPath><mask maskUnits="userSpaceOnUse" x="0" y="0" width="1" height="1" id="aT"><path d="M-32768 32767h65535v-65535h-65535v65535z" fill="url(#ag)"/></mask><linearGradient x2="1" gradientUnits="userSpaceOnUse" gradientTransform="scale(18.8) rotate(163.51 7.74 11.9)" id="ag"><stop offset="0" stop-opacity="0" stop-color="#fff"/><stop offset="1" stop-color="#fff"/></linearGradient><linearGradient x2="1" gradientUnits="userSpaceOnUse" gradientTransform="scale(18.8) rotate(163.51 7.74 11.9)" id="aq"><stop offset="0" stop-color="#383332"/><stop offset="1" stop-color="#383332"/></linearGradient><linearGradient x2="1" gradientUnits="userSpaceOnUse" gradientTransform="matrix(25.97 0 0 -25.97 319.36 429.43)" id="ar"><stop offset="0" stop-color="#fac608"/><stop offset="1" stop-color="#fede68"/></linearGradient><linearGradient x2="1" gradientUnits="userSpaceOnUse" gradientTransform="matrix(25.98 0 0 -25.98 256.37 429.45)" id="as"><stop offset="0" stop-color="#97bf35"/><stop offset="1" stop-color="#d3d91c"/></linearGradient><clipPath id="aH"><path d="M300.843 458.067h18.522v-14.74h-18.522v14.74z"/></clipPath><clipPath id="aI"><path d="M300.843 452.885l11.816-9.557 6.705 14.74-18.522-5.183z"/></clipPath><mask maskUnits="userSpaceOnUse" x="0" y="0" width="1" height="1" id="aJ"><path d="M-32768 32767h65535v-65535h-65535v65535z" fill="url(#ah)"/></mask><linearGradient x2="1" gradientUnits="userSpaceOnUse" gradientTransform="matrix(6 8.7 8.7 -6 307.34 448.96)" id="ah"><stop offset="0" stop-opacity="0" stop-color="#fff"/><stop offset="1" stop-color="#fff"/></linearGradient><linearGradient x2="1" gradientUnits="userSpaceOnUse" gradientTransform="matrix(6 8.7 8.7 -6 307.34 448.96)" id="at"><stop offset="0" stop-color="#383332"/><stop offset="1" stop-color="#383332"/></linearGradient><clipPath id="aL"><path d="M282.34 458.067h18.52v-15.032h-18.52v15.032z"/></clipPath><clipPath id="aM"><path d="M300.86 452.885l-11.68-9.85-6.84 15.032 18.52-5.182z"/></clipPath><mask maskUnits="userSpaceOnUse" x="0" y="0" width="1" height="1" id="aN"><path d="M-32768 32767h65535v-65535h-65535v65535z" fill="url(#ai)"/></mask><linearGradient x2="1" gradientUnits="userSpaceOnUse" gradientTransform="rotate(124.59 29.45 301.69) scale(10.78)" id="ai"><stop offset="0" stop-opacity="0" stop-color="#fff"/><stop offset="1" stop-color="#fff"/></linearGradient><linearGradient x2="1" gradientUnits="userSpaceOnUse" gradientTransform="rotate(124.59 29.45 301.69) scale(10.78)" id="au"><stop offset="0" stop-color="#383332"/><stop offset="1" stop-color="#383332"/></linearGradient><linearGradient x2="1" gradientUnits="userSpaceOnUse" gradientTransform="matrix(25.97 0 0 -25.97 319.39 398.23)" id="av"><stop offset="0" stop-color="#4b8cba"/><stop offset="1" stop-color="#5395cc"/></linearGradient><linearGradient x2="1" gradientUnits="userSpaceOnUse" gradientTransform="matrix(25.97 0 0 -25.97 256.38 386.59)" id="aw"><stop offset="0" stop-color="#bd6da6"/><stop offset="1" stop-color="#bd6da6"/></linearGradient><linearGradient x2="1" gradientUnits="userSpaceOnUse" gradientTransform="scale(20.33) rotate(-124.55 13.16 5.21)" id="ax"><stop offset="0" stop-color="#7099cc"/><stop offset="1" stop-color="#9ec3e6"/></linearGradient><linearGradient x2="1" gradientUnits="userSpaceOnUse" gradientTransform="matrix(18.5 0 0 -18.5 300.85 437.71)" id="ay"><stop offset="0" stop-color="#63b4e2"/><stop offset="1" stop-color="#7ac6ed"/></linearGradient><linearGradient x2="1" gradientUnits="userSpaceOnUse" gradientTransform="matrix(25.97 0 0 -25.97 319.36 419.3)" id="az"><stop offset="0" stop-color="#f5e13f"/><stop offset="1" stop-color="#fdee6f"/></linearGradient><linearGradient x2="1" gradientUnits="userSpaceOnUse" gradientTransform="matrix(25.97 0 0 -25.97 256.38 419.3)" id="aA"><stop offset="0" stop-color="#c2d128"/><stop offset=".511" stop-color="#d8e072"/><stop offset="1" stop-color="#fcfcee"/></linearGradient><linearGradient xlink:href="#aj" id="bk" gradientUnits="userSpaceOnUse" gradientTransform="matrix(86.08 0 0 -86.08 349.37 540.46)" x2="1"/><linearGradient xlink:href="#al" id="bf" gradientUnits="userSpaceOnUse" gradientTransform="matrix(50.28 0 0 -50.28 270.49 464.06)" x2="1"/><linearGradient xlink:href="#ao" id="aW" gradientUnits="userSpaceOnUse" gradientTransform="matrix(111.2 23.9 23.9 -111.2 251.44 535.86)" x2="1"/><linearGradient xlink:href="#ap" id="aV" gradientUnits="userSpaceOnUse" gradientTransform="matrix(15.96 0 0 -15.96 392.39 487.41)" x2="1"/><linearGradient xlink:href="#ar" id="aQ" gradientUnits="userSpaceOnUse" gradientTransform="matrix(50.27 0 0 -50.27 392.39 524.44)" x2="1"/><linearGradient xlink:href="#as" id="aP" gradientUnits="userSpaceOnUse" gradientTransform="matrix(50.28 0 0 -50.28 270.49 524.47)" x2="1"/><linearGradient xlink:href="#av" id="aG" gradientUnits="userSpaceOnUse" gradientTransform="matrix(50.27 0 0 -50.27 392.45 464.03)" x2="1"/><linearGradient xlink:href="#aw" id="aF" gradientUnits="userSpaceOnUse" gradientTransform="matrix(50.27 0 0 -50.27 270.49 441.51)" x2="1"/><linearGradient xlink:href="#ax" id="aE" gradientUnits="userSpaceOnUse" gradientTransform="scale(39.36) rotate(-124.55 8.24 2.82)" x2="1"/><linearGradient xlink:href="#ay" id="aD" gradientUnits="userSpaceOnUse" gradientTransform="matrix(35.8 0 0 -35.8 356.58 540.45)" x2="1"/><linearGradient xlink:href="#az" id="aC" gradientUnits="userSpaceOnUse" gradientTransform="matrix(50.27 0 0 -50.27 392.39 504.81)" x2="1"/><linearGradient xlink:href="#aA" id="aB" gradientUnits="userSpaceOnUse" gradientTransform="matrix(50.27 0 0 -50.27 270.49 504.81)" x2="1"/><linearGradient xlink:href="#au" id="aO" gradientUnits="userSpaceOnUse" gradientTransform="rotate(124.59 29.45 301.69) scale(10.78)" x2="1"/><linearGradient xlink:href="#at" id="aK" gradientUnits="userSpaceOnUse" gradientTransform="matrix(6 8.7 8.7 -6 307.34 448.96)" x2="1"/><linearGradient xlink:href="#aq" id="aU" gradientUnits="userSpaceOnUse" gradientTransform="scale(18.8) rotate(163.51 7.74 11.9)" x2="1"/><linearGradient xlink:href="#an" id="be" gradientUnits="userSpaceOnUse" gradientTransform="rotate(44.99 -384.91 539.74) scale(7.8)" x2="1"/><linearGradient xlink:href="#am" id="ba" gradientUnits="userSpaceOnUse" gradientTransform="scale(7.8) rotate(135 9.9 36.41)" x2="1"/><linearGradient xlink:href="#ak" id="bj" gradientUnits="userSpaceOnUse" gradientTransform="scale(18.8) rotate(16.49 -66.13 56.92)" x2="1"/></defs><path d="M270.494 550.58V429.77l50.268 23.474V579.86l-50.268-29.28z" fill="url(#aB)" transform="matrix(1.25 0 0 -1.25 -248.73 724.83)"/><path d="M392.39 453.244l50.27-23.473v120.81l-50.27 29.28V453.244z" fill="url(#aC)" transform="matrix(1.25 0 0 -1.25 -248.73 724.83)"/><path d="M152.22.007L89.387 36.603l107.61 61.9.024-.01L152.22.005z" fill="#e467a1"/><path d="M196.988 98.468V12.546L152.22.006l44.768 98.462z" fill="#dc257e"/><path d="M356.58 569.826v-68.782l35.81 78.816-35.81-10.034z" fill="url(#aD)" transform="matrix(1.25 0 0 -1.25 -248.73 724.83)"/><path d="M392.408 429.862h50.274l-50.295 23.42.02-23.42z" fill="url(#aE)" transform="matrix(1.25 0 0 -1.25 -248.73 724.83)"/><path d="M270.494 429.77h50.268v23.474l-50.268-23.473z" fill="url(#aF)" transform="matrix(1.25 0 0 -1.25 -248.73 724.83)"/><path d="M392.453 453.244l50.27-23.473-.062 68.524-50.207-45.05z" fill="url(#aG)" transform="matrix(1.25 0 0 -1.25 -248.73 724.83)"/><path d="M241.76 187.615l26.154-24.19 36.683 24.19H241.76z" fill="#273566"/><g clip-path="url(#aH)" transform="matrix(2.42 0 0 -2.42 -530.91 1108.27)" opacity=".2"><g clip-path="url(#aI)"><path d="M300.843 452.885l11.816-9.557 6.705 14.74-18.522-5.183z" fill="url(#aK)" mask="url(#aJ)"/></g></g><g clip-path="url(#aL)" transform="matrix(2.42 0 0 -2.42 -530.91 1108.27)" opacity=".2"><g clip-path="url(#aM)"><path d="M300.86 452.885l-11.68-9.85-6.84 15.032 18.52-5.182z" fill="url(#aO)" mask="url(#aN)"/></g></g><path d="M270.484 498.352l50.278 23.312-50.268 28.917-.01-52.228z" fill="url(#aP)" transform="matrix(1.25 0 0 -1.25 -248.73 724.83)"/><path d="M392.39 521.664l50.27-23.37v52.287l-50.27-28.916z" fill="url(#aQ)" transform="matrix(1.25 0 0 -1.25 -248.73 724.83)"/><g clip-path="url(#aR)" transform="matrix(2.42 0 0 -2.42 -530.91 1108.27)" opacity=".7"><g clip-path="url(#aS)"><path d="M345.33 380.525l-15.163 9.998 15.13 25.404.032-35.402z" fill="url(#aU)" mask="url(#aT)"/></g></g><path d="M152.22 72.75l-24.578 63.47 24.58 22.055V72.75z" fill="#9cc133"/><path d="M392.387 453.157l15.96 14.346-15.956 54.16-.003-68.506z" fill="url(#aV)" transform="matrix(1.25 0 0 -1.25 -248.73 724.83)"/><path d="M270.494 550.58l50.268-28.916v58.196l-50.268-29.28z" fill="url(#aW)" transform="matrix(1.25 0 0 -1.25 -248.73 724.83)"/><g clip-path="url(#aX)" transform="matrix(2.42 0 0 -2.42 -530.91 1108.27)" opacity=".7"><g clip-path="url(#aY)"><path d="M345.328 442.94L319.356 428v-9.914l25.972 24.855z" fill="url(#ba)" mask="url(#aZ)"/></g></g><g clip-path="url(#bb)" transform="matrix(2.42 0 0 -2.42 -530.91 1108.27)" opacity=".7"><g clip-path="url(#bc)"><path d="M256.353 442.94L282.326 428v-9.914l-25.973 24.855z" fill="url(#be)" mask="url(#bd)"/></g></g><path d="M179.192 59.36l17.776-46.815L152.2.007l26.992 59.352z" fill="#e35c8a"/><path d="M214.766 59.36l-17.773-46.815L241.76.007 214.766 59.36z" fill="#7aaedc"/><path d="M196.97 51.284v16.484l-17.778-8.41 17.778-8.074z" opacity=".5" fill="#ab2d69"/><path d="M196.97 51.284v16.484l17.795-8.41-17.795-8.074z" opacity=".5" fill="#244985"/><path d="M270.484 429.77l50.278 23.474-50.278 45.108v-68.58z" fill="url(#bf)" transform="matrix(1.25 0 0 -1.25 -248.73 724.83)"/><path d="M152.22 187.615l-26.153-24.19-36.68 24.19h62.834z" fill="#6e2f5d"/><g clip-path="url(#bg)" transform="matrix(2.42 0 0 -2.42 -530.91 1108.27)" opacity=".7"><g clip-path="url(#bh)"><path d="M256.377 380.525l15.162 9.998-15.13 25.434-.033-35.432z" fill="url(#bj)" mask="url(#bi)"/></g></g><path d="M196.996 98.503l-17.792-39.158L152.27 72.74l43.916 25.31.81.453z" opacity=".7" fill="#8d416d"/><path d="M196.996 98.503l-.026-30.736-17.778-8.408 17.596 38.667.208.476z" fill="#8c2d5f"/><path d="M214.802 59.328l-17.82 39.168 44.814-25.78-26.994-13.388z" opacity=".7" fill="#3f91b4"/><path d="M214.766 59.36l-17.794 8.41.017 30.7 17.777-39.11z" fill="#006393"/><path d="M356.58 501.062l86.08 49.52-50.27 29.278-35.81-78.798z" fill="url(#bk)" transform="matrix(1.25 0 0 -1.25 -248.73 724.83)"/><path d="M116.882 288.664H101.07v17.638h15.812c6.165 0 8.054-2.95 8.054-8.82 0-5.798-1.853-8.818-8.054-8.818m-18.366-2.52h18.366c7.658 0 10.672 3.812 10.672 11.34 0 7.66-3.11 11.34-10.672 11.34H98.516v-22.68zM140.488 308.822h-2.584v-22.68h2.584v22.68zM179.406 297.516v11.306h-17.9c-7.625 0-10.674-3.78-10.674-11.37 0-7.528 3.017-11.31 10.675-11.31h17.67v2.52h-17.67c-6.167 0-8.06 2.888-8.06 8.79 0 5.968 1.927 8.85 8.06 8.85h15.315v-8.786h2.584zM192.704 308.822h-2.586v-22.68h2.586v22.68zM213.59 308.822v-20.355h-12.135v-2.325h26.822v2.325h-12.133v20.355h-2.555zM250.884 291.117c-.86-1.786-1.955-2.95-3.943-2.95-2.022 0-3.113 1.164-3.972 2.95l-4.25 8.683h16.41l-4.244-8.683zm11.473 17.705h-2.787l-3.28-6.73h-18.732l-3.283 6.73h-2.75l8.917-18.264c1.493-3.082 3.32-4.708 6.5-4.708 3.183 0 4.94 1.625 6.463 4.708l8.952 18.264zM272.967 286.143v13.726c0 4.673 2.218 6.432 8.056 6.432h14.752v2.52h-14.752c-7.326 0-10.643-2.617-10.643-8.953v-13.727h2.587zM8.242 232.17v31.367H.002V223.28h8.18c3.12 0 4.474 1.587 5.712 3.116l16.714 20.54 16.71-20.54c1.24-1.53 2.592-3.116 5.71-3.116h8.183v40.257h-8.237V232.17l-19.128 23.068h-6.477l-19.126-23.07zM120.068 243.407c0-11.238-6.477-12.77-19.658-12.77-13.183 0-19.658 1.532-19.658 12.77 0 11.24 6.475 12.77 19.658 12.77 13.18 0 19.658-1.53 19.658-12.77m8.592 0c0 15.596-9.064 20.718-28.25 20.718-19.188 0-28.252-5.122-28.252-20.718 0-15.595 9.064-20.717 28.252-20.717 19.186 0 28.25 5.122 28.25 20.717M189.045 231.46h-31.843c-9.65 0-10.83 4.238-10.83 11.946 0 7.71 1.18 11.89 10.83 11.89h31.843v8.24h-31.843c-14.477 0-19.42-6.886-19.42-20.13 0-13.24 4.943-20.127 19.42-20.127h31.843v8.18zM242.19 263.537v-16.424H208.41v16.424h-8.415V223.28h8.415v16.362h33.783V223.28h8.42v40.257h-8.42zM271.972 263.535h-8.414v-40.257h8.414v40.257zM292.925 223.28v23.598c0 6.593 2.528 8.418 11.008 8.418h26.836v8.24h-26.837c-13.302 0-19.426-4.59-19.426-16.658v-23.6h8.418zM369.375 232.93c-.885-1.706-2-2.766-4.178-2.766-2.175 0-3.295 1.06-4.178 2.766l-6.827 13.186h21.952l-6.77-13.186zm24.836 30.606h-9.06l-5.124-9.95h-29.658l-5.122 9.95h-9.005l16.478-32.312c2.535-5.003 5.596-8.533 12.48-8.533 6.887 0 9.887 3.53 12.474 8.534l16.54 32.312zM393.277 226.638h.856c.402 0 .678-.06.828-.182.148-.12.22-.283.22-.48 0-.132-.035-.246-.106-.347-.07-.1-.17-.178-.297-.226-.126-.053-.36-.078-.702-.078h-.798v1.312zm-.702 2.443v-4.34h1.495c.508 0 .88.042 1.108.117.225.082.41.22.545.42.133.2.2.412.2.637 0 .317-.11.596-.336.828-.227.234-.53.372-.902.4.152.062.276.14.368.23.174.17.39.454.643.86l.53.85h-.856l-.385-.685c-.305-.54-.547-.874-.736-1.012-.126-.096-.313-.15-.56-.15h-.413v1.846h-.702zm1.77-5.6c-.565 0-1.117.148-1.654.438-.533.29-.954.707-1.257 1.244-.302.542-.457 1.106-.457 1.69 0 .58.152 1.138.448 1.67.297.53.713.95 1.248 1.246.537.298 1.096.446 1.672.446.588 0 1.14-.148 1.676-.446.535-.297.95-.716 1.25-1.246.292-.532.44-1.09.44-1.67 0-.584-.148-1.148-.45-1.69-.303-.537-.722-.953-1.26-1.244-.538-.29-1.09-.438-1.656-.438m0-.67c.682 0 1.343.177 1.986.525.646.35 1.15.845 1.51 1.49.36.65.537 1.322.537 2.026 0 .695-.174 1.363-.527 2.006-.356.642-.855 1.142-1.493 1.496-.644.355-1.314.53-2.013.53-.695 0-1.365-.175-2.004-.53-.64-.354-1.14-.854-1.495-1.496-.355-.643-.537-1.31-.537-2.005 0-.703.184-1.376.545-2.024.36-.646.866-1.142 1.51-1.49.643-.35 1.308-.526 1.98-.526M99.732 335.174H96.41l-1.064 7.57c-.143 1.038.382 1.638 1.393 1.638.573 0 1.202-.18 1.758-.402l-.053 1.36c-.605.198-1.46.402-2.035.402-2.165 0-2.797-1.333-2.564-2.998l1.054-7.57h-2.516l.2-1.36h2.515l.475-3.35h1.513l-.482 3.35h3.322l-.196 1.36zM102.173 337.085c.1-.852.25-2.666.324-3.27h1.51c-.1.85-.196 1.81-.172 2.036.93-1.354 2.286-2.336 4.024-2.336.3 0 .553.046.857.123l-.377 1.486c-.227-.08-.433-.104-.583-.104-2.616 0-4.053 1.813-4.377 4.08l-.883 6.34h-1.505l1.18-8.355zM116.21 339.605c-2.51 0-5.128.626-5.407 2.615-.2 1.432 1.08 2.163 2.342 2.163 3.218 0 4.324-2.064 4.605-4l.125-.778h-1.664zm2.873.95c-.3 2.27-.45 3.552-.45 4.883h-1.413c-.027-.576.03-1.234.128-1.885h-.05c-1.087 1.483-2.442 2.19-4.404 2.19-1.99 0-3.95-.98-3.598-3.45.47-3.55 4.68-3.898 6.966-3.898h1.766l.1-.706c.304-2.014-1.005-2.823-2.868-2.823-1.357 0-2.567.43-3.728 1.312l-.75-1.032c1.253-1.06 3.167-1.635 4.674-1.635 2.824 0 4.457 1.255 4.03 4.202l-.403 2.84zM123.618 337.085c.097-.852.257-2.666.324-3.27h1.513c-.102.85-.204 1.81-.172 2.036h.07c.78-1.28 2.412-2.336 4.307-2.336 3.624 0 4.07 2.463 3.718 5.003l-.98 6.922h-1.51l.96-6.843c.272-1.887 0-3.73-2.397-3.73-2.234 0-4.247 1.567-4.704 4.76l-.804 5.812h-1.514l1.19-8.355zM136.88 342.47c.45 1.23 1.734 1.913 3.09 1.913 1.315 0 2.77-.803 2.974-2.14.448-3.195-6.77-.957-6.138-5.382.33-2.266 2.54-3.347 4.45-3.347 1.884 0 3.25.704 3.776 2.19l-1.46.803c-.432-1.058-1.155-1.64-2.515-1.64-1.086 0-2.564.662-2.72 1.87-.45 3.145 6.795.704 6.12 5.41-.327 2.39-2.492 3.597-4.71 3.597-1.983 0-3.647-.757-4.325-2.37l1.457-.903zM149.44 335.174h-2.417l.2-1.36h2.418l.53-3.8c.42-2.994 2.534-3.9 4.022-3.9.738 0 1.258.1 1.69.3l-.482 1.31c-.325-.18-.755-.25-1.33-.25-1.378 0-2.164 1.002-2.467 3.093l-.454 3.247h2.718l-.196 1.36h-2.72l-1.44 10.265h-1.504l1.432-10.266zM160.212 344.382c2.84 0 4.902-2.14 5.26-4.754.375-2.618-1.08-4.762-3.93-4.762-2.847 0-4.908 2.144-5.286 4.762-.346 2.615 1.113 4.754 3.956 4.754m1.532-10.868c3.57 0 5.74 2.565 5.233 6.114-.477 3.544-3.392 6.114-6.97 6.114-3.576 0-5.734-2.57-5.258-6.114.502-3.55 3.42-6.114 6.994-6.114M170.73 337.085c.1-.852.25-2.666.33-3.27h1.51c-.108.85-.205 1.81-.185 2.036.936-1.354 2.296-2.336 4.03-2.336.305 0 .56.046.852.123l-.375 1.486c-.22-.08-.418-.104-.578-.104-2.618 0-4.053 1.813-4.377 4.08l-.878 6.34h-1.516l1.186-8.355zM179.116 337.085c.095-.852.242-2.666.322-3.27h1.507c-.094.85-.198 1.81-.17 2.036h.076c.782-1.28 2.416-2.336 4.303-2.336 1.534 0 2.814.755 3.14 2.514.963-1.738 2.7-2.514 4.3-2.514 3.63 0 4.08 2.463 3.735 5.003l-.985 6.922h-1.51l.956-6.843c.278-1.887 0-3.73-2.39-3.73-2.798 0-3.848 2.368-4.08 4.032l-.927 6.54h-1.514l.98-6.998c.306-2.136-.275-3.576-1.91-3.576-2.236 0-4.256 1.568-4.71 4.762l-.802 5.81h-1.512l1.19-8.353zM206.212 339.605c-2.513 0-5.13.626-5.402 2.615-.206 1.432 1.084 2.163 2.34 2.163 3.222 0 4.323-2.064 4.6-4l.13-.778h-1.668zm2.875.95c-.308 2.27-.453 3.552-.453 4.883h-1.41c-.022-.576.024-1.234.12-1.885h-.043c-1.088 1.483-2.445 2.19-4.4 2.19-1.99 0-3.953-.98-3.602-3.45.476-3.55 4.68-3.898 6.97-3.898h1.77l.088-.706c.307-2.014-1.004-2.823-2.867-2.823-1.358 0-2.563.43-3.722 1.312l-.755-1.032c1.256-1.06 3.17-1.635 4.68-1.635 2.82 0 4.454 1.255 4.02 4.202l-.396 2.84zM226.104 335.174h-3.322l-1.062 7.57c-.15 1.038.38 1.638 1.38 1.638.587 0 1.218-.18 1.768-.402l-.05 1.36c-.608.198-1.455.402-2.036.402-2.168 0-2.797-1.333-2.567-2.998l1.05-7.57h-2.516l.205-1.36h2.516l.482-3.35h1.508l-.477 3.35h3.32l-.2 1.36zM237.648 342.168c-.12.854-.25 2.667-.324 3.27h-1.507c.094-.85.198-1.813.172-2.038h-.08c-.78 1.285-2.41 2.342-4.3 2.342-3.62 0-4.075-2.466-3.726-5.008l.987-6.92h1.515l-.968 6.847c-.275 1.886 0 3.722 2.396 3.722 2.238 0 4.255-1.558 4.68-4.754l.83-5.814h1.513l-1.188 8.354zM250.183 335.174h-2.412l.204-1.36h2.41l.537-3.8c.424-2.994 2.536-3.9 4.027-3.9.73 0 1.253.1 1.68.3l-.476 1.31c-.323-.18-.758-.25-1.336-.25-1.382 0-2.16 1.002-2.46 3.093l-.453 3.247h2.718l-.204 1.36h-2.72l-1.43 10.265h-1.51l1.43-10.266zM265.64 342.168c-.127.854-.25 2.667-.33 3.27h-1.515c.104-.85.206-1.813.18-2.038h-.076c-.78 1.285-2.41 2.342-4.303 2.342-3.62 0-4.08-2.466-3.716-5.008l.976-6.92h1.507l-.953 6.847c-.278 1.886 0 3.722 2.39 3.722 2.243 0 4.26-1.558 4.685-4.754l.825-5.814h1.51l-1.18 8.354zM276.462 335.174h-3.32l-1.06 7.57c-.15 1.038.378 1.638 1.387 1.638.575 0 1.207-.18 1.76-.402l-.05 1.36c-.607.198-1.46.402-2.037.402-2.166 0-2.8-1.333-2.572-2.998l1.06-7.57h-2.52l.203-1.36h2.52l.475-3.35h1.507l-.474 3.35h3.32l-.198 1.36zM288.016 342.168c-.13.854-.252 2.667-.33 3.27h-1.514c.107-.85.206-1.813.182-2.038h-.075c-.785 1.285-2.42 2.342-4.303 2.342-3.632 0-4.084-2.466-3.73-5.008l.984-6.92h1.508l-.955 6.847c-.28 1.886 0 3.722 2.392 3.722 2.238 0 4.254-1.558 4.68-4.754l.832-5.814h1.507l-1.178 8.354zM292.895 337.085c.102-.852.252-2.666.33-3.27h1.51c-.1.85-.202 1.81-.178 2.036.932-1.354 2.294-2.336 4.03-2.336.303 0 .555.046.85.123l-.377 1.486c-.225-.08-.42-.104-.576-.104-2.616 0-4.055 1.813-4.38 4.08l-.878 6.34h-1.51l1.18-8.355zM305.71 344.382c2.842 0 4.906-2.14 5.254-4.754.383-2.618-1.076-4.762-3.924-4.762-2.843 0-4.907 2.144-5.284 4.762-.35 2.615 1.103 4.754 3.953 4.754m1.533-10.868c3.57 0 5.742 2.565 5.236 6.114-.48 3.544-3.405 6.114-6.97 6.114-3.577 0-5.74-2.57-5.26-6.114.5-3.55 3.417-6.114 6.993-6.114M320.073 340.043h79.93v-1.203h-79.93v1.203zM.003 339.15h86.11v-1.202H.004v1.202z" fill="#2e2e2e"/></svg>