<svg xmlns="http://www.w3.org/2000/svg" width="400" height="173.735"><path d="M121.827 141.272H1.57l6.016-29.208h124.29l-10.05 29.208z" fill="#9c8dce" fill-rule="evenodd"/><path d="M384.953 141.272h-264.38l10.13-29.208h260.292l-6.042 29.208z" fill="#f89a83" fill-rule="evenodd"/><path d="M120.27 137.51H0L6.025 108.3h124.283l-10.04 29.213z" fill="#3f4388" fill-rule="evenodd"/><path d="M383.385 137.51h-264.38L129.14 108.3h260.286l-6.04 29.213zM37.382 0h27.941v.66c-.156.093-.542-.106-.662 0-.065.048 0 .594 0 .674V3.33c-.142.09-.556-.11-.678 0-.073.086.037.545 0 .66-.04.192 0 .47 0 .668v.66c-.127.093-.55-.1-.656 0-.087.093.03.552 0 .674-.057.175 0 .477 0 .66v1.335c-.135.082-.554-.117-.66 0-.09.08.022.544 0 .66-.056.193 0 .47 0 .672v.66c-.138.092-.564-.11-.672 0-.09.087.035.538 0 .665-.047.182 0 .484 0 .67v1.33c-.134.083-.556-.114-.67 0-.078.075.034.544 0 .666-.038.188 0 .465 0 .664v.66c-.133.093-.55-.104-.66 0-.086.09.036.547 0 .674-.06.173 0 .474 0 .664v1.33c-.156.084-.537-.113-.672 0-.05.044 0 .585 0 .665 0 .167.075.513 0 .668-.06.17.1.51 0 .666-.07.103-.57-.1-.66 0-.113.11.09.524 0 .66v1.333c-.083.165.1.514 0 .666-.073.096-.574-.098-.667 0-.085.08.028.545 0 .66-.04.197 0 .46 0 .663v1.337c-.154.087-.526-.107-.668 0-.048.04 0 .586 0 .668 0 .152.074.524 0 .663-.036.084-.585-.063-.662 0-.052.046 0 .585 0 .662 0 .122.067.57 0 .67-.07.09-.566-.07-.663 0-.11.07.09.57 0 .67-.12.107-.554-.118-.668 0-.113.107.09.528 0 .665-.07.105-.574-.095-.666 0-.104.107.093.53 0 .66h-.665c-.192 0-.48-.044-.658 0-.125.03-.59-.08-.674 0-.104.116.093.532 0 .672h-1.33c-.21 0-.45.02-.662 0-.22-.03-.448.006-.662 0-.1-.01-.61.054-.666 0-.12-.116.087-.542 0-.672H48.69c.075-.17-.105-.51 0-.66.073-.116.57.09.666 0 .087-.098-.052-.545 0-.667.062-.163-.01-.49 0-.667.002-.102-.065-.6 0-.67.102-.106.53.094.666 0v-.662c0-.203-.05-.477 0-.662.022-.117-.085-.586 0-.668.107-.107.526.087.666 0v-2c.072-.167-.108-.51 0-.66.07-.108.566.094.663 0 .078-.08-.022-.55 0-.667.038-.197 0-.464 0-.668V19.3c.133-.09.557.11.664 0 .095-.1-.045-.543 0-.665.058-.167-.012-.49 0-.668.005-.103-.067-.6 0-.666.105-.11.536.093.67 0v-1.328c0-.215-.046-.457 0-.664.018-.11-.08-.595 0-.673.063-.065.63.09.66 0 .064-.14 0-.496 0-.66v-.664c.012-.223-.013-.443 0-.665.01-.097-.063-.6 0-.666.107-.11.533.087.673 0v-1.335c.074-.162-.108-.506 0-.665.06-.11.563.094.658 0 .095-.088-.037-.542 0-.66.052-.18 0-.488 0-.672 0-.187-.042-.476 0-.66.03-.12-.087-.587 0-.667.11-.11.534.09.666 0V5.993H31.39c.09-.137-.11-.558 0-.673.074-.063.627.084.667 0 .062-.143 0-.49 0-.662V3.99c.172-.077.514.105.663 0 .11-.063-.09-.57 0-.66.11-.116.54.094.67 0 .11-.083-.1-.57 0-.667.11-.112.527.095.662 0 .132-.087.55.112.666 0 .112-.112-.09-.528 0-.668.132-.087.553.115.668 0 .062-.067-.087-.628 0-.66.142-.07.5 0 .666 0h.666c.084-.136-.115-.56 0-.674.104-.106.526.093.666 0V0zM75.3 0H102.583v2.664c-.13.094-.552-.113-.657 0-.117.11.077.528 0 .665v1.328c-.14.095-.566-.107-.673 0-.093.087.032.544 0 .66-.05.183 0 .487 0 .674v1.33c-.13.087-.557-.113-.666 0-.078.08.03.545 0 .665-.043.185 0 .474 0 .66v.672c-.135.084-.556-.11-.666 0-.09.084.042.545 0 .66-.05.184 0 .483 0 .665v1.334c-.13.087-.554-.11-.666 0-.08.082.035.543 0 .665-.042.185 0 .464 0 .666v.664c-.147.085-.534-.107-.66 0-.056.043 0 .59 0 .66v1.338c0 .172.052.49 0 .658-.026.07-.607-.045-.67 0-.044.055 0 .59 0 .67v1.335c0 .157.058.514 0 .666-.036.08-.595-.076-.665 0-.11.11.09.524 0 .66v.665c0 .165.062.526 0 .668-.036.083-.6-.07-.662 0-.112.107.08.534 0 .666v1.323c-.09.142.108.564 0 .676-.074.066-.628-.09-.673 0-.062.146 0 .498 0 .66 0 .174.062.498 0 .668-.05.127.095.57 0 .663-.065.07-.623-.078-.656 0-.073.15 0 .503 0 .662v.67c-.143.086-.56-.11-.674 0-.105.1.115.57 0 .67-.125.107-.516-.1-.66 0-.106.074.09.57 0 .665-.113.105-.537-.087-.674 0-.132.082-.55-.115-.653 0-.09.082.088.606 0 .66-.134.073-.525-.01-.68 0-.085.008-.596-.06-.663 0-.105.116.095.532 0 .672H87.28c-.09-.14.11-.557 0-.672-.045-.045-.66.05-.66 0-.016-.067-.05-.62 0-.66.034-.043.655.034.66 0 .025-.223 0-.457 0-.667 0-.226-.013-.455 0-.667.012-.222-.013-.45 0-.67.002-.098-.068-.6 0-.662.11-.106.533.094.658 0V23.96c.145-.094.563.11.67 0 .088-.09-.032-.543 0-.675.058-.172 0-.476 0-.663v-1.327c.14-.09.554.107.667 0 .087-.09-.038-.543 0-.668.052-.172 0-.48 0-.666v-1.325c.137-.095.55.107.665 0 .1-.095-.055-.54 0-.668.07-.162-.01-.49 0-.666 0-.094-.065-.605 0-.67.115-.112.536.095.664 0v-1.995c0-.16-.058-.513 0-.66.037-.085.598.072.663 0 .112-.11-.082-.532 0-.664v-1.995c.137-.09.56.106.663 0 .085-.086-.027-.547 0-.67.053-.19 0-.463 0-.665 0-.185-.05-.482 0-.66.033-.07.616.054.68 0 .078-.09-.04-.542 0-.672.05-.18 0-.484 0-.66V6.65c.12-.087.545.123.652 0 .025-.014.025-.655 0-.658-.107-.067-.53 0-.653 0H69.308c.098-.137-.096-.558 0-.673.07-.063.634.084.672 0 .064-.143 0-.49 0-.662V3.99c.168-.077.512.105.667 0 .105-.063-.097-.57 0-.66.107-.116.55.11.666 0 .11-.106-.11-.557 0-.667.11-.112.553.112.658 0 .113-.112-.104-.553 0-.668.113-.105.547.1.667 0 .152-.105.52.1.67 0 .105-.067-.092-.574 0-.66.11-.116.532.094.664 0 .11-.086-.1-.567 0-.674.113-.106.54.093.67 0 .126-.08.55.116.66 0 .117-.106-.08-.528 0-.66M113.228 0H140.503v1.995c-.127.095-.546-.105-.663 0-.077.082.03.55 0 .668-.054.185 0 .467 0 .666v.66c-.134.09-.553-.115-.663 0-.084.082.028.553 0 .668-.04.182 0 .474 0 .66 0 .198.05.492 0 .674-.027.125.08.586 0 .66-.074.073-.636-.074-.668 0-.06.158 0 .512 0 .67v1.997c-.128.084-.555-.11-.664 0-.093.094.052.53 0 .66-.065.16.01.493 0 .665 0 .103.065.6 0 .67-.112.106-.536-.09-.67 0v2.66c-.128.084-.547-.11-.662 0-.08.084.035.543 0 .66-.047.192 0 .476 0 .673v.664c-.154.087-.533-.115-.663 0-.054.04 0 .583 0 .658 0 .195.048.494 0 .67-.054.188 0 .482 0 .667 0 .157.068.516 0 .668-.032.082-.593-.072-.667 0-.108.107.09.53 0 .666-.003.218.015.45 0 .66 0 .1.064.603 0 .665-.108.11-.527-.087-.66 0v1.995c-.086.127.108.556 0 .663-.07.077-.632-.075-.672 0-.056.15 0 .51 0 .676 0 .16.063.505 0 .66-.05.132.103.57 0 .668-.076.072-.61-.097-.665 0-.065.127.013.514 0 .663-.002.1.067.602 0 .662-.112.115-.526-.087-.66 0v.67c0 .158.06.52 0 .67-.036.08-.597-.07-.67 0-.11.107.093.528 0 .665-.218.003-.448-.015-.662 0-.103 0-.596-.072-.66 0-.078.067.08.62 0 .66-.15.073-.512-.01-.672 0-.094.008-.597-.06-.665 0-.112.116.09.532 0 .672H126.532c-.202 0-.46.026-.666 0-.144-.03-.536.078-.658 0-.107-.08.09-.58 0-.672-.112-.112-.536.087-.663 0v-.66c0-.168-.068-.522 0-.667.035-.086.593.07.663 0 .085-.086-.037-.55 0-.667.047-.182 0-.486 0-.67 0-.208-.037-.457 0-.662.017-.148-.087-.535 0-.662.067-.115.57.09.658 0 .117-.115-.084-.536 0-.668v-1.337c.157-.075.54.115.666 0 .057-.037 0-.583 0-.663 0-.187-.045-.47 0-.66.057-.193-.002-.467 0-.667.005-.095-.06-.603 0-.668.115-.107.536.09.67 0v-1.991c.133-.095.554.107.67 0 .074-.087-.036-.55 0-.668.05-.185 0-.472 0-.666 0-.19-.053-.475 0-.67.024-.112-.096-.578 0-.658.062-.073.62.08.66 0 .065-.152 0-.504 0-.664v-.673c.005-.214-.015-.446 0-.66.005-.098-.06-.61 0-.664.11-.114.54.086.663 0v-1.33c.09-.135-.112-.56 0-.666.07-.073.63.08.666 0 .063-.152 0-.507 0-.67 0-.18-.046-.48 0-.664.056-.168 0-.477 0-.66 0-.18-.06-.497 0-.672.034-.067.602.055.672 0 .052-.037 0-.58 0-.66V5.992H107.24V4.658c.168-.08.515.102.665 0 .104-.07-.098-.566 0-.668.112-.115.556.112.668 0 .112-.115-.092-.524 0-.66.067-.11.573.09.663 0 .1-.11-.112-.57 0-.667.13-.112.524.097.658 0 .11-.075-.084-.573 0-.668.115-.105.544.087.674 0 .134-.085.558.112.658 0 .112-.105-.11-.55 0-.66.112-.116.56.11.67 0 .116-.116-.084-.53 0-.674.22-.004.445.018.662 0 .1 0 .61.076.67 0 .105-.106-.09-.528 0-.66" fill="#ed1c24" fill-rule="evenodd"/><path d="M171.108 0h10.653c.09.132-.114.554 0 .66.058.076.567 0 .672 0 .21.018.444-.004.66 0h.662c.162 0 .523-.06.665 0 .087.048-.07.604 0 .674.117.112.533-.087.663 0h.668c.073 0 .62-.05.667 0 .072.08-.085.626 0 .66.142.073.518 0 .658 0 .082 0 .636-.05.67 0 .113.14-.08.517 0 .67h.664c.08 0 .628-.05.665 0 .112.13-.082.518 0 .665.152.09.546-.11.666 0 .113.09-.1.565 0 .66.076.077.64-.077.662 0 .064.152 0 .51 0 .668 0 .16-.06.526 0 .66.042.086.603-.06.675 0 .06.068-.002.574 0 .674.008.22-.015.44 0 .66.125.096.55-.11.664 0 .108.12-.087.535 0 .67.085.127-.112.548 0 .665.068.065.63-.085.666 0 .06.152 0 .504 0 .66 0 .2-.044.48 0 .672.033.113-.082.58 0 .66.113.112.527-.088.664 0v3.331c0 .078-.058.617 0 .664.057.05.648-.067.67 0 .053.165 0 .487 0 .66V20.625c.08.14-.117.56 0 .668.088.09.59-.11.66 0 .09.125-.034.514 0 .666.044.19 0 .465 0 .66v.663c0 .23-.01.452 0 .676.02.213 0 .44 0 .66v3.332c.136.084.555-.116.67 0 .084.076-.03.542 0 .667.045.185 0 .466 0 .66 0 .225-.013.442 0 .672.002.216 0 .44 0 .657v.668c0 .22-.013.45 0 .66.005.223 0 .45 0 .67v.665c0 .22-.028.447 0 .67.017.205 0 .445 0 .654 0 .088-.05.63 0 .676.132.105.516-.092.663 0v6.647c0 .083-.055.622 0 .664.067.06.643-.063.67 0 .05.176 0 .493 0 .665V45.908c0 .12-.07.575 0 .672.063.1.56-.083.662 0v-.672c0-.165-.063-.51 0-.66.03-.098.596.072.663 0 .102-.098-.052-.542 0-.67.06-.16 0-.488 0-.667 0-.077-.052-.613 0-.665.06-.045.643.077.663 0 .06-.157 0-.484 0-.664 0-.073-.05-.62 0-.662.06-.045.652.06.662 0 .057-.177 0-.476 0-.66V39.912c.137-.08.566.12.68 0 .1-.097-.096-.526 0-.656.083-.132-.114-.55 0-.665.1-.11.517.084.654 0v-.67c0-.193-.037-.47 0-.667.033-.117-.08-.576 0-.656.08-.078.63.084.673 0 .064-.14 0-.512 0-.672 0-.077-.06-.623 0-.658.13-.11.508.082.655 0v-.676c0-.187-.042-.468 0-.653.028-.126-.082-.592 0-.67.115-.105.536.092.666 0v-.666c0-.08-.04-.625 0-.67.136-.105.522.094.674 0v-.66c0-.198-.055-.477 0-.667.03-.12-.084-.584 0-.658.065-.084.624.083.664 0 .064-.15 0-.52 0-.672 0-.082-.053-.624 0-.66.13-.116.516.08.67 0v-1.335c0-.165-.077-.524 0-.67.028-.078.59.076.656 0 .112-.106-.082-.53 0-.662v-.662c0-.082-.052-.628 0-.668.13-.107.514.087.664 0v-.66c0-.088-.055-.622 0-.677.067-.045.643.07.673 0 .056-.16 0-.48 0-.663 0-.167-.07-.504 0-.66.048-.133-.1-.577 0-.667.09-.095.59.105.664 0 .1-.162-.105-.508 0-.668.077-.13-.11-.554 0-.666.11-.113.53.09.668 0v-.66c0-.19-.054-.478 0-.665.023-.12-.082-.586 0-.668.11-.11.53.087.66 0V17.3c0-.08-.046-.615 0-.67.13-.112.512.095.67 0v-.658c0-.08-.055-.62 0-.664.06-.052.643.065.665 0 .05-.172 0-.496 0-.673 0-.167-.064-.5 0-.66.05-.13-.094-.574 0-.664.093-.094.594.103.666 0 .1-.156-.105-.513 0-.665.08-.134-.11-.556 0-.666.102-.11.53.087.666 0 .09-.135-.118-.56 0-.666.09-.09.592.104.66 0 .105-.152-.092-.504 0-.67.072-.128-.1-.555 0-.664.092-.09.593.11.666 0 .104-.153-.103-.512 0-.66.09-.13-.108-.557 0-.672.1-.085.598.107.668 0 .085-.132-.112-.55 0-.66.107-.118.55.11.666 0 .087-.096-.107-.594 0-.667.147-.106.496.09.656 0v-.67c0-.072-.048-.615 0-.658.144-.11.518.09.668 0 .097-.137-.117-.558 0-.673.097-.086.6.11.666 0 .05-.073-.073-.627 0-.662.15-.062.508 0 .668 0h.668c.09-.135-.114-.556 0-.668.11-.115.55.112.664 0 .114-.115-.113-.55 0-.66.114-.116.538.1.665 0 .113-.096-.112-.565 0-.667.108-.112.53.095.67 0 .138-.087.547.112.662 0 .067-.057-.072-.64 0-.668.167-.057.49 0 .66 0h.667c.097-.122-.108-.56 0-.66.062-.07.57 0 .668 0h1.326c.093-.136-.114-.56 0-.674.063-.06.574.013.67 0 .21-.004.448.036.665 0 .217-.017.456 0 .66 0h2.669V0H237.654v.66h1.991c.18 0 .496-.05.67 0 .058.026-.056.604 0 .674.038.057.584 0 .664 0 .152 0 .52-.07.664 0 .08.04-.06.584 0 .66.047.048.586 0 .66 0 .157 0 .534-.056.67 0 .086.046-.07.592 0 .67.04.057.59 0 .664 0h.666c.088.13-.114.555 0 .665.112.11.546-.11.666 0 .107.11-.12.545 0 .66.107.112.57-.115.673 0 .1.12-.124.558 0 .668.095.107.564-.11.65 0 .118.132-.094.526 0 .66.076.113.582-.084.672 0 .105.113-.08.535 0 .674.075.132-.11.56 0 .66.07.073.63-.074.666 0 .06.158 0 .512 0 .67v.665c.133.082.547-.117.66 0 .12.11-.08.53 0 .66.094.138-.113.562 0 .672.12.11.533-.098.672 0-.025.21.02.443 0 .66-.027.214 0 .448 0 .665 0 .192-.04.474 0 .67.028.116-.082.585 0 .664.11.11.532-.093.67 0v13.97c-.156.094-.542-.103-.67 0-.05.046 0 .585 0 .662 0 .212.02.454 0 .67-.027.21 0 .45 0 .67V33.94c-.092.133.11.55 0 .654-.072.07-.63-.08-.673 0-.056.15 0 .507 0 .676v.658c0 .227.03.454 0 .67-.006.216 0 .445 0 .657V39.257c0 .222.03.444 0 .656-.006.23 0 .454 0 .676v1.991c0 .218.04.46 0 .665-.003.047-.61-.038-.66 0-.054.052 0 .588 0 .666 0 .215.028.46 0 .67-.02.21 0 .448 0 .667v.66c0 .223.016.447 0 .672-.014.213 0 .443 0 .662v2c0 .214.016.45 0 .66-.014.223 0 .445 0 .662v.67c0 .195.053.48 0 .666-.01.058-.6-.052-.665 0-.052.04 0 .584 0 .66 0 .225.01.455 0 .672-.013.22 0 .446 0 .66v5.999c0 .214.01.44 0 .663-.008.028-.628-.042-.67 0-.083.08.042.54 0 .66-.046.173 0 .482 0 .667v.66c0 .223.027.45 0 .666-.008.222 0 .452 0 .674V66.534c0 .228.027.448 0 .67-.013.212 0 .45 0 .666 0 .2.042.458 0 .66-.023.152.09.55 0 .666-.068.11-.564-.092-.652 0-.09.075.013.56 0 .663-.042.216 0 .458 0 .67V73.19c0 .218.013.45 0 .672-.027.21 0 .436 0 .658V76.518c0 .21.02.45 0 .665-.027.147.068.55 0 .67-.082.1-.583-.096-.673 0-.077.073.025.542 0 .66-.04.194 0 .466 0 .663v.668c0 .217.02.45 0 .663-.015.222 0 .447 0 .67V83.172c0 .22.003.454 0 .666-.012.22 0 .45 0 .664v.665c0 .207.045.474 0 .664-.035.153.082.54 0 .667-.075.105-.573-.087-.666 0-.114.112.088.536 0 .668v7.32c-.085.133.112.547 0 .66-.077.07-.63-.076-.666 0-.067.15 0 .5 0 .667v3.99H214.356V97.81c.01-.224-.006-.446 0-.665.01-.102-.066-.6 0-.668.058-.055.65.067.667 0 .052-.187 0-.472 0-.664V90.49c.08-.163-.1-.51 0-.666.077-.105.576.102.666 0 .09-.083-.03-.546 0-.67.05-.188 0-.467 0-.655v-1.335c0-.222-.02-.453 0-.668.025-.214 0-.446 0-.668v-.665c0-.21-.02-.443 0-.665.025-.215 0-.444 0-.664 0-.16-.06-.52 0-.665.04-.084.596.065.668 0 .067-.067-.005-.568 0-.665.025-.215 0-.442 0-.67V78.513c0-.22-.018-.443 0-.658.015-.222 0-.45 0-.67 0-.165-.062-.517 0-.666.04-.083.6.072.668 0 .068-.07-.025-.557 0-.664.038-.214 0-.46 0-.67V73.86c0-.222-.025-.454 0-.673.018-.216 0-.448 0-.667v-.664c0-.215-.025-.454 0-.67.023-.208 0-.443 0-.66 0-.16-.06-.516 0-.67.038-.078.59.074.664 0 .067-.068-.008-.56 0-.664.024-.21 0-.446 0-.666V65.205c0-.216-.03-.448 0-.657.024-.22-.008-.45 0-.668 0-.103-.065-.606 0-.674.052-.047.645.068.665 0 .038-.18 0-.468 0-.665v-1.328c0-.217-.027-.444 0-.66.015-.218 0-.448 0-.662v-1.34c0-.21-.03-.45 0-.663.028-.21 0-.448 0-.66 0-.17-.057-.52 0-.674.038-.08.59.073.67 0 .106-.097-.086-.528 0-.66V51.9c0-.214-.01-.44 0-.666.01-.22-.01-.443 0-.67 0-.095-.066-.59 0-.66.106-.108.537.086.662 0v-6.66c.13-.082.554.112.66 0 .063-.063 0-.564 0-.664.008-.22-.007-.432 0-.662-.134.095-.553-.11-.66 0-.062.065.007.57 0 .663-.008.228.007.445 0 .665h-.663v1.336c0 .188.04.483 0 .667-.02.055-.61-.05-.67 0-.053.045 0 .584 0 .66v.672c-.13.084-.55-.12-.664 0-.08.08.03.547 0 .662-.05.19 0 .47 0 .66v.67c-.153.09-.532-.11-.664 0-.057.042 0 .588 0 .67v.66c-.137.088-.563-.106-.668 0-.087.078.027.547 0 .662-.047.19 0 .47 0 .67v.666c-.155.095-.534-.11-.668 0-.05.04 0 .584 0 .66 0 .158.067.535 0 .672-.04.087-.586-.077-.666 0-.072.077.035.548 0 .66-.038.19 0 .472 0 .666v.666c-.15.093-.524-.104-.668 0-.048.043 0 .59 0 .67 0 .156.07.52 0 .66-.04.094-.59-.068-.656 0-.083.08.027.555 0 .673-.055.184 0 .466 0 .66v.664c-.152.086-.53-.11-.666 0-.05.048 0 .592 0 .67 0 .154.065.515 0 .67-.05.08-.596-.077-.668 0-.08.08.035.534 0 .663-.048.18 0 .47 0 .66v.667c-.152.09-.532-.107-.666 0-.055.037 0 .59 0 .66 0 .168.06.524 0 .666-.035.093-.6-.07-.66 0-.083.088.024.554 0 .674-.048.192 0 .474 0 .668v.656c-.15.09-.535-.107-.667 0-.052.045 0 .586 0 .67v.66c-.132.094-.556-.106-.666 0-.082.086.023.55 0 .67-.047.184 0 .47 0 .666v.66c-.152.088-.533-.107-.665 0-.055.048 0 .586 0 .666 0 .157.06.534 0 .663-.045.092-.59-.073-.67 0-.08.084.03.55 0 .67-.046.187 0 .467 0 .66v.67c-.13.09-.55-.115-.66 0-.112.107.075.533 0 .663-.107.164.103.506 0 .666-.077.106-.578-.09-.668 0-.097.088.045.537 0 .672-.06.152 0 .486 0 .658 0 .182.048.504 0 .663-.025.068-.598-.047-.663 0-.05.048 0 .59 0 .67v.665c-.136.084-.553-.108-.672 0-.073.082.035.546 0 .665-.045.195 0 .464 0 .67v.66c-.15.09-.534-.11-.664 0-.052.042 0 .585 0 .663v.668c-.132.095-.546-.115-.656 0-.084.08.02.54 0 .663-.047.192 0 .472 0 .67v.66c-.154.097-.54-.103-.67 0-.053.042 0 .588 0 .668 0 .15.064.53 0 .666-.04.088-.594-.064-.664 0-.055.05 0 .582 0 .666v.664c-.152.094-.538-.1-.673 0-.04.037 0 .59 0 .665 0 .173.063.51 0 .664-.04.13.093.58 0 .667-.066.075-.62-.08-.665 0-.055.15 0 .5 0 .668v.664c-.147.093-.526-.106-.656 0-.06.034 0 .585 0 .67 0 .172.054.5 0 .655-.06.13.087.584 0 .67-.075.063-.64-.086-.674 0-.057.15 0 .502 0 .664v.668c-.137.087-.553-.115-.653 0-.09.072.017.54 0 .668-.055.187 0 .46 0 .658v.67c-.175.08-.514-.106-.68 0-.093.068.1.565 0 .662-.093.097-.574-.11-.662 0-.06.092.01.546 0 .67 0 .09.074.602 0 .66-.103.11-.56-.113-.662 0-.11.134.102.52 0 .667-.067.105-.57-.087-.663 0-.115.115.11.554 0 .664-.115.114-.532-.088-.66 0-.108.067.086.573 0 .668-.12.112-.542-.102-.672 0-.125.085-.56-.107-.663 0-.108.105.104.57 0 .666-.132.108-.524-.094-.67 0-.106.07.096.57 0 .662-.103.104-.532-.068-.66 0-.144.07-.558-.103-.67 0-.068.07.085.63 0 .665-.147.068-.506 0-.664 0h-1.33c-.093.155.106.534 0 .666-.04.055-.585 0-.674 0h-4.652c-.094 0-.593.065-.667 0-.108-.102.097-.538 0-.666h-1.991c-.098-.127.11-.55 0-.665-.112-.113-.556.114-.66 0-.118-.113.104-.554 0-.66-.118-.118-.545.094-.672 0-.13-.1-.545.116-.665 0-.114-.118.108-.555 0-.667-.114-.107-.558.112-.658 0-.117-.107.092-.546 0-.668-.11-.115.112-.55 0-.664-.117-.11-.56.115-.673 0-.113-.11.114-.553 0-.668-.113-.112-.534.092-.67 0v-3.987c-.133-.098-.552.11-.66 0-.084-.08.03-.556 0-.67-.044-.186 0-.465 0-.664V83.833c-.15-.086-.536.11-.665 0-.064-.04 0-.582 0-.664 0-.21.024-.453 0-.665-.034-.215 0-.45 0-.67v-.657c0-.224.006-.45 0-.67-.01-.215 0-.445 0-.664v-3.326c0-.222.01-.452 0-.664 0-.03-.627.033-.662 0-.055-.045 0-.59 0-.67 0-.208.027-.452 0-.664-.04-.207 0-.45 0-.658v-1.34c0-.215.002-.442 0-.664-.017-.22 0-.442 0-.67v-.66c0-.22.002-.45 0-.67-.017-.222 0-.44 0-.664 0-.192.04-.474 0-.666-.04-.114.072-.576 0-.66-.125-.108-.54.087-.668 0v-7.317c-.132-.1-.56.105-.67 0-.086-.09.04-.55 0-.663-.046-.177 0-.49 0-.67v-.67c0-.22.006-.433 0-.663-.014-.22 0-.443 0-.66v-2.004c0-.213.02-.443 0-.665-.016-.22 0-.44 0-.665 0-.21.04-.462 0-.66-.024-.153.084-.545 0-.674-.07-.104-.57.096-.664 0-.07-.064.015-.553 0-.66-.023-.212 0-.45 0-.666V45.25c0-.2.047-.48 0-.67-.003-.054-.614.056-.66 0-.094-.096.046-.53 0-.667-.07-.156 0-.483 0-.665 0-.09.064-.6 0-.664-.118-.098-.545.096-.675 0 .11.076-.076.57 0 .665v1.334c-.004.218.014.44 0 .667-.004.092.07.606 0 .66-.048.058-.642-.054-.657 0-.057.19 0 .475 0 .672V49.242c-.152.08-.536-.11-.673 0-.053.04 0 .578 0 .66 0 .184.052.484 0 .66-.048.195.012.467 0 .67 0 .1.07.602 0 .667-.102.107-.53-.09-.658 0v2.658c0 .168.057.522 0 .666-.04.093-.594-.072-.674 0-.102.108.102.53 0 .67v2.657c-.13.088-.55-.11-.663 0-.087.086.037.544 0 .67-.045.174 0 .478 0 .67v1.322c-.15.084-.53-.113-.67 0-.048.042 0 .586 0 .668 0 .214.034.454 0 .66-.016.218 0 .454 0 .666v1.342c-.15.077-.52-.12-.662 0-.045.035 0 .584 0 .656 0 .194.055.484 0 .67-.045.193.02.464 0 .66 0 .1.068.602 0 .67-.114.114-.523-.085-.66 0V69.86c0 .18.062.506 0 .67-.023.07-.604-.057-.666 0-.053.045 0 .59 0 .66v2.673c-.15.074-.536-.11-.67 0-.05.036 0 .582 0 .657 0 .192.056.484 0 .663-.046.195.02.472 0 .67-.01.098.07.602 0 .665-.108.11-.525-.095-.66 0V79.176c0 .157.065.523 0 .668-.037.085-.595-.067-.665 0-.107.11.09.53 0 .663v2.664c-.135.09-.554-.104-.66 0-.09.088.034.542 0 .666-.056.175 0 .48 0 .664v1.33c-.138.09-.565-.11-.672 0-.08.086.025.552 0 .667-.047.192 0 .474 0 .668V89.154c-.154.09-.533-.11-.666 0-.044.05 0 .586 0 .67v1.332c0 .172.06.486 0 .668-.025.065-.6-.06-.665 0-.06.045 0 .58 0 .658v2.003c-.08.132.113.546 0 .658-.074.072-.627-.075-.662 0-.068.152 0 .5 0 .668V97.81c0 .173.052.5 0 .662-.025.07-.606-.05-.666 0-.057.052 0 .586 0 .665v.666H132.523v-.666c0-.177-.057-.496 0-.665.023-.068.6.06.66 0 .056-.038 0-.59 0-.66v-.667c.013-.22-.01-.444 0-.668.013-.093-.06-.6 0-.664.118-.11.542.09.667 0V93.815c.093-.134-.104-.555 0-.66.073-.07.632.08.67 0 .066-.152 0-.506 0-.67v-1.327c0-.175-.058-.497 0-.67.02-.063.595.05.662 0 .053-.04 0-.577 0-.664v-2.66c.132-.092.554.11.67 0 .078-.082-.03-.546 0-.668.043-.184 0-.464 0-.668v-.665c.078-.162-.11-.51 0-.665.068-.1.572.097.662 0 .077-.073-.023-.55 0-.664.042-.194 0-.466 0-.665v-1.334c.13-.084.553.11.663 0 .092-.082-.03-.54 0-.658.055-.177 0-.48 0-.67v-.664c0-.192-.04-.476 0-.668.02-.05.62.045.67 0 .05-.04 0-.584 0-.664 0-.184-.05-.48 0-.658.05-.2-.01-.47 0-.67.008-.103-.056-.6 0-.666.108-.108.535.084.662 0v-1.334c.01-.223 0-.444 0-.664.01-.092-.06-.6 0-.658.114-.11.527.085.667 0v-2.67c.145-.09.53.11.663 0 .053-.038 0-.587 0-.662v-2.66c.135-.09.56.11.664 0 .092-.085-.023-.55 0-.666.052-.187 0-.47 0-.67v-.66c.092-.16-.1-.516 0-.67.077-.107.578.097.67 0 .08-.072-.027-.54 0-.656.045-.194 0-.47 0-.668v-1.34c.133-.084.554.115.66 0 .084-.08-.02-.545 0-.66.056-.192 0-.47 0-.668 0-.19-.046-.482 0-.66.03-.128-.076-.582 0-.662.074-.077.635.08.665 0 .063-.155 0-.51 0-.67v-.67c.016-.22-.006-.433 0-.663.006-.1-.054-.603 0-.66.113-.118.532.082.672 0v-.674c0-.212-.015-.443 0-.66.017-.22-.015-.447 0-.67 0-.103-.067-.592 0-.665.105-.107.534.095.66 0V51.9c.158-.087.534.107.672 0 .047-.052 0-.583 0-.666V48.57c.127-.09.556.113.665 0 .077-.08-.038-.545 0-.667.042-.182 0-.464 0-.66v-.664c.077-.176-.11-.512 0-.672.064-.105.565.092.658 0 .082-.077-.023-.554 0-.66.047-.193 0-.465 0-.67v-1.333c.157-.082.533.112.665 0 .055-.043 0-.584 0-.664 0-.188-.042-.475 0-.662.05-.194-.007-.46 0-.66.008-.103-.057-.607 0-.67.055-.05.656.063.666 0 .047-.188 0-.47 0-.675v-.656c0-.204-.033-.456 0-.665.02-.11-.07-.586 0-.67.077-.066.625.09.66 0 .067-.14 0-.5 0-.667V36.6c.01-.228-.002-.442 0-.672.01-.092-.06-.598 0-.658.115-.11.536.082.678 0v-.676c0-.21-.02-.44 0-.653 0-.226-.02-.448 0-.67 0-.1-.072-.6 0-.666.108-.117.532.09.66 0V29.95c.156-.1.53.103.664 0 .053-.05 0-.597 0-.672v-2.665c.148-.087.532.11.664 0 .06-.04 0-.578 0-.66 0-.19-.045-.487 0-.664.06-.19-.008-.464 0-.668.007-.102-.06-.606 0-.66.112-.113.528.08.663 0v-2.667c.154-.09.535.107.672 0 .05-.042 0-.588 0-.668 0-.162-.064-.504 0-.666.058-.165-.102-.512 0-.66.07-.11.566.09.666 0 .105-.116-.1-.535 0-.665.005-.224-.017-.44 0-.668.003-.103-.067-.6 0-.666.105-.11.53.093.656 0v-1.328c0-.197-.04-.474 0-.664.02-.06.626.045.668 0 .09-.087-.032-.556 0-.673.053-.19 0-.46 0-.66v-.664c.147-.09.54.103.666 0 .05-.044 0-.59 0-.665 0-.134-.062-.55 0-.666.057-.103.58.087.668 0 .11-.11-.09-.534 0-.666.095-.132-.112-.55 0-.67.095-.09.6.11.664 0 .087-.128-.107-.552 0-.664.077-.08.61.094.673 0 .062-.13-.01-.512 0-.66 0-.1-.072-.61 0-.672.09-.092.58.115.653 0 .098-.125-.107-.55 0-.66.088-.083.62.1.666 0 .072-.136 0-.517 0-.667.008-.1-.055-.602 0-.67.102-.097.586.115.668 0 .098-.127-.102-.548 0-.658.105-.11.574.11.666 0 .112-.137-.092-.526 0-.673.075-.1.57.096.664 0 .107-.1-.103-.562 0-.662.08-.062.56 0 .668 0 .162 0 .516.065.668 0 .08-.032-.072-.59 0-.668.105-.102.534.082.666 0 .102-.058-.09-.57 0-.66.105-.11.53.09.666 0 .154-.106.51.1.66 0 .108-.068-.094-.57 0-.667.108-.1.534.068.666 0 .133-.065.556.102.666 0 .085-.077-.11-.62 0-.668.125-.067.514.01.67 0 .098 0 .6.062.662 0 .07-.067-.087-.628 0-.66.15-.07.504 0 .666 0 .207 0 .458.04.658 0 .157-.036.54.08.67 0 .108-.07-.087-.582 0-.674.118-.106.534.093.667 0h1.32c.23-.004.453.018.672 0 .095 0 .61.076.663 0 .115-.106-.082-.528 0-.66M330.806 1.994V5.317c0 .197.048.487 0 .674-.027.06-.623-.06-.67 0-.073.06 0 .566 0 .66-.008.225.01.447 0 .67V9.32c0 .155.054.51 0 .66-.033.086-.596-.07-.67 0-.074.08.02.555 0 .665-.036.212 0 .456 0 .668v2.661c-.133.084-.552-.11-.66 0-.064.06 0 .572 0 .66-.01.23.003.45 0 .673v3.327c-.132.082-.546-.113-.668 0-.067.054.005.563 0 .665-.01.217.013.452 0 .66-.01.22 0 .443 0 .664v1.335c0 .078.048.622 0 .66-.14.117-.516-.078-.668 0v3.33c0 .195.055.482 0 .662-.015.07-.61-.05-.668 0-.058.07.01.57 0 .67-.008.22.012.442 0 .67v1.995H312.17c-.09.126.106.545 0 .66-.06.064-.567-.005-.662 0-.224.014-.45-.013-.666 0-.222.014-.444 0-.67 0-.213 0-.45.027-.66 0-.223-.028-.458.02-.665 0-.087.137.108.55 0 .668-.072.062-.573-.003-.67 0-.215.012-.454.017-.67 0-.218-.015-.445.012-.66 0-.092.134.113.553 0 .658-.064.067-.568 0-.663 0-.167.02-.526-.06-.673 0-.08.045.083.596 0 .67-.057.066-.568-.004-.658 0-.22.008-.443-.01-.67 0-.083.138.112.562 0 .667-.113.107-.524-.088-.66 0-.133.087-.56-.105-.672 0-.087.095.112.596 0 .67-.152.098-.494-.094-.663 0-.085.133.112.55 0 .654-.058.07-.56 0-.66 0-.223.012-.447 0-.674 0-.08.132.122.566 0 .676-.103.104-.544-.11-.66 0-.113.104.116.546 0 .658-.103.105-.57-.112-.667 0-.102.125.117.55 0 .67-.09.09-.593-.11-.658 0-.107.153.08.502 0 .66-.135.096-.56-.106-.67 0-.096.1.104.595 0 .667-.148.098-.535-.107-.672 0-.107.098.11.556 0 .666-.1.106-.558-.11-.653 0-.107.12.107.552 0 .667-.1.095-.606-.105-.673 0-.105.155.097.506 0 .658-.088.132.12.564 0 .676-.105.11-.532-.086-.664 0-.09.133.11.557 0 .667-.097.095-.6-.11-.668 0-.1.15.097.51 0 .66-.065.105-.574-.087-.663 0-.063.068.012.57 0 .664-.013.228.017.445 0 .664-.155.093-.542-.114-.664 0-.05.053 0 .59 0 .67v.664c-.13.088-.555-.11-.67 0-.064.063.008.57 0 .67-.007.173.068.495 0 .66-.044.132.093.573 0 .67-.114.11-.53-.092-.658 0v.666c0 .16.065.514 0 .66-.032.088-.593-.07-.668 0-.075.083.017.557 0 .667-.042.208 0 .457 0 .672v1.324c-.127.09-.554-.11-.666 0-.08.082.033.553 0 .67-.04.192 0 .477 0 .664v4.652c0 .08-.045.627 0 .674.06.05.638-.062.666 0 .052.157 0 .48 0 .664v2c.135.082.556-.115.668 0 .065.057-.01.558 0 .663.003.152-.07.53 0 .658.045.103.58-.074.66 0 .106.103-.066.535 0 .67.066.132-.09.568 0 .66.066.075.63-.077.67 0 .062.152 0 .506 0 .666 0 .14-.073.564 0 .673.062.097.57-.096.663 0 .09.09-.1.59 0 .668.08.042.63-.08.663 0 .067.132 0 .5 0 .655 0 .123-.065.586 0 .67.077.108.57-.1.668 0 .11.11-.114.555 0 .66.11.114.56-.105.664 0 .104.114-.105.563 0 .67.12.108.558-.12.673 0 .092.095-.115.594 0 .666.15.1.496-.103.653 0 .142.09.56-.106.67 0 .113.11-.094.53 0 .662.133.088.557-.11.672 0 .092.095-.107.596 0 .664.147.104.5-.085.658 0 .14.075.564-.103.668 0 .093.097-.104.596 0 .663.147.1.497-.073.66 0 .133.07.567-.093.672 0 .09.1-.107.602 0 .67.145.1.49-.065.66 0 .158.062.507 0 .664 0 .077 0 .626-.058.673 0 .11.137-.094.51 0 .66h1.33c.19 0 .486-.047.658 0 .128.043.582-.077.674 0 .105.11-.092.537 0 .67H320.157c-.087.13.105.555 0 .662-.075.07-.636-.08-.663 0-.065.152 0 .5 0 .666v1.996c0 .21.04.474 0 .67-.033.11.072.587 0 .664-.098.095-.606-.1-.666 0-.107.157.08.5 0 .666v2.66c0 .183.052.487 0 .664-.038.122.082.583 0 .67-.11.113-.534-.087-.67 0V84.5c0 .166.064.515 0 .668-.038.082-.587-.075-.67 0-.07.074.028.55 0 .66-.024.212 0 .462 0 .67v2c0 .07.058.614 0 .66-.136.11-.51-.083-.665 0v3.326c0 .192.062.486 0 .67-.035.12.087.58 0 .66-.112.12-.526-.08-.66 0v2.665c0 .19.047.48 0 .664-.028.115.08.586 0 .666-.113.108-.53-.087-.664 0v1.995H294.206c-.093-.134.107-.558 0-.668-.08-.082-.546.035-.664 0-.19-.045-.475 0-.67 0-.2 0-.453.035-.658 0-.21-.03-.46 0-.668 0-.197 0-.47.047-.666 0-.117-.03-.58.087-.666 0-.107-.105.085-.53 0-.666h-1.987c-.202 0-.49.056-.673 0-.125-.026-.59.083-.67 0-.108-.11.09-.53 0-.66h-.655c-.197 0-.483.043-.67 0-.123-.032-.59.078-.67 0-.108-.117.094-.533 0-.666h-.664c-.197 0-.474.04-.66 0-.123-.034-.587.08-.672 0-.106-.107.09-.533 0-.665h-.66c-.082 0-.62.05-.663 0-.112-.14.082-.52 0-.667h-.673c-.195 0-.47.045-.664 0-.11-.028-.58.08-.658 0-.115-.107.082-.53 0-.668-.145-.085-.56.114-.666 0-.075-.065.082-.626 0-.66-.152-.064-.51 0-.67 0-.155 0-.522.06-.66 0-.09-.04.068-.595 0-.67-.066-.062-.575.013-.67 0-.137-.007-.556.075-.67 0-.095-.062.1-.576 0-.66-.088-.095-.587.104-.66 0-.07-.108.1-.59 0-.67-.09-.063-.553 0-.665 0-.08 0-.622.05-.67 0-.104-.136.093-.512 0-.66-.117-.094-.55.103-.663 0-.09-.1.112-.6 0-.668-.13-.097-.556.11-.668 0-.108-.114.11-.558 0-.668-.086-.09-.587.1-.654 0-.09-.128.104-.557 0-.667-.125-.105-.56.115-.674 0-.087-.095.105-.598 0-.666-.14-.092-.536.11-.663 0-.123-.092.104-.56 0-.658-.11-.116-.555.106-.672 0-.102-.116.117-.567 0-.672-.087-.095-.588.105-.66 0-.103-.15.107-.536 0-.663-.1-.112-.564.1-.67 0-.104-.112.118-.554 0-.668-.104-.11-.558.114-.66 0-.085-.088.1-.596 0-.67-.154-.088-.536.12-.673 0-.107-.083.105-.557 0-.66-.092-.102-.57.108-.656 0-.073-.087 0-.553 0-.668 0-.073.046-.62 0-.664-.1-.082-.602.1-.674 0-.077-.13.117-.556 0-.666-.09-.095-.59.107-.658 0-.108-.155.087-.49 0-.666-.078-.132.102-.558 0-.668-.098-.085-.596.11-.67 0-.1-.145.093-.49 0-.658-.07-.14.113-.556 0-.67-.09-.088-.585.114-.665 0-.107-.146.085-.49 0-.664-.124-.085-.548.11-.665 0-.083-.078.032-.547 0-.67-.04-.176 0-.468 0-.662v-.658c-.133-.098-.556.107-.664 0-.112-.12.093-.536 0-.67-.084-.133.108-.555 0-.667-.067-.057-.65.067-.66 0-.068-.18 0-.484 0-.663V74.52c-.145-.08-.562.12-.67 0-.08-.075.03-.54 0-.66-.05-.188 0-.472 0-.672v-.666c-.14-.085-.555.112-.667 0-.08-.08.032-.538 0-.66-.043-.195 0-.477 0-.67v-.662c-.09-.13.112-.56 0-.67-.115-.103-.53.09-.666 0V67.2c0-.192.046-.474 0-.67-.024-.115.078-.58 0-.66-.106-.11-.538.088-.66 0V52.56c0-.072-.05-.618 0-.658.122-.11.51.095.66 0v-2.658c.09-.138-.106-.56 0-.67.11-.11.532.09.667 0V46.577c.092-.137-.115-.55 0-.67.067-.068.628.09.666 0 .07-.148 0-.502 0-.66 0-.193-.05-.485 0-.67.055-.177 0-.476 0-.665 0-.08-.05-.616 0-.67.132-.113.51.094.67 0v-.662c0-.193-.05-.475 0-.662.028-.117-.087-.586 0-.66.068-.078.63.08.66 0 .056-.143 0-.52 0-.667 0-.076-.05-.622 0-.675.138-.1.51.095.665 0v-.658c0-.195-.04-.476 0-.666.032-.116-.083-.577 0-.665.117-.107.54.09.665 0v-.668c0-.155-.062-.51 0-.658.035-.09.596.07.666 0 .1-.098-.06-.54 0-.672.057-.13-.1-.57 0-.658.072-.075.625.08.668 0 .067-.152 0-.51 0-.676v-.653c.132-.097.55.108.658 0 .117-.117-.09-.533 0-.67.1-.132-.107-.554 0-.666.092-.085.616.102.673 0 .06-.12 0-.526 0-.67 0-.076-.058-.614 0-.66.13-.11.515.083.655 0v-.667c0-.083-.047-.62 0-.66.132-.104.57.108.673 0 .102-.123-.107-.555 0-.67.102-.112.53.09.66 0v-1.324c.13-.094.555.105.67 0 .107-.12-.093-.536 0-.67.09-.128-.115-.557 0-.67.107-.106.528.093.66 0 .1-.133-.102-.557 0-.662.117-.106.56.106.67 0 .11-.106-.11-.553 0-.662.11-.115.532.087.664 0v-.67c0-.16-.057-.512 0-.657.038-.09.59.066.674 0 .104-.116-.113-.555 0-.675.104-.107.546.112.653 0 .096-.092-.103-.59 0-.666.163-.1.495.092.667 0v-.66c0-.08-.047-.622 0-.667.135-.11.514.082.663 0 .078-.165-.097-.51 0-.67.078-.106.577.106.67 0 .09-.086-.1-.592 0-.662.146-.094.535.113.667 0 .11-.09-.105-.562 0-.66.1-.114.53.085.658 0 .1-.137-.112-.558 0-.665.103-.095.604.107.67 0 .096-.15-.11-.54 0-.67.096-.108.562.106.672 0 .105-.108-.122-.547 0-.662.105-.115.546.115.658 0 .095-.09-.107-.6 0-.673.142-.09.54.12.67 0 .106-.09-.106-.556 0-.66.106-.113.522.09.667 0 .082-.13-.115-.56 0-.662.057-.067.566 0 .658 0 .22-.015.44 0 .664 0 .092-.137-.108-.56 0-.673.117-.105.56.114.673 0 .115-.105-.112-.55 0-.66.105-.108.56.11.663 0 .11-.118-.11-.557 0-.664.09-.094.59.105.66 0 .076-.114-.1-.59 0-.665.086-.068.557 0 .674 0 .162 0 .51.052.66 0 .086-.038-.07-.6 0-.666.103-.103.525.08.662 0 .102-.056-.08-.585 0-.667.062-.07.568.003.67 0 .22-.01.442.003.67 0 .084-.132-.116-.55 0-.668.104-.11.548.117.657 0 .112-.11-.11-.55 0-.666.112-.108.534.08.67 0 .13-.08.557.114.672 0 .087-.088-.112-.592 0-.66.144-.1.486.076.658 0 .085-.13-.112-.558 0-.673.112-.107.54.095.668 0 .13-.08.555.115.662 0 .085-.077-.092-.613 0-.66.125-.07.524 0 .666 0 .165 0 .514.06.666 0 .087-.038-.075-.594 0-.666.097-.1.54.056.668 0 .127-.06.57.098.66 0 .066-.074-.08-.625 0-.667.153-.06.502 0 .67 0 .17 0 .503.057.663 0 .13-.048.58.094.663 0 .067-.07-.08-.63 0-.66.15-.066.51 0 .668 0h.664c.094-.138-.105-.56 0-.675.082-.08.548.035.673 0 .182-.047.466 0 .653 0 .192 0 .494.06.67 0 .068-.014-.056-.608 0-.66.088-.08.547.027.672 0 .187-.048.47 0 .658 0h.668c.085-.133-.114-.556 0-.67.063-.056.56.014.66 0 .226-.004.45.014.672 0h1.324c.087-.128-.107-.55 0-.66.072-.06.566 0 .673 0 .202-.007.474.053.66 0 .188-.052.472 0 .67 0 .067 0 .615.053.658 0 .113-.137-.08-.51 0-.663H310.172c.096-.137-.108-.556 0-.67.086-.075.56.022.672 0 .2-.033.46 0 .666 0h19.299zM400 1.994V7.32h-.67V11.315c-.148.087-.524-.112-.654 0-.06.043 0 .59 0 .666 0 .21.025.455 0 .665-.035.207 0 .45 0 .666V15.31c-.16.085-.54-.11-.668 0-.06.042 0 .584 0 .663 0 .216.027.458 0 .66-.035.212 0 .453 0 .673V19.3c-.093.128.114.546 0 .66-.07.07-.64-.08-.66 0-.066.148 0 .507 0 .664v2.66c-.09.14.106.564 0 .676-.08.066-.63-.09-.677 0-.054.146 0 .497 0 .66V26.612c0 .214.048.466 0 .67-.014.105.076.59 0 .67-.056.07-.62-.088-.662 0-.07.143 0 .498 0 .665v.66H374.06c-.22 0-.453-.027-.675 0-.207.02-.45 0-.66 0-.16 0-.52-.06-.666 0-.084.038.064.594 0 .67-.12.108-.532-.096-.675 0-.214.006-.438-.02-.655 0-.103 0-.606-.066-.674 0-.084.088.115.587 0 .66-.124.084-.548-.115-.656 0-.117.117.108.55 0 .668-.117.107-.558-.117-.67 0-.113.107.094.528 0 .658-.132.097-.56-.105-.664 0-.067.067 0 .58 0 .67v1.338c.13.08.55-.117.664 0 .112.108-.088.53 0 .654.094.132-.113.566 0 .676.11.097.576-.11.67 0 .1.13-.117.546 0 .658.105.105.567-.112.656 0 .115.132-.09.52 0 .67.073.108.574-.096.674 0 .11.113-.118.554 0 .66.104.116.548-.106.655 0 .113.104-.107.58 0 .667.128.12.53-.094.674 0 .116.07-.09.576 0 .666.116.116.54-.1.664 0 .105.096-.102.562 0 .667.105.115.55-.105.66 0 .12.11-.096.54 0 .658.05.058.592 0 .675 0h.66c.087.132-.115.564 0 .676.112.098.57-.116.663 0 .104.133-.093.515 0 .667.077.1.573-.097.666 0 .106.1-.114.56 0 .66.116.115.53-.087.667 0 .105.08-.105.57 0 .664.11.116.528-.084.67 0 .093.07-.082.575 0 .664.036.055.58 0 .654 0h.664c.088.172-.09.522 0 .67.078.108.574-.096.674 0 .112.108-.11.545 0 .664.097.12.553-.11.66 0 .11.12-.112.554 0 .67.11.108.56-.116.67 0 .113.108-.11.547 0 .66.113.12.532-.085.657 0 .12.072-.087.573 0 .67.12.113.55-.11.673 0 .11.103-.112.554 0 .666.105.107.55-.112.666 0 .102.107-.115.554 0 .66.102.116.536-.086.663 0 .078.17-.104.512 0 .667.073.108.58-.09.66 0 .126.113-.096.547 0 .672.113.104.57-.11.674 0 .11.104-.12.553 0 .66.11.115.555-.107.665 0 .107.115-.11.554 0 .664.107.114.53-.08.676 0 .1.07-.107.578 0 .67.1.105.537-.11.656 0 .105.098-.104.554 0 .664.105.11.556-.117.666 0 .112.11-.11.556 0 .658.112.115.526-.082.668 0v.673c0 .16-.072.523 0 .662.033.075.584-.05.666 0 .105.073-.102.57 0 .668.095.095.594-.107.66 0 .068.098 0 .537 0 .666 0 .152-.06.526 0 .666.03.08.585-.05.66 0 .114.07-.08.58 0 .66.117.116.536-.08.673 0v.674c0 .157-.07.514 0 .664.034.082.59-.073.662 0 .085.09-.042.536 0 .66.067.172-.01.494 0 .67.005.098-.057.602 0 .67.12.102.526-.095.668 0v.663c0 .174-.057.496 0 .658.018.068.6-.046.654 0 .067.046 0 .587 0 .67v.66c.017.23 0 .45 0 .666.015.102-.055.608 0 .673.117.104.543-.096.673 0v9.981c-.147.076-.53-.108-.673 0-.043.04 0 .585 0 .66v.663c0 .23.027.45 0 .67 0 .098.072.602 0 .664-.105.112-.52-.092-.654 0v2.658c-.142.088-.548-.107-.668 0-.107.112.085.54 0 .67-.092.126.12.547 0 .662-.077.08-.616-.087-.663 0-.07.135 0 .514 0 .67 0 .178.06.494 0 .66-.016.066-.602-.046-.675 0-.044.044 0 .587 0 .667 0 .132.073.556 0 .666-.047.097-.573-.085-.66 0-.11.11.094.536 0 .666-.093.137.107.55 0 .663-.105.096-.584-.113-.66 0-.106.13.114.558 0 .668-.11.102-.58-.11-.665 0-.112.132.1.52 0 .66-.08.118-.578-.084-.668 0-.11.118.082.536 0 .67-.152.08-.538-.11-.666 0-.052.046 0 .587 0 .667 0 .117.058.568 0 .663-.077.105-.578-.1-.655 0-.12.105.1.556 0 .67-.12.108-.568-.114-.675 0-.11.108.107.55 0 .66-.115.11-.53-.093-.664 0-.103.067.1.57 0 .665-.103.11-.535-.082-.674 0-.155.095-.507-.095-.66 0-.103.065.09.576 0 .666-.108.11-.53-.09-.662 0-.102.07.072.56 0 .667-.062.105-.573-.097-.666 0-.09.1.105.584 0 .67-.09.063-.543-.01-.673 0-.1 0-.596-.066-.656 0-.113.1.09.522 0 .657-.138.09-.562-.112-.672 0-.077.082.103.61 0 .67-.124.068-.516-.017-.66 0-.108 0-.61-.062-.674 0-.082.085.102.6 0 .66-.144.1-.498-.103-.663 0-.1.076.1.578 0 .672-.1.1-.538-.075-.652 0-.172.085-.514-.11-.67 0-.11.073.09.57 0 .66-.108.098-.535-.06-.67 0-.174.083-.508-.1-.665 0-.108.07.1.58 0 .667-.093.097-.534-.05-.664 0-.165.062-.49-.01-.66 0-.11.007-.607-.065-.675 0-.11.115.088.526 0 .666h-1.326c-.14.086-.562-.114-.675 0-.052.066.09.622 0 .664-.137.065-.496 0-.655 0h-.674c-.124.085-.548-.107-.656 0-.117.113.083.534 0 .666h-.67c-.222 0-.45-.01-.664 0-.224.01-.446-.01-.658 0-.11.003-.616-.062-.67 0-.113.108.084.53 0 .66H365.4c-.22.01-.44-.006-.66 0-.095.004-.61-.06-.668 0-.11.116.094.54 0 .667H361.4c-.206 0-.438-.023-.662 0-.22.035-.437-.005-.664 0-.09.012-.596-.062-.666 0-.11.11.093.534 0 .668h-35.934c.06-.204-.054-.46 0-.668.06-.185-.002-.47 0-.666.01-.094-.07-.59 0-.66.06-.057.647.063.674 0 .04-.19 0-.47 0-.666v-3.33c.155-.082.526.118.656 0 .062-.04 0-.583 0-.66V90.49c.02-.22-.002-.437 0-.667.01-.095-.055-.598 0-.666.12-.11.544.088.676 0v-3.331c0-.19-.048-.462 0-.66.012-.057.608.05.663 0 .073-.077-.03-.548 0-.668.043-.185 0-.467 0-.664v-2c0-.187-.055-.48 0-.658.02-.06.604.045.66 0 .058-.05 0-.59 0-.67V76.516c.138-.092.56.112.667 0 .085-.077-.028-.544 0-.663.047-.19 0-.472 0-.67V73.86c0-.21-.028-.47 0-.672.032-.152-.077-.54 0-.666.077-.097.578.095.668 0 .12-.107-.09-.53 0-.66h23.95c.214 0 .458.017.668 0 .212-.023.446 0 .663 0 .16 0 .517.06.67 0 .084-.03-.073-.594 0-.67.097-.09.536.056.663 0 .162-.06.49.014.67 0 .088-.01.594.06.66 0 .094-.09-.103-.592 0-.662.134-.087.548.115.667 0 .115-.11-.12-.56 0-.67.115-.103.56.11.67 0 .106-.103-.1-.535 0-.664.148-.085.527.112.662 0 .052-.04 0-.584 0-.664 0-.222-.013-.44 0-.663.012-.215 0-.447 0-.667v-2c0-.18.052-.486 0-.655-.018-.07-.61.052-.66 0-.113-.118.09-.537 0-.67-.103-.13.104-.557 0-.672-.113-.102-.54.097-.672 0-.085-.165.105-.5 0-.666-.072-.1-.573.1-.666 0-.104-.105.108-.553 0-.66-.104-.108-.53.09-.66 0-.118-.068.082-.574 0-.67-.118-.11-.56.118-.67 0-.113-.11.1-.525 0-.657-.07-.11-.567.092-.665 0-.123-.112.102-.556 0-.664-.105-.123-.557.102-.67 0-.114-.115.113-.562 0-.67-.114-.114-.552.108-.662 0-.115-.114.11-.555 0-.67-.115-.11-.53.088-.668 0-.11-.067.104-.57 0-.66-.11-.113-.55.104-.664 0-.11-.113.085-.532 0-.664-.072-.11-.57.087-.668 0-.107-.112.115-.558 0-.673-.115-.097-.526.095-.66 0-.113-.067.086-.57 0-.66-.118-.116-.547.106-.672 0-.11-.1.11-.56 0-.667-.11-.114-.553.108-.663 0-.105-.114.11-.556 0-.666-.105-.107-.526.095-.666 0-.085-.172.105-.51 0-.668-.072-.102-.563.1-.656 0-.12-.102.104-.538 0-.66-.106-.113-.567.11-.674 0-.11-.108.11-.56 0-.674-.11-.102-.556.115-.664 0-.11-.102.108-.54 0-.658-.102-.117-.553.11-.663 0-.113-.117.11-.56 0-.664-.113-.11-.55.105-.67 0-.102-.112.108-.548 0-.67-.087-.11-.563.107-.665 0-.115-.11.095-.53 0-.664-.082-.13.112-.556 0-.66-.115-.12-.526.082-.658 0-.093-.175.094-.517 0-.67-.073-.11-.576.09-.67 0-.113-.11.11-.552 0-.667-.113-.107-.532.097-.674 0-.103-.07.107-.57 0-.66-.103-.113-.56.116-.654 0-.118-.136.084-.532 0-.667-.083-.11-.584.09-.667 0-.12-.12.083-.528 0-.67-.067-.095-.578.08-.67 0-.048-.038 0-.58 0-.66 0-.116.06-.585 0-.67-.078-.094-.552.075-.666 0-.107-.064.097-.566 0-.665-.107-.11-.55.11-.66 0-.118-.11.08-.53 0-.67-.07-.1-.58.1-.67 0-.11-.113.085-.52 0-.662-.097-.15.105-.51 0-.662-.074-.108-.57.094-.665 0-.105-.093.075-.53 0-.66-.07-.138.105-.57 0-.667-.07-.076-.63.08-.663 0-.066-.146 0-.508 0-.675v-.658c-.14-.085-.558.115-.667 0-.11-.11.087-.54 0-.666-.085-.126.11-.545 0-.665-.11-.107-.53.09-.66 0V35.27c-.156-.093-.545.104-.677 0-.045-.043 0-.59 0-.676v-5.976c.15-.09.54.104.678 0 .053-.053 0-.59 0-.664 0-.212-.047-.473 0-.67.025-.2 0-.46 0-.67 0-.193-.054-.478 0-.662.018-.12-.09-.59 0-.662.103-.115.532.087.66 0V23.96c.01-.226-.014-.445 0-.675 0-.092-.06-.6 0-.666.046-.055.647.064.665 0 .053-.183 0-.47 0-.66v-1.336c.13-.087.552.113.662 0 .105-.107-.082-.53 0-.663.097-.156-.105-.51 0-.66.075-.11.573.09.666 0 .107-.114-.085-.533 0-.665.082-.168-.098-.512 0-.67.065-.108.573.094.668 0 .102-.1-.07-.525 0-.662.07-.14-.107-.566 0-.673.07-.068.626.09.66 0 .066-.135 0-.502 0-.66 0-.12-.07-.57 0-.662.07-.11.577.085.667 0 .11-.11-.108-.56 0-.673.11-.105.55.114.67 0 .11-.105-.092-.524 0-.66.13-.088.554.11.666 0 .104-.11-.088-.532 0-.664.094-.156-.113-.51 0-.665.074-.115.57.09.653 0 .12-.117-.095-.546 0-.666.092-.103.558.08.675 0 .108-.066-.097-.575 0-.667.11-.115.56.107.67 0 .103-.115-.096-.536 0-.668.073-.102.575.097.657 0 .112-.11-.082-.53 0-.666.224-.008.45.012.666 0 .103 0 .61.064.67 0 .11-.108-.093-.527 0-.66.13-.1.553.11.662 0 .068-.07-.084-.628 0-.673.147-.062.507 0 .664 0 .127 0 .568.073.675 0 .104-.064-.103-.566 0-.66.11-.118.55.11.657 0 .107-.118-.107-.556 0-.666.105-.106.534.066.666 0 .165-.084.51.1.663 0 .11-.074-.094-.563 0-.667.098-.095.544.057.67 0 .163-.06.49.01.662 0 .097 0 .596.067.668 0 .115-.113-.094-.532 0-.66h1.332c.082-.153-.107-.532 0-.675.037-.047.586 0 .663 0 .16 0 .522.068.67 0 .087-.04-.073-.593 0-.66.084-.08.543.027.663 0 .197-.048.47 0 .67 0h.66c.086-.133-.103-.556 0-.67.086-.076.548.03.667 0 .18-.04.464 0 .67 0h.662c.09-.128-.11-.55 0-.66.112-.11.53.093.668 0h1.324c.145-.094.55.11.664 0 .112-.11-.08-.533 0-.663h1.34c.212 0 .44.005.66 0 .225-.012.437 0 .66 0 .208 0 .488.045.675 0 .12-.035.583.08.668 0 .105-.114-.09-.53 0-.67H400z" fill="#3f4388" fill-rule="evenodd"/><path d="M54.016 34.593v1.334c-.14.09-.566-.11-.673 0-.062.07.01.574 0 .673-.012.195.057.472 0 .656-.052.195 0 .484 0 .67 0 .078.057.622 0 .667-.127.11-.51-.087-.66 0v1.997c-.133.085-.564-.112-.67 0-.066.063.006.564 0 .666-.02.215.013.444 0 .663-.02.226 0 .45 0 .663v.66c-.134.093-.555-.114-.662 0-.064.073.006.577 0 .67-.01.178.06.503 0 .665-.052.127.09.573 0 .668-.114.11-.533-.095-.663 0v1.997c-.094.138.115.554 0 .66-.072.083-.633-.08-.665 0-.068.15 0 .505 0 .667 0 .194.047.486 0 .673-.055.175 0 .47 0 .66 0 .078.047.624 0 .662-.135.117-.517-.08-.666 0v.67c0 .193.045.48 0 .664-.033.116.08.585 0 .66-.112.112-.54-.085-.666 0v2c0 .164.057.518 0 .666-.035.09-.596-.075-.666 0-.112.107.087.53 0 .668v.66c0 .078.048.624 0 .67-.135.11-.51-.088-.668 0V59.22c0 .194.05.48 0 .67-.015.058-.616-.052-.663 0-.058.058.005.56 0 .666-.013.16.064.52 0 .656-.038.085-.59-.075-.67 0-.066.068.006.574 0 .67-.006.128.076.572 0 .662-.074.112-.562-.095-.665 0-.092.097.11.593 0 .666-.154.1-.496-.083-.66 0-.085.127.11.573 0 .673-.08.06-.56-.014-.67 0-.093 0-.597-.066-.662 0-.05.05.06.652 0 .667-.187.042-.48 0-.67 0h-4.657v-2.005c0-.16-.058-.514 0-.663.04-.08.603.068.665 0 .095-.096-.042-.533 0-.67.07-.162 0-.486 0-.656 0-.167-.06-.518 0-.665.04-.09.6.063.67 0 .113-.116-.086-.542 0-.672v-1.993c.126-.09.55.108.662 0 .065-.062-.01-.568 0-.67.01-.202-.05-.47 0-.66.045-.19 0-.467 0-.67 0-.074-.05-.623 0-.665.135-.108.516.087.663 0v-.67c0-.188-.042-.475 0-.657.033-.122-.082-.583 0-.673.115-.105.534.095.67 0v-1.324c0-.185-.056-.492 0-.67.03-.126-.09-.577 0-.664.106-.108.532.087.66 0V48.57c0-.162-.058-.516 0-.666.04-.082.603.082.665 0 .12-.107-.082-.523 0-.66v-1.335c.095-.133-.107-.554 0-.664.097-.095.6.105.67 0 .09-.122-.026-.51 0-.668.036-.202 0-.457 0-.666 0-.182-.05-.48 0-.668.03-.115-.084-.57 0-.66.073-.074.627.09.662 0 .067-.146 0-.505 0-.665 0-.208-.028-.46 0-.664.035-.22-.028-.45 0-.666H20.74v-1.334c.14-.085.557.117.67 0 .114-.11-.113-.55 0-.663.114-.11.55.112.668 0 .107-.11-.117-.57 0-.668.117-.105.543.12.666 0 .084-.088-.113-.59 0-.67.147-.098.49.09.663 0 .087-.118-.112-.547 0-.655.115-.117.526.088.66 0 .138-.094.56.108.664 0 .086-.084-.09-.615 0-.673.123-.06.53 0 .672 0 .085 0 .623.055.668 0 .097-.13-.087-.516 0-.658.135-.093.554.104.666 0 .11-.11-.097-.545 0-.677h27.279zM91.268 35.27V37.255c0 .078.057.63 0 .67-.132.11-.512-.09-.666 0v.667c0 .19.047.47 0 .663-.02.117.087.584 0 .66-.115.116-.53-.08-.66 0v1.34c0 .2.04.466 0 .663-.023.112.08.585 0 .663-.09.092-.594-.102-.667 0-.097.154.08.493 0 .66v.67c0 .193.043.478 0 .665-.035.12.08.586 0 .668-.114.11-.528-.095-.666 0v1.334c0 .16.064.516 0 .663-.033.078-.594-.072-.67 0-.08.078.036.544 0 .66-.04.19 0 .477 0 .667 0 .194.05.48 0 .673-.026.11.08.58 0 .66-.11.113-.527-.09-.662 0v.662c0 .202.047.48 0 .67-.025.118.082.582 0 .664-.115.11-.53-.088-.658 0v1.333c0 .182.052.48 0 .658-.048.126.077.58 0 .67-.123.11-.537-.093-.674 0v.666c0 .202.048.476 0 .668-.027.12.088.58 0 .66-.104.113-.53-.082-.668 0v2.664c-.13.092-.55-.11-.656 0-.087.08.025.548 0 .67-.057.185 0 .472 0 .666 0 .133.057.54 0 .656-.06.103-.588-.077-.673 0-.093.095.114.6 0 .67-.143.096-.527-.11-.662 0-.112.096.102.565 0 .662-.112.112-.554-.107-.663 0-.112.112.1.563 0 .666-.112.112-.56-.103-.676 0-.1.112.114.563 0 .673-.1.103-.527-.094-.657 0-.092.13.107.55 0 .667-.08.072-.548-.038-.666 0-.19.042-.47 0-.665 0H75.968c-.075 0-.62.047-.666 0-.024-.038-.024-.646 0-.666.118-.11.535.08.667 0v-.672c0-.19-.05-.474 0-.666.035-.115-.085-.584 0-.663.107-.11.53.088.665 0v-1.991c.095-.143-.112-.562 0-.672.095-.1.6.11.67 0 .086-.13-.04-.514 0-.668.04-.192 0-.457 0-.66v-1.335c.13-.083.55.112.66 0 .077-.08-.03-.54 0-.66.052-.193 0-.467 0-.67 0-.182-.06-.49 0-.665.02-.068.61.06.673 0 .075-.075-.033-.546 0-.67.045-.186 0-.462 0-.657v-.673c.082-.125-.122-.55 0-.66.095-.098.583.104.658 0 .1-.156-.077-.5 0-.664v-.67c0-.188-.047-.48 0-.664.03-.12-.077-.584 0-.66.058-.064.65.06.67 0 .056-.178 0-.478 0-.672 0-.195-.05-.47 0-.666.03-.117-.08-.583 0-.66.108-.113.537.084.664 0v-1.999c0-.077-.057-.623 0-.668.073-.055.644.062.666 0 .052-.165 0-.487 0-.666 0-.182-.055-.48 0-.668.052-.173 0-.477 0-.66 0-.156-.065-.517 0-.665.038-.09.586.067.656 0 .09-.09-.03-.547 0-.664.06-.204-.04-.466 0-.666H58.666v-1.334c.13-.085.55.117.664 0 .092-.092-.105-.59 0-.663.147-.092.533.11.663 0 .12-.092-.102-.56 0-.668.115-.108.54.092.673 0 .09-.135-.115-.55 0-.67.09-.088.59.12.656 0 .05-.07-.07-.625 0-.655.15-.07.514 0 .673 0 .112 0 .57.06.67 0 .106-.084-.11-.57 0-.673.106-.11.552.112.662 0 .106-.11-.11-.553 0-.658.106-.11.528.084.655 0h.678c.085-.14-.115-.562 0-.677.085-.077.54.047.663 0 .172-.047.477 0 .66 0H91.266c.094 0 .608-.057.663 0 .03.025.03.648 0 .676-.104.104-.525-.093-.662 0M129.196 35.27v1.33c-.09.13.112.552 0 .656-.07.078-.63-.074-.666 0-.057.15 0 .512 0 .67v1.989c-.13.097-.553-.1-.658 0-.087.094.025.556 0 .675-.055.187 0 .462 0 .666v.663c-.132.094-.564-.11-.67 0-.063.064.002.565 0 .663-.013.2.047.476 0 .66-.046.193 0 .484 0 .67 0 .086.047.62 0 .665-.136.112-.517-.083-.67 0v.668c0 .194.056.476 0 .663-.024.116.086.585 0 .67-.106.107-.525-.092-.665 0v1.324c0 .19.055.494 0 .666-.032.125.082.584 0 .673-.112.105-.53-.094-.66 0v.66c0 .196.042.477 0 .662-.033.122.08.588 0 .67-.113.105-.534-.09-.662 0v2.656c-.142.094-.56-.1-.673 0-.105.114.09.543 0 .67v.666c0 .077.05.62 0 .668-.132.105-.514-.09-.66 0v1.995c-.09.13.107.55 0 .66-.073.07-.634-.08-.664 0-.07.15 0 .51 0 .668 0 .177.055.504 0 .67-.055.12.085.567 0 .666-.07.065-.643-.092-.668 0-.068.14 0 .494 0 .656 0 .13.067.57 0 .67-.073.106-.576-.096-.664 0-.107.106.105.555 0 .662-.107.112-.556-.107-.673 0-.107.112.117.566 0 .666-.112.112-.546-.108-.66 0-.09.094.107.596 0 .673-.158.096-.502-.09-.667 0-.09.143.108.527 0 .667-.047.047-.583 0-.665 0h-5.321v-1.34c.13-.09.55.113.663 0 .087-.082-.025-.55 0-.665.052-.19 0-.47 0-.663 0-.18-.058-.498 0-.67.022-.067.6.068.663 0 .067-.06-.003-.566 0-.656.015-.226-.003-.446 0-.665v-1.34c.135-.083.563.114.666 0 .064-.063-.008-.564 0-.66.012-.226-.013-.445 0-.665.012-.224 0-.446 0-.67v-.66c.134-.093.558.104.673 0 .057-.07-.01-.572 0-.67 0-.18-.075-.5 0-.665.045-.127-.1-.56 0-.67.105-.1.526.094.666 0v-2.654c.133-.09.544.104.66 0 .08-.083-.026-.55 0-.67.046-.186 0-.467 0-.664 0-.19-.05-.487 0-.66.034-.123-.086-.587 0-.672.09-.09.6.107.66 0 .112-.155-.07-.496 0-.666v-.66c0-.165-.06-.524 0-.664.045-.085.596.067.67 0 .113-.122-.09-.53 0-.67V43.91c.135-.087.554.11.666 0 .058-.06-.007-.566 0-.668.01-.173-.062-.502 0-.66.058-.13-.094-.567 0-.665.093-.09.59.102.666 0 .085-.133-.042-.514 0-.664.053-.212-.042-.46 0-.666H96.6c-.08 0-.617.055-.674 0-.023-.027-.023-.64 0-.675.107-.1.538.097.673 0v-.66c0-.163-.07-.515 0-.662.032-.082.59.067.657 0 .108-.11-.11-.57 0-.668.073-.065.566 0 .67 0 .16 0 .52.062.667 0 .08-.03-.07-.59 0-.67.112-.103.534.106.66 0 .113-.08-.1-.555 0-.655.113-.117.537.088.667 0 .133-.094.552.108.664 0 .107-.112-.112-.578 0-.673.13-.095.56.12.668 0 .107-.11-.107-.553 0-.658.107-.11.556.104.67 0 .106-.11-.094-.545 0-.677H129.197c.095 0 .606-.057.666 0 .02.025.02.648 0 .676-.115.104-.536-.093-.666 0M44.027 69.196c-.13.095-.553-.11-.66 0-.065.068.004.57 0 .663-.015.22.02.45 0 .67v.66c0 .083.054.625 0 .67-.133.107-.517-.09-.67 0V73.86c-.128.085-.552-.11-.667 0-.057.057.005.566 0 .658 0 .22.01.44 0 .663v.67c0 .163.07.517 0 .665-.025.084-.59-.07-.66 0-.093.094.046.533 0 .665-.058.162 0 .497 0 .67 0 .073.054.615 0 .66-.136.112-.512-.083-.67 0V80.506c-.084.138.116.554 0 .67-.062.068-.62-.086-.665 0-.06.143 0 .497 0 .66 0 .19.047.483 0 .668-.047.184 0 .48 0 .666 0 .083.055.626 0 .666-.125.108-.514-.087-.66 0v.664c0 .2.047.48 0 .665-.026.118.08.586 0 .664-.113.114-.532-.083-.67 0v1.999c-.09.13.113.552 0 .67-.06.067-.625-.093-.665 0-.057.142 0 .493 0 .655 0 .167.06.52 0 .67-.05.133.092.565 0 .664-.09.094-.588-.105-.658 0-.105.16.075.498 0 .668v1.326c-.1.133.104.556 0 .67-.1.098-.6-.106-.666 0-.09.12.02.517 0 .662-.04.207 0 .46 0 .67 0 .153.052.517 0 .66-.04.09-.6-.07-.666 0-.117.114.082.53 0 .667-.085.125.11.554 0 .664-.117.114-.536-.088-.666 0-.087.122.103.566 0 .668-.127.105-.556-.107-.668 0-.07.072.085.633 0 .666-.15.068-.504 0-.666 0-.142 0-.546-.067-.663 0-.1.046.082.582 0 .662-.112.114-.53-.083-.668 0-.136.094-.552-.113-.665 0-.114.114.085.538 0 .665h-1.33c-.216 0-.455.035-.672 0-.21-.022-.44 0-.66 0-.078 0-.617.048-.67 0-.106-.127.09-.513 0-.665h-1.326c.09-.133-.115-.554 0-.66.097-.093.594.106.666 0 .085-.128-.035-.52 0-.667.035-.207 0-.46 0-.668 0-.19-.05-.477 0-.664.03-.12-.08-.583 0-.668.095-.09.598.11.66 0 .086-.12-.024-.51 0-.658.043-.21 0-.464 0-.67v-.662c.133-.095.557.105.67 0 .08-.09-.036-.546 0-.67.046-.19 0-.472 0-.66v-.667c.09-.135-.113-.56 0-.67.09-.088.593.104.66 0 .107-.148-.065-.497 0-.664.07-.15 0-.502 0-.67 0-.07-.047-.62 0-.655.137-.118.516.074.67 0v-2.003c.085-.132-.11-.553 0-.668.09-.086.59.114.664 0 .102-.15-.075-.492 0-.665v-1.33c0-.186-.047-.475 0-.664.02-.064.616.055.668 0 .063-.064-.007-.568 0-.665.008-.22-.007-.442 0-.67.085-.133-.114-.545 0-.657.073-.077.63.085.664 0 .066-.157 0-.51 0-.67v-1.332c0-.078-.05-.62 0-.664.066-.054.647.063.667 0 .06-.164 0-.486 0-.658 0-.192-.052-.496 0-.67.05-.185 0-.477 0-.666 0-.163-.065-.517 0-.664.035-.082.588.068.663 0 .105-.11-.09-.528 0-.67H10.76c-.08 0-.62.057-.66 0-.026-.023-.026-.64 0-.664.104-.11.53.095.66 0v-.658c0-.085-.05-.624 0-.673.124-.104.563.11.668 0 .107-.11-.112-.555 0-.667.115-.108.548.112.66 0 .115-.108-.112-.556 0-.664.103-.09.6.107.674 0 .045-.078-.075-.636 0-.67.14-.056.5 0 .666 0h.66c.095-.13-.11-.545 0-.66.095-.092.592.1.66 0 .08-.11-.096-.593 0-.67.09-.06.558 0 .672 0 .075 0 .624.052.67 0 .103-.13-.096-.51 0-.664.128-.087.547.112.664 0 .103-.11-.092-.533 0-.666H43.367c.08 0 .614-.052.66 0 .114.133-.083.517 0 .666M81.293 68.53v2.66c-.142.094-.558-.108-.666 0-.062.062.003.573 0 .67-.007.195.053.477 0 .664-.057.187 0 .478 0 .665 0 .074.053.628 0 .673-.127.092-.516-.095-.665 0v1.32c-.09.144.11.562 0 .672-.073.068-.63-.085-.67 0-.056.145 0 .5 0 .663 0 .188.05.482 0 .666-.046.175 0 .477 0 .67 0 .073.054.612 0 .657-.128.116-.517-.08-.657 0v.667c0 .2.045.474 0 .666-.033.117.075.588 0 .665-.122.118-.54-.082-.673 0v1.327c0 .192.052.494 0 .67-.035.128.082.582 0 .664-.11.11-.53-.086-.66 0v.667c0 .195.046.48 0 .664-.03.12.076.592 0 .666-.11.11-.532-.087-.67 0v2.664c-.134.092-.558-.113-.665 0-.113.104.084.533 0 .67v.656c0 .083.055.626 0 .67-.07.05-.644-.07-.666 0-.06.166 0 .49 0 .662v1.995c-.134.092-.553-.112-.66 0-.08.082.027.55 0 .673-.05.182 0 .47 0 .66v.67c-.132.084-.56-.123-.67 0-.108.106.092.523 0 .658-.086.137.11.56 0 .668-.086.092-.614-.095-.662 0-.07.115 0 .526 0 .666 0 .08.048.623 0 .665-.134.115-.516-.09-.673 0-.082.118.125.57 0 .67-.11.09-.52-.05-.663 0-.125.04-.57-.094-.658 0-.07.07.082.627 0 .657-.153.065-.512 0-.67 0h-.665c-.088.14.112.56 0 .666-.07.07-.564-.003-.674 0-.212.02-.436-.003-.653 0H67.32c-.19 0-.48.047-.662 0-.065-.02.047-.6 0-.666-.065-.06-.576.003-.673 0-.225-.007-.442.013-.66 0v-1.327c.126-.09.555.115.66 0 .084-.084-.023-.546 0-.665.05-.19 0-.47 0-.666 0-.177-.053-.496 0-.668.027-.068.608.064.673 0 .052-.058-.01-.567 0-.66.002-.226-.01-.445 0-.667v-1.334c.132-.085.55.117.66 0 .058-.063-.007-.564 0-.656.013-.227-.017-.454 0-.67.013-.228 0-.445 0-.67v-.662c.13-.088.55.112.667 0 .06-.063-.005-.564 0-.67.005-.173-.068-.495 0-.655.054-.13-.103-.578 0-.67.11-.113.53.092.668 0v-2c.082-.122-.115-.554 0-.664.062-.074.626.085.653 0 .07-.152 0-.5 0-.665V83.17c0-.083-.045-.617 0-.664.142-.105.524.087.673 0V81.18c0-.168-.07-.53 0-.672.04-.082.59.07.665 0 .085-.082-.032-.548 0-.665.058-.192 0-.47 0-.666v-.666c0-.16-.06-.515 0-.657.035-.093.6.064.67 0 .108-.12-.094-.537 0-.67V75.183H48.022v-1.32c.13-.094.548.103.668 0 .11-.116-.12-.565 0-.673.11-.11.552.107.664 0 .103-.11-.112-.554 0-.666.103-.108.547.112.67 0 .106-.108-.123-.556 0-.664.106-.114.55.108.665 0 .11-.114-.1-.53 0-.67h1.325c.09-.128-.107-.544 0-.66.095-.094.6.1.666 0 .1-.153-.084-.5 0-.672h.664c.078 0 .63.052.674 0 .104-.127-.103-.506 0-.66.127-.088.538.11.655 0 .113-.11-.084-.534 0-.667H81.29zM119.216 68.53v1.328c-.09.142.11.56 0 .67-.062.07-.63-.082-.665 0-.057.145 0 .502 0 .662 0 .192.05.493 0 .67-.05.175 0 .48 0 .664 0 .167.063.523 0 .665-.034.084-.6-.07-.67 0-.102.107.092.536 0 .673v1.32c-.127.086-.55-.108-.66 0-.063.066.01.572 0 .672-.01.2.056.466 0 .663-.048.188 0 .477 0 .666 0 .08.056.626 0 .67-.128.106-.515-.096-.66 0v.657c0 .198.04.49 0 .667-.034.12.078.588 0 .666-.116.112-.538-.085-.665 0v2.663c-.14.087-.56-.115-.673 0-.068.067.005.568 0 .663-.013.18.07.508 0 .667-.045.125.1.57 0 .664-.103.115-.53-.09-.666 0v1.33c0 .19.06.486 0 .668-.038.122.09.58 0 .668-.107.108-.53-.092-.663 0V88.5c0 .178.052.482 0 .656-.038.127.087.58 0 .67-.113.11-.532-.09-.664 0v.662c0 .197.042.48 0 .668-.033.115.082.584 0 .67-.11.1-.534-.094-.672 0V93.817c0 .195.058.48 0 .67-.015.057-.608-.058-.663 0-.06.062.003.568 0 .658-.007.102.062.598 0 .668-.102.115-.534-.085-.668 0-.085.127.112.556 0 .666-.092.094-.59-.108-.66 0-.093.132.11.56 0 .665-.113.115-.552-.104-.672 0-.085.088.11.59 0 .67-.154.1-.506-.103-.658 0-.102.07.095.57 0 .657-.067.065-.566-.007-.666 0-.178.013-.503-.065-.665 0-.124.06-.576-.092-.666 0-.11.115.09.54 0 .666H104.58c-.17 0-.512.06-.665 0-.084-.03.063-.594 0-.666-.112-.11-.533.097-.665 0v-1.992c.132-.088.553.114.665 0 .058-.063-.01-.57 0-.666.013-.175-.067-.5 0-.668.05-.133-.092-.567 0-.66.085-.094.596.103.666 0 .108-.156-.084-.498 0-.667V91.827c.136-.095.557.1.667 0 .06-.067-.007-.576 0-.67.008-.228-.01-.445 0-.67v-.662c0-.083-.055-.62 0-.67.127-.108.514.09.663 0V88.5c0-.194-.052-.486 0-.67.033-.12-.082-.584 0-.664.115-.112.53.088.664 0V85.83c0-.182-.05-.484 0-.664.04-.12-.085-.57 0-.665.11-.114.538.098.665 0v-1.33c0-.163-.063-.517 0-.664.04-.083.59.067.665 0 .113-.115-.08-.53 0-.67v-1.328c.09-.132-.11-.553 0-.665.095-.085.59.112.666 0 .083-.123-.03-.512 0-.666.03-.202 0-.46 0-.666 0-.184-.05-.478 0-.657.03-.128-.08-.59 0-.67.07-.07.634.08.667 0 .057-.146 0-.507 0-.665 0-.21-.033-.46 0-.663.037-.222-.033-.456 0-.673H85.946v-1.32c.137-.094.55.103.674 0 .06-.07-.01-.573 0-.673 0-.153-.075-.534 0-.666.052-.095.576.087.658 0 .105-.1-.115-.576 0-.664.08-.057.55 0 .66 0 .168 0 .52.06.67 0 .084-.03-.073-.59 0-.67.11-.108.535.102.667 0 .115-.078-.097-.56 0-.66.068-.064.576.004.666 0 .153-.01.537.07.662 0 .097-.056-.08-.58 0-.672.117-.1.534.092.666 0 .112-.065-.09-.566 0-.66.112-.11.533.09.663 0 .146-.088.56.11.68 0 .102-.11-.1-.534 0-.667H119.214z" fill="#ed1c24" fill-rule="evenodd"/><path d="M25.403 113.11c.087.13-.107.56 0 .667.07.068.626-.077.668 0 .06.15 0 .507 0 .664V116.44c0 .202-.044.47 0 .663.02.12-.086.59 0 .667.093.1.592-.102.664 0 .098.16-.08.5 0 .67v1.998c.128-.097.55.103.664 0 .062-.067-.01-.568 0-.673.01-.152-.073-.53 0-.658.047-.102.586.077.663 0 .096-.102-.05-.54 0-.666.063-.162 0-.504 0-.67 0-.155-.07-.512 0-.667.038-.08.602.076.664 0 .108-.098-.062-.532 0-.662.073-.132-.097-.56 0-.663.095-.09.6.112.67 0 .108-.155-.104-.514 0-.664.088-.14-.106-.56 0-.67.108-.1.575.118.66 0 .107-.124-.11-.548 0-.663.114-.107.558.113.67 0 .11-.107-.112-.556 0-.668.11-.11.534.09.66 0 .093-.14-.1-.532 0-.66.048-.054.59 0 .672 0h.663c.224.003.443-.017.667 0 .22.003.44 0 .664 0h.664c.192 0 .484-.054.67 0 .053.01-.06.607 0 .66.053.066.564 0 .667 0 .213.014.437 0 .666 0v1.33c.13.09.552-.11.666 0 .058.065-.012.567 0 .67.005.22-.017.44 0 .665v1.326c0 .203.033.468 0 .667-.032.115.075.59 0 .67-.1.093-.6-.11-.666 0-.107.148.083.497 0 .667v7.322c-.09.127.105.546 0 .66-.074.07-.635-.09-.665 0-.072.148 0 .5 0 .664 0 .22.02.453 0 .668-.027.207 0 .448 0 .655v2.661H30.055v-1.322c.137-.092.558.11.67 0 .078-.08-.032-.548 0-.675.048-.185 0-.467 0-.664 0-.207-.007-.44 0-.655.005-.217 0-.447 0-.67v-3.992c.125-.09.55.116.66 0 .07-.06 0-.565 0-.66.02-.224-.01-.45 0-.668.02-.222 0-.45 0-.664v-.665c-.126.088-.55-.11-.66 0-.08.08.03.54 0 .664-.05.183 0 .47 0 .664v.668c-.134.085-.556-.112-.67 0-.058.06.002.564 0 .66-.008.156.077.54 0 .667-.048.094-.572-.083-.66 0-.096.087.046.538 0 .668-.07.153 0 .497 0 .664 0 .073.05.63 0 .67-.07.046-.645-.07-.67 0-.052.166 0 .485 0 .662 0 .155.073.53 0 .663-.04.094-.586-.076-.663 0-.07.067 0 .565 0 .668-.004.15.078.528 0 .655-.05.108-.585-.077-.662 0-.105.115.077.534 0 .664-.068.127 0 .543 0 .675 0 .078.047.62 0 .664-.137.112-.536-.105-.664 0-.132.092-.55-.105-.663 0-.11.112.083.528 0 .658H24.07c-.09-.13.11-.546 0-.658-.094-.088-.595.11-.665 0-.08-.125.028-.514 0-.664-.042-.204 0-.453 0-.675v-.664c-.09-.127.118-.54 0-.655-.067-.073-.636.082-.66 0-.07-.145 0-.502 0-.67v-5.983c0-.08.044-.628 0-.665-.135-.106-.522.088-.666 0v1.328c0 .192.04.48 0 .668-.026.06-.617-.055-.672 0-.065.06.012.564 0 .66-.018.223.012.437 0 .667V126.425c-.13.08-.546-.115-.666 0-.08.077.035.54 0 .66-.05.193 0 .472 0 .664 0 .19.05.485 0 .668-.032.124.082.578 0 .655-.07.078-.63-.077-.663 0-.056.15 0 .514 0 .664v1.997h-5.991v-1.322c.136-.092.555.11.66 0 .09-.08-.018-.548 0-.675.055-.185 0-.467 0-.664 0-.177-.052-.483 0-.655.042-.128-.08-.586 0-.67.1-.09.6.113.67 0 .1-.15-.084-.502 0-.662v-1.332c.088-.132-.107-.553 0-.663.073-.066.634.083.67 0 .056-.146 0-.503 0-.667 0-.187-.058-.49 0-.666.044-.177 0-.47 0-.66 0-.088-.058-.62 0-.67.126-.11.505.086.665 0V121.1c0-.19-.05-.493 0-.665.035-.127-.092-.59 0-.673.102-.112.53.092.663 0V117.1c0-.176-.052-.49 0-.662.023-.07.604.062.666 0 .062-.065-.008-.568 0-.663 0-.162-.077-.52 0-.664.037-.096.593.074.663 0 .065-.068-.005-.572 0-.67.008-.114-.07-.57 0-.663.083-.107.55.088.67 0 .083-.134-.11-.556 0-.668.106-.11.53.09.662 0 .13-.088.545.11.662 0 .12-.11-.082-.532 0-.66h3.327c.078 0 .622-.054.66 0 .11.128-.088.52 0 .66h.673zM52.682 119.763c-.11-.112.11-.556 0-.658-.11-.117-.564.102-.668 0-.108-.117.092-.54 0-.666h-2.66c-.098 0-.607-.063-.664 0-.118.106.087.53 0 .665h-.666c-.092.134.112.546 0 .658-.105.107-.576-.112-.668 0-.115.13.092.52 0 .67-.07.106-.57-.096-.66 0-.11.106.06.535 0 .667-.07.134.1.56 0 .665-.074.063-.632-.08-.672 0-.067.14 0 .502 0 .664v.665c0 .207-.037.46 0 .663.007.045.63-.047.67 0 .113.112-.09.54 0 .663.083.153-.11.54 0 .67.043.05.587 0 .662 0h.668c.087.15-.112.533 0 .665.047.053.588 0 .666 0 .214 0 .444-.012.665 0 .222.008.442 0 .67 0 .153 0 .512.055.662 0 .08-.037-.072-.598 0-.665.105-.11.53.074.663 0 .135-.07.56.107.664 0 .104-.115-.108-.557 0-.67.104-.11.558.113.668 0 .11-.11-.095-.53 0-.662.1-.082.59.107.663 0 .065-.097 0-.55 0-.663v-3.332c-.13-.082-.553.11-.663 0m-3.992-6.653c.087-.13-.118-.554 0-.658.087-.095.54.035.665 0 .175-.055.48 0 .67 0h3.319c.188 0 .493-.055.672 0 .055.017-.062.598 0 .658.055.067.564 0 .658 0 .165.013.522-.065.666 0 .095.045-.07.59 0 .666.07.065.564-.005.666 0 .122.005.58-.075.67 0 .108.082-.09.57 0 .666.09.094.587-.113.662 0 .09.144-.115.528 0 .668.09.107.56-.107.66 0 .118.107-.082.534 0 .663.155.085.54-.11.67 0 .05.045 0 .584 0 .666v.66c.128.092.56-.105.665 0 .062.075 0 .57 0 .668v1.995c0 .08-.05.623 0 .67.04.03.663-.027.663 0 .01.083.062.612 0 .667-.105.104-.526-.095-.663 0V123.758c0 .19.05.486 0 .663-.015.07-.606-.054-.666 0-.063.07.007.57 0 .67-.005.117.072.576 0 .665-.085.118-.566-.097-.67 0-.08.093.114.594 0 .67-.153.098-.487-.094-.66 0v.662c0 .155.065.52 0 .663-.032.08-.595-.077-.66 0-.092.095.102.594 0 .666-.157.107-.51-.1-.67 0-.108.07.09.574 0 .656-.06.065-.572 0-.667 0-.217.02-.44 0-.666 0-.084.144.113.56 0 .666-.117.114-.55-.105-.658 0-.122.114.107.563 0 .675-.11.108-.534-.084-.67 0-.135.075-.562-.112-.664 0-.097.095.1.59 0 .664-.147.092-.5-.063-.668 0-.157.06-.494 0-.664 0-.08 0-.623-.058-.663 0-.052.052.055.65 0 .658-.19.057-.476 0-.663 0H46.696c-.08 0-.625.062-.672 0-.105-.13.09-.51 0-.658-.217.017-.44-.015-.666 0-.214.017-.44 0-.66 0-.078 0-.624.05-.67 0-.11-.132.09-.516 0-.664-.13-.092-.553.108-.66 0-.11-.112.107-.56 0-.675-.11-.105-.553.114-.673 0-.107-.105.12-.546 0-.666-.107-.105-.55.12-.663 0-.113-.105.112-.54 0-.656-.113-.117-.556.115-.664 0-.112-.117.09-.534 0-.666-.134-.09-.553.112-.668 0-.055-.06.008-.566 0-.663-.002-.177.07-.5 0-.66-.047-.14.097-.577 0-.672-.11-.11-.53.088-.663 0-.013-.222.027-.45 0-.665-.02-.22 0-.452 0-.67v-.662c0-.215-.02-.454 0-.663.027-.215 0-.457 0-.666 0-.076-.05-.622 0-.665.134-.11.516.08.663 0V119.763c.14-.082.556.11.668 0 .065-.06-.007-.568 0-.658.013-.167-.06-.526 0-.666.038-.09.594.07.664 0 .067-.066 0-.575 0-.672.007-.147-.07-.538 0-.668.062-.092.58.075.663 0 .095-.132-.107-.546 0-.66.097-.093.598.106.673 0 .088-.136-.11-.555 0-.667.107-.11.546.112.66 0 .098-.09-.11-.59 0-.663.156-.107.497.085.67 0 .092-.14-.113-.56 0-.668.057-.063.568 0 .66 0 .155-.008.534.072.666 0 .107-.058-.075-.584 0-.666.107-.097.54.065.67 0 .083-.043-.08-.59 0-.666.076-.082.544.025.662 0 .19-.05.473 0 .668 0h.666zM63.33 112.45h5.324c.158 0 .512-.06.652 0 .017 0 .03.64 0 .66-.097.112-.524-.087-.653 0v3.99c-.138.092-.56-.105-.67 0-.066.077.006.57 0 .668-.01.224.006.45 0 .67v1.325c0 .2.054.474 0 .67-.024.11.08.577 0 .666-.093.09-.59-.105-.662 0-.1.147.083.493 0 .665V126.426H71.314c.078 0 .614-.06.66 0 .03.026.03.637 0 .662-.106.11-.525-.093-.66 0v3.99c-.14.09-.558-.108-.666 0-.077.07.083.633 0 .658-.147.067-.5 0-.668 0H63.984c-.162 0-.506.067-.655 0-.08-.025.068-.59 0-.658-.11-.108-.557.112-.665 0-.117-.108.108-.554 0-.664-.11-.107-.573.11-.668 0-.115-.132.085-.516 0-.676-.102-.082-.596.11-.673 0-.065-.1.012-.52 0-.663 0-.087.072-.593 0-.658-.045-.055-.64.065-.656 0-.06-.18 0-.48 0-.666v-.663c0-.195-.047-.477 0-.66.015-.126-.085-.602 0-.672.09-.09.59.107.656 0 .104-.155-.075-.506 0-.666v-3.325c0-.194-.043-.49 0-.666.027-.065.623.05.673 0 .057-.065-.012-.567 0-.666.012-.225-.012-.45 0-.67V117.766c0-.155-.067-.514 0-.668.032-.08.594.077.668 0 .073-.07-.025-.546 0-.66.03-.203 0-.463 0-.665v-2.665h.664v-.66zM80.628 113.11v2.665c0 .194.048.48 0 .663-.037.122.073.58 0 .663-.11.12-.53-.08-.668 0v3.335c0 .162.06.517 0 .664-.032.08-.596-.08-.666 0-.105.103.087.532 0 .664v2.659c0 .194.045.476 0 .668-.032.118.082.585 0 .664-.105.118-.538-.087-.66 0v2.664c0 .192.042.466 0 .655-.03.118.072.594 0 .664-.095.102-.6-.1-.67 0-.106.167.08.506 0 .675v1.322h-5.995v-1.322c.093-.132-.104-.56 0-.675.095-.083.596.114.666 0 .09-.12-.025-.492 0-.664.045-.19 0-.463 0-.655v-2.664c.137-.087.564.118.67 0 .086-.08-.03-.546 0-.663.046-.19 0-.473 0-.667V121.1c.133-.094.555.103.664 0 .063-.066-.007-.567 0-.665.018-.224-.015-.448 0-.673.018-.214 0-.444 0-.658V117.1c.132-.08.56.12.67 0 .063-.063-.006-.56 0-.662.01-.212-.016-.44 0-.663.01-.225 0-.444 0-.664v-2h.66c.094-.128-.11-.555 0-.66.094-.094.543.036.668 0 .174-.054.48 0 .663 0h3.998c.073 0 .62-.054.666 0 .02.026.02.64 0 .66-.117.11-.536-.088-.666 0M88.608 113.11c.14.09.554-.11.67 0 .094.094-.116.59 0 .667.08.058.627-.077.662 0 .067.145 0 .507 0 .664v.67c.132.09.55-.106.663 0 .118.106-.082.533 0 .665.085.14-.114.548 0 .663.07.065.64-.08.664 0 .067.15 0 .506 0 .663 0 .198-.045.478 0 .667.032.115-.078.584 0 .67.112.108.533-.086.663 0v.667c0 .077-.047.62 0 .658.147.11.52-.082.678 0V117.768c.085-.13-.117-.55 0-.667.085-.086.59.11.654 0 .092-.123-.023-.507 0-.662.044-.2 0-.46 0-.663 0-.21-.025-.464 0-.664.042-.21 0-.457 0-.67 0-.19-.035-.473 0-.663.035-.112-.078-.583 0-.668.114-.11.536.09.673 0 .087-.14-.112-.532 0-.66.042-.054.588 0 .66 0h4.66c.083 0 .62-.054.664 0 .03.026.03.64 0 .66-.108.11-.53-.088-.664 0v2.665c0 .194.048.48 0 .663-.027.122.083.58 0 .663-.114.12-.526-.08-.663 0v3.335c-.095.13.115.556 0 .664-.067.07-.633-.09-.668 0-.065.148 0 .492 0 .664V125.09c0 .073.05.622 0 .664-.13.118-.514-.087-.666 0V128.417c0 .157.06.508 0 .655-.036.09-.6-.055-.662 0-.112.115.072.534 0 .664-.075.152.102.566 0 .675-.112.11-.563-.11-.67 0-.113.11.107.56 0 .664-.113.112-.53-.088-.66 0-.09.152.1.528 0 .658-.046.062-.592 0-.672 0h-1.988c-.194 0-.486.06-.678 0-.052-.007.055-.603 0-.658-.037-.055-.58 0-.663 0h-.664v-1.34c-.127-.08-.548.115-.663 0-.115-.104.092-.52 0-.663-.085-.127.115-.54 0-.655-.07-.073-.63.082-.663 0-.06-.145 0-.502 0-.67 0-.19.04-.47 0-.662-.035-.12.08-.584 0-.66-.115-.116-.53.08-.67 0v-1.335c0-.1.066-.597 0-.667-.1-.11-.535.087-.67 0v.668c0 .073.058.622 0 .664-.054.053-.63-.072-.658 0-.06.165 0 .484 0 .67V128.42c0 .184.052.483 0 .655-.036.13.09.584 0 .664-.115.114-.532-.08-.66 0v1.997h-5.991v-1.322c.08-.132-.11-.56 0-.675.07-.063.63.097.662 0 .06-.132 0-.49 0-.664 0-.207-.03-.448 0-.655.025-.212 0-.45 0-.67V125.755c.13-.087.556.118.656 0 .09-.08-.015-.546 0-.663.055-.19 0-.473 0-.667v-1.996c0-.18-.045-.488 0-.663.042-.124-.075-.576 0-.665.115-.11.536.088.678 0v-3.332c0-.155-.07-.512 0-.667.028-.08.594.076.66 0 .08-.07-.02-.547 0-.662.026-.202 0-.46 0-.663v-.664c0-.156-.064-.53 0-.67.046-.084.59.078.664 0 .115-.11-.104-.55 0-.663.115-.107.556.113.67 0 .108-.107-.1-.538 0-.668h.657c.097-.126-.105-.567 0-.66.067-.062.573 0 .67 0H87.938c.082 0 .626-.054.67 0 .108.128-.084.52 0 .66M113.893 131.735h-5.988v-1.322c.09-.132-.11-.56 0-.676.095-.082.59.115.666 0 .085-.12-.035-.494 0-.663.042-.192 0-.464 0-.658v-2.66h-1.332v-2.658c0-.09-.05-.62 0-.67.07-.054.64.06.666 0 .06-.163 0-.49 0-.662 0-.102-.057-.606 0-.666.047-.056.58 0 .666 0h.666c.08 0 .616.052.655 0 .068-.078 0-.567 0-.667v-2.665h-1.32c-.136.092-.555-.11-.667 0-.097.097.105.596 0 .67-.08.045-.628-.074-.666 0-.062.14 0 .504 0 .666v1.33c0 .077.053.62 0 .665-.062.05-.643-.078-.668 0-.052.156 0 .485 0 .665v3.326c0 .16.067.52 0 .665-.03.082-.59-.075-.66 0-.116.117.084.53 0 .67v2.649c0 .172.06.53 0 .663-.043.095-.597-.065-.664 0-.112.115.087.544 0 .676v1.322h-5.992v-1.322c.087-.132-.115-.56 0-.676.067-.065.625.095.663 0 .056-.132 0-.49 0-.663 0-.207-.02-.45 0-.658.034-.212 0-.447 0-.666V125.756c.134-.09.552.116.665 0 .08-.083-.023-.55 0-.667.045-.19 0-.472 0-.67V121.766c0-.194-.043-.484 0-.666.015-.06.616.05.668 0 .062-.066-.01-.567 0-.667.01-.224-.012-.446 0-.67v-.66c0-.166-.065-.522 0-.665.03-.09.593.068.67 0 .106-.112-.094-.536 0-.67v-.67c0-.073-.064-.62 0-.66.128-.107.505.085.662 0 .084-.134-.115-.55 0-.663.09-.092.586.112.663 0 .097-.132-.115-.558 0-.666.107-.105.556.107.668 0 .085-.098-.107-.597 0-.67.152-.094.52.108.666 0 .112-.076-.1-.567 0-.665.062-.062.56.005.666 0 .157-.005.52.07.663 0 .086-.042-.074-.59 0-.665.06-.06.562 0 .662 0 .227-.005.444.015.668 0 .085-.103-.11-.59 0-.66.09-.07.544 0 .666 0h3.322c.192 0 .486-.054.668 0 .067.02-.06.6 0 .66.062.067.57 0 .663 0 .164.015.52-.065.667 0 .085.044-.074.59 0 .665.063.065.57-.005.666 0 .222.02.442-.005.664 0v1.334c.132.09.563-.105.665 0 .115.107-.082.533 0 .665.093.14-.102.546 0 .664.058.06.64-.074.674 0 .047.18 0 .475 0 .66v3.334c-.1.132.104.558 0 .665-.08.072-.634-.09-.674 0-.067.146 0 .493 0 .665 0 .212.028.45 0 .663-.022.212 0 .442 0 .67V125.09c0 .074.058.62 0 .665-.134.117-.51-.09-.665 0v2.661c0 .192.05.48 0 .658-.028.122.08.593 0 .663-.108.115-.532-.08-.664 0V131.735zM167.787 113.11V116.437c0 .122.062.57 0 .663-.07.11-.566-.08-.67 0-.088.13.11.557 0 .667-.078.09-.545-.03-.66 0-.19.05-.473 0-.665 0h-1.332c-.077 0-.623-.05-.666 0-.044.065.063.64 0 .67-.164.056-.486 0-.665 0h-.662c-.097.128.107.55 0 .667-.097.087-.606-.105-.666 0-.1.14.105.523 0 .658-.1.117-.57-.102-.666 0-.107.11.065.534 0 .673-.072.13.097.56 0 .664-.097.088-.59-.106-.668 0-.085.12.032.505 0 .664-.04.197 0 .454 0 .664v1.995c.13.087.556-.11.668 0 .097.087-.107.6 0 .668.132.083.55-.116.666 0 .105.11-.117.555 0 .664.092.093.588-.11.666 0 .045.07-.068.636 0 .67.154.05.49 0 .66 0h2.664V128.418c0 .19.045.478 0 .655-.035.125.072.594 0 .664-.107.114-.53-.08-.66 0v1.997H159.8c-.085-.13.114-.546 0-.658-.078-.088-.544.027-.664 0-.187-.043-.47 0-.666 0-.17 0-.506.06-.668 0-.067-.033.065-.596 0-.664-.127-.092-.55.11-.666 0-.097-.11.115-.56 0-.675-.097-.105-.55.114-.653 0-.125-.105.077-.522 0-.664-.08-.097-.58.103-.673 0-.06-.055.007-.558 0-.655-.013-.217.01-.447 0-.67-.132-.09-.554.116-.664 0-.087-.08.023-.547 0-.662-.044-.192 0-.476 0-.66 0-.188.05-.502 0-.672-.025-.072-.61.055-.668 0-.06-.072.008-.57 0-.663-.01-.226.008-.448 0-.667v-1.327c0-.187-.052-.486 0-.668.04-.122-.082-.58 0-.664.107-.12.54.083.668 0v-1.33c0-.19-.05-.487 0-.672.02-.057.61.057.664 0 .072-.057 0-.568 0-.658.01-.227-.01-.442 0-.666.134-.087.548.107.673 0 .06-.065-.01-.57 0-.67 0-.13-.08-.557 0-.667.062-.098.56.084.653 0 .098-.13-.097-.547 0-.662.115-.115.554.115.666 0 .115-.115-.112-.55 0-.663.115-.11.566.112.668 0 .108-.11-.102-.56 0-.664.108-.106.554.106.666 0 .112-.106-.112-.56 0-.67.112-.11.53.09.664 0 .09-.144-.103-.528 0-.663.05-.055.583 0 .668 0h.668c.087-.134-.112-.556 0-.668.06-.058.566 0 .666 0 .214-.006.436.014.666 0 .087-.126-.112-.567 0-.66.062-.062.566 0 .66 0h4.658c.083 0 .617-.054.667 0 .02.026.02.64 0 .66-.108.11-.53-.088-.666 0M181.095 119.763c-.115-.112.107-.556 0-.658-.115-.117-.56.102-.658 0-.117-.117.077-.54 0-.666h-2.668c-.1 0-.602-.063-.662 0-.122.106.08.53 0 .665h-.67c-.088.134.11.546 0 .658-.108.107-.57-.112-.67 0-.114.13.1.52 0 .67-.07.106-.568-.096-.663 0-.102.106.07.535 0 .667-.07.134.11.56 0 .665-.07.063-.628-.08-.66 0-.068.14 0 .502 0 .664v.665c0 .207-.045.46 0 .663.002.045.615-.047.66 0 .118.112-.084.54 0 .663.085.153-.11.54 0 .67.048.05.586 0 .664 0h.67c.084.15-.11.533 0 .665.042.053.58 0 .668 0 .21 0 .436-.012.66 0 .227.008.444 0 .666 0 .162 0 .517.055.66 0 .088-.037-.066-.598 0-.665.11-.11.54.074.67 0 .132-.07.563.107.673 0 .1-.115-.117-.557 0-.67.1-.11.543.113.658 0 .107-.11-.087-.53 0-.662.1-.082.594.107.668 0 .058-.097 0-.55 0-.663v-3.332c-.134-.082-.56.11-.668 0m-3.987-6.653c.08-.13-.122-.554 0-.658.08-.095.528.035.66 0 .183-.055.47 0 .666 0h3.329c.182 0 .49-.055.67 0 .058.017-.066.598 0 .658.058.067.557 0 .66 0 .162.013.52-.065.66 0 .085.045-.062.59 0 .666.07.065.576-.005.666 0 .124.005.573-.075.662 0 .115.082-.09.57 0 .666.1.094.6-.113.67 0 .09.144-.114.528 0 .668.09.107.56-.107.664 0 .115.107-.084.534 0 .663.148.085.542-.11.66 0 .06.045 0 .584 0 .666v.66c.13.092.56-.105.67 0 .062.075 0 .57 0 .668v1.995c0 .08-.053.626 0 .67.047.03.663-.027.663 0 .01.083.06.612 0 .667-.103.104-.53-.095-.664 0V123.758c0 .19.052.486 0 .663-.018.07-.61-.054-.67 0-.06.07.006.57 0 .67-.006.117.08.576 0 .665-.08.118-.56-.097-.66 0-.09.093.113.594 0 .67-.152.098-.503-.094-.665 0v.662c0 .155.07.52 0 .663-.04.08-.593-.077-.668 0-.09.095.113.594 0 .666-.152.107-.503-.1-.663 0-.106.07.09.574 0 .656-.06.065-.567 0-.667 0-.217.02-.44 0-.66 0-.098.144.11.56 0 .666-.113.114-.557-.105-.66 0-.12.114.103.563 0 .675-.116.108-.537-.084-.67 0-.14.075-.56-.112-.668 0-.095.095.107.59 0 .664-.145.092-.5-.063-.658 0-.167.06-.51 0-.674 0-.077 0-.62-.058-.668 0-.037.052.058.65 0 .658-.182.057-.47 0-.66 0H175.103c-.077 0-.623.062-.66 0-.118-.13.082-.51 0-.658-.227.017-.45-.015-.674 0-.21.017-.44 0-.657 0-.082 0-.62.05-.673 0-.103-.132.09-.516 0-.664-.128-.092-.546.108-.66 0-.113-.112.114-.56 0-.675-.113-.105-.557.114-.672 0-.102-.105.115-.546 0-.666-.102-.105-.55.12-.663 0-.105-.105.112-.54 0-.656-.105-.117-.55.115-.67 0-.096-.117.1-.534 0-.666-.128-.09-.547.112-.662 0-.06-.06.005-.566 0-.663-.01-.177.067-.5 0-.66-.045-.14.097-.577 0-.672-.115-.11-.524.088-.66 0-.023-.222.02-.45 0-.665-.023-.22 0-.452 0-.67v-.662c0-.215-.038-.454 0-.663.02-.215 0-.457 0-.666 0-.076-.058-.622 0-.665.136-.11.513.08.66 0V119.763c.142-.082.566.11.66 0 .078-.06 0-.568 0-.658.02-.167-.06-.526 0-.666.053-.09.604.07.672 0 .072-.066 0-.575 0-.672.017-.147-.068-.538 0-.668.057-.092.58.075.663 0 .102-.132-.102-.546 0-.66.102-.093.6.106.673 0 .09-.136-.113-.555 0-.667.114-.11.557.112.66 0 .097-.09-.103-.59 0-.663.152-.107.508.085.673 0 .087-.14-.115-.56 0-.668.06-.063.563 0 .658 0 .153-.008.545.072.675 0 .09-.058-.08-.584 0-.666.1-.097.523.065.66 0 .088-.043-.077-.59 0-.666.078-.082.546.025.664 0 .188-.05.477 0 .67 0h.668zM205.708 115.11v5.325c0 .185.06.49 0 .664-.015.062-.6-.06-.664 0-.062.062.003.566 0 .666 0 .132.083.553 0 .666-.062.102-.566-.085-.656 0-.094.124.11.556 0 .665-.117.113-.558-.11-.67 0-.108.113.112.56 0 .66-.108.108-.564-.106-.664 0-.114.118.113.557 0 .667-.087.09-.596-.102-.673 0-.05.087.086.62 0 .668-.114.068-.525 0-.665 0-.187 0-.47-.047-.656 0-.128.025-.584-.085-.674 0-.107.11.09.53 0 .666h-2.658v-3.326c0-.078-.052-.62 0-.666.06-.053.648.062.663 0 .06-.17 0-.49 0-.666 0-.105-.056-.59 0-.663.054-.058.585 0 .662 0 .09 0 .63.052.68 0 .093-.128-.12-.564 0-.67.106-.106.547.11.654 0 .112-.116-.082-.527 0-.66v-1.34h-1.334c-.13.094-.546-.108-.66 0-.09.1.104.6 0 .672-.068.045-.632-.072-.664 0-.062.142 0 .506 0 .67v1.327c0 .075.052.622 0 .664-.062.05-.643-.075-.663 0-.058.157 0 .486 0 .666v3.326c0 .16.057.52 0 .666-.033.08-.6-.075-.66 0-.12.115.08.53 0 .67v2.646c0 .174.054.533 0 .665-.044.095-.605-.064-.672 0-.115.115.082.542 0 .674v1.324h-5.991v-1.324c.093-.132-.1-.56 0-.674.076-.064.64.095.662 0 .064-.132 0-.49 0-.665 0-.207-.02-.45 0-.656.032-.212 0-.45 0-.668v-1.995c.144-.09.56.116.675 0 .08-.08-.035-.548 0-.665.04-.192 0-.474 0-.668v-2.658c.088-.132-.114-.56 0-.666.098-.092.59.105.664 0 .085-.13-.034-.51 0-.663.04-.197 0-.474 0-.67v-.66c0-.186-.054-.488 0-.668.023-.062.617.055.666 0 .113-.112-.09-.533 0-.67v-.666c0-.132-.067-.545 0-.663.06-.1.582.088.664 0 .092-.09-.105-.593 0-.663.154-.095.543.112.67 0 .11-.095-.104-.566 0-.663.11-.11.55.105.66 0 .114-.107-.106-.56 0-.67.104-.11.555.11.67 0 .104-.11-.115-.55 0-.663.104-.108.528.092.663 0 .082-.135-.115-.554 0-.67.057-.056.57 0 .67 0 .213-.004.437.016.662 0 .08-.1-.105-.587 0-.655.094-.07.548 0 .663 0h3.987c.122 0 .58-.07.666 0 .1.068-.076.554 0 .656h.674c.167 0 .514-.057.664 0 .084.045-.073.594 0 .67.112.113.553-.11.67 0 .113.106-.112.552 0 .662.09.097.58-.11.656 0 .103.157-.082.5 0 .67h.664zM214.355 113.11v2.665c0 .194.052.48 0 .663-.017.122.085.58 0 .663-.107.12-.526-.08-.656 0v3.335c0 .162.064.517 0 .664-.033.08-.597-.08-.667 0-.112.103.085.532 0 .664v2.659c0 .194.048.476 0 .668-.03.118.085.585 0 .664-.112.118-.533-.087-.668 0v2.664c0 .192.048.466 0 .655-.027.118.08.594 0 .664-.095.102-.593-.1-.663 0-.1.167.077.506 0 .675v1.322h-5.995v-1.322c.092-.132-.11-.56 0-.675.105-.083.596.114.673 0 .08-.12-.037-.492 0-.664.033-.19 0-.463 0-.655v-2.664c.128-.087.554.118.664 0 .08-.08-.028-.546 0-.663.045-.19 0-.473 0-.667V121.1c.127-.094.556.103.668 0 .06-.066-.01-.567 0-.665.002-.224-.02-.448 0-.673.002-.214 0-.444 0-.658V117.1c.13-.08.55.12.663 0 .065-.063-.01-.56 0-.662.013-.212-.01-.44 0-.663.013-.225 0-.444 0-.664v-2h.666c.083-.128-.106-.555 0-.66.083-.094.542.036.667 0 .174-.054.476 0 .666 0H214.353c.085 0 .63-.054.67 0 .028.026.028.64 0 .66-.116.11-.523-.088-.67 0M229 113.11v3.99c-.134.094-.556-.106-.658 0-.077.076.077.637 0 .667-.15.065-.51 0-.67 0h-1.996c-.187 0-.49-.05-.673 0-.115.035-.574-.08-.66 0-.07.07.08.63 0 .67-.16.058-.495 0-.667 0-.154 0-.526-.064-.665 0-.082.033.07.59 0 .667-.117.104-.53-.095-.663 0 .09.134-.11.546 0 .658.065.067.564-.005.664 0 .232.013.444-.007.666 0 .212.013.444 0 .666 0h4v1.337c-.14.088-.57-.11-.67 0-.088.088.032.54 0 .664-.06.175 0 .482 0 .664v1.995h-5.991v1.33h.667c.162 0 .51-.07.664 0 .088.034-.082.595 0 .672.075.067.557-.032.666 0 .207.035.462 0 .666 0h2.656V129.736c-.125.102-.556-.105-.658 0-.063.072 0 .573 0 .675v1.322h-5.326c-.177 0-.49.062-.666 0-.065-.015.065-.603 0-.658-.107-.105-.53.09-.658 0-.128-.088-.56.112-.667 0-.11-.105.085-.53 0-.664-.14-.092-.56.11-.668 0-.072-.07.087-.63 0-.675-.152-.053-.5 0-.666 0h-.664v-.664c0-.154.067-.513 0-.655-.043-.088-.6.067-.67 0-.113-.118.09-.534 0-.67-.126-.086-.555.116-.667 0-.058-.06 0-.572 0-.662v-1.332c-.128-.087-.557.118-.664 0-.085-.08.04-.546 0-.663-.05-.184 0-.475 0-.667v-2.659c0-.08-.05-.628 0-.665.13-.106.52.088.663 0v-1.338c0-.194-.046-.48 0-.658.014-.068.62.047.667 0 .068-.068-.005-.57 0-.666.018-.14-.08-.556 0-.67.063-.098.58.09.67 0 .09-.098-.116-.592 0-.667.13-.08.55.12.662 0 .114-.106-.113-.547 0-.662.094-.092.588.107.665 0 .1-.152-.087-.5 0-.663.137-.085.558.112.668 0 .087-.09-.11-.59 0-.664.14-.096.55.106.666 0 .106-.106-.118-.56 0-.67.084-.094.592.11.657 0 .065-.084-.077-.62 0-.663.122-.07.52 0 .666 0h.668c.086-.15-.11-.538 0-.668.04-.048.595 0 .667 0h.664c.13-.088.557.11.666 0 .12-.11-.087-.532 0-.66H229c.16.08.524-.114.666 0 .018.01.018.64 0 .66-.107.11-.536-.088-.666 0M244.97 116.438v1.33c0 .206.045.473 0 .67-.015.114.07.586 0 .666-.092.087-.593-.105-.668 0-.1.154.087.496 0 .658-.062.137.11.568 0 .673-.095.09-.596-.115-.663 0-.094.13.11.556 0 .663-.114.105-.557-.107-.665 0-.102.09.108.596 0 .666-.154.102-.52-.102-.67 0-.095.063.087.56 0 .664h.67c.073 0 .614-.055.664 0 .106.132-.094.516 0 .668.066.1 0 .533 0 .66 0 .083-.06.624 0 .666.136.113.512-.087.662 0v1.332c-.127.09-.55-.11-.663 0-.07.055.006.566 0 .67-.016.213.006.445 0 .662-.016.214 0 .444 0 .663v1.323c0 .085.05.63 0 .663-.143.115-.515-.08-.665 0V131.734h-5.988v-1.322c.08-.132-.11-.56 0-.676.073-.062.632.098.664 0 .07-.132 0-.488 0-.663 0-.207-.02-.45 0-.656.016-.214 0-.45 0-.668v-1.996c0-.072.05-.628 0-.663-.13-.11-.54.108-.664 0-.128-.1-.556.11-.666 0-.112-.116.09-.535 0-.668v-1.326c.154-.092.526.112.666 0 .047-.045 0-.59 0-.668 0-.222-.018-.45 0-.664.005-.224 0-.444 0-.666v-.663h1.997v-2.668h-1.332c-.13.092-.555-.11-.664 0-.095.1.107.596 0 .67-.078.046-.63-.074-.666 0-.067.14 0 .504 0 .667v1.331c0 .075.05.62 0 .663-.067.05-.65-.077-.67 0-.056.158 0 .487 0 .666V125.092c0 .158.074.52 0 .662-.036.082-.59-.072-.66 0-.12.117.088.53 0 .67v1.992c0 .19.048.48 0 .656-.037.125.078.594 0 .663-.12.115-.538-.08-.668 0V131.734h-5.979v-1.322c.074-.132-.118-.56 0-.676.084-.082.588.115.658 0 .086-.114-.024-.508 0-.663.043-.197 0-.456 0-.656 0-.212-.03-.46 0-.668.036-.205 0-.452 0-.664 0-.195-.05-.477 0-.66.028-.123-.084-.59 0-.672.108-.11.53.09.664 0V121.765c0-.08-.047-.628 0-.666.13-.104.52.09.67 0v-2.66c0-.14-.07-.546 0-.67.04-.098.572.074.664 0v-.667c0-.156-.062-.513 0-.662.035-.08.586.065.664 0 .11-.107-.08-.524 0-.664.057-.102.578.085.668 0 .057-.062-.007-.576 0-.663.007-.226-.01-.44 0-.67h.663c.17 0 .51.065.664 0 .087-.035-.073-.596 0-.663.11-.107.533.092.665 0 .085-.147-.11-.54 0-.668.045-.05.59 0 .67 0h1.327c.082-.103-.11-.59 0-.66.095-.067.543 0 .666 0h3.332c.152 0 .514-.064.66 0 .076.035-.076.596 0 .66.11.11.525-.088.667 0h.66c.088 0 .622-.05.67 0 .11.128-.088.52 0 .667.134.092.552-.107.665 0 .09.097-.106.594 0 .663.106.078.587-.094.662 0 .087.11-.035.522 0 .67.025.106-.075.585 0 .664.095.095.593-.11.668 0 .105.15-.077.494 0 .664M267.586 113.11v2.665c0 .194.053.48 0 .663-.012.062-.608-.052-.658 0-.07.062.002.57 0 .663-.018.226.002.443 0 .667h-5.324v1.337c.13.087.55-.117.668 0 .112.104-.117.546 0 .658.112.11.55-.112.664 0 .107.11-.115.57 0 .673.122.103.55-.12.66 0 .093.09-.11.586 0 .664.135.088.554-.11.67 0 .108.103-.116.545 0 .664.108.108.55-.12.664 0 .11.108-.114.552 0 .664.11.11.56-.117.666 0 .112.117-.117.556 0 .668.088.095.596-.11.66 0 .103.142-.064.496 0 .66.063.156 0 .502 0 .667v3.327c0 .116.07.575 0 .668-.064.104-.565-.088-.66 0-.087.13.112.55 0 .655-.097.103-.593-.097-.666 0-.094.15.115.55 0 .664-.1.114-.556-.105-.665 0-.115.114.11.566 0 .675-.115.11-.55-.11-.67 0-.08.078.094.61 0 .664-.118.07-.515 0-.66 0h-.663c-.142.09-.558-.105-.668 0-.072.07.087.633 0 .658-.147.067-.496 0-.666 0H252.958v-1.322c.083-.132-.112-.56 0-.675.07-.063.624.097.66 0 .064-.132 0-.49 0-.664 0-.207-.026-.448 0-.655.02-.215 0-.45 0-.67v-1.322h5.993v-1.335c-.09-.13.114-.555 0-.667-.11-.11-.565.112-.672 0-.11-.11.107-.55 0-.666-.107-.102-.556.115-.653 0-.115-.122.105-.546 0-.66-.105-.1-.61.11-.666 0-.1-.146.1-.547 0-.67-.106-.116-.567.11-.682 0-.114-.11.115-.555 0-.663-.114-.12-.548.108-.658 0-.117-.12.082-.53 0-.665-.065-.106-.576.088-.663 0-.07-.066.005-.567 0-.665-.013-.224.012-.448 0-.673-.135-.082-.556.11-.67 0-.083-.072.03-.54 0-.658-.046-.192 0-.47 0-.666v-.67c.134-.08.552.114.67 0 .074-.078-.035-.547 0-.667.035-.186 0-.467 0-.662 0-.17-.068-.514 0-.663.025-.08.598.062.663 0v-.664c0-.078-.05-.624 0-.67.137-.11.52.09.658 0 .1-.134-.114-.55 0-.663.068-.062.58.003.68 0 .143-.007.53.068.667 0 .08-.055-.095-.583 0-.668.105-.11.52.09.653 0h.673c.08-.103-.11-.59 0-.66.094-.07.543 0 .66 0H267.586c.157.08.53-.114.673 0 .017.01.017.64 0 .66-.108.11-.53-.088-.674 0M282.23 113.11v3.99c-.143.094-.55-.106-.664 0-.078.076.084.637 0 .667-.148.065-.504 0-.67 0h-1.992c-.187 0-.49-.05-.67 0-.118.035-.58-.08-.657 0-.07.07.065.63 0 .67-.164.058-.5 0-.673 0-.16 0-.52-.064-.668 0-.078.033.074.59 0 .667-.113.104-.527-.095-.66 0 .09.134-.116.546 0 .658.064.067.567-.005.66 0 .224.013.448-.007.668 0 .21.013.446 0 .673 0h3.987v1.337c-.14.088-.554-.11-.67 0-.08.088.044.54 0 .664-.05.175 0 .482 0 .664v1.995H274.91v1.33h.666c.162 0 .51-.07.66 0 .093.034-.07.595 0 .672.088.067.56-.032.67 0 .208.035.455 0 .672 0h2.651V129.736c-.123.102-.562-.105-.657 0-.065.072 0 .573 0 .675v1.322h-5.331c-.192 0-.482.062-.666 0-.065-.015.067-.603 0-.658-.11-.105-.534.09-.666 0-.132-.088-.55.112-.656 0-.112-.105.088-.53 0-.664-.14-.092-.558.11-.673 0-.064-.07.08-.63 0-.675-.144-.053-.493 0-.66 0h-.673v-.664c0-.154.07-.513 0-.655-.033-.088-.586.067-.658 0-.116-.118.088-.534 0-.67-.13-.086-.568.116-.675 0-.052-.06 0-.572 0-.662v-1.332c-.127-.087-.556.118-.658 0-.085-.08.032-.546 0-.663-.055-.184 0-.475 0-.667v-2.659c0-.08-.055-.628 0-.665.132-.106.52.088.658 0v-1.338c0-.194-.047-.48 0-.658.02-.068.62.047.674 0 .058-.068-.006-.57 0-.666.01-.14-.074-.556 0-.67.053-.098.575.09.657 0 .1-.098-.1-.592 0-.667.135-.08.563.12.673 0 .11-.106-.11-.547 0-.662.09-.092.594.107.66 0 .106-.152-.084-.5 0-.663.136-.085.562.112.674 0 .088-.09-.112-.59 0-.664.127-.096.55.106.656 0 .112-.106-.107-.56 0-.67.097-.094.6.11.666 0 .067-.084-.08-.62 0-.663.12-.07.526 0 .666 0h.668c.09-.15-.11-.538 0-.668.047-.048.588 0 .666 0h.66c.145-.088.56.11.67 0 .11-.11-.093-.532 0-.66H282.227c.156.08.527-.114.662 0 .02.01.02.64 0 .66-.107.11-.524-.088-.663 0M298.196 116.438v1.33c0 .206.043.473 0 .67-.022.114.08.586 0 .666-.094.087-.59-.105-.67 0-.1.154.097.496 0 .658-.055.137.11.568 0 .673-.093.09-.586-.115-.654 0-.092.13.098.556 0 .663-.114.105-.553-.107-.673 0-.093.09.104.596 0 .666-.146.102-.51-.102-.662 0-.105.063.08.56 0 .664h.66c.08 0 .63-.055.674 0 .098.132-.1.516 0 .668.06.1 0 .533 0 .66 0 .083-.065.624 0 .666.127.113.51-.087.654 0v1.332c-.128.09-.556-.11-.654 0-.072.055.003.566 0 .67-.015.213.013.445 0 .662-.015.214 0 .444 0 .663v1.323c0 .085.05.63 0 .663-.14.115-.523-.08-.673 0V131.734h-5.987v-1.322c.085-.132-.107-.56 0-.676.062-.062.633.098.666 0 .06-.132 0-.488 0-.663 0-.207-.02-.45 0-.656.02-.214 0-.45 0-.668v-1.996c0-.072.057-.628 0-.663-.133-.11-.534.108-.666 0-.122-.1-.55.11-.66 0-.12-.116.086-.535 0-.668v-1.326c.15-.092.525.112.66 0 .052-.045 0-.59 0-.668 0-.222-.018-.45 0-.664.01-.224 0-.444 0-.666v-.663H292.214v-2.668h-1.336c-.133.092-.554-.11-.666 0-.092.1.107.596 0 .67-.073.046-.634-.074-.66 0-.07.14 0 .504 0 .667v1.331c0 .075.044.62 0 .663-.07.05-.644-.077-.667 0-.06.158 0 .487 0 .666V125.092c0 .158.062.52 0 .662-.045.082-.603-.072-.66 0-.115.117.08.53 0 .67v1.992c0 .19.044.48 0 .656-.038.125.08.594 0 .663-.115.115-.542-.08-.674 0V131.734h-5.984v-1.322c.083-.132-.112-.56 0-.676.09-.082.58.115.664 0 .084-.114-.03-.508 0-.663.03-.197 0-.456 0-.656 0-.212-.035-.46 0-.668.03-.205 0-.452 0-.664 0-.195-.048-.477 0-.66.03-.123-.085-.59 0-.672.112-.11.528.09.66 0v-3.989c0-.08-.047-.628 0-.666.135-.104.52.09.674 0v-2.66c0-.14-.07-.546 0-.67.042-.098.576.074.658 0v-.667c0-.156-.06-.513 0-.662.035-.08.596.065.663 0 .113-.107-.072-.524 0-.664.058-.102.59.085.67 0 .068-.062-.004-.576 0-.663.014-.226-.01-.44 0-.67h.672c.152 0 .51.065.656 0 .09-.035-.07-.596 0-.663.112-.107.54.092.668 0 .09-.147-.11-.54 0-.668.048-.05.59 0 .674 0h1.327c.073-.103-.104-.59 0-.66.096-.067.545 0 .662 0h3.329c.165 0 .517-.064.664 0 .082.035-.077.596 0 .66.107.11.53-.088.663 0h.67c.08 0 .62-.05.662 0 .104.128-.088.52 0 .667.13.092.558-.107.672 0 .093.097-.114.594 0 .663.098.078.584-.094.654 0 .097.11-.023.522 0 .67.022.106-.07.585 0 .664.1.095.603-.11.67 0 .105.15-.077.494 0 .664M300.853 112.45H306.847v9.979c0 .215-.02.44 0 .667 0 .017.615-.023.662 0v-1.332c0-.172-.058-.518 0-.666.04-.09.592.072.667 0 .085-.09-.03-.554 0-.666.05-.19 0-.472 0-.67v-.66c0-.167-.06-.523 0-.665.038-.09.6.066.67 0 .108-.116-.086-.537 0-.672v-.668c0-.155-.07-.512 0-.66.036-.083.587.064.667 0 .09-.088-.055-.545 0-.665.055-.162 0-.5 0-.665 0-.16-.08-.524 0-.67.032-.08.593.074.656 0 .12-.11-.088-.527 0-.664v-1.325h5.992c.09 0 .6-.06.658 0 .023.02.023.64 0 .66-.112.112-.526-.087-.658 0v.666c0 .082.055.628 0 .665-.065.054-.646-.063-.663 0-.06.176 0 .493 0 .67 0 .177.05.498 0 .665-.046.12.088.582 0 .664-.07.064-.63-.083-.672 0-.06.148 0 .505 0 .66v.668c-.127.09-.55-.11-.666 0-.06.062 0 .57 0 .67 0 .178.067.5 0 .667-.057.127.102.568 0 .658-.06.067-.64-.075-.653 0-.07.17 0 .49 0 .67 0 .19.04.474 0 .666-.034.122.07.585 0 .665-.12.107-.542-.092-.672 0v.664c0 .158.055.515 0 .667-.035.077-.6-.077-.668 0-.09.095.052.53 0 .66-.06.158 0 .494 0 .664 0 .08.054.624 0 .67-.135.106-.517-.088-.664 0v.665c0 .165.06.52 0 .67-.032.078-.6-.076-.663 0-.09.09.05.53 0 .662-.067.154 0 .493 0 .663 0 .08.05.626 0 .666-.09.07-.628-.085-.673 0-.063.127 0 .518 0 .658 0 .172.065.53 0 .663-.033.095-.59-.064-.656 0-.117.115.105.56 0 .676-.107.11-.56-.112-.666 0-.1.095.107.59 0 .664-.155.1-.51-.088-.67 0-.088.127.106.56 0 .658-.06.067-.574 0-.67 0h-3.325c-.185 0-.474.057-.66 0-.06-.008.053-.61 0-.658-.06-.063-.572.007-.672 0-.21-.013-.438.007-.662 0v-1.34c-.13-.082-.552.115-.66 0-.066-.052 0-.556 0-.663-.01-.207.006-.436 0-.658v-3.995c-.01-.228.006-.44 0-.662-.01-.22 0-.45 0-.66v-.67c0-.196.04-.483 0-.663-.016-.065-.615.05-.675 0-.057-.065.008-.576 0-.666-.005-.23.008-.442 0-.666v-7.985zM323.476 113.11v2.665c0 .194.053.48 0 .663-.03.122.085.58 0 .663-.107.12-.53-.08-.66 0v3.335c0 .162.06.517 0 .664-.038.08-.597-.08-.664 0-.11.103.085.532 0 .664v2.659c0 .194.045.476 0 .668-.025.118.08.585 0 .664-.11.118-.536-.087-.66 0v2.664c0 .192.037.466 0 .655-.036.118.07.594 0 .664-.103.102-.604-.1-.68 0-.09.167.088.506 0 .675v1.322h-5.983v-1.322c.095-.132-.1-.56 0-.675.095-.083.6.114.67 0 .088-.12-.036-.492 0-.664.043-.19 0-.463 0-.655v-2.664c.133-.087.55.118.662 0 .082-.08-.025-.546 0-.663.047-.19 0-.473 0-.667V121.1c.135-.094.548.103.66 0 .073-.066 0-.567 0-.665.02-.224-.002-.448 0-.673.023-.214 0-.444 0-.658V117.1c.138-.08.562.12.67 0 .066-.063 0-.56 0-.662.01-.212-.01-.44 0-.663.01-.225 0-.444 0-.664v-2h.665c.09-.128-.102-.555 0-.66.087-.094.548.036.673 0 .175-.054.474 0 .663 0H323.477c.086 0 .627-.054.675 0 .02.026.02.64 0 .66-.11.11-.537-.088-.674 0M338.117 113.11V116.437c0 .122.065.57 0 .663-.073.11-.56-.08-.666 0-.09.13.106.557 0 .667-.08.09-.545-.03-.66 0-.192.05-.47 0-.668 0h-1.336c-.063 0-.617-.05-.664 0-.045.065.07.64 0 .67-.17.056-.486 0-.663 0h-.66c-.092.128.11.55 0 .667-.104.087-.598-.105-.67 0-.093.14.112.523 0 .658-.093.117-.562-.102-.666 0-.108.11.067.534 0 .673-.06.13.104.56 0 .664-.093.088-.59-.106-.66 0-.088.12.03.505 0 .664-.046.197 0 .454 0 .664v1.995c.126.087.55-.11.66 0 .1.087-.108.6 0 .668.134.083.556-.116.665 0 .112.11-.11.555 0 .664.094.093.593-.11.67 0 .038.07-.067.636 0 .67.157.05.494 0 .66 0h2.662V128.418c0 .19.047.478 0 .655-.03.125.075.594 0 .664-.11.114-.53-.08-.656 0v1.997h-5.329c-.092-.13.112-.546 0-.658-.077-.088-.55.027-.673 0-.182-.043-.462 0-.656 0-.18 0-.516.06-.67 0-.073-.033.06-.596 0-.664-.14-.092-.554.11-.67 0-.106-.11.116-.56 0-.675-.106-.105-.548.114-.667 0-.11-.105.1-.522 0-.664-.07-.097-.566.103-.658 0-.07-.055 0-.558 0-.655-.02-.217.01-.447 0-.67-.137-.086-.546.116-.66 0-.085-.08.02-.547 0-.662-.05-.192 0-.476 0-.66 0-.188.054-.502 0-.672-.033-.072-.612.055-.68 0-.05-.072.01-.57 0-.663 0-.226.02-.448 0-.667v-1.327c0-.187-.04-.486 0-.668.036-.122-.076-.58 0-.664.12-.12.547.083.68 0v-1.33c0-.19-.05-.487 0-.672.01-.057.605.057.66 0 .06-.057-.002-.568 0-.658.01-.227-.012-.442 0-.666.135-.087.55.107.66 0 .066-.065-.004-.57 0-.67.014-.13-.07-.557 0-.667.076-.098.57.084.667 0 .096-.13-.108-.547 0-.662.114-.115.557.115.667 0 .122-.115-.11-.55 0-.663.122-.11.56.112.67 0 .108-.11-.11-.56 0-.664.108-.106.55.106.657 0 .12-.106-.107-.56 0-.67.12-.11.54.09.673 0 .087-.144-.107-.528 0-.663.032-.055.58 0 .668 0h.66c.083-.134-.11-.556 0-.668.066-.058.572 0 .664 0 .22-.006.45.014.67 0 .085-.126-.11-.567 0-.66.058-.062.564 0 .66 0h4.657c.082 0 .62-.054.67 0 .02.026.02.64 0 .66-.117.11-.533-.088-.67 0M352.757 113.11v3.99c-.132.094-.56-.106-.668 0-.07.076.086.637 0 .667-.146.065-.5 0-.664 0h-2c-.177 0-.482-.05-.664 0-.12.035-.578-.08-.665 0-.068.07.084.63 0 .67-.155.058-.494 0-.656 0-.166 0-.525-.064-.673 0-.08.033.073.59 0 .667-.11.104-.523-.095-.665 0 .09.134-.11.546 0 .658.067.067.568-.005.665 0 .22.013.447-.007.674 0 .213.013.442 0 .657 0H352.088v1.337c-.123.088-.547-.11-.664 0-.093.088.034.54 0 .664-.053.175 0 .482 0 .664v1.995h-5.99v1.33h.665c.16 0 .528-.07.665 0 .09.034-.072.595 0 .672.073.067.556-.032.674 0 .195.035.45 0 .657 0H350.756V129.736c-.123.102-.552-.105-.657 0-.063.072 0 .573 0 .675v1.322h-5.33c-.187 0-.486.062-.666 0-.065-.015.06-.603 0-.658-.115-.105-.526.09-.656 0-.137-.088-.56.112-.67 0-.115-.105.092-.53 0-.664-.135-.092-.557.11-.674 0-.065-.07.093-.63 0-.675-.142-.053-.496 0-.656 0h-.665v-.664c0-.154.06-.513 0-.655-.035-.088-.6.067-.67 0-.106-.118.09-.534 0-.67-.123-.086-.565.116-.667 0-.057-.06 0-.572 0-.662v-1.332c-.132-.087-.55.118-.66 0-.088-.08.037-.546 0-.663-.05-.184 0-.475 0-.667v-2.659c0-.08-.05-.628 0-.665.13-.106.515.088.66 0v-1.338c0-.194-.04-.48 0-.658.02-.068.61.047.668 0 .058-.068-.002-.57 0-.666.015-.14-.08-.556 0-.67.058-.098.584.09.67 0 .08-.098-.114-.592 0-.667.128-.08.552.12.664 0 .105-.106-.112-.547 0-.662.085-.092.59.107.656 0 .108-.152-.08-.5 0-.663.14-.085.56.112.674 0 .092-.09-.105-.59 0-.664.132-.096.56.106.67 0 .105-.106-.11-.56 0-.67.08-.094.59.11.656 0 .06-.084-.08-.62 0-.663.125-.07.53 0 .666 0h.668c.085-.15-.11-.538 0-.668.04-.048.59 0 .664 0h.665c.13-.088.556.11.674 0 .11-.11-.097-.532 0-.66H352.757c.148.08.532-.114.667 0 .022.01.022.64 0 .66-.115.11-.53-.088-.666 0" fill="#fff" fill-rule="evenodd"/><path d="M38.547 149.27h17.98v5.15h-5.774v14.465h-6.43V154.42h-5.776v-5.15zM60.98 161.612c0 2.698 1.006 3.868 2.45 3.868 1.526 0 2.454-1.17 2.454-3.868 0-2.097-.928-3.678-2.4-3.596-1.934 0-2.505 1.988-2.505 3.596m2.425-7.41c5.04 0 8.144 2.97 8.144 7.41 0 5.232-3.542 7.683-8.12 7.683-4.576 0-8.117-2.506-8.117-7.384 0-4.956 3.27-7.71 8.092-7.71M83.926 161.885c0-1.58-.546-3.297-2.427-3.297-1.88 0-2.397 1.798-2.397 3.38 0 1.495.38 3.24 2.234 3.24 1.963 0 2.59-1.66 2.59-3.323m.38 7.002v-1.908c-1.334 1.742-2.56 2.316-4.386 2.316-4.306 0-6.485-3.244-6.485-7.277 0-4.74 2.646-7.818 6.05-7.818 1.797 0 3.052.436 4.25 1.853v-6.786H89.4v19.617h-5.095zM97.337 161.612c0 2.698 1.008 3.868 2.452 3.868 1.525 0 2.452-1.17 2.452-3.868 0-2.097-.927-3.678-2.398-3.596-1.935 0-2.507 1.988-2.507 3.596m2.424-7.41c5.043 0 8.148 2.97 8.148 7.41 0 5.232-3.54 7.683-8.12 7.683-4.575 0-8.116-2.506-8.116-7.384 0-4.956 3.27-7.71 8.09-7.71M129.632 160.14c0-1.305-1.172-2.48-2.506-2.48-1.688 0-2.64.955-2.64 2.48h5.146zm-5.147 2.89c0 1.687 1.307 2.804 2.805 2.804.898 0 1.716-.41 2.125-1.252h5.42c-.98 3.54-4.577 4.713-7.9 4.713-4.577 0-8.118-2.615-8.118-7.41 0-4.686 3.514-7.684 8.092-7.684 5.283 0 8.472 3.652 8.388 8.83h-10.813zM137.46 154.61h5.176v2.234c1.28-1.716 2.668-2.643 4.822-2.643 3.758 0 5.53 2.207 5.53 6.13v8.556h-5.667v-7.546c0-1.416-.38-2.67-1.99-2.67-1.742 0-2.206 1.116-2.206 2.942v7.274h-5.665V154.61zM177.546 156.762c-.192-2.042-1.472-3.214-3.487-3.214-2.262 0-3.626 1.933-3.626 5.72 0 2.75.6 5.34 3.87 5.34 2.07 0 3.05-1.445 3.294-3.325h6.184c-.57 5.07-4.194 8.12-9.368 8.12-6.486 0-10.41-3.978-10.41-10.352 0-6.347 4.305-10.297 9.78-10.297 5.996 0 9.347 2.97 9.864 8.01h-6.102zM191.23 161.612c0 2.698 1.008 3.868 2.45 3.868 1.528 0 2.455-1.17 2.455-3.868 0-2.097-.927-3.678-2.4-3.596-1.934 0-2.505 1.988-2.505 3.596m2.427-7.41c5.04 0 8.144 2.97 8.144 7.41 0 5.232-3.54 7.683-8.12 7.683-4.574 0-8.115-2.506-8.115-7.384 0-4.956 3.27-7.71 8.092-7.71M214.314 161.72c0-2.26-.983-3.324-2.48-3.324-1.363 0-2.288 1.31-2.288 3.217 0 1.988.845 3.35 2.316 3.35 1.497 0 2.452-1.28 2.452-3.243m-5.232-7.11v2.126h.055c.79-1.743 2.833-2.534 4.468-2.534 4.305 0 6.374 3.514 6.374 7.436 0 5.613-3.487 7.658-6.674 7.658-1.553 0-2.698-.628-3.65-1.825v6.265h-5.67V154.61h5.096zM222.657 154.61h5.665v14.276h-5.665V154.61zm0-5.858h5.665v4.032h-5.665v-4.032zM240.886 162.566c-1.852.897-4.304.463-4.304 2.316 0 .708.68 1.197 1.798 1.197 1.988 0 2.644-1.552 2.506-3.514m.572 6.32l-.272-1.525c-1.606 1.5-3.242 1.936-5.367 1.936-2.7 0-5.095-1.337-5.095-4.307 0-6.484 10.16-3.542 10.16-6.212 0-1.035-1.25-1.17-1.85-1.17-.792 0-1.854.162-1.99 1.39h-5.45c0-3.026 2.155-4.796 7.793-4.796 6.758 0 7.164 2.506 7.164 5.912v6.673c0 .818.03 1.227.766 1.826v.274h-5.86zM259.61 161.885c0-1.58-.545-3.297-2.426-3.297-1.88 0-2.396 1.798-2.396 3.38 0 1.495.382 3.24 2.234 3.24 1.963 0 2.59-1.66 2.59-3.323m.38 7.002v-1.908c-1.334 1.742-2.56 2.316-4.386 2.316-4.307 0-6.486-3.244-6.486-7.277 0-4.74 2.646-7.818 6.05-7.818 1.797 0 3.052.436 4.25 1.853v-6.786h5.667v19.617h-5.095zM273.023 161.612c0 2.698 1.007 3.868 2.45 3.868 1.527 0 2.455-1.17 2.455-3.868 0-2.097-.928-3.678-2.4-3.596-1.934 0-2.505 1.988-2.505 3.596m2.423-7.41c5.043 0 8.147 2.97 8.147 7.41 0 5.232-3.54 7.683-8.12 7.683-4.575 0-8.116-2.506-8.116-7.384 0-4.956 3.27-7.71 8.09-7.71M286 154.61h5.145v2.887h.055c.79-2.232 2.18-3.296 4.39-3.296.243 0 .488.055.735.083v5.668c-.384-.054-.79-.164-1.172-.164-2.317 0-3.49 1.09-3.49 4.17v4.93H286V154.61zM307.525 162.566c-1.853.897-4.304.463-4.304 2.316 0 .708.68 1.197 1.8 1.197 1.986 0 2.642-1.552 2.505-3.514m.57 6.32l-.27-1.525c-1.607 1.5-3.243 1.936-5.367 1.936-2.7 0-5.095-1.337-5.095-4.307 0-6.484 10.162-3.542 10.162-6.212 0-1.035-1.252-1.17-1.853-1.17-.79 0-1.853.162-1.99 1.39h-5.45c0-3.026 2.156-4.796 7.794-4.796 6.758 0 7.164 2.506 7.164 5.912v6.673c0 .818.03 1.227.766 1.826v.274h-5.86zM321.154 164.445c0 .572.217 1.008.6 1.307.353.274.844.437 1.388.437.873 0 1.8-.273 1.8-1.28 0-2.29-8.747-.465-8.747-5.995 0-3.65 3.787-4.713 6.757-4.713 3.105 0 6.756.708 7.085 4.496h-5.15c-.054-.464-.246-.79-.546-1.038-.298-.244-.707-.35-1.143-.35-.98 0-1.606.298-1.606 1.006 0 1.988 9.018.653 9.018 5.992 0 2.97-2.45 4.988-7.683 4.988-3.27 0-6.865-1.008-7.167-4.85h5.396z" fill="#3f4388"/></svg>