<?xml version="1.0" encoding="UTF-8" standalone="no"?>
<!-- Created with Inkscape (http://www.inkscape.org/) -->

<svg
   xmlns:dc="http://purl.org/dc/elements/1.1/"
   xmlns:cc="http://creativecommons.org/ns#"
   xmlns:rdf="http://www.w3.org/1999/02/22-rdf-syntax-ns#"
   xmlns:svg="http://www.w3.org/2000/svg"
   xmlns="http://www.w3.org/2000/svg"
   xmlns:sodipodi="http://sodipodi.sourceforge.net/DTD/sodipodi-0.dtd"
   xmlns:inkscape="http://www.inkscape.org/namespaces/inkscape"
   id="svg2"
   version="1.1"
   inkscape:version="0.92.1 r15371"
   width="600"
   height="481.51721"
   viewBox="0 0 562.50002 451.42237"
   sodipodi:docname="mozilla_nicaragua.svg"
   inkscape:export-filename="/home/keik/Escritorio/IMAGEN MOZILLA CENTROAMERICA/Nicaragua/LogoNi_MozillaCOLOR.png"
   inkscape:export-xdpi="100"
   inkscape:export-ydpi="100">
  <title
     id="title4536">LogoMozillaHonduras</title>
  <metadata
     id="metadata8">
    <rdf:RDF>
      <cc:Work
         rdf:about="">
        <dc:format>image/svg+xml</dc:format>
        <dc:type
           rdf:resource="http://purl.org/dc/dcmitype/StillImage" />
        <dc:title>LogoMozillaHonduras</dc:title>
        <cc:license
           rdf:resource="http://creativecommons.org/licenses/by-nd/4.0/" />
        <dc:creator>
          <cc:Agent>
            <dc:title>KarlaLHdz</dc:title>
          </cc:Agent>
        </dc:creator>
        <dc:source>Mozilla El Salvador</dc:source>
        <dc:description>Hecho para Mozilla Centroamerica en el año 2017</dc:description>
      </cc:Work>
      <cc:License
         rdf:about="http://creativecommons.org/licenses/by-nd/4.0/">
        <cc:permits
           rdf:resource="http://creativecommons.org/ns#Reproduction" />
        <cc:permits
           rdf:resource="http://creativecommons.org/ns#Distribution" />
        <cc:requires
           rdf:resource="http://creativecommons.org/ns#Notice" />
        <cc:requires
           rdf:resource="http://creativecommons.org/ns#Attribution" />
      </cc:License>
    </rdf:RDF>
  </metadata>
  <defs
     id="defs6" />
  <sodipodi:namedview
     pagecolor="#ffffff"
     bordercolor="#666666"
     borderopacity="1"
     objecttolerance="10"
     gridtolerance="10"
     guidetolerance="10"
     inkscape:pageopacity="0"
     inkscape:pageshadow="2"
     inkscape:window-width="1280"
     inkscape:window-height="656"
     id="namedview4"
     showgrid="false"
     showborder="true"
     inkscape:zoom="0.3140839"
     inkscape:cx="548.92566"
     inkscape:cy="385.00194"
     inkscape:window-x="0"
     inkscape:window-y="27"
     inkscape:window-maximized="1"
     inkscape:current-layer="layer2"
     borderlayer="true"
     inkscape:showpageshadow="false"
     units="px"
     showguides="true"
     fit-margin-top="100"
     fit-margin-left="100"
     fit-margin-right="100"
     fit-margin-bottom="100"
     inkscape:guide-bbox="true" />
  <g
     inkscape:groupmode="layer"
     id="layer2"
     inkscape:label="Layer 2"
     style="opacity:1"
     transform="translate(20.14384,68.761235)">
    <g
       id="g4510">
      <path
         inkscape:connector-curvature="0"
         id="path4175"
         d="m 436.78533,24.990785 c -0.73625,-0.09009 -4.83284,2.858349 -6.44244,4.012134 -4.73174,3.391872 -13.40788,13.255185 -13.40788,13.255185 0,0 8.51791,-9.887405 11.99399,-14.793706 2.15988,-3.048516 -5.9797,3.901911 -8.66238,6.34815 -3.09564,2.822846 -8.47617,9.518829 -8.47617,9.518829 0,0 5.19547,-7.950357 7.74003,-12.193128 1.87257,-3.122299 -5.97232,3.57786 -8.24551,6.333194 -2.86012,3.466775 -5.04984,6.218214 -5.87157,7.042066 -0.8217,0.823879 7.09449,-11.618238 3.90493,-8.401475 -3.63401,3.665025 -11.04665,14.218843 -12.00971,14.888898 -0.96306,0.670086 0.47453,-2.636028 1.14045,-7.348986 0.63357,-4.48388 -5.09417,4.639348 -8.47379,9.676877 -0.91003,1.356447 1.42883,-6.066224 0.20092,-5.091217 -2.995,2.378115 -2.93836,5.983189 -5.4475,7.504649 -1.93845,1.17547 -4.6372,-0.572607 -6.52351,0.710724 -1.17801,0.801452 -1.53314,3.469772 -2.30448,3.894839 -2.26917,1.250483 -7.49558,0.74561 -7.49558,0.74561 0,0 -5.68447,-1.12553 -8.20058,0.136115 -0.96484,0.48381 -1.19596,2.208353 -2.18538,2.619851 -1.1935,0.496376 -2.5316,-0.860102 -3.76043,-0.499867 -2.27254,0.666132 -3.65455,3.480224 -5.76921,4.655103 -6.37134,3.539762 -13.87908,3.591309 -20.33248,6.926117 -4.18452,2.162385 -7.64242,5.876092 -11.69007,8.362298 -3.07205,1.886972 -10.13879,1.059633 -9.51867,4.948884 0.26174,1.641789 5.94006,-1.049771 4.32002,0.640215 -2.58253,2.694029 -6.76844,3.2596 -8.79929,6.511146 -1.68262,2.694105 -2.07995,9.60791 -2.07995,9.60791 0,-1e-5 -18.44467,-1.91668 -27.38206,0.34651 -8.25518,2.09045 -23.17637,11.95296 -23.17637,11.95296 0,0 -22.65053,-7.02217 -34.31248,-7.50691 -5.47873,-0.22772 -16.37247,2.17669 -16.37247,2.17669 0,0 6.95424,2.96674 6.20722,5.97275 -1.32066,5.31439 -5.96933,0.45527 -14.27852,2.73636 -3.34787,0.91908 13.0391,3.24882 9.65278,3.94362 -6.28602,1.28977 -7.17153,0.0719 -11.92612,2.01717 -1.75228,0.71692 3.93557,2.92152 3.41164,4.96162 -1.83491,7.14481 -24.66436,5.92685 -18.37442,7.64994 14.90033,4.08184 25.59083,2.64417 38.39741,1.79966 10.77441,-0.71052 21.4463,-7.96599 32.02794,-5.75652 4.10018,0.85612 6.92912,5.37368 10.81102,7.07942 1.95165,0.85758 6.14016,1.52707 6.14016,1.52707 0,0 -6.17305,-0.83303 -8.74619,0.79047 -1.45274,0.91659 -1.68185,3.38619 -2.99037,4.5554 -1.93127,1.72553 -5.24501,1.06151 -6.76277,3.26189 -0.32289,0.46808 0.26458,1.69492 -0.25126,1.75637 -3.08557,0.36779 -7.00052,-0.72534 -12.05962,2.33937 -0.91411,0.55373 1.84887,2.79362 1.84887,2.79362 l 14.47909,1.38715 c 0,0 -15.09449,-1.17198 -21.50748,2.67719 -1.22648,0.73614 -3.14792,2.10182 -2.72615,3.59372 0.58489,2.06887 5.58161,1.38785 5.58161,1.38785 0,0 -4.5217,1.56427 -5.92424,3.5492 -0.82536,1.16806 -2.35172,4.30989 -1.04764,4.32755 3.81176,0.0516 9.17126,-0.32906 9.17126,-0.32906 0,0 -10.27458,0.88304 -12.71201,5.22274 -0.70706,1.2589 -0.95027,4.33412 0.34566,4.43565 4.76735,0.37358 10.14228,-0.36389 10.14228,-0.36389 0,0 -6.72217,2.70682 -11.88681,4.55719 -1.84105,0.65961 -3.34909,6.59611 -1.43242,6.40615 4.06326,-0.40277 12.89342,-2.36814 12.89342,-2.36814 0,0 -6.52405,3.77405 -14.76665,7.20196 -1.87823,0.78111 -3.31054,4.27072 -2.40784,6.28299 0.36702,0.8182 2.37152,0.54972 2.37152,0.54972 l 22.17182,-4.76696 -19.61308,8.48844 c 0,0 -4.9904,3.05981 -4.64349,5.56917 0.14858,1.07461 2.52521,1.49744 2.52521,1.49744 l 14.66427,-4.81612 -16.52074,10.76079 c 0,0 -1.85767,1.99581 -1.34679,2.90831 0.76953,1.37446 4.30564,-0.31259 4.30564,-0.31259 l 12.06903,-5.06578 -15.08335,8.03274 c 0,0 -4.76565,2.8124 -4.09591,4.91361 0.25458,0.79856 2.22747,0.23749 2.22747,0.23749 l 15.47648,-6.2741 -13.78502,7.80266 c 0,0 -10.38042,3.78062 -9.4698,8.12451 0.29548,1.40942 3.76285,0.65902 3.76285,0.65902 l 9.09701,-5.25115 -12.93688,8.72555 c 0,0 -2.92594,2.52018 -2.30448,3.896 0.50759,1.12367 3.33742,0.0395 3.33742,0.0395 l 12.82632,-6.81609 -14.86521,9.90734 c -1e-5,-10e-6 -7.17668,5.02734 -5.85478,8.15408 0.56123,1.32755 3.89014,-0.13959 3.89014,-0.13959 l 18.31217,-11.77841 -17.45445,13.33689 c 0,0 -6.22363,4.01789 -4.90912,6.3716 1.02746,1.83973 5.53235,-1.94588 5.53235,-1.94588 l 20.64464,-14.55356 -16.07441,13.43625 c 0,0 -8.88204,7.28649 -6.51332,10.561 2.10169,2.9054 9.10318,-4.77586 9.10318,-4.77586 l 19.44405,-17.75477 c 0,0 -13.16762,13.60748 -17.42952,22.28984 -0.67084,1.36633 -2.19991,3.47105 -1.18355,4.49172 1.56696,1.57358 4.32748,-1.19491 5.78691,-2.94528 7.25359,-8.6996 22.13921,-25.00837 22.13921,-25.00837 0,0 -12.55739,16.48525 -17.51621,26.78609 -0.83611,1.73683 -1.7765,4.63358 -0.46758,5.89483 0.93849,0.90431 2.52761,-0.35898 3.59821,-1.08243 6.01474,-4.06433 14.47506,-17.36068 14.47506,-17.36068 0,0 8.90036,-14.40752 13.86143,-21.15081 7.1334,-9.69593 16.15022,-17.53487 22.79901,-27.66809 5.65386,-8.61691 11.7159,-17.52163 14.317,-27.84044 3.40229,-13.49723 -1.33012,-28.21308 1.03524,-41.98115 0.73096,-4.25466 4.00515,-12.2022 4.00515,-12.2022 l 11.81018,-3.6796 1.48204,-8.80855 c 0,0 -4.45802,-0.51237 -6.69633,-0.6334 -2.12884,-0.11522 -6.39618,-0.0879 -6.39618,-0.0879 0,0 1.92863,-3.38899 3.0337,-5.09707 1.56969,-2.42624 5.13994,-6.00018 5.13994,-6.00018 l -1.82253,-1.04608 c 0,0 7.27382,-11.15724 12.4328,-14.427435 4.14823,-2.62952 9.13695,-3.264769 13.84967,-3.516158 3.8439,-0.205029 11.42506,1.655989 11.42506,1.655989 0,0 12.2239,-4.988745 18.3792,-7.332733 11.28749,-4.298369 23.01296,-7.136072 34.01412,-12.341781 5.25196,-2.485211 10.42491,-5.346608 15.15718,-8.96451 5.51404,-4.215573 9.87331,-10.178636 15.21024,-14.685187 7.75845,-6.551305 17.14864,-10.516392 24.3374,-17.872662 1.82465,-1.867187 4.32644,-5.100633 4.62909,-6.521984 0.37899,-1.779835 -3.11283,0.960793 -4.56165,1.752945 -2.69504,1.473488 -5.02539,3.707044 -7.56303,5.514649 -4.14664,2.953742 -12.52001,8.710607 -12.52001,8.710607 0,0 7.53729,-5.884425 10.98222,-9.291359 2.44512,-2.418162 4.81459,-4.984601 6.83264,-7.871773 0.62986,-0.901139 1.141,-1.377776 1.62339,-2.91707 0.50241,-1.60314 -2.99349,0.576169 -4.28789,1.424571 -3.26359,2.13911 -5.72346,5.865668 -8.61183,8.626924 -3.31539,3.169497 -8.06543,6.554102 -8.06543,6.554102 0,0 5.09949,-4.916458 8.43178,-8.847832 2.18176,-2.574011 4.22782,-4.83031 6.27407,-8.009841 0.25991,-0.403871 0.26884,-0.586345 0.0989,-0.607173 z M 104.17526,98.132772 c -0.82487,0.04914 -1.64518,0.157445 -2.44919,0.326788 -0.6212,0.130834 -1.41424,0.557464 -1.997645,1.071163 -0.73598,0.648047 -1.731282,1.424337 -1.789105,2.442887 -0.03451,0.60953 0.851342,0.90172 0.886264,1.51012 0.05679,0.99007 -1.167821,1.70093 -1.147056,2.6934 0.03407,1.62692 2.061663,4.24485 2.061663,4.24485 0,0 -3.300038,-2.42913 -3.359482,-4.38293 -0.0143,-0.46834 0.643013,-0.67921 0.738281,-1.13679 0.186133,-0.89401 -0.677997,-1.82868 -0.418431,-2.69955 0.329635,-1.10575 1.372299,-2.273766 2.428427,-3.244868 -3.244071,0.630021 -6.801103,1.593878 -7.303369,4.783998 -0.609926,3.87394 4.225381,6.50736 7.311084,8.18256 2.050779,1.11334 4.522389,1.19434 6.793029,0.88734 4.81193,-0.6506 13.70595,-5.68083 13.70595,-5.68083 l 71.36324,1.78139 c 0.74691,-0.46762 1.06277,-0.84934 3.29835,-1.61412 -3e-5,0 -63.21497,-2.37832 -74.67818,-1.73515 0,0 -5.04276,-5.05269 -8.14383,-6.278369 -2.30208,-0.909868 -4.82531,-1.299472 -7.3,-1.151889 z m 221.83901,-0.281086 c -3.67325,0.157347 -7.32632,0.933672 -10.68094,2.482614 -5.29203,2.44347 -13.29869,12.39257 -13.29869,12.39257 l 3.08376,1.63671 c -7.29594,3.43933 -7.10252,6.61058 -9.72201,9.88209 4.46045,0.0629 8.94357,0.0925 11.9908,2.27049 l -0.87485,6.54539 c 0,0 6.83906,-3.79356 10.49308,-4.82574 3.21112,-0.90723 9.85375,-1.1476 9.85375,-1.1476 0,0 -6.30951,1.10854 -9.2784,2.39884 -4.84437,2.1054 -8.84759,6.31348 -13.63374,8.59128 -3.24189,1.54286 -10.0978,3.38157 -10.0978,3.38157 -3.31896,7.21097 -4.69537,14.24311 -4.12063,21.75463 0,0 16.71572,-0.89201 23.9728,-5.15012 4.81208,-2.82352 7.78755,-8.99856 11.76329,-12.81414 5.99335,-5.75195 12.91718,-7.96366 18.5538,-14.17038 2.52548,-2.7809 5.58278,-8.31166 5.58278,-8.31166 0,0 -2.8258,-2.07219 -4.34371,-1.74157 -4.99437,1.08789 -6.41163,8.43689 -11.64556,11.37993 -4.62806,2.60237 -14.35933,6.55257 -14.35933,6.55257 l 11.83447,-13.11678 c 0,0 -4.15035,-4.36291 -6.41531,-5.50709 -3.22083,-1.62704 -10.57933,-0.89112 -10.57933,-0.89112 0,0 4.98806,-3.8819 7.85497,-4.57179 2.5556,-0.61497 7.79329,0.5145 7.79329,0.5145 0,0 4.68692,-2.24637 7.06295,-1.84153 1.3957,0.23781 3.65089,2.41042 3.65089,2.41042 l 6.92261,-1.83765 c 0,0 8.08125,-2.80723 6.59339,-5.32056 -3.46501,-5.85313 -12.41661,-8.843248 -19.4788,-10.263195 -2.75108,-0.553134 -5.62055,-0.804979 -8.47754,-0.682617 z M 198.38841,102.8741 c 0,0 3.92064,6.02416 2.21583,5.49272 -3.95662,-1.23336 -6.68796,-0.0173 -9.26412,2.07401 -1.27234,1.03284 -2.36841,4.61385 -2.36841,4.61385 0,0 -6.71395,0.60346 -8.94452,3.10704 -1.11932,1.2563 -0.38965,3.778 -1.44704,5.10246 -1.40825,1.7639 -5.74843,2.81809 -5.74843,2.81809 0,0 1.60811,4.52032 0.86185,6.58696 -1.24265,3.4412 -7.82352,6.72432 -7.82352,6.72432 0,0 1.84349,-0.0403 2.73886,-0.27258 9.44727,-2.45039 23.48986,-9.15378 20.74888,-8.58111 -0.67177,0.14036 -5.547,-3.98014 -5.547,-3.98014 l 8.95241,-2.58565 -5.99534,-3.44237 c 0,0 8.86972,-2.96671 17.17162,-3.22797 3.412,-0.10732 -8.32947,-6.66757 -8.32947,-6.66757 l 18.55289,-2.58154 -10.74351,-5.01247 z m 157.57279,8.87119 c 0,0 -3.72676,3.23226 -4.6425,5.56799 -0.59316,1.51292 -0.34265,4.93819 -0.34265,4.93819 0,0 2.78842,0.19876 4.17115,0.008 3.53258,-0.48541 10.38255,-2.91394 10.38255,-2.91394 l -7.78612,-0.0392 -5.15279,-0.60916 c 0,0 4.19764,-0.23106 6.11625,-0.0602 4.71072,0.41951 14.18474,0.28511 14.18474,0.28511 z m -2.55035,0.78631 c 0,0 -0.1581,0.13174 -0.21566,0.17707 0.13665,-0.0861 0.22538,-0.15318 0.21566,-0.17707 z m -0.21566,0.17707 c -1.24347,0.78318 -8.077,3.83356 -12.17979,4.01371 -1.31124,0.0576 -0.18878,3.20523 -1.11674,4.23654 -1.36219,1.51395 -3.61706,1.9945 -5.48157,1.69593 -1.74886,-0.28007 -3.78235,-1.3016 -4.50611,-3.13572 -0.38208,-0.9682 1.62155,-2.96399 0.47643,-3.16445 -3.6144,-0.63266 -5.62269,-1.11039 -8.40154,-0.59761 -1.38134,0.25488 -3.90774,1.7883 -3.90774,1.7883 l -1.826,0.66569 c 0,0 5.22779,-0.94121 7.60618,0.026 3.40056,1.38292 8.37976,7.79221 8.37976,7.79221 l -6.95582,8.34245 c 0,0 5.3322,-2.12295 7.67869,-3.87184 2.58534,-1.92691 4.43747,-4.92733 6.84367,-7.13926 1.4835,-1.36371 2.81094,-3.30428 4.66363,-3.76482 1.75564,-0.4364 3.99714,2.62991 5.26308,1.16037 0.66008,-0.76622 -0.83069,-2.09688 -0.5713,-3.12687 0.51407,-2.04118 3.47085,-4.47023 4.03517,-4.92064 z M 85.623816,123.44058 c -0.351043,0.007 -0.701607,0.0353 -1.05104,0.0874 -0.599753,0.0894 -1.247586,0.19924 -1.908922,0.32357 -1.7312,1.12683 -3.544907,2.67185 -3.871146,4.34808 -0.185774,0.95442 1.29575,1.57435 1.226108,2.54706 -0.0395,0.55432 -0.84923,0.77482 -0.89801,1.32832 -0.12996,1.47527 1.732996,3.94732 1.732996,3.94732 0,0 -2.793344,-2.55439 -2.710514,-4.3439 0.01407,-0.30543 0.463374,-0.40049 0.52979,-0.69765 0.223446,-0.99962 -0.928354,-2.04548 -0.585593,-3.00171 0.562974,-1.5705 2.347542,-2.97478 4.084008,-4.02792 -3.454308,0.70248 -7.242776,2.06213 -8.052793,5.51609 -0.592718,2.52773 1.96189,4.96151 3.837525,6.41554 3.319291,2.5732 7.740828,3.19682 11.777196,3.03987 4.074888,-0.15844 11.766129,-3.98849 11.766129,-3.98849 l 68.49541,-0.20475 c 0.93955,-0.30851 1.73992,-0.91875 2.2133,-2.24113 l -70.41643,-0.004 c 0,0 -5.63692,-5.38015 -8.975784,-6.99986 -2.255259,-1.09403 -4.734931,-2.09045 -7.192248,-2.04327 z M 335.50737,115.1799 a 3.2536786,4.1031319 85.924339 0 0 -4.05002,3.40231 3.2536786,4.1031319 85.924339 0 0 4.14823,3.10816 3.2536786,4.1031319 85.924339 0 0 4.05,-3.40232 3.2536786,4.1031319 85.924339 0 0 -4.14821,-3.10815 z"
         style="display:inline;opacity:1;fill:#808080;fill-opacity:1;fill-rule:nonzero;stroke:none;stroke-width:1.65786755;stroke-linecap:round;stroke-linejoin:round;stroke-miterlimit:4;stroke-dasharray:none;stroke-dashoffset:0;stroke-opacity:1" />
      <rect
         y="152.36221"
         x="317.96396"
         height="76.588425"
         width="130.6422"
         id="rect4489-3"
         style="opacity:1;fill:#0055d4;fill-opacity:1;stroke:none;stroke-width:1.09320986;stroke-linecap:round;stroke-linejoin:round;stroke-miterlimit:4;stroke-dasharray:none;stroke-opacity:1;paint-order:stroke markers fill" />
      <g
         transform="matrix(0.69857896,0,0,0.71872458,-311.13569,140.67773)"
         id="g4491">
        <rect
           x="550.74927"
           id="rect4-6"
           height="106.92123"
           width="374.06848"
           y="16.193968"
           style="opacity:1;stroke-width:1.03907907" />
        <path
           style="opacity:1;fill:#ffffff;stroke-width:1.03907907"
           inkscape:connector-curvature="0"
           id="path6-7"
           d="m 907.98463,96.566727 c -0.7273,0.207819 -1.35075,0.311723 -1.97419,0.311723 -2.18212,0 -3.2212,-0.935168 -3.2212,-3.636774 V 72.979634 c 0,-10.702513 -8.52046,-15.897909 -18.59946,-15.897909 -7.68924,0 -11.84554,0.935171 -20.05428,4.260224 l -1.66252,10.806422 10.70252,1.142988 1.55861,-5.299304 c 2.18207,-1.142987 4.36413,-1.350803 7.16969,-1.350803 7.58522,0 7.68918,5.714935 7.68918,10.494698 v 1.558619 c -2.38993,-0.311723 -5.09153,-0.415631 -7.68918,-0.415631 -10.70256,0 -21.8207,2.701605 -21.8207,14.235383 0,9.767349 7.68918,13.404119 14.44319,13.404119 7.58533,0 12.3651,-4.57195 15.06669,-9.351713 0.62345,5.714943 4.05236,9.351713 10.28683,9.351713 2.90943,0 5.92281,-0.83126 8.4166,-2.18206 z m -28.67858,-0.311722 c -4.0524,0 -5.50711,-2.389881 -5.50711,-5.403211 0,-5.091487 4.15636,-6.44229 8.93613,-6.44229 2.182,0 4.57194,0.311724 6.75395,0.623447 -0.31166,7.793094 -5.40321,11.222054 -10.18297,11.222054 z M 861.32999,33.390723 841.06794,104.77545 h -13.19631 l 20.26204,-71.384727 z m -27.22388,0 -20.26204,71.384727 H 800.64776 L 820.9098,33.390723 Z m -56.11027,24.626173 h 14.02757 v 16.833081 h -14.02757 z m 0,30.029385 h 14.02757 v 16.833079 h -14.02757 z m -20.46987,-0.623448 10.59862,1.039079 -2.90942,16.417448 h -40.83582 l -1.3508,-7.065732 25.76916,-29.613758 H 734.1467 l -2.07817,7.273554 -9.66343,-1.039079 1.66253,-16.417449 h 41.04363 l 1.03908,7.065737 -25.97699,29.613753 h 15.17056 z m -67.0206,-30.341108 c -16.83308,0 -25.14571,11.325962 -25.14571,25.041805 0,14.962738 9.97516,23.79491 24.41836,23.79491 14.96274,0 25.76915,-9.455617 25.76915,-24.418357 0,-13.092396 -8.20872,-24.418358 -25.0418,-24.418358 z m -0.31172,38.445925 c -7.27356,0 -11.01424,-6.234474 -11.01424,-14.339291 0,-8.832172 4.26022,-13.923659 11.11815,-13.923659 6.33838,0 11.42986,4.260224 11.42986,13.715843 0,9.039988 -4.57194,14.547107 -11.53377,14.547107 z m -36.88731,-0.935172 h 6.23448 V 104.77545 H 640.00614 V 78.486753 c 0,-8.104816 -2.70161,-11.222053 -8.00092,-11.222053 -6.44229,0 -9.03998,4.571948 -9.03998,11.118146 v 16.31354 h 6.23447 v 10.182974 h -19.6386 V 78.486753 c 0,-8.104816 -2.7016,-11.222053 -8.0009,-11.222053 -6.44229,0 -9.03999,4.571948 -9.03999,11.118146 v 16.31354 h 8.93608 V 104.87936 H 572.98553 V 94.696386 H 579.22 V 68.19987 h -6.23447 V 58.016896 h 19.6386 v 7.065737 c 2.80551,-4.987579 7.68918,-8.000908 14.23538,-8.000908 6.75402,0 12.98849,3.221145 15.27446,10.079066 2.5977,-6.234473 7.897,-10.079066 15.27446,-10.079066 8.41654,0 16.10573,5.091487 16.10573,16.209634 v 21.301119 z"
           class="st0" />
      </g>
      <g
         id="text4512-5"
         style="font-style:normal;font-weight:normal;font-size:196.77960205px;line-height:1;font-family:sans-serif;text-align:center;letter-spacing:0px;word-spacing:0px;text-anchor:middle;fill:#ffffff;fill-opacity:1;stroke:none;stroke-width:21.0835247"
         transform="matrix(0.43791096,0,0,0.45053943,40.91175,160.58252)"
         aria-label="ni">
        <path
           inkscape:connector-curvature="0"
           id="path4497"
           style="font-style:normal;font-variant:normal;font-weight:normal;font-stretch:normal;font-family:'Zilla Slab';-inkscape-font-specification:'Zilla Slab';fill:#ffffff;stroke-width:21.0835247"
           d="m 827.50491,132.00133 h -44.27542 v -11.21644 h 15.15203 V 80.051513 q 0,-14.168132 -5.7066,-19.87474 -5.70661,-5.903388 -14.5617,-5.903388 -11.80677,0 -19.08762,7.871184 -7.08406,7.674404 -7.47762,17.710164 v 40.930157 h 15.34881 v 11.21644 H 722.4246 v -11.21644 h 15.34881 V 55.650842 H 722.03104 V 44.434405 h 29.51694 v 15.545588 q 9.44542,-17.316605 30.69762,-17.316605 12.79067,0 21.44897,7.871184 8.65831,7.871184 8.65831,25.384569 v 44.865749 h 15.15203 z" />
        <path
           inkscape:connector-curvature="0"
           id="path4499"
           style="font-style:normal;font-variant:normal;font-weight:normal;font-stretch:normal;font-family:'Zilla Slab';-inkscape-font-specification:'Zilla Slab';fill:#ffffff;stroke-width:21.0835247"
           d="M 849.79327,21.80475 V 3.8978066 h 14.95525 V 21.80475 Z m 30.50083,110.19658 h -44.47219 v -11.21644 h 15.34881 V 55.650842 H 835.42836 V 44.434405 h 29.51694 v 76.350485 h 15.3488 z" />
      </g>
    </g>
  </g>
</svg>
