<svg xmlns="http://www.w3.org/2000/svg" width="400" height="162.379"><path d="M261.142 98.595c-4.183 0-6.187-2.428-7.77-5.77-.256-.5-.675-.586-1.01-.17-3.012 3.847-7.517 5.94-12.205 5.94-6.847 0-11.947-5.77-11.947-13.125 0-3.845.252-9.194.252-12.62 0-10.367-.074-11.038-.66-11.7-.602-.663-1.514-.75-4.524-.75-.25 0-.75-.332-.75-.67 0-.25.257-.58.67-.58 3.26-.256 10.2-1.254 12.286-1.766.576-.163.92-.244 1.252-.244.584 0 .75.416.75.835 0 1.334-.17 10.694-.17 17.053 0 2.25-.174 8.432-.174 11.285 0 5.26 3.09 8.094 6.77 8.094 2.424 0 5.014-1.414 6.432-3.337 2.006-2.843 2.255-5.43 2.255-11.78 0-16.808-.075-17.48-.667-18.142-.58-.662-1.506-.748-4.51-.748-.254 0-.75-.333-.75-.672 0-.25.247-.58.664-.58 3.258-.255 10.196-1.253 12.284-1.765.585-.162.918-.244 1.253-.244.587 0 .752.415.752.834 0 1.334-.074 15.21-.074 30.005 0 5.428 1.253 7.015 3.422 7.015 1.84 0 3.603-1.418 4.434-1.418.254 0 .5.336.5.59 0 1.33-4.178 4.426-8.77 4.426M322.39 97.924c-1.336.42-3.596.585-5.102.585-6.677 0-10.103-2.26-15.037-7.604-2.762-3.01-8.106-10.28-10.78-14.037v2.42c0 12.534.247 15.458 1.415 16.548.675.582 1.173.998 3.764.998.585 0 .837.416.837.663 0 .258-.252.6-.67.6-.753 0-5.347-.342-9.78-.342-4.428 0-9.022.34-9.86.34-.42 0-.675-.34-.675-.6 0-.246.254-.662.84-.662 2.593 0 3.096-.416 3.764-.998 1.17-1.09 1.417-4.014 1.417-16.548 0-38.363 0-38.53-.663-39.28-.586-.664-1.506-.75-4.518-.75-.246 0-.747-.333-.747-.678 0-.25.25-.58.656-.58 3.272-.255 10.203-1.25 12.295-1.75.58-.17.924-.26 1.26-.26.58 0 .744.43.744.843 0 1.245-.075 13.954-.075 38.694 3.424-3.427 6.428-6.69 8.602-9.115 2.085-2.335 4.018-4.513 4.018-5.847 0-1.005-.834-1.59-1.423-1.676-.59-.074-1.005-.33-1.005-.586 0-.33.246-.662 1.094-.662.667 0 4.834.333 7.18.333 2.342 0 6.185-.333 6.772-.333.92 0 1.087.17 1.087.585 0 .418-.507.748-1.26.748-1.16 0-3.17.678-4.34 1.343-1.177.664-4.928 4.007-6.518 5.682-3.426 3.507-4.935 4.93-6.86 7.1 5.02 7.44 13.54 18.306 15.637 20.225 3.006 2.76 5.01 3.51 7.68 3.51.59 0 .834.25.834.502 0 .248-.246.498-.58.584M363.65 98.595c-4.178 0-6.186-2.428-7.774-5.77-.25-.5-.67-.586-1.003-.17-3.01 3.847-7.515 5.94-12.203 5.94-6.847 0-11.946-5.77-11.946-13.125 0-3.845.246-9.194.246-12.62 0-10.367-.074-11.038-.665-11.7-.594-.663-1.506-.75-4.518-.75-.252 0-.752-.332-.752-.67 0-.25.25-.58.673-.58 3.258-.256 10.196-1.254 12.282-1.766.59-.163.924-.244 1.25-.244.59 0 .746.416.746.835 0 1.334-.148 10.694-.148 17.053 0 2.25-.172 8.432-.172 11.285 0 5.26 3.093 8.094 6.763 8.094 2.42 0 5.02-1.414 6.437-3.337 2.006-2.843 2.258-5.43 2.258-11.78 0-16.808-.074-17.48-.67-18.142-.588-.662-1.507-.748-4.51-.748-.255 0-.76-.333-.76-.672 0-.25.253-.58.675-.58 3.253-.255 10.194-1.253 12.287-1.765.586-.162.914-.244 1.252-.244.58 0 .753.415.753.834 0 1.334-.074 15.21-.074 30.005 0 5.428 1.25 7.015 3.422 7.015 1.84 0 3.596-1.418 4.434-1.418.247 0 .5.336.5.59 0 1.33-4.18 4.426-8.776 4.426M399.327 98.1c-.747 0-5.348-.343-9.775-.343-4.437 0-9.028.342-9.86.342-.423 0-.672-.343-.672-.6 0-.248.25-.664.836-.664 2.588 0 3.09-.416 3.756-.998 1.17-1.088 1.422-4.015 1.422-16.548 0-38.36 0-38.527-.668-39.282-.584-.662-1.503-.75-4.51-.75-.252 0-.76-.33-.76-.676 0-.25.252-.576.68-.576 3.257-.256 10.185-1.254 12.27-1.75.592-.173.925-.262 1.255-.262.595 0 .758.428.758.84 0 1.338-.074 15.21-.074 42.456 0 12.533.25 15.46 1.42 16.548.672.582 1.17.998 3.758.998.59 0 .838.416.838.665 0 .257-.25.6-.668.6M212.488 96.892c-2.505 0-2.983-.413-3.626-.977-1.13-1.044-1.373-3.863-1.373-15.94v-35.62c0-2.328-.474-3.594-1.177-3.594-.416 0-.76.423-1.34 1.59-4.425 8.858-21.084 39.026-23.502 43.703-1.85-4.09-7.777-15.457-10.21-20.386-2.075-4.267-9.445-17.555-12.785-22.984-1.072-1.756-1.414-1.922-1.996-1.922-.51 0-1.608.432-1.608 3.596.025 5.512.025 23.988.025 35.62 0 12.076-.247 14.895-1.373 15.94-.65.563-1.124.976-3.626.976-.57 0-.808.394-.808.638 0 .24.246.57.648.57.808 0 3.24-.33 7.51-.33 4.266 0 6.872.33 7.586.33.405 0 .656-.33.656-.57 0-.244-.25-.638-.806-.638-2.502 0-2.985-.413-3.62-.977-1.14-1.044-1.38-3.863-1.38-15.94V64.012c5.214 10.368 12.643 24.223 17.666 33.746.663 1.254 1.16 1.756 1.67 1.756.332 0 .992-.59 1.505-1.59 3.02-5.666 12.402-21.622 18.315-33.66v15.71c0 12.078-.246 14.897-1.365 15.94-.656.565-1.126.978-3.626.978-.568 0-.814.394-.814.638 0 .24.246.57.653.57.716 0 5.15-.33 9.417-.33 4.28 0 8.695.33 9.5.33.406 0 .652-.33.652-.57 0-.244-.247-.638-.802-.638" fill="#a85f28"/><path d="M126.12 35.846C122.977-11.01 47.654 1.522 47.654 1.522 7.513 5.7 2.683 44.195 2.683 44.195c-5.594 38.567-.704 72.544-.704 72.544 7.628 51.028 55.808 45.46 55.808 45.46 61.34-1.043 64.488-38.914 64.488-38.914 7.976-28.82 3.845-87.44 3.845-87.44m-14.96 83.88s-2.357 30.715-48.287 31.56c0 0-36.08 4.516-41.787-36.864 0 0-3.665-27.553.52-58.827 0 0 3.62-31.22 33.678-34.608 0 0 56.4-10.158 58.757 27.836 0 0 3.094 47.536-2.88 70.904" fill="#e19c50"/><path d="M52.18 93.483l.975-.96c.355-12.52 2.538-21.463 5.338-27.828L41.43 82.265l10.75 11.218zM74 48.727c3.743-1.445 6.617-1.77 6.774-1.784 7.695-1.174 13.77-.755 18.412.277L86.93 35.414 74 48.727zM66.378 53.134l18.82-19.385-8.227-7.928c-1.046-.087-2.09-.158-3.11-.2 0 0-.603-.025-1.404-.047l-16.86 16.308 10.782 11.25zM104.222 48.742c1.764.693 3.19 1.44 4.28 2.12-.22-2.616-.74-4.976-1.498-7.096 0 0-.813-2.083-1.242-2.865-2.536-4.907-6.54-8.305-11.2-10.632 0 0-2.16-1.04-3.438-1.494-3.29-1.23-6.78-2.018-10.236-2.51l23.334 22.478zM53.12 97.93L25.062 68.65l-.148 1.655-.26 4.348c-.122 2.54-.196 5.003-.248 7.372l-.05 4.02c0 2.084.025 4.074.075 5.96l27.184 26.81 2.88-3.072c-.844-5.084-1.322-10.984-1.394-17.814M39.77 80.533l12.418-12.79-11.554-11.392-12.477 12.066L39.77 80.533zM26.498 66.683l12.43-12.015-9.016-8.892c-.17.36-.345.72-.502 1.072L28.2 49.87c-1.637 4.576-2.03 7.987-2.03 7.987-.34 2.575-.608 5.108-.84 7.61l1.168 1.216zM49.992 120.562l-10.63-10.482-11.35 10.83c.164.5.312.946.377 1.115 2.054 5.6 4.898 9.79 8.077 12.943l13.525-14.406zM63.408 137.25l-6.643 6.832c3.707.35 6.202.037 6.202.037 2.61-.05 5.06-.21 7.364-.46l1.212-.154c-3.04-1.53-5.768-3.565-8.134-6.257M53.936 40.152L69.02 25.56c-7.38.114-12.823 1.1-12.823 1.1-4.6.524-8.5 1.79-11.812 3.522l9.55 9.97zM61.895 135.365c-3.017-4.094-5.333-9.517-6.83-16.695l-16.82 17.91c.404.35.774.665.875.742 3.362 2.637 6.948 4.288 10.288 5.317 0 0 2.705.754 4.396 1.05l8.09-8.325zM37.656 108.396l-13.1-12.918c.028.69.053 1.377.087 2.027 0 0 .326 5.644.425 6.867.32 4.13.634 6.516.634 6.516.37 2.702.885 5.176 1.516 7.462l10.438-9.954zM53.86 66.025l10.844-11.172L42.248 31.42c-.413.255-.82.517-1.208.79l-2.295 1.78c-3.374 2.877-5.857 6.256-7.687 9.553L53.86 66.025z" fill="#cda574"/><path d="M89.438 62.127l1.043 2.622 4.173 1.5 1.045-2.062-.172-4.686-6.2-1.624-6.198 1.624-.172 4.686 1.04 2.06 4.178-1.5 1.042-2.62-3.828 1.496V62.27l3.94-1.246 3.938 1.245v1.354l-3.828-1.497z" fill="#a85f28"/><path d="M103.753 123.046l.1.095.11-.242c-.074.046-.136.1-.21.148" fill="#f3f4f4"/><path d="M89.837 107.452l.173 6.094 4.976-2.203 3.554-6.6-1.185-8.632-8.025-1.647-8.03 1.648-1.186 8.634 3.554 6.6 4.976 2.202.173-6.094h-3.113l-2.37-2.37 1.184-6.093 3.41-.68-.198 2.2H85.7l-.33 3.556 1.342 1.525 2.615 1.04 2.613-1.04 1.343-1.524-.33-3.556h-2.03l-.196-2.2 3.406.68 1.183 6.093-2.368 2.37h-3.116zM104.263 105.27s-3.977.593-5.416 2.032c-1.44 1.438-1.864 4.74-1.864 4.74s1.186 5.756 5.758 10.328c0 0 1.32-1.39 2.568-3.158.656-2.153.856-3.546.856-3.546.198-.788.312-1.605.444-2.446l-1.16-1.35h-2.198v2.54l.564 1.105-.76 1.1-1.62-2.9.5-3.674h3.346l1.633 1.504c.117-.62.287-1.56.416-2.428.1-.634.19-1.29.282-1.944-1.127-.788-2.283-1.472-3.35-1.9M79.78 75.993l1.973 4.63 6.904-1.08.148-3.467h-2.38l-3.24.91 1.33-6.095 3.866-1.333-.172 1.22H86.42l-1.27 1.91.852 1.525 3.323.915 3.32-.915.852-1.525-1.274-1.91H90.44l-.174-1.22 3.86 1.334 1.328 6.095-3.238-.91h-2.38l.147 3.467 6.903 1.082 1.972-4.63-2.773-7.654-6.77-1.947-6.77 1.947-2.776 7.653zM75.404 111.87h-2.2l-2.043 2.372c0 3.152 4.752 8.128 4.752 8.128 4.57-4.572 5.755-10.327 5.755-10.327s-.422-3.3-1.86-4.74c-1.442-1.438-5.417-2.032-5.417-2.032-4.233 1.692-9.822 7.447-9.822 7.447 0 7.453 6.772 13.714 6.772 13.714l3.555-3.385c-4.57-2.875-5.564-9.29-5.564-9.29l4.04-3.712h3.346l.5 3.673-1.618 2.9-.76-1.1.566-1.104v-2.542zM99.866 76.273l-1.032 4.12 2.906 8.9 6.605-.56s.327-2.354.894-6.14c.014-.83.032-1.67.042-2.493l.003-.065-4.082-1.562-2.06 2.154.984 2.018 1.735.42-.33 1.545-2.104-.19-1.454-4.077 2.763-2.994 4.55 1.724.013-1.793c0-.95-.003-1.875-.01-2.797l-3.946-2.052-5.478 3.843zM102.348 91.31l-3.185 3.93 1.593 8.24 7.113 1.702c.3-2.465.55-5.025.745-7.653l.068-.975-2.82-1.266-2.06.745v2.437l2.06.748-.33 1.267-2.106-.89-1.122-3.467 3.56-1.97 2.898 1.163c.012-.16.018-.268.018-.268.08-1.3.128-2.616.186-3.925l-1.98-.903-4.638 1.082zM63.516 92.197l5.712-2.53c-1.31-3.373-1.124-10.115-1.124-10.115l5.807-2.202 2.765 2.994-1.45 4.076-2.108.188-.327-1.543 1.73-.422.987-2.015-2.06-2.154-4.403 1.685c.79 5.19 1.263 8.57 1.263 8.57l6.605.56 2.906-8.896-1.033-4.12-5.477-3.842-8.48 4.4c-1.127 4.683-1.312 15.365-1.312 15.365" fill="#a85f28"/><path d="M89.325 136.725c-3.808 0-9.06-1.26-11.78-2.076-3.354-1.123-5.695-2.633-7.122-4.06-2.72-2.72-6.303-8.73-7.55-12.782-1.25-4.05-1.612-19.336-1.612-19.336L62 80.32s2.206-12.89 6.68-17.365c4.476-4.476 7.477-6.975 20.598-6.975h.093c12.214 0 15.66 2.166 19.685 6.073-.056-1.682-.114-3.214-.173-4.542 0 0-.092-2.072-.144-3.02-2.246-1.794-10.753-7.318-27.606-4.746-.104.013-4.513.512-9.316 3.08-4.766 2.546-15.858 11.85-15.892 43.17-.027 30.928 7.777 42.194 20.84 46.64 2.776-.59 5.287-1.33 7.56-2.187 0 0 4.218-1.772 5.65-2.613.743-.416 1.45-.84 2.12-1.28-.964.106-1.91.17-2.77.17" fill="#a85f28"/><path d="M99.014 121.85l-3.226-8.303-6.464 2.652-6.464-2.653-3.23 8.303-6.576 6.442 10.145 3.743c1.518-.85 2.89-1.753 4.137-2.696l1.07-6.822-3.218-1.186-1.914 6.954-2.825-.857 3.214-3.92.866-4.57 4.794 1.813 4.794-1.812.863 4.57 3.217 3.92-2.825.856-1.913-6.954-3.218 1.186 1.07 6.82c1.244.944 2.618 1.847 4.137 2.697l3.376-1.245c.345-.39.696-.776 1.01-1.167 0 0 .203-.22.718-.928.826-1.11 1.522-2.202 2.12-3.262l-3.66-3.583zM63.844 110.65l5.383-4.494c-1.31-3.374-1.122-10.12-1.122-10.12l4.683-1.874 3.562 1.968-1.125 3.466-2.107.89-.33-1.265 2.06-.748v-2.437l-2.06-.746-3.746 1.682c.792 5.197 1.593 8.247 1.593 8.247l7.258-1.738 1.593-8.245L76.3 91.31l-4.636-1.083-8.242 3.75c-1.124 4.686.422 16.674.422 16.674M89.845 90.125l.172 3.47 8.25 1.08 2.243-4.633-3.155-7.647-7.703-1.956-.325-.08-.328.08-7.703 1.955-3.15 7.647 2.243 4.634 8.247-1.082.173-3.47H85.7l-3.683.913 1.516-6.094 4.392-1.334-.197 1.216h-2.034L84.38 86.74l.025 1.195 4.58 1.24.327.085.326-.084 4.584-1.24.025-1.197-1.314-1.914h-2.028l-.198-1.217 4.39 1.333 1.513 6.094-3.682-.912H89.82zM65.67 73.927l8.617-3.558 4.498 2.997 2.623-7.12-1.17-1.03-3.843 1.544 1.313 1.97-.42 1.078-1.968-2.954-3.19 1.97 1.736-2.67 7.542-2.344.328-4.542-10.678 4.45-5.387 10.21zM96.914 59.268l.33 4.54 7.538 2.346 1.735 2.668-3.19-1.97-1.96 2.956-.427-1.075 1.313-1.97-3.84-1.546-1.17 1.033 2.622 7.12 4.495-3 4.917 2.03-.012-1.107c-.015-1.328-.037-2.622-.065-3.86l-.015-.7-1.593-3.016-10.678-4.45zM201.406 134.517V123.13h1.713c.76 0 1.367.058 1.82.178.456.118.84.315 1.158.595.32.29.573.653.758 1.085.19.44.287.88.287 1.33 0 .814-.31 1.504-.934 2.07.603.207 1.078.568 1.43 1.085.353.51.53 1.106.53 1.784 0 .89-.315 1.642-.947 2.256-.376.378-.804.64-1.276.79-.514.143-1.158.214-1.937.214h-2.604zm1.72-6.498h.538c.638 0 1.107-.142 1.402-.423.3-.283.447-.702.447-1.25 0-.537-.15-.943-.456-1.224-.308-.274-.746-.416-1.325-.416h-.607v3.312zm0 4.882h1.062c.777 0 1.347-.15 1.71-.46.382-.328.573-.747.573-1.25 0-.492-.18-.908-.55-1.24-.358-.33-1.002-.494-1.926-.494h-.87v3.444zM216.623 124.746h-4.567v2.736h4.434v1.614h-4.434v3.808h4.567v1.612h-6.285v-11.384h6.285v1.614zM225.568 131.75h-4.875l-1.272 2.767h-1.848l5.632-12.1 5.44 12.1h-1.883l-1.192-2.766zm-.702-1.614l-1.69-3.87-1.766 3.87h3.456zM237.948 123.74v2.03c-.992-.83-2.018-1.246-3.08-1.246-1.17 0-2.157.42-2.958 1.26-.807.84-1.21 1.858-1.21 3.07 0 1.19.403 2.202 1.21 3.022.807.822 1.793 1.232 2.964 1.232.607 0 1.118-.1 1.54-.293.237-.098.484-.234.736-.4.253-.167.518-.37.798-.604v2.077c-.982.558-2.015.835-3.096.835-1.627 0-3.016-.567-4.165-1.703-1.146-1.144-1.72-2.528-1.72-4.145 0-1.448.478-2.742 1.436-3.876 1.183-1.394 2.708-2.09 4.582-2.09 1.022 0 2.01.277 2.963.83M242.153 127.586h4.912v-4.455h1.718v11.388h-1.718V129.2h-4.912v5.318h-1.718V123.13h1.718v4.456zM252.222 132.387l1.474.573-2.103 4.212-1.12-.468 1.75-4.317zM266.69 128.586h4.704v.376c0 .857-.1 1.615-.305 2.274-.195.61-.528 1.18-.993 1.71-1.057 1.19-2.403 1.787-4.036 1.787-1.592 0-2.956-.58-4.09-1.728-1.137-1.156-1.707-2.542-1.707-4.157 0-1.654.58-3.056 1.734-4.205 1.156-1.155 2.56-1.735 4.218-1.735.89 0 1.722.182 2.493.543.74.367 1.466.953 2.178 1.766l-1.226 1.174c-.934-1.245-2.074-1.867-3.414-1.867-1.205 0-2.215.416-3.032 1.248-.816.817-1.223 1.84-1.223 3.066 0 1.27.454 2.317 1.366 3.136.85.76 1.772 1.143 2.767 1.143.84 0 1.605-.283 2.277-.853.674-.573 1.047-1.26 1.127-2.058h-2.837v-1.618zM272.985 128.77c0-1.6.588-2.978 1.762-4.127 1.17-1.152 2.576-1.725 4.22-1.725 1.62 0 3.014.582 4.172 1.74 1.164 1.16 1.75 2.554 1.75 4.178 0 1.64-.586 3.03-1.76 4.17-1.17 1.145-2.59 1.718-4.255 1.718-1.47 0-2.788-.512-3.96-1.525-1.286-1.13-1.93-2.602-1.93-4.43m1.734.023c0 1.254.42 2.29 1.265 3.1.842.813 1.812 1.216 2.915 1.216 1.195 0 2.203-.414 3.022-1.24.823-.834 1.233-1.85 1.233-3.05 0-1.213-.407-2.23-1.217-3.05-.804-.825-1.806-1.238-2.995-1.238-1.186 0-2.184.413-3 1.24-.817.815-1.224 1.82-1.224 3.02M288.77 123.13v9.774h3.343v1.614h-5.062V123.13h1.72zM299.43 124.746h-3.967v2.736h3.83v1.614h-3.83v5.42h-1.718v-11.384h5.686v1.614zM310.562 128.182l2.05 2.477.067-.075c.22-.24.427-.474.624-.705.197-.234.385-.468.567-.703l1.122 1.15c-.138.197-.317.425-.542.687-.225.262-.49.56-.798.9l2.108 2.603h-2.14l-1.135-1.393c-1.042 1.075-2.126 1.614-3.254 1.614-1.006 0-1.86-.32-2.562-.964-.687-.65-1.032-1.45-1.032-2.406 0-1.137.545-2.08 1.636-2.83l.745-.51c.01-.006.028-.018.053-.037.024-.017.058-.045.1-.082-.75-.8-1.126-1.59-1.126-2.366 0-.767.25-1.39.75-1.873.513-.482 1.172-.725 1.976-.725.786 0 1.43.237 1.94.702.513.468.768 1.057.768 1.77 0 .492-.138.935-.42 1.333-.276.397-.775.878-1.496 1.432m-1.365.968l-.095.067c-.706.484-1.183.875-1.44 1.168-.252.3-.375.61-.375.94 0 .47.188.903.567 1.297.394.38.826.567 1.3.567.662 0 1.427-.436 2.292-1.308l-2.25-2.732zm.367-2.18l.142-.1c.24-.182.44-.342.597-.478.157-.132.27-.25.34-.342.147-.18.22-.403.22-.67 0-.3-.1-.544-.3-.732-.204-.184-.475-.28-.814-.28-.31 0-.57.096-.78.293-.213.18-.318.41-.318.7 0 .33.132.663.397.986l.428.515c.012.025.043.065.086.11M328.222 124.82l-1.396.825c-.26-.453-.508-.75-.742-.884-.247-.157-.564-.237-.952-.237-.478 0-.872.136-1.186.407-.318.265-.472.6-.472 1.004 0 .555.41 1.005 1.24 1.344l1.132.462c.925.376 1.603.832 2.028 1.37.43.54.644 1.2.644 1.982 0 1.047-.352 1.913-1.05 2.6-.703.687-1.572 1.032-2.617 1.032-.988 0-1.804-.292-2.445-.88-.635-.59-1.03-1.415-1.19-2.478l1.74-.382c.082.672.217 1.13.414 1.386.354.49.87.74 1.546.74.536 0 .983-.182 1.337-.54.354-.357.53-.813.53-1.364 0-.22-.03-.422-.092-.607-.06-.186-.156-.355-.286-.51-.13-.153-.3-.3-.505-.434-.208-.135-.454-.265-.737-.385l-1.1-.458c-1.56-.66-2.34-1.62-2.34-2.89 0-.853.328-1.568.98-2.144.657-.58 1.47-.87 2.444-.87 1.313 0 2.34.64 3.075 1.91M332.308 129.893v4.624h-1.72V123.13h1.948c.955 0 1.676.065 2.16.2.493.133.927.382 1.3.752.653.638.983 1.445.983 2.42 0 1.04-.352 1.866-1.05 2.476-.698.61-1.64.915-2.824.915h-.798zm0-1.593h.644c1.578 0 2.366-.607 2.366-1.82 0-1.178-.813-1.763-2.443-1.763h-.567v3.583zM344.603 131.75h-4.873l-1.27 2.767h-1.848l5.632-12.1 5.435 12.1h-1.882l-1.195-2.766zm-.703-1.614l-1.686-3.87-1.77 3.87h3.456z" fill="#a85f28"/></svg>