<?xml version="1.0" encoding="UTF-8" standalone="no"?>
<svg
   xmlns:dc="http://purl.org/dc/elements/1.1/"
   xmlns:cc="http://creativecommons.org/ns#"
   xmlns:rdf="http://www.w3.org/1999/02/22-rdf-syntax-ns#"
   xmlns:svg="http://www.w3.org/2000/svg"
   xmlns="http://www.w3.org/2000/svg"
   xmlns:sodipodi="http://sodipodi.sourceforge.net/DTD/sodipodi-0.dtd"
   xmlns:inkscape="http://www.inkscape.org/namespaces/inkscape"
   version="1.1"
   width="400"
   height="307.36426"
   id="svg13"
   viewBox="0 0 400 307.36426"
   sodipodi:docname="multinoticias.svg"
   inkscape:version="0.92.1 r15371">
  <metadata
     id="metadata19">
    <rdf:RDF>
      <cc:Work
         rdf:about="">
        <dc:format>image/svg+xml</dc:format>
        <dc:type
           rdf:resource="http://purl.org/dc/dcmitype/StillImage" />
        <dc:title></dc:title>
      </cc:Work>
    </rdf:RDF>
  </metadata>
  <defs
     id="defs17" />
  <sodipodi:namedview
     pagecolor="#ffffff"
     bordercolor="#666666"
     borderopacity="1"
     objecttolerance="10"
     gridtolerance="10"
     guidetolerance="10"
     inkscape:pageopacity="0"
     inkscape:pageshadow="2"
     inkscape:window-width="1280"
     inkscape:window-height="656"
     id="namedview15"
     showgrid="false"
     fit-margin-top="0"
     fit-margin-left="0"
     fit-margin-right="0"
     fit-margin-bottom="0"
     inkscape:zoom="1.3697103"
     inkscape:cx="200"
     inkscape:cy="153.68213"
     inkscape:window-x="0"
     inkscape:window-y="27"
     inkscape:window-maximized="1"
     inkscape:current-layer="svg13" />
  <g
     id="g4506"
     transform="matrix(0.76372155,0,0,0.76372155,-33.698832,-148.75148)">
    <path
       d="m 140.02,335.1618 c -56.5847,-7.3784 -61.0749,17.4008 -53.2098,59.2698 5.1951,42.1672 20.7398,85.0134 49.6489,128.7366 30.486,38.1416 68.9792,44.6116 122.397,-7.9514 l 27.2695,-30.3012 C 319.6791,442.1801 322.4662,391.3714 271.8311,369.0354 239.7267,349.0404 194.0525,339.0273 140.02,335.1618 Z"
       style="fill:#c00075;fill-rule:evenodd"
       id="path2"
       inkscape:connector-curvature="0" />
    <path
       d="m 469.32,335.1604 c 56.5848,-7.3784 61.075,17.4008 53.2099,59.2698 -5.1951,42.1671 -20.7398,85.0134 -49.6489,128.7365 -30.486,38.1417 -68.9793,44.6116 -122.397,-7.9513 L 323.2145,484.9142 C 289.661,442.1787 286.8739,391.37 337.509,369.0339 369.6134,349.039 415.2876,339.0258 469.32,335.1604 Z"
       style="fill:#55953f;fill-rule:evenodd"
       id="path4"
       inkscape:connector-curvature="0" />
    <path
       d="m 345.8874,224.521 c -33.23,-46.3901 -54.4043,-32.7585 -79.635,1.5677 -27.2712,32.5782 -47.9744,73.1838 -60.1965,124.1551 -7.0666,48.314 14.4788,80.8622 89.3542,84.0243 l 40.758,-0.753 c 54.1347,-4.6475 93.1697,-37.2904 74.9321,-89.5418 C 403.8,306.8627 379.9427,266.648 345.8874,224.521 Z"
       style="fill:#599cde;fill-rule:evenodd"
       id="path6"
       inkscape:connector-curvature="0" />
    <path
       d="m 291.6607,263.0519 c 0,2.3977 0.2652,4.7827 -1.2211,6.8266 -2.1329,2.9329 -5.949,4.2368 -9.3163,5.2174 -2.6282,0.7655 -5.3528,1.6685 -7.671,2.8393 -1.785,0.9015 -3.2902,2.2886 -4.2361,4.0695 -0.9486,1.7859 -2.0724,3.4983 -2.9839,5.3224 -2.9727,5.9488 -5.0822,12.2666 -6.1717,18.8786 -0.2058,1.2488 -0.4729,2.3064 -0.5783,3.5754 -0.2037,2.4503 -0.7979,5.0258 -0.7734,7.5342 0.0125,1.2756 -0.2294,2.6949 -0.265,3.8888 l -0.2552,12.3366 c 0,1.5211 -0.1306,2.5477 -0.1297,4.0243 8e-4,1.3736 -0.0914,10.6422 -0.3345,12.2572 -0.4475,2.974 -0.7035,11.5562 -0.7035,14.6141 0,6.9647 1.0448,12.2213 2.8377,18.0607 0.3362,1.0949 0.7375,2.1951 1.0401,3.2431 0.6399,2.2173 1.5063,4.4418 1.5755,6.8616 0.0687,2.4022 -0.2574,6.0684 0.0707,8.2372 l 0.2901,3.8638 c 0.16,1.2867 0.3269,2.4675 0.5971,3.6863 2.0234,9.1307 6.4561,8.0622 8.4336,20.8993 0.5086,3.3022 0.3956,4.8938 0.7593,7.6781 0.3332,2.5499 0.4868,5.2029 0.6133,7.8243 0.1525,3.1628 0.6973,6.4481 0.7755,9.7388 0.0764,3.2008 0.7358,6.6346 0.7803,9.864 0.0245,1.7795 0.3027,3.9167 0.5005,5.7302 l 0.2858,5.0364 c 0.0997,1.2718 0.2904,2.4783 0.1416,3.7908 -0.2399,2.1151 0.0987,8.2418 0.249,10.2277 0.4692,6.1981 1.652,11.0882 3.3099,16.9391 0.7486,2.6427 1.808,5.6211 2.761,8.1418 1.9469,5.1499 2.7042,11.0946 1.3419,16.4945 -1.0945,4.3386 -2.8725,8.1693 -4.8607,12.1419 l -0.5752,1.1121 c -1.7381,3.403 2.9389,5.7928 4.6737,2.5994 l 2.6379,-5.2791 c 2.2333,-4.3975 4.1956,-10.9004 4.1956,-15.7933 0,-1.5997 -0.0661,-3.2587 -0.281,-4.7816 -0.3917,-2.7755 -1.1775,-5.5422 -2.0689,-8.1851 -0.144,-0.4271 -0.3105,-0.7502 -0.4513,-1.2362 -0.1568,-0.5414 -0.2105,-0.7963 -0.4041,-1.2831 l -2.1135,-6.3232 c -0.1416,-0.5128 -0.2795,-0.8483 -0.4374,-1.3797 -1.1165,-3.7597 -1.6531,-7.4199 -2.1975,-11.4316 -0.2767,-2.0392 -0.2749,-4.0514 -0.3452,-6.4049 l -0.1392,-3.2461 c 0.009,-0.7211 0.1312,-0.8265 0.1401,-1.5475 0.0473,-3.8357 -0.5582,-7.5253 -0.6505,-11.3023 -0.016,-0.6567 -0.1295,-0.7147 -0.1353,-1.4225 -0.0221,-2.7193 -0.583,-5.3079 -0.6499,-8.0471 -0.0662,-2.7093 -0.5142,-5.4522 -0.6442,-8.1828 -0.1925,-4.0453 -0.8074,-8.1779 -0.9059,-12.2047 -0.0159,-0.6521 -0.1241,-0.7162 -0.1338,-1.4239 -0.0227,-1.6567 -0.5583,-6.5528 -0.7699,-8.057 -0.5338,-3.7964 -1.3646,-8.0103 -3.2585,-11.4085 l -0.4849,-0.9427 c -1.7068,-2.9605 -3.6817,-5.1974 -4.6426,-8.5957 -0.8016,-2.8355 -1.0925,-7.1447 -1.0925,-10.7198 0,-1.7119 0.1888,-2.8367 0.0198,-4.4334 -0.5996,-5.6652 -0.9606,-5.8032 -2.6975,-11.7103 l -1.0849,-3.7175 c -1.4536,-5.8708 -1.6864,-10.375 -1.6864,-16.4866 l 0.9082,-15.3181 c -0.0114,-2.5109 0.2692,-5.4214 0.2599,-7.9181 l 0.1292,-12.0732 c -0.003,-1.3923 0.1367,-2.4108 0.1282,-3.8961 -0.0205,-3.5492 0.9584,-11.1646 1.5576,-14.7979 0.4724,-2.8644 1.1267,-5.5095 1.9972,-8.127 l 2.7825,-7.3414 c 0.9117,-1.9308 3.0391,-6.3972 4.4426,-7.8869 l 0.1303,-0.1292 c 2.6532,-2.5523 11.2647,-3.4284 16.9093,-7.3558 1.4446,-1.0052 3.0044,-2.7247 3.8813,-4.2947 1.6637,-2.9788 1.9489,-6.7798 1.3671,-10.1524 -0.434,-2.5158 -0.8318,-3.0151 -3.2737,-3.7344 l -5.6364,-1.4999 c -0.4193,-0.1142 -0.9029,-0.276 -1.4067,-0.4098 l -4.1821,-1.1379 c -0.8447,-0.2706 -1.8571,-0.6879 -2.7395,-0.8936 0.2587,-0.3532 0.5486,-0.3398 1.0876,-0.4695 l 3.8301,-0.8408 c 3.9312,-0.7783 5.3125,-1.0916 7.642,-4.8156 0.4058,-0.6488 0.7949,-1.2519 1.1506,-1.9642 1.4231,-2.85 2.6632,-5.7601 3.8791,-8.7106 1.0053,-2.44 3.1,-6.0225 5.3287,-7.2601 4.1635,-2.3121 9.5489,1.2859 12.8163,3.753 l 1.7412,1.3732 c 0.8096,0.6549 1.7567,1.47 2.357,2.3149 1.9275,2.713 0.5374,4.0707 0.933,6.8553 1.0118,7.1231 16.061,2.3082 18.8792,5.1252 0.934,0.9335 -0.0167,2.6806 -0.4908,3.4651 -0.6508,1.0771 -1.3097,1.844 -2.2305,2.7011 -0.7825,0.7286 -1.8758,1.4915 -2.8216,1.9799 -5.8538,3.0239 -6.8936,0.2057 -10.6078,3.9249 -4.1177,4.1232 -9.9029,12.4887 -4.543,17.8517 0.752,0.7526 1.7347,1.3547 2.7166,1.8253 2.2344,1.0708 4.5327,1.0027 6.9712,1.3327 0.4453,0.0602 0.8524,0.3877 1.1497,0.6669 0.5833,0.5477 1.2089,1.2874 1.6287,2.0051 0.2591,0.4432 0.459,0.6775 0.6941,1.1229 l 1.8147,3.7662 c 0.7621,1.7058 1.4214,3.5203 1.9355,5.3329 0.2941,1.037 0.603,1.8889 0.8611,2.903 0.2362,0.9286 0.5052,1.9632 0.725,2.9093 l 1.1555,6.1133 c 0.6642,4.5071 -0.0921,3.8014 -0.0921,4.8954 0,0.713 0.3584,1.3923 0.6476,1.8184 0.9593,1.4132 1.6592,3.7132 2.1318,5.3961 l 4.7194,17.9952 2.654,12.4029 c 0.1314,0.6581 0.255,1.4212 0.4096,2.1863 1.1693,5.7885 2.0336,11.4572 2.8401,17.4091 0.4527,3.3406 1.0039,8.5079 0.5897,11.8335 -0.0832,0.6682 -0.3699,1.162 -0.3699,1.8367 0,0.6882 0.373,1.2362 0.5661,1.9 1.7898,6.1489 4.4361,13.558 2.0107,20.0206 -1.0289,2.7412 -2.6426,5.0099 -4.6176,7.063 l -7.0067,6.3598 c -1.148,1.1651 -3.0263,2.6354 -4.4126,4.0225 -2.6569,2.6585 -3.8783,4.9056 -4.8085,8.6894 l -1.6934,8.3012 c -0.4267,2.5783 -0.9983,3.8109 -2.6433,5.6632 -1.8212,2.0506 -3.7925,4.1549 -5.0296,6.6507 l -1.0357,2.3389 c -0.6817,1.7069 -1.0145,3.3051 -1.3216,5.4278 -0.5996,4.1436 -0.1067,8.3205 -0.1067,12.8747 0,6.7849 0.1383,16.5702 -1.5552,22.9786 -0.6174,2.3362 -1.4943,4.7017 -2.0488,7.0369 l -0.651,2.3342 c -2.3235,9.3075 -4.091,19.9522 -0.3599,29.2562 l 0.8276,1.8978 c 0.8481,1.7688 1.838,3.3836 2.9901,4.9269 1.1313,1.5154 2.4261,2.8298 3.7481,4.1682 0.2779,0.2811 0.3872,0.3904 0.6817,0.616 1.3036,0.9988 3.9964,3.7646 5.5787,3.7646 2.3309,0 3.5565,-2.3649 2.2843,-4.2328 -0.2671,-0.3921 -0.8713,-0.7911 -1.2721,-1.0638 -0.518,-0.3526 -0.8337,-0.6195 -1.3277,-1.0081 l -2.5062,-2.1655 c -0.4104,-0.4119 -0.7799,-0.7456 -1.1693,-1.1668 -4.092,-4.4265 -6.6473,-10.4904 -6.6473,-16.5854 0,-5.3522 0.3634,-8.1628 1.4355,-13.3623 0.8079,-3.9188 2.0603,-7.687 3.1324,-11.5346 0.6594,-2.3662 1.2248,-4.9142 1.5064,-7.4499 0.5903,-5.3149 0.672,-11.1746 0.672,-16.7226 0,-2.1742 0.1088,-4.6819 -0.1108,-6.6395 -0.2417,-2.153 0.028,-4.6421 0.1097,-6.6026 0.1575,-3.7791 1.8186,-6.9442 3.946,-9.682 l 2.3818,-2.6796 c 2.7185,-3.0537 2.8529,-4.2106 3.7418,-8.069 l 1.1428,-5.6068 c 0.3638,-1.8212 0.669,-3.791 1.4573,-5.422 0.7108,-1.4704 1.7423,-2.7363 3.0295,-3.7191 l 8.971,-8.029 c 1.1018,-0.8796 2.3255,-2.3617 3.3225,-3.4259 3.6933,-3.9426 5.6101,-9.4315 5.6101,-14.8972 0,-4.4077 -0.9078,-8.8541 -2.1583,-12.6393 -1.6223,-4.911 -0.8257,-3.0346 -0.8257,-7.7414 0,-5.6444 -1.0071,-12.9331 -1.9627,-18.5467 -0.9891,-5.8102 -2.0504,-11.5741 -3.2591,-17.2493 -0.2823,-1.3253 -0.609,-2.7554 -0.9084,-4.154 l -0.951,-4.241 c -0.5494,-2.8138 -1.3361,-5.4458 -2.0266,-8.2274 -0.6582,-2.6522 -1.4162,-5.4023 -2.2617,-7.9923 -0.2255,-0.6909 -0.3415,-1.2358 -0.585,-1.8811 -0.223,-0.5909 -0.4082,-1.2959 -0.6658,-1.93 -0.2613,-0.6436 -0.4759,-1.2576 -0.744,-1.8518 -0.666,-1.476 -0.3878,-0.4626 -0.3878,-1.9488 0,-4.3637 -1.366,-11.275 -2.7717,-15.5303 -0.3175,-0.9608 -0.5678,-1.8273 -0.8774,-2.7569 -0.8782,-2.6368 -1.8317,-5.4189 -3.221,-7.8111 -1.3641,-2.3485 -2.5226,-4.5825 -4.7676,-6.2638 -2.8762,-2.1539 -5.6305,-0.9252 -8.6807,-2.2185 -0.9993,-0.4238 -1.7368,-1.1417 -1.7368,-2.2864 0,-1.2229 0.9712,-3.3921 1.48,-4.231 1.0904,-1.7977 2.3218,-3.413 3.8609,-4.8344 0.4798,-0.4431 0.3408,-0.2398 1.1327,-0.2944 4.3146,-0.298 8.0508,-2.1637 11.357,-4.7332 0.6103,-0.4743 0.9963,-0.9184 1.5328,-1.452 5.0974,-5.0708 5.9697,-13.17 -2.6343,-15.0841 -2.8916,-0.6432 -7.9174,-0.1234 -11.29,-0.3865 -0.5821,-0.0454 -1.1068,-0.1298 -1.5469,-0.1397 0.8068,-3.4653 -0.2875,-6.4419 -2.3341,-9.088 -0.1974,-0.2553 -0.2452,-0.3047 -0.4883,-0.55 l -1.1683,-1.1676 c -3.9499,-3.6237 -10.1037,-7.9644 -16.001,-8.1471 h -0.7588 c -2.1079,0.0657 -4.1693,0.6938 -6.0698,2.1121 l -1.5623,1.2927 c -0.9568,0.8755 -1.7959,2.1094 -2.5223,3.1879 -1.9377,2.877 -3.3843,6.4075 -4.663,9.6139 -0.7913,1.9842 -1.6822,3.9688 -2.9254,5.6405 -0.4065,0.5466 -0.8123,1.0861 -1.5443,1.3107 -1.529,0.4688 -3.2979,0.5936 -4.8513,0.9875 -3.0918,0.7841 -8.4133,1.7437 -8.5116,5.7283 -0.091,3.6809 5.2813,5.1543 8.1051,6.1022 2.0082,0.6741 10.3571,2.6432 11.3045,3.098 z"
       style="fill:#c7c7c7;fill-rule:evenodd"
       id="path8"
       inkscape:connector-curvature="0" />
    <path
       d="m 116.9231,568.0182 v 16.3619 c 0,3.572 -1.2956,6.6063 -3.8966,9.1029 -2.5911,2.4964 -5.7182,3.7448 -9.3713,3.7448 -1.8119,0 -3.507,-0.317 -5.0948,-0.9411 -1.5879,-0.6337 -3.0199,-1.5554 -4.2767,-2.775 -1.2662,-1.2195 -2.2503,-2.4964 -2.9613,-3.8216 -0.7014,-1.3251 -1.0521,-3.0919 -1.0521,-5.31 v -16.3619 c -1.4514,0 -2.4743,-0.2689 -3.0784,-0.8065 -0.5943,-0.5377 -0.8962,-1.2387 -0.8962,-2.103 0,-0.864 0.3019,-1.5554 0.8962,-2.0739 0.6041,-0.5186 1.627,-0.7778 3.0784,-0.7778 h 7.9491 c 1.2566,0 2.1822,0.2689 2.7861,0.797 0.5942,0.528 0.8962,1.2194 0.8962,2.0836 0,0.8642 -0.302,1.5556 -0.8962,2.0836 -0.6039,0.5281 -1.5295,0.797 -2.7861,0.797 h -2.1042 v 16.8804 c 0,1.7285 0.7306,3.2552 2.1821,4.5802 1.4613,1.3251 3.2148,1.9878 5.2701,1.9878 1.3736,0 2.6596,-0.317 3.8577,-0.9604 1.1984,-0.6336 2.1822,-1.5651 2.942,-2.7845 0.4772,-0.7778 0.7111,-1.7093 0.7111,-2.8231 v -16.8804 h -2.104 c -1.2568,0 -2.1822,-0.2689 -2.7861,-0.797 -0.5943,-0.528 -0.8964,-1.2194 -0.8964,-2.0836 0,-0.8642 0.3021,-1.5556 0.8964,-2.0836 0.6039,-0.5281 1.5293,-0.797 2.7861,-0.797 h 7.9489 c 1.4516,0 2.4745,0.2592 3.0784,0.7778 0.5942,0.5185 0.8962,1.2099 0.8962,2.0739 0,0.8643 -0.302,1.5653 -0.8962,2.103 -0.6039,0.5376 -1.6268,0.8065 -3.0784,0.8065 z m 24.0445,0 v 22.5841 h 12.6251 v -5.4733 c 0,-1.4306 0.2727,-2.4388 0.8182,-3.0341 0.5455,-0.5858 1.2568,-0.8834 2.1335,-0.8834 0.8766,0 1.578,0.2976 2.1042,0.8834 0.526,0.5953 0.789,1.6035 0.789,3.0341 v 11.2346 h -27.705 c -1.4515,0 -2.4744,-0.2689 -3.0783,-0.8067 -0.5943,-0.5377 -0.8962,-1.2386 -0.8962,-2.1028 0,-0.8642 0.3019,-1.5554 0.8962,-2.074 0.6039,-0.5187 1.6268,-0.7778 3.0783,-0.7778 h 3.3901 v -22.5841 h -3.3901 c -1.4515,0 -2.4744,-0.2689 -3.0783,-0.797 -0.5943,-0.528 -0.8962,-1.2194 -0.8962,-2.0836 0,-0.8642 0.3019,-1.5556 0.8962,-2.0836 0.6039,-0.5281 1.6268,-0.797 3.0783,-0.797 h 12.6834 c 1.4516,0 2.4745,0.2592 3.0786,0.7778 0.594,0.5185 0.8962,1.2099 0.8962,2.0739 0,0.8643 -0.3022,1.5653 -0.8962,2.103 -0.6041,0.5376 -1.627,0.8065 -3.0786,0.8065 z m 46.6208,0 v 22.5841 h 3.9159 c 1.4516,0 2.4745,0.2688 3.0784,0.797 0.5943,0.5281 0.8964,1.2194 0.8964,2.0837 0,0.8642 -0.3021,1.5554 -0.8964,2.0836 -0.6039,0.5281 -1.6268,0.797 -3.0784,0.797 h -13.677 c -1.4516,0 -2.4745,-0.2689 -3.0784,-0.8067 -0.5942,-0.5377 -0.8962,-1.2386 -0.8962,-2.1028 0,-0.8642 0.302,-1.5554 0.8962,-2.074 0.6039,-0.5187 1.6268,-0.7778 3.0784,-0.7778 h 3.9161 v -22.5841 h -6.371 v 5.4732 c 0,1.4308 -0.2728,2.439 -0.8086,3.0343 -0.5358,0.5857 -1.237,0.8834 -2.1139,0.8834 -0.8767,0 -1.5781,-0.2977 -2.1139,-0.8834 -0.5358,-0.5953 -0.8086,-1.6035 -0.8086,-3.0343 V 562.257 h 30.3354 v 11.2344 c 0,1.4308 -0.2729,2.439 -0.8086,3.0343 -0.5358,0.5857 -1.2372,0.8834 -2.1139,0.8834 -0.8768,0 -1.5782,-0.2977 -2.1141,-0.8834 -0.5358,-0.5953 -0.8083,-1.6035 -0.8083,-3.0343 v -5.4732 z m 41.3602,0 v 22.5841 h 5.9034 c 1.4515,0 2.4744,0.2688 3.0783,0.797 0.5943,0.5281 0.8962,1.2194 0.8962,2.0837 0,0.8642 -0.3019,1.5554 -0.8962,2.0836 -0.6039,0.5281 -1.6268,0.797 -3.0783,0.797 h -17.6518 c -1.4514,0 -2.4743,-0.2689 -3.0782,-0.8067 -0.5944,-0.5377 -0.8962,-1.2386 -0.8962,-2.1028 0,-0.8642 0.3018,-1.5554 0.8962,-2.074 0.6039,-0.5187 1.6268,-0.7778 3.0782,-0.7778 h 5.9035 v -22.5841 h -5.9035 c -1.4514,0 -2.4743,-0.2689 -3.0782,-0.797 -0.5944,-0.528 -0.8962,-1.2194 -0.8962,-2.0836 0,-0.8642 0.3018,-1.5556 0.8962,-2.0836 0.6039,-0.5281 1.6268,-0.797 3.0782,-0.797 h 17.6518 c 1.4515,0 2.4744,0.2592 3.0783,0.7778 0.5943,0.5185 0.8962,1.2099 0.8962,2.0739 0,0.8643 -0.3019,1.5653 -0.8962,2.103 -0.6039,0.5376 -1.6268,0.8065 -3.0783,0.8065 z m 31.8788,5.1275 v 17.4566 h 2.1043 c 1.4515,0 2.4744,0.2688 3.0783,0.797 0.5943,0.5281 0.8962,1.2194 0.8962,2.0837 0,0.8642 -0.3019,1.5554 -0.8962,2.0836 -0.6039,0.5281 -1.6268,0.797 -3.0783,0.797 h -7.9492 c -1.4514,0 -2.4743,-0.2689 -3.0782,-0.8067 -0.5944,-0.5377 -0.8962,-1.2386 -0.8962,-2.1028 0,-0.8642 0.3018,-1.5554 0.8962,-2.074 0.6039,-0.5187 1.6268,-0.7778 3.0782,-0.7778 v -22.5841 h -0.9351 c -1.4515,0 -2.4744,-0.2689 -3.0783,-0.797 -0.5943,-0.528 -0.8962,-1.2194 -0.8962,-2.0836 0,-0.8642 0.3019,-1.5556 0.8962,-2.0836 0.6039,-0.5281 1.6268,-0.797 3.0783,-0.797 h 6.7315 l 15.0702,23.1313 v -17.3701 h -2.1043 c -1.4515,0 -2.4742,-0.2689 -3.0783,-0.797 -0.5943,-0.528 -0.8962,-1.2194 -0.8962,-2.0836 0,-0.8642 0.3019,-1.5556 0.8962,-2.0836 0.6041,-0.5281 1.6268,-0.797 3.0783,-0.797 h 7.9492 c 1.4514,0 2.4743,0.2592 3.0783,0.7778 0.5943,0.5185 0.8961,1.2099 0.8961,2.0739 0,0.8643 -0.3018,1.5653 -0.8961,2.103 -0.604,0.5376 -1.6269,0.8065 -3.0783,0.8065 v 28.3454 h -5.738 z m 59.7643,6.1742 c 0,-3.5048 -1.0811,-6.4141 -3.2341,-8.7187 -2.1626,-2.295 -4.6077,-3.4472 -7.3549,-3.4472 -2.7373,0 -5.1727,1.1522 -7.3354,3.4664 -2.1528,2.3046 -3.2342,5.2139 -3.2342,8.6995 0,3.4951 1.0814,6.3949 3.2342,8.6994 2.1627,2.2949 4.5981,3.4473 7.3354,3.4473 2.7472,0 5.1923,-1.1427 7.3549,-3.4378 2.153,-2.2946 3.2341,-5.1945 3.2341,-8.7089 z m 5.8449,0 c 0,5.1274 -1.6558,9.3908 -4.9584,12.7995 -3.312,3.4087 -7.1307,5.1084 -11.4755,5.1084 -3.9161,0 -7.4327,-1.4211 -10.5793,-4.2539 -3.887,-3.5046 -5.8353,-8.0561 -5.8353,-13.654 0,-5.5884 1.9483,-10.1495 5.8353,-13.6734 3.1466,-2.8326 6.6632,-4.2536 10.5793,-4.2536 4.3448,0 8.1635,1.6994 11.4755,5.1081 3.3026,3.4089 4.9584,7.6818 4.9584,12.8189 z m 26.186,-11.3017 v 22.5841 h 3.9162 c 1.4515,0 2.4743,0.2688 3.0784,0.797 0.5942,0.5281 0.8962,1.2194 0.8962,2.0837 0,0.8642 -0.302,1.5554 -0.8962,2.0836 -0.6041,0.5281 -1.6269,0.797 -3.0784,0.797 h -13.6771 c -1.4515,0 -2.4744,-0.2689 -3.0783,-0.8067 -0.5944,-0.5377 -0.8962,-1.2386 -0.8962,-2.1028 0,-0.8642 0.3018,-1.5554 0.8962,-2.074 0.6039,-0.5187 1.6268,-0.7778 3.0783,-0.7778 h 3.916 v -22.5841 h -6.3709 v 5.4732 c 0,1.4308 -0.2729,2.439 -0.8085,3.0343 -0.5359,0.5857 -1.2373,0.8834 -2.1139,0.8834 -0.8769,0 -1.5781,-0.2977 -2.1139,-0.8834 -0.5359,-0.5953 -0.8086,-1.6035 -0.8086,-3.0343 V 562.257 h 30.3352 v 11.2344 c 0,1.4308 -0.2728,2.439 -0.8086,3.0343 -0.5358,0.5857 -1.2372,0.8834 -2.1139,0.8834 -0.8767,0 -1.5783,-0.2977 -2.1139,-0.8834 -0.5358,-0.5953 -0.8086,-1.6035 -0.8086,-3.0343 v -5.4732 z m 39.9775,0 v 22.5841 h 5.9035 c 1.4516,0 2.4743,0.2688 3.0782,0.797 0.5943,0.5281 0.8964,1.2194 0.8964,2.0837 0,0.8642 -0.3021,1.5554 -0.8964,2.0836 -0.6039,0.5281 -1.6266,0.797 -3.0782,0.797 h -17.6517 c -1.4516,0 -2.4743,-0.2689 -3.0782,-0.8067 -0.5945,-0.5377 -0.8964,-1.2386 -0.8964,-2.1028 0,-0.8642 0.3019,-1.5554 0.8964,-2.074 0.6039,-0.5187 1.6266,-0.7778 3.0782,-0.7778 h 5.9033 v -22.5841 h -5.9033 c -1.4516,0 -2.4743,-0.2689 -3.0782,-0.797 -0.5945,-0.528 -0.8964,-1.2194 -0.8964,-2.0836 0,-0.8642 0.3019,-1.5556 0.8964,-2.0836 0.6039,-0.5281 1.6266,-0.797 3.0782,-0.797 h 17.6517 c 1.4516,0 2.4743,0.2592 3.0782,0.7778 0.5943,0.5185 0.8964,1.2099 0.8964,2.0739 0,0.8643 -0.3021,1.5653 -0.8964,2.103 -0.6039,0.5376 -1.6266,0.8065 -3.0782,0.8065 z m 47.3246,-4.2632 c 0.3606,-0.4995 0.76,-0.8739 1.1885,-1.1236 0.4287,-0.2496 0.8865,-0.3744 1.3835,-0.3744 0.8668,0 1.5585,0.2881 2.104,0.8737 0.5455,0.5761 0.8184,1.5651 0.8184,2.9479 v 4.8875 c 0,1.3828 -0.2729,2.3718 -0.8085,2.9671 -0.5455,0.5856 -1.2471,0.8834 -2.0946,0.8834 -0.7793,0 -1.4125,-0.2114 -1.8899,-0.6435 -0.4675,-0.4321 -0.8279,-1.2386 -1.0521,-2.4197 -0.1363,-0.7778 -0.3992,-1.3922 -0.7987,-1.8244 -0.7793,-0.8353 -1.8703,-1.5075 -3.2635,-2.0164 -1.3929,-0.509 -2.7957,-0.7586 -4.2084,-0.7586 -1.7437,0 -3.3509,0.3744 -4.8122,1.1235 -1.4711,0.7586 -2.7569,1.978 -3.8772,3.6679 -1.1202,1.69 -1.6853,3.6969 -1.6853,6.0301 v 3.7448 c 0,2.7751 1.0229,5.0988 3.0685,6.9616 2.0458,1.8532 4.8807,2.7847 8.5142,2.7847 2.1723,0 4.0038,-0.2882 5.5138,-0.8739 0.8766,-0.3361 1.8022,-1.0083 2.7957,-2.0068 0.6041,-0.6049 1.0814,-0.989 1.4224,-1.1715 0.341,-0.1824 0.7306,-0.2688 1.1689,-0.2688 0.7794,0 1.4709,0.288 2.0555,0.8737 0.5942,0.5858 0.8865,1.2675 0.8865,2.0548 0,0.7873 -0.3994,1.6324 -1.1981,2.535 -1.1593,1.3155 -2.6498,2.3429 -4.4812,3.1015 -2.4548,1.0082 -5.1631,1.5172 -8.1343,1.5172 -3.4581,0 -6.5755,-0.701 -9.3518,-2.1127 -2.2502,-1.1233 -4.1596,-2.8996 -5.7377,-5.3289 -1.5783,-2.4391 -2.3673,-5.0893 -2.3673,-7.9602 v -3.9081 c 0,-3.0054 0.7111,-5.8093 2.1237,-8.4018 1.4125,-2.6022 3.3705,-4.6089 5.8839,-6.0108 2.5036,-1.4115 5.163,-2.1124 7.9783,-2.1124 1.6852,0 3.2635,0.1919 4.7344,0.5856 1.4808,0.3841 2.8445,0.9794 4.1206,1.7765 z m 34.7605,4.2632 v 22.5841 h 5.9036 c 1.4513,0 2.4742,0.2688 3.0782,0.797 0.5942,0.5281 0.8962,1.2194 0.8962,2.0837 0,0.8642 -0.302,1.5554 -0.8962,2.0836 -0.604,0.5281 -1.6269,0.797 -3.0782,0.797 H 462.937 c -1.4516,0 -2.4743,-0.2689 -3.0784,-0.8067 -0.5942,-0.5377 -0.8962,-1.2386 -0.8962,-2.1028 0,-0.8642 0.302,-1.5554 0.8962,-2.074 0.6041,-0.5187 1.6268,-0.7778 3.0784,-0.7778 h 5.9033 v -22.5841 h -5.9033 c -1.4516,0 -2.4743,-0.2689 -3.0784,-0.797 -0.5942,-0.528 -0.8962,-1.2194 -0.8962,-2.0836 0,-0.8642 0.302,-1.5556 0.8962,-2.0836 0.6041,-0.5281 1.6268,-0.797 3.0784,-0.797 h 17.6518 c 1.4513,0 2.4742,0.2592 3.0782,0.7778 0.5942,0.5185 0.8962,1.2099 0.8962,2.0739 0,0.8643 -0.302,1.5653 -0.8962,2.103 -0.604,0.5376 -1.6269,0.8065 -3.0782,0.8065 z m 43.2866,13.3084 -4.7051,-11.4456 -4.7052,11.4456 z m 2.3673,5.7614 h -14.1544 l -1.4419,3.5143 h 1.4028 c 1.4612,0 2.4938,0.2688 3.0977,0.797 0.5943,0.5281 0.8964,1.2194 0.8964,2.0837 0,0.8642 -0.3021,1.5554 -0.8964,2.0836 -0.6039,0.5281 -1.6365,0.797 -3.0977,0.797 h -7.6957 c -1.4516,0 -2.4745,-0.2689 -3.0786,-0.8067 -0.594,-0.5377 -0.8962,-1.2386 -0.8962,-2.1028 0,-0.8642 0.3022,-1.5554 0.8962,-2.074 0.6041,-0.5187 1.627,-0.7778 3.0786,-0.7778 l 9.2349,-22.5841 h -3.7993 c -1.4514,0 -2.4743,-0.2689 -3.0782,-0.797 -0.5944,-0.528 -0.8962,-1.2194 -0.8962,-2.0836 0,-0.8642 0.3018,-1.5556 0.8962,-2.0836 0.6039,-0.5281 1.6268,-0.797 3.0782,-0.797 h 12.5472 l 11.6509,28.3453 c 1.4514,0 2.377,0.1729 2.7764,0.5186 0.7987,0.7104 1.1982,1.4978 1.1982,2.3621 0,0.8642 -0.302,1.5554 -0.8964,2.0836 -0.6039,0.5281 -1.6268,0.797 -3.0782,0.797 h -7.7056 c -1.4612,0 -2.4841,-0.2689 -3.088,-0.8067 -0.5943,-0.5377 -0.8962,-1.2386 -0.8962,-2.1028 0,-0.8642 0.3019,-1.5554 0.8962,-2.074 0.6039,-0.5187 1.6268,-0.7778 3.088,-0.7778 h 1.4028 z m 24.9753,7.8353 c -0.5163,0.6144 -0.9255,1.0082 -1.2471,1.1809 -0.3117,0.173 -0.7013,0.2594 -1.1591,0.2594 -0.8962,0 -1.6172,-0.2978 -2.153,-0.8834 -0.5455,-0.5953 -0.8182,-1.5748 -0.8182,-2.9479 v -3.8888 c 0,-1.3923 0.2727,-2.3813 0.8182,-2.9766 0.5358,-0.5858 1.2568,-0.8834 2.153,-0.8834 0.6915,0 1.2662,0.1824 1.734,0.5377 0.4675,0.3552 0.8182,0.941 1.0714,1.7764 0.2436,0.8353 0.5066,1.4017 0.7697,1.6995 0.5552,0.5856 1.5293,1.1716 2.9321,1.7669 1.4029,0.6047 2.942,0.9026 4.6176,0.9026 2.601,0 4.7344,-0.6052 6.4001,-1.8052 1.062,-0.73 1.5976,-1.6326 1.5976,-2.6983 0,-0.7201 -0.2532,-1.3923 -0.7695,-2.0164 -0.5064,-0.6337 -1.3345,-1.1522 -2.4938,-1.5651 -0.7501,-0.2785 -2.4452,-0.6627 -5.0656,-1.1524 -3.1758,-0.5856 -5.582,-1.2865 -7.2185,-2.1123 -1.6463,-0.8259 -2.942,-1.9878 -3.8869,-3.4951 -0.9547,-1.4981 -1.4321,-3.1207 -1.4321,-4.8684 0,-2.7557 1.169,-5.1755 3.4972,-7.2496 2.3282,-2.074 5.3579,-3.1109 9.0889,-3.1109 1.4904,0 2.8836,0.1632 4.1597,0.4992 1.2761,0.3265 2.4354,0.8354 3.4778,1.5172 0.7695,-0.7299 1.5392,-1.0948 2.3087,-1.0948 0.867,0 1.5781,0.2977 2.1236,0.8931 0.5553,0.5858 0.8281,1.5651 0.8281,2.9382 v 4.3498 c 0,1.3826 -0.2728,2.3813 -0.8183,2.9671 -0.5358,0.5953 -1.2372,0.8929 -2.0943,0.8929 -0.7308,0 -1.3543,-0.2209 -1.8899,-0.653 -0.419,-0.3168 -0.7308,-0.9602 -0.945,-1.93 -0.2046,-0.9602 -0.4774,-1.6515 -0.7989,-2.0645 -0.5455,-0.72 -1.3736,-1.325 -2.4742,-1.8147 -1.0912,-0.4898 -2.3673,-0.7394 -3.7993,-0.7394 -2.1041,0 -3.77,0.4802 -4.9877,1.45 -1.2177,0.9698 -1.8314,1.978 -1.8314,3.0246 0,0.7203 0.2534,1.4115 0.7501,2.074 0.5066,0.6722 1.2372,1.1907 2.2015,1.5653 0.643,0.2591 2.4453,0.6817 5.4262,1.2673 2.9712,0.5857 5.27,1.2196 6.8775,1.9108 1.6073,0.701 2.942,1.786 4.0134,3.2743 1.062,1.4787 1.5976,3.2456 1.5976,5.2908 0,2.8518 -1.013,5.1275 -3.0489,6.8367 -2.6985,2.2564 -6.1471,3.38 -10.3262,3.38 -1.6171,0 -3.1952,-0.1922 -4.7245,-0.5762 -1.5295,-0.3841 -3.0199,-0.9602 -4.4616,-1.7283 z M 53.9439,573.3858 v 17.2165 h 2.1043 c 1.4515,0 2.4744,0.2688 3.0783,0.797 0.5943,0.5281 0.8962,1.2194 0.8962,2.0837 0,0.8642 -0.3019,1.5554 -0.8962,2.0836 -0.6039,0.5281 -1.6268,0.797 -3.0783,0.797 H 48.099 c -1.4515,0 -2.4743,-0.2689 -3.0783,-0.8067 -0.5941,-0.5377 -0.8962,-1.2386 -0.8962,-2.1028 0,-0.8642 0.3021,-1.5554 0.8962,-2.074 0.604,-0.5187 1.6268,-0.7778 3.0783,-0.7778 v -22.5841 c -1.4515,0 -2.4743,-0.2689 -3.0783,-0.797 -0.5941,-0.528 -0.8962,-1.2194 -0.8962,-2.0836 0,-0.8642 0.3021,-1.5556 0.8962,-2.0836 0.604,-0.5281 1.6268,-0.797 3.0783,-0.797 h 7.2185 l 8.0076,17.3413 7.8712,-17.3413 h 7.2379 c 1.4515,0 2.4744,0.2592 3.0783,0.7778 0.5943,0.5185 0.8962,1.2099 0.8962,2.0739 0,0.8643 -0.3019,1.5653 -0.8962,2.103 -0.6039,0.5376 -1.6268,0.8065 -3.0783,0.8065 v 22.5841 c 1.4515,0 2.4744,0.2688 3.0783,0.797 0.5943,0.5281 0.8962,1.2194 0.8962,2.0837 0,0.8642 -0.3019,1.5554 -0.8962,2.0836 -0.6039,0.5281 -1.6268,0.797 -3.0783,0.797 h -8.0076 c -1.4514,0 -2.4743,-0.2689 -3.0782,-0.8067 -0.5942,-0.5377 -0.8964,-1.2386 -0.8964,-2.1028 0,-0.8642 0.3022,-1.5554 0.8964,-2.074 0.6039,-0.5187 1.6268,-0.7778 3.0782,-0.7778 h 2.1627 v -17.2165 l -6.7412,14.8639 h -5.0363 z"
       style="fill:#c75121;fill-rule:evenodd"
       id="path10"
       inkscape:connector-curvature="0" />
  </g>
</svg>
