<svg xmlns="http://www.w3.org/2000/svg" width="400" height="260.928"><path d="M16.57 24.662h10.378v19.193c0 4.03-.337 7.096-1.015 9.2-.677 2.1-2.045 3.886-4.093 5.345-2.05 1.46-4.672 2.19-7.874 2.19-3.38 0-6.004-.482-7.862-1.444-1.857-.965-3.297-2.374-4.308-4.23C.78 53.06.184 50.765 0 48.035l9.9-1.424c.015 1.563.14 2.715.386 3.474.245.754.655 1.363 1.233 1.83.397.307.96.456 1.692.456 1.16 0 2.006-.452 2.546-1.36.544-.907.812-2.435.812-4.583V24.66zM51.09 46.517l-3.7-12.698-3.66 12.697h7.36zm2.145 7.64H41.482l-1.63 5.833H29.28l12.59-35.328h11.294l12.59 35.328H54.913l-1.677-5.833zM68.202 24.662h29.3v7.06L78.692 52.4h19.495v7.59H66.394v-7.327l18.616-20.46H68.202v-7.54zM102.003 24.662h29.304v7.06L112.497 52.4h19.495v7.59h-31.796v-7.327l18.61-20.46h-16.803v-7.54zM131.436 62.406h67.855v138.927h-67.854V62.406zM.288 201.018V62.778h31.475l65.577 92.317V62.777h30.054v138.24h-32.46l-64.592-90.15v90.15H.288zM1.48 20.952V.352h2.797L15.1 16.526V.353h2.61v20.6h-2.795L4.097 4.762v16.19H1.48zM22.353.353h2.726v20.6h-2.727V.352zM44.18 13.73l2.728.688c-.57 2.237-1.6 3.948-3.087 5.124-1.485 1.176-3.296 1.762-5.44 1.762-2.222 0-4.03-.452-5.42-1.356-1.39-.904-2.45-2.214-3.174-3.93-.728-1.715-1.092-3.553-1.092-5.52 0-2.146.41-4.018 1.234-5.615.815-1.597 1.983-2.81 3.496-3.638C34.937.415 36.602 0 38.418 0c2.064 0 3.795.525 5.2 1.574 1.406 1.05 2.386 2.524 2.937 4.427l-2.684.633c-.474-1.498-1.17-2.59-2.08-3.275-.906-.685-2.05-1.026-3.426-1.026-1.582 0-2.907.38-3.97 1.138-1.066.758-1.81 1.776-2.24 3.06-.434 1.275-.65 2.596-.65 3.95 0 1.755.258 3.283.767 4.593.51 1.302 1.307 2.282 2.383 2.93 1.076.643 2.244.968 3.5.968 1.528 0 2.82-.44 3.88-1.32 1.057-.88 1.773-2.186 2.148-3.92M53.544 12.492h6.985l-2.153-5.706c-.655-1.73-1.14-3.155-1.46-4.27-.263 1.322-.63 2.63-1.11 3.933l-2.263 6.042zm-5.943 8.46l7.913-20.6h2.937l8.43 20.6h-3.107l-2.4-6.24h-8.614l-2.264 6.24H47.6zM71.423 9.443h5.86c1.248 0 2.22-.126 2.92-.387.706-.256 1.238-.67 1.606-1.237.362-.567.546-1.184.546-1.846 0-.977-.356-1.777-1.06-2.405-.71-.63-1.827-.943-3.35-.943h-6.523v6.816zM68.696 20.95V.353h9.134c1.838 0 3.232.184 4.19.555.953.372 1.72 1.023 2.29 1.96.57.935.857 1.973.857 3.107 0 1.46-.475 2.692-1.42 3.695-.947 1-2.41 1.638-4.385 1.91.723.345 1.27.69 1.646 1.026.793.728 1.547 1.643 2.26 2.738l3.584 5.607h-3.427l-2.727-4.284c-.797-1.237-1.45-2.183-1.968-2.838-.513-.655-.977-1.114-1.383-1.38-.41-.26-.823-.443-1.244-.546-.31-.065-.816-.1-1.517-.1h-3.163v9.15h-2.727z" fill="#1e549e"/><path d="M92.717 12.492h6.985L97.55 6.786c-.655-1.73-1.142-3.155-1.46-4.27-.264 1.322-.632 2.63-1.11 3.933l-2.263 6.042zm-5.944 8.46l7.912-20.6h2.937l8.43 20.6h-3.107l-2.4-6.24H91.93l-2.264 6.24h-2.895zM117.467 12.872v-2.417l8.728-.015v7.644c-1.34 1.068-2.723 1.872-4.147 2.412-1.425.536-2.884.808-4.385.808-2.022 0-3.86-.432-5.515-1.302-1.654-.865-2.903-2.117-3.745-3.756-.843-1.64-1.264-3.474-1.264-5.496 0-2.006.417-3.875 1.255-5.614.84-1.738 2.045-3.03 3.62-3.872C113.587.422 115.402 0 117.45 0c1.49 0 2.838.242 4.04.725 1.203.482 2.15 1.152 2.834 2.014.682.86 1.203 1.986 1.56 3.373l-2.46.674c-.31-1.05-.693-1.873-1.153-2.474-.46-.598-1.114-1.076-1.968-1.44-.854-.36-1.8-.54-2.838-.54-1.244 0-2.324.188-3.232.57-.907.376-1.643.877-2.198 1.494-.56.62-.992 1.298-1.302 2.037-.524 1.276-.785 2.658-.785 4.148 0 1.834.318 3.373.946 4.607.636 1.236 1.555 2.155 2.76 2.756 1.21.597 2.494.9 3.854.9 1.18 0 2.332-.23 3.458-.682 1.122-.456 1.976-.942 2.554-1.455V12.87h-6.055zM143.328.352h2.727v11.902c0 2.07-.234 3.714-.705 4.932-.467 1.218-1.313 2.21-2.535 2.972-1.222.766-2.826 1.145-4.814 1.145-1.93 0-3.507-.333-4.732-.996-1.23-.666-2.106-1.627-2.63-2.89-.526-1.257-.786-2.98-.786-5.163V.352h2.727v11.886c0 1.793.163 3.11.497 3.956.333.85.903 1.5 1.715 1.96.808.46 1.8.69 2.972.69 2.003 0 3.43-.455 4.285-1.363.853-.907 1.278-2.653 1.278-5.242V.352zM153.87 12.492h6.987l-2.153-5.706c-.655-1.73-1.14-3.155-1.46-4.27-.263 1.322-.63 2.63-1.11 3.933l-2.263 6.042zm-5.942 8.46l7.912-20.6h2.937l8.43 20.6H164.1l-2.4-6.24h-8.614l-2.263 6.24h-2.895zM175.093.95h2.79v20.6h-2.79V.95zM182.366 21.55V.953h2.865l11.083 16.172V.952h2.677v20.6h-2.865L185.043 5.363V21.55h-2.677zM208.637 21.55V3.38h-6.95V.952h16.723V3.38h-6.977v18.17h-2.796zM220.922 21.55V.953h15.253V3.38h-12.46v6.31h11.67v2.418h-11.67v7.012h12.95v2.43h-15.743zM242.95 10.042h5.996c1.28 0 2.275-.126 2.995-.386.72-.257 1.272-.67 1.643-1.237.372-.568.56-1.185.56-1.847 0-.977-.36-1.777-1.088-2.405-.724-.628-1.87-.942-3.43-.942h-6.676v6.816zm-2.797 11.508V.95h9.356c1.883 0 3.31.185 4.288.557.976.37 1.76 1.022 2.347 1.96.586.935.873 1.972.873 3.106 0 1.46-.478 2.692-1.45 3.695-.97 1-2.463 1.64-4.49 1.91.74.346 1.3.69 1.682 1.028.82.727 1.59 1.643 2.32 2.738l3.67 5.606h-3.512l-2.788-4.285c-.82-1.237-1.494-2.183-2.014-2.838-.537-.655-1.008-1.114-1.42-1.378-.42-.262-.848-.446-1.276-.55-.314-.064-.835-.1-1.555-.1h-3.236v9.15h-2.797zM260.954 21.55V.953h2.87l11.08 16.172V.952h2.674v20.6h-2.86L263.635 5.363V21.55h-2.68zM285.633 13.092h7.153l-2.205-5.706c-.67-1.73-1.167-3.156-1.493-4.27-.268 1.32-.65 2.63-1.137 3.933l-2.317 6.042zm-6.09 8.46l8.104-20.6h3.01l8.636 20.6h-3.183l-2.462-6.24h-8.823l-2.317 6.24h-2.964zM304.288 21.55V3.38h-6.95V.952h16.723V3.38h-6.976v18.17h-2.796zM316.987.95h2.796v20.6h-2.796V.95zM326.32 11.56c0 2.482.685 4.44 2.052 5.867 1.367 1.428 3.083 2.144 5.147 2.144 2.1 0 3.828-.722 5.184-2.166 1.36-1.44 2.04-3.49 2.04-6.14 0-1.676-.294-3.14-.868-4.39-.582-1.253-1.436-2.218-2.555-2.912-1.113-.685-2.37-1.03-3.763-1.03-1.976 0-3.676.663-5.1 1.988-1.422 1.33-2.138 3.538-2.138 6.64m-2.88-.042c0-3.42.938-6.097 2.822-8.03 1.88-1.934 4.312-2.903 7.287-2.903 1.945 0 3.702.455 5.26 1.363 1.567.908 2.758 2.175 3.578 3.803.823 1.624 1.233 3.466 1.233 5.53 0 2.088-.432 3.956-1.294 5.607-.865 1.647-2.087 2.895-3.672 3.74-1.582.852-3.29 1.277-5.12 1.277-1.988 0-3.764-.47-5.327-1.406-1.566-.938-2.75-2.217-3.56-3.837-.806-1.62-1.208-3.334-1.208-5.142M346.774 21.55V.953h2.87l11.085 16.172V.952h2.668v20.6h-2.86l-11.08-16.188V21.55h-2.684zM371.447 13.092h7.16L376.4 7.386c-.67-1.73-1.17-3.156-1.495-4.27-.272 1.32-.647 2.63-1.133 3.933l-2.325 6.042zm-6.08 8.46l8.098-20.6h3.01l8.64 20.6h-3.19l-2.455-6.24h-8.827l-2.313 6.24h-2.964zM386.815 21.55V.953h2.788V19.12H400v2.43h-13.185zM151.873 59.388V25.443h26.132v5.744H159.57v8.034h15.912v5.742H159.57v14.426h-7.697zM184.35 59.388V25.443h28.266v5.744h-20.568v7.525h19.136v5.718h-19.136v9.236h21.296v5.722H184.35zM217.92 48.343l7.487-.648c.452 2.237 1.368 3.88 2.746 4.933 1.38 1.045 3.236 1.574 5.576 1.574 2.48 0 4.35-.468 5.602-1.402 1.26-.934 1.887-2.026 1.887-3.274 0-.804-.265-1.49-.793-2.053-.53-.563-1.452-1.053-2.77-1.47-.9-.276-2.955-.774-6.16-1.482-4.13-.907-7.024-2.03-8.69-3.354-2.34-1.87-3.508-4.147-3.508-6.832 0-1.727.55-3.343 1.65-4.848 1.103-1.51 2.684-2.654 4.76-3.443 2.068-.785 4.57-1.18 7.498-1.18 4.787 0 8.39.935 10.807 2.804 2.42 1.865 3.688 4.358 3.81 7.48l-7.7.298c-.326-1.743-1.03-3-2.115-3.76-1.083-.767-2.71-1.15-4.878-1.15-2.237 0-3.987.41-5.255 1.23-.81.524-1.217 1.225-1.217 2.106 0 .8.38 1.49 1.14 2.06.974.73 3.33 1.483 7.074 2.268 3.745.79 6.514 1.6 8.31 2.443 1.792.844 3.198 1.993 4.212 3.456 1.015 1.455 1.52 3.26 1.52 5.403 0 1.944-.604 3.767-1.818 5.464-1.218 1.7-2.93 2.96-5.15 3.783-2.218.827-4.983 1.24-8.296 1.24-4.817 0-8.52-.987-11.105-2.974-2.58-1.984-4.125-4.875-4.626-8.67M263.97 59.388v-28.2h-11.31v-5.745h30.294v5.744H271.67v28.2h-7.7zM287.688 25.444h7.693V59.39h-7.692V25.443zM312.44 59.388l-13.624-33.945h8.348l9.647 25.12 9.337-25.12h8.165l-13.656 33.945h-8.215zM354.487 45.957l-5.25-12.595-5.15 12.595h10.4zm14.173 13.43h-8.37l-3.333-7.71H341.72l-3.145 7.71h-8.168l14.85-33.945h8.14l15.263 33.945zM372.95 59.388v-33.67h7.698v27.948h19.136v5.722H372.95zM266.34 94.816h29.04v103.397c0 13.518-1.05 23.92-3.147 31.202-2.826 9.498-7.943 17.107-15.36 22.855-7.414 5.763-17.2 8.658-29.338 8.658-14.242 0-25.206-4.534-32.88-13.548-7.686-9.03-11.558-22.246-11.623-39.705l27.47-3.542c.332 9.34 1.542 15.946 3.64 19.825 3.153 5.852 7.947 8.8 14.377 8.8 6.494 0 11.093-2.125 13.785-6.322 2.692-4.2 4.036-12.882 4.036-26.098V94.816z" fill="#1e549e"/><path d="M399.674 200.747H203.03V62.777h196.644v137.97z" fill="#1e549e"/><path d="M295.382 201.896V62.776h104.293V86.31H326.1v32.93h63.51v23.536H326.1v59.12H295.38zM160.97 99.268c0 7.173-5.818 12.99-12.99 12.99-7.173 0-12.99-5.817-12.99-12.99 0-7.172 5.817-12.99 12.99-12.99 7.172 0 12.99 5.818 12.99 12.99" fill="#fff"/><path d="M151.526 99.268c0 1.96-1.59 3.547-3.546 3.547-1.96 0-3.55-1.586-3.55-3.547 0-1.96 1.59-3.546 3.55-3.546 1.957 0 3.546 1.586 3.546 3.546" fill="#004494"/><path d="M193.445 106.688c0 7.173-5.817 12.99-12.99 12.99-7.172 0-12.99-5.817-12.99-12.99s5.818-12.99 12.99-12.99c7.173 0 12.99 5.817 12.99 12.99" fill="#fff"/><path d="M184.002 106.688c0 1.96-1.585 3.546-3.546 3.546-1.96 0-3.55-1.585-3.55-3.546 0-1.96 1.59-3.546 3.55-3.546 1.96 0 3.546 1.585 3.546 3.546" fill="#004494"/><path d="M152.376 85.004H134.99V62.322h17.386v22.682zM174.06 85.004h-17.387V62.322h17.386v22.682zM195.393 85.004h-17.386V62.322h17.386v22.682zM150.95 111.91l8.953 88.576h-4.476l-8.314-88.228 3.837-.348zM176.355 119.013l-10.19 81.473h3.733l10.558-80.806-4.1-.667z" fill="#fff"/></svg>