<svg xmlns="http://www.w3.org/2000/svg" width="400.006" height="141.713"><defs><clipPath id="a"><path d="M0 0h612v792H0V0z"/></clipPath><clipPath id="b"><path d="M363.08 122.08c0-16.455 13.197-29.798 29.476-29.798 16.28 0 29.48 13.343 29.48 29.8 0 16.45-13.2 29.788-29.48 29.788s-29.477-13.337-29.477-29.79"/></clipPath></defs><g clip-path="url(#a)" transform="matrix(1.7 0 0 -1.7 -616.2 260.6)"><path d="M463.1 148.6c-3.17-.635-3.93-6.106-4.74-9.34-2.575-10.297-4.632-19.535-6.694-29.847-.182-.917-.247-2.03-.838-2.65-.98 9.39-2.767 17.932-4.044 27.75-.325 2.537-.672 7.43-1.95 8.788-.82.867-6.096 2.45-7.807 1.675-1.23-.562-1.79-4.42-2.37-6.275-5.218-16.587-8.8-30.287-12.554-47.555 2.002-1.015 4.59-1.45 7.81-1.25 2.02 2.164 2.81 5.4 3.486 8.5 2.105 9.69 4.327 20.332 5.992 30.26.86-9.806 2.818-20.247 5.02-29 .7-2.754 1.7-6.776 3.766-7.674.813-.35 4.993-.925 5.858-.696 1.497.396 2.45 3.743 3.072 5.717 2.185 7.007 3.83 14.587 5.434 21.336 2.387 10.035 5.05 18.714 6.974 28.732-1.117 1.372-4.303 1.957-6.416 1.533M480.112 131.45c1.64.48 4.155 3.102 4.184 5.85.04 3.67-1.152 6.225-5.156 5.446-1.993-.392-3.878-2.042-4.466-3.767-.163-.48-.103-1.295-.277-1.958-.175-.653-.516-1.126-.56-1.666-.287-3.55 3.683-4.67 6.275-3.906M587.07 115.135c-.355-5.25-2.672-11.027-5.023-15.064-.575-.987-2.117-3.464-3.345-3.207-1.295.273-1.125 4.523-.838 6.275.725 4.39 2.59 8.177 4.327 11.573 1.062 2.093 2.327 4.34 3.624 5.72 1.548.083 1.393-3.293 1.256-5.295m7.952 9.06c-1.62 2.34-3.52 2.113-6.837 3.072-1.874.54-3.087 1.44-4.878 1.11-2.526-.452-4.688-3.552-5.996-5.434-3.124-4.49-5.532-8.71-7.113-14.926-.736-2.888-1.614-6.152-1.253-9.755.385-3.898 2.775-4.775 5.576-6.14 1.893-.92 3.946-2.26 6.688-1.947 1.017.11 2.93.964 3.906 1.667 4.77 3.47 10.12 12.444 11.298 20.5.554 3.757.51 9.096-1.39 11.852M508.7 97.984c-.773.027-1.67.05-2.094.697.202 1.813 2.816 3.287 4.742 4.045 1.238.485 2.75.926 4.184.413.95-4.21-3.22-5.283-6.833-5.154m19.387 22.585c-.413 3.15-3.14 3.702-5.584 5.022-1.293.7-2.37 1.698-3.207 1.815-2.26.3-4.12-1.513-5.435-2.656-2.846-2.476-4.464-4.276-6.834-7.383-.754-.993-2.82-3.03-2.505-4.61.25-1.303 3.32-2.402 4.458-2.23 2.002.303 3.59 3.18 5.3 4.747.874.8 1.684 1.697 2.514 2.51.84.833 1.718 2.092 2.92 1.953-.052-3.486-1.146-7.116-2.506-9.767-7.043-.346-11.658-3.124-15.34-6.832-.713 1.606-2.07 3.692-4.044 3.49-2.108-.222-3.566-4.172-5.02-5.722-1.975-2.108-4.306-4.16-6.97-4.736-1.1 2.22.152 4.686.835 6.833 1.482 4.64 3.262 8.374 5.3 12.27.89 1.713 1.87 4.52 4.042 4.743.285-2.672-2.528-6.354-.14-8.646 1.28.167 2.09-.747 3.34-.696 3.38.11 4.307 4.043 5.027 6.966.454 1.846 1.132 4.668.696 5.857-.278.77-1.94 1.924-3.207 2.375-2.55.91-6.515 1.485-9.063 1.814-2.907-1.618-4.613-4.207-6.694-6.98-2.94-3.914-5.592-8.772-7.25-13.944-.855-2.666-1.736-5.834-1.532-8.778.2-3 2.242-3.843 4.176-5.16 2.553-1.728 5.77-3.775 9.486-2.236 3.818 1.578 6.99 5.3 9.345 8.366-.532-8.143 7.307-8.863 13.384-6.41.793-1.912 3.652-3.39 5.996-2.235 2.275 1.12 2.493 5.95 3.346 8.783 1.517 5.048 2.57 8.635 3.907 13.81.602 2.345 1.53 5.523 1.257 7.666M553.32 98.117c-1.388-.105-3.788-.173-4.04.697-.376 1.305 1.945 2.387 2.926 2.93 2.037 1.125 3.49 1.912 5.998 1.533.54-3.43-1.463-4.89-4.882-5.16m17.43 22.032c-.257 3.798-3.154 4.043-5.71 5.443-1.17.63-2.507 2.292-4.33 1.813-2.855-.764-5.393-3.587-7.805-6.002-1.203-1.204-1.95-2.198-3.21-3.905-.793-1.066-2.773-3.145-2.51-4.596.228-1.255 3.017-2.51 4.46-2.23 2.098.4 3.624 3.088 5.3 4.74.852.83 1.72 1.72 2.51 2.51.813.81 1.73 2.018 2.933 1.812-.067-3.474-1.202-7.078-2.51-9.767-4.217.362-11.674-2.834-14.226-5.44-1.163-1.175-2.724-3.69-2.786-5.577-.134-3.94 1.97-7.122 5.153-7.67 2.63-.44 5.59.676 8.23 1.395.78-1.862 2.444-2.856 5.44-2.504 2.4.932 2.496 3.887 3.205 6.554 1.322 4.964 3.04 10.18 4.323 15.194.67 2.605 1.706 5.66 1.533 8.227M544.957 113.317c1.395.1 2.58 2.555 3.35 3.77 1.347 2.142 3.174 4.61 2.51 7.81-.476 2.253-5.154 3.038-7.256 1.95-1.69-.875-1.796-2.626-3.202-3.624-.936 1.48-2.782 2.052-5.305 1.946-2.213-1.473-2.24-4.535-2.927-7.112-1.383-5.216-3.114-10.458-4.463-15.612-.71-2.722-1.874-5.478-2.09-8.094-.107-1.322.183-2.968.7-3.487.654-.657 3.913-1.075 5.298-.556 1.772.662 2.76 4.064 3.345 6.42 1.71 6.81 3.273 13.105 5.443 18.964.375 1.01.608 2.7 1.808 2.788.257-2.138.273-5.344 2.79-5.165M480.67 124.75c-.335 1.63-4.326 2.795-6.972 2.24-2.714-.582-3.5-6.03-4.324-9.066-2.11-7.81-5.143-17.71-5.996-25.942 1.077-1.6 4.478-2.382 6.275-1.674 3.11 1.228 3.572 6.933 4.464 10.46 1.678 6.63 3.828 13.52 5.582 19.8.358 1.305 1.127 3.437.97 4.183" fill="#005097" fill-rule="evenodd"/><path d="M463.1 148.6c-3.17-.635-3.93-6.106-4.74-9.34-2.575-10.297-4.632-19.535-6.694-29.847-.182-.917-.247-2.03-.838-2.65-.98 9.39-2.767 17.932-4.044 27.75-.325 2.537-.672 7.43-1.95 8.788-.82.867-6.096 2.45-7.807 1.675-1.23-.562-1.79-4.42-2.37-6.275-5.218-16.587-8.8-30.287-12.554-47.555 2.002-1.015 4.59-1.45 7.81-1.25 2.02 2.164 2.81 5.4 3.486 8.5 2.105 9.69 4.327 20.332 5.992 30.26.86-9.806 2.818-20.247 5.02-29 .7-2.754 1.7-6.776 3.766-7.674.813-.35 4.993-.925 5.858-.696 1.497.396 2.45 3.743 3.072 5.717 2.185 7.007 3.83 14.587 5.434 21.336 2.387 10.035 5.05 18.714 6.974 28.732-1.117 1.372-4.303 1.957-6.416 1.533M480.112 131.45c1.64.48 4.155 3.102 4.184 5.85.04 3.67-1.152 6.225-5.156 5.446-1.993-.392-3.878-2.042-4.466-3.767-.163-.48-.103-1.295-.277-1.958-.175-.653-.516-1.126-.56-1.666-.287-3.55 3.683-4.67 6.275-3.906M587.07 115.135c-.355-5.25-2.672-11.027-5.023-15.064-.575-.987-2.117-3.464-3.345-3.207-1.295.273-1.125 4.523-.838 6.275.725 4.39 2.59 8.177 4.327 11.573 1.062 2.093 2.327 4.34 3.624 5.72 1.548.083 1.393-3.293 1.256-5.295m7.952 9.06c-1.62 2.34-3.52 2.113-6.837 3.072-1.874.54-3.087 1.44-4.878 1.11-2.526-.452-4.688-3.552-5.996-5.434-3.124-4.49-5.532-8.71-7.113-14.926-.736-2.888-1.614-6.152-1.253-9.755.385-3.898 2.775-4.775 5.576-6.14 1.893-.92 3.946-2.26 6.688-1.947 1.017.11 2.93.964 3.906 1.667 4.77 3.47 10.12 12.444 11.298 20.5.554 3.757.51 9.096-1.39 11.852M508.7 97.984c-.773.027-1.67.05-2.094.697.202 1.813 2.816 3.287 4.742 4.045 1.238.485 2.75.926 4.184.413.95-4.21-3.22-5.283-6.833-5.154m19.387 22.585c-.413 3.15-3.14 3.702-5.584 5.022-1.293.7-2.37 1.698-3.207 1.815-2.26.3-4.12-1.513-5.435-2.656-2.846-2.476-4.464-4.276-6.834-7.383-.754-.993-2.82-3.03-2.505-4.61.25-1.303 3.32-2.402 4.458-2.23 2.002.303 3.59 3.18 5.3 4.747.874.8 1.684 1.697 2.514 2.51.84.833 1.718 2.092 2.92 1.953-.052-3.486-1.146-7.116-2.506-9.767-7.043-.346-11.658-3.124-15.34-6.832-.713 1.606-2.07 3.692-4.044 3.49-2.108-.222-3.566-4.172-5.02-5.722-1.975-2.108-4.306-4.16-6.97-4.736-1.1 2.22.152 4.686.835 6.833 1.482 4.64 3.262 8.374 5.3 12.27.89 1.713 1.87 4.52 4.042 4.743.285-2.672-2.528-6.354-.14-8.646 1.28.167 2.09-.747 3.34-.696 3.38.11 4.307 4.043 5.027 6.966.454 1.846 1.132 4.668.696 5.857-.278.77-1.94 1.924-3.207 2.375-2.55.91-6.515 1.485-9.063 1.814-2.907-1.618-4.613-4.207-6.694-6.98-2.94-3.914-5.592-8.772-7.25-13.944-.855-2.666-1.736-5.834-1.532-8.778.2-3 2.242-3.843 4.176-5.16 2.553-1.728 5.77-3.775 9.486-2.236 3.818 1.578 6.99 5.3 9.345 8.366-.532-8.143 7.307-8.863 13.384-6.41.793-1.912 3.652-3.39 5.996-2.235 2.275 1.12 2.493 5.95 3.346 8.783 1.517 5.048 2.57 8.635 3.907 13.81.602 2.345 1.53 5.523 1.257 7.666M553.32 98.117c-1.388-.105-3.788-.173-4.04.697-.376 1.305 1.945 2.387 2.926 2.93 2.037 1.125 3.49 1.912 5.998 1.533.54-3.43-1.463-4.89-4.882-5.16m17.43 22.032c-.257 3.798-3.154 4.043-5.71 5.443-1.17.63-2.507 2.292-4.33 1.813-2.855-.764-5.393-3.587-7.805-6.002-1.203-1.204-1.95-2.198-3.21-3.905-.793-1.066-2.773-3.145-2.51-4.596.228-1.255 3.017-2.51 4.46-2.23 2.098.4 3.624 3.088 5.3 4.74.852.83 1.72 1.72 2.51 2.51.813.81 1.73 2.018 2.933 1.812-.067-3.474-1.202-7.078-2.51-9.767-4.217.362-11.674-2.834-14.226-5.44-1.163-1.175-2.724-3.69-2.786-5.577-.134-3.94 1.97-7.122 5.153-7.67 2.63-.44 5.59.676 8.23 1.395.78-1.862 2.444-2.856 5.44-2.504 2.4.932 2.496 3.887 3.205 6.554 1.322 4.964 3.04 10.18 4.323 15.194.67 2.605 1.706 5.66 1.533 8.227M544.957 113.317c1.395.1 2.58 2.555 3.35 3.77 1.347 2.142 3.174 4.61 2.51 7.81-.476 2.253-5.154 3.038-7.256 1.95-1.69-.875-1.796-2.626-3.202-3.624-.936 1.48-2.782 2.052-5.305 1.946-2.213-1.473-2.24-4.535-2.927-7.112-1.383-5.216-3.114-10.458-4.463-15.612-.71-2.722-1.874-5.478-2.09-8.094-.107-1.322.183-2.968.7-3.487.654-.657 3.913-1.075 5.298-.556 1.772.662 2.76 4.064 3.345 6.42 1.71 6.81 3.273 13.105 5.443 18.964.375 1.01.608 2.7 1.808 2.788.257-2.138.273-5.344 2.79-5.165M480.67 124.75c-.335 1.63-4.326 2.795-6.972 2.24-2.714-.582-3.5-6.03-4.324-9.066-2.11-7.81-5.143-17.71-5.996-25.942 1.077-1.6 4.478-2.382 6.275-1.674 3.11 1.228 3.572 6.933 4.464 10.46 1.678 6.63 3.828 13.52 5.582 19.8.358 1.305 1.127 3.437.97 4.183M499.64 86.047c-.586 1.283-2.99.313-4.46.14-1.82-.212-3.74-.212-4.603-.692-.358-.652-.05-1.69.145-2.237.934-.095 1.528.146 2.363.146-1.027-4.19-2.693-8.45-3.066-12.836.46-.507 1.36-.59 2.372-.552 1.404 4.496 2.24 9.56 3.902 13.8 1.81-.095 4.02.77 3.347 2.23M557.49 84.234c.204.63.707.965.687 1.813-.372.854-1.174.59-1.95.564-2.172-.084-5.15-.596-7.112-.98-.546-.727-.14-1.697.134-2.372.848-.1 1.734.35 2.237.146-1.005-4.257-2.44-8.072-3.068-12.696.44-.585 1.426-.608 2.508-.558 1.337 4.57 2.187 9.623 3.905 13.81.834.14 1.81.135 2.656.274M584.39 86.61c-1.15-2.32-1.628-5.17-2.365-7.954-.705-2.688-1.74-5.577-1.534-8.227.442-.168 1.287-.49 1.81-.14 1.063 2.47 1.436 5.293 2.09 7.948.663 2.69 1.687 5.232 2.092 7.948-.398.385-1.638.54-2.093.424M536.287 79.633c-.976 2.176.906 5.64 2.783 4.6 1.874-1.025-1.022-4.555-2.783-4.6m-4.044-7.245c.29 1.606 1.55 2.26 2.37 3.34.91-.385 1.366-1.232 1.674-2.225-1.3-.347-2.725-1.26-4.044-1.115m6.972 2.643c-.66.687-1.132 1.57-1.535 2.51 1.175.87 3.076 1.864 3.903 3.213 1.592 2.59-.3 5.177-2.23 5.718-3.953 1.09-7.75-5.303-5.716-8.65-1.43-1.55-5.074-3.23-4.326-6.136.777-3.016 6.32-.703 8.37 0 .828-1.093 2.103-2.766 3.626-1.254-.015 1.143-.802 1.528-.983 2.514.804.827 2.183 1.066 2.38 2.512-1.294.473-2.18-.476-3.488-.425M573.658 81.863c-1.953-2.092-2.85-5.985-4.462-7.95.318 2.288.64 3.9.7 6.28-.45.437-1.267.505-2.1.56-.8-2.404-.803-7.01-.83-9.767.656-.407 1.344-.792 2.372-.837 1.185 1.088 1.75 3.157 2.925 5.305.77 1.4 4.566 5.844 1.395 6.408M561.108 80.47c-1.428 1.74-2.4-.61-3.067-.698-.374-.05-.71.915-1.396.557-.955-1.033-.977-2.633-1.395-4.178-.517-1.914-1.48-3.85-1.112-5.863.332-.263 1.114-.09 1.67-.14 1.507 2.21 1.172 6.263 2.93 8.227-.084-.77.063-1.327.694-1.394.98.747 1.703 1.74 1.676 3.486" fill="#005097" fill-rule="evenodd"/><path d="M578.403 79.08c.085-1.02-.12-1.746-.422-2.37-.602.062-1.193-.386-1.537-.144.623.862.678 2.302 1.96 2.514m1.527-3.77c.62 1.12.995 3.43.42 4.885-.953.313-2.18 1.093-3.35.698-1.57-.547-3.934-5.047-4.173-7.257-.268-2.343 1.508-3.872 3.616-3.486 1.582.29 3.684 2.55 3.35 4.19-2.094.39-2.337-2.21-4.6-2.098-.33.776.037 1.735.412 2.23 1.233.487 3.252.63 4.326.837M498.11 71.963c-1.243 2.165.92 4.747 1.67 6.554.23.038.24-.134.42-.14.328-2.616-.793-4.958-2.09-6.414m4.32 7.954c-.707.703-2.98 1.126-3.624.69-2.085-1.388-3.71-5.08-3.627-8.784.902-.86 1.968-2.052 3.626-1.807.97.134 2.052 1.472 2.654 2.37 1.18 1.774 2.668 5.835.97 7.53" fill="#005097" fill-rule="evenodd"/><path d="M509.123 80.893c-1.222-2.828-1.44-7.39-3.9-8.507.232 2.88 1.364 4.86 1.95 7.387-.42.467-1.123.645-2.093.556-.876-1.724-4.542-10.008-.28-10.04.996-.006 1.18.658 2.095.976-.294-1.205.984-1.483 1.67-1.25 1.194 3.124 1.746 6.9 2.792 10.18-.455.52-1.197.748-2.234.697M560.684 72.516c.362.947 1.23 1.387 2.517 1.398.33-1.656-1.608-1.805-2.516-1.398m3.213 8.377c-1.776-.14-3.186-3.107-3.906-4.328.39-.257.91-.39 1.396-.558 1.137.768 1.697 2.113 3.067 2.65-.243-.96-.242-2.17-.835-2.79-3.018.106-6.45-3.134-3.627-5.438 1.067-.09 1.848.112 2.65.278.146-.79 1.483-.88 2.095-.418.35 1.438.7 2.765 1.114 4.322.34 1.272 1.286 3.163.974 4.47-.228.94-1.912 1.89-2.927 1.812M514.144 79.772c.066.72-.982.317-1.535.423-.904-3.112-2.335-6.386-2.372-9.906 3.755-1.74 2.66 6.994 4.603 8.087.1-2.84 2.997-.16 2.373 2.23-1.24.804-2.465-.144-3.07-.835" fill="#005097" fill-rule="evenodd"/><path d="M520.84 78.082c-.524-.062-.784-.25-.784-.56 0-.216.14-.55.424-.996.314-.502.568-.982.763-1.44.207-.5.31-1.037.31-1.605 0-.72-.2-1.362-.61-1.924-.612-.837-1.62-1.267-3.027-1.267-1.01 0-1.64.123-1.88.356-.156.145-.236.335-.236.564 0 .385.094.942.278 1.668.1.407.2.67.297.78.113.135.34.2.685.2.49 0 .828-.026 1.012-.093.097-.034.142-.13.142-.284 0-.112-.016-.318-.06-.62.088-.027.167-.032.23-.032.233 0 .41.06.533.177.095.113.15.236.15.386 0 .38-.273 1.022-.82 1.92-.255.42-.45.775-.585 1.06-.156.323-.237.664-.237 1.026 0 .675.27 1.304.815 1.88.484.524 1.13.887 1.935 1.105.476.123.94.184 1.41.184.738 0 1.23-.106 1.485-.306.125-.107.19-.27.19-.498 0-.245-.046-.59-.137-1.03-.11-.57-.25-.9-.417-1.016-.186-.13-.52-.19-.988-.19-.32 0-.57.023-.74.056-.092.016-.137.072-.137.18v.322z" fill="#005097"/><path d="M499.64 86.047c-.586 1.283-2.99.313-4.46.14-1.82-.212-3.74-.212-4.603-.692-.358-.652-.05-1.69.145-2.237.934-.095 1.528.146 2.363.146-1.027-4.19-2.693-8.45-3.066-12.836.46-.507 1.36-.59 2.372-.552 1.404 4.496 2.24 9.56 3.902 13.8 1.81-.095 4.02.77 3.347 2.23M557.49 84.234c.204.63.707.965.687 1.813-.372.854-1.174.59-1.95.564-2.172-.084-5.15-.596-7.112-.98-.546-.727-.14-1.697.134-2.372.848-.1 1.734.35 2.237.146-1.005-4.257-2.44-8.072-3.068-12.696.44-.585 1.426-.608 2.508-.558 1.337 4.57 2.187 9.623 3.905 13.81.834.14 1.81.135 2.656.274M584.39 86.61c-1.15-2.32-1.628-5.17-2.365-7.954-.705-2.688-1.74-5.577-1.534-8.227.442-.168 1.287-.49 1.81-.14 1.063 2.47 1.436 5.293 2.09 7.948.663 2.69 1.687 5.232 2.092 7.948-.398.385-1.638.54-2.093.424M536.287 79.633c-.976 2.176.906 5.64 2.783 4.6 1.874-1.025-1.022-4.555-2.783-4.6m-4.044-7.245c.29 1.606 1.55 2.26 2.37 3.34.91-.385 1.366-1.232 1.674-2.225-1.3-.347-2.725-1.26-4.044-1.115m6.972 2.643c-.66.687-1.132 1.57-1.535 2.51 1.175.87 3.076 1.864 3.903 3.213 1.592 2.59-.3 5.177-2.23 5.718-3.953 1.09-7.75-5.303-5.716-8.65-1.43-1.55-5.074-3.23-4.326-6.136.777-3.016 6.32-.703 8.37 0 .828-1.093 2.103-2.766 3.626-1.254-.015 1.143-.802 1.528-.983 2.514.804.827 2.183 1.066 2.38 2.512-1.294.473-2.18-.476-3.488-.425M573.658 81.863c-1.953-2.092-2.85-5.985-4.462-7.95.318 2.288.64 3.9.7 6.28-.45.437-1.267.505-2.1.56-.8-2.404-.803-7.01-.83-9.767.656-.407 1.344-.792 2.372-.837 1.185 1.088 1.75 3.157 2.925 5.305.77 1.4 4.566 5.844 1.395 6.408M561.108 80.47c-1.428 1.74-2.4-.61-3.067-.698-.374-.05-.71.915-1.396.557-.955-1.033-.977-2.633-1.395-4.178-.517-1.914-1.48-3.85-1.112-5.863.332-.263 1.114-.09 1.67-.14 1.507 2.21 1.172 6.263 2.93 8.227-.084-.77.063-1.327.694-1.394.98.747 1.703 1.74 1.676 3.486" fill="#005097" fill-rule="evenodd"/><path d="M578.403 79.08c.085-1.02-.12-1.746-.422-2.37-.602.062-1.193-.386-1.537-.144.623.862.678 2.302 1.96 2.514m1.527-3.77c.62 1.12.995 3.43.42 4.885-.953.313-2.18 1.093-3.35.698-1.57-.547-3.934-5.047-4.173-7.257-.268-2.343 1.508-3.872 3.616-3.486 1.582.29 3.684 2.55 3.35 4.19-2.094.39-2.337-2.21-4.6-2.098-.33.776.037 1.735.412 2.23 1.233.487 3.252.63 4.326.837M498.11 71.963c-1.243 2.165.92 4.747 1.67 6.554.23.038.24-.134.42-.14.328-2.616-.793-4.958-2.09-6.414m4.32 7.954c-.707.703-2.98 1.126-3.624.69-2.085-1.388-3.71-5.08-3.627-8.784.902-.86 1.968-2.052 3.626-1.807.97.134 2.052 1.472 2.654 2.37 1.18 1.774 2.668 5.835.97 7.53" fill="#005097" fill-rule="evenodd"/><path d="M509.123 80.893c-1.222-2.828-1.44-7.39-3.9-8.507.232 2.88 1.364 4.86 1.95 7.387-.42.467-1.123.645-2.093.556-.876-1.724-4.542-10.008-.28-10.04.996-.006 1.18.658 2.095.976-.294-1.205.984-1.483 1.67-1.25 1.194 3.124 1.746 6.9 2.792 10.18-.455.52-1.197.748-2.234.697M560.684 72.516c.362.947 1.23 1.387 2.517 1.398.33-1.656-1.608-1.805-2.516-1.398m3.213 8.377c-1.776-.14-3.186-3.107-3.906-4.328.39-.257.91-.39 1.396-.558 1.137.768 1.697 2.113 3.067 2.65-.243-.96-.242-2.17-.835-2.79-3.018.106-6.45-3.134-3.627-5.438 1.067-.09 1.848.112 2.65.278.146-.79 1.483-.88 2.095-.418.35 1.438.7 2.765 1.114 4.322.34 1.272 1.286 3.163.974 4.47-.228.94-1.912 1.89-2.927 1.812M514.144 79.772c.066.72-.982.317-1.535.423-.904-3.112-2.335-6.386-2.372-9.906 3.755-1.74 2.66 6.994 4.603 8.087.1-2.84 2.997-.16 2.373 2.23-1.24.804-2.465-.144-3.07-.835" fill="#005097" fill-rule="evenodd"/><path d="M520.84 78.082c-.524-.062-.784-.25-.784-.56 0-.216.14-.55.424-.996.314-.502.568-.982.763-1.44.207-.5.31-1.037.31-1.605 0-.72-.2-1.362-.61-1.924-.612-.837-1.62-1.267-3.027-1.267-1.01 0-1.64.123-1.88.356-.156.145-.236.335-.236.564 0 .385.094.942.278 1.668.1.407.2.67.297.78.113.135.34.2.685.2.49 0 .828-.026 1.012-.093.097-.034.142-.13.142-.284 0-.112-.016-.318-.06-.62.088-.027.167-.032.23-.032.233 0 .41.06.533.177.095.113.15.236.15.386 0 .38-.273 1.022-.82 1.92-.255.42-.45.775-.585 1.06-.156.323-.237.664-.237 1.026 0 .675.27 1.304.815 1.88.484.524 1.13.887 1.935 1.105.476.123.94.184 1.41.184.738 0 1.23-.106 1.485-.306.125-.107.19-.27.19-.498 0-.245-.046-.59-.137-1.03-.11-.57-.25-.9-.417-1.016-.186-.13-.52-.19-.988-.19-.32 0-.57.023-.74.056-.092.016-.137.072-.137.18v.322z" fill="#005097"/><path d="M422.93 122.196c0-16.883-13.616-30.57-30.407-30.57-16.794 0-30.406 13.687-30.406 30.57 0 16.883 13.612 30.57 30.406 30.57 16.79 0 30.406-13.687 30.406-30.57" fill="#fff"/><path d="M422.93 122.196c0-16.883-13.616-30.57-30.407-30.57-16.794 0-30.406 13.687-30.406 30.57 0 16.883 13.612 30.57 30.406 30.57 16.79 0 30.406-13.687 30.406-30.57z" fill="none" stroke="#fff" stroke-width=".556" stroke-miterlimit="1"/></g><g clip-path="url(#b)" transform="matrix(1.7 0 0 -1.7 -616.2 260.6)"><path d="M422.037 122.08c0-16.455-13.202-29.797-29.48-29.797-16.28 0-29.478 13.342-29.478 29.797s13.198 29.79 29.477 29.79c16.278 0 29.48-13.335 29.48-29.79" fill="#f15a29"/><path d="M419.14 91.936h-55.92v16.304h55.92V91.936zM363.35 123.12s12.397 1.742 20.003-8.52c0 0 9.49 4.216 10.685-4.676h26.188l-.395-1.287h-56.558l-3 13.927 3.08.557z" fill="#fff"/><path d="M363.35 122.386s11.91 1.747 19.518-8.516c0 0 9.528 4.21 10.72-4.682h25.78l-.13-1.275H363.27l-3 13.92 3.08.554zM363.806 91.06h54.25v5.21h-54.25v-5.21zM363.806 97.113h54.25v1.996h-54.25v-1.997zM363.806 100.092h54.25v1.31h-54.25v-1.31zM363.806 102.502h54.25v1.305h-54.25v-1.305zM363.806 104.643h54.25v1.072h-54.25v-1.072zM363.806 106.283h54.25v.876h-54.25v-.877z" fill="#005097"/><path d="M383.967 147.955l-.184-.597-.962-.826c-.27.458-1.373 2.706-1.373 2.706 1.924 1.467 7.653 2.242 7.653 2.242l.135-.73c-2.84-.64-5.268-2.795-5.268-2.795m-3.986-3.804l-.593.324h-4.035c-.962-.78-1.51-.183-1.51-.183-.597 1.01 4.857 3.665 4.857 3.665 1.968.185 1.74-1.15 1.74-1.15-1.925.872-.78-.457-.78-.457 1.102-.45 1.19-1.874 1.19-1.874-.364-1.417-.87-.323-.87-.323m18.556 6.22c-1.28.792.675.547.675.547l.49-.424 1.89.056c-.12 1.466-13.072 2.325-13.072 2.325l-11.1 1.08-9.532-3.524-9.212-12.465 2.663-7.696 6.135 7.01.414-.045c-.14-1.836.777-1.24.777-1.24 2.246 4.402 5.5 6.238 5.5 6.238-.136-1.33.274-1.244.274-1.244l3.025 1.694c1.88.458 1.282-.502 1.282-.502-6.78-5.227-9.532-19.155-9.532-19.155-2.288-13.47 2.2-21.346 2.2-21.346l-3.94-11.913 22.086 1.83c-19.977 10.268-17.715 31.398-17.715 31.398-.43 6.72 6.047 16.62 6.047 16.62 1.282.67 1.895-.613 1.895-.613l-.064-2.253h.55c1.04.055.797-1.474.797-1.474-.61-.484-.183-1.098-.183-1.098 1.403 0 .852-2.75.852-2.75 3.484 1.22 2.137 4.334 2.137 4.334.123 1.043-.73 1.29-.73 1.29 0 .913-.733 1.037-.733 1.037 0 .796-.917.974-.917.974l-1.037 1.043-1.1 1.038c.548.183 1.1.79 1.1.79l.546-.06.308.43 2.563-.37.065.8.793-.068c1.344 0 2.503-2.136 2.503-2.136l-.056-1.404.487-.24.06.425c1.16 1.16 2.204-.792 2.204-.792.057-.916.972-2.02.972-2.02l-.06-1.222.612.062v.73l.245.37c1.036.552.61 4.95.61 4.95l-.735.487c-1.767 3.18-7.94 2.51-7.94 2.51-.917-.128-.55.548-.55.548l2.384 1.767c.794.675 4.034.374 4.034.374.974 4.21 5.31.485 5.31.485.794 3.48 5.44.427 5.44.427.367.91-1.714 2.383-1.714 2.383M399.426 110.54c-.19.005-.35-.13-.356-.302-.006-.172.148-.312.34-.317.198-.006.36.128.364.303.007.17-.152.31-.348.316M407.586 140.715c.594-.82 1.786-.452 1.786-.452-.182 3.246 1.934 4.702 1.934 4.702-3.357 2.015-5.413-3.057-5.413-3.057.824-.184 1.693-1.193 1.693-1.193" fill="#fff"/><path d="M406.785 139.02c.916-.687 1.88-.318 1.88-.318l3.022.317-.044.64-3.3-.178c-.78-.184-.872.18-.872.18l-3.114 2.704c-.41-.78-.182-1.926-.182-1.926l2.61-1.42zM403.718 140.347v2.475c-1.01-.227-.872-1.422-.872-1.422.18-.96.872-1.053.872-1.053M411.413 137.876l-.778.09-.367-.547-1.513.132v-2.833h1.56v1.002c.913.04.642 1.283.642 1.283l.456.084v.786zM408.754 134.072l-.014-1.24h.64v.37h1.224v.49h-.492l.02.38h-1.378zM410.112 131.177c.418 0 .754.323.754.714 0 .39-.336.708-.754.708-.415 0-.752-.317-.752-.707 0-.39.337-.713.752-.713M413.38 120.55c-.257-1.42-.017-1.772.14-1.863l.433.034.35-.014c.025.083-.074.384.034.434 0 0 1.04.837 1.187-.257 0 0 .593-1.534-.798-1.46 0 0-.526.278-.5.897l-.582-.062.044-1.645c.512-.818 2.25 0 2.25 0 1.076.358.16 3.68.16 3.68-.262.77-2.718.258-2.718.258M412.787 118.125c.184.322-.185 2.02-.185 2.02-1.052.088-2.198-1.467-2.198-1.467-.64-1.512.37-2.61.37-2.61.364 0 .137 1.783.137 1.783-.092.732 1.235.966 1.235.966.37-.78.642-.69.642-.69" fill="#fff"/><path d="M416.408 116.016c-2.98-.134-4.534-2.337-4.534-2.337-.69-.508-.645.456-.645.456l2.155 1.606c.228.185-.094 2.243-.094 2.243-.23 0-.503-.223-.503-.223.367 0 .183-1.422.183-1.422l-.64-.64c-.687-.415-1.054.417-1.054.417.047-.647-.593-.926-.593-.926-.83 1.79-3.03 2.98-3.03 2.98-3.846 2.018-7.65.78-7.65.78-1.945-.987-.367-2.33-.367-2.33 1.993-2.562 9.395-6.427 9.395-6.427 8.477-1.555 7.378 5.823 7.378 5.823" fill="#fff"/><path d="M411.324 117.188c0-.442.255-.804.572-.804.314 0 .57.362.57.804 0 .445-.256.797-.57.797-.317 0-.572-.352-.572-.797M414.447 118.392c0-.373.217-.68.482-.68.266 0 .482.307.482.68 0 .368-.216.675-.482.675-.265 0-.482-.307-.482-.675M400.555 119.943v2.388c-.796-.19-2.2-1.712-2.2-1.712l.123-2.51 2.077 1.835zM402.02 122.42s-.4.123-.488-.09c0 0-.55-1.896 0-2.387 0 0 .548-.546.736.245l.182.368.55.062.122.022.045-.725c2.06-.095 4.442-1.01 4.442-1.01.78-.686 1.144-.273 1.144-.273 1.798 2.035 2.59 7.982 2.59 7.982.26.747.455.15.455.15-.14-3.257-1.706-6.563-2.416-7.903-.21-.395-.342-.612-.342-.612.212-.162.438-.084.644.09.39.32.704.963.704.963 1.956 2.328 5.513 2.12 5.513 2.12-.87 3.76-3.84 10.214-3.84 10.214-.137.117-.558 0-.7 0-.3 0-.654-.63-.68-.93-.018-.13 0-.09 0-.09l-.982-.03c-.457 0-.624.464-.624.464l-.778-.043-.365-.326c-.646 0 .316.736.316.736v.362h-.367c-.274.46.278.965.278.965l.09 5.176-4.352 1.925c-1.053-.458-.503-3.302-.503-3.302l-1.513-1.144c-.823-.777-.23-1.144-.23-1.144h1.286v-.503s.074-.212.22-.23c.142-.02 1.016 0 1.016 0s.197-.03.197-.478c0-.284-.153-.256-.153-.256h-2.198c1.528-1.385 1.344-2.39 1.344-2.39s.11-.267.608-.24c.39.028.476.246.476.246.137.642 1.008 1.145 1.008 1.145.734.553 1.695.213 1.695.213.308-1.038-.3-.977-.3-.977-.678-.614.67-.668.67-.668.058-.308.79-.43.79-.43l.124-.88h.46l.09-.74c-1.513-1.834-1.97-6-1.97-6l-3.988.23.07-1.144-.62-.05s.214 1.037-.457 1.315M417.964 114.365c.37-.958-.456-2.426-.456-2.426-1.146-.916-1.054-1.144-1.054-1.144 1.1-.504 1.74.824 1.74.824l.045-.912h.413v.913c.414.097.367.738.367.738.14 1.32-1.056 2.006-1.056 2.006M398.456 114.656c.46-.073.882.185.945.574.06.384-.27.758-.732.826-.463.072-.885-.184-.947-.575-.053-.383.275-.758.736-.824M398.248 113.154c.32-.05.608.13.65.392.037.262-.19.516-.504.562-.315.05-.6-.128-.64-.383-.036-.273.18-.52.494-.57M398.78 112.234c.004.202-.212.38-.493.386-.277.005-.504-.156-.513-.357-.003-.206.217-.38.493-.386.277-.005.507.15.513.357M398.716 111.616c-.236.005-.435-.15-.442-.36 0-.2.184-.377.42-.377.238-.01.436.15.444.356.005.202-.186.368-.422.38M401.977 113.774c-1.85 1.434-2.34.674-2.34.674-1.313-1.65.613-4.067.613-4.067.182-.606 1.68-.444 1.68-.444h4.886c.95-.012.074.842.074.842l-4.913 2.996z" fill="#fff"/><path d="M405.74 128.672c0-1.26.93-.713.93-.713.07-.67.547-.48.547-.48.952 0 .618.762.618.762.692.19-.096.576-.096.576l.026.57c-.1.405-.572.048-.572.048v-.457c-.358-.162-.647.072-.647.072l.36.765c-.765.405-.574-.264-.574-.264-.807.027-.593-.88-.593-.88M405.47 126.91h-.427v-1.25h.49v-.553h.978v.458h.705v1.22h-.797v.76h-.947v-.636zM387.822 120.563c.75.145 2.503.072 2.503.072-.393 2.104-2.998 3.748-2.998 3.748v-3.53h-.57v-.748h.85l.215.458zM391.39 116.34l-.246 2.32c-.488.887-2.38.245-2.38.245-2.934-.735-2.32-3.49-2.32-3.49 3.66.16 5.406-.998 5.406-.998l.15.856c.154 1.13-.61 1.068-.61 1.068M387.113 118.755c.885.792 3.176 1.066 3.176 1.066.768.034.308.308.308.308-2.047.607-3.88-1.015-3.88-1.015-.182-.788.395-.358.395-.358" fill="#fff"/></g></svg>