<svg xmlns="http://www.w3.org/2000/svg" width="400" height="394.957"><path d="M1.02 282.836c-3.693-12.092 3.435-25.476 8.775-32.1l29.99 35.444-6.098 39.522L1.02 282.836z" fill="#2d5234"/><path d="M397.484 197.478c0 109.065-88.415 197.48-197.48 197.48-109.065 0-197.48-88.415-197.48-197.48C2.524 88.412 90.94-.002 200.004-.002c109.065 0 197.48 88.414 197.48 197.48" fill="#00853f"/><path d="M200.004 39.08c-87.34 0-158.4 71.056-158.4 158.4 0 87.34 71.06 158.396 158.4 158.396s158.4-71.057 158.4-158.397c0-87.344-71.06-158.4-158.4-158.4m0 1.117c86.725 0 157.28 70.557 157.28 157.282 0 86.722-70.555 157.28-157.28 157.28S42.724 284.2 42.724 197.48c0-86.726 70.555-157.283 157.28-157.283" fill="#fff"/><path d="M347.228 197.478c0 81.31-65.915 147.222-147.223 147.222-81.31 0-147.224-65.913-147.224-147.222 0-81.31 65.916-147.223 147.225-147.223 81.308 0 147.223 65.913 147.223 147.223" fill="#fff"/><path d="M111.614 170.43l3.27-61.683 19.546-2.495 19.55 39.746 1.64-42.447 10.78-1.374-3.455 61.705-20.825 2.66-18.255-38.33-1.565 40.858-10.686 1.362zM187.265 138.41c-.06 3.905.02 8.907.475 12.47.456 3.56 1.317 5.96 4.423 5.563 4.93-.63 6.836-6.812 7.105-22.162.047-4-.022-8.907-.476-12.47-.454-3.563-1.315-5.96-4.423-5.563-5.024.642-6.94 6.735-7.105 22.162m29.645-10.65c2.165 16.987-6.875 31.974-25.416 34.34-12.33 1.572-20.135-3.563-21.906-17.445-2.178-17.08 6.91-31.698 25.543-34.077 12.424-1.584 20.032 3.48 21.78 17.182M242.63 106.376l7.126-.91-.3 4.218-7.035.896-1.794 29.563c-.056 1.03-.123 2.705.03 3.895.303 2.377 1.862 4.404 4.91 4.294-.866 4.845-5.988 7.632-11.012 8.273-6.03.77-10.808-1.78-11.615-8.08-.604-4.75.358-16.847.666-21.713l.912-13.947-5.387.687.016-2.79c6.937-3.107 13.755-7.877 20.02-14.06l4.387-.56-.923 10.234zM272.91 87.664c.616 4.84-3.363 7.855-8.933 8.565-5.663.723-10.088-1.22-10.68-5.878-.622-4.84 3.517-8.06 9.182-8.786 5.57-.708 9.835 1.44 10.43 6.098m-3.976 48.87c-.056 1.025-.12 2.704.03 3.894.303 2.374 1.86 4.4 4.913 4.292-.87 4.847-5.99 7.636-11.015 8.275-6.028.77-10.81-1.78-11.614-8.08-.594-4.657.373-16.753.69-21.533l1.187-18.346 18.127-4.164-2.318 35.663z" fill="#b3282d"/><path d="M320.37 238.598l.937-1.098-2.208-3.437-.09-.013-.808.853-.586.542-.67.572-.613.566-.677.526-.612.556-.637.495-.592.438-.6.465-.583.405-.52.346-.473.314-.46.224-.376.226-.282.093-.243.09-.188-.03h-.073l-.1-.06-.043-.12-.078-.198-.067-.267-.03-.392-.016-.39.024-.526-.008-.646.037-.703.04-.824.357-4.96.346-4.92.4-4.926.34-4.907.43-4.88.412-4.833.452-4.776.368-4.712.444-4.88-.062-.027-1.463.06-1.083.074-1.05.106h-2.021l-.996-.045-1.005-.06-1.352-.106-.017.03-1.196-.06-1.156-.044-1.06-.048h-.983l-.93.06-.81.093h-.025l-1.628.255h-.028l-1.623.345-1.635.452h-.04l-1.628.555-1.63.583h-.03l-1.613.69-1.593.737-1.587.766.006.06-1.497.842-1.5.87h-.037l-1.395.96V200l-1.352.932-1.326.99v.06l-1.292 1.005-1.12 1.005-.014.047-1.104 1.05h.06l-.99 1.035-.878 1.052-.923 1.154h-.038l-.886 1.31h.023l-.855 1.336h-.017l-.825 1.44-.78 1.498h.044l-.794 1.562h-.03l-.715 1.636-.712 1.668v.03l-.63 1.71-.03.062-.55 1.77-.538 1.774-.488 1.862-.467 1.875v.045l-.36 1.862-.277 1.833v.04l-.233 1.895-.157 1.875-.01.032-.053 1.91v.012l-.006 1.862.112 1.828-.016.017.18 1.817.195 1.382h-.038l.256 1.244h-.03l.308 1.157-.022.013.323 1.11v.033l.27.978.036.026.36.932v.015l.34.858h.038l.382.75h.015l.413.75.022.03.428.616.452.617.013.014.46.497v.044l.472.452.51.405h.03l.443.332v.043l.472.284h.06l.452.225.052.046.467.136.013.058.495.12h.03l.466.14v-.034l.49.078.42.028h.511l.383-.058h.044l.405-.076.036.028.473-.178.593-.24.622-.285.024-.016.62-.33.608-.372.04.028.698-.48.68-.497.723-.434.682-.5.69-.565.74-.497h.027l.65-.555.668-.542.603-.553.623-.543.568-.493.483-.497h.024l.464-.45v-.03l.4-.404 1.11-1.158.024-.013 1.125-1.276 1.153-1.353v-.045l1.173-1.397 1.192-1.528 1.156-1.563h-.013l1.157-1.592v.017l1.124-1.58 1.09-1.652v-.028l1.07-1.64 1.002-1.648.568-.992-1.018 12.685-.025 1.083-.06.977v.028l.025.916h.013l.047.824.09.78.136.677.035.046.144.63v.046l.163.527h.03l.205.505.022.06.202.407.03.03.225.392.006.028.255.346.026.013.276.288.054.045.263.18.012.074.287.18.023.033.27.148.045.017.307.12h.026l.276.106h.014l.32.075.287.045h.04l.27.015h.242l.282-.03h.045l.317-.06h.02l.406-.15h.052l.433-.197.572-.254.032.013.592-.3h-.02l.645-.39h.033l.7-.36.742-.48.783-.465.825-.54.015-.018.85-.566.884-.647.917-.628.92-.678.93-.69.024-.03.93-.782.925-.732.903-.798h.02l.912-.857.93-.857.91-.84h.022l.902-.916.825-.884v.06l.803-.93zm-20.682-38.222l-.037.375.025.707-.06.75-.015.705-.024.884-.075.92-.066.93-.067.99-.112 1.02-.092 1.036-.106 1.05-.127 1.02-.112 1.038-.088 1.05-.13.99-.122 1.023-.178.932-.127.872v.028l-.09.856-.136.813-.18.703-.106.678-.133.6-.105.463-.082.392-.637 1.316-.67 1.384-.742 1.382-.767 1.442-.838 1.47-.895 1.442-.854 1.442-.93 1.41-.91 1.35-.872 1.323-.89 1.275-.737.992-.758.958-.722.872-.706.828-.682.747-.685.71-.624.612-.603.572-.534.525-.51.376-.474.42-.393.268-.398.198-.253.12-.19.06-.358-.044-.348-.028-.3-.166-.322-.226-.338-.36-.27-.438-.322-.525-.286-.63-.202-.733-.25-.798-.172-.945-.172-1.023-.12-1.277-.074-1.362-.07-1.457v-3.017l.083-1.637.127-1.62.123-1.682.215-1.668.28-1.728.312-1.724.318-1.726.433-1.71.46-1.684.418-1.44.452-1.322.452-1.218.465-1.17.432-1.08.49-.99.45-.9.517-.827.475-.797.51-.736.497-.645.493-.6.497-.542.51-.54.508-.433.465-.44.484-.432.492-.39.738-.453.818-.405.795-.314.73-.27.778-.21.677-.09.684-.15 1.134-.09 1-.09h1.875l.864.044.83.136.782.15.562.136zm-41.562 46.045l.955-1.068-2.41-3.437h-.06l-.794.81-.662.57-.607.572-.64.568-.645.544-.622.525-.63.492-.632.452-.578.477-.54.38-.532.358-.495.345-.396.226-.347.178-.293.136-.172.032-.135.013-.078-.03-.036-.043-.06-.108-.052-.178-.01-.345-.02-.358.03-.452.014-.63.06-.573.037-.75.076-.853.242-2.073.215-1.953.017-.06.22-1.963.25-2.028-.01-.032.162-1.995.248-1.893.21-1.997.21-1.847.212-1.83.185-1.8.212-1.76.188-1.635.18-1.603.21-1.52.12-1.44.19-1.32.133-1.428.038-.03.074-1.337.06-1.23h-.02l.06-1.157-.03-1.08-.07-1.035v-.03l-.073-.932-.08-.87-.145-.81-.135-.735v-.016l-.203-.676v-.03l-.193-.616h-.052l-.24-.585.035-.015-.292-.495v-.03l-.248-.405-.015-.03-.27-.39-.038-.032-.286-.372-.306-.317h-.017l-.3-.3h-.035l-.347-.21-.015-.03-.323-.21v-.015l-.33-.164h-.03l-.36-.09-.324-.104h-.005l-.33-.076-.06-.015-.292-.045-.325-.045h-.02l-.333-.03-.028.03-.323.045-.293-.045-.268.045-.602.136-.624.105h-.037l-.647.21h.037l-.72.24-.72.27-.742.36-.797.406h.01l-.848.497h-.01l-.877.51-.992.586-.703.51-.767.507-.038.017-.795.63-.914.66v.044l-.91.736-.978.844h-.013l-1.056.915h.03l-1.03 1.005-.032.028-1.087 1.007-1.08 1.14v.033l-1.136 1.216h-.006l-1.117 1.244-1.176 1.35-.018.032-1.155 1.427-1.207 1.472-1.17 1.588-.018.015-1.192 1.638-1.2 1.698-.96 1.528.965-9.067.112-1.203.1-1.033.02-.014.06-1.053.033-.99v-.028l-.06-.9.06-.05-.073-.823-.062-.855-.09-.72v-.06l-.153-.68-.02-.027-.213-.615v-.06l-.232-.526h-.02l-.254-.526-.054-.045-.33-.42-.03-.048-.384-.327-.022-.033-.413-.254-.037-.058-.47-.18h-.06l-.552-.123h-.022l-.624-.058v.014l-.645.043h-.03l-.586.123h-.043l-.67.18v.043l-.712.27-.744.346-.03.012-.767.422h-.02l-.837.452-.866.54h-.023l-.872.628-.958.663v-.032l-.938.723-.95.75v.03l-.966.81-1.007.825-.973.917-1.016.884-.006.033-.977.96-.965.99-1.007.992v.014l-.973 1.035-.923 1.064-.95 1.05-1.043 1.247.11.24 2.226 3.183h.088l.69-.792.548-.587.536-.585.585-.555.585-.6.545-.556.61-.48.56-.57.58-.452.544-.435.545-.36.48-.406.452-.284.404-.226.36-.18.305-.122.166-.09.113.047h.093l.034.105.07.148.055.224.058.377.015.437-.015.6-.024.617-.067.764-.048.81-.112.977-.075 1.037-2.047 21.6-.378 4.326-.426 4.322-.488 4.294-.528 4.324-.59 4.67.164.088 13.626-5.286.39-.043-.054-1.126.01-.9v-1.007l.068-1.005.028-1.05.032-1.143.054-1.112.093-1.11.048-1.14.105-1.155.037-1.156.09-1.19.106-1.11.082-1.156.05-1.11.1-1.018.127-1.022.076-1.005.128-.964.06-.87.105-.81.067-.69.09-.72.07-.57.064-.493.08-.364.378-.9.44-.962.486-.96.54-.943.542-1.036.6-1.05.638-.99.637-1.05.646-1.052.704-1.022.73-1.02.727-1.022.744-.99.75-.975.76-.948.705-.945.743-.902.758-.87.752-.826.758-.797.697-.752.723-.672.68-.663.678-.598.637-.526.594-.418.576-.405.562-.33.488-.227.435-.194.408-.075.495-.016h.383l.323.118.27.168.207.165.22.285.14.33.152.39.087.51.033.54.05.647v.645l-.05.75-.037.796-.04.87-.126.903-.084.96-3.637 30.924-.114 1.22h-.026l-.05 1.14-.06 1.052h-.023l.036.99h-.014l.084.9.067.87.172.69.186.678v.045l.248.57.024.03.238.477.024.076.284.406.026.042.35.362.022.045.375.3.06.03.398.252h.054l.45.183h.044l.46.15.042.033.53.058H238.704l.575-.058h.026l.353-.06h.06l.42-.198h.028l.504-.18.51-.21.046-.06.615-.286.675-.314.69-.435h.06l.737-.422.788-.508.803-.542v-.03l.895-.584.89-.618h.018l.846-.646.94-.678.91-.704h.018l.926-.78.915-.763.933-.782h.03l.914-.872h-.015l.887-.824.9-.825h.03l.834-.904.824-.912.84-.87zm-12.324-64.66l.818-1.606-3.467-2.13-.782 1.258-.608.975-.622.798-.587.734-.592.66-.643.573-.61.447-.66.392-.658.314-.716.18-.727.165-.857.06-.893-.012-.923-.06-1.063-.166-1.054-.166-1.126-.24-1.216-.195-1.214-.24-1.097-.208-.99-.256-.908-.18-.872-.18-.743-.148-.757-.153-.04.075-.66-.136-.036.018-.61-.108h-.703l-.045-.013-.654.014h-.01l-.653.017h-.036l-.676.105h-.027l-.465.105h-.01l-.457.078-.05.012-.52.21v.016l-.525.226h-.038l-.54.343v-.013l-.6.36-.61.374v.09l-.63.465-.63.586-.653.648v.03l-.685.69-.666.825-.706.84v.03l-.714.978-.708 1.063h-.013l-.726 1.144-.716 1.244-.852 1.593.207.167 3.364 2.13h.038l.772-1.336.646-.9.63-.93.698-.722.676-.658.697-.586.676-.512.723-.374.697-.317.667-.238.67-.12.958-.045.938.015.878.03.956.15.87.164.946.21.97.195 1.25.287 1.157.3 1.12.27h.005l1.074.226v.045l1.038.21.99.225v-.015l.983.15h.022l.983.076h.997l.962-.075.01-.03.537-.047h.04l.54-.15h.03l.548-.24.04.03.61-.272.617-.28.036-.062.594-.346h.04l.6-.422.673-.493v-.03l.654-.54v-.06l.667-.63.04-.018.606-.748.66-.81h.037l.69-.888.656-.975v-.033l.7-1.064.703-1.158.645-1.26v-.016zm-54.622 51l.052-1.835-.04-1.907-.072-1.8-.032-.03-.18-1.878v-.028l-.186-1.246-.265-1.294-.32-1.244v-.015l-.4-1.186-.436-1.14v-.018l-.513-1.08v-.03l-.586-1.02v-.03l-.61-.98-.006-.027-.69-.9-.022-.044-.74-.858-.795-.826-.02-.043-.804-.752-.93-.704-.02-.016-.94-.615h-.04l-.99-.57-1.036-.513h-.03l-1.108-.432-.02.013-1.14-.405h-.023l-1.175-.254-1.246-.18-.018.027-1.27-.132-1.35-.06h-.035l-1.367.06h-.015l-1.366.133-.06.016-1.08.166h-.007l-1.155.256h-.01l-1.215.3h-.018l-1.25.36-.025.06-1.285.436-1.35.482h-.038l-1.343.644-1.35.705-1.384.66-1.343.826-.02.03-1.345.945h-.023l-1.29.95-1.013.78-.947.838h-.046l-.937.902h-.017l-.923.945h.015l-.93.977v.013l-.908 1.024-.878 1.11-.833 1.14v.047l-.828 1.154v.015l-.787 1.26.015.016-.788 1.26v.033l-.678 1.364-.674 1.35-.602 1.44v.034l-.575 1.47-.506 1.547v.015l-.465 1.548.015.04-.39 1.608-.328 1.636-.025.045-.224 1.728-.188 1.71-.037.06-.16 1.788-.012 1.816.08 1.906-.043.013.15 1.893v.028l.187 1.956.134 1.002.152.963.232.973.226 1.01.256.945.35.977.324.914.017.015.383.96.41.9.475.873.02.013.513.885.55.812h.012l.58.81h.036l.594.797.03.016.645.645.067.058.715.663.02.06.774.586v.015l.827.57.006.028.872.543v.028l.923.467h.043l.942.404h.01l1.04.392.022.012 1.022.316h.046l1.108.21v.046l1.194.134h.016l1.2.105h.018l1.313.048 1.337-.06 1.388-.165h.043l1.2-.166.016-.016 1.287-.286h.023l1.268-.36h.016l1.315-.497 1.32-.507 1.352-.615 1.304-.678 1.308-.704h.052l1.26-.812h.016l1.266-.84 1.242-.9h.015l1.19-.9v-.046l1.143-.932.06-.032 1.057-.958v-.045l1.044-1.004v-.045l.97-1.052 1.183-1.41 1.13-1.454v-.02l1.018-1.53.97-1.62.87-1.668v-.013l.858-1.683.006-.046.727-1.71v-.014l.692-1.756v-.045l.586-1.787.523-1.862v-.014l.453-1.847.006-.016.352-1.862.325-1.89.232-1.863v-.03l.12-1.92zm-14.04 4.35l-.072 1.74-.106 1.642-.127 1.603-.22 1.606-.232 1.546-.247 1.518-.32 1.44-.296 1.396-.39 1.397-.376 1.294-.398 1.26-.456 1.188-.435 1.093-.474 1.07-.496.956-.48.93-.465.786-.54.734-.517.66-.498.573-.492.43-.49.42-.48.225-.487.213-.532.27-.566.15-.65.15-.7.09-.796.074h-.818l-.757-.164-.782-.226-.708-.3-.71-.375-.646-.465-.644-.573-.607-.63-.634-.748-.49-.784-.543-.87-.446-.96-.464-1.006-.405-1.156-.34-1.2-.36-1.215-.238-1.277-.248-1.395-.232-1.41-.188-2.044-.19-1.983-.074-1.875-.013-1.847.043-1.8.084-1.682.157-1.664.18-1.563.232-1.503.284-1.442.308-1.364.353-1.276.36-1.26.42-1.172.436-1.125.437-1.023.447-.977.52-.884.473-.885.47-.783.498-.72.474-.675.5-.585.444-.48.474-.478.473-.392.38-.3.393-.24.84-.437.856-.374.945-.226.97-.18.786-.06h.753l.698.104.72.183.72.24.61.328.63.422.6.48.585.555.5.706.526.734.51.81.437.918.407 1.023.337 1.092.336 1.19.293 1.26.256 1.35.233 1.425.18 1.774.157 1.802.076 1.77.073 1.74v1.697zm-20.85-61.61l.043-1.442-4.315-.045-.375 1.214-.323.904-.322.87-.362.69-.36.662-.398.57-.432.498-.4.434-.487.343-.444.316-.532.256-.618.165-.58.15-.664.106-.72.104-.71.076-.756.073-.75.047-.82.043-.847.075-.88.048-.923.06-.966.06h-1.02l-1.103.043-1.15.03-1.237.062-1.3.028-1.335.015H129.702l-1.553.06-1.766.015-1.63.028h-1.596l-1.487.048-1.448.015-1.396.046-1.343.015-1.264.044-1.253.06-1.253.048-1.17.088h-.022l-1.21.03-1.23.12-1.202.106-1.246.103-1.315.122-1.312.12-1.388.164-1.42.15-1.51.182-2.01.28-.014.02-1.9.358h-.014l-1.862.392-1.782.495-1.708.538-1.63.588h-.017l-1.56.706-.015-.075-1.503.72-1.403.78h-.034l-1.324.87-1.328.903-1.255.977h-.005l-1.207.973v.03l-1.156 1.05-.983 1.055h-.04l-.917 1.063h-.013l-.887 1.126v.018l-.764 1.11v.043l-.778 1.14v.048l-.604 1.216h-.026l-.553 1.217v.03l-.505 1.246v.087l-.398 1.233v.017l-.308 1.362v.018l-.26 1.366h.005l-.144 1.365.026.018-.066 1.44h.006l.034 1.485h-.013l.127 1.442.03.015.202 1.31v.072l.3 1.26h.025l.36 1.217.046.027.42 1.158.51 1.11v.03l.607 1.006.006.016.644 1.022.69.855v.045l.737.81.828.722v.028l.856.646.797.615.06.014.873.48.013-.015.878.45h.02l.903.3.06.03.89.257h.055l.87.105h.047l.944.06h.04l.922-.077.015-.015 1.01-.194.026.015 1.05-.253.028-.017.965-.344.03-.015.937-.406.015-.013.87-.48.794-.496.017-.015.736-.56.335-.356.04-.047.246-.343.04-.045.172-.362v-.043l.112-.362.02-.06.034-.347-.054-.075-.075-.313v-.045l-.152-.345-.058-.06-.265-.3-.02-.034-.376-.297v-.015l-.46-.315-1.215-.704-1.083-.647-1.01-.732-.91-.707-.886-.688-.698-.724-.723-.69-.643-.79-.534-.68-.465-.69-.452-.72-.352-.677-.338-.72-.28-.617-.252-.61-.18-.68-.2-.584-.112-.573-.093-.556-.095-.568-.1-.482-.037-.945-.088-.918.035-.9.086-.856.166-.855.16-.735.252-.766.344-.722.394-.706.512-.613.472-.664.61-.568.685-.54.716-.54.852-.466.885-.44.966-.446 1.088-.347 1.15-.39 1.252-.285 1.32-.333 1.403-.224 1.46-.166 2.212-.3 2.094-.24 2.018-.224 1.945-.178 1.868-.183 1.803-.104 1.726-.105 1.344-.078-4.825 64.017-.124 1.515-.097 1.44-.115 1.32-.088 1.232-.196 1.156-.11 1.068-.197.945-.163.932-.213.837-.224.768-.25.734-.297.633-.286.57-.36.525-.346.495-.405.422-.466.432-.527.36-.517.346-.632.33-.672.3-.678.256-.803.287-.796.224-.924.242-.954.208-1.043.256-1.15.21-1.438.333-.22 4.397.054.06 42.304-5.316.23-4.442-.02-.045-1.59.088-1.23.075h-1.143l-1.06.048-1.013.03-.876-.078-.84-.015-.76-.103-.666-.136-.654-.148-.558-.21-.53-.195-.4-.346-.374-.302-.362-.376-.33-.45-.223-.51-.225-.57-.174-.645-.117-.708-.136-.812-.07-.854-.014-.944v-1.052l.015-1.113.04-1.228.068-1.32.06-1.413.14-1.47 4.647-63.1 1.448-.104 1.7-.06 1.545-.076 1.487-.073 1.418-.06 1.313-.106 1.26-.06 1.172-.012h.015l1.09-.12 1.034-.048.96-.075.932-.104.908-.06.857-.074.76-.075h.02l.736-.09.745-.03.735-.133 1.11-.166 1.074-.195h.02l.984-.27.887-.346.817-.317.017-.013.72-.36.023-.017.66-.404.03-.06.6-.453.563-.526-.026-.044.484-.54.04-.028.405-.572.028-.06.363-.63h-.015l.338-.69v-.03l.27-.75.23-.796v-.017l.21-.824v-.03l.168-.87.148-.872h-.03l.12-1.008.06-1.002h.034l.103-1.038zM330.05 186.594c-.446-3.768-3.74-6.38-7.453-5.916-3.775.482-6.315 3.86-5.863 7.612.458 3.66 3.775 6.322 7.485 5.81 3.742-.466 6.342-3.83 5.83-7.506m-1.11.106c.39 3.258-1.73 6.138-4.826 6.5-3.086.42-5.805-1.892-6.24-5.136-.376-3.21 1.727-6.123 4.81-6.53 3.085-.39 5.83 1.922 6.255 5.166m-1.908 4.083l.586-.048-.028-.344-.093-.074c-.142 0-.406-.15-.69-.357-.194-.17-.532-.542-1.006-1.007-.397-.484-.928-1.248-1.154-1.562.87-.436 1.454-1.202 1.368-2.132-.213-1.547-1.693-1.756-2.87-1.608l-3.468.437.075.493c.968-.04 1.013-.013 1.16.93l.53 4.4c.128.933.052.965-.93 1.172l.066.51 3.398-.417-.047-.545c-.97.047-1.06 0-1.15-.913l-.18-1.68.432-.074c.266-.032.39.074.623.34.175.198.833 1.176 1.277 1.683.585.69 1.11.89 2.102.797m-2.52-5.15c.06.33.035 1.007-.497 1.44-.15.092-.452.258-.86.318l-.67.06-.325-2.672c-.06-.357-.028-.437.404-.525h.265c.59-.106 1.542.133 1.682 1.38" fill="#00853f"/><path d="M318.044 236.274l.94-1.098-2.21-3.437-.088-.014-.81.852-.584.543-.672.573-.61.566-.68.524-.61.558-.637.493-.592.44-.6.463-.583.405-.52.347-.472.314-.458.224-.377.226-.282.092-.243.088-.187-.028h-.074l-.1-.06-.042-.12-.077-.198-.067-.267-.03-.39-.015-.393.024-.525-.01-.646.037-.703.04-.825.358-4.958.347-4.92.397-4.927.34-4.907.433-4.88.41-4.833.453-4.776.368-4.713.444-4.88-.06-.028-1.464.06-1.082.074-1.05.105h-2.021l-.997-.045-1.005-.06-1.352-.106-.017.033-1.197-.06-1.156-.046-1.06-.046h-.985l-.93.06-.81.093h-.026l-1.627.254h-.028l-1.624.345-1.635.452h-.038l-1.63.555-1.63.584h-.03l-1.61.69-1.596.737-1.588.766.006.06-1.496.838-1.5.872h-.036l-1.395.96v.045l-1.354.932-1.326.99v.06l-1.29 1.006-1.122 1.005-.013.047-1.104 1.05h.06l-.99 1.036-.878 1.053-.923 1.154h-.04l-.886 1.308h.025l-.855 1.337h-.017l-.824 1.44-.782 1.498h.045l-.794 1.562h-.03l-.716 1.636-.712 1.668v.03l-.63 1.71-.03.06-.55 1.772-.538 1.774-.49 1.862-.466 1.874v.045l-.36 1.862-.277 1.834v.04l-.23 1.894-.158 1.874-.01.033-.053 1.91v.013l-.007 1.86.112 1.83-.015.018.18 1.817.194 1.382h-.036l.256 1.243h-.03l.307 1.158-.02.014.323 1.11v.033l.27.977.035.026.362.932v.015l.34.856h.037l.38.75h.016l.41.75.024.03.43.616.45.617.014.013.46.497v.043l.473.452.51.404h.03l.443.332v.043l.47.285h.062l.452.226.05.046.468.136.013.058.496.12h.03l.465.138v-.032l.492.077.42.028h.51l.383-.057h.045l.405-.075.036.028.475-.18.594-.24.62-.284.025-.015.624-.33.603-.374.04.028.7-.48.68-.496.722-.432.682-.5.69-.568.74-.495h.027l.652-.556.668-.543.602-.552.622-.542.568-.493.482-.497h.024l.465-.45v-.03l.398-.405 1.11-1.157.024-.013 1.125-1.276 1.154-1.35v-.047l1.172-1.396 1.192-1.528 1.156-1.562h-.013l1.156-1.593v.017l1.123-1.58 1.09-1.65v-.032l1.07-1.636 1.002-1.65.568-.99-1.018 12.685-.026 1.083-.06.975v.03l.026.917h.013l.048.824.088.778.138.678.034.046.145.63v.045l.165.526h.028l.205.507.022.06.203.408.03.03.226.39.007.03.254.346.026.013.276.286.054.045.262.18.013.074.287.18.024.033.27.15.045.016.308.12h.026l.274.107h.015l.32.073.286.045h.04l.27.015h.242l.282-.03h.044l.32-.062h.018l.407-.15h.05l.433-.194.573-.254.032.013.592-.3h-.02l.644-.39h.035l.698-.36.743-.48.784-.466.824-.54.015-.017.85-.566.885-.648.917-.628.92-.678.93-.69.025-.03.93-.783.925-.73.904-.8h.018l.913-.856.93-.856.91-.84h.022l.902-.916.827-.885v.06l.804-.93zm-20.68-38.224l-.037.376.024.706-.06.75-.015.705-.024.885-.074.92-.067.928-.067.99-.112 1.023-.092 1.035-.105 1.05-.127 1.02-.112 1.038-.088 1.05-.13.99-.122 1.023-.18.93-.126.872v.028l-.09.857-.136.81-.178.705-.108.678-.133.598-.106.465-.082.392-.637 1.317-.67 1.384-.74 1.382-.77 1.442-.837 1.47-.894 1.442-.855 1.442-.93 1.41-.91 1.35-.87 1.322-.892 1.275-.736.993-.757.957-.72.872-.707.83-.683.746-.684.71-.623.61-.605.574-.534.525-.51.374-.473.423-.392.267-.398.198-.252.12-.19.06-.36-.044-.345-.028-.302-.166-.32-.226-.338-.362-.27-.437-.322-.525-.286-.63-.203-.732-.25-.8-.17-.943-.174-1.023-.12-1.276-.073-1.362-.07-1.457v-3.018l.083-1.64.127-1.62.122-1.68.215-1.668.28-1.73.312-1.723.318-1.727.432-1.713.46-1.68.42-1.44.45-1.322.452-1.218.465-1.17.433-1.082.49-.99.45-.9.517-.826.474-.796.51-.736.498-.646.493-.598.498-.542.51-.54.508-.433.465-.438.485-.433.493-.393.738-.452.818-.404.794-.313.73-.272.78-.208.675-.09.684-.15 1.132-.092 1-.088h1.875l.865.043.83.136.782.15.562.134zM255.8 244.097l.957-1.07-2.41-3.437h-.06l-.795.812-.663.57-.608.57-.64.568-.645.545-.622.525-.63.493-.63.452-.58.478-.538.38-.534.358-.495.345-.396.226-.346.18-.293.136-.172.032-.135.013-.077-.03-.037-.042-.06-.108-.05-.18-.01-.343-.02-.36.03-.45.014-.632.06-.572.037-.752.076-.85.24-2.073.216-1.955.018-.06.22-1.963.25-2.028-.012-.033.164-1.996.247-1.892.21-1.997.21-1.847.212-1.83.185-1.8.21-1.76.188-1.634.18-1.604.21-1.52.12-1.44.19-1.32.133-1.428.04-.03.072-1.336.06-1.23h-.02l.06-1.157-.03-1.082-.07-1.035v-.03l-.073-.932-.082-.868-.144-.812-.135-.736v-.015l-.202-.677v-.03l-.194-.615h-.052l-.24-.586.035-.015-.293-.495v-.03l-.247-.405-.015-.03-.27-.39-.038-.032-.286-.372-.306-.316h-.017l-.298-.302h-.037l-.346-.208-.016-.03-.323-.21v-.016l-.33-.163h-.03l-.36-.09-.323-.106h-.006l-.328-.074-.06-.015-.293-.045-.326-.045h-.02l-.333-.03-.027.03-.323.045-.293-.045-.27.045-.602.136-.624.107h-.035l-.646.208h.036l-.72.24-.72.27-.743.362-.796.402h.01l-.85.5h-.01l-.876.51-.99.584-.705.51-.766.508-.04.017-.794.63-.915.66v.044l-.91.736-.976.844h-.013l-1.056.914h.03l-1.028 1.005-.033.028-1.087 1.01-1.08 1.14v.032l-1.136 1.216h-.006l-1.117 1.244-1.178 1.35-.018.03-1.156 1.426-1.207 1.474-1.172 1.59-.017.014-1.192 1.638-1.2 1.698-.96 1.528.966-9.067.112-1.204.1-1.034.02-.015.06-1.05.033-.99v-.03l-.06-.9.06-.048-.074-.825-.063-.856-.09-.718v-.06l-.153-.678-.02-.028-.212-.616v-.06l-.233-.525h-.02l-.253-.525-.054-.048-.33-.417-.03-.048-.385-.327-.02-.032-.414-.254-.038-.058-.47-.18h-.06l-.552-.124h-.022l-.624-.058v.015l-.646.042h-.03l-.585.123h-.043l-.67.18v.044l-.712.268-.745.346-.03.013-.766.422h-.022l-.84.45-.862.54h-.024l-.872.63-.958.663v-.033l-.938.724-.95.75v.03l-.966.81-1.007.824-.974.917-1.016.885-.006.032-.977.958-.966.992-1.007.992v.015l-.972 1.035-.923 1.065-.95 1.05-1.043 1.244.112.24 2.226 3.184h.088l.69-.792.547-.587.536-.587.586-.555.584-.598.545-.558.61-.48.56-.57.578-.452.545-.435.544-.36.48-.406.452-.285.404-.226.36-.18.305-.122.165-.09.114.047h.09l.036.105.07.15.055.223.057.376.017.436-.017.598-.022.618-.067.764-.047.81-.11.977-.076 1.037-2.047 21.6-.38 4.326-.425 4.322-.488 4.293-.528 4.325-.592 4.67.166.09 13.626-5.287.39-.043-.054-1.126.01-.9v-1.008l.068-1.005.028-1.05.032-1.143.052-1.11.094-1.11.048-1.142.105-1.153.036-1.157.09-1.19.106-1.11.08-1.157.053-1.11.1-1.018.126-1.022.076-1.006.127-.964.06-.87.106-.81.066-.692.09-.718.07-.57.064-.494.08-.363.378-.9.44-.963.486-.96.54-.945.542-1.035.598-1.05.64-.992.637-1.05.646-1.05.704-1.023.73-1.02.727-1.023.743-.99.75-.976.76-.947.704-.945.745-.902.757-.87.75-.825.758-.797.698-.75.723-.677.68-.66.678-.598.637-.525.595-.42.577-.404.562-.332.488-.225.435-.193.407-.076.495-.017h.382l.323.117.27.168.21.166.217.285.142.332.15.39.09.51.03.54.053.645v.646l-.052.75-.036.795-.04.872-.127.902-.084.96-3.638 30.923-.114 1.218h-.026l-.05 1.143-.06 1.05h-.024l.037.99h-.013l.084.9.067.87.172.69.187.68v.045l.248.57.023.03.24.478.023.075.284.407.026.043.35.36.022.047.375.3.06.03.398.253h.055l.45.183h.045l.458.15.043.032.533.058H236.38l.576-.058h.024l.353-.06h.06l.42-.197h.028l.504-.18.512-.21.046-.062.615-.284.674-.315.692-.435h.06l.736-.42.788-.51.803-.542v-.03l.894-.583.89-.618h.018l.846-.645.938-.678.91-.704h.02l.926-.78.914-.763.932-.784h.03l.915-.87h-.015l.887-.826.9-.824h.03l.835-.904.824-.916.84-.867zm-12.322-64.662l.817-1.606-3.467-2.132-.78 1.26-.61.975-.622.798-.588.735-.592.66-.643.573-.61.448-.66.39-.66.316-.713.18-.728.164-.856.06-.893-.012-.924-.06-1.064-.167-1.054-.165-1.126-.24-1.216-.195-1.214-.24-1.098-.21-.99-.256-.908-.18-.872-.178-.742-.15-.758-.152-.038.076-.66-.136-.038.017-.61-.107h-.702l-.046-.013-.652.013h-.01l-.653.017h-.038l-.676.103h-.028l-.465.106h-.01l-.457.077-.05.013-.52.21v.016l-.525.226h-.038l-.54.342v-.013l-.6.36-.61.374v.092l-.63.465-.63.585-.653.648v.03l-.685.69-.665.825-.706.842v.03l-.715.977-.71 1.063h-.012l-.725 1.143-.717 1.244-.852 1.593.207.165 3.364 2.13h.04l.772-1.336.646-.9.63-.93.697-.722.675-.66.698-.584.675-.512.724-.375.697-.316.666-.24.67-.12.957-.045.94.013.877.032.955.15.872.165.945.21.968.194 1.25.286 1.16.3 1.118.27h.006l1.074.227v.044l1.037.21.99.225v-.016l.984.15h.02l.984.076h.997l.962-.076.01-.03.537-.045h.038l.54-.152h.033l.547-.24.04.032.61-.274.618-.282.037-.06.594-.347h.038l.6-.42.674-.494v-.03l.655-.54v-.06l.667-.63.04-.02.606-.746.66-.81h.037l.69-.888.655-.976v-.032l.7-1.063.703-1.16.647-1.258v-.017zm-54.622 50.997l.05-1.83-.037-1.908-.075-1.802-.032-.028-.18-1.878v-.028l-.186-1.247-.264-1.292-.32-1.244v-.015l-.4-1.187-.436-1.14v-.018l-.515-1.078v-.033l-.585-1.02v-.03l-.61-.977-.007-.028-.69-.903-.023-.043-.738-.856-.797-.827-.02-.042-.805-.75-.93-.707-.02-.016-.94-.613h-.038l-.99-.57-1.037-.512h-.03l-1.11-.433-.016.013-1.14-.404h-.024l-1.176-.254-1.246-.18-.016.027-1.27-.134-1.35-.06h-.036l-1.366.06h-.016l-1.366.134-.06.015-1.08.166h-.007l-1.156.256h-.01l-1.215.3h-.017l-1.25.36-.024.06-1.284.436-1.35.482h-.038l-1.343.643-1.35.706-1.384.66-1.342.826-.02.03-1.344.945h-.024l-1.29.95-1.013.78-.947.84h-.045l-.936.9h-.018l-.924.945h.015l-.93.978v.012l-.908 1.025-.878 1.108-.833 1.143v.046l-.826 1.154v.015l-.788 1.26.015.014-.787 1.263v.032L142 226.29l-.674 1.35-.6 1.44v.033l-.577 1.47-.507 1.548v.016l-.465 1.547.015.04-.39 1.61-.33 1.634-.022.046-.223 1.728-.19 1.712-.036.058-.16 1.79-.01 1.815.078 1.907-.043.013.15 1.894v.027l.188 1.954.134 1.004.15.962.233.973.226 1.008.256.945.35.977.323.915.018.015.383.96.41.902.474.87.022.014.512.885.55.812h.012l.58.812h.035l.595.796.03.015.646.646.068.06.714.662.022.058.772.588v.015l.827.57.006.028.87.54v.03l.924.468h.043l.94.405h.01l1.04.392.023.013 1.022.316h.045l1.11.21v.046l1.193.133h.015l1.2.106h.018l1.313.046 1.337-.06 1.388-.166h.044l1.2-.166.016-.015 1.287-.287h.022l1.266-.36h.015l1.316-.496 1.32-.508 1.35-.617 1.306-.678 1.308-.704h.052l1.26-.81h.016l1.266-.84 1.24-.9h.017l1.19-.9v-.046l1.144-.932.06-.032 1.057-.958v-.045l1.044-1.005v-.046l.97-1.052 1.185-1.41 1.13-1.457v-.017l1.017-1.53.968-1.62.872-1.67v-.012l.857-1.683.006-.045.727-1.71v-.014l.69-1.758v-.043l.586-1.787.523-1.86v-.017l.452-1.845.006-.015.353-1.862.325-1.892.233-1.862v-.028l.12-1.924zm-14.04 4.352l-.073 1.74-.105 1.644-.127 1.603-.22 1.607-.23 1.545-.25 1.517-.32 1.44-.294 1.396-.39 1.397-.376 1.29-.398 1.262-.457 1.188-.435 1.094-.473 1.067-.497.958-.48.93-.465.785-.538.734-.52.662-.496.572-.492.433-.488.42-.482.224-.487.214-.53.27-.567.15-.65.15-.7.088-.795.076h-.818l-.758-.164-.78-.226-.71-.3-.71-.376-.645-.465-.646-.572-.606-.63-.632-.748-.49-.783-.543-.87-.447-.96-.465-1.007-.405-1.158-.34-1.197-.36-1.216-.238-1.28-.247-1.393-.233-1.41-.187-2.045-.19-1.983-.075-1.877-.013-1.846.043-1.802.084-1.68.157-1.664.18-1.563.234-1.502.284-1.442.307-1.364.352-1.276.36-1.26.422-1.172.434-1.126.437-1.022.448-.977.52-.885.472-.884.472-.784.497-.72.473-.674.502-.586.442-.48.474-.478.473-.39.38-.303.392-.24.84-.436.856-.375.944-.227.97-.18.787-.06h.752l.697.105.72.182.72.24.608.33.63.42.6.48.587.556.5.706.53.734.506.81.438.918.407 1.022.338 1.09.336 1.192.292 1.26.256 1.35.232 1.425.18 1.773.158 1.802.075 1.77.073 1.74v1.696zm-20.85-61.608l.043-1.442-4.317-.045-.374 1.213-.324.902-.323.87-.36.692-.36.66-.4.57-.432.498-.4.435-.485.342-.444.317-.53.255-.618.165-.58.15-.664.107-.72.103-.71.075-.757.073-.75.048-.818.043-.848.074-.878.045-.923.062-.966.06h-1.023l-1.102.043-1.15.03-1.237.06-1.3.03-1.334.016H127.378l-1.552.06-1.765.016-1.63.028h-1.596l-1.487.047-1.45.016-1.396.046-1.342.015-1.263.043-1.253.06-1.252.047-1.17.09h-.023l-1.21.03-1.23.12-1.2.105-1.247.103-1.315.12-1.31.123-1.39.164-1.42.148-1.508.183-2.01.282-.016.017-1.9.36h-.012l-1.862.39-1.782.497-1.71.537-1.628.585h-.017l-1.562.708-.015-.075-1.502.72-1.402.782h-.035l-1.323.87-1.328.9-1.255.976H79l-1.206.975v.03l-1.156 1.05-.984 1.055h-.038l-.917 1.063h-.014l-.887 1.126v.017l-.765 1.11v.043l-.777 1.14v.048l-.605 1.217h-.026l-.553 1.216v.028l-.503 1.25v.085l-.397 1.234v.016l-.308 1.362v.017l-.26 1.367h.005l-.144 1.365.026.017-.067 1.44h.006l.036 1.485h-.013l.127 1.44.03.016.202 1.308v.074l.3 1.26h.025l.357 1.215.048.03.42 1.158.51 1.11v.03l.606 1.006.006.015.646 1.024.69.854v.045l.737.81.826.72v.03l.857.646.796.615.06.015.872.48.013-.015.88.452h.02l.903.3.06.03.89.255h.055l.87.106h.047l.944.06h.038l.923-.077.017-.015 1.01-.193.025.015 1.05-.254.028-.017.964-.347.03-.014.94-.406.014-.013.87-.48.794-.498.017-.016.735-.557.336-.357.04-.048.247-.342.04-.045.17-.362v-.043l.113-.36.02-.06.033-.348-.053-.075-.076-.315v-.045l-.15-.344-.058-.06-.265-.302-.02-.03-.375-.298v-.015l-.46-.317-1.215-.705-1.082-.646-1.012-.733-.908-.708-.887-.69-.696-.723-.723-.69-.643-.793-.533-.678-.465-.69-.453-.72-.353-.677-.338-.72-.28-.618-.252-.613-.18-.677-.2-.586-.113-.572-.09-.555-.096-.57-.1-.48-.038-.945-.088-.92.035-.897.086-.857.164-.853.162-.736.252-.765.344-.72.394-.707.512-.614.47-.662.613-.57.685-.54.717-.54.852-.464.885-.44.965-.447 1.09-.345 1.148-.39 1.253-.284 1.32-.333 1.403-.223 1.458-.166 2.212-.3 2.094-.24 2.02-.224 1.945-.18 1.867-.182 1.8-.103 1.728-.106 1.345-.078-4.826 64.017-.122 1.515-.097 1.44-.114 1.32-.087 1.232-.196 1.156-.112 1.065-.196.948-.165.932-.213.837-.224.77-.25.733-.296.632-.286.57-.36.526-.346.495-.405.422-.465.432-.527.36-.517.346-.633.332-.67.3-.68.255-.802.286-.795.224-.923.24-.954.21-1.044.256-1.147.21-1.44.332-.22 4.398.055.06 42.304-5.316.23-4.442-.02-.046-1.592.09-1.23.074h-1.14l-1.06.045-1.014.033-.876-.077-.84-.015-.76-.103-.666-.135-.655-.15-.557-.21-.532-.193-.398-.348-.374-.3-.362-.378-.33-.45-.223-.51-.226-.568-.173-.646-.12-.708-.134-.81-.07-.855-.014-.947v-1.05l.014-1.113.04-1.23.067-1.32.062-1.413.14-1.468 4.646-63.1 1.45-.105 1.697-.057 1.545-.077 1.487-.074 1.42-.06 1.312-.105 1.26-.06 1.17-.013h.016l1.09-.123 1.034-.044.96-.076.932-.103.908-.06.857-.076.757-.074h.022l.736-.09.745-.03.734-.134 1.11-.166 1.075-.195h.022l.983-.27.887-.345.816-.316.017-.014.72-.362.022-.015.66-.406.03-.06.602-.452.56-.525-.024-.045.484-.54.038-.028.407-.573.027-.06.362-.628h-.016l.338-.69v-.03l.27-.752.23-.794v-.017l.21-.825v-.03l.168-.87.148-.872h-.03l.12-1.007.06-1.005h.033l.105-1.034z" fill="#b3282d"/><path d="M109.38 168.195l3.27-61.683 19.545-2.495 19.55 39.746 1.64-42.447 10.78-1.375-3.455 61.706-20.825 2.658-18.255-38.33-1.565 40.86-10.686 1.36zM185.03 136.174c-.06 3.906.02 8.908.475 12.47.456 3.562 1.317 5.96 4.423 5.564 4.93-.63 6.835-6.812 7.105-22.162.047-4-.022-8.908-.476-12.47-.454-3.564-1.315-5.96-4.423-5.564-5.023.642-6.94 6.735-7.105 22.162m29.644-10.65c2.166 16.99-6.874 31.975-25.415 34.34-12.332 1.573-20.136-3.562-21.907-17.444-2.178-17.08 6.91-31.698 25.543-34.077 12.423-1.584 20.03 3.48 21.78 17.182M240.395 104.14l7.126-.91-.298 4.22-7.036.894-1.795 29.564c-.055 1.03-.122 2.705.03 3.895.305 2.376 1.863 4.404 4.913 4.294-.868 4.845-5.988 7.632-11.014 8.273-6.03.77-10.81-1.78-11.616-8.08-.603-4.75.36-16.847.667-21.713l.914-13.947-5.388.687.016-2.79c6.936-3.107 13.755-7.877 20.02-14.06l4.386-.56-.923 10.234zM270.674 85.43c.618 4.84-3.362 7.854-8.932 8.565-5.663.723-10.088-1.22-10.68-5.878-.62-4.84 3.517-8.06 9.182-8.786 5.57-.707 9.836 1.44 10.43 6.1M266.7 134.3c-.057 1.024-.124 2.703.03 3.893.302 2.374 1.86 4.402 4.912 4.292-.87 4.847-5.99 7.636-11.015 8.275-6.028.77-10.808-1.78-11.613-8.08-.594-4.657.372-16.753.688-21.533l1.188-18.345 18.127-4.165L266.7 134.3z" fill="#00853f"/><path d="M200.004 31.16c-91.71 0-166.317 74.61-166.317 166.317 0 91.707 74.608 166.32 166.317 166.32 91.708 0 166.318-74.613 166.318-166.32S291.712 31.16 200.004 31.16m0 1.117c91.092 0 165.2 74.108 165.2 165.2 0 91.092-74.108 165.2-165.2 165.2-91.09 0-165.2-74.108-165.2-165.2 0-91.092 74.11-165.2 165.2-165.2" fill="#fff"/><path d="M200.004 22.844c-96.29 0-174.633 78.342-174.633 174.634 0 96.294 78.343 174.633 174.634 174.633 96.292 0 174.634-78.338 174.634-174.632 0-96.292-78.342-174.634-174.634-174.634m0 1.117c95.68 0 173.517 77.84 173.517 173.518s-77.837 173.514-173.516 173.514c-95.678 0-173.516-77.836-173.516-173.514 0-95.68 77.838-173.517 173.516-173.517" fill="#fff"/><path d="M19.392 334.888L1.02 282.836c7.305 9.46 20.612 19.596 48.654 19.596 126.453 0 175.624-29.45 251.613-29.45 60.117 0 98.713 31.488 98.713 31.488-10.802 16.252-12.644 24.586-12.644 24.586s10.126 21.16 10.126 36.274c0 0-36.078-28.554-96.195-28.554-75.99 0-125.16 31.685-238.034 31.685-24.577 0-37.882-14.82-43.86-33.572" fill="#b3282d"/><path d="M79 349.74c-2.88.066-5.022-2.16-5.022-5.472v-16.623c0-3.27 2.14-5.52 5.023-5.59 2.963-.07 4.83 2.053 4.83 5.24v4.602c-1.525.07-2.287.097-3.815.138v-4.638c0-.73-.196-1.326-.975-1.31-.816.023-.973.628-.973 1.353v16.95c0 .726.157 1.33.973 1.312.82-.02.975-.63.975-1.358v-4.64c1.528-.04 2.29-.07 3.816-.138v4.6c0 3.23-1.867 5.505-4.83 5.574M85.764 349.076v-26.878c3.38-.178 5.07-.3 8.45-.585v3.874c-1.76.15-2.64.217-4.398.338v7.345c1.17-.08 1.752-.124 2.92-.215v3.672c-1.168.09-1.75.136-2.92.217v8.112c1.76-.12 2.64-.19 4.4-.34v3.874c-3.382.29-5.07.407-8.452.586M104.268 347.473c-3.29.385-4.933.557-8.22.856v-26.88c1.62-.147 2.43-.224 4.05-.394v23.003c1.67-.175 2.502-.266 4.17-.46v3.873zM106.098 347.255v-26.878c3.38-.41 5.07-.64 8.45-1.12v3.875c-1.76.25-2.64.37-4.398.605v7.346c1.17-.155 1.752-.235 2.92-.396v3.67c-1.168.163-1.75.242-2.92.397v8.114c1.76-.232 2.64-.355 4.4-.605v3.875c-3.382.48-5.07.705-8.452 1.117M122.148 334.345c0-.848-.194-1.14-.74-1.054l-.976.15v8.03l.936-.143c.545-.084.78-.484.78-1.29v-5.692zm0-11.26c0-.807-.235-1.132-.78-1.048-.374.058-.56.088-.936.144v7.83l.975-.15c.547-.086.74-.44.74-1.285v-5.49zm-.313-4.914c1.987-.31 4.206.54 4.206 4.052v5.208c0 1.37-.31 2.512-1.44 3.5 1.13.626 1.44 1.666 1.44 3.037v5.688c0 3.512-2.218 5.084-4.205 5.393-2.182.34-3.273.506-5.453.825v-26.88c2.18-.318 3.27-.482 5.453-.822M133.91 321.152c0-.807-.234-1.13-.778-1.037-.375.062-.562.095-.936.16v8.313l.975-.165c.547-.095.74-.45.74-1.296v-5.975m4.52 21.135l-3.858.665c-.35-.99-.545-2.044-.545-4.063v-5.853c0-.766-.194-1.177-.895-1.06-.375.066-.562.098-.936.16v11.22c-1.62.275-2.43.41-4.05.678v-26.88c2.18-.36 3.27-.542 5.453-.914 1.985-.337 4.204.49 4.204 3.998v6.138c0 1.248-.31 2.35-1.36 3.26 1.05.545 1.48 1.48 1.48 2.81v5.45c0 1.695.23 3.145.507 4.39M145.8 332.562c-.248-2.944-.373-4.414-.624-7.358-.325 3.045-.49 4.567-.818 7.61.576-.1.865-.15 1.442-.252m-1.868 4.163c-.205 1.877-.304 2.813-.508 4.687-1.45.257-2.174.384-3.623.635 1.387-10.99 2.083-16.49 3.467-27.486 1.51-.262 2.268-.395 3.78-.662 1.385 10.51 2.078 15.763 3.466 26.27l-3.973.698c-.155-1.812-.232-2.72-.39-4.53l-2.218.39M156.107 312.316c.734 2.732 1.1 4.096 1.83 6.83.43 1.62 1.44 5.927 1.715 7.498.03-.006.047-.01.077-.013-.156-1.467-.352-7.69-.352-9.1v-5.775c1.528-.26 2.292-.386 3.818-.642v26.882c-1.62.267-2.43.405-4.05.678-.687-2.56-1.03-3.842-1.713-6.405-.43-1.54-1.365-5.738-1.638-7.266-.033.006-.045.01-.078.013.155 1.386.312 7.494.312 8.826.014 2.145.023 3.22.038 5.36-1.543.267-2.314.4-3.857.672v-26.878c1.56-.273 2.34-.41 3.897-.678M171.465 315.013c0-.928-.35-1.313-1.052-1.2l-.934.156v19.17c.373-.057.56-.09.933-.15.702-.11 1.052-.61 1.052-1.58v-16.397m-.7 21.753c-2.136.346-3.202.512-5.337.86V310.75c2.135-.35 3.2-.515 5.336-.866 2.456-.403 4.713.697 4.713 4.453v16.58c0 3.752-2.257 5.453-4.713 5.85M181.653 312.735v17.504c0 .69.39 1.026.974.925.584-.1.97-.568.97-1.257v-17.52c0-.688-.386-1.024-.97-.918-.585.105-.974.58-.974 1.265m6.04-.81v16.993c0 3.24-2.26 5.802-5.066 6.278-2.804.48-5.064-1.315-5.064-4.548v-16.912c0-3.228 2.26-5.792 5.064-6.295 2.805-.505 5.065 1.245 5.065 4.486M199.533 326.66c-.235-.285-.39-.42-.584-.468v1.02c0 .693.387 1.027.972.923.194-.034.388-.107.545-.217-.373-.504-.562-.755-.934-1.26m1.362-3.72v-13.783c0-.693-.387-1.025-.973-.913-.585.114-.973.594-.973 1.285v12.823c.7-.127 1.478.14 1.945.588m3.583 8.432c-.817.147-1.558-.084-1.945-.54-.702.693-1.6 1.173-2.766 1.382-2.65.47-4.907-1.302-4.907-4.554V310.59c0-3.21 2.256-5.85 5.062-6.392 2.802-.542 5.064 1.225 5.064 4.453v17.066c0 .734-.118 1.45-.314 2.056.235.243.622.256 1.4.114v2.796c-.345.344-.853.557-1.594.688M212.55 329.925c-2.805.503-4.988-1.32-4.988-4.43V303.11l4.053-.8v22.613c0 .7.39 1.035.934.936.582-.106.935-.578.935-1.277v-22.64c1.62-.32 2.43-.482 4.05-.8v22.54c0 3.127-2.182 5.738-4.986 6.242M219.7 328.235v-27.518c3.382-.668 5.072-1 8.453-1.658v3.932c-1.76.34-2.64.51-4.4.852v7.57l2.922-.556v3.82c-1.17.218-1.755.325-2.923.543v8.366l4.4-.794v3.93c-3.38.603-5.07.906-8.45 1.513M237.776 316.778v3.263c0 1 .426 1.585 1.324 1.43.86-.15 1.285-.843 1.285-1.887 0-2.5-.915-4.402-2.452-6.885-1.446-2.33-3.585-5.856-3.585-9.068 0-3.458 1.676-6.493 5.182-7.15 2.727-.51 4.557 1.206 4.557 4.884v3.067c-1.386.25-2.082.378-3.468.63v-3.476c0-.917-.468-1.326-1.09-1.21-.663.123-1.21.68-1.21 1.636 0 3.204.89 4.222 2.534 7.025 1.677 2.86 3.43 5.938 3.43 9.203 0 4.352-2.457 6.484-4.988 6.926-3.117.544-5.026-1.128-5.026-4.832v-2.925c1.404-.254 2.103-.38 3.506-.63M250.208 299.767v18.294c0 .71.387 1.06.975.96.583-.096.97-.576.97-1.29v-18.303c0-.71-.387-1.06-.97-.956-.588.102-.975.586-.975 1.297m6.037-.75v17.746c0 3.35-2.26 5.895-5.062 6.364-2.804.472-5.064-1.32-5.064-4.662v-17.678c0-3.343 2.26-5.93 5.063-6.42 2.802-.49 5.062 1.304 5.062 4.65M272.713 319.577c-1.534.15-2.303.232-3.84.415v-5.71c.095-2.852.138-4.304.233-7.204-.032.004-.047.004-.078.01-.325 2.518-.488 3.78-.813 6.267-.467 2.79-.7 4.175-1.167 6.863-1.26.166-1.89.252-3.15.44-.468-2.557-.702-3.875-1.17-6.537l-.817-6.042c-.03.004-.044.01-.074.015.09 2.875.137 4.32.232 7.143v5.7c-1.48.238-2.22.36-3.702.6v-27.99c1.793-.297 2.69-.446 4.48-.724.843 4.96 1.262 7.622 2.102 12.873l.506 3.65.077-.01c.203-1.514.307-2.273.51-3.79.93-5.498 1.396-8.272 2.328-13.485 1.74-.213 2.608-.307 4.345-.477v27.994M278.906 295.93v18.31c0 .714.386 1.103.967 1.07.58-.036.966-.47.966-1.183V295.82c0-.71-.386-1.108-.967-1.074-.58.032-.967.474-.967 1.184m5.992.017c-.002 7.008-.002 10.7 0 17.71 0 3.354-2.244 5.607-5.025 5.77-2.783.162-5.03-1.82-5.03-5.173v-17.737c0-3.35 2.247-5.73 5.03-5.888 2.78-.163 5.025 1.968 5.025 5.317M290.154 310.395v3.28c0 1.007.424 1.668 1.313 1.666.848 0 1.272-.62 1.272-1.667 0-2.512-.905-4.58-2.43-7.352-1.44-2.608-3.555-6.512-3.555-9.747 0-3.486 1.662-6.273 5.138-6.256 2.7.01 4.515 2.14 4.515 5.828v3.07c-1.375-.035-2.062-.048-3.437-.06v-3.492c0-.92-.464-1.425-1.077-1.427-.657-.004-1.2.454-1.2 1.414 0 3.224.88 4.406 2.508 7.533 1.67 3.194 3.402 6.605 3.402 9.877 0 4.36-2.434 6.037-4.942 6.037-3.088-.002-4.982-1.968-4.982-5.7v-2.948c1.39-.035 2.085-.046 3.476-.055M307.266 291.347c.725 2.964 1.09 4.472 1.816 7.503.43 1.797 1.434 6.562 1.707 8.273.027.002.042.002.075.01-.155-1.576-.35-8.12-.35-9.585v-5.936c1.518.134 2.278.207 3.797.364v27.813c-1.614-.147-2.42-.216-4.03-.343-.68-2.778-1.02-4.192-1.7-7.025-.427-1.71-1.357-6.332-1.626-8l-.077-.006c.154 1.49.308 7.912.308 9.292.016 2.225.022 3.333.037 5.52-1.53-.103-2.296-.148-3.827-.228v-27.908c1.548.088 2.32.14 3.868.256M316.522 320.003v-27.79c1.614.18 2.42.278 4.038.48v27.738c-1.617-.182-2.424-.266-4.038-.427M327.674 321.716c-2.89-.383-5.027-2.886-5.027-6.293v-17.207c0-3.367 2.137-5.38 5.027-4.944 2.966.443 4.847 3.013 4.847 6.276v4.72c-1.533-.244-2.3-.36-3.832-.586v-4.776c0-.746-.193-1.396-.975-1.513-.82-.122-.975.476-.975 1.223v17.49c0 .746.155 1.385.975 1.495.82.113.975-.483.975-1.23v-4.774c1.533.215 2.3.33 3.833.562v4.72c0 3.303-1.88 5.232-4.845 4.838M339.828 314.52c-.252-3.088-.38-4.64-.63-7.735-.332 2.994-.496 4.496-.827 7.494.584.096.875.14 1.458.24m-1.888 3.6l-.51 4.596c-1.463-.228-2.195-.34-3.652-.555 1.394-10.7 2.094-16.257 3.493-26.9 1.527.27 2.29.413 3.82.7 1.404 11.135 2.106 16.834 3.514 27.92-1.615-.273-2.42-.404-4.027-.665-.16-1.887-.237-2.832-.396-4.73-.895-.147-1.344-.222-2.24-.364M349.344 316.608v3.174c0 .975.435 1.705 1.35 1.87.876.158 1.315-.37 1.315-1.385 0-2.432-.935-4.583-2.507-7.542-1.487-2.8-3.65-6.984-3.65-10.13 0-3.39 1.698-5.784 5.282-5.03 2.785.592 4.664 3.064 4.664 6.618v2.946c-1.424-.298-2.134-.446-3.552-.735v-3.366c0-.894-.476-1.477-1.113-1.61-.678-.143-1.233.19-1.233 1.125 0 3.132.9 4.45 2.584 7.752 1.724 3.384 3.513 6.926 3.513 10.075 0 4.195-2.52 5.467-5.104 5.008-3.183-.568-5.12-2.922-5.12-6.56v-2.86c1.425.254 2.137.385 3.568.648" fill="#fff"/></svg>