<svg xmlns="http://www.w3.org/2000/svg" width="440.367" height="141.31" viewBox="62.65 61.137 440.367 141.31"><path d="M179.622 84.702c6.826 7.893 11.726 17.634 13.772 28.636 6.17 33.078-15.645 64.898-48.723 71.064-17.738 3.308-35.114-1.44-48.37-11.655 13.7 15.846 35.207 24.21 57.29 20.09 33.08-6.167 54.897-37.983 48.723-71.063-2.854-15.338-11.23-28.244-22.69-37.072z" fill="#016cbc"/><path d="M141.15 108.825c-2.316-.03-4.662.305-7 1-12.465 3.707-19.58 16.81-15.875 29.28 3.704 12.465 16.815 19.552 29.28 15.845 12.468-3.704 19.552-16.817 15.845-29.282-.453-1.526-1.033-2.957-1.75-4.312-1.18 2.7-3.487 4.878-6.53 5.78-5.476 1.633-11.215-1.488-12.845-6.968-1.21-4.08.214-8.303 3.28-10.875-1.435-.294-2.915-.45-4.405-.47z" fill="#3fbfad"/><path d="M122.48 84.794c33.277-13.393 69.27-6.937 93.283 13.737-18.883-32.672-61.57-46.58-100.238-31.016-38.674 15.562-59.826 55.165-50.81 91.81 2.997-31.545 24.485-61.136 57.765-74.53z" fill="#9aa4ad"/><path d="M242.786 147.11c-1.237 1.333-2.515 2.325-3.835 2.977-1.32.647-2.754.976-4.3.976-1.374 0-2.643-.31-3.81-.925-1.168-.618-2.182-1.514-3.04-2.697-.857-1.18-1.525-2.634-2.006-4.363-.482-1.73-.72-3.704-.72-5.93 0-2.224.238-4.193.72-5.905.48-1.712 1.148-3.16 2.01-4.338.856-1.18 1.867-2.08 3.037-2.697 1.166-.616 2.44-.924 3.81-.924 1.546 0 2.978.326 4.3.974 1.32.652 2.6 1.643 3.836 2.98h.26v-13.71h3.13v33.17c0 .722.01 1.406.025 2.054.02.653.08 1.266.183 1.85h-2.528l-.81-3.49h-.26zm.26-16.228c-2.586-3.387-5.223-5.08-7.91-5.08-2.173 0-3.873.956-5.097 2.874-1.225 1.918-1.835 4.74-1.835 8.472 0 3.696.61 6.505 1.834 8.422 1.223 1.916 2.923 2.873 5.095 2.873 1.445 0 2.797-.41 4.056-1.232 1.26-.822 2.545-2.087 3.854-3.8v-12.528zM273.288 144.077c-1.2 2.43-2.595 4.202-4.184 5.316-1.593 1.112-3.57 1.67-5.935 1.67-1.675 0-3.188-.32-4.542-.953-1.354-.63-2.496-1.548-3.44-2.747-.943-1.198-1.67-2.636-2.182-4.312-.516-1.677-.772-3.576-.772-5.7 0-2.223.264-4.207.798-5.953.53-1.748 1.265-3.23 2.21-4.444.94-1.214 2.08-2.138 3.41-2.774 1.337-.632 2.81-.952 4.42-.952 3.254 0 5.744 1.098 7.467 3.286 1.732 2.192 2.597 5.427 2.597 9.705v.874h-17.765c.033 3.714.73 6.534 2.082 8.46 1.36 1.925 3.32 2.887 5.898 2.887 1.75 0 3.208-.443 4.375-1.333 1.167-.89 2.232-2.328 3.195-4.31l2.366 1.28zm-3.133-9.292c-.067-2.91-.73-5.127-1.982-6.65-1.255-1.52-2.947-2.286-5.077-2.286-2.126 0-3.88.764-5.257 2.284-1.372 1.524-2.197 3.742-2.47 6.65h14.785z" fill="#016cbc"/><path d="M290.797 123.746h3.13l7.908 23.002 7.755-23.002h3.183L303.43 150.6h-3.287l-9.346-26.854zM317.8 113.526h3.854v4.52H317.8v-4.52zm.36 10.22h3.136V150.6h-3.135v-26.854zM327.714 137.147c0-2.19.264-4.14.795-5.853.53-1.71 1.284-3.16 2.26-4.34.976-1.18 2.13-2.088 3.463-2.72 1.335-.634 2.824-.95 4.47-.95 1.643 0 3.13.316 4.465.95 1.335.632 2.492 1.54 3.467 2.72.975 1.18 1.726 2.63 2.256 4.34.53 1.712.8 3.662.8 5.853 0 2.19-.27 4.14-.8 5.853-.53 1.712-1.28 3.165-2.255 4.364-.975 1.2-2.132 2.116-3.467 2.747-1.335.633-2.822.953-4.465.953-1.646 0-3.134-.32-4.47-.952-1.334-.63-2.488-1.547-3.464-2.746-.976-1.198-1.73-2.652-2.26-4.364-.532-1.71-.796-3.664-.796-5.853zm3.134 0c0 3.662.7 6.46 2.108 8.394 1.408 1.936 3.316 2.903 5.722 2.903 2.403 0 4.3-.967 5.69-2.902 1.39-1.933 2.087-4.73 2.087-8.393 0-3.66-.696-6.453-2.088-8.37-1.39-1.917-3.286-2.878-5.69-2.878-2.405 0-4.313.96-5.72 2.877-1.41 1.918-2.11 4.71-2.11 8.37zM355.9 113.526h3.235V150.6H355.9v-37.074zM386.45 144.077c-1.197 2.43-2.594 4.202-4.184 5.316-1.593 1.112-3.567 1.67-5.93 1.67-1.676 0-3.192-.32-4.543-.953-1.353-.63-2.5-1.548-3.44-2.747-.942-1.198-1.67-2.636-2.178-4.312-.518-1.677-.774-3.576-.774-5.7 0-2.223.264-4.207.798-5.953.527-1.748 1.265-3.23 2.206-4.444.942-1.214 2.082-2.138 3.416-2.774 1.333-.632 2.808-.952 4.414-.952 3.253 0 5.745 1.098 7.473 3.286 1.73 2.192 2.592 5.427 2.592 9.705v.874h-17.766c.03 3.714.73 6.534 2.086 8.46 1.353 1.925 3.32 2.887 5.894 2.887 1.75 0 3.21-.443 4.378-1.333 1.164-.89 2.23-2.328 3.193-4.31l2.366 1.28zm-3.133-9.292c-.067-2.91-.73-5.127-1.982-6.65-1.252-1.52-2.944-2.286-5.076-2.286-2.13 0-3.88.764-5.257 2.284-1.374 1.524-2.196 3.742-2.47 6.65h14.784zM392.254 123.746h3.133v4.21c3.147-3.116 6.244-4.673 9.292-4.673 4.826 0 7.24 2.876 7.24 8.626v18.69h-3.133v-17.56c0-2.363-.326-4.117-.975-5.265-.65-1.147-2.004-1.72-4.056-1.72-2.707 0-5.493 1.662-8.37 4.98V150.6h-3.132v-26.854zM438.362 144.13c-1.165 2.43-2.495 4.194-3.98 5.288-1.49 1.097-3.363 1.645-5.622 1.645-1.68 0-3.196-.32-4.547-.952-1.35-.63-2.497-1.54-3.44-2.72-.943-1.18-1.667-2.62-2.18-4.314-.514-1.695-.772-3.602-.772-5.725 0-2.223.26-4.207.774-5.953.512-1.748 1.237-3.23 2.18-4.444.942-1.214 2.063-2.138 3.36-2.774 1.305-.632 2.74-.952 4.318-.952 4.62 0 7.855 2.4 9.702 7.19l-2.77 1.08c-1.404-3.767-3.683-5.65-6.832-5.65-2.29 0-4.116.965-5.467 2.894-1.353 1.932-2.027 4.706-2.027 8.326 0 3.722.67 6.548 2.002 8.477 1.335 1.93 3.234 2.895 5.7 2.895 1.68 0 3.062-.453 4.16-1.36 1.096-.908 2.105-2.336 3.03-4.286l2.412 1.336zM444.01 113.526h3.852v4.52h-3.852v-4.52zm.36 10.22h3.132V150.6h-3.13v-26.854zM471.07 150.6c-.14-.616-.25-1.216-.335-1.8-.086-.58-.146-1.164-.18-1.745-1.472 1.37-2.952 2.388-4.44 3.055-1.49.666-3.058 1.002-4.698 1.002-2.225 0-3.988-.676-5.29-2.028-1.3-1.353-1.952-3.07-1.952-5.16 0-1.54.326-2.893.975-4.055.652-1.166 1.654-2.18 3.004-3.032 1.35-.856 3.064-1.593 5.134-2.21 2.072-.614 4.51-1.18 7.316-1.694v-2.617c0-1.3-.52-2.362-1.563-3.183-1.047-.82-2.488-1.235-4.338-1.235-2.877 0-5.1 1.44-6.676 4.314l-2.465-1.437c1.062-1.847 2.337-3.227 3.827-4.134 1.488-.906 3.396-1.36 5.726-1.36 1.262 0 2.428.18 3.49.54 1.06.357 1.964.854 2.72 1.488.755.634 1.344 1.38 1.775 2.234.423.858.64 1.78.64 2.774v16.686c0 .72.152 1.918.462 3.595h-3.13zm-.513-15.148c-2.266.515-4.237 1.02-5.902 1.516-1.666.498-3.043 1.052-4.125 1.667-1.08.617-1.887 1.334-2.42 2.157-.534.823-.8 1.797-.8 2.927 0 1.506.392 2.678 1.187 3.516.786.84 1.886 1.258 3.297 1.258 1.477 0 2.91-.392 4.305-1.18 1.39-.79 2.876-1.985 4.457-3.595v-8.268zM481.234 143.874c2.33 3.114 5.033 4.67 8.11 4.67 1.678 0 3.023-.462 4.033-1.385 1.01-.928 1.516-2.107 1.516-3.545 0-.818-.154-1.497-.463-2.026-.31-.532-.763-.997-1.36-1.39-.6-.39-1.325-.75-2.182-1.078l-2.927-1.103c-1.367-.514-2.568-1-3.592-1.464-1.028-.465-1.892-.982-2.594-1.566-.7-.58-1.225-1.24-1.564-1.976-.348-.735-.516-1.616-.516-2.647 0-1.026.204-1.974.616-2.846.412-.873.984-1.627 1.72-2.26.734-.634 1.644-1.13 2.722-1.49 1.077-.358 2.282-.54 3.617-.54 3.562 0 6.537 1.66 8.934 4.98l-2.26 1.644c-1.024-1.368-2.112-2.378-3.26-3.03-1.15-.65-2.473-.976-3.978-.976-1.475 0-2.645.412-3.514 1.232-.876.82-1.31 1.877-1.31 3.175 0 .72.162 1.317.488 1.796.32.48.786.897 1.387 1.256.595.36 1.33.71 2.206 1.052.87.34 1.873.717 3.004 1.127 1.335.513 2.505 1.007 3.517 1.483 1.008.48 1.847 1.02 2.515 1.616.665.598 1.17 1.282 1.512 2.05.342.77.515 1.682.515 2.742 0 1.127-.214 2.16-.643 3.098-.428.94-1.04 1.75-1.847 2.434-.802.683-1.77 1.212-2.9 1.59-1.13.373-2.382.563-3.75.563-2.12 0-4.005-.43-5.646-1.285-1.645-.854-3.13-2.188-4.467-4.004l2.36-1.896z" fill="#9aa4ad"/><path d="M223.623 89.688c0-2.977.363-5.648 1.08-8.008.722-2.363 1.72-4.367 3.004-6.008 1.284-1.644 2.812-2.91 4.595-3.8 1.777-.89 3.73-1.336 5.852-1.336 2.122 0 4.074.446 5.854 1.336 1.78.89 3.31 2.156 4.595 3.8 1.283 1.64 2.276 3.645 2.978 6.008.707 2.36 1.056 5.03 1.056 8.008 0 2.98-.35 5.648-1.055 8.01-.7 2.36-1.695 4.365-2.977 6.01-1.284 1.64-2.815 2.907-4.595 3.797-1.78.89-3.732 1.332-5.854 1.332s-4.075-.442-5.852-1.332c-1.783-.89-3.31-2.158-4.595-3.798-1.284-1.645-2.282-3.65-3.004-6.01-.717-2.36-1.08-5.03-1.08-8.01zm3.597 0c0 2.568.26 4.863.794 6.88.53 2.02 1.268 3.715 2.208 5.084.942 1.37 2.087 2.414 3.444 3.133 1.35.72 2.845 1.077 4.488 1.077 1.646 0 3.14-.357 4.497-1.077 1.35-.72 2.493-1.764 3.44-3.133.94-1.37 1.674-3.063 2.207-5.083.528-2.02.795-4.314.795-6.882 0-2.567-.267-4.86-.795-6.88-.533-2.018-1.268-3.713-2.206-5.08-.947-1.37-2.09-2.417-3.44-3.133-1.357-.72-2.85-1.08-4.496-1.08-1.643 0-3.138.36-4.488 1.08-1.357.717-2.502 1.762-3.444 3.132-.94 1.368-1.677 3.063-2.208 5.08-.535 2.02-.794 4.314-.794 6.88zM259.1 108.226c.104-.582.167-1.2.183-1.847.018-.654.026-1.338.026-2.057v-33.17h3.13v13.71h.26c1.233-1.336 2.503-2.326 3.806-2.977 1.307-.65 2.73-.976 4.278-.976 1.37 0 2.652.307 3.836.923 1.18.617 2.205 1.516 3.064 2.697.854 1.18 1.524 2.624 2.006 4.337.478 1.712.72 3.68.72 5.906 0 2.226-.242 4.2-.72 5.93-.482 1.73-1.152 3.183-2.006 4.365-.86 1.182-1.883 2.078-3.064 2.694-1.184.617-2.465.926-3.836.926-1.548 0-2.97-.326-4.278-.976-1.304-.65-2.574-1.645-3.807-2.978h-.26l-.808 3.492h-2.53zm3.34-7.19c1.308 1.712 2.595 2.978 3.855 3.8 1.255.822 2.61 1.23 4.056 1.23 2.17 0 3.867-.958 5.094-2.873 1.224-1.917 1.837-4.723 1.837-8.422 0-3.73-.612-6.554-1.836-8.473-1.227-1.917-2.924-2.875-5.093-2.875-2.653 0-5.29 1.697-7.91 5.082v12.53zM285.75 101.5c2.33 3.113 5.03 4.67 8.115 4.67 1.677 0 3.022-.462 4.032-1.384 1.01-.925 1.516-2.106 1.516-3.544 0-.82-.16-1.496-.465-2.026-.31-.533-.762-.994-1.36-1.39-.602-.392-1.327-.75-2.18-1.077-.86-.326-1.832-.693-2.93-1.106-1.37-.51-2.568-1-3.596-1.463-1.025-.46-1.89-.98-2.59-1.564-.704-.58-1.223-1.24-1.568-1.975-.344-.734-.515-1.616-.515-2.645 0-1.024.21-1.975.62-2.85.41-.87.98-1.623 1.718-2.257.735-.635 1.64-1.132 2.72-1.49 1.078-.36 2.284-.54 3.624-.54 3.554 0 6.53 1.662 8.932 4.978l-2.262 1.644c-1.024-1.368-2.113-2.38-3.257-3.027-1.148-.652-2.476-.977-3.982-.977-1.47 0-2.642.41-3.516 1.23-.878.82-1.307 1.878-1.307 3.177 0 .716.157 1.313.486 1.792.32.48.786.9 1.384 1.257.6.36 1.338.71 2.207 1.05.877.34 1.876.72 3.007 1.126 1.333.514 2.506 1.01 3.516 1.486 1.01.478 1.85 1.018 2.518 1.616.666.6 1.17 1.28 1.513 2.05.34.767.51 1.682.51 2.742 0 1.127-.21 2.16-.64 3.1-.426.938-1.042 1.75-1.846 2.433-.805.684-1.773 1.213-2.9 1.588-1.135.372-2.382.564-3.753.564-2.12 0-4-.43-5.645-1.285-1.643-.854-3.133-2.19-4.465-4.006l2.36-1.896zM327.24 101.703c-1.2 2.43-2.594 4.204-4.185 5.315-1.59 1.115-3.567 1.67-5.932 1.67-1.677 0-3.188-.318-4.54-.95-1.355-.633-2.5-1.548-3.44-2.75-.942-1.198-1.67-2.634-2.182-4.31-.517-1.678-.772-3.578-.772-5.7 0-2.225.266-4.212.796-5.956.528-1.747 1.265-3.23 2.208-4.445.942-1.213 2.077-2.137 3.42-2.772 1.33-.63 2.803-.948 4.413-.948 3.25 0 5.738 1.094 7.472 3.285 1.726 2.192 2.592 5.427 2.592 9.704v.873h-17.77c.036 3.714.73 6.534 2.085 8.46 1.36 1.926 3.326 2.886 5.902 2.886 1.75 0 3.206-.443 4.37-1.333 1.17-.89 2.23-2.326 3.195-4.314l2.37 1.283zm-3.132-9.292c-.07-2.91-.73-5.128-1.984-6.647-1.255-1.526-2.945-2.287-5.077-2.287-2.13 0-3.88.76-5.252 2.287-1.38 1.52-2.2 3.737-2.476 6.648h14.788zM333.246 81.37h3.135v4.674h.307c.924-1.78 2.003-3.082 3.234-3.903 1.235-.822 2.726-1.23 4.472-1.23h.153v3.078h-.412c-1.883 0-3.45.568-4.7 1.695-1.25 1.132-2.266 2.98-3.052 5.546v16.996h-3.134V81.37zM347.316 81.37h3.128l7.91 23.002 7.75-23h3.182l-9.34 26.854h-3.288l-9.342-26.855zM389.004 108.226c-.134-.617-.246-1.215-.332-1.797-.084-.583-.144-1.165-.182-1.746-1.468 1.37-2.95 2.386-4.44 3.055-1.486.665-3.054.998-4.693.998-2.227 0-3.99-.676-5.293-2.028-1.298-1.352-1.95-3.073-1.95-5.16 0-1.542.326-2.894.975-4.055.65-1.164 1.652-2.175 3.006-3.03 1.347-.856 3.06-1.594 5.13-2.208 2.07-.618 4.51-1.182 7.318-1.695v-2.617c0-1.3-.52-2.363-1.563-3.183-1.044-.82-2.488-1.235-4.338-1.235-2.88 0-5.106 1.438-6.673 4.316l-2.47-1.44c1.062-1.846 2.337-3.226 3.824-4.132 1.49-.907 3.397-1.36 5.73-1.36 1.262 0 2.425.18 3.486.538 1.067.358 1.972.858 2.722 1.49.755.634 1.345 1.378 1.774 2.233.424.858.64 1.78.64 2.775v16.686c0 .72.155 1.92.46 3.596h-3.132zm-.513-15.148c-2.267.512-4.23 1.018-5.897 1.516-1.67.497-3.04 1.05-4.125 1.666-1.08.618-1.892 1.335-2.422 2.158-.533.82-.796 1.798-.796 2.926 0 1.506.393 2.68 1.185 3.515.786.842 1.89 1.26 3.296 1.26 1.48 0 2.915-.396 4.303-1.182 1.395-.787 2.88-1.986 4.458-3.594v-8.266zM403.488 103.148c0 2.017.974 3.022 2.927 3.022.375 0 .795-.037 1.255-.112.463-.08.982-.194 1.564-.35v2.568c-.582.17-1.18.3-1.797.387-.616.082-1.21.126-1.792.126-1.852 0-3.194-.47-4.033-1.413-.84-.94-1.26-2.39-1.26-4.338V83.987h-4.005V81.37h4.005v-7.96h3.135v7.96h5.595v2.618h-5.595v19.16zM411.496 94.772c0-2.19.266-4.14.795-5.852.53-1.713 1.284-3.157 2.26-4.342.976-1.18 2.13-2.088 3.466-2.72 1.336-.633 2.824-.95 4.47-.95 1.64 0 3.13.317 4.465.95 1.336.632 2.493 1.54 3.468 2.72.975 1.185 1.73 2.63 2.26 4.342.53 1.712.793 3.662.793 5.852 0 2.192-.262 4.143-.793 5.853-.53 1.71-1.284 3.166-2.26 4.364-.974 1.2-2.13 2.116-3.466 2.75-1.334.63-2.824.948-4.464.948-1.646 0-3.134-.317-4.47-.95-1.337-.632-2.49-1.547-3.467-2.75-.976-1.197-1.728-2.65-2.26-4.363-.528-1.71-.794-3.66-.794-5.853zm3.134 0c0 3.663.7 6.464 2.11 8.397 1.408 1.932 3.31 2.897 5.72 2.897 2.4 0 4.298-.965 5.688-2.898 1.39-1.934 2.087-4.735 2.087-8.398 0-3.66-.698-6.452-2.087-8.37-1.39-1.917-3.29-2.876-5.69-2.876-2.407 0-4.31.96-5.718 2.876-1.41 1.917-2.11 4.71-2.11 8.37zM439.683 81.37h3.13v4.674h.31c.925-1.78 2.004-3.082 3.235-3.903 1.23-.822 2.72-1.23 4.464-1.23h.154v3.078h-.41c-1.882 0-3.445.568-4.697 1.695-1.25 1.132-2.27 2.98-3.057 5.546v16.996h-3.13V81.37zM455.448 71.152h3.853v4.52h-3.852v-4.52zm.358 10.22h3.134v26.854h-3.134V81.37zM465.354 94.772c0-2.19.263-4.14.796-5.852.533-1.713 1.285-3.157 2.262-4.342.975-1.18 2.132-2.088 3.465-2.72 1.337-.633 2.828-.95 4.465-.95 1.643 0 3.134.317 4.468.95 1.335.632 2.492 1.54 3.467 2.72.977 1.185 1.73 2.63 2.256 4.342.533 1.712.802 3.662.802 5.852 0 2.192-.27 4.143-.802 5.853-.528 1.71-1.28 3.166-2.256 4.364-.975 1.2-2.132 2.116-3.467 2.75-1.334.63-2.825.948-4.468.948-1.637 0-3.13-.317-4.465-.95-1.333-.632-2.49-1.547-3.465-2.75-.977-1.197-1.73-2.65-2.262-4.363-.533-1.71-.796-3.66-.796-5.853zm3.132 0c0 3.663.706 6.464 2.116 8.397 1.403 1.932 3.313 2.897 5.716 2.897 2.406 0 4.302-.965 5.692-2.898 1.393-1.934 2.086-4.735 2.086-8.398 0-3.66-.693-6.452-2.086-8.37-1.39-1.917-3.286-2.876-5.692-2.876-2.404 0-4.314.96-5.716 2.876-1.41 1.917-2.116 4.71-2.116 8.37z" fill="#016cbc"/><path d="M237.56 158.503l10.225 25.977 5.552-19.392c.448-1.6.668-2.832.668-3.702 0-.607-.212-1.082-.636-1.426-.426-.342-1.215-.516-2.366-.516-.205 0-.403-.01-.61-.03l.274-.91h10.652l-.303.91c-1.112-.02-1.932.093-2.458.335-.772.34-1.346.787-1.73 1.334-.506.768-1.032 2.105-1.578 4.006l-7.8 27.314h-.88l-11.015-27.95-5.888 20.634c-.426 1.58-.64 2.784-.64 3.613 0 .608.198 1.073.59 1.397.397.324 1.34.534 2.84.638l-.244.91h-10.41l.333-.91c1.32-.02 2.195-.13 2.643-.334.668-.303 1.165-.687 1.486-1.15.465-.71.993-2.097 1.578-4.162l6.555-23.033c-.628-.97-1.308-1.638-2.033-2.002-.73-.365-1.853-.576-3.368-.636l.275-.91h8.282v-.004zM266.844 169.52l-4.826 17.147c-.325 1.15-.485 1.84-.485 2.063 0 .262.076.475.227.636.15.16.332.243.532.243.26 0 .555-.133.88-.395.928-.73 1.87-1.77 2.822-3.127l.85.578c-1.115 1.678-2.42 3.104-3.914 4.278-1.094.85-2.145 1.275-3.158 1.275-.665 0-1.214-.2-1.64-.594-.42-.393-.635-.894-.635-1.502 0-.607.202-1.61.61-3.004l3.183-10.955c.505-1.78.76-2.905.76-3.37 0-.344-.128-.63-.38-.863-.252-.233-.59-.35-1.016-.35-.365 0-1.112.09-2.246.272v-.94l8.436-1.394zm-.304-9.683c.688 0 1.265.238 1.732.712.465.477.695 1.046.695 1.715 0 .668-.234 1.246-.71 1.73-.477.486-1.046.728-1.717.728-.665 0-1.245-.242-1.73-.727-.484-.485-.727-1.063-.727-1.73 0-.67.24-1.24.71-1.717.476-.475 1.06-.713 1.747-.713zM287.33 186.33c-1.7 2.026-3.414 3.513-5.143 4.46-1.73.952-3.556 1.43-5.477 1.43-2.31 0-4.106-.648-5.403-1.945-1.294-1.294-1.94-3.043-1.94-5.25 0-2.488.696-4.938 2.093-7.357 1.397-2.42 3.266-4.38 5.615-5.89 2.345-1.504 4.653-2.257 6.92-2.257 1.78 0 3.11.376 3.988 1.123.882.748 1.323 1.658 1.323 2.73 0 1.013-.316 1.87-.94 2.58-.446.565-1.003.85-1.67.85-.506 0-.926-.168-1.26-.503-.334-.333-.5-.743-.5-1.228 0-.303.06-.588.18-.85.123-.262.374-.577.76-.94.385-.364.618-.627.7-.79.078-.162.12-.334.12-.515 0-.345-.153-.628-.455-.85-.487-.325-1.154-.485-2.002-.485-1.6 0-3.183.56-4.75 1.684-1.568 1.122-2.91 2.715-4.022 4.78-1.335 2.51-2.002 5.018-2.002 7.527 0 1.66.476 2.973 1.426 3.943.95.972 2.235 1.456 3.855 1.456 1.255 0 2.5-.313 3.733-.94 1.233-.625 2.608-1.76 4.128-3.397l.724.636zM312.46 169.52l-4.764 16.568-.546 2.244c-.042.205-.06.378-.06.518 0 .264.08.497.24.698.122.142.286.213.487.213.2 0 .476-.132.818-.394.63-.465 1.48-1.436 2.55-2.913l.822.576c-1.115 1.7-2.27 2.99-3.46 3.87-1.195.88-2.298 1.32-3.306 1.32-.69 0-1.21-.172-1.565-.515-.355-.344-.53-.85-.53-1.517 0-.81.18-1.86.546-3.158l.516-1.85c-2.145 2.792-4.106 4.745-5.886 5.855-1.297.79-2.56 1.185-3.793 1.185-1.192 0-2.222-.492-3.08-1.47-.86-.983-1.29-2.334-1.29-4.053 0-2.59.772-5.327 2.32-8.208 1.55-2.886 3.524-5.186 5.933-6.907 1.86-1.376 3.62-2.062 5.282-2.062 1.01 0 1.844.263 2.502.787.66.528 1.158 1.397 1.503 2.612l.882-2.794 3.88-.606zm-8.71 1.272c-1.03 0-2.133.497-3.308 1.487-1.678 1.377-3.166 3.425-4.46 6.145-1.297 2.72-1.943 5.185-1.943 7.39 0 1.093.278 1.962.834 2.61.555.648 1.198.97 1.927.97 1.76 0 3.684-1.314 5.766-3.944 2.792-3.478 4.19-7.05 4.19-10.71 0-1.376-.27-2.377-.807-3.006-.534-.627-1.268-.942-2.2-.942zM315.343 170.915l8.44-1.395-3.523 11.895c2.85-4.875 5.44-8.285 7.77-10.227 1.313-1.112 2.384-1.67 3.215-1.67.546 0 .97.164 1.275.486.303.325.453.788.453 1.395 0 1.074-.272 2.095-.82 3.067-.382.727-.95 1.09-1.697 1.09-.362 0-.682-.12-.957-.363-.273-.242-.438-.618-.5-1.123-.02-.3-.09-.505-.213-.605-.142-.124-.292-.184-.453-.184-.286 0-.547.06-.79.185-.428.222-1.075.86-1.94 1.91-1.358 1.6-2.828 3.663-4.405 6.19-.67 1.075-1.256 2.288-1.76 3.644-.67 1.86-1.052 2.984-1.155 3.365l-.787 3.066h-3.734l4.52-15.173c.507-1.76.76-3.014.76-3.762 0-.285-.12-.527-.364-.73-.325-.26-.748-.395-1.277-.395-.34 0-.97.073-1.877.212l-.183-.877zM354.465 169.52l-4.766 16.568-.547 2.244c-.042.205-.06.378-.06.518 0 .264.08.497.242.698.12.142.283.213.486.213s.477-.132.82-.394c.627-.465 1.48-1.436 2.55-2.913l.82.576c-1.114 1.7-2.27 2.99-3.46 3.87-1.194.88-2.3 1.32-3.306 1.32-.69 0-1.21-.172-1.566-.515-.354-.344-.53-.85-.53-1.517 0-.81.18-1.86.546-3.158l.515-1.85c-2.146 2.792-4.106 4.745-5.887 5.855-1.295.79-2.558 1.185-3.792 1.185-1.193 0-2.222-.492-3.082-1.47-.858-.983-1.288-2.334-1.288-4.053 0-2.59.77-5.327 2.32-8.208 1.55-2.886 3.525-5.186 5.935-6.907 1.86-1.376 3.62-2.062 5.28-2.062 1.012 0 1.846.263 2.502.787.66.528 1.16 1.397 1.504 2.612l.883-2.794 3.882-.606zm-8.71 1.272c-1.03 0-2.133.497-3.308 1.487-1.68 1.377-3.167 3.425-4.46 6.145-1.296 2.72-1.944 5.185-1.944 7.39 0 1.093.277 1.962.833 2.61.556.648 1.2.97 1.93.97 1.757 0 3.682-1.314 5.765-3.944 2.792-3.478 4.19-7.05 4.19-10.71 0-1.376-.27-2.377-.808-3.006-.533-.627-1.268-.942-2.198-.942zM380.807 171.036l-.7 2.55h-4.097c.305.888.455 1.708.455 2.456 0 2.167-.908 4.087-2.732 5.766-1.84 1.66-4.357 2.58-7.555 2.762-1.742.526-3.037 1.155-3.883 1.882-.323.243-.483.506-.483.79 0 .323.144.62.436.895.293.273 1.028.542 2.202.805l4.764 1.122c2.61.608 4.34 1.336 5.187 2.186.835.868 1.246 1.86 1.246 2.974 0 1.334-.49 2.56-1.473 3.672-.98 1.112-2.422 1.983-4.32 2.61-1.906.625-4 .94-6.284.94-2.027 0-3.87-.242-5.527-.728-1.657-.485-2.847-1.135-3.566-1.943-.716-.81-1.077-1.65-1.077-2.518 0-.688.233-1.41.7-2.17.465-.76 1.038-1.38 1.73-1.866.442-.322 1.686-1.062 3.733-2.215-.75-.587-1.125-1.235-1.125-1.943 0-.647.333-1.335 1-2.062.672-.73 2.066-1.536 4.187-2.43-1.8-.342-3.218-1.09-4.264-2.245-1.04-1.152-1.56-2.437-1.56-3.852 0-2.306 1.012-4.375 3.035-6.206 2.023-1.832 4.725-2.746 8.104-2.746 1.21 0 2.208.126 2.984.378.78.254 1.547.633 2.294 1.14l6.59-.002zm-20.184 20.606c-1.314.608-2.31 1.378-2.988 2.322-.678.94-1.016 1.865-1.016 2.777 0 1.073.488 1.962 1.457 2.67 1.415 1.012 3.467 1.517 6.158 1.517 2.33 0 4.32-.396 5.98-1.182 1.66-.79 2.488-1.812 2.488-3.065 0-.648-.31-1.256-.926-1.823-.618-.566-1.806-1.03-3.565-1.394-.952-.184-3.48-.79-7.59-1.82zm11.716-16.753c0-1.314-.366-2.347-1.095-3.097-.725-.75-1.677-1.122-2.852-1.122-1.84 0-3.36.925-4.55 2.777-1.194 1.85-1.79 3.78-1.79 5.782 0 1.252.38 2.28 1.134 3.078.76.8 1.687 1.2 2.78 1.2.87 0 1.71-.238 2.52-.714.807-.475 1.485-1.127 2.034-1.957.547-.83.983-1.886 1.32-3.17.33-1.286.5-2.21.5-2.778z" fill="#3fbfad"/><path d="M402.05 170.125l-4.248 14.567c-.626 2.165-.94 3.53-.94 4.096 0 .285.05.497.15.64.1.14.24.21.424.21.286 0 .593-.125.93-.378.33-.252 1.163-1.26 2.498-3.02l.76.576c-1.297 2.024-2.62 3.52-3.978 4.492-.888.606-1.75.91-2.577.91-.65 0-1.15-.175-1.502-.53-.355-.354-.533-.815-.533-1.38 0-.568.104-1.304.306-2.217.263-1.193 1.01-3.812 2.247-7.857-2.774 4.55-5.087 7.687-6.953 9.407-1.86 1.72-3.59 2.58-5.187 2.58-.75 0-1.387-.258-1.913-.774-.525-.516-.79-1.178-.79-1.987 0-1.215.356-3.088 1.062-5.616l2.156-7.56c.505-1.798.758-2.92.758-3.365 0-.184-.064-.344-.197-.488-.13-.14-.276-.21-.44-.21-.344 0-.687.118-1.028.36-.347.244-1.125 1.146-2.34 2.702l-.758-.515c1.235-1.903 2.53-3.297 3.885-4.19 1.052-.707 2.013-1.06 2.884-1.06.61 0 1.104.19 1.488.575.383.384.575.88.575 1.486 0 .894-.323 2.458-.97 4.704l-2.306 7.893c-.63 2.164-.942 3.532-.942 4.096 0 .303.102.553.306.746.202.19.473.286.816.286.53 0 1.224-.267 2.093-.803.872-.536 2.024-1.732 3.46-3.582 1.438-1.85 2.624-3.585 3.57-5.203.937-1.62 1.936-4.198 2.987-7.74l.546-1.85h3.7v-.002zM425.753 169.52l-4.763 16.568-.55 2.244c-.035.205-.056.378-.056.518 0 .264.077.497.243.698.12.142.28.213.485.213.202 0 .473-.132.816-.394.63-.465 1.478-1.436 2.55-2.913l.82.576c-1.11 1.7-2.268 2.99-3.46 3.87-1.193.88-2.298 1.32-3.307 1.32-.687 0-1.21-.172-1.562-.515-.356-.344-.532-.85-.532-1.517 0-.81.186-1.86.545-3.158l.518-1.85c-2.145 2.792-4.106 4.745-5.885 5.855-1.297.79-2.562 1.185-3.796 1.185-1.194 0-2.22-.492-3.08-1.47-.86-.983-1.29-2.334-1.29-4.053 0-2.59.775-5.327 2.322-8.208 1.547-2.886 3.523-5.186 5.93-6.907 1.863-1.376 3.622-2.062 5.28-2.062 1.015 0 1.847.263 2.505.787.66.528 1.16 1.397 1.504 2.612l.878-2.794 3.885-.606zm-8.71 1.272c-1.03 0-2.134.497-3.31 1.487-1.677 1.377-3.166 3.425-4.46 6.145-1.293 2.72-1.94 5.185-1.94 7.39 0 1.093.28 1.962.833 2.61.556.648 1.2.97 1.93.97 1.76 0 3.68-1.314 5.765-3.944 2.79-3.478 4.187-7.05 4.187-10.71 0-1.376-.27-2.377-.805-3.006-.534-.627-1.27-.942-2.198-.942z" fill="#3fbfad"/></svg>