<svg xmlns="http://www.w3.org/2000/svg" width="499" height="288.583"><g fill="#654f2d"><path d="M22.352 244.722c0 21.752 8.172 37.615 19.945 37.615 10.335 0 15.983-9.98 15.983-31.725 0-24.15-8.655-37.488-18.985-37.488-9.256 0-16.943 10.566-16.943 31.598zm58.277 2.042c0 25.715-17.544 41.82-40.616 41.82C15.744 288.583 0 270.92 0 248.805c0-19.463 12.98-41.933 41.695-41.933 21.993 0 38.934 16.103 38.934 39.89M182.21 232.225c-3.604-15.863-13.575-19.1-21.386-19.1-12.74 0-23.31 12.612-23.31 33.162 0 18.623 7.93 36.05 24.508 36.05 3.01 0 4.93-.96 4.93-6.61v-11.536c0-8.05-.48-8.897-13.098-9.857v-5.406h40.135v5.406c-6.132 1.087-6.61 1.444-6.61 9.858v8.65c0 4.326.115 8.168.72 10.934-7.448 2.042-17.184 4.81-27.158 4.81-28.718 0-45.777-15.507-45.777-40.014 0-27.515 21.863-41.697 47.46-41.697 9.255 0 18.746 2.047 22.95 3.122.36 4.09.962 10.336 1.92 21.873l-5.285.357M238.74 227.9c0-12.976-.957-13.815-9.01-14.534v-4.693h56.96c.12 2.04.71 10.818 1.32 19.83l-5.29.357c-1.202-5.884-2.525-9.248-4.45-11.175-1.915-2.042-5.887-2.76-12.254-2.76h-2.04c-4.57 0-4.803 0-4.803 4.21v23.183h6.005c10.334 0 10.698-.72 11.9-9.846h5.282v28.354h-5.282c-1.202-10.57-1.566-11.3-11.9-11.3h-6.005v19.588c0 6.252.233 9.254 2.395 10.335 1.927.96 4.693 1.08 8.42 1.08 4.803 0 10.094-.718 12.732-3.6 2.044-2.168 4.09-6.614 5.89-12.383l5.287.84c-.61 5.895-3.13 18.146-4.207 21.395h-61.163v-4.687c9.256-.72 10.214-1.564 10.214-14.54V227.9M333.72 262.023c2.523 6.976 9.61 20.314 21.387 20.314 6.25 0 11.06-4.09 11.06-11.9 0-7.086-4.694-11.054-12.017-14.413l-1.814-.85c-9.844-4.562-21.023-10.808-21.023-23.668 0-13.58 9.856-24.633 28.723-24.633 3.725 0 7.565.482 11.046 1.443 2.768.72 4.697 1.196 6.25 1.68.48 4.687 1.324 10.576 2.65 18.75l-5.29.84c-2.638-7.932-6.846-16.462-16.34-16.462-6.13 0-10.45 4.682-10.45 10.45 0 6.01 4.68 9.49 12.37 12.976l2.644 1.207c11.052 5.044 20.55 11.17 20.55 25.232 0 14.78-11.904 25.593-30.52 25.593-4.81 0-9.74-.96-12.978-2.042-3.607-1.2-6.13-2.167-7.565-2.886-.972-5.522-2.53-12.015-3.972-20.06l5.29-1.57M444.19 256.024h15.378l-7.565-22.96h-.362l-7.45 22.96zm15.266 26.07l3.604-.482c4.444-.604 4.688-1.8 3.125-6.125l-4.326-12.257h-19.713l-3.6 11.532c-1.562 5.165-1.562 6.373 3.962 6.97l3.492.363v4.687h-28v-4.687c6.123-.845 7.93-1.323 11.892-11.417l24.035-62.12 8.29-1.685 8.164 22.712c5.174 14.292 10.34 28.475 14.906 40.73 3.84 10.457 6.004 11.06 11.888 11.78v4.687h-37.722v-4.687M375.567 180.117H499v-47.643H375.567v47.643zM375.567 45.162H499V-.125H375.567v45.287zM375.567 112.447H499V65.19H375.567v47.257zM90.894 1.05c-32.963 0-61.78 17.704-77.492 44.112h154.982C152.67 18.754 123.856 1.05 90.894 1.05M90.894 181.29c34.88 0 65.107-19.83 80.09-48.816H10.803c14.98 28.985 45.21 48.816 80.09 48.816M181.013 91.168c0-9.032-1.345-17.75-3.818-25.977H4.59C2.12 73.42.774 82.137.774 91.17c0 7.333.898 14.453 2.55 21.28h175.14c1.653-6.827 2.55-13.947 2.55-21.28M276.136 181.29c34.885 0 65.11-19.83 80.093-48.816H196.05c14.982 28.985 45.21 48.816 80.086 48.816M276.136 1.05c-32.96 0-61.774 17.704-77.487 44.112h154.98C337.915 18.754 309.103 1.05 276.135 1.05M362.442 65.19H189.838c-2.473 8.228-3.817 16.946-3.817 25.978 0 7.333.898 14.453 2.55 21.28h175.14c1.65-6.827 2.548-13.947 2.548-21.28 0-9.032-1.342-17.75-3.816-25.977"/></g></svg>