<svg xmlns="http://www.w3.org/2000/svg" xmlns:xlink="http://www.w3.org/1999/xlink" width="400" height="224.309"><defs><radialGradient id="a" spreadMethod="pad" gradientTransform="matrix(7.3 0 0 -7.3 266.4 305.9)" gradientUnits="userSpaceOnUse" r="1" cy="0" cx="0" fy="0" fx="0"><stop offset="0" stop-color="#e3b710"/><stop offset=".879" stop-color="#fff"/><stop offset=".879" stop-color="#fff"/><stop offset="1" stop-color="#fff"/></radialGradient><radialGradient xlink:href="#a" id="b" gradientUnits="userSpaceOnUse" gradientTransform="matrix(22.4 0 0 22.4 192.5 461.6)" spreadMethod="pad" cx="0" cy="0" fx="0" fy="0" r="1"/></defs><path d="M12.624 119.15v11.455h2.01c1.138 0 2-.01 2.59-.03.588-.023 1.338-.134 2.253-.335.915-.204 1.594-.485 2.04-.852.447-.368.843-.915 1.19-1.644.345-.733.518-1.647.518-2.74 0-1.14-.164-2.084-.488-2.834-.328-.754-.71-1.332-1.16-1.737-.447-.408-1.105-.7-1.976-.884-.874-.186-1.628-.297-2.255-.337-.63-.04-1.533-.062-2.71-.062h-2.01zM.684 155.464v-45.937h18.274c5.16 0 9.232 1.25 12.217 3.748 2.985 2.496 4.478 6.285 4.478 11.36 0 10.4-5.423 15.596-16.27 15.596h-6.76v15.233H.684zM52.892 118.665v11.45h1.158c5.525 0 8.284-1.906 8.284-5.722 0-3.82-2.76-5.728-8.284-5.728h-1.158zm11.818 17.97l14.442 18.827H64.284l-11.27-17.67h-.122v17.67h-11.94v-45.937h17.85c4.79 0 8.652 1.18 11.575 3.538 2.923 2.35 4.388 5.886 4.388 10.595 0 3.294-.887 6.136-2.65 8.53-1.77 2.4-4.234 3.882-7.405 4.447M114.606 123.233c-2.558-2.435-5.605-3.655-9.14-3.655-3.53 0-6.575 1.22-9.136 3.655-2.56 2.435-3.838 5.26-3.838 8.47 0 3.9 1.258 7.16 3.776 9.776 2.518 2.62 5.586 3.93 9.198 3.93 3.616 0 6.684-1.31 9.202-3.93 2.518-2.618 3.776-5.878 3.776-9.777 0-3.21-1.28-6.035-3.838-8.47m-21.564-12.276c3.86-1.965 8-2.954 12.424-2.954 4.428 0 8.572.99 12.43 2.954 3.857 1.97 6.987 4.783 9.385 8.44 2.392 3.654 3.594 7.74 3.594 12.247 0 7.43-2.388 13.512-7.16 18.242-4.773 4.73-10.854 7.098-18.248 7.098-7.39 0-13.47-2.367-18.242-7.098-4.774-4.73-7.16-10.81-7.16-18.242 0-4.508 1.196-8.593 3.594-12.248 2.398-3.656 5.522-6.468 9.384-8.44M158.53 129.814h23.697c-.077 3.98-.417 7.35-.998 10.11-.594 2.766-1.824 5.445-3.693 8.043-4.3 6.01-10.62 9.017-18.944 9.017-7.23 0-13.12-2.244-17.668-6.73-4.548-4.49-6.822-10.33-6.822-17.52 0-7.428 2.292-13.41 6.884-17.937 4.588-4.53 10.598-6.794 18.032-6.794 4.79 0 8.954 1.078 12.486 3.23 3.538 2.155 6.278 5.36 8.225 9.624l-11.33 4.752c-.853-2.275-2.132-4.06-3.837-5.362-1.706-1.3-3.736-1.95-6.094-1.95-3.696 0-6.61 1.462-8.742 4.388-2.132 2.923-3.198 6.294-3.198 10.113 0 3.818 1.085 7.165 3.257 10.05 2.175 2.883 5.13 4.326 8.868 4.326 2.68 0 4.89-.69 6.637-2.073 1.746-1.378 2.74-3.35 2.988-5.908h-9.75v-9.38zM199.653 118.665v11.45h1.156c5.523 0 8.29-1.906 8.29-5.722 0-3.82-2.767-5.728-8.29-5.728h-1.157zm11.82 17.97l14.435 18.827h-14.86l-11.27-17.67h-.125v17.67h-11.94v-45.937h17.848c4.793 0 8.653 1.18 11.576 3.538 2.926 2.35 4.387 5.886 4.387 10.595 0 3.294-.88 6.136-2.65 8.53-1.768 2.4-4.234 3.882-7.4 4.447M255.277 119.64H241.08v7.675h13.464v10.113H241.08v7.92h14.197v10.116H229.14v-45.938h26.137v10.114zM292.62 112.084l-4.75 9.26c-2.436-2.03-5.08-3.044-7.924-3.044-1.257 0-2.425.343-3.497 1.036-1.08.69-1.617 1.622-1.617 2.802 0 .816.333 1.542 1.004 2.194.67.65 1.3 1.094 1.888 1.335.59.247 1.393.53 2.407.856l3.046.917c3.572 1.054 6.356 2.55 8.346 4.478 1.99 1.928 2.985 4.62 2.985 8.067 0 5.568-1.583 9.687-4.753 12.37-3.408 2.885-7.76 4.325-13.037 4.325-5.768 0-11.15-1.746-16.144-5.24l5.117-9.622c3.615 3.164 7.15 4.746 10.6 4.746 1.543 0 2.893-.393 4.052-1.187 1.16-.79 1.736-1.937 1.736-3.442 0-2.07-1.93-3.674-5.786-4.81-.12-.038-.61-.183-1.46-.427-2.198-.61-3.922-1.178-5.18-1.71-1.26-.524-2.518-1.266-3.78-2.22-1.257-.952-2.153-2.164-2.675-3.625-.532-1.462-.795-3.27-.795-5.423 0-4.63 1.48-8.352 4.446-11.18 2.965-2.823 6.765-4.232 11.394-4.232 2.314 0 4.783.346 7.4 1.032 2.623.695 4.947 1.61 6.977 2.744M312.118 155.464h-11.94v-45.937h11.94v45.937zM328.076 109.525l11.087 27.9 11.148-27.9h12.978l-19.617 45.937h-9.26l-19.31-45.937h12.976zM380.833 138.342l-4.873-14.622h-.123l-4.935 14.622h9.93zm3.232 9.14h-16.45l-3.17 7.98h-12.67l17.666-45.936h13.037l17.303 45.937h-12.733l-2.982-7.98zM58.454 25.773c-4.33-4.122-9.486-6.186-15.465-6.186-5.98 0-11.133 2.064-15.465 6.186-4.33 4.125-6.495 8.905-6.495 14.33 0 6.597 2.132 12.116 6.393 16.547 4.26 4.434 9.448 6.65 15.566 6.65 6.117 0 11.305-2.216 15.566-6.65 4.26-4.43 6.393-9.95 6.393-16.547 0-5.425-2.167-10.205-6.496-14.33M21.957 5C28.49 1.67 35.5 0 42.99 0c7.49 0 14.5 1.67 21.03 5 6.53 3.333 11.82 8.092 15.878 14.278 4.054 6.186 6.08 13.095 6.08 20.72 0 12.582-4.035 22.875-12.11 30.88-8.078 8.006-18.37 12.008-30.88 12.008-12.506 0-22.8-4.002-30.876-12.007C4.038 62.872 0 52.58 0 39.997c0-7.625 2.027-14.534 6.084-20.72 4.05-6.186 9.344-10.945 15.873-14.28M115.617 18.78v19.38h3.402c1.924 0 3.382-.012 4.38-.05.995-.033 2.268-.218 3.813-.567 1.548-.34 2.698-.82 3.455-1.443.757-.618 1.427-1.545 2.008-2.78.584-1.237.88-2.785.88-4.642 0-1.922-.277-3.52-.824-4.795-.553-1.267-1.205-2.247-1.96-2.94-.756-.682-1.875-1.182-3.352-1.49-1.477-.31-2.75-.5-3.813-.57-1.066-.065-2.595-.102-4.588-.102h-3.403zM95.41 80.227V2.494h30.93c8.725 0 15.615 2.114 20.67 6.34 5.05 4.225 7.576 10.636 7.576 19.226 0 17.597-9.173 26.394-27.524 26.394h-11.445v25.772H95.41zM196.542 19.608v60.617h-20.205V19.608h-16.7V2.493h53.606v17.115h-16.7zM242.834 80.226h-20.21V2.494h20.21v77.732zM311.592 4.35v24.226c-2.06-2.75-4.657-4.86-7.784-6.34-3.124-1.474-6.442-2.216-9.946-2.216-6.12 0-11.102 2.06-14.95 6.183-3.85 4.125-5.77 9.245-5.77 15.363 0 6.186 1.94 11.256 5.82 15.205 3.88 3.956 8.952 5.93 15.21 5.93 3.3 0 6.494-.735 9.587-2.215 3.092-1.48 5.703-3.488 7.832-6.03V78.68c-7.833 2.405-13.778 3.607-17.832 3.607-11.07 0-20.792-3.816-29.178-11.44-8.315-7.494-12.474-17.286-12.474-29.383 0-11.136 3.813-20.62 11.445-28.455 3.847-3.92 8.383-6.993 13.605-9.227C282.383 1.553 287.71.43 293.138.43c5.98 0 12.132 1.307 18.454 3.92M366.232 51.258l-8.25-24.744h-.204l-8.35 24.744h16.804zm5.463 15.465H343.86l-5.36 13.503h-21.444l29.898-77.732h22.062l29.276 77.732h-21.545l-5.052-13.503z" fill="#033530"/><path d="M400 97.655H.81v-8.68H400v8.68zM400 224.31H.81v-18.04H400v18.04z" fill="#e3b710"/><path d="M6.693 177.26v5.606h.986c.555 0 .975-.003 1.265-.013.288-.012.656-.068 1.104-.166.447-.096.777-.235.997-.418.22-.18.41-.445.584-.807.167-.358.25-.803.25-1.338 0-.56-.076-1.02-.234-1.39-.164-.368-.35-.65-.568-.85-.22-.195-.54-.343-.97-.43-.427-.092-.795-.145-1.104-.166-.31-.02-.75-.03-1.325-.03h-.987zM.85 195.03v-22.48h8.945c2.525 0 4.518.61 5.98 1.83 1.46 1.225 2.19 3.076 2.19 5.566 0 5.09-2.654 7.632-7.96 7.632H6.693v7.453H.85zM26.463 179.735v2.506h.06c1.012-1.806 2.662-2.712 4.95-2.712h1.04v5.216c-.593-.337-1.36-.507-2.296-.507-1.41 0-2.388.405-2.935 1.208-.547.804-.82 1.944-.82 3.415v6.17h-5.425v-15.295h5.426zM39.523 185.16h6.29c-.138-.713-.497-1.294-1.074-1.742-.576-.448-1.24-.67-1.997-.67-.813 0-1.518.206-2.102.623-.586.422-.956 1.015-1.117 1.79m11.33 2.565v.57h-11.42c0 2.267 1.134 3.397 3.4 3.397 1.173 0 2.038-.466 2.595-1.402h5.218c-.417 1.71-1.353 3.012-2.802 3.908-1.452.896-3.112 1.34-4.98 1.34-2.624 0-4.756-.716-6.397-2.146-1.64-1.43-2.46-3.43-2.46-5.99 0-2.53.78-4.522 2.34-5.983 1.563-1.463 3.602-2.192 6.127-2.192 2.645 0 4.703.76 6.173 2.28 1.47 1.523 2.206 3.594 2.206 6.217M64.958 180.125v4.59c-.973-.716-1.91-1.07-2.802-1.07-1.057 0-1.94.354-2.654 1.07-.717.715-1.076 1.602-1.076 2.655 0 1.09.36 1.993 1.076 2.698.713.704 1.628 1.06 2.744 1.06 1.05 0 1.955-.35 2.712-1.045v4.592c-1.155.578-2.425.865-3.82.865-2.3 0-4.266-.763-5.888-2.28-1.62-1.52-2.43-3.424-2.43-5.714 0-2.425.823-4.415 2.46-5.975 1.642-1.56 3.675-2.342 6.1-2.342 1.31 0 2.503.3 3.578.897M74.352 195.03h-5.426v-15.295h5.426v15.295zm-4.86-23.32c.596-.593 1.31-.892 2.147-.892.833 0 1.547.3 2.143.893.597.6.896 1.317.896 2.15 0 .835-.3 1.552-.897 2.15-.596.595-1.31.89-2.144.89-.838 0-1.552-.295-2.148-.89-.597-.598-.896-1.315-.896-2.15 0-.833.3-1.55.896-2.15M90.453 180.212l-1.817 3.46c-.936-.5-1.913-.747-2.923-.747-.398 0-.782.09-1.15.27-.367.175-.55.437-.55.774 0 .138.028.268.087.386.062.12.152.225.27.315.12.09.237.164.357.226.12.056.275.115.464.16.186.05.338.087.446.106l.448.074c.188.03.312.056.374.074 2.963.6 4.443 2.108 4.443 4.533 0 1.873-.71 3.288-2.13 4.252-1.422.964-3.12 1.446-5.087 1.446-2.206 0-4.264-.586-6.17-1.76l1.968-3.788c.597.42 1.302.78 2.117 1.09.813.306 1.54.46 2.176.46.417 0 .806-.098 1.16-.3.363-.194.54-.484.54-.864 0-.217-.053-.41-.165-.578-.108-.17-.293-.31-.55-.417-.26-.11-.503-.198-.732-.257-.23-.058-.55-.133-.97-.222-.417-.09-.745-.164-.983-.223-1.032-.277-1.857-.71-2.475-1.296-.615-.587-.924-1.496-.924-2.73 0-1.188.337-2.208 1.014-3.055s1.505-1.453 2.49-1.824c.983-.364 2.06-.547 3.235-.547 1.91 0 3.588.324 5.04.982M99.847 195.03H94.42v-15.295h5.427v15.295zm-4.86-23.32c.595-.593 1.31-.892 2.144-.892.838 0 1.552.3 2.148.893.596.6.896 1.317.896 2.15 0 .835-.3 1.552-.896 2.15-.596.595-1.31.89-2.147.89-.834 0-1.548-.295-2.144-.89-.596-.598-.896-1.315-.896-2.15 0-.833.3-1.55.896-2.15M116.604 172.964l-5.098 4.502-2.417-1.755 4.205-5.128 3.31 2.382zm-1.956 11.976c-.624-.67-1.474-1-2.55-1-1.07 0-1.92.33-2.545 1-.628.665-.94 1.484-.94 2.46 0 .992.312 1.81.94 2.46.624.648 1.474.967 2.546.967 1.074 0 1.924-.32 2.548-.968.627-.65.94-1.468.94-2.46 0-.976-.313-1.795-.94-2.46m-9.094-3.507c1.78-1.467 3.962-2.206 6.545-2.206 2.582 0 4.766.74 6.546 2.206 1.777 1.474 2.667 3.46 2.667 5.967 0 2.503-.89 4.486-2.667 5.948-1.78 1.458-3.964 2.194-6.547 2.194-2.563 0-4.74-.736-6.53-2.194-1.79-1.462-2.682-3.445-2.682-5.948 0-2.506.89-4.493 2.666-5.967M129.782 179.735v1.968h.06c1.11-1.646 2.743-2.475 4.89-2.475 1.97 0 3.418.563 4.354 1.684.933 1.122 1.403 2.68 1.403 4.666v9.452h-5.43v-8.451c0-.09-.006-.26-.015-.507-.01-.248-.03-.436-.06-.554-.03-.12-.073-.288-.132-.507-.062-.217-.13-.377-.21-.48-.08-.098-.186-.222-.312-.37-.13-.148-.274-.256-.432-.328-.16-.068-.35-.132-.568-.19-.217-.063-.458-.094-.714-.094-1.888 0-2.834 1.185-2.834 3.55v7.93h-5.425v-15.295h5.425zM171.675 173.088v7.008c-.593-.798-1.344-1.41-2.252-1.836-.902-.43-1.86-.643-2.874-.643-1.77 0-3.21.597-4.327 1.79-1.112 1.192-1.668 2.672-1.668 4.443 0 1.79.562 3.256 1.684 4.4 1.124 1.143 2.588 1.71 4.4 1.71.95 0 1.877-.21 2.773-.638.897-.43 1.65-1.007 2.262-1.746v7.008c-2.262.698-3.983 1.044-5.157 1.044-3.2 0-6.013-1.103-8.438-3.31-2.404-2.168-3.606-4.998-3.606-8.496 0-3.223 1.103-5.964 3.31-8.228 1.112-1.138 2.425-2.027 3.933-2.676 1.51-.643 3.052-.964 4.622-.964 1.73 0 3.506.377 5.335 1.134M186.39 184.94c-.623-.67-1.476-1-2.545-1-1.075 0-1.925.33-2.55 1-.63.664-.94 1.483-.94 2.46 0 .992.31 1.81.94 2.46.625.648 1.475.966 2.55.966 1.07 0 1.922-.318 2.546-.967.63-.65.944-1.47.944-2.46 0-.977-.315-1.796-.943-2.46m-9.092-3.507c1.78-1.468 3.96-2.206 6.547-2.206 2.583 0 4.765.738 6.545 2.206 1.776 1.474 2.666 3.46 2.666 5.967 0 2.502-.89 4.486-2.666 5.948-1.78 1.458-3.962 2.193-6.545 2.193-2.564 0-4.743-.734-6.532-2.192-1.79-1.462-2.685-3.446-2.685-5.948 0-2.506.89-4.493 2.67-5.967M201.524 179.735v1.907h.062c1.21-1.607 2.824-2.414 4.83-2.414 2.425 0 4.164.974 5.218 2.92.513-.933 1.242-1.653 2.178-2.16.933-.506 1.938-.76 3.01-.76 3.48 0 5.222 2.018 5.222 6.054v9.748h-5.43v-7.304c0-.495-.005-.853-.015-1.076-.013-.216-.053-.562-.12-1.044-.072-.473-.174-.83-.313-1.072-.14-.235-.362-.46-.674-.668-.306-.207-.677-.315-1.118-.315-.473 0-.88.097-1.22.285-.338.19-.597.408-.773.656-.183.25-.316.585-.405 1-.09.42-.145.78-.164 1.09-.02.305-.03.688-.03 1.146v7.304h-5.43v-7.304c0-.396-.003-.705-.012-.924-.008-.22-.033-.526-.076-.924-.04-.4-.108-.717-.207-.952-.096-.238-.232-.49-.402-.748-.167-.26-.405-.448-.7-.565-.298-.117-.638-.18-1.015-.18-.377 0-.714.063-1.013.18-.3.117-.532.306-.7.565-.17.257-.302.51-.4.748-.105.235-.173.553-.214.952-.037.398-.064.704-.074.924-.01.22-.016.528-.016.924v7.304h-5.426v-15.295h5.426zM237.293 184.94c-.627-.67-1.477-1-2.55-1-1.075 0-1.924.33-2.55 1-.63.664-.938 1.483-.938 2.46 0 .992.31 1.81.94 2.46.624.648 1.473.966 2.55.966 1.07 0 1.92-.318 2.548-.967.627-.65.94-1.47.94-2.46 0-.977-.313-1.796-.94-2.46m-5.86-5.206v1.73h.06c.476-.735 1.13-1.292 1.968-1.672.832-.373 1.72-.565 2.656-.565 2.224 0 4.072.806 5.53 2.416 1.462 1.61 2.19 3.538 2.19 5.788 0 2.244-.72 4.156-2.16 5.738-1.442 1.58-3.277 2.373-5.502 2.373-2.03 0-3.606-.657-4.74-1.97v9.094h-5.43v-22.93h5.43zM247.027 179.735h5.43v8.17c0 1.072.19 1.894.58 2.456.386.573 1.097.854 2.132.854 1.03 0 1.742-.28 2.128-.853.39-.56.587-1.383.587-2.455v-8.17h5.423v9.21c0 4.398-2.71 6.595-8.14 6.595-5.425 0-8.14-2.197-8.14-6.594v-9.21zM273.3 184.207v10.824h-5.43v-10.823h-1.757v-4.47h1.758v-4.596h5.43v4.596h3.07v4.47h-3.07zM289.238 184.94c-.627-.67-1.48-1-2.552-1-1.075 0-1.922.33-2.55 1-.626.664-.94 1.483-.94 2.46 0 .992.314 1.81.94 2.46.628.648 1.475.966 2.55.966 1.072 0 1.925-.318 2.552-.967.624-.65.936-1.47.936-2.46 0-.977-.312-1.796-.936-2.46m6.186-5.206v15.298h-5.43v-1.7h-.057c-.458.736-1.104 1.29-1.935 1.653-.837.37-1.733.556-2.688.556-2.225 0-4.07-.802-5.534-2.402-1.458-1.6-2.188-3.523-2.188-5.77 0-2.246.72-4.167 2.16-5.753 1.443-1.59 3.276-2.388 5.503-2.388 2.027 0 3.606.664 4.74 2v-1.493h5.43zM305.053 179.735v2.506h.062c1.013-1.806 2.663-2.712 4.946-2.712h1.046v5.216c-.593-.337-1.36-.507-2.296-.507-1.41 0-2.39.405-2.935 1.208-.547.804-.822 1.944-.822 3.415v6.17h-5.426v-15.295h5.426zM319.157 195.03h-5.426v-15.295h5.427v15.295zm-4.858-23.32c.596-.593 1.31-.892 2.144-.892.837 0 1.55.3 2.147.893.597.6.897 1.317.897 2.15 0 .835-.3 1.552-.896 2.15-.595.595-1.31.89-2.146.89-.835 0-1.548-.295-2.145-.89-.597-.598-.897-1.315-.897-2.15 0-.833.3-1.55.896-2.15M330.846 190.532h6.443v4.498h-15.506l7.187-10.793h-6.235v-4.5h15.267l-7.156 10.795zM351.14 184.94c-.626-.67-1.48-1-2.548-1-1.075 0-1.925.33-2.552 1-.627.664-.936 1.483-.936 2.46 0 .992.31 1.81.936 2.46.627.648 1.477.966 2.552.966 1.07 0 1.922-.318 2.55-.967.624-.65.94-1.47.94-2.46 0-.977-.316-1.796-.94-2.46m6.185-5.206v15.298h-5.43v-1.7h-.057c-.458.736-1.103 1.29-1.935 1.653-.837.37-1.733.556-2.688.556-2.224 0-4.07-.802-5.53-2.402-1.462-1.6-2.19-3.523-2.19-5.77 0-2.246.72-4.167 2.162-5.753 1.438-1.59 3.27-2.388 5.5-2.388 2.025 0 3.604.664 4.738 2v-1.493h5.43zM372.282 184.94c-.628-.67-1.477-1-2.55-1-1.075 0-1.924.33-2.55 1-.63.664-.938 1.483-.938 2.46 0 .992.31 1.81.94 2.46.624.648 1.473.966 2.55.966 1.07 0 1.92-.318 2.548-.967.624-.65.94-1.47.94-2.46 0-.977-.316-1.796-.94-2.46m.76 10.092v-1.7h-.062c-.457.736-1.1 1.29-1.934 1.653-.838.37-1.734.556-2.685.556-2.224 0-4.072-.802-5.533-2.402-1.46-1.6-2.19-3.523-2.19-5.77 0-2.246.722-4.167 2.162-5.753 1.44-1.59 3.274-2.388 5.5-2.388 2.026 0 3.608.664 4.742 2V170.28h5.426v24.75h-5.426zM393.006 184.94c-.627-.67-1.48-1-2.55-1-1.075 0-1.924.33-2.552 1-.627.664-.936 1.483-.936 2.46 0 .992.31 1.81.936 2.46.628.648 1.477.966 2.553.966 1.07 0 1.922-.318 2.55-.967.623-.65.938-1.47.938-2.46 0-.977-.315-1.796-.94-2.46m6.187-5.206v15.298h-5.43v-1.7h-.058c-.457.736-1.103 1.29-1.934 1.653-.838.37-1.734.556-2.688.556-2.225 0-4.07-.802-5.53-2.402-1.463-1.6-2.192-3.523-2.192-5.77 0-2.246.72-4.167 2.163-5.753 1.44-1.59 3.272-2.388 5.5-2.388 2.027 0 3.606.664 4.74 2v-1.493h5.43z" fill="#ec1d27"/><path d="M170.125 461.593c0 12.384 10.03 22.41 22.404 22.41s22.407-10.026 22.407-22.41c0-12.375-10.033-22.4-22.408-22.4-12.376 0-22.405 10.025-22.405 22.4" fill="url(#b)" transform="translate(-150 -420.2)"/></svg>