<svg xmlns="http://www.w3.org/2000/svg" width="400" height="220.731"><path d="M308.518 208.954l-2.166-4.394-2.17 4.394-4.847.705 3.508 3.416-.828 4.825 4.337-2.276 4.33 2.277-.824-4.824 3.504-3.417-4.844-.706zm-153.3-.396l-2.544-5.157-2.543 5.158-5.69.828 4.117 4.007-.97 5.67 5.087-2.677 5.088 2.677-.97-5.67 4.114-4.007-5.687-.828zm235.573-81.12l-13.297-1.035v-12.428L376.47 96.37l2.048-19.676-10.234-13.46-1.702.573c.023-.487.052-.974.06-1.465h5.947V59.35h-5.983c-1.123-26.952-22.897-48.646-49.88-49.642V0h-2.992v9.686c-27.382.554-49.622 22.42-50.756 49.664h-9.596v2.992h9.56c.11 7.134 1.675 13.922 4.4 20.09l-27.96-7.81-24.553-6.212-26.595 3.107H146.29L128.9 74.62l-28.643 1.04-4.096 6.213-10.226-7.252-24.552-11.387-10.23 6.215-23.53 3.102-13.3-5.174-7.16 4.14-5.117 6.212 2.048 14.5L7.16 108.8l-1.022 9.32L0 132.618v9.318l3.07 20.714 1.023 9.317h10.23l18.414 7.25 9.206-8.284 15.345-4.142 11.256 1.034 14.32 7.25h3.802l4.826 13.656-.37 10.7 9.715 6.376-1.555 3.148-4.846.705 3.51 3.416-.832 4.825 4.335-2.276 4.334 2.277-.83-4.824 3.507-3.417-4.843-.706-.966-1.958.17.112 18.734-5.88 18.91.124 14.877.913 4.57-5.478 10.87 2.36 8.96 6.427 10.775-.977 11.954.04-1.655 3.348-6.903 1.005 4.994 4.865-1.18 6.876 6.174-3.244 6.173 3.245-1.18-6.875 4.997-4.865-6.903-1.005-1.65-3.34 6.11.02 26.905-3.446 14.84-.43 9.62 5.74 20.293 1.42 16.688-6.49 13.418-3.058 5.033-12.836-7.69-9.132.026-.325h13.718l24.548-6.22 24.555-3.1v-7.25l21.482-1.035 5.117-18.64-9.21-12.428zm-133.12 81.12l-2.543-5.157-2.548 5.158-5.69.828 4.12 4.007-.974 5.67 5.09-2.677 5.088 2.677-.97-5.67 4.116-4.007-5.69-.828z" fill="#fff"/><path d="M255.05 211.958s.06-.123.074-.148l.072.148.163.024c-.02.017-.116.112-.116.112l.03.166-.148-.078s-.12.065-.144.076l.028-.164-.115-.112.156-.024M365.914 61.983c0 28.128-22.804 50.93-50.932 50.93-28.125 0-50.932-22.802-50.932-50.93 0-28.13 22.807-50.93 50.932-50.93 28.128 0 50.932 22.8 50.932 50.93" fill="#fff"/><path d="M286.626 68.014h-3.062c2.593 12.488 12.474 22.33 24.996 24.82v-3.07c-10.864-2.4-19.434-10.923-21.934-21.75m34.405 21.75v3.07c12.522-2.49 22.403-12.332 24.996-24.82h-3.064c-2.496 10.827-11.066 19.35-21.93 21.75m-37.468-34.718h3.062c2.5-10.825 11.07-19.35 21.934-21.75V30.23c-12.522 2.49-22.403 12.334-24.996 24.818m59.398 0h3.064c-2.593-12.484-12.474-22.33-24.995-24.818v3.07c10.866 2.397 19.436 10.923 21.932 21.748" fill="#676300"/><path d="M266.915 61.533c0-26.402 21.478-47.884 47.88-47.884 26.4 0 47.877 21.48 47.877 47.883 0 26.4-21.477 47.88-47.878 47.88-26.4 0-47.88-21.48-47.88-47.88m-3.99 0c0 28.6 23.268 51.87 51.87 51.87 28.6 0 51.867-23.27 51.867-51.87 0-28.603-23.266-51.874-51.866-51.874-28.602 0-51.87 23.27-51.87 51.873" fill="#676300"/><path d="M313.736 19.95h2.99V0h-2.99v19.95zM313.736 121.197h2.99V101.25h-2.99v19.947zM352.64 62.342h19.95v-2.99h-19.95v2.99zM253.384 62.342h19.95v-2.99h-19.95v2.99z" fill="#676300"/><path d="M390.79 127.438l-13.296-1.035v-12.428L376.47 96.37l2.048-19.676-10.234-13.46-12.27 4.142-9.21 2.072-9.21 7.246c-4.65-.087-9.304-.15-13.956-.264-5.997-.146-11.934-3.11-17.72-2.804-7.13.378-15.193 2.13-22.072 3.997-3.29.894-11.593 6.2-14.79 5.284l-29.67-8.286-24.554-6.21-26.597 3.108H146.29L128.9 74.62l-28.644 1.04-4.094 6.214-10.23-7.253-24.55-11.387-10.23 6.215-23.53 3.102-13.3-5.174-7.16 4.142-5.117 6.21 2.05 14.503 3.066 16.566-1.022 9.322L0 132.616v9.32l3.07 20.713 1.024 9.318h10.228l18.415 7.25 9.207-8.286 15.345-4.142 11.253 1.035 14.32 7.25h3.802l4.827 13.66-.37 10.694 11.7 7.678 18.733-5.88 18.907.124 14.878.913 4.57-5.476 10.87 2.357 8.96 6.427 10.775-.978 20.93.068 26.906-3.446 14.842-.427 9.618 5.74 20.295 1.42 16.688-6.49 13.417-3.058 5.034-12.836-7.69-9.133.025-.324h13.72l24.546-6.218 24.555-3.102v-7.248l21.48-1.038 5.12-18.64-9.21-12.426z" fill="#676300"/><path d="M203.9 201.73l3.087 6.255 6.902 1.006-4.996 4.865 1.18 6.876-6.173-3.244-6.172 3.245 1.177-6.875-4.992-4.864 6.902-1.005 3.086-6.254zM152.674 203.4l2.545 5.158 5.686.828-4.115 4.01.972 5.667-5.088-2.676-5.087 2.676.97-5.667-4.117-4.01 5.69-.828 2.544-5.157zM306.35 204.563l2.168 4.39 4.844.707-3.503 3.417.823 4.824-4.332-2.275-4.335 2.276.827-4.823-3.507-3.417 4.848-.706 2.168-4.39zM255.127 203.4l2.542 5.158 5.69.828-4.117 4.01.97 5.667-5.086-2.676-5.09 2.676.973-5.667-4.12-4.01 5.69-.828 2.547-5.157zM101.45 204.563l2.166 4.39 4.846.707-3.507 3.417.83 4.824-4.336-2.275-4.336 2.276.83-4.823-3.508-3.417 4.847-.706 2.166-4.39z" fill="#676300"/><path d="M110.964 188.566c0 .043-.005.1-.018.167.2-.034.3-.074.3-.12 0-.053-.1-.122-.3-.2.013.045.018.096.018.153m-.112.587c.163-.034.256-.06.28-.085-.01-.02-.106-.038-.28-.05v.135zm-.935.286c.114.02.207.033.28.033.175 0 .263-.065.263-.185 0-.035-.006-.078-.02-.135-.11.122-.286.218-.523.286m-2.016 3.11c.264 0 .395-.05.395-.152 0-.057-.044-.13-.13-.22 0 .158-.09.28-.264.37m-.58.52c.138-.03.22-.06.244-.083-.012-.02-.092-.04-.244-.05v.133zm-1.902-18.59c.134-.048.204-.118.204-.22 0-.045-.018-.1-.056-.17.038.16-.014.29-.148.39m-.375 4.656c0 .09.018.133.056.133.025 0 .06-.026.11-.083l-.167-.05zm-1.7-5.648l-.204.1c-.028.178.03.27.165.27.05 0 .113-.01.188-.035l-.095-.15c.163 0 .333-.06.506-.184h-.56zM99.42 187.94c0 .035.013.063.038.085.137-.064.206-.116.206-.15 0-.034-.07-.043-.206-.034-.025.036-.037.07-.037.1m-.224-9.176c.212.01.32-.005.32-.052 0-.02-.058-.064-.17-.13-.023.087-.077.15-.15.182m-.617.74c.198.02.3.006.3-.052 0-.032-.034-.078-.093-.132-.038.065-.108.13-.208.184m-.13 13.48c0 .012.006.02.017.02.04 0 .127-.04.263-.12 0-.065-.032-.11-.094-.133-.125.124-.187.203-.187.235m-.076-13.85c.05.066.087.106.113.116.048 0 .06-.1.037-.302-.037.09-.087.153-.15.186m.262-2.992l-.262.202h.15c-.05.122-.075.205-.075.252 0 .033.01.05.037.05.06 0 .21-.118.447-.354l-.298-.15zm-.43 7.228c.15-.012.237-.034.26-.066-.01-.023-.098-.046-.26-.068v.134zm-.037-6.842c-.026.08-.026.118 0 .118.024.01.073-.017.15-.085l-.15-.032zm-.058 10.07c.224-.032.337-.066.337-.1 0-.033-.082-.067-.243-.102l-.095.202zm0-1.26c.063.01.114.016.152.016.11 0 .167-.045.167-.134 0-.034-.005-.073-.018-.12-.063.09-.163.17-.3.238m0 7.918c-.024.088-.047.134-.073.134-.027 0-.058-.03-.095-.084l.167-.05zm-.84-1.817c-.025.077-.057.117-.092.117-.04 0-.075-.04-.113-.118h.206zm5.867-18.325c.17 0 .31.064.41.184.11.033.236.05.372.05.148 0 .3-.017.45-.05.11.012.247.017.408.017.163 0 .356-.005.58-.018l.41.05c-.085.136-.13.243-.13.32 0 .09.063.135.19.135.097 0 .235-.03.41-.083.036.223.123.456.26.704l.318-.135v.557c-.213.123-.355.292-.43.503-.273.202-.412.496-.412.876 0 .135.02.28.057.437l-.41.082-.057.338.056.135-.056.52.056.37v.473c-.074 0-.144.025-.204.084.27.123.41.325.41.603-.1.09-.195.137-.28.137-.062 0-.127-.03-.187-.084l-.204.47c.236 0 .46-.098.673-.286.01.09.016.174.016.252 0 .258-.075.488-.224.688v.373l-.056.132.205.285c0 .214-.067.44-.204.69.026.055.038.135.038.235 0 .112-.012.25-.038.42.074.125.162.22.263.286v1.446c.01.066.016.135.016.2 0 .203-.075.4-.224.59v.37l.057.185c.184.593.15 1.153-.114 1.68.15.168.226.34.226.52 0 .146-.058.3-.17.453v.658c.125.068.186.208.186.42 0 .18-.042.41-.13.69.238.156.355.425.355.805 0 .148-.02.314-.057.504.114.035.25.052.412.052.088.134.186.202.3.202.124 0 .266-.085.43-.255.223-.223.378-.334.464-.334.075 0 .095.095.058.285l.15.05c.135-.124.24-.29.317-.505.273 0 .41-.138.41-.42.1-.067.17-.177.205-.335l.58-.05c.2-.214.355-.505.467-.876l.204-.098c-.013-.09-.017-.193-.017-.303 0-.112.004-.23.017-.354.2-.144.443-.216.73-.216.024-.36.18-.54.466-.54.06 0 .13.007.205.017.025-.19.16-.314.41-.37.175.213.448.398.822.556.075.245.094.528.058.84l.15.05c-.04.088-.107.214-.208.37 0 .09.07.152.208.184 0 .124-.052.22-.15.287.098.156.15.358.15.606l.204.05c-.013.1-.044.15-.094.15-.037 0-.094-.038-.168-.117l-.093.1c0 .28.117.545.354.792-.1.09-.153.213-.153.37l-.26.05c.113.112.168.22.168.32 0 .177-.174.335-.52.47.136.122.203.28.203.47l-.37.05c-.377.426-.942.61-1.702.557-.138.12-.363.165-.674.133.14-.133.205-.275.205-.42 0-.146-.066-.297-.205-.454-.123.124-.184.277-.184.455 0 .066.01.145.036.235-.05-.035-.1-.05-.15-.05-.113 0-.217.095-.317.285l.037-.235h-1.644c-.075-.09-.18-.197-.318-.32l-.148.136c.023-.07.037-.13.037-.188 0-.2-.136-.323-.41-.367l-.057-.15h-.503c-.037.1-.126.167-.26.2l-.06.135c-.484-.034-.883.152-1.194.555-.274.033-.548-.01-.822-.134-.287.222-.517.336-.69.336-.113 0-.194-.05-.244-.15-.062.088-.18.15-.355.183-.175.034-.318-.03-.43-.183h-1.29l-.15-.052-.147.052h-.374l-.206-.052-.56.052c-.123-.026-.23-.036-.316-.036-.088 0-.158.01-.205.036h-.618l.15-.32-.58-.052c-.138-.223-.342-.424-.617-.605l-.056-.522c.137 0 .226-.062.262-.183.272.034.477-.044.615-.236-.086-.068-.163-.1-.224-.1-.1 0-.16.094-.186.286h-.205c0-.16.055-.31.166-.454 0-.382.14-.758.412-1.126-.126-.115-.187-.254-.187-.422 0-.056.01-.118.02-.185v-.37c.11-.1.18-.24.205-.42l-.037-1.126.037-.084v-.286c.15 0 .273-.045.375-.136h-.58c0-.12.067-.216.205-.283-.124-.3-.187-.56-.187-.774 0-.303.12-.526.354-.673-.086-.02-.13-.055-.13-.1 0-.045.044-.1.13-.17-.212 0-.346-.094-.408-.285.062-.188.196-.374.408-.553h-.167v-.472c-.163-.122-.24-.263-.24-.42 0-.133.066-.275.203-.42-.062 0-.094-.027-.094-.085 0-.067.045-.18.13-.335-.025-.18-.105-.444-.24-.79-.09-.213-.02-.37.204-.472-.037-.122-.105-.23-.204-.318.135-.248.204-.543.204-.89l-.204-.29c.31-.018.535-.17.67-.452-.11 0-.2.028-.262.084-.047-.11-.13-.166-.24-.166-.05 0-.106.01-.168.034l.035-.523.168-.216-.17-.05.17-.658c-.037-.278.033-.588.204-.923v-.205h-.167c.037.16-.03.27-.206.338l.168-.102-.204-.082c.025-.08.035-.153.035-.22 0-.236-.138-.414-.41-.536.062-.045.09-.102.09-.168 0-.057-.028-.124-.09-.2.11-.093.166-.166.166-.222 0-.078-.125-.13-.373-.15l.206-.136c-.2-.065-.34-.204-.413-.42.177-.1.294-.224.356-.368-.274 0-.392-.13-.356-.39.236-.177.55-.3.934-.366.064-.125.172-.248.32-.37.024.09.073.122.15.1.21-.19.39-.288.542-.288.123 0 .235.064.334.187h.41c.226-.122.45-.186.674-.186.3 0 .592.106.878.322.237-.224.448-.337.635-.337.126 0 .243.05.354.15.113-.034.232-.05.357-.05.173 0 .348.034.524.1l.11-.235zM133.902 190.06c0 .136.068.187.205.152l-.205-.15zm-.6.604l.058.135c.087-.044.13-.078.13-.1 0-.036-.043-.056-.13-.067l-.057.03zm-.202.087c-.063.068-.096.128-.096.185 0 .066.044.13.132.186l.167-.27-.203-.1zm-1.16-3.228c.187 0 .28-.022.28-.068 0-.033-.03-.072-.093-.117-.038.068-.1.128-.187.185m-1.923-12.96c.086 0 .13-.03.13-.084 0-.022-.013-.058-.035-.1l-.095.183zm-.503 1.444c-.164.068-.24.193-.225.37 0-.1.054-.15.166-.15-.05.09-.074.156-.074.202 0 .067.043.096.132.083 0-.156.043-.306.13-.452l-.13-.052zm-.414-.805c.15.033.244.05.282.05 0-.01-.076-.043-.226-.1l-.056.05zm-.148.438c-.186.144-.28.24-.28.283 0 .025.02.036.056.036.062 0 .187-.04.372-.117l-.148-.202zm-.88 17.213c0 .034.01.063.02.084.175-.01.263-.033.263-.065 0-.025-.088-.057-.262-.1-.012.03-.02.06-.02.08m-.185-15.346c.112.056.2.083.258.083.102 0 .133-.083.096-.252-.026.068-.05.1-.075.1-.038 0-.062-.032-.074-.1-.037.057-.108.11-.205.17m-5.063 1.696c.15.034.243.05.28.05h.02c-.014-.01-.095-.045-.246-.1l-.055.05zm-1.01.857c.412-.032.43-.048.058-.048l-.058.047zm-.597 4.944c.112.01.168-.005.168-.05 0-.022-.018-.055-.055-.1l-.112.15zm1.457-2.807c-.062.124-.144.213-.24.27 0 .212-.09.413-.264.605l-.147.08.148.24c-.135.21-.203.452-.203.722-.126.213-.363.425-.712.64l-.054.134c.15-.057.342-.085.58-.085v.32c-.31.11-.467.21-.467.3 0 .1.156.197.467.287.023.146-.03.296-.168.453l.203.085c-.062 0-.13.033-.203.1.035.024.104.034.203.034.052.166.177.252.377.252.06 0 .12-.005.185-.017.087.11.168.167.243.167.086 0 .154-.072.205-.216.173.032.312-.013.41-.136.14 0 .257-.06.357-.185.708 0 1.065-.365 1.065-1.094l.148-.03-.148-.287c.073-.102.11-.226.11-.37 0-.257-.123-.57-.373-.94v-.507l-.148-.083-.057-.506c-.263-.212-.632-.395-1.103-.553-.076.158-.213.263-.412.32m-2.22 3.278c-.04.065-.057.14-.057.217 0 .046.004.096.018.152.087-.18.266-.305.54-.37h-.502zm-.207-1.767c.087.215.16.32.223.32.05 0 .096-.044.134-.133l-.356-.187zm-.056 9.466c.25-.023.374-.06.374-.118 0-.03-.038-.07-.112-.118l-.262.237zm0-8.37c.186-.047.28-.085.28-.12 0-.032-.094-.054-.28-.066-.024.034-.024.097 0 .185m-1.196 6.37c.075.07.124.09.15.07.025-.035.016-.12-.02-.254-.024.09-.067.15-.13.185m-.13-.337c0 .136.074.185.222.153l-.222-.153zm-2.298 2.153c.037.123.055.208.055.253 0 .02-.006.038-.018.048-.037 0-.125-.1-.26-.302h.223zm8.497-19.332c.163 0 .345-.007.542-.02h.3c.137.013.267.02.393.02.138 0 .26-.007.373-.02-.087.036-.245.142-.478.322-.23.18-.343.29-.343.335.025 0 .1-.032.223-.097.064.01.132.015.205.015.163 0 .33-.05.504-.15.037-.08.058-.164.058-.254 0-.055-.008-.112-.02-.17.237.16.523.22.86.187 0 .068.036.13.112.188.037-.114.116-.17.243-.17.052 0 .105.013.167.033.027-.12.106-.184.244-.184-.125.19-.075.298.15.322l.672.05c-.15.124-.208.29-.17.503.077-.157.195-.26.356-.318.038.145.1.29.187.437l.055.553c.71.876 1.035 1.917.97 3.127l.04.32c.236.135.374.367.41.688.037.157-.025.264-.187.32l.094.152c0 .11-.03.217-.093.32l.188-.103c.31.427.45.898.41 1.414.238.304.376.667.412 1.094l.132.05v.133c-.2.125-.314.303-.338.54.126-.168.218-.253.282-.253.023 0 .04.01.056.034-.025.268.068.527.28.772-.012.08-.02.152-.02.22 0 .313.123.62.375.924-.037.09-.095.145-.17.167.138.192.218.423.243.692.037 0 .074.027.112.082-.038.09-.097.152-.185.187.088.07.147.157.185.27-.097.1-.148.223-.148.368-.176 0-.325.073-.448.22.062 0 .21-.057.448-.17.287.09.43.353.43.79 0 .125-.013.27-.038.437l.354.053.057.368c-.175 0-.262.063-.262.187 0 .066.025.15.075.252l.393.1c-.025.213.022.46.15.74v.168c.298.236.448.538.448.906 0 .1-.012.207-.037.32.137.034.274.107.41.218.014.056.018.112.018.168 0 .146-.06.274-.182.387.245.1.37.263.37.488 0 .057-.004.12-.018.186l-.3.05c-.062.28-.26.406-.598.37-.135.213-.353.32-.652.32-.087.112-.18.168-.282.168-.086 0-.186-.04-.298-.118l-.073.17c-.31-.024-.685.025-1.122.15h-.167c-.198-.102-.435-.165-.71-.184-.087.176-.268.24-.54.183-.165-.033-.264-.085-.3-.15-.2 0-.4-.028-.598-.085l-.17-.084-.057.136c-.184.02-.38.033-.578.033-.21 0-.435-.014-.67-.033-.24.02-.425.02-.563 0l-.15.033c-.072-.112-.173-.185-.298-.22h-.52c0-.214-.133-.337-.393-.37 0-.113-.02-.256-.057-.435l-.15-.102c0-.282.12-.544.356-.79.035-.148-.032-.246-.207-.302l.262-.355c-.036-.067-.105-.132-.204-.2.062-.57-.145-1.053-.617-1.445l-.055-.27-.337-.1c-.247-.225-.56-.336-.932-.336-.088 0-.182.003-.28.013-.162-.145-.375-.216-.637-.216-.11 0-.24.016-.39.05-.062-.37-.313-.57-.747-.606-.236.06-.473.192-.71.405h-.318l-.037.32c-.137.068-.225.263-.262.588l-.13.05-.056.27-.168.05c.11.21.303.41.578.59 0 .28.082.57.242.873-.112-.024-.178.02-.204.135.137.125.323.264.56.42-.038.078-.093.133-.167.168h.168c-.038.102-.093.16-.167.185.1.145.15.286.15.42 0 .202-.113.382-.338.538-.235.37-.59.522-1.063.456l-.206.22h-1.46l-.222-.034c-.126.02-.287.033-.486.033-.037-.18-.174-.254-.41-.22-.162-.278-.45-.404-.86-.37.01-.045.02-.084.02-.116 0-.092-.057-.176-.17-.254 0-.26.12-.528.356-.806-.112-.104-.168-.243-.168-.422.858-.326 1.33-.93 1.418-1.816.238.01.408-.042.515-.158.105-.118.14-.306.102-.563.236-.024.368-.157.39-.403-.012-.08-.017-.152-.017-.22 0-.392.2-.7.597-.924l-.354-.134c.038-.157.175-.235.41-.235-.11-.058-.248-.087-.41-.087l.187-.588.224-.235v-.268l.132-.086.054-.283.355-.083-.058-.27-.094.167c-.024-.03-.036-.066-.036-.1 0-.055.044-.095.13-.117-.012-.032-.018-.062-.018-.083 0-.068.024-.13.075-.186-.076-.067-.113-.134-.113-.2 0-.102.107-.187.316-.255-.135-.09-.204-.2-.204-.337 0-.19.135-.432.41-.724.06.068.123.103.186.103-.088-.104-.13-.198-.13-.286 0-.126.06-.243.188-.354-.114-.122-.17-.223-.17-.303 0-.11.126-.167.374-.167-.114-.09-.168-.197-.168-.32 0-.235.174-.55.524-.943-.103-.122-.152-.272-.152-.453h.3l.11-.217c.476-.282.743-.69.805-1.228h.15c.062-.167.2-.324.413-.47.022-.303.035-.68.035-1.125-.025-.17-.025-.29 0-.37v-.32l-.205-.186c.138-.2.205-.4.205-.603 0-.203-.067-.41-.205-.624v-.32l.354-.083c.076-.28.28-.493.618-.638.136-.28.404-.42.802-.42.037-.058.106-.118.206-.188.137.013.292.02.465.02M154.28 189.658c-.062.088-.124.135-.187.135-.05 0-.112-.047-.185-.135h.372zm-.224-.857c.062 0 .118-.1.168-.303-.074.057-.144.085-.205.085-.063 0-.118-.028-.17-.085.074.202.142.304.206.304m-.318 1.244c-.05.112-.074.19-.074.235 0 .022.012.033.036.033.038 0 .107-.046.208-.133l-.17-.136zm-.112-1.41c.027.122.063.182.112.182.025 0 .063-.028.113-.083l-.224-.1zm-.205.25c0 .122.052.235.15.336l-.15-.335zm-.654 1.967c.064.067.138.1.226.1.124 0 .286-.076.485-.234 0-.224-.125-.387-.375-.486-.222.156-.336.364-.336.62m-.37.336c.048.078.09.125.128.135.05 0 .063-.103.037-.318-.036.102-.09.162-.164.184m-1.983.723c-.05.067-.073.117-.073.15.01.023.03.042.056.05.048 0 .13-.034.242-.1l-.225-.1zm-.802.69c.088.067.162.1.225.1.173 0 .3-.196.373-.59-.11.224-.31.39-.597.49m-.467-.638c-.135.134-.204.223-.204.268 0 .01.01.017.036.017.063 0 .186-.045.374-.136l-.207-.148zm-.39.336c-.064.133-.2.233-.412.3.013.303.048.454.114.454.073 0 .173-.183.298-.552l.168-.053-.168-.15zm-.263-19.468c.212 0 .43.066.653.202h.15c.074-.136.306-.202.69-.202.225.29.567.42 1.03.386 0-.123.086-.234.26-.336l-.11.336c.223-.155.478-.22.765-.184 0 .1.01.162.038.184l.055-.15c.25.133.572.2.972.2.173.125.385.237.634.338l.225.05c0 .29.142.566.43.824v.133c-.21.07-.335.23-.372.49.26.145.392.302.392.47 0 .134-.082.28-.244.436.037.192-.012.355-.148.49h.203c-.023.167-.034.318-.034.453 0 .314.068.48.204.504v.335c-.162.134-.242.297-.242.486 0 .056.006.117.018.185-.1.07-.17.188-.205.355h-.373c-.15.28-.436.42-.86.42-.148-.158-.366-.3-.65-.42l-.04-.39c-.112.025-.257.025-.43 0l-.168-.25c.048-.123.074-.245.074-.37 0-.36-.236-.667-.712-.925.04-.19-.054-.318-.28-.385 0-.258-.14-.386-.428-.386-.064-.16-.206-.27-.43-.337-.06-.16-.187-.288-.373-.39-.024-.32-.235-.53-.634-.62-.137-.224-.35-.403-.634-.538-.013-.122-.02-.258-.02-.404 0-.143.007-.296.02-.455l-.057-.15.635-.385zm-3.42.573c-.146.165-.345.25-.595.25.025.27.073.404.148.404.05 0 .125-.09.224-.27l.262-.033-.04-.35zm-2.744 1.023c.037.08.068.123.092.135.04 0 .063-.044.077-.134h-.17zm.374-1.16c-.063.158-.188.302-.374.44-.075.12-.11.222-.11.302 0 .067.023.122.072.167.137-.226.35-.432.635-.623l-.223-.286zm-2.074 1.11c-.124.102-.187.163-.187.185 0 .013.013.023.036.037.05 0 .15-.03.3-.085l-.15-.135zm-.223 1.968c.05.29.112.437.186.437.073 0 .155-.145.243-.436.112.03.186.084.223.15l.15-.202c0-.055-.05-.118-.15-.183-.11.188-.33.265-.653.234m-.43 16.156c.112-.013.172-.034.186-.07 0-.02-.063-.05-.188-.083v.153zm0-17.89c.075.012.118.035.13.07 0 .02-.043.048-.13.083v-.152zm-.372 15.77c0 .067.01.108.036.118.04 0 .082-.04.13-.117h-.165zm-.264.42c.138 0 .188-.062.15-.184-.024.1-.075.162-.15.183m-.372-.62c-.025.122-.037.206-.037.25 0 .123.062.073.185-.15l-.148-.1zm.017-8.306c.04 0 .072-.056.097-.167-.076.022-.15.022-.226 0 .05.11.095.167.13.167m-.297 9.128c.15.157.268.236.355.236.112 0 .157-.147.13-.44-.098.103-.26.172-.485.204m0-2.32c-.01.09 0 .134.04.134.023 0 .067-.028.128-.083l-.167-.05zm.597-1.58c-.173.033-.373.13-.597.285-.024.124-.093.27-.205.44.136-.036.26-.007.373.082.202-.058.3-.17.3-.337 0-.09-.023-.186-.073-.286.05.01.098.017.15.017.098 0 .204-.024.316-.066l-.263-.136zm-1.008 2.556c.188-.023.28-.085.28-.185 0-.07-.042-.152-.13-.253.038.156-.013.302-.15.438m6.146-16.828l.916.05c.038.157-.037.284-.225.386.113.033.187.08.224.137h.43c-.038.12-.058.255-.058.402 0 .157.02.313.057.472l-.057.334c-.734.348-1.1.693-1.1 1.028 0 .156.078.312.24.47-.074.706.214 1.3.86 1.782l.057.286c.087.1.173.15.26.15.05 0 .106-.016.17-.05 0 .19.066.372.204.54.648-.07 1.164.12 1.553.57.322.034.607.162.858.388.25 0 .497.062.746.183.037-.057.113-.102.224-.136.136.26.368.45.692.574l.056.152c.074-.022.15-.034.223-.034.198 0 .392.073.58.218l.43.052c.135.224.334.403.597.536 0 .09-.057.168-.168.234h.37c.04.228.183.356.432.39.11.29.325.53.634.722 0 .19.095.32.282.387-.038.158.03.237.203.237 0 .48.22.92.655 1.31v.623c.14.225.187.51.15.856l.225.05v1.16c-.074.033-.15.1-.225.204.024.12.037.27.037.437 0 .157-.013.33-.037.52l-.373.102-.055.905-.15.15c-.113-.055-.226-.083-.337-.083-.287 0-.536.22-.748.658.212-.035.356-.164.43-.387.252.1.394.246.43.437-.074.1-.2.15-.374.15-.112.313-.342.582-.69.806.136.068.186.18.15.336h-.524c-.25.36-.623.618-1.12.776-.113.1-.205.245-.282.435-.346 0-.702.11-1.064.335-.148.035-.33.052-.54.052-.24.28-.598.42-1.085.42-.21 0-.455-.03-.728-.084l-.224-.235-.054-.1h-.525c-.11-.223-.186-.498-.222-.822.286-.158.412-.415.374-.776.573-.156.877-.52.915-1.09.25-.236.373-.545.373-.925-.137-.103-.207-.247-.207-.44-.148-.12-.272-.31-.37-.57l.148-.05h-.148c.038-.046.054-.096.054-.15 0-.08-.054-.16-.17-.237l-.165-.15c-.036.133-.104.246-.204.335-.21-.19-.357-.432-.43-.722-.573-.09-1.002-.41-1.29-.957-.086.11-.218.167-.392.167-.062 0-.13-.006-.205-.017 0-.17-.032-.347-.095-.537-.113.04-.218.064-.316.064-.265 0-.444-.168-.543-.504-.212-.055-.48-.1-.803-.133 0-.192-.087-.387-.263-.59-.098.067-.22.102-.373.102-.172 0-.372-.046-.598-.136-.21-.168-.374-.408-.485-.723l-.15-.05-.055-.15c0 .1-.077.15-.225.15-.1-.224-.292-.418-.58-.588-.074-.224-.237-.414-.485-.57l-.055-.154c-.248-.057-.46-.183-.636-.385h-.17c-.05-.102-.075-.23-.075-.386 0-.067.01-.147.02-.235-.075.133-.2.202-.374.202-.072-.137-.128-.298-.167-.49-.1-.066-.167-.16-.205-.286.26.18.393.21.393.084 0-.057-.024-.135-.076-.232-.174 0-.347.05-.522.148.126-.178.188-.33.188-.453 0-.112-.062-.2-.188-.268 0-.1.05-.187.15-.252l-.374-.186c-.024-.068-.038-.128-.038-.186 0-.156.07-.302.206-.437-.086-.178-.13-.335-.13-.47 0-.147.044-.265.13-.355-.125-.156-.185-.328-.185-.52 0-.335.206-.713.616-1.127l-.168-.048c.063-.068.095-.137.095-.203 0-.08-.032-.168-.095-.268.25-.104.39-.297.43-.59.173-.055.297-.196.372-.42.064.033.126.052.186.052.114 0 .195-.07.244-.205-.21-.01-.318-.03-.318-.066 0-.055.25-.13.748-.217.1-.55.256-.823.467-.823.062 0 .138.034.226.1-.014-.077-.018-.146-.018-.202 0-.27.185-.382.558-.336.075-.124.18-.272.318-.437v-.137c.287.033.573-.034.86-.2.026.044.05.067.075.067.036 0 .082-.023.13-.068.038.134.15.185.336.15l.093-.335c.19 0 .33-.065.433-.202.25-.022.516.03.802.152m-5.454 13.886l.148-.203c.088.023.176.033.263.033.198 0 .397-.056.597-.167-.037.156-.18.235-.43.235.2.1.3.202.3.302 0 .046-.027.09-.075.135.175 0 .3-.112.373-.336.036.123.126.185.263.185-.037.167.105.313.43.437-.014.056-.018.112-.018.168 0 .247.13.448.39.607.038.224.18.35.43.385.038.26.18.45.43.57.038.225.18.355.43.388.134.652.49 1.037 1.063 1.16.074.292.292.482.654.57.138.36.424.67.86.926.023.193-.05.356-.225.49l.114.285c.075-.066.118-.084.13-.05.025.034.02.11-.02.233-.073.024-.154.035-.24.035-.1 0-.2-.01-.3-.035-.26.293-.535.44-.822.44-.187 0-.378-.064-.577-.185-.1.11-.207.17-.318.17-.175 0-.367-.126-.58-.373h-.337c-.123.17-.267.252-.43.252-.148 0-.322-.083-.52-.252-.24.136-.455.203-.655.203-.213 0-.404-.067-.58-.203-.1.066-.186.1-.26.1-.125 0-.2-.11-.224-.335l-.114.183c-.498-.177-.746-.35-.746-.52 0-.054.018-.106.055-.15-.074-.044-.11-.106-.11-.186 0-.145.11-.34.336-.587-.064-.024-.12-.035-.168-.035-.186 0-.348.107-.487.32l-.147-.285c.175-.26.262-.52.262-.792 0-.268-.087-.547-.262-.84 0-.19.068-.388.205-.59-.112-.12-.18-.296-.205-.518.35-.035.54-.23.578-.59l.43-.05c-.248-.02-.46.045-.634.2-.037-.166-.054-.317-.054-.45 0-.417.16-.73.484-.943 0-.19.013-.414.037-.673.15.054.244.166.28.336M186.22 180.427c.075.045.113.086.113.12 0 .043-.056.082-.168.116l.055-.236zm-.466 9.82c.112.02.168.01.168-.036-.01-.02-.038-.054-.074-.098l-.094.134zm-.11.05c-.015.112 0 .167.036.167.038 0 .08-.023.13-.066l-.167-.1zm-.467-11.632c.048.018.084.033.112.033h.015c0-.015-.023-.04-.073-.086l-.055.053zm.466 10l-.04.184c-.21 0-.422.078-.635.235l.17.102c-.05.066-.08.118-.095.15l.02.02c.026 0 .118-.058.28-.17.024.09.055.133.092.133.075 0 .2-.202.375-.604l-.167-.05zm-2.26-11.716c-.014.122-.014.205 0 .25 0 .047.01.05.035.017.026-.034.062-.106.113-.217l-.148-.05zm-.264-2.843c.162-.01.255-.03.28-.05-.01-.034-.105-.063-.28-.086v.137zm-.616 1.346c.137 0 .188-.063.15-.187l-.15.187zm3.306 12.843c0 .19.074.286.225.286.086 0 .197-.034.335-.1l-.15.286.357.08c.025.048.037.09.037.136 0 .1-.064.197-.187.287.038.404-.05.825-.262 1.262h-.15l-.057.32c-.173 0-.36.03-.56.1-.037.204-.178.385-.43.553-.16.213-.417.384-.763.505-.14.225-.343.4-.616.52l-.264.37c-.175 0-.367-.043-.58-.132-.06.2-.163.3-.3.3-.086 0-.19-.037-.315-.115-.05.078-.167.115-.355.115-.224 0-.554-.053-.988-.167.073-.087.11-.183.11-.283 0-.067-.017-.14-.056-.22.1-.068.152-.145.152-.235.347-.124.628-.377.84-.757.2.034.388-.01.56-.133.15-.18.392-.382.727-.608l.355-.233c.037-.122.105-.274.206-.453.076.056.145.084.207.084-.038-.28.1-.464.41-.553.038-.157.143-.316.317-.47.276 0 .312-.013.112-.035v-.336c.375.034.667-.09.877-.37h.207zm-.842-14.374c.188-.056.363-.084.523-.084.44 0 .75.195.937.59.2.077.298.182.298.32 0 .076-.033.162-.094.25.326.326.49.776.49 1.346 0 .292-.046.613-.135.973-.198.125-.334.293-.408.506l-.15.05c.234.034.46-.027.67-.186l-.112 1.867-.354.05c0 .37-.19.6-.577.69-.173.213-.386.32-.634.32-.2 0-.42-.062-.657-.187-.023-.087-.037-.19-.037-.302 0-.102.014-.214.037-.335-.31-.034-.535-.192-.67-.47.21-.438.56-.808 1.044-1.11 0-.192-.066-.382-.205-.573-.11.225-.287.365-.523.422-.138.244-.38.428-.73.552-.063-.078-.09-.15-.09-.218 0-.067.027-.13.09-.185-.335-.135-.474-.415-.41-.842-.137-.157-.325-.25-.56-.285.024-.09.074-.15.15-.185-.387-.19-.662-.487-.822-.89-.115-.023-.2-.087-.263-.187l-.372.155c-.064-.16-.182-.282-.356-.373-.1-.278-.306-.532-.616-.755 0-.213.1-.398.3-.556.036-.19.123-.356.262-.5.11 0 .197.044.262.132 0-.067.035-.11.11-.133l.094.132h1.868l.205.05c.138-.1.344-.18.617-.236.31-.065.584-.004.82.186m-7.804 13.028c-.014.102 0 .15.036.15.038-.008.08-.034.13-.065l-.167-.085zm1.14-12.66c-.274.194-.48.438-.62.742h-.298l-.26.37c.062.033.13.1.205.2.2-.346.54-.676 1.027-.992l-.055-.32zm-1.757 5.398c-.026.123-.113.203-.26.236.11.033.185.078.222.134 0-.09.07-.134.205-.134l-.167-.236zm-.468.79c.225.022.336-.01.336-.098 0-.07-.055-.158-.167-.27.024.156-.03.28-.17.37m-2.073-5.43c0 .053.038.11.114.167.036-.123.017-.23-.058-.32-.036.056-.056.107-.056.153m-1.494 13.8c.1 0 .15-.027.15-.082l-.036-.102-.114.183zm-.56-11.716c.237.02.356 0 .356-.07 0-.02-.032-.06-.094-.115l-.262.184zm-.148 13.212c0 .09.02.136.056.136.024 0 .056-.03.092-.084l-.148-.052zm-.262-12.287c.498-.025.748-.053.748-.087-.014-.032-.126-.066-.338-.1-.075.09-.212.153-.41.186m-.077.182c0 .124.028.246.077.37.036-.178.02-.362-.058-.553-.01.066-.02.127-.02.182m-.5 11.313c-.014.045-.022.085-.022.12 0 .076.063.04.188-.12h-.166zm0-.942c-.014.057-.022.103-.022.136 0 .08.063.033.188-.137h-.166zm-.245-6.79c.1.045.168.068.207.068.037 0 .055-.015.055-.05 0-.02-.006-.056-.018-.1l-.245.082zm-.43 2.52c-.16.126-.3.295-.41.507.273.034.554-.057.84-.27.05-.045.082-.078.093-.1h-.02c-.012 0-.054.018-.128.05 0-.066-.04-.113-.113-.135-.038.124-.126.185-.262.185.187-.133.28-.23.28-.285 0-.056-.075-.086-.223-.086l-.057.134zm.058-3.73c-.037.257-.195.415-.468.47.074.057.15.086.226.086.173 0 .36-.17.56-.507l-.318-.05zm6.93-7.06c.135.034.24.11.318.236.607-.068.932.204.97.82-.2.383-.288.838-.26 1.365-.2.12-.32.307-.356.553-.275.09-.43.29-.468.606l-.15.05c-.038.145.01.314.15.503-.175.44-.242.937-.206 1.497l-.15.136.355.234v.32c-.126.01-.188.067-.188.166 0 .092.062.22.187.387-.1.103-.17.225-.206.37l-.15.052c.1 0 .15.06.15.182-.26.023-.392.13-.392.32 0 .055.014.125.035.2.064-.12.183-.182.357-.182l-.207-.05c.114-.08.206-.118.282-.118.112 0 .154.117.13.35-.14.058-.256.165-.355.323.1.034.216.094.354.184-.075.156-.114.318-.114.487 0 .177.04.358.113.537-.163.18-.242.37-.242.57 0 .193.08.407.24.64l-.204.1c.05.145.075.282.075.405 0 .21-.076.386-.225.52.1.034.15.113.15.237l-.15.182c.15.114.224.296.224.556 0 .144-.026.313-.076.502l.205.336-.15.053.15.184c-.086.046-.13.163-.13.353 0 .203.044.472.13.807-.175.372-.242.835-.206 1.397l.262.05v.823l.41.1c-.022.136-.038.256-.038.354 0 .38.2.562.598.54-.023.178.05.3.225.368v.235c-.31.213-.522.52-.634.925-.087-.023-.16-.034-.225-.034-.148 0-.26.073-.334.22-.312 0-.603-.08-.88-.235-.1.067-.148.145-.148.234h-.373c-.412-.314-.91-.455-1.493-.42-.177-.124-.314-.28-.413-.47-.174-.055-.38-.087-.615-.087-.177-.244-.458-.43-.844-.553l-.053-.15c0 .1-.07.15-.207.15.036-.102.125-.212.26-.336h-.26c0-.11-.017-.166-.055-.166-.037 0-.088.043-.15.132-.1-.222-.285-.397-.56-.52-.024-.077-.037-.157-.037-.235 0-.09.013-.18.037-.268l-.41-.1c-.137-.338-.42-.646-.842-.927.076-.19.198-.374.373-.553-.135-.135-.204-.31-.204-.52-.04.21-.162.385-.374.52-.16-.28-.244-.61-.244-.992-.072-.09-.2-.18-.373-.27l.17-.335c-.485-.425-.697-1.076-.635-1.95l.374-.134c0-.09-.04-.17-.115-.235.174.035.312-.03.412-.184-.2.034-.404.11-.617.236-.036-.09-.055-.188-.055-.286 0-.178.07-.366.204-.555v-.234l-.205-.05v-.27c.237-.246.305-.543.204-.892l-.037-.132c-.088.055-.156.084-.206.084-.097 0-.15-.084-.15-.253 0-.09.012-.203.037-.337l.15-.15c-.023-.18.043-.348.205-.508-.062-.12-.112-.278-.15-.468.213-.214.348-.494.41-.84l.17-.034-.17-.522.17-.184c.274 0 .493-.125.653-.37-.087-.067-.13-.135-.13-.2 0-.058.032-.114.093-.17-.123-.08-.186-.163-.186-.252 0-.1.063-.202.186-.303-.11 0-.168-.05-.168-.15.486-.282.836-.714 1.048-1.297l.355-.235c-.138-.067-.187-.174-.15-.32l.3-.052c.15-.223.36-.396.633-.518l.298-.42.414.048v-.37c.312 0 .57-.12.784-.37.136 0 .274-.042.41-.132-.034-.012-.06-.03-.075-.05 0-.068.162-.19.486-.373.1 0 .187.047.26.137.04-.078.082-.116.13-.116.064 0 .126.04.19.117l.036-.318c.137.177.35.284.635.317 0-.123-.037-.23-.112-.318l-.09.18c0-.22.052-.335.165-.335.063 0 .143.036.244.1l-.057.236c.275-.155.597-.277.973-.367l.11-.05zM209.42 187.774c.137.022.206.018.206-.015-.014-.037-.062-.082-.148-.137l-.057.15zm-.73-8.657c0 .022.033.033.096.033.225 0 .335-.073.335-.217 0-.046-.005-.09-.018-.136-.274.158-.41.264-.41.32m-.02 10.104c.024.112.094.17.208.17.047 0 .105-.014.167-.033l-.375-.136zm-.43-12.725c0 .088.02.134.06.134.022 0 .06-.028.11-.084l-.17-.05zm-.318 13.196c.074.034.148.007.207-.085.075.057.132.092.17.102h.017c0-.045-.06-.144-.186-.303l-.206.287zm-.54-14.407c-.05.09-.062.147-.037.17.014.02.06.017.15-.017l-.114-.153zm-.428 0c-.127.045-.188.09-.188.135 0 .034.032.073.09.118 0 .203.04.303.114.303.064 0 .162-.092.3-.27l-.316-.287zm-.693 1.547c0 .157-.066.304-.207.437.176-.067.244-.196.207-.387l.17-.05h-.17zm-1.232 16.005c0 .066.013.106.036.118.04 0 .084-.04.134-.118h-.17zm-.484-19.62c-.015.09-.04.136-.076.136-.037 0-.08-.045-.13-.134h.206zm-.262 19.87c0 .114.054.22.167.32.04-.065.057-.134.057-.2 0-.114-.056-.22-.167-.32-.037.068-.056.137-.056.2m0-19.045c.15.09.247.135.298.135.025 0 .038-.012.038-.034 0-.033-.026-.083-.074-.15.084.043.162.067.223.067.11 0 .18-.073.205-.218-.1-.035-.243-.052-.43-.052l-.26.252zm-1.925 9.397c-.01.068-.037.107-.077.118-.024 0-.056-.04-.092-.118h.17zm.263-10.272h.634c.126.18.322.268.597.268.125 0 .268-.022.43-.067l.11.37c.1 0 .226-.044.375-.133h.147l.058.133.28.255.465.134c.04-.124.135-.184.282-.184.286.516.708.788 1.27.822.1.068.15.14.15.22 0 .056-.033.112-.097.168.078.043.132.066.173.066.036 0 .055-.023.055-.066h.147c-.023.224.07.415.28.57 0 .324.194.517.58.572l-.15.203h.15c.036.224.18.397.43.52l-.15.152c.14.123.33.2.58.236l.058.386c.296.188.445.475.445.858 0 .077-.006.16-.016.25.11.067.168.163.168.286-.076 0-.13.034-.168.102.274 0 .41.082.41.25 0 .057-.01.118-.035.187.097.098.146.2.146.3 0 .147-.105.288-.317.42l.375.236v.286c0 .136.074.253.225.352-.013.08-.02.16-.02.234 0 .16.023.333.077.523l-.057.64c.073.223.093.51.057.857-.117.133-.188.28-.225.438.108.13.168.313.168.537l-.168.084v.875c.108.103.183.23.225.387l-.432.235c.164.1.244.257.244.47 0 .08-.013.163-.038.252l-.43.252.17.136c-.054.032-.077.073-.077.115 0 .034.023.08.077.136-.253.28-.395.645-.433 1.09l-.372.255c-.077.29-.22.575-.43.856v.253l-.43.1c.05.07.073.137.073.204 0 .134-.11.256-.333.37-.114.29-.363.452-.748.486-.112.483-.418.75-.917.806l-.058.537c-.173.09-.42.152-.746.187l-.056.25c-.424.034-.795.207-1.12.52-.176.036-.376.103-.6.202l-.057-.2c-.198.225-.415.337-.65.337-.114 0-.23-.028-.357-.086-.11.058-.217.086-.318.086-.173 0-.317-.096-.43-.287-.024.046-.063.07-.11.07-.138 0-.35-.17-.634-.504-.028-.047-.038-.09-.038-.137 0-.11.06-.213.186-.303-.038-.28.035-.582.223-.906v-.54l.056-.185.205-.05-.054-.908.428-.3c-.1-.092-.15-.23-.15-.42l.15-.54v-1.058l-.15-.05-.055-.572c.062-.167.13-.392.204-.673-.14-.224-.186-.5-.15-.824-.148-.035-.223-.13-.223-.287.076-.224.133-.517.17-.875v-.385c.173-.137.263-.354.263-.655 0-.137-.02-.287-.06-.457-.098-.032-.222-.094-.372-.182l.374-.54c-.122-.36-.186-.77-.186-1.227 0-.192.01-.392.037-.605l.15-.052c.038-.156-.01-.296-.15-.418l.15-.354c-.037-.055-.105-.117-.206-.185.137-.38.204-.813.204-1.296-.036-.033-.104-.05-.205-.05.025-.122.037-.242.037-.354 0-.268-.09-.474-.26-.62 0-.348.074-.634.222-.86-.324-.255-.542-.624-.654-1.107-.186-.092-.28-.187-.28-.288 0-.044.022-.093.073-.15-.11-.068-.188-.163-.225-.287 0-.258.145-.465.43-.62l.056-.303.75-.036.113-.2zm-3.214 1.985c.073.022.117.05.128.083 0 .024-.043.04-.13.05v-.133zm-1.292 17.35c.09.122.162.184.224.184.064 0 .114-.078.152-.237l-.376.053zm-.224-18.645c-.037 0-.086-.023-.148-.067-.074.134-.182.22-.316.252.134.067.254.1.354.1.21 0 .304-.178.28-.537-.024.167-.083.252-.17.252m-.464 19.418c-.076.022-.15.083-.228.183.225 0 .443-.033.655-.1-.062-.078-.094-.153-.094-.22 0-.12.1-.223.3-.3-.174.033-.348-.017-.524-.152-.075.167-.11.364-.11.59m-.228-19.872c-.01.2.02.302.096.302.037 0 .082-.018.132-.05l-.228-.252zm-.578 19.77c.248.11.405.168.466.168.027 0 .04-.007.04-.018 0-.044-.113-.146-.337-.3l-.17.15zm-.69-18.46c-.137.168-.205.264-.205.287 0 .01.003.014.016.014.026-.01.11-.065.245-.167l-.057-.134zm-.803.05c-.025.092-.018.135.02.135.024 0 .068-.026.13-.084l-.15-.05zm-1.082 2.692c.15 0 .204-.062.17-.187l-.17.187zm-.693 12.287c.038-.054 0-.1-.11-.135-.04.092 0 .136.11.136m-.166.44c.11.076.18.1.203.067.038-.046.025-.147-.038-.304 0 .09-.055.17-.166.237m-.15-.05c.097-.035.15-.102.15-.204 0-.033-.014-.08-.038-.133l-.113.336zm-.055.284c.034.022.066.034.09.034.052 0 .077-.04.077-.118l-.167.084zm.054-13.785c-.037.066-.055.115-.055.15 0 .022.01.034.034.034.025 0 .08-.025.17-.083l-.15-.1zm-.543 12.826c.113.044.198.066.26.066.09 0 .132-.034.132-.1 0-.046-.027-.112-.076-.2-.06.088-.167.167-.317.234m-.372.05c.06.023.11.034.15.034.01 0 .017-.007.017-.018 0-.022-.037-.06-.112-.118l-.055.103zm-.207-12.827c.112.033.167.065.167.1 0 .034-.055.066-.167.1v-.2zm6.424-3.664c.14.067.33.183.58.35-.262.126-.392.316-.392.574 0 .054.007.117.02.184.073-.124.198-.202.373-.236-.062-.067-.093-.13-.093-.184 0-.078.087-.13.26-.152.177.034.282.147.32.336.21.034.334.145.37.337-.11.19-.18.414-.203.672l-.375.052c.025.448-.137.85-.485 1.206.037.19-.02.368-.167.523l.167.15-.223.825.28.336c-.013.112-.02.24-.02.39 0 .133.007.29.02.47l-.057.334v1.16c-.075 0-.13.036-.167.1.073.102.11.208.11.32 0 .123-.054.257-.166.406l.223.097-.167.52c.073.105.11.215.11.34 0 .122-.037.267-.11.437.123.202.186.414.186.638 0 .215-.063.45-.186.704l.225.104c.02.292-.052.566-.225.823.11.258.167.558.167.907-.11.067-.167.152-.167.253.147.124.225.28.225.472l-.28.773.055.536.225.286v1.932l-.058.188c.137.188.223.448.262.77l.166.153-.167.235c.073.157.216.287.43.387-.03.078-.038.15-.038.22 0 .188.065.374.205.555l.035.385-.575.57-.058.15c-.174 0-.338.08-.486.24h-.376c-.25-.125-.554-.203-.916-.24l-.038-.15c-.074.09-.138.135-.204.135-.06 0-.118-.044-.167-.134-.037.055-.093.085-.17.085-.197 0-.52-.218-.97-.655-.822-.134-1.52-.57-2.092-1.31l-.205.1c.027-.045.038-.1.038-.17 0-.065-.01-.14-.038-.216-.21.032-.41-.018-.598-.154-.01-.045-.016-.095-.016-.15 0-.123.063-.23.186-.322l-.055-.098c-.124.098-.236.15-.333.15-.127 0-.21-.11-.245-.335 0 .088-.058.134-.167.134.037-.088.09-.15.167-.184-.085-.01-.13-.033-.13-.07 0-.03.045-.076.13-.13-.076-.035-.112-.09-.112-.17 0-.08.036-.18.112-.302-.187 0-.35-.085-.486-.254h-.318c-.035-.088-.056-.188-.056-.3 0-.102.02-.208.056-.322-.223-.155-.317-.38-.28-.67l-.374-.052c-.037-.157-.106-.337-.206-.538l-.055-.336-.054-.134-.114-.05v-.286c.072-.034.148-.1.222-.203-.15-.156-.222-.346-.222-.57l-.206-.05-.057-.96.057-.15.15-.052c-.14-.066-.207-.324-.207-.77.075.02.143.032.206.032.16 0 .303-.056.428-.17-.062-.03-.132-.098-.205-.2-.075.17-.218.236-.43.2-.024-.054-.036-.114-.036-.182 0-.18.08-.376.242-.59-.125-.145-.188-.268-.188-.37 0-.112.063-.196.187-.253-.064-.13-.132-.313-.207-.535.286-.293.642-.5 1.065-.625l.057-.15.167-.05v-.338h-.542c0 .325-.162.567-.484.724v-.908l.167-.05-.167-.487.167-.1c.073-.676.506-1.123 1.288-1.348.017-.033.02-.067.02-.1 0-.09-.062-.187-.186-.287.15-.087.33-.15.54-.184.1-.1.245-.166.432-.2l.26-.237-.26-.286c-.187.125-.313.3-.374.522-.4.067-.705.28-.918.636l-.166.136h-.15l.207-.335c.3-.36.498-.54.596-.54.04 0 .058.035.058.102v-.237c-.163 0-.245-.022-.245-.066 0-.124.226-.213.673-.27-.112 0-.203-.05-.28-.152-.036.08-.072.118-.11.118-.027 0-.057-.038-.095-.118.213 0 .425-.078.637-.235l.055-.2c-.175.022-.26-.023-.26-.135 0-.057.02-.124.054-.203.137-.122.313-.183.525-.183.075-.16.115-.35.115-.574.135-.134.328-.22.576-.253.15-.122.246-.297.282-.52.073-.035.142-.1.206-.202.473 0 .834-.19 1.083-.57.385.032.684-.113.897-.438l.374.05c.424-.27.916-.403 1.477-.403.112 0 .23.005.355.016l.11-.2zM227.97 188.566c0 .043-.007.1-.022.167.202-.034.3-.074.3-.12 0-.053-.098-.122-.3-.2.015.045.02.096.02.153m-.112.587c.16-.034.255-.06.28-.085-.01-.02-.106-.038-.28-.05v.135zm-.933.286c.11.02.204.033.28.033.173 0 .262-.065.262-.185 0-.035-.005-.078-.02-.135-.113.122-.285.218-.522.286m-2.018 3.11c.26 0 .39-.05.39-.152 0-.057-.04-.13-.13-.22 0 .158-.086.28-.26.37m-.58.52c.137-.03.22-.06.243-.083-.012-.02-.092-.04-.243-.05v.133zm-1.902-18.59c.135-.048.203-.118.203-.22 0-.045-.017-.1-.056-.17.04.16-.012.29-.147.39m-.377 4.656c0 .09.02.133.057.133.025 0 .062-.026.11-.083l-.167-.05zm-1.7-5.648l-.203.1c-.025.178.03.27.17.27.047 0 .11-.01.184-.035l-.092-.15c.16 0 .33-.06.504-.184h-.563zm-3.92 14.455c0 .035.01.063.037.085.136-.064.204-.116.204-.15 0-.034-.068-.043-.204-.034-.026.036-.038.07-.038.1m-.224-9.176c.208.01.32-.005.32-.052 0-.02-.057-.064-.172-.13-.02.087-.072.15-.147.182m-.616.74c.197.02.3.006.3-.052 0-.032-.032-.078-.095-.132-.038.065-.106.13-.206.184m-.13 13.48c0 .012.006.02.017.02.04 0 .127-.04.263-.12 0-.065-.03-.11-.093-.133-.125.124-.185.203-.185.235m-.077-13.85c.053.066.088.106.112.116.05 0 .063-.1.038-.302-.038.09-.086.153-.15.186m.262-2.992l-.262.202h.15c-.052.122-.073.205-.073.252 0 .033.01.05.035.05.063 0 .213-.118.448-.354l-.298-.15zm-.43 7.228c.15-.012.237-.034.26-.066-.01-.023-.097-.046-.26-.068v.134zm-.037-6.842c-.025.08-.025.118 0 .118.025.01.074-.017.15-.085l-.15-.032zm-.056 10.07c.226-.032.338-.066.338-.1 0-.033-.082-.067-.245-.102l-.093.202zm0-1.26c.062.01.114.016.15.016.11 0 .168-.045.168-.134 0-.034-.004-.073-.02-.12-.064.09-.16.17-.298.238m0 7.918c-.026.088-.05.134-.075.134-.023 0-.056-.03-.094-.084l.17-.05zm-.84-1.817c-.025.077-.057.117-.093.117-.037 0-.075-.04-.113-.118h.207zm5.866-18.325c.172 0 .31.064.408.184.114.033.24.05.375.05.15 0 .303-.017.45-.05.112.012.25.017.41.017.163 0 .356-.005.58-.018l.41.05c-.087.136-.13.243-.13.32 0 .09.062.135.185.135.1 0 .24-.03.41-.083.042.223.128.456.266.704l.318-.135v.557c-.215.123-.357.292-.433.503-.272.202-.408.496-.408.876 0 .135.02.28.055.437l-.41.082-.057.338.056.135-.056.52.056.37v.473c-.072 0-.142.025-.203.084.272.123.407.325.407.603-.098.09-.193.137-.276.137-.064 0-.127-.03-.188-.084l-.208.47c.236 0 .463-.098.672-.286.014.09.022.174.022.252 0 .258-.077.488-.226.688v.373l-.056.132.205.285c0 .214-.068.44-.205.69.026.055.04.135.04.235 0 .112-.014.25-.04.42.074.125.162.22.26.286v1.446c.014.066.022.135.022.2 0 .203-.077.4-.226.59v.37l.056.185c.186.593.148 1.153-.112 1.68.15.168.223.34.223.52 0 .146-.055.3-.167.453v.658c.126.068.185.208.185.42 0 .18-.04.41-.128.69.238.156.355.425.355.805 0 .148-.02.314-.055.504.11.035.248.052.41.052.087.134.186.202.297.202.125 0 .27-.085.432-.255.223-.223.378-.334.466-.334.074 0 .092.095.057.285l.147.05c.137-.124.242-.29.32-.505.273 0 .408-.138.408-.42.1-.067.17-.177.206-.335l.58-.05c.2-.214.356-.505.466-.876l.206-.098c-.012-.09-.022-.193-.022-.303 0-.112.01-.23.022-.354.2-.144.44-.216.727-.216.027-.36.185-.54.47-.54.06 0 .13.007.203.017.027-.19.162-.314.412-.37.175.213.448.398.824.556.073.245.09.528.055.84l.147.05c-.036.088-.106.214-.203.37 0 .09.068.152.203.184 0 .124-.05.22-.148.287.098.156.147.358.147.606l.206.05c-.012.1-.043.15-.095.15-.034 0-.092-.038-.166-.117l-.093.1c0 .28.116.545.353.792-.1.09-.15.213-.15.37l-.26.05c.112.112.168.22.168.32 0 .177-.176.335-.522.47.136.122.204.28.204.47l-.372.05c-.376.426-.94.61-1.7.557-.14.12-.362.165-.673.133.137-.133.206-.275.206-.42 0-.146-.07-.297-.206-.454-.126.124-.186.277-.186.455 0 .066.013.145.038.235-.05-.035-.1-.05-.15-.05-.112 0-.217.095-.315.285l.036-.235h-1.647c-.074-.09-.177-.197-.317-.32l-.15.136c.027-.07.04-.13.04-.188 0-.2-.138-.323-.412-.367l-.057-.15h-.504c-.038.1-.125.167-.263.2l-.055.135c-.484-.034-.882.152-1.194.555-.275.033-.547-.01-.822-.134-.286.222-.516.336-.69.336-.114 0-.194-.05-.244-.15-.06.088-.182.15-.354.183-.176.034-.32-.03-.43-.183h-1.29l-.15-.052-.147.052h-.376l-.205-.052-.56.052c-.125-.026-.23-.036-.315-.036-.09 0-.16.01-.208.036h-.617l.15-.32-.58-.052c-.137-.223-.342-.424-.616-.605l-.056-.522c.138 0 .225-.062.264-.183.272.034.477-.044.614-.236-.087-.068-.16-.1-.222-.1-.1 0-.16.094-.188.286h-.204c0-.16.053-.31.167-.454 0-.382.138-.758.413-1.126-.126-.115-.187-.254-.187-.422 0-.056.005-.118.018-.185v-.37c.11-.1.18-.24.204-.42l-.035-1.126.035-.084v-.286c.15 0 .275-.045.374-.136h-.578c0-.12.067-.216.204-.283-.124-.3-.188-.56-.188-.774 0-.303.12-.526.357-.673-.088-.02-.13-.055-.13-.1 0-.045.042-.1.13-.17-.213 0-.35-.094-.41-.285.06-.188.197-.374.41-.553h-.17v-.472c-.16-.122-.24-.263-.24-.42 0-.133.068-.275.206-.42-.064 0-.095-.027-.095-.085 0-.067.043-.18.13-.335-.023-.18-.103-.444-.24-.79-.09-.213-.02-.37.205-.472-.04-.122-.107-.23-.206-.318.138-.248.206-.543.206-.89l-.206-.29c.312-.018.535-.17.67-.452-.11 0-.198.028-.26.084-.05-.11-.13-.166-.243-.166-.05 0-.106.01-.167.034l.037-.523.17-.216-.17-.05.17-.658c-.04-.278.028-.588.203-.923v-.205h-.17c.04.16-.028.27-.203.338l.17-.102-.207-.082c.024-.08.037-.153.037-.22 0-.236-.138-.414-.41-.536.06-.045.09-.102.09-.168 0-.057-.03-.124-.09-.2.11-.093.167-.166.167-.222 0-.078-.122-.13-.373-.15l.207-.136c-.2-.065-.337-.204-.412-.42.175-.1.293-.224.355-.368-.273 0-.392-.13-.355-.39.236-.177.548-.3.933-.366.06-.125.17-.248.318-.37.025.09.074.122.15.1.21-.19.39-.288.542-.288.123 0 .236.064.336.187h.412c.223-.122.45-.186.673-.186.296 0 .587.106.877.322.234-.224.45-.337.635-.337.124 0 .244.05.354.15.115-.034.232-.05.357-.05.176 0 .347.034.524.1l.113-.235zM241.437 187.605c.023.112.086.17.187.17.035 0 .08-.012.126-.035l-.313-.135zm-.095-4.503c.11.02.167.017.167-.017s-.024-.075-.073-.118l-.095.135zm0-3.58c-.036.066-.067.1-.093.1-.025 0-.044-.034-.057-.1h.15zm-.354 6.977c.05.077.086.12.11.132.05 0 .065-.108.038-.32-.038.1-.087.163-.148.187m0 4.705c.013.02.06.017.148-.02 0-.056-.038-.1-.113-.132-.05.076-.06.13-.035.152m-.265-13.75l-.145.032c.334-.148.52-.388.558-.724.275-.022.41-.063.41-.117 0-.035-.037-.073-.11-.118-.413.158-.648.466-.713.926m-.502 15.077c-.024.057-.036.104-.036.137 0 .054.062.01.187-.136h-.15zm-.092-18.12c0 .034.01.068.038.102.186-.025.278-.045.278-.07 0-.032-.092-.07-.278-.117-.027.035-.038.062-.038.085m.653 5.85c-.036.303-.262.544-.67.723l.356.32c.074-.09.09-.208.054-.354.213-.023.318-.085.318-.186 0-.045-.018-.094-.057-.152.2 0 .318-.105.356-.32l-.355-.033zm-.67-6.49c.15-.02.225-.06.225-.116 0-.057-.058-.124-.17-.202l-.056.32zm-.206 3.9c.05.115.093.168.132.168.048 0 .092-.067.13-.202.137.025.273-.01.412-.1-.103-.032-.238-.05-.412-.05l-.262.184zm0-2.656c.1 0 .15-.015.15-.05 0-.022-.032-.05-.095-.084l-.056.134zm-.15 6.574c.163.033.256.05.282.05h.018c-.013-.01-.095-.043-.244-.1l-.055.05zm.56 10.205c-.273.032-.477.168-.614.404.273 0 .478-.12.614-.353.1-.034.152-.068.152-.102 0-.034-.032-.06-.095-.086l-.056.137zm-.707-16.913c0 .102.012.158.036.17.023 0 .062-.046.112-.136l-.148-.034zm-1.684-.503c.2 0 .3-.03.3-.086 0-.02-.03-.054-.094-.097-.04.055-.106.118-.207.184m-.41.318c.172-.064.264-.112.264-.134 0-.033-.078-.048-.226-.048l-.038.183zm0 16.96l-.057.138c.35.022.523-.017.523-.118 0-.055-.076-.14-.224-.253-.026.09-.106.168-.244.234m-.41.27c.112.035.193.05.243.05.024 0 .043-.01.057-.032 0-.024-.05-.075-.148-.15l-.152.133zm-1.234-15.297c.088.122.152.184.19.184.01 0 .018-.017.018-.05.198-.023.297-.064.297-.118 0-.035-.032-.073-.094-.118l-.412.1zm-.652 10.387c.024-.068-.013-.116-.114-.15-.035.1 0 .15.114.15m-.168 2.288c.06.056.112.084.15.084.06 0 .08-.102.054-.304-.025.09-.092.163-.204.22m-.187-15.535c-.012.07-.012.118 0 .152 0 .023.013.027.037.018.025-.023.063-.063.11-.12l-.146-.05zm-.206 3.95c-.062.204-.097.332-.11.388h.02c0-.012.028-.095.09-.25l.3.15.094-.52c.112.03.192.05.24.05.016 0 .027-.007.04-.02 0-.03-.076-.1-.226-.2-.06.213-.21.348-.448.403m-.67-3.26c.27-.078.407-.18.407-.304 0-.067-.034-.134-.11-.2-.025.157-.123.325-.296.504m1.268-1.058c.25-.034.475.027.673.184h.505l.262.05.055.135.094-.135 1.645-.05.3.05c.135 0 .303-.016.503-.05h.166c.165-.156.37-.23.618-.22.263.026.46.16.597.406l.11-.135c.237.124.504.186.804.186.175.248.43.48.767.692.04.09.106.16.206.216 0 .248-.117.434-.355.555.052.115.074.22.074.32 0 .292-.23.51-.69.657.113.122.182.275.208.453.035-.078.073-.117.11-.117.037 0 .067.04.093.117-.26.382-.393.717-.393 1.008 0 .182.053.35.148.507-.06.146-.09.285-.09.42 0 .168.043.335.132.502-.576.09-.843.337-.804.74-.112 0-.2.03-.265.084.077.023.14.035.19.035.16 0 .255-.1.28-.303.2.02.4-.04.6-.186.023.055.034.112.034.168 0 .148-.08.286-.243.423v.42c.113.134.166.26.166.386 0 .18-.114.34-.352.486.287.114.43.348.43.707 0 .144-.027.308-.078.486l-.166.05v.27c.1.1.15.203.15.302 0 .113-.062.223-.188.337.15.08.225.19.225.337 0 .145-.073.325-.224.537.213.156.32.32.32.487 0 .212-.154.437-.468.672.075.012.11.033.11.067 0 .033-.035.072-.11.117.26.044.394.163.394.352 0 .057-.012.118-.042.186.03.113.042.224.042.336 0 .26-.08.517-.246.772.166.114.246.243.246.387 0 .134-.07.282-.208.438l.166.237c-.136.12-.204.306-.204.554-.347 0-.533.166-.558.504.234-.033.505-.14.804-.32-.026.18-.095.364-.208.556v.135c.14.18.196.392.166.638h.21c.236.393.353.728.353 1.01 0 .156-.04.296-.112.42.16.043.245.224.245.537 0 .113-.016.242-.038.386-.138 0-.274.058-.412.168-.073-.03-.143-.047-.203-.047-.178 0-.324.156-.45.472-.088.01-.185.015-.298.015-.21 0-.456-.022-.73-.067-.175.033-.31.11-.41.235l-1.98-.05-.054-.133c-.102.077-.213.114-.34.114-.125 0-.247-.037-.37-.114-.137.033-.264.092-.374.183l-1.366-.05-.054-.133c-.275 0-.46-.125-.56-.372-.04.19-.156.36-.357.505l-.26-.505c-.078.123-.196.17-.355.136 0-.058.03-.102.088-.136.016-.02.022-.045.022-.068 0-.056-.086-.106-.26-.15.01.056.017.1.017.135 0 .124-.093.077-.28-.136l.15-.183h-.15c-.05-.18-.074-.358-.074-.538 0-.414.143-.807.428-1.178l.06-.403c-.14-.035-.206-.112-.206-.237.1-.088.236-.18.408-.268-.073-.034-.115-.08-.115-.135 0-.034.022-.068.06-.1-.112-.114-.168-.225-.168-.338 0-.114.056-.23.17-.353-.066-.066-.096-.145-.096-.236 0-.122.05-.257.148-.404-.172-.436-.24-.94-.203-1.513l.15-.05.053-.69c.013-.177-.054-.424-.203-.74v-.317c.15-.215.224-.447.224-.707 0-.154-.027-.32-.076-.49.036-.156.054-.337.054-.554-.037-.122-.122-.23-.262-.32v-.368c.19-.046.283-.158.283-.336 0-.08-.027-.18-.076-.303-.125-.223-.187-.47-.187-.74 0-.123.012-.246.038-.37l.355-.132c-.14-.213-.206-.478-.206-.79-.113-.125-.17-.274-.17-.456 0-.167.057-.368.17-.603-.1-.09-.15-.187-.15-.286 0-.1.05-.202.15-.303-.125-.143-.187-.308-.187-.487 0-.21.08-.446.24-.706 0-.212-.086-.398-.26-.554 0-.338-.117-.654-.355-.96l-.056-.603-.15-.236.206-.083c-.173-.123-.24-.275-.207-.453.24-.123.423-.31.56-.556.2.025.427.007.674-.05 0 .057.032.118.093.185.124-.27.257-.403.39-.403.103 0 .21.073.32.22v-.37zM263.063 174.377c0 .09.022.134.057.134.027 0 .057-.027.095-.084l-.152-.05zm-.26.37c.088.077.142.1.17.066.02-.032.018-.117-.018-.25-.027.088-.078.15-.15.183m-1.234-.774c.1 0 .15-.017.15-.05 0-.02-.028-.055-.09-.1l-.06.15zm-.13 2.674h.018c.027 0 .103-.035.227-.1.285-.124.427-.21.427-.254 0-.043-.094-.066-.28-.066-.262.236-.39.375-.39.42m-.73 15.483c.062.032.11.05.15.05.06 0 .092-.058.092-.17 0-.08-.012-.177-.035-.302-.077.09-.146.23-.21.42m-.56.27c.075-.023.115-.05.115-.085 0-.02-.04-.04-.114-.05v.135zm-3.902-1.615c.46-.134.69-.245.69-.336 0-.024-.025-.044-.073-.066-.2.09-.405.226-.617.403m-1.382-14.61c.16-.02.253-.048.28-.083-.012-.022-.107-.04-.28-.05v.134zm-.71-1.747c.05.023.09.034.112.034 0-.023-.025-.05-.074-.083l-.038.05zm-.525.454c0 .068.016.106.04.12.038 0 .083-.04.133-.12h-.172zm-.2.186c-.09.122-.134.206-.134.25 0 .025.02.033.056.033.062 0 .193-.06.392-.184l-.315-.1zm-3.475-1.648c-.05.1-.107.15-.173.15-.047 0-.098-.038-.146-.116l-.095.183c.077.057.156.087.242.087.1 0 .208-.04.318-.118l-.145-.186zm-1.253 9.53c0 .036.006.07.018.103.036-.033.057-.066.057-.1 0-.024-.02-.052-.057-.084-.012.032-.018.06-.018.083m-.446 8.944c0 .12.054.182.165.182.05 0 .12-.015.208-.048l-.372-.134zm-.21-12.17c-.097.078-.148.17-.148.285 0 .066.02.138.055.217 0-.147.09-.28.263-.406l-.17-.097zm.058.74c-.15.166-.224.277-.224.334 0 .012.013.022.037.034.072 0 .243-.08.504-.235l-.316-.134zm-.058-5.768c-.05-.045-.093-.065-.13-.065-.05 0-.087.02-.11.066.05.022.098.033.147.033.126 0 .227-.074.303-.22.095-.043.15-.1.15-.167 0-.045-.035-.095-.095-.15-.175.123-.264.29-.264.503m-.803 12.17c.186-.022.292-.043.318-.068 0-.03-.103-.054-.317-.065v.134zm-.167-12.49l-.448.47c.236.055.357-.037.357-.284l.258-.136-.167-.05zm.167 17.836c-.173.068-.348.19-.52.37l-.152.052c.064.088.184.15.358.185.074-.216.23-.417.464-.608h-.15zm-.877.557c.026.108.057.164.094.164s.075-.02.11-.066l-.204-.1zm-.148-1.48c.075-.025.117-.052.13-.086 0-.022-.045-.04-.13-.05v.135zm.205-17.655c-.035-.145-.158-.206-.356-.183.025.123.142.183.356.183m-.43 17.55v.037c.036 0 .094-.04.166-.118 0-.058-.03-.102-.093-.134-.05.11-.074.185-.074.216m5.546-17.768v-.15c.097 0 .188.05.26.15.164-.135.3-.202.414-.202.16 0 .292.13.39.388.1-.023.187-.035.26-.035.4 0 .642.195.73.586l.21-.148c.1.224.297.345.595.37.11.244.304.475.577.688 0 .346.152.61.45.79.038.37.224.68.56.926.038.122.105.244.204.368l.058.403.057.153c.174.12.31.29.41.504.136 0 .253.026.354.084v.15c-.124-.022-.186 0-.186.068 0 .02.01.055.035.1h.3c.075.314.28.56.615.74.037.158-.01.28-.148.37l.204.47.357-.15c.038.402.31.666.82.79.05.088.12.134.207.134.186 0 .46-.247.818-.74 0-.18-.064-.348-.2-.503.136-.338.2-.763.2-1.278l.208-.052h-.354c.025-.212.005-.49-.054-.84l.054-.134c-.036-.09-.106-.198-.206-.32.1-.057.152-.163.152-.318l-.152-.052c-.114-.302-.335-.55-.672-.74v-.134l-.15-.05c.026-.394-.13-.764-.466-1.11v-.27c.237-.178.392-.442.467-.79.16-.055.347-.178.56-.37l.26.186.56-.034.037-.15c.136-.024.57-.036 1.293-.036h.145c0 .09.04.163.112.22.126-.045.244-.067.357-.067.213 0 .416.073.617.22.134 0 .305.008.502.03.04.225-.01.46-.147.708.4.088.597.246.597.47 0 .225-.197.51-.597.858l-.056.37c-.1.057-.24.117-.412.186-.163.178-.23.427-.207.738-.097.057-.235.12-.41.186l.058.925-.057.506-.355.033c.112.123.167.237.167.335 0 .103-.055.19-.167.27.062.112.095.22.095.32 0 .088-.033.185-.095.283.138.092.256.227.356.407-.023.157-.142.236-.355.236-.025.077-.037.145-.037.2 0 .145.08.265.244.352l-.056.692c-.075-.024-.14-.035-.188-.035-.046 0-.087.01-.108.035.085.1.13.19.13.268 0 .18-.2.308-.598.386 0 .26-.044.388-.13.388-.026 0-.064-.024-.113-.07-.042.092-.097.154-.172.188h.206c.038.078.058.157.058.236 0 .144-.087.26-.264.352v.79c.138.058.206.178.206.37.213.11.32.25.32.422 0 .088-.04.193-.112.318.41.246.597.627.557 1.145l.262.046c-.012.07-.02.135-.02.202 0 .215.077.438.226.673-.038.158-.106.315-.206.473.075.145.193.296.354.453v1.85c-.2.178-.454.33-.765.453l.205.32c-.236 0-.354.107-.354.32.078-.045.15-.068.225-.068.074 0 .156.023.242.067.026-.15.108-.3.244-.456-.06-.022-.09-.05-.09-.083 0-.045.048-.096.148-.15.035.278-.03.526-.206.738v.472l-.056.266c-.06.025-.093.053-.093.087l.15.235c-.176.068-.313.19-.412.37-.16.067-.31.19-.447.37l-.204.05-.172.135c-.37-.034-.797.028-1.27.183-.135-.12-.324-.183-.56-.183l-.054-.136c-.05.136-.17.203-.354.203-.114 0-.253-.023-.416-.067-.035-.157-.122-.308-.26-.455-.273-.033-.497-.19-.67-.47-.4-.09-.653-.322-.765-.69h-.152c0-.212.118-.426.355-.638l-.038-.153c-.077.16-.18.28-.317.372l-.057-.507v.134c-.532-.212-.872-.608-1.006-1.193l-.17-.05c0-.303-.185-.497-.56-.588-.1-.123-.15-.225-.15-.303 0-.1.09-.17.265-.2-.038.087-.06.156-.06.2 0 .022.007.033.022.033.037 0 .115-.067.24-.202-.21-.213-.47-.362-.765-.45-.035-.373-.245-.664-.616-.876l-.058-.37-.355-.05c0-.18.07-.365.208-.556l-.057-.133c-.1-.09-.186-.215-.263-.373-.41-.122-.596-.476-.56-1.058-.17-.124-.447-.276-.82-.456-.063-.37-.317-.66-.764-.873.036-.56-.257-.885-.88-.974-.06-.214-.23-.32-.505-.32-.062.21-.216.397-.465.553 0 .146.056.315.168.506-.075 0-.13.028-.168.083 0 .37-.07.835-.208 1.393l-.034.086v.42l.206.05c-.114.214-.172.397-.172.553 0 .158.058.293.172.406-.04.154-.163.295-.375.418l.168.135v1.327c.024.192.092.408.206.657-.078 0-.132.028-.172.084.25.19.388.47.413.84-.037-.045-.07-.066-.092-.066-.04 0-.076.02-.113.067.173.18.31.41.41.69l.356.083c0 .313.135.545.41.69 0 .156.067.296.205.42-.046.045-.073.097-.073.152 0 .124.094.287.282.488v.235c-.34.068-.477.27-.415.605l-.148.134c-.063-.045-.126-.07-.187-.07-.1 0-.175.088-.224.256-.062-.012-.118-.018-.168-.018-.174 0-.335.067-.484.2l-.206-.133-1.643-.05-.207-.135c-.074.124-.21.185-.412.185l-.06-.37-.147.185c-.196-.124-.455-.2-.764-.233l-.056-.135-.15-.05c.123-.24.187-.513.187-.826 0-.134-.014-.275-.037-.422.286-.18.43-.418.43-.722 0-.066-.006-.136-.02-.2.372-.214.665-.535.878-.96-.1-.122-.168-.29-.205-.504.112-.136.167-.3.167-.503 0-.067-.007-.146-.02-.236.102-.123.153-.263.153-.422 0-.113-.033-.235-.095-.37.3-.032.506-.2.615-.503.025.09.077.118.15.084-.06-.134-.162-.202-.297-.202-.076 0-.162.022-.265.068.138-.248.19-.54.155-.873l-.154-.053-.052-.908.053-.1v-.607l.155-.033c0-.067-.05-.13-.154-.186-.035-.313.017-.654.155-1.025-.064-.046-.096-.096-.096-.15 0-.07.03-.142.095-.222-.138-.21-.207-.452-.207-.72.2-.068.287-.21.262-.423-.164-.066-.244-.184-.244-.353 0-.057.01-.122.035-.2.165-.033.282-.14.358-.322-.136-.063-.186-.16-.148-.283.237-.057.438-.162.616-.32-.178.057-.287.082-.336.082-.026 0-.04-.005-.04-.015 0-.023.04-.064.112-.118.065-.147.2-.3.414-.453l.05-.134c-.133-.126-.2-.31-.2-.558.06-.067.13-.162.2-.286-.034-.088-.12-.16-.257-.215.023-.092.037-.175.037-.253 0-.258-.13-.48-.394-.672-.035-.493-.31-.8-.82-.925l.148-.268-.41-.102.058-.37c-.277-.033-.413-.185-.413-.454-.21-.19-.347-.436-.41-.74-.174 0-.31-.078-.41-.234.275-.034.527-.167.766-.406-.1 0-.15-.05-.15-.148.15.03.27.05.355.05.126 0 .186-.036.186-.103s-.078-.173-.24-.32l-.243.186c-.024-.166.035-.284.176-.35.145-.068.37-.085.683-.052.138-.124.344-.174.618-.15.147.065.22.134.22.202 0 .054-.055.11-.166.165.273 0 .41-.122.41-.368.113.08.243.118.39.118.153 0 .307-.04.47-.118-.025.123-.142.185-.354.185-.373.36-.59.578-.655.655.01 0 .064-.033.15-.1.235-.09.512-.275.82-.555h.152c.1-.158.24-.236.43-.236.172 0 .384.067.634.202.223-.112.415-.168.577-.168.164 0 .3.056.412.168.1-.124.25-.244.45-.37.272 0 .43.124.464.37M283.65 190.06c0 .136.068.187.206.152l-.206-.15zm-.597.604l.056.135c.086-.044.127-.078.127-.1 0-.036-.04-.056-.128-.067l-.057.03zm-.207.087c-.063.068-.094.128-.094.185 0 .066.044.13.13.186l.17-.27-.206-.1zm-1.158-3.228c.187 0 .28-.022.28-.068 0-.033-.032-.072-.093-.117-.037.068-.1.128-.187.185m-1.924-12.96c.09 0 .132-.03.132-.084 0-.022-.015-.058-.038-.1l-.094.183zm-.507 1.444c-.158.068-.235.193-.22.37 0-.1.055-.15.168-.15-.05.09-.074.156-.074.202 0 .067.042.096.127.083 0-.156.046-.306.136-.452l-.136-.052zm-.41-.805c.154.033.245.05.284.05 0-.01-.075-.043-.225-.1l-.06.05zm-.15.438c-.185.144-.278.24-.278.283 0 .025.02.036.055.036.063 0 .186-.04.37-.117l-.147-.202zm-.876 17.213c0 .034.007.063.02.084.174-.01.264-.033.264-.065 0-.025-.09-.057-.263-.1-.013.03-.02.06-.02.08m-.185-15.346c.112.056.2.083.26.083.1 0 .132-.083.094-.252-.023.068-.05.1-.074.1-.04 0-.064-.032-.075-.1-.035.057-.105.11-.205.17m-5.06 1.696c.148.034.243.05.277.05h.018c-.008-.01-.092-.045-.24-.1l-.056.05zm-1.01.857c.41-.032.43-.048.056-.048l-.056.047zm-.6 4.944c.113.01.167-.005.167-.05 0-.022-.015-.055-.052-.1l-.114.15zm1.46-2.807c-.064.124-.144.213-.245.27 0 .212-.085.413-.26.605l-.15.08.15.24c-.138.21-.207.452-.207.722-.125.213-.362.425-.71.64l-.056.134c.15-.057.343-.085.58-.085v.32c-.312.11-.467.21-.467.3 0 .1.155.197.468.287.025.146-.033.296-.17.453l.206.085c-.063 0-.13.033-.205.1.04.024.103.034.204.034.05.166.174.252.378.252.06 0 .123-.005.182-.017.09.11.17.167.244.167.088 0 .157-.072.206-.216.173.032.31-.013.41-.136.136 0 .256-.06.356-.185.71 0 1.063-.365 1.063-1.094l.152-.03-.152-.287c.077-.102.112-.226.112-.37 0-.257-.123-.57-.375-.94v-.507l-.146-.083-.056-.506c-.264-.212-.63-.395-1.104-.553-.075.158-.214.263-.41.32m-2.224 3.278c-.037.065-.053.14-.053.217 0 .046.004.096.016.152.087-.18.27-.305.54-.37h-.503zm-.203-1.767c.086.215.162.32.223.32.048 0 .094-.044.132-.133l-.355-.187zm-.058 9.466c.248-.023.374-.06.374-.118 0-.03-.04-.07-.114-.118l-.26.237zm0-8.37c.184-.047.28-.085.28-.12 0-.032-.096-.054-.28-.066-.027.034-.027.097 0 .185m-1.194 6.37c.072.07.12.09.15.07.02-.035.016-.12-.02-.254-.027.09-.07.15-.13.185m-.134-.337c0 .136.077.185.226.153l-.226-.153zm-2.298 2.153c.04.123.06.208.06.253 0 .02-.008.038-.02.048-.04 0-.126-.1-.263-.302h.224zm8.5-19.332c.162 0 .342-.007.543-.02h.298c.14.013.267.02.393.02.138 0 .263-.007.372-.02-.085.036-.247.142-.474.322-.232.18-.35.29-.35.335.03 0 .104-.032.225-.097.065.01.135.015.21.015.16 0 .328-.05.502-.15.035-.08.058-.164.058-.254 0-.055-.01-.112-.023-.17.24.16.526.22.86.187 0 .068.04.13.116.188.035-.114.115-.17.243-.17.05 0 .105.013.168.033.024-.12.104-.184.24-.184-.12.19-.074.298.15.322l.673.05c-.148.124-.204.29-.17.503.075-.157.193-.26.358-.318.038.145.098.29.188.437l.053.553c.71.876 1.033 1.917.974 3.127l.036.32c.236.135.373.367.41.688.037.157-.025.264-.186.32l.093.152c0 .11-.032.217-.093.32l.187-.103c.31.427.45.898.41 1.414.236.304.375.667.41 1.094l.132.05v.133c-.202.125-.312.303-.336.54.123-.168.215-.253.278-.253.028 0 .044.01.057.034-.027.268.07.527.28.772-.013.08-.02.152-.02.22 0 .313.123.62.373.924-.036.09-.093.145-.167.167.136.192.216.423.24.692.038 0 .078.027.115.082-.036.09-.095.152-.187.187.092.07.15.157.188.27-.095.1-.15.223-.15.368-.172 0-.32.073-.45.22.066 0 .216-.057.45-.17.29.09.433.353.433.79 0 .125-.012.27-.04.437l.354.053.056.368c-.174 0-.26.063-.26.187 0 .066.026.15.076.252l.39.1c-.022.213.025.46.15.74v.168c.3.236.448.538.448.906 0 .1-.013.207-.04.32.14.034.277.107.414.218.013.056.016.112.016.168 0 .146-.058.274-.184.387.25.1.373.263.373.488 0 .057-.007.12-.018.186l-.302.05c-.06.28-.26.406-.596.37-.137.213-.354.32-.653.32-.09.112-.184.168-.283.168-.088 0-.186-.04-.3-.118l-.074.17c-.31-.024-.686.025-1.122.15h-.165c-.2-.102-.435-.165-.71-.184-.09.176-.266.24-.542.183-.162-.033-.262-.085-.297-.15-.202 0-.4-.028-.6-.085l-.17-.084-.054.136c-.185.02-.38.033-.578.033-.21 0-.435-.014-.67-.033-.24.02-.425.02-.562 0l-.15.033c-.076-.112-.174-.185-.3-.22h-.523c0-.214-.13-.337-.39-.37 0-.113-.024-.256-.06-.435l-.15-.102c0-.282.12-.544.357-.79.04-.148-.03-.246-.207-.302l.26-.355c-.034-.067-.103-.132-.2-.2.06-.57-.146-1.053-.62-1.445l-.056-.27-.334-.1c-.253-.225-.56-.336-.935-.336-.087 0-.18.003-.28.013-.16-.145-.373-.216-.636-.216-.112 0-.244.016-.392.05-.062-.37-.313-.57-.747-.606-.237.06-.474.192-.71.405h-.316l-.04.32c-.134.068-.224.263-.258.588l-.133.05-.057.27-.167.05c.11.21.304.41.58.59 0 .28.08.57.242.873-.112-.024-.18.02-.208.135.138.125.326.264.563.42-.04.078-.098.133-.17.168h.17c-.04.102-.098.16-.17.185.102.145.15.286.15.42 0 .202-.112.382-.335.538-.237.37-.593.522-1.067.456l-.203.22h-1.456l-.225-.034c-.125.02-.286.033-.488.033-.034-.18-.172-.254-.41-.22-.16-.278-.45-.404-.86-.37.015-.045.02-.084.02-.116 0-.092-.056-.176-.168-.254 0-.26.12-.528.354-.806-.108-.104-.167-.243-.167-.422.86-.326 1.335-.93 1.42-1.816.236.01.407-.042.516-.158.106-.118.14-.306.102-.563.238-.024.366-.157.39-.403-.01-.08-.018-.152-.018-.22 0-.392.2-.7.597-.924l-.35-.134c.034-.157.17-.235.406-.235-.11-.058-.247-.087-.407-.087l.185-.588.223-.235v-.268l.133-.086.055-.283.355-.083-.054-.27-.092.167c-.026-.03-.04-.066-.04-.1 0-.055.046-.095.133-.117-.012-.032-.017-.062-.017-.083 0-.068.023-.13.072-.186-.072-.067-.11-.134-.11-.2 0-.102.108-.187.318-.255-.137-.09-.208-.2-.208-.337 0-.19.14-.432.41-.724.064.068.127.103.19.103-.088-.104-.132-.198-.132-.286 0-.126.062-.243.19-.354-.115-.122-.17-.223-.17-.303 0-.11.124-.167.37-.167-.108-.09-.166-.197-.166-.32 0-.235.173-.55.524-.943-.098-.122-.148-.272-.148-.453h.298l.114-.217c.472-.282.738-.69.8-1.228h.15c.06-.167.2-.324.413-.47.024-.303.037-.68.037-1.125-.027-.17-.027-.29 0-.37v-.32l-.206-.186c.138-.2.206-.4.206-.603 0-.203-.068-.41-.206-.624v-.32l.355-.083c.075-.28.28-.493.617-.638.134-.28.403-.42.8-.42.038-.058.108-.118.207-.188.137.013.292.02.468.02M304.024 189.658c-.06.088-.12.135-.186.135-.05 0-.11-.047-.182-.135h.368zm-.22-.857c.062 0 .117-.1.165-.303-.076.057-.145.085-.205.085-.062 0-.118-.028-.168-.085.075.202.143.304.206.304m-.317 1.244c-.05.112-.076.19-.076.235 0 .022.013.033.037.033.04 0 .106-.046.21-.133l-.17-.136zm-.114-1.41c.028.122.063.182.114.182.023 0 .062-.028.11-.083l-.224-.1zm-.206.25c0 .122.053.235.152.336l-.152-.335zm-.652 1.967c.06.067.137.1.223.1.125 0 .287-.076.486-.234 0-.224-.125-.387-.376-.486-.22.156-.333.364-.333.62m-.372.336c.047.078.09.125.128.135.05 0 .063-.103.04-.318-.04.102-.094.162-.168.184m-1.983.723c-.05.067-.075.117-.075.15.015.023.032.042.058.05.048 0 .13-.034.243-.1l-.227-.1zm-.803.69c.088.067.16.1.224.1.175 0 .3-.196.375-.59-.112.224-.312.39-.598.49m-.466-.638c-.138.134-.205.223-.205.268 0 .01.013.017.036.017.066 0 .188-.045.376-.136l-.205-.148zm-.39.336c-.064.133-.203.233-.414.3.012.303.05.454.113.454.073 0 .172-.183.3-.552l.166-.053-.167-.15zm-.264-19.468c.214 0 .43.066.655.202h.15c.074-.136.306-.202.69-.202.225.29.568.42 1.028.386 0-.123.088-.234.262-.336l-.113.336c.225-.155.48-.22.766-.184 0 .1.013.162.038.184l.058-.15c.247.133.57.2.97.2.176.125.386.237.634.338l.225.05c0 .29.143.566.427.824v.133c-.208.07-.334.23-.368.49.26.145.39.302.39.47 0 .134-.08.28-.243.436.035.192-.014.355-.147.49h.205c-.026.167-.038.318-.038.453 0 .314.068.48.202.504v.335c-.158.134-.24.297-.24.486 0 .056.005.117.02.185-.1.07-.17.188-.207.355h-.374c-.15.28-.436.42-.86.42-.147-.158-.366-.3-.652-.42l-.037-.39c-.112.025-.253.025-.43 0l-.167-.25c.052-.123.074-.245.074-.37 0-.36-.235-.667-.708-.925.036-.19-.056-.318-.283-.385 0-.258-.146-.386-.43-.386-.06-.16-.205-.27-.43-.337-.06-.16-.186-.288-.372-.39-.026-.32-.24-.53-.635-.62-.137-.224-.35-.403-.635-.538-.013-.122-.02-.258-.02-.404 0-.143.007-.296.02-.455l-.057-.15.636-.385zm-3.417.573c-.15.165-.35.25-.6.25.025.27.075.404.148.404.05 0 .126-.09.23-.27l.257-.033-.036-.35zm-2.747 1.023c.036.08.07.123.09.135.04 0 .064-.044.076-.134h-.167zm.372-1.16c-.06.158-.188.302-.372.44-.075.12-.112.222-.112.302 0 .067.03.122.074.167.136-.226.35-.432.633-.623l-.222-.286zm-2.07 1.11c-.128.102-.19.163-.19.185 0 .013.014.023.04.037.047 0 .15-.03.3-.085l-.15-.135zm-.226 1.968c.05.29.113.437.184.437.074 0 .16-.145.245-.436.112.03.186.084.225.15l.148-.202c0-.055-.053-.118-.148-.183-.113.188-.333.265-.656.234m-.432 16.156c.114-.013.176-.034.187-.07 0-.02-.06-.05-.187-.083v.153zm0-17.89c.076.012.118.035.13.07 0 .02-.042.048-.13.083v-.152zm-.372 15.77c0 .067.01.108.035.118.04 0 .085-.04.133-.117h-.167zm-.264.42c.138 0 .19-.062.15-.184-.024.1-.073.162-.15.183m-.37-.62c-.027.122-.042.206-.042.25 0 .123.066.073.19-.15l-.15-.1zm.015-8.306c.04 0 .07-.056.095-.167-.074.022-.152.022-.225 0 .052.11.095.167.13.167m-.297 9.128c.15.157.27.236.354.236.114 0 .158-.147.13-.44-.098.103-.26.172-.484.204m0-2.32c-.012.09 0 .134.036.134.025 0 .07-.028.13-.083l-.166-.05zm.597-1.58c-.173.033-.374.13-.597.285-.024.124-.092.27-.205.44.136-.036.262-.007.372.082.2-.058.3-.17.3-.337 0-.09-.024-.186-.075-.286.05.01.1.017.15.017.1 0 .205-.024.317-.066l-.263-.136zm-1.01 2.556c.19-.023.28-.085.28-.185 0-.07-.043-.152-.127-.253.036.156-.014.302-.152.438m6.146-16.828l.915.05c.036.157-.04.284-.225.386.114.033.186.08.224.137h.43c-.037.12-.058.255-.058.402 0 .157.02.313.058.472l-.058.334c-.734.348-1.102.693-1.102 1.028 0 .156.085.312.248.47-.08.706.208 1.3.854 1.782l.058.286c.085.1.172.15.263.15.046 0 .103-.016.167-.05 0 .19.07.372.206.54.645-.07 1.163.12 1.55.57.32.034.61.162.857.388.25 0 .5.062.748.183.037-.057.113-.102.226-.136.135.26.367.45.69.574l.058.152c.074-.022.148-.034.222-.034.202 0 .392.073.58.218l.43.052c.137.224.335.403.597.536 0 .09-.057.168-.166.234h.372c.036.228.178.356.427.39.11.29.323.53.635.722 0 .19.096.32.284.387-.038.158.03.237.205.237 0 .48.22.92.652 1.31v.623c.137.225.187.51.15.856l.223.05v1.16c-.072.033-.146.1-.223.204.023.12.037.27.037.437 0 .157-.015.33-.038.52l-.37.102-.06.905-.15.15c-.113-.055-.22-.083-.337-.083-.285 0-.535.22-.746.658.21-.035.354-.164.43-.387.25.1.392.246.43.437-.076.1-.202.15-.374.15-.114.313-.344.582-.69.806.134.068.188.18.146.336h-.523c-.247.36-.623.618-1.12.776-.112.1-.206.245-.28.435-.35 0-.703.11-1.065.335-.148.035-.33.052-.542.052-.237.28-.597.42-1.083.42-.21 0-.456-.03-.73-.084l-.223-.235-.056-.1h-.52c-.115-.223-.188-.498-.227-.822.286-.158.412-.415.375-.776.57-.156.878-.52.914-1.09.252-.236.374-.545.374-.925-.138-.103-.206-.247-.206-.44-.148-.12-.272-.31-.372-.57l.148-.05h-.148c.038-.046.054-.096.054-.15 0-.08-.054-.16-.168-.237l-.167-.15c-.036.133-.107.246-.205.335-.21-.19-.354-.432-.428-.722-.576-.09-1.005-.41-1.292-.957-.088.11-.216.167-.39.167-.06 0-.133-.006-.207-.017 0-.17-.03-.347-.09-.537-.114.04-.22.064-.32.064-.263 0-.443-.168-.542-.504-.21-.055-.48-.1-.804-.133 0-.192-.088-.387-.26-.59-.103.067-.224.102-.376.102-.173 0-.372-.046-.597-.136-.212-.168-.373-.408-.486-.723l-.146-.05-.06-.15c0 .1-.072.15-.22.15-.1-.224-.294-.418-.58-.588-.075-.224-.236-.414-.488-.57l-.054-.154c-.25-.057-.462-.183-.636-.385h-.17c-.047-.102-.074-.23-.074-.386 0-.067.007-.147.02-.235-.074.133-.2.202-.375.202-.074-.137-.13-.298-.167-.49-.098-.066-.167-.16-.205-.286.262.18.392.21.392.084 0-.057-.026-.135-.074-.232-.175 0-.348.05-.525.148.125-.178.188-.33.188-.453 0-.112-.063-.2-.188-.268 0-.1.05-.187.152-.252l-.376-.186c-.023-.068-.034-.128-.034-.186 0-.156.067-.302.2-.437-.082-.178-.13-.335-.13-.47 0-.147.048-.265.13-.355-.122-.156-.184-.328-.184-.52 0-.335.206-.713.617-1.127l-.168-.048c.062-.068.094-.137.094-.203 0-.08-.033-.168-.095-.268.25-.104.392-.297.428-.59.175-.055.3-.196.374-.42.063.033.123.052.186.052.112 0 .196-.07.244-.205-.212-.01-.317-.03-.317-.066 0-.055.248-.13.746-.217.102-.55.256-.823.47-.823.06 0 .138.034.223.1-.015-.077-.02-.146-.02-.202 0-.27.187-.382.558-.336.076-.124.18-.272.32-.437v-.137c.288.033.57-.034.86-.2.025.044.048.067.073.067.04 0 .084-.023.13-.068.04.134.15.185.34.15l.09-.335c.188 0 .332-.065.432-.202.248-.022.517.03.802.152m-5.453 13.886l.15-.203c.087.023.174.033.262.033.2 0 .396-.056.596-.167-.036.156-.18.235-.43.235.2.1.3.202.3.302 0 .046-.025.09-.075.135.175 0 .298-.112.373-.336.038.123.126.185.263.185-.038.167.102.313.43.437-.015.056-.02.112-.02.168 0 .247.132.448.393.607.036.224.18.35.428.385.04.26.182.45.43.57.04.225.183.355.43.388.14.652.493 1.037 1.066 1.16.076.292.292.482.653.57.136.36.42.67.86.926.022.193-.05.356-.222.49l.11.285c.073-.066.116-.084.13-.05.025.034.017.11-.02.233-.075.024-.157.035-.243.035-.1 0-.198-.01-.3-.035-.26.293-.532.44-.818.44-.19 0-.384-.064-.58-.185-.102.11-.21.17-.317.17-.175 0-.37-.126-.58-.373h-.338c-.123.17-.268.252-.43.252-.15 0-.323-.083-.52-.252-.24.136-.457.203-.656.203-.21 0-.403-.067-.58-.203-.1.066-.185.1-.26.1-.123 0-.2-.11-.224-.335l-.11.183c-.5-.177-.748-.35-.748-.52 0-.054.016-.106.056-.15-.074-.044-.115-.106-.115-.186 0-.145.115-.34.338-.587-.06-.024-.117-.035-.168-.035-.185 0-.347.107-.484.32l-.15-.285c.175-.26.26-.52.26-.792 0-.268-.085-.547-.26-.84 0-.19.068-.388.204-.59-.11-.12-.18-.296-.205-.518.348-.035.54-.23.58-.59l.427-.05c-.248-.02-.46.045-.637.2-.036-.166-.053-.317-.053-.45 0-.417.16-.73.486-.943 0-.19.013-.414.037-.673.15.054.24.166.28.336M36.396 92.48h-6.45v24.006h6.45V92.48zm17.51 28.07c-4.57 5.02-7.793 8.178-9.663 9.474-1.87 1.294-4.22 1.937-7.057 1.937h-8.402v30.882h-16.39v-32.31c1.61-.865 3.023-1.567 4.245-2.11 1.224-.54 2.158-.81 2.802-.81.45.076.87.108 1.255.108.513 0 1.16-.09 1.93-.27.77-.182 1.965-.556 3.575-1.133-2.77-.864-4.94-1.533-6.52-1.998-1.576-.468-2.62-.703-3.137-.703-.514 0-1.176.36-1.98 1.078-.807.72-1.527 1.26-2.17 1.622v-47.87h27.61c3.216 0 6.34 2.08 9.364 6.245 3.024 4.163 4.538 8.614 4.538 13.35 0 5.672-.577 9.154-1.73 10.446-2.115 2.298-3.62 4.917-4.518 7.86l6.248-4.202v8.403zM103.643 147.295c.323.07.6.127.82.16.228.036.436.057.63.057 0-.217-3.108-1.443-9.326-3.673-6.215-2.235-9.614-3.35-10.192-3.35.256.217.546.397.87.54 4.96 2.23 7.567 3.384 7.827 3.455 2.383.935 5.506 1.873 9.37 2.81m-17.78-6.948c0 .075-.29-.07-.87-.432-.578-.354-1.027-.645-1.35-.86.065.073.275.163.627.272.35.107.88.45 1.59 1.02m-2.748-13.665c-.26-2.24-.615-4.226-1.068-5.962-1.03-3.973-1.58-6.14-1.642-6.503-.78 1.516-1.343 3.807-1.7 6.88-.353 3.066-1.11 5.364-2.27 6.878 2.386-.86 4.614-1.293 6.68-1.293m27.754 35.157c-1.865.356-4.2.736-7 1.13-2.802.396-5.07.592-6.805.592-1.74 0-2.914-.16-3.523-.486-.61-.32-1.11-.843-1.496-1.563-.452-5.248-1.32-9.254-2.606-12.02-1.29-2.77-3.573-4.154-6.854-4.154-1.29 0-2.382-.04-3.282-.12-.904-.08-1.74-.157-2.51-.24-1.545 0-2.542.662-2.994 2.003-.45 1.334-1.03 5.178-1.737 11.528-.193 1.372-.804 2.33-1.836 2.867-1.028.543-2.475.814-4.34.814-.966 0-2.704-.108-5.215-.326-2.51-.215-4.505-.325-5.985-.325 0-1.8.418-4.358 1.255-7.667 2.44-9.787 3.727-14.897 3.856-15.33 1.673 0 2.864-.053 3.573-.162.708-.105 1.54-.448 2.508-1.023-.577-.207-1.158-.363-1.735-.468-.58-.104-1.16-.158-1.74-.158h-2.122c0-1.44.545-4.864 1.64-10.268 2.06-10.165 3.733-18.995 5.02-26.494 1.033-5.907 2.03-10.452 2.997-13.624.578-1.944 1.284-3.422 2.125-4.434.258-.142.74-.324 1.444-.54 1.545-.502 3.286-.755 5.217-.755 2.38 0 5.694.43 9.946 1.295 0 1.154 1.384 6.88 4.158 17.183 2.45 9.222 5.222 19.13 8.318 29.72 3.094 10.593 5.057 16.97 5.896 19.13-.65-.155-1.073-.292-1.265-.407-.197-.113-.327-.175-.39-.175-.325.15-.91.325-1.752.543 1.734.865 3.086 2.158 4.052 3.89.13.212 1.192 3.56 3.186 10.043M131.602 161.755c-1.93-.53-5.015-.798-9.26-.798-4.31 0-7.748.3-10.32.892-.195-2.018-.37-4.558-.532-7.615-.16-3.064-.24-5.853-.24-8.372 0-2.806.128-5.69.39-8.64.258-2.953.385-4.934.385-5.947 0-3.31-.064-5.79-.195-7.447-.127-1.657-.227-3.1-.292-4.323 0-.647.16-1.186.48-1.618.765-.72 1.466-1.44 2.106-2.16-.573-.507-1.27-.757-2.1-.757 0-6.7.065-11.67.197-14.913.387-9.652.584-15.882.584-18.694 1.852 0 5.05-.195 9.59-.593 4.54-.393 7.574-.738 9.113-1.027.063.36.095 1.282.095 2.76V110.223c-3.868.575-6.897 1.658-9.09 3.243.837 0 1.934-.144 3.288-.43 1.354-.293 2.35-.433 2.997-.433.773 0 1.71.212 2.805.644v48.51zM174.978 160.094H167.46c-1.155 0-2.07-.125-2.744-.378-.676-.255-1.367-.776-2.07-1.565-1.673-1.874-3.117-4.82-4.34-8.853 0-.07-1.06-4.248-3.177-12.52-1.482-5.758-2.956-10.402-4.438-13.928-.383 1.593-.704 4.29-.962 8.087-.26 3.802-.383 7.766-.383 11.89 0 3.838.093 7.24.28 10.21.19 2.968.533 5.32 1.037 7.057h-16.388v-81.72h14.292c.26 1.29.39 2.155.39 2.588 0 .505-.355 1.19-1.06 2.05-.32.36-1.185 1.293-2.59 2.802 1.278.215 2.204.323 2.78.323.643 0 1.506-.108 2.594-.323 2.173 7.13 4.002 13.792 5.472 19.982 1.025 4.39 2.145 8.03 3.36 10.904.323-1.222.61-3.973.863-8.255.26-4.285.387-8.8.387-13.552 0-3.385-.065-6.478-.193-9.284-.125-2.807-.475-5.22-1.05-7.235h15.458v59.274h-4.712c-1.287 0-2.48.073-3.573.212-1.098.15-2.35.47-3.766.97 2.315 1.17 4.617 2.04 6.903 2.62 2.285.583 4 .984 5.148 1.196v17.446zM218.516 98.985h-9.668v9.94c-2.437.22-4.367.612-5.777 1.187-.708.293-1.994 1.01-3.85 2.164 1.09.504 2.02.758 2.79.758.643 0 1.46-.2 2.456-.6.997-.392 1.783-.592 2.36-.592s1.254.106 2.022.327v51.538H188.11V116.4c.516-.283 1.318-.788 2.412-1.508.452-.287.81-.432 1.065-.432.324 0 .82.108 1.5.327.672.213 1.462.468 2.363.755.307-.43.555-.974.738-1.622-.323-.074-.784-.11-1.394-.11h-6.683V98.986h-6.67c.69-.942 1.35-1.918 1.978-2.93.627-1.01.94-1.7.94-2.062v-1.735c-1.097 1.015-2.066 1.988-2.906 2.93-1.417 1.664-2.903 2.927-4.45 3.797V77.362h14.865l-1.505 1.647c.767.145 1.312.22 1.637.22.83 0 1.5-.075 2.014-.22l-1.476 1.698.787 1.65c.578-.36 1.157-.757 1.735-1.195.58-.436 1.226-1.7 1.93-3.8h21.526v21.622zM324.546 126.682c-1.492-.833-2.98-1.704-4.473-2.61l-.67-.833 3.13 1.667c.595.35 1.266.942 2.013 1.775m32.026 34.524h-36.384c1.116-1.248 1.952-2.29 2.51-3.123.56-.834.948-1.84 1.173-3.023-1.645 1.39-2.81 2.362-3.478 2.918-1.05.903-2.136 1.98-3.26 3.228h-1.435l.77-26.194c0-1.25-.038-2.4-.118-3.443-.075-1.045-.154-2.087-.23-3.13 0-1.46.206-2.647.624-3.55.413-.904 1.3-1.67 2.66-2.294-1.124-.838-2.08-3.184-2.867-7.045-.784-3.86-1.177-8.506-1.177-13.932 0-5.846.597-11.792 1.794-17.847 2.248.44 6.324.66 12.234.66 4.64 0 7.745-.22 9.315-.66l-.69 53.336c-.6-.347-1.236-.696-1.907-1.043-.674-.348-1.163-.524-1.46-.524-.375.07-.747.104-1.12.104l4.486 4.177c-2.467 1.81-3.966 2.854-4.486 3.132-1.126.346-2.622.902-4.49 1.667.75.21 1.124.748 1.124 1.612 0 .866.34 1.37 1.015 1.507.226-.138.466-.294.73-.47.26-.172.544-.362.84-.572 1.277-1.182 3.878-2.36 7.812-3.54 3.933-1.183 7.51-1.772 10.73-1.772 1.577 0 2.885.14 3.935.418 1.05.278 1.798.833 2.247 1.67.45.835.674 1.91.674 3.232 0 .906-.336 3.686-1.01 8.346-.377 2.574-.562 4.626-.562 6.154" fill="#fff"/><path d="M354.03 118.45c-1.502-.833-2.99-1.702-4.484-2.608l-.67-.836c1.042.557 2.09 1.113 3.132 1.67.6.348 1.273.94 2.02 1.774m32.018 34.558c0-.218-11.782.258-12.674.207-.233-1.465.17-2.276-.818-3.542.6.69-.283.897-.654 1.336-.52.61-.624.932-.585 1.756-2.215.62-5.102.242-7.386.242h-12.353c-.243 0-1.743-.19-1.915 0 1.116-1.252 1.957-2.293 2.514-3.13.56-.834.952-1.843 1.174-3.026-1.65 1.39-2.81 2.364-3.484 2.92-1.05.91-2.137 1.984-3.262 3.236h-1.435l.757-26.202c0-1.25-.032-2.402-.11-3.446l-.228-3.13c0-3.125-.02-6.263-.02-9.398 0-2.336.495-4.603.02-6.927-.697-3.41-.757-7-.757-10.504 0-5.844.596-11.794 1.796-17.852 2.245.435 6.33.65 12.24.65 4.647 0 7.755-.215 9.33-.65v.12c0 5.828-.028 11.66-.07 17.485-.02 2.962-.062 5.923-.152 8.884-.082 2.605.463 5.448.065 8.004-.205 1.363-1.262 2.333-1.665 3.577-.195.594-.07 1.155-.464 1.692-1.59.283-3.283-.564-4.846-.77 1.51 1.17 3.565 3.262 5.742 3.504.194 3.698-.158 7.433-.386 11.11-.057.917.258 1.736-.13 2.62-.66 1.497-1.398 2.23-1.133 4.01.705.075 1.45-.038 2.148-.148 2.91-.457 5.85-.01 8.762-.395 1.952-.253 3.653.056 5.162-1.216.592-.5 1.072-.916 1.792-1.15 1.088-.354 2.35.012 3.443-.327-.56 2.545 1.198 4.323 1.117 6.61-.09 2.564-.615 5.167-.98 7.696-.372 2.574-.558 4.628-.558 6.155M246.335 114.316h-10.617v-11.718h10.617v11.718zm-.395 30.88h-11.104v-9.62h11.104v9.62zm19.49-.436c-1.368-2.64-2.167-4.31-2.395-5.01-.156-.625.09-1.754.732-3.387.645-1.63.85-2.728.62-3.29-.387-.9-1.5-2.22-3.347-3.96-1.85-1.736-2.85-2.902-3.002-3.494-.158-.592-.23-1.166-.23-1.722 0-1.25.61-2.783 1.836-4.592 2.527-3.686 3.79-5.772 3.79-6.26 0-12.445-.462-20.027-1.387-22.742-.458-1.318-2.154-2.5-5.08-3.543-2.072-.627-7.845-.94-17.31-.94h-22.393s.624 5.688 1.26 13.106c3.278.337 3.496 3.186 3.496 3.186-.442-.292-.91-.443-1.375-.522-.4-.047-.82-.056-1.184-.048-.25.026-.486.06-.708.11.825 10.17 1.548 22.49.798 28.127-.844 6.354-1.806 12.388-2.286 17.93v10.43c.617 0 1.193.38 1.73 1.145 1.003 1.45 1.81 2.18 2.428 2.18.922 0 4.04.09 9.35.254 5.316.17 9.513.254 12.593.254 4.31 0 8.043-.228 11.202-.678 3.153-.457 5.504-1.236 7.042-2.35 1.69-1.25 2.89-2.935 3.58-5.055.692-2.122 1.04-4.297 1.04-6.523 0-.767-.264-1.632-.8-2.607" fill="#fff"/><path d="M315.487 148.04c.38.07.695.12.958.154.267.037.5.052.732.052 0-.206-3.617-1.393-10.85-3.547-7.233-2.157-11.186-3.232-11.865-3.232.302.207.638.38 1.014.52 5.77 2.158 8.806 3.268 9.104 3.335 2.776.908 6.41 1.81 10.907 2.717m-20.686-6.59c0 .068-.338-.07-1.01-.417-.676-.348-1.202-.628-1.572-.835.074.07.315.156.728.26.41.104 1.03.436 1.855.992m-3.255-13.307c-.306-2.155-.715-4.07-1.24-5.74-1.2-3.827-1.838-5.916-1.914-6.264-.9 1.46-1.56 3.67-1.972 6.627-.41 2.96-1.293 5.167-2.643 6.628 2.776-.837 5.366-1.252 7.77-1.252m32.34 33.985c-2.17.348-4.887.714-8.144 1.092-3.252.388-5.892.575-7.914.575-2.02 0-3.39-.156-4.1-.47-.713-.31-1.293-.81-1.74-1.505-.524-5.06-1.535-8.923-3.03-11.596-1.5-2.664-4.155-4.002-7.977-4.002-1.497 0-2.768-.04-3.82-.12-1.044-.078-2.02-.16-2.916-.242-1.795 0-2.957.646-3.48 1.937-.524 1.29-1.198 5.003-2.023 11.14-.225 1.325-.935 2.25-2.133 2.77-1.2.522-2.88.787-5.053.787-1.12 0-3.14-.107-6.064-.328-2.92-.213-5.24-.323-6.962-.323 0-1.74.486-4.202 1.464-7.4 2.848-9.452 4.348-14.385 4.5-14.8 1.948 0 3.33-.055 4.156-.157.82-.108 1.8-.437 2.922-.996-.677-.22-1.35-.384-2.024-.493-.674-.11-1.35-.16-2.02-.16h-2.474c0-1.393.64-4.698 1.913-9.918 2.39-9.813 4.337-18.334 5.836-25.57 1.194-5.706 2.355-10.087 3.483-13.15.67-1.877 1.49-3.307 2.464-4.28.298-.14.863-.31 1.685-.522 1.794-.484 3.817-.73 6.06-.73 2.77 0 6.624.418 11.564 1.252 0 1.115 1.613 6.645 4.834 16.593 2.853 8.904 6.078 18.47 9.676 28.696 3.6 10.224 5.887 16.383 6.865 18.47-.76-.133-1.25-.252-1.478-.35-.224-.102-.374-.152-.452-.152-.378.134-1.055.31-2.042.518 2.024.834 3.597 2.085 4.72 3.747.15.208 1.384 3.44 3.706 9.685" fill="#fff"/><path d="M304.815 82.834c1.477.53 5.64-1.198 5.263-3.3 1.116.056 2.18.142 3.3-.128 1.348-.325 2.643-.042 4.08.02 3.88.178 8.337-2.817 10.46-5.953-.608-1.018-2.843-1.31-3.876-1.496-3.894-.702-7.846-1.637-11.812-1.765-3.435-.113-6.922-.345-10.34.054-2.1.246-4.2.695-6.28.876-.73.063-2.187-.347-2.734.32-.222.275-.147 1.06-.183 1.46-.08.94-.1 1.86-.03 2.8.142 1.857.58 3.845 1.047 5.64.56 2.13 1.51 4.145 1.896 6.304.447 2.494 1.48 4.963 2.157 7.41 1.482 5.355 2.748 10.77 4.184 16.134l4.156 15.547c.05-.016.102-.032.15-.05 4.052-1.44 7.852-4.765 8.31-9.24.473-4.56-2.224-8.922-4.93-12.338-1.83-2.314-3.742-4.462-4.526-7.383-.73-2.712-.712-5.604-.386-8.374 0 0 .83-3.314.187-6.54" fill="#fff"/><path d="M331.52 45.994c0 12.13-9.83 21.966-21.958 21.966-12.133 0-21.963-9.835-21.963-21.966 0-12.127 9.83-21.96 21.962-21.96 12.128 0 21.96 9.833 21.96 21.96" fill="#00aeef"/><path d="M300.516 38.87c-2.105.864-4.15 3.653-6.26 4.917-2.456 1.48-4.813 2.978-7.118 4.67-6.4 4.723-3.78 13.38.108 18.95 2.335 3.35 3.034 7.025 8.23 6.61.307 3.956.484 7.165 2.06 10.763 1.46 3.337 1.946 6.895 2.195 10.68.216 3.153.468 6.967 0 10.085-.403 2.71-2.232 4.93-2.69 7.6-1.227 7.18 5.566 14.566 11.928 9.188 8.03-6.79-.01-10.94-3.596-17.425-2.426-4.378-3.333-10.157-2.502-14.96.364-2.107-1.432-6.82-.196-8.477.55-.736 2.54-.185 3.46-1.056 1.04-.98 1.434-2.514 1.288-3.866 1.54.243 2.955.644 4.37.34 1.907-.403.1-2.44 3.13-1.495 2.192.69.053 3.042 3.32 1.915 1.42-.494 2.393-2.205 3.147-3.354 1.902-2.91.615-4.752 1.614-7.987.795-2.592 3.296-3.055 4.598-5.444 1.285-2.376 1.097-5.943 1.133-8.703.042-3.412 1.13-5.842-1.516-7.26-1.12-.6-3.13-.422-4.507-1.095-2.002-.976-3.327-2.844-5.813-3.564-3.866-1.11-8.95-.988-12.988-.868-1.055.032-2.266-.632-3.396-.163" fill="#00aeef"/><path d="M304.576 25.998c-2.388 0-5.148-.35-7.328.622-2.18.97-3.457 3.527-5.484 4.72-1.866 1.096-3.65 1.37-6.055.476-1.278-.476-3.835-3.366-3.998-.14 1.314.828 3.34.162 4.34 1.316 1.086 1.26.58 3.515-1.16 3.55.394 2.85.484 4.29-2.868 5.11-.62 3.274 2.816 4.456 3.704 7.017 1.876 5.394-2.408 5.782-5.986 7.964-7.102 4.327 4.927 2.592 7.673 3.104 3.427.65 3.9 2.63 5.12 5.675 3.273.21 6.646-.476 9.58 1.313 3.365 2.05 4.41 3.327 8.763 2.88 3.088-.32 5.404-1.748 8.33-.015.884.525 1.952 2.437 2.86 2.648 1.412.326 2.568-1.127 4.15-1.367 1.123-.166 2.985.75 3.766.033 1.04-.958.27-3.303-.24-4.237-1.15-2.132-5.42-3.164-4.1-5.96.58-1.214 2.63-1.025 3.377-1.667 1.38-1.194.996-1.825 1.65-3.118 1.555-3.094 2.404-4.742 5.348-6.766 1.545-1.065 9.52-5.734 7.396-7.813-1.376-1.344-5.217 4.472-7.97 4.072-2.53-.37-4.05-3.265-3.836-5.407.188-1.914 2.404-2.22.592-4.693-1.29-1.762-3.562-1.792-5.615-1.722-.457-3.72-.383-4.075-3.646-5.94-4.48-2.568-1.157-2.408-1.804-6.76-.61-4.04-6.265-4.963-7.983-1.56-.393.783.095 2.136-.28 2.94-.564 1.215-2.423-.53-1.98 2.102-2.746.563-4.373-1.634-7.225-1.194.27 1.417-.497 2.542-1.638 2.818" fill="#00aeef"/></svg>