<svg xmlns="http://www.w3.org/2000/svg" width="404.045" height="253.043"><path d="M380.25 76.427c17.212 64.176-52.51 138.612-155.703 166.265C121.364 270.332 23.78 240.72 6.58 176.555-10.607 112.39 59.1 37.958 162.294 10.302 265.48-17.34 363.064 12.264 380.25 76.427" fill="#fff200"/><path d="M386.855 126.578c0 66.427-86.604 120.278-193.427 120.278C86.602 246.856 0 193.006 0 126.578c0-66.44 86.602-120.3 193.428-120.3 106.823 0 193.427 53.86 193.427 120.3" fill="#176fc1"/><path d="M304.382 159.45l-1.657 4.2c-1.516-.702-2.425-2.38-2.425-4.773 0-2.065.464-3.85 1.095-5.787l2.987 6.36zm-71.41-27.35c-5.79 0-10.596-4.973-10.596-23.41 0-6.3.56-11.014 1.528-14.515h.142c5.786 0 10.608 4.972 10.608 23.42 0 6.276-.588 11.004-1.54 14.504h-.14zm110.624-66.08l-8.912 8.902-3.92 14.074-6.404-22.977h-50.676l-4.318 5.556c-9.274-5.113-21.46-7.96-36.393-7.96-21.5 0-37.29 5.893-46.922 15.963-.37.348-.733.722-1.104 1.106-.374.363-.756.736-1.112 1.11-.384.36-.745.734-1.12 1.108-.372.375-.744.746-1.106 1.12-.386.362-.758.748-1.114 1.11-.392.372-.76.733-1.116 1.118-.104.083-.198.188-.28.27V28.167h-55.66l-8.9 8.914V69.23H87.35V28.167H31.697l-8.907 8.914v123.16h55.656l8.903-8.903v-38.893h27.19v47.795h55.642l8.917-11.62c9.742 8.88 24.863 14.036 44.946 14.036 21.504 0 37.292-5.892 46.918-15.964.372-.373.745-.733 1.107-1.108.377-.36.76-.735 1.122-1.12.373-.36.747-.734 1.098-1.107.383-.364.767-.747 1.12-1.11.385-.375.746-.747 1.12-1.12.384-.362.76-.735 1.11-1.12.37-.352.755-.738 1.105-1.11 4.2-4.05 7.33-8.81 9.35-14.198L300.6 151.4l-20.828 3.148c-.188.327-.363.677-.55 1.027l-.56.083c-.198.325-.37.676-.56 1.037l-.558.083c-.175.326-.374.674-.548 1.025l-.574.084c-.173.338-.36.676-.536 1.036l-.574.07c-.184.34-.36.69-.546 1.04l-.56.08c-.187.327-.364.678-.56 1.04l-.562.08c-.186.327-.362.678-.537 1.03l-.573.078c-.184.34-.372.667-.547 1.03l-.557.092c-1.45 2.557-2.744 5.928-2.744 10.105 0 11.063 8.026 21.33 30.476 21.33 13.522 0 22.72-4.012 29.743-11.294.384-.373.745-.736 1.122-1.118.37-.364.743-.725 1.104-1.122.377-.352.747-.736 1.12-1.11.377-.363.747-.735 1.12-1.11.363-.36.747-.733 1.1-1.117.372-.363.746-.735 1.118-1.108.384-.363.746-.737 1.12-1.123 4.39-4.2 7.96-9.614 11.135-16.112l46.027-93.664h-49.72" fill="#231f20"/><path d="M304.382 159.45l-1.657 4.2c-1.516-.702-2.425-2.38-2.425-4.773 0-2.065.464-3.85 1.095-5.787l2.987 6.36zm-71.41-27.35c-5.79 0-10.596-4.973-10.596-23.41 0-6.3.56-11.014 1.528-14.515h.142c5.786 0 10.608 4.972 10.608 23.42 0 6.276-.588 11.004-1.54 14.504h-.14zm110.624-66.08l-8.912 8.902-3.92 14.074-6.404-22.977h-50.676l-4.318 5.556c-9.274-5.113-21.46-7.96-36.393-7.96-21.5 0-37.29 5.893-46.922 15.963-.37.348-.733.722-1.104 1.106-.374.363-.756.736-1.112 1.11-.384.36-.745.734-1.12 1.108-.372.375-.744.746-1.106 1.12-.386.362-.758.748-1.114 1.11-.392.372-.76.733-1.116 1.118-.104.083-.198.188-.28.27V28.167h-55.66l-8.9 8.914V69.23H87.35V28.167H31.697l-8.907 8.914v123.16h55.656l8.903-8.903v-38.893h27.19v47.795h55.642l8.917-11.62c9.742 8.88 24.863 14.036 44.946 14.036 21.504 0 37.292-5.892 46.918-15.964.372-.373.745-.733 1.107-1.108.377-.36.76-.735 1.122-1.12.373-.36.747-.734 1.098-1.107.383-.364.767-.747 1.12-1.11.385-.375.746-.747 1.12-1.12.384-.362.76-.735 1.11-1.12.37-.352.755-.738 1.105-1.11 4.2-4.05 7.33-8.81 9.35-14.198L300.6 151.4l-20.828 3.148c-.188.327-.363.677-.55 1.027l-.56.083c-.198.325-.37.676-.56 1.037l-.558.083c-.175.326-.374.674-.548 1.025l-.574.084c-.173.338-.36.676-.536 1.036l-.574.07c-.184.34-.36.69-.546 1.04l-.56.08c-.187.327-.364.678-.56 1.04l-.562.08c-.186.327-.362.678-.537 1.03l-.573.078c-.184.34-.372.667-.547 1.03l-.557.092c-1.45 2.557-2.744 5.928-2.744 10.105 0 11.063 8.026 21.33 30.476 21.33 13.522 0 22.72-4.012 29.743-11.294.384-.373.745-.736 1.122-1.118.37-.364.743-.725 1.104-1.122.377-.352.747-.736 1.12-1.11.377-.363.747-.735 1.12-1.11.363-.36.747-.733 1.1-1.117.372-.363.746-.735 1.118-1.108.384-.363.746-.737 1.12-1.123 4.39-4.2 7.96-9.614 11.135-16.112l46.027-93.664h-49.72z" fill="none" stroke="#231f20" stroke-width="13.366" stroke-linecap="square"/><path d="M124.56 150.23v-47.793H88.47v47.794H32.81V27.05h55.66v41.06h36.09V27.05h55.64v123.18h-55.64" fill="#fff"/><path d="M124.56 150.23v-47.793H88.47v47.794H32.81V27.05h55.66v41.06h36.09V27.05h55.64v123.18h-55.64z" fill="none" stroke="#fff" stroke-width="6.683" stroke-linecap="square"/><path d="M234.066 84.152c-5.764 0-10.57 4.972-10.57 23.418 0 18.436 4.806 23.41 10.57 23.41 5.788 0 10.597-4.974 10.597-23.41 0-18.446-4.81-23.418-10.597-23.418zm0 68.483c-37.674 0-57.887-18.12-57.887-45.065 0-26.94 20.212-45.074 57.886-45.074 37.7 0 57.91 18.133 57.91 45.074 0 26.945-20.21 45.065-57.91 45.065" fill="#fff"/><path d="M234.066 84.152c-5.764 0-10.57 4.972-10.57 23.418 0 18.436 4.806 23.41 10.57 23.41 5.788 0 10.597-4.974 10.597-23.41 0-18.446-4.81-23.418-10.597-23.418zm0 68.483c-37.674 0-57.887-18.12-57.887-45.065 0-26.94 20.212-45.074 57.886-45.074 37.7 0 57.91 18.133 57.91 45.074 0 26.945-20.21 45.065-57.91 45.065z" fill="none" stroke="#fff" stroke-width="6.683" stroke-linecap="square"/><path d="M348.407 158.563c-8.178 16.686-18.762 26.31-39.778 26.31-22.45 0-30.48-10.268-30.48-21.342 0-4.163 1.285-7.533 2.732-10.09l22.285-3.373c-.956 2.72-1.75 4.97-1.75 7.688 0 3.222 1.6 5.136 4.168 5.136 2.73 0 4.164-1.76 6.103-6.568l2.718-6.897-39.616-84.512h50.688l9.625 34.468 9.62-34.467h49.716l-46.033 93.65" fill="#fff"/><path d="M348.407 158.563c-8.178 16.686-18.762 26.31-39.778 26.31-22.45 0-30.48-10.268-30.48-21.342 0-4.163 1.285-7.533 2.732-10.09l22.285-3.373c-.956 2.72-1.75 4.97-1.75 7.688 0 3.222 1.6 5.136 4.168 5.136 2.73 0 4.164-1.76 6.103-6.568l2.718-6.897-39.616-84.512h50.688l9.625 34.468 9.62-34.467h49.716l-46.033 93.65z" fill="none" stroke="#fff" stroke-width="6.683" stroke-linecap="square"/><path d="M124.56 150.23v-47.793H88.47v47.794H32.81V27.05h55.66v41.06h36.09V27.05h55.64v123.18h-55.64" fill="#ed1c24"/><path d="M234.066 84.152c-5.764 0-10.57 4.972-10.57 23.418 0 18.436 4.806 23.41 10.57 23.41 5.788 0 10.597-4.974 10.597-23.41 0-18.446-4.81-23.418-10.597-23.418zm0 68.483c-37.674 0-57.887-18.12-57.887-45.065 0-26.94 20.212-45.074 57.886-45.074 37.7 0 57.91 18.133 57.91 45.074 0 26.945-20.21 45.065-57.91 45.065" fill="#ed1c24"/><path d="M348.407 158.563c-8.178 16.686-18.762 26.31-39.778 26.31-22.45 0-30.48-10.268-30.48-21.342 0-4.163 1.285-7.533 2.732-10.09l22.285-3.373c-.956 2.72-1.75 4.97-1.75 7.688 0 3.222 1.6 5.136 4.168 5.136 2.73 0 4.164-1.76 6.103-6.568l2.718-6.897-39.616-84.512h50.688l9.625 34.468 9.62-34.467h49.716l-46.033 93.65" fill="#ed1c24"/><path d="M60.092 200.24v-28.06h12.544v6.206h-5.334v3.98h4.33v6.126h-4.33v5.532h5.367v6.217H60.09M73.72 200.24v-27.3l6.815-1.93v29.23H73.72M94.888 184.443c-.158 0-.2 0-.35.095v10.336c.15.08.192.08.35.08.525 0 .723-.24.723-5.26 0-5.077-.197-5.25-.722-5.25zm2.45 16.24c-1.12 0-2.008-.475-2.8-1.35v6.72l-6.83 1.927v-28.787h6.83v1c.955-.965 1.83-1.433 3.155-1.433 2.888 0 4.732 2.24 4.732 10.815 0 8.86-1.88 11.11-5.086 11.11M110.36 183.72c-.315 0-.56.327-.596 3.814h1.203c0-3.324-.157-3.813-.608-3.813zm-.438 7.817c.04 3.418.204 3.933.683 3.933.444 0 .6-.56.722-2.975l5.975 1.33c-.606 4.13-2.53 6.86-6.732 6.86-5.252 0-7.38-3.805-7.38-10.782 0-8.143 2.765-11.143 7.17-11.143 4.013 0 6.977 2.286 6.977 11.622v1.155h-7.415M128.844 185.844c-.684-.516-1.204-.713-2.043-.713-.717 0-1.32.198-1.8.714v14.397h-6.824v-21.047H125v1.12c.69-.888 1.598-1.48 2.676-1.48.98 0 1.376.125 1.818.288l-.65 6.724M130.206 200.24v-21.047h6.82v21.048h-6.82zm3.416-22.052c-2.246 0-3.775-1.285-3.775-3.29 0-1.996 1.53-3.29 3.775-3.29s3.773 1.294 3.773 3.29c0 2.005-1.528 3.29-3.773 3.29M145.37 184.047c-.496 0-.518 1.084-.518 5.61 0 4.62.022 5.696.548 5.696.495 0 .53-1.038.53-5.565 0-4.786-.074-5.74-.56-5.74zm1.68-6.057h-5.208l2.163-6.417h8.78l-5.735 6.417zm-1.753 22.694c-4.297 0-7.3-2.603-7.3-10.85 0-7.994 2.64-11.074 7.452-11.074 4.407 0 7.296 2.72 7.296 10.898 0 8.297-2.89 11.026-7.45 11.026M161.404 184.558c-.166-.072-.207-.072-.37-.072-.513 0-.71.247-.71 5.254 0 5.088.197 5.25.71 5.25.163 0 .204 0 .37-.08v-10.352zm0 15.683v-.988c-.964.956-1.837 1.432-3.162 1.432-2.89 0-4.732-2.248-4.732-10.825 0-8.86 1.884-11.1 5.09-11.1 1.127 0 2.006.468 2.804 1.353v-7.173l6.813-1.93v29.23h-6.813M169.39 200.24v-21.047h6.81v21.048h-6.81zm3.4-22.052c-2.246 0-3.773-1.285-3.773-3.29 0-1.996 1.527-3.29 3.773-3.29 2.247 0 3.772 1.294 3.772 3.29 0 2.005-1.525 3.29-3.772 3.29M184.175 200.684c-3.92 0-7.015-2.366-7.015-10.85 0-8.238 2.72-11.074 7.015-11.074 4.443 0 6.418 3.162 6.73 7.9l-5.892 1.075c0-3.118-.15-3.688-.475-3.688-.48 0-.516 1.084-.516 5.61 0 4.62.035 5.696.56 5.696.356 0 .478-.56.478-3.97l5.897 1.354c-.442 5.51-2.734 7.947-6.782 7.947M198.9 184.047c-.492 0-.526 1.084-.526 5.61 0 4.62.034 5.696.56 5.696.478 0 .526-1.038.526-5.565 0-4.786-.084-5.74-.56-5.74zm-.084 16.637c-4.292 0-7.3-2.603-7.3-10.85 0-7.994 2.646-11.074 7.454-11.074 4.423 0 7.305 2.72 7.305 10.898 0 8.297-2.882 11.026-7.46 11.026M127.886 213.52c-.165-.08-.21-.08-.362-.08-.526 0-.723.255-.723 5.263 0 5.084.198 5.248.724 5.248.152 0 .197 0 .362-.08v-10.35zm0 23.417v-8.74c-.968.96-1.846 1.446-3.168 1.446-2.887 0-4.733-2.25-4.733-10.814 0-8.87 1.89-11.11 5.09-11.11 1.118 0 2.01.48 2.81 1.353v-.933h6.815v26.877l-6.814 1.92M143.56 229.202v-1.048c-1.113.93-2.284 1.49-3.925 1.49-2.37 0-3.896-1.213-3.896-4.69V208.14h6.817v15.124c0 .443.166.642.456.642.146 0 .356-.035.546-.12V208.14h6.817v21.062h-6.818M158.486 212.678c-.33 0-.57.32-.613 3.817h1.214c0-3.338-.162-3.817-.6-3.817zm-.448 7.82c.04 3.408.204 3.933.687 3.933.437 0 .595-.56.718-2.976l5.975 1.33c-.615 4.133-2.534 6.86-6.74 6.86-5.248 0-7.384-3.814-7.384-10.79 0-8.132 2.777-11.134 7.192-11.134 4.003 0 6.97 2.275 6.97 11.623v1.156h-7.418M182.132 236.624h-7.257l1.288-5.86-4.534-22.624h7.294l.395 4.857c.287 3.584.56 6.906.69 10.84.115-3.934.394-7.226.676-10.84l.407-4.857h6.97l-5.93 28.484M194.885 212.997c-.49 0-.525 1.095-.525 5.622 0 4.606.035 5.696.554 5.696.492 0 .53-1.052.53-5.58 0-4.773-.087-5.74-.56-5.74zm-.082 16.646c-4.294 0-7.3-2.598-7.3-10.86 0-7.98 2.646-11.063 7.46-11.063 4.413 0 7.297 2.708 7.297 10.9 0 8.297-2.884 11.023-7.457 11.023M216.938 213.52c-.16-.08-.203-.08-.372-.08-.514 0-.712.255-.712 5.263 0 5.084.198 5.248.712 5.248.17 0 .21 0 .372-.08v-10.35zm0 23.417v-8.74c-.96.96-1.844 1.446-3.17 1.446-2.886 0-4.733-2.25-4.733-10.814 0-8.87 1.883-11.11 5.092-11.11 1.125 0 2.004.48 2.81 1.353v-.933h6.814v26.877l-6.812 1.92M232.61 229.202v-1.048c-1.12.93-2.273 1.49-3.935 1.49-2.366 0-3.884-1.213-3.884-4.69V208.14h6.816v15.124c0 .443.163.642.445.642.152 0 .358-.035.56-.12V208.14h6.814v21.062h-6.814M240.59 229.202V208.14h6.817v21.062h-6.816zm3.406-22.05c-2.24 0-3.767-1.285-3.767-3.293s1.527-3.28 3.766-3.28c2.24 0 3.78 1.272 3.78 3.28 0 2.007-1.54 3.29-3.78 3.29M255.548 212.678c-.326 0-.56.32-.605 3.817h1.2c0-3.338-.15-3.817-.595-3.817zm-.443 7.82c.05 3.408.2 3.933.674 3.933.444 0 .61-.56.74-2.976l5.96 1.33c-.594 4.133-2.52 6.86-6.732 6.86-5.26 0-7.374-3.814-7.374-10.79 0-8.132 2.765-11.134 7.174-11.134 4.004 0 6.977 2.275 6.977 11.623v1.156h-7.42M274.034 214.806c-.678-.514-1.205-.714-2.043-.714-.726 0-1.343.2-1.808.714v14.396h-6.815V208.14h6.815v1.135c.69-.88 1.61-1.484 2.695-1.484.958 0 1.353.12 1.783.28l-.626 6.736M281.723 212.997c-.48 0-.526 1.095-.526 5.622 0 4.606.047 5.696.572 5.696.478 0 .523-1.052.523-5.58 0-4.773-.094-5.74-.57-5.74zm-.084 16.646c-4.294 0-7.29-2.598-7.29-10.86 0-7.98 2.648-11.063 7.464-11.063 4.402 0 7.28 2.708 7.28 10.9 0 8.297-2.878 11.023-7.455 11.023" fill="#231f20"/><path d="M62.31 198.022v-28.07h12.555v6.218h-5.333v3.968h4.328v6.135h-4.328v5.533H74.9v6.216H62.31M75.948 198.022V170.71l6.816-1.927v29.24h-6.816M97.115 182.215c-.162 0-.203 0-.36.08v10.347c.157.086.198.086.36.086.526 0 .726-.246.726-5.263 0-5.088-.2-5.25-.725-5.25zm2.452 16.243c-1.12 0-2.008-.48-2.812-1.354v6.732l-6.816 1.927v-28.8h6.815v1.016c.962-.983 1.85-1.447 3.173-1.447 2.883 0 4.726 2.24 4.726 10.817 0 8.854-1.89 11.108-5.087 11.108M112.593 181.49c-.322 0-.564.33-.6 3.816h1.195c0-3.325-.152-3.815-.595-3.815zm-.448 7.83c.047 3.408.212 3.92.688 3.92.432 0 .595-.546.724-2.962l5.976 1.33c-.596 4.13-2.522 6.85-6.747 6.85-5.245 0-7.373-3.805-7.373-10.78 0-8.147 2.765-11.145 7.18-11.145 4.01 0 6.978 2.273 6.978 11.632v1.155h-7.425M131.07 183.628c-.676-.53-1.2-.738-2.04-.738-.714 0-1.325.208-1.81.738v14.394h-6.8v-21.06h6.8v1.133c.688-.888 1.612-1.494 2.695-1.494.965 0 1.36.12 1.797.282l-.64 6.746M132.437 198.022v-21.06h6.82v21.06h-6.82zm3.408-22.062c-2.243 0-3.77-1.285-3.77-3.29 0-1.996 1.527-3.28 3.77-3.28 2.246 0 3.774 1.284 3.774 3.28 0 2.005-1.53 3.29-3.775 3.29M147.594 181.82c-.473 0-.525 1.07-.525 5.61 0 4.608.05 5.696.565 5.696.483 0 .52-1.043.52-5.58 0-4.772-.073-5.727-.56-5.727zm1.68-6.047h-5.212l2.166-6.43h8.787l-5.74 6.43zm-1.755 22.685c-4.29 0-7.307-2.615-7.307-10.867 0-7.977 2.65-11.057 7.468-11.057 4.406 0 7.293 2.718 7.293 10.897 0 8.308-2.887 11.028-7.454 11.028M163.64 182.342c-.162-.08-.212-.08-.364-.08-.526 0-.723.243-.723 5.25 0 5.087.197 5.25.723 5.25.152 0 .202 0 .363-.068v-10.352zm0 15.68v-1.002c-.966.958-1.847 1.438-3.177 1.438-2.88 0-4.73-2.254-4.73-10.833 0-8.852 1.89-11.092 5.092-11.092 1.126 0 2.007.464 2.814 1.365v-7.19l6.812-1.925v29.24h-6.813M171.612 198.022v-21.06h6.81v21.06h-6.81zm3.396-22.062c-2.233 0-3.764-1.285-3.764-3.29 0-1.996 1.53-3.28 3.764-3.28 2.26 0 3.787 1.284 3.787 3.28 0 2.005-1.528 3.29-3.787 3.29M186.407 198.458c-3.932 0-7.017-2.358-7.017-10.867 0-8.223 2.726-11.057 7.017-11.057 4.454 0 6.412 3.16 6.738 7.888l-5.897 1.085c0-3.128-.158-3.686-.484-3.686-.48 0-.518 1.07-.518 5.61 0 4.608.04 5.696.554 5.696.368 0 .492-.573.492-3.967l5.89 1.362c-.443 5.485-2.72 7.936-6.775 7.936M201.117 181.82c-.477 0-.528 1.07-.528 5.61 0 4.608.05 5.696.566 5.696.486 0 .524-1.043.524-5.58 0-4.772-.067-5.727-.563-5.727zm-.078 16.638c-4.298 0-7.3-2.615-7.3-10.867 0-7.977 2.652-11.057 7.465-11.057 4.41 0 7.3 2.718 7.3 10.897 0 8.308-2.89 11.028-7.466 11.028M130.11 211.29c-.165-.08-.195-.08-.363-.08-.515 0-.718.246-.718 5.26 0 5.09.202 5.253.717 5.253.168 0 .198 0 .363-.083v-10.35zm0 23.43v-8.75c-.966.97-1.84 1.448-3.163 1.448-2.883 0-4.738-2.253-4.738-10.83 0-8.868 1.883-11.108 5.104-11.108 1.12 0 1.996.478 2.796 1.366v-.92h6.82v26.872l-6.82 1.92M145.785 226.976v-1.04c-1.114.91-2.277 1.482-3.92 1.482-2.37 0-3.887-1.204-3.887-4.702v-16.79h6.81v15.11c0 .452.16.654.437.654.168 0 .37-.05.56-.13v-15.635h6.82v21.05h-6.82M160.71 210.452c-.33 0-.562.326-.604 3.815h1.21c0-3.336-.164-3.815-.606-3.815zm-.444 7.815c.034 3.423.197 3.936.682 3.936.438 0 .603-.563.72-2.966l5.976 1.318c-.597 4.145-2.524 6.863-6.74 6.863-5.248 0-7.378-3.806-7.378-10.796 0-8.132 2.77-11.142 7.184-11.142 4.003 0 6.97 2.298 6.97 11.625v1.162h-7.414M184.363 234.383h-7.268l1.292-5.835-4.527-22.623h7.29l.41 4.853c.267 3.57.556 6.896.675 10.827.12-3.93.4-7.22.68-10.827l.407-4.853h6.967l-5.927 28.458M197.106 210.778c-.477 0-.516 1.073-.516 5.613 0 4.61.04 5.694.56 5.694.48 0 .524-1.05.524-5.577 0-4.775-.08-5.73-.568-5.73zm-.073 16.64c-4.294 0-7.303-2.614-7.303-10.865 0-7.983 2.647-11.073 7.465-11.073 4.418 0 7.3 2.733 7.3 10.91 0 8.31-2.882 11.028-7.462 11.028M219.157 211.29c-.154-.08-.194-.08-.352-.08-.525 0-.727.246-.727 5.26 0 5.09.202 5.253.727 5.253.158 0 .198 0 .352-.083v-10.35zm0 23.43v-8.75c-.948.97-1.846 1.448-3.15 1.448-2.906 0-4.75-2.253-4.75-10.83 0-8.868 1.888-11.108 5.1-11.108 1.12 0 2.005.478 2.8 1.366v-.92h6.826v26.872l-6.826 1.92M234.836 226.976v-1.04c-1.118.91-2.286 1.482-3.918 1.482-2.37 0-3.9-1.204-3.9-4.702v-16.79h6.827v15.11c0 .452.153.654.432.654.166 0 .35-.05.56-.13v-15.635h6.816v21.05h-6.817M242.808 226.976v-21.05h6.827v21.05h-6.827zm3.42-22.054c-2.24 0-3.77-1.285-3.77-3.293 0-1.994 1.53-3.29 3.77-3.29s3.767 1.296 3.767 3.29c0 2.007-1.526 3.292-3.767 3.292M257.778 210.452c-.328 0-.56.326-.607 3.815h1.204c0-3.336-.166-3.815-.596-3.815zm-.443 7.815c.035 3.423.197 3.936.678 3.936.443 0 .607-.563.72-2.966l5.966 1.318c-.597 4.145-2.523 6.863-6.724 6.863-5.263 0-7.387-3.806-7.387-10.796 0-8.132 2.766-11.142 7.188-11.142 4 0 6.966 2.298 6.966 11.625v1.162h-7.41M276.25 212.573c-.675-.512-1.193-.722-2.042-.722-.726 0-1.322.21-1.796.723v14.403h-6.826v-21.05h6.826v1.118c.674-.888 1.598-1.493 2.684-1.493.956 0 1.366.127 1.807.302l-.652 6.72M283.962 210.778c-.49 0-.537 1.073-.537 5.613 0 4.61.047 5.694.563 5.694.486 0 .535-1.05.535-5.577 0-4.775-.082-5.73-.56-5.73zm-.095 16.64c-4.292 0-7.29-2.614-7.29-10.865 0-7.983 2.647-11.073 7.453-11.073 4.412 0 7.305 2.733 7.305 10.91 0 8.31-2.893 11.028-7.468 11.028" fill="#fff"/></svg>