<?xml version="1.0" encoding="UTF-8" standalone="no"?>
<!-- Created with Inkscape (http://www.inkscape.org/) -->

<svg
   xmlns:dc="http://purl.org/dc/elements/1.1/"
   xmlns:cc="http://creativecommons.org/ns#"
   xmlns:rdf="http://www.w3.org/1999/02/22-rdf-syntax-ns#"
   xmlns:svg="http://www.w3.org/2000/svg"
   xmlns="http://www.w3.org/2000/svg"
   xmlns:sodipodi="http://sodipodi.sourceforge.net/DTD/sodipodi-0.dtd"
   xmlns:inkscape="http://www.inkscape.org/namespaces/inkscape"
   version="1.1"
   id="svg2"
   xml:space="preserve"
   width="400"
   height="170.83888"
   viewBox="0 0 400 170.83888"
   sodipodi:docname="periodico_hoy_2019.svg"
   inkscape:version="0.92.1 r15371"><metadata
     id="metadata8"><rdf:RDF><cc:Work
         rdf:about=""><dc:format>image/svg+xml</dc:format><dc:type
           rdf:resource="http://purl.org/dc/dcmitype/StillImage" /><dc:title></dc:title></cc:Work></rdf:RDF></metadata><defs
     id="defs6"><clipPath
       clipPathUnits="userSpaceOnUse"
       id="clipPath22"><path
         d="M 342.914,865.336 H 769.681 V 694.781 H 342.914 Z"
         id="path20"
         inkscape:connector-curvature="0" /></clipPath><clipPath
       clipPathUnits="userSpaceOnUse"
       id="clipPath54"><path
         d="M 342.914,865.336 H 769.681 V 694.781 H 342.914 Z"
         id="path52"
         inkscape:connector-curvature="0" /></clipPath><clipPath
       clipPathUnits="userSpaceOnUse"
       id="clipPath78"><path
         d="M 342.914,865.336 H 769.681 V 694.781 H 342.914 Z"
         id="path76"
         inkscape:connector-curvature="0" /></clipPath><clipPath
       clipPathUnits="userSpaceOnUse"
       id="clipPath94"><path
         d="M 342.914,865.336 H 769.681 V 694.781 H 342.914 Z"
         id="path92"
         inkscape:connector-curvature="0" /></clipPath><clipPath
       clipPathUnits="userSpaceOnUse"
       id="clipPath122"><path
         d="M 342.914,865.336 H 769.681 V 694.781 H 342.914 Z"
         id="path120"
         inkscape:connector-curvature="0" /></clipPath><clipPath
       clipPathUnits="userSpaceOnUse"
       id="clipPath174"><path
         d="M 342.914,865.336 H 769.681 V 694.781 H 342.914 Z"
         id="path172"
         inkscape:connector-curvature="0" /></clipPath><clipPath
       clipPathUnits="userSpaceOnUse"
       id="clipPath528"><path
         d="m 768.653,724.19 h 23.197 v 85.83 h -23.197 z"
         id="path526"
         inkscape:connector-curvature="0" /></clipPath><clipPath
       clipPathUnits="userSpaceOnUse"
       id="clipPath546"><path
         d="m 43.047,58.448 c -1.856,1.363 -0.11,4.138 1.948,3.019 1.988,-1.346 0.244,-4.216 -1.861,-3.082"
         id="path544"
         inkscape:connector-curvature="0" /></clipPath><clipPath
       clipPathUnits="userSpaceOnUse"
       id="clipPath566"><path
         d="m 43.047,129.25 c -1.856,1.363 -0.11,4.139 1.948,3.02 1.988,-1.346 0.244,-4.217 -1.861,-3.082"
         id="path564"
         inkscape:connector-curvature="0" /></clipPath><clipPath
       clipPathUnits="userSpaceOnUse"
       id="clipPath590"><path
         d="m 43.047,289.767 c -1.856,1.363 -0.11,4.139 1.948,3.02 1.988,-1.346 0.244,-4.217 -1.861,-3.082"
         id="path588"
         inkscape:connector-curvature="0" /></clipPath><clipPath
       clipPathUnits="userSpaceOnUse"
       id="clipPath610"><path
         d="m 43.047,230.92 c -1.856,1.363 -0.11,4.139 1.948,3.02 1.988,-1.346 0.244,-4.217 -1.861,-3.083"
         id="path608"
         inkscape:connector-curvature="0" /></clipPath><clipPath
       clipPathUnits="userSpaceOnUse"
       id="clipPath626"><path
         d="m 43.047,289.767 c -1.856,1.363 -0.11,4.139 1.948,3.02 1.988,-1.346 0.244,-4.217 -1.861,-3.082"
         id="path624"
         inkscape:connector-curvature="0" /></clipPath><clipPath
       clipPathUnits="userSpaceOnUse"
       id="clipPath948"><path
         d="M 278.573,190.023 H 55.685 v -19.287 h 222.888 z"
         id="path946"
         inkscape:connector-curvature="0" /></clipPath><clipPath
       clipPathUnits="userSpaceOnUse"
       id="clipPath1034"><path
         d="M 278.573,190.023 H 55.685 v -19.287 h 222.888 z"
         id="path1032"
         inkscape:connector-curvature="0" /></clipPath><clipPath
       clipPathUnits="userSpaceOnUse"
       id="clipPath1382"><path
         d="M 278.573,190.023 H 55.685 v -19.287 h 222.888 z"
         id="path1380"
         inkscape:connector-curvature="0" /></clipPath><clipPath
       clipPathUnits="userSpaceOnUse"
       id="clipPath1468"><path
         d="M 278.573,190.023 H 55.685 v -19.287 h 222.888 z"
         id="path1466"
         inkscape:connector-curvature="0" /></clipPath><clipPath
       clipPathUnits="userSpaceOnUse"
       id="clipPath1536"><path
         d="M 329.04,874.08 H 196.56 V 704.309 h 132.48 z"
         id="path1534"
         inkscape:connector-curvature="0" /></clipPath><clipPath
       clipPathUnits="userSpaceOnUse"
       id="clipPath1550"><path
         d="M 619.798,155.049 H 385.357 V 25.224 h 234.441 z"
         id="path1548"
         inkscape:connector-curvature="0" /></clipPath><clipPath
       clipPathUnits="userSpaceOnUse"
       id="clipPath1586"><path
         d="M 210.072,155.049 H 49.679 V 25.224 h 160.393 z"
         id="path1584"
         inkscape:connector-curvature="0" /></clipPath><clipPath
       clipPathUnits="userSpaceOnUse"
       id="clipPath1626"><path
         d="M 402.751,484.605 H 49.68 V 204.982 h 353.071 z"
         id="path1624"
         inkscape:connector-curvature="0" /></clipPath><clipPath
       clipPathUnits="userSpaceOnUse"
       id="clipPath1644"><path
         d="M 769.553,484.605 H 416.481 V 304.849 h 353.072 z"
         id="path1642"
         inkscape:connector-curvature="0" /></clipPath><clipPath
       clipPathUnits="userSpaceOnUse"
       id="clipPath528-3"><path
         d="m 768.653,724.19 h 23.197 v 85.83 h -23.197 z"
         id="path526-6"
         inkscape:connector-curvature="0" /></clipPath><clipPath
       clipPathUnits="userSpaceOnUse"
       id="clipPath174-7"><path
         d="M 342.914,865.336 H 769.681 V 694.781 H 342.914 Z"
         id="path172-5"
         inkscape:connector-curvature="0" /></clipPath><clipPath
       clipPathUnits="userSpaceOnUse"
       id="clipPath122-3"><path
         d="M 342.914,865.336 H 769.681 V 694.781 H 342.914 Z"
         id="path120-5"
         inkscape:connector-curvature="0" /></clipPath><clipPath
       clipPathUnits="userSpaceOnUse"
       id="clipPath94-6"><path
         d="M 342.914,865.336 H 769.681 V 694.781 H 342.914 Z"
         id="path92-2"
         inkscape:connector-curvature="0" /></clipPath><clipPath
       clipPathUnits="userSpaceOnUse"
       id="clipPath78-9"><path
         d="M 342.914,865.336 H 769.681 V 694.781 H 342.914 Z"
         id="path76-1"
         inkscape:connector-curvature="0" /></clipPath><clipPath
       clipPathUnits="userSpaceOnUse"
       id="clipPath54-2"><path
         d="M 342.914,865.336 H 769.681 V 694.781 H 342.914 Z"
         id="path52-7"
         inkscape:connector-curvature="0" /></clipPath><clipPath
       clipPathUnits="userSpaceOnUse"
       id="clipPath22-0"><path
         d="M 342.914,865.336 H 769.681 V 694.781 H 342.914 Z"
         id="path20-9"
         inkscape:connector-curvature="0" /></clipPath></defs><sodipodi:namedview
     pagecolor="#ffffff"
     bordercolor="#666666"
     borderopacity="1"
     objecttolerance="10"
     gridtolerance="10"
     guidetolerance="10"
     inkscape:pageopacity="0"
     inkscape:pageshadow="2"
     inkscape:window-width="1280"
     inkscape:window-height="656"
     id="namedview4"
     showgrid="false"
     fit-margin-top="0"
     fit-margin-left="0"
     fit-margin-right="0"
     fit-margin-bottom="0"
     inkscape:zoom="0.60309327"
     inkscape:cx="262.7149"
     inkscape:cy="122.17333"
     inkscape:window-x="0"
     inkscape:window-y="27"
     inkscape:window-maximized="1"
     inkscape:current-layer="g10" /><g
     id="g10"
     inkscape:groupmode="layer"
     inkscape:label="publication"
     transform="matrix(1.3333333,0,0,-1.3333333,1337.1756,1919.023)"><g
       id="g7629"
       transform="matrix(0.75124821,0,0,0.75124821,-249.46862,326.14795)"><g
         transform="translate(-996.42231,1353.0321)"
         id="g12"><path
           inkscape:connector-curvature="0"
           id="path14"
           style="fill:#bdbcbc;fill-opacity:1;fill-rule:nonzero;stroke:none"
           d="M 0,0 C 0.465,1.39 1.683,2.608 3.652,3.652 5.392,4.579 6.844,5.679 8,6.955 c 1.159,1.274 2.145,3.305 2.958,6.088 l 26.436,86.791 c 0.344,1.029 0.516,1.888 0.521,2.58 0,-0.009 0.002,-0.017 0.002,-0.025 0,-0.697 -0.174,-1.565 -0.523,-2.61 L 10.958,12.99 C 10.145,10.207 9.159,8.177 8.001,6.902 6.844,5.625 5.392,4.524 3.652,3.598 1.683,2.554 0.465,1.336 0,-0.055 -0.113,-0.451 -0.168,-0.828 -0.171,-1.185 -0.174,-0.812 -0.118,-0.417 0,0 Z m 31.655,113.226 c 0.696,2.665 4.349,4.984 10.958,6.957 6.609,1.97 13.506,2.957 20.697,2.957 6.724,0 11.68,-1.277 14.871,-3.826 3.187,-2.552 4.783,-6.031 4.783,-10.436 0,-0.01 -0.001,-0.02 -0.001,-0.03 -0.006,4.394 -1.6,7.864 -4.781,10.411 -3.192,2.549 -8.148,3.828 -14.872,3.828 -7.192,0 -14.088,-0.987 -20.697,-2.958 -6.609,-1.973 -10.262,-4.291 -10.957,-6.957 -0.169,-0.561 -0.231,-1.065 -0.196,-1.517 -0.044,0.465 0.02,0.989 0.195,1.571 z M 86.704,83.137 c 5.043,2.317 10.522,3.479 16.436,3.479 7.071,0 12.783,-2.149 17.132,-6.436 4.348,-4.291 6.521,-9.857 6.521,-16.697 0,-0.006 -0.001,-0.013 -0.001,-0.019 -0.007,6.824 -2.18,12.378 -6.52,16.662 -4.349,4.288 -10.061,6.435 -17.132,6.435 -5.914,0 -11.392,-1.16 -16.436,-3.479 C 81.66,80.761 76.877,76.647 72.355,70.734 l 0.027,0.088 c 4.515,5.894 9.288,9.998 14.322,12.315 z m 40.002,-22.036 c 0.002,0.02 0.003,0.039 0.004,0.059 -10e-4,-0.02 -0.002,-0.039 -0.004,-0.059 z m -3.994,-29.948 c 0.055,0.87 0.136,1.764 0.239,2.676 -0.103,-0.912 -0.184,-1.806 -0.239,-2.676 z m 0.274,2.98 c 0.023,0.201 0.041,0.397 0.068,0.6 l -3.579,-11.56 3.579,11.56 c 0.093,0.732 0.21,1.487 0.334,2.244 -0.16,-0.97 -0.293,-1.917 -0.402,-2.844 z m 41.723,-19.55 c 0.003,-2.538 0.407,-4.24 1.217,-5.105 0.81,-0.869 1.913,-1.304 3.305,-1.304 2.434,-0.234 4.957,1.853 7.565,6.262 2.61,4.404 5.884,12.984 9.827,25.741 3.586,11.225 5.386,19.389 5.392,24.496 0,-0.01 0,-0.018 0,-0.027 0,-5.104 -1.799,-13.278 -5.392,-24.523 -3.943,-12.757 -7.217,-21.338 -9.827,-25.741 -2.608,-4.41 -5.131,-6.496 -7.565,-6.262 -1.392,0 -2.495,0.435 -3.305,1.305 -0.812,0.868 -1.218,2.578 -1.218,5.13 0,0.008 0.001,0.018 0.001,0.028 z m 3.799,-2.801 c -0.08,0.185 -0.345,0.934 -0.345,2.827 0,4.506 1.821,12.707 5.413,24.377 3.603,11.716 6.726,19.721 9.278,23.793 2.424,3.869 4.165,4.901 4.813,4.901 0.431,0 0.515,-0.083 0.507,-0.076 0.019,-0.031 0.387,-0.7 0.387,-2.903 0,-4.717 -1.76,-12.615 -5.228,-23.475 l -0.01,-0.03 c -3.846,-12.439 -7.042,-20.851 -9.5,-25.002 -2.293,-3.875 -3.854,-4.636 -4.262,-4.582 l -0.33,0.016 c -0.448,0 -0.635,0.087 -0.723,0.154 z m 65.639,43.342 c -0.012,0.157 -0.019,0.318 -0.033,0.475 0.014,-0.157 0.021,-0.317 0.033,-0.475 z m -0.222,2.142 c 0.036,-0.263 0.06,-0.532 0.09,-0.797 -0.03,0.266 -0.059,0.534 -0.095,0.798 0.002,-0.001 0.004,-0.001 0.005,-0.001 z m 62.793,15.261 c 1.392,4.636 3.566,8.145 6.523,10.523 2.957,2.375 6.289,3.565 10.001,3.565 5.101,0 9.188,-2.06 12.262,-6.174 3.07,-4.118 4.609,-9.714 4.609,-16.784 0,-0.011 -10e-4,-0.021 -10e-4,-0.032 -0.004,7.06 -1.541,12.648 -4.609,16.762 -3.074,4.114 -7.16,6.175 -12.262,6.175 -3.712,0 -7.044,-1.191 -10,-3.567 -2.958,-2.377 -5.132,-5.886 -6.523,-10.522 -0.926,-2.893 -1.388,-6.133 -1.391,-9.716 0,0.01 0,0.02 0,0.03 0,3.592 0.462,6.84 1.391,9.74 z m -87.659,-82.616 c 1.044,3.247 2.783,5.74 5.218,7.478 2.435,1.741 5.334,2.611 8.696,2.611 5.332,0 9.71,-1.828 13.132,-5.48 3.418,-3.653 5.593,-8.666 6.522,-15.045 7.4,0.347 14.227,3.525 20.476,9.522 0.016,-0.002 0.03,-0.006 0.046,-0.009 -6.261,-6.028 -13.105,-9.219 -20.522,-9.567 -0.93,6.379 -3.105,11.393 -6.521,15.046 -3.424,3.652 -7.8,5.478 -13.134,5.478 -3.36,0 -6.261,-0.87 -8.696,-2.609 -2.434,-1.74 -4.174,-4.231 -5.218,-7.479 -0.576,-2.078 -0.865,-3.981 -0.868,-5.713 0,0.009 -0.001,0.018 -0.001,0.027 0,1.74 0.291,3.653 0.87,5.74 z m 27.059,49.112 c 0.049,0.199 0.101,0.397 0.148,0.597 0.719,3.331 1.175,6.473 1.365,9.382 v 0 c -0.19,-2.909 -0.646,-6.05 -1.365,-9.382 -0.047,-0.2 -0.099,-0.398 -0.148,-0.597 z m -1.842,12.797 c -0.003,-0.661 -0.029,-1.34 -0.066,-2.031 0.035,0.689 0.064,1.372 0.066,2.031 z m 0.003,0.165 c 0,0.232 -0.011,0.459 -0.016,0.689 0.005,-0.224 0.017,-0.445 0.017,-0.671 0,-0.006 -0.001,-0.012 -0.001,-0.018 z m -0.65,-7.641 c 0.053,0.34 0.1,0.674 0.146,1.008 -0.046,-0.334 -0.093,-0.668 -0.146,-1.008 z m 0.342,2.507 c 0.078,0.7 0.142,1.388 0.19,2.062 -0.001,-0.011 -0.002,-0.02 -0.002,-0.031 l 0.834,-5.112 -0.834,5.112 c -0.049,-0.664 -0.111,-1.341 -0.188,-2.031 z m -0.607,-4.102 c -0.048,-0.261 -0.103,-0.529 -0.154,-0.794 0.05,0.264 0.107,0.533 0.154,0.794 z M 123.026,20.881 c 0.096,-0.024 0.194,-0.047 0.296,-0.079 -0.102,0.031 -0.199,0.055 -0.296,0.079 z m 0.483,-10.651 v 10e-4 c 0.472,-0.862 0.996,-1.695 1.544,-2.515 -0.548,0.82 -1.072,1.653 -1.544,2.514 z M 72.18,26.958 81.747,52.003 c 0.573,1.491 0.862,2.697 0.867,3.622 0,-0.008 0.002,-0.015 0.002,-0.024 0,-0.929 -0.29,-2.146 -0.869,-3.651 L 72.18,26.904 c -2.081,-5.321 -3.122,-10.119 -3.129,-14.398 0,0.005 -0.001,0.01 -0.001,0.016 0,4.288 1.043,9.101 3.13,14.436 z m 51.608,-14.874 c -0.008,-0.081 -0.017,-0.162 -0.026,-0.243 0.009,0.082 0.019,0.162 0.026,0.243 z m 0.037,0.586 c 0.014,0.336 0.023,0.672 0.012,1.01 0.01,-0.338 0.004,-0.674 -0.012,-1.01 z m -3.682,6.614 c 0.143,-0.642 0.302,-1.276 0.478,-1.901 -0.176,0.625 -0.335,1.259 -0.478,1.901 z m -6.045,-2.78 c 0.003,-0.803 0.202,-1.437 0.607,-1.896 0.406,-0.464 0.958,-0.695 1.653,-0.695 1.391,0 2.579,0.609 3.566,1.826 0.326,0.404 0.615,0.734 0.871,1.004 0.517,0.544 0.897,0.823 1.129,0.823 0.579,0 1.044,-0.379 1.392,-1.131 0.347,-0.756 0.521,-1.653 0.521,-2.696 10e-4,-0.017 -0.001,-0.035 0,-0.053 0,1.044 -0.174,1.939 -0.522,2.695 -0.347,0.753 -0.812,1.131 -1.391,1.131 -0.347,0 -1.016,-0.609 -2,-1.826 -0.987,-1.218 -2.175,-1.827 -3.566,-1.827 -0.695,0 -1.247,0.231 -1.653,0.696 -0.407,0.462 -0.608,1.1 -0.608,1.914 0,0.013 0.001,0.023 0.001,0.035 z m 5.119,10.09 c 0.028,-0.665 0.07,-1.32 0.127,-1.969 -0.057,0.649 -0.099,1.305 -0.127,1.969 z m 0.673,-6.146 c 0.609,0.354 1.279,0.572 2.034,0.572 0.157,0 0.356,-0.011 0.582,-0.04 -0.226,0.029 -0.425,0.039 -0.582,0.039 -0.755,0 -1.425,-0.218 -2.034,-0.572 0,0.001 0,0.001 0,0.001 z m 2.728,7.901 c 0,0.831 0.031,1.691 0.082,2.566 -0.051,-0.888 -0.081,-1.757 -0.081,-2.601 0,0.012 -0.001,0.023 -0.001,0.035 z m -2.728,-7.901 c -0.621,-0.361 -1.179,-0.863 -1.7,-1.424 l 1.285,4.148 c 0.109,-0.923 0.245,-1.833 0.415,-2.724 z M 58.962,0.955 c 0.182,-0.273 0.28,-0.588 0.303,-0.94 -0.03,0.331 -0.13,0.627 -0.303,0.887 -0.348,0.521 -0.929,1.187 -1.74,1.999 -1.043,0.811 -1.855,1.653 -2.435,2.523 -0.581,0.869 -0.869,2.057 -0.869,3.565 0,0.01 10e-4,0.021 10e-4,0.031 0.003,-1.496 0.29,-2.677 0.869,-3.542 0.578,-0.87 1.391,-1.713 2.434,-2.522 0.811,-0.813 1.392,-1.478 1.74,-2.001 z M -0.606,-6.734 C 1.401,-8.156 4.216,-8.847 8,-8.847 h 39.657 c 4.077,0 7.113,0.422 9.281,1.29 2.621,1.047 4.495,2.869 5.421,5.269 l 0.098,0.295 c 0.649,2.277 0.021,3.902 -0.622,4.865 -0.478,0.718 -1.167,1.519 -2.166,2.522 l -0.329,0.29 c -0.742,0.578 -1.306,1.151 -1.682,1.715 -0.047,0.071 -0.286,0.486 -0.286,1.644 0,0.735 0.133,1.652 0.397,2.725 l 4.174,13.448 v -0.535 l 6.756,21.957 c 1.198,3.895 2.707,6.677 4.483,8.272 1.6,1.435 3.077,2.162 4.39,2.162 0.688,0 1.033,-0.224 1.278,-0.438 0.108,-0.097 0.312,-0.276 0.312,-0.978 0,-0.177 -0.047,-0.87 -0.643,-2.42 L 68.963,28.216 C 66.728,22.503 65.595,17.223 65.595,12.522 v -0.067 c 0.135,-6.976 2.922,-12.638 8.283,-16.831 5.121,-4.005 11.982,-6.038 20.391,-6.038 6.722,0 12.616,1.129 17.517,3.354 4.993,2.268 8.875,5.276 11.539,8.941 1.087,1.493 1.949,3.02 2.592,4.576 0.589,1.427 0.99,2.875 1.203,4.343 -0.213,-1.467 -0.614,-2.917 -1.203,-4.343 1.702,-2.318 3.713,-4.461 6.053,-6.415 8.311,-6.937 21.081,-10.454 37.956,-10.454 10.646,0 20.685,2.058 29.839,6.123 9.193,4.079 17.07,9.949 23.413,17.45 6.051,7.158 10.323,15.552 12.73,25.008 l 4.878,-29.868 c 1.171,-7.032 3.377,-12.152 6.742,-15.653 2.088,-2.173 4.843,-3.91 8.229,-5.192 -3.296,-2.216 -6.713,-3.611 -10.315,-4.214 -1.256,5.563 -3.541,10.14 -6.816,13.639 -4.085,4.361 -9.352,6.573 -15.653,6.573 -4.081,0 -7.682,-1.095 -10.704,-3.253 -3.041,-2.172 -5.228,-5.278 -6.499,-9.233 l -0.039,-0.133 c -0.662,-2.381 -0.997,-4.623 -0.997,-6.664 0,-4.603 1.33,-8.981 3.95,-13.013 2.6,-4 6.407,-7.224 11.316,-9.581 4.8,-2.304 10.541,-3.471 17.061,-3.471 12.775,0 25.709,4.039 38.443,12.005 12.535,7.841 23.792,18.371 33.461,31.298 9.647,12.901 16.763,26.838 21.141,41.392 2.297,7.378 3.461,14.394 3.461,20.856 0,7.797 -1.781,14.138 -5.295,18.85 -3.748,5.018 -8.806,7.562 -15.03,7.562 -4.499,0 -8.592,-1.456 -12.166,-4.329 -3.491,-2.805 -6.067,-6.907 -7.656,-12.191 -1.028,-3.214 -1.548,-6.835 -1.548,-10.763 0,-5.119 1.042,-9.99 3.096,-14.479 1.717,-3.76 4.093,-7.196 7.078,-10.238 -2.278,-5.621 -4.592,-10.038 -6.889,-13.146 -2.026,-2.745 -3.351,-3.719 -4.016,-4.063 -0.073,0.264 -0.153,0.643 -0.218,1.173 l -5.212,38.228 c -1.132,9.889 -3.618,17.111 -7.605,22.081 -4.211,5.243 -10.646,7.902 -19.13,7.902 -8.31,0 -15.711,-2.57 -21.996,-7.637 -2.649,-2.135 -4.958,-4.502 -6.909,-7.072 l 1.917,-3.243 c 1.94,2.793 4.322,5.338 7.161,7.627 5.679,4.579 12.289,6.87 19.827,6.87 7.42,0 12.898,-2.204 16.437,-6.61 3.536,-4.407 5.826,-11.191 6.87,-20.349 l 5.218,-38.264 c 0.347,-2.9 1.391,-4.348 3.13,-4.348 2.088,0 4.522,1.883 7.305,5.652 2.778,3.759 5.495,9.112 8.159,16.049 0.005,-0.005 0.01,-0.01 0.014,-0.014 -2.667,-6.957 -5.391,-12.322 -8.174,-16.088 -2.782,-3.77 -5.217,-5.653 -7.303,-5.653 -1.74,0 -2.785,1.449 -3.131,4.349 l -5.219,38.262 c -1.043,9.159 -3.334,15.943 -6.87,20.351 -3.538,4.405 -9.017,6.608 -16.437,6.608 -7.537,0 -14.147,-2.29 -19.827,-6.869 -3.933,-3.171 -6.983,-6.838 -9.193,-10.979 -1.76,2.986 -4.057,5.69 -6.893,8.109 -7.48,6.375 -19.106,9.567 -34.873,9.567 -10.205,0 -19.801,-1.944 -28.785,-5.827 -8.987,-3.887 -16.583,-9.336 -22.785,-16.349 -6.204,-7.017 -10.409,-15.046 -12.61,-24.09 -0.231,-1.096 -0.433,-2.167 -0.606,-3.213 0.174,1.065 0.371,2.148 0.606,3.267 1.076,4.418 2.632,8.591 4.663,12.524 0.893,2.979 1.413,6.019 1.543,9.074 v 0 c 0.021,0.511 0.033,1.023 0.033,1.535 0,7.765 -2.541,14.21 -7.551,19.155 -4.999,4.931 -11.578,7.431 -19.557,7.431 -6.385,0 -12.401,-1.276 -17.881,-3.794 -1.881,-0.866 -3.73,-1.956 -5.543,-3.269 l 5.321,17.342 c 0.916,2.769 1.381,5.638 1.381,8.53 0,5.485 -2.045,9.904 -6.081,13.134 -3.859,3.084 -9.429,4.583 -17.027,4.583 -7.485,0 -14.781,-1.044 -21.686,-3.103 -7.993,-2.385 -12.22,-5.352 -13.295,-9.331 -0.816,-2.786 -0.005,-4.684 0.823,-5.79 0.706,-0.942 1.729,-1.942 3.164,-3.09 0.814,-0.633 1.464,-1.255 1.924,-1.838 0.193,-0.247 0.222,-0.733 0.222,-1.001 0,-0.112 -0.024,-0.557 -0.345,-1.516 L 7.641,14.012 C 6.819,11.194 5.992,9.882 5.441,9.276 4.562,8.305 3.414,7.439 2.036,6.705 -0.736,5.237 -2.523,3.349 -3.276,1.094 L -3.324,0.943 c -0.865,-3.046 0.128,-5.845 2.718,-7.677" /></g><g
         id="g16"
         transform="translate(-1373.2273,616.35714)"><g
           clip-path="url(#clipPath22-0)"
           id="g18"><g
             transform="translate(505.477,789.549)"
             id="g24"><path
               inkscape:connector-curvature="0"
               id="path26"
               style="fill:#bdbcbc;fill-opacity:1;fill-rule:nonzero;stroke:none"
               d="m 0,0 c 2.127,4.119 4.774,7.976 7.947,11.565 6.202,7.015 13.798,12.463 22.785,16.349 8.984,3.884 18.581,5.828 28.785,5.828 15.767,0 27.394,-3.192 34.873,-9.567 1.771,-1.511 3.333,-3.134 4.685,-4.867 l 1.762,3.3 C 99.574,24.089 98.17,25.492 96.631,26.804 88.542,33.699 76.055,37.195 59.517,37.195 48.888,37.195 38.742,35.14 29.36,31.085 19.945,27.014 11.87,21.216 5.36,13.854 3.995,12.312 2.728,10.716 1.543,9.074 1.413,6.019 0.894,2.979 0,0" /></g><g
             transform="translate(717.526,779.46)"
             id="g28"><path
               inkscape:connector-curvature="0"
               id="path30"
               style="fill:#bdbcbc;fill-opacity:1;fill-rule:nonzero;stroke:none"
               d="m 0,0 2.262,55.136 c 0.809,17.275 9.566,25.915 26.263,25.915 6.375,0 11.332,-1.392 14.871,-4.175 3.535,-2.783 5.304,-6.668 5.304,-11.654 0,-0.006 -0.001,-0.012 -0.001,-0.018 -0.008,4.967 -1.776,8.842 -5.303,11.618 -3.538,2.784 -8.496,4.175 -14.871,4.175 -16.697,0 -25.454,-8.64 -26.263,-25.915 L 0.001,-0.054 C -0.013,-0.385 -0.018,-0.705 -0.015,-1.016 -0.02,-0.688 -0.015,-0.35 0,0 Z m 6.435,-11.628 c 0.798,0 1.561,0.071 2.297,0.197 -0.737,-0.127 -1.499,-0.198 -2.296,-0.198 -2.56,0 -4.681,0.67 -6.332,1.982 1.651,-1.312 3.772,-1.981 6.331,-1.981 z m 7.044,-6.113 c 3.189,-3.13 4.784,-6.958 4.784,-11.479 0,-0.01 -0.001,-0.021 -0.001,-0.031 -0.006,4.512 -1.6,8.331 -4.782,11.457 -3.19,3.131 -7.104,4.695 -11.74,4.695 -3.713,0 -7.044,-0.957 -10.001,-2.87 -2.956,-1.913 -5.248,-4.377 -6.869,-7.391 -1.619,-3.005 -2.429,-6.064 -2.435,-9.182 0,0.006 -10e-4,0.012 -10e-4,0.017 0,3.131 0.81,6.202 2.435,9.219 1.622,3.014 3.914,5.479 6.87,7.392 2.956,1.913 6.288,2.87 10.001,2.87 4.636,0 8.55,-1.565 11.739,-4.697 z M 0.103,-9.647 c -3.734,-0.252 -7.173,-1.382 -10.24,-3.367 -3.438,-2.225 -6.142,-5.136 -8.035,-8.654 -1.89,-3.51 -2.849,-7.161 -2.849,-10.857 l 0.001,-0.087 c 0.137,-5.415 2.115,-10.069 5.881,-13.834 3.788,-3.788 8.471,-5.709 13.922,-5.709 4.371,0 8.368,1.152 11.878,3.424 3.421,2.214 6.146,5.11 8.097,8.611 1.964,3.523 2.96,7.19 2.96,10.9 0,5.462 -1.958,10.153 -5.818,13.945 -1.811,1.777 -3.83,3.136 -6.035,4.083 H 9.863 C 7.387,-10.13 4.675,-9.59 1.739,-9.59 1.48,-9.59 1.226,-9.608 0.97,-9.616 c 0.256,0.008 0.511,0.026 0.77,0.026 2.936,0 5.648,-0.541 8.124,-1.602 1.455,0.385 2.784,1.02 3.967,1.919 1.869,1.421 3.573,3.631 5.209,6.758 l 27.291,48.673 c 3.864,6.983 5.824,13.397 5.824,19.064 0,6.076 -2.228,10.911 -6.624,14.368 -4.145,3.261 -9.866,4.914 -17.006,4.914 C 9.981,84.504 -0.293,74.405 -1.19,55.278 L -3.451,0.147 c -0.169,-3.942 0.742,-6.981 2.706,-9.032 0.266,-0.277 0.552,-0.526 0.848,-0.762" /></g></g></g><g
         transform="translate(-771.4743,1428.9461)"
         id="g32"><path
           inkscape:connector-curvature="0"
           id="path34"
           style="fill:#ffffff;fill-opacity:1;fill-rule:nonzero;stroke:none"
           d="M 0,0 C 0.616,1.03 1.288,2.03 2.008,3.003 1.916,3.115 1.825,3.229 1.731,3.342 l -1.763,-3.3 C -0.021,0.029 -0.012,0.015 0,0" /></g><g
         transform="translate(-767.2993,1429.0481)"
         id="g36"><path
           inkscape:connector-curvature="0"
           id="path38"
           style="fill:#ffffff;fill-opacity:1;fill-rule:nonzero;stroke:none"
           d="M 0,0 C 0.011,0.016 0.023,0.032 0.035,0.049 L -1.882,3.293 C -1.979,3.163 -2.071,3.031 -2.167,2.901 -1.388,1.964 -0.664,0.996 0,0" /></g><g
         transform="translate(-767.2993,1429.0481)"
         id="g40"><path
           inkscape:connector-curvature="0"
           id="path42"
           style="fill:#ffffff;fill-opacity:1;fill-rule:nonzero;stroke:none"
           d="M 0,0 C -0.664,0.996 -1.388,1.964 -2.167,2.901 -2.887,1.928 -3.559,0.928 -4.175,-0.102 -3.381,-1.122 -2.659,-2.182 -2.01,-3.28 -1.407,-2.149 -0.732,-1.058 0,0" /></g><g
         transform="translate(-884.8073,1375.3611)"
         id="g44"><path
           inkscape:connector-curvature="0"
           id="path46"
           style="fill:#ffffff;fill-opacity:1;fill-rule:nonzero;stroke:none"
           d="m 0,0 c -0.234,-0.465 -0.348,-1.161 -0.348,-2.087 0,-0.813 0.201,-1.452 0.608,-1.914 0.406,-0.464 0.958,-0.695 1.653,-0.695 1.391,0 2.579,0.608 3.566,1.826 0.984,1.217 1.653,1.826 2,1.826 0.579,0 1.044,-0.378 1.391,-1.131 0.348,-0.755 0.522,-1.652 0.522,-2.696 0.114,-3.364 -0.986,-6.638 -3.305,-9.826 -2.32,-3.191 -5.713,-5.8 -10.175,-7.828 -4.465,-2.027 -9.827,-3.043 -16.088,-3.043 -7.653,0 -13.74,1.767 -18.263,5.306 -4.521,3.534 -6.842,8.26 -6.956,14.174 0,4.289 1.043,9.101 3.13,14.436 l 9.566,25.046 c 0.58,1.506 0.87,2.723 0.87,3.652 0,1.506 -0.494,2.696 -1.478,3.566 -0.987,0.869 -2.174,1.304 -3.566,1.304 -2.204,0 -4.435,-1.017 -6.696,-3.044 -2.262,-2.03 -4.087,-5.304 -5.479,-9.827 v 0.348 L -60.006,-5.914 c -0.348,-1.392 -0.521,-2.609 -0.521,-3.653 0,-1.507 0.288,-2.696 0.869,-3.565 0.58,-0.869 1.392,-1.712 2.435,-2.522 0.811,-0.812 1.392,-1.478 1.74,-2 0.348,-0.522 0.404,-1.19 0.174,-2.001 -0.582,-1.507 -1.739,-2.608 -3.479,-3.304 -1.739,-0.696 -4.408,-1.043 -8,-1.043 h -39.656 c -3.014,0 -5.218,0.492 -6.61,1.477 -1.391,0.984 -1.853,2.289 -1.391,3.914 0.465,1.392 1.683,2.61 3.652,3.653 1.74,0.926 3.192,2.027 4.349,3.305 1.158,1.274 2.144,3.304 2.957,6.087 l 26.436,86.79 c 0.349,1.044 0.523,1.913 0.523,2.609 0,1.275 -0.321,2.319 -0.957,3.131 -0.639,0.809 -1.478,1.622 -2.522,2.434 -1.161,0.928 -2,1.74 -2.522,2.436 -0.523,0.696 -0.609,1.622 -0.26,2.782 0.695,2.666 4.347,4.984 10.957,6.958 6.609,1.97 13.505,2.957 20.697,2.957 6.724,0 11.68,-1.278 14.872,-3.827 3.186,-2.552 4.782,-6.03 4.782,-10.435 0,-2.552 -0.408,-5.045 -1.218,-7.479 l -9.392,-30.612 c 4.523,5.913 9.306,10.028 14.35,12.349 5.044,2.318 10.522,3.479 16.436,3.479 7.071,0 12.783,-2.148 17.132,-6.436 4.348,-4.291 6.522,-9.857 6.522,-16.697 0,-3.595 -0.582,-7.131 -1.739,-10.609 L 0,0" /></g><g
         id="g48"
         transform="translate(-1373.2273,616.35714)"><g
           clip-path="url(#clipPath54-2)"
           id="g50"><g
             transform="translate(488.42,759.004)"
             id="g56"><path
               inkscape:connector-curvature="0"
               id="path58"
               style="fill:none;stroke:#ffffff;stroke-width:6.90899992;stroke-linecap:butt;stroke-linejoin:miter;stroke-miterlimit:10;stroke-dasharray:none;stroke-opacity:1"
               d="m 0,0 c -0.234,-0.465 -0.348,-1.161 -0.348,-2.087 0,-0.813 0.201,-1.452 0.608,-1.914 0.406,-0.464 0.958,-0.695 1.653,-0.695 1.391,0 2.579,0.608 3.566,1.826 0.984,1.217 1.653,1.826 2,1.826 0.579,0 1.044,-0.378 1.391,-1.131 0.348,-0.755 0.522,-1.652 0.522,-2.696 0.114,-3.364 -0.986,-6.638 -3.305,-9.826 -2.32,-3.191 -5.713,-5.8 -10.175,-7.828 -4.465,-2.027 -9.827,-3.043 -16.088,-3.043 -7.653,0 -13.74,1.767 -18.263,5.306 -4.521,3.534 -6.842,8.26 -6.956,14.174 0,4.289 1.043,9.101 3.13,14.436 l 9.566,25.046 c 0.58,1.506 0.87,2.723 0.87,3.652 0,1.506 -0.494,2.696 -1.478,3.566 -0.987,0.869 -2.174,1.304 -3.566,1.304 -2.204,0 -4.435,-1.017 -6.696,-3.044 -2.262,-2.03 -4.087,-5.304 -5.479,-9.827 v 0.348 L -60.006,-5.914 c -0.348,-1.392 -0.521,-2.609 -0.521,-3.653 0,-1.507 0.288,-2.696 0.869,-3.565 0.58,-0.869 1.392,-1.712 2.435,-2.522 0.811,-0.812 1.392,-1.478 1.74,-2 0.348,-0.522 0.404,-1.19 0.174,-2.001 -0.582,-1.507 -1.739,-2.608 -3.479,-3.304 -1.739,-0.696 -4.408,-1.043 -8,-1.043 h -39.656 c -3.014,0 -5.218,0.492 -6.61,1.477 -1.391,0.984 -1.853,2.289 -1.391,3.914 0.465,1.392 1.683,2.61 3.652,3.653 1.74,0.926 3.192,2.027 4.349,3.305 1.158,1.274 2.144,3.304 2.957,6.087 l 26.436,86.79 c 0.349,1.044 0.523,1.913 0.523,2.609 0,1.275 -0.321,2.319 -0.957,3.131 -0.639,0.809 -1.478,1.622 -2.522,2.434 -1.161,0.928 -2,1.74 -2.522,2.436 -0.523,0.696 -0.609,1.622 -0.26,2.782 0.695,2.666 4.347,4.984 10.957,6.958 6.609,1.97 13.505,2.957 20.697,2.957 6.724,0 11.68,-1.278 14.872,-3.827 3.186,-2.552 4.782,-6.03 4.782,-10.435 0,-2.552 -0.408,-5.045 -1.218,-7.479 l -9.392,-30.612 c 4.523,5.913 9.306,10.028 14.35,12.349 5.044,2.318 10.522,3.479 16.436,3.479 7.071,0 12.783,-2.148 17.132,-6.436 4.348,-4.291 6.522,-9.857 6.522,-16.697 0,-3.595 -0.582,-7.131 -1.739,-10.609 z" /></g></g></g><g
         transform="translate(-819.3253,1421.3641)"
         id="g60"><path
           inkscape:connector-curvature="0"
           id="path62"
           style="fill:#ffffff;fill-opacity:1;fill-rule:nonzero;stroke:none"
           d="m 0,0 c -2.725,-4.347 -5.943,-12.552 -9.653,-24.611 -3.712,-12.06 -5.566,-20.523 -5.566,-25.394 0,-2.551 0.406,-4.26 1.218,-5.129 0.81,-0.87 1.913,-1.305 3.305,-1.305 2.434,-0.234 4.957,1.853 7.565,6.262 2.61,4.404 5.884,12.985 9.827,25.741 3.593,11.246 5.392,19.42 5.392,24.523 0,2.436 -0.378,4.115 -1.13,5.044 C 10.202,6.058 9.132,6.523 7.74,6.523 5.305,6.523 2.723,4.349 0,0 m 43.135,12.437 c 7.479,-6.379 11.218,-14.728 11.218,-25.046 0,-3.478 -0.465,-7.365 -1.391,-11.653 -2.204,-9.51 -6.323,-17.827 -12.35,-24.958 C 34.581,-56.352 27.19,-61.861 18.437,-65.744 9.68,-69.629 0.201,-71.571 -10,-71.571 c -16.119,0 -28.034,3.218 -35.744,9.653 -7.711,6.435 -11.565,14.985 -11.565,25.655 0,3.592 0.462,7.592 1.391,12.001 2.201,9.043 6.406,17.072 12.61,24.089 6.202,7.014 13.798,12.462 22.785,16.349 8.984,3.884 18.58,5.827 28.785,5.827 15.767,0 27.393,-3.191 34.873,-9.566" /></g><g
         transform="translate(-819.3253,1421.3641)"
         id="g64"><path
           inkscape:connector-curvature="0"
           id="path66"
           style="fill:none;stroke:#ffffff;stroke-width:6.90899992;stroke-linecap:butt;stroke-linejoin:miter;stroke-miterlimit:10;stroke-dasharray:none;stroke-opacity:1"
           d="m 0,0 c -2.725,-4.347 -5.943,-12.552 -9.653,-24.611 -3.712,-12.06 -5.566,-20.523 -5.566,-25.394 0,-2.551 0.406,-4.26 1.218,-5.129 0.81,-0.87 1.913,-1.305 3.305,-1.305 2.434,-0.234 4.957,1.853 7.565,6.262 2.61,4.404 5.884,12.985 9.827,25.741 3.593,11.246 5.392,19.42 5.392,24.523 0,2.436 -0.378,4.115 -1.13,5.044 C 10.202,6.058 9.132,6.523 7.74,6.523 5.305,6.523 2.723,4.349 0,0 Z m 43.135,12.437 c 7.479,-6.379 11.218,-14.728 11.218,-25.046 0,-3.478 -0.465,-7.365 -1.391,-11.653 -2.204,-9.51 -6.323,-17.827 -12.35,-24.958 C 34.581,-56.352 27.19,-61.861 18.437,-65.744 9.68,-69.629 0.201,-71.571 -10,-71.571 c -16.119,0 -28.034,3.218 -35.744,9.653 -7.711,6.435 -11.565,14.985 -11.565,25.655 0,3.592 0.462,7.592 1.391,12.001 2.201,9.043 6.406,17.072 12.61,24.089 6.202,7.014 13.798,12.462 22.785,16.349 8.984,3.884 18.58,5.827 28.785,5.827 15.767,0 27.393,-3.191 34.873,-9.566 z" /></g><g
         transform="translate(-673.7493,1437.1921)"
         id="g68"><path
           inkscape:connector-curvature="0"
           id="path70"
           style="fill:#ffffff;fill-opacity:1;fill-rule:nonzero;stroke:none"
           d="m 0,0 c 3.07,-4.118 4.609,-9.713 4.609,-16.784 0,-6.147 -1.103,-12.757 -3.304,-19.828 -4.292,-14.261 -11.161,-27.714 -20.611,-40.352 -9.452,-12.637 -20.292,-22.783 -32.525,-30.436 -12.234,-7.653 -24.437,-11.481 -36.612,-11.481 -6.03,0 -11.218,1.045 -15.565,3.133 -4.349,2.086 -7.652,4.869 -9.914,8.348 -2.262,3.478 -3.393,7.19 -3.393,11.131 0,1.739 0.292,3.653 0.87,5.739 1.043,3.248 2.784,5.739 5.217,7.479 2.436,1.74 5.337,2.609 8.697,2.609 5.334,0 9.71,-1.826 13.133,-5.478 3.417,-3.652 5.592,-8.666 6.522,-15.045 7.417,0.347 14.261,3.538 20.522,9.566 -5.913,1.044 -10.291,3.044 -13.13,6.001 -2.842,2.955 -4.784,7.565 -5.827,13.826 l -6.957,42.613 c -0.348,2.201 -0.842,3.739 -1.479,4.609 -0.638,0.87 -1.477,1.305 -2.522,1.305 -0.812,0 -1.769,-0.408 -2.87,-1.218 -1.102,-0.813 -1.886,-1.218 -2.347,-1.218 -0.93,0 -1.392,0.984 -1.392,2.958 0,1.621 0.288,3.362 0.87,5.217 2.087,6.609 5.971,12.202 11.653,16.784 5.68,4.579 12.29,6.87 19.827,6.87 7.42,0 12.899,-2.204 16.437,-6.608 3.536,-4.409 5.827,-11.192 6.87,-20.351 l 5.219,-38.263 c 0.346,-2.9 1.39,-4.349 3.131,-4.349 2.086,0 4.521,1.883 7.303,5.654 2.783,3.766 5.507,9.13 8.174,16.087 -3.478,3.131 -6.145,6.723 -8,10.784 -1.856,4.058 -2.783,8.405 -2.783,13.044 0,3.593 0.463,6.84 1.392,9.74 1.391,4.637 3.565,8.145 6.523,10.522 2.956,2.377 6.288,3.567 10,3.567 C -7.16,6.175 -3.074,4.114 0,0" /></g><g
         id="g72"
         transform="translate(-1373.2273,616.35714)"><g
           clip-path="url(#clipPath78-9)"
           id="g74"><g
             transform="translate(699.478,820.835)"
             id="g80"><path
               inkscape:connector-curvature="0"
               id="path82"
               style="fill:none;stroke:#ffffff;stroke-width:6.90899992;stroke-linecap:butt;stroke-linejoin:miter;stroke-miterlimit:10;stroke-dasharray:none;stroke-opacity:1"
               d="m 0,0 c 3.07,-4.118 4.609,-9.713 4.609,-16.784 0,-6.147 -1.103,-12.757 -3.304,-19.828 -4.292,-14.261 -11.161,-27.714 -20.611,-40.352 -9.452,-12.637 -20.292,-22.783 -32.525,-30.436 -12.234,-7.653 -24.437,-11.481 -36.612,-11.481 -6.03,0 -11.218,1.045 -15.565,3.133 -4.349,2.086 -7.652,4.869 -9.914,8.348 -2.262,3.478 -3.393,7.19 -3.393,11.131 0,1.739 0.292,3.653 0.87,5.739 1.043,3.248 2.784,5.739 5.217,7.479 2.436,1.74 5.337,2.609 8.697,2.609 5.334,0 9.71,-1.826 13.133,-5.478 3.417,-3.652 5.592,-8.666 6.522,-15.045 7.417,0.347 14.261,3.538 20.522,9.566 -5.913,1.044 -10.291,3.044 -13.13,6.001 -2.842,2.955 -4.784,7.565 -5.827,13.826 l -6.957,42.613 c -0.348,2.201 -0.842,3.739 -1.479,4.609 -0.638,0.87 -1.477,1.305 -2.522,1.305 -0.812,0 -1.769,-0.408 -2.87,-1.218 -1.102,-0.813 -1.886,-1.218 -2.347,-1.218 -0.93,0 -1.392,0.984 -1.392,2.958 0,1.621 0.288,3.362 0.87,5.217 2.087,6.609 5.971,12.202 11.653,16.784 5.68,4.579 12.29,6.87 19.827,6.87 7.42,0 12.899,-2.204 16.437,-6.608 3.536,-4.409 5.827,-11.192 6.87,-20.351 l 5.219,-38.263 c 0.346,-2.9 1.39,-4.349 3.131,-4.349 2.086,0 4.521,1.883 7.303,5.654 2.783,3.766 5.507,9.13 8.174,16.087 -3.478,3.131 -6.145,6.723 -8,10.784 -1.856,4.058 -2.783,8.405 -2.783,13.044 0,3.593 0.463,6.84 1.392,9.74 1.391,4.637 3.565,8.145 6.523,10.522 2.956,2.377 6.288,3.567 10,3.567 C -7.16,6.175 -3.074,4.114 0,0 Z" /></g></g></g><g
         transform="translate(-630.00629,1480.5871)"
         id="g84"><path
           inkscape:connector-curvature="0"
           id="path86"
           style="fill:#ffffff;fill-opacity:1;fill-rule:nonzero;stroke:none"
           d="m 0,0 c 6.375,0 11.333,-1.391 14.871,-4.174 3.535,-2.783 5.305,-6.669 5.305,-11.654 0,-5.103 -1.8,-10.9 -5.392,-17.392 l -27.307,-48.7 c -1.392,-2.669 -2.813,-4.552 -4.261,-5.653 -1.451,-1.104 -3.218,-1.653 -5.305,-1.653 -4.522,0 -6.669,2.724 -6.435,8.175 l 2.261,55.136 C -25.454,-8.639 -16.696,0 0,0 m -15.045,-98.791 c 3.188,-3.131 4.783,-6.957 4.783,-11.478 0,-3.131 -0.842,-6.206 -2.521,-9.219 -1.683,-3.017 -4.001,-5.479 -6.958,-7.392 -2.957,-1.913 -6.291,-2.87 -10.001,-2.87 -4.522,0 -8.348,1.564 -11.479,4.695 -3.131,3.131 -4.756,6.958 -4.87,11.479 0,3.132 0.81,6.203 2.435,9.219 1.622,3.014 3.914,5.479 6.87,7.392 2.957,1.913 6.288,2.869 10.001,2.869 4.636,0 8.55,-1.564 11.74,-4.695" /></g><g
         id="g88"
         transform="translate(-1373.2273,616.35714)"><g
           clip-path="url(#clipPath94-6)"
           id="g90"><g
             transform="translate(743.221,864.23)"
             id="g96"><path
               inkscape:connector-curvature="0"
               id="path98"
               style="fill:none;stroke:#ffffff;stroke-width:6.90899992;stroke-linecap:butt;stroke-linejoin:miter;stroke-miterlimit:10;stroke-dasharray:none;stroke-opacity:1"
               d="m 0,0 c 6.375,0 11.333,-1.391 14.871,-4.174 3.535,-2.783 5.305,-6.669 5.305,-11.654 0,-5.103 -1.8,-10.9 -5.392,-17.392 l -27.307,-48.7 c -1.392,-2.669 -2.813,-4.552 -4.261,-5.653 -1.451,-1.104 -3.218,-1.653 -5.305,-1.653 -4.522,0 -6.669,2.724 -6.435,8.175 l 2.261,55.136 C -25.454,-8.639 -16.696,0 0,0 Z m -15.045,-98.791 c 3.188,-3.131 4.783,-6.957 4.783,-11.478 0,-3.131 -0.842,-6.206 -2.521,-9.219 -1.683,-3.017 -4.001,-5.479 -6.958,-7.392 -2.957,-1.913 -6.291,-2.87 -10.001,-2.87 -4.522,0 -8.348,1.564 -11.479,4.695 -3.131,3.131 -4.756,6.958 -4.87,11.479 0,3.132 0.81,6.203 2.435,9.219 1.622,3.014 3.914,5.479 6.87,7.392 2.957,1.913 6.288,2.869 10.001,2.869 4.636,0 8.55,-1.564 11.74,-4.695 z" /></g></g></g><g
         transform="translate(-884.8073,1375.3611)"
         id="g100"><path
           inkscape:connector-curvature="0"
           id="path102"
           style="fill:#ed1c24;fill-opacity:1;fill-rule:nonzero;stroke:none"
           d="m 0,0 c -0.234,-0.465 -0.348,-1.161 -0.348,-2.087 0,-0.813 0.201,-1.452 0.608,-1.914 0.406,-0.464 0.958,-0.695 1.653,-0.695 1.391,0 2.579,0.608 3.566,1.826 0.984,1.217 1.653,1.826 2,1.826 0.579,0 1.044,-0.378 1.391,-1.131 0.348,-0.755 0.522,-1.652 0.522,-2.696 0.114,-3.364 -0.986,-6.638 -3.305,-9.826 -2.32,-3.191 -5.713,-5.8 -10.175,-7.828 -4.465,-2.027 -9.827,-3.043 -16.088,-3.043 -7.653,0 -13.74,1.767 -18.263,5.306 -4.521,3.534 -6.842,8.26 -6.956,14.174 0,4.289 1.043,9.101 3.13,14.436 l 9.566,25.046 c 0.58,1.506 0.87,2.723 0.87,3.652 0,1.506 -0.494,2.696 -1.478,3.566 -0.987,0.869 -2.174,1.304 -3.566,1.304 -2.204,0 -4.435,-1.017 -6.696,-3.044 -2.262,-2.03 -4.087,-5.304 -5.479,-9.827 v 0.348 L -60.006,-5.914 c -0.348,-1.392 -0.521,-2.609 -0.521,-3.653 0,-1.507 0.288,-2.696 0.869,-3.565 0.58,-0.869 1.392,-1.712 2.435,-2.522 0.811,-0.812 1.392,-1.478 1.74,-2 0.348,-0.522 0.404,-1.19 0.174,-2.001 -0.582,-1.507 -1.739,-2.608 -3.479,-3.304 -1.739,-0.696 -4.408,-1.043 -8,-1.043 h -39.656 c -3.014,0 -5.218,0.492 -6.61,1.477 -1.391,0.984 -1.853,2.289 -1.391,3.914 0.465,1.392 1.683,2.61 3.652,3.653 1.74,0.926 3.192,2.027 4.349,3.305 1.158,1.274 2.144,3.304 2.957,6.087 l 26.436,86.79 c 0.349,1.044 0.523,1.913 0.523,2.609 0,1.275 -0.321,2.319 -0.957,3.131 -0.639,0.809 -1.478,1.622 -2.522,2.434 -1.161,0.928 -2,1.74 -2.522,2.436 -0.523,0.696 -0.609,1.622 -0.26,2.782 0.695,2.666 4.347,4.984 10.957,6.958 6.609,1.97 13.505,2.957 20.697,2.957 6.724,0 11.68,-1.278 14.872,-3.827 3.186,-2.552 4.782,-6.03 4.782,-10.435 0,-2.552 -0.408,-5.045 -1.218,-7.479 l -9.392,-30.612 c 4.523,5.913 9.306,10.028 14.35,12.349 5.044,2.318 10.522,3.479 16.436,3.479 7.071,0 12.783,-2.148 17.132,-6.436 4.348,-4.291 6.522,-9.857 6.522,-16.697 0,-3.595 -0.582,-7.131 -1.739,-10.609 L 0,0" /></g><g
         transform="translate(-819.3253,1421.3641)"
         id="g104"><path
           inkscape:connector-curvature="0"
           id="path106"
           style="fill:#ed1c24;fill-opacity:1;fill-rule:nonzero;stroke:none"
           d="m 0,0 c -2.725,-4.347 -5.943,-12.552 -9.653,-24.611 -3.712,-12.06 -5.566,-20.523 -5.566,-25.394 0,-2.551 0.406,-4.26 1.218,-5.129 0.81,-0.87 1.913,-1.305 3.305,-1.305 2.434,-0.234 4.957,1.853 7.565,6.262 2.61,4.404 5.884,12.985 9.827,25.741 3.593,11.246 5.392,19.42 5.392,24.523 0,2.436 -0.378,4.115 -1.13,5.044 C 10.202,6.058 9.132,6.523 7.74,6.523 5.305,6.523 2.723,4.349 0,0 m 43.135,12.437 c 7.479,-6.379 11.218,-14.728 11.218,-25.046 0,-3.478 -0.465,-7.365 -1.391,-11.653 -2.204,-9.51 -6.323,-17.827 -12.35,-24.958 C 34.581,-56.352 27.19,-61.861 18.437,-65.744 9.68,-69.629 0.201,-71.571 -10,-71.571 c -16.119,0 -28.034,3.218 -35.744,9.653 -7.711,6.435 -11.565,14.985 -11.565,25.655 0,3.592 0.462,7.592 1.391,12.001 2.201,9.043 6.406,17.072 12.61,24.089 6.202,7.014 13.798,12.462 22.785,16.349 8.984,3.884 18.58,5.827 28.785,5.827 15.767,0 27.393,-3.191 34.873,-9.566" /></g><g
         transform="translate(-673.7493,1437.1921)"
         id="g108"><path
           inkscape:connector-curvature="0"
           id="path110"
           style="fill:#ed1c24;fill-opacity:1;fill-rule:nonzero;stroke:none"
           d="m 0,0 c 3.07,-4.118 4.609,-9.713 4.609,-16.784 0,-6.147 -1.103,-12.757 -3.304,-19.828 -4.292,-14.261 -11.161,-27.714 -20.611,-40.352 -9.452,-12.637 -20.292,-22.783 -32.525,-30.436 -12.234,-7.653 -24.437,-11.481 -36.612,-11.481 -6.03,0 -11.218,1.045 -15.565,3.133 -4.349,2.086 -7.652,4.869 -9.914,8.348 -2.262,3.478 -3.393,7.19 -3.393,11.131 0,1.739 0.292,3.653 0.87,5.739 1.043,3.248 2.784,5.739 5.217,7.479 2.436,1.74 5.337,2.609 8.697,2.609 5.334,0 9.71,-1.826 13.133,-5.478 3.417,-3.652 5.592,-8.666 6.522,-15.045 7.417,0.347 14.261,3.538 20.522,9.566 -5.913,1.044 -10.291,3.044 -13.13,6.001 -2.842,2.955 -4.784,7.565 -5.827,13.826 l -6.957,42.613 c -0.348,2.201 -0.842,3.739 -1.479,4.609 -0.638,0.87 -1.477,1.305 -2.522,1.305 -0.812,0 -1.769,-0.408 -2.87,-1.218 -1.102,-0.813 -1.886,-1.218 -2.347,-1.218 -0.93,0 -1.392,0.984 -1.392,2.958 0,1.621 0.288,3.362 0.87,5.217 2.087,6.609 5.971,12.202 11.653,16.784 5.68,4.579 12.29,6.87 19.827,6.87 7.42,0 12.899,-2.204 16.437,-6.608 3.536,-4.409 5.827,-11.192 6.87,-20.351 l 5.219,-38.263 c 0.346,-2.9 1.39,-4.349 3.131,-4.349 2.086,0 4.521,1.883 7.303,5.654 2.783,3.766 5.507,9.13 8.174,16.087 -3.478,3.131 -6.145,6.723 -8,10.784 -1.856,4.058 -2.783,8.405 -2.783,13.044 0,3.593 0.463,6.84 1.392,9.74 1.391,4.637 3.565,8.145 6.523,10.522 2.956,2.377 6.288,3.567 10,3.567 C -7.16,6.175 -3.074,4.114 0,0" /></g><g
         transform="translate(-630.00629,1480.5871)"
         id="g112"><path
           inkscape:connector-curvature="0"
           id="path114"
           style="fill:#ed1c24;fill-opacity:1;fill-rule:nonzero;stroke:none"
           d="m 0,0 c 6.375,0 11.333,-1.391 14.871,-4.174 3.535,-2.783 5.305,-6.669 5.305,-11.654 0,-5.103 -1.8,-10.9 -5.392,-17.392 l -27.307,-48.7 c -1.392,-2.669 -2.813,-4.552 -4.261,-5.653 -1.451,-1.104 -3.218,-1.653 -5.305,-1.653 -4.522,0 -6.669,2.724 -6.435,8.175 l 2.261,55.136 C -25.454,-8.639 -16.696,0 0,0 m -15.045,-98.791 c 3.188,-3.131 4.783,-6.957 4.783,-11.478 0,-3.131 -0.842,-6.206 -2.521,-9.219 -1.683,-3.017 -4.001,-5.479 -6.958,-7.392 -2.957,-1.913 -6.291,-2.87 -10.001,-2.87 -4.522,0 -8.348,1.564 -11.479,4.695 -3.131,3.131 -4.756,6.958 -4.87,11.479 0,3.132 0.81,6.203 2.435,9.219 1.622,3.014 3.914,5.479 6.87,7.392 2.957,1.913 6.288,2.869 10.001,2.869 4.636,0 8.55,-1.564 11.74,-4.695" /></g><g
         id="g116"
         transform="translate(-1373.2273,616.35714)"><g
           clip-path="url(#clipPath122-3)"
           id="g118"><g
             transform="translate(492.165,759.473)"
             id="g124"><path
               inkscape:connector-curvature="0"
               id="path126"
               style="fill:#ffffff;fill-opacity:1;fill-rule:nonzero;stroke:none"
               d="m 0,0 1.285,4.147 c -0.2,1.678 -0.312,3.399 -0.312,5.178 0,2.228 0.173,4.615 0.505,7.129 l -5.223,-16.87 c -0.234,-0.465 -0.348,-1.16 -0.348,-2.086 0,-0.813 0.201,-1.452 0.608,-1.914 0.406,-0.464 0.958,-0.696 1.653,-0.696 1.391,0 2.579,0.609 3.566,1.827 0.326,0.404 0.615,0.734 0.871,1.004 C 2.243,-1.078 1.94,0.155 1.7,1.423 1.079,1.063 0.521,0.561 0,0" /></g><g
             transform="translate(494.507,744.361)"
             id="g128"><path
               inkscape:connector-curvature="0"
               id="path130"
               style="fill:#ffffff;fill-opacity:1;fill-rule:nonzero;stroke:none"
               d="m 0,0 c -2.32,-3.19 -5.713,-5.8 -10.175,-7.827 -4.465,-2.027 -9.827,-3.045 -16.088,-3.045 -7.653,0 -13.74,1.768 -18.263,5.306 -4.521,3.536 -6.842,8.262 -6.956,14.175 0,4.289 1.043,9.101 3.13,14.436 l 9.566,25.046 c 0.58,1.505 0.87,2.723 0.87,3.652 0,1.506 -0.494,2.696 -1.478,3.565 -0.988,0.87 -2.174,1.305 -3.566,1.305 -2.204,0 -4.435,-1.016 -6.697,-3.043 -2.261,-2.031 -4.087,-5.306 -5.478,-9.827 V 44.09 L -66.093,8.784 c -0.348,-1.392 -0.521,-2.61 -0.521,-3.653 0,-1.508 0.287,-2.696 0.869,-3.566 0.579,-0.87 1.392,-1.712 2.435,-2.522 0.811,-0.813 1.392,-1.478 1.74,-2 0.348,-0.523 0.404,-1.19 0.173,-2 -0.581,-1.508 -1.738,-2.61 -3.478,-3.305 -1.739,-0.695 -4.408,-1.043 -8,-1.043 h -39.657 c -3.014,0 -5.217,0.491 -6.609,1.478 -1.391,0.984 -1.853,2.288 -1.391,3.914 0.465,1.391 1.683,2.608 3.652,3.653 1.74,0.926 3.192,2.026 4.348,3.303 1.159,1.275 2.145,3.305 2.958,6.088 l 26.436,86.79 c 0.349,1.043 0.523,1.913 0.523,2.609 0,1.274 -0.321,2.318 -0.957,3.13 -0.639,0.811 -1.479,1.623 -2.522,2.435 -1.161,0.927 -2,1.74 -2.523,2.435 -0.521,0.696 -0.608,1.624 -0.26,2.784 0.696,2.665 4.349,4.984 10.958,6.956 6.609,1.971 13.506,2.958 20.697,2.958 6.724,0 11.68,-1.278 14.871,-3.827 3.187,-2.552 4.783,-6.031 4.783,-10.436 0,-2.552 -0.408,-5.044 -1.218,-7.479 l -9.392,-30.611 c 4.523,5.913 9.306,10.027 14.35,12.349 5.043,2.318 10.522,3.479 16.436,3.479 7.071,0 12.783,-2.148 17.132,-6.436 4.348,-4.291 6.521,-9.857 6.521,-16.697 0,-3.159 -0.449,-6.273 -1.343,-9.343 1.379,2.711 2.968,5.317 4.765,7.808 0.02,0.512 0.033,1.023 0.033,1.535 0,7.766 -2.541,14.211 -7.551,19.156 -4.999,4.931 -11.578,7.431 -19.557,7.431 -6.385,0 -12.401,-1.277 -17.881,-3.795 -1.881,-0.866 -3.73,-1.956 -5.543,-3.268 l 5.321,17.341 c 0.916,2.769 1.381,5.639 1.381,8.53 0,5.486 -2.045,9.904 -6.081,13.134 -3.859,3.084 -9.429,4.583 -17.027,4.583 -7.485,0 -14.781,-1.043 -21.686,-3.103 -7.993,-2.384 -12.22,-5.351 -13.296,-9.33 -0.816,-2.787 -0.004,-4.685 0.824,-5.791 0.706,-0.941 1.729,-1.942 3.164,-3.09 0.814,-0.633 1.464,-1.255 1.924,-1.838 0.193,-0.247 0.222,-0.733 0.222,-1.001 0,-0.112 -0.024,-0.557 -0.345,-1.515 L -112.891,10.1 c -0.822,-2.818 -1.649,-4.13 -2.2,-4.737 -0.879,-0.971 -2.027,-1.837 -3.406,-2.571 -2.771,-1.468 -4.558,-3.356 -5.312,-5.611 l -0.047,-0.151 c -0.865,-3.046 0.128,-5.845 2.718,-7.677 2.007,-1.421 4.822,-2.113 8.606,-2.113 h 39.657 c 4.077,0 7.113,0.422 9.281,1.291 2.621,1.046 4.495,2.868 5.421,5.268 l 0.098,0.296 c 0.649,2.276 0.021,3.901 -0.622,4.865 -0.478,0.717 -1.167,1.518 -2.166,2.521 l -0.329,0.291 c -0.742,0.577 -1.306,1.151 -1.682,1.715 -0.047,0.07 -0.286,0.485 -0.286,1.643 0,0.736 0.133,1.653 0.396,2.725 l 4.175,13.449 v -0.535 l 6.756,21.957 c 1.198,3.894 2.706,6.677 4.483,8.271 1.6,1.435 3.077,2.162 4.39,2.162 0.688,0 1.033,-0.223 1.277,-0.437 0.109,-0.098 0.313,-0.277 0.313,-0.979 0,-0.176 -0.047,-0.87 -0.643,-2.42 L -51.569,24.304 C -53.804,18.591 -54.937,13.311 -54.937,8.609 V 8.542 c 0.135,-6.976 2.922,-12.638 8.283,-16.83 5.121,-4.006 11.981,-6.039 20.391,-6.039 6.722,0 12.616,1.13 17.517,3.354 4.993,2.268 8.875,5.276 11.539,8.941 C 3.88,-0.539 4.742,0.989 5.385,2.544 4.492,3.758 3.686,5.02 2.97,6.332 2.492,4.185 1.508,2.074 0,0" /></g></g></g><g
         transform="translate(-766.3633,1397.1551)"
         id="g132"><path
           inkscape:connector-curvature="0"
           id="path134"
           style="fill:#ffffff;fill-opacity:1;fill-rule:nonzero;stroke:none"
           d="m 0,0 c -2.204,-9.508 -6.322,-17.827 -12.35,-24.958 -6.031,-7.131 -13.422,-12.639 -22.175,-16.523 -8.757,-3.887 -18.236,-5.827 -28.438,-5.827 -16.118,0 -28.032,3.219 -35.743,9.652 -2.896,2.419 -5.248,5.134 -7.056,8.148 -0.211,-1.481 -0.616,-2.945 -1.21,-4.385 1.702,-2.318 3.713,-4.461 6.053,-6.415 8.311,-6.937 21.081,-10.454 37.956,-10.454 10.646,0 20.685,2.059 29.839,6.124 9.193,4.079 17.07,9.948 23.413,17.45 6.05,7.159 10.323,15.553 12.73,25.008 L 1.269,8.532 C 1.079,5.892 0.659,3.049 0,0" /></g><g
         transform="translate(-876.19829,1391.5381)"
         id="g136"><path
           inkscape:connector-curvature="0"
           id="path138"
           style="fill:#ffffff;fill-opacity:1;fill-rule:nonzero;stroke:none"
           d="m 0,0 -3.579,-11.56 c 0.109,-0.923 0.245,-1.833 0.415,-2.725 0.609,0.355 1.279,0.573 2.034,0.573 0.33,0 0.835,-0.043 1.407,-0.22 -0.474,2.386 -0.713,4.902 -0.713,7.549 0,2 0.148,4.13 0.436,6.383" /></g><g
         transform="translate(-862.6333,1421.2451)"
         id="g140"><path
           inkscape:connector-curvature="0"
           id="path142"
           style="fill:#ffffff;fill-opacity:1;fill-rule:nonzero;stroke:none"
           d="m 0,0 c 6.202,7.014 13.798,12.462 22.785,16.349 8.984,3.884 18.581,5.827 28.785,5.827 15.767,0 27.394,-3.191 34.873,-9.567 1.771,-1.511 3.333,-3.133 4.684,-4.866 l 1.763,3.299 c -1.263,1.481 -2.667,2.884 -4.206,4.196 -8.089,6.895 -20.576,10.391 -37.114,10.391 -10.63,0 -20.775,-2.055 -30.157,-6.11 C 11.998,15.448 3.923,9.65 -2.587,2.288 -3.952,0.747 -5.219,-0.849 -6.404,-2.492 -6.534,-5.546 -7.053,-8.587 -7.947,-11.566 -5.82,-7.446 -3.173,-3.59 0,0" /></g><g
         transform="translate(-815.9193,1398.0321)"
         id="g144"><path
           inkscape:connector-curvature="0"
           id="path146"
           style="fill:#ffffff;fill-opacity:1;fill-rule:nonzero;stroke:none"
           d="m 0,0 -0.01,-0.03 c -3.846,-12.44 -7.042,-20.852 -9.5,-25.003 -2.293,-3.875 -3.854,-4.636 -4.262,-4.581 l -0.33,0.016 c -0.448,0 -0.635,0.086 -0.723,0.153 -0.08,0.185 -0.345,0.934 -0.345,2.828 0,4.505 1.821,12.707 5.413,24.376 3.603,11.717 6.726,19.721 9.278,23.794 2.424,3.868 4.165,4.9 4.813,4.9 0.431,0 0.514,-0.083 0.507,-0.075 0.019,-0.031 0.387,-0.7 0.387,-2.904 C 5.228,18.757 3.468,10.86 0,0 m -14.803,-29.492 h 0.001 z m -0.08,0.102 10e-4,-0.002 z M 4.334,29.909 c -2.435,0 -5.017,-2.174 -7.74,-6.523 -2.725,-4.348 -5.943,-12.553 -9.653,-24.611 -3.712,-12.06 -5.566,-20.522 -5.566,-25.392 0,-2.553 0.405,-4.262 1.218,-5.131 0.81,-0.87 1.913,-1.305 3.305,-1.305 2.434,-0.234 4.957,1.854 7.565,6.262 2.61,4.405 5.884,12.984 9.827,25.741 3.592,11.246 5.392,19.42 5.392,24.524 0,2.435 -0.378,4.114 -1.13,5.043 -0.756,0.928 -1.826,1.392 -3.218,1.392" /></g><g
         transform="translate(-875.9213,1377.6051)"
         id="g148"><path
           inkscape:connector-curvature="0"
           id="path150"
           style="fill:#ffffff;fill-opacity:1;fill-rule:nonzero;stroke:none"
           d="m 0,0 c -0.571,0.178 -1.077,0.22 -1.407,0.22 -0.755,0 -1.425,-0.218 -2.034,-0.573 0.24,-1.267 0.544,-2.5 0.905,-3.703 0.517,0.543 0.897,0.822 1.129,0.822 0.579,0 1.044,-0.378 1.392,-1.131 0.347,-0.756 0.521,-1.653 0.521,-2.696 0.04,-1.176 -0.078,-2.34 -0.335,-3.494 0.717,-1.311 1.522,-2.575 2.415,-3.789 0.594,1.442 1,2.904 1.21,4.386 C 1.984,-6.938 0.72,-3.619 0,0" /></g><g
         transform="translate(-874.19729,1409.6791)"
         id="g152"><path
           inkscape:connector-curvature="0"
           id="path154"
           style="fill:#ffffff;fill-opacity:1;fill-rule:nonzero;stroke:none"
           d="m 0,0 -5.387,-17.395 c -0.332,-2.514 -0.505,-4.9 -0.505,-7.129 0,-1.779 0.113,-3.5 0.312,-5.177 l 3.579,11.56 c 0.228,1.793 0.543,3.663 0.955,5.618 C 0.03,-8.106 1.586,-3.932 3.617,0.001 4.51,2.98 5.03,6.02 5.16,9.075 3.364,6.583 1.773,3.978 0.395,1.267 0.271,0.844 0.14,0.421 0,0" /></g><g
         transform="translate(-665.6853,1420.4621)"
         id="g156"><path
           inkscape:connector-curvature="0"
           id="path158"
           style="fill:#ffffff;fill-opacity:1;fill-rule:nonzero;stroke:none"
           d="m 0,0 c 0,7.798 -1.781,14.139 -5.296,18.851 -3.747,5.017 -8.805,7.562 -15.029,7.562 -4.499,0 -8.592,-1.457 -12.166,-4.329 -3.491,-2.806 -6.067,-6.908 -7.656,-12.191 -1.028,-3.214 -1.548,-6.836 -1.548,-10.764 0,-5.118 1.042,-9.99 3.096,-14.478 1.716,-3.76 4.093,-7.196 7.078,-10.238 -2.278,-5.622 -4.592,-10.038 -6.889,-13.147 -2.026,-2.745 -3.351,-3.718 -4.016,-4.063 -0.073,0.264 -0.153,0.644 -0.218,1.173 l -5.212,38.228 c -1.132,9.889 -3.618,17.111 -7.605,22.082 -4.211,5.243 -10.646,7.901 -19.13,7.901 -8.31,0 -15.711,-2.57 -21.996,-7.636 -2.649,-2.136 -4.958,-4.503 -6.909,-7.072 l 1.917,-3.244 c 1.94,2.794 4.322,5.339 7.161,7.627 5.679,4.579 12.289,6.871 19.827,6.871 7.419,0 12.898,-2.205 16.437,-6.61 3.536,-4.408 5.826,-11.191 6.87,-20.349 l 5.218,-38.264 c 0.347,-2.901 1.39,-4.349 3.13,-4.349 2.088,0 4.522,1.884 7.305,5.653 2.783,3.766 5.507,9.131 8.175,16.088 -3.479,3.131 -6.147,6.723 -8.001,10.784 -1.857,4.057 -2.783,8.405 -2.783,13.044 0,3.593 0.462,6.84 1.391,9.74 1.392,4.637 3.566,8.145 6.523,10.523 2.957,2.376 6.289,3.565 10.001,3.565 5.101,0 9.188,-2.059 12.262,-6.174 3.07,-4.118 4.609,-9.714 4.609,-16.784 0,-6.147 -1.103,-12.756 -3.305,-19.827 -4.29,-14.263 -11.16,-27.715 -20.61,-40.352 -9.452,-12.637 -20.292,-22.785 -32.525,-30.438 -12.235,-7.652 -24.437,-11.479 -36.612,-11.479 -6.03,0 -11.218,1.044 -15.566,3.13 -4.348,2.088 -7.653,4.871 -9.914,8.349 -2.261,3.479 -3.392,7.191 -3.392,11.132 0,1.739 0.291,3.652 0.87,5.74 1.044,3.247 2.783,5.739 5.218,7.478 2.435,1.74 5.334,2.61 8.696,2.61 5.332,0 9.71,-1.827 13.132,-5.48 3.418,-3.653 5.593,-8.665 6.522,-15.044 7.419,0.348 14.262,3.539 20.523,9.565 -5.913,1.044 -10.292,3.044 -13.131,6.001 -2.843,2.957 -4.783,7.566 -5.826,13.827 l -6.558,40.169 c -0.189,-2.919 -0.646,-6.072 -1.369,-9.418 -0.113,-0.486 -0.235,-0.968 -0.358,-1.449 l 4.877,-29.869 c 1.172,-7.032 3.378,-12.153 6.743,-15.654 2.088,-2.173 4.843,-3.91 8.229,-5.192 -3.296,-2.216 -6.714,-3.611 -10.315,-4.214 -1.256,5.563 -3.542,10.14 -6.816,13.639 -4.085,4.361 -9.352,6.574 -15.653,6.574 -4.081,0 -7.682,-1.096 -10.704,-3.254 -3.041,-2.172 -5.228,-5.278 -6.499,-9.233 l -0.039,-0.133 c -0.662,-2.381 -0.997,-4.623 -0.997,-6.663 0,-4.604 1.33,-8.982 3.95,-13.014 2.6,-4 6.407,-7.224 11.316,-9.581 4.799,-2.303 10.541,-3.471 17.061,-3.471 12.775,0 25.709,4.039 38.443,12.005 12.535,7.841 23.792,18.372 33.461,31.298 9.647,12.902 16.763,26.839 21.141,41.392 C -1.164,-13.478 0,-6.462 0,0" /></g><g
         transform="translate(-761.6173,1405.8431)"
         id="g160"><path
           inkscape:connector-curvature="0"
           id="path162"
           style="fill:#ffffff;fill-opacity:1;fill-rule:nonzero;stroke:none"
           d="M 0,0 -0.399,2.444 C -0.497,3.06 -0.607,3.619 -0.728,4.131 l -2.668,0.56 c 0.025,-0.571 0.041,-1.144 0.041,-1.726 0,-1.005 -0.043,-2.048 -0.121,-3.12 l 1.749,-10.713 c 0.123,0.482 0.245,0.964 0.358,1.451 C -0.646,-6.073 -0.189,-2.918 0,0" /></g><g
         transform="translate(-765.3333,1414.1291)"
         id="g164"><path
           inkscape:connector-curvature="0"
           id="path166"
           style="fill:#ffffff;fill-opacity:1;fill-rule:nonzero;stroke:none"
           d="M 0,0 C 0.162,-1.17 0.267,-2.369 0.32,-3.596 L 2.988,-4.155 C 2.678,-2.837 2.295,-1.859 1.837,-1.233 1.345,-0.563 0.732,-0.154 0,0" /></g><g
         id="g168"
         transform="translate(-1373.2273,616.35714)"><g
           clip-path="url(#clipPath174-7)"
           id="g170"><g
             transform="translate(732.959,754.013)"
             id="g176"><path
               inkscape:connector-curvature="0"
               id="path178"
               style="fill:#ffffff;fill-opacity:1;fill-rule:nonzero;stroke:none"
               d="m 0,0 c 0,-3.13 -0.842,-6.204 -2.521,-9.218 -1.683,-3.016 -4.001,-5.478 -6.958,-7.392 -2.957,-1.913 -6.292,-2.87 -10.001,-2.87 -4.522,0 -8.349,1.566 -11.479,4.696 -3.131,3.131 -4.756,6.957 -4.87,11.48 0,3.131 0.81,6.201 2.435,9.218 1.622,3.014 3.914,5.479 6.87,7.392 2.956,1.913 6.288,2.87 10.001,2.87 4.636,0 8.55,-1.565 11.739,-4.697 C -1.595,8.349 0,4.522 0,0 m -18.159,19.574 c -3.734,-0.253 -7.173,-1.383 -10.241,-3.368 -3.438,-2.224 -6.142,-5.135 -8.035,-8.654 -1.89,-3.509 -2.849,-7.161 -2.849,-10.856 l 10e-4,-0.088 c 0.137,-5.415 2.115,-10.068 5.881,-13.834 3.788,-3.788 8.471,-5.708 13.922,-5.708 4.371,0 8.367,1.152 11.878,3.423 3.421,2.214 6.146,5.11 8.097,8.611 1.964,3.523 2.96,7.19 2.96,10.9 0,5.462 -1.958,10.154 -5.818,13.945 -1.811,1.777 -3.83,3.137 -6.036,4.084 -1.075,-0.286 -2.216,-0.438 -3.428,-0.438 -2.56,0 -4.681,0.671 -6.332,1.983" /></g><g
             transform="translate(726.437,776.711)"
             id="g180"><path
               inkscape:connector-curvature="0"
               id="path182"
               style="fill:#ffffff;fill-opacity:1;fill-rule:nonzero;stroke:none"
               d="m 0,0 c -1.452,-1.104 -3.218,-1.652 -5.306,-1.652 -4.521,0 -6.668,2.723 -6.435,8.175 l 2.262,55.135 c 0.809,17.276 9.566,25.915 26.263,25.915 6.375,0 11.332,-1.391 14.871,-4.174 3.535,-2.783 5.304,-6.669 5.304,-11.654 0,-5.103 -1.799,-10.9 -5.391,-17.392 L 4.261,5.653 C 2.869,2.984 1.449,1.1 0,0 M 7.299,4.008 34.59,52.681 c 3.864,6.982 5.824,13.396 5.824,19.064 0,6.076 -2.228,10.91 -6.624,14.368 -4.145,3.26 -9.866,4.914 -17.006,4.914 -18.544,0 -28.819,-10.1 -29.715,-29.227 L -15.192,6.67 c -0.169,-3.943 0.742,-6.982 2.706,-9.033 0.266,-0.276 0.551,-0.525 0.848,-0.761 0.539,0.037 1.086,0.056 1.637,0.056 2.936,0 5.648,-0.541 8.124,-1.601 1.455,0.385 2.784,1.019 3.967,1.918 1.869,1.421 3.573,3.631 5.209,6.759" /></g></g></g><g
         transform="translate(-658.4283,1389.9441)"
         id="g184"><path
           inkscape:connector-curvature="0"
           id="path186"
           style="fill:#ffffff;fill-opacity:1;fill-rule:nonzero;stroke:none"
           d="m 0,0 c 1.651,-1.311 3.772,-1.982 6.332,-1.982 1.213,0 2.353,0.152 3.429,0.437 C 7.284,-0.484 4.572,0.056 1.636,0.056 1.085,0.056 0.539,0.036 0,0" /></g><g
         transform="translate(-886.2563,1460.7581)"
         id="g188"><path
           inkscape:connector-curvature="0"
           id="path190"
           style="fill:#ffffff;fill-opacity:1;fill-rule:nonzero;stroke:none"
           d="M 0,0 H 3.491 C 3.548,0.264 3.567,0.51 3.567,0.736 3.567,1.793 3.038,2.302 2.208,2.302 1.114,2.302 0.359,1.397 0,0 Z m -2.906,-2.075 c 0,3.207 1.981,6.132 5.284,6.132 2.397,0 3.586,-1.415 3.567,-3.566 0,-0.661 -0.113,-1.397 -0.322,-2.151 h -5.85 v -0.378 c 0,-1.585 0.662,-2.17 1.907,-2.17 0.924,0 1.717,0.245 2.434,0.698 L 5,-3.51 4.567,-5.416 C 3.85,-5.812 2.812,-6.133 1.378,-6.133 c -2.737,0 -4.284,1.397 -4.284,4.058" /></g><g
         transform="translate(-877.12529,1467.9671)"
         id="g192"><path
           inkscape:connector-curvature="0"
           id="path194"
           style="fill:#ffffff;fill-opacity:1;fill-rule:nonzero;stroke:none"
           d="M 0,0 H 1.661 C 2.379,0 2.699,-0.227 2.397,-1.547 L -0.264,-13.21 H -3.018 L 0,0" /></g><g
         transform="translate(-867.5023,1461.9661)"
         id="g196"><path
           inkscape:connector-curvature="0"
           id="path198"
           style="fill:#ffffff;fill-opacity:1;fill-rule:nonzero;stroke:none"
           d="m 0,0 -1.076,-4.718 c 0.302,-0.264 0.755,-0.547 1.547,-0.547 1.925,0 2.887,1.83 2.887,4.397 0,1.113 -0.51,1.679 -1.245,1.679 C 1.396,0.811 0.754,0.528 0,0 Z m -2.19,2.699 h 0.907 c 1.018,0 1.415,-0.491 1.471,-1.265 0.736,0.811 1.83,1.415 2.982,1.415 1.604,0 2.925,-1.057 2.925,-3.661 0,-4.019 -2.132,-6.284 -5.096,-6.284 -1.188,0 -1.944,0.378 -2.434,0.83 l -0.906,-4 H -5.133 L -2.19,2.699" /></g><g
         transform="translate(-857.8253,1460.7581)"
         id="g200"><path
           inkscape:connector-curvature="0"
           id="path202"
           style="fill:#ffffff;fill-opacity:1;fill-rule:nonzero;stroke:none"
           d="M 0,0 H 3.492 C 3.548,0.264 3.567,0.51 3.567,0.736 3.567,1.793 3.039,2.302 2.209,2.302 1.114,2.302 0.36,1.397 0,0 Z m -2.905,-2.075 c 0,3.207 1.981,6.132 5.284,6.132 2.397,0 3.585,-1.415 3.566,-3.566 0,-0.661 -0.113,-1.397 -0.32,-2.151 h -5.851 v -0.378 c 0,-1.585 0.661,-2.17 1.906,-2.17 0.925,0 1.717,0.245 2.435,0.698 H 5.001 L 4.568,-5.416 C 3.85,-5.812 2.812,-6.133 1.379,-6.133 c -2.737,0 -4.284,1.397 -4.284,4.058" /></g><g
         transform="translate(-849.4673,1464.6651)"
         id="g204"><path
           inkscape:connector-curvature="0"
           id="path206"
           style="fill:#ffffff;fill-opacity:1;fill-rule:nonzero;stroke:none"
           d="M 0,0 H 0.869 C 2.058,0 2.397,-0.661 2.341,-1.643 3.077,-0.623 4.095,0.094 5.21,0.094 5.416,0.094 5.605,0.056 5.776,0 l -0.51,-2.322 h -0.34 c -1.302,0 -2.283,-0.453 -2.906,-0.981 L 0.511,-9.908 H -2.264 L 0,0" /></g><g
         transform="translate(-841.9763,1466.8531)"
         id="g208"><path
           inkscape:connector-curvature="0"
           id="path210"
           style="fill:#ffffff;fill-opacity:1;fill-rule:nonzero;stroke:none"
           d="m 0,0 c 0,0.85 0.735,1.491 1.566,1.491 0.831,0 1.416,-0.641 1.416,-1.396 0,-0.868 -0.756,-1.491 -1.585,-1.491 C 0.566,-1.396 0,-0.773 0,0 Z m -0.321,-2.188 h 1.509 c 0.868,0 1.19,-0.227 0.83,-1.812 l -1.849,-8.096 h -2.755 l 2.265,9.908" /></g><g
         transform="translate(-834.42929,1465.9471)"
         id="g212"><path
           inkscape:connector-curvature="0"
           id="path214"
           style="fill:#ffffff;fill-opacity:1;fill-rule:nonzero;stroke:none"
           d="M 0,0 0.981,2.02 H 3.66 V 1.227 L 1.491,-0.585 H 0 Z m 2.189,-5.321 c 0,1.585 -0.679,2.227 -1.698,2.227 -1.624,0 -2.624,-2.038 -2.624,-4.114 0,-1.585 0.68,-2.189 1.737,-2.189 1.679,0 2.585,1.963 2.585,4.076 z m -7.021,-1.831 c 0,3.661 2.511,6.02 5.398,6.02 2.756,0 4.322,-1.698 4.322,-4.246 0,-3.661 -2.341,-5.925 -5.379,-5.925 -2.755,0 -4.341,1.604 -4.341,4.151" /></g><g
         transform="translate(-822.6573,1457.3051)"
         id="g216"><path
           inkscape:connector-curvature="0"
           id="path218"
           style="fill:#ffffff;fill-opacity:1;fill-rule:nonzero;stroke:none"
           d="m 0,0 1.096,4.85 c -0.283,0.264 -0.717,0.585 -1.491,0.585 -1.869,0 -2.963,-1.906 -2.963,-4.379 0,-1.245 0.396,-1.849 1.415,-1.849 0.585,0 1.303,0.302 1.943,0.793 z m -0.093,-1.34 c -0.698,-0.85 -1.661,-1.359 -2.813,-1.359 -1.773,0 -3.189,1.001 -3.189,3.642 0,3.68 2.228,6.548 5.266,6.548 1.132,0 1.849,-0.377 2.321,-0.924 l 0.944,4.095 h 1.659 c 0.718,0 1.039,-0.227 0.737,-1.547 L 2.171,-2.548 H 1.492 c -1.02,0 -1.472,0.528 -1.585,1.208" /></g><g
         transform="translate(-815.8843,1466.8531)"
         id="g220"><path
           inkscape:connector-curvature="0"
           id="path222"
           style="fill:#ffffff;fill-opacity:1;fill-rule:nonzero;stroke:none"
           d="m 0,0 c 0,0.85 0.735,1.491 1.566,1.491 0.83,0 1.415,-0.641 1.415,-1.396 0,-0.868 -0.754,-1.491 -1.584,-1.491 C 0.566,-1.396 0,-0.773 0,0 Z m -0.321,-2.188 h 1.509 c 0.869,0 1.19,-0.227 0.831,-1.812 l -1.85,-8.096 h -2.754 l 2.264,9.908" /></g><g
         transform="translate(-813.1863,1458.7011)"
         id="g224"><path
           inkscape:connector-curvature="0"
           id="path226"
           style="fill:#ffffff;fill-opacity:1;fill-rule:nonzero;stroke:none"
           d="m 0,0 c 0,3.623 2.603,6.114 5.963,6.114 1.302,0 2.208,-0.302 2.906,-0.83 L 8.453,3.51 h -1 C 7.17,3.85 6.661,4.114 5.887,4.114 3.963,4.114 2.716,2.321 2.716,0.019 c 0,-1.434 0.662,-2.132 1.945,-2.132 0.868,0 1.415,0.245 1.924,0.585 H 7.604 L 7.17,-3.397 C 6.547,-3.793 5.661,-4.076 4.452,-4.076 1.433,-4.076 0,-2.453 0,0" /></g><g
         transform="translate(-797.2243,1460.6261)"
         id="g228"><path
           inkscape:connector-curvature="0"
           id="path230"
           style="fill:#ffffff;fill-opacity:1;fill-rule:nonzero;stroke:none"
           d="m 0,0 c 0,1.585 -0.678,2.227 -1.697,2.227 -1.624,0 -2.624,-2.038 -2.624,-4.114 0,-1.585 0.68,-2.189 1.736,-2.189 C -0.906,-4.076 0,-2.113 0,0 Z m -7.019,-1.831 c 0,3.661 2.51,6.02 5.397,6.02 2.755,0 4.322,-1.698 4.322,-4.246 0,-3.661 -2.342,-5.925 -5.379,-5.925 -2.755,0 -4.34,1.604 -4.34,4.151" /></g><g
         transform="translate(-784.1493,1457.6631)"
         id="g232"><path
           inkscape:connector-curvature="0"
           id="path234"
           style="fill:#ffffff;fill-opacity:1;fill-rule:nonzero;stroke:none"
           d="m 0,0 1.056,4.624 c -0.283,0.245 -0.735,0.509 -1.603,0.509 -1.755,0 -2.888,-2.019 -2.888,-4.397 0,-1.264 0.509,-1.66 1.284,-1.66 0.698,0 1.396,0.301 2.151,0.924 z m -0.378,-1.679 c -0.716,-0.717 -1.735,-1.114 -2.754,-1.114 -1.586,0 -3.039,0.944 -3.039,3.34 0,3.926 2.396,6.586 5.378,6.586 1.151,0 2,-0.49 2.53,-1.113 0.414,0.528 0.998,0.982 1.867,0.982 H 4.377 L 1.415,-5.963 h -2.774 l 0.981,4.284" /></g><g
         transform="translate(-773.8113,1456.0591)"
         id="g236"><path
           inkscape:connector-curvature="0"
           id="path238"
           style="fill:#ffffff;fill-opacity:1;fill-rule:nonzero;stroke:none"
           d="m 0,0 c -1,-0.811 -2.019,-1.453 -3.453,-1.453 -1.718,0 -2.662,1.189 -2.151,3.34 l 1.566,6.719 h 1.831 c 0.641,0 0.849,-0.265 0.622,-1.227 L -2.812,1.887 c -0.169,-0.792 0.075,-1.169 0.68,-1.169 0.66,0 1.415,0.282 2.321,0.848 l 1.603,7.04 H 4.548 L 2.284,-1.302 H 1.567 C 0.49,-1.302 0.075,-0.755 0,0" /></g><g
         transform="translate(-766.0573,1460.7581)"
         id="g240"><path
           inkscape:connector-curvature="0"
           id="path242"
           style="fill:#ffffff;fill-opacity:1;fill-rule:nonzero;stroke:none"
           d="M 0,0 H 3.492 C 3.547,0.264 3.567,0.51 3.567,0.736 3.567,1.793 3.038,2.302 2.208,2.302 1.113,2.302 0.358,1.397 0,0 Z m -2.905,-2.075 c 0,3.207 1.98,6.132 5.282,6.132 2.398,0 3.586,-1.415 3.567,-3.566 0,-0.661 -0.113,-1.397 -0.32,-2.151 h -5.851 v -0.378 c 0,-1.585 0.661,-2.17 1.906,-2.17 0.925,0 1.717,0.245 2.435,0.698 H 5.001 L 4.566,-5.416 C 3.85,-5.812 2.811,-6.133 1.378,-6.133 c -2.737,0 -4.283,1.397 -4.283,4.058" /></g><g
         transform="translate(-756.1533,1452.4361)"
         id="g244"><path
           inkscape:connector-curvature="0"
           id="path246"
           style="fill:#ffffff;fill-opacity:1;fill-rule:nonzero;stroke:none"
           d="m 0,0 2.284,3.378 -1.435,8.133 v 0.718 H 3.434 L 4.341,6.322 H 4.379 L 7.68,12.229 H 9.945 V 11.511 L 2.511,-0.736 H 0 V 0" /></g><g
         transform="translate(-739.3413,1460.6261)"
         id="g248"><path
           inkscape:connector-curvature="0"
           id="path250"
           style="fill:#ffffff;fill-opacity:1;fill-rule:nonzero;stroke:none"
           d="m 0,0 c 0,1.585 -0.679,2.227 -1.698,2.227 -1.624,0 -2.624,-2.038 -2.624,-4.114 0,-1.585 0.681,-2.189 1.737,-2.189 C -0.906,-4.076 0,-2.113 0,0 Z m -7.021,-1.831 c 0,3.661 2.511,6.02 5.398,6.02 2.755,0 4.322,-1.698 4.322,-4.246 0,-3.661 -2.341,-5.925 -5.379,-5.925 -2.755,0 -4.341,1.604 -4.341,4.151" /></g><g
         transform="translate(-726.2673,1457.6631)"
         id="g252"><path
           inkscape:connector-curvature="0"
           id="path254"
           style="fill:#ffffff;fill-opacity:1;fill-rule:nonzero;stroke:none"
           d="M 0,0 1.056,4.624 C 0.774,4.869 0.32,5.133 -0.547,5.133 c -1.755,0 -2.887,-2.019 -2.887,-4.397 0,-1.264 0.509,-1.66 1.283,-1.66 0.698,0 1.396,0.301 2.151,0.924 z m -0.378,-1.679 c -0.717,-0.717 -1.735,-1.114 -2.754,-1.114 -1.586,0 -3.039,0.944 -3.039,3.34 0,3.926 2.396,6.586 5.378,6.586 1.151,0 2.001,-0.49 2.529,-1.113 0.416,0.528 1,0.982 1.869,0.982 H 4.378 L 1.415,-5.963 h -2.774 l 0.981,4.284" /></g><g
         transform="translate(-715.9293,1456.0591)"
         id="g256"><path
           inkscape:connector-curvature="0"
           id="path258"
           style="fill:#ffffff;fill-opacity:1;fill-rule:nonzero;stroke:none"
           d="m 0,0 c -0.999,-0.811 -2.018,-1.453 -3.453,-1.453 -1.717,0 -2.661,1.189 -2.151,3.34 l 1.566,6.719 h 1.83 c 0.642,0 0.85,-0.265 0.624,-1.227 L -2.811,1.887 c -0.17,-0.792 0.075,-1.169 0.679,-1.169 0.661,0 1.415,0.282 2.321,0.848 l 1.604,7.04 H 4.549 L 2.284,-1.302 H 1.567 C 0.491,-1.302 0.075,-0.755 0,0" /></g><g
         transform="translate(-709.0053,1466.8531)"
         id="g260"><path
           inkscape:connector-curvature="0"
           id="path262"
           style="fill:#ffffff;fill-opacity:1;fill-rule:nonzero;stroke:none"
           d="m 0,0 c 0,0.85 0.736,1.491 1.566,1.491 0.83,0 1.415,-0.641 1.415,-1.396 0,-0.868 -0.755,-1.491 -1.584,-1.491 C 0.566,-1.396 0,-0.773 0,0 Z m -0.321,-2.188 h 1.51 c 0.869,0 1.189,-0.227 0.831,-1.812 l -1.85,-8.096 h -2.755 l 2.264,9.908" /></g><g
         transform="translate(-703.4583,1460.7581)"
         id="g264"><path
           inkscape:connector-curvature="0"
           id="path266"
           style="fill:#ffffff;fill-opacity:1;fill-rule:nonzero;stroke:none"
           d="M 0,0 H 3.491 C 3.548,0.264 3.567,0.51 3.567,0.736 3.567,1.793 3.038,2.302 2.208,2.302 1.114,2.302 0.358,1.397 0,0 Z m -2.906,-2.075 c 0,3.207 1.981,6.132 5.283,6.132 2.398,0 3.586,-1.415 3.568,-3.566 0,-0.661 -0.113,-1.397 -0.321,-2.151 h -5.851 v -0.378 c 0,-1.585 0.661,-2.17 1.906,-2.17 0.926,0 1.718,0.245 2.435,0.698 H 5.002 L 4.567,-5.416 C 3.85,-5.812 2.811,-6.133 1.378,-6.133 c -2.736,0 -4.284,1.397 -4.284,4.058" /></g><g
         transform="translate(-695.10129,1464.6651)"
         id="g268"><path
           inkscape:connector-curvature="0"
           id="path270"
           style="fill:#ffffff;fill-opacity:1;fill-rule:nonzero;stroke:none"
           d="M 0,0 H 0.868 C 2.057,0 2.397,-0.661 2.34,-1.643 3.076,-0.623 4.095,0.094 5.209,0.094 5.417,0.094 5.605,0.056 5.774,0 L 5.265,-2.322 H 4.926 c -1.303,0 -2.284,-0.453 -2.906,-0.981 L 0.509,-9.908 H -2.264 L 0,0" /></g><g
         transform="translate(-682.60929,1460.6261)"
         id="g272"><path
           inkscape:connector-curvature="0"
           id="path274"
           style="fill:#ffffff;fill-opacity:1;fill-rule:nonzero;stroke:none"
           d="m 0,0 c 0,1.585 -0.679,2.227 -1.698,2.227 -1.624,0 -2.625,-2.038 -2.625,-4.114 0,-1.585 0.681,-2.189 1.737,-2.189 C -0.906,-4.076 0,-2.113 0,0 Z m -7.021,-1.831 c 0,3.661 2.51,6.02 5.398,6.02 2.755,0 4.322,-1.698 4.322,-4.246 0,-3.661 -2.342,-5.925 -5.379,-5.925 -2.755,0 -4.341,1.604 -4.341,4.151" /></g><g
         transform="translate(-886.2563,1460.7581)"
         id="g276"><path
           inkscape:connector-curvature="0"
           id="path278"
           style="fill:#ffffff;fill-opacity:1;fill-rule:nonzero;stroke:none"
           d="M 0,0 H 3.491 C 3.548,0.264 3.567,0.51 3.567,0.736 3.567,1.793 3.038,2.302 2.208,2.302 1.114,2.302 0.359,1.397 0,0 Z m -2.906,-2.075 c 0,3.207 1.981,6.132 5.284,6.132 2.397,0 3.586,-1.415 3.567,-3.566 0,-0.661 -0.113,-1.397 -0.322,-2.151 h -5.85 v -0.378 c 0,-1.585 0.662,-2.17 1.907,-2.17 0.924,0 1.717,0.245 2.434,0.698 L 5,-3.51 4.567,-5.416 C 3.85,-5.812 2.812,-6.133 1.378,-6.133 c -2.737,0 -4.284,1.397 -4.284,4.058" /></g><g
         transform="translate(-877.12529,1467.9671)"
         id="g280"><path
           inkscape:connector-curvature="0"
           id="path282"
           style="fill:#ffffff;fill-opacity:1;fill-rule:nonzero;stroke:none"
           d="M 0,0 H 1.661 C 2.379,0 2.699,-0.227 2.397,-1.547 L -0.264,-13.21 H -3.018 L 0,0" /></g><g
         transform="translate(-867.5023,1461.9661)"
         id="g284"><path
           inkscape:connector-curvature="0"
           id="path286"
           style="fill:#ffffff;fill-opacity:1;fill-rule:nonzero;stroke:none"
           d="m 0,0 -1.076,-4.718 c 0.302,-0.264 0.755,-0.547 1.547,-0.547 1.925,0 2.887,1.83 2.887,4.397 0,1.113 -0.51,1.679 -1.245,1.679 C 1.396,0.811 0.754,0.528 0,0 Z m -2.19,2.699 h 0.907 c 1.018,0 1.415,-0.491 1.471,-1.265 0.736,0.811 1.83,1.415 2.982,1.415 1.604,0 2.925,-1.057 2.925,-3.661 0,-4.019 -2.132,-6.284 -5.096,-6.284 -1.188,0 -1.944,0.378 -2.434,0.83 l -0.906,-4 H -5.133 L -2.19,2.699" /></g><g
         transform="translate(-857.8253,1460.7581)"
         id="g288"><path
           inkscape:connector-curvature="0"
           id="path290"
           style="fill:#ffffff;fill-opacity:1;fill-rule:nonzero;stroke:none"
           d="M 0,0 H 3.492 C 3.548,0.264 3.567,0.51 3.567,0.736 3.567,1.793 3.039,2.302 2.209,2.302 1.114,2.302 0.36,1.397 0,0 Z m -2.905,-2.075 c 0,3.207 1.981,6.132 5.284,6.132 2.397,0 3.585,-1.415 3.566,-3.566 0,-0.661 -0.113,-1.397 -0.32,-2.151 h -5.851 v -0.378 c 0,-1.585 0.661,-2.17 1.906,-2.17 0.925,0 1.717,0.245 2.435,0.698 H 5.001 L 4.568,-5.416 C 3.85,-5.812 2.812,-6.133 1.379,-6.133 c -2.737,0 -4.284,1.397 -4.284,4.058" /></g><g
         transform="translate(-849.4673,1464.6651)"
         id="g292"><path
           inkscape:connector-curvature="0"
           id="path294"
           style="fill:#ffffff;fill-opacity:1;fill-rule:nonzero;stroke:none"
           d="M 0,0 H 0.869 C 2.058,0 2.397,-0.661 2.341,-1.643 3.077,-0.623 4.095,0.094 5.21,0.094 5.416,0.094 5.605,0.056 5.776,0 l -0.51,-2.322 h -0.34 c -1.302,0 -2.283,-0.453 -2.906,-0.981 L 0.511,-9.908 H -2.264 L 0,0" /></g><g
         transform="translate(-841.9763,1466.8531)"
         id="g296"><path
           inkscape:connector-curvature="0"
           id="path298"
           style="fill:#ffffff;fill-opacity:1;fill-rule:nonzero;stroke:none"
           d="m 0,0 c 0,0.85 0.735,1.491 1.566,1.491 0.831,0 1.416,-0.641 1.416,-1.396 0,-0.868 -0.756,-1.491 -1.585,-1.491 C 0.566,-1.396 0,-0.773 0,0 Z m -0.321,-2.188 h 1.509 c 0.868,0 1.19,-0.227 0.83,-1.812 l -1.849,-8.096 h -2.755 l 2.265,9.908" /></g><g
         transform="translate(-834.42929,1465.9471)"
         id="g300"><path
           inkscape:connector-curvature="0"
           id="path302"
           style="fill:#ffffff;fill-opacity:1;fill-rule:nonzero;stroke:none"
           d="M 0,0 0.981,2.02 H 3.66 V 1.227 L 1.491,-0.585 H 0 Z m 2.189,-5.321 c 0,1.585 -0.679,2.227 -1.698,2.227 -1.624,0 -2.624,-2.038 -2.624,-4.114 0,-1.585 0.68,-2.189 1.737,-2.189 1.679,0 2.585,1.963 2.585,4.076 z m -7.021,-1.831 c 0,3.661 2.511,6.02 5.398,6.02 2.756,0 4.322,-1.698 4.322,-4.246 0,-3.661 -2.341,-5.925 -5.379,-5.925 -2.755,0 -4.341,1.604 -4.341,4.151" /></g><g
         transform="translate(-822.6573,1457.3051)"
         id="g304"><path
           inkscape:connector-curvature="0"
           id="path306"
           style="fill:#ffffff;fill-opacity:1;fill-rule:nonzero;stroke:none"
           d="m 0,0 1.096,4.85 c -0.283,0.264 -0.717,0.585 -1.491,0.585 -1.869,0 -2.963,-1.906 -2.963,-4.379 0,-1.245 0.396,-1.849 1.415,-1.849 0.585,0 1.303,0.302 1.943,0.793 z m -0.093,-1.34 c -0.698,-0.85 -1.661,-1.359 -2.813,-1.359 -1.773,0 -3.189,1.001 -3.189,3.642 0,3.68 2.228,6.548 5.266,6.548 1.132,0 1.849,-0.377 2.321,-0.924 l 0.944,4.095 h 1.659 c 0.718,0 1.039,-0.227 0.737,-1.547 L 2.171,-2.548 H 1.492 c -1.02,0 -1.472,0.528 -1.585,1.208" /></g><g
         transform="translate(-815.8843,1466.8531)"
         id="g308"><path
           inkscape:connector-curvature="0"
           id="path310"
           style="fill:#ffffff;fill-opacity:1;fill-rule:nonzero;stroke:none"
           d="m 0,0 c 0,0.85 0.735,1.491 1.566,1.491 0.83,0 1.415,-0.641 1.415,-1.396 0,-0.868 -0.754,-1.491 -1.584,-1.491 C 0.566,-1.396 0,-0.773 0,0 Z m -0.321,-2.188 h 1.509 c 0.869,0 1.19,-0.227 0.831,-1.812 l -1.85,-8.096 h -2.754 l 2.264,9.908" /></g><g
         transform="translate(-813.1863,1458.7011)"
         id="g312"><path
           inkscape:connector-curvature="0"
           id="path314"
           style="fill:#ffffff;fill-opacity:1;fill-rule:nonzero;stroke:none"
           d="m 0,0 c 0,3.623 2.603,6.114 5.963,6.114 1.302,0 2.208,-0.302 2.906,-0.83 L 8.453,3.51 h -1 C 7.17,3.85 6.661,4.114 5.887,4.114 3.963,4.114 2.716,2.321 2.716,0.019 c 0,-1.434 0.662,-2.132 1.945,-2.132 0.868,0 1.415,0.245 1.924,0.585 H 7.604 L 7.17,-3.397 C 6.547,-3.793 5.661,-4.076 4.452,-4.076 1.433,-4.076 0,-2.453 0,0" /></g><g
         transform="translate(-797.2243,1460.6261)"
         id="g316"><path
           inkscape:connector-curvature="0"
           id="path318"
           style="fill:#ffffff;fill-opacity:1;fill-rule:nonzero;stroke:none"
           d="m 0,0 c 0,1.585 -0.678,2.227 -1.697,2.227 -1.624,0 -2.624,-2.038 -2.624,-4.114 0,-1.585 0.68,-2.189 1.736,-2.189 C -0.906,-4.076 0,-2.113 0,0 Z m -7.019,-1.831 c 0,3.661 2.51,6.02 5.397,6.02 2.755,0 4.322,-1.698 4.322,-4.246 0,-3.661 -2.342,-5.925 -5.379,-5.925 -2.755,0 -4.34,1.604 -4.34,4.151" /></g><g
         transform="translate(-784.1493,1457.6631)"
         id="g320"><path
           inkscape:connector-curvature="0"
           id="path322"
           style="fill:#ffffff;fill-opacity:1;fill-rule:nonzero;stroke:none"
           d="m 0,0 1.056,4.624 c -0.283,0.245 -0.735,0.509 -1.603,0.509 -1.755,0 -2.888,-2.019 -2.888,-4.397 0,-1.264 0.509,-1.66 1.284,-1.66 0.698,0 1.396,0.301 2.151,0.924 z m -0.378,-1.679 c -0.716,-0.717 -1.735,-1.114 -2.754,-1.114 -1.586,0 -3.039,0.944 -3.039,3.34 0,3.926 2.396,6.586 5.378,6.586 1.151,0 2,-0.49 2.53,-1.113 0.414,0.528 0.998,0.982 1.867,0.982 H 4.377 L 1.415,-5.963 h -2.774 l 0.981,4.284" /></g><g
         transform="translate(-773.8113,1456.0591)"
         id="g324"><path
           inkscape:connector-curvature="0"
           id="path326"
           style="fill:#ffffff;fill-opacity:1;fill-rule:nonzero;stroke:none"
           d="m 0,0 c -1,-0.811 -2.019,-1.453 -3.453,-1.453 -1.718,0 -2.662,1.189 -2.151,3.34 l 1.566,6.719 h 1.831 c 0.641,0 0.849,-0.265 0.622,-1.227 L -2.812,1.887 c -0.169,-0.792 0.075,-1.169 0.68,-1.169 0.66,0 1.415,0.282 2.321,0.848 l 1.603,7.04 H 4.548 L 2.284,-1.302 H 1.567 C 0.49,-1.302 0.075,-0.755 0,0" /></g><g
         transform="translate(-766.0573,1460.7581)"
         id="g328"><path
           inkscape:connector-curvature="0"
           id="path330"
           style="fill:#ffffff;fill-opacity:1;fill-rule:nonzero;stroke:none"
           d="M 0,0 H 3.492 C 3.547,0.264 3.567,0.51 3.567,0.736 3.567,1.793 3.038,2.302 2.208,2.302 1.113,2.302 0.358,1.397 0,0 Z m -2.905,-2.075 c 0,3.207 1.98,6.132 5.282,6.132 2.398,0 3.586,-1.415 3.567,-3.566 0,-0.661 -0.113,-1.397 -0.32,-2.151 h -5.851 v -0.378 c 0,-1.585 0.661,-2.17 1.906,-2.17 0.925,0 1.717,0.245 2.435,0.698 H 5.001 L 4.566,-5.416 C 3.85,-5.812 2.811,-6.133 1.378,-6.133 c -2.737,0 -4.283,1.397 -4.283,4.058" /></g><g
         transform="translate(-756.1533,1452.4361)"
         id="g332"><path
           inkscape:connector-curvature="0"
           id="path334"
           style="fill:#ffffff;fill-opacity:1;fill-rule:nonzero;stroke:none"
           d="m 0,0 2.284,3.378 -1.435,8.133 v 0.718 H 3.434 L 4.341,6.322 H 4.379 L 7.68,12.229 H 9.945 V 11.511 L 2.511,-0.736 H 0 V 0" /></g><g
         transform="translate(-739.3413,1460.6261)"
         id="g336"><path
           inkscape:connector-curvature="0"
           id="path338"
           style="fill:#ffffff;fill-opacity:1;fill-rule:nonzero;stroke:none"
           d="m 0,0 c 0,1.585 -0.679,2.227 -1.698,2.227 -1.624,0 -2.624,-2.038 -2.624,-4.114 0,-1.585 0.681,-2.189 1.737,-2.189 C -0.906,-4.076 0,-2.113 0,0 Z m -7.021,-1.831 c 0,3.661 2.511,6.02 5.398,6.02 2.755,0 4.322,-1.698 4.322,-4.246 0,-3.661 -2.341,-5.925 -5.379,-5.925 -2.755,0 -4.341,1.604 -4.341,4.151" /></g><g
         transform="translate(-726.2673,1457.6631)"
         id="g340"><path
           inkscape:connector-curvature="0"
           id="path342"
           style="fill:#ffffff;fill-opacity:1;fill-rule:nonzero;stroke:none"
           d="M 0,0 1.056,4.624 C 0.774,4.869 0.32,5.133 -0.547,5.133 c -1.755,0 -2.887,-2.019 -2.887,-4.397 0,-1.264 0.509,-1.66 1.283,-1.66 0.698,0 1.396,0.301 2.151,0.924 z m -0.378,-1.679 c -0.717,-0.717 -1.735,-1.114 -2.754,-1.114 -1.586,0 -3.039,0.944 -3.039,3.34 0,3.926 2.396,6.586 5.378,6.586 1.151,0 2.001,-0.49 2.529,-1.113 0.416,0.528 1,0.982 1.869,0.982 H 4.378 L 1.415,-5.963 h -2.774 l 0.981,4.284" /></g><g
         transform="translate(-715.9293,1456.0591)"
         id="g344"><path
           inkscape:connector-curvature="0"
           id="path346"
           style="fill:#ffffff;fill-opacity:1;fill-rule:nonzero;stroke:none"
           d="m 0,0 c -0.999,-0.811 -2.018,-1.453 -3.453,-1.453 -1.717,0 -2.661,1.189 -2.151,3.34 l 1.566,6.719 h 1.83 c 0.642,0 0.85,-0.265 0.624,-1.227 L -2.811,1.887 c -0.17,-0.792 0.075,-1.169 0.679,-1.169 0.661,0 1.415,0.282 2.321,0.848 l 1.604,7.04 H 4.549 L 2.284,-1.302 H 1.567 C 0.491,-1.302 0.075,-0.755 0,0" /></g><g
         transform="translate(-709.0053,1466.8531)"
         id="g348"><path
           inkscape:connector-curvature="0"
           id="path350"
           style="fill:#ffffff;fill-opacity:1;fill-rule:nonzero;stroke:none"
           d="m 0,0 c 0,0.85 0.736,1.491 1.566,1.491 0.83,0 1.415,-0.641 1.415,-1.396 0,-0.868 -0.755,-1.491 -1.584,-1.491 C 0.566,-1.396 0,-0.773 0,0 Z m -0.321,-2.188 h 1.51 c 0.869,0 1.189,-0.227 0.831,-1.812 l -1.85,-8.096 h -2.755 l 2.264,9.908" /></g><g
         transform="translate(-703.4583,1460.7581)"
         id="g352"><path
           inkscape:connector-curvature="0"
           id="path354"
           style="fill:#ffffff;fill-opacity:1;fill-rule:nonzero;stroke:none"
           d="M 0,0 H 3.491 C 3.548,0.264 3.567,0.51 3.567,0.736 3.567,1.793 3.038,2.302 2.208,2.302 1.114,2.302 0.358,1.397 0,0 Z m -2.906,-2.075 c 0,3.207 1.981,6.132 5.283,6.132 2.398,0 3.586,-1.415 3.568,-3.566 0,-0.661 -0.113,-1.397 -0.321,-2.151 h -5.851 v -0.378 c 0,-1.585 0.661,-2.17 1.906,-2.17 0.926,0 1.718,0.245 2.435,0.698 H 5.002 L 4.567,-5.416 C 3.85,-5.812 2.811,-6.133 1.378,-6.133 c -2.736,0 -4.284,1.397 -4.284,4.058" /></g><g
         transform="translate(-695.10129,1464.6651)"
         id="g356"><path
           inkscape:connector-curvature="0"
           id="path358"
           style="fill:#ffffff;fill-opacity:1;fill-rule:nonzero;stroke:none"
           d="M 0,0 H 0.868 C 2.057,0 2.397,-0.661 2.34,-1.643 3.076,-0.623 4.095,0.094 5.209,0.094 5.417,0.094 5.605,0.056 5.774,0 L 5.265,-2.322 H 4.926 c -1.303,0 -2.284,-0.453 -2.906,-0.981 L 0.509,-9.908 H -2.264 L 0,0" /></g><g
         transform="translate(-682.60929,1460.6261)"
         id="g360"><path
           inkscape:connector-curvature="0"
           id="path362"
           style="fill:#ffffff;fill-opacity:1;fill-rule:nonzero;stroke:none"
           d="m 0,0 c 0,1.585 -0.679,2.227 -1.698,2.227 -1.624,0 -2.625,-2.038 -2.625,-4.114 0,-1.585 0.681,-2.189 1.737,-2.189 C -0.906,-4.076 0,-2.113 0,0 Z m -7.021,-1.831 c 0,3.661 2.51,6.02 5.398,6.02 2.755,0 4.322,-1.698 4.322,-4.246 0,-3.661 -2.342,-5.925 -5.379,-5.925 -2.755,0 -4.341,1.604 -4.341,4.151" /></g><g
         transform="translate(-885.7853,1457.9281)"
         id="g430"><path
           inkscape:connector-curvature="0"
           id="path432"
           style="fill:#706d6e;fill-opacity:1;fill-rule:nonzero;stroke:none"
           d="M 0,0 H 3.492 C 3.548,0.264 3.567,0.509 3.567,0.736 3.567,1.793 3.039,2.302 2.209,2.302 1.115,2.302 0.36,1.397 0,0 Z m -2.905,-2.076 c 0,3.208 1.981,6.133 5.284,6.133 2.397,0 3.585,-1.415 3.566,-3.566 0,-0.661 -0.113,-1.397 -0.321,-2.151 h -5.85 v -0.378 c 0,-1.585 0.661,-2.17 1.907,-2.17 0.924,0 1.716,0.245 2.433,0.698 H 5.001 L 4.567,-5.416 C 3.85,-5.812 2.813,-6.133 1.379,-6.133 c -2.737,0 -4.284,1.396 -4.284,4.057" /></g><g
         transform="translate(-876.6533,1465.1371)"
         id="g434"><path
           inkscape:connector-curvature="0"
           id="path436"
           style="fill:#706d6e;fill-opacity:1;fill-rule:nonzero;stroke:none"
           d="M 0,0 H 1.66 C 2.378,0 2.699,-0.227 2.397,-1.548 L -0.264,-13.21 H -3.019 L 0,0" /></g><g
         transform="translate(-867.0313,1459.1361)"
         id="g438"><path
           inkscape:connector-curvature="0"
           id="path440"
           style="fill:#706d6e;fill-opacity:1;fill-rule:nonzero;stroke:none"
           d="m 0,0 -1.075,-4.718 c 0.302,-0.264 0.754,-0.547 1.547,-0.547 1.924,0 2.887,1.83 2.887,4.397 0,1.113 -0.51,1.679 -1.246,1.679 C 1.396,0.811 0.755,0.528 0,0 Z m -2.189,2.699 h 0.906 c 1.019,0 1.415,-0.491 1.472,-1.265 0.736,0.811 1.83,1.415 2.982,1.415 1.604,0 2.924,-1.057 2.924,-3.661 0,-4.019 -2.132,-6.284 -5.095,-6.284 -1.188,0 -1.944,0.378 -2.435,0.83 l -0.905,-4 h -2.793 l 2.944,12.965" /></g><g
         transform="translate(-857.3533,1457.9281)"
         id="g442"><path
           inkscape:connector-curvature="0"
           id="path444"
           style="fill:#706d6e;fill-opacity:1;fill-rule:nonzero;stroke:none"
           d="M 0,0 H 3.491 C 3.548,0.264 3.567,0.509 3.567,0.736 3.567,1.793 3.039,2.302 2.208,2.302 1.114,2.302 0.359,1.397 0,0 Z m -2.905,-2.076 c 0,3.208 1.981,6.133 5.283,6.133 2.397,0 3.586,-1.415 3.567,-3.566 0,-0.661 -0.113,-1.397 -0.321,-2.151 h -5.85 v -0.378 c 0,-1.585 0.661,-2.17 1.906,-2.17 0.925,0 1.717,0.245 2.435,0.698 H 5.001 L 4.568,-5.416 C 3.85,-5.812 2.812,-6.133 1.378,-6.133 c -2.736,0 -4.283,1.396 -4.283,4.057" /></g><g
         transform="translate(-848.9953,1461.8351)"
         id="g446"><path
           inkscape:connector-curvature="0"
           id="path448"
           style="fill:#706d6e;fill-opacity:1;fill-rule:nonzero;stroke:none"
           d="M 0,0 H 0.869 C 2.058,0 2.397,-0.661 2.341,-1.643 3.076,-0.623 4.095,0.094 5.209,0.094 5.416,0.094 5.605,0.056 5.775,0 L 5.266,-2.322 H 4.925 c -1.302,0 -2.283,-0.453 -2.905,-0.981 L 0.51,-9.908 H -2.264 L 0,0" /></g><g
         transform="translate(-841.5053,1464.0231)"
         id="g450"><path
           inkscape:connector-curvature="0"
           id="path452"
           style="fill:#706d6e;fill-opacity:1;fill-rule:nonzero;stroke:none"
           d="m 0,0 c 0,0.85 0.736,1.491 1.566,1.491 0.831,0 1.416,-0.641 1.416,-1.396 0,-0.868 -0.755,-1.491 -1.585,-1.491 C 0.566,-1.396 0,-0.773 0,0 Z m -0.32,-2.188 h 1.509 c 0.868,0 1.189,-0.227 0.83,-1.812 L 0.17,-12.096 h -2.755 l 2.265,9.908" /></g><g
         transform="translate(-833.9573,1463.1171)"
         id="g454"><path
           inkscape:connector-curvature="0"
           id="path456"
           style="fill:#706d6e;fill-opacity:1;fill-rule:nonzero;stroke:none"
           d="M 0,0 0.981,2.02 H 3.66 V 1.227 L 1.49,-0.585 H 0 Z m 2.189,-5.321 c 0,1.585 -0.68,2.227 -1.698,2.227 -1.624,0 -2.624,-2.038 -2.624,-4.114 0,-1.585 0.679,-2.189 1.737,-2.189 1.679,0 2.585,1.963 2.585,4.076 z m -7.021,-1.831 c 0,3.661 2.51,6.02 5.398,6.02 2.756,0 4.321,-1.698 4.321,-4.246 0,-3.661 -2.34,-5.925 -5.378,-5.925 -2.755,0 -4.341,1.604 -4.341,4.151" /></g><g
         transform="translate(-822.18529,1454.4751)"
         id="g458"><path
           inkscape:connector-curvature="0"
           id="path460"
           style="fill:#706d6e;fill-opacity:1;fill-rule:nonzero;stroke:none"
           d="m 0,0 1.095,4.85 c -0.283,0.264 -0.717,0.585 -1.49,0.585 -1.869,0 -2.963,-1.907 -2.963,-4.379 0,-1.245 0.396,-1.849 1.415,-1.849 0.585,0 1.302,0.302 1.943,0.793 z m -0.093,-1.34 c -0.698,-0.85 -1.662,-1.359 -2.813,-1.359 -1.773,0 -3.189,1 -3.189,3.642 0,3.68 2.227,6.548 5.266,6.548 1.132,0 1.849,-0.377 2.32,-0.924 l 0.945,4.095 h 1.659 c 0.718,0 1.039,-0.227 0.737,-1.548 L 2.171,-2.548 h -0.68 c -1.019,0 -1.471,0.528 -1.584,1.208" /></g><g
         transform="translate(-815.4133,1464.0231)"
         id="g462"><path
           inkscape:connector-curvature="0"
           id="path464"
           style="fill:#706d6e;fill-opacity:1;fill-rule:nonzero;stroke:none"
           d="m 0,0 c 0,0.85 0.736,1.491 1.566,1.491 0.83,0 1.415,-0.641 1.415,-1.396 0,-0.868 -0.753,-1.491 -1.584,-1.491 C 0.566,-1.396 0,-0.773 0,0 Z m -0.32,-2.188 h 1.509 c 0.869,0 1.19,-0.227 0.831,-1.812 l -1.85,-8.096 h -2.754 l 2.264,9.908" /></g><g
         transform="translate(-812.7153,1455.8711)"
         id="g466"><path
           inkscape:connector-curvature="0"
           id="path468"
           style="fill:#706d6e;fill-opacity:1;fill-rule:nonzero;stroke:none"
           d="m 0,0 c 0,3.623 2.604,6.114 5.963,6.114 1.303,0 2.209,-0.302 2.907,-0.83 L 8.454,3.51 h -1 C 7.171,3.85 6.661,4.114 5.888,4.114 3.963,4.114 2.717,2.321 2.717,0.019 c 0,-1.434 0.661,-2.132 1.944,-2.132 0.868,0 1.415,0.245 1.925,0.585 H 7.605 L 7.171,-3.397 C 6.548,-3.793 5.661,-4.076 4.453,-4.076 1.434,-4.076 0,-2.453 0,0" /></g><g
         transform="translate(-796.7523,1457.7961)"
         id="g470"><path
           inkscape:connector-curvature="0"
           id="path472"
           style="fill:#706d6e;fill-opacity:1;fill-rule:nonzero;stroke:none"
           d="m 0,0 c 0,1.585 -0.679,2.227 -1.697,2.227 -1.624,0 -2.624,-2.038 -2.624,-4.114 0,-1.585 0.679,-2.189 1.736,-2.189 C -0.906,-4.076 0,-2.113 0,0 Z m -7.02,-1.831 c 0,3.661 2.51,6.02 5.398,6.02 2.755,0 4.322,-1.698 4.322,-4.246 0,-3.661 -2.342,-5.925 -5.379,-5.925 -2.755,0 -4.341,1.604 -4.341,4.151" /></g><g
         transform="translate(-783.6783,1454.8331)"
         id="g474"><path
           inkscape:connector-curvature="0"
           id="path476"
           style="fill:#706d6e;fill-opacity:1;fill-rule:nonzero;stroke:none"
           d="m 0,0 1.057,4.624 c -0.283,0.245 -0.736,0.509 -1.604,0.509 -1.754,0 -2.887,-2.019 -2.887,-4.397 0,-1.264 0.509,-1.66 1.284,-1.66 0.698,0 1.396,0.301 2.15,0.924 z m -0.378,-1.679 c -0.716,-0.717 -1.735,-1.114 -2.753,-1.114 -1.586,0 -3.039,0.944 -3.039,3.34 0,3.926 2.396,6.586 5.378,6.586 1.151,0 2,-0.49 2.529,-1.113 0.414,0.528 0.999,0.982 1.868,0.982 H 4.378 L 1.415,-5.963 h -2.773 l 0.98,4.284" /></g><g
         transform="translate(-773.33929,1453.2291)"
         id="g478"><path
           inkscape:connector-curvature="0"
           id="path480"
           style="fill:#706d6e;fill-opacity:1;fill-rule:nonzero;stroke:none"
           d="m 0,0 c -1,-0.811 -2.019,-1.453 -3.453,-1.453 -1.718,0 -2.662,1.189 -2.152,3.34 l 1.567,6.719 h 1.83 c 0.642,0 0.849,-0.265 0.623,-1.227 L -2.812,1.887 c -0.169,-0.792 0.075,-1.17 0.68,-1.17 0.66,0 1.415,0.283 2.32,0.849 l 1.604,7.04 H 4.547 L 2.283,-1.302 H 1.567 C 0.49,-1.302 0.075,-0.755 0,0" /></g><g
         transform="translate(-765.5853,1457.9281)"
         id="g482"><path
           inkscape:connector-curvature="0"
           id="path484"
           style="fill:#706d6e;fill-opacity:1;fill-rule:nonzero;stroke:none"
           d="m 0,0 h 3.491 c 0.056,0.264 0.076,0.509 0.076,0.736 0,1.057 -0.529,1.566 -1.36,1.566 C 1.113,2.302 0.358,1.397 0,0 Z m -2.906,-2.076 c 0,3.208 1.981,6.133 5.283,6.133 2.397,0 3.586,-1.415 3.567,-3.566 0,-0.661 -0.113,-1.397 -0.321,-2.151 h -5.85 v -0.378 c 0,-1.585 0.661,-2.17 1.906,-2.17 0.925,0 1.717,0.245 2.435,0.698 H 5.001 L 4.566,-5.416 C 3.85,-5.812 2.811,-6.133 1.377,-6.133 c -2.736,0 -4.283,1.396 -4.283,4.057" /></g><g
         transform="translate(-755.68129,1449.6061)"
         id="g486"><path
           inkscape:connector-curvature="0"
           id="path488"
           style="fill:#706d6e;fill-opacity:1;fill-rule:nonzero;stroke:none"
           d="m 0,0 2.284,3.378 -1.435,8.133 v 0.718 H 3.434 L 4.34,6.321 H 4.378 L 7.68,12.229 H 9.945 V 11.511 L 2.51,-0.736 H 0 V 0" /></g><g
         transform="translate(-738.86929,1457.7961)"
         id="g490"><path
           inkscape:connector-curvature="0"
           id="path492"
           style="fill:#706d6e;fill-opacity:1;fill-rule:nonzero;stroke:none"
           d="m 0,0 c 0,1.585 -0.68,2.227 -1.698,2.227 -1.624,0 -2.624,-2.038 -2.624,-4.114 0,-1.585 0.68,-2.189 1.737,-2.189 C -0.906,-4.076 0,-2.113 0,0 Z m -7.021,-1.831 c 0,3.661 2.51,6.02 5.398,6.02 2.755,0 4.322,-1.698 4.322,-4.246 0,-3.661 -2.341,-5.925 -5.38,-5.925 -2.754,0 -4.34,1.604 -4.34,4.151" /></g><g
         transform="translate(-725.7963,1454.8331)"
         id="g494"><path
           inkscape:connector-curvature="0"
           id="path496"
           style="fill:#706d6e;fill-opacity:1;fill-rule:nonzero;stroke:none"
           d="m 0,0 1.057,4.624 c -0.282,0.245 -0.736,0.509 -1.604,0.509 -1.754,0 -2.886,-2.019 -2.886,-4.397 0,-1.264 0.509,-1.66 1.283,-1.66 0.698,0 1.396,0.301 2.15,0.924 z m -0.377,-1.679 c -0.717,-0.717 -1.736,-1.114 -2.755,-1.114 -1.585,0 -3.038,0.944 -3.038,3.34 0,3.926 2.396,6.586 5.378,6.586 1.151,0 2.001,-0.49 2.529,-1.113 0.415,0.528 1,0.982 1.869,0.982 H 4.378 L 1.415,-5.963 h -2.773 l 0.981,4.284" /></g><g
         transform="translate(-715.4573,1453.2291)"
         id="g498"><path
           inkscape:connector-curvature="0"
           id="path500"
           style="fill:#706d6e;fill-opacity:1;fill-rule:nonzero;stroke:none"
           d="m 0,0 c -0.999,-0.811 -2.018,-1.453 -3.453,-1.453 -1.717,0 -2.661,1.189 -2.151,3.34 l 1.566,6.719 h 1.83 c 0.642,0 0.85,-0.265 0.624,-1.227 L -2.812,1.887 c -0.169,-0.792 0.076,-1.17 0.68,-1.17 0.661,0 1.415,0.283 2.32,0.849 l 1.605,7.04 H 4.548 L 2.283,-1.302 H 1.566 C 0.491,-1.302 0.075,-0.755 0,0" /></g><g
         transform="translate(-708.5333,1464.0231)"
         id="g502"><path
           inkscape:connector-curvature="0"
           id="path504"
           style="fill:#706d6e;fill-opacity:1;fill-rule:nonzero;stroke:none"
           d="m 0,0 c 0,0.85 0.736,1.491 1.566,1.491 0.83,0 1.415,-0.641 1.415,-1.396 0,-0.868 -0.755,-1.491 -1.584,-1.491 C 0.566,-1.396 0,-0.773 0,0 Z m -0.321,-2.188 h 1.509 c 0.869,0 1.19,-0.227 0.831,-1.812 L 0.17,-12.096 h -2.755 l 2.264,9.908" /></g><g
         transform="translate(-702.9863,1457.9281)"
         id="g506"><path
           inkscape:connector-curvature="0"
           id="path508"
           style="fill:#706d6e;fill-opacity:1;fill-rule:nonzero;stroke:none"
           d="M 0,0 H 3.491 C 3.548,0.264 3.566,0.509 3.566,0.736 3.566,1.793 3.038,2.302 2.208,2.302 1.114,2.302 0.358,1.397 0,0 Z m -2.906,-2.076 c 0,3.208 1.98,6.133 5.283,6.133 2.398,0 3.585,-1.415 3.568,-3.566 0,-0.661 -0.114,-1.397 -0.321,-2.151 h -5.851 v -0.378 c 0,-1.585 0.661,-2.17 1.906,-2.17 0.925,0 1.718,0.245 2.435,0.698 H 5.001 L 4.566,-5.416 C 3.849,-5.812 2.811,-6.133 1.378,-6.133 c -2.737,0 -4.284,1.396 -4.284,4.057" /></g><g
         transform="translate(-694.6293,1461.8351)"
         id="g510"><path
           inkscape:connector-curvature="0"
           id="path512"
           style="fill:#706d6e;fill-opacity:1;fill-rule:nonzero;stroke:none"
           d="M 0,0 H 0.868 C 2.057,0 2.397,-0.661 2.34,-1.643 3.076,-0.623 4.095,0.094 5.209,0.094 5.416,0.094 5.605,0.056 5.774,0 L 5.265,-2.322 H 4.926 c -1.303,0 -2.284,-0.453 -2.907,-0.981 L 0.509,-9.908 H -2.264 L 0,0" /></g><g
         transform="translate(-682.1373,1457.7961)"
         id="g514"><path
           inkscape:connector-curvature="0"
           id="path516"
           style="fill:#706d6e;fill-opacity:1;fill-rule:nonzero;stroke:none"
           d="m 0,0 c 0,1.585 -0.68,2.227 -1.699,2.227 -1.623,0 -2.624,-2.038 -2.624,-4.114 0,-1.585 0.68,-2.189 1.737,-2.189 C -0.906,-4.076 0,-2.113 0,0 Z m -7.021,-1.831 c 0,3.661 2.509,6.02 5.398,6.02 2.755,0 4.321,-1.698 4.321,-4.246 0,-3.661 -2.341,-5.925 -5.379,-5.925 -2.754,0 -4.34,1.604 -4.34,4.151" /></g></g></g></svg>