<svg xmlns="http://www.w3.org/2000/svg" width="400.001" height="171.885"><path d="M263.08 30.823l-.17.506-.21.59-.116.242-.148-.258.265-.466.38-.615zm13.506 7.04l.076-.052.455-.393.092-.173-.214.025-.53.22-.523.265-7.347-1.31-.052-.085-.105-.153-.08-.173-.074-.165-.104-.158-.11-.136-.1-.17-.108-.156-.11-.165-.107-.116-.125-.146-.116-.15-.117-.116-.15-.128-.108-.16-.133-.126-.146-.133.04-.103.153-.25.282-.385.353-.515.446-.58.494-.634.506-.7.527-.704.547-.72.527-.672.495-.656.43-.58.362-.493.29-.375.15-.278.027-.104-.1.064-.242.205-.338.33-.442.458-.503.507-.556.583-.603.623-.626.644-.615.68-.604.606-.555.604-.514.514-.434.428-.366.35-.22.23-.102.055-.173-.12-.172-.073-.19-.073-.184-.084-.177-.088-.177-.093-.173-.072-.164-.05-.057-.264.045-.635.06-.876.09-1.037.104-.982.41-.67.824-1.26.684-1.03.587-.8.45-.62.393-.497.33-.326.254-.26.217-.182.197-.15.19-.16.21-.185.204-.24.257-.31.5-.708.317-.652.198-.555.076-.498-.06-.43-.18-.36-.246-.316-.378-.262-.442-.176-.486-.025-.54.13-.542.313-.563.53-.515.777-.486 1.037-.443 1.31-.145.644-.1.52-.065.385-.028.3v.262l-.033.26-.033.28-.064.312-.125.42-.213.53-.27.703-.257.57v-.16l-.056-.237-.17.18-.204.596-.26.86-.17.564-.438.93-.8 1.623-.01.032-.09-.31-.166-.526-.157-.222-.1.048-.105.173-.12.24-.125.286-.133.253-.108.264-.105.15-.092.05h-.108l-.084.017h-.09l-.112.042h-.104l-.09.016h-.095l-.09.02-.163.028-.202.064-.19.057-.175.04-.214-.306-.377-.85-.554-1.192-.59-1.343-.59-1.355-.547-1.186-.378-.832-.21-.314.03.362.22.893.363 1.27.446 1.432.41 1.42.362 1.254.237.9.02.365-.153.097-.152.084-.177.077-.16.044-.15.13-.16.107-.153.105-.152.107-.165.11-.12.14-.146.104-.124.134-.125.12-16.173-2.88-.277-.67-.752-1.834-.716-1.733-.668-1.596-.632-1.455-.555-1.355-.55-1.243-.483-1.117-.442-1.046-.407-.93-.36-.795-.31-.725-.286-.695-.25-.768-.244-.837-.237-.816-.226-.882-.23-.832-.236-.836-.265-.81-.237-.743-.265-.68-.274-.558-.338-.496-.322-.346-.378-.23-.422-.035-.43.093-.42.265-.264.36-.153.437-.08.53.064.608.117.635.193.732.25.724.292.808.325.78.354.776.365.8.398.805.35.76.342.736.313.696.18.415.25.588.33.723.414.882.483 1 .507 1.083.58 1.226.586 1.248.61 1.34.677 1.406.663 1.416.708 1.447.157.354-37.89-6.73-.48.06L7.348 58.488v106.05H392.65V58.487L276.587 37.863z" fill="#fff"/><path d="M263.08 30.823l-.17.507-.21.59-.116.242-.15-.257.267-.467.38-.615zm13.506 7.04l.076-.05.455-.396.092-.172-.214.024-.53.22-.524.265-7.346-1.31-.052-.085-.105-.153-.08-.173-.074-.165-.104-.157-.11-.137-.1-.17-.108-.156-.11-.165-.107-.116-.125-.146-.116-.15-.117-.116-.15-.128-.108-.16-.133-.126-.146-.132.04-.105.153-.25.282-.385.352-.515.447-.58.493-.634.507-.7.527-.704.547-.72.527-.672.495-.655.43-.58.362-.494.29-.375.15-.278.027-.104-.1.064-.242.205-.338.33-.442.458-.503.507-.556.583-.603.623-.626.644-.615.68-.605.607-.555.603-.514.514-.435.428-.364.35-.222.23-.1.055-.173-.12-.172-.073-.19-.072-.184-.085-.177-.088-.177-.093-.173-.072-.165-.05-.056-.264.044-.635.06-.876.09-1.037.104-.98.41-.673.824-1.26.684-1.028.587-.8.45-.62.393-.498.33-.326.253-.26.217-.182.198-.15.19-.16.21-.185.204-.24.257-.31.5-.708.317-.652.197-.555.077-.498-.06-.43-.18-.358-.246-.318-.378-.26-.442-.178-.487-.024-.538.128-.544.314-.563.53-.515.777-.487 1.037-.44 1.31-.146.644-.1.52-.064.385-.03.3v.262l-.03.262-.033.277-.064.315-.125.418-.213.53-.27.704-.257.57v-.16l-.056-.237-.17.18-.204.596-.26.86-.17.564-.44.93-.8 1.623-.007.032-.09-.31-.166-.526-.157-.222-.1.048-.105.173-.12.24-.125.286-.133.253-.11.264-.103.15-.092.05h-.108l-.085.018h-.088l-.113.04h-.104l-.09.016h-.095l-.09.02-.164.028-.2.064-.19.057-.176.04-.213-.306-.377-.85-.555-1.19-.587-1.344-.59-1.356-.547-1.186-.378-.832-.21-.314.03.362.22.893.362 1.27.447 1.432.41 1.42.362 1.254.237.9.02.366-.153.096-.153.085-.176.076-.16.044-.15.13-.16.107-.153.105-.153.108-.164.108-.12.14-.146.105-.124.134-.125.12-16.173-2.878-.277-.672-.752-1.834-.716-1.733-.668-1.596-.632-1.455-.555-1.355-.55-1.242-.483-1.118-.443-1.046-.406-.93-.36-.795-.31-.725-.286-.695-.25-.768-.244-.837-.238-.816-.225-.88-.23-.834-.236-.836-.265-.81-.237-.742-.265-.68-.274-.56-.34-.494-.32-.345-.378-.23-.422-.037-.43.093-.42.265-.264.36-.153.437-.08.53.064.608.116.636.193.732.25.724.293.81.325.78.354.775.365.8.398.805.35.76.34.736.315.697.18.414.25.588.33.724.414.88.483 1.002.507 1.08.58 1.228.586 1.246.61 1.34.676 1.407.664 1.415.708 1.448.156.354-37.89-6.732-.48.06L7.35 58.49v106.05H392.65V58.487L276.587 37.864z" fill="none" stroke="#fff" stroke-width="14.697" stroke-linecap="round" stroke-linejoin="round"/><path d="M262.3 20.598l-.236.064-.19.205-.172.217-.1.338-.077.434v.53l.077.62.25.845.16.495.052 1.207-.024 3.072.21-2.176.204-1.484.145-1.017.14-.63.124-.343.077-.233.105-.2.077-.33.056-.402.024-.334-.024-.253-.056-.236-.11-.145-.148-.126-.164-.096-.19-.02h-.21z" fill="#fff"/><path d="M261.85 23.85l.16.49.057 1.212-.028 3.072.212-2.176.2-1.483.145-1.022.14-.627.13-.342.072-.233.104-.2.076-.334.06-.402.02-.33-.02-.253-.06-.236-.104-.145-.15-.126-.164-.096-.19-.02h-.208l-.237.064-.193.2-.173.222-.096.338-.076.434v.535l.076.616.246.845z" fill="none" stroke="#fff" stroke-width="5.042" stroke-linecap="round" stroke-linejoin="round"/><path d="M246.903 27.596l.306.313.41.33.538.33.285.127.213.1.15.057.156.04.12.04.085.03.14.05.117.05.185.096.2.153.282.205.366.28.418.32.527.44.663.516.776.627-.864-.815-.692-.684-.583-.594-.507-.486-.386-.423-.305-.333-.197-.29-.193-.22-.12-.166-.08-.157-.058-.12-.052-.092-.048-.096-.057-.13-.064-.092-.137-.164-.262-.274-.26-.233-.23-.126-.202-.088-.217-.016-.17.016-.185.116-.152.105-.13.197-.047.23V27l.072.266.185.33z" fill="#fff"/><path d="M246.903 27.596l.306.313.41.33.538.33.285.127.213.1.15.057.156.04.12.04.085.03.14.05.117.05.185.096.2.153.282.205.366.28.418.32.527.44.663.516.776.627-.864-.815-.692-.684-.583-.594-.507-.486-.386-.423-.305-.333-.197-.29-.193-.22-.12-.166-.08-.157-.058-.12-.052-.092-.048-.096-.057-.13-.064-.092-.137-.164-.262-.274-.26-.233-.23-.126-.202-.088-.217-.016-.17.016-.185.116-.152.105-.13.197-.047.23V27l.072.266.185.33z" fill="none" stroke="#fff" stroke-width="5.042" stroke-linecap="round" stroke-linejoin="round"/><path d="M282.926 32.65l-.518.05-.588.093-.667.14-.74.186-.804.2-.488.125-.527.157-.65.2-.71.21-.77.233-.81.237-.783.266-.812.25-.776.252-.756.222-.656.24-.58.21-.477.18-.362.15-.242.108-.063.085.097.024.257-.025.37-.085.528-.108.603-.117.693-.14.75-.174.802-.184.828-.18.792-.206.833-.173.76-.21.72-.192.65-.148.568-.145.47-.137.796-.233.724-.245.623-.222.59-.21.463-.192.35-.193.21-.157.047-.092-.092-.05-.254-.038-.398.037z" fill="#fff"/><path d="M271.294 35.923l-.483.184-.36.145-.238.11-.064.083.096.024.258-.025.37-.084.526-.108.6-.116.695-.14.752-.174.8-.185.83-.185.79-.2.83-.174.763-.21.72-.192.652-.15.567-.144.47-.136.796-.234.724-.245.623-.22.587-.21.467-.193.35-.193.21-.156.047-.088-.092-.057-.253-.037-.398.036-.52.056-.586.088-.666.14-.74.186-.804.2-.487.125-.527.157-.655.2-.703.21-.772.234-.812.237-.784.265-.81.25-.78.253-.752.222-.655.24-.58.21z" fill="none" stroke="#fff" stroke-width="5.042" stroke-linecap="round" stroke-linejoin="round"/><path d="M200.21 24.32L8.045 58.49v106.05H393.34V58.49L200.69 24.26l-.48.06z" fill="#ec008c"/><path d="M200.393 28.606L12.33 62.31v97.955h376.734V62.31l-188.36-33.75-.31.046z" fill="#fff200"/><path d="M380.986 150.012H22.03V69.57l178.94-33.444L380.985 69.57v80.442z" fill="#004896"/><path d="M63.04 104.143h.16l7.444-29.012h27.1V87.7c-2.647 1.653-2.382 4.29-2.382 6.94v31.82c0 2.65-.265 5.288 2.38 6.95v12.56h-25.87v-12.56c2.66-1.662 2.41-4.3 2.41-6.95v-19.01h-.18l-9.574 38.52h-6.944l-10.08-38.52-.182-.002v19.012c0 2.65-.238 5.288 2.408 6.95v12.56H27.912v-12.56c2.638-1.662 2.392-4.3 2.392-6.95V94.64c0-2.65.246-5.287-2.392-6.94V75.13H55.77l7.27 29.013zM158.658 112.578c0-6.61-.406-12.895-6.69-16.695-4.54-2.646-12.483-3.065-17.775-3.065-5.867 0-12.224.503-16.94 4.215-4.882 3.808-4.96 9.924-4.96 15.545v13.55c0 6.857 0 13.235 6.375 17.44 4.535 3.053 12.13 3.463 17.516 3.463 5.947 0 12.883-.48 17.588-4.535 4.72-4.053 4.886-10.58 4.886-16.366v-13.552zm-26.853.16c0-2.882-.503-7.764 3.72-7.764 4.217 0 3.638 4.954 3.638 7.765v15.05c0 2.803.233 7.097-3.723 7.097-3.89 0-3.635-4.294-3.635-7.097v-15.05zM199.074 145.972h21.328v-11.657c-2.566-1.822-2.308-4.13-2.308-5.71V75.132h-21.658V86.79c2.638 1.74 2.147 4.294 2.147 7.016v2.81c-3.474-2.645-7.768-3.8-11.5-3.8-9.824 0-15.445 4.806-15.445 16.202v19.587c0 11.33 2.903 18.43 14.548 18.43 4.63 0 9.176-1.236 12.888-4.03v2.967zm-.49-14.388c-.994.584-2.4.91-3.475.91-3.958 0-3.958-4.545-3.958-7.355v-11.49c0-2.967 0-6.446 3.873-6.446 1.246 0 2.565.403 3.558 1.086v23.294zM232.967 126.965c0 6.273.24 12.06 5.698 16.105 4.303 3.233 12.32 4.543 20.258 3.964 8.006-.567 16.03-2.967 20.327-6.69v-13.07h-19.51v1.927c0 2.623-.25 5.687-3.635 5.687-3.39 0-3.72-3.39-3.64-5.952v-4.793h26.785v-12.304c.334-12.727-4.38-19.105-23.556-19.02-18.263.084-23.07 5.786-22.727 20.005v14.142zm27.102-14.717h-7.604v-1.983c0-2.063.33-5.29 3.8-5.29 3.474 0 3.803 3.227 3.803 5.29v1.983zM313.792 127.45c0 2.566-.245 5.46 2.393 6.865v11.657h-24.288v-11.657c2.562-1.576 2.39-3.893 2.39-6.526V93.644c0-2.646.248-5.292-2.39-6.856V75.13h21.895v52.32zM375.126 112.578c0-6.61-.418-12.895-6.695-16.695-4.547-2.646-12.493-3.065-17.773-3.065-5.87 0-12.236.503-16.94 4.215-4.882 3.808-4.96 9.924-4.96 15.545v13.55c0 6.857 0 13.235 6.37 17.44 4.536 3.053 12.14 3.463 17.517 3.463 5.95 0 12.9-.48 17.596-4.535 4.733-4.053 4.886-10.58 4.886-16.366v-13.552zm-26.87.16c0-2.882-.482-7.764 3.728-7.764 4.214 0 3.643 4.954 3.643 7.765v15.05c0 2.803.242 7.097-3.715 7.097-3.9 0-3.655-4.294-3.655-7.097v-15.05z" fill="#fff"/><path d="M231.322 46.065l-.044.257-.217.112-.296-.04-.483-.128-.55-.23-.663-.293-.732-.31-.837-.35-.908-.357-.965-.342-1.002-.31-1.06-.233-1.123-.18-1.09-.052-1.142.08-1.146.213-1.078.226-.957.133-.848.05-.777-.027-.656-.116-.603-.145-.486-.193-.418-.29-.35-.306-.246-.37-.18-.394-.12-.374-.057-.45v-.415l.056-.43.092-.417.197-.382.254-.373.354-.298.418-.266.486-.225.52-.158.558-.125.6-.048.586-.03.59.045.637.1.547.165.542.205.527.29.456.33.394.406.434.43.595.44.723.414.8.386.91.41.924.41.965.354.97.386.924.358.896.366.825.357.723.35.64.347.478.33.282.374.133.335zM273.145 51.632l2.155-.458 1.78-.41 1.44-.286 1.18-.285.932-.242.728-.204.54-.18.405-.14.313-.146.246-.157.2-.145.21-.145.24-.193.35-.193.463-.25.59-.288.673-.28.62-.204.57-.15.543-.095.487-.052.442-.048.418.048.354.073.306.097.277.13.245.16.19.177.168.19.137.2.064.233.057.217.02.467-.076.395-.184.354-.293.316-.447.254-.543.185-.71.16-.854.03h-.427l-.314-.005-.258-.025-.24-.052-.247-.08-.29-.053-.345-.032-.466-.016h-.62l-.78.016-.965.057-1.24.108-1.54.157-1.793.193-2.18.265-2.533.334zM262.088 33.63l.985-1.963.8-1.628.64-1.344.526-1.102.38-.857.28-.703.22-.53.12-.42.073-.313.02-.276.036-.262v-.26l.023-.303.06-.387.097-.518.15-.644.437-1.31.49-1.037.52-.776.566-.53.543-.315.55-.128.496.024.43.177.35.26.257.32.176.357.068.43-.088.498-.173.555-.338.66-.49.7-.258.317-.213.233-.2.185-.182.16-.213.15-.202.18-.245.262-.346.326-.386.503-.453.62-.583.804-.692 1.022-.816 1.258-.974 1.552-1.117 1.862-1.327 2.192zM229.987 7.418l.44-.093.405.04.382.22.33.35.325.496.277.56.257.675.262.744.25.807.232.84.25.833.208.88.25.817.225.833.258.772.286.695.31.724.373.797.407.93.422 1.045.502 1.113.53 1.243.576 1.36.615 1.455.675 1.6.728 1.725.736 1.834.79 1.962.837 2.09.877 2.25.917 2.367.966 2.503.434 1.166.318.863.177.62.108.41v.168l-.108-.027-.177-.233-.278-.418-.35-.59-.382-.725-.458-.87-.52-.988-.562-1.103-.603-1.194-.655-1.258-.632-1.344-.7-1.39-.655-1.423-.74-1.44-.69-1.468-.697-1.448-.667-1.42-.677-1.403-.62-1.34-.602-1.247-.558-1.23-.51-1.082-.476-.996-.414-.88-.317-.728-.27-.583-.173-.415-.317-.683-.334-.748-.357-.76-.39-.808-.366-.798-.354-.78-.326-.78-.293-.808-.257-.72-.19-.736-.12-.63-.06-.608.1-.53.137-.435.26-.362.423-.266zM229.664 99.322l-.225-.262-.082-.486v-.656l.157-.9.257-.99.33-1.14.47-1.24.54-1.26.325-.75.442-.91.526-1.05.59-1.133.613-1.238.674-1.267.7-1.283.655-1.29.703-1.24.66-1.153.615-1.046.57-.932.487-.74.418-.56.338-.313.19-.088.076.21-.016.42-.16.7-.226.86-.35 1.047-.39 1.166-.426 1.234-.458 1.33-.535 1.34-.495 1.363-.554 1.36-.515 1.282-.458 1.187-.47 1.077-.386.934-.334.744-.314.647-.27.616-.32.6-.314.535-.298.53-.31.503-.313.45-.274.406-.294.362-.294.31-.257.253-.213.23-.25.135-.196.097-.18.024-.162-.024zM275.256 99.54h-.113l-.152-.066-.188-.153-.218-.232-.265-.277-.286-.333-.33-.426-.338-.446-.366-.522-.358-.57-.414-.604-.414-.688-.414-.672-.414-.74-.443-.75-.438-.802-.48-.925-.598-1.132-.683-1.3-.748-1.47-.817-1.54-.785-1.614-.824-1.648-.835-1.657-.784-1.573-.72-1.528-.66-1.393-.538-1.214-.47-1.04-.314-.802-.173-.537v-.2l.173.11.37.43.5.697.598.953.728 1.138.828 1.284.853 1.447.93 1.525.927 1.577.933 1.592.925 1.568.857 1.496.808 1.403.74 1.32.615 1.122.5.913.84 1.564.74 1.5.63 1.374.503 1.207.394 1.018.233.82.085.53-.13.27z" fill="#f99d1c"/><path d="M249.322 73.056h-.639l-.21-.016h-.212l-.204-.02h-.197l-.215-.037-.21-.028-.2-.016-.21-.03-.208-.055-.197-.016-.25-.037-.188-.05-.213-.02-.206-.015-.19-.064-.192-.028-.214-.053-.205-.056-.205-.076-.205-.04-.173-.048-.253.07-.35.232-.386.386-.433.41-.45.434-.38.358-.36.237-.238.056-.11-.173-.02-.422.02-.518.07-.583.04-.604.036-.54-.037-.405-.13-.204-.172-.11-.185-.07-.18-.114-.154-.12-.19-.113-.18-.11-.186-.116-.165-.093-.15-.12-.16-.128-.173-.09-.157-.147-.193-.093-.137-.117-.173-.132-.14-.14-.105-.033-.19.088-.22.137-.294.14-.31.246-.36.238-.367.302-.36.28-.38.28-.365.256-.37.266-.302.2-.28.178-.234.112-.182.052-.1-.04v-.3l.237-.564.386-.776.443-.85.454-.847.398-.752.217-.603v-.29l-.128-.18-.09-.134-.15-.156-.122-.17-.125-.168-.132-.157-.125-.177-.1-.153-.097-.16-.12-.17-.1-.168-.098-.182-.1-.18-.117-.154-.096-.173-.1-.192-.194-.354-.197-.394-.168-.346-.19-.39-.132-.358-.16-.402-.12-.378-.122-.394-.144-.386-.093-.41-.1-.414-.108-.414-.076-.41-.08-.42-.05-.437-.06-.41-.064-.043-.193-.057-.322-.092-.41-.044-.555-.065-.632-.065-.72-.06-.78-.08-.855-.09-.92-.084-.994-.07-1-.073-1.062-.08-1.042-.105-1.117-.073-1.08-.073-1.105-.1-1.098-.085-1.077-.08-1.054-.085-1.02-.093-.974-.072-.897-.076-.88-.09-.77-.07-.74-.078-.61-.08-.53-.056-.403-.06-.354-.077-.176-.064-.077-.044.077-.056.176-.044.31-.056.446-.024.53-.057.612-.02.712-.073.796-.02.845-.028.932-.026.96-.02 1.034-.02 1.022-.032 1.09-.02 1.085-.032 1.122-.02 1.06-.02 1.12-.02 1.045-.025 1.065-.028 1.002-.028.985-.04.9-.025.87-.028.783-.02.732-.053.635-.032.527-.028.43-.036.305-.036.22-.053.062-.045.02-.406.076-.423.08-.422.093-.415.064-.426.11-.406.1-.394.136-.386-.028-.21-.185-.228-.29-.258-.297-.285-.318-.282-.257-.257-.156-.237-.016-.2.145-.15.34-.14.404-.13.494-.087.46-.13.434-.12.354-.128.185-.16.088-.17.082-.153.096-.18.145-.18.088-.182.102-.185.153-.16.08-.174.113-.148.1-.193.14-.138.13-.17.112-.18.14-.148.138-.157.116-.157.125-.145.14-.165.12-.148.157-.17.133-.168.12-.14.153-.182.13-.116.136-.13.155-.128.153-.157.137-.127.185-.125.137-.133.156-.124.165-.14.15-.125.144-.12.17-.14.152-.102.156-.124.14-.114.182-.124.16-.093.162-.114.19-.088.135-.12.184-.09.18-.112.178-.092.193-.12.177-.093.19-.1.176-.084.165-.105.19-.095.176-.11.208-.075.18-.105.182-.072.18-.077.222-.064.16-.073.218-.073.177-.084.213-.053.157-.064.217-.056.185-.05.184-.08.197-.05.21-.062.2-.052.202-.072.213-.016.205-.057.214-.027.197-.048.21-.028.21-.056.208-.032.197-.016.24-.032.202-.028.21-.02.2-.024h.21l.237-.028.21-.016.192-.04H249.75l.214.04h.205l.21.016.216.028h.197l.21.024.204.02.21.028.204.032.233.05.203.035.213.02.2.056.21.02.305-.213.48-.555.56-.808.642-.905.648-.917.555-.776.482-.543.278-.185.068.29-.068.663-.177.888-.213 1.078-.238 1.066-.16.917-.09.656.09.324.16.05.185.063.193.12.173.08.17.09.184.084.185.105.19.105.172.11.192.063.173.12.14.117.194.117.17.096.19.13.15.095.16.113.18.09.154.144.157.117.174.126.164.144.157.125.137.12.173.137.137.13.16.128.165.152.173.13.165.12.14.165.13.128.128.117.13.18.16.142.136.148.116.165.14.145.125.15.13.16.23-.024.526-.23.796-.41.973-.543 1.19-.655 1.275-.712 1.392-.796 1.467-.796 1.407-.837 1.395-.797 1.31-.732 1.17-.634 1.006-.543.776-.394.527-.222.218-.024-.104.173-.443.394-.67.56-.88.69-1.062.818-1.178.896-1.29.99-1.316.973-1.307.98-1.263.966-1.194.885-1.07.828-.9.688-.668.583-.41.378-.125.2.185.338.21.394.18.362.173.38.133.387.15.394.132.383.116.39.2.17.415.132.56.145.652.116.623.12.587.15.414.145.173.166-.1.22-.343.274-.467.27-.534.313-.55.29-.456.265-.35.265-.116.238.116.093.4.09.602.07.776.074.92.092.998.08 1.094.06 1.138.052 1.085.072 1.122.073.99.092.924.08.763.076.603.08.378.1.125.11-.126.12-.378.113-.603.124-.764.148-.926.13-.99.152-1.084.157-1.098.15-1.138.156-1.09.137-.997.14-.913.145-.776.117-.587.13-.385.135-.157.1-.024.41-.064.415-.09.414-.083.41-.077.414-.108.422-.085.406-.15.39.066.077.12.127.234.18.333.202.39.285.483.285.555.334.615.37.64.402.727.434.744.44.776.477.81.47.82.483.843.503.857.502.84.5.845.482.816.482.82.482.777.47.748.446.696.403.672.42.608.365.526.33.47.317.403.253.32.222.218.148.165.15.032.076-.077.02-.164-.036-.274-.076-.362-.15-.438-.143-.53-.21-.548-.253-.65-.28-.7-.295-.75-.334-.807-.354-.816-.366-.858-.358-.844-.406-.897-.403-.892-.414-.904-.386-.87-.418-.88-.375-.852-.398-.832-.358-.764-.34-.752-.328-.712-.31-.652-.286-.55-.23-.527-.212-.48-.173-.34-.135-.27-.077-.18-.04-.073.012-.117.17-.068.172-.093.173-.14.157-.11.185-.088.18-.14.185-.105.15-.097.164-.117.17-.117.156-.137.153-.085.177-.133.164-.136.15-.122.168-.13.14-.135.154-.137.14-.137.14-.137.162-.12.153-.17.16-.13.117-.16.17-.108.132-.165.153-.15.124-.164.152-.152.145-.153.12-.16.113-.15.14-.144.13-.164.136-.16.085-.154.145-.145.105-.185.108-.165.11-.136.108-.2.104-.174.13-.18.103-.154.105-.186.1-.185.1-.162.122-.193.064-.185.1-.16.11-.182.07-.185.11-.217.076-.173.073-.185.072-.17.073-.22.092-.173.064-.22.085-.194.08-.18.035-.213.09-.177.06v.767l.306 1.954.555 2.775.608 3.166.63 3.14.504 2.767.293 1.966v.73l-.156-.172-.235-.52-.33-.795-.385-1.09-.44-1.238-.49-1.412-.538-1.504-.503-1.57-.532-1.54-.494-1.5-.495-1.414-.467-1.275-.39-1.044-.33-.825-.23-.513-.148-.193h-.217l-.2.036h-.21l-.242.02h-.205l-.188.016H249.322z" fill="#f99d1c"/><path d="M255.864 46.772l.133.16-.133.31-.342.49-.478.653-.51.764-.443.887-.34.953-.097 1.018-.04.97-.153.71-.262.543-.305.367-.378.177-.382.08-.39-.08-.35-.153-.282-.276-.192-.394-.072-.487.052-.542.137-.542.225-.49.338-.42.43-.297.487-.357.555-.623.542-.728.507-.796.502-.76.506-.607.415-.407.32-.12zM262.74 28.623l.015-3.072-.052-1.21-.165-.49-.237-.844-.08-.615v-.526l.08-.438.097-.338.193-.225.165-.197.25-.07h.196l.215.02.136.098.166.124.1.145.057.237.02.254-.02.33-.056.402-.073.333-.108.2-.085.234-.115.34-.14.633-.15 1.017-.197 1.5-.21 2.16zM253.534 31.716l-.776-.64-.65-.514-.536-.446-.414-.318-.37-.282-.282-.205-.2-.147-.186-.1-.128-.045-.133-.044-.09-.04-.116-.037-.15-.04-.156-.06-.2-.1-.298-.13-.535-.33-.41-.325-.306-.318-.186-.313-.076-.28v-.238l.06-.23.12-.196.153-.105.186-.11.173-.017.204.016.21.083.237.125.27.24.237.27.133.16.073.094.068.13.045.107.04.083.065.12.072.154.145.165.165.22.213.294.3.33.395.426.495.483.58.595.703.688.856.828zM238.484 43.37v-.197l.052-.177.173-.16.16-.13.27-.076.29-.096.332-.025.346-.04.362-.02.414-.017.398-.048h.415l.398-.008.39-.028.366-.03.35-.056.354-.068.366-.093.487-.072.478-.063.555-.11.64-.14.63-.1.753-.12.772-.13.832-.132.897-.15.985-.144 1.004-.167 1.114-.153 1.15-.17 1.215-.164.563-.072.426-.057.297-.028h.18l.077.027-.028.032-.118.072-.21.072-.31.073-.35.108-.44.105-.504.124-.566.145-.584.14-.627.145-.67.18-.696.14-.716.15-.7.19-.763.16-.676.14-.733.17-.687.144-.648.132-.643.153-.592.13-.55.09-.484.118-.442.064-.37.096-.27.065-.213.024-.342.088-.366.077-.366.076-.39.097-.398.072-.37.097-.394.047-.39.04-.366.056h-.628l-.277-.056-.233-.076-.16-.108-.158-.145-.068-.217zM279.527 53.06l-.128.076h-.235l-.3-.076-.367-.15-.45-.216-.455-.286-.474-.33-.536-.357-.302-.253-.366-.293-.41-.334-.438-.386-.483-.418-.535-.414-.482-.475-.515-.442-.462-.43-.462-.403-.386-.406-.358-.32-.297-.31-.205-.234-.12-.17v-.112l.1-.02.205.073.29.12.357.22.414.223.495.31.503.317.555.346.564.38.534.375.555.386.507.375.5.32.437.34.366.248.297.242.483.414.466.38.397.387.31.378.24.28.174.28.05.216-.033.15zM284.37 32.704l-.043.1-.197.145-.378.192-.46.205-.566.2-.65.222-.717.244-.797.23-.47.136-.567.145-.64.15-.723.192-.777.21-.824.176-.796.2-.828.198-.793.17-.752.173-.703.14-.587.117-.52.113-.38.08-.258.024-.1-.024.075-.08.222-.113.362-.145.482-.185.587-.197.656-.253.747-.217.772-.253.807-.254.796-.265.812-.236.76-.23.704-.21.675-.192.522-.165.48-.128.79-.202.75-.18.678-.134.588-.1.53-.053.37-.04.266.04.09.054z" fill="#a6ce39"/><path d="M269.825 41.55l-.044.166-.055.22-.05.166-.05.165-.073.18-.07.185-.067.202-.073.164-.072.14-.08.182-.09.22-.09.146v.093l.075.192.137.193.145.25.152.232.104.23.08.188v.097l-.096.032-.193-.032-.225-.048-.262-.12-.257-.065-.256-.054-.19-.024-.092.044-.13.13-.14.112-.144.12-.12.153-.154.142-.148.096-.125.13-.16.112v.144l.08.266.15.32.164.4.193.378.12.365.073.262v.13l-.128-.03-.258-.172-.273-.238-.35-.317-.353-.27-.293-.265-.25-.15-.128-.07-.165.1-.148.076-.185.09-.165.07-.16.052-.186.048-.185.064-.184.057-.165.045-.18.052-.172.048-.197.028-.172.025-.193.028-.193.024-.193.016h-.371l-.086.04h-.604l-.083-.04h-.22l-.106-.016h-.063l-.217.43-.41 1.17-.543 1.645-.596 1.898-.586 1.882-.534 1.636-.42 1.175-.212.41.02-.462.213-1.214.347-1.678.406-1.934.423-1.93.317-1.697.22-1.218.018-.482-.172-.06-.185-.085-.18-.044-.19-.07-.17-.078-.16-.12-.19-.07-.136-.103h-.116l-.108.043-.14.108-.153.114-.15.104-.13.093-.152.025h-.084l-.077-.257v-.414l-.032-.44-.068-.232-.14-.16-.138-.12-.12-.15-.134-.137-.12-.096-.1-.162-.13-.12-.14-.154-.1-.165-.11-.165-.132-.145-.093-.145-.09-.157-.09-.177-.068-.172-.06-.177-.105-.143-.073-.18-.084-.158-.072-.178-.085-.153-.052-.186-.04-.185-.052-.174-.028-.193-.056-.173-.044-.21-.024-.148-.028-.172-.024-.214-.03-.185-.043-.18v-.394l-.015-.172v-.386l.016-.21.045-.172.03-.226.023-.177.028-.197.024-.185.028-.184.048-.21.07-.204.05-.17.053-.16.092-.18.064-.2.085-.2.073-.16-.072-.152-.217-.262-.273-.337-.366-.385-.33-.394-.32-.33-.206-.256-.037-.12.146-.04.29.12.41.168.442.213.463.2.39.186.286.098h.117l.104-.153.125-.157.12-.132.117-.125.128-.144.157-.137.128-.16.153-.126.11-.133.156-.1.116-.144.173-.11.142-.107.153-.106.156-.096.154-.13.17-.047.16-.084.17-.084.148-.097-.024-.365-.238-.897-.358-1.26-.414-1.41-.438-1.44-.358-1.27-.233-.893-.025-.354.2.31.4.828.53 1.186.603 1.355.59 1.343.548 1.19.386.853.19.307.188-.04.17-.057.22-.06.157-.024.1-.028h.1l.077-.016h.113l.104-.04h.098l.068-.013h.12l.09-.057.1-.145.104-.265.14-.258.114-.285.14-.24.1-.166.114-.057.144.222.157.525.152.523.16.253.134-.24.205-.59.274-.853.29-.957.305-.974.256-.86.198-.595.16-.176.065.237v.653l-.078.872-.116 1-.07 1.04-.083.875-.02.64.044.265.16.044.182.072.168.092.185.1.18.073.198.073.165.072.165.12.1-.056.23-.23.354-.345.442-.43.53-.514.56-.6.59-.61.62-.68.62-.64.587-.626.575-.583.502-.5.44-.465.34-.33.242-.205.1-.064-.032.104-.15.278-.276.386-.37.49-.438.58-.5.648-.502.67-.55.72-.54.705-.502.7-.5.635-.445.58-.346.513-.284.387-.16.254-.04.1.15.134.122.125.117.16.136.136.142.11.113.148.12.144.12.12.097.162.11.157.112.168.108.15.08.144.085.164.08.173.093.153.113.16.072.17.068.184.07.185.055.164.048.177.07.174.055.18.045.166.028.2.05.174.027.19.032.168.024.225.02.16v.206l.097.064.28.024.38.03.518.048.62.016.676.04.74.016.735.028.753.024.72.02.676.03.618.03.51.013.387.072.26.02.073.057-.088.048-.266.056-.39.04-.514.05-.612.07-.67.06-.76.09-.74.072-.745.073-.728.048-.687.07-.6.092-.526.048-.398.072-.22.065-.118.048-.024.193-.06.197-.02.19-.057.196z" fill="#a6ce39"/><path d="M260.207 82.86l.177.202-.177.374-.43.587-.54.784-.626.925-.538 1.04-.398 1.167-.125 1.238-.08 1.134-.174.888-.322.648-.35.406-.442.26-.475.058-.446-.085-.445-.173-.338-.342-.24-.49-.066-.56.05-.646.16-.64.282-.6.402-.522.527-.345.274-.19.318-.262.322-.35.325-.374.305-.442.334-.466.312-.47.342-.447.314-.46.305-.434.282-.426.285-.334.25-.318.245-.2.217-.11.185-.027zM268.465 61.037l.048-3.676-.076-1.49-.213-.612-.278-.99-.112-.747v-.61l.096-.53.145-.423.2-.273.238-.213.27-.072.245-.028.24.06.198.09.19.136.124.2.072.278.03.282-.03.426-.072.482-.105.366-.1.262-.133.28-.14.41-.165.785-.19 1.207-.225 1.81-.257 2.593zM257.403 64.76l-.925-.78-.784-.605-.65-.514-.508-.42-.418-.34-.338-.232-.245-.173-.213-.105-.185-.088-.125-.07-.157-.027-.12-.024-.165-.05-.205-.082-.258-.128-.334-.153-.663-.406-.49-.393-.334-.382-.246-.37-.104-.322v-.282l.08-.296.153-.2.196-.158.2-.12.222-.033.246.032.24.077.298.185.282.245.33.358.16.193.07.117.083.14.044.117.094.12.044.137.1.193.153.205.207.254.277.32.366.424.454.494.58.61.73.72.858.838 1 .977zM239.312 78.787v-.257l.07-.217.176-.18.217-.142.318-.095.325-.097.398-.052.44-.06.46-.02.46-.04.486-.02h.5l.49-.03.458-.027.442-.045.414-.065.414-.064.487-.096.535-.117.607-.09.662-.127.74-.145.81-.12.86-.156.952-.165.997-.138 1.1-.185 1.15-.185 1.242-.173 1.31-.222 1.38-.197 1.484-.212.667-.073.523-.072.354-.032h.245l.064.033-.03.044-.144.08-.26.08-.367.097-.43.133-.512.12-.61.166-.657.177-.726.144-.752.205-.825.192-.836.18-.83.206-.894.19-.845.192-.875.18-.845.194-.824.18-.804.182-.784.145-.696.158-.667.13-.596.127-.515.113-.434.104-.35.04-.237.06-.41.065-.41.113-.486.1-.46.097-.457.104-.495.122-.458.072-.443.045-.426.047-.414.024-.37-.023-.31-.048-.29-.078-.216-.16-.177-.178-.068-.237zM288.687 90.415l-.157.1h-.28l-.37-.128-.448-.17-.526-.232-.563-.33-.6-.386-.615-.47-.37-.283-.43-.35-.49-.43-.547-.43-.6-.515-.582-.523-.627-.515-.59-.535-.56-.507-.546-.535-.482-.462-.415-.414-.365-.358-.23-.282-.128-.205-.045-.12.124-.037.253.073.334.165.436.23.518.313.575.354.602.386.652.455.67.438.685.454.675.435.595.438.58.414.538.386.434.338.362.25.6.474.542.523.466.462.394.41.294.382.18.33.08.24-.023.165zM294.508 65.945l-.016.053-.056.072-.1.113-.154.072-.18.1-.238.097-.253.14-.273.13-.342.132-.374.137-.38.117-.39.125-.44.165-.43.12-.47.157-.478.137-.54.146-.707.177-.78.19-.868.224-.937.237-.97.23-.993.225-1.01.244-.94.2-.9.218-.833.165-.724.177-.607.125-.466.067-.318.016-.11-.016.06-.068.294-.174.43-.177.596-.19.695-.266.792-.293.913-.265.917-.297.95-.31.996-.31.945-.277.933-.292.846-.262.768-.225.707-.216.536-.137.495-.128.46-.122.474-.125.442-.076.41-.1.382-.085.394-.044.326-.053.338-.052.293-.024.25-.017h.385l.144.016.06.023.048.052z" fill="#fff200"/><path d="M277.006 76.58l-.064.22-.048.245-.077.2-.04.194-.085.25-.108.204-.113.237-.063.198-.068.19-.082.224-.14.213-.1.2v.11l.1.225.164.26.157.28.168.288.17.262.06.197v.145l-.125.048-.206-.048-.27-.07-.32-.103-.314-.106-.27-.064h-.245l-.12.052-.19.117-.152.156-.15.168-.156.165-.173.144-.17.15-.172.115-.19.148v.165l.106.318.182.43.205.476.213.442.157.414.108.322-.032.157-.16-.024-.286-.197-.346-.318-.413-.354-.41-.346-.362-.322-.298-.193-.177-.056-.076.057-.117.053-.06.04-.105.056-.104.044-.133.073-.108.048-.1.045-.097.016-.113.062-.1.024-.105.024-.097.052-.132.028-.11.024-.09.016-.114.028-.114.037-.08.032-.11.028-.107.04-.134.04h-.092l-.097.012-.12.025-.12.016h-.098l-.113.028h-.13l-.095.036h-.14l-.106.024h-.461l-.093.032h-.725l-.126-.032h-.246l-.097-.024h-.096l-.1.13-.16.377-.23.606-.265.796-.31.925-.334 1.06-.35 1.103-.364 1.166-.362 1.162-.362 1.118-.338 1.046-.306.93-.257.775-.232.623-.165.362-.093.13.017-.572.26-1.436.407-2.023.507-2.335.47-2.328.41-2.04.255-1.446.008-.57-.097-.05-.1-.015-.093-.06-.12-.044-.1-.047-.114-.037-.105-.052-.12-.028-.093-.056-.11-.04-.09-.053-.118-.056-.11-.047-.087-.077-.11-.048-.083-.06h-.117l-.132.06-.177.125-.185.12-.205.133-.177.117-.128.076-.133-.03-.085-.313-.016-.515v-.53l-.09-.266-.173-.205-.157-.16-.144-.17-.16-.143-.13-.133-.153-.177-.156-.173-.17-.185-.108-.186-.138-.197-.128-.197-.12-.17-.122-.188-.096-.19-.09-.224-.083-.193-.11-.19-.1-.2-.112-.185-.075-.193-.06-.217-.09-.233-.08-.238-.043-.194-.05-.22-.067-.218-.04-.21-.053-.2-.024-.237-.024-.224-.032-.246-.02-.205v-.23l-.036-.244-.028-.22v-.443l.028-.257.056-.217.032-.246.024-.24.024-.218.03-.238.05-.2.05-.263.08-.23.076-.213.068-.21.085-.216.073-.245.11-.205.095-.237-.076-.173-.245-.342-.366-.406-.414-.446-.406-.458-.374-.415-.225-.31-.075-.148.173-.032.37.132.446.206.56.266.538.253.466.188.354.145h.157l.136-.18.124-.178.15-.177.136-.165.144-.177.214-.152.177-.177.157-.16.125-.138.193-.142.177-.164.145-.145.177-.098.19-.136.204-.16.185-.13.104-.044.105-.04.096-.053.11-.05.087-.047.09-.052.103-.052.09-.044-.04-.442-.28-1.082-.437-1.516-.49-1.713-.522-1.728-.443-1.5-.27-1.07-.03-.442.08.097.152.27.21.437.272.55.29.685.333.74.362.8.37.847.353.83.358.787.346.772.302.667.265.56.22.438.165.286.08.1.085-.02.133-.023.112-.025.113-.032.116-.056.105-.02h.104l.104-.012.12-.04.11-.02.132-.03h.1l.125-.04h.11l.127-.01h.093l.108-.08.16-.186.13-.278.14-.338.14-.33.158-.285.118-.196.15-.084.188.28.197.616.165.616.19.317.16-.262.257-.728.297-.997.362-1.194.33-1.155.338-1.002.257-.73.176-.255.08.31-.012.768-.088 1.053-.12 1.218-.11 1.238-.08 1.058-.024.776.06.314.1.048.118.024.076.06.117.024.092.044.153.053.092.048.097.048.092.073.12.008.096.06.1.044.098.053.124.073.093.056.097.043.13-.072.284-.256.412-.382.538-.543.624-.616.68-.732.72-.744.743-.8.748-.776.728-.768.66-.704.63-.62.51-.542.415-.382.286-.254.14-.06-.06.14-.177.302-.342.467-.446.592-.512.712-.587.764-.63.82-.635.86-.676.857-.612.816-.603.777-.51.688-.44.62-.313.474-.205.308-.016.12.15.158.157.16.148.178.153.152.14.153.15.152.144.185.14.145.13.21.12.184.15.185.116.186.1.19.125.196.105.205.112.177.097.205.1.208.077.2.08.242.048.19.077.22.08.206.072.21.064.208.056.217.056.238.025.205.02.25.028.213.037.24v.222l.1.044.314.07.48.02.64.05.75.025.797.028.88.032.89.045.908.028.877.02.82.024.728.048.607.036.48.05.3.06.11.055-.11.037-.3.056-.504.068-.61.077-.765.093-.8.08-.89.073-.896.105-.904.08-.877.08-.83.086-.705.084-.635.085-.487.072-.326.088-.076.05-.027.22-.045.233-.036.233-.076.238z" fill="#fff200"/><path d="M208.594 58.23l.052.157-.08.1-.165.11-.265.084-.37.05-.438.055-.48.065-.558.08-.555.1-.616.137-.628.15-.62.216-.614.25-.6.34-.567.383-.51.46-.486.44-.458.38-.426.29-.403.208-.394.193-.354.072-.342.035-.282-.016-.277-.053-.25-.097-.238-.136-.165-.185-.185-.182-.136-.22-.09-.24-.083-.252-.016-.26.016-.295.084-.236.117-.29.19-.273.224-.252.265-.234.29-.197.3-.21.32-.148.33-.13.357-.108.366-.056.33-.028.365.056.327.072.366.093.446.043h.514l.55-.044.572-.094.623-.072.626-.1.616-.133.6-.108.59-.084.53-.073.5-.044.41-.02.353.057.266.077.154.116zM232.076 48.062l.945-.88.833-.75.644-.638.51-.51.415-.407.317-.314.212-.253.17-.22.096-.174.116-.137.037-.145.053-.12.117-.194.1-.2.15-.286.236-.325.51-.653.483-.49.466-.338.438-.182.37-.076.326.052.28.145.21.16.173.237.056.24v.23l-.045.257-.14.254-.222.28-.34.28-.408.284-.213.13-.165.112-.152.052-.14.056-.158.044-.137.05-.22.095-.254.146-.306.17-.414.264-.486.338-.608.438-.748.535-.88.68-1.018.83-1.21.932zM220.695 42.194l-.197-2.4-.168-1.62-.12-1.043-.126-.586-.14-.338-.125-.285-.178-.38-.24-.673-.17-.824-.093-.696.027-.543.13-.458.192-.342.216-.245.258-.118.293-.048.278.024.237.08.21.117.148.22.14.283.05.33.027.438-.028.543-.174.727-.193.768-.21 2.17-.048 4.9zM195.832 38.654l.197-.197.24-.113h.245l.298.08.322.133.35.197.333.286.366.29.386.333.37.358.394.387.362.366.39.358.382.366.358.31.37.29.386.253.446.313.49.353.548.395.603.43.682.47.7.54.792.563.845.623.903.676.953.716 1.026.772 1.086.824 1.166.91 1.206.924 1.295.997.595.462.434.378.282.254.185.184.045.064-.044.036-.184-.084-.262-.13-.362-.208-.434-.237-.482-.322-.59-.342-.62-.41-.696-.44-.728-.456-.748-.498-.812-.503-.785-.53-.804-.532-.816-.54-.832-.532-.776-.53-.77-.504-.743-.498-.724-.503-.68-.442-.6-.413-.566-.382-.466-.294-.41-.293-.293-.237-.245-.136-.378-.282-.423-.245-.405-.274-.442-.297-.426-.278-.44-.305-.43-.322-.405-.293-.358-.3-.31-.303-.277-.313-.213-.273-.13-.285-.07-.294.015-.25.132-.265zM224.364 86.455l-.185-.076-.207-.21-.21-.394-.204-.487-.202-.608-.18-.667-.133-.793-.093-.82-.253-2.585-.182-3.507-.048-3.04.205-1.33.25.325.252.913.334 1.355.335 1.624.31 1.762.28 1.667.21 1.5.15 1.074.103 1.637-.048 1.372-.18.9-.306.385zM248.097 72.352l-.07.032-.103.016-.15-.016-.172-.06-.205-.09-.262-.075-.32-.134-.3-.113-.36-.184-.363-.166-.414-.21-.414-.192-.434-.238-.443-.253-.458-.26-.487-.254-.56-.305-.635-.422-.784-.47-.824-.503-.89-.57-.936-.604-.96-.582-.914-.583-.9-.603-.853-.57-.776-.524-.683-.454-.554-.394-.44-.294-.264-.245-.074-.084h.153l.313.085.486.246.62.27.743.37.816.434.908.454.96.523.938.523 1 .53.97.515.93.523.847.494.78.43.668.383.548.317.462.286.46.277.433.27.41.28.398.255.367.26.338.234.305.23.286.22.225.21.21.18.157.17.13.144.1.1.04.105v.09z" fill="#ec008c"/><path d="M226.37 66.678l-.1.072-.134.048-.108.057-.097.088-.13.048-.106.042-.1.056-.1.04-.146.056-.084.05-.137.047-.125.073-.132.044-.13.02-.116.065-.12.036-.097.056-.104.04-.11.06-.136.03-.124.055-.11.015-.12.065-.132.012-.088.104-.096.21-.093.34-.076.33-.096.36-.116.313-.08.244-.145.12-.102-.092-.124-.177-.16-.277-.146-.322-.157-.322-.184-.285-.157-.21-.157-.057h-.13l-.096-.028h-.748l-.105-.016h-.14l-.09-.03h-.132l-.105-.027-.136-.02-.097-.024-.125-.033-.168.132-.165.34-.19.455-.2.527-.242.51-.173.447-.176.333-.165.088-.152-.5-.072-1.123-.093-1.134-.13-.53-.083-.02-.12-.065-.117-.02-.133-.045-.085-.036-.14-.06-.105-.024-.124-.048-.113-.057-.105-.076-.128-.048-.1-.06-.093-.077-.14-.052-.102-.065-.108-.052-.1-.084-.073-.05-.11-.043-.103-.09-.14-.05-.084-.048-.077-.076-.105-.073-.093-.068-.116-.09-.097-.08-.08-.075-.098-.073-.096-.072-.1-.105-.093-.064-.19-.177-.176-.182-.197-.15-.185-.176-.18-.213-.162-.186-.17-.197-.172-.19-.184.04-.398.15-.65.274-.822.39-.98.49-1.086.516-1.155.575-1.19.584-1.186.615-1.127.578-1.086.503-.99.488-.823.394-.61.297-.444.144-.156.032.1-.137.37-.29.567-.394.757-.5.897-.562.997-.66 1.095-.67 1.138-.737 1.093-.695 1.082-.708 1.013-.63.898-.576.78-.507.567-.397.37-.274.09-.137-.074-.23-.123-.23-.08-.236-.1-.23-.082-.264-.072-.262-.065-.224-.052-.23-.076-.108-.165-.084-.245-.045-.222-.045-.257-.032-.236-.044-.157-.074-.076-.112.057-.153.12-.144.186-.22.21-.202.224-.213.185-.172.092-.157.065-.127.027-.258V57.9l.028-.225v-.47l.028-.237.012-.25.032-.26.053-.222.04-.27.056-.27.02-.24.077-.22.084-.21.073-.25.104-.225.08-.237.073-.24.084-.186.074-.238.132-.242.1-.21.138-.22.124-.217.12-.184.138-.233.128-.18.117-.223.178-.193.137-.193.16-.18.18-.186.154-.172.192-.2.145-.194.16-.17.1-.1.106-.076.092-.085.1-.083.113-.07.13-.087.104-.072.096-.08.11-.077.103-.068.086-.088.084-.077.105-.064.108-.056.113-.09.092-.04.13-.09.132-.074.12-.064.125-.057.096-.057.122-.044.105-.048.116-.06.1-.06.117-.045.15-.057.108-.04.128-.057.13-.036.12-.028.116-.056.14-.652.094-1.278.108-1.275.117-.598.166.136.177.366.2.527.214.604.2.624.19.53.165.366.148.125.12-.037h.106l.128-.012h.13l.1-.027h1.037l.142.028H221.982l.136.013h.128l.117.036h.266l.096.03.13.037.116.05.132.015.113.028h.14l.125.028.12.02.102.052.12.024.09.05.123.05.117.02.088.05.137.023.104.05.112-.094.23-.273.28-.46.36-.606.397-.696.458-.808.46-.824.486-.873.49-.868.487-.837.45-.796.41-.692.355-.59.273-.47.235-.283.092-.084v.13l-.092.336-.193.522-.226.623-.31.768-.345.83-.357.908-.394.917-.355.917-.37.9-.322.853-.313.744-.258.64-.176.483-.11.37v.137l.11.084.1.065.097.05.136.073.1.05.1.09.097.05.088.068.11.077.124.08.09.073.11.088.112.07.07.083.103.086.1.056.162.06.265-.06.318-.1.366-.145.386-.137.337-.09.27-.063.156.064.008.106-.097.24-.17.31-.168.323-.206.332-.153.27-.11.24v.154h.11l.206-.077.322-.157.45-.2.49-.23.532-.29.595-.31.607-.297.587-.326.59-.298.547-.285.515-.24.402-.206.346-.14.237-.077h.097l-.016.133-.153.173-.294.264-.337.29-.442.37-.453.398-.515.426-.55.414-.516.43-.51.403-.5.406-.417.35-.35.318-.282.258-.16.185-.05.097.113.237.098.218.1.24.073.262.08.23.09.265.068.236.076.25.153.052.41.028.652.008h4.008l1.182-.008 1.182-.028h4.017l.626.028.415.008.15.052-.13.097-.393.08-.628.093-.78.112-.966.125-1.05.128-1.137.126-1.19.125-1.155.137-1.134.15-1.053.124-.957.105-.796.137-.628.09-.394.087-.116.084-.036.213V58.73l-.03.23-.043.236-.028.218-.052.27-.053.264-.02.222-.056.245-.084.217-.057.245-.064.217-.04.266-.096.23-.092.236-.11.23-.123.23-.106.192-.13.217-.095.217-.082.217-.156.21-.13.208-.128.217-.153.17-.163.196-.153.19-.153.213-.176.202.064.14.193.274.33.41.43.515.528.608.63.675.63.708.65.725.672.724.647.73.595.664.51.587.443.528.342.402.193.298.028.12-.132-.044-.282-.22-.406-.31-.547-.443-.622-.506-.696-.587-.744-.64-.744-.66-.76-.642-.736-.62-.69-.574-.64-.502-.535-.438-.406-.318-.282-.205-.125-.012-.108.068-.09.073-.12.076-.132.048-.088.073-.12.096-.118.043-.104.085z" fill="#ec008c"/></svg>