<svg xmlns="http://www.w3.org/2000/svg" width="400" height="181.055"><g fill-rule="evenodd"><path d="M27.14 105.21l81.28 48.52s7.3 5.62 8.483-3.063V43.412c0-5.873 3.748-8.938 8.088-8.938 4.54 0 8.09 3.065 8.09 8.938V170.33c0 5.873-3.55 10.725-8.09 10.725-2.563 0-6.903-2.298-6.903-2.298L5.242 110.83c-5.13-2.81-6.313-8.683-4.34-12.77.79-1.53 2.96-3.32 2.96-3.32l67.666-53.626c3.75-2.298 8.68-1.277 11.048 2.81 2.367 3.83 1.38 9.192-2.367 11.49 0 0-51.492 42.392-52.28 42.902-.79.766-4.143 3.32-.79 6.895" fill="#0994dc"/><path d="M99.345 130.493c-2.17 3.83-6.51 5.362-9.864 3.575L69.16 122.32c-3.156-2.042-3.945-6.383-1.775-10.214 2.17-3.83 6.51-5.363 9.864-3.575L97.37 120.28c3.157 1.788 4.143 6.384 1.973 10.215M65.215 105.466c0 4.086-3.55 7.66-7.496 7.66-4.34 0-7.695-3.574-7.695-7.66 0-4.085 3.354-7.405 7.694-7.405 3.944 0 7.495 3.32 7.495 7.406" fill="#176fc1"/><path d="M155.767 21.706l-.592-.51-2.565-1.533L131.502 2.81c-.987-1.023-2.368-2.044-3.946-2.3l-.395-.255h-.59C126.175 0 125.78 0 125.19 0c-.593 0-.988 0-1.382.255h-.79l-.394.255c-1.38.256-2.762 1.277-3.748 2.3l-21.11 16.853-2.564 1.532-.79.51c-1.577 1.79-2.76 3.832-2.76 6.385 0 4.597 3.944 8.427 8.482 8.427 1.578 0 2.96-.51 4.143-1.02l.592-.256.788-.766 16.77-12.768c2.76-2.554 5.128-.51 5.325-.255l16.966 13.024.788.767.395.256h.198c1.185.51 2.566 1.02 4.144 1.02 4.538 0 8.286-3.83 8.286-8.426 0-2.553-.986-4.596-2.762-6.384" fill="#f68712"/><path d="M150.046 80.44l5.72-23.238h7.498l3.945 8.938c1.183 2.81 1.972 5.363 2.76 7.916h.2c0-2.298.592-5.107 1.183-8.427l2.17-8.428h6.116l-5.722 23.24h-6.707l-4.142-9.195c-1.38-3.32-2.17-5.362-2.96-8.172h-.198c-.2 2.3-.987 5.62-1.973 9.194l-1.973 8.17M190.488 57.202l-5.524 23.24h-6.51l5.72-23.24M211.992 79.93c-1.578.51-4.143 1.02-7.89 1.02-7.892 0-13.22-3.83-13.22-9.958 0-5.363 3.157-9.45 7.695-11.747 2.96-1.787 6.707-2.554 10.85-2.554 3.354 0 5.72.768 6.708 1.023L214.36 61.8c-.987-.256-2.96-.767-5.525-.767-2.564 0-4.932.766-6.904 1.787-2.367 1.788-3.945 4.34-3.945 7.66 0 3.832 2.565 6.13 7.89 6.13 1.974 0 4.144-.255 5.525-.766M228.17 70.737h-3.355s4.735-8.428 5.327-9.704h.198c.2 1.276.2 3.32.394 4.596l.592 5.107h-3.156zm7.298-13.535h-8.285l-14.6 23.24h6.906l3.55-5.875h8.483l.59 5.874h6.906M255 67.417c-.593.255-1.185.255-1.777.255h-2.564l1.577-6.64c.592 0 1.184-.255 2.367-.255H255c2.366.255 4.34 1.022 4.34 2.81 0 2.042-1.776 3.32-4.34 3.83zm10.85-4.597c0-2.043-1.382-3.575-3.354-4.596-1.973-1.022-4.735-1.277-7.497-1.277h-.2c-3.156 0-6.115.255-8.088.51l-5.72 22.984h6.51l2.17-9.193h1.972c1.578 0 2.564.51 3.354 1.277.394.51.59 1.532.59 2.554.396 2.81.79 4.852.988 5.363h6.51c-.592-.766-.79-3.83-1.184-6.64-.198-2.042-.986-3.574-2.76-4.085v-.255c3.944-1.022 6.706-3.065 6.706-6.64M279.66 70.737H276.5l2.96-5.108.196-.512c.79-1.276 1.578-2.81 2.17-4.085h.198c0 1.276.2 3.32.395 4.596l.593 5.107h-3.354zm7.496-13.535H278.87l-14.6 23.24h6.71l3.55-5.875h8.68l.592 5.874h6.707M316.156 79.42c-2.17.765-5.92 1.276-9.667 1.276-4.144 0-7.498-.766-10.062-2.298-2.368-1.788-3.75-4.342-3.75-7.406 0-4.34 2.37-8.172 6.117-10.726 3.354-2.042 8.09-3.32 13.218-3.32 3.946 0 6.708.512 7.89 1.022l-1.774 4.086c-1.382-.255-3.75-.766-6.512-.766-2.96 0-5.523.51-7.496 1.787-2.565 1.533-4.34 4.342-4.34 7.662 0 3.83 2.96 5.873 7.693 5.873 1.58 0 2.565-.255 3.354-.51l1.183-4.853h-4.735l.987-4.086h10.85M332.333 57.202l-3.354 13.535c-.2.766-.395 1.532-.395 2.553 0 2.043 1.578 3.32 4.34 3.32 3.354 0 5.523-1.532 6.707-5.873l3.157-13.535h6.51l-3.355 13.28c-1.578 7.15-5.524 10.47-13.81 10.47-6.115 0-9.864-2.554-9.864-7.406 0-1.022 0-2.3.396-3.32l3.157-13.024M360.938 70.737h-3.156l2.96-5.108.198-.512c.79-1.276 1.38-2.81 2.17-4.085h.198c0 1.276.2 3.32.2 4.596l.59 5.107h-3.156zm7.497-13.535h-8.483l-14.4 23.24h6.706l3.55-5.875h8.682l.59 5.874h6.71" fill="#176fc1"/><path d="M224.815 99.338h-4.143l3.75-6.895.393-.766c.987-1.532 1.973-3.83 2.762-5.618h.198c.2 2.042.395 4.595.395 6.383l.79 6.895h-4.144zm9.47-18.642H223.63l-18.543 32.43h8.68l4.538-8.426h11.047l.79 8.427h8.483M246.713 112.362l-4.734-32.177h8.482l1.775 15.322c.394 3.575.592 6.64.79 9.96h.198c1.38-3.065 3.156-6.64 5.13-9.96l8.482-15.322h9.075l-19.728 32.177M285.972 99.338h-4.143l3.747-6.895.395-.766c.79-1.532 1.776-3.83 2.565-5.618h.196c.198 2.042.394 4.595.59 6.383l.79 6.895h-4.142zm9.272-18.642h-10.456l-18.544 32.43h8.68l4.538-8.426h10.85l.79 8.427h8.482M302.346 113.127l7.3-32.43h9.47l5.128 12.257c1.58 4.085 2.565 7.66 3.354 11.236h.2c.197-3.32.788-6.895 1.774-11.747l2.762-11.747h7.496l-7.3 32.43h-8.285l-5.326-13.022c-1.777-4.342-2.763-7.15-3.75-11.236h-.198c-.395 3.064-1.38 7.66-2.367 12.768l-2.565 11.49M337.068 109.042l22.095-22.217h-15.585l1.38-6.13h26.436l-.986 4.342-21.7 21.962v.254h17.163l-1.38 5.873h-28.41M386.19 99.338h-4.142s5.918-11.492 6.904-13.28h.2c.197 2.044.393 4.597.393 6.385l.79 6.895h-4.143zm9.47-18.642H385.204l-18.742 32.43h8.68l4.538-8.426h11.048l.592 8.427H400" fill="#0994dc"/></g></svg>