<svg xmlns="http://www.w3.org/2000/svg" width="376.69" height="145.258"><path d="M37.215 41.64c11.482 0 20.836-9.36 20.836-20.82C58.05 9.325 48.698 0 37.216 0 25.737 0 16.368 9.324 16.368 20.82c0 11.46 9.37 20.82 20.847 20.82" fill="#fff" fill-rule="evenodd"/><path d="M129.107 52.614C86.073-4.53 43.037 112.904 0 55.76V19.996c43.038 57.145 86.073-60.253 129.107-3.108" fill="#fff"/><path d="M189.49 64.26c-44.284-58.793-88.566 62.05-132.844 3.258v-36.81c44.278 58.79 88.56-62.014 132.845-3.222" fill="#fff"/><path d="M131.78 103.916c-43.033-57.144-86.06 60.29-129.106 3.146V71.3c43.046 57.144 86.073-60.253 129.107-3.108M153.5 87.29v8.013h7.872c.442 0 .865.038 1.247.075v7.64c-.383.075-.806.075-1.248.075h-16.855c-1.884 0-3.21-.337-4.003-1.086-.798-.712-1.213-1.648-1.213-2.81 0-1.16.416-2.06 1.23-2.808.815-.712 2.137-1.086 3.987-1.086h1.21V64.896h-1.21c-1.884 0-3.21-.374-4.003-1.086-.798-.71-1.213-1.647-1.213-2.808 0-1.2.416-2.135 1.214-2.846.794-.712 2.12-1.086 4.003-1.086l17.91.037h.193v7.79h-9.12v14.64h7.22c.657 0 1.3-.036 1.9-.074v7.79c-.547.037-1.146.037-1.768.037h-7.35zm51.18-31.344v7.752h-.03c-3.622 0-6.868 1.573-9.722 4.68-2.857 3.11-4.284 7.004-4.284 11.722s1.427 8.613 4.284 11.72c2.854 3.11 6.1 4.644 9.722 4.644h.03v7.79h-.03c-5.194 0-9.868-1.948-14.036-5.767-5.18-4.72-7.75-10.823-7.75-18.387 0-7.527 2.57-13.668 7.75-18.424 4.168-3.82 8.842-5.73 14.036-5.73h.03zm-42.06 1.16c5.178.04 9.275 1.462 12.308 4.308 3.067 2.883 4.61 6.366 4.61 10.485 0 2.283-.513 4.455-1.558 6.477-.79 1.498-2.1 2.996-3.92 4.494-1.843 1.46-3.723 2.585-5.618 3.334-1.55.6-3.48.936-5.823 1.048v-7.79c2.515-.26 4.556-.972 6.148-2.208 2.003-1.535 2.98-3.37 2.98-5.542 0-1.798-.797-3.408-2.4-4.756-1.576-1.348-3.82-2.022-6.73-2.06v-7.79zm0 38.272c1.227.113 2.137.487 2.744 1.01.79.75 1.19 1.687 1.19 2.847 0 1.124-.4 2.06-1.19 2.772-.607.56-1.517.898-2.745 1.01v-7.64zm42.06 8.875v-7.79c3.63 0 6.875-1.534 9.732-4.642 2.843-3.07 4.292-6.964 4.292-11.72 0-4.718-1.45-8.65-4.292-11.72-2.857-3.11-6.103-4.645-9.732-4.682v-7.752c5.763 0 10.822 2.285 15.21 6.89 4.39 4.607 6.573 10.336 6.573 17.264 0 6.928-2.183 12.657-6.572 17.263-4.388 4.57-9.447 6.89-15.21 6.89m47.69-47.07v7.863c-.802-.112-1.634-.15-2.52-.15h-8.187v30.407h8.26c.884 0 1.705-.037 2.446-.112v7.828c-.802.037-1.623.075-2.495.075h-15.612c-1.887 0-3.21-.337-4.01-1.086-.794-.712-1.2-1.648-1.2-2.81 0-1.16.406-2.06 1.2-2.808.8-.75 2.003-1.086 3.632-1.086V64.896c-1.655-.037-2.88-.412-3.644-1.123-.793-.712-1.186-1.648-1.186-2.77 0-1.2.405-2.136 1.2-2.847.8-.712 2.122-1.086 4.01-1.086l16.26.037c.635 0 1.246.038 1.845.075m37.566 26.737v11.383h19.825V91.11c0-1.873.364-3.184 1.087-4.008.715-.786 1.666-1.198 2.834-1.198 1.125 0 2.06.412 2.784 1.198.723.824 1.075 2.135 1.075 4.007v11.983h-36.62c-1.855 0-3.188-.338-3.993-1.086-.79-.712-1.187-1.648-1.187-2.81 0-1.16.397-2.06 1.213-2.808.798-.712 2.135-1.087 3.966-1.087h1.223V64.896h-1.224c-1.855 0-3.188-.374-3.993-1.086-.79-.71-1.187-1.647-1.187-2.808 0-1.2.397-2.135 1.187-2.846.805-.712 2.138-1.086 3.992-1.086l34.926.037V68.94c0 1.873-.36 3.184-1.067 3.97-.705.824-1.653 1.198-2.81 1.198-1.164 0-2.112-.374-2.83-1.16-.716-.787-1.08-2.135-1.08-4.008v-4.044h-18.124V76.13h6.812c0-2.022.197-3.332.57-3.932.785-1.235 1.898-1.835 3.35-1.835 1.135 0 2.06.375 2.78 1.2.722.785 1.096 2.133 1.096 4.006v8.95c0 1.684-.227 2.807-.625 3.406-.814 1.2-1.892 1.798-3.25 1.798-1.454 0-2.567-.637-3.353-1.873-.37-.598-.57-1.908-.57-3.93h-6.81zm-37.567 19.098V95.19c1.91-.15 3.41-.56 4.523-1.197 2.082-1.16 3.617-2.622 4.647-4.456 1.033-1.798 1.56-4.12 1.56-6.966v-3.668c0-2.472-.478-4.606-1.395-6.44-1.472-2.922-3.124-4.87-4.966-5.956-1.237-.748-2.697-1.235-4.37-1.46v-7.864c1.9.187 3.755.637 5.594 1.348 2.404.936 4.34 2.135 5.812 3.558 1.112 1.086 2.265 2.584 3.475 4.493 1.19 1.874 2.105 3.784 2.712 5.618.6 1.91.902 4.195.902 6.89v3.708c0 3.295-.543 6.216-1.655 8.763-1.12 2.508-2.585 4.605-4.4 6.215-1.798 1.573-3.51 2.77-5.1 3.557-1.975.937-4.416 1.46-7.34 1.686m93.217-45.91v7.788h-9.063V77.74h6.056c1.056 0 2.067-.074 3.007-.224v8.8c-.468-.337-.922-.562-1.36-.786h-7.703v9.773h2.794c1.876 0 3.217.375 4.007 1.086.798.748 1.206 1.685 1.206 2.845 0 1.124-.407 2.06-1.205 2.772-.79.748-2.13 1.086-4.007 1.086h-11.785c-1.868 0-3.213-.338-4.014-1.086-.776-.712-1.184-1.648-1.184-2.81 0-1.16.408-2.06 1.217-2.808.8-.712 2.123-1.087 3.98-1.087h1.21V64.896h-1.21c-1.868 0-3.213-.374-4.014-1.086-.776-.71-1.184-1.647-1.184-2.808 0-1.2.408-2.135 1.183-2.846.8-.712 2.145-1.086 4.013-1.086l17.6.037h.454zm0 29.208v-8.8c1.082-.15 2.097-.412 3.03-.786 2.388-.9 3.976-1.873 4.804-2.884.82-1.01 1.24-2.022 1.24-2.996 0-1.498-.786-2.808-2.363-4.08-1.54-1.237-3.77-1.836-6.71-1.874v-7.79c5.276.076 9.373 1.424 12.32 4.083 3.018 2.733 4.527 6.028 4.527 9.922 0 2.435-.704 4.644-2.12 6.63-1.422 1.983-3.56 3.743-6.41 5.28 1.63 1.46 3.396 3.294 5.268 5.54 1.176 1.424 2.734 3.708 4.715 6.74 1.963 0 3.254.226 3.906.638 1.13.786 1.7 1.872 1.7 3.295 0 1.124-.4 2.06-1.172 2.772-.785.748-2.103 1.086-3.987 1.086h-4.45c-5.605-8.688-10.387-14.268-14.296-16.777" fill="#fff"/><path d="M162.278 115.787V132.3c0 3.596-1.3 6.63-3.883 9.176-2.592 2.51-5.684 3.782-9.32 3.782-1.802 0-3.49-.337-5.07-.973-1.574-.637-3.004-1.573-4.266-2.81-1.267-1.235-2.24-2.508-2.937-3.856-.693-1.312-1.052-3.11-1.052-5.32v-16.513c-1.228 0-2.134-.3-2.73-.824-.587-.56-.88-1.235-.88-2.097 0-.86.29-1.572.88-2.097.596-.525 1.592-.825 3.015-.825h7.635c1.394 0 2.4.263 2.993.787.61.562.898 1.273.898 2.134 0 .862-.286 1.573-.897 2.097-.592.562-1.6.824-2.993.824h-2.104v17c0 1.76.73 3.297 2.176 4.645 1.453 1.31 3.194 1.984 5.242 1.984 1.356 0 2.64-.337 3.828-.973 1.198-.637 2.17-1.573 2.924-2.81.476-.748.712-1.72.712-2.845v-17h-2.1c-1.394 0-2.39-.263-2.997-.825-.59-.524-.894-1.235-.894-2.097 0-.86.303-1.572.895-2.134.608-.524 1.604-.787 2.997-.787h7.647c1.393 0 2.39.3 2.992.824.595.524.895 1.235.895 2.096 0 .862-.287 1.536-.88 2.097-.584.525-1.493.824-2.722.824m-42.712 0v22.768h5.875c1.402 0 2.398.262 3 .824.592.523.888 1.235.888 2.096 0 .86-.296 1.573-.887 2.097-.602.562-1.598.824-3 .824h-17.584c-1.4 0-2.39-.262-2.996-.824-.592-.524-.89-1.236-.89-2.097 0-.86.3-1.573.89-2.097.607-.563 1.595-.825 2.996-.825h5.88v-22.768h-5.88c-1.4 0-2.39-.262-2.996-.824-.592-.524-.89-1.235-.89-2.097 0-.86.3-1.572.89-2.134.607-.524 1.595-.787 2.996-.787h17.585c1.402 0 2.398.3 3 .824.592.524.888 1.235.888 2.096 0 .862-.296 1.573-.887 2.097-.602.562-1.598.824-3 .824h-5.874zm66.427-5.767v5.88c-.595-.075-1.216-.113-1.894-.113h-6.13v22.768h6.19c.654 0 1.276-.037 1.833-.075v5.842c-.595.037-1.216.075-1.86.075h-11.7c-1.396 0-2.396-.262-2.995-.824-.603-.524-.9-1.236-.9-2.097 0-.86.298-1.573.9-2.134.6-.525 1.494-.787 2.71-.787v-22.768c-1.23 0-2.145-.3-2.725-.86-.588-.525-.884-1.2-.884-2.06 0-.862.296-1.573.898-2.135.6-.524 1.6-.787 2.996-.787h12.174c.468 0 .933.038 1.385.075m-91.24 1.423c.36-.487.76-.86 1.184-1.123.434-.225.876-.375 1.378-.375.846 0 1.542.3 2.082.9.543.598.82 1.572.82 2.995v4.906c0 1.423-.276 2.434-.82 3.033-.54.598-1.236.86-2.082.86-.787 0-1.408-.225-1.87-.637-.48-.45-.827-1.235-1.055-2.434-.144-.824-.4-1.424-.802-1.836-.77-.86-1.857-1.535-3.246-2.06-1.397-.523-2.798-.748-4.183-.748-1.75 0-3.353.374-4.81 1.123-1.452.748-2.744 1.984-3.864 3.67-1.108 1.722-1.68 3.744-1.68 6.103v3.782c0 2.81 1.025 5.13 3.066 7.003 2.033 1.872 4.85 2.808 8.474 2.808 2.146 0 3.98-.3 5.475-.898.873-.337 1.806-1.01 2.783-2.022.618-.6 1.082-.974 1.427-1.16.344-.19.734-.263 1.168-.263.768 0 1.453.3 2.045.898.577.563.872 1.275.872 2.06 0 .787-.404 1.65-1.194 2.547-1.152 1.31-2.64 2.397-4.463 3.108-2.44 1.05-5.134 1.573-8.088 1.573-3.44 0-6.55-.71-9.307-2.134-2.24-1.16-4.134-2.96-5.707-5.393-1.573-2.47-2.363-5.13-2.363-8.05v-3.932c0-3.033.697-5.842 2.116-8.463 1.403-2.62 3.358-4.643 5.86-6.066 2.508-1.424 5.156-2.136 7.95-2.136 1.684 0 3.257.187 4.74.562 1.46.412 2.824 1.01 4.093 1.797m104.205 27.936c-.588.56-.873 1.235-.873 2.096 0 .824.297 1.535.873 2.06v-4.157zm0-18.687v14.117c-.117.337-.237.637-.367.937-.82 1.872-1.92 3.445-3.29 4.643-1.34 1.198-2.626 2.097-3.81 2.66-1.482.71-3.317 1.122-5.497 1.272v-5.842c1.416-.15 2.55-.45 3.393-.898 1.54-.9 2.696-1.985 3.472-3.333.775-1.35 1.157-3.072 1.157-5.244v-2.734c0-1.834-.348-3.445-1.037-4.83-1.11-2.172-2.34-3.633-3.72-4.456-.935-.562-2.014-.9-3.265-1.086v-5.88c1.41.15 2.81.487 4.172 1.01 1.813.675 3.266 1.574 4.374 2.66.823.824 1.692 1.91 2.59 3.333.772 1.236 1.37 2.47 1.828 3.67m0 14.117c.595-1.685.872-3.557.872-5.617v-2.808c0-1.985-.22-3.707-.666-5.13-.072-.188-.132-.375-.207-.562v14.117zm17.877-24.865v7.752l-4.7 11.496h4.7v5.805h-7.03l-1.407 3.557h1.408c1.412 0 2.408.262 3.004.824.6.523.898 1.235.898 2.096 0 .86-.3 1.573-.898 2.097-.596.562-1.592.824-3.004.824h-7.83c-1.408 0-2.4-.262-2.992-.824l-.03-.037v-4.157l.066-.04c.618-.56 1.652-.822 3.082-.785l9.152-22.768h-3.804c-1.405 0-2.412-.262-2.996-.824-.596-.524-.888-1.235-.888-2.097 0-.86.294-1.573.888-2.134.584-.525 1.59-.787 2.996-.787h9.38zm0 25.053v-5.805h4.707l-4.692-11.533v.037-7.752h3.213l11.57 28.61c1.368 0 2.274.15 2.72.487.853.6 1.292 1.423 1.292 2.434 0 .86-.29 1.573-.89 2.097-.582.562-1.578.824-2.98.824h-7.833c-1.4 0-2.39-.262-3-.824-.587-.524-.88-1.236-.88-2.097 0-.86.294-1.573.88-2.097.61-.563 1.6-.825 3-.825h1.427l-1.4-3.557h-7.12zm38.335-24.978v5.88c-.6-.075-1.228-.113-1.9-.113h-6.13v22.768h6.188c.66 0 1.27-.037 1.842-.075v5.842c-.6.037-1.228.075-1.87.075h-11.705c-1.396 0-2.39-.262-2.992-.824-.59-.524-.895-1.236-.895-2.097 0-.86.304-1.573.895-2.134.603-.525 1.506-.787 2.7-.787v-22.768c-1.217 0-2.127-.3-2.715-.86-.588-.525-.88-1.2-.88-2.06 0-.862.304-1.573.895-2.135.603-.524 1.596-.787 2.992-.787h12.186c.473 0 .926.038 1.39.075m13.283 29.734c-.375.45-.555 1.048-.555 1.722 0 .674.18 1.236.555 1.723v-3.446zm0-18.088v12.096c-.186.71-.412 1.348-.693 1.985-.828 1.872-1.936 3.445-3.288 4.643-1.348 1.198-2.62 2.097-3.816 2.66-1.483.71-3.318 1.122-5.486 1.272v-5.842c1.404-.15 2.54-.45 3.38-.898 1.545-.9 2.698-1.985 3.465-3.333.79-1.35 1.165-3.072 1.165-5.244v-2.734c0-1.834-.344-3.445-1.045-4.83-1.1-2.172-2.34-3.633-3.696-4.456-.933-.562-2.027-.9-3.27-1.086v-5.88c1.404.15 2.794.487 4.176 1.01 1.79.675 3.257 1.574 4.358 2.66.835.824 1.682 1.91 2.6 3.333.88 1.423 1.564 2.846 2.014 4.232.045.15.09.262.135.41m0 12.097c.378-1.386.55-2.92.55-4.57v-2.807c0-1.798-.174-3.408-.55-4.72v12.097zm18.2-23.817v7.752l-4.697 11.496h4.696v5.805h-7.025l-1.408 3.557h1.407c1.39 0 2.404.262 2.996.824.59.523.894 1.235.894 2.096 0 .86-.303 1.573-.894 2.097-.592.562-1.607.824-2.996.824h-7.834c-1.405 0-2.404-.262-2.99-.824-.143-.112-.253-.262-.35-.374v-3.446c.104-.15.24-.3.38-.412.623-.562 1.66-.824 3.094-.787l9.152-22.768h-3.8c-1.406 0-2.417-.262-3.008-.824-.596-.524-.888-1.235-.888-2.097 0-.86.294-1.572.888-2.134.59-.524 1.602-.787 3.007-.787h9.372zm31.515 11.01v17.6h2.104c1.39 0 2.393.262 2.98.824.596.523.903 1.235.903 2.096 0 .86-.307 1.573-.902 2.097-.588.562-1.592.824-2.98.824h-7.644c-1.416 0-2.405-.262-3.008-.824-.58-.524-.89-1.236-.89-2.097 0-.86.286-1.535.883-2.097.587-.563 1.494-.825 2.726-.825v-22.768h-.91c-1.392 0-2.388-.262-3-.824-.602-.524-.89-1.235-.89-2.097 0-.86.287-1.572.89-2.134.612-.524 1.608-.787 3-.787h6.738l14.877 23.368v-17.526h-2.112c-1.397 0-2.385-.262-2.988-.824-.592-.524-.895-1.235-.895-2.097 0-.86.303-1.572.895-2.134.603-.524 1.59-.787 2.988-.787h7.647c1.408 0 2.404.3 2.988.824.614.524.91 1.235.91 2.096 0 .862-.296 1.536-.89 2.097-.59.525-1.488.824-2.686.824v28.61h-5.774l-14.96-23.442zm-31.516 14.043v-5.805h4.707l-4.697-11.533v.037-7.752h3.198l11.58 28.61c1.367 0 2.284.15 2.71.487.87.6 1.304 1.423 1.304 2.434 0 .86-.29 1.573-.89 2.097-.585.562-1.57.824-2.97.824h-7.838c-1.4 0-2.393-.262-2.996-.824-.6-.524-.9-1.236-.9-2.097 0-.86.3-1.573.9-2.097.603-.563 1.595-.825 2.996-.825h1.42l-1.398-3.557h-7.115zm73.726-25.914v5.842c-2.72 0-5.15 1.16-7.272 3.483-2.146 2.32-3.213 5.24-3.213 8.76 0 3.52 1.067 6.442 3.213 8.764 2.123 2.322 4.553 3.482 7.272 3.482v5.842c-3.89 0-7.377-1.46-10.508-4.306-3.872-3.558-5.808-8.126-5.808-13.78 0-5.618 1.936-10.224 5.808-13.78 3.13-2.885 6.617-4.308 10.508-4.308zm0 36.174v-5.842c2.726 0 5.15-1.16 7.295-3.445 2.123-2.32 3.198-5.24 3.198-8.8 0-3.556-1.074-6.477-3.197-8.76-2.146-2.323-4.57-3.484-7.295-3.484v-5.842c4.314 0 8.11 1.723 11.39 5.168 3.29 3.445 4.922 7.714 4.922 12.92 0 5.167-1.632 9.473-4.92 12.92-3.28 3.444-7.078 5.13-11.392 5.166" fill="#fff"/><path d="M37.215 41.64c11.482 0 20.836-9.36 20.836-20.82C58.05 9.325 48.698 0 37.216 0 25.737 0 16.368 9.324 16.368 20.82c0 11.46 9.37 20.82 20.847 20.82" fill="#ffe600" fill-rule="evenodd"/><path d="M129.107 52.614C86.073-4.53 43.037 112.904 0 55.76V19.996c43.038 57.145 86.073-60.253 129.107-3.108" fill="#ec008c"/><path d="M189.49 64.26c-44.284-58.793-88.566 62.05-132.844 3.258v-36.81c44.278 58.79 88.56-62.014 132.845-3.222" fill="#00aeef"/><path d="M131.78 103.916c-43.033-57.144-86.06 60.29-129.106 3.146V71.3c43.046 57.144 86.073-60.253 129.107-3.108" fill="#a6ce39"/><path d="M153.5 87.29v8.013h7.872c.442 0 .865.038 1.247.075v7.64c-.383.075-.806.075-1.248.075h-16.855c-1.884 0-3.21-.337-4.003-1.086-.798-.712-1.213-1.648-1.213-2.81 0-1.16.416-2.06 1.23-2.808.815-.712 2.137-1.086 3.987-1.086h1.21V64.896h-1.21c-1.884 0-3.21-.374-4.003-1.086-.798-.71-1.213-1.647-1.213-2.808 0-1.2.416-2.135 1.214-2.846.794-.712 2.12-1.086 4.003-1.086l17.91.037h.193v7.79h-9.12v14.64h7.22c.657 0 1.3-.036 1.9-.074v7.79c-.547.037-1.146.037-1.768.037h-7.35zm51.18-31.344v7.752h-.03c-3.622 0-6.868 1.573-9.722 4.68-2.857 3.11-4.284 7.004-4.284 11.722s1.427 8.613 4.284 11.72c2.854 3.11 6.1 4.644 9.722 4.644h.03v7.79h-.03c-5.194 0-9.868-1.948-14.036-5.767-5.18-4.72-7.75-10.823-7.75-18.387 0-7.527 2.57-13.668 7.75-18.424 4.168-3.82 8.842-5.73 14.036-5.73h.03zm-42.06 1.16c5.178.04 9.275 1.462 12.308 4.308 3.067 2.883 4.61 6.366 4.61 10.485 0 2.283-.513 4.455-1.558 6.477-.79 1.498-2.1 2.996-3.92 4.494-1.843 1.46-3.723 2.585-5.618 3.334-1.55.6-3.48.936-5.823 1.048v-7.79c2.515-.26 4.556-.972 6.148-2.208 2.003-1.535 2.98-3.37 2.98-5.542 0-1.798-.797-3.408-2.4-4.756-1.576-1.348-3.82-2.022-6.73-2.06v-7.79zm0 38.272c1.227.113 2.137.487 2.744 1.01.79.75 1.19 1.687 1.19 2.847 0 1.124-.4 2.06-1.19 2.772-.607.56-1.517.898-2.745 1.01v-7.64zm42.06 8.875v-7.79c3.63 0 6.875-1.534 9.732-4.642 2.843-3.07 4.292-6.964 4.292-11.72 0-4.718-1.45-8.65-4.292-11.72-2.857-3.11-6.103-4.645-9.732-4.682v-7.752c5.763 0 10.822 2.285 15.21 6.89 4.39 4.607 6.573 10.336 6.573 17.264 0 6.928-2.183 12.657-6.572 17.263-4.388 4.57-9.447 6.89-15.21 6.89m47.69-47.07v7.863c-.802-.112-1.634-.15-2.52-.15h-8.187v30.407h8.26c.884 0 1.705-.037 2.446-.112v7.828c-.802.037-1.623.075-2.495.075h-15.612c-1.887 0-3.21-.337-4.01-1.086-.794-.712-1.2-1.648-1.2-2.81 0-1.16.406-2.06 1.2-2.808.8-.75 2.003-1.086 3.632-1.086V64.896c-1.655-.037-2.88-.412-3.644-1.123-.793-.712-1.186-1.648-1.186-2.77 0-1.2.405-2.136 1.2-2.847.8-.712 2.122-1.086 4.01-1.086l16.26.037c.635 0 1.246.038 1.845.075m37.566 26.737v11.383h19.825V91.11c0-1.873.364-3.184 1.087-4.008.715-.786 1.666-1.198 2.834-1.198 1.125 0 2.06.412 2.784 1.198.723.824 1.075 2.135 1.075 4.007v11.983h-36.62c-1.855 0-3.188-.338-3.993-1.086-.79-.712-1.187-1.648-1.187-2.81 0-1.16.397-2.06 1.213-2.808.798-.712 2.135-1.087 3.966-1.087h1.223V64.896h-1.224c-1.855 0-3.188-.374-3.993-1.086-.79-.71-1.187-1.647-1.187-2.808 0-1.2.397-2.135 1.187-2.846.805-.712 2.138-1.086 3.992-1.086l34.926.037V68.94c0 1.873-.36 3.184-1.067 3.97-.705.824-1.653 1.198-2.81 1.198-1.164 0-2.112-.374-2.83-1.16-.716-.787-1.08-2.135-1.08-4.008v-4.044h-18.124V76.13h6.812c0-2.022.197-3.332.57-3.932.785-1.235 1.898-1.835 3.35-1.835 1.135 0 2.06.375 2.78 1.2.722.785 1.096 2.133 1.096 4.006v8.95c0 1.684-.227 2.807-.625 3.406-.814 1.2-1.892 1.798-3.25 1.798-1.454 0-2.567-.637-3.353-1.873-.37-.598-.57-1.908-.57-3.93h-6.81zm-37.567 19.098V95.19c1.91-.15 3.41-.56 4.523-1.197 2.082-1.16 3.617-2.622 4.647-4.456 1.033-1.798 1.56-4.12 1.56-6.966v-3.668c0-2.472-.478-4.606-1.395-6.44-1.472-2.922-3.124-4.87-4.966-5.956-1.237-.748-2.697-1.235-4.37-1.46v-7.864c1.9.187 3.755.637 5.594 1.348 2.404.936 4.34 2.135 5.812 3.558 1.112 1.086 2.265 2.584 3.475 4.493 1.19 1.874 2.105 3.784 2.712 5.618.6 1.91.902 4.195.902 6.89v3.708c0 3.295-.543 6.216-1.655 8.763-1.12 2.508-2.585 4.605-4.4 6.215-1.798 1.573-3.51 2.77-5.1 3.557-1.975.937-4.416 1.46-7.34 1.686m93.217-45.91v7.788h-9.063V77.74h6.056c1.056 0 2.067-.074 3.007-.224v8.8c-.468-.337-.922-.562-1.36-.786h-7.703v9.773h2.794c1.876 0 3.217.375 4.007 1.086.798.748 1.206 1.685 1.206 2.845 0 1.124-.407 2.06-1.205 2.772-.79.748-2.13 1.086-4.007 1.086h-11.785c-1.868 0-3.213-.338-4.014-1.086-.776-.712-1.184-1.648-1.184-2.81 0-1.16.408-2.06 1.217-2.808.8-.712 2.123-1.087 3.98-1.087h1.21V64.896h-1.21c-1.868 0-3.213-.374-4.014-1.086-.776-.71-1.184-1.647-1.184-2.808 0-1.2.408-2.135 1.183-2.846.8-.712 2.145-1.086 4.013-1.086l17.6.037h.454zm0 29.208v-8.8c1.082-.15 2.097-.412 3.03-.786 2.388-.9 3.976-1.873 4.804-2.884.82-1.01 1.24-2.022 1.24-2.996 0-1.498-.786-2.808-2.363-4.08-1.54-1.237-3.77-1.836-6.71-1.874v-7.79c5.276.076 9.373 1.424 12.32 4.083 3.018 2.733 4.527 6.028 4.527 9.922 0 2.435-.704 4.644-2.12 6.63-1.422 1.983-3.56 3.743-6.41 5.28 1.63 1.46 3.396 3.294 5.268 5.54 1.176 1.424 2.734 3.708 4.715 6.74 1.963 0 3.254.226 3.906.638 1.13.786 1.7 1.872 1.7 3.295 0 1.124-.4 2.06-1.172 2.772-.785.748-2.103 1.086-3.987 1.086h-4.45c-5.605-8.688-10.387-14.268-14.296-16.777" fill="#ec008c"/><path d="M162.278 115.787V132.3c0 3.596-1.3 6.63-3.883 9.176-2.592 2.51-5.684 3.782-9.32 3.782-1.802 0-3.49-.337-5.07-.973-1.574-.637-3.004-1.573-4.266-2.81-1.267-1.235-2.24-2.508-2.937-3.856-.693-1.312-1.052-3.11-1.052-5.32v-16.513c-1.228 0-2.134-.3-2.73-.824-.587-.56-.88-1.235-.88-2.097 0-.86.29-1.572.88-2.097.596-.525 1.592-.825 3.015-.825h7.635c1.394 0 2.4.263 2.993.787.61.562.898 1.273.898 2.134 0 .862-.286 1.573-.897 2.097-.592.562-1.6.824-2.993.824h-2.104v17c0 1.76.73 3.297 2.176 4.645 1.453 1.31 3.194 1.984 5.242 1.984 1.356 0 2.64-.337 3.828-.973 1.198-.637 2.17-1.573 2.924-2.81.476-.748.712-1.72.712-2.845v-17h-2.1c-1.394 0-2.39-.263-2.997-.825-.59-.524-.894-1.235-.894-2.097 0-.86.303-1.572.895-2.134.608-.524 1.604-.787 2.997-.787h7.647c1.393 0 2.39.3 2.992.824.595.524.895 1.235.895 2.096 0 .862-.287 1.536-.88 2.097-.584.525-1.493.824-2.722.824m-42.712 0v22.768h5.875c1.402 0 2.398.262 3 .824.592.523.888 1.235.888 2.096 0 .86-.296 1.573-.887 2.097-.602.562-1.598.824-3 .824h-17.584c-1.4 0-2.39-.262-2.996-.824-.592-.524-.89-1.236-.89-2.097 0-.86.3-1.573.89-2.097.607-.563 1.595-.825 2.996-.825h5.88v-22.768h-5.88c-1.4 0-2.39-.262-2.996-.824-.592-.524-.89-1.235-.89-2.097 0-.86.3-1.572.89-2.134.607-.524 1.595-.787 2.996-.787h17.585c1.402 0 2.398.3 3 .824.592.524.888 1.235.888 2.096 0 .862-.296 1.573-.887 2.097-.602.562-1.598.824-3 .824h-5.874zm66.427-5.767v5.88c-.595-.075-1.216-.113-1.894-.113h-6.13v22.768h6.19c.654 0 1.276-.037 1.833-.075v5.842c-.595.037-1.216.075-1.86.075h-11.7c-1.396 0-2.396-.262-2.995-.824-.603-.524-.9-1.236-.9-2.097 0-.86.298-1.573.9-2.134.6-.525 1.494-.787 2.71-.787v-22.768c-1.23 0-2.145-.3-2.725-.86-.588-.525-.884-1.2-.884-2.06 0-.862.296-1.573.898-2.135.6-.524 1.6-.787 2.996-.787h12.174c.468 0 .933.038 1.385.075m-91.24 1.423c.36-.487.76-.86 1.184-1.123.434-.225.876-.375 1.378-.375.846 0 1.542.3 2.082.9.543.598.82 1.572.82 2.995v4.906c0 1.423-.276 2.434-.82 3.033-.54.598-1.236.86-2.082.86-.787 0-1.408-.225-1.87-.637-.48-.45-.827-1.235-1.055-2.434-.144-.824-.4-1.424-.802-1.836-.77-.86-1.857-1.535-3.246-2.06-1.397-.523-2.798-.748-4.183-.748-1.75 0-3.353.374-4.81 1.123-1.452.748-2.744 1.984-3.864 3.67-1.108 1.722-1.68 3.744-1.68 6.103v3.782c0 2.81 1.025 5.13 3.066 7.003 2.033 1.872 4.85 2.808 8.474 2.808 2.146 0 3.98-.3 5.475-.898.873-.337 1.806-1.01 2.783-2.022.618-.6 1.082-.974 1.427-1.16.344-.19.734-.263 1.168-.263.768 0 1.453.3 2.045.898.577.563.872 1.275.872 2.06 0 .787-.404 1.65-1.194 2.547-1.152 1.31-2.64 2.397-4.463 3.108-2.44 1.05-5.134 1.573-8.088 1.573-3.44 0-6.55-.71-9.307-2.134-2.24-1.16-4.134-2.96-5.707-5.393-1.573-2.47-2.363-5.13-2.363-8.05v-3.932c0-3.033.697-5.842 2.116-8.463 1.403-2.62 3.358-4.643 5.86-6.066 2.508-1.424 5.156-2.136 7.95-2.136 1.684 0 3.257.187 4.74.562 1.46.412 2.824 1.01 4.093 1.797m104.205 27.936c-.588.56-.873 1.235-.873 2.096 0 .824.297 1.535.873 2.06v-4.157zm0-18.687v14.117c-.117.337-.237.637-.367.937-.82 1.872-1.92 3.445-3.29 4.643-1.34 1.198-2.626 2.097-3.81 2.66-1.482.71-3.317 1.122-5.497 1.272v-5.842c1.416-.15 2.55-.45 3.393-.898 1.54-.9 2.696-1.985 3.472-3.333.775-1.35 1.157-3.072 1.157-5.244v-2.734c0-1.834-.348-3.445-1.037-4.83-1.11-2.172-2.34-3.633-3.72-4.456-.935-.562-2.014-.9-3.265-1.086v-5.88c1.41.15 2.81.487 4.172 1.01 1.813.675 3.266 1.574 4.374 2.66.823.824 1.692 1.91 2.59 3.333.772 1.236 1.37 2.47 1.828 3.67m0 14.117c.595-1.685.872-3.557.872-5.617v-2.808c0-1.985-.22-3.707-.666-5.13-.072-.188-.132-.375-.207-.562v14.117zm17.877-24.865v7.752l-4.7 11.496h4.7v5.805h-7.03l-1.407 3.557h1.408c1.412 0 2.408.262 3.004.824.6.523.898 1.235.898 2.096 0 .86-.3 1.573-.898 2.097-.596.562-1.592.824-3.004.824h-7.83c-1.408 0-2.4-.262-2.992-.824l-.03-.037v-4.157l.066-.04c.618-.56 1.652-.822 3.082-.785l9.152-22.768h-3.804c-1.405 0-2.412-.262-2.996-.824-.596-.524-.888-1.235-.888-2.097 0-.86.294-1.573.888-2.134.584-.525 1.59-.787 2.996-.787h9.38zm0 25.053v-5.805h4.707l-4.692-11.533v.037-7.752h3.213l11.57 28.61c1.368 0 2.274.15 2.72.487.853.6 1.292 1.423 1.292 2.434 0 .86-.29 1.573-.89 2.097-.582.562-1.578.824-2.98.824h-7.833c-1.4 0-2.39-.262-3-.824-.587-.524-.88-1.236-.88-2.097 0-.86.294-1.573.88-2.097.61-.563 1.6-.825 3-.825h1.427l-1.4-3.557h-7.12zm38.335-24.978v5.88c-.6-.075-1.228-.113-1.9-.113h-6.13v22.768h6.188c.66 0 1.27-.037 1.842-.075v5.842c-.6.037-1.228.075-1.87.075h-11.705c-1.396 0-2.39-.262-2.992-.824-.59-.524-.895-1.236-.895-2.097 0-.86.304-1.573.895-2.134.603-.525 1.506-.787 2.7-.787v-22.768c-1.217 0-2.127-.3-2.715-.86-.588-.525-.88-1.2-.88-2.06 0-.862.304-1.573.895-2.135.603-.524 1.596-.787 2.992-.787h12.186c.473 0 .926.038 1.39.075m13.283 29.734c-.375.45-.555 1.048-.555 1.722 0 .674.18 1.236.555 1.723v-3.446zm0-18.088v12.096c-.186.71-.412 1.348-.693 1.985-.828 1.872-1.936 3.445-3.288 4.643-1.348 1.198-2.62 2.097-3.816 2.66-1.483.71-3.318 1.122-5.486 1.272v-5.842c1.404-.15 2.54-.45 3.38-.898 1.545-.9 2.698-1.985 3.465-3.333.79-1.35 1.165-3.072 1.165-5.244v-2.734c0-1.834-.344-3.445-1.045-4.83-1.1-2.172-2.34-3.633-3.696-4.456-.933-.562-2.027-.9-3.27-1.086v-5.88c1.404.15 2.794.487 4.176 1.01 1.79.675 3.257 1.574 4.358 2.66.835.824 1.682 1.91 2.6 3.333.88 1.423 1.564 2.846 2.014 4.232.045.15.09.262.135.41m0 12.097c.378-1.386.55-2.92.55-4.57v-2.807c0-1.798-.174-3.408-.55-4.72v12.097zm18.2-23.817v7.752l-4.697 11.496h4.696v5.805h-7.025l-1.408 3.557h1.407c1.39 0 2.404.262 2.996.824.59.523.894 1.235.894 2.096 0 .86-.303 1.573-.894 2.097-.592.562-1.607.824-2.996.824h-7.834c-1.405 0-2.404-.262-2.99-.824-.143-.112-.253-.262-.35-.374v-3.446c.104-.15.24-.3.38-.412.623-.562 1.66-.824 3.094-.787l9.152-22.768h-3.8c-1.406 0-2.417-.262-3.008-.824-.596-.524-.888-1.235-.888-2.097 0-.86.294-1.572.888-2.134.59-.524 1.602-.787 3.007-.787h9.372zm31.515 11.01v17.6h2.104c1.39 0 2.393.262 2.98.824.596.523.903 1.235.903 2.096 0 .86-.307 1.573-.902 2.097-.588.562-1.592.824-2.98.824h-7.644c-1.416 0-2.405-.262-3.008-.824-.58-.524-.89-1.236-.89-2.097 0-.86.286-1.535.883-2.097.587-.563 1.494-.825 2.726-.825v-22.768h-.91c-1.392 0-2.388-.262-3-.824-.602-.524-.89-1.235-.89-2.097 0-.86.287-1.572.89-2.134.612-.524 1.608-.787 3-.787h6.738l14.877 23.368v-17.526h-2.112c-1.397 0-2.385-.262-2.988-.824-.592-.524-.895-1.235-.895-2.097 0-.86.303-1.572.895-2.134.603-.524 1.59-.787 2.988-.787h7.647c1.408 0 2.404.3 2.988.824.614.524.91 1.235.91 2.096 0 .862-.296 1.536-.89 2.097-.59.525-1.488.824-2.686.824v28.61h-5.774l-14.96-23.442zm-31.516 14.043v-5.805h4.707l-4.697-11.533v.037-7.752h3.198l11.58 28.61c1.367 0 2.284.15 2.71.487.87.6 1.304 1.423 1.304 2.434 0 .86-.29 1.573-.89 2.097-.585.562-1.57.824-2.97.824h-7.838c-1.4 0-2.393-.262-2.996-.824-.6-.524-.9-1.236-.9-2.097 0-.86.3-1.573.9-2.097.603-.563 1.595-.825 2.996-.825h1.42l-1.398-3.557h-7.115zm73.726-25.914v5.842c-2.72 0-5.15 1.16-7.272 3.483-2.146 2.32-3.213 5.24-3.213 8.76 0 3.52 1.067 6.442 3.213 8.764 2.123 2.322 4.553 3.482 7.272 3.482v5.842c-3.89 0-7.377-1.46-10.508-4.306-3.872-3.558-5.808-8.126-5.808-13.78 0-5.618 1.936-10.224 5.808-13.78 3.13-2.885 6.617-4.308 10.508-4.308zm0 36.174v-5.842c2.726 0 5.15-1.16 7.295-3.445 2.123-2.32 3.198-5.24 3.198-8.8 0-3.556-1.074-6.477-3.197-8.76-2.146-2.323-4.57-3.484-7.295-3.484v-5.842c4.314 0 8.11 1.723 11.39 5.168 3.29 3.445 4.922 7.714 4.922 12.92 0 5.167-1.632 9.473-4.92 12.92-3.28 3.444-7.078 5.13-11.392 5.166" fill="#00aeef"/></svg>