<svg xmlns="http://www.w3.org/2000/svg" width="400" height="280.406"><path d="M48.865 41.64c11.48 0 20.836-9.36 20.836-20.82C69.7 9.325 60.347 0 48.866 0 37.387 0 28.018 9.324 28.018 20.82c0 11.46 9.37 20.82 20.847 20.82" fill="#fff" fill-rule="evenodd"/><path d="M140.757 52.614C97.723-4.53 54.687 112.904 11.65 55.76V19.996c43.038 57.145 86.073-60.253 129.107-3.108" fill="#fff"/><path d="M201.14 64.26c-44.284-58.793-88.566 62.05-132.844 3.258v-36.81c44.278 58.79 88.56-62.014 132.845-3.222" fill="#fff"/><path d="M143.43 103.916c-43.034-57.144-86.06 60.29-129.107 3.146V71.3c43.046 57.144 86.073-60.253 129.108-3.108M165.15 87.29v8.014h7.872c.442 0 .865.037 1.247.074v7.64c-.383.075-.806.075-1.248.075h-16.855c-1.884 0-3.21-.337-4.003-1.086-.798-.712-1.214-1.648-1.214-2.81 0-1.16.416-2.06 1.23-2.808.815-.712 2.137-1.086 3.987-1.086h1.21V64.896h-1.21c-1.884 0-3.21-.374-4.003-1.086-.798-.71-1.214-1.647-1.214-2.808 0-1.2.416-2.135 1.214-2.846.793-.712 2.12-1.086 4.003-1.086l17.91.037h.192v7.79h-9.12v14.64h7.22c.656 0 1.3-.036 1.9-.074v7.79c-.547.037-1.146.037-1.768.037h-7.35zm51.18-31.344v7.752h-.03c-3.622 0-6.868 1.573-9.722 4.68-2.857 3.11-4.284 7.004-4.284 11.722s1.427 8.613 4.284 11.72c2.854 3.11 6.1 4.644 9.72 4.644h.03v7.79h-.03c-5.193 0-9.866-1.948-14.034-5.767-5.18-4.72-7.75-10.823-7.75-18.387 0-7.527 2.57-13.668 7.75-18.424 4.168-3.82 8.84-5.73 14.035-5.73h.03zm-42.06 1.16c5.178.04 9.274 1.462 12.308 4.308 3.066 2.883 4.61 6.366 4.61 10.485 0 2.283-.514 4.455-1.56 6.477-.788 1.498-2.1 2.996-3.92 4.494-1.842 1.46-3.72 2.585-5.616 3.334-1.55.6-3.48.936-5.823 1.048v-7.79c2.515-.26 4.556-.972 6.147-2.208 2.004-1.535 2.98-3.37 2.98-5.542 0-1.798-.796-3.408-2.4-4.756-1.576-1.348-3.82-2.022-6.728-2.06v-7.79zm0 38.272c1.227.113 2.137.487 2.744 1.01.79.75 1.19 1.687 1.19 2.847 0 1.124-.4 2.06-1.19 2.772-.607.56-1.517.898-2.745 1.01v-7.64zm42.06 8.875v-7.79c3.628 0 6.875-1.534 9.732-4.642 2.842-3.07 4.292-6.964 4.292-11.72 0-4.718-1.45-8.65-4.292-11.72-2.857-3.11-6.104-4.645-9.733-4.682v-7.752c5.763 0 10.822 2.285 15.21 6.89 4.39 4.607 6.573 10.336 6.573 17.264 0 6.928-2.184 12.657-6.572 17.263-4.388 4.57-9.447 6.89-15.21 6.89m47.69-47.07v7.863c-.803-.112-1.634-.15-2.522-.15h-8.186v30.408h8.26c.885 0 1.705-.038 2.447-.113v7.828c-.803.037-1.623.075-2.495.075h-15.612c-1.887 0-3.21-.337-4.01-1.086-.794-.712-1.2-1.648-1.2-2.81 0-1.16.406-2.06 1.2-2.808.8-.75 2.003-1.086 3.632-1.086V64.896c-1.655-.037-2.88-.412-3.644-1.123-.793-.712-1.186-1.648-1.186-2.77 0-1.2.405-2.136 1.198-2.847.802-.712 2.124-1.086 4.01-1.086l16.26.037c.637 0 1.248.038 1.847.075m37.566 26.738v11.384h19.825V91.11c0-1.873.364-3.184 1.087-4.007.715-.787 1.666-1.2 2.834-1.2 1.125 0 2.06.413 2.784 1.2.722.823 1.074 2.134 1.074 4.006v11.983h-36.62c-1.853 0-3.186-.337-3.99-1.086-.792-.712-1.188-1.648-1.188-2.81 0-1.16.396-2.06 1.213-2.808.798-.712 2.134-1.086 3.966-1.086h1.223V64.896h-1.224c-1.855 0-3.188-.374-3.993-1.086-.79-.71-1.187-1.647-1.187-2.808 0-1.2.396-2.135 1.187-2.846.805-.712 2.138-1.086 3.992-1.086l34.926.037V68.94c0 1.873-.36 3.184-1.067 3.97-.705.824-1.653 1.198-2.81 1.198-1.165 0-2.112-.374-2.83-1.16-.716-.787-1.08-2.135-1.08-4.007v-4.044h-18.124V76.13h6.81c0-2.022.2-3.332.57-3.932.787-1.235 1.9-1.834 3.352-1.834 1.135 0 2.06.374 2.78 1.198.722.786 1.096 2.134 1.096 4.007v8.95c0 1.684-.228 2.807-.625 3.406-.814 1.2-1.892 1.798-3.252 1.798-1.453 0-2.565-.637-3.35-1.873-.372-.598-.57-1.908-.57-3.93h-6.812zm-37.567 19.098V95.19c1.91-.15 3.41-.56 4.522-1.197 2.083-1.16 3.618-2.62 4.648-4.456 1.033-1.798 1.56-4.12 1.56-6.966v-3.668c0-2.472-.478-4.606-1.396-6.44-1.47-2.922-3.123-4.87-4.965-5.956-1.237-.748-2.697-1.235-4.37-1.46v-7.864c1.9.187 3.755.637 5.593 1.348 2.405.936 4.34 2.135 5.812 3.558 1.112 1.086 2.266 2.584 3.475 4.493 1.19 1.874 2.105 3.784 2.712 5.618.6 1.91.902 4.195.902 6.89v3.708c0 3.295-.543 6.216-1.655 8.763-1.12 2.508-2.585 4.605-4.4 6.215-1.8 1.573-3.51 2.77-5.102 3.558-1.973.936-4.415 1.46-7.34 1.685m93.218-45.91v7.788h-9.062V77.74h6.055c1.055 0 2.067-.074 3.006-.224v8.8c-.468-.337-.92-.562-1.36-.786h-7.702v9.774h2.794c1.876 0 3.217.374 4.007 1.085.797.748 1.205 1.685 1.205 2.845 0 1.124-.408 2.06-1.205 2.772-.79.75-2.13 1.086-4.007 1.086h-11.785c-1.87 0-3.213-.337-4.014-1.086-.777-.712-1.185-1.648-1.185-2.81 0-1.16.408-2.06 1.217-2.808.802-.712 2.124-1.086 3.98-1.086h1.21V64.896h-1.21c-1.868 0-3.212-.374-4.013-1.086-.777-.71-1.185-1.647-1.185-2.808 0-1.2.408-2.135 1.184-2.846.8-.712 2.144-1.086 4.013-1.086l17.6.037h.453zm0 29.208v-8.8c1.083-.15 2.097-.412 3.03-.786 2.39-.9 3.977-1.873 4.804-2.884.82-1.01 1.24-2.022 1.24-2.996 0-1.498-.786-2.808-2.363-4.08-1.54-1.237-3.77-1.836-6.71-1.874v-7.79c5.276.076 9.373 1.424 12.32 4.083 3.018 2.733 4.527 6.028 4.527 9.923 0 2.434-.704 4.643-2.12 6.628-1.422 1.985-3.56 3.745-6.41 5.28 1.628 1.46 3.396 3.296 5.268 5.543 1.176 1.423 2.734 3.707 4.715 6.74 1.962 0 3.254.225 3.906.637 1.13.787 1.7 1.872 1.7 3.295 0 1.124-.4 2.06-1.172 2.772-.786.75-2.104 1.086-3.988 1.086h-4.448c-5.606-8.688-10.388-14.268-14.298-16.777" fill="#fff"/><path d="M173.928 115.787V132.3c0 3.596-1.3 6.63-3.883 9.176-2.592 2.51-5.685 3.782-9.32 3.782-1.802 0-3.49-.337-5.07-.973-1.574-.637-3.005-1.573-4.267-2.81-1.265-1.235-2.24-2.508-2.936-3.856-.692-1.312-1.052-3.11-1.052-5.32v-16.513c-1.228 0-2.134-.3-2.73-.824-.588-.56-.88-1.235-.88-2.097 0-.86.29-1.572.88-2.097.596-.525 1.592-.825 3.015-.825h7.635c1.394 0 2.4.263 2.992.787.61.562.9 1.273.9 2.134 0 .862-.288 1.573-.9 2.097-.59.562-1.598.824-2.992.824h-2.104v17c0 1.76.73 3.297 2.176 4.645 1.452 1.31 3.194 1.984 5.242 1.984 1.356 0 2.64-.337 3.827-.973 1.2-.637 2.173-1.573 2.926-2.81.475-.748.71-1.72.71-2.845v-17h-2.1c-1.392 0-2.39-.263-2.995-.825-.59-.524-.894-1.235-.894-2.097 0-.86.303-1.572.895-2.134.607-.524 1.604-.787 2.997-.787h7.646c1.393 0 2.39.3 2.992.824.596.524.895 1.235.895 2.096 0 .862-.287 1.536-.88 2.097-.584.525-1.494.824-2.722.824m-42.712 0v22.768h5.875c1.402 0 2.398.262 3 .824.592.523.888 1.235.888 2.096 0 .86-.297 1.573-.887 2.097-.602.562-1.598.824-3 .824h-17.584c-1.4 0-2.39-.262-2.996-.824-.592-.524-.89-1.236-.89-2.097 0-.86.298-1.573.89-2.097.607-.563 1.595-.825 2.996-.825h5.88v-22.768h-5.88c-1.4 0-2.39-.262-2.996-.824-.592-.524-.89-1.235-.89-2.097 0-.86.298-1.572.89-2.134.607-.524 1.595-.787 2.996-.787h17.585c1.402 0 2.398.3 3 .824.592.524.888 1.235.888 2.096 0 .862-.297 1.573-.887 2.097-.602.562-1.598.824-3 .824h-5.874zm66.427-5.767v5.88c-.595-.075-1.217-.113-1.895-.113h-6.13v22.768h6.19c.656 0 1.277-.037 1.835-.075v5.842c-.595.038-1.217.075-1.86.075h-11.7c-1.396 0-2.396-.262-2.995-.824-.603-.524-.9-1.236-.9-2.097 0-.86.298-1.573.9-2.134.6-.525 1.494-.787 2.71-.787v-22.768c-1.23 0-2.145-.3-2.725-.86-.588-.525-.884-1.2-.884-2.06 0-.862.296-1.573.898-2.135.6-.524 1.6-.787 2.996-.787h12.174c.468 0 .932.038 1.385.075m-91.24 1.423c.36-.487.76-.86 1.183-1.123.435-.225.877-.375 1.378-.375.847 0 1.543.3 2.082.9.544.598.82 1.572.82 2.995v4.906c0 1.423-.275 2.434-.82 3.033-.54.598-1.235.86-2.082.86-.786 0-1.408-.225-1.868-.637-.48-.45-.828-1.235-1.056-2.434-.144-.824-.4-1.424-.802-1.836-.77-.86-1.857-1.535-3.246-2.06-1.397-.523-2.798-.748-4.183-.748-1.75 0-3.353.374-4.81 1.123-1.453.748-2.744 1.984-3.864 3.67-1.108 1.722-1.68 3.744-1.68 6.103v3.782c0 2.81 1.025 5.13 3.065 7.003 2.035 1.872 4.85 2.808 8.476 2.808 2.145 0 3.98-.3 5.475-.898.873-.337 1.806-1.01 2.783-2.022.618-.6 1.082-.974 1.427-1.16.344-.19.734-.263 1.168-.263.768 0 1.453.3 2.045.898.576.563.872 1.275.872 2.06 0 .787-.404 1.65-1.194 2.547-1.153 1.31-2.64 2.397-4.463 3.108-2.442 1.05-5.134 1.573-8.09 1.573-3.436 0-6.548-.71-9.304-2.134-2.24-1.16-4.135-2.96-5.707-5.393-1.573-2.47-2.363-5.13-2.363-8.05v-3.932c0-3.033.696-5.842 2.115-8.463 1.405-2.62 3.36-4.643 5.86-6.066 2.51-1.424 5.157-2.136 7.95-2.136 1.686 0 3.26.187 4.742.562 1.46.412 2.824 1.01 4.093 1.797m104.205 27.936c-.588.56-.873 1.235-.873 2.096 0 .824.297 1.535.873 2.06v-4.157zm0-18.687v14.117c-.117.337-.237.637-.367.937-.82 1.872-1.92 3.445-3.29 4.643-1.342 1.198-2.626 2.097-3.81 2.66-1.482.71-3.317 1.122-5.497 1.272v-5.842c1.416-.15 2.55-.45 3.393-.898 1.54-.9 2.696-1.985 3.47-3.333.776-1.35 1.158-3.072 1.158-5.244v-2.734c0-1.834-.348-3.445-1.037-4.83-1.108-2.172-2.34-3.633-3.718-4.456-.938-.562-2.016-.9-3.267-1.086v-5.88c1.408.15 2.81.487 4.172 1.01 1.812.675 3.266 1.574 4.374 2.66.823.824 1.69 1.91 2.59 3.333.77 1.236 1.37 2.47 1.828 3.67m0 14.117c.595-1.685.872-3.557.872-5.617v-2.808c0-1.985-.222-3.707-.666-5.13-.072-.188-.132-.375-.207-.562v14.117zm17.877-24.865v7.752l-4.7 11.496h4.7v5.805h-7.03l-1.407 3.557h1.408c1.412 0 2.408.262 3.003.824.6.523.898 1.235.898 2.096 0 .86-.3 1.573-.9 2.097-.594.562-1.59.824-3.002.824h-7.83c-1.408 0-2.4-.262-2.992-.824l-.03-.037v-4.157l.066-.038c.618-.562 1.65-.824 3.082-.787l9.152-22.768H219.1c-1.405 0-2.412-.262-2.996-.824-.596-.524-.888-1.235-.888-2.097 0-.86.294-1.572.888-2.134.584-.524 1.59-.787 2.995-.787h9.38zm0 25.053v-5.805h4.707L228.5 117.66v.037-7.752h3.213l11.57 28.61c1.368 0 2.274.15 2.72.487.853.6 1.292 1.423 1.292 2.434 0 .86-.29 1.573-.892 2.097-.58.562-1.576.824-2.977.824h-7.834c-1.4 0-2.39-.262-3-.824-.587-.524-.88-1.236-.88-2.097 0-.86.294-1.573.88-2.097.61-.563 1.6-.825 3-.825h1.427l-1.402-3.557H228.5zm38.335-24.978v5.88c-.6-.075-1.228-.113-1.9-.113h-6.13v22.768h6.187c.66 0 1.27-.037 1.843-.075v5.842c-.6.038-1.228.075-1.87.075h-11.705c-1.397 0-2.39-.262-2.992-.824-.592-.524-.895-1.236-.895-2.097 0-.86.303-1.573.895-2.134.603-.525 1.506-.787 2.7-.787v-22.768c-1.217 0-2.127-.3-2.715-.86-.588-.525-.88-1.2-.88-2.06 0-.862.303-1.573.895-2.135.603-.524 1.595-.787 2.992-.787h12.185c.473 0 .925.038 1.39.075m13.283 29.734c-.375.45-.555 1.048-.555 1.722 0 .674.18 1.236.555 1.723v-3.446zm0-18.088v12.096c-.186.71-.413 1.348-.693 1.985-.828 1.872-1.937 3.445-3.288 4.643-1.348 1.198-2.622 2.097-3.816 2.66-1.483.71-3.318 1.122-5.486 1.272v-5.842c1.404-.15 2.54-.45 3.38-.898 1.544-.9 2.698-1.985 3.465-3.333.79-1.35 1.165-3.072 1.165-5.244v-2.734c0-1.834-.345-3.445-1.045-4.83-1.1-2.172-2.34-3.633-3.696-4.456-.933-.562-2.027-.9-3.27-1.086v-5.88c1.404.15 2.793.487 4.175 1.01 1.79.675 3.258 1.574 4.36 2.66.834.824 1.68 1.91 2.598 3.333.88 1.423 1.565 2.846 2.014 4.232.045.15.09.262.135.41m0 12.097c.378-1.386.55-2.92.55-4.57v-2.807c0-1.798-.173-3.408-.55-4.72v12.097zm18.2-23.817v7.752l-4.697 11.496h4.696v5.805h-7.023l-1.408 3.557h1.407c1.39 0 2.404.262 2.995.824.592.523.895 1.235.895 2.096 0 .86-.303 1.573-.895 2.097-.59.562-1.606.824-2.995.824h-7.834c-1.405 0-2.405-.262-2.99-.824-.143-.112-.254-.262-.35-.374v-3.446c.104-.15.24-.3.38-.412.623-.562 1.66-.824 3.094-.787l9.152-22.768h-3.802c-1.404 0-2.415-.262-3.007-.824-.594-.524-.886-1.235-.886-2.097 0-.86.294-1.572.887-2.134.593-.524 1.604-.787 3.008-.787h9.373zm31.515 11.01v17.6h2.105c1.39 0 2.393.262 2.98.824.596.523.903 1.235.903 2.096 0 .86-.307 1.573-.902 2.097-.588.562-1.592.824-2.98.824h-7.644c-1.417 0-2.405-.262-3.008-.824-.58-.524-.892-1.236-.892-2.097 0-.86.288-1.535.884-2.097.588-.563 1.494-.825 2.726-.825v-22.768h-.91c-1.393 0-2.39-.262-3-.824-.602-.524-.89-1.235-.89-2.097 0-.86.287-1.572.89-2.134.61-.524 1.607-.787 3-.787h6.737l14.878 23.368v-17.526h-2.112c-1.397 0-2.386-.262-2.988-.824-.592-.524-.895-1.235-.895-2.097 0-.86.303-1.572.895-2.134.602-.524 1.59-.787 2.988-.787h7.647c1.408 0 2.404.3 2.988.824.614.524.91 1.235.91 2.096 0 .862-.296 1.536-.89 2.097-.59.525-1.488.824-2.686.824v28.61h-5.775l-14.96-23.442zM298.3 134.998v-5.805h4.71l-4.697-11.533v.037-7.752h3.198l11.58 28.61c1.366 0 2.284.15 2.71.487.87.6 1.304 1.423 1.304 2.434 0 .86-.29 1.573-.89 2.097-.585.562-1.57.824-2.97.824h-7.84c-1.4 0-2.39-.262-2.994-.824-.6-.524-.9-1.236-.9-2.097 0-.86.3-1.573.9-2.097.603-.563 1.595-.825 2.995-.825h1.42l-1.397-3.557h-7.115zm73.728-25.914v5.842c-2.72 0-5.15 1.16-7.273 3.483-2.145 2.32-3.213 5.24-3.213 8.76 0 3.52 1.068 6.442 3.213 8.764 2.124 2.322 4.554 3.482 7.273 3.482v5.842c-3.89 0-7.377-1.46-10.508-4.306-3.872-3.558-5.808-8.126-5.808-13.78 0-5.618 1.936-10.224 5.808-13.78 3.13-2.885 6.617-4.308 10.508-4.308zm0 36.174v-5.842c2.726 0 5.15-1.16 7.294-3.445 2.124-2.32 3.2-5.24 3.2-8.8 0-3.556-1.076-6.477-3.2-8.76-2.145-2.323-4.568-3.484-7.294-3.484v-5.842c4.314 0 8.11 1.723 11.39 5.168 3.29 3.445 4.922 7.714 4.922 12.92 0 5.167-1.633 9.473-4.92 12.92-3.28 3.444-7.078 5.13-11.392 5.166" fill="#fff"/><path d="M41.567 226.22v4.268c-1.704-1.048-3.82-1.685-6.243-1.685h-1.348c-11.44 0-29.898 14.155-29.898 24.453v2.697c0 2.77 4.003 4.08 6.785 4.08 12.235 0 19.465-8.162 24.43-15.614l-.804-4.045.508.524 6.57-4.907v18.986c-3.47 3.407-4.82 6.402-1.48 6.402h1.48v4.756h-2.84c-2.902 0-4.752-4.194-4.752-7.452v-2.06c-4.27 1.012-16.8 20.035-17.67 23.78-2.36-.186-3.394-1.05-3.394-3.408 0-.71 7.257-12.92 8.145-14.23-3.292.264-4.262 1.348-8.145 1.348h-2.05C5.337 264.116 0 259.96 0 254.606v-2.735c0-11.533 20.072-27.148 32.61-27.148H36c1.573 0 3.58.6 5.565 1.497m0-50.63v5.768c-5.595 3.594-12.167 7.34-15.567 7.6-.967.076-3.506-1.384-3.633-3.144-.08-1.31 4.41-.974 7.325-2.547 2.033-1.123 4.583-2.62 6.508-3.932 1.43-.936 3.374-2.32 5.367-3.744m0 90.548v-4.756h1.917c12.26 0 14.54-9.4 19.016-9.51v-4.045c0-1.31-1.206-2.734-2.034-2.734-5.954 0-14.293 5.317-18.9 9.886v-18.987l3.277-2.434c-.797-1.162-1.895-2.248-3.276-3.072v-4.27c4.062 1.874 8.028 5.17 8.028 8.053v1.31c0 2.697-3.913 3.82-4.913 5.32-.438.635-1.958 5.653-2.56 6.927 5.02-1.35 8.36-7.49 16.98-7.49h.683c2.516 0 6.107 5.243 6.107 8.164v8.127H63.19l-2.215 4.68c4.764 2.285 9.23-1.872 9.677 3.483l.08.75-10.893 1.16-2.386-3.707c-4.052-.15-7.86 3.108-15.89 3.145m66.706-19.435v7.415c-.48.674-.8 1.31-.932 1.835h.932v6.852c-2.535.75-5.295 1.31-8.4 1.31h-4.76c-4.05 0-5.433-2.733-5.433-6.777v-4.756c-6.793.15-13.005 9.512-15.623 9.512H72.01c-.168-7.864 1.483-6.03 4.883-12.096 2.696-4.83 3.19-8.612 5.31-13.03l3.65 3.144-2.96 9.063c2.916-.674 3.71-2.023 7.466-2.023.658 0 3.395 2.584 3.395 4.045v8.163c1.525.337 1.554.674 3.393.674h5.434v-4.755c0-2.548 2.404-5.693 5.688-8.577m0-38.758v4.232c-.75.185-1.513.3-2.266.337l-1.355.114c-5.21.374-5.854-4.457-8.607-6.217-2.643 2.06-7.452 5.993-11.814 6.292l-1.364.114c-4.696.337-8.557-5.467-8.894-10.26l-.147-2.022c-4.22 1.423-11.215 17.787-16.417 18.162l-.677.074c-1.576.11-3.516-1.572-3.632-3.145l-.144-2.06c-.382-5.392 16.447-46.472 19.372-53.1-2.037.71-19.17 12.844-22.22 15.054-1.66 1.234-4.888 3.52-8.543 5.84v-5.766c2.595-1.835 5.26-3.67 6.984-4.606 3.887-2.06 23.61-16.627 24.7-16.702.89-.075 3.457.786 4.168 1.05.345 7.226-8.703 22.28-10.732 28.833-2.95 9.51-8.085 19.21-9.666 29.133 9.77-6.104 21.88-30.557 26.97-42.09 1.513.86 3.5 1.235 3.632 3.145.107 1.573-6.273 13.855-7.366 16.514-1.352 3.22-4.61 18.387 1.647 17.937 13.647-1.012 14.576-14.867 21.058-19.885l3.47 1.91c-.03 6.778-6.616 11.234-6.42 13.93.122 1.76 1.75 3.97 3.673 3.857l1.356-.11c1.352-.115 2.352-.3 3.232-.562m0-28.273c-2.81.11-1.84-2.884-6.18-2.958.41 4.342 2.52 6.776 6.18 7.376v-4.42zm-3.902-9.25l2.13 1.236c.58-.45 1.154-.973 1.772-1.535v-4.83c-1.756 1.572-3.232 3.63-3.902 5.13m3.902 41.753v-4.23c1.906-.525 3.18-1.274 6.16-1.498-.042 3.07-2.947 4.98-6.16 5.73m17.32 26.774v24.378c-1.55-1.647-2.682-3.67-3.3-5.99-4.57 1.197-8.815 3.856-14.02 5.466v-6.853h1.112c6.812 0 14.938-3.782 14.938-10.186 0-4.68-12.43 3.26-16.05 8.352v-7.414c5.12-4.494 12.402-8.39 16.05-8.39.49 0 .913.262 1.27.638m0-48.082v14.754c-1.58-1.61-2.622-3.595-2.79-5.88l-.1-1.347c-.146-2.17 1.057-4.98 2.888-7.526m-17.32-20.746c1.607-1.423 3.457-2.96 6.07-3.108 2.832-.225 9.617 1.123 9.827 4.044l.09 1.348c.227 3.22-8.924 6.778-12.433 7.003l-3.393.263h-.16v4.42c.96.15 2.032.224 3.212.15 4.328-.338 10.52-1.873 14.105-4.682v-12.882c-2.396-2.546-6.01-4.12-9.508-3.894l-3.385.26c-1.475.075-3.037 1.01-4.426 2.247v4.83zm17.32 93.206v-24.378c.925 1.05 1.41 3.183 1.445 4.793 2.027.15 3.413.486 3.413 2.695v2.06c0 2.322-3.412 3.632-3.412 7.452v1.386c0 5.13 14.744 6.29 19.71 7.452v2.022c-2.43.6-3.187 1.385-6.115 1.385h-2.037c-5.562 0-10.055-1.76-13.002-4.868m35.34-24.64v4.793c-.23-.71-.368-1.423-.417-2.21-.046-.86.104-1.722.415-2.583m0-56.62v5.58c-5.3 3.894-11.624 11.196-11.455 13.593l.054.674c.2 2.884 7.036 1.012 11.402-.6v5.506c-.872.3-1.76.562-2.65.787-2.207.524-14.407 2.883-16.313 3.033l-2.022.15c-5.073.337-10.952-1.61-14.353-5.168v-14.754c2.805-3.97 7.09-7.49 10.347-7.715l4.733-.338c2.022-.15 6.36 3.183 6.535 5.655.138 1.947-3.936 5.055-6.448 5.243-1.296.075-1.21-.15-2.07-.525l6.043-4.793c-1.663-1.01-2.378-1.61-4.445-1.46l-1.356.075c-4.524.337-12.34 8.35-12.01 13.144.288 4.007 8.404 7.34 12.05 6.59l7.37-1.347c-.287-1.947-.816-2.21-.98-4.53-.42-5.918 8.11-15.017 15.57-18.8m-35.34-2.508c1.874-1.46 3.042-3.258 2.888-5.393l-.104-1.348c-.162-2.322-1.214-4.456-2.783-6.14v12.88zm74.548 49.58v5.13c-2.067.936-3.865 2.958-4.43 5.093 1.673-.9 3.348-1.872 4.43-3.333v5.393c-1.304.936-6.47 4.493-6.47 4.718 0 1.573 1.126 2.696 2.71 2.696h2.037c.462 0 1.053-.075 1.724-.26v4.343c-11.598 0-3.49-.224-11.23-5.43-4.01.937-12.782 3.408-16.99 3.408h-.675c-4.996 0-9.052-3.333-10.314-7.414v-4.795c1.303-3.82 5.412-7.414 7.76-9.36 4.433-3.71 26.044-13.745 26.33-.863-3.12-.824-1.713-2.022-4.076-2.022h-6.793c-3.823 0-19.02 11.31-19.02 16.29 0 1.91 2.375 3.407 4.757 3.407h.67c5.123 0 16.91-1.572 18.604-4.493 2.108-3.67.535-3.183 3.816-7.714.95-1.31 5.27-4.794 6.804-4.794h.356zm0-55.535v5.805c-.85.75-1.562 1.76-2.397 3.295-.805 1.46-4.774 7.602-4.696 8.65.14 1.985 3.723 4.906 5.176 5.73.637-.375 1.285-.86 1.918-1.386v7.04c-.91-.337-1.86-.6-2.974-.75-8.56-1.197-3.033-5.353-7.897-6.29-.307 1.91-3.726 10.448-6.048 10.635-1.367.113-1.947-2.66-2.337-3.933-3.523 2.023-7.28 2.285-9.582-.674-2.985 1.723-6.56 3.745-10.37 5.093v-5.505c1.468-.523 2.67-1.047 3.225-1.347 3.097-1.61 4.685-1.198 5.625-4.643.476-1.76 2.618-7.04 2.592-7.265-.114-1.61-2.05-3.258-3.63-3.146l-2.707.185c-1.295.11-3.123 1.086-5.104 2.547v-5.58c1.947-1.01 3.827-1.648 5.445-1.76 2.982-.186 5.543 1.76 7.24 3.37.947.9 3.692 6.628 3.748 7.415l.138 2.022c.276 3.893-1.66 3.07-2.273 6.29l2.033-.15c7.486-.524 14.578-20.07 22.877-25.65m28.82 59.653v4.943c-1.375 1.048-2.427 2.434-2.656 4.568-.516 4.42-1.12 9.474-5.463 9.474-7.213 0-.453-10.522.69-12.208-2.72-4.044-8.757-6.178-14.276-7.49 5.08 9.625 3.497 14.868-4.75 20.372h-2.365v-4.344c3.3-.823 8.474-3.445 8.474-5.84v-2.023c0-2.547-1.955-5.056-3.39-6.104-2.26 4.682-.46 3.37-4.878 6.666l-.208.15v-5.392c.438-.6.78-1.31.993-2.097-.334.074-.66.185-.993.337v-5.13h.315c1.524 0 1.494.56 2.722 1.385.16-1.91 0-2.735 2.047-2.735 9.632 0 13.613 5.205 19.013 8.838.666-.337 2.7-1.835 4.722-3.37m0-58.755v6.366c-4.973 3.932-9.388 11.01-11.08 14.83.782 1.01 1.04 1.946 2.856 1.834l1.36-.114c2.62-.186 4.88-.786 6.864-1.573v4.832c-5.984 2.06-13.017 3.333-19.986 3.82-4.26.3-6.41-.862-8.834-1.76v-7.04c3.955-3.37 7.538-9.288 7.097-15.58l-.055-.673c-.11-1.536-.64-1.46-1.55-2.622-2.704.824-4.255 1.423-5.494 2.584v-5.805c1.24-.823 2.506-1.31 3.805-1.423l.67-.04c5.034-.373 6.95 8.128 6.01 13.483-1.19 6.74-5.59 11.084-6.11 13.743l10.253.75-.423-6.218c-.34-4.755 8.612-15.316 14.615-19.397m0 63.698v-4.943c2.322-1.686 4.61-3.408 4.786-3.408 2.692 0 5.44 3.07 5.44 6.104v1.348l-.77 10.86-.252.71 6.827 3.296.304-.636v2.06c-2.887.786-1.176 1.348-3.39 1.348-9.54 0-7.47-11.347-7.47-19.66-1.827.936-3.883 1.722-5.474 2.92m36.398-66.206v5.392c-1.984.637-3.71 1.573-5.2 2.846-5.656 4.793-3.476 3.258-5.918 9.474.873 1.423 1.408 3.296 3.62 3.146l6.78-.487c.15 0 .393-.186.718-.45v10.785c-4.508 8.014-11.028 20.484-11.327 22.394-2.18.114-3.37.487-3.53-1.76l-.05-.674c-.292-4.12 10.505-20.147 12.53-24.753-9.877.71-17.502 1.347-23.995-2.36-2.68 2.097-6.126 3.782-10.025 5.13v-4.83c3.505-1.498 6.15-3.708 8.392-5.842l2.693-8.126c-.922-1.2-3.127-3.895-5.033-3.745-2.01.15-4.075 1.198-6.052 2.734v-6.365c1.438-.974 2.708-1.573 3.63-1.648 2.84-.186 4.653 1.535 6.19 3.146 3.62 3.82 2.747 1.797 5.054 3.707 4.108 3.408-.36 10.56-.925 13.518 2.46.375 3.283 1.124 6.182.936l2.044-.15-.344-4.755c-.592-8.427 6.486-15.73 14.567-17.264m12.9 56.845v14.53c-1.318-1.872-1.974-4.418-1.974-6.778 0-1.685.768-4.53 1.974-7.75m0-53.663v12.918c-2.34 4.906-4.59 3.895-8.763 7.827-.472.45-2.1 3.145-4.138 6.777v-10.784c2.75-2.397 10.885-13.37 11.143-14.68-2.932-.56-1.288-1.273-3.486-1.123l-1.36.11c-2.347.15-4.44.525-6.298 1.162v-5.393c.64-.114 1.254-.186 1.898-.225l4.066-.3c2.75-.186 5.27 1.385 6.936 3.707m0 12.92v-12.92c1.715 2.472 2.497 5.767 1.565 8.725-.543 1.798-1.06 3.146-1.565 4.195m32.676 38.87c-.85 2.247-1.367 4.793-1.367 7.602 0 1.085.54 2.92 1.366 4.38v-11.983zm0-24.978v8.5c-1.812 7.49-4.21 15.878-7.98 20.184-3.883 4.42-11.6 15.428-19.2 15.428h-.666c-2.097 0-3.722-1.123-4.83-2.733v-14.53c3.18-8.65 9.44-20.073 12.29-20.073 1.314 0 1.468 2.21 2.037 3.408-3.262 3.745-11.545 18.91-11.545 25.8v.638c0 1.573.476 2.06 2.048 2.06 6.816 0 14.55-11.047 17.646-15.616 4.82-7.077 6.31-15.13 8.163-23.068h2.036zm0-32.205v5.317c-1.786 3.97-6.613 10.11-6.557 11.047.158 2.246 3.587 3.145 6.556 3.37v4.418l-1.92.04c-6.258.45-6.932-4.98-9.187-4.794-.246 0-5.228 4.456-9.872 4.793l-.685.036c-2.655.186-3.63-3.108-3.82-5.88-.43-5.916 4.812-14.866 8.284-17.6 1.437.937 2.138 1.424 2.318 3.933.04.487-6.775 8.238-6.483 14.08 12.613-1.16 11.598-13.48 19.694-19.772.648.374 1.25.56 1.67 1.01m0 5.318c.442-.973.708-1.797.652-2.434l-.093-1.348c-.05-.75-.246-1.198-.558-1.535v5.317zm0 35.388v-8.5l1.367 2.696c-.416 1.797-.872 3.782-1.367 5.804m6.797 7.078v7.377c-1.816 2.247-3.4 5.355-3.4 8.276v2.697c1.333-.11 2.464-.6 3.4-1.386v6.517c-.63.186-1.307.3-2.048.3h-2.04c-1.005 0-1.964-1.05-2.71-2.397v-11.983c1.514-3.932 4.102-7.003 6.79-9.4zm0-43.364v8.126c-.363.86-.566 1.61-.532 2.21l.145 2.02.39-.038v6.404l-5.962 1.01h-.835v-4.418c.92.075 1.812.075 2.55.04l-.405-5.393c-.164-2.472 1.79-6.217 4.65-9.96m10.58 51.414v4.567l-3.797-.15c-.382 4.382-2.55 9.7-6.782 11.01v-6.516c2.273-1.91 3.393-5.39 3.393-8.8v-1.347c0-2.584.21-.264-.678-2.022-.854.563-1.806 1.46-2.716 2.585v-7.377l2.165 1.16 1.82-1.235 3.418 2.247c.045 4.343.39 5.58 3.175 5.88m0-41.718v5.168l-7.16 3.296-3.42.56v-6.402l4.36-.3c1.757-.114 3.958-1.01 6.22-2.322m0-20.146v5.88c-4.284 3.67-9.01 9.136-10.58 12.694v-8.126c2.99-3.932 6.96-7.864 10.58-10.448m13.133 58.98v5.504l-2.71.712 2.71 2.32v8.54c-.356.41-.83.86-1.985.86-3.092 0-2.317-6.89-4.07-10.185l-7.077-.3v-4.568c.79.074 1.775.113 3.004.113 3.65 0 7.085-1.46 10.13-2.996m0-52.614v7.977c-1.087 1.572-2.648 3.52-2.555 4.905l.195 2.696c.108 1.537 1.12 2.323 2.36 2.885v4.756c-3.28-1.16-5.626-2.17-6.43-7.34l-6.704 3.072v-5.168c5.55-3.295 11.354-9.1 11.122-12.545-.18-2.398-2.426-5.918-4.512-5.768-1.457.075-3.94 1.723-6.61 4.044v-5.88c2.374-1.684 4.595-2.807 6.273-2.92 3.272-.224 5.617 4.606 6.86 9.287m37.49 76.28v1.35c0 1.57.482 2.02 2.047 2.02h1.352c1.116 0 2.044-.41 2.044-1.347 0-1.46-2.727-4.082-3.397-4.082-1.565 0-2.048.487-2.048 2.06m.68-10.186C383.54 233.598 400 205.21 400 200.905v-2.022c0-1.835-.98-2.022-2.052-2.734-2.476 1.684-7.827 15.615-9.736 19.472-3.056 6.18-8.606 12.432-8.606 20.596m-38.17-58.118v-7.977c.577 2.135.918 4.232 1.03 5.805.042.524-.42 1.31-1.03 2.172m0 15.24v-4.755c2.067 1.01 4.756 1.348 4.898 3.408.075 1.086-1.745 1.685-2.557 2.21-.824-.3-1.61-.6-2.34-.862m0 46.473v-8.538l.493.412 2.214-4.157-2.708.712v-5.505c1.397-.674 2.708-1.386 3.924-1.947 6.044-2.846 5.973-5.88 9.722-8.613l3.55 3.22-12.905 18.836.514.524 18.353 1.835v2.023c-3.003.263-4.73 2.21-6.11 2.06l-14.995-1.686c-1.314-.375-1.58.224-2.052.823" fill="#fff" fill-rule="evenodd"/><path d="M48.865 41.64c11.48 0 20.836-9.36 20.836-20.82C69.7 9.325 60.347 0 48.866 0 37.387 0 28.018 9.324 28.018 20.82c0 11.46 9.37 20.82 20.847 20.82" fill="#ffe600" fill-rule="evenodd"/><path d="M140.757 52.614C97.723-4.53 54.687 112.904 11.65 55.76V19.996c43.038 57.145 86.073-60.253 129.107-3.108" fill="#ec008c"/><path d="M201.14 64.26c-44.284-58.793-88.566 62.05-132.844 3.258v-36.81c44.278 58.79 88.56-62.014 132.845-3.222" fill="#00aeef"/><path d="M143.43 103.916c-43.034-57.144-86.06 60.29-129.107 3.146V71.3c43.046 57.144 86.073-60.253 129.108-3.108" fill="#a6ce39"/><path d="M165.15 87.29v8.014h7.872c.442 0 .865.037 1.247.074v7.64c-.383.075-.806.075-1.248.075h-16.855c-1.884 0-3.21-.337-4.003-1.086-.798-.712-1.214-1.648-1.214-2.81 0-1.16.416-2.06 1.23-2.808.815-.712 2.137-1.086 3.987-1.086h1.21V64.896h-1.21c-1.884 0-3.21-.374-4.003-1.086-.798-.71-1.214-1.647-1.214-2.808 0-1.2.416-2.135 1.214-2.846.793-.712 2.12-1.086 4.003-1.086l17.91.037h.192v7.79h-9.12v14.64h7.22c.656 0 1.3-.036 1.9-.074v7.79c-.547.037-1.146.037-1.768.037h-7.35zm51.18-31.344v7.752h-.03c-3.622 0-6.868 1.573-9.722 4.68-2.857 3.11-4.284 7.004-4.284 11.722s1.427 8.613 4.284 11.72c2.854 3.11 6.1 4.644 9.72 4.644h.03v7.79h-.03c-5.193 0-9.866-1.948-14.034-5.767-5.18-4.72-7.75-10.823-7.75-18.387 0-7.527 2.57-13.668 7.75-18.424 4.168-3.82 8.84-5.73 14.035-5.73h.03zm-42.06 1.16c5.178.04 9.274 1.462 12.308 4.308 3.066 2.883 4.61 6.366 4.61 10.485 0 2.283-.514 4.455-1.56 6.477-.788 1.498-2.1 2.996-3.92 4.494-1.842 1.46-3.72 2.585-5.616 3.334-1.55.6-3.48.936-5.823 1.048v-7.79c2.515-.26 4.556-.972 6.147-2.208 2.004-1.535 2.98-3.37 2.98-5.542 0-1.798-.796-3.408-2.4-4.756-1.576-1.348-3.82-2.022-6.728-2.06v-7.79zm0 38.272c1.227.113 2.137.487 2.744 1.01.79.75 1.19 1.687 1.19 2.847 0 1.124-.4 2.06-1.19 2.772-.607.56-1.517.898-2.745 1.01v-7.64zm42.06 8.875v-7.79c3.628 0 6.875-1.534 9.732-4.642 2.842-3.07 4.292-6.964 4.292-11.72 0-4.718-1.45-8.65-4.292-11.72-2.857-3.11-6.104-4.645-9.733-4.682v-7.752c5.763 0 10.822 2.285 15.21 6.89 4.39 4.607 6.573 10.336 6.573 17.264 0 6.928-2.184 12.657-6.572 17.263-4.388 4.57-9.447 6.89-15.21 6.89m47.69-47.07v7.863c-.803-.112-1.634-.15-2.522-.15h-8.186v30.408h8.26c.885 0 1.705-.038 2.447-.113v7.828c-.803.037-1.623.075-2.495.075h-15.612c-1.887 0-3.21-.337-4.01-1.086-.794-.712-1.2-1.648-1.2-2.81 0-1.16.406-2.06 1.2-2.808.8-.75 2.003-1.086 3.632-1.086V64.896c-1.655-.037-2.88-.412-3.644-1.123-.793-.712-1.186-1.648-1.186-2.77 0-1.2.405-2.136 1.198-2.847.802-.712 2.124-1.086 4.01-1.086l16.26.037c.637 0 1.248.038 1.847.075m37.566 26.738v11.384h19.825V91.11c0-1.873.364-3.184 1.087-4.007.715-.787 1.666-1.2 2.834-1.2 1.125 0 2.06.413 2.784 1.2.722.823 1.074 2.134 1.074 4.006v11.983h-36.62c-1.853 0-3.186-.337-3.99-1.086-.792-.712-1.188-1.648-1.188-2.81 0-1.16.396-2.06 1.213-2.808.798-.712 2.134-1.086 3.966-1.086h1.223V64.896h-1.224c-1.855 0-3.188-.374-3.993-1.086-.79-.71-1.187-1.647-1.187-2.808 0-1.2.396-2.135 1.187-2.846.805-.712 2.138-1.086 3.992-1.086l34.926.037V68.94c0 1.873-.36 3.184-1.067 3.97-.705.824-1.653 1.198-2.81 1.198-1.165 0-2.112-.374-2.83-1.16-.716-.787-1.08-2.135-1.08-4.007v-4.044h-18.124V76.13h6.81c0-2.022.2-3.332.57-3.932.787-1.235 1.9-1.834 3.352-1.834 1.135 0 2.06.374 2.78 1.198.722.786 1.096 2.134 1.096 4.007v8.95c0 1.684-.228 2.807-.625 3.406-.814 1.2-1.892 1.798-3.252 1.798-1.453 0-2.565-.637-3.35-1.873-.372-.598-.57-1.908-.57-3.93h-6.812zm-37.567 19.098V95.19c1.91-.15 3.41-.56 4.522-1.197 2.083-1.16 3.618-2.62 4.648-4.456 1.033-1.798 1.56-4.12 1.56-6.966v-3.668c0-2.472-.478-4.606-1.396-6.44-1.47-2.922-3.123-4.87-4.965-5.956-1.237-.748-2.697-1.235-4.37-1.46v-7.864c1.9.187 3.755.637 5.593 1.348 2.405.936 4.34 2.135 5.812 3.558 1.112 1.086 2.266 2.584 3.475 4.493 1.19 1.874 2.105 3.784 2.712 5.618.6 1.91.902 4.195.902 6.89v3.708c0 3.295-.543 6.216-1.655 8.763-1.12 2.508-2.585 4.605-4.4 6.215-1.8 1.573-3.51 2.77-5.102 3.558-1.973.936-4.415 1.46-7.34 1.685m93.218-45.91v7.788h-9.062V77.74h6.055c1.055 0 2.067-.074 3.006-.224v8.8c-.468-.337-.92-.562-1.36-.786h-7.702v9.774h2.794c1.876 0 3.217.374 4.007 1.085.797.748 1.205 1.685 1.205 2.845 0 1.124-.408 2.06-1.205 2.772-.79.75-2.13 1.086-4.007 1.086h-11.785c-1.87 0-3.213-.337-4.014-1.086-.777-.712-1.185-1.648-1.185-2.81 0-1.16.408-2.06 1.217-2.808.802-.712 2.124-1.086 3.98-1.086h1.21V64.896h-1.21c-1.868 0-3.212-.374-4.013-1.086-.777-.71-1.185-1.647-1.185-2.808 0-1.2.408-2.135 1.184-2.846.8-.712 2.144-1.086 4.013-1.086l17.6.037h.453zm0 29.208v-8.8c1.083-.15 2.097-.412 3.03-.786 2.39-.9 3.977-1.873 4.804-2.884.82-1.01 1.24-2.022 1.24-2.996 0-1.498-.786-2.808-2.363-4.08-1.54-1.237-3.77-1.836-6.71-1.874v-7.79c5.276.076 9.373 1.424 12.32 4.083 3.018 2.733 4.527 6.028 4.527 9.923 0 2.434-.704 4.643-2.12 6.628-1.422 1.985-3.56 3.745-6.41 5.28 1.628 1.46 3.396 3.296 5.268 5.543 1.176 1.423 2.734 3.707 4.715 6.74 1.962 0 3.254.225 3.906.637 1.13.787 1.7 1.872 1.7 3.295 0 1.124-.4 2.06-1.172 2.772-.786.75-2.104 1.086-3.988 1.086h-4.448c-5.606-8.688-10.388-14.268-14.298-16.777" fill="#ec008c"/><path d="M173.928 115.787V132.3c0 3.596-1.3 6.63-3.883 9.176-2.592 2.51-5.685 3.782-9.32 3.782-1.802 0-3.49-.337-5.07-.973-1.574-.637-3.005-1.573-4.267-2.81-1.265-1.235-2.24-2.508-2.936-3.856-.692-1.312-1.052-3.11-1.052-5.32v-16.513c-1.228 0-2.134-.3-2.73-.824-.588-.56-.88-1.235-.88-2.097 0-.86.29-1.572.88-2.097.596-.525 1.592-.825 3.015-.825h7.635c1.394 0 2.4.263 2.992.787.61.562.9 1.273.9 2.134 0 .862-.288 1.573-.9 2.097-.59.562-1.598.824-2.992.824h-2.104v17c0 1.76.73 3.297 2.176 4.645 1.452 1.31 3.194 1.984 5.242 1.984 1.356 0 2.64-.337 3.827-.973 1.2-.637 2.173-1.573 2.926-2.81.475-.748.71-1.72.71-2.845v-17h-2.1c-1.392 0-2.39-.263-2.995-.825-.59-.524-.894-1.235-.894-2.097 0-.86.303-1.572.895-2.134.607-.524 1.604-.787 2.997-.787h7.646c1.393 0 2.39.3 2.992.824.596.524.895 1.235.895 2.096 0 .862-.287 1.536-.88 2.097-.584.525-1.494.824-2.722.824m-42.712 0v22.768h5.875c1.402 0 2.398.262 3 .824.592.523.888 1.235.888 2.096 0 .86-.297 1.573-.887 2.097-.602.562-1.598.824-3 .824h-17.584c-1.4 0-2.39-.262-2.996-.824-.592-.524-.89-1.236-.89-2.097 0-.86.298-1.573.89-2.097.607-.563 1.595-.825 2.996-.825h5.88v-22.768h-5.88c-1.4 0-2.39-.262-2.996-.824-.592-.524-.89-1.235-.89-2.097 0-.86.298-1.572.89-2.134.607-.524 1.595-.787 2.996-.787h17.585c1.402 0 2.398.3 3 .824.592.524.888 1.235.888 2.096 0 .862-.297 1.573-.887 2.097-.602.562-1.598.824-3 .824h-5.874zm66.427-5.767v5.88c-.595-.075-1.217-.113-1.895-.113h-6.13v22.768h6.19c.656 0 1.277-.037 1.835-.075v5.842c-.595.038-1.217.075-1.86.075h-11.7c-1.396 0-2.396-.262-2.995-.824-.603-.524-.9-1.236-.9-2.097 0-.86.298-1.573.9-2.134.6-.525 1.494-.787 2.71-.787v-22.768c-1.23 0-2.145-.3-2.725-.86-.588-.525-.884-1.2-.884-2.06 0-.862.296-1.573.898-2.135.6-.524 1.6-.787 2.996-.787h12.174c.468 0 .932.038 1.385.075m-91.24 1.423c.36-.487.76-.86 1.183-1.123.435-.225.877-.375 1.378-.375.847 0 1.543.3 2.082.9.544.598.82 1.572.82 2.995v4.906c0 1.423-.275 2.434-.82 3.033-.54.598-1.235.86-2.082.86-.786 0-1.408-.225-1.868-.637-.48-.45-.828-1.235-1.056-2.434-.144-.824-.4-1.424-.802-1.836-.77-.86-1.857-1.535-3.246-2.06-1.397-.523-2.798-.748-4.183-.748-1.75 0-3.353.374-4.81 1.123-1.453.748-2.744 1.984-3.864 3.67-1.108 1.722-1.68 3.744-1.68 6.103v3.782c0 2.81 1.025 5.13 3.065 7.003 2.035 1.872 4.85 2.808 8.476 2.808 2.145 0 3.98-.3 5.475-.898.873-.337 1.806-1.01 2.783-2.022.618-.6 1.082-.974 1.427-1.16.344-.19.734-.263 1.168-.263.768 0 1.453.3 2.045.898.576.563.872 1.275.872 2.06 0 .787-.404 1.65-1.194 2.547-1.153 1.31-2.64 2.397-4.463 3.108-2.442 1.05-5.134 1.573-8.09 1.573-3.436 0-6.548-.71-9.304-2.134-2.24-1.16-4.135-2.96-5.707-5.393-1.573-2.47-2.363-5.13-2.363-8.05v-3.932c0-3.033.696-5.842 2.115-8.463 1.405-2.62 3.36-4.643 5.86-6.066 2.51-1.424 5.157-2.136 7.95-2.136 1.686 0 3.26.187 4.742.562 1.46.412 2.824 1.01 4.093 1.797m104.205 27.936c-.588.56-.873 1.235-.873 2.096 0 .824.297 1.535.873 2.06v-4.157zm0-18.687v14.117c-.117.337-.237.637-.367.937-.82 1.872-1.92 3.445-3.29 4.643-1.342 1.198-2.626 2.097-3.81 2.66-1.482.71-3.317 1.122-5.497 1.272v-5.842c1.416-.15 2.55-.45 3.393-.898 1.54-.9 2.696-1.985 3.47-3.333.776-1.35 1.158-3.072 1.158-5.244v-2.734c0-1.834-.348-3.445-1.037-4.83-1.108-2.172-2.34-3.633-3.718-4.456-.938-.562-2.016-.9-3.267-1.086v-5.88c1.408.15 2.81.487 4.172 1.01 1.812.675 3.266 1.574 4.374 2.66.823.824 1.69 1.91 2.59 3.333.77 1.236 1.37 2.47 1.828 3.67m0 14.117c.595-1.685.872-3.557.872-5.617v-2.808c0-1.985-.222-3.707-.666-5.13-.072-.188-.132-.375-.207-.562v14.117zm17.877-24.865v7.752l-4.7 11.496h4.7v5.805h-7.03l-1.407 3.557h1.408c1.412 0 2.408.262 3.003.824.6.523.898 1.235.898 2.096 0 .86-.3 1.573-.9 2.097-.594.562-1.59.824-3.002.824h-7.83c-1.408 0-2.4-.262-2.992-.824l-.03-.037v-4.157l.066-.038c.618-.562 1.65-.824 3.082-.787l9.152-22.768H219.1c-1.405 0-2.412-.262-2.996-.824-.596-.524-.888-1.235-.888-2.097 0-.86.294-1.572.888-2.134.584-.524 1.59-.787 2.995-.787h9.38zm0 25.053v-5.805h4.707L228.5 117.66v.037-7.752h3.213l11.57 28.61c1.368 0 2.274.15 2.72.487.853.6 1.292 1.423 1.292 2.434 0 .86-.29 1.573-.892 2.097-.58.562-1.576.824-2.977.824h-7.834c-1.4 0-2.39-.262-3-.824-.587-.524-.88-1.236-.88-2.097 0-.86.294-1.573.88-2.097.61-.563 1.6-.825 3-.825h1.427l-1.402-3.557H228.5zm38.335-24.978v5.88c-.6-.075-1.228-.113-1.9-.113h-6.13v22.768h6.187c.66 0 1.27-.037 1.843-.075v5.842c-.6.038-1.228.075-1.87.075h-11.705c-1.397 0-2.39-.262-2.992-.824-.592-.524-.895-1.236-.895-2.097 0-.86.303-1.573.895-2.134.603-.525 1.506-.787 2.7-.787v-22.768c-1.217 0-2.127-.3-2.715-.86-.588-.525-.88-1.2-.88-2.06 0-.862.303-1.573.895-2.135.603-.524 1.595-.787 2.992-.787h12.185c.473 0 .925.038 1.39.075m13.283 29.734c-.375.45-.555 1.048-.555 1.722 0 .674.18 1.236.555 1.723v-3.446zm0-18.088v12.096c-.186.71-.413 1.348-.693 1.985-.828 1.872-1.937 3.445-3.288 4.643-1.348 1.198-2.622 2.097-3.816 2.66-1.483.71-3.318 1.122-5.486 1.272v-5.842c1.404-.15 2.54-.45 3.38-.898 1.544-.9 2.698-1.985 3.465-3.333.79-1.35 1.165-3.072 1.165-5.244v-2.734c0-1.834-.345-3.445-1.045-4.83-1.1-2.172-2.34-3.633-3.696-4.456-.933-.562-2.027-.9-3.27-1.086v-5.88c1.404.15 2.793.487 4.175 1.01 1.79.675 3.258 1.574 4.36 2.66.834.824 1.68 1.91 2.598 3.333.88 1.423 1.565 2.846 2.014 4.232.045.15.09.262.135.41m0 12.097c.378-1.386.55-2.92.55-4.57v-2.807c0-1.798-.173-3.408-.55-4.72v12.097zm18.2-23.817v7.752l-4.697 11.496h4.696v5.805h-7.023l-1.408 3.557h1.407c1.39 0 2.404.262 2.995.824.592.523.895 1.235.895 2.096 0 .86-.303 1.573-.895 2.097-.59.562-1.606.824-2.995.824h-7.834c-1.405 0-2.405-.262-2.99-.824-.143-.112-.254-.262-.35-.374v-3.446c.104-.15.24-.3.38-.412.623-.562 1.66-.824 3.094-.787l9.152-22.768h-3.802c-1.404 0-2.415-.262-3.007-.824-.594-.524-.886-1.235-.886-2.097 0-.86.294-1.572.887-2.134.593-.524 1.604-.787 3.008-.787h9.373zm31.515 11.01v17.6h2.105c1.39 0 2.393.262 2.98.824.596.523.903 1.235.903 2.096 0 .86-.307 1.573-.902 2.097-.588.562-1.592.824-2.98.824h-7.644c-1.417 0-2.405-.262-3.008-.824-.58-.524-.892-1.236-.892-2.097 0-.86.288-1.535.884-2.097.588-.563 1.494-.825 2.726-.825v-22.768h-.91c-1.393 0-2.39-.262-3-.824-.602-.524-.89-1.235-.89-2.097 0-.86.287-1.572.89-2.134.61-.524 1.607-.787 3-.787h6.737l14.878 23.368v-17.526h-2.112c-1.397 0-2.386-.262-2.988-.824-.592-.524-.895-1.235-.895-2.097 0-.86.303-1.572.895-2.134.602-.524 1.59-.787 2.988-.787h7.647c1.408 0 2.404.3 2.988.824.614.524.91 1.235.91 2.096 0 .862-.296 1.536-.89 2.097-.59.525-1.488.824-2.686.824v28.61h-5.775l-14.96-23.442zM298.3 134.998v-5.805h4.71l-4.697-11.533v.037-7.752h3.198l11.58 28.61c1.366 0 2.284.15 2.71.487.87.6 1.304 1.423 1.304 2.434 0 .86-.29 1.573-.89 2.097-.585.562-1.57.824-2.97.824h-7.84c-1.4 0-2.39-.262-2.994-.824-.6-.524-.9-1.236-.9-2.097 0-.86.3-1.573.9-2.097.603-.563 1.595-.825 2.995-.825h1.42l-1.397-3.557h-7.115zm73.728-25.914v5.842c-2.72 0-5.15 1.16-7.273 3.483-2.145 2.32-3.213 5.24-3.213 8.76 0 3.52 1.068 6.442 3.213 8.764 2.124 2.322 4.554 3.482 7.273 3.482v5.842c-3.89 0-7.377-1.46-10.508-4.306-3.872-3.558-5.808-8.126-5.808-13.78 0-5.618 1.936-10.224 5.808-13.78 3.13-2.885 6.617-4.308 10.508-4.308zm0 36.174v-5.842c2.726 0 5.15-1.16 7.294-3.445 2.124-2.32 3.2-5.24 3.2-8.8 0-3.556-1.076-6.477-3.2-8.76-2.145-2.323-4.568-3.484-7.294-3.484v-5.842c4.314 0 8.11 1.723 11.39 5.168 3.29 3.445 4.922 7.714 4.922 12.92 0 5.167-1.633 9.473-4.92 12.92-3.28 3.444-7.078 5.13-11.392 5.166" fill="#00aeef"/><path d="M41.567 226.22v4.268c-1.704-1.048-3.82-1.685-6.243-1.685h-1.348c-11.44 0-29.898 14.155-29.898 24.453v2.697c0 2.77 4.003 4.08 6.785 4.08 12.235 0 19.465-8.162 24.43-15.614l-.804-4.045.508.524 6.57-4.907v18.986c-3.47 3.407-4.82 6.402-1.48 6.402h1.48v4.756h-2.84c-2.902 0-4.752-4.194-4.752-7.452v-2.06c-4.27 1.012-16.8 20.035-17.67 23.78-2.36-.186-3.394-1.05-3.394-3.408 0-.71 7.257-12.92 8.145-14.23-3.292.264-4.262 1.348-8.145 1.348h-2.05C5.337 264.116 0 259.96 0 254.606v-2.735c0-11.533 20.072-27.148 32.61-27.148H36c1.573 0 3.58.6 5.565 1.497m0-50.63v5.768c-5.595 3.594-12.167 7.34-15.567 7.6-.967.076-3.506-1.384-3.633-3.144-.08-1.31 4.41-.974 7.325-2.547 2.033-1.123 4.583-2.62 6.508-3.932 1.43-.936 3.374-2.32 5.367-3.744m0 90.548v-4.756h1.917c12.26 0 14.54-9.4 19.016-9.51v-4.045c0-1.31-1.206-2.734-2.034-2.734-5.954 0-14.293 5.317-18.9 9.886v-18.987l3.277-2.434c-.797-1.162-1.895-2.248-3.276-3.072v-4.27c4.062 1.874 8.028 5.17 8.028 8.053v1.31c0 2.697-3.913 3.82-4.913 5.32-.438.635-1.958 5.653-2.56 6.927 5.02-1.35 8.36-7.49 16.98-7.49h.683c2.516 0 6.107 5.243 6.107 8.164v8.127H63.19l-2.215 4.68c4.764 2.285 9.23-1.872 9.677 3.483l.08.75-10.893 1.16-2.386-3.707c-4.052-.15-7.86 3.108-15.89 3.145m66.706-19.435v7.415c-.48.674-.8 1.31-.932 1.835h.932v6.852c-2.535.75-5.295 1.31-8.4 1.31h-4.76c-4.05 0-5.433-2.733-5.433-6.777v-4.756c-6.793.15-13.005 9.512-15.623 9.512H72.01c-.168-7.864 1.483-6.03 4.883-12.096 2.696-4.83 3.19-8.612 5.31-13.03l3.65 3.144-2.96 9.063c2.916-.674 3.71-2.023 7.466-2.023.658 0 3.395 2.584 3.395 4.045v8.163c1.525.337 1.554.674 3.393.674h5.434v-4.755c0-2.548 2.404-5.693 5.688-8.577m0-38.758v4.232c-.75.185-1.513.3-2.266.337l-1.355.114c-5.21.374-5.854-4.457-8.607-6.217-2.643 2.06-7.452 5.993-11.814 6.292l-1.364.114c-4.696.337-8.557-5.467-8.894-10.26l-.147-2.022c-4.22 1.423-11.215 17.787-16.417 18.162l-.677.074c-1.576.11-3.516-1.572-3.632-3.145l-.144-2.06c-.382-5.392 16.447-46.472 19.372-53.1-2.037.71-19.17 12.844-22.22 15.054-1.66 1.234-4.888 3.52-8.543 5.84v-5.766c2.595-1.835 5.26-3.67 6.984-4.606 3.887-2.06 23.61-16.627 24.7-16.702.89-.075 3.457.786 4.168 1.05.345 7.226-8.703 22.28-10.732 28.833-2.95 9.51-8.085 19.21-9.666 29.133 9.77-6.104 21.88-30.557 26.97-42.09 1.513.86 3.5 1.235 3.632 3.145.107 1.573-6.273 13.855-7.366 16.514-1.352 3.22-4.61 18.387 1.647 17.937 13.647-1.012 14.576-14.867 21.058-19.885l3.47 1.91c-.03 6.778-6.616 11.234-6.42 13.93.122 1.76 1.75 3.97 3.673 3.857l1.356-.11c1.352-.115 2.352-.3 3.232-.562m0-28.273c-2.81.11-1.84-2.884-6.18-2.958.41 4.342 2.52 6.776 6.18 7.376v-4.42zm-3.902-9.25l2.13 1.236c.58-.45 1.154-.973 1.772-1.535v-4.83c-1.756 1.572-3.232 3.63-3.902 5.13m3.902 41.753v-4.23c1.906-.525 3.18-1.274 6.16-1.498-.042 3.07-2.947 4.98-6.16 5.73m17.32 26.774v24.378c-1.55-1.647-2.682-3.67-3.3-5.99-4.57 1.197-8.815 3.856-14.02 5.466v-6.853h1.112c6.812 0 14.938-3.782 14.938-10.186 0-4.68-12.43 3.26-16.05 8.352v-7.414c5.12-4.494 12.402-8.39 16.05-8.39.49 0 .913.262 1.27.638m0-48.082v14.754c-1.58-1.61-2.622-3.595-2.79-5.88l-.1-1.347c-.146-2.17 1.057-4.98 2.888-7.526m-17.32-20.746c1.607-1.423 3.457-2.96 6.07-3.108 2.832-.225 9.617 1.123 9.827 4.044l.09 1.348c.227 3.22-8.924 6.778-12.433 7.003l-3.393.263h-.16v4.42c.96.15 2.032.224 3.212.15 4.328-.338 10.52-1.873 14.105-4.682v-12.882c-2.396-2.546-6.01-4.12-9.508-3.894l-3.385.26c-1.475.075-3.037 1.01-4.426 2.247v4.83zm17.32 93.206v-24.378c.925 1.05 1.41 3.183 1.445 4.793 2.027.15 3.413.486 3.413 2.695v2.06c0 2.322-3.412 3.632-3.412 7.452v1.386c0 5.13 14.744 6.29 19.71 7.452v2.022c-2.43.6-3.187 1.385-6.115 1.385h-2.037c-5.562 0-10.055-1.76-13.002-4.868m35.34-24.64v4.793c-.23-.71-.368-1.423-.417-2.21-.046-.86.104-1.722.415-2.583m0-56.62v5.58c-5.3 3.894-11.624 11.196-11.455 13.593l.054.674c.2 2.884 7.036 1.012 11.402-.6v5.506c-.872.3-1.76.562-2.65.787-2.207.524-14.407 2.883-16.313 3.033l-2.022.15c-5.073.337-10.952-1.61-14.353-5.168v-14.754c2.805-3.97 7.09-7.49 10.347-7.715l4.733-.338c2.022-.15 6.36 3.183 6.535 5.655.138 1.947-3.936 5.055-6.448 5.243-1.296.075-1.21-.15-2.07-.525l6.043-4.793c-1.663-1.01-2.378-1.61-4.445-1.46l-1.356.075c-4.524.337-12.34 8.35-12.01 13.144.288 4.007 8.404 7.34 12.05 6.59l7.37-1.347c-.287-1.947-.816-2.21-.98-4.53-.42-5.918 8.11-15.017 15.57-18.8m-35.34-2.508c1.874-1.46 3.042-3.258 2.888-5.393l-.104-1.348c-.162-2.322-1.214-4.456-2.783-6.14v12.88zm74.548 49.58v5.13c-2.067.936-3.865 2.958-4.43 5.093 1.673-.9 3.348-1.872 4.43-3.333v5.393c-1.304.936-6.47 4.493-6.47 4.718 0 1.573 1.126 2.696 2.71 2.696h2.037c.462 0 1.053-.075 1.724-.26v4.343c-11.598 0-3.49-.224-11.23-5.43-4.01.937-12.782 3.408-16.99 3.408h-.675c-4.996 0-9.052-3.333-10.314-7.414v-4.795c1.303-3.82 5.412-7.414 7.76-9.36 4.433-3.71 26.044-13.745 26.33-.863-3.12-.824-1.713-2.022-4.076-2.022h-6.793c-3.823 0-19.02 11.31-19.02 16.29 0 1.91 2.375 3.407 4.757 3.407h.67c5.123 0 16.91-1.572 18.604-4.493 2.108-3.67.535-3.183 3.816-7.714.95-1.31 5.27-4.794 6.804-4.794h.356zm0-55.535v5.805c-.85.75-1.562 1.76-2.397 3.295-.805 1.46-4.774 7.602-4.696 8.65.14 1.985 3.723 4.906 5.176 5.73.637-.375 1.285-.86 1.918-1.386v7.04c-.91-.337-1.86-.6-2.974-.75-8.56-1.197-3.033-5.353-7.897-6.29-.307 1.91-3.726 10.448-6.048 10.635-1.367.113-1.947-2.66-2.337-3.933-3.523 2.023-7.28 2.285-9.582-.674-2.985 1.723-6.56 3.745-10.37 5.093v-5.505c1.468-.523 2.67-1.047 3.225-1.347 3.097-1.61 4.685-1.198 5.625-4.643.476-1.76 2.618-7.04 2.592-7.265-.114-1.61-2.05-3.258-3.63-3.146l-2.707.185c-1.295.11-3.123 1.086-5.104 2.547v-5.58c1.947-1.01 3.827-1.648 5.445-1.76 2.982-.186 5.543 1.76 7.24 3.37.947.9 3.692 6.628 3.748 7.415l.138 2.022c.276 3.893-1.66 3.07-2.273 6.29l2.033-.15c7.486-.524 14.578-20.07 22.877-25.65m28.82 59.653v4.943c-1.375 1.048-2.427 2.434-2.656 4.568-.516 4.42-1.12 9.474-5.463 9.474-7.213 0-.453-10.522.69-12.208-2.72-4.044-8.757-6.178-14.276-7.49 5.08 9.625 3.497 14.868-4.75 20.372h-2.365v-4.344c3.3-.823 8.474-3.445 8.474-5.84v-2.023c0-2.547-1.955-5.056-3.39-6.104-2.26 4.682-.46 3.37-4.878 6.666l-.208.15v-5.392c.438-.6.78-1.31.993-2.097-.334.074-.66.185-.993.337v-5.13h.315c1.524 0 1.494.56 2.722 1.385.16-1.91 0-2.735 2.047-2.735 9.632 0 13.613 5.205 19.013 8.838.666-.337 2.7-1.835 4.722-3.37m0-58.755v6.366c-4.973 3.932-9.388 11.01-11.08 14.83.782 1.01 1.04 1.946 2.856 1.834l1.36-.114c2.62-.186 4.88-.786 6.864-1.573v4.832c-5.984 2.06-13.017 3.333-19.986 3.82-4.26.3-6.41-.862-8.834-1.76v-7.04c3.955-3.37 7.538-9.288 7.097-15.58l-.055-.673c-.11-1.536-.64-1.46-1.55-2.622-2.704.824-4.255 1.423-5.494 2.584v-5.805c1.24-.823 2.506-1.31 3.805-1.423l.67-.04c5.034-.373 6.95 8.128 6.01 13.483-1.19 6.74-5.59 11.084-6.11 13.743l10.253.75-.423-6.218c-.34-4.755 8.612-15.316 14.615-19.397m0 63.698v-4.943c2.322-1.686 4.61-3.408 4.786-3.408 2.692 0 5.44 3.07 5.44 6.104v1.348l-.77 10.86-.252.71 6.827 3.296.304-.636v2.06c-2.887.786-1.176 1.348-3.39 1.348-9.54 0-7.47-11.347-7.47-19.66-1.827.936-3.883 1.722-5.474 2.92m36.398-66.206v5.392c-1.984.637-3.71 1.573-5.2 2.846-5.656 4.793-3.476 3.258-5.918 9.474.873 1.423 1.408 3.296 3.62 3.146l6.78-.487c.15 0 .393-.186.718-.45v10.785c-4.508 8.014-11.028 20.484-11.327 22.394-2.18.114-3.37.487-3.53-1.76l-.05-.674c-.292-4.12 10.505-20.147 12.53-24.753-9.877.71-17.502 1.347-23.995-2.36-2.68 2.097-6.126 3.782-10.025 5.13v-4.83c3.505-1.498 6.15-3.708 8.392-5.842l2.693-8.126c-.922-1.2-3.127-3.895-5.033-3.745-2.01.15-4.075 1.198-6.052 2.734v-6.365c1.438-.974 2.708-1.573 3.63-1.648 2.84-.186 4.653 1.535 6.19 3.146 3.62 3.82 2.747 1.797 5.054 3.707 4.108 3.408-.36 10.56-.925 13.518 2.46.375 3.283 1.124 6.182.936l2.044-.15-.344-4.755c-.592-8.427 6.486-15.73 14.567-17.264m12.9 56.845v14.53c-1.318-1.872-1.974-4.418-1.974-6.778 0-1.685.768-4.53 1.974-7.75m0-53.663v12.918c-2.34 4.906-4.59 3.895-8.763 7.827-.472.45-2.1 3.145-4.138 6.777v-10.784c2.75-2.397 10.885-13.37 11.143-14.68-2.932-.56-1.288-1.273-3.486-1.123l-1.36.11c-2.347.15-4.44.525-6.298 1.162v-5.393c.64-.114 1.254-.186 1.898-.225l4.066-.3c2.75-.186 5.27 1.385 6.936 3.707m0 12.92v-12.92c1.715 2.472 2.497 5.767 1.565 8.725-.543 1.798-1.06 3.146-1.565 4.195m32.676 38.87c-.85 2.247-1.367 4.793-1.367 7.602 0 1.085.54 2.92 1.366 4.38v-11.983zm0-24.978v8.5c-1.812 7.49-4.21 15.878-7.98 20.184-3.883 4.42-11.6 15.428-19.2 15.428h-.666c-2.097 0-3.722-1.123-4.83-2.733v-14.53c3.18-8.65 9.44-20.073 12.29-20.073 1.314 0 1.468 2.21 2.037 3.408-3.262 3.745-11.545 18.91-11.545 25.8v.638c0 1.573.476 2.06 2.048 2.06 6.816 0 14.55-11.047 17.646-15.616 4.82-7.077 6.31-15.13 8.163-23.068h2.036zm0-32.205v5.317c-1.786 3.97-6.613 10.11-6.557 11.047.158 2.246 3.587 3.145 6.556 3.37v4.418l-1.92.04c-6.258.45-6.932-4.98-9.187-4.794-.246 0-5.228 4.456-9.872 4.793l-.685.036c-2.655.186-3.63-3.108-3.82-5.88-.43-5.916 4.812-14.866 8.284-17.6 1.437.937 2.138 1.424 2.318 3.933.04.487-6.775 8.238-6.483 14.08 12.613-1.16 11.598-13.48 19.694-19.772.648.374 1.25.56 1.67 1.01m0 5.318c.442-.973.708-1.797.652-2.434l-.093-1.348c-.05-.75-.246-1.198-.558-1.535v5.317zm0 35.388v-8.5l1.367 2.696c-.416 1.797-.872 3.782-1.367 5.804m6.797 7.078v7.377c-1.816 2.247-3.4 5.355-3.4 8.276v2.697c1.333-.11 2.464-.6 3.4-1.386v6.517c-.63.186-1.307.3-2.048.3h-2.04c-1.005 0-1.964-1.05-2.71-2.397v-11.983c1.514-3.932 4.102-7.003 6.79-9.4zm0-43.364v8.126c-.363.86-.566 1.61-.532 2.21l.145 2.02.39-.038v6.404l-5.962 1.01h-.835v-4.418c.92.075 1.812.075 2.55.04l-.405-5.393c-.164-2.472 1.79-6.217 4.65-9.96m10.58 51.414v4.567l-3.797-.15c-.382 4.382-2.55 9.7-6.782 11.01v-6.516c2.273-1.91 3.393-5.39 3.393-8.8v-1.347c0-2.584.21-.264-.678-2.022-.854.563-1.806 1.46-2.716 2.585v-7.377l2.165 1.16 1.82-1.235 3.418 2.247c.045 4.343.39 5.58 3.175 5.88m0-41.718v5.168l-7.16 3.296-3.42.56v-6.402l4.36-.3c1.757-.114 3.958-1.01 6.22-2.322m0-20.146v5.88c-4.284 3.67-9.01 9.136-10.58 12.694v-8.126c2.99-3.932 6.96-7.864 10.58-10.448m13.133 58.98v5.504l-2.71.712 2.71 2.32v8.54c-.356.41-.83.86-1.985.86-3.092 0-2.317-6.89-4.07-10.185l-7.077-.3v-4.568c.79.074 1.775.113 3.004.113 3.65 0 7.085-1.46 10.13-2.996m0-52.614v7.977c-1.087 1.572-2.648 3.52-2.555 4.905l.195 2.696c.108 1.537 1.12 2.323 2.36 2.885v4.756c-3.28-1.16-5.626-2.17-6.43-7.34l-6.704 3.072v-5.168c5.55-3.295 11.354-9.1 11.122-12.545-.18-2.398-2.426-5.918-4.512-5.768-1.457.075-3.94 1.723-6.61 4.044v-5.88c2.374-1.684 4.595-2.807 6.273-2.92 3.272-.224 5.617 4.606 6.86 9.287m37.49 76.28v1.35c0 1.57.482 2.02 2.047 2.02h1.352c1.116 0 2.044-.41 2.044-1.347 0-1.46-2.727-4.082-3.397-4.082-1.565 0-2.048.487-2.048 2.06m.68-10.186C383.54 233.598 400 205.21 400 200.905v-2.022c0-1.835-.98-2.022-2.052-2.734-2.476 1.684-7.827 15.615-9.736 19.472-3.056 6.18-8.606 12.432-8.606 20.596m-38.17-58.118v-7.977c.577 2.135.918 4.232 1.03 5.805.042.524-.42 1.31-1.03 2.172m0 15.24v-4.755c2.067 1.01 4.756 1.348 4.898 3.408.075 1.086-1.745 1.685-2.557 2.21-.824-.3-1.61-.6-2.34-.862m0 46.473v-8.538l.493.412 2.214-4.157-2.708.712v-5.505c1.397-.674 2.708-1.386 3.924-1.947 6.044-2.846 5.973-5.88 9.722-8.613l3.55 3.22-12.905 18.836.514.524 18.353 1.835v2.023c-3.003.263-4.73 2.21-6.11 2.06l-14.995-1.686c-1.314-.375-1.58.224-2.052.823" fill="#00aeef" fill-rule="evenodd"/></svg>