<svg xmlns="http://www.w3.org/2000/svg" width="400" height="129.929"><defs><clipPath id="a"><path d="M303.847 94.145h4.502v-5.61h-4.503v5.61z"/></clipPath><clipPath id="b"><path d="M303.847 88.535h4.502v5.61h-4.503v-5.61z"/></clipPath><clipPath id="c"><path d="M302.84 96.862h6.548v-3.284h-6.547v3.284z"/></clipPath><clipPath id="d"><path d="M302.84 93.578h6.548v3.284h-6.547v-3.284z"/></clipPath><clipPath id="e"><path d="M305.36 97.416h1.064v-.592h-1.064v.592z"/></clipPath><clipPath id="f"><path d="M305.36 96.824h1.064v.592h-1.064v-.592z"/></clipPath><clipPath id="g"><path d="M304.657 92.818h2.43v-4.185h-2.43v4.185z"/></clipPath><clipPath id="h"><path d="M304.657 88.633h2.43v4.185h-2.43v-4.185z"/></clipPath><clipPath id="i"><path d="M301.623 88.15h8.197V74.637h-8.197v13.51z"/></clipPath><clipPath id="j"><path d="M301.623 74.638h8.197V88.15h-8.197V74.638z"/></clipPath><clipPath id="k"><path d="M302.176 88.694h7.54v-1.098h-7.54v1.098z"/></clipPath><clipPath id="l"><path d="M302.176 87.596h7.54v1.1h-7.54v-1.1z"/></clipPath></defs><path d="M218.058 16.775c0 1.866-.223 3.92-.673 6.135-.447 2.235-.875 3.342-1.29 3.342-.33 0-.493-.18-.493-.536 0-.11.033-.275.1-.49.824-2.515 1.236-5.23 1.236-8.14 0-4.53-1.236-8.172-3.716-10.922-2.478-2.75-5.74-4.128-9.803-4.128-5.48 0-11.118 1.98-16.924 5.917 4.944 4.314 7.422 9.21 7.422 14.672 0 4.605-1.708 8.607-5.117 12.024-3.406 3.422-7.392 5.127-11.964 5.127-1.797 0-3.712-.38-5.764-1.13-2.054-.758-3.078-1.466-3.078-2.137.062-.21.194-.318.396-.318.167 0 .434.108.805.307 2.058 1.187 4.134 1.782 6.23 1.782 3.79 0 7.04-1.764 9.748-5.278 2.707-3.52 4.064-7.72 4.064-12.61 0-4.2-1.414-7.95-4.228-11.262-7.17 5.825-13.983 16.08-20.412 30.752-3.902 8.885-7.468 15.292-10.707 19.207-3.234 3.915-7.774 7.464-13.62 10.626-6.906 3.668-13.068 5.504-18.486 5.504-4.425 0-8.112-1.112-11.05-3.32-2.938-2.21-4.406-4.972-4.406-8.28 0-1.835.496-3.416 1.508-4.744 1.007-1.33 2.206-2 3.59-2 2.02 0 3.027 1.22 3.027 3.656 0 1.223-.34 2.262-1.018 3.124-.676.86-1.51 1.29-2.5 1.29-1.717 0-2.547-.972-2.474-2.9.028-.797-.04-1.19-.204-1.19-.525 0-.797.96-.797 2.85 0 2.985 1.354 5.458 4.044 7.43 2.68 1.97 6.078 2.96 10.18 2.96 7.236 0 13.794-2.913 19.665-8.732 2.582-2.553 8.407-10.482 6.594-7.818-10.018 14.507-.315 1.142 12.99-20.915 3.328-5.463 7.254-10.943 11.786-16.443 4.525-5.49 8.368-9.43 11.546-11.8C179.108 3.526 171.54 1.1 161.57 1.1c-13.95 0-26.07 5.51-36.382 16.515-8.465 9.017-12.687 17.52-12.687 25.49 0 4.043 1.188 7.258 3.56 9.644 2.373 2.367 5.592 3.56 9.645 3.56 6.625 0 13.48-3.472 20.548-10.433 7.072-6.954 10.603-13.72 10.603-20.28 0-5.224-2.448-7.842-7.328-7.842-4.896 0-10.13 3.003-15.72 9.014-5.593 6-8.39 11.64-8.39 16.896 0 1.303.373 2.423 1.135 3.36.754.938 1.637 1.41 2.647 1.41.53 0 .8.163.8.486 0 .29-.312.434-.92.434-1.557 0-2.87-.784-3.933-2.35-1.07-1.57-1.602-3.49-1.602-5.762 0-5.615 2.814-11.09 8.437-16.422 5.632-5.332 11.403-7.996 17.325-7.996 5.653 0 8.488 2.86 8.488 8.586 0 6.975-3.614 14.023-10.842 21.16-7.223 7.112-14.35 10.68-21.37 10.68-4.59 0-8.25-1.508-11.006-4.508-2.755-3.02-4.13-7.03-4.13-12.076 0-10.18 5.277-19.484 15.834-27.892C136.847 4.368 148.524.166 161.308.166c9.72 0 17.882 2.36 24.496 7.08 6.044-4.09 11.893-6.145 17.535-6.145 4.433 0 7.993 1.448 10.684 4.313 2.682 2.87 4.036 6.655 4.036 11.362" fill="#00894b"/><path d="M114.698 52.628c-2.712-2.96-4.088-6.983-4.088-11.96 0-10.083 5.303-19.428 15.776-27.765 10.48-8.34 22.23-12.57 34.92-12.57 9.64 0 17.848 2.374 24.403 7.054l.088.065.097-.062c5.992-4.06 11.863-6.12 17.443-6.12 4.357 0 7.91 1.43 10.562 4.253 2.65 2.836 3.99 6.615 3.99 11.252 0 1.86-.225 3.91-.674 6.105-.6 3.052-1.045 3.208-1.12 3.208-.203 0-.332-.065-.332-.372l.094-.44c.824-2.522 1.247-5.277 1.247-8.19 0-4.555-1.263-8.27-3.757-11.035-2.504-2.773-5.84-4.186-9.93-4.186-5.47 0-11.2 2.003-17.014 5.95l-.178.12.156.14c4.89 4.274 7.37 9.162 7.37 14.55 0 4.533-1.7 8.543-5.064 11.91-3.364 3.37-7.352 5.08-11.852 5.08-1.748 0-3.668-.38-5.707-1.122-2.454-.902-2.966-1.58-2.966-1.982.043-.132.137-.15.226-.15l.724.285c2.07 1.2 4.196 1.804 6.31 1.804 3.825 0 7.148-1.795 9.88-5.347 2.72-3.536 4.097-7.81 4.097-12.708 0-4.223-1.434-8.042-4.264-11.37l-.105-.124-.126.103c-7.164 5.825-14.047 16.196-20.454 30.814-3.89 8.855-7.484 15.297-10.683 19.17-3.22 3.883-7.783 7.45-13.573 10.583-6.854 3.633-13.048 5.478-18.41 5.478-4.37 0-8.05-1.102-10.95-3.28-2.88-2.165-4.342-4.907-4.342-8.147 0-1.79.5-3.357 1.476-4.647.972-1.282 2.133-1.94 3.458-1.94 1.926 0 2.863 1.146 2.863 3.5 0 1.18-.332 2.194-.99 3.02-.64.814-1.432 1.232-2.364 1.232-.76 0-1.34-.208-1.716-.596-.428-.448-.63-1.17-.595-2.142.038-.92-.067-1.158-.175-1.268l-.043-.05-.15-.036c-.652 0-.96.956-.96 3.013 0 3.022 1.385 5.562 4.11 7.56 2.707 1.99 6.165 2.995 10.277 2.995 7.247 0 13.907-2.957 19.78-8.78 1.09-1.07 2.713-3.06 4.135-4.842-.112.17-.22.334-.325.482-.82 1.207-1.244 1.83-1.435 2.152-.086.12-.14.202-.156.22 0 0 .013.01.016.01-.03.066-.05.112-.05.136 0 .016.004.022.012.04l.043.087h.103c.008 0 .06-.06.102-.116l.043.03c.06-.096 1.28-1.917 4.13-6.04.273-.412.384-.563.384-.657 0-.024-.027-.033-.038-.054 3.357-5.18 8.092-12.664 12.646-20.215 3.315-5.435 7.28-10.97 11.77-16.425 4.5-5.462 8.368-9.418 11.52-11.774l.156-.12-.143-.136C179.215 3.4 171.532.934 161.57.934c-13.927 0-26.21 5.578-36.5 16.566-8.452 9.016-12.736 17.634-12.736 25.605 0 4.07 1.214 7.352 3.614 9.757 2.394 2.4 5.674 3.615 9.757 3.615 6.65 0 13.6-3.523 20.66-10.482 7.073-6.953 10.663-13.813 10.663-20.397 0-5.31-2.53-8.007-7.5-8.007-4.918 0-10.245 3.052-15.84 9.07-5.594 5.996-8.438 11.724-8.438 17.006 0 1.343.398 2.507 1.174 3.466.786.972 1.718 1.47 2.776 1.47.633 0 .633.232.633.32 0 .23-.47.267-.754.267-1.49 0-2.77-.768-3.795-2.28-1.048-1.537-1.573-3.44-1.573-5.666 0-5.545 2.82-11.022 8.383-16.298 5.575-5.276 11.363-7.955 17.212-7.955 5.602 0 8.322 2.756 8.322 8.422 0 6.89-3.63 13.97-10.793 21.04-7.16 7.054-14.31 10.63-21.253 10.63-4.514 0-8.17-1.494-10.886-4.454m11.48-39.987c-10.548 8.41-15.902 17.832-15.902 28.028 0 5.066 1.41 9.16 4.177 12.184 2.777 3.03 6.523 4.562 11.13 4.562 7.032 0 14.263-3.61 21.49-10.727 7.224-7.14 10.89-14.295 10.89-21.275 0-5.812-2.912-8.753-8.656-8.753-5.938 0-11.804 2.706-17.44 8.04-5.632 5.344-8.49 10.908-8.49 16.544 0 2.292.55 4.258 1.636 5.858 1.093 1.608 2.46 2.418 4.066 2.418.718 0 1.087-.202 1.087-.598 0-.3-.167-.65-.967-.65-.956 0-1.796-.454-2.515-1.353-.732-.898-1.1-1.99-1.1-3.254 0-5.195 2.807-10.843 8.344-16.784 5.53-5.943 10.78-8.954 15.598-8.954 4.818 0 7.16 2.507 7.16 7.67 0 6.49-3.554 13.27-10.554 20.16-7.004 6.894-13.874 10.39-20.43 10.39-3.993 0-7.195-1.188-9.525-3.52-2.333-2.34-3.515-5.54-3.515-9.523 0-7.885 4.255-16.427 12.64-25.382C135.536 6.805 147.74 1.27 161.572 1.27c9.788 0 17.334 2.398 22.43 7.116-3.136 2.386-6.968 6.305-11.406 11.7-4.508 5.463-8.478 11.006-11.81 16.462-5.216 8.655-9.964 16.094-13.13 20.957-.178.23-.402.507-.717.905-1.565 1.996-4.188 5.338-5.7 6.832-5.818 5.764-12.4 8.688-19.553 8.688-4.045 0-7.43-.983-10.083-2.93-2.635-1.93-3.97-4.384-3.97-7.293 0-2.415.438-2.68.626-2.68-.008 0-.008 0-.008.006 0 .035.05.183.05.663 0 .09 0 .21-.004.34-.005.074-.008.147-.008.223 0 .955.237 1.68.695 2.16.445.456 1.102.693 1.956.693 1.037 0 1.92-.455 2.628-1.352.7-.885 1.056-1.973 1.056-3.228 0-2.537-1.072-3.824-3.194-3.824-1.433 0-2.682.692-3.72 2.066-1.025 1.35-1.542 2.978-1.542 4.847 0 3.357 1.503 6.182 4.468 8.412 2.957 2.227 6.708 3.353 11.152 3.353 5.415 0 11.658-1.86 18.563-5.52 5.83-3.16 10.433-6.745 13.675-10.67 3.22-3.89 6.83-10.37 10.73-19.24 6.347-14.487 13.155-24.766 20.233-30.567 2.704 3.224 4.085 6.927 4.085 11.007 0 4.82-1.357 9.03-4.03 12.506-2.665 3.462-5.9 5.218-9.616 5.218-2.054 0-4.12-.595-6.148-1.76-.003 0-.886-.33-.886-.33-.272 0-.466.148-.555.434-.005.807 1.005 1.537 3.183 2.348 2.07.75 4.03 1.14 5.818 1.14 4.594 0 8.655-1.746 12.083-5.174 3.428-3.44 5.167-7.525 5.167-12.15 0-5.42-2.48-10.343-7.327-14.646 5.706-3.822 11.31-5.777 16.66-5.777 3.987 0 7.246 1.365 9.68 4.072 2.435 2.706 3.668 6.337 3.668 10.81 0 2.88-.412 5.596-1.225 8.084-.005.005-.11.546-.11.546 0 .447.237.703.662.703.353 0 .843-.397 1.446-3.472.457-2.22.683-4.298.683-6.173 0-4.72-1.37-8.577-4.08-11.478-2.718-2.892-6.35-4.363-10.805-4.363-5.618 0-11.518 2.07-17.535 6.125C179.208 2.374 170.973 0 161.307 0c-12.77 0-24.588 4.255-35.128 12.64M176.07 72.667c7.248 0 15.05-13.96 15.05-21.35 0-2.082-.95-3.73-2.94-3.73-5.75 0-14.848 12.99-14.848 20.91 0 2.608.96 4.17 2.74 4.17m31.68-18.585c-2.19 2.69-5.133 4.406-7.726 4.406-2.54 0-4.455-1.422-5.41-3.137h-.144c-1.91 7.54-10.395 18.217-18.88 18.217-3.903 0-5.96-2.76-5.96-6.87 0-6.717 9.592-20.002 19.163-20.002 3.695 0 5.82 2.615 6.02 6.418.142 2.316 2.057 4.63 5.14 4.63 2.73 0 5.196-1.646 7.25-4.035l.547.374z" fill="#00894b"/><path d="M169.804 66.697c0-6.938 9.765-19.837 18.99-19.837 3.46 0 5.646 2.34 5.856 6.26.135 2.32 2.044 4.787 5.306 4.787 2.485 0 5-1.387 7.265-3.984.096.065.163.105.28.184-2.174 2.596-5.013 4.217-7.474 4.217-2.236 0-4.2-1.14-5.265-3.054l-.048-.09h-.37l-.03.13c-1.824 7.204-10.22 18.09-18.72 18.09-3.626 0-5.788-2.507-5.788-6.703m-.33 0c0 4.408 2.285 7.037 6.117 7.037 8.565 0 17.003-10.813 18.97-18.11 1.127 1.865 3.155 3.03 5.466 3.03 2.593 0 5.612-1.71 7.858-4.472l.113-.132-.82-.56-.096.113c-2.24 2.596-4.698 3.967-7.124 3.967-3.057 0-4.848-2.3-4.972-4.47-.215-4.056-2.58-6.574-6.19-6.574-9.395 0-19.32 13.12-19.32 20.17" fill="#00894b"/><path d="M173.496 68.498c0-3.65 2.01-8.755 5.238-13.33 3.232-4.576 6.85-7.417 9.447-7.417.893 0 1.596.343 2.083 1.014.455.63.687 1.513.687 2.553 0 7.37-7.883 21.186-14.88 21.186-1.637 0-2.574-1.46-2.574-4.005m4.97-13.522c-3.27 4.622-5.3 9.81-5.3 13.522 0 2.758 1.06 4.342 2.905 4.342 7.39 0 15.22-13.996 15.22-21.523 0-1.11-.262-2.06-.758-2.745-.546-.754-1.362-1.152-2.35-1.152-2.702 0-6.424 2.897-9.717 7.556M214.396 47.285l-8.693 13.818.134.146c2.604-3.44 8.14-9.255 13.064-12.912.486-.975.764-1.643 2.4-1.643.96 0 1.716.07 2.538.148-1.578 1.71-3.356 4.177-3.356 7.09 0 2.312 1.234 3.658 2.74 3.658 2.733 0 5.334-2.69 7.047-4.33l.408.3c-1.92 1.942-4.723 4.928-8.076 4.928-2.938 0-4.856-2.092-4.856-5.52 0-1.124.275-2.322.75-3.216l-.144-.148c-3.69 2.763-8.276 7.387-13.266 13.506-1.786 2.17-3.967 6.054-5.408 9.86h-4.45c4.86-8.506 9.785-17.02 14.994-25.685h4.174z" fill="#00894b"/><path d="M205.972 61.346c2.717-3.596 8.34-9.394 13.032-12.88l.027-.018.07-.132c.448-.904.714-1.456 2.2-1.456 0 0 1.93.113 2.206.126-2.13 2.394-3.188 4.667-3.188 6.948 0 2.25 1.19 3.824 2.903 3.824 2.64 0 5.174-2.45 6.852-4.074 0 0 .12-.116.21-.208.06.044.073.057.146.105-.05.05-.097.093-.097.093-1.927 1.97-4.572 4.65-7.728 4.65-2.893 0-4.692-2.054-4.692-5.356 0-1.104.275-2.275.727-3.14l.06-.102-.318-.345-.125.09c-3.79 2.84-8.392 7.515-13.298 13.535-1.853 2.25-4.01 6.177-5.387 9.794h-4.055c5.77-10.097 10.35-17.937 14.795-25.343h3.784c-.31.485-8.604 13.665-8.604 13.665l.363.382.12-.158zM218.8 48.17c-4.477 3.357-9.44 8.433-12.325 12.007 1.094-1.74 8.22-13.056 8.22-13.056h-4.573l-.05.084c-4.504 7.495-9.128 15.42-14.986 25.68l-.145.246h4.85l.042-.102c1.368-3.617 3.53-7.57 5.375-9.813 4.823-5.904 9.33-10.49 13.06-13.33-.42.885-.69 2.003-.69 3.082 0 3.453 1.97 5.688 5.025 5.688 3.29 0 5.994-2.744 7.96-4.745l.37-.37-.677-.494-.417.395c-1.737 1.687-4.11 3.987-6.617 3.987-1.512 0-2.565-1.435-2.565-3.493 0-2.275 1.077-4.554 3.3-6.978l.233-.25-.488-.043-2.4-.137c-1.69 0-2.046.727-2.5 1.645" fill="#00894b"/><path d="M242.24 38.63l-5.408 8.655h9.04l-.414.9h-9.167c-7.325 12.986-11.5 18.364-11.5 21.956 0 1.862 1.372 2.527 2.945 2.527 6.57 0 16.562-12.388 21.485-19.48l.415.303c-6.16 8.585-15.19 20.077-22.377 20.077-2.812 0-5.203-2.015-5.203-5.376 0-4.625 5.13-11.2 10.2-20.005h-3.7l.41-.9h3.833l5.34-8.655h4.102z" fill="#00894b"/><path d="M241.946 38.796l-5.416 8.66h9.08c-.1.214-.21.457-.255.564h-9.164l-5.92 10.142c-3.642 6.092-5.646 9.453-5.646 11.98 0 1.71 1.134 2.698 3.11 2.698 7.56 0 19.07-15.9 21.526-19.417.06.04.08.053.143.102C243.24 62.097 234.29 73.4 227.258 73.4c-2.505 0-5.036-1.79-5.036-5.21 0-3.327 2.72-7.717 6.156-13.265l4.172-6.905h-3.738c.1-.218.202-.452.258-.563h3.822s5.243-8.502 5.335-8.66h3.72zm-3.9-.336s-5.246 8.505-5.343 8.66h-3.845l-.558 1.237h3.657c-.28.455-3.862 6.388-3.862 6.388-3.466 5.6-6.212 10.015-6.212 13.446 0 3.64 2.71 5.544 5.375 5.544 7.22 0 16.31-11.5 22.51-20.153l.098-.13-.684-.493-.097.134c-2.256 3.244-13.864 19.413-21.35 19.413-1.04 0-2.785-.31-2.785-2.362 0-2.433 1.998-5.765 5.607-11.805 0 0 5.728-9.822 5.828-9.978h9.183l.566-1.236h-9l5.404-8.66h-4.492z" fill="#00894b"/><path d="M248.267 72.667c7.25 0 15.057-13.96 15.057-21.35 0-2.082-.96-3.73-2.944-3.73-5.75 0-14.85 12.99-14.85 20.91 0 2.608.957 4.17 2.737 4.17m31.684-18.585c-2.19 2.69-5.132 4.406-7.737 4.406-2.523 0-4.448-1.422-5.407-3.137h-.124c-1.923 7.54-10.414 18.217-18.89 18.217-3.907 0-5.962-2.76-5.962-6.87 0-6.717 9.585-20.002 19.16-20.002 3.702 0 5.816 2.615 6.023 6.418.138 2.316 2.052 4.63 5.14 4.63 2.73 0 5.202-1.646 7.25-4.035l.548.374z" fill="#00894b"/><path d="M242.003 66.697c0-6.938 9.757-19.837 18.988-19.837 3.457 0 5.646 2.34 5.854 6.26.142 2.32 2.046 4.787 5.308 4.787 2.496 0 5.006-1.385 7.268-3.984.092.065.164.105.27.184-2.163 2.596-5.01 4.217-7.476 4.217-2.626 0-4.436-1.58-5.257-3.054l-.05-.09h-.36l-.03.13c-1.83 7.204-10.238 18.09-18.724 18.09-3.63 0-5.79-2.507-5.79-6.703m-.337 0c0 4.408 2.29 7.037 6.127 7.037 8.685 0 16.953-10.643 18.967-18.11.88 1.448 2.75 3.03 5.454 3.03 2.604 0 5.623-1.71 7.863-4.472l.11-.132-.815-.56-.1.113c-2.222 2.596-4.686 3.967-7.12 3.967-3.052 0-4.843-2.3-4.977-4.47-.213-4.056-2.58-6.574-6.184-6.574-9.39 0-19.324 13.12-19.324 20.17" fill="#00894b"/><path d="M245.697 68.498c0-7.95 9.057-20.747 14.683-20.747.89 0 1.59.343 2.076 1.014.46.63.7 1.513.7 2.553 0 7.37-7.887 21.186-14.89 21.186-1.634 0-2.57-1.46-2.57-4.005m-.33 0c0 2.758 1.053 4.342 2.9 4.342 7.393 0 15.225-13.996 15.225-21.523 0-1.11-.27-2.06-.76-2.745-.546-.754-1.362-1.152-2.35-1.152-5.758 0-15.014 13.002-15.014 21.078" fill="#00894b"/><path d="M276.323 48.184v-.9h5.273c7.045-12.382 14.98-26.273 24.836-26.273 2.876 0 4.925 1.345 4.925 4.103 0 2.39-1.502 4.107-3.622 4.26.342-1.343.612-2.547.612-4.185 0-1.94-.825-3.285-2.874-3.285-6.843 0-14.163 15.086-19.983 25.382h15.472v.9h-15.884C267.563 80.807 258.6 94.32 243.126 94.32c-5.403 0-10.466-3.062-10.466-8.952 0-3.884 2.052-7.026 7.323-7.026h.62v.606c-2.74.145-4.926 2.388-4.926 6.037 0 5.155 2.728 8.44 7.79 8.44 14.79 0 24.982-23.367 37.717-45.24h-4.86z" fill="#00894b"/><path d="M281.693 47.457l.046-.086c6.98-12.277 14.9-26.192 24.692-26.192 3.024 0 4.76 1.438 4.76 3.935 0 2.168-1.33 3.773-3.233 4.03.31-1.272.56-2.414.56-3.955 0-2.224-1.09-3.447-3.047-3.447-6.073 0-12.334 11.355-17.852 21.37l-2.412 4.347h15.587v.563H284.98l-.044.084c-17.198 32.02-26.352 46.054-41.81 46.054-4.953 0-10.3-2.752-10.3-8.79 0-2.56.93-6.86 7.157-6.86h.447v.313c-2.94.243-4.923 2.68-4.923 6.165 0 5.392 2.973 8.61 7.96 8.61 12.51 0 21.497-16.118 31.89-34.773l6.11-10.802h-4.977v-.563h5.203zm-.194-.336h-5.34v1.237h4.736c-.27.468-5.825 10.298-5.825 10.298-9.92 17.8-19.284 34.606-31.602 34.606-4.848 0-7.63-3.012-7.63-8.275 0-3.36 1.92-5.722 4.778-5.876l.15-.006v-.927h-.783c-4.756 0-7.487 2.63-7.487 7.19 0 6.27 5.51 9.125 10.63 9.125 15.628 0 24.827-14.063 42.06-46.135h15.94V47.12h-15.358c.242-.438 2.14-3.85 2.14-3.85 5.206-9.442 11.686-21.198 17.565-21.198 2.24 0 2.715 1.694 2.715 3.116 0 1.61-.264 2.777-.612 4.14l-.056.226.23-.016c2.22-.154 3.774-1.974 3.774-4.425 0-2.67-1.904-4.266-5.092-4.266-9.967 0-17.917 13.94-24.933 26.274" fill="#00894b"/><path d="M308.627 35.866c0 1.422-.892 2.467-2.195 2.467-1.304 0-2.192-1.045-2.192-2.467 0-1.343.964-2.464 2.192-2.464 1.228 0 2.195 1.12 2.195 2.464m-6.17 11.42c-9.99 15.762-13.614 20.835-13.614 23.442 0 1.274.412 1.94 1.438 1.94 5.47 0 17.105-14.18 19.71-19.407l.546.378c-3.286 6.043-14.23 19.93-20.8 19.93-2.463 0-3.63-1.795-3.63-3.58 0-4.263 3.357-8.516 11.983-22.703h4.367z" fill="#00894b"/><path d="M302.16 47.457c-.312.472-4.726 7.4-4.726 7.4-6.377 9.965-8.758 13.695-8.758 15.87 0 1.42.528 2.113 1.605 2.113 5.49 0 16.962-13.886 19.763-19.334.11.07.178.12.275.178-3.307 6.003-14.115 19.716-20.583 19.716-2.397 0-3.466-1.713-3.466-3.412 0-3.315 2.1-6.687 7.17-14.845 0 0 4.643-7.532 4.74-7.686h3.98zm-4.168-.336l-4.837 7.846c-5.1 8.22-7.215 11.612-7.215 15.022 0 1.807 1.185 3.746 3.795 3.746 6.646 0 17.693-14.028 20.946-20.015l.07-.133-.828-.568-.084.16c-2.69 5.413-14.337 19.323-19.557 19.323-.882 0-1.267-.55-1.267-1.775 0-2.076 2.367-5.787 8.704-15.698l5.047-7.91h-4.772zM304.407 35.866c0-1.27.91-2.294 2.025-2.294 1.115 0 2.025 1.023 2.025 2.294 0 1.355-.835 2.3-2.025 2.3-1.188 0-2.025-.945-2.025-2.3m-.332 0c0 1.525.99 2.632 2.357 2.632 1.362 0 2.353-1.107 2.353-2.632 0-1.448-1.053-2.625-2.353-2.625-1.3 0-2.357 1.178-2.357 2.626" fill="#00894b"/><path d="M316.835 47.285l-9.038 13.665.137.153c3.835-5.006 10.477-14.408 16.698-14.408 2.738 0 4.31 1.858 4.31 4.403 0 4.853-10.53 15.68-10.53 19.485 0 1.346.607 2.084 1.913 2.084 2.868 0 6.017-2.01 10.538-7.01 3.555-3.956 7.937-9.935 9.51-12.762l.48.29c-1.78 2.987-4.86 7.468-8.215 11.425-4.107 4.847-8.413 8.957-12.388 8.957-2.666 0-4.578-1.71-4.578-4.47 0-5.91 10.532-14.788 10.532-19.71 0-1.203-.818-1.8-1.98-1.8-6.848 0-19.37 18.44-22.45 25.382h-4.243c4.792-8.66 11.083-18.586 14.85-25.46l4.455-.225z" fill="#00894b"/><path d="M308.963 60.02c3.98-5.243 9.986-13.16 15.67-13.16 2.517 0 4.14 1.66 4.14 4.238 0 2.524-2.903 6.695-5.717 10.732-2.475 3.55-4.815 6.908-4.815 8.753 0 1.47.723 2.257 2.085 2.257 2.992 0 6.184-2.123 10.66-7.07 3.662-4.07 7.858-9.864 9.447-12.65.083.055.11.07.19.122-1.7 2.825-4.685 7.22-8.11 11.263-3.51 4.14-8.074 8.895-12.262 8.895-2.637 0-4.417-1.726-4.417-4.304 0-3.038 2.847-6.886 5.6-10.616 2.54-3.444 4.94-6.692 4.94-9.094 0-.622-.215-1.13-.613-1.474-.374-.32-.9-.492-1.535-.492-6.76 0-19.23 17.97-22.557 25.38h-3.85c2.45-4.4 5.234-9.068 7.932-13.6 2.532-4.23 4.918-8.223 6.733-11.53.167-.01 3.474-.172 4.026-.2l-8.918 13.493.353.4 1.018-1.342zm.076-.64c1.695-2.572 8.11-12.275 8.11-12.275l-4.866.242-.043.083c-1.823 3.313-4.227 7.342-6.767 11.602-2.758 4.608-5.604 9.375-8.085 13.853l-.137.245h4.63l.046-.096c3.24-7.296 15.642-25.283 22.3-25.283.548 0 1.01.14 1.318.41.33.28.5.692.5 1.226 0 2.294-2.377 5.502-4.88 8.898-2.786 3.77-5.662 7.664-5.662 10.812 0 2.77 1.912 4.638 4.748 4.638 4.333 0 8.96-4.824 12.515-9.017 3.493-4.117 6.536-8.607 8.23-11.44l.08-.143-.76-.474-.082.15c-1.517 2.716-5.788 8.614-9.494 12.734-4.41 4.88-7.522 6.96-10.415 6.96-1.185 0-1.753-.63-1.753-1.92 0-1.74 2.31-5.056 4.756-8.573 2.844-4.074 5.78-8.286 5.78-10.912 0-2.773-1.76-4.572-4.476-4.572-5.694 0-11.578 7.567-15.593 12.854" fill="#00894b"/><path d="M339.414 72.667c7.252 0 15.05-13.96 15.05-21.35 0-2.082-.95-3.73-2.942-3.73-5.74 0-14.842 12.99-14.842 20.91 0 2.608.954 4.17 2.734 4.17m31.684-18.585c-2.19 2.69-5.13 4.406-7.735 4.406-2.528 0-4.446-1.422-5.4-3.137h-.14c-1.914 7.54-10.403 18.217-18.88 18.217-3.916 0-5.958-2.76-5.958-6.87 0-6.717 9.577-20.002 19.162-20.002 3.695 0 5.817 2.615 6.02 6.418.136 2.316 2.054 4.63 5.134 4.63 2.738 0 5.2-1.646 7.254-4.035l.544.374z" fill="#00894b"/><path d="M333.144 66.697c0-6.938 9.77-19.837 19.003-19.837 3.455 0 5.644 2.34 5.857 6.26.135 2.32 2.036 4.787 5.297 4.787 2.525 0 4.967-1.352 7.278-3.984.084.065.154.105.264.184-2.168 2.596-5.017 4.217-7.48 4.217-2.226 0-4.192-1.14-5.256-3.054l-.045-.09h-.363l-.035.13c-1.83 7.204-10.228 18.09-18.72 18.09-3.63 0-5.798-2.507-5.798-6.703m-.328 0c0 4.408 2.292 7.037 6.127 7.037 8.56 0 16.993-10.808 18.96-18.11.888 1.448 2.762 3.03 5.46 3.03 2.605 0 5.62-1.71 7.867-4.472l.113-.132-.82-.56-.096.113c-2.265 2.637-4.664 3.967-7.126 3.967-3.055 0-4.838-2.3-4.967-4.47-.218-4.056-2.588-6.574-6.186-6.574-9.39 0-19.33 13.12-19.33 20.17" fill="#00894b"/><path d="M336.84 68.498c0-7.95 9.06-20.747 14.682-20.747.897 0 1.594.343 2.087 1.014.45.63.694 1.513.694 2.553 0 7.37-7.89 21.186-14.89 21.186-1.632 0-2.575-1.46-2.575-4.005m-.332 0c0 2.758 1.064 4.342 2.906 4.342 7.392 0 15.218-13.996 15.218-21.523 0-1.11-.258-2.06-.75-2.745-.558-.754-1.364-1.152-2.36-1.152-5.75 0-15.014 13.002-15.014 21.078" fill="#00894b"/><path d="M241.978 107.88l.148.352c22.245-9.954 38.1-3.54 54.88 3.253 7.807 3.165 15.876 6.43 25.01 8.308 11.357 2.492 20.476-.514 30.136-3.705 5.24-1.726 10.654-3.515 16.576-4.42 4.234-.53 8.84-.177 13.298.165 6.232.487 12.68.983 17.974-1.032l-.137-.36c-5.21 1.996-11.33 1.52-17.807 1.013-4.476-.342-9.1-.697-13.382-.162-5.954.914-11.386 2.705-16.64 4.437-9.604 3.172-18.68 6.167-29.94 3.703-9.107-1.877-17.16-5.14-24.945-8.292-16.857-6.827-32.787-13.277-55.172-3.26" fill="#00a480"/><path d="M266.378 97.8l.12.276c17.377-7.774 29.76-2.77 42.86 2.543 6.096 2.468 12.403 5.02 19.54 6.486 8.86 1.947 15.988-.404 23.526-2.89 4.096-1.357 8.324-2.752 12.95-3.46 3.314-.415 6.906-.135 10.383.132 4.87.38 9.905.765 14.042-.808l-.106-.275c-4.075 1.55-8.855 1.18-13.916.787-3.49-.27-7.1-.547-10.446-.132-4.65.716-8.895 2.114-13.002 3.47-7.503 2.476-14.586 4.816-23.365 2.89-7.124-1.464-13.415-4.014-19.493-6.48-13.166-5.326-25.603-10.367-43.094-2.54M248.41 120.114l.12.26c17.01-7.607 29.13-2.7 41.96 2.495 5.975 2.412 12.145 4.914 19.13 6.355 8.688 1.904 15.663-.396 23.05-2.836 4.008-1.323 8.15-2.69 12.67-3.392 3.24-.396 6.756-.126 10.16.138 4.772.37 9.708.754 13.76-.798l-.104-.263c-3.99 1.518-8.67 1.155-13.632.77-3.415-.264-6.95-.536-10.226-.13-4.55.706-8.7 2.07-12.725 3.394-7.338 2.428-14.28 4.717-22.888 2.83-6.97-1.44-13.126-3.93-19.08-6.338-12.895-5.22-25.073-10.15-42.196-2.488" fill="#0095da"/><path d="M275.467 106.026l.008.003v.007c0-.005-.006-.008-.008-.01m-8.95 7.76c-.54-.742-.918-1.946-.918-2.918 0-1.02.403-2.142 1.1-3.093.2-.267.523-.488.793-.73-.74 1.03-1.215 2.31-1.215 3.563 0 1.764.353 2.98 1.217 4.188.138.186.283.277.415.425-.477-.36-.918-.8-1.392-1.435m3.16-9.485c-1.542.39-3.128 1.443-4.046 2.68-.862 1.182-1.355 2.593-1.355 3.886 0 1.243.466 2.732 1.166 3.702.945 1.273 1.772 1.968 3.046 2.588 1.267.622 2.26.848 3.686.848 1.478 0 2.642-.27 4.155-.945.513-.243.583-.488.69-.986l.332-1.97c0-.537-.45-.984-1.007-.984-.294 0-.803.107-.96.848-.228.75-.39.968-.788 1.275-.552.428-1.4.684-2.27.684-.472 0-1.018-.1-1.587-.292-1-.35-1.52-.746-2.165-1.62-.697-.973-.967-1.924-.967-3.408 0-1.41.733-2.9 1.815-3.706.787-.59 1.762-.95 2.55-.95.76 0 1.12.075 1.69.35.797.39 1.24.894 1.534 1.756.124.49.458.77.98.77.51 0 .906-.39.906-.878l-.054-.34.01.068-.027-.197c-.27-2.08-.27-2.08-.41-2.262-.16-.298-.888-.578-1.303-.707-1.22-.35-2.42-.547-3.385-.547-.658 0-1.328.103-2.238.337M282.628 113.556c-.738-.778-1.075-1.5-1.075-2.316 0-.99.283-1.785.94-2.564.697-.86 1.812-1.346 3.046-1.346 1.138 0 2.202.485 2.915 1.325.536.652.862 1.446.862 2.122 0 .956-.56 2.093-1.395 2.836-.64.584-1.758 1.002-2.666 1.002-1.02 0-1.958-.377-2.628-1.06m-1.16-5.72c-.852 1.016-1.243 2.1-1.243 3.405 0 1.17.46 2.2 1.45 3.243.936.942 2.202 1.46 3.58 1.46 1.243 0 2.673-.54 3.55-1.34 1.118-.996 1.843-2.496 1.843-3.826 0-.994-.43-2.076-1.177-2.965-.963-1.153-2.396-1.81-3.93-1.81-1.64 0-3.12.665-4.073 1.834" fill="#fff"/><path d="M282.45 108.038l.003-.01-.003.01zm1.346 4.982c-.514-.64-.732-1.378-.732-2.45 0-.8.126-1.317.45-1.74l.005-.008c.44-.606 1.07-.956 1.736-.956 1.47 0 2.577 1.462 2.577 3.4 0 .44-.072.81-.226 1.186-.312.762-.617 1.034-1.013 1.225-.452.22-.735.3-1.085.3-.644 0-1.194-.302-1.714-.957m1.46-6.48c-1.093 0-2.11.545-2.806 1.493-.498.662-.717 1.446-.717 2.537 0 1.38.318 2.394 1.027 3.29.77.954 1.7 1.44 2.75 1.44.554 0 1.04-.128 1.666-.43.76-.366 1.258-.94 1.667-1.912.216-.544.315-1.077.315-1.69 0-2.697-1.675-4.727-3.902-4.727M296.63 108.294c-.028-.024-.25-.272-.25-.272l-.088-.094s-.175-.173-.282-.272c.008 0 .107.005.164.005l.91 1.08.552.618.21.23.14.17c.068.103 1.503 1.795 1.503 1.795l.134.145s.188.23.37.44c-.055-.06-.804-.927-.804-.927l-.108-.13c-.03-.028-.592-.696-.592-.696-.035-.035-.27-.288-.27-.288l-.113-.11-1.478-1.692m-2.355-2.006c-.757 0-1.136.29-1.136.872 0 .97.753.99 1.12 1.005.045 0 .126.062.196.116l.016.31.013.463.02 2.11v.977l-.02.433-.013.77s.013.42.013.456c-.002-.058-.188-.026-.188-.026-.727 0-1.096.3-1.096.88 0 .88.644.98.92.98l.14-.007 1.232-.04.43.005.917.04c.274 0 .917-.1.917-.955 0-.342-.13-.935-.99-.935l-.29-.043.055-.216-.016-.71v-.206l.016-.792-.016-.754v-.837c.328.37.622.71.622.71.02.014.162.157.162.157l.164.18c-.03-.03.633.735.633.735.067.092.824.962.824.962.003 0 .846.982.846.982l.43.484c.007.01.836.938.836.938.304.425.633.608 1.042.608.585 0 .962-.39.962-.99l-.02-.48-.023-.86v-1.817l-.016-.84v-1.137l.016-.44.01-.77-.01-.433c.008.04.186.01.186.01l.642-.11c.138-.064.458-.268.458-.77 0-.88-.646-.977-.92-.977l-.146.005-1.22.052-.43-.014c-.07-.002-.936-.042-.936-.042-.565 0-.913.345-.913.924 0 .44.175.964 1.002.964l.286.046-.057.212.016.7.016.224-.016.582s.022 1.01.024 1.28c-.185-.224-.382-.45-.382-.45l-.13-.152-1.375-1.623-.085-.11-.17-.208-.253-.272c-.008-.014-.49-.558-.49-.558l-.95-1.128c.005.01-1.037-.432-1.037-.432l-1.68-.04h-.16zM311.654 107.378c.69 0 1.457.178 2.05.477.667.337 1.098.71 1.437 1.255.327.522.518 1.198.518 1.815 0 .88-.21 1.495-.7 2.044-.663.73-1.258 1.066-2.268 1.268l-.75.08-.946-.018-.547-.027-.61-.02-.52.02c.1-.253.204-.507.204-.507l-.01-.417.01-1.19c0 .044.022-.906.022-.906l-.032-1.032.032-.81-.032-1.13c0-.133-.067-.427-.226-.712.708-.114 1.634-.192 2.37-.192m-3.78.4h.007-.007zm.753-1.458l-.44.073h-.075l-.126.01-.173.038c-.813.074-.872.688-.872.866.014.282.052 1.012.84 1.012l.343-.054c-.003.006-.008.006-.008.006s.04.01.07.013c.003.283.03 1.14.03 1.14l-.03.78.008.36c.005.044.022.69.022.69l-.017.822c-.01.04-.013 1.304-.013 1.304l.003.384c-.003-.016-.19.01-.19.01-.73 0-1.092.302-1.092.903 0 .606.336.956.926.956h.356l.51-.02-.06.004h.242l.958-.03.526.008.587.032.92.016c-.047 0 1.057-.1 1.057-.1 1.317-.26 2.152-.73 3.022-1.682.707-.8 1.033-1.734 1.033-2.935 0-.872-.258-1.793-.713-2.515-.47-.75-1.1-1.304-1.972-1.737-.78-.396-1.745-.628-2.644-.628-.994 0-2.386.124-3.027.275" fill="#fff"/><path d="M311.446 107.866c.555 0 .983.097 1.38.32.274.156.683.515.85.744.34.455.544 1.255.544 2.087 0 1.7-.977 2.757-2.548 2.757-.315 0-.632-.075-.79-.132-.028-.09-.058-.277-.058-.856l.014-.463-.014-.73.014-1.007-.014-.493.014-1.73.027-.45c.075-.01.242-.047.58-.047m-1.706-.765c-.03.036-.23 1.226-.23 1.226l-.01 1.797.01.468-.01 1.01.01.72-.01.44c0 .96.06 1.51.438 1.87.4.337 1.244.467 1.734.467 2.32 0 3.873-1.635 3.873-4.08 0-1.137-.288-2.187-.8-2.877-.277-.38-.824-.86-1.268-1.11-.61-.333-1.247-.49-2.03-.49-.863 0-1.423.18-1.708.56M322.12 113.562c-.747-.784-1.084-1.506-1.084-2.322 0-.99.29-1.785.935-2.564.706-.86 1.816-1.346 3.052-1.346 1.14 0 2.198.485 2.92 1.325.535.643.853 1.438.853 2.122 0 .97-.54 2.087-1.387 2.836-.644.584-1.767 1.002-2.674 1.002-1.023 0-1.955-.377-2.615-1.053m-1.17-5.726c-.843 1.015-1.24 2.098-1.24 3.404 0 1.17.467 2.2 1.447 3.243.932.942 2.195 1.46 3.577 1.46 1.244 0 2.674-.54 3.563-1.34 1.12-1.004 1.828-2.477 1.828-3.826 0-1.005-.428-2.087-1.17-2.965-.968-1.153-2.4-1.81-3.933-1.81-1.637 0-3.124.665-4.072 1.834" fill="#fff"/><path d="M321.928 108.038l.008-.01-.008.01zm1.357 4.993c-.52-.656-.74-1.388-.74-2.46 0-.8.134-1.317.452-1.74l.013-.008c.434-.606 1.064-.956 1.724-.956 1.47 0 2.58 1.462 2.58 3.4 0 .44-.067.81-.22 1.186-.313.762-.626 1.034-1.016 1.225-.442.22-.735.3-1.086.3-.646 0-1.195-.302-1.707-.946m1.45-6.49c-1.09 0-2.107.545-2.805 1.493-.49.662-.71 1.446-.71 2.537 0 1.376.315 2.388 1.023 3.29.77.954 1.694 1.44 2.75 1.44.56 0 1.036-.128 1.67-.43.76-.37 1.257-.942 1.658-1.912.222-.544.322-1.077.322-1.69 0-2.697-1.68-4.727-3.908-4.727M342.005 107.728c0-.002 0 0 0 0m.045 6.178c.022.143.097.237.148.353h-.226c.04-.114.068-.232.078-.354m-5.887-1.48c0-.006.03-.56.038-.838l.157.363.24.65c-.02-.037.16.44.16.44l.07.166.263.746-.695-.21-.294-.043c.042-.082.063-1.275.063-1.275m3.046-.856v.002-.003zm2.824-3.88c-.01.02-.024.02-.03.038h.003c0 .054-.08.58-.08.58l-.003.096c-.084-.016-.278-.072-.552-.142l.167-.407c.007-.008.034-.09.063-.164h.43zm-6.09-.034c.063.156.157.377.273.676-.032.008-.266.056-.52.107v-.073c0-.13-.043-.407-.19-.676.174-.01.368-.026.438-.034m-3.065-.423c0 .442.173.96 1.008.96.38.023.474.125.474.125v.003c0 .163-.105 2.904-.105 2.904l-.033.68c-.035.67-.078 1.668-.188 1.862-.008-.024-.294.008-.294.008.06 0-.835.246-.835.246l-.242.635c0 .878.646.978.924.978l1.162-.038.482-.008h.26l.457.016.52.03.69-.264s.177-.53.212-.63c.035.11.076.214.076.214.16.792.724.848.894.848.28 0 .676-.124.9-.73.032-.118.468-1.263.468-1.263l.72-1.708c0-.003.112-.26.277-.62-.01.256-.01.62-.01.62v.323l.036.722-.024.188s.023.283.03.413c-.052.01-.104.026-.104.026-.382.02-1.106.052-1.106.862 0 .824.492.997.905.997l1.912-.046.24.005c.042.003 1.063.04 1.063.04.267 0 .897-.1.897-.974 0-.113 0-.472-.3-.717l-.69-.198c.03 0-.314-.043-.314-.043l.068-.383-.007-.517c0-.033-.035-.496-.035-.496l.01-.33c0 .055.025-.467.025-.467l-.043-.816-.022-.484v-.388l.013-.304-.012-.684c-.005.075.013-.522.013-.522v-.143c.023.046.263.02.263.02.96 0 1.01-.712 1.01-.858 0-.902-.633-1-.908-1l-1.336.017-.275.024h-.63l-.647.15.02.06-.443.79c.006-.01-.738 1.747-.738 1.747l-.056.143-.387.838-.21.51s-.113.263-.172.395c-.075-.188-.525-1.346-.525-1.346l-.23-.487c.007.032-.87-2.15-.87-2.15-.22-.69-.874-.69-1.12-.69-.123.006-.656.058-.656.058l-.556-.017-1-.048c-.57 0-.904.34-.904.913M349.9 111.504c.006.127.01.26.01.26l-.034.782c0 .033.025.36.025.36v.025c0 .13.01.554.01.554v.242c0 .137.04.328.117.533h-.272c.024-.055.065-.092.08-.154.017-.087.04-.456.04-.456v-1.066s.023-.85.026-1.08m-.026-1.41l.002-.117v.175c-.002-.013-.002-.06-.002-.06m.107-2.393c-.058.152-.082.314-.082.484l.01.42-.01.754s-.016.175-.016.304v-.264l-.014-.328-.008-.85c0-.16-.032-.343-.105-.513.08 0 .113-.008.226-.008m-2.678-.467c0 .442.175.96.994.96 0 .004.293.052.304.052-.05 0-.057.437-.057.71v.206c0 .04.02.225.02.225l-.02.697.02.48.013.778-.014.735-.02.487v1.088s-.004.116-.007.15c-.008-.053-.212-.026-.212-.026-.862 0-1.053.474-1.053.88 0 .88.646.98.918.98l1.233-.04.79-.007.29.005c.042.003 1.06.04 1.06.04.212 0 .9-.072.9-.955 0-.342-.127-.935-.99-.935 0 0-.166-.02-.236-.032v-.226l-.01-.71-.023-.206.034-.778-.01-.526-.023-.544v-.902l.023-.433.008-.77-.007-.445c.008.04.18.016.18.016l.644-.11c.137-.062.455-.264.455-.77 0-.88-.638-.978-.918-.978l-1.23.04-.787.017-.29-.017c-.042 0-1.07-.048-1.07-.048-.566 0-.905.34-.905.913M361.333 111.515c.056.062.17.183.17.183s.118.148.25.302c-.038-.05-.23-.262-.42-.485m-1.352-1.535l-1.475-1.686-.242-.272s-.264-.267-.372-.366c.004 0 .114.005.163.005.07.076.8.954.8.954l.654.744.22.23.13.168c.062.095 1.14 1.366 1.347 1.608l-.208-.237c-.064-.073-.63-.74-.63-.74-.03-.038-.28-.3-.28-.3l-.105-.107zm-3.834-3.692c-.75 0-1.134.29-1.134.872 0 .97.757.99 1.123 1.005.05 0 .127.062.202.115l.01.31.02.463.016 2.11v.977l-.016.428-.02.775s.02.423.02.456c-.01-.058-.19-.026-.19-.026-.91 0-1.098.474-1.098.88 0 .88.638.98.915.98l.14-.007 1.236-.04.416.005.932.04c.28 0 .92-.1.92-.955 0-.342-.126-.935-.998-.935l-.28-.043.048-.216-.01-.71v-.206l.01-.792-.01-.76v-.83c.32.37.62.704.62.704.018.03.158.162.158.162l.17.18.62.73c.004.01.842.97.842.97l.86 1.01.4.454.843.938c.216.29.505.608 1.046.608.582 0 .956-.39.956-.99l-.046-1.342v-1.815l-.01-.84v-1.137l.026-1.204s-.016-.42-.016-.45c.008.052.19.022.19.022l.64-.11c.142-.062.46-.27.46-.77 0-.88-.644-.978-.924-.978l-.14.005-1.23.052-.426-.014-.94-.042c-.555 0-.9.356-.9.924 0 .36.13.964.997.964l.286.046-.058.212.02.706c.004.03.015.218.015.218l-.016.587s.017 1.005.028 1.274l-.38-.45-.22-.248-1.3-1.527-.07-.11-.174-.208-.258-.278c0-.003-.596-.685-.596-.685-.01-.016-.67-.797-.67-.797l-.178-.204c.02.016-1.023-.426-1.023-.426l-1.69-.04h-.164zM371.402 112.15l.006-.627c.005.054.016.24.016.24l-.038.783c0 .038.02.342.02.342v.006c0 .07.018.59.018.59v.242c0 .137.04.33.116.533h-.278c.024-.055.065-.092.086-.154.02-.086.038-.455.038-.455v-1.066l.016-.433zm-.016-2.057v-.137.215-.077zm.108-2.394c-.062.152-.092.314-.092.484l.022.425c-.006.005-.022.81-.024.842l.002-.048c0-.02-.02-.348-.02-.348v-.02c0-.14-.012-.817-.012-.817 0-.16-.035-.343-.097-.513.073 0 .108-.008.22-.008m-2.682-.467c0 .36.133.96 1 .96h-.002c0 .004.3.053.3.053-.044 0-.052.43-.052.702v.213c.008.05.016.225.016.225l-.016.697.016.488.016.77-.016.738-.016.485v1.088l-.008.15c-.008-.052-.21-.026-.21-.026-.862 0-1.048.474-1.048.88 0 .88.64.98.916.98l1.222-.04.792-.007.29.005c.044.003 1.057.04 1.057.04.212 0 .907-.072.907-.955 0-.342-.124-.935-.994-.935l-.285-.043.054-.216-.02-.722c-.003-.035-.01-.194-.01-.194l.03-.778c0-.043-.03-1.07-.03-1.07v-.902l.01-.44.016-.758s-.016-.426-.016-.455c.013.05.186.02.186.02l.64-.104c.143-.066.46-.268.46-.774 0-.88-.634-.978-.914-.978l-1.242.04-.773.017-.304-.017c-.035 0-1.06-.048-1.06-.048-.57 0-.912.34-.912.913M379.164 113.562c-.74-.784-1.078-1.506-1.078-2.322 0-.99.294-1.785.93-2.564.705-.86 1.817-1.346 3.048-1.346 1.145 0 2.214.485 2.92 1.325.535.643.858 1.438.858 2.122 0 .972-.544 2.087-1.39 2.833-.64.584-1.758 1.005-2.665 1.005-1.02 0-1.953-.377-2.623-1.053m-1.166-5.726c-.85 1.015-1.242 2.098-1.242 3.404 0 1.17.458 2.203 1.452 3.243.93.942 2.197 1.46 3.58 1.46 1.238 0 2.665-.54 3.554-1.34 1.13-1 1.83-2.466 1.83-3.826 0-1.005-.422-2.087-1.173-2.965-.96-1.153-2.395-1.81-3.936-1.81-1.627 0-3.113.665-4.066 1.834" fill="#fff"/><path d="M378.975 108.038c0-.005.003-.01.003-.01l-.003.01zm1.355 4.993c-.517-.653-.735-1.388-.735-2.46 0-.806.132-1.323.447-1.74l.005-.003c.442-.61 1.077-.96 1.74-.96 1.473 0 2.582 1.46 2.582 3.4 0 .434-.07.805-.23 1.182-.312.764-.624 1.036-1.018 1.227-.438.22-.735.3-1.08.3-.646 0-1.192-.302-1.712-.946m-1.352-4.997c-.496.657-.71 1.446-.71 2.537 0 1.38.314 2.39 1.025 3.29.77.954 1.694 1.44 2.75 1.44.56 0 1.04-.128 1.667-.43.76-.37 1.255-.942 1.66-1.912.22-.544.324-1.077.324-1.69 0-2.697-1.68-4.727-3.907-4.727-1.088 0-2.112.545-2.81 1.493M394.945 112.41c.016.093.11.17.11.276 0 .08-.026.116-.032.184-.016-.157-.032-.324-.078-.46m-.474-.755c0-.003-1.35-.88-1.35-.88-.442-.246-1.09-.687-1.248-.86-.09-.08-.075-.213-.124-.307.33.485.89.87 1.735 1.287.748.37.918.496 1.16.76.165.186.176.398.237.595-.097-.207-.22-.4-.41-.595m-3.096-4.958c-.824.662-1.15 1.33-1.15 2.41 0 .706.232 1.277.708 1.753.302.302 1.067.816 1.557 1.08 0 .006 1.044.65 1.044.65.164.17.205.247.205.535 0 .455-.35.87-.73.87l-.397-.06c0-.007-.294-.17-.302-.177 0-.03-.263-.514-.263-.514-.156-.496-.3-.95-.942-.95-.595 0-.97.376-.97.95l.043.43c-.008-.013.025.165.025.165l.05.433c.063.632.11.94.733 1.217.544.24 1.325.404 1.907.404.856 0 1.667-.275 2.4-.82.743-.546 1.093-1.308 1.093-2.388 0-.73-.248-1.36-.762-1.92-.404-.447-.74-.66-1.554-1.064-1.32-.646-1.32-.883-1.32-1.088 0-.417.283-.702.68-.702.255 0 .467 0 .648.818.137.757.69.846.924.846.622 0 .964-.348.964-.962l-.014-.51h-.002l-.038-.244c-.043-.81-.067-1.193-.636-1.467-.528-.237-1.053-.348-1.772-.348-.783 0-1.616.26-2.13.652" fill="#fff"/><path d="M276.388 107.772c.02.07.03.14.03.18 0 .118-.103.207-.24.207-.21 0-.286-.06-.353-.318-.345-1.013-.918-1.673-1.872-2.136-.64-.307-1.1-.42-1.98-.42-.92 0-2.043.415-2.937 1.082-1.255.93-2.098 2.632-2.098 4.242 0 1.63.312 2.707 1.098 3.803.714.967 1.344 1.446 2.492 1.853.608.204 1.24.325 1.8.325 1.006 0 1.997-.295 2.667-.823.56-.414.78-.79 1.04-1.66.05-.246.13-.32.31-.32.19 0 .342.14.342.32 0 .203-.095.707-.318 1.827-.09.415-.09.415-.31.523-1.434.643-2.513.886-3.884.886-1.323 0-2.233-.213-3.394-.78-1.2-.58-1.93-1.21-2.8-2.377-.612-.85-1.04-2.192-1.04-3.317 0-1.154.445-2.425 1.223-3.484.816-1.11 2.273-2.084 3.676-2.442.887-.22 1.49-.307 2.075-.307.888 0 2.014.175 3.185.517.442.132.92.363.97.463.043.043.043.043.285 1.96l.033.195zM282.98 108.43c-.4.537-.584 1.194-.584 2.14 0 1.225.267 2.103.883 2.873.646.803 1.375 1.193 2.23 1.193.462 0 .85-.105 1.373-.36.616-.297 1.004-.75 1.344-1.576.185-.447.27-.892.27-1.433 0-2.33-1.385-4.064-3.24-4.064-.882 0-1.708.453-2.277 1.228m5.98-.193c.643.763 1.022 1.705 1.022 2.54 0 1.15-.635 2.453-1.618 3.33-.76.693-2.036 1.17-3.108 1.17-1.19 0-2.303-.45-3.102-1.255-.868-.913-1.263-1.783-1.263-2.782 0-1.147.343-2.09 1.09-2.986.825-1.002 2.13-1.587 3.56-1.587 1.343 0 2.58.566 3.42 1.57M301.654 112.425v-1.008l-.03-1.42.02-.6c0-.013 0-.135-.02-.266-.01-.256-.01-.47-.01-.658v-.255c0-.448-.278-.65-.897-.672-.29 0-.33-.043-.33-.296 0-.205.04-.26.24-.26.157 0 .157 0 .833.04.097.015.253.015.534.015.177 0 .69-.016 1.268-.056h.097c.212 0 .25.057.25.316 0 .177-.07.212-.43.212-.53 0-.852.232-.852.666l.01.393c-.01.318-.01.318-.01.78l-.01.46v1.138c0 .285 0 .285.01.84v1.842l.03.902c.018.172.018.3.018.41 0 .238-.092.327-.302.327-.177 0-.3-.056-.45-.275-.296-.366-.35-.43-.94-1.055-.298-.33-.333-.375-.557-.63-.22-.28-.46-.566-.716-.838-.357-.386-.457-.518-.837-.973-.21-.218-.414-.463-.61-.717-.243-.26-.136-.14-.327-.342-.555-.61-1.047-1.185-1.513-1.72-.057-.073-.12-.15-.202-.22-.05-.077-.02-.034-.094-.112v.245l.01.685.02.865V111.044c.014.39.014.627.014.72l-.014.804v.237c.014.277.014.498.014.68v.24c0 .46.27.672.896.688.283 0 .33.048.33.264 0 .242-.047.29-.257.29-.152 0-.152 0-.817-.032-.11-.016-.256-.016-.53-.016-.192 0-.703.015-1.266.047h-.108c-.206 0-.254-.048-.254-.312 0-.19.075-.218.43-.218.52 0 .854-.24.854-.65l-.013-.408c.013-.298.013-.298.013-.785l.02-.455v-.978c0-1.446 0-1.446-.02-2.133l-.013-.44c0-.396-.02-.568-.11-.713-.21-.22-.472-.372-.74-.372-.453-.022-.486-.05-.486-.345 0-.18.077-.21.475-.21h.16c.303 0 1.464.03 1.655.04.407.017.407.017.555.194l.162.202c.23.27.452.536.673.798.213.247.404.48.627.71l.224.238.168.204.075.116c.736.926.838 1.026 1.546 1.802.306.34.39.44.664.794.148.205.297.393.453.536l.25.3.183.225-.016-.685zM310.156 110.1l.02.47-.02 1.042.02.695-.02.48c0 .83.065 1.192.248 1.362.16.14.784.287 1.268.287 1.942 0 3.213-1.355 3.213-3.42 0-.99-.25-1.91-.673-2.48-.22-.3-.703-.722-1.064-.932-.493-.27-1.026-.402-1.702-.402-.61 0-1.034.103-1.177.302-.068.1-.068.1-.095.848l-.02 1.748zm-1.52 4.85c-.155.017-.303.017-.448.017h-.356c-.21 0-.26-.048-.26-.29 0-.213.06-.24.406-.24.557.024.877-.24.877-.67 0 0 0-.168-.008-.388 0-.543 0-.955.008-1.24.025-.194.025-.496.025-.886 0-.33 0-.57-.025-.725-.008-.168-.008-.294-.008-.308l.033-.837c-.033-.46-.033-.46-.033-1.104 0-.317-.078-.465-.242-.565-.07-.05-.4-.11-.522-.11-.033 0-.073 0-.132.018-.06.01-.118.033-.17.033-.147 0-.158-.033-.177-.35 0-.13.043-.178.235-.194.053 0 .14-.027.288-.06h.145c.2-.02.367-.06.5-.086.61-.137 1.954-.256 2.884-.256.8 0 1.667.205 2.348.555.78.39 1.303.85 1.702 1.49.393.63.617 1.424.617 2.17 0 1.037-.263 1.815-.864 2.486-.773.85-1.497 1.248-2.636 1.48-.367.06-.754.107-.937.088l-.903-.01-.568-.033c-.213-.016-.415-.016-.574-.016-.218 0-.57.015-.958.03h-.243zM322.464 108.43c-.407.537-.582 1.194-.582 2.14 0 1.225.277 2.103.883 2.873.64.803 1.37 1.193 2.227 1.193.458 0 .85-.105 1.374-.36.617-.297 1.004-.75 1.338-1.576.18-.447.278-.892.278-1.433 0-2.33-1.39-4.064-3.248-4.064-.878 0-1.702.453-2.27 1.228m5.98-.193c.645.763 1.016 1.705 1.016 2.54 0 1.15-.625 2.453-1.613 3.33-.757.693-2.04 1.17-3.113 1.17-1.196 0-2.3-.45-3.092-1.255-.867-.913-1.268-1.783-1.268-2.782 0-1.147.344-2.09 1.085-2.986.826-1.002 2.127-1.587 3.562-1.587 1.344 0 2.583.566 3.423 1.57M341.364 108.43c-.512.906-.666 1.256-1.544 3.395-.088.204-.193.487-.72 1.72-.3.687-.33.79-.483 1.296-.078.206-.157.3-.275.3-.124 0-.202-.103-.245-.313-.05-.288-.342-1.085-.65-1.866-.077-.198-.17-.376-.23-.586l-.25-.68-.192-.454c-.194-.43-.243-.538-.41-.953-.132-.345-.245-.663-.39-.95-.132-.28-.156-.37-.32-.747 0 .065-.038.673-.076 1.858 0 .254 0 .254-.04 1 0 .253-.007.573-.045.926-.013.21-.02.93-.02 1.244 0 .55.25.78.92.795.285 0 .337.048.337.264 0 .242-.052.29-.262.29-.13 0-.35-.016-.975-.048h-.26c-.11 0-.11 0-.53.015-.222.016-.597.032-1.116.032-.21 0-.257-.048-.257-.312 0-.19.07-.23.452-.218.935-.057 1-.19 1.096-2.49l.034-.658c.062-.64.118-2.334.118-2.923 0-.525-.4-.797-1.144-.838-.3 0-.345-.047-.345-.297 0-.202.046-.253.242-.253.146 0 .323.01.986.05l.57.017c.104 0 .104 0 .594-.056h.06c.325 0 .436.057.506.275.555 1.36.843 2.06.85 2.106.082.176.146.365.25.524.292.762.607 1.567.94 2.418.052.137.098.272.17.428.26-.557.585-1.34 1.022-2.362l.387-.864c.226-.514.452-1.04.805-1.91.142-.37.167-.444.24-.508l.29-.065h.612l.22-.023 1.328-.016c.197 0 .242.062.242.337 0 .146-.09.19-.344.19-.493 0-.78.117-.876.422-.045.1-.045.15-.045.367 0 .192 0 .356-.02.544l.02.664c0 .048 0 .153-.02.304v.388c0 .172 0 .197.03.536.017.248.035.498.035.765 0 .164 0 .318-.018.44l-.018.36c0 .067.017.253.035.498l.01.512v.425c.012.455.252.638.91.67.287 0 .33.05.33.246 0 .26-.043.31-.237.31-.17 0-.342 0-.99-.033-.136-.016-.23-.016-.327-.016l-.703.015c-.256.016-.657.032-1.195.032-.213 0-.24-.048-.24-.33 0-.173.027-.176.44-.2.203 0 .49-.086.578-.178.097-.092.207-.343.194-.46l-.033-.42.02-.27c-.03-.55-.03-.55-.03-.685v-.307c.01-.447.01-.8.01-.907l-.01-.988v-1.79zM350.57 113.726c0 .46.268.67.9.687.275 0 .324.048.324.264 0 .242-.05.29-.234.29-.167 0-.353 0-.99-.032-.133-.016-.257-.016-.37-.016l-.822.015c-.245.016-.643.032-1.19.032-.207 0-.253-.048-.253-.312 0-.19.078-.218.423-.218.535-.024.732-.148.84-.51.01-.1.01-.14.01-.276v-1.066l.014-.466c.02-.23.02-.506.02-.778 0-.283 0-.55-.02-.81-.013-.232-.013-.386-.013-.437l.012-.708c0-.027 0-.12-.013-.253-.012-.356-.012-.437-.012-.913 0-.47-.243-.65-.902-.69-.283 0-.33-.047-.33-.297 0-.202.047-.253.24-.253.165 0 .32 0 .992.05.126.017.25.017.382.017l.827-.016c.237-.023.627-.04 1.177-.04.21 0 .253.057.253.316 0 .177-.073.212-.434.212-.52 0-.843.232-.843.666l.01.393c-.01.293-.01.293-.01.78l-.018.46V110.744c.018.55.03.9.03 1.02l-.03.805c0 .027 0 .118.018.237.01.277.01.498.01.68v.24zM363.533 112.425v-1.008l-.027-1.42.016-.6c0-.013 0-.135-.016-.266-.02-.256-.02-.47-.02-.658v-.255c0-.448-.265-.65-.893-.672-.29 0-.336-.043-.336-.296 0-.205.045-.26.24-.26.16 0 .16 0 .842.04.1.015.255.015.522.015.19 0 .7-.016 1.27-.056h.1c.21 0 .26.057.26.316 0 .177-.08.212-.435.212-.528 0-.856.232-.856.666l.02.393c-.02.318-.02.318-.02.78l-.01.46v1.138c0 .285 0 .285.01.84v1.842l.033.902c.016.172.016.3.016.41 0 .238-.09.327-.294.327-.186 0-.302-.056-.45-.275-.304-.366-.347-.43-.945-1.055-.303-.33-.328-.375-.554-.63-.223-.28-.466-.566-.71-.838-.364-.386-.475-.518-.847-.973-.21-.218-.415-.463-.61-.717-.24-.26-.137-.14-.328-.342-.555-.61-1.047-1.185-1.508-1.72-.062-.073-.126-.15-.202-.22-.054-.077-.027-.034-.102-.112v.245l.016.685.016.865V111.044c.016.39.016.627.016.72l-.016.804v.237c.016.277.016.498.016.68v.24c0 .46.272.672.892.688.293 0 .334.048.334.264 0 .242-.04.29-.256.29-.143 0-.143 0-.824-.032-.1-.016-.248-.016-.523-.016-.2 0-.704.015-1.27.047h-.105c-.207 0-.25-.048-.25-.312 0-.19.075-.218.43-.218.523 0 .852-.24.852-.65l-.01-.408c.01-.298.01-.298.01-.785l.02-.455v-.978c0-1.446 0-1.446-.02-2.133l-.01-.44c0-.396-.017-.568-.106-.713-.212-.22-.48-.372-.753-.372-.442-.022-.477-.05-.477-.345 0-.18.078-.21.466-.21h.164c.3 0 1.465.03 1.662.04.406.017.406.017.552.194l.164.202c.226.27.445.536.67.798.214.247.405.48.626.71l.226.238.17.204.07.116c.73.926.845 1.026 1.543 1.802.31.34.387.44.665.794.153.205.307.393.455.536l.25.3.184.225-.014-.685zM372.086 113.484c0-.18 0-.402-.02-.68-.012-.118-.012-.21-.012-.236l.032-.805c0-.12-.02-.47-.032-1.02v-.925l.01-.46c0-.488 0-.488.022-.78l-.02-.394c0-.434.327-.666.85-.666.363 0 .44-.035.44-.212 0-.26-.05-.315-.254-.315-.555 0-.943.017-1.183.04l-.825.017c-.134 0-.253 0-.388-.016-.667-.05-.824-.05-.985-.05-.2 0-.245.05-.245.253 0 .25.045.296.334.296.652.04.897.22.897.69 0 .475 0 .556.017.912.013.132.013.226.013.253l-.013.708c0 .05 0 .205.013.436.02.26.02.527.02.81 0 .272 0 .547-.02.778l-.013.466v1.067c0 .138 0 .176-.017.278-.1.36-.3.485-.834.51-.35 0-.418.026-.418.217 0 .264.04.312.25.312.54 0 .95-.016 1.18-.032l.822-.016c.123 0 .237 0 .38.015.643.032.818.032.98.032.196 0 .24-.048.24-.29 0-.216-.044-.264-.327-.264-.63-.016-.894-.227-.894-.687v-.242zM379.508 108.43c-.4.537-.576 1.194-.576 2.14 0 1.225.27 2.103.88 2.873.65.803 1.374 1.193 2.23 1.193.46 0 .846-.105 1.37-.36.618-.297 1-.75 1.345-1.576.186-.447.272-.892.272-1.433 0-2.33-1.39-4.064-3.243-4.064-.886 0-1.708.453-2.28 1.228m5.983-.193c.643.763 1.018 1.705 1.018 2.54 0 1.15-.625 2.453-1.613 3.33-.763.693-2.036 1.17-3.108 1.17-1.2 0-2.308-.45-3.097-1.255-.867-.913-1.27-1.783-1.27-2.782 0-1.147.346-2.09 1.087-2.986.83-1.002 2.13-1.587 3.557-1.587 1.35 0 2.585.566 3.426 1.57M395.29 108.194c.01.16.01.313.01.42 0 .256-.043.294-.298.294-.154 0-.23-.073-.278-.318-.207-.956-.58-1.338-1.295-1.338-.763 0-1.345.58-1.345 1.362 0 .65.404 1.053 1.69 1.684.76.377 1.03.552 1.36.913.408.45.586.908.586 1.476 0 .876-.258 1.44-.826 1.853-.61.457-1.285.694-2 .694-.51 0-1.19-.153-1.628-.345-.3-.138-.3-.138-.352-.658-.006-.21-.044-.388-.084-.67-.032-.167-.032-.245-.032-.318 0-.207.072-.283.307-.283.16 0 .16 0 .32.51.1.272.256.566.418.762.242.232.317.278.635.353.248.05.415.073.533.073.756 0 1.39-.71 1.39-1.533 0-.452-.11-.7-.403-1.007-.23-.23-.372-.323-1.188-.765-.466-.25-1.177-.724-1.412-.966-.34-.342-.506-.746-.506-1.28 0-.87.237-1.368.89-1.885.39-.307 1.09-.512 1.722-.512.63 0 1.06.08 1.48.28.225.106.225.154.273.962l.033.242z" fill="#21409a"/><path d="M4.75 59.065s14.032 6.342 38.326 1.513c0 0 24.313-7.083 42.017-.98 0 0-16.883-3.264-35.018 5.852 0 0-23.21 9.062-45.324-6.385" fill="#00aec2"/><path d="M8.973 65.622c-.676.124 11.742 5.715 20.048 9.943 9.36 4.27 14.605 7.182 23.867 2.868.323.245 8.677-5.14 34.097-13.156 2.51.588-19.595-3.926-38.716 8.49.33.048-2.954 1.933-6.86 2.167-4.712.14-10.047-1.37-32.435-10.312M37.692 83.15l13.126 8.918s3.162 2.09 5.044-2.464l6.02-7.352s-6.704 7.436-24.19.897" fill="#00aec2"/><path d="M0 43.05c71.256-1.56 70.96.46 88.923-.796L85.19 56.288S66.708 40.38 38.463 53.926c0 0-16.014 8.85-36.28 1.724L0 43.05z" fill="#006bb6"/><path d="M86.003 22.19c-.088 8.107-6.743 14.62-14.86 14.546-8.12-.09-14.623-6.74-14.54-14.85.078-8.108 6.725-14.623 14.842-14.542 8.122.075 14.626 6.73 14.558 14.847" fill="#ffd200"/><g clip-path="url(#a)" transform="matrix(2.7 0 0 -2.7 -809.5 277.1)"><g clip-path="url(#b)"><path d="M303.847 88.603l.05 4.975s1.947 1.234 4.452.06l-.058-5.103-4.445.068z" fill="#be7629"/></g></g><path d="M20.914 24.992L20.73 38.69s-11.78-.233-11.872-.233l.134-13.35c.033.01 5.276-3.223 11.922-.115m-11.995.08L8.757 38.55l12.016.193.208-13.794c-6.725-3.176-12.01.088-12.063.123"/><g clip-path="url(#c)" transform="matrix(2.7 0 0 -2.7 -809.5 277.1)"><g clip-path="url(#d)"><path d="M308.35 93.637s1.89.45.57 1.415c0 0-.732 2.04-3.128 1.79 0 0-1.884.105-2.776-1.963 0 0-.758-.754.882-1.302 0 0 2.116 1.23 4.45.06" fill="#9d651e"/></g></g><path d="M22.417 21.154c.846.628 1.26 1.2 1.26 1.73 0 .066-.008.134-.02.2-.243 1.202-2.662 1.797-2.726 1.816-6.23-3.116-11.954.138-12.01.173-1.622-.563-2.554-1.25-2.742-2.055-.178-.77.415-1.374.42-1.38 2.373-5.488 7.393-5.272 7.446-5.267 6.345-.66 8.357 4.73 8.373 4.784m-8.373-4.877c-.048-.003-5.133-.232-7.524 5.305-.014.014-.63.636-.44 1.455.2.84 1.156 1.55 2.848 2.122.097-.042 5.79-3.276 11.98-.168l.017.013.016-.01c.11-.022 2.557-.615 2.813-1.894.127-.624-.294-1.294-1.258-2-.005-.032-2.036-5.5-8.45-4.823"/><g clip-path="url(#e)" transform="matrix(2.7 0 0 -2.7 -809.5 277.1)"><g clip-path="url(#f)"><path d="M306.424 97.11c0-.162-.24-.292-.535-.286-.295 0-.53.137-.53.3.002.163.244.294.536.292.292-.005.53-.14.528-.305" fill="#d0b08b"/></g></g><path d="M15.792 15.593l.008-.022-.008.023zm-1.486.727c-.757 0-1.37-.345-1.37-.762l.17-.348c.246-.25.712-.393 1.218-.385.507.003.973.16 1.215.41l.153.358-.162.345c-.25.247-.715.387-1.224.382m-1.27-1.185l-.203.423c0 .474.665.856 1.473.856.53.01 1.028-.14 1.287-.4l.197-.42-.186-.43c-.256-.266-.744-.436-1.28-.438-.527-.006-1.015.15-1.287.41M16.172 16.99c.03.014 2.704 1.35 2.822 2.974-.045-1.673-2.674-2.987-2.784-3.043l-.038.07zM15.03 19.606c-.582-.773-.3-2.912-.296-2.94l-.073-.007c-.01.086-.287 2.197.37 2.946M10.974 19.703c.614-1.888 2.29-2.723 2.306-2.73l-.035-.066c-.02.006-1.72.86-2.27 2.796M6.555 21.566l.027.073c.07-.03 7.473-2.632 15.87-.464-8.4-2.238-15.827.366-15.897.39"/><g clip-path="url(#g)" transform="matrix(2.7 0 0 -2.7 -809.5 277.1)"><g clip-path="url(#h)"><path d="M304.657 88.633l.166 3.495s.106.72 1.244.69c0 0 .94-.03.933-.837l.086-3.325" fill="#fff"/></g></g><path d="M11.402 29.004l-.447 9.418.07.003.45-9.41c0-.02.313-1.9 3.31-1.82.024 0 2.494.105 2.48 2.21l.227 8.96-.154-8.96c.016-2.175-2.52-2.29-2.553-2.29-3.062-.074-3.38 1.865-3.383 1.89"/><path d="M7.875 34.82l-.814.093c-1.224.124-3.082.32-3.424.832-.307.447-.027 1.41.237 2.346l.304 1.425c.097.006-.207-1.454-.207-1.454-.25-.87-.53-1.852-.253-2.264.317-.466 2.216-.662 3.358-.778l.813-.1c2.944-.41 6.062-.546 9.278-.393l1.144.04c1.923.044 4.096.11 5.632.897.627.32 1.096 1.01 1.28 1.888.236 1.083-.007 2.27-.607 3l.075.065c.62-.757.862-1.97.63-3.084-.188-.906-.678-1.614-1.335-1.954-1.552-.802-3.744-.856-5.672-.913l-1.145-.032c-3.22-.158-6.342-.018-9.293.39"/><path d="M6.482 35.093l.24 2.395.164 1.403c.097-.013-.07-1.416-.07-1.413l-.234-2.392-.1.008zM9.38 34.75c.27 1.278.485 2.517.272 3.766.312-1.25.092-2.504-.175-3.79l-.097.025zM13.358 38.34c.097.01.12-1.895.12-1.895l.022-1.896-.1-.006-.042 3.795zM17.018 38.344c-.095-.86-.38-2.46-.116-3.81l-.097-.01c-.26 1.36.02 2.977.213 3.82M22.727 37c.067.797.126 1.543-.062 2.262.288-.713.226-1.465.162-2.267l-.027-1.96-.1-.01.027 1.975z"/><g clip-path="url(#i)" transform="matrix(2.7 0 0 -2.7 -809.5 277.1)"><g clip-path="url(#j)"><path d="M301.623 74.847l1.218 12.443s.005.694.63.757c0 0 4.025.34 5.616-.22 0 0 .25-.032.21-.67l.524-12.52" fill="#d09a62"/></g></g><path d="M7.788 39.954c-1.71.167-1.737 2.07-1.74 2.088L2.77 75.55l.1.01L6.14 42.047c.006-.078.038-1.837 1.654-2 .107-.006 10.88-.89 15.108.594.013.004.638.12.533 1.754l1.41 33.726-1.318-33.723c.12-1.742-.574-1.842-.6-1.85-4.237-1.49-15.034-.603-15.14-.593"/><g><path d="M6.57 49.466c2.03-2.787 16.67-5.8 16.82-5.825l-.022-.098c-.606.12-14.83 3.048-16.797 5.924"/></g><g><path d="M5.405 58.693c3.175-2.766 18.42-6.455 18.574-6.496l-.022-.097c-.16.04-15.43 3.738-18.553 6.593"/></g><g><path d="M3.89 73.553c5.61-5.184 20.32-9.587 20.464-9.625l-.025-.097c-.15.047-14.877 4.458-20.44 9.723"/></g><g><g clip-path="url(#k)" transform="matrix(2.7 0 0 -2.7 -809.5 277.1)"><g clip-path="url(#l)"><path d="M302.178 88.235s-.08-.547.74-.552c0 0-.018.378.826.372 0 0 4.547.415 5.506-.44 0 0 .584-.152.443.4 0 0-2.112 1.37-7.515.22" fill="#e38d3f"/></g></g></g><g><path d="M24.523 40.132c.08.377.043.674-.126.843-.324.32-1.02.143-1.026.143-2.547-2.278-14.345-1.23-14.844-1.18-1.24-.013-1.79.29-2.038.547l-.235.504c-.738-.06-1.292-.244-1.618-.623-.25-.286-.28-.617-.28-.77v-.063c14.335-3.04 20.112.563 20.168.598m-20.225-.686l-.035.002v.033c-.008.027-.073.523.3.95.336.402.923.596 1.74.6.055-.05.257-.478.257-.478.235-.245.762-.527 1.97-.517.128-.01 12.26-1.096 14.795 1.16.046.025.773.214 1.136-.144.206-.204.246-.53.14-.972-.08-.064-5.897-3.7-20.302-.632"/></g></svg>