<svg xmlns="http://www.w3.org/2000/svg" width="374.73" height="616.98"><path d="M194.3 127.525s90.675-26.63 146.395 88.835c0 0 9.644 14.626-2.015 21.33 0 0-9.368 3.348-13.31-5.75 0 0-20.338-55.587-47.063-73.846 0 0-36.374-29.132-84.006-30.57M315.81 228.5c5.455 16.932 36.53 98.232-67.594 181.38 0 0-12.104 12.652-21.235 2.767 0 0-5.352-8.38 2.645-14.247 0 0 49.668-32.2 61.535-62.315 0 0 33.838-60.815 24.65-107.585" fill="#262261"/><path d="M244.324 366.428s-69.375 76.69-187.374.828c0 0-17.357-8.124-10.308-21.05 0 0 6.814-8.473 15.703-2.244 0 0 50.763 40.23 86.135 41.988 0 0 50.58 6.377 95.844-19.522" fill="#262261"/><path d="M336.684 225.1s-1.485 5.394-6.516 2.59c0 0-8.96-22.97-16.64-36.742 0 0-3.127-4.642-10.488-17.142-7.352-12.495 28.147 32.228 33.644 51.293M55.706 356.817s-1.708-5.886 4.6-6.148c0 0 21.495 16.306 36.526 24.772 0 0 5.564 2.537 19.584 9.99 14.012 7.446-44.677-13.975-60.71-28.615" fill="#fce52c"/><path d="M87.023 350.67s-91.35-51.554-42.047-187.188c0 0 4.24-19.244 18.616-15.193 0 0 9.915 4.844 5.678 15.175 0 0-28.736 60.108-22.696 95.888 0 0 4.796 52.063 40.45 91.317" fill="#262261"/><path d="M55.062 159.813s5.46-3.08 7.11 3.17c0 0-11.447 25.282-16.532 42.285 0 0-1.295 6.158-5.61 21.9-4.31 15.745 4.034-47.92 15.032-67.355" fill="#fce52c"/><path d="M22.955 355.613s-2.644 2.827 7.418-24.78c0 0 36.958-90.518 44.393-101.186 0 0-1.42-22.703 31.152-15.625 0 0 35.275 4.486 25.132 32.325 0 0-17.55 26.738-53.29 41.542 0 0-8.064 1.883-9.48-2.366 0 0-4.016-3.538 12.973-11.797 0 0 23.83-9.907 33.513-28.318 0 0 11.566-21.375-23.833-15.763 0 0-20.77 32.518-53.33 117.705 0 0-12.31 9.084-14.648 8.26" fill="#006838"/><path d="M66.627 199.864S79.37 97.242 219.537 91.568c0 0 18.886-3.318 20.527 11.313 0 0-.706 10.857-11.556 10.857 0 0-64.658-3.775-94.63 15.097 0 0-45.073 23.84-67.25 71.03" fill="#262261"/><path d="M226.558 99.4s4.78 3.835-.232 7.666c0 0-26.96-1-44.127.716 0 0-6.026 1.12-21.776 3.064-15.752 1.944 44.6-14.218 66.134-11.447M238.803 407.904s-5.583-.245-3.97-5.78c0 0 20.407-13.843 32.122-24.388 0 0 3.836-4.083 14.382-14.037 10.545-9.96-25.164 34.6-42.534 44.204" fill="#fce52c"/><path d="M132.883 262.164s-12.922 33.982 18.223 10.384c0 0 52.617-54.745 50.264-36.344 0 0-1.89 9.377-4.716 17.79 0 0-6.022 14.66-.708 17.61 0 0 4.59 4.01 14.75-9.91 0 0 20.874-28.085 26.425-17.58 0 0 1.066 12.62-4.014 27.017 0 0-2.477 6.493 2.356 6.493 0 0 10.863-4.72 17.465-33.987 0 0 5.316-25.484-12.737-20.758 0 0-9.757 4.24-14.968 10.262 0 0-7.338 7.313-7.213-3.42 0 0 2.943-18.998-15.223-13.57 0 0-12.98 6.13-21.355 14.627 0 0-13.694 14.748-19.94 12.51 0 0-3.777 0 1.762-8.615 0 0 8.735-12.862 9.092-17.23 0 0 1.06-5.662-2.006-6.246 0 0-5.78-3.66-12.036 5.66 0 0-25.07 44.304-25.42 45.308" fill="#006838"/><path d="M40.366 32.027c1.53.508 3.912.677 6.116.677 3.736 0 8.153-2.89 10.198-5.77 1.693-2.552 2.04-5.782 2.04-8.84 0-11.55-9.348-14.185-13.42-14.185-1.533 0-3.573-.08-4.934.595v27.522zM29.66 21.83c0-5.607 0-14.603-.08-15.544-.172-1.44-1.103-1.864-2.975-1.864h-4.42c-.337 0-.506-.173-.506-.594V1.705c0-.51.168-.68.505-.68 1.024 0 4.08.253 12.576.253 1.53 0 6.464-.252 9.342-.252 10.196 0 15.124.93 20.055 4.327C68.064 8.246 70.61 13 70.61 18.266c0 10.53-8.15 17.164-22.6 17.164-2.882 0-5.438 0-7.644-.344v3.738c0 4.078 0 15.63.088 16.737.254 1.868 1.104 2.716 2.634 2.716h4.755c.676 0 .676.34.676.596v1.95c0 .518 0 .85-.677.85-1.193 0-3.907-.25-13.082-.25-7.476 0-10.88.25-11.725.25-.68 0-.68-.332-.68-.594V58.96c0-.51 0-.684.512-.684h2.717c2.893 0 3.572-.338 3.824-2.634.085-.848.25-14.1.25-23.955V21.83zM93.458 31.517c1.188.17 2.204.338 3.228.338 13.253 0 15.97-10.702 15.97-14.604 0-3.91-1.615-7.566-3.74-9.518-3.053-2.717-6.96-3.65-11.204-3.65-1.366 0-2.385.08-3.066.51-.672.423-1.02 1.444-1.02 2.463l-.168 24.462zm-.166 7.646c0 5.096.166 14.613.335 15.89.254 1.694.853 3.224 2.216 3.224h4.242c.51 0 .68.252.68.596v2.035c0 .594-.26.765-.934.765-1.104 0-2.804-.254-11.632-.254-8.33 0-10.37.253-11.217.253-.513 0-.68-.254-.68-.765v-1.95c0-.43.168-.68.514-.68H79.7c1.867 0 3.228-.51 3.228-2.804.168-8.498.168-16.473.168-24.465V8.662c0-2.884-1.19-4.24-2.722-4.24h-3.308c-.423 0-.598-.173-.598-.518v-2.29c0-.42.175-.59.598-.59.594 0 3.308.254 11.635.254 4.758 0 12.572-.255 15.123-.255 6.793 0 12.063 2.29 15.464 5.346 3.054 2.715 4.584 6.292 4.584 9.52 0 10.697-6.455 15.12-15.8 16.644v.344c2.377.85 3.91 2.378 5.1 3.905 1.015 1.36 6.285 9.346 6.962 10.362.506.855 5.95 8.498 7.22 9.685 1.618 1.447 3.998 1.62 6.03 1.62.51 0 .68.25.68.592v1.78c0 .597-.17.85-.68.85-.68 0-2.88-.253-8.317-.253-2.387 0-5.61.17-7.48.253-1.022-.765-2.628-3.057-3.74-4.843-1.524-2.377-4.84-8.495-5.6-9.854-.852-1.527-3.232-5.434-4.59-7.305-2.124-2.97-4.076-5.262-7.646-5.262-.348 0-1.79.08-2.718.168v4.587zM154.115 36.782c.078 4.587.256 12.916.256 14.443 0 4.417 1.526 6.116 3.39 6.63 1.366.336 3.406.673 6.634.673 1.53 0 5.438-.17 7.134-.337 1.53-.168 4.76-1.018 6.97-2.885 1.523-1.363 6.28-6.968 7.895-9.006.342-.428.6-.51.936-.343l1.36.855c.254.162.335.42.17.848l-4.082 12.737c-.25.772-.852 1.276-1.87 1.276-.42 0-2.288-.084-7.558-.17-5.35 0-14.103-.082-28.282-.082-3.147 0-5.44.082-7.225.082-1.708.088-2.89.17-3.653.17-.51 0-.676-.17-.676-.676V58.96c0-.51.166-.684.845-.684h2.89c3.91 0 4.248-.505 4.248-3.65V26.083c0-6.968-.173-17.5-.34-18.687-.35-2.294-1.19-2.976-3.74-2.976h-3.228c-.337 0-.51-.17-.51-.59V1.612c0-.418.083-.59.51-.59 1.867 0 4.93.336 11.887.253h2.39c3.726 0 23.27-.166 27.01-.166 1.354 0 2.97-.086 3.39-.086.427 0 .598.17.684.51.335 1.103 3.566 12.655 3.913 13.503.166.51.075.767-.257.938l-1.53.672c-.254.09-.51 0-.77-.425-.336-.506-7.297-8.32-9.338-9.51-1.788-1.018-4.082-2.118-6.462-2.206l-12.913-.344-.166 24.557c2.548 0 8.67-.176 9.685-.433 1.862-.335 2.888-1.014 3.91-3.06.51-1.096 1.35-3.22 1.35-4.754 0-.506.345-.68.69-.68l2.208.175c.337 0 .596.17.51.68-.173 1.36-.173 6.96-.173 9.166 0 3.406.34 7.482.51 9.346 0 .423-.17.513-.678.596l-1.873.34c-.335.083-.506-.08-.682-.594-.334-1.356-.928-3.228-1.353-4.247-.767-1.7-2.375-2.89-4.25-3.06-3.06-.338-7.134-.507-9.855-.507l.088 5.095zM252.485 30.67c0-2.553 0-23.614-.17-23.96h-.336c-.683 1.196-11.39 25.993-12.408 28.204-1.273 2.72-9.935 22.765-10.362 23.613-.338.69-1.017 1.87-1.87 1.87-.508 0-1.013-.51-1.356-1.526-.334-.514-11.388-27.012-11.896-28.37-1.537-3.91-9.35-22.94-10.365-23.958-.347 1.19-.42 22.596-.42 23.615 0 1.022-.093 15.464.42 20.98.342 3.915 1.364 7.138 4.08 7.138h3.732c.515 0 .686.34.686.596v2.125c0 .344-.17.676-.847.676-.852 0-3.232-.25-9.68-.25-7.313 0-10.206.25-11.05.25-.68 0-.68-.167-.68-.76v-2.124c0-.17 0-.51.505-.51h3.912c2.89 0 3.82-3.057 4.25-6.03.764-5.948 1.272-26.846 1.272-28.373V9.343c0-3.057-.42-4.92-4.166-4.92h-3.733c-.516 0-.682-.34-.682-.595V1.53c0-.172.167-.505.683-.505.847 0 3.05.25 12.062.25 4.076 0 6.456-.25 7.47-.25 1.016 0 1.615.333 2.04 1.44 3.06 7.984 14.953 36.185 17.504 43.156.768-1.53 6.794-15.546 9.002-20.557 1.53-3.57 9.175-21.07 9.605-22.765.247-.85 1.268-1.023 3.308-1.023 12.403.083 15.29-.25 16.31-.25.342 0 .515.333.515.76v1.79c0 .507-.173.847-.684.847h-3.738c-2.214 0-2.38 1.524-2.468 3.31-.083 1.87-.083 18.858-.083 21.064v5.947c0 5.102.17 17.502.17 18.946.082 3.227.846 4.585 2.38 4.585h4.592c.505 0 .505.34.505.596v1.954c0 .515 0 .847-.675.847-1.026 0-5.104-.25-12.583-.25-8.317 0-11.55.25-12.74.25-.51 0-.666-.33-.666-.76v-1.95c0-.51.157-.685.668-.685h5.27c1.53 0 2.21-.506 2.463-2.97.086-.854.255-13.08.255-19.877V30.67zM295.468 33.896c0 .85.173 20.385.173 21.323 0 2.72 1.36 3.058 3.397 3.058h3.57c.347 0 .674.174.674.594v2.123c0 .506-.326.68-.84.68-1.025 0-4.422-.255-12.41-.255-8.494 0-12.228.255-13.076.255-.513 0-.676-.174-.676-.597v-2.29c0-.336.163-.51.676-.51h3.397c1.696 0 3.566-.176 3.908-2.463.17-1.19.342-19.54.342-24.13v-5.95c0-2.032-.17-17.323-.267-18.427-.246-2.038-1.094-2.886-3.472-2.886h-4.42c-.504 0-.678-.17-.678-.593V1.614c0-.42.174-.59.516-.59 1.01 0 5.43.253 13.75.253 8.164 0 10.88-.254 12.07-.254.51 0 .678.337.678.76v1.954c0 .513-.335.684-.677.684h-3.23c-1.87 0-3.23.68-3.23 2.29 0 .848-.173 19.544-.173 20.56v6.624zM330.554 8.5c-5.184 5.007-7.645 13.76-7.645 20.556 0 22.083 13.587 29.904 20.728 29.904 17.155 0 19.872-19.03 19.872-26.17 0-18.523-12.56-29.052-20.722-29.052-1.53 0-6.458-.848-12.234 4.762m32.616-1.703c6.37 5.178 11.56 13.593 11.56 25.145 0 6.286-1.703 12.91-6.282 18.69-5.444 6.794-12.752 12.06-25.49 12.06-5.096 0-12.404-1.526-19.196-5.608-6.04-3.65-12.405-12.91-12.405-25.142 0-5.095 1.45-13.165 7.82-21.067C326.64 1.703 335.82 0 343.126 0c6.28 0 13.08 1.195 20.043 6.797M27.527 446.266c.608.2 1.56.268 2.445.268 1.496 0 3.27-1.155 4.076-2.31.677-1.015.81-2.315.81-3.54 0-4.614-3.737-5.665-5.365-5.665-.61 0-1.422-.04-1.966.23v11.016zm-4.288-4.08c0-2.244 0-5.85-.033-6.224-.07-.576-.438-.743-1.193-.743H20.25l-.207-.24v-.848l.207-.274c.413 0 1.635.105 5.033.105.606 0 2.58-.105 3.736-.105 4.075 0 6.047.374 8.018 1.738 1.57 1.153 2.58 3.06 2.58 5.165 0 4.206-3.26 6.86-9.033 6.86-1.158 0-2.18 0-3.06-.138v1.498c0 1.635 0 6.255.036 6.69.1.755.436 1.092 1.054 1.092h1.903c.266 0 .266.137.266.235v.787c0 .2 0 .344-.266.344-.476 0-1.57-.11-5.234-.11-2.993 0-4.354.11-4.693.11-.27 0-.27-.144-.27-.244v-.853l.206-.268h1.088c1.155 0 1.424-.137 1.524-1.055.037-.335.1-5.642.1-9.58v-3.942zM48.763 446.06c.47.068.882.13 1.287.13 5.302 0 6.395-4.282 6.395-5.838 0-1.57-.65-3.032-1.5-3.81-1.227-1.087-2.784-1.456-4.484-1.456-.546 0-.954.027-1.226.196-.268.173-.403.574-.403.984l-.067 9.793zm-.064 3.056c0 2.033.063 5.85.13 6.355.096.68.338 1.29.886 1.29h1.695l.273.238v.82c0 .233-.103.31-.37.31-.447 0-1.126-.11-4.66-.11-3.332 0-4.14.11-4.485.11l-.273-.31v-.786l.202-.27h1.16c.744 0 1.286-.206 1.286-1.125.07-3.394.07-6.59.07-9.785v-8.933c0-1.157-.47-1.702-1.084-1.702H42.2l-.237-.2v-.92l.237-.24c.242 0 1.327.107 4.66.107 1.9 0 5.026-.108 6.045-.108 2.72 0 4.828.92 6.186 2.143 1.222 1.09 1.833 2.512 1.833 3.804 0 4.283-2.58 6.048-6.32 6.663v.135c.95.342 1.57.955 2.04 1.566.407.542 2.516 3.74 2.782 4.146.208.335 2.38 3.394 2.893 3.865.648.58 1.6.65 2.417.65l.267.236v.72c0 .23-.064.343-.267.343-.278 0-1.163-.113-3.332-.113-.958 0-2.243.073-2.99.112-.412-.314-1.054-1.232-1.496-1.95-.615-.946-1.94-3.394-2.244-3.937-.342-.61-1.293-2.177-1.833-2.922-.853-1.19-1.63-2.108-3.06-2.108-.138 0-.717.03-1.084.07v1.834zM73.437 436.854c-2.082 2.006-3.062 5.497-3.062 8.22 0 8.837 5.434 11.957 8.29 11.957 6.862 0 7.954-7.6 7.954-10.464 0-7.408-5.035-11.62-8.29-11.62-.622 0-2.587-.338-4.893 1.908m13.04-.687c2.55 2.077 4.625 5.437 4.625 10.062 0 2.51-.68 5.164-2.516 7.473-2.177 2.722-5.09 4.826-10.194 4.826-2.035 0-4.955-.615-7.68-2.237-2.416-1.466-4.962-5.173-4.962-10.064 0-2.04.577-5.27 3.13-8.426 2.986-3.67 6.658-4.36 9.588-4.36 2.504 0 5.226.485 8.01 2.723M101.635 445.722c0 .405.07 6.186.07 8.287 0 .68.138 1.226.607 1.903.41.645 1.706.916 2.986.916 2.658 0 5.373-1.19 7.07-3.432 1.433-1.834 2.457-4.625 2.457-7.745 0-2.722-1.164-5.64-2.725-7.408-1.83-1.977-4.825-3.193-7.613-3.193-.75 0-1.63 0-2.175.334-.47.276-.608.82-.608 1.498-.07 1.424-.07 5.84-.07 6.387v2.452zm-4.283-3.33c0-.89-.134-5.713-.205-6.226-.068-.812-.55-.948-1.227-.948h-1.827l-.276-.235v-.92l.308-.206c.984 0 2.756.107 5.126.107 1.706 0 3.404-.107 5.102-.107 4.557 0 8.227.444 11.35 3.098 2.248 1.827 3.81 4.686 3.81 8.63 0 3.875-1.088 6.45-3.336 8.898-3.326 3.607-8.63 3.646-10.937 3.646-1.293 0-4.765-.114-6.463-.114-2.99 0-4.347.113-4.823.113-.137 0-.198-.08-.198-.314v-.848l.268-.205h1.97c.68 0 1.014-.27 1.124-.85.1-.677.234-8.357.234-10.946v-2.576zM124.976 436.917c0-1.156-.266-1.698-1.15-1.698h-1.562c-.21 0-.276-.077-.276-.31v-.778c0-.206.066-.274.344-.274.337 0 1.972.105 5.23.105 2.853 0 4.485-.105 4.89-.105l.277.237v.85l-.278.274h-1.42c-1.025 0-1.634.61-1.673 1.32-.033.416-.096 2.45-.096 4.42v4.213c0 1.705.03 4.112.095 5.204.102 1.56.378 3.12 1.19 4.213 1.16 1.56 2.992 2.103 4.627 2.103 1.556 0 3.47-.613 4.554-1.63 1.29-1.29 1.968-3.26 1.968-5.74v-6.117c0-2.72-.27-5.71-.38-6.497-.1-.88-.64-1.49-1.39-1.49h-1.223l-.266-.238v-.85l.265-.274c.342 0 1.906.105 4.144.105 2.11 0 3.204-.105 3.47-.105.306 0 .343.105.343.274v.78l-.203.307h-1.23c-1.22 0-1.355.95-1.423 1.32-.07.416-.07 5.17-.07 5.613 0 .472-.072 6.382-.2 7.748-.212 2.786-1.018 4.888-2.86 6.525-1.42 1.29-3.602 2.103-6.184 2.103-1.635 0-3.6-.268-4.892-.813-1.97-.816-3.334-2.375-4.006-4.555-.48-1.495-.618-3.73-.618-8.195v-8.048zM171.33 452.48l.063.343c-2.035 2.915-5.294 5.706-10.117 5.706-4.352 0-6.795-1.287-8.906-3.192-2.52-2.246-3.673-6.19-3.673-9.18 0-3.325 1.085-6.52 3.465-9.1 1.833-1.97 4.762-3.61 8.835-3.61 3.13 0 5.644.962 6.868 1.64.47.268.61.268.677 0l.27-.893c.067-.2.143-.2.546-.2.413 0 .48.068.48.542 0 .606.676 6.05.815 7.067l-.14.342-.65.207c-.165.07-.265-.07-.37-.344-.406-1.223-1.217-2.92-2.65-4.42-1.492-1.43-3.26-2.515-5.917-2.515-5.43 0-7.677 4.89-7.677 9.79 0 2.114.613 6.113 3.134 8.833 2.236 2.384 4.205 2.653 5.835 2.653 3.74 0 6.7-1.866 8.12-3.945.174-.234.313-.337.413-.234l.577.51zM196.133 452.48l.073.343c-2.04 2.915-5.306 5.706-10.134 5.706-4.347 0-6.793-1.287-8.9-3.192-2.513-2.246-3.674-6.19-3.674-9.18 0-3.325 1.092-6.52 3.472-9.1 1.828-1.97 4.755-3.61 8.833-3.61 3.13 0 5.646.962 6.868 1.64.47.268.617.268.678 0l.27-.893c.074-.2.143-.2.548-.2.406 0 .472.068.472.542 0 .606.682 6.05.82 7.067l-.14.342-.648.207c-.167.07-.267-.07-.37-.344-.405-1.223-1.224-2.92-2.648-4.42-1.495-1.43-3.264-2.515-5.918-2.515-5.43 0-7.68 4.89-7.68 9.79 0 2.114.612 6.113 3.126 8.833 2.248 2.384 4.217 2.653 5.844 2.653 3.736 0 6.702-1.866 8.13-3.945.165-.234.305-.337.41-.234l.57.51zM205.995 447.014c0 .337.058 8.15.058 8.524 0 1.09.548 1.224 1.36 1.224h1.426l.272.235v.853l-.332.278c-.413 0-1.77-.112-4.975-.112-3.388 0-4.89.112-5.23.112l-.267-.244v-.916l.266-.206h1.36c.685 0 1.435-.07 1.572-.99.06-.47.132-7.81.132-9.645v-2.383c0-.81-.07-6.926-.097-7.37-.11-.82-.452-1.157-1.4-1.157h-1.764l-.27-.234v-.89l.202-.234c.406 0 2.177.106 5.497.106 3.27 0 4.36-.107 4.833-.107l.274.304v.78l-.274.273h-1.295c-.742 0-1.29.28-1.29.914 0 .343-.058 7.815-.058 8.233v2.65zM222.602 431.374l.07-.27 4.655-4.455c.34-.33.955-.573 1.432-.573.815 0 1.458.78 1.458 1.56 0 .58-.445 1.252-1.256 1.633l-5.715 2.65h-.232l-.413-.546zm-2.585 5.48c-2.072 2.004-3.054 5.498-3.054 8.217 0 8.84 5.436 11.96 8.3 11.96 6.86 0 7.95-7.6 7.95-10.463 0-7.408-5.036-11.623-8.305-11.623-.603 0-2.577-.337-4.89 1.91m13.056-.686c2.54 2.077 4.62 5.436 4.62 10.06 0 2.516-.684 5.167-2.516 7.476-2.17 2.722-5.097 4.823-10.2 4.823-2.037 0-4.96-.61-7.678-2.238-2.412-1.465-4.96-5.17-4.96-10.063 0-2.035.576-5.268 3.127-8.422 2.993-3.672 6.663-4.36 9.588-4.36 2.514 0 5.224.482 8.02 2.723M245.236 442.658c0 5.778.26 10.536.342 11.59.064 1.702.474 2.51 1.688 2.51h.89c.273 0 .273.14.273.308v.782c0 .203 0 .28-.274.28-.34 0-2.38-.11-3.675-.11-.88 0-3.195.11-3.527.11-.14 0-.205-.077-.205-.314v-.848l.205-.208h1.153c.882 0 1.36-.747 1.532-2.817.032-.612.235-5.367.235-10.803v-4.318c0-2.04-1.156-3.602-2.654-3.602h-1.078l-.203-.237v-.918l.202-.205c.166 0 .44.034 1.048.07.61.037 1.527.037 3.025.037.574 0 1.085-.036 1.49-.073.447 0 .753-.033.953-.033.41 0 .608.107.816.305.342.347 7.003 8.7 7.68 9.656.48.543 5.778 7.133 6.325 7.814h.134v-3.54c0-2.988 0-4.686-.06-6.382-.074-1.298-.216-4.618-.385-5.2-.238-.816-.98-1.292-1.8-1.292h-1.08l-.21-.305v-.78c0-.205 0-.276.272-.276.41 0 1.495.107 3.804.107 2.036 0 2.86-.107 3.267-.107.27 0 .335.14.335.24v.78l-.203.34h-.943c-.684 0-1.026.546-1.13 1.797-.17 2.318-.515 8.026-.515 11.483v8.975c0 .476 0 .95-.395.95-.482 0-.887-.27-1.166-.54-.266-.334-2.104-2.446-4.202-4.965-2.387-2.917-5.036-6.118-5.442-6.65-.48-.484-5.917-7.28-6.323-7.755h-.204v4.146zM299.47 445.722c0-1.024 0-9.454-.07-9.593h-.134c-.27.48-4.554 10.403-4.96 11.29-.51 1.08-3.982 9.104-4.146 9.44-.14.274-.41.75-.748.75-.202 0-.415-.207-.55-.612-.134-.198-4.55-10.807-4.76-11.345-.605-1.566-3.73-9.18-4.14-9.585-.135.474-.172 9.035-.172 9.448 0 .406-.036 6.182.17 8.396.138 1.558.546 2.85 1.64 2.85h1.49l.27.236v.85c0 .137-.073.28-.34.28-.342 0-1.292-.112-3.877-.112-2.922 0-4.073.113-4.415.113-.274 0-.274-.08-.274-.314v-.848l.208-.205h1.56c1.154 0 1.528-1.224 1.704-2.41.308-2.384.506-10.74.506-11.353v-5.81c0-1.23-.17-1.972-1.66-1.972h-1.504l-.264-.235v-.92l.264-.206c.344 0 1.23.107 4.83.107 1.63 0 2.58-.107 2.99-.107.41 0 .646.14.815.574 1.226 3.204 5.98 14.483 7 17.268.312-.616 2.717-6.22 3.606-8.222.612-1.422 3.667-8.424 3.835-9.106.105-.342.516-.406 1.327-.406 4.965.032 6.116-.107 6.526-.107l.208.308v.713l-.272.34h-1.497c-.892 0-.953.613-.992 1.324-.027.743-.027 7.545-.027 8.425v2.384c0 2.037.066 7.004.066 7.578.032 1.293.34 1.835.953 1.835h1.827l.198.235v.786c0 .2 0 .345-.256.345-.416 0-2.045-.114-5.04-.114-3.32 0-4.614.113-5.098.113l-.27-.314v-.784l.27-.27h2.11c.62 0 .888-.204.993-1.187.03-.34.1-5.243.1-7.955v-1.898zM318.798 431.374l.07-.27 4.656-4.455c.34-.33.955-.573 1.427-.573.817 0 1.46.78 1.46 1.56 0 .58-.436 1.252-1.252 1.633l-5.71 2.65h-.237l-.412-.546zm3.775 15.945c-.344-.988-2.643-8.743-2.858-9.417-.135-.406-.198-.62-.338-.62-.21 0-.334.146-.44.444-.14.45-3.193 8.805-3.437 9.592h7.073zm-7.547 1.355c-.27.785-1.93 5.64-2.104 6.56-.066.267-.066.538-.066.714 0 .444.535.813 1.224.813h1.42c.278 0 .344.066.344.17v.85l-.268.346c-.482 0-1.91-.114-4.288-.114-2.517 0-3.262.113-3.736.113-.205 0-.205-.214-.205-.444v-.655l.205-.267h1.02c.95 0 1.562-.474 2.176-1.527.342-.616 2.783-6.737 3.81-9.583.23-.69 2.987-8.02 3.324-8.904.064-.34.274-.95.064-1.156l-.198-.406c0-.137.073-.274.344-.342 1.075-.278 2.95-1.292 3.362-1.7l.51-.345.407.617c.614 2.108 3.262 9.72 3.87 11.9.824 2.645 2.994 8.966 3.473 9.882.603 1.157 1.495 1.563 2.172 1.563h1.092l.266.234v.72c0 .2-.07.412-.344.412-.61 0-1.286-.114-5.03-.114-2.85 0-4.007.113-4.752.113-.273 0-.342-.214-.342-.414v-.685l.27-.267h.888c.95 0 1.224-.337 1.017-1.26-.273-1.22-1.634-5.577-2.04-6.828h-7.884zM336.575 450.44l.202.272c.06 1.09.342 2.378 1.293 3.878 1.014 1.63 2.78 2.44 4.486 2.44 1.832 0 4.417-1.15 4.417-3.975 0-3.127-1.427-4.146-5.035-5.5-1.088-.41-3.328-1.365-4.958-2.858-1.158-1.085-1.703-2.79-1.703-4.86 0-1.903.753-3.462 2.382-4.752 1.35-1.158 2.85-1.64 4.823-1.64 2.247 0 3.603.552 4.285.824.34.138.543.062.72-.106l.43-.445.482-.197c.203 0 .267.196.267.54 0 .545.544 5.3.544 5.637l-.2.244-.556.167-.332-.197c-.333-.95-.882-2.317-2.106-3.61-.885-.95-1.967-1.428-3.533-1.428-2.713 0-3.805 2.18-3.805 3.432 0 1.16.135 2.177.95 3.064.883.883 2.786 1.697 4.152 2.105 1.97.61 3.6 1.293 4.887 2.65 1.09 1.157 1.703 2.586 1.703 4.863 0 4.144-2.725 7.54-7.21 7.54-2.786 0-4.418-.613-5.78-1.63-.4-.273-.603-.405-.805-.405-.208 0-.342.27-.545.613-.208.338-.347.4-.614.4-.273 0-.412-.197-.412-.54.07-.41.547-5.914.61-6.322l.208-.267.753.064zM36.43 512.916c0 1.44 0 19.788.263 23.19h4.84c3.988 0 7.814 0 12.4-.43 4.584-.416 10.357-10.617 11.64-13.76.247-.505.506-.764 1.017-.505l1.695.678c.26.17.26.26.174.762-.263.6-3.654 14.616-4.17 16.908-2.203-.17-26.673-.257-34.487-.257-8.41 0-11.462.258-12.564.258-.602 0-.682-.17-.682-.762v-2.128c0-.418.08-.592.59-.592h2.635c3.14 0 3.655-1.192 3.655-2.123 0-1.617.252-22.767.252-27.944v-4.76c0-5.44-.17-14.44-.252-15.8-.17-2.213-.596-3.063-2.55-3.063h-3.145c-.504 0-.594-.426-.594-.858v-2.034c0-.418.09-.594.593-.594.935 0 3.994.26 11.723.26 9.944 0 13.51-.26 14.276-.26.674 0 .765.26.765.858v1.945c0 .427-.17.682-.86.682h-3.985c-2.634 0-2.97.85-2.97 3.144 0 1.105-.263 13.935-.263 19.878v7.308zM82.726 503.91c0-2.04-.25-17.33-.34-18.428-.166-2.045-1.014-2.896-2.795-2.896h-4.08c-.42 0-.676-.164-.676-.505v-2.46c0-.342.256-.518.594-.518 1.014 0 5.35.26 13.668.26 8.67 0 11.395-.26 12.578-.26.427 0 .594.26.594.77v2.12c0 .43-.252.594-.682.594h-2.458c-2.128 0-3.4.687-3.4 2.21 0 .854-.258 19.62-.258 20.645v6.54c0 .847.257 20.475.257 21.24 0 2.63 1.273 3.056 2.888 3.056h3.486c.422 0 .678.174.678.59v2.38c0 .343-.256.512-.762.512-1.02 0-4.423-.257-12.493-.257-8.918 0-12.566.258-13.502.258-.43 0-.676-.17-.676-.68v-2.3c0-.33.247-.502.677-.502h2.462c1.698 0 3.484-.252 3.826-2.292.17-1.28.418-19.627.418-24.125v-5.95zM125.377 528.375c.256 3.144 1.607 7.9 4.412 7.9h3.31c.516 0 .594.253.594.593v2.297c0 .337-.078.593-.765.593-.934 0-3.22-.256-9.422-.256-7.223 0-10.194.256-10.96.256-.678 0-.76-.09-.76-.762v-2.216c0-.252.082-.506.502-.506h3.484c2.72 0 3.74-3.907 4.08-6.626.76-6.03 1.525-26.08 1.525-27.61l-.084-12.994c0-3.914-.843-6.457-4.67-6.457h-2.8c-.512 0-.602-.252-.602-.594v-2.37c0-.264.09-.52.6-.52.846 0 3.14.256 13.16.256 3.998 0 6.632-.257 7.65-.257.853 0 1.525.09 2.036 1.448 5.44 14.442 11.554 28.542 16.31 41.284.937-1.618 7.393-17.42 7.903-18.604.342-.847 8.833-21.15 9.258-22.854.255-.936 1.36-1.017 3.91-1.017 13.255 0 16.14-.257 17.072-.257.425 0 .513.256.513.767v1.954c0 .51-.088.763-.687.763h-3.733c-1.95 0-2.204 1.527-2.204 3.31 0 1.28.08 22.176.165 23.962 0 1.69.256 20.298.256 21.825 0 3.228.77 4.59 1.954 4.59h4.075c.517 0 .598.253.598.593v2.128c0 .506-.08.762-.763.762-1.018 0-2.548-.256-12.573-.256-8.664 0-11.975.256-13.082.256-.593 0-.676-.256-.676-.762v-2.128c0-.416.083-.594.676-.594h4.755c1.447 0 2.214-.506 2.38-2.88.083-1.027.337-16.488.337-22.438v-25.904h-.503c-.854 1.447-10.366 24.548-11.898 28.032-1.786 3.907-9.345 22.767-9.766 23.535-.427.68-1.026 1.946-2.04 1.946-.594 0-1.104-.594-1.53-1.525-.258-.588-11.466-26.927-12.057-28.46-1.533-3.903-9.35-22.93-10.03-23.953-.34 1.185-.507 22.68-.507 23.7 0 1.02.083 12.57.594 20.048M222.048 510.537c1.872.418 3.826.508 5.18.508 2.634 0 6.883-2.717 8.752-5.693 1.698-2.634 2.035-5.86 2.035-9.006 0-11.718-8.488-14.186-11.97-14.186-1.45 0-2.467.09-3.997.427v27.95zm0 6.455c0 3.992.083 15.544.174 16.56.168 1.875 1.02 2.723 2.372 2.723h4.342c.59 0 .674.254.674.59v2.212c0 .423-.083.68-.77.68-1.187 0-3.816-.257-13.76-.257-7.474 0-10.783.257-11.718.257-.597 0-.684-.257-.684-.594v-2.297c0-.415.088-.59.517-.59h2.207c2.885 0 3.48-.424 3.733-2.547.083-.85.34-14.1.34-23.96v-9.766c0-5.61-.088-14.524-.166-15.545-.175-1.706-1.023-1.873-2.726-1.873h-3.99c-.422 0-.505-.163-.505-.68v-2.21c0-.418.082-.594.504-.594.936 0 3.99.257 12.918.257 1.525 0 6.536-.257 9.344-.257 10.442 0 15.46.853 20.377 4.674 3.572 2.722 6.123 7.565 6.123 13.17 0 10.19-8.16 17.155-22.42 17.155-2.64 0-4.596-.08-6.888-.257v3.147zM270.046 503.91c0-2.04-.254-17.33-.342-18.428-.166-2.045-1.02-2.896-2.805-2.896h-4.07c-.43 0-.683-.164-.683-.505v-2.46c0-.342.254-.518.594-.518 1.015 0 5.354.26 13.674.26 8.67 0 11.386-.26 12.573-.26.425 0 .6.26.6.77v2.12c0 .43-.26.594-.673.594h-2.468c-2.128 0-3.4.687-3.4 2.21 0 .854-.258 19.62-.258 20.645v6.54c0 .847.257 20.475.257 21.24 0 2.63 1.273 3.056 2.888 3.056h3.48c.427 0 .683.174.683.59v2.38c0 .343-.256.512-.77.512-1.01 0-4.414-.257-12.485-.257-8.917 0-12.57.258-13.5.258-.433 0-.685-.17-.685-.68v-2.3c0-.33.252-.502.684-.502h2.46c1.698 0 3.482-.252 3.82-2.292.172-1.28.426-19.627.426-24.125v-5.95zM332.654 512.827c-.762-2.546-5.778-20.387-6.372-22.508-.337-1.274-.506-1.875-.93-1.875-.512 0-.77.342-1.027 1.105-.425 1.104-7.72 21.154-8.403 23.277h16.732zm-17.836 3.397c-.677 1.79-4.848 13.423-4.848 16.145 0 1.866.763 3.906 3.318 3.906h2.972c.852 0 .935.342.935.68v1.864c0 .68-.083.938-.764.938-1.106 0-4.583-.26-11.554-.26-6.2 0-8.07.26-9.265.26-.505 0-.585-.51-.585-1.102v-1.613c0-.513.08-.767.586-.767h2.215c2.04 0 4.075-1.192 5.773-3.74 1.195-1.784 7.223-16.562 10.028-24.038.676-1.703 7.562-19.97 8.322-22.247.263-.87.68-1.968.092-2.904-.26-.337-.603-.76-.603-1.1 0-.253.17-.59.853-.764 2.72-.594 8.238-2.798 9.51-4.242.427-.427.69-.764 1.116-.764.5 0 .674.5.926 1.436 1.612 5.36 8.24 24.387 9.858 29.82 1.95 6.625 7.472 22.428 8.665 24.723 1.44 2.802 3.65 3.82 4.928 3.82h2.885c.516 0 .594.343.594.768v1.613c0 .508-.078 1.102-.767 1.102-1.61 0-3.39-.26-14.27-.26-7.05 0-10.027.26-11.725.26-.848 0-.936-.51-.936-1.102v-1.613c0-.425.088-.767.516-.767h2.375c2.3 0 3.06-.85 2.546-3.06-.76-3.056-4.075-13.928-5.093-16.992h-18.6z" fill="#262261"/><path d="M63.26 573.81s69.42-49.237 238.51-4.196c0 0 52.98 18.283 65.394 24.846-101.69-24.216-101.54-23.85-112.115-27.21-6.412-2.032-69.398-19.704-170.5 9.383 0 0-69.18 24.397-84.55 40.347 0 0 57.052-45.512 101.69-53.482 0 0-37.215 6.57-38.43 10.313M299.3 165.413s-34.215 61.122-43.65 99.585c0 0-9.913 30.91 11.32 27.365 0 0 6.916.237 7.828-8.96 0 0-1.04-3.122-5.168-1.358 0 0-6.262 1.063-2.42-13.746 3.837-14.805 15.233-50.493 28.075-68.234 0 0 19.825-34.536 22.3-38.423 2.483-3.9 5.13-12.566-4.246-12.393 0 0-5.26-.244-14.04 16.163" fill="#006838"/></svg>