<svg xmlns="http://www.w3.org/2000/svg" width="440" height="380.682"><path d="M100.657 204.824v79.999H24.756l.015-3.812.316-76.192h7.545l-.283 72.418h60.718v-72.412h7.592z" fill="#231f20"/><path d="M32.326 204.683h60.88v72.428h-60.88v-72.427z" fill="#ed2129" fill-rule="evenodd"/><path d="M134.18 261.034V243.76c3.956 0 5.93-1.517 5.93-4.53 0-2.763-1.516-4.148-4.544-4.148-3.048 0-4.58 1.896-4.58 5.697v43.026H111.41v-41c0-4.25.426-7.74 1.284-10.457.837-2.717 2.306-5.255 4.365-7.593 2.305-2.6 5.2-4.66 8.676-6.17 3.475-1.517 7.066-2.275 10.752-2.275 6.702 0 12.315 2.253 16.864 6.75 4.56 4.512 6.834 10.093 6.834 16.748 0 6.47-2.043 11.705-6.13 15.722-3.737 3.707-9.35 5.55-16.88 5.55l-2.995-.048zm59.15-25.805v19.302c-1.253-.71-2.406-1.06-3.422-1.06-3.28 0-4.923 2.508-4.923 7.515v22.82h-18.05v-26.3c0-6.93 1.89-12.48 5.698-16.612 3.786-4.133 8.856-6.192 15.195-6.192 1.417 0 3.25.184 5.502.526m28.127-.527c6.813 0 12.657 2.454 17.533 7.36 4.875 4.908 7.313 10.784 7.313 17.64 0 6.928-2.47 12.857-7.408 17.748-4.928 4.892-10.888 7.325-17.87 7.325-6.98 0-12.942-2.454-17.896-7.36-4.96-4.903-7.43-10.816-7.43-17.713 0-7.05 2.47-12.98 7.43-17.786 4.953-4.807 11.06-7.213 18.327-7.213m-.48 17.802c-1.926 0-3.574.69-4.922 2.09-1.348 1.4-2.027 3.112-2.027 5.14 0 2.01.69 3.705 2.058 5.122 1.37 1.416 2.996 2.12 4.892 2.12 1.927 0 3.57-.704 4.94-2.12 1.367-1.417 2.057-3.112 2.057-5.123 0-2.027-.674-3.74-2.027-5.14-1.348-1.4-3.012-2.09-4.97-2.09m50.898 31.302h-18.05V235.71h18.05v48.096zm-8.977-69.57c2.437 0 4.564.854 6.344 2.586 1.79 1.712 2.685 3.755 2.685 6.092 0 2.522-.844 4.58-2.54 6.176-1.68 1.61-3.853 2.417-6.49 2.417-2.633 0-4.808-.806-6.488-2.417-1.695-1.595-2.532-3.654-2.532-6.176 0-2.337.89-4.38 2.68-6.092 1.78-1.732 3.9-2.585 6.34-2.585m62.476 69.57h-18.044v-27.154c0-2.764-1.143-4.148-3.428-4.148-2.26 0-3.375 1.384-3.375 4.148v27.153h-18.05V256.98c0-6.27 2.075-11.54 6.224-15.838 4.15-4.296 9.24-6.44 15.248-6.44 6.88 0 12.4 2.486 16.548 7.478 3.243 3.885 4.876 9.303 4.876 16.253v25.373zM365.4 261.66l17.903-.673c-.51 6.944-3.096 12.657-7.756 17.138-4.675 4.46-10.34 6.702-17.043 6.702-7.06 0-13.042-2.453-17.917-7.376-4.876-4.922-7.308-10.95-7.308-18.095 0-6.787 2.452-12.6 7.375-17.423 4.923-4.823 10.836-7.23 17.717-7.23 6.013 0 11.31 1.896 15.912 5.703 4.607 3.78 7.455 8.624 8.593 14.5l-18.28.68c-1.58-2.06-3.576-3.08-5.993-3.08-2.06 0-3.76.673-5.075 2.027-1.318 1.347-1.976 3.06-1.976 5.117 0 2.095.71 3.832 2.106 5.25 1.4 1.42 3.15 2.126 5.24 2.126 3.042 0 5.217-1.796 6.5-5.365m48.578-26.957c6.818 0 12.663 2.454 17.538 7.36 4.87 4.908 7.308 10.784 7.308 17.64 0 6.928-2.47 12.857-7.408 17.748-4.923 4.892-10.888 7.325-17.87 7.325-6.976 0-12.936-2.454-17.89-7.36-4.96-4.903-7.43-10.816-7.43-17.713 0-7.05 2.47-12.98 7.43-17.786 4.954-4.807 11.06-7.213 18.322-7.213m-.48 17.802c-1.926 0-3.57.69-4.917 2.09-1.352 1.4-2.03 3.112-2.03 5.14 0 2.01.694 3.705 2.057 5.122 1.37 1.416 2.996 2.12 4.892 2.12 1.926 0 3.574-.704 4.943-2.12 1.364-1.417 2.053-3.112 2.053-5.123 0-2.027-.674-3.74-2.022-5.14-1.353-1.4-3.017-2.09-4.975-2.09" fill="#231f20"/><path d="M66.99 74.866c16.017 0 29.006 12.99 29.006 29 0 16.017-12.99 29.012-29.006 29.012-16.01 0-29-12.995-29-29.01 0-16.013 12.99-29.002 29-29.002" fill="#ed2129" fill-rule="evenodd"/><path d="M99.79 103.87H92.2l-.022-1.317-.095-1.28-.174-1.258-.21-1.232-.28-1.227-.348-1.184-.395-1.17-.447-1.152-.506-1.106-.553-1.09-.604-1.063-.67-1.016-.688-.99-.76-.958-.794-.905-.837-.873-.874-.843-.905-.795-.964-.743-.99-.706-1.01-.662-1.07-.61-1.084-.55-1.11-.51-1.154-.447-1.17-.394-1.184-.347-1.22-.28-1.24-.21-1.257-.17-1.28-.094-1.316-.026v-7.588l1.668.053 1.67.126 1.642.2 1.622.302 1.58.368 1.568.432 1.527.516 1.48.595 1.464.653 1.412.732 1.363.79 1.343.842 1.285.91 1.226.98 1.2 1.032 1.142 1.08 1.08 1.137 1.026 1.2.97 1.23.926 1.286.842 1.342.79 1.36.727 1.415.658 1.46.596 1.483.51 1.522.438 1.57.368 1.584.3 1.616.2 1.643.127 1.67.05 1.67zm-32.8 32.8v-7.59l1.316-.022 1.28-.095 1.257-.174 1.238-.21 1.222-.28 1.185-.348 1.17-.395 1.152-.447 1.11-.506 1.084-.553 1.07-.604 1.01-.67.99-.69.964-.757.905-.79.874-.843.837-.874.795-.906.758-.963.69-.99.668-1.01.606-1.07.552-1.084.506-1.11.447-1.154.395-1.17.348-1.184.28-1.227.21-1.232.173-1.258.095-1.28.02-1.316h7.593l-.05 1.668-.128 1.664-.2 1.648-.3 1.622-.368 1.58-.437 1.568-.51 1.527-.596 1.48-.657 1.458-.727 1.416-.79 1.365-.842 1.337-.927 1.29-.968 1.227-1.028 1.2-1.08 1.142-1.142 1.08-1.2 1.026-1.227.97-1.285.926-1.343.842-1.363.79-1.41.727-1.465.658-1.48.59-1.526.516-1.568.437-1.58.37-1.622.3-1.642.2-1.67.126-1.67.05zm-32.797-32.8h7.587l.026 1.316.095 1.28.17 1.257.21 1.232.28 1.227.352 1.185.395 1.17.442 1.152.51 1.11.547 1.084.61 1.07.67 1.01.7.99.742.963.794.906.843.874.874.843.906.79.964.757.984.69 1.017.67 1.064.604 1.09.554 1.106.506 1.153.447 1.17.395 1.183.348 1.227.28 1.232.21 1.26.173 1.278.095 1.316.02v7.593l-1.67-.05-1.663-.128-1.648-.2-1.618-.3-1.585-.37-1.563-.436-1.527-.516-1.48-.59-1.464-.657-1.416-.727-1.358-.79-1.344-.842-1.285-.927-1.23-.97-1.196-1.025-1.142-1.08-1.08-1.142-1.032-1.2-.98-1.227-.91-1.29-.848-1.338-.784-1.363-.732-1.417-.653-1.458-.595-1.48-.516-1.527-.432-1.57-.368-1.578-.3-1.622-.2-1.648-.127-1.664-.052-1.67zM66.99 71.07v7.588l-1.317.026-1.28.095-1.258.17-1.232.21-1.227.28-1.184.346-1.17.395-1.152.45-1.106.51-1.09.547-1.063.61-1.016.664-.984.707-.964.742-.905.794-.873.843-.843.874-.795.906-.743.958-.7.99-.67 1.017-.61 1.064-.547 1.09-.51 1.106-.443 1.153-.395 1.17-.353 1.183-.28 1.227-.21 1.232-.17 1.258-.094 1.28-.026 1.316h-7.587l.052-1.67.127-1.67.2-1.642.3-1.616.368-1.585.432-1.57.516-1.52.595-1.485.653-1.46.732-1.415.784-1.358.848-1.344.91-1.285.98-1.23 1.032-1.2 1.08-1.14 1.142-1.078 1.195-1.032 1.23-.98 1.286-.91L50 75.837l1.357-.79 1.416-.73 1.464-.654 1.48-.595 1.526-.516 1.564-.432 1.585-.368 1.616-.3 1.648-.2 1.664-.127 1.67-.053z" fill="#231f20"/><path d="M28.7 3.662H105c55.116 0 100.207 45.096 100.207 100.207 0 55.115-45.092 100.21-100.208 100.21H28.7v-57.663h68.21c23.598 0 42.9-19.303 42.9-42.9 0-23.594-19.302-42.89-42.9-42.89H28.7V3.66z" fill="#a7a9ac" fill-rule="evenodd"/><path d="M105 7.324H28.697V0H105v7.324zm103.87 96.547h-7.323l-.116-4.953-.372-4.88-.627-4.83-.84-4.738-1.086-4.65-1.31-4.575-1.523-4.48-1.73-4.37-1.944-4.282-2.132-4.16-2.333-4.043-2.515-3.922-2.7-3.786-2.882-3.65-3.043-3.506-3.206-3.36-3.36-3.21-3.51-3.038-3.645-2.88-3.787-2.702-3.927-2.516-4.04-2.333-4.158-2.132-4.28-1.943-4.37-1.732-4.482-1.522-4.575-1.316-4.648-1.08-4.74-.842-4.827-.627-4.886-.373-4.95-.116V0l5.323.147 5.254.406 5.176.653 5.107.926 5.023 1.164 4.918 1.4 4.82 1.638 4.716 1.874 4.597 2.085 4.475 2.307 4.354 2.506 4.213 2.71 4.07 2.902 3.933 3.08 3.77 3.275 3.61 3.44 3.44 3.61 3.27 3.77 3.085 3.934 2.9 4.07 2.712 4.212 2.506 4.353 2.308 4.475 2.085 4.592 1.874 4.717 1.638 4.823 1.395 4.918 1.17 5.023.925 5.108.653 5.17.406 5.26.147 5.323zm-7.323 0h3.66-3.66zm7.324 0zM105 207.738v-7.323l4.95-.116 4.885-.374 4.828-.627 4.74-.842 4.648-1.08 4.576-1.31 4.48-1.527 4.37-1.727 4.282-1.942 4.16-2.133 4.038-2.337 3.927-2.512 3.786-2.7 3.643-2.88 3.512-3.044 3.36-3.207 3.205-3.36 3.043-3.51 2.88-3.644 2.702-3.79 2.516-3.923 2.334-4.038 2.132-4.16 1.943-4.28 1.73-4.377 1.523-4.475 1.31-4.575 1.086-4.65.84-4.738.628-4.828.373-4.886.117-4.95h7.324l-.146 5.324-.406 5.255-.653 5.17-.926 5.107-1.17 5.028-1.395 4.918-1.638 4.817-1.874 4.718-2.085 4.596-2.307 4.476-2.505 4.354-2.71 4.207-2.902 4.076-3.086 3.933-3.27 3.77-3.438 3.61-3.613 3.44-3.77 3.27-3.932 3.084-4.07 2.896-4.213 2.717-4.354 2.506-4.475 2.306-4.597 2.084-4.717 1.875-4.82 1.636-4.917 1.395-5.023 1.17-5.107.927-5.176.653-5.254.405-5.323.142zm-79.962-3.66l3.66-3.663H105v7.323H28.697l-3.66-3.66zm3.66 3.66h-3.66v-3.66l3.66 3.66zm0-64.982l3.663 3.66v57.663H25.04v-57.664l3.66-3.66zm-3.66 3.66v-3.66h3.66l-3.66 3.66zm71.874 3.658H28.697v-7.318h68.215v7.318zm39.23-46.554h7.325l-.068 2.373-.18 2.354-.29 2.327-.42 2.29-.528 2.26-.62 2.2-.738 2.164-.837 2.116-.938 2.06-1.038 2.005-1.12 1.953-1.218 1.884-1.3 1.822-1.374 1.768-1.47 1.685-1.547 1.622-1.606 1.537-1.69 1.464-1.764 1.374-1.827 1.3-1.885 1.222-1.952 1.122-2.006 1.032-2.054.937-2.116.842-2.164.732-2.2.62-2.26.528-2.296.42-2.322.29-2.358.18-2.37.068v-7.318l2.027-.042 1.984-.153 1.954-.258 1.922-.337 1.885-.442 1.858-.537 1.822-.616 1.774-.7 1.737-.79 1.695-.864 1.638-.953 1.6-1.016 1.538-1.1 1.48-1.175 1.426-1.237 1.38-1.31 1.295-1.36 1.236-1.432 1.174-1.48 1.095-1.542 1.022-1.594.953-1.638.863-1.69.79-1.743.7-1.774.616-1.815.536-1.864.443-1.884.336-1.922.258-1.953.152-1.984.037-2.027zm7.325 0h-3.66 3.66zm-7.324 0zM96.913 64.28V56.96l2.37.072 2.358.18 2.322.29 2.296.42 2.26.527 2.2.62 2.164.732 2.116.842 2.054.937 2.006 1.033 1.953 1.122 1.886 1.22 1.827 1.302 1.764 1.374 1.69 1.465 1.606 1.537 1.548 1.622 1.47 1.685 1.374 1.768 1.3 1.827 1.217 1.88 1.122 1.953 1.038 2.006.937 2.06.837 2.115.737 2.163.622 2.2.527 2.26.42 2.29.29 2.327.18 2.36.067 2.37h-7.324l-.037-2.03-.152-1.984-.258-1.953-.337-1.922-.444-1.884-.537-1.864-.617-1.816-.7-1.774-.79-1.743-.863-1.69-.953-1.64-1.022-1.6-1.095-1.537-1.174-1.48-1.237-1.426-1.296-1.364-1.38-1.31-1.427-1.238-1.48-1.174-1.537-1.1-1.6-1.016-1.638-.953-1.695-.862-1.738-.79-1.775-.7-1.822-.616-1.858-.537-1.885-.443-1.922-.337-1.954-.258-1.984-.152-2.028-.043zm-71.875-3.66l3.66-3.663H96.91v7.322H28.697l-3.66-3.66zm3.66 3.66h-3.66v-3.66l3.66 3.66zm0-64.282l3.663 3.66v56.963H25.04V3.66L28.698 0zm-3.66 3.66V0h3.66l-3.66 3.66zM6.302 323.3H7.84c1.21 0 2.06-.21 2.548-.63.49-.422.737-.96.737-1.618 0-.637-.216-1.174-.637-1.616-.426-.448-1.227-.67-2.395-.67h-1.79v4.535zM0 314.64h10.43c2.275 0 3.976.536 5.108 1.62 1.132 1.08 1.7 2.618 1.7 4.613 0 2.048-.62 3.654-1.853 4.807-1.232 1.16-3.117 1.738-5.644 1.738H6.303v7.534H0V314.64zM26.908 322.87h2.65c.283 0 .836-.095 1.657-.274.416-.09.758-.3 1.022-.637.263-.35.394-.738.394-1.18 0-.66-.21-1.16-.625-1.512-.41-.352-1.195-.53-2.338-.53h-2.76v4.132zM20.6 334.953V314.64H31.07c1.937 0 3.422.164 4.444.495 1.026.337 1.853.953 2.48 1.854.63.9.942 1.994.942 3.29 0 1.126-.237 2.1-.716 2.916-.485.816-1.143 1.48-1.985 1.99-.537.322-1.27.59-2.206.8.747.248 1.295.5 1.637.75.227.167.564.52 1 1.067.443.548.732.97.88 1.264l3.043 5.886h-7.092l-3.36-6.207c-.42-.806-.8-1.327-1.136-1.57-.454-.31-.965-.468-1.54-.468h-.552v8.245H20.6zM47.594 324.84c0 2.052.38 3.52 1.143 4.416.763.895 1.8 1.348 3.11 1.348 1.35 0 2.392-.442 3.134-1.316.738-.88 1.107-2.454 1.107-4.73 0-1.91-.385-3.305-1.16-4.19-.767-.884-1.815-1.32-3.137-1.32-1.263 0-2.28.446-3.048 1.34-.764.897-1.148 2.38-1.148 4.45m-6.276-.026c0-3.322.92-5.902 2.77-7.745 1.848-1.853 4.422-2.775 7.718-2.775 3.38 0 5.987.906 7.814 2.723 1.832 1.816 2.748 4.36 2.748 7.63 0 2.373-.4 4.32-1.2 5.838-.8 1.52-1.954 2.706-3.465 3.55-1.51.846-3.39 1.267-5.65 1.267-2.29 0-4.185-.368-5.686-1.095-1.5-.726-2.717-1.885-3.65-3.464-.936-1.58-1.4-3.558-1.4-5.928M72.107 319.24v11.1h1.538c1.31 0 2.243-.144 2.8-.438.553-.29.99-.8 1.3-1.522.317-.727.475-1.906.475-3.528 0-2.153-.353-3.627-1.053-4.423-.706-.796-1.87-1.19-3.496-1.19h-1.563zm-6.276-4.602h9.326c1.837 0 3.322.247 4.454.747 1.132.5 2.07 1.217 2.806 2.15.743.93 1.274 2.015 1.606 3.253.337 1.242.5 2.553.5 3.938 0 2.17-.247 3.854-.742 5.054-.495 1.196-1.18 2.196-2.06 3.007-.873.805-1.815 1.342-2.82 1.61-1.38.37-2.628.56-3.744.56H65.83v-20.32zM101.04 314.64h6.266v12.105c0 1.195-.19 2.332-.564 3.396-.373 1.07-.958 2-1.758 2.802-.8.795-1.638 1.358-2.517 1.68-1.216.452-2.685.678-4.39.678-.99 0-2.07-.068-3.24-.21-1.168-.137-2.142-.41-2.927-.822-.784-.41-1.505-.995-2.158-1.753-.648-.753-1.095-1.537-1.338-2.338-.384-1.295-.58-2.437-.58-3.432V314.64h6.262v12.39c0 1.11.31 1.973.92 2.595.617.62 1.47.937 2.56.937 1.08 0 1.927-.31 2.543-.922.615-.616.92-1.484.92-2.61v-12.39zM124.986 326.64l5.502 1.663c-.37 1.543-.953 2.833-1.748 3.865-.795 1.037-1.78 1.816-2.96 2.343-1.173.527-2.674.79-4.496.79-2.206 0-4.012-.32-5.407-.963-1.4-.642-2.612-1.77-3.628-3.386-1.017-1.615-1.522-3.68-1.522-6.2 0-3.365.89-5.945 2.68-7.75 1.79-1.807 4.317-2.708 7.587-2.708 2.56 0 4.57.516 6.034 1.554 1.462 1.032 2.552 2.622 3.263 4.765l-5.544 1.238c-.196-.62-.396-1.074-.607-1.364-.352-.48-.784-.847-1.29-1.105-.51-.26-1.08-.39-1.706-.39-1.42 0-2.51.573-3.27 1.715-.573.848-.857 2.185-.857 4.002 0 2.248.342 3.796 1.02 4.628.685.837 1.65 1.253 2.886 1.253 1.2 0 2.106-.337 2.722-1.01.616-.675 1.06-1.654 1.338-2.94M132.108 314.64h19.08v5.018h-6.4v15.295h-6.278v-15.295h-6.402v-5.018zM158.546 324.84c0 2.052.38 3.52 1.143 4.416.762.895 1.8 1.348 3.11 1.348 1.348 0 2.39-.442 3.133-1.316.737-.88 1.106-2.454 1.106-4.73 0-1.91-.386-3.305-1.16-4.19-.768-.884-1.816-1.32-3.138-1.32-1.263 0-2.28.446-3.048 1.34-.764.897-1.148 2.38-1.148 4.45m-6.276-.026c0-3.322.92-5.902 2.77-7.745 1.847-1.853 4.422-2.775 7.718-2.775 3.38 0 5.987.906 7.814 2.723 1.832 1.816 2.748 4.36 2.748 7.63 0 2.373-.4 4.32-1.2 5.838-.8 1.52-1.954 2.706-3.465 3.55-1.51.846-3.396 1.267-5.65 1.267-2.29 0-4.185-.368-5.686-1.095-1.5-.726-2.718-1.885-3.65-3.464-.937-1.58-1.4-3.558-1.4-5.928M175.604 328.234l5.97-.374c.132.968.396 1.706.79 2.216.648.822 1.575 1.232 2.775 1.232.894 0 1.584-.21 2.07-.63.483-.417.725-.907.725-1.46 0-.526-.226-1-.69-1.416-.463-.416-1.532-.806-3.217-1.174-2.753-.622-4.717-1.443-5.886-2.47-1.185-1.026-1.774-2.332-1.774-3.922 0-1.043.3-2.033.905-2.96.606-.926 1.517-1.658 2.733-2.19 1.21-.526 2.88-.795 4.99-.795 2.602 0 4.577.486 5.94 1.45 1.364.968 2.175 2.5 2.433 4.606l-5.92.348c-.157-.916-.484-1.58-.99-1.996-.505-.416-1.2-.62-2.084-.62-.732 0-1.28.152-1.648.462-.37.306-.558.685-.558 1.127 0 .327.152.616.458.874.3.27 1 .517 2.106.75 2.743.594 4.712 1.19 5.897 1.794 1.19.606 2.054 1.36 2.59 2.254.544.895.812 1.895.812 3.006 0 1.3-.358 2.5-1.08 3.6-.72 1.102-1.726 1.94-3.02 2.502-1.29.57-2.924.853-4.893.853-3.455 0-5.845-.664-7.177-1.996-1.332-1.327-2.085-3.017-2.26-5.07M206.908 314.64h6.292v20.314h-6.292V314.64zM217.744 314.64h5.86l7.65 11.236V314.64h5.918v20.313h-5.918l-7.608-11.152v11.153h-5.902V314.64zM247.703 319.24v11.1h1.537c1.31 0 2.248-.144 2.8-.438.554-.29.99-.8 1.302-1.522.316-.727.474-1.906.474-3.528 0-2.153-.353-3.627-1.053-4.423-.706-.796-1.87-1.19-3.496-1.19h-1.564zm-6.276-4.602h9.324c1.84 0 3.324.247 4.456.747 1.132.5 2.07 1.217 2.806 2.15.742.93 1.274 2.015 1.606 3.253.332 1.242.5 2.553.5 3.938 0 2.17-.247 3.854-.742 5.054-.49 1.196-1.18 2.196-2.06 3.007-.873.805-1.816 1.342-2.82 1.61-1.38.37-2.63.56-3.745.56h-9.323v-20.32zM276.636 314.64h6.265v12.105c0 1.195-.188 2.332-.562 3.396-.374 1.07-.958 2-1.758 2.802-.8.795-1.638 1.358-2.517 1.68-1.222.452-2.685.678-4.39.678-.99 0-2.07-.068-3.234-.21-1.17-.137-2.15-.41-2.934-.822-.79-.41-1.506-.995-2.16-1.753-.646-.753-1.094-1.537-1.336-2.338-.384-1.295-.58-2.437-.58-3.432V314.64h6.26v12.39c0 1.11.312 1.973.923 2.595.616.62 1.47.937 2.558.937 1.08 0 1.928-.31 2.545-.922.616-.616.92-1.484.92-2.61v-12.39zM285.96 328.234l5.976-.374c.126.968.39 1.706.785 2.216.648.822 1.575 1.232 2.775 1.232.895 0 1.585-.21 2.07-.63.49-.417.73-.907.73-1.46 0-.526-.23-1-.694-1.416-.462-.416-1.53-.806-3.216-1.174-2.748-.622-4.712-1.443-5.886-2.47-1.18-1.026-1.775-2.332-1.775-3.922 0-1.043.3-2.033.91-2.96.602-.926 1.518-1.658 2.73-2.19 1.215-.526 2.88-.795 4.995-.795 2.596 0 4.57.486 5.94 1.45 1.358.968 2.17 2.5 2.432 4.606l-5.918.348c-.158-.916-.49-1.58-.995-1.996-.5-.416-1.195-.62-2.085-.62-.732 0-1.28.152-1.648.462-.37.306-.553.685-.553 1.127 0 .327.154.616.46.874.294.27.994.517 2.105.75 2.743.594 4.707 1.19 5.897 1.794 1.185.606 2.048 1.36 2.59 2.254.538.895.81 1.895.81 3.006 0 1.3-.362 2.5-1.083 3.6-.717 1.102-1.728 1.94-3.018 2.502-1.295.57-2.928.853-4.892.853-3.453 0-5.85-.664-7.18-1.996-1.328-1.327-2.08-3.017-2.26-5.07M306.122 314.64h19.08v5.018H318.8v15.295h-6.276v-15.295h-6.402v-5.018zM334.432 322.87h2.648c.29 0 .843-.095 1.664-.274.416-.09.753-.3 1.016-.637.263-.35.395-.738.395-1.18 0-.66-.205-1.16-.62-1.512-.417-.352-1.197-.53-2.344-.53h-2.758v4.132zm-6.303 12.083V314.64h10.46c1.94 0 3.424.164 4.45.495 1.027.337 1.848.953 2.48 1.854.627.9.943 1.994.943 3.29 0 1.126-.243 2.1-.722 2.916-.478.816-1.14 1.48-1.984 1.99-.53.322-1.27.59-2.206.8.753.248 1.295.5 1.638.75.23.167.563.52 1.005 1.067.437.548.732.97.874 1.264l3.044 5.886h-7.092l-3.36-6.207c-.42-.806-.8-1.327-1.13-1.57-.454-.31-.964-.468-1.543-.468h-.553v8.245h-6.303zM350.368 314.64h6.292v20.314h-6.292V314.64zM372.352 327.207l-2.243-7.303-2.218 7.303h4.46zm1.3 4.39h-7.124l-.995 3.355h-6.408l7.64-20.313h6.845l7.634 20.312h-6.576l-1.016-3.354zM383.24 314.64h6.275v15.31h9.798v5.003H383.24V314.64zM402.152 314.64h16.823v4.338h-10.53v3.228h9.766v4.144h-9.766v4h10.836v4.603h-17.128V314.64zM421.567 328.234l5.97-.374c.132.968.395 1.706.79 2.216.648.822 1.574 1.232 2.775 1.232.895 0 1.585-.21 2.07-.63.484-.417.73-.907.73-1.46 0-.526-.23-1-.694-1.416-.463-.416-1.532-.806-3.217-1.174-2.753-.622-4.71-1.443-5.886-2.47-1.184-1.026-1.774-2.332-1.774-3.922 0-1.043.3-2.033.906-2.96.605-.926 1.516-1.658 2.732-2.19 1.217-.526 2.88-.795 4.997-.795 2.59 0 4.57.486 5.934 1.45 1.363.968 2.173 2.5 2.437 4.606l-5.918.348c-.16-.916-.49-1.58-.997-1.996-.5-.416-1.195-.62-2.085-.62-.73 0-1.28.152-1.648.462-.368.306-.552.685-.552 1.127 0 .327.147.616.452.874.3.27 1 .517 2.112.75 2.738.594 4.707 1.19 5.89 1.794 1.19.606 2.055 1.36 2.597 2.254.536.895.81 1.895.81 3.006 0 1.3-.363 2.5-1.085 3.6-.72 1.102-1.727 1.94-3.017 2.502-1.295.57-2.927.853-4.896.853-3.454 0-5.844-.664-7.177-1.996-1.332-1.327-2.085-3.017-2.258-5.07M73.406 359.257v11.1h1.537c1.31 0 2.243-.143 2.802-.438.552-.29.99-.796 1.3-1.523.316-.726.474-1.9.474-3.527 0-2.154-.354-3.623-1.054-4.423-.706-.795-1.87-1.19-3.496-1.19h-1.564zm-6.276-4.602h9.325c1.837 0 3.322.253 4.454.748 1.13.5 2.068 1.216 2.805 2.153.743.932 1.274 2.017 1.606 3.254.338 1.237.5 2.55.5 3.933 0 2.175-.246 3.86-.74 5.055-.496 1.195-1.18 2.2-2.055 3-.88.812-1.82 1.35-2.827 1.617-1.38.374-2.627.558-3.743.558H67.13v-20.318zM89.106 354.657h16.822v4.34h-10.53v3.226h9.767v4.144h-9.767v4.007h10.836v4.596H89.106v-20.313zM132.603 366.66l5.503 1.663c-.37 1.542-.953 2.832-1.75 3.864-.794 1.037-1.778 1.817-2.958 2.343-1.174.527-2.674.79-4.496.79-2.206 0-4.012-.32-5.407-.964-1.4-.642-2.612-1.77-3.628-3.385-1.016-1.615-1.522-3.685-1.522-6.207 0-3.36.895-5.94 2.68-7.745 1.79-1.806 4.318-2.706 7.587-2.706 2.56 0 4.57.516 6.034 1.553 1.464 1.032 2.554 2.622 3.265 4.765l-5.544 1.232c-.194-.616-.394-1.07-.61-1.358-.348-.48-.78-.848-1.285-1.106-.51-.258-1.078-.39-1.705-.39-1.42 0-2.51.57-3.27 1.717-.573.848-.858 2.185-.858 4 0 2.25.342 3.792 1.022 4.63.683.837 1.647 1.253 2.884 1.253 1.2 0 2.106-.337 2.722-1.01.616-.675 1.058-1.655 1.337-2.94M146.64 364.855c0 2.054.38 3.528 1.143 4.423s1.8 1.343 3.112 1.343c1.348 0 2.39-.436 3.132-1.316.738-.88 1.106-2.453 1.106-4.722 0-1.917-.384-3.312-1.158-4.197-.77-.88-1.817-1.32-3.138-1.32-1.264 0-2.28.446-3.05 1.34-.762.896-1.147 2.38-1.147 4.45m-6.276-.026c0-3.318.922-5.898 2.77-7.746 1.848-1.848 4.423-2.775 7.72-2.775 3.38 0 5.985.91 7.812 2.72 1.832 1.818 2.748 4.36 2.748 7.63 0 2.38-.4 4.323-1.2 5.845-.8 1.516-1.953 2.7-3.464 3.543-1.512.848-3.39 1.27-5.65 1.27-2.29 0-4.186-.364-5.686-1.096-1.5-.726-2.717-1.885-3.65-3.464-.936-1.58-1.4-3.554-1.4-5.93M164.835 354.657h5.86l7.65 11.24v-11.24h5.918v20.313h-5.918l-7.608-11.15v11.15h-5.902v-20.313zM201.958 366.66l5.502 1.663c-.37 1.542-.953 2.832-1.748 3.864-.795 1.037-1.78 1.817-2.96 2.343-1.173.527-2.674.79-4.496.79-2.206 0-4.012-.32-5.407-.964-1.4-.642-2.612-1.77-3.63-3.385-1.015-1.615-1.52-3.685-1.52-6.207 0-3.36.89-5.94 2.68-7.745 1.785-1.806 4.317-2.706 7.587-2.706 2.56 0 4.57.516 6.034 1.553 1.464 1.032 2.554 2.622 3.265 4.765l-5.544 1.232c-.194-.616-.394-1.07-.61-1.358-.347-.48-.78-.848-1.285-1.106-.51-.258-1.08-.39-1.705-.39-1.422 0-2.512.57-3.27 1.717-.574.848-.858 2.185-.858 4 0 2.25.337 3.792 1.02 4.63.686.837 1.65 1.253 2.886 1.253 1.2 0 2.106-.337 2.723-1.01.617-.675 1.06-1.655 1.338-2.94M216.896 362.89h2.648c.284 0 .837-.095 1.66-.28.415-.083.757-.294 1.02-.636s.395-.732.395-1.174c0-.658-.212-1.164-.622-1.517-.416-.347-1.2-.52-2.343-.52h-2.76v4.127zm-6.308 12.083v-20.318h10.467c1.938 0 3.423.17 4.444.5 1.026.337 1.852.953 2.48 1.848.63.906.94 2 .94 3.296 0 1.126-.236 2.095-.715 2.916-.484.816-1.142 1.48-1.985 1.99-.537.322-1.27.59-2.206.8.748.248 1.295.5 1.638.754.226.163.563.516 1 1.063.442.548.732.97.88 1.264l3.043 5.886h-7.093l-3.36-6.207c-.42-.806-.8-1.327-1.136-1.57-.453-.31-.964-.468-1.537-.468h-.554v8.245h-6.308zM232.568 354.657h16.822v4.34h-10.53v3.226h9.767v4.144h-9.767v4.007h10.836v4.596h-17.128v-20.313zM251.65 354.657h19.08v5.018h-6.402v15.295h-6.276v-15.295h-6.402v-5.018zM278.09 364.855c0 2.054.378 3.528 1.14 4.423.765.895 1.802 1.343 3.113 1.343 1.348 0 2.39-.436 3.127-1.316.743-.88 1.11-2.453 1.11-4.722 0-1.917-.383-3.312-1.157-4.197-.77-.88-1.817-1.32-3.138-1.32-1.264 0-2.28.446-3.043 1.34-.77.896-1.153 2.38-1.153 4.45m-6.278-.026c0-3.318.922-5.898 2.77-7.746 1.848-1.848 4.417-2.775 7.72-2.775 3.38 0 5.985.91 7.812 2.72 1.833 1.818 2.743 4.36 2.743 7.63 0 2.38-.4 4.323-1.2 5.845-.795 1.516-1.953 2.7-3.46 3.543-1.51.848-3.395 1.27-5.65 1.27-2.29 0-4.185-.364-5.685-1.096-1.5-.726-2.722-1.885-3.654-3.464-.927-1.58-1.396-3.554-1.396-5.93M295.392 369.373h6.03v4.644c0 1.706-.36 3.06-1.07 4.043-.71.99-1.927 1.864-3.65 2.623l-1.31-2.47c1.07-.495 1.81-.995 2.206-1.49.406-.495.632-1.074.674-1.753h-2.88v-5.597zM313.568 368.25l5.976-.373c.126.97.39 1.71.79 2.217.647.826 1.57 1.237 2.77 1.237.894 0 1.584-.215 2.074-.63.484-.422.726-.906.726-1.464 0-.527-.23-.996-.695-1.412-.464-.415-1.533-.81-3.218-1.18-2.748-.615-4.712-1.442-5.886-2.468-1.18-1.022-1.775-2.333-1.775-3.918 0-1.047.307-2.032.912-2.96.6-.93 1.517-1.657 2.728-2.19 1.216-.53 2.88-.794 4.996-.794 2.596 0 4.576.48 5.94 1.443 1.358.968 2.174 2.506 2.432 4.612l-5.918.34c-.158-.91-.49-1.578-.995-1.994-.5-.41-1.195-.622-2.08-.622-.732 0-1.285.153-1.653.464-.37.31-.553.684-.553 1.132 0 .32.152.61.457.87.295.267.995.52 2.106.746 2.743.595 4.707 1.19 5.897 1.796 1.185.61 2.048 1.358 2.59 2.253.543.895.81 1.9.81 3.007 0 1.305-.362 2.506-1.083 3.606-.716 1.095-1.727 1.932-3.017 2.496-1.295.574-2.928.858-4.892.858-3.454 0-5.85-.67-7.18-2-1.328-1.328-2.08-3.018-2.26-5.07M334.8 369.32h6.028v5.655h-6.03v-5.655zM355.8 367.227l-2.244-7.303-2.217 7.303h4.46zm1.3 4.39h-7.124l-.996 3.355h-6.407l7.64-20.313h6.844l7.635 20.312h-6.576l-1.017-3.354zM366.327 369.32h6.03v5.655h-6.03v-5.655z" fill="#231f20"/></svg>