<svg xmlns="http://www.w3.org/2000/svg" width="350" height="57.905"><defs><clipPath id="a"><path d="M0 0h576v756H0V0z"/></clipPath></defs><g transform="matrix(6.6 0 0 -6.6 -947.7 523.5)" clip-path="url(#a)"><path d="M152.6 75.196s1.034.37 1.11 1.367c.075.995.045 1.462-.74 1.918 0 0-.51.22-.962.25-.452.03-3.203.02-3.203.02v-6.21h1.586v2.246h.543l1.807-2.245 1.928.02-2.068 2.636zm-.472 1.674c0-.586-.482-.864-.482-.864l-1.25.015.015 1.575h1.1c.648-.22.618-.725.618-.725M148.423 77.52c-.442 1.327-2.048 1.21-2.048 1.21h-2.71v-6.17h1.545l.02 2.03c1.868.118 1.506.02 2.21.293.702.274 1.425 1.308.983 2.636m-1.792-1.492c-.36-.366-1.392-.22-1.392-.22v1.735h.956c.482-.065.633-.46.633-.46.18-.704-.196-1.055-.196-1.055" fill="#3b60b6"/><path d="M160.983 76.724s.602-1.786-.768-3.353c-1.37-1.566-3.39-1.258-4.096-.892-.71.366-2.667 1.742-1.312 4.32 0 0-.677-2.915 2.44-3.823 0 0 1.1-.322 2.26.337 0 0 1.79.967 1.475 3.412" fill="#8cd024"/><path d="M154.176 74.703s-.753 1.728.65 3.335c1.37 1.568 3.312 1.44 4.04 1.114.727-.327 2.76-1.595 1.556-4.242 0 0 .51 2.946-2.656 3.684-.707.164-1.662-.007-2.262-.384-.716-.45-1.183-1.24-1.34-2.045-.043-.227-.064-.458-.063-.69 0-.227-.017-.56.076-.772" fill="#3b60b6"/><path d="M155.712 72.507s-2.063-.06-.723 2.577c0 0 1.31 2.21 3.252 3.134 0 0 1.777.805 2.334-.06 0 0-1.19 1.114-4.216-1.86 0 0-2.636-2.84-.648-3.79" fill="#fcca20"/><path d="M156.616 79.345s.15-1.962 3.486-4.085c0 0 1.024-.535 1.092-.103 0 0 .023.088-.007.22 0 0-.128-.644-1.755.534 0 0-2.244 1.663-2.816 3.435" fill="#b8df8e"/><path d="M154.974 79.008s-.377-1.142 1.852-3.236c0 0 1.612-1.45 2.35-1.596 0 0 1.19-.513 1.04.483 0 0 .48-.982-.65-.938 0 0-1.4.088-3.146 2.006-1.747 1.918-1.627 2.738-1.446 3.28" fill="#52c059"/><path d="M159.688 78.115s.873-1.23-.105-3.426c0 0-.89-2.095-3.238-2.022 0 0 2.244-.015 3.177 2.46 0 0 .347.98.332 1.698 0 0-.046 1.1-.166 1.29" fill="#9991d0"/></g><path d="M145.74 46.604l-20.086-26.19V46.07h-7.063V4.65h3.533l19.55 24.975V4.65h7.063v41.954h-2.995M158.626 4.057c1.13 0 2.09.405 2.882 1.215.81.79 1.215 1.752 1.215 2.882 0 1.13-.405 2.1-1.215 2.91-.79.79-1.752 1.186-2.882 1.186-1.13 0-2.1-.395-2.91-1.186-.79-.81-1.187-1.78-1.187-2.91 0-1.13.395-2.09 1.186-2.882.81-.81 1.78-1.214 2.91-1.215M154.98 46.04V21.572h-3.87v-5.79h11.02v30.256h-7.15M190.383 18.183l-3.023 5.283c-1.657-1.563-3.88-2.345-6.667-2.345-2.675 0-4.794.896-6.357 2.685-1.544 1.77-2.317 4.23-2.317 7.374 0 6.346 3.022 9.52 9.068 9.52 2.618 0 4.925-.867 6.922-2.6l2.6 5.566c-2.054 1.28-3.853 2.09-5.397 2.43-1.526.34-3.334.508-5.424.508-4.672 0-8.364-1.356-11.076-4.068-2.693-2.73-4.04-6.516-4.04-11.357 0-4.766 1.478-8.618 4.435-11.556 2.956-2.938 6.987-4.407 12.09-4.407 3.523 0 6.584.99 9.183 2.966M210.116 43.016c-.64 1.055-1.76 1.922-3.362 2.6-1.582.66-3.24.988-4.973.988-3.257 0-5.82-.81-7.683-2.43-1.865-1.638-2.797-3.954-2.797-6.95 0-3.502 1.31-6.243 3.927-8.22 2.637-1.978 6.375-2.967 11.216-2.967.83 0 1.808.142 2.938.424 0-3.56-2.25-5.34-6.75-5.34-2.657 0-4.88.444-6.67 1.33l-1.524-5.48c2.43-1.17 5.32-1.753 8.673-1.753 4.614 0 7.994 1.055 10.14 3.164 2.15 2.092 3.222 6.066 3.222 11.923v6.47c0 4.03.81 6.564 2.43 7.6-.584 1.017-1.234 1.638-1.95 1.864-.715.245-1.535.367-2.457.367-1.017 0-1.93-.376-2.74-1.13-.81-.753-1.357-1.572-1.64-2.458M209.44 31.8c-1.206-.244-2.11-.367-2.713-.367-5.575 0-8.362 1.827-8.362 5.48 0 2.713 1.573 4.07 4.718 4.07 4.24 0 6.358-2.12 6.358-6.357V31.8M237.89 22.365c-1.263-.83-2.647-1.244-4.154-1.244-1.64 0-3.098.745-4.38 2.233-1.26 1.488-1.892 3.306-1.892 5.453V46.04H220.4V15.78h7.064v2.768c1.978-2.222 4.605-3.333 7.882-3.333 2.41 0 4.257.367 5.538 1.102l-2.995 6.045M257.515 43.016c-.64 1.055-1.76 1.922-3.362 2.6-1.582.66-3.24.988-4.972.988-3.257 0-5.82-.81-7.684-2.43-1.864-1.638-2.796-3.954-2.796-6.95 0-3.502 1.31-6.243 3.927-8.22 2.636-1.978 6.375-2.967 11.215-2.967.83 0 1.81.142 2.94.424 0-3.56-2.252-5.34-6.754-5.34-2.655 0-4.878.444-6.667 1.33l-1.524-5.48c2.43-1.17 5.32-1.753 8.673-1.753 4.613 0 7.994 1.055 10.14 3.164 2.148 2.092 3.222 6.066 3.222 11.923v6.47c0 4.03.81 6.564 2.43 7.6-.584 1.017-1.234 1.638-1.95 1.864-.716.245-1.535.367-2.458.367-1.017 0-1.93-.376-2.74-1.13-.81-.753-1.356-1.572-1.64-2.458m-.677-11.215c-1.205-.244-2.11-.367-2.712-.367-5.575 0-8.363 1.827-8.362 5.48 0 2.713 1.572 4.07 4.717 4.07 4.238 0 6.357-2.12 6.357-6.357V31.8" style="line-height:125%;-inkscape-font-specification:Trebuchet MS Bold" font-size="47.733" font-weight="bold" letter-spacing="0" word-spacing="0" fill="#3b60b6" font-family="Trebuchet MS"/><path d="M265.54 53.81l4.464-5.51c2.468 2.26 5.218 3.39 8.25 3.39 2.034 0 3.71-.302 5.03-.904 1.317-.603 1.976-1.432 1.976-2.486 0-1.79-1.46-2.684-4.38-2.684-.79 0-1.967.094-3.53.282-1.563.188-2.74.283-3.532.283-4.86 0-7.29-1.74-7.29-5.226 0-.998.406-1.978 1.216-2.938.81-.96 1.752-1.667 2.825-2.12-3.447-2.24-5.17-5.414-5.17-9.52 0-3.24 1.186-5.914 3.56-8.023 2.372-2.13 5.292-3.193 8.757-3.193 2.712 0 4.982.51 6.81 1.526l2.768-3.22 4.887 4.435-3.362 2.46c1.168 1.77 1.752 3.86 1.752 6.27 0 3.447-1.055 6.206-3.165 8.278-2.09 2.053-4.736 3.08-7.938 3.08-.51 0-1.188-.048-2.035-.142l-1.16-.17c-.13 0-.64.208-1.524.623-.866.394-1.3.808-1.3 1.242 0 .753.65 1.13 1.95 1.13.584 0 1.564-.142 2.94-.424 1.374-.283 2.55-.424 3.53-.424 6.875 0 10.312 2.76 10.312 8.278 0 3.05-1.375 5.443-4.125 7.176-2.75 1.75-6.064 2.627-9.944 2.627-4.634 0-8.824-1.365-12.572-4.096m7.064-27.405c0 1.79.49 3.23 1.47 4.322.997 1.074 2.334 1.61 4.01 1.61 1.677 0 2.967-.527 3.87-1.582.905-1.054 1.357-2.505 1.357-4.35 0-1.526-.49-2.816-1.468-3.87-.96-1.056-2.213-1.583-3.758-1.583-1.62 0-2.938.51-3.955 1.525-1.018 1.018-1.526 2.327-1.526 3.928M313.356 46.068v-2.543c-1 .848-2.374 1.573-4.125 2.175-1.75.603-3.36.904-4.83.904-7.026 0-10.538-3.73-10.538-11.187V15.782h7.063V34.88c0 3.88 1.742 5.82 5.226 5.82 1.602 0 3.09-.415 4.465-1.243 1.375-.83 2.288-1.79 2.74-2.882V15.782h7.063v30.286h-7.062M341.214 43.016c-.64 1.055-1.76 1.922-3.362 2.6-1.582.66-3.24.988-4.973.988-3.26 0-5.82-.81-7.685-2.43-1.865-1.638-2.797-3.954-2.797-6.95 0-3.502 1.31-6.243 3.927-8.22 2.637-1.978 6.376-2.967 11.216-2.967.83 0 1.81.142 2.94.424 0-3.56-2.252-5.34-6.753-5.34-2.656 0-4.878.444-6.667 1.33l-1.526-5.48c2.43-1.17 5.32-1.753 8.673-1.753 4.615 0 7.995 1.055 10.143 3.164 2.147 2.092 3.22 6.066 3.22 11.923v6.47c0 4.03.81 6.564 2.43 7.6-.584 1.017-1.234 1.638-1.95 1.864-.715.245-1.534.367-2.457.367-1.017 0-1.93-.376-2.74-1.13-.81-.753-1.357-1.572-1.64-2.458m-.677-11.215c-1.206-.244-2.11-.367-2.713-.367-5.574 0-8.362 1.827-8.362 5.48 0 2.713 1.574 4.07 4.72 4.07 4.237 0 6.356-2.12 6.356-6.357V31.8" style="line-height:125%;-inkscape-font-specification:Trebuchet MS Bold" font-size="47.733" font-weight="bold" letter-spacing="0" word-spacing="0" fill="#3b60b6" font-family="Trebuchet MS"/></svg>