<?xml version="1.0" encoding="UTF-8" standalone="no"?>
<!-- Created with Inkscape (http://www.inkscape.org/) -->

<svg
   xmlns:dc="http://purl.org/dc/elements/1.1/"
   xmlns:cc="http://creativecommons.org/ns#"
   xmlns:rdf="http://www.w3.org/1999/02/22-rdf-syntax-ns#"
   xmlns:svg="http://www.w3.org/2000/svg"
   xmlns="http://www.w3.org/2000/svg"
   xmlns:xlink="http://www.w3.org/1999/xlink"
   xmlns:sodipodi="http://sodipodi.sourceforge.net/DTD/sodipodi-0.dtd"
   xmlns:inkscape="http://www.inkscape.org/namespaces/inkscape"
   width="400"
   height="101.31378"
   id="svg49178"
   version="1.1"
   inkscape:version="0.48.5 r10040"
   sodipodi:docname="publimax.svg">
  <defs
     id="defs49180">
    <linearGradient
       inkscape:collect="always"
       xlink:href="#linearGradient45443"
       id="linearGradient49082"
       gradientUnits="userSpaceOnUse"
       x1="-535.77826"
       y1="280.8718"
       x2="-495.62411"
       y2="280.8718" />
    <linearGradient
       id="linearGradient45443"
       spreadMethod="pad"
       gradientTransform="matrix(9.943558,0,0,-9.943558,181.5144,729.5044)"
       gradientUnits="userSpaceOnUse"
       y2="0"
       x2="1"
       y1="0"
       x1="0">
      <stop
         id="stop45445"
         offset="0"
         style="stop-opacity:1;stop-color:#ffffff" />
      <stop
         id="stop45447"
         offset="1"
         style="stop-opacity:1;stop-color:#b2b1b1" />
    </linearGradient>
    <linearGradient
       y2="280.8718"
       x2="-495.62411"
       y1="280.8718"
       x1="-535.77826"
       gradientUnits="userSpaceOnUse"
       id="linearGradient49176"
       xlink:href="#linearGradient45443"
       inkscape:collect="always" />
    <linearGradient
       inkscape:collect="always"
       xlink:href="#linearGradient45443"
       id="linearGradient3066"
       gradientUnits="userSpaceOnUse"
       x1="-535.77826"
       y1="280.8718"
       x2="-495.62411"
       y2="280.8718"
       gradientTransform="matrix(0.65313818,0,0,0.65313818,652.81847,310.82544)" />
  </defs>
  <sodipodi:namedview
     id="base"
     pagecolor="#ffffff"
     bordercolor="#666666"
     borderopacity="1.0"
     inkscape:pageopacity="0.0"
     inkscape:pageshadow="2"
     inkscape:zoom="3.135"
     inkscape:cx="200"
     inkscape:cy="50.656893"
     inkscape:document-units="px"
     inkscape:current-layer="layer1"
     showgrid="false"
     fit-margin-top="0"
     fit-margin-left="0"
     fit-margin-right="0"
     fit-margin-bottom="0"
     inkscape:window-width="1440"
     inkscape:window-height="861"
     inkscape:window-x="0"
     inkscape:window-y="0"
     inkscape:window-maximized="1" />
  <metadata
     id="metadata49183">
    <rdf:RDF>
      <cc:Work
         rdf:about="">
        <dc:format>image/svg+xml</dc:format>
        <dc:type
           rdf:resource="http://purl.org/dc/dcmitype/StillImage" />
        <dc:title />
      </cc:Work>
    </rdf:RDF>
  </metadata>
  <g
     inkscape:label="Capa 1"
     inkscape:groupmode="layer"
     id="layer1"
     transform="translate(-150,-481.70529)">
    <path
       id="path45679"
       style="fill:#3976ba;fill-opacity:1;fill-rule:nonzero;stroke:none"
       d="m 163.71806,521.41045 0,14.48823 c 0,3.13609 0.1266,5.19868 0.37981,6.18513 0.39564,1.64058 1.35836,3.0807 2.89343,4.323 1.53507,1.24494 3.47106,1.86477 5.81059,1.86477 2.81694,0 5.09844,-1.09987 6.84452,-3.30489 2.28151,-2.88024 3.42095,-6.9342 3.42095,-12.15925 0,-5.93192 -1.29506,-10.49494 -3.88516,-13.68641 -1.80411,-2.20238 -3.94319,-3.30489 -6.42251,-3.30489 -1.35308,0 -2.69033,0.34025 -4.0144,1.01547 -1.01547,0.50905 -2.6877,2.03621 -5.02723,4.57884 m -13.47276,-6.69682 11.87175,-4.77402 1.60101,0 0,8.97041 c 2.00456,-3.36555 4.01704,-5.72091 6.03742,-7.07135 2.02039,-1.34781 4.14364,-2.02303 6.37504,-2.02303 3.89834,0 7.1452,1.52189 9.74322,4.56302 3.19148,3.71899 4.78721,8.56422 4.78721,14.53571 0,6.67572 -1.92016,12.19617 -5.76048,16.56401 -3.16509,3.5792 -7.1452,5.36484 -11.94824,5.36484 -2.08896,0 -3.89834,-0.30069 -5.42287,-0.89678 -1.12888,-0.42729 -2.39756,-1.28186 -3.8113,-2.56373 l 0,26.69496 c 0,2.67715 0.16353,4.37575 0.49059,5.10372 0.32706,0.72534 0.89414,1.30033 1.70652,1.73025 0.81237,0.42465 2.2815,0.6383 4.41531,0.6383 l 0,1.46913 -20.33048,0 0,-1.46913 1.06031,0 c 1.55353,0.0264 2.88024,-0.27167 3.98275,-0.89678 0.53542,-0.31387 0.95216,-0.81765 1.24757,-1.51133 0.29805,-0.69896 0.44575,-2.46614 0.44575,-5.30682 l 0,-51.52778 c 0,-2.51889 -0.11078,-4.1199 -0.33497,-4.8004 -0.22683,-0.6805 -0.58554,-1.18955 -1.07613,-1.5298 -0.49323,-0.33761 -1.16054,-0.50905 -2.00193,-0.50905 -0.67522,0 -1.53243,0.20046 -2.57164,0.59346 l -0.50641,-1.34781 z"
       inkscape:connector-curvature="0" />
    <path
       id="path45683"
       style="fill:#3976ba;fill-opacity:1;fill-rule:nonzero;stroke:none"
       d="m 230.19908,510.91816 0,23.51404 c 0,4.47333 0.1055,7.20587 0.31651,8.20551 0.21101,0.99964 0.54598,1.69333 1.01019,2.08897 0.46158,0.393 1.00492,0.59081 1.62475,0.59081 0.87041,0 1.85422,-0.24002 2.94882,-0.72006 l 0.59082,1.46914 -11.57107,4.77666 -1.9017,0 0,-8.15277 c -3.32335,3.58711 -5.85807,5.84225 -7.60414,6.76804 -1.74608,0.92051 -3.59239,1.38473 -5.53365,1.38473 -2.17073,0 -4.04869,-0.62775 -5.64179,-1.87796 -1.59309,-1.25021 -2.6956,-2.86178 -3.31544,-4.83205 -0.62246,-1.97027 -0.92842,-4.75556 -0.92842,-8.35849 l 0,-17.26297 c 0,-1.8806 -0.20046,-3.18356 -0.59873,-3.9089 -0.39828,-0.7227 -0.9891,-1.28186 -1.76982,-1.67223 -0.78336,-0.39036 -2.19711,-0.56971 -4.24651,-0.54334 l 0,-1.46913 13.59673,0 0,25.96962 c 0,3.61613 0.62511,5.98995 1.88324,7.11884 1.25285,1.12888 2.77209,1.69332 4.54982,1.69332 1.21329,0 2.58747,-0.38245 4.12782,-1.14207 1.53771,-0.76226 3.36555,-2.21821 5.48089,-4.3652 l 0,-21.92621 c 0,-2.26568 -0.40355,-3.79548 -1.21065,-4.59203 -0.8071,-0.79918 -2.4846,-1.22911 -5.03514,-1.28714 l 0,-1.46913 13.22747,0 z"
       inkscape:connector-curvature="0" />
    <path
       id="path45687"
       style="fill:#3976ba;fill-opacity:1;fill-rule:nonzero;stroke:none"
       d="m 250.26369,520.34039 0,23.16851 c 1.43221,1.41375 2.91453,2.47669 4.44432,3.19675 1.53244,0.71742 3.09652,1.07613 4.70017,1.07613 2.55582,0 4.93756,-1.40846 7.14257,-4.22804 2.20502,-2.81693 3.30753,-6.91837 3.30753,-12.30431 0,-4.95866 -1.10251,-8.7726 -3.30753,-11.43656 -2.20501,-2.66395 -4.71335,-3.99593 -7.52238,-3.99593 -1.49023,0 -2.97783,0.37981 -4.46542,1.14207 -1.12625,0.56181 -2.55846,1.69069 -4.29926,3.38138 m 0,-2.70616 c 3.74273,-5.21186 7.7835,-7.81779 12.12232,-7.81779 3.96693,0 7.43007,1.69597 10.3868,5.09053 2.95409,3.39721 4.43377,8.03671 4.43377,13.92116 0,6.87353 -2.28151,12.40982 -6.84452,16.60885 -3.91417,3.60293 -8.27937,5.40704 -13.09559,5.40704 -2.2525,0 -4.54192,-0.40883 -6.86563,-1.21857 -2.3237,-0.81501 -4.69489,-2.03357 -7.11883,-3.66096 l 0,-40.06749 c 0,-4.44169 -0.1055,-7.17423 -0.31914,-8.20024 -0.21365,-1.02602 -0.54598,-1.72235 -1.00229,-2.08897 -0.4563,-0.36926 -1.02601,-0.55389 -1.70651,-0.55389 -0.79655,0 -1.79356,0.22683 -2.98838,0.67786 l -0.59609,-1.46914 11.68184,-4.77665 1.91225,0 0,28.14826 z"
       inkscape:connector-curvature="0" />
    <path
       id="path45691"
       style="fill:#3976ba;fill-opacity:1;fill-rule:nonzero;stroke:none"
       d="m 296.29186,489.48516 0,51.43811 c 0,2.46614 0.17408,4.09616 0.52752,4.89799 0.35079,0.80446 0.8915,1.41374 1.62475,1.82784 0.73061,0.41674 2.09687,0.62247 4.09352,0.62247 l 0,1.46913 -18.98267,0 0,-1.46913 c 1.79092,0 3.01212,-0.18463 3.66624,-0.55917 0.65412,-0.3719 1.16581,-0.98645 1.53507,-1.8463 0.36926,-0.85986 0.55389,-2.50571 0.55389,-4.94283 l 0,-35.02708 c 0,-4.4496 -0.0976,-7.18477 -0.29804,-8.20551 -0.19782,-1.01811 -0.51961,-1.7118 -0.96008,-2.08106 -0.44312,-0.36926 -1.00492,-0.55653 -1.68806,-0.55653 -0.74116,0 -1.68013,0.22684 -2.81957,0.67786 l -0.72533,-1.46913 11.56843,-4.77666 1.90433,0 z"
       inkscape:connector-curvature="0" />
    <path
       id="path45695"
       style="fill:#3976ba;fill-opacity:1;fill-rule:nonzero;stroke:none"
       d="m 320.37086,509.81565 0,31.10763 c 0,2.4635 0.17144,4.10408 0.51697,4.91909 0.34552,0.81765 0.85457,1.42693 1.53243,1.82785 0.67522,0.40355 1.91225,0.60136 3.7058,0.60136 l 0,1.46914 -18.61605,0 0,-1.46914 c 1.87796,0 3.13609,-0.18463 3.7823,-0.55916 0.64093,-0.3719 1.15262,-0.98646 1.53243,-1.84631 0.37454,-0.85985 0.56444,-2.5057 0.56444,-4.94283 l 0,-14.6966 c 0,-4.29662 -0.1266,-7.07927 -0.37717,-8.35058 -0.19782,-0.92052 -0.50905,-1.55881 -0.92843,-1.91489 -0.42201,-0.35607 -0.99701,-0.53542 -1.72762,-0.53542 -0.78863,0 -1.74344,0.21364 -2.86705,0.63565 l -0.59081,-1.46913 11.62118,-4.77666 1.85158,0 z"
       inkscape:connector-curvature="0" />
    <path
       id="path45699"
       style="fill:#3976ba;fill-opacity:1;fill-rule:nonzero;stroke:none"
       d="m 342.61332,518.12825 c 2.8143,-2.84067 4.47598,-4.47598 4.98239,-4.90326 1.26604,-1.07877 2.63231,-1.91752 4.09616,-2.51362 1.46386,-0.59609 2.91453,-0.89678 4.34938,-0.89678 2.41866,0 4.50498,0.71215 6.24843,2.13381 1.74607,1.42165 2.91452,3.4816 3.50534,6.17985 2.90398,-3.41039 5.35693,-5.64706 7.35885,-6.71264 2.00193,-1.06559 4.05924,-1.60102 6.17458,-1.60102 2.05731,0 3.88252,0.53016 5.47826,1.58783 1.59046,1.05503 2.85386,2.78265 3.78493,5.17493 0.61983,1.6353 0.92842,4.19903 0.92842,7.69383 l 0,16.65105 c 0,2.46614 0.17936,4.15682 0.54335,5.07207 0.27694,0.63301 0.79127,1.16844 1.54034,1.61156 0.75171,0.44311 1.97555,0.66467 3.67415,0.66467 l 0,1.47177 -18.98531,0 0,-1.47177 0.80447,0 c 1.65904,0 2.95145,-0.32706 3.87988,-0.98646 0.64884,-0.45894 1.11042,-1.18955 1.39528,-2.19183 0.11078,-0.48795 0.1688,-1.87532 0.1688,-4.17001 l 0,-16.60621 c 0,-3.144 -0.38508,-5.36484 -1.14471,-6.65726 -1.1025,-1.80147 -2.86968,-2.69825 -5.2989,-2.69825 -1.50078,0 -3.0042,0.37454 -4.51817,1.12098 -1.51134,0.74643 -3.34182,2.1338 -5.48881,4.1621 l -0.0844,0.46421 0.12133,1.80939 0,18.40504 c 0,2.6956 0.14506,4.37047 0.44047,5.02986 0.29277,0.6594 0.84403,1.21065 1.6564,1.65377 0.80974,0.44311 2.19447,0.66467 4.15156,0.66467 l 0,1.47177 -19.47327,0 0,-1.47177 c 2.12326,0 3.58448,-0.25585 4.37839,-0.77281 0.79655,-0.51433 1.35044,-1.28714 1.6564,-2.32107 0.13979,-0.48532 0.21101,-1.90434 0.21101,-4.25442 l 0,-16.59566 c 0,-3.14664 -0.46686,-5.42551 -1.39528,-6.84189 -1.23967,-1.84631 -2.97256,-2.76946 -5.20131,-2.76946 -1.52453,0 -3.03322,0.41938 -4.52609,1.25285 -2.34218,1.26604 -4.14628,2.69297 -5.41232,4.27552 l 0,20.67864 c 0,2.58219 0.17408,4.25705 0.52488,5.02986 0.34816,0.77282 0.86513,1.35308 1.5509,1.74081 0.68313,0.38508 2.07314,0.57763 4.17001,0.57763 l 0,1.47177 -18.98267,0 0,-1.47177 c 1.73817,0 2.95409,-0.19255 3.6425,-0.57763 0.68841,-0.38773 1.21329,-1.00228 1.57464,-1.84895 0.35871,-0.84402 0.53806,-2.4846 0.53806,-4.92172 l 0,-14.69661 c 0,-4.29662 -0.1266,-7.07399 -0.37717,-8.32684 -0.19782,-0.93898 -0.50905,-1.58782 -0.92843,-1.94126 -0.42201,-0.35344 -0.99701,-0.53015 -1.72762,-0.53015 -0.78863,0 -1.73025,0.211 -2.82485,0.63565 l -0.63301,-1.47177 11.6581,-4.77666 1.81466,0 0,8.31366 z"
       inkscape:connector-curvature="0" />
    <path
       id="path45703"
       style="fill:#3976ba;fill-opacity:1;fill-rule:nonzero;stroke:none"
       d="m 420.437,541.4442 0,-14.84958 c -4.28871,1.70388 -7.0608,2.90925 -8.30838,3.61612 -2.24722,1.24758 -3.85351,2.55318 -4.81622,3.91417 -0.968,1.36363 -1.44804,2.85387 -1.44804,4.4707 0,2.04149 0.60929,3.73745 1.83049,5.08262 1.2212,1.34781 2.62703,2.02039 4.22013,2.02039 2.15754,0 4.99821,-1.41638 8.52202,-4.25442 m 0,2.76682 c -3.9722,3.07542 -6.46735,4.85051 -7.48018,5.33055 -1.52188,0.70424 -3.14136,1.05767 -4.86106,1.05767 -2.67715,0 -4.88217,-0.92051 -6.61506,-2.75891 -1.73289,-1.84103 -2.59801,-4.25969 -2.59801,-7.26126 0,-1.89378 0.42201,-3.53699 1.26867,-4.92436 1.15263,-1.92544 3.15983,-3.73482 6.0216,-5.43342 2.85914,-1.6986 7.6147,-3.76383 14.26404,-6.19831 l 0,-1.52453 c 0,-3.86405 -0.60928,-6.51482 -1.83048,-7.9523 -1.21856,-1.43748 -2.98838,-2.15754 -5.31209,-2.15754 -1.76718,0 -3.16773,0.48004 -4.2043,1.44011 -1.06559,0.96008 -1.59838,2.05996 -1.59838,3.30226 l 0.0844,2.45822 c 0,1.29769 -0.33497,2.29997 -1.00228,3.00684 -0.67258,0.70688 -1.54826,1.06031 -2.62967,1.06031 -1.05767,0 -1.91752,-0.36662 -2.58746,-1.10251 -0.66995,-0.73324 -1.00492,-1.73289 -1.00492,-3.0042 0,-2.42658 1.23966,-4.65269 3.72163,-6.68627 2.47932,-2.03094 5.96357,-3.04641 10.44746,-3.04641 3.4394,0 6.25634,0.57763 8.45872,1.73026 1.65904,0.87304 2.88551,2.2393 3.67679,4.09616 0.50641,1.21329 0.76226,3.68998 0.76226,7.43534 l 0,13.13779 c 0,3.68998 0.0686,5.95039 0.211,6.78123 0.13716,0.83083 0.36927,1.38736 0.69369,1.66958 0.32178,0.27959 0.69368,0.41938 1.11569,0.41938 0.44839,0 0.84403,-0.10023 1.18164,-0.29805 0.58818,-0.3719 1.72498,-1.41638 3.41039,-3.13081 l 0,2.4002 c -3.15454,4.27816 -6.16402,6.41724 -9.03371,6.41724 -1.37946,0 -2.47933,-0.47477 -3.29434,-1.41902 -0.81765,-0.94689 -1.23966,-2.56109 -1.26604,-4.84524"
       inkscape:connector-curvature="0" />
    <path
       id="path45707"
       style="fill:#3976ba;fill-opacity:1;fill-rule:nonzero;stroke:none"
       d="m 435.39024,510.91816 18.12546,0 0,1.46913 c -1.17636,0 -2.00193,0.20573 -2.47405,0.61192 -0.47477,0.41146 -0.70951,0.94953 -0.70951,1.61948 0,0.69896 0.51169,1.78036 1.53507,3.23895 0.31387,0.44311 0.78336,1.13679 1.40847,2.08105 l 2.85122,4.4074 3.15455,-4.46279 c 2.07578,-2.80639 3.13608,-4.58412 3.17301,-5.33583 0,-0.604 -0.24529,-1.1157 -0.73588,-1.53243 -0.49059,-0.41674 -1.28451,-0.62775 -2.38438,-0.62775 l 0,-1.46913 13.16417,0 0,1.46913 c -1.40319,0.087 -2.62176,0.46949 -3.65041,1.14735 -1.40583,0.96536 -3.28907,3.06487 -5.65498,6.29591 l -5.41231,7.19268 9.69575,13.88423 c 2.38437,3.43413 4.08561,5.49936 5.10635,6.19304 1.02338,0.69632 2.33954,1.08668 3.95637,1.17108 l 0,1.46914 -18.34701,0 0,-1.46914 c 1.27131,0 2.26041,-0.28749 2.96992,-0.86248 0.53542,-0.40092 0.80446,-0.93371 0.80446,-1.59574 0,-0.66203 -0.8915,-2.32898 -2.67187,-5.00349 l -5.68663,-8.23981 -6.2537,8.31102 c -1.93335,2.59274 -2.90134,4.13045 -2.90134,4.61313 0,0.68577 0.31651,1.30297 0.94953,1.8595 0.63038,0.55389 1.57991,0.85985 2.84859,0.91787 l 0,1.46914 -12.49423,0 0,-1.46914 c 0.99965,-0.13979 1.87532,-0.49586 2.62703,-1.06294 1.05504,-0.82293 2.83277,-2.92244 5.33319,-6.30118 l 8.0921,-10.93014 -7.35621,-10.65055 c -2.0705,-3.06487 -3.67151,-4.98767 -4.80567,-5.76839 -1.13153,-0.78073 -2.55318,-1.17109 -4.25706,-1.17109 l 0,-1.46913 z"
       inkscape:connector-curvature="0" />
    <path
       id="path45711"
       style="fill:#ee262c;fill-opacity:1;fill-rule:nonzero;stroke:none"
       d="m 506.44641,516.71529 0,10.89849 -1.22384,0 c -0.86776,-3.41303 -1.98082,-5.73674 -3.3339,-6.96849 -1.35572,-1.23175 -3.0807,-1.84895 -5.17493,-1.84895 -1.59574,0 -2.88288,0.43256 -3.86142,1.29242 -0.98118,0.86249 -1.46914,1.81465 -1.46914,2.85913 0,1.30297 0.34289,2.4213 1.02866,3.34973 0.66467,0.95481 2.10215,1.965 4.31245,3.03586 l 5.09053,2.47932 c 4.71863,2.30525 7.0819,5.34374 7.0819,9.11549 0,2.91189 -1.09723,5.25933 -3.28906,7.0397 -2.19183,1.78037 -4.64214,2.67187 -7.35621,2.67187 -1.94654,0 -4.1753,-0.33761 -6.67836,-1.01019 -0.7649,-0.2242 -1.39264,-0.33761 -1.87796,-0.33761 -0.53279,0 -0.95217,0.28749 -1.25285,0.85721 l -1.22384,0 0,-11.38908 1.22384,0 c 0.64885,3.24423 1.89115,5.68663 3.72163,7.33248 1.83575,1.64321 3.88779,2.46614 6.16139,2.46614 1.59837,0 2.90134,-0.47213 3.91417,-1.41375 1.00755,-0.94161 1.51397,-2.07313 1.51397,-3.3972 0,-1.60365 -0.56972,-2.95145 -1.70388,-4.04341 -1.1368,-1.0946 -3.3972,-2.46087 -6.78386,-4.10672 -3.38665,-1.64585 -5.59431,-3.14927 -6.62296,-4.50762 -1.0313,-1.33462 -1.54563,-3.02267 -1.54563,-5.06152 0,-2.64549 0.89151,-4.86106 2.68506,-6.64143 1.79092,-1.78037 4.10408,-2.67187 6.95003,-2.67187 1.24757,0 2.75891,0.27167 4.53928,0.81501 1.17636,0.35608 1.96236,0.53279 2.35536,0.53279 0.36926,0 0.65939,-0.0818 0.86776,-0.24793 0.20837,-0.16353 0.45103,-0.53279 0.72797,-1.09987 l 1.22384,0 z"
       inkscape:connector-curvature="0" />
    <path
       id="path45715"
       style="fill:#ee262c;fill-opacity:1;fill-rule:nonzero;stroke:none"
       d="m 538.73225,542.82049 0,-11.89813 c -3.53172,1.36363 -5.81323,2.32899 -6.84189,2.89607 -1.84894,1.00228 -3.17301,2.04676 -3.96956,3.13872 -0.79654,1.09196 -1.18954,2.28414 -1.18954,3.57919 0,1.63794 0.50114,2.9963 1.50605,4.07507 1.00756,1.07877 2.16546,1.61947 3.47634,1.61947 1.77773,0 4.11726,-1.1368 7.0186,-3.41039 m 0,2.21557 c -3.27324,2.52153 -5.33055,3.97747 -6.16403,4.36783 -1.25285,0.58027 -2.58746,0.86777 -4.00385,0.86777 -2.20501,0 -4.02231,-0.74908 -5.44924,-2.24986 -1.42693,-1.50078 -2.14171,-3.47369 -2.14171,-5.92137 0,-1.54826 0.34816,-2.88551 1.04448,-4.01704 0.95216,-1.56936 2.60593,-3.0464 4.96129,-4.43377 2.35536,-1.38473 6.2748,-3.06751 11.75306,-5.05624 l 0,-1.24758 c 0,-3.17301 -0.50642,-5.34901 -1.51661,-6.53065 -1.01019,-1.18164 -2.47669,-1.77245 -4.40212,-1.77245 -1.46386,0 -2.6244,0.39036 -3.48425,1.17372 -0.88095,0.78336 -1.32143,1.68014 -1.32143,2.69297 l 0.0686,2.00456 c 0,1.06031 -0.27431,1.87532 -0.81501,2.45031 -0.54598,0.575 -1.26076,0.86249 -2.14172,0.86249 -0.85721,0 -1.56144,-0.30332 -2.10479,-0.9126 -0.54598,-0.61192 -0.81765,-1.44539 -0.81765,-2.50306 0,-2.01775 1.02075,-3.86934 3.06487,-5.56003 2.04413,-1.69069 4.91118,-2.53471 8.60379,-2.53471 2.83276,0 5.15384,0.47476 6.96585,1.42429 1.36891,0.72006 2.3791,1.84367 3.02795,3.37083 0.41674,0.99701 0.62774,3.0385 0.62774,6.11919 l 0,10.80881 c 0,3.03849 0.058,4.89799 0.17408,5.58112 0.11869,0.68577 0.31124,1.14207 0.58027,1.37418 0.26903,0.23211 0.58027,0.34552 0.93107,0.34552 0.37453,0 0.70159,-0.0818 0.98381,-0.24529 0.49059,-0.30596 1.43749,-1.16318 2.84332,-2.57164 l 0,1.97291 c -2.61385,3.5027 -5.109,5.25406 -7.4881,5.25406 -1.14471,0 -2.05467,-0.38773 -2.73253,-1.1579 -0.67522,-0.77281 -1.02338,-2.0916 -1.04712,-3.95637"
       inkscape:connector-curvature="0" />
    <path
       id="path45719"
       style="fill:#050606;fill-opacity:1;fill-rule:nonzero;stroke:none"
       d="m 181.70742,559.61449 0,6.7654 c 0,1.26867 0.0316,2.04148 0.0897,2.3237 0.0607,0.28223 0.15825,0.48268 0.29277,0.59082 0.13188,0.11342 0.2875,0.16881 0.46685,0.16881 0.25057,0 0.53279,-0.0659 0.8493,-0.2031 l 0.16881,0.42729 -3.3128,1.34781 -0.54598,0 0,-2.33163 c -0.94953,1.02602 -1.67487,1.67223 -2.17337,1.93599 -0.4985,0.26376 -1.02602,0.39564 -1.58255,0.39564 -0.61983,0 -1.1579,-0.17936 -1.61156,-0.53807 -0.4563,-0.35871 -0.77281,-0.82293 -0.94953,-1.38737 -0.17672,-0.56444 -0.26376,-1.36363 -0.26376,-2.39756 l 0,-4.95338 c 0,-0.52751 -0.058,-0.8915 -0.1688,-1.09459 -0.11342,-0.2031 -0.27959,-0.35871 -0.50114,-0.46949 -0.22156,-0.10814 -0.61984,-0.15826 -1.19747,-0.15034 l 0,-0.42993 3.8878,0 0,7.43007 c 0,1.03393 0.17935,1.71442 0.53543,2.03621 0.35607,0.32442 0.78863,0.48531 1.29505,0.48531 0.34289,0 0.73325,-0.10814 1.17109,-0.32706 0.43783,-0.21892 0.95744,-0.63565 1.55881,-1.25021 l 0,-6.26162 c 0,-0.64884 -0.11342,-1.08668 -0.34289,-1.31615 -0.22947,-0.22683 -0.70687,-0.3508 -1.43221,-0.36662 l 0,-0.42993 3.76647,0 z"
       inkscape:connector-curvature="0" />
    <path
       id="path45723"
       style="fill:#050606;fill-opacity:1;fill-rule:nonzero;stroke:none"
       d="m 188.74633,562.31538 0,6.61242 c 0.40883,0.40355 0.8282,0.70687 1.2634,0.9126 0.4352,0.20573 0.88095,0.30596 1.33726,0.30596 0.72533,0 1.40319,-0.40091 2.03093,-1.20538 0.62775,-0.80446 0.94162,-1.97554 0.94162,-3.51325 0,-1.41639 -0.31387,-2.50307 -0.94162,-3.26533 -0.62774,-0.75962 -1.33989,-1.13943 -2.13908,-1.13943 -0.42465,0 -0.84666,0.10814 -1.27131,0.32442 -0.31915,0.16353 -0.72533,0.48531 -1.2212,0.96799 m 0,-0.77545 c 1.06295,-1.48759 2.21029,-2.23139 3.44204,-2.23139 1.12889,0 2.11271,0.48531 2.95409,1.45594 0.83876,0.97063 1.25813,2.29734 1.25813,3.98011 0,1.96236 -0.65148,3.54491 -1.95181,4.74501 -1.1157,1.0313 -2.36327,1.54562 -3.73481,1.54562 -0.64357,0 -1.29506,-0.11869 -1.95973,-0.35079 -0.66203,-0.23475 -1.33725,-0.58819 -2.0283,-1.05504 l 0,-11.45237 c 0,-1.25813 -0.0317,-2.03094 -0.0897,-2.32108 -0.0607,-0.29277 -0.15562,-0.49059 -0.28486,-0.59345 -0.12925,-0.10551 -0.29014,-0.15826 -0.48268,-0.15826 -0.2242,0 -0.50642,0.0659 -0.84139,0.19255 l -0.1688,-0.42729 3.34181,-1.34781 0.54598,0 0,8.01825 z"
       inkscape:connector-curvature="0" />
    <path
       id="path45727"
       style="fill:#050606;fill-opacity:1;fill-rule:nonzero;stroke:none"
       d="m 203.19447,553.52142 0,14.66495 c 0,0.69896 0.0501,1.16317 0.15034,1.39001 0.10023,0.22683 0.25321,0.39827 0.46158,0.51696 0.20837,0.11606 0.59609,0.17672 1.16317,0.17672 l 0,0.42993 -5.44924,0 0,-0.42993 c 0.51433,0 0.86513,-0.0527 1.05239,-0.15825 0.18727,-0.10551 0.33498,-0.27959 0.44312,-0.52488 0.1055,-0.24266 0.15825,-0.70951 0.15825,-1.40056 l 0,-10.00962 c 0,-1.26076 -0.029,-2.03621 -0.0844,-2.32371 -0.058,-0.29013 -0.1477,-0.48531 -0.27431,-0.59082 -0.12396,-0.1055 -0.28222,-0.15825 -0.47476,-0.15825 -0.21101,0 -0.47741,0.0659 -0.79919,0.19254 l -0.20573,-0.42729 3.3128,-1.3478 0.54598,0 z"
       inkscape:connector-curvature="0" />
    <path
       id="path45731"
       style="fill:#050606;fill-opacity:1;fill-rule:nonzero;stroke:none"
       d="m 210.37555,553.52142 c 0.33761,0 0.62511,0.11869 0.86249,0.35607 0.23738,0.23739 0.35607,0.52488 0.35607,0.86249 0,0.33761 -0.11869,0.62775 -0.35607,0.8704 -0.23738,0.24002 -0.52488,0.36135 -0.86249,0.36135 -0.33761,0 -0.62774,-0.12133 -0.86776,-0.36135 -0.24266,-0.24265 -0.36399,-0.53279 -0.36399,-0.8704 0,-0.33761 0.11869,-0.6251 0.35607,-0.86249 0.23739,-0.23738 0.53016,-0.35607 0.87568,-0.35607 m 1.00492,5.78685 0,8.8781 c 0,0.69896 0.0501,1.16317 0.1477,1.39528 0.10023,0.23211 0.24794,0.40355 0.44048,0.51697 0.19518,0.11341 0.54862,0.17144 1.06294,0.17144 l 0,0.42993 -5.35692,0 0,-0.42993 c 0.53806,0 0.89941,-0.0527 1.08404,-0.15825 0.18463,-0.10551 0.3297,-0.27959 0.43784,-0.52488 0.10814,-0.24266 0.16353,-0.70951 0.16353,-1.40056 l 0,-4.22277 c 0,-1.21592 -0.0369,-2.00456 -0.11078,-2.36327 -0.0554,-0.26376 -0.14506,-0.44311 -0.26639,-0.54598 -0.12133,-0.10023 -0.2875,-0.15034 -0.49587,-0.15034 -0.22683,0 -0.50114,0.0607 -0.82556,0.17936 l -0.16881,-0.42729 3.35237,-1.34781 0.53543,0 z"
       inkscape:connector-curvature="0" />
    <path
       id="path45735"
       style="fill:#050606;fill-opacity:1;fill-rule:nonzero;stroke:none"
       d="m 225.19981,566.48829 c -0.30068,1.46913 -0.88623,2.59538 -1.75927,3.3761 -0.87304,0.78073 -1.84103,1.17109 -2.90134,1.17109 -1.2634,0 -2.36327,-0.52752 -3.29961,-1.58255 -0.94162,-1.05503 -1.40847,-2.47933 -1.40847,-4.27552 0,-1.73816 0.51961,-3.15191 1.56145,-4.23859 1.03921,-1.08668 2.28942,-1.63003 3.748,-1.63003 1.09196,0 1.99138,0.2875 2.69561,0.85986 0.70423,0.57499 1.05767,1.17108 1.05767,1.79091 0,0.30332 -0.10023,0.5539 -0.29805,0.73853 -0.20045,0.1899 -0.4774,0.28485 -0.83347,0.28485 -0.48004,0 -0.83348,-0.15298 -1.06822,-0.45893 -0.14771,-0.16881 -0.24266,-0.49323 -0.2875,-0.968 -0.0448,-0.47476 -0.20837,-0.83875 -0.49323,-1.08932 -0.28485,-0.24002 -0.67785,-0.36135 -1.17899,-0.36135 -0.81238,0 -1.46386,0.29805 -1.95973,0.89414 -0.65676,0.786 -0.98382,1.83048 -0.98382,3.12554 0,1.32143 0.32443,2.48724 0.97855,3.49743 0.65412,1.01019 1.53771,1.51397 2.64813,1.51397 0.79655,0 1.5087,-0.26376 2.14171,-0.79127 0.44839,-0.36663 0.88096,-1.04448 1.30297,-2.02567 l 0.33761,0.16881 z"
       inkscape:connector-curvature="0" />
    <path
       id="path45739"
       style="fill:#050606;fill-opacity:1;fill-rule:nonzero;stroke:none"
       d="m 230.85558,553.52142 c 0.33761,0 0.62511,0.11869 0.86249,0.35607 0.23738,0.23739 0.35607,0.52488 0.35607,0.86249 0,0.33761 -0.11869,0.62775 -0.35607,0.8704 -0.23738,0.24002 -0.52488,0.36135 -0.86249,0.36135 -0.33761,0 -0.62774,-0.12133 -0.8704,-0.36135 -0.24002,-0.24265 -0.36135,-0.53279 -0.36135,-0.8704 0,-0.33761 0.11869,-0.6251 0.35607,-0.86249 0.23739,-0.23738 0.53016,-0.35607 0.87568,-0.35607 m 1.00492,5.78685 0,8.8781 c 0,0.69896 0.0475,1.16317 0.1477,1.39528 0.10023,0.23211 0.2453,0.40355 0.44048,0.51697 0.19518,0.11341 0.54862,0.17144 1.06294,0.17144 l 0,0.42993 -5.35692,0 0,-0.42993 c 0.53806,0 0.89677,-0.0527 1.08141,-0.15825 0.18463,-0.10551 0.33233,-0.27959 0.44047,-0.52488 0.10814,-0.24266 0.16089,-0.70951 0.16089,-1.40056 l 0,-4.22277 c 0,-1.21592 -0.0343,-2.00456 -0.10814,-2.36327 -0.0554,-0.26376 -0.14506,-0.44311 -0.26639,-0.54598 -0.12133,-0.10023 -0.2875,-0.15034 -0.49851,-0.15034 -0.22419,0 -0.4985,0.0607 -0.82292,0.17936 l -0.17144,-0.42729 3.355,-1.34781 0.53543,0 z"
       inkscape:connector-curvature="0" />
    <path
       id="path45743"
       style="fill:#050606;fill-opacity:1;fill-rule:nonzero;stroke:none"
       d="m 244.08648,568.60917 0,-5.64179 c -0.0475,-0.55653 -0.19254,-1.05503 -0.43256,-1.50606 -0.24266,-0.44838 -0.56181,-0.78599 -0.96008,-1.01546 -0.39564,-0.22684 -0.78336,-0.34289 -1.16054,-0.34289 -0.70951,0 -1.33725,0.31651 -1.89114,0.94953 -0.73061,0.83611 -1.09724,2.05204 -1.09724,3.65305 0,1.61947 0.35344,2.85914 1.06031,3.72163 0.70687,0.85985 1.49287,1.29241 2.36063,1.29241 0.73061,0 1.43749,-0.36926 2.12062,-1.11042 m 0,0.84139 c -0.5407,0.56972 -1.06822,0.9759 -1.58519,1.21856 -0.51696,0.24266 -1.07085,0.36662 -1.66959,0.36662 -1.20801,0 -2.26568,-0.50641 -3.16773,-1.51397 -0.90469,-1.01019 -1.35308,-2.30788 -1.35308,-3.89043 0,-1.58519 0.4985,-3.03586 1.49815,-4.34937 0.99964,-1.31615 2.28678,-1.97291 3.85878,-1.97291 0.9759,0 1.78037,0.3297 2.41866,0.99173 l 0,-2.12589 c 0,-1.25813 -0.029,-2.03358 -0.0897,-2.32371 -0.0607,-0.29013 -0.15298,-0.48532 -0.28222,-0.59082 -0.12924,-0.10286 -0.29013,-0.15562 -0.48004,-0.15562 -0.20837,0 -0.48531,0.0633 -0.8282,0.19255 l -0.15562,-0.42993 3.28379,-1.34516 0.54334,0 0,12.79754 c 0,1.29769 0.029,2.0916 0.0897,2.37646 0.058,0.2875 0.15562,0.48532 0.2875,0.59873 0.13188,0.11342 0.28486,0.16881 0.46157,0.16881 0.21629,0 0.50378,-0.0686 0.86513,-0.2031 l 0.13188,0.42729 -3.27324,1.3478 -0.55389,0 0,-1.58518 z"
       inkscape:connector-curvature="0" />
    <path
       id="path45747"
       style="fill:#050606;fill-opacity:1;fill-rule:nonzero;stroke:none"
       d="m 256.14682,568.32775 0,-4.21222 c -1.21592,0.48268 -2.00192,0.82557 -2.358,1.02602 -0.63565,0.35344 -1.09196,0.72534 -1.36363,1.11042 -0.27431,0.38773 -0.41146,0.80974 -0.41146,1.26868 0,0.57763 0.17408,1.06031 0.5196,1.44012 0.34553,0.38245 0.7438,0.57499 1.19483,0.57499 0.61455,0 1.41902,-0.40355 2.41866,-1.20801 m 0,0.78336 c -1.13416,0.88359 -1.84631,1.39264 -2.13644,1.5298 -0.43256,0.20045 -0.89678,0.30332 -1.38737,0.30332 -0.7649,0 -1.39264,-0.26376 -1.88851,-0.786 -0.49586,-0.52224 -0.74116,-1.21329 -0.74116,-2.06522 0,-0.54071 0.12133,-1.00756 0.36135,-1.4032 0.3297,-0.54598 0.90205,-1.06294 1.7197,-1.54562 0.81502,-0.48268 2.17337,-1.07086 4.07243,-1.76454 l 0,-0.4352 c 0,-1.10779 -0.17408,-1.87005 -0.52224,-2.28151 -0.34816,-0.4141 -0.85458,-0.61983 -1.51925,-0.61983 -0.50378,0 -0.90469,0.13715 -1.2001,0.41146 -0.30596,0.27431 -0.4563,0.58818 -0.4563,0.94162 l 0.0237,0.70159 c 0,0.3719 -0.0949,0.65676 -0.28486,0.85722 -0.19254,0.20309 -0.44048,0.30332 -0.74643,0.30332 -0.30069,0 -0.54335,-0.1055 -0.73589,-0.31387 -0.18991,-0.20837 -0.28486,-0.49587 -0.28486,-0.85722 0,-0.69104 0.35344,-1.32934 1.06031,-1.90961 0.70687,-0.58026 1.70124,-0.8704 2.97783,-0.8704 0.98118,0 1.78564,0.16617 2.41338,0.49587 0.47213,0.24793 0.82293,0.63565 1.04712,1.16317 0.14507,0.34816 0.21892,1.0524 0.21892,2.11798 l 0,3.74009 c 0,1.05239 0.0185,1.69596 0.0607,1.93071 0.0396,0.23738 0.1055,0.39564 0.19782,0.47476 0.0923,0.0818 0.20045,0.12133 0.31914,0.12133 0.12925,0 0.24266,-0.029 0.34025,-0.087 0.16881,-0.1055 0.49587,-0.40355 0.97854,-0.8915 l 0,0.68577 c -0.90205,1.21592 -1.7619,1.82521 -2.58482,1.82521 -0.393,0 -0.70688,-0.13452 -0.94162,-0.40355 -0.23211,-0.2664 -0.35344,-0.7227 -0.36135,-1.36891"
       inkscape:connector-curvature="0" />
    <path
       id="path45751"
       style="fill:#050606;fill-opacity:1;fill-rule:nonzero;stroke:none"
       d="m 270.06296,568.60917 0,-5.64179 c -0.0475,-0.55653 -0.19254,-1.05503 -0.43256,-1.50606 -0.24266,-0.44838 -0.56181,-0.78599 -0.96008,-1.01546 -0.39564,-0.22684 -0.78336,-0.34289 -1.16054,-0.34289 -0.70687,0 -1.33725,0.31651 -1.89114,0.94953 -0.73061,0.83611 -1.09724,2.05204 -1.09724,3.65305 0,1.61947 0.35344,2.85914 1.06031,3.72163 0.70687,0.85985 1.49287,1.29241 2.36063,1.29241 0.73061,0 1.43749,-0.36926 2.12062,-1.11042 m 0,0.84139 c -0.5407,0.56972 -1.06822,0.9759 -1.58519,1.21856 -0.51432,0.24266 -1.07085,0.36662 -1.66959,0.36662 -1.20801,0 -2.26568,-0.50641 -3.16773,-1.51397 -0.90469,-1.01019 -1.35308,-2.30788 -1.35308,-3.89043 0,-1.58519 0.4985,-3.03586 1.49815,-4.34937 0.99964,-1.31615 2.28678,-1.97291 3.85878,-1.97291 0.9759,0 1.78037,0.3297 2.41866,0.99173 l 0,-2.12589 c 0,-1.25813 -0.029,-2.03358 -0.0897,-2.32371 -0.0607,-0.29013 -0.15298,-0.48532 -0.28222,-0.59082 -0.12924,-0.10286 -0.2875,-0.15562 -0.48004,-0.15562 -0.20837,0 -0.48531,0.0633 -0.8282,0.19255 l -0.15562,-0.42993 3.28379,-1.34516 0.54334,0 0,12.79754 c 0,1.29769 0.029,2.0916 0.0897,2.37646 0.058,0.2875 0.15562,0.48532 0.2875,0.59873 0.13188,0.11342 0.28486,0.16881 0.46157,0.16881 0.21629,0 0.50642,-0.0686 0.86513,-0.2031 l 0.13188,0.42729 -3.27324,1.3478 -0.55389,0 0,-1.58518 z"
       inkscape:connector-curvature="0" />
    <path
       id="path45755"
       style="fill:#050606;fill-opacity:1;fill-rule:nonzero;stroke:none"
       d="m 285.24171,563.10533 5.14328,0 c -0.0396,-0.70687 -0.12396,-1.20537 -0.25584,-1.49287 -0.20046,-0.45103 -0.50114,-0.80446 -0.90205,-1.06031 -0.40092,-0.25848 -0.82029,-0.38772 -1.25549,-0.38772 -0.67259,0 -1.27132,0.26112 -1.80147,0.77808 -0.53016,0.51961 -0.83875,1.23967 -0.92843,2.16282 m 0,0.70423 c -0.008,1.62475 0.39036,2.89607 1.19746,3.81922 0.8071,0.92579 1.75663,1.38473 2.84595,1.38473 0.72534,0 1.35572,-0.19518 1.89379,-0.58554 0.53542,-0.393 0.98645,-1.0735 1.35044,-2.04676 l 0.36662,0.24265 c -0.1688,1.12098 -0.66203,2.13908 -1.47441,3.04641 -0.81501,0.90997 -1.83312,1.36627 -3.05959,1.36627 -1.32934,0 -2.46878,-0.51961 -3.41303,-1.5509 -0.94953,-1.03393 -1.42166,-2.42394 -1.42166,-4.16738 0,-1.89115 0.48532,-3.36555 1.45595,-4.42322 0.97326,-1.05767 2.19183,-1.58783 3.65832,-1.58783 1.23967,0 2.26041,0.40883 3.05696,1.22648 0.79919,0.81765 1.19746,1.90961 1.19746,3.27587 l -7.65426,0 z"
       inkscape:connector-curvature="0" />
    <path
       id="path45759"
       style="fill:#050606;fill-opacity:1;fill-rule:nonzero;stroke:none"
       d="m 298.94368,561.63725 c 1.29241,-1.5509 2.52417,-2.32898 3.69789,-2.32898 0.60137,0 1.12097,0.15034 1.55353,0.45366 0.43257,0.30068 0.77809,0.79655 1.03657,1.4876 0.17672,0.48267 0.26376,1.22383 0.26376,2.22084 l 0,4.71599 c 0,0.70688 0.0554,1.18428 0.16881,1.43749 0.087,0.20309 0.22947,0.36134 0.42729,0.47476 0.19518,0.11342 0.55916,0.17144 1.08932,0.17144 l 0,0.42729 -5.4809,0 0,-0.42729 0.22683,0 c 0.5117,0 0.87041,-0.0791 1.0735,-0.23738 0.20573,-0.15825 0.34816,-0.393 0.42729,-0.7016 0.0317,-0.12132 0.0475,-0.50114 0.0475,-1.14471 l 0,-4.53136 c 0,-1.00756 -0.12924,-1.73817 -0.38772,-2.19447 -0.25848,-0.4563 -0.69632,-0.68313 -1.31088,-0.68313 -0.94689,0 -1.89114,0.52488 -2.83276,1.57463 l 0,5.83433 c 0,0.75699 0.0448,1.22384 0.13452,1.4032 0.11341,0.23474 0.26639,0.40618 0.46685,0.51696 0.19782,0.10814 0.59873,0.16353 1.20537,0.16353 l 0,0.42729 -5.48089,0 0,-0.42729 0.23738,0 c 0.55653,0 0.93107,-0.14506 1.12361,-0.43256 0.19518,-0.2875 0.29277,-0.83875 0.29277,-1.65113 l 0,-4.10143 c 0,-1.33198 -0.0317,-2.14172 -0.0897,-2.43185 -0.0633,-0.29014 -0.15562,-0.48796 -0.27959,-0.59346 -0.1266,-0.10287 -0.29541,-0.15562 -0.50378,-0.15562 -0.22683,0 -0.4985,0.0607 -0.81237,0.17936 l -0.18199,-0.42729 3.36291,-1.3478 0.52488,0 0,2.32898 z"
       inkscape:connector-curvature="0" />
    <path
       id="path45763"
       style="fill:#050606;fill-opacity:1;fill-rule:nonzero;stroke:none"
       d="m 324.0123,559.30827 0,3.76647 -0.42993,0 c -0.30068,-1.18692 -0.69104,-1.99138 -1.16317,-2.4213 -0.47476,-0.42465 -1.07613,-0.64094 -1.80938,-0.64094 -0.55917,0 -1.00756,0.15035 -1.35044,0.44839 -0.34289,0.29805 -0.51433,0.62775 -0.51433,0.99173 0,0.45103 0.12397,0.83875 0.36662,1.16054 0.23739,0.33233 0.73853,0.6805 1.50343,1.05239 l 1.76717,0.85986 c 1.63794,0.79655 2.45559,1.84894 2.45559,3.15191 0,1.00755 -0.37717,1.81729 -1.13679,2.43448 -0.75699,0.61456 -1.60629,0.92316 -2.54263,0.92316 -0.67522,0 -1.44276,-0.11342 -2.31052,-0.34553 -0.26376,-0.0765 -0.48004,-0.11341 -0.64885,-0.11341 -0.18463,0 -0.3297,0.0923 -0.43256,0.27431 l -0.42993,0 0,-3.94846 0.42993,0 c 0.22419,1.13416 0.65412,1.99137 1.28714,2.56636 0.63565,0.575 1.34516,0.86249 2.13116,0.86249 0.5539,0 1.00492,-0.16353 1.35308,-0.49059 0.3508,-0.32706 0.52488,-0.72006 0.52488,-1.179 0,-0.55916 -0.19782,-1.02602 -0.59346,-1.40583 -0.39563,-0.37981 -1.17899,-0.85721 -2.35008,-1.43748 -1.16845,-0.57763 -1.93598,-1.10251 -2.29733,-1.56936 -0.36399,-0.45894 -0.54598,-1.03657 -0.54598,-1.73817 0,-0.90996 0.31123,-1.67222 0.9337,-2.2815 0.62511,-0.61456 1.42957,-0.92052 2.41866,-0.92052 0.4352,0 0.96008,0.0923 1.57991,0.27695 0.41147,0.12132 0.68314,0.18199 0.82029,0.18199 0.12924,0 0.22947,-0.029 0.30069,-0.0844 0.0739,-0.0554 0.15825,-0.182 0.2532,-0.37454 l 0.42993,0 z"
       inkscape:connector-curvature="0" />
    <path
       id="path45767"
       style="fill:#050606;fill-opacity:1;fill-rule:nonzero;stroke:none"
       d="m 337.49351,559.61449 0,6.7654 c 0,1.26867 0.029,2.04148 0.0923,2.3237 0.058,0.28223 0.15561,0.48268 0.29013,0.59082 0.13188,0.11342 0.29013,0.16881 0.46685,0.16881 0.25057,0 0.53279,-0.0659 0.8493,-0.2031 l 0.16881,0.42729 -3.3128,1.34781 -0.54598,0 0,-2.33163 c -0.94953,1.02602 -1.67487,1.67223 -2.17337,1.93599 -0.4985,0.26376 -1.02602,0.39564 -1.58255,0.39564 -0.61983,0 -1.1579,-0.17936 -1.61156,-0.53807 -0.4563,-0.35871 -0.77018,-0.82293 -0.94953,-1.38737 -0.17672,-0.56444 -0.26376,-1.36363 -0.26376,-2.39756 l 0,-4.95338 c 0,-0.52751 -0.058,-0.8915 -0.1688,-1.09459 -0.11342,-0.2031 -0.27959,-0.35871 -0.50114,-0.46949 -0.22156,-0.10814 -0.61984,-0.15826 -1.19747,-0.15034 l 0,-0.42993 3.8878,0 0,7.43007 c 0,1.03393 0.17935,1.71442 0.53543,2.03621 0.35607,0.32442 0.78863,0.48531 1.29505,0.48531 0.34289,0 0.73325,-0.10814 1.17109,-0.32706 0.43783,-0.21892 0.95744,-0.63565 1.55881,-1.25021 l 0,-6.26162 c 0,-0.64884 -0.11342,-1.08668 -0.34289,-1.31615 -0.22947,-0.22683 -0.70687,-0.3508 -1.43221,-0.36662 l 0,-0.42993 3.76647,0 z"
       inkscape:connector-curvature="0" />
    <path
       id="path45771"
       style="fill:#050606;fill-opacity:1;fill-rule:nonzero;stroke:none"
       d="m 352.27372,561.68236 c 0.79919,-0.81238 1.27131,-1.27923 1.41638,-1.40056 0.35871,-0.30859 0.74644,-0.54597 1.16317,-0.71742 0.4141,-0.1688 0.8282,-0.25584 1.23439,-0.25584 0.68841,0 1.27923,0.20309 1.77509,0.60928 0.49587,0.40619 0.82821,0.99437 0.99701,1.76454 0.8282,-0.97327 1.53243,-1.6142 2.10479,-1.91752 0.57499,-0.30332 1.16317,-0.4563 1.76982,-0.4563 0.59082,0 1.11306,0.15034 1.56936,0.45102 0.4563,0.30333 0.81765,0.79655 1.08404,1.47969 0.17936,0.46685 0.2664,1.19746 0.2664,2.19446 l 0,4.75293 c 0,0.69895 0.0528,1.17899 0.15562,1.43748 0.0791,0.17935 0.22683,0.33233 0.44311,0.4563 0.21628,0.1266 0.56708,0.1899 1.05503,0.1899 l 0,0.42729 -5.44924,0 0,-0.42729 0.22683,0 c 0.47213,0 0.83875,-0.0949 1.10515,-0.27958 0.18199,-0.12924 0.31387,-0.33761 0.39564,-0.62247 0.0316,-0.13715 0.0475,-0.53015 0.0475,-1.18163 l 0,-4.7371 c 0,-0.89942 -0.11078,-1.53244 -0.32706,-1.9017 -0.31387,-0.51432 -0.81765,-0.77017 -1.51133,-0.77017 -0.42729,0 -0.85722,0.10814 -1.28714,0.31915 -0.43256,0.21364 -0.95217,0.60928 -1.56409,1.18691 l -0.0264,0.13452 0.0607,0.51696 0,5.25143 c 0,0.76489 0.0422,1.23966 0.12661,1.42429 0.0818,0.18727 0.24002,0.34552 0.46948,0.46949 0.23211,0.1266 0.62511,0.1899 1.18164,0.1899 l 0,0.42729 -5.57321,0 0,-0.42729 c 0.60401,0 1.01811,-0.0738 1.24494,-0.21891 0.22683,-0.14771 0.38245,-0.36663 0.47213,-0.65676 0.0396,-0.13979 0.058,-0.54071 0.058,-1.20801 l 0,-4.73446 c 0,-0.89678 -0.13187,-1.54826 -0.39563,-1.94918 -0.3508,-0.52487 -0.84139,-0.78599 -1.47177,-0.78599 -0.43257,0 -0.85985,0.11869 -1.28187,0.35343 -0.66467,0.36135 -1.17372,0.7649 -1.53507,1.21329 l 0,5.90291 c 0,0.73324 0.0501,1.20801 0.15034,1.42429 0.0976,0.22156 0.2453,0.38509 0.44048,0.49323 0.19518,0.11078 0.59082,0.16616 1.18427,0.16616 l 0,0.42729 -5.44924,0 0,-0.42729 c 0.50114,0 0.8493,-0.0554 1.04712,-0.16616 0.19782,-0.10814 0.34816,-0.28222 0.45366,-0.52224 0.10023,-0.24002 0.15298,-0.70424 0.15298,-1.39528 l 0,-4.22277 c 0,-1.21856 -0.0369,-2.00456 -0.10814,-2.358 -0.058,-0.2664 -0.14506,-0.45103 -0.26639,-0.55125 -0.12397,-0.10023 -0.2875,-0.15298 -0.49851,-0.15298 -0.22683,0 -0.4985,0.0633 -0.81237,0.18199 l -0.18199,-0.42729 3.36555,-1.3478 0.52224,0 0,2.37382 z"
       inkscape:connector-curvature="0" />
    <path
       id="path45775"
       style="fill:#050606;fill-opacity:1;fill-rule:nonzero;stroke:none"
       d="m 377.05723,553.91996 -3.59766,4.16474 -0.4141,0 1.31879,-4.16474 2.69297,0 z m -1.2845,14.40647 0,-4.20958 c -1.21856,0.48268 -2.00456,0.82292 -2.358,1.02338 -0.63566,0.35607 -1.09196,0.72797 -1.36627,1.11306 -0.27431,0.38509 -0.40882,0.8071 -0.40882,1.26604 0,0.58027 0.17144,1.06031 0.51696,1.44276 0.34816,0.38244 0.74644,0.57235 1.19747,0.57235 0.61191,0 1.41901,-0.40091 2.41866,-1.20801 m 0,0.786 c -1.1368,0.88095 -1.84895,1.39 -2.13644,1.52716 -0.4352,0.20309 -0.89678,0.30332 -1.38737,0.30332 -0.7649,0 -1.39528,-0.26112 -1.88851,-0.78336 -0.49586,-0.52488 -0.7438,-1.21329 -0.7438,-2.06787 0,-0.53806 0.12133,-1.00491 0.36135,-1.40055 0.3297,-0.54862 0.90469,-1.06295 1.71971,-1.54562 0.81765,-0.48532 2.176,-1.0735 4.07506,-1.76455 l 0,-0.43783 c 0,-1.10779 -0.17672,-1.87005 -0.52488,-2.28151 -0.34816,-0.41147 -0.85458,-0.6172 -1.51925,-0.6172 -0.50378,0 -0.90469,0.13716 -1.2001,0.40883 -0.30332,0.27431 -0.4563,0.58818 -0.4563,0.94162 l 0.0237,0.70423 c 0,0.36926 -0.0949,0.65676 -0.28486,0.85721 -0.1899,0.20046 -0.43784,0.30069 -0.74643,0.30069 -0.29805,0 -0.54335,-0.10287 -0.73325,-0.31387 -0.18991,-0.20837 -0.28486,-0.49323 -0.28486,-0.85722 0,-0.69104 0.35344,-1.32934 1.06031,-1.90697 0.70687,-0.58027 1.6986,-0.8704 2.97783,-0.8704 0.98118,0 1.783,0.16353 2.41075,0.49323 0.47476,0.25057 0.82292,0.63829 1.04975,1.16581 0.14243,0.34552 0.21628,1.04975 0.21628,2.11797 l 0,3.74009 c 0,1.04976 0.0211,1.69333 0.0607,1.93071 0.0396,0.23475 0.1055,0.393 0.20045,0.47477 0.0897,0.0791 0.19782,0.11869 0.31915,0.11869 0.12924,0 0.24266,-0.029 0.33761,-0.0844 0.17145,-0.10551 0.49587,-0.40355 0.98118,-0.89414 l 0,0.68577 c -0.90205,1.21592 -1.76454,1.8252 -2.58483,1.8252 -0.39563,0 -0.70951,-0.13451 -0.94425,-0.40091 -0.23211,-0.26639 -0.35344,-0.72269 -0.35871,-1.3689"
       inkscape:connector-curvature="0" />
    <path
       id="path45779"
       style="fill:#050606;fill-opacity:1;fill-rule:nonzero;stroke:none"
       d="m 381.38972,559.61449 5.14328,0 0,0.42993 c -0.32706,0 -0.55653,0.058 -0.68841,0.17144 -0.13187,0.11341 -0.19781,0.26376 -0.19781,0.45366 0,0.19518 0.1477,0.49587 0.45102,0.90469 0.087,0.12924 0.22156,0.3297 0.40091,0.60137 l 0.82029,1.26604 0.8915,-1.24494 c 0.59346,-0.79127 0.89151,-1.29769 0.89415,-1.51924 0,-0.17672 -0.0659,-0.32706 -0.2031,-0.45103 -0.13452,-0.12133 -0.35343,-0.18199 -0.65939,-0.18199 l 0,-0.42993 3.67942,0 0,0.42993 c -0.39564,0.0237 -0.73852,0.13187 -1.02865,0.32706 -0.39564,0.27167 -0.93107,0.86776 -1.60102,1.78564 l -1.52452,2.02302 2.74572,3.99066 c 0.67522,0.97855 1.16054,1.56673 1.45067,1.76718 0.2875,0.19518 0.66204,0.3086 1.12098,0.33234 l 0,0.42992 -5.2356,0 0,-0.42992 c 0.36134,0 0.64093,-0.0791 0.84402,-0.24266 0.15298,-0.11342 0.22947,-0.26376 0.22947,-0.44839 0,-0.18463 -0.25848,-0.65412 -0.76753,-1.40583 l -1.61157,-2.36591 -1.76981,2.35272 c -0.54335,0.73853 -0.81238,1.179 -0.81238,1.31616 0,0.19518 0.0923,0.3719 0.27695,0.53015 0.18199,0.16089 0.45894,0.24793 0.82556,0.26376 l 0,0.42992 -3.61349,0 0,-0.42992 c 0.29014,-0.0396 0.54335,-0.14243 0.75699,-0.30332 0.30596,-0.23475 0.81765,-0.83348 1.54035,-1.7962 l 2.30261,-3.08333 -2.08897,-3.06751 c -0.58818,-0.87304 -1.04184,-1.41901 -1.36363,-1.64321 -0.32178,-0.22156 -0.7227,-0.33233 -1.20801,-0.33233 l 0,-0.42993 z"
       inkscape:connector-curvature="0" />
    <path
       id="path45783"
       style="fill:#050606;fill-opacity:1;fill-rule:nonzero;stroke:none"
       d="m 398.32326,553.52142 c 0.33761,0 0.62511,0.11869 0.86249,0.35607 0.23738,0.23739 0.35607,0.52488 0.35607,0.86249 0,0.33761 -0.11869,0.62775 -0.35607,0.8704 -0.23738,0.24002 -0.52488,0.36135 -0.86249,0.36135 -0.33761,0 -0.62774,-0.12133 -0.86776,-0.36135 -0.24266,-0.24265 -0.36135,-0.53279 -0.36135,-0.8704 0,-0.33761 0.11605,-0.6251 0.35343,-0.86249 0.23739,-0.23738 0.53016,-0.35607 0.87568,-0.35607 m 1.00492,5.78685 0,8.8781 c 0,0.69896 0.0501,1.16317 0.15034,1.39528 0.0976,0.23211 0.24266,0.40355 0.43784,0.51697 0.19518,0.11341 0.54862,0.17144 1.06558,0.17144 l 0,0.42993 -5.35956,0 0,-0.42993 c 0.53806,0 0.89677,-0.0527 1.08404,-0.15825 0.18463,-0.10551 0.3297,-0.27959 0.43784,-0.52488 0.10814,-0.24266 0.16353,-0.70951 0.16353,-1.40056 l 0,-4.22277 c 0,-1.21592 -0.0369,-2.00456 -0.10814,-2.36327 -0.0607,-0.26376 -0.1477,-0.44311 -0.26903,-0.54598 -0.12133,-0.10023 -0.2875,-0.15034 -0.49587,-0.15034 -0.22683,0 -0.50114,0.0607 -0.82556,0.17936 l -0.16881,-0.42729 3.35237,-1.34781 0.53543,0 z"
       inkscape:connector-curvature="0" />
    <path
       id="path45787"
       style="fill:#050606;fill-opacity:1;fill-rule:nonzero;stroke:none"
       d="m 406.99378,561.68236 c 0.79919,-0.81238 1.27131,-1.27923 1.41638,-1.40056 0.35871,-0.30859 0.74644,-0.54597 1.16317,-0.71742 0.4141,-0.1688 0.82557,-0.25584 1.23439,-0.25584 0.68577,0 1.27923,0.20309 1.77246,0.60928 0.49586,0.40619 0.83084,0.99437 0.997,1.76454 0.83084,-0.97327 1.53507,-1.6142 2.10743,-1.91752 0.57499,-0.30332 1.16581,-0.4563 1.76982,-0.4563 0.58818,0 1.11306,0.15034 1.56936,0.45102 0.4563,0.30333 0.81501,0.79655 1.08404,1.47969 0.17672,0.46685 0.2664,1.19746 0.2664,2.19446 l 0,4.75293 c 0,0.69895 0.0528,1.17899 0.15562,1.43748 0.0791,0.17935 0.22683,0.33233 0.44311,0.4563 0.21628,0.1266 0.56708,0.1899 1.05503,0.1899 l 0,0.42729 -5.44924,0 0,-0.42729 0.22683,0 c 0.47213,0 0.84139,-0.0949 1.10251,-0.27958 0.18463,-0.12924 0.31651,-0.33761 0.39828,-0.62247 0.0316,-0.13715 0.0475,-0.53015 0.0475,-1.18163 l 0,-4.7371 c 0,-0.89942 -0.11078,-1.53244 -0.32706,-1.9017 -0.31387,-0.51432 -0.81765,-0.77017 -1.51133,-0.77017 -0.42729,0 -0.85722,0.10814 -1.28714,0.31915 -0.43256,0.21364 -0.95481,0.60928 -1.56672,1.18691 l -0.0237,0.13452 0.0607,0.51696 0,5.25143 c 0,0.76489 0.0422,1.23966 0.12397,1.42429 0.0844,0.18727 0.24266,0.34552 0.47212,0.46949 0.23211,0.1266 0.62247,0.1899 1.18164,0.1899 l 0,0.42729 -5.57321,0 0,-0.42729 c 0.60401,0 1.01811,-0.0738 1.24494,-0.21891 0.22683,-0.14771 0.38245,-0.36663 0.46949,-0.65676 0.0396,-0.13979 0.0607,-0.54071 0.0607,-1.20801 l 0,-4.73446 c 0,-0.89678 -0.13187,-1.54826 -0.39563,-1.94918 -0.3508,-0.52487 -0.84139,-0.78599 -1.47441,-0.78599 -0.42993,0 -0.85721,0.11869 -1.28187,0.35343 -0.66203,0.36135 -1.17108,0.7649 -1.53243,1.21329 l 0,5.90291 c 0,0.73324 0.0501,1.20801 0.15034,1.42429 0.0976,0.22156 0.2453,0.38509 0.43784,0.49323 0.19518,0.11078 0.59082,0.16616 1.18691,0.16616 l 0,0.42729 -5.44924,0 0,-0.42729 c 0.4985,0 0.84666,-0.0554 1.04712,-0.16616 0.19782,-0.10814 0.34816,-0.28222 0.45103,-0.52224 0.10286,-0.24002 0.15561,-0.70424 0.15561,-1.39528 l 0,-4.22277 c 0,-1.21856 -0.0369,-2.00456 -0.10814,-2.358 -0.058,-0.2664 -0.1477,-0.45103 -0.26903,-0.55125 -0.12133,-0.10023 -0.28486,-0.15298 -0.49587,-0.15298 -0.22683,0 -0.4985,0.0633 -0.81237,0.18199 l -0.18199,-0.42729 3.36291,-1.3478 0.52488,0 0,2.37382 z"
       inkscape:connector-curvature="0" />
    <path
       id="path45791"
       style="fill:#050606;fill-opacity:1;fill-rule:nonzero;stroke:none"
       d="m 430.4904,568.32775 0,-4.21222 c -1.21592,0.48268 -2.00192,0.82557 -2.358,1.02602 -0.63565,0.35344 -1.09196,0.72534 -1.36363,1.11042 -0.27431,0.38773 -0.41146,0.80974 -0.41146,1.26868 0,0.57763 0.17408,1.06031 0.5196,1.44012 0.34553,0.38245 0.7438,0.57499 1.19483,0.57499 0.61192,0 1.41902,-0.40355 2.41866,-1.20801 m 0,0.78336 c -1.13416,0.88359 -1.84631,1.39264 -2.13644,1.5298 -0.4352,0.20045 -0.89678,0.30332 -1.38737,0.30332 -0.7649,0 -1.39264,-0.26376 -1.88851,-0.786 -0.49322,-0.52224 -0.74116,-1.21329 -0.74116,-2.06522 0,-0.54071 0.11869,-1.00756 0.36135,-1.4032 0.3297,-0.54598 0.90205,-1.06294 1.7197,-1.54562 0.81765,-0.48268 2.17337,-1.07086 4.07243,-1.76454 l 0,-0.4352 c 0,-1.10779 -0.17408,-1.87005 -0.52224,-2.28151 -0.34816,-0.4141 -0.85458,-0.61983 -1.51925,-0.61983 -0.50641,0 -0.90469,0.13715 -1.2001,0.41146 -0.30332,0.27431 -0.4563,0.58818 -0.4563,0.94162 l 0.0237,0.70159 c 0,0.3719 -0.095,0.65676 -0.28486,0.85722 -0.18991,0.20309 -0.44048,0.30332 -0.74907,0.30332 -0.29805,0 -0.54071,-0.1055 -0.73325,-0.31387 -0.18991,-0.20837 -0.28486,-0.49587 -0.28486,-0.85722 0,-0.69104 0.35344,-1.32934 1.06295,-1.90961 0.70423,-0.58026 1.6986,-0.8704 2.97519,-0.8704 0.98118,0 1.783,0.16617 2.41338,0.49587 0.47213,0.24793 0.82293,0.63565 1.04712,1.16317 0.14507,0.34816 0.21629,1.0524 0.21629,2.11798 l 0,3.74009 c 0,1.05239 0.0211,1.69596 0.0607,1.93071 0.0422,0.23738 0.10814,0.39564 0.20046,0.47476 0.0923,0.0818 0.20045,0.12133 0.32178,0.12133 0.12661,0 0.24002,-0.029 0.33761,-0.087 0.16881,-0.1055 0.49587,-0.40355 0.97854,-0.8915 l 0,0.68577 c -0.90205,1.21592 -1.7619,1.82521 -2.58219,1.82521 -0.39563,0 -0.70951,-0.13452 -0.94425,-0.40355 -0.23211,-0.2664 -0.35344,-0.7227 -0.36135,-1.36891"
       inkscape:connector-curvature="0" />
    <path
       id="path45795"
       style="fill:#050606;fill-opacity:1;fill-rule:nonzero;stroke:none"
       d="m 445.90258,563.10533 5.14328,0 c -0.0396,-0.70687 -0.12396,-1.20537 -0.25584,-1.49287 -0.20046,-0.45103 -0.50114,-0.80446 -0.90205,-1.06031 -0.40092,-0.25848 -0.82029,-0.38772 -1.25549,-0.38772 -0.67259,0 -1.27132,0.26112 -1.80147,0.77808 -0.53016,0.51961 -0.83875,1.23967 -0.92843,2.16282 m 0,0.70423 c -0.008,1.62475 0.39036,2.89607 1.19746,3.81922 0.8071,0.92579 1.75663,1.38473 2.84595,1.38473 0.72534,0 1.35572,-0.19518 1.89379,-0.58554 0.53542,-0.393 0.98645,-1.0735 1.35044,-2.04676 l 0.36662,0.24265 c -0.1688,1.12098 -0.66203,2.13908 -1.47441,3.04641 -0.81501,0.90997 -1.83312,1.36627 -3.05959,1.36627 -1.32934,0 -2.46614,-0.51961 -3.41303,-1.5509 -0.94689,-1.03393 -1.42166,-2.42394 -1.42166,-4.16738 0,-1.89115 0.48532,-3.36555 1.45595,-4.42322 0.97063,-1.05767 2.18919,-1.58783 3.65832,-1.58783 1.23967,0 2.26041,0.40883 3.05696,1.22648 0.79919,0.81765 1.19746,1.90961 1.19746,3.27587 l -7.65426,0 z"
       inkscape:connector-curvature="0" />
    <path
       id="path45799"
       style="fill:#050606;fill-opacity:1;fill-rule:nonzero;stroke:none"
       d="m 455.89901,559.61449 5.14328,0 0,0.42993 c -0.32706,0 -0.55653,0.058 -0.68841,0.17144 -0.13451,0.11341 -0.19781,0.26376 -0.19781,0.45366 0,0.19518 0.15034,0.49587 0.45102,0.90469 0.0897,0.12924 0.2242,0.3297 0.40091,0.60137 l 0.82029,1.26604 0.8915,-1.24494 c 0.59346,-0.79127 0.89151,-1.29769 0.89678,-1.51924 0,-0.17672 -0.0686,-0.32706 -0.20573,-0.45103 -0.13452,-0.12133 -0.35607,-0.18199 -0.65676,-0.18199 l 0,-0.42993 3.67943,0 0,0.42993 c -0.39564,0.0237 -0.74116,0.13187 -1.03129,0.32706 -0.39564,0.27167 -0.92843,0.86776 -1.60102,1.78564 l -1.52188,2.02302 2.74308,3.99066 c 0.67786,0.97855 1.16054,1.56673 1.45067,1.76718 0.29014,0.19518 0.66204,0.3086 1.12361,0.33234 l 0,0.42992 -5.23823,0 0,-0.42992 c 0.36134,0 0.64357,-0.0791 0.84402,-0.24266 0.15298,-0.11342 0.22947,-0.26376 0.22947,-0.44839 0,-0.18463 -0.25584,-0.65412 -0.76753,-1.40583 l -1.60893,-2.36591 -1.77245,2.35272 c -0.54071,0.73853 -0.81238,1.179 -0.81238,1.31616 0,0.19518 0.0923,0.3719 0.27695,0.53015 0.18463,0.16089 0.45894,0.24793 0.82556,0.26376 l 0,0.42992 -3.61349,0 0,-0.42992 c 0.2875,-0.0396 0.54071,-0.14243 0.75699,-0.30332 0.30596,-0.23475 0.82029,-0.83348 1.54035,-1.7962 l 2.30524,-3.08333 -2.0916,-3.06751 c -0.58818,-0.87304 -1.04184,-1.41901 -1.36363,-1.64321 -0.32178,-0.22156 -0.7227,-0.33233 -1.20801,-0.33233 l 0,-0.42993 z"
       inkscape:connector-curvature="0" />
    <path
       id="path45803"
       style="fill:#050606;fill-opacity:1;fill-rule:nonzero;stroke:none"
       d="m 473.10369,562.62213 0,4.14364 c 0,0.89414 0.0369,1.48496 0.10814,1.76718 0.11078,0.46685 0.38773,0.87831 0.82293,1.23439 0.44047,0.35607 0.98909,0.53279 1.6564,0.53279 0.80182,0 1.4533,-0.31387 1.94917,-0.94426 0.64884,-0.82292 0.97327,-1.98346 0.97327,-3.47633 0,-1.69596 -0.36663,-2.99893 -1.10515,-3.91153 -0.51433,-0.63038 -1.12361,-0.94425 -1.83048,-0.94425 -0.38509,0 -0.76754,0.0976 -1.14207,0.29013 -0.29014,0.14507 -0.76754,0.58291 -1.43221,1.30824 m -3.88779,-1.90697 3.42621,-1.34517 0.46158,0 0,2.53736 c 0.56972,-0.96008 1.14207,-1.6353 1.71443,-2.02039 0.57499,-0.38509 1.179,-0.57763 1.81202,-0.57763 1.10514,0 2.0283,0.43256 2.76682,1.30296 0.90733,1.06295 1.36099,2.44768 1.36099,4.15419 0,1.90961 -0.54598,3.48689 -1.6353,4.73446 -0.89941,1.02338 -2.03094,1.53507 -3.39457,1.53507 -0.59345,0 -1.10778,-0.087 -1.54034,-0.25848 -0.32179,-0.12133 -0.68314,-0.36399 -1.08405,-0.73061 l 0,3.37611 c 0,0.76753 0.0448,1.25548 0.13715,1.46385 0.0923,0.20837 0.25321,0.37454 0.48268,0.49587 0.22947,0.12396 0.64621,0.18463 1.24758,0.18463 l 0,0.42729 -5.81851,0 0,-0.42729 0.30333,0 c 0.44575,0.008 0.82556,-0.0791 1.14207,-0.25585 0.15298,-0.0897 0.27167,-0.23474 0.35607,-0.43256 0.087,-0.20046 0.12924,-0.70423 0.12924,-1.51661 l 0,-10.4712 c 0,-0.71742 -0.0343,-1.17108 -0.0976,-1.36363 -0.0659,-0.19518 -0.1688,-0.34024 -0.30859,-0.4352 -0.14243,-0.0976 -0.33498,-0.14506 -0.575,-0.14506 -0.19782,0 -0.44311,0.0554 -0.74116,0.1688 l -0.14506,-0.40091 z"
       inkscape:connector-curvature="0" />
    <path
       id="path45807"
       style="fill:#050606;fill-opacity:1;fill-rule:nonzero;stroke:none"
       d="m 486.96999,559.30827 0,2.47405 c 0.91788,-1.64849 1.85949,-2.47405 2.82485,-2.47405 0.44048,0 0.80446,0.13452 1.09196,0.40091 0.28749,0.26904 0.43256,0.58027 0.43256,0.93107 0,0.31387 -0.1055,0.57763 -0.31123,0.79391 -0.20837,0.21628 -0.4563,0.32442 -0.7438,0.32442 -0.27958,0 -0.59346,-0.13715 -0.93898,-0.4141 -0.34816,-0.27431 -0.60664,-0.4141 -0.77281,-0.4141 -0.14507,0 -0.30069,0.0818 -0.46685,0.24266 -0.36135,0.3297 -0.73325,0.8704 -1.1157,1.62739 l 0,5.32527 c 0,0.60665 0.0765,1.06559 0.23211,1.37946 0.10814,0.21364 0.29277,0.39564 0.56444,0.54334 0.26903,0.14771 0.65676,0.22156 1.16317,0.22156 l 0,0.42992 -5.72619,0 0,-0.42992 c 0.56445,0 0.98646,-0.0897 1.26077,-0.27167 0.20309,-0.12924 0.34288,-0.33761 0.42465,-0.62247 0.0396,-0.13979 0.0607,-0.53543 0.0607,-1.18955 l 0,-4.25442 c 0,-1.29769 -0.0264,-2.0705 -0.0791,-2.3158 -0.0528,-0.25057 -0.15035,-0.42992 -0.29278,-0.54334 -0.13979,-0.11341 -0.31651,-0.1688 -0.52751,-0.1688 -0.24794,0 -0.53279,0.0607 -0.84667,0.17935 l -0.12132,-0.42729 3.3761,-1.3478 0.51169,0 z"
       inkscape:connector-curvature="0" />
    <path
       id="path45811"
       style="fill:#050606;fill-opacity:1;fill-rule:nonzero;stroke:none"
       d="m 495.11167,563.10533 5.14328,0 c -0.0396,-0.70687 -0.12396,-1.20537 -0.2532,-1.49287 -0.2031,-0.45103 -0.50378,-0.80446 -0.90469,-1.06031 -0.40092,-0.25848 -0.82029,-0.38772 -1.25549,-0.38772 -0.67259,0 -1.27132,0.26112 -1.80147,0.77808 -0.53016,0.51961 -0.83875,1.23967 -0.92843,2.16282 m 0,0.70423 c -0.008,1.62475 0.39036,2.89607 1.19746,3.81922 0.8071,0.92579 1.75663,1.38473 2.84595,1.38473 0.72534,0 1.35836,-0.19518 1.89379,-0.58554 0.53542,-0.393 0.98645,-1.0735 1.35044,-2.04676 l 0.36662,0.24265 c -0.1688,1.12098 -0.65939,2.13908 -1.47441,3.04641 -0.81237,0.90997 -1.83312,1.36627 -3.05695,1.36627 -1.33198,0 -2.46878,-0.51961 -3.41567,-1.5509 -0.94953,-1.03393 -1.42166,-2.42394 -1.42166,-4.16738 0,-1.89115 0.48532,-3.36555 1.45595,-4.42322 0.97326,-1.05767 2.19183,-1.58783 3.65832,-1.58783 1.2423,0 2.26041,0.40883 3.05696,1.22648 0.79919,0.81765 1.19746,1.90961 1.19746,3.27587 l -7.65426,0 z"
       inkscape:connector-curvature="0" />
    <path
       id="path45815"
       style="fill:#050606;fill-opacity:1;fill-rule:nonzero;stroke:none"
       d="m 512.70328,559.30827 0,3.76647 -0.42993,0 c -0.30332,-1.18692 -0.69104,-1.99138 -1.16317,-2.4213 -0.47476,-0.42465 -1.07877,-0.64094 -1.81202,-0.64094 -0.55389,0 -1.00492,0.15035 -1.3478,0.44839 -0.34289,0.29805 -0.51433,0.62775 -0.51433,0.99173 0,0.45103 0.12133,0.83875 0.36662,1.16054 0.23475,0.33233 0.73853,0.6805 1.50343,1.05239 l 1.76717,0.85986 c 1.63794,0.79655 2.45559,1.84894 2.45559,3.15191 0,1.00755 -0.37717,1.81729 -1.13679,2.43448 -0.75699,0.61456 -1.60629,0.92316 -2.54263,0.92316 -0.67522,0 -1.44276,-0.11342 -2.31052,-0.34553 -0.26376,-0.0765 -0.48004,-0.11341 -0.64885,-0.11341 -0.18463,0 -0.32706,0.0923 -0.43256,0.27431 l -0.42993,0 0,-3.94846 0.42993,0 c 0.22419,1.13416 0.65412,1.99137 1.28714,2.56636 0.63565,0.575 1.34516,0.86249 2.13116,0.86249 0.5539,0 1.00492,-0.16353 1.35308,-0.49059 0.3508,-0.32706 0.52488,-0.72006 0.52488,-1.179 0,-0.55916 -0.19782,-1.02602 -0.59346,-1.40583 -0.39563,-0.37981 -1.17899,-0.85721 -2.35008,-1.43748 -1.16845,-0.57763 -1.93598,-1.10251 -2.29733,-1.56936 -0.36399,-0.45894 -0.54598,-1.03657 -0.54598,-1.73817 0,-0.90996 0.31123,-1.67222 0.9337,-2.2815 0.62247,-0.61456 1.42957,-0.92052 2.41866,-0.92052 0.4352,0 0.96008,0.0923 1.57991,0.27695 0.40883,0.12132 0.68314,0.18199 0.82029,0.18199 0.12924,0 0.22947,-0.029 0.30069,-0.0844 0.0739,-0.0554 0.15825,-0.182 0.2532,-0.37454 l 0.42993,0 z"
       inkscape:connector-curvature="0" />
    <path
       id="path45819"
       style="fill:#050606;fill-opacity:1;fill-rule:nonzero;stroke:none"
       d="m 519.30251,553.52142 c 0.33761,0 0.62511,0.11869 0.86249,0.35607 0.23738,0.23739 0.35343,0.52488 0.35343,0.86249 0,0.33761 -0.11605,0.62775 -0.35343,0.8704 -0.23738,0.24002 -0.52488,0.36135 -0.86249,0.36135 -0.34025,0 -0.62774,-0.12133 -0.8704,-0.36135 -0.24002,-0.24265 -0.36135,-0.53279 -0.36135,-0.8704 0,-0.33761 0.11869,-0.6251 0.35607,-0.86249 0.23739,-0.23738 0.52752,-0.35607 0.87568,-0.35607 m 1.00492,5.78685 0,8.8781 c 0,0.69896 0.0475,1.16317 0.1477,1.39528 0.0976,0.23211 0.2453,0.40355 0.44048,0.51697 0.19518,0.11341 0.54862,0.17144 1.06294,0.17144 l 0,0.42993 -5.35692,0 0,-0.42993 c 0.53543,0 0.89677,-0.0527 1.08141,-0.15825 0.18463,-0.10551 0.33233,-0.27959 0.44047,-0.52488 0.10814,-0.24266 0.16089,-0.70951 0.16089,-1.40056 l 0,-4.22277 c 0,-1.21592 -0.0343,-2.00456 -0.10814,-2.36327 -0.058,-0.26376 -0.1477,-0.44311 -0.26639,-0.54598 -0.12133,-0.10023 -0.2875,-0.15034 -0.49851,-0.15034 -0.22419,0 -0.50114,0.0607 -0.82556,0.17936 l -0.1688,-0.42729 3.355,-1.34781 0.53543,0 z"
       inkscape:connector-curvature="0" />
    <path
       id="path45823"
       style="fill:#050606;fill-opacity:1;fill-rule:nonzero;stroke:none"
       d="m 532.99235,553.91996 -3.59766,4.16474 -0.4141,0 1.31615,-4.16474 2.69561,0 z m -3.25741,6.18513 c -0.42993,0 -0.86249,0.1266 -1.29506,0.37981 -0.42992,0.25321 -0.78072,0.69632 -1.04975,1.33198 -0.2664,0.63566 -0.39828,1.45331 -0.39828,2.45031 0,1.60629 0.31915,2.99629 0.96272,4.1621 0.64357,1.16582 1.49287,1.74872 2.54527,1.74872 0.78599,0 1.4322,-0.32178 1.94126,-0.96535 0.51169,-0.64357 0.76489,-1.74872 0.76489,-3.31808 0,-1.96236 -0.42465,-3.50535 -1.27395,-4.63159 -0.57499,-0.77282 -1.30824,-1.1579 -2.1971,-1.1579 m 0.37453,-0.79655 c 1.67751,0 3.02267,0.63566 4.03814,1.90697 0.86249,1.08668 1.29505,2.3369 1.29505,3.74273 0,0.99173 -0.23738,1.99401 -0.71478,3.00948 -0.47477,1.01547 -1.13152,1.78036 -1.965,2.29469 -0.83348,0.51433 -1.7619,0.77281 -2.78529,0.77281 -1.66695,0 -2.99365,-0.66467 -3.97747,-1.99137 -0.8282,-1.12097 -1.2423,-2.37646 -1.2423,-3.7691 0,-1.01283 0.25057,-2.02303 0.75435,-3.02531 0.50378,-1.00228 1.16581,-1.74344 1.98874,-2.22348 0.82028,-0.4774 1.69069,-0.71742 2.60856,-0.71742"
       inkscape:connector-curvature="0" />
    <path
       id="path45827"
       style="fill:#050606;fill-opacity:1;fill-rule:nonzero;stroke:none"
       d="m 541.62225,561.63725 c 1.29241,-1.5509 2.5268,-2.32898 3.69789,-2.32898 0.60137,0 1.12097,0.15034 1.55353,0.45366 0.43257,0.30068 0.77809,0.79655 1.03657,1.4876 0.17672,0.48267 0.26376,1.22383 0.26376,2.22084 l 0,4.71599 c 0,0.70688 0.0554,1.18428 0.16881,1.43749 0.087,0.20309 0.22947,0.36134 0.42729,0.47476 0.19781,0.11342 0.55916,0.17144 1.08932,0.17144 l 0,0.42729 -5.4809,0 0,-0.42729 0.22683,0 c 0.51433,0 0.87041,-0.0791 1.0735,-0.23738 0.20573,-0.15825 0.34816,-0.393 0.42729,-0.7016 0.0317,-0.12132 0.0475,-0.50114 0.0475,-1.14471 l 0,-4.53136 c 0,-1.00756 -0.12924,-1.73817 -0.38772,-2.19447 -0.25848,-0.4563 -0.69632,-0.68313 -1.30824,-0.68313 -0.94953,0 -1.89378,0.52488 -2.8354,1.57463 l 0,5.83433 c 0,0.75699 0.0448,1.22384 0.13452,1.4032 0.11341,0.23474 0.26639,0.40618 0.46685,0.51696 0.19782,0.10814 0.59873,0.16353 1.20537,0.16353 l 0,0.42729 -5.48089,0 0,-0.42729 0.23738,0 c 0.55653,0 0.93107,-0.14506 1.12625,-0.43256 0.19254,-0.2875 0.29013,-0.83875 0.29013,-1.65113 l 0,-4.10143 c 0,-1.33198 -0.0317,-2.14172 -0.0897,-2.43185 -0.0607,-0.29014 -0.15562,-0.48796 -0.27959,-0.59346 -0.1266,-0.10287 -0.29277,-0.15562 -0.50378,-0.15562 -0.22683,0 -0.49586,0.0607 -0.81237,0.17936 l -0.18199,-0.42729 3.36291,-1.3478 0.52488,0 0,2.32898 z"
       inkscape:connector-curvature="0" />
    <path
       id="path45831"
       style="fill:url(#linearGradient3066);fill-opacity:1;fill-rule:nonzero;stroke:none"
       d="m 316.22195,490.98199 c -1.88851,0.008 -3.52382,1.4876 -3.65042,3.3049 -0.1266,1.81729 1.31088,3.28642 3.2073,3.28115 1.89642,-0.005 3.52908,-1.48496 3.65042,-3.3049 0.11868,-1.81993 -1.31879,-3.28906 -3.2073,-3.28115 m 4.39157,3.27588 c -0.15826,2.45031 -2.358,4.44169 -4.91382,4.4496 -2.55317,0.005 -4.48652,-1.97291 -4.31508,-4.41531 0.17144,-2.44504 2.37119,-4.43641 4.91381,-4.4496 2.54263,-0.0132 4.47334,1.96499 4.31509,4.41531 m -3.76647,-12.55225 c -7.17422,0.0528 -13.4121,5.69982 -13.9317,12.61555 -0.51961,6.91574 4.95865,12.5206 12.23837,12.5206 7.27709,0 13.51497,-5.64706 13.93171,-12.61555 0.4141,-6.96585 -5.06416,-12.57071 -12.23838,-12.5206"
       inkscape:connector-curvature="0" />
  </g>
</svg>
