<?xml version="1.0" encoding="UTF-8" standalone="no"?>
<!-- Created with Inkscape (http://www.inkscape.org/) -->

<svg
   xmlns:dc="http://purl.org/dc/elements/1.1/"
   xmlns:cc="http://creativecommons.org/ns#"
   xmlns:rdf="http://www.w3.org/1999/02/22-rdf-syntax-ns#"
   xmlns:svg="http://www.w3.org/2000/svg"
   xmlns="http://www.w3.org/2000/svg"
   xmlns:sodipodi="http://sodipodi.sourceforge.net/DTD/sodipodi-0.dtd"
   xmlns:inkscape="http://www.inkscape.org/namespaces/inkscape"
   width="280.41931"
   height="400"
   id="svg209966"
   version="1.1"
   inkscape:version="0.48.3.1 r9886"
   sodipodi:docname="Documento nuevo 68">
  <defs
     id="defs209968">
    <clipPath
       id="clipPath81508"
       clipPathUnits="userSpaceOnUse">
      <path
         inkscape:connector-curvature="0"
         id="path81510"
         d="m 0.0410156,267.12 118.6349844,0 0,-142.421 -118.6349844,0 0,142.421 z" />
    </clipPath>
    <clipPath
       id="clipPath81512"
       clipPathUnits="userSpaceOnUse">
      <path
         inkscape:connector-curvature="0"
         id="path81514"
         d="m 0.041,124.699 117.13,0 0,142.421 -117.13,0 0,-142.421 z" />
    </clipPath>
    <clipPath
       id="clipPath81516"
       clipPathUnits="userSpaceOnUse">
      <path
         inkscape:connector-curvature="0"
         id="path81518"
         d="m 24.86,206.791 0,-17.31 81.939,0.097 0,17.309 -81.939,-0.096 z" />
    </clipPath>
    <clipPath
       id="clipPath81520"
       clipPathUnits="userSpaceOnUse">
      <path
         inkscape:connector-curvature="0"
         id="path81522"
         d="m 0.041,124.699 117.13,0 0,142.421 -117.13,0 0,-142.421 z" />
    </clipPath>
    <clipPath
       id="clipPath81524"
       clipPathUnits="userSpaceOnUse">
      <path
         inkscape:connector-curvature="0"
         id="path81526"
         d="m 24.897,197.293 68.89,0 0,69.827 -68.89,0 0,-69.827 z" />
    </clipPath>
  </defs>
  <sodipodi:namedview
     id="base"
     pagecolor="#ffffff"
     bordercolor="#666666"
     borderopacity="1.0"
     inkscape:pageopacity="0.0"
     inkscape:pageshadow="2"
     inkscape:zoom="0.35"
     inkscape:cx="140.20966"
     inkscape:cy="199.99997"
     inkscape:document-units="px"
     inkscape:current-layer="layer1"
     showgrid="false"
     fit-margin-top="0"
     fit-margin-left="0"
     fit-margin-right="0"
     fit-margin-bottom="0"
     inkscape:window-width="596"
     inkscape:window-height="434"
     inkscape:window-x="1"
     inkscape:window-y="61"
     inkscape:window-maximized="0" />
  <metadata
     id="metadata209971">
    <rdf:RDF>
      <cc:Work
         rdf:about="">
        <dc:format>image/svg+xml</dc:format>
        <dc:type
           rdf:resource="http://purl.org/dc/dcmitype/StillImage" />
        <dc:title></dc:title>
      </cc:Work>
    </rdf:RDF>
  </metadata>
  <g
     inkscape:label="Capa 1"
     inkscape:groupmode="layer"
     id="layer1"
     transform="translate(-209.79034,-332.36215)">
    <g
       id="g81504"
       transform="matrix(2.8085746,0,0,-2.8085746,161.12617,1082.5886)">
      <g
         id="g81506" />
      <g
         id="g81528">
        <g
           clip-path="url(#clipPath81508)"
           id="g81530">
          <g
             id="g81532">
            <g
               clip-path="url(#clipPath81512)"
               id="g81534">
              <path
                 inkscape:connector-curvature="0"
                 d="m 109.291,124.699 -87.186,0 0,142.421 87.186,0 0,-142.421 z"
                 style="fill:#ffffff;fill-opacity:1;fill-rule:nonzero;stroke:none"
                 id="path81536" />
            </g>
          </g>
          <g
             id="g81538">
            <g
               clip-path="url(#clipPath81516)"
               id="g81540">
              <g
                 transform="translate(101.0156,190.7803)"
                 id="g81542">
                <path
                   inkscape:connector-curvature="0"
                   d="m 0,0 c -1.788,0 -3.506,0.345 -5.031,0.938 -1.584,0.628 -3.35,0.997 -5.204,0.997 -1.845,0 -3.623,-0.369 -5.186,-0.997 C -16.965,0.345 -18.674,0 -20.471,0 c -1.787,0 -3.505,0.345 -5.05,0.938 -1.573,0.628 -3.34,0.997 -5.184,0.997 -1.857,0 -3.622,-0.369 -5.207,-0.997 C -37.436,0.345 -39.164,0 -40.95,0 c -1.786,0 -3.516,0.345 -5.041,0.938 -1.583,0.628 -3.349,0.997 -5.195,0.997 -1.855,0 -3.631,-0.369 -5.195,-0.997 C -57.915,0.345 -59.634,0 -61.42,0 c -1.797,0 -3.516,0.345 -5.059,0.938 -1.565,0.628 -3.341,0.997 -5.185,0.997 -1.846,0 -3.624,-0.369 -5.197,-0.997 C -78.395,0.345 -80.113,0 -81.9,0 l 0,6.513 c 1.787,0 3.505,0.349 5.039,0.944 1.573,0.628 3.351,0.998 5.197,0.998 1.844,0 3.62,-0.37 5.185,-0.998 1.543,-0.595 3.262,-0.944 5.059,-0.944 1.786,0 3.505,0.349 5.039,0.944 1.564,0.628 3.34,0.998 5.195,0.998 1.846,0 3.612,-0.37 5.195,-0.998 1.525,-0.595 3.255,-0.944 5.041,-0.944 1.786,0 3.514,0.349 5.038,0.944 1.585,0.628 3.35,0.998 5.207,0.998 1.844,0 3.611,-0.37 5.184,-0.998 1.545,-0.595 3.263,-0.944 5.05,-0.944 1.797,0 3.506,0.349 5.05,0.944 1.563,0.628 3.341,0.998 5.186,0.998 1.854,0 3.62,-0.37 5.204,-0.998 C -3.506,6.862 -1.788,6.513 0,6.513 L 0,0 z"
                   style="fill:#14ace3;fill-opacity:1;fill-rule:nonzero;stroke:none"
                   id="path81544" />
              </g>
              <g
                 transform="translate(112.3867,199.1592)"
                 id="g81546">
                <path
                   inkscape:connector-curvature="0"
                   d="m 0,0 c -0.467,0.047 -0.94,0.074 -1.42,0.074 -1.844,0 -3.622,-0.368 -5.194,-0.996 -1.535,-0.595 -3.253,-0.944 -5.04,-0.944 l 0,-6.513 c 1.787,0 3.505,0.343 5.04,0.939 1.572,0.627 3.35,0.996 5.194,0.996 0.48,0 0.953,-0.026 1.42,-0.076 L 0,0 z"
                   style="fill:#14ace3;fill-opacity:1;fill-rule:nonzero;stroke:none"
                   id="path81548" />
              </g>
            </g>
          </g>
          <g
             id="g81550">
            <g
               clip-path="url(#clipPath81520)"
               id="g81552">
              <g
                 transform="translate(106.2529,160.4443)"
                 id="g81554">
                <path
                   inkscape:connector-curvature="0"
                   d="m 0,0 -81.9,0 0,18.01 c 25.727,13.109 56.173,13.109 81.9,0 L 0,0 z"
                   style="fill:#f7ec3d;fill-opacity:1;fill-rule:nonzero;stroke:none"
                   id="path81556" />
              </g>
              <g
                 transform="translate(106.7954,182.2412)"
                 id="g81558">
                <path
                   inkscape:connector-curvature="0"
                   d="m 0,0 c -26.129,11.308 -55.77,11.308 -81.899,0 l 0,14.471 L 0,14.471 0,0 z"
                   style="fill:#14ace3;fill-opacity:1;fill-rule:nonzero;stroke:none"
                   id="path81560" />
              </g>
              <g
                 transform="translate(55.0596,231.8057)"
                 id="g81562">
                <path
                   inkscape:connector-curvature="0"
                   d="m 0,0 c -1.018,-1.19 -1.483,-2.317 -1.457,-3.312 0.847,0.194 1.738,0.303 2.654,0.303 1.564,0 3.061,-0.313 4.405,-0.846 1.293,-0.502 2.76,-0.801 4.275,-0.801 1.516,0 2.982,0.299 4.274,0.801 1.345,0.533 2.842,0.846 4.417,0.846 1.563,0 3.062,-0.313 4.398,-0.846 1.31,-0.502 2.767,-0.801 4.284,-0.801 1.522,0 2.973,0.299 4.282,0.801 1.327,0.533 2.833,0.846 4.398,0.846 1.574,0 3.072,-0.313 4.415,-0.846 1.26,-0.49 2.675,-0.785 4.148,-0.798 1.472,0.013 2.888,0.308 4.154,0.798 1.287,0.513 2.737,0.82 4.241,0.84 -0.174,0.402 -0.43,0.818 -0.779,1.245 -2.468,3.029 -6.509,7.985 -8.978,11.014 -2.469,3.031 -6.508,3.031 -8.98,0 -0.671,-0.824 -1.458,-1.79 -2.299,-2.818 -2.493,2.913 -5.057,5.912 -6.953,8.13 -3.423,4.004 -9.027,4.004 -12.45,0 C 9.025,10.554 3.422,4.003 0,0"
                   style="fill:#7bc257;fill-opacity:1;fill-rule:nonzero;stroke:none"
                   id="path81564" />
              </g>
              <g
                 transform="translate(30.1792,165.877)"
                 id="g81566">
                <path
                   inkscape:connector-curvature="0"
                   d="M 0,0 C 1.178,0 2.088,0.24 2.704,0.716 3.362,1.222 3.445,1.658 3.445,1.981 3.445,2.224 3.383,2.551 2.904,2.96 2.47,3.327 1.759,3.516 0.793,3.516 l -2.499,0 L -1.706,0 0,0 z m -7.357,-13.834 c -1.263,0 -2.202,0.292 -2.869,0.895 -0.691,0.626 -1.058,1.472 -1.058,2.447 0,0.966 0.371,1.808 1.074,2.435 0.476,0.425 1.081,0.693 1.836,0.814 l 0,10.83 c -0.767,0.123 -1.38,0.394 -1.853,0.826 -0.69,0.624 -1.057,1.47 -1.057,2.442 0,0.974 0.367,1.822 1.058,2.447 0.668,0.603 1.607,0.897 2.869,0.897 L 0.778,10.18 c 2.785,0 5.055,-0.798 6.744,-2.375 1.719,-1.608 2.59,-3.596 2.59,-5.909 0,-1.28 -0.296,-2.503 -0.878,-3.644 C 8.776,-2.635 8.038,-3.492 7.037,-4.297 6.089,-5.063 5.091,-5.655 4.075,-6.052 3.021,-6.464 1.709,-6.667 0.068,-6.667 l -1.774,0 0,-0.5 1.999,0 c 1.264,0 2.203,-0.294 2.868,-0.896 0.693,-0.627 1.059,-1.474 1.059,-2.449 0,-0.962 -0.366,-1.802 -1.06,-2.427 -0.664,-0.603 -1.603,-0.895 -2.867,-0.895 l -7.65,0 z"
                   style="fill:#ffffff;fill-opacity:1;fill-rule:nonzero;stroke:none"
                   id="path81568" />
              </g>
              <g
                 transform="translate(30.04,167.8232)"
                 id="g81570">
                <path
                   inkscape:connector-curvature="0"
                   d="M 0,0 0.931,0 C 1.306,0 1.573,-0.037 1.75,-0.078 1.404,-0.272 0.841,-0.379 0.139,-0.379 L 0,-0.379 0,0 z m -7.217,9.82 c -1.646,0 -2.965,-0.438 -3.92,-1.299 -1.016,-0.92 -1.576,-2.203 -1.576,-3.612 0,-1.407 0.56,-2.689 1.576,-3.607 0.385,-0.35 0.831,-0.63 1.336,-0.838 l 0,-8.478 c -0.492,-0.205 -0.929,-0.478 -1.31,-0.818 -1.034,-0.921 -1.602,-2.202 -1.602,-3.606 0,-1.411 0.561,-2.693 1.577,-3.611 0.954,-0.862 2.272,-1.301 3.919,-1.301 l 7.649,0 c 1.647,0 2.965,0.439 3.921,1.302 1.013,0.915 1.574,2.191 1.574,3.59 0,1.139 -0.365,2.193 -1.038,3.043 1.126,0.45 2.23,1.11 3.277,1.956 1.165,0.938 2.042,1.964 2.598,3.042 0.702,1.371 1.055,2.836 1.055,4.366 0,2.729 -1.067,5.167 -3.088,7.053 C 6.743,8.86 4.112,9.803 0.914,9.803 l -8.124,0.017 -0.007,0 z m 4.084,-13.334 3.272,0 c 1.539,0 2.759,0.346 3.662,1.042 0.9,0.696 1.351,1.531 1.351,2.507 0,0.825 -0.364,1.549 -1.093,2.17 C 3.33,2.824 2.287,3.136 0.931,3.136 l -4.064,0 0,-6.65 M -7.217,6.686 0.914,6.667 C 3.303,6.667 5.195,6.017 6.59,4.714 7.987,3.41 8.685,1.82 8.685,-0.051 8.685,-1.085 8.449,-2.062 7.978,-2.98 7.623,-3.671 7.027,-4.352 6.193,-5.021 5.363,-5.693 4.512,-6.199 3.644,-6.538 2.778,-6.879 1.631,-7.046 0.207,-7.046 l -3.34,0 0,-3.634 3.565,0 c 0.85,0 1.456,-0.164 1.818,-0.492 0.362,-0.328 0.542,-0.756 0.542,-1.286 0,-0.515 -0.18,-0.938 -0.542,-1.265 -0.362,-0.328 -0.968,-0.491 -1.818,-0.491 l -7.649,0 c -0.85,0 -1.456,0.163 -1.818,0.491 -0.361,0.327 -0.543,0.756 -0.543,1.285 0,0.516 0.184,0.938 0.553,1.266 0.366,0.328 0.969,0.492 1.808,0.492 l 0.55,0 0,13.816 -0.55,0 c -0.85,0 -1.456,0.164 -1.818,0.492 -0.361,0.326 -0.543,0.755 -0.543,1.281 0,0.53 0.182,0.957 0.543,1.284 0.362,0.327 0.968,0.493 1.818,0.493"
                   style="fill:#ffffff;fill-opacity:1;fill-rule:nonzero;stroke:none"
                   id="path81572" />
              </g>
              <g
                 transform="translate(43.2456,158.6797)"
                 id="g81574">
                <path
                   inkscape:connector-curvature="0"
                   d="m 0,0 c 0,-0.25 0.059,-0.592 0.514,-1.012 0.389,-0.359 0.832,-0.527 1.396,-0.527 0.38,0 0.723,0.089 1.054,0.267 0.317,0.17 0.572,0.418 0.782,0.757 0.066,0.111 0.101,0.288 0.101,0.515 l 0,6.442 C 3.062,6.521 2.444,6.77 1.972,7.197 1.956,7.213 1.939,7.229 1.924,7.243 1.908,7.228 1.891,7.213 1.875,7.197 1.405,6.77 0.788,6.521 0,6.44 L 0,0 z m 1.95,-7.402 c -1.04,0 -2.036,0.187 -2.962,0.558 -0.927,0.371 -1.772,0.925 -2.509,1.645 -0.708,0.69 -1.271,1.432 -1.673,2.202 -0.451,0.855 -0.672,1.916 -0.672,3.236 l 0,6.47 c -0.294,0.13 -0.557,0.303 -0.784,0.518 -0.593,0.552 -0.908,1.289 -0.908,2.126 0,0.854 0.321,1.595 0.927,2.147 0.582,0.523 1.388,0.779 2.466,0.779 l 3.579,0.012 c 1.075,0 1.878,-0.256 2.461,-0.781 0.017,-0.016 0.033,-0.031 0.049,-0.046 0.014,0.015 0.03,0.028 0.045,0.043 0.59,0.529 1.391,0.784 2.459,0.784 l 3.59,-0.012 c 1.06,0 1.86,-0.253 2.442,-0.769 0.619,-0.553 0.945,-1.297 0.945,-2.157 0,-0.837 -0.313,-1.574 -0.909,-2.129 C 10.27,7.009 10.007,6.838 9.714,6.711 l 0,-6.472 C 9.714,-1.878 8.941,-3.705 7.42,-5.187 5.911,-6.656 4.071,-7.402 1.95,-7.402"
                   style="fill:#ffffff;fill-opacity:1;fill-rule:nonzero;stroke:none"
                   id="path81576" />
              </g>
              <g
                 transform="translate(44.8135,163.8887)"
                 id="g81578">
                <path
                   inkscape:connector-curvature="0"
                   d="M 0,0 C 0.121,0.047 0.24,0.097 0.357,0.153 0.471,0.097 0.59,0.047 0.712,0 l 0,-5.063 C 0.687,-5.084 0.666,-5.095 0.65,-5.104 0.549,-5.159 0.462,-5.179 0.342,-5.179 0.129,-5.179 0.08,-5.135 0.012,-5.073 0.007,-5.067 0.003,-5.064 0,-5.061 L 0,0 z M 2.861,8.651 C 1.904,8.651 1.065,8.477 0.356,8.134 -0.354,8.477 -1.192,8.651 -2.149,8.651 L -5.745,8.638 c -1.45,0 -2.633,-0.398 -3.5,-1.181 -0.936,-0.849 -1.448,-2.023 -1.448,-3.313 0,-1.265 0.5,-2.427 1.409,-3.278 0.084,-0.077 0.178,-0.16 0.283,-0.241 l 0,-5.595 c 0,-1.578 0.28,-2.878 0.855,-3.969 0.474,-0.91 1.135,-1.784 1.961,-2.59 0.886,-0.865 1.904,-1.532 3.026,-1.981 1.108,-0.444 2.301,-0.67 3.541,-0.67 2.508,0 4.779,0.919 6.565,2.662 1.809,1.761 2.766,4.026 2.766,6.548 l 0,5.595 C 9.818,0.708 9.914,0.79 10,0.869 c 0.905,0.848 1.405,2.011 1.405,3.275 0,1.299 -0.52,2.481 -1.466,3.323 C 9.065,8.246 7.892,8.638 6.445,8.638 l -3.573,0.013 -0.011,0 z m 0,-3.134 3.584,-0.013 C 7.102,5.504 7.571,5.378 7.85,5.13 8.129,4.881 8.27,4.553 8.27,4.144 8.27,3.745 8.134,3.415 7.858,3.159 7.581,2.899 7.156,2.772 6.579,2.772 l 0,-7.742 c 0,-1.688 -0.607,-3.124 -1.82,-4.303 -1.212,-1.182 -2.672,-1.772 -4.377,-1.772 -0.842,0 -1.636,0.149 -2.378,0.446 -0.741,0.297 -1.408,0.734 -1.999,1.312 -0.59,0.577 -1.05,1.18 -1.379,1.806 -0.329,0.626 -0.491,1.463 -0.491,2.511 l 0,7.742 c -0.579,0 -1.005,0.127 -1.281,0.387 -0.274,0.256 -0.413,0.586 -0.413,0.985 0,0.409 0.139,0.737 0.413,0.986 0.276,0.248 0.747,0.374 1.414,0.374 l 3.583,0.013 c 0.657,0 1.127,-0.127 1.406,-0.38 0.28,-0.255 0.419,-0.584 0.419,-0.993 0,-0.408 -0.139,-0.739 -0.419,-0.992 -0.279,-0.256 -0.749,-0.38 -1.406,-0.38 l -0.986,0 0,-7.981 c 0,-0.816 0.341,-1.539 1.02,-2.165 0.679,-0.627 1.498,-0.941 2.457,-0.941 0.64,0 1.24,0.151 1.8,0.455 0.559,0.3 1.016,0.74 1.371,1.319 0.223,0.362 0.334,0.807 0.334,1.332 l 0,7.981 -0.986,0 c -0.657,0 -1.126,0.124 -1.406,0.38 -0.28,0.253 -0.419,0.584 -0.419,0.992 0,0.409 0.139,0.738 0.419,0.993 0.28,0.253 0.749,0.38 1.406,0.38"
                   style="fill:#ffffff;fill-opacity:1;fill-rule:nonzero;stroke:none"
                   id="path81580" />
              </g>
              <g
                 transform="translate(59.0039,168.3066)"
                 id="g81582">
                <path
                   inkscape:connector-curvature="0"
                   d="m 0,0 c 0.037,0.091 0.078,0.18 0.124,0.265 0.12,0.222 0.26,0.425 0.418,0.606 L -0.059,0.829 0,0 z m 0.594,-8.461 0.67,0.047 C 1.051,-8.24 0.856,-8.035 0.684,-7.802 0.63,-7.73 0.579,-7.651 0.531,-7.571 l 0.063,-0.89 z m -5.26,-6.687 c -0.938,0 -1.702,0.225 -2.272,0.675 -0.695,0.543 -1.099,1.32 -1.164,2.239 -0.063,0.921 0.234,1.743 0.859,2.382 0.391,0.401 0.901,0.687 1.543,0.856 l -0.666,9.474 c -0.666,0.079 -1.224,0.293 -1.667,0.638 -0.696,0.545 -1.099,1.32 -1.166,2.243 -0.065,0.917 0.224,1.742 0.835,2.382 0.597,0.618 1.455,0.956 2.63,1.037 L 8.512,7.766 c 0.037,0.001 0.073,0.004 0.11,0.004 0.815,0 1.503,-0.63 1.561,-1.457 L 10.523,1.48 C 10.605,0.315 10.393,-0.572 9.878,-1.24 9.343,-1.935 8.567,-2.343 7.641,-2.409 7.553,-2.414 7.469,-2.42 7.386,-2.42 c -0.441,0 -0.86,0.087 -1.243,0.252 l 0.203,-2.887 c 0.539,0.6 1.262,0.945 2.106,1.007 0.085,0.005 0.165,0.008 0.243,0.008 0.814,0 1.55,-0.293 2.128,-0.851 0.611,-0.588 0.949,-1.444 1.033,-2.619 l 0.344,-4.895 c 0.062,-0.865 -0.59,-1.615 -1.452,-1.674 l -14.942,-1.053 c -0.165,-0.011 -0.322,-0.016 -0.472,-0.016"
                   style="fill:#ffffff;fill-opacity:1;fill-rule:nonzero;stroke:none"
                   id="path81584" />
              </g>
              <g
                 transform="translate(67.627,177.6436)"
                 id="g81586">
                <path
                   inkscape:connector-curvature="0"
                   d="m 0,0 c -0.073,0 -0.146,-0.002 -0.22,-0.009 l -14.247,-0.986 c -1.555,-0.108 -2.781,-0.614 -3.641,-1.506 -0.005,-0.006 -0.009,-0.008 -0.012,-0.011 -0.912,-0.958 -1.361,-2.227 -1.265,-3.579 0.096,-1.356 0.724,-2.553 1.765,-3.366 0.345,-0.27 0.727,-0.485 1.148,-0.646 l 0.507,-7.212 c -0.384,-0.215 -0.724,-0.475 -1.023,-0.781 -0.932,-0.954 -1.395,-2.224 -1.301,-3.582 0.097,-1.358 0.723,-2.553 1.765,-3.37 0.848,-0.666 1.938,-1.005 3.235,-1.005 0.187,0 0.382,0.007 0.581,0.022 l 14.942,1.052 c 1.727,0.12 3.028,1.62 2.907,3.347 l -0.345,4.893 c -0.11,1.56 -0.619,2.783 -1.508,3.639 -0.411,0.396 -0.884,0.706 -1.396,0.922 0.221,0.195 0.425,0.413 0.608,0.652 0.748,0.97 1.071,2.241 0.964,3.777 l -0.34,4.835 C 3.009,-1.263 1.632,0 0,0 m -0.002,-3.135 0.34,-4.832 C 0.39,-8.721 0.282,-9.27 0.015,-9.616 c -0.265,-0.345 -0.635,-0.533 -1.11,-0.567 -0.049,-0.004 -0.095,-0.005 -0.142,-0.005 -0.411,0 -0.76,0.135 -1.046,0.403 -0.315,0.299 -0.501,0.831 -0.555,1.596 l -0.116,1.654 -7.402,-0.52 0.323,-4.584 2.787,0.198 c -0.058,0.826 -0.017,1.362 0.12,1.61 0.283,0.529 0.721,0.814 1.309,0.857 0.045,0.002 0.088,0.004 0.132,0.004 0.407,0 0.753,-0.137 1.04,-0.413 0.318,-0.305 0.503,-0.838 0.558,-1.604 l 0.257,-3.651 c 0.048,-0.692 -0.003,-1.164 -0.151,-1.412 -0.296,-0.509 -0.722,-0.783 -1.28,-0.821 -0.047,-0.003 -0.094,-0.006 -0.139,-0.006 -0.524,0 -0.949,0.224 -1.277,0.669 -0.17,0.225 -0.286,0.757 -0.346,1.594 l -2.787,-0.197 0.329,-4.662 8.098,0.57 -0.121,1.72 c -0.055,0.764 0.054,1.318 0.325,1.664 0.272,0.347 0.646,0.537 1.12,0.571 0.045,0.003 0.088,0.004 0.131,0.004 0.407,0 0.755,-0.138 1.041,-0.412 0.318,-0.308 0.502,-0.838 0.557,-1.604 l 0.344,-4.893 -14.941,-1.051 c -0.126,-0.008 -0.247,-0.014 -0.362,-0.014 -0.58,0 -1.015,0.111 -1.304,0.339 -0.346,0.271 -0.535,0.645 -0.569,1.12 -0.031,0.467 0.106,0.855 0.416,1.173 0.309,0.318 0.841,0.502 1.595,0.557 l 0.496,0.033 -0.874,12.417 -0.496,-0.034 c -0.126,-0.007 -0.245,-0.013 -0.359,-0.013 -0.582,0 -1.016,0.113 -1.306,0.342 -0.347,0.269 -0.534,0.644 -0.568,1.118 -0.034,0.474 0.101,0.867 0.405,1.188 0.305,0.316 0.84,0.502 1.603,0.556 l 14.248,0.987"
                   style="fill:#ffffff;fill-opacity:1;fill-rule:nonzero;stroke:none"
                   id="path81588" />
              </g>
              <g
                 transform="translate(77.1519,163.5586)"
                 id="g81590">
                <path
                   inkscape:connector-curvature="0"
                   d="M 0,0 C 0.637,0 1.202,0.091 1.676,0.272 2.578,0.62 2.788,0.854 2.796,0.865 2.848,0.931 2.877,0.975 2.894,1.005 2.868,1.04 2.796,1.139 2.622,1.276 2.335,1.508 1.78,1.632 1.055,1.632 l -1.738,0 L -0.683,0 0,0 z m 6.412,-12.532 c -0.532,0 -1.027,0.269 -1.316,0.717 -2.514,3.889 -4.071,5.292 -4.889,5.795 l -0.89,0 0,-0.515 c 0.847,-0.073 1.507,-0.331 2.007,-0.783 0.628,-0.565 0.959,-1.328 0.959,-2.211 0,-0.87 -0.331,-1.628 -0.957,-2.195 -0.598,-0.544 -1.427,-0.808 -2.536,-0.808 l -4.375,0 c -1.109,0 -1.939,0.266 -2.538,0.81 -0.623,0.562 -0.955,1.327 -0.955,2.206 0,0.878 0.338,1.64 0.978,2.207 0.371,0.33 0.839,0.558 1.399,0.683 l 0,8.367 c -0.573,0.122 -1.044,0.357 -1.423,0.701 -0.621,0.56 -0.954,1.324 -0.954,2.204 0,0.879 0.332,1.644 0.961,2.212 0.596,0.54 1.425,0.807 2.532,0.807 l 6.53,-0.016 c 2.42,0 4.366,-0.643 5.779,-1.915 C 8.183,4.422 8.922,2.791 8.922,0.893 8.922,-0.34 8.559,-1.47 7.844,-2.474 7.518,-2.929 7.117,-3.36 6.643,-3.76 6.875,-4.015 7.111,-4.288 7.35,-4.574 c 0.387,-0.481 0.849,-1.127 1.413,-1.978 0.61,-0.063 1.057,-0.202 1.42,-0.432 0.016,-0.011 0.032,-0.023 0.046,-0.034 0.845,-0.582 1.309,-1.473 1.309,-2.511 0,-0.862 -0.325,-1.617 -0.938,-2.184 -0.6,-0.553 -1.431,-0.819 -2.542,-0.819 l -1.646,0 z"
                   style="fill:#ffffff;fill-opacity:1;fill-rule:nonzero;stroke:none"
                   id="path81592" />
              </g>
              <g
                 transform="translate(71.5664,172.7891)"
                 id="g81594">
                <path
                   inkscape:connector-curvature="0"
                   d="M 0,0 C -1.493,0 -2.701,-0.408 -3.588,-1.214 -4.536,-2.07 -5.06,-3.27 -5.06,-4.584 c 0,-1.314 0.524,-2.514 1.478,-3.372 0.271,-0.245 0.57,-0.453 0.899,-0.624 l 0,-6.189 c -0.317,-0.163 -0.609,-0.362 -0.875,-0.599 -0.968,-0.858 -1.502,-2.059 -1.502,-3.378 0,-1.314 0.524,-2.513 1.477,-3.373 0.887,-0.803 2.093,-1.211 3.583,-1.211 l 4.375,0 c 1.495,0 2.703,0.411 3.591,1.215 0.341,0.308 0.628,0.662 0.854,1.046 0.175,-0.26 0.357,-0.536 0.545,-0.827 0.578,-0.893 1.568,-1.434 2.633,-1.434 l 1.646,0 c 1.502,0 2.712,0.414 3.598,1.227 0.936,0.868 1.45,2.051 1.45,3.343 0,1.544 -0.725,2.931 -1.987,3.803 -0.03,0.021 -0.06,0.041 -0.091,0.061 -0.39,0.25 -0.827,0.428 -1.34,0.547 -0.346,0.507 -0.65,0.929 -0.92,1.279 0.124,0.15 0.241,0.301 0.352,0.458 0.908,1.27 1.369,2.709 1.369,4.274 0,2.329 -0.939,4.408 -2.717,6.007 -1.711,1.539 -4.008,2.317 -6.831,2.317 L 0.007,0 0,0 z m 3.335,-10.8 2.25,0 c 0.834,0 1.581,0.127 2.237,0.379 0.881,0.338 1.474,0.695 1.777,1.07 0.306,0.375 0.459,0.745 0.459,1.11 0,0.546 -0.291,1.05 -0.874,1.512 -0.58,0.466 -1.427,0.698 -2.544,0.698 l -3.305,0 0,-4.769 M 0,-3.136 6.527,-3.147 c 2.034,0 3.613,-0.506 4.733,-1.514 1.12,-1.008 1.681,-2.234 1.681,-3.677 0,-0.901 -0.263,-1.719 -0.788,-2.455 -0.525,-0.736 -1.319,-1.391 -2.377,-1.963 0.609,-0.532 1.261,-1.218 1.956,-2.052 0.43,-0.536 1.012,-1.368 1.743,-2.503 0.732,0 1.215,-0.077 1.45,-0.227 0.42,-0.288 0.632,-0.696 0.632,-1.222 0,-0.423 -0.146,-0.767 -0.436,-1.034 -0.291,-0.268 -0.783,-0.401 -1.477,-0.401 l -1.646,0 c -2.334,3.611 -4.271,5.779 -5.808,6.511 l -2.855,0 0,-3.627 1.04,0 c 0.694,0 1.19,-0.133 1.485,-0.402 0.295,-0.264 0.441,-0.615 0.441,-1.047 0,-0.423 -0.146,-0.767 -0.441,-1.034 -0.295,-0.268 -0.791,-0.401 -1.485,-0.401 l -4.375,0 c -0.692,0 -1.187,0.133 -1.481,0.401 -0.296,0.267 -0.443,0.616 -0.443,1.048 0,0.422 0.149,0.769 0.449,1.033 0.3,0.269 0.791,0.402 1.475,0.402 l 0.452,0 0,11.28 -0.452,0 c -0.692,0 -1.187,0.134 -1.481,0.4 -0.296,0.267 -0.443,0.617 -0.443,1.047 0,0.431 0.147,0.779 0.443,1.048 0.294,0.266 0.789,0.4 1.481,0.4"
                   style="fill:#ffffff;fill-opacity:1;fill-rule:nonzero;stroke:none"
                   id="path81596" />
              </g>
              <g
                 transform="translate(86.5601,157.0234)"
                 id="g81598">
                <path
                   inkscape:connector-curvature="0"
                   d="m 0,0 c -1.11,0 -1.941,0.264 -2.54,0.809 -0.623,0.564 -0.955,1.328 -0.955,2.209 0,0.869 0.332,1.628 0.96,2.198 0.598,0.537 1.428,0.802 2.535,0.802 l 0.358,0 0,6.57 c -0.06,-0.9 -0.32,-1.596 -0.792,-2.12 -0.567,-0.627 -1.332,-0.959 -2.211,-0.959 -0.868,0 -1.628,0.332 -2.196,0.958 -0.542,0.596 -0.805,1.427 -0.805,2.535 l 0,5.626 c 0,0.416 0.165,0.814 0.458,1.109 0.295,0.293 0.693,0.457 1.108,0.457 l 14.939,-0.012 c 0.865,-10e-4 1.565,-0.703 1.565,-1.568 l 0,-5.612 c 0,-1.103 -0.262,-1.93 -0.804,-2.532 C 11.052,9.841 10.288,9.509 9.408,9.509 8.539,9.509 7.781,9.841 7.211,10.467 6.67,11.066 6.406,11.896 6.406,13.002 l 0,1.161 -0.031,0 0,-8.145 0.374,0 c 1.105,0 1.934,-0.262 2.533,-0.802 0.628,-0.569 0.96,-1.332 0.96,-2.214 0,-0.87 -0.332,-1.63 -0.958,-2.198 C 8.688,0.264 7.857,0 6.749,0 L 0,0 z"
                   style="fill:#ffffff;fill-opacity:1;fill-rule:nonzero;stroke:none"
                   id="path81600" />
              </g>
              <g
                 transform="translate(82.48,178.7861)"
                 id="g81602">
                <path
                   inkscape:connector-curvature="0"
                   d="m 0,0 c -0.831,0 -1.628,-0.329 -2.215,-0.917 -0.59,-0.587 -0.919,-1.387 -0.919,-2.218 l 0,-5.626 c 0,-1.494 0.408,-2.703 1.214,-3.59 0.858,-0.947 2.05,-1.472 3.355,-1.472 0.5,0 0.982,0.077 1.436,0.223 l 0,-0.676 c -0.948,-0.166 -1.745,-0.538 -2.378,-1.112 -0.951,-0.857 -1.476,-2.049 -1.476,-3.357 0,-1.318 0.525,-2.516 1.479,-3.376 0.877,-0.8 2.086,-1.209 3.584,-1.209 l 6.749,0 c 1.494,0 2.702,0.409 3.59,1.215 0.946,0.853 1.471,2.047 1.471,3.355 0,1.318 -0.525,2.515 -1.476,3.375 -0.638,0.574 -1.439,0.946 -2.391,1.11 l 0,0.686 c 0.462,-0.153 0.954,-0.234 1.465,-0.234 1.318,0 2.516,0.526 3.377,1.48 0.8,0.89 1.207,2.095 1.207,3.582 l 0,5.613 c 0,1.73 -1.402,3.133 -3.132,3.135 L 0.003,0 0,0 z m 0,-3.135 14.938,-0.013 0,-5.613 c 0,-0.693 -0.136,-1.187 -0.402,-1.483 -0.267,-0.295 -0.617,-0.442 -1.048,-0.442 -0.423,0 -0.766,0.147 -1.034,0.442 -0.267,0.296 -0.4,0.79 -0.4,1.483 l 0,2.729 -3.166,0 0,-11.281 1.941,0 c 0.694,0 1.189,-0.131 1.484,-0.399 0.296,-0.267 0.441,-0.616 0.441,-1.048 0,-0.422 -0.145,-0.766 -0.441,-1.034 -0.295,-0.269 -0.79,-0.401 -1.484,-0.401 l -6.749,0 c -0.695,0 -1.189,0.132 -1.483,0.401 -0.297,0.268 -0.444,0.616 -0.444,1.049 0,0.422 0.147,0.766 0.444,1.033 0.294,0.268 0.788,0.399 1.483,0.399 l 1.926,0 0,11.281 -3.121,0 0,-2.729 c 0,-0.693 -0.136,-1.187 -0.403,-1.483 -0.267,-0.295 -0.615,-0.442 -1.047,-0.442 -0.423,0 -0.766,0.147 -1.034,0.442 C 0.132,-9.948 0,-9.454 0,-8.761 l 0,5.626"
                   style="fill:#ffffff;fill-opacity:1;fill-rule:nonzero;stroke:none"
                   id="path81604" />
              </g>
              <g
                 transform="translate(113.5762,162.4043)"
                 id="g81606">
                <path
                   inkscape:connector-curvature="0"
                   d="m 0,0 c 0,-2.559 -0.813,-4.688 -2.44,-6.39 -1.626,-1.703 -3.509,-2.554 -5.645,-2.554 -1.923,0 -3.658,0.707 -5.206,2.124 -1.913,1.753 -2.868,4.027 -2.868,6.82 0,2.796 0.955,5.073 2.868,6.837 1.548,1.415 3.283,2.123 5.206,2.123 2.136,0 4.019,-0.851 5.645,-2.554 C -0.813,4.707 0,2.568 0,0"
                   style="fill:#ffffff;fill-opacity:1;fill-rule:nonzero;stroke:none"
                   id="path81608" />
              </g>
              <g
                 transform="translate(113.5762,162.4043)"
                 id="g81610">
                <path
                   inkscape:connector-curvature="0"
                   d="m 0,0 c 0,-2.559 -0.813,-4.688 -2.44,-6.39 -1.626,-1.703 -3.509,-2.554 -5.645,-2.554 -1.923,0 -3.658,0.707 -5.206,2.124 -1.913,1.753 -2.868,4.027 -2.868,6.82 0,2.796 0.955,5.073 2.868,6.837 1.548,1.415 3.283,2.123 5.206,2.123 2.136,0 4.019,-0.851 5.645,-2.554 C -0.813,4.707 0,2.568 0,0 z"
                   style="fill:none;stroke:#ffffff;stroke-width:10.19900036;stroke-linecap:butt;stroke-linejoin:round;stroke-miterlimit:10;stroke-opacity:1;stroke-dasharray:none"
                   id="path81612" />
              </g>
              <path
                 inkscape:connector-curvature="0"
                 d="m 105.497,158.373 -77.1,0 0,10.024 77.1,0 0,-10.024 z"
                 style="fill:#ffffff;fill-opacity:1;fill-rule:nonzero;stroke:none"
                 id="path81614" />
              <g
                 transform="translate(26.3013,164.2852)"
                 id="g81616">
                <path
                   inkscape:connector-curvature="0"
                   d="m 0,0 3.302,0 c 1.55,0 2.781,0.349 3.691,1.05 0.908,0.7 1.364,1.546 1.364,2.528 0,0.833 -0.368,1.566 -1.104,2.19 C 6.518,6.394 5.466,6.704 4.1,6.704 L 0,6.704 0,0 z m 0,-3.563 0,-3.666 3.596,0 c 0.857,0 1.469,-0.167 1.834,-0.495 0.364,-0.329 0.546,-0.763 0.546,-1.297 0,-0.518 -0.182,-0.944 -0.546,-1.275 -0.365,-0.329 -0.977,-0.493 -1.834,-0.493 l -7.714,0 c -0.858,0 -1.469,0.164 -1.833,0.493 -0.366,0.331 -0.548,0.761 -0.548,1.296 0,0.519 0.185,0.947 0.557,1.276 0.369,0.328 0.978,0.495 1.824,0.495 l 0.556,0 0,13.933 -0.556,0 c -0.858,0 -1.469,0.166 -1.833,0.497 -0.366,0.331 -0.548,0.762 -0.548,1.295 0,0.53 0.182,0.964 0.548,1.293 0.364,0.331 0.975,0.496 1.833,0.496 l 8.2,-0.016 c 2.41,0 4.319,-0.66 5.726,-1.973 1.407,-1.316 2.111,-2.917 2.111,-4.803 0,-1.045 -0.238,-2.028 -0.713,-2.956 -0.358,-0.694 -0.958,-1.381 -1.8,-2.058 C 8.568,-2.199 7.71,-2.708 6.836,-3.05 5.962,-3.392 4.805,-3.563 3.37,-3.563 l -3.37,0 z"
                   style="fill:#e62e92;fill-opacity:1;fill-rule:nonzero;stroke:none"
                   id="path81618" />
              </g>
              <g
                 transform="translate(50.9951,166.6563)"
                 id="g81620">
                <path
                   inkscape:connector-curvature="0"
                   d="m 0,0 0,-7.808 c 0,-1.702 -0.612,-3.149 -1.834,-4.339 -1.223,-1.191 -2.694,-1.787 -4.416,-1.787 -0.849,0 -1.649,0.148 -2.397,0.449 -0.747,0.299 -1.42,0.741 -2.017,1.324 -0.595,0.581 -1.06,1.19 -1.389,1.821 -0.332,0.63 -0.497,1.477 -0.497,2.532 l 0,7.808 c -0.582,0 -1.013,0.129 -1.29,0.39 -0.278,0.257 -0.416,0.589 -0.416,0.993 0,0.41 0.138,0.744 0.416,0.996 0.277,0.25 0.752,0.377 1.424,0.377 l 3.615,0.011 c 0.661,0 1.136,-0.128 1.417,-0.381 0.283,-0.256 0.423,-0.593 0.423,-1.003 0,-0.411 -0.14,-0.745 -0.423,-1 C -7.665,0.127 -8.14,0 -8.801,0 l -0.994,0 0,-8.049 c 0,-0.825 0.342,-1.551 1.026,-2.183 0.687,-0.633 1.513,-0.948 2.479,-0.948 0.646,0 1.25,0.153 1.814,0.455 0.566,0.307 1.027,0.747 1.385,1.33 0.225,0.368 0.336,0.817 0.336,1.346 l 0,8.049 -0.995,0 c -0.663,0 -1.135,0.127 -1.418,0.383 -0.281,0.255 -0.422,0.589 -0.422,1 0,0.41 0.141,0.747 0.422,1.003 0.283,0.253 0.755,0.381 1.418,0.381 L -0.134,2.756 C 0.528,2.756 1.001,2.629 1.283,2.379 1.565,2.127 1.707,1.793 1.707,1.383 1.707,0.979 1.567,0.647 1.29,0.39 1.012,0.129 0.582,0 0,0"
                   style="fill:#e62e92;fill-opacity:1;fill-rule:nonzero;stroke:none"
                   id="path81622" />
              </g>
              <g
                 transform="translate(50.9951,166.6563)"
                 id="g81624">
                <path
                   inkscape:connector-curvature="0"
                   d="m 0,0 0,-7.808 c 0,-1.702 -0.612,-3.149 -1.834,-4.339 -1.223,-1.191 -2.694,-1.787 -4.416,-1.787 -0.849,0 -1.649,0.148 -2.397,0.449 -0.747,0.299 -1.42,0.741 -2.017,1.324 -0.595,0.581 -1.06,1.19 -1.389,1.821 -0.332,0.63 -0.497,1.477 -0.497,2.532 l 0,7.808 c -0.582,0 -1.013,0.129 -1.29,0.39 -0.278,0.257 -0.416,0.589 -0.416,0.993 0,0.41 0.138,0.744 0.416,0.996 0.277,0.25 0.752,0.377 1.424,0.377 l 3.615,0.011 c 0.661,0 1.136,-0.128 1.417,-0.381 0.283,-0.256 0.423,-0.593 0.423,-1.003 0,-0.411 -0.14,-0.745 -0.423,-1 C -7.665,0.127 -8.14,0 -8.801,0 l -0.994,0 0,-8.049 c 0,-0.825 0.342,-1.551 1.026,-2.183 0.687,-0.633 1.513,-0.948 2.479,-0.948 0.646,0 1.25,0.153 1.814,0.455 0.566,0.307 1.027,0.747 1.385,1.33 0.225,0.368 0.336,0.817 0.336,1.346 l 0,8.049 -0.995,0 c -0.663,0 -1.135,0.127 -1.418,0.383 -0.281,0.255 -0.422,0.589 -0.422,1 0,0.41 0.141,0.747 0.422,1.003 0.283,0.253 0.755,0.381 1.418,0.381 L -0.134,2.756 C 0.528,2.756 1.001,2.629 1.283,2.379 1.565,2.127 1.707,1.793 1.707,1.383 1.707,0.979 1.567,0.647 1.29,0.39 1.012,0.129 0.582,0 0,0 z"
                   style="fill:none;stroke:#e62e92;stroke-width:1.24199998;stroke-linecap:butt;stroke-linejoin:miter;stroke-miterlimit:10;stroke-opacity:1;stroke-dasharray:none"
                   id="path81626" />
              </g>
              <g
                 transform="translate(57.4751,162.7949)"
                 id="g81628">
                <path
                   inkscape:connector-curvature="0"
                   d="m 0,0 0.332,-4.698 8.167,0.574 -0.124,1.734 c -0.054,0.77 0.057,1.328 0.33,1.677 0.274,0.352 0.651,0.54 1.128,0.574 0.469,0.033 0.863,-0.104 1.184,-0.412 0.32,-0.305 0.505,-0.845 0.561,-1.615 l 0.346,-4.935 -15.067,-1.062 c -0.773,-0.053 -1.331,0.055 -1.681,0.331 -0.348,0.272 -0.539,0.647 -0.572,1.129 -0.034,0.469 0.105,0.863 0.418,1.182 0.313,0.321 0.849,0.505 1.609,0.562 l 0.5,0.034 -0.881,12.524 -0.5,-0.035 c -0.772,-0.055 -1.332,0.055 -1.682,0.329 -0.348,0.273 -0.537,0.65 -0.572,1.129 -0.034,0.478 0.103,0.876 0.41,1.197 0.306,0.319 0.847,0.508 1.616,0.561 L 9.889,11.775 10.233,6.902 C 10.287,6.142 10.179,5.589 9.909,5.241 9.642,4.891 9.268,4.702 8.789,4.666 8.311,4.635 7.911,4.769 7.592,5.068 7.272,5.369 7.085,5.907 7.032,6.678 L 6.913,8.349 -0.551,7.823 -0.225,3.202 2.585,3.399 C 2.528,4.233 2.568,4.773 2.706,5.023 2.994,5.557 3.435,5.847 4.026,5.887 4.496,5.919 4.889,5.781 5.209,5.474 5.529,5.167 5.716,4.629 5.771,3.858 L 6.03,0.175 C 6.079,-0.522 6.029,-0.998 5.877,-1.248 5.581,-1.763 5.15,-2.041 4.588,-2.079 3.995,-2.119 3.518,-1.896 3.159,-1.409 2.987,-1.181 2.871,-0.646 2.812,0.196 L 0,0 z"
                   style="fill:#e62e92;fill-opacity:1;fill-rule:nonzero;stroke:none"
                   id="path81630" />
              </g>
              <g
                 transform="translate(74.7041,161.9463)"
                 id="g81632">
                <path
                   inkscape:connector-curvature="0"
                   d="M 0,0 2.27,0 C 3.112,0 3.864,0.129 4.526,0.381 5.414,0.723 6.012,1.083 6.318,1.46 6.628,1.84 6.779,2.212 6.779,2.581 6.779,3.129 6.486,3.637 5.901,4.104 5.315,4.573 4.459,4.807 3.334,4.807 L 0,4.807 0,0 z m 0,-2.908 0,-3.66 1.05,0 c 0.7,0 1.199,-0.136 1.496,-0.405 0.298,-0.27 0.448,-0.624 0.448,-1.055 0,-0.426 -0.15,-0.774 -0.448,-1.043 C 2.249,-9.341 1.75,-9.477 1.05,-9.477 l -4.412,0 c -0.7,0 -1.198,0.136 -1.495,0.406 -0.299,0.269 -0.448,0.622 -0.448,1.056 0,0.425 0.151,0.772 0.455,1.042 0.301,0.269 0.798,0.405 1.488,0.405 l 0.455,0 0,11.375 -0.455,0 c -0.7,0 -1.198,0.135 -1.495,0.405 -0.299,0.269 -0.448,0.621 -0.448,1.056 0,0.435 0.149,0.788 0.448,1.055 0.297,0.271 0.795,0.406 1.495,0.406 L 3.22,7.715 C 5.272,7.715 6.863,7.206 7.993,6.188 9.123,5.173 9.688,3.937 9.688,2.481 9.688,1.57 9.423,0.748 8.894,0.006 8.364,-0.735 7.566,-1.397 6.498,-1.973 c 0.612,-0.539 1.271,-1.23 1.971,-2.07 0.433,-0.539 1.021,-1.383 1.759,-2.525 0.737,0 1.223,-0.074 1.46,-0.227 0.426,-0.295 0.638,-0.704 0.638,-1.233 0,-0.426 -0.147,-0.774 -0.439,-1.043 -0.293,-0.27 -0.791,-0.406 -1.49,-0.406 l -1.659,0 C 6.383,-5.834 4.43,-3.647 2.88,-2.908 l -2.88,0 z"
                   style="fill:#e62e92;fill-opacity:1;fill-rule:nonzero;stroke:none"
                   id="path81634" />
              </g>
              <g
                 transform="translate(91.3115,172.8018)"
                 id="g81636">
                <path
                   inkscape:connector-curvature="0"
                   d="m 0,0 0,-11.378 1.957,0 c 0.702,0 1.199,-0.134 1.496,-0.402 0.299,-0.271 0.445,-0.622 0.445,-1.058 0,-0.424 -0.146,-0.77 -0.445,-1.042 -0.297,-0.27 -0.794,-0.403 -1.496,-0.403 l -6.807,0 c -0.7,0 -1.2,0.133 -1.497,0.403 -0.297,0.272 -0.447,0.622 -0.447,1.057 0,0.427 0.15,0.772 0.447,1.043 0.297,0.268 0.797,0.402 1.497,0.402 l 1.943,0 0,11.378 -3.149,0 0,-2.75 c 0,-0.702 -0.134,-1.201 -0.405,-1.499 -0.268,-0.298 -0.621,-0.443 -1.056,-0.443 -0.426,0 -0.772,0.145 -1.042,0.443 -0.271,0.298 -0.404,0.797 -0.404,1.499 l 0,5.671 15.064,-0.014 0,-5.657 c 0,-0.702 -0.137,-1.201 -0.405,-1.499 -0.27,-0.298 -0.623,-0.443 -1.058,-0.443 -0.425,0 -0.772,0.145 -1.041,0.443 -0.271,0.298 -0.405,0.797 -0.405,1.499 L 3.192,0 0,0 z"
                   style="fill:#e62e92;fill-opacity:1;fill-rule:nonzero;stroke:none"
                   id="path81638" />
              </g>
              <g
                 transform="translate(110.8003,162.3633)"
                 id="g81640">
                <path
                   inkscape:connector-curvature="0"
                   d="M 0,0 C 0,1.77 -0.533,3.234 -1.602,4.391 -2.672,5.55 -3.886,6.129 -5.246,6.129 -6.6,6.129 -7.811,5.547 -8.88,4.384 -9.945,3.22 -10.481,1.762 -10.481,0 c 0,-1.757 0.536,-3.215 1.601,-4.376 1.069,-1.156 2.28,-1.735 3.634,-1.735 1.36,0 2.574,0.576 3.644,1.729 C -0.533,-3.228 0,-1.767 0,0 m 2.908,0 c 0,-2.578 -0.819,-4.729 -2.46,-6.445 -1.641,-1.716 -3.539,-2.576 -5.694,-2.576 -1.939,0 -3.688,0.714 -5.249,2.143 -1.929,1.768 -2.893,4.062 -2.893,6.878 0,2.82 0.964,5.117 2.893,6.896 1.561,1.428 3.31,2.142 5.249,2.142 2.155,0 4.053,-0.86 5.694,-2.575 C 2.089,4.745 2.908,2.592 2.908,0"
                   style="fill:#e62e92;fill-opacity:1;fill-rule:nonzero;stroke:none"
                   id="path81642" />
              </g>
              <g
                 transform="translate(36.5044,147.0615)"
                 id="g81644">
                <path
                   inkscape:connector-curvature="0"
                   d="m 0,0 -0.92,-0.813 c -0.324,0.451 -0.652,0.675 -0.986,0.675 -0.163,0 -0.296,-0.043 -0.4,-0.132 -0.103,-0.085 -0.155,-0.186 -0.155,-0.293 0,-0.11 0.037,-0.215 0.11,-0.312 0.101,-0.128 0.405,-0.408 0.911,-0.838 0.474,-0.395 0.762,-0.645 0.862,-0.749 0.252,-0.255 0.43,-0.498 0.535,-0.73 0.106,-0.232 0.158,-0.483 0.158,-0.761 0,-0.534 -0.185,-0.977 -0.555,-1.325 -0.369,-0.349 -0.852,-0.523 -1.448,-0.523 -0.464,0 -0.869,0.114 -1.213,0.342 -0.346,0.227 -0.641,0.586 -0.887,1.072 l 1.045,0.628 c 0.313,-0.575 0.675,-0.863 1.084,-0.863 0.213,0 0.392,0.063 0.537,0.184 0.145,0.126 0.217,0.271 0.217,0.433 0,0.148 -0.055,0.294 -0.164,0.443 -0.109,0.148 -0.351,0.374 -0.725,0.678 -0.71,0.58 -1.169,1.028 -1.377,1.342 -0.207,0.316 -0.311,0.63 -0.311,0.942 0,0.453 0.174,0.84 0.518,1.165 0.345,0.325 0.771,0.485 1.276,0.485 0.327,0 0.636,-0.075 0.93,-0.227 C -0.663,0.673 -0.343,0.4 0,0"
                   style="fill:#2b439c;fill-opacity:1;fill-rule:nonzero;stroke:none"
                   id="path81646" />
              </g>
              <g
                 transform="translate(43.1563,146.2178)"
                 id="g81648">
                <path
                   inkscape:connector-curvature="0"
                   d="m 0,0 -0.876,-2.238 1.746,0 L 0,0 z m -0.638,1.73 1.26,0 2.509,-6.523 -1.291,0 -0.51,1.343 -2.663,0 -0.53,-1.343 -1.29,0 2.515,6.523 z"
                   style="fill:#2b439c;fill-opacity:1;fill-rule:nonzero;stroke:none"
                   id="path81650" />
              </g>
              <g
                 transform="translate(49.9727,147.9482)"
                 id="g81652">
                <path
                   inkscape:connector-curvature="0"
                   d="m 0,0 1.242,0 0,-5.341 1.808,0 0,-1.182 -3.05,0 L 0,0 z"
                   style="fill:#2b439c;fill-opacity:1;fill-rule:nonzero;stroke:none"
                   id="path81654" />
              </g>
              <g
                 transform="translate(56.1982,147.9482)"
                 id="g81656">
                <path
                   inkscape:connector-curvature="0"
                   d="M 0,0 1.277,0 2.918,-4.635 4.583,0 5.858,0 3.508,-6.523 2.31,-6.523 0,0 z"
                   style="fill:#2b439c;fill-opacity:1;fill-rule:nonzero;stroke:none"
                   id="path81658" />
              </g>
              <g
                 transform="translate(68.4053,146.2178)"
                 id="g81660">
                <path
                   inkscape:connector-curvature="0"
                   d="m 0,0 -0.875,-2.238 1.746,0 L 0,0 z m -0.638,1.73 1.259,0 2.51,-6.523 -1.291,0 -0.509,1.343 -2.663,0 -0.53,-1.343 -1.291,0 2.515,6.523 z"
                   style="fill:#2b439c;fill-opacity:1;fill-rule:nonzero;stroke:none"
                   id="path81662" />
              </g>
              <g
                 transform="translate(76.4585,146.75)"
                 id="g81664">
                <path
                   inkscape:connector-curvature="0"
                   d="m 0,0 0,-4.115 0.577,0 c 0.567,0 0.979,0.065 1.235,0.196 0.256,0.13 0.465,0.349 0.626,0.657 0.164,0.307 0.246,0.687 0.246,1.137 0,0.691 -0.194,1.228 -0.582,1.611 C 1.753,-0.172 1.192,0 0.422,0 L 0,0 z m -1.233,1.198 1.471,0 C 1.187,1.198 1.892,1.081 2.352,0.846 2.813,0.609 3.193,0.228 3.491,-0.302 3.79,-0.831 3.938,-1.448 3.938,-2.156 3.938,-2.657 3.855,-3.119 3.688,-3.541 3.521,-3.962 3.29,-4.312 2.997,-4.589 2.703,-4.867 2.384,-5.061 2.043,-5.165 1.7,-5.272 1.105,-5.325 0.26,-5.325 l -1.493,0 0,6.523 z"
                   style="fill:#2b439c;fill-opacity:1;fill-rule:nonzero;stroke:none"
                   id="path81666" />
              </g>
              <g
                 transform="translate(87.373,146.8975)"
                 id="g81668">
                <path
                   inkscape:connector-curvature="0"
                   d="m 0,0 c -0.604,0 -1.112,-0.211 -1.523,-0.631 -0.413,-0.419 -0.618,-0.953 -0.618,-1.599 0,-0.722 0.259,-1.293 0.778,-1.713 0.403,-0.33 0.863,-0.493 1.385,-0.493 0.588,0 1.091,0.213 1.504,0.638 0.415,0.428 0.621,0.951 0.621,1.576 0,0.619 -0.208,1.147 -0.625,1.576 C 1.104,-0.216 0.597,0 0,0 m 0.014,1.214 c 0.923,0 1.715,-0.333 2.38,-1.001 0.664,-0.669 0.997,-1.484 0.997,-2.443 0,-0.955 -0.328,-1.759 -0.983,-2.418 -0.656,-0.658 -1.452,-0.989 -2.386,-0.989 -0.98,0 -1.793,0.339 -2.442,1.018 -0.647,0.674 -0.971,1.479 -0.971,2.411 0,0.624 0.151,1.195 0.453,1.719 0.302,0.525 0.716,0.939 1.245,1.245 0.528,0.306 1.096,0.458 1.707,0.458"
                   style="fill:#2b439c;fill-opacity:1;fill-rule:nonzero;stroke:none"
                   id="path81670" />
              </g>
              <g
                 transform="translate(95.9858,145.3975)"
                 id="g81672">
                <path
                   inkscape:connector-curvature="0"
                   d="m 0,0 0.389,0 c 0.394,0 0.665,0.053 0.814,0.155 0.149,0.106 0.224,0.279 0.224,0.517 0,0.141 -0.036,0.267 -0.11,0.372 C 1.242,1.15 1.144,1.225 1.021,1.271 0.896,1.317 0.67,1.339 0.339,1.339 L 0,1.339 0,0 z m -1.243,2.551 1.316,0 c 0.72,0 1.234,-0.065 1.539,-0.194 C 1.917,2.229 2.163,2.016 2.35,1.717 2.537,1.418 2.628,1.064 2.628,0.656 2.628,0.228 2.526,-0.131 2.321,-0.419 2.115,-0.705 1.805,-0.926 1.392,-1.072 l 1.546,-2.901 -1.357,0 -1.468,2.762 -0.113,0 0,-2.762 -1.243,0 0,6.524 z"
                   style="fill:#2b439c;fill-opacity:1;fill-rule:nonzero;stroke:none"
                   id="path81674" />
              </g>
              <g
                 transform="translate(42.3398,135.3174)"
                 id="g81676">
                <path
                   inkscape:connector-curvature="0"
                   d="m 0,0 -0.876,-2.238 1.746,0 L 0,0 z m -0.638,1.731 1.259,0 2.509,-6.523 -1.291,0 -0.509,1.345 -2.663,0 -0.531,-1.345 -1.29,0 2.516,6.523 z"
                   style="fill:#2b439c;fill-opacity:1;fill-rule:nonzero;stroke:none"
                   id="path81678" />
              </g>
              <g
                 transform="translate(49.1558,137.0488)"
                 id="g81680">
                <path
                   inkscape:connector-curvature="0"
                   d="m 0,0 1.242,0 0,-5.339 1.809,0 0,-1.184 L 0,-6.523 0,0 z"
                   style="fill:#2b439c;fill-opacity:1;fill-rule:nonzero;stroke:none"
                   id="path81682" />
              </g>
              <g
                 transform="translate(55.8765,137.0488)"
                 id="g81684">
                <path
                   inkscape:connector-curvature="0"
                   d="m 0,0 1.242,0 0,-5.339 1.809,0 0,-1.184 L 0,-6.523 0,0 z"
                   style="fill:#2b439c;fill-opacity:1;fill-rule:nonzero;stroke:none"
                   id="path81686" />
              </g>
              <g
                 transform="translate(62.6016,137.0488)"
                 id="g81688">
                <path
                   inkscape:connector-curvature="0"
                   d="m 0,0 3.561,0 0,-1.217 -2.327,0 0,-1.178 2.327,0 0,-1.193 -2.327,0 0,-1.715 2.327,0 0,-1.22 L 0,-6.523 0,0 z"
                   style="fill:#2b439c;fill-opacity:1;fill-rule:nonzero;stroke:none"
                   id="path81690" />
              </g>
              <g
                 transform="translate(70.0493,137.0488)"
                 id="g81692">
                <path
                   inkscape:connector-curvature="0"
                   d="m 0,0 1.191,0 2.793,-4.293 0,4.293 1.241,0 0,-6.523 -1.195,0 -2.788,4.279 0,-4.279 L 0,-6.523 0,0 z"
                   style="fill:#2b439c;fill-opacity:1;fill-rule:nonzero;stroke:none"
                   id="path81694" />
              </g>
              <g
                 transform="translate(80.7266,135.8516)"
                 id="g81696">
                <path
                   inkscape:connector-curvature="0"
                   d="m 0,0 0,-4.117 0.576,0 c 0.569,0 0.981,0.066 1.236,0.196 0.256,0.132 0.465,0.35 0.627,0.657 0.163,0.308 0.245,0.687 0.245,1.136 0,0.692 -0.194,1.232 -0.582,1.612 C 1.753,-0.173 1.193,0 0.422,0 L 0,0 z m -1.233,1.197 1.471,0 c 0.949,0 1.654,-0.118 2.113,-0.352 0.462,-0.237 0.842,-0.616 1.14,-1.146 0.298,-0.529 0.447,-1.148 0.447,-1.854 0,-0.503 -0.084,-0.967 -0.25,-1.386 C 3.521,-3.961 3.29,-4.312 2.997,-4.59 2.703,-4.868 2.384,-5.06 2.042,-5.168 1.7,-5.272 1.105,-5.326 0.261,-5.326 l -1.494,0 0,6.523 z"
                   style="fill:#2b439c;fill-opacity:1;fill-rule:nonzero;stroke:none"
                   id="path81698" />
              </g>
              <g
                 transform="translate(88.5786,137.0488)"
                 id="g81700">
                <path
                   inkscape:connector-curvature="0"
                   d="m 0,0 3.561,0 0,-1.217 -2.329,0 0,-1.178 2.329,0 0,-1.193 -2.329,0 0,-1.715 2.329,0 0,-1.22 L 0,-6.523 0,0 z"
                   style="fill:#2b439c;fill-opacity:1;fill-rule:nonzero;stroke:none"
                   id="path81702" />
              </g>
            </g>
          </g>
          <g
             id="g81704">
            <g
               clip-path="url(#clipPath81524)"
               id="g81706">
              <g
                 transform="translate(0.0879,217.9316)"
                 id="g81708">
                <path
                   inkscape:connector-curvature="0"
                   d="m 0,0 -0.029,-17.501 c 1.752,0 3.437,0.39 4.942,1.068 1.542,0.713 3.284,1.13 5.092,1.13 1.81,0 3.553,-0.417 5.085,-1.13 1.513,-0.678 3.199,-1.068 4.96,-1.068 1.752,0 3.439,0.39 4.942,1.068 1.531,0.713 3.274,1.13 5.094,1.13 1.809,0 3.541,-0.417 5.093,-1.13 1.494,-0.678 3.19,-1.068 4.941,-1.068 1.75,0 3.446,0.39 4.941,1.068 1.552,0.713 3.285,1.13 5.105,1.13 1.808,0 3.54,-0.417 5.083,-1.13 1.513,-0.678 3.197,-1.068 4.951,-1.068 0.493,0 0.969,0.107 1.456,0.162 0.884,0.191 1.779,0.276 2.636,0.619 0.02,0.009 0.039,0.017 0.059,0.03 6.378,2.588 11.881,8.996 15.318,13.776 L 81.378,0 0,0 z"
                   style="fill:#e42b91;fill-opacity:1;fill-rule:nonzero;stroke:none"
                   id="path81710" />
              </g>
              <g
                 transform="translate(60.0723,232.5215)"
                 id="g81712">
                <path
                   inkscape:connector-curvature="0"
                   d="m 0,0 c -1.845,3.903 -6.819,3.576 -6.819,3.576 l -53.2,0 -0.012,-15.214 59.984,0 L 0,0 z"
                   style="fill:#e62e92;fill-opacity:1;fill-rule:nonzero;stroke:none"
                   id="path81714" />
              </g>
              <g
                 transform="translate(56.2759,248.0088)"
                 id="g81716">
                <path
                   inkscape:connector-curvature="0"
                   d="M 0,0 C -1.338,0 -1.338,1.082 -2.676,1.082 -4.015,1.082 -4.015,0 -5.354,0 -6.691,0 -6.691,1.082 -8.03,1.082 -9.369,1.082 -9.369,0 -10.707,0 -12.046,0 -12.046,1.082 -13.383,1.082 -14.722,1.082 -14.722,0 -16.062,0 -17.4,0 -17.4,1.082 -18.739,1.082 -20.078,1.082 -20.078,0 -21.417,0 -22.755,0 -22.755,1.082 -24.094,1.082 -25.433,1.082 -25.433,0 -26.771,0 -28.109,0 -28.109,1.082 -29.447,1.082 -30.785,1.082 -30.785,0 -32.125,0 -33.464,0 -33.464,1.082 -34.801,1.082 -36.14,1.082 -36.14,0 -37.478,0 c -1.339,0 -1.339,1.082 -2.679,1.082 -1.339,0 -1.339,-1.082 -2.678,-1.082 -1.34,0 -1.34,1.082 -2.678,1.082 -1.341,0 -1.341,-1.082 -2.68,-1.082 -1.338,0 -1.338,1.082 -2.678,1.082 C -52.21,1.082 -52.21,0 -53.55,0 c -1.342,0 -1.342,1.082 -2.682,1.082 l 0,1.494 c 0,1.376 2.293,2.503 5.095,2.503 l 46.019,0 C -2.315,5.079 -0.017,4.18 -0.01,3.08 -0.004,1.979 0,0.596 0,0"
                   style="fill:#e42b91;fill-opacity:1;fill-rule:nonzero;stroke:none"
                   id="path81718" />
              </g>
              <g
                 transform="translate(13.6216,223.4297)"
                 id="g81720">
                <path
                   inkscape:connector-curvature="0"
                   d="m 0,0 c 0,-0.693 -0.661,-1.256 -1.462,-1.256 l -6.568,0 c -0.804,0 -1.462,0.563 -1.462,1.256 l 0,8.512 c 0,0.684 0.658,1.247 1.462,1.247 l 6.568,0 C -0.661,9.759 0,9.196 0,8.512 L 0,0 z"
                   style="fill:#ffffff;fill-opacity:1;fill-rule:nonzero;stroke:none"
                   id="path81722" />
              </g>
              <g
                 transform="translate(35.7832,223.4297)"
                 id="g81724">
                <path
                   inkscape:connector-curvature="0"
                   d="m 0,0 c 0,-0.693 -0.656,-1.256 -1.461,-1.256 l -6.565,0 c -0.809,0 -1.466,0.563 -1.466,1.256 l 0,8.512 c 0,0.684 0.657,1.247 1.466,1.247 l 6.565,0 C -0.656,9.759 0,9.196 0,8.512 L 0,0 z"
                   style="fill:#ffffff;fill-opacity:1;fill-rule:nonzero;stroke:none"
                   id="path81726" />
              </g>
              <g
                 transform="translate(47.7388,223.4297)"
                 id="g81728">
                <path
                   inkscape:connector-curvature="0"
                   d="m 0,0 c 0,-0.693 -0.656,-1.256 -1.461,-1.256 l -6.565,0 c -0.809,0 -1.465,0.563 -1.465,1.256 l 0,8.512 c 0,0.684 0.656,1.247 1.465,1.247 l 6.565,0 C -0.656,9.759 0,9.196 0,8.512 L 0,0 z"
                   style="fill:#ffffff;fill-opacity:1;fill-rule:nonzero;stroke:none"
                   id="path81730" />
              </g>
              <g
                 transform="translate(24.936,223.4297)"
                 id="g81732">
                <path
                   inkscape:connector-curvature="0"
                   d="m 0,0 c 0,-0.693 -0.663,-1.256 -1.466,-1.256 l -6.528,0 c -0.805,0 -1.462,0.563 -1.462,1.256 l 0,8.512 c 0,0.684 0.657,1.247 1.462,1.247 l 6.528,0 C -0.663,9.759 0,9.196 0,8.512 L 0,0 z"
                   style="fill:#ffffff;fill-opacity:1;fill-rule:nonzero;stroke:none"
                   id="path81734" />
              </g>
              <path
                 inkscape:connector-curvature="0"
                 d="m 1.375,235.827 -1.318,0 0,13.689 1.318,0 0,-13.689 z"
                 style="fill:#e62e92;fill-opacity:1;fill-rule:nonzero;stroke:none"
                 id="path81736" />
              <path
                 inkscape:connector-curvature="0"
                 d="m 56.283,235.204 -1.316,0 0,13.363 1.316,0 0,-13.363 z"
                 style="fill:#e62e92;fill-opacity:1;fill-rule:nonzero;stroke:none"
                 id="path81738" />
              <path
                 inkscape:connector-curvature="0"
                 d="m 80.832,241.84 -79.798,0 0,2.207 79.798,0 0,-2.207 z"
                 style="fill:#e42b91;fill-opacity:1;fill-rule:nonzero;stroke:none"
                 id="path81740" />
              <path
                 inkscape:connector-curvature="0"
                 d="m 56.021,241.629 -54.986,0 0,0.681 54.986,0 0,-0.681 z"
                 style="fill:#e42b91;fill-opacity:1;fill-rule:nonzero;stroke:none"
                 id="path81742" />
              <path
                 inkscape:connector-curvature="0"
                 d="m 56.021,239.547 -54.986,0 0,0.68 54.986,0 0,-0.68 z"
                 style="fill:#e42b91;fill-opacity:1;fill-rule:nonzero;stroke:none"
                 id="path81744" />
              <path
                 inkscape:connector-curvature="0"
                 d="m 56.021,237.464 -54.986,0 0,0.679 54.986,0 0,-0.679 z"
                 style="fill:#e42b91;fill-opacity:1;fill-rule:nonzero;stroke:none"
                 id="path81746" />
              <path
                 inkscape:connector-curvature="0"
                 d="m 57.549,221.2 -56.004,0 0,3.262 56.004,0 0,-3.262 z"
                 style="fill:#e42b91;fill-opacity:1;fill-rule:nonzero;stroke:none"
                 id="path81748" />
              <path
                 inkscape:connector-curvature="0"
                 d="m 73.019,231.671 -11.451,0 0,-10.76 11.451,0 0,10.76 z"
                 style="fill:#e42b91;fill-opacity:1;fill-rule:nonzero;stroke:none"
                 id="path81750" />
              <g
                 transform="translate(80.0352,242.333)"
                 id="g81752">
                <path
                   inkscape:connector-curvature="0"
                   d="m 0,0 -18.467,0 0,-9.471 11.45,0 L 0,0 z"
                   style="fill:#e42b91;fill-opacity:1;fill-rule:nonzero;stroke:none"
                   id="path81754" />
              </g>
              <path
                 inkscape:connector-curvature="0"
                 d="m 67.3,234.397 -4.011,0 0,6.763 4.011,0 0,-6.763 z"
                 style="fill:#7bc257;fill-opacity:1;fill-rule:nonzero;stroke:none"
                 id="path81756" />
              <g
                 transform="translate(72.7095,234.3838)"
                 id="g81758">
                <path
                   inkscape:connector-curvature="0"
                   d="m 0,0 -4.01,0 0,6.761 8.906,0 L 0,0 z"
                   style="fill:#7bc257;fill-opacity:1;fill-rule:nonzero;stroke:none"
                   id="path81760" />
              </g>
              <g
                 transform="translate(56.2432,264.1064)"
                 id="g81762">
                <path
                   inkscape:connector-curvature="0"
                   d="m 0,0 1.308,0 9.805,-20.083 -6.022,0 L 0,0 z"
                   style="fill:#e42b91;fill-opacity:1;fill-rule:nonzero;stroke:none"
                   id="path81764" />
              </g>
              <g
                 transform="translate(43.7446,261.3604)"
                 id="g81766">
                <path
                   inkscape:connector-curvature="0"
                   d="m 0,0 c 3.859,2.447 7.717,-2.26 11.576,0.188 l 0,2.678 C 7.717,0.271 3.859,4.829 0,2.235 L 0,0 z"
                   style="fill:#2a3f9a;fill-opacity:1;fill-rule:nonzero;stroke:none"
                   id="path81768" />
              </g>
              <g
                 transform="translate(43.7446,257.2109)"
                 id="g81770">
                <path
                   inkscape:connector-curvature="0"
                   d="m 0,0 c 3.859,2.174 7.717,-2.807 11.576,-0.633 l 0,2.678 C 7.717,-0.277 3.859,4.557 0,2.233 L 0,0 z"
                   style="fill:#2a3f9a;fill-opacity:1;fill-rule:nonzero;stroke:none"
                   id="path81772" />
              </g>
            </g>
          </g>
        </g>
      </g>
    </g>
  </g>
</svg>
