<svg xmlns="http://www.w3.org/2000/svg" width="400" height="591.1"><g fill-rule="evenodd"><path d="M399.917 219.42c-.06-1.493-1.288-2.674-2.78-2.674H330.5l67.226-14.614c1.278-.28 2.193-1.41 2.193-2.72v-63.03c0-1.536-1.247-2.78-2.784-2.78H273.402c.4-.408.73-.896.935-1.467.77-2.123-.33-4.467-2.445-5.234-.155-.056-.985-.348-2.512-.79l2.112-9.45c1.856.44 2.855.72 2.906.737 2.156.622 4.423-.63 5.048-2.792.626-2.166-.625-4.433-2.788-5.055-.02-.007-.236-.067-.595-.162l1.76-1.133c.68.636 1.51 1.107 2.427 1.386 1.106 1.077 3.087 1.874 6.582.377 6.596-2.825 1.883-9.104 1.883-9.104s1.568-.942 3.138-6.28c.465-1.577.626-4.664.626-8.226.88-1.225 1.412-2.714 1.412-4.332 0-1.76-.64-3.357-1.662-4.632-.05-1.12-.11-2.203-.17-3.228 2.383-1.248 4.025-3.713 4.025-6.586 0-4.11-3.344-7.454-7.454-7.454-.04 0-.073.01-.113.01l-.478-1.022c.955-1.335 1.533-2.956 1.533-4.722 0-4.5-3.666-8.163-8.163-8.163-2.39 0-4.52 1.05-6.013 2.687-.242-4.29-3.77-7.712-8.116-7.712-4.112 0-7.482 3.064-8.047 7.015l-.384-.07c-.828-3.084-3.616-5.375-6.956-5.375-2.382 0-4.484 1.177-5.8 2.967l-.167-.034c.182-.636.316-1.295.316-1.988 0-3.982-3.24-7.22-7.22-7.22-3.754 0-6.812 2.888-7.155 6.554l-.14-.026c-1.31-1.854-3.458-3.078-5.893-3.078-1.137 0-2.197.29-3.155.76l-4.14-1.197-.354-.97-2.088-.974c-.754-.038-1.45.22-2 .658l-.772-.225c-.64-4.252-3.297-7.847-6.977-9.757-.486-2.42-1.877-9.377-2.127-10.632 1.343-.303 6.473-1.473 6.473-1.473l.57-10.203s-4.87 1.772-6.663 2.42l.026-.19s-.054.07-.064.087c.255-.77.63-2.348 1.454-5.832L206.604 0h-12.616l1.992 8.405c-1.8-.656-6.652-2.418-6.652-2.418l.567 10.207s5.133 1.168 6.478 1.47c-.25 1.255-1.642 8.214-2.127 10.632-3.955 2.055-6.737 6.047-7.086 10.715l-.32.096c-.18-.384-.33-.697-.33-.697s-1.467-1.205-2.794-1.02c-1.325.185-2.013 1.403-2.013 1.403l-.197 1.853-3.014.874c-1.22-.938-2.728-1.52-4.38-1.52-2.51 0-4.722 1.295-6.017 3.25-.27-3.738-3.365-6.7-7.17-6.7-3.98 0-7.22 3.238-7.22 7.22 0 .885.182 1.723.476 2.506-1.273-2.062-3.535-3.45-6.127-3.45-3.608 0-6.58 2.67-7.11 6.13l-.156.03c-.23-4.297-3.765-7.73-8.12-7.73-4.345 0-7.875 3.423-8.116 7.71-1.493-1.637-3.622-2.687-6.01-2.687-4.502 0-8.163 3.662-8.163 8.162 0 2.34 1.002 4.44 2.584 5.93-.53-.12-1.076-.195-1.643-.195-4.112 0-7.457 3.343-7.457 7.453 0 4.03 3.212 7.298 7.208 7.436-2.908 1.016-5.01 3.757-5.01 7.01 0 3.356 2.243 6.17 5.3 7.1.072 2.354.248 4.308.587 5.458.642 2.173 1.273 3.592 1.807 4.54-1.244 1.134-2.04 2.752-2.04 4.565 0 2.898 2.004 5.316 4.698 5.99.185.096.35.2.56.288 6.592 2.825 7.85-2.512 7.85-2.512l2.23 1.443c-1.06 1.004-1.558 2.538-1.143 4.038.6 2.17 2.852 3.447 5.02 2.852.037-.01.724-.192 2.01-.484l2.12 9.61c-2.135.54-3.248.917-3.425.977-2.117.744-3.243 3.075-2.506 5.197.415 1.19 1.333 2.048 2.426 2.462H2.865c-1.537 0-2.782 1.244-2.782 2.78v63.03c0 1.312.913 2.442 2.19 2.72L69.5 216.748H2.864c-1.493 0-2.722 1.18-2.78 2.674-.005.125-.082 2.39-.082 6.475 0 19.164 1.72 78.412 20.808 144.602 13.62 47.224 33.283 88.73 58.445 123.36 31.508 43.37 71.756 76.007 119.627 97.008.714.313 1.526.313 2.235 0 47.87-21 88.12-53.638 119.63-97.007 25.162-34.632 44.824-76.137 58.442-123.36 23.156-80.3 20.754-150.378 20.727-151.077zM195.985 8.32s.01.08.01.09c-.006-.043-.01-.09-.01-.09zm23.12 64.018s12.245-.942 15.7 1.887c6.955 5.69 4.947 23.2 4.076 28.924h-.023c-1.446-.15-2.94-.29-4.456-.428-.32-.027-.635-.057-.954-.084-3.128-.272-6.4-.514-9.818-.72-.25-.016-.494-.03-.747-.047-1.717-.096-3.47-.19-5.262-.268-.01 0-.017-.004-.02-.004l1.506-29.26zm-53.468 1.887c3.454-2.83 15.698-1.887 15.698-1.887l1.504 29.22c-3.977.152-7.74.354-11.295.582-.003 0-.007 0-.01.004-3.546.233-6.873.495-9.99.784-.004 0-.012 0-.017.004-.886-5.946-2.76-23.086 4.108-28.706" fill="#231f20"/><path d="M58.98 83.218l26.185-19.026-.062-.118-.02-.13-32.365-.005-10.004-30.782-.13.02-.134-.02-10.002 30.78H.082l-.022.132-.06.12 26.186 19.024-10 30.785.114.06.096.094L42.583 95.13l26.183 19.024.095-.095.12-.06-10-30.782M373.818 83.215l26.18-19.023-.057-.118-.02-.134h-32.368L357.55 33.158l-.132.02-.134-.02-10 30.782-32.368.004-.02.13-.06.12 26.183 19.022-10 30.784.117.06.098.095 26.183-19.023 26.187 19.023.095-.094.117-.06-10-30.784" fill="#231f20"/><path d="M394.35 139.167v58c-4.176.913-90.338 19.643-90.338 19.643-1.292.28-2.19 1.423-2.19 2.714 0 .1.004.202.014.303.15 1.413 1.345 2.485 2.768 2.485h89.808c.013.98.023 2.14.023 3.64 0 18.87-1.695 77.556-20.637 143.157-13.447 46.57-32.83 87.466-57.607 121.55-30.666 42.182-69.755 73.993-116.19 94.596-46.432-20.603-85.524-52.414-116.19-94.596-24.778-34.084-44.16-74.98-57.607-121.55C7.26 303.507 5.565 244.822 5.565 225.95c0-1.5.014-2.66.027-3.64h89.806c1.422 0 2.616-1.072 2.768-2.485.01-.1.015-.202.015-.303 0-1.29-.9-2.435-2.19-2.714 0 0-86.163-18.73-90.342-19.642v-58H394.35" fill="#fff"/><path d="M378.358 236.72H21.644l.17 2.893c2.93 49.533 15.365 144.552 65.712 225.333v.01l.416.664 5.044 8.05v-.272c8.65 12.988 18.074 25.154 28.108 36.265v.017l.71.782 4.75 5.22v-.14c16.24 17.002 34.348 31.778 53.932 43.998v.017l1.3.8c.03.02.06.04.094.06l4.068 2.505v-.048c4.313 2.564 8.528 4.92 12.78 7.145l1.266.658 1.273-.658c4.26-2.228 8.48-4.584 12.79-7.146v.048l4.065-2.506.098-.06 1.295-.8v-.016c19.585-12.22 37.693-26.996 53.93-43.996v.14l4.75-5.222.713-.78v-.02c10.033-11.11 19.457-23.273 28.104-36.26v.27l5.048-8.052.414-.665v-.006c50.35-80.786 62.787-175.804 65.71-225.337l.174-2.892" fill="#231f20"/><path d="M27.463 242.183h60.063V454.19c-44.88-76.492-56.975-163.93-60.063-212.007" fill="#ee2722"/><path d="M92.986 463.355V242.183h28.108v259.132c-10.092-11.667-19.546-24.365-28.108-37.96" fill="#fff"/><path d="M126.554 507.54V242.184h53.932V553.04c-19.677-12.636-37.803-27.906-53.932-45.5" fill="#ee2722"/><path d="M200 564.49c-4.644-2.458-9.275-5.103-14.052-8.012V242.183h28.108v314.295c-4.768 2.905-9.403 5.548-14.056 8.01" fill="#fff"/><path d="M219.515 553.04V242.182h53.93v265.36c-16.126 17.59-34.25 32.86-53.93 45.496" fill="#ee2722"/><path d="M278.908 501.315V242.183h28.104v221.172c-8.563 13.598-18.017 26.298-28.104 37.96" fill="#fff"/><path d="M312.474 454.19V242.184h60.063c-3.088 48.074-15.18 135.512-60.063 212.008" fill="#ee2722"/><path d="M45.008 158.056c1.39 1.016 2.085 2.22 2.085 3.612 0 1.5-.642 2.748-1.927 3.74-1.285.992-2.75 1.49-4.397 1.49-1.695 0-2.93-.403-3.71-1.204-.778-.804-1.167-2.115-1.167-3.932 0-1.866.367-3.202 1.1-4.012.732-.81 1.915-1.218 3.55-1.218 1.584 0 3.073.508 4.465 1.524zm-11.56 27.068c.762 0 1.395-.252 1.9-.75.502-.504.754-1.144.754-1.92v-4.675c0-1.945.23-3.298.695-4.048.463-.753 1.407-1.13 2.833-1.13 1.882 0 3.165.666 3.848 2.005 2.26 4.705 3.63 7.497 4.11 8.37.478.876.985 1.508 1.525 1.902.538.395 1.53.594 2.972.594 2.655 0 3.983-.61 3.983-1.826 0-.747-.894-3.054-2.68-6.932-1.784-3.875-2.676-6.222-2.676-7.043 0-.747.474-1.598 1.425-2.553.95-.958 1.627-1.682 2.027-2.17.4-.484.737-1.123 1.01-1.913.27-.79.406-1.665.406-2.62 0-2.89-1.206-5.082-3.614-6.58-2.41-1.495-5.734-2.242-9.977-2.242H24.065l3.896 4.994v23.54l-3.896 4.994h9.38M76.53 166.45c.907.724 1.363 1.625 1.363 2.705 0 1.174-.408 2.055-1.215 2.637-.81.588-2.025.878-3.644.878-1.923 0-3.17-.283-3.744-.855-.573-.57-.86-1.436-.86-2.59 0-1.143.496-2.07 1.49-2.784.993-.716 2.138-1.072 3.436-1.072 1.206 0 2.264.36 3.173 1.083zm7.736 7.723c.48-.578.723-1.436.723-2.58 0-1.486-.524-3.023-1.57-4.61-1.04-1.588-2.518-2.846-4.43-3.774-1.912-.926-4.064-1.39-6.455-1.39-3.366 0-6.284 1.11-8.75 3.33-2.468 2.22-3.702 4.937-3.702 8.155 0 3.95 1.205 7 3.617 9.15 2.412 2.15 5.787 3.224 10.127 3.224 2.236 0 4.168-.22 5.796-.66 1.63-.44 2.444-1.083 2.444-1.92 0-.32-.435-.478-1.302-.478l-3.035.043c-5.783 0-8.672-1.63-8.672-4.897 0-1.113.49-1.863 1.474-2.236.98-.377 2.936-.565 5.862-.565l5.69.07c.976 0 1.703-.29 2.182-.864M102.164 174.68c.855.552 1.282 1.282 1.282 2.187 0 1.625-.42 2.91-1.258 3.85-.84.943-2.016 1.417-3.524 1.417-1.147 0-2.12-.34-2.92-1.016-.802-.672-1.2-1.53-1.2-2.573 0-1.318.444-2.428 1.338-3.333.892-.904 1.994-1.358 3.308-1.358 1.128 0 2.12.275 2.974.827zm9.143 1.04c0-6.13-.94-9.97-2.824-11.513-1.88-1.543-4.95-2.32-9.2-2.32-1.616 0-3.274.168-4.974.498-1.7.33-2.55.776-2.55 1.345 0 .767.718 1.15 2.153 1.15 2.978 0 4.963.13 5.954.397.994.262 1.756.716 2.29 1.36.535.638.803 1.455.803 2.45 0 1.558-1.332 2.33-3.998 2.33-.38 0-.956-.032-1.725-.103-.77-.07-1.345-.104-1.725-.104-5.33 0-7.997 2.458-7.997 7.372 0 2.19.74 3.885 2.215 5.09 1.476 1.2 3.463 1.802 5.96 1.802 1.066 0 2.016-.06 2.853-.168.837-.115 1.775-.31 2.81-.592 1.033-.283 1.796-.424 2.282-.424.548 0 1.06.138 1.53.417.47.276.93.417 1.37.417h2.993c.456 0 .867-.192 1.232-.572.366-.38.547-.797.547-1.254v-7.578M125.196 183.16c0 1.312-.718 1.964-2.154 1.964h-3.53c-1.405 0-2.108-.636-2.108-1.914v-26.668l-3.826-4.947h9.47c.623 0 1.138.208 1.543.626.404.418.606.94.606 1.56v29.38M145.245 156.59l-3.897-4.995h23.133c2.388 0 3.583.757 3.583 2.274 0 .547-.164.967-.49 1.253-.326.29-.804.464-1.433.525-.63.06-2.568.15-5.813.272-2.366.2-4.067.706-5.106 1.527-1.04.82-1.558 1.958-1.558 3.417 0 3.232 1.94 4.85 5.82 4.85 3.82 0 6.123.185 6.91.548.788.367 1.184.97 1.184 1.807 0 .866-.337 1.39-1.01 1.573-.675.185-2.947.373-6.82.57-3.963.186-5.945 2.05-5.945 5.598 0 1.188.338 2.177 1.013 2.96.674.784 1.66 1.356 2.956 1.713 1.296.36 3.682.538 7.153.538 2.093 0 3.14.653 3.14 1.962 0 1.43-1.187 2.142-3.56 2.142h-15.767c-1.05 0-1.895-.346-2.533-1.04-.64-.69-.958-1.573-.958-2.656v-24.84M181.29 185.54c-4.708 0-7.06-.577-7.06-1.734 0-.79 1.205-1.184 3.616-1.184 1.893 0 3.542-.283 4.945-.844 1.39-.552 2.083-1.37 2.083-2.466 0-.652-.267-1.268-.8-1.846-.534-.58-2.085-1.373-4.653-2.382-2.57-1.012-4.124-1.785-4.666-2.317-.54-.53-.927-1.123-1.154-1.78-.23-.652-.344-1.38-.344-2.19 0-2.158.895-3.85 2.683-5.07 1.79-1.228 4.08-1.84 6.867-1.84 4.95 0 7.424.646 7.424 1.934 0 .66-.885.99-2.657.99-1.923 0-3.51.282-4.762.844-1.266.56-1.902 1.305-1.902 2.233 0 .5.208.98.62 1.433.41.457.97.86 1.678 1.21.71.35 2.147.932 4.312 1.753 3.338 1.244 5.008 3.5 5.008 6.763 0 2.16-.937 3.78-2.81 4.867-1.872 1.087-4.68 1.628-8.427 1.628M200.82 151.87h3.53c1.02 0 1.59 1.02 1.715 3.055l-.028.16v3.146c0 2.28.838 3.825 2.516 4.63 1.174.53 1.88.95 2.126 1.253.242.303.366.616.366.935 0 .82-.668 1.484-2 1.98-1.336.502-2.145 1.108-2.427 1.814-.28.706-.422 1.995-.422 3.865v2.142l-.02 2.165c0 1.275.08 2.16.24 2.644.162.486.443.947.85 1.39.406.442 1.32 1.16 2.745 2.164.874.625 1.312 1.15 1.312 1.574 0 .457-.658.686-1.97.686-2.005 0-3.738-.26-5.204-.777-1.467-.515-2.527-1.234-3.184-2.156-.655-.917-1.055-1.903-1.192-2.95-.14-1.048-.207-3.342-.207-6.883 0-1.99-.125-3.263-.376-3.818-.25-.556-1.013-1.16-2.294-1.814-1.28-.655-1.92-1.382-1.92-2.19 0-.742.6-1.412 1.804-2.004.707-.35 1.278-.857 1.716-1.53.435-.666.655-1.974.655-3.918V155.2l-.025-.252c.077-2.05.643-3.077 1.696-3.077M232.117 166.45c.908.724 1.362 1.625 1.362 2.705 0 1.174-.408 2.055-1.218 2.637-.804.588-2.022.878-3.64.878-1.923 0-3.174-.283-3.746-.855-.572-.57-.858-1.436-.858-2.59 0-1.143.498-2.07 1.49-2.784.992-.716 2.136-1.072 3.434-1.072 1.208 0 2.264.36 3.175 1.083zm7.736 7.723c.48-.578.723-1.436.723-2.58 0-1.486-.525-3.023-1.567-4.61-1.044-1.588-2.52-2.846-4.434-3.774-1.91-.926-4.06-1.39-6.45-1.39-3.37 0-6.29 1.11-8.756 3.33-2.468 2.22-3.7 4.937-3.7 8.155 0 3.95 1.205 7 3.62 9.15 2.408 2.15 5.784 3.224 10.123 3.224 2.237 0 4.167-.22 5.8-.66 1.626-.44 2.44-1.083 2.44-1.92 0-.32-.434-.478-1.3-.478l-3.038.043c-5.782 0-8.67-1.63-8.67-4.897 0-1.113.49-1.863 1.475-2.236.983-.377 2.937-.565 5.86-.565l5.693.07c.972 0 1.7-.29 2.18-.864M252.913 183.16c0 1.312-.72 1.964-2.156 1.964h-3.528c-1.407 0-2.107-.636-2.107-1.914v-26.668l-3.827-4.947h9.464c.626 0 1.14.208 1.544.626.407.418.61.94.61 1.56v29.38M269.393 183.298c0 1.217-.736 1.826-2.203 1.826h-3.528c-1.376 0-2.062-.578-2.062-1.732v-16.14l-3.827-4.945h9.383c.58 0 1.097.205 1.55.612.458.413.687.907.687 1.483v18.895zm-4.722-23.705c-1.26 0-1.886-.45-1.886-1.35 0-.35.42-1.4 1.27-3.154l1.757-3.525c.317-.592 1.02-1.05 2.103-1.37 1.087-.32 2.2-.48 3.34-.48 1.863 0 2.798.36 2.798 1.076 0 .105-.268.496-.806 1.165-.538.672-1.38 1.655-2.516 2.95l-2.573 2.858c-.548.612-1.113 1.07-1.695 1.373-.588.306-1.184.457-1.79.457M285.823 185.124l3.895-4.904v-24.952c0-1.066.32-1.944.958-2.637.64-.69 1.49-1.035 2.553-1.035h16.32c2.04 0 3.055.676 3.055 2.028 0 .804-.444 1.335-1.332 1.584-.884.252-3.057.43-6.514.538-2.352.074-4.01.528-4.972 1.356-.962.83-1.443 2.09-1.443 3.778 0 1.64.55 2.966 1.654 3.98 1.106 1.01 2.535 1.552 4.29 1.63 1.044.03 2.288.084 3.734.158 1.447.077 2.398.212 2.863.4.46.192.803.444 1.032.767.224.32.335.713.335 1.184 0 1.083-.982 1.675-2.946 1.78l-4.857.204c-1.413.08-2.46.237-3.145.482-.69.242-1.25.562-1.692.96-.44.392-.76.83-.965 1.31-.204.478-.305 1.006-.305 1.585v7.002c0 .836-.276 1.513-.824 2.03-.55.515-1.244.774-2.08.774h-9.617M320.593 185.68c-1.493 0-2.77-.543-3.844-1.626-1.074-1.083-1.61-2.37-1.61-3.87 0-1.494.536-2.786 1.61-3.87 1.072-1.082 2.35-1.626 3.843-1.626 1.49 0 2.772.544 3.85 1.627 1.08 1.083 1.622 2.375 1.622 3.868 0 1.5-.54 2.788-1.62 3.87-1.08 1.084-2.362 1.626-3.852 1.626M349.316 185.612c-5.47 0-10.1-1.658-13.894-4.968-3.794-3.313-5.69-7.55-5.69-12.71 0-2.055.272-3.952.813-5.687.542-1.736 1.373-3.323 2.493-4.763 1.116-1.44 2.6-2.724 4.446-3.858 1.843-1.133 3.582-1.883 5.213-2.25 1.63-.366 3.7-.548 6.2-.548 2.925 0 5.4.34 7.428 1.02 2.028.675 3.04 1.654 3.04 2.935 0 .656-.278.986-.843.986-.138 0-1.09-.11-2.856-.314-1.77-.212-3.08-.316-3.935-.316-2.162 0-4.05.31-5.656.925-1.608.62-3.06 1.628-4.356 3.027-1.295 1.402-2.18 2.748-2.65 4.032-.47 1.285-.71 2.768-.71 4.443 0 2.483.337 4.43 1.003 5.836.673 1.41 1.59 2.68 2.77 3.814 1.17 1.137 2.61 2.058 4.314 2.768 1.705.706 4.15 1.06 7.332 1.06l5.115-.14c.506 0 .755.392.755 1.168 0 .898-.26 1.568-.777 2.008-.518.442-1.793.81-3.828 1.098-2.034.29-3.94.434-5.724.434M369.12 185.68c-1.49 0-2.77-.543-3.842-1.626-1.072-1.083-1.607-2.37-1.607-3.87 0-1.494.536-2.786 1.608-3.87 1.073-1.082 2.35-1.626 3.84-1.626 1.49 0 2.776.544 3.856 1.627s1.62 2.375 1.62 3.868c0 1.5-.54 2.788-1.62 3.87-1.08 1.084-2.365 1.626-3.855 1.626M166.34 198.248v24.017c0 .535-.174.993-.518 1.376-.348.384-.79.576-1.325.576h-3.59c-1.2 0-1.8-.636-1.8-1.914V207.69c0-.903-.226-1.828-.675-2.776-.45-.952-1.025-1.426-1.728-1.426-.235 0-.65.057-1.24.17-.593.12-1.11.176-1.553.176-.663 0-1.343-.218-2.038-.652-.698-.434-1.046-.898-1.046-1.396 0-.336.1-.656.294-.962.196-.306.47-.575.82-.81l1.8-1.225c.875-.6 1.947-1.262 3.22-1.992 1.272-.726 2.272-1.164 3.002-1.305.732-.144 1.63-.215 2.7-.215 1.682 0 2.717.242 3.1.723.386.482.577 1.232.577 2.248M188.262 199.61c.925.985 1.388 2.14 1.388 3.457 0 1.605-.398 2.97-1.194 4.094-.792 1.124-1.876 1.682-3.242 1.682-1.342 0-2.49-.565-3.452-1.69-.955-1.132-1.434-2.4-1.434-3.812 0-1.41.44-2.63 1.317-3.663.88-1.03 1.972-1.547 3.274-1.547 1.3 0 2.417.494 3.342 1.48zm5.088 20.82c2.357-2.85 3.535-6.67 3.535-11.46 0-4.4-1.06-7.87-3.18-10.423-2.12-2.55-5.103-3.824-8.95-3.824-2.818 0-5.338.81-7.562 2.435-2.225 1.628-3.335 3.673-3.335 6.142 0 2.99.822 5.287 2.465 6.89 1.645 1.61 3.966 2.41 6.966 2.41.404 0 1.017-.034 1.838-.105.822-.067 1.435-.104 1.84-.104.977 0 1.644.18 2.003.53.36.352.54.923.54 1.717 0 2.008-.92 3.586-2.762 4.732-1.858 1.143-4.096 1.718-6.723 1.718-1.15 0-1.928.024-2.332.067-.406.047-.753.182-1.04.404-.287.224-.43.517-.43.884 0 .696.792 1.244 2.38 1.65 1.585.408 3.214.61 4.887.61 4.217 0 7.503-1.423 9.86-4.275M216.663 212.273c.958 1.123 1.44 2.39 1.44 3.804 0 1.412-.445 2.637-1.323 3.67-.877 1.032-1.977 1.55-3.292 1.55-1.292 0-2.398-.495-3.322-1.484-.927-.985-1.387-2.132-1.387-3.444 0-1.635.395-3.007 1.19-4.117.794-1.114 1.876-1.67 3.242-1.67 1.342 0 2.492.563 3.45 1.69zm4.56 9.982c2.234-1.628 3.347-3.68 3.347-6.148 0-2.99-.82-5.284-2.465-6.89-1.642-1.596-3.966-2.39-6.966-2.39-.418 0-1.037.034-1.85.105-.818.067-1.43.104-1.847.104-.94 0-1.596-.17-1.97-.518-.37-.346-.554-.928-.554-1.75 0-2.007.915-3.577 2.748-4.717 1.84-1.14 4.063-1.71 6.68-1.71.48 0 1.04-.005 1.678-.012.64-.007 1.15-.128 1.534-.363.383-.232.575-.565.575-.996 0-.704-.817-1.255-2.452-1.652s-3.232-.595-4.796-.595c-4.196 0-7.466 1.43-9.817 4.29-2.35 2.863-3.526 6.674-3.526 11.433 0 4.383 1.053 7.853 3.16 10.416 2.106 2.563 5.095 3.84 8.97 3.84 2.804 0 5.32-.813 7.55-2.447M243.546 198.248v24.017c0 .535-.172.993-.518 1.376-.347.384-.79.576-1.325.576h-3.59c-1.2 0-1.802-.636-1.802-1.914V207.69c0-.903-.224-1.828-.67-2.776-.452-.952-1.027-1.426-1.73-1.426-.236 0-.65.057-1.238.17-.595.12-1.113.176-1.554.176-.666 0-1.345-.218-2.04-.652-.697-.434-1.044-.898-1.044-1.396 0-.336.098-.656.293-.962.195-.306.47-.575.82-.81l1.8-1.225c.874-.6 1.947-1.262 3.22-1.992 1.273-.726 2.27-1.164 3.002-1.305.73-.144 1.63-.215 2.7-.215 1.68 0 2.714.242 3.097.723.387.482.58 1.232.58 2.248" fill="#231f20"/><path d="M128.708 111.9c0 .102.013.203.04.304.168.602.795.958 1.396.793.234-.067 24.066-6.555 70.344-6.555 45.883 0 74.44 8.04 74.724 8.12.602.174 1.23-.176 1.406-.774.175-.602-.175-1.235-.774-1.406-.286-.08-29.052-8.21-75.356-8.21-46.06 0-70.696 6.565-70.948 6.636-.502.138-.832.595-.832 1.093M271.57 131.126c.1-.283.09-.592-.04-.868-.13-.272-.354-.48-.64-.585-.85-.31-21.404-7.605-70.092-7.605-48.642 0-67.418 6.387-68.193 6.656-.587.21-.9.858-.694 1.446.1.29.307.518.58.65.274.13.58.148.866.047.19-.064 19.54-6.53 67.442-6.53 48.116 0 69.11 7.394 69.315 7.468.588.215 1.24-.09 1.456-.68" fill="#fee702"/><path d="M199.546 118.53c35.137 0 65.764 6.47 68.465 7.056.112-.49 1.82-8.152 1.93-8.65-2.952-.65-33.978-7.268-70.394-7.268-36.22 0-62.323 5.42-65.05 6.01.11.498 1.8 8.166 1.91 8.657 2.626-.555 28.46-5.805 63.14-5.805M201.997 11.657l.265-1.995s.24-1.75.244-1.76c0 0 1.22-5.135 1.366-5.74h-7.15c.353 1.493 1.398 5.903 1.417 6.027l.455 3.467-6.927-2.52.298 5.308 6.94 1.577-2.19 10.955h7.164l-2.19-10.955 6.938-1.577.298-5.308-6.93 2.52M191.166 64.656c2.19-2.85 5.524-4.574 9.133-4.574 3.606 0 6.94 1.725 9.13 4.574.004-.054.008-.165.008-.165 0-5.04-4.1-9.14-9.14-9.14-5.04 0-9.14 4.1-9.14 9.14 0 0 .004.112.008.166" fill="#fee702"/><path d="M200.3 62.52c-5.043 0-9.143 4.1-9.143 9.142s4.1 9.14 9.142 9.14c5.037 0 9.138-4.098 9.138-9.14 0-5.042-4.1-9.142-9.14-9.142M132.82 58.182c-7.88-.75-11.677 4.705-12.68 8.045-1.356 4.52 3.163 20.13 4.083 23.21.122.414.398.75.775.955.376.205.81.25 1.22.128.412-.12.75-.397.954-.774.204-.38.25-.813.127-1.22-2.022-6.79-4.918-18.6-4.084-21.378.722-2.4 3.494-6.323 9.3-5.77.428.042.846-.085 1.176-.36.33-.274.534-.657.574-1.084.085-.88-.563-1.668-1.446-1.752M181.394 60.213c-.494-.232-12.14-5.738-16.337-6.706-4.854-1.12-8.77.844-10.673 2.112-2.527 1.684-4.142 4.808-5.085 9.83-.986 5.257 4.435 24.882 5.058 27.105.114.41.383.753.756.965.375.21.808.263 1.222.145.85-.236 1.35-1.124 1.113-1.974-2.27-8.115-5.63-22.255-4.995-25.648.76-4.056 1.976-6.592 3.71-7.753 1.476-.98 4.497-2.5 8.17-1.652 3.193.733 12.406 4.924 15.687 6.478.798.376 1.756.033 2.136-.764.378-.8.035-1.76-.764-2.14M280.902 66.227c-.998-3.34-4.8-8.795-12.68-8.045-.426.04-.813.245-1.086.578-.272.33-.4.747-.36 1.174.04.427.243.81.572 1.083.333.276.75.404 1.177.36 5.812-.552 8.58 3.37 9.3 5.77.834 2.776-2.062 14.585-4.08 21.38-.124.406-.08.84.125 1.216.2.38.54.656.952.777.847.252 1.745-.232 2-1.083.92-3.08 5.436-18.69 4.08-23.21M244.706 93.665c.417.118.848.064 1.224-.145.374-.212.64-.555.754-.968.625-2.22 6.044-21.845 5.055-27.102-.94-5.022-2.554-8.146-5.083-9.83-1.9-1.27-5.815-3.233-10.67-2.113-4.2.968-15.847 6.474-16.338 6.706-.8.38-1.144 1.34-.764 2.14.38.796 1.335 1.14 2.136.763 3.282-1.554 12.494-5.745 15.686-6.478 3.676-.848 6.697.673 8.166 1.65 1.74 1.162 2.95 3.698 3.713 7.754.633 3.387-2.727 17.53-4.99 25.65-.115.41-.065.843.144 1.216.213.373.553.642.966.757M134.323 79.155c-.245.125-4.364 2.298-4.364 8.415 0 2.51.69 5.68 2.63 9.647.028.077 2.696 7.543 3.684 9.343l3.774-.807c-.726-1.05-2.857-4.34-2.857-6.905 0-.246.02-.485.064-.717.104-.56.383-.998.74-1.378-.993-.117-2.872-.625-3.74-2.77-.3-.738-.447-1.518-.447-2.302 0-1.24.37-2.485 1.094-3.57.8-1.195 2.628-1.623 4.086-1.794-1.258-.454-2.566-1.258-3.476-2.482-.578-.777-1.158-1.927-1.158-3.424 0-.414.104-.88.205-1.345l-.234.09M271.687 87.567c0-6.11-4.117-8.284-4.346-8.402 0 0-.136-.05-.258-.097.1.464.206.928.206 1.342 0 1.497-.58 2.647-1.157 3.424-.91 1.224-2.22 2.028-3.477 2.482 1.46.17 3.29.6 4.083 1.793.727 1.085 1.097 2.33 1.097 3.574 0 .78-.148 1.56-.444 2.297-.873 2.147-2.753 2.655-3.745 2.772.357.38.636.818.74 1.38.044.23.064.47.064.716 0 2.57-2.13 5.855-2.856 6.905l3.773.807c.986-1.8 3.656-9.27 3.697-9.374 1.93-3.952 2.623-7.117 2.623-9.62M201.758 87.93c.924.182 1.79.522 2.577 1.026l1.68.06c3.877 0 6.467-3.595 7.12-4.607-.92-.358-3.88-1.43-6.18-1.43-2.66 0-5.373 1.76-5.373 3.487 0 .586.015 1.087.176 1.463M200.3 90.2c-2.788 0-5.058 2.27-5.058 5.06 0 2.79 2.27 5.058 5.058 5.058s5.057-2.267 5.057-5.06c0-2.787-2.27-5.057-5.057-5.057M188.96 49.24c-.202.823-.508 2.356-.508 4.307 0 1.89.323 4.113 1.292 6.303.968-2.19 2.57-4.026 4.614-5.257-2.59-1.52-4.39-3.32-5.4-5.354M206.263 54.593c2.047 1.23 3.65 3.067 4.614 5.257.966-2.19 1.29-4.413 1.29-6.303 0-1.95-.304-3.484-.506-4.308-1.007 2.033-2.807 3.833-5.397 5.353" fill="#fee702"/><path d="M150.91 87.338c-.222-.692-.75-1.298-1.408-1.614-.388-.185-.99-.353-1.662-.09-1.188.46-2.016 1.506-2.816 2.518l-.542.67c-1.287 1.543-2.853 1.31-4.508 1.066l-.168-.027c-.71-.103-1.272-.187-1.922.102-.218.094-.673.736-.937 1.18-.168 1.15.86 2.008 1.792 2.388 1.05.434 1.924.108 2.937-.265l.96-.333c1.032-.3 1.912-.172 2.763-.05l1.475.137c1.378 0 2.627-.623 3.42-1.71.832-1.136 1.055-2.586.614-3.972M264.19 89.962c-.652-.29-1.214-.205-1.964-.094l-.128.02c-1.655.245-3.22.477-4.507-1.066l-.537-.666c-.804-1.013-1.63-2.062-2.822-2.523-.67-.26-1.27-.094-1.657.09-.66.317-1.187.923-1.41 1.615-.44 1.386-.218 2.836.613 3.973.797 1.087 2.042 1.71 3.42 1.71l1.477-.14c.85-.12 1.732-.248 2.765.052l.962.333c1.01.373 1.883.7 2.932.265.935-.383 1.96-1.24 1.823-2.297-.296-.534-.746-1.177-.965-1.27M113.737 91.606c-.24.428-.323.828-.323 1.178 0 .52.156.847.243 1.01 2.712-.92 7.848 1.078 9 1.56.345-.525.51-1.107.51-1.713 0-2.067-1.526-4.223-1.74-4.52-3.824-.127-7.676 2.51-7.69 2.486M282.15 89.12c-.215.297-1.742 2.453-1.742 4.52 0 .607.165 1.19.508 1.713 1.154-.48 6.293-2.48 9.004-1.56.09-.17.265-.525.265-1.063 0-.316-.067-.67-.265-1.033-.04-.03-3.922-2.704-7.77-2.576" fill="#fee702"/><path d="M129.776 107.983c.743-.212 3.227-.707 4.147-.888-1.16-2.483-4.495-12.707-5.388-15.462-.247.485-.557.892-1.003 1.117-.77.39-1.632.28-2.15.155.022.124.086.205.086.346 0 1.683-1.354 4.532-1.68 5.187l-.15.306-.27-.208c-3.3-2.57-7.992-2.943-9.247-3 .16 1.332.75 2.263 1.004 2.59 3.698-2.58 8.238.67 9.506 2.203.56.68.702 1.863.702 2.892 0 .77-.08 1.443-.122 1.752l4.566 3.01M287.06 98.125c.253-.327.845-1.258 1.003-2.59-1.255.057-5.946.43-9.25 3l-.268.208-.152-.306c-.322-.655-1.675-3.504-1.675-5.186 0-.083.044-.127.05-.204-.618.31-1.64.7-2.51.367-.385-.148-.66-.46-.883-.85-.854 2.622-3.975 12.11-5.112 14.532.922.18 3.404.676 4.144.888l4.567-3.01c-.044-.31-.12-.983-.12-1.753 0-1.03.14-2.213.702-2.892 1.268-1.534 5.808-4.783 9.505-2.203M200.3 28.974c-6.08 0-11.026 4.948-11.026 11.025 0 6.08 4.946 11.024 11.025 11.024 6.076 0 11.022-4.944 11.022-11.025 0-6.078-4.946-11.026-11.023-11.026M198.952 86.467c0-1.728-2.71-3.487-5.37-3.487-2.304 0-5.265 1.072-6.182 1.43.652 1.01 3.244 4.607 7.122 4.607 0 0 1.663-.064 1.75-.064.768-.495 1.608-.828 2.502-1.013.164-.376.178-.88.178-1.473" fill="#fee702"/><path d="M168.775 47.22c0-2.942 2.395-5.337 5.338-5.337 2.944 0 5.34 2.395 5.34 5.338s-2.396 5.338-5.34 5.338c-2.943 0-5.338-2.395-5.338-5.337M155.59 43.77c0-2.947 2.392-5.338 5.337-5.338 2.942 0 5.337 2.39 5.337 5.338 0 2.94-2.395 5.334-5.337 5.334-2.945 0-5.337-2.395-5.337-5.334M142.716 50.05c0-2.944 2.392-5.34 5.337-5.34 2.943 0 5.336 2.396 5.336 5.34 0 2.942-2.394 5.333-5.337 5.333-2.945 0-5.337-2.39-5.337-5.334M135.81 62.608c0-2.943 2.392-5.338 5.335-5.338 2.944 0 5.34 2.395 5.34 5.338 0 2.94-2.396 5.337-5.34 5.337-2.943 0-5.336-2.398-5.336-5.337M136.437 77.992c0-2.943 2.393-5.338 5.337-5.338s5.337 2.395 5.337 5.338-2.392 5.337-5.336 5.337c-2.944 0-5.337-2.395-5.337-5.338M140.52 99.655c0-2.94 2.392-5.338 5.336-5.338 2.943 0 5.338 2.398 5.338 5.338 0 2.943-2.395 5.338-5.338 5.338-2.944 0-5.337-2.395-5.337-5.338M126.39 49.42c0-3.464 2.816-6.283 6.278-6.283 3.463 0 6.28 2.82 6.28 6.283 0 3.46-2.817 6.28-6.28 6.28-3.462 0-6.28-2.82-6.28-6.28M112.062 54.23c0-3.465 2.817-6.28 6.28-6.28 3.462 0 6.28 2.815 6.28 6.28 0 3.46-2.818 6.28-6.28 6.28-3.463 0-6.28-2.82-6.28-6.28M105.584 67.63c0-3.162 2.57-5.735 5.733-5.735s5.735 2.573 5.735 5.734c0 3.164-2.572 5.737-5.735 5.737-3.163 0-5.733-2.573-5.733-5.738M107.78 82.075c0-3.165 2.572-5.738 5.733-5.738 3.163 0 5.737 2.573 5.737 5.738 0 3.16-2.574 5.734-5.737 5.734-3.16 0-5.734-2.574-5.734-5.735M113.434 103.738c0-2.47 2.007-4.477 4.477-4.477s4.476 2.01 4.476 4.478c0 2.47-2.007 4.48-4.475 4.48-2.47 0-4.476-2.01-4.476-4.48M225.835 52.558c-2.947 0-5.338-2.395-5.338-5.337 0-2.942 2.39-5.337 5.338-5.337 2.942 0 5.334 2.395 5.334 5.338s-2.393 5.338-5.335 5.338M239.022 49.104c-2.946 0-5.337-2.395-5.337-5.334 0-2.947 2.39-5.338 5.337-5.338 2.943 0 5.334 2.39 5.334 5.338 0 2.94-2.39 5.334-5.334 5.334M251.894 55.383c-2.943 0-5.338-2.39-5.338-5.334 0-2.944 2.395-5.34 5.338-5.34 2.946 0 5.337 2.396 5.337 5.34 0 2.942-2.39 5.333-5.336 5.333M258.802 67.945c-2.943 0-5.338-2.398-5.338-5.337 0-2.943 2.395-5.338 5.338-5.338s5.338 2.395 5.338 5.338c0 2.94-2.395 5.337-5.338 5.337M258.173 83.33c-2.943 0-5.338-2.395-5.338-5.338s2.395-5.338 5.338-5.338 5.338 2.395 5.338 5.338-2.394 5.337-5.337 5.337M254.093 104.993c-2.943 0-5.34-2.395-5.34-5.338 0-2.94 2.397-5.338 5.34-5.338s5.338 2.398 5.338 5.338c0 2.943-2.394 5.338-5.337 5.338M267.28 55.7c-3.463 0-6.278-2.82-6.278-6.28 0-3.464 2.815-6.283 6.28-6.283 3.46 0 6.278 2.82 6.278 6.283 0 3.46-2.818 6.28-6.28 6.28M281.41 60.724c-3.464 0-6.282-2.818-6.282-6.282 0-3.46 2.818-6.28 6.282-6.28 3.458 0 6.276 2.82 6.276 6.28 0 3.464-2.818 6.282-6.276 6.282M288.63 73.367c-3.164 0-5.733-2.573-5.733-5.738 0-3.162 2.57-5.735 5.734-5.735 3.163 0 5.736 2.573 5.736 5.734 0 3.164-2.573 5.737-5.735 5.737M286.435 87.81c-3.165 0-5.738-2.574-5.738-5.735 0-3.165 2.573-5.738 5.738-5.738 3.162 0 5.73 2.573 5.73 5.738 0 3.16-2.568 5.734-5.73 5.734M283.923 108.218c-2.472 0-4.477-2.01-4.477-4.48 0-2.47 2.005-4.477 4.477-4.477 2.465 0 4.473 2.01 4.473 4.478 0 2.47-2.008 4.48-4.473 4.48" fill="#fff"/><path d="M185.606 40.578c-.012-.303-.143-.582-.365-.787-.222-.204-.513-.31-.816-.295-.304.013-.583.145-.787.37-.192.208-.294.477-.294.757v.057l1.87 42.293c.404-.168 1.045-.437 1.048-.437 0 0 .896-.337 1.186-.444-.02-.397-1.84-41.514-1.84-41.514M187.806 90.234l-.092-2.075c-1.41-1.363-2.22-2.705-2.367-2.964l-.04-.07.23 5.16c.027.624.56 1.112 1.185 1.085.607-.026 1.084-.53 1.084-1.136M215.122 85.3c-.168.286-.972 1.598-2.404 2.95-.007.192-.088 1.97-.088 1.988 0 .282.108.555.3.763.205.226.484.358.786.37.626.028 1.154-.46 1.184-1.085 0 0 .155-3.458.222-4.985M216.017 39.495c-.626-.027-1.16.457-1.184 1.083l-1.84 41.483 1.282.476-.007-.004s.575.242.96.4c.032-.78 1.87-42.287 1.87-42.308 0-.598-.476-1.103-1.08-1.13" fill="#fee702"/><path d="M175.143 43.588c-.126.28-.002.61.277.737 1.137.514 1.873 1.65 1.873 2.896 0 1.753-1.427 3.18-3.18 3.18-.846 0-1.642-.33-2.244-.933-.217-.215-.57-.215-.787 0-.217.22-.217.572 0 .787.81.81 1.887 1.258 3.03 1.258 2.366 0 4.292-1.924 4.292-4.29 0-1.68-.99-3.217-2.525-3.91-.28-.127-.61-.004-.737.276M161.957 40.134c-.128.28-.004.612.275.737 1.14.518 1.873 1.655 1.873 2.9 0 1.752-1.426 3.175-3.178 3.175-.846 0-1.644-.33-2.245-.932-.216-.215-.568-.215-.787 0-.216.22-.216.572 0 .787.81.814 1.886 1.26 3.032 1.26 2.366 0 4.292-1.926 4.292-4.29 0-1.682-.993-3.216-2.526-3.912-.282-.128-.613-.004-.737.276M149.084 46.417c-.128.28 0 .612.278.736 1.137.515 1.87 1.652 1.87 2.896 0 1.75-1.425 3.177-3.178 3.177-.848 0-1.644-.33-2.243-.93-.216-.22-.568-.22-.784-.005-.22.218-.22.568-.004.787.81.813 1.886 1.26 3.032 1.26 2.366 0 4.292-1.927 4.292-4.292 0-1.68-.992-3.218-2.525-3.91-.28-.126-.61 0-.736.278M142.175 58.972c-.127.283-.003.61.277.737 1.138.517 1.872 1.653 1.872 2.898 0 1.752-1.425 3.178-3.18 3.178-.843 0-1.64-.33-2.242-.935-.218-.214-.57-.214-.788.005-.217.22-.217.57 0 .787.813.81 1.89 1.258 3.03 1.258 2.368 0 4.294-1.924 4.294-4.292 0-1.68-.992-3.215-2.526-3.91-.28-.13-.61-.005-.737.275M142.49 74.39c-.13.28-.005.612.276.736 1.136.515 1.87 1.652 1.87 2.9 0 1.752-1.425 3.178-3.177 3.178-.85 0-1.645-.333-2.247-.935-.218-.217-.57-.217-.787 0-.216.217-.216.57 0 .79.812.81 1.888 1.257 3.033 1.257 2.365 0 4.29-1.927 4.29-4.292 0-1.68-.99-3.218-2.526-3.91-.28-.13-.61-.005-.735.275M134.64 46.1c-.125.28 0 .613.28.737 1.135.518 1.87 1.655 1.87 2.9 0 1.748-1.425 3.174-3.177 3.174-.848 0-1.644-.328-2.246-.93-.215-.216-.57-.216-.786 0-.216.218-.216.568 0 .787.81.81 1.888 1.258 3.033 1.258 2.366 0 4.29-1.924 4.29-4.29 0-1.68-.99-3.214-2.525-3.91-.28-.128-.61-.004-.737.276M120.2 50.813c-.128.275-.004.608.276.736 1.136.514 1.87 1.65 1.87 2.895 0 1.752-1.426 3.178-3.177 3.178-.848 0-1.645-.333-2.248-.93-.217-.22-.57-.22-.787 0-.215.217-.215.567 0 .786.813.81 1.89 1.257 3.034 1.257 2.365 0 4.288-1.928 4.288-4.292 0-1.682-.99-3.215-2.522-3.912-.28-.127-.61-.004-.737.28M114.578 78.442c-.127.28-.003.606.278.734 1.136.514 1.872 1.65 1.872 2.9 0 1.75-1.427 3.177-3.18 3.177-.847 0-1.643-.333-2.244-.932-.216-.217-.57-.217-.787-.003-.218.22-.218.572 0 .79.81.81 1.886 1.255 3.03 1.255 2.367 0 4.293-1.923 4.293-4.288 0-1.682-.992-3.22-2.526-3.91-.28-.13-.608-.005-.736.278M112.38 64.31c-.127.282-.005.608.276.736 1.136.518 1.872 1.655 1.872 2.9 0 1.752-1.425 3.174-3.18 3.174-.845 0-1.643-.33-2.243-.93-.217-.217-.57-.217-.787 0-.218.217-.218.57 0 .786.81.814 1.888 1.258 3.03 1.258 2.368 0 4.293-1.924 4.293-4.29 0-1.68-.99-3.214-2.525-3.91-.28-.128-.61 0-.736.276M226.352 43.272c-.127.28 0 .612.276.737 1.137.516 1.874 1.653 1.874 2.898 0 1.752-1.426 3.178-3.18 3.178-.846 0-1.643-.33-2.242-.932-.215-.218-.572-.218-.787 0-.22.216-.22.57 0 .787.81.812 1.887 1.26 3.03 1.26 2.365 0 4.292-1.928 4.292-4.292 0-1.68-.992-3.216-2.526-3.912-.28-.128-.61-.004-.738.276M239.853 40.134c-.128.282-.004.612.28.737 1.133.515 1.87 1.652 1.87 2.9 0 1.752-1.427 3.175-3.176 3.175-.847 0-1.648-.33-2.247-.932-.218-.215-.57-.215-.787 0-.218.22-.218.568 0 .787.81.81 1.887 1.26 3.034 1.26 2.365 0 4.288-1.926 4.288-4.29 0-1.682-.992-3.22-2.526-3.912-.283-.128-.613-.004-.737.276M252.724 46.413c-.127.28-.004.612.28.737 1.136.518 1.873 1.655 1.873 2.9 0 1.748-1.426 3.174-3.178 3.174-.852 0-1.646-.33-2.248-.928-.215-.22-.572-.22-.787-.004-.22.218-.22.568 0 .79.807.807 1.887 1.255 3.034 1.255 2.363 0 4.287-1.924 4.287-4.29 0-1.68-.992-3.214-2.526-3.91-.278-.128-.608-.004-.736.276M268.424 45.788c-.124.282 0 .61.28.736 1.136.512 1.87 1.648 1.87 2.896 0 1.752-1.426 3.18-3.175 3.18-.85 0-1.646-.334-2.248-.933-.215-.22-.568-.22-.787-.004-.215.218-.215.568 0 .79.81.81 1.89 1.258 3.034 1.258 2.363 0 4.287-1.926 4.287-4.29 0-1.682-.992-3.22-2.526-3.912-.278-.124-.608 0-.736.28M282.554 51.122c-.125.283-.004.612.28.74 1.136.515 1.872 1.65 1.872 2.896 0 1.752-1.43 3.178-3.18 3.178-.846 0-1.643-.333-2.245-.935-.217-.214-.57-.214-.786.005-.218.22-.218.568 0 .787.814.81 1.887 1.258 3.03 1.258 2.368 0 4.292-1.927 4.292-4.292 0-1.68-.99-3.215-2.526-3.91-.28-.13-.612-.005-.736.275M289.462 64.31c-.128.282-.004.612.276.736 1.14.518 1.873 1.652 1.873 2.9 0 1.752-1.425 3.174-3.177 3.174-.848 0-1.648-.33-2.247-.93-.215-.217-.568-.217-.787 0-.216.217-.216.57 0 .786.81.814 1.886 1.258 3.033 1.258 2.368 0 4.292-1.924 4.292-4.29 0-1.68-.993-3.214-2.53-3.91-.275-.128-.608-.004-.733.276M287.266 78.755c-.128.28-.004.612.276.737 1.136.514 1.873 1.65 1.873 2.896 0 1.752-1.43 3.178-3.182 3.178-.847 0-1.64-.333-2.24-.932-.218-.218-.57-.218-.787-.004-.218.22-.218.57-.004.787.808.814 1.887 1.262 3.03 1.262 2.368 0 4.296-1.93 4.296-4.293 0-1.682-.993-3.215-2.526-3.912-.28-.124-.612-.004-.737.28M284.22 100.91c-.13.282-.005.612.274.74.835.376 1.373 1.21 1.373 2.125 0 1.285-1.046 2.334-2.33 2.334-.62 0-1.21-.246-1.65-.687-.218-.22-.57-.215-.79 0-.215.22-.215.572.005.787.652.653 1.52 1.012 2.435 1.012 1.9 0 3.444-1.547 3.444-3.447 0-1.352-.793-2.583-2.027-3.14-.28-.13-.61-.005-.734.274M118.125 100.91c-.127.282-.004.608.276.736.836.38 1.376 1.214 1.376 2.13 0 1.284-1.048 2.333-2.334 2.333-.62 0-1.206-.246-1.65-.687-.217-.22-.57-.215-.787 0-.215.22-.215.572.002.787.654.653 1.518 1.012 2.435 1.012 1.9 0 3.446-1.547 3.446-3.447 0-1.352-.796-2.583-2.027-3.14-.28-.13-.607-.005-.735.274M259.633 58.975c-.125.28 0 .61.28.734 1.136.513 1.87 1.65 1.87 2.898 0 1.752-1.427 3.178-3.18 3.178-.844 0-1.644-.333-2.246-.935-.215-.217-.57-.217-.784 0-.218.22-.218.573 0 .788.81.814 1.887 1.26 3.03 1.26 2.368 0 4.292-1.922 4.292-4.29 0-1.685-.992-3.22-2.522-3.912-.283-.128-.612-.004-.74.28M258.69 74.356c-.123.282 0 .612.28.74 1.137.51 1.87 1.65 1.87 2.896 0 1.752-1.423 3.178-3.178 3.178-.848 0-1.645-.333-2.247-.932-.215-.218-.568-.218-.787 0-.215.22-.215.57 0 .787.814.81 1.89 1.258 3.034 1.258 2.368 0 4.29-1.927 4.29-4.29 0-1.683-.987-3.217-2.524-3.913-.28-.124-.606 0-.737.276M254.61 96.023c-.127.28-.003.608.277.736 1.137.514 1.87 1.65 1.87 2.895 0 1.752-1.426 3.178-3.178 3.178-.85 0-1.643-.33-2.245-.93-.215-.22-.568-.22-.787 0-.215.214-.215.567 0 .786.81.81 1.887 1.257 3.03 1.257 2.368 0 4.296-1.928 4.296-4.292 0-1.682-.993-3.215-2.526-3.912-.283-.124-.612 0-.737.28M146.57 96.056c-.127.28-.002.612.277.737 1.137.514 1.873 1.65 1.873 2.896 0 1.75-1.427 3.177-3.178 3.177-.848 0-1.644-.33-2.247-.932-.216-.218-.57-.218-.787 0-.216.22-.216.57.002.787.81.81 1.89 1.258 3.032 1.258 2.366 0 4.29-1.924 4.29-4.29 0-1.683-.99-3.217-2.526-3.913-.28-.124-.61-.004-.737.28" fill="#231f20"/><path d="M43 76.603l9.153-12.596c-.044-.13-8.65-26.624-9.153-28.17v40.766M82.705 65.292c-1.584.514-37.99 12.343-38.772 12.595 2.325.757 14.753 4.8 14.755 4.857 0-.004 22.676-16.48 24.017-17.452M66.962 112.156c-.95-1.31-23.48-32.318-23.962-32.98v15.572c.112.08 22.655 16.46 23.962 17.408M17.528 111.665l23.96-32.98c-.643.208-14.675 4.765-14.808 4.81l-9.152 28.17M2.717 64.498c1.586.515 37.99 12.343 38.772 12.6-.476-.657-9.073-12.49-9.153-12.6H2.717M347.846 64.007c.084.11 8.69 11.96 9.152 12.596V35.836c-.508 1.574-9.108 28.04-9.152 28.17M341.258 82.7c.13-.04 14.04-4.56 14.808-4.813-.787-.252-37.265-12.108-38.772-12.595 1.167.847 23.85 17.328 23.964 17.408M356.998 79.176c-.48.662-22.982 31.632-23.96 32.98 1.3-.948 23.85-17.327 23.96-17.408V79.176M373.32 83.494c-.128-.04-14.042-4.56-14.81-4.81.482.663 22.983 31.633 23.965 32.98-.484-1.49-9.108-28.035-9.155-28.17M358.51 77.097c.785-.26 37.267-12.11 38.774-12.6h-29.62c-.082.112-8.678 11.944-9.153 12.6" fill="#f0cf11"/><path d="M33.012 64.007l9.152 12.596V35.836c-.5 1.54-9.11 28.036-9.152 28.17M43.675 77.097c.782-.256 37.187-12.084 38.773-12.6h-29.62c-.08.112-8.688 11.96-9.153 12.6M67.637 111.665l-9.15-28.17c-.134-.04-14.19-4.61-14.812-4.81.485.665 23.024 31.69 23.962 32.98M42.164 79.176l-23.962 32.98c1.307-.948 23.85-17.327 23.962-17.408V79.176M26.423 82.7c.128-.04 14.04-4.56 14.808-4.813-.782-.252-37.242-12.1-38.77-12.595C3.684 66.18 26.308 82.62 26.423 82.7M357.835 35.836v40.767c.424-.582 9.128-12.56 9.176-12.53l-9.175-28.237M317.553 64.498c1.476.48 37.982 12.34 38.772 12.6l-9.15-12.6h-29.622M356.325 78.685c-.77.248-14.677 4.77-14.81 4.81l-9.154 28.17c.873-1.197 23.474-32.308 23.965-32.98M381.8 112.156l-23.965-32.98v15.572c.11.08 22.652 16.457 23.964 17.408M373.522 82.74c.004 0 22.77-16.54 24.018-17.448-1.517.49-37.986 12.343-38.773 12.595.706.23 14.755 4.793 14.755 4.854" fill="#fee702"/></g></svg>