<svg xmlns="http://www.w3.org/2000/svg" width="400" height="132.975"><path d="M85.043 0H400c-.142 57.096-1.66 104.87-70.52 105.48H.23C-1.105 46.266.67.304 85.043 0" fill="#2b2170" fill-rule="evenodd"/><path d="M345.15 49.51l-9.485 30.45c-.882 2.834-1.683 4.702-2.41 5.57-.703.847-1.76 1.29-3.174 1.29-1.35 0-2.12-.48-2.28-1.428-.19-.932.21-2.97 1.18-6.097l9.276-29.784c1.058-3.396 1.956-5.517 2.71-6.403.734-.88 1.805-1.323 3.2-1.323 1.396 0 2.175.442 2.336 1.323.146.886-.294 3.007-1.353 6.404m22.032 4.975c1.46-4.685 2.168-8.167 2.123-10.46-.07-2.275-.77-4.5-2.168-6.657-1.38-2.157-3.766-3.905-7.15-5.248-3.368-1.342-7.698-2.02-13-2.02-6.292 0-11.797 1.05-16.492 3.142-4.695 2.087-8.366 4.856-10.99 8.304-2.63 3.448-4.896 8.237-6.806 14.366l-5.276 16.928c-1.745 5.607-2.634 9.8-2.647 12.605-.015 2.8.668 5.195 2.068 7.166 1.378 1.972 3.73 3.445 7.047 4.432 3.315.985 7.572 1.462 12.79 1.462 4.664 0 8.98-.562 12.946-1.72 3.937-1.135 7.443-2.915 10.478-5.31 3.06-2.414 5.36-4.994 6.922-7.763 1.558-2.766 3.273-7.13 5.12-13.056l5.034-16.17zm-83.323-6.572l-9.515 30.55c-1.145 3.668-2.128 5.997-2.914 6.93-.817.947-1.982 1.426-3.494 1.426-1.316 0-2.076-.424-2.27-1.272-.216-.85.094-2.616.93-5.3l10.07-32.335c.81-2.597 1.588-4.26 2.298-5.008.707-.75 1.78-1.12 3.176-1.12 1.433 0 2.28.424 2.498 1.255.24.83-.027 2.447-.78 4.873m33.26-31.143l-25.084 80.543h-23.56l1.487-4.77c-2.89 1.987-5.73 3.48-8.526 4.467-2.8 1.002-5.56 1.494-8.27 1.494-3.664 0-6.58-.814-8.756-2.464-2.18-1.63-3.302-3.532-3.386-5.69-.088-2.155.632-5.67 2.15-10.544l9.623-30.907c1.576-5.06 3.08-8.663 4.493-10.784 1.42-2.122 3.734-3.99 6.965-5.606 3.233-1.612 6.725-2.41 10.495-2.41 2.924 0 5.46.442 7.604 1.343 2.15.898 3.946 2.24 5.382 4.025l5.824-18.698h23.56zm-95.15 32.74l-9.483 30.45c-.882 2.834-1.683 4.702-2.41 5.57-.702.847-1.756 1.29-3.17 1.29-1.356 0-2.12-.48-2.285-1.428-.187-.932.208-2.97 1.18-6.097l9.277-29.784c1.056-3.396 1.955-5.517 2.713-6.403.73-.88 1.806-1.323 3.2-1.323 1.392 0 2.174.442 2.335 1.323.143.886-.3 3.007-1.357 6.404m22.038 4.975l-5.036 16.17c-1.846 5.926-3.564 10.29-5.122 13.056-1.56 2.77-3.858 5.35-6.92 7.764-3.04 2.395-6.542 4.175-10.48 5.31-3.963 1.158-8.286 1.72-12.94 1.72-5.22 0-9.476-.477-12.795-1.462-3.317-.987-5.666-2.46-7.044-4.43-1.4-1.972-2.087-4.367-2.072-7.167.017-2.805.904-6.998 2.65-12.605l5.273-16.928c1.91-6.13 4.18-10.918 6.807-14.366 2.625-3.448 6.296-6.217 10.99-8.304 4.692-2.09 10.198-3.143 16.495-3.143 5.298 0 9.626.678 12.994 2.02 3.39 1.343 5.77 3.09 7.15 5.248 1.4 2.156 2.1 4.382 2.172 6.658.042 2.292-.664 5.774-2.122 10.46M193.5 6.475h-23.643L166.62 16.87H93.71l-3.253 10.443h72.912L148.493 76.87c-1.974 6.572-3.112 10.728-3.24 12.512-.125 1.767.473 3.345 1.798 4.725 1.326 1.374 3.06 2.26 5.234 2.632 2.19.386 5.955.573 11.333.573h9.5l3.317-10.644c-3.845 0-5.947-.265-6.32-.75-.376-.498.16-2.926 1.466-7.27l15.427-51.337h101.96l3.25-10.444H190.265L193.5 6.475zm-70.655 48.247h-6.895l1.504-4.822c1.158-3.717 2.068-5.992 2.73-6.84.643-.85 1.79-1.276 3.423-1.276 1.314 0 2.03.51 2.164 1.495.108 1-.362 3.208-1.424 6.62l-1.5 4.823zm20.296 10.75l2.73-8.762c1.993-6.4 2.66-11.362 2.028-14.89-.632-3.535-2.757-6.37-6.395-8.51-3.635-2.14-8.76-3.21-15.374-3.21-5.398 0-10.453.882-15.172 2.666-4.712 1.767-8.518 4.33-11.39 7.66-2.847 3.327-5.18 7.878-6.978 13.65L86.592 73.34c-1.532 4.907-2.295 8.64-2.28 11.225.018 2.563.756 4.922 2.22 7.065 1.445 2.134 3.89 3.817 7.316 5.038 3.444 1.224 7.634 1.838 12.613 1.838 5.142 0 9.614-.614 13.39-1.868 3.793-1.24 7.18-3.112 10.187-5.586 2.988-2.5 5.126-4.823 6.406-7.017 1.28-2.19 2.578-5.33 3.846-9.407l1.52-4.872h-22.35l-2.716 8.71c-1.02 3.276-2.027 5.49-2.982 6.64-.953 1.134-2.33 1.715-4.12 1.715-1.436 0-2.275-.443-2.526-1.29-.228-.868.11-2.785 1.04-5.774l4.45-14.284h30.535zm-83.928-17.56c.756-2.426 1.02-4.042.782-4.873-.22-.83-1.065-1.256-2.497-1.256-1.395 0-2.47.372-3.18 1.12-.708.748-1.485 2.412-2.298 5.01L41.952 80.247c-.836 2.684-1.147 4.45-.936 5.3.197.848.96 1.27 2.275 1.27 1.514 0 2.677-.478 3.49-1.426.79-.932 1.772-3.26 2.916-6.928l9.514-30.55zM92.475 16.77L67.39 97.313H43.83l1.484-4.77c-2.89 1.987-5.727 3.48-8.524 4.467-2.8 1.002-5.565 1.494-8.274 1.494-3.663 0-6.578-.814-8.753-2.464-2.183-1.63-3.303-3.532-3.387-5.69-.086-2.155.63-5.67 2.147-10.544L28.15 48.9c1.575-5.06 3.075-8.663 4.494-10.784 1.42-2.122 3.733-3.99 6.964-5.606 3.23-1.612 6.726-2.41 10.492-2.41 2.928 0 5.46.442 7.608 1.343 2.15.898 3.947 2.24 5.382 4.025l5.82-18.698h23.565z" fill="#d72537" fill-rule="evenodd"/><path d="M345.15 49.51l-9.485 30.45c-.882 2.834-1.683 4.702-2.41 5.57-.703.847-1.76 1.29-3.174 1.29-1.35 0-2.12-.48-2.28-1.428-.19-.932.21-2.97 1.18-6.097l9.276-29.784c1.058-3.396 1.956-5.517 2.71-6.403.734-.88 1.805-1.323 3.2-1.323 1.396 0 2.175.442 2.336 1.323.146.886-.294 3.007-1.353 6.404zm22.032 4.975c1.46-4.685 2.168-8.167 2.123-10.46-.07-2.275-.77-4.5-2.168-6.657-1.38-2.157-3.766-3.905-7.15-5.248-3.368-1.342-7.698-2.02-13-2.02-6.292 0-11.797 1.05-16.492 3.142-4.695 2.087-8.366 4.856-10.99 8.304-2.63 3.448-4.896 8.237-6.806 14.366l-5.276 16.928c-1.745 5.607-2.634 9.8-2.647 12.605-.015 2.8.668 5.195 2.068 7.166 1.378 1.972 3.73 3.445 7.047 4.432 3.315.985 7.572 1.462 12.79 1.462 4.664 0 8.98-.562 12.946-1.72 3.937-1.135 7.443-2.915 10.478-5.31 3.06-2.414 5.36-4.994 6.922-7.763 1.558-2.766 3.273-7.13 5.12-13.056l5.034-16.17zm-83.323-6.572l-9.515 30.55c-1.145 3.668-2.128 5.997-2.914 6.93-.817.947-1.982 1.426-3.494 1.426-1.316 0-2.076-.424-2.27-1.272-.216-.85.094-2.616.93-5.3l10.07-32.335c.81-2.597 1.588-4.26 2.298-5.008.707-.75 1.78-1.12 3.176-1.12 1.433 0 2.28.424 2.498 1.255.24.83-.027 2.447-.78 4.873zm33.26-31.143l-25.086 80.543h-23.56l1.487-4.77c-2.89 1.987-5.73 3.48-8.526 4.467-2.8 1.002-5.56 1.494-8.27 1.494-3.664 0-6.58-.814-8.756-2.464-2.18-1.63-3.302-3.532-3.386-5.69-.088-2.155.632-5.67 2.15-10.544l9.623-30.907c1.576-5.06 3.08-8.663 4.493-10.784 1.42-2.122 3.734-3.99 6.965-5.606 3.233-1.612 6.725-2.41 10.495-2.41 2.924 0 5.46.442 7.604 1.343 2.15.898 3.946 2.24 5.382 4.025l5.824-18.698h23.56zm-95.152 32.74l-9.483 30.45c-.882 2.834-1.683 4.702-2.41 5.57-.702.847-1.756 1.29-3.17 1.29-1.356 0-2.12-.48-2.285-1.428-.187-.932.208-2.97 1.18-6.097l9.277-29.784c1.056-3.396 1.955-5.517 2.713-6.403.73-.88 1.806-1.323 3.2-1.323 1.392 0 2.174.442 2.335 1.323.143.886-.3 3.007-1.357 6.404zm22.038 4.975l-5.036 16.17c-1.846 5.926-3.564 10.29-5.122 13.056-1.56 2.77-3.858 5.35-6.92 7.764-3.04 2.395-6.542 4.175-10.48 5.31-3.963 1.158-8.286 1.72-12.94 1.72-5.22 0-9.476-.477-12.795-1.462-3.317-.987-5.666-2.46-7.044-4.43-1.4-1.972-2.087-4.367-2.072-7.167.017-2.805.904-6.998 2.65-12.605l5.273-16.928c1.91-6.13 4.18-10.918 6.807-14.366 2.625-3.448 6.296-6.217 10.99-8.304 4.692-2.09 10.198-3.143 16.495-3.143 5.298 0 9.626.678 12.994 2.02 3.39 1.343 5.77 3.09 7.15 5.248 1.4 2.156 2.1 4.382 2.172 6.658.042 2.292-.664 5.774-2.122 10.46zM193.5 6.475h-23.643L166.62 16.87H93.71l-3.253 10.443h72.912L148.493 76.87c-1.974 6.572-3.112 10.728-3.24 12.512-.125 1.767.473 3.345 1.798 4.725 1.326 1.374 3.06 2.26 5.234 2.632 2.19.386 5.955.573 11.333.573h9.5l3.317-10.644c-3.845 0-5.947-.265-6.32-.75-.376-.498.16-2.926 1.466-7.27l15.427-51.337h101.96l3.25-10.444H190.265L193.5 6.475zm-70.655 48.248h-6.895l1.504-4.822c1.158-3.717 2.068-5.992 2.73-6.84.643-.85 1.79-1.276 3.423-1.276 1.314 0 2.03.51 2.164 1.495.108 1-.362 3.208-1.424 6.62l-1.5 4.823zm20.296 10.75l2.73-8.762c1.993-6.4 2.66-11.362 2.028-14.89-.632-3.535-2.757-6.37-6.395-8.51-3.635-2.14-8.76-3.21-15.374-3.21-5.398 0-10.453.882-15.172 2.666-4.712 1.767-8.518 4.33-11.39 7.66-2.847 3.327-5.18 7.878-6.978 13.65L86.592 73.34c-1.532 4.907-2.295 8.64-2.28 11.225.018 2.563.756 4.922 2.22 7.065 1.445 2.134 3.89 3.817 7.316 5.038 3.444 1.224 7.634 1.838 12.613 1.838 5.142 0 9.614-.614 13.39-1.868 3.793-1.24 7.18-3.112 10.187-5.586 2.988-2.5 5.126-4.823 6.406-7.017 1.28-2.19 2.578-5.33 3.846-9.407l1.52-4.872h-22.35l-2.716 8.71c-1.02 3.276-2.027 5.49-2.982 6.64-.953 1.134-2.33 1.715-4.12 1.715-1.436 0-2.275-.443-2.526-1.29-.228-.868.11-2.785 1.04-5.774l4.45-14.284h30.535zm-83.928-17.56c.756-2.426 1.02-4.042.782-4.873-.22-.83-1.065-1.256-2.497-1.256-1.395 0-2.47.372-3.18 1.12-.708.748-1.485 2.412-2.298 5.01L41.952 80.247c-.836 2.684-1.147 4.45-.936 5.3.197.848.96 1.27 2.275 1.27 1.514 0 2.677-.478 3.49-1.426.79-.932 1.772-3.26 2.916-6.928l9.514-30.55zM92.475 16.77L67.39 97.313H43.83l1.484-4.77c-2.89 1.987-5.727 3.48-8.524 4.467-2.8 1.002-5.565 1.494-8.274 1.494-3.663 0-6.578-.814-8.753-2.464-2.183-1.63-3.303-3.532-3.387-5.69-.086-2.155.63-5.67 2.147-10.544L28.15 48.9c1.575-5.06 3.075-8.663 4.494-10.784 1.42-2.122 3.733-3.99 6.964-5.606 3.23-1.612 6.726-2.41 10.492-2.41 2.928 0 5.46.442 7.608 1.343 2.15.898 3.947 2.24 5.382 4.025l5.82-18.698h23.565z" fill="none" stroke="#fff" stroke-width="1.872" stroke-linecap="round" stroke-linejoin="round" stroke-miterlimit="2.613"/><path d="M14.008 112.742l-.89 2.33c1.266-1.667 2.655-2.553 4.17-2.648l-1.803 6.23c-.987 0-1.75.135-2.29.4-.542.266-.936.64-1.177 1.114-.245.48-.618 1.577-1.114 3.29l-2.022 6.99H3.49l5.125-17.706h5.393zM23.384 119.027l.375-1.293c.263-.916.386-1.507.366-1.775-.02-.267-.182-.4-.483-.4-.375 0-.64.11-.794.337-.155.227-.377.84-.668 1.837l-.374 1.293h1.576zm4.568 2.885h-6.977l-1.11 3.828c-.23.802-.322 1.316-.273 1.547.048.234.237.352.565.352.41 0 .728-.16.955-.466.226-.31.468-.9.722-1.782l.674-2.336h5.114l-.378 1.314c-.318 1.093-.63 1.93-.938 2.518-.308.59-.81 1.22-1.512 1.883-.698.668-1.488 1.167-2.363 1.504-.877.33-1.9.496-3.072.496-1.14 0-2.097-.162-2.876-.492-.775-.33-1.323-.78-1.64-1.353-.318-.575-.473-1.206-.462-1.9.015-.686.213-1.69.593-3.007l1.496-5.167c.446-1.545 1.008-2.762 1.686-3.658.674-.895 1.56-1.58 2.65-2.054 1.088-.476 2.25-.713 3.486-.713 1.515 0 2.68.284 3.497.86.817.572 1.285 1.334 1.405 2.28.122.946-.066 2.28-.562 4l-.68 2.347zM43.526 112.742l-7.65 17.707H28.83l2.417-17.708h4.815l-2.226 12.928c.395-.947 1.268-3.265 2.62-6.947.748-2.053 1.5-4.047 2.253-5.98h4.816zM50.992 108.848l-.816 2.812h-5.55l.815-2.812h5.552zm-1.127 3.894L44.74 130.45h-5.555l5.128-17.708h5.552zM61.17 118.402H56.39l.28-.962c.236-.818.34-1.34.31-1.554-.03-.22-.233-.326-.607-.326-.3 0-.556.1-.766.298-.21.2-.373.504-.49.902-.155.54-.233.94-.23 1.197 0 .25.146.53.438.833.29.3.94.74 1.945 1.32 1.346.767 2.165 1.484 2.457 2.16.293.677.254 1.66-.118 2.952-.42 1.44-.92 2.525-1.506 3.26-.585.735-1.375 1.298-2.364 1.697-.996.394-2.106.59-3.343.59-1.372 0-2.482-.215-3.332-.638-.85-.43-1.353-1.005-1.507-1.737-.152-.728-.016-1.833.41-3.31l.25-.852h4.778l-.324 1.12c-.28.955-.395 1.572-.356 1.857.038.284.232.43.59.43.38 0 .676-.1.883-.292.207-.192.398-.59.576-1.205.245-.844.3-1.376.17-1.59-.147-.213-1.008-.846-2.59-1.896-1.328-.887-2.058-1.7-2.196-2.42-.137-.727-.06-1.586.226-2.584.41-1.415.9-2.454 1.468-3.13.567-.67 1.353-1.185 2.353-1.553.998-.367 2.09-.545 3.272-.545 1.175 0 2.13.146 2.87.445.733.296 1.25.69 1.55 1.182.3.488.433.943.405 1.36-.026.416-.17 1.07-.428 1.962l-.298 1.028zM71.034 110.38l-.81 2.79h1.456l-.81 2.804h-1.455l-2.743 9.47c-.34 1.167-.466 1.818-.384 1.95.083.138.562.2 1.442.2l-.826 2.856H64.73c-1.225 0-2.088-.05-2.586-.15-.498-.106-.89-.34-1.183-.71-.29-.37-.42-.79-.378-1.268.038-.476.315-1.595.822-3.353l2.606-8.996h-1.16l.81-2.805h1.16l.808-2.79h5.406zM76.827 122.033c-1.046.63-1.7 1.158-1.962 1.587-.26.427-.505 1.037-.74 1.842-.263.914-.377 1.507-.332 1.773.043.268.24.403.597.403.34 0 .59-.105.754-.32.16-.207.37-.755.63-1.648l1.053-3.637zm-1.005-2.432h-5.058l.344-1.184c.395-1.37.86-2.428 1.39-3.173.533-.738 1.356-1.397 2.474-1.968 1.116-.565 2.434-.85 3.954-.85 1.825 0 3.107.32 3.847.968.737.644 1.063 1.432.98 2.368-.087.945-.552 2.877-1.4 5.805l-2.572 8.884h-5.246l.46-1.577c-.514.633-1.074 1.108-1.688 1.423-.614.318-1.277.475-2 .475-.94 0-1.73-.263-2.366-.792-.632-.53-.69-1.69-.174-3.477l.423-1.455c.383-1.324.85-2.226 1.407-2.71.56-.478 1.758-1.042 3.598-1.676 1.97-.696 3.055-1.164 3.246-1.405.2-.238.4-.73.615-1.468.268-.925.373-1.528.315-1.805-.054-.282-.245-.42-.564-.42-.365 0-.625.115-.784.35-.155.233-.378.85-.663 1.836l-.538 1.853zM97.163 117.2c.188-.65.257-1.083.21-1.31-.05-.218-.236-.33-.56-.33-.322 0-.57.1-.74.297-.168.202-.353.648-.553 1.342l-2.51 8.672c-.21.725-.293 1.195-.253 1.423.043.226.213.342.516.342.345 0 .616-.127.805-.38.188-.256.427-.878.712-1.864l2.373-8.194zm7.807-8.352l-6.253 21.6h-5.39l.37-1.28c-.67.532-1.33.935-1.974 1.2-.647.272-1.284.403-1.905.403-.837 0-1.5-.218-1.985-.66-.486-.44-.732-.947-.74-1.53-.005-.577.183-1.515.56-2.83l2.4-8.283c.394-1.36.76-2.327 1.098-2.896.34-.566.88-1.068 1.63-1.5.746-.435 1.553-.646 2.416-.646.666 0 1.243.12 1.73.36.486.24.887.602 1.2 1.085l1.454-5.022h5.39zM110.765 119.027l.374-1.293c.265-.916.387-1.507.366-1.775-.02-.267-.18-.4-.485-.4-.37 0-.635.11-.79.337-.156.227-.377.84-.665 1.837l-.376 1.293h1.575zm4.57 2.885h-6.98l-1.11 3.828c-.23.802-.322 1.316-.273 1.547.05.234.238.352.565.352.41 0 .73-.16.957-.466.227-.31.466-.9.723-1.782l.674-2.336h5.113l-.378 1.314c-.316 1.093-.63 1.93-.938 2.518-.31.59-.812 1.22-1.51 1.883-.703.668-1.49 1.167-2.365 1.504-.876.33-1.898.496-3.072.496-1.142 0-2.1-.162-2.875-.492-.777-.33-1.324-.78-1.64-1.353-.32-.575-.474-1.206-.463-1.9.014-.686.212-1.69.59-3.007l1.5-5.167c.445-1.545 1.008-2.762 1.684-3.658.676-.895 1.562-1.58 2.65-2.054 1.09-.476 2.253-.713 3.49-.713 1.513 0 2.676.284 3.496.86.816.572 1.284 1.334 1.405 2.28.122.946-.065 2.28-.56 4l-.683 2.347zM129.96 117.627c.264-.906.378-1.48.348-1.715-.028-.234-.202-.352-.524-.352-.32 0-.565.118-.743.352-.173.234-.392.81-.656 1.715l-2.314 7.993c-.24.837-.348 1.382-.312 1.638.033.25.205.38.516.38.322 0 .567-.118.736-.352.168-.23.365-.728.584-1.492l2.366-8.167zm5.006 1.335l-1.258 4.335c-.46 1.595-.878 2.76-1.254 3.503-.373.747-.918 1.437-1.627 2.08-.713.647-1.526 1.123-2.44 1.43-.91.307-1.897.46-2.966.46-1.194 0-2.165-.13-2.914-.393-.75-.26-1.28-.66-1.586-1.19-.303-.525-.447-1.165-.423-1.92.02-.748.25-1.88.685-3.384l1.315-4.534c.473-1.646 1.025-2.93 1.65-3.86.622-.924 1.478-1.665 2.567-2.225 1.086-.563 2.35-.84 3.79-.84 1.21 0 2.2.177 2.96.54.763.358 1.296.83 1.603 1.405.3.58.453 1.173.45 1.787-.007.618-.19 1.55-.55 2.805M144.066 117.894c.318-1.093.468-1.758.457-1.988-.015-.232-.204-.345-.567-.345-.358 0-.625.132-.803.4-.18.266-.418.91-.714 1.934l-2.125 7.338c-.31 1.067-.45 1.737-.42 2.003.028.268.22.403.577.403.348 0 .6-.124.753-.37.155-.244.37-.836.643-1.78l2.198-7.594zm-.043-5.152l-.545 1.565c.66-.633 1.328-1.104 1.998-1.415.666-.315 1.344-.468 2.03-.468.834 0 1.493.223 1.972.672.48.45.71.97.69 1.556-.018.587-.23 1.58-.637 2.99l-2.158 7.46c-.466 1.607-.895 2.755-1.28 3.436-.39.68-.94 1.22-1.648 1.627-.71.404-1.48.606-2.315.606-.672 0-1.24-.152-1.724-.467-.477-.31-.863-.775-1.157-1.39l-1.176 4.062h-5.392l5.856-20.233h5.485zM158.117 117.627c.264-.906.378-1.48.348-1.715-.03-.234-.204-.352-.524-.352-.32 0-.564.118-.744.352-.172.234-.393.81-.655 1.715l-2.313 7.993c-.24.837-.348 1.382-.312 1.638.033.25.204.38.516.38.323 0 .568-.118.737-.352.168-.23.365-.728.584-1.492l2.367-8.167zm5.004 1.335l-1.255 4.335c-.46 1.595-.878 2.76-1.254 3.503-.372.747-.917 1.437-1.628 2.08-.71.647-1.524 1.123-2.437 1.43-.91.307-1.9.46-2.967.46-1.195 0-2.166-.13-2.915-.393-.75-.26-1.28-.66-1.588-1.19-.3-.525-.445-1.165-.42-1.92.02-.748.248-1.88.684-3.384l1.313-4.534c.474-1.646 1.026-2.93 1.652-3.86.62-.924 1.477-1.665 2.566-2.225 1.087-.563 2.35-.84 3.792-.84 1.21 0 2.198.177 2.96.54.762.358 1.295.83 1.6 1.405.303.58.455 1.173.45 1.787-.005.618-.188 1.55-.55 2.805M172.088 112.742l-.89 2.33c1.266-1.667 2.655-2.553 4.173-2.648l-1.805 6.23c-.987 0-1.75.135-2.29.4-.544.266-.936.64-1.175 1.114-.245.48-.618 1.577-1.116 3.29l-2.022 6.99h-5.39l5.123-17.706h5.393zM183.338 110.38l-.805 2.79h1.453l-.81 2.804h-1.453l-2.743 9.47c-.337 1.167-.468 1.818-.384 1.95.08.138.562.2 1.442.2l-.826 2.856h-2.173c-1.23 0-2.092-.05-2.588-.15-.496-.106-.887-.34-1.183-.71-.293-.37-.422-.79-.38-1.268.036-.476.313-1.595.822-3.353l2.606-8.996h-1.162l.81-2.805h1.165l.804-2.79h5.404zM197.642 112.742l-5.126 17.707h-5.485l.52-1.47c-.55.595-1.137 1.045-1.77 1.342-.634.3-1.304.45-2.018.45-.808 0-1.44-.143-1.892-.425-.45-.285-.736-.665-.852-1.137-.118-.468-.13-.962-.045-1.473.084-.513.347-1.53.788-3.05l3.457-11.945h5.393l-3.49 12.05c-.4 1.38-.593 2.198-.585 2.454.01.26.202.392.577.392.4 0 .675-.135.83-.403.152-.266.44-1.125.858-2.578l3.452-11.915h5.39zM205.058 112.742l-.567 1.634c.583-.655 1.205-1.14 1.862-1.465.66-.325 1.357-.486 2.097-.486.923 0 1.618.215 2.078.65.46.436.68.988.657 1.65-.02.665-.258 1.77-.705 3.316l-3.593 12.41h-5.393l3.553-12.264c.352-1.217.526-1.96.522-2.226-.004-.268-.186-.4-.55-.4-.383 0-.667.15-.858.458-.182.31-.47 1.13-.856 2.46l-3.463 11.97h-5.393l5.127-17.706h5.48zM220.546 108.848l-.816 2.812h-5.55l.816-2.812h5.55zm-1.127 3.894l-5.13 17.707h-5.55l5.127-17.708h5.552zM226.938 117.2c.187-.65.256-1.083.21-1.31-.046-.218-.237-.33-.56-.33-.323 0-.568.1-.736.297-.172.202-.356.648-.556 1.342l-2.512 8.672c-.208.725-.293 1.195-.253 1.423.046.226.218.342.517.342.347 0 .614-.127.805-.38.19-.256.427-.878.712-1.864l2.374-8.194zm7.806-8.352l-6.253 21.6h-5.388l.37-1.28c-.67.532-1.33.935-1.975 1.2-.647.272-1.284.403-1.905.403-.837 0-1.5-.218-1.985-.66-.486-.44-.732-.947-.74-1.53-.003-.577.18-1.515.56-2.83l2.4-8.283c.394-1.36.76-2.327 1.1-2.896.336-.566.88-1.068 1.626-1.5.75-.435 1.554-.646 2.417-.646.666 0 1.243.12 1.73.36.486.24.89.602 1.2 1.085l1.454-5.022h5.39zM239.387 122.033c-1.043.63-1.7 1.158-1.96 1.587-.26.427-.507 1.037-.737 1.842-.268.914-.38 1.507-.334 1.773.043.268.242.403.596.403.337 0 .59-.105.754-.32.16-.207.373-.755.63-1.648l1.05-3.637zm-1.005-2.432h-5.056l.342-1.184c.4-1.37.863-2.428 1.393-3.173.533-.738 1.354-1.397 2.474-1.968 1.114-.565 2.435-.85 3.955-.85 1.82 0 3.103.32 3.846.968.738.644 1.064 1.432.98 2.368-.088.945-.553 2.877-1.4 5.805l-2.57 8.884h-5.248l.456-1.577c-.51.633-1.074 1.108-1.684 1.423-.614.318-1.28.475-2 .475-.943 0-1.733-.263-2.366-.792-.636-.53-.69-1.69-.176-3.477l.42-1.455c.385-1.324.857-2.226 1.413-2.71.56-.478 1.755-1.042 3.6-1.676 1.968-.696 3.052-1.164 3.245-1.405.195-.238.4-.73.61-1.468.272-.925.373-1.528.318-1.805-.054-.282-.245-.42-.567-.42-.365 0-.62.115-.782.35-.158.233-.377.85-.665 1.836l-.538 1.853zM254.908 117.2c.187-.65.256-1.083.212-1.31-.05-.218-.234-.33-.562-.33-.322 0-.567.1-.736.297-.172.202-.357.648-.556 1.342l-2.512 8.672c-.208.725-.292 1.195-.253 1.423.046.226.215.342.518.342.346 0 .614-.127.81-.38.184-.256.422-.878.706-1.864l2.374-8.194zm7.81-8.352l-6.256 21.6h-5.39l.37-1.28c-.67.532-1.332.935-1.978 1.2-.648.272-1.28.403-1.902.403-.837 0-1.5-.218-1.984-.66-.487-.44-.736-.947-.74-1.53-.003-.577.184-1.515.56-2.83l2.398-8.283c.395-1.36.76-2.327 1.1-2.896.338-.566.88-1.068 1.628-1.5.747-.435 1.554-.646 2.413-.646.674 0 1.247.12 1.733.36.487.24.89.602 1.204 1.085l1.45-5.022h5.394zM268.51 119.027l.372-1.293c.268-.916.387-1.507.37-1.775-.022-.267-.183-.4-.486-.4-.373 0-.637.11-.794.337-.153.227-.376.84-.663 1.837l-.377 1.293h1.576zm4.57 2.885h-6.98l-1.112 3.828c-.23.802-.322 1.316-.27 1.547.047.234.235.352.566.352.406 0 .724-.16.95-.466.227-.31.47-.9.725-1.782l.675-2.336h5.113l-.377 1.314c-.317 1.093-.63 1.93-.938 2.518-.31.59-.813 1.22-1.515 1.883-.698.668-1.484 1.167-2.362 1.504-.875.33-1.897.496-3.07.496-1.14 0-2.1-.162-2.876-.492-.78-.33-1.328-.78-1.645-1.353-.318-.575-.47-1.206-.458-1.9.01-.686.213-1.69.593-3.007l1.496-5.167c.446-1.545 1.01-2.762 1.685-3.658.677-.895 1.562-1.58 2.648-2.054 1.09-.476 2.256-.713 3.49-.713 1.512 0 2.678.284 3.498.86.814.572 1.286 1.334 1.404 2.28.124.946-.064 2.28-.56 4l-.68 2.347zM286.864 118.402h-4.78l.283-.962c.238-.818.34-1.34.31-1.554-.03-.22-.233-.326-.607-.326-.304 0-.558.1-.768.298-.21.2-.372.504-.485.902-.157.54-.237.94-.234 1.197.002.25.15.53.438.833.29.3.94.74 1.95 1.32 1.342.767 2.16 1.484 2.452 2.16.298.677.257 1.66-.116 2.952-.417 1.44-.917 2.525-1.507 3.26-.585.735-1.375 1.298-2.365 1.697-.992.394-2.102.59-3.343.59-1.367 0-2.48-.215-3.327-.638-.855-.43-1.353-1.005-1.507-1.737-.153-.728-.017-1.833.41-3.31l.245-.852h4.78l-.326 1.12c-.275.955-.39 1.572-.356 1.857.04.284.235.43.595.43.38 0 .672-.1.88-.292.205-.192.398-.59.574-1.205.248-.844.302-1.376.168-1.59-.143-.213-1.006-.846-2.59-1.896-1.323-.887-2.057-1.7-2.193-2.42-.135-.727-.062-1.586.226-2.584.41-1.415.902-2.454 1.47-3.13.568-.67 1.354-1.185 2.35-1.553 1.002-.367 2.095-.545 3.276-.545 1.174 0 2.13.146 2.866.445.738.296 1.254.69 1.55 1.182.3.488.438.943.41 1.36-.03.416-.172 1.07-.43 1.962l-.298 1.028z" fill="#d72537"/></svg>