<svg xmlns="http://www.w3.org/2000/svg" width="747.328" height="133.467"><path d="M210.672 110.76h-17V27.69h16.297v9.4c3.544-3.702 7.443-6.43 11.708-8.154 4.24-1.718 9.128-2.6 14.6-2.6 12.34 0 21.796 3.202 28.4 9.575 6.588 6.396 9.88 15.542 9.88 27.48v47.37h-16.976V66.628c0-8.82-1.856-15.348-5.575-19.617-3.72-4.252-9.46-6.37-17.23-6.37-8.466 0-14.598 2.503-18.41 7.525-3.798 5.002-5.695 13.286-5.695 24.816v37.78zM316.827 15.475c-3.792 0-6.89 1.44-9.375 4.304-2.465 2.87-3.712 6.13-3.712 9.824V49.54h29.685v15.453H303.74v43.81h-16.226V28.806c0-8.136 2.778-14.975 8.328-20.5C301.402 2.765 308.422 0 316.94 0h17.24v15.475h-17.353zM357.575 69.215c0 8.313 2.97 15.24 8.945 20.785 5.96 5.544 13.403 8.31 22.296 8.31 8.724 0 16.047-2.766 21.95-8.346 5.903-5.574 8.854-12.54 8.854-20.91 0-8.406-2.95-15.36-8.854-20.855-5.903-5.482-13.282-8.24-22.132-8.24-8.786 0-16.153 2.785-22.114 8.353-5.975 5.56-8.945 12.542-8.945 20.902m-17.655.163c0-5.884 1.126-11.403 3.378-16.485 2.273-5.11 5.606-9.707 9.99-13.77 4.757-4.478 10.103-7.924 16.04-10.342 5.96-2.4 12.137-3.622 18.533-3.622 6.873 0 13.224 1.083 19.083 3.252 5.87 2.154 11.187 5.356 15.93 9.588 4.637 4.175 8.19 8.87 10.668 14.095 2.49 5.225 3.735 10.63 3.735 16.217 0 5.68-1.16 11.216-3.464 16.598-2.32 5.375-5.572 10.073-9.735 14.098-4.812 4.624-10.196 8.124-16.19 10.52-5.964 2.394-12.316 3.572-19.07 3.572-6.92 0-13.295-1.075-19.136-3.265-5.837-2.188-11.062-5.425-15.715-9.703-4.384-4.075-7.83-8.806-10.32-14.207-2.49-5.41-3.725-10.925-3.725-16.545M643.636 109.235h-16.304v-9.347c-3.378 3.788-7.165 6.6-11.374 8.446-4.207 1.827-8.892 2.742-14.114 2.742-11.893 0-21.108-3.235-27.622-9.73-6.526-6.506-9.786-15.647-9.786-27.43V26.178h16.975v43.434c0 8.95 1.803 15.66 5.41 20.13 3.61 4.486 9.014 6.72 16.226 6.72 4.47 0 8.438-.92 11.936-2.75 3.48-1.845 6.267-4.464 8.315-7.878 1.27-2.12 2.16-4.637 2.705-7.552.54-2.923.805-7.62.805-14.1V26.178h16.83v83.055zM728.664 59.806c-2.106-6.796-5.766-12.066-10.97-15.778-5.185-3.715-11.422-5.59-18.654-5.59-7.427 0-13.867 1.918-19.32 5.736-5.455 3.824-9.205 9.04-11.256 15.632h60.2zm-60.712 13.457c1.42 6.955 4.986 12.586 10.653 16.887 5.688 4.32 12.43 6.485 20.243 6.485 5.6 0 10.69-1.204 15.284-3.562 4.59-2.36 8.257-5.723 11.008-10.072h19.172c-4.35 9.216-10.427 16.244-18.225 21.106-7.815 4.892-16.88 7.32-27.24 7.32-6.973 0-13.352-1.073-19.128-3.243-5.776-2.157-11.01-5.41-15.695-9.727-4.397-4.078-7.838-8.806-10.34-14.207-2.48-5.41-3.715-10.927-3.715-16.552 0-5.837 1.125-11.287 3.378-16.377 2.267-5.064 5.594-9.676 9.994-13.86 4.7-4.51 9.977-7.922 15.885-10.21 5.883-2.285 12.32-3.446 19.293-3.446 8.288 0 15.995 1.71 23.123 5.09 7.13 3.4 12.986 8.13 17.61 14.206 2.75 3.78 4.79 7.9 6.107 12.408 1.31 4.486 1.968 9.622 1.968 15.405v2.35h-79.376zM41.517 54.927c0-7.074 5.75-12.81 12.826-12.81 7.07 0 12.813 5.736 12.813 12.81 0 7.083-5.742 12.836-12.813 12.836-7.075 0-12.826-5.753-12.826-12.836m-3.168 0c0 8.823 7.18 15.995 15.993 15.995 8.81 0 15.98-7.172 15.98-15.995 0-8.82-7.17-15.994-15.98-15.994-8.814 0-15.994 7.174-15.994 15.994" fill="#f7941e"/><path d="M27.112 54.927c0-15.03 12.215-27.226 27.215-27.226 15.027 0 27.242 12.197 27.242 27.227 0 15.03-12.216 27.24-27.243 27.24-15 0-27.215-12.21-27.215-27.24m-3.175 0c0 16.77 13.63 30.408 30.39 30.408 16.766 0 30.42-13.638 30.42-30.408 0-16.75-13.654-30.39-30.42-30.39-16.76 0-30.39 13.64-30.39 30.39" fill="#f7941e"/><path d="M12.3 54.927c0-23.167 18.87-42.03 42.042-42.03 23.17 0 42.028 18.863 42.028 42.03 0 23.183-18.857 42.05-42.028 42.05-23.17 0-42.04-18.867-42.04-42.05m-2.372 0c0 24.49 19.909 44.41 44.412 44.41 24.48 0 44.398-19.92 44.398-44.41 0-24.48-19.92-44.41-44.398-44.41-24.503 0-44.412 19.93-44.412 44.41" fill="#f7941e"/><path d="M57.87 110.064V.404H51.8v109.66h6.07z" fill="#f7941e"/><path d="M109.665 58.258V52.18H0v6.078h109.665zM519.504 90.84c-6.244 5.783-13.714 8.672-22.408 8.672-8.907 0-16.517-2.758-22.827-8.295-6.3-5.518-9.455-12.274-9.455-20.265 0-8.406 3.134-15.423 9.41-21.11 6.294-5.668 13.964-8.51 23.04-8.51 8.354 0 15.693 2.842 22.065 8.556 6.38 5.706 9.56 12.37 9.56 20 0 8.203-3.14 15.178-9.386 20.953m25.85-61.96H528.2V39.13c-4.337-3.895-9.19-6.87-14.54-8.885-5.34-2.025-11.044-3.05-17.1-3.05-14.242 0-26.056 4.164-35.46 12.45-9.425 8.287-14.125 18.694-14.125 31.212 0 5.79 1.183 11.286 3.57 16.5 2.356 5.237 5.76 9.896 10.146 13.956 4.758 4.38 9.94 7.597 15.586 9.7 5.627 2.083 12.04 3.125 19.254 3.125 6.46 0 12.408-1.02 17.835-3.064 5.435-2.052 10.374-5.123 14.834-9.202v25.22c1.18 4.678 5.55 6.032 7.426 6.373h9.728V28.88zM134.53 51.087v-32.8h39.242c1.953-.382 6.234-1.8 7.34-6.536V3.668h-64.75V113.47h64.75V98.346h-46.58v-32.96h40.206V51.087H134.53z" fill="#f7941e"/></svg>