<svg xmlns="http://www.w3.org/2000/svg" width="400" height="242.502"><path d="M315.93 114.94c-5.838 0-10.817-4.264-11.706-10.052l-5.108-33.282c-1.86-13.51-3.048-22.928-3.66-28.968-.35-4.25-.508-7.26-.508-9.43 0-.873.066-1.894.41-4.406.48-6.138 2.424-11.108 5.787-14.78 2.38-2.602 6.616-5.83 13.418-6.737 2.307-.496 3.782-.694 5.136-.694 6.603 0 12.47 2.562 16.975 7.417 4.335 4.687 6.52 10.84 6.52 18.307 0 4.51-.485 11.68-1.487 21.912-.016.14-.03.275-.047.416l-3.854 28.9c-.99 8.74-2.147 15.988-3.51 21.93-1.14 4.964-5.326 8.65-10.4 9.143-1.012.1-2.917.24-7.755.325h-.21z" fill="#fff"/><path d="M320.055 150.952c-6.99 0-13.205-2.547-17.973-7.382-4.725-4.774-7.225-10.783-7.225-17.37 0-6.612 2.482-12.464 7.188-16.927 5.447-5.142 11.406-7.733 17.747-7.733 6.668 0 12.69 2.502 17.425 7.232 4.73 4.734 7.232 10.79 7.232 17.514 0 6.708-2.372 12.705-6.852 17.36-4.62 4.788-10.68 7.306-17.543 7.306" fill="#fff"/><path d="M241.574 203.46c0 15.013-12.627 27.19-28.218 27.19-15.585 0-28.22-12.177-28.22-27.19 0-15.023 12.635-27.187 28.22-27.187 15.59 0 28.218 12.164 28.218 27.186" fill="#ed1c24"/><path d="M192.467 125.198c0 3.897-3.158 7.06-7.06 7.06-3.9 0-7.063-3.163-7.063-7.06 0-3.904 3.164-7.06 7.063-7.06 3.902 0 7.06 3.156 7.06 7.06M139.624 175.137c0 19.24-6.658 35.262-19.96 48.106-13.308 12.83-29.924 19.26-49.853 19.26-19.93 0-36.552-6.43-49.852-19.26C6.648 210.4 0 194.376 0 175.137c0-19.452 6.618-35.602 19.864-48.434 13.248-12.84 29.892-19.267 49.947-19.267 20.048 0 36.692 6.428 49.945 19.267 13.246 12.832 19.87 28.982 19.87 48.434m-26.556.1c0-18.202-3.868-32.875-11.61-44.03-7.73-11.158-18.288-16.736-31.65-16.736-13.367 0-23.918 5.464-31.656 16.38-7.735 10.928-11.604 25.712-11.604 44.386 0 18.32 3.843 32.93 11.515 43.855 7.68 10.91 18.262 16.37 31.746 16.37 13.482 0 24.06-5.515 31.742-16.552 7.68-11.035 11.517-25.602 11.517-43.672"/><path d="M102.33 143.9c0 3.893-3.16 7.05-7.06 7.05-3.9 0-7.06-3.157-7.06-7.05 0-3.904 3.16-7.067 7.06-7.067 3.9 0 7.06 3.163 7.06 7.067M63.873 143.895c0 3.897-3.158 7.06-7.062 7.06-3.894 0-7.057-3.163-7.057-7.06 0-3.902 3.163-7.06 7.058-7.06 3.905 0 7.063 3.158 7.063 7.06M399.552 67.634c4.513 41.62-25.572 79.028-67.186 83.544-41.624 4.513-79.028-25.572-83.548-67.19-4.516-41.622 25.57-79.024 67.193-83.54 41.617-4.513 79.022 25.565 83.542 67.186"/><path d="M264.08 121.466s-3.688 28.878-15.195 29.306c0 0 22.36 3.04 40.38-9.98l-25.185-19.326z"/><path d="M306.706 126.2c0-3.344 1.166-6.12 3.495-8.332 3.164-2.985 6.36-4.478 9.587-4.478 3.52 0 6.536 1.254 9.045 3.763 2.507 2.507 3.76 5.553 3.76 9.137 0 3.643-1.178 6.69-3.534 9.135-2.364 2.448-5.365 3.673-9.005 3.673-3.822 0-7.002-1.284-9.537-3.852-2.543-2.568-3.81-5.583-3.81-9.045m16.035-23.38c-1.253.12-3.522.21-6.808.27l-5.103-33.285c-1.794-13.003-2.988-22.458-3.586-28.364-.298-3.698-.45-6.44-.45-8.232 0-.417.12-1.49.36-3.22.24-3.58 1.15-6.235 2.734-7.964 1.58-1.728 3.807-2.744 6.672-3.043 1.61-.356 2.658-.535 3.135-.535 3.28 0 6.044 1.21 8.288 3.624 2.24 2.414 3.356 5.832 3.356 10.24 0 4.12-.48 11.04-1.433 20.764l-3.852 28.897c-3.11 20.996-2.06 15.364-3.314 20.85" fill="#fff"/><path d="M264.79 172.42l4.12 8.368c-2.607 12.246-6.58 22.05-11.923 29.373-5.352 7.327-13.07 13.468-23.168 18.44-17.894 8.786-35.406 10.44-52.537 4.938-17.133-5.49-29.937-16.863-38.42-34.116-8.533-17.366-10.165-34.718-4.913-52.06 5.263-17.346 15.943-29.97 32.04-37.873 13.254-6.528 27.03-7.74 41.317-3.66 14.28 4.082 24.474 12.335 30.577 24.753l1.157 2.363-84.114 41.337.776 1.587c6.207 12.623 13.512 22.644 21.93 30.07 8.416 7.424 17.598 11.96 27.554 13.602 9.943 1.637 18.923.487 26.914-3.438 7.47-3.66 13.107-8.36 16.896-14.078 3.78-5.71 7.717-15.584 11.795-29.606m-108.583-3.662l62.344-30.635-1.086-2.21c-5.016-10.203-11.917-16.866-20.696-19.992-8.787-3.136-17.552-2.546-26.282 1.737-9.262 4.558-15.154 11.366-17.68 20.45-2.53 9.08-1.387 19.292 3.4 30.65"/></svg>