<svg xmlns="http://www.w3.org/2000/svg" width="450" height="161.905"><path d="M0 161.905h450V0H0v161.905z" fill="#020e14"/><path d="M281.834 33.795c.16-.56 1.608-.245 1.83 0-.164.56-1.608.244-1.83 0" fill="#231f20" fill-rule="evenodd"/><path d="M81.414 36.147c-1.207.737-2.64-.238-2.613-1.568 1.206-.738 2.637.236 2.614 1.567" fill="#fff" fill-rule="evenodd"/><path d="M284.446 38.236c-1.314-.182-1.82.445-3.136.263-.046-.94 2.932-1.282 3.136-.264M311.36 45.554c.63-.7 2.146-.075 1.83 1.044-.68-.276-1.59-.327-1.83-1.044M67.042 51.04c-.437 6.437 4.813 16.844-4.18 16.725-.488-6.047-.652-12.415-1.307-18.294 2.482-.127 4.308.395 5.487 1.57M385.57 52.607c.46.24.907.486.785 1.308-1.442-.225-.916 1.52-2.09 1.568-.257-1.242-.004-1.375-.26-2.613.48 1.086 1.213.683 1.566-.263M55.02 53.13c.546-.776-.157 1.882 1.047 1.31-.385 1.007-1.047 1.737-2.613 1.566-.087-.96.29-1.454.522-2.09.823.353.898.08 1.045-.786M277.128 62.276c.935.288 1.33 1.112 2.352 1.307.156 1.548-.016 2.768-1.043 3.135-1.145-.862-2.7-2.693-4.704-1.83-.764-.447.594-.95.26-1.826.807.5 1.316 1.3 2.615 1.304.812-.057.44-1.3.52-2.09M381.39 64.366c1.132-.352 1.59-.188 1.57-1.305 1.09 1.283-1 1.604-.785 2.876-.634-.153-.58-.987-.784-1.57M392.63 63.583c.836-.907 1.15.924 1.304 1.567-.9-.06-.84-1.077-1.305-1.567M353.695 64.106c.32 1.332.846 2.463 1.565 3.396-1.246 1.06-1.295-1.31-1.565-2.09-.502-.28-1.864.327-1.83-1.045.337-.36 1.133-.26 1.83-.26M387.663 65.15c.418.37.665.9.782 1.568-.37-.02-.738-.043-.782.262-.32-.552-.984-.76-1.046-1.568.415-.023.998.125 1.046-.262M344.81 66.98h1.566c.35 1.133.817 2.142 2.615 1.83.19.626.74 1.58.263 2.09-2.174-.466-3.143-.84-5.75-.525.897-.665 1.06-2.07 1.306-3.395M323.906 69.07c-.5.895-1.61 1.18-2.356 1.83-.63-.15-.58-.987-.78-1.568 1.31.184 1.82-.443 3.136-.26M358.134 70.636c.305.396.754.642.784 1.31-1.235-.107-1.717.553-2.35-.262.4-.47 1.53-.212 1.566-1.048M143.864 70.9h3.66c-.11.628.477.567.26 1.308-1.544-.44-2.176.066-3.136.783-.325-.63-.645-1.268-.784-2.09M384.525 71.16c.524.524.462 1.63 1.046 2.092.214-.052.263-.264.525-.262.388-.116-.103-.336 0-.78 1.978-.055.87.964.522 1.825-.775-.344-1.29-.23-1.568.523-.346-1.283-.992-1.815-.525-3.398M333.05 71.684c-.04.648.135 1.085.52 1.306-.795.956-1.022 2.447-.258 3.657-.936-.02-1.512-.406-2.354-.52.992 1.722.247 3.596-1.827 3.656.82-1.99-1.6-4.687-2.612-6.53.554-.792.97.747 1.568.782 1.69-.746 2.597-2.283 4.964-2.35M399.683 72.728c.932.2.463 1.8 1.043 2.352.026.894-1.587.154-1.565 1.046-1.67-.914.046-2.383.523-3.398M151.966 73.252c-.886.942-1.554 2.104-2.876 2.613-.004-.692.146-1.54-.522-1.568 1.35-.13 2.048-.913 3.398-1.045M132.89 83.703c.29.754.47 1.62.523 2.613-1.53-.3-3.364-.295-5.227-.262.565-1.706 2.116-3.503 4.705-2.35M47.705 86.054c-.23.64-1.46.283-1.307 1.308-.603-.354-.864-1.05-2.09-.785.49-.74 2.504-1.02 3.397-.523M146.478 87.362c-.138.21-.273.42-.262.784-.615.005-.768-.45-1.568-.26.252-.535 1.004-.565 1.83-.524M178.096 88.668c-.493.9-2.164.62-3.136 1.046-1.142-2.143 2.132-1.942 3.136-1.046" fill="#231f20" fill-rule="evenodd"/><path d="M66.78 92.588c.403 1.076.943 2.016.783 3.657-1.42-.494-1.79-2.038-2.35-3.396.798.187.768-.452 1.567-.262" fill="#fff" fill-rule="evenodd"/><path d="M105.453 92.85c.276 1.843-1.685 1.448-1.83 2.874-.522-.435-1.213-.7-1.305-1.568.935-.708 1.417-2.1 3.135-1.306" fill="#231f20" fill-rule="evenodd"/><path d="M165.03 92.588c.683-.073 1.125.095 1.047.784-.49.513-1.26.15-1.046-.784" fill="#fff" fill-rule="evenodd"/><path d="M177.313 92.85h.783c.22.303.345.7.262 1.306-.576-.207-1.045-.527-1.045-1.306" fill="#231f20" fill-rule="evenodd"/><path d="M385.31 94.156c.53 1.735.146 4.384.26 6.53-1.897.077-3.81.626-6.53.523.348-2.566.307-4.55.52-6.794 2.134-.244 3.725.298 5.75-.26" fill="#fff" fill-rule="evenodd"/><path d="M183.584 94.416c1.09-.22 1.233.507 2.09.523.16.624-.33 1.893.26 2.09-.523.96-.78.998-2.09.782.283-.75.425-1.24-.783-1.044.528-.816-.298-1.63.524-2.352" fill="#231f20" fill-rule="evenodd"/><path d="M171.04 95.985c.46.063.596.45.523 1.045h-.785c-.11-.547.182-.692.262-1.045" fill="#fff" fill-rule="evenodd"/><path d="M158.76 97.812c-2.68 1.21-4.923 1.234-8.624.785 2.04-1.032 5.847-1.322 8.623-.785M102.84 99.643c-.128.915-1.345.745-1.568 1.567.223.387.658.563 1.308.523-.126 1.616-1.32 2.166-1.046 4.18.218 1.266 1.928 1.034 1.83 2.615-2.628.235-3.13-1.7-2.614-3.92-.39-1.528-2.21-1.624-2.352-3.398 1.315.716 2.368-.182 2.613-1.306.85.15 1.217-.178 1.83-.26M319.724 102.778c.806.742-.456 1.622-.26 2.614-.618-.083-.587-.808-1.05-1.046.197-.76 1.412-.505 1.31-1.568" fill="#231f20" fill-rule="evenodd"/><path d="M63.905 103.822c.065 1.723-.03 3.28-.522 4.444-1.798-.697-2.19-4.41.522-4.444" fill="#fff" fill-rule="evenodd"/><path d="M384.525 105.654c.524.523.462 1.63 1.046 2.088.214-.046.263-.26.525-.26.388-.114-.103-.333 0-.785 1.978-.05.87.97.522 1.83-.775-.344-1.29-.23-1.568.524-.346-1.284-.992-1.814-.525-3.396" fill="#231f20" fill-rule="evenodd"/><path d="M347.682 106.437c-.034 1.01-1.02 1.072-2.09 1.045-.002-.518-.713-.33-.52-1.045.472-.4 2.136-.4 2.61 0" fill="#fff" fill-rule="evenodd"/><path d="M399.683 107.22c.932.202.463 1.802 1.043 2.35.026.896-1.587.153-1.565 1.048-1.67-.915.046-2.38.523-3.398M365.713 111.402c-.212.275-1.89 1.1-1.83 0 .596-.13 1.337-.52 1.83 0M277.912 112.968c.493 2.064-2.183 3.212-2.086 5.75-.47.033-.555-.32-1.048-.262.532-2.02.26-4.31-1.83-4.44 1.43-1.252 3.64.078 4.964-1.048" fill="#231f20" fill-rule="evenodd"/><path d="M192.206 113.492c-.095.95-.617 1.473-1.568 1.568-1.01-1.094.475-2.577 1.568-1.568" fill="#fff" fill-rule="evenodd"/><path d="M53.192 116.366h1.83c-.102.768-1.232.512-1.568 1.046-.355-.08-.217-.656-.262-1.046" fill="#231f20" fill-rule="evenodd"/><path d="M294.9 117.15c-.117.754-.55 1.192-1.308 1.307-.115-.233-.23-.468-.525-.52.392-.49 1.174-1.365 1.832-.786" fill="#fff" fill-rule="evenodd"/><path d="M173.393 117.15c.62.163 1.216.35 1.307 1.045h-1.568c-.11-.545.178-.692.26-1.044M57.113 121.593c-2.335.726-3.064-2.307-5.487-2.352 1.33-1.985 4.993.292 5.487 2.353" fill="#231f20" fill-rule="evenodd"/><path d="M347.423 124.208c1.124-.08 2.107-.02 2.088 1.043-.77.584-2.382.258-2.087-1.042M353.953 128.385c.685-.072 1.125.095 1.047.785-.682.072-1.308.087-1.047-.785M328.87 129.17c.458.064.593.45.518 1.045h-1.04c-.193-.713.517-.525.522-1.045M351.342 133.35c.85-.067 1.255.31 1.307 1.046-.337.357-1.233.357-1.57 0-.11-.548.178-.69.262-1.045M326.256 134.396c.076.684-.093 1.123-.786 1.047-.072-.684.096-1.128.786-1.047" fill="#fff" fill-rule="evenodd"/><path d="M382.697 33.795c-1.372.152-1.978-.46-3.396-.262-.464.495-.19 1.727-.26 2.613 1.67-1.196 2.607-.25 3.657-2.35" fill="#231f20" fill-rule="evenodd"/><path d="M381.65 38.76c.443.9 1.45-.287 1.833.783-1.106-.236-.27 1.477-1.308 1.306-.477-1.705-2-2.355-3.135-3.4-.057 1.8.122 3.363.52 4.706 9.767-.037 20.577.24 30.314-.783-.028-1.627-.436-2.878-.264-4.704-2.697-2.615-4.728-5.9-5.745-10.192-1.116.106-2.695-.254-3.4.262-.055 2.032.26 4.44-.52 5.748-4.574 1.6-11.734.34-15.94 1.045.22.65.34 1.402.258 2.35-1.18-1.046-1.552.923-2.872-.52-.133 1.604.88 1.963.26 3.397M288.887 62.016c.98-3.232-1.36-8.14.523-10.712.065-.698-1.726-.864-1.044-1.31 4.782-.18 9.086-.844 13.327-1.566.18-6.275-.25-11.946-.263-18.03-3.083-1.177-8.19-.214-12.805 0-7.55.35-15.81 1.033-22.207 1.828.208 16.318 1.917 32.014 1.566 48.08.31.822.882 1.385 1.047 2.35.784 6.26.122 14.473 0 20.908-1.073.254-1.675-.647-2.352 0 .59 1.59 2.42 1.932 3.136 3.394.923 4.828-1.718 12.065.26 16.988 3.598-.324 8.45.607 9.67-2.093.19-1.235-.373-1.72-.784-2.35 1.546.06 1.868-2.477 3.395-1.567-.055 1.077-2.054.208-1.827 1.566v1.57c1.6 1.324 4.48 1.562 6.008 0-.03-.752-1.79.222-1.828-.524.2-1.63.186-2.586 2.09-2.874-.416 1.898.883 2.078 1.827 2.612-.764.02-1.47.096-1.305 1.044 3.16.55 4.063-1.163 4.966-2.873-3.462-3.316-1.69-10.87-2.09-18.553-.317-6.023-1.515-10.29-.786-15.416 3.994-.537 9.16.103 12.283-1.307-.188-5.954-.96-12.275-.263-18.292-4.46-.015-7.903.978-12.282 1.047-.096-1.036.24-2.505-.26-3.135-1.635.023-3.05 1.65-3.92 1.566.446-1.646 3.35-.834 3.92-2.35M325.208 33.27c-5.56-1.916-12.56.678-18.813-.52-1.604 30.638-2.3 60.58-3.92 91.196 6.046.23 13.525.405 19.075.262.196-1.59.013-2.8-1.304-2.877.44-.43 1.534-.206 1.304-1.305 1.28-15.71.848-33.125 1.83-49.127 1.683 14.436 3.784 28.447 4.182 44.162.586 1.067 1.737 1.57 2.61 2.352-2.494.313-1.998 4.935-1.564 7.315 4.873-.004 9.487-.266 13.587-1.042-.187-3.242 1.35-7.004 1.307-10.455-.036-2.825-1.203-5.163 1.045-6.272 1.65-11.414 2.53-23.598 5.75-33.445-1.545 10.046.466 21.01-1.306 30.57-.63 3.396-1.878 6.034-1.567 9.41.273 3.01 1.555 5.924 1.044 9.143 1.456.984 2.482 2.397 4.18 3.137.114-.847-.344-2.26.524-2.35 4.197.154 9.036-.327 12.804.262.43-7.76 1.036-14.968.784-21.168-.34-8.326 2.392-16.296 1.568-25.87 1.05-.428 2.774-.186 2.874-1.567-.874-.52-2.965.177-3.136-1.045.824-3.355 1.466-6.895 1.568-10.973.42-1.03-1.128-.092-1.046-.787.855-.752 1.097-1.54 1.308-2.61 1.514-7.752 1.035-16.887 2.09-25.348-9.488-.094-18.575-.585-28.22-.522-.765 3.312-1.005 6.463-1.307 9.666-.31 3.32-1.364 6.312-1.828 9.41-.262 1.722-.024 3.495-.525 5.224-.897 3.097-2.302 5.56-2.615 8.886-.145 1.57.666 3.416-1.043 4.704-.82-3.847.234-7.2 0-10.714-.356-5.273-2.13-10.276-2.093-15.155.01-1.033.825-2.238.787-3.396-.103-3.21-.96-6.504-1.308-9.67-2.157.394-4.603.27-6.794 0 .707 1.218.077 1.505-.78 2.35-.98.02-.276-1.64-1.05-1.83M56.85 98.336c1.32.78 3.15.093 3.136-1.307.63 1.167 3.218 1.287 4.705.782v-4.7c-1.58-.45-5.04-2.098-2.614-3.398.365 1.536 2.422 2.397 3.92 1.306-.816-2.93-3.43-5.455-2.874-8.884 5.132-.014 3.824 3.672 4.703 8.36.12.633.762 1.284.784 1.83.053 1.32-1.156 3.23-.523 4.443h1.83c-.394.74-1.058 1.205-1.046 2.35 1.422 1.34.244 3.267 0 4.964-.464 3.235.676 6.78.785 9.93.567.565 1.364.9 2.09 1.308-1.2.14-1.082 1.013-2.353.52-.003 2.524-.763 4.288-.52 7.057 2.42.165 5.097.383 6.27-.524v.785c4.148-1.858 8.37-2.69 13.85-1.567-1.973-6.767-1.665-17.21-.784-25.086.754 4 .708 9.77 1.305 12.283 3.267 6.226 8.43 10.556 16.202 12.28.505-.103.022-1.196 1.045-.784-.083.352-.37.5-.262 1.045 6.617 1.122 14.25 1.2 18.815-1.306 4.932-2.71 10.663-10.406 11.496-17.246.435-3.566.143-8.685 1.307-11.497-.692-.964-2.38-.93-2.092-2.873 1.342-.21 1.985.28 2.876.522.193-1.288.546-2.417.784-3.66.01-.79-1.315-.25-1.306-1.043 2.352.08 2.342-3.275 1.83-5.227-.573-.564-1.973-.294-2.615-.783.222-1.53-.827-1.787-.523-3.398-.727-.232-1.588-.326-2.09-.784.88-1.58 4.997-2.84 6.794-1.045.898 8.857.53 18.98 1.046 28.22.81.522 3.06-1.052 3.135.784-1.13.004-1.657.608-2.874.524 1.16 6.415 3.195 11.963 6.794 15.938 8.053 2.84 19.483 5.03 29.006 2.092.002-1.057-1.31-2.16-1.045-2.612 1.033-.486 2.12 1.438 3.134 1.304 1.486-.195 3.956-3.497 5.226-4.964 1.6-1.85 3.65-3.71 4.442-5.748 2.337-6.005 1.98-13.26 1.57-19.86 1.188-.29 2.442-.516 2.35-2.09-.954-.07-2.075 1.04-2.612.523v-2.61c-1.82-.04-2.9-.51-3.92.52-4.143-3.616-11.78.73-17.508.52-.652 2.99-.012 6.753.26 9.67 2.002.517 3.275-1.072 4.182-.784-.262 1.828-2.246 1.936-3.136 3.134-.21.91.39 1.006.262 1.833-.533-.15-.513-.787-1.046-.262-.138 3.298.203 7.066-2.09 7.576-3.67.82-4.757-4.835-4.964-8.884-1.226-.167-3.13.342-3.92-.262.678-1.846 1.26-3.79 3.92-3.656-.374-6.348-.49-12.798-.785-19.075-.376-8.12-1.95-17.256-1.303-22.474.413-3.36 1.998-5.577 5.225-4.703 2.752 5.52 1.632 14.918 2.613 22.212h3.658c-.163 2.353-3.03 1.75-3.92 2.09.138 1.754 2.195 1.344 3.135 1.307 3.512-.134 8.423-2.42 11.236-3.138-1.858-.5-6.334.577-5.226-2.61 2.038.85 3.622 2.598 6.533 1.83 1.5 1.197 3.284 2.114 6.272 1.826-.38-10.625-1.42-22.772-5.487-30.573-4.407-4.827-12.557-9.196-21.427-7.055-2.724-.812-5.84-1.82-8.623-.78-.974.36-2.077 1.882-3.396 2.873-3.445 2.576-8.02 5.19-8.626 9.405 1.768.2 2.503-.632 3.92-.783-.04.647.41.807.522 1.307-.684 1.11-2.184 2.32-3.918 1.566-.224 1.43-1.82 1.49-2.614 2.35-.146.995-.626 3.024 0 3.922 1.808-.458 3.87-.66 4.965-1.83-1.474 1.576-2.737 3.36-4.966 4.182-3.163-8.364-10.853-13.49-20.644-14.37-1.684-1.522-8.315-1.525-11.234-.525-.858.292-1.233 1.147-2.09 1.57-.657.318-1.62.226-2.092.517-3.895 2.432-8.4 9.344-9.667 13.59-.19.635.134 1.46 0 2.09-.078.366-.638.644-.783 1.047-1.216 3.306-1.68 8.804-2.876 13.588-1.862 7.452-3.43 13.318-3.658 19.86.385-9.534-2.884-15.41-9.668-17.77 1.155-.064 1.903-.536 3.135-.523.357-.905-1.174-1.233-.26-1.83.65.04.807-.41 1.306-.52.007.613-.45.768-.26 1.566 3.51-.845 4.425-5.276 4.7-9.41.556-8.272-.717-19.52-3.657-23.777.665-.15.707-1.616.262-2.09-1.142-.185-.558 1.356-1.306 1.566-3.078-6.343-10.832-5.35-18.815-5.747-7.14-.357-16.115-2.08-24.04-1.31.29 9.51.098 20.46 1.568 29.792 1.633-.016 3.133 1.755 6.273 1.045.816-.9-.684-2.54 1.042-2.353-.666 2.74 2.166 5.45 2.354 7.317-2.136-3.188-8.17-3.326-9.146.524-.25.976.194 2.002.26 3.134.282 4.79.612 11.293.525 15.157.393.505 1.1-.457 1.306.522-1.402.08-1.397 1.566-1.307 3.136 1.847-.07 2.885-.946 3.657-2.092-.067 1.595 1.965 1.11 2.612 1.307-.235.765-.235.803 0 1.568 1.388.53 2.904.93 4.965.786-.69 1.238.57 1.784 1.045 2.614.89-.074 2.12.2 2.614-.262-.577.73-1.196 1.418-1.046 2.874" fill="#231f20" fill-rule="evenodd"/><path d="M226.96 34.316c-3.223 9.93-5.86 20.446-9.406 30.05-.23-9.987.804-20.094 0-29.788-6.98.337-14.21.423-21.166.785-1.497 9.637-.47 20.256-.786 30.31-.143 4.618 1.784 11.143.786 17.508-.25 1.58-1.25 2.582-1.57 3.92-1.12 4.7-.79 10.202-.783 14.633.004 2.79 1.097 6.396.524 8.885-.28 1.2-1.702 1.35-1.83 2.874.877.33 1.38-1.024 1.83-.262.4 3.256.304 7.01 1.042 9.93 6.1-1.13 13.39-1.068 20.12-1.567 1.206-10.408-.242-21.566 1.047-31.356.87 4.434 2.11 7.488 3.135 11.496.876 3.44.758 6.977 1.568 10.45.27 1.157 1.25 2.18 1.567 3.4.5 1.93.09 3.857 1.045 5.488 7.1.04 13.858.426 21.166.26.068-2.58-1.31-5.708-1.567-8.884-.083-1.05.225-2.144 0-3.134-.458-2.026-2.45-3.668-2.35-5.49-1.618.377-3.09 1.635-4.444.262 1.47-.18 2.612-.696 4.442-.52-.81-5.43-2.784-9.93-4.184-15.157-1.12-4.207-4.004-11.092-3.655-15.678.178-2.345 2.015-6.89 2.874-9.148 1.054-2.767 3.084-5.025 3.92-7.838.93-3.143.825-6.506 1.828-9.93 1.13-3.858 3.853-7.37 4.182-11.236-6.236-1.354-13.06.964-19.338-.262M389.49 65.412c.07.804.57 1.177.785 1.828 5.32-.125 12.01.848 16.202-1.566 2.98-3.218 4.115-10.922 2.35-16.463-2.96-3.482-8.718-3.52-15.68-2.874-5.708.53-10.955 1.176-12.8 3.398-4.69 5.647-2.193 20.323 8.62 17.506.842-.453-.5-2.762.524-1.828M384.004 70.375c-5.3 1.032-6.906 8.942-5.487 15.156 1.258 5.51 6.8 5.397 12.803 5.49 2.81.043 6.5.338 8.363-1.57 2.01-2.054 2.42-6.65.52-9.667-.038 1.354.27 3.056-.782 3.398-.298-1.872-.512-3.158 0-4.963 1.016.724 2.99.492 4.705.523-.166 3.493.333 7.652-.26 10.71h5.223c-.113-5.716 1.188-12.39-1.308-16.198.462.23.767.827 1.308.26-.085-.96.226-2.314-.26-2.876-3.138.208-5.17-.51-8.884-.26-.082.79.29 2.03-.523 2.092-.84-.66-.206-1.166 0-2.093-2.146.276-3.983-.707-5.748 0 .272 2.605.313 5.437.26 8.365 1.894-.128 2.813.652 2.613 2.09-.416 3.025-9.513.945-12.802 1.307-.614-.434-.565-1.527-.523-2.617 1.04-.597 2.637-.877 3.92-.52.142-.38-.306-1.35.26-1.305-.043 1.522 1.645 1.315 3.137 1.305-.003-3.042.098-6.197-.26-8.886-2.46.458-4.387-.105-6.273.26M43.002 94.94c1.868 4.71 1.014 9.064 1.045 15.415.083.615.81.583 1.045 1.047-1.95 2.055-.688 7.327-1.045 10.974 6.05.54 12.81.663 19.075.26 1.51-3.57 2.603-9.546.522-13.065-.74-.213-.677.37-1.305.262-.153-1.153-.717-1.895-1.308-2.612-1.01-.048-1.925-.008-2.614.262.252-1.298-.697-1.394-.784-2.35.224-.824 1.44-.654 1.568-1.57-3.628-.288-2.685-5.154-7.056-4.703.097-.862 1.39-.527 1.308-1.57-.293-1.795-1.52-2.663-3.658-2.612-.386-3.57-6.177-1.928-6.794.26" fill="#231f20" fill-rule="evenodd"/><path d="M379.56 94.416c-.212 2.244-.17 4.228-.52 6.794 2.72.102 4.633-.448 6.53-.522-.114-2.148.27-4.798-.26-6.532-2.025.558-3.616.017-5.75.26" fill="#fff" fill-rule="evenodd"/><path d="M384.004 104.87c-5.3 1.03-6.906 8.937-5.487 15.155 1.258 5.51 6.8 5.395 12.803 5.486 2.81.044 6.5.34 8.363-1.565 2.01-2.054 2.42-6.653.52-9.668-.038 1.352.27 3.05-.782 3.397-.298-1.875-.512-3.158 0-4.968 1.016.73 2.99.495 4.705.524-.166 3.493.333 7.654-.26 10.715h5.223c-.113-5.722 1.188-12.395-1.308-16.202.462.23.767.83 1.308.26-.085-.958.226-2.31-.26-2.87-3.138.207-5.17-.518-8.884-.263-.082.788.29 2.03-.523 2.088-.84-.66-.206-1.165 0-2.088-2.146.273-3.983-.71-5.748 0 .272 2.603.313 5.436.26 8.36 1.894-.128 2.813.656 2.613 2.092-.416 3.024-9.513.946-12.802 1.306-.614-.433-.565-1.525-.523-2.614 1.04-.598 2.637-.88 3.92-.522.142-.38-.306-1.352.26-1.308-.043 1.528 1.645 1.32 3.137 1.308-.003-3.045.098-6.196-.26-8.884-2.46.456-4.387-.106-6.273.262M276.085 37.713c-.485-.56-2.365.274-2.352-.782 2.72.095 5.048-1.104 2.352.783" fill="#231f20" fill-rule="evenodd"/><path d="M173.13 118.194h1.57c-.09-.692-.686-.88-1.307-1.044-.083.353-.372.5-.262 1.044m4.705-12.018c1.92-.666 2.896-1.226 5.487-.784-.615-1.757.207-3.374.784-4.704-.848-.152-1.216.177-1.83.26.04 2.17-1.957 3.566-3.658 3.136.002-.144-.212-.296-.26 0 .738.588-.43 1.47-.523 2.092m-76.824-6.272c-.244 1.125-1.297 2.02-2.612 1.306.14 1.774 1.963 1.87 2.352 3.398-.515 2.222-.014 4.155 2.613 3.92.1-1.58-1.612-1.35-1.83-2.613-.273-2.017.92-2.565 1.046-4.18-.65.038-1.085-.138-1.308-.525.223-.823 1.44-.652 1.57-1.567-.615.084-.98.41-1.83.26m49.124-1.305c3.7.448 5.944.425 8.622-.786-2.774-.537-6.583-.247-8.622.786m-59.838 3.136c1.382-2.267 4.926-2.986 7.578-1.31.78-2.56-.885-2.762-.783-5.225-1.875-.99-3.79.38-5.227 1.308 1.454 2.122-.476 4.065-1.568 5.226m92.762-4.965c1.21-.197 1.068.292.784 1.042 1.31.217 1.567.178 2.09-.782-.59-.197-.1-1.466-.26-2.09-.857-.017-1-.744-2.09-.524-.822.72.004 1.537-.524 2.353M75.664 95.723c.823.128 1.023-.57 1.568 0v2.612c-.44.43-1.533.207-1.306 1.307 1.532-.124 2.8-.51 4.183-.783.39.827 1.41 1.025 1.304 2.35.777-.09 1.59-.15 1.83-.785-.938-.628-1.656-1.478-1.57-3.135.72-.5 1.85-.59 2.09-1.566-.795.013-1.014-.552-1.567-.784-1.26 3.04-5.83 1.3-4.18-1.567-.482 1.088-1.835 1.298-2.353 2.35m102.693-1.567c.083-.605-.042-1.004-.26-1.306h-.785c0 .78.47 1.1 1.045 1.306m-76.04 0c.093.867.783 1.133 1.307 1.568.144-1.426 2.105-1.03 1.83-2.874-1.72-.794-2.2.597-3.136 1.306m72.642-4.442c.972-.424 2.643-.145 3.136-1.046-1.004-.895-4.28-1.097-3.136 1.046m-30.312-1.83c.8-.188.953.267 1.568.263-.01-.363.123-.576.262-.784-.826-.042-1.577-.012-1.83.522m-100.34-1.308c1.226-.264 1.487.43 2.09.786-.152-1.025 1.076-.668 1.307-1.31-.893-.496-2.907-.215-3.397.524m83.878-.523c1.864-.033 3.697-.037 5.227.262-.052-.993-.232-1.858-.522-2.613-2.588-1.152-4.138.645-4.704 2.35m20.38-11.757c.67.03.52.877.524 1.57 1.32-.51 1.99-1.67 2.876-2.614-1.35.132-2.047.915-3.4 1.044m-3.918-1.305c.96-.716 1.592-1.222 3.136-.782.218-.74-.368-.68-.26-1.31h-3.66c.14.825.46 1.462.784 2.093m-22.21 5.227c.652-1.71 3.41-.82 5.226-.784.666-.818.724-2.24.784-3.66-2.86.19-4.3 1.797-6.534 2.615-1.14-.34-1.536-1.424-2.35-2.092.24-1.24.39-2.57.782-3.66.86-.18 1.673-.417 2.614-.522-.053-1.164-1.905-.53-2.09-1.566.722-3.193 4.294-13.48-1.307-12.543-2.205.372-4.392 7.476-4.442 11.497-.033 2.862-.493 3.523-1.043 5.75-2.556 10.336-3.63 23.08-4.443 32.924 2.645 1.252 4.528-.533 5.226-2.612 2.383-7.097 2.067-22.21 4.703-27.96.844.988 2.854.803 2.875 2.613M53.976 53.915c-.233.637-.608 1.132-.52 2.09 1.564.172 2.226-.557 2.61-1.566-1.203.57-.5-2.086-1.044-1.31-.148.865-.224 1.14-1.046.785m7.578-4.444c.656 5.88.82 12.248 1.308 18.295 8.993.12 3.743-10.288 4.18-16.724-1.178-1.175-3.005-1.697-5.488-1.57m-3.658 45.992c-.495.463-1.726.19-2.613.262-.476-.83-1.735-1.376-1.046-2.613-2.06.145-3.577-.255-4.965-.784-.235-.765-.235-.804 0-1.568-.647-.196-2.678.287-2.612-1.307-.772 1.148-1.81 2.024-3.658 2.093-.09-1.57-.095-3.056 1.306-3.136-.206-.98-.912-.017-1.306-.522.088-3.864-.242-10.366-.523-15.157-.068-1.132-.51-2.157-.263-3.135.978-3.85 7.012-3.71 9.146-.522-.188-1.867-3.02-4.576-2.352-7.316-1.726-.186-.226 1.454-1.043 2.353-3.138.71-4.638-1.06-6.272-1.045-1.47-9.33-1.277-20.283-1.57-29.79 7.927-.77 16.9.95 24.043 1.306 7.982.398 15.735-.595 18.814 5.75.748-.212.163-1.752 1.306-1.567.445.474.402 1.94-.262 2.09 2.94 4.257 4.213 15.504 3.658 23.776-.276 4.134-1.19 8.565-4.702 9.41-.19-.798.267-.953.26-1.567-.498.11-.655.56-1.306.52-.912.596.617.925.26 1.828-1.23-.012-1.978.46-3.134.524 6.785 2.36 10.053 8.236 9.668 17.77.23-6.542 1.796-12.408 3.658-19.86 1.195-4.784 1.66-10.282 2.875-13.588.146-.403.706-.68.784-1.047.134-.63-.19-1.454 0-2.09 1.268-4.246 5.772-11.157 9.667-13.59.47-.29 1.436-.2 2.09-.518.86-.422 1.234-1.278 2.09-1.57 2.92-1.002 9.552-1 11.237.523 9.792.88 17.48 6.007 20.644 14.37 2.23-.822 3.49-2.605 4.965-4.18-1.097 1.168-3.158 1.37-4.966 1.83-.625-.9-.147-2.927 0-3.922.793-.858 2.39-.92 2.614-2.348 1.735.753 3.234-.457 3.918-1.568-.11-.5-.56-.66-.522-1.307-1.416.15-2.152.982-3.92.784.607-4.215 5.18-6.83 8.625-9.405 1.318-.99 2.422-2.514 3.395-2.874 2.784-1.04 5.9-.03 8.622.783 8.87-2.143 17.02 2.227 21.428 7.055 4.068 7.8 5.106 19.95 5.488 30.572-2.99.288-4.773-.63-6.272-1.828-2.91.77-4.495-.978-6.532-1.83-1.11 3.188 3.367 2.113 5.226 2.612-2.813.72-7.724 3.004-11.235 3.138-.942.037-3 .447-3.138-1.306.89-.342 3.758.262 3.92-2.092h-3.657c-.982-7.294.14-16.69-2.613-22.21-3.227-.875-4.812 1.342-5.225 4.702-.646 5.218.927 14.354 1.305 22.472.292 6.278.41 12.727.783 19.078-2.66-.136-3.24 1.81-3.92 3.654.792.604 2.695.095 3.92.262.208 4.05 1.294 9.705 4.965 8.884 2.293-.51 1.953-4.277 2.09-7.574.534-.526.513.112 1.046.26.127-.826-.47-.923-.263-1.832.89-1.198 2.874-1.306 3.137-3.134-.907-.288-2.18 1.3-4.18.783-.275-2.915-.913-6.68-.262-9.668 5.73.206 13.365-4.138 17.508-.523 1.02-1.03 2.1-.56 3.92-.52v2.61c.537.52 1.658-.59 2.613-.523.09 1.574-1.164 1.8-2.354 2.09.413 6.6.77 13.856-1.57 19.86-.79 2.038-2.84 3.9-4.44 5.75-1.27 1.467-3.74 4.77-5.227 4.963-1.014.135-2.103-1.79-3.135-1.304-.265.45 1.046 1.554 1.045 2.612-9.523 2.938-20.954.748-29.005-2.092-3.6-3.975-5.633-9.523-6.794-15.94 1.218.086 1.746-.518 2.876-.522-.075-1.836-2.327-.262-3.136-.784-.515-9.24-.147-19.363-1.046-28.22-1.797-1.793-5.913-.535-6.794 1.045.502.46 1.363.553 2.09.783-.305 1.61.746 1.87.524 3.4.64.487 2.042.218 2.612.782.514 1.952.524 5.307-1.83 5.227-.007.793 1.317.253 1.31 1.042-.24 1.243-.593 2.372-.785 3.66-.89-.244-1.532-.733-2.875-.523-.287 1.942 1.4 1.91 2.09 2.874-1.162 2.813-.87 7.932-1.306 11.498-.833 6.84-6.566 14.535-11.498 17.246-4.563 2.508-12.197 2.43-18.814 1.307-.11-.543.18-.692.262-1.044-1.022-.412-.54.68-1.046.784-7.77-1.723-12.934-6.054-16.2-12.28-.598-2.513-.552-8.282-1.306-12.282-.88 7.874-1.19 18.318.784 25.084-5.48-1.123-9.702-.29-13.85 1.57v-.785c-1.173.906-3.852.688-6.27.522-.242-2.77.518-4.534.52-7.057 1.27.492 1.154-.383 2.352-.52-.724-.41-1.52-.743-2.09-1.308-.11-3.15-1.248-6.695-.783-9.93.245-1.697 1.422-3.626 0-4.963-.01-1.147.653-1.61 1.046-2.353h-1.83c-.632-1.214.577-3.125.523-4.444-.023-.546-.667-1.197-.785-1.828-.878-4.69.43-8.375-4.703-8.36-.555 3.428 2.058 5.952 2.874 8.882-1.5 1.09-3.554.23-3.92-1.306-2.427 1.3 1.033 2.948 2.614 3.397v4.702c-1.486.505-4.074.385-4.704-.782.014 1.4-1.816 2.086-3.135 1.306-.15-1.456.47-2.144 1.046-2.874M386.617 65.412c.063.808.725 1.016 1.046 1.568.044-.305.412-.282.782-.26-.117-.67-.364-1.2-.782-1.57-.048.387-.632.24-1.046.262m7.316-.262c-.153-.644-.467-2.473-1.304-1.567.464.49.405 1.508 1.303 1.567m4.442-9.406c-5.113.4-12.186-2.165-15.154 1.307 2.12 3.11 9.393.377 13.85 1.568.72.112.243-.975.782-1.045 1.384 1.16 4.858.016 6.794 0 .09-.87.758-1.158.524-2.353-2.122-1.135-4.542.346-6.795.524m-14.37-2.874c.256 1.237.003 1.37.26 2.612 1.174-.047.648-1.792 2.09-1.567.123-.822-.326-1.068-.784-1.308-.352.946-1.083 1.35-1.566.263m-1.83 13.066c-.214-1.27 1.876-1.593.785-2.874.02 1.115-.438.952-1.57 1.304.204.583.15 1.417.785 1.57m6.792 1.304c-10.813 2.817-13.31-11.86-8.62-17.506 1.845-2.222 7.092-2.867 12.8-3.398 6.96-.646 12.72-.608 15.68 2.875 1.765 5.542.63 13.246-2.35 16.464-4.194 2.414-10.882 1.44-16.202 1.566-.216-.65-.716-1.024-.784-1.828-1.02-.934.32 1.375-.523 1.828" fill="#fff" fill-rule="evenodd"/><path d="M119.564 75.602c-2.637 5.752-2.32 20.865-4.704 27.962-.698 2.08-2.58 3.864-5.226 2.61.813-9.842 1.887-22.585 4.442-32.922.55-2.227 1.01-2.888 1.046-5.75.05-4.02 2.236-11.125 4.442-11.496 5.6-.937 2.03 9.348 1.306 12.543.185 1.033 2.037.4 2.09 1.564-.942.105-1.753.34-2.613.522-.392 1.09-.543 2.42-.783 3.66.814.67 1.208 1.753 2.35 2.092 2.234-.818 3.676-2.427 6.533-2.615-.06 1.422-.117 2.843-.783 3.66-1.817-.037-4.574-.927-5.225.784-.023-1.81-2.033-1.625-2.876-2.615M319.2 73.773c.208-.49.435-.954.524-1.565.67.196-.19 1.93.784 1.827-.183.652-.698-.486-1.31-.262" fill="#231f20" fill-rule="evenodd"/><path d="M394.718 85.53c-.516-.566.457-2.058-.785-2.35-.155.542.323 1.72-.262 1.83 0-.263-.455-.33-.523 0 .535.077.7.523 1.05.783.06-.49.43.147.52-.262m4.444-9.404c-.02-.893 1.592-.153 1.566-1.046-.58-.553-.112-2.152-1.043-2.35-.478 1.013-2.192 2.482-.522 3.396m-14.11-1.568c.278-.754.792-.867 1.567-.523.348-.86 1.456-1.88-.522-1.827-.102.446.39.666 0 .783-.262 0-.31.21-.524.263-.582-.463-.52-1.568-1.045-2.093-.467 1.583.18 2.115.524 3.398m5.226-4.444c.36 2.69.257 5.844.26 8.887-1.49.01-3.18.217-3.136-1.305-.566-.047-.117.926-.26 1.306-1.283-.356-2.88-.077-3.92.52-.043 1.09-.09 2.183.522 2.616 3.29-.362 12.387 1.72 12.804-1.307.198-1.437-.72-2.217-2.613-2.09.052-2.927.01-5.76-.262-8.365 1.767-.708 3.604.275 5.752 0-.208.927-.842 1.433 0 2.093.81-.06.44-1.303.52-2.093 3.715-.25 5.748.47 8.886.26.486.563.174 1.916.26 2.878-.54.566-.845-.032-1.307-.26 2.496 3.81 1.195 10.48 1.307 16.198h-5.222c.594-3.058.093-7.217.26-10.71-1.713-.03-3.69.202-4.703-.523-.514 1.805-.3 3.09 0 4.964 1.05-.34.743-2.043.78-3.396 1.9 3.017 1.49 7.612-.52 9.667-1.862 1.907-5.55 1.613-8.36 1.57-6.004-.093-11.548.02-12.805-5.49-1.42-6.214.187-14.123 5.487-15.155 1.886-.366 3.813.198 6.272-.26" fill="#fff" fill-rule="evenodd"/><path d="M394.195 85.794c-.348-.26-.513-.707-1.048-.784.068-.33.523-.263.525 0 .584-.112.107-1.288.262-1.83 1.24.293.268 1.784.783 2.352-.09.408-.46-.228-.522.262M78.017 93.373c-1.65 2.87 2.92 4.606 4.18 1.566.553.232.772.796 1.567.784-.24.978-1.37 1.066-2.09 1.566-.086 1.657.632 2.507 1.57 3.136-.24.634-1.053.695-1.83.784.105-1.326-.914-1.522-1.306-2.35-1.383.272-2.65.66-4.182.783-.227-1.1.866-.876 1.307-1.307v-2.612c-.546-.57-.746.128-1.568 0 .517-1.053 1.87-1.262 2.352-2.35M91.866 96.508c1.438-.93 3.35-2.296 5.226-1.308-.1 2.46 1.565 2.665.784 5.226-2.653-1.678-6.195-.96-7.578 1.307 1.092-1.16 3.022-3.103 1.568-5.225M178.358 104.084c.048-.295.262-.144.26 0 1.702.43 3.7-.966 3.658-3.136.615-.083.982-.413 1.83-.26-.577 1.33-1.4 2.948-.783 4.704-2.593-.442-3.568.12-5.488.784.093-.62 1.26-1.504.523-2.092" fill="#231f20" fill-rule="evenodd"/><path d="M394.718 120.025c-.516-.57.457-2.06-.785-2.35-.155.54.323 1.715-.262 1.828 0-.262-.455-.33-.523 0 .535.076.7.522 1.05.783.06-.49.43.148.52-.26m4.444-9.408c-.02-.895 1.592-.152 1.566-1.047-.58-.548-.112-2.15-1.043-2.35-.478 1.017-2.192 2.484-.522 3.398m-14.11-1.567c.278-.753.792-.868 1.567-.522.348-.862 1.456-1.88-.522-1.83-.102.45.39.67 0 .784-.262 0-.31.214-.524.26-.582-.458-.52-1.564-1.045-2.088-.467 1.582.18 2.113.524 3.397m5.226-4.442c.36 2.688.257 5.84.26 8.884-1.49.01-3.18.22-3.136-1.308-.566-.043-.117.93-.26 1.308-1.283-.357-2.88-.076-3.92.522-.043 1.09-.09 2.18.522 2.615 3.29-.362 12.387 1.716 12.804-1.308.198-1.436-.72-2.22-2.613-2.092.052-2.924.01-5.757-.262-8.36 1.767-.71 3.604.273 5.752 0-.208.923-.842 1.43 0 2.088.81-.057.44-1.3.52-2.088 3.715-.255 5.748.47 8.886.262.486.56.174 1.913.26 2.872-.54.568-.845-.03-1.307-.26 2.496 3.805 1.195 10.48 1.307 16.2h-5.222c.594-3.06.093-7.22.26-10.714-1.713-.03-3.69.205-4.703-.524-.514 1.81-.3 3.093 0 4.968 1.05-.346.743-2.045.78-3.397 1.9 3.015 1.49 7.614-.52 9.668-1.862 1.904-5.55 1.61-8.36 1.566-6.004-.09-11.548.026-12.805-5.485-1.42-6.218.187-14.124 5.487-15.155 1.886-.368 3.813.194 6.272-.262" fill="#fff" fill-rule="evenodd"/><path d="M284.186 109.832c1.374.675-.323 1.646-1.046 1.83-.56.392 1.18-.952 1.046-1.83M394.195 120.286c-.348-.26-.513-.707-1.048-.784.068-.33.523-.262.525 0 .584-.113.107-1.287.262-1.828 1.24.29.268 1.782.783 2.35-.09.41-.46-.226-.522.262" fill="#231f20" fill-rule="evenodd"/><path d="M381.39 35.362c1.32 1.444 1.694-.525 2.874.522.082-.95-.038-1.7-.26-2.35 4.207-.706 11.367.555 15.94-1.046.78-1.307.466-3.715.52-5.747.705-.516 2.286-.156 3.402-.262 1.016 4.293 3.047 7.577 5.744 10.19-.172 1.827.236 3.078.263 4.705-9.737 1.023-20.545.747-30.312.783-.398-1.343-.577-2.905-.52-4.705 1.135 1.045 2.658 1.695 3.135 3.398 1.04.172.203-1.54 1.308-1.305-.382-1.07-1.39.117-1.832-.782.62-1.433-.393-1.793-.26-3.398" fill="#fff" fill-rule="evenodd"/><path d="M379.04 36.147c.07-.886-.204-2.118.26-2.614 1.42-.198 2.025.415 3.397.263-1.05 2.1-1.986 1.154-3.657 2.35M272.946 114.014c2.093.13 2.364 2.423 1.832 4.442.492-.06.578.295 1.047.263-.096-2.54 2.58-3.688 2.087-5.752-1.324 1.126-3.535-.204-4.966 1.046m10.194-2.35c.722-.186 2.42-1.157 1.046-1.832.134.878-1.604 2.223-1.046 1.832m-6.532-47.298c-1.3-.004-1.808-.805-2.614-1.304.333.875-1.026 1.38-.262 1.826 2.004-.863 3.56.968 4.705 1.83 1.028-.366 1.2-1.587 1.043-3.135-1.023-.195-1.417-1.02-2.352-1.308-.08.79.293 2.034-.52 2.09M281.31 38.5c1.317.18 1.822-.445 3.136-.264-.205-1.018-3.182-.676-3.136.263m-7.578-1.57c-.012 1.057 1.87.22 2.354.783 2.694-1.887.366-.69-2.354-.782m9.93-3.135c-.22-.245-1.668-.56-1.828 0 .222.244 1.666.56 1.828 0m1.306 30.57c.87.084 2.285-1.542 3.918-1.565.502.63.166 2.1.263 3.135 4.376-.07 7.82-1.062 12.28-1.047-.698 6.017.076 12.338.263 18.293-3.122 1.41-8.29.772-12.282 1.308-.73 5.127.47 9.393.787 15.416.4 7.683-1.373 15.238 2.09 18.552-.904 1.71-1.807 3.424-4.967 2.874-.166-.948.542-1.025 1.305-1.044-.943-.534-2.242-.714-1.827-2.612-1.905.288-1.89 1.243-2.09 2.874.036.746 1.796-.228 1.83.522-1.53 1.564-4.41 1.326-6.01 0v-1.568c-.227-1.358 1.773-.49 1.827-1.566-1.526-.91-1.85 1.627-3.395 1.566.41.632.974 1.116.783 2.35-1.22 2.7-6.072 1.77-9.67 2.094-1.978-4.923.664-12.16-.26-16.988-.714-1.462-2.545-1.805-3.136-3.394.678-.647 1.28.254 2.354 0 .122-6.436.784-14.648 0-20.907-.163-.966-.737-1.528-1.046-2.35.35-16.067-1.358-31.763-1.567-48.08 6.4-.796 14.658-1.478 22.208-1.83 4.616-.213 9.722-1.176 12.805 0 .014 6.085.442 11.757.263 18.03-4.24.723-8.544 1.386-13.327 1.568-.68.445 1.11.61 1.045 1.308-1.882 2.572.456 7.48-.524 10.713-.57 1.516-3.472.703-3.918 2.35M363.884 111.402c-.06 1.1 1.616.275 1.828 0-.492-.52-1.233-.13-1.828 0m-45.47-7.055c.463.237.432.96 1.048 1.045-.194-.992 1.07-1.872.263-2.614.102 1.063-1.113.805-1.31 1.57m2.093-30.313c-.975.104-.114-1.63-.783-1.827-.09.61-.317 1.075-.526 1.565.61-.224 1.125.913 1.308.262m7.578 0c-.598-.035-1.014-1.574-1.568-.783 1.012 1.844 3.43 4.54 2.612 6.53 2.075-.06 2.82-1.933 1.827-3.656.843.115 1.418.5 2.356.52-.765-1.208-.54-2.7.257-3.655-.385-.222-.56-.657-.52-1.307-2.368.068-3.272 1.606-4.964 2.352m28.482-2.352c.634.817 1.114.155 2.35.263-.03-.667-.48-.914-.784-1.31-.034.836-1.166.578-1.566 1.047m-35.798-2.35c.2.58.15 1.416.78 1.566.746-.65 1.856-.935 2.356-1.83-1.315-.18-1.826.446-3.136.262m22.73 1.043c2.61-.314 3.58.06 5.753.524.476-.51-.075-1.464-.262-2.09-1.796.312-2.264-.697-2.614-1.83h-1.567c-.245 1.325-.41 2.73-1.31 3.395m8.365-6.01c-.034 1.374 1.33.768 1.83 1.047.27.78.32 3.15 1.565 2.09-.718-.933-1.246-2.064-1.565-3.396-.698 0-1.494-.1-1.83.26m-38.675-17.77c.317-1.117-1.2-1.742-1.83-1.042.24.718 1.15.768 1.83 1.043M326.256 35.1c.86-.846 1.49-1.13.782-2.35 2.19.27 4.637.394 6.794 0 .35 3.166 1.205 6.46 1.31 9.67.037 1.158-.777 2.362-.788 3.395-.038 4.88 1.737 9.883 2.093 15.155.234 3.514-.82 6.867 0 10.713 1.708-1.288.898-3.135 1.043-4.703.313-3.325 1.718-5.79 2.616-8.886.5-1.73.262-3.502.523-5.224.464-3.1 1.516-6.09 1.827-9.408.3-3.204.542-6.354 1.306-9.667 9.646-.063 18.733.428 28.22.522-1.053 8.46-.575 17.597-2.09 25.347-.21 1.07-.452 1.86-1.308 2.612-.08.694 1.467-.244 1.047.786-.102 4.078-.744 7.62-1.567 10.973.17 1.222 2.26.525 3.135 1.045-.1 1.38-1.824 1.138-2.874 1.566.824 9.575-1.908 17.546-1.568 25.87.252 6.2-.354 13.41-.784 21.168-3.768-.588-8.607-.107-12.802-.262-.868.09-.412 1.504-.523 2.35-1.7-.74-2.728-2.153-4.182-3.136.51-3.22-.77-6.134-1.045-9.144-.31-3.375.936-6.013 1.568-9.408 1.772-9.563-.238-20.526 1.306-30.57-3.22 9.845-4.098 22.03-5.75 33.444-2.247 1.11-1.08 3.446-1.045 6.272.046 3.45-1.492 7.213-1.304 10.454-4.102.778-8.716 1.04-13.588 1.042-.433-2.38-.93-7 1.565-7.314-.875-.78-2.025-1.285-2.61-2.352-.398-15.715-2.5-29.726-4.183-44.16-.982 16-.55 33.417-1.83 49.124.23 1.1-.864.875-1.304 1.307 1.317.076 1.5 1.29 1.304 2.878-5.55.143-13.03-.03-19.075-.262 1.62-30.616 2.316-60.558 3.92-91.195 6.253 1.2 13.252-1.396 18.813.52.773.19.07 1.85 1.048 1.83" fill="#fff" fill-rule="evenodd"/><path d="M405.17 55.22c.233 1.195-.436 1.483-.524 2.353-1.935.016-5.41 1.16-6.794 0-.538.07-.06 1.157-.782 1.045-4.457-1.19-11.728 1.543-13.85-1.567 2.97-3.47 10.042-.905 15.155-1.306 2.253-.177 4.673-1.66 6.795-.524" fill="#231f20" fill-rule="evenodd"/><path d="M246.297 34.58c-.33 3.865-3.052 7.376-4.183 11.236-1 3.42-.896 6.785-1.828 9.93-.835 2.81-2.865 5.07-3.92 7.837-.858 2.258-2.695 6.802-2.873 9.146-.35 4.585 2.534 11.47 3.656 15.677 1.398 5.228 3.37 9.728 4.182 15.157-1.83-.176-2.973.338-4.443.52 1.352 1.373 2.824.115 4.442-.262-.097 1.82 1.892 3.464 2.35 5.49.227.99-.083 2.083 0 3.134.258 3.176 1.636 6.305 1.568 8.885-7.307.165-14.065-.22-21.164-.26-.956-1.63-.546-3.56-1.046-5.488-.316-1.218-1.298-2.242-1.568-3.398-.808-3.474-.69-7.01-1.566-10.45-1.026-4.01-2.265-7.063-3.137-11.497-1.29 9.79.158 20.95-1.048 31.356-6.73.5-14.02.438-20.12 1.568-.738-2.92-.643-6.674-1.043-9.93-.45-.763-.953.59-1.832.262.13-1.525 1.552-1.673 1.83-2.875.574-2.49-.518-6.092-.523-8.884-.008-4.43-.337-9.933.784-14.632.318-1.338 1.32-2.34 1.567-3.92 1-6.365-.927-12.89-.784-17.505.314-10.056-.712-20.675.784-30.312 6.957-.36 14.186-.447 21.167-.784.803 9.692-.23 19.8 0 29.786 3.548-9.604 6.183-20.12 9.405-30.05 6.276 1.226 13.1-1.092 19.337.263M51.626 119.24c2.423.046 3.15 3.08 5.486 2.352-.494-2.06-4.156-4.336-5.486-2.352m1.828-1.828c.336-.533 1.466-.277 1.567-1.046h-1.828c.044.39-.093.965.262 1.046m-3.658-22.735c2.14-.05 3.365.82 3.658 2.613.083 1.043-1.21.707-1.307 1.57 4.37-.452 3.427 4.414 7.055 4.704-.13.914-1.344.744-1.568 1.568.087.956 1.036 1.052.784 2.35.688-.27 1.604-.31 2.614-.262.59.717 1.155 1.46 1.306 2.612.63.107.567-.475 1.306-.26 2.08 3.518.99 9.493-.522 13.064-6.265.403-13.025.278-19.076-.26.358-3.647-.904-8.918 1.046-10.974-.236-.464-.962-.432-1.046-1.046-.03-6.35.824-10.708-1.044-15.416.617-2.19 6.408-3.832 6.794-.263" fill="#fff" fill-rule="evenodd"/></svg>