<svg xmlns="http://www.w3.org/2000/svg" xmlns:xlink="http://www.w3.org/1999/xlink" width="460" height="136.773"><defs><clipPath id="d"><path d="M440.377 686.844h108.51v32.263h-108.51v-32.263z"/></clipPath><linearGradient xlink:href="#a" id="e" gradientUnits="userSpaceOnUse" gradientTransform="scale(8.41264) rotate(-87.45 71.09 15.194)" x2="1"/><linearGradient id="a" gradientTransform="scale(8.41264) rotate(-87.45 71.09 15.194)" gradientUnits="userSpaceOnUse" x2="1"><stop offset="0" stop-color="#5d5d5d"/><stop offset="1" stop-color="#181615"/></linearGradient><clipPath id="f"><path d="M440.377 686.844h108.51v32.263h-108.51v-32.263z"/></clipPath><linearGradient xlink:href="#b" id="g" gradientUnits="userSpaceOnUse" gradientTransform="scale(15.5171) rotate(-55.898 58.135 -4.216)" x2="1"/><linearGradient id="b" gradientTransform="scale(15.5171) rotate(-55.898 58.135 -4.216)" gradientUnits="userSpaceOnUse" x2="1"><stop offset="0" stop-color="#111"/><stop offset="1" stop-color="#e7e7e7"/></linearGradient><clipPath id="h"><path d="M449.998 705.288c-.656-.285-1.294-.578-1.92-.88.91-.01 1.814-.027 2.71-.05 1.375-.038 2.732-.094 4.06-.17-.79-2.865-1.702-5.865-2.71-8.934-.176-.538-.358-1.074-.538-1.61.847-1.22 1.667-2.418 2.46-3.583 1.058 2.932 2.02 5.908 2.85 8.855.81 2.864 1.464 5.577 1.952 8.085-1.022.14-2.077.257-3.16.357-1.868-.552-3.784-1.24-5.704-2.07"/></clipPath><clipPath id="i"><path d="M440.377 686.844h108.51v32.263h-108.51v-32.263z"/></clipPath><linearGradient xlink:href="#c" id="j" gradientUnits="userSpaceOnUse" gradientTransform="scale(19.49505) rotate(-66.09 39.76 .05)" x2="1"/><linearGradient id="c" gradientTransform="scale(19.49505) rotate(-66.09 39.76 .05)" gradientUnits="userSpaceOnUse" x2="1"><stop offset="0" stop-color="#111"/><stop offset="1" stop-color="#e7e7e7"/></linearGradient><clipPath id="k"><path d="M440.377 686.844h108.51v32.263h-108.51v-32.263z"/></clipPath><clipPath id="l"><path d="M440.377 686.844h108.508v32.263H440.377v-32.263z"/></clipPath><clipPath id="m"><path d="M440.377 686.844h108.51v32.263h-108.51v-32.263z"/></clipPath></defs><g clip-path="url(#d)" transform="matrix(4.23932 0 0 -4.23932 -1866.898 3048.524)"><path d="M463.175 700.96c1.943-1.173 3.582-2.316 4.908-3.408.21-.17.415-.343.605-.513.107.134.212.27.314.403-.18.17-.374.34-.572.52-1.26 1.095-2.83 2.24-4.698 3.42-.18-.14-.367-.28-.557-.423" fill="#231f20"/><path d="M463.82 701.467c.008-.05.014-.1.016-.153 1.82-1.155 3.36-2.28 4.594-3.352.198-.178.39-.348.572-.52l.063.11c-.177.162-.357.327-.55.492-1.257 1.1-2.825 2.245-4.695 3.423" fill="#fff"/><path d="M452.528 718.752c.088-.205.176-.42.263-.642.568-1.427 1.086-3.172 1.562-5.22.233.09.46.175.686.26-.504 1.992-1.057 3.685-1.653 5.063-.093.212-.186.42-.284.616-.19-.024-.38-.05-.572-.078" fill="#231f20"/></g><path d="M445.102 716.053c-1.02-.49-2.052-1.028-3.092-1.613.278.13.554.262.83.388 1.03.56 2.05 1.072 3.053 1.533-.263-.1-.527-.202-.79-.307" fill="url(#e)" transform="matrix(4.23932 0 0 -4.23932 -1866.898 3048.524)"/><g clip-path="url(#f)" transform="matrix(4.23932 0 0 -4.23932 -1866.898 3048.524)"><path d="M442.01 714.44c2.628-.616 5.355-1.45 8.113-2.48 2.793-1.044 5.504-2.25 8.057-3.58.22.113.436.218.648.326-2.488 1.338-5.15 2.553-7.908 3.604-2.73 1.045-5.448 1.89-8.08 2.518-.276-.127-.552-.257-.83-.388M459.894 706.065c.495-2.815.843-5.79 1.018-8.838.175-3.048.175-6.047.002-8.91l.72.564c.165 2.857.157 5.835-.038 8.854-.19 3.008-.556 5.93-1.08 8.69-.205-.116-.412-.235-.622-.36" fill="#231f20"/><path d="M453.934 703.627c-.833-2.913-1.78-5.945-2.808-9.033-.177-.538-.362-1.075-.543-1.61l.932.574c.178.538.36 1.07.536 1.608 1.01 3.072 1.92 6.073 2.71 8.936-.274-.155-.548-.315-.826-.475" fill="#7f1416"/><path d="M454.008 689.92c-.3-.188-.598-.38-.902-.57-.81 1.18-1.653 2.392-2.523 3.635.313.19.62.382.932.573.86-1.24 1.693-2.455 2.493-3.638" fill="#231f20"/><path d="M445.473 704.326c-.557-.003-1.108-.01-1.66-.016-.313-.183-.628-.367-.94-.552.554.013 1.105.02 1.66.028 3.203.032 6.36-.02 9.402-.16.277.16.552.32.827.476-2.984.166-6.106.243-9.29.224" fill="#7f1416"/><path d="M443.812 704.31c-.312-.182-.627-.367-.938-.552-.855 1.174-1.69 2.306-2.497 3.392.3.177.605.354.907.528.817-1.077 1.662-2.203 2.528-3.37M460.18 716.724c.202-.873.284-1.988.25-3.335-.035-1.603-.233-3.47-.576-5.59.203.104.405.207.597.31.295 2.055.44 3.86.426 5.397-.008 1.292-.13 2.364-.37 3.19-.108.015-.216.023-.325.027" fill="#231f20"/><path d="M465.973 706.706c-1.557.546-3.4 1.014-5.522 1.404-.19-.102-.392-.206-.595-.31 2.204-.368 4.134-.816 5.774-1.334 1.4-.448 2.543-.937 3.422-1.472.048.064.096.13.135.19-.81.55-1.888 1.058-3.214 1.522" fill="#231f20"/><path d="M452.137 695.253c1.01 3.07 1.922 6.07 2.712 8.936-2.987.165-6.108.24-9.292.222-.556-.003-1.11-.01-1.657-.017-.845 1.14-1.67 2.235-2.47 3.29-.05-.004-.095-.004-.146-.007.817-1.077 1.662-2.203 2.528-3.37.553.008 1.103.014 1.66.017 3.183.02 6.305-.057 9.29-.223-.79-2.863-1.702-5.864-2.71-8.936-.177-.537-.36-1.07-.537-1.608.86-1.24 1.693-2.455 2.493-3.638l.05.14c-.79 1.165-1.61 2.364-2.458 3.585.18.534.362 1.07.537 1.608M450.92 712.31c2.758-1.052 5.42-2.267 7.907-3.605-.01.05-.02.1-.034.148-2.454 1.315-5.07 2.507-7.785 3.543-2.714 1.038-5.413 1.88-8.032 2.507-.047-.027-.09-.05-.138-.075 2.634-.628 5.35-1.473 8.082-2.518M461.68 697.82c-.188 2.953-.54 5.822-1.05 8.538l-.113.065c.523-2.758.89-5.68 1.08-8.69.194-3.018.203-5.996.036-8.852.67.623 1.314 1.243 1.928 1.862-.588-.592-1.2-1.184-1.842-1.775.168 2.857.16 5.835-.037 8.854M465.973 706.706c1.326-.464 2.405-.972 3.214-1.523-.03.07-.065.136-.095.206-.79.502-1.803.973-3.03 1.402-1.557.546-3.405 1.014-5.523 1.405.292 2.054.436 3.86.42 5.398-.008 1.187-.11 2.18-.314 2.98l-.14.123c.24-.827.362-1.898.37-3.19.015-1.537-.13-3.343-.425-5.398 2.122-.39 3.966-.858 5.523-1.404M453.47 718.3c-.085.19-.165.375-.254.552l-.115-.022c.1-.196.193-.404.285-.616.583-1.346 1.158-3.133 1.653-5.063l.125-.047c-.503 1.99-1.094 3.82-1.692 5.197" fill="#fff"/><path d="M455.702 707.357c-1.66.156-3.392.273-5.184.344-3.013.122-6.07.116-9.086-.015.8-1.055 1.623-2.15 2.47-3.29.547.01 1.1.015 1.656.018.843.003 1.678 0 2.514-.008.63.303 1.268.598 1.926.883 1.92.828 3.837 1.517 5.704 2.07" fill="#d71f27"/></g><path d="M453.217 718.85c.088-.176.168-.36.253-.55.6-1.378 1.15-3.072 1.655-5.062l-.125.05c.01-.046.025-.09.037-.137-2.56 1.145-5.19 2.103-7.813 2.85-.448.125-.892.246-1.33.36-.958-.44-1.932-.93-2.918-1.457 2.62-.628 5.318-1.468 8.032-2.507 2.714-1.035 5.332-2.228 7.786-3.542-.514 2.367-1.122 4.474-1.812 6.29-.614 1.604-1.272 2.935-1.973 3.963-.565-.047-1.163-.132-1.793-.256m7.744-5.255c.014-1.46-.114-3.158-.38-5.082 1.764.305 3.447.475 5.017.506-.748.332-1.568.642-2.465.93.013 1.653-.116 3.072-.382 4.243-.043.184-.09.36-.137.53-.64.657-1.3 1.274-1.967 1.85.204-.797.305-1.79.315-2.978" fill="url(#g)" transform="matrix(4.23932 0 0 -4.23932 -1866.898 3048.524)"/><g clip-path="url(#h)" transform="matrix(4.23932 0 0 -4.23932 -1866.898 3048.524)"><path d="M448.078 707.357h10.784v-17.295h-10.784v17.295z" fill="#aa1f23"/></g><g clip-path="url(#i)" transform="matrix(4.23932 0 0 -4.23932 -1866.898 3048.524)"><path d="M454.06 690.062c-.793 1.164-1.613 2.362-2.46 3.584.847-1.222 1.667-2.42 2.46-3.584m.79 14.127v-.002m-4.064.168c-.897.024-1.802.04-2.714.048l.006.003c.91-.01 1.814-.026 2.708-.05" fill="#aa1f23"/></g><path d="M460.58 708.513c-.012-.105-.026-.21-.04-.317 2.118-.39 3.964-.86 5.52-1.405 1.23-.428 2.242-.898 3.032-1.402-.385.82-.808 1.636-1.27 2.44-.162.107-.336.215-.51.318-.514.307-1.088.596-1.715.873-1.57-.032-3.253-.202-5.016-.507m1.1-10.692c.197-3.018.206-5.996.038-8.853.642.59 1.254 1.184 1.843 1.775.226.23.454.46.67.688.017.48.038.965.043 1.45.048 2.804-.097 5.643-.437 8.434-.003.053-.008.102-.017.153 1.87-1.177 3.438-2.323 4.696-3.423.19-.165.372-.33.55-.492.328.55.617 1.085.858 1.597-.89 1.078-2.075 2.208-3.54 3.368-1.638 1.29-3.57 2.578-5.754 3.84.51-2.715.862-5.585 1.05-8.537" fill="url(#j)" transform="matrix(4.23932 0 0 -4.23932 -1866.898 3048.524)"/><g clip-path="url(#k)" transform="matrix(4.23932 0 0 -4.23932 -1866.898 3048.524)"><path d="M477.883 717.894c-.056-.05-.193.245-.285.433-.144.288-.364.398-.657.398-.29 0-.654-.187-.71-.556-.08-.52.297-.787.89-1.187.787-.527 1.264-.926 1.284-1.597.037-1.065-.888-1.542-1.885-1.542-.413 0-.787.053-1.03.13-.373.116-.373.124-.373.31v.702c0 .078-.033.19.043.216l.23.09c.08.02.116-.29.29-.586.144-.292.427-.442.737-.442.536 0 .932.346.955.854.038.627-.615.99-1.178 1.387-.426.303-.998.557-.998 1.303 0 .66.6 1.272 1.75 1.272.397 0 .66-.06.872-.146.22-.085.336-.154.32-.272v-.535l-.044-.08-.21-.153zM480.577 716.882h1.67c.092 0 .137-.043.092-.11l-.132-.226c-.05-.076-.115-.1-.23-.1h-1.4v-1.4c0-.544.125-.68.523-.68h.594c.71 0 .81.606.912.576l.18-.055.046-.065v-.712c0-.11-.137-.18-.333-.18h-2.238c-.548 0-.707-.003-.707.503v3.727c0 .307-.143.427-.454.48-.11.028-.175.047-.136.128l.056.137c.028.068.08.088.125.088h3.15c.137 0 .224-.08.21-.182v-.58l-.037-.06-.13-.107c-.11-.09-.217.494-.7.494h-1.06v-1.675zM487.467 713.94c-.144 0-.13.165-.13.244v.137c-.284-.317-.817-.476-1.238-.476-1.537 0-2.664 1.085-2.664 2.66 0 1.418 1.19 2.576 2.75 2.576.867 0 1.476-.306 1.7-.44.057-.03.057-.074.057-.125v-.46l-.043-.082-.194-.137c-.11-.08-.35.774-1.512.774-1.057 0-1.663-.868-1.663-2.068 0-1.424.802-2.228 1.664-2.228.793 0 1.193.433 1.193.912 0 .333-.182.51-.363.563-.152.107-.355.086-.305.21l.058.13c.03.072.1.08.167.08h1.185c.16 0 .16-.058.173-.19v-1.692c0-.218-.014-.388-.194-.388h-.643zM490.584 715.884c0-.71.207-1.504 1.135-1.504.742 0 1.184.477 1.184 1.51v2.328c0 .313-.113.36-.465.444-.095.01-.11.07-.08.128l.06.143c.02.04.056.06.123.06h1.342c.057 0 .13-.016.096-.123l-.044-.123c-.025-.08-.086-.085-.135-.103-.183-.034-.37-.15-.37-.426v-2.334c0-1.656-1.04-2.04-1.823-2.04-1.61 0-2.044.925-2.044 2.018v2.356c0 .313-.108.36-.463.444-.096.01-.11.07-.08.128l.055.143c.025.04.062.06.126.06h1.838c.056 0 .13-.016.092-.123l-.04-.123c-.032-.08-.09-.085-.14-.103-.18-.034-.366-.15-.366-.426v-2.334zM496.215 716.505h.447c.504 0 .94.368.923 1.163-.01.727-.344.934-.793.934h-.577v-2.097zm2.963-2.575h-1.085c-.115 0-.167.116-.203.175l-1.133 2.01h-.542v-1.41c0-.31.106-.36.46-.44.098-.016.11-.072.082-.13l-.06-.144c-.02-.037-.056-.06-.12-.06h-1.84c-.055 0-.128.015-.094.123l.044.123c.03.082.088.09.14.1.182.038.368.157.368.43v3.454c0 .307-.144.427-.457.48-.108.028-.174.047-.137.128l.06.137c.027.068.078.088.123.088h2.513c.674 0 1.34-.382 1.345-1.245 0-.577-.3-1.162-.988-1.473.65-1.132 1.238-1.94 1.526-2.106v-.24zM500.767 716.642c0-1.605.694-2.327 1.568-2.327 1.09 0 1.52 1.214 1.52 2.155-.002 1.504-.752 2.14-1.55 2.14-1.2 0-1.54-1.242-1.54-1.968m4.185-.078c0-1.42-1.052-2.72-2.75-2.72-1.28 0-2.52.955-2.52 2.546-.002 1.62 1.282 2.69 2.78 2.69 1.453 0 2.49-1.158 2.49-2.516M508.322 717.894c-.056-.05-.194.245-.288.433-.145.288-.363.398-.658.398-.29 0-.652-.187-.708-.556-.08-.52.296-.787.887-1.187.788-.527 1.267-.926 1.29-1.597.037-1.065-.89-1.542-1.89-1.542-.41 0-.787.053-1.026.13-.376.116-.376.124-.376.31v.702c0 .078-.03.19.045.216l.23.09c.078.02.116-.29.29-.586.145-.292.425-.442.737-.442.535 0 .933.346.956.854.03.627-.615.99-1.18 1.387-.43.303-.998.557-.998 1.303 0 .66.6 1.272 1.748 1.272.398 0 .66-.06.875-.146.216-.085.333-.154.317-.272v-.535l-.043-.08-.21-.153zM481.994 704.477l-1.606 4.218-1.634-4.218h3.24zm4.404-4.03c-.076-.142-.203-.155-.388-.155h-3.66c-.155 0-.296.048-.22.25l.143.31c.138.31.98.17.67 1.122l-.607 1.572h-3.91l-.7-1.776c-.295-.824.935-.67.732-1.043l-.092-.17c-.047-.078-.095-.265-.312-.265h-2.413c-.294 0-.62-.064-.484.295l.083.218c.044.123.17.173.4.233.654.155.763.25 1.09 1.027l2.678 6.882c.28.745-.107 1.01-.278 1.18-.357.344-1.09.237-.873.622l.078.248c.06.173.202.188.372.188h2.694c.22 0 .343-.217.39-.45 1.072-3.115 2.384-6.274 3.395-8.672.296-.762.387-.81 1.166-1.01.156-.05.248-.14.2-.266l-.152-.342zM499.69 701.955c0-.668.228-.777.997-.95.2-.026.232-.153.17-.278l-.126-.313c-.043-.074-.123-.122-.262-.122h-3.954c-.126 0-.278.03-.203.266l.096.262c.062.17.188.186.295.218.39.08.796.327.796.917v6.244h-.032l-3.692-7.567c-.092-.186-.168-.34-.295-.34h-.45c-.093 0-.217.215-.34.496l-3.44 7.41-.032-.002v-6.244c0-.668.233-.777.995-.95.203-.026.235-.153.17-.278l-.123-.313c-.047-.074-.123-.122-.264-.122l-2.834.002c-.124 0-.282.03-.203.266l.096.262c.06.17.185.185.295.217.387.08.79.327.79.917v7.426c-.448.655-.962.983-1.275 1.044-.31.077-.34.186-.28.324l.125.313c.047.063.124.126.266.126h2.474c.513 0 .624-.063.883-.64l3.51-7.392 3.783 7.535c.196.417.43.496.65.496h2.476c.152 0 .295-.03.217-.28l-.093-.296c-.063-.17-.22-.204-.39-.247-.47-.112-.795-.298-.795-.967v-7.442zM505.2 706.64h3.594c.203 0 .296-.09.203-.233l-.28-.483c-.11-.17-.25-.216-.5-.216H505.2v-3.02c0-1.168.278-1.465 1.135-1.465h1.277c1.523 0 1.743 1.31 1.962 1.248l.39-.123c.06-.017.092-.08.092-.142v-1.526c0-.25-.296-.388-.717-.388h-4.81c-1.183 0-1.523-.017-1.523 1.075v8.03c0 .654-.312.918-.98 1.027-.236.06-.377.108-.3.28l.126.295c.064.14.173.187.262.187h6.79c.295 0 .48-.172.45-.39v-1.245c0-.045-.03-.092-.077-.14l-.28-.234c-.235-.187-.47 1.073-1.51 1.073H505.2v-3.61zM514.585 705.83h.966c1.09 0 2.023.797 1.99 2.506-.028 1.558-.746 2.01-1.71 2.01h-1.245v-4.515zm6.383-5.54l-2.337.002c-.246 0-.36.25-.434.37l-2.443 4.33h-1.168v-3.037c0-.67.234-.778.996-.95.204-.027.236-.154.173-.28l-.125-.312c-.047-.074-.124-.122-.265-.122l-3.954.002c-.124 0-.28.03-.202.266l.094.262c.063.17.185.185.294.217.39.08.796.33.796.917v7.442c0 .654-.313.918-.983 1.028-.232.06-.372.107-.298.28l.132.294c.058.142.165.188.26.188h5.418c1.446 0 2.876-.823 2.895-2.68 0-1.243-.658-2.503-2.135-3.172 1.4-2.427 2.662-4.173 3.286-4.53v-.513zM522.99 709.52c0 .67-.233.78-.995.95-.202.03-.233.155-.17.278l.12.313c.05.08.127.126.268.126h3.95c.128 0 .283-.03.206-.264l-.096-.263c-.06-.175-.188-.19-.297-.22-.388-.077-.792-.327-.792-.92v-7.566c0-.667.232-.777.997-.95.2-.026.23-.153.17-.278l-.123-.312c-.048-.075-.13-.123-.267-.123h-3.954c-.127 0-.28.03-.203.267l.093.263c.06.17.188.185.296.217.388.08.793.33.793.917v7.567z" fill="#d71f27"/></g><g clip-path="url(#l)" transform="matrix(4.23932 0 0 -4.23932 -1866.898 3048.524)"><path d="M536.81 700.927c-.094-.154-.154-.31-.31-.404-.37-.23-1.604-.42-3.032-.42-3.552 0-5.978 2.338-5.978 5.728 0 3.053 2.55 5.545 5.913 5.545 1.867 0 3.174-.655 3.66-.95.12-.062.12-.156.12-.265v-.996c0-.064-.046-.127-.09-.174l-.422-.295c-.232-.17-.746 1.668-3.252 1.668-2.35 0-3.58-1.87-3.58-4.407 0-3.114 1.825-4.84 3.94-4.84 1.058 0 2.224.262 3.08 1.072.235.22.576.016.436-.214l-.483-1.047zM544.314 704.477l-1.604 4.218-1.633-4.218h3.237zm4.405-4.03c-.08-.142-.205-.155-.39-.155h-3.657c-.157 0-.3.048-.217.25l.14.31c.14.31.98.17.665 1.122l-.605 1.572h-3.904l-.7-1.776c-.3-.824.933-.67.73-1.043l-.09-.17c-.05-.078-.097-.265-.314-.265h-2.414c-.295 0-.622-.064-.482.295l.08.218c.045.123.172.173.402.233.655.155.764.25 1.09 1.027l2.678 6.882c.28.745-.11 1.01-.278 1.18-.36.344-1.09.237-.87.622l.074.248c.064.173.204.188.374.188h2.693c.218 0 .343-.217.388-.45 1.077-3.115 2.384-6.274 3.394-8.672.296-.762.39-.81 1.167-1.01.16-.05.25-.14.205-.266l-.156-.342z" fill="#d71f27"/></g><g clip-path="url(#m)" transform="matrix(4.23932 0 0 -4.23932 -1866.898 3048.524)"><path d="M477.055 691.21c-.036.1-.067.196-.093.282-.03.09-.054.18-.076.267h-.013c-.022-.09-.05-.177-.078-.268-.028-.086-.056-.18-.087-.274l-.535-1.487h1.416l-.535 1.48zm1.01-2.845l-.334.935h-1.698l-.33-.935h-.565l1.463 4.004h.602l1.473-4.005h-.61zM480.82 689.252c0-.133-.028-.26-.087-.372-.056-.117-.14-.214-.244-.3-.11-.086-.236-.152-.392-.2-.157-.047-.33-.07-.523-.07-.115 0-.23.006-.345.012-.113.013-.22.03-.31.055l.05.48c.094-.038.2-.066.314-.087.114-.02.224-.03.336-.03.188 0 .342.04.46.123.12.08.178.19.178.33 0 .113-.033.197-.102.256-.064.056-.15.105-.253.143-.1.04-.21.073-.328.102-.115.035-.225.08-.328.14-.103.06-.187.136-.256.237-.065.098-.097.235-.097.41 0 .25.095.46.292.63.195.168.488.25.883.25.088 0 .186-.002.283-.01.098-.013.193-.025.283-.043l-.04-.443c-.086.028-.18.05-.277.065-.1.012-.2.02-.298.02-.195 0-.34-.04-.433-.113-.094-.08-.14-.18-.14-.306 0-.112.034-.196.102-.252.066-.06.153-.103.256-.145.1-.038.21-.08.33-.115.12-.033.228-.08.332-.138.1-.06.183-.136.254-.236.065-.097.1-.23.1-.396M483.002 690.77c-.118.133-.28.2-.49.2-.19 0-.35-.067-.48-.2-.125-.132-.207-.31-.24-.534h1.376c.008.223-.047.402-.165.535m.71-.64c0-.066-.003-.157-.016-.274h-1.92c-.014-.39.057-.674.217-.852.155-.173.393-.263.71-.263.143 0 .285.015.43.046.144.03.282.072.412.134l.078-.425c-.153-.06-.314-.107-.487-.137-.17-.03-.347-.048-.534-.048-.454 0-.794.12-1.03.365-.235.242-.353.625-.353 1.148 0 .22.03.424.09.612.058.19.144.354.26.492.11.138.248.244.41.32.162.078.347.115.556.115.205 0 .383-.03.532-.096.15-.065.274-.153.37-.266.093-.112.16-.242.208-.393.047-.15.067-.31.067-.478M486.08 690.308c0 .2-.056.36-.17.48-.114.115-.28.177-.488.177-.23 0-.4-.062-.52-.188-.122-.125-.183-.28-.183-.47 0-.204.057-.362.176-.473.115-.114.283-.17.505-.17.215 0 .38.056.5.17.12.11.18.27.18.474m.277-2.41c0 .147-.047.26-.144.345-.098.08-.25.126-.457.134l-.57.024h-.087l-.085.01c-.117-.08-.207-.167-.276-.267-.072-.096-.105-.204-.105-.32 0-.177.073-.316.222-.414.15-.1.34-.147.57-.147.3 0 .534.058.694.183.16.12.237.27.237.453m.54.067c0-.154-.04-.3-.116-.437-.07-.137-.18-.256-.32-.356-.135-.1-.3-.183-.494-.24-.19-.06-.4-.09-.628-.09-.383 0-.685.077-.908.23-.22.15-.33.372-.33.657 0 .17.047.328.145.468.096.136.214.242.35.317-.096.04-.168.096-.218.172-.054.078-.082.167-.082.265 0 .103.032.2.09.29.06.093.136.16.237.208-.136.078-.24.185-.316.32-.077.135-.117.297-.117.494 0 .143.03.286.085.418.054.136.135.252.238.354.104.1.235.18.39.238.16.062.338.09.54.09.078 0 .147-.003.21-.012.06-.005.128-.02.204-.037h1v-.42h-.484c.075-.056.136-.136.176-.23.04-.097.06-.2.06-.316 0-.154-.024-.292-.076-.424-.05-.132-.128-.244-.23-.338-.105-.098-.235-.173-.39-.228-.158-.054-.342-.084-.55-.084-.11 0-.218.016-.32.042-.06-.03-.107-.07-.14-.113-.033-.04-.047-.085-.047-.138 0-.08.04-.138.117-.168.082-.03.21-.054.39-.062l.538-.018c.32-.01.568-.09.738-.233.17-.147.256-.352.256-.62M489.322 688.365c0 .09.002.192.01.31.01.117.022.222.037.312h-.012c-.09-.202-.22-.365-.393-.492-.176-.123-.39-.185-.645-.185-.17 0-.31.024-.423.074-.113.05-.204.115-.274.203-.068.083-.115.183-.142.298-.027.117-.04.24-.04.37v2.06h.528v-1.898c0-.214.035-.38.107-.492.07-.114.203-.173.396-.173.122 0 .237.03.338.09.102.06.19.14.263.242.08.104.138.225.18.366.04.14.06.293.06.453v1.412h.53v-2.95h-.518zM492.166 690.834c-.312.055-.543-.03-.694-.244-.146-.22-.224-.568-.224-1.04v-1.186h-.536v2.95h.52c-.002-.09-.008-.2-.016-.327-.01-.126-.025-.254-.05-.375h.013c.03.1.07.2.124.298.053.096.12.178.206.25.083.072.18.13.293.167.112.04.24.052.388.035l-.025-.528zM494.106 689.746c-.246 0-.45-.017-.608-.05-.162-.032-.288-.073-.384-.124-.094-.053-.16-.11-.203-.177-.038-.07-.06-.14-.06-.214 0-.13.042-.238.126-.324.078-.086.19-.128.324-.128.122 0 .23.027.33.083.1.053.185.124.254.212.072.088.125.188.162.303.04.113.06.227.06.344v.076zm.028-1.38c0 .1 0 .203.006.307 0 .1.006.195.025.278h-.014c-.07-.18-.19-.335-.37-.456-.174-.122-.384-.185-.63-.185s-.443.073-.596.218c-.148.147-.224.34-.224.577 0 .32.156.57.46.747.31.177.746.268 1.315.268v.197c0 .205-.048.365-.14.472-.094.106-.264.16-.508.16-.14 0-.286-.018-.442-.06-.155-.038-.292-.092-.413-.16l-.112.43c.14.06.308.11.49.15.183.04.37.06.56.06.214 0 .39-.023.53-.07.144-.05.257-.115.34-.2.087-.085.146-.187.18-.307.033-.122.048-.252.048-.395v-1.188c0-.135 0-.28.005-.43 0-.15.004-.288.008-.415h-.517zM497.39 688.365v1.892c0 .214-.033.378-.1.492-.07.113-.203.17-.4.17-.123 0-.237-.03-.336-.087-.104-.058-.192-.14-.265-.242-.074-.106-.13-.226-.175-.366-.04-.138-.06-.29-.06-.45v-1.41h-.535v2.95h.516c0-.09-.003-.194-.01-.314-.005-.116-.017-.22-.036-.313h.01c.09.203.22.367.396.49.175.124.39.185.642.185.17 0 .31-.022.42-.072.117-.05.21-.116.278-.2.07-.087.12-.187.146-.3.03-.116.044-.237.044-.367v-2.058h-.535zM500.548 690.868c-.09.02-.182.04-.267.05-.086.01-.17.015-.254.015-.14 0-.27-.022-.384-.065-.115-.042-.215-.115-.295-.21-.08-.09-.144-.216-.19-.366-.047-.15-.068-.33-.068-.544 0-.323.053-.567.157-.737.103-.172.268-.258.494-.258.137 0 .254.034.354.106.1.07.184.16.253.27.066.11.12.232.15.366.034.133.05.266.05.395v.978zm.02-2.503c0 .084 0 .18.008.294.006.112.02.215.04.302l-.013.005c-.082-.203-.21-.362-.382-.482-.173-.117-.372-.176-.607-.176-.363 0-.634.122-.814.37-.18.245-.272.585-.272 1.015 0 .26.035.49.106.696.07.206.176.38.305.522.135.145.29.253.48.327.19.074.4.11.63.11.077 0 .16 0 .24-.008.08-.004.167-.01.258-.022v1.375h.536v-4.33h-.516zM503.894 689.86c0 .334-.066.596-.2.78-.138.186-.343.278-.614.278-.108 0-.212-.02-.31-.06-.103-.04-.193-.106-.27-.195-.073-.085-.135-.195-.18-.328-.044-.134-.07-.29-.07-.472 0-.36.073-.632.212-.823.14-.188.347-.28.618-.28.11 0 .215.02.314.065.097.043.183.11.26.202.073.092.134.204.18.34.04.135.06.3.06.493m.56.028c0-.222-.032-.43-.102-.623-.066-.188-.166-.356-.29-.5-.123-.14-.276-.253-.454-.335-.182-.08-.374-.12-.595-.12-.198 0-.383.03-.546.087-.16.06-.298.15-.414.272-.114.122-.2.277-.266.467-.064.187-.095.412-.095.674 0 .216.03.42.095.607.068.186.162.35.287.493.124.14.275.25.454.332.177.08.378.12.6.12.19 0 .363-.025.527-.08.163-.05.302-.138.425-.256.116-.118.21-.273.278-.458.064-.19.096-.416.096-.68M507.422 688.333c-.103-.014-.207-.018-.3-.018-.152 0-.275.015-.378.047-.1.032-.18.086-.242.154-.06.072-.104.164-.13.28-.026.11-.04.247-.04.404v1.703h-.6v.41h.6v.956l.54.145v-1.1h.815v-.412h-.816v-1.513c0-.125.005-.225.017-.304.013-.08.035-.144.07-.19.032-.05.075-.08.126-.1.056-.016.124-.027.203-.027.136 0 .26.016.374.05l.052-.443c-.086-.018-.18-.033-.29-.044M510.165 688.365c0 .09.007.192.015.31.006.117.017.222.032.312h-.013c-.086-.202-.215-.365-.39-.492-.18-.123-.392-.185-.646-.185-.167 0-.31.024-.422.074-.112.05-.202.115-.273.203-.07.083-.116.183-.148.298-.026.117-.038.24-.038.37v2.06h.526v-1.898c0-.214.038-.38.107-.492.07-.114.205-.173.4-.173.118 0 .234.03.333.09.107.06.19.14.266.242.077.104.135.225.176.366.04.14.06.293.06.453v1.412h.532v-2.95h-.52zM514.43 692.232c-.067.025-.14.042-.213.05-.076.013-.15.016-.22.016-.215 0-.37-.06-.462-.182-.098-.12-.143-.316-.143-.575v-.226h.82v-.41h-.82v-2.54h-.538v2.54h-.605v.41h.604v.218c0 .41.1.707.292.907.19.193.472.29.845.29.162 0 .325-.02.487-.055l-.047-.443zM516.538 688.365c0 .09.003.192.015.31.007.117.02.222.034.312h-.012c-.087-.202-.22-.365-.393-.492-.177-.123-.392-.185-.645-.185-.168 0-.31.024-.424.074-.11.05-.204.115-.27.203-.07.083-.118.183-.146.298-.026.117-.043.24-.043.37v2.06h.533v-1.898c0-.214.033-.38.105-.492.07-.114.2-.173.396-.173.12 0 .237.03.333.09.108.06.194.14.27.242.076.104.133.225.174.366.045.14.065.293.065.453v1.412h.527v-2.95h-.52zM519.135 688.333c-.104-.014-.206-.018-.3-.018-.15 0-.273.015-.378.047-.1.032-.178.086-.242.154-.062.072-.106.164-.13.28-.024.11-.037.247-.037.404v1.703h-.607v.41h.608v.956l.534.145v-1.1h.82v-.412h-.82v-1.513c0-.125.005-.225.02-.304.01-.08.035-.144.064-.19.034-.05.08-.08.13-.1.057-.016.126-.027.205-.027.135 0 .262.016.375.05l.05-.443c-.084-.018-.183-.033-.29-.044M521.88 688.365c0 .09.004.192.012.31.008.117.018.222.033.312h-.01c-.085-.202-.218-.365-.395-.492-.175-.123-.388-.185-.642-.185-.172 0-.31.024-.423.074-.115.05-.206.115-.273.203-.067.083-.12.183-.144.298-.03.117-.043.24-.043.37v2.06h.527v-1.898c0-.214.038-.38.11-.492.07-.114.202-.173.397-.173.118 0 .233.03.334.09.104.06.193.14.268.242.074.104.133.225.175.366.04.14.058.293.058.453v1.412h.533v-2.95h-.518zM524.726 690.834c-.31.055-.545-.03-.697-.244-.15-.22-.222-.568-.222-1.04v-1.186h-.538v2.95h.52c0-.09-.008-.2-.014-.327-.01-.126-.03-.254-.05-.375h.01c.03.1.072.2.127.298.05.096.12.178.205.25.08.072.178.13.293.167.113.04.243.052.386.035l-.02-.528zM527.103 689.86c0 .334-.068.596-.207.78-.134.186-.337.278-.61.278-.104 0-.21-.02-.31-.06-.098-.04-.19-.106-.265-.195-.077-.085-.14-.195-.183-.328-.046-.134-.07-.29-.07-.472 0-.36.07-.632.212-.823.14-.188.346-.28.617-.28.107 0 .215.02.315.065.097.043.184.11.258.202.075.092.136.204.177.34.048.135.066.3.066.493m.56.028c0-.222-.035-.43-.105-.623-.068-.188-.166-.356-.29-.5-.126-.14-.277-.253-.452-.335-.18-.08-.38-.12-.595-.12-.2 0-.382.03-.544.087-.162.06-.3.15-.418.272-.115.122-.202.277-.265.467-.064.187-.096.412-.096.674 0 .216.032.42.097.607.068.186.16.35.288.493.126.14.276.25.453.332.176.08.377.12.596.12.192 0 .37-.025.532-.08.16-.05.3-.138.424-.256.116-.118.21-.273.278-.458.064-.19.1-.416.1-.68" fill="#686d71"/></g></svg>