<svg xmlns="http://www.w3.org/2000/svg" width="400" height="79.646"><path d="M0 49.24l4.61-5.524c3.194 2.635 6.54 4.307 10.593 4.307 3.193 0 5.12-1.267 5.12-3.345v-.102c0-1.976-1.218-2.99-7.145-4.51C6.03 38.24 1.418 36.264 1.418 29.22v-.1c0-6.437 5.17-10.694 12.418-10.694 5.17 0 9.58 1.62 13.177 4.51l-4.056 5.88c-3.14-2.18-6.234-3.497-9.222-3.497-2.992 0-4.562 1.367-4.562 3.09v.102c0 2.33 1.52 3.09 7.653 4.662 7.196 1.875 11.25 4.46 11.25 10.642v.102c0 7.044-5.372 10.998-13.025 10.998C9.68 54.916 4.26 53.04 0 49.24M30.865 27.244h7.703V54.41h-7.703V27.243zm-.204-9.83h8.11v6.84h-8.11v-6.84zM42.266 27.244h7.702v3.85c1.776-2.28 4.107-4.357 8.01-4.357 3.547 0 6.232 1.57 7.65 4.308 2.383-2.788 5.223-4.308 8.92-4.308 5.73 0 9.174 3.448 9.174 9.984v17.69H76.02V39.254c0-3.648-1.623-5.524-4.51-5.524-2.89 0-4.664 1.877-4.664 5.525V54.41H59.14V39.254c0-3.648-1.62-5.524-4.508-5.524s-4.664 1.877-4.664 5.525V54.41h-7.702V27.243zM107.694 40.877v-.102c0-4.51-3.04-7.5-6.64-7.5-3.598 0-6.587 2.99-6.587 7.5v.102c0 4.51 2.99 7.5 6.588 7.5 3.6 0 6.64-2.94 6.64-7.5m-20.83-13.633h7.702v3.903c1.877-2.534 4.46-4.41 8.464-4.41 6.337 0 12.367 4.967 12.367 14.038v.102c0 9.072-5.93 14.038-12.366 14.038-4.103 0-6.637-1.874-8.463-4.054V62.52h-7.703V27.244zM117.88 17.413h7.704v36.995h-7.703V17.413zM147.122 38.698c-.457-3.446-2.48-5.778-5.727-5.778-3.193 0-5.27 2.28-5.876 5.778h11.602zm-19.156 2.28v-.1c0-7.755 5.524-14.14 13.43-14.14 9.07 0 13.226 7.044 13.226 14.748 0 .608-.05 1.317-.1 2.026h-18.905c.762 3.497 3.194 5.322 6.64 5.322 2.585 0 4.46-.81 6.588-2.788l4.41 3.903c-2.535 3.14-6.183 5.067-11.1 5.067-8.16 0-14.19-5.728-14.19-14.04M196.46 39.314v-.102c0-10.084 7.853-18.344 18.598-18.344 6.385 0 10.237 1.723 13.936 4.865l-4.916 5.93c-2.734-2.28-5.167-3.6-9.272-3.6-5.678 0-10.187 5.017-10.187 11.05v.1c0 6.487 4.458 11.25 10.74 11.25 2.84 0 5.375-.708 7.35-2.128v-5.068h-7.856v-6.74h15.406v15.408c-3.647 3.09-8.663 5.624-15.153 5.624-11.048 0-18.647-7.755-18.647-18.246M253.88 43.52v-.1c0-4.005-2.89-7.5-7.147-7.5-4.41 0-7.045 3.394-7.045 7.398v.102c0 4.003 2.888 7.5 7.146 7.5 4.407 0 7.046-3.396 7.046-7.4m-21.794 0v-.1c0-7.806 6.286-14.14 14.748-14.14 8.413 0 14.646 6.233 14.646 14.038v.102c0 7.805-6.284 14.14-14.747 14.14-8.414 0-14.647-6.234-14.647-14.04M263.306 47.373V29.787h7.703V44.94c0 3.648 1.72 5.524 4.66 5.524 2.94 0 4.816-1.876 4.816-5.523V29.788h7.702V56.95h-7.702V53.1c-1.774 2.28-4.054 4.36-7.958 4.36-5.827 0-9.222-3.853-9.222-10.087M291.53 29.786h7.706v5.475c1.572-3.75 4.105-6.183 8.665-5.98v8.058h-.404c-5.117 0-8.26 3.092-8.26 9.578V56.95h-7.705V29.787zM309.17 29.786h7.703v3.853c1.774-2.283 4.104-4.36 8.007-4.36 3.547 0 6.234 1.57 7.652 4.308 2.383-2.788 5.222-4.308 8.92-4.308 5.727 0 9.173 3.446 9.173 9.984V56.95h-7.704V41.8c0-3.65-1.62-5.525-4.508-5.525s-4.663 1.876-4.663 5.525V56.95h-7.704V41.8c0-3.65-1.622-5.525-4.51-5.525-2.89 0-4.663 1.876-4.663 5.525V56.95h-7.703V29.787zM371.607 41.24c-.456-3.446-2.48-5.777-5.725-5.777-3.195 0-5.27 2.28-5.878 5.777h11.603zm-19.156 2.28v-.1c0-7.754 5.525-14.14 13.432-14.14 9.07 0 13.226 7.044 13.226 14.747 0 .61-.053 1.32-.1 2.027h-18.905c.76 3.498 3.193 5.322 6.64 5.322 2.585 0 4.46-.81 6.588-2.788l4.41 3.904c-2.535 3.14-6.183 5.067-11.098 5.067-8.16 0-14.19-5.728-14.19-14.04M382.555 49.247V36.375h-3.243v-6.59h3.243v-6.94h7.703v6.94h6.385v6.59h-6.385V47.98c0 1.774.76 2.635 2.484 2.635 1.418 0 2.686-.354 3.8-.962v6.183c-1.62.962-3.498 1.57-6.08 1.57-4.714 0-7.907-1.873-7.907-8.16" fill="#fff"/><path d="M276.77 71.515v-.02c0-1.628 1.244-2.97 2.99-2.97 1.073 0 1.744.36 2.276.957l-.99 1.064c-.36-.383-.723-.627-1.297-.627-.81 0-1.386.712-1.386 1.553v.022c0 .87.566 1.575 1.448 1.575.545 0 .915-.235 1.31-.608l.947.958c-.556.607-1.195 1.043-2.333 1.043-1.713 0-2.968-1.32-2.968-2.948M287.263 71.515v-.02c0-.842-.607-1.576-1.5-1.576-.926 0-1.48.712-1.48 1.553v.022c0 .84.608 1.575 1.5 1.575.927 0 1.48-.714 1.48-1.555m-4.577 0v-.02c0-1.64 1.32-2.97 3.096-2.97 1.767 0 3.076 1.31 3.076 2.948v.022c0 1.638-1.32 2.968-3.096 2.968-1.767 0-3.076-1.31-3.076-2.948M290.028 68.63h1.62v.81c.37-.48.85-.915 1.67-.915 1.222 0 1.937.81 1.937 2.117v3.693h-1.618v-3.182c0-.766-.36-1.16-.98-1.16-.617 0-1.01.394-1.01 1.16v3.182h-1.62V68.63zM315.894 63.45c-.09.188-.175.377-.258.565-.086.187-.172.38-.26.58-.09.197-.177.4-.26.607-.087.208-.167.415-.247.623.08-.05.153-.098.222-.148.07-.05.14-.103.21-.163.166-.128.334-.26.496-.393.164-.132.314-.274.454-.422.317-.317.588-.64.817-.966.117-.17.23-.342.34-.52.11-.177.203-.362.28-.55.042-.098.077-.193.114-.28.032-.09.066-.185.096-.283.02-.05.034-.1.044-.15l.03-.15c.01-.048.016-.095.022-.14.005-.044.012-.09.022-.14 0-.05.002-.095.008-.134.005-.04.003-.084-.008-.134 0-.08-.01-.158-.03-.237l-.044-.09c0-.01-.01-.024-.03-.044h-.014v.016h-.043c-.022.01-.038.014-.048.014-.008 0-.026.006-.045.015-.02.02-.045.037-.08.052-.037.016-.068.032-.096.053-.15.118-.283.24-.403.37-.07.07-.134.144-.194.223-.058.08-.12.16-.177.237-.05.08-.105.163-.163.246-.06.085-.115.17-.163.26l-.15.267c-.048.09-.1.18-.15.267-.047.09-.098.18-.147.276-.048.094-.098.185-.15.274m-4.512-2.272c-.02.05-.036.096-.052.14-.013.046-.033.092-.052.143-.02.04-.035.077-.046.11-.008.036-.022.077-.043.127l.096.03.098.03c.098.03.19.055.275.074.084.02.166.027.244.015.07 0 .143-.014.222-.044h.03l.032-.013.057-.03c.02-.01.04-.02.054-.03.014-.01.03-.02.052-.03.128-.078.236-.187.327-.326.068-.147.09-.29.06-.43-.022-.148-.076-.286-.165-.414-.048-.07-.104-.12-.164-.15-.038-.02-.098-.04-.176-.06-.05 0-.106.01-.164.03-.04.02-.09.05-.15.09-.06.04-.11.073-.15.104-.006.01-.014.016-.014.022 0 .005-.005.012-.013.02l-.03.03c-.01.02-.02.04-.03.053-.01.015-.02.032-.03.052-.06.06-.102.13-.132.208-.02.05-.044.094-.066.133-.027.04-.05.08-.07.12m-5.183 9.653c.03-.11.063-.208.096-.304.035-.094.066-.196.096-.305-.406.298-.782.606-1.13.923-.157.15-.305.3-.444.453-.14.153-.277.314-.415.482-.15.178-.267.347-.356.505-.11.168-.202.352-.282.55-.05.088-.08.178-.09.267-.03.088-.043.178-.043.267v.104l.027.09.03.06c.02.02.034.03.047.03.006.01.017.014.028.014.01 0 .02.005.03.015.02 0 .034 0 .043.006.01.005.026.008.046.008h.267c.01-.01.03-.015.06-.015.02 0 .05-.01.09-.03.04-.01.076-.022.104-.038.03-.016.06-.032.09-.052.068-.05.133-.102.193-.155.058-.054.12-.118.18-.186.117-.13.23-.283.34-.46.1-.17.193-.343.282-.52.087-.18.173-.363.253-.55.047-.1.09-.196.126-.29.034-.094.07-.192.11-.29l.223-.58zm11.064.327c-.177.564-.4 1.09-.668 1.574-.267.488-.562.908-.883 1.264-.322.356-.663.64-1.025.845-.36.21-.728.312-1.093.312h-.104l-.015.016h-.186c-.033 0-.077-.006-.124-.016-.08-.01-.157-.024-.23-.044-.075-.02-.152-.045-.233-.075-.137-.058-.275-.148-.415-.267-.12-.098-.22-.217-.31-.357-.05-.06-.09-.12-.12-.185-.03-.064-.06-.128-.09-.186-.058-.13-.1-.258-.133-.387-.04-.13-.07-.254-.087-.38l-.06-.362c-.04-.228-.06-.47-.06-.728v-.356c0-.06.002-.117.006-.17.006-.055.01-.112.01-.172l.058-.683c.02-.226.05-.454.09-.683.04-.227.084-.45.133-.668.052-.218.1-.44.15-.67.05-.186.103-.37.157-.555.054-.183.11-.37.17-.558-.02.01-.06.024-.118.046-.05.02-.104.037-.158.05-.054.015-.106.034-.157.053l-.162.045-.15.045-.624.18c-.197.067-.397.138-.602.206-.202.07-.403.145-.598.224-.142.05-.28.104-.42.162-.137.06-.275.125-.415.194-.02.02-.03.044-.037.074-.005.03-.016.06-.036.09-.157.386-.332.792-.52 1.217-.1.2-.196.4-.29.595-.094.2-.194.396-.302.594-.112.227-.22.426-.33.593-.107.21-.222.407-.34.594-.07.098-.134.194-.193.284l-.192.282c-.072.1-.143.194-.215.282-.076.09-.153.183-.232.283-.148.178-.323.35-.52.518-.087.08-.192.154-.31.224-.12.088-.24.157-.356.207-.14.05-.28.09-.418.12-.08.018-.152.028-.222.028H304.074c-.04-.01-.073-.017-.104-.023-.03-.004-.063-.012-.103-.022-.1-.02-.17-.04-.21-.058-.04-.01-.077-.026-.11-.045l-.11-.06c-.08-.03-.15-.085-.21-.163-.068-.06-.125-.13-.162-.21-.02-.047-.036-.09-.047-.124-.007-.035-.02-.077-.028-.127-.01-.04-.016-.08-.016-.117v-.12c0-.088.006-.158.016-.208.02-.07.04-.133.06-.192l.058-.18c.022-.05.043-.103.067-.162.024-.06.052-.114.082-.165.11-.188.238-.376.386-.565.13-.177.273-.35.43-.52.15-.167.303-.326.46-.474.16-.147.323-.296.49-.445.17-.138.34-.274.513-.407.174-.134.343-.27.512-.41.09-.058.177-.117.26-.178.083-.058.167-.118.247-.178.018-.02.028-.045.028-.074.07-.208.134-.414.194-.616.06-.203.124-.404.193-.602l.37-1.233c.06-.208.123-.416.186-.623.064-.208.127-.41.186-.61.068-.207.136-.415.2-.622.064-.21.136-.416.214-.624.13-.397.29-.802.477-1.22.178-.395.37-.795.58-1.202l.2-.378c.065-.123.135-.246.216-.363-.13-.08-.255-.154-.373-.223-.118-.07-.243-.14-.37-.208-.19-.11-.374-.208-.558-.297-.186-.09-.375-.164-.573-.224-.098-.038-.197-.07-.297-.095-.098-.026-.2-.048-.297-.068-.05-.01-.096-.014-.14-.014-.045 0-.092-.005-.143-.016h-.295c-.437.03-.834.11-1.19.24-.1.038-.193.077-.282.118-.09.04-.172.084-.25.133-.092.05-.172.105-.248.164-.072.06-.15.12-.23.18-.286.246-.51.547-.67.904-.077.18-.136.357-.176.534-.04.16-.06.342-.06.55 0 .357.07.698.207 1.026.13.315.318.592.565.83.11.11.238.214.386.313.068.05.14.094.216.134.074.04.15.075.23.103.078.04.156.073.237.097.08.026.163.048.254.068l.12.03c.038.01.083.02.134.03.017 0 .038.002.057.006.02.005.04.008.06.008h.059l.015.015h.074c.256.04.47.167.64.38.164.213.23.448.19.704-.04.268-.162.486-.37.654-.21.17-.446.234-.714.194-.028 0-.056-.004-.08-.008-.025-.006-.054-.013-.08-.023l-.09-.028-.03-.015h-.015l-.043-.014c-.052-.022-.116-.04-.195-.06-.06-.02-.12-.045-.178-.074-.062-.032-.12-.056-.178-.076-.12-.05-.24-.104-.357-.163-.12-.06-.234-.127-.343-.207-.228-.14-.44-.3-.637-.483-.2-.184-.38-.383-.535-.6-.168-.21-.308-.434-.417-.677-.11-.243-.193-.492-.254-.75-.11-.524-.118-1.034-.03-1.53.09-.494.273-.96.55-1.396.267-.415.6-.767.996-1.054.2-.14.4-.257.608-.357.21-.098.426-.182.654-.252.475-.138.93-.207 1.366-.207h.356l.358.045c.216.05.44.108.67.178.214.08.425.162.62.25.2.09.397.19.595.3.098.048.194.1.29.154.093.055.19.11.288.17.032.02.064.038.097.053.036.016.068.032.1.053.027-.04.055-.077.08-.113.024-.034.052-.075.082-.125.068-.11.137-.203.207-.283.078-.1.157-.196.237-.29.08-.093.17-.19.268-.29.018-.02.042-.043.075-.066.03-.025.058-.053.087-.083.02-.008.036-.018.045-.027.008-.01.024-.02.044-.032.018-.017.035-.03.045-.035.01-.005.022-.018.04-.037.14-.09.28-.154.42-.193.137-.06.3-.08.488-.06.18 0 .337.04.476.12.15.07.278.152.386.252.05.05.098.102.15.155.047.056.093.112.133.172.176.258.27.514.282.77.018.16.015.304-.015.433l-.06.207c-.02.07-.05.134-.088.193-.05.11-.135.223-.253.343-.09.088-.2.172-.33.252l-.176.09c-.04.02-.07.028-.09.028-.01.01-.016.015-.022.015-.005 0-.012.005-.022.015h-.014c-.01 0-.02.006-.03.015-.118.04-.264.06-.43.06-.14 0-.27-.015-.387-.046-.062-.02-.12-.037-.18-.05-.06-.017-.12-.034-.177-.054-.04-.01-.1-.034-.178-.074-.072.197-.13.41-.18.638-.057.2-.115.4-.17.608-.053.21-.11.412-.17.61-.06.207-.122.413-.186.617l-.202.616c-.07.198-.137.4-.21.602-.067.203-.137.408-.204.617-.082.196-.158.4-.232.607-.075.208-.15.41-.232.61l-.087.244c-.03.085-.065.167-.104.245.08-.04.154-.074.222-.103.07-.03.143-.064.222-.104l.602-.237c.204-.08.41-.153.616-.223.108-.038.21-.076.313-.11.097-.034.202-.067.31-.097l.163-.046.148-.043c.05-.02.104-.036.157-.05.054-.016.107-.034.157-.052.08-.02.16-.046.245-.076.084-.03.164-.06.245-.088.048-.14.1-.278.156-.416.055-.14.105-.277.156-.417.366-.84.767-1.636 1.2-2.39.11-.197.226-.388.352-.57.124-.185.248-.37.38-.558.137-.187.27-.373.408-.557.13-.183.273-.36.422-.527l.23-.26.23-.26c.078-.078.163-.158.252-.237.09-.08.184-.158.284-.237.048-.04.098-.076.147-.11.05-.036.1-.072.15-.113.048-.04.1-.077.156-.11.052-.036.115-.068.184-.098.06-.03.12-.056.186-.08.065-.026.135-.048.215-.068.04-.01.077-.018.112-.023.035-.004.076-.006.125-.006h.122c.067 0 .117.005.147.016.09.01.194.048.31.118.08.05.154.118.225.207.026.05.05.092.065.127.014.035.033.072.052.11.017.05.032.093.036.128.006.035.01.067.022.096.02.08.03.15.03.215v.202c0 .07-.004.134-.013.193l-.03.178c-.02.06-.034.12-.045.178-.01.06-.026.12-.044.18-.02.05-.038.104-.053.163-.016.06-.033.115-.05.164-.052.11-.097.214-.143.32-.045.102-.092.205-.14.303-.11.208-.226.406-.35.595-.124.187-.253.37-.395.55-.256.335-.553.667-.89.994-.317.297-.646.57-.986.823-.342.252-.695.492-1.064.72-.02.05-.04.102-.058.157l-.06.155c-.078.198-.152.395-.222.594-.068.197-.14.395-.208.592-.07.198-.136.395-.2.587-.065.193-.126.388-.187.586-.07.2-.133.396-.192.594-.06.198-.117.397-.163.594-.06.198-.113.396-.157.594-.044.198-.09.396-.142.594-.008.05-.017.1-.02.148-.007.05-.013.1-.023.15-.02.08-.04.178-.06.296l-.03.29c-.01.094-.015.19-.015.29-.008.088-.012.18-.007.274.005.094.013.18.02.26.022.08.04.16.053.238.017.08.04.15.07.207.02.04.05.09.088.15.03.038.065.074.105.102.02.02.044.034.073.038.03.007.06.018.09.037.02 0 .038.003.052.008.014.004.032.007.052.007h.118c.196.03.43 0 .69-.09.263-.088.537-.253.824-.496.287-.243.588-.577.9-1 .31-.427.616-.968.91-1.62 0-.08.034-.145.1-.194.062-.05.126-.07.185-.066.06.005.104.045.135.12.028.073.02.19-.03.347" fill="#f58521"/><path d="M317.38 70.703c.71-.923 1.536-1.678 2.474-2.263 1.057-.657 1.85-.81 2.378-.457.237.166.338.368.305.61-.014.106-.063.193-.145.26-.092.074-.21.11-.357.11-.787 0-1.506.25-2.16.753-.512.392-.938.802-1.283 1.234-.436.54-.617.992-.55 1.354.092.354.554.245 1.392-.326.66-.448 1.296-.982 1.9-1.602.052-.053.124-.138.217-.253l.246-.29c.21-.24.383-.397.524-.466.477-.226.63-.008.45.654-.055.204-.15.47-.283.798l-.212.544c-.213.687-.276 1.255-.194 1.704.09.494.35.762.776.805.665.074 1.248-.165 1.746-.717.21-.144.456-.34.742-.58.206-.178.325-.27.355-.27.182 0 .248.1.194.292-.05.19-.194.39-.435.602-.648.584-1.14.964-1.474 1.138-.406.358-1.008.433-1.805.225-.767-.193-1.178-.76-1.232-1.704-.028-.468.02-.918.146-1.35l-.848.778c-.392.358-.728.64-1.008.848-.85.634-1.565.86-2.14.682-.59-.184-.766-.69-.53-1.516.17-.58.44-1.112.813-1.595" fill="#f58521"/><path d="M326.227 67.867c.977.33 1.75.47 2.32.42.493-.037.97-.236 1.43-.594.198-.155.385-.25.557-.29.15-.03.27-.014.355.043.083.058.113.136.088.234-.024.11-.104.21-.24.296-.662.44-1.44 1.09-2.333 1.95-1.322 1.26-2.137 2.358-2.453 3.285.11-.038.26-.053.436-.05.367.016.73.126 1.094.334.638.368 1.246.556 1.82.566.576.006.97-.17 1.182-.522.202-.34.36-.504.47-.494.103.015.138.162.103.443-.087.69-.17 1.125-.253 1.305-.218.47-.64.7-1.263.69-.22-.005-.484-.11-.788-.312-.103-.068-.237-.168-.407-.298-.218-.165-.36-.27-.428-.32-.352-.26-.67-.434-.95-.52-.373-.12-.743-.12-1.117.007-.076.023-.31.11-.694.26-.273.11-.48.178-.625.203-.198.033-.337.007-.428-.08-.1-.102-.133-.293-.1-.574.062-.508.69-1.325 1.878-2.45.45-.427 1.42-1.27 2.907-2.525-.388.083-.937.09-1.652.03-.145-.015-.314-.035-.503-.06-.23-.038-.36-.057-.383-.057-.237-.03-.39-.005-.457.073-.07.078-.07.158-.007.24.085.125.133.2.138.225.017.09.012.167-.02.224-.022.033-.075.093-.162.18-.27-.048-.563-.162-.878-.34-.39-.222-.59-.45-.595-.682-.005-.26.04-.49.138-.688.06-.14.13-.24.203-.298.242-.178.78-.13 1.617.145M334.386 69.282c-.305.405-.59.833-.856 1.283.788-.18 1.392-.522 1.814-1.03.182-.212.294-.423.332-.63.044-.21.013-.38-.094-.516-.19-.223-.588.074-1.196.892m1.072 3.283c.678-.43 1.337-.937 1.98-1.52.32-.296.543-.37.667-.22.082.107-.01.31-.277.603-1.984 2.244-3.68 3.188-5.09 2.834-.253-.06-.46-.226-.614-.493-.15-.246-.25-.564-.29-.95-.09-.807.05-1.627.414-2.458.216-.498.53-1.015.94-1.552.42-.552.85-.992 1.284-1.32.485-.372.897-.542 1.24-.508.394.04.66.344.804.914.247 1.015-.218 1.875-1.396 2.582-.59.353-1.206.604-1.844.753-.125.398-.196.79-.21 1.176-.008.45.068.72.24.812.41.223 1.127.005 2.152-.653" fill="#f58521"/><path d="M341.71 66.504c1.414-1.783 2.136-3.053 2.17-3.807.013-.487-.127-.636-.415-.443-.265.18-.636.62-1.104 1.32-.998 1.51-1.924 3.3-2.775 5.373.704-.738 1.413-1.552 2.125-2.443m-.327-3.154c.575-.952 1.064-1.644 1.465-2.075.783-.855 1.5-1.152 2.155-.892.747.3.988.933.716 1.9-.248.876-.946 2.118-2.097 3.727-.953 1.335-2.492 2.93-4.62 4.787-.14.12-.307.45-.498.985-.217.606-.25 1-.09 1.183.235.267.568.4 1.003.4.45.004.95-.137 1.5-.422 1.086-.555 1.93-1.097 2.538-1.624.104-.093.202-.17.306-.234.202-.12.31-.1.32.066.013.16 0 .276-.038.348-.054.093-.187.213-.4.363-1.434 1.01-2.288 1.592-2.557 1.747-1.366.77-2.548.926-3.555.472-.28-.126-.43-.423-.448-.892-.015-.363.036-.716.16-1.06.25-.734.74-1.88 1.463-3.436 1.252-2.684 2.144-4.464 2.676-5.344M349.898 71.513c-.06-.227-.104-.454-.134-.682-.03-.227-.054-.454-.075-.683-.042-.455-.042-.902 0-1.343.04-.44.104-.883.193-1.33l.148-.64c.05-.206.114-.415.193-.62.06-.21.135-.417.225-.625.068-.19.152-.388.252-.595.09-.198.182-.394.282-.587.098-.193.203-.383.31-.57.11-.19.225-.376.343-.558.12-.184.247-.36.386-.528.268-.376.55-.712.848-1.01.148-.15.308-.294.477-.44.167-.14.34-.278.516-.406.18-.13.363-.248.553-.356.19-.11.38-.208.58-.298.098-.05.193-.094.29-.133.093-.042.193-.085.3-.135.102-.04.2-.074.3-.104.1-.03.203-.06.313-.09.205-.058.413-.11.62-.154.21-.043.418-.076.626-.096.208-.03.42-.046.64-.046.205-.008.414-.008.62 0 .113.01.22.02.328.023.11.005.217.017.328.038.107.02.214.038.318.052.105.014.21.035.32.067.227.058.445.138.654.237.108.05.212.104.312.164.1.06.198.13.295.208.19.148.36.332.52.55.08.108.148.22.21.333.057.115.11.23.162.35.08.238.128.5.147.787 0 .138-.003.272-.014.4-.01.13-.03.258-.06.387-.05.276-.128.524-.236.74-.11.26-.234.48-.372.67-.138.197-.296.386-.468.563-.173.18-.353.342-.54.49-.368.288-.77.53-1.205.728-.108.05-.216.096-.32.135-.103.04-.21.084-.32.134-.05.02-.103.036-.16.05-.062.016-.116.033-.166.054-.028.01-.056.016-.08.02-.027.007-.053.013-.082.023l-.09.015-.073.03c-.257.06-.497.023-.72-.112-.222-.134-.363-.33-.425-.586-.068-.247-.038-.48.09-.7.13-.215.312-.365.55-.444h.015l.133-.044.134-.03c.04-.02.08-.035.12-.045.04-.01.083-.023.13-.043l.493-.18.23-.11c.075-.033.15-.07.23-.11.08-.04.154-.08.222-.12.07-.04.145-.084.225-.133.136-.09.268-.187.386-.29.117-.104.227-.215.325-.334.2-.228.353-.48.46-.758.05-.138.08-.276.09-.416.02-.138.02-.277 0-.416-.02-.156-.05-.3-.09-.43-.04-.148-.107-.292-.207-.43-.1-.15-.2-.278-.312-.387-.07-.068-.137-.127-.208-.178-.068-.05-.142-.098-.223-.15-.165-.097-.34-.174-.518-.228-.18-.054-.368-.09-.567-.11-.197-.012-.39-.012-.578 0-.1.008-.195.02-.29.028-.094.01-.19.025-.287.044-.386.078-.75.198-1.086.356-.088.05-.177.1-.26.15-.085.048-.165.098-.246.147-.168.11-.32.218-.46.327-.15.13-.29.258-.422.386-.134.13-.266.26-.395.4-.258.288-.496.585-.714.893-.108.146-.213.297-.31.45-.1.155-.2.315-.3.482-.194.328-.37.665-.52 1.01-.148.347-.28.694-.397 1.04l-.093.268c-.03.09-.053.183-.074.283-.028.09-.056.177-.08.266-.027.09-.047.178-.07.267-.045.188-.086.37-.117.55-.03.177-.058.36-.087.55-.033.177-.054.36-.068.54-.018.184-.028.364-.038.543-.03.366-.03.727 0 1.084.02.356.065.698.134 1.024.038.17.08.333.124.49.047.16.098.313.157.46.117.308.266.586.444.833.17.248.386.47.654.668.07.05.137.094.21.134.067.04.14.076.22.105.08.04.16.073.238.104.08.03.164.06.253.09.078.02.162.036.252.052.09.015.177.032.268.05.017 0 .042.005.066.01s.045.007.066.007l.074.014h.075c.05.008.097.013.144.013h.14c.196.02.388.03.578.023.19-.004.382-.017.58-.036.376-.04.75-.115 1.128-.223.376-.108.737-.25 1.083-.423.347-.173.68-.374.997-.602.326-.247.612-.51.86-.787.07-.078.137-.155.2-.23.066-.074.122-.15.172-.23.01-.02.033-.054.074-.104.038-.05.08-.1.127-.155.044-.055.086-.11.126-.165.037-.054.063-.09.074-.11.027-.03.054-.07.073-.12.01-.01.018-.02.023-.03.004-.01.012-.02.023-.03l.013-.03c0-.01.005-.02.016-.03.028-.06.077-.1.14-.125.065-.025.128-.023.185.007.06.03.103.08.128.15.022.068.02.133-.007.192-.012.008-.016.017-.016.022 0 .005-.004.012-.015.02l-.014.046c-.01.01-.016.02-.024.03-.004.01-.013.02-.022.03l-.088.134c-.02.02-.05.056-.09.11l-.126.17c-.046.06-.09.117-.127.17-.04.057-.066.093-.073.114-.12.177-.253.34-.402.49-.256.297-.56.59-.906.875-.644.527-1.372.942-2.18 1.25-.2.08-.402.15-.605.214-.2.065-.406.12-.615.172-.198.05-.404.094-.616.132-.214.04-.424.07-.63.09-.052.01-.106.017-.165.022-.06.004-.114.013-.164.023H354.86c-.03.01-.085.014-.162.014-.112.01-.222.015-.335.015-.113 0-.23-.01-.35-.03-.226-.02-.46-.05-.697-.09-.12-.03-.234-.06-.35-.095-.112-.035-.23-.076-.348-.127-.108-.048-.218-.1-.333-.148-.114-.05-.228-.11-.336-.178-.108-.07-.213-.142-.31-.216-.1-.074-.195-.155-.282-.245-.1-.08-.192-.163-.275-.25-.085-.09-.167-.19-.246-.3-.08-.098-.156-.196-.224-.296-.07-.098-.134-.202-.192-.312-.118-.22-.222-.44-.305-.668-.084-.227-.158-.455-.215-.684" fill="#f58521"/><path d="M363.052 68.564c.188-.455.4-.727.637-.813.24-.095.517-.014.827.247.144.12.208.272.188.45-.02.154-.103.344-.246.565-.036.055-.445.55-1.228 1.487-.465.56-.732 1.078-.804 1.55-.08.475.047.806.378.995.268.15.62.06 1.05-.268.367-.28.774-.716 1.22-1.305.86-1.142 1.408-2.082 1.645-2.822.153-.444.387-.647.696-.608.227.024.513.183.863.477.25.207.337.404.26.587-.03.053-.197.25-.5.588-.41.464-.722.966-.934 1.508-.19.492-.238.928-.145 1.305.114.455.432.743.95.863.633.15 1.374-.123 2.225-.82.174-.123.378-.276.61-.455.338-.272.505-.403.5-.4.323-.25.517-.36.58-.324.155.086.17.237.05.45-.1.18-.354.484-.76.92-1.22 1.45-2.495 2.007-3.83 1.668-.76-.194-1.213-.7-1.363-1.516-.077-.41-.074-.8.01-1.166-.17.134-.45.41-.838.825-.414.446-.737.77-.963.974-.816.738-1.508 1.02-2.07.84-.608-.183-.918-.693-.938-1.53-.02-.685.102-1.23.362-1.63.258-.378.78-1.257 1.568-2.64" fill="#f58521"/><path d="M371.282 70.703c.71-.923 1.534-1.678 2.472-2.263 1.06-.657 1.85-.81 2.38-.457.235.166.336.368.3.61-.012.106-.06.193-.142.26-.092.074-.21.11-.356.11-.787 0-1.51.25-2.16.753-.513.392-.94.802-1.283 1.234-.436.54-.62.992-.55 1.354.09.354.554.245 1.39-.326.662-.448 1.296-.982 1.902-1.602.05-.053.125-.138.216-.253l.246-.29c.21-.24.383-.397.523-.466.478-.226.628-.008.45.654-.055.204-.15.47-.283.798-.135.344-.207.525-.212.544-.212.687-.277 1.255-.195 1.704.09.494.35.762.775.805.67.074 1.25-.165 1.75-.717.207-.144.453-.34.738-.58.207-.178.327-.27.355-.27.185 0 .25.1.197.292-.05.19-.195.39-.434.602-.648.584-1.138.964-1.474 1.138-.407.358-1.005.433-1.805.225-.765-.193-1.177-.76-1.23-1.704-.03-.468.018-.918.145-1.35l-.85.778c-.39.358-.726.64-1.007.848-.85.634-1.565.86-2.14.682-.59-.184-.767-.69-.53-1.516.17-.58.442-1.112.814-1.595" fill="#f58521"/><path d="M380.215 71.82c-.005.477.23.893.71 1.247.256.192.638.285 1.146.274.073-.2.19-.687.35-1.457.203-.94.475-1.783.82-2.53-1.05.223-1.846.605-2.385 1.147-.423.42-.636.86-.64 1.32m5.438-9.362c.59-1.368.91-2.088.95-2.16l.24-.46c.136-.263.255-.48.354-.642.316-.54.544-.734.69-.588.22.222.334.625.334 1.21 0 .228-.02.612-.064 1.153-1.793 2.815-3.26 6.51-4.395 11.088-.447 1.813-.672 2.872-.672 3.176 0 .16-.048.487-.14.98-.105.575-.18 1.11-.224 1.602-.028.455-.044 1.037-.044 1.747 0 .18-.157.066-.47-.34-.094-.363-.14-.677-.14-.943 0-.08-.032-.322-.093-.717-.052-.344-.065-.648-.042-.914.048-.45.116-.99.208-1.62-.048-.405-.185-.583-.414-.536-.45.088-.787.13-1.008.13-.632 0-1.12-.218-1.456-.66-.302-.39-.445-.897-.437-1.52.015-1.244.724-2.375 2.124-3.394.494-.36 1.103-.685 1.828-.98.653-.26.98-.353.98-.275 0-.614.63-2.393 1.89-5.337" fill="#f58521"/><path d="M386.633 67.2c.12-.005.213-.005.274 0 .177.02.252.107.233.26-.208 1.876-.492 3.35-.85 4.416.41-.84.728-1.466.944-1.876.434-.832.832-1.45 1.196-1.85.357-.4.77-.692 1.232-.87.43-.17.8-.18 1.112-.037.264.13.432.344.5.64.162.695.07 1.14-.283 1.333-.187.103-.372.07-.552-.095-.082-.075-.206-.247-.376-.514-.016-.024-.068-.125-.16-.303-.076-.14-.142-.245-.194-.312-.176-.216-.355-.222-.536-.013-.243.265-.68.99-1.305 2.174-.22.416-.655 1.368-1.305 2.85-.375.852-.664 1.295-.874 1.328-.23.033-.495-.03-.79-.195-.197-.106-.292-.26-.282-.458.004-.107.074-.357.204-.754.357-1.067.62-2.225.783-3.472.17-1.315.253-1.974.253-1.98.15-.168.305-.254.465-.254.054 0 .156-.004.313-.014M391.468 70.703c.712-.923 1.534-1.678 2.476-2.263 1.057-.657 1.85-.81 2.375-.457.236.166.337.368.305.61-.016.106-.065.193-.146.26-.093.074-.21.11-.356.11-.787 0-1.508.25-2.16.753-.513.392-.94.802-1.285 1.234-.437.54-.62.992-.55 1.354.09.354.556.245 1.39-.326.664-.448 1.296-.982 1.9-1.602.055-.053.126-.138.217-.253.135-.16.22-.257.248-.29.207-.24.382-.397.522-.466.48-.226.628-.008.448.654-.052.204-.146.47-.282.798-.135.344-.204.525-.208.544-.214.687-.28 1.255-.197 1.704.092.494.35.762.775.805.668.074 1.25-.165 1.75-.717.205-.144.453-.34.737-.58.208-.178.326-.27.354-.27.186 0 .25.1.2.292-.05.19-.196.39-.437.602-.65.584-1.138.964-1.47 1.138-.408.358-1.01.433-1.807.225-.77-.193-1.18-.76-1.234-1.704-.03-.468.02-.918.145-1.35-.033.03-.314.29-.848.778-.388.358-.728.64-1.006.848-.85.634-1.565.86-2.14.682-.59-.184-.766-.69-.53-1.516.17-.58.44-1.112.812-1.595M171.517 20.658c-.468-.545-.962-1.052-1.38-1.615-.99-1.335-1.53-2.855-1.7-4.5-.204-1.99.225-3.894.988-5.706 1.73-4.095 4.688-6.906 8.96-8.233 2.638-.82 5.295-.838 7.904.147 1.9.718 3.47 1.883 4.524 3.67.627 1.067.932 2.238 1.07 3.456.155 1.363.035 2.707-.294 4.04-.29 1.155-1.408 1.485-2.332 1.086-.56-.24-.762-.744-.77-1.302-.007-.454.092-.908.142-1.364.124-1.176.144-2.345-.344-3.456-.692-1.566-1.914-2.554-3.5-3.12-1.25-.443-2.545-.493-3.843-.338-4.807.58-8.064 4.326-9.053 7.903-.364 1.314-.386 2.66-.06 3.987.407 1.675 1.497 2.806 2.997 3.584 1.052.545 2.173.813 3.357.824 1.2.01 1.917.914 1.634 2.095-.055.232-.16.463-.286.67-.237.39-.614.557-1.07.56-1.44.02-2.874.132-4.295.37-2.134.355-4.2.97-6.2 1.792-2.673 1.096-5.148 2.527-7.353 4.403-2.125 1.806-3.89 3.91-5.152 6.41-1.325 2.624-1.752 5.413-1.406 8.32.26 2.182 1.254 4.03 2.744 5.617 1.668 1.777 3.737 2.916 6.005 3.735 1.866.676 3.79 1.077 5.762 1.245.96.082 1.925.162 2.885.15 6.388-.09 12.22-1.924 17.42-5.658 2.466-1.773 4.456-4 5.908-6.677 1.004-1.845 1.544-3.826 1.673-5.922.07-1.18.08-2.362-.22-3.514-.75-2.913-2.674-4.7-5.508-5.496-2.054-.575-4.12-.434-6.134.256-2.268.775-4.216 2.034-5.68 3.96-1.396 1.835-2.1 3.898-1.98 6.222.098 1.917 1.123 3.138 2.86 3.8 1.78.678 3.532.53 5.24-.29 1.303-.63 2.387-1.517 3.16-2.755.518-.824.75-1.72.64-2.693-.048-.445-.226-.844-.485-1.203-.19-.262-.464-.368-.79-.375-.55-.015-1.064-.14-1.42-.606-.416-.54-.51-1.135-.234-1.758.29-.64.828-.94 1.51-.956 1.66-.038 2.904.684 3.776 2.088.993 1.605 1.123 3.327.684 5.12-.58 2.396-2.015 4.16-4.09 5.424-1.96 1.192-4.09 1.786-6.383 1.643-2.75-.17-4.992-1.314-6.565-3.626-.758-1.116-1.103-2.38-1.142-3.713-.09-3.364 1.053-6.305 3.138-8.906 1.31-1.634 2.942-2.855 4.8-3.82 3.15-1.64 6.263-3.34 9.395-5.01 2.003-1.065 4.016-2.113 6.01-3.184 1.344-.718 2.487-1.674 3.172-3.055.833-1.678.815-3.358-.192-4.98-.643-1.037-1.613-1.46-2.8-1.455-.39 0-.772-.058-1.112-.262-.62-.374-.888-1.083-.7-1.81.185-.713.718-1.153 1.495-1.165 2.48-.04 4.48.88 5.888 2.983 1.89 2.83 1.73 6.634-.393 9.362-1.145 1.472-2.543 2.615-4.194 3.475-2.44 1.272-4.854 2.584-7.28 3.878-.046.025-.087.055-.085.055.773.257 1.586.468 2.355.795 2.916 1.242 4.825 3.44 5.873 6.405.607 1.72.76 3.496.65 5.307-.132 2.08-.56 4.093-1.362 6.02-.714 1.72-1.75 3.246-2.91 4.69-2.29 2.85-5.124 5.027-8.33 6.74-2.884 1.544-5.958 2.556-9.15 3.223-2.038.425-4.095.67-6.177.69-4.2.043-8.254-.624-12.083-2.425-1.803-.85-3.448-1.95-4.87-3.35-2.103-2.07-3.512-4.535-3.93-7.482-.614-4.272.21-8.255 2.476-11.94 1.848-2.996 4.274-5.43 7.145-7.444 2.767-1.944 5.795-3.35 8.987-4.417.63-.212 1.275-.388 1.912-.58.042-.013.082-.03.1-.035" fill="#f58521"/></svg>