<svg xmlns="http://www.w3.org/2000/svg" width="440" height="306.787"><g fill-rule="evenodd"><path d="M384.077 190.634l3.575-4.158 3.9-5.034 2.927-5.69 2.925-5.69 2.277-6.35 1.625-6.347.978-6.346.323-6.785-.323-6.786-.978-6.566-1.625-6.566-2.277-5.91-2.926-5.69-2.927-5.472-3.9-5.034v-.22l3.578-.656 4.55-.22 4.55.22 4.23.657 4.226 1.094 4.228 1.533 3.9 1.968 3.576 2.19 3.58 2.845 2.925 2.845 2.926 3.282 2.604 3.504 2.273 3.72 1.95 3.94 1.302 4.16 1.3 4.594.65 4.597v9.192l-.65 4.597-1.3 4.16-1.302 4.156-1.95 3.94-2.274 3.72-5.53 6.786-2.925 2.845-3.58 2.847-3.575 2.187-3.9 1.97-4.23 1.533-4.226 1.094-4.23.658-4.55.438-4.55-.438-4.553-.657-2.6-.656" fill="#ed1d29"/><path d="M326.202 202.017l3.577-3.284 4.875-6.128 4.553-6.347 4.227-6.786 3.25-7.44 2.927-7.44 1.625-7.882 1.3-8.1.653-8.534-.652-8.536-1.3-8.097-1.626-7.88-2.926-7.66-3.25-7.443-4.228-6.784-4.553-6.348-1.625-1.968 4.227-.22 6.178.44 5.528.873 5.528 1.532 5.2 1.97 5.204 2.408 4.876 3.063 4.55 3.284 3.902 3.94 3.9 4.16 3.253 4.594 2.603 4.815 2.6 5.253 2.277 5.252 1.302 5.69.65 5.91.325 5.91-.326 6.127-.65 5.692-1.3 5.69-2.278 5.472-2.6 5.033-2.603 5.034-3.252 4.377-3.9 4.16-3.903 3.94-4.55 3.282-4.876 2.846-5.203 2.625-5.2 1.972-5.527 1.532-5.528.874-6.178.44-5.527-.44-5.528-.873" fill="#f6b913"/><path d="M248.495 211.428l1.95-1.096 9.756-7.222 8.778-7.66 8.128-8.535 6.504-8.755 5.202-9.412 2.276-5.035 1.626-5.252 2.6-10.285.976-10.507-.326-5.47-.65-5.473-.975-5.252-1.626-5.254-1.626-5.035-2.276-5.033-5.202-9.41-6.504-8.757-3.9-4.595-3.902-3.94-4.227-3.94-4.876-3.94-6.178-4.377L257.6 66.1l7.477-1.096 7.477-.22 7.48.22 7.477 1.095 6.83 1.97 6.826 2.625 6.503 3.063 5.85 3.722 5.855 4.377 5.202 5.034 4.552 5.254 4.225 5.91 3.577 6.128 2.926 6.565 2.6 7.003 1.952 7.225.975 7.44.325 7.66-.325 7.66-.975 7.662-1.952 7.005-2.6 7.003-2.926 6.565-3.577 6.13-4.226 5.908-4.553 5.472-5.202 4.816-5.854 4.377-5.85 3.94-6.504 3.064-6.827 2.626-6.83 1.75-7.476 1.315-7.48.436-7.477-.436-7.478-1.315-6.828-1.75-2.277-.875" fill="#1f9946"/><path d="M144.778 231.782l-14.633-.438-14.63-1.313-13.655-2.624-13.332-3.065-12.68-3.94-12.03-4.815-11.054-5.47-10.404-6.13-9.105-6.784-8.452-7.222-7.154-7.88L11.47 174l-4.876-8.534-3.577-8.974L.74 147.08l-.65-9.63.327-4.815.324-4.597.977-4.815 1.3-4.597 1.627-4.596 1.95-4.595 4.877-8.756 6.18-8.098 7.153-7.66 8.452-7.442 9.105-6.567 10.404-6.128 11.054-5.47 12.03-4.597 12.68-3.94 13.332-3.283 13.656-2.407 14.63-1.314 14.632-.437 14.63.437 14.305 1.314 13.656 2.407 13.33 3.282 12.354 3.94 12.03 4.598 11.056 5.47 10.08 6.128 9.428 6.567 4.553 3.502 3.902 3.94 3.575 3.72 3.578 3.94 6.177 8.097 4.878 8.755 1.95 4.595 1.626 4.596 1.3 4.597.976 4.815.324 4.597.326 4.814-.65 9.63-2.276 9.412-1.627 4.377-1.95 4.596-4.878 8.534-6.177 8.1-7.153 7.878-8.454 7.223-9.43 6.786-10.078 6.128-11.055 5.47-12.03 4.817-12.354 3.94-13.33 3.066-13.657 2.625-14.306 1.314-14.63.438M158.018 18.603l5.528-.656.324.875v.657l.65 1.312.976 1.094.65.22.977.437.65.438.975.22h1.95l.652-.22h.65l.975-.218.65-.438.975-.875.325-.44.326-.435v-.657l.325-.44v-.218l-.324-.438v-.436l-.325-.658-.65-.437-.65-.22-.976-.435-1.952-.438-1.95-.658h-.65l-.975-.438-1.627-.22-2.275-1.093-.65-.44-.975-.436-.326-.657-.65-.438-.976-1.314-.65-2.19V6.785l.325-.875V5.47l.65-1.095.324-.875.65-.875.977-.657.65-.438.976-.656 1.626-.438 1.3-.22L168.098 0h2.926l1.3.22 1.626.218 1.3.438.976.436.975.44.65.875.976.656.652.876.324 1.092.325.44v.437l.326.654v1.314l-5.853.22V7.66l-.325-.436-.325-.66V6.13l-.324-.44-.65-.438-.327-.22-.65-.216-1.302-.44h-1.95l-1.625.22-.65.22-.977.436-.324.44-.326.437-.325.435v.876l.326.44v.437l.326.22.65.436.975.44.975.217 2.602.876 2.6.437 2.6.876.976.437.977.437.975.657.65.658.65.438.65 1.093.327.657v.438l.323 1.312v3.283l-.324.656-.327.657v.438l-.326.658-.325.437-1.625 1.314-.976.874-.65.22-.975.437-1.625.44-1.3.218-1.3.22h-2.928l-1.625-.22-1.3-.22-1.627-.437-.974-.437-.65-.656-.977-.438-.65-.877-.65-.656-.65-.876-.327-.874-.324-.876-.327-1.312-.325-1.315M127.13 14.008V11.38l.326-.874V9.63l.325-.876.326-.874.325-.875.326-.876 1.3-1.753.652-.656.975-.876.975-.655.65-.44.975-.656h.65l1.302-.656 1.625-.22L139.485 0h3.577l.974.22.977.218.975.22.976.436.975.438.974.438.976.657.975.875.975.875.65 1.095.65.876.652 1.312.65 2.408v.875l.326.876v3.94l-.326.875-.65 2.625-.327.876-.324.875-.323.658-.326.656-.324.438-.65.657-.325.655-.65.438-.65.438-.65.44-.65.437-.65.437-1.3.657-1.627.44-1.3.218-1.626.22h-2.276l-.974-.22h-.976l-.976-.22-.975-.437-1.95-.656-.976-.437-.977-.876-.975-.656-.975-.875-.65-1.096-.65-1.094-.65-1.094-.326-1.094-.324-1.314v-.875l-.325-1.97v-.875zm5.854-.22l.324 2.628.65 2.187.325.657.976 1.315.65.655.974.656.976.438.976.438.975.22h2.277l1.3-.22.976-.22.974-.656.65-.656.977-.655.325-.44.323-.436v-.44l.326-.438.325-1.312.65-2.627v-2.407l-.326-1.314-.325-1.094-.326-1.314-.327-.874-.65-.656-.65-.876-.65-.44-.975-.656-.976-.22-.975-.435h-2.6l-1.3.22-.977.216-.65.22-.65.438-.65.44-.326.435-.65.876-.65.877-.325 1.095-.327.875-.325.875-.324 1.752v.875M106.646 27.36V.656h5.854v22.105h14.305v4.597h-20.16M80.637.438h5.852v19.04l.323.658.65 1.094.327.438.65.438.65.437 1.3.438h2.927l1.3-.218.65-.22.325-.218.976-.875.325-.44.326-.874.323-.657V.437h5.853V17.29l-.325 1.532v1.314l-.325 1.97-.324.875-.65.877-.324.656-.652.657-.65.438-1.3.875-.65.22-.65.437-.65.22-1.302.218h-.975l-1.3.22h-.976l-2.274-.22-1.952-.22-.974-.218-1.302-.438-.974-.438-.976-.656-.975-.657-.65-.875-.65-1.094-.326-.874v-.657l-.65-2.628V.438M63.08 27.36V4.815h-8.454V.438h22.76v4.378H68.93V27.36H63.08M26.34 14.008v-1.75l.325-.877V9.63l.324-.876.324-.874.325-.875.65-.876.324-.878.65-.875.65-.656.976-.876.65-.655.977-.44.975-.656 1.95-.656 1.627-.22L38.693 0h3.576l.976.22.976.218.975.22.974.436.976.438.65.438 1.302.657.976.875.975.875.65 1.095.65.876L53 7.66l.325 1.094.326 1.314v.875l.325.876v3.94l-.324.875v.875l-.325.876-.65 1.75-.325.875-.326.658-.325.656-.977 1.095-.324.655-.652.438-.65.438-.65.44-.65.437-.652.437-1.3.657-1.624.44-1.627.218-1.3.22h-2.277l-.975-.22h-.974l-.976-.22-.977-.437-.975-.218-.976-.438-.975-.437-.974-.876-.976-.656-.975-.875-.65-1.096-.65-1.094-.65-1.094-.326-1.094-.325-1.314v-.875l-.326-1.97v-.875zm5.85-.22l.327 2.628.324 1.094.326 1.093.326.657v.44l.65.875.975.655.65.656 1.302.438.973.438.975.22h2.276l.976-.22.976-.22.976-.656.975-.656.65-.655.324-.44.328-.436.324-.44.324-.438.327-1.312.324-1.313v-5.035l-.324-1.094-.327-1.314-.648-.874-.327-.656-.65-.876-.974-.44-.65-.656-.975-.22-.974-.435h-2.602l-1.3.22-.975.216-.652.22-.65.438-.65.44-.65.435-.65.876-.326.877-.65 1.095-.325.875v.875l-.326.876v1.75M.328 27.36V.437h14.306l2.275.22 1.3.218.975.218.977.438.65.438.65.657.65.656.324.657.652.876v.875l.325.875V9.85l-.325.656-.326.656-.326.438-.324.657-.325.437-.65.657-.975.658-.977.438-.975.437-.974.22-1.3.436 1.3.657 1.3.874.65.44.324.657.652.436.324.657.975 1.315.976 1.53 3.578 5.254H18.86l-3.9-5.91-1.3-1.75-1.302-1.753-.65-.656-.65-.437-.65-.437-.976-.22h-.976l-1.3-.218H6.18v11.38H.328zM6.18 11.82h5.852l2.276-.22.976-.22h.325l.65-.218.65-.656.326-.22V9.85l.324-.438V7.005l-.324-.44-.327-.436-.325-.44-.65-.438-.65-.22h-1.626l-3.253-.216H6.18v7.003" fill="#2e3596"/><path d="M376.388 273.963v-4.047l.333-2.022.335-2.25.333-2.022.334-2.024.67-2.024.667-2.022 1.336-2.247 1-2.024 1.67-2.023 1.67-2.023 1.67-1.574 2.005-1.574 2.005-1.35 2.004-1.347 1-.45 3.34-1.125 3.674-.9 3.337-.45h6.013l2.34.225 2.338.226 2.005.675 2.337.674 2.337.9 2.003.898 2.004 1.125 2.337 1.8 2.337 2.022 2.01 2.247 1.666 2.25 1.67 2.695 1 2.7 1.004 2.696.667 2.924.336 2.247.334 2.473v8.993l-.334 2.022-.336 2.023-.334 2.25-.667 2.024-.67 2.022-1 2.024-.667 1.8-1.004 1.348-1 1.574-1.004 1.348-1.334 1.35-1.004 1.123-1.337 1.35-1.67.9-1.334 1.123-1.337.9-1.667.674-1.67.674-1.67.674-1.672.45-1.67.224-2.004.45-2.67.225h-5.346l-2.337-.224-2.336-.226-2.004-.45-2.34-.674-2.338-.9-2-1.122-2.004-1.124-2.34-1.574-2.338-2.024-2.004-2.247-1.67-2.248-1.667-2.473-1.005-2.698-1.003-2.923-.667-2.7-.334-2.247-.332-4.497v-2.473zm13.36-.45v3.15l.334 2.92.666 2.924 1.004 2.922 1 2.247.667.9 1.003 1.124.666.9 1 .9 1.003.9 1.004.673 2.004 1.125 2.338.9 2.67.448 2.338.225h2.674l2.337-.673 2.337-.9 2.337-1.124 1.005-.673 1-.9.667-.9 1.004-.9.667-1.124.67-.9.667-1.122.333-1.125 1.004-2.923.666-2.923.334-3.148v-6.07l-.334-2.923-.666-2.92-.67-2.7-.667-1.124-.334-.9-1.337-2.024-1.67-1.798-1.672-1.348-2-1.124-2.007-.9-2.337-.675-2.337-.223-1.67-.225-1.667.225h-1.672l-1.67.45-1.67.675-1.67.674-1.338.898-1.334.9-1.337 1.124-.667.9-1.004 1.123-.668 1.124-1 2.25-.67 1.124-.667 2.248-.333 2.247-.334 2.024v4.047M356.35 282.058l12.356 4.045-.333 2.024-.67 1.8-1 2.02-.67 1.576-1 1.8-1.338 1.572-1 1.573-1.337 1.575-1.667 1.35-1.67 1.123-2.007 1.124-1.667.9-2.005.898-2.002.45-2.004.45-2.004.225-2.004.224h-4.675l-2.337-.224-2.005-.45-2.337-.45-2.004-.9-2.003-.9-2.337-1.347-1.67-1.124-2.004-1.575-1.67-1.798-1.67-1.575-1.336-2.022-1.002-2.023-1-2.024-1.004-2.25-.667-2.247-.67-2.924-.333-2.922-.333-2.923v-7.417l.333-2.024.668-4.498.67-2.023.665-2.25 1.004-2.023.667-1.798 1.002-1.574 1.002-1.575 1-1.573 1.672-1.348 1.336-1.35 1.336-1.124 1.67-1.125 1.336-1.122 1.67-.9 2.003-.674 1.67-.9 2.004-.45 1.67-.448 1.67-.226 1.67-.224h5.01l2.338.224 2.003.226 2.34.675 2 .674 2.004.9 2.003.898 1.67 1.35 1.338.9 1.338 1.123 1 1.124 1.004 1.124 1 1.124 1.337 2.698 1.332 2.696.337 1.35.666 1.8-13.027 2.92-.334-1.573-.667-1.35-.667-1.574-1.004-1.123-1.002-1.348-1.003-.9-1.335-.9-1.336-.673-1.67-.675-1.337-.226-1.67-.223-1.335-.225-2.337.225-2.338.45-1.67.898-2.005 1.125-2.003 1.35-.67.898-1.002.9-.332.898-.67.9-1 2.248-.668 2.248-.668 2.474-.334 2.47v10.12l.667 2.697.335 2.698.667 2.023.668 1.8 1.003 1.572 1.335 1.575 1.003 1.124 1.336 1.124 1.334.674 1.337.675 1.003.45 1.67.45 1.336.224h3.338l2.003-.448 1.672-.675 1.67-.675 1.67-1.123 1.336-1.125 1-1.575 1.005-1.574.666-1.572 1-3.148.67-1.798M254.487 305.662v-64.07h32.396l5.01.672 2.672.45 2.337.9 2.003.898 1.67 1.125 1.67 1.35 1.336 1.572 1.004 1.797 1 1.8.67 2.023.334 2.022.333 1.574v3.373l-.332 2.92-.67 1.575-.334 1.35-.667 1.572-1.002 1.126-.668 1.348-1 .9-1.003.9-1.67 1.35-2.338 1.348-2.338.898-2.338.675-2.672.45 1.67.676 1.336 1.123 1.337.898 2.338 2.25 1.336 1.348 1 1.35 1.003 1.348 2.34 3.372 2.002 3.372 8.015 12.364h-15.697l-9.35-13.714-2.674-4.27-3.004-4.048-1.337-1.572-1.67-1.35-1.67-.9-1.67-.45-2.67-.223-2.673-.226h-2.672v26.752h-12.69zm12.69-36.87h14.03l4.34-.225 2.672-.45 1-.223 1.002-.675.67-.45.667-.9.666-.9.668-.9.334-.898.334-1.123v-1.575l-.334-2.25-.334-.898-.334-1.125-.667-1.123-1.002-.9-1.336-.674-1.335-.45-1.337-.45h-2.34l-7.01-.225h-10.355v16.413M246.806 305.662H232.78l-5.68-14.388h-25.714l-5.343 14.388H182.35l25.048-64.07h13.693l25.716 64.07zm-24.046-25.404l-8.683-23.83-8.684 23.83h17.367M129.58 305.662V242.04h13.027v52.83h32.06v10.792h-45.086M59.782 273.963v-4.047l.333-2.022.334-2.25.333-2.022.67-2.024.667-2.024.668-2.022 1-2.247 1.338-2.024 1.335-2.023 1.67-2.023 1.672-1.574 2.003-1.574 2.003-1.35 2.337-1.347.67-.45 3.672-1.125 3.34-.9 3.34-.45h6.012l2.336.225 2.34.226 2.337.675 2.003.674 2.338.9 2.003.898 2.338 1.125 2.338 1.8 2.004 2.022 2.005 2.247 1.67 2.25 1.668 2.695 1.336 2.7.67 2.696.666 2.924.333 2.247.336 2.473.335 2.25v4.494l-.334 2.25v2.02l-.668 2.024-.333 2.25-.67 2.024-1.336 4.046-1 1.8-.67 1.348-1.002 1.574-1.336 1.348-1 1.35-1.337 1.123-1.337 1.35-1.336.9-1.67 1.123-1.335.9-1.67.674-1.67.674-1.67.674-1.67.45-1.67.224-1.67.45-3.005.225h-5.344l-2.338-.224-2.004-.226-2.336-.45-2.338-.674-2.338-.9-2.003-1.122-2.005-1.124-2.338-1.574-2.337-2.024-1.67-2.247-2.003-2.248-1.337-2.473-1.335-2.698-1.003-2.923-.668-2.7-.335-2.247-.333-4.497v-2.473zm13.358-.45v3.15l.334 2.92.668 2.924 1.003 2.922.334 1.124.665 1.123.67.9 1 1.124.67.9 1 .9 1.002.9 1.003.673 2.003 1.125 2.338.9 2.673.448 2.67.225h2.34l2.337-.673 2.338-.9 2.34-1.124 1-.673 1.002-.9 1.002-.9.667-.9.667-1.124.668-.9 1.337-2.247.668-2.923.668-2.923.333-3.148.335-2.922-.334-3.147-.332-2.924-.668-2.92-.668-2.7-.67-1.124-.333-.9-1.336-2.024-1.336-1.798-2.005-1.348-2.003-1.124-2.003-.9-2.34-.675-2.002-.223-1.67-.225-2.004.225H87.5l-1.67.45-1.67.675-1.334.674-1.67.898-1.335.9-1.336 1.124-.668.9-1.002 1.123-.67 1.124-1 2.25-.333 1.124-.668 1.123v1.126l-.668 2.247v2.024l-.334 2.025v2.022M0 284.98l12.692-1.35.667 3.598.667 1.574 1.002 1.574.667.898.67.9.666.675 1.002.673 1.002.675 1 .45 1.003.45 1.003.448 2.337.225 2.34.226h1.668l1.67-.225 1.67-.448 1.67-.45 1.337-.674 1.67-.9 1-1.35 1.002-1.348.334-.9.335-.898v-.675l.334-.9v-.898l-.335-.676v-.674l-.334-.675-.333-.675-.667-.45-.334-.673-.668-.45-1.67-.9-1.67-.673-5.01-1.35-4.676-1.35h-.667l-3.007-.898-3.005-.9-2.672-1.122-2.67-1.126-1.67-1.123-1.67-1.35-1.336-1.123-1.337-1.575-1-1.348-1.003-1.8-.668-1.573-.334-1.798-.333-1.8v-3.147l.332-2.473.334-1.124.334-1.125.668-1.123.334-1.124.668-1.124 1-.9.67-.9 1.67-1.8 2.003-1.348 2.34-1.123 3.004-1.125 3.34-.9 3.34-.45h6.68l3.34.45 3.004.676 3.34 1.124 2.338.9 2.005 1.573 2.003 1.574 1.002.9.67.9.667 1.124.668 1.124 1 2.247.335 1.35.335 1.124.333 1.347.334 1.125v2.024l-13.024.45-.334-1.35-.334-1.35-.334-1.123-.67-1.348-1-1.125-1.002-.9-1.003-.674-1.336-.45-1.337-.45-1.335-.224-1.67-.225h-3.006l-2.003.225-1.67.45-1.67.45-1.002.45-1 .674-.67.898-.667.9-.668 1.124v2.023l.334 1.124.667.675 1.003 1.124 1.335.9 1.67.898 2.004.675 3.004.9 3.006.674 3.005.676 3.007.9 3.006.898 3.006 1.125 2.003.896 2.337 1.125 2.004 1.575 1.67 1.574 1.002 1.348 1.67 2.247.333 1.35 1.003 2.697.335 2.923v3.82l-.334 2.924-.333 1.35-.67 1.348-.667 1.348-.668 1.35-.668 1.123-1 1.348-1.003 1.124-2.003 1.798-2.673 1.574-1.336.675-1.335.45-3.006.898-3.34.675-3.34.224h-6.68l-3.006-.45-3.338-.675-3.34-.898-2.004-1.124-2.005-1.124-1.67-1.575-1.67-1.572-1.668-1.798-1.336-2.024-1-2.023-.67-2.473-.334-1.35-.668-3.146L0 284.98" fill="#ed1d29"/><path d="M207.853 162.182l2.925-6.347 5.853-13.132 2.603-6.566 1.625-5.91 2.276-1.75 3.252-1.532.65-.44.65-.218h1.624l.653.22.975.218.648.438.652.44 1.952 1.31 1.95 1.313.65 1.314-.326.657-.65.657-1.624 5.033-1.627 4.816-.977 3.283-.322 2.846-.326 2.844-.325 2.847v3.718l.325 1.097.326.876.65.656.65.656.65.656.976.22.974.217 3.253-.875 5.202-4.378.323.874.325 1.316v1.313l-.325 1.092-1.95 3.94-8.78 5.91-2.275.22-1.95.218-2.277-.22-1.95-.436-3.576-2.408-.65-1.095-.653-.873-.973-2.41v-1.314l-.325-1.09v-1.316l-.324-1.093.324-4.38.65-2.406.65-2.627v-.218l-.323-.437-.327-.218h-.65l-.325.218v.22l-.326.436-.975 2.847-8.128 18.167.648 2.187-.65.877-.65.656-.976.44-.975.436-.65.218H203.3l-.65-.22-1.95-1.968h-1.627l-.65-.22-.65-.437-.323-.656-.652-.438-.324-1.533-.326-3.94v-3.94l-.975.875-.976.66-1.3.872-.976.438-1.3.44-1.3.217-1.626.218-1.3-.22-1.3-.216-1.302-.44-1.3-.438-.975-.873-1.302 1.97-1.3 1.75-1.3 1.53-1.95 1.535-1.626 1.312-1.952 1.094-1.625.877-2.276.656-3.903-.656h-1.3l-1.625-.218-1.303-.44-1.3-.657-3.576-3.282-.65-1.093-.65-1.314-.326-1.094-.65-1.532-.324-1.315-.325-1.31-.325-2.63.325-4.16.976-8.534.65-4.16 1.628-4.813 1.623-4.815.327-2.41.975-.874 1.625-.657 2.926.22h2.602l2.602-.22 2.6-.217.975-.44.65-.655 1.954-.436 3.575.436 1.952.438 1.625.657 1.95 1.97 2.6 5.47.978 5.692-.326 3.94-1.626 6.786-1.626 6.566.976.874.974.876 1.952.22 1.95.436 2.277-1.093 2.276-2.19 2.275-1.97.65-6.785.652-7.005-.327-2.844.327-2.625.974-2.188-.65-.877-.324-.437v-1.53l.323-.44.326-.438 2.6-1.75 1.95.656 1.626.22 1.95-.22 1.953-.657 1.298.656 1.627 1.094.974 1.53.648 1.754-.65 2.19-.973 2.186-.65 4.597-.977 4.596-.65 4.598-.975 9.192zm-72.504-35.676l1.948.44 2.927 2.187 2.926 2.19.652.874 1.3 2.408.325 1.312.325 1.313.327 1.314.32 1.095v1.31l-.648 4.38-.65 1.53-.65 1.315-.65 1.532-.976 1.095-.974 1.312-.977 1.094-1.3.876-1.3.874-2.602 1.752-2.276.657h-.974l-1.302.22-1.625.216-1.95-.217-1.626-.22-.976.437-.326 1.315.652 2.408.323 1.093.65.873.976.877.975.658.975.657.975.436 1.3.222h.978l4.227-.657 4.875-1.972 3.577-3.064 3.575-3.283.652-.657.648-.656.65-.657.653-.657.65.874v3.284l-.325 1.75-.324 1.754-1.302 1.968-10.73 7.66-2.598 1.533-2.603.876-6.828 1.094-2.602-.22-2.275-.875-1.952-1.097-1.95-1.312-1.625-1.312-1.626-1.313-1.302-1.53-1.3-1.533-.65-1.75-.326-1.753-.323-3.503v-3.723l.322-3.72.327-3.94.974-3.72.65-3.938.975-3.503 1.3-3.722 1.625-3.5 1.626-.22 3.904-1.53 3.9-.875 4.227-.44h4.23zm36.738-7.222l-2.602.657h-4.227l-1.626-.217-.325-.658.65-2.846.977-2.845.973-2.845.977-2.846.974-.438.976-.22h4.553l2.6.22 4.225-.437.652.217.324.22v1.092l-.323.656-6.5 8.535-2.28 1.754zm6.827 35.02l.65-1.97.65-2.19.327-2.408v-2.188l-.327-2.19-.65-2.188-.65-2.188-.974-1.97-.65 3.284.65 11.818.975 2.19zm-8.778-9.195l.976-8.755v-.657l-.976-.218-.325.218-.65.44-.326.655-1.626 5.472-.974 5.47-.65 10.725.324 3.942.977 3.94 1.3 1.31 1.625.657 1.626-.22 1.625-.873 3.576-5.91-1.3-1.094-.652-1.753-1.3-1.53-1.3-5.91-1.95-5.91zm-43.243-4.377l-1.3 5.47-.976 5.692.326.656.975.44 1.3.218h2.275l1.95-2.406 1.302-2.627.975-2.846.65-2.846.65-4.377-.65-3.94-.325-1.096-.975-1.092-.976-.656-.975-.22-.975.876-.65 1.314-2.6 7.44zm-40.64-24.295l-2.277 3.503-3.577 6.566-3.252 6.565-3.25 6.787-2.927 6.786-2.925 7.004-2.602 6.783-2.275 7.005-2.276 7.222-1.3 1.095-2.275.218-2.602-.218-1.303.437-1.625-1.094-1.3-1.096-.976-1.53-.65-1.752-1.3-.438-.65-.44-.65-.435v-1.53l.65-8.757.65-8.756.977-17.944 1.625-10.288-.65-1.972-.65.22-.65-.22-.326-.435-.325-.44v-.218l-.973-.877-.653-1.093.653-1.97.974-1.97.326-3.72 2.927-7.222 7.803-1.753 1.95.438 1.627.876.65-.22h1.95l.65.44.976.437.648.438.65.657.327.657-.326 3.72-.652 3.502-.974 3.504-1.302 3.5-1.624 8.755-.975 8.754-.977 8.755-.65 8.975 4.226-9.63 3.903-9.632 4.552-8.972 4.877-8.537 5.203-8.537 5.2-8.536 1.302-.657 1.3-.437h3.25l3.577 1.75 3.576 1.314 1.302.875.975 5.034-.325.436-.326.44h-.975l-.976 2.187L99.58 116l-1.3 5.254-1.3 5.47-1.3 5.254-.652 4.815-.65 4.595v5.036l.327 4.814.648 4.16 1.628 2.405 1.624.877 1.626-.44 1.627-.654 1.3-.657 1.3-.876.65.217.325.44v.876l-.325.438v.874l-.974 1.75.323 1.097.975.217.65.22.65.437.326.656-.325 1.094-2.925 2.19-2.6 1.97-1.95.437-1.628.657-1.626.656-1.626.874-1.95.22-1.95-.22-1.952-.217-1.95-.876-.977-.874-.973-1.095-.977-1.312-.974-1.093-.65-1.534-.325-1.31-.65-1.534-.324-1.312-.652-8.537v-3.94l.326-3.72.326-3.72.648-3.504 1.628-5.033 2.275-10.07.976-5.032" fill="#fff"/></g></svg>