<?xml version="1.0" encoding="UTF-8" standalone="no"?>
<svg
   xmlns:dc="http://purl.org/dc/elements/1.1/"
   xmlns:cc="http://creativecommons.org/ns#"
   xmlns:rdf="http://www.w3.org/1999/02/22-rdf-syntax-ns#"
   xmlns:svg="http://www.w3.org/2000/svg"
   xmlns="http://www.w3.org/2000/svg"
   xmlns:sodipodi="http://sodipodi.sourceforge.net/DTD/sodipodi-0.dtd"
   xmlns:inkscape="http://www.inkscape.org/namespaces/inkscape"
   viewBox="0 0 167.41 66.25"
   version="1.1"
   id="svg46"
   sodipodi:docname="soppexcca.svg"
   inkscape:version="0.92.1 r15371">
  <metadata
     id="metadata50">
    <rdf:RDF>
      <cc:Work
         rdf:about="">
        <dc:format>image/svg+xml</dc:format>
        <dc:type
           rdf:resource="http://purl.org/dc/dcmitype/StillImage" />
        <dc:title>logo_soppexcca</dc:title>
      </cc:Work>
    </rdf:RDF>
  </metadata>
  <sodipodi:namedview
     pagecolor="#ffffff"
     bordercolor="#666666"
     borderopacity="1"
     objecttolerance="10"
     gridtolerance="10"
     guidetolerance="10"
     inkscape:pageopacity="0"
     inkscape:pageshadow="2"
     inkscape:window-width="1280"
     inkscape:window-height="656"
     id="namedview48"
     showgrid="false"
     inkscape:zoom="2.6223045"
     inkscape:cx="83.705002"
     inkscape:cy="33.125"
     inkscape:window-x="0"
     inkscape:window-y="27"
     inkscape:window-maximized="1"
     inkscape:current-layer="svg46" />
  <defs
     id="defs4">
    <style
       id="style2">.cls-1,.cls-4{fill:#231f20;}.cls-1,.cls-2,.cls-3{fill-rule:evenodd;}.cls-2{fill:#008348;}.cls-3{fill:#a90533;}</style>
  </defs>
  <title
     id="title6">logo_soppexcca</title>
  <path
     class="cls-1"
     d="m 56.56,20.95 h -9 a 3.36,3.36 0 0 0 -2.12,0.54 2,2 0 0 0 -0.68,1.71 1.71,1.71 0 0 0 0.57,1.41 2.69,2.69 0 0 0 1.72,0.47 h 4.8 a 6.37,6.37 0 0 1 4.24,1.13 4.84,4.84 0 0 1 1.31,3.79 4.87,4.87 0 0 1 -1.46,3.91 6.92,6.92 0 0 1 -4.58,1.25 H 41.7 v -3.11 h 9.08 A 3.88,3.88 0 0 0 53,31.6 1.71,1.71 0 0 0 53.64,30.11 1.84,1.84 0 0 0 53,28.56 3.3,3.3 0 0 0 51,28.11 H 46.75 A 6.59,6.59 0 0 1 42.39,26.92 4.73,4.73 0 0 1 41,23.16 a 5.07,5.07 0 0 1 1.45,-4 6.9,6.9 0 0 1 4.61,-1.26 h 9.49 v 3.08 z m 5.88,7.85 a 4.24,4.24 0 0 0 0.85,2.82 3.26,3.26 0 0 0 4.72,0 A 4.23,4.23 0 0 0 68.87,28.8 4.24,4.24 0 0 0 68,26 a 3.28,3.28 0 0 0 -4.72,0 4.25,4.25 0 0 0 -0.85,2.81 z m 9.93,0 a 6.36,6.36 0 0 1 -1.81,4.76 6.67,6.67 0 0 1 -4.89,1.78 6.72,6.72 0 0 1 -4.91,-1.78 6.33,6.33 0 0 1 -1.83,-4.76 6.36,6.36 0 0 1 1.83,-4.8 7.58,7.58 0 0 1 9.79,0 6.4,6.4 0 0 1 1.82,4.77 z m 5.41,-3.6 v 7.22 h 2 A 3.92,3.92 0 0 0 82.65,31.56 3.93,3.93 0 0 0 83.5,28.71 3.82,3.82 0 0 0 82.77,26 3.68,3.68 0 0 0 80.08,25.21 Z m -3.35,-2.74 h 6.44 a 6,6 0 0 1 4.54,1.72 6.65,6.65 0 0 1 1.64,4.82 7.37,7.37 0 0 1 -0.34,2.31 6.11,6.11 0 0 1 -1,1.92 4.58,4.58 0 0 1 -2,1.49 8.55,8.55 0 0 1 -3,0.45 h -2.93 v 4.59 h -3.35 z m 18,2.74 v 7.22 h 2 A 3.92,3.92 0 0 0 97.3,31.56 3.94,3.94 0 0 0 98.15,28.71 3.83,3.83 0 0 0 97.45,26 3.69,3.69 0 0 0 94.76,25.21 Z m -3.35,-2.74 h 6.44 a 6,6 0 0 1 4.54,1.72 6.64,6.64 0 0 1 1.67,4.82 7.3,7.3 0 0 1 -0.34,2.31 6.05,6.05 0 0 1 -1,1.92 4.57,4.57 0 0 1 -2,1.49 8.53,8.53 0 0 1 -3,0.45 h -2.92 v 4.59 h -3.35 v -17.3 z m 20.31,12.66 a 6.47,6.47 0 0 1 -4.76,-1.6 6.35,6.35 0 0 1 -1.63,-4.72 6.39,6.39 0 0 1 1.62,-4.73 6.49,6.49 0 0 1 4.75,-1.61 h 4.88 v 2.64 h -4.43 a 4.08,4.08 0 0 0 -2.45,0.52 2.45,2.45 0 0 0 -0.67,1.87 h 7.55 v 2.64 h -7.55 a 2.52,2.52 0 0 0 0.63,1.86 4.11,4.11 0 0 0 2.47,0.5 h 4.45 v 2.64 z M 119.7,28.8 115,22.46 h 3.87 l 2.72,3.82 2.79,-3.82 h 3.84 l -4.68,6.42 4.61,6.25 h -3.88 l -2.68,-3.67 -2.69,3.67 H 115 l 4.69,-6.32 z m 16.91,3.61 h 3.56 v 2.71 h -4.54 a 9.59,9.59 0 0 1 -2.84,-0.35 4.94,4.94 0 0 1 -1.93,-1.16 6.08,6.08 0 0 1 -1.38,-2.12 7,7 0 0 1 -0.5,-2.64 7.52,7.52 0 0 1 0.49,-2.74 5.75,5.75 0 0 1 1.42,-2.11 5,5 0 0 1 2,-1.16 9.43,9.43 0 0 1 2.81,-0.36 h 4.54 v 2.72 h -3.56 a 4.88,4.88 0 0 0 -3.25,0.82 3.71,3.71 0 0 0 -0.89,2.83 4.44,4.44 0 0 0 0.36,1.92 2.85,2.85 0 0 0 1.1,1.23 2.65,2.65 0 0 0 0.87,0.32 11.38,11.38 0 0 0 1.78,0.09 z m 12.67,0 h 3.56 v 2.71 h -4.54 a 9.56,9.56 0 0 1 -2.83,-0.35 4.92,4.92 0 0 1 -1.93,-1.16 6.07,6.07 0 0 1 -1.38,-2.12 7.08,7.08 0 0 1 -0.5,-2.64 7.49,7.49 0 0 1 0.49,-2.74 5.75,5.75 0 0 1 1.41,-2.11 5,5 0 0 1 2,-1.16 9.4,9.4 0 0 1 2.81,-0.36 h 4.54 v 2.72 h -3.56 a 4.87,4.87 0 0 0 -3.25,0.82 3.72,3.72 0 0 0 -0.9,2.83 4.47,4.47 0 0 0 0.36,1.92 2.89,2.89 0 0 0 1.1,1.23 2.6,2.6 0 0 0 0.87,0.32 11.44,11.44 0 0 0 1.78,0.09 z m 10.47,0.17 H 164 V 30 h -4 a 3,3 0 0 0 -1.62,0.32 1.27,1.27 0 0 0 -0.45,1.11 1.09,1.09 0 0 0 0.36,0.93 2.74,2.74 0 0 0 1.47,0.27 z M 155.3,22.46 h 6.86 a 5.67,5.67 0 0 1 3.91,1.19 4.55,4.55 0 0 1 1.31,3.54 v 7.94 h -9 a 4.1,4.1 0 0 1 -2.9,-0.95 3.52,3.52 0 0 1 -1,-2.7 3.76,3.76 0 0 1 1.17,-3.1 6.27,6.27 0 0 1 3.88,-0.94 h 4.4 v -0.32 a 1.79,1.79 0 0 0 -0.66,-1.59 4.42,4.42 0 0 0 -2.37,-0.46 h -5.59 v -2.61 z"
     id="path8"
     inkscape:connector-curvature="0"
     style="fill:#231f20;fill-rule:evenodd" />
  <polygon
     class="cls-2"
     points="23.2,21.43 23.18,21.21 23.18,21.21 23.24,21.17 23.31,21.13 23.38,21.32 23.54,21.71 23.7,22.09 23.85,22.46 24.01,22.82 24.16,23.17 24.32,23.51 24.48,23.84 24.64,24.17 24.8,24.5 24.98,24.82 25.16,25.15 25.34,25.47 25.54,25.8 25.74,26.13 25.89,26.36 25.87,26.42 25.83,26.5 25.8,26.59 25.77,26.67 25.75,26.73 25.58,26.67 25.21,26.55 24.84,26.4 24.48,26.24 24.1,26.07 23.7,25.87 23.3,25.66 23,25.5 23.03,25.33 23.08,25.03 23.12,24.75 23.16,24.48 23.2,24.21 23.23,23.94 23.25,23.68 23.26,23.41 23.27,23.15 23.28,22.88 23.27,22.61 23.26,22.33 23.25,22.04 23.23,21.74 "
     id="polygon10"
     style="fill:#008348;fill-rule:evenodd" />
  <polygon
     class="cls-2"
     points="57.93,64.4 57.48,63.91 56.99,63.34 56.47,62.67 55.92,61.91 55.33,61.04 54.7,60.04 54.02,58.92 53.29,57.65 52.63,56.46 52.49,56.61 52.22,56.97 51.98,57.37 51.77,57.8 51.58,58.26 51.41,58.75 51.26,59.24 51.12,59.76 50.99,60.29 50.88,60.83 50.76,61.37 50.65,61.91 50.54,62.45 50.42,62.99 50.29,63.51 50.19,63.88 50.74,64.19 51.38,64.55 51.99,64.86 52.57,65.15 53.15,65.4 53.71,65.61 54.28,65.8 54.86,65.95 55.45,66.07 56.07,66.16 56.73,66.22 57.43,66.25 58.17,66.24 58.98,66.21 59.85,66.14 60.19,66.11 59.97,65.99 59.59,65.75 59.2,65.49 58.79,65.18 58.37,64.82 "
     id="polygon12"
     style="fill:#008348;fill-rule:evenodd" />
  <polygon
     class="cls-2"
     points="50.47,52.16 50.21,51.65 49.96,51.15 49.7,50.65 49.44,50.15 49.18,49.65 48.91,49.16 48.64,48.68 48.36,48.2 48.19,47.91 47.9,48.16 47.49,48.57 47.13,49.02 46.8,49.51 46.5,50.03 46.23,50.59 45.98,51.19 45.75,51.83 45.52,52.52 45.3,53.24 45.09,54.01 44.86,54.83 44.63,55.69 44.38,56.59 44.11,57.54 43.85,58.44 44.09,58.75 44.41,59.12 44.72,59.49 45.05,59.85 45.38,60.2 45.72,60.54 46.07,60.87 46.41,61.2 46.78,61.52 47.15,61.83 47.53,62.13 47.92,62.42 48.32,62.71 48.73,62.98 49.15,63.25 49.39,63.39 49.47,63.12 49.6,62.6 49.72,62.08 49.83,61.54 49.94,61.01 50.04,60.47 50.16,59.93 50.28,59.39 50.42,58.86 50.58,58.34 50.77,57.83 50.98,57.33 51.23,56.84 51.53,56.37 51.87,55.92 52.17,55.6 51.97,55.21 51.72,54.7 51.47,54.19 51.22,53.68 50.78,52.79 "
     id="polygon14"
     style="fill:#008348;fill-rule:evenodd" />
  <polygon
     class="cls-2"
     points="46.79,45.61 46.52,45.23 46.26,44.84 45.98,44.47 45.7,44.11 45.41,43.76 45.11,43.41 44.8,43.08 44.48,42.76 44.15,42.44 43.8,42.15 43.44,41.86 43.16,41.65 42.76,41.88 42.34,42.22 41.96,42.6 41.63,43.04 41.34,43.52 41.09,44.04 40.85,44.62 40.65,45.23 40.45,45.87 40.27,46.55 40.08,47.25 39.89,47.98 39.7,48.74 39.48,49.51 39.24,50.3 39,51.02 39.03,51.1 39.11,51.25 39.19,51.41 39.26,51.58 39.34,51.74 39.41,51.9 39.49,52.05 39.56,52.19 39.77,52.56 39.98,52.94 40.2,53.32 40.42,53.69 40.64,54.06 40.87,54.43 41.1,54.79 41.33,55.15 41.57,55.51 41.81,55.86 42.06,56.21 42.31,56.55 42.57,56.89 42.83,57.22 43.09,57.55 43.16,57.63 43.32,57.23 43.56,56.53 43.77,55.81 43.97,55.09 44.17,54.36 44.36,53.63 44.55,52.9 44.77,52.18 45,51.47 45.26,50.77 45.56,50.08 45.9,49.41 46.29,48.77 46.73,48.15 47.25,47.56 47.72,47.12 47.55,46.83 47.3,46.42 47.04,46.01 "
     id="polygon16"
     style="fill:#008348;fill-rule:evenodd" />
  <polygon
     class="cls-3"
     points="25.04,33.16 24.59,33.37 24.16,33.62 23.75,33.91 23.38,34.23 23.04,34.59 22.74,34.98 22.48,35.39 22.26,35.83 22.08,36.29 21.95,36.77 21.87,37.27 21.84,37.77 21.87,38.29 21.95,38.78 22.08,39.26 22.26,39.72 22.48,40.16 22.74,40.57 23.04,40.96 23.38,41.31 23.75,41.64 24.16,41.93 24.59,42.18 25.04,42.39 25.53,42.56 26.02,42.69 26.55,42.76 27.08,42.79 27.62,42.76 28.14,42.69 28.64,42.56 29.12,42.39 29.57,42.18 30.01,41.93 30.41,41.64 30.79,41.31 31.12,40.96 31.42,40.57 31.69,40.16 31.91,39.72 32.08,39.26 32.21,38.78 32.29,38.29 32.32,37.77 32.29,37.27 32.21,36.77 32.08,36.29 31.91,35.83 31.69,35.39 31.42,34.98 31.12,34.59 30.79,34.23 30.41,33.91 30.01,33.62 29.57,33.37 29.12,33.16 28.64,32.99 28.14,32.87 27.62,32.79 27.08,32.76 26.55,32.79 26.03,32.87 25.53,32.99 "
     id="polygon18"
     style="fill:#a90533;fill-rule:evenodd" />
  <polygon
     class="cls-3"
     points="36.83,32.32 37.24,32.59 37.63,32.89 37.98,33.23 38.3,33.6 38.58,34.01 38.82,34.44 39.01,34.9 39.16,35.38 39.25,35.87 39.3,36.39 39.29,36.89 39.23,37.38 39.12,37.86 38.96,38.32 38.76,38.77 38.52,39.19 38.23,39.59 37.9,39.97 37.55,40.31 37.15,40.62 36.73,40.89 36.28,41.13 35.8,41.32 35.29,41.47 34.77,41.57 34.37,41.61 33.98,41.62 33.6,41.61 33.22,41.56 32.84,41.49 32.48,41.4 32.13,41.28 32.01,41.23 32.13,41.07 32.29,40.83 32.43,40.58 32.57,40.33 32.69,40.07 32.8,39.8 32.9,39.53 32.99,39.25 33.06,38.96 33.11,38.67 33.15,38.38 33.17,38.08 33.18,37.77 33.17,37.47 33.15,37.18 33.11,36.88 33.06,36.59 32.99,36.3 32.9,36.02 32.8,35.75 32.69,35.48 32.57,35.22 32.43,34.97 32.29,34.73 32.13,34.48 31.95,34.25 31.78,34.03 31.58,33.82 31.38,33.61 31.17,33.42 30.95,33.24 30.71,33.06 30.54,32.95 30.68,32.83 31,32.58 31.36,32.35 31.72,32.15 32.11,31.98 32.52,31.83 32.94,31.72 33.38,31.64 33.91,31.59 34.43,31.6 34.95,31.65 35.45,31.75 35.93,31.9 36.39,32.09 "
     id="polygon20"
     style="fill:#a90533;fill-rule:evenodd" />
  <polygon
     class="cls-3"
     points="36.07,26.01 36.3,26.44 36.5,26.9 36.65,27.38 36.74,27.89 36.78,28.32 36.78,28.76 36.75,29.19 36.67,29.61 36.56,30.02 36.41,30.42 36.23,30.8 36.09,31.04 35.94,30.99 35.66,30.91 35.37,30.85 35.07,30.8 34.78,30.76 34.48,30.74 34.17,30.73 33.87,30.73 33.57,30.75 33.26,30.79 32.95,30.84 32.65,30.9 32.35,30.98 32.06,31.08 31.78,31.18 31.51,31.3 31.24,31.43 30.98,31.57 30.73,31.73 30.48,31.89 30.25,32.06 30.03,32.25 29.85,32.41 29.85,32.24 29.82,31.94 29.8,31.64 29.74,31.34 29.68,31.05 29.6,30.76 29.5,30.48 29.4,30.21 29.27,29.95 29.14,29.68 28.99,29.44 28.84,29.19 28.67,28.96 28.49,28.74 28.3,28.52 28.09,28.32 27.88,28.13 27.66,27.94 27.44,27.77 27.2,27.61 26.95,27.46 26.7,27.32 26.55,27.24 26.61,27.04 26.75,26.69 26.91,26.36 27.1,26.04 27.31,25.74 27.54,25.45 27.8,25.17 28.07,24.91 28.36,24.68 28.67,24.46 29,24.27 29.34,24.09 29.7,23.94 30.08,23.81 30.46,23.72 30.86,23.65 31.4,23.6 31.92,23.6 32.43,23.66 32.93,23.76 33.42,23.9 33.88,24.09 34.32,24.32 34.73,24.59 35.12,24.9 35.47,25.24 35.79,25.61 "
     id="polygon22"
     style="fill:#a90533;fill-rule:evenodd" />
  <polygon
     class="cls-3"
     points="27.98,29.49 28.26,29.89 28.5,30.32 28.7,30.78 28.84,31.26 28.94,31.77 28.95,31.85 28.96,31.93 28.97,32.02 28.98,32.11 28.98,32.2 28.88,32.17 28.59,32.09 28.3,32.02 28,31.97 27.7,31.93 27.39,31.91 27.08,31.9 26.77,31.91 26.46,31.93 26.16,31.97 25.86,32.02 25.57,32.09 25.28,32.17 25,32.26 24.72,32.36 24.45,32.48 24.18,32.61 23.93,32.75 23.68,32.9 23.45,33.06 23.21,33.24 23,33.42 22.78,33.61 22.58,33.82 22.39,34.03 22.2,34.25 22.03,34.48 21.88,34.73 21.73,34.97 21.59,35.22 21.47,35.48 21.36,35.75 21.26,36.02 21.18,36.3 21.11,36.59 21.07,36.81 20.78,36.64 20.3,36.29 19.86,35.88 19.48,35.43 19.16,34.93 18.89,34.4 18.69,33.82 18.57,33.21 18.52,32.71 18.54,32.2 18.6,31.71 18.7,31.23 18.86,30.77 19.07,30.32 19.31,29.9 19.6,29.5 19.92,29.13 20.28,28.78 20.67,28.47 21.1,28.2 21.55,27.96 22.03,27.77 22.53,27.62 23.06,27.52 23.59,27.48 24.12,27.48 24.63,27.53 25.13,27.63 25.61,27.78 26.08,27.97 26.52,28.2 26.93,28.47 27.32,28.78 27.67,29.12 "
     id="polygon24"
     style="fill:#a90533;fill-rule:evenodd" />
  <polygon
     class="cls-2"
     points="9.3,4.91 9.31,4.45 9.31,4.01 9.28,3.58 9.22,3.15 9.13,2.73 9.02,2.31 8.87,1.9 8.67,1.48 8.45,1.07 8.18,0.65 8.16,0.63 8.23,0.64 8.77,0.78 9.31,0.92 9.85,1.09 10.37,1.28 10.89,1.49 11.4,1.72 11.9,1.97 12.39,2.23 12.86,2.52 13.32,2.83 13.77,3.15 14.2,3.5 14.6,3.87 14.99,4.26 15.37,4.68 15.54,4.86 15.71,5.05 15.88,5.24 16.05,5.43 16.22,5.63 16.39,5.83 16.55,6.03 16.72,6.25 16.98,6.51 17.26,6.74 17.54,6.95 17.83,7.14 18.14,7.3 18.44,7.44 18.76,7.57 19.08,7.68 19.41,7.77 19.73,7.85 20.07,7.92 20.4,7.98 20.74,8.03 21.08,8.08 21.42,8.12 21.74,8.16 22.2,8.3 22.43,8.53 22.5,8.86 22.46,9.29 22.32,9.79 22.16,10.3 22,10.79 21.9,11.26 22,11.57 22.17,11.82 22.4,12.04 22.67,12.23 22.99,12.4 23.35,12.58 23.76,12.76 24.08,12.89 24.08,12.91 24.06,13.05 24.05,13.19 24.03,13.33 24.01,13.47 23.99,13.61 23.97,13.75 23.93,13.99 24.79,14.79 24.57,15.31 24.45,15.88 24.48,16.37 24.6,16.79 24.79,17.13 25.01,17.43 25.22,17.68 25.39,17.9 25.5,18.09 25.53,18.26 25.47,18.46 25.27,18.73 24.9,19.07 24.29,19.49 23.45,20 22.22,20.66 22.26,21.06 22.28,21.35 22.3,21.63 22.31,21.91 22.32,22.2 22.33,22.48 22.33,22.76 22.32,23.04 22.32,23.32 22.31,23.6 22.29,23.88 22.26,24.16 22.23,24.45 22.2,24.73 22.16,25 22.15,25.02 21.91,24.88 21.44,24.58 20.98,24.24 20.5,23.87 20.03,23.48 19.56,23.05 19.09,22.58 18.61,22.09 18.14,21.56 17.67,21 17.19,20.4 16.72,19.77 16.25,19.12 15.77,18.42 15.29,17.69 14.85,16.97 14.85,16.97 14.49,16.41 9.02,7.34 9.09,6.87 9.16,6.36 9.22,5.86 9.27,5.37 "
     id="polygon26"
     style="fill:#008348;fill-rule:evenodd" />
  <polygon
     class="cls-2"
     points="2.07,5.57 2.33,6.24 2.57,6.87 2.77,7.44 2.93,7.93 3.04,8.32 3.07,8.46 3.33,8.52 3.71,8.59 4.09,8.65 4.46,8.69 4.84,8.73 5.21,8.76 5.58,8.77 5.95,8.77 6.32,8.76 6.69,8.73 7.05,8.69 7.42,8.64 7.8,8.58 8.16,8.5 8.54,8.4 8.69,8.36 8.48,7.95 8.11,7.33 7.68,6.7 7.19,6.05 6.65,5.42 6.07,4.8 5.46,4.19 4.83,3.61 4.17,3.07 3.5,2.56 2.82,2.11 2.14,1.71 1.47,1.37 0.81,1.11 0.18,0.92 0,0.89 0.16,1.2 0.38,1.66 0.64,2.2 0.91,2.82 1.2,3.48 1.5,4.17 1.79,4.88 "
     id="polygon28"
     style="fill:#008348;fill-rule:evenodd" />
  <polygon
     class="cls-2"
     points="4.62,9.7 5.03,9.73 5.43,9.74 5.83,9.74 6.22,9.73 6.62,9.71 7,9.67 7.39,9.61 7.77,9.55 8.15,9.47 8.52,9.38 8.89,9.28 9.12,9.21 14.5,18.05 14.15,18.34 13.67,18.71 13.17,19.04 12.66,19.34 12.13,19.62 11.58,19.86 11.03,20.07 10.46,20.26 9.89,20.42 9.31,20.55 8.71,20.65 8.12,20.73 7.53,20.78 6.93,20.8 6.33,20.8 5.84,20.77 5.51,20.17 5.18,19.49 4.89,18.79 4.65,18.09 4.44,17.38 4.26,16.67 4.11,15.95 3.98,15.22 3.87,14.49 3.77,13.75 3.68,13.01 3.59,12.26 3.5,11.5 3.41,10.75 3.31,9.98 3.23,9.48 3.38,9.52 3.8,9.6 4.22,9.65 "
     id="polygon30"
     style="fill:#008348;fill-rule:evenodd" />
  <polygon
     class="cls-2"
     points="46.48,37.62 46.08,37.55 45.68,37.5 45.28,37.46 44.88,37.43 44.49,37.41 44.09,37.4 43.7,37.4 43.31,37.41 42.91,37.42 42.53,37.45 42.15,37.47 41.77,37.51 41.4,37.55 41.03,37.6 40.67,37.65 40.31,37.71 40.08,37.75 40.07,37.83 39.99,38.11 39.91,38.38 39.81,38.66 39.69,38.92 39.64,39.03 39.74,39.05 40.05,39.15 40.37,39.26 40.7,39.38 41.03,39.51 41.35,39.66 41.67,39.83 41.92,39.97 42.78,39.69 43.68,39.44 44.55,39.25 45.37,39.12 46.17,39.04 46.92,39 47.63,39 48.31,39.04 48.95,39.1 49.55,39.19 50.1,39.29 50.62,39.4 51.1,39.52 51.39,39.59 51.07,39.37 50.71,39.14 50.34,38.93 49.97,38.73 49.59,38.55 49.22,38.39 48.83,38.24 48.45,38.1 48.06,37.98 47.66,37.87 47.27,37.77 46.87,37.69 "
     id="polygon32"
     style="fill:#008348;fill-rule:evenodd" />
  <polygon
     class="cls-2"
     points="39.22,39.77 39.12,39.93 38.94,40.16 38.76,40.38 38.56,40.59 38.36,40.8 38.14,41 37.92,41.18 37.68,41.36 37.44,41.52 37.19,41.68 36.92,41.82 36.66,41.95 36.38,42.07 36.09,42.18 35.8,42.27 35.51,42.35 35.2,42.42 35.11,42.43 35.22,42.81 35.41,43.37 35.6,43.92 35.81,44.46 36.03,44.99 36.26,45.51 36.49,46.02 36.72,46.53 36.96,47.02 37.2,47.51 37.44,47.98 37.69,48.45 37.92,48.91 38.16,49.36 38.38,49.81 38.41,49.86 38.47,49.66 38.67,49.03 38.85,48.38 39.02,47.71 39.2,47.04 39.38,46.36 39.56,45.7 39.77,45.04 39.99,44.4 40.24,43.78 40.51,43.2 40.83,42.64 41.19,42.14 41.6,41.68 42.06,41.27 42.34,41.1 42.23,41.02 41.86,40.8 41.45,40.59 41.01,40.39 40.55,40.2 40.08,40.03 39.59,39.87 "
     id="polygon34"
     style="fill:#008348;fill-rule:evenodd" />
  <polygon
     class="cls-2"
     points="11.26,21.04 11.8,20.82 12.33,20.58 12.84,20.32 13.33,20.03 13.8,19.73 14.26,19.4 14.71,19.06 14.99,18.83 15.36,19.39 15.85,20.09 16.33,20.76 16.82,21.39 17.32,22 17.81,22.57 18.33,23.12 18.86,23.64 19.41,24.14 19.97,24.6 20.57,25.05 21.18,25.47 21.83,25.87 22.51,26.25 23.22,26.61 23.25,26.63 23.04,26.65 22.71,26.7 22.38,26.77 22.05,26.86 21.73,26.97 21.41,27.09 21.1,27.23 20.79,27.38 20.5,27.55 20.21,27.73 19.94,27.93 19.68,28.14 19.43,28.37 19.23,28.59 18.99,28.69 18.73,28.78 18.45,28.86 18.18,28.91 17.89,28.95 17.59,28.95 17.28,28.92 16.95,28.86 15.91,28.45 14.92,28.05 14,27.66 13.14,27.27 12.34,26.88 11.59,26.49 10.89,26.09 10.24,25.68 9.63,25.25 9.06,24.8 8.53,24.33 8.02,23.82 7.54,23.29 7.09,22.71 6.65,22.09 6.42,21.72 6.8,21.74 7.52,21.73 8.2,21.69 8.86,21.62 9.49,21.52 10.1,21.39 10.69,21.22 "
     id="polygon36"
     style="fill:#008348;fill-rule:evenodd" />
  <polygon
     class="cls-2"
     points="7.26,4.83 7.7,5.42 8.13,6.04 8.28,6.26 8.28,6.24 8.3,6 8.33,5.76 8.35,5.53 8.36,5.3 8.38,5.08 8.38,4.87 8.38,4.66 8.38,4.45 8.38,4.25 8.36,4.05 8.35,3.85 8.32,3.66 8.29,3.47 8.26,3.28 8.22,3.1 8.17,2.92 8.12,2.73 8.06,2.55 7.99,2.38 7.91,2.2 7.83,2.01 7.74,1.83 7.64,1.65 7.53,1.47 7.42,1.28 7.29,1.09 7.16,0.91 6.67,0.32 6.4,0.27 6.06,0.21 5.71,0.16 5.35,0.11 4.98,0.08 4.59,0.04 4.19,0.02 3.78,0.01 3.35,0 2.9,0 2.43,0.01 1.94,0.04 1.43,0.07 0.89,0.11 0.69,0.13 1.23,0.31 1.9,0.57 2.54,0.87 3.16,1.19 3.74,1.54 4.3,1.92 4.84,2.34 5.36,2.77 5.86,3.24 6.33,3.74 6.8,4.27 "
     id="polygon38"
     style="fill:#008348;fill-rule:evenodd" />
  <polygon
     class="cls-2"
     points="47.61,39.81 48.23,39.84 48.87,39.9 49.53,39.99 50.21,40.13 50.93,40.3 51.68,40.52 52.45,40.78 53.25,41.07 53.6,41.34 53.96,41.64 54.32,41.97 54.66,42.32 55.02,42.69 55.36,43.08 55.7,43.48 56.04,43.9 56.37,44.33 56.69,44.77 57.01,45.21 57.32,45.66 57.63,46.1 57.93,46.55 58.23,46.99 58.52,47.44 58.67,47.65 58.84,47.84 59.01,47.99 59.18,48.13 59.33,48.27 59.48,48.41 59.61,48.56 59.67,48.65 59.1,49.73 59.8,51.01 60.15,51.27 60.45,51.5 60.76,51.73 61.05,51.96 61.34,52.18 61.62,52.39 61.9,52.6 62.17,52.8 62.43,52.99 62.67,53.17 62.92,53.35 63.15,53.51 63.38,53.66 63.6,53.8 63.81,53.93 63.93,54.01 64.04,54.45 63.72,55.04 62.28,55.97 62.89,56.98 63.58,57.63 63.79,58.42 63.26,59.23 63.89,60.26 63.68,61.14 62.83,61.99 63,62.27 63.1,62.44 63.2,62.6 63.3,62.77 63.39,62.94 63.49,63.11 63.59,63.29 63.67,63.43 63.67,63.48 63.68,63.55 63.68,63.64 63.69,63.72 63.7,63.8 63.7,63.88 63.71,63.97 63.72,64.06 63.73,64.14 63.73,64.23 63.72,64.33 63.71,64.46 63.7,64.58 63.69,64.71 63.69,64.84 63.69,64.89 63.57,65.06 63.42,65.25 63.29,65.41 63.17,65.55 63.04,65.66 62.94,65.74 62.83,65.8 62.76,65.82 62.08,65.72 61.38,65.52 60.71,65.22 60.05,64.83 59.42,64.35 58.8,63.8 58.19,63.17 57.6,62.47 57.02,61.71 56.45,60.9 55.89,60.02 55.33,59.11 54.78,58.16 54.23,57.17 53.69,56.15 53.14,55.12 52.6,54.06 52.05,53 51.49,51.93 50.92,50.86 50.35,49.81 49.77,48.76 49.17,47.73 48.55,46.73 47.93,45.76 47.27,44.83 46.6,43.93 45.91,43.09 45.19,42.29 44.44,41.56 43.67,40.89 43.16,40.53 43.43,40.45 44.03,40.28 44.63,40.14 45.22,40.02 45.81,39.93 46.4,39.86 47,39.82 "
     id="polygon40"
     style="fill:#008348;fill-rule:evenodd" />
  <path
     class="cls-4"
     d="m 67.62,45.68 h 0.82 v 3.48 a 2.35,2.35 0 0 0 0.34,1.41 1.25,1.25 0 0 0 1.05,0.46 1.26,1.26 0 0 0 1.08,-0.49 2.43,2.43 0 0 0 0.36,-1.44 v -3.42 h 0.77 v 3.42 a 2.92,2.92 0 0 1 -0.56,2 2.08,2.08 0 0 1 -1.67,0.65 2.05,2.05 0 0 1 -1.64,-0.64 2.78,2.78 0 0 1 -0.56,-1.88 v -3.55 z m 5.93,0 h 1 l 2.57,4.6 a 2.46,2.46 0 0 1 0.13,0.3 c 0.05,0.14 0.1,0.3 0.16,0.49 0,-0.22 -0.06,-0.41 -0.08,-0.59 a 3.89,3.89 0 0 1 0,-0.45 v -4.35 h 0.76 v 5.92 h -1 L 74.47,47 a 1.57,1.57 0 0 1 -0.12,-0.28 c 0,-0.13 -0.1,-0.3 -0.16,-0.51 0,0.32 0.07,0.56 0.09,0.73 a 3.32,3.32 0 0 1 0,0.37 v 4.29 h -0.76 v -5.92 z m 6,0 h 0.83 v 5.92 h -0.83 z m 4.68,0.55 a 1.59,1.59 0 0 0 -1.33,0.66 3.31,3.31 0 0 0 0,3.49 1.67,1.67 0 0 0 2.65,0 3.29,3.29 0 0 0 0,-3.49 1.59,1.59 0 0 0 -1.33,-0.66 z m 0,-0.66 a 2.47,2.47 0 0 1 2,0.82 3.86,3.86 0 0 1 0,4.49 2.75,2.75 0 0 1 -3.93,0 3.85,3.85 0 0 1 0,-4.49 2.47,2.47 0 0 1 2,-0.82 z m 3.86,0.11 h 1 l 2.57,4.6 a 2,2 0 0 1 0.13,0.3 c 0.05,0.14 0.1,0.3 0.16,0.49 0,-0.22 -0.06,-0.41 -0.08,-0.59 a 4.16,4.16 0 0 1 0,-0.45 v -4.35 h 0.76 v 5.92 h -1 L 89,47 a 1.94,1.94 0 0 1 -0.12,-0.28 c -0.05,-0.13 -0.1,-0.3 -0.16,-0.51 0,0.32 0.07,0.56 0.09,0.73 0.02,0.17 0,0.3 0,0.37 V 51.6 H 88.1 v -5.92 z m 9.28,0.66 v 4.56 h 0.68 a 2.38,2.38 0 0 0 1.72,-0.6 2.67,2.67 0 0 0 0,-3.38 2.4,2.4 0 0 0 -1.74,-0.58 z m -0.82,-0.66 h 1.38 a 3.65,3.65 0 0 1 2.5,0.74 2.83,2.83 0 0 1 0.84,2.23 2.74,2.74 0 0 1 -0.87,2.18 3.63,3.63 0 0 1 -2.48,0.76 h -1.36 v -5.91 z m 5.84,0 h 3.2 v 0.64 h -2.37 v 1.88 h 2.24 v 0.66 h -2.24 v 2.05 h 2.45 v 0.68 h -3.27 v -5.91 z m 11.25,0.21 v 0.71 a 4.1,4.1 0 0 0 -0.67,-0.21 3.18,3.18 0 0 0 -0.66,-0.07 2.3,2.3 0 0 0 -1.69,0.62 2.58,2.58 0 0 0 0,3.36 2.32,2.32 0 0 0 1.7,0.61 3.43,3.43 0 0 0 0.67,-0.06 3.77,3.77 0 0 0 0.64,-0.19 v 0.74 a 4,4 0 0 1 -0.66,0.15 5.14,5.14 0 0 1 -0.74,0.05 3.21,3.21 0 0 1 -2.29,-0.79 2.81,2.81 0 0 1 -0.84,-2.15 2.89,2.89 0 0 1 0.86,-2.19 3.18,3.18 0 0 1 2.3,-0.82 4.38,4.38 0 0 1 0.74,0.06 3.17,3.17 0 0 1 0.66,0.17 z m 3.33,0.33 a 1.59,1.59 0 0 0 -1.33,0.66 3.33,3.33 0 0 0 0,3.49 1.67,1.67 0 0 0 2.65,0 3.29,3.29 0 0 0 0,-3.49 1.6,1.6 0 0 0 -1.33,-0.66 z m 0,-0.66 a 2.46,2.46 0 0 1 2,0.82 3.26,3.26 0 0 1 0.72,2.24 3.3,3.3 0 0 1 -0.72,2.25 2.76,2.76 0 0 1 -3.93,0 3.85,3.85 0 0 1 0,-4.49 2.48,2.48 0 0 1 2,-0.82 z m 6.25,0.66 a 1.59,1.59 0 0 0 -1.33,0.66 3.31,3.31 0 0 0 0,3.49 1.67,1.67 0 0 0 2.66,0 3.29,3.29 0 0 0 0,-3.49 1.59,1.59 0 0 0 -1.32,-0.66 z m 0,-0.66 a 2.47,2.47 0 0 1 2,0.82 3.86,3.86 0 0 1 0,4.49 2.75,2.75 0 0 1 -3.93,0 3.87,3.87 0 0 1 0,-4.49 2.49,2.49 0 0 1 2,-0.82 z m 4.69,0.76 v 2.21 h 0.53 a 1.54,1.54 0 0 0 1,-0.29 1,1 0 0 0 0.35,-0.84 1,1 0 0 0 -0.32,-0.8 1.34,1.34 0 0 0 -0.92,-0.29 z m -0.83,-0.65 h 1.47 a 2.45,2.45 0 0 1 1.59,0.44 1.6,1.6 0 0 1 0.53,1.31 1.57,1.57 0 0 1 -0.56,1.29 2.46,2.46 0 0 1 -1.59,0.46 h -0.6 v 2.43 h -0.83 v -5.92 z m 4.52,0 h 3.2 v 0.64 h -2.37 v 1.89 h 2.24 v 0.66 h -2.24 v 2.05 h 2.45 v 0.68 h -3.28 v -5.91 z m 5.38,0.64 v 2 h 0.64 a 1.54,1.54 0 0 0 1,-0.27 0.89,0.89 0 0 0 0.35,-0.75 0.87,0.87 0 0 0 -0.33,-0.75 1.75,1.75 0 0 0 -1,-0.24 z m -0.82,-0.64 h 1.59 a 2.53,2.53 0 0 1 1.52,0.38 1.5,1.5 0 0 1 0.18,2.07 1.7,1.7 0 0 1 -1,0.5 0.91,0.91 0 0 1 0.43,0.24 1.91,1.91 0 0 1 0.35,0.59 l 0.89,2.12 h -0.89 l -0.78,-1.93 a 1.11,1.11 0 0 0 -0.39,-0.53 1.21,1.21 0 0 0 -0.66,-0.15 H 137 v 2.64 h -0.82 v -5.92 z m 7,0.73 -1.17,3 h 2.31 z m -0.49,-0.73 h 1 L 146,51.6 h -0.89 l -0.57,-1.52 h -2.81 l -0.57,1.52 h -0.84 l 2.36,-5.91 z m 3,0 h 4.14 v 0.69 h -1.65 v 5.24 h -0.83 v -5.23 h -1.66 v -0.69 z m 5,0 h 0.83 v 5.93 h -0.83 v -5.92 z m 1.66,0 h 0.87 l 1.73,5.12 1.8,-5.12 h 0.84 l -2.18,5.91 h -1 l -2.1,-5.91 z m 7.85,0.73 -1.17,3 h 2.31 z m -0.49,-0.73 h 1 L 163,51.6 h -0.9 l -0.56,-1.52 h -2.82 l -0.56,1.52 h -0.84 l 2.36,-5.91 z m 7,0.16 -0.08,0.72 a 2.48,2.48 0 0 0 -0.57,-0.2 2.78,2.78 0 0 0 -0.6,-0.07 1.51,1.51 0 0 0 -0.84,0.2 0.62,0.62 0 0 0 -0.3,0.55 0.73,0.73 0 0 0 0.21,0.5 3.88,3.88 0 0 0 0.88,0.59 4.39,4.39 0 0 1 1.21,0.88 1.38,1.38 0 0 1 0.33,0.9 1.56,1.56 0 0 1 -0.55,1.24 2.07,2.07 0 0 1 -1.41,0.48 4.74,4.74 0 0 1 -0.81,-0.07 3.7,3.7 0 0 1 -0.71,-0.2 l 0.08,-0.79 a 3.61,3.61 0 0 0 0.71,0.28 2.62,2.62 0 0 0 0.67,0.09 1.36,1.36 0 0 0 0.83,-0.23 0.74,0.74 0 0 0 0.32,-0.62 q 0,-0.59 -1.25,-1.3 L 164.5,48.6 a 2.25,2.25 0 0 1 -0.74,-0.67 1.44,1.44 0 0 1 -0.27,-0.81 1.31,1.31 0 0 1 0.51,-1.12 2.31,2.31 0 0 1 1.44,-0.41 4.4,4.4 0 0 1 0.65,0 3.58,3.58 0 0 1 0.61,0.15 z m -96.87,10.86 -1.17,3 H 71 l -1.14,-3 z M 69.33,56 h 1 l 2.32,5.91 h -0.9 l -0.57,-1.52 h -2.8 l -0.57,1.52 H 67 Z m 8.49,0.26 -0.12,0.7 a 3,3 0 0 0 -0.71,-0.26 3.41,3.41 0 0 0 -0.76,-0.08 2.22,2.22 0 0 0 -2.36,2.36 2.23,2.23 0 0 0 0.65,1.68 2.36,2.36 0 0 0 1.72,0.63 2.56,2.56 0 0 0 0.48,0 2.31,2.31 0 0 0 0.46,-0.13 v -1.8 h -1.23 v -0.65 h 2 v 3 a 5,5 0 0 1 -0.86,0.23 5.85,5.85 0 0 1 -0.94,0.08 3.22,3.22 0 0 1 -2.31,-0.8 3.19,3.19 0 0 1 0,-4.35 3.22,3.22 0 0 1 2.32,-0.81 4.82,4.82 0 0 1 1.63,0.28 z m 2.35,0.38 v 2 h 0.64 a 1.54,1.54 0 0 0 1,-0.28 1,1 0 0 0 0,-1.5 1.74,1.74 0 0 0 -1,-0.24 z M 79.36,56 H 81 a 2.52,2.52 0 0 1 1.52,0.38 1.32,1.32 0 0 1 0.48,1.09 1.35,1.35 0 0 1 -0.33,0.93 1.7,1.7 0 0 1 -1,0.51 0.93,0.93 0 0 1 0.43,0.25 2,2 0 0 1 0.34,0.59 l 0.9,2.12 h -0.89 l -0.78,-1.93 a 1.11,1.11 0 0 0 -0.39,-0.53 1.2,1.2 0 0 0 -0.66,-0.15 h -0.48 v 2.62 H 79.32 V 56 Z m 7.25,0.54 a 1.58,1.58 0 0 0 -1.33,0.66 3.29,3.29 0 0 0 0,3.49 1.68,1.68 0 0 0 2.65,0 3.29,3.29 0 0 0 0,-3.49 1.59,1.59 0 0 0 -1.32,-0.66 z m 0,-0.66 a 2.47,2.47 0 0 1 2,0.82 3.87,3.87 0 0 1 0,4.49 2.75,2.75 0 0 1 -3.93,0 3.85,3.85 0 0 1 0,-4.49 2.49,2.49 0 0 1 2,-0.82 z m 4.68,0.76 v 2.21 h 0.54 a 1.53,1.53 0 0 0 1,-0.29 1.15,1.15 0 0 0 0,-1.63 1.36,1.36 0 0 0 -0.92,-0.29 z M 90.46,56 h 1.48 a 2.43,2.43 0 0 1 1.58,0.44 1.83,1.83 0 0 1 0,2.6 2.46,2.46 0 0 1 -1.59,0.46 h -0.6 v 2.41 H 90.5 V 56 Z M 95,56 h 3.2 v 0.64 h -2.39 v 1.87 h 2.24 v 0.67 h -2.24 v 2.05 h 2.45 v 0.68 H 95 Z m 8.8,0.21 v 0.72 a 4.11,4.11 0 0 0 -0.67,-0.21 3.12,3.12 0 0 0 -0.66,-0.07 2.15,2.15 0 0 0 -2.32,2.3 2.25,2.25 0 0 0 0.62,1.68 2.33,2.33 0 0 0 1.7,0.61 3.13,3.13 0 0 0 0.67,-0.06 3.36,3.36 0 0 0 0.64,-0.19 v 0.74 a 3.7,3.7 0 0 1 -0.65,0.15 5,5 0 0 1 -0.74,0.05 3.21,3.21 0 0 1 -2.29,-0.79 2.81,2.81 0 0 1 -0.87,-2.14 2.9,2.9 0 0 1 0.85,-2.2 3.2,3.2 0 0 1 2.3,-0.81 4.77,4.77 0 0 1 0.74,0.05 3.5,3.5 0 0 1 0.66,0.17 z M 104.7,56 h 0.82 v 3.48 a 2.34,2.34 0 0 0 0.35,1.41 1.24,1.24 0 0 0 1.05,0.46 1.27,1.27 0 0 0 1.08,-0.49 2.43,2.43 0 0 0 0.36,-1.44 V 56 h 0.77 v 3.42 a 2.94,2.94 0 0 1 -0.56,2 2.1,2.1 0 0 1 -1.68,0.65 2,2 0 0 1 -1.64,-0.64 2.78,2.78 0 0 1 -0.56,-1.88 V 56 Z m 7.93,0.73 -1.17,3 h 2.31 z M 112.14,56 h 1 l 2.32,5.91 h -0.9 L 114,60.35 h -2.81 l -0.57,1.52 h -0.84 L 112.13,56 Z m 4.79,0.64 v 2 h 0.63 a 1.55,1.55 0 0 0 1,-0.28 0.89,0.89 0 0 0 0.35,-0.75 0.87,0.87 0 0 0 -0.33,-0.75 1.76,1.76 0 0 0 -1,-0.24 z M 116.1,56 h 1.59 a 2.51,2.51 0 0 1 1.52,0.38 1.32,1.32 0 0 1 0.51,1.13 1.37,1.37 0 0 1 -0.33,0.93 1.71,1.71 0 0 1 -1,0.51 0.92,0.92 0 0 1 0.43,0.25 2,2 0 0 1 0.35,0.59 l 0.9,2.12 h -0.89 l -0.78,-1.93 a 1.13,1.13 0 0 0 -0.39,-0.53 1.2,1.2 0 0 0 -0.66,-0.15 h -0.47 v 2.62 h -0.82 V 56 Z m 4.9,0 h 0.83 v 5.91 H 121 Z m 4.44,0.73 -1.17,3 h 2.31 l -1.13,-3 z M 124.95,56 h 1 l 2.31,5.91 h -0.89 L 126.8,60.39 H 124 l -0.57,1.52 h -0.84 L 124.91,56 Z m 7,0.15 -0.08,0.72 a 2.81,2.81 0 0 0 -0.56,-0.2 2.78,2.78 0 0 0 -0.61,-0.07 1.52,1.52 0 0 0 -0.84,0.2 0.62,0.62 0 0 0 -0.3,0.55 0.73,0.73 0 0 0 0.21,0.5 3.76,3.76 0 0 0 0.88,0.59 4.54,4.54 0 0 1 1.21,0.88 1.36,1.36 0 0 1 0.33,0.9 1.57,1.57 0 0 1 -0.55,1.23 2.07,2.07 0 0 1 -1.42,0.48 4.77,4.77 0 0 1 -0.8,-0.06 3.63,3.63 0 0 1 -0.72,-0.2 l 0.08,-0.79 a 3.55,3.55 0 0 0 0.71,0.28 2.54,2.54 0 0 0 0.67,0.09 1.37,1.37 0 0 0 0.84,-0.25 0.73,0.73 0 0 0 0.32,-0.62 c 0,-0.4 -0.41,-0.83 -1.24,-1.3 l -0.32,-0.18 a 2.26,2.26 0 0 1 -0.74,-0.67 1.44,1.44 0 0 1 -0.27,-0.81 1.31,1.31 0 0 1 0.53,-1.1 2.28,2.28 0 0 1 1.43,-0.41 4.45,4.45 0 0 1 0.65,0 3.55,3.55 0 0 1 0.61,0.15 z"
     id="path42"
     inkscape:connector-curvature="0"
     style="fill:#231f20" />
</svg>
