<svg xmlns="http://www.w3.org/2000/svg" width="400" height="94.263"><path d="M128.004 72.17c-7.008 0-11.95-1.64-14.69-4.88-2.715-3.197-4.27-7.29-4.622-12.16l-.054-.753 13.247-.985.08.73c.237 2.12.718 3.73 1.43 4.79 1.12 1.695 2.693 2.518 4.812 2.518 1.53 0 2.714-.413 3.52-1.23.81-.826 1.203-1.76 1.203-2.846 0-1.04-.375-1.944-1.146-2.757-.56-.586-2.047-1.498-5.96-2.513-5.622-1.486-9.524-3.416-11.933-5.895-2.456-2.52-3.7-5.756-3.7-9.62 0-2.532.63-4.954 1.882-7.202 1.248-2.27 3.16-4.078 5.682-5.377 2.498-1.28 5.917-1.933 10.168-1.933 5.27 0 9.368 1.19 12.176 3.54 2.824 2.344 4.52 6.1 5.045 11.17l.082.78-13.138.886-.1-.7c-.28-1.933-.86-3.34-1.723-4.18-.845-.81-2.042-1.222-3.557-1.222-1.226 0-2.135.287-2.695.852-.588.57-.868 1.25-.868 2.08 0 .546.22 1.028.67 1.478.34.365 1.254.907 3.787 1.528 5.417 1.374 9.386 2.806 11.802 4.257 2.455 1.473 4.266 3.326 5.38 5.51 1.115 2.176 1.68 4.633 1.68 7.298 0 3.125-.75 6.047-2.22 8.694-1.49 2.674-3.597 4.726-6.262 6.095-2.613 1.36-5.97 2.048-9.976 2.048M172.053 72.214c-2.04 0-4.216-.166-6.468-.495-2.378-.322-4.414-1-6.05-2.01-1.623-1.003-3.124-2.437-4.462-4.264-1.324-1.798-2.252-3.708-2.752-5.672-.776-3.035-1.168-5.77-1.168-8.122v-28.79h13.86V52.32c0 2.377.55 4.235 1.627 5.524 1.06 1.268 2.512 1.885 4.434 1.885 1.907 0 3.352-.607 4.418-1.856 1.076-1.265 1.623-3.133 1.623-5.552V22.863h13.853v28.79c0 2.81-.38 5.524-1.13 8.067-.768 2.566-1.982 4.843-3.61 6.766-1.636 1.92-3.39 3.297-5.22 4.1-2.503 1.08-5.514 1.628-8.955 1.628M232.315 71.373V41.908l-6.437 29.465h-10.364l-6.4-29.432v29.433H197.47V22.86h17.62l5.644 25.76 5.624-25.76h17.57v48.513h-11.613zM250.75 22.862h13.9v48.512h-13.9V22.862zM298.934 71.373l-13.743-23.69v23.69h-13.14V22.86h12.742l13.818 23.905V22.86h13.177v48.513h-12.853zM335.612 72.17c-7.01 0-11.953-1.64-14.694-4.88-2.71-3.18-4.268-7.272-4.627-12.16l-.054-.753 13.25-.985.082.732c.23 2.104.712 3.717 1.43 4.79 1.117 1.693 2.69 2.516 4.806 2.516 1.534 0 2.718-.413 3.524-1.23.813-.833 1.208-1.765 1.208-2.846 0-1.036-.377-1.94-1.154-2.757-.554-.588-2.038-1.498-5.953-2.513-5.62-1.483-9.524-3.413-11.94-5.893-2.457-2.52-3.702-5.756-3.702-9.62 0-2.532.634-4.957 1.885-7.202 1.25-2.27 3.16-4.08 5.678-5.377 2.5-1.28 5.924-1.933 10.18-1.933 5.265 0 9.36 1.19 12.17 3.54 2.817 2.34 4.514 6.096 5.047 11.166l.082.783-13.135.887-.1-.7c-.28-1.928-.862-3.334-1.73-4.18-.84-.812-2.037-1.222-3.558-1.222-1.238 0-2.123.28-2.7.854-.584.572-.866 1.25-.866 2.08 0 .54.22 1.02.676 1.478.34.363 1.258.905 3.79 1.526 5.423 1.377 9.385 2.81 11.79 4.257 2.462 1.47 4.273 3.326 5.382 5.51 1.12 2.18 1.687 4.636 1.687 7.298 0 3.118-.75 6.043-2.223 8.694-1.49 2.672-3.595 4.723-6.26 6.095-2.615 1.36-5.97 2.048-9.97 2.048M380.492 51.938l-3.42-13.085-3.406 13.085h6.826zm4.942 19.434l-1.96-7.744H370.61l-1.932 7.744h-14.252l15.488-48.51h14.583L400 71.372h-14.566zM44.002 87.55l-2.923-.362-2.597 6.372-5.994-1.577 1.03-6.713-2.787-.992-3.956 5.365-5.953-3.11 3.142-6.074-2.398-1.63-5.125 3.95-4.666-4.38 4.332-5.334-1.833-2.245-6.346 2.75-3.075-5.49 5.498-3.885-1.164-2.693-6.726 1.07-1.66-6.07 6.38-2.48-.42-2.88L0 50.495l.102-6.42 6.645-.622.34-2.85-6.39-2.426 1.627-6.11L9.07 33.14l1.047-2.754-5.514-3.96 3.247-5.29 6.22 2.544 1.667-2.324-4.215-5.323 4.48-4.407 5.408 4.255 2.168-1.76-2.77-6.045 5.495-3.335 4.14 5.445 2.544-1.075-.98-6.676L38.097.77l2.464 6.27 2.822-.323.85-6.717 6.317.016.8 6.653 2.795.248 2.48-6.25 6.112 1.555-.985 6.735 2.8.964 4.015-5.435 5.425 3.182-2.66 6.065 2.086 1.65 1.126-.6 4.314-3.444 4.533 4.473-4.246 5.38 1.61 2.007 6.58-2.582 2.825 5.265-5.275 4.01 1.175 2.738 6.735-.973 1.635 5.987L88.1 40.1l.296 2.79 6.86.8.002 6.274-6.82.785-.247 2.807 6.377 2.5-1.592 5.967-6.82-.97-1.087 2.58 5.53 4.1-3.132 5.464-6.065-2.672-1.708 2.04.236.712 3.807 4.697-4.31 4.376-5.266-3.874-2.434 1.492 2.7 6.217-5.588 3.166-3.885-5.402-2.637 1.027.895 6.83-6.17 1.444-2.36-6.154-2.88.387-.678 6.64-6.368.14-.752-6.714z" fill="#231f20" fill-rule="evenodd"/><path d="M85.277 47.42c0 20.702-16.966 37.483-37.895 37.483-20.93 0-37.894-16.78-37.894-37.484 0-20.71 16.965-37.49 37.894-37.49 20.93 0 37.895 16.78 37.895 37.49" fill="#fff" fill-rule="evenodd"/><path d="M29.156 40.672v3.614l-.03-.013c-.363-.31-.768-.624-1.25-.727-.817.108-1.616-.308-2.414-.104-.417.16-.337-.467-.628-.586-.18-.186-.4-.024-.6.03-.064-.155-.128-.304-.186-.455.273-.325.43-.768.786-1.002.252.15.816.844.843.207-.17-.76.378-.99.944-1.088.317-.16-.486-.485-.328-.793.37-.175.764-.342 1.196-.168.382.342.672.778 1.014 1.16.217-.024.432-.07.654-.074m0-4.718v4.41c-.215.022-.424.08-.632.106-.284-.4-.484-.905-.987-1.075-.422-.204.26-.515.325-.785-.058-.324-.28-.597-.327-.926.29-.77 1.05-1.173 1.62-1.73m0-2.02c-.137-.088-.268-.2-.382-.3-.486-.24-1.06-.203-1.565-.045.002-.11.002-.332.004-.444 0-.263-.017-.52-.04-.785l-.087-.933c-.022-.436-.03-.868-.032-1.303l-.017-1.056c-.04-.054-.115-.146-.156-.19.014-.246.04-.495.068-.744l-.053-1.11-.003-1.746c-.896-.018-1.795-.013-2.69-.005l.006.146-1.138.015-.298-.005c-.242 0-.49-.017-.733-.03-.274.02-.545.04-.813.07-.39.08-1.185-.263-1.303.12l-.004.14c-.017.68.023 1.353-.017 2.04-.204.013-.412.023-.625.023-.354.14-1.162-.22-1.11.337.23.003.47.086.654.237.683.477.98 1.425 1.838 1.632.166.12.34.235.408.437l.16.3c.267.315.604.533 1.024.562.203.283.203.64.242.976-.14.156-.244.387-.49.387-.486.01-.965-.005-1.45-.01l-.272-.035-.323.056c-.604.12-1.21.148-1.822.087l-.884.078c-.618 1.035-1.346 2.023-1.877 3.105.107.32.26.63.444.912.298.36-.016.794-.133 1.165-.07.488-.2.982-.176 1.48.467.208.855.54 1.248.85.626-.09.9.6 1.3.95l.09-.074c.344.5.964.79 1.57.66l.34.01c.292 0 .873-.007 1.166-.01.48.027.963-.008 1.443-.024.414.113.85.768 1.256.364.202-.31.412-.623.642-.915.34-.13.622.105.886.28.028-.216.055-.43.084-.643-.004-.42.4-.536.728-.637-.112-.14-.234-.278-.327-.44.153-.475.87-.36 1.203-.536.277-.416.482-.87.3-1.37-.375-.675.306-.973.63-1.384.3-.287.614-.563.946-.813l.14-.044v-1.79zm0-9.95v8.292c-.533.46-.93 1.146-1.764 1.008l-.055-1.775.034-.44c.02-.572.008-1.148-.004-1.718-.04-.4.303-.93-.176-1.16l.034-.106c-.054-.79.142-1.622-.124-2.385l-.03-.905c.53-.137.9.54 1.405.19-.027-.505.45-.686.68-1.002m0 8.293v-8.293c.052-.073.094-.153.108-.246.04-.268.093-.53.135-.79.13-.356.474-.39.805-.34l.062.625c.325-.003.67-.24.972-.055-.09.68-.164 1.364-.252 2.038-.18.32-.288.67-.374 1.022.02.512.043 1.02-.013 1.538.35.807.293 1.728.03 2.553-.204.55-.62.98-.743 1.566-.286.05-.517.2-.728.382m0 3.447c.095-.034.19-.064.286-.096.115-.153.236-.305.357-.45.325-.253.67-.49.958-.778l.15-.05c-.272-.506-.704-1.01-1.317-1.085.052.21.128.412.2.613-.21.21-.43.17-.634.056v1.79zm0 8.563c.042.04.1.098.134.127.81.075 1.6.28 2.413.367.093-.02.278-.05.37-.067.5-.117 1.034-.263 1.213-.796l.104-.146c.142-.633.154-1.337-.02-1.97-.243-.21-.57-.284-.866-.415-.42-.225-.742.285-1.067.478-.742.35-1.084-.568-1.792-.47-.194-.207-.245-.49-.388-.724-.037 0-.07 0-.1.002v3.614zm17.615 8.93c-.065-.033-.13-.073-.19-.11-.6.247-1.295.403-1.915.144-.645-.155-1.268-.614-1.954-.417-.112.262.005.756-.414.71-.247 0-.545-.038-.494.31.16.05.325.105.492.15.304.107.556.31.644.63-.173.33-.43.61-.6.936-.44.787.268 1.602.844 2.103.4.056.852.11 1.192.358.198.164.36.362.522.55.176.088.323.362.538.27.158-.187.248-.412.36-.625l.152-.337c-.14-.56-1.035-.372-1.323-.873-.274-.253-.027-.772.356-.653.578.35 1.176.72 1.63 1.218.05.075.108.14.16.21v-4.575zm0-20.197v4.79c-.394.218-.855.173-1.295.203-.36-.507-1.153-.74-1.433-.037-.183.6-.272 1.223-.367 1.844-.19.072-.383.14-.566.22-.22.817-1.36.817-1.51 1.66-.205.006-.415-.01-.618.01.237.175.57.58.8.175.2-.447.44-.87.97-.96.174-.19.34-.378.506-.57.34-.32.986-.448.75-1.044-.088-.596.34-1.15.676-1.61.202.104.393.234.6.33.435.187.995.187 1.487.076v14.85c-.514-.178-1.034.5-1.595.238-.806-.236-1.59-.634-2.445-.502l-.287-.002c-1.172-.716-2.037-1.8-3.144-2.59-.123-.1-.24-.202-.355-.3-.686-.98-1.545-1.83-2.697-2.23-.387-1.095-1.912-1.39-2.02-2.55.27.112.488.322.716.513.442.414 1.003-.167 1.494-.21.35-.048.574-.3.76-.578-.03-.49.346-.814.693-1.09l-.082-1.075c-.095-.228-.235-.573.158-.568.48-.178 1.002-.06 1.502-.06.118-.126.162-.3.13-.5-.59.61-1.688-.064-2.193.653.034.488.595 1.146.16 1.568-.673.32-.575 1.266-1.328 1.528-.073-.004-.203-.023-.273-.03-.288-.18-.57-.354-.847-.55-.4-.292.36-1.046-.215-1.194-.362.148-.735.234-1.133.263-.245-.673.018-1.405-.233-2.05-.237-.167-.518-.238-.77-.38-.57-.583-1.052.253-1.594.497-.49-.027-.74-.714-1.34-.536-.132-.29-.223-.604-.42-.87-.088-.005-.174 0-.257.014v-4.41c.105-.104.2-.21.286-.327l.27-.013c.452-.414 1.015-.727 1.32-1.266.15-.024.292-.005.44 0 .407-.12.72-.387 1-.687.174-.063.343-.118.505-.196.39-.302.73.01 1.08.2.984.337 2.183.58 3.164.175.678-.447 1.51.193 2.077-.505l.274-.035c.342-.1.58-.295.506-.676l.017-.157c.4-.19.69.266 1.053.37.503-.044 1.005.004 1.506.097.144-.01.29-.034.43-.072.43-.504 1.167-.387 1.73-.175.462.146.963.63 1.444.26.172 0 .35.016.515.072m0 4.79l.012-.006c.857-.337 1.792-.556 2.56-1.086.274-.225.543-.46.85-.637.348.27.763.104 1.14-.01.1-.347-.184-.575-.414-.777-.26-.292-.622-.432-.998-.488-.396-.012-.294.402-.367.663-.586.117-1.167-.353-1.223-.937.203-.007.405-.017.605-.033l.093-.098c-.706-.335-1.38-.747-1.98-1.25-.088-.056-.18-.102-.276-.13v4.788zm0 15.145v-14.85c.15-.036.294-.078.427-.13.495-.275 1.032-.48 1.575-.663.588-.214.985-.798 1.61-.9.216.182 1.12-.447 1.007.19l-.023 1.026c.376.643.588 1.468.078 2.097-.078.146-.137.31-.205.47-.027.07-.085.23-.117.305-.168.17-.32.366-.352.6.238.997.087 2.05-.028 3.054.006.15.022.302.05.46.014.757.39 1.588.295 2.312l-.247.292c-.29.234-.316.624-.445.958l-.027 1.126c.317.272.367.68.356 1.07-.175.163-.358.322-.53.49-.446.525-.44 1.482-.023 2.016.208.204.567.318.547.655-.424.27-.847.656-1.423.467-.437-.196-.843-.443-1.27-.647-.212-.5-.757-.018-1.09-.324-.053-.035-.11-.06-.163-.075m8.3 5.063c-1.047-.66-1.943-1.536-2.905-2.314-.45-.682-.72-1.465-1.152-2.152l-.262.135c-.665.884-2.24.574-2.726-.334-.447.06-.87.048-1.253-.137v4.574c.375.46.776.9 1.24 1.28 1.11.38 2.18.87 3.283 1.262.188.13.28.344.33.56.05.287.044.59-.065.865-.387.664.08 1.295.725 1.542.26.057.993.352.764-.147-.296-.287-1.27-.655-.718-1.123.473-.124.858.252 1.26.44.177.097.312.253.366.446.165.35-.235.815.23 1.03.167.188.33.388.475.597.125.12.26.23.41.33v-.184c-.14-.184-.272-.377-.4-.566l-.297-.404c.403-.644.464-1.34.374-2.08.35-.65-.382-.92-.462-1.465-.2-.586-.022-1.268.185-1.823.15-.223.38-.127.6.014v-.348zm0 2.86c-.233-.304-.64-.485-.6-.93.1-.494-.11-1.096.215-1.534.113.074.244.167.384.25v2.214zm0 2.914c-.096.085-.197.173-.297.25-.224-.468.137-.85.296-1.274v1.024zm0-5.426c.306.19.59.47.596.02-.18-.118-.368-.227-.558-.338l-.04-.03v.348zm0 6.506l.035.03v-.16l-.036-.053v.182zM68 57.542c.71-.248 1.66-.108 2.367.245.81 0 1.638-.09 2.434.122.072.018.206.066.278.087.465.305 1.052.215 1.548.448.436.19.722.587 1.08.887.526.52 1.198.876 1.803 1.3.013.29.02.576.028.865.193.28.393.563.596.84.18.32.29.665.37 1.02-.284.223-.55.483-.638.85-.066.2-.13.41-.18.62-.568.544-.69-.482-1.268-.31-.342-.026-.074.533-.125.75-.134.372-.212.762-.212 1.16-.21-.053-.412-.095-.618-.167-.1-.212-.204-.43-.317-.64-.114-.254-.35-.42-.6-.527-.044-.027-.14-.075-.18-.104-.106-.383-.24-.755-.463-1.083l-.05-.133c-.157-.128-.314-.257-.477-.382-.058-.385.3-.163.518-.136.083-.246.146-.498.21-.756.273-.292.684-.56.388-1.088-.55-.4-.927.282-1.242.64l-.12-.067c-.065-.422-.022-1.053-.54-1.205-.703-.182-1.218-.716-1.857-1.02-.077-.017-.226-.07-.305-.09-.983-.237-2.25.157-2.698 1.068-.022.313.04.644-.032.96-.62.37-1.235.754-1.782 1.224-.31.024-.738-.253-.91.12-.47.368-.372 1.132.13 1.414.203.103.402.225.592.35.25.302.525.59.82.847.222.257.774.61.176.777l-.458-.03c-.18.136-.616.08-.616.35l.004.246c-.556.435-1.3.257-1.916.55-.118-.097-.232-.2-.35-.31-.156-.373-.32-.75-.495-1.124-.065-.128-.133-.242-.208-.358 0-.503.083-1.105-.545-.92-.537.097-.156.903-.493 1.245-.435-.183-.852-.42-1.28-.626-.053-.158-.107-.322-.163-.475-.258-.455-.698-.774-1.12-1.08-.713.142-1.353.025-1.863-.458-.628.393-1.416.082-2.054.254-.034.035-.066.07-.095.096v-1.024c.015-.045.03-.09.04-.14-.023-.56-.064-1.124.008-1.678-.014-.027-.033-.048-.048-.072v-2.215c.322.196.67.33.906-.082.364.088.67.248.798.616.212.645.266 1.492.962 1.82.54.04 1.13-.055 1.546-.42l.313.25c1.164.91 3.144.726 3.984-.543.396-.242.833-.396 1.272-.542.988-.192 1.72-.95 2.53-1.477.246-.214.395-.503.62-.742" fill="#bdbcbc" fill-rule="evenodd"/><path d="M31.237 23.176c-.087.68-.165 1.364-.25 2.038-.182.324-.29.67-.375 1.022.017.515.042 1.024-.017 1.54.355.808.295 1.725.032 2.55-.202.553-.62.983-.742 1.567-1.02.185-1.34 1.587-2.493 1.393l-.057-1.778.035-.438c.022-.573.01-1.146-.003-1.716-.04-.4.303-.93-.176-1.16l.035-.11c-.053-.79.14-1.62-.125-2.384l-.03-.906c.528-.134.898.54 1.405.19-.04-.62.7-.744.79-1.248.038-.268.092-.53.13-.79.133-.354.477-.39.81-.34l.06.628c.325-.003.67-.244.972-.058zm-2.735 17.57c.247-.027.498-.078.752-.078.145.233.196.52.39.724.71-.095 1.05.82 1.793.47.325-.19.647-.703 1.067-.478.293.13.623.208.868.414.173.637.16 1.34.02 1.975l-.106.143c-.18.533-.713.68-1.214.796-.09.02-.275.05-.368.07-.814-.086-1.602-.295-2.413-.367-.038-.037-.118-.112-.162-.143-.364-.31-.77-.622-1.25-.727-.818.11-1.617-.306-2.418-.104-.415.16-.335-.463-.628-.585-.178-.186-.398-.02-.598.032-.066-.157-.13-.303-.186-.457.274-.323.43-.77.784-1 .254.15.818.84.845.207-.168-.762.38-.993.945-1.09.316-.158-.488-.486-.33-.792.37-.177.765-.344 1.197-.167.38.342.668.777 1.012 1.157zm21.894 7.43L50.37 49.3c.316.276.363.68.355 1.07-.176.164-.36.323-.53.49-.446.526-.442 1.483-.024 2.017.21.207.565.318.548.655-.428.274-.85.656-1.424.467-.436-.194-.842-.444-1.27-.648-.212-.5-.756-.016-1.09-.32-.572-.404-1.14.448-1.76.16-.805-.233-1.59-.633-2.443-.498l-.29-.003c-1.17-.716-2.034-1.8-3.14-2.588-.122-.104-.24-.202-.354-.303-.688-.98-1.545-1.827-2.698-2.23-.386-1.096-1.912-1.39-2.02-2.55.27.11.49.32.716.512.442.414 1.003-.168 1.494-.207.352-.05.574-.302.76-.58-.03-.49.347-.814.693-1.09l-.082-1.074c-.095-.23-.234-.574.157-.567.48-.18 1.003-.06 1.504-.06.115-.128.16-.298.128-.503-.59.61-1.687-.063-2.193.657.035.485.596 1.142.16 1.565-.673.324-.577 1.268-1.33 1.53-.07-.006-.2-.026-.27-.03-.288-.184-.57-.357-.85-.55-.398-.295.36-1.05-.215-1.197-.36.148-.732.234-1.13.262-.245-.67.02-1.403-.233-2.048-.237-.168-.517-.24-.77-.38-.568-.585-1.054.252-1.593.5-.49-.028-.74-.716-1.343-.54-.13-.29-.22-.605-.417-.868-.3-.016-.596.077-.89.117-.282-.4-.482-.906-.985-1.073-.423-.208.26-.518.322-.79-.056-.322-.278-.593-.325-.925.343-.912 1.346-1.308 1.907-2.053l.27-.017c.45-.41 1.015-.727 1.32-1.266.15-.023.293-.005.442 0 .406-.116.718-.387.998-.684.175-.064.34-.123.506-.2.388-.3.73.01 1.08.2.984.336 2.183.58 3.164.178.677-.446 1.507.19 2.076-.507l.27-.034c.342-.102.58-.296.51-.675l.016-.157c.398-.19.69.263 1.052.372.503-.048 1.006.003 1.507.093.144-.01.288-.032.43-.07.43-.506 1.167-.39 1.728-.174.465.142.966.627 1.444.257.28.005.557.045.794.203.6.502 1.273.914 1.978 1.248l-.093.098c-.198.016-.4.03-.603.037.056.58.638 1.054 1.223.937.074-.26-.03-.675.367-.666.373.055.74.196.996.488.232.202.518.43.417.777-.378.113-.793.28-1.142.012-.305.178-.574.41-.85.637-.768.53-1.7.746-2.558 1.085-.398.222-.865.177-1.306.21-.36-.507-1.153-.74-1.434-.04-.183.602-.27 1.223-.366 1.844-.19.07-.384.14-.566.22-.22.816-1.363.816-1.51 1.66-.207.005-.414-.008-.617.01.236.176.566.582.8.176.198-.45.44-.873.967-.96.176-.19.342-.38.51-.57.337-.32.985-.447.748-1.046-.09-.598.342-1.152.677-1.61.202.105.393.235.6.327.567.253 1.343.176 1.912-.052.495-.276 1.03-.48 1.575-.66.588-.216.987-.8 1.612-.903.215.182 1.118-.446 1.003.19l-.02 1.025c.376.642.59 1.468.08 2.097-.08.146-.14.313-.206.47-.026.073-.085.233-.116.307-.17.168-.32.367-.352.6.237.996.085 2.052-.03 3.052.01.15.022.303.05.46.014.758.39 1.59.295 2.313l-.247.292c-.29.234-.315.624-.444.958zM29.443 35.628c-.142.044-.286.09-.428.137-.332.252-.647.525-.945.812-.324.413-1.006.708-.63 1.384.18.5-.024.956-.3 1.37-.335.175-1.05.063-1.204.536.093.16.215.3.328.443-.33.097-.733.215-.728.633-.03.213-.06.43-.083.646-.265-.178-.548-.41-.886-.28-.23.292-.44.604-.643.914-.406.403-.842-.252-1.256-.363-.483.015-.964.05-1.442.023l-1.168.013-.34-.014c-.605.13-1.224-.162-1.57-.66l-.092.076c-.396-.353-.67-1.042-1.297-.95-.394-.31-.782-.645-1.248-.854-.024-.494.107-.987.176-1.478.117-.37.432-.804.134-1.165-.184-.282-.337-.592-.444-.913.532-1.083 1.26-2.067 1.877-3.102l.884-.077c.612.062 1.217.03 1.82-.09l.324-.056.27.038c.486.005.965.018 1.45.008.247 0 .353-.23.49-.387-.038-.336-.038-.69-.24-.977-.42-.03-.758-.248-1.026-.56l-.16-.304c-.067-.2-.243-.32-.407-.438-.858-.206-1.154-1.154-1.837-1.632-.183-.15-.423-.23-.654-.236-.053-.557.755-.196 1.11-.337.21 0 .42-.01.625-.023.04-.685 0-1.36.016-2.038l.004-.14c.12-.385.916-.043 1.305-.123.267-.028.536-.05.81-.07.245.016.49.03.734.032l.298.003 1.138-.014-.005-.147c.892-.008 1.793-.01 2.69.008l.002 1.744.054 1.113c-.03.248-.053.495-.068.742.04.044.117.137.156.187.003.26.01.794.018 1.057.002.438.01.867.03 1.305l.09.934c.02.262.038.52.038.785-.003.108-.003.33-.004.44.505-.16 1.08-.195 1.563.044.288.244.666.595 1.02.244-.073-.2-.15-.403-.2-.612.613.074 1.045.58 1.316 1.088l-.15.045c-.288.288-.633.524-.96.776-.12.15-.24.3-.356.454zM48.025 53.35c.486.908 2.06 1.22 2.725.337l.264-.136c.432.687.7 1.47 1.152 2.15.972.785 1.88 1.68 2.943 2.345.19.108.375.217.558.34-.013.763-.826-.58-1.2-.04-.205.556-.382 1.238-.182 1.824.08.545.812.815.46 1.468.09.737.03 1.433-.375 2.08l.3.403c.143.202.285.414.436.616v.16c-.158-.106-.307-.225-.444-.358-.144-.207-.308-.41-.474-.597-.466-.212-.066-.68-.235-1.027-.05-.197-.188-.35-.364-.446-.4-.19-.786-.565-1.26-.443-.552.466.422.835.718 1.122.23.5-.506.204-.765.148-.645-.25-1.11-.88-.725-1.54.11-.278.115-.582.066-.87-.05-.215-.142-.43-.33-.556-1.103-.396-2.173-.884-3.284-1.266-.535-.435-.984-.945-1.4-1.486-.454-.5-1.054-.868-1.63-1.22-.384-.117-.63.402-.357.652.29.502 1.184.313 1.324.875l-.154.336c-.11.213-.203.438-.36.626-.214.09-.36-.182-.536-.27-.167-.19-.325-.39-.525-.552-.337-.25-.79-.302-1.19-.358-.576-.5-1.283-1.316-.844-2.1.17-.33.427-.61.6-.938-.09-.32-.34-.525-.644-.632-.166-.042-.33-.098-.49-.15-.052-.348.245-.31.492-.31.42.046.303-.445.415-.708.685-.2 1.31.263 1.955.417.62.258 1.316.102 1.914-.145.43.29.923.313 1.445.247zM68 57.542c.71-.25 1.657-.11 2.368.244.81 0 1.638-.087 2.434.122.07.02.205.067.275.09.468.305 1.053.213 1.55.446.436.19.722.59 1.08.89.526.52 1.197.872 1.803 1.296.014.29.02.58.03.866.192.28.392.565.595.84.18.32.29.665.37 1.02-.284.223-.55.485-.64.85-.064.204-.128.41-.177.62-.57.544-.69-.48-1.27-.31-.34-.027-.073.535-.124.753-.137.37-.213.76-.213 1.156-.21-.05-.414-.095-.617-.164-.1-.216-.204-.433-.32-.643-.112-.255-.35-.42-.598-.528-.043-.027-.138-.075-.183-.1-.102-.386-.236-.758-.46-1.085l-.05-.132c-.156-.13-.313-.257-.476-.38-.06-.39.3-.167.515-.14.084-.247.15-.496.213-.754.274-.293.684-.56.388-1.09-.55-.4-.926.283-1.244.64l-.12-.063c-.063-.425-.022-1.056-.536-1.205-.704-.185-1.22-.72-1.858-1.022-.08-.018-.23-.07-.306-.092-.984-.234-2.25.158-2.698 1.07-.022.312.04.643-.032.96-.62.368-1.235.753-1.784 1.223-.31.027-.736-.25-.91.12-.47.372-.37 1.134.13 1.415.203.106.403.225.593.352.253.3.525.587.82.845.223.26.773.612.177.78l-.46-.032c-.18.135-.617.08-.617.348l.008.246c-.556.435-1.302.26-1.917.55-.12-.096-.232-.2-.35-.306-.156-.374-.32-.754-.495-1.127-.062-.124-.13-.238-.206-.356 0-.5.083-1.103-.545-.918-.538.093-.157.9-.494 1.242-.438-.182-.855-.416-1.282-.623-.05-.16-.105-.324-.16-.475-.26-.457-.7-.775-1.122-1.077-.713.138-1.355.02-1.863-.462-.63.396-1.417.086-2.055.258-.122.122-.254.236-.39.343-.25-.514.222-.934.334-1.41-.023-.564-.064-1.124.008-1.68-.22-.353-.686-.523-.65-1.002.104-.495-.108-1.096.216-1.535.386.233.957.758 1.292.17.36.084.67.245.795.615.214.645.27 1.49.966 1.817.537.04 1.13-.052 1.546-.418l.313.25c1.162.912 3.142.726 3.985-.545.395-.24.832-.396 1.272-.542.99-.193 1.716-.95 2.53-1.478.244-.214.395-.504.62-.74z" fill="none" stroke="#231f20" stroke-width=".129" stroke-miterlimit="22.926"/><path d="M53.472 81.963c-1.99.313-3.946.47-5.865.478-7.21.032-13.938-2.07-20.198-6.22 6.257 1.168 13.284 1.13 20.197-.143 16.617-3.06 32.57-13.268 35.585-31.136-3.89 10.743-18.685 21.673-35.585 24.12-10.803 1.573-22.47-.33-32.693-7.962-1.277-2.852-2.18-5.87-2.63-9.082-1.016-8.11.478-15.654 4.486-22.617 5.81-10.25 15.337-15.803 27.95-17.46.968-.084 1.935-.126 2.887-.13 6.564-.017 12.867 1.872 18.97 5.396C76.13 23.5 81.61 31.91 83.01 42.44c.084.837.143 1.667.182 2.5l.003-.005-.003.006c.276 5.867-.605 11.506-3.08 16.838-5.954 11.64-14.928 18.216-26.64 20.185m25.87-8.37l-.382-1.162 2.254-2.692 5.978 2.633 2.556-4.458-5.477-4.062 1.476-3.508 6.747.963 1.297-4.86-6.29-2.466.334-3.81 6.773-.78-.004-5.125-6.798-.795-.405-3.792 6.25-2.425-1.332-4.874-6.66.962-1.57-3.656 5.24-3.983-2.295-4.273-6.487 2.545-2.232-2.778 4.207-5.332-3.706-3.656-3.906 3.112-1.56.834-2.812-2.225 2.63-5.995-4.422-2.595-3.948 5.35-3.768-1.296.98-6.69-4.984-1.268-2.45 6.17-3.81-.343L49.972.66 47.61.654l-2.8-.008-.844 6.655-3.828.438-2.432-6.19-4.967 1.355.967 6.605-3.477 1.468-4.087-5.38-4.498 2.73 2.737 5.977-2.963 2.41-5.367-4.224-3.658 3.597 4.158 5.25-2.246 3.137-6.185-2.53-2.648 4.31 5.43 3.9-1.406 3.708-6.69-1.066-1.327 4.986 6.31 2.4-.458 3.865-6.587.62-.083 5.245 6.675.638.567 3.883-6.317 2.46 1.352 4.95 6.65-1.058 1.57 3.636-5.454 3.85 2.508 4.475 6.258-2.71 2.476 3.032-4.286 5.272 3.825 3.592 5.057-3.9 3.265 2.217-3.11 6.013 4.884 2.55 3.91-5.305 3.752 1.332-1.025 6.67 4.874 1.28 2.57-6.302 3.93.485.743 6.63 2.27-.046 2.924-.066.675-6.577 3.902-.526 2.34 6.103 5.043-1.178-.886-6.753 3.585-1.397 3.837 5.34 4.572-2.59-2.694-6.203 3.286-2.013 5.167 3.8 3.506-3.565-3.522-4.34z" fill="#231f20" fill-rule="evenodd"/></svg>