<svg xmlns="http://www.w3.org/2000/svg" width="400" height="147.685"><path d="M36.965 126.177v12.3c0 5.776-3.28 9.208-8.842 9.208-5.596 0-8.876-3.432-8.876-9.208v-12.3h2.65v12.42c0 4.094 2.164 6.62 6.226 6.62 4.062 0 6.195-2.526 6.195-6.62v-12.42h2.647zM58.738 126.177v21.056h-2.464L44.3 131.41l-.422-.663.06.876v15.61h-2.613v-21.056h2.433l12.003 15.73.392.692-.06-.874v-15.55h2.646zM89.803 126.177v2.436h-7.006v18.62h-2.62v-18.62h-6.98v-2.436h16.606zM106.948 144.795v2.438h-14.32v-21.056h14.137v2.436h-11.52v6.346h9.264v2.377h-9.265v7.458h11.703zM126.285 131.98c-1.385-2.256-4-3.668-6.89-3.668-4.724 0-8.207 3.4-8.207 8.393 0 4.994 3.574 8.363 8.208 8.363 3.185 0 5.954-1.69 7.278-4.243l2.62.72c-1.777 3.733-5.476 6.11-9.898 6.11-6.046 0-10.92-4.604-10.92-10.95 0-6.348 4.874-10.95 10.92-10.95 4.15 0 7.7 2.168 9.564 5.504l-2.675.72zM148.567 126.177v21.056h-2.614v-9.658h-11.31v9.658h-2.62v-21.056h2.62v8.934h11.31v-8.933h2.614zM162.942 125.755c6.046 0 10.948 4.603 10.948 10.948 0 6.35-4.902 10.95-10.948 10.95s-10.918-4.6-10.918-10.95c0-6.345 4.872-10.948 10.918-10.948m0 19.342c4.692 0 8.24-3.43 8.24-8.394 0-5.024-3.548-8.393-8.24-8.393-4.69 0-8.213 3.37-8.213 8.393 0 4.964 3.523 8.394 8.212 8.394M195.33 126.177c4.932 0 7.88 2.525 7.88 6.736 0 4.212-2.948 6.77-7.88 6.77h-3.94v7.55h-2.618v-21.056h6.56zm-.032 11.037c3.37 0 5.205-1.623 5.205-4.3 0-2.767-1.986-4.3-5.205-4.3h-3.91v8.6h3.91zM218.52 142.116h-11.854l-2.555 5.116h-2.885l10.527-21.056h1.68l10.53 21.056h-2.89l-2.553-5.116zm-1.205-2.433l-4.512-9.026-.21-.63-.21.63-4.513 9.026h9.445zM238.547 147.232l-4.9-7.822c-.272.033-.602.033-.905.033h-3.88v7.79h-2.618v-21.057h6.498c4.962 0 7.94 2.527 7.94 6.617 0 3.01-1.59 5.172-4.39 6.107l5.202 8.332h-2.947zm-5.533-10.255c3.277 0 4.96-1.717 4.96-4.184 0-2.59-1.835-4.18-4.96-4.18h-4.153v8.364h4.154zM259.78 142.116h-11.85l-2.557 5.116h-2.886l10.522-21.056h1.685l10.527 21.056h-2.888l-2.553-5.116zm-1.203-2.433l-4.512-9.026-.21-.63-.214.63-4.51 9.026h9.447zM298.758 126.177v21.056h-2.617V131.71l.062-.9-.42.9-6.26 10.346h-1.14l-6.26-10.347-.422-.875.06.874v15.523h-2.616v-21.056h2.467l7.04 11.642.3.6.27-.6 7.07-11.643h2.468zM303.687 126.176h2.616v21.057h-2.616v-21.057zM329.22 126.177c4.93 0 7.88 2.525 7.88 6.736 0 4.212-2.95 6.77-7.88 6.77h-3.944v7.55h-2.614v-21.056h6.557zm-.032 11.037c3.37 0 5.205-1.623 5.205-4.3 0-2.767-1.986-4.3-5.205-4.3h-3.912v8.6h3.912zM352.407 142.116h-11.85l-2.555 5.116h-2.89l10.528-21.056h1.684l10.527 21.056h-2.887l-2.556-5.116zm-1.204-2.433l-4.51-9.026-.212-.63-.21.63-4.51 9.026h9.443zM365.91 121.936l-6.616 3.127-.846-1.474 6.498-3.493.963 1.84zm-5.775 4.24h2.616v21.056h-2.615v-21.057zM378.963 132.072c-.482-2.528-2.588-4.032-5.146-4.032-2.675 0-4.63 1.205-4.63 3.374 0 2.223 2.796 2.883 5.626 3.757 2.977.903 6.917 2.046 6.917 6.316 0 3.55-3.066 6.168-7.702 6.168-4.512 0-7.367-2.65-8.09-6.23l2.554-.687c.275 2.466 2.348 4.54 5.658 4.54 3.007 0 4.9-1.566 4.9-3.7 0-2.888-3.757-3.67-6.676-4.605-2.495-.78-5.866-1.89-5.866-5.472 0-3.28 3.13-5.746 7.375-5.746 3.848 0 6.823 2.256 7.572 5.66l-2.492.658z" fill="#58595b"/><path d="M384.37 53.81h-13.393c-1.298 0-2.344 1.052-2.344 2.345v23.12c0 1.292-1.052 2.344-2.347 2.344h-37.533c-1.298 0-2.344-1.053-2.344-2.346v-23.12c0-1.292-1.05-2.344-2.344-2.344h-12.312c-1.293 0-1.62-.76-.73-1.7l35.42-37.267c.894-.943 2.34-.943 3.23 0L385.1 52.11c.89.94.565 1.7-.73 1.7m-159.414 17l-23.44.17c-.876.008-2 .594-2.558 1.27-5.03 6.14-12.1 9.36-20.794 9.36-7.964 0-14.48-2.976-19.84-8.334-5.357-5.357-7.968-12.02-7.968-19.986 0-7.677 2.756-14.048 8.113-19.258 5.5-5.213 12.025-7.82 19.694-7.82 8.606 0 15.793 3.35 21.442 9.92.574.67 1.72 1.233 2.6 1.233h22.75V70.81zM346.472.048c-15.862 0-30.105 6.902-39.905 17.86V3.954C306.56 2.2 304.77 2.37 304.77 2.37h-23.797c-.88 0-1.59.71-1.59 1.59v35.574c0 .882-.71 1.59-1.587 1.59H253.77c-.88 0-1.593-.708-1.593-1.59V3.96c0-.88-.71-1.59-1.588-1.59h-24.044c-.88 0-1.59.71-1.59 1.59v20.19c-4.2-6.152-8.632-10.98-13.334-14.444C202.79 3.186 191.78 0 178.456 0c-15.21 0-28.243 5.068-39.105 15.066-7.62 7.027-12.66 15.138-15.09 24.377-.224.848-1.093 1.54-1.97 1.54H93.31c-.88 0-1.59-.707-1.59-1.59V27.748c0-.88.71-1.592 1.59-1.592h32.786c.88 0 1.59-.712 1.585-1.59L127.62 3.96c-.003-.88-.717-1.59-1.596-1.59L1.588 2.332C.71 2.332 0 3.046 0 3.92v20.644c0 .88.71 1.59 1.588 1.59h15.85c.875 0 1.59.712 1.59 1.593v75.52c0 .88.712 1.595 1.59 1.595H44.52c.877 0 1.588-.714 1.588-1.595v-75.52c0-.88.712-1.592 1.59-1.592h15.76c.877 0 1.59.71 1.59 1.592v75.58c0 .877.712 1.59 1.588 1.59h59.386c.88 0 1.593-.713 1.593-1.59V82.463c0-.876-.714-1.588-1.593-1.588H93.31c-.88 0-1.59-.713-1.59-1.59v-13.25c0-.88.71-1.593 1.59-1.593h28.722c.876 0 1.72.703 1.915 1.56 2.228 9.918 7.148 18.59 14.825 25.958 10.715 10.135 23.9 15.206 39.54 15.206 13.178 0 24.04-3.04 32.728-9.267 4.956-3.646 9.605-8.683 13.916-15.145v20.515c0 .88.71 1.595 1.59 1.595h24.043c.876 0 1.587-.714 1.587-1.595V67.624c0-.88.714-1.59 1.593-1.59h24.026c.876 0 1.587.71 1.587 1.59v35.643c0 .88.71 1.595 1.59 1.595h24.39s1.173.122 1.204-1.077V89.247c9.8 10.96 24.043 17.863 39.905 17.863 29.563 0 53.528-23.967 53.528-53.53C400 24.015 376.035.047 346.472.047" fill="#00aeef"/></svg>