<svg xmlns="http://www.w3.org/2000/svg" width="400" height="81.591"><g font-size="41.366" font-style="italic" letter-spacing="0" word-spacing="0" fill="#ed7431" font-family="Open Sans"><path style="text-align:start;line-height:125%;-inkscape-font-specification:Open Sans Semi-Bold Italic" d="M14.023 61.99h-9.44l10.516-50.078H0l1.793-8.167h39.76l-1.714 8.167H24.66L14.024 61.99M48.046 7.09c0-1.805.518-3.265 1.554-4.38 1.036-1.116 2.497-1.674 4.382-1.674 1.408 0 2.55.358 3.427 1.076.875.69 1.313 1.752 1.313 3.187 0 1.884-.53 3.372-1.593 4.46-1.063 1.09-2.457 1.634-4.183 1.634-1.408 0-2.577-.345-3.506-1.036-.93-.69-1.394-1.78-1.394-3.267m-1.872 54.9h-9.402l9.402-44.062h9.362L46.174 61.99M77.527 62.787c-5.205 0-9.242-1.408-12.11-4.223-2.87-2.815-4.303-6.84-4.303-12.07 0-5.5.97-10.492 2.908-14.98 1.965-4.516 4.714-8.035 8.247-10.558 3.53-2.55 7.542-3.825 12.03-3.825 4.356 0 8.3.81 11.833 2.43l-2.79 7.332c-3.24-1.408-6.174-2.112-8.804-2.112-3.985 0-7.305 2.045-9.96 6.135-2.657 4.064-3.985 9.097-3.985 15.1 0 2.948.744 5.218 2.23 6.812 1.49 1.594 3.547 2.39 6.177 2.39 1.965 0 3.798-.292 5.497-.876 1.726-.583 3.452-1.3 5.18-2.15v7.768c-3.72 1.886-7.77 2.83-12.153 2.83M130.793 17.928h10.836L122.386 37.25l11.593 24.74h-10.438l-8.326-18.764-5.42 3.824-3.066 14.94h-9.402L110.475 0h9.362c-3.586 16.653-5.71 26.347-6.374 29.083-.638 2.71-1.42 5.71-2.35 9.003h.158l19.523-20.158M164.935 24.302c-2.55 0-4.953 1.142-7.21 3.426-2.232 2.284-3.84 5.3-4.82 9.044h1.154c4.992 0 8.896-.704 11.712-2.112 2.815-1.434 4.223-3.452 4.223-6.055 0-1.355-.425-2.404-1.275-3.148-.85-.77-2.112-1.155-3.785-1.155m-6.055 38.485c-5.233 0-9.323-1.474-12.27-4.422-2.923-2.948-4.383-7.065-4.383-12.35 0-5.26 1.022-10.146 3.067-14.66 2.072-4.543 4.86-8.05 8.367-10.52 3.533-2.47 7.477-3.704 11.833-3.704 4.276 0 7.596.97 9.96 2.91 2.39 1.912 3.585 4.634 3.585 8.166 0 4.834-2.217 8.62-6.653 11.355-4.41 2.71-10.703 4.064-18.884 4.064h-1.712l-.08 1.235v1.155c0 2.948.744 5.258 2.23 6.932 1.515 1.673 3.76 2.51 6.734 2.51 1.913 0 3.812-.253 5.697-.757 1.885-.505 4.116-1.368 6.692-2.59v7.45c-2.55 1.17-4.9 1.992-7.05 2.47-2.126.505-4.503.757-7.132.757" font-weight="600"/><path style="text-align:start;line-height:125%;-inkscape-font-specification:Open Sans Semi-Light Italic" d="M202.636 61.99h-6.853L206.82 9.76h-16.176l1.315-6.015h39.24l-1.195 6.016H213.75l-11.114 52.23M249.327 17.53c2.444 0 4.622.663 6.534 1.99 1.913 1.303 3.4 3.188 4.463 5.66h.438l2.67-6.854h5.06l-9.282 43.664h-5.3l1.037-8.326h-.32c-4.753 6.082-9.76 9.123-15.018 9.123-3.692 0-6.587-1.315-8.685-3.944-2.1-2.63-3.148-6.228-3.148-10.797 0-5.524.943-10.65 2.83-15.378 1.885-4.727 4.487-8.432 7.807-11.115 3.32-2.682 6.96-4.024 10.917-4.024m-7.57 39.72c2.577 0 5.14-1.222 7.69-3.666 2.55-2.47 4.62-5.67 6.215-9.6 1.593-3.96 2.39-7.916 2.39-11.873 0-2.735-.744-4.913-2.23-6.533-1.488-1.62-3.44-2.43-5.857-2.43-2.762 0-5.34 1.142-7.73 3.426-2.363 2.284-4.222 5.378-5.577 9.282-1.354 3.905-2.03 8.02-2.03 12.35 0 3.028.623 5.3 1.87 6.813 1.25 1.488 3.002 2.23 5.26 2.23M298.967 61.99l5.897-27.57c.53-2.76.796-4.673.796-5.736 0-1.673-.478-3.014-1.434-4.023-.93-1.01-2.43-1.513-4.502-1.513-2.364 0-4.674.797-6.932 2.39-2.23 1.594-4.21 3.865-5.936 6.813-1.7 2.948-2.988 6.52-3.864 10.716l-4.024 18.924h-6.693l9.322-43.664h5.538l-.877 8.088h.4c2.55-3.24 5.005-5.525 7.37-6.853 2.39-1.353 4.86-2.03 7.41-2.03 3.372 0 6.028.93 7.967 2.788 1.966 1.833 2.948 4.41 2.948 7.73 0 2.097-.305 4.488-.916 7.17L305.74 61.99h-6.773M360.918 18.326l-.996 4.263-8.407.955c1.09 1.647 1.634 3.745 1.634 6.295 0 5.073-1.555 9.123-4.662 12.15-3.08 3.002-7.21 4.503-12.39 4.503-1.46 0-2.577-.107-3.347-.32-3.69 1.41-5.537 3.148-5.537 5.22 0 1.09.44 1.82 1.315 2.19.877.346 2.15.625 3.825.838l4.66.558c4.808.585 8.287 1.753 10.44 3.506 2.177 1.753 3.266 4.33 3.266 7.73 0 4.886-1.94 8.67-5.818 11.353-3.878 2.683-9.336 4.024-16.374 4.024-5.152 0-9.19-.982-12.11-2.947-2.923-1.94-4.383-4.688-4.383-8.247 0-2.79.956-5.205 2.868-7.25 1.912-2.046 5.007-3.785 9.283-5.22-2.072-1.088-3.108-2.695-3.108-4.82 0-1.833.677-3.4 2.032-4.7 1.354-1.33 3.24-2.564 5.657-3.706-1.673-.85-3.04-2.098-4.103-3.745-1.063-1.673-1.594-3.612-1.594-5.817 0-5.152 1.58-9.375 4.74-12.67 3.188-3.292 7.252-4.94 12.192-4.94 2.07 0 4.117.267 6.135.798h14.78M318.49 69.76c0 2.044.862 3.664 2.588 4.86 1.727 1.194 4.29 1.792 7.69 1.792 4.833 0 8.604-.85 11.314-2.55 2.735-1.673 4.103-4.05 4.103-7.13 0-1.648-.717-2.95-2.15-3.905-1.436-.956-3.88-1.62-7.332-1.992l-6.334-.638c-3.188.664-5.632 1.833-7.332 3.506-1.7 1.673-2.55 3.692-2.55 6.056m11.076-34.86c0 2.257.598 3.983 1.793 5.178 1.195 1.17 2.855 1.753 4.98 1.753 2.098 0 3.93-.556 5.497-1.672 1.567-1.115 2.763-2.643 3.586-4.58.85-1.967 1.275-4.092 1.275-6.376 0-2.178-.584-3.838-1.753-4.98-1.17-1.142-2.842-1.713-5.02-1.713-2.07 0-3.89.544-5.458 1.633-1.54 1.062-2.75 2.563-3.625 4.502-.85 1.912-1.276 3.997-1.276 6.254M383.666 17.768c5.046 0 9.03 1.5 11.952 4.502 2.92 2.975 4.382 7.078 4.382 12.31 0 4.994-.956 9.708-2.868 14.144-1.913 4.435-4.502 7.86-7.77 10.278-3.266 2.417-6.958 3.626-11.074 3.626-5.1 0-9.097-1.5-11.992-4.502-2.895-3.002-4.343-7.105-4.343-12.31 0-5.047.97-9.788 2.91-14.223 1.937-4.462 4.554-7.875 7.847-10.24 3.293-2.39 6.945-3.585 10.956-3.585m9.402 15.896c0-3.054-.837-5.524-2.51-7.41-1.647-1.912-3.89-2.868-6.733-2.868-2.895 0-5.498.982-7.808 2.948-2.284 1.965-4.064 4.7-5.34 8.207-1.247 3.48-1.87 7.358-1.87 11.634 0 3.48.835 6.175 2.51 8.087 1.698 1.887 4.13 2.83 7.29 2.83 2.76 0 5.245-.97 7.45-2.908 2.204-1.94 3.917-4.688 5.138-8.247 1.25-3.586 1.873-7.676 1.873-12.27"/></g></svg>