<?xml version="1.0" encoding="UTF-8" standalone="no"?>
<!-- Created with Inkscape (http://www.inkscape.org/) -->

<svg
   xmlns:dc="http://purl.org/dc/elements/1.1/"
   xmlns:cc="http://creativecommons.org/ns#"
   xmlns:rdf="http://www.w3.org/1999/02/22-rdf-syntax-ns#"
   xmlns:svg="http://www.w3.org/2000/svg"
   xmlns="http://www.w3.org/2000/svg"
   xmlns:sodipodi="http://sodipodi.sourceforge.net/DTD/sodipodi-0.dtd"
   xmlns:inkscape="http://www.inkscape.org/namespaces/inkscape"
   width="105.83333mm"
   height="40.110348mm"
   viewBox="0 0 105.83333 40.110348"
   version="1.1"
   id="svg7532"
   inkscape:version="0.92.1 r15371"
   sodipodi:docname="djuguetes_2018.svg">
  <defs
     id="defs7526">
    <clipPath
       clipPathUnits="userSpaceOnUse"
       id="clipPath1766">
      <path
         d="m 217.352,243.184 c -0.112,-0.024 -0.248,-0.054 -0.409,-0.09 v 0 c -0.16,-0.037 -0.349,-0.082 -0.574,-0.135 v 0 c -0.208,-0.05 -0.46,-0.105 -0.764,-0.164 v 0 l -0.833,-0.159 c -0.071,-0.014 -0.558,-0.132 -0.736,-0.126 v 0 c -0.064,0.002 -0.52,-0.073 -1.008,-0.148 v 0 c -0.548,-0.084 -1.137,-0.168 -1.254,-0.143 v 0 h -1.162 c -0.198,0 -0.387,-0.066 -0.544,-0.19 v 0 c -0.125,-0.098 -0.229,-0.22 -0.304,-0.36 v 0 c -0.067,-0.117 -0.117,-0.24 -0.155,-0.366 v 0 c -0.037,-0.133 -0.056,-0.247 -0.056,-0.349 v 0 c 0,-0.254 0.079,-0.483 0.236,-0.677 v 0 c 0.129,-0.162 0.295,-0.297 0.491,-0.405 v 0 c 0.175,-0.097 0.372,-0.173 0.585,-0.228 v 0 c 0.031,-0.008 0.063,-0.015 0.094,-0.023 v 0 c -0.001,-0.002 0.961,-0.022 1.439,0.016 v 0 c 0.414,0.034 1.075,0.117 1.682,0.227 v 0 c 0.162,0.028 0.356,0.071 0.58,0.126 v 0 c 0.215,0.053 0.478,0.118 0.781,0.198 v 0 c 0.204,0.053 0.411,0.104 0.627,0.157 v 0 c 0.216,0.051 0.424,0.103 0.623,0.148 v 0 c 0.202,0.046 0.387,0.088 0.557,0.128 v 0 c 0.162,0.038 0.294,0.068 0.401,0.086 v 0 c 0.155,0.033 0.312,0.086 0.464,0.155 v 0 c 0.168,0.074 0.321,0.172 0.454,0.291 v 0 c 0.138,0.125 0.253,0.274 0.339,0.445 v 0 c 0.095,0.184 0.144,0.394 0.144,0.623 v 0 c 0,0.213 -0.056,0.396 -0.166,0.549 v 0 c -0.095,0.131 -0.22,0.235 -0.368,0.306 v 0 c -0.121,0.058 -0.26,0.099 -0.414,0.122 v 0 c -0.129,0.021 -0.261,0.031 -0.388,0.031 v 0 c -0.103,0 -0.224,-0.015 -0.362,-0.045"
         id="path1764"
         inkscape:connector-curvature="0" />
    </clipPath>
    <linearGradient
       x1="0"
       y1="0"
       x2="1"
       y2="0"
       gradientUnits="userSpaceOnUse"
       gradientTransform="matrix(11.558654,2.4568679,2.4568679,-11.558654,207.46094,240.01172)"
       spreadMethod="pad"
       id="linearGradient1778">
      <stop
         style="stop-opacity:1;stop-color:#759615"
         offset="0"
         id="stop1772" />
      <stop
         style="stop-opacity:1;stop-color:#a0cd1f"
         offset="0.20619"
         id="stop1774" />
      <stop
         style="stop-opacity:1;stop-color:#a0cd1f"
         offset="1"
         id="stop1776" />
    </linearGradient>
    <clipPath
       clipPathUnits="userSpaceOnUse"
       id="clipPath1744">
      <path
         d="m 167.547,249.7 c -0.476,-0.387 -0.739,-0.873 -0.781,-1.447 v 0 c -0.029,-0.421 0.086,-0.802 0.342,-1.134 v 0 c 0.125,-0.158 0.271,-0.291 0.437,-0.393 v 0 c -0.122,-0.148 -0.269,-0.273 -0.447,-0.381 v 0 c -0.272,-0.166 -0.469,-0.315 -0.606,-0.451 v 0 c -0.191,-0.191 -0.301,-0.455 -0.324,-0.783 v 0 c -0.013,-0.183 0.023,-0.459 0.275,-0.734 v 0 c 0.192,-0.211 0.436,-0.332 0.709,-0.352 v 0 c 0.639,-0.047 1.323,0.424 2.153,1.48 v 0 c 0.775,0.984 1.179,1.865 1.24,2.692 v 0 c 0.04,0.561 -0.064,1.025 -0.31,1.377 v 0 c -0.265,0.379 -0.667,0.599 -1.166,0.636 v 0 c -0.05,0.003 -0.099,0.005 -0.147,0.005 v 0 c -0.489,0 -0.949,-0.172 -1.375,-0.515"
         id="path1742"
         inkscape:connector-curvature="0" />
    </clipPath>
    <linearGradient
       x1="0"
       y1="0"
       x2="1"
       y2="0"
       gradientUnits="userSpaceOnUse"
       gradientTransform="matrix(5.1710458,2.5057931,2.5057931,-5.1710458,165.62012,245.96484)"
       spreadMethod="pad"
       id="linearGradient1756">
      <stop
         style="stop-opacity:1;stop-color:#f09b1a"
         offset="0"
         id="stop1750" />
      <stop
         style="stop-opacity:1;stop-color:#f4d413"
         offset="0.47938"
         id="stop1752" />
      <stop
         style="stop-opacity:1;stop-color:#f4d413"
         offset="1"
         id="stop1754" />
    </linearGradient>
    <clipPath
       clipPathUnits="userSpaceOnUse"
       id="clipPath1722">
      <path
         d="m 172.068,243.898 c -0.203,-0.021 -0.393,-0.084 -0.566,-0.192 v 0 c -0.128,-0.08 -0.271,-0.181 -0.425,-0.304 v 0 c -0.225,-0.179 -0.408,-0.395 -0.548,-0.642 v 0 c -0.155,-0.281 -0.218,-0.597 -0.181,-0.944 v 0 c 0.051,-0.491 0.254,-0.873 0.606,-1.132 v 0 c 0.299,-0.22 0.653,-0.325 1.051,-0.314 v 0 c 0.051,0.002 0.102,0.005 0.153,0.01 v 0 c 0.17,0.017 0.328,0.07 0.476,0.159 v 0 c 0.122,0.072 0.24,0.163 0.352,0.271 v 0 c 0.295,0.287 0.49,0.586 0.576,0.889 v 0 c 0.082,0.283 0.109,0.58 0.079,0.883 v 0 c -0.017,0.161 -0.054,0.318 -0.112,0.471 v 0 c -0.062,0.17 -0.156,0.326 -0.284,0.461 v 0 c -0.135,0.145 -0.307,0.255 -0.51,0.324 v 0 c -0.139,0.047 -0.293,0.07 -0.463,0.07 v 0 c -0.066,0 -0.133,-0.003 -0.204,-0.01"
         id="path1720"
         inkscape:connector-curvature="0" />
    </clipPath>
    <linearGradient
       x1="0"
       y1="0"
       x2="1"
       y2="0"
       gradientUnits="userSpaceOnUse"
       gradientTransform="matrix(3.3144531,0,0,-3.3144531,170.33789,242.13867)"
       spreadMethod="pad"
       id="linearGradient1734">
      <stop
         style="stop-opacity:1;stop-color:#35968c"
         offset="0"
         id="stop1728" />
      <stop
         style="stop-opacity:1;stop-color:#40b7aa"
         offset="0.45361"
         id="stop1730" />
      <stop
         style="stop-opacity:1;stop-color:#40b7aa"
         offset="1"
         id="stop1732" />
    </linearGradient>
    <clipPath
       clipPathUnits="userSpaceOnUse"
       id="clipPath1700">
      <path
         d="m 171.654,239.215 c -0.227,-0.089 -0.423,-0.223 -0.587,-0.401 v 0 c -0.15,-0.164 -0.274,-0.358 -0.369,-0.576 v 0 c -0.09,-0.208 -0.153,-0.425 -0.189,-0.644 v 0 c -0.036,-0.233 -0.046,-0.453 -0.028,-0.651 v 0 c 0,0 0.195,-2.221 0.397,-4.444 v 0 c 0.12,-1.291 0.216,-2.321 0.29,-3.058 v 0 c 0.042,-0.422 0.078,-0.771 0.106,-1.017 v 0 c 0.019,-0.162 0.035,-0.296 0.062,-0.408 v 0 h -0.002 c 0.08,-0.464 0.139,-0.92 0.181,-1.361 v 0 c 0.041,-0.445 0.071,-0.86 0.086,-1.239 v 0 c 0.016,-0.372 0.019,-0.708 0.008,-1 v 0 c -0.01,-0.284 -0.027,-0.503 -0.049,-0.652 v 0 c -0.029,-0.183 -0.074,-0.357 -0.133,-0.517 v 0 c -0.049,-0.132 -0.115,-0.242 -0.19,-0.327 v 0 c -0.068,-0.072 -0.149,-0.124 -0.252,-0.157 v 0 c -0.107,-0.036 -0.252,-0.038 -0.425,-0.012 v 0 c -0.346,0.054 -0.664,0.201 -0.974,0.446 v 0 c -0.338,0.271 -0.656,0.598 -0.947,0.979 v 0 c -0.296,0.388 -0.577,0.816 -0.83,1.269 v 0 c -0.254,0.459 -0.494,0.902 -0.71,1.32 v 0 c -0.135,0.286 -0.37,0.467 -0.666,0.515 v 0 c -0.06,0.009 -0.127,0.013 -0.202,0.011 v 0 c -0.024,0 -0.049,-0.002 -0.078,-0.005 v 0 c -0.117,-0.009 -0.234,-0.038 -0.345,-0.086 v 0 c -0.125,-0.054 -0.238,-0.131 -0.335,-0.234 v 0 c -0.116,-0.125 -0.188,-0.276 -0.214,-0.45 v 0 c -0.017,-0.102 -0.022,-0.183 -0.014,-0.257 v 0 c 0.052,-0.543 0.18,-1.107 0.379,-1.675 v 0 c 0.187,-0.535 0.384,-1.081 0.583,-1.622 v 0 c 0.078,-0.225 0.195,-0.449 0.342,-0.667 v 0 c 0.136,-0.203 0.293,-0.405 0.463,-0.602 v 0 c 0.167,-0.194 0.346,-0.381 0.53,-0.56 v 0 c 0.179,-0.172 0.352,-0.332 0.515,-0.475 v 0 c 0.312,-0.273 0.67,-0.486 1.064,-0.629 v 0 c 0.372,-0.136 0.742,-0.235 1.101,-0.289 v 0 c 0.264,-0.043 0.526,-0.062 0.771,-0.053 v 0 c 0.291,0.008 0.571,0.053 0.837,0.127 v 0 c 0.489,0.142 0.925,0.375 1.296,0.693 v 0 c 0.364,0.314 0.668,0.703 0.903,1.159 v 0 c 0.231,0.444 0.391,0.944 0.475,1.479 v 0 c 0.109,0.695 0.144,1.434 0.103,2.201 v 0 c -0.039,0.738 -0.579,4.481 -0.632,4.687 v 0 c -0.029,0.115 -0.049,0.228 -0.057,0.327 v 0 c -0.033,0.478 -0.068,0.901 -0.106,1.259 v 0 c -0.021,0.184 -0.111,1.304 -0.189,2.291 v 0 c -0.082,1.022 -0.133,1.651 -0.146,1.762 v 0 c -0.025,0.238 -0.045,0.431 -0.059,0.581 v 0 c -0.011,0.158 -0.004,0.229 -0.001,0.253 v 0 c 0.013,0.09 0.031,0.178 0.052,0.259 v 0 c 0.024,0.107 0.052,0.246 0.08,0.426 v 0 l 0.019,0.12 c 0.012,0.08 0.021,0.18 0.024,0.302 v 0 c 0.006,0.137 -0.01,0.317 -0.047,0.543 v 0 c -0.035,0.222 -0.124,0.443 -0.268,0.653 v 0 c -0.175,0.257 -0.453,0.417 -0.825,0.476 v 0 c -0.096,0.015 -0.189,0.023 -0.28,0.023 v 0 c -0.183,0 -0.357,-0.031 -0.518,-0.093"
         id="path1698"
         inkscape:connector-curvature="0" />
    </clipPath>
    <linearGradient
       x1="0"
       y1="0"
       x2="1"
       y2="0"
       gradientUnits="userSpaceOnUse"
       gradientTransform="matrix(9.3818359,0,0,-9.3818359,165.24121,229.49609)"
       spreadMethod="pad"
       id="linearGradient1712">
      <stop
         style="stop-opacity:1;stop-color:#35968c"
         offset="0"
         id="stop1706" />
      <stop
         style="stop-opacity:1;stop-color:#40b7aa"
         offset="0.45361"
         id="stop1708" />
      <stop
         style="stop-opacity:1;stop-color:#40b7aa"
         offset="1"
         id="stop1710" />
    </linearGradient>
    <clipPath
       clipPathUnits="userSpaceOnUse"
       id="clipPath1678">
      <path
         d="m 151.463,242.793 c -0.441,-1.493 0.232,-1.914 0.519,-2.027 v 0 c 0.833,-0.268 1.166,-0.393 1.953,-0.688 v 0 c 0.262,-0.098 1.364,-0.67 1.904,1.158 v 0 c 0.542,1.83 -0.126,1.732 -0.097,1.784 v 0 l -2.908,0.98 c 0,0 -0.071,0.022 -0.184,0.022 v 0 c -0.294,0 -0.868,-0.15 -1.187,-1.229"
         id="path1676"
         inkscape:connector-curvature="0" />
    </clipPath>
    <linearGradient
       x1="0"
       y1="0"
       x2="1"
       y2="0"
       gradientUnits="userSpaceOnUse"
       gradientTransform="matrix(-3.2405488,-16.634188,-9.6181431,-0.2560822,154.70312,247.37598)"
       spreadMethod="pad"
       id="linearGradient1690">
      <stop
         style="stop-opacity:1;stop-color:#d12f40"
         offset="0"
         id="stop1684" />
      <stop
         style="stop-opacity:1;stop-color:#f0374b"
         offset="0.37629"
         id="stop1686" />
      <stop
         style="stop-opacity:1;stop-color:#f0374b"
         offset="1"
         id="stop1688" />
    </linearGradient>
    <clipPath
       clipPathUnits="userSpaceOnUse"
       id="clipPath1656">
      <path
         d="m 149.84,237.907 c -0.444,-1.493 0.064,-1.859 0.352,-1.971 v 0 c 0.833,-0.27 1.331,-0.448 2.119,-0.743 v 0 c 0.262,-0.1 1.363,-0.67 1.904,1.158 v 0 c 0.541,1.828 -0.127,1.73 -0.098,1.784 v 0 l -2.91,0.98 c 0,0 -0.071,0.022 -0.182,0.022 v 0 c -0.293,0 -0.866,-0.15 -1.185,-1.23"
         id="path1654"
         inkscape:connector-curvature="0" />
    </clipPath>
    <linearGradient
       x1="0"
       y1="0"
       x2="1"
       y2="0"
       gradientUnits="userSpaceOnUse"
       gradientTransform="matrix(-3.2405488,-16.634188,-9.6181431,-0.2560822,153.07617,242.49023)"
       spreadMethod="pad"
       id="linearGradient1668">
      <stop
         style="stop-opacity:1;stop-color:#d12f40"
         offset="0"
         id="stop1662" />
      <stop
         style="stop-opacity:1;stop-color:#f0374b"
         offset="0.37629"
         id="stop1664" />
      <stop
         style="stop-opacity:1;stop-color:#f0374b"
         offset="1"
         id="stop1666" />
    </linearGradient>
    <clipPath
       clipPathUnits="userSpaceOnUse"
       id="clipPath1634">
      <path
         d="m 155.207,248.418 c -0.299,-0.006 -0.566,-0.062 -0.793,-0.17 v 0 c -0.302,-0.143 -0.491,-0.417 -0.527,-0.77 v 0 c -0.016,-0.171 -0.006,-0.352 0.031,-0.534 v 0 c 0.031,-0.156 0.072,-0.312 0.123,-0.468 v 0 c 0.05,-0.151 0.103,-0.295 0.158,-0.43 v 0 c 0.054,-0.129 0.1,-0.234 0.135,-0.315 v 0 l 0.031,-0.053 c 0.118,-0.19 0.289,-0.359 0.528,-0.513 v 0 c 0.194,-0.126 0.394,-0.238 0.594,-0.331 v 0 c 0.132,-0.061 0.253,-0.114 0.367,-0.16 v 0 c 0,0 0.271,-0.056 0.458,-0.096 v 0 c -0.532,0.116 0.033,-0.001 0.177,-0.024 v 0 c 0.177,-0.028 0.355,-0.055 0.53,-0.085 v 0 c 0.482,-0.085 0.973,-0.165 1.44,-0.305 v 0 c 0.395,-0.119 0.75,-0.279 1.049,-0.489 v 0 c 0.287,-0.122 0.584,-0.276 0.892,-0.458 v 0 c 0.45,-0.271 0.895,-0.595 1.325,-0.967 v 0 c 0.433,-0.376 0.849,-0.795 1.237,-1.245 v 0 c 0.382,-0.446 0.714,-0.92 0.986,-1.412 v 0 c 0.269,-0.486 0.474,-0.99 0.609,-1.498 v 0 c 0.131,-0.491 0.172,-0.981 0.121,-1.46 v 0 c -0.047,-0.463 -0.184,-0.883 -0.402,-1.249 v 0 c -0.229,-0.383 -0.52,-0.73 -0.87,-1.032 v 0 c -0.355,-0.307 -0.763,-0.577 -1.213,-0.799 v 0 c -0.467,-0.23 -0.954,-0.426 -1.451,-0.587 v 0 c -0.5,-0.161 -1.01,-0.287 -1.511,-0.376 v 0 c -0.506,-0.091 -0.991,-0.152 -1.44,-0.187 v 0 c -0.449,-0.035 -0.881,-0.049 -1.283,-0.047 v 0 c -0.413,0.005 -2.819,0.071 -3.084,0.107 v 0 c -0.516,0.072 -0.976,0.264 -1.462,0.44 v 0 c -0.128,0.046 -0.247,0.109 -0.353,0.183 v 0 c -0.306,0.063 -0.602,0.117 -0.886,0.157 v 0 c -0.469,0.068 -0.948,0.007 -1.424,-0.186 v 0 c -0.301,-0.123 -0.533,-0.298 -0.692,-0.517 v 0 c -0.157,-0.219 -0.252,-0.459 -0.279,-0.714 v 0 c -0.02,-0.204 0.014,-0.413 0.1,-0.615 v 0 c 0.082,-0.191 0.216,-0.375 0.409,-0.558 v 0 c 0.175,-0.167 0.396,-0.322 0.675,-0.475 v 0 c 0.267,-0.145 0.586,-0.28 0.976,-0.414 v 0 c 0.338,-0.114 0.706,-0.222 1.089,-0.32 v 0 c 0.38,-0.096 0.772,-0.184 1.163,-0.261 v 0 c 0.393,-0.077 0.787,-0.141 1.174,-0.188 v 0 c 0.391,-0.046 0.764,-0.071 1.11,-0.074 v 0 h 0.046 c 0.711,-0.046 1.455,-0.073 2.214,-0.081 v 0 c 0.793,-0.01 1.591,0.032 2.372,0.122 v 0 c 0.785,0.091 1.563,0.251 2.312,0.477 v 0 c 0.763,0.228 1.485,0.568 2.152,1.009 v 0 c 0.665,0.442 1.277,1.01 1.815,1.685 v 0 c 0.539,0.676 0.994,1.519 1.359,2.518 v 0 c 0.067,0.206 0.132,0.458 0.189,0.749 v 0 c 0.056,0.29 0.099,0.572 0.127,0.837 v 0 c 0.054,0.509 0.051,1.018 -0.008,1.513 v 0 c -0.055,0.486 -0.148,0.962 -0.276,1.414 v 0 c -0.129,0.453 -0.285,0.89 -0.471,1.299 v 0 c -0.181,0.402 -0.382,0.785 -0.596,1.138 v 0 c -0.563,0.919 -1.183,1.72 -1.841,2.382 v 0 c -0.655,0.657 -1.379,1.242 -2.147,1.739 v 0 c -0.765,0.494 -1.607,0.935 -2.503,1.31 v 0 c -0.883,0.37 -1.858,0.733 -2.895,1.086 v 0 c -0.236,0.079 -0.504,0.151 -0.797,0.211 v 0 c -0.282,0.059 -0.556,0.087 -0.812,0.087 v 0 c -0.019,0 -0.038,0 -0.057,0 m 1.166,-3.854 c -0.019,0.004 -0.039,0.009 -0.061,0.014 v 0 c 0.019,-0.005 0.039,-0.009 0.061,-0.014"
         id="path1632"
         inkscape:connector-curvature="0" />
    </clipPath>
    <linearGradient
       x1="0"
       y1="0"
       x2="1"
       y2="0"
       gradientUnits="userSpaceOnUse"
       gradientTransform="matrix(18.185129,-2.796082,-2.796082,-18.185129,149.50684,239.50781)"
       spreadMethod="pad"
       id="linearGradient1646">
      <stop
         style="stop-opacity:1;stop-color:#d12f40"
         offset="0"
         id="stop1640" />
      <stop
         style="stop-opacity:1;stop-color:#f0374b"
         offset="0.37629"
         id="stop1642" />
      <stop
         style="stop-opacity:1;stop-color:#f0374b"
         offset="1"
         id="stop1644" />
    </linearGradient>
    <clipPath
       clipPathUnits="userSpaceOnUse"
       id="clipPath1612">
      <path
         d="m 180.357,239.773 c -0.166,-0.162 -0.265,-0.403 -0.301,-0.746 v 0 l -0.106,-1.175 c -0.018,-0.17 -0.044,-0.397 -0.077,-0.679 v 0 c -0.036,-0.282 -0.082,-0.583 -0.138,-0.898 v 0 c -0.054,-0.31 -0.126,-0.623 -0.209,-0.933 v 0 c -0.08,-0.297 -0.174,-0.561 -0.278,-0.784 v 0 l -0.185,-0.391 c -0.09,-0.181 -0.213,-0.394 -0.365,-0.631 v 0 c -0.144,-0.227 -0.314,-0.444 -0.501,-0.647 v 0 c -0.181,-0.193 -0.379,-0.36 -0.586,-0.494 v 0 c -0.167,-0.107 -0.327,-0.16 -0.49,-0.16 v 0 c -0.041,0 -0.069,0.01 -0.099,0.035 v 0 c -0.07,0.057 -0.13,0.127 -0.18,0.215 v 0 c -0.063,0.104 -0.113,0.218 -0.152,0.338 v 0 c -0.039,0.125 -0.064,0.236 -0.074,0.33 v 0 c -0.005,0.049 -0.006,0.171 0.032,0.437 v 0 c 0.036,0.236 0.092,0.547 0.164,0.925 v 0 c 0.077,0.383 0.168,0.85 0.276,1.397 v 0 c 0.109,0.546 0.226,1.197 0.351,1.936 v 0 c 0.031,0.156 0.037,0.321 0.02,0.494 v 0 c -0.026,0.238 -0.1,0.45 -0.222,0.629 v 0 c -0.152,0.223 -0.385,0.357 -0.662,0.378 v 0 c -0.085,0.016 -0.171,0.033 -0.259,0.048 v 0 l -0.017,0.003 c -0.081,0.011 -0.165,0.025 -0.252,0.04 v 0 c -0.227,0.037 -0.389,0.05 -0.58,-0.038 v 0 c -0.084,-0.037 -0.163,-0.09 -0.246,-0.165 v 0 c -0.082,-0.075 -0.157,-0.17 -0.216,-0.28 v 0 c -0.064,-0.115 -0.105,-0.247 -0.126,-0.389 v 0 l -0.075,-0.475 c -0.029,-0.18 -0.063,-0.397 -0.105,-0.65 v 0 c -0.041,-0.255 -0.09,-0.552 -0.142,-0.892 v 0 c -0.053,-0.338 -0.114,-0.729 -0.18,-1.177 v 0 c -0.02,-0.134 -0.047,-0.287 -0.082,-0.458 v 0 c -0.04,-0.19 -0.074,-0.397 -0.102,-0.613 v 0 c -0.027,-0.213 -0.047,-0.437 -0.06,-0.663 v 0 c -0.013,-0.242 -0.008,-0.489 0.017,-0.73 v 0 c 0.046,-0.439 0.168,-0.875 0.364,-1.296 v 0 c 0.204,-0.436 0.511,-0.83 0.918,-1.175 v 0 c 0.099,-0.082 0.218,-0.165 0.367,-0.251 v 0 c 0.141,-0.083 0.289,-0.159 0.441,-0.224 v 0 c 0.151,-0.066 0.299,-0.121 0.44,-0.163 v 0 c 0.17,-0.052 0.31,-0.079 0.434,-0.079 v 0 c 0.462,0 0.888,0.112 1.265,0.332 v 0 c 0.346,0.201 0.662,0.453 0.941,0.75 v 0 c 0.262,0.281 0.503,0.587 0.712,0.909 v 0 l 0.103,-0.637 c 0.019,-0.104 0.044,-0.207 0.078,-0.305 v 0 c 0.046,-0.145 0.127,-0.276 0.236,-0.389 v 0 c 0.11,-0.113 0.248,-0.202 0.419,-0.264 v 0 c 0.154,-0.056 0.339,-0.083 0.566,-0.083 v 0 c 0.387,0 0.675,0.109 0.855,0.33 v 0 c 0.141,0.175 0.236,0.409 0.291,0.711 v 0 c 0.018,0.093 0.025,0.21 0.019,0.366 v 0 c -0.004,0.132 -0.014,0.281 -0.03,0.441 v 0 c -0.038,0.344 -0.082,0.675 -0.137,0.988 v 0 c -0.051,0.289 -0.09,0.585 -0.122,0.877 v 0 c -0.017,0.16 -0.023,0.344 -0.019,0.548 v 0 c 0.002,0.212 0.013,0.438 0.03,0.673 v 0 c 0.019,0.24 0.043,0.481 0.071,0.718 v 0 c 0.031,0.243 0.062,0.474 0.091,0.686 v 0 c 0.058,0.378 0.106,0.758 0.147,1.132 v 0 c 0.046,0.405 0.053,0.743 0.022,1.032 v 0 c -0.027,0.262 -0.075,0.477 -0.148,0.656 v 0 c -0.081,0.202 -0.193,0.368 -0.334,0.498 v 0 c -0.145,0.129 -0.314,0.221 -0.504,0.271 v 0 c -0.16,0.043 -0.334,0.065 -0.519,0.065 v 0 c -0.356,0 -0.612,-0.082 -0.79,-0.254"
         id="path1610"
         inkscape:connector-curvature="0" />
    </clipPath>
    <linearGradient
       x1="0"
       y1="0"
       x2="1"
       y2="0"
       gradientUnits="userSpaceOnUse"
       gradientTransform="matrix(8.7075834,0.3040755,0.3040755,-8.7075834,174.07617,234.69727)"
       spreadMethod="pad"
       id="linearGradient1624">
      <stop
         style="stop-opacity:1;stop-color:#318a82"
         offset="0"
         id="stop1618" />
      <stop
         style="stop-opacity:1;stop-color:#40b7aa"
         offset="0.27835"
         id="stop1620" />
      <stop
         style="stop-opacity:1;stop-color:#40b7aa"
         offset="1"
         id="stop1622" />
    </linearGradient>
    <clipPath
       clipPathUnits="userSpaceOnUse"
       id="clipPath1590">
      <path
         d="m 187.486,239.86 c -0.529,-0.171 -1.047,-0.472 -1.538,-0.891 v 0 c -0.378,-0.318 -0.738,-0.671 -1.074,-1.047 v 0 c -0.338,-0.38 -0.648,-0.79 -0.917,-1.219 v 0 c -0.275,-0.433 -0.509,-0.898 -0.695,-1.381 v 0 c -0.192,-0.49 -0.322,-1.009 -0.388,-1.543 v 0 c -0.018,-0.168 -0.037,-0.358 -0.058,-0.572 v 0 c -0.023,-0.24 -0.022,-0.471 0.004,-0.685 v 0 c 0.041,-0.359 0.174,-0.707 0.395,-1.037 v 0 c 0.203,-0.301 0.443,-0.574 0.714,-0.81 v 0 c 0.268,-0.232 0.548,-0.425 0.838,-0.576 v 0 c 0.319,-0.166 0.602,-0.255 0.866,-0.27 v 0 c 0.385,-0.021 0.77,0.031 1.143,0.155 v 0 c 0.351,0.117 0.694,0.276 1.021,0.471 v 0 c 0.29,0.174 0.574,0.372 0.844,0.593 v 0 c -0.053,-0.346 -0.112,-0.685 -0.174,-1.01 v 0 c -0.023,-0.131 -0.09,-0.593 -0.204,-1.397 v 0 c -0.185,-1.284 -0.527,-3.672 -0.615,-3.947 v 0 c -0.127,-0.346 -0.294,-0.688 -0.501,-1.01 v 0 c -0.195,-0.307 -0.447,-0.606 -0.751,-0.893 v 0 c -0.055,-0.031 -0.15,-0.072 -0.3,-0.107 v 0 c -0.178,-0.044 -0.375,-0.08 -0.589,-0.111 v 0 c -0.367,-0.062 -1.887,-0.323 -2.112,-0.388 v 0 c -0.277,-0.079 -0.492,-0.187 -0.656,-0.329 v 0 c -0.178,-0.154 -0.307,-0.347 -0.383,-0.579 v 0 c -0.058,-0.18 -0.103,-0.404 -0.138,-0.681 v 0 c -0.017,-0.124 -0.017,-0.249 -0.003,-0.37 v 0 c 0.022,-0.185 0.078,-0.352 0.168,-0.498 v 0 c 0.08,-0.13 0.173,-0.24 0.279,-0.33 v 0 c 0.107,-0.093 0.226,-0.164 0.349,-0.214 v 0 c 0.125,-0.048 0.239,-0.075 0.346,-0.082 v 0 c 0.825,-0.045 2.798,0.247 3.441,0.47 v 0 c 0.64,0.222 1.21,0.546 1.693,0.961 v 0 c 0.476,0.41 0.886,0.902 1.216,1.462 v 0 c 0.318,0.542 0.588,1.132 0.8,1.755 v 0 c 0.144,0.414 0.437,2.33 0.778,4.606 v 0 c 0.107,0.716 0.202,1.337 0.237,1.523 v 0 c 0.118,0.64 0.209,1.27 0.267,1.872 v 0 c 0.033,0.336 0.068,0.715 0.102,1.159 v 0 c 0.031,0.426 0.062,0.86 0.093,1.302 v 0 c 0.031,0.442 0.059,0.88 0.086,1.314 v 0 c 0.03,0.431 0.051,0.83 0.065,1.187 v 0 c 0.017,0.355 0.026,0.653 0.031,0.893 v 0 c 0.009,0.34 0.003,0.448 -0.005,0.515 v 0 c -0.013,0.09 -0.036,0.184 -0.076,0.29 v 0 c -0.04,0.109 -0.087,0.201 -0.146,0.288 v 0 c -0.184,0.27 -0.387,0.494 -0.601,0.671 v 0 c -0.215,0.176 -0.445,0.316 -0.687,0.417 v 0 c -0.233,0.095 -0.477,0.164 -0.728,0.205 v 0 c -0.234,0.037 -0.478,0.062 -0.723,0.076 v 0 c -0.103,0.006 -0.205,0.009 -0.305,0.009 v 0 c -0.499,0 -0.972,-0.073 -1.409,-0.217 m -1.938,-6.984 c -0.006,0.064 -0.007,0.126 -0.001,0.191 v 0 c 0.006,0.086 0.016,0.172 0.025,0.253 v 0 c 0.038,0.291 0.102,0.546 0.188,0.758 v 0 c 0.097,0.231 0.207,0.466 0.334,0.705 v 0 c 0.072,0.144 0.183,0.319 0.334,0.521 v 0 c 0.16,0.212 0.338,0.434 0.534,0.658 v 0 c 0.192,0.22 0.405,0.444 0.633,0.66 v 0 c 0.22,0.211 0.444,0.401 0.668,0.566 v 0 c 0.212,0.157 0.419,0.285 0.614,0.379 v 0 c 0.071,0.034 0.138,0.06 0.203,0.076 v 0 c 0.037,-0.086 0.074,-0.164 0.113,-0.232 v 0 c 0.034,-0.055 0.055,-0.11 0.063,-0.17 v 0 c -0.004,-0.141 -0.033,-0.307 -0.085,-0.498 v 0 c -0.064,-0.224 -0.143,-0.453 -0.233,-0.683 v 0 c -0.088,-0.221 -0.182,-0.439 -0.28,-0.642 v 0 c -0.095,-0.201 -0.174,-0.358 -0.239,-0.48 v 0 c -0.12,-0.244 -0.302,-0.507 -0.537,-0.782 v 0 c -0.246,-0.285 -0.511,-0.549 -0.795,-0.791 v 0 c -0.276,-0.231 -0.559,-0.422 -0.845,-0.567 v 0 c -0.241,-0.125 -0.449,-0.18 -0.617,-0.172 v 0 h -0.002 c -0.037,0.068 -0.063,0.151 -0.075,0.25"
         id="path1588"
         inkscape:connector-curvature="0" />
    </clipPath>
    <linearGradient
       x1="0"
       y1="0"
       x2="1"
       y2="0"
       gradientUnits="userSpaceOnUse"
       gradientTransform="matrix(11.375163,0.9589142,0.9589142,-11.375163,181.45801,229.18359)"
       spreadMethod="pad"
       id="linearGradient1602">
      <stop
         style="stop-opacity:1;stop-color:#f09b1a"
         offset="0"
         id="stop1596" />
      <stop
         style="stop-opacity:1;stop-color:#f4d413"
         offset="0.37629"
         id="stop1598" />
      <stop
         style="stop-opacity:1;stop-color:#f4d413"
         offset="1"
         id="stop1600" />
    </linearGradient>
    <clipPath
       clipPathUnits="userSpaceOnUse"
       id="clipPath1568">
      <path
         d="m 199.364,238.882 c -0.173,-0.152 -0.289,-0.384 -0.359,-0.714 v 0 l -0.229,-1.178 c -0.037,-0.168 -0.087,-0.395 -0.151,-0.68 v 0 c -0.064,-0.276 -0.141,-0.578 -0.231,-0.897 v 0 c -0.086,-0.312 -0.19,-0.628 -0.307,-0.938 v 0 c -0.112,-0.299 -0.235,-0.565 -0.364,-0.79 v 0 l -0.225,-0.391 c -0.114,-0.186 -0.259,-0.399 -0.436,-0.637 v 0 c -0.171,-0.231 -0.364,-0.452 -0.578,-0.656 v 0 c -0.205,-0.196 -0.423,-0.367 -0.65,-0.504 v 0 c -0.186,-0.112 -0.358,-0.167 -0.525,-0.167 v 0 c -0.041,0 -0.056,0.01 -0.072,0.023 v 0 c -0.058,0.051 -0.103,0.113 -0.143,0.195 v 0 c -0.048,0.101 -0.087,0.21 -0.111,0.328 v 0 c -0.025,0.122 -0.038,0.232 -0.038,0.326 v 0 c 0,0.048 0.009,0.172 0.079,0.441 v 0 c 0.062,0.24 0.15,0.552 0.262,0.922 v 0 c 0.115,0.386 0.255,0.852 0.421,1.4 v 0 c 0.168,0.554 0.354,1.206 0.552,1.937 v 0 c 0.047,0.152 0.071,0.316 0.071,0.487 v 0 c 0,0.243 -0.053,0.461 -0.162,0.648 v 0 c -0.139,0.242 -0.371,0.385 -0.66,0.406 v 0 c -0.081,0.017 -0.164,0.033 -0.249,0.048 v 0 l -0.021,0.004 c -0.08,0.012 -0.162,0.025 -0.248,0.038 v 0 c -0.225,0.038 -0.37,0.054 -0.576,-0.034 v 0 c -0.081,-0.034 -0.16,-0.084 -0.244,-0.153 v 0 c -0.085,-0.069 -0.163,-0.16 -0.234,-0.267 v 0 c -0.069,-0.108 -0.124,-0.235 -0.159,-0.373 v 0 l -0.123,-0.475 c -0.048,-0.18 -0.105,-0.397 -0.174,-0.65 v 0 c -0.066,-0.255 -0.146,-0.552 -0.235,-0.891 v 0 c -0.089,-0.337 -0.19,-0.73 -0.304,-1.177 v 0 c -0.031,-0.132 -0.076,-0.287 -0.13,-0.459 v 0 c -0.061,-0.194 -0.116,-0.4 -0.164,-0.609 v 0 c -0.049,-0.212 -0.092,-0.433 -0.132,-0.665 v 0 c -0.038,-0.241 -0.057,-0.486 -0.057,-0.729 v 0 c 0,-0.44 0.078,-0.879 0.23,-1.305 v 0 c 0.16,-0.444 0.432,-0.846 0.81,-1.199 v 0 c 0.093,-0.084 0.207,-0.169 0.349,-0.257 v 0 c 0.134,-0.084 0.278,-0.16 0.425,-0.227 v 0 c 0.146,-0.067 0.288,-0.123 0.429,-0.168 v 0 c 0.166,-0.051 0.306,-0.077 0.43,-0.077 v 0 c 0.459,0 0.891,0.11 1.285,0.325 v 0 c 0.36,0.199 0.697,0.447 1.002,0.739 v 0 c 0.291,0.277 0.559,0.58 0.8,0.9 v 0 l 0.032,-0.566 c 0.007,-0.105 0.024,-0.208 0.045,-0.309 v 0 c 0.035,-0.151 0.105,-0.29 0.209,-0.412 v 0 c 0.104,-0.12 0.244,-0.214 0.414,-0.28 v 0 c 0.15,-0.059 0.337,-0.085 0.566,-0.085 v 0 c 0.377,0 0.664,0.104 0.856,0.311 v 0 c 0.152,0.166 0.267,0.393 0.349,0.687 v 0 c 0.03,0.092 0.047,0.207 0.059,0.362 v 0 c 0.01,0.132 0.015,0.281 0.015,0.441 v 0 c 0,0.347 -0.01,0.68 -0.032,0.99 v 0 c -0.02,0.287 -0.03,0.583 -0.03,0.877 v 0 c 0,0.158 0.013,0.342 0.036,0.546 v 0 c 0.026,0.211 0.061,0.439 0.102,0.677 v 0 c 0.044,0.24 0.092,0.48 0.148,0.715 v 0 c 0.056,0.244 0.111,0.474 0.161,0.688 v 0 c 0.098,0.382 0.186,0.762 0.268,1.131 v 0 c 0.086,0.406 0.129,0.743 0.129,1.03 v 0 c 0,0.263 -0.027,0.48 -0.082,0.664 v 0 c -0.063,0.211 -0.162,0.386 -0.297,0.522 v 0 c -0.137,0.136 -0.306,0.233 -0.498,0.287 v 0 c -0.157,0.041 -0.331,0.063 -0.518,0.063 v 0 c -0.345,0 -0.603,-0.078 -0.786,-0.239"
         id="path1566"
         inkscape:connector-curvature="0" />
    </clipPath>
    <linearGradient
       x1="0"
       y1="0"
       x2="1"
       y2="0"
       gradientUnits="userSpaceOnUse"
       gradientTransform="matrix(9.0869141,0,0,-9.0869141,192.45801,233.96875)"
       spreadMethod="pad"
       id="linearGradient1580">
      <stop
         style="stop-opacity:1;stop-color:#b22835"
         offset="0"
         id="stop1574" />
      <stop
         style="stop-opacity:1;stop-color:#f0374b"
         offset="0.2165"
         id="stop1576" />
      <stop
         style="stop-opacity:1;stop-color:#f0374b"
         offset="1"
         id="stop1578" />
    </linearGradient>
    <clipPath
       clipPathUnits="userSpaceOnUse"
       id="clipPath1546">
      <path
         d="m 205.564,238.608 c -0.39,-0.148 -0.759,-0.341 -1.101,-0.579 v 0 c -0.332,-0.23 -0.641,-0.491 -0.916,-0.773 v 0 c -0.269,-0.275 -0.512,-0.553 -0.722,-0.824 v 0 c -0.212,-0.275 -0.391,-0.53 -0.534,-0.764 v 0 c -0.093,-0.153 -0.171,-0.286 -0.232,-0.397 v 0 c -0.235,-0.097 -0.43,-0.248 -0.586,-0.449 v 0 c -0.196,-0.258 -0.295,-0.566 -0.295,-0.918 v 0 c 0,-0.315 0.126,-0.506 0.231,-0.612 v 0 c 0.012,-0.012 0.023,-0.024 0.035,-0.034 v 0 c -0.041,-0.252 -0.062,-0.487 -0.062,-0.705 v 0 c 0,-0.4 0.06,-0.753 0.178,-1.046 v 0 c 0.118,-0.293 0.277,-0.546 0.471,-0.752 v 0 c 0.193,-0.203 0.414,-0.368 0.662,-0.491 v 0 c 0.23,-0.114 0.465,-0.204 0.702,-0.265 v 0 c 0.228,-0.058 0.452,-0.099 0.668,-0.118 v 0 c 0.21,-0.018 0.386,-0.028 0.543,-0.028 v 0 c 0.777,0 1.52,0.111 2.209,0.332 v 0 c 0.697,0.222 1.381,0.597 2.044,1.12 v 0 c 0.176,0.145 0.324,0.319 0.44,0.519 v 0 c 0.113,0.198 0.19,0.398 0.229,0.6 v 0 c 0.009,0.047 0.015,0.1 0.021,0.167 v 0 c 0.002,0.054 0.004,0.108 0.004,0.165 v 0 c 0,0.16 -0.039,0.312 -0.119,0.454 v 0 c -0.086,0.155 -0.273,0.338 -0.67,0.338 v 0 c -0.221,0 -0.455,-0.064 -0.713,-0.195 v 0 c -0.208,-0.106 -0.426,-0.236 -0.656,-0.388 v 0 c -0.155,-0.105 -0.33,-0.216 -0.522,-0.326 v 0 c -0.186,-0.105 -0.387,-0.205 -0.598,-0.295 v 0 c -0.205,-0.089 -0.425,-0.162 -0.654,-0.217 v 0 c -0.22,-0.054 -0.455,-0.08 -0.696,-0.08 v 0 c -0.384,0 -0.679,0.068 -0.874,0.203 v 0 c -0.152,0.107 -0.218,0.237 -0.218,0.435 v 0 c 0,0.12 0.014,0.245 0.046,0.374 v 0 c 0.008,0.035 0.017,0.066 0.023,0.094 v 0 c 0.178,0.021 0.378,0.044 0.602,0.074 v 0 c 0.347,0.047 0.707,0.114 1.078,0.199 v 0 c 0.371,0.087 0.748,0.195 1.119,0.324 v 0 c 0.387,0.135 0.75,0.305 1.082,0.507 v 0 c 0.34,0.209 0.641,0.456 0.893,0.734 v 0 c 0.272,0.3 0.459,0.654 0.56,1.053 v 0 c 0.063,0.22 0.096,0.454 0.096,0.692 v 0 c 0,0.293 -0.052,0.572 -0.158,0.828 v 0 c -0.107,0.267 -0.271,0.5 -0.488,0.695 v 0 c -0.212,0.188 -0.477,0.335 -0.79,0.436 v 0 c -0.297,0.097 -0.646,0.147 -1.033,0.147 v 0 c -0.455,0 -0.893,-0.078 -1.299,-0.234 m -0.147,-2.646 c 0.194,0.178 0.403,0.329 0.622,0.446 v 0 c 0.188,0.102 0.371,0.152 0.557,0.152 v 0 c 0.068,0 0.119,-0.011 0.16,-0.034 v 0 -0.002 -0.036 l -0.001,-0.006 c -0.024,-0.092 -0.089,-0.183 -0.191,-0.277 v 0 c -0.126,-0.118 -0.302,-0.23 -0.523,-0.332 v 0 c -0.233,-0.106 -0.515,-0.198 -0.84,-0.271 v 0 c -0.052,-0.013 -0.105,-0.024 -0.16,-0.033 v 0 c 0.114,0.137 0.24,0.268 0.376,0.393"
         id="path1544"
         inkscape:connector-curvature="0" />
    </clipPath>
    <linearGradient
       x1="0"
       y1="0"
       x2="1"
       y2="0"
       gradientUnits="userSpaceOnUse"
       gradientTransform="matrix(8.5489759,1.6617527,1.6617527,-8.5489759,201.14941,233.41895)"
       spreadMethod="pad"
       id="linearGradient1558">
      <stop
         style="stop-opacity:1;stop-color:#759615"
         offset="0"
         id="stop1552" />
      <stop
         style="stop-opacity:1;stop-color:#a0cd1f"
         offset="0.29381"
         id="stop1554" />
      <stop
         style="stop-opacity:1;stop-color:#a0cd1f"
         offset="1"
         id="stop1556" />
    </linearGradient>
    <clipPath
       clipPathUnits="userSpaceOnUse"
       id="clipPath1524">
      <path
         d="m 213.484,249.187 c -0.152,-0.16 -0.26,-0.336 -0.315,-0.518 v 0 c -0.063,-0.19 -0.1,-0.338 -0.115,-0.457 v 0 c -0.011,-0.105 -0.017,-0.187 -0.017,-0.258 v 0 -0.099 c 0,-0.153 0.004,-0.273 0.01,-0.364 v 0 c 0.005,-0.068 0.01,-0.139 0.01,-0.21 v 0 c 0,-0.01 -0.003,-0.061 -0.032,-0.188 v 0 c -0.031,-0.12 -0.07,-0.273 -0.122,-0.463 v 0 c -0.024,-0.09 -0.145,-0.594 -0.339,-1.407 v 0 c -0.191,-0.796 -0.407,-1.697 -0.447,-1.844 v 0 c -0.078,-0.289 -0.16,-0.63 -0.244,-1.002 v 0 c -0.013,-0.048 -0.027,-0.099 -0.047,-0.148 v 0 c 0,0 -0.898,-2.592 -0.867,-2.599 v 0 c -0.297,-1.312 -1.258,-5.875 -1.369,-6.415 v 0 c -0.131,-0.623 -0.199,-1.234 -0.199,-1.819 v 0 c 0,-0.453 0.068,-0.887 0.201,-1.287 v 0 c 0.137,-0.409 0.339,-0.772 0.603,-1.082 v 0 c 0.268,-0.315 0.602,-0.565 0.992,-0.747 v 0 c 0.39,-0.182 0.839,-0.274 1.331,-0.274 v 0 c 0.303,0 0.623,0.033 0.947,0.096 v 0 c 0.35,0.071 0.676,0.201 0.973,0.388 v 0 c 0.151,0.097 0.312,0.205 0.48,0.323 v 0 c 0.174,0.121 0.345,0.253 0.508,0.391 v 0 c 0.165,0.14 0.319,0.288 0.459,0.437 v 0 c 0.152,0.165 0.279,0.339 0.375,0.512 v 0 c 0.23,0.415 0.459,0.837 0.68,1.25 v 0 c 0.235,0.44 0.414,0.887 0.531,1.334 v 0 c 0.013,0.064 0.021,0.134 0.021,0.225 v 0 c 0,0.161 -0.044,0.308 -0.133,0.44 v 0 c -0.07,0.104 -0.16,0.187 -0.265,0.252 v 0 c -0.092,0.059 -0.19,0.101 -0.297,0.125 v 0 c -0.09,0.023 -0.17,0.033 -0.244,0.033 v 0 c -0.27,0 -0.507,-0.132 -0.668,-0.367 v 0 c -0.231,-0.315 -0.48,-0.646 -0.744,-0.981 v 0 c -0.259,-0.332 -0.538,-0.642 -0.829,-0.918 v 0 c -0.279,-0.268 -0.573,-0.489 -0.876,-0.664 v 0 c -0.272,-0.153 -0.536,-0.227 -0.81,-0.227 v 0 c -0.13,0 -0.238,0.019 -0.308,0.054 v 0 c -0.068,0.035 -0.118,0.078 -0.154,0.134 v 0 c -0.047,0.07 -0.082,0.158 -0.103,0.263 v 0 c -0.028,0.13 -0.041,0.273 -0.041,0.422 v 0 c 0,0.119 0.015,0.296 0.042,0.524 v 0 c 0.028,0.238 0.072,0.509 0.134,0.808 v 0 c 0.06,0.3 0.136,0.634 0.226,0.992 v 0 c 0.033,0.126 0.154,0.658 0.32,1.395 v 0 c 0.237,1.036 0.846,3.917 1.008,4.572 v 0 c 0.09,0.013 0.846,2.793 0.75,2.777 v 0 l 1.153,4.647 c 0.04,0.166 0.062,0.351 0.062,0.552 v 0 c 0,0.189 -0.026,0.38 -0.074,0.567 v 0 c -0.051,0.198 -0.132,0.381 -0.239,0.54 v 0 c -0.115,0.176 -0.268,0.318 -0.453,0.425 v 0 c -0.192,0.112 -0.42,0.168 -0.676,0.168 v 0 c -0.412,0 -0.658,-0.167 -0.789,-0.308"
         id="path1522"
         inkscape:connector-curvature="0" />
    </clipPath>
    <linearGradient
       x1="0"
       y1="0"
       x2="1"
       y2="0"
       gradientUnits="userSpaceOnUse"
       gradientTransform="matrix(9.5245218,2.0244997,2.0244997,-9.5245218,207.98242,237.56445)"
       spreadMethod="pad"
       id="linearGradient1536">
      <stop
         style="stop-opacity:1;stop-color:#759615"
         offset="0"
         id="stop1530" />
      <stop
         style="stop-opacity:1;stop-color:#a0cd1f"
         offset="0.43299"
         id="stop1532" />
      <stop
         style="stop-opacity:1;stop-color:#a0cd1f"
         offset="1"
         id="stop1534" />
    </linearGradient>
    <clipPath
       clipPathUnits="userSpaceOnUse"
       id="clipPath1502">
      <path
         d="m 220.061,239.383 c -0.39,-0.149 -0.76,-0.342 -1.1,-0.58 v 0 c -0.332,-0.23 -0.641,-0.49 -0.918,-0.773 v 0 c -0.266,-0.273 -0.509,-0.551 -0.721,-0.824 v 0 c -0.21,-0.272 -0.389,-0.529 -0.533,-0.763 v 0 c -0.093,-0.154 -0.172,-0.286 -0.235,-0.397 v 0 c -0.232,-0.097 -0.428,-0.248 -0.584,-0.449 v 0 c -0.195,-0.256 -0.295,-0.565 -0.295,-0.919 v 0 c 0,-0.313 0.126,-0.506 0.232,-0.611 v 0 c 0.011,-0.012 0.024,-0.024 0.034,-0.034 v 0 c -0.041,-0.252 -0.063,-0.487 -0.063,-0.706 v 0 c 0,-0.399 0.062,-0.75 0.181,-1.045 v 0 c 0.116,-0.294 0.275,-0.547 0.47,-0.752 v 0 c 0.192,-0.203 0.414,-0.369 0.663,-0.492 v 0 c 0.229,-0.113 0.464,-0.204 0.7,-0.264 v 0 c 0.228,-0.058 0.453,-0.099 0.669,-0.118 v 0 c 0.207,-0.019 0.388,-0.029 0.542,-0.029 v 0 c 0.776,0 1.52,0.112 2.21,0.332 v 0 c 0.694,0.222 1.38,0.597 2.044,1.121 v 0 c 0.176,0.145 0.325,0.321 0.44,0.52 v 0 c 0.112,0.195 0.191,0.396 0.227,0.594 v 0 c 0.009,0.048 0.017,0.101 0.022,0.171 v 0 c 0.004,0.054 0.004,0.108 0.004,0.166 v 0 c 0,0.16 -0.038,0.311 -0.118,0.455 v 0 c -0.087,0.153 -0.274,0.336 -0.67,0.336 v 0 c -0.221,0 -0.454,-0.063 -0.712,-0.195 v 0 c -0.207,-0.105 -0.427,-0.233 -0.658,-0.388 v 0 c -0.153,-0.104 -0.328,-0.213 -0.523,-0.325 v 0 c -0.183,-0.105 -0.385,-0.205 -0.597,-0.296 v 0 c -0.204,-0.087 -0.425,-0.162 -0.655,-0.217 v 0 c -0.221,-0.053 -0.451,-0.08 -0.693,-0.08 v 0 c -0.385,0 -0.68,0.068 -0.875,0.204 v 0 c -0.153,0.107 -0.217,0.237 -0.217,0.436 v 0 c 0,0.118 0.013,0.245 0.045,0.374 v 0 c 0.006,0.034 0.015,0.064 0.023,0.094 v 0 c 0.178,0.019 0.377,0.043 0.601,0.073 v 0 c 0.347,0.047 0.708,0.113 1.079,0.198 v 0 c 0.37,0.087 0.748,0.195 1.117,0.325 v 0 c 0.388,0.134 0.752,0.305 1.082,0.507 v 0 c 0.341,0.208 0.641,0.456 0.893,0.734 v 0 c 0.272,0.299 0.461,0.654 0.563,1.053 v 0 c 0.062,0.22 0.095,0.452 0.095,0.693 v 0 c 0,0.294 -0.054,0.572 -0.158,0.829 v 0 c -0.108,0.265 -0.272,0.5 -0.489,0.692 v 0 c -0.212,0.189 -0.476,0.335 -0.788,0.436 v 0 c -0.299,0.097 -0.647,0.148 -1.036,0.148 v 0 c -0.455,0 -0.892,-0.079 -1.298,-0.234 m -0.147,-2.647 c 0.195,0.179 0.404,0.329 0.621,0.447 v 0 c 0.188,0.101 0.371,0.151 0.559,0.151 v 0 c 0.064,0 0.119,-0.011 0.16,-0.033 v 0 -0.003 -0.035 l -0.003,-0.007 c -0.025,-0.09 -0.087,-0.182 -0.189,-0.276 v 0 c -0.126,-0.118 -0.302,-0.23 -0.523,-0.331 v 0 c -0.234,-0.108 -0.516,-0.2 -0.84,-0.273 v 0 c -0.052,-0.012 -0.107,-0.023 -0.16,-0.033 v 0 c 0.113,0.136 0.24,0.268 0.375,0.393"
         id="path1500"
         inkscape:connector-curvature="0" />
    </clipPath>
    <linearGradient
       x1="0"
       y1="0"
       x2="1"
       y2="0"
       gradientUnits="userSpaceOnUse"
       gradientTransform="matrix(8.3759766,0,0,-8.3759766,215.6748,235.12207)"
       spreadMethod="pad"
       id="linearGradient1514">
      <stop
         style="stop-opacity:1;stop-color:#318a82"
         offset="0"
         id="stop1508" />
      <stop
         style="stop-opacity:1;stop-color:#40b7aa"
         offset="0.39691"
         id="stop1510" />
      <stop
         style="stop-opacity:1;stop-color:#40b7aa"
         offset="1"
         id="stop1512" />
    </linearGradient>
    <clipPath
       clipPathUnits="userSpaceOnUse"
       id="clipPath1480">
      <path
         d="m 227.25,237.983 c -0.219,-0.053 -0.437,-0.125 -0.651,-0.214 v 0 c -0.208,-0.088 -0.419,-0.196 -0.622,-0.32 v 0 c -0.186,-0.111 -0.378,-0.236 -0.571,-0.372 v 0 c -0.289,-0.143 -0.568,-0.324 -0.832,-0.534 v 0 c -0.268,-0.216 -0.512,-0.444 -0.722,-0.681 v 0 c -0.221,-0.246 -0.401,-0.5 -0.536,-0.758 v 0 c -0.154,-0.296 -0.229,-0.563 -0.229,-0.817 v 0 c 0,-0.134 0.011,-0.264 0.032,-0.383 v 0 c 0.02,-0.104 0.045,-0.212 0.075,-0.318 v 0 c 0.064,-0.267 0.167,-0.509 0.304,-0.72 v 0 c 0.133,-0.207 0.289,-0.389 0.464,-0.543 v 0 c 0.167,-0.146 0.347,-0.278 0.539,-0.389 v 0 c 0.188,-0.108 0.382,-0.202 0.564,-0.269 v 0 l 0.341,-0.143 c 0.163,-0.065 0.34,-0.137 0.529,-0.216 v 0 c 0.17,-0.07 0.332,-0.148 0.482,-0.232 v 0 c 0.13,-0.071 0.235,-0.144 0.314,-0.22 v 0 l 0.001,-0.001 c 0,-0.009 -0.003,-0.019 -0.006,-0.031 v 0 c -0.015,-0.018 -0.062,-0.063 -0.175,-0.127 v 0 c -0.212,-0.118 -0.471,-0.224 -0.773,-0.32 v 0 c -0.315,-0.098 -0.654,-0.178 -1.01,-0.241 v 0 c -0.35,-0.061 -0.668,-0.091 -0.949,-0.091 v 0 c -0.101,0 -0.146,0.007 -0.161,0.01 v 0 c -0.046,0.009 -0.088,0.019 -0.129,0.032 v 0 l -0.145,0.045 c -0.09,0.026 -0.185,0.04 -0.288,0.04 v 0 c -0.164,0 -0.326,-0.055 -0.48,-0.166 v 0 c -0.102,-0.073 -0.195,-0.16 -0.28,-0.259 v 0 c -0.086,-0.102 -0.161,-0.213 -0.219,-0.335 v 0 c -0.071,-0.148 -0.11,-0.296 -0.11,-0.436 v 0 c 0,-0.248 0.095,-0.487 0.279,-0.71 v 0 c 0.142,-0.173 0.317,-0.326 0.522,-0.453 v 0 c 0.196,-0.125 0.411,-0.226 0.639,-0.301 v 0 c 0.241,-0.078 0.469,-0.119 0.679,-0.119 v 0 c 0.355,0 0.745,0.052 1.161,0.154 v 0 c 0.401,0.096 0.807,0.231 1.207,0.393 v 0 c 0.399,0.162 0.79,0.357 1.158,0.576 v 0 c 0.374,0.224 0.708,0.467 0.988,0.724 v 0 c 0.082,0.074 0.159,0.174 0.245,0.323 v 0 c 0.069,0.118 0.136,0.251 0.2,0.398 v 0 c 0.063,0.146 0.118,0.281 0.168,0.414 v 0 c 0.059,0.156 0.099,0.291 0.125,0.414 v 0 c 0.028,0.119 0.049,0.228 0.063,0.328 v 0 c 0.018,0.109 0.026,0.222 0.026,0.333 v 0 c 0,0.24 -0.037,0.459 -0.114,0.648 v 0 c -0.075,0.187 -0.185,0.359 -0.326,0.512 v 0 c -0.126,0.136 -0.281,0.26 -0.459,0.371 v 0 c -0.151,0.096 -0.32,0.191 -0.522,0.296 v 0 c -0.141,0.071 -0.307,0.147 -0.493,0.228 v 0 c -0.184,0.08 -0.373,0.161 -0.569,0.241 v 0 c -0.189,0.08 -0.378,0.157 -0.564,0.236 v 0 c -0.172,0.074 -0.326,0.145 -0.455,0.217 v 0 l -0.027,0.012 c -0.028,0.012 -0.052,0.029 -0.075,0.041 v 0 c 0.006,0.009 0.012,0.017 0.02,0.027 v 0 c 0.075,0.099 0.181,0.203 0.31,0.309 v 0 c 0.145,0.117 0.311,0.236 0.494,0.349 v 0 c 0.182,0.114 0.371,0.215 0.561,0.302 v 0 c 0.187,0.083 0.372,0.153 0.546,0.2 v 0 c 0.159,0.044 0.293,0.068 0.398,0.068 v 0 c 0.025,0 0.036,-0.004 0.035,-0.002 v 0 c 0.074,-0.05 0.141,-0.103 0.204,-0.159 v 0 c 0.102,-0.089 0.217,-0.172 0.336,-0.243 v 0 c 0.178,-0.107 0.389,-0.161 0.632,-0.161 v 0 c 0.246,0 0.469,0.116 0.629,0.322 v 0 c 0.095,0.122 0.173,0.267 0.236,0.429 v 0 c 0.06,0.149 0.101,0.303 0.127,0.455 v 0 c 0.025,0.147 0.037,0.267 0.037,0.367 v 0 c 0,0.362 -0.109,0.666 -0.322,0.9 v 0 c -0.18,0.2 -0.404,0.352 -0.671,0.452 v 0 c -0.232,0.089 -0.489,0.145 -0.765,0.169 v 0 c -0.225,0.019 -0.434,0.031 -0.632,0.031 v 0 c -0.281,0 -0.539,-0.024 -0.788,-0.082"
         id="path1478"
         inkscape:connector-curvature="0" />
    </clipPath>
    <linearGradient
       x1="0"
       y1="0"
       x2="1"
       y2="0"
       gradientUnits="userSpaceOnUse"
       gradientTransform="matrix(8.4199219,0,0,-8.4199219,222.00781,232.72852)"
       spreadMethod="pad"
       id="linearGradient1492">
      <stop
         style="stop-opacity:1;stop-color:#318a82"
         offset="0"
         id="stop1486" />
      <stop
         style="stop-opacity:1;stop-color:#40b7aa"
         offset="0.42268"
         id="stop1488" />
      <stop
         style="stop-opacity:1;stop-color:#40b7aa"
         offset="1"
         id="stop1490" />
    </linearGradient>
  </defs>
  <sodipodi:namedview
     id="base"
     pagecolor="#ffffff"
     bordercolor="#666666"
     borderopacity="1.0"
     inkscape:pageopacity="0.0"
     inkscape:pageshadow="2"
     inkscape:zoom="1.8150001"
     inkscape:cx="199.99999"
     inkscape:cy="75.799085"
     inkscape:document-units="mm"
     inkscape:current-layer="layer1"
     showgrid="false"
     fit-margin-top="0"
     fit-margin-left="0"
     fit-margin-right="0"
     fit-margin-bottom="0"
     inkscape:window-width="1280"
     inkscape:window-height="656"
     inkscape:window-x="0"
     inkscape:window-y="27"
     inkscape:window-maximized="1" />
  <metadata
     id="metadata7529">
    <rdf:RDF>
      <cc:Work
         rdf:about="">
        <dc:format>image/svg+xml</dc:format>
        <dc:type
           rdf:resource="http://purl.org/dc/dcmitype/StillImage" />
        <dc:title></dc:title>
      </cc:Work>
    </rdf:RDF>
  </metadata>
  <g
     inkscape:label="Capa 1"
     inkscape:groupmode="layer"
     id="layer1"
     transform="translate(-123.85677,-71.878462)">
    <g
       id="g8459">
      <g
         id="g1474"
         transform="matrix(1.2889909,0,0,-1.2889909,-67.329494,394.40332)">
        <g
           clip-path="url(#clipPath1480)"
           id="g1476">
          <g
             id="g1482">
            <g
               id="g1484">
              <path
                 inkscape:connector-curvature="0"
                 id="path1494"
                 style="fill:url(#linearGradient1492);stroke:none"
                 d="m 227.25,237.983 c -0.219,-0.053 -0.437,-0.125 -0.651,-0.214 v 0 c -0.208,-0.088 -0.419,-0.196 -0.622,-0.32 v 0 c -0.186,-0.111 -0.378,-0.236 -0.571,-0.372 v 0 c -0.289,-0.143 -0.568,-0.324 -0.832,-0.534 v 0 c -0.268,-0.216 -0.512,-0.444 -0.722,-0.681 v 0 c -0.221,-0.246 -0.401,-0.5 -0.536,-0.758 v 0 c -0.154,-0.296 -0.229,-0.563 -0.229,-0.817 v 0 c 0,-0.134 0.011,-0.264 0.032,-0.383 v 0 c 0.02,-0.104 0.045,-0.212 0.075,-0.318 v 0 c 0.064,-0.267 0.167,-0.509 0.304,-0.72 v 0 c 0.133,-0.207 0.289,-0.389 0.464,-0.543 v 0 c 0.167,-0.146 0.347,-0.278 0.539,-0.389 v 0 c 0.188,-0.108 0.382,-0.202 0.564,-0.269 v 0 l 0.341,-0.143 c 0.163,-0.065 0.34,-0.137 0.529,-0.216 v 0 c 0.17,-0.07 0.332,-0.148 0.482,-0.232 v 0 c 0.13,-0.071 0.235,-0.144 0.314,-0.22 v 0 l 0.001,-0.001 c 0,-0.009 -0.003,-0.019 -0.006,-0.031 v 0 c -0.015,-0.018 -0.062,-0.063 -0.175,-0.127 v 0 c -0.212,-0.118 -0.471,-0.224 -0.773,-0.32 v 0 c -0.315,-0.098 -0.654,-0.178 -1.01,-0.241 v 0 c -0.35,-0.061 -0.668,-0.091 -0.949,-0.091 v 0 c -0.101,0 -0.146,0.007 -0.161,0.01 v 0 c -0.046,0.009 -0.088,0.019 -0.129,0.032 v 0 l -0.145,0.045 c -0.09,0.026 -0.185,0.04 -0.288,0.04 v 0 c -0.164,0 -0.326,-0.055 -0.48,-0.166 v 0 c -0.102,-0.073 -0.195,-0.16 -0.28,-0.259 v 0 c -0.086,-0.102 -0.161,-0.213 -0.219,-0.335 v 0 c -0.071,-0.148 -0.11,-0.296 -0.11,-0.436 v 0 c 0,-0.248 0.095,-0.487 0.279,-0.71 v 0 c 0.142,-0.173 0.317,-0.326 0.522,-0.453 v 0 c 0.196,-0.125 0.411,-0.226 0.639,-0.301 v 0 c 0.241,-0.078 0.469,-0.119 0.679,-0.119 v 0 c 0.355,0 0.745,0.052 1.161,0.154 v 0 c 0.401,0.096 0.807,0.231 1.207,0.393 v 0 c 0.399,0.162 0.79,0.357 1.158,0.576 v 0 c 0.374,0.224 0.708,0.467 0.988,0.724 v 0 c 0.082,0.074 0.159,0.174 0.245,0.323 v 0 c 0.069,0.118 0.136,0.251 0.2,0.398 v 0 c 0.063,0.146 0.118,0.281 0.168,0.414 v 0 c 0.059,0.156 0.099,0.291 0.125,0.414 v 0 c 0.028,0.119 0.049,0.228 0.063,0.328 v 0 c 0.018,0.109 0.026,0.222 0.026,0.333 v 0 c 0,0.24 -0.037,0.459 -0.114,0.648 v 0 c -0.075,0.187 -0.185,0.359 -0.326,0.512 v 0 c -0.126,0.136 -0.281,0.26 -0.459,0.371 v 0 c -0.151,0.096 -0.32,0.191 -0.522,0.296 v 0 c -0.141,0.071 -0.307,0.147 -0.493,0.228 v 0 c -0.184,0.08 -0.373,0.161 -0.569,0.241 v 0 c -0.189,0.08 -0.378,0.157 -0.564,0.236 v 0 c -0.172,0.074 -0.326,0.145 -0.455,0.217 v 0 l -0.027,0.012 c -0.028,0.012 -0.052,0.029 -0.075,0.041 v 0 c 0.006,0.009 0.012,0.017 0.02,0.027 v 0 c 0.075,0.099 0.181,0.203 0.31,0.309 v 0 c 0.145,0.117 0.311,0.236 0.494,0.349 v 0 c 0.182,0.114 0.371,0.215 0.561,0.302 v 0 c 0.187,0.083 0.372,0.153 0.546,0.2 v 0 c 0.159,0.044 0.293,0.068 0.398,0.068 v 0 c 0.025,0 0.036,-0.004 0.035,-0.002 v 0 c 0.074,-0.05 0.141,-0.103 0.204,-0.159 v 0 c 0.102,-0.089 0.217,-0.172 0.336,-0.243 v 0 c 0.178,-0.107 0.389,-0.161 0.632,-0.161 v 0 c 0.246,0 0.469,0.116 0.629,0.322 v 0 c 0.095,0.122 0.173,0.267 0.236,0.429 v 0 c 0.06,0.149 0.101,0.303 0.127,0.455 v 0 c 0.025,0.147 0.037,0.267 0.037,0.367 v 0 c 0,0.362 -0.109,0.666 -0.322,0.9 v 0 c -0.18,0.2 -0.404,0.352 -0.671,0.452 v 0 c -0.232,0.089 -0.489,0.145 -0.765,0.169 v 0 c -0.225,0.019 -0.434,0.031 -0.632,0.031 v 0 c -0.281,0 -0.539,-0.024 -0.788,-0.082" />
            </g>
          </g>
        </g>
      </g>
      <g
         id="g1496"
         transform="matrix(1.2889909,0,0,-1.2889909,-67.329494,394.40332)">
        <g
           clip-path="url(#clipPath1502)"
           id="g1498">
          <g
             id="g1504">
            <g
               id="g1506">
              <path
                 inkscape:connector-curvature="0"
                 id="path1516"
                 style="fill:url(#linearGradient1514);stroke:none"
                 d="m 220.061,239.383 c -0.39,-0.149 -0.76,-0.342 -1.1,-0.58 v 0 c -0.332,-0.23 -0.641,-0.49 -0.918,-0.773 v 0 c -0.266,-0.273 -0.509,-0.551 -0.721,-0.824 v 0 c -0.21,-0.272 -0.389,-0.529 -0.533,-0.763 v 0 c -0.093,-0.154 -0.172,-0.286 -0.235,-0.397 v 0 c -0.232,-0.097 -0.428,-0.248 -0.584,-0.449 v 0 c -0.195,-0.256 -0.295,-0.565 -0.295,-0.919 v 0 c 0,-0.313 0.126,-0.506 0.232,-0.611 v 0 c 0.011,-0.012 0.024,-0.024 0.034,-0.034 v 0 c -0.041,-0.252 -0.063,-0.487 -0.063,-0.706 v 0 c 0,-0.399 0.062,-0.75 0.181,-1.045 v 0 c 0.116,-0.294 0.275,-0.547 0.47,-0.752 v 0 c 0.192,-0.203 0.414,-0.369 0.663,-0.492 v 0 c 0.229,-0.113 0.464,-0.204 0.7,-0.264 v 0 c 0.228,-0.058 0.453,-0.099 0.669,-0.118 v 0 c 0.207,-0.019 0.388,-0.029 0.542,-0.029 v 0 c 0.776,0 1.52,0.112 2.21,0.332 v 0 c 0.694,0.222 1.38,0.597 2.044,1.121 v 0 c 0.176,0.145 0.325,0.321 0.44,0.52 v 0 c 0.112,0.195 0.191,0.396 0.227,0.594 v 0 c 0.009,0.048 0.017,0.101 0.022,0.171 v 0 c 0.004,0.054 0.004,0.108 0.004,0.166 v 0 c 0,0.16 -0.038,0.311 -0.118,0.455 v 0 c -0.087,0.153 -0.274,0.336 -0.67,0.336 v 0 c -0.221,0 -0.454,-0.063 -0.712,-0.195 v 0 c -0.207,-0.105 -0.427,-0.233 -0.658,-0.388 v 0 c -0.153,-0.104 -0.328,-0.213 -0.523,-0.325 v 0 c -0.183,-0.105 -0.385,-0.205 -0.597,-0.296 v 0 c -0.204,-0.087 -0.425,-0.162 -0.655,-0.217 v 0 c -0.221,-0.053 -0.451,-0.08 -0.693,-0.08 v 0 c -0.385,0 -0.68,0.068 -0.875,0.204 v 0 c -0.153,0.107 -0.217,0.237 -0.217,0.436 v 0 c 0,0.118 0.013,0.245 0.045,0.374 v 0 c 0.006,0.034 0.015,0.064 0.023,0.094 v 0 c 0.178,0.019 0.377,0.043 0.601,0.073 v 0 c 0.347,0.047 0.708,0.113 1.079,0.198 v 0 c 0.37,0.087 0.748,0.195 1.117,0.325 v 0 c 0.388,0.134 0.752,0.305 1.082,0.507 v 0 c 0.341,0.208 0.641,0.456 0.893,0.734 v 0 c 0.272,0.299 0.461,0.654 0.563,1.053 v 0 c 0.062,0.22 0.095,0.452 0.095,0.693 v 0 c 0,0.294 -0.054,0.572 -0.158,0.829 v 0 c -0.108,0.265 -0.272,0.5 -0.489,0.692 v 0 c -0.212,0.189 -0.476,0.335 -0.788,0.436 v 0 c -0.299,0.097 -0.647,0.148 -1.036,0.148 v 0 c -0.455,0 -0.892,-0.079 -1.298,-0.234 m -0.147,-2.647 c 0.195,0.179 0.404,0.329 0.621,0.447 v 0 c 0.188,0.101 0.371,0.151 0.559,0.151 v 0 c 0.064,0 0.119,-0.011 0.16,-0.033 v 0 -0.003 -0.035 l -0.003,-0.007 c -0.025,-0.09 -0.087,-0.182 -0.189,-0.276 v 0 c -0.126,-0.118 -0.302,-0.23 -0.523,-0.331 v 0 c -0.234,-0.108 -0.516,-0.2 -0.84,-0.273 v 0 c -0.052,-0.012 -0.107,-0.023 -0.16,-0.033 v 0 c 0.113,0.136 0.24,0.268 0.375,0.393" />
            </g>
          </g>
        </g>
      </g>
      <g
         id="g1518"
         transform="matrix(1.2889909,0,0,-1.2889909,-67.329494,394.40332)">
        <g
           clip-path="url(#clipPath1524)"
           id="g1520">
          <g
             id="g1526">
            <g
               id="g1528">
              <path
                 inkscape:connector-curvature="0"
                 id="path1538"
                 style="fill:url(#linearGradient1536);stroke:none"
                 d="m 213.484,249.187 c -0.152,-0.16 -0.26,-0.336 -0.315,-0.518 v 0 c -0.063,-0.19 -0.1,-0.338 -0.115,-0.457 v 0 c -0.011,-0.105 -0.017,-0.187 -0.017,-0.258 v 0 -0.099 c 0,-0.153 0.004,-0.273 0.01,-0.364 v 0 c 0.005,-0.068 0.01,-0.139 0.01,-0.21 v 0 c 0,-0.01 -0.003,-0.061 -0.032,-0.188 v 0 c -0.031,-0.12 -0.07,-0.273 -0.122,-0.463 v 0 c -0.024,-0.09 -0.145,-0.594 -0.339,-1.407 v 0 c -0.191,-0.796 -0.407,-1.697 -0.447,-1.844 v 0 c -0.078,-0.289 -0.16,-0.63 -0.244,-1.002 v 0 c -0.013,-0.048 -0.027,-0.099 -0.047,-0.148 v 0 c 0,0 -0.898,-2.592 -0.867,-2.599 v 0 c -0.297,-1.312 -1.258,-5.875 -1.369,-6.415 v 0 c -0.131,-0.623 -0.199,-1.234 -0.199,-1.819 v 0 c 0,-0.453 0.068,-0.887 0.201,-1.287 v 0 c 0.137,-0.409 0.339,-0.772 0.603,-1.082 v 0 c 0.268,-0.315 0.602,-0.565 0.992,-0.747 v 0 c 0.39,-0.182 0.839,-0.274 1.331,-0.274 v 0 c 0.303,0 0.623,0.033 0.947,0.096 v 0 c 0.35,0.071 0.676,0.201 0.973,0.388 v 0 c 0.151,0.097 0.312,0.205 0.48,0.323 v 0 c 0.174,0.121 0.345,0.253 0.508,0.391 v 0 c 0.165,0.14 0.319,0.288 0.459,0.437 v 0 c 0.152,0.165 0.279,0.339 0.375,0.512 v 0 c 0.23,0.415 0.459,0.837 0.68,1.25 v 0 c 0.235,0.44 0.414,0.887 0.531,1.334 v 0 c 0.013,0.064 0.021,0.134 0.021,0.225 v 0 c 0,0.161 -0.044,0.308 -0.133,0.44 v 0 c -0.07,0.104 -0.16,0.187 -0.265,0.252 v 0 c -0.092,0.059 -0.19,0.101 -0.297,0.125 v 0 c -0.09,0.023 -0.17,0.033 -0.244,0.033 v 0 c -0.27,0 -0.507,-0.132 -0.668,-0.367 v 0 c -0.231,-0.315 -0.48,-0.646 -0.744,-0.981 v 0 c -0.259,-0.332 -0.538,-0.642 -0.829,-0.918 v 0 c -0.279,-0.268 -0.573,-0.489 -0.876,-0.664 v 0 c -0.272,-0.153 -0.536,-0.227 -0.81,-0.227 v 0 c -0.13,0 -0.238,0.019 -0.308,0.054 v 0 c -0.068,0.035 -0.118,0.078 -0.154,0.134 v 0 c -0.047,0.07 -0.082,0.158 -0.103,0.263 v 0 c -0.028,0.13 -0.041,0.273 -0.041,0.422 v 0 c 0,0.119 0.015,0.296 0.042,0.524 v 0 c 0.028,0.238 0.072,0.509 0.134,0.808 v 0 c 0.06,0.3 0.136,0.634 0.226,0.992 v 0 c 0.033,0.126 0.154,0.658 0.32,1.395 v 0 c 0.237,1.036 0.846,3.917 1.008,4.572 v 0 c 0.09,0.013 0.846,2.793 0.75,2.777 v 0 l 1.153,4.647 c 0.04,0.166 0.062,0.351 0.062,0.552 v 0 c 0,0.189 -0.026,0.38 -0.074,0.567 v 0 c -0.051,0.198 -0.132,0.381 -0.239,0.54 v 0 c -0.115,0.176 -0.268,0.318 -0.453,0.425 v 0 c -0.192,0.112 -0.42,0.168 -0.676,0.168 v 0 c -0.412,0 -0.658,-0.167 -0.789,-0.308" />
            </g>
          </g>
        </g>
      </g>
      <g
         id="g1540"
         transform="matrix(1.2889909,0,0,-1.2889909,-67.329494,394.40332)">
        <g
           clip-path="url(#clipPath1546)"
           id="g1542">
          <g
             id="g1548">
            <g
               id="g1550">
              <path
                 inkscape:connector-curvature="0"
                 id="path1560"
                 style="fill:url(#linearGradient1558);stroke:none"
                 d="m 205.564,238.608 c -0.39,-0.148 -0.759,-0.341 -1.101,-0.579 v 0 c -0.332,-0.23 -0.641,-0.491 -0.916,-0.773 v 0 c -0.269,-0.275 -0.512,-0.553 -0.722,-0.824 v 0 c -0.212,-0.275 -0.391,-0.53 -0.534,-0.764 v 0 c -0.093,-0.153 -0.171,-0.286 -0.232,-0.397 v 0 c -0.235,-0.097 -0.43,-0.248 -0.586,-0.449 v 0 c -0.196,-0.258 -0.295,-0.566 -0.295,-0.918 v 0 c 0,-0.315 0.126,-0.506 0.231,-0.612 v 0 c 0.012,-0.012 0.023,-0.024 0.035,-0.034 v 0 c -0.041,-0.252 -0.062,-0.487 -0.062,-0.705 v 0 c 0,-0.4 0.06,-0.753 0.178,-1.046 v 0 c 0.118,-0.293 0.277,-0.546 0.471,-0.752 v 0 c 0.193,-0.203 0.414,-0.368 0.662,-0.491 v 0 c 0.23,-0.114 0.465,-0.204 0.702,-0.265 v 0 c 0.228,-0.058 0.452,-0.099 0.668,-0.118 v 0 c 0.21,-0.018 0.386,-0.028 0.543,-0.028 v 0 c 0.777,0 1.52,0.111 2.209,0.332 v 0 c 0.697,0.222 1.381,0.597 2.044,1.12 v 0 c 0.176,0.145 0.324,0.319 0.44,0.519 v 0 c 0.113,0.198 0.19,0.398 0.229,0.6 v 0 c 0.009,0.047 0.015,0.1 0.021,0.167 v 0 c 0.002,0.054 0.004,0.108 0.004,0.165 v 0 c 0,0.16 -0.039,0.312 -0.119,0.454 v 0 c -0.086,0.155 -0.273,0.338 -0.67,0.338 v 0 c -0.221,0 -0.455,-0.064 -0.713,-0.195 v 0 c -0.208,-0.106 -0.426,-0.236 -0.656,-0.388 v 0 c -0.155,-0.105 -0.33,-0.216 -0.522,-0.326 v 0 c -0.186,-0.105 -0.387,-0.205 -0.598,-0.295 v 0 c -0.205,-0.089 -0.425,-0.162 -0.654,-0.217 v 0 c -0.22,-0.054 -0.455,-0.08 -0.696,-0.08 v 0 c -0.384,0 -0.679,0.068 -0.874,0.203 v 0 c -0.152,0.107 -0.218,0.237 -0.218,0.435 v 0 c 0,0.12 0.014,0.245 0.046,0.374 v 0 c 0.008,0.035 0.017,0.066 0.023,0.094 v 0 c 0.178,0.021 0.378,0.044 0.602,0.074 v 0 c 0.347,0.047 0.707,0.114 1.078,0.199 v 0 c 0.371,0.087 0.748,0.195 1.119,0.324 v 0 c 0.387,0.135 0.75,0.305 1.082,0.507 v 0 c 0.34,0.209 0.641,0.456 0.893,0.734 v 0 c 0.272,0.3 0.459,0.654 0.56,1.053 v 0 c 0.063,0.22 0.096,0.454 0.096,0.692 v 0 c 0,0.293 -0.052,0.572 -0.158,0.828 v 0 c -0.107,0.267 -0.271,0.5 -0.488,0.695 v 0 c -0.212,0.188 -0.477,0.335 -0.79,0.436 v 0 c -0.297,0.097 -0.646,0.147 -1.033,0.147 v 0 c -0.455,0 -0.893,-0.078 -1.299,-0.234 m -0.147,-2.646 c 0.194,0.178 0.403,0.329 0.622,0.446 v 0 c 0.188,0.102 0.371,0.152 0.557,0.152 v 0 c 0.068,0 0.119,-0.011 0.16,-0.034 v 0 -0.002 -0.036 l -0.001,-0.006 c -0.024,-0.092 -0.089,-0.183 -0.191,-0.277 v 0 c -0.126,-0.118 -0.302,-0.23 -0.523,-0.332 v 0 c -0.233,-0.106 -0.515,-0.198 -0.84,-0.271 v 0 c -0.052,-0.013 -0.105,-0.024 -0.16,-0.033 v 0 c 0.114,0.137 0.24,0.268 0.376,0.393" />
            </g>
          </g>
        </g>
      </g>
      <g
         id="g1562"
         transform="matrix(1.2889909,0,0,-1.2889909,-67.329494,394.40332)">
        <g
           clip-path="url(#clipPath1568)"
           id="g1564">
          <g
             id="g1570">
            <g
               id="g1572">
              <path
                 inkscape:connector-curvature="0"
                 id="path1582"
                 style="fill:url(#linearGradient1580);stroke:none"
                 d="m 199.364,238.882 c -0.173,-0.152 -0.289,-0.384 -0.359,-0.714 v 0 l -0.229,-1.178 c -0.037,-0.168 -0.087,-0.395 -0.151,-0.68 v 0 c -0.064,-0.276 -0.141,-0.578 -0.231,-0.897 v 0 c -0.086,-0.312 -0.19,-0.628 -0.307,-0.938 v 0 c -0.112,-0.299 -0.235,-0.565 -0.364,-0.79 v 0 l -0.225,-0.391 c -0.114,-0.186 -0.259,-0.399 -0.436,-0.637 v 0 c -0.171,-0.231 -0.364,-0.452 -0.578,-0.656 v 0 c -0.205,-0.196 -0.423,-0.367 -0.65,-0.504 v 0 c -0.186,-0.112 -0.358,-0.167 -0.525,-0.167 v 0 c -0.041,0 -0.056,0.01 -0.072,0.023 v 0 c -0.058,0.051 -0.103,0.113 -0.143,0.195 v 0 c -0.048,0.101 -0.087,0.21 -0.111,0.328 v 0 c -0.025,0.122 -0.038,0.232 -0.038,0.326 v 0 c 0,0.048 0.009,0.172 0.079,0.441 v 0 c 0.062,0.24 0.15,0.552 0.262,0.922 v 0 c 0.115,0.386 0.255,0.852 0.421,1.4 v 0 c 0.168,0.554 0.354,1.206 0.552,1.937 v 0 c 0.047,0.152 0.071,0.316 0.071,0.487 v 0 c 0,0.243 -0.053,0.461 -0.162,0.648 v 0 c -0.139,0.242 -0.371,0.385 -0.66,0.406 v 0 c -0.081,0.017 -0.164,0.033 -0.249,0.048 v 0 l -0.021,0.004 c -0.08,0.012 -0.162,0.025 -0.248,0.038 v 0 c -0.225,0.038 -0.37,0.054 -0.576,-0.034 v 0 c -0.081,-0.034 -0.16,-0.084 -0.244,-0.153 v 0 c -0.085,-0.069 -0.163,-0.16 -0.234,-0.267 v 0 c -0.069,-0.108 -0.124,-0.235 -0.159,-0.373 v 0 l -0.123,-0.475 c -0.048,-0.18 -0.105,-0.397 -0.174,-0.65 v 0 c -0.066,-0.255 -0.146,-0.552 -0.235,-0.891 v 0 c -0.089,-0.337 -0.19,-0.73 -0.304,-1.177 v 0 c -0.031,-0.132 -0.076,-0.287 -0.13,-0.459 v 0 c -0.061,-0.194 -0.116,-0.4 -0.164,-0.609 v 0 c -0.049,-0.212 -0.092,-0.433 -0.132,-0.665 v 0 c -0.038,-0.241 -0.057,-0.486 -0.057,-0.729 v 0 c 0,-0.44 0.078,-0.879 0.23,-1.305 v 0 c 0.16,-0.444 0.432,-0.846 0.81,-1.199 v 0 c 0.093,-0.084 0.207,-0.169 0.349,-0.257 v 0 c 0.134,-0.084 0.278,-0.16 0.425,-0.227 v 0 c 0.146,-0.067 0.288,-0.123 0.429,-0.168 v 0 c 0.166,-0.051 0.306,-0.077 0.43,-0.077 v 0 c 0.459,0 0.891,0.11 1.285,0.325 v 0 c 0.36,0.199 0.697,0.447 1.002,0.739 v 0 c 0.291,0.277 0.559,0.58 0.8,0.9 v 0 l 0.032,-0.566 c 0.007,-0.105 0.024,-0.208 0.045,-0.309 v 0 c 0.035,-0.151 0.105,-0.29 0.209,-0.412 v 0 c 0.104,-0.12 0.244,-0.214 0.414,-0.28 v 0 c 0.15,-0.059 0.337,-0.085 0.566,-0.085 v 0 c 0.377,0 0.664,0.104 0.856,0.311 v 0 c 0.152,0.166 0.267,0.393 0.349,0.687 v 0 c 0.03,0.092 0.047,0.207 0.059,0.362 v 0 c 0.01,0.132 0.015,0.281 0.015,0.441 v 0 c 0,0.347 -0.01,0.68 -0.032,0.99 v 0 c -0.02,0.287 -0.03,0.583 -0.03,0.877 v 0 c 0,0.158 0.013,0.342 0.036,0.546 v 0 c 0.026,0.211 0.061,0.439 0.102,0.677 v 0 c 0.044,0.24 0.092,0.48 0.148,0.715 v 0 c 0.056,0.244 0.111,0.474 0.161,0.688 v 0 c 0.098,0.382 0.186,0.762 0.268,1.131 v 0 c 0.086,0.406 0.129,0.743 0.129,1.03 v 0 c 0,0.263 -0.027,0.48 -0.082,0.664 v 0 c -0.063,0.211 -0.162,0.386 -0.297,0.522 v 0 c -0.137,0.136 -0.306,0.233 -0.498,0.287 v 0 c -0.157,0.041 -0.331,0.063 -0.518,0.063 v 0 c -0.345,0 -0.603,-0.078 -0.786,-0.239" />
            </g>
          </g>
        </g>
      </g>
      <g
         id="g1584"
         transform="matrix(1.2889909,0,0,-1.2889909,-67.329494,394.40332)">
        <g
           clip-path="url(#clipPath1590)"
           id="g1586">
          <g
             id="g1592">
            <g
               id="g1594">
              <path
                 inkscape:connector-curvature="0"
                 id="path1604"
                 style="fill:url(#linearGradient1602);stroke:none"
                 d="m 187.486,239.86 c -0.529,-0.171 -1.047,-0.472 -1.538,-0.891 v 0 c -0.378,-0.318 -0.738,-0.671 -1.074,-1.047 v 0 c -0.338,-0.38 -0.648,-0.79 -0.917,-1.219 v 0 c -0.275,-0.433 -0.509,-0.898 -0.695,-1.381 v 0 c -0.192,-0.49 -0.322,-1.009 -0.388,-1.543 v 0 c -0.018,-0.168 -0.037,-0.358 -0.058,-0.572 v 0 c -0.023,-0.24 -0.022,-0.471 0.004,-0.685 v 0 c 0.041,-0.359 0.174,-0.707 0.395,-1.037 v 0 c 0.203,-0.301 0.443,-0.574 0.714,-0.81 v 0 c 0.268,-0.232 0.548,-0.425 0.838,-0.576 v 0 c 0.319,-0.166 0.602,-0.255 0.866,-0.27 v 0 c 0.385,-0.021 0.77,0.031 1.143,0.155 v 0 c 0.351,0.117 0.694,0.276 1.021,0.471 v 0 c 0.29,0.174 0.574,0.372 0.844,0.593 v 0 c -0.053,-0.346 -0.112,-0.685 -0.174,-1.01 v 0 c -0.023,-0.131 -0.09,-0.593 -0.204,-1.397 v 0 c -0.185,-1.284 -0.527,-3.672 -0.615,-3.947 v 0 c -0.127,-0.346 -0.294,-0.688 -0.501,-1.01 v 0 c -0.195,-0.307 -0.447,-0.606 -0.751,-0.893 v 0 c -0.055,-0.031 -0.15,-0.072 -0.3,-0.107 v 0 c -0.178,-0.044 -0.375,-0.08 -0.589,-0.111 v 0 c -0.367,-0.062 -1.887,-0.323 -2.112,-0.388 v 0 c -0.277,-0.079 -0.492,-0.187 -0.656,-0.329 v 0 c -0.178,-0.154 -0.307,-0.347 -0.383,-0.579 v 0 c -0.058,-0.18 -0.103,-0.404 -0.138,-0.681 v 0 c -0.017,-0.124 -0.017,-0.249 -0.003,-0.37 v 0 c 0.022,-0.185 0.078,-0.352 0.168,-0.498 v 0 c 0.08,-0.13 0.173,-0.24 0.279,-0.33 v 0 c 0.107,-0.093 0.226,-0.164 0.349,-0.214 v 0 c 0.125,-0.048 0.239,-0.075 0.346,-0.082 v 0 c 0.825,-0.045 2.798,0.247 3.441,0.47 v 0 c 0.64,0.222 1.21,0.546 1.693,0.961 v 0 c 0.476,0.41 0.886,0.902 1.216,1.462 v 0 c 0.318,0.542 0.588,1.132 0.8,1.755 v 0 c 0.144,0.414 0.437,2.33 0.778,4.606 v 0 c 0.107,0.716 0.202,1.337 0.237,1.523 v 0 c 0.118,0.64 0.209,1.27 0.267,1.872 v 0 c 0.033,0.336 0.068,0.715 0.102,1.159 v 0 c 0.031,0.426 0.062,0.86 0.093,1.302 v 0 c 0.031,0.442 0.059,0.88 0.086,1.314 v 0 c 0.03,0.431 0.051,0.83 0.065,1.187 v 0 c 0.017,0.355 0.026,0.653 0.031,0.893 v 0 c 0.009,0.34 0.003,0.448 -0.005,0.515 v 0 c -0.013,0.09 -0.036,0.184 -0.076,0.29 v 0 c -0.04,0.109 -0.087,0.201 -0.146,0.288 v 0 c -0.184,0.27 -0.387,0.494 -0.601,0.671 v 0 c -0.215,0.176 -0.445,0.316 -0.687,0.417 v 0 c -0.233,0.095 -0.477,0.164 -0.728,0.205 v 0 c -0.234,0.037 -0.478,0.062 -0.723,0.076 v 0 c -0.103,0.006 -0.205,0.009 -0.305,0.009 v 0 c -0.499,0 -0.972,-0.073 -1.409,-0.217 m -1.938,-6.984 c -0.006,0.064 -0.007,0.126 -0.001,0.191 v 0 c 0.006,0.086 0.016,0.172 0.025,0.253 v 0 c 0.038,0.291 0.102,0.546 0.188,0.758 v 0 c 0.097,0.231 0.207,0.466 0.334,0.705 v 0 c 0.072,0.144 0.183,0.319 0.334,0.521 v 0 c 0.16,0.212 0.338,0.434 0.534,0.658 v 0 c 0.192,0.22 0.405,0.444 0.633,0.66 v 0 c 0.22,0.211 0.444,0.401 0.668,0.566 v 0 c 0.212,0.157 0.419,0.285 0.614,0.379 v 0 c 0.071,0.034 0.138,0.06 0.203,0.076 v 0 c 0.037,-0.086 0.074,-0.164 0.113,-0.232 v 0 c 0.034,-0.055 0.055,-0.11 0.063,-0.17 v 0 c -0.004,-0.141 -0.033,-0.307 -0.085,-0.498 v 0 c -0.064,-0.224 -0.143,-0.453 -0.233,-0.683 v 0 c -0.088,-0.221 -0.182,-0.439 -0.28,-0.642 v 0 c -0.095,-0.201 -0.174,-0.358 -0.239,-0.48 v 0 c -0.12,-0.244 -0.302,-0.507 -0.537,-0.782 v 0 c -0.246,-0.285 -0.511,-0.549 -0.795,-0.791 v 0 c -0.276,-0.231 -0.559,-0.422 -0.845,-0.567 v 0 c -0.241,-0.125 -0.449,-0.18 -0.617,-0.172 v 0 h -0.002 c -0.037,0.068 -0.063,0.151 -0.075,0.25" />
            </g>
          </g>
        </g>
      </g>
      <g
         id="g1606"
         transform="matrix(1.2889909,0,0,-1.2889909,-67.329494,394.40332)">
        <g
           clip-path="url(#clipPath1612)"
           id="g1608">
          <g
             id="g1614">
            <g
               id="g1616">
              <path
                 inkscape:connector-curvature="0"
                 id="path1626"
                 style="fill:url(#linearGradient1624);stroke:none"
                 d="m 180.357,239.773 c -0.166,-0.162 -0.265,-0.403 -0.301,-0.746 v 0 l -0.106,-1.175 c -0.018,-0.17 -0.044,-0.397 -0.077,-0.679 v 0 c -0.036,-0.282 -0.082,-0.583 -0.138,-0.898 v 0 c -0.054,-0.31 -0.126,-0.623 -0.209,-0.933 v 0 c -0.08,-0.297 -0.174,-0.561 -0.278,-0.784 v 0 l -0.185,-0.391 c -0.09,-0.181 -0.213,-0.394 -0.365,-0.631 v 0 c -0.144,-0.227 -0.314,-0.444 -0.501,-0.647 v 0 c -0.181,-0.193 -0.379,-0.36 -0.586,-0.494 v 0 c -0.167,-0.107 -0.327,-0.16 -0.49,-0.16 v 0 c -0.041,0 -0.069,0.01 -0.099,0.035 v 0 c -0.07,0.057 -0.13,0.127 -0.18,0.215 v 0 c -0.063,0.104 -0.113,0.218 -0.152,0.338 v 0 c -0.039,0.125 -0.064,0.236 -0.074,0.33 v 0 c -0.005,0.049 -0.006,0.171 0.032,0.437 v 0 c 0.036,0.236 0.092,0.547 0.164,0.925 v 0 c 0.077,0.383 0.168,0.85 0.276,1.397 v 0 c 0.109,0.546 0.226,1.197 0.351,1.936 v 0 c 0.031,0.156 0.037,0.321 0.02,0.494 v 0 c -0.026,0.238 -0.1,0.45 -0.222,0.629 v 0 c -0.152,0.223 -0.385,0.357 -0.662,0.378 v 0 c -0.085,0.016 -0.171,0.033 -0.259,0.048 v 0 l -0.017,0.003 c -0.081,0.011 -0.165,0.025 -0.252,0.04 v 0 c -0.227,0.037 -0.389,0.05 -0.58,-0.038 v 0 c -0.084,-0.037 -0.163,-0.09 -0.246,-0.165 v 0 c -0.082,-0.075 -0.157,-0.17 -0.216,-0.28 v 0 c -0.064,-0.115 -0.105,-0.247 -0.126,-0.389 v 0 l -0.075,-0.475 c -0.029,-0.18 -0.063,-0.397 -0.105,-0.65 v 0 c -0.041,-0.255 -0.09,-0.552 -0.142,-0.892 v 0 c -0.053,-0.338 -0.114,-0.729 -0.18,-1.177 v 0 c -0.02,-0.134 -0.047,-0.287 -0.082,-0.458 v 0 c -0.04,-0.19 -0.074,-0.397 -0.102,-0.613 v 0 c -0.027,-0.213 -0.047,-0.437 -0.06,-0.663 v 0 c -0.013,-0.242 -0.008,-0.489 0.017,-0.73 v 0 c 0.046,-0.439 0.168,-0.875 0.364,-1.296 v 0 c 0.204,-0.436 0.511,-0.83 0.918,-1.175 v 0 c 0.099,-0.082 0.218,-0.165 0.367,-0.251 v 0 c 0.141,-0.083 0.289,-0.159 0.441,-0.224 v 0 c 0.151,-0.066 0.299,-0.121 0.44,-0.163 v 0 c 0.17,-0.052 0.31,-0.079 0.434,-0.079 v 0 c 0.462,0 0.888,0.112 1.265,0.332 v 0 c 0.346,0.201 0.662,0.453 0.941,0.75 v 0 c 0.262,0.281 0.503,0.587 0.712,0.909 v 0 l 0.103,-0.637 c 0.019,-0.104 0.044,-0.207 0.078,-0.305 v 0 c 0.046,-0.145 0.127,-0.276 0.236,-0.389 v 0 c 0.11,-0.113 0.248,-0.202 0.419,-0.264 v 0 c 0.154,-0.056 0.339,-0.083 0.566,-0.083 v 0 c 0.387,0 0.675,0.109 0.855,0.33 v 0 c 0.141,0.175 0.236,0.409 0.291,0.711 v 0 c 0.018,0.093 0.025,0.21 0.019,0.366 v 0 c -0.004,0.132 -0.014,0.281 -0.03,0.441 v 0 c -0.038,0.344 -0.082,0.675 -0.137,0.988 v 0 c -0.051,0.289 -0.09,0.585 -0.122,0.877 v 0 c -0.017,0.16 -0.023,0.344 -0.019,0.548 v 0 c 0.002,0.212 0.013,0.438 0.03,0.673 v 0 c 0.019,0.24 0.043,0.481 0.071,0.718 v 0 c 0.031,0.243 0.062,0.474 0.091,0.686 v 0 c 0.058,0.378 0.106,0.758 0.147,1.132 v 0 c 0.046,0.405 0.053,0.743 0.022,1.032 v 0 c -0.027,0.262 -0.075,0.477 -0.148,0.656 v 0 c -0.081,0.202 -0.193,0.368 -0.334,0.498 v 0 c -0.145,0.129 -0.314,0.221 -0.504,0.271 v 0 c -0.16,0.043 -0.334,0.065 -0.519,0.065 v 0 c -0.356,0 -0.612,-0.082 -0.79,-0.254" />
            </g>
          </g>
        </g>
      </g>
      <g
         id="g1628"
         transform="matrix(1.2889909,0,0,-1.2889909,-67.329494,394.40332)">
        <g
           clip-path="url(#clipPath1634)"
           id="g1630">
          <g
             id="g1636">
            <g
               id="g1638">
              <path
                 inkscape:connector-curvature="0"
                 id="path1648"
                 style="fill:url(#linearGradient1646);stroke:none"
                 d="m 155.207,248.418 c -0.299,-0.006 -0.566,-0.062 -0.793,-0.17 v 0 c -0.302,-0.143 -0.491,-0.417 -0.527,-0.77 v 0 c -0.016,-0.171 -0.006,-0.352 0.031,-0.534 v 0 c 0.031,-0.156 0.072,-0.312 0.123,-0.468 v 0 c 0.05,-0.151 0.103,-0.295 0.158,-0.43 v 0 c 0.054,-0.129 0.1,-0.234 0.135,-0.315 v 0 l 0.031,-0.053 c 0.118,-0.19 0.289,-0.359 0.528,-0.513 v 0 c 0.194,-0.126 0.394,-0.238 0.594,-0.331 v 0 c 0.132,-0.061 0.253,-0.114 0.367,-0.16 v 0 c 0,0 0.271,-0.056 0.458,-0.096 v 0 c -0.532,0.116 0.033,-0.001 0.177,-0.024 v 0 c 0.177,-0.028 0.355,-0.055 0.53,-0.085 v 0 c 0.482,-0.085 0.973,-0.165 1.44,-0.305 v 0 c 0.395,-0.119 0.75,-0.279 1.049,-0.489 v 0 c 0.287,-0.122 0.584,-0.276 0.892,-0.458 v 0 c 0.45,-0.271 0.895,-0.595 1.325,-0.967 v 0 c 0.433,-0.376 0.849,-0.795 1.237,-1.245 v 0 c 0.382,-0.446 0.714,-0.92 0.986,-1.412 v 0 c 0.269,-0.486 0.474,-0.99 0.609,-1.498 v 0 c 0.131,-0.491 0.172,-0.981 0.121,-1.46 v 0 c -0.047,-0.463 -0.184,-0.883 -0.402,-1.249 v 0 c -0.229,-0.383 -0.52,-0.73 -0.87,-1.032 v 0 c -0.355,-0.307 -0.763,-0.577 -1.213,-0.799 v 0 c -0.467,-0.23 -0.954,-0.426 -1.451,-0.587 v 0 c -0.5,-0.161 -1.01,-0.287 -1.511,-0.376 v 0 c -0.506,-0.091 -0.991,-0.152 -1.44,-0.187 v 0 c -0.449,-0.035 -0.881,-0.049 -1.283,-0.047 v 0 c -0.413,0.005 -2.819,0.071 -3.084,0.107 v 0 c -0.516,0.072 -0.976,0.264 -1.462,0.44 v 0 c -0.128,0.046 -0.247,0.109 -0.353,0.183 v 0 c -0.306,0.063 -0.602,0.117 -0.886,0.157 v 0 c -0.469,0.068 -0.948,0.007 -1.424,-0.186 v 0 c -0.301,-0.123 -0.533,-0.298 -0.692,-0.517 v 0 c -0.157,-0.219 -0.252,-0.459 -0.279,-0.714 v 0 c -0.02,-0.204 0.014,-0.413 0.1,-0.615 v 0 c 0.082,-0.191 0.216,-0.375 0.409,-0.558 v 0 c 0.175,-0.167 0.396,-0.322 0.675,-0.475 v 0 c 0.267,-0.145 0.586,-0.28 0.976,-0.414 v 0 c 0.338,-0.114 0.706,-0.222 1.089,-0.32 v 0 c 0.38,-0.096 0.772,-0.184 1.163,-0.261 v 0 c 0.393,-0.077 0.787,-0.141 1.174,-0.188 v 0 c 0.391,-0.046 0.764,-0.071 1.11,-0.074 v 0 h 0.046 c 0.711,-0.046 1.455,-0.073 2.214,-0.081 v 0 c 0.793,-0.01 1.591,0.032 2.372,0.122 v 0 c 0.785,0.091 1.563,0.251 2.312,0.477 v 0 c 0.763,0.228 1.485,0.568 2.152,1.009 v 0 c 0.665,0.442 1.277,1.01 1.815,1.685 v 0 c 0.539,0.676 0.994,1.519 1.359,2.518 v 0 c 0.067,0.206 0.132,0.458 0.189,0.749 v 0 c 0.056,0.29 0.099,0.572 0.127,0.837 v 0 c 0.054,0.509 0.051,1.018 -0.008,1.513 v 0 c -0.055,0.486 -0.148,0.962 -0.276,1.414 v 0 c -0.129,0.453 -0.285,0.89 -0.471,1.299 v 0 c -0.181,0.402 -0.382,0.785 -0.596,1.138 v 0 c -0.563,0.919 -1.183,1.72 -1.841,2.382 v 0 c -0.655,0.657 -1.379,1.242 -2.147,1.739 v 0 c -0.765,0.494 -1.607,0.935 -2.503,1.31 v 0 c -0.883,0.37 -1.858,0.733 -2.895,1.086 v 0 c -0.236,0.079 -0.504,0.151 -0.797,0.211 v 0 c -0.282,0.059 -0.556,0.087 -0.812,0.087 v 0 c -0.019,0 -0.038,0 -0.057,0 m 1.166,-3.854 c -0.019,0.004 -0.039,0.009 -0.061,0.014 v 0 c 0.019,-0.005 0.039,-0.009 0.061,-0.014" />
            </g>
          </g>
        </g>
      </g>
      <g
         id="g1650"
         transform="matrix(1.2889909,0,0,-1.2889909,-67.329494,394.40332)">
        <g
           clip-path="url(#clipPath1656)"
           id="g1652">
          <g
             id="g1658">
            <g
               id="g1660">
              <path
                 inkscape:connector-curvature="0"
                 id="path1670"
                 style="fill:url(#linearGradient1668);stroke:none"
                 d="m 149.84,237.907 c -0.444,-1.493 0.064,-1.859 0.352,-1.971 v 0 c 0.833,-0.27 1.331,-0.448 2.119,-0.743 v 0 c 0.262,-0.1 1.363,-0.67 1.904,1.158 v 0 c 0.541,1.828 -0.127,1.73 -0.098,1.784 v 0 l -2.91,0.98 c 0,0 -0.071,0.022 -0.182,0.022 v 0 c -0.293,0 -0.866,-0.15 -1.185,-1.23" />
            </g>
          </g>
        </g>
      </g>
      <g
         id="g1672"
         transform="matrix(1.2889909,0,0,-1.2889909,-67.329494,394.40332)">
        <g
           clip-path="url(#clipPath1678)"
           id="g1674">
          <g
             id="g1680">
            <g
               id="g1682">
              <path
                 inkscape:connector-curvature="0"
                 id="path1692"
                 style="fill:url(#linearGradient1690);stroke:none"
                 d="m 151.463,242.793 c -0.441,-1.493 0.232,-1.914 0.519,-2.027 v 0 c 0.833,-0.268 1.166,-0.393 1.953,-0.688 v 0 c 0.262,-0.098 1.364,-0.67 1.904,1.158 v 0 c 0.542,1.83 -0.126,1.732 -0.097,1.784 v 0 l -2.908,0.98 c 0,0 -0.071,0.022 -0.184,0.022 v 0 c -0.294,0 -0.868,-0.15 -1.187,-1.229" />
            </g>
          </g>
        </g>
      </g>
      <g
         id="g1694"
         transform="matrix(1.2889909,0,0,-1.2889909,-67.329494,394.40332)">
        <g
           clip-path="url(#clipPath1700)"
           id="g1696">
          <g
             id="g1702">
            <g
               id="g1704">
              <path
                 inkscape:connector-curvature="0"
                 id="path1714"
                 style="fill:url(#linearGradient1712);stroke:none"
                 d="m 171.654,239.215 c -0.227,-0.089 -0.423,-0.223 -0.587,-0.401 v 0 c -0.15,-0.164 -0.274,-0.358 -0.369,-0.576 v 0 c -0.09,-0.208 -0.153,-0.425 -0.189,-0.644 v 0 c -0.036,-0.233 -0.046,-0.453 -0.028,-0.651 v 0 c 0,0 0.195,-2.221 0.397,-4.444 v 0 c 0.12,-1.291 0.216,-2.321 0.29,-3.058 v 0 c 0.042,-0.422 0.078,-0.771 0.106,-1.017 v 0 c 0.019,-0.162 0.035,-0.296 0.062,-0.408 v 0 h -0.002 c 0.08,-0.464 0.139,-0.92 0.181,-1.361 v 0 c 0.041,-0.445 0.071,-0.86 0.086,-1.239 v 0 c 0.016,-0.372 0.019,-0.708 0.008,-1 v 0 c -0.01,-0.284 -0.027,-0.503 -0.049,-0.652 v 0 c -0.029,-0.183 -0.074,-0.357 -0.133,-0.517 v 0 c -0.049,-0.132 -0.115,-0.242 -0.19,-0.327 v 0 c -0.068,-0.072 -0.149,-0.124 -0.252,-0.157 v 0 c -0.107,-0.036 -0.252,-0.038 -0.425,-0.012 v 0 c -0.346,0.054 -0.664,0.201 -0.974,0.446 v 0 c -0.338,0.271 -0.656,0.598 -0.947,0.979 v 0 c -0.296,0.388 -0.577,0.816 -0.83,1.269 v 0 c -0.254,0.459 -0.494,0.902 -0.71,1.32 v 0 c -0.135,0.286 -0.37,0.467 -0.666,0.515 v 0 c -0.06,0.009 -0.127,0.013 -0.202,0.011 v 0 c -0.024,0 -0.049,-0.002 -0.078,-0.005 v 0 c -0.117,-0.009 -0.234,-0.038 -0.345,-0.086 v 0 c -0.125,-0.054 -0.238,-0.131 -0.335,-0.234 v 0 c -0.116,-0.125 -0.188,-0.276 -0.214,-0.45 v 0 c -0.017,-0.102 -0.022,-0.183 -0.014,-0.257 v 0 c 0.052,-0.543 0.18,-1.107 0.379,-1.675 v 0 c 0.187,-0.535 0.384,-1.081 0.583,-1.622 v 0 c 0.078,-0.225 0.195,-0.449 0.342,-0.667 v 0 c 0.136,-0.203 0.293,-0.405 0.463,-0.602 v 0 c 0.167,-0.194 0.346,-0.381 0.53,-0.56 v 0 c 0.179,-0.172 0.352,-0.332 0.515,-0.475 v 0 c 0.312,-0.273 0.67,-0.486 1.064,-0.629 v 0 c 0.372,-0.136 0.742,-0.235 1.101,-0.289 v 0 c 0.264,-0.043 0.526,-0.062 0.771,-0.053 v 0 c 0.291,0.008 0.571,0.053 0.837,0.127 v 0 c 0.489,0.142 0.925,0.375 1.296,0.693 v 0 c 0.364,0.314 0.668,0.703 0.903,1.159 v 0 c 0.231,0.444 0.391,0.944 0.475,1.479 v 0 c 0.109,0.695 0.144,1.434 0.103,2.201 v 0 c -0.039,0.738 -0.579,4.481 -0.632,4.687 v 0 c -0.029,0.115 -0.049,0.228 -0.057,0.327 v 0 c -0.033,0.478 -0.068,0.901 -0.106,1.259 v 0 c -0.021,0.184 -0.111,1.304 -0.189,2.291 v 0 c -0.082,1.022 -0.133,1.651 -0.146,1.762 v 0 c -0.025,0.238 -0.045,0.431 -0.059,0.581 v 0 c -0.011,0.158 -0.004,0.229 -0.001,0.253 v 0 c 0.013,0.09 0.031,0.178 0.052,0.259 v 0 c 0.024,0.107 0.052,0.246 0.08,0.426 v 0 l 0.019,0.12 c 0.012,0.08 0.021,0.18 0.024,0.302 v 0 c 0.006,0.137 -0.01,0.317 -0.047,0.543 v 0 c -0.035,0.222 -0.124,0.443 -0.268,0.653 v 0 c -0.175,0.257 -0.453,0.417 -0.825,0.476 v 0 c -0.096,0.015 -0.189,0.023 -0.28,0.023 v 0 c -0.183,0 -0.357,-0.031 -0.518,-0.093" />
            </g>
          </g>
        </g>
      </g>
      <g
         id="g1716"
         transform="matrix(1.2889909,0,0,-1.2889909,-67.329494,394.40332)">
        <g
           clip-path="url(#clipPath1722)"
           id="g1718">
          <g
             id="g1724">
            <g
               id="g1726">
              <path
                 inkscape:connector-curvature="0"
                 id="path1736"
                 style="fill:url(#linearGradient1734);stroke:none"
                 d="m 172.068,243.898 c -0.203,-0.021 -0.393,-0.084 -0.566,-0.192 v 0 c -0.128,-0.08 -0.271,-0.181 -0.425,-0.304 v 0 c -0.225,-0.179 -0.408,-0.395 -0.548,-0.642 v 0 c -0.155,-0.281 -0.218,-0.597 -0.181,-0.944 v 0 c 0.051,-0.491 0.254,-0.873 0.606,-1.132 v 0 c 0.299,-0.22 0.653,-0.325 1.051,-0.314 v 0 c 0.051,0.002 0.102,0.005 0.153,0.01 v 0 c 0.17,0.017 0.328,0.07 0.476,0.159 v 0 c 0.122,0.072 0.24,0.163 0.352,0.271 v 0 c 0.295,0.287 0.49,0.586 0.576,0.889 v 0 c 0.082,0.283 0.109,0.58 0.079,0.883 v 0 c -0.017,0.161 -0.054,0.318 -0.112,0.471 v 0 c -0.062,0.17 -0.156,0.326 -0.284,0.461 v 0 c -0.135,0.145 -0.307,0.255 -0.51,0.324 v 0 c -0.139,0.047 -0.293,0.07 -0.463,0.07 v 0 c -0.066,0 -0.133,-0.003 -0.204,-0.01" />
            </g>
          </g>
        </g>
      </g>
      <g
         id="g1738"
         transform="matrix(1.2889909,0,0,-1.2889909,-67.329494,394.40332)">
        <g
           clip-path="url(#clipPath1744)"
           id="g1740">
          <g
             id="g1746">
            <g
               id="g1748">
              <path
                 inkscape:connector-curvature="0"
                 id="path1758"
                 style="fill:url(#linearGradient1756);stroke:none"
                 d="m 167.547,249.7 c -0.476,-0.387 -0.739,-0.873 -0.781,-1.447 v 0 c -0.029,-0.421 0.086,-0.802 0.342,-1.134 v 0 c 0.125,-0.158 0.271,-0.291 0.437,-0.393 v 0 c -0.122,-0.148 -0.269,-0.273 -0.447,-0.381 v 0 c -0.272,-0.166 -0.469,-0.315 -0.606,-0.451 v 0 c -0.191,-0.191 -0.301,-0.455 -0.324,-0.783 v 0 c -0.013,-0.183 0.023,-0.459 0.275,-0.734 v 0 c 0.192,-0.211 0.436,-0.332 0.709,-0.352 v 0 c 0.639,-0.047 1.323,0.424 2.153,1.48 v 0 c 0.775,0.984 1.179,1.865 1.24,2.692 v 0 c 0.04,0.561 -0.064,1.025 -0.31,1.377 v 0 c -0.265,0.379 -0.667,0.599 -1.166,0.636 v 0 c -0.05,0.003 -0.099,0.005 -0.147,0.005 v 0 c -0.489,0 -0.949,-0.172 -1.375,-0.515" />
            </g>
          </g>
        </g>
      </g>
      <g
         id="g1760"
         transform="matrix(1.2889909,0,0,-1.2889909,-67.329494,394.40332)">
        <g
           clip-path="url(#clipPath1766)"
           id="g1762">
          <g
             id="g1768">
            <g
               id="g1770">
              <path
                 inkscape:connector-curvature="0"
                 id="path1780"
                 style="fill:url(#linearGradient1778);stroke:none"
                 d="m 217.352,243.184 c -0.112,-0.024 -0.248,-0.054 -0.409,-0.09 v 0 c -0.16,-0.037 -0.349,-0.082 -0.574,-0.135 v 0 c -0.208,-0.05 -0.46,-0.105 -0.764,-0.164 v 0 l -0.833,-0.159 c -0.071,-0.014 -0.558,-0.132 -0.736,-0.126 v 0 c -0.064,0.002 -0.52,-0.073 -1.008,-0.148 v 0 c -0.548,-0.084 -1.137,-0.168 -1.254,-0.143 v 0 h -1.162 c -0.198,0 -0.387,-0.066 -0.544,-0.19 v 0 c -0.125,-0.098 -0.229,-0.22 -0.304,-0.36 v 0 c -0.067,-0.117 -0.117,-0.24 -0.155,-0.366 v 0 c -0.037,-0.133 -0.056,-0.247 -0.056,-0.349 v 0 c 0,-0.254 0.079,-0.483 0.236,-0.677 v 0 c 0.129,-0.162 0.295,-0.297 0.491,-0.405 v 0 c 0.175,-0.097 0.372,-0.173 0.585,-0.228 v 0 c 0.031,-0.008 0.063,-0.015 0.094,-0.023 v 0 c -0.001,-0.002 0.961,-0.022 1.439,0.016 v 0 c 0.414,0.034 1.075,0.117 1.682,0.227 v 0 c 0.162,0.028 0.356,0.071 0.58,0.126 v 0 c 0.215,0.053 0.478,0.118 0.781,0.198 v 0 c 0.204,0.053 0.411,0.104 0.627,0.157 v 0 c 0.216,0.051 0.424,0.103 0.623,0.148 v 0 c 0.202,0.046 0.387,0.088 0.557,0.128 v 0 c 0.162,0.038 0.294,0.068 0.401,0.086 v 0 c 0.155,0.033 0.312,0.086 0.464,0.155 v 0 c 0.168,0.074 0.321,0.172 0.454,0.291 v 0 c 0.138,0.125 0.253,0.274 0.339,0.445 v 0 c 0.095,0.184 0.144,0.394 0.144,0.623 v 0 c 0,0.213 -0.056,0.396 -0.166,0.549 v 0 c -0.095,0.131 -0.22,0.235 -0.368,0.306 v 0 c -0.121,0.058 -0.26,0.099 -0.414,0.122 v 0 c -0.129,0.021 -0.261,0.031 -0.388,0.031 v 0 c -0.103,0 -0.224,-0.015 -0.362,-0.045" />
            </g>
          </g>
        </g>
      </g>
    </g>
  </g>
</svg>
