<svg xmlns="http://www.w3.org/2000/svg" width="400" height="84.693"><path d="M229.554.004c-7.65-.27-15.76 13.565-10.22 50.317-1.336 5.318-11.247 7.92-13.29 12.298.443 3.737 3.538 4.852 7.914 1.107 2.124-1.913 5.24-4.925 7.244-6.09 0 1.203 6.296 8.074 7.452 8.074 2.915 1.828 11.746 2.11 14.534 0 4.297-3.207 6.722-8.933 10.52-14.974.6-1.333 2.388-1.414 2.815 0l10.913 15.458c1.16 1.287 2.97.895 3.506 0l9.69-19.357c.446-.643 1.102-.626 1.384 0l12.943 17.05c1.384 1.237 3.475 1.317 4.52 0l11.167-14.973c.56-.464.755-.338.877.507 4.393 15.69 13.783 17.523 26.254 10.914 1.112-.378 1.04 2.875-.184 3.345-11.675 29.705 28.587 29.14 14.12-9.552-.97-.03-.825-1.675 0-1.684l7.635-7.73c.266-.356.574-.59.853-.622-.002.123 0 .246 0 .37 0 10.615 8.896 19.217 19.887 19.217 10.99 0 19.91-8.603 19.91-19.22 0-10.615-8.92-19.217-19.91-19.217-7.292 0-13.657 3.787-17.118 9.436l-2.17 1.36-10.612 10.544c-.71 1.147-1.216 1.163-1.822 0l-7.152-20.602c-6.308-.435-20.296 1.55-27.362 10.52L303.68 49.86c-.564 1.047-1.28.854-1.5-.023L288.084 30.41c-.9-1.557-4.326-1.443-5.468 0L274.08 48.57c-1.516 1.9-2.466 1.794-3.322-.23l-9.413-14.882c-1.628-3.096-2.837-3.288-4.66 0-5.815 10.588-10.127 18.784-15.942 22.356-1.378 1.46-3.854 1.187-5.422 0-2.313-1.14-5.115-5.706-4.936-8.605 16.97-25.996 8.402-46.876-.83-47.203zM26.577 3.626L11.65 6.418l-1.037 6.552-10.544.184v.14H0v9.204h.07v.254h9.435C9.733 38.46 9.062 70.092 26.6 70.74c11.503-.146 12.093-8.41 20.35-19.634L59.867 67.3c1.478 1.766 3.653 1.58 5.284 0l10.612-14.21c1.152-.488 1.344-.52 2.7 0l10.82 14.21c2.01 1.773 3.558 1.86 5.214 0l8.997-14.28c.498-.62 1.522-.67 2.146 0l12.205 14.58c.908 1.01 2.45.797 3.345 0l11.605-10.312c1.034-.92.993-1.076 1.57 0 4.66 14.44 13.503 16.033 26.645 13.45.063-1.76.523-2.36 2.17-.76l.968 1.2 11.074-5.077-10.52-32.274c-11.643-3.438-24.022 3.507-31.1 15.918l-6.552 6.137c-.954 1.244-2.31 1.055-2.953 0l-14.765-22.77-12.597 21.272L84.3 39.04c-1.427-2.066-3.376-1.914-4.52 0L66.95 56.712 54.056 36.986c-1.083-1.506-2.26-1.328-3.253 0-7.355 8.944-9.217 21.437-21.34 24.71-10.49-.666-5.42-34.707-5.307-40.006l69.927-2.214V10.8l-68.866 1.8zM232.3 16.892c1.946.1 2.56 7.11-3.738 23.093-2.305-14.072 1.325-22.694 3.552-23.07.066-.01.122-.027.185-.023zM52.693 22.544c-2.447 0-4.43 2.443-4.43 5.445 0 3 1.983 5.443 4.43 5.443 2.446 0 4.43-2.442 4.43-5.444 0-3.003-1.984-5.446-4.43-5.446zm279.04 10.728l7.244 20.625c-17.938 8.34-19.733-14.564-7.244-20.625zm45.103.254c3.33.046 7.24 3.698 9.274 8.974 2.327 6.03 1.323 11.88-2.236 13.058-3.56 1.178-8.333-2.76-10.66-8.79-2.325-6.03-1.32-11.857 2.24-13.035.444-.147.907-.214 1.383-.207zm-223.97 8.26c2.767 1.933 6.19 16.594 4.706 19.632-14.89.833-18.394-13.797-4.706-19.633zm189.895 22.747c.076-.007.155-.012.23 0 1.21.182 1.823 2.703 1.385 5.606-.44 2.9-1.767 5.095-2.977 4.913-1.21-.183-1.845-2.68-1.407-5.583.41-2.72 1.624-4.835 2.77-4.937z"/></svg>