<svg xmlns="http://www.w3.org/2000/svg" width="400" height="243.801"><defs><linearGradient x2="1" gradientUnits="userSpaceOnUse" gradientTransform="matrix(0 -220.03 220.03 0 256.3 194.38)" id="a"><stop offset="0" stop-color="#c5cdd2"/><stop offset=".558" stop-color="#fff"/><stop offset="1" stop-color="#c5cdd2"/></linearGradient></defs><path d="M33.27 243.8h341.167c12.12 0 21.946-9.834 21.946-21.95v-29.227H11.327v29.227c0 12.116 9.828 21.95 21.944 21.95" fill="#f1491c"/><path d="M237.08 96.917l-41.75-68.75h34.686l22.606 40.026 22.76-40.026h34.055l-41.75 68.27v41.61H237.08v-41.13M350.56 94.725L338.316 63.48l-12.4 31.245h24.646zM323.877 27.38h29.35L400 138.042h-32.648l-8.003-19.62h-42.377l-7.85 19.62h-32.02L323.876 27.38" fill="#017aaf"/><path d="M228.945 179.628h7.967v-7.87h-7.967v7.87zM240.063 166.592v-.098c0-7.527 5.76-13.726 13.83-13.726 4.966 0 8.065 1.676 10.525 4.426l-4.574 4.92c-1.674-1.772-3.35-2.904-6.01-2.904-3.735 0-6.39 3.3-6.39 7.18v.104c0 4.038 2.61 7.276 6.688 7.276 2.51 0 4.237-1.073 6.054-2.798l4.38 4.428c-2.563 2.8-5.508 4.824-10.77 4.824-7.923 0-13.733-6.105-13.733-13.632M287.594 166.592v-.098c0-3.887-2.808-7.284-6.943-7.284-4.276 0-6.834 3.3-6.834 7.18v.104c0 3.89 2.802 7.276 6.932 7.276 4.283 0 6.846-3.296 6.846-7.178m-21.16 0v-.098c0-7.58 6.1-13.726 14.314-13.726 8.173 0 14.217 6.048 14.217 13.623v.104c0 7.57-6.1 13.73-14.314 13.73-8.16 0-14.216-6.054-14.216-13.632M299.396 153.265h7.478v3.737c1.726-2.216 3.987-4.234 7.775-4.234 3.44 0 6.048 1.527 7.42 4.18 2.32-2.705 5.076-4.18 8.658-4.18 5.565 0 8.908 3.35 8.908 9.7v17.162h-7.472v-14.705c0-3.546-1.578-5.37-4.38-5.37-2.803 0-4.53 1.824-4.53 5.37v14.705h-7.477v-14.705c0-3.546-1.572-5.37-4.375-5.37-2.802 0-4.528 1.824-4.528 5.37v14.705h-7.478v-26.365M344.854 179.628h7.97v-7.87h-7.97v7.87zM358.24 153.265h7.477v3.737c1.72-2.216 3.93-4.234 7.724-4.234 5.662 0 8.954 3.745 8.954 9.79v17.072h-7.484v-14.705c0-3.546-1.67-5.37-4.517-5.37-2.86 0-4.676 1.824-4.676 5.37v14.705h-7.478v-26.365M388.25 153.265h7.478v26.365h-7.478v-26.365zm-.2-9.55h7.872v6.644h-7.872v-6.645M60.244 29.246h7.576l4.23 15.984 4.97-16.082h6.443l5.015 16.13 4.332-16.032h7.43L92.024 55.81h-6.74l-5.068-16.194L75.05 55.81h-6.69l-8.116-26.564M102.108 29.246h7.578l4.23 15.984 4.97-16.082h6.443l5.016 16.13 4.33-16.032h7.43L133.89 55.81h-6.736l-5.07-16.194-5.163 16.193h-6.693l-8.12-26.564M143.98 29.246h7.574l4.23 15.984 4.97-16.082h6.443l5.013 16.13 4.334-16.032h7.427L175.76 55.81h-6.738l-5.07-16.194-5.163 16.193h-6.692l-8.116-26.564M184.763 55.62h7.967v-7.876h-7.967v7.876z" fill="#8f8b8d"/><path d="M231.354 0l21.12 37.394L273.73 0h-42.376" fill="#f1491c"/><path d="M47.318 27.95H14.61v35.273H0V90.9h14.61v49.68c0 24.73 10.683 35.76 34.623 35.76 10.157 0 18.562-2.115 26.394-6.658v-25.64c-5.015 2.455-10.43 3.7-16.124 3.7-8.198 0-12.185-4.21-12.185-12.866V90.9h28.767V63.223H47.318V27.95M148.315 147.057c-14.188 0-22-9.193-22-25.878V63.222h-32.71v68.91c0 27.824 15.157 44.436 40.552 44.436 17.702 0 27.652-9.736 35.062-19.254l1.776-2.296v19.27h32.71V63.223h-32.71v57.956c0 16.44-8.264 25.877-22.68 25.877" fill="#017aaf"/><path d="M31.086 221.896h9.138v-4.65h-9.138v4.65zM60.658 218.583v-.055c0-2.813-2.03-5.265-5.013-5.265-2.95 0-4.926 2.394-4.926 5.21v.055c0 2.814 2.035 5.262 4.985 5.262 2.975 0 4.953-2.4 4.953-5.207m-15.48 0v-.055c0-5.596 4.51-10.137 10.527-10.137 6.01 0 10.464 4.482 10.464 10.082v.056c0 5.593-4.51 10.134-10.525 10.134-6.014 0-10.468-4.485-10.468-10.08M68.427 208.778H84.02v4.742H73.826v3.31h9.218v4.483h-9.218v6.958h-5.4V208.78M85.913 208.778h15.677v4.597H91.255v2.952h9.355v4.252h-9.355v3.092h10.47v4.6H85.913v-19.494M112.89 218.136c1.837 0 2.895-.89 2.895-2.31v-.06c0-1.528-1.113-2.31-2.924-2.31h-3.534v4.68h3.564zm-8.97-9.358h9.22c2.978 0 5.04.783 6.348 2.116 1.138 1.12 1.727 2.626 1.727 4.546v.053c0 2.98-1.588 4.955-4.007 5.98l4.646 6.798h-6.24l-3.924-5.897h-2.364v5.898h-5.405V208.78M128.148 213.52H122.3v-4.742h17.09v4.742h-5.844v14.75h-5.398v-14.75M150.17 220.58l-2.17-5.537-2.202 5.536h4.372zm-4.737-11.94h5.204l8.3 19.63h-5.788l-1.425-3.477h-7.515l-1.39 3.478h-5.68l8.293-19.63M158.52 225.376l3.004-3.593c1.92 1.535 4.067 2.338 6.323 2.338 1.446 0 2.227-.5 2.227-1.334v-.053c0-.812-.638-1.26-3.287-1.867-4.146-.945-7.347-2.12-7.347-6.123v-.05c0-3.623 2.87-6.242 7.547-6.242 3.314 0 5.895.884 8.02 2.586l-2.706 3.814c-1.782-1.246-3.724-1.918-5.45-1.918-1.316 0-1.954.55-1.954 1.246v.06c0 .892.672 1.284 3.372 1.89 4.477.98 7.262 2.426 7.262 6.066v.06c0 3.983-3.144 6.35-7.877 6.35-3.452 0-6.738-1.085-9.133-3.228M184.746 208.778h15.68v4.597h-10.332v2.952h9.358v4.252h-9.358v3.092h10.47v4.6h-15.818v-19.494M208.024 218.36l-6.402-9.582h6.21l3.445 5.49 3.486-5.49h6.066l-6.41 9.52 6.688 9.973h-6.21l-3.73-5.877-3.76 5.878h-6.065l6.68-9.91" fill="#fff"/><path d="M220.44 218.583v-.055c0-5.676 4.376-10.137 10.276-10.137 3.982 0 6.54 1.68 8.27 4.068l-4.072 3.15c-1.11-1.395-2.392-2.29-4.255-2.29-2.73 0-4.654 2.31-4.654 5.154v.056c0 2.92 1.925 5.204 4.653 5.204 2.027 0 3.23-.946 4.397-2.372l4.06 2.908c-1.833 2.53-4.31 4.394-8.623 4.394-5.57 0-10.053-4.258-10.053-10.08M240.872 208.778h5.405v14.758h9.438v4.735h-14.843V208.78M256.666 219.727v-10.95h5.485v10.837c0 2.812 1.42 4.147 3.595 4.147 2.165 0 3.59-1.28 3.59-4.013v-10.97h5.484v10.81c0 6.29-3.595 9.044-9.132 9.044-5.542 0-9.022-2.805-9.022-8.903M275.98 225.376l3.014-3.593c1.92 1.535 4.06 2.338 6.322 2.338 1.44 0 2.227-.5 2.227-1.334v-.053c0-.812-.644-1.26-3.286-1.867-4.153-.945-7.354-2.12-7.354-6.123v-.05c0-3.623 2.865-6.242 7.547-6.242 3.31 0 5.9.884 8.02 2.586l-2.7 3.814c-1.783-1.246-3.736-1.918-5.462-1.918-1.31 0-1.948.55-1.948 1.246v.06c0 .892.666 1.284 3.366 1.89 4.488.98 7.268 2.426 7.268 6.066v.06c0 3.983-3.144 6.35-7.877 6.35-3.452 0-6.74-1.085-9.136-3.228M295.17 228.27h5.43V208.78h-5.43v19.493zM302.044 208.778h6.044l4.43 12.34 4.42-12.34h5.924l-7.9 19.633h-5.006l-7.912-19.632M332.893 220.58l-2.176-5.537-2.2 5.536h4.376zm-4.734-11.94h5.205l8.293 19.63h-5.787l-1.417-3.477h-7.518l-1.39 3.478h-5.68l8.294-19.63M341.248 225.376l3.002-3.593c1.925 1.535 4.067 2.338 6.322 2.338 1.447 0 2.227-.5 2.227-1.334v-.053c0-.812-.644-1.26-3.287-1.867-4.147-.945-7.348-2.12-7.348-6.123v-.05c0-3.623 2.865-6.242 7.547-6.242 3.31 0 5.9.884 8.014 2.586l-2.7 3.814c-1.777-1.246-3.73-1.918-5.456-1.918-1.31 0-1.948.55-1.948 1.246v.06c0 .892.666 1.284 3.372 1.89 4.477.98 7.267 2.426 7.267 6.066v.06c0 3.983-3.154 6.35-7.88 6.35-3.46 0-6.734-1.085-9.132-3.228M362.904 221.896h9.133v-4.65h-9.133v4.65z" fill="#fff"/></svg>