<svg xmlns="http://www.w3.org/2000/svg" width="400" height="82.944"><path d="M0 78.91h81.1V0H0v78.91zM6.334 4.87h68.194v69.17H6.334V4.87z"/><path d="M0 78.91h81.102V0H0v78.91zM6.334 4.87h68.194v69.17H6.334V4.87z"/><path d="M11.203 69.167h58.695V9.984H11.203v59.183zm5.114-53.578h48.225v47.976H16.317V15.59z"/><path d="M11.203 69.167h58.694V9.984H11.203v59.183zm5.112-53.58h48.227v47.978H16.315V15.588z"/><path d="M32.514 21.065v10.35h-5.48v-10.35h-5.237v15.832H37.87V21.065h-5.356z"/><path d="M32.513 21.065v10.352h-5.48V21.065h-5.236v15.833h16.075V21.065h-5.36zM43.536 20.946v16.07h15.83v-5.355h-10.35V26.18h10.35v-5.232h-15.83z"/><path d="M43.537 20.946v16.07h15.83V31.66H49.014V26.18h10.35v-5.232H43.538zM21.797 41.85v15.83h5.356V47.33h5.485v10.35h5.234V41.85H21.797z"/><path d="M21.797 41.85v15.83h5.355V47.33h5.485v10.35h5.235V41.85H21.797zM43.536 41.726v16.076h15.83v-5.36h-10.35v-5.48h10.35v-5.236h-15.83z"/><path d="M43.537 41.726V57.8h15.83v-5.358H49.014v-5.48h10.35v-5.236H43.538zM125.902 7.39V35.4c0 2.547-.578 4.512-1.727 5.9-1.154 1.387-2.74 2.08-4.764 2.08-2.043 0-3.642-.704-4.792-2.112-1.153-1.41-1.727-3.365-1.727-5.868V7.39h-11.738v27.36c0 2.253.366 4.84 1.09 7.764.452 1.813 1.29 3.578 2.51 5.29 1.218 1.71 2.563 3.03 4.035 3.958 1.472.928 3.305 1.55 5.493 1.863 2.188.314 4.21.47 6.062.47 3.205 0 5.95-.51 8.235-1.534 1.644-.73 3.214-1.997 4.71-3.804 1.5-1.803 2.6-3.912 3.3-6.323.7-2.41 1.05-4.973 1.05-7.684V7.39h-11.735zM145.432 7.39v45.923h30.12v-11.31h-18.358V7.39h-11.762z"/><path d="M145.432 7.39v45.924h30.122v-11.31h-18.36V7.39h-11.762zM175.526 7.39v11.337h12v34.586h11.764V18.727h11.997V7.39h-35.76z"/><path d="M175.526 7.39v11.337h12v34.587h11.763V18.727h11.997V7.39h-35.76zM216.766 7.39v45.923h11.816v-18.64h1.04c1.07 0 2.033.356 2.88 1.066.624.54 1.333 1.72 2.132 3.54l6.286 14.033h13.294l-5.7-13.307c-.274-.67-.825-1.622-1.644-2.853-.82-1.236-1.452-2.04-1.88-2.415-.642-.565-1.664-1.13-3.068-1.693 1.754-.48 3.128-1.084 4.134-1.82 1.578-1.146 2.816-2.645 3.715-4.495.9-1.847 1.354-4.042 1.354-6.593 0-2.923-.588-5.405-1.77-7.442-1.173-2.034-2.723-3.428-4.647-4.18-1.92-.754-4.7-1.125-8.333-1.125h-19.608zm11.816 9.268h5.17c2.144 0 3.608.4 4.387 1.192.773.795 1.167 1.93 1.167 3.416 0 1-.246 1.89-.74 2.663-.494.77-1.128 1.252-1.91 1.438-1.543.417-2.577.626-3.113.626h-4.962v-9.336z"/><path d="M268.47 7.39l-14.31 45.923h12.012l1.856-7.583h13.354l1.905 7.583h12.318L281.3 7.39h-12.83zm6.273 11.902l4.2 16.508h-8.358l4.158-16.508z"/><path d="M268.47 7.39l-14.31 45.924h12.012l1.856-7.582h13.353l1.907 7.582h12.316l-14.306-45.92h-12.83zm6.272 11.9l4.202 16.51h-8.36l4.158-16.51zM324.743 7.39v25.405L310.408 7.39h-10.984v45.923h11.062V28.098l14.257 25.215h11.09V7.39h-11.09z"/><path d="M324.742 7.39v25.404L310.407 7.39h-10.984v45.924h11.063V28.096l14.256 25.218h11.085V7.39h-11.085zM344.114 53.314h11.79V7.39h-11.79v45.924z"/><path d="M344.115 7.39v45.92h11.788V7.386h-11.79zM367.992 12.723c-3.347 4.082-5.024 9.92-5.024 17.518 0 5.697.953 10.372 2.86 14.025 1.9 3.653 4.165 6.204 6.79 7.653 2.62 1.452 6.002 2.177 10.14 2.177 3.41 0 6.213-.596 8.422-1.787 2.21-1.19 4.058-2.953 5.547-5.295 1.49-2.338 2.58-5.25 3.272-8.738l-10.307-3.76c-.52 2.904-1.36 5.116-2.508 6.642-1.152 1.524-2.855 2.287-5.105 2.287-2.322 0-4.12-.943-5.402-2.832-1.28-1.888-1.92-5.377-1.92-10.465 0-4.11.535-7.122 1.61-9.042 1.42-2.586 3.463-3.88 6.13-3.88 1.175 0 2.242.29 3.195.876.953.586 1.755 1.423 2.413 2.51.398.643.78 1.668 1.143 3.068l10.384-2.79c-1.33-4.845-3.366-8.436-6.116-10.772-2.743-2.344-6.51-3.51-11.307-3.51-6.128 0-10.866 2.04-14.218 6.117M103.742 74.9c.018.734.386 2.13 2.792 2.13 1.304 0 2.754-.314 2.754-1.71 0-1.027-.99-1.304-2.386-1.634l-1.414-.33c-2.133-.497-4.19-.975-4.19-3.876 0-1.47.79-4.06 5.07-4.06 4.042 0 5.124 2.646 5.143 4.26h-2.644c-.074-.586-.293-1.982-2.7-1.982-1.047 0-2.296.385-2.296 1.58 0 1.03.845 1.25 1.396 1.378l3.215.79c1.8.44 3.455 1.175 3.455 3.545 0 3.967-4.042 4.317-5.2 4.317-4.81 0-5.638-2.773-5.638-4.408h2.645zM119.692 73.1c-.148-1.58-1.158-2.058-1.984-2.058-1.212 0-1.854.77-2.002 2.057h3.986zm2.534 2.992c-.678 2.35-2.627 3.124-4.298 3.124-2.755 0-4.868-1.323-4.868-5.346 0-1.176.405-4.94 4.686-4.94 1.927 0 4.59.918 4.59 5.382v.457h-6.703c.073.735.22 2.387 2.295 2.387.716 0 1.452-.366 1.654-1.065h2.644zM124.03 69.186h2.462v1.69h.037c.53-.992 1.12-1.947 2.68-1.947.166 0 .332.018.497.035v2.61c-.22-.038-.497-.038-.735-.038-2.002 0-2.37 1.25-2.37 2.333v5.088h-2.57v-9.772zM136.63 78.958h-2.7l-3.507-9.77h2.865l2.02 7.198h.037l2.075-7.2h2.738l-3.527 9.772zM144.24 78.958h-2.57v-9.77h2.57v9.77zm0-10.93h-2.57v-2.39h2.57v2.39zM155.118 75.394c-.093 1.01-.88 3.82-4.464 3.82-3.673 0-4.517-2.81-4.517-4.867 0-3.16 1.375-5.418 4.683-5.418 1.542 0 4.077.696 4.316 3.746h-2.61c-.108-.643-.512-1.653-1.706-1.58-1.617 0-2.04 1.617-2.04 2.828 0 1.067.038 3.178 1.984 3.178 1.304 0 1.746-1.25 1.746-1.708h2.608zM159.567 78.958h-2.572v-9.77h2.572v9.77zm0-10.93h-2.572v-2.39h2.572v2.39zM166.458 71.096c-1.985 0-2.35 1.727-2.35 2.977 0 1.25.365 2.974 2.35 2.974 1.984 0 2.35-1.725 2.35-2.974 0-1.25-.366-2.977-2.35-2.977m0 8.12c-2.626 0-4.996-1.616-4.996-5.143 0-3.527 2.37-5.145 4.996-5.145 2.627 0 4.996 1.618 4.996 5.145 0 3.527-2.37 5.142-4.996 5.142M178.79 72.162c-.11-.626-.332-1.286-1.727-1.286-1.397 0-1.58.532-1.58.955 0 1.545 6.116.424 6.116 4.024 0 2.846-2.757 3.36-4.28 3.36-2.223 0-4.63-.77-4.702-3.377h2.644c0 .825.515 1.43 2.13 1.43 1.323 0 1.635-.642 1.635-1.008 0-1.636-6.06-.406-6.06-4.06 0-1.434.9-3.27 3.95-3.27 1.91 0 4.186.476 4.388 3.232h-2.516zM191.324 78.958h-2.755v-13.19h2.754v13.19zM202.53 78.958h-2.57v-5.933c0-.716-.036-1.93-1.67-1.93-1.142 0-2.023.772-2.023 2.262v5.6h-2.57v-9.77h2.46v1.43h.038c.35-.586 1.082-1.69 2.938-1.69 1.91 0 3.398 1.123 3.398 3.272v6.758zM207.81 69.186h1.597v1.837h-1.598v5.308c0 .572.017.79 1.064.79.165 0 .35-.017.533-.035v1.947c-.405.017-.81.036-1.212.036h-.332c-2.222 0-2.627-.845-2.627-2.113v-5.932h-1.322v-1.837h1.322V66.54h2.573v2.646zM216.903 73.1c-.146-1.58-1.158-2.058-1.984-2.058-1.212 0-1.856.77-2.003 2.057h3.986zm2.535 2.992c-.68 2.35-2.628 3.124-4.297 3.124-2.756 0-4.87-1.323-4.87-5.346 0-1.176.406-4.94 4.686-4.94 1.928 0 4.593.918 4.593 5.382v.457h-6.707c.074.735.22 2.387 2.298 2.387.715 0 1.45-.366 1.652-1.065h2.646zM225.487 76.846c1.746 0 2.185-1.487 2.185-2.83 0-1.58-.77-2.865-2.204-2.865-.955 0-2.02.7-2.02 2.977 0 1.25.513 2.72 2.04 2.72m4.74-7.66v9.257c0 1.69-.13 4.5-4.942 4.5-2.023 0-4.153-.864-4.263-2.94h2.793c.11.497.312.993 1.8.993 1.377 0 2.04-.66 2.04-2.24V77.58l-.04-.036c-.42.753-1.064 1.47-2.607 1.47-2.352 0-4.208-1.636-4.208-5.052 0-3.38 1.912-5.034 4.06-5.034 1.818 0 2.553 1.065 2.864 1.71h.04v-1.452h2.46zM232.472 69.186h2.462v1.69h.036c.533-.992 1.122-1.947 2.68-1.947.167 0 .333.018.5.035v2.61c-.222-.038-.5-.038-.737-.038-2 0-2.37 1.25-2.37 2.333v5.088h-2.57v-9.772zM245.04 74.2c-.257.203-.68.368-1.747.533-.955.166-1.743.404-1.743 1.47 0 .9.697 1.175 1.194 1.175 1.138 0 2.295-.734 2.295-1.93V74.2zm2.515 2.848c0 1.157.257 1.414.57 1.523v.387h-2.774c-.145-.46-.182-.606-.237-1.157-.588.607-1.414 1.415-3.16 1.415-1.47 0-2.975-.827-2.975-2.847 0-1.91 1.212-2.884 2.847-3.122l2.315-.35c.403-.054.9-.22.9-.77 0-1.085-1.03-1.14-1.69-1.14-1.286 0-1.506.79-1.58 1.358h-2.48c.294-2.993 2.368-3.416 4.372-3.416 1.377 0 3.893.423 3.893 2.83v5.29zM252.502 78.958h-2.572v-13.19h2.572v13.19zM260.825 73.1c-.147-1.58-1.158-2.058-1.985-2.058-1.21 0-1.854.77-2 2.057h3.985zm2.534 2.992c-.68 2.35-2.628 3.124-4.3 3.124-2.754 0-4.867-1.323-4.867-5.346 0-1.176.405-4.94 4.684-4.94 1.93 0 4.593.918 4.593 5.382v.457h-6.705c.074.735.22 2.387 2.296 2.387.717 0 1.453-.366 1.654-1.065h2.645zM270.713 72.162c-.11-.626-.33-1.286-1.726-1.286s-1.58.532-1.58.955c0 1.545 6.115.424 6.115 4.024 0 2.846-2.754 3.36-4.278 3.36-2.224 0-4.63-.77-4.703-3.377h2.646c0 .825.514 1.43 2.13 1.43 1.324 0 1.635-.642 1.635-1.008 0-1.636-6.06-.406-6.06-4.06 0-1.434.9-3.27 3.95-3.27 1.91 0 4.188.476 4.39 3.232h-2.517zM284.698 77.103c1.635 0 2.278-1.36 2.278-2.81 0-1.56-.44-3.142-2.204-3.142-1.635 0-2.186 1.453-2.186 2.996 0 1.157.46 2.957 2.112 2.957m4.74 1.856h-2.516v-1.233h-.038c-.625 1.102-1.764 1.49-2.83 1.49-2.9 0-4.113-2.573-4.113-5.255 0-3.38 1.91-5.033 4.06-5.033 1.653 0 2.425.898 2.828 1.524h.038V65.77h2.572v13.19zM297.6 73.1c-.148-1.58-1.158-2.058-1.985-2.058-1.21 0-1.855.77-2.002 2.057h3.986zm2.534 2.992c-.68 2.35-2.627 3.124-4.298 3.124-2.756 0-4.868-1.323-4.868-5.346 0-1.176.404-4.94 4.684-4.94 1.93 0 4.593.918 4.593 5.382v.457h-6.706c.073.735.22 2.387 2.296 2.387.715 0 1.45-.366 1.652-1.065h2.646zM309.234 74.9c.02.734.387 2.13 2.793 2.13 1.303 0 2.753-.314 2.753-1.71 0-1.027-.99-1.304-2.387-1.634l-1.414-.33c-2.133-.497-4.19-.975-4.19-3.876 0-1.47.79-4.06 5.072-4.06 4.04 0 5.123 2.646 5.142 4.26h-2.646c-.073-.586-.294-1.982-2.7-1.982-1.047 0-2.295.385-2.295 1.58 0 1.03.845 1.25 1.395 1.378l3.216.79c1.798.44 3.453 1.175 3.453 3.545 0 3.967-4.04 4.317-5.2 4.317-4.812 0-5.638-2.773-5.638-4.408h2.644zM325.184 73.1c-.146-1.58-1.158-2.058-1.985-2.058-1.21 0-1.855.77-2.002 2.057h3.986zm2.534 2.992c-.678 2.35-2.627 3.124-4.297 3.124-2.755 0-4.868-1.323-4.868-5.346 0-1.176.405-4.94 4.684-4.94 1.93 0 4.593.918 4.593 5.382v.457h-6.706c.074.735.22 2.387 2.297 2.387.716 0 1.45-.366 1.653-1.065h2.645zM333.767 76.846c1.746 0 2.186-1.487 2.186-2.83 0-1.58-.77-2.865-2.204-2.865-.956 0-2.02.7-2.02 2.977 0 1.25.512 2.72 2.037 2.72m4.74-7.66v9.257c0 1.69-.13 4.5-4.94 4.5-2.023 0-4.153-.864-4.263-2.94h2.793c.11.497.312.993 1.8.993 1.377 0 2.04-.66 2.04-2.24V77.58l-.04-.036c-.422.753-1.065 1.47-2.607 1.47-2.35 0-4.207-1.636-4.207-5.052 0-3.38 1.912-5.034 4.06-5.034 1.818 0 2.553 1.065 2.864 1.71h.038v-1.452h2.462zM349.587 78.958h-2.46V77.58h-.037c-.588 1.047-1.617 1.635-2.975 1.635-1.93 0-3.325-1.1-3.325-3.6v-6.428h2.572v6.06c0 1.507.88 1.8 1.67 1.8.846 0 1.984-.478 1.984-2.222v-5.638h2.57v9.77zM351.98 69.186h2.463v1.69h.036c.532-.992 1.12-1.947 2.68-1.947.166 0 .332.018.498.035v2.61c-.22-.038-.498-.038-.736-.038-2 0-2.37 1.25-2.37 2.333v5.088h-2.57v-9.772zM361.792 78.958h-2.57v-9.77h2.57v9.77zm0-10.93h-2.57v-2.39h2.57v2.39zM368.445 77.103c1.635 0 2.278-1.36 2.278-2.81 0-1.56-.442-3.142-2.204-3.142-1.636 0-2.188 1.453-2.188 2.996 0 1.157.46 2.957 2.113 2.957m4.74 1.856h-2.516v-1.233h-.04c-.624 1.102-1.763 1.49-2.828 1.49-2.902 0-4.114-2.573-4.114-5.255 0-3.38 1.91-5.033 4.06-5.033 1.652 0 2.423.898 2.827 1.524h.038V65.77h2.572v13.19zM380.886 74.2c-.257.203-.68.368-1.746.533-.956.166-1.744.404-1.744 1.47 0 .9.697 1.175 1.194 1.175 1.138 0 2.296-.734 2.296-1.93V74.2zm2.516 2.848c0 1.157.257 1.414.57 1.523v.387h-2.774c-.147-.46-.184-.606-.238-1.157-.59.607-1.414 1.415-3.16 1.415-1.47 0-2.976-.827-2.976-2.847 0-1.91 1.212-2.884 2.847-3.122l2.316-.35c.404-.054.9-.22.9-.77 0-1.085-1.03-1.14-1.69-1.14-1.285 0-1.505.79-1.58 1.358h-2.48c.294-2.993 2.37-3.416 4.373-3.416 1.376 0 3.892.423 3.892 2.83v5.29zM389.892 77.103c1.635 0 2.278-1.36 2.278-2.81 0-1.56-.442-3.142-2.204-3.142-1.635 0-2.187 1.453-2.187 2.996 0 1.157.458 2.957 2.112 2.957m4.74 1.856h-2.516v-1.233h-.04c-.623 1.102-1.762 1.49-2.827 1.49-2.903 0-4.115-2.573-4.115-5.255 0-3.38 1.91-5.033 4.06-5.033 1.652 0 2.423.898 2.827 1.524h.038V65.77h2.572v13.19z"/></svg>