<svg xmlns="http://www.w3.org/2000/svg" width="240.765" height="400"><defs><clipPath id="a"><path d="M603.89 228.694h90.903v151.024H603.89V228.694z"/></clipPath></defs><g clip-path="url(#a)" transform="matrix(2.65 0 0 -2.65 -1599.45 1005.72)"><path d="M637.058 375.533c-1.22-1.674-3.264-2.86-5.715-3.536 5.245-1.82 11.366-2.634 18.106-2.634 6.743 0 12.866.813 18.106 2.634-2.465.675-4.498 1.862-5.716 3.536-1.015-1.033-2.736-1.462-5.487-.987-.27 3.78-2.777 5.172-6.905 5.172-4.114 0-6.632-1.393-6.907-5.172-2.743-.475-4.464-.046-5.483.987" fill="#e62d2d" fill-rule="evenodd"/><path d="M649.448 371.79c4.813 0 8.718-.446 8.718-1 0-.548-3.905-.992-8.718-.992-4.816 0-8.72.444-8.72.992 0 .554 3.904 1 8.72 1" fill="#fff" fill-rule="evenodd"/><path d="M604.25 330.84v16.532h35.59v20.077h19.22V347.37h35.59V330.84h-35.59v-61.467h-19.22v61.467h-35.59z" fill="#363990" fill-rule="evenodd"/><path d="M626.68 362.147h45.524c2.266 0 4.12-1.88 4.12-4.167V296.1c0-2.304-1.886-4.17-4.12-4.17H656.51c-2.888-.113-5.305-1.143-7.062-3.45-1.755 2.307-4.167 3.337-7.055 3.45H626.68c-2.255 0-4.108 1.878-4.108 4.17v61.88c0 2.286 1.853 4.167 4.107 4.167" fill="#fff" fill-rule="evenodd"/><path d="M626.68 362.456c-2.432 0-4.416-2.008-4.416-4.476V296.1c0-2.47 1.984-4.483 4.415-4.483H642.392c2.957-.112 5.184-1.206 6.807-3.33l.248-.323.248.322c1.624 2.125 3.852 3.22 6.826 3.33H672.204c2.444 0 4.435 2.014 4.435 4.484v61.88c0 2.468-1.992 4.476-4.436 4.476H626.68zm0-.623h45.524c2.103 0 3.805-1.728 3.805-3.853V296.1c0-2.126-1.703-3.852-3.806-3.852H656.51c-3.138-.125-5.6-1.33-7.31-3.58h.496c-1.712 2.25-4.168 3.455-7.29 3.58H626.68c-2.09 0-3.796 1.726-3.796 3.852v61.88c0 2.125 1.707 3.853 3.795 3.853" fill="#1f1c1b" fill-rule="evenodd"/><path d="M633.495 352.944h31.907c1.59 0 2.885-1.446 2.885-3.217v-47.81c0-1.783-1.32-3.218-2.885-3.218h-11.006c-2.02-.09-3.716-.884-4.948-2.668-1.23 1.784-2.923 2.577-4.95 2.667H633.497c-1.588 0-2.886 1.45-2.886 3.218v47.81c0 1.77 1.298 3.216 2.885 3.216" fill="#fff" fill-rule="evenodd"/><path d="M633.495 353.135c-1.7 0-3.078-1.532-3.078-3.408v-47.81c0-1.878 1.38-3.407 3.078-3.407H644.5c2.09-.09 3.656-.94 4.793-2.58l.155-.227.15.226c1.15 1.64 2.716 2.49 4.81 2.58h10.995c1.696 0 3.075 1.53 3.075 3.408v47.81c0 1.875-1.38 3.407-3.075 3.407h-31.907zm0-.38h31.907c1.485 0 2.7-1.36 2.7-3.028v-47.81c0-1.67-1.215-3.028-2.7-3.028h-11.006c-2.22-.102-3.89-1-5.103-2.747h.306c-1.19 1.725-2.903 2.645-5.093 2.742-.008.004-.81.004-.81.004h-10.202c-1.49 0-2.704 1.356-2.704 3.028v47.81c0 1.667 1.215 3.027 2.705 3.027" fill="#1f1c1b" fill-rule="evenodd"/><path d="M604.295 269.476l7.256-1.204-6.128-6.617c11.58 2.34 17.068 2.09 21.768.753 5.832-1.646 9.84-4.805 22.187-4.85v-.004l.07.005.07-.006v.005c12.343.043 16.36 3.202 22.183 4.848 4.703 1.337 10.198 1.588 21.77-.753l-6.124 6.617 7.26 1.204c-7.357 4.018-14.644 4.176-21.837 2.84-7.84-1.468-15.31-5.346-23.322-5.486-8.012.14-15.48 4.018-23.316 5.486-7.2 1.336-14.482 1.178-21.837-2.84" fill="#fff" fill-rule="evenodd"/><path d="M604.38 269.314c6.398 3.49 13.3 4.38 21.72 2.814 3.068-.575 6.13-1.533 9.087-2.464 4.603-1.443 9.366-2.935 14.254-3.017 4.903.082 9.665 1.574 14.266 3.017 2.966.93 6.023 1.89 9.095 2.464 8.416 1.57 15.32.676 21.715-2.814-.07.042-.107.115-.097.2.012.073.073.14.158.15l-7.263-1.204c-.063-.012-.128-.058-.15-.123-.02-.067 0-.14.052-.193l6.116-6.622c-.053.064-.063.15-.02.218.034.07.118.113.198.096-11.876 2.41-17.326 2.04-21.847.757-1.525-.427-2.905-.955-4.36-1.514-4.067-1.546-8.672-3.3-17.782-3.33-.102-.004-.184-.09-.184-.19 0 .052.013.098.056.135.043.03.094.05.146.047l-.075.004c-.01.005-.02.005-.03 0l-.066-.004c.052.004.106-.017.143-.052.04-.038.062-.083.062-.135 0 .103-.086.19-.192.196-9.11.03-13.71 1.784-17.77 3.33-1.466.558-2.846 1.083-4.37 1.513-4.52 1.284-9.97 1.652-21.855-.757.09.017.165-.025.208-.096.037-.067.032-.154-.027-.218l6.13 6.622c.044.054.057.126.04.193-.024.065-.078.11-.147.123l-7.262 1.204c.078-.01.143-.077.16-.15.005-.085-.03-.158-.104-.2m-.118-.018l7.26-1.205c-.068.01-.125.06-.148.125-.026.062-.008.14.047.187l-6.134-6.623c-.053-.062-.065-.15-.026-.216.037-.075.122-.11.2-.095 11.807 2.386 17.207 2.03 21.68.76 1.504-.427 2.874-.95 4.33-1.5 4.097-1.562 8.73-3.327 17.908-3.36-.105.002-.19.09-.19.19 0-.053.03-.108.064-.144.04-.036.093-.053.146-.05l.063.006c0-.003-.02-.003-.027 0l.07-.007c.052-.002.104.015.14.05.04.037.064.087.064.14 0-.105-.084-.183-.19-.186 9.175.033 13.818 1.798 17.914 3.36 1.455.556 2.82 1.08 4.328 1.5 4.472 1.27 9.87 1.626 21.68-.76.08-.017.155.02.198.094.04.066.03.154-.03.215l-6.124 6.622c.046-.047.064-.125.046-.187-.026-.065-.087-.115-.153-.124l7.262 1.206c.08.01.14.075.15.152.02.083-.02.158-.092.195-6.476 3.537-13.46 4.445-21.97 2.853-3.08-.57-6.158-1.535-9.134-2.473-4.57-1.44-9.31-2.918-14.15-3-4.826.082-9.567 1.568-14.136 3-2.978.938-6.048 1.903-9.133 2.473-8.512 1.588-15.494.684-21.966-2.853-.075-.037-.11-.112-.098-.195.013-.077.08-.142.156-.152" fill="#1f1c1b" fill-rule="evenodd"/><path d="M632.268 317.37l35.505 13.076V292.49l-20.668 6.05-14.837 18.83z" fill="#25201f" fill-rule="evenodd"/><path d="M632.784 318.416l35.503 13.075v-37.95l-20.664 6.05-14.84 18.826z" fill="#32a846" fill-rule="evenodd"/><path d="M632.54 318.22l14.836-18.82.064-.08.09-.03 20.665-6.054.404-.118V331.94l-.423-.154-35.503-13.08-.403-.146.27-.34zm.35-.1l35.508 13.078-.426.292v-37.95l.403.3-20.667 6.052.16-.105-14.833 18.82-.146-.488z" fill="#25201f" fill-rule="evenodd"/><path d="M642.738 311.644c-.222-.01-1.472.09-1.576-.165-.077-.203.04-1.262.165-1.436.154-.196.46-.202.668-.335.175-.11.334-.262.505-.39.36-.26.87-.5 1.143-.87.117-.152.053-.4.196-.532.137-.132.375-.132.564-.168.41-.076.812-.087 1.2.098.16.085.303.223.454.334.288.22.656.8.45 1.19-.195.356-.28.613-.64.82-.232.137-.48.22-.723.34-.246.127-.518.218-.74.387-.216.166-.293.5-.566.675-.207.138-.875.06-1.102.05" fill="#2c3482" fill-rule="evenodd"/><path d="M642.743 311.524c.04.005.077.01.13.01.23.02.76.06.9-.04.126-.08.207-.206.29-.337.08-.12.157-.242.275-.332.16-.127.342-.21.52-.29.078-.036.16-.073.23-.11.103-.05.203-.09.3-.138.148-.058.29-.12.417-.196.275-.16.376-.345.52-.62l.076-.155c.17-.31-.135-.83-.414-1.04-.053-.036-.104-.082-.158-.124-.094-.08-.182-.147-.28-.2-.305-.144-.66-.175-1.117-.086-.04.008-.095.015-.143.022-.15.015-.29.035-.372.117-.044.046-.052.122-.07.21-.015.1-.036.214-.11.314-.205.265-.514.468-.813.658-.127.08-.25.155-.352.232-.07.045-.138.105-.197.158-.1.08-.205.163-.31.23-.104.063-.204.1-.308.13-.136.05-.26.09-.332.18-.096.13-.22 1.157-.152 1.316l-.004-.005c.044.065.294.132 1.24.104.11 0 .192-.006.237-.006m-.01.236c-.044 0-.125 0-.224.005-.866.023-1.358-.006-1.458-.24-.103-.25.033-1.345.185-1.552.11-.15.285-.21.444-.256.095-.03.182-.063.256-.105.097-.062.19-.14.283-.217.063-.055.14-.116.212-.17.11-.082.24-.157.363-.238.286-.182.575-.37.758-.604.036-.048.05-.122.057-.202.023-.116.043-.25.143-.35.146-.126.332-.152.503-.174.046-.01.093-.015.133-.02.5-.097.906-.066 1.267.106.118.058.225.144.32.227.05.045.1.08.147.118.353.26.726.892.48 1.34l-.073.15c-.143.277-.265.523-.605.717-.143.086-.3.148-.442.212-.095.04-.192.084-.292.125-.07.044-.152.08-.236.117-.17.08-.337.156-.475.26-.08.062-.147.164-.216.273-.087.14-.195.296-.365.407-.19.132-.617.114-1.042.08-.05-.005-.09-.01-.125-.01" fill="#25201f" fill-rule="evenodd"/><path d="M649.896 307.413c-.458.074-.864.1-1.313-.027-.395-.1-.855-.245-1.095-.607-.194-.27-.196-.82-.117-1.14.144-.608.632-.967 1.048-1.396.514-.523 1.032-1.043 1.595-1.497.466-.39.928-.732 1.48-.948.67-.27 1.395-.464 2.128-.434.57.018 1.08.177 1.454.624.47.55.212 1.362-.19 1.864-.243.304-.49.602-.767.873-.496.498-1.052.935-1.617 1.357-.42.3-.84.62-1.288.867-.42.236-.85.38-1.316.463" fill="#2c3482" fill-rule="evenodd"/><path d="M649.876 307.297c.46-.078.884-.227 1.276-.45.375-.206.745-.467 1.087-.726l.19-.132c.538-.4 1.106-.837 1.61-1.344.283-.285.538-.595.753-.863.38-.484.603-1.222.188-1.716-.316-.377-.758-.564-1.362-.58-.62-.03-1.296.113-2.078.426-.57.22-1.033.576-1.447.925-.56.453-1.074.96-1.587 1.487-.08.078-.158.153-.235.23-.343.334-.68.647-.79 1.118-.062.28-.062.8.098 1.038.223.32.63.46 1.035.558.383.11.75.12 1.263.03m.034.23c-.392.07-.842.115-1.36-.03-.45-.117-.902-.274-1.16-.65-.22-.31-.207-.91-.136-1.232.13-.535.496-.888.856-1.237.07-.07.15-.143.222-.218.526-.532 1.043-1.046 1.608-1.503.413-.345.915-.728 1.518-.97.805-.32 1.515-.465 2.172-.442.67.023 1.17.24 1.53.668.5.59.257 1.457-.18 2.015-.22.276-.486.59-.774.883-.51.518-1.095.964-1.637 1.37-.006 0-.185.13-.185.13-.36.263-.73.533-1.124.74-.405.234-.855.39-1.35.477" fill="#25201f" fill-rule="evenodd"/><path d="M643.85 361.61c3.613 0 6.54-2.962 6.54-6.62 0-3.655-2.927-6.62-6.54-6.62-3.606 0-6.538 2.965-6.538 6.62 0 3.658 2.932 6.62 6.538 6.62" fill="#eee71c" fill-rule="evenodd"/><path d="M643.85 361.8c-3.706 0-6.72-3.054-6.72-6.81 0-3.75 3.014-6.808 6.72-6.808 3.705 0 6.728 3.057 6.728 6.81 0 3.754-3.023 6.81-6.728 6.81m0-.382c3.504 0 6.353-2.88 6.353-6.43 0-3.546-2.85-6.427-6.353-6.427-3.5 0-6.345 2.88-6.345 6.428 0 3.55 2.844 6.43 6.345 6.43" fill="#25201f" fill-rule="evenodd"/><path d="M642.62 357.597l-.725-.28-.652-.427-.537-.585-.462-.386-.5-.63-.62-.618-.454-.51-.427-.463-.307-.697-.35-.782-.308-.657-.147-.395-.232-.542-.345-.585-.427-.504-.262-.39v-.39l-.39-.348-.426-.586-.536-.425-.31-.433-.34-.426-.388-.31-.113-.387-.076-.464-.078-.47-.115-.58-.11-.625-.158-.655-.35-.668-.26-.696v-.623l.15-.51.386-.542h.343l.384-.116h.43l.42-.038.42-.51.383-.657.462-.466-.117.853-.113.506v.653l.038.587h.54l.15-.347-.038-.82-.03-.74v-.738l-.048-.663-.194-.59-.032-.652.075-.508.306-.427v-.977l-.188-.307-.192-.696v-1.13l.192-.703.112-.776.312-.66.34-.657.235-.356v-.622l-.084-.467-.262.357-.27.734-.27.625-.23.775-.2.157-.068-.506.194-.578v-.59l.118-.504.074-.854v-1.092l.08-.935-.046-1.204-.034-.663.034-.894-.034-.737v-.546l.677-.422.43-.485.348-.52.206-.725.423-.654.29-.695.282-.65.603-.386 1.117-.42.716-.108.72.27.92.662.36.254.446.76.245.728.083.803-.012.75.22.215.327.33.02.58-.02 1.344v1.4l.028 1.9.25.526.236.607.127.705.038 1.717-.026 2.236-.046 3.21.405.534.894.68.546.538.088.808-.054 1.465.007.69.528-.02.682-.062s.233-.16.253-.248c.03-.093.327-.5.327-.5l.312-.146.538.068.655.14.09 1.464.066 1.374-.02 1.256.362.07.316-.184.544-.206.384-.186.455-.572.428-.252h.38l.395.137.334.214.516.22.41.305.23.228.2.115.064.152-.084.407-.393.078h-.626l-.406-.048-.32-.2-.383.06-.4.396-.344.408-.262.277-.42.113-.7.046-.57.02-.605.112-.703.14-.447.157-.86.17.026.48-.34.89-.388.843-.112.184V354.526l.112.916-.112.496-.448.485-.542.504-.636.32-.91.23-.74.112-.568.048-.476-.04z" fill="#fff" fill-rule="evenodd"/><path d="M644.05 353.238l-.298.054-.002-.124.177-.146.208-.253.236-.21.222-.008-.02.12-.02.208-.135.142-.13.097-.237.118zM644.997 354.562l.22-.322c.234-.257.074-.14.08-.497l-.003-.177-.003-.155.02-.22-.03-.11-.034-.165.048-.09h.39s.193 0 .213.012c.018.01.12 0 .13.04l.053.135.077.072.138.13.108.08.092.05.054.038-.114.112-.163.164-.233.392-.532.3-.51.212z" fill="#25201f" fill-rule="evenodd"/><path d="M644.953 354.474l.513-.218c0 .003 0 .003-.005.007l.526-.3c-.015.01-.026.02-.034.035l.236-.393c0-.007.01-.014.017-.02l.16-.16c0-.007.113-.114.113-.114-.024.028-.03.053-.03.083.002.025.016.056.04.074l-.057-.038c.012 0-.076-.053-.076-.053-.007-.003-.12-.085-.12-.085s0-.004-.005-.004l-.15-.13c0-.005-.066-.08-.066-.08-.005-.006-.01-.01-.015-.02-.016-.035-.06-.117-.07-.164.01.038.034.05.042.054-.008-.003-.04-.003-.046-.007-.025 0-.045 0-.068-.008-.008-.004-.02-.01-.02-.013.013.01.02.012.03.012-.03-.004-.116-.01-.184-.01h-.39c.042 0 .075-.018.087-.05l-.04.088c.01-.02.01-.04.01-.06l.025.162c0-.002 0-.005-.003-.01l.03.117c.008.01.008.02.008.036l-.023.218v-.013l.003.15.007.183c-.007.128.016.182.034.22.036.13.004.19-.137.344.002 0 .002 0 .01-.007l-.225.32c.02-.037.02-.085-.005-.12-.028-.035-.076-.046-.12-.026m-.043.03l.225-.32c.003-.005.008-.007.008-.007.076-.085.096-.116.1-.13v.008c0-.008-.004-.017-.01-.027-.014-.054-.042-.132-.037-.285l-.005-.175-.004-.15v-.014l.023-.22v.036l-.032-.114v-.008l-.033-.167c0-.02 0-.042.018-.065l.04-.087c.016-.032.054-.055.09-.055h.39c.23 0 .246.02.27.032-.002-.005-.012-.01-.02-.01-.007-.003-.003-.003-.01-.003h.018c.05.004.156.012.183.102.006.02.033.075.056.122-.004-.006-.015-.016-.023-.02l.072.073c-.003-.008.135.122.135.122l-.005-.006.104.073c-.01-.004.085.053.085.053.002 0 .055.037.055.037.02.02.04.05.04.074 0 .03-.01.06-.027.078l-.11.114c0-.005-.16.163-.16.163.006-.008.012-.014.012-.02l-.236.394c-.01.016-.026.03-.043.035l-.518.297c-.01 0-.013 0-.014.002l-.517.217c-.035.015-.086.005-.12-.028-.022-.038-.022-.087 0-.125M642.89 350.592l-.4-.32-.097-.502v-.76l-.02-.232.176-.016.28.037.108.124.218.068.274-.042.08-.094.073-.1.098-.08.16-.107.186-.028h.163l-.014 2.01-.117-.118h-.364l-.805.158z" fill="#25201f" fill-rule="evenodd"/><path d="M642.87 350.496l.808-.16h.381c.032 0 .054.006.073.03l.11.117c-.028-.03-.067-.04-.108-.025-.033.015-.066.053-.066.094l.022-2.01c0 .027.01.058.03.074.013.02.042.027.067.027h-.164.01l-.186.023c.017 0 .032-.008.048-.01l-.163.103c0-.004.005-.008.01-.008l-.092.083c.007-.005.007-.006.012-.016l-.074.1c-.002 0-.08.092-.08.092-.02.02-.038.035-.067.04l-.273.038c-.014.006-.028 0-.036 0l-.227-.074c-.016-.004-.034-.014-.05-.024l-.102-.12c.01.014.04.03.062.03l-.283-.04h.024l-.18.018c.028-.004.053-.017.068-.035.02-.016.03-.047.02-.076l.024.232v.768-.02l.097.5c-.002-.024-.008-.046-.03-.06l.395.324c-.02-.018-.053-.026-.08-.018m-.047.174l-.394-.324c-.02-.01-.032-.032-.037-.06l-.097-.495v-.78.01l-.023-.23c-.008-.03 0-.056.023-.075.01-.018.04-.034.063-.034l.178-.017c.01 0 .02 0 .024.003l.283.038c.023.007.038.015.062.032l.104.12c-.014-.01-.024-.026-.045-.027l.223.064c-.018-.003-.032-.003-.046-.003l.273-.043c-.024.006-.046.02-.065.037l.082-.094c-.002.008.077-.093.077-.093s.002-.013.01-.016l.096-.078c0-.002.006-.002.006-.01l.158-.104c.012-.012.028-.016.046-.016l.184-.026h.179c.025 0 .053.01.07.027.016.022.032.05.032.076l-.018 2.004c0 .038-.026.076-.064.092-.042.012-.08.008-.108-.025l-.11-.117c.018.018.045.033.067.033l-.364-.004c.005 0 .013 0 .018-.002l-.805.16c-.032.003-.06 0-.085-.02M634.335 339.782l.096-.31v-.27l-.02-.32-.017-.395.11-.66.254-.457.213-.238.104-.38.15-.263.397-.074.135.05.012.446.225.607.028 1.07.003.762.047.793.034.28-.187.41-.508-.038-.078-.478.013-.77.146-.503.116-.792-.49.427-.297.575-.485.525z" fill="#25201f" fill-rule="evenodd"/><path d="M634.258 339.712l.48-.52c0 .004-.01.01-.012.02l.304-.576c.006-.01.01-.022.018-.03l.483-.426c.036-.025.075-.036.116-.014.035.02.054.064.05.104l-.098.788c-.003.01-.003.015-.003.018l-.15.505c.004-.01.004-.018.004-.024l-.016.766v-.02l.077.483c-.01-.05-.05-.085-.087-.086l.502.034c-.04 0-.082.022-.103.06l.197-.416c-.01.02-.02.037-.01.057l-.038-.28-.05-.794-.006-.77-.03-1.067c0 .016.007.023.01.03l-.23-.606c-.004-.013-.004-.024-.004-.032l-.01-.446c0 .04.028.076.062.09l-.126-.044c.017.003.033.007.052.003l-.404.07c.032-.005.06-.028.073-.052l-.15.264c.006-.007.007-.02.007-.027l-.1.38c0 .018-.01.033-.02.044l-.214.237c.005-.003.005-.013.013-.02l-.26.46c.01-.013.01-.02.01-.03l-.107.655v-.022l.01.398.03.318v.276c0 .007-.007.02-.007.026l-.09.31c.012-.042-.006-.09-.047-.113-.043-.025-.09-.014-.128.017m-.017.037l.092-.307c-.005.008-.005.018-.005.03v-.27l-.028-.314-.01-.4c0-.007 0-.01.006-.023l.1-.653c.01-.015.012-.022.012-.035l.262-.46c.002-.006.007-.01.01-.015l.215-.24c-.008.01-.018.026-.02.04l.094-.38c.007-.01.015-.016.02-.022l.143-.263c.015-.027.037-.045.068-.05l.405-.07c.016-.002.04 0 .057.006l.125.05c.035.008.06.046.06.088l.017.448c0-.015 0-.027-.008-.034l.23.608.002.03.023 1.07.016.766.046.784.033.272c.006.02 0 .04-.01.055l-.186.413c-.017.044-.055.063-.096.063l-.513-.046c-.045 0-.08-.037-.09-.08l-.074-.48v-.016l.013-.767v-.027l.15-.503c-.002.007-.002.01-.002.016l.095-.792c-.003.04.02.08.054.098.04.02.086.014.115-.017l-.478.43c.007-.006.012-.014.022-.026l-.298.575c-.008.008-.013.013-.016.024l-.484.52c-.03.033-.083.044-.12.018-.042-.026-.063-.07-.047-.12" fill="#25201f" fill-rule="evenodd"/><path d="M642.635 357.404c.588.053 1.094-.02 1.685-.104l.07-.007h-.03c1.008-.254 2.26-.798 2.507-1.893v.063l-.11-.917c0-.007-.004-.017-.004-.02v-6.454c0-.01.005-.024.01-.04l.054-.265c.007-.018.007-.038.014-.056l.442-.765c-.003.014-.01.02-.013.03l.333-.887c-.003.018-.016.046-.004.074l-.028-.48c-.005-.095.064-.18.157-.196l.858-.164c-.007.007-.016.007-.03.01l.456-.16c.002 0 .01-.005.024-.005l.702-.137.605-.12c-.054.012-.097.045-.125.09-.025.05-.036.105-.018.153l-.122-.38c-.013-.01-.013-.03-.016-.04l-.053-.567v-.04l.072-.652.02-1.23-.058-1.368-.094-1.46c.005.086.07.157.153.176l-.66-.14c.015 0-.52-.07-.52-.07.027.007.068 0 .093-.01l-.3.136c.025-.01.048-.03.068-.056-.128.176-.276.4-.304.45 0-.003.005-.012.005-.018-.02.106-.133.234-.33.36-.024.02-.055.03-.086.035l-.684.058-.532.022c-.05 0-.097-.014-.137-.052-.04-.032-.056-.08-.056-.134l-.007-.686.044-1.476c0 .012 0 .02.002.035l-.1-.706c.002.035.015.067.035.094l-.53-.64c.01.01.022.02.03.025l-.886-.68c-.01-.012-.024-.024-.036-.03l-.41-.54c-.02-.028-.035-.07-.035-.113l.035-3.21.03-2.238-.038-1.71c0 .007 0 .018.008.025l-.128-.708c.003.01.003.026.013.037l-.245-.606c.007.01-.24-.515-.24-.515-.008-.023-.02-.048-.02-.074l-.022-1.905v-1.4l.014-1.345-.014-.575c0 .045.015.094.055.124l-.326-.325c0 .003-.22-.217-.22-.217-.04-.033-.058-.084-.058-.134l.005-.748v.02l-.072-.803c0 .012.002.03.01.045l-.25-.73c.005.006.01.02.018.028l-.448-.755c.013.02.03.042.053.057l-.358-.245c0-.007-.918-.672-.918-.672.015.008.025.016.044.022l-.72-.27c.022.014.06.02.09.014l-.717.106c.02-.002.026-.002.042-.008l-1.12.423c.012-.012.023-.015.036-.018l-.598.382c.03-.022.05-.047.067-.084l-.274.65-.3.69c-.004.01-.01.02-.01.03l-.426.66c.008-.015.02-.032.025-.052l-.206.717c-.008.026-.013.04-.026.057l-.355.523c-.002.006-.01.01-.016.02l-.422.482-.05.038-.67.416c.05-.03.09-.095.09-.156v.544l.032.728-.033.908.033.644.04 1.212v.023l-.073.937v1.074c0 .014-.077.87-.077.87 0 .005 0 .02-.008.025l-.117.503c.002-.012.002-.026.002-.04v.59c0 .018 0 .035-.005.06l-.186.572c.002-.025.01-.055 0-.082l.07.505c-.003-.064-.052-.12-.114-.148-.06-.025-.135-.016-.18.03l.194-.16c-.03.026-.054.062-.066.098l.232-.778c.004-.005.004-.016.01-.02l.264-.623.272-.733c.006-.018.015-.03.025-.048l.26-.35c.05-.06.13-.088.196-.07.075.017.123.073.145.154l.076.464c0 .012.01.022.01.034v.623c0 .04-.014.077-.037.106l-.23.35c.002-.004.01-.012.01-.012l-.342.656-.31.656c.006-.018.017-.036.017-.056l-.11.775c-.005.008-.005.017-.01.023l-.192.703c.002-.015.002-.033.002-.048v1.13c0-.018 0-.035-.002-.048l.19.696c-.004-.02-.01-.035-.02-.046l.192.308c.018.03.026.06.026.095v.979c0 .038-.008.075-.036.108l-.298.43.03-.082-.083.508c0-.015.008-.025 0-.04l.046.658c0-.016-.007-.034-.012-.048l.19.59c.002.012.01.027.01.04l.04.662v.754l.038.73.037.818c.002.03 0 .056-.015.085l-.152.347c-.03.07-.1.115-.17.115h-.54c-.1 0-.184-.08-.19-.176l-.038-.586c-.002-.016-.002-.67-.002-.67 0-.017.002-.028.006-.042l.115-.507c0 .016.11-.835.11-.835-.015.082.034.152.103.19.075.038.16.02.22-.038l-.46.47c.013-.014.023-.024.026-.038l-.382.656c-.008.012-.013.016-.02.025l-.42.51c-.03.035-.076.06-.134.07l-.447.03c-.852.052-1.205.068-1.5 1.045.01-.02.01-.038.01-.06 0 .56.192 1.04.402 1.555.138.334.276.673.36 1.046 0 .007.076.396.076.396l.235 1.292c.153.935.998 1.778 1.73 2.52.145.145.28.28.41.414-.005-.012.377.343.377.343.043.036.063.083.063.135 0 .426.188.647.474.972.055.06.112.122.167.192.012.007.014.013.02.026l.347.583.015.022.166.398c.167.393.338.796.52 1.19.007.004.35.787.35.787-.003-.01-.01-.017-.01-.024l.73 1.162c-.005-.005-.016-.018-.02-.025l.455.503c.224.23.45.47.66.704.83.89 1.616 1.736 2.766 2.172-.02-.01-.033-.01-.055-.016m-.084.367c-1.232-.465-2.08-1.38-2.9-2.264-.214-.237-.436-.473-.658-.704-.013-.007-.46-.51-.46-.51-.014-.006-.02-.02-.02-.026l-.734-1.16c-.003-.01-.013-.02-.013-.028l-.35-.777c-.184-.403-.358-.808-.522-1.2l-.17-.4c0 .007.005.012.015.02l-.35-.588c.004.01.01.02.02.03-.056-.066-.107-.126-.166-.19-.304-.344-.567-.647-.567-1.217 0 .057.02.106.06.145l-.39-.35c-.13-.142-.266-.284-.41-.422-.78-.783-1.658-1.67-1.837-2.722l-.235-1.282-.07-.39c-.078-.336-.214-.667-.345-.98-.208-.527-.426-1.07-.426-1.698 0-.016 0-.035.01-.055.366-1.22.983-1.252 1.83-1.306.14-.01.287-.013.445-.03-.05.005-.1.03-.13.065l.42-.512c0 .01-.012.02-.016.027l.386-.654c.003-.015.02-.03.03-.04l.456-.466c.06-.057.146-.073.22-.035.066.034.106.11.1.193l-.11.852c0 .018-.118.525-.118.525.003-.013.003-.027.003-.042v.654l.038.58c-.007-.102-.092-.175-.187-.175h.54c-.074 0-.146.042-.172.11l.15-.35c-.008.026-.013.053-.013.08l-.04-.814-.04-.738v-.75l-.036-.653c0 .02.002.03.005.044l-.187-.584c0-.014-.007-.03-.007-.045l-.043-.658v-.038l.08-.507c.005-.026.017-.056.037-.08l.307-.43c-.025.032-.04.07-.04.11v-.977c0 .038.01.075.026.102l-.188-.31c-.012-.016-.023-.035-.024-.048l-.187-.7c-.012-.016-.012-.034-.012-.05v-1.13c0-.02 0-.034.012-.048l.187-.702v.022l.113-.776c0-.02.01-.038.017-.053l.31-.664.346-.665c0-.007.01-.01.014-.015l.225-.353c-.02.03-.028.066-.028.104v-.622.03l-.083-.464c.014.072.068.13.147.146.07.02.143-.006.192-.068l-.268.353c.016-.015.02-.03.026-.05l-.268.743-.28.63c.006-.01.006-.014.012-.018l-.23.77c-.01.043-.036.074-.064.097l-.2.157c-.048.04-.12.048-.186.023-.06-.023-.103-.08-.116-.148l-.07-.503c-.004-.03 0-.062.007-.086l.194-.577c-.01.015-.012.034-.012.06v-.59c0-.016 0-.03.002-.04l.123-.51c-.005.008-.005.018-.005.027l.074-.855v-1.073l.072-.95v.02l-.035-1.208-.038-.658.037-.91-.038-.718v-.554c0-.068.028-.127.087-.165l.675-.42c-.012.01-.03.026-.037.04l.42-.482c-.002.006-.01.006-.014.013l.358-.52-.023.054.208-.716c.002-.02.01-.037.022-.052l.414-.663c0 .01-.01.018-.01.03l.29-.692.28-.65c.017-.036.046-.066.073-.085l.6-.386c.016-.006.024-.018.042-.02l1.11-.42c.02-.003.03-.006.04-.01l.72-.107c.028-.002.065 0 .093.01l.72.268c.013.01.03.017.046.027l.918.668.354.246c.02.015.04.034.054.062l.452.753c.003.015.01.027.02.037l.237.737c.004.01.004.026.014.038l.07.8v.022l-.007.747c0-.05-.02-.103-.056-.135l.225.213c0 .006.33.33.33.33.032.032.046.08.046.125l.03.587-.03 1.35v1.398l.033 1.9c0-.03-.003-.056-.016-.08l.243.524.245.615c.005.01.013.027.013.037l.125.71c.002.01.002.018.002.03l.037 1.717-.026 2.243-.04 3.21c.002-.042-.014-.085-.037-.12l.406.532c-.013-.01-.023-.024-.04-.033l.893.68c.007.006.017.017.027.03l.532.638c.02.027.03.06.04.093l.103.705c.003.008.003.023.003.035l-.05 1.467.003.683c0-.05-.017-.104-.055-.134-.036-.04-.082-.06-.14-.055l.53-.024c-.013 0 .668-.06.668-.06-.035.01-.06.014-.09.035.08-.052.166-.127.18-.157l-.003.025c.036-.116.217-.374.36-.574.02-.027.05-.045.075-.06l.31-.144c.026-.014.065-.02.098-.014l.54.07c.014 0 .674.14.674.14.08.016.138.09.148.17l.09 1.464.066 1.375-.022 1.274c0 .013-.08.668-.08.668v-.043l.062.56c0-.012 0-.022-.01-.035l.13.383c.018.05.01.107-.015.156-.028.042-.072.08-.126.088l-.606.117-.705.135c.01-.005.02-.005.022-.007l-.445.16c-.005 0-.024 0-.025.005l-.867.162c.095-.014.164-.102.158-.195l.02.484c0 .025 0 .05-.012.072l-.34.892c-.002.01-.007.02-.017.024l-.432.77c.014-.02.022-.04.026-.057l-.063.27c.003-.015.003-.036.003-.044V354.526v-.022l.113.917c0 .017 0 .042-.004.064-.233 1.01-1.192 1.768-2.778 2.175-.008.002-.013.002-.023.002l-.064.012c-.585.082-1.136.16-1.768.108-.017 0-.032-.004-.05-.01" fill="#282b2a"/><path d="M642.352 356.847l-2.13-2.346-.61-.673c-.02-.026-.036-.062-.045-.095l-.11-.642.184-.03.19-.03.112.638c-.015-.033-.025-.07-.05-.096l.612.678 2.13 2.345-.144.124-.138.127zM638.532 351.91l-.486-.918c-.005-.015-.28-.675-.28-.675v-.024l-.277-1.08c-.02-.09.02-.18.096-.215.084-.04.18-.02.235.053l.384.483-.033-.035c.4.303.55.577.755.96l.072.11c0 .006.36.758.36.758l-.168.082-.17.084-.363-.75c.005.007-.052-.104-.052-.104-.204-.367-.326-.587-.653-.837-.02-.01-.03-.02-.04-.032l-.39-.49c.06.072.156.093.233.052.082-.037.12-.124.104-.212l.265 1.086c0-.013 0-.02-.008-.028l.274.66c-.006-.017.468.902.468.902l-.168.084-.158.087z" fill="#25201f"/><path d="M635.917 348.55l.566.09c.02.004.037.01.05.02l.34.16c-.008-.007-.02-.012-.023-.013l.493.14c-.015-.006-.03-.008-.042-.008l.585.02c-.025 0-.048.004-.066.01l.607-.207 1.074-.298c.018-.006.038-.008.054-.008h.427c.08 0 .146.045.177.12l.107.27c.01.02.013.045.013.073v.71l.026.867v.413c0-.09-.06-.164-.146-.187l.41.096c.063.015.115.06.134.126l.206.64c.005.01.005.028.005.043l.04.615c0-.012 0-.027-.003-.045l.225.708c.005.01.008.015.008.023l.138.712c0-.013.138.493.138.493-.02-.042-.033-.07-.067-.097l.273.232c-.016-.006-.02-.014-.034-.02l.387.226c-.018-.01-.037-.018-.06-.02l.498.09c-.008-.003-.023-.003-.033-.003h1.287c.354-.015.618-.088.922-.172.164-.047.322-.09.513-.132-.066.012-.124.067-.14.137l.1-.4c-.005.016-.005.032-.005.048v-.873.03l-.082-.52c-.003-.017-.1-1.028-.1-1.028.013.095.085.164.174.17l-.534-.038c-.094-.005-.17-.083-.17-.18l-.037-.563c.008.036.02.066.04.097l-.193-.277c.052.074.15.1.233.064l-.65.29c-.086.04-.196.003-.24-.085-.05-.092-.012-.2.077-.25l.598-.333c-.048.027-.084.074-.092.136-.008.06.01.12.056.162l-.265-.262c.037.037.08.057.132.057h-.338c.017 0 .034-.005.053-.012l-.426.134c-.01.007-.02.007-.03.008l-.446.063c-.052.006-.108-.01-.152-.056l-.348-.355c-.025-.03-.046-.063-.054-.1l-.09-.5v-.77l.037-.25c-.018.094.046.187.14.21-.684-.172-1.472-.106-2.22.177l-.067-.175-.067-.175c.813-.313 1.68-.38 2.445-.194.094.023.158.116.14.212l-.04.252v-.03.704-.03l.095.503c-.01-.037-.03-.07-.054-.1l.35.36c-.044-.046-.104-.067-.16-.057l.438-.063c-.01.004-.02.004-.03.005l.43-.132c.014-.004.038-.007.055-.007h.337c.05 0 .096.016.132.053l.265.26c.033.044.055.1.055.157-.01.06-.044.112-.095.142l-.6.33c.077-.047.117-.154.065-.25-.04-.09-.148-.122-.237-.08l.64-.293c.085-.04.185-.01.234.065l.193.277c.018.032.032.065.032.1l.027.565c0-.1-.08-.174-.174-.18l.537.04c.09.003.163.078.173.166l.095 1.01.077.514c.01.01.01.023.01.03v.873c0 .015-.01.027-.01.043l-.094.4c-.023.07-.077.126-.143.14-.18.038-.342.08-.49.126-.32.087-.617.173-1.025.185H642.422c-.01 0-.024 0-.03-.004l-.502-.09c-.023-.004-.044-.012-.06-.02l-.393-.232c-.005-.002-.014-.013-.025-.015l-.268-.232c-.03-.026-.05-.06-.06-.097l-.135-.5c0-.012-.14-.723-.14-.723.002.01.002.013.01.02l-.23-.706c-.003-.015-.008-.03-.008-.043l-.05-.618c.006.013.006.026.013.042l-.204-.634c.022.058.078.105.137.122l-.407-.095c-.09-.02-.146-.098-.146-.18v-.407l-.022-.874v-.71c0 .02.004.044.01.07l-.105-.274c.03.074.095.12.174.12h-.426c.014 0 .034-.006.052-.007l-1.066.292c.012 0-.604.204-.604.204-.02.005-.04.01-.066.01l-.583-.023c-.018 0-.03-.004-.048-.005l-.492-.14c-.012-.003-.023-.007-.033-.008l-.342-.16c.014.006.035.01.05.013l-.567-.088.03-.19.03-.185z" fill="#25201f"/><path d="M643.44 356.192l-.557-.436c-.005-.01-.51-.452-.51-.452.005.006.017.01.02.016l-.51-.303-.043-.035-.467-.496.143-.13.13-.13.468.502c-.008-.014-.023-.025-.036-.036l.51.31c.01.003.02.012.027.02l.512.442c-.007-.004.548.43.548.43l-.123.148-.112.15zM646.08 355.656l.172-.472c.072-.256.163-.504.255-.745.085-.23.166-.447.234-.677-.01.04-.007.084.013.125l-.173-.384c.025.056.075.097.136.11l-.21-.042c.06.012.12-.006.167-.052l-.273.275c.008-.007.018-.017.02-.032l-.232.39c-.016.025-.036.05-.066.064l-.516.284c-.006.01-.03.014-.045.02l-.66.173-.05-.188-.044-.182.66-.17c-.015.008-.027.01-.04.02l.507-.285c-.02.013-.047.04-.064.07l.234-.39c.008-.015.018-.025.026-.033l.273-.276c.047-.05.11-.07.174-.058l.216.042c.057.015.108.056.132.11l.165.383c.02.04.023.085.016.127-.077.25-.166.485-.248.712-.09.23-.18.47-.245.716-.008.016-.167.49-.167.49l-.18-.063-.186-.064zM645.774 348.42v-.653l.002-.04c.207-1.082.12-1.618-.007-2.35-.06-.33-.122-.7-.167-1.173v-.368h.372v.35c.05.445.104.807.16 1.13.133.74.23 1.33.016 2.487 0-.014.003-.02.003-.036v.654h-.38zM637.088 347.8l.472-.283-.028.02.468-.408c.008 0 .494-.413.494-.413l.116.143.126.147-.492.408c0-.004-.463.407-.463.407-.015.012-.015.015-.03.02l-.464.283-.1-.158-.098-.166zM638.57 347.938l.6-.41c-.016.004-.022.01-.027.016l.577-.543c-.006.008-.015.018-.02.027.194-.275.312-.51.413-.72.28-.567.473-.865 1.48-.907l.003.186.01.187c-.83.034-.924.232-1.153.7-.104.21-.235.472-.452.775l-.02.026-.577.547c-.01.003-.018.015-.03.017l-.593.413-.107-.157-.103-.155zM637.024 346.57l.552-.46c-.013.01-.013.014-.02.023l.454-.496c-.017.01-.02.02-.028.037l.274-.522.215-.41.167.086.17.09-.216.414c-.002 0-.277.52-.277.52l-.024.037-.456.496c-.008.01-.012.01-.023.018l-.55.454-.117-.144-.12-.144zM634.8 346.245l.392-.344c-.008.008-.02.01-.022.018.065-.077.133-.148.194-.22.372-.415.615-.686.63-1.26.005-.1.014-.198.014-.307.03-.53.065-1.138-.242-1.485-.01-.01-.17-.227-.17-.227-.01-.005-.014-.01-.02-.02-.237-.413-.257-.858-.257-1.347 0-.017.02-.21.02-.21l.18.017.188.015-.016.198c0 .433.016.805.21 1.137-.005 0-.01-.014-.018-.017l.17.217c.405.455.364 1.17.333 1.74-.004.11-.015.212-.017.308-.02.697-.333 1.05-.724 1.494-.06.068-.125.137-.186.212-.008.007-.01.015-.02.017l-.392.347-.123-.14-.125-.142z" fill="#25201f"/><path d="M634.63 345.3c.48-.326.638-.628.83-1.012.122-.226.254-.477.467-.76l-.024.043.084-.197.172.077.174.074-.082.194-.026.04c-.195.256-.312.483-.435.702-.195.395-.39.768-.952 1.154l-.1-.158-.107-.155zM633.65 343.273c.714.5.998.332 1.565.004.184-.108.39-.23.633-.343l.06-.016.165-.016.023.184.026.187-.167.02c.018 0 .036-.01.054-.016-.24.107-.433.22-.61.323-.587.343-1.057.62-1.965-.018l.103-.155.11-.154z" fill="#25201f"/><path d="M635.236 343.545c-.765-.056-.9-.52-1.028-1.01-.035-.143-.08-.292-.14-.447-.008-.025-.008-.047-.008-.064 0-.255.048-.446.094-.632.028-.14.064-.276.075-.442v.024l-.048-1.143.184-.01.192-.006.048 1.14v.023c-.016.197-.053.353-.09.506-.042.17-.08.33-.08.54 0-.024-.006-.046-.016-.065.07.173.112.333.146.475.14.495.2.704.703.736l-.02.19-.014.185zM644.994 342.092l.125-.62c.002-.018.237-.774.237-.774-.008.015-.008.036-.008.054v-.44l.018-.418.022-.43v-.528.023l-.018-.22.187-.023.183-.023.026.223v.558l-.022.438-.023.41v.43c0 .02-.003.037-.008.055l-.233.755c0-.02-.127.605-.127.605l-.18-.038-.183-.038zM641.01 341.17l.13-.448c-.007.012.104-.51.104-.51l.182.044.185.035-.103.523c-.008.015-.138.46-.138.46l-.177-.054-.182-.05zM640.282 339.657c-.018-.264-.018-.547-.028-.845-.008-.77-.01-1.57-.234-2.187.02.067.083.112.152.122.074.005.148-.032.187-.095l-.413.71-.168-.088-.16-.093.41-.712c.034-.063.107-.1.175-.093.077.002.136.052.16.12.25.68.26 1.515.272 2.316 0 .295.003.568.017.828l-.183.01-.188.01zM638.194 340.154l.447-.278c-.023.018-.047.038-.063.064l.233-.403c-.006.014-.018.03-.02.047l.107-.456c0 .01-.006.02-.006.027l.048-.538.084-.717c0-.01 0-.017.003-.025l.15-.627c0 .004 0 .013-.005.02l.062-.493c0-.012 0-.022.01-.03l.11-.37.178.052.184.05-.11.374c0-.008 0-.02.003-.03l-.06.495c-.004.01-.004.01-.004.02l-.15.63c0-.01.004-.017.004-.024l-.088.714-.042.532c0 .01-.005.017-.005.032l-.11.452c-.003.018-.006.032-.013.048l-.233.41c-.016.026-.036.047-.064.065l-.447.285-.105-.164-.096-.16zM637.808 341.392c-.15-.728-.117-1.09-.084-1.517.023-.212.04-.46.04-.784h.377c0 .345-.023.598-.043.823-.033.41-.063.73.077 1.403l-.18.038-.186.038z" fill="#25201f"/><path d="M636.02 340.642l.49.072c.01.005.027.005.04.012l.572.213c.01 0 .017.003.024.006l.558.29c.008.008.555.32.555.32.435.193.696.193 1.21.193h1.106c.01 0 .02 0 .032.003l.047.006c.46.082.606.11.97.5.01.01.363.438.363.438.014.026.03.056.035.085l.1.486c-.008-.043-.027-.07-.056-.102l.247.23c.023.015.038.036.046.055l.13.286c.016.024.02.055.02.09l-.02.336c0-.047-.014-.094-.045-.134l.212.237c.023.027.04.066.05.106l.027.296c.007.075-.033.15-.1.183l-.18.1c.062-.032.097-.096.097-.166v.15c0 .085-.06.164-.144.185l-.217.048c-.042.015-.083.01-.12-.008l-.275-.12-.028-.02-.345-.24c.004.004.01.008.015.015l-.41-.23c.007.01.017.01.027.014l-.367-.13c-.005 0-.435-.162-.435-.162.018.005.036.006.053.006l-.54-.033-.42.01c.08-.006.15-.055.173-.13.025-.073 0-.154-.058-.206l.357.293c.013.007.02.014.03.025l.192.235c.03.037.043.086.043.138l-.023.24c0 .035-.02.07-.04.1l-.133.17c-.057.068-.16.092-.238.055l-.21-.112c-.01-.007-.02-.016-.035-.024l-.193-.168-.29-.298-.317-.325c.006.006.013.006.02.01l-.26-.21c-.006-.008-.342-.3-.342-.3-.01-.013-.013-.02-.022-.03l-.225-.28c.016.017.033.034.06.048l-.456-.254-.435-.228.036.013-.506-.143c.006.004.016.004.026.004l-.468-.06.026-.19.028-.188.465.068c.007 0 .016.004.025.004l.51.145c.013.004.03.005.037.014l.434.23.454.25c.024.014.04.032.062.05l.22.284c-.003-.004-.013-.014-.018-.023l.33.295c0-.004.266.218.266.218l.008.01.316.324.276.285c-.01-.007.18.164.18.164-.01-.015-.017-.02-.035-.03l.208.11c-.08-.044-.182-.02-.235.05l.135-.172c-.02.027-.033.062-.038.1l.02-.244c-.002.047.016.096.04.135l-.19-.233c.004.01.02.02.022.027l-.353-.294c-.063-.05-.083-.133-.062-.207.027-.075.096-.125.175-.125l.443-.013c.017.004.55.044.55.044.024 0 .037.003.058.01l.43.16c-.006 0 .362.127.362.127.01.006.015.008.028.013l.41.228c.008 0 .01.007.02.01l.34.243c-.004-.007-.02-.015-.024-.017l.265.12c-.04-.02-.075-.023-.12-.012l.22-.05c-.085.02-.144.094-.144.18v-.15c0-.07.04-.135.097-.17l.182-.092c-.064.033-.103.107-.095.182l-.03-.297c.005.042.022.08.048.11l-.218-.242c-.033-.033-.045-.08-.045-.132l.02-.344c-.002.032.005.065.016.094l-.132-.28c.012.023.024.044.05.058l-.255-.232c-.03-.025-.056-.06-.058-.1l-.095-.486c.005.028.018.056.036.078l-.35-.426c-.27-.29-.328-.304-.756-.375l-.052-.015c.013.007.025.007.038.007h-1.105c-.532 0-.86 0-1.375-.235-.02-.008-.572-.32-.572-.32.002.003-.552-.29-.552-.29.01.004.013.01.024.01l-.575-.214c.01.008.022.008.037.012l-.49-.075.025-.186.028-.188z" fill="#25201f"/><path d="M641.02 343.568l.448.3c-.01-.008.24.13.24.13.013.01.354.237.354.237 0 .005.178.13.178.13.012.01.023.016.033.027l.14.158c.014.01.093.122.093.122l-.146.113-.156.11-.077-.106c.008.013-.138-.15-.138-.15.01.016.02.025.027.03l-.17-.13c0 .006-.33-.224-.33-.224.005.012-.243-.13-.243-.13l-.464-.306.106-.16.105-.152zM640.666 342.925l.542.295c.002 0 .225.13.225.13l.266.195.243.194c.012 0 .184.157.184.157-.003-.006.146.117.146.117 0-.005.087.048.087.048l-.053.086-.052.087-.095-.06c-.01-.003-.16-.123-.16-.123-.01-.006-.185-.16-.185-.16l-.24-.19-.25-.185c.01.01-.217-.122-.217-.122.006 0-.54-.295-.54-.295l.05-.09.048-.085zM640.99 342.37l.324.212c.01 0 .013.01.023.017l.208.186c-.006-.003-.008-.01-.023-.015l.258.178.21.152c.01.004.02.014.027.02l.08.078-.14.133-.13.132-.075-.075c.005.008.015.01.023.02l-.215-.154-.25-.17c0-.007-.01-.012-.018-.016l-.207-.19c.008.004.013.013.028.02l-.327-.212.1-.16.104-.156zM643.744 353.576l.368-.093.387-.096c-.035.006-.065.024-.096.052l.095-.095.132.13.137.125-.09.1c-.025.026-.053.043-.09.052l-.39.095-.36.09-.05-.18-.046-.18zM636.513 340.44c.468-.396.448-1.303.425-2.17-.014-.63-.03-1.287.14-1.778.008-.018.015-.033.028-.052.327-.438.672-.603 1.068-.794.092-.038.184-.085.276-.133l.026-.012c.477-.16 1.025-.175 1.548-.19.2-.006.384-.014.558-.024-.097.008-.177.093-.177.194.003.1.085.176.182.182l-.458-.016c-.47-.016-.96-.03-1.44-.116l-.273-.045c-.084-.01-.143-.07-.16-.15-.07-.34-.07-.655-.07-.99v-.093h.383v.096c0 .31-.007.607.056.915-.02-.08-.074-.136-.15-.148l.275.042c.454.083.935.1 1.394.112l.464.016c.093 0 .17.084.18.187 0 .096-.08.18-.18.19-.182.014-.372.017-.57.022-.495.013-1.018.03-1.442.172.01-.005.015-.01.028-.01-.1.05-.197.096-.284.135-.385.184-.66.322-.935.687.018-.018.026-.035.028-.055-.146.43-.132 1.046-.12 1.64.027.962.054 1.952-.55 2.468l-.133-.142-.117-.14z" fill="#25201f"/><path d="M643.985 350.51l.04-5.467c.003-.755-.067-.88-.495-1.503-.057-.08-.12-.16-.187-.243-.15-.174-.3-.35-.378-.585-.058-.183-.038-.37-.02-.537.01-.098.02-.19.018-.276-.017-.174-.04-.3-.102-.392-.007-.024-.053-.054-.085-.08-.086-.057-.196-.136-.233-.276-.09-.355-.088-.713-.08-1.065l.003-.223v-1.438l-.044-.798c0 .015.006.03.012.04l-.16-.544c.01.018.013.034.027.056l-.346-.51c.003.008.004.017.004.02l-.526-.626-.348-.467c-.014-.01-.32-.483-.32-.483 0-.006-.268-.42-.268-.42-.012-.027-.025-.05-.025-.072l-.08-.428c-.008-.054.004-.11.043-.153.033-.04.08-.07.138-.07l1.003-.036c-.034 0-.065.013-.092.022.477-.27 1.082-.274 1.805-.01-.025-.007-.05-.012-.07-.012l.803-.04c.075-.003.146.04.18.108l.3.62.308.577c-.02-.037-.047-.062-.082-.08l.24.117-.09.168-.087.165-.234-.12c-.033-.01-.06-.04-.077-.076l-.312-.58c0-.008-.3-.627-.3-.627.03.068.094.11.173.1l-.81.042c-.02 0-.052-.004-.073-.01-.612-.227-1.112-.228-1.49-.014-.02.014-.05.023-.08.023l-1.002.037c.055-.002.11-.03.142-.07.03-.042.043-.1.038-.15l.08.428c-.01-.02-.018-.047-.03-.064l.272.42c0-.006.305.475.305.475-.017-.015.33.447.33.447 0-.013.532.612.532.612.003.006.003.01.01.015l.353.503c.005.02.018.04.02.06l.155.542c.004.016.006.03.006.043l.04.812v1.671c0 .33-.01.66.07.967v-.003c.005.015.057.046.083.067.067.05.152.11.203.21.078.14.123.31.138.54.013.115 0 .236-.014.35-.013.138-.028.268.01.373.054.17.178.31.306.466.064.08.14.167.207.265.475.69.564.895.564 1.718l-.044 5.47-.184-.002h-.19zM647.555 345.567v-.35c0 .03.002.053.017.08l-.265-.585c.004.013.016.03.025.04l-.508-.622c0-.013-.01-.023-.02-.04l-.192-.427c-.012-.022-.02-.05-.02-.074v-1.327l.043-2.012.19.005h.178l-.03 2.013v1.32c0-.026-.01-.055-.02-.077l.19.424c0-.013-.012-.028-.02-.043l.503.626c.005.01.016.024.02.04l.272.584c.01.025.014.05.014.075v.35h-.376z" fill="#25201f"/><path d="M647.182 341.842l.133-.496c-.003.006.086-.377.086-.377-.003.014-.01.03-.01.045v-.41c0 .007.007.022.007.036l-.085-.436.183-.03.19-.044.08.435c0 .013.01.023.01.04v.41c0 .01-.01.026-.014.04l-.077.38c0 .01-.145.507-.145.507l-.176-.05-.18-.05z" fill="#25201f"/><path d="M647.74 343.41v-.914l.012-.85c-.003-.066-.034-.474-.034-.565 0-.088.062-.495.093-.66 0-.018.005-.037.013-.053l.19-.41.165.083.177.078-.194.412c.006-.02.016-.036.016-.052-.036.25-.082.55-.082.608 0 .05.02.364.033.548l-.014.865v.91h-.374zM649.232 344.268l-.272-.408c.003.008-.254-.356-.254-.356-.013-.023-.028-.054-.028-.082l-.085-.513-.05-.642.007-.81v-.777s0-.014.008-.02l.055-.43.08-.506.086-.435c.003-.01.01-.02.01-.028l.067-.176.172.066.173.066-.058.175c0-.005 0-.015.005-.027l-.09.43c0-.01-.077.49-.077.49l-.053.425v-.03.782l-.01.798c-.005-.018.043.602.043.602 0-.013.084.5.084.5-.01-.027-.018-.052-.033-.08l.26.37c0 .005.27.41.27.41l-.156.103-.156.103z" fill="#25201f"/><path d="M649.375 343.54l-.135-.588c-.003-.007-.103-.594-.103-.594l-.108-.624-.035-.57v-.46l.002-.034.07-.414c.004-.01.004-.02.012-.027l.116-.36.138-.413c0-.006.003-.02.01-.027l.117-.227.164.09.167.085-.107.23c0-.014 0-.02.007-.03l-.142.408-.11.36c.002-.008.002-.018.002-.026l-.07.414v-.03.448l.034.538c0-.02.103.608.103.608l.1.58.135.575-.187.045-.18.042zM652.888 343.2v-17.383h.63V343.2h-.63zM636.01 335.123l.414-.48c-.008.008-.016.014-.016.024l.36-.625c.008-.006.41-.636.41-.636-.008.003-.008.012-.014.018l.26-.524.26-.453c-.014.02-.02.052-.026.077l.035-.478v.023l-.035-.783c0 .012.005.025.005.036l-.144-.593c-.01-.026-.01-.056 0-.082l.112-.52c.003-.026.015-.048.026-.066l.365-.514c-.003 0-.01.006-.013.013l.333-.593c.005-.008.007-.014.015-.024l.434-.558c-.003.01-.012.018-.015.03l.44-.855.166.09.17.086-.44.856c-.003.006-.01.016-.026.025l-.43.56.013-.026-.33.595c-.007.005-.01.01-.01.015l-.36.516c.01-.022.022-.043.022-.064l-.11.517c.006-.03.006-.06 0-.09l.148.59c0 .017.003.03.003.038l.038.785c0 .01 0 .014-.002.02l-.035.48c-.003.03-.01.054-.023.08l-.26.445c.008-.01-.245.51-.245.51-.006.007-.008.012-.016.02l-.402.63c.005-.005-.363.62-.363.62-.003.005-.01.015-.02.023l-.404.485-.148-.12-.143-.122zM642.75 333.558l-.108-1.294v.017l-.22-1.153c.004.01.004.02.01.027l-.262-.783-.29-.73c.003.008.01.017.014.022l-.363-.62c.008.016.022.028.034.04l-.626-.6.13-.135.13-.133.622.598c.018.01.028.023.038.04l.36.623c.006.01.006.018.016.023l.29.745c.007.01.263.793.263.793.002.01.002.017.007.02l.217 1.15v.026l.116 1.297-.19.01-.185.018zM644.69 333.688l-.147-.82c0 .01-.175-.73-.175-.73l-.18-.62c0 .018.006.027.012.044l-.296-.487c.01.013-.356-.54-.356-.54 0-.01-.008-.02-.01-.024l-.256-.52c-.01-.014-.017-.03-.022-.048l-.106-.552c0-.008-.005-.016-.005-.025l-.03-.406.187-.013.182-.017.037.406c-.002-.007-.002-.01-.002-.017l.107.55c0-.015-.01-.03-.015-.046l.253.522c0-.01-.003-.016-.003-.024l.36.556c.006.005.293.492.293.492.015.008.017.023.023.043l.19.63c.007.01.177.748.177.748 0 .012.146.83.146.83l-.18.037-.185.03z" fill="#25201f"/><path d="M637.29 333.28l-.176-.37c-.01-.01-.013-.023-.016-.038l-.13-.47c-.008-.01-.008-.027-.008-.04l-.036-.508-.05-.56v-.023l.012-.484c0-.03.01-.055.02-.08l.14-.273.167.084.17.082-.138.272c.012-.022.014-.05.02-.075l-.02.488v-.024l.056.566.038.512c0-.014-.01-.025-.01-.036l.133.473c0-.01-.01-.022-.01-.032l.185.367-.174.084-.17.086zM642.398 325.724l.5.157c.024.004.047.016.064.03l.363.27c.012.006.022.016.036.025l.308.358c.023.02.033.05.043.077l.157.557-.186.047-.185.05-.148-.557c.014.028.022.05.04.077l-.307-.36c.003.01.016.02.023.026l-.365-.27c.014.015.037.025.056.028l-.508-.152.056-.185.056-.176zM638.28 326.612l.57-.18c-.024.013-.045.023-.066.038l.405-.32.116.15.118.145-.404.318c-.02.015-.04.026-.064.03l-.57.177-.057-.18-.05-.178z" fill="#25201f"/><path d="M637.11 328.42l.036-.782v-.806l.036-.933c0-.023.003-.046.013-.068l.22-.55c.01-.023.017-.04.035-.057l.66-.705c.007-.014.812-.756.812-.756l.775-.7c.008-.01.705-.563.705-.563.016-.013.034-.02.046-.03l.66-.258c.02-.01.05-.016.07-.016h.586v.377h-.585c.022 0 .045-.004.07-.015l-.66.264c.017-.01.032-.015.047-.027l-.703.55c.013-.006-.753.7-.753.7l-.805.742-.65.695c.022-.02.03-.038.04-.06l-.22.553c.005-.02.015-.043.015-.065l-.038.93v.81l-.04.787-.188-.007-.183-.01zM638.008 323.83l.29-.668c.01-.025.023-.044.042-.06l.657-.634.553-.517c.01-.01.014-.014.027-.02l.692-.447c.015-.01.035-.022.06-.024l.62-.146.04.182.044.184-.616.147c.018-.006.036-.016.053-.03l-.69.452c.004-.01.02-.017.027-.024l-.552.518-.66.627c.023-.014.03-.037.046-.054l-.292.66-.174-.074-.166-.073z" fill="#25201f"/><path d="M636.305 325.4l.442-.185c-.043.017-.074.044-.092.085l.218-.41c-.016.03-.023.055-.023.09v-.63c0-.01 0-.025.002-.04l.115-.59c0 .01-.007.016-.007.028l.035-.706c.003-.038.024-.075.05-.108l.4-.488.483-.523c.016-.01.634-.567.634-.567.008 0 .008-.01.015-.012l.623-.452c.014-.005.565-.34.565-.34.014-.004.024-.01.034-.013l.837-.296.063.18.064.174-.84.294.033-.014-.552.333c.013-.008-.614.44-.614.44.007 0 .017-.012.02-.012l-.62.553-.464.502-.394.483c.026-.033.043-.07.046-.112l-.038.704-.002.02-.113.598c.002-.013.002-.027.002-.036v.63c0 .032-.004.06-.022.09l-.222.406c-.016.042-.054.07-.09.085l-.447.185-.07-.172-.07-.174zM644.082 324.582l-.252-.52c.01.015.018.027.033.043l-.373-.41c.015.012.022.026.035.03l-.327-.227-.3-.214.11-.155.113-.152.3.214c-.004 0 .315.226.315.226.015.006.025.013.038.026l.363.406c.012.016.023.028.03.044l.26.52-.172.085-.172.082zM636.408 321.94l.442-.37c-.017.015-.023.018-.03.032l.403-.522c.003-.002.333-.404.333-.404-.033.03-.047.074-.047.12v-.37c0-.01.005-.016.005-.025l.066-.56c0-.017.006-.04.016-.06l.226-.478c.008-.017.377-.644.377-.644.002-.008.004-.015.012-.02l.366-.48c.01-.008.01-.017.015-.026l.48-.445c.01-.01.014-.015.032-.02l.543-.368c.02-.015.036-.026.057-.03l.547-.14c.012-.006.023-.006.033-.01l.918-.075.018.186.016.188-.92.08c.01-.006.022-.006.033-.006l-.55.142c.017-.003.038-.016.06-.026l-.55.37c.006-.003.01-.01.022-.018l-.48.447c.01-.007.02-.015.022-.024l-.363.48.014-.017-.37.633c.007-.02-.218.46-.218.46.016-.017.016-.035.02-.06l-.07.563v-.017.37c0 .04-.016.083-.044.115l-.327.404c.005 0-.4.515-.4.515-.01.015-.017.022-.03.03l-.437.372-.123-.145-.117-.146zM643.48 322.882l.068-.668v.023-1.44h.379v1.46l-.07.667-.188-.022-.19-.02zM639.588 337.297l-.195-.83.184-.045.184-.042.19.83-.184.04-.178.047zM650.4 344.743l.428.06c.026.003.052.013.077.024l.27.184c0-.008-.013-.013-.027-.017l.4.168.293.114c.01.007.4.2.4.2l.335.166c-.01-.003.206.096.206.096-.004-.006-.022-.012-.037-.015l.224.04c-.084-.015-.166.028-.2.1l.086-.167c-.02.037-.028.084-.02.123l-.038-.19c.006.048.038.088.08.12l-.237-.16c.005.01.016.016.033.018l-.413-.152c-.077-.03-.12-.104-.12-.186.003-.078.065-.15.14-.173l.418-.105.523-.084c.016-.005.03-.005.047-.005l.446.03.377.022c.01 0 .02 0 .03.004l.448.087c0 .005.008.005.013.008l.39.122c-.008-.005-.027-.005-.037-.007l.292.03c-.036 0-.075 0-.103.013l.19-.082c-.088.04-.132.136-.106.228l-.036-.127c-.023-.067 0-.148.06-.194l.15-.123c-.07.053-.087.146-.052.223l-.104-.223c.013.03.04.063.074.082l-.263-.15c-.04-.02-.073-.062-.09-.114l-.07-.28c.01.03.02.06.045.08l-.184-.2c.02.02.04.037.06.046l-.3-.127c-.04-.015-.075-.043-.098-.08l-.21-.377c.014.027.038.05.062.065l-.437-.258c-.34-.175-.39-.17-.83-.138l-.04.002.03-.002-.984.223-.033.012c-.503.117-.818.19-1.372.117 0 0-.02 0-.022-.007l-.33-.096.053-.183.055-.176.32.094-.023-.002c.485.062.736.002 1.235-.117l.038-.006.978-.23.032-.004.038-.004c.457-.036.6-.044 1.038.183l.458.27c.03.017.046.035.063.07l.22.377c-.02-.04-.05-.067-.093-.082l.304.126c.027.008.044.025.065.046l.188.197c.02.025.036.052.042.082l.074.283c-.01-.05-.043-.094-.088-.116l.258.145c.033.018.065.045.078.082l.11.227c.034.075.016.168-.052.223l-.15.125c.064-.047.086-.127.065-.2l.037.13c.023.087-.015.183-.107.223l-.19.082c-.025.01-.06.02-.097.016l-.288-.034c-.008-.005-.02-.01-.032-.01l-.382-.12c.008 0 .008.003.013.003l-.444-.09c.006 0 .017.006.026.006l-.372-.027-.456-.028h.04l-.51.08c.02 0-.393.1-.393.1.077-.016.135-.087.138-.17.008-.078-.044-.158-.123-.182l.407.15c.015.006.025.01.036.017l.245.154c.038.027.07.07.084.122l.04.195c.014.042.003.086-.017.126l-.087.165c-.036.073-.117.115-.19.1l-.232-.035c-.012-.005-.025-.008-.038-.016l-.222-.1c-.01-.007-.342-.17-.342-.17l-.39-.187c.01.002-.28-.115-.28-.115-.002-.003-.4-.164-.4-.164-.015-.008-.02-.013-.03-.016l-.275-.182c.02.014.047.026.072.026l-.42-.055.022-.188.026-.188z" fill="#25201f"/><path d="M653.735 344.54l.503.138c-.01 0 .272.06.272.06 0 .004.376.116.376.116l.2.057c.008 0 .02.005.02.007l.18.102.11.07-.053.083-.056.086-.108-.07c.006.005-.165-.096-.165-.096.005.01.013.01.02.01l-.206-.06-.375-.114c.008.003-.267-.058-.267-.058-.006 0-.507-.143-.507-.143l.032-.095.023-.096zM653.264 344.032l.587.116.246.054h.014l.286.095.283.103c.01.003.212.093.212.093-.008-.006.168.056.168.056-.007-.005.1.03.1.03l-.03.092-.023.1-.106-.03c-.007 0-.188-.064-.188-.064-.002-.006-.207-.088-.207-.088.012 0-.272-.103-.272-.103 0 .006-.29-.093-.29-.093l.01.002-.242-.053-.58-.116.018-.096.016-.098zM653.405 343.578l.356.105h.008l.248.102c-.005 0 .275.084.275.084l.244.078c.005 0 .013.006.013.006l.095.046-.052.09-.043.088-.09-.044c.006 0 .013.005.02.005l-.25-.08-.278-.083c-.005-.005-.254-.108-.254-.108l.01.003-.36-.1.03-.098.03-.097z" fill="#25201f"/><path d="M645.828 296.493l.703-1.847h-1.407l.705 1.847zm-.61.874l-1.808-4.345h1.11l.33.892h1.965l.347-.892h1.096l-1.835 4.345h-1.206zm-2.114-2.855h-1.025c-.123-.518-.54-.807-1.17-.807-.87 0-1.37.53-1.37 1.48 0 .98.484 1.5 1.402 1.5.65 0 1.037-.274 1.126-.755h1.028c-.07.972-.844 1.546-2.154 1.546-1.59 0-2.47-.81-2.47-2.29 0-1.455.88-2.286 2.375-2.286 1.313 0 2.18.635 2.257 1.612m-6.55-1.49h1.043v4.345h-1.043v-4.345zm-5.272 0h1.033v2.983l2.072-2.983h1.08v4.345h-1.03v-2.982l-2.06 2.982h-1.095v-4.345zm-5.094 4.354v-2.82c0-1.078.732-1.656 2.05-1.656 1.29 0 2.014.578 2.014 1.657v2.82h-1.037v-2.73c0-.653-.285-.96-.995-.96-.69 0-.976.307-.976.96v2.73h-1.056zM626.29 358.458l1.112.478v-.96l-1.11.482zm-.523-.42l2.615-1.227v.752l-.532.225v1.34l.532.236v.742l-2.615-1.244v-.823zm1.717-1.556v-.707c.32-.077.482-.367.482-.792 0-.593-.318-.936-.886-.936-.58 0-.897.333-.897.955 0 .44.156.708.45.765v.7c-.586-.043-.927-.573-.927-1.465 0-1.088.48-1.68 1.374-1.68.874 0 1.374.597 1.374 1.62 0 .89-.375 1.482-.97 1.54m.898-3.88h-2.616v-.713h2.616v.712zm0-3.645v2.4h-.484v-1.69h-2.13v-.71h2.614zm-1.302-3.337c-.58 0-.91.354-.91.96 0 .608.33.968.91.968.58 0 .905-.36.905-.967 0-.606-.324-.96-.905-.96m0-.728c.84 0 1.374.658 1.374 1.69 0 1.028-.533 1.692-1.374 1.692-.84 0-1.374-.664-1.374-1.693 0-1.03.534-1.688 1.374-1.688m1.302-2.112v.71h-2.142v1.02h-.473v-2.755h.473v1.025h2.142zm-2.09-2.672l1.11.487v-.962l-1.11.475zm-.525-.408l2.615-1.235v.752l-.532.22v1.343l.532.235v.75l-2.615-1.248v-.817zm1.717-1.575v-.69c.32-.087.482-.363.482-.8 0-.593-.318-.925-.886-.925-.58 0-.897.323-.897.948 0 .446.156.71.45.767v.7c-.586-.045-.927-.576-.927-1.467 0-1.087.48-1.676 1.374-1.676.874 0 1.374.597 1.374 1.618 0 .89-.375 1.48-.97 1.525m.423-7.285h-1.678v.655c0 .586.27.85.85.85.586 0 .827-.278.827-.938v-.567zm.475-.7v1.164c0 .5-.026.87-.233 1.2-.222.368-.582.564-1.07.564-.89 0-1.313-.515-1.313-1.573v-1.355h2.615zm-2.09-2.125l1.11.47v-.958l-1.11.488zm-.525-.42l2.615-1.233v.753l-.532.23v1.34l.532.23v.745l-2.615-1.245v-.82zm2.14-3.752h-1.678v.656c0 .584.27.85.85.85.586 0 .827-.28.827-.937v-.57zm.475-.693v1.16c0 .496-.026.87-.233 1.204-.222.363-.582.565-1.07.565-.89 0-1.313-.523-1.313-1.58v-1.35h2.615zm0-.87h-2.616v-.713h2.616v.712zm-.81-4.22c.558.038.882.542.882 1.42 0 .898-.324 1.39-.855 1.39-.272 0-.466-.14-.59-.422-.085-.215-.142-.49-.198-.81-.107-.573-.107-.843-.36-.843-.197 0-.32.214-.32.583 0 .43.137.664.394.688v.684c-.522-.026-.82-.5-.82-1.304 0-.875.276-1.333.782-1.333.273 0 .477.13.592.373.11.233.14.49.19.765.11.63.155.922.396.922.22 0 .33-.204.33-.627 0-.474-.134-.73-.424-.787v-.698zm-.666-2.682h-.687v.87c0 .325.12.49.34.49.252 0 .346-.168.346-.53v-.83zm1.476-.716v.716h-1.013v.75c0 .4.107.5.402.514l.287.01c.137 0 .244.03.322.083v.774h-.08c-.044-.125-.146-.125-.294-.125l-.307-.02c-.32-.01-.482-.1-.57-.425-.083.33-.298.507-.625.507-.5 0-.738-.354-.738-1.105v-1.68h2.615zm0-3.263v2.594h-.484v-1.897h-.672v1.657h-.442v-1.657h-.557v1.81h-.46V311.4h2.615zm0-2.316v.68l-2.615 1.184v-.783l1.96-.75-1.96-.73v-.788l2.615 1.187zm0-1.67h-2.616v-.71h2.616v.71zm0-4.422v.698h-1.798l1.798 1.417v.738h-2.615v-.705h1.8l-1.8-1.402v-.746h2.615zm-2.62-3.587h1.7c.64 0 .992.49.992 1.387 0 .88-.352 1.377-.993 1.377h-1.698v-.705h1.638c.403 0 .58-.198.58-.677 0-.476-.187-.668-.58-.668h-1.638v-.715zM671.985 302.006h.69v-.87c0-.334-.12-.5-.34-.5-.245 0-.35.18-.35.533v.836zm-1.475.708v-.708h1.02v-.755c0-.39-.11-.497-.41-.51l-.278-.018c-.144 0-.245-.024-.332-.073v-.777h.087c.045.13.138.13.29.133l.31.01c.316.017.487.103.57.433.083-.34.294-.52.62-.52.508 0 .74.363.74 1.11v1.674h-2.617zm0 3.266v-2.595h.48v1.893h.68v-1.66h.446v1.66h.554v-1.81h.458v2.512h-2.618zm0 2.26v-.71h2.152v-1.018h.466v2.752h-.466v-1.023h-2.152zm2.098 2.67l-1.116-.48v.964l1.116-.483zm.52.41l-2.618 1.232v-.745l.543-.228v-1.34l-.543-.234v-.744l2.618 1.245v.814zm-2.618 5.198v-.674h2.116l-2.116-.708v-.728l2.116-.7h-2.116v-.666h2.618v1.053l-1.99.68 1.99.685v1.058h-2.618zm.81 4.847c-.554-.035-.88-.54-.88-1.423 0-.89.326-1.39.856-1.39.267 0 .47.142.59.427.093.218.138.486.202.807.106.57.106.84.357.84.2 0 .315-.202.315-.583 0-.423-.134-.66-.393-.69v-.674c.528.017.83.49.83 1.303 0 .872-.282 1.335-.79 1.335-.268 0-.47-.134-.592-.38-.103-.23-.145-.486-.194-.767-.105-.632-.15-.92-.386-.92-.225 0-.335.21-.335.628 0 .477.127.734.42.792v.695zm-.81.703h2.618v.713h-2.618v-.712zm1.475 3.583h.69v-.876c0-.33-.12-.49-.34-.49-.245 0-.35.172-.35.527v.84zm-1.475.71v-.71h1.02v-.755c0-.396-.11-.5-.41-.508l-.278-.02c-.144 0-.245-.02-.332-.078v-.776h.087c.045.128.138.128.29.128l.31.02c.316.016.487.105.57.426.083-.333.294-.513.62-.513.508 0 .74.357.74 1.115v1.67h-2.617zm1.305 3.343c.588 0 .91-.36.91-.964 0-.605-.322-.972-.91-.972-.58 0-.9.367-.9.97 0 .604.32.965.9.965m0 .722c-.842 0-1.375-.65-1.375-1.686 0-1.038.533-1.697 1.375-1.697.847 0 1.382.66 1.382 1.696 0 1.034-.535 1.685-1.382 1.685m-1.305 2.11v-.708h2.152v-1.015h.466v2.75h-.466v-1.028h-2.152zm1.405 3.34h.755v-.733c0-.33-.127-.49-.373-.49-.273 0-.382.165-.382.523v.7zm-.474 0v-.877c0-.68.316-1.058.847-1.058.547 0 .84.377.84 1.105v1.54h-2.617v-.71h.93zm-.93 5.023v-.67h2.116l-2.116-.712v-.723l2.116-.703h-2.116v-.666h2.618v1.056l-1.99.672 1.99.692v1.054h-2.618zm0 3.264v-2.6h.48v1.89h.68V341.8h.446v1.653h.554v-1.802h.458v2.512h-2.618zm.473 2.917h1.684v-.658c0-.59-.264-.856-.852-.856-.58 0-.832.285-.832.94v.573zm-.473.695v-1.16c0-.496.034-.87.234-1.206.216-.366.585-.567 1.07-.567.888 0 1.314.52 1.314 1.58v1.352h-2.618zm0 3.26v-2.59h.48v1.89h.68v-1.652h.446v1.652h.554v-1.804h.458v2.506h-2.618zm1.475 2.846h.69v-.87c0-.327-.12-.49-.34-.49-.245 0-.35.167-.35.523v.838zm-1.475.713v-.712h1.02v-.75c0-.393-.11-.498-.41-.516l-.278-.012c-.144-.007-.245-.03-.332-.077v-.777h.087c.045.125.138.125.29.135l.31.008c.316.014.487.103.57.432.083-.334.294-.512.62-.512.508 0 .74.362.74 1.103v1.68h-2.617z" fill="#2c3482"/><path d="M682.27 268.158l-.092-1.257 2.917-.203c.077-.01.12.005.163.034.033.028.065.08.09.162l.11-.006-.085-1.19-.102.01c-.012.08-.04.14-.074.174-.032.03-.08.048-.153.052l-4.12.295.01.112c.08.015.145.04.17.067.03.04.053.092.057.166l.272 3.876c.003.07-.014.126-.035.16-.028.04-.082.07-.164.097l.01.112 4.04-.287c.062-.006.118.005.16.03.032.033.07.086.095.17l.107-.004-.087-1.192-.104.012c-.01.085-.047.13-.075.168-.035.034-.084.05-.148.055l-2.836.206-.07-1.094 1.84-.123c.06-.015.116 0 .148.026.04.032.072.082.098.17l.103-.01-.082-1.158-.095.002c-.024.075-.046.143-.08.173-.033.032-.086.057-.148.068l-1.84.123zm-3.975-.272l-.853 1.59-.637-1.693 1.49.103zm.33-.606l-2.066-.14-.26-.676c-.042-.088-.056-.163-.056-.205.006-.108.093-.17.242-.198l.004-.11-1.497-.106-.014.106c.094.03.16.07.2.11.045.047.088.134.145.274l1.42 3.643c.044.12.065.207.06.273-.006.103-.074.174-.202.21l-.015.1 1.612.12.01-.105c-.132-.05-.197-.116-.183-.215 0-.065.032-.138.078-.22l1.97-3.412c.09-.144.154-.237.22-.292.054-.048.13-.083.223-.092l.013-.115-1.67-.114-.004.11c.145.037.213.113.205.224-.007.05-.03.123-.084.206l-.35.624zm-5.285-1.513l-.798 3.812c-.016.06-.044.114-.082.142-.036.023-.094.046-.173.047l-.028.11 1.38.296.03-.105c-.083-.037-.126-.078-.147-.12-.023-.036-.03-.093-.013-.157l.797-3.81c.02-.072.047-.122.088-.15.03-.027.09-.047.178-.047l.02-.11-1.386-.296-.03.103c.07.038.13.076.147.12.027.035.027.1.016.164m-3.442 2.608l1.06-3.323c.023-.062.053-.11.097-.133.04-.023.105-.038.18-.038l.042-.094-1.35-.447-.037.103c.068.048.114.09.13.134.023.045.015.102 0 .168l-1.068 3.316-1.342-.44c-.065-.017-.11-.048-.128-.087-.033-.044-.033-.11-.033-.19l-.106-.038-.36 1.133.1.038c.046-.074.09-.116.14-.14.04-.015.087-.015.15 0l3.627 1.195c.067.03.116.057.138.105.024.027.04.09.034.185l.103.028.365-1.128-.11-.033c-.047.076-.09.117-.13.133-.044.018-.098.018-.164-.008l-1.338-.437zm-6.584-3.12l.895-2.644c.022-.067.052-.104.096-.132.044-.027.105-.032.188-.032l.032-.1-1.263-.438-.033.104c.062.042.105.087.127.137.017.046.008.098-.008.164L662.095 266c-.02.062-.05.1-.087.128-.052.024-.112.024-.193.024l-.035.107 1.466.504.028-.1c-.076-.056-.113-.117-.084-.192.014-.054.07-.096.143-.136l3.225-1.672-.876 2.574c-.028.067-.053.11-.095.13-.045.03-.103.04-.194.036l-.032.105 1.258.438.04-.1c-.064-.054-.108-.09-.125-.147-.026-.038-.026-.093.002-.155l1.25-3.683c.024-.065.05-.11.1-.135.04-.023.1-.035.184-.03l.04-.1-1.358-.473-.036.106c.075.045.113.11.082.175-.01.045-.086.105-.228.176l-3.26 1.675zm-4.388-2.275l.262-1.23 2.857.613c.066.02.115.042.14.083.025.038.043.092.054.18l.098.02.245-1.162-.107-.024c-.04.072-.075.126-.114.158-.044.018-.094.02-.167.006l-4.035-.874-.015.11c.073.034.12.077.14.124.02.04.024.09.016.16l-.802 3.802c-.02.074-.043.117-.076.154-.038.028-.1.042-.182.053l-.027.102 3.964.846c.062.016.114.046.14.09.033.037.054.095.054.186l.105.014.245-1.158-.11-.024c-.036.067-.08.12-.115.14-.043.026-.095.035-.167.01l-2.778-.59.23-1.072 1.805.392c.062.013.102.034.134.072.023.045.045.108.054.186l.107.026.236-1.142-.108-.018c-.037.065-.074.127-.116.145-.04.022-.095.032-.164.02l-1.802-.397zm-2.817-2.107l-.408 3.88c0 .07-.018.115-.056.15-.036.038-.094.054-.174.068l-.012.102 1.406.16.017-.107c-.08-.035-.135-.072-.156-.105-.026-.043-.036-.098-.034-.156l.41-3.876c0-.078.015-.128.053-.156.043-.037.1-.062.184-.07l.006-.108-1.41-.15-.01.104c.076.037.124.076.156.113.024.03.036.084.027.153m-4.254 1.946l1.506.088c.308.012.513.054.638.13.072.04.136.118.174.208.048.093.063.204.053.316 0 .113-.027.208-.078.3-.063.09-.127.15-.2.194-.13.052-.34.072-.648.063l-1.505-.08.06-1.22zm.04-.758l.078-1.513c0-.063.018-.116.054-.15.04-.042.09-.06.173-.083l.008-.098-1.417-.076-.012.1c.076.032.135.06.163.096.03.034.05.094.044.157l-.206 3.895c0 .064-.022.12-.06.157-.024.027-.086.055-.16.072l-.008.112 2.836.148c.325.015.59 0 .788-.022.19-.033.368-.106.526-.216.153-.095.283-.247.384-.428.09-.188.147-.387.16-.6.016-.315-.053-.584-.21-.833-.13-.206-.305-.36-.53-.45-.24-.105-.56-.16-.98-.184l-1.627-.088zm-3.58-.064l-.713 1.65-.78-1.626 1.492-.024zm.266-.64l-2.057.042-.317-.65c-.05-.085-.066-.156-.066-.205-.005-.098.068-.17.217-.206v-.114l-1.51.025.004.108c.09.016.16.052.202.095.05.044.11.127.166.256l1.737 3.506c.054.11.08.204.08.275.01.1-.066.174-.19.218v.116l1.62-.03-.005-.11c-.138-.04-.195-.103-.205-.193 0-.07.024-.144.064-.222l1.668-3.576c.078-.158.133-.258.19-.318.056-.057.123-.09.218-.11v-.107l-1.67.027.003.11c.143.023.218.087.22.203 0 .048-.018.12-.064.21l-.308.652zm-3.417 3.147l-.66-1.02-.08.058c.005.026.005.045.01.057.007.076-.046.166-.174.263-.362.32-.806.513-1.338.566-.233.02-.447.017-.626-.025-.138-.022-.254-.082-.34-.16-.092-.085-.14-.18-.148-.28-.02-.18.07-.3.27-.384.102-.053.328-.104.673-.18l.515-.11c.303-.06.55-.132.732-.213.19-.082.343-.177.48-.294.144-.128.252-.28.318-.47.067-.19.092-.387.067-.59-.03-.323-.162-.6-.396-.83-.21-.2-.514-.344-.918-.406-.294-.053-.61-.06-.95-.027-.6.068-1.166.276-1.726.624-.12.07-.19.103-.207.113-.036 0-.076-.016-.146-.062l-.095.063.606 1.07.085-.064v-.035c-.002-.108.03-.206.12-.296.133-.14.338-.28.626-.413.29-.116.57-.197.848-.226.288-.032.546-.008.763.076.12.04.22.102.293.19.084.086.125.18.138.28.02.15-.05.266-.21.345-.107.068-.33.126-.663.195l-.507.118c-.34.068-.577.125-.712.173-.143.052-.277.12-.412.205-.182.115-.332.29-.427.508-.083.187-.11.4-.09.63.04.393.205.69.493.923.38.295.91.4 1.613.332.28-.033.54-.083.787-.178.245-.086.54-.224.907-.425.115-.06.197-.1.225-.1.04-.008.098.015.17.057l.09-.057zm-5.86.776l-.82-.886-.068.08c.004.023.01.044.02.057.018.07-.02.165-.125.287-.303.383-.708.642-1.224.79-.226.064-.433.096-.622.09-.142-.004-.253-.048-.362-.104-.095-.072-.166-.15-.196-.258-.044-.16.02-.305.2-.416.097-.056.31-.165.63-.298l.493-.193c.292-.122.517-.233.685-.342.17-.11.312-.24.427-.375.118-.15.19-.324.228-.53.035-.196.023-.39-.038-.588-.082-.3-.26-.56-.523-.73-.253-.18-.578-.252-.98-.247-.308 0-.614.044-.942.133-.575.17-1.098.478-1.587.924-.108.092-.168.138-.188.14-.033.013-.084 0-.158-.03l-.077.08.782.946.078-.073c-.008-.02-.013-.033-.013-.045-.03-.095-.007-.2.07-.303.094-.167.28-.338.55-.516.258-.172.52-.297.776-.372.29-.086.542-.102.773-.064.13.024.23.068.33.14.086.064.145.15.176.24.037.155-.004.278-.14.386-.1.073-.31.185-.628.314l-.48.196c-.32.125-.55.227-.672.298-.133.076-.254.163-.366.274-.174.145-.278.336-.337.564-.052.203-.047.423.025.646.1.378.317.65.638.816.426.227.97.247 1.635.048.28-.075.535-.186.753-.308.227-.128.504-.32.82-.578.108-.084.174-.14.203-.142.054-.014.11-.004.182.025l.074-.076zm-8.246.452l-.42-1.183 2.737-1.023c.07-.013.123-.017.16-.002.047.018.09.063.144.13l.094-.034-.4-1.118-.097.035c.005.08 0 .146-.026.192-.014.047-.065.068-.128.09l-3.883 1.44.04.094c.077-.008.14.007.184.03.042.013.077.063.103.134l1.315 3.65c.024.063.027.12.008.17-.015.04-.066.09-.133.138l.036.096 3.806-1.398c.07-.016.12-.02.164-.008.043.023.088.06.136.128l.104-.036-.405-1.118-.1.042c.003.08 0 .142-.026.178-.02.04-.065.078-.123.094l-2.68.99-.366-1.026 1.74-.637c.062-.026.115-.026.154-.006.053.024.09.06.144.13l.096-.038-.39-1.095-.1.042c.005.07-.008.134-.028.183-.016.04-.072.074-.128.095l-1.733.642zm-5.97.592l1.213-.302c.376-.106.693-.127.907-.068.468.126.792.522.954 1.19.117.476.094.867-.07 1.184-.087.17-.21.312-.374.415-.165.1-.392.194-.684.27l-1.206.305-.74-2.994zm-1.056-.15l.93 3.772c.016.067.016.128-.003.17-.027.043-.073.08-.14.125l.022.098 2.463-.613c.532-.138.936-.306 1.19-.5.374-.28.595-.664.698-1.127.075-.373.062-.767-.04-1.206-.197-.776-.58-1.295-1.137-1.58-.244-.127-.5-.184-.78-.187-.28-.012-.626.035-1.03.134l-2.464.62.024.11c.087 0 .15.015.186.048.035.023.068.063.082.136m-4.152 2.014l-.068-1.26 2.925-.15c.065-.006.11.006.154.03.034.04.07.093.092.168l.107-.003-.064-1.187-.107.012c-.02.076-.042.126-.075.156-.03.045-.087.068-.15.068l-4.12.21v.114c.078.014.135.044.176.077.026.03.046.086.046.16l.212 3.88c0 .075-.015.13-.044.158-.033.047-.08.075-.168.105l.01.106 4.04-.212c.07-.008.126.003.16.037.035.035.065.085.098.164l.103-.006-.06-1.18-.105.006c-.023.074-.046.128-.08.165-.032.03-.084.052-.147.057l-2.842.146-.057-1.09 1.847-.096c.06-.002.115.016.15.038.034.03.068.086.098.164h.107l-.066-1.17-.105.01c-.017.084-.047.135-.08.174-.032.034-.083.046-.15.053l-1.838.098zm-2.294 2.182l-.462-1.114-.105.05v.058c0 .074-.073.145-.2.223-.414.257-.89.354-1.42.32-.237-.018-.438-.06-.61-.134-.135-.05-.234-.133-.31-.223-.075-.095-.11-.193-.098-.294.002-.183.12-.29.334-.337.105-.025.34-.048.69-.056l.525-.01c.312-.015.565-.042.762-.088.195-.037.373-.112.526-.21.16-.096.286-.23.38-.406.108-.17.162-.358.177-.567.02-.325-.07-.612-.245-.88-.173-.25-.452-.433-.838-.573-.277-.105-.594-.162-.928-.194-.6-.04-1.206.07-1.804.323-.128.047-.21.07-.233.064-.03 0-.074-.026-.13-.08l-.102.04.414 1.16.1-.037v-.04c.006-.11.06-.193.164-.272.157-.122.384-.223.694-.292.303-.072.595-.1.865-.08.29.026.543.086.744.206.108.063.202.138.255.244.067.095.098.195.087.297-.008.15-.098.246-.264.306-.117.04-.343.066-.692.078l-.518.014c-.348.014-.588.035-.737.057-.14.023-.287.057-.432.126-.208.08-.386.222-.504.413-.117.183-.19.38-.205.62-.023.394.087.722.33.99.32.36.822.56 1.52.61.286.02.565.01.818-.034.255-.04.567-.13.958-.26.135-.045.214-.06.237-.06.05.003.103.026.16.09l.095-.05z" fill="#1f1c1b"/><path d="M615.723 357.364c-.12 1.604.654 3.064 2.162 3.714 1.554.67 2.776.044 2.213-1.46-.524-1.397-2.302-2.153-4.375-2.254m-.56-1.81c1.383.073 2.994-.265 4.15-1.563.982-1.097.347-1.853-.994-1.4-1.48.493-2.477 1.603-3.157 2.963m21.63 15.196c-.802-1.384-1.745-2.575-2.95-3.426-1.76-1.255-3.254-1.158-5.298-1.2l-10.01-.236c-1.2-.03-2.228.017-3.37-.43-3.722-1.45-3.553-4.997-2.08-9.706-1.627-1.975-2.618-4.307-2.24-8.986.105-.392.882-.355.928.1-.276 3.193.287 6.09 2.105 7.69 1.442-1.313 2.616-2.552 3.8-3.132 1.948-.944 4.79.112 3.256 2.51-.697 1.082-2.28 2.093-4.387 2.57 2.824.344 4.46 1.74 5.037 3.097 1.244 2.93-2.625 3.63-4.505 2.546-1.302-.75-2.34-2.363-2.654-5.097-1.188 3.25-.947 5.544.723 6.877 1.093.874 1.97.775 3.293.803l10.194.166c2.28.04 3.982.072 5.98 1.408 1.47.988 2.724 2.42 3.8 4.253l-1.623.192zM683.173 357.364c.123 1.604-.66 3.064-2.168 3.714-1.55.67-2.77.044-2.205-1.46.523-1.397 2.303-2.153 4.373-2.254m.557-1.81c-1.382.073-2.99-.265-4.15-1.563-.98-1.097-.34-1.853.994-1.4 1.488.493 2.47 1.603 3.156 2.963m-21.627 15.196c.808-1.384 1.754-2.575 2.944-3.426 1.762-1.255 3.26-1.158 5.308-1.2l10.004-.236c1.2-.03 2.233.017 3.38-.43 3.7-1.45 3.54-4.997 2.077-9.706 1.616-1.975 2.61-4.307 2.237-8.986-.108-.392-.892-.355-.93.1.276 3.193-.288 6.09-2.106 7.69-1.44-1.313-2.616-2.552-3.802-3.132-1.945-.944-4.79.112-3.25 2.51.692 1.082 2.276 2.093 4.382 2.57-2.822.344-4.458 1.74-5.037 3.097-1.244 2.93 2.625 3.63 4.508 2.546 1.303-.75 2.334-2.363 2.656-5.097 1.188 3.25.942 5.544-.723 6.877-1.096.874-1.97.775-3.293.803l-10.197.166c-2.275.04-3.984.072-5.982 1.408-1.47.988-2.722 2.42-3.795 4.253l1.62.192z" fill="#e62d2d" fill-rule="evenodd"/><path d="M603.89 249.73h8.862v-5.244h-.895v-10.233h2.615v10.233h-.864v5.243h8.895v-5.5h-1.69v-11.843l-3.79-3.693h-7.78l-3.665 3.693v11.844h-1.69v5.5zM624.86 249.73h7.65l5.105-9.447v4.203h-1.502v5.243h8.35v-5.5h-1.432v-15.536h-5.547l-5.766 10.548v-5.112h1.688v-5.436h-8.544v5.56h1.44v9.977h-1.44v5.5zM646.883 249.73h9.215v-5.5h-1.433v-9.977h1.433v-5.56h-9.215v5.56h1.44v9.978h-1.44v5.5zM661.707 249.73h7.648l3.705-3.694v-4.52h-5.93v2.715h-2.746v-9.915h2.746v3.06h5.93v-4.988l-3.922-3.693h-7.43l-3.728 3.755v13.71l3.727 3.57zM683.86 239.62h1.43l-.667 2.213-.763-2.214zm-9.08-10.926v5.56h1.75l5.23 15.475h5.99l4.84-15.477h1.916v-5.56h-8.957V234h1.37l-.384 1.165h-3.983l-.413-1.165h1.307v-5.304h-8.668z" fill="#363990"/><path d="M649.77 325.622c.096-.017.187.048.204.144.017.097-.05.188-.144.205-.097.018-.19-.047-.204-.144-.017-.096.047-.187.143-.204M649.568 324.792c.096-.017.187.048.205.144.016.097-.05.188-.145.204-.096.017-.187-.047-.204-.144-.016-.096.048-.187.144-.204M649.915 326.463c.096-.017.187.048.204.144.016.097-.05.188-.145.204-.096.02-.188-.046-.205-.142-.015-.097.048-.188.145-.205M650.524 329.86c.096-.016.188.05.205.145.015.097-.05.188-.146.205-.096.016-.188-.05-.204-.145-.016-.096.048-.187.144-.204M650.676 330.748c.096-.017.187.048.204.144.017.096-.048.188-.144.204-.096.017-.188-.048-.204-.144-.016-.096.048-.188.144-.204M650.84 331.62c.095-.016.186.05.203.145.017.096-.048.188-.144.204-.098.016-.19-.05-.205-.145-.016-.096.047-.188.144-.204M650.997 332.47c.096-.016.187.05.205.145.016.096-.05.188-.145.204-.096.016-.187-.05-.204-.145-.016-.096.048-.187.144-.204M651.142 333.31c.096-.016.187.05.204.145.016.096-.048.188-.144.204-.096.015-.188-.05-.205-.145-.017-.096.05-.188.145-.204M651.29 334.174c.097-.017.188.048.204.144.018.097-.048.188-.143.204-.095.017-.188-.047-.203-.143-.017-.098.047-.19.144-.206M651.486 335.01c.096-.016.187.05.203.145.017.096-.048.188-.144.204-.096.016-.188-.05-.204-.144-.017-.097.048-.188.144-.205M651.653 335.878c.096-.017.187.048.204.144.017.096-.048.188-.144.204-.097.017-.188-.047-.205-.143-.015-.097.05-.188.145-.205M651.85 336.73c.097-.017.188.048.205.144.017.096-.048.188-.144.204-.095.017-.187-.048-.203-.144-.016-.096.048-.187.144-.204M652.05 337.597c.095-.017.186.048.202.144.018.097-.047.19-.143.205-.098.017-.19-.048-.205-.143-.017-.097.048-.188.144-.205M652.247 338.42c.096-.018.187.047.204.143.018.096-.047.188-.143.204-.096.017-.188-.048-.205-.143-.015-.097.05-.188.145-.205M652.43 339.24c.096-.016.187.05.203.145.018.096-.048.188-.143.204-.096.016-.188-.05-.204-.144-.017-.097.048-.188.144-.205M652.58 340.078c.098-.017.188.048.205.144.017.096-.048.188-.144.204-.095.017-.186-.048-.203-.143-.016-.097.048-.188.144-.205M652.764 340.93c.096-.017.187.048.204.144.017.096-.048.188-.144.204-.096.017-.187-.048-.204-.143-.016-.097.048-.188.144-.205M652.947 341.767c.096-.017.187.048.203.144.018.097-.047.19-.143.205-.096.017-.188-.048-.204-.143-.017-.097.048-.188.144-.205M653.16 342.527c.095-.017.187.048.204.144.017.098-.05.19-.145.206-.097.016-.188-.048-.205-.144-.016-.097.048-.188.144-.205M653.266 342.908c.096-.017.187.048.204.144.017.096-.05.188-.144.204-.096.017-.188-.048-.204-.143-.016-.097.048-.188.144-.205M650.35 328.985c.096-.017.187.048.203.144.018.096-.047.187-.143.204-.097.017-.188-.048-.205-.144-.016-.097.05-.188.145-.205M650.06 327.304c.096-.017.187.048.203.144.017.096-.047.188-.144.204-.097.017-.188-.048-.205-.144-.016-.096.048-.187.144-.204M650.205 328.144c.096-.017.187.048.203.144.018.097-.047.188-.143.205-.097.017-.188-.048-.204-.145-.016-.096.048-.187.145-.204M653.577 326.142c.097.003.174.085.17.183-.004.097-.086.175-.183.17-.098-.003-.174-.085-.17-.183.003-.097.084-.173.183-.17M653.478 329.593c.097.003.174.085.17.183-.003.097-.085.174-.182.17-.098-.003-.174-.085-.17-.183.003-.097.085-.174.182-.17M653.447 330.492c.097.003.173.085.17.183-.004.098-.086.174-.183.17-.098-.003-.174-.085-.17-.183.003-.097.084-.173.183-.17M653.427 331.38c.097.003.174.085.17.183-.003.098-.085.174-.183.17-.098-.003-.174-.085-.17-.183.004-.097.085-.173.183-.17M653.41 332.244c.096.003.173.085.17.183-.004.097-.087.174-.184.17-.097-.003-.174-.085-.17-.183.004-.097.085-.173.183-.17M653.378 333.096c.1.003.174.085.17.183-.002.096-.084.173-.182.17-.097-.004-.174-.086-.17-.184.003-.097.085-.173.182-.17M653.348 333.972c.097.003.174.085.17.183-.004.098-.085.174-.182.17-.1-.003-.174-.085-.17-.183.002-.097.084-.173.182-.17M653.368 334.83c.098.003.174.085.17.182-.002.098-.085.174-.183.17-.097-.002-.173-.084-.17-.182.004-.098.086-.173.183-.17M653.355 335.714c.098.003.174.085.17.182-.003.098-.085.174-.182.172-.097-.004-.174-.086-.17-.184.003-.098.085-.173.182-.17M653.374 336.588c.097.003.175.085.17.183-.003.098-.084.175-.182.172-.097-.004-.174-.086-.17-.183.003-.1.085-.175.182-.172M653.39 337.477c.098.003.175.085.17.183-.002.097-.084.174-.182.17-.097-.003-.174-.085-.17-.182.004-.098.086-.174.183-.17M653.417 338.322c.098.003.174.085.17.183-.002.097-.085.174-.183.17-.097-.003-.173-.085-.17-.182.004-.098.086-.174.183-.17M653.428 339.164c.097.003.174.085.17.183-.003.097-.085.174-.182.17-.098-.003-.175-.085-.17-.183.003-.098.083-.173.182-.17M653.407 340.015c.096.003.172.085.17.183-.004.097-.086.173-.183.17-.098-.003-.174-.085-.172-.183.004-.098.086-.173.185-.17M653.41 340.886c.097.003.175.085.17.182-.003.098-.085.175-.182.172-.098-.004-.173-.086-.17-.183.003-.098.085-.174.183-.17M653.418 341.742c.097.003.174.085.17.183-.003.097-.086.174-.182.17-.1-.003-.174-.085-.17-.182.003-.098.084-.174.182-.17" fill="#25201f"/><path d="M653.472 342.53c.097.004.174.086.17.184-.003.097-.086.174-.183.17-.097-.003-.174-.085-.17-.182.003-.098.084-.174.182-.17M653.498 342.925c.097.003.173.085.17.182-.003.098-.086.175-.183.172-.098-.005-.174-.087-.17-.184.004-.098.084-.174.183-.17M653.486 328.7c.1.003.175.084.17.182-.002.098-.084.174-.182.17-.097-.003-.174-.085-.17-.182.003-.098.085-.174.182-.17M653.546 326.995c.098.003.174.085.172.183-.004.097-.087.173-.185.17-.097-.003-.174-.085-.17-.183.004-.097.086-.174.183-.17M653.516 327.847c.097.003.174.085.17.182-.003.097-.085.173-.183.17-.096-.003-.174-.085-.17-.183.004-.097.085-.174.183-.17M656.933 329.925c.095.026.15.124.123.218-.027.095-.124.15-.218.123-.094-.027-.15-.125-.122-.22.026-.092.123-.147.217-.12M656.69 330.79c.094.027.148.125.122.22-.027.093-.124.148-.22.12-.093-.025-.148-.123-.12-.217.026-.093.123-.148.217-.122M656.46 331.65c.094.025.15.123.122.217-.027.094-.124.15-.218.122-.094-.028-.15-.125-.122-.22.027-.094.123-.148.218-.12M656.236 332.484c.094.026.15.124.122.218-.027.094-.124.15-.218.122-.094-.027-.15-.124-.123-.218.026-.094.124-.148.22-.122M656.004 333.305c.093.026.15.124.122.218-.027.094-.124.15-.218.122-.094-.027-.15-.125-.122-.218.025-.095.123-.15.218-.122M655.766 334.147c.094.026.15.124.122.218-.027.094-.124.15-.218.122-.094-.027-.15-.124-.122-.218.027-.095.124-.15.218-.123M655.58 334.986c.095.026.15.124.123.218-.026.094-.124.15-.217.122-.095-.027-.15-.124-.124-.218.027-.094.125-.148.22-.122M655.358 335.84c.094.027.15.125.123.22-.026.093-.124.148-.22.12-.092-.026-.147-.123-.12-.217.027-.094.124-.148.218-.122M655.17 336.695c.092.026.147.124.12.218-.025.094-.123.15-.217.122-.094-.027-.15-.124-.123-.218.027-.094.125-.148.22-.122M654.973 337.563c.094.026.148.124.122.218-.026.095-.124.15-.218.123-.094-.027-.15-.124-.122-.218.027-.094.124-.148.218-.122M654.798 338.39c.093.025.15.123.123.217-.026.094-.124.15-.218.122-.094-.028-.15-.125-.123-.22.026-.093.124-.147.218-.12M654.61 339.21c.092.026.147.124.12.218-.026.094-.124.15-.217.122-.095-.027-.15-.124-.123-.218.027-.095.124-.148.22-.122M654.384 340.03c.095.027.15.125.122.22-.026.093-.123.148-.218.12-.094-.026-.15-.124-.123-.217.027-.095.125-.15.22-.122M654.182 340.878c.093.026.148.124.12.218-.025.094-.123.15-.217.122-.094-.027-.148-.124-.122-.218.027-.095.125-.148.22-.122M653.985 341.712c.095.026.15.124.123.218-.027.094-.125.148-.22.122-.093-.027-.148-.125-.12-.218.026-.095.124-.15.217-.122" fill="#25201f"/><path d="M653.85 342.49c.093.026.15.124.122.218-.027.094-.125.15-.22.122-.092-.027-.148-.124-.12-.218.026-.094.124-.148.217-.122M653.782 342.88c.095.025.15.123.122.217-.026.094-.123.15-.218.122-.094-.028-.15-.125-.122-.22.027-.093.124-.147.218-.12M657.155 329.06c.094.026.148.124.12.217-.025.094-.122.15-.216.123-.095-.026-.15-.124-.123-.22.027-.092.124-.147.218-.12M657.518 327.66c.094.027.15.125.122.22-.027.093-.124.148-.218.12-.094-.026-.15-.124-.122-.217.027-.094.123-.15.218-.122M657.386 328.238c.094.027.15.124.122.218-.027.094-.124.15-.218.122-.094-.027-.15-.124-.122-.218.027-.094.124-.148.218-.122" fill="#25201f"/></g></svg>