<svg xmlns="http://www.w3.org/2000/svg" width="400" height="102.574"><g fill-rule="evenodd"><path d="M120.112 6.283h16.7v56.195c0 6.083.928 10.718 2.475 12.746 1.546 2.317 4.948 3.475 8.968 3.475s7.114-.87 8.66-3.187c1.855-2.317 2.783-6.952 2.783-13.325V6.283h16.082v57.354c0 5.503-.31 9.848-.618 12.455-.62 2.317-2.165 4.925-4.02 6.662-2.166 2.897-5.568 5.214-9.278 6.663-3.712 1.448-8.66 2.317-13.918 2.317-9.896 0-17.32-2.317-21.34-6.083-4.02-4.054-6.494-11.586-6.494-22.013V6.283zm86.905 36.498h7.113c4.948 0 8.66-1.158 10.824-2.895 1.855-1.45 3.093-4.925 3.093-9.56 0-4.634-1.238-8.11-2.783-9.558-1.856-1.74-5.876-2.897-11.134-2.897h-7.113v24.91zm-16.082 46.927V6.283h29.07c8.66 0 15.155 1.74 18.866 5.215 3.712 4.055 5.877 10.138 5.877 18.538 0 8.11-2.165 14.483-6.185 18.25-4.02 3.764-10.825 5.792-18.865 5.792h-12.062v35.63h-16.7zm80.1-41.712c0 13.614.928 22.593 2.165 25.78 1.856 3.476 4.948 5.214 9.588 5.214 4.64 0 8.04-1.74 9.587-5.215 1.855-3.187 2.783-12.166 2.783-25.78s-.928-22.593-2.783-26.07c-1.547-3.476-4.948-5.503-9.587-5.503-4.64 0-7.732 2.027-9.28 5.214-1.545 3.766-2.473 12.745-2.473 26.36zm-17.01 0c0-8.69.618-15.932 1.237-21.145.928-5.214 2.165-9.27 4.02-11.877 2.475-3.765 5.877-6.662 9.28-8.4 3.4-1.448 8.658-2.317 14.226-2.317 5.876 0 10.515.87 14.226 2.317 3.402 1.738 6.804 4.635 9.587 8.4 1.547 2.607 3.403 6.663 4.02 11.877.93 5.213 1.547 12.455 1.547 21.145s-.617 15.93-1.546 21.145c-.926 5.214-2.473 9.27-4.02 12.166-2.782 3.766-5.875 6.373-9.277 7.822-3.71 1.737-8.66 2.606-14.535 2.606-5.568 0-10.516-.87-13.918-2.317-3.402-1.738-7.113-4.345-9.587-8.11-1.856-2.898-3.093-6.953-3.712-12.167-.927-5.214-1.544-12.456-1.544-21.145zm71.44 41.712V6.283h16.702v69.23h30v14.194h-46.7zm58.144 0V6.283H400v83.424h-16.39z" fill="#292929"/><path d="M45.707 55.383c1.206 0 2.19.985 2.19 2.19 0 1.208-.984 2.192-2.19 2.192-1.207 0-2.19-.984-2.19-2.19 0-1.207.983-2.192 2.19-2.192zm-2.03 13.402l2.342-6.022c-3.738.032-5.236-2.74-5.424-4.788-.242-2.632 1.803-5.662 5.226-5.536 3.554.13 5.907 3.604 4.902 6.566l-3.584 9.78h-3.462zm12.52-3.046c-1.208 0-2.192-.985-2.192-2.192 0-1.206.984-2.19 2.19-2.19 1.207 0 2.19.984 2.19 2.19 0 1.207-.983 2.19-2.19 2.19zm2.115-13.402l-2.43 6.02c3.74-.03 5.236 2.742 5.425 4.79.242 2.63-1.804 5.66-5.227 5.535-3.555-.13-5.906-3.604-4.9-6.567l3.574-9.774 3.558-.006zm1.214 50.233c.976-6.925-4.285-9.917-7.8-9.832-3.516.084-9.228 3.028-7.816 9.836-5.583-.867-9.434-2.25-14.427-4.52 4.098-4.222 2.77-10.048-.928-12.62-2.623-1.823-9.732-2.254-11.99 3.923-2.6-2.555-8.316-9.18-9.208-11.456 5.973-1.638 7.53-7.053 5.913-11.104-1.5-3.76-6.29-6.786-11.91-3.413-.82-3.61-1.23-7.22-1.36-10.83l22.48-.008c1.666 19.034 16.543 28.038 29.26 28.09 13.093.052 27.783-9.21 29.357-28.082h22.443c.054 4.9-.92 9.353-1.21 10.744-5.354-3.173-10.252-.304-12.09 3.51-1.837 3.81.21 9.693 6.152 11.027-2.774 4.788-5.67 7.67-9.398 11.504-2.847-5.684-8.443-6.204-11.97-3.675-3.525 2.53-5.338 8.13-1.02 12.476-3.924 2.048-8.95 3.382-14.478 4.43zm2.058-33.76l4.93-13.345-6.052-.02 1.107-2.836 9.222.013-5.584 16.173-3.624.014zm-26.194-.05V52.544h3.193L38.58 68.76h-3.19zm65.927-19.115L2.31 49.637.137 46.573c13.29 2.57 25.704-4.22 37.572-4.333 5.01-.047 9.992 1.714 14.02 4.377 5.28-2.72 8.182-4.31 14.306-4.283 11.948.052 25.006 7.307 37.398 4.283l-2.117 3.027zm-35.65-10.428c-4.298 0-8.393 1.058-13.938 4.46-1.325-.82-7.32-4.345-13.915-4.434-12.71-.172-22.19 7.165-37.278 4.482l16.45-38.108c3.34 0 4.955.56 8.202-1.06 4.6-2.293 17.824-7.6 26.54-1.92 9.547-5.836 20.834-.502 25.44 1.857 3.168 1.622 6.395 1.608 9.412 1.1l16.462 38.084c-14.586 2.957-26.988-4.46-37.378-4.46" fill="#b0142b"/></g></svg>