<svg xmlns="http://www.w3.org/2000/svg" width="430" height="87.251"><path d="M82.855 7.512h-26.82l-14.76 34.544s-2.752 7.81-8.44 7.81c0 0-6.77 1.093-3.39-5.645L48.45.338H21.852L1.186 48.357s-8.25 14.986 18.772 16.95h14.127s23.196.298 32.29-20.43L82.855 7.51zM132.92 7.512L120.26 36.4 113.718 7.51H87.97L62.66 63.554h25.947l13.08-28.45 6.114 28.676H134.6l24.697-56.268H132.92zM175.89 44.66l8.43-19.335s2.125-5.436 8.235-4.348c0 0 4 1.524 2.54 4.788l-8.235 19.11s-1.898 4.785-8.026 4.992c0 0-5.898.437-2.943-5.206M196.557 5.76s-1.178-.11-3.17-.083c-7.893.125-28.532 2.647-38.824 24.852 0 0-17.082 29.425 2.835 33.046 0 0 2.944 1.438 14.71 1.735 0 0 4.17.24 9.927-.474 9.365-1.156 22.93-4.826 29.737-16.26 0 0 8.866-14.117 11.6-26.298 0 0 6.737-16.72-26.814-16.518M229.894 49.112c.806 1.83 1.93 3.154 3.388 3.975 1.438.832 3.203 1.242 5.277 1.242 3.255 0 6.496-1.503 9.726-4.5 3.222-2.992 6.15-7.497 8.805-13.483 2.496-5.687 3.513-9.982 3.038-12.892-.463-2.902-2.266-4.355-5.375-4.355-4.11 0-8.963 2.552-14.643 7.683l-10.216 22.33zm15.298-33.457c2.533-1.867 4.96-3.222 7.27-4.057 2.283-.82 4.576-1.224 6.895-1.224 6.12 0 9.787 2.406 11.048 7.205 1.313 4.618.282 10.885-3.12 18.767-3.562 8.22-8.3 14.745-14.26 19.567-6.083 4.844-12.053 7.272-17.917 7.272-2.36 0-4.34-.29-5.948-.896-1.592-.598-2.932-1.547-3.97-2.875L212.46 87.25h-10.348l33.03-71.045 11.956-4.732-1.908 4.182z" fill="#0068b0"/><path d="M305.06 31.04c.89-3.995.742-6.972-.48-8.967-1.217-1.97-3.276-2.974-6.133-2.974-2.827 0-5.662.98-8.53 2.954-2.83 1.957-5.477 4.954-7.897 8.985h23.04zm-23.93 32.146c-7.027 0-11.785-2.293-14.2-6.938-2.203-4.758-1.54-11.232 2-19.45 1.793-4.155 3.875-7.822 6.273-11.006 2.386-3.18 5.07-5.96 8.032-8.274 6.15-4.758 12.396-7.14 18.806-7.14 6.574 0 10.914 2.34 13.045 7 2.156 4.627 1.603 11.105-1.694 19.42l-1.193 3.038h-34.235c-1.61 4.99-1.77 8.65-.407 10.984 1.355 2.334 3.776 3.508 7.235 3.508 1.344 0 2.673-.16 4-.47 1.326-.33 2.685-.873 4.078-1.656 2.605-1.382 4.555-3.614 5.85-6.738h10.457c-3.14 6.007-7.246 10.48-12.313 13.457-5.033 2.854-10.27 4.266-15.73 4.266" fill="#a8d26d"/><path d="M325.38 62.506c-2.56.535-4.95.813-7.18.813-1.784 0-3.263-.19-4.422-.588-1.16-.376-2.052-.915-2.688-1.607-.606-.674-1.024-1.495-1.2-2.428-.17-.95-.17-1.946.04-3.004.35-1.912 1.235-4.67 2.64-8.247l10.4-26.572h-5.5l3.467-8.782h5.473l2.876-7.344 11.492-4.75-4.633 12.094h7.17l-3.323 8.782h-7.205l-10.355 26.99c-1.17 3.026-1.596 4.938-1.292 5.71l.03-.076c.32.685 1.032 1.04 2.225 1.04.685 0 1.46-.038 2.3-.114.843-.056 1.814-.203 2.895-.444l-3.21 8.526zM367.525 22.176c-1.604-.497-3.43-.734-5.49-.734-1.866 0-3.748.467-5.68 1.472-1.922.978-3.947 2.518-6.078 4.63L337.385 62.62h-10.14l17.197-45.797 11.51-4.73-1.768 4.798c2.266-1.926 4.49-3.372 6.655-4.388 2.164-1 4.215-1.51 6.14-1.51.665 0 1.362.046 2.054.14.697.09 1.446.222 2.285.406l-3.795 10.638zM378.562 54.33c3.636 0 7.065-1.465 10.287-4.394 3.176-2.932 5.717-7.306 7.64-13.137 1.943-5.847 2.312-10.262 1.11-13.236-1.2-2.98-3.548-4.464-7.102-4.464-3.534 0-6.903 1.483-10.092 4.464-3.233 2.974-5.86 7.39-7.905 13.235-2.02 5.83-2.45 10.204-1.222 13.136 1.212 2.93 3.644 4.393 7.284 4.393m14.91-43.956c6.553 0 11.074 2.342 13.544 7.005 2.503 4.626 2.428 11.104-.25 19.42-2.64 8.216-6.76 14.672-12.417 19.377-2.85 2.357-5.824 4.088-8.91 5.25-3.09 1.18-6.378 1.76-9.878 1.76-6.896 0-11.59-2.338-14.033-7.01-1.195-2.318-1.707-5.104-1.61-8.296.107-3.217.89-6.895 2.373-11.08 2.996-8.372 7.295-14.85 12.866-19.42 5.555-4.664 11.65-7.006 18.312-7.006M410.546 62.93h-10.084l18.482-57.936L430 .24l-19.454 62.69z" fill="#0068b0"/></svg>