<svg xmlns="http://www.w3.org/2000/svg" xmlns:xlink="http://www.w3.org/1999/xlink" width="400" height="457.615"><defs><radialGradient id="a" spreadMethod="pad" gradientTransform="matrix(20.6 0 0 21 59.9 527.3)" gradientUnits="userSpaceOnUse" r="1" cy="0" cx="0" fy="0" fx="0"><stop offset="0" stop-color="#f2f1f3"/><stop offset="1" stop-color="#d6d9dc"/></radialGradient><linearGradient id="b" gradientTransform="matrix(2 0 0 2 59.8 518.5)" gradientUnits="userSpaceOnUse" x2="1"><stop offset="0" stop-color="#3f3f19"/><stop offset=".016" stop-color="#999b37"/><stop offset="1" stop-color="#3f3f19"/></linearGradient><linearGradient id="c" gradientTransform="matrix(12 0 0 12 49.8 533.9)" gradientUnits="userSpaceOnUse" x2="1"><stop offset="0" stop-color="#3f3f19"/><stop offset=".5" stop-color="#999b37"/><stop offset="1" stop-color="#3f3f19"/></linearGradient><linearGradient id="d" gradientTransform="matrix(34.3 0 0 34.3 43.3 535.8)" gradientUnits="userSpaceOnUse" x2="1"><stop offset="0" stop-color="#3f3f19"/><stop offset=".5" stop-color="#999b37"/><stop offset="1" stop-color="#3f3f19"/></linearGradient><linearGradient id="e" gradientTransform="matrix(34.5 0 0 34.5 43.3 536.1)" gradientUnits="userSpaceOnUse" x2="1"><stop offset="0" stop-color="#3f3f19"/><stop offset=".5" stop-color="#999b37"/><stop offset="1" stop-color="#3f3f19"/></linearGradient><linearGradient id="f" gradientTransform="matrix(34.8 0 0 34.8 43.2 536.1)" gradientUnits="userSpaceOnUse" x2="1"><stop offset="0" stop-color="#3f3f19"/><stop offset=".5" stop-color="#999b37"/><stop offset="1" stop-color="#3f3f19"/></linearGradient><linearGradient id="g" gradientTransform="matrix(34.9 0 0 34.9 43 536.1)" gradientUnits="userSpaceOnUse" x2="1"><stop offset="0" stop-color="#3f3f19"/><stop offset=".5" stop-color="#999b37"/><stop offset="1" stop-color="#3f3f19"/></linearGradient><linearGradient id="h" gradientTransform="matrix(6.1 0 0 6.1 49.7 538.6)" gradientUnits="userSpaceOnUse" x2="1"><stop offset="0" stop-color="#3f3f19"/><stop offset=".5" stop-color="#999b37"/><stop offset="1" stop-color="#3f3f19"/></linearGradient><linearGradient id="i" gradientTransform="matrix(5.9 0 0 5.9 49.8 538.6)" gradientUnits="userSpaceOnUse" x2="1"><stop offset="0" stop-color="#3f3f19"/><stop offset=".5" stop-color="#999b37"/><stop offset="1" stop-color="#3f3f19"/></linearGradient><radialGradient id="j" spreadMethod="pad" gradientTransform="matrix(1.9 0 0 1.9 52.8 538.6)" gradientUnits="userSpaceOnUse" r="1" cy="0" cx="0" fy="0" fx="0"><stop offset="0" stop-color="#fff"/><stop offset="1" stop-color="#c2c0d3"/></radialGradient><radialGradient id="k" spreadMethod="pad" gradientTransform="matrix(1.1 0 0 1.1 56.5 536.4)" gradientUnits="userSpaceOnUse" r="1" cy="0" cx="0" fy="0" fx="0"><stop offset="0" stop-color="#fff"/><stop offset="1" stop-color="#c2c0d3"/></radialGradient><radialGradient id="l" spreadMethod="pad" gradientTransform="matrix(1 0 0 1 56.5 536.4)" gradientUnits="userSpaceOnUse" r="1" cy="0" cx="0" fy="0" fx="0"><stop offset="0" stop-color="#fff"/><stop offset="1" stop-color="#c2c0d3"/></radialGradient><radialGradient id="m" spreadMethod="pad" gradientTransform="matrix(.6 0 0 .6 56.5 536.4)" gradientUnits="userSpaceOnUse" r="1" cy="0" cx="0" fy="0" fx="0"><stop offset="0" stop-color="#fff"/><stop offset="1" stop-color="#c2c0d3"/></radialGradient><radialGradient id="n" spreadMethod="pad" gradientTransform="matrix(0 0 0 0 -11.4 443.5)" gradientUnits="userSpaceOnUse" r="1" cy="0" cx="0" fy="0" fx="0"><stop offset="0" stop-color="#fff"/><stop offset="1" stop-color="#c2c0d3"/></radialGradient><radialGradient id="o" spreadMethod="pad" gradientTransform="matrix(.7 0 0 .7 60.8 531.6)" gradientUnits="userSpaceOnUse" r="1" cy="0" cx="0" fy="0" fx="0"><stop offset="0" stop-color="#fff"/><stop offset="1" stop-color="#c2c0d3"/></radialGradient><radialGradient xlink:href="#a" id="p" gradientUnits="userSpaceOnUse" gradientTransform="matrix(147.5 0 0 -150.4 962.9 720.4)" spreadMethod="pad" cx="0" cy="0" fx="0" fy="0" r="1"/><linearGradient xlink:href="#b" id="q" gradientUnits="userSpaceOnUse" gradientTransform="matrix(14.3 0 0 -14.3 961.5 783.1)" x2="1"/><linearGradient xlink:href="#c" id="r" gradientUnits="userSpaceOnUse" gradientTransform="matrix(86.2 0 0 -86.2 890.2 672.6)" x2="1"/><linearGradient xlink:href="#d" id="s" gradientUnits="userSpaceOnUse" gradientTransform="matrix(246.4 0 0 -246.4 843.8 659.1)" x2="1"/><linearGradient xlink:href="#e" id="t" gradientUnits="userSpaceOnUse" gradientTransform="matrix(247.8 0 0 -247.8 843.1 657.2)" x2="1"/><linearGradient xlink:href="#f" id="u" gradientUnits="userSpaceOnUse" gradientTransform="matrix(249.4 0 0 -249.4 842.6 656.6)" x2="1"/><linearGradient xlink:href="#g" id="v" gradientUnits="userSpaceOnUse" gradientTransform="matrix(250.6 0 0 -250.6 841.7 657)" x2="1"/><linearGradient xlink:href="#h" id="w" gradientUnits="userSpaceOnUse" gradientTransform="matrix(44 0 0 -44 889.6 639.2)" x2="1"/><linearGradient xlink:href="#i" id="x" gradientUnits="userSpaceOnUse" gradientTransform="matrix(42.6 0 0 -42.6 890.4 639)" x2="1"/><radialGradient xlink:href="#j" id="y" gradientUnits="userSpaceOnUse" gradientTransform="matrix(13.4 0 0 -13.4 911.7 639)" spreadMethod="pad" cx="0" cy="0" fx="0" fy="0" r="1"/><radialGradient xlink:href="#k" id="z" gradientUnits="userSpaceOnUse" gradientTransform="matrix(7.6 0 0 -7.6 938.1 654.8)" spreadMethod="pad" cx="0" cy="0" fx="0" fy="0" r="1"/><radialGradient xlink:href="#l" id="A" gradientUnits="userSpaceOnUse" gradientTransform="matrix(6.9 0 0 -6.9 938.1 654.8)" spreadMethod="pad" cx="0" cy="0" fx="0" fy="0" r="1"/><radialGradient xlink:href="#m" id="B" gradientUnits="userSpaceOnUse" gradientTransform="matrix(4.5 0 0 -4.5 938.3 654.9)" spreadMethod="pad" cx="0" cy="0" fx="0" fy="0" r="1"/><radialGradient xlink:href="#n" id="C" gradientUnits="userSpaceOnUse" gradientTransform="matrix(0 0 0 0 450.9 1321.5)" spreadMethod="pad" cx="0" cy="0" fx="0" fy="0" r="1"/><radialGradient xlink:href="#o" id="D" gradientUnits="userSpaceOnUse" gradientTransform="matrix(4.9 0 0 -4.9 968.9 689.5)" spreadMethod="pad" cx="0" cy="0" fx="0" fy="0" r="1"/></defs><path d="M395.978 354.182c0 25.437-20.586 46.06-45.994 46.06H96.394c-25.402 0-45.995-20.623-45.995-46.06V98.892c0-25.445 20.592-46.053 45.993-46.053h253.59c25.41 0 45.995 20.607 45.995 46.05v255.292z" fill="#999b37"/><path d="M380.52 343.01c0 23.048-18.648 41.725-41.652 41.725H109.17c-23.01 0-41.652-18.677-41.652-41.725V111.778c0-23.04 18.64-41.718 41.653-41.718H338.87c23.004 0 41.653 18.678 41.653 41.718V343.01z" fill="#fff"/><path d="M380.52 343.01h-1.65c0 11.072-4.47 21.082-11.717 28.343-7.24 7.254-17.235 11.732-28.285 11.74H109.17c-11.05-.008-21.044-4.486-28.292-11.74-7.24-7.26-11.717-17.27-11.717-28.343V111.778c0-11.072 4.478-21.082 11.718-28.336 7.248-7.254 17.243-11.74 28.293-11.74H338.87c11.05 0 21.045 4.486 28.285 11.74 7.247 7.254 11.718 17.264 11.718 28.336V343.01H382.165V111.778c0-23.945-19.38-43.368-43.296-43.368H109.17c-23.922 0-43.302 19.423-43.302 43.368V343.01c0 23.952 19.38 43.368 43.303 43.375H338.87c23.916-.007 43.296-19.423 43.296-43.375h-1.643z" fill="#999b37"/><path d="M855.368 571.076c-21.534 0-38.99 17.738-38.99 39.608v219.523c0 21.863 17.456 39.615 38.99 39.615h215.08c21.534 0 39.006-17.752 39.006-39.615V610.684c0-21.87-17.472-39.608-39.005-39.608H855.367z" fill="url(#p)" transform="translate(-740 -492.1)"/><path d="M369.45 338.1h-2.326c0 10.318-4.104 19.632-10.756 26.384-6.644 6.752-15.793 10.913-25.924 10.913H115.377c-10.132 0-19.28-4.16-25.925-10.913-6.644-6.752-10.755-16.066-10.755-26.384V118.584c0-10.31 4.11-19.624 10.748-26.376 6.652-6.745 15.8-10.9 25.932-10.907h215.067c10.13.008 19.28 4.163 25.932 10.908 6.644 6.752 10.748 16.065 10.748 26.376V338.1h4.649V118.584c-.043-23.133-18.477-41.918-41.33-41.925H115.377c-22.86.006-41.287 18.79-41.323 41.924V338.1c.036 23.133 18.462 41.933 41.323 41.94h215.067c22.853-.007 41.287-18.807 41.33-41.94h-2.325z" fill="#939598"/><path d="M961.527 700.14l.46 11.272V866.17l1.262.918 1.24.03 1.14-.008c.748.15 1.408.76 2.09.796l1.155-.38 1.62-.753 1.142.983c.69.43 1.622.043 2.397-.38.696-.374 1.808-1.206 1.808-1.206l-.567-168.22-13.748 2.19z" fill="url(#q)" transform="translate(-740 -492.1)"/><path d="M893.598 629.677c-2.275 1.37-3.78 4.478-3.86 7.205-.022 1.628-.094 3.264 0 4.958.08.947.208 1.9.552 2.72.775 1.83 2.54 3.185 4.39 3.867 2.814 1.09 5.813.602 8.784.545 1.557-.022 3.12.057 4.67.15 2.706.137 5.383.288 7.952-.15 2.913-.474 5.647-1.636 8.797-2.174 2.604-.474 5.51-.603 7.117-2.24 2.31-2.238 2.175-7.41 0-10.46-1.298-1.837-3.372-2.85-5.46-3.265-4.542-.947-9.27 1.09-13.74 1.09-3.452 0-6.724-1.227-10.405-2.246-1.722-.46-3.53-.853-5.224-.853-1.283 0-2.517.23-3.572.853m44.76 19.704c-1.952.546-3.574 1.967-5.195 3.395l-.617.273c-1.005.552-2.095.947-2.77 1.9-.868 1.156-1.112 3.122-.3 4.285.673.947 2.087 1.284 3.378 1.22 2.332-.144 4.205-1.565 6.437-1.845.71-.086 1.486-.057 2.254-.014 1.385.057 2.777.115 3.86-.58 1.112-.755 1.894-2.312 1.83-3.74-.108-1.635-1.486-3.056-3.086-3.94-1.29-.767-2.72-1.16-4.09-1.16l-1.7.207zm33.28 39.458l-1.15.955-1.613-.818-1.127-.33c-.71 0-1.35.61-2.088.74h-2.404l-1.24 1.017 13.82 25.882v-25.882c-.54-.4-1.106-.81-1.78-1.22l-1.694-.552-.725.208z" fill="url(#r)" transform="translate(-740 -492.1)"/><path d="M989.353 590.844c-18.72 5.403-28.888 12.02-47.128 12.52-8.036.23-17.622-.723-27.61-1.678-26.528-2.547-55.925-5.094-66.66 14.437-6.098 11.072-6.177 29.24 6.186 36.56 11.553 6.844 34.012 4.182 36.79 12.204 1.498 4.32-2.742 11.767-8.332 16.503-6.687 5.662-15.32 7.455-18.04 12.012-3.515 5.855 2.75 16.28 10.47 23.255 18.068 16.38 43.985 13.84 59.59 1.493 4.278-3.387 9.387-5.74 27.368-6.738l13.856 4.893c8.962 3.882 17.32 7.886 23.384 4.248 8.733-5.216 12.765-26.204 21.268-27.81 4.786-.913 10.993 4.34 17.895 9.614 7.282 5.56 15.347 11.13 23.312 9.385 9.306-2.03 18.455-14.057 16.82-23.55-1.637-9.392-13.785-16.33-11.16-25.465 2.965-10.368 24.964-23.557 22.87-30.43-2.42-8.008-37.205-7.513-48.937-14.114-11.172-6.293-1.485-19.008-2.124-25.932-.48-5.237-6.858-7.153-15.533-7.153-10.225 0-23.636 2.684-34.284 5.747" fill="url(#s)" transform="translate(-740 -492.1)"/><path d="M221.898 217.662c-9.055.502-14.932 1.35-19.18 2.532-4.24 1.177-6.874 2.777-9.112 4.564l.007-.007c-7.642 6.05-17.932 9.688-28.45 9.68-10.147 0-20.472-3.343-29.025-11.085-6.02-5.375-11.03-13.174-10.928-18.14 0-1.205.25-2.21.76-3.064h.008c.968-1.7 3.544-3.278 6.874-4.97 3.307-1.716 7.268-3.625 10.813-6.624 5.066-4.37 9.12-10.533 9.213-15.8 0-.854-.122-1.7-.402-2.504v.007c-.97-2.735-3.43-4.285-6.278-5.34-4.32-1.578-10.053-2.238-15.808-3.2-5.733-.94-11.444-2.18-15.412-4.55-6.587-3.888-9.386-11.214-9.4-18.964-.007-5.467 1.442-11.05 3.824-15.37v-.006c3.337-6.05 8.51-9.823 15.083-12.17 6.558-2.34 14.494-3.157 22.976-3.157 17.444-.007 37.09 3.444 52.316 3.452.847 0 1.68-.015 2.497-.036 18.677-.54 29.067-7.277 47.53-12.58 10.533-3.042 23.88-5.69 33.84-5.69 4.21 0 7.805.488 10.21 1.493 2.424 1.055 3.48 2.267 3.687 4.176l.022.53c.02 1.765-.746 4.362-1.593 7.182-.833 2.835-1.73 5.927-1.737 9.048-.065 3.86 1.63 7.915 6.257 10.44 6.43 3.574 18.038 5.002 28.507 6.73 5.21.848 10.11 1.737 13.734 2.87 1.81.568 3.302 1.192 4.306 1.838 1.033.646 1.493 1.263 1.622 1.715l.072.495c.057.983-.94 2.956-2.813 5.152-2.777 3.337-7.19 7.305-11.2 11.36-3.997 4.09-7.664 8.207-8.934 12.505-.3 1.033-.438 2.052-.438 3.05.043 4.7 2.856 8.51 5.532 12.198 2.734 3.68 5.41 7.268 6.02 10.942.115.653.166 1.328.166 2.017.014 4.003-1.923 8.574-4.923 12.29-2.992 3.725-7.01 6.56-10.79 7.37-.884.194-1.78.28-2.678.28-6.163.057-12.958-4.513-19.28-9.378-3.164-2.41-6.22-4.865-9.15-6.752-2.926-1.873-5.724-3.28-8.623-3.3l-1.444.135.01-.007c-2.776.546-4.872 2.52-6.694 4.923-2.72 3.645-4.973 8.58-7.39 13.066-2.383 4.484-4.973 8.437-7.714 10.037-1.392.825-2.914 1.184-4.68 1.19-4.62.037-10.71-2.71-17.205-5.545-.84-.36-1.808.02-2.167.854-.366.84.02 1.808.854 2.167 6.48 2.776 12.707 5.783 18.52 5.82 2.217 0 4.398-.482 6.364-1.66 5.05-3.106 8.144-9.85 11.337-15.92 1.572-3.036 3.122-5.913 4.715-8.03 1.6-2.145 3.193-3.4 4.67-3.667l.826-.07c1.724-.03 4.127 1.003 6.84 2.768 4.082 2.634 8.818 6.738 13.884 10.225 5.073 3.472 10.526 6.414 16.33 6.436 1.12 0 2.254-.115 3.38-.36 4.794-1.06 9.278-4.34 12.65-8.516 3.36-4.19 5.64-9.32 5.655-14.358 0-.868-.066-1.73-.216-2.576-.854-4.8-3.947-8.682-6.61-12.335-2.71-3.65-4.928-7.03-4.892-10.245 0-.696.093-1.4.308-2.138 1.127-4.205 6.723-9.866 12.134-15.06 2.698-2.62 5.338-5.182 7.362-7.607 1.994-2.44 3.523-4.693 3.58-7.262l-.215-1.45c-.473-1.542-1.62-2.66-3.006-3.544-4.843-3-13.89-4.29-23.248-5.812-9.292-1.45-18.828-3.064-23.45-5.71-3.65-2.125-4.512-4.493-4.577-7.57-.01-2.477.767-5.318 1.6-8.117.817-2.805 1.714-5.532 1.73-8.115l-.037-.832c-.28-3.337-2.655-5.705-5.712-6.917-3.077-1.262-7.002-1.736-11.465-1.743-10.505.007-23.987 2.72-34.75 5.82-18.965 5.496-28.924 11.975-46.705 12.456-.79.02-1.593.028-2.41.028-14.768.008-34.478-3.443-52.316-3.45-8.69 0-16.963.818-24.08 3.344-7.112 2.518-13.103 6.838-16.863 13.69-2.675 4.872-4.225 10.92-4.232 16.963-.015 8.48 3.135 17.135 11.014 21.8 6.264 3.672 14.896 4.663 22.265 5.868 3.674.588 7.032 1.227 9.5 2.138 2.504.92 3.882 2.045 4.305 3.322v.007l.216 1.414c.086 3.466-3.488 9.5-8.05 13.282-3.144 2.662-6.84 4.484-10.197 6.22-3.343 1.76-6.436 3.35-8.186 6.2-.87 1.442-1.242 3.078-1.242 4.757.1 6.838 5.64 14.724 12.02 20.58 9.183 8.33 20.37 11.946 31.233 11.94 11.273 0 22.23-3.854 30.496-10.39 2.03-1.6 4.076-2.87 7.95-3.97 3.868-1.082 9.544-1.922 18.477-2.417.904-.05 1.6-.825 1.55-1.736-.05-.904-.825-1.6-1.736-1.55" fill="#999b37"/><path d="M1002.914 586.82c-7.455 1.492-14.594 3.5-20.57 5.474-7.413 2.46-13.563 4.987-19.834 6.917-5.267 1.608-10.612 2.828-16.92 3.294-6.292.46-13.74.036-21.784-.66-9.866-.882-20.55-2.124-30.825-2.49-10.482-.366-20.52.173-28.88 3.036-8.338 2.884-15.01 8.266-18.433 17.005-2.54 6.487-3.287 14.372-1.292 21.254 1.127 3.916 3.143 7.51 6.214 10.28 3.084 2.785 7.368 4.557 12.06 5.727 7.14 1.765 15.184 2.368 20.788 3.918 2.906.817 5.11 1.9 6.2 3.35 1.104 1.47 1.162 3.538.33 6.078-1.185 3.552-4.134 7.67-7.614 10.69-3.243 2.792-7.032 4.665-10.404 6.41-2.827 1.47-5.382 2.82-7.068 4.684-1.68 1.887-2.267 4.4-1.916 7.046.84 6.387 6.437 14.007 12.722 19.317 7.93 6.752 17.243 10.06 26.506 10.633h5.984c.718-.043 1.435-.1 2.153-.18 5.892-.623 11.59-2.31 16.712-4.85 2.57-1.27 4.98-2.762 7.22-4.448 2.223-1.68 4.16-3.172 7.77-4.363 4.01-1.3 9.98-2.29 19.954-2.84l13.856 4.957c3.56 1.534 7.032 3.106 10.332 4.19 3.23 1.068 6.322 1.678 9.17 1.327 2.85-.345 5.425-1.852 7.57-4.277 2.885-3.28 5.21-7.986 7.506-12.413 1.96-3.79 3.882-7.384 5.984-9.723 2.102-2.34 4.205-3.265 6.91-2.626 6.185 1.485 14.975 10.785 24.31 15.915 3.724 2.03 7.577 3.408 11.51 3.315 3.903-.122 7.885-1.96 11.272-4.85 5.467-4.65 9.457-11.933 8.955-18.556-.51-6.623-6.077-11.925-9.306-17.142-1.4-2.282-2.353-4.52-2.368-6.852-.014-2.318 1.084-4.85 3.086-7.578 2.784-3.802 7.09-7.842 10.992-11.674 2.806-2.726 5.425-5.36 7.176-7.778 1.743-2.425 2.698-4.78 1.75-6.795-.947-2.01-3.386-3.293-6.637-4.37-6.73-2.23-17.235-3.422-26.563-5.08-4.843-.86-9.357-1.858-12.8-3.136-3.46-1.284-5.612-2.89-6.774-4.714-2.368-3.717-1.14-8.603.244-13.303.904-3.042 1.844-5.934 1.722-8.438-.13-2.504-1.514-4.45-3.674-5.704-2.84-1.672-6.996-2.332-11.868-2.397l-.746-.006c-6.214 0-13.52.983-20.68 2.425" fill="url(#t)" transform="translate(-740 -492.1)"/><path d="M221.9 218.365c-10.053.552-16.138 1.535-20.38 2.913-3.845 1.248-6.047 2.95-8.25 4.606l-.007.007c-2.138 1.616-4.478 3.044-6.953 4.278-4.95 2.468-10.47 4.09-16.166 4.7-1.643.172-3.308.265-4.973.265-9.88-.007-19.953-3.135-28.413-10.332v-.006c-6.085-5.11-11.474-12.622-12.155-18.276l-.086-1.24c.007-1.773.53-3.287 1.6-4.486l-.007.007c1.377-1.558 3.773-2.885 6.6-4.335 3.35-1.736 7.27-3.645 10.727-6.622v-.007c3.688-3.208 6.752-7.477 8.094-11.41l.008-.014c.41-1.255.64-2.468.64-3.63.006-1.42-.374-2.806-1.214-3.94l-.007-.007c-1.535-1.966-4.025-3.07-7.09-3.946v-.008c-5.87-1.607-13.862-2.188-20.815-3.925-4.563-1.126-8.59-2.84-11.358-5.346-2.806-2.546-4.686-5.854-5.748-9.52-.717-2.512-1.062-5.188-1.062-7.886 0-4.24.847-8.54 2.318-12.313 3.257-8.258 9.435-13.266 17.443-16.036h.007c6.6-2.274 14.45-3.064 22.818-3.056 1.794 0 3.616.035 5.446.1 10.19.36 20.85 1.614 30.746 2.475 5.77.503 11.244.87 16.245.87 2.016 0 3.954-.06 5.805-.195 6.45-.474 11.94-1.722 17.27-3.358h.008c6.372-1.973 12.52-4.485 19.883-6.93 5.912-1.96 12.987-3.948 20.364-5.426 7.11-1.435 14.35-2.39 20.4-2.39l.68.008c4.744.05 8.683.746 11.058 2.167h.01c1.787 1.075 2.74 2.445 2.856 4.368l.01.373c.015 1.996-.803 4.644-1.664 7.528-.825 2.792-1.643 5.748-1.65 8.69 0 2.038.423 4.104 1.6 5.948 1.435 2.246 3.932 4.01 7.563 5.374h.01c3.622 1.342 8.215 2.34 13.1 3.208 9.386 1.664 19.89 2.884 26.335 5.037 3.15 1.004 5.144 2.267 5.66 3.5l.216 1.006c.03.984-.616 2.49-1.807 4.12-1.63 2.253-4.19 4.85-6.982 7.57h-.01c-3.888 3.817-8.236 7.878-11.17 11.875-2.096 2.863-3.395 5.66-3.41 8.503l.01.08 1.644-.03h-1.643c.015 2.798 1.142 5.317 2.606 7.713l.01.008c3.45 5.46 8.703 10.663 9.055 16.396l.044 1.033c.03 5.626-3.566 12.033-8.424 16.152-3.164 2.704-6.824 4.354-10.253 4.448h-.38c-3.373.007-6.832-1.227-10.283-3.114h.01c-4.5-2.47-8.984-6.02-13.13-9.185-4.184-3.158-7.944-5.97-11.59-6.882-.674-.158-1.34-.244-2-.244-2.548-.014-4.715 1.335-6.51 3.365-2.317 2.597-4.247 6.263-6.227 10.052-2.304 4.463-4.614 9.077-7.283 12.098l.01-.007c-1.952 2.202-4.155 3.444-6.56 3.752h.008l-1.413.08c-2.125 0-4.493-.517-7.033-1.35-3.186-1.04-6.623-2.59-10.19-4.133-.838-.366-1.807.015-2.166.854-.365.832.023 1.8.855 2.167 3.537 1.536 7.053 3.12 10.476 4.24 2.72.89 5.404 1.515 8.06 1.515l1.8-.1.014-.008c3.308-.41 6.264-2.167 8.618-4.83v-.006c3.092-3.537 5.432-8.323 7.735-12.758h-.01c1.952-3.752 3.867-7.268 5.755-9.363 1.528-1.672 2.683-2.26 4.06-2.275l1.235.15c2.54.575 6.264 3.158 10.354 6.3 4.127 3.136 8.705 6.79 13.548 9.458 3.717 2.023 7.678 3.516 11.86 3.516l.475-.007c4.405-.137 8.696-2.16 12.298-5.23 5.454-4.68 9.544-11.683 9.58-18.657l-.05-1.277c-.646-7.483-6.55-12.915-9.543-17.887l.01.007c-1.335-2.167-2.13-4.133-2.124-6l-.01-.028v-.014c-.01-1.765.89-3.997 2.77-6.558 2.64-3.61 6.902-7.628 10.82-11.467v.007c2.82-2.748 5.482-5.417 7.355-8 1.35-1.902 2.41-3.86 2.44-6.05 0-.81-.173-1.635-.53-2.403-1.38-2.784-4.27-4.104-7.615-5.23h.01c-7.03-2.318-17.53-3.495-26.8-5.152-4.8-.847-9.256-1.83-12.528-3.05h.01c-3.25-1.213-5.058-2.655-5.948-4.054-.76-1.204-1.076-2.575-1.084-4.182-.01-2.31.696-5.023 1.514-7.757.833-2.84 1.787-5.653 1.8-8.46l-.013-.537c-.136-3.1-1.958-5.604-4.484-7.046h.01c-3.286-1.91-7.67-2.54-12.686-2.62l-.725-.006c-6.387 0-13.792.99-21.053 2.455-7.534 1.507-14.724 3.53-20.75 5.532-7.485 2.483-13.635 4.994-19.82 6.903-5.173 1.593-10.375 2.77-16.54 3.222-1.757.13-3.615.186-5.567.186-4.843 0-10.24-.35-15.958-.854-9.83-.86-20.543-2.116-30.91-2.49-1.874-.064-3.733-.1-5.57-.1-8.567 0-16.754.782-23.893 3.236h.006c-8.697 2.956-15.844 8.725-19.446 17.953-1.628 4.162-2.547 8.833-2.547 13.51 0 2.98.373 5.957 1.198 8.798 1.193 4.156 3.367 8.037 6.696 11.05l.007.008c3.394 3.05 7.914 4.887 12.765 6.1h.007c7.312 1.8 15.377 2.41 20.722 3.903H143c2.77.754 4.68 1.823 5.353 2.763l-.007-.014c.36.494.56 1.09.56 1.972.007.717-.15 1.6-.48 2.612l.006-.015c-1.04 3.15-3.86 7.153-7.125 9.966-3.042 2.626-6.695 4.44-10.09 6.192-2.833 1.486-5.545 2.87-7.533 5.06h-.007c-1.664 1.857-2.432 4.24-2.432 6.68l.115 1.678c.99 7.118 6.81 14.81 13.288 20.35h-.007c9.1 7.75 19.985 11.12 30.554 11.12 1.787 0 3.56-.1 5.324-.286 6.085-.653 11.976-2.375 17.286-5.023 2.64-1.313 5.152-2.848 7.47-4.6h-.008c2.268-1.692 3.918-2.99 7.305-4.11h-.006c3.78-1.227 9.63-2.21 19.538-2.756.91-.05 1.607-.824 1.557-1.735-.05-.904-.833-1.6-1.737-1.55" fill="#999b37"/><path d="M1020.28 583.79c-10.362.51-22.69 3.165-32.628 6.107-17.12 5.066-26.828 10.9-42.542 11.947-7.075.46-15.664-.158-24.89-1.033-19.77-1.843-42.193-4.778-58.143 1.594-5.69 2.275-10.548 5.82-14.014 10.906-3.444 5.08-5.503 11.998-5.518 18.922-.014 6.924 2.06 13.884 7.06 18.735 5.03 4.85 13.412 6.73 21.348 8.015 3.968.63 7.792 1.176 10.95 1.923 3.156.753 5.596 1.78 6.823 3.02 1.22 1.25 1.428 2.878.753 5.28-.826 2.943-3.136 6.596-6.028 9.502-2.9 2.934-6.4 4.965-9.773 6.723-2.64 1.37-5.224 2.59-7.284 4.11-2.066 1.523-3.587 3.546-4.047 5.935-.812 4.298 1.24 9.228 4.412 13.87 3.15 4.628 7.484 8.912 11.983 12.055 7.513 5.224 15.958 7.764 24.324 8.115 5.89.26 11.745-.56 17.2-2.29 5.452-1.735 10.618-4.52 14.866-7.712 2.024-1.52 3.825-2.827 7.09-3.904 3.888-1.27 9.808-2.26 19.76-2.813l13.856 5.022c2.368 1.018 4.707 2.066 6.99 2.95 3.443 1.355 6.772 2.402 9.958 2.574 3.186.18 6.25-.71 8.804-2.812 3.02-2.483 5.324-6.444 7.462-10.505 1.895-3.58 3.674-7.27 5.526-10.196 1.844-2.927 3.695-4.93 5.568-5.54 1.887-.637 4.197.03 7.118 1.752 4.592 2.727 10.217 7.757 16.245 11.718 6.027 3.968 12.67 6.974 19.33 5.116 4.62-1.3 8.962-4.628 12.17-8.848 2.834-3.702 4.764-8.086 5.05-12.442.28-4.334-1.528-8.366-3.888-11.89-2.095-3.135-4.55-6.012-6.092-8.81-1.557-2.785-2.224-5.296-1.213-8.252 1.026-2.97 3.89-6.48 7.334-10.038 3.795-3.91 8.2-7.843 11.365-11.46 1.628-1.844 2.948-3.61 3.673-5.438.718-1.8.667-3.775-.41-5.28-1.326-1.853-3.716-2.965-6.68-3.934-5.682-1.872-13.84-3-21.733-4.276-5.03-.81-9.953-1.686-13.985-2.784-4.025-1.12-6.996-2.497-8.682-4.076-2.167-2.01-2.634-4.37-2.44-7.132.18-2.698 1.098-5.683 1.952-8.56.854-2.885 1.657-5.697 1.19-8.194-.465-2.505-2.188-4.428-4.512-5.597-3.086-1.586-7.305-2.167-12.12-2.167-1.148 0-2.34.036-3.544.093" fill="url(#u)" transform="translate(-740 -492.1)"/><path d="M221.9 219.054c-10.025.552-16.067 1.55-20.186 2.89v.008c-3.472 1.134-5.546 2.605-7.57 4.148l.007-.007c-4.11 3.092-9.126 5.797-14.378 7.462-4.642 1.464-9.572 2.267-14.566 2.267-.69 0-1.378-.02-2.074-.05-8.072-.344-16.21-2.79-23.45-7.828h.008c-4.334-3.014-8.53-7.183-11.566-11.624-2.62-3.803-4.327-7.735-4.306-10.986l.15-1.65c.346-1.88 1.565-3.573 3.395-4.922l-.007.007c1.887-1.386 4.39-2.592 7.082-3.984 3.416-1.786 7.082-3.88 10.19-7.017h-.008c3.057-3.1 5.49-6.868 6.444-10.22v.008c.28-.99.445-1.923.445-2.827.02-1.527-.554-3.013-1.623-4.06l.007.007c-1.68-1.658-4.298-2.662-7.606-3.473-3.28-.775-7.14-1.32-11.08-1.945h.008c-7.87-1.25-15.986-3.194-20.464-7.578-4.578-4.42-6.558-10.885-6.558-17.486v-.065c.007-6.6 2.002-13.237 5.238-17.987 3.25-4.793 7.814-8.123 13.26-10.304 7.053-2.828 15.592-3.79 24.69-3.782 10.634-.007 22.014 1.298 32.69 2.296 7.076.66 13.8 1.184 19.82 1.184 1.85 0 3.63-.043 5.338-.158 16.11-1.084 25.996-7.01 42.894-11.997 9.83-2.92 22.086-5.554 32.232-6.05 1.184-.057 2.332-.085 3.444-.085 4.707-.015 8.697.588 11.395 1.973 1.987 1.027 3.286 2.534 3.645 4.435l.107 1.263c.01 1.744-.574 3.882-1.263 6.17-.846 2.87-1.808 5.935-2.016 8.92l-.043 1.17c-.03 2.575.76 5.216 3.007 7.282 2.045 1.888 5.187 3.287 9.363 4.45 4.148 1.14 9.113 2.008 14.157 2.826 7.908 1.277 16.045 2.41 21.498 4.205h-.01c2.877.927 4.936 2.003 5.848 3.33.387.553.58 1.2.58 1.938l-.358 1.786v-.007c-.603 1.522-1.8 3.18-3.38 4.966-3.07 3.5-7.455 7.433-11.308 11.394-3.5 3.638-6.486 7.197-7.713 10.648-.39 1.12-.582 2.232-.582 3.315.01 2.246.796 4.284 1.908 6.272 1.672 3.006 4.14 5.89 6.164 8.933 2.11 3.136 3.645 6.565 3.638 10.074l-.022.788c-.25 3.925-2.052 8.058-4.714 11.56v-.007c-3.036 3.99-7.133 7.097-11.316 8.26-1.234.344-2.468.502-3.71.502-4.7.014-9.607-2.332-14.264-5.403v.006c-5.906-3.89-11.495-8.89-16.303-11.768h-.01c-2.31-1.356-4.385-2.202-6.466-2.217-.68 0-1.363.102-2.016.317h.014c-2.57.883-4.5 3.193-6.45 6.22-1.924 3.05-3.71 6.767-5.59 10.305-2.117 4.032-4.363 7.82-7.046 10.01-2.045 1.67-4.413 2.453-6.968 2.46l-.703-.02h.007c-2.9-.16-6.077-1.135-9.45-2.462-2.246-.875-4.563-1.91-6.938-2.935-.84-.366-1.81.022-2.167.854-.366.83.02 1.8.854 2.166 2.36 1.02 4.708 2.067 7.047 2.978 3.508 1.377 6.98 2.49 10.47 2.69l.88.022c3.252.007 6.423-1.048 9.056-3.215 3.366-2.783 5.69-6.916 7.872-11.006 1.908-3.61 3.688-7.283 5.46-10.088 1.744-2.806 3.53-4.528 4.686-4.85l.015-.008.968-.143c1.098-.014 2.727.53 4.794 1.758h-.01c4.355 2.576 10.03 7.613 16.18 11.68 4.88 3.194 10.282 5.928 16.073 5.943 1.52 0 3.064-.194 4.6-.625 5.072-1.434 9.65-4.986 13.044-9.427v-.007c2.97-3.91 5.066-8.568 5.38-13.332l.03-1.005c-.01-4.485-1.9-8.49-4.197-11.904-2.16-3.23-4.6-6.12-6.02-8.697-.983-1.766-1.493-3.237-1.486-4.68 0-.702.116-1.427.396-2.23.84-2.498 3.573-5.97 6.96-9.436 3.746-3.854 8.144-7.793 11.423-11.517 1.678-1.908 3.113-3.81 3.96-5.912l.01-.007c.38-.962.59-1.974.59-3 0-1.327-.367-2.69-1.193-3.846-1.722-2.375-4.463-3.537-7.498-4.55-5.942-1.943-14.122-3.048-22-4.326-5.01-.81-9.888-1.68-13.813-2.755-3.896-1.054-6.652-2.41-7.986-3.673h.01c-1.52-1.463-1.937-2.834-1.965-4.88l.036-.946c.16-2.417 1.027-5.323 1.888-8.208.682-2.31 1.392-4.678 1.4-7.103l-.166-1.86c-.574-3.107-2.734-5.43-5.38-6.773-3.503-1.765-7.93-2.325-12.896-2.332-1.176 0-2.375.03-3.61.093-10.56.517-22.974 3.208-32.998 6.178-17.32 5.152-26.9 10.878-42.177 11.868-1.62.108-3.335.15-5.122.15-5.834.008-12.478-.51-19.51-1.17-10.634-.99-22.1-2.31-33-2.31-9.327 0-18.246.962-25.91 4.012-5.934 2.368-11.1 6.113-14.766 11.516-3.66 5.396-5.784 12.586-5.805 19.833v.072c0 7.225 2.16 14.616 7.563 19.854 5.568 5.318 14.235 7.14 22.222 8.46h.007c3.967.632 7.784 1.17 10.826 1.902h.007c3.014.69 5.253 1.744 6.013 2.57l.007.006c.474.51.646.897.668 1.744 0 .495-.093 1.133-.322 1.923v.007c-.696 2.532-2.892 6.063-5.612 8.79-2.697 2.733-6.034 4.678-9.363 6.414-2.62 1.363-5.246 2.598-7.506 4.24l-.007.008c-2.303 1.7-4.126 4.054-4.678 6.96-.136.746-.2 1.5-.2 2.26.013 4.355 2.087 8.74 4.878 12.844 3.294 4.815 7.728 9.206 12.4 12.47 7.784 5.418 16.553 8.05 25.185 8.417.74.03 1.478.05 2.217.05 5.346 0 10.605-.853 15.556-2.425 5.654-1.786 10.97-4.657 15.362-7.964h.007c2.01-1.514 3.552-2.627 6.616-3.653l-.007.007c3.652-1.205 9.464-2.195 19.338-2.74.91-.05 1.607-.826 1.557-1.737-.05-.904-.824-1.6-1.736-1.55" fill="#999b37"/><path d="M1011.812 583.9c-6.702.903-13.69 2.402-20.048 4.125-6.35 1.693-11.84 3.573-16.77 5.36-11.415 4.104-20.14 7.7-33.6 7.907-13.448.215-31.472-2.77-48.542-3.387-8.532-.287-16.84.03-24.26 1.758-7.427 1.73-14.014 4.944-18.814 10.325-4.793 5.39-7.792 13.404-7.92 21.69-.138 8.29 2.61 16.942 9.8 21.822 4.076 2.776 9.357 4.305 14.695 5.367 4.176.832 8.38 1.363 12.048 2.023 3.667.668 6.745 1.53 8.575 2.59 1.844 1.07 2.354 2.024 2.16 3.925-.23 2.375-2.138 6.23-4.915 9.45-2.77 3.208-6.322 5.533-9.88 7.434-2.957 1.592-5.892 2.89-8.295 4.656-2.41 1.736-4.176 4.32-4.492 7.24-.41 3.78 1.09 7.828 3.444 11.717 3.66 6.006 9.25 11.53 15.09 15.226 5.97 3.76 12.456 5.94 18.97 6.758 6.703.833 13.412.26 19.705-1.5 6.27-1.736 12.29-4.943 16.984-8.473 1.944-1.457 3.624-2.634 6.71-3.638 3.802-1.256 9.65-2.232 19.53-2.784l13.856 5.087c3.796 1.643 7.512 3.308 11.13 4.384 4.282 1.263 8.58 1.615 12.34-.158 5.87-2.784 9.328-10.483 12.737-17.034 1.584-3.042 3.156-5.884 4.706-7.85 1.55-1.96 2.934-3 4.434-3.15 1.815-.194 4.39.91 7.563 3.064 5.13 3.444 11.366 9.09 18.16 12.8 4.6 2.505 9.537 4.134 14.552 3.25 5.03-.86 9.852-4.232 13.433-8.595 2.425-2.955 4.305-6.385 5.245-9.965.94-3.56.732-7.276-.51-10.562-2.13-5.676-6.802-10.247-9.077-14.43-1.19-2.232-1.758-4.147-1.34-6.307.408-2.153 2.036-4.772 4.44-7.613 3.652-4.32 8.94-8.934 12.96-13.203 1.864-1.98 3.493-3.867 4.584-5.812 1.09-1.973 1.6-4.22.832-6.2-.768-1.994-2.647-3.33-4.843-4.32-3.424-1.534-7.98-2.546-13.067-3.457-5.554-.997-11.66-1.844-17.25-2.855-5.59-1.02-10.57-2.26-13.726-3.803-3.143-1.55-4.413-3.236-4.93-5.245-.646-2.526.03-5.848 1.005-9.25.717-2.475 1.57-4.972 1.923-7.404.35-2.44-.057-4.915-1.407-6.76-1.743-2.36-4.606-3.673-7.943-4.39-2.41-.51-5.152-.733-8.08-.733-3.71 0-7.74.352-11.903.92" fill="url(#v)" transform="translate(-740 -492.1)"/><path d="M221.86 219.076c-9.974.567-15.994 1.535-20.12 2.9l.08-.03-.073.02c-3.365 1.085-5.43 2.506-7.397 3.99l-.007.008c-4.463 3.365-10.276 6.458-16.21 8.094l.13-.036-.13.043c-4.176 1.162-8.553 1.78-12.98 1.78-1.93 0-3.867-.115-5.805-.36-6.206-.782-12.348-2.848-18.017-6.42-5.524-3.48-10.934-8.82-14.35-14.467-1.98-3.25-3.193-6.5-3.178-9.263l.057-1.005v.007c.222-2.117 1.563-4.183 3.544-5.618 2.124-1.565 4.98-2.857 8.036-4.486 3.674-1.966 7.477-4.42 10.54-7.957 3.014-3.574 5.088-7.498 5.476-10.735l.043-.91c.013-1.034-.253-2.204-.906-3.144-.653-.932-1.514-1.564-2.454-2.116h-.007c-2.317-1.32-5.517-2.153-9.306-2.863l-.065-.016.058.015c-3.76-.683-7.958-1.214-11.997-2.018l.193.036-.193-.043c-5.238-1.026-10.225-2.518-13.863-5l.05.035-.05-.036c-6.164-4.17-8.783-11.696-8.783-19.302v-.56c.122-7.75 2.97-15.31 7.333-20.19v.006c4.4-4.936 10.498-7.957 17.616-9.622 5.575-1.3 11.79-1.786 18.276-1.786 1.772 0 3.56.035 5.367.1 16.3.58 33.637 3.387 47.22 3.394l1.442-.007.194-.007-.194.007c13.884-.215 23.018-3.982 34.348-8.05l-.057.02.065-.02c4.9-1.78 10.318-3.624 16.582-5.31 6.27-1.687 13.188-3.172 19.754-4.062 4.09-.552 8.03-.89 11.588-.89 2.82 0 5.396.216 7.598.69l.043.006-.036-.006c3.057.646 5.332 1.794 6.552 3.495.687.924 1.075 2.237 1.075 3.723l-.1 1.313c-.302 2.145-1.113 4.55-1.852 7.09l-.01.02.01-.014c-.725 2.554-1.342 5.13-1.35 7.635 0 .96.094 1.908.338 2.848l-.01-.02c.618 2.668 2.642 5.108 6.158 6.758 3.56 1.736 8.646 2.956 14.322 4.004 5.66 1.033 11.782 1.873 17.264 2.856 5.03.896 9.45 1.908 12.514 3.3l.01.007c1.98.876 3.236 1.938 3.623 3.02l.01.008.21 1.184c.01.883-.324 1.988-.912 3.05l.014-.015h-.01c-.92 1.665-2.404 3.43-4.24 5.353v.007c-3.91 4.155-9.214 8.775-13.053 13.303-2.505 3-4.342 5.776-4.96 8.654v.02l-.01.016-.164 1.793c0 2.167.732 4.12 1.765 6.035l.01.014v-.007c2.59 4.65 7.076 9.063 8.95 14.143.616 1.636.94 3.415.94 5.23 0 1.307-.166 2.627-.51 3.926-.833 3.185-2.555 6.35-4.8 9.084l-.037.05.043-.058c-3.308 4.033-7.77 7.068-12.033 7.778l-.01.007c-.804.137-1.607.2-2.41.2-3.48.008-7.083-1.26-10.635-3.206-6.472-3.53-12.63-9.085-17.974-12.694l.014.007c-3.12-2.08-5.74-3.437-8.46-3.487l-.667.035.037-.006h-.022c-2.504.287-4.34 1.91-6.013 4.04l.02-.03-.013.023c-1.752 2.21-3.345 5.13-4.952 8.216-1.73 3.315-3.423 6.816-5.332 9.73-1.908 2.927-4.01 5.18-6.343 6.27-1.47.697-3.05.998-4.77 1.005-1.845 0-3.847-.366-5.906-.976l-.13-.035.13.035c-3.41-1.004-7.068-2.633-10.878-4.283l-1.845 4.26c3.774 1.63 7.57 3.345 11.408 4.478l.137.036-.137-.036c2.354.696 4.772 1.156 7.22 1.163 2.273 0 4.584-.415 6.758-1.45h-.01c3.546-1.685 6.107-4.67 8.246-7.927 2.138-3.265 3.88-6.896 5.56-10.125 1.565-3.013 3.115-5.77 4.47-7.477l.01-.006c1.42-1.808 2.318-2.253 2.85-2.288h.01l.164-.007c.86-.06 3.1.773 5.848 2.682l.03.014-.022-.007c4.915 3.286 11.23 9.012 18.34 12.915l-.086-.05.086.05c3.932 2.145 8.245 3.774 12.86 3.774 1.053 0 2.13-.087 3.206-.273h-.01c5.783-1.012 10.97-4.736 14.83-9.4l.044-.05-.036.043c2.605-3.186 4.65-6.89 5.698-10.85.445-1.686.66-3.4.66-5.1 0-2.362-.424-4.694-1.242-6.868-2.418-6.3-7.26-11.014-9.213-14.724l.01.007c-.854-1.593-1.212-2.74-1.212-3.83l.094-.95-2.282-.422 2.274.46c.26-1.443 1.658-3.897 3.954-6.58 3.48-4.126 8.74-8.726 12.88-13.11l-.01.007c1.923-2.038 3.66-4.04 4.922-6.285l.01-.007v-.007c.86-1.57 1.478-3.357 1.485-5.288 0-.947-.157-1.923-.523-2.87v.015c-1.14-2.906-3.638-4.507-6.064-5.597h.01c-3.774-1.694-8.452-2.705-13.604-3.638-5.61-1.005-11.732-1.844-17.242-2.85-5.49-.996-10.383-2.245-13.117-3.6-2.798-1.45-3.3-2.383-3.695-3.732l-.01-.007v-.007c-.122-.466-.187-1.026-.187-1.68-.01-1.707.48-3.967 1.17-6.356l.01-.022-.014.03c.697-2.398 1.594-4.974 1.996-7.722.093-.653.143-1.313.143-1.973-.01-2.26-.575-4.556-1.974-6.472-2.253-3.05-5.726-4.52-9.342-5.287l-.043-.007.058.007c-2.64-.56-5.518-.79-8.575-.79-3.853 0-7.98.366-12.212.933-6.816.918-13.898 2.447-20.342 4.176-6.43 1.737-11.99 3.63-16.955 5.432l.007-.007c-11.51 4.14-19.81 7.563-32.85 7.778l-1.37.007c-12.98.014-30.38-2.784-47.055-3.387-1.85-.064-3.703-.107-5.532-.107-6.716.007-13.26.495-19.33 1.908-7.736 1.808-14.81 5.202-20.027 11.05-5.224 5.89-8.345 14.387-8.51 23.198v.64c-.007 8.573 2.95 17.765 10.813 23.14l-.058-.037.057.036c4.534 3.064 10.073 4.62 15.57 5.72 4.255.846 8.495 1.384 12.076 2.03h-.007c3.53.638 6.478 1.514 7.82 2.317l-.007-.007c.66.38.91.646.96.732l.095.517-.022.445c-.093 1.506-1.83 5.295-4.37 8.172l.05-.065-.042.057c-2.49 2.885-5.79 5.066-9.22 6.896l-.173.093.166-.085c-2.856 1.535-5.884 2.863-8.582 4.83l.007-.008c-2.833 2.066-5.007 5.166-5.423 8.854l-.007.016v-.007l-.08 1.505c.015 4.07 1.637 8 3.854 11.667 3.868 6.365 9.687 12.098 15.836 15.987 6.27 3.953 13.08 6.242 19.92 7.103l-.23-.03.236.03c2.124.265 4.262.394 6.38.394 4.864 0 9.657-.68 14.228-1.95h-.007c6.608-1.845 12.85-5.175 17.76-8.863 1.936-1.435 3.228-2.353 6.055-3.293l-.043.015.05-.014c3.443-1.147 9.147-2.123 18.92-2.67l-.258-4.634z" fill="#999b37"/><path d="M223.637 374.063v-175.74c0-.91-.74-1.642-1.65-1.642-.905 0-1.644.733-1.644 1.644v175.74c0 .91.74 1.642 1.643 1.642.912 0 1.65-.732 1.65-1.643M237.49 374.063v-175.74c0-.91-.74-1.642-1.65-1.642-.904 0-1.643.733-1.643 1.644v175.74c0 .91.74 1.642 1.643 1.642.91 0 1.65-.732 1.65-1.643" fill="#999b37"/><path d="M893.584 629.692c-2.24 1.35-3.767 4.456-3.84 7.175-.042 1.65-.107 3.286 0 4.95.073.948.202 1.903.56 2.756.747 1.794 2.533 3.158 4.385 3.868 2.804 1.056 5.796.61 8.774.54 1.586-.022 3.164.05 4.736.135 2.698.13 5.353.273 7.907-.136 2.885-.453 5.626-1.615 8.783-2.197 2.597-.495 5.496-.588 7.132-2.21 2.29-2.245 2.145-7.448 0-10.46-1.32-1.86-3.387-2.9-5.482-3.302-2.684-.523-5.417-.05-8.137.44-1.887.33-3.774.66-5.604.652-3.452-.007-6.746-1.22-10.427-2.21-1.736-.452-3.53-.86-5.223-.86-1.3 0-2.504.243-3.566.86" fill="url(#w)" transform="translate(-740 -492.1)"/><path d="M151.392 144.804c.015-2.16 1.428-4.908 3.035-5.79.725-.43 1.63-.632 2.727-.632 1.428 0 3.13.36 4.8.81 3.588.94 6.996 2.24 10.842 2.254h.086c4.026-.03 7.822-1.356 11.172-1.328.747 0 1.47.065 2.167.2 1.817.36 3.46 1.228 4.472 2.65l-.007-.008c.84 1.17 1.363 2.992 1.356 4.67.015 1.63-.494 3.043-1.17 3.675l.008-.007c-.89 1.004-3.51 1.3-6.3 1.772l.007-.007c-3.365.64-6.127 1.794-8.74 2.203h.008c-1.14.18-2.332.244-3.574.237-2.52.007-5.23-.266-8.05-.266l-.79.007c-1.486.03-2.892.144-4.198.137-1.45.008-2.763-.136-3.96-.588l-.008-.007c-1.543-.56-2.985-1.743-3.466-2.95l-1.514.647 1.52-.624c-.243-.582-.364-1.378-.43-2.253l.008.007-.057-1.88c0-.955.028-1.923.057-2.928.02-.904-.696-1.665-1.607-1.686-.904-.022-1.665.696-1.687 1.607-.02.976-.057 1.98-.057 3.007 0 .688.015 1.392.066 2.102v.014c.08.998.2 2.124.66 3.258l.007.014c1.033 2.368 3.164 3.918 5.338 4.75 1.745.66 3.488.804 5.132.804 1.485 0 2.913-.115 4.262-.136h.007l.718-.007c2.598-.006 5.303.266 8.05.266 1.35 0 2.72-.064 4.084-.28h.007c3.142-.523 5.875-1.68 8.817-2.21h.007c2.41-.53 5.576-.437 7.986-2.647v-.008c1.58-1.586 2.14-3.81 2.153-6.02-.007-2.304-.63-4.68-1.966-6.573v-.016c-1.636-2.274-4.104-3.48-6.508-3.953v-.006c-.948-.18-1.888-.258-2.807-.258-4.11.028-7.928 1.356-11.172 1.327h-.084c-3.043.014-6.222-1.127-9.996-2.145-1.765-.467-3.695-.912-5.647-.92-1.485 0-3.02.274-4.413 1.1l.007-.008c-2.906 1.8-4.52 5.274-4.65 8.54-.02.91.697 1.67 1.608 1.692.904.022 1.665-.696 1.686-1.607" fill="#999b37"/><path d="M893.835 630.366c-1.902 1.206-3.337 4.097-3.387 6.515l-.057 1.673c-.028 1.758-.086 3.58.33 5.11.41 1.52 1.565 2.747 3.043 3.58 1.837 1.02 3.875 1.227 6.02 1.184 2.763-.05 5.733-.144 8.56-.007 2.167.114 4.313.215 6.33.036 2.03-.173 3.96-.747 6.033-1.342 2.06-.603 4.442-1.062 6.68-1.443v.002c2.232-.374 3.976-.92 4.85-2.533 1.078-2.003.956-5.44-.286-7.815-1.248-2.39-3.652-3.595-6.142-3.947-2.626-.36-5.396.215-8.216.71-2.834.496-5.704.66-8.46.115-2.61-.516-5.216-1.428-7.95-2.088-1.377-.337-2.748-.58-4.01-.58-1.25 0-2.383.236-3.337.83" fill="url(#x)" transform="translate(-740 -492.1)"/><path d="M152.085 144.825c-.007-1.837 1.357-4.45 2.634-5.167.587-.373 1.398-.574 2.446-.574 1.062 0 2.317.208 3.63.53l.007.008c2.634.632 5.238 1.543 8 2.095 1.314.26 2.64.374 3.962.374 1.722 0 3.437-.193 5.108-.487 2.225-.388 4.32-.79 6.2-.79l1.514.1c2.138.302 3.982 1.292 4.908 3.072.53.997.84 2.382.832 3.652.007 1.062-.222 2.045-.538 2.605v.007l-1.163 1.025c-.59.28-1.45.495-2.512.667-2.274.388-4.692.854-6.874 1.493h.008c-2.095.602-3.896 1.126-5.71 1.284h-.008c-.703.064-1.443.085-2.203.085-1.24 0-2.547-.064-3.903-.136h-.007c-1.12-.05-2.254-.066-3.38-.066-1.808 0-3.595.043-5.288.072l-.475.007c-1.837 0-3.365-.237-4.7-.99h-.007c-1.19-.668-2.002-1.6-2.267-2.576v.007c-.214-.79-.286-1.85-.28-3l.023-1.635v.006l.043-1.672c.02-.912-.697-1.665-1.608-1.687-.904-.02-1.664.696-1.686 1.608l-.043 1.664v.014l-.022 1.7c0 1.263.057 2.57.394 3.853v.015c.58 2.073 2.095 3.602 3.846 4.578l-.007-.007c2.046 1.155 4.227 1.413 6.315 1.413l.54-.007h-.008c1.707-.03 3.48-.073 5.23-.073 1.09 0 2.175.015 3.23.065h-.008c1.348.065 2.712.136 4.068.136.832 0 1.664-.02 2.497-.1h-.007c2.253-.194 4.276-.804 6.343-1.4l.008-.006c1.966-.574 4.283-1.026 6.493-1.4 1.178-.2 2.305-.444 3.36-.932 1.054-.488 2.06-1.292 2.67-2.454v.007c.666-1.25.924-2.698.932-4.176-.007-1.765-.38-3.588-1.206-5.18-1.57-2.986-4.542-4.42-7.376-4.808h-.007c-.66-.095-1.313-.13-1.96-.13-2.33.006-4.584.466-6.765.84-1.536.272-3.057.437-4.542.437-1.134 0-2.246-.1-3.323-.31-2.454-.48-5.022-1.377-7.864-2.073v.007c-1.45-.357-2.935-.63-4.414-.63-1.442 0-2.913.265-4.204 1.083-2.54 1.687-4.033 4.858-4.17 7.865-.02.91.697 1.664 1.608 1.693.904.023 1.665-.695 1.686-1.606" fill="#999b37"/><path d="M151.133 144.804c.058-2.11 1.378-4.8 2.956-5.87 1.57-1.076 3.946-.925 6.558-.33 2.597.596 5.16 1.5 7.763 2.06 2.606.566 5.37.566 8.045.2 2.662-.35 5.217-.99 7.584-.99 2.36-.007 4.656.64 6.206 2.19 1.557 1.563 2.29 4.462 1.952 6.808-.337 2.325-1.536 3.294-3.904 3.81-2.36.538-5.54 1.012-8.014 1.737-2.476.716-4.65 1.262-7.083 1.333-2.432.058-5.058-.186-7.756-.215-2.704-.007-5.41.25-7.748.036-1.88-.18-3.703-.854-4.973-2.038-1.257-1.198-1.608-2.813-1.65-4.83-.037-1.27.035-2.833.063-3.902" fill="#fff"/><path d="M152.78 144.846c-.037-1.492 1.27-3.997 2.23-4.55h.008c.452-.315 1.148-.51 2.145-.51.883 0 1.96.16 3.122.425h-.007c2.475.56 5.044 1.472 7.792 2.06h-.007c1.58.345 3.193.495 4.8.495 1.285 0 2.562-.093 3.818-.265h-.006c2.784-.38 5.295-.99 7.36-.983h.043c2.06 0 3.898.588 5.003 1.707.882.84 1.57 2.777 1.55 4.478l-.065.933c-.144.94-.38 1.32-.682 1.614-.315.3-.897.595-1.944.824h-.008c-2.275.517-5.475.998-8.116 1.765-2.446.703-4.455 1.198-6.665 1.262h.008l-.79.015c-2.102 0-4.44-.194-6.91-.223h-.129c-1.938 0-3.804.122-5.476.122-.71 0-1.392-.02-2.016-.08h.014c-1.6-.15-3.1-.745-4.01-1.606l.014.007c-.79-.746-1.09-1.772-1.14-3.667v-.007l-.008-.717c0-1.048.05-2.217.072-3.1.02-.904-.696-1.665-1.6-1.686-.912-.03-1.672.69-1.694 1.6-.02.847-.072 2.045-.072 3.186l.007.81v-.014c.037 2.146.44 4.34 2.16 5.985l.008.007c1.63 1.514 3.79 2.267 5.94 2.482h.016c.76.065 1.535.094 2.31.094 1.823-.007 3.68-.122 5.475-.122h.107-.015c2.318.02 4.65.215 6.946.222l.875-.014c2.662-.08 4.994-.675 7.49-1.392v-.007c2.326-.675 5.47-1.156 7.923-1.708h-.007c1.32-.288 2.518-.74 3.48-1.637.968-.89 1.506-2.16 1.692-3.552l.1-1.398c-.02-2.447-.774-5.016-2.51-6.802-1.974-1.96-4.7-2.67-7.334-2.677h-.057.015c-2.662.015-5.252.682-7.792 1.012h-.007c-1.12.15-2.253.237-3.373.237-1.406 0-2.784-.13-4.097-.424h-.007c-2.47-.523-5.03-1.42-7.743-2.052-1.313-.294-2.597-.502-3.853-.502-1.392 0-2.8.258-4.004 1.084l.007-.007c-2.19 1.593-3.53 4.456-3.68 7.19-.022.912.695 1.665 1.6 1.694.91.02 1.67-.696 1.693-1.608" fill="#999b37"/><path d="M896.246 633.68c-1.378.712-2.548 2.49-2.598 3.876-.03.71-.08 1.758-.064 2.59.057 1.328.35 2.397 1.463 3.18 1.105.795 2.698 1.233 4.356 1.348 2.045.143 4.44-.014 6.81-.014 2.367.014 4.67.172 6.81.136 2.123-.058 4.03-.402 6.205-.883 2.167-.473 4.966-.79 7.04-1.14 2.073-.345 3.12-.97 3.415-2.533.05-.23.07-.467.07-.71v-.116c-.013-1.35-.637-2.812-1.764-3.66-1.37-1.032-3.387-1.456-5.468-1.456-2.074 0-4.305.424-6.66.668-2.33.23-4.77.23-7.045-.137-2.282-.374-4.535-.97-6.83-1.357-1.07-.194-2.11-.316-3.05-.316-1.048 0-1.967.144-2.69.524" fill="url(#y)" transform="translate(-740 -492.1)"/><path d="M938.343 649.388c-1.93.51-3.56 1.945-5.194 3.38l-.62.315c-.982.474-2.065.912-2.747 1.845-.882 1.176-1.14 3.17-.3 4.283.673.948 2.094 1.278 3.357 1.228 2.36-.093 4.198-1.557 6.422-1.837.725-.085 1.478-.056 2.24-.013 1.405.057 2.804.122 3.895-.596 1.105-.738 1.908-2.302 1.837-3.687-.1-1.686-1.486-3.085-3.07-3.996-1.293-.747-2.735-1.134-4.106-1.134l-1.715.215z" fill="url(#z)" transform="translate(-740 -492.1)"/><path d="M194.234 161.895c1.622-1.435 3.12-2.662 4.535-3.02l-.008.006 1.284-.164c1.07 0 2.232.308 3.308.925l.007.008c1.343.74 2.226 1.86 2.21 2.634l.008.02v.102c.043.696-.567 1.815-1.09 2.102-.345.237-.92.36-1.794.36-.675 0-1.47-.073-2.347-.073l-1.284.08.007-.008c-2.827.438-4.614 1.844-6.3 1.837h.014-.165c-.926.03-1.73-.344-1.816-.56v.007l-.187-.79.488-1.55v-.007c.316-.46 1.07-.847 2.14-1.342l.042-.02.617-.316c.81-.423 1.126-1.413.71-2.224-.423-.804-1.413-1.12-2.224-.703l-.617.315.76 1.464-.717-1.485c-.92.467-2.296.962-3.35 2.347v-.007c-.755 1.033-1.128 2.267-1.142 3.53.007.912.208 1.88.825 2.727v.007c1.205 1.55 2.97 1.88 4.47 1.9H192.913c3.02-.207 4.936-1.742 6.565-1.857h.006l.86-.05c.683 0 1.48.072 2.347.072 1.098-.008 2.397-.11 3.61-.906 1.585-1.097 2.525-2.898 2.568-4.85l-.006-.3-1.643.1 1.644-.08c-.186-2.605-2.066-4.298-3.882-5.346l.007.007c-1.543-.882-3.244-1.363-4.944-1.363-.71 0-1.42.086-2.117.266l-.008.007c-2.454.674-4.226 2.31-5.862 3.724-.682.6-.747 1.642-.15 2.323.602.682 1.642.754 2.324.15" fill="#999b37"/><path d="M940.1 649.876c-2.402 0-4.39 1.57-6.485 3.416l-.158.086c-.997.523-2.095.954-2.777 1.578-.473.438-.79 1.134-.925 1.844v1.378c.043.172.1.33.18.466.516.94 2.195 1.27 3.594 1.034 1.384-.252 2.704-.976 4.232-1.45 1.55-.48 3.387-.316 4.887-.308 1.498.014 2.59-.352 3.307-1.543.057-.093.107-.18.157-.273v-3.092c-.057-.1-.122-.194-.186-.295-1.14-1.6-3.53-2.726-5.554-2.84h-.273z" fill="url(#A)" transform="translate(-740 -492.1)"/><path d="M194.7 162.426c2.073-1.852 3.788-3.043 5.402-3.007h.187l.006.006c1.507.03 3.61 1.09 4.276 2.146l.015.007.28.867-.302.96-.617.575-1.263.187-.122.006.08 1.643.006-1.65c-.568 0-1.25-.03-1.98-.03-1.05 0-2.21.05-3.388.416h.007c-1.745.553-3.043 1.25-4.026 1.392h-.007l-.632.05-1.033-.165-.23-.114-.014-.016-.165.15.194-.107-.03-.043-.164.15.194-.107-.015-.057-.02-.273.465-1.363-1.134-1.198 1.098 1.227c.34-.33 1.35-.797 2.434-1.328.81-.41 1.133-1.4.717-2.21-.408-.81-1.398-1.134-2.21-.725-.91.48-2.087.897-3.134 1.81l-.03.027c-1.083 1.077-1.47 2.44-1.5 3.76.008.632.102 1.277.453 1.93.48.84 1.212 1.292 1.915 1.565.718.272 1.464.38 2.21.38l1.184-.1c1.77-.316 3.106-1.098 4.448-1.493h.007c.63-.202 1.485-.266 2.404-.266.644 0 1.304.028 1.965.028h.086l-.057-1.227-.007 1.227h.065l-.057-1.227-.007 1.227h.03c.875 0 1.743-.1 2.582-.466.84-.36 1.586-1.012 2.095-1.837.51-.826.797-1.76.797-2.713.007-.976-.3-1.96-.897-2.784l.007.014c-1.586-2.16-4.262-3.365-6.802-3.545l-.366-.007c-3.18.036-5.46 1.988-7.577 3.832-.682.603-.754 1.643-.15 2.325.602.682 1.642.746 2.324.143" fill="#999b37"/><path d="M193.772 161.902c2.698-2.303 4.714-3.81 7.333-3.344 1.8.33 3.832 1.55 4.456 2.8.633 1.254-.063 3.005-1.247 3.514-1.2.488-3.703-.078-6.135.438-2.433.502-4.018 1.715-5.748 1.643-.933-.043-1.693-.387-1.894-.746-.194-.36-.194-1.45.158-2.196.366-.76 1.026-1.11 2.045-1.6l1.032-.508" fill="#fff"/><path d="M194.842 163.158c2.36-2.045 3.925-3.08 5.324-3.036l.653.058c.652.115 1.448.43 2.087.832l1.19 1.084.058.3-.487.962.645 1.514-.63-1.528c-.008.03-.496.108-1.17.1l-1.6-.02c-.92.006-1.974.042-3.072.272-2.718.624-4.39 1.707-5.266 1.614h-.086l-.057 1.643.087-1.643-.682-.136-.078-.036-.467.646.682-.38-.215-.266-.467.646.682-.38-1.435.803 1.456-.775-.552.294.625-.107-.072-.188-.552.294.625-.107-.007-.18.13-.733-.008.015.25-.28 1.027-.545.015-.007 1.026-.51c.818-.402 1.155-1.392.753-2.203-.4-.818-1.39-1.155-2.21-.753l-1.025.51.725 1.478-.71-1.486-1.522.847c-.495.352-.997.875-1.298 1.52v.015c-.345.754-.438 1.47-.445 2.13l.316 1.537.015.03c.445.73.96.982 1.492 1.22.53.214 1.12.343 1.766.372l.028.007h.195c2.468-.094 3.932-1.328 5.94-1.687h.008c.746-.157 1.564-.2 2.39-.2l1.6.02c.79-.013 1.55-.006 2.425-.343l.02-.007c1.645-.76 2.455-2.332 2.49-3.99l-.408-1.78c-.552-1.054-1.42-1.786-2.396-2.403-.983-.61-2.095-1.062-3.244-1.277l-1.234-.108c-2.97.035-5.087 1.814-7.462 3.823-.696.59-.775 1.63-.187 2.318.596.69 1.636.776 2.325.188" fill="#999b37"/><path d="M934.813 655.2l-.782.294c-.752.302-1.262.495-1.513.818v.84c.18.115.782.15 1.52.057 1.336-.166 1.967-1.106 3.826-1.565l.272-.065c1.866-.466 4.133-.122 5.045-.452.897-.323 1.35-1.04.775-1.442-.546-.387-1.572-1.098-2.985-1.033l-.48-.136c-2.068.122-3.704 1.535-5.677 2.683" fill="url(#B)" transform="translate(-740 -492.1)"/><path d="M933.457 653.378l.158-.086-.158.086z" fill="url(#C)" transform="translate(-740 -492.1)"/><path d="M194.363 162.662l.157-.1c.754-.502.97-1.52.467-2.282-.502-.76-1.52-.968-2.282-.466l-.158.1c-.753.503-.968 1.52-.466 2.282.503.76 1.522.97 2.283.466" fill="#999b37"/><path d="M967.734 688.616c-.696.028-1.35.63-2.096.768l-1.148-.022-1.234.022-1.27 1.04h13.856c-.553-.416-1.105-.84-1.808-1.24-.768-.418-1.708-.805-2.375-.367l-1.15.954-1.628-.76-1.12-.394h-.028z" fill="url(#D)" transform="translate(-740 -492.1)"/><path d="M223.036 199.594l1.263-1.033-1.05-1.27.525 1.558-.065-.18.03.194.035-.014-.065-.18.03.194.064-.007c.186-.014.69.1 1.413.115l.71-.058.008-.007c.717-.136 1.19-.423 1.514-.574l.336-.156.007-.015-.058-1.644-.53 1.557 1.054.36 1.52.73 1.773-.222 1.155-.96-1.055-1.263.89 1.385-.194-.31v.374l.193-.064-.194-.31v.374l.896.366.79-1.45-.81 1.436 1.627 1.126c.725.546 1.758.402 2.304-.33.545-.724.402-1.758-.323-2.303-.545-.408-1.17-.896-1.988-1.355l-.02-.014c-.625-.322-1.386-.746-2.477-.767l-1.586.46-.166.114-.344.287-.66-.316-.18-.072-1.155-.394-.582-.086c-.825.043-1.35.35-1.715.523l-.63.28h.006l-.123.006c-.223.015-.703-.1-1.414-.115l-1.076.166-.524.287-1.263 1.04c-.696.575-.803 1.615-.222 2.32.574.702 1.614.802 2.317.22" fill="#999b37"/><path d="M27.288 4.482c-.15 3.925-.15 8.912-.15 13.353 0 8.23.107 10.096 1.592 12.112 1.5 2.03 4.29 3.165 7.893 3.165 4.176 0 7.477-2.175 8.61-5.34.41-1.133.668-2.74.668-6.98 0-6.73-.056-13.52-.465-20.25.717.108 1.492.323 2.324.323.817 0 1.65-.215 2.417-.322l-.15 2.482c-.26 4.456-.424 15.126-.51 20.35-.107 6.106-1.865 8.904-5.274 11.078-2.425 1.557-5.87 2.225-8.653 2.225-6.185 0-13.612-1.966-14.73-9.988-.116-.732-.116-2.282-.116-2.74V9.855c0-2.64-.1-6.673-.25-9.313 1.183.15 2.46.322 3.6.322 1.135 0 2.326-.172 3.352-.322l-.158 3.94zM74.923 20.533c.768 1.084 1.91 2.79 2.684 3.875 4.06 5.747 5.46 7.563 8.703 11.645-1.435-.15-2.726-.3-4.585-.3-2.002 0-2.626.107-4.17.3-.766-1.19-1.907-3.1-2.682-4.298-2.626-4.075-5.82-8.646-8.603-12.57h-1.242v7.354c0 1.49.194 8.172.194 9.513-1.02-.093-2.153-.3-3.437-.3-1.198 0-2.425.15-3.552.3.402-10.19.445-11.33.445-21.325 0-6.78 0-7.512-.35-14.185 1.182.1 2.524.258 5.15.258 1.35 0 7.326-.257 8.51-.257 3.358 0 5.877.416 8.094 2.532 1.55 1.507 2.368 3.63 2.368 5.798 0 5.755-4.284 8.704-8.97 9.586l1.443 2.073zm-9.895-3.774c.983.042 2.217.15 3.552.15 5.152 0 7.068-3.79 7.068-7.154 0-2.174-.366-4.033-2.167-5.382-1.39-1.04-3.1-1.3-4.792-1.3-.983 0-2.892.224-3.66.26V16.76zM111.32 33.06c-1.386 1.343-3.718 3-9.336 3-2.16 0-4.327-.258-6.487-.258-1.658 0-3.308.2-4.95.26.257-6.007.358-12.788.358-18.385 0-5.697-.05-11.423-.41-17.127 1.285.093 2.168.2 4.485.25 1.134 0 6.135-.25 7.16-.25 5.734 0 10.78 1.6 10.78 8.33 0 4.765-4.486 7.456-8.705 8.08 5.66.56 10.196 2.482 10.196 9.263 0 3.89-2.266 6.063-3.09 6.838M97.146 15.82c.718.05 1.45.107 2.103.107 4.484 0 7.024-2.39 7.024-6.89 0-3.522-1.915-5.897-5.482-5.897-1.176 0-2.36.036-3.544.158-.058 1.392-.1 2.784-.1 4.183v8.34zm0 13.044c0 .832.043 2.848.1 4.298 1.034.158 1.752.308 2.785.308 4.843 0 7.57-2.432 7.57-7.455 0-5.948-3.344-7.72-8.603-7.72-.626 0-1.178.057-1.853.164v10.404zM139.936 30.32l-2.174-5.49c-2.21-.106-4.377-.214-6.6-.214-2.06 0-4.12.108-6.18.215-1.65 3.983-3.3 8.274-4.118 11.23-.674-.1-1.657-.308-2.483-.308-.874 0-1.6.208-2.316.31l5.99-13.362c5.196-11.696 8.18-18.426 9.415-22.674l1.714.265 1.65-.264c2.47 7.09 5.56 14.336 7.413 18.692 1.966 4.506 5.36 12.32 7.684 17.343-.78-.057-2.582-.308-4.024-.308-1.442 0-2.885.25-3.803.31l-2.167-5.742zm-8.51-21.44l-5.252 12.737c1.8.057 3.544.215 5.353.215 1.6 0 3.15-.122 4.743-.215L131.425 8.88zM154.37 15.094c0-4.88-.057-9.737-.107-14.55l1.24.106 1.185-.107c4.9 5.439 9.48 10.246 15.722 16.36l6.084 6.005c.97.933 1.443 1.3 2.576 2.232V13.645c0-4.406-.265-8.862-.617-13.102.617.157 1.285.315 2.21.315.926 0 1.55-.158 2.16-.315-.46 6.264-.56 9.945-.56 17.507 0 2.993.043 10.455.043 13.153 0 1.126.058 3.824.058 5.116l-1.026-.11-1.084.11c-6.55-7.148-19.23-19.834-24.697-24.857 0 7.047.064 10.828.165 16.31.05 3.007.093 3.523.46 8.28-.56-.05-1.594-.3-2.32-.3-.774 0-1.448.15-2.058.3l.41-7.19c.1-1.398.157-5.28.157-6.723v-7.046zM193.344.543c.983.107 2.885.315 3.653.315 1.14 0 2.418-.165 3.666-.315-.567 3.83-.567 12.8-.567 18.017 0 7.72.1 13.303.517 17.493-1.198-.043-2.418-.3-3.616-.3-1.127 0-2.576.257-3.703.3.56-6.156.56-14.695.56-23.55 0-3.264 0-6.938-.51-11.96M205.51 34.403c1.132-1.607 6.335-8.646 7.36-10.088 2.376-3.574 10.426-15.75 13.053-20.3-5.777 0-11.91.043-18.254.567.056-.617.15-1.34.15-2.023 0-.826-.05-1.343-.15-2.017 3.974.366 7.834.322 13.868.322 7.822 0 11.08-.114 13.906-.322l.115.882c0 .41-.116.517-.726 1.4l-2.626 3.68c-1.908 2.677-4.793 6.975-7.118 10.498l-4.542 6.838c-2.568 3.883-4.22 6.473-5.56 8.755h4.95c2.375 0 6.652-.108 9.536-.373 1.96-.15 3.918-.244 5.87-.36-.1.625-.25 1.192-.25 2.125 0 .775.1 1.557.25 2.066-1.543-.043-4.887-.3-14.946-.3-7.06 0-9.687 0-14.89.3v-1.65zM260.712 30.32l-2.16-5.49c-2.217-.106-4.384-.214-6.602-.214-2.06 0-4.133.108-6.177.215-1.658 3.983-3.308 8.274-4.126 11.23-.668-.1-1.658-.308-2.476-.308-.88 0-1.606.208-2.316.31L242.83 22.7c5.203-11.696 8.195-18.426 9.43-22.674l1.7.265 1.65-.264c2.483 7.09 5.568 14.336 7.412 18.692 1.98 4.506 5.367 12.32 7.7 17.343-.783-.057-2.59-.308-4.026-.308-1.442 0-2.892.25-3.81.31l-2.174-5.742zm-8.496-21.44l-5.267 12.737c1.807.057 3.558.215 5.366.215 1.6 0 3.15-.122 4.736-.215L252.216 8.88zM301.69 7.79h-.503c-.617-1.25-2.432-4.858-9.852-4.858-8.61 0-13.188 5.697-13.188 15.477 0 1.807 0 6.622 3.136 10.82 1.85 2.432 4.642 4.714 9.328 4.714 6.344 0 9.587-3.164 11.912-5.905l.56.357-.56 5.123c-3.918 2.182-8.36 3.265-13.052 3.265-10.053 0-18.398-6.264-18.398-17.917 0-10.41 6.357-18.742 20.105-18.742 4.234 0 7.936.732 12.07 2.59l-1.558 5.074zM309.23.543c.982.107 2.884.315 3.66.315 1.132 0 2.424-.165 3.658-.315-.567 3.83-.567 12.8-.567 18.017 0 7.72.102 13.303.518 17.493-1.184-.043-2.425-.3-3.61-.3-1.126 0-2.582.257-3.716.3.574-6.156.574-14.695.574-23.55 0-3.264 0-6.938-.517-11.96M362.162 17.835c0 11.545-7.786 18.95-19.23 18.95-10.713 0-19.216-6.37-19.216-17.7 0-13.16 8.97-18.95 19.374-18.95 9.643 0 19.072 5.272 19.072 17.7m-19.23 16.31c8.76 0 12.17-8.28 12.17-15.686 0-8.432-3.144-15.686-12.17-15.686-8.87 0-12.162 8.596-12.162 15.685 0 7.713 3.293 15.685 12.162 15.685M369.54 15.094c0-4.88-.05-9.737-.107-14.55l1.248.106 1.185-.107c4.9 5.439 9.48 10.246 15.707 16.36l6.092 6.005c.976.933 1.442 1.3 2.576 2.232V13.645c0-4.406-.252-8.862-.61-13.102.61.157 1.277.315 2.21.315.925 0 1.542-.158 2.16-.315-.453 6.264-.56 9.945-.56 17.507 0 2.993.043 10.455.043 13.153 0 1.126.065 3.824.065 5.116l-1.04-.11-1.084.11c-6.544-7.148-19.23-19.834-24.683-24.857 0 7.047.044 10.828.16 16.31.05 3.007.092 3.523.45 8.28-.566-.05-1.592-.3-2.317-.3-.768 0-1.442.15-2.052.3l.403-7.19c.107-1.398.158-5.28.158-6.723v-7.046zM30.617 107.556h-.51c-.617-1.242-2.425-4.865-9.844-4.865-8.618 0-13.196 5.705-13.196 15.478 0 1.815 0 6.63 3.143 10.82 1.85 2.433 4.635 4.708 9.328 4.708 6.343 0 9.586-3.158 11.91-5.89l.56.357-.56 5.124c-3.924 2.174-8.35 3.257-13.044 3.257C8.36 136.544 0 130.287 0 118.642 0 108.23 6.343 99.9 20.098 99.9c4.233 0 7.943.724 12.076 2.583l-1.557 5.073zM8.453 163.48c2.633 0 8.402-.057 11.13-.365-.145.566-.252 1.083-.252 1.858 0 .725.108 1.392.252 1.765-1.335-.108-2.677-.208-3.96-.265-2.376-.05-4.8-.108-7.17-.108v14.042c1.35 0 7.937-.15 12.32-.366-.207.468-.25.984-.25 1.702 0 .79.043 1.298.25 1.872-3.092-.208-6.184-.308-9.478-.308-3.092 0-6.343.1-9.636.308.093-2.174.2-4.29.25-6.472.116-3.006.21-9.313.21-11.703 0-2.175-.094-12.17-.46-17.336 2.51.143 6.544.3 9.32.3 2.376 0 5.77-.2 9.486-.3l-.25 1.65c0 .782.093 1.5.25 1.923l-4.843-.265c-1.9-.1-2.424-.1-7.167-.1v12.168zM27.163 228.453c-3.617 2.325-6.953 2.957-11.187 2.957-3.135 0-6.328-.266-9.478-.266-1.608 0-3.244.15-4.844.266l.302-9.48c.064-2.28.064-3.415.064-9.585 0-3.265.043-6.473-.115-9.73-.093-2.225-.15-4.45-.25-6.73 1.39.107 2.833.258 4.218.258 2.792 0 5.834-.26 8.926-.26 4.376 0 9.837.21 14.12 3.575 3.968 3.107 5.927 7.763 5.927 13.145 0 7.312-2.834 12.736-7.684 15.85M8.35 221.2c0 2.38.157 4.82.264 7.196 1.134.057 5.72.265 7.003.265 3.402 0 12.17-2.54 12.17-15.85 0-6.68-3.15-14.177-13.87-14.177-1.75 0-3.552.1-5.303.25-.107 2.067-.265 4.198-.265 6.265v16.05zM18.5 263.663c.77 1.083 1.91 2.79 2.692 3.874 4.06 5.748 5.453 7.556 8.71 11.646-1.44-.158-2.74-.3-4.59-.3-2.003 0-2.635.1-4.177.3-.768-1.184-1.902-3.1-2.677-4.298-2.633-4.09-5.826-8.646-8.603-12.57h-1.24v7.353c0 1.493.192 8.18.192 9.515-1.026-.093-2.152-.3-3.45-.3-1.185 0-2.426.142-3.546.3.417-10.19.446-11.33.446-21.318 0-6.788 0-7.52-.35-14.193 1.19.1 2.53.258 5.158.258 1.35 0 7.32-.258 8.51-.258 3.35 0 5.87.416 8.086 2.533 1.543 1.507 2.368 3.638 2.368 5.798 0 5.754-4.276 8.71-8.962 9.586l1.435 2.073zm-9.886-3.79c.975.06 2.21.166 3.55.166 5.153 0 7.07-3.782 7.07-7.155 0-2.174-.367-4.032-2.168-5.388-1.4-1.026-3.1-1.292-4.8-1.292-.976 0-2.885.215-3.652.266v13.404zM38.556 308.753c0 11.545-7.786 18.943-19.223 18.943-10.72 0-19.223-6.365-19.223-17.702 0-13.145 8.97-18.95 19.373-18.95 9.637 0 19.073 5.274 19.073 17.71M19.333 325.06c8.754 0 12.162-8.28 12.162-15.685 0-8.438-3.143-15.693-12.162-15.693-8.87 0-12.17 8.596-12.17 15.693 0 7.706 3.3 15.685 12.17 15.685M175.35 420.982c4.226 0 7.936.732 12.07 2.605l-1.544 5.066h-.516c-.625-1.234-2.426-4.865-9.86-4.865-8.603 0-13.18 5.697-13.18 15.477 0 3.932.717 7.678 3.135 10.828 1.85 2.425 4.643 4.707 9.328 4.707 2.425 0 5.26-.517 7.32-1.86.157-3.622.157-4.046.157-4.72 0-2.526-.158-5.066-.316-7.606 1.14.158 2.325.366 3.667.366 1.443 0 2.153-.15 3.25-.366-.322 1.873-.422 7.297-.422 8.704 0 1.96.057 3.257.165 4.707-4.384 2.332-10.003 3.616-14.946 3.616-10.053 0-18.405-6.256-18.405-17.9 0-10.413 6.336-18.758 20.098-18.758M216.335 451.176l-2.167-5.482c-2.21-.115-4.37-.208-6.6-.208-2.06 0-4.12.093-6.18.208-1.635 3.983-3.293 8.28-4.118 11.222-.674-.093-1.657-.308-2.483-.308-.882 0-1.593.215-2.31.308l5.977-13.346c5.202-11.703 8.187-18.433 9.436-22.674l1.7.258 1.636-.258c2.483 7.082 5.575 14.344 7.427 18.678 1.966 4.506 5.352 12.327 7.684 17.342-.775-.05-2.576-.308-4.01-.308-1.45 0-2.892.258-3.825.308l-2.167-5.74zm-8.503-21.425l-5.26 12.737c1.802.043 3.552.2 5.36.2 1.6 0 3.158-.107 4.743-.2l-4.843-12.736zM230.93 435.548c0-2.296 0-2.805-.157-7.405-.05-1.09-.15-5.74-.2-6.737 1.284.265 2.267.308 3.55.308 1.293 0 2.326-.1 3.603-.308-.366 7.82-.51 14.336-.51 22.315 0 3.625.108 6.99.144 9.838h.94c1.485 0 8.912 0 11.954-.466-.143.56-.258.883-.258 2.066 0 .783.057 1.09.258 1.758-2.626-.093-7.06-.308-9.837-.308-3.294 0-6.078.115-9.845.308 0-.818.36-12.836.36-14.12v-7.248zM276.03 451.176l-2.16-5.482c-2.218-.115-4.384-.208-6.602-.208-2.06 0-4.125.093-6.178.208-1.657 3.983-3.307 8.28-4.125 11.222-.668-.093-1.658-.308-2.476-.308-.883 0-1.608.215-2.32.308l5.98-13.346c5.2-11.703 8.186-18.433 9.427-22.674l1.7.258 1.65-.258c2.476 7.082 5.57 14.344 7.413 18.678 1.966 4.506 5.367 12.327 7.692 17.342-.775-.05-2.576-.308-4.018-.308-1.443 0-2.885.258-3.81.308l-2.175-5.74zm-8.51-21.425l-5.253 12.737c1.808.043 3.56.2 5.367.2 1.6 0 3.143-.107 4.736-.2l-4.85-12.736zM290.464 435.95c0-4.858-.043-9.723-.1-14.544l1.24.1 1.185-.1c4.9 5.43 9.478 10.26 15.72 16.36l6.085 6.005c.976.934 1.435 1.3 2.576 2.233v-11.495c0-4.4-.258-8.847-.616-13.102.617.165 1.277.308 2.217.308.927 0 1.544-.143 2.154-.308-.453 6.27-.567 9.937-.567 17.507 0 2.993.057 10.455.057 13.146 0 1.132.057 3.823.057 5.115l-1.04-.1-1.076.1c-6.544-7.14-19.23-19.82-24.698-24.848 0 7.046.065 10.827.165 16.31.05 3.006.094 3.515.46 8.28-.56-.05-1.585-.31-2.317-.31-.768 0-1.442.16-2.06.31l.417-7.19c.1-1.4.143-5.28.143-6.73v-7.047z"/></svg>