<svg xmlns="http://www.w3.org/2000/svg" width="397.848" height="219.86"><path d="M172.252 80.828v59.137c0 6.708-.137 11.416-.433 14.135-.3 2.705-1.16 5.498-2.59 8.358-1.43 2.86-3.324 5.03-5.667 6.5-2.348 1.478-5.106 2.215-8.292 2.215-3.516 0-6.64-.874-9.332-2.63-2.7-1.74-4.71-4.016-6.054-6.827-1.32-2.806-2.12-5.76-2.36-8.87-.25-3.124-.368-9.664-.368-19.66V80.83h12.762v66.304c0 3.865.38 6.288.402 7.396.044 2.374 3.482 1.615 4.302 1.615.927 0 1.523-.596 1.8-1.774.26-1.18.394-3.982.394-8.386V80.828h15.436zM194.05 91.64v24.694c3.4 0 5.787-.44 7.164-1.337 1.36-.887 2.047-3.79 2.047-8.684v-6.1c0-3.52-.665-5.828-1.976-6.927-1.32-1.108-3.733-1.646-7.233-1.646m-11.335-10.706h10.357c6.902 0 11.57.424 14.02 1.28 2.44.86 4.426 3.032 5.97 6.553 1.545 3.517 2.32 9.12 2.32 16.822 0 7.03-.55 11.75-1.65 14.173-1.085 2.41-3.238 3.866-6.438 4.342 2.9 1.156 4.85 2.705 5.852 4.63.993 1.932 1.61 3.702 1.862 5.32.247 1.608.375 6.056.375 13.328v23.79h-11.71v-29.98c0-4.824-.235-9.114-.7-10.27-.462-1.152-7.412-.428-9.38-.428v40.678h-10.878v-90.24zM239.654 131.89v25.987c1.236-.044 2.21-.07 2.913-.07 2.837 0 4.668-.733 5.44-2.207.786-1.46 1.188-5.666 1.188-12.6 0-3.657-.327-6.217-.98-7.677-.635-1.47-1.487-2.396-2.524-2.78-1.032-.393-3.053-.605-6.036-.653m0-38.966v26.005c1.236-.054 2.21-.085 2.913-.085 2.837 0 4.668-.737 5.44-2.206.786-1.462 1.188-5.663 1.188-12.59 0-3.655-.327-6.215-.98-7.688-.635-1.47-1.487-2.392-2.524-2.785-1.032-.384-3.053-.596-6.036-.653m-12.546-11.81h14.558c4.59 0 8.07.57 10.446 1.727 2.36 1.148 4.28 3.478 5.727 6.995 1.456 3.508 2.193 9.16 2.193 16.954 0 5.268-.53 8.944-1.55 11.036-1.027 2.07-3.05 3.67-6.076 4.788 3.385 1.213 5.68 3.24 6.884 6.08 1.21 2.834 1.824 7.176 1.824 13.032v8.33c0 6.082-.45 10.583-1.315 13.505-.87 2.93-2.247 4.934-4.145 6.007-1.897 1.076-5.776 1.606-11.654 1.606H227.11V81.115z"/><path d="M278.324 171.173V81.446" fill="none" stroke="#000" stroke-width="10.930678989999999" stroke-miterlimit="10"/><path d="M330.255 105.58h-15.34v-2.86c0-2.983-.19-4.88-.578-5.688-.384-.816-1.015-1.222-1.897-1.222-.962 0-1.695.552-2.198 1.646-.494 1.086-.723 2.74-.723 4.96 0 2.85.294 5.004.916 6.447.605 1.443 2.167 3.204 4.682 5.296 7.224 6.01 11.783 10.916 13.685 14.716 1.897 3.808 2.842 9.942 2.842 18.4 0 6.157-.53 10.685-1.585 13.61-1.06 2.904-3.097 5.358-6.125 7.326-3.022 1.977-6.544 2.96-10.564 2.96-4.407 0-8.172-1.133-11.278-3.406-3.12-2.264-5.172-5.163-6.125-8.676-.962-3.517-1.457-8.512-1.457-14.972v-.556h15.348v5.348c0 3.208.208 5.278.64 6.196.415.922 1.17 1.372 2.255 1.372 1.077 0 1.89-.578 2.41-1.76.538-1.157.803-2.895.803-5.208 0-5.07-.53-8.39-1.545-9.946-1.075-1.563-3.635-4.18-7.704-7.86-4.09-3.707-6.782-6.416-8.11-8.075-1.33-1.665-2.44-3.982-3.3-6.938-.875-2.944-1.312-6.717-1.312-11.306 0-6.61.618-11.45 1.862-14.5 1.236-3.063 3.235-5.455 6.002-7.176 2.758-1.734 6.103-2.595 10.013-2.595 4.277 0 7.917.95 10.94 2.833 3 1.88 4.99 4.26 5.98 7.123.975 2.865 1.465 7.732 1.465 14.598v-.088zM358.73 138.857c-.926-10.18-1.906-22.845-2.95-38-1.925 17.388-3.112 30.053-3.58 38h6.53zm5.477-58.033l10.388 90.35h-12.762l-.44-17.255-11.483-.218-1.95 17.47h-13.43l11.05-90.348h18.627zM12.537 192.562h2.312v13.15c0 2.295-.2 4.113-.592 5.45-.402 1.35-1.116 2.45-2.158 3.292-1.04.843-2.405 1.267-4.09 1.267-1.647 0-2.984-.365-4.03-1.102-1.04-.733-1.787-1.8-2.228-3.195-.45-1.39-.67-3.297-.67-5.71v-13.15h2.316v13.136c0 1.972.14 3.432.415 4.372.29.936.776 1.655 1.46 2.167.69.507 1.532.754 2.533.754 1.704 0 2.913-.5 3.645-1.5.725-1.007 1.087-2.94 1.087-5.795V192.56zM21.75 202.64h4.988c1.063 0 1.888-.14 2.493-.43.592-.288 1.047-.747 1.36-1.37.31-.626.463-1.314.463-2.05 0-1.078-.304-1.97-.9-2.662-.61-.698-1.558-1.046-2.86-1.046h-5.542v7.56zm-2.31 12.715v-22.797h7.765c1.567 0 2.754.207 3.562.617.816.415 1.47 1.135 1.954 2.172.49 1.04.734 2.18.734 3.437 0 1.62-.406 2.988-1.205 4.09-.813 1.113-2.057 1.823-3.743 2.124.622.38 1.086.754 1.403 1.125.68.807 1.324 1.822 1.93 3.036l3.03 6.195h-2.9l-2.324-4.74c-.676-1.368-1.24-2.41-1.677-3.137-.443-.724-.83-1.227-1.18-1.523-.348-.29-.7-.5-1.054-.61-.265-.074-.697-.1-1.29-.1h-2.695v10.11h-2.31zM39.906 212.672h4.412c.755 0 1.29-.036 1.593-.106.544-.128.99-.33 1.356-.623.362-.295.662-.714.892-1.275.234-.552.353-1.187.353-1.915 0-.852-.167-1.593-.498-2.22-.34-.626-.812-1.068-1.412-1.32-.605-.26-1.47-.38-2.595-.38h-4.1v7.84zm0-10.525h3.83c1.04 0 1.792-.084 2.242-.26.595-.23 1.04-.614 1.35-1.14.3-.53.46-1.19.46-1.994 0-.763-.147-1.425-.43-2.008-.286-.573-.688-.966-1.208-1.182-.53-.212-1.43-.318-2.7-.318h-3.544v6.902zm-2.317 13.208v-22.793h6.618c1.342 0 2.427.23 3.244.693.807.46 1.447 1.174 1.906 2.136.468.963.697 1.97.697 3.015 0 .975-.198 1.893-.604 2.753-.41.865-1.014 1.558-1.84 2.083 1.06.407 1.876 1.1 2.44 2.075.58.967.86 2.118.86 3.442 0 1.068-.175 2.057-.524 2.97-.348.918-.79 1.63-1.293 2.123-.516.494-1.156.87-1.933 1.125-.78.247-1.725.38-2.846.38H37.59zM57.835 206.008h6.006l-1.813-6.328c-.56-1.92-.984-3.508-1.288-4.76-.23 1.503-.566 2.964-.977 4.403l-1.928 6.685zm-5.057 9.347l6.73-22.793h2.568l7.188 22.793h-2.656l-2.03-6.91h-7.44l-1.907 6.91H52.78zM71.66 215.355v-22.793h2.397l9.262 17.903v-17.903h2.232v22.793h-2.387l-9.267-17.908v17.908H71.66z"/><path d="M91.58 215.355v-22.793" fill="none" stroke="#000" stroke-width="1.96372715" stroke-miterlimit="10"/><path d="M96.077 215.355v-2.79l9.064-14.562c.654-1.024 1.26-1.946 1.846-2.758h-9.898v-2.683h12.634v2.683l-9.907 15.816-1.06 1.612h11.258v2.683H96.077zM116.244 206.008h6l-1.812-6.328c-.552-1.92-.976-3.508-1.28-4.76-.238 1.503-.565 2.964-.98 4.403l-1.928 6.685zm-5.062 9.347l6.74-22.793h2.563l7.184 22.793h-2.645l-2.034-6.91h-7.443l-1.902 6.91h-2.463zM132.426 212.672h3.768c1.152 0 2.07-.137 2.732-.42.657-.287 1.187-.675 1.584-1.182.547-.72.975-1.682 1.29-2.89.3-1.205.462-2.675.462-4.392 0-2.387-.3-4.223-.91-5.507-.604-1.28-1.34-2.13-2.205-2.572-.623-.308-1.624-.463-3.014-.463h-3.707v17.427zm-2.308 2.683v-22.793h6.054c1.368 0 2.414.106 3.133.327 1.01.294 1.87.842 2.578 1.636.93 1.01 1.62 2.303 2.087 3.892.46 1.57.688 3.376.688 5.41 0 1.734-.163 3.274-.468 4.612-.313 1.332-.714 2.435-1.204 3.314-.486.878-1.02 1.562-1.598 2.07-.582.494-1.28.882-2.1 1.138-.82.26-1.765.393-2.83.393h-6.34zM150.095 204.296c0 2.754.565 4.91 1.716 6.487 1.15 1.588 2.592 2.378 4.322 2.378 1.765 0 3.217-.797 4.355-2.39 1.14-1.602 1.712-3.857 1.712-6.8 0-1.85-.243-3.474-.73-4.85-.49-1.39-1.203-2.463-2.143-3.226-.932-.75-1.99-1.134-3.156-1.134-1.653 0-3.092.732-4.28 2.197-1.204 1.465-1.795 3.91-1.795 7.34m-2.4-.054c0-3.782.785-6.738 2.365-8.88 1.57-2.135 3.605-3.207 6.098-3.207 1.63 0 3.098.503 4.41 1.51 1.31 1 2.307 2.4 2.995 4.2.688 1.796 1.033 3.835 1.033 6.108 0 2.308-.367 4.377-1.086 6.204-.724 1.814-1.747 3.2-3.076 4.135-1.324.94-2.75 1.408-4.29 1.408-1.663 0-3.145-.52-4.456-1.56-1.31-1.03-2.308-2.446-2.98-4.233-.67-1.796-1.014-3.694-1.014-5.684M170.584 202.64h4.99c1.06 0 1.89-.14 2.49-.43.595-.288 1.05-.747 1.354-1.37.314-.626.468-1.314.468-2.05 0-1.078-.3-1.97-.904-2.662-.596-.698-1.55-1.046-2.847-1.046h-5.55v7.56zm-2.313 12.715v-22.797h7.773c1.562 0 2.75.207 3.556.617.82.415 1.473 1.135 1.95 2.172.49 1.04.732 2.18.732 3.437 0 1.62-.4 2.988-1.204 4.09-.812 1.113-2.048 1.823-3.734 2.124.614.38 1.08.754 1.4 1.125.683.807 1.323 1.822 1.923 3.036l3.04 6.195H180.8l-2.313-4.74c-.684-1.368-1.244-2.41-1.68-3.137-.442-.724-.83-1.227-1.18-1.523-.348-.29-.7-.5-1.054-.61-.265-.074-.697-.1-1.297-.1h-2.692v10.11h-2.313zM189.674 206.008h5.997l-1.813-6.328c-.547-1.92-.975-3.508-1.275-4.76-.238 1.503-.57 2.964-.98 4.403l-1.928 6.685zm-5.057 9.347l6.73-22.793h2.572l7.18 22.793h-2.65l-2.033-6.91h-7.445l-1.902 6.91h-2.453z"/><path d="M210.948 215.355v-22.793" fill="none" stroke="#000" stroke-width="1.96372715" stroke-miterlimit="10"/><path d="M216.628 215.355v-22.793h2.39l9.268 17.903v-17.903h2.233v22.793h-2.388l-9.27-17.908v17.908h-2.234zM239.297 215.355v-20.11h-5.812v-2.683h13.94v2.683h-5.816v20.11h-2.313zM250.333 215.355v-22.793h12.674v2.683h-10.36v6.986h9.71v2.68h-9.71v7.762h10.766v2.683h-13.08zM275.297 206.41v-2.675h7.44v8.433c-1.152 1.18-2.335 2.066-3.548 2.657-1.22.59-2.472.896-3.752.896-1.73 0-3.296-.48-4.713-1.442-1.412-.958-2.476-2.335-3.2-4.157-.72-1.808-1.08-3.838-1.08-6.08 0-2.215.353-4.28 1.072-6.2.72-1.924 1.747-3.354 3.098-4.29 1.34-.926 2.89-1.394 4.646-1.394 1.268 0 2.42.265 3.452.8 1.03.537 1.84 1.28 2.423 2.232.582.957 1.02 2.197 1.328 3.733l-2.127.747c-.265-1.156-.595-2.083-.988-2.745-.39-.666-.945-1.21-1.673-1.597-.732-.41-1.53-.61-2.422-.61-1.06 0-1.99.208-2.754.632-.778.42-1.41.975-1.88 1.654-.473.7-.848 1.45-1.11 2.27-.444 1.407-.67 2.947-.67 4.602 0 2.035.274 3.738.808 5.115.543 1.372 1.324 2.387 2.352 3.05 1.033.67 2.127.996 3.288.996 1.002 0 1.99-.242 2.943-.75.963-.503 1.69-1.04 2.186-1.615v-4.258h-5.12zM288.972 202.64h4.987c1.062 0 1.892-.14 2.488-.43.604-.288 1.054-.747 1.36-1.37.312-.626.467-1.314.467-2.05 0-1.078-.3-1.97-.905-2.662-.596-.698-1.55-1.046-2.846-1.046h-5.552v7.56zm-2.308 12.715v-22.797h7.763c1.566 0 2.753.207 3.56.617.826.415 1.475 1.135 1.95 2.172.49 1.04.734 2.18.734 3.437 0 1.62-.396 2.988-1.204 4.09-.812 1.113-2.052 1.823-3.733 2.124.613.38 1.08.754 1.4 1.125.683.807 1.318 1.822 1.923 3.036l3.036 6.195h-2.904l-2.317-4.74c-.678-1.368-1.243-2.41-1.676-3.137-.44-.724-.834-1.227-1.178-1.523-.348-.29-.7-.5-1.055-.61-.263-.074-.696-.1-1.29-.1h-2.698v10.11h-2.308zM307.86 206.008h6l-1.808-6.328c-.556-1.92-.98-3.508-1.285-4.76-.233 1.503-.56 2.964-.98 4.403l-1.928 6.685zm-5.058 9.347l6.734-22.793h2.564l7.184 22.793h-2.647l-2.03-6.91h-7.445l-1.902 6.91h-2.458zM321.416 215.355v-22.793h2.312v20.11h8.65v2.683h-10.962zM335.9 215.355v-3.17h2.48v3.17c0 1.17-.173 2.113-.496 2.837-.34.72-.85 1.275-1.575 1.668l-.57-1.174c.468-.256.807-.648 1.024-1.147.225-.51.344-1.24.366-2.185h-1.23zM349.327 207.998l2.193-.242c.097 1.147.344 2.087.724 2.82.375.732.962 1.328 1.752 1.782.803.45 1.7.675 2.687.675.883 0 1.66-.158 2.34-.507.674-.344 1.182-.82 1.504-1.417.34-.605.5-1.25.5-1.95 0-.716-.16-1.334-.487-1.868-.318-.53-.852-.975-1.58-1.34-.472-.244-1.504-.606-3.12-1.113-1.61-.5-2.73-.98-3.375-1.422-.843-.57-1.465-1.28-1.876-2.127-.41-.847-.61-1.795-.61-2.84 0-1.153.243-2.23.75-3.23.5-1.007 1.236-1.762 2.202-2.283.958-.525 2.03-.78 3.217-.78 1.292 0 2.44.264 3.437.81.988.544 1.752 1.343 2.28 2.393.544 1.063.822 2.25.866 3.58l-2.237.206c-.12-1.42-.52-2.498-1.21-3.226-.688-.723-1.707-1.085-3.053-1.085-1.4 0-2.423.34-3.067 1.006-.635.667-.953 1.475-.953 2.415 0 .82.23 1.49.68 2.02.44.535 1.61 1.07 3.49 1.625 1.884.556 3.177 1.037 3.884 1.452 1.02.613 1.773 1.38 2.263 2.32.486.936.733 2.017.733 3.235 0 1.21-.27 2.352-.808 3.425-.53 1.068-1.3 1.902-2.29 2.493-1.002.59-2.127.896-3.37.896-1.59 0-2.918-.304-3.99-.895-1.073-.613-1.907-1.514-2.516-2.727-.62-1.21-.932-2.577-.963-4.1"/><path d="M368.426 215.355v-3.17" fill="none" stroke="#000" stroke-width="2.10493899" stroke-miterlimit="10"/><path d="M377.27 206.008h6.005l-1.81-6.328c-.56-1.92-.988-3.508-1.288-4.76-.233 1.503-.556 2.964-.975 4.403l-1.933 6.685zm-5.053 9.347l6.73-22.793h2.567l7.18 22.793h-2.647l-2.026-6.91h-7.444l-1.906 6.91h-2.453z"/><path d="M392.467 215.355v-3.17" fill="none" stroke="#000" stroke-width="2.10493899" stroke-miterlimit="10"/><path d="M99.448 177.894V99.03h-70.2L123.71 1.1h253.934v64.994H132.382l-10.397 15.604.1 96.31-22.637-.114z" fill="#ffd800"/><path d="M99.448 177.894V99.03h-70.2L123.71 1.1h253.934v64.994H132.382l-10.397 15.604.1 96.31-22.637-.114zM0 178.98h397.794" fill="none" stroke="#000" stroke-width="2.206435"/></svg>