<svg xmlns="http://www.w3.org/2000/svg" width="400" height="220.28"><path d="M7.672 96.02s4.43-.93 4.885 8.843l2.333 60.97s39.086-40.27 50.03-60.733c0 0 5.11-12.35-1.392-15.135 0 0-9.078-3.028-16.062 3.722 0 0 13.73 2.333 8.383 12.327 0 0-10.706 25.833-33.053 41.443V100.44s-.46-4.42-4.42-4.42H7.672z" fill="#eb2227"/><path d="M7.672 96.02l1.578 7.506-1.273-6.054v6.195c.44-.003.846-.054 1.273-.14L7.977 97.47v6.195-4.882l-1.91 4.502c.667.284 1.34.382 1.91.38v-4.882l-1.91 4.502 1.607-3.79-2.866 2.97c.298.295.76.613 1.258.82l1.608-3.79-2.866 2.97 1.75-1.807-2.164 1.31c.054.087.188.28.414.498l1.75-1.808-2.164 1.31.55-.334-.575.288.024.047.55-.334-.575.288c.014.002.427.98.527 3.295l-.004-.065 2.333 60.972c.117 3.077 2.045 5.766 4.92 6.866 2.874 1.105 6.105.39 8.248-1.82.053-.052 9.886-10.185 21.16-22.96 5.635-6.39 11.63-13.436 16.973-20.266 5.346-6.852 10.025-13.396 13.158-19.23.15-.282.2-.39.324-.685.078-.194.65-1.59 1.242-3.672.584-2.1 1.23-4.84 1.247-8.095-.013-2.07-.257-4.425-1.41-6.965-.578-1.256-1.412-2.544-2.534-3.672-1.115-1.13-2.512-2.077-4.006-2.713l-.595-.223c-.52-.165-3.255-1.06-7.336-1.073-2.272 0-4.98.293-7.87 1.272-2.88.972-5.928 2.676-8.615 5.28-2.075 2.005-2.85 5.024-1.996 7.784.852 2.755 3.195 4.81 6.042 5.294l.832-4.906-.883 4.896.052.01.832-4.906-.883 4.896.06-.33-.063.33h.004l.06-.33-.063.33c.045.008.51.102 1.1.286.887.253 2.045.8 2.397 1.113l.137.118.858-.782-1.052.445c.094.225.192.338.195.338l.858-.782-1.052.445 1.666-.705h-1.817c-.006.173.053.49.15.706l1.667-.705h-1.817.834l-.83-.12-.005.12h.834l-.83-.12-.005.03c-.02.078-.096.336-.33.773-.152.28-.2.384-.32.68l2.525 1.047-2.52-1.058-.005.01 2.525 1.048-2.52-1.058c-.033.084-2.62 6.208-7.738 14.002-5.107 7.806-12.763 17.227-22.625 24.098l4.39 6.29h7.67V100.44c0-.32-.008-.478-.04-.797-.03-.282-.106-.902-.328-1.78-.17-.66-.42-1.464-.835-2.385-.622-1.365-1.637-3.075-3.514-4.593-.933-.75-2.08-1.416-3.356-1.862-1.273-.452-2.66-.676-4.017-.672H7.672v7.67l1.578 7.506-1.578-7.506v7.668h10.705v-3.557l-1.996 2.89c.606.453 1.562.696 1.997.668v-3.557l-1.996 2.89 1.96-2.836-2.86 1.947c.148.223.432.568.9.89l1.96-2.836-2.86 1.947 1.364-.93-1.61.45c.023.053.02.136.245.48l1.364-.93-1.61.45 2.422-.677-2.486.26c.034.32.05.365.064.418l2.422-.677-2.486.26 7.627-.793h-7.67v47.017c0 2.862 1.587 5.476 4.126 6.8 2.538 1.323 5.592 1.126 7.935-.513 12.328-8.628 21.114-19.734 26.946-28.68 5.82-8.954 8.67-15.802 8.8-16.113l-7.085-2.936 6.763 3.617c1.324-2.468 2.143-5.153 2.143-7.915.004-1.76-.35-3.505-.964-5.032-1.087-2.7-2.853-4.628-4.527-5.978-2.553-2.023-5.04-3.004-6.954-3.66-1.916-.632-3.292-.873-3.56-.92l-1.284 7.562 5.33 5.516c.995-.95 1.918-1.45 2.89-1.787.967-.33 1.995-.458 2.933-.456.837-.002 1.588.1 2.065.196.237.045.405.09.482.11l.045.012 1.21-4-1.32 3.963.11.038 1.21-4-1.32 3.963 2.426-7.275-3.02 7.053 1.058-2.472-1.902 1.885c.262.27.612.492.844.588l1.058-2.472-1.902 1.885 1.47-1.453-2.027.607c.004.032.152.438.557.847l1.47-1.453-2.027.607.066-.02-.068.018.002.002.066-.02-.068.018c.01.024.055.282.053.683.017.97-.29 2.644-.66 3.906-.184.64-.368 1.187-.5 1.552l-.147.394-.024.07-.003.003 4.472 1.822-4.46-1.845-.012.022 4.472 1.822-4.46-1.845 7.085 2.933-6.764-3.617c-2.34 4.395-6.653 10.56-11.714 17.013-7.598 9.722-16.904 20.275-24.27 28.345-3.69 4.037-6.894 7.462-9.173 9.87-1.14 1.203-2.046 2.156-2.67 2.802l-.707.736-.237.243 5.504 5.343 7.667-.293-2.333-60.97-.005-.065c-.122-2.542-.46-4.734-1.056-6.716-.45-1.487-1.056-2.86-1.858-4.1-1.18-1.863-2.885-3.39-4.66-4.253-1.767-.88-3.462-1.116-4.67-1.11-.824 0-1.456.1-1.882.186-3.85.81-6.46 4.387-6.052 8.302.41 3.913 3.695 6.873 7.63 6.873V96.02z" fill="#fff"/><path d="M79.848 145.07c-6.617 12.49-14.522 11.46-14.522 11.46-8.652-4.57 0-22.406 0-22.406 5.6-13.232 19.87-8.91 19.87-8.91.764 10.944-5.348 19.856-5.348 19.856m16.29-25.705c-30.3-8.42-42.018 22.146-42.018 22.146-7.893 19.858 3.57 22.92 3.57 22.92 12.734-.76 20.102-9.163 20.102-9.163-.492 10.95 1.295 7.893 1.295 7.893 6.873 1.017 12.728-7.893 12.728-7.893l-5.604.506 9.928-36.408z" fill="#eb2227"/><path d="M79.848 145.07l-6.777-3.59c-2.32 4.343-4.392 6.002-5.633 6.748-.63.373-1.088.523-1.373.593l-.295.058v.02-.02.02-.015 4.18l.537-4.14c-.295-.038-.463-.04-.536-.04v4.18l.537-4.14-.98 7.607 3.58-6.78-.493.937.778-.706-.284-.23-.494.937.778-.706-.695.632.83-.445-.135-.186-.695.632.83-.445-.08.042.086-.037-.005-.006-.08.042.085-.037c-.024-.026-.19-.57-.182-1.482-.003-.923.148-2.17.43-3.464.416-1.947 1.102-3.988 1.68-5.472.288-.742.548-1.35.725-1.75.09-.204.158-.355.2-.445l.044-.092-.47-.222.466.226.003-.004-.47-.222.466.226.165-.358c.538-1.267 1.107-2.09 1.653-2.69.823-.887 1.632-1.36 2.63-1.718.985-.348 2.156-.5 3.254-.497.953-.003 1.836.11 2.416.216.29.052.505.1.62.13l.092.024.906-3.29-.988 3.264.083.026.906-3.29-.988 3.264 2.224-7.34-7.65.534c.03.46.046.92.046 1.377.01 3.64-1.022 7.195-2.11 9.778-.54 1.288-1.083 2.324-1.464 3-.19.337-.342.584-.43.727l-.086.132-.005.007 3.924 2.634-3.897-2.672-.026.037 3.924 2.634-3.897-2.672c-.18.263-.303.463-.452.747l6.778 3.59 6.325 4.34c.213-.316 1.825-2.698 3.454-6.58 1.62-3.878 3.295-9.293 3.306-15.705 0-.802-.028-1.618-.086-2.446-.22-3.165-2.392-5.886-5.427-6.808-.47-.13-3.322-.99-7.493-1.002-3.178.006-7.236.516-11.356 2.676-2.046 1.08-4.074 2.58-5.85 4.53-1.783 1.947-3.303 4.324-4.457 7.06l7.063 2.988-6.9-3.348c-.093.194-1.17 2.416-2.28 5.66-.557 1.627-1.12 3.507-1.564 5.565-.44 2.06-.767 4.292-.772 6.69.01 2.39.318 5.006 1.5 7.703.592 1.34 1.422 2.683 2.514 3.888 1.087 1.206 2.433 2.253 3.92 3.03.803.43 1.694.71 2.6.826.295.04.78.086 1.427.086 1.965.01 5.546-.457 9.474-2.787 3.934-2.312 8.018-6.396 11.38-12.774l-6.776-3.59 6.325 4.34-6.325-4.34zm16.29-25.705l2.056-7.39c-4.287-1.193-8.387-1.748-12.256-1.746-7.026-.013-13.22 1.863-18.254 4.627-7.58 4.163-12.618 10.097-15.865 14.902-3.243 4.827-4.714 8.63-4.863 9.006l7.163 2.745-7.13-2.83c-2.28 5.75-3.31 10.66-3.315 15.014-.005 3.154.57 6.01 1.58 8.436 1.507 3.66 3.975 6.163 6.05 7.587 2.092 1.444 3.795 1.956 4.405 2.124.823.22 1.59.297 2.436.246 7.984-.48 14.266-3.348 18.5-6.062 4.255-2.726 6.567-5.315 6.914-5.7l-5.768-5.057-7.66-.347c-.064 1.426-.096 2.66-.096 3.75 0 1.167.034 2.167.107 3.082.055.69.13 1.327.252 1.988.21.996.403 2.02 1.3 3.557.465.757 1.173 1.69 2.382 2.525.6.413 1.323.782 2.107 1.03.783.25 1.62.373 2.4.37.96.003 1.82-.174 2.516-.407 1.226-.416 1.99-.95 2.54-1.384.812-.662 1.2-1.163 1.5-1.547.286-.384.453-.657.564-.844l-6.617-3.88-1.122 7.59c.753.108 1.497.16 2.224.16 3.217-.003 5.96-.986 8.145-2.16 3.284-1.792 5.56-4.04 7.193-5.838 1.62-1.806 2.548-3.21 2.698-3.435 1.612-2.45 1.676-5.634.168-8.153-1.508-2.516-4.346-3.96-7.267-3.697l-5.605.505.69 7.64 7.4 2.02 9.928-36.41c1.106-4.062-1.288-8.278-5.346-9.408l-2.056 7.39-7.4-2.018-9.927 36.41c-.66 2.424-.092 5.017 1.522 6.943 1.614 1.924 4.067 2.937 6.57 2.71l5.602-.504-.69-7.64-6.41-4.21 3.854 2.53-3.83-2.567-.023.036 3.853 2.53-3.83-2.567-.004.006c-.074.124-1.2 1.69-2.56 2.898-.668.608-1.385 1.113-1.905 1.373-.26.132-.466.207-.594.24l-.177.035v.122l.016-.122h-.017v.122l.016-.122c-3.092-.456-6.156 1.013-7.737 3.713l5.653 3.312-4.794-4.472c-.54.59-.68.87-.86 1.16l5.653 3.312-4.794-4.472 5.04 4.702-3.61-5.87c-.764.477-1.148.874-1.43 1.168l5.04 4.702-3.61-5.87 3.783 6.152-2.273-6.853c-.636.21-1.126.465-1.51.7l3.783 6.152-2.273-6.853 2.315 6.977v-7.35c-.89-.002-1.684.162-2.315.373l2.315 6.977v-7.35 7.372l3.79-6.327c-1.047-.645-2.495-1.066-3.79-1.046v7.372l3.79-6.327-3.685 6.15 5.66-4.41c-.416-.534-1.05-1.185-1.975-1.74l-3.685 6.15 5.66-4.41-4.87 3.797 5.9-1.898c-.122-.336-.308-.948-1.03-1.9l-4.87 3.797 5.9-1.898-2.783.894 2.88-.52c-.004-.013-.02-.124-.098-.375l-2.783.894 2.88-.52-.016-.14c-.036-.3-.085-1.024-.083-2.133 0-.803.022-1.818.08-3.057.146-3.263-1.77-6.244-4.8-7.464-3.03-1.218-6.477-.397-8.63 2.06l3.89 3.41-3.846-3.46-.042.05 3.89 3.41-3.847-3.46.472.422-.465-.428-.006.006.472.422-.465-.428c-.064.074-1.595 1.69-4.188 3.256-2.61 1.578-6.196 3.098-10.66 3.365l.46 7.656 1.978-7.41-1.177 4.406 1.58-4.282c-.07-.028-.195-.068-.402-.124l-1.177 4.406 1.58-4.282-.32.87.407-.836-.086-.034-.32.87.407-.836c-.024-.013-.25-.124-.467-.437-.116-.165-.258-.404-.4-.858-.138-.457-.272-1.143-.274-2.188-.005-1.868.47-4.93 2.23-9.35l.034-.087-4.582-1.757 4.57 1.787.012-.03-4.582-1.757 4.57 1.787.015-.032c.18-.488 2.41-5.638 6.602-10.2 2.092-2.294 4.63-4.433 7.585-5.966 2.966-1.532 6.312-2.513 10.468-2.524 2.406.002 5.097.34 8.146 1.19l2.054-7.39-7.4-2.02 7.4 2.02z" fill="#fff"/><path d="M100.974 163.668s9.174-91.42 49.416-96.01c0 0 2.03 2.546-3.566 3.823 0 0-16.292-11.2-37.193 83.278l7.65.246s-4.832 6.627-16.306 8.664" fill="#eb2227"/><path d="M100.974 163.668l7.632.765.004-.04c.055-.552.685-6.442 2.194-14.98 2.248-12.79 6.558-31.59 13.597-46.954 3.498-7.68 7.684-14.457 12.263-19.178 2.288-2.37 4.653-4.23 7.063-5.555 2.416-1.324 4.864-2.14 7.534-2.446l-.87-7.62-5.993 4.783 4.803-3.832-5.562 2.634c.258.535.493.864.76 1.2l4.802-3.833-5.562 2.634 5.318-2.518h-5.877c.008 1.196.315 1.99.558 2.518l5.318-2.518h-5.877 6.077l-5.49-2.62c-.4.828-.596 1.81-.588 2.62h6.077l-5.49-2.62 5.044 2.41-4.01-3.902c-.35.356-.736.875-1.032 1.493l5.043 2.408-4.01-3.9 2.563 2.49-1.544-3.267c-.088.04-.49.237-1.02.776l2.563 2.49-1.544-3.266.294.623-.273-.633-.02.01.294.624-.273-.633-.142.05c-.105.034-.267.078-.484.127l1.71 7.477 4.348-6.318c-.458-.313-1.188-.746-2.213-1.11-1.02-.365-2.345-.655-3.85-.653-1.585-.005-3.342.325-5.06 1.025-3.03 1.234-5.867 3.467-8.682 6.832-4.216 5.086-8.594 12.878-13.47 25.735-4.86 12.856-10.154 30.797-15.756 56.11-.49 2.22.04 4.567 1.435 6.363 1.395 1.795 3.538 2.887 5.81 2.96l7.644.243.25-7.664-6.2-4.517 3.8 2.768-3.71-2.89-.09.122 3.8 2.768-3.71-2.89.617.482-.612-.49-.006.008.617.482-.612-.49c-.02.026-.917 1.128-2.776 2.373-1.873 1.246-4.675 2.655-8.766 3.385l1.34 7.553 7.632.765-7.632-.765 1.34 7.55c6.974-1.232 12.173-3.938 15.61-6.433 3.45-2.5 5.185-4.762 5.554-5.265 1.672-2.296 1.938-5.335.693-7.886-1.247-2.55-3.81-4.207-6.646-4.3l-7.645-.242-.25 7.666 7.49 1.655c4.183-18.898 8.162-33.446 11.81-44.558 5.45-16.667 10.253-25.615 13.46-29.814 1.59-2.108 2.74-3 3.19-3.272l.212-.118-.01-.025.008.023.002.002-.01-.025.008.023-.68-1.998v2.09c.345.002.612-.064.68-.092l-.68-1.998v2.09-3.883l-1.297 3.644c.44.16.906.242 1.297.24v-3.883l-1.297 3.644 1.95-5.475-3.287 4.774c.458.315.89.54 1.337.7l1.95-5.475-3.287 4.774c1.76 1.21 3.977 1.635 6.056 1.16 1.18-.27 2.275-.608 3.342-1.073 1.578-.69 3.186-1.698 4.508-3.36.652-.82 1.196-1.796 1.542-2.816.35-1.016.5-2.057.496-2.984-.01-1.813-.494-3.14-.92-4.05-.436-.913-.852-1.465-1.114-1.802-1.648-2.062-4.24-3.135-6.864-2.836-6.455.727-12.3 3.254-17.276 6.828-4.367 3.133-8.124 7.046-11.428 11.403-5.77 7.637-10.206 16.672-13.782 25.966-5.348 13.935-8.724 28.483-10.814 39.632-2.085 11.144-2.863 18.874-2.88 19.034-.24 2.395.65 4.75 2.418 6.39 1.765 1.64 4.184 2.347 6.553 1.927l-1.34-7.552z" fill="#fff"/><path d="M133.836 135.66s8.396-18.85 11.972-8.67c0 0-1.796 7.39-8.658 11.73 0 0-4.59 3.048-3.314-3.06m36.672-7.89s-5.602 5.07-7.896 5.34c0 0 14-1.277 8.406 10.438 0 0-4.08 19.107-32.857 13.5 0 0-10.943-2.803-5.853-13.244 0 0 32.34-16.303 20.365-27.502 0 0-34.117 8.152-27.238 43.033 0 0 6.873 15.808 34.63 0 0 0 16.816-8.664 21.66-23.178 0 0 3.048-8.903-11.216-8.387" fill="#eb2227"/><path d="M133.836 135.66l7.005 3.122.003-.002c.07-.164 1.318-2.87 2.764-5.17.7-1.138 1.488-2.17 1.88-2.558l.163-.153-.734-.884.632.955.102-.07-.734-.884.632.955-1.986-3.014 1.224 3.384c.414-.15.642-.294.762-.37l-1.986-3.014 1.224 3.384-1.785-4.935v5.238c.763 0 1.377-.156 1.786-.303L143 126.405v5.238-5.756l-2.35 5.252c.722.332 1.6.51 2.35.503v-5.756l-2.35 5.252 1.982-4.43-3.966 2.886c.237.334.872 1.05 1.983 1.543l1.982-4.43-3.966 2.886 1.595-1.16-1.773.88.18.28 1.594-1.16-1.773.88.02.045.065.172 7.236-2.542-7.453-1.81 3.95.957-3.925-1.054-.025.096 3.95.957-3.925-1.054-.013.043c-.072.254-.5 1.567-1.384 3.01-.882 1.455-2.166 2.99-3.932 4.1l-.142.093 1.344 2.025-1.026-2.213c-.115.057-.102.047-.318.187l1.344 2.025-1.026-2.213 1.2 2.584-.79-2.73c-.248.07-.348.118-.41.146l1.2 2.584-.79-2.73 1.38 4.775v-4.96c-.736.005-1.135.118-1.38.185l1.38 4.776v-4.96 6.202l2.247-5.772c-.913-.354-1.693-.43-2.246-.43v6.202l2.246-5.772-2.376 6.103 4.404-4.847c-.61-.56-1.347-.996-2.027-1.256l-2.376 6.103 4.404-4.847-4.185 4.61 5.924-1.987c-.238-.733-.803-1.784-1.74-2.624l-4.185 4.61 5.924-1.987-4.147 1.39h4.397c-.002-.182-.008-.64-.25-1.39l-4.147 1.39h4.397-1.51l1.508.095.002-.096h-1.51l1.508.095v-.006c.005-.035.022-.163.066-.37l-7.508-1.57 7.005 3.122-7.004-3.122-7.508-1.57c-.23 1.127-.382 2.22-.386 3.42.004.93.09 1.935.41 3.06.238.84.62 1.75 1.206 2.63.866 1.334 2.26 2.515 3.674 3.14 1.423.644 2.747.81 3.785.81 1.233-.006 2.143-.21 2.883-.422 1.103-.324 1.85-.69 2.414-.983.56-.297.92-.53 1.08-.636l-4.244-6.39 4.1 6.483c4.856-3.08 7.793-7.116 9.533-10.298 1.744-3.203 2.363-5.644 2.48-6.105.352-1.454.277-2.943-.218-4.352-.63-1.742-1.433-3.466-3.043-5.144-.804-.825-1.846-1.612-3.083-2.166-1.234-.557-2.633-.84-3.92-.836-1.195 0-2.274.224-3.19.53-1.722.59-2.91 1.412-3.893 2.208-1.695 1.412-2.85 2.868-3.91 4.327-1.553 2.18-2.78 4.384-3.683 6.113-.898 1.726-1.448 2.958-1.495 3.058-.225.51-.387 1.01-.502 1.553l7.508 1.57zm36.672-7.89l-5.152-5.685.05.053-.048-.053h-.002l.05.053-.048-.053c-.074.068-1.384 1.237-2.755 2.284-.676.517-1.38 1.005-1.802 1.255l-.238.136-.053.03 1.673 3.646-.456-3.945c-.988.137-1.188.303-1.218.3l1.673 3.646-.456-3.945c-4.163.485-7.176 4.244-6.743 8.413.433 4.167 4.156 7.227 8.33 6.845l-.308-3.34.24 3.347.067-.007-.307-3.34.24 3.347c.01-.002.216-.017.52-.015.372-.002.895.02 1.353.09.34.044.64.117.797.17l.11.04v.003l1.005-2.03-1.802 1.273c.397.554.783.748.798.757l1.004-2.03-1.802 1.273 2.233-1.576h-2.794c-.03.202.153 1.04.56 1.576l2.233-1.576h-2.794.76l-.758-.058-.003.058h.76l-.758-.058-.013.073c-.033.18-.172.706-.562 1.516-.277.58-.446 1.076-.58 1.705l3.695.79-3.66-.95-.035.16 3.695.79-3.66-.95-.024.094c-.076.244-.32.943-.805 1.796-.738 1.29-1.947 2.873-4.067 4.197-2.135 1.31-5.29 2.516-10.62 2.536-2.37 0-5.156-.257-8.412-.893l-1.465 7.532 1.903-7.433-1.133 4.425 1.252-4.393-.12-.033-1.132 4.425 1.252-4.393h-.002c-.128-.022-1.08-.427-1.44-.75l-.183-.172-.017-.023-.175.132.19-.105-.015-.027-.175.132.19-.105-.584.318.645-.166-.06-.152-.584.318.645-.166-.46.12.473-.06-.013-.06-.46.12.473-.06-.096.012.096-.006v-.006l-.096.012.096-.006v-.02c0-.078.012-.61.573-1.763l-6.893-3.363 3.452 6.85c.213-.115 6.226-3.13 12.58-7.75 3.18-2.328 6.46-5.034 9.243-8.3 1.388-1.64 2.664-3.433 3.672-5.52.998-2.075 1.745-4.51 1.75-7.242.005-2.01-.442-4.14-1.347-6.067-.897-1.934-2.207-3.638-3.744-5.073-1.873-1.753-4.527-2.457-7.022-1.86-.286.07-2.39.587-5.47 1.82-4.61 1.863-11.486 5.303-17.546 11.632-3.018 3.162-5.805 7.076-7.816 11.793-2.013 4.71-3.218 10.203-3.21 16.324 0 3.29.342 6.76 1.06 10.41.107.545.27 1.063.49 1.573.317.704 1.596 3.463 4.848 6.276 1.62 1.39 3.747 2.765 6.36 3.76 2.616 1 5.702 1.604 9.14 1.6 3.443 0 7.232-.59 11.39-1.88 4.16-1.295 8.7-3.29 13.72-6.15l-3.795-6.665 3.512 6.818c.322-.173 4.946-2.555 10.392-7.052 2.723-2.258 5.658-5.05 8.344-8.438 2.678-3.388 5.124-7.395 6.69-12.076l-.02.058c.164-.52.674-2.022.686-4.387-.002-1.326-.177-2.953-.833-4.73-.487-1.324-1.26-2.716-2.344-3.964-1.62-1.89-3.88-3.352-6.38-4.218-2.518-.883-5.28-1.265-8.442-1.267-.47 0-.95.007-1.44.026-1.805.066-3.533.77-4.872 1.98l5.152 5.686.28 7.664c.31-.013.603-.017.88-.017 1.666-.002 2.7.196 3.186.346l.34.123.033.017.6-1.066-.875.832.275.233.6-1.066-.875.832 1.717-1.632-2.247.748c.086.273.3.653.53.883l1.716-1.632-2.247.748 1.59-.53h-1.686c.003.08.007.246.096.53l1.59-.53h-1.686 1.836l-1.695-.58c-.166.517-.126.42-.14.58h1.835l-1.695-.58-.02.054c-.856 2.576-2.33 5.095-4.168 7.413-2.74 3.478-6.278 6.442-9.09 8.44-1.406.998-2.628 1.766-3.464 2.265-.42.25-.744.433-.947.544l-.214.117-.034.016 1.437 2.745-1.42-2.752-.018.008 1.437 2.745-1.42-2.752-.283.153c-4.228 2.41-7.78 3.93-10.685 4.83-2.903.903-5.144 1.19-6.833 1.19-1.692-.003-2.835-.276-3.68-.594-1.25-.484-1.927-1.107-2.35-1.582-.204-.233-.328-.425-.366-.493l-.007.003.005-.002h.002l-.007.003.005-.002-4.052 2.07 4.17-1.813-.118-.256-4.052 2.07 4.17-1.813-7.036 3.058 7.528-1.484c-.542-2.74-.772-5.21-.772-7.44.017-5.53 1.362-9.602 3.337-12.988 1.49-2.53 3.386-4.66 5.457-6.453 3.1-2.686 6.606-4.567 9.285-5.712 1.34-.576 2.466-.968 3.22-1.21.374-.12.656-.2.824-.246l.166-.043.01-.005-1.065-4.31 1.032 4.318.034-.008-1.065-4.31 1.032 4.318-1.785-7.46-5.237 5.6.296.32.03.043.78-.424h-.877l.098.424.78-.424h-.877.324l-.322-.043-.002.042h.324l-.322-.043c.004.01-.075.387-.437 1.02-.61 1.107-2.07 2.83-3.956 4.504-2.825 2.542-6.53 5.05-9.453 6.824-1.466.892-2.74 1.613-3.633 2.1-.445.242-.793.43-1.023.55l-.254.13-.053.027-.003.002c-1.494.753-2.708 1.983-3.44 3.486-1.362 2.783-2.127 5.65-2.127 8.488-.02 3.048.95 5.925 2.337 8.05 1.032 1.61 2.245 2.846 3.414 3.8 1.76 1.43 3.435 2.272 4.723 2.83 1.294.547 2.213.792 2.496.866l.437.1c4.11.8 7.88 1.17 11.345 1.17 5.9.006 10.94-1.093 15.073-2.922 3.1-1.365 5.67-3.13 7.707-5 3.067-2.805 4.946-5.808 6.074-8.15 1.13-2.35 1.53-4.066 1.63-4.526l-7.502-1.6 6.924 3.304c1.258-2.657 2.054-5.3 2.066-8.142.002-1.388-.21-2.81-.663-4.15-.78-2.367-2.318-4.337-3.92-5.613-1.202-.972-2.428-1.623-3.573-2.096-1.72-.703-3.284-1.027-4.65-1.22-1.364-.188-2.533-.23-3.435-.23-1.002 0-1.67.054-1.855.07l.7 7.64.887 7.62c1.48-.193 2.39-.566 3.204-.907 1.38-.62 2.412-1.282 3.414-1.96 1.482-1.015 2.8-2.077 3.81-2.913 1.003-.838 1.675-1.446 1.73-1.497l-5.15-5.683.28 7.664-.28-7.664z" fill="#fff"/><path d="M189.108 125.472s6.363-.505 2.294 10.94l-7.91 26.49 6.872.26s9.432-33.11 24.71-36.933c0 0 5.855-2.545 1.278 9.928 0 0-8.404 23.946-7.642 28.788 0 0 5.088 2.794 12.988-6.118l-4.075-1.522 9.16-28.275s3.82-11.46-5.854-8.4c0 0-11.713 2.808-18.332 8.4 0 0 0-8.66-4.585-9.17l-8.905 5.612z" fill="#eb2227"/><path d="M189.108 125.472l.644 7.643-.53-6.255v6.278c.17 0 .34-.006.53-.023l-.53-6.255v6.278-4.264l-1.023 4.145c.413.097.71.116 1.023.118v-4.264l-1.024 4.145 1.027-4.157-2.136 3.706c.427.244.804.372 1.11.45l1.027-4.157-2.136 3.706 2.174-3.77-3.862 2.038c.33.663 1.05 1.386 1.69 1.73l2.172-3.767-3.862 2.038 2.674-1.408-2.962.653c.032.153.117.433.288.755l2.674-1.408-2.962.653 1.164-.258-1.19.12.026.138 1.164-.258-1.19.12.002.076c.013.31-.12 1.61-.915 3.822l-.12.375-7.908 26.49c-.683 2.284-.275 4.726 1.113 6.662 1.388 1.935 3.567 3.108 5.947 3.198l6.87.258c3.54.132 6.693-2.156 7.665-5.564.064-.247 2.406-8.22 6.33-16.15 1.944-3.96 4.3-7.89 6.704-10.728 1.196-1.422 2.393-2.56 3.46-3.34 1.074-.784 1.984-1.198 2.7-1.375.44-.11.78-.227 1.197-.406l-2.126-4.894 1.4 5.152c.272-.074.468-.15.726-.258l-2.126-4.894 1.4 5.152-1.253-4.612v4.774c.636-.006.983-.093 1.254-.162l-1.254-4.612v4.774-5.69l-1.923 5.35c.804.285 1.457.338 1.924.34v-5.69l-1.923 5.35 2.058-5.73-3.91 4.663c.584.493 1.255.855 1.853 1.066l2.058-5.73-3.91 4.664 3.646-4.35-5.36 1.947c.23.674.82 1.67 1.713 2.403l3.647-4.35-5.36 1.947 2.93-1.064h-3.16c0 .008-.014.375.23 1.064l2.93-1.064h-3.16s-.004.1-.03.307c-.076.624-.413 2.128-1.253 4.4l-.035.1c-.02.057-1.966 5.6-3.94 12.01-.988 3.21-1.982 6.633-2.758 9.775-.388 1.575-.725 3.08-.977 4.508-.25 1.445-.44 2.757-.448 4.305.002.565.026 1.175.14 1.92.37 2.354 1.796 4.386 3.884 5.533.847.47 2.892 1.365 5.83 1.363 2.33.01 5.135-.594 7.96-2.072 2.84-1.47 5.714-3.75 8.63-7.04 1.686-1.902 2.32-4.48 1.707-6.943-.614-2.465-2.382-4.442-4.76-5.333l-4.075-1.523-2.685 7.186 7.298 2.365 9.158-28.274-.018.062c.06-.185.316-.97.583-2.158.258-1.194.546-2.77.552-4.73-.002-.985-.075-2.075-.343-3.3-.205-.92-.527-1.922-1.067-2.97-.79-1.558-2.198-3.236-4.08-4.324-1.87-1.107-3.997-1.546-5.893-1.535-1.82.007-3.506.346-5.197.877l2.314 7.312-1.79-7.458c-.203.05-3.387.813-7.575 2.376-2.098.782-4.448 1.765-6.835 3-2.386 1.24-4.817 2.717-7.082 4.625l4.95 5.858h7.673c0-.17-.004-.918-.102-2.027-.072-.833-.196-1.872-.433-3.05-.375-1.767-.912-3.86-2.345-6.188-.73-1.153-1.73-2.386-3.182-3.45-1.433-1.062-3.36-1.87-5.346-2.077-1.73-.192-3.463.207-4.937 1.132l-8.905 5.613c-2.998 1.89-4.312 5.564-3.186 8.925 1.126 3.36 4.386 5.506 7.918 5.207l-.644-7.643 4.088 6.49 8.907-5.61-4.09-6.492-.847 7.623.463-4.165-2.287 3.513c.482.327 1.207.596 1.823.653l.463-4.165-2.287 3.513 1.85-2.842-2.675 2.11c.134.167.394.45.825.733l1.85-2.842-2.675 2.11 1.452-1.146-1.567.983.115.162 1.452-1.145-1.567.983.477-.3-.5.257.023.043.477-.3-.5.257c.048.032.353 1.02.44 1.845.056.416.084.797.1 1.047l.01.26v.032l3.81-.045h-3.81v.046l3.81-.045h-3.81c0 2.985 1.735 5.704 4.44 6.96 2.705 1.256 5.902.825 8.182-1.1 1.042-.888 2.56-1.858 4.228-2.72 2.506-1.3 5.34-2.37 7.483-3.068 1.07-.35 1.973-.614 2.587-.785.307-.085.544-.147.693-.183l.158-.04.028-.01-.607-2.488.598 2.49.01-.002-.607-2.488.598 2.49.527-.144c.292-.092.492-.137.59-.154l.07-.01-.093-.984v.986l.094-.003-.094-.983v.986-3.62l-1.6 3.193c.747.375 1.395.43 1.6.427v-3.62l-1.6 3.193 2.13-4.252-3.61 3.093c.376.45.93.89 1.48 1.16l2.13-4.252-3.61 3.093 2.918-2.5-3.756.982c.067.247.258.836.838 1.518l2.918-2.5-3.756.982 1.395-.367-1.436.158.04.21 1.395-.368-1.436.158.002.104c.01.27-.077.926-.19 1.403-.053.24-.106.446-.143.568l-.032.11.153.05-.152-.05.153.05-.152-.05 4.663 1.505-4.65-1.548-.012.044 4.663 1.505-4.65-1.548-.016.062-9.16 28.273c-1.26 3.896.777 8.116 4.614 9.55l4.076 1.522 2.682-7.187-5.74-5.088c-1.934 2.186-3.387 3.173-4.21 3.598-.41.215-.676.296-.812.33l-.12.024h-.002l.032.52v-.522l-.032.002.032.52v-.522 3.365l1.555-2.832c-.844-.47-1.375-.533-1.554-.533v3.365l1.555-2.832-3.69 6.723 7.576-1.19-2.915.46h2.96c0-.016.005-.133-.044-.46l-2.915.46h2.96l.005-.12c.02-.325.13-1.15.333-2.167.352-1.8.97-4.245 1.693-6.8 1.084-3.846 2.402-7.988 3.44-11.137.52-1.578.97-2.91 1.29-3.843.16-.467.285-.834.372-1.083.085-.248.126-.37.128-.37l-7.238-2.54 7.202 2.643c.727-1.987 1.262-3.734 1.63-5.35.368-1.617.583-3.105.585-4.64-.003-1.173-.126-2.39-.523-3.683-.3-.966-.763-1.973-1.437-2.907-.996-1.412-2.495-2.548-3.922-3.128-1.433-.602-2.725-.747-3.734-.75-1.224.008-2.11.204-2.774.38-.664.18-1.105.363-1.36.472l3.055 7.035-1.862-7.44c-3.092.773-5.798 2.22-8.144 3.955-4.106 3.056-7.255 6.975-9.955 11.076-4.01 6.164-6.952 12.85-8.984 18.084-2.02 5.23-3.095 8.995-3.14 9.157l7.374 2.102.29-7.667-6.87-.258-.29 7.664 7.35 2.196 7.907-26.49-7.348-2.194 7.227 2.567c1.174-3.334 1.79-6.176 1.8-8.96.003-1.933-.327-3.876-1.137-5.678-.6-1.346-1.476-2.572-2.474-3.516-1.507-1.438-3.18-2.2-4.503-2.583-1.34-.384-2.386-.44-3.094-.443-.313 0-.57.012-.76.03l.645 7.642 4.088 6.49-4.088-6.49z" fill="#fff"/><path d="M253.78 103.565s-5.35 16.806-15.274 20.12c0 0 6.865-1.276 4.07 7.896l-7.637 26.996s-8.915 33.625 29.284 19.866c0 0-28.778 6.366-17.567-28.784l7.886-25.206h10.447l7.898-4.836-14.526-.508 5.1-19.363-9.68 3.82z" fill="#eb2227"/><path d="M253.78 103.565l-7.307-2.327 4.084 1.3-4.08-1.317-.004.018 4.084 1.3-4.08-1.317-.053.16c-.264.8-1.646 4.6-3.772 8.156-1.05 1.776-2.286 3.48-3.493 4.704-1.21 1.24-2.334 1.932-3.082 2.17-3.822 1.276-6.005 5.298-4.997 9.196 1.008 3.896 4.87 6.357 8.83 5.62l-.597-3.213v3.282c.162-.002.26-.008.597-.068l-.597-3.214v3.282-2.524l-.583 2.45c.314.073.465.073.583.075v-2.524l-.583 2.45.88-3.718-1.84 3.34c.404.223.73.323.96.38l.88-3.72-1.84 3.34 2.172-3.94-3.94 2.176c.395.75 1.163 1.454 1.767 1.765l2.172-3.94-3.94 2.175 3.227-1.78-3.602.83c.055.237.17.583.375.95l3.226-1.78-3.602.83 1.565-.364h-1.62c.003.002 0 .124.055.363l1.565-.363h-1.62c.008.015-.02.56-.334 1.582l-.045.147-7.64 26.998-.03.122c-.093.39-1.144 4.286-1.16 9.57.003 2.13.178 4.5.752 7.004.433 1.876 1.098 3.834 2.134 5.766 1.537 2.89 4.036 5.726 7.423 7.62 3.377 1.92 7.44 2.855 11.89 2.848 5.274-.01 11.198-1.226 18.258-3.76 3.814-1.373 5.898-5.458 4.772-9.35-1.126-3.89-5.07-6.23-9.025-5.357l1.09 4.928-1.045-4.938-.045.01 1.09 4.93-1.045-4.94.092.433-.088-.433h-.004l.092.433-.088-.433c-.068.017-1.488.286-3.205.282-1.044.002-2.19-.1-3.176-.333-.745-.17-1.386-.408-1.885-.68-.758-.432-1.196-.816-1.656-1.605-.442-.793-.95-2.196-.96-4.855-.004-2.683.574-6.577 2.233-11.76l.01-.042 6.202-19.823h4.81c1.42 0 2.795-.388 4.004-1.13l7.9-4.837c2.884-1.765 4.27-5.22 3.413-8.493-.86-3.27-3.77-5.596-7.152-5.713l-4.93-.173 2.655-10.083c.733-2.792-.167-5.773-2.327-7.688-2.158-1.918-5.222-2.462-7.91-1.4l-9.68 3.822c-2.137.842-3.79 2.612-4.49 4.806l7.308 2.327 2.818 7.135 9.678-3.82-2.815-7.135-7.418-1.953-5.097 19.363c-.595 2.252-.128 4.657 1.263 6.53 1.388 1.868 3.56 3.006 5.885 3.09l14.525.507.27-7.666-4.004-6.54-6.057 3.708h-8.284c-3.36 0-6.317 2.173-7.32 5.38l-7.885 25.206.013-.043c-1.995 6.278-2.95 11.64-2.955 16.423-.004 4.173.757 7.95 2.312 11.19 1.154 2.423 2.755 4.502 4.56 6.11 2.714 2.427 5.782 3.792 8.572 4.55 2.805.76 5.396.96 7.57.963 3.603-.007 6.106-.557 6.47-.63l-1.656-7.49-2.6-7.217c-5.913 2.137-10.246 2.864-13.06 2.853-2.138-.005-3.362-.378-4.084-.724-.546-.268-.856-.524-1.156-.855-.435-.483-.855-1.246-1.162-2.38-.308-1.114-.46-2.536-.457-3.94-.002-1.552.175-3.068.35-4.134.087-.536.175-.958.232-1.222l.064-.277v-.005l-7.41-1.966 7.38 2.09 7.636-26.997-7.38-2.09 7.335 2.238c.634-2.085 1-4.043 1.005-6.054.002-1.806-.326-3.696-1.153-5.453-.612-1.312-1.506-2.507-2.512-3.417-1.52-1.384-3.18-2.11-4.54-2.484-1.376-.38-2.51-.45-3.397-.456-1.122.002-1.873.13-2.208.188l1.4 7.543 2.432 7.273c2.07-.69 3.9-1.69 5.51-2.83 2.818-2.008 4.993-4.418 6.8-6.842 2.692-3.64 4.57-7.375 5.85-10.266 1.276-2.888 1.93-4.935 1.992-5.13l-7.31-2.325 2.818 7.135-2.817-7.135z" fill="#fff"/><path d="M281.295 101.787s2.548 1.536 8.905-4.58c0 0 7.89 6.116-9.17 15.02 0 0 1.03-6.37.265-10.44" fill="#eb2227"/><path d="M281.295 101.787l-3.954 6.573c1.033.64 2.808 1.283 4.855 1.268 2.047.002 4.222-.58 6.387-1.7 2.18-1.127 4.418-2.778 6.936-5.194l-5.318-5.527-4.7 6.058 1.964-2.53-2.666 1.84c.184.25.282.357.702.69l1.964-2.53-2.666 1.84 1.988-1.372-2.273.81c.094.26.198.433.285.56l1.988-1.37-2.273.81 2.635-.942h-2.795c-.002.34.068.69.16.943l2.635-.942h-2.795 1.904l-1.783-.744c-.034.064-.128.382-.12.745h1.903l-1.783-.744.175.073-.17-.084-.006.01.175.073-.17-.084c-.01.025-.323.593-1.402 1.516-1.067.92-2.87 2.175-5.596 3.595l3.548 6.8 7.573 1.223c.017-.1.173-1.07.328-2.523.157-1.456.317-3.384.32-5.495-.005-1.578-.08-3.246-.417-5.063l-7.538 1.417-3.954 6.573 3.955-6.573-7.538 1.418c.078.388.155 1.267.15 2.227.003 1.3-.11 2.77-.227 3.857-.06.545-.12 1-.16 1.302l-.05.34-.01.072c-.465 2.874.723 5.74 3.086 7.442 2.36 1.704 5.455 1.928 8.035.58 4.978-2.612 8.486-5.163 11.047-8.07 1.27-1.458 2.295-3.025 2.998-4.714.71-1.68 1.07-3.478 1.067-5.17 0-1.567-.3-3.012-.732-4.22-.657-1.825-1.57-3.128-2.333-4.03-.77-.904-1.41-1.428-1.727-1.678-3-2.327-7.282-2.098-10.018.533-1.717 1.657-2.866 2.38-3.323 2.612l-.216.1-.013.006.865 2.493v-2.603c-.53-.002-.855.103-.864.11l.865 2.492v-2.603 6.003l3.053-5.075c-1.032-.64-2.24-.94-3.053-.928v6.003l3.053-5.075c-2.597-1.563-5.845-1.457-8.333.275-2.487 1.732-3.72 4.736-3.158 7.715l7.538-1.418z" fill="#fff"/><path d="M273.902 124.2l11.716-5.358-9.163 33.623s-2.553 8.916 3.546 4.34l1.033 1.006s-8.146 7.902-9.928 8.154c0 0-4.84 2.544-3.572-2.297 1.27-4.84-.252-.505-.252-.505l8.667-33.623s2.293-4.068-2.045-5.34" fill="#eb2227"/><path d="M273.902 124.2l3.19 6.977 11.72-5.36-3.194-6.975-7.4-2.015-9.163 33.62 7.4 2.018-7.372-2.11c-.04.14-.22.775-.414 1.724-.184.96-.404 2.187-.414 3.818.002.617.034 1.3.168 2.105.1.606.258 1.286.56 2.067.227.582.54 1.226.997 1.893.675.998 1.74 2.064 3.1 2.783 1.35.73 2.887 1.043 4.173 1.034 1.857-.017 3.226-.5 4.354-1.006 1.128-.527 2.064-1.137 2.996-1.832L280 156.805l-5.362 5.482 1.03 1.007 5.365-5.483-5.344-5.503-.075.07c-.4.39-2.39 2.293-4.368 4.03-.978.863-1.972 1.69-2.635 2.187l-.408.296-.15.098-.005.005 1.63 2.757-1.286-2.93c-.25.113-.332.166-.345.173l1.63 2.757-1.286-2.93 2.512 5.73-.872-6.184c-.97.15-1.375.352-1.64.454l2.512 5.73-.872-6.184c-.902.13-1.693.384-2.5.81l1.425 2.708-1.284-2.78-.143.072 1.426 2.708-1.284-2.78-.003.002.37.936-.246-.975-.124.04.37.935-.246-.975.968 3.822v-3.927c-.597.004-.84.08-.968.104l.968 3.822v-3.927 5.768l1.67-5.513c-.738-.22-1.286-.252-1.67-.254v5.768l1.67-5.513-1.864 6.158 3.71-5.254c-.644-.456-1.3-.74-1.845-.903l-1.864 6.158 3.71-5.254-3.758 5.323 5.99-2.582c-.403-.974-1.254-2.072-2.232-2.74l-3.758 5.323 5.99-2.582-5.118 2.208h5.598c-.002-.44-.062-1.224-.48-2.207l-5.118 2.208h5.598-3.367l3.335.493c.013-.085.032-.245.032-.492h-3.367l3.335.493-1.286-.19 1.27.265.016-.074-1.286-.19 1.27.265.01-.023c.198-.766.345-1.348.458-1.862.058-.26.11-.5.16-.8.028-.15.05-.317.08-.54.025-.227.054-.494.057-.976-.004-.215-.008-.477-.046-.838-.03-.273-.075-.605-.186-1.05-.083-.334-.2-.733-.416-1.23-.328-.727-.872-1.76-2.098-2.808-.608-.512-1.39-.996-2.27-1.32-.875-.328-1.822-.484-2.673-.482-1.26.002-2.268.303-2.993.608-.723.31-1.21.63-1.584.904-.728.55-1.058.943-1.32 1.243-.476.577-.634.87-.783 1.11-.247.433-.34.646-.44.85-.153.338-.25.58-.345.824-.277.702-.495 1.325-.512 1.374l7.238 2.544 7.426 1.915 8.67-33.62-7.43-1.918 6.685 3.763c.152-.27.487-.887.837-1.858.34-.976.742-2.313.754-4.194 0-.89-.1-1.9-.412-2.993-.45-1.63-1.47-3.414-2.915-4.74-1.438-1.338-3.154-2.19-4.835-2.675l-2.156 7.36 3.19 6.975-3.19-6.976-2.156 7.363.77-2.634-1.478 2.285c.37.24.638.326.708.348l.77-2.634-1.478 2.285 2.583-3.99-4.253 2.062c.38.825 1.113 1.59 1.67 1.928l2.584-3.99-4.253 2.062 4.203-2.036h-4.687c-.003.46.083 1.21.484 2.037l4.203-2.036h-4.687 2.912l-2.76-.993c-.042.134-.14.328-.152.994h2.912l-2.76-.993 2.997 1.08-2.768-1.56c-.15.273-.18.35-.23.48l2.998 1.08-2.768-1.56c-.313.56-.584 1.226-.744 1.85l-8.67 33.618c-1.026 3.99 1.255 8.056 5.198 9.254 3.94 1.198 8.102-.91 9.47-4.796l.016-.047c.044-.128.183-.512.277-.75l.052-.127.004-.01-4.145-1.79 3.967 2.152c.164-.31.17-.352.18-.363l-4.146-1.79 3.967 2.152-6.257-3.39 5.654 4.32c.403-.542.503-.76.603-.93l-6.257-3.39 5.654 4.32-6.003-4.59 4.814 5.822c.693-.584.968-.955 1.19-1.232l-6.003-4.59 4.814 5.822-4.864-5.883 3.28 6.893c.758-.365 1.23-.72 1.584-1.01l-4.864-5.882 3.28 6.893-3.29-6.91v7.654c1.45-.006 2.545-.392 3.29-.744l-3.29-6.91v7.654-7.66l-3.142 6.986c.993.455 2.136.68 3.143.674v-7.66l-3.142 6.986 3.143-6.986-5.313 5.517c.556.537 1.296 1.077 2.17 1.47l3.144-6.987-5.313 5.517 5.305-5.51-7.026 3.022c.286.652.742 1.535 1.72 2.488l5.306-5.51-7.026 3.022 6.984-3.003-7.54.972c.068.444.142 1.04.556 2.03l6.984-3.002-7.54.972 7.384-.95h-7.446c.002.225.006.51.06.95l7.386-.95h-7.446 6.898l-6.852-.798c-.017.15-.044.358-.046.797h6.898l-6.852-.797 4.095.475-4.05-.79c0 .003-.016.063-.046.315l4.095.475-4.05-.79c-.003.018-.12.547-.346 1.4-.267 1.026-.457 2.09-.463 3.346.003 1 .133 2.154.587 3.4.34.927.877 1.895 1.598 2.73 1.074 1.272 2.51 2.14 3.746 2.566 1.255.442 2.32.533 3.185.538 1.066-.005 1.875-.15 2.555-.305 1.013-.237 1.742-.523 2.3-.753.547-.23.91-.416 1.056-.493l-3.57-6.786 1.07 7.593c1.272-.196 1.94-.5 2.51-.746 1.023-.477 1.64-.895 2.285-1.332 1.09-.76 2.108-1.584 3.15-2.465 3.07-2.604 6.187-5.636 6.253-5.696 1.49-1.448 2.325-3.412 2.33-5.49.003-2.078-.822-4.046-2.31-5.5l-1.026-1.005c-2.698-2.638-6.946-2.92-9.965-.655l-.312.218-.02.01 1.32 2.338-.835-2.536c-.337.113-.475.196-.484.2l1.32 2.336-.835-2.536 1.698 5.16v-5.418c-.81 0-1.36.15-1.698.257l1.698 5.16v-5.418 6.527l3.61-5.42c-1.14-.784-2.606-1.13-3.61-1.108v6.527l3.61-5.42-3.613 5.424 5.485-3.526c-.384-.606-1.013-1.326-1.872-1.896l-3.613 5.423 5.485-3.526-4.647 2.988 5.445-1.067c-.08-.36-.218-1-.798-1.92l-4.647 2.987 5.445-1.067-2.72.533h2.784c-.003-.027.004-.164-.064-.533l-2.72.533h2.784v-.002c-.003-.08.055-.537.128-.866l.093-.403.02-.083-2.286-.62 2.277.654.008-.034-2.286-.62 2.277.654.027-.096 9.163-33.624c.783-2.877-.162-5.93-2.437-7.863-2.274-1.93-5.442-2.37-8.155-1.128l-11.716 5.36c-2.906 1.33-4.69 4.34-4.46 7.527.23 3.188 2.426 5.91 5.494 6.81l2.156-7.363z" fill="#fff"/><path d="M303.71 102.29s.747 9.434-4.34 18.08l3.554.26 6.39-18.34h-5.603z" fill="#eb2227"/><path d="M303.71 102.29l-7.646.605 2.64-.21-2.645.163.004.047 2.64-.21-2.645.163c.002.034.02.314.02.78 0 1.06-.09 3.087-.562 5.437-.474 2.352-1.335 5.002-2.757 7.416-1.34 2.277-1.407 5.115-.183 7.452 1.226 2.34 3.602 3.896 6.235 4.088l3.555.26c3.466.252 6.66-1.846 7.8-5.126l6.39-18.342c.817-2.348.45-4.938-.992-6.964-1.44-2.028-3.764-3.227-6.252-3.227h-5.602c-2.136 0-4.185.897-5.63 2.464-1.45 1.568-2.183 3.68-2.016 5.81l7.647-.604v7.668h5.603v-7.668l-7.242-2.523-6.39 18.34 7.244 2.522.56-7.65-3.556-.258-.56 7.65 6.614 3.89c2.508-4.27 3.836-8.54 4.57-12.16.73-3.628.866-6.626.868-8.473 0-1.084-.05-1.77-.062-1.946l-7.647.606v7.668-7.668z" fill="#fff"/><path d="M341.146 119.86l-15.288-.752s-14.778 7.374-14.528 18.333l9.935 10.186s14.013 9.42-.247 11.71c0 0-5.61 2.044-12.477-5.596l-5.853 11.705s23.17 4.838 33.105-13.484c0 0 2.288-5.865-8.153-13.502 0 0-11.457-8.146-5.86-12.23 0 0 5.61-3.554 10.702.254l8.664-6.62z" fill="#eb2227"/><path d="M341.146 119.86l.378-7.66-15.288-.752c-1.297-.066-2.64.218-3.802.798-.346.185-4.432 2.203-8.88 6.056-2.218 1.94-4.553 4.353-6.478 7.445-1.907 3.068-3.42 6.966-3.42 11.42l.008.458c.044 1.927.83 3.79 2.177 5.17l9.936 10.186c.388.4.75.7 1.21 1.01l2.373-3.526-2.396 3.512.02.015 2.375-3.526-2.396 3.512.194.137c.444.31 1.593 1.213 2.318 1.992.363.373.603.718.603.73l1.51-.878-1.65.544c.086.25.142.336.14.336l1.51-.88-1.65.545 3.89-1.278h-4.08c0 .6.11 1.03.19 1.28l3.89-1.28h-4.08 5.027l-4.4-2.423c-.423.74-.64 1.707-.628 2.422h5.027l-4.4-2.423 3.857 2.123-2.9-3.333c-.27.235-.65.646-.958 1.21l3.858 2.123-2.9-3.333 1.64 1.885-1.23-2.186c-.057.03-.204.12-.41.3l1.64 1.885-1.23-2.186.242.428-.213-.443-.028.014.24.428-.212-.443c-.024.02-.696.29-1.97.486-.45.075-.986.214-1.412.37l1.52 4.17-.852-4.37c-.122.025-.333.076-.667.2l1.52 4.17-.852-4.37.237 1.22-.124-1.238-.112.02.237 1.22-.124-1.24.018.164-.008-.164h-.01l.018.164-.008-.164h-.024c-.098-.004-.46.004-1.243-.35-.78-.362-2.024-1.128-3.668-2.95-1.697-1.888-4.216-2.814-6.73-2.472-2.516.34-4.698 1.9-5.835 4.17l-5.853 11.706c-1.066 2.128-1.08 4.625-.043 6.77 1.037 2.146 3.005 3.68 5.336 4.167.366.075 3.604.736 8.367.74 4.504-.01 10.422-.578 16.544-3.132 3.055-1.28 6.147-3.074 9-5.542 2.854-2.463 5.45-5.604 7.504-9.404.154-.28.288-.57.403-.87.28-.714.736-2.207.736-4.3.015-2.385-.648-5.507-2.484-8.663-1.83-3.172-4.725-6.37-9.022-9.512l-.083-.062-1.934 2.72 1.95-2.707-.015-.014-1.934 2.72 1.95-2.707c-.013-.003-1.6-1.176-2.876-2.48-.638-.637-1.182-1.315-1.393-1.66l-.095-.17-.006-.01-2.458 1.11h2.638c-.01-.783-.186-1.107-.18-1.11l-2.458 1.11h2.638-4.53l3.995 2.12c.373-.683.546-1.532.535-2.12h-4.53l3.995 2.12-3.295-1.747 2.22 3.045c.228-.158.714-.606 1.075-1.3l-3.295-1.745 2.22 3.045-4.52-6.2 4.108 6.48-2.375-3.752 2.228 3.84.148-.09-2.375-3.75 2.228 3.84v.003c.063-.037.334-.168.64-.26.308-.1.636-.153.843-.15l.312.042c.08.026.157.05.35.192 2.744 2.056 6.53 2.034 9.254-.045l8.664-6.626c2.556-1.954 3.623-5.298 2.665-8.373-.956-3.07-3.733-5.223-6.946-5.38l-.378 7.66-4.657-6.09-8.668 6.62 4.66 6.092 4.598-6.14c-1.585-1.19-3.314-2.044-5.012-2.564-1.697-.527-3.35-.728-4.845-.728-2.798.01-5.026.657-6.63 1.267-1.603.62-2.6 1.235-2.917 1.433l-.41.28c-1.328.96-2.586 2.29-3.443 3.915-.87 1.618-1.263 3.456-1.252 5.066.003 1.663.357 3.083.8 4.28.792 2.095 1.852 3.62 2.9 4.95 1.585 1.97 3.234 3.475 4.537 4.59 1.303 1.105 2.258 1.787 2.388 1.88l4.444-6.252-4.528 6.19c2.962 2.168 4.248 3.854 4.785 4.788.273.476.37.772.41.924l.027.128.047-.007-.046.003v.005l.047-.007-.046.003.67-.04h-.67v.04l.67-.04h-.67 3.564l-3.252-1.267c-.282.712-.312 1.118-.312 1.267h3.564l-3.252-1.267 7.146 2.785-6.745-3.656c-1.193 2.196-2.557 3.815-4.052 5.112-2.233 1.932-4.84 3.164-7.59 3.928-2.736.76-5.574 1.012-7.918 1.008-1.65 0-3.05-.12-3.992-.232-.47-.058-.827-.11-1.04-.15l-.216-.036-.022-.004-.81 4.07.848-4.06-.038-.01-.81 4.07.848-4.06-1.57 7.505 6.863 3.43 5.85-11.704-6.86-3.43-5.704 5.128c2.832 3.154 5.792 5.31 8.652 6.626 2.855 1.322 5.563 1.766 7.668 1.76 2.26-.003 3.824-.472 4.487-.71l-2.625-7.21 1.215 7.574c1.542-.25 2.954-.578 4.31-1.04 2.013-.707 4.003-1.71 5.747-3.564.857-.924 1.606-2.07 2.094-3.318.49-1.248.708-2.57.706-3.764-.004-1.576-.34-2.926-.763-4.04-.755-1.948-1.736-3.302-2.68-4.462-1.425-1.713-2.865-2.962-4.002-3.888-1.134-.92-1.964-1.48-2.098-1.57l-4.282 6.364 5.49-5.357-9.936-10.186-5.49 5.357 7.666-.18v-.094c0-.95.305-2.013 1.124-3.342 1.186-1.972 3.55-4.158 5.632-5.634 1.034-.746 1.983-1.34 2.638-1.72.33-.192.584-.333.742-.418l.16-.086.02-.008-1.794-3.532 1.767 3.545.026-.012-1.792-3.532 1.767 3.545-3.427-6.862-.377 7.662 15.29.753.376-7.662-4.657-6.09 4.656 6.09z" fill="#fff"/><path d="M215.476 105.23s-20.344 9.753-48.202-1.673l2.79-6.137s-6.132-3.9-9.198-4.732c0 0 9.75-6.965 5.297-17.548 0 0-15.6-2.514-23.402-19.785 0 0-11.425-15.32-7.247-23.677 0 0 .833-11.424 28.692-13.09 0 0 27.865-25.64 49.036 1.666 0 0 24.523-.275 27.306 16.156 0 0 14.77 13.658-4.45 29.812 0 0-18.114 17.555-24.24 8.076 0 0-8.072 17.838 3.62 30.933" fill="#eb2227"/><path d="M215.476 105.23l-3.316-6.914 2.175 4.538-2.13-4.56-.045.022 2.175 4.538-2.13-4.56.023.05-.023-.052v.002l.023.05-.023-.052c-.218.11-7.065 3.154-17.78 3.146-6.7-.005-14.922-1.16-24.243-4.977l-2.908 7.097 6.98 3.176 2.793-6.135c1.58-3.48.358-7.596-2.864-9.648-.073-.045-1.693-1.077-3.804-2.267-1.06-.595-2.238-1.23-3.467-1.82-1.247-.59-2.465-1.14-4.04-1.58l-2.007 7.405 4.46 6.242c.39-.292 2.532-1.83 4.83-4.775 1.144-1.478 2.33-3.322 3.26-5.583.927-2.254 1.584-4.95 1.58-7.924.006-2.714-.555-5.627-1.764-8.485-1.024-2.435-3.242-4.177-5.85-4.598l-.765 4.75.84-4.737-.075-.013-.765 4.75.84-4.737-.15.857.16-.855-.01-.002-.15.857.16-.855c-.038 0-3.147-.612-6.802-2.827-1.834-1.105-3.81-2.6-5.7-4.626-1.887-2.03-3.7-4.587-5.212-7.928-.228-.51-.512-.986-.842-1.432l-3.42 2.553 3.427-2.544-.006-.008-3.42 2.553 3.427-2.544s-.108-.145-.305-.426c-.695-.983-2.443-3.598-3.902-6.555-.73-1.476-1.384-3.03-1.817-4.432-.44-1.4-.635-2.642-.63-3.392 0-.317.03-.545.06-.68l.05-.18c.456-.91.716-1.856.79-2.873l-4.642-.34 4.533 1.11c.036-.14.08-.384.11-.77l-4.642-.34 4.533 1.11-1.486-.363 1.454.486.033-.123-1.486-.363 1.454.486-.428-.145.423.162.006-.017-.428-.145.423.162.083-.162c.243-.37.996-1.59 4.08-3.1 3.068-1.487 8.514-3.11 17.485-3.643 1.77-.104 3.432-.81 4.735-2.01l-1.862-2.026 1.845 2.042.018-.017-1.862-2.024 1.845 2.042c.065-.064 2.756-2.458 6.735-4.69 1.987-1.12 4.288-2.202 6.7-2.976s4.92-1.243 7.38-1.24c2.717.008 5.364.53 8.142 1.916 2.77 1.4 5.747 3.715 8.842 7.694 1.474 1.904 3.765 3.01 6.174 2.97l-.038-2.59v2.593l.038-.002-.038-2.59v2.592c.15-.002 1.6.008 3.64.24 3.062.325 7.46 1.246 10.62 2.937 1.59.834 2.845 1.806 3.704 2.836.857 1.05 1.41 2.11 1.704 3.754.283 1.68 1.1 3.188 2.354 4.348l2.868-3.1-2.943 3.03.075.07 2.868-3.1-2.943 3.03.024.023c.162.162 1.032 1.11 1.742 2.412.728 1.315 1.272 2.887 1.268 4.56-.01 1.26-.256 2.656-1.22 4.524-.97 1.854-2.736 4.187-5.917 6.86l-.4.364-.003.002c-.162.16-2.82 2.67-6.037 4.943-1.597 1.136-3.337 2.204-4.815 2.886-1.465.708-2.665.922-2.806.89h-.003l-.17 1.695.856-1.438c-.307-.19-.63-.256-.686-.256l-.17 1.695.856-1.438-1.025 1.716 1.405-1.426-.38-.29-1.025 1.716 1.405-1.426-.642.652.777-.5-.134-.152-.642.652.777-.5c-1.53-2.364-4.207-3.695-7.01-3.486-2.808.21-5.26 1.924-6.42 4.487-.126.277-.945 2.124-1.76 5.065-.812 2.94-1.633 6.98-1.637 11.692.002 3.41.44 7.185 1.708 11.057 1.26 3.87 3.384 7.823 6.577 11.39l5.72-5.11-3.315-6.914 3.316 6.915 5.722-5.106c-1.72-1.936-2.764-3.9-3.442-5.95-.672-2.047-.947-4.19-.947-6.282-.005-2.883.532-5.64 1.078-7.598.27-.98.542-1.757.727-2.256.094-.247.166-.43.21-.53l.035-.088-2.514-1.09 2.495 1.13.02-.04-2.514-1.09 2.495 1.13-6.985-3.162-6.442 4.164c1.282 2.01 3.154 3.762 5.29 4.835 2.135 1.085 4.39 1.484 6.396 1.48 3.737-.04 6.78-1.163 9.538-2.446 4.11-1.968 7.63-4.556 10.297-6.682 2.65-2.13 4.378-3.803 4.5-3.918l-5.338-5.508 4.933 5.87c4.397-3.693 7.566-7.533 9.638-11.487 2.075-3.943 2.98-7.988 2.97-11.64 0-2.805-.51-5.362-1.238-7.56-1.103-3.304-2.676-5.827-3.988-7.595-1.318-1.765-2.397-2.787-2.66-3.032l-5.206 5.632 7.563-1.282c-.485-2.874-1.472-5.533-2.82-7.84-2.367-4.06-5.728-6.942-9.122-8.95-5.123-3.014-10.433-4.315-14.663-5.025-4.23-.693-7.41-.727-8.19-.73h-.19l.116 7.67 6.062-4.7c-4.263-5.507-9.048-9.48-14.077-12.002C200.2 1.018 195.002-.007 190.195 0c-4.522.002-8.713.868-12.425 2.092-5.575 1.85-10.12 4.497-13.37 6.692-3.242 2.2-5.18 3.966-5.388 4.158l5.193 5.645-.458-7.658c-7.483.45-13.395 1.562-18.16 3.115-3.57 1.166-6.494 2.59-8.876 4.18-3.573 2.366-5.89 5.158-7.18 7.597-1.304 2.442-1.605 4.442-1.665 5.3l7.648.556-6.86-3.43c-1.3 2.598-1.73 5.292-1.728 7.723.013 3.35.757 6.347 1.698 9.098 1.43 4.11 3.386 7.683 4.994 10.353 1.614 2.66 2.89 4.38 2.998 4.522l6.146-4.587-6.987 3.158c2.313 5.13 5.275 9.278 8.404 12.533 4.702 4.892 9.73 7.77 13.616 9.436 3.896 1.667 6.68 2.15 7.15 2.228l1.22-7.57-7.07 2.973c.448 1.08.56 1.855.563 2.535-.002.736-.15 1.4-.435 2.103-.414 1.04-1.2 2.1-1.886 2.82-.34.362-.644.635-.83.79l-.172.142.098.126-.096-.128-.002.002.098.126-.096-.128 2.922 3.934-2.85-3.985-.072.05 2.922 3.934-2.85-3.985c-2.407 1.717-3.614 4.684-3.09 7.597.523 2.913 2.69 5.27 5.545 6.045l.046-.168-.047.166v.002l.046-.168-.047.166c.056.01.762.277 1.53.657 1.184.573 2.636 1.388 3.734 2.036.55.327 1.02.61 1.343.813l.37.23.09.056.018.01 4.12-6.472-6.982-3.173-2.79 6.135c-.863 1.892-.916 4.07-.15 6.003.765 1.93 2.298 3.482 4.22 4.27 11.266 4.622 21.576 6.128 30.063 6.124 14.508-.014 23.654-4.3 24.366-4.633 2.17-1.04 3.734-3.047 4.205-5.41.472-2.363-.196-4.817-1.8-6.613l-5.72 5.107z" fill="#fff"/><path d="M172.287 94.08s4.736 9.754 35.393.838c0 0-10.89-18.107-2.52-31.2 0 0 4.467 7.515 14.766-.838l1.404.288s13.65-10.595 14.2-14.493l-3.91-4.184-4.45 5.013s11.7-23.123-14.49-19.5c0 0-5.284-14.208-22.566-10.304 0 0-15.042 1.117-13.09 8.627 0 0-21.172-2.5-28.693 5.022 0 0-16.73 15.325 1.116 27.308 0 0 5.293 6.68 15.872 3.61 0 0 12.552 12.816 6.97 29.812" fill="#fff"/><path d="M172.287 94.08l-6.9 3.352c.528 1.14 2.19 3.63 5.57 5.572 3.37 1.967 8.2 3.348 14.873 3.342 6.12-.006 13.86-1.122 23.99-4.062 2.29-.666 4.133-2.35 5.003-4.568.868-2.22.657-4.71-.57-6.75l-2.967 1.783 2.98-1.762-.012-.02-2.968 1.78 2.98-1.76c-.012-.015-1.238-2.11-2.394-5.15-1.175-3.032-2.222-7.003-2.203-10.55 0-1.41.15-2.75.468-3.983.318-1.237.79-2.37 1.485-3.454l-6.462-4.132-6.592 3.92c.322.52 1.24 2.01 3.224 3.616.99.795 2.265 1.608 3.838 2.226 1.568.62 3.436 1.015 5.427 1.013 2.222.002 4.558-.486 6.844-1.44 2.293-.955 4.556-2.35 6.86-4.217l-4.834-5.956-1.535 7.515 1.406.285c2.2.45 4.46-.076 6.236-1.454.085-.068 3.593-2.787 7.325-6.144 1.872-1.69 3.793-3.52 5.478-5.427.847-.968 1.638-1.942 2.38-3.09.37-.578.73-1.202 1.068-1.957.333-.76.666-1.65.843-2.862.324-2.305-.4-4.602-1.99-6.304l-3.91-4.186c-1.477-1.582-3.537-2.46-5.703-2.433-2.163.026-4.2.958-5.638 2.574l-4.45 5.013 5.735 5.093 6.844 3.463c.115-.228.906-1.804 1.723-4.205.804-2.413 1.69-5.625 1.71-9.463-.002-1.853-.222-3.877-.92-5.986-.52-1.573-1.324-3.19-2.47-4.67-1.71-2.234-4.187-4.045-6.974-5.126-2.8-1.098-5.877-1.563-9.276-1.565-1.932 0-3.98.153-6.18.455l1.053 7.598 7.19-2.674c-.242-.6-1.596-4.215-5.268-8.104-1.836-1.934-4.295-3.922-7.458-5.42-3.15-1.502-6.994-2.462-11.28-2.455-2.357 0-4.843.28-7.443.87l1.694 7.48-.57-7.648c-.15.01-1.163.09-2.67.32-1.13.175-2.534.435-4.087.836-2.328.63-4.98 1.476-7.715 3.312-1.354.934-2.766 2.166-3.937 3.947-1.168 1.757-1.976 4.148-1.957 6.557 0 1.107.153 2.2.424 3.23l7.42-1.927.9-7.617c-.2-.023-3.83-.45-8.81-.452-3.754.006-8.262.23-12.825 1.177-2.286.482-4.596 1.143-6.867 2.145-2.262 1.007-4.518 2.36-6.512 4.344l5.423 5.425-5.18-5.658c-.28.268-2.43 2.24-4.716 5.583-1.14 1.674-2.318 3.704-3.254 6.113-.934 2.402-1.632 5.21-1.636 8.338-.015 3.327.86 7 2.843 10.354 1.97 3.365 4.93 6.363 8.783 8.945l4.276-6.367-6.014 4.764c.388.48 1.817 2.203 4.543 3.932 2.7 1.72 6.83 3.4 11.967 3.393 2.35 0 4.88-.348 7.515-1.113l-2.14-7.366-5.477 5.367 3.328-3.262-3.367 3.222.04.04 3.328-3.262-3.367 3.222.008.006c.136.142 1.814 1.99 3.343 4.844 1.547 2.866 2.906 6.64 2.9 10.827-.003 1.995-.295 4.11-1.05 6.417-.62 1.892-.482 3.954.386 5.745l6.9-3.352 7.288 2.393c1.277-3.88 1.814-7.67 1.812-11.202.002-3.974-.672-7.608-1.653-10.785-1.475-4.77-3.625-8.532-5.422-11.172-1.8-2.638-3.268-4.163-3.51-4.412-1.97-2.008-4.915-2.782-7.62-1.998-1.32.38-2.374.502-3.238.504-1.86-.013-2.98-.538-3.777-1.026-.386-.243-.663-.48-.79-.604l-.07-.066-.012-.015-2.537 2.342 2.7-2.14-.163-.202-2.537 2.342 2.7-2.14c-.49-.62-1.082-1.17-1.734-1.607-2.355-1.584-3.51-2.958-4.1-3.964-.58-1.024-.72-1.732-.737-2.6-.002-.797.19-1.753.59-2.783.59-1.543 1.664-3.18 2.59-4.32.46-.574.874-1.03 1.15-1.314l.29-.297.044-.045-2.336-2.473 2.3 2.51.035-.037-2.336-2.473 2.3 2.51.242-.233c.266-.275.883-.73 1.872-1.162 1.474-.663 3.715-1.235 6.142-1.56 2.428-.334 5.04-.453 7.342-.45 2.043 0 3.85.09 5.115.178.634.047 1.133.09 1.46.122l.362.036.073.008c2.523.297 5.014-.663 6.683-2.578 1.668-1.913 2.28-4.512 1.642-6.97l-2.41.628h2.48c.003-.283-.04-.51-.07-.627l-2.41.627h2.48-3.37l2.927 1.674c.248-.4.46-1.124.444-1.674h-3.37l2.925 1.674-1.655-.947 1.256 1.473c.01-.01.19-.158.4-.525l-1.656-.947 1.256 1.473.067-.047c.187-.137.776-.446 1.53-.706 1.13-.403 2.598-.723 3.703-.9.554-.09 1.02-.15 1.33-.18l.333-.037.06-.005-.19-2.318.17 2.318h.02l-.19-2.318.17 2.318c.32-.023.814-.096 1.123-.166 1.578-.356 2.918-.49 4.06-.49 2.08.008 3.52.42 4.715.976 1.766.832 3.058 2.154 3.91 3.342.424.584.72 1.113.886 1.44l.154.32.008.023 3.012-1.252-3.058 1.135.046.118 3.012-1.252-3.058 1.135c1.25 3.365 4.685 5.42 8.242 4.924 1.605-.223 2.964-.314 4.075-.314 1.746-.002 2.868.228 3.456.43.45.152.604.27.65.303l.016.014.06-.055-.07.04.01.014.06-.055-.07.04c.002.008.047.085.094.298.05.207.092.546.092.98.02 1.218-.397 3.11-.896 4.534-.243.717-.492 1.327-.665 1.73-.088.198-.156.348-.196.43l-.038.077 2.284 1.117-2.27-1.147-.014.03 2.284 1.117-2.27-1.147c-1.743 3.45-.666 7.63 2.53 9.805 3.2 2.175 7.485 1.642 10.05-1.25l4.45-5.013-5.735-5.09-5.605 5.235 3.908 4.184 5.607-5.235-7.596-1.068 4.595.648-4.255-1.9c-.072.177-.232.527-.34 1.252l4.594.648-4.255-1.9 1.693.755-1.627-.89-.065.135 1.693.755-1.627-.89.012.005-.01-.006.01.005-.01-.006c-.026.052-.272.417-.656.87-.67.813-1.755 1.937-2.95 3.072-1.8 1.712-3.865 3.486-5.45 4.798-.795.66-1.47 1.205-1.942 1.58-.237.19-.42.335-.546.433l-.134.106-.034.027 4.7 6.06 1.535-7.516-1.403-.285c-2.256-.46-4.58.107-6.366 1.557-1.38 1.12-2.422 1.693-3.08 1.964-.664.273-.924.264-.96.266v.01l.004-.008-.003-.002v.01l.003-.008-.062.642.273-.58-.21-.062-.062.642.273-.58-.215.457.37-.35-.154-.107-.215.457.37-.35-1.9 1.802 2.228-1.327c-.222-.37-.295-.44-.327-.475l-1.9 1.802 2.227-1.327c-1.36-2.29-3.803-3.706-6.468-3.75-2.666-.043-5.152 1.294-6.587 3.54-1.63 2.545-2.738 5.243-3.42 7.902-.683 2.666-.95 5.293-.95 7.797.02 6.52 1.74 12.22 3.365 16.424 1.646 4.2 3.256 6.897 3.412 7.162l6.575-3.954-2.14-7.365c-9.103 2.65-15.492 3.456-19.71 3.452-4.638-.01-6.578-.926-7.154-1.256l-.235-.157-.02.026.02-.027-.02.026.02-.027-2.485 2.706 3.233-1.572c-.363-.75-.69-1.086-.747-1.135l-2.485 2.706 3.233-1.572-6.9 3.352 7.286 2.393-7.287-2.393z" fill="#fff"/><path d="M283.916 212.612h14.15v-.98c-2.025-.16-3.322-.5-3.9-1.03-.582-.543-.88-1.865-.88-3.967V196.5h3.894c3.712 0 6.792-.837 9.272-2.517 2.465-1.676 3.695-4.387 3.695-8.13 0-2.944-1.126-5.326-3.352-7.14-2.256-1.794-5.48-2.7-9.71-2.7h-13.17v.96c1.79.176 2.94.57 3.474 1.178.52.63.79 1.903.79 3.83v24.045c0 2.277-.238 3.73-.7 4.36-.48.613-1.658 1.04-3.564 1.248v.98zm20.787-26.57c0 3.625-1.188 6.107-3.536 7.448-1.31.717-3.087 1.064-5.344 1.064-.258 0-.533-.015-.804-.025-.276-.01-.845-.08-1.734-.225V179.82c0-.775.115-1.276.35-1.513.232-.235.852-.35 1.868-.35 2.132 0 3.904.35 5.307 1.056 2.588 1.273 3.893 3.63 3.893 7.028" fill="#00a651"/><path d="M283.916 212.612v7.668h14.15c2.018 0 3.995-.816 5.42-2.245 1.43-1.427 2.25-3.404 2.25-5.423v-.98c0-4.004-3.076-7.33-7.066-7.646-.358-.028-.642-.062-.838-.092l-.283-.05-.012-.003-.72 2.665 1.174-2.487c-.3-.138-.437-.17-.454-.177l-.72 2.665 1.174-2.487-2.346 4.98 3.722-4.037c-.608-.552-1.082-.8-1.376-.942l-2.346 4.98 3.722-4.037.014.016-4.004 4.318 5.337-2.527c-.202-.424-.573-1.08-1.333-1.79l-4.004 4.317 5.337-2.527-3.633 1.723 3.887-1.056c-.035-.125-.1-.34-.255-.667l-3.633 1.723 3.887-1.056-1.453.393 1.484-.256-.03-.136-1.453.393 1.484-.256s-.048-.357-.046-.935V196.5h-7.668v7.672h3.894c2.43 0 4.813-.275 7.11-.896 2.294-.623 4.497-1.606 6.467-2.945l.01-.005c2.342-1.572 4.29-3.886 5.44-6.46 1.17-2.578 1.61-5.307 1.61-8.01.007-2.44-.485-4.964-1.57-7.256-1.07-2.3-2.71-4.298-4.61-5.835l-.06-.047c-2.038-1.627-4.396-2.738-6.838-3.417-2.45-.68-4.997-.958-7.654-.958h-13.17c-2.02 0-3.997.82-5.423 2.247-1.43 1.428-2.246 3.403-2.246 5.422v.962c0 3.96 2.992 7.255 6.93 7.636.248.024.425.052.513.07l.057.012.258-1.08-.36 1.045.102.035.258-1.08-.36 1.045 1.243-3.597-1.955 3.256c.354.21.59.3.712.34l1.243-3.596-1.955 3.256 2.872-4.783-4.195 3.662c.49.562.973.91 1.323 1.12l2.872-4.782-4.195 3.662 5.78-5.044-5.905 4.9 4.134-3.432-4.976 2.062c.135.314.365.79.84 1.37l4.135-3.432-4.976 2.062 3.144-1.302-3.306.823c.022.086.066.242.162.48l3.144-1.302-3.306.823.947-.236-.963.158.015.08.947-.238-.963.158c.007.03.043.35.04.86v24.043c.005.868-.055 1.46-.078 1.574l-.003.014 2.655.518-2.53-.93c-.102.28-.12.4-.125.412l2.655.518-2.53-.93 5.217 1.92-4.465-3.29c-.464.636-.646 1.09-.752 1.37l5.216 1.92-4.465-3.29 6.174 4.552-6.064-4.7 4.592 3.56-3.09-4.938c-.388.245-.943.66-1.502 1.378l4.592 3.56-3.09-4.938 1.667 2.664-.827-3.07c.002.01-.245.046-.84.406l1.667 2.664-.827-3.07c-.004.005-.256.065-.676.107-3.888.427-6.835 3.715-6.835 7.626v.98c0 2.018.817 3.995 2.246 5.422 1.428 1.43 3.403 2.245 5.423 2.245v-7.668h7.668v-.98h-7.668l.833 7.625c1.347-.154 2.622-.37 4.038-.866.708-.248 1.46-.575 2.267-1.08.806-.506 1.687-1.203 2.484-2.23l.11-.146c.762-1.045 1.133-1.947 1.4-2.734.392-1.18.545-2.16.656-3.15.102-.987.143-1.972.143-3.025V181.98c-.005-1.323-.08-2.58-.36-3.96-.144-.692-.345-1.417-.67-2.208-.33-.79-.79-1.66-1.526-2.555l-.126-.147c-.765-.876-1.595-1.503-2.37-1.966-1.17-.69-2.23-1.047-3.223-1.31-1-.255-1.95-.398-2.922-.494l-.737 7.634h7.668v-.962h-7.668v7.67h13.17c1.567 0 2.746.174 3.533.395.793.224 1.174.463 1.396.638l4.78-6-4.84 5.95c.327.276.363.374.41.457.034.088.104.23.11.732 0 1.04-.174 1.533-.236 1.665l-.102.12.01-.006c-.51.342-1.085.62-1.883.838-.79.216-1.806.36-3.085.36h-3.894c-2.02 0-3.997.818-5.425 2.246-1.426 1.427-2.247 3.404-2.247 5.423v10.135c.006 1.42.08 2.75.41 4.243.17.75.405 1.55.827 2.45.424.892 1.05 1.916 2.103 2.896l.014.013c.905.828 1.764 1.318 2.527 1.68 1.148.527 2.127.78 3.088.98.956.19 1.894.304 2.88.383l.603-7.647h-7.67v.98h7.67v-7.67h-14.15v7.67h7.67-7.67zm20.787-26.57h-7.67c0 .49-.04.837-.084 1.044l-.065.248.11.042-.105-.05-.005.008.11.042-.105-.05.99.483-.798-.75-.192.267.99.482-.798-.75.89.832-.607-1.062-.283.23.89.832-.607-1.062 3.802 6.66-3.663-6.736.505.927-.423-.97-.083.044.505.927-.423-.97.068.16-.057-.163-.01.004.067.16-.057-.163c-.04.023-.65.185-1.775.18v.353l.005-.354h-.005v.354l.005-.354-.465-.02-.09-.004-.115 3.455.33-3.442-.215-.013-.115 3.455.33-3.442c-.014 0-.413-.05-.99-.143l-1.212 7.573h7.668V179.82h-3.457l3.346.78c.13-.59.105-.78.11-.78h-3.456l3.346.78-5.91-1.376 5.475 2.604c.252-.53.365-.934.435-1.23l-5.91-1.374 5.475 2.604-6.193-2.945 4.867 4.825c.676-.682 1.077-1.354 1.326-1.88l-6.193-2.945 4.867 4.825.023-.023-4.945-4.86 2.653 6.417c.548-.233 1.36-.625 2.292-1.557l-4.945-4.86 2.653 6.417-1.992-4.82.63 5.2c.167-.033.53-.05 1.363-.38l-1.992-4.82.63 5.2-.254-2.11.173 2.116.08-.007-.254-2.108.173 2.116h.003l.13-.002c.647 0 1.126.057 1.43.117.306.062.436.124.443.126l.047.024.006.002.577-.993-1.01.507.432.486.577-.993-1.01.507.51-.256-.54.186.03.07.51-.256-.54.186.03.153c.018.115.035.297.035.548H312.374c.002-2.662-.517-5.46-1.937-8.025-.7-1.273-1.623-2.455-2.695-3.453-1.07-1-2.282-1.81-3.54-2.43l.05.025c-2.818-1.4-5.786-1.864-8.748-1.87-.804.006-1.59.027-2.645.22-.532.1-1.137.245-1.91.558-.758.322-1.737.82-2.784 1.868l.02-.023c-.79.8-1.29 1.62-1.633 2.333-.5 1.074-.682 1.927-.8 2.654-.11.728-.138 1.342-.14 1.922v14.485c0 3.774 2.732 6.977 6.457 7.574.5.078.936.142 1.342.195.422.052.76.094 1.356.12l.25-7.666-.342 7.66c.22.01.593.035 1.147.037 1.525-.002 3.02-.115 4.52-.414 1.5-.298 3.02-.787 4.49-1.584l.14-.08c1.23-.702 2.387-1.608 3.372-2.674 1.49-1.604 2.544-3.542 3.163-5.5.627-1.964.863-3.95.866-5.935h-7.67z" fill="#fff"/><path d="M311.27 209.863c1.692-.137 2.754-.412 3.206-.792.43-.376.653-1.402.653-3.063V195.9c0-.937-.074-1.594-.212-1.97-.235-.58-.736-.863-1.497-.863l-.503.034c-.164.035-.648.146-1.437.353v-.612l1.004-.304c2.76-.8 4.68-1.416 5.765-1.812.434-.184.72-.27.843-.27l.047.32v15.295c0 1.598.215 2.607.655 3.02.426.406 1.42.662 2.927.773v.62h-11.45v-.62zm3.735-28.537c.476-.457 1.05-.674 1.742-.674.674 0 1.248.217 1.728.648.484.442.714.98.714 1.597 0 .623-.23 1.14-.715 1.57-.48.444-1.054.65-1.728.65-.69 0-1.266-.206-1.742-.65-.47-.43-.704-.947-.704-1.57 0-.61.234-1.138.705-1.57" fill="#00a651"/><path d="M311.27 209.863l.624 7.645c1.13-.096 2.168-.23 3.3-.51.568-.143 1.167-.32 1.85-.61.68-.3 1.463-.695 2.367-1.446l.146-.126c1.143-1.02 1.755-2.062 2.158-2.917.59-1.302.776-2.298.917-3.227.13-.926.167-1.783.17-2.666V195.9c-.003-.668-.022-1.314-.1-2.025-.088-.72-.182-1.48-.598-2.63l-.073-.182c-.327-.817-.817-1.68-1.48-2.46-.986-1.19-2.363-2.106-3.653-2.584-1.3-.493-2.483-.623-3.476-.625l-.535.02-.505.035c-.318.02-.68.07-.994.137-.26.053-.454.098-.757.17-.293.07-.656.162-1.09.277l1.94 7.42h7.67v-.613h-7.67l2.24 7.337 1.004-.307-2.24-7.334 2.13 7.368c2.873-.832 4.876-1.47 6.268-1.977l.34-.134.027-.01-1.065-2.662.8 2.75c.22-.064.262-.088.264-.088l-1.065-2.66.8 2.748-1.672-5.737 1.14 5.862c.267-.05.42-.093.53-.125l-1.67-5.737 1.14 5.862-1.36-6.99v7.12c.736-.006 1.088-.08 1.36-.13l-1.36-6.99v7.12-7.67l-7.594 1.062.042.32 7.598-1.062h-7.67v15.294c.004 1.15.06 2.255.336 3.58.147.663.35 1.39.738 2.234.39.836.975 1.823 1.985 2.78l-.01-.005c.894.837 1.728 1.312 2.45 1.653 1.08.5 1.96.72 2.79.89.83.162 1.608.25 2.41.31l.552-7.65h-7.668v.62h7.668v-7.672h-11.45v7.673h7.667v-.62h-7.67l.624 7.645-.623-7.645h-7.667v.62c0 2.02.816 3.994 2.245 5.423 1.43 1.43 3.404 2.246 5.423 2.246h11.452c2.022 0 3.997-.817 5.425-2.246 1.43-1.43 2.248-3.403 2.248-5.423v-.62c0-4.03-3.1-7.36-7.116-7.652-.223-.01-.387-.033-.477-.046l-.064-.01-.018.09.022-.09h-.005l-.018.09.022-.09-.715 3.216 1.29-3.016c-.37-.158-.538-.187-.576-.2l-.715 3.216 1.29-3.016-2.357 5.506 4.11-4.335c-.785-.732-1.387-1.01-1.753-1.17l-2.357 5.505 4.11-4.335-.01-.01-4.337 4.59 5.745-2.654c-.223-.477-.617-1.183-1.408-1.936l-4.336 4.59 5.745-2.653-3.566 1.65 3.92-.556c-.016-.053-.026-.358-.353-1.093l-3.566 1.65 3.92-.556v-.004c-.003-.047-.016-.215-.016-.47v-15.295c0-.32-.027-.744-.072-1.062l-.045-.32c-.526-3.783-3.776-6.606-7.597-6.606-.894.008-1.33.108-1.712.18-.545.12-.884.23-1.213.342-.322.11-.608.223-.895.344l2.977 7.07-2.637-7.204c-.78.286-2.61.883-5.257 1.644l-.11.034-1.007.307c-3.234.99-5.43 3.954-5.43 7.336v.613c0 2.384 1.096 4.615 2.98 6.07 1.888 1.458 4.325 1.955 6.63 1.35.355-.093.628-.16.817-.206l.207-.05.036-.005-.5-2.284.468 2.288.032-.004-.5-2.284.468 2.288-1.53-7.515.537 7.653.503-.037-.537-7.65v7.67-5.818l-2.885 5.007c1.258.717 2.342.81 2.886.81v-5.817l-2.885 5.007 3.218-5.583-4.922 4.16c.477.566 1.09 1.07 1.705 1.423l3.218-5.583-4.922 4.16 4.793-4.05-5.82 2.35c.21.524.55 1.134 1.028 1.7l4.793-4.05-5.82 2.35 7.115-2.87-7.185 2.686 4.203-1.572-4.484.49c.015.062.004.303.28 1.082l4.204-1.572-4.484.49.085-.012-.087.006.002.005.085-.01-.087.005c.004.034.008.17.008.37v10.107c0 .243-.006.416-.015.495l.024.002-.02-.004-.004.002.024.002-.02-.004 4.04.706-3.767-1.59c-.213.52-.253.783-.272.884l4.038.706-3.766-1.59 5.9 2.49-4.226-4.78c-1.042.94-1.45 1.785-1.674 2.29l5.9 2.49-4.226-4.78 5.082 5.745-4.937-5.87 3.78 4.498-2.32-5.412c-.3.136-.785.354-1.46.915l3.78 4.498-2.32-5.412 1.42 3.312-.987-3.47c-.068.02-.202.062-.433.158l1.42 3.312-.987-3.47.395 1.388-.344-1.4-.05.012.394 1.388-.344-1.4.022.085-.02-.085h-.002l.022.086-.02-.085c-.038.01-.35.064-.838.103-3.99.324-7.045 3.64-7.045 7.645h7.668zm3.735-28.537l5.297 5.546-3.64-3.812 1.894 4.913c.682-.258 1.326-.693 1.746-1.1l-3.64-3.813 1.894 4.913-1.81-4.687v5.034c.458.002 1.13-.083 1.81-.347l-1.81-4.687v5.034-5.028l-1.773 4.698c.633.243 1.282.332 1.774.33v-5.028l-1.774 4.698 1.825-4.835-3.463 3.84c.414.38 1.003.758 1.638.995l1.825-4.835-3.463 3.84-.006-.005 3.675-4.067-5.003 2.22c.34.774.862 1.433 1.327 1.847l3.675-4.067-5.003 2.22 5.06-2.246h-5.54c-.008.642.135 1.478.48 2.246l5.06-2.246h-5.54 5.6l-5.094-2.31c-.37.803-.514 1.68-.507 2.31h5.603l-5.095-2.31 5.033 2.283-3.665-4.15c-.454.392-1.007 1.062-1.367 1.868l5.033 2.282-3.665-4.15-.122.11 3.57 3.87-1.834-4.93c-.655.238-1.29.645-1.737 1.06l3.57 3.87-1.834-4.93 1.737 4.67v-4.995c-.45-.002-1.083.076-1.738.324l1.737 4.67v-4.995 4.934l1.706-4.618c-.66-.245-1.29-.32-1.706-.317v4.934l1.706-4.618-1.827 4.948 3.576-3.88c-.44-.41-1.088-.83-1.75-1.068l-1.826 4.948 3.576-3.88-.024-.025-3.706 4.058 5.005-2.243c-.345-.778-.864-1.422-1.3-1.815l-3.705 4.058 5.005-2.243-5.086 2.277h5.58c.006-.64-.14-1.5-.493-2.277l-5.086 2.277h5.58-5.583l5.094 2.272c.345-.76.496-1.607.49-2.273h-5.583l5.094 2.272-4.98-2.22 3.704 4.014c.44-.4.94-1.032 1.277-1.795l-4.98-2.22 3.704 4.014.098-.092-5.297-5.546-5.203-5.636c-.91.833-1.762 1.947-2.333 3.233-.577 1.283-.843 2.697-.84 3.974-.003 1.265.26 2.696.845 3.992.58 1.302 1.448 2.42 2.354 3.24l-.026-.02c.917.85 2.094 1.592 3.333 2.045 1.24.458 2.5.633 3.61.63 1.122.003 2.38-.178 3.61-.637 1.23-.452 2.393-1.186 3.314-2.04l-5.195-5.64 5.075 5.748c.942-.823 1.853-1.964 2.45-3.292.606-1.327.866-2.77.86-4.027.004-1.258-.252-2.672-.834-3.977-.578-1.307-1.457-2.456-2.41-3.307l-.002-.006c-.896-.81-2.01-1.515-3.222-1.97-1.207-.457-2.48-.658-3.645-.656-1.147 0-2.452.19-3.712.682-1.265.48-2.43 1.254-3.33 2.12l5.3 5.544-5.203-5.636 5.203 5.636z" fill="#fff"/><path d="M343.242 191.968v.476l-13.025 16.437h6.645c2.292 0 3.747-.255 4.348-.74.616-.485 1.218-1.69 1.813-3.6l.83.15-.675 5.428H324.99v-.448l12.84-16.514h-6.278c-1.676 0-2.787.243-3.3.73-.502.48-.863 1.432-1.078 2.833h-.836l.058-4.752h16.846z" fill="#00a651"/><path d="M343.242 191.968h-7.668v.476h7.668l-6.01-4.762-13.026 16.435c-1.824 2.303-2.17 5.46-.894 8.103 1.277 2.642 3.97 4.33 6.905 4.33h6.645c1.435-.003 2.734-.067 4.11-.3.69-.12 1.407-.28 2.228-.573.814-.303 1.76-.716 2.84-1.58l-4.83-5.958 4.73 6.036c.89-.706 1.48-1.403 1.942-2.04.69-.958 1.12-1.82 1.5-2.682.373-.857.68-1.72.964-2.635l-7.323-2.28-1.36 7.55.833.15 1.358-7.55-7.61-.946-.677 5.423 7.61.95v-7.67H324.99v7.67h7.67v-.447h-7.67l6.057 4.706 12.837-16.512c1.802-2.318 2.124-5.442.834-8.077-1.288-2.638-3.954-4.302-6.888-4.302h-6.278c-1.213.007-2.39.073-3.74.363-.674.15-1.4.36-2.212.723-.806.368-1.716.892-2.623 1.743l-.05.05c-1.396 1.375-2.037 2.714-2.492 3.872-.44 1.168-.67 2.235-.842 3.314l7.58 1.17v-7.67h-.835v7.67l7.668.095.06-4.75-7.67-.097v7.67h16.846v-7.67h-7.668 7.668V184.3h-16.846c-4.19 0-7.618 3.384-7.67 7.572l-.058 4.75c-.026 2.05.772 4.03 2.21 5.488 1.442 1.457 3.41 2.278 5.46 2.278h.836c3.772 0 7.003-2.768 7.58-6.496l.06-.31.003-.016-2.525-.73 2.322 1.203c.158-.31.196-.457.203-.474l-2.525-.73 2.322 1.203-4.715-2.444 3.674 3.812c.59-.575.878-1.064 1.04-1.37l-4.715-2.442 3.674 3.812-.05.047-4.055-4.282 2.423 5.39c.4-.182.98-.496 1.632-1.108l-4.056-4.282 2.423 5.39-1.362-3.03.487 3.315c.02-.01.266-.02.876-.286l-1.362-3.03.487 3.316.13-.01.405-.012h6.278v-7.67l-6.056-4.706-12.84 16.51c-1.047 1.35-1.614 3.002-1.614 4.71v.448c0 2.02.82 3.994 2.247 5.423 1.43 1.43 3.404 2.246 5.423 2.246h18.188c3.866 0 7.13-2.885 7.61-6.72l.677-5.424c.503-4.044-2.243-7.778-6.252-8.5l-.832-.15c-3.803-.682-7.533 1.583-8.682 5.274-.21.687-.4 1.124-.425 1.162l.17.088-.168-.092-.002.004.17.088-.168-.092 2.51 1.367-2.264-1.733c-.168.22-.23.337-.245.367l2.51 1.367-2.264-1.733 4.26 3.26-3.302-4.215c-.514.403-.79.738-.957.955l4.26 3.26-3.302-4.215-.1.08 3.525 4.347-1.905-5.286c-.3.118-.838.316-1.62.94l3.525 4.345-1.905-5.286.93 2.58-.558-2.69c-.028.006-.14.027-.372.11l.93 2.58-.558-2.69-.003.002c-.09.017-.663.08-1.505.076h-6.645v7.67l6.012 4.763 13.024-16.437c1.08-1.363 1.657-3.022 1.657-4.764v-.476c0-2.02-.816-3.996-2.245-5.423-1.427-1.428-3.403-2.245-5.423-2.245v7.668z" fill="#fff"/><path d="M364.64 191.968v.476l-13.01 16.437h6.648c2.292 0 3.74-.255 4.346-.74.616-.485 1.216-1.69 1.813-3.6l.833.15-.688 5.428h-18.18v-.448l12.84-16.514h-6.267c-1.698 0-2.796.243-3.314.73-.507.48-.857 1.432-1.06 2.833h-.844l.06-4.752h16.823z" fill="#00a651"/><path d="M364.64 191.968h-7.67v.476h7.67l-6.014-4.76-13.01 16.437c-1.822 2.304-2.167 5.46-.89 8.102 1.28 2.643 3.97 4.33 6.905 4.33h6.648c1.437-.005 2.734-.07 4.11-.3.69-.12 1.405-.283 2.22-.575.814-.3 1.75-.712 2.816-1.555l-4.8-5.983 4.73 6.036c.898-.708 1.484-1.41 1.95-2.045.686-.96 1.112-1.818 1.49-2.678.373-.853.676-1.71.963-2.618l-7.32-2.293-1.36 7.55.833.15 1.36-7.55-7.61-.963-.687 5.423 7.61.968v-7.67h-18.18v7.67h7.668v-.448h-7.668l6.052 4.708 12.844-16.514c1.802-2.315 2.126-5.442.836-8.077-1.29-2.638-3.953-4.302-6.892-4.302h-6.267c-1.218.007-2.4.07-3.754.363-.675.15-1.404.362-2.212.725-.806.367-1.708.89-2.597 1.72l-.025.026c-1.444 1.394-2.103 2.78-2.555 3.957-.44 1.192-.66 2.267-.82 3.346l7.59 1.096v-7.67h-.844v7.67l7.67.095.06-4.75-7.67-.097v7.67h16.823v-7.67h-7.67 7.67V184.3h-16.824c-4.19 0-7.617 3.384-7.67 7.572l-.06 4.75c-.024 2.05.774 4.03 2.213 5.488 1.44 1.457 3.407 2.278 5.456 2.278h.845c3.82 0 7.047-2.792 7.593-6.57l.053-.303.002-.01-2.68-.752 2.462 1.27c.17-.33.21-.493.218-.517l-2.68-.753 2.462 1.27-4.78-2.464 3.69 3.89c.615-.585.92-1.1 1.09-1.428l-4.78-2.463 3.69 3.89-.027.027-4.02-4.282 2.42 5.363c.397-.18.97-.493 1.6-1.08l-4.02-4.283 2.42 5.363-1.377-3.043.488 3.333c.022-.01.278-.022.888-.29l-1.376-3.043.488 3.333.133-.01.418-.012h6.267v-7.67l-6.052-4.71-12.842 16.515c-1.05 1.347-1.616 3.002-1.616 4.71v.448c0 2.02.817 3.994 2.245 5.423 1.43 1.43 3.404 2.246 5.425 2.246h18.18c3.864 0 7.12-2.868 7.608-6.702l.69-5.425c.51-4.042-2.242-7.796-6.25-8.518l-.833-.15c-3.806-.682-7.525 1.57-8.68 5.26-.214.694-.408 1.138-.434 1.182l.14.07-.138-.076-.002.006.14.07-.138-.076 2.514 1.367-2.27-1.732c-.168.222-.228.337-.245.365l2.514 1.367-2.27-1.732 4.272 3.263-3.31-4.224c-.514.405-.79.742-.962.96l4.272 3.264-3.31-4.224-.07.055 3.482 4.34-1.89-5.255c-.298.115-.83.314-1.592.915l3.482 4.34-1.89-5.255.924 2.564-.56-2.67c-.024.004-.135.025-.363.106l.923 2.564-.56-2.67c-.088.017-.658.08-1.5.076h-6.647v7.67l6.017 4.76 13.006-16.436c1.08-1.365 1.655-3.02 1.655-4.762v-.476c0-2.02-.817-3.996-2.246-5.423-1.426-1.428-3.403-2.245-5.423-2.245v7.668z" fill="#fff"/><path d="M371.01 206.928c0 1.273.528 2.322 1.605 3.154 1.077.825 2.354 1.237 3.82 1.237 1.404 0 2.87-.37 4.44-1.12.914-.43 2.023-1.092 3.328-2 .047.83.34 1.56.86 2.157.526.608 1.364.917 2.54.917 1.007 0 1.976-.275 2.954-.802.632-.332 1.23-.763 1.772-1.305V208.1c-.638.378-1.09.622-1.335.71-.28.1-.593.157-1 .157-.7 0-1.154-.28-1.385-.84-.13-.307-.206-.853-.206-1.634v-8.265c0-1.824-.318-3.193-.956-4.142-1.177-1.712-3.43-2.58-6.743-2.58-2.864 0-5.03.525-6.506 1.567-1.496 1.062-2.22 2.063-2.22 3.024 0 .506.193.958.6 1.352.408.398 1.005.605 1.77.605.508 0 .924-.096 1.282-.27.636-.31.938-.843.938-1.61 0-.105-.038-.36-.136-.74-.104-.4-.143-.685-.143-.837 0-.667.398-1.166 1.195-1.53.787-.366 1.634-.558 2.504-.558 1.83 0 3.05.463 3.637 1.376.337.56.516 1.548.516 2.95v1.748c-4.7 1.42-7.852 2.542-9.406 3.348-2.493 1.34-3.728 3-3.728 4.996m13.133-.772c0 .774-.516 1.418-1.548 1.93-1.04.503-2.122.757-3.265.757-.825 0-1.563-.194-2.23-.586-1.033-.59-1.54-1.493-1.54-2.736 0-1.554 1.224-2.94 3.69-4.14 1.306-.647 2.925-1.225 4.893-1.734v6.51z" fill="#00a651"/><path d="M371.01 206.928h-7.67c-.01 1.693.382 3.566 1.227 5.214.838 1.66 2.068 3.022 3.358 4.01l.026.023c1.212.93 2.613 1.665 4.076 2.134 1.46.473 2.964.68 4.408.677 2.764.002 5.397-.74 7.745-1.863l-.04.02c1.49-.71 2.895-1.573 4.438-2.643l-4.375-6.3-7.658.413c.1 2.403 1.107 4.956 2.74 6.787l-.025-.032c1.153 1.357 2.725 2.357 4.205 2.88 1.49.54 2.88.695 4.14.697 2.426.012 4.754-.717 6.588-1.717l-.066.034c1.29-.678 2.527-1.576 3.617-2.66 1.452-1.447 2.256-3.385 2.256-5.435V208.1c0-2.765-1.474-5.296-3.877-6.665-2.403-1.367-5.33-1.34-7.71.07-.253.152-.442.256-.502.288l-.016.01 2.092 4.13-1.533-4.362c-.448.166-.53.223-.56.232l2.093 4.132-1.533-4.363-.047.018 1.588 4.436v-4.726c-.322-.01-1.04.08-1.588.29l1.588 4.436v-4.726 5.634l1.327-5.474c-.543-.13-.99-.16-1.326-.16v5.634l1.327-5.474-1.5 6.2 4.186-4.8c-.84-.743-1.88-1.212-2.685-1.4l-1.5 6.2 4.186-4.8-4.152 4.76 5.858-2.392c-.282-.71-.856-1.633-1.706-2.367l-4.152 4.76 5.858-2.394-.054-.123-4.836 2.077 5.24-.687c-.033-.18-.05-.535-.404-1.39l-4.836 2.077 5.24-.687-1.54.2 1.552-.087-.013-.113-1.538.2 1.552-.087-.002-.113v-8.265c-.002-1.354-.11-2.71-.433-4.12-.325-1.403-.877-2.888-1.826-4.302l-.045-.063c-.77-1.122-1.737-2.118-2.797-2.913-1.597-1.2-3.358-1.945-5.08-2.387-1.73-.44-3.448-.603-5.188-.605-1.898.002-3.74.166-5.57.605-1.823.44-3.663 1.17-5.36 2.365l-.014.01c-1.195.856-2.35 1.828-3.42 3.276-.532.723-1.033 1.583-1.413 2.6-.38 1.013-.62 2.194-.618 3.403-.008 1.22.25 2.583.796 3.807.538 1.23 1.33 2.28 2.156 3.068l5.32-5.523-5.386 5.46c1.08 1.07 2.4 1.826 3.65 2.246 1.26.43 2.443.565 3.505.567 1.442.015 3.152-.31 4.605-1.02l.036-.02c1.447-.678 3.04-2.005 3.99-3.696.975-1.685 1.267-3.448 1.26-4.813 0-.486-.033-.742-.06-.983-.078-.67-.178-1.112-.316-1.662l-.01-.047-2.153.568 2.193-.358-.04-.21-2.152.568 2.193-.358-5.578.908h5.645c-.005-.552-.045-.753-.067-.908l-5.578.908h5.645-6.21l5.88 1.996c.236-.693.332-1.403.33-1.996h-6.21l5.88 1.996-5.86-1.99 4.26 4.504c.588-.543 1.25-1.465 1.6-2.514l-5.86-1.99 4.26 4.504-3.442-3.64 2.092 4.57c.27-.126.755-.375 1.35-.93l-3.442-3.64 2.092 4.57.027-.01-.718-1.55v1.7c.26.003.536-.065.717-.15l-.718-1.55v1.7l.13.005h.012l.285-2.776-1.213 2.467c.606.292.923.305.928.31l.285-2.777-1.213 2.467 2.258-4.6-4.288 2.76c.57.906 1.442 1.567 2.03 1.84l2.258-4.6-4.288 2.76 6.453-4.148-6.575 3.95 3.677-2.21-4.273.753c.032.105.067.543.595 1.455l3.677-2.21-4.273.754.493-.09-.497.06.004.03.493-.09-.497.06c.004.03.022.204.022.487v1.747h7.668l-2.22-7.342c-2.43.733-4.493 1.4-6.235 2.02-1.753.63-3.133 1.17-4.487 1.86l-.1.056c-1.93 1.045-3.795 2.403-5.313 4.423-.75 1.005-1.387 2.174-1.813 3.438-.43 1.26-.638 2.602-.633 3.89h15.337-3.194l3.024 1.022c.12-.346.173-.732.17-1.022h-3.194l3.024 1.022-2.418-.817 1.845 1.812c.096-.087.397-.464.572-.995l-2.418-.817 1.845 1.812-.364-.358.333.393.032-.035-.364-.358.333.393c.01-.01.158-.126.467-.293l-3.633-6.755 3.53 6.81c.206-.116 1.178-.54 2.566-1.027 1.4-.5 3.26-1.105 5.53-1.79 3.237-.978 5.448-3.96 5.448-7.34v-1.748c0-1.03-.054-2.03-.244-3.124-.21-1.09-.5-2.3-1.365-3.78l-.122-.195c-.64-1-1.472-1.878-2.363-2.554-1.346-1.022-2.764-1.59-4.052-1.918-1.3-.324-2.503-.422-3.674-.426-2.004-.002-3.972.452-5.725 1.264l.026-.01c-1.144.53-2.524 1.36-3.74 2.898-.6.76-1.117 1.687-1.45 2.674-.334.985-.482 2.01-.48 2.932.007.706.067 1.122.133 1.56.07.423.158.82.264 1.23l-.01-.045v.006l2.29-.547-2.322.375.032.17 2.29-.545-2.322.375 5.228-.846-5.267.554.04.292 5.227-.846-5.267.554 6.773-.712h-6.81c.002.382.023.565.036.712l6.773-.712h-6.81 5.747l-4.95-2.857c-.665 1.147-.803 2.258-.797 2.857h5.747l-4.95-2.857 5.23 3.017-2.656-5.444c-.805.37-1.93 1.273-2.572 2.427l5.228 3.017-2.655-5.444.042-.017 2.04 4.243v-4.734c-.428-.015-1.31.126-2.04.49l2.04 4.244v-4.734 4.54l1.46-4.277c-.664-.227-1.165-.26-1.46-.263v4.54l1.46-4.277-1.843 5.393 3.993-4.054c-.67-.668-1.488-1.12-2.15-1.34l-1.844 5.394 3.993-4.054-.062-.06-3.925 4.077 5.172-2.276c-.34-.78-.83-1.403-1.246-1.8L373.976 196l5.172-2.276-5.39 2.373h5.893c.004-.716-.156-1.6-.503-2.373l-5.39 2.373h5.893-5.577l5.23 1.945c.198-.52.347-1.218.347-1.945h-5.577l5.23 1.945-3.854-1.435 3.072 2.787c.136-.156.482-.56.782-1.352l-3.855-1.435 3.072 2.787-1.2-1.09 1.125 1.167.075-.076-1.2-1.09 1.125 1.167-.245-.253.237.265.007-.01-.245-.255.237.265.197-.152-.015.01-.774-1.097.65 1.177.124-.08-.774-1.097.65 1.177-.226-.412.188.43.038-.018-.226-.412.188.43c.002-.003.183-.078.56-.142.378-.064.945-.117 1.685-.117.495 0 .87.03 1.11.07l.315.065.004.002.6-1.533-.988 1.3c.203.154.358.223.388.233l.6-1.533-.988 1.3 1.717-2.26-2.335 1.606c.177.263.415.503.618.655l1.717-2.26-2.335 1.605 6.32-4.344-6.365 4.278 2.047-1.375-2.44.56c.007.025.08.35.393.814l2.047-1.375-2.44.56.005.027c.012.077.038.3.036.65v8.266c.003.642.03 1.277.122 1.99.105.725.227 1.505.71 2.667l7.048-3.023-7.1 2.902c.31.756.758 1.562 1.377 2.32.915 1.142 2.24 2.095 3.546 2.61 1.31.526 2.54.677 3.56.677 1.136.01 2.48-.2 3.59-.61l-.047.017c.828-.3 1.173-.5 1.583-.708.383-.208.74-.41 1.125-.64l-3.916-6.597h-7.67v1.067h7.67l-5.415-5.433.21.21-.137-.26-.073.05.21.21-.137-.26-.066.035h-.003l.684 1.673v-1.79c-.3-.004-.62.086-.685.118l.684 1.673v-1.79 3.28l1.11-3.047c-.65-.232-1.03-.228-1.11-.232v3.28l1.11-3.048-1.79 4.915 3.947-3.406c-.632-.75-1.52-1.29-2.157-1.508l-1.79 4.915 3.948-3.406-.027-.032-3.092 2.7 4.112-.22c-.01-.747-.428-1.843-1.02-2.48l-3.09 2.7 4.11-.22c-.15-2.787-1.782-5.255-4.286-6.48-2.505-1.225-5.457-1-7.75.59-1.065.746-1.878 1.205-2.215 1.358l-.035.015c-.796.376-1.096.37-1.14.37v.483l.07-.473-.07-.01v.483l.07-.473-.25 1.676 1.023-1.336c-.198-.17-.612-.33-.774-.34l-.25 1.677 1.024-1.336.026.02-2.113 2.737 3.057-1.55c-.303-.607-.73-1.027-.943-1.185l-2.113 2.736 3.057-1.55-3.406 1.728h3.837c.01-.418-.117-1.13-.43-1.73l-3.406 1.73h3.837-7.668zm13.133-.772h-7.668 6.043l-5.68-2.068c-.244.667-.368 1.41-.363 2.068h6.043l-5.68-2.068 5.366 1.953-3.932-4.162c-.463.427-1.066 1.195-1.433 2.21l5.364 1.953-3.932-4.162 2.634 2.79-1.708-3.46c-.13.067-.457.23-.926.67l2.634 2.79-1.708-3.46.04-.02-.008.004.1.275v-.297l-.1.022.1.275v-.297 3.284l1.648-2.812c-.507-.32-1.288-.49-1.648-.472v3.284l1.648-2.812-.076-.045-2.312 4.052 4.04-2.275c-.475-.867-1.25-1.524-1.728-1.778l-2.312 4.052 4.04-2.275-3.812 2.146h4.412c.01-.404-.11-1.28-.6-2.145l-3.812 2.146h4.412-4.727l4.365 1.824c.22-.52.366-1.203.362-1.823h-4.727l4.365 1.824-3.018-1.26 2.186 2.507c.083-.07.495-.45.832-1.246l-3.018-1.26 2.186 2.507-.456-.52.433.54.023-.02-.456-.52.433.54.025-.016c.066-.047.258-.17.574-.322l.038-.02c.672-.334 1.82-.77 3.42-1.185l-1.927-7.42h-7.668v6.51h15.336v-6.51c0-2.385-1.09-4.612-2.974-6.07-1.885-1.46-4.316-1.956-6.62-1.357-2.338.61-4.43 1.327-6.366 2.284l.038-.02c-1.82.9-3.557 1.982-5.14 3.737-.782.88-1.51 1.95-2.036 3.21-.53 1.252-.827 2.69-.823 4.09-.01 1.65.362 3.602 1.366 5.372.985 1.78 2.533 3.184 4.04 4.027l3.803-6.663-3.88 6.617c1.845 1.104 4.1 1.66 6.11 1.637 2.277.012 4.602-.536 6.617-1.528l.045-.02c1.194-.598 2.522-1.44 3.742-2.94.602-.744 1.148-1.658 1.52-2.684.374-1.02.562-2.137.557-3.182h-7.667z" fill="#fff"/><path d="M7.672 96.02s4.43-.93 4.885 8.843l2.333 60.97s39.086-40.27 50.03-60.733c0 0 5.11-12.35-1.392-15.135 0 0-9.078-3.028-16.062 3.722 0 0 13.73 2.333 8.383 12.327 0 0-10.706 25.833-33.053 41.443V100.44s-.46-4.42-4.42-4.42H7.672zM79.848 145.07c-6.617 12.49-14.522 11.46-14.522 11.46-8.652-4.57 0-22.406 0-22.406 5.6-13.232 19.87-8.91 19.87-8.91.764 10.944-5.348 19.856-5.348 19.856m16.29-25.705c-30.3-8.42-42.018 22.146-42.018 22.146-7.893 19.858 3.57 22.92 3.57 22.92 12.734-.76 20.102-9.163 20.102-9.163-.492 10.95 1.295 7.893 1.295 7.893 6.873 1.017 12.728-7.893 12.728-7.893l-5.604.506 9.928-36.408zM100.974 163.668s9.174-91.42 49.416-96.01c0 0 2.03 2.546-3.566 3.823 0 0-16.292-11.2-37.193 83.278l7.65.246s-4.832 6.627-16.306 8.664" fill="#eb2227"/><path d="M133.836 135.66s8.396-18.85 11.972-8.67c0 0-1.796 7.39-8.658 11.73 0 0-4.59 3.048-3.314-3.06m36.672-7.89s-5.602 5.07-7.896 5.34c0 0 14-1.277 8.406 10.438 0 0-4.08 19.107-32.857 13.5 0 0-10.943-2.803-5.853-13.244 0 0 32.34-16.303 20.365-27.502 0 0-34.117 8.152-27.238 43.033 0 0 6.873 15.808 34.63 0 0 0 16.816-8.664 21.66-23.178 0 0 3.048-8.903-11.216-8.387M189.108 125.472s6.363-.505 2.294 10.94l-7.91 26.49 6.872.26s9.432-33.11 24.71-36.933c0 0 5.855-2.545 1.278 9.928 0 0-8.404 23.946-7.642 28.788 0 0 5.088 2.794 12.988-6.118l-4.075-1.522 9.16-28.275s3.82-11.46-5.854-8.4c0 0-11.713 2.808-18.332 8.4 0 0 0-8.66-4.585-9.17l-8.905 5.612zM253.78 103.565s-5.35 16.806-15.274 20.12c0 0 6.865-1.276 4.07 7.896l-7.637 26.996s-8.915 33.625 29.284 19.866c0 0-28.778 6.366-17.567-28.784l7.886-25.206h10.447l7.898-4.836-14.526-.508 5.1-19.363-9.68 3.82zM281.295 101.787s2.548 1.536 8.905-4.58c0 0 7.89 6.116-9.17 15.02 0 0 1.03-6.37.265-10.44M273.902 124.2l11.716-5.358-9.163 33.623s-2.553 8.916 3.546 4.34l1.033 1.006s-8.146 7.902-9.928 8.154c0 0-4.84 2.544-3.572-2.297 1.27-4.84-.252-.505-.252-.505l8.667-33.623s2.293-4.068-2.045-5.34M303.71 102.29s.747 9.434-4.34 18.08l3.554.26 6.39-18.34h-5.603zM341.146 119.86l-15.288-.752s-14.778 7.374-14.528 18.333l9.935 10.186s14.013 9.42-.247 11.71c0 0-5.61 2.044-12.477-5.596l-5.853 11.705s23.17 4.838 33.105-13.484c0 0 2.288-5.865-8.153-13.502 0 0-11.457-8.146-5.86-12.23 0 0 5.61-3.554 10.702.254l8.664-6.62zM215.476 105.23s-20.344 9.753-48.202-1.673l2.79-6.137s-6.132-3.9-9.198-4.732c0 0 9.75-6.965 5.297-17.548 0 0-15.6-2.514-23.402-19.785 0 0-11.425-15.32-7.247-23.677 0 0 .833-11.424 28.692-13.09 0 0 27.865-25.64 49.036 1.666 0 0 24.523-.275 27.306 16.156 0 0 14.77 13.658-4.45 29.812 0 0-18.114 17.555-24.24 8.076 0 0-8.072 17.838 3.62 30.933" fill="#eb2227"/><path d="M172.287 94.08s4.736 9.754 35.393.838c0 0-10.89-18.107-2.52-31.2 0 0 4.467 7.515 14.766-.838l1.404.288s13.65-10.595 14.2-14.493l-3.91-4.184-4.45 5.013s11.7-23.123-14.49-19.5c0 0-5.284-14.208-22.566-10.304 0 0-15.042 1.117-13.09 8.627 0 0-21.172-2.5-28.693 5.022 0 0-16.73 15.325 1.116 27.308 0 0 5.293 6.68 15.872 3.61 0 0 12.552 12.816 6.97 29.812" fill="#fff"/><path d="M283.916 212.612h14.15v-.98c-2.025-.16-3.322-.5-3.9-1.03-.582-.543-.88-1.865-.88-3.967V196.5h3.894c3.712 0 6.792-.837 9.272-2.517 2.465-1.676 3.695-4.387 3.695-8.13 0-2.944-1.126-5.326-3.352-7.14-2.256-1.794-5.48-2.7-9.71-2.7h-13.17v.96c1.79.176 2.94.57 3.474 1.178.52.63.79 1.903.79 3.83v24.045c0 2.277-.238 3.73-.7 4.36-.48.613-1.658 1.04-3.564 1.248v.98zm20.787-26.57c0 3.625-1.188 6.107-3.536 7.448-1.31.717-3.087 1.064-5.344 1.064-.258 0-.533-.015-.804-.025-.276-.01-.845-.08-1.734-.225V179.82c0-.775.115-1.276.35-1.513.232-.235.852-.35 1.868-.35 2.132 0 3.904.35 5.307 1.056 2.588 1.273 3.893 3.63 3.893 7.028M311.27 209.863c1.692-.137 2.754-.412 3.206-.792.43-.376.653-1.402.653-3.063V195.9c0-.937-.074-1.594-.212-1.97-.235-.58-.736-.863-1.497-.863l-.503.034c-.164.035-.648.146-1.437.353v-.612l1.004-.304c2.76-.8 4.68-1.416 5.765-1.812.434-.184.72-.27.843-.27l.047.32v15.295c0 1.598.215 2.607.655 3.02.426.406 1.42.662 2.927.773v.62h-11.45v-.62zm3.735-28.537c.476-.457 1.05-.674 1.742-.674.674 0 1.248.217 1.728.648.484.442.714.98.714 1.597 0 .623-.23 1.14-.715 1.57-.48.444-1.054.65-1.728.65-.69 0-1.266-.206-1.742-.65-.47-.43-.704-.947-.704-1.57 0-.61.234-1.138.705-1.57M343.242 191.968v.476l-13.025 16.437h6.645c2.292 0 3.747-.255 4.348-.74.616-.485 1.218-1.69 1.813-3.6l.83.15-.675 5.428H324.99v-.448l12.84-16.514h-6.278c-1.676 0-2.787.243-3.3.73-.502.48-.863 1.432-1.078 2.833h-.836l.058-4.752h16.846zM364.64 191.968v.476l-13.01 16.437h6.648c2.292 0 3.74-.255 4.346-.74.616-.485 1.216-1.69 1.813-3.6l.833.15-.688 5.428h-18.18v-.448l12.84-16.514h-6.267c-1.698 0-2.796.243-3.314.73-.507.48-.857 1.432-1.06 2.833h-.844l.06-4.752h16.823zM371.01 206.928c0 1.273.528 2.322 1.605 3.154 1.077.825 2.354 1.237 3.82 1.237 1.404 0 2.87-.37 4.44-1.12.914-.43 2.023-1.092 3.328-2 .047.83.34 1.56.86 2.157.526.608 1.364.917 2.54.917 1.007 0 1.976-.275 2.954-.802.632-.332 1.23-.763 1.772-1.305V208.1c-.638.378-1.09.622-1.335.71-.28.1-.593.157-1 .157-.7 0-1.154-.28-1.385-.84-.13-.307-.206-.853-.206-1.634v-8.265c0-1.824-.318-3.193-.956-4.142-1.177-1.712-3.43-2.58-6.743-2.58-2.864 0-5.03.525-6.506 1.567-1.496 1.062-2.22 2.063-2.22 3.024 0 .506.193.958.6 1.352.408.398 1.005.605 1.77.605.508 0 .924-.096 1.282-.27.636-.31.938-.843.938-1.61 0-.105-.038-.36-.136-.74-.104-.4-.143-.685-.143-.837 0-.667.398-1.166 1.195-1.53.787-.366 1.634-.558 2.504-.558 1.83 0 3.05.463 3.637 1.376.337.56.516 1.548.516 2.95v1.748c-4.7 1.42-7.852 2.542-9.406 3.348-2.493 1.34-3.728 3-3.728 4.996m13.133-.772c0 .774-.516 1.418-1.548 1.93-1.04.503-2.122.757-3.265.757-.825 0-1.563-.194-2.23-.586-1.033-.59-1.54-1.493-1.54-2.736 0-1.554 1.224-2.94 3.69-4.14 1.306-.647 2.925-1.225 4.893-1.734v6.51z" fill="#00a651"/></svg>