<svg xmlns="http://www.w3.org/2000/svg" width="400" height="100.87"><path d="M286.22 100.405l-.113.052.112-.052z" fill="none" stroke="#2d2c2e" stroke-width=".82548"/><path d="M241.117 16.914C233.393 1.7 214.797-4.37 199.585 3.354c-7.254 3.683-12.426 9.837-15.02 16.918-7.128-1.038-14.96.143-22.264 3.852-16.828 8.545-24.486 27.26-17.103 41.798 3.72 7.326 10.547 12.192 18.56 14.128l-.144.437 60.294 19.685 19.687-60.293-.423-.14c2.19-7.325 1.68-15.47-2.053-22.826M40.304 27.004C37.36 39.302 31.52 56.844 22.788 79.63c-1.035.983-2.585 1.475-4.65 1.475-1.24 0-2.275-.028-3.1-.078-1.035.05-1.914.154-2.637.31-.205-.156-.463-.336-.774-.543l-.31-.155c-.207-.105-.336-.183-.387-.234C8.55 68.42 4.91 50.516 0 26.694c2.79-1.756 5.813-2.635 9.07-2.635.98 0 1.962.103 2.944.31.516.826 1.24 3.874 2.17 9.145.67 3.772 1.28 7.88 1.82 12.323.544 4.445 1.1 8.603 1.668 12.48l.465 3.332 2.093-5.348c1.446-3.668 2.868-8.5 4.263-14.494 1.29-5.374 2.505-10.436 3.643-15.19 2.273-.672 4.443-1.01 6.51-1.01 2.376 0 4.263.466 5.658 1.396M58.208 25.764c-.672 15.76-1.99 33.51-3.953 53.248-1.757.825-3.385 1.24-4.883 1.24-.724 0-1.964-.284-3.72-.853-.517-.156-.905-.466-1.163-.93-.208-2.687-.31-5.53-.31-8.526 0-6.46.49-13.77 1.472-21.935.413-3.618 1.318-10.62 2.713-21.006 1.136-1.188 2.66-1.783 4.572-1.783.62 0 1.55.08 2.79.234l2.48.31zM93.24 46.15c0-3.152-.865-5.646-2.595-7.48-1.732-1.835-4.174-2.804-7.324-2.908-.362 0-2.662.26-6.898.775l-.62.078-.077.62c-.672 5.478-1.19 10.618-1.55 15.424-.155 3.46-.518 8.68-1.085 15.655l-.156 1.395 1.32-.542c4.183-1.705 7.98-4.185 11.392-7.44 5.064-4.806 7.595-10 7.595-15.58m18.99-1.938c0 8.06-4.47 15.632-13.408 22.71-10.025 7.958-21.496 12.557-34.413 13.797-.726-4.65-.854-11.135-.388-19.455.412-7.337 1.652-17.672 3.72-31.003 4.236-3.358 9.688-5.04 16.354-5.04 7.13 0 13.64 1.682 19.532 5.04 2.995 1.704 5.18 3.59 6.55 5.657 1.368 2.067 2.053 4.832 2.053 8.293" fill="#e31e2d"/><path d="M144.008 66.92c-1.448 0-2.997.104-4.65.31-5.788.725-9.173 1.034-10.154.93l-.775-.077-.08-.698c-.413-3.926-.308-7.027.31-9.3l.157-.543.542-.078c2.892-.412 5.786-.775 8.68-1.085 1.626-.174 3.09-.352 4.406-.535-.194-2.93.092-5.896.82-8.803-1.052-.036-2.197-.025-3.443.036-1.19.052-2.946.155-5.27.31-1.758.104-2.973.156-3.644.156h-.543l-.233-.543c-.362-.877-.285-2.35.233-4.417.723-2.84 1.085-4.39 1.085-4.65l.077-.698.698-.078c4.788-.514 10.22-.95 16.29-1.313.363-.505.744-1 1.135-1.49.564-.93 1.064-2.023 1.486-3.32.67-2.066.876-3.823.62-5.27-10.957.26-20.102 1.19-27.44 2.79-2.79 7.13-4.804 14.7-6.045 22.71-1.034 6.82-1.68 14.985-1.937 24.492 0 .88.296 1.667.89 2.364.594.698 1.306 1.124 2.133 1.28l13.022-1.164c5.01-.413 9.404-.98 13.176-1.705 1.396-.256 2.248-1.522 2.56-3.797.074-.76.14-1.442.198-2.063-.94-1.14-1.792-2.368-2.538-3.682-.57-.04-1.154-.068-1.77-.068" fill="#e31e2d"/><path d="M148.58 35.84c.386-.423.738-.934 1.073-1.487-.39.49-.772.986-1.133 1.49l.06-.003" fill="#2d2c2e"/><path d="M142.446 55.845c1.82-.252 3.355-.513 4.586-.783.412-1.86.62-3.54.62-5.038 0-.878-.08-1.706-.234-2.48-1.156-.28-2.543-.447-4.152-.503-.728 2.91-1.013 5.875-.82 8.805M145.778 66.988c.746 1.314 1.597 2.542 2.538 3.682.14-1.49.23-2.592.265-3.285-.857-.197-1.797-.325-2.802-.397M238.66 54.988l-5.37 16.443c1.417 3.96 2.68 6.725 3.792 8.28 3.255.102 5.76-.415 7.517-1.55-1.797-8.303-3.78-16.022-5.94-23.172" fill="#e31e2d"/><path d="M220.65 62.347l-2.016.078.312-2.015c1.24-6.46 2.194-10.93 2.866-13.41l1.318-5.347 1.938 5.115c2.17 6.305 3.615 10.696 4.34 13.176-5.013 1.55-7.932 2.352-8.76 2.403m10-29.374c-1.91-3.67-3.333-6.175-4.262-7.52-.62-.102-1.81-.077-3.566.078-1.912.156-2.998.415-3.255.776-4.496 13.797-7.39 22.917-8.68 27.36-3.153 10.696-5.143 19.74-5.97 27.13 2.326.308 4.392.49 6.2.54 1.965.05 3.308-.593 4.032-1.937.98-2.997 1.652-5.374 2.015-7.132l.155-.465.465-.155c3.978-1.343 8.604-2.3 13.874-2.868l.697-.077.233.697c.24.713.474 1.384.705 2.03l5.37-16.443c-2.44-8.07-5.108-15.412-8.012-22.014" fill="#fff"/><path d="M303.04 77.074c-.415.98-1.473 1.757-3.178 2.325-1.292.412-2.635.62-4.03.62-1.603 0-2.48-.233-2.635-.698-.57-6.77-1.14-15.967-1.706-27.593-.206-.207-.36-.31-.464-.31-.104 0-.233.103-.387.31l-10.775 21.39c-.827 1.345-1.86 1.965-3.1 1.86-1.912.156-3.23-.257-3.954-1.24-.515-1.032-1.29-2.557-2.324-4.572-.878-1.653-1.99-4.08-3.332-7.285-1.395-3.41-2.48-5.865-3.255-7.364-1.24 5.425-2.146 9.25-2.715 11.47-1.344 5.375-2.48 8.966-3.41 10.774-1.137 2.273-2.842 3.333-5.115 3.178-2.067.103-3.333-.44-3.798-1.628 1.29-11.574 4.676-28.47 10.153-50.69.826-.775 2.428-1.163 4.806-1.163 1.087 0 1.86.13 2.326.39 2.53 5.115 5.917 13.563 10.154 25.344 6.56-11.057 12.426-19.816 17.593-26.275 1.964-.207 3.385-.31 4.263-.31 2.17 0 3.54.85 4.11 2.556.205.776.32 2.585.347 5.426.026 2.843.195 8.088.504 15.734.258 6.304.388 11.497.388 15.58 0 4.392-.156 8.448-.465 12.168M342.258 39.483c-.827-2.015-1.757-3.28-2.79-3.798-.725-.36-2.068-.543-4.03-.543-3.825 0-6.848 1.602-9.07 4.805-3.72 5.323-5.58 10.646-5.58 15.968 0 2.222.336 4.366 1.008 6.433.93 2.79 3.334 5.064 7.208 6.82.93.414 1.938.62 3.022.62 2.067 0 4.005-.826 5.814-2.48 1.602-1.446 2.816-3.23 3.643-5.348 1.706-4.34 2.558-8.63 2.558-12.866 0-3.514-.594-6.717-1.782-9.61m14.106 11.005c0 7.13-1.886 13.717-5.658 19.763-4.494 7.183-10.772 10.774-18.834 10.774-4.392 0-8.294-1.06-11.704-3.178-7.08-4.392-10.618-11.627-10.618-21.703 0-4.496.826-8.784 2.48-12.866 1.654-4.34 4.056-7.983 7.208-10.928 5.58-5.27 10.825-7.906 15.735-7.906 3.306 0 6.587 1.19 9.844 3.566 7.698 5.58 11.547 13.073 11.547 22.477M387.6 36.693c-.26-2.17-1.448-3.256-3.566-3.256-1.603 0-4.057.8-7.363 2.403-.154 1.19-.594 4.367-1.317 9.533-.568 3.927-.802 7.003-.698 9.223 8.164-6.096 12.48-12.064 12.944-17.903M400 66.766c-.775 2.015-1.937 4.986-3.487 8.913-.208.154-1.163-.027-2.868-.544-5.27-1.6-11.886-4.39-19.843-8.37-.878 4.754-1.266 10.335-1.162 16.74-.465.052-3.642.13-9.533.233-.88-4.393-1.37-9.766-1.472-16.122-.156-14.52 1.29-26.56 4.34-36.12 7.956-4.442 14.752-6.664 20.384-6.664 3.357 0 6.2.827 8.524 2.48 2.637 1.86 4.03 4.393 4.186 7.595.258 4.702-1.395 9.533-4.96 14.493-1.293 1.81-4.91 5.865-10.852 12.17 5.477 2.17 11.058 3.902 16.742 5.193" fill="#e31e2d"/><path d="M175.635 34.63c-1.518 5.204-2.402 11.363-2.402 17.972 0 6.116.757 11.847 2.074 16.794 2.436-4.533 3.942-10.79 3.942-17.704 0-6.594-1.374-12.59-3.615-17.063" fill="#fff"/><path d="M175.635 34.63c-1.518 5.204-2.402 11.363-2.402 17.972 0 6.116.757 11.847 2.074 16.794 2.436-4.533 3.942-10.79 3.942-17.704 0-6.594-1.374-12.59-3.615-17.063zM177.6 75.976c-.135-.3-.265-.605-.394-.916.13.31.26.616.393.916zM176.358 72.83c-.13-.37-.252-.75-.374-1.135.122.384.245.764.374 1.136z" fill="none" stroke="#fff" stroke-width="2.47644"/><path d="M175.81 71.148c-.176-.572-.345-1.155-.503-1.753.158.598.327 1.18.502 1.753zM180.06 80.495c-.26-.387-.516-.794-.767-1.213.25.42.507.826.768 1.213zM179.056 78.864c-.168-.292-.334-.588-.496-.894.162.306.328.602.496.894zM178.293 77.443c-.145-.288-.29-.58-.428-.88.14.3.283.59.428.88zM176.955 74.44c-.128-.324-.25-.655-.372-.99.12.335.244.666.372.99z" fill="none" stroke="#fff" stroke-width="2.47644"/><path d="M180.07 24.715c-.835 1.23-1.61 2.632-2.317 4.175-.065.142-.13.282-.194.426-.12.268-.235.542-.35.817-.09.223-.183.45-.272.677-.094.24-.186.478-.277.722-.112.303-.22.61-.327.922-.066.194-.135.384-.2.58-.172.523-.34 1.052-.498 1.595 2.24 4.472 3.614 10.468 3.614 17.063 0 6.912-1.507 13.17-3.943 17.702.158.598.326 1.18.502 1.753.055.186.115.364.175.548.12.383.245.763.373 1.136.073.21.15.413.224.62.122.333.245.665.373.988.082.21.166.415.25.62.13.31.26.615.393.916.09.197.177.395.267.588.14.3.282.59.43.88.087.175.174.355.265.526.162.306.33.602.495.894.08.138.157.282.238.418.25.42.506.826.77 1.213 5.754-5.37 9.66-15.848 9.66-27.894 0-12.04-3.903-22.512-9.654-27.885z" fill="none" stroke="#fff" stroke-width="2.47644"/><path d="M180.457 81.04c-.317-.276-.474-.472-.395-.545-.263-.387-.52-.794-.77-1.213-.08-.135-.156-.28-.236-.418-.167-.292-.334-.588-.496-.894-.09-.17-.178-.35-.267-.527-.145-.29-.288-.58-.43-.88-.09-.192-.176-.39-.264-.587-.135-.3-.266-.606-.394-.916-.085-.205-.17-.41-.25-.62-.128-.323-.25-.655-.374-.988-.075-.207-.15-.41-.224-.62-.13-.373-.252-.752-.373-1.136-.06-.184-.12-.362-.176-.548-.177-.572-.344-1.155-.503-1.752 2.435-4.533 3.943-10.79 3.943-17.703 0-6.595-1.374-12.59-3.615-17.064.203-.7.422-1.373.648-2.034l.15-.425c.2-.563.406-1.113.622-1.65.03-.073.053-.15.083-.222.022-.054.05-.105.07-.16.637-1.54 1.34-2.954 2.097-4.22.037-.066.073-.13.112-.194 1.498-2.46 3.206-4.34 5.056-5.506.013-.008.024-.017.037-.023.284-.18.573-.338.865-.48.06-.032.118-.07.178-.1s.12-.052.177-.08c.035-.014.07-.03.104-.045.713-.322 1.45-.55 2.228-.69.107-.018.214-.035.32-.054-.397.07-.795.137-1.193.205l-2.947.51c-2.152.37-4.302.744-6.46 1.09l-1.825.29c-1.258.203-2.476.6-3.727.842-.372.072-.747.14-1.12.212-.99.188-1.98.394-2.966.6-.875.183-1.754.354-2.63.525-.428.083-.856.17-1.3.26-6.7 4.76-11.412 16.093-11.412 29.32 0 11.822 3.765 22.124 9.344 27.58l13.453 3.252s8.435 3.362 11.85 3.437c3.416.075 1.786-.076 1.786-.076s-.303-.182-.79-.48c-2.938-.16-5.67-2.072-7.99-5.275z" fill="none" stroke="#fff" stroke-width="2.47644"/><path d="M179.056 78.864c.08.138.157.282.237.418-.08-.136-.157-.28-.237-.418zM175.81 71.148c.055.186.116.364.175.548-.06-.184-.12-.362-.176-.548zM178.293 77.443c.09.176.176.356.267.527-.09-.17-.178-.35-.267-.527zM176.358 72.83c.073.21.15.415.225.62-.075-.205-.152-.41-.225-.62zM177.6 75.976c.086.198.175.395.265.588-.09-.193-.18-.39-.266-.588zM176.955 74.44c.083.21.166.415.25.62-.084-.205-.168-.41-.25-.62z" fill="none" stroke="#fff" stroke-width="2.47644"/><path d="M188.842 18.86c-5.563 0-10.443 6.296-13.207 15.77 2.24 4.472 3.614 10.468 3.614 17.062 0 6.913-1.507 13.17-3.943 17.704 2.694 10.124 7.745 16.948 13.535 16.948 8.622 0 15.61-15.107 15.61-33.742 0-18.636-6.988-33.742-15.61-33.742z" fill="none" stroke="#fff" stroke-width="2.47644"/></svg>