<svg xmlns="http://www.w3.org/2000/svg" width="400" height="137.582"><path d="M272.032 120.173v7.187h2.694c1.5 0 2.607-.29 3.32-.867.72-.578 1.072-1.475 1.072-2.684 0-1.26-.364-2.178-1.08-2.765-.72-.58-1.875-.872-3.468-.872h-2.538zm-1.826-1.854h3.946c1.13 0 2.037.06 2.715.182.685.117 1.254.313 1.702.58.82.505 1.442 1.15 1.88 1.95.437.802.66 1.7.66 2.703 0 .953-.197 1.824-.595 2.634-.397.806-.947 1.45-1.653 1.924-.493.337-1.082.58-1.768.73-.683.15-1.562.228-2.62.228h-2.442v7.928h-1.826v-18.86zM283.282 122.93h1.773v7.567c0 1.944.31 3.317.93 4.12.626.81 1.646 1.217 3.066 1.217.81 0 1.524-.167 2.133-.5.614-.334 1.105-.812 1.48-1.45.214-.364.367-.803.46-1.308.094-.506.142-1.387.142-2.636v-7.01h1.8v14.25h-1.8v-1.54c-.545.673-1.156 1.16-1.826 1.46-.676.304-1.488.455-2.44.455-2.024 0-3.483-.557-4.378-1.666-.895-1.11-1.34-2.952-1.34-5.525v-7.434zM299.646 130.2c0 1.52.53 2.842 1.595 3.967 1.057 1.13 2.28 1.69 3.656 1.69 1.506 0 2.792-.568 3.85-1.697 1.057-1.13 1.588-2.527 1.588-4.194 0-1.582-.528-2.92-1.58-4.01-1.058-1.09-2.324-1.64-3.795-1.64-1.472 0-2.725.573-3.763 1.712-1.03 1.14-1.55 2.533-1.55 4.172m0-11.88v7.004c.758-.922 1.59-1.605 2.49-2.04.9-.448 1.908-.664 3.028-.664 1.976 0 3.643.72 5.007 2.165 1.37 1.442 2.05 3.195 2.05 5.255 0 2.134-.7 3.92-2.092 5.358-1.395 1.44-3.15 2.157-5.264 2.157-1.032 0-1.983-.21-2.853-.63-.863-.417-1.648-1.05-2.367-1.897v2.152h-1.77v-18.86h1.77zM314.42 118.32h1.798v18.86h-1.797v-18.86zM319.153 122.93h1.806v14.25h-1.807v-14.25zm1.806-1.67h-1.807v-2.94h1.806v2.94zM335.105 127.31c-.555-1.035-1.228-1.805-2.024-2.297-.795-.5-1.74-.748-2.843-.748-1.446 0-2.676.558-3.685 1.672-1.004 1.114-1.51 2.49-1.51 4.13 0 1.64.508 3.013 1.518 4.116 1.01 1.096 2.268 1.65 3.755 1.65 1.09 0 2.052-.274 2.885-.815.834-.545 1.468-1.31 1.905-2.294h1.99c-.546 1.545-1.402 2.742-2.566 3.59-1.17.844-2.54 1.268-4.13 1.268-2.03 0-3.747-.733-5.146-2.198-1.4-1.46-2.1-3.228-2.1-5.294 0-2.102.705-3.89 2.123-5.356 1.418-1.46 3.143-2.192 5.18-2.192 1.52 0 2.863.415 4.03 1.252 1.157.83 2.027 2.007 2.607 3.515h-1.99zM339.738 122.93h1.8v14.25h-1.8v-14.25zm1.8-1.67h-1.8v-2.94h1.8v2.94zM356.31 130.2c0-1.623-.534-3.017-1.59-4.157-1.058-1.15-2.302-1.728-3.734-1.728-1.48 0-2.75.55-3.803 1.64-1.058 1.09-1.582 2.43-1.582 4.01 0 1.668.525 3.066 1.587 4.195 1.06 1.13 2.344 1.698 3.85 1.698 1.39 0 2.613-.57 3.672-1.698 1.066-1.13 1.6-2.453 1.6-3.96m-.05-5.016v-6.865h1.81v18.86h-1.81v-2.152c-.63.795-1.414 1.415-2.35 1.858-.937.447-1.932.67-2.97.67-2.03 0-3.738-.725-5.125-2.18-1.385-1.448-2.08-3.225-2.08-5.336 0-2.087.686-3.845 2.057-5.277 1.367-1.428 3.088-2.143 5.147-2.143 1.1 0 2.106.216 3.012.654.91.44 1.68 1.07 2.31 1.91M372.78 129.966c0-1.51-.53-2.833-1.598-3.96-1.062-1.127-2.288-1.69-3.675-1.69-1.507 0-2.79.563-3.85 1.69-1.054 1.127-1.587 2.523-1.587 4.194 0 1.587.524 2.927 1.584 4.022 1.05 1.09 2.322 1.636 3.802 1.636 1.43 0 2.676-.58 3.735-1.73 1.06-1.154 1.59-2.54 1.59-4.162m0 4.958c-.564.823-1.323 1.463-2.28 1.932-.958.47-1.986.7-3.098.7-2.057 0-3.772-.714-5.142-2.145-1.368-1.43-2.057-3.194-2.057-5.288 0-2.134.703-3.92 2.1-5.347 1.398-1.436 3.154-2.155 5.254-2.155 1.083 0 2.073.225 2.975.668.906.444 1.65 1.085 2.25 1.923v-2.28h1.76v14.25h-1.76v-2.256zM389.25 130.2c0-1.623-.53-3.017-1.59-4.157-1.06-1.15-2.303-1.728-3.735-1.728-1.48 0-2.75.55-3.806 1.64-1.056 1.09-1.58 2.43-1.58 4.01 0 1.668.53 3.066 1.584 4.195 1.063 1.13 2.345 1.698 3.852 1.698 1.39 0 2.61-.57 3.678-1.698 1.063-1.13 1.597-2.453 1.597-3.96m-.05-5.016v-6.865h1.81v18.86h-1.81v-2.152c-.63.795-1.412 1.415-2.353 1.858-.933.447-1.925.67-2.977.67-2.024 0-3.73-.725-5.112-2.18-1.388-1.448-2.086-3.225-2.086-5.336 0-2.087.685-3.845 2.055-5.277 1.37-1.428 3.087-2.143 5.143-2.143 1.11 0 2.12.216 3.025.654.904.44 1.675 1.07 2.304 1.91" fill="#3359b0"/><path d="M306.3 53.25V81.01c0 7.15 2.842 10.727 8.52 10.727 2.232 0 6.89-.65 9.265-1.945v15.694c-3.135 1.65-7.85 2.478-14.15 2.478-14.932 0-22.4-7.76-22.4-23.272V39.98l.11-27.245 18.507 25.38.15 15.134zM391.703 28.72h-1.78v3.42h1.78c1.008 0 1.718-.126 2.124-.378.404-.253.604-.68.604-1.28 0-.625-.21-1.076-.64-1.35-.43-.273-1.124-.41-2.087-.41m.272-.974c1.342 0 2.33.214 2.974.644.646.43.966 1.092.966 1.988 0 .67-.202 1.23-.612 1.685-.41.45-.953.724-1.642.823l2.13 4.392h-1.64l-2.008-4.19h-2.22v4.19h-1.436v-9.532h3.487zm7.12 4.934c0-1.004-.18-1.956-.54-2.85-.365-.896-.883-1.683-1.554-2.368-.708-.7-1.517-1.234-2.413-1.604-.9-.373-1.855-.562-2.863-.562-.977 0-1.905.182-2.78.54-.875.362-1.66.89-2.353 1.582-.712.73-1.265 1.54-1.643 2.437-.382.9-.57 1.835-.57 2.805 0 .968.188 1.896.556 2.78.373.887.914 1.688 1.61 2.393.705.697 1.502 1.235 2.396 1.604.883.37 1.815.557 2.784.557.982 0 1.925-.186 2.83-.563.91-.374 1.725-.917 2.447-1.623.684-.667 1.205-1.435 1.564-2.304.352-.87.53-1.81.53-2.824m-7.37-8.307c1.147 0 2.22.204 3.225.62 1.005.414 1.894 1.016 2.67 1.804.766.768 1.36 1.656 1.765 2.658.41 1.007.615 2.07.615 3.193 0 1.13-.198 2.184-.603 3.168-.404.99-.994 1.864-1.777 2.63-.807.8-1.718 1.41-2.738 1.836-1.013.43-2.063.638-3.158.638-1.106 0-2.157-.207-3.154-.622-1-.418-1.884-1.028-2.67-1.827-.794-.78-1.392-1.672-1.81-2.673-.406-1.002-.616-2.054-.616-3.15 0-1.085.212-2.137.637-3.158.425-1.02 1.035-1.93 1.84-2.737.756-.775 1.625-1.366 2.616-1.773.985-.407 2.038-.607 3.158-.607M192.794 107.286h-17.147V38.783h17.147v68.503zM283.282 107.442H266.14V38.78h17.142v68.662zM261.69 107.286h-16.628v-37.29c0-6.183-1.057-9.84-3.44-12.355-2.212-2.336-6.22-4.276-11.623-4.276-3.22 0-6.043.563-8.392 1.677-2.29 1.09-4.055 2.613-5.39 4.66-.81 1.255-1.4 2.748-1.746 4.42-.26 1.29-.572 4.12-.572 10.305v32.86h-16.505l.005-63.867 15.28.048c1.14-.616 3.545-2.037 4.773-2.5 3.973-1.49 8.522-2.25 13.528-2.25 5.516 0 10.537.946 14.918 2.812 4.514 1.92 8.147 4.73 10.792 8.338 1.827 2.543 3.137 5.5 3.91 8.817.736 3.173 1.09 7.608 1.09 13.553v35.05zM356.643 53.735c-4.79 0-8.81 1.826-12.288 5.588-3.56 3.853-5.292 8.524-5.292 14.282 0 5.75 1.735 10.408 5.31 14.24 3.498 3.752 7.733 5.575 12.955 5.575 5.105 0 9.272-1.818 12.732-5.562 3.547-3.833 5.27-8.53 5.27-14.36 0-5.912-1.735-10.592-5.3-14.308-3.516-3.67-7.898-5.455-13.387-5.455m.685 54.862c-9.496 0-17.644-3.467-24.216-10.308-6.528-6.795-9.84-15.062-9.84-24.58 0-9.615 3.316-17.964 9.86-24.81 6.593-6.9 14.54-10.398 23.615-10.398 9.47 0 17.66 3.43 24.333 10.19 6.664 6.752 10.043 14.916 10.043 24.274 0 9.742-3.295 18.187-9.787 25.104-6.56 6.987-14.636 10.527-24.008 10.527M190.69 20.632c0 4.375-3.55 7.926-7.928 7.926-4.376 0-7.925-3.55-7.925-7.926 0-4.375 3.55-7.926 7.925-7.926 4.38 0 7.927 3.55 7.927 7.926M282.746 20.632c0 4.375-3.547 7.926-7.924 7.926-4.378 0-7.925-3.55-7.925-7.926 0-4.375 3.547-7.926 7.925-7.926 4.377 0 7.924 3.55 7.924 7.926M167.92.113l.007 47.1-94.17.157L0 0l167.92.112z" fill="#201e3e"/><path d="M167.952 61.527l-.042 46.527L95.258 61.29l72.694.237z" fill="#dd3e23"/></svg>