<svg xmlns="http://www.w3.org/2000/svg" width="400" height="138.32"><defs><clipPath id="a"><path d="M409.092 443.206h44V385.28h-44v57.926z"/></clipPath><clipPath id="b"><path d="M409.092 443.206h44V385.28h-44v57.926z"/></clipPath></defs><path d="M223.336 113.247h2.41v18.77h-2.18l-11.845-14.456v14.458h-2.383v-18.77h2.054l11.946 14.58v-14.58zM229.27 119.656h2.308v12.362h-2.308v-12.362zm1.142-5.2c.38 0 .706.14.976.417.27.278.407.618.407 1.022 0 .394-.136.733-.407 1.02-.27.287-.596.43-.976.43-.354 0-.668-.144-.938-.437-.27-.29-.406-.628-.406-1.013 0-.377.136-.71.406-1.003.27-.29.584-.435.938-.435M243.664 129.128v2.42c-1.158.456-2.29.684-3.398.684-1.826 0-3.283-.572-4.368-1.72-1.087-1.145-1.63-2.682-1.63-4.607 0-1.945.527-3.512 1.586-4.703 1.056-1.192 2.446-1.787 4.17-1.787.6 0 1.14.06 1.617.18.48.12 1.07.348 1.772.68v2.606c-1.17-.788-2.25-1.182-3.247-1.182-1.04 0-1.894.388-2.562 1.163-.667.777-1.002 1.762-1.002 2.963 0 1.264.363 2.266 1.086 3.01.72.745 1.697 1.115 2.922 1.115.888 0 1.906-.273 3.056-.82M251.35 129.572v-3.667l-1.548.63c-.786.332-1.34.665-1.667 1.002-.325.334-.487.754-.487 1.255 0 .51.152.928.46 1.25.31.322.71.484 1.2.484.735 0 1.416-.318 2.04-.954m2.27-4.985v5.253c0 .422.135.63.406.63.28 0 .715-.218 1.307-.655v1.49c-.523.358-.943.603-1.26.733-.318.13-.65.195-.997.195-.988 0-1.57-.413-1.75-1.236-.98.806-2.024 1.208-3.13 1.208-.812 0-1.49-.284-2.03-.853-.542-.567-.812-1.282-.812-2.142 0-.78.265-1.476.793-2.09.53-.613 1.28-1.1 2.252-1.46l2.954-1.073v-.658c0-1.488-.702-2.232-2.106-2.232-1.26 0-2.485.69-3.677 2.07v-2.673c.896-1.12 2.186-1.68 3.867-1.68 1.26 0 2.27.35 3.03 1.047.255.224.482.522.687.894.203.372.33.743.386 1.116.055.37.083 1.077.083 2.115M259.846 119.656v2.835l.127-.214c1.115-1.907 2.23-2.862 3.347-2.862.87 0 1.78.466 2.726 1.4l-1.217 2.148c-.804-.806-1.55-1.21-2.233-1.21-.743 0-1.39.376-1.934 1.13-.545.75-.817 1.643-.817 2.673v6.463h-2.322v-12.362h2.322zM272.716 129.572v-3.667l-1.547.63c-.787.332-1.342.665-1.668 1.002-.325.334-.487.754-.487 1.255 0 .51.153.928.46 1.25.31.322.71.484 1.2.484.735 0 1.416-.318 2.04-.954m2.27-4.985v5.253c0 .422.135.63.406.63.28 0 .716-.218 1.308-.655v1.49c-.524.358-.944.603-1.262.733-.317.13-.65.195-.996.195-.988 0-1.57-.413-1.75-1.236-.98.806-2.024 1.208-3.13 1.208-.812 0-1.49-.284-2.03-.853-.542-.567-.812-1.282-.812-2.142 0-.78.264-1.476.793-2.09.53-.613 1.28-1.1 2.252-1.46l2.954-1.073v-.658c0-1.488-.7-2.232-2.105-2.232-1.26 0-2.484.69-3.676 2.07v-2.673c.897-1.12 2.186-1.68 3.867-1.68 1.26 0 2.27.35 3.03 1.047.257.224.483.522.688.894.202.372.33.743.385 1.116.055.37.083 1.077.083 2.115M282.48 121.78c-.625 0-1.16.223-1.597.67-.44.448-.66.986-.66 1.614 0 .635.216 1.16.647 1.577.43.42.977.627 1.636.627.65 0 1.193-.213 1.63-.638.434-.426.652-.958.652-1.594 0-.644-.22-1.182-.66-1.612-.44-.43-.988-.645-1.648-.645m-.545 10.815c-.777 0-1.415.174-1.91.525-.493.348-.74.797-.74 1.343 0 1.27 1.08 1.91 3.246 1.91 1.023 0 1.816-.16 2.378-.478.564-.32.843-.77.843-1.35 0-.575-.354-1.043-1.063-1.404-.71-.363-1.628-.545-2.752-.545m-3.792-8.667c0-1.315.455-2.356 1.363-3.123.91-.766 2.15-1.15 3.722-1.15h4.806v1.91h-2.358c.456.493.772.94.95 1.342.18.405.267.866.267 1.384 0 .648-.174 1.28-.52 1.903-.347.623-.79 1.1-1.337 1.43-.545.333-1.44.597-2.683.794-.872.135-1.306.452-1.306.954 0 .287.164.523.49.706.323.183.913.374 1.767.57 1.43.334 2.348.593 2.758.78.41.19.78.458 1.11.807.56.59.838 1.335.838 2.23 0 1.173-.493 2.11-1.48 2.808-.983.7-2.3 1.05-3.95 1.05-1.663 0-2.993-.352-3.986-1.056-.995-.703-1.49-1.645-1.49-2.828 0-1.675.977-2.754 2.928-3.237-.776-.53-1.166-1.055-1.166-1.574 0-.394.167-.75.5-1.074.334-.323.785-.56 1.352-.713-1.717-.806-2.575-2.11-2.575-3.912M297.255 132.018v-1.586c-.49.57-1.052 1.012-1.68 1.327-.63.315-1.26.473-1.884.473-.734 0-1.413-.194-2.035-.584-.62-.39-1.09-.92-1.406-1.587-.32-.667-.477-1.776-.477-3.326v-7.08h2.307v7.044c0 1.298.177 2.205.526 2.72.35.513.966.77 1.846.77 1.1 0 2.033-.57 2.803-1.706v-8.828h2.307v12.362h-2.307zM307.868 129.572v-3.667l-1.547.63c-.785.332-1.34.665-1.666 1.002-.325.334-.487.754-.487 1.255 0 .51.153.928.46 1.25.31.322.71.484 1.2.484.735 0 1.417-.318 2.04-.954m2.27-4.985v5.253c0 .422.135.63.406.63.28 0 .715-.218 1.307-.655v1.49c-.524.358-.944.603-1.26.733-.32.13-.65.195-.998.195-.988 0-1.57-.413-1.75-1.236-.98.806-2.023 1.208-3.13 1.208-.812 0-1.49-.284-2.03-.853-.54-.567-.812-1.282-.812-2.142 0-.78.264-1.476.793-2.09.528-.613 1.278-1.1 2.25-1.46l2.955-1.073v-.658c0-1.488-.7-2.232-2.105-2.232-1.26 0-2.485.69-3.677 2.07v-2.673c.897-1.12 2.186-1.68 3.867-1.68 1.26 0 2.27.35 3.03 1.047.256.224.482.522.687.894.202.372.33.743.385 1.116.056.37.083 1.077.083 2.115" fill="#222"/><path d="M161.825 0v.01C263.308 6.24 351.475 63.93 400 134.343V0H161.825z" fill="#f18d1e"/><path d="M361.928 83.57c2.22-32.8 3.917-31.5 10.428-37.534 4.06-3.76.96-8.262 18.078-9.522-18.274-1.35-11.334-3.597-18.56-10.208-6.605-6.05-8.766-.355-9.946-17.78-1.175 17.466-2.4 10.24-9.52 17.59-7.733 7.98.67 8.948-18.978 10.398 19.354 1.425 12.152 4.37 18.233 10 7.523 6.972 8 3.534 10.265 37.056" fill="#fff"/><path d="M361.915 78.323c1.413-20.918.823-36.69 3.338-39.022 2.326-2.153 11.405-2.042 21.556-2.787-11.327-.837-19.502-.955-21.74-3.005-2.344-2.146-2.382-10.007-3.155-21.44-.75 11.037-.86 19.015-2.99 21.21-2.183 2.254-10.172 2.365-21.905 3.235 10.15.745 19.157.634 21.485 2.788 2.517 2.334 1.994 18.105 3.41 39.023" fill="#fff"/><path d="M123.424 104.922V93.035c0-8.08-6.17-10.098-9.76-10.098-2.58 0-4.712 1.01-6.95 2.466h-.116v-2.02H101.1v21.54h5.943V87.534c1.798-1.57 3.48-2.244 5.054-2.244 3.137 0 5.268 3.142 5.268 6.395v13.237h6.06zM231.446 104.922V93.035c0-8.08-6.167-10.098-9.758-10.098-2.583 0-4.71 1.01-6.952 2.466h-.114v-2.02h-5.498v21.54h5.942V87.534c1.796-1.57 3.48-2.244 5.053-2.244 3.14 0 5.265 3.142 5.265 6.395v13.237h6.06zM12.902 104.922h2.467l12.68-29.054h-3.254l-8.866 20.42-8.64-20.42H0l12.902 29.054zM144.813 75.725h-4.694l-3.68 29.174h3.02l2.672-20.99 10.552 21.288h1.506l8.79-21.15 3.17 12.473s1.18 9.93 15.71 9.93c9.04 0 15.78-4.12 15.78-4.12l-.642-1.903s-4.165 3.222-13.726 3.222c-10.065 0-11.036-9.025-11.036-9.025l-4.374-18.9h-4.86l-8.074 19.943-10.115-19.943zM41.034 89.045c-.675 8.3 11.44 6.285 11.103 11.33-.11 2.022-1.907 2.694-3.702 2.585-3.03-.228-4.822-1.905-6.504-3.816l-1.797 3.925c2.468 1.46 5.163 2.13 7.405 2.24 5.16.34 9.538-1.905 9.875-6.84.447-7.74-12.007-6.846-11.782-10.773.115-1.68 2.133-2.578 4.15-2.466 2.023.224 3.59 1.35 5.384 2.92l1.69-3.593c-2.246-.895-4.38-1.346-6.288-1.57-5.61-.337-9.307 2.582-9.532 6.058M32.714 73.6c-1.796 0-3.253 1.46-3.253 3.253 0 1.684 1.458 3.145 3.254 3.145 1.68 0 3.14-1.46 3.14-3.145 0-1.793-1.46-3.252-3.14-3.252M28.762 104.922h6.302V83.134h-6.302v21.788zM65.078 73.6c-1.798 0-3.255 1.46-3.255 3.253 0 1.684 1.457 3.145 3.255 3.145 1.68 0 3.14-1.46 3.14-3.145 0-1.793-1.46-3.252-3.14-3.252M61.87 104.922h6.3V83.134h-6.3v21.788zM269.806 73.512c-1.8 0-3.26 1.455-3.26 3.252 0 1.686 1.46 3.146 3.26 3.146 1.678 0 3.138-1.46 3.138-3.146 0-1.797-1.46-3.252-3.138-3.252M266.717 104.922h6.06V83.384h-6.06v21.538z" fill="#2d2c2e"/><path d="M196.555 104.922h6.06V83.384h-6.06v21.538zM189.376 101.854c-3.472-2.343-3.052-4.653-3.052-6.538V83.384h-6.062v12.26c0 5.06 4.877 8.304 9.114 6.21M305.402 104.922h6.062V72.098h-6.062v32.824zM84.622 103.13c-3.81 0-5.496-4.04-5.496-8.978 0-5.048 1.687-8.972 5.496-8.972 3.702 0 5.388 3.924 5.388 8.972 0 4.94-1.686 8.978-5.388 8.978m0-20.083c-7.29 0-11.78 5.05-11.78 11.105 0 6.06 4.49 11 11.78 11 7.18 0 11.67-4.94 11.67-11 0-6.056-4.49-11.105-11.67-11.105M81.36 81.41l3.59-6.944h7.682l-7.607 6.967-3.664-.024zM253.777 100.676c-1.444 1.332-2.892 2.337-5.116 2.337-2.56 0-6.003-2.224-6.003-8.677 0-7.002 5.448-12.005 11.12-6.558v12.898zm0-28.58V85.22c-1.56-1.222-4.117-2.11-6.676-2.11-3.222 0-11.006 1.998-11.006 11.45 0 7.006 6.115 10.785 10.9 10.785 2.776 0 5.11-.887 7.114-2.556l.113.11v1.998h5.56v-32.8h-6.003zM298.08 87.1c-.938-2.03-3.16-4.266-8.406-4.266-4.06 0-7.16 1.03-8.81 1.74-.87.374-1.344.66-1.344.66l2.783 5.1s3.416-5.1 6.985-5.1c3.565 0 3.394 5.1 3.394 5.1v8.63c-1.123 1.034-3.365 2.8-5.175 2.8-1.478 0-4.02-2.765-2.573-5.722 1.19-2.437 4.69-1.735 4.69-1.735V91.84h-3.29c-4.66 0-7.526 3.38-7.526 7.036 0 1.907.882 3.608 2.123 4.8.545.518 2.328 1.58 4.158 1.548 1.994-.035 4.05-1.2 4.853-1.73 1.18-.774 2.17-1.607 2.742-2.123v3.552h6.063V90.334s.113-1.546-.665-3.234" fill="#2d2c2e"/></svg>