<svg xmlns="http://www.w3.org/2000/svg" width="399.989" height="99.878"><path d="M138.41 63.69h-1.098l-1.08-2.466-22.47-50.324h3.065l21.04 46.486 21.586-50.052h3.063L138.41 63.69" fill="#d8ebac"/><path d="M138.41 63.69h-1.098l-1.08-2.466-22.47-50.324h3.065l21.04 46.486 21.586-50.052h3.063L138.41 63.69z" fill="none" stroke="#d8ebac" stroke-width="3.4325" stroke-linecap="round" stroke-miterlimit="7"/><path d="M165.498 61.36V25.504h3.063V61.36H165.5zm0-40.04v-2.81h3.063v2.81H165.5" fill="#7f848a"/><path d="M165.498 61.36V25.504h3.063V61.36H165.5zm0-40.04v-2.81h3.063v2.81H165.5z" fill="none" stroke="#7f848a" stroke-width="1.03" stroke-linecap="round" stroke-miterlimit="7"/><path d="M184.63 57.865c-2.318-2.606-2.928-5.144-2.928-8.64V28.042h-6.335v-2.537h6.335v-9.53l2.994 2.195v7.335h8.036v2.538h-8.036v20.98c0 2.88.475 5.076 2.518 7.062 1.703 1.646 3.406 2.397 5.858 2.397v3.086c-2.927 0-6.063-1.098-8.443-3.7" fill="#7f848a"/><path d="M184.63 57.865c-2.318-2.606-2.928-5.144-2.928-8.64V28.042h-6.335v-2.537h6.335v-9.53l2.994 2.195v7.335h8.036v2.538h-8.036v20.98c0 2.88.475 5.076 2.518 7.062 1.703 1.646 3.406 2.397 5.858 2.397v3.086c-2.927 0-6.063-1.098-8.443-3.7z" fill="none" stroke="#7f848a" stroke-width="1.03" stroke-linecap="round" stroke-miterlimit="7"/><path d="M214.31 27.49c-8.58-.068-15.66 7.064-15.66 15.702 0 8.64 7.08 15.838 15.66 15.7 8.44-.136 15.183-6.993 15.25-15.494.138-8.57-6.737-15.837-15.25-15.907zm15.322 30.033v-3.98c-3.816 5.83-9.467 8.506-15.8 8.506-10.21-.07-18.587-8.71-18.45-18.996.135-10.145 8.58-18.374 18.72-18.374 6.81.07 12.263 3.428 15.53 8.57v-4.18h3.064v28.453h-3.064" fill="#7f848a"/><path d="M214.31 27.49c-8.58-.068-15.66 7.064-15.66 15.702 0 8.64 7.08 15.838 15.66 15.7 8.44-.136 15.183-6.993 15.25-15.494.138-8.57-6.737-15.837-15.25-15.907zm15.322 30.033v-3.98c-3.816 5.83-9.467 8.506-15.8 8.506-10.21-.07-18.587-8.71-18.45-18.996.135-10.145 8.58-18.374 18.72-18.374 6.81.07 12.263 3.428 15.53 8.57v-4.18h3.064v28.453h-3.064z" fill="none" stroke="#7f848a" stroke-width="1.03" stroke-linecap="round" stroke-miterlimit="7"/><path d="M240.854 61.36V6.197l2.998 1.138V61.36h-2.998" fill="#7f848a"/><path d="M240.854 61.36V6.197l2.998 1.138V61.36h-2.998z" fill="none" stroke="#7f848a" stroke-width="1.03" stroke-linecap="round" stroke-miterlimit="7"/><path d="M277.553 10.146h-12.256v48.267h11.848c13.685 0 23.9-10.833 23.967-24.065 0-13.096-10.827-24.202-23.56-24.202zm-.135 51.283h-15.182V7.333h14.57c15.59 0 27.368 12.067 27.368 27.083-.067 14.81-11.914 27.012-26.756 27.012" fill="#75c9e6"/><path d="M277.553 10.146h-12.256v48.267h11.848c13.685 0 23.9-10.833 23.967-24.065 0-13.096-10.827-24.202-23.56-24.202zm-.135 51.283h-15.182V7.333h14.57c15.59 0 27.368 12.067 27.368 27.083-.067 14.81-11.914 27.012-26.756 27.012z" fill="none" stroke="#75c9e6" stroke-width="2.4025" stroke-linecap="round" stroke-miterlimit="7"/><path d="M324.526 27.767c-4.766 0-10.893 2.948-13.617 8.568h27.44c-2.79-5.758-8.378-8.637-13.824-8.568zm-14.704 11.586c-.477 1.51-.615 2.538-.615 4.045 0 8.64 6.874 15.632 15.455 15.632 6.197 0 12.735-4.253 14.845-10.627v6.374c-3.408 4.526-9.26 7.407-14.98 7.407-10.217 0-18.45-8.503-18.45-18.786 0-10.216 8.233-18.718 18.45-18.718 8.58 0 16.274 5.76 18.247 14.673h-32.952" fill="#7f848a"/><path d="M324.526 27.767c-4.766 0-10.893 2.948-13.617 8.568h27.44c-2.79-5.758-8.378-8.637-13.824-8.568zm-14.704 11.586c-.477 1.51-.615 2.538-.615 4.045 0 8.64 6.874 15.632 15.455 15.632 6.197 0 12.735-4.253 14.845-10.627v6.374c-3.408 4.526-9.26 7.407-14.98 7.407-10.217 0-18.45-8.503-18.45-18.786 0-10.216 8.233-18.718 18.45-18.718 8.58 0 16.274 5.76 18.247 14.673h-32.952z" fill="none" stroke="#7f848a" stroke-width="1.03" stroke-linecap="round" stroke-miterlimit="7"/><path d="M375.645 61.36V42.715c0-9.464-5.717-14.673-13.342-14.606-7.078.068-13.07 5.897-13.07 13.028V61.36h-3.066V26.628l3.065 2.1v2.603c3.404-4.662 7.35-6.51 13.004-6.51 9.327 0 16.48 6.718 16.48 17.757V61.36h-3.07" fill="#7f848a"/><path d="M375.645 61.36V42.715c0-9.464-5.717-14.673-13.342-14.606-7.078.068-13.07 5.897-13.07 13.028V61.36h-3.066V26.628l3.065 2.1v2.603c3.404-4.662 7.35-6.51 13.004-6.51 9.327 0 16.48 6.718 16.48 17.757V61.36h-3.07z" fill="none" stroke="#7f848a" stroke-width="1.03" stroke-linecap="round" stroke-miterlimit="7"/><path d="M390.966 57.865c-2.315-2.606-2.933-5.144-2.933-8.64V28.042h-6.33v-2.537h6.33v-9.367l3 2.032v7.335h8.034v2.538h-8.033v20.98c0 2.88.475 5.076 2.518 7.062 1.7 1.646 3.405 2.397 5.855 2.397v3.086c-2.926 0-6.06-1.098-8.44-3.7" fill="#7f848a"/><path d="M390.966 57.865c-2.315-2.606-2.933-5.144-2.933-8.64V28.042h-6.33v-2.537h6.33v-9.367l3 2.032v7.335h8.034v2.538h-8.033v20.98c0 2.88.475 5.076 2.518 7.062 1.7 1.646 3.405 2.397 5.855 2.397v3.086c-2.926 0-6.06-1.098-8.44-3.7z" fill="none" stroke="#7f848a" stroke-width="1.03" stroke-linecap="round" stroke-miterlimit="7"/><path d="M42.27 15.053S7.418 4.365.987 30.93c0 0-7.212 30.853 34.008 64.972 0 0-14.654-95.198 39.68-91.923 0 0 14.657.43 19.813 19.114 0 0-2.078-22.825-25.97-22.57 0 0-18.784-1.19-32.626 19.125 0 0-14.313 20.264-9.48 56.808 0 0-33.28-40.215-11.107-57.178 0 0 11.27-8.892 26.965-4.227" fill="#d9eeae"/><path d="M42.27 15.053S7.418 4.365.987 30.93c0 0-7.212 30.853 34.008 64.972 0 0-14.654-95.198 39.68-91.923 0 0 14.657.43 19.813 19.114 0 0-2.078-22.825-25.97-22.57 0 0-18.784-1.19-32.626 19.125 0 0-14.313 20.264-9.48 56.808 0 0-33.28-40.215-11.107-57.178 0 0 11.27-8.892 26.965-4.227z" fill="none" stroke="#d9eeae" stroke-width="1.0162499999999999" stroke-linecap="round" stroke-linejoin="round" stroke-miterlimit="6"/><path d="M52.725 15.053S87.575 4.365 94.01 30.93c0 0 7.208 30.853-34.01 64.972 0 0 14.655-95.198-39.68-91.923 0 0-14.656.43-19.813 19.114 0 0 2.076-22.825 25.972-22.57 0 0 18.782-1.19 32.623 19.125 0 0 14.31 20.264 9.48 56.808 0 0 33.28-40.215 11.105-57.178 0 0-11.27-8.892-26.963-4.227" fill="#75c9e6"/><path d="M52.725 15.053S87.575 4.365 94.01 30.93c0 0 7.208 30.853-34.01 64.972 0 0 14.655-95.198-39.68-91.923 0 0-14.656.43-19.813 19.114 0 0 2.076-22.825 25.972-22.57 0 0 18.782-1.19 32.623 19.125 0 0 14.31 20.264 9.48 56.808 0 0 33.28-40.215 11.105-57.178 0 0-11.27-8.892-26.963-4.227z" fill="none" stroke="#75c9e6" stroke-width="1.0162499999999999" stroke-linecap="round" stroke-linejoin="round" stroke-miterlimit="6"/><path d="M111.625 93.955v-20.86h13.78V74.1H112.88v5.92h12.525v1.034H112.88v11.79h12.525v1.11h-13.78" fill="#7f848a"/><path d="M111.625 93.955v-20.86h13.78V74.1H112.88v5.92h12.525v1.034H112.88v11.79h12.525v1.11h-13.78z" fill="none" stroke="#7f848a" stroke-width=".6875"/><path d="M131.755 94.166c-2.62 0-5.075-2.3-5.075-5.076h1.148c-.026 2.194 1.87 4.02 4.086 3.94 2.137-.107 3.767-1.85 3.767-3.966-.027-2.22-1.896-3.834-3.873-3.86-1.816-.026-2.778-1.243-2.778-2.67 0-1.48 1.175-2.698 2.67-2.698 1.548-.027 2.804 1.27 2.752 2.804h-1.124c.055-.952-.72-1.746-1.654-1.746-.91.027-1.604.74-1.604 1.64 0 .95.856 1.612 1.87 1.612 2.512-.027 4.78 2.194 4.86 4.865.082 2.776-2.215 5.156-5.045 5.156" fill="#7f848a"/><path d="M131.755 94.166c-2.62 0-5.075-2.3-5.075-5.076h1.148c-.026 2.194 1.87 4.02 4.086 3.94 2.137-.107 3.767-1.85 3.767-3.966-.027-2.22-1.896-3.834-3.873-3.86-1.816-.026-2.778-1.243-2.778-2.67 0-1.48 1.175-2.698 2.67-2.698 1.548-.027 2.804 1.27 2.752 2.804h-1.124c.055-.952-.72-1.746-1.654-1.746-.91.027-1.604.74-1.604 1.64 0 .95.856 1.612 1.87 1.612 2.512-.027 4.78 2.194 4.86 4.865.082 2.776-2.215 5.156-5.045 5.156z" fill="none" stroke="#7f848a" stroke-width=".6875"/><path d="M145.767 81.106c-3.31 0-5.98 2.485-5.98 5.923 0 3.197 2.75 5.974 5.98 5.974 3.286 0 5.93-2.724 5.93-5.975-.027-3.228-2.67-5.924-5.93-5.924zm0 13.086c-2.615 0-4.886-1.427-6.06-3.225v8.567h-1.202V81.502h1.2v1.64c1.417-2.195 3.393-3.227 6.062-3.227 3.928 0 7.157 3.226 7.157 7.114 0 3.937-3.175 7.162-7.157 7.162" fill="#7f848a"/><path d="M145.767 81.106c-3.31 0-5.98 2.485-5.98 5.923 0 3.197 2.75 5.974 5.98 5.974 3.286 0 5.93-2.724 5.93-5.975-.027-3.228-2.67-5.924-5.93-5.924zm0 13.086c-2.615 0-4.886-1.427-6.06-3.225v8.567h-1.202V81.502h1.2v1.64c1.417-2.195 3.393-3.227 6.062-3.227 3.928 0 7.157 3.226 7.157 7.114 0 3.937-3.175 7.162-7.157 7.162z" fill="none" stroke="#7f848a" stroke-width=".6875"/><path d="M161.17 80.973c-1.87 0-4.273 1.138-5.342 3.306h10.763c-1.092-2.222-3.284-3.333-5.42-3.307zm-5.768 4.468c-.187.583-.24.98-.24 1.56 0 3.333 2.695 6.03 6.062 6.03 2.428 0 4.994-1.64 5.82-4.1v2.46c-1.334 1.745-3.63 2.855-5.874 2.855-4.005 0-7.236-3.278-7.236-7.244 0-3.938 3.23-7.217 7.236-7.217 3.363 0 6.382 2.22 7.157 5.658h-12.925" fill="#7f848a"/><path d="M161.17 80.973c-1.87 0-4.273 1.138-5.342 3.306h10.763c-1.092-2.222-3.284-3.333-5.42-3.307zm-5.768 4.468c-.187.583-.24.98-.24 1.56 0 3.333 2.695 6.03 6.062 6.03 2.428 0 4.994-1.64 5.82-4.1v2.46c-1.334 1.745-3.63 2.855-5.874 2.855-4.005 0-7.236-3.278-7.236-7.244 0-3.938 3.23-7.217 7.236-7.217 3.363 0 6.382 2.22 7.157 5.658h-12.925z" fill="none" stroke="#7f848a" stroke-width=".6875"/><path d="M176.97 94.06c-3.924 0-7.1-3.2-7.1-7.085 0-3.886 3.23-7.06 7.157-7.06 1.468 0 2.374.266 3.63 1.006l-.67.9c-.986-.635-1.733-.847-2.936-.873-3.337-.053-6.007 2.75-5.98 6.028.027 3.437 2.618 5.87 5.9 5.922 1.284.026 2.11-.21 3.207-.87l.56.977c-1.282.766-2.242 1.057-3.766 1.057" fill="#7f848a"/><path d="M176.97 94.06c-3.924 0-7.1-3.2-7.1-7.085 0-3.886 3.23-7.06 7.157-7.06 1.468 0 2.374.266 3.63 1.006l-.67.9c-.986-.635-1.733-.847-2.936-.873-3.337-.053-6.007 2.75-5.98 6.028.027 3.437 2.618 5.87 5.9 5.922 1.284.026 2.11-.21 3.207-.87l.56.977c-1.282.766-2.242 1.057-3.766 1.057z" fill="none" stroke="#7f848a" stroke-width=".6875"/><path d="M183.857 93.928V80.1h1.2v13.828h-1.2zm0-15.44v-1.085h1.2v1.085h-1.2" fill="#7f848a"/><path d="M183.857 93.928V80.1h1.2v13.828h-1.2zm0-15.44v-1.085h1.2v1.085h-1.2z" fill="none" stroke="#7f848a" stroke-width=".6875"/><path d="M195.097 80.868c-3.365-.026-6.142 2.723-6.142 6.054 0 3.332 2.777 6.108 6.142 6.055 3.31-.054 5.954-2.697 5.982-5.976.05-3.303-2.644-6.106-5.983-6.132zm6.008 11.58v-1.533c-1.494 2.247-3.712 3.277-6.195 3.277-4.006-.026-7.29-3.358-7.237-7.323.053-3.914 3.365-7.087 7.344-7.087 2.67.026 4.807 1.323 6.088 3.306v-1.615h1.202v10.973h-1.202" fill="#7f848a"/><path d="M195.097 80.868c-3.365-.026-6.142 2.723-6.142 6.054 0 3.332 2.777 6.108 6.142 6.055 3.31-.054 5.954-2.697 5.982-5.976.05-3.303-2.644-6.106-5.983-6.132zm6.008 11.58v-1.533c-1.494 2.247-3.712 3.277-6.195 3.277-4.006-.026-7.29-3.358-7.237-7.323.053-3.914 3.365-7.087 7.344-7.087 2.67.026 4.807 1.323 6.088 3.306v-1.615h1.202v10.973h-1.202z" fill="none" stroke="#7f848a" stroke-width=".6875"/><path d="M205.774 93.928h1.173V73.095h-1.173v20.833z" fill="#7f848a"/><path d="M205.774 93.928h1.173V73.095h-1.173v20.833z" fill="none" stroke="#7f848a" stroke-width=".6875"/><path d="M211.457 93.928V80.1h1.2v13.828h-1.2zm0-15.44v-1.085h1.2v1.085h-1.2" fill="#7f848a"/><path d="M211.457 93.928V80.1h1.2v13.828h-1.2zm0-15.44v-1.085h1.2v1.085h-1.2z" fill="none" stroke="#7f848a" stroke-width=".6875"/><path d="M222.404 81.054c-3.283 0-5.956 2.722-5.93 5.975 0 3.197 2.647 5.893 5.905 5.893 3.337.027 6.06-2.643 6.007-6.08-.08-3.2-2.75-5.79-5.983-5.79zm6.062 11.5v-1.64c-1.414 2.195-3.417 3.252-6.087 3.226-3.927-.027-7.133-3.225-7.158-7.11 0-3.94 3.31-7.194 7.29-7.168 2.642.026 4.778 1.428 5.954 3.2v-9.967h1.203v19.458h-1.204" fill="#7f848a"/><path d="M222.404 81.054c-3.283 0-5.956 2.722-5.93 5.975 0 3.197 2.647 5.893 5.905 5.893 3.337.027 6.06-2.643 6.007-6.08-.08-3.2-2.75-5.79-5.983-5.79zm6.062 11.5v-1.64c-1.414 2.195-3.417 3.252-6.087 3.226-3.927-.027-7.133-3.225-7.158-7.11 0-3.94 3.31-7.194 7.29-7.168 2.642.026 4.778 1.428 5.954 3.2v-9.967h1.203v19.458h-1.204z" fill="none" stroke="#7f848a" stroke-width=".6875"/><path d="M238.556 80.868c-3.366-.026-6.144 2.723-6.144 6.054 0 3.332 2.778 6.108 6.144 6.055 3.31-.054 5.953-2.697 5.98-5.976.055-3.303-2.643-6.106-5.98-6.132zm6.008 11.58v-1.533c-1.497 2.247-3.714 3.277-6.196 3.277-4.007-.026-7.29-3.358-7.237-7.323.053-3.914 3.366-7.087 7.344-7.087 2.67.026 4.807 1.323 6.09 3.306v-1.615h1.2v10.973h-1.2" fill="#7f848a"/><path d="M238.556 80.868c-3.366-.026-6.144 2.723-6.144 6.054 0 3.332 2.778 6.108 6.144 6.055 3.31-.054 5.953-2.697 5.98-5.976.055-3.303-2.643-6.106-5.98-6.132zm6.008 11.58v-1.533c-1.497 2.247-3.714 3.277-6.196 3.277-4.007-.026-7.29-3.358-7.237-7.323.053-3.914 3.366-7.087 7.344-7.087 2.67.026 4.807 1.323 6.09 3.306v-1.615h1.2v10.973h-1.2z" fill="none" stroke="#7f848a" stroke-width=".6875"/><path d="M254.384 81.054c-3.284 0-5.956 2.722-5.93 5.975 0 3.197 2.646 5.893 5.905 5.893 3.336.027 6.06-2.643 6.007-6.08-.08-3.2-2.75-5.79-5.983-5.79zm6.062 11.5v-1.64c-1.416 2.195-3.418 3.252-6.087 3.226-3.93-.027-7.133-3.225-7.158-7.11 0-3.94 3.31-7.194 7.29-7.168 2.642.026 4.778 1.428 5.954 3.2v-9.967h1.2v19.458h-1.2" fill="#7f848a"/><path d="M254.384 81.054c-3.284 0-5.956 2.722-5.93 5.975 0 3.197 2.646 5.893 5.905 5.893 3.336.027 6.06-2.643 6.007-6.08-.08-3.2-2.75-5.79-5.983-5.79zm6.062 11.5v-1.64c-1.416 2.195-3.418 3.252-6.087 3.226-3.93-.027-7.133-3.225-7.158-7.11 0-3.94 3.31-7.194 7.29-7.168 2.642.026 4.778 1.428 5.954 3.2v-9.967h1.2v19.458h-1.2z" fill="none" stroke="#7f848a" stroke-width=".6875"/><path d="M270.695 80.973c-1.87 0-4.274 1.138-5.342 3.306h10.76c-1.092-2.222-3.283-3.333-5.418-3.307zm-5.768 4.468c-.188.583-.242.98-.242 1.56 0 3.333 2.696 6.03 6.063 6.03 2.43 0 4.994-1.64 5.82-4.1v2.46c-1.335 1.745-3.63 2.855-5.873 2.855-4.007 0-7.237-3.278-7.237-7.244 0-3.938 3.23-7.217 7.237-7.217 3.362 0 6.38 2.22 7.155 5.658h-12.923" fill="#7f848a"/><path d="M270.695 80.973c-1.87 0-4.274 1.138-5.342 3.306h10.76c-1.092-2.222-3.283-3.333-5.418-3.307zm-5.768 4.468c-.188.583-.242.98-.242 1.56 0 3.333 2.696 6.03 6.063 6.03 2.43 0 4.994-1.64 5.82-4.1v2.46c-1.335 1.745-3.63 2.855-5.873 2.855-4.007 0-7.237-3.278-7.237-7.244 0-3.938 3.23-7.217 7.237-7.217 3.362 0 6.38 2.22 7.155 5.658h-12.923z" fill="none" stroke="#7f848a" stroke-width=".6875"/><path d="M284.465 94.166c-2.618 0-5.073-2.3-5.073-5.076h1.147c-.028 2.194 1.87 4.02 4.085 3.94 2.136-.107 3.765-1.85 3.765-3.966-.026-2.22-1.896-3.834-3.872-3.86-1.816-.026-2.776-1.243-2.776-2.67 0-1.48 1.173-2.698 2.67-2.698 1.548-.027 2.803 1.27 2.75 2.804h-1.12c.05-.952-.723-1.746-1.658-1.746-.908.027-1.602.74-1.602 1.64 0 .95.854 1.612 1.87 1.612 2.51-.027 4.78 2.194 4.86 4.865.08 2.776-2.218 5.156-5.047 5.156" fill="#7f848a"/><path d="M284.465 94.166c-2.618 0-5.073-2.3-5.073-5.076h1.147c-.028 2.194 1.87 4.02 4.085 3.94 2.136-.107 3.765-1.85 3.765-3.966-.026-2.22-1.896-3.834-3.872-3.86-1.816-.026-2.776-1.243-2.776-2.67 0-1.48 1.173-2.698 2.67-2.698 1.548-.027 2.803 1.27 2.75 2.804h-1.12c.05-.952-.723-1.746-1.658-1.746-.908.027-1.602.74-1.602 1.64 0 .95.854 1.612 1.87 1.612 2.51-.027 4.78 2.194 4.86 4.865.08 2.776-2.218 5.156-5.047 5.156z" fill="none" stroke="#7f848a" stroke-width=".6875"/><path d="M301.63 74.18h-4.81V92.79h4.65c5.366 0 9.373-4.177 9.4-9.28 0-5.05-4.247-9.333-9.24-9.333zm-.054 19.775h-5.956v-20.86h5.717c6.114 0 10.735 4.653 10.735 10.442-.028 5.71-4.675 10.418-10.496 10.418" fill="#7f848a"/><path d="M301.63 74.18h-4.81V92.79h4.65c5.366 0 9.373-4.177 9.4-9.28 0-5.05-4.247-9.333-9.24-9.333zm-.054 19.775h-5.956v-20.86h5.717c6.114 0 10.735 4.653 10.735 10.442-.028 5.71-4.675 10.418-10.496 10.418z" fill="none" stroke="#7f848a" stroke-width=".6875"/><path d="M320.317 80.973c-1.868 0-4.274 1.138-5.342 3.306h10.763c-1.096-2.222-3.284-3.333-5.42-3.307zm-5.768 4.468c-.187.583-.24.98-.24 1.56 0 3.333 2.695 6.03 6.06 6.03 2.43 0 4.994-1.64 5.823-4.1v2.46c-1.336 1.745-3.634 2.855-5.876 2.855-4.005 0-7.237-3.278-7.237-7.244 0-3.938 3.232-7.217 7.237-7.217 3.364 0 6.38 2.22 7.157 5.658H314.55" fill="#7f848a"/><path d="M320.317 80.973c-1.868 0-4.274 1.138-5.342 3.306h10.763c-1.096-2.222-3.284-3.333-5.42-3.307zm-5.768 4.468c-.187.583-.24.98-.24 1.56 0 3.333 2.695 6.03 6.06 6.03 2.43 0 4.994-1.64 5.823-4.1v2.46c-1.336 1.745-3.634 2.855-5.876 2.855-4.005 0-7.237-3.278-7.237-7.244 0-3.938 3.232-7.217 7.237-7.217 3.364 0 6.38 2.22 7.157 5.658H314.55z" fill="none" stroke="#7f848a" stroke-width=".6875"/><path d="M340.63 93.928v-7.19c0-3.65-2.244-5.658-5.233-5.632-2.78.026-5.13 2.274-5.13 5.023v7.798h-1.2V81.343h1.2v1.004c1.337-1.796 2.886-2.51 5.103-2.51 3.658 0 6.462 2.59 6.462 6.847v7.244h-1.2" fill="#7f848a"/><path d="M340.63 93.928v-7.19c0-3.65-2.244-5.658-5.233-5.632-2.78.026-5.13 2.274-5.13 5.023v7.798h-1.2V81.343h1.2v1.004c1.337-1.796 2.886-2.51 5.103-2.51 3.658 0 6.462 2.59 6.462 6.847v7.244h-1.2z" fill="none" stroke="#7f848a" stroke-width=".6875"/><path d="M346.9 92.58c-.908-1.005-1.15-1.983-1.15-3.332V81.08h-2.48v-.98h2.48v-2.83h1.177v2.83h3.15v.98h-3.15v8.09c0 1.11.187 1.956.988 2.723.668.634 1.335.925 2.297.925v1.19c-1.148 0-2.376-.423-3.31-1.428" fill="#7f848a"/><path d="M346.9 92.58c-.908-1.005-1.15-1.983-1.15-3.332V81.08h-2.48v-.98h2.48v-2.83h1.177v2.83h3.15v.98h-3.15v8.09c0 1.11.187 1.956.988 2.723.668.634 1.335.925 2.297.925v1.19c-1.148 0-2.376-.423-3.31-1.428z" fill="none" stroke="#7f848a" stroke-width=".6875"/><path d="M358.807 80.868c-3.366-.026-6.142 2.723-6.142 6.054 0 3.332 2.776 6.108 6.142 6.055 3.312-.054 5.954-2.697 5.983-5.976.053-3.303-2.646-6.106-5.983-6.132zm6.01 11.58v-1.533c-1.5 2.247-3.716 3.277-6.198 3.277-4.005-.026-7.29-3.358-7.236-7.323.05-3.914 3.365-7.087 7.345-7.087 2.67.026 4.804 1.323 6.088 3.306v-1.615h1.2v10.973h-1.2" fill="#7f848a"/><path d="M358.807 80.868c-3.366-.026-6.142 2.723-6.142 6.054 0 3.332 2.776 6.108 6.142 6.055 3.312-.054 5.954-2.697 5.983-5.976.053-3.303-2.646-6.106-5.983-6.132zm6.01 11.58v-1.533c-1.5 2.247-3.716 3.277-6.198 3.277-4.005-.026-7.29-3.358-7.236-7.323.05-3.914 3.365-7.087 7.345-7.087 2.67.026 4.804 1.323 6.088 3.306v-1.615h1.2v10.973h-1.2z" fill="none" stroke="#7f848a" stroke-width=".6875"/><path d="M369.482 93.928h1.174V73.095h-1.174v20.833z" fill="#7f848a"/><path d="M369.482 93.928h1.174V73.095h-1.174v20.833z" fill="none" stroke="#7f848a" stroke-width=".6875"/><path d="M380.83 80.973c-1.87 0-4.273 1.138-5.34 3.306h10.76c-1.093-2.222-3.284-3.333-5.42-3.307zm-5.766 4.468c-.188.583-.24.98-.24 1.56 0 3.333 2.694 6.03 6.06 6.03 2.43 0 4.993-1.64 5.82-4.1v2.46c-1.334 1.745-3.632 2.855-5.874 2.855-4.004 0-7.234-3.278-7.234-7.244 0-3.938 3.23-7.217 7.234-7.217 3.363 0 6.38 2.22 7.157 5.658h-12.923" fill="#7f848a"/><path d="M380.83 80.973c-1.87 0-4.273 1.138-5.34 3.306h10.76c-1.093-2.222-3.284-3.333-5.42-3.307zm-5.766 4.468c-.188.583-.24.98-.24 1.56 0 3.333 2.694 6.03 6.06 6.03 2.43 0 4.993-1.64 5.82-4.1v2.46c-1.334 1.745-3.632 2.855-5.874 2.855-4.004 0-7.234-3.278-7.234-7.244 0-3.938 3.23-7.217 7.234-7.217 3.363 0 6.38 2.22 7.157 5.658h-12.923z" fill="none" stroke="#7f848a" stroke-width=".6875"/><path d="M394.602 94.166c-2.618 0-5.072-2.3-5.072-5.076h1.146c-.025 2.194 1.872 4.02 4.085 3.94 2.14-.107 3.768-1.85 3.768-3.966-.03-2.22-1.898-3.834-3.87-3.86-1.82-.026-2.78-1.243-2.78-2.67 0-1.48 1.174-2.698 2.67-2.698 1.55-.027 2.806 1.27 2.753 2.804h-1.12c.05-.952-.724-1.746-1.66-1.746-.904.027-1.6.74-1.6 1.64 0 .95.852 1.612 1.87 1.612 2.51-.027 4.78 2.194 4.858 4.865.082 2.776-2.216 5.156-5.046 5.156" fill="#7f848a"/><path d="M394.602 94.166c-2.618 0-5.072-2.3-5.072-5.076h1.146c-.025 2.194 1.872 4.02 4.085 3.94 2.14-.107 3.768-1.85 3.768-3.966-.03-2.22-1.898-3.834-3.87-3.86-1.82-.026-2.78-1.243-2.78-2.67 0-1.48 1.174-2.698 2.67-2.698 1.55-.027 2.806 1.27 2.753 2.804h-1.12c.05-.952-.724-1.746-1.66-1.746-.904.027-1.6.74-1.6 1.64 0 .95.852 1.612 1.87 1.612 2.51-.027 4.78 2.194 4.858 4.865.082 2.776-2.216 5.156-5.046 5.156z" fill="none" stroke="#7f848a" stroke-width=".6875"/></svg>