<?xml version="1.0" encoding="UTF-8" standalone="no"?>
<!-- Created with Inkscape (http://www.inkscape.org/) -->

<svg
   xmlns:dc="http://purl.org/dc/elements/1.1/"
   xmlns:cc="http://creativecommons.org/ns#"
   xmlns:rdf="http://www.w3.org/1999/02/22-rdf-syntax-ns#"
   xmlns:svg="http://www.w3.org/2000/svg"
   xmlns="http://www.w3.org/2000/svg"
   xmlns:sodipodi="http://sodipodi.sourceforge.net/DTD/sodipodi-0.dtd"
   xmlns:inkscape="http://www.inkscape.org/namespaces/inkscape"
   width="105.83333mm"
   height="84.63475mm"
   viewBox="0 0 105.83333 84.63475"
   version="1.1"
   id="svg6498"
   inkscape:version="0.92.1 r15371"
   sodipodi:docname="wordcamp_managua_2017.svg">
  <defs
     id="defs6492" />
  <sodipodi:namedview
     id="base"
     pagecolor="#ffffff"
     bordercolor="#666666"
     borderopacity="1.0"
     inkscape:pageopacity="0.0"
     inkscape:pageshadow="2"
     inkscape:zoom="0.35"
     inkscape:cx="347.3752"
     inkscape:cy="86.22899"
     inkscape:document-units="mm"
     inkscape:current-layer="layer1"
     showgrid="false"
     fit-margin-top="0"
     fit-margin-left="0"
     fit-margin-right="0"
     fit-margin-bottom="0"
     inkscape:window-width="1280"
     inkscape:window-height="656"
     inkscape:window-x="0"
     inkscape:window-y="27"
     inkscape:window-maximized="1" />
  <metadata
     id="metadata6495">
    <rdf:RDF>
      <cc:Work
         rdf:about="">
        <dc:format>image/svg+xml</dc:format>
        <dc:type
           rdf:resource="http://purl.org/dc/dcmitype/StillImage" />
        <dc:title></dc:title>
      </cc:Work>
    </rdf:RDF>
  </metadata>
  <g
     inkscape:label="Capa 1"
     inkscape:groupmode="layer"
     id="layer1"
     transform="translate(156.16564,-87.013338)">
    <g
       id="g7233"
       transform="matrix(0.24859603,0,0,0.24859603,-87.275199,92.331336)">
      <g
         transform="matrix(0.70499579,0,0,0.70499579,-340.30873,-163.3247)"
         id="Tierra__x2B__Lago">
        <path
           id="path583"
           d="m 168,478 c 9.5,-2.5 28.5,16.5 35.5,21 7,4.5 10,-1.5 17,0 7,1.5 18.5,23.5 32,22 13.5,-1.5 13,-8 22.5,-5.5 9.5,2.5 34.484,15.574 44.906,9.555 23.76,-13.723 28.708,10.396 44.094,4.209 14.333,-5.764 27.068,0 56.535,20.736 29.821,20.985 64.465,-28.5 80.465,-33 16,-4.5 23.625,6.375 34,4.5 11.809,-2.134 25.5,-34.5 36,-33.5 10.5,1 10.531,-17.694 33,-22.375 L 615.007,435 H 168 Z"
           inkscape:connector-curvature="0"
           style="fill:#633628" />
        <path
           id="path585"
           d="m 90.062,417.732 c 0,0 3.563,21.893 19.938,36.268 4.587,4.026 11,-5 18.5,0 7.5,5 39.5,34 50.5,35 11,1 29,-12.5 42,-7 13,5.5 19.5,15.5 38.5,17 19,1.5 56.47,-17.5 69.735,-11.5 13.265,6 36.265,26 49.265,32 13,6 30.5,-11.5 45,-7.5 14.5,4 32.5,17 53,16 20.5,-1 58,-38.5 70.5,-42.5 12.5,-4 24,3.5 37,0.5 13,-3 15,-17.139 25,-15.819 10,1.32 16.843,3 32,3 33.75,0 52.24,-58.256 52.24,-58.256 0,0 0.76,-9.425 -15.24,-10.425 -16,-1 -562,0 -562,0 0,0 -25.938,-5.268 -25.938,13.232 z"
           inkscape:connector-curvature="0"
           style="fill:#82452c" />
        <path
           id="path587"
           d="m 498.585,481.091 c 0,0 -32.534,0.902 -43.034,8.902 -10.5,8 -13.75,11.5 -20.75,11.25 -7,-0.25 -23.75,-5.5 -31.5,-3.25 -7.75,2.25 -24.5,14.75 -33.75,10.5 -9.25,-4.25 -29.5,-25.805 -50,-27.402 -20.5,-1.597 -22.25,4.932 -28,1.167 -5.75,-3.765 -9,-9.515 -23.75,-8.765 -14.75,0.75 -14,7.25 -24,2.5 -10,-4.75 -15,-11.25 -20,-11.25 -5,0 -10.5,5 -20.5,3 -10,-2 -21.422,-17.066 -39.086,-22.783 v -11.967 h 334.37 z"
           inkscape:connector-curvature="0"
           style="fill:#a35330" />
        <path
           id="path589"
           d="m 322.216,481.091 c 0,0 32.534,0.902 43.034,8.902 10.5,8 13.75,11.5 20.75,11.25 7,-0.25 23.75,-5.5 31.5,-3.25 7.75,2.25 24.5,14.75 33.75,10.5 9.25,-4.25 29.5,-25.805 50,-27.402 20.5,-1.597 22.25,4.932 28,1.167 5.75,-3.765 9,-9.515 23.75,-8.765 14.75,0.75 14,7.25 24,2.5 10,-4.75 15,-11.25 20,-11.25 5,0 10.5,5 20.5,3 10,-2 21.422,-17.066 39.086,-22.783 v -11.967 h -334.37 z"
           inkscape:connector-curvature="0"
           style="fill:#a35330" />
        <path
           id="path591"
           d="m 693.24,414.925 c 0,34.566 -135.092,62.59 -301.74,62.59 -166.646,0 -301.74,-28.023 -301.74,-62.59 0,-1.665 -0.399,-8.087 0.216,-9.72 12.16,-32.255 142.905,-52.871 301.524,-52.871 157.982,0 288.605,21.754 301.66,53.824 0.716,1.759 0.08,6.969 0.08,8.767 z"
           inkscape:connector-curvature="0"
           style="fill:#a35330" />
        <path
           style="fill:#bf6f4c"
           d="M 693.23999,407.591 A 301.73999,62.59 0 0 1 391.5,470.181 301.73999,62.59 0 0 1 89.76001,407.591 301.73999,62.59 0 0 1 391.5,345.001 a 301.73999,62.59 0 0 1 301.73999,62.59 z"
           id="ellipse593"
           inkscape:connector-curvature="0" />
        <path
           id="path595"
           d="m 679.552,400.677 c 0,11.283 -9.182,15.505 -53.447,15.505 -20.429,0 -134.861,-0.104 -170.42,3.012 -45.026,3.941 81.458,17.912 34.198,29.033 -16.415,3.863 -63.674,2.793 -98.014,2.793 -164.406,0 -287.683,-22.539 -287.683,-50.343 0,-27.804 138.814,-50.344 287.683,-50.344 137.131,0 287.683,22.54 287.683,50.344 z"
           inkscape:connector-curvature="0"
           style="fill:#37c0e9" />
        <path
           style="fill:#633628"
           d="m 512.44599,532.52698 a 4.473,4.473 0 0 1 -4.473,4.473 4.473,4.473 0 0 1 -4.473,-4.473 4.473,4.473 0 0 1 4.473,-4.473 4.473,4.473 0 0 1 4.473,4.473 z"
           id="circle597"
           inkscape:connector-curvature="0" />
        <path
           style="fill:#82452c"
           d="m 424.68,523.5 a 4.473,4.473 0 0 1 -4.473,4.473 4.473,4.473 0 0 1 -4.473,-4.473 4.473,4.473 0 0 1 4.473,-4.473 4.473,4.473 0 0 1 4.473,4.473 z"
           id="circle599"
           inkscape:connector-curvature="0" />
        <path
           style="fill:#633628"
           d="m 342.02801,529.26398 a 3.2639999,3.2639999 0 0 1 -3.264,3.264 3.2639999,3.2639999 0 0 1 -3.264,-3.264 3.2639999,3.2639999 0 0 1 3.264,-3.264 3.2639999,3.2639999 0 0 1 3.264,3.264 z"
           id="circle601"
           inkscape:connector-curvature="0" />
        <path
           style="fill:#633628"
           d="m 281,519.75 a 3.75,3.75 0 0 1 -3.75,3.75 3.75,3.75 0 0 1 -3.75,-3.75 3.75,3.75 0 0 1 3.75,-3.75 3.75,3.75 0 0 1 3.75,3.75 z"
           id="circle603"
           inkscape:connector-curvature="0" />
        <path
           style="fill:#82452c"
           d="m 438.13801,534.76398 a 2.2360001,2.2360001 0 0 1 -2.236,2.236 2.2360001,2.2360001 0 0 1 -2.236,-2.236 2.2360001,2.2360001 0 0 1 2.236,-2.236 2.2360001,2.2360001 0 0 1 2.236,2.236 z"
           id="circle605"
           inkscape:connector-curvature="0" />
        <path
           style="fill:#82452c"
           d="m 423.09801,555.21503 a 2.549,2.549 0 0 1 -2.549,2.549 2.549,2.549 0 0 1 -2.549,-2.549 2.549,2.549 0 0 1 2.549,-2.549 2.549,2.549 0 0 1 2.549,2.549 z"
           id="circle607"
           inkscape:connector-curvature="0" />
        <path
           style="fill:#8a3f2e"
           d="m 480.99999,507.58301 a 2.549,2.549 0 0 1 -2.549,2.549 2.549,2.549 0 0 1 -2.549,-2.549 2.549,2.549 0 0 1 2.549,-2.549 2.549,2.549 0 0 1 2.549,2.549 z"
           id="circle609"
           inkscape:connector-curvature="0" />
        <path
           style="fill:#82452c"
           d="m 438.45101,494.332 a 2.549,2.549 0 0 1 -2.549,2.549 2.549,2.549 0 0 1 -2.549,-2.549 2.549,2.549 0 0 1 2.549,-2.549 2.549,2.549 0 0 1 2.549,2.549 z"
           id="circle611"
           inkscape:connector-curvature="0" />
        <path
           style="fill:#82452c"
           d="m 356.54901,482.173 a 3.8929999,3.8929999 0 0 1 -3.893,3.893 3.8929999,3.8929999 0 0 1 -3.893,-3.893 3.8929999,3.8929999 0 0 1 3.893,-3.893 3.8929999,3.8929999 0 0 1 3.893,3.893 z"
           id="circle613"
           inkscape:connector-curvature="0" />
        <path
           style="fill:#82452c"
           d="m 496.539,536.09698 a 3.569,3.569 0 0 1 -3.569,3.569 3.569,3.569 0 0 1 -3.569,-3.569 3.569,3.569 0 0 1 3.569,-3.569 3.569,3.569 0 0 1 3.569,3.569 z"
           id="circle615"
           inkscape:connector-curvature="0" />
        <path
           style="fill:#82452c"
           d="m 502.867,561.83197 a 1.5,1.5 0 0 1 -1.5,1.5 1.5,1.5 0 0 1 -1.5,-1.5 1.5,1.5 0 0 1 1.5,-1.5 1.5,1.5 0 0 1 1.5,1.5 z"
           id="circle617"
           inkscape:connector-curvature="0" />
        <path
           style="fill:#82452c"
           d="m 569.66602,509.49899 a 4.5,4.5 0 0 1 -4.5,4.5 4.5,4.5 0 0 1 -4.5,-4.5 4.5,4.5 0 0 1 4.5,-4.5 4.5,4.5 0 0 1 4.5,4.5 z"
           id="circle619"
           inkscape:connector-curvature="0" />
        <path
           style="fill:#82452c"
           d="m 582.66602,492.332 a 2,2 0 0 1 -2,2 2,2 0 0 1 -2,-2 2,2 0 0 1 2,-2 2,2 0 0 1 2,2 z"
           id="circle621"
           inkscape:connector-curvature="0" />
        <path
           style="fill:#82452c"
           d="m 296.361,515.17999 a 3.848,3.848 0 0 1 -3.848,3.848 3.848,3.848 0 0 1 -3.848,-3.848 3.848,3.848 0 0 1 3.848,-3.848 3.848,3.848 0 0 1 3.848,3.848 z"
           id="circle623"
           inkscape:connector-curvature="0" />
        <path
           style="fill:#82452c"
           d="m 297.84499,539.66602 a 2.6659999,2.6659999 0 0 1 -2.666,2.666 2.6659999,2.6659999 0 0 1 -2.666,-2.666 2.6659999,2.6659999 0 0 1 2.666,-2.666 2.6659999,2.6659999 0 0 1 2.666,2.666 z"
           id="circle625"
           inkscape:connector-curvature="0" />
        <path
           style="fill:#82452c"
           d="m 396,573.72998 a 2.0650001,2.0650001 0 0 1 -2.065,2.065 2.0650001,2.0650001 0 0 1 -2.065,-2.065 2.0650001,2.0650001 0 0 1 2.065,-2.065 2.0650001,2.0650001 0 0 1 2.065,2.065 z"
           id="circle627"
           inkscape:connector-curvature="0" />
        <path
           style="fill:#82452c"
           d="m 213.332,491.16599 a 3.1659999,3.1659999 0 0 1 -3.166,3.16599 3.1659999,3.1659999 0 0 1 -3.166,-3.16599 3.1659999,3.1659999 0 0 1 3.166,-3.166 3.1659999,3.1659999 0 0 1 3.166,3.166 z"
           id="circle629"
           inkscape:connector-curvature="0" />
        <path
           style="fill:#82452c"
           d="m 203,503 a 2,2 0 0 1 -2,2 2,2 0 0 1 -2,-2 2,2 0 0 1 2,-2 2,2 0 0 1 2,2 z"
           id="circle631"
           inkscape:connector-curvature="0" />
        <path
           style="fill:#82452c"
           d="m 226,521 a 5,5 0 0 1 -5,5 5,5 0 0 1 -5,-5 5,5 0 0 1 5,-5 5,5 0 0 1 5,5 z"
           id="circle633"
           inkscape:connector-curvature="0" />
        <path
           style="fill:#82452c"
           d="m 246.25101,504.99899 a 2.5840001,2.5840001 0 0 1 -2.584,2.584 2.5840001,2.5840001 0 0 1 -2.584,-2.584 2.5840001,2.5840001 0 0 1 2.584,-2.584 2.5840001,2.5840001 0 0 1 2.584,2.584 z"
           id="circle635"
           inkscape:connector-curvature="0" />
      </g>
      <g
         transform="matrix(0.70499579,0,0,0.70499579,-340.30873,-163.3247)"
         id="Volcanes">
        <path
           id="path638"
           d="m 324.122,201.324 c -20.216,0 -138.265,117.297 -175.568,179.059 0,0 66.58,14.531 175.657,13.356 25.012,0.27 48.206,0.597 68.458,0.11 27.433,-0.659 49.816,-2.458 67.263,-4.624 25.842,-3.207 39.936,-8.843 39.936,-8.843 C 462.563,318.621 344.338,201.324 324.122,201.324 Z"
           inkscape:connector-curvature="0"
           style="fill:#6d9347" />
        <path
           id="path640"
           d="m 325.5,206.5 c 0,0 67.169,43.75 125.427,117.672 0,0 -15.79,18.828 -30.858,34.828 -15.068,16 -24.069,22.25 -51.569,-0.5 0,0 -29.7,-22 -37.1,-45.5 C 324,289.5 334,284.5 344.5,282.5 355,280.5 355,260.977 343,249.488 331,237.999 316.71,215.5 325.5,206.5 Z"
           inkscape:connector-curvature="0"
           style="fill:#c1d156" />
        <path
           id="path642"
           d="m 471.709,313.193 h -9.297 c 0,0 -8.203,-21.693 -31.627,-21.693 -17.41,0 -25.613,13.49 -25.613,13.49 0,0 -14.036,-6.38 -22.239,7.474 h -8.568 c 0,0 -1.154,0.243 -1.154,1.094 0,0.851 1.154,1.276 1.154,1.276 h 97.344 c 0.453,0 0.82,-0.367 0.82,-0.82 0,-0.453 -0.367,-0.821 -0.82,-0.821 z"
           inkscape:connector-curvature="0"
           style="fill:#c9ebfa" />
        <path
           id="path644"
           d="m 512.146,272.488 c -12.747,0 -95.955,82.416 -119.478,121.361 0,0 50.753,0.712 119.533,-0.03 68.781,0.742 110.765,-8.421 110.765,-8.421 -23.522,-38.945 -98.071,-112.91 -110.82,-112.91 z"
           inkscape:connector-curvature="0"
           style="fill:#6d9347" />
        <path
           id="path646"
           d="m 510.534,277.405 c 0,0 -53.398,39.386 -109.466,111.995 0,0 28.604,-0.561 78.504,0 49.9,0.561 -1.838,-18.642 -4.922,-27.613 -3.083,-8.971 9.252,-27.473 21.867,-37.846 12.615,-10.373 34.202,-25.231 14.017,-46.536 z"
           inkscape:connector-curvature="0"
           style="fill:#c1d156" />
        <g
           id="g656">
          <path
             id="path648"
             d="m 326.423,424.574 c 0,1.891 -1.532,3.423 -3.423,3.423 h -15.952 c -1.89,0 -3.423,-1.532 -3.423,-3.423 v 0 c 0,-1.89 1.533,-3.423 3.423,-3.423 H 323 c 1.891,0 3.423,1.534 3.423,3.423 z"
             inkscape:connector-curvature="0"
             style="fill:#c9ebfa" />
          <path
             id="path650"
             d="m 300.256,424.574 c 0,1.891 -1.532,3.423 -3.423,3.423 h -1.952 c -1.89,0 -3.423,-1.532 -3.423,-3.423 v 0 c 0,-1.89 1.533,-3.423 3.423,-3.423 h 1.952 c 1.891,0 3.423,1.534 3.423,3.423 z"
             inkscape:connector-curvature="0"
             style="fill:#c9ebfa" />
          <path
             id="path652"
             d="m 406.477,438.423 c 0,1.891 -1.531,3.423 -3.422,3.423 h -1.953 c -1.89,0 -3.422,-1.532 -3.422,-3.423 v 0 c 0,-1.89 1.532,-3.423 3.422,-3.423 h 1.953 c 1.89,0 3.422,1.533 3.422,3.423 z"
             inkscape:connector-curvature="0"
             style="fill:#c9ebfa" />
          <path
             id="path654"
             d="M 446.242,393.744 H 312.088 c -1.89,0 -3.423,1.533 -3.423,3.423 0,1.891 1.533,3.423 3.423,3.423 h 26.334 0.154 c 1.891,0 3.423,1.533 3.423,3.423 0,1.891 -1.532,3.423 -3.423,3.423 h -10.154 -29.375 c -1.89,0 -3.423,1.533 -3.423,3.423 0,1.891 1.533,3.423 3.423,3.423 h 45.481 c -0.083,0 -0.161,0.019 -0.242,0.024 h 10.29 c 1.891,0 3.423,1.533 3.423,3.423 0,1.771 -1.352,3.204 -3.076,3.381 h -20.349 c -1.89,0 -3.423,1.533 -3.423,3.423 0,1.891 1.533,3.423 3.423,3.423 l 6.139,-0.018 c 1.891,0 3.333,1.575 3.333,3.465 0,1.891 -1.532,3.423 -3.423,3.423 h -6.291 c -1.775,0.127 -3.181,1.592 -3.181,3.398 0,1.891 1.533,3.423 3.423,3.423 h 54.154 c 1.891,0 3.424,-1.532 3.424,-3.423 0,-1.89 -1.533,-3.423 -3.424,-3.423 h -21.926 c -1.891,0 -3.423,-1.532 -3.423,-3.423 0,-1.89 1.532,-3.423 3.423,-3.423 h 34.928 6.999 c 1.891,0 3.423,-1.532 3.423,-3.423 0,-1.89 -1.532,-3.423 -3.423,-3.423 h -13.148 c -1.808,-0.093 -3.249,-1.574 -3.249,-3.405 0,-1.89 1.532,-3.423 3.423,-3.423 h 27.446 c 1.891,0 3.423,-1.532 3.423,-3.423 0,-1.89 -1.532,-3.423 -3.423,-3.423 h -30.625 -4.927 c -1.891,0 -3.424,-1.532 -3.424,-3.423 0,-1.89 1.533,-3.423 3.424,-3.423 h 4.927 53.665 c 1.891,0 3.424,-1.532 3.424,-3.423 10e-4,-1.889 -1.532,-3.422 -3.423,-3.422 z"
             inkscape:connector-curvature="0"
             style="fill:#c9ebfa" />
        </g>
        <path
           id="path658"
           d="m 159.417,271.334 h 154.75 c 0,0 -3.75,-7.5 -10.75,-7.5 -7,0 -10.5,5.25 -10.5,5.25 h -12.75 c 0,0 -11.25,-29.75 -43.375,-29.75 -23.875,0 -35.125,18.5 -35.125,18.5 0,0 -19.25,-8.75 -30.5,10.25 h -11.75 c 0,0 -1.583,0.333 -1.583,1.5 0,1.167 1.583,1.75 1.583,1.75 z"
           inkscape:connector-curvature="0"
           style="fill:#c9ebfa" />
      </g>
      <g
         transform="matrix(0.70499579,0,0,0.70499579,-340.30873,-163.3247)"
         id="Lettering">
        <g
           id="g677">
          <path
             id="path661"
             d="m 221.659,581.392 -15.265,50.404 h -11.377 l -7.489,-23.258 c -1.584,-4.969 -2.16,-8.497 -2.232,-8.497 h -0.072 c -0.072,0 -0.648,3.528 -2.232,8.497 l -7.489,23.258 H 164.126 L 148.86,581.392 h 12.889 l 6.193,23.762 c 1.224,4.753 1.944,8.137 2.016,8.137 h 0.072 c 0.072,0 0.864,-3.384 2.592,-8.137 l 6.985,-19.01 h 11.305 l 6.985,19.01 c 1.728,4.753 2.52,8.137 2.592,8.137 h 0.072 c 0.072,0 0.792,-3.384 2.016,-8.137 l 6.192,-23.762 z"
             inkscape:connector-curvature="0"
             style="fill:#00749a" />
          <path
             id="path663"
             d="m 256.792,580.384 c 14.473,0 26.21,11.017 26.21,26.21 0,15.193 -11.737,26.21 -26.21,26.21 -14.474,0 -26.139,-11.017 -26.139,-26.21 0,-15.193 11.665,-26.21 26.139,-26.21 z m 0,40.467 c 8.208,0 13.609,-5.832 13.609,-14.257 0,-8.497 -5.4,-14.257 -13.609,-14.257 -8.137,0 -13.538,5.76 -13.538,14.257 0,8.425 5.401,14.257 13.538,14.257 z"
             inkscape:connector-curvature="0"
             style="fill:#00749a" />
          <path
             id="path665"
             d="m 325.408,631.796 -9.361,-16.417 h -6.193 v 16.417 h -12.097 v -50.404 h 18.793 c 12.673,0 20.306,6.912 20.306,17.281 0,6.769 -3.24,11.81 -9.073,14.546 l 11.161,18.577 z m -15.554,-27.147 h 8.353 c 4.32,0 6.048,-3.24 6.048,-5.977 0,-2.737 -1.728,-5.977 -6.048,-5.977 h -8.353 z"
             inkscape:connector-curvature="0"
             style="fill:#00749a" />
          <path
             id="path667"
             d="m 375.951,581.392 c 14.401,0 26.067,10.297 26.067,25.418 0,15.121 -11.666,24.986 -26.067,24.986 h -22.034 v -50.404 z m 0,39.099 c 7.201,0 13.465,-5.041 13.465,-13.682 0,-8.641 -6.265,-14.113 -13.465,-14.113 h -9.937 v 27.795 z"
             inkscape:connector-curvature="0"
             style="fill:#00749a" />
          <path
             id="path669"
             d="m 452.055,597.017 c -2.305,-2.88 -6.625,-4.68 -10.584,-4.68 -8.354,0 -13.538,5.977 -13.538,14.257 0,8.713 5.688,14.113 13.538,14.113 4.824,0 9.432,-2.448 11.521,-5.904 l 12.241,3.168 c -4.177,8.929 -13.178,14.833 -23.762,14.833 -14.475,0 -26.139,-11.017 -26.139,-26.21 0,-15.193 11.664,-26.21 26.139,-26.21 9.936,0 18.434,5.328 22.897,13.393 z"
             inkscape:connector-curvature="0"
             style="fill:#00749a" />
          <path
             id="path671"
             d="m 507.279,623.875 h -19.945 l -2.881,7.921 H 471.42 l 20.162,-50.404 h 11.449 l 20.161,50.404 h -13.033 z m -3.888,-10.585 -3.6,-9.793 c -1.08,-2.88 -2.377,-7.416 -2.449,-7.416 h -0.072 c -0.071,0 -1.367,4.536 -2.447,7.416 l -3.601,9.793 z"
             inkscape:connector-curvature="0"
             style="fill:#00749a" />
          <path
             id="path673"
             d="m 584.897,581.392 v 50.404 h -11.882 v -12.313 c 0,-11.952 0.433,-17.857 0.36,-17.857 h -0.072 c -0.071,0 -4.104,6.913 -4.536,7.633 l -5.904,10.081 h -6.265 l -5.904,-10.081 c -0.433,-0.72 -4.465,-7.633 -4.536,-7.633 h -0.072 c -0.072,0 0.359,5.905 0.359,17.857 v 12.313 h -11.881 v -50.404 h 11.377 l 9.434,15.266 c 3.672,5.977 4.248,7.272 4.32,7.272 h 0.071 c 0.072,0 0.648,-1.296 4.32,-7.272 l 9.434,-15.266 z"
             inkscape:connector-curvature="0"
             style="fill:#00749a" />
          <path
             id="path675"
             d="m 622.55,581.392 c 12.386,0 19.874,6.48 19.874,17.281 0,10.801 -7.488,17.281 -19.874,17.281 h -7.128 v 15.842 h -12.098 v -50.404 z m -0.216,23.257 c 4.681,0 7.489,-2.232 7.489,-5.977 0,-3.745 -2.809,-5.977 -7.489,-5.977 h -6.912 v 11.953 h 6.912 z"
             inkscape:connector-curvature="0"
             style="fill:#00749a" />
        </g>
        <g
           id="g701">
          <path
             id="path679"
             d="m 232.831,657.07 v 26.596 h -3.078 v -11.968 c 0,-4.104 0.19,-9.385 0.152,-9.385 h -0.038 c -0.038,0 -1.368,2.432 -2.318,4.027 l -6.193,10.79 h -1.634 l -6.193,-10.79 c -0.95,-1.596 -2.28,-4.027 -2.318,-4.027 h -0.038 c -0.038,0 0.152,5.281 0.152,9.385 v 11.968 h -3.077 V 657.07 h 2.925 l 6.611,11.246 c 2.28,3.875 2.698,4.939 2.736,4.939 h 0.038 c 0.038,0 0.456,-1.064 2.735,-4.939 l 6.611,-11.246 z"
             inkscape:connector-curvature="0"
             style="fill:#474647" />
          <path
             id="path681"
             d="m 263.879,676.713 h -13.336 l -2.964,6.953 h -3.343 l 11.55,-26.596 h 2.85 l 11.55,26.596 h -3.344 z m -1.178,-2.774 -4.218,-9.879 c -0.57,-1.367 -1.216,-3.229 -1.254,-3.229 h -0.038 c -0.038,0 -0.684,1.862 -1.254,3.229 l -4.217,9.879 z"
             inkscape:connector-curvature="0"
             style="fill:#474647" />
          <path
             id="path683"
             d="m 303.398,657.07 v 26.596 h -2.926 l -11.816,-15.92 c -2.28,-3.153 -3.952,-5.585 -3.99,-5.585 h -0.038 c -0.038,0 0.076,3.306 0.076,7.561 v 13.944 h -3.115 V 657.07 h 2.925 l 11.816,15.881 c 2.014,2.698 3.951,5.472 3.989,5.472 h 0.038 c 0.038,0 -0.076,-3.571 -0.076,-7.371 V 657.07 Z"
             inkscape:connector-curvature="0"
             style="fill:#474647" />
          <path
             id="path685"
             d="m 334.445,676.713 h -13.336 l -2.964,6.953 h -3.343 l 11.55,-26.596 h 2.85 l 11.55,26.596 h -3.344 z m -1.177,-2.774 -4.218,-9.879 c -0.57,-1.367 -1.216,-3.229 -1.254,-3.229 h -0.038 c -0.038,0 -0.684,1.862 -1.254,3.229 l -4.217,9.879 z"
             inkscape:connector-curvature="0"
             style="fill:#474647" />
          <path
             id="path687"
             d="m 372.673,679.715 c -1.254,1.558 -4.598,4.483 -9.727,4.483 -7.637,0 -13.792,-5.813 -13.792,-13.83 0,-8.017 6.155,-13.83 13.792,-13.83 5.471,0.114 9.727,2.812 12.082,6.991 l -3.153,0.798 c -1.824,-2.926 -5.206,-4.75 -8.929,-4.75 -6.079,0 -10.601,4.37 -10.601,10.791 0,6.459 4.673,10.79 10.714,10.79 5.205,0 8.625,-3.077 9.651,-5.357 v -3.305 h -8.131 v -2.584 h 10.828 v 13.792 h -2.735 c 0,-3.115 0.038,-3.951 0.038,-3.989 z"
             inkscape:connector-curvature="0"
             style="fill:#474647" />
          <path
             id="path689"
             d="m 409.191,657.07 v 15.577 c 0,7.523 -3.989,11.589 -10.942,11.589 -6.953,0 -10.904,-4.065 -10.904,-11.589 V 657.07 h 3.116 v 15.615 c 0,5.775 2.66,8.625 7.789,8.625 5.167,0 7.827,-2.85 7.827,-8.625 V 657.07 Z"
             inkscape:connector-curvature="0"
             style="fill:#474647" />
          <path
             id="path691"
             d="m 438.147,676.713 h -13.336 l -2.964,6.953 h -3.343 l 11.55,-26.596 h 2.85 l 11.551,26.596 h -3.344 z m -1.177,-2.774 -4.217,-9.879 c -0.57,-1.367 -1.216,-3.229 -1.254,-3.229 h -0.038 c -0.038,0 -0.684,1.862 -1.254,3.229 l -4.217,9.879 z"
             inkscape:connector-curvature="0"
             style="fill:#474647" />
          <path
             id="path693"
             d="m 471.553,663.605 c 1.367,-4.674 4.939,-7.067 9.688,-7.067 5.319,0 9.005,3.533 9.005,8.32 0,5.396 -3.99,8.018 -7.067,10.373 -3.191,2.508 -7.257,5.585 -7.257,5.585 l 0.038,0.038 c 0.038,0 1.861,-0.114 4.901,-0.114 h 9.347 v 2.926 h -18.466 v -2.546 c 4.027,-3.381 8.093,-6.763 12.12,-10.145 1.824,-1.52 3.229,-3.647 3.229,-6.079 0,-3.229 -2.432,-5.585 -5.927,-5.585 -3.647,0 -5.889,2.052 -6.725,5.092 z"
             inkscape:connector-curvature="0"
             style="fill:#474647" />
          <path
             id="path695"
             d="m 524.863,670.368 c 0,7.371 -4.369,13.83 -11.969,13.83 -7.637,0 -11.968,-6.459 -11.968,-13.83 0,-7.371 4.331,-13.83 11.968,-13.83 7.6,0 11.969,6.459 11.969,13.83 z m -20.745,0 c 0,5.775 2.888,10.79 8.776,10.79 5.852,0 8.777,-5.015 8.777,-10.79 0,-5.775 -2.926,-10.791 -8.777,-10.791 -5.888,0 -8.776,5.016 -8.776,10.791 z"
             inkscape:connector-curvature="0"
             style="fill:#474647" />
          <path
             id="path697"
             d="m 545.46,657.07 v 26.596 h -3.115 v -18.047 c 0,-1.862 0.151,-4.028 0.114,-4.028 h -0.038 c -0.038,0 -1.33,1.482 -2.052,2.204 l -3.382,3.344 -1.938,-1.9 8.207,-8.168 h 2.204 z"
             inkscape:connector-curvature="0"
             style="fill:#474647" />
          <path
             id="path699"
             d="m 576.847,657.07 v 1.899 l -13.868,24.696 h -3.344 l 11.171,-19.719 c 1.14,-2.052 2.47,-3.952 2.47,-3.99 l -0.038,-0.037 c -0.038,0 -2.09,0.075 -3.609,0.075 h -11.74 v -2.925 h 18.958 z"
             inkscape:connector-curvature="0"
             style="fill:#474647" />
        </g>
      </g>
    </g>
  </g>
</svg>
