<svg xmlns="http://www.w3.org/2000/svg" width="450" height="381.432"><path d="M299 105.79l-26.53 14.702s.717 92.494-73.855 92.494c-38.717 0-73.852-30.113-80.304-51.982l-20.435 9.682s17.923 35.852 55.93 54.133l-8.965 5.738S101.1 205.1 88.91 175.346l-20.073 9.678s19.36 36.207 57.36 57.725l-8.603 6.81s-46.606-27.61-59.156-58.8l-21.51 10.756s33.343 46.248 62.38 59.872l-10.752 7.166s-43.025-30.47-62.385-62.016L0 219.084 126.917 328.43H299V105.79z" fill="#004a8f"/><path d="M202.43 251.902s15.194 3.362 15.194 8.474c0 5.12-15.515 14.716-15.515 14.716l.32-23.19zm-21.428 8.474c0-5.112 15.195-8.474 15.195-8.474l.317 23.19s-15.512-9.595-15.512-14.716M257.28 155.95l.162-6.074-36.143 16.79s-4.317.797-5.117 7.675c-.8 6.876-2.717 18.874-13.27 19.35v-4.154h-7.2v4.154c-10.553-.476-12.473-12.474-13.27-19.35-.8-6.877-5.12-7.673-5.12-7.673l-36.14-16.79.16 6.074 29.106 12.313.316 3.037-25.907-8.954.32 4.48 25.43 8.636.318 3.68-21.43-5.76.48 5.276 20.47 4.64v3.038l-16.635-2.562.32 3.683 17.433 2.558 1.12 2.554h-13.11v3.044h17.427l-4.317 6.07 2.72 1.763 3.68-5.6 2.237 1.284-2.237 5.117 2.4 1.28 2.554-5.438 1.762.482-.48 6.07 3.038.322-.16-5.917 2.56.32v5.276h2.558v-5.433h2.08l.957 40.942s-15.673-3.682-19.352-7.04c-3.675-3.36-3.196-8.637 3.84-8.796 0 0 2.56 9.92 8.155 9.116 5.595-.804 2.08-13.594-2.876-15.677-4.957-2.075-19.83-1.596-20.473 9.6-.638 11.194 9.915 14.393 11.994 15.19 2.08.803 9.275 3.203 9.275 3.203s-13.913 5.595-13.913 11.83c0 6.24 12.153 14.393 15.99 16.31 3.842 1.924 6.08 4.162 6.08 4.162s-10.875 8.157-12.154 11.032c-1.28 2.88 1.28 2.88 3.037.96 1.758-1.914 10.874-7.676 10.874-7.676l.642 22.714h3.675l.642-22.714s9.112 5.762 10.875 7.675c1.754 1.92 4.316 1.92 3.037-.958-1.283-2.875-12.153-11.032-12.153-11.032s2.242-2.238 6.075-4.162c3.84-1.917 15.995-10.07 15.995-16.31 0-6.235-13.916-11.83-13.916-11.83s7.2-2.4 9.28-3.204c2.078-.796 12.63-3.995 11.993-15.19-.64-11.195-15.515-11.674-20.473-9.6-4.958 2.084-8.474 14.874-2.88 15.678 5.597.804 8.16-9.116 8.16-9.116 7.032.16 7.515 5.437 3.836 8.795-3.675 3.36-19.352 7.042-19.352 7.042l.962-40.942h2.08v5.433h2.557v-5.275l2.558-.32-.158 5.916 3.037-.32-.483-6.072 1.763-.483 2.558 5.436 2.397-1.28-2.237-5.115 2.237-1.282 3.683 5.6 2.717-1.763-4.317-6.07h17.432v-3.046h-13.115l1.12-2.555 17.432-2.558.32-3.683-16.632 2.562V183.3l20.47-4.642.478-5.275-21.427 5.758.316-3.678 25.427-8.637.324-4.48-25.91 8.955.32-3.037 29.103-12.312z" fill="#f7941e"/><path d="M199.072 187.136c4.86 0 8.798-3.943 8.798-8.795 0-4.86-3.94-8.794-8.798-8.794-4.857 0-8.796 3.935-8.796 8.795 0 4.853 3.94 8.796 8.796 8.796" fill="#f7941e"/><path d="M18.663 22.846c-.924.446-3.116.993-5.89.993-7.98 0-12.092-5-12.092-11.61C.68 4.35 6.3 0 13.288 0c2.705 0 4.76.547 5.686 1.026L17.88 5.14c-1.03-.45-2.503-.857-4.39-.857-4.108 0-7.327 2.497-7.327 7.67 0 4.626 2.74 7.535 7.36 7.535 1.613 0 3.326-.31 4.386-.75l.753 4.108zM34 13.632l-1.438-4.898c-.377-1.37-.788-3.117-1.128-4.452h-.106c-.305 1.37-.683 3.116-1.026 4.452L28.9 13.632H34zm-5.856 3.905l-1.61 5.927H21.12L28.182.377h6.814l7.192 23.087h-5.62l-1.78-5.927h-6.644zM65.134 14.625c-.102-2.774-.203-6.098-.203-9.486h-.067c-.755 2.946-1.713 6.232-2.604 8.938l-2.808 9.006h-4.08L52.91 14.18c-.755-2.74-1.51-5.996-2.09-9.04h-.07c-.105 3.116-.24 6.677-.376 9.553l-.445 8.768H45.1L46.57.378h6.954l2.26 7.74c.755 2.636 1.438 5.515 1.95 8.22h.14c.616-2.67 1.404-5.685 2.193-8.285L62.5.377h6.85l1.233 23.084h-5.07l-.38-8.835zM86.132 13.632l-1.437-4.898c-.378-1.37-.79-3.117-1.132-4.452h-.102c-.31 1.37-.682 3.116-1.025 4.452l-1.408 4.898h5.105zm-5.86 3.905l-1.607 5.927H73.25L80.31.377h6.815l7.19 23.087h-5.613l-1.78-5.927h-6.65zM102.915 10.616h2.052c2.608 0 4.147-1.298 4.147-3.32 0-2.09-1.437-3.185-3.837-3.185-1.268 0-1.985.07-2.362.17v6.336zM97.742.72c1.68-.31 4.147-.514 6.954-.514 3.426 0 5.822.513 7.467 1.845 1.403 1.103 2.158 2.71 2.158 4.834 0 2.913-2.09 4.932-4.074 5.653v.102c1.607.647 2.498 2.157 3.08 4.277.723 2.64 1.406 5.656 1.848 6.547h-5.34c-.343-.653-.927-2.536-1.576-5.38-.65-2.91-1.646-3.665-3.804-3.7h-1.54v9.08h-5.172V.72zM129.897 13.632l-1.438-4.898c-.378-1.37-.79-3.117-1.133-4.452h-.102c-.31 1.37-.683 3.116-1.026 4.452l-1.41 4.898h5.107zm-5.856 3.905l-1.61 5.927h-5.41L124.074.377h6.814l7.19 23.087h-5.614l-1.78-5.927h-6.645zM6.95 57.873c.446.102 1.197.102 1.816.102 4.762.034 7.878-2.57 7.878-8.082 0-4.97-2.81-7.33-7.33-7.33-1.13 0-1.918.104-2.363.203v15.107zM1.745 39.068c1.92-.343 4.42-.513 7.022-.513 4.42 0 7.297.72 9.486 2.4 2.4 1.777 3.905 4.652 3.905 8.764 0 4.418-1.61 7.467-3.8 9.35-2.433 2.022-6.17 2.98-10.685 2.98-2.71 0-4.66-.17-5.928-.343v-22.64zM39.66 52.05h-8.49v5.48h9.485v4.284H25.96V38.726h14.216v4.282H31.17v4.796h8.49v4.245zM68.74 61.195c-.924.445-3.116.992-5.89.992-7.98 0-12.093-5-12.093-11.61 0-7.878 5.62-12.228 12.607-12.228 2.705 0 4.76.546 5.686 1.025l-1.098 4.11c-1.027-.442-2.498-.854-4.385-.854-4.11 0-7.327 2.503-7.327 7.672 0 4.626 2.74 7.535 7.365 7.535 1.607 0 3.32-.306 4.38-.755l.755 4.113zM81.526 58.043c3.527 0 5.55-3.32 5.55-7.844 0-4.144-1.955-7.706-5.55-7.706-3.6 0-5.62 3.494-5.62 7.81 0 4.347 2.092 7.74 5.582 7.74h.038zm-.242 4.147c-6.814 0-10.86-5.173-10.86-11.75 0-6.92 4.457-12.092 11.237-12.092 7.09 0 10.962 5.308 10.962 11.677 0 7.607-4.558 12.165-11.304 12.165h-.034zM115.913 52.975c-.102-2.777-.204-6.097-.204-9.49h-.07c-.753 2.948-1.716 6.234-2.602 8.94l-2.81 9.01h-4.076l-2.468-8.905c-.754-2.743-1.505-5.995-2.086-9.044h-.072c-.102 3.116-.238 6.682-.374 9.557l-.445 8.77h-4.83l1.472-23.09h6.953l2.26 7.744c.75 2.637 1.438 5.516 1.95 8.22h.137c.618-2.67 1.407-5.69 2.196-8.288l2.43-7.676h6.848l1.234 23.088h-5.068l-.377-8.837zM139.444 52.05h-8.493v5.48h9.487v4.284h-14.693V38.726h14.214v4.282h-9.007v4.796h8.495v4.245zM149.514 48.967h2.056c2.604 0 4.143-1.302 4.143-3.32 0-2.09-1.44-3.19-3.833-3.19-1.272 0-1.985.07-2.366.175v6.335zm-5.173-9.9c1.68-.307 4.144-.514 6.955-.514 3.426 0 5.822.513 7.467 1.85 1.403 1.097 2.158 2.708 2.158 4.828 0 2.914-2.09 4.937-4.075 5.653v.106c1.607.648 2.498 2.154 3.08 4.278.72 2.637 1.406 5.652 1.848 6.543h-5.343c-.34-.648-.924-2.535-1.57-5.376-.652-2.913-1.648-3.664-3.807-3.702h-1.54v9.08h-5.172V39.065zM181.78 61.195c-.923.445-3.115.992-5.888.992-7.98 0-12.093-5-12.093-11.61 0-7.878 5.617-12.228 12.6-12.228 2.71 0 4.766.546 5.69 1.025l-1.093 4.11c-1.03-.442-2.502-.854-4.385-.854-4.112 0-7.33 2.503-7.33 7.672 0 4.626 2.738 7.535 7.364 7.535 1.608 0 3.32-.306 4.38-.755l.755 4.113zM190.822 61.813h-5.207V38.725h5.207v23.088zM205.724 58.043c3.532 0 5.55-3.32 5.55-7.844 0-4.144-1.954-7.706-5.55-7.706s-5.618 3.494-5.618 7.81c0 4.347 2.086 7.74 5.584 7.74h.034zm-.242 4.147c-6.814 0-10.855-5.173-10.855-11.75 0-6.92 4.452-12.092 11.237-12.092 7.086 0 10.957 5.308 10.957 11.677 0 7.607-4.553 12.165-11.3 12.165h-.037zM6.95 96.22c.446.102 1.197.102 1.816.102 4.762.038 7.878-2.566 7.878-8.082 0-4.966-2.81-7.33-7.33-7.33-1.13 0-1.918.104-2.363.206V96.22zm-5.206-18.8c1.92-.345 4.42-.515 7.022-.515 4.42 0 7.297.717 9.486 2.396 2.4 1.782 3.905 4.657 3.905 8.77 0 4.418-1.61 7.467-3.8 9.35-2.433 2.02-6.17 2.977-10.685 2.977-2.71 0-4.66-.17-5.928-.34V77.42zM39.66 90.4h-8.49v5.478h9.485v4.28H25.96V77.072h14.216v4.282H31.17v4.796h8.49v4.25zM51.82 100.16V77.074h6.097l4.796 8.46c1.37 2.433 2.705 5.308 3.765 7.91h.068c-.305-3.043-.407-6.164-.407-9.658v-6.712h4.79v23.084h-5.478l-4.932-8.906c-1.37-2.5-2.912-5.444-4.007-8.154h-.14c.174 3.083.242 6.34.242 10.11v6.95H51.82zM81.038 100.16H75.83V77.076h5.208v23.084zM102.82 99.542c-.923.446-3.115.996-5.89.996-7.983 0-12.092-5.003-12.092-11.61 0-7.882 5.62-12.228 12.603-12.228 2.71 0 4.762.543 5.69 1.022l-1.097 4.113c-1.027-.445-2.502-.857-4.385-.857-4.11 0-7.33 2.502-7.33 7.675 0 4.622 2.742 7.535 7.364 7.535 1.61 0 3.324-.31 4.385-.755l.754 4.11zM118.158 90.33l-1.44-4.9c-.38-1.37-.79-3.113-1.13-4.45h-.105c-.306 1.37-.683 3.114-1.027 4.45l-1.403 4.9h5.105zm-5.86 3.906l-1.607 5.924h-5.414l7.056-23.084h6.818l7.192 23.084h-5.615l-1.78-5.924h-6.65zM134.94 87.317h2.056c2.6 0 4.143-1.3 4.143-3.324 0-2.09-1.44-3.184-3.84-3.184-1.266 0-1.983.067-2.36.168v6.34zm-5.174-9.9c1.68-.306 4.147-.514 6.954-.514 3.426 0 5.822.514 7.467 1.85 1.404 1.097 2.16 2.708 2.16 4.83 0 2.912-2.092 4.93-4.076 5.65v.103c1.608.65 2.498 2.158 3.083 4.283.717 2.636 1.404 5.65 1.85 6.537h-5.344c-.344-.65-.925-2.53-1.578-5.373-.65-2.912-1.645-3.667-3.8-3.7h-1.543v9.073h-5.174v-22.74zM161.92 90.33l-1.437-4.9c-.374-1.37-.79-3.113-1.132-4.45h-.1c-.31 1.37-.684 3.114-1.027 4.45l-1.404 4.9h5.1zm-5.852 3.906l-1.615 5.924h-5.407l7.052-23.084h6.815l7.195 23.084h-5.618l-1.78-5.924h-6.642zM191.962 99.097c-1.608.548-4.656 1.302-7.705 1.302-4.215 0-7.263-1.06-9.384-3.083-2.094-2.02-3.252-5.034-3.252-8.426.03-7.67 5.615-12.054 13.184-12.054 2.98 0 5.275.58 6.407 1.094l-1.097 4.215c-1.268-.58-2.807-.996-5.343-.996-4.35 0-7.67 2.47-7.67 7.466 0 4.795 3.01 7.572 7.293 7.572 1.17 0 2.124-.14 2.535-.31v-4.863h-3.56v-4.078h8.594v12.16zM201.587 77.074V90.33c0 4.007 1.543 6.03 4.18 6.03 2.744 0 4.25-1.918 4.25-6.03V77.073h5.206V90.02c0 7.128-3.596 10.52-9.63 10.52-5.817 0-9.21-3.257-9.21-10.588V77.074h5.204zM230.265 90.33l-1.437-4.9c-.378-1.37-.79-3.113-1.132-4.45h-.102c-.306 1.37-.687 3.114-1.03 4.45l-1.4 4.9h5.1zm-5.856 3.906l-1.612 5.924h-5.41l7.055-23.084h6.815l7.19 23.084h-5.613l-1.78-5.924h-6.646zM18.215 300.694h-.06l-3.834 1.826-.773-3.524 5.347-2.475h3.864v20.1h-4.543v-15.926zM36.98 299.37c-1.606 0-2.41 1.074-2.41 2.32 0 1.358 1.208 2.222 2.81 2.72 1.084-.313 2.043-1.302 2.043-2.543 0-1.264-.71-2.498-2.41-2.498h-.032zm.065 14.344c1.638 0 2.75-1.086 2.75-2.51 0-1.76-1.33-2.81-3.153-3.304-1.547.434-2.445 1.543-2.445 2.996-.03 1.452 1.086 2.818 2.814 2.818h.036zm.09-17.53c4.7 0 6.646 2.717 6.646 5.162 0 1.728-.924 3.43-2.935 4.418v.095c1.98.738 3.713 2.413 3.713 4.975 0 3.65-3.06 6.124-7.73 6.124-5.103 0-7.45-2.876-7.45-5.6 0-2.41 1.39-4.075 3.585-5.04v-.06c-1.947-1.016-2.905-2.658-2.905-4.416 0-3.403 3.06-5.66 7.048-5.66h.03zM54.2 299.613c-1.572 0-2.75 1.422-2.75 3.52 0 1.736.96 3.218 2.846 3.218 1.328 0 2.196-.583 2.66-1.297.15-.305.215-.615.215-1.207.03-2.128-.803-4.233-2.935-4.233H54.2zm-5.594 13.606c.618.085 1.113.06 2.04 0 1.454-.062 2.906-.496 3.99-1.243 1.327-.86 2.195-2.196 2.535-3.705l-.063-.034c-.925.928-2.227 1.45-4.08 1.45-3.4 0-6.244-2.344-6.244-6.272 0-3.924 3.155-7.233 7.573-7.233 5.165 0 7.607 3.958 7.607 8.652 0 4.21-1.33 7.24-3.494 9.25-1.918 1.763-4.578 2.692-7.73 2.812-.772.06-1.576.027-2.134 0v-3.678zM64.652 316.62v-2.848l2.57-2.316c4.418-3.954 6.55-6.215 6.583-8.565 0-1.64-.962-2.94-3.278-2.94-1.732 0-3.245.865-4.298 1.64l-1.33-3.34c1.484-1.14 3.864-2.064 6.555-2.064 4.577 0 7.048 2.652 7.048 6.3 0 3.374-2.41 6.064-5.347 8.66L71.3 312.69v.06h7.607v3.87H64.652z" fill="#214290"/><path d="M312.124 216.628v-10.055h8.656v-42.6h-9.196v-10.05h22.99v52.65h8.203v10.055h-30.653zM390.757 198.413l-.544 18.213h-40.16c0-5.47.444-9.708 1.327-12.715.887-3.002 2.347-5.915 4.373-8.74 2.03-2.828 4.864-5.922 8.5-9.29 4.778-4.385 7.925-7.608 9.442-9.668 1.516-2.056 2.275-4.377 2.275-6.965 0-1.92-.57-3.51-1.71-4.754-1.143-1.245-2.57-1.872-4.286-1.872-2.494 0-4.33 1.03-5.52 3.092-1.188 2.056-1.87 5.418-2.05 10.074l-11.495-.54c0-6.044.9-10.595 2.704-13.662 1.803-3.064 4.252-5.286 7.346-6.667 3.098-1.38 6.46-2.072 10.097-2.072 5.98 0 10.678 1.65 14.09 4.958 3.41 3.302 5.112 7.418 5.112 12.35 0 2.64-.514 5.082-1.552 7.323-1.038 2.238-2.347 4.12-3.924 5.634-1.577 1.52-4.366 3.705-8.36 6.56-6.012 4.3-9.78 7.71-11.317 10.23-1.532 2.528-2.434 4.75-2.702 6.675h18.3v-8.162h10.052zM415.028 207.248c3.215 0 5.245-2.55 6.086-7.663.845-5.11 1.26-9.935 1.26-14.466 0-7.272-.562-12.785-1.686-16.524-1.13-3.743-2.985-5.614-5.566-5.614-2.618 0-4.482 1.917-5.595 5.75-1.11 3.83-1.664 9.308-1.664 16.428 0 7.27.558 12.772 1.686 16.496 1.13 3.732 2.954 5.592 5.478 5.592m.094 10.188c-7.007 0-12.35-2.773-16.028-8.316-3.683-5.547-5.524-13.546-5.524-24 0-10.253 1.8-18.192 5.388-23.825 3.588-5.64 8.976-8.452 16.164-8.452 7.146 0 12.527 2.8 16.134 8.403 3.607 5.607 5.407 13.56 5.407 23.873 0 10.484-1.845 18.49-5.543 24.022-3.694 5.532-9.03 8.294-15.998 8.294M330.57 277.275c-1.94-1.215-3.495-1.823-4.653-1.823-.917 0-1.75.268-2.506.808-.753.536-1.13 1.313-1.13 2.335 0 .92.3 1.706.913 2.362.6.664 1.38.993 2.335.993 1.49 0 3.17-.876 5.04-2.63v-2.045zm12.08 3.505v5.796h-12.08v-1.99c-2.167 1.567-4.453 2.352-6.86 2.352-2.495 0-4.65-.71-6.46-2.132-1.808-1.42-2.71-3.324-2.71-5.716 0-2.408.948-4.422 2.857-6.052 1.905-1.63 4.362-2.442 7.376-2.442 1.683 0 3.615.423 5.796 1.272v-1.532c0-1.283-.435-2.336-1.303-3.162-.864-.82-2.026-1.23-3.48-1.23-1.802 0-3.342.657-4.624 1.973l-6.47-1.17c1.87-3.965 5.934-5.95 12.186-5.95 2.425 0 4.436.276 6.028.82 1.593.546 2.78 1.252 3.558 2.12.78.864 1.33 1.815 1.65 2.845.32 1.03.482 2.705.482 5.026v9.172h4.053zM366.542 250.093h3.69v.626c0 2.04-.547 3.856-1.637 5.43-1.09 1.572-2.555 2.365-4.388 2.365-.68 0-1.28-.106-1.808-.302-.533-.2-1.502-.653-2.925-1.362-1.732-.882-2.92-1.324-3.558-1.324-1.34 0-2.037.932-2.105 2.804h-3.898c0-2.615.6-4.656 1.792-6.13 1.196-1.473 2.573-2.216 4.132-2.216 1.056 0 2.38.41 3.977 1.23 2.335 1.21 3.826 1.815 4.467 1.815.574 0 1.083-.28 1.536-.847.45-.558.69-1.256.724-2.09m-21.775 17.123v-5.792h11.878v2.34c2.426-1.823 4.883-2.73 7.373-2.73 5.082 0 7.618 3.24 7.618 9.72v10.026h3.792v5.796h-11.82V271.35c0-1.372-.186-2.304-.56-2.806-.37-.506-.985-.755-1.83-.755-1.49 0-3.014.542-4.573 1.633v11.357h3.87v5.796h-15.748v-5.796h3.85v-13.564h-3.85zM390.827 280.91c1.486 0 2.694-.573 3.622-1.716.927-1.143 1.387-2.935 1.387-5.376 0-2.15-.45-3.83-1.35-5.03-.9-1.204-2.12-1.807-3.66-1.807-3.313 0-4.966 2.393-4.966 7.17 0 1.962.412 3.576 1.235 4.852.826 1.268 2.068 1.91 3.732 1.91m.026 6.232c-3.71 0-6.84-1.173-9.395-3.52-2.555-2.343-3.834-5.562-3.834-9.652 0-4.086 1.28-7.305 3.834-9.655 2.554-2.347 5.686-3.52 9.395-3.52 3.72 0 6.856 1.173 9.403 3.52 2.546 2.35 3.818 5.57 3.818 9.655 0 4.037-1.26 7.24-3.78 9.618-2.517 2.366-5.668 3.554-9.44 3.554M408.66 286.576v-8.65h5.876c.053 1.172.596 2.115 1.634 2.817 1.04.702 2.324 1.045 3.844 1.045 1.32 0 2.344-.226 3.083-.686.736-.457 1.102-1.042 1.102-1.75 0-.66-.337-1.17-1.012-1.537-.676-.362-2-.705-3.977-1.037-4.07-.665-7.006-1.664-8.806-3.008-1.803-1.343-2.705-3.12-2.705-5.335 0-2.083.848-3.833 2.546-5.26 1.698-1.426 3.95-2.143 6.757-2.143 2.268 0 4.39.423 6.362 1.26v-.87h5.747v7.3h-5.747c-.513-1.75-2.35-2.622-5.505-2.622-2.32 0-3.48.64-3.48 1.92 0 .487.24.853.71 1.102.48.256 1.695.554 3.653.902 3.1.535 5.422 1.07 6.965 1.61 1.543.533 2.777 1.423 3.705 2.66.925 1.242 1.39 2.725 1.39 4.457 0 2.46-.884 4.476-2.64 6.042-1.757 1.57-4.247 2.354-7.47 2.354-3 0-5.048-.61-6.157-1.834v1.264h-5.875z" fill="#a7a9ac"/><path d="M314.566 213.73v-10.055h8.66V161.08h-9.2v-10.055h22.994v52.65h8.202v10.056h-30.656zM393.2 195.516l-.54 18.213h-40.164c0-5.472.445-9.71 1.33-12.712.884-3.008 2.345-5.92 4.37-8.746 2.03-2.827 4.864-5.917 8.502-9.286 4.776-4.388 7.927-7.61 9.44-9.667 1.52-2.06 2.275-4.382 2.275-6.97 0-1.92-.57-3.505-1.71-4.754-1.142-1.245-2.568-1.872-4.285-1.872-2.49 0-4.332 1.03-5.517 3.09-1.19 2.057-1.87 5.42-2.05 10.075l-11.498-.54c0-6.04.902-10.596 2.705-13.66 1.804-3.067 4.253-5.29 7.347-6.674 3.097-1.38 6.46-2.075 10.097-2.075 5.985 0 10.68 1.657 14.09 4.962 3.414 3.306 5.112 7.422 5.112 12.354 0 2.64-.513 5.086-1.55 7.323-1.038 2.237-2.347 4.12-3.925 5.636-1.577 1.517-4.365 3.702-8.357 6.554-6.01 4.298-9.788 7.71-11.316 10.237-1.532 2.52-2.437 4.743-2.705 6.67h18.3v-8.16h10.05zM417.47 204.35c3.216 0 5.246-2.553 6.09-7.662.84-5.105 1.26-9.93 1.26-14.466 0-7.275-.56-12.78-1.69-16.523-1.13-3.744-2.984-5.615-5.568-5.615-2.615 0-4.48 1.916-5.588 5.75-1.113 3.83-1.668 9.308-1.668 16.428 0 7.275.562 12.772 1.687 16.5 1.132 3.724 2.954 5.588 5.478 5.588m.092 10.19c-7.003 0-12.346-2.77-16.02-8.317-3.687-5.543-5.53-13.546-5.53-24 0-10.253 1.8-18.192 5.39-23.83 3.592-5.632 8.976-8.45 16.16-8.45 7.15 0 12.53 2.803 16.14 8.406 3.605 5.602 5.408 13.564 5.408 23.872 0 10.485-1.848 18.492-5.546 24.023-3.694 5.532-9.033 8.294-16.002 8.294M333.01 274.374c-1.94-1.215-3.49-1.815-4.648-1.815-.92 0-1.754.263-2.51.8-.754.54-1.127 1.316-1.127 2.342 0 .917.302 1.702.91 2.362.603.657 1.384.985 2.338.985 1.487 0 3.174-.876 5.038-2.623v-2.053zm12.086 3.513v5.788H333.01v-1.985c-2.165 1.566-4.452 2.35-6.86 2.35-2.493 0-4.644-.708-6.455-2.13-1.81-1.42-2.713-3.325-2.713-5.714 0-2.41.95-4.43 2.857-6.055 1.908-1.633 4.364-2.448 7.38-2.448 1.678 0 3.61.434 5.79 1.28v-1.537c0-1.28-.43-2.332-1.297-3.158-.868-.82-2.027-1.234-3.48-1.234-1.803 0-3.342.66-4.625 1.977l-6.467-1.17c1.872-3.965 5.928-5.95 12.184-5.95 2.426 0 4.43.272 6.026.823 1.592.543 2.78 1.25 3.562 2.113.777.872 1.328 1.815 1.645 2.85.324 1.03.487 2.7.487 5.02v9.18h4.052zM368.986 247.196h3.69v.626c0 2.045-.547 3.853-1.638 5.43-1.09 1.577-2.554 2.362-4.388 2.362-.675 0-1.28-.098-1.807-.298-.528-.193-1.502-.653-2.92-1.362-1.736-.887-2.925-1.325-3.563-1.325-1.335 0-2.037.93-2.105 2.8h-3.898c0-2.612.6-4.657 1.796-6.132 1.193-1.468 2.57-2.204 4.128-2.204 1.058 0 2.386.408 3.982 1.22 2.332 1.214 3.822 1.818 4.464 1.818.573 0 1.082-.28 1.53-.842.454-.566.696-1.264.73-2.094m-21.77 17.12v-5.79h11.87v2.336c2.43-1.818 4.885-2.724 7.38-2.724 5.078 0 7.613 3.24 7.613 9.712v10.037h3.795v5.788H366.05v-15.22c0-1.37-.185-2.31-.558-2.812-.374-.502-.985-.75-1.83-.75-1.49 0-3.015.546-4.577 1.633v11.36h3.875v5.79h-15.745v-5.79h3.844v-13.57h-3.845zM393.272 278.01c1.49 0 2.69-.566 3.622-1.717.928-1.14 1.39-2.935 1.39-5.373 0-2.147-.45-3.822-1.352-5.03-.898-1.203-2.124-1.807-3.66-1.807-3.313 0-4.966 2.39-4.966 7.173 0 1.958.412 3.573 1.234 4.845.823 1.276 2.064 1.91 3.732 1.91m.023 6.237c-3.706 0-6.84-1.174-9.392-3.52-2.554-2.347-3.837-5.562-3.837-9.652 0-4.09 1.283-7.31 3.837-9.652 2.55-2.347 5.686-3.52 9.39-3.52 3.726 0 6.86 1.173 9.408 3.52 2.548 2.343 3.82 5.562 3.82 9.652 0 4.037-1.26 7.24-3.78 9.61-2.522 2.377-5.67 3.562-9.445 3.562M411.106 283.674v-8.652h5.875c.05 1.18.594 2.12 1.635 2.822 1.04.702 2.32 1.05 3.845 1.05 1.32 0 2.343-.227 3.08-.688.734-.456 1.104-1.04 1.104-1.754 0-.657-.336-1.166-1.01-1.532-.68-.366-2.005-.713-3.978-1.038-4.07-.667-7.01-1.667-8.806-3.007-1.804-1.34-2.706-3.12-2.706-5.34 0-2.074.85-3.83 2.547-5.255 1.7-1.43 3.952-2.143 6.755-2.143 2.268 0 4.392.415 6.37 1.257v-.868h5.742v7.3h-5.743c-.52-1.75-2.354-2.625-5.51-2.625-2.32 0-3.477.642-3.477 1.925 0 .487.237.85.71 1.105.474.25 1.693.548 3.65.895 3.103.535 5.42 1.08 6.963 1.607 1.547.54 2.777 1.426 3.7 2.668.93 1.24 1.397 2.724 1.397 4.456 0 2.46-.883 4.47-2.637 6.04-1.758 1.566-4.253 2.35-7.47 2.35-3 0-5.05-.61-6.16-1.833v1.26h-5.874z" fill="#004a8f"/><path d="M311.9 259.627v-18.83s59.634-41.253 138.1-8.072c0 0-67.253-18.383-138.1 26.902" fill="#f7941e"/><path d="M1.968 376.363v-5.497h2.735c.03 1.003.295 1.747.79 2.222.493.476 1.06.713 1.693.713.494 0 .913-.172 1.253-.516.338-.343.508-.747.508-1.21 0-.495-.166-.91-.498-1.246-.332-.336-.94-.72-1.822-1.15-1.868-.895-3.132-1.69-3.8-2.382-.668-.69-1-1.618-1-2.784 0-1.41.442-2.506 1.324-3.275.88-.778 1.88-1.166 3-1.166 1.287 0 2.28.503 2.98 1.503v-1.34h2.725v4.905H9.133c-.083-.754-.343-1.343-.78-1.754-.44-.415-.948-.623-1.525-.623-.45 0-.83.122-1.136.363-.313.238-.464.55-.464.94 0 .332.124.645.38.943.257.298 1 .72 2.242 1.264 1.192.532 2.105 1.01 2.743 1.44.634.432 1.14.99 1.51 1.673.37.683.554 1.475.554 2.373 0 1.596-.464 2.792-1.388 3.6-.93.804-2.028 1.207-3.295 1.207-1.415 0-2.506-.524-3.272-1.573v1.373H1.968zM15.546 361.92c0-.54.193-1 .574-1.388.38-.385.845-.577 1.384-.577.55 0 1.015.192 1.393.577.377.39.57.85.57 1.39 0 .538-.193 1-.574 1.38-.385.38-.845.573-1.39.573-.53 0-.99-.192-1.376-.577-.388-.39-.58-.845-.58-1.377m-1.578 5.804v-2.585h5.285v8.636h1.672v2.588H13.97v-2.588h1.704v-6.052H13.97zM29.438 373.778v2.585H21.54v-2.585h2.076v-6.052H21.67v-2.585h5.23v2.854c.2-.823.66-1.532 1.373-2.128.716-.6 1.558-.902 2.53-.902.164 0 .36.004.582.01v3.39c-.9 0-1.64.1-2.214.3-.57.2-1.04.643-1.414 1.322-.37.683-.555 1.487-.555 2.41v1.382h2.238zM38.228 376.526l-3.792-8.803h-1.622v-2.585h6.806v2.585h-1.396l1.76 5.11 2.062-5.11H40.57v-2.585h5.948v2.585h-1.6l-3.64 8.803h-3.05zM48.572 361.92c0-.54.193-1 .574-1.388.38-.385.845-.577 1.385-.577.552 0 1.016.192 1.393.577.377.39.57.85.57 1.39 0 .538-.193 1-.574 1.38-.386.38-.846.573-1.39.573-.53 0-.992-.192-1.376-.577-.39-.39-.582-.845-.582-1.377m-1.577 5.804v-2.585h5.286v8.636h1.673v2.588h-6.958v-2.588H48.7v-6.052h-1.705zM63.136 369.5c-.083-.627-.33-1.163-.736-1.6-.408-.442-.958-.665-1.664-.665-1.313 0-2.08.76-2.298 2.264h4.698zm.683 3.478l2.783.894c-1.166 1.83-2.992 2.747-5.47 2.747-1.982 0-3.525-.522-4.634-1.567-1.11-1.04-1.665-2.415-1.665-4.116 0-1.732.57-3.177 1.717-4.336 1.143-1.16 2.6-1.742 4.37-1.742 1.282 0 2.39.328 3.327.977.934.65 1.583 1.457 1.946 2.423.366.966.547 2.045.547 3.233h-8.36c.05 1.024.376 1.748.968 2.17.594.427 1.216.642 1.873.642.856 0 1.724-.44 2.596-1.324M67.914 367.725v-2.585h5.302v1.04c1.08-.81 2.177-1.213 3.29-1.213 2.267 0 3.4 1.445 3.4 4.335v4.475h1.69v2.584H76.32v-6.79c0-.61-.082-1.03-.248-1.253-.166-.226-.438-.336-.815-.336-.668 0-1.347.243-2.04.73v5.067h1.723v2.584h-7.026v-2.583h1.717v-6.052h-1.716zM90.47 370.728c0-1.072-.23-1.838-.69-2.298-.462-.453-.986-.68-1.57-.68-.707 0-1.25.27-1.63.816-.386.543-.575 1.264-.575 2.15 0 .842.19 1.55.566 2.128.383.578.93.864 1.65.864.596 0 1.117-.233 1.57-.7.453-.47.68-1.228.68-2.28m5.39 3.048v2.59h-5.425v-1.34c-.996 1-2.08 1.5-3.25 1.5-1.398 0-2.557-.57-3.477-1.704-.917-1.136-1.378-2.513-1.378-4.128 0-1.638.468-3.02 1.415-4.147.944-1.124 2.094-1.687 3.453-1.687 1.31 0 2.384.51 3.237 1.53v-3.57h-1.75v-2.585h5.33v13.54h1.846zM102.6 373.835c.663 0 1.203-.253 1.618-.763.41-.513.618-1.31.618-2.4 0-.958-.2-1.71-.603-2.244-.4-.54-.947-.808-1.634-.808-1.476 0-2.216 1.068-2.216 3.204 0 .87.185 1.592.55 2.158.367.57.922.853 1.665.853m.01 2.784c-1.656 0-3.052-.522-4.192-1.57-1.14-1.05-1.71-2.487-1.71-4.31 0-1.826.57-3.26 1.71-4.308 1.14-1.046 2.536-1.574 4.192-1.574 1.66 0 3.06.528 4.196 1.574 1.14 1.05 1.705 2.482 1.705 4.31 0 1.798-.56 3.232-1.685 4.29-1.124 1.06-2.528 1.587-4.215 1.587M122.522 372.213c-.864-.54-1.56-.81-2.076-.81-.41 0-.78.12-1.12.357-.336.242-.502.59-.502 1.045 0 .408.132.762.404 1.053.27.294.618.44 1.045.44.664 0 1.415-.387 2.25-1.172v-.913zm5.39 1.566v2.583h-5.39v-.886c-.966.698-1.99 1.05-3.06 1.05-1.114 0-2.076-.318-2.883-.952-.81-.634-1.212-1.483-1.212-2.55 0-1.076.426-1.978 1.275-2.703.85-.728 1.947-1.09 3.294-1.09.75 0 1.61.192 2.585.57v-.687c0-.57-.193-1.038-.58-1.407-.386-.366-.903-.55-1.552-.55-.804 0-1.494.293-2.068.882l-2.886-.525c.837-1.77 2.648-2.656 5.44-2.656 1.083 0 1.978.123 2.69.365.71.245 1.238.562 1.59.947.346.385.592.81.735 1.268.144.46.216 1.207.216 2.245v4.094h1.807zM128.644 376.363v-2.584h1.762v-10.962h-1.762v-2.585h5.347v13.546h1.612v2.583h-6.958zM142.55 376.363v-3.86h2.62c.024.525.265.944.73 1.257.463.313 1.037.47 1.716.47.59 0 1.045-.104 1.373-.308.328-.204.494-.464.494-.78 0-.295-.15-.522-.453-.684-.3-.162-.893-.317-1.772-.468-1.82-.294-3.128-.74-3.932-1.34-.804-.595-1.207-1.392-1.207-2.38 0-.928.38-1.713 1.138-2.347.755-.638 1.762-.958 3.015-.958 1.01 0 1.958.188 2.84.562v-.39h2.563v3.26h-2.562c-.234-.78-1.053-1.172-2.46-1.172-1.038 0-1.555.286-1.555.86 0 .215.105.38.32.49.21.114.755.25 1.63.404 1.38.237 2.42.475 3.105.716.687.242 1.238.638 1.653 1.19.415.553.623 1.217.623 1.987 0 1.098-.396 1.996-1.18 2.698-.782.7-1.895 1.05-3.332 1.05-1.336 0-2.253-.272-2.747-.82v.563h-2.62zM162.006 369.5c-.083-.627-.328-1.163-.735-1.6-.407-.442-.958-.665-1.663-.665-1.313 0-2.08.76-2.298 2.264h4.696zm.683 3.478l2.784.894c-1.166 1.83-2.992 2.747-5.47 2.747-1.982 0-3.525-.522-4.635-1.567-1.11-1.04-1.665-2.415-1.665-4.116 0-1.732.57-3.177 1.717-4.336 1.144-1.16 2.6-1.742 4.37-1.742 1.282 0 2.392.328 3.327.977.935.65 1.584 1.457 1.946 2.423.366.966.548 2.045.548 3.233h-8.362c.053 1.024.378 1.748.97 2.17.592.427 1.215.642 1.87.642.858 0 1.726-.44 2.597-1.324M178.38 365.14v4.557h-2.55c-.582-1.252-1.487-1.88-2.725-1.88-.788 0-1.42.262-1.886.782-.47.52-.7 1.218-.7 2.093 0 1.06.246 1.842.74 2.35.494.503 1.102.756 1.822.756.57 0 1.114-.164 1.623-.492.51-.328.92-.762 1.23-1.302l2.78 1.22c-1.033 2.263-2.852 3.39-5.448 3.39-1.958 0-3.516-.53-4.678-1.6-1.167-1.063-1.748-2.493-1.748-4.274 0-1.788.57-3.195 1.713-4.23 1.14-1.03 2.467-1.546 3.98-1.546 1.215 0 2.347.366 3.4 1.102v-.93h2.445zM179.286 367.725v-2.585h1.427v-1.762l3.584-2.577v4.34h2.064v2.585h-2.063v4.867c0 .442.053.74.166.89.113.15.37.227.77.227.336 0 .71-.08 1.128-.23v2.478c-.92.377-1.822.57-2.7.57-1.966 0-2.947-.978-2.947-2.93v-5.873h-1.427zM193.328 373.835c.664 0 1.204-.253 1.62-.763.41-.513.618-1.31.618-2.4 0-.958-.2-1.71-.6-2.244-.404-.54-.95-.808-1.638-.808-1.475 0-2.214 1.068-2.214 3.204 0 .87.184 1.592.55 2.158.366.57.925.853 1.664.853m.012 2.784c-1.653 0-3.053-.522-4.192-1.57-1.14-1.05-1.71-2.487-1.71-4.31 0-1.826.57-3.26 1.71-4.308 1.14-1.046 2.54-1.574 4.192-1.574 1.664 0 3.06.528 4.195 1.574 1.14 1.05 1.706 2.482 1.706 4.31 0 1.798-.56 3.232-1.686 4.29-1.124 1.06-2.528 1.587-4.214 1.587M208.207 373.778v2.585h-7.897v-2.585h2.075v-6.052h-1.947v-2.585h5.23v2.854c.2-.823.66-1.532 1.373-2.128.718-.6 1.56-.902 2.537-.902.158 0 .354.004.577.01v3.39c-.906 0-1.64.1-2.215.3-.57.2-1.042.643-1.416 1.322-.37.683-.558 1.487-.558 2.41v1.382h2.24zM227.746 365.14v4.557h-2.55c-.578-1.252-1.487-1.88-2.725-1.88-.787 0-1.417.262-1.88.782-.47.52-.703 1.218-.703 2.093 0 1.06.245 1.842.74 2.35.494.503 1.1.756 1.822.756.57 0 1.112-.164 1.62-.492.51-.328.922-.762 1.23-1.302l2.782 1.22c-1.034 2.263-2.852 3.39-5.448 3.39-1.955 0-3.517-.53-4.68-1.6-1.165-1.063-1.746-2.493-1.746-4.274 0-1.788.57-3.195 1.713-4.23 1.14-1.03 2.47-1.546 3.982-1.546 1.215 0 2.347.366 3.4 1.102v-.93h2.444zM234.996 373.835c.664 0 1.203-.253 1.618-.763.412-.513.62-1.31.62-2.4 0-.958-.205-1.71-.605-2.244-.4-.54-.948-.808-1.634-.808-1.48 0-2.215 1.068-2.215 3.204 0 .87.186 1.592.552 2.158.366.57.92.853 1.664.853m.01 2.784c-1.655 0-3.052-.522-4.19-1.57-1.14-1.05-1.71-2.487-1.71-4.31 0-1.826.57-3.26 1.71-4.308 1.138-1.046 2.535-1.574 4.19-1.574 1.66 0 3.06.528 4.197 1.574 1.135 1.05 1.705 2.482 1.705 4.31 0 1.798-.562 3.232-1.686 4.29-1.125 1.06-2.528 1.587-4.215 1.587M242.022 367.725v-2.585h5.437v.913c1.222-.724 2.437-1.086 3.644-1.086 1.445 0 2.566.51 3.362 1.528 1.445-1.02 2.958-1.528 4.53-1.528.937 0 1.7.17 2.28.516.585.344.985.804 1.2 1.385.215.577.328 1.457.328 2.63v4.28h1.853v2.583h-5.437v-6.57c0-1.175-.506-1.763-1.52-1.763-.797 0-1.657.256-2.585.765v4.985h1.856v2.584h-5.44v-6.466c0-1.245-.486-1.867-1.46-1.867-.758 0-1.626.256-2.61.765v4.985h1.855v2.584h-7.293v-2.583h1.856v-6.052h-1.856zM273.586 369.5c-.083-.627-.328-1.163-.736-1.6-.407-.442-.958-.665-1.664-.665-1.313 0-2.078.76-2.297 2.264h4.696zm.683 3.478l2.784.894c-1.166 1.83-2.992 2.747-5.47 2.747-1.982 0-3.53-.522-4.64-1.567-1.104-1.04-1.66-2.415-1.66-4.116 0-1.732.57-3.177 1.714-4.336 1.147-1.16 2.604-1.742 4.373-1.742 1.284 0 2.394.328 3.33.977.935.65 1.584 1.457 1.946 2.423.366.966.547 2.045.547 3.233h-8.36c.052 1.024.376 1.748.97 2.17.59.427 1.214.642 1.87.642.86 0 1.725-.44 2.596-1.324M286.053 373.778v2.585h-7.897v-2.585h2.075v-6.052h-1.945v-2.585h5.23v2.854c.2-.823.656-1.532 1.373-2.128.716-.6 1.562-.902 2.535-.902.162 0 .355.004.58.01v3.39c-.904 0-1.644.1-2.214.3-.574.2-1.046.643-1.42 1.322-.37.683-.554 1.487-.554 2.41v1.382h2.237zM300.133 365.14v4.557h-2.554c-.58-1.252-1.488-1.88-2.722-1.88-.79 0-1.42.262-1.886.782-.468.52-.702 1.218-.702 2.093 0 1.06.25 1.842.743 2.35.494.503 1.102.756 1.82.756.572 0 1.116-.164 1.62-.492.514-.328.922-.762 1.23-1.302l2.786 1.22c-1.04 2.263-2.858 3.39-5.453 3.39-1.955 0-3.513-.53-4.675-1.6-1.166-1.063-1.747-2.493-1.747-4.274 0-1.788.57-3.195 1.71-4.23 1.142-1.03 2.467-1.546 3.983-1.546 1.212 0 2.343.366 3.396 1.102v-.93h2.45zM303.16 361.92c0-.54.19-1 .572-1.388.38-.385.845-.577 1.385-.577.55 0 1.01.192 1.396.577.377.39.566.85.566 1.39 0 .538-.193 1-.575 1.38-.384.38-.845.573-1.388.573-.532 0-.992-.192-1.377-.577-.39-.39-.58-.845-.58-1.377m-1.58 5.804v-2.585h5.288v8.636h1.67v2.588h-6.957v-2.588h1.707v-6.052h-1.706zM315.312 373.835c.664 0 1.204-.253 1.615-.763.415-.513.62-1.31.62-2.4 0-.958-.197-1.71-.6-2.244-.4-.54-.948-.808-1.635-.808-1.48 0-2.215 1.068-2.215 3.204 0 .87.185 1.592.55 2.158.367.57.922.853 1.665.853m.012 2.784c-1.653 0-3.053-.522-4.192-1.57-1.14-1.05-1.71-2.487-1.71-4.31 0-1.826.57-3.26 1.71-4.308 1.14-1.046 2.54-1.574 4.192-1.574 1.66 0 3.06.528 4.195 1.574 1.135 1.05 1.705 2.482 1.705 4.31 0 1.798-.562 3.232-1.687 4.29-1.124 1.06-2.532 1.587-4.214 1.587M330.05 381.432v-2.585h2.155l.748-2-4.087-9.123h-1.622v-2.585h6.723v2.584h-1.32l1.87 5.056 1.99-5.056h-1.46v-2.585h5.9v2.584h-1.6l-5.38 13.708h-3.916zM347.595 376.363v-3.86h2.618c.023.525.268.944.732 1.257.464.313 1.038.47 1.713.47.593 0 1.05-.104 1.377-.308.33-.204.495-.464.495-.78 0-.295-.15-.522-.457-.684-.298-.162-.89-.317-1.77-.468-1.818-.294-3.127-.74-3.93-1.34-.81-.595-1.21-1.392-1.21-2.38 0-.928.38-1.713 1.137-2.347.76-.638 1.762-.958 3.015-.958 1.015 0 1.962.188 2.84.562v-.39h2.563v3.26h-2.562c-.234-.78-1.05-1.172-2.456-1.172-1.038 0-1.555.286-1.555.86 0 .215.106.38.317.49.215.114.76.25 1.634.404 1.38.237 2.42.475 3.105.716.688.242 1.24.638 1.654 1.19.41.553.62 1.217.62 1.987 0 1.098-.394 1.996-1.18 2.698-.783.7-1.893 1.05-3.33 1.05-1.34 0-2.257-.272-2.75-.82v.563h-2.62zM367.052 369.5c-.083-.627-.328-1.163-.735-1.6-.408-.442-.963-.665-1.668-.665-1.314 0-2.08.76-2.295 2.264h4.697zm.683 3.478l2.785.894c-1.17 1.83-2.992 2.747-5.475 2.747-1.98 0-3.524-.522-4.633-1.567-1.11-1.04-1.664-2.415-1.664-4.116 0-1.732.573-3.177 1.716-4.336 1.144-1.16 2.6-1.742 4.373-1.742 1.283 0 2.393.328 3.328.977.936.65 1.585 1.457 1.947 2.423.363.966.547 2.045.547 3.233h-8.362c.053 1.024.377 1.748.966 2.17.592.427 1.215.642 1.875.642.856 0 1.72-.44 2.595-1.324M379.514 373.778v2.585h-7.894v-2.585h2.072v-6.052h-1.947v-2.585h5.23v2.854c.2-.823.66-1.532 1.373-2.128.717-.6 1.562-.902 2.536-.902.162 0 .354.004.58.01v3.39c-.905 0-1.645.1-2.214.3-.574.2-1.045.643-1.415 1.322-.374.683-.56 1.487-.56 2.41v1.382h2.24zM388.305 376.526l-3.792-8.803h-1.622v-2.585h6.808v2.585h-1.396l1.758 5.11 2.06-5.11h-1.472v-2.585h5.947v2.585h-1.6l-3.64 8.803h-3.05zM398.65 361.92c0-.54.19-1 .572-1.388.38-.385.845-.577 1.385-.577.55 0 1.015.192 1.396.577.377.39.566.85.566 1.39 0 .538-.193 1-.575 1.38-.384.38-.845.573-1.388.573-.532 0-.992-.192-1.377-.577-.39-.39-.58-.845-.58-1.377m-1.58 5.804v-2.585h5.288v8.636h1.67v2.588h-6.957v-2.588h1.707v-6.052h-1.706zM416.447 365.14v4.557h-2.55c-.58-1.252-1.487-1.88-2.725-1.88-.788 0-1.418.262-1.886.782-.468.52-.702 1.218-.702 2.093 0 1.06.25 1.842.743 2.35.495.503 1.102.756 1.823.756.57 0 1.113-.164 1.622-.492.51-.328.917-.762 1.227-1.302l2.783 1.22c-1.034 2.263-2.852 3.39-5.448 3.39-1.96 0-3.517-.53-4.68-1.6-1.165-1.063-1.746-2.493-1.746-4.274 0-1.788.57-3.195 1.708-4.23 1.144-1.03 2.472-1.546 3.985-1.546 1.215 0 2.347.366 3.396 1.102v-.93h2.447zM419.474 361.92c0-.54.193-1 .574-1.388.38-.385.845-.577 1.385-.577.55 0 1.01.192 1.392.577.38.39.57.85.57 1.39 0 .538-.193 1-.577 1.38-.382.38-.842.573-1.385.573-.532 0-.993-.192-1.377-.577-.39-.39-.582-.845-.582-1.377m-1.577 5.804v-2.585h5.286v8.636h1.672v2.588h-6.958v-2.588h1.706v-6.052h-1.706zM431.628 373.835c.664 0 1.204-.253 1.615-.763.415-.513.62-1.31.62-2.4 0-.958-.197-1.71-.6-2.244-.4-.54-.948-.808-1.635-.808-1.48 0-2.215 1.068-2.215 3.204 0 .87.18 1.592.55 2.158.367.57.922.853 1.665.853m.008 2.784c-1.652 0-3.05-.522-4.188-1.57-1.14-1.05-1.713-2.487-1.713-4.31 0-1.826.573-3.26 1.713-4.308 1.14-1.046 2.536-1.574 4.188-1.574 1.664 0 3.064.528 4.2 1.574 1.135 1.05 1.705 2.482 1.705 4.31 0 1.798-.56 3.232-1.685 4.29-1.125 1.06-2.532 1.587-4.22 1.587" fill="#004a8f"/></svg>