<svg xmlns="http://www.w3.org/2000/svg" width="400" height="153.823"><path d="M11.677 59.714v20.2h11.065v-4.92c-.295-4.63 5.656-4.548 5.183 0v10.1H3.51c-4.724.302-4.626-5.67 0-5.18H6.5v-20.2H3.51l-.88-.09c-3.335.03-3.64-4.88 0-5.09h12.033c3.95-.416 4.622 4.056 1.583 5.005l-.706.084-.877.09h-2.986zm27.53 9.55v15.83h-4.434c-4.32.297-4.59-4.997-.7-5.18h.874l4.26-10.65zm0-14.73v5.13l-.392-.04c-3.305.002-3.41-4.502-.706-4.915l.705-.175h.393zm0-48.3v5.1l-.04-.003-.53.088c-3.616.344-5.277 4.895-5.445 7.99l-.087 1.053v5.71c-.004 3.05 1.487 8.308 5.004 8.958l.526.085h.572v5.183h-.746l-.7-.09c-4.947-.43-7.638-4.94-9.047-9.22l-.266-.964-.262-.967c-.953-7.693-.77-19.883 8.43-22.657l1.23-.263h1.36zM7.906 34.513H19.23c2.183-1.903 4.65-.117 4.304 2.632v2.46H0V34.16l3.337-2.72 2.985-2.55 2.635-2.194c3.955-3.888 15.55-10.97 5.268-15.104l-.616-.09-.613-.084c-8.568-.217-5.16 6.576-9.837 6.058l-.53-.174-.435-.266-.352-.264-.35-.437c-1.99-4.672 5.048-10.304 10.1-10.1h2.016c10.22 1.192 13.75 12.248 4.74 19.14l-1.667 1.497-2.282 2.02-2.897 2.547-3.598 3.072zM47.99 54.535v6.954l-4.17 10.077h4.17v5.182h-6.28l-1.23 3.164h1.23c4.597-.54 4.82 5.5 0 5.18H39.21v-15.83l3.82-9.55h-3.335l-.485-.05v-5.13h8.783zm0-42.843V35.04c-1.68 3.413-4.914 5.432-8.737 5.356h-.045v-5.183h.572c3.56-.313 5.296-4.95 5.444-7.99l.09-1.054v-5.71c.024-2.897-1.526-8.538-5.007-8.958l-.527-.084-.572-.085V6.235h.746c3.54.38 4.92 1.123 7.114 3.952l.44.704.483.802zm0 23.347V11.69l.043.074c3.486 5.665 3.4 15.825.793 21.692l-.62 1.14-.215.44zm0 41.71v-5.183h4.174l-4.13-10.185-.043.107v-6.955h2.852l10.274 25.38h.793l.702.086c3.008.505 2.883 5.358-1.406 5.094H54.27l-.88-.09c-3.28-.133-3.617-4.758 0-5.09h2.195L54.27 76.75h-6.28zM65.684 6.234v5.095l-.612.088-.526.084c-3.24.684-4.77 5-4.92 7.905v6.762c-.256 2.91 1.54 8.353 4.92 8.958l.527.085h.613v5.183h-.7l-.792-.09c-4.896-.35-7.627-5.053-9.043-9.22l-.263-.965-.176-.966c-1.052-7.623-.795-19.898 8.34-22.656l1.233-.263h1.403zm0 34.16v-5.182h.616l.526-.085c3.1-.605 4.833-5.18 4.917-7.905V20.46c.085-2.92-1.482-8.422-4.917-8.958l-.614-.084-.53-.088V6.235h.707l.7.09c5.02.31 7.512 4.96 9.133 9.13l.266.97.173.964c.982 7.566.902 18.528-7.204 22.39l-1.227.352-1.228.174-1.322.09zM91.02 53.743v30.56h-1.097c-4.542.372-4.732-5.43 0-5.18h.79V58.924h-.79c-4.464.41-4.478-4.97-.88-5.093l.88-.09h1.096zm0-19.693v5.618l-.745.2-1.317.264c-2.39.56-8.722.494-8.783-3.162l.09-.527.084-.527.265-.44c1.02-.993.68-.915 2.106-1.14l.704.088.702.35c1.277.58 2.59.57 3.952.265l.965-.176.88-.265.877-.44.22-.11zm0-27.815v5.174l-.48-.08c-7.28.282-6.82 12.756.26 12.644l.22-.045v5.178l-.48.046C77.38 28.53 76.454 8.28 89.216 6.234h1.802zm10.887 47.528v5.162h-6.013v8.517h5.18l.833-.152v5.828l-.918-.495h-5.096v6.498h1.846c4.732-.316 4.694 5.58 0 5.182h-6.72v-30.56h10.58l.307.02zm0-36.703v12.3c-1.612 4.78-5.676 8.392-10.316 10.158l-.57.15v-5.62l.66-.327c2.472-1.428 4.785-3.86 5.533-6.67l.262-.968-.967.79c-1.273.996-3.44 2.17-5.092 2.195l-.397.04V23.93l.22-.045.44-.085.438-.18.79-.524.79-.614.79-.88.792-1.05.703-1.234.79-1.402-.265-.793-.264-.878-.26-.7-.267-.617c-.804-1.655-2.224-3.16-4.126-3.426l-.526-.084-.045-.01V6.236h.396c4.47.203 8.21 3.684 9.573 7.813l.35 1.058.567 1.954zm28.585 54.507v7.554h13.173v-2.808c-.476-4.59 5.574-4.59 5.09 0v7.99h-24.232c-4.642.406-4.73-5.498 0-5.18h.79V58.924h-.79c-4.602.507-4.774-5.518 0-5.183h23.18v7.903c.325 4.68-5.673 4.515-5.18 0v-2.72h-12.03v7.46h4.48l.086-.877v-.788c.7-3.238 4.86-2.73 5.092.438v6.76c.592 4.048-4.44 4.755-5.093 1.32v-.705l-.088-.966h-4.48zM118.99 37.144l-.09.704-.176.614c-.924 2.753-6.228 2.836-7.2 0l-.26-.614v-.704c-.16-3.718 5.254-4.568 7.2-1.93l.26.526.177.703.09.7zm0-16.946l-.09.7-.176.617c-1.136 2.845-6.16 2.885-7.286 0l-.174-.616-.09-.702c.025-3.96 5.572-4.337 7.2-1.932l.35.614.177.617.09.7zm-17.083 9.162v-12.3l.045.152c.692 2.733 1.01 7.633.355 10.538l-.18.88-.22.73zm0 43.758V67.29l.134-.024c7.877-1.262 7.667-7.69.526-8.34h-.66v-5.163l1.1.07c9.662.218 14.066 11.04 5.797 16.33l-1.318.79.79.792.878.878.878.964.968 1.057.616.875.7.966.88 1.23.88 1.405.876.09h.79l.528.174.44.177.44.44c1.465 1.803.53 4.047-1.934 4.302h-3.776l-1.58-2.283c-1.54-2.46-4.376-6.103-6.674-7.903l-1.056-.88-.22-.118zm55.676-19.376V68.26l-3.907-9.335h-.79c-3.627.103-3.833-4.988-.262-5.093l.877-.09h4.083zm0-44.52v6.954l-4.17 10.17h4.17v5.093h-6.192l-1.227 3.16h1.228l.88.088c3.42.165 3.494 4.776 0 5.09h-8.694l-.79-.175-.528-.264-.525-.262-.352-.438-.348-.88-.09-.526c.086-.99.465-1.735 1.316-2.283l.62-.177.787-.085.878-.09 8.166-20.195h-3.424c-4.46.41-4.487-4.964-.878-5.096l.878-.085h8.297zm0 22.217v-5.095h4.174l-4.13-10.276-.044.106V9.222h2.854L170.71 34.6l.88.088h.613c3.53 1.023 2.318 5.618-1.317 5.09h-7.814c-3.655-.273-3.372-5.14 0-5.09l.79-.09h1.316l-1.228-3.16h-6.367zm24.986 31.817l-.18.583c-1.01 2.483-.976 7.96 0 10.45l.18.528v-11.56zm0-8.856v3.878l-.354.295-.35.176-.527.086-.705.09h-.79L169.22 84.3h-4.92l-6.717-16.043V53.74h2.944c4.718-.263 4.472 5.675 0 5.183h-1.233l7.465 17.824 7.466-17.825h-2.023c-1.648-.245-2.525-.8-2.63-2.548l.087-.614.087-.44.263-.437.35-.44.44-.266.617-.26.786-.088.79-.09h6.94l.878.09.703.087.616.26.44.22zm0-45.178V39.78h-3.076c-4.446.357-4.488-4.84-1.052-5.092l.79-.09V14.404h-.79c-4.577.43-4.468-5.053-.882-5.096l.882-.085h4.127zm0-6.5v2.282l-.18-.26-.174-.262-.087-.355v-.264l.086-.525.266-.527.087-.088zm0 55.556l.173-.145c.998-1.186.87-2.56-.087-3.687l-.087-.045v3.878zm13.565-5.324v5.185l-.043-.007c-12.32.893-12.387 20.91 0 21.78l.043-.006v5.185l-.043.002-1.232-.09c-5.12-.25-10.715-5.048-12.204-9.92l-.087-.266v-11.56c1.535-4.81 6.077-9.127 11.064-10.043l1.226-.174 1.232-.088.043.002zm0-25.29L184.41 9.223h-1.84V39.78h3.688c4.613.354 4.658-5.452 0-5.18h-1.847V18.97l11.725 18.398v-9.703zm0-18.442v5.18h-.396c-4.456.412-4.482-4.963-.88-5.095l.88-.085h.395zm0-7.24v4.065l-.22.1-.44.177-.437.085c-2.068.423-3.247-.508-4.92-1.58l-1.14-.79-.878-.525-.525-.177-.352.085-.44.266-.614.35-.792.616-.438.35-.44.264-.352.174-.353.09-.35-.09-.262-.087-.355-.087-.26-.264V2.722l.44-.44.613-.614 1.055-.79.964-.527.437-.176.53-.087.437-.087h1.23l.704.266.614.26.703.352.704.527.876.527.79.53.617.35.525.263.35.085.353-.085.44-.18.526-.35.616-.524.043-.04zm0 4.065V1.98l.658-.575.44-.264.262-.175h.705l.348.09.264.173.266.266.263.263.086.264.092.262.084.353-.084.26-.092.265-.085.263-.173.266-.62.613-.787.703-.877.702-.748.34zm0 31.32v-9.702l1.45 2.282V14.403h-1.45v-5.18h6.366l.88.084c1.086.045 1.906.496 2.37 1.494l.174.44v1.142l-.174.438-.266.44-.26.44-.526.263-.53.264-.613.176h-.788V39.78h-5.096l-1.535-2.412zm0 47.725v-5.185l.922-.083c11.2-1.76 11.19-19.842 0-21.602l-.922-.083v-5.186l1.36.087c16.754 2.34 17.696 27.787 1.406 31.7l-1.405.265-1.36.087zm25.686-31.35v30.56h-7.812c-1.12-.175-2.47-.695-2.55-2.02l-.09-.526.09-.614c.122-1.208 1.41-1.985 2.55-1.932l.788-.09h3.073V58.926h-3.074c-4.546.442-4.348-5.167-.788-5.093l.788-.09h7.025zm0-45.312v5.18l-.876.09c-11.175 1.795-11.25 19.825 0 21.602l.877.09v5.178l-1.23-.087c-17.08-2.376-17.812-27.933-1.227-31.79l1.228-.174 1.23-.09zm44.173 50.495h.788l.617-.176c2.852-.86 2.426-5.284-1.67-5.008h-6.762l-.875.09c-3.296.067-3.615 4.778 0 5.093h2.722v15.102c-.306 7.69-12.764 7.885-13.175 0V58.925h2.725c3.61-.312 3.293-5.028 0-5.093l-.878-.09h-6.764l-.877.09c-1.19.12-1.907.4-2.37 1.49l-.174.44v1.142l.173.44.262.438.263.44 1.054.527.616.175h.79v14.662c.398 14.473 21.58 15.556 23.535 1.144V58.926zm9.394-35.215l.965.79.882.79.7.88c9.398 18.08-24.006 16.995-20.373 8.958l.354-.44.353-.264.435-.263.442-.086c1.284-.47 2.193.85 3.334 1.14l.44.177.793.176c2.33.292 6.606.34 8.694-.702l.525-.265.44-.265.35-.26.35-.354c.993-1.357.888-2.864.09-4.302l-.44-.703-.617-.702c-2.18-1.853-3.796-1.866-6.496-2.108l-.44-.176-.44-.175-.35-.353-.262-.35-.265-.353-.088-.437-.087-.442c.552-5.066 6.56.25 8.868-5.44l.178-.528v-.79c-.144-1.195-1.38-2.67-2.547-2.988l-.44-.174-1.138-.177c-2.068-.152-4.486-.044-6.063 1.494l-.525.438-.44.53-.44.26-.527.18-.524.084-.527-.086c-1.225-.192-2.194-1.588-1.848-2.814l.09-.35.173-.44c.74-1.505 2.886-2.736 4.393-3.247l.967-.35 1.052-.266 1.054-.177c7.12-1.185 13.892 3.767 11.682 11.157l-.353.875-.44.79-.526.704-.7.7-.707.704zM221.82 40.57v-5.18l.88-.088c11.267-1.554 11.255-20.048 0-21.602l-.88-.09V8.43l1.406.09c16.727 2.335 17.665 27.787 1.407 31.7l-1.407.263-1.405.087zm0 43.732v-30.56h4.215c4.732-.27 4.55 5.628 0 5.183h-3.075V79.12h11.156v-4.83c-.308-4.785 5.6-4.58 5.183 0v10.012h-17.48zm71.615-30.376V64.92l-.132-.026-.353-.174-.35-.266c-1.863-2.525.11-3.206-3.69-5.267l-.875-.35-.877-.265c-4.087-1.348-8.96.503-10.806 4.48l-.35.614-.262.614-.176.614-.177.704c-.353 4.367-.985 8.628 2.46 11.765l.792.617.702.527c2.626 1.766 9.71 1.967 12.116-.09l.617-.437.7-.617.66-.656V83.3l-.836.387-.79.353c-9.554 3.11-20.558-.732-21.778-11.77v-4.477c-.158-10.837 10.252-17.744 20.196-13.613l.88.44.877.442.525-.527.53-.44.395-.17zm0-45.23v4.827h-.485l-.525.087c-2.958.498-4.51 4.75-4.566 7.376l-.09.967v5.27c.05 2.977 1.283 7.713 4.655 8.43l.525.087h.485v4.828l-1.36-.085c-12.5-1.313-12.512-30.568.087-31.79h1.228l.045.002zm18.574 50.23V79.12h2.717l.882.09c3.44.18 3.45 4.757 0 5.092h-11.242c-4.45.388-4.39-5.03-.878-5.092l.878-.09h2.458V58.926h-3.336l-.703-.176-.615-.177-.44-.35-.348-.352-.265-.436-.09-.53-.086-.527.085-.614c.09-.924.897-1.616 1.757-1.844l.703-.088.878-.09h10.36c4.154-.276 4.467 4.32 1.582 5.007l-.7.175h-3.601zm-18.575-18.358V35.74h.57c3.43-.492 4.856-4.538 5.095-7.55v-6.237c.228-2.816-1.574-8.338-5.094-8.43h-.57V8.695l1.36.085 1.316.177c4.316 1.103 6.728 6.208 7.64 10.187l.09.877.086.966c.71 6.79-.186 17.007-8.077 19.32l-1.143.177-1.23.087-.042-.002zm0 24.353V53.927l.218-.094.615-.09c1.795.262 2.273.862 2.55 2.635v5.18c.116 1.448-.396 3.14-2.023 3.427l-.527.09-.525-.09-.308-.063zm0 18.38v-6.593c3.12-2.31 6.77 2.34 1.36 5.84l-1.052.61-.308.144zm44.83-29.738V59.1l-.353-.175c-16.754-5.288-16.82 25.497 0 20.196l.353-.173v5.538l-.97.256c-22.05 3.027-23.308-32.378-1.4-31.7l1.4.263.97.26zm0-11.672v3.684l-5.096 4.218-.436.26c-.88.616-1.77.437-2.46-.347l-.088-.266-.09-.35-.084-.352.085-.353.176-.437.353-.35.437-.44 5.706-4.567.352-.35.44-.176.265-.174H338.265zm0-32.583v5.232l-.353-.052-1.317-.085h-5.444V34.6h6.936l.18-.028v5.134l-1.67.073h-10.363c-1.192.133-2.753-.35-3.25-1.58l-.173-.44v-.526c-.158-1.115.755-2.124 1.758-2.46l.7-.086.702-.09V14.404h-.703c-3.602-.556-3.352-5.428.966-5.18h10.802l1.23.084zm23.27 54.183v15.63h1.932l.793.09c3.25-.1 3.78 4.8 0 5.092h-7.642c-3.805.36-4.593-3.826-1.668-5.007l.7-.085.705-.09V58.926h-.793c-4.51.492-4.676-5.504 0-5.183h5.973l13.26 20.725V58.925h-2.72l-.792-.176-.614-.177-.44-.35-.352-.352-.263-.436-.09-.53-.087-.527.087-.614c.087-.926.898-1.614 1.758-1.844l.792-.088.79-.09h6.847c4-.28 4.45 4.024 1.668 5.007l-.7.175h-.702v25.377h-5.096L361.535 63.49zm-1.23-36.44v7.55h13.173v-2.81l.09-.79c-.06-1.162.767-2.504 2.02-2.55l.525-.086.527.087.527.09.437.264.353.35.26.44.267.614.177.79v8.78h-24.326c-4.464.38-4.794-5.405 0-5.18h.79V14.404h-.79c-4.553.438-4.727-5.453 0-5.18h23.186v7.9c.495 4.506-5.505 4.676-5.186 0v-2.72h-12.03v7.463h4.568v-.88l.087-.788c.463-3.193 4.987-2.716 5.003.437l.092.88v5.882l-.092.793v.7l-.174.44-.175.35-.438.528-.532.353-.524.263-.7.087-.617-.087-.614-.262-.528-.352-.44-.527-.174-.436-.09-.53-.086-.7v-.965h-4.567zm-22.04 12.656v-5.134l1.054-.148c8.86-1.41 7.906-18.038-.177-19.757l-.878-.128V9.306l1.313.177c14.207 2.46 15.328 27.34.706 30.034l-1.758.176-.26.012zm0 5.868V41.89h.26c1.484.36 1.654 1.78.794 2.898l-.528.348-.527.438zm0 38.91v-5.537l.527-.264c6.764-4.133 6.748-15.187 0-19.32l-.527-.263v-5.538l.348.093c13.316 4.48 13.948 24.49 1.32 30.296l-1.32.44" fill="#dd127b"/><path d="M24.85 142.142h-.086l-.266.703h-.09l.09.438-.263.265c-.49.83-.59 1.843-1.144 2.635l.09.614-.44.264v.35l-.263.09.177 1.843.527.263.09.353h.176l.087.613.703.614.615-.042v-9.004zm0-27.927v11.098l-.174.41v.526l-.79 1.754v.7l-.173.178-.18.176-.172.263-.087.352-.263.616-.266.35.09.704h-.09l-.875 2.633-.352.087-.18.704-.26.703-.18.437-.086.35-.175.353-.264.266v.612h-.348v.353l-.18.264-.174.174-.263.09v.437l-.175.266-.09.262-.26.264-.18.263-.087.263-.173.26-.263.267v.7l-.352.267-.266.35-.26.264-.178.088-.09.176v.35l-.44.09-.087.438c-.72 1.284-2.116 2.07-2.722 3.425l-.173.438-.09-.09-.703.704.09.088h-.528l-.088.35-.177.354-.35.26-.266.18v.437l-.613.265.09.436-.09-.086-1.93 1.493v.35l-.35.09-.09.175-1.227.966.085.085H6.76v.266h-.79v.263H4.48l-.44-.264-.613.086v-.263l-.53.09-.262-.354-.35-.264-.267-.44-.26-.35-.528-.88-.616-.702-.088-.7H.353L0 145.48h.173L0 143.9h.266l-.09-.617h.177l-.087-1.052.26-.09-.087-.613h.173v-.614H.79l-.088-.88h.173v-.61h.175l-.085-.618.263-.087v-.527l.262-.44v-.79h.265l-.087-.613h.26v-.53l.62-1.49v-.526l.524-.88-.087-.526.348-.263v-.613h.177v-.35l.173-.09.355-.878.086.09v-.705l.353-.263-.088-.617.174-.174.174-.352.178-.44.086-.524.177-.438.178-.44.173-.35.264-.177.79-1.318v-.617l.79-1.49v-.53l.352-.262v-.616H7.9l1.143-2.195-.088-.614h.088l.877-1.14-.09-.703.704-.966.614-1.145-.087-.7.264-.088-.087-.525h.087l.264-.703 1.143-.09v.174h.615l.878.618v.085h.614l.44.88.087-.087.177 1.228h-.262l.087.44-.527.085v.352h-.173l.084.527-.437.527-.355.614-.348.614-.264.703-.173.44v.264l-.177.175-.353.262-.263.614-.44.617.09.527-.704 1.228-.79 1.143v.44h-.088l-.79 1.316v.617l-.528.526v.614l-.44 1.228-.524.353-.09.524-.263.792-.35.7-.264.354v.703l-.617 1.317v.612h-.175l-.615 1.14v.616l-.352.44v.614l-.263.525v.616H5v.615l-.437.88.087.878-.353.087.09.353h-.264l.09.877h-.174v.878l-.356.44.09 1.054h-.176l.086 1.315H3.51l.09.79h-.174l.086 1.582h-.177v.35H3.6l.174 1.93h.177v.177h.175v-.176l.792-.086v-.35h.44l.26-.44h.618l-.09-.44.53-.262.614-.53.35-.348.26-.263.177-.265.09-.263h.35v-.438l.35-.176c1.457-1.282 2.185-2.63 3.426-4.04l.525-.263-.086-.527.44-.087h-.09l.615-1.14-.087-.09h.44v-.35l.173-.264.175-.174.266-.09v-.526l.35-.353c.773-1.097.858-.998 1.23-2.28l.176-.266.087-.174.177-.176.177-.088.35-.878.352-1.144.266-.35.35-.614.264-.614.086-.527.53-.09v-.614l.968-2.283v-.618l.7-1.58.172.09-.087-.706h.266v-.615l.525-.7v-.53l.794-1.845v-.612h.086l.44-.965-.084-.793.26-.085.264-.792h.088l-.088-.7h.262l-.088-.618h.18l-.092-1.054h.265l-.173-1.143h.26v-.525l.265-.527h.44v.175h.172zm0 11.098v-11.098h.527l1.317.878.088.703h.178l.088.53h.173v.174l-.172.09.087 1.316h-.173v.79l-.353.44.087 1.053h-.173l.087.702h-.176l-.09.525-.437 1.317-.26.09v.44l-.18.086v.525l-.614 1.438zm8.255 6.423v2.503h-.173l-.706 2.196h-.26l.087.085-1.934 4.568-.35.09-.265.613-.438.79-.173.44-.177.352-.177.35-.35.264.083.614h-.084l-.264.703h-.35l.085.53c-1.057.962-1.27 2.503-1.4 3.774l-.44 1.23h-.265v.26l-.703.048v-9.003h.266-.09l.704-1.316.088.088-.088-.53.353-.435.348-.705.44-.877.09-.62.44-.26v-.612l.524-.703.35-.617v-.527l.528-.878.614-.79v-.704l.262-.438v-.614l.53-.88.964-.087.088.173h.614l1.23.923zm0-5.51v2.13h-.173l-.09-1.93.264-.2zm0-4.347v3.518l-.173-1.523h-.177l-.09-.964.354-.966.086-.065zm0 12.36h.177v-.613l.177-.44.085-.442-.177.09-.086-.965-.177-.134v2.503zm9.176 7.2v2.546h-.13l-.09-.967h.178l-.088-1.58h.13zm0-.79v.39l-.042-.39h.043zm0-17.212h-.042l.043.348v-.348zm0-5.467v3.56l-.042-.375h-.353v-.178h-.612v-.174l-1.757.174v.178l-.79.088v.174l-.702.09v.173l-.35.09v.263l-.44.176c-1.04.468-1.53 1.592-2.46 2.37l-.265.963-.088-.084.087.613.354.087.26.09.352.526.088.263.177.26.088.264.173.09.178 1.228h.175v.176l1.497-.087v-.09l2.018-1.142.09-.35.877-.527v-.524l.614-.44.087-.353.177-.348.263-.266.177-.175v-.525l.13-.07v6.742l-.13.174-.53.09.09.087-.614.353-.09.263-.524.44v.084h-.793v.264h-.7l.087.263-1.228.088v-.174h-.88v-.176l-.878.087-.173-.174h-.176l-.177-.086-.173-.353-.177-.086-.263-.088-.174-.176-.176-.174-.177-.44-.177-.353h-.264l-.085-.44h-.178l-.088-.7-.173.086v-.615h-.265l-.087-.788v-2.13l.087-.067-.087-.762v-3.52l.26-.198.44-.525.354-.614.177-.352.613-.09v-.35l.35-.084.177-.44.088.087 2.11-1.58.965-.087v-.176l2.105-.177v.177h.79l.617.44.13.064zm0 12.933l.135-.177.612-.614.352-.353.263-.35.263-.352.09-.263.087.087 1.052-1.494v-.527l.09.09.35-1.054v-.788h.175l-.086-1.233h.177l-.09-1.14h.266l-.088-.615h-.178l-.084-.79-.355-.527-.524-.525-.088-.614-.087.085-.44-.526-.61-.353-.707-.613-.57-.286v3.56l.218 1.908h-.218v.348l.044.355-.044.02v6.743zm26.344-3.953v6.398l-.04.012-.44.35-.354.44h-.44l-.086.264-.09.177-.176.088-.26.087.087.353-.438.174-.355.44-.35.44-.176.348h-.44l-.26.703-.266.09-.26.26-.178.267-.088.263-.173.35-.09.264-.26.264-.267.264v.704l-.44.26.09 1.142h.265l.086.44.618-.087v.176l1.58-.09v.176h.352v-.176l2.016-.174-.087-.266h.79l-.087-.263h.217v4.008l-.042.033-4.04.35-.438-.35-.614.087v-.176h-.525l-.09-.175-1.582-.79-.524-1.142h-.353l-.084-.44-.356-.44-.084-.614h-.175l-.178-2.283h.178l-.09-.616.265-.173v-.177l.084-.176.355-.174-.09-.703.44-.44.526-.79.436-.79.442-.618.525-.525.702-.702.35-.44.264-.35.177-.264.088-.264.092.087 1.313-1.052v-.617l-2.372.178v.263H62.7v.263h-.968l.087.266h-.613v.087l-1.583.964-.087-.085-.174.347c-2.483 2.066-2.436 2.79-4.128 5.092v.528h-.266l.09.614h-.177l-.7 1.407-.092-.09.092.526-.353.35-.352.704-.263.704-.09.525-.26.088v.44l-.53.703.09.615-.353.264-.35.524-.264.616-.086.44h-.44v.435h-.44l-.09.264-.088.175-.174.264-.265.175-.438.353-.527.174.088.263h-.44v.266l-2.104.175v-.263l-.44.09v-.354l-.705.087-.087-.174c-1.266-.62-.596-.448-1.666-1.756l-.266-.087v-.527h-.352v-.617l-.26.09-.09-.878-.173.09-.09-.97h-.044v-2.546h.045l-.044-.4v-.39h.22l-.084-.44h.35l-.087-.615h.172l-.088-.878.262-.087-.088-.616.264-.266.176-.525.18-.527.174-.44.438-.964.26-.967h.354l-.173-.087 1.405-2.633.175.085-.087-.525.88-.353v-.174h.437l.088.174.353.18.174.173.266.264.437.44.44.35.088 1.49h-.088l-.703 1.23.085.088h-.35l-.35 1.318-.614.53v.347l-.178.09v.527l-.525.7.088.53h-.26l.087.614-.44.264.088.614h-.174l-.086.524-.266.617.09.964h-.176l.086 1.054h-.266v.705h.355l.084.79h.18v.177h.614c1.728-1.617 2.577-2.38 3.334-4.743l.18-.702h.26l.353-1.057.44-1.05.176-.527.35-.617.266-.525.35-.354-.09-.524.792-.878.792-1.054-.09-.527.794-.703.7-.878.79-.88.616-.7.53-.088.085-.264c.762-.663 1.577-.942 2.285-1.583l.965-.085v-.265l.792-.087v-.177l5.793-.524v.175l1.407-.09v.264h.216zm0 18.146v-4.008h.4v-.262l.524-.09.44-.352.7-.085v-.35l.97-.528-.09-.704h.176v-.614l.174-.09-.084-.964h.173v-.877l.35-.266-.084-.614h.262v-.353l.44-.348-.09-.617h.18l.087-.44.44-.7v-.615l.877-.877v-.53l-.617.09v-.264l-1.668.263-.44.263-.614.176-.09.175-.086.263-.264.176-.263.088-.525.35-.527.264-.177.176-.173.174-.177.266-.223.074v-6.398h.4v-.35h.175v.26h.966v.18l.965-.09v-.174l.968-.09-.09-.35.79-.087v-.178l2.723-.263v.262l.615-.087.09.35 1.054-.175.174.176.265.176.348.087.353.087.35.174.356.18.26.174.176.35.878.614.09.704h.172v.79l-.61 1.405h-.53v.176l-.965.09v.263h-.177l-.088-.176h-.79v-.177l-.88.09-.088-.177h-.524v.44h.435v.264l.177.174.18.087h.26l.09.615.526.09.09.966h.173l.087.792h-.26l.084 1.052h-.262l.09.877-.44.968-.617.965v.44l-.874 1.58.09.615h-.356l.177 1.143.263-.088.174.437.44.44.44.352.437.087.44.44.528.437h.44l.44.263.612.092.88.437.877-.09.088.176h.703l.527.35.614-.086v.263l.44.09.528.26.086 1.053-.967.09.09.173h-.615v.265l-1.933.174v-.265l-1.406.18-1.228-.53-1.228-.7-.617.086-.264-.526-.525.09-1.05-1.144-1.144-.965v-.44h-.264v-.438h-.26l-.09-.178-.527.177-.44.35-.525.088-.44.35-.878.09v.35l-.792.09v.176l-.525.086-.4.32zm66.3-17.47v6.77l-.305.544.176 1.496.13.065v3.5l-.567-.23c-2.142-.956-1.006-.712-2.198-1.93l-.088-.526h-.178l-.086-.617h-.173l-.092-.88h-.173l-.087-1.05-.35.088v-.263h.263l-.088-1.318h.173v-.79l.612-.967.09.09v-.53l.265-.174.264-.35.173-.44.173-.354h.53l-.09-.438.35-.088.267-.263.263-.35.264-.353.263-.35.217-.293zm0-16.017v3.35l-1.886-.83-1.318.085-.083-.174-2.198.175v-.174h-.528l.09-.086-.967-.704v-.437h.353v-.44h.173v-.174h-.172l-.092-.44h.44v-.265h.704l-.088-.35h.614v-.264l2.722-.175v.176h.44v.265h.614l1.184.464zm-8.382 20.08l.088-.347.173-.35.266-.267.172-.353.266-.614.437-.525-.09-.704.44-.262v-.614l.264-.53-.09-2.282-.962-.527-.09-.703h.702v.178l3.773-.352v-.175l.62-.09-.09-.175 1.143-.087v-.176l.614-.087v-.174l.527-.09.217-.144v-5.658l-.306.268-.614.704-.704.527-.967.44.09.35-.967.09.087.175h-.612v.266l-1.316.085v.18l-3.164.26-.174-.176-.265-.086-.085-.09-.173-.09-.09-.173-.084-.175-1.317-.438h-.618v.348l-.173.09.087.877h.178l.088.353-.266.087.088.614.178-.09.088.617h.176l.087.527.617.527.614.527-.525.09-.09.348-.177.263-.264.266-.178.175v.527l-.26.177-.088.262-.088.35-.18.264-.175.264-.085.265-.09.262-.087.353-.44.348-.44 1.233v.525l-.26.09.086.7-.263.44v.79l-.088-.088-.525 1.407-.353.174-.35.263-.264.354-.175.353-.616.085.086.09-.965.964-.526.09v.263l-.352.084v.176l-.612.09-.793.526-.7.177.086.174-.614.09v.173l-.793.087v.18l-1.144.084.09.264h-.264v-.174h-.175l-.085-.44.348-.437v-.617h.177v-.7h.26l-.086-.617.876-1.67-.086-.964.086.085.614-.964v-.7h.09l.352-.79.177-.09.263-.878.085.09-.085-.97h.177v-.788l.26-.527-.175-2.46-.437-.44-.353-.613-.612-.44-.44-.44h-.616l-.7-.437-1.672.087v.176l-.788.087v.176l-1.318.084v.266h-.617l-1.14.967-.087-1.054h.26l-.086-.616h.175l-.09-.876.266-.088-.086-.788h.173l-.088-.793h.26l-.087-.964h.18l-.092-1.58.177-.09-.35-4.037-.264.083-.09-1.755-.347-.44-.177-.7-.354-.44-.173-.528h-.088l-.44-.877h-.263l-.44-.704-.527-.615-.35-.263-.264-.35-.35-.175-.26-.266-.532.09-.26-.352h-.53l-.526-.264-2.635.18v.173l-1.14.087-.44.44-.438.438-.265.174-.263.09-.177.173-.088.355-1.23.788v.176c-.32.848-.838.097-1.492 2.194l-.266.087.09.966h.265l.173 1.67.7.79.794-.088.964-.965.264-.878L97.914 110l.612-.086.44-.614.526-.09.266-.526.525-.087v-.177l1.056-.085v-.178l.437-.087v.266l.79-.09.527.614h.44l.088.35h.175l.087.617h.177v.614h.265l.09 1.055h.176l.352 4.127h-.177l.09 1.317-.18.09.09.963h-.174l.087.967h-.26l.087.79h-.266v.438h-.173v.615h-.177l.09.966c-1.115 1.994-.434 2.364-1.495 4.215l-.26.088v.527h-.18l.09.35-.438.09v.174c-.755 1.05-.15.627-1.23 1.49l-.264.09v.264l-1.14 1.054-.09-.087v.263l-.085.175-.177.176h-.264l.084.086-.612 1.054-.44.264-.527.614-.44.616-.088.527h-.44l-.348 1.14-.706.877-.612.88v.527l-.88 1.847-.265.088.09.875.35.09.177.176v.173l.264.09v.614h.087l.442.79h.615v.264l.614-.09v-.26l.437-.09v-.086l.79-.438v-.353h.35v-.44l.354-.09c1.115-1.13 1.64-2.24 2.636-3.507l.175-.53h.354l-.177-.09 1.494-2.104.087-.44.176-.438.264-.266.353-.263.087-.35.088-.35.265-.354.262-.173v-.525l.178-.18.26-.35.18-.35.086-.353.173-.35.09-.352.262-.264.266-.174.087-.263.088-.264.175-.176.177-.18.527-.26.35-.353.35-.263.528-.348.614-.352.44-.175v-.263l.527-.09v-.09l.966-.523.53-.09v-.262l2.28-.176.088.437h-.263l.09.178h.173v.174l-.348.44v.527h-.266l.085.61h-.26l.087.617-.35.26v.705l-.264.44v.614h-.264l.09.616-.353.26v.53l-.44.878v.53l-.348.174-.087.174-.09.176-.175.174.086.704-.35.44v.614h-.175l.088.614h-.266l.09 1.14h-.175l.085.617h.18l.086.79.353.177.087.878h.266v.614l.788.437.88.44v.264h.352l.085.176 2.287-.176v-.264l1.228-.09-.086-.26.965-.09.79-.612.528-.088v-.26h.702l2.018-1.497-.087-.174h.438v-.263l.09.087.79-.703-.087-.084.79-.09.526 1.055.263.088.265.176.088.176.087.35h.353l.173.088.09.174.087.266.7.263-.086.09 1.755-.178.44-.877v-.527l-.175-.175-.09-.176-.087-.087-.09-.09h-.437l-.088-.35-.178-.174-.26-.18-.265-.084-.44-.53-.35-.262-.177-1.318.44-.614.352-.614.438-.525.353-.62zm8.383 2.707l.837-1.476h-.09l.53-.086v-.44l.174-.085.09-.18.35-.173.26-.266.264-.348.353-.265.173-.264.177-.26.44-.09-.09-.09 2.198-1.578.526-.175.177-.352.527-.09v-.174l.44-.087v-.263l.524-.09v-.176l.967-.087-.083-.175.878-.085-.09-.18 3.864-.347v.174l1.23-.087v-.44h.175l-.174-1.668-1.497-1.054h-.525l.088-.174-1.14-.53h-.792l-.087-.26-2.283.173v.35l-1.32.09c-2.038 1.552-1.364.074-3.95 2.372l-.527.084.09.265-.53.176-.526.35-.44.44-.26.438-.44.087-.44.264-.045.06v6.774zm34.645-4.723l-.61.525.083.526h-.35l.087.35-.177.09.177 2.282.527.18v.26l.176.174.088.045v-4.433zm0-8.52v2.284h-.173v.174l-.353.09v-.264l-.614.09v-.09l-.97-.264v-.263l-.61-.087-.44-.263-.965.087v-.174l-2.9.26v.178l-.79.088v.176l-.61.09v.173l-.883.09v.263l-.44.174-.525.35-.437.354-.266.35h-.527l-.174.35c-.656.642-2.74 2.75-2.987 3.426l-.088.264-.35.087v.44l-.264.263-.177.264-.175.35-.09.35-.437.354v.614h-.177v.264h.264l.087.79.877.527 1.056-.086v.26l.177-.086v-.174l1.93-.176v-.177l.613-.086v-.176l.525-.174.53-.353.53-.086.963-.614.265-.527.877-.264-.09-.44h.18v-.615h.177l-.09-.79.263-.09-.088-.7h.173v-.617l.266-.264.26-.612.265-.616v-.527h.35v-.35l.176-.178.177-.087.174-.263h.792l.7.703h.438l.09.174h.176v.44h.174l.792.966v1.492l-.44.877.088.614h-.088l-.265.88h-.35l.088.877h-.176l.087.614h.177l.088.354.44.437.612-.086.09.174h.35v.353l.265-.086v.614l-.175.264-.265.44-.44.348-.174.263-1.667.09-.967-.614h-.44l-.085-.18-.966.09-.177.44-.614.088-.616.615h-.614v.263h-.614v.26h-.352v.265l-.88.09v.266h-.616v.26l-1.577.088v.176l-1.143.175v.174l-.79.09v.174l-1.055.09v.174l-1.578.174v.18l-2.112.173v.266l-1.757.088.09.263-1.494.086.088.18-3.687.347v.176l-5.795.44-.44-.267-1.317.09-.703-.35-.308-.124v-3.5l.924.46.878-.085v.174l.79-.09.09.264 1.844-.175.086.174h.353v-.264h.787v.176l.616-.087v-.175l.527-.09v.264l1.228-.09v-.263l4.393-.35v-.175l1.23-.177v.262l.528-.085v-.176l1.405-.18-.088-.173h.612l-.086-.614-.526-.968-.09.09-.085-.617h-.176l-.266-3.336h.177l-.087-.88.35-.262v-.617l.084.09.264-.703.265-.09.175-.173.09-.264.083-.26.266-.528.527-.88.35-.525.09-.178.264-.263.177-.176.264-.086.79-.967.702-.965.79-.618v-.174l1.756-1.23.616-.173.786-.614.882-.09-.09-.173h.615v-.266l3.87-.353v.265l1.225-.085v.174l.705-.09v.18l.612.086 1.583.702.79.44.702.703zm-34.645 1.084l.308-.205.616-.18-.088-.083 1.14-.878.088.085-.09-.525h.266c.414-.188.64-.755 1.142-1.14v-.615h.176l-.09-.704.352-.44v-.614h.176v-.44l-.176.09-.088-.617h-.175l-.09-.702h-.176l-.086-.966h-.265v-.614l-.527-.352-.35-.35-.264-.175-.26-.176-.18-.175-.085-.352-1.28-.5v3.35l.31.133.09 1.143-.4.346v5.657zm34.645 1.2h.088v.174l.614-.085.264-.44v-.703l-.174.09-.09-.62-.7-.7v2.284zm10.89-7.75v4.467l-.09.033-.26.353-.526.086-.266.35-.35.266-.177.175-.174.176-.09.26-.09.356-.172.084-.177.09-.088.263v.263h-.35l-.792 1.758-.087-.09v.53h-.178l.09 1.05 1.227.703.966-.084v.174l1.23-.09v-.174l.354-.038v5.286l-.092.022-.085-.265-.617.09v-.174h-.614c-1.41-.543-2.992-1.353-4.477-1.144l-.44.35.088.617-.35.176-.264.35-.178.438v.44l-.264.174-.263.266-.173.353-.088.26-.353.088v.35l-.35.09v.176l-.703.088v-.178h-.263v.178h-.174v-.178l-.79.09-.09-.44h-.263l-.087-.043v-4.435l.44-.7.698-.794.266-.525h.353l-.09-.09.79-1.227v-.527l.44-.792.352-.09.264-.26.086-.264.09-.263.524-.614.44-.703v-.53l.704-1.138.79-1.056v-.437l.616-.703.35-.614.35-.18.352-.35.266-.263.086-.438 1.58-1.143.615-.087v-.174l.53-.024zm16.112.454v5.132l-.393.056c-.532.49-1.28 1.228-1.845 1.668l-.35.09.083.086-.437.527-.087-.088v.44l-.263.09-.177.088-.088.174-.087.264-.264.35-.263.35-.35.88-.44.702v.614l-.263.09v.35h-.174l.174 1.932h.176l.088.527.526.44.614-.09v.353l3.162-.264v-.35l.658-.056v4.272l-3.29.26v-.173l-.79.085c-.792-.57-2-.59-2.55-1.492l-.173-.44-.524.09v-.177l-2.198.178v-.264l-1.755.174v-.174l-.793.087v-.262l-.964.087v-.174h-.53l-.527-.35-.61.09v-.18l-1.142.09v-.35l-.264.064v-5.285l.44-.05c2.02-1.523 2.01-1.557 3.336-3.69l-.087-1.14.172-.09v-.263h-.266v-.614l-.263-.177-.35-.437-.526-.178-.265-.263h-.612v-.175l-.793.174-.44.262-.348.143v-4.468l1.58-.065.435.264h.527l.266.35.525-.085.355.35.527.616.614.614.35.264.792 1.23.084.788h.175l.09.614.177-.084.262 2.985h-.175v.704h-.177l.09.612h-.266l.09.617h-.09l-.26.876h-.265l-.175.44-.353.438-.35.35-.44.175v.354l-.615.437.087.09-.53.086.09.352h.266v.264h.612v.174h.614l.09.176.53-.087.084.264.704-.09v.176l.614-.087v.262l.788-.087v-.44h.18v-.176h-.18l-.173-1.933h.174v-.79l.266-.527-.088-.79.262-.088-.086-.353.35-.088.262-.877.35-.878.18-.353.347-.525.266-.44.088-.353.438-.087-.084-.438.7-.266v-.437h.352v-.352l.088-.174.178-.09.35-.09v-.35l.968-.526v-.35l.087.088.793-.703h-.09l.526-.09.263-.437h.526v-.087l1.052-.88.045-.008zm7.863-.082v6.674l-.09.353-.877.525.177 1.23.614-.087.176-.297v6.18l-.35.175-.266.264-.264.266-.703.527-.614.524h-.704v.264h-.35v.263l-.44.088v.18l-.702.173-.525.352-.617.09v.173l-.7.177-.44.348-1.143.09v.176h-.046v-4.27l.395-.034v-.174l1.053-.09-.085-.174.614-.176.35-.353.7-.087.616-.614.53-.174 1.14-.617-.088-.527h.174v-.352h-.174l-.09-.612-.524-.177-.09-.967h-.174l-.088-.7h-.177l-.087-1.405h.177l-.09-1.144h.177l-.087-.615h.263l-.09-.614h.356l-.09-.44h.174v-.526l.35-.26v-.354h-.176l-.086-.176-1.496.09v.175l-.612.084.088.18-.617.173-.526.35-.525.09-.09.174-.967.704.09.088-.222.03v-5.13l.573-.083.353-.35 1.14-.09v-.35l1.406-.087v-.265h.703v.174l1.58-.085.262.44.704-.09.353.264.525.175.266.264zm0 14.58v-6.182l.967-1.634-.09-.88-.352.09-.35.35-.174.35v-6.674l.084.09.44.175.527.704.527-.09v.263h.176l.09.44 1.054.877.7.79.088.702h.175l.173 2.722-.348.44.09.616h-.18l-.087.615-.26.524v.613l-.792 1.496v.698l.266.18.258.35.44.263.175.175.614-.085v.438h.18l.083.35h-.173l-.09.44-.962.704.087.087-1.05.086-.092-.174-.615.087v-.266l-.61.09v-.175h-.794l-.172.35zm14.356-15.813v4.51l-.832.063.086.174-.614.09v.174l-.614.087-.438.353-.616.348-.614.35-.527.354-.176.35-.26.353-.354.35-.264.264-.44.965-.437.703.088.614h-.18l.09 1.406h.177l.174.704.876 1.054 1.318.437v.175l.616-.084v.175l2.94-.22v9.518l-.042.098-.18.528-.172.527-.263.35-.264.175v.353h-.178v.614h-.09l-.437.967.088.614-.438.087.09.353h-.266l.086.614-.348.263v.527l-.09-.087-.26.88-.177.085-.35.877-.09-.084.09.61h-.265l.087.528-.353.265v.614h-.174v.618h-.175v.524l-.35 1.054h-.087l.087 1.23h-.173l.088 1.055-.353.086.087.178-1.23.085-.436-.35-.092-.528h-.173l-.087-.525-.44-.44v-.353h.174l-.09-.878h.266v-.614l.264-.524v-.967l.263-.44v-.703l.173-.087v-.527l.615-1.317v-.704h.265v-.44h.174v-.614l.35-.437-.087-.526.44-.438.44-.882.35-1.052.175-.7h.177l.35-.883h.09v-.526l1.228-2.985.088.086-.088-.7.525-.265-.086-.79h-.704v-.176l-1.405.09-.79-.527-.613.087-.264-.353c-1.722-1.236-2.137-1.272-3.162-3.248l-.086-.788h-.266l-.086-1.054h-.173l-.182-2.548h.18l-.09-.965.176-.09v-.964l.264-.527v-.614l.703-.88.7-.967.88-.964.704-.79.527-.087.177-.174.177-.09.088-.177.087-.35.61-.088.794-.614 1.054-.177.438-.35 1.496-.175v-.176l.043-.006zm0 23.266v-9.517l.57-.045.353-.436.353-.44.26-.44.267-.614.26-.44.265-.527.177-.35.177-.175.087-.18v-.35l.352-.086h-.09l.526-.88.09.09-.09-.528.88-1.14.877-1.057v-.525l.266-.263.352-.44.173-.526.09-.442h-.615v-.174l-.967.09v-.177l-3.336.262v.178l-.967.085v.266l-.308.025v-4.508l3.468-.26v.177l1.757-.176v.263l.793-.086v.174l.612-.087v.178l.965.176.265.527.527.086.613.263.264.176.26.176.18.263.087.264h.438l.703.526.09.44.26.44.264.35.355.174v.615l.085-.085.614 1.315h.353v.176h.26l.62-1.406v-.524h.086l.7-1.407.092.09v-.528l.348-.353.878-1.315.707-.53-.09-.524 1.407-1.317 1.052-.09.79 1.054-.085.09h.26l.09.437h.176l.087 1.23h-.177v.438h-.26v.44h-.356l-.086.353-.265.35-.263.175-.35.263-.177.177-.264.44-.173.437-.09.264c-.84.484-.913 1.592-1.317 2.37l-.35.528.085.7-.174.09.09.878.877.35-.087.09.79-.09v-.175l1.934-.175v-.174l.786-.09v-.263h.88v-.263l.527-.087.79-.614-.09-1.32h.178v-.613h.264l-.087-.877h.263l-.09-.88.354-.614.438-1.057.35-.615.264-.524.265-.352.352-.174.087-.44.35-.44.44-.525.525-.53.97-.967.524-.525.966-.09.175.177.266.087.09.09.084.087v.088l.09.263h.262l.44.79.088-.088v.704h.263l.09.788h.175v.438h-.175l-.09.618-.263.525.088.614h-.174v.44h-.266v.615h-.175v.702l-.263.437v.62l-.79 1.312h-.09v.53l-.088-.09-.53.877h.09l-.263.09-.088.35-.262.353-.265.35-.35.175.087.53-.35.264v.614l.44.176.263.264.438.174.35.263.703-.087.09.176h.35v.35h.527l.44.264.35.262.264.352h.44l.878.615.087.44-.79.79-.703.087v.176l-2.284.175v-.175l-.792.087-.086-.263-.617.09-.26-.354c-1.295-.826-1.317-.953-2.458-2.105h-.617v-.264h-.263l.09.265-.704.085v.178l-.614.085v.176l-.967.086v.266h-.704v.264h-.614v.176l-1.142.174v.174h-.527v-.174h-.177v.264h-.436v-.175l-1.58.085-.09-.174-.704.09-.524-.44-.615-.617-.527-.702-.35-.79h-.267l-.26-.615-.44.088v.35c-.33.736-.82 1.38-1.404 1.933l-.704.09v.35h-.173l-.09-.35-.35.084-.09-.614h-.177v-.174h-.262l-.175.436c-.42 1.208-1.943 1.945-2.633 2.986h-.706l-.175.53-.436.09.087.173-.615.087-.35.438h-.704l-.348.44-.53.44-.174.526-.353.438-.525 1.757-.527.352-.35.53.087.437-.35.613-.396.87zm44.13-31.048v4.596l-.97.644-.172.53-.44.088-.438.262-.355.352-.348.35-.35.35-.353.263-.35.264-.265.175-.086.35-.266.263-.264.353-.263.265-.44.7-.524.53.088.526-.44.262-.706 1.67.266 2.282.88.79-.088.088.7-.087v.177l1.232-.09v.266l1.755-.176v-.263h.965v-.264l.88-.087v-.263l.352-.074v4.316l-.44.06v.175l-.614.09v.174l-2.286.175v.176l-.175.088-.088-.263-1.583.176v-.175h-.7l-.618-.35-.7-.175-.526-.527-.616-.35-.09-.44-.437-.175-.088-.793-.353-.44-.088-.877h-.262l-.177-2.546h.178l-.09-.967.178-.084-.088-.966h.26l-.086-.704h.173v-.614h.09l.263-.88h.266l.085-.614.263-.614.35-.53.353-.263-.087-.61.436-.09v-.177c.097-.5.472-.998.967-1.14l.264-.088-.09-.35h.09l1.054-.794v-.348l.262-.09.18-.086.086-.18v-.26l.438-.174.527-.353.44-.44.263-.35.527-.088.527-.616.525-.084.18-.353.613-.09v-.26l.44-.148zm0 19.407v-4.316l.086-.016v-.177l.703-.09.616-.61.527-.088.348-.263.44-.35.354-.354.26-.35.53-1.758.353-.087-.09-.527.526-.527v-.44h.09l.44-1.053.352-.09.086-.35.178-.352.263-.262.265-.178.524-.965.09.087-.09-.788h-.088l-.353-.88-.35-.086-.176-.178-.264-.175-.084-.264-.97-.612-2.547.35-.79.527-.88.176-.347.234v-4.595l.086-.03.528-.35.614-.087v-.18l.967-.084v-.18l1.928-.173v.175l.617-.084v.175l.966.353.09.26.174.264.264.09.265.087 1.316 2.02v.614l.264-.087.175 2.546h-.176l.086.877.44.53h.263l.527.613v.615h.177l.084.44h-.172v.174h.173l.092 1.14h-.177v.617l-.09-.09-.262.703h-.262l-.088.878h-.438v.53l-.35.348-.44.617-.44.7-.173.528h-.265l.088 1.317.265-.087.088.614.177.174.173.18v.085l.09.09h.44v.526l.085-.086 1.318 1.844.528-.09v.528h.176l.09.614h-.18v.353l-.26.085v.18l-.617.086v.174h-.964l-.966-.614h-.614l-.35-.44-.615-.612-.353-.353-.263-.352-.178-.44-.086-.35h-.355l-.085-.703-.88.176-.437.704h-.616v.174l-.44.09-.174.437-.79.09-.177.35-.874.116zm53.7-15.11l-.134.064-.087-.878-.44-.174v-.44l-.44-.35-.265-.353-.437-.175-.44-.264-1.666.177v.177l-.62.087.09.09-.88.7-.087-.086.088.35-.435.09.087.527-.438.086-.352.353-.266.44-.09.44h-.526l.09.436h-.44l-.09.44-.173.44-.262.35-.175.35-.266.792-.35.703v.702l-.704.617-.704.173v.176l-1.932.173v.177l-.786.087v-.174l-1.758.087v-.177l-.966.09-.09-.177h-.527l-.44-.263-.526-.174-.614-.267-.263-.264-.088-.615-.176.087v-.44h.175l-.088-.614.352-.35.35-.614.265-.704.084-.527.18-.087.26-.174c.58-.824 1.12-2.298 1.67-3.25l.09-.615.7-.878c1.156-1.522.07-1.042 1.408-2.897l.084-.353.44-.266v-.7l.087.086.965-2.282.177.087-.088-.525c.67-1.14 2.052-3.108 2.546-4.305v-.26l.53-.09-.09-.09.616-.35.698-1.23v-.526l-.348-.44-.177-.702-1.14-.79-.968-.264.087-.176-.61.09.086.086-.618.438-.084.264-.09.265-.173.088-.264.264-.353.438-.177.53-.26.524-.265.352-.177.262-.175.527-.26.176.085.528-.177.176c-.506 1.08-.265-.13-1.228 1.755l.088.53-.088-.09-1.053 2.194-.09.525h-.262l.088.088-1.052 1.847h-.09l.09.7-.18-.086-.79 1.754-.263.087-.262.618h-.088l.088.525c-1.07 1.04-.885 2.297-1.758 2.985l-.173.09v.44l-.173.348-.177.265-.35.265.085.438h-.084l-.705 1.23.087.087-.877.087-.26-.35h-.18l-.44.35-.525.09-.703.967v.437l-.35.088-.088.266-.088.264-.264.263-.353.44-.26.526-.444 1.14-.35 1.144-.352.085.088.62-.44.96h-.088l.088.792-.26.437-.09.62h-.176l.088 1.053h.177l.087 1.052h.264v.702l.703.703 1.142-.09-.09-.173.616-.09.527-.703v-.44l.265-.175c.54-.47 1.825-2.735 2.37-3.512l.26-.087-.087-.09 1.054-1.49.177-.09v.178h.44l.7.788h.44l-.09.087.968.616h.614l.264.35h.703l.438.264h.617v.35l.614-.087v.176l1.933-.09v.174h.177v-.26l2.37-.177-.086-.174 1.753-.177.09.614c2.967 3.153 1.4 1.726 5.182 3.69l.79-.088v.35l.437-.088v.265l.614-.088v.174l1.453-.098v-3.468l-.66.054v-.174l-.88.084v-.174h-.618v-.176l-.877.09-.525-.44-.79-.35-.617-.528-.525-.438v-.353l1.32-.88.524-.174.705-.79.785-.964.355-.44.438-.44.088-.263.178-.262v-.702h.44l-.09-.614h.09l.612-.878v-.614h.047v-1.56zm0-8.19v4.37l-.134.02v-.262h-.79l-1.405-.702-.086.088v-.35h-.527v-.18h-.177l-.09-.875h-.263l-.087-1.23h.176v-.614h.175v-.703l.44-.44.613-.087-.086.087.878.266.088.262.877.264-.086.085h.485zm0-5.794v3.423l-.658.09v.175l-.62.087v-.26l-.172.086-.177-1.318.263-.087-.087-.793.086.09.266-.704.44-.09.348-.698h.31zm0 15.544v-1.56l.04-.023.09 1.582h-.13zm0 12.896v-3.468l.393-.036v.266l.614-.087v.26h.878l.525.53h.53l.528.35.086.792-.614.614-.53.613-2.41.165zm9.875-11.23v8.265l-.7.078v.177h-.44l-.176-.176-.09-.086-.178-.09h-.173l-.262-.35-.266-.174-.175-1.758h-.177l-.087-1.052.703-1.232.79-1.14v-.528l.085.09 1.057-2.11.086.088zm0-17.46v9.542l-.086.016v.263l-.53.086v.177l-1.228.087v.263l-4.216.353v-.176l-1.932.087v-.174l-1.407.174-.084-.353-.393.07v-4.373h.04l.267.356.527-.09.086.264.793-.09v.177l4.477-.35-.09-.176 1.32-.174.44-.352.525-.264.44-.527.35-.263-.175-1.23-.79-.79-.88.088v-.174h-.527v-.264l-2.02.174v-.174l-1.754.085.087.266-1.056.088v.265l-.614.175-.788.53-.656.084V97.36h.13v-.267h.614v-.264h.788v-.264l.878-.087v-.175l1.143-.09v-.176l1.14-.175v-.174h.618v.175l1.666-.174.088.175h.703l1.232.614-.09.086.527-.087.352.526.086.103zm0 9.542l.44-.072c.87-.676 1.47-1.21 1.757-2.284v-.35l.527-.354-.35-3.512-.265.09-.088-.615-.355-.44-.084-.437-.614-.53-.53-.524-.44-.514v9.542zm8.08-7.316v7.64l-.087.042-.18.087v.176h.265v4.856l-.438.063.088.084-1.14.88-.087-.088v.44h-.352v.35l-.35.088-.44.35-.264.35-.35.44-.528.79-.44.352.173.703.615.614v.792l-.174.174-.09.35-.085.175-.35.355-.265.174.087 1.403h.264v.353h.266l.084.524c1.036.737.542.844 1.757 1.144l.177.265 1.842-.17v4.1l-.35.02v.175l-.172.09v-.264l-1.583.174-.44-.348-.527-.44-.173-.175-.175-.265-.266-.087-.35-.087-1.492-1.67v-.44l-.44-.264v-.614l-.266.09-.088-.528-.524-.44h-.09l-.263.44h-.788v.264l-.092.01v-8.704l.793-1.317h-.09l.09-.09c.89-.94.2-1.26 2.108-3.688l-.09-.525.264-.09.264-.174.177-.265.086-.26.266-.617.35-.348-.09-.44.352-.264.18-.35c.303-1.93 1.086-.734.96-2.284l.354-.265.177-.348.173-.353.18-.44.172-.35.26-.352.18-.35.086-.44.173-.087.18-.088.084-.175.175-.174.178-.44.086-.22zm54.184 38.944h.262l-.087-.614-.615-.09-.09-1.138-.525-.178v-.35h-.617l-.525-.265h-.792l.09.175-.703.09-.704 1.23v.526h-.175v.614h-.177l.178 1.58.175-.088.09.614.263.266.35.438.44.178.35.262.617-.088-.087-.174 1.052-.09.353-.613.525-.09.264-.44v-.788h.176l-.088-.967zm11.063-41.623H400l-.088-1.054-.178.09-.088-.967-.527-.176-.086-.527h-.09l-.44-.53h-.35l-.088.266-.178.264-.35.174-.262.176-.174.79-.355.175-.35.53-.26.613-.354.614-.264.704-.354.614-.26.44-.267.174.087.09-.873 1.493-.09.438h-.176v.44h-.353v.614l-.35.526-.438.35-.177.704-.353.964-.525.793-.353.438.09.525-.178-.085-.44 1.054-.616.526.09.614c-3.087 3.6.537.28-2.636 4.303l.09.614-.354.264v.44l-.35.264v.614l-.525 1.228-.265.09.09.437-.527.704v.614h-.174v.617h-.178l.09.703-.44.264.087.614-.35.438v.79h-.176l.086 1.14h-.174l.09.792h-.352l.086 1.14h-.173v.44h.264v.525l.614.353h.79l.176-.877h.09v-.615l.352-.353-.09-.788h.264l-.087-.79h.176v-.44h.26v-.528l.968-2.195v-.44l.085.09.88-1.757h-.09l.356-.174.086-.18v-.174l.176-.176v-.527l.09.087 1.227-2.28.088.087-.09-.703.528-.35.79-1.495.088-.438.177-.177.178-.176.177-.267.09-.26.258-.528.177-.527.44-.264v-.437l.35-.266.177-.347.175-.353.266-.35.173-.264.267-.35.173-.354v-.437l.438-.264V105l.09-.175.176-.178h.35l-.085-.614.262-.176.173-.263.088-.35v-.353l.353-.084.085-.353.182-.35.26-.35.352-.18.175-.7h.178l-.088-.528.088.09 1.58-2.196-.09-.703.354-.09-.09-.788zm-31.44 9.745h.79v.09l1.056.35 2.457-.175.35-.44v-.788h-.26v-.703h-.266v-.614l-.787-.53-.878-.524v-.527l-1.494-.618-2.105.177v.173l-.966.09-.53.44-.704.437-.435.703-.44.527.086.614h-.26l.087.617h-.174v.878l-.18.087.09 1.14h.263l.09.966.35.354.09.614.26.09V110l.176.176.352.085-.088.09 1.318 1.67-1.407.176.09.173-1.495.176.09.173-.878.09-.44.35-.618.174-1.226 1.847v.527l-.266.086.09.703h-.264l.173 2.02h.267l.09 1.054h.263l.087.35.173.175.177.178.177.263.086.086.173.09h.266v.35h.44l.526.788.35.09v.176l.527-.087-.087.176 1.58.7h.878l.088.176.965-.09v.177h.616l.087.264.88-.087v.176l1.233-.09v.175h.612v.18l.7-.09v-.174l1.582-.09v-.173l.88-.44v-.44h.173v-.174h-.173l-.09-.44-.26.083-.09-.26-.086-.177-.09-.087-.173-.088-.266-.087-.26-.18-.353-.173-.26-.087-.267-.09-.173-.348-.704.087-.44-.353h-.79v-.173l-.616.087v-.26l-.7.084-.53-.264-.523-.085v-.09l-2.198-.79-.087-.175-.79-.352-.09-.44.79-.614.882-.09v-.262l1.668-.09-.09-.263 4.657-.35.967-1.58-.09-.09h.35l-.174-1.23-.263.09v-.526h.263v-.267l-.35.09v-.44h-.177l-.088-.615-.263-.174-.09-.18-.177-.173-.085-.086-.174-.087h-.265l-.09-.53-.35.09-.087-.176h-.524l-.09-.173h-.267l-.085-.353h-.353l-.088-.44h-.263c-.746-.255-1.007-1.12-1.666-1.492l-.09-.614h.264v-.263h.525v-.266zm-33.81.574l.09-.045.088-.175.09-.09.09-.265.173-.175v-.524l.35-.44.44-.703.438-.79.176-.527.266-.09.087-.084.087-.264v-.263l.09.086 1.4-1.23v-.615h.18v-.262h-.263l-.09-1.054-.263-.174-.176-.44-.175-.174-.09-.177-.262-.09h-.353v-.527l-.44.09v-.264l-.877.086-.44.703-.525.614-.09.22v7.64zm0 20.22v-4.1l.09-.007v-.177l.614-.087.44-.35.704-.353.438-.44.614-.438-.087-.527.353-.174c1.09-1.133.547-1.368 1.228-1.933l-.09-.964h.18l-.18-2.725h-.26l-.088-.964h-.177l-.174-.878-.62-.967-.524-.352h-.614v-.174l-.792.085v.175l-.878.087v.177l-.177.026v-4.857l.09.173 2.02-.174v.173h.7l-.087.09.88.526.086-.09v.44h.088l1.403 1.668-.085.09h.263l.088.44.09-.09.787 1.056v.614h.264l.09 1.052h.176l.26 2.9h.178l.088.613h.617l.175-.612.788-.703c.2-1.092.23-.97.88-1.844l.177-.353.087-.348.088-.44.353-.264.44-.44.44-.527.174-.438.704-.53v-.524h.176v-.175l.44-.09.35-.526.442-.527.26-.35.09-.264.086-.087.09-.088.175-.09h.176v-.527l.26-.087.178-.09.178-.173.174-.177.35-.437.264-.263.35-.263.438-.353.355-.347.173-.353.438-.527h.79v-.264l.793-.09v-.174l1.14-.09v-.176l1.142-.085v.085l.966.176 1.758 1.758.084.616h.175l.09.7h.176l.086.615h.177l.264 2.723h-.175v.616h-.18l.09.79c-.587.76-1.105 2.564-1.668 3.16l-.178.09v.35l-.438.087.09.354-.44.087.09.352-.44.09v.347l-.176.09-.18.086-.086.09-.175.173-.178.263-.26.353-.265.263-.26.263-.267.35-.087.44h-.18l-.172.087-.085.087v.09l-.09.174-.176.175.086.53.353.35.877-.087v.26l1.05-.086.093.352.26.088.18.09.258.084.177.176.353.44.438.174.087.704-1.14 1.143-1.49.174v.174l-.967.09v-.174h-1.318l-.44-.263h-.616l-.087-.176h-.262l-.442-.614-.084.087-.092-.527h-.173l-.085-.79-.265.086-.088-.878-.177.09-.09-.443h.18l-.09-1.32h.35l-.087-.874h.177l-.09-.616h.264l-.085-.702.26-.263.09-.266.086-.088.09-.176.174-.085h.266l-.177-.088.877-1.318h.44v-.438l.35-.176.44-.353.264-.35.09-.438h.35v-.44h.35v-.526l.436-.09 1.06-2.107v-.703h.172l-.088-.175-.616-.967-2.106.176-1.407.964.09.176h-.527l-.35.703-.704.7-.264.354-.265.35-.174.264-.088.265-.435.35v.438l-.18.353-.26.35-.266.177.09.616-.44.613-.524.7-.266.354-.264.174-.263.44-.177.265v.614l-.348.262v.44l-.793 1.14h-.086v.528l-.794.702v.53h-.087l-.265.7h-.35l.087.087-.616.964-.7.09v.175h-.966l-.967-.88-.35.09-.18.262-.347.44-.177.438-.175.44-.265.35-.348.35-.18.18-.087.174-.09.263v.175l-.702.352-.7.438-.526.616-.527.527-1.057.085v.264" fill="#2391d0"/></svg>