<svg xmlns="http://www.w3.org/2000/svg" width="400" height="237.873"><path d="M7.427 154.023v-21.22h-.53l-1.592-.53-2.122-1.062v-2.12l.53-1.062 3.184-1.06h13.085l2.653.53 2.122.53 1.59.53 1.593 1.592 1.59 1.06.532 1.593.53 1.59.53 2.123-1.59 4.775-1.062 1.062 3.714 3.713c3.02 5.353.398 10.024-4.775 12.733l-2.123.53H5.305l-1.06-.53-1.062-1.06v-2.123l1.06-1.06 1.062-.532h2.122zm5.836-13.263h5.835l2.476-.53 2.652-1.06 1.06-1.593.532-1.59-.53-1.062-1.062-1.06-1.59-1.062h-9.373v7.957zm0 13.263h8.84l3.184-.53 1.592-.53.53-1.062.53-1.06-.53-1.592-1.592-1.59-2.653-1.062-3.183-.53h-6.72M43.855 146.065v7.958H57.47v-3.183l.532-1.592.53-1.06.53-.53 1.592-.532 1.06.53.532.53.53 1.062.53 1.592v8.488h-27.41l-1.06-.53-.53-1.06v-2.123l.53-1.06 1.06-.532h2.654v-21.22h-.53l-2.123-.53-1.06-.53-.53-.532v-2.12l.53-1.062 1.06-.53 2.122-.53 23.695.53v9.55l-.53 1.06-2.122 1.06-1.06-.53-.532-.53-.53-1.06-.53-1.593v-2.652H43.855v7.427h4.598l.53-2.653 2.122-1.06h1.06l1.062.53.53 1.59.53 1.593v6.366l-.53 2.122-1.06 1.06h-2.653l-1.06-1.06-.53-2.653M73.21 137.577v16.446h3.713l1.06.53.532 1.062v2.122l-.53 1.06-1.062.53H66.49l-1.06-.53-1.062-2.122 1.06-2.122 1.062-.53h1.59v-21.22h-1.06c-4.96-.814-4.59-4.9 0-5.836l6.19.53 13.793 21.75v-16.444H84.88l-1.59-.53-1.062-.53-.53-.532-.53-1.06 1.06-2.122 1.06-.53 1.593-.53 7.428.53h1.59l1.062.53.53 1.06v2.123l-.53.532-1.06.53-1.592.53v26.526h-5.305M100.265 154.023v-21.22l-1.59-.53-1.062-.53-.53-.532c-.04-3.326-.266-3.102 3.182-4.243l11.495.53h2.652l2.653.53 2.122 1.062 1.59 1.59 2.654 3.184 1.592 3.713.53 2.122.53 2.652v2.652l-.53 3.183-1.06 3.183-1.06 2.122-1.593 2.123-3.714 2.652-3.183.53-3.714.53h-10.965c-3.32.346-3.292-1.225-3.183-3.712l.53-1.06 1.062-.532h1.59zm5.128 0h5.836l2.652-.53 2.122-.53 2.122-1.593 1.06-1.59 1.062-2.123v-7.427l-.53-2.122-2.123-2.653-1.59-1.59-2.123-1.062h-8.49" fill="#ec008c"/><path d="M134.394 146.065v7.958h13.793v-4.775l.53-1.06 2.123-1.062 2.122 1.06.53 1.062v10.08h-25.464c-4.86.645-4.86-5.95 0-5.305h.53v-21.22h-.53l-1.414-.53-2.122-1.062v-2.12l1.06-1.062 1.062-.53 1.414-.53 24.403.53v7.957l-.53 1.592-.53 1.06-.53.53-1.06.532-2.123-1.062-.53-1.06v-4.245h-12.733v7.427h4.775v-2.653l1.06-.53 1.59-.53h1.062l.53.53 1.062 1.59v7.96l-.53 2.12-1.062 1.062h-2.652l-1.06-1.062v-2.653M177.72 128.56l1.06-1.062h2.476l.53.53.53 1.06.53 1.593v4.775l-.53 1.592-.53 1.06-.53.53-.885.532h-1.06l-1.06-.532-.53-1.06v-1.592l-1.062-1.592-1.06-1.06-2.123-.53c-11.156-5.42-17.763 12.31-10.61 19.097l1.59 1.062 2.123 1.06 2.122.53h4.775l2.652-.53 1.06-1.06 1.593-1.06 1.06-1.062h1.946l1.06.53.532 1.06v2.123l-1.06 1.062-1.416 1.59-2.653 1.593-3.184 1.06h-8.488l-4.244-1.59-3.183-2.123-2.12-3.183-1.592-3.183-.53-4.245c.058-7.017.076-13.566 7.426-16.976l3.183-1.593 4.244-.53 4.245.53 3.714 1.592M197.17 132.803v21.22h4.245l1.06.53 1.062 1.062v2.122l-1.06 1.06-1.062.53h-13.793l-1.06-.53-1.062-2.12.53-1.062.53-1.06 1.062-.532h4.244v-21.22h-2.653l-1.59-.53-1.062-.53-.53-.532-.53-1.06.53-1.06.53-1.062 1.062-.53 1.59-.53 10.61.53h1.593l1.06.53 1.062 1.06v2.123l-2.122 1.062-1.592.53M209.726 154.023v-21.22l-1.415-.53-1.06-.53-.53-.532-.53-1.06.53-1.06.53-1.062 1.06-.53 1.416-.53 11.14.53h2.653c7.36.854 7.43 4.194 11.14 10.08l.53 2.12v8.49l-1.06 3.182-3.184 4.245-3.183 2.652-3.183.53-3.714.53H208.31l-1.06-.53-1.06-2.12.53-1.062.53-1.06 1.06-.532h1.416zm5.305 0h5.836l2.653-.53 2.12-.53 3.184-3.184.53-2.123.53-2.653v-4.774l-1.06-2.122-1.59-2.653-1.593-1.59-2.12-1.062h-8.49M267.197 143.413l-1.06 6.366c-6.8 15.12-24.955 13.088-29.002-2.654V139.7c3.555-15.93 22.08-18.276 29-3.184l.532 3.183.53 3.713zm-5.128 0l-.532-2.653-.53-2.122c-4.486-10.18-16.38-8.146-18.568 2.122v4.775c1.76 10.778 14.742 12.812 18.568 2.122l.53-2.122.53-2.122M273.563 157.737l-1.06 1.06-1.062.53-2.12-1.06-.53-1.06c.538-6.237-1.634-7.466 2.65-9.02l1.593.53 1.06 1.592.53 1.59 2.654 2.123 2.122.53h2.12l3.714-.53 2.653-1.06 1.06-1.062v-2.652l-1.59-1.59c-5.577-2.55-11.57-.977-16.446-6.898l-1.06-2.122v-2.652c-.764-5.05 4.736-8.863 9.018-9.55h2.653l3.714.53 3.183 1.593.885-1.062h2.122l1.06.53.53 1.06v7.428l-.53 1.06-2.12 1.062h-.532c-3.876-3.1-.354-6.148-8.31-6.896l-2.654.53-2.122 1.06-1.06 1.062-.53 1.592v1.06l.53 1.062 1.06.53 1.06 1.06 5.306 1.062 3.714.53 2.476 1.062 2.122 1.59 1.59 1.593 1.062 2.122c2.034 6.065-3.386 11.907-9.372 12.202h-2.653l-4.243-.532-4.244-1.59M305.747 148.718h6.897l-7.958 14.854-.53.53-1.06.53-1.062-.53-.53-1.06v-1.06M133.333 210.256v21.22h2.653l1.59.53 1.062.532.53.53v2.122l-.53 1.06-1.06.532H123.43l-1.06-.53-.53-1.062v-2.122l.53-.53 1.06-.53 1.592-.53h2.476v-21.222h-4.067l-1.06-.53-.53-1.06v-2.123l.53-1.06 1.06-.532h14.147l1.06.532.532 1.06v2.123l-.532 1.06-1.06.53h-1.592M276.216 210.256v21.22h2.652l1.592.53 2.122 1.062v2.122l-1.06 1.06-1.062.532h-13.793l-1.06-.53-1.062-2.123.53-1.062.53-.53 1.062-.53 1.59-.53h2.654v-21.222h-4.243c-2.59-.84-2.59-4.462 0-5.305h13.793l1.06.532 1.062 1.06v2.123l-1.06 1.06-1.062.53h-1.592M13.263 223.52v7.957H26.88v-4.775l.53-1.06 1.06-.532h2.122l1.592 1.592v10.08H5.304l-1.06-.53-1.06-1.062v-2.122l2.12-1.06 1.593-.53h.53v-21.222h-.53c-5.096.764-5.096-6.068 0-5.305h24.226v8.49l-.53 1.59-.53 1.062-.532.53h-2.65l-.532-.53-.53-1.06-.53-1.593v-3.184H13.262v7.958h4.774v-2.653c6.988-8.154 7.433 18.743 0 10.612v-2.653M44.386 215.03v16.447h1.59l1.416.53 1.59.53.532.53v2.123l-.53 1.06-1.592.532H37.49l-1.062-.53-1.06-1.062v-2.122l3.182-1.59v-21.222h-.53c-5.096.764-5.096-6.068 0-5.305h6.366l13.616 21.752v-16.446h-3.714l-1.06-.53-.53-1.06-.532-1.062 1.06-2.122 1.062-.53h10.61l1.06.53.532 1.06v2.123l-.53 1.06-1.062.53h-1.59v26.527H58M102.21 228.824l7.958-18.568h-2.653l-1.59-.53-.532-1.06v-2.123l.53-1.06 1.592-.532h10.61l1.062.532.53 1.06v2.123l-1.06 1.06-2.653.53-11.14 26.527h-5.13l-11.14-26.526h-1.59l-.532-.53-1.06-.53-.53-1.592 1.06-2.122 1.06-.53h10.61c2.59.84 2.59 4.464 0 5.304H94.43M163.395 206.543l1.06-1.06 1.062-.532h1.06l1.062.532.53 1.59v7.96l-.53 1.06-1.062.53h-2.122c-3.153-3.625.177-4.624-7.427-6.896h-4.068l-4.244 2.122c-4.132 4.43-3.893 11.205-1.592 16.446l1.592 1.59 1.59 1.062c4.287 1.813 10.02 2.26 13.618-1.06l1.59-1.062 1.062-.53h1.06l.532 1.06.53.53.53 1.062-.53 1.06-.53 1.593c-7.583 6.208-19.467 5.805-25.818-2.654l-1.592-3.713-.53-3.714c-1.23-11.657 6.675-21.99 18.92-19.1l4.245 2.123M187.622 210.256v21.22h3.713l1.592.53 2.122 1.062v2.122l-1.062 1.06-1.06.532h-15.74l-1.06-.53-1.062-2.123.53-1.062.53-.53 1.062-.53 1.592-.53h3.537v-21.222h-5.66v6.897l-.53 1.06-2.122 1.062-2.122-1.06-.53-1.062V204.95h27.94v10.61l-.53 1.593-.53 1.06-.532.53-1.06.532-1.59-.53-.532-.53-.53-1.062-.53-1.592v-5.304M232.007 220.866v3.714l-1.06 3.183-1.062 2.653-2.122 2.652-2.652 2.122-2.652 1.592-5.305 1.06-2.653-.53c-6.186-.445-7.898-4.235-10.963-9.018l-1.06-3.714-.532-3.714.53-3.713 1.062-3.183 1.59-3.183 2.123-2.653 1.945-1.59 2.653-1.593 5.305-1.06c4.887.908 10.112 2.86 12.732 7.427l2.122 6.366v3.183zm-5.305 0v-2.122l-.53-2.122-1.06-2.122-1.062-1.59-1.592-1.593-2.122-1.06-1.592-.53h-3.713l-1.59.53-1.592 1.06-3.183 3.183-.354 2.122-.53 2.122-.53 2.122.53 2.653.53 2.12.355 1.593 1.59 2.122 3.184 2.122 1.59.53 2.123.53 3.183-1.06 2.122-1.06 1.592-1.062 1.06-2.122 1.062-1.592.53-2.12v-2.654" fill="#ec008c"/><path d="M240.85 224.58v6.897h2.12l1.592.53 1.06.53.532.53.53 1.062-1.06 2.12-1.062.532h-11.494l-1.06-.53-1.062-2.123.53-1.062.53-.53 1.062-.53 1.592-.53h.884v-21.222h-2.476l-1.06-.53-1.062-2.122 1.06-2.122 1.062-.53h16.27l2.65.53c6.385 2.658 8.932 7.456 5.306 13.793l-1.59 2.122-2.654 1.59 3.714 3.715 3.183 4.775 2.476.53 1.06 1.06v2.123l-.53 1.06-.884.532h-4.776l-3.183-4.244-3.182-3.714-2.122-2.652-2.652-1.592h-5.305zm0-5.305h4.243c7.975.684 12.98-7.74 2.122-9.02h-6.366M308.4 228.294h-13.263l-1.59 3.183h1.59l1.592.53 1.06.53.53.53.53 1.062-1.06 2.12-1.06.532h-10.435l-1.06-.53-1.062-2.123.53-1.062 1.592-1.59h1.592l8.31-21.222h-3.182c-5.096.764-5.096-6.068 0-5.305h11.67l10.61 26.527h1.416l1.062.53 1.06 1.06v2.123l-.53 1.06-1.06.532h-10.434l-1.59-.53-.532-1.062v-2.122l.53-.53 3.184-1.06h1.06l-1.06-3.184zm-2.122-5.306l-4.775-11.14-4.244 11.14M326.26 235.72l-1.592 1.062h-2.122c-2.422-1.913-2.17-8.89 0-10.61h1.06l1.593.53 2.12 3.183 2.653 1.592 4.245 1.06 3.183-.53 2.653-1.59 1.06-1.062.532-1.06v-1.062l-.53-1.06-1.062-.532-1.59-1.06-4.776-1.06-3.714-.532-2.652-1.06-2.12-1.592-1.593-2.122-1.06-2.122-.53-2.122c1.3-6.17 3.444-7.987 9.548-9.55l2.122-.53 4.244.53 3.184 1.592 1.06-1.06h1.946l.53 1.06 1.062 1.06v7.428l-1.592 1.592h-1.945l-1.06-1.06-2.123-4.245-3.183-1.06h-4.245l-2.122 1.06-1.592 1.59-.53 1.593.53.53 1.062 2.122 1.592.53 4.775 1.062 3.712 1.06 2.653 1.062 1.945 1.06 1.59 1.592 1.062 2.653.53 2.654c.522 6.127-6.66 9.96-12.024 9.55l-4.775-.532-3.713-1.59M370.115 208.134l-1.06 16.446-.532 1.06-.53.532-1.06.53-.532.53-2.12-1.06-.53-.53-.532-1.062-1.06-16.446-.53-1.59.53-2.123 1.06-1.06c2.585-3.166 4.967-1.23 6.897 1.06l.354 2.123-.355 1.59zm-.53 27.056l-.53 1.06-1.593 1.593h-2.652l-1.592-1.592-.53-1.06.53-1.06.53-1.062 1.062-.53 1.59-.53 2.123 1.06 1.06 2.122M13.263 186.914v5.836h6.72c2.59.843 2.59 4.462 0 5.305H5.304l-1.59-.53-.532-1.062v-2.122l1.06-1.06 1.062-.53h2.122v-21.22H5.305l-1.59-.53-.532-1.062v-2.122l1.06-1.06 1.062-.53h16.27l2.65.53 1.593 1.06 2.122 1.06c5.2 6.83 3.834 14.652-4.775 17.508l-2.122.53H13.263zm0-5.305h4.774c9.128.69 10.89-9.4 1.06-10.08h-5.834" fill="#ec008c"/><path d="M41.733 185.853v6.897h3.183l1.415.53.53 1.06v2.123l-.53 1.06-1.414.532h-11.14l-1.592-.53-.53-1.062v-2.122l.53-1.06 1.59-.53h2.123v-21.22h-2.122l-1.59-.53-.532-1.062v-2.122l.53-1.06 1.592-.53h16.27l2.12.53 4.245 2.12 2.122 3.184.53 1.592.53 2.122-.53 2.652-1.06 2.122-2.122 2.122-2.653 1.592 3.714 3.713 3.714 4.775 2.653.53 1.06 2.122v1.06l-1.06 1.062-1.06.53H57.47l-3.182-4.243-2.652-3.713-2.653-2.652-2.122-1.592h-5.127zm0-5.305h4.244c8.273.392 12.228-8.59 1.415-9.018h-5.66M93.37 182.14v3.713l-1.062 2.653c-5.297 15.202-25.574 13.083-28.47-2.653l-.53-3.713.53-3.714c3.568-16.29 22.313-17.633 28.47-3.183l1.06 3.183v3.714zm-5.306 0v-2.122l-.53-2.653c-5.362-9.97-16.385-8.408-18.392 2.653l-.53 2.122.53 2.122c2.007 11.06 13.03 12.623 18.39 2.652l.532-2.652v-2.122M100.265 196.994l-1.59 1.06H96.55c-1.972-2.056-2.564-8.422 0-10.61h1.06l1.592.53 1.06 1.593.885 1.59 2.652 1.593 4.244 1.06 3.183-.53 2.652-1.59 1.06-1.062.53-1.06v-1.062l-.53-1.06-1.06-1.062-1.592-.53-4.775-1.062-3.713-1.06-2.653-1.062-1.946-1.06-1.59-2.123-1.062-2.122-.53-2.122.53-2.122.53-1.59 2.122-3.183 1.945-1.592 1.59-.53 2.653-.53 2.122-.53 4.245.53 3.183 1.59 1.06-1.06h2.123l.53.53 1.06 1.06v7.428l-1.06 1.592-.53.53h-2.122l-1.06-.53v-.53l-.532-1.062-1.59-3.183-3.185-1.06-2.122-.53-2.652.53-1.592 1.06c-3.488 3.177-1.876 2.408-.53 5.836l1.592.53 4.775 1.06 3.714 1.062 2.653.53 2.122 1.592 1.592 1.592 1.06 2.652.53 2.653v1.59l-.53 1.593c-1.847 3.864-4.868 5.08-9.018 5.835l-2.654.53-4.774-.53-3.537-1.59M132.803 186.914v5.836h6.896l1.06.53 1.06 1.06v2.123l-1.06 1.06-1.06.532H125.02l-1.06-.53-1.062-2.123.53-1.06.53-1.062 1.062-.53h2.476v-21.22h-2.476l-1.06-.53-1.062-2.123.53-1.06.53-1.062 1.062-.53h16.8l2.12.53 2.123 1.06 1.592 1.062 1.59 1.592 1.062 2.12c2.083 7.19-.796 10.652-6.897 13.794l-2.653.53h-7.957zm0-5.305h4.774c7.926 1.337 12.146-9.084 1.592-10.08h-6.367" fill="#ec008c"/><path d="M162.334 184.792v7.958h13.793v-4.775l.53-1.06 1.062-.53h2.12l1.062.53.354 1.06v10.08h-25.288c-4.854.725-4.854-6.03 0-5.305h.53v-21.22h-.53c-4.854.725-4.854-6.03 0-5.305h24.403v7.957l-1.06 3.183-.53.53h-2.122l-1.06-.53-.532-1.59v-4.245h-12.732v7.957h4.775v-2.652l1.06-1.06 1.59-.532 1.062.53 1.592 1.592v7.958l-.53 2.122-1.062 1.06-1.06.53-1.592-.53-1.06-1.06v-2.653M192.396 185.853v6.897h3.714l1.06.53.53 1.06.532 1.062-1.06 2.122-1.062.53h-11.67l-1.062-.53-.53-1.06v-2.123l.53-1.06 1.06-.53h2.653v-21.22h-2.65l-1.062-.53-.53-1.062v-2.122l.53-1.06 1.06-.53h16.977l2.122.53 2.122 1.06 1.59 1.06 1.415 1.593 1.06 1.59.53 1.592v4.774l-1.06 2.122-1.945 2.122-2.652 1.592 3.713 3.713 3.007 4.775h2.122l.53.53 1.06 1.06.53 1.062-1.06 2.122-1.06.53h-4.775l-3.006-4.243-2.654-3.713-2.652-2.652-2.653-1.592h-5.304zm0-5.305h6.897l1.59-.53 2.123-1.06 1.592-1.062.53-1.06v-1.062l-.53-1.592-1.06-1.59-2.123-.532-2.653-.53h-6.366M239.788 189.567h-13.086l-1.06 3.183h2.652l1.06.53 1.062 1.06v2.123l-1.06 1.06-1.062.532h-10.61l-1.062-.53-.53-1.062v-2.122l.53-1.06 1.06-.53h2.123l8.49-21.22h-5.306l-1.062-.53-.53-1.062-.532-1.06 1.062-2.123 1.06-.53h13.086l11.14 26.525h1.592l.53.53 1.062 1.06.53 1.062-1.06 2.122-1.062.53h-10.61c-2.59-.842-2.59-4.464 0-5.304h3.183l-1.592-3.183zm-2.122-5.305l-4.067-11.14-4.776 11.14M255.703 192.75v-21.22l-1.592-.53-1.06-.53-.53-.532c-.038-3.327-.265-3.103 3.183-4.244l11.494.53h2.653l2.652.53 2.122 1.062 1.592 1.592 2.652 3.183 1.592 3.714.53 2.122.53 2.653v2.65l-.53 3.184-1.06 3.183-1.062 2.122-1.59 2.12-3.715 2.654-3.183.53-3.713.53h-10.964c-3.322.346-3.292-1.225-3.183-3.713l.53-1.06 1.06-.53h1.593zm5.305 0h5.66l2.65-.53 2.123-.53 2.123-1.593 1.06-1.59 1.062-2.123v-7.427l-.53-2.122-2.122-2.653-1.592-1.59-2.12-1.062h-8.312M315.296 182.14l-1.06 6.366c-6.853 14.874-24.988 13.377-29.002-2.653l-.53-3.713.53-3.714c3.835-15.86 21.565-18.388 29-3.183l.532 3.183.53 3.714zm-5.305 0l-.53-2.653-.53-2.122c-4.483-10.18-16.38-8.146-18.567 2.122v4.775c1.76 10.778 14.742 12.81 18.567 2.122l1.06-4.244M387.445 184.792v7.958h5.305l1.59.53.532 1.06v2.123l-.53 1.06-1.592.532h-15.915l-1.06-.53-.532-1.062v-2.122l.53-1.06 1.062-.53h5.305v-7.958l-9.02-13.262h-1.59l-1.06-.53-.355-1.062v-2.122l.354-1.06 1.06-.53h8.488l1.06.53 1.062 2.12-.53 1.593-1.592 1.06 4.774 7.427 5.305-7.427-1.59-1.06-.532-1.593v-1.06l.53-1.062 1.062-.53h8.31l1.062.53 1.06 1.06v2.123l-1.06 1.06-1.062.532h-1.415M321.485 195.933l-1.06 1.06H318.3l-1.06-.53-.53-1.06v-7.428l.53-1.06 1.06-.53h1.06l1.593.53 1.06 1.59.53 1.592 2.654 1.592 4.243 1.06 3.183-.53 2.653-1.592 1.06-1.06.53-1.062v-1.06l-.53-1.062c-4.916-4.28-13.926-1.294-17.507-7.958l-1.06-2.122v-4.244l.53-1.59 1.06-1.593 3.183-3.183 4.244-1.06 2.653-.53 3.714.53 3.183 1.59 1.06-1.06h2.123l1.06.53.53 1.592v7.427l-.53 1.06-1.06.53H337.4c-3.793-3.52.345-5.828-7.957-6.365h-2.653l-2.122 1.06-1.06 1.593-.53 1.062v1.06l.53 1.062 1.06 1.06 1.06.53 4.776 1.062 3.714 1.06 3.183 1.062 1.592 1.06 2.122 1.593 1.06 2.653c.994 7.1-2.81 10.54-9.548 11.67l-2.653.532-4.244-.53-4.245-1.592M321.485 67.55l-.53 1.592-1.06 1.592-1.593 1.06h-4.597l-1.592-1.06-1.06-1.592V65.43l1.06-1.593 1.592-1.06h4.597l1.592 1.06 1.06 1.592.53 2.12zm0 22.813l-.53 2.122-1.06 1.59-1.593.532-1.945.53-4.244-1.06-1.06-1.592V88.77l1.06-1.59 2.122-1.062 2.122-.53 1.945.53 1.592 1.06 1.06 1.593.53 1.593" fill="#ec008c"/><path d="M167.64 12.202l-3.184 2.122-3.183 1.06c-4.338.752-7.106 3.93-6.366 8.49l1.592 2.12 2.12 1.062c6.61 1.86 9.694-2.862 10.08-9.02l-.53-2.65-.53-3.184M178.25 63.837v.53l1.59 2.123-2.652 12.732-2.652 8.488-1.06 7.958-2.654 1.06-3.183 4.245-4.245 5.835-5.305 5.305-3.183 2.653-4.598 2.652-4.245 1.592-5.835 2.122-6.897 2.122h-4.244l-1.062 1.06-4.597-1.59c-10.93-1.038-21.267-5.438-29-13.263l-2.653-.53-2.122-4.244-2.122-2.652-4.244-5.836-3.714-9.02-.53-2.65-1.062-6.898-1.06-4.774 1.06-4.244v-6.366l-1.06-2.653 1.59-2.652c1.81-10.94 10.89-20.456 19.1-27.232l4.596-4.244 5.836-2.122 10.61-3.183 10.964-1.062 3.183 1.06 8.488 1.593 9.02 2.123h2.12l4.07 4.244 6.895 6.896 5.305 4.244 2.653 4.244 4.774 9.727 1.06 4.775" fill-rule="evenodd"/><path d="M159.15 52.166l-2.12-3.89-1.592-1.592-5.66 5.482 3.184 2.122.53 1.592" fill="#6f2c91" fill-rule="evenodd"/><path d="M155.968 63.837l7.958-.53-1.06-5.836-2.654-3.712-5.835 3.713.53 1.062.53 3.183" fill="#ec008c" fill-rule="evenodd"/><path d="M155.438 67.55l7.957 2.653.53-3.713v-1.592l-7.957 1.06" fill="#a6ce39" fill-rule="evenodd"/><path d="M150.31 74.447l5.128 5.305 5.305-5.305 1.59-2.652-7.426-2.122-.53.53-1.946 2.653" fill="#ec008c" fill-rule="evenodd"/><path d="M112.29 32.89l-9.02-4.243 5.306 7.427v.53" fill="#a6ce39" fill-rule="evenodd"/><path d="M111.76 42.97l5.305-7.426-3.183-2.122-4.245 4.774" fill="#fff200" fill-rule="evenodd"/><path d="M114.943 49.867l7.427-11.67-3.183-1.592-6.366 8.488 1.592 2.652" fill="#a6ce39" fill-rule="evenodd"/><path d="M88.594 59.063l-2.652-2.122-2.122 5.306 3.183 1.59 1.59-4.773zm4.775 3.183l-1.062 5.305-3.714-2.652 1.592-4.774 3.183 2.122zm4.773 4.244l-3.183-2.653-1.06 4.775 2.652 1.59 1.59-3.712zm1.592 5.835l1.945-3.183-1.945-1.59-1.592 3.712 1.592 1.06zm3.536-4.774l2.123-2.652.53-.53-2.652-2.122-2.65 3.183 2.65 2.12zm-4.066-3.182l2.476-3.714-3.537-3.713-2.652 4.775 3.714 2.653zM93.9 60.654l-2.653-2.122 2.122-5.305 3.182 2.653-2.653 4.774zm-4.245-3.183l2.122-5.834-2.122-2.3-2.122 4.422-.53 1.59" fill="#f58220" fill-rule="evenodd"/><path d="M108.046 25.464l-3.714 1.592 9.02 4.244 11.67 6.366h.53l.53-1.592" fill="#fff200" fill-rule="evenodd"/><path d="M114.412 23.873l-4.244 1.06 15.915 9.02.53-3.184" fill="#ec008c" fill-rule="evenodd"/><path d="M118.656 22.812l-1.59.53 9.548 5.305.53-1.06" fill="#fff200" fill-rule="evenodd"/><path d="M127.498 21.75l-5.66.53 5.306 3.184" fill="#ec008c" fill-rule="evenodd"/><path d="M176.127 63.837l-1.06-5.305-1.062-4.244-4.244-9.726-2.65-3.713-2.654-2.123-7.957 6.896 1.59 1.592 3.183 4.42 3.183 5.306 1.06 6.367.532 1.59" fill="#fff200" fill-rule="evenodd"/><path d="M171.353 94.076l1.06-6.897 2.653-9.02 2.122-11.14-.53-1.06-10.61.53v.53l-1.06 4.244-2.654 4.244-3.713 3.714-3.713 3.183-4.598 2.652-1.062.53 1.592 1.062 8.842 3.713" fill="#ec008c" fill-rule="evenodd"/><path d="M154.907 111.583l1.592-1.06 5.304-5.306 4.244-5.836 2.652-4.243-9.018-2.652-1.06 1.06-3.715 4.245-5.128 6.896" fill="#a6ce39" fill-rule="evenodd"/><path d="M129.09 121.132l4.243-.53 6.366-1.592 5.835-2.122 3.713-1.592 4.244-2.652-5.305-6.366-1.59 1.06-4.776 2.653-6.365 2.654-6.366 1.59" fill="#00aeef" fill-rule="evenodd"/><path d="M112.82 93.015v-1.06l-1.59-2.123-1.062-3.183c-.737-10.903 2.163-12.29 10.08-18.57l2.652-.53h2.653c11.874 8.6-9.264 12.418-.53 16.446l2.12.53 2.477-.53 1.59-1.06 2.123-3.184 1.06-2.652.532-2.653-3.183-6.366-2.653-2.65-3.007-2.123-4.244-1.592-4.245-.53-4.774.53-3.713 2.122-2.122 2.653-3.714 4.244-2.12 3.713-.885 4.775-1.06 6.896v6.367l-1.592 7.427-1.592 3.713-1.06 3.714h.53l5.13 4.773 3.182 2.122 1.06.53" fill="#ec008c" fill-rule="evenodd"/><path d="M126.083 97.79l-5.835-.53-2.122-.53-3.183-2.123h-.53l-7.96 21.22h.532l5.305 2.122 5.305 1.59 6.366 1.06 3.538 1.062-.354-7.427-.53-1.59h.53" fill="#a6ce39" fill-rule="evenodd"/><path d="M143.413 83.996l-1.06 2.122-6.898 6.897-3.183 2.653-3.183 2.122h-1.592l1.06 14.323 6.367-1.59c10.242-2.16 16.837-9.48 22.104-18.038l.53-.53-7.78-3.715-1.062-.53-3.183-2.122" fill="#f58220" fill-rule="evenodd"/><path d="M146.065 76.04l-.53 3.712-1.06 2.653 2.65 2.122 2.123-1.06 4.775-2.654-5.305-5.305" fill="#6f2c91" fill-rule="evenodd"/><path d="M145.004 59.593l1.06 2.653 1.062 6.366-.53 4.244v1.06l1.59-.53c7.75-3.33 6.524-11.55 3.184-17.506l-2.652-2.122" fill="#00aeef" fill-rule="evenodd"/><path d="M140.76 54.82L143.943 58l3.183-5.305 1.06-2.122v.53l5.837-6.012 1.415-1.06 7.427-6.367-1.06-.53-6.898-7.428-3.537-3.713h-.53l-6.366 15.384" fill="#f58220" fill-rule="evenodd"/><path d="M116.004 52.166l4.244-.53h2.652l2.653-11.848-1.592-.53-7.956 12.908M119.187 59.063h3.183l4.774 2.122 3.537 2.122 3.184 3.183 1.59 3.713 1.593 4.244-.53 3.183-1.062 3.183-2.652 3.714-2.122 1.59-4.066 1.062-2.653-1.062-2.12-1.06-1.592-3.714 2.122-3.183 3.713-3.182 1.06-2.122c-1.15-6.63-8.52-1.76-10.61 1.06l-3.182 4.245-1.06 2.653v2.653l1.06 5.305 1.062 2.123 2.122 2.122 2.653 1.592 1.59.53 5.837.53 1.945-.53 2.65-1.59 2.654-2.123 6.366-6.367 2.122-3.183 1.06-2.652.53-3.714.532-2.652v-4.244l-.53-2.653v-3.184l-1.062-2.122-1.59-2.122-3.184-2.652-3.183-1.06-4.244-1.062H120.25l-3.183 1.06" fill="#fff200" fill-rule="evenodd"/><path d="M114.943 59.063h2.122l-4.775-10.257-5.305-11.67-5.836-7.958-1.946 2.122C92.06 37.003 82.19 48.173 80.637 57.47l-1.06 2.654 2.65 1.06 3.184-7.957 3.184-6.012 8.488-8.488 10.964 12.378" fill="#00aeef" fill-rule="evenodd"/><path d="M97.613 80.813v-1.59l1.06-5.306-12.2-7.958-6.367-3.714v6.366l-.53 4.244.53 4.244 1.06 6.366" fill="#6f2c91" fill-rule="evenodd"/><path d="M103.27 48.276l-2.12 1.59-.885 2.3.884 2.122h2.12l3.184-2.122v.53l6.367 6.897h-.53l-4.244 2.653-1.06 1.06-16.27-15.56 6.366-6.367M129.62 51.636v-3.89l1.59-2.653 2.123-1.06 1.592 1.59-.53 3.183-1.062 3.36 2.122.53 3.714 1.062 2.65-11.318-14.676-2.652-2.122 11.848h.53" fill="#a6ce39" fill-rule="evenodd"/><path d="M138.638 35.013l-.53-.53.53-3.714 1.06 3.182M136.516 28.117l-1.59 5.835 2.12.53 1.062-6.896M133.864 33.952h-3.183l3.714-4.244M131.742 38.727l1.06-2.653-2.652-1.06-2.652 3.182M135.455 39.257l1.06-2.652-2.12-.53-1.062 2.652M141.29 40.318l-1.06-3.183-2.122-.53-.53 3.183" fill="#ec008c" fill-rule="evenodd"/><path d="M128.028 35.013l9.02-9.55.53.532 2.12 1.06 3.184 12.202 5.836-13.262-7.958-2.122-8.488-1.592-2.652-.53" fill="#00aeef" fill-rule="evenodd"/><path d="M81.698 86.65l3.713 7.957 4.245 5.835 2.122 3.183 1.06 2.122 1.062-2.652 1.59-3.714 1.062-6.895.53-6.367.53-3.713L81.7 85.588" fill="#fff200" fill-rule="evenodd"/><path d="M132.803 0l-1.592 3.183c-18.6 18.075 17.364 20.46 3.715-1.06L132.803 0" fill-rule="evenodd"/><path d="M131.742 5.836l-1.592 9.55-1.59-1.593-.532-1.59.53-2.123 1.062-1.592 2.122-2.652" fill="#fff200" fill-rule="evenodd"/><path d="M131.742 15.385l1.59-11.67 1.593 3.182 1.06 3.183-.53 2.652-.53 1.06-1.06 1.062-2.123.53" fill="#f58220" fill-rule="evenodd"/><path d="M97.082 7.427l-.53 3.183c-6.192 25.71 25.25 8.397 3.183-2.652l-2.653-.53" fill-rule="evenodd"/><path d="M98.674 12.732l3.006 9.02h-.53l-1.415-.532-1.06-1.06-.532-2.123v-2.122l.53-3.183" fill="#a6ce39" fill-rule="evenodd"/><path d="M103.27 20.69l-4.066-10.61 2.476 1.59 2.652 2.654 1.06 2.122-.53 1.59V19.1l-1.59 1.592" fill="#00aeef" fill-rule="evenodd"/><path d="M186.56 112.113l-1.59-3.183-1.062-3.183-1.59-3.183-1.062-1.59-.885-1.062-3.182-1.06-2.122.53-1.59 1.06-1.593 2.122c-1.14 6.63 2.953 10.628 9.373 10.08h2.652l2.653-.53" fill-rule="evenodd"/><path d="M182.317 107.87l-7.25-5.836.53-.53 1.59-.53 1.593.53 1.59 1.59.886 2.123 1.06 2.652" fill="#ec008c" fill-rule="evenodd"/><path d="M174.005 103.095l8.842 7.427h-3.006l-3.182-1.06-2.122-1.593-.53-1.062v-3.713" fill="#00aeef" fill-rule="evenodd"/><path d="M69.142 31.3l1.592 3.183 1.06 3.183 1.416 3.183 1.06 1.59 1.062 1.06 2.652 1.062 2.653-.53 3.183-3.183v-5.306l-1.592-2.122-2.122-1.592-3.183-1.06h-5.128l-2.653.53" fill-rule="evenodd"/><path d="M73.21 35.544l7.427 5.835-.53.53-1.592.53-1.592-.53-1.59-1.592-1.062-2.122-1.06-2.652" fill="#a6ce39" fill-rule="evenodd"/><path d="M81.167 39.788l-8.842-6.897h3.537l3.183.532 2.122 2.122.53 1.06v1.062l-.53 2.122" fill="#fff200" fill-rule="evenodd"/><path d="M198.762 77.1l-3.183-2.122-5.306-4.244-3.183-1.06-3.182.53-1.59 1.59-1.062 2.123v2.122c2.66 6.937 6.96 7.73 13.262 4.243l4.244-3.183" fill-rule="evenodd"/><path d="M192.927 75.508l-9.55-1.06.53-1.062 1.062-1.06 1.59-.53 2.123.53 4.244 3.182" fill="#f58220" fill-rule="evenodd"/><path d="M183.378 75.508l11.67 2.122-3.182 1.592-3.183 1.06-2.653-.53-1.06-1.06-1.592-3.184" fill="#ec008c" fill-rule="evenodd"/><path d="M56.94 66.49l3.184 2.122c18.824 18.223 19.11-17.802-1.06-4.244L56.94 66.49" fill-rule="evenodd"/><path d="M62.776 68.08l9.02 1.062v.53l-1.062 1.592-2.122.53-1.592-.53-4.244-3.183" fill="#f58220" fill-rule="evenodd"/><path d="M71.795 67.55l-11.14-1.59 2.652-1.592 3.713-1.06 2.122.53 2.122 2.12.53 1.593" fill="#ec008c" fill-rule="evenodd"/><path d="M191.866 40.318h-3.714l-3.183-.53c-5.126-.96-7.572-1.306-9.904 4.244l.53 2.652 1.062 1.592c4.763 5.57 9.808 2.585 13.086-2.653l2.122-5.305" fill-rule="evenodd"/><path d="M186.03 42.44l-8.31 3.183-.532-.53.53-2.122 1.592-1.06 1.592-.53h1.945l3.183 1.06" fill="#00aeef" fill-rule="evenodd"/><path d="M178.25 46.684l10.433-4.244-1.592 3.183-2.12 2.653-2.653.53h-1.415l-1.06-.53-1.593-1.592" fill="#fff200" fill-rule="evenodd"/><path d="M63.837 103.095h3.714l3.184.53c5.028 1.12 7.692 1.138 9.903-4.244l-.53-2.65-1.062-1.593c-4.368-5.152-10.085-2.614-13.086 2.653l-1.592 2.652-.53 2.653" fill-rule="evenodd"/><path d="M69.673 100.973l8.31-3.183v2.122l-1.59 1.59-2.122.532-1.945-.53-2.652-.53" fill="#00aeef" fill-rule="evenodd"/><path d="M77.454 96.198l-10.434 4.244 1.592-2.652 2.122-2.653 2.476-.53h1.06l1.592.53 1.592 1.06M163.926 16.976l-6.366 6.897v-.53l-.53-1.592.53-1.59 1.59-1.592 1.593-1.06 3.183-.532" fill="#a6ce39" fill-rule="evenodd"/><path d="M159.15 24.934l6.898-9.02V19.1l-.53 3.183-1.592 2.123-1.592.53-1.06.53-2.123-.53" fill="#ec008c" fill-rule="evenodd"/><path d="M10.61 55.88l-3.183-.53-2.122-1.592-1.59-2.122-.532-2.83V41.38l1.06-1.592 2.654-2.653 3.713-2.122 4.775-1.06 4.067-1.062 4.774-1.06h11.67l5.306 1.592 4.775 1.59 3.537 2.654c5.543 3.307 7.288 9.5 6.896 15.56l-1.06 3.184-1.062 2.653c-5.414 7.247-6.91 8.172-15.208 12.2l-19.098 8.49-2.475 1.59-1.06.53v.532h27.408v-1.592l.53-2.652 1.592-2.652 1.945-1.59 2.653-.532 3.183 1.06 2.122 1.593 1.59 2.12.532 2.653v7.958l-.53 3.184-1.592 2.122-2.122 1.592-2.653.53H6.897l-2.653-.53-2.122-1.592-1.59-2.122L0 89.3v-5.834l.53-2.653C6.3 66.34 26.25 63.448 37.49 56.41l2.12-1.06 1.592-1.592c4.35-5.408-1.506-6.525-5.835-7.604l-5.305-.53-6.366.53-6.72 1.59v1.062l-.53 2.83-1.06 2.122-2.654 1.59-2.122.532" fill="#ec008c"/><path d="M233.6 90.363l-.532 2.652-1.06 2.122-2.123 1.06-2.652.532h-24.227l-2.652-.532-2.122-1.06-1.592-2.123-.53-2.652V89.3l.53-2.65 1.592-2.123 2.122-1.06 2.652-.532h5.305v-35.19h-5.304l-2.652-.53-2.122-1.06-1.592-2.123-.53-2.653v-1.062l.53-2.652 1.592-2.122 2.122-1.06 2.652-.532h12.555l2.654.53 2.122 1.062 1.06 2.122.532 2.652v42.617h5.305l2.652.53 2.122 1.062 1.06 2.122.532 2.65" fill="#00aeef"/><path d="M254.11 55.35l-2.65-.53-2.123-1.593-1.592-2.122-.53-2.83v-5.304l.53-1.59.53-1.592 2.123-2.122 3.183-1.592 3.714-1.06 4.244-1.062h4.068l6.366-.53c14.117-.254 32.452 10.787 23.696 26.702l-2.122 2.652-2.122 1.592 3.183 2.122 3.713 3.183 1.592 2.122c8.287 20.722-12.635 27.65-29.532 27.056l-7.427-.53-6.19-1.06-4.774-2.123-4.245-1.59-2.652-2.123-2.122-2.122-1.06-2.123-.53-1.592 1.06-2.653 1.592-2.652 2.122-1.592 2.652-.53h1.592l1.06 1.062 4.245 2.122 3.713 2.122 4.598 1.06 6.366.53h6.897l5.835-1.59 2.122-1.06 1.592-1.062 1.06-1.06V77.1l-1.59-1.592-1.592-1.06-2.653-1.062-5.834-1.59-5.836-.532-2.652-.53-2.122-1.592-1.06-2.122-.532-2.652.53-2.653 1.592-2.122 2.122-1.59 2.122-.532h4.775l6.366-1.59 2.123-2.122.53-1.06-1.06-2.123-2.123-1.77-4.244-1.06-5.305-.53h-3.182l-3.183.53-4.067 1.06-.53 2.83-1.592 2.123-2.122 1.06-2.653.53" fill="#6f2c91"/></svg>