<?xml version="1.0" encoding="UTF-8" standalone="no"?>
<!-- Created with Inkscape (http://www.inkscape.org/) -->

<svg
   xmlns:dc="http://purl.org/dc/elements/1.1/"
   xmlns:cc="http://creativecommons.org/ns#"
   xmlns:rdf="http://www.w3.org/1999/02/22-rdf-syntax-ns#"
   xmlns:svg="http://www.w3.org/2000/svg"
   xmlns="http://www.w3.org/2000/svg"
   xmlns:xlink="http://www.w3.org/1999/xlink"
   xmlns:sodipodi="http://sodipodi.sourceforge.net/DTD/sodipodi-0.dtd"
   xmlns:inkscape="http://www.inkscape.org/namespaces/inkscape"
   width="105.83334mm"
   height="41.007874mm"
   viewBox="0 0 105.83334 41.007874"
   version="1.1"
   id="svg7103"
   inkscape:version="0.92.1 r15371"
   sodipodi:docname="2018_unidos_en_victorias.svg">
  <defs
     id="defs7097">
    <linearGradient
       gradientUnits="userSpaceOnUse"
       y2="712.33197"
       x2="461.41101"
       y1="731.91803"
       x1="461.573"
       id="e"
       xlink:href="#d"
       gradientTransform="matrix(0.39651659,-0.01187091,-0.01187091,-0.39651659,-113.50281,433.09966)" />
    <linearGradient
       id="d"
       gradientTransform="matrix(0,-55.5575,-55.5575,0,132.24,486.225)"
       gradientUnits="userSpaceOnUse"
       x2="1">
      <stop
         id="stop6949"
         stop-color="#ae1c94"
         offset="0" />
      <stop
         id="stop6951"
         stop-color="#742c98"
         offset="1" />
    </linearGradient>
    <linearGradient
       gradientUnits="userSpaceOnUse"
       y2="712.987"
       x2="500.10699"
       y1="734.01703"
       x1="500.10699"
       id="f"
       xlink:href="#c"
       gradientTransform="matrix(0.38811284,0,0,-0.38811284,-118.11148,421.31925)" />
    <linearGradient
       id="c"
       gradientTransform="matrix(0,-57.65782,-57.65782,0,198.333,491.815)"
       gradientUnits="userSpaceOnUse"
       x2="1">
      <stop
         id="stop6943"
         stop-color="#5fa539"
         offset="0" />
      <stop
         id="stop6945"
         stop-color="#236f35"
         offset="1" />
    </linearGradient>
    <linearGradient
       gradientUnits="userSpaceOnUse"
       y2="715.68903"
       x2="530.68597"
       y1="734.151"
       x1="530.56897"
       id="g"
       xlink:href="#b"
       gradientTransform="matrix(0.38795944,0,0,-0.38795944,-117.74788,421.42519)" />
    <linearGradient
       id="b"
       gradientTransform="matrix(0,-54.77486,-54.77486,0,256.96,491.38)"
       gradientUnits="userSpaceOnUse"
       x2="1">
      <stop
         id="stop6937"
         stop-color="#fab320"
         offset="0" />
      <stop
         id="stop6939"
         stop-color="#f03b98"
         offset="1" />
    </linearGradient>
    <linearGradient
       gradientTransform="matrix(0.35277776,0,0,-0.35277776,-92.510031,396.63672)"
       inkscape:collect="always"
       xlink:href="#a"
       id="linearGradient7041"
       x1="543.25305"
       y1="751.67322"
       x2="546.22638"
       y2="717.14935"
       gradientUnits="userSpaceOnUse" />
    <linearGradient
       id="a"
       gradientTransform="matrix(0,-55.94576,-55.94576,0,315.698,497.43)"
       gradientUnits="userSpaceOnUse"
       x2="1">
      <stop
         id="stop6929"
         stop-color="#4ba9e3"
         offset="0" />
      <stop
         id="stop6931"
         stop-color="#346abc"
         offset=".995" />
      <stop
         id="stop6933"
         stop-color="#346abc"
         offset="1" />
    </linearGradient>
  </defs>
  <sodipodi:namedview
     id="base"
     pagecolor="#ffffff"
     bordercolor="#666666"
     borderopacity="1.0"
     inkscape:pageopacity="0.0"
     inkscape:pageshadow="2"
     inkscape:zoom="0.35"
     inkscape:cx="558.59984"
     inkscape:cy="47.928244"
     inkscape:document-units="mm"
     inkscape:current-layer="layer1"
     showgrid="false"
     fit-margin-top="0"
     fit-margin-left="0"
     fit-margin-right="0"
     fit-margin-bottom="0"
     inkscape:window-width="1280"
     inkscape:window-height="656"
     inkscape:window-x="0"
     inkscape:window-y="27"
     inkscape:window-maximized="1" />
  <metadata
     id="metadata7100">
    <rdf:RDF>
      <cc:Work
         rdf:about="">
        <dc:format>image/svg+xml</dc:format>
        <dc:type
           rdf:resource="http://purl.org/dc/dcmitype/StillImage" />
        <dc:title></dc:title>
      </cc:Work>
    </rdf:RDF>
  </metadata>
  <g
     inkscape:label="Capa 1"
     inkscape:groupmode="layer"
     id="layer1"
     transform="translate(-32.479389,-120.50648)">
    <g
       id="g7755"
       transform="matrix(1.3716043,0,0,1.3716043,-12.069478,-60.01941)">
      <path
         inkscape:connector-curvature="0"
         id="path7033"
         d="m 96.29264,143.41531 c -0.765743,-0.27656 -1.645232,-0.80025 -1.954424,-1.16374 -1.139909,-1.34011 -0.973942,-3.55553 0.331142,-4.42026 0.580295,-0.38449 0.580943,-0.39106 0.09107,-0.92279 -0.770655,-0.83649 -0.915488,-2.18545 -0.347343,-3.23513 0.698,-1.28961 2.102819,-1.93237 4.46863,-2.04459 3.103415,-0.14721 5.033345,1.04548 5.092245,3.14701 0.0137,0.49004 -0.13243,1.1884 -0.32481,1.55191 -0.32978,0.62313 -0.30001,0.70295 0.5208,1.39588 0.80441,0.6791 0.87059,0.84583 0.87059,2.19349 0,1.35101 -0.0683,1.52187 -0.92721,2.3178 -1.63074,1.51124 -5.350294,2.07266 -7.82069,1.18042 z m 5.1883,-2.76784 c 1.95436,-0.94244 0.56786,-2.00226 -2.397758,-1.83281 -1.436372,0.0821 -1.891659,0.21495 -2.350762,0.68606 l -0.569375,0.58427 0.598797,0.49736 c 0.783918,0.65113 3.428208,0.68761 4.719098,0.0651 z m -0.99782,-5.06924 c 0.48378,-0.20441 0.8796,-0.48891 0.8796,-0.63221 0,-0.89614 -3.422149,-1.03798 -4.261394,-0.17662 -0.405746,0.41644 -0.402151,0.46397 0.06136,0.81141 0.632153,0.47386 2.195703,0.47264 3.320434,-0.002 z"
         style="fill:url(#linearGradient7041);fill-opacity:1;stroke-width:0.25506321" />
      <path
         id="path6976"
         word-spacing="0"
         letter-spacing="0"
         font-weight="bold"
         font-size="32"
         d="m 91.437835,142.86808 c 0,0.32549 -0.117933,0.60608 -0.353409,0.84156 -0.23568,0.23586 -0.51626,0.35341 -0.84156,0.35341 h -4.444042 c -0.157184,0 -0.308505,-0.0277 -0.454557,-0.084 -0.14586,-0.0674 -0.274918,-0.15699 -0.386996,-0.26945 -0.10115,-0.11208 -0.185494,-0.23548 -0.252666,-0.37021 -0.06698,-0.14566 -0.100751,-0.30265 -0.100751,-0.47115 v -0.18511 c 0,-0.31436 0.117933,-0.58928 0.353417,-0.82496 0.246999,-0.2468 0.527577,-0.3704 0.841553,-0.3704 h 0.943088 v -6.27867 h -0.943088 c -0.156988,0 -0.308505,-0.0279 -0.454362,-0.084 -0.145856,-0.0674 -0.27492,-0.15719 -0.387,-0.26946 -0.101143,-0.11227 -0.185492,-0.23567 -0.252661,-0.3704 -0.06697,-0.14586 -0.100749,-0.30265 -0.100749,-0.47116 v -0.18549 c 0,-0.31397 0.117931,-0.5889 0.35341,-0.82457 0.246999,-0.247 0.527584,-0.3704 0.841557,-0.3704 h 2.323161 c 0.325498,0 0.605885,0.11774 0.841558,0.35342 0.235677,0.23567 0.353417,0.51625 0.353417,0.84155 v 7.65895 h 0.925907 c 0.168314,0 0.319833,0.0338 0.454559,0.10114 0.145859,0.0672 0.274918,0.15698 0.387191,0.26945 0.112078,0.10075 0.196231,0.22415 0.252468,0.37021 0.06736,0.14586 0.100947,0.29737 0.100947,0.45436 v 0.18491"
         style="font-weight:bold;font-size:32px;line-height:125%;font-family:'Grover Slab';-inkscape-font-specification:'Grover Slab Bold';text-align:start;letter-spacing:0;word-spacing:0;fill:url(#g);stroke-width:0.1952567"
         inkscape:connector-curvature="0" />
      <path
         id="path6974"
         word-spacing="0"
         letter-spacing="0"
         font-weight="bold"
         font-size="32"
         d="m 78.892907,139.03792 c 0,-0.46021 -0.07305,-0.89814 -0.218776,-1.31342 -0.134773,-0.41528 -0.348085,-0.7745 -0.640101,-1.07766 -0.29183,-0.31449 -0.673515,-0.56119 -1.145048,-0.7409 -0.460015,-0.19084 -1.00988,-0.28616 -1.649989,-0.28616 -0.651245,0 -1.207159,0.0953 -1.667174,0.28616 -0.460208,0.17971 -0.841893,0.42661 -1.145045,0.7409 -0.292026,0.30316 -0.510802,0.66218 -0.656717,1.07785 -0.134776,0.41547 -0.202168,0.85361 -0.202168,1.31362 0,0.46021 0.05589,0.89815 0.167984,1.31343 0.123647,0.41528 0.325818,0.78016 0.606512,1.09445 0.280699,0.3145 0.656717,0.56686 1.12825,0.7579 0.471736,0.17971 1.061053,0.26956 1.768358,0.26956 0.707112,0 1.296628,-0.0899 1.768163,-0.26956 0.471339,-0.19104 0.841886,-0.4434 1.111451,-0.7579 0.280501,-0.31448 0.477004,-0.67917 0.589322,-1.09465 0.12345,-0.41547 0.185177,-0.8536 0.185177,-1.31362 m -9.884876,0 c 0,-0.85322 0.128921,-1.64471 0.387353,-2.37428 0.269557,-0.72977 0.662181,-1.35836 1.178835,-1.88614 0.527399,-0.53873 1.178645,-0.95421 1.953337,-1.24623 0.785831,-0.30277 1.68964,-0.45455 2.711238,-0.45455 1.021596,0 1.919547,0.15158 2.694239,0.45474 0.774697,0.29183 1.420082,0.70711 1.936546,1.24623 0.527399,0.52741 0.925878,1.15638 1.195441,1.88595 0.26956,0.72957 0.404336,1.52106 0.404336,2.37428 0,0.86436 -0.134776,1.66152 -0.404336,2.39128 -0.269563,0.72957 -0.668042,1.36402 -1.195441,1.90256 -0.516464,0.52798 -1.161849,0.94346 -1.936546,1.24622 -0.774692,0.30316 -1.672643,0.45474 -2.694239,0.45474 -1.021598,0 -1.919745,-0.15158 -2.694432,-0.45454 -0.774695,-0.30316 -1.42594,-0.71844 -1.953339,-1.24623 -0.516663,-0.53873 -0.909479,-1.17318 -1.179042,-1.90255 -0.26956,-0.72996 -0.404336,-1.52712 -0.404336,-2.39148"
         style="font-weight:bold;font-size:32px;line-height:125%;font-family:'Grover Slab';-inkscape-font-specification:'Grover Slab Bold';text-align:start;letter-spacing:0;word-spacing:0;fill:url(#f);stroke-width:0.1953339"
         inkscape:connector-curvature="0" />
      <path
         id="path6972"
         word-spacing="0"
         letter-spacing="0"
         font-weight="bold"
         font-size="32"
         d="m 57.57764,138.2958 c -0.183596,0.005 -0.356252,-0.0239 -0.518964,-0.0879 -0.16305,-0.0754 -0.309248,-0.16851 -0.439011,-0.27948 -0.118526,-0.12269 -0.214446,-0.25764 -0.287764,-0.40485 -0.07366,-0.15839 -0.112956,-0.3236 -0.11811,-0.49582 l -0.02935,-0.98046 c -0.0096,-0.32129 0.08531,-0.59978 0.284998,-0.83506 0.211057,-0.23603 0.474631,-0.43886 0.790727,-0.60892 0.328059,-0.17082 0.685719,-0.31355 1.072374,-0.42839 0.398036,-0.11519 0.779984,-0.20712 1.145466,-0.27539 0.376663,-0.0686 0.708297,-0.11309 0.994735,-0.13305 0.297458,-0.0318 0.509244,-0.0498 0.635566,-0.0536 0.791269,-0.0237 1.493835,0.0588 2.108084,0.24689 0.625628,0.188 1.155753,0.44178 1.589984,0.76175 0.433888,0.3086 0.766001,0.66019 0.995934,1.05479 0.241173,0.38328 0.367409,0.76999 0.379074,1.15974 0.02612,0.87169 -0.221168,1.61954 -0.742196,2.24335 -0.509442,0.62387 -1.323821,1.21652 -2.443538,1.77816 -0.916125,0.46366 -1.645772,0.82427 -2.18876,1.08141 -0.54392,0.24599 -0.962703,0.44229 -1.256726,0.58892 -0.283207,0.13431 -0.469469,0.23776 -0.559216,0.30916 -0.09007,0.0602 -0.134087,0.12466 -0.13202,0.19371 l 5.144144,-0.15401 -0.0083,-0.2754 c -0.01101,-0.36719 0.105873,-0.6803 0.350758,-0.94049 0.256268,-0.26015 0.550646,-0.39521 0.883312,-0.40517 0.1836,-0.006 0.35642,0.0293 0.519673,0.10489 0.162513,0.0641 0.303125,0.15731 0.421857,0.2802 0.129162,0.11079 0.231066,0.24555 0.30453,0.40435 0.07331,0.14681 0.112636,0.30623 0.117788,0.47825 l 0.04636,1.54861 c 0.0055,0.1836 -0.02967,0.35643 -0.105095,0.51948 -0.06384,0.1627 -0.15693,0.30911 -0.279276,0.43901 -0.111321,0.11798 -0.246269,0.2139 -0.404855,0.28776 -0.147018,0.0731 -0.306239,0.11224 -0.478462,0.11739 l -8.20685,0.2457 c -0.343845,0.0103 -0.651556,-0.10673 -0.92293,-0.35108 -0.271381,-0.24455 -0.412394,-0.54453 -0.42304,-0.90016 -0.01168,-0.38975 -0.0055,-0.75746 0.01855,-1.10253 0.02402,-0.34528 0.122851,-0.68679 0.296489,-1.02497 0.184672,-0.34988 0.478306,-0.70303 0.881097,-1.05965 0.402068,-0.36757 0.975671,-0.76965 1.720056,-1.2052 l 3.937245,-1.92554 c 0.225377,-0.14457 0.432869,-0.30598 0.622692,-0.48404 0.189833,-0.17746 0.281061,-0.39272 0.273497,-0.64536 -0.0069,-0.2291 -0.22483,-0.41772 -0.654114,-0.56567 -0.429421,-0.15932 -0.993963,-0.22851 -1.693637,-0.20756 -0.332666,0.01 -0.727197,0.0621 -1.183794,0.15608 -0.444614,0.0938 -0.85462,0.20935 -1.229217,0.3468 l 0.0041,0.1377 c 0.01101,0.3672 -0.111453,0.68047 -0.367722,0.94081 -0.244884,0.2602 -0.53347,0.39508 -0.866143,0.40505"
         style="font-weight:bold;font-size:32px;line-height:125%;font-family:'Grover Slab';-inkscape-font-specification:'Grover Slab Bold';text-align:start;letter-spacing:0;word-spacing:0;opacity:1;fill:url(#e);stroke-width:0.19965285"
         inkscape:connector-curvature="0" />
      <path
         inkscape:connector-curvature="0"
         id="path238"
         style="fill:#ec008c;fill-opacity:1;fill-rule:nonzero;stroke:none;stroke-width:0.35277775"
         d="m 99.58279,152.19221 v 0 l -0.168804,0.0838 v 0 l -0.334222,0.26028 -0.334222,0.0838 v 0 l -0.344344,0.0838 -0.337609,-0.0838 v 0 h -0.081 v 0 0 0 0 0 l -0.428766,0.16799 -0.418605,0.0923 h -0.418642 l -0.428696,-0.17646 v 0 L 95.70047,152.276 v 0 l -0.175543,-0.0838 h -0.165452 v 0 l -0.421957,-0.0838 -0.256575,-0.26025 v 0 l -0.08442,-0.16764 v 0 l -0.168805,0.16764 v 0 l -0.418605,0.51171 -0.428731,0.60438 v 0 l -0.08103,0.16764 v 0 l -0.08442,0.0842 h -0.08438 v 0 l -0.168804,-0.0842 -0.08438,-0.0838 v 0 -0.25993 0 l -0.08103,-0.0842 0.08103,-0.16764 v 0 l 0.253187,-0.42792 v 0 l 0.92837,-1.62782 v 0 l 0.253188,-0.51206 0.344382,-0.42792 v 0 l 0.249803,-0.25146 0.253188,-0.17646 v 0 l 0.509765,-0.25146 v 0 h 0.253188 0.249838 l 0.168804,0.16764 0.175506,0.168 v 0 l 0.334256,0.52017 v 0.25149 l 0.08439,0.3441 v 0 0.34407 l -0.168804,0.25181 v 0 l -0.165383,0.42792 -0.344382,0.3441 v 0 l -0.168769,0.0838 -0.08442,0.16764 v 0 l 0.253187,0.17642 0.425379,0.0838 0.421994,0.0838 0.334256,-0.0838 v 0 -0.16796 0 l -0.08446,-0.51173 0.175544,-0.42792 v 0 l 0.50306,-0.77199 v 0 l 0.334187,-0.3441 0.344345,-0.34374 v 0 l 0.334221,-0.25182 0.421995,-0.0838 v 0 l 0.259927,-0.0923 0.16542,0.0923 v 0 l 0.41864,0.25146 v 0 l 0.0844,0.17643 v 0 l 0.0912,0.25149 v 0.26028 0 l -0.25993,0.6797 v 0 l -0.16545,0.3441 -0.25319,0.34375 v 0 0.25181 l 0.0844,0.1761 v 0 l 0.33425,0.16796 h 0.34431 v 0 l 0.50303,-0.0838 0.42873,-0.0841 v 0 h 0.16542 v 0 0.0841 0 0.0838 0 l -0.25658,0.16764 v 0 l -0.33757,0.26028 v 0 l -0.0844,0.0838 v 0 l -0.33426,0.0842 h -0.34431 v 0 h -0.16542 l -0.25322,-0.0842 -0.334221,-0.3441 v 0 z m -4.476502,-1.10762 v 0 l 0.253188,0.25181 v 0 h 0.08103 0.168767 v 0 l 0.428768,-0.25181 0.418605,-0.42792 v 0 l 0.165452,-0.34406 v -0.3441 0 -0.16768 l -0.08103,-0.17607 -0.168804,-0.0842 h -0.08439 v 0 h -0.249836 v 0 l -0.25319,0.17642 -0.259927,0.16764 v 0 l -0.08442,0.168 v 0.17614 0 l 0.08442,0.16796 v 0 0.16767 l -0.08442,0.17607 v 0 l -0.249804,0.168 v 0 l -0.08442,0.0838 z m 4.901842,-1.11608 v 0 H 99.9271 v 0 l -0.259927,0.0841 v 0 l -0.337574,0.17614 -0.334222,0.25178 v 0 l -0.428765,0.42792 -0.334187,0.51173 v 0 l -0.168839,0.3441 v 0 0.16764 0 H 98.316812 98.651 v 0 l 0.259961,-0.16764 0.25319,-0.16799 v 0 l 0.249836,-0.25993 0.168804,-0.34409 v 0 l 0.175508,-0.51174 v 0 z m -18.679013,1.1999 v 0 h 0.08438 v 0 h 0.847373 l 0.334222,-0.0838 0.344347,-0.17611 v 0 l 0.165418,-0.0838 h 0.253188 v 0 l 0.425378,-0.51205 v 0 l 0.337574,-0.17611 0.334222,-0.16799 v 0 l 0.168804,-0.0839 0.259961,0.0839 0.249804,0.0841 0.168804,0.17614 v 0 l 0.165415,0.33563 v 0.42789 0 l -0.08442,0.42791 -0.165418,0.3441 v 0 l -0.253188,0.25993 -0.34096,0.16796 v 0 l -0.421992,0.26028 v 0 h -0.08103 v 0 l 0.08103,0.16764 v 0 l 0.597535,0.3441 0.584023,0.3441 v 0 l 0.253222,0.0838 v 0 l 0.09112,0.0838 v 0.0838 0.16799 0 l -0.259926,0.17611 -0.249836,-0.0838 v 0 l -0.334187,-0.0923 -0.344382,-0.168 v 0 l -0.847329,-0.59556 v 0 l -0.587409,-0.51174 v 0 l -0.08442,0.0838 -0.081,0.0838 v 0 l -0.259963,0.51174 v 0 l -0.337609,0.42791 v 0 l -0.165417,0.0842 -0.08438,0.0838 -0.168804,-0.0838 -0.08438,-0.16799 v 0 l -0.175543,-0.25993 0.09451,-0.33563 v 0 l 0.08103,-0.42792 0.168805,-0.26028 v 0 l 0.168767,-0.26024 v 0 h -0.168767 v 0 l -0.678569,-0.0838 v 0 l -0.08442,0.17611 v 0 l -0.165417,0.51205 -0.253188,0.3441 v 0 l -0.594148,0.42792 -0.594183,0.25146 v 0 H 79.46896 v 0 h -0.253191 -0.165417 l -0.168804,-0.16764 -0.175506,-0.17611 v 0 l -0.168805,-0.25181 -0.08103,-0.3441 v 0 -0.26028 l 0.08103,-0.25146 v 0 l 0.259927,-0.42788 0.253188,-0.3441 v 0 l 0.668443,-0.67973 v 0 l 0.597535,-0.52017 v 0 l 0.165418,-0.0839 0.259963,0.0839 v 0 h 0.08438 v 0 l 0.168804,0.0923 0.08438,0.16795 v 0 l 0.165417,0.25993 0.08442,0.33563 v 0 z m -0.847373,-0.17611 v 0 l -0.165418,0.0923 v 0 l -0.597535,0.51174 -0.503026,0.51206 v 0 l -0.249801,0.42792 v 0 0.16764 0 0.0842 l 0.08438,0.0923 v 0 h 0.418608 v 0 l 0.344344,-0.17646 0.249838,-0.0838 0.253188,-0.26028 0.249804,-0.25146 v 0 l 0.175577,-0.26024 v -0.25182 0 z m 4.56766,-0.25181 v 0 l -0.165417,-0.0838 h -0.178964 v 0 l -0.249801,0.0838 -0.253188,0.16799 v 0 l -0.418608,0.42792 -0.340995,0.42792 v 0 l 0.08103,0.0838 v 0 h 0.168804 v 0 l 0.594149,-0.25181 0.513151,-0.42792 v 0 l 0.165417,-0.17611 z m -7.09623,-2.91155 v 0 l 0.334221,-0.42791 v 0 l 0.418643,-0.42792 0.509727,-0.41946 v 0 l 0.253191,-0.1761 0.344344,-0.0841 v 0 l 0.165418,-0.0839 0.253225,0.0839 v 0 h 0.249801 l 0.168804,0.16795 v 0 l 0.259963,0.42792 0.168768,0.42792 v 0 0.26025 l -0.08438,0.34374 v 0 l -0.344347,0.84773 -0.168804,0.42792 -0.334222,0.34374 v 0 l -0.509762,0.59592 v 0 l -0.337574,0.34406 -0.334222,0.25993 v 0 l -0.762987,0.42792 v 0 l -0.50973,0.25181 -0.587444,0.0923 v 0 h -0.25319 L 76.59269,151.3364 v 0 l -0.165452,-0.0838 v 0 l -0.253153,0.34375 v 0 l -0.678603,1.10762 v 0 l -0.502992,0.85583 v 0 0.0842 l -0.165417,0.0838 v 0 h -0.09451 -0.08442 v 0 l -0.165417,-0.16799 -0.08442,-0.16764 v 0 -0.17611 -0.16799 0 l 0.168805,-0.3441 v 0 l 0.165451,-0.3441 v 0 l 0.428731,-0.84733 v 0 l 0.678569,-1.11577 v 0 l 0.418605,-0.67973 v 0 l 0.513152,-0.8558 v 0 l 0.499605,-1.03227 v 0 h 0.08442 v 0 l 0.08439,-0.16764 0.08442,-0.0839 0.168804,0.0839 0.175543,0.0838 v 0 z m -1.016141,2.91155 v 0 h 0.08438 v 0 l 0.587412,-0.17607 v 0 l 0.762952,-0.33563 0.678567,-0.51178 v 0 l 0.503026,-0.52017 0.425344,-0.59591 v 0 l 0.168804,-0.25181 v 0 l 0.168804,-0.34375 0.165418,-0.42792 v 0 l 0.08439,-0.3441 v 0 -0.16799 l -0.16877,-0.0923 v 0 h -0.249838 -0.168804 v 0 l -0.425344,0.26024 v 0 l -0.503026,0.42796 v 0 l -0.513115,0.42788 v 0 l -0.503025,0.77202 v 0 l -0.425379,0.59556 v 0 l -0.25319,0.42788 v 0 l -0.334222,0.42796 v 0 l -0.08438,0.16796 z m 31.605467,-1.1999 v 0 l 0.17554,0.0842 0.081,0.25989 v 0 l -0.081,0.25185 -0.0945,0.26024 v 0 l -0.33422,0.59556 -0.41857,0.52021 v 0 0.0838 0.16799 0 l 0.24981,0.25993 0.25318,0.16795 v 0 l 0.34435,0.26028 v 0 l 0.16542,0.0838 v 0.16764 0 0 0 l -0.0844,0.17646 -0.081,0.0838 h -0.0945 -0.16538 v 0 l -0.33761,-0.1761 -0.16542,-0.168 -0.25322,-0.16764 -0.17555,-0.26028 v 0 l -0.0844,-0.16795 v 0 h -0.0844 l -0.081,0.0841 v 0 l -0.50299,0.16764 v 0 l -0.42876,0.0838 -0.33422,-0.0838 v 0 l -0.33423,-0.0838 v 0 l -0.34434,-0.0838 -0.0844,0.0838 -0.0844,0.0838 v 0 l -0.16884,0.17645 v 0 h -0.50977 l -0.4186,-0.0926 v 0 l -0.25319,-0.16764 -0.17555,-0.16795 v 0 l -0.16541,-0.25993 v 0 l -0.16881,0.0838 v 0 l -0.25319,0.17611 -0.33422,0.0841 v 0 l -0.42538,-0.0841 -0.3376,-0.17611 -0.24981,-0.33563 -0.1755,-0.42792 v 0 l -0.0845,-0.42792 0.0845,-0.34407 v 0 l 0.25992,-0.51177 0.41861,-0.42788 v 0 l 0.16545,-0.17611 0.25316,-0.16799 v 0 l 0.34434,-0.0838 0.24984,-0.0838 h 0.25319 l 0.34096,0.0838 v 0 l 0.1688,0.0838 v 0 0.0838 l 0.0844,0.17646 -0.0844,0.0838 -0.0844,0.0838 v 0 l -0.16538,0.0838 v 0 h -0.34439 v 0 l -0.33757,0.0842 -0.33423,0.17607 v 0 l -0.34431,0.25181 -0.24983,0.3441 v 0 l -0.16884,0.42792 v 0 0.16764 l 0.0844,0.1761 v 0 l 0.33426,0.168 h 0.34431 v 0 l 0.50302,-0.168 0.16877,-0.1761 0.16545,-0.25181 v 0 l 0.76296,-1.02348 v 0 l 0.0844,-0.0922 h 0.0844 v 0 l 0.1688,0.0922 v 0.0838 0 l 0.0912,0.16767 v 0 0.16799 l -0.0912,0.17611 v 0 l -0.58741,0.8558 v 0 l -0.0844,0.25182 v 0 l -0.0844,0.0923 0.0844,0.0838 v 0 l 0.16877,0.16799 v 0 l 0.6786,0.0838 h 0.58741 v 0 h 0.081 v 0 -0.16764 0 l -0.16542,-0.42792 v -0.42792 l 0.16542,-0.3441 0.17893,-0.42792 v 0 l 0.49964,-0.59587 0.68196,-0.42792 v 0 l 0.16541,-0.16764 v 0 l 0.25319,-0.0923 0.2498,-0.0842 v 0 h 0.25997 l 0.25318,0.0842 0.16542,0.0923 0.16881,0.25146 v 0 l 0.0844,0.3441 v 0 z m -2.70076,1.28407 v 0 0.16764 0 l -0.0844,0.17611 0.0844,0.16799 v 0 l 0.0844,0.0838 0.16877,0.17611 h 0.16545 0.16877 v 0 l 0.59418,-0.25993 v 0 l 0.25319,-0.25181 0.2498,-0.3441 v 0 l 0.0844,-0.17607 v 0 l 0.17555,-0.33563 0.25318,-0.34414 v 0 l 0.081,-0.16764 v 0 -0.0922 l -0.081,-0.16799 -0.0844,-0.0838 h -0.0844 v 0 l -0.42876,0.0838 v 0 l -0.58402,0.34406 -0.59754,0.51178 v 0 l -0.16545,0.25181 z m -2.9573,9.22969 v 0 h -0.0844 v 0 l -0.34435,0.17621 -0.33418,0.16782 -0.76299,0.0839 v 0 h -0.2498 l -0.25323,-0.0839 -0.25992,-0.0839 -0.16877,-0.26014 v 0 l -0.081,-0.0839 v 0 h -0.0844 v 0 l -0.16881,0.0839 v 0 l -0.509727,0.34403 -0.58741,0.17622 v 0 h -0.249838 -0.344344 v 0 l -0.253191,-0.26011 -0.165417,-0.42795 v 0 l -0.08442,-0.59574 v -0.2601 l 0.165417,-0.34406 v 0 l 0.253222,-0.51181 0.334188,-0.51167 v 0 l 0.594182,-0.85616 v 0 l 0.168805,-0.16768 v 0 l 0.168804,-0.0838 0.08439,0.16768 v 0 l 0.09112,0.26024 0.08442,0.2515 v 0 l -0.08442,0.26024 v 0 l -0.259926,0.25182 v 0 l -0.418608,0.68795 -0.428765,0.59577 v 0 l -0.165383,0.42792 v 0 0.0839 0 l 0.259926,0.0923 0.334222,-0.0923 v 0 l 0.418608,-0.16782 0.509765,-0.34399 v 0 l 0.0844,-0.0839 0.0844,-0.26014 v 0 l 0.33422,-0.5957 0.34431,-0.67959 v 0 l 0.0844,-0.0923 v 0 0 0 -0.0841 0 -0.0839 -0.16761 l 0.0844,-0.26024 v 0 l 0.33419,-0.25185 0.25319,-0.17607 v 0 l 0.42538,-0.0839 0.4186,-0.0838 v 0 l 0.25997,0.0838 0.25318,0.16767 0.24984,0.17643 0.16877,0.25149 v 0 l 0.16545,0.51206 v 0.60406 0 0.76352 l -0.24984,0.68806 v 0 l -0.0844,0.16781 v 0 l 0.33423,0.17622 0.5975,0.2517 v 0 l 0.33422,0.17625 h 0.34438 v 0 -0.17625 l -0.0844,-0.0839 v 0 l -0.34435,-1.02365 v 0 l -0.16541,-0.51181 v -0.6041 0 l 0.081,-0.42792 0.0844,-0.25181 0.25319,-0.34407 0.34096,-0.16767 v 0 l 0.42202,-0.26024 v 0 l 1.01276,-0.3441 v 0 l 0.42877,-0.0838 v 0 l 0.16541,0.0838 v 0.26024 0 l -0.0844,0.42792 v 0 l -0.081,0.16767 h -0.0844 v 0 l -0.25996,0.0841 v 0 l -0.33761,0.0923 -0.33422,0.0838 v 0 l -0.59415,0.25182 v 0 l -0.25322,0.1761 v 0 l -0.16538,0.168 v 0.25996 0 0.16781 0 l 0.2498,1.02366 v 0 l 0.33761,0.77195 v 0 l 0.081,0.34403 v 0.42792 0 l -0.081,0.34403 v 0 l -0.16881,0.0839 v 0 l -0.4186,0.0839 v 0 l -0.34438,-0.0839 -0.41861,-0.17622 v 0 l -0.42873,-0.25174 v 0 l -0.41861,-0.26011 -0.1688,-0.16782 z m -0.93179,-2.98711 v 0 l -0.0844,0.59591 -0.25658,0.51167 v 0 l -0.67179,1.03209 v 0 l -0.0844,0.16778 v 0 l 0.41864,0.16782 v 0 l 0.51315,-0.0839 0.50299,-0.16782 v 0 l 0.24984,-0.17621 0.17554,-0.16782 v 0 l 0.25319,-0.51184 0.081,-0.51181 v 0 -0.25996 l -0.081,-0.25182 -0.0844,-0.17642 -0.25997,-0.0839 v 0 l -0.25315,-0.0838 z m -12.166852,-3.16336 v 0 h -0.259927 v 0 H 89.19165 l -0.253188,-0.0838 -0.259961,-0.17607 -0.249804,-0.25181 v 0 l -0.168804,-0.26028 -0.168804,-0.34375 v 0 l -0.08103,-0.33563 0.08103,-0.3441 v 0 l 0.168804,-0.68817 0.334222,-0.59556 v 0 l 0.597535,-1.02383 v 0 l 0.249838,-0.26024 0.249801,-0.25146 v 0 l 0.513151,-0.42792 v 0 l 0.678532,-0.51209 v 0 l 0.587412,-0.25993 0.594183,-0.0838 v 0 h 0.249801 l 0.253225,0.0838 0.259926,0.16764 0.168805,0.26028 v 0 l 0.249838,0.59556 v 0 l 0.08438,0.3441 v 0.26024 0 l -0.08438,0.51178 -0.08442,0.5117 v 0 l -0.08438,0.0842 v 0 l -0.249839,0.51174 -0.259926,0.51174 -0.334222,0.42788 -0.418642,0.3441 v 0 l -0.762916,0.6882 v 0 l -0.25319,0.16764 -0.08442,0.25181 v 0 l -0.843986,1.62783 v 0 l -0.259961,0.59556 v 0 l -0.16877,0.0923 h -0.08442 v 0 l -0.165417,-0.17611 v 0 l -0.08438,-0.25181 0.08438,-0.25993 v 0 l 0.334221,-0.77198 v 0 l 0.259927,-0.59592 v 0 z m 2.109999,-2.39137 v 0 l 0.08439,-0.0923 v 0 l 0.334185,-0.42792 v 0 l 0.337608,-0.76352 0.259964,-0.85584 v 0 -0.26027 0 l -0.168804,-0.25146 -0.175543,-0.17646 v 0 l -0.334222,-0.0838 -0.337574,0.0838 v 0 l -0.509799,0.26028 v 0 l -0.587375,0.34409 -0.509799,0.42789 v 0 l -0.503026,0.51177 -0.428731,0.59588 v 0 l -0.334221,0.51174 v 0 l -0.168768,0.42792 -0.259963,0.42788 v 0 l -0.08442,0.26028 v 0.25146 0 l 0.08442,0.26028 0.175543,0.16764 v 0 h 0.08442 v 0 l 0.418606,0.0842 0.337574,-0.0842 v 0 l 0.340995,-0.16764 0.337571,-0.26028 0.249838,-0.3441 0.259961,-0.33559 v 0 l 0.502991,-0.77167 v 0 l 0.08438,-0.16799 v 0 h 0.08439 l 0.165452,0.0838 v 0 l 0.09451,0.0842 v 0 z m 2.616306,8.45792 v 0 l 0.08442,0.34406 v 0 l 0.175543,0.2601 0.165452,0.25171 0.168769,0.17621 0.253188,0.16782 0.340995,0.0839 0.337574,0.0839 h 0.334222 l 0.34431,-0.16781 v 0 l 0.249838,-0.0839 0.168804,-0.17622 0.168804,-0.25174 0.08103,-0.2601 v 0 l 0.168769,-0.42796 v 0 -0.76351 l -0.168769,-0.6881 v 0 l -0.249833,-0.67959 -0.25319,-0.6882 v 0 l -0.425379,-0.85577 -0.587409,-0.77202 v 0 l -0.428731,-0.42792 -0.418642,-0.25146 -0.509765,-0.26024 -0.502989,-0.0838 v 0 h -0.428731 -0.503025 l -0.843987,0.25989 v 0 l -0.678569,0.33563 -0.337608,0.26028 -0.249801,0.25993 v 0 l -0.253188,0.42792 -0.175543,0.42788 v 0.41981 l 0.08438,0.42791 v 0 l 0.09116,0.25993 v 0 l 0.168767,0.34414 0.334222,0.2517 v 0 h 0.08442 v 0 h 0.08438 v 0 l 0.08439,-0.16781 v -0.0839 -0.17615 l -0.08439,-0.0838 v 0 l -0.168804,-0.16799 v 0 l -0.165374,-0.17611 v -0.25181 0 l 0.165381,-0.34406 v 0 l 0.25319,-0.42792 0.425413,-0.3441 v 0 l 0.502992,-0.25146 v 0 l 0.253187,-0.0842 v 0 l 0.425382,-0.17611 v 0 h 0.678566 l 0.587412,0.0838 v 0 h 0.168767 v 0 h 0.259964 l 0.165452,0.17646 v 0 l 0.337574,0.16764 0.334184,0.34407 0.513152,0.67973 v 0 l 0.418642,0.94809 0.340958,1.02365 v 0 0.34403 0.42792 0 0.25171 l -0.165452,0.16782 -0.09448,0.17621 -0.249835,0.0839 v 0 l -0.249838,0.0839 v 0 H 95.78485 l -0.344345,-0.0839 -0.249804,-0.16782 -0.168838,-0.34403 v 0 l -0.08435,-0.16781 v 0 l -0.165452,-0.42792 -0.259964,-0.34403 v 0 l 0.08442,-0.17625 v 0 l 0.175543,-0.25171 v 0 l 0.334221,-0.42792 0.41864,-0.26003 v 0 l 0.08435,-0.16799 0.09119,-0.16764 v 0 l -0.09119,-0.42792 v 0 L 95.440504,156.807 h -0.165417 v 0 l -0.253225,0.0841 -0.249801,0.17611 v 0 l -0.428731,0.51174 v 0 l -0.249804,0.42803 -0.337608,0.34406 v 0 l -0.425379,0.67963 v 0 l -0.253187,0.51181 -0.165418,0.51184 v 0 0.42796 l 0.08438,0.34399 v 0 l 0.165417,0.17621 h 0.08442 0.168767 l 0.08442,-0.17621 v 0 l 0.08103,-0.0839 v 0 l 0.344311,-0.42792 v 0 l 0.253224,-0.26014 0.165418,-0.2517 v 0 z m -9.972498,-0.3356 v 0 l -0.08438,0.16782 v 0 l -0.253188,0.2517 v 0 l -0.165418,0.17621 h -0.168804 v 0 l -0.175543,0.0839 v 0 l -0.587409,0.51181 v 0 l -0.334222,0.17622 v 0 l -0.259964,0.0839 -0.249801,-0.0839 v 0 l -0.168807,-0.17622 v 0 l -0.168804,-0.25171 -0.08438,-0.2601 -0.08103,-0.26014 0.08103,-0.33563 v 0 l 0.253188,-0.68802 v 0 l 0.503026,-0.76359 v 0 l 0.344347,-0.42788 v 0 l 0.418606,-0.34407 0.509764,-0.34413 v 0 l 0.253188,-0.0838 v 0 h 0.249838 l 0.253188,0.16767 v 0 l 0.175543,0.17643 v 0 l 0.08442,-0.0923 v 0 0 l 0.249804,-0.51206 0.249801,-0.42792 v 0 l 0.344344,-0.59556 v 0 l 0.253191,-0.3441 v 0 h 0.08442 l 0.08103,0.0838 v 0 l 0.253187,0.3441 v 0 0.26024 0 l -0.168804,0.42792 v 0 l -0.249835,0.76356 -0.344313,0.68795 v 0 l -0.503023,0.85587 v 0 l -0.08439,0.16782 v 0 l -0.08442,0.2601 v 0.16782 l 0.168805,0.17621 0.168804,0.16782 v 0 l 0.334219,0.0839 0.428731,0.0839 v 0 h 0.334221 v 0 h 0.08439 v 0 l 0.165417,0.0839 0.09451,0.0923 v 0 0.0839 0 0.16782 l -0.175511,0.1762 v 0 l -0.421992,0.0839 -0.418643,-0.0839 v 0 l -0.344344,-0.0923 -0.249801,-0.16781 -0.249804,-0.26014 -0.259961,-0.25171 v 0 z m -2.197735,0.76355 v 0 h 0.168804 l 0.08442,-0.0839 v 0 l 0.344347,-0.26014 v 0 l 0.584023,-0.51184 0.513151,-0.51181 v 0 l 0.334222,-0.42792 0.168767,-0.59577 v 0 -0.16778 l -0.168767,-0.0922 v 0 l -0.168804,0.0922 v 0 l -0.509765,0.3356 v 0 l -0.587409,0.60413 v 0 l -0.425381,0.59573 -0.337609,0.67966 v 0 0.17622 z m 4.820849,-0.0839 v 0 l 0.165417,-0.16781 0.253191,-0.17625 v 0 l 0.344344,-0.16778 v 0 l 0.08439,-0.0839 v -0.0839 0 l -0.08439,-0.26014 -0.08438,-0.0839 -0.175543,-0.17621 -0.168804,-0.0839 v 0 h -0.168805 v 0 l -0.503025,-0.16782 v 0 h -0.08103 v 0 l 0.165452,-0.26011 0.08438,-0.084 v 0 l 0.253224,-0.16774 0.334188,-0.17625 v 0 h 0.259961 0.249801 v 0 h 0.08439 v 0 h 0.168839 v -0.16782 0 -0.26003 0 l -0.08442,-0.16799 -0.168804,-0.0838 v 0 l -0.334222,-0.0838 -0.428731,0.0838 v 0 l -0.418605,0.25181 -0.425378,0.34396 v 0 l -0.168805,0.17618 -0.08439,0.16781 v 0 0.25171 l 0.08439,0.34407 0.08442,0.17621 0.249804,0.16778 v 0 l 0.259961,0.16782 v 0 l -0.165455,0.17621 v 0 l -0.09451,0.25171 -0.081,0.26013 v 0 l 0.081,0.34403 0.175541,0.33564 v 0 l 0.337608,0.17621 0.418608,0.16778 v 0 l 0.509762,0.0839 h 0.503026 v 0 h 0.513151 v 0 h 0.334222 l 0.08438,-0.16782 0.08439,-0.0839 v 0 -0.0839 0 l -0.08439,-0.0923 -0.08438,-0.0839 v 0 l -1.350398,-0.16781 v 0 l -0.509762,-0.0839 v 0 l -0.334188,-0.0923 v 0 l -0.08442,-0.0839 v 0 z m 17.153111,-14.36486 v 0 h -0.16545 v 0 l -0.0844,0.0838 v 0 0.1761 l 0.0844,0.168 v 0 l 0.24984,0.0838 v 0 l 0.67857,0.1761 v 0 l 0.4186,0.168 0.34435,0.34374 v 0 l 0.1688,0.168 0.16542,0.26024 v 0 0.16767 l -0.081,0.0838 v 0 l -0.16877,0.0923 -0.1688,0.0842 v 0 h -0.34097 -0.3376 l -0.67857,-0.17642 v 0 l -0.24984,-0.0838 v 0 -0.0838 l -0.0844,-0.0839 v 0 -0.17642 0 -0.0838 l -0.0844,-0.0838 v 0 l -0.0844,0.0838 h -0.0844 v 0 l -0.081,0.0838 v 0 l -0.0945,0.26028 0.0945,0.25989 v 0 0.16799 l 0.081,0.16764 v 0 l 0.25319,0.17646 0.24984,0.16764 v 0 l 0.33757,0.0838 0.34096,0.0842 v 0 h 0.50303 l 0.51315,-0.16799 v 0 l 0.24984,-0.0838 v 0 l 0.25318,-0.16799 0.0844,-0.25993 v 0 -0.16799 -0.25989 0 -0.3441 0 l -0.0844,-0.25185 -0.1688,-0.17607 v 0 l -0.24984,-0.42792 -0.4186,-0.16796 v 0 l -0.68196,-0.25996 z m 4.82082,9.91771 v 0 l 0.0844,-0.16764 v 0 l 0.081,-0.42792 v 0 l 0.25319,-0.51209 v 0 l 0.0844,-0.17607 v -0.25182 l -0.16881,-0.42792 v 0 l -0.0844,-0.0838 h -0.0844 v 0 h -0.16545 l -0.0844,0.0838 v 0 l -0.0844,0.168 v 0 l -0.1688,0.60399 v 0 l -0.25658,0.93966 v 0 l -0.1688,1.19147 v 0 l -0.25319,0.68816 v 0 l -0.16542,0.67966 v 0 l -0.0844,0.344 v 0 0.084 l 0.24981,0.0839 v 0 l 0.0844,-0.0839 v 0 l 0.25322,-0.25171 v 0 l 0.16538,-0.51184 0.17558,-0.42789 v 0 l 0.0844,-0.42792 v 0 z m -7.52496,-2.55902 v 0 l -0.42196,-0.0923 h -0.41864 v 0 l -0.25993,0.17611 -0.0844,0.25181 v 0 0.17608 0.16767 l 0.16877,0.0842 h 0.0912 v 0 h 0.16877 v 0 l 0.41864,0.0838 v 0 l 0.25322,0.0923 v 0 0.0838 0.0838 0 l -0.16883,0.16799 -0.16877,0.17607 v 0 l -0.33426,0.0842 -0.4287,0.0838 v 0 l -0.668475,0.0838 v 0 l -0.09112,0.0838 -0.168804,0.0923 v 0 l -0.08439,0.33564 v 0.17646 0.16764 0 l 0.168804,0.1761 0.259926,0.0841 v 0 l 0.418609,-0.0841 0.50976,-0.1761 v 0 l 0.58741,-0.16764 v 0 l 0.34435,-0.26028 0.16542,-0.25182 0.1688,-0.34374 0.0844,-0.34407 v 0 l -0.0844,-0.51209 v 0 l -0.0844,-0.34374 -0.0844,-0.168 -0.16542,-0.0838 v 0 z m 6.42778,6.83835 v 0 l -0.25318,-0.17624 v 0 l -0.17555,-0.0839 -0.1688,0.0839 v 0 l -0.0844,0.17624 -0.081,0.16782 0.081,0.16782 0.0844,0.0923 v 0 l 0.0844,0.16781 0.0844,0.0839 0.17554,-0.0839 0.16881,-0.0839 v 0 l 0.16541,-0.0839 0.0844,-0.17621 v 0 -0.16782 z" />
      <path
         inkscape:connector-curvature="0"
         id="path256"
         style="fill:#008ad0;fill-opacity:1;fill-rule:nonzero;stroke:none;stroke-width:0.35277775"
         d="m 40.004341,157.23492 v 3.33967 h 0.253189 v 0 h 0.249837 l 0.168769,0.0839 v 0 l 0.08103,0.16782 v 0.17621 0 0.16782 l -0.08103,0.0839 v 0 l -0.168769,0.0839 -0.249837,0.0923 h -1.265979 v 0 h -0.259926 l -0.168805,-0.0923 v 0 l -0.08442,-0.16782 -0.08438,-0.16782 v 0 l 0.08438,-0.17621 0.08442,-0.0839 v 0 l 0.168805,-0.0839 0.259926,-0.0839 h 0.165418 v -3.25554 h -0.249802 v 0 l -0.259962,-0.0841 -0.168804,-0.0839 v 0 l -0.08438,-0.0838 v -0.1761 0 -0.16796 l 0.08438,-0.16768 v 0 l 0.168804,-0.0842 h 0.259962 1.265978 v 0 h 0.249802 l 0.168804,0.0842 v 0 l 0.08438,0.0838 v 0.16768 0 0.17642 l -0.08438,0.16761 v 0 l -0.168804,0.0839 h -0.249802 z" />
      <path
         inkscape:connector-curvature="0"
         id="path258"
         style="fill:#008ad0;fill-opacity:1;fill-rule:nonzero;stroke:none;stroke-width:0.35277775"
         d="m 62.82564,156.89114 0.08438,3.25553 h 0.165417 v 0 h 0.25319 l 0.165418,0.0839 v 0 l 0.08442,0.16782 0.08439,0.17621 v 0 l -0.08439,0.16782 -0.08442,0.16782 v 0 l -0.165418,0.0923 h -0.25319 -1.181558 v 0 h -0.344347 l -0.165417,-0.0923 v 0 l -0.08442,-0.16782 v -0.16782 0 -0.17621 l 0.08442,-0.0839 v 0 l 0.165417,-0.0839 0.259927,-0.0839 h 0.25319 l -0.08439,-3.25554 h -0.168804 v 0 h -0.259927 l -0.165417,-0.0841 v 0 l -0.168805,-0.16767 v -0.16799 0 -0.17607 l 0.08439,-0.0839 v 0 l 0.168804,-0.16796 h 0.340958 1.181595 v 0 h 0.253187 l 0.168804,0.0841 v 0 l 0.081,0.16767 0.08442,0.17607 v 0 l -0.08442,0.168 -0.081,0.0839 v 0 l -0.168804,0.0838 -0.253187,0.0841 z" />
      <path
         inkscape:connector-curvature="0"
         id="path260"
         style="fill:#008ad0;fill-opacity:1;fill-rule:nonzero;stroke:none;stroke-width:0.35277775"
         d="m 35.352296,160.23056 1.181594,-2.91151 h -0.249838 v 0 h -0.253188 l -0.165418,-0.0841 v 0 l -0.09454,-0.16767 v -0.17611 0 -0.16796 l 0.09454,-0.0839 v 0 l 0.165418,-0.0838 0.253188,-0.0842 h 1.097174 v 0 h 0.253224 l 0.165418,0.0842 v 0 l 0.175542,0.16768 v 0.16796 0 l -0.08442,0.1761 -0.09112,0.16768 v 0 l -0.418642,0.0841 -1.610324,4.19531 H 34.93369 l -1.691358,-4.10302 v 0 l -0.428731,-0.0923 v 0 L 32.644797,157.151 v -0.16761 0 -0.17642 l 0.08442,-0.16768 v 0 l 0.175543,-0.0838 h 0.253188 1.097175 v 0 h 0.253188 l 0.165418,0.0838 v 0 l 0.168804,0.16768 v 0.17642 0 0.16761 l -0.08438,0.0839 v 0 l -0.168804,0.0841 -0.249838,0.0923 h -0.253189 z" />
      <path
         inkscape:connector-curvature="0"
         id="path262"
         style="fill:#008ad0;fill-opacity:1;fill-rule:nonzero;stroke:none;stroke-width:0.35277775"
         d="m 44.396424,156.5555 v 0 l 0.165417,-0.17642 v 0 h 0.253189 v 0 h 0.175542 l 0.08442,0.0923 v 0 l 0.08438,0.16799 0.08438,0.25181 v 0.68785 0 0.26024 l -0.08438,0.16778 v 0 l -0.168804,0.16782 h -0.175542 v 0 h -0.168769 l -0.08442,-0.0839 v 0 l -0.08103,-0.16781 -0.08438,-0.17615 v 0 l -0.08442,-0.25181 v 0 l -0.249805,-0.17611 -0.259927,-0.16802 v 0 h -0.253188 l -0.334257,-0.0838 v 0 l -0.334222,0.0838 -0.344311,0.0839 v 0 l -0.253188,0.26024 -0.249837,0.34406 v 0 l -0.168805,0.3356 -0.09112,0.51181 v 0.52028 0 0.3356 l 0.09112,0.26014 0.168805,0.2517 0.165417,0.17621 v 0 l 0.253189,0.16782 0.334221,0.17621 h 0.259927 l 0.418641,0.0839 v 0 l 0.428731,-0.0839 0.334222,-0.0923 v 0 l 0.418641,-0.25174 v 0 l 0.168769,-0.26014 v 0 h 0.175542 v 0 h 0.168804 l 0.08438,0.0839 v 0 l 0.165417,0.17621 v 0.16782 0 0.17621 l -0.165417,0.16782 v 0 l -0.253189,0.2601 -0.344311,0.25171 v 0 l -0.584059,0.17625 h -0.597535 v 0 h -0.678563 l -0.668443,-0.26014 v 0 l -0.428731,-0.2601 -0.418606,-0.51185 v 0 l -0.253188,-0.51184 -0.08103,-0.59574 v -0.60417 0 l 0.08103,-0.5957 0.168805,-0.59577 v 0 l 0.418606,-0.51174 0.42873,-0.42792 v 0 l 0.58741,-0.17642 0.509764,-0.16768 v 0 l 0.67183,0.0839 v 0 z" />
      <path
         inkscape:connector-curvature="0"
         id="path264"
         style="fill:#008ad0;fill-opacity:1;fill-rule:nonzero;stroke:none;stroke-width:0.35277775"
         d="m 48.535318,157.15103 0.08439,3.24735 h 0.509764 v 0 h 0.253188 l 0.168804,0.0839 v 0 l 0.08103,0.17618 0.08438,0.16781 v 0 l -0.08438,0.17622 -0.08103,0.0839 v 0 l -0.168804,0.0839 -0.253188,0.0839 h -1.94116 v 0 h -0.253189 l -0.175542,-0.0839 v 0 l -0.08442,-0.16782 v -0.17621 0 -0.16782 l 0.08442,-0.0839 v 0 l 0.175542,-0.0923 0.253189,-0.0839 h 0.584024 l -0.08438,-3.24736 h -0.92837 l 0.09116,0.77209 v 0 l -0.09116,0.25171 -0.08442,0.17625 v 0 l -0.08438,0.16774 h -0.165417 v 0 h -0.168805 l -0.168804,-0.0839 v 0 l -0.08438,-0.16781 v -0.2601 l -0.08103,-1.71175 h 4.307698 l 0.08103,1.62786 v 0 l -0.08103,0.2517 -0.08438,0.17625 v 0 l -0.08442,0.0839 h -0.168769 v 0 h -0.175577 l -0.165418,-0.0839 v 0 l -0.08438,-0.17625 v -0.2517 -0.77209 z" />
      <path
         inkscape:connector-curvature="0"
         id="path266"
         style="fill:#008ad0;fill-opacity:1;fill-rule:nonzero;stroke:none;stroke-width:0.35277775"
         d="m 55.466096,158.60278 v 0 0.60413 l -0.165417,0.51181 -0.168805,0.42795 -0.344346,0.33564 v 0 l -0.334186,0.34399 -0.418642,0.26014 -0.428731,0.16778 h -0.418606 v 0 h -0.428766 l -0.334221,-0.0839 -0.418607,-0.16782 -0.344346,-0.2601 v 0 l -0.334221,-0.42792 -0.253189,-0.51184 -0.165417,-0.51185 -0.08439,-0.60417 v 0 -0.51181 l 0.168769,-0.59584 0.249837,-0.42795 0.334222,-0.42785 v 0 l 0.344346,-0.25185 0.418606,-0.25993 0.337608,-0.0838 0.425345,-0.0841 v 0 l 0.418606,0.0841 0.428766,0.0838 0.418606,0.25993 0.334222,0.33567 v 0 l 0.344346,0.34403 0.253189,0.42795 0.08103,0.51195 z m -0.847337,0.0839 v 0 -0.41953 l -0.08103,-0.34399 -0.168804,-0.25996 -0.253189,-0.25182 v 0 l -0.165417,-0.26031 -0.259962,-0.0838 -0.334222,-0.0838 -0.253188,-0.0923 v 0 l -0.249802,0.0923 -0.259962,0.0838 -0.253189,0.16767 -0.249802,0.17643 v 0 l -0.168804,0.33563 -0.175577,0.26003 -0.08438,0.34407 v 0.33556 0 0.42795 l 0.08438,0.26011 0.175577,0.34403 0.168804,0.2517 v 0 l 0.249802,0.17625 0.253189,0.16782 0.259962,0.0839 0.334221,0.0839 v 0 l 0.249802,-0.0839 0.253189,-0.0839 0.259962,-0.16782 0.249802,-0.17625 v 0 l 0.168804,-0.33559 0.168804,-0.26014 0.08103,-0.34399 z" />
      <path
         inkscape:connector-curvature="0"
         id="path268"
         style="fill:#008ad0;fill-opacity:1;fill-rule:nonzero;stroke:none;stroke-width:0.35277775"
         d="m 57.241838,159.20691 v 1.02365 h 0.337609 v 0 l 0.259926,0.0839 0.165418,0.0839 v 0 l 0.08438,0.0839 0.08442,0.17618 v 0 l -0.08442,0.16782 -0.08438,0.17621 v 0 l -0.165418,0.0839 h -0.259926 -1.265979 v 0 H 56.06028 l -0.165453,-0.0839 v 0 l -0.08438,-0.0923 v -0.16782 0 -0.16782 l 0.08438,-0.17621 v 0 l 0.165453,-0.0839 h 0.253188 0.168805 l -0.08442,-3.33107 h -0.168769 v 0 h -0.249837 l -0.168804,-0.0923 v 0 l -0.09116,-0.16795 v -0.16768 0 -0.17642 l 0.09116,-0.0838 v 0 l 0.168804,-0.0839 0.249837,-0.0838 h 1.944511 v 0 h 0.334222 l 0.428731,0.0838 0.334222,0.16767 0.253188,0.17643 v 0 l 0.165451,0.16767 0.175509,0.26025 0.08442,0.33563 0.08439,0.25993 v 0 l -0.08439,0.42802 -0.17554,0.34406 v 0 l -0.249838,0.25171 -0.418606,0.2601 v 0 l 0.584057,0.59574 v 0 l 0.513117,0.77195 v 0 h 0.418606 v 0 l 0.175577,0.16782 v 0.2601 0 0.16781 l -0.09116,0.0839 v 0 l -0.168804,0.0923 -0.249838,0.0839 h -0.513114 v 0 l -0.503026,-0.77194 -0.418607,-0.51185 -0.428731,-0.34403 -0.334257,-0.2517 z m 0,-0.85584 h 0.68192 v 0 h 0.334221 l 0.249838,-0.084 v 0 l 0.344346,-0.17618 0.168803,-0.16781 v 0 l 0.08439,-0.17615 0.08103,-0.16799 v 0 l -0.08103,-0.25993 -0.168804,-0.16802 v 0 l -0.344312,-0.16761 h -0.418641 -0.931757 z" />
      <path
         inkscape:connector-curvature="0"
         id="path270"
         style="fill:#008ad0;fill-opacity:1;fill-rule:nonzero;stroke:none;stroke-width:0.35277775"
         d="m 67.811872,159.54251 -2.028931,0.0923 -0.175543,0.51184 h 0.259963 v 0 h 0.249802 l 0.168804,0.0839 v 0 l 0.08438,0.0839 v 0.16782 0 0.17618 l -0.08438,0.16781 v 0 l -0.168804,0.0839 h -0.249802 l -1.19172,0.0923 v 0 l -0.249835,-0.0923 -0.16877,-0.0839 v 0 l -0.08442,-0.0839 v -0.16782 0 -0.17621 l 0.08442,-0.16782 v 0 l 0.16877,-0.0839 h 0.334221 l 1.191718,-3.33967 h -0.513151 v 0 h -0.249801 l -0.168805,-0.0838 v 0 l -0.08438,-0.16768 -0.08442,-0.17642 v 0 l 0.08442,-0.16768 0.08438,-0.0838 v 0 l 0.168805,-0.0841 0.249801,-0.0923 h 1.779129 l 1.691323,4.1032 v 0 l 0.418642,0.0923 v 0 l 0.168767,0.0839 v 0.25174 0 0.17618 l -0.08438,0.0839 v 0 l -0.168804,0.0839 -0.249802,0.0839 h -1.097174 v 0 h -0.259966 l -0.253188,-0.0839 v 0 l -0.08438,-0.16782 v -0.17618 0 -0.16781 l 0.08438,-0.0839 v 0 l 0.168804,-0.0839 0.259927,-0.0923 h 0.249838 z m -0.344348,-0.85588 -0.671793,-1.61939 -0.678568,1.71171 z" />
      <path
         inkscape:connector-curvature="0"
         id="path272"
         style="fill:#008ad0;fill-opacity:1;fill-rule:nonzero;stroke:none;stroke-width:0.35277775"
         d="m 70.593666,160.65848 v 0 l -0.168804,0.16782 v 0 h -0.165417 v 0 h -0.168804 l -0.168805,-0.0839 v 0 l -0.08103,-0.16782 v -0.2601 -0.59577 0 -0.2601 l 0.08103,-0.16782 v 0 l 0.168805,-0.0839 h 0.168804 v 0 l 0.249801,0.0839 v 0 l 0.168804,0.25171 v 0 l 0.09112,0.17621 v 0 l 0.418642,0.25171 v 0 l 0.337608,0.0839 0.340958,0.0923 v 0 l 0.503026,-0.0923 0.337574,-0.16782 v 0 l 0.175543,-0.25171 0.08442,-0.17621 v 0 -0.16782 l -0.08442,-0.17621 v 0 l -0.175543,-0.0839 -0.253188,-0.0839 v 0 l -0.67183,-0.16782 v 0 l -0.594148,-0.0923 -0.418642,-0.16781 v 0 l -0.344311,-0.25171 -0.249838,-0.2601 v 0 l -0.16877,-0.34386 -0.08442,-0.3441 v 0 l 0.08442,-0.33563 0.08439,-0.26024 0.168804,-0.25185 0.165417,-0.25993 v 0 l 0.253188,-0.16796 0.344347,-0.1761 0.334222,-0.0838 h 0.334222 v 0 h 0.594148 v 0 l 0.513149,0.25992 v 0 l 0.168804,-0.1761 h 0.165383 v 0 h 0.168804 l 0.165452,0.0838 v 0 l 0.08439,0.17642 v 0.2515 0.68816 0 0.25181 l -0.08439,0.17611 v 0 l -0.165452,0.0838 h -0.168804 v 0 h -0.08438 l -0.165417,-0.0838 v 0 l -0.08439,-0.26024 v 0 l -0.175541,-0.2515 v 0 l -0.168804,-0.17642 -0.168804,-0.0838 v 0 l -0.249838,-0.0839 -0.253188,-0.0838 v 0 l -0.425344,0.0838 -0.334222,0.16767 v 0 l -0.168804,0.26025 -0.08442,0.16767 v 0 0.17643 l 0.08442,0.16764 v 0 l 0.168804,0.0842 0.165418,0.0838 v 0 l 0.762952,0.17614 v 0 l 0.58741,0.16781 0.428765,0.0839 v 0 l 0.334187,0.26011 0.249838,0.2517 v 0 l 0.168804,0.34407 0.09116,0.42792 v 0 0.2601 l -0.09116,0.25171 -0.168804,0.26013 -0.165417,0.25175 v 0 l -0.337609,0.17617 -0.34096,0.16782 -0.337574,0.0839 -0.41864,0.0923 v 0 l -0.678569,-0.0923 v 0 z" />
      <path
         inkscape:connector-curvature="0"
         id="path274"
         style="fill:#008ad0;fill-opacity:1;fill-rule:nonzero;stroke:none;stroke-width:0.35277775"
         d="m 77.355639,156.29526 -0.165418,2.48369 v 0 l -0.08442,0.16782 -0.08439,0.16782 v 0 l -0.08438,0.0923 h -0.165417 v 0 h -0.17893 l -0.165452,-0.0923 v 0 l -0.08435,-0.16782 v -0.16782 l -0.253225,-2.48369 v 0 l -0.08103,-0.25181 v 0 l 0.08103,-0.25993 0.08442,-0.26028 v 0 l 0.253153,-0.16764 0.249838,-0.0838 v 0 l 0.259961,0.0838 0.253188,0.16764 v 0 l 0.081,0.17646 0.08442,0.25146 v 0 z m -0.08442,4.10312 v 0 0.17621 l -0.081,0.16782 v 0 l -0.168804,0.0839 -0.249801,0.0839 v 0 l -0.17893,-0.0839 -0.165452,-0.0839 v 0 l -0.08435,-0.0839 -0.08442,-0.17618 v 0 l 0.08442,-0.16781 0.08435,-0.16782 v 0 l 0.165452,-0.0923 h 0.17893 v 0 h 0.249801 l 0.08439,0.0923 v 0 l 0.165418,0.16782 z" />
      <path
         inkscape:connector-curvature="0"
         id="path276"
         style="fill:#008ad0;fill-opacity:1;fill-rule:nonzero;stroke:none;stroke-width:0.35277775"
         d="m 36.787078,151.08459 0.09116,2.39137 v 0 l -0.09116,0.42792 -0.08442,0.3441 -0.168769,0.25182 -0.249837,0.34406 v 0 l -0.253189,0.25146 -0.34096,0.17646 -0.337608,0.0838 h -0.334221 v 0 h -0.428731 l -0.334221,-0.0838 v 0 l -0.334222,-0.17646 -0.259927,-0.25146 v 0 l -0.253224,-0.26024 -0.165417,-0.25182 v 0 l -0.168769,-0.3441 v -0.42792 l -0.08442,-2.39137 v 0 h -0.175542 l -0.168804,-0.0838 v 0 l -0.08103,-0.17611 -0.08438,-0.16799 v 0 l 0.08438,-0.17607 0.08103,-0.0839 v 0 l 0.168804,-0.0838 0.259962,-0.0841 h 1.097174 v 0 h 0.253189 l 0.165417,0.0841 v 0 l 0.08438,0.16768 v 0.17607 0 0.16799 l -0.08438,0.0838 v 0 l -0.165417,0.0923 -0.253189,0.0838 h -0.344346 l 0.09451,2.47555 v 0 l 0.08442,0.34374 0.249802,0.26028 v 0 l 0.334221,0.25182 0.428731,0.0838 v 0 l 0.249837,-0.0838 0.253189,-0.0842 v 0 l 0.249802,-0.16764 0.178929,-0.26028 v 0 l 0.08103,-0.16768 v -0.26025 l -0.08103,-2.47519 -0.259927,0.0838 v 0 l -0.253189,-0.0838 -0.168804,-0.0923 v 0 l -0.08103,-0.0838 -0.08438,-0.16799 v 0 l 0.08438,-0.17607 0.08103,-0.16768 v 0 l 0.168804,-0.0841 h 0.253189 1.097174 v 0 h 0.259962 l 0.165418,0.0841 v 0 l 0.08438,0.0838 v 0.17611 0 0.16799 l -0.08438,0.16764 v 0 l -0.165418,0.0923 z" />
      <path
         inkscape:connector-curvature="0"
         id="path278"
         style="fill:#008ad0;fill-opacity:1;fill-rule:nonzero;stroke:none;stroke-width:0.35277775"
         d="m 38.907167,151.84814 v 2.48366 h 0.334221 v 0 l 0.253189,0.0838 0.165418,0.0842 v 0 l 0.08438,0.0838 v 0.17607 0 0.168 l -0.08438,0.16764 v 0 l -0.165418,0.0923 h -0.253189 -1.097174 v 0 H 37.89099 l -0.175542,-0.0923 v 0 l -0.081,-0.0838 -0.08442,-0.16764 v 0 l 0.08442,-0.168 0.081,-0.17607 v 0 l 0.175542,-0.0842 h 0.168805 v -3.33103 H 37.89099 v 0 h -0.25654 l -0.168804,-0.0923 v 0 l -0.08442,-0.16764 -0.08438,-0.16799 v 0 l 0.08438,-0.17611 0.08442,-0.0838 v 0 l 0.168804,-0.0841 0.25654,-0.0838 h 0.925019 l 2.201122,3.331 v -2.56748 l -0.340995,0.0923 v 0 l -0.253189,-0.0923 -0.165417,-0.0838 v 0 l -0.08439,-0.0838 -0.08442,-0.168 v 0 l 0.08442,-0.1761 0.08439,-0.16796 v 0 l 0.165417,-0.0838 h 0.253189 l 1.097209,-0.0923 v 0 l 0.259927,0.0923 0.165417,0.0838 v 0 l 0.08442,0.0841 v 0.16768 0 0.17607 l -0.08442,0.16799 v 0 l -0.165417,0.0838 h -0.259927 l 0.09112,4.1953 h -0.762953 z" />
      <path
         inkscape:connector-curvature="0"
         id="path280"
         style="fill:#008ad0;fill-opacity:1;fill-rule:nonzero;stroke:none;stroke-width:0.35277775"
         d="m 44.22762,150.9923 0.08438,3.25568 h 0.168804 v 0 h 0.249837 l 0.175542,0.0838 v 0 l 0.08439,0.168 0.08442,0.17607 v 0 l -0.08442,0.16799 -0.08439,0.16764 v 0 l -0.175542,0.0838 h -0.249837 -1.181558 v 0 h -0.253224 l -0.165418,-0.0838 v 0 l -0.178893,-0.16764 v -0.16799 0 -0.17607 l 0.08438,-0.0842 v 0 l 0.175542,-0.0838 0.253189,-0.0838 h 0.249837 l -0.08438,-3.25568 h -0.165453 v 0 h -0.253189 l -0.175542,-0.0838 v 0 l -0.08438,-0.168 -0.08103,-0.17607 v 0 -0.16767 l 0.165418,-0.0841 v 0 l 0.175542,-0.0838 0.253189,-0.0923 h 1.181594 v 0 h 0.249837 l 0.168769,0.0923 v 0 l 0.175542,0.16795 v 0.16768 0 0.17607 l -0.175542,0.0842 v 0 l -0.168769,0.0838 -0.249837,0.0838 z" />
      <path
         inkscape:connector-curvature="0"
         id="path282"
         style="fill:#008ad0;fill-opacity:1;fill-rule:nonzero;stroke:none;stroke-width:0.35277775"
         d="m 45.922329,154.24798 v -3.3395 0 h -0.259927 l -0.168804,-0.0838 v 0 l -0.08442,-0.0842 -0.08438,-0.17607 v 0 l 0.08438,-0.16767 0.08442,-0.16796 v 0 l 0.168804,-0.0923 h 0.259927 l 1.684584,-0.0839 v 0 l 0.425379,0.0839 0.418606,0.0923 v 0 l 0.337609,0.16796 0.259962,0.16767 v 0 l 0.418606,0.52017 v 0 l 0.249802,0.59591 v 0 l 0.08442,0.34375 0.09116,0.42824 v 0.33563 0 l -0.09116,0.52021 -0.08442,0.41945 v 0 l -0.249802,0.42792 -0.253189,0.25993 v 0 l -0.509764,0.42823 v 0 l -0.418641,0.16764 h -0.597535 l -1.684584,0.0838 v 0 l -0.256576,-0.0838 -0.168804,-0.0838 v 0 l -0.08438,-0.0838 -0.08442,-0.16799 v 0 l 0.08442,-0.17607 0.08438,-0.16799 v 0 l 0.168804,-0.0838 z m 0.837247,0 h 0.847337 v 0 l 0.509799,-0.0923 0.253189,-0.0838 v 0 l 0.334221,-0.25184 0.175543,-0.26025 v 0 l 0.08438,-0.34375 0.08442,-0.42791 v -0.42828 0 l -0.08442,-0.33559 -0.08438,-0.34375 v 0 l -0.259962,-0.3441 -0.334222,-0.25181 v 0 l -0.253189,-0.0923 -0.425379,-0.0838 h -0.931757 z" />
      <path
         inkscape:connector-curvature="0"
         id="path284"
         style="fill:#008ad0;fill-opacity:1;fill-rule:nonzero;stroke:none;stroke-width:0.35277775"
         d="m 57.579447,154.67587 v 0 l -0.168804,0.16799 v 0 h -0.168805 v 0 h -0.165417 l -0.08442,-0.0842 v 0 l -0.08438,-0.17607 -0.08439,-0.25181 v -0.60403 0 -0.25181 l 0.08439,-0.16764 v 0 l 0.168804,-0.0923 h 0.165417 v 0 h 0.253189 v 0 l 0.168804,0.25992 v 0 l 0.08103,0.25182 v 0 l 0.428731,0.25992 v 0 l 0.334222,0.0842 0.344346,0.0838 v 0 l 0.50299,-0.0838 0.418643,-0.25184 v 0 l 0.17554,-0.17608 v -0.16799 0 -0.16764 l -0.08442,-0.17646 v 0 l -0.175509,-0.0838 -0.165451,-0.0838 v 0 l -0.762953,-0.1761 v 0 l -0.58741,-0.168 -0.428731,-0.0838 v 0 l -0.334221,-0.26028 -0.249838,-0.25177 v 0 L 56.992,151.6805 v -0.42792 0 -0.26028 l 0.08442,-0.25181 0.165417,-0.25993 0.168805,-0.25178 v 0 l 0.253188,-0.17614 0.34096,-0.16799 0.337608,-0.0838 0.334222,-0.0838 v 0 l 0.678532,0.0838 v 0 l 0.418643,0.25181 v 0 l 0.17554,-0.16799 h 0.168804 v 0 h 0.16877 l 0.165418,0.0839 v 0 l 0.08442,0.16799 v 0.26025 0.68784 0 0.25181 l -0.08442,0.17611 v 0 l -0.08438,0.0838 H 60.20253 v 0 h -0.168805 l -0.168804,-0.0838 v 0 l -0.09112,-0.25993 v 0 l -0.168805,-0.34409 v 0 l -0.08103,-0.0838 -0.253188,-0.168 v 0 h -0.249804 l -0.259961,-0.0922 v 0 l -0.418606,0.0922 -0.337608,0.168 v 0 l -0.165418,0.16764 -0.09451,0.26027 v 0 l 0.09451,0.16764 0.08439,0.17611 v 0 l 0.08103,0.0842 0.168804,0.0838 v 0 l 0.847371,0.16764 v 0 l 0.502992,0.17643 0.425378,0.0838 v 0 l 0.337574,0.16764 0.249838,0.3441 v 0 l 0.168804,0.3441 0.09116,0.42791 v 0 0.25182 l -0.09116,0.25992 -0.168804,0.26028 -0.168804,0.16764 v 0 l -0.334222,0.26025 -0.344313,0.16799 -0.334256,0.0838 h -0.418605 v 0 h -0.678579 v 0 z" />
      <path
         inkscape:connector-curvature="0"
         id="path286"
         style="fill:#008ad0;fill-opacity:1;fill-rule:nonzero;stroke:none;stroke-width:0.35277775"
         d="m 65.104372,152.62013 0.08442,1.28375 2.109964,-0.0838 v -0.42788 0 -0.26028 l 0.08438,-0.16764 v 0 l 0.168804,-0.0838 h 0.165418 v 0 h 0.178929 l 0.081,0.0838 v 0 l 0.08442,0.16764 0.08438,0.26028 v 1.28372 l -3.889057,0.0838 v 0 h -0.249838 l -0.259927,-0.0838 v 0 l -0.08442,-0.17607 v -0.16799 0 -0.17611 l 0.08442,-0.0838 v 0 l 0.175543,-0.0842 0.249801,-0.0838 h 0.168804 l -0.08438,-3.24721 h -0.08442 v 0 l -0.249801,-0.0923 -0.175543,-0.0839 v 0 l -0.168804,-0.0838 v -0.16796 0 -0.17614 l 0.168804,-0.16799 v 0 l 0.175543,-0.0838 h 0.249801 l 3.723677,-0.0838 v 1.27529 0 0.26028 l -0.08442,0.16764 v 0 l -0.175543,0.0923 -0.168805,0.0838 v 0 l -0.168767,-0.0838 -0.08103,-0.0923 v 0 l -0.168804,-0.16764 v -0.26028 -0.42789 h -1.944547 v 1.28373 h 0.762989 v 0 l 0.08438,-0.42792 v 0 l 0.08438,-0.16764 0.249838,-0.0842 v 0 h 0.168804 l 0.081,0.16799 v 0 l 0.08442,0.17611 0.08438,0.25181 v 0.93962 0 l -0.08438,0.3441 v 0 l -0.08442,0.168 -0.249801,0.0923 v 0 l -0.168804,-0.0923 -0.165418,-0.168 v 0 l -0.08438,-0.42792 z" />
      <path
         inkscape:connector-curvature="0"
         id="path288"
         style="fill:#008ad0;fill-opacity:1;fill-rule:nonzero;stroke:none;stroke-width:0.35277775"
         d="m 69.921836,151.25258 v 2.56745 h 0.337609 v 0 h 0.249801 l 0.168804,0.0838 v 0 l 0.09112,0.16799 0.08442,0.17611 v 0 l -0.08442,0.16764 -0.09112,0.0842 v 0 l -0.168804,0.0838 -0.249801,0.0923 h -1.100561 v 0 h -0.249838 l -0.175543,-0.0923 v 0 l -0.08438,-0.16799 v -0.16764 0 -0.17611 l 0.08438,-0.0842 v 0 l 0.175543,-0.0838 0.249838,-0.0838 -0.08103,-3.25561 H 68.90905 v 0 l -0.259927,-0.0839 -0.168804,-0.0838 v 0 l -0.08103,-0.0841 v -0.17611 0 -0.16799 l 0.08103,-0.16768 v 0 l 0.168804,-0.0838 h 0.259927 1.01279 l 2.113315,3.33104 v -2.56748 h -0.34431 v 0 h -0.249838 l -0.168805,-0.0838 v 0 l -0.08438,-0.16796 v -0.17614 0 -0.168 l 0.08438,-0.0838 v 0 l 0.168805,-0.0838 0.249838,-0.0923 h 1.107297 v 0 h 0.249803 l 0.168805,0.0923 v 0 l 0.08438,0.16764 0.08442,0.168 v 0 l -0.08442,0.17614 -0.08438,0.0838 v 0 l -0.168805,0.0841 -0.165417,0.0838 0.08442,4.10305 h -0.847371 z" />
      <path
         inkscape:connector-curvature="0"
         id="path290"
         style="fill:#008ad0;fill-opacity:1;fill-rule:nonzero;stroke:none;stroke-width:0.35277775"
         d="m 56.64769,151.76432 v 0 l -0.08442,0.59553 v 0 l -0.081,0.52056 v 0 l -0.253189,0.51173 v 0 l -0.249837,0.42789 v 0 l -0.513151,0.33567 v 0 l -0.249802,0.0923 h -0.253188 v 0 h -0.344344 v 0 l -0.334221,-0.17611 v 0 l -0.168805,-0.16799 v 0 l -0.08103,-0.25993 v 0 l -0.344346,0.25993 v 0 l -0.253189,0.25181 v 0 l -0.334221,0.0923 v 0 h -0.249802 v 0 h -0.344347 v 0 L 52.25561,154.0719 v 0 l -0.165421,-0.168 v 0 l -0.08442,-0.1761 v 0 l -0.08438,-0.25182 v 0 -0.34409 0 -0.42792 0 l 0.08438,-0.42792 v 0 l 0.168805,-0.42789 v 0 l 0.249802,-0.42792 v 0 l 0.428766,-0.33563 v 0 h 0.249802 l 0.253188,-0.0923 v 0 h 0.249837 v 0 l 0.259963,0.0923 v 0 l 0.168768,0.16799 v 0 l 0.249838,0.25993 v -0.3441 0 l 0.08438,-0.0838 v 0 h 0.334222 v 0 h 0.175542 v 0 h 0.08442 v 0 h 0.08438 v 0 0.0838 l -0.344346,1.79582 v 0 0.25181 0.1761 0 l 0.175542,0.0838 h 0.168804 v 0 l 0.253197,-0.0838 v 0 l 0.165417,-0.1761 v 0 l 0.168804,-0.33563 v 0 l 0.08439,-0.3441 v 0 -0.3441 0 -0.34407 0 L 55.6349,151.2526 v 0 l -0.08438,-0.26028 -0.168804,-0.25181 v 0 l -0.249838,-0.17607 -0.344346,-0.16768 v 0 l -0.418606,-0.0841 h -0.594148 v 0 l -0.67183,0.0841 v 0 l -0.509764,0.25993 v 0 l -0.502991,0.25181 v 0 l -0.253223,0.42792 v 0 l -0.259927,0.51174 v 0 l -0.165418,0.51171 v 0 l -0.08442,0.52056 v 0 0.42791 0 0.41946 l 0.08442,0.3441 v 0 l 0.165418,0.34374 0.168769,0.26025 v 0 l 0.259961,0.16799 0.334222,0.16764 v 0 l 0.513151,0.0838 h 0.50299 v 0 h 0.5098 v 0 l 0.418606,-0.0838 v 0 l 0.334221,-0.0838 v 0 l 0.168769,-0.0838 v 0 0 0 l 0.09116,0.0838 v 0 0.0838 0 0.17611 0 0.16799 0 0.0838 0 0.0838 0 l -0.09116,0.0923 v 0 h -0.168773 v 0 l -0.249837,0.0842 v 0 l -0.50299,0.0838 v 0 l -0.594184,0.0838 v 0 H 52.59318 l -0.587411,-0.16764 v 0 l -0.51315,-0.17646 -0.334222,-0.25146 v 0 l -0.334186,-0.42792 -0.175578,-0.42824 v 0 l -0.168768,-0.42792 v -0.59556 0 -0.60402 0 l 0.168768,-0.67973 v 0 l 0.175578,-0.68817 v 0 l 0.334186,-0.59556 v 0 l 0.503026,-0.51205 v 0 l 0.594184,-0.3441 v 0 l 0.762952,-0.34375 v 0 l 0.847373,-0.0842 v 0 l 0.671794,0.0842 0.594148,0.0922 v 0 l 0.418642,0.16764 0.428731,0.25185 v 0 l 0.249837,0.34406 0.253189,0.3441 v 0 l 0.081,0.42792 z m -2.61299,0.42789 v 0 l -0.259926,-0.34407 v 0 l -0.168805,-0.0838 h -0.168804 v 0 h -0.165417 v 0 l -0.253189,0.25993 v 0 l -0.08442,0.16796 v 0 l -0.081,0.3441 v 0 l -0.09455,0.25181 v 0 0.25993 0 0.16799 l 0.09455,0.1761 v 0 l 0.165417,0.0838 0.168804,0.0838 v 0 l 0.08439,-0.0838 v 0 l 0.165417,-0.0838 v 0 l 0.253189,-0.0838 v 0 l 0.175578,-0.26027 z" />
    </g>
  </g>
</svg>
