<svg xmlns="http://www.w3.org/2000/svg" xmlns:xlink="http://www.w3.org/1999/xlink" width="400" height="530.669"><defs><linearGradient id="a" gradientTransform="scale(20.8) rotate(-60 4.6 -1.7)" gradientUnits="userSpaceOnUse" x2="1"><stop offset="0" stop-color="#6e99af"/><stop offset="1" stop-color="#055771"/></linearGradient><linearGradient xlink:href="#a" id="b" gradientUnits="userSpaceOnUse" gradientTransform="scale(204.8) rotate(60 -1 2.1)" x2="1"/></defs><path d="M304.42 200.572h95.413V0H304.42v200.572z" fill="#055671" fill-rule="evenodd"/><path d="M390.562 268.552l9.422-37.404-95.54-14.512-.02 1.454-1.395 12.066-2.654 11.84-3.89 11.504-5.06 11.044-6.18 10.444-7.242 9.747-8.224 8.93-9.117 8.018-9.904 7.035-10.583 5.954-11.15 4.814-11.585 3.616-11.91 2.397-12.084 1.13-12.134-.138-12.065-1.405-11.85-2.653-11.506-3.87-11.033-5.06-10.443-6.19-9.747-7.252-8.93-8.224-8.028-9.108-14.758 11.682 3.262 4.127-38.475 32.707L75.42 358.11l31.54-39.46 8.44 6.28-28.71 41.56 33.69 18.776L140.628 339l9.776 3.88-16.968 47.564 37.405 9.422 7.586-49.94 10.444 1.227-4.087 50.335 38.564-.58-5.59-50.197 10.404-1.522 9.09 49.676 37.1-10.542-18.403-47.034 9.668-4.165 21.635 45.628 33.1-19.787-29.937-40.667 8.244-6.524 32.698 38.476 26.872-27.678-39.448-31.53 6.277-8.448 41.55 28.7 18.777-33.692-46.267-20.24 3.88-9.776 47.565 16.968z" fill="#fbab18" fill-rule="evenodd"/><path d="M178.868 1.11l5.6 50.186-10.405 1.533-9.088-49.677-37.1 10.542 18.393 47.034-9.658 4.165-21.635-45.63-33.102 19.79L111.81 79.72l-8.242 6.525-32.71-38.476L44 75.446l39.448 31.53-6.28 8.45-41.55-28.71-18.776 33.69 46.258 20.26-3.872 9.766-47.573-16.968L2.24 170.87l49.932 7.584-1.218 10.444L.62 184.81l.58 38.575 50.186-5.6 1.533 10.405-49.678 9.088 10.533 37.11 47.043-18.403 4.176 9.648-45.638 21.636 19.778 33.11L79.81 290.43l3.262 4.127 14.758-11.683-7.025-9.904L84.85 262.4l-4.814-11.15-3.625-11.585-2.387-11.908-1.14-12.085.148-12.144 1.396-12.065 2.663-11.85 3.87-11.495 5.06-11.034 6.19-10.454 7.25-9.746 8.224-8.93 9.108-8.028 9.904-7.026 10.582-5.954 11.142-4.804 11.593-3.626 11.9-2.397 12.094-1.13 12.134.137 12.066 1.405 1.425.314L217.443.53l-38.574.58z" fill="#231f20" fill-rule="evenodd"/><path d="M253.71 419.82c-.432.628-.815 1.267-1.237 1.896 32.423 9.854 60.572 35.626 82.482 60.19 22.49 25.22 44.577 50.893 67.873 75.27 7.39-6.033 14.08-13.176 19.75-21.45 11.445-16.672 17.262-35.546 17.89-54.37-19.64-16.773-39.615-34.635-52.83-51.947-10.886-14.267-21.27-34.3-30.065-52.193-6.406-1.238-12.88-1.837-19.336-1.837-32.62-.01-64.68 15.524-84.526 44.44m26.48 142.386c33.907 23.276 76.853 23.335 110.08 3.724-14.235-14.954-28.03-30.37-41.697-45.884-26.597-30.193-60.75-74.8-103.34-85.34-20.703 44.526-6.88 98.79 34.957 127.5" fill="url(#b)" transform="translate(-150 -267)"/><path d="M58.41 440.315c-2.84-3.046-6.13-5.434-9.874-7.153-3.753-1.72-7.703-2.574-11.87-2.574-3.968 0-7.7.825-11.2 2.476-3.497 1.66-6.533 3.88-9.117 6.67-2.585 2.79-4.63 6.014-6.142 9.68-1.513 3.664-2.27 7.505-2.27 11.524 0 4.028.757 7.87 2.27 11.535s3.577 6.897 6.19 9.687c2.614 2.78 5.69 5.01 9.216 6.662 3.527 1.65 7.28 2.476 11.25 2.476 4.028 0 7.92-.884 11.672-2.673 3.744-1.778 7.035-4.136 9.875-7.054v10.12c-3.084 2.27-6.454 4.04-10.11 5.306-3.654 1.268-7.378 1.897-11.16 1.897-5.04 0-9.816-.993-14.316-2.968-4.51-1.974-8.44-4.666-11.82-8.076-3.37-3.41-6.042-7.4-8.027-11.968C.992 471.304 0 466.43 0 461.232c0-5.256.972-10.198 2.928-14.835 1.955-4.638 4.618-8.696 7.988-12.164s7.31-6.21 11.81-8.224c4.51-2.005 9.314-3.017 14.413-3.017 7.948 0 15.032 2.397 21.27 7.202v10.12zM101.607 430.583c-4.097 0-7.93.796-11.485 2.387-3.557 1.592-6.642 3.764-9.256 6.515-2.623 2.76-4.686 5.983-6.2 9.687-1.513 3.695-2.27 7.615-2.27 11.77 0 4.157.757 8.067 2.27 11.732 1.514 3.655 3.597 6.868 6.24 9.63 2.652 2.76 5.747 4.94 9.314 6.562 3.557 1.62 7.36 2.437 11.387 2.437 4.03 0 7.83-.816 11.388-2.437 3.566-1.62 6.67-3.802 9.314-6.563 2.642-2.76 4.725-5.974 6.238-9.63 1.513-3.664 2.27-7.574 2.27-11.73 0-4.156-.757-8.076-2.27-11.77-1.513-3.705-3.576-6.928-6.19-9.688-2.623-2.75-5.708-4.923-9.265-6.515-3.557-1.59-7.39-2.387-11.486-2.387m0-7.585c5.11 0 9.904.982 14.414 2.967 4.51 1.975 8.45 4.706 11.82 8.175 3.37 3.468 6.033 7.506 7.988 12.104 1.946 4.608 2.928 9.54 2.928 14.797 0 5.258-.982 10.19-2.928 14.788-1.955 4.608-4.617 8.617-7.987 12.016-3.37 3.41-7.31 6.102-11.82 8.077-4.51 1.985-9.304 2.968-14.413 2.968-5.1 0-9.904-.983-14.413-2.967-4.51-1.974-8.45-4.666-11.81-8.076-3.38-3.4-6.043-7.408-7.998-12.016-1.945-4.598-2.928-9.53-2.928-14.787 0-5.255.983-10.188 2.928-14.796 1.955-4.598 4.618-8.636 7.998-12.104 3.36-3.47 7.3-6.2 11.81-8.175 4.51-1.985 9.314-2.967 14.413-2.967M146.22 421.145l55.58 59.943v-56.83h7.94v76.677l-55.582-59.845v56.534h-7.938v-76.48zM234.503 490.036c2.142 0 4.215-.098 6.24-.295 2.013-.185 3.95-.56 5.816-1.12 1.855-.55 3.644-1.325 5.383-2.327 1.73-1.012 3.42-2.29 5.06-3.842 2.957-2.858 5.178-6.13 6.66-9.834 1.485-3.694 2.222-7.585 2.222-11.672 0-4.215-.776-8.234-2.32-12.066-1.542-3.83-3.86-7.133-6.945-9.923-3.272-2.987-6.73-4.913-10.346-5.797-3.626-.874-7.556-1.307-11.77-1.307h-5.768v58.186h5.767zm-13.706-65.78h13.42c2.644 0 5.2.118 7.655.344 2.466.226 4.824.668 7.094 1.317 2.27.648 4.49 1.552 6.66 2.722 2.173 1.168 4.305 2.66 6.388 4.47 4.087 3.634 7.084 7.82 8.97 12.556 1.896 4.735 2.84 9.864 2.84 15.376 0 5.384-.944 10.375-2.84 14.983-1.886 4.61-4.814 8.725-8.784 12.36-2.142 1.946-4.284 3.518-6.425 4.717-2.152 1.198-4.373 2.142-6.672 2.82-2.3.687-4.686 1.14-7.182 1.365-2.485.226-5.118.344-7.89.344h-13.233v-73.374zM314.656 430.583c-4.097 0-7.93.796-11.486 2.387-3.556 1.592-6.64 3.764-9.255 6.515-2.623 2.76-4.687 5.983-6.2 9.687-1.513 3.695-2.27 7.615-2.27 11.77 0 4.157.757 8.067 2.27 11.732 1.513 3.655 3.596 6.868 6.24 9.63 2.652 2.76 5.747 4.94 9.314 6.562 3.555 1.62 7.348 2.437 11.386 2.437 4.028 0 7.83-.816 11.387-2.437 3.567-1.62 6.672-3.802 9.315-6.563 2.643-2.76 4.726-5.974 6.24-9.63 1.512-3.664 2.268-7.574 2.268-11.73 0-4.156-.756-8.076-2.27-11.77-1.512-3.705-3.576-6.928-6.19-9.688-2.613-2.75-5.708-4.923-9.264-6.515-3.557-1.59-7.39-2.387-11.486-2.387m0-7.585c5.11 0 9.904.982 14.414 2.967 4.5 1.975 8.45 4.706 11.82 8.175 3.37 3.468 6.032 7.506 7.987 12.104 1.946 4.608 2.928 9.54 2.928 14.797 0 5.258-.982 10.19-2.928 14.788-1.955 4.608-4.618 8.617-7.988 12.016-3.37 3.41-7.32 6.102-11.82 8.077-4.51 1.985-9.305 2.968-14.414 2.968-5.1 0-9.914-.983-14.414-2.967-4.51-1.974-8.44-4.666-11.82-8.076-3.37-3.4-6.032-7.408-7.987-12.016-1.946-4.598-2.928-9.53-2.928-14.787 0-5.255.982-10.188 2.928-14.796 1.955-4.598 4.618-8.636 7.988-12.104 3.38-3.47 7.31-6.2 11.82-8.175 4.5-1.985 9.314-2.967 14.413-2.967M366.74 458.218h2.456c2.27 0 4.47-.147 6.612-.432 2.152-.295 4.068-.914 5.768-1.857 1.7-.934 3.075-2.27 4.116-3.99 1.042-1.72 1.553-4 1.553-6.858 0-2.987-.5-5.365-1.504-7.153-1.01-1.78-2.347-3.115-4.017-3.99-1.67-.874-3.596-1.444-5.767-1.7-2.172-.265-4.46-.393-6.858-.393h-2.358v26.37zm0 39.41h-7.94V424.26H369.1c3.41 0 6.67.275 9.785.826 3.125.55 5.896 1.572 8.322 3.065 2.417 1.494 4.363 3.547 5.807 6.18 1.454 2.624 2.18 6.013 2.18 10.17 0 5.708-1.59 10.375-4.774 14.01-3.183 3.635-7.546 5.708-13.097 6.23l22.688 32.884h-9.737l-21.546-32.207h-1.984v32.207z" fill="#231f20"/><path d="M23.654 510.684l-3.134 2.987c-2.132-2.25-4.54-3.38-7.202-3.38-2.25 0-4.146.767-5.69 2.31-1.54 1.542-2.318 3.44-2.318 5.69 0 1.57.344 2.966 1.032 4.184.678 1.22 1.64 2.18 2.89 2.87 1.246.697 2.642 1.04 4.164 1.04 1.297 0 2.486-.235 3.567-.726 1.08-.482 2.26-1.366 3.557-2.653l3.036 3.173c-1.74 1.7-3.38 2.88-4.933 3.537-1.552.65-3.31.983-5.295.983-3.665 0-6.672-1.16-9-3.488-2.34-2.32-3.498-5.296-3.498-8.93 0-2.35.53-4.432 1.592-6.26 1.06-1.827 2.584-3.29 4.568-4.402 1.975-1.11 4.107-1.67 6.397-1.67 1.945 0 3.812.413 5.61 1.228 1.808.826 3.36 1.995 4.657 3.508M45.873 510.34c-2.18 0-4.02.756-5.502 2.27-1.483 1.522-2.23 3.447-2.23 5.786 0 2.603.934 4.667 2.81 6.18 1.454 1.19 3.125 1.778 5 1.778 2.133 0 3.94-.766 5.435-2.31 1.503-1.53 2.25-3.428 2.25-5.678s-.757-4.146-2.26-5.698c-1.513-1.553-3.34-2.33-5.502-2.33m.05-4.39c3.33 0 6.2 1.208 8.596 3.625 2.396 2.407 3.595 5.354 3.595 8.823 0 3.44-1.18 6.347-3.547 8.725-2.368 2.388-5.237 3.577-8.617 3.577-3.536 0-6.474-1.218-8.812-3.665-2.338-2.446-3.508-5.355-3.508-8.715 0-2.26.54-4.323 1.63-6.22 1.092-1.886 2.585-3.39 4.5-4.49 1.907-1.11 3.96-1.66 6.162-1.66M71.85 506.542h4.372l5.463 16.437 5.512-16.438h4.362l3.96 23.56h-4.344l-2.525-14.875-5 14.875h-3.96l-4.962-14.875-2.584 14.875h-4.372l4.078-23.56zM106.146 506.542h4.5v15.24c0 1.305.118 2.24.344 2.78.226.55.61.982 1.14 1.306.53.324 1.17.49 1.916.49.786 0 1.464-.186 2.044-.55.57-.363.962-.824 1.18-1.385.225-.55.333-1.62.333-3.203v-14.678h4.5v14.05c0 2.368-.138 4.008-.403 4.932-.266.914-.776 1.808-1.533 2.663-.747.854-1.62 1.483-2.604 1.896-.982.412-2.122.61-3.43.61-1.698 0-3.192-.384-4.46-1.17-1.257-.786-2.16-1.77-2.71-2.948-.54-1.18-.817-3.173-.817-5.983v-14.05zM134.54 506.542h4.303l10.08 15.504v-15.504h4.49v23.56h-4.323l-10.06-15.455v15.455h-4.49v-23.56zM165.688 506.547h4.45v23.56h-4.45v-23.56zM204.06 510.684l-3.134 2.987c-2.132-2.25-4.54-3.38-7.202-3.38-2.25 0-4.146.767-5.688 2.31-1.543 1.542-2.32 3.44-2.32 5.69 0 1.57.345 2.966 1.033 4.184.676 1.22 1.64 2.18 2.887 2.87 1.248.697 2.643 1.04 4.166 1.04 1.297 0 2.486-.235 3.567-.726 1.08-.482 2.26-1.366 3.556-2.653l3.036 3.173c-1.74 1.7-3.38 2.88-4.932 3.537-1.552.65-3.31.983-5.296.983-3.665 0-6.67-1.16-9-3.488-2.338-2.32-3.497-5.296-3.497-8.93 0-2.35.53-4.432 1.59-6.26 1.062-1.827 2.585-3.29 4.57-4.402 1.975-1.11 4.107-1.67 6.396-1.67 1.946 0 3.812.413 5.61 1.228 1.808.826 3.36 1.995 4.658 3.508M224.696 512.788l-3.163 8.087h6.308l-3.144-8.087zm-2.3-6.248h4.55l9.06 23.56h-4.658l-1.847-4.853h-9.618l-1.916 4.854h-4.657l9.087-23.56zM268.347 510.684l-3.134 2.987c-2.132-2.25-4.54-3.38-7.202-3.38-2.25 0-4.145.767-5.688 2.31-1.543 1.542-2.32 3.44-2.32 5.69 0 1.57.345 2.966 1.033 4.184.678 1.22 1.64 2.18 2.89 2.87 1.246.697 2.64 1.04 4.164 1.04 1.296 0 2.495-.235 3.566-.726 1.08-.482 2.26-1.366 3.557-2.653l3.036 3.173c-1.74 1.7-3.38 2.88-4.934 3.537-1.542.65-3.31.983-5.295.983-3.664 0-6.67-1.16-9-3.488-2.338-2.32-3.497-5.296-3.497-8.93 0-2.35.53-4.432 1.592-6.26 1.06-1.827 2.584-3.29 4.568-4.402 1.975-1.11 4.107-1.67 6.397-1.67 1.945 0 3.812.413 5.61 1.228 1.808.826 3.36 1.995 4.657 3.508M279.17 506.547h4.45v23.56h-4.45v-23.56zM306.96 510.34c-2.18 0-4.018.756-5.5 2.27-1.485 1.522-2.23 3.447-2.23 5.786 0 2.603.942 4.667 2.81 6.18 1.453 1.19 3.123 1.778 5 1.778 2.132 0 3.94-.766 5.433-2.31 1.503-1.53 2.25-3.428 2.25-5.678s-.757-4.146-2.26-5.698c-1.513-1.553-3.34-2.33-5.502-2.33m.05-4.39c3.33 0 6.2 1.208 8.597 3.625 2.397 2.407 3.596 5.354 3.596 8.823 0 3.44-1.18 6.347-3.547 8.725-2.368 2.388-5.237 3.577-8.616 3.577-3.538 0-6.475-1.218-8.814-3.665-2.338-2.446-3.507-5.355-3.507-8.715 0-2.26.54-4.323 1.63-6.22 1.09-1.886 2.594-3.39 4.5-4.49 1.906-1.11 3.96-1.66 6.16-1.66M330.673 506.542h4.304l10.08 15.504v-15.504h4.49v23.56h-4.323l-10.07-15.455v15.455h-4.48v-23.56zM362.157 506.542h12.86v4.39h-8.41v4.256h8.41v4.313h-8.41v6.2h8.41v4.402h-12.86v-23.56zM398.784 509.747l-3.32 2.928c-1.17-1.622-2.36-2.437-3.567-2.437-.59 0-1.07.157-1.444.47-.374.326-.56.68-.56 1.072 0 .393.137.767.402 1.12.364.472 1.455 1.474 3.292 3.027 1.71 1.434 2.75 2.338 3.105 2.71.913.915 1.562 1.8 1.935 2.635.383.835.57 1.758.57 2.75 0 1.926-.668 3.528-2.004 4.786-1.336 1.257-3.076 1.886-5.227 1.886-1.68 0-3.135-.413-4.382-1.228-1.248-.826-2.32-2.113-3.203-3.88l3.774-2.27c1.13 2.082 2.436 3.124 3.91 3.124.776 0 1.425-.226 1.945-.678.52-.442.785-.963.785-1.553 0-.53-.196-1.072-.59-1.602-.402-.53-1.267-1.356-2.622-2.456-2.565-2.093-4.225-3.705-4.972-4.844-.746-1.13-1.12-2.27-1.12-3.4 0-1.63.62-3.036 1.868-4.205 1.247-1.17 2.78-1.76 4.608-1.76 1.18 0 2.3.276 3.36.827 1.06.54 2.22 1.532 3.458 2.977" fill="#055671"/><path d="M376.854 148.38c0 2.092-1.337 5.138-4.952 5.138-4.186 0-4.57-4-4.57-5.14V20.987c0-1.72.757-5.15 4.756-5.15 4.01 0 4.766 3.43 4.766 5.15V148.38zM371.902 7.455c-9.904 0-17.715 3.626-17.715 17.53V144.38c0 13.903 7.81 17.52 17.715 17.52 9.334 0 18.088-4.187 18.088-17.52V24.788c0-12.95-8.754-17.332-18.088-17.332M327.62 120.196c.758-2.29 2.477-3.43 4.767-4.382l9.894-4.57c5.15-2.288 7.428-7.427 7.428-12.38v-74.07c0-12.95-8.754-17.333-18.088-17.333-9.904 0-17.705 3.617-17.705 17.52v69.13h13.137V21.167c0-1.71.766-5.325 4.765-5.325 4 0 4.755 3.43 4.755 5.14v74.65c0 5.326-2.093 7.045-6.858 8.95l-7.614 3.234c-4.952 2.093-8.185 7.428-8.185 12.763v40.174h35.793v-8.95h-22.656v-26.47c0-1.71 0-3.615.57-5.138" fill="#fff" fill-rule="evenodd"/><path d="M389.976 183.23c-.265-.58-.62-1.09-1.06-1.533-.453-.433-.964-.826-1.544-1.15-.58-.334-1.208-.648-1.866-.933l-1.346-.59c-.344-.157-.698-.334-1.08-.51-.365-.178-.71-.394-1.013-.65-.305-.245-.57-.54-.767-.864-.206-.334-.314-.717-.314-1.15 0-.46.088-.884.275-1.277.178-.383.424-.707.738-.992.305-.274.668-.49 1.07-.638.404-.157.836-.235 1.278-.235.865 0 1.553.196 2.083.58.53.382.992.933 1.404 1.63l1.808-1.16c-.54-1-1.267-1.778-2.18-2.328-.905-.54-1.937-.816-3.057-.816-.756 0-1.474.118-2.15.363-.68.246-1.29.59-1.82 1.032-.52.45-.942.99-1.247 1.63-.305.64-.452 1.346-.452 2.132 0 .737.108 1.366.344 1.896.236.53.55.993.953 1.386.403.393.874.737 1.415 1.04.54.306 1.1.6 1.69.866l1.238.54c.462.216.923.432 1.365.658.453.217.846.482 1.2.786.344.305.63.67.845 1.08.216.414.324.915.324 1.504 0 .57-.12 1.1-.354 1.582-.226.482-.54.904-.924 1.248-.383.354-.825.63-1.326.825-.5.197-1.022.295-1.563.295-.53 0-1.04-.098-1.503-.295-.47-.196-.874-.47-1.228-.805-.344-.344-.64-.737-.865-1.2-.235-.45-.393-.942-.46-1.463l-2.202.62c.157.785.432 1.502.805 2.15.374.64.836 1.19 1.386 1.65.54.453 1.17.807 1.867 1.063.697.245 1.444.373 2.26.373.874 0 1.7-.156 2.466-.48.775-.325 1.443-.767 2.032-1.317.58-.56 1.032-1.218 1.366-1.975.334-.766.5-1.592.5-2.486 0-.805-.136-1.503-.392-2.083m-16.752 1.1c-.432 1.012-1.022 1.896-1.778 2.662-.747.757-1.63 1.366-2.643 1.818-1.012.442-2.093.668-3.243.668-1.14 0-2.22-.226-3.232-.668-1.012-.452-1.896-1.06-2.643-1.818-.757-.766-1.346-1.65-1.778-2.662-.433-1.012-.64-2.093-.64-3.233 0-1.15.207-2.23.64-3.252.432-1.022 1.012-1.916 1.758-2.672.747-.767 1.622-1.366 2.633-1.808 1.012-.432 2.103-.658 3.262-.658 1.17 0 2.26.226 3.272.658 1.012.442 1.887 1.04 2.633 1.808.737.756 1.327 1.65 1.76 2.672.43 1.022.638 2.103.638 3.252 0 1.14-.207 2.22-.64 3.233m-.195-10.64c-.963-.954-2.083-1.71-3.37-2.26-1.278-.54-2.643-.816-4.098-.816-1.444 0-2.81.275-4.097.815-1.277.55-2.397 1.306-3.35 2.26-.963.962-1.72 2.072-2.27 3.35-.56 1.267-.835 2.633-.835 4.077 0 1.454.275 2.82.835 4.087.55 1.277 1.307 2.378 2.27 3.32.953.944 2.073 1.68 3.35 2.23 1.287.542 2.653.817 4.097.817 1.455 0 2.82-.274 4.098-.815 1.287-.55 2.407-1.287 3.37-2.23.953-.943 1.71-2.044 2.27-3.32.55-1.268.825-2.634.825-4.088 0-1.444-.276-2.81-.826-4.078-.56-1.278-1.316-2.388-2.27-3.35m-22.94 12.968l-15.8-16.555v21.124h2.26v-15.612l15.8 16.526v-21.173h-2.26v15.69zm-9.66-19.04c.187-.256.472-.384.846-.384.294 0 .59.06.903.187.315.118.64.256.983.403.333.158.677.305 1.02.423.335.128.67.196.993.196.658 0 1.238-.216 1.73-.648.49-.432.864-.943 1.12-1.533l-1.268-1.02c-.157.304-.354.6-.59.874-.235.275-.54.412-.913.412-.256 0-.51-.06-.796-.196-.275-.138-.58-.275-.924-.413-.324-.167-.658-.314-1.02-.432-.355-.128-.738-.187-1.15-.187-.345 0-.65.06-.915.167-.275.118-.51.285-.737.492-.206.206-.402.432-.58.678-.186.255-.353.51-.51.786l1.316 1.042c.138-.305.305-.58.492-.845m-20.565 15.76l3.46-8.116 3.39 8.117h-6.85zm-5.836 7.85h2.476l2.447-5.757h8.646l2.397 5.757h2.496l-9.11-21.232-9.353 21.232z" fill="#fff"/></svg>