<svg xmlns="http://www.w3.org/2000/svg" width="400" height="314.098"><path d="M213.6 12.858c1.444 1.675 4.255 0 5.627-.81.162-1.314.63-2.306.792-3.6-3.682-.85-6.532.782-6.42 4.41zM223.64.213c-.598 4.134-1.854 8.207-2.813 12.233-.272 1.178-.148 2.818-1.406 3.415-.987-.072-1.046-.738-.798-1.61-2.27 1.53-6.446 1.53-6.823-1.594-.506-4.134 4.277-7.127 8.625-6.027.805-2.01 1.062-4.558 1.81-6.618.524 0 1.136-.085 1.405.2M168.658 3.625c-2.49.996-3.868 4.822-5.214 7.627 2.662-.554 4.92-1.51 7.427-2.208-.272-2.276-1.302-3.784-2.212-5.42zm4.82 14.455c-1.966-1.106-1.055-5.105-2.002-7.23-2.9.854-5.75 1.738-8.633 2.607-1.25 1.692.176 6.058-2.206 6.614-1.073-.68-.664-1.946-.6-2.8.472-6.22 4.122-13.19 8.027-16.045 2.397-.12 4.053 4.718 4.81 7.407.438 1.566.77 3.286 1.006 4.825.233 1.593.978 3.783-.403 4.623M183.31 2.814c.823 2.49-2.765 3.858-4.41 2.222-1.17.164-1.008 1.665-2.615 1.406-.115-2.716 2.858-3.357 4.62-2.007 1.092-.246 1.133-1.547 2.406-1.62M203.976 7.038c-.24.028-.176.358-.207.6-1.442.71-2.947-1.126-4.61-.2.41 2.26 7.413 3.098 4.008 6.813-1.117 1.24-6.198 1.55-6.014-.793 1.062-.983 4.366 1.05 5.016-1.01-.675-2.506-4.577-1.653-4.816-4.213-.278-3.075 5.012-3.4 6.622-1.196M188.724 13.257c3.8 2.844 7.973-5.748 2.212-5.406-2.19.11-4.48 3.714-2.212 5.407zm-.192 2.007c-1.752-.868-2.525-2.687-2.21-5.62.944-2.363 4.184-4.525 7.222-3.202 4.396 1.893 1.002 11.035-5.012 8.822M177.892 9.447c1.605-.925 2.512-2.58 5.212-2.41.826.785 1.41 1.813 1.402 3.402v2.006c-.23 1.637.223 3.953-2.003 3.628-.1-2.617.97-5.254-.193-7.224-2.296.64-3.565 2.33-4.812 4.008-.468.412-.078 1.664-.207 2.406.09.684-.08 1.12-.204 1.605h-1.406c.036-.372-.24-.43-.2-.796.472-.882.08-2.617.2-3.812.513-1.508-.59-4.623 1.213-4.825 0 .202.24.16.398.202.465.27-.127 3.042.602 1.807M226.443 16.67c-5.728-.342-2.82-8.277 1.003-9.03 2.375-.475 5.233.623 5.22 2.4-.012 2.278-4.896 3.557-7.22 3.217.508-2.377 4.597-1.152 5.617-3.002-2.296-2.803-7.36.184-6.018 3.996 1.715 1.993 5.262-.21 7.02 0 .27 2.22-1.878 2.01-3.413 2.42h-2.21" fill="#040505" fill-rule="evenodd"/><path d="M184.506 10.44c.35.228.35 1.795 0 2.006V10.44" fill="#005494" fill-rule="evenodd"/><path d="M248.31 12.858c-2.702-.456-6.773-.03-6.614 3.003.084 1.693 2.283 2.787 4.618 1.808 1.644-1.582 1.536-5.906 4.407-5.62-.568 2.586-2.497 5.505-3.41 8.433-1.03.233-1.05-.55-1.4-1.007-8.282 2.475-6.946-10.623 1-8.422.624.174 1.82.543 1.4 1.808M255.537 13.257c.22 1.08-.472 1.265-.608 2.007 1.3-.57 3.9-1.337 5.43-.398.34.738.17 1.818 0 2.6 1.476-.84 4.85-2.06 6.418-.395.194 1.847-.89 3.584-1.602 5.007-.612 1.208-1.112 3.652-3.016 3.013.22-2.926 2.158-4.123 2.607-6.83-2.202-.082-4.373.774-5.613 2.22-.83.955-.774 3.13-2.615 2.805-.712-2.235 2.01-4.18 2.202-6.814-2.32-.17-4.393.484-5.61 2.008-.78.97-.638 3.37-2.61 3 .024-3.344 2.393-6.034 3.813-8.62.47.057.826.243 1.202.4M271.788 15.264c.69-.087 1.127.086 1.61.196.247.57.247 1.254 0 1.81-.566.24-1.236.24-1.812 0-.324-.67-.196-1.538.202-2.006" fill="#040505" fill-rule="evenodd"/><path d="M226.443 16.67h2.21c-.282.33-1.932.33-2.21 0" fill="#94aabd" fill-rule="evenodd"/><path d="M271.39 18.664c.088 1.877-1.245 3.34-2.01 4.62-.697 1.2-1.182 3.316-2.998 3.413-.79-1.26.642-2.773 1.394-4.008.907-1.482 1.653-3.076 2.612-4.212.478-.084.435.37 1.002.186" fill="#040505" fill-rule="evenodd"/><path d="M134.756 20.668c.336-.455 1.526-.072 2.204-.187-.342.458-1.53.077-2.204.188" fill="#94aabd" fill-rule="evenodd"/><path d="M279.818 23.883c-1.816.572-2.442-2.52-4.415-1.806-.408 2.533 2.747 2.686 2.813 5.022.112 4.25-7.35 3.027-7.224-.403 1.793-.736 3.794 3.018 5.417.596-.265-2.356-3.57-2.545-2.82-5.4.766-2.906 7.378-.7 6.228 1.99M289.246 21.894c-.04.223.042.34.2.396-.442 1.28-1.29 2.177-2.006 3.2.66.953 2.88.34 2.607 2.217-1.036.94-2.512-.355-3.613-.61-.907.826-1.586 2.25-2.408 3.412-.7.996-1.535 2.89-3.213 2.205.587-2.757 2.655-4.036 3.817-6.212-.748-.657-2.273-.528-2.604-1.61.43-1.707 2.46-.184 3.41 0 1.705-.454 1.54-3.77 3.81-3" fill="#040505" fill-rule="evenodd"/><path d="M167.46 39.55c-1.235-6.604-5.864-9.793-10.032-13.45 3.437 2.264 11.81 8.37 11.437 14.638-.214 3.5-2.95 5.336-4.426 8.027-.046.423-.872.052-.996.41 1.327-2.56 3.448-4.31 4.015-7.623.32-.227.32-1.795 0-2.003" fill="#0066a4" fill-rule="evenodd"/><path d="M297.07 31.922c-1.062 1.063-2.144-.515-3.607-.614-4.803-.3-4.695 6.232 0 5.223 2.29-.485 3.245-5.747 6.007-4.212-.314 1.835-2.195 2.577-3.205 3.81-.87 1.07-1.096 2.548-2.4 3.207-.897.097-1.09-.515-1.012-1.4-4.32.856-6.247-4.322-3.606-7.023 2.094-2.15 7.272-1.807 7.823 1.01" fill="#040505" fill-rule="evenodd"/><path d="M62.724 29.915c.407-.46 1.668-.072 2.406-.216-.407.47-1.665.07-2.406.215M57.303 30.113c.546-.47 1.94-.068 2.815-.198-.538.452-1.936.07-2.815.198M52.097 30.313c.464-.47 1.796-.072 2.602-.2-.483.455-1.808.072-2.603.2M46.674 30.51c.47-.45 1.8-.07 2.612-.197-.483.457-1.81.07-2.612.196M41.254 30.712c.542-.47 1.933-.072 2.807-.203-.54.458-1.93.073-2.806.202M36.033 30.912c.475-.455 1.8-.07 2.606-.2-.47.456-1.79.07-2.607.2M30.42 31.108c.542-.468 1.936-.072 2.813-.196-.542.466-1.944.072-2.813.196M25.397 31.308c.42-.454 1.67-.068 2.415-.2-.417.456-1.666.072-2.415.2" fill="#94aabd" fill-rule="evenodd"/><path d="M304.898 41.552c.587-1.028 1.786-1.438 2.21-2.604-1.62-2.6-8.217-1.678-7.638 1.396.202.993 1.262 1.22 2.623 1.406.496.286 2.59.47 2.805-.198zm-.604-5.833c1.688.325 2.883 1.14 4.013 2.02 2.064-1.137 3.016-5.35 5.818-4.425-2.077 3.655-5.23 6.29-8.028 9.432-.84.953-1.568 2.658-3.207 2.602-.695-.498-.3-1.396.2-1.794-6.902.965-6.452-7.708-.8-7.837h2.004" fill="#040505" fill-rule="evenodd"/><path d="M302.29 35.72c.21-.33 1.786-.33 2.004 0h-2.004M167.46 39.55c.32.207.32 1.775 0 2.002V39.55" fill="#94aabd" fill-rule="evenodd"/><path d="M313.32 47.37c3.74-2.433 5.965-6.347 11.24-7.226 1.146 5.45-1.83 10.01-2.804 14.65 2.25-.693 4.443-3.188 6.42-4.822.744-.583 1.423-1.25 2.006-2.004.685-.44 1.357-1.78 2.6-1.01.59.696-.21 1.28-.397 1.807-1.02.855-1.958 1.792-2.804 2.82-3.188 2.03-5.096 5.33-9.834 5.816-.21-5.425 2.81-9.36 3.406-14.653-2.267.613-4.28 2.36-6.216 4.015-1.792 1.53-3.23 4.303-5.823 4.222-.39-.384-.09-.956 0-1.41.818-.654 1.556-1.378 2.208-2.204" fill="#040505" fill-rule="evenodd"/><path d="M196.553 42.945c.47-.454 1.796-.072 2.607-.198v.198h-2.607" fill="#94aabd" fill-rule="evenodd"/><path d="M199.16 42.945v-.198h2.205c-.338.468-1.53.086-2.205.198M204.574 42.747h2.408v.198c-.738-.112-1.998.27-2.408-.198" fill="#0066a4" fill-rule="evenodd"/><path d="M206.982 42.945v-.198c.745.126 1.992-.256 2.408.198h-2.408M204.374 44.766c.875-.342 3.14-.342 4.013 0h-4.013M211.396 44.766c.61.115 1.726-.272 2.01.187-.615-.117-1.725.266-2.01-.187" fill="#94aabd" fill-rule="evenodd"/><path d="M333.992 54.794c-.418.4-1.336.156-1.804 0-1.3-2.432 3.186-2.574 1.804 0" fill="#040505" fill-rule="evenodd"/><path d="M205.585 55.393c1.604-.34 4.606-.34 6.215 0h-6.215" fill="#94aabd" fill-rule="evenodd"/><path d="M331.177 55.79c-.327 1.523-2.142 2.632-3.407 3.614-1.09.84-2.71 2.73-4.218 1.805 1.328-2.885 4.546-3.882 6.63-6.015.46.072.86.198.995.596" fill="#040505" fill-rule="evenodd"/><path d="M77.163 58.21c1.144-.34 3.68-.34 4.823 0h-4.823M72.16 58.393c.268-.455 1.393-.068 1.997-.184-.275.457-1.39.07-1.996.183" fill="#94aabd" fill-rule="evenodd"/><path d="M339.204 65.025c-1.863.27-2.056-2.288-3.61-3.02-2.137-.992-4.962-.383-5.828 1.81.46 2.365 3.392 2.234 4.827 3.614-1.166 1.97-4.816.168-5.817-1.41-.475-.742-.685-1.865-.6-2.602.575-5.506 12.136-4.042 11.028 1.607" fill="#040505" fill-rule="evenodd"/><path d="M190.73 61.81c1.872-.327 5.15-.327 7.032 0h-7.03M12.367 64.823h2.81c-.486.328-2.338.328-2.81 0" fill="#94aabd" fill-rule="evenodd"/><path d="M345.423 71.44c-1.747.382-2.7-2.245-5.006-2.206-3.965.07-3.243 5.023.19 5.42 2.214-.584 4.12-3.444 6.632-2.405-.22 1.51-2.418 2.08-3.62 2.803-1.364.824-2.514 1.936-4.02 2.407-.486-.358-.467-1.216-.195-1.808-2.338-.26-3.62-1.908-3.614-4.01.04-5.224 9.622-5.336 9.633-.2M350.237 75.652c.202 1.278-.63 1.508-1.398 1.81 2.466.88 4.874 1.802 5.62 4.418-1.61 1.255-2.295-.968-3.22-1.605-.967-.685-2.876-1.483-4.816-1.21-1.65.228-2.53 2.29-4.408 1.21-.1-1.452 1.926-1.906 3.213-2.615 1.665-.925 2.948-2.42 5.007-2.008M358.863 88.897c-1.922.083-2.47-3.09-5.406-2.807-3.455.344-2.56 4.656.405 5.422 2.053-.315 5.34-3.498 6.812-1.207-2.64 1.368-5.392 2.63-8.22 3.808-.505-.367-.505-1.235 0-1.604-1.432-.643-2.7-1.48-3.01-2.8-1.696-7.234 10.566-6.43 9.42-.813" fill="#040505" fill-rule="evenodd"/><path d="M358.863 94.313c.288-.335 1.933-.335 2.208 0h-2.207" fill="#94aabd" fill-rule="evenodd"/><path d="M361.07 94.313c2.355.385 5.062 2.35 4.225 4.626-2.203-.53-2.903-3.654-6.027-3.02-3.646.743-.468 4.825 2.412 5.012 1.848-.288 3.703-2.234 5.418-1.395-.214 1.99-3.345 2.46-5.624 3.394-2.81 1.173-6.2 3.734-9.43 2.226-.812-.384-2.375-2.06-2.6-3.213-.215-1.083-.39-3.58 1.605-3.417.526 2.262-.134 4.727 2.407 5.224 2.057.392 3.927-1.21 5.81-1.807-3.65-.743-5.11-6.96-.404-7.63h2.208M369.5 104.142c-1.43 1.81-6.172.46-6.422 3.02-.112 1.267 1.983 2.813 3.418 3 2.25.287 4.418-1.947 6.02-.795v.794c-1.35.855-3.087 1.057-4.615 1.608-1.473.54-2.8 1.695-4.214 1.41-.482-.896.19-1.608 1-1.804-3.607-1.482-4.786-6.02-.2-7.624 1.53-.542 4.662-1.27 5.013.392M375.524 118.795c-2.062-.666-2.165-4.21-5.413-3.824-3.042.383-2.39 4.425.195 5.436 1.86-.187 5.46-2.133 6.82-.216-.947 1.27-2.984.842-4.42 1.208-1.503.403-2.772 1.398-4.21 1.412-.44-.31-.583-1.32 0-1.612-.78-.878-1.67-1.263-2-2.203-2.757-7.81 11.176-7.01 9.03-.2" fill="#040505" fill-rule="evenodd"/><path d="M96.833 115.383c3.387 2.63 6.536 5.493 9.623 8.423-4.363 11.138-7.723 25.222-6.214 40.93-4.995-2.365-9.575-5.14-13.642-8.427.686-16.36 4.75-29.36 10.233-40.927" fill="#f58128" fill-rule="evenodd"/><path d="M138.37 148.886c-9.784-9.35-20.26-17.997-30.104-27.29 11.133 9.212 21.64 19.027 32.313 28.697.644.826 1.378 1.55 2.193 2.208 11.122 13.216 22.437 26.257 23.684 49.36v2.01c-.918 19.074-10.724 29.278-21.272 38.723-.166.027-.18-.072-.198-.202.96-.71 1.64-1.707 2.606-2.416 1.015-.855 1.965-1.776 2.807-2.804 9.817-9.727 17.97-25.474 13.65-45.95-3.494-16.554-13.57-28.837-22.675-39.318-.925-1.096-1.92-2.095-3.006-3.016" fill="#0066a4" fill-rule="evenodd"/><path d="M376.122 123.606c.774 1.834 1.582 3.635 2.212 5.615-.567.048-.84.375-1.4.404-.763-1.836-1.516-3.698-2.214-5.622.635.045.68-.524 1.402-.396M382.75 133.632c1.067 2.478 2.293 4.798 3.403 7.23 2.54.528 5.347-2.232 6.82-.204-.467 1.387-2.517 1.28-4.014 1.61-2.915.643-5.702 1.23-9.025 1.807-1.195.202-3.743 1.18-3.813-.81 1.843-1.423 5.473-1.08 8.032-1.794-.55-2.34-2.324-5.176-3.416-7.622-2.44-.265-6.95 1.848-7.825-.61 1.906-1.27 5.595-.9 9.837-1.41 2.26-.27 6.637-1.797 6.817-.2.21 1.878-5 1.495-6.817 2.004" fill="#040505" fill-rule="evenodd"/><path d="M319.746 141.063c.332 1.75.332 4.873 0 6.626v-6.627" fill="#94aabd" fill-rule="evenodd"/><path d="M380.333 149.09c-1.5 2.33 1.564 4.89 3.216 4.82 2.927-.13 2.938-3.073 1.606-4.614-1.562-1.81-3.927-1.593-4.823-.207zm3.82-2.61c3.685 1.04 5.12 7.27 1.403 8.624-7.388 2.685-10.74-9.944-1.402-8.623" fill="#040505" fill-rule="evenodd"/><path d="M318.732 149.09c.346 2.07.346 5.542 0 7.62v-7.62" fill="#94aabd" fill-rule="evenodd"/><path d="M391.173 157.32h4.418c2.245 1.863-2.32 1.707-3.813 1.79-1.41.147-3.342-.25-4.418.22h-1.603c-1.342.125-3.214-.274-4.21.197-2.08.37-2.033-2.43.195-1.81 1.273-.128 3.07.26 4.015-.196h1.602c1.2-.125 2.938.254 3.813-.2" fill="#040505" fill-rule="evenodd"/><path d="M86.397 159.527c4.35 3.132 9.282 5.703 14.048 8.42 2.915 19.225 9.274 35.008 18.258 48.153-2.633 2.377-5.87 4.17-9.035 6.022-6.34-5.876-11.285-13.188-15.648-21.07-4.288-12.095-7.593-25.18-7.623-41.525" fill="#f58128" fill-rule="evenodd"/><path d="M386.754 168.344c1.63.457 4.577-.41 4.42 1.81-2.683.14-6.51-.313-9.027 0-.412-.47-.21-1.537.396-1.594-.533-.91-1.047-1.292-1.204-2.218-1.334-7.785 11.43-5.69 9.028 1.606-2.127-.24-1.472-3.5-3.412-4.61-2.525-1.448-5.502 1.765-3.013 4.212.07.412.55.398.607.794h2.204" fill="#040505" fill-rule="evenodd"/><path d="M249.927 233.97c-.172-.795.988-1.823 1.8-2.816 5.406-6.646 11.662-13.955 15.456-22.478 3.802-8.565 11.852-18.95 23.47-19.86 1.26-.098 2.713.402 4.012.204 2.28-.36 6.177-3.407 8.225-4.614 5.5-3.27 10.195-6.33 14.65-10.638 3.217-3.12 5.137-7.3 10.635-7.82 9.918-.957 10.58 8.56 7.215 15.447-2.96 6.074-7.575 10.11-13.23 13.046-2.91 1.503-5.998 2.216-9.444 3.61-5.94 2.39-12.526 9.656-14.837 15.85-1.066 2.83-1.408 5.504-3.414 7.622-8.657 9.117-28.068 11.212-44.54 12.448" fill="#f58128" fill-rule="evenodd"/><path d="M71.756 169.753v10.843c-.34-3.14-.34-7.695 0-10.843" fill="#94aabd" fill-rule="evenodd"/><path d="M387.163 182.005c-1.57-.372-4.14.243-3.824-2.02 2.08-.472 5.35 1.208 7.23-.2-.645-2.292-2.322-3.57-3.816-5.01-1.53-.14-4.688.274-4.004-1.405 1.193-.824 4.17-.146 6.21 0 1.208.083 3.492-.47 3.008 1.404-.516.714-1.242.13-2.205.203.943 1.865 2.813 2.802 2.608 5.82-.793.68-1.703 1.224-3.21 1.208h-1.997" fill="#040505" fill-rule="evenodd"/><path d="M389.16 182.005c-.212.322-1.797.322-1.997 0h1.996" fill="#005494" fill-rule="evenodd"/><path d="M385.556 186.414c-.106 2.378 1.146 3.4 2.005 4.807 1.395-.053 2.34.347 3.613.403 1.223-3.7-2.72-7.554-5.617-5.21zm7.416 5.21c1.723 1.43 6.76-.457 7.028 2.4-3.948.242-8.57-.665-12.64-1.196-1.28-.154-2.875.1-3.61-.993-.116-1 .66-1.084 1.595-1.012-1.427-1.547-2.45-5.305-.19-6.62 3.656-2.126 8.91 2.593 7.817 7.42" fill="#040505" fill-rule="evenodd"/><path d="M334.793 186.812c2.58 3.03 4.727 6.234 8.226 8.835 4.118 3.045 1.516 11.807-2.413 13.44-5.55 2.29-11.02-1.465-11.435-6.423-.56-6.848 3.702-11.526 5.62-15.852" fill="#f58128" fill-rule="evenodd"/><path d="M297.88 219.715c3.844-5.985 5.472-13.974 11.838-17.854 4.287-2.632 9.975-2.033 14.642-5.222 1.41-.964 2.64-2.725 3.614-3.81.394 2.55.57 5.306.594 8.225v3.81c.043 1.596-.137 2.93-.798 3.813-7.52-.898-8.998 4.255-9.234 10.642-7.342-1.41-8.172 5.748-5.215 9.826-2.738 1.557-6.59 3.646-6.618 7.63-.008 2.434 2.32 4.548 2.607 7.228.645 5.9-3.663 12.46-7.02 16.443-7.157 8.48-13.762 17.98-19.66 27.29-2.916 4.592-5.36 10.748-9.04 14.247-.974.927-2.815 2.095-4.007 2.406-1.223.31-2.92-.097-3.417 0-1.886.383-4.492 3.286-6.607 4.607-2.824 1.766-8.61 5.21-10.846 1.01-2.154.9-6.955 3.603-10.632 4.015-3.733.412-6.358-.754-5.417-4.607-4.25.383-15.14 2.042-15.844-2.82-.33-2.263 1.687-3.767 3.406-5.223 4.628-3.864 8.917-8.802 12.236-13.442 4.657-6.46 10.116-15.232 10.636-23.673.235-3.98-.713-7.598-3.206-10.224-5.332 1.308-12.45 2.76-19.27.995-1.55-.4-4.72-1.364-4.417-2.804.292-1.32 2.793-.866 4.418-1.01 2.855-.225 5.786-1.293 7.226-2.405 1.282-.997 2.1-2.685 3.41-4.008 3.264-3.316 7.49-5.705 12.045-7.425 4.85-1.834 10.196-2.293 16.254-3.018 13.578-1.605 27.63-4.48 35.503-11.835 1.026-.84 1.965-1.78 2.817-2.805" fill="#0066a4" fill-rule="evenodd"/><path d="M391.777 202.664c-1.137-2.056-.583-5.954-4.01-5.828-2.317.088-2.805 3.123-1.21 5.228 2.177.825 5.794.21 6.215 2.8-2.246.256-6.03-1.266-9.023-1.594-.176-.92.337-1.137.8-1.41-.562-.976-.72-2.36-.607-4.023 1.845-4.294 7.81-2.7 8.83 1.21.264.98.775 3.455-.996 3.617" fill="#040505" fill-rule="evenodd"/><path d="M162.65 199.86c.45.397.074 1.66.193 2.406-.462-.416-.074-1.668-.192-2.406M328.568 201.053c.34.808.34 2.998 0 3.81v-3.81M166.457 201.86c.327.215.327 1.793 0 2.01v-2.01M162.843 203.67c-.12.67.257 1.862-.192 2.204.12-.682-.27-1.863.193-2.204" fill="#94aabd" fill-rule="evenodd"/><path d="M338.8 225.733c-1.267.17-3.603.71-3.817 2.207-.154 1.148 1.152 2.13 1.413 3.214 1.236 5.036-2.822 8.835-7.828 7.823-1.613 2.363 1.128 7.582-1.6 9.436-1.665 1.105-4.298.255-6.02 1.006-2.246.97-4.102 3.357-5.417 5.407-.97 1.533-1.367 3.984-2.814 5.214-2.467 2.128-7.002 1.4-10.425 2.21-.36-.696.643-1.05 1.005-1.407 1.555-1.506 2.96-2.97 4.612-4.807 2.074-2.307 5.772-5.505 5.016-10.242-.254-1.61-1.836-2.507-2.408-4.416-1.638-5.417 2.76-10.58 7.623-7.024-.333-2.502-2.534-4.65-2.2-7.822.314-3.172 2.834-4.538 5.415-5.805-.985-5.464-.103-10.357 5.015-10.642 2.977-.172 5.426 1.822 8.225 2.608 1.522.437 4.913-.117 6.014.592 3.25 2.136.75 11.04-1.807 12.448M142.368 240.588c.08 1.303-2.032 2.075-3.002 3.013-10.53-5.317-20.084-11.624-27.887-19.673 3.292-1.4 6.168-4.255 9.033-5.423 2.224 3.463 4.942 6.434 7.627 9.436 1.45 1.618 2.984 3.158 4.602 4.62 3.03 2.848 6.162 5.622 9.626 8.028" fill="#f58128" fill-rule="evenodd"/><path d="M62.312 272.878c-11.81-.542-17.808-6.927-25.667-11.42-.322-4.84-.875-9.45-1.406-14.048 4.853-.867 9.88-1.374 14.85-2.217 4.812-.81 9.898-1.348 14.435-2.6 2.648-.74 5.44-2.064 8.227-3.016 2.762-.942 5.88-2.72 8.228-2.803 1.35-.057 3.33 1.72 3.813.198-.1.98 1.552 1.01 2.212.596 5.127 9.452 11.13 18.027 18.256 25.482-11.65 5.004-24.6 8.7-40.33 9.63-.81.127-2.13-.256-2.618.198" fill="#0066a4" fill-rule="evenodd"/><path d="M144.987 242.39c.018.13.032.23.198.203 5.806 4.022 12.052 7.607 19.254 10.23-7.926-1.352-15.456-4.87-22.468-7.83.85-1.022 2.014-1.736 3.015-2.602" fill="#f58128" fill-rule="evenodd"/><path d="M62.312 272.878c.49-.454 1.807-.07 2.618-.198-.475.468-1.803.07-2.618.198M213.6 281.51c-.607-.125-1.72.263-2-.196.604.126 1.73-.255 2 .197M220.623 281.71c-1.402-.126-3.34.272-4.418-.2 1.413.13 3.346-.266 4.418.2M227.243 281.71c.944-.466 2.744-.07 4.016-.2-.94.472-2.736.074-4.017.2M200.566 306.593h3.203v.2c-1.014-.128-2.536.277-3.204-.2" fill="#94aabd" fill-rule="evenodd"/><path d="M203.77 306.792v-.2h6.83v.2h-6.83" fill="#0066a4" fill-rule="evenodd"/><path d="M210.6 306.792v-.2h3.2c-.67.477-2.193.073-3.2.2M177.29 7.64c.83-.014.035 1.56.602 1.807-.73 1.235-.137-1.538-.6-1.808M66.534 138.655c1.287 1.114 2.494 2.32 3.615 3.612-1.29-1.123-2.495-2.33-3.616-3.612M126.333 178.987c1.28 1.11 2.486 2.322 3.603 3.62-1.283-1.13-2.49-2.34-3.603-3.62M129.74 211.1c.853-1.027 1.782-1.97 2.804-2.818-.853 1.02-1.793 1.947-2.804 2.817M145.185 238.777c1.26-1.42 2.593-2.757 4.013-4.013-1.25 1.426-2.59 2.763-4.013 4.013M135.758 149.894c1.487 1.324 2.88 2.72 4.21 4.214-1.487-1.326-2.89-2.733-4.21-4.214M144.987 66.22c.718-.884 1.515-1.68 2.404-2.406-.708.882-1.52 1.695-2.403 2.406" fill="#94aabd" fill-rule="evenodd"/><path d="M158.23 51.38c-3.376 4.382-7.274 8.24-10.84 12.434-.888.727-1.685 1.522-2.403 2.406-19.037 10.668-34.485 24.91-45.343 43.74-1.184 1.352-4.647 2.974-2.81 5.423-5.485 11.568-9.548 24.567-10.234 40.926-4.315-3.03-8.748-5.957-12.038-10.025 10.45-49.214 41.15-78.174 83.667-95.3.107 0 .23.152 0 .184v.21" fill="#005494" fill-rule="evenodd"/><path d="M136.96 20.48c8.17-.386 13.44 3.048 18.86 7.427 3.81 3.077 9.42 8.026 9.235 12.635-.2 4.75-4.86 7.27-6.826 10.84v-.213c.23-.033.107-.186 0-.186-42.518 17.127-73.22 46.087-83.668 95.3-1.494-1.325-2.94-2.693-4.413-4.017-1.122-1.293-2.33-2.498-3.616-3.612-7.07-8.01-14.673-15.904-18.855-27.498-1.382-3.815-2.95-8.694-2.413-12.63.75-5.462 8.626-10.794 12.837-13.245 5.716-3.3 11.55-5.63 16.65-9.218 6.573-4.623 12.23-11.396 18.068-16.258-1.368.225-2.137-.146-2.21-1.202-2.85-.153-5.534-.494-8.626-.395-1.143-.34-3.68-.34-4.823 0h-3.006c-.604.115-1.73-.272-1.996.183-20.2.94-36.67 5.62-56.983 6.43h-2.81c-6.47-.7-10.013-7.34-11.645-14.055-1.384-5.743-1.015-14.396 3.214-16.84 2.622-1.522 6.687-1.495 10.235-1.808 3.744-.34 7.44-.7 11.227-.812.75-.128 1.998.255 2.415-.2h2.608c.87-.124 2.27.27 2.813-.196h2.8c.817-.13 2.138.256 2.606-.2h2.614c.875-.13 2.267.256 2.807-.203h2.614c.8-.127 2.13.26 2.612-.197h2.81c.796-.128 2.12.255 2.603-.2h2.603c.88-.128 2.277.254 2.815-.198h2.606c.74-.144 2 .254 2.406-.216 24.807-1.408 44.778-7.642 69.626-9.032.675-.11 1.862.27 2.204-.187" fill="#0066a4" fill-rule="evenodd"/><path d="M151.005 21.678c.612-.2 1.67.87 2.404 1.21-.625.208-1.53-1.01-2.405-1.21M288.44 74.655c2.093 1.922 4.1 3.928 6.026 6.018-2.092-1.922-4.102-3.938-6.026-6.018M289.842 89.903c1.433 1.255 2.768 2.59 4.022 4.014-1.427-1.255-2.762-2.592-4.022-4.014M275.605 94.113c1.483 1.324 2.885 2.72 4.213 4.215-1.49-1.325-2.9-2.723-4.213-4.215M302.093 41.75c.917-.085 2.2.2 2.805-.198-.214.67-2.31.484-2.805.198M311.112 49.575c.654-.825 1.395-1.564 2.21-2.205-.653.826-1.39 1.55-2.21 2.205M329.58 51.585c.847-1.028 1.786-1.965 2.805-2.82-.857 1.024-1.786 1.96-2.804 2.82M328.175 49.972c.583-.752 1.244-1.42 2.007-2.004-.583.755-1.262 1.42-2.007 2.004" fill="#94aabd" fill-rule="evenodd"/><path d="M201.365 42.747h3.21c.41.468 1.67.086 2.407.198h2.408c38.288 2.377 67.35 14.982 88.085 35.72 15.194 15.196 27.493 34.256 35.507 57.39 1.326 3.81 2.482 7.847 3.414 12.035.91 4.11 2.257 8.69.405 13.046-8.432-1.042-14.612 2.815-19.26 6.812-.07-2.205.888-5.118 1.192-7.624.355-4.198 1.12-7.965 1.013-12.635.333-1.754.333-4.878 0-6.627-1.016-27.543-11.856-45.27-25.28-60.39-1.925-2.09-3.932-4.096-6.025-6.018-17.923-16.987-43.152-26.677-75.033-29.702-.285-.46-1.402-.072-2.01-.187h-3.01c-.874-.342-3.138-.342-4.013 0-21.348.31-36.668 6.66-49.752 15.234 2.342-3.414 6.045-7.177 8.822-10.825.124-.358.95.013.995-.41 9.72-2.918 20.032-5.252 32.113-5.82h2.607c.675-.112 1.867.27 2.205-.198" fill="#005494" fill-rule="evenodd"/><path d="M144.987 66.22c-14.58 15.12-29.353 30.044-45.343 43.74 10.858-18.83 26.306-33.072 45.343-43.74" fill="#f58128" fill-rule="evenodd"/><path d="M190.73 61.81c-6.635-.016-12.528.71-18.06 1.804 8.737-4.976 19.745-7.68 32.915-8.22h6.215c35.476 2.05 58.046 16.97 78.042 34.51 1.26 1.42 2.595 2.758 4.022 4.013 12.672 14.012 23.186 30.186 24.868 55.172v7.62c.225 1.295-.613 2.59 0 3.614-.304 2.506-1.26 5.42-1.19 7.624-.095.26-.267.412-.606.396-4.47-31.24-20.095-51.34-37.118-70.016-1.328-1.496-2.73-2.89-4.213-4.215-18.607-18.107-42.215-31.224-77.843-32.304-1.88-.327-5.16-.327-7.03 0" fill="#0066a4" fill-rule="evenodd"/><path d="M123.317 91.512c-5.412 8.83-11.248 18.976-15.652 29.493-3.19-1.965-5.51-4.796-8.424-7.03 8.116-7.41 16.42-14.61 24.077-22.463" fill="#f58128" fill-rule="evenodd"/><path d="M44.862 100.133c.652-.355-.434 2.876-.2.997.04-.297.1-.06.2-.997" fill="#0066a4" fill-rule="evenodd"/><path d="M138.37 148.886c1.085.92 2.08 1.92 3.005 3.016-1.09-.925-2.088-1.924-3.006-3.016M147.593 239.974c.85-1.01 1.785-1.952 2.807-2.804-.842 1.028-1.792 1.95-2.807 2.804M140.58 150.293c.815.653 1.55 1.382 2.193 2.208-.815-.656-1.55-1.38-2.194-2.207" fill="#94aabd" fill-rule="evenodd"/><path d="M142.368 240.588c-3.464-2.406-6.597-5.18-9.626-8.027-1.45-1.618-2.98-3.17-4.602-4.62-2.685-3.002-5.403-5.973-7.627-9.436v-.196c3.29-2.188 6.355-4.61 9.227-7.21 1.01-.87 1.95-1.796 2.804-2.816 2.665-3.646 6.876-7.43 6.218-13.25-.614-5.46-6.305-8.618-8.826-12.426-1.117-1.297-2.323-2.51-3.603-3.62-3.637-3.058-7.092-7.04-12.045-9.033-4.654-1.847-9.87-2.42-14.046-5.218-1.51-15.707 1.85-29.79 6.214-40.93-.466 3.285-2.29 6.94-3.202 10.426 1.47-3.07 2.527-6.555 3.817-9.814 9.837 8.21 19.16 16.944 28.688 25.478 1.32 1.48 2.723 2.888 4.21 4.214 10.44 12.377 20.732 24.88 22.683 45.752.12.737-.27 1.99.193 2.406v1.403c-.462.34-.074 1.522-.192 2.204-1.086 13.03-6.89 21.337-13.452 28.89-1.42 1.256-2.752 2.594-4.013 4.013-.974.472-1.708 2.122-2.817 1.81" fill="#0066a4" fill-rule="evenodd"/><path d="M128.14 227.94c1.623 1.45 3.153 3.002 4.602 4.62-1.618-1.462-3.153-3.002-4.602-4.62" fill="#94aabd" fill-rule="evenodd"/><path d="M71.756 169.753c.193-7.028 1.118-13.325 2-19.66 2.194.994 4.13 2.957 6.22 4.61 2.118 1.68 4.27 3.33 6.42 4.824.03 16.345 3.335 29.43 7.624 41.526 2.836 8.748 6.756 16.386 10.838 23.885-5.47 2.816-11.14 5.45-17.657 7.21-.87.81-.85 1.895-1 3.02-1.09-.388-1.353-1.682-1.81-2.607-6.96-14.083-11.993-31.307-12.634-51.964v-10.843" fill="#005494" fill-rule="evenodd"/><path d="M383.943 167.55c.317.895 2.063.34 2.81.794h-2.203c-.056-.396-.536-.382-.607-.794M295.063 222.52c.853-1.01 1.785-1.95 2.816-2.805-.852 1.026-1.79 1.964-2.817 2.804M121.107 246.998c1.154.987 2.224 2.07 3.22 3.216-1.158-.997-2.236-2.06-3.22-3.216M108.266 266.464c.886.707 1.692 1.522 2.412 2.404-.886-.71-1.69-1.52-2.412-2.404M220.827 291.942c.723-.882 1.522-1.69 2.404-2.407-.72.9-1.514 1.692-2.403 2.407" fill="#94aabd" fill-rule="evenodd"/><path d="M108.266 266.464c-.324-.486-.712-.882-1.195-1.194 7.39-3.244 14.388-6.887 21.07-10.844 4.97 3.73 10.075 7.7 16.244 11.028 17.82 9.628 40.984 14.464 67.216 15.86.28.46 1.393.07 2 .197h2.605c1.078.472 3.016.074 4.418.2h6.62c1.28-.126 3.077.272 4.016-.2h3.412c-4.105 2.376-8.095 4.883-11.44 8.025-.883.717-1.682 1.525-2.405 2.406-3.382 3.844-6.398 8.068-7.026 14.653H200.567c-40.408-2.12-67.927-17.142-89.888-37.725-.72-.882-1.526-1.697-2.412-2.404" fill="#005494" fill-rule="evenodd"/><path d="M175.68 12.262c-.12 1.195.272 2.93-.2 3.812.134-1.226-.264-2.946.2-3.812M392.773 157.32c.49-.34 2.337-.34 2.818 0h-2.817M387.36 157.52c.868-.467 2.607-.073 3.813-.2-.875.454-2.612.075-3.814.2M381.742 157.717c.936-.468 2.743-.07 4.015-.196-.946.456-2.742.07-4.015.197" fill="#94aabd" fill-rule="evenodd"/><path d="M87.005 237.568c1.494-.37 1.933-1.803 2.206-3.414 6.286-1.663 11.7-4.208 16.86-7.013 4.678 6.944 9.388 13.885 15.037 19.858.984 1.156 2.062 2.22 3.22 3.216.513.96 1.645 1.28 2.006 2.407-6.85 3.657-13.447 7.556-21.072 10.43-7.124-7.455-13.128-16.03-18.255-25.482" fill="#005494" fill-rule="evenodd"/><path d="M177.498 12.858c-.14.74.25 1.99-.207 2.406.13-.742-.26-1.994.208-2.406M387.36 159.33c1.075-.47 3.008-.073 4.417-.22-1.07.47-3.01.073-4.418.22M381.546 159.527c.997-.47 2.87-.072 4.21-.198-1.005.453-2.874.055-4.21.197" fill="#94aabd" fill-rule="evenodd"/></svg>