<svg xmlns="http://www.w3.org/2000/svg" width="400" height="252.163"><g fill="#00318e"><path d="M337.15 224.33c0 .52.034.863-.004 1.2-.707 6.228-1.436 12.454-2.126 18.684-.127 1.148-.183 2.317-.136 3.472.06 1.427.668 1.987 2.104 1.998 1.043.01 2.088-.11 3.222-.176-.007.837-.37 1.24-1.068 1.38-2.014.4-4.024.823-6.045 1.185-1.195.214-1.8-.286-1.788-1.557.012-1.366.164-2.733.28-4.1.096-1.147.23-2.294.36-3.573-.48-.065-.878-.18-1.27-.165-1.95.08-3.892.23-5.838.275-.846.018-1.33.406-1.8 1.045-1.06 1.443-2.17 2.85-3.293 4.246-.463.572-.99 1.093-1.51 1.616-1.937 1.95-4.196 2.75-7.105 1.845.41-.947.81-1.875 1.25-2.887.534 0 .998-.01 1.462 0 2.55.06 4.62-.9 6.166-2.932 2.01-2.643 4.025-5.278 5.98-7.96 1.8-2.47 3.527-4.994 5.278-7.5.292-.416.54-.863.935-1.497-2.505-.5-4.797-1.052-7.167-.737-2.537.336-3.986 2.24-3.688 4.81.14 1.193.463 2.365.745 3.747l-2.853 1.87c-.91-1.478-1.073-3.023-.677-4.466 1.16-4.23 3.692-7.336 8.055-8.524 1.276-.348 2.706-.162 4.065-.16.627 0 1.257.135 1.88.23 1.478.223 2.842.093 3.902-1.132.086-.1.282-.104.683-.24m-3.685 5.967c-.168-.05-.336-.104-.502-.156-2.51 3.523-5.016 7.046-7.725 10.852 2.482.367 4.635.19 6.907.194.454-3.758.888-7.324 1.32-10.89"/><path d="M307.337 0c1.35.194 2.694.42 4.047.58 8.364.98 16.007 3.946 23.223 8.213 8.65 5.115 14.76 12.475 19.154 21.36 4.572 9.244 7.474 19.015 8.953 29.212 1.39 9.596 1.452 19.232.75 28.883-1.452 20.006-5.29 39.576-10.84 58.83-.13.45-.237.91-.39 1.496.427.21.828.428 1.244.613 2.08.935 4.036 2.06 5.672 3.684 1.29 1.28 2.31 2.74 2.98 4.43.125.313.162.66.288 1.192-.294-.253-.442-.332-.52-.455-2.178-3.404-5.404-5.415-9.078-6.803-5.4-2.038-11.04-2.725-16.764-2.77-7.52-.054-14.958.826-22.25 2.605-13.956 3.404-27.503 8.03-40.662 13.817-10.32 4.54-20.68 9-31.105 13.294-8.968 3.695-18.38 5.786-27.996 6.96-6.03.736-12.07 1.165-18.145.63-4.65-.412-9.2-1.205-13.48-3.16-3.482-1.593-6.544-3.66-8.083-7.387-.03-.068-.17-.088-.292-.148-.275 3.38.704 6.15 3.562 8.185 2.966 2.11 6.22 3.55 9.716 4.457 6.507 1.69 13.124 1.833 19.79 1.386 6.855-.46 13.595-1.616 20.287-3.134 6.498-1.474 12.785-3.604 18.907-6.19 7.185-3.032 14.304-6.223 21.443-9.367 14.15-6.232 28.567-11.724 43.566-15.57 9.39-2.41 18.925-3.764 28.65-3.137 5.35.346 10.567 1.37 15.39 3.836 3.226 1.65 5.846 3.978 7.29 7.39.382.9.628 1.905.705 2.878.374 4.68.663 9.363.992 14.044.04.566.134 1.127.223 1.86 1.73-.26 3.332-.473 4.92-.752 5.07-.893 10.166-1.147 15.277-.498 5.284.672 10.136 2.428 14.158 6.073.38.344.72.73 1.08 1.098-.542.596-1.008.64-1.584.23-5.732-4.102-12.25-5.36-19.15-5.413-4.83-.038-9.546.72-14.484 1.556l.195 3.052c1.336-.18 2.477-.29 3.603-.49 5.803-1.036 11.624-1.326 17.47-.43 2.986.457 5.855 1.325 8.548 2.723.404.21.776.478 1.38.855-4.35 1.904-7.14 5.148-9.6 8.987 4.7 4.578 8.543 9.783 11.265 16.105-.643-.126-1.034-.174-1.408-.28-4.584-1.266-9.243-1.433-13.958-1.094-6.432.46-12.712 1.906-19.073 2.822-2.24.32-4.5.53-6.76.7-.935.07-1.896-.036-2.83-.17-2.627-.377-4.39-1.866-5.46-4.277-.304-.685-.264-1.555-1.063-2.035-.163-.1-.074-.68-.045-1.032.453-5.517.916-11.033 1.372-16.55.025-.305.003-.616.003-1.05-.797-.132-1.51-.33-2.226-.352-3.634-.118-7.27-.17-10.905-.292-1.2-.04-1.888.458-2.508 1.49-5.307 8.85-11.363 17.14-18.633 24.493-8.552 8.654-18.055 16.028-29.067 21.326-7.598 3.654-15.526 6.322-23.885 7.526-17.16 2.472-32.796-1.24-46.637-11.848-1.75-1.34-3.36-2.89-4.887-4.486-.887-.93-1.77-1.223-3.03-1.23-3.686-.026-7.387-.06-11.054-.4-4.386-.408-8.617-1.526-12.396-3.938-2.56-1.632-4.508-3.793-5.61-6.657-.12-.317-.168-.662-.31-1.23.966 1.18 1.69 2.222 2.567 3.11 2.115 2.14 4.705 3.54 7.52 4.54 6.414 2.27 13.056 2.85 19.794 2.578 9.643-.385 19.01-2.283 28.246-5.046 10.92-3.267 21.64-7.047 32.056-11.69 8.327-3.71 16.695-7.332 25.084-10.9 8.71-3.7 17.69-6.53 27.05-8.083 6.933-1.147 13.892-1.965 20.93-1.73 5.93.2 11.778.95 17.226 3.533 2.446 1.158 4.764 2.532 6.362 4.814.566.808 1.017 1.694 1.556 2.602.525-2.984-.203-5.26-2.367-7.28-2.194-2.053-4.832-3.376-7.614-4.418-4.186-1.567-8.553-2.264-12.992-2.5-4.798-.254-9.584-.038-14.367.497-6.72.748-13.342 1.983-19.864 3.74-7.504 2.02-14.682 4.936-21.786 8.04-5.023 2.195-10.013 4.467-15.027 6.684-13.95 6.17-28.19 11.522-42.976 15.352-5.722 1.483-11.527 2.513-17.422 3.03-4.584.4-9.163.466-13.738-.052-4.474-.51-8.845-1.472-12.892-3.53-3.175-1.614-5.835-3.824-7.31-7.163-.458-1.035-.782-2.19-.875-3.316-.4-4.782-.684-9.57-1.02-14.358-.028-.41-.114-.815-.198-1.392-.637.074-1.196.112-1.744.21-4.73.842-9.477 1.505-14.3 1.343-.684-.023-1.37-.06-2.05-.132-1.422-.143-1.428-.157-2.103 1.06-9.057 16.35-21.887 28.895-38.15 38.023-9.84 5.525-20.272 9.38-31.384 11.298-9.812 1.693-19.69 2.178-29.625 1.144-7.545-.786-14.87-2.434-21.845-5.455-12.437-5.387-21.405-14.39-27.355-26.486-3.31-6.73-5.232-13.892-6.494-21.25-.088-.51-.108-1.032-.164-1.59l1.536-.687c.36.684.702 1.312 1.025 1.95 5.654 11.18 13.514 20.464 23.793 27.66 7.352 5.147 15.524 8.18 24.388 9.452 5.514.79 11.04 1.003 16.56.324 13.54-1.668 25.582-6.887 36.022-15.674 13.008-10.95 21.257-24.794 24.764-41.426 1.767-8.373 1.385-16.643-1.462-24.784-3.1-8.856-9.017-15.088-17.364-19.158-4.96-2.42-10.2-3.98-15.58-5.105-.403-.085-.796-.215-1.176-.317.12-1.866.123-1.857 1.714-2.414 15.138-5.302 28.434-13.496 39.46-25.226 9.985-10.62 16.317-23.103 18.835-37.468.944-5.39 1.148-10.824-.458-16.147-2.475-8.203-7.363-14.324-15.395-17.787-7.177-3.094-14.59-4.003-22.282-2.837-6.582.998-13.08 2.376-19.227 5.004-8.672 3.71-16.54 8.625-22.843 15.78-3.368 3.82-6.082 8.08-8.357 12.628-.87 1.74-.895 1.746-2.972 1.33-.022-.13-.09-.286-.065-.42 2.636-13.316 8.91-24.65 18.94-33.76 10.16-9.228 22.018-15.278 35.54-17.98 7.92-1.585 15.915-1.89 23.935-1.436 7.342.415 14.58 1.598 21.424 4.44 9.933 4.125 17.757 10.665 22.67 20.38 2.236 4.425 3.345 9.196 3.928 14.096 1.243 10.47-1.34 20.197-5.82 29.535-5.426 11.3-13.437 20.48-23.19 28.243-9.78 7.788-20.646 13.644-32.196 18.308-1.416.573-2.852 1.1-4.273 1.66-.466.184-1.04.277-1.084 1.19.807.15 1.61.303 2.413.45 7.532 1.36 14.72 3.687 21.248 7.78 7.086 4.444 12.742 10.22 16.104 17.985.914 2.115 1.47 4.387 2.178 6.59.174.543.303 1.096.482 1.755.538-.057 1-.08 1.45-.157 4.21-.716 8.41-1.47 12.622-2.156 3.183-.517 6.394-.872 9.588-.17 1.366.3 2.67.885 4.174 1.4.13-.94.29-1.897.39-2.865 1.362-13.03 3.92-25.84 7.094-38.535 3.523-14.09 7.962-27.88 14.075-41.077 5.96-12.87 13.053-25.073 22.09-36.057 9.194-11.18 20.22-20.15 33.113-26.754 7.418-3.8 15.33-6.203 23.515-7.676 2.692-.483 5.434-.68 8.15-1.022.518-.066 1.023-.21 1.535-.316h6.33zm-3.492 181.64c1.493.577 2.91.295 4.253-.44 2.328-1.274 3.644-3.306 4.145-5.862.453-2.297-.39-3.568-2.657-4.223-.065-.02-.097-.146-.15-.232.34-.644.766-1.262 1.01-1.946.58-1.61-.462-3.216-1.985-3.172-1.518.047-3.287 1.742-3.584 3.618.686-.525 1.2-1.064 1.83-1.35.463-.212 1.142-.262 1.61-.082.602.232.67.946.5 1.517-.18.594-.437 1.203-.814 1.686-.645.827-1.42 1.55-2.114 2.34-.2.226-.312.53-.464.8.797-.146 1.36-.508 1.944-.828 1.553-.846 2.61-.396 3.122 1.31.858 2.863-.963 5.334-4.044 5.28-1.34-.022-2.242.242-2.56 1.632l-3.542.242c-.29-2.163-.56-4.24-.846-6.317-.288-2.097-.353-4.226-.75-6.635-.888.974-1.513 1.67-2.15 2.357-.655.702-1.32 1.394-1.998 2.107.716.546 1.05.163 1.413-.145.328-.28.67-.542 1.185-.953l1.22 10.468c-.65.352-1.207.644-1.756.954-.568.32-1.325.518-1.068 1.448.123.032.235.103.31.076 2.374-.873 4.743-1.758 7.117-2.63.492-.18.828-.455.825-1.02m-86.69.653c.55 0 .922.05 1.278-.007 5.208-.846 10.352-1.967 15.39-3.546 8.165-2.56 16.005-5.937 23.79-9.45 5.96-2.686 11.873-5.475 17.87-8.07 8.378-3.62 17.037-6.483 25.738-9.22 7.16-2.25 14.464-3.813 21.906-4.756 1.572-.2 1.61-.174 1.988-1.678 1.244-4.96 2.554-9.902 3.668-14.89 4-17.918 7.415-35.93 8.465-54.31.586-10.26.247-20.452-2.01-30.52-1.773-7.902-4.7-15.325-9.51-21.894-7.595-10.37-17.89-14.26-30.476-12.403-5.833.86-11.14 3.143-16.114 6.226-8.308 5.15-15.15 11.905-21.192 19.515-7.206 9.077-12.6 19.198-17.055 29.845-4.998 11.94-8.87 24.253-12.086 36.775-4.173 16.246-7.717 32.617-9.932 49.26-1.213 9.11-1.94 18.244-1.812 27.437.007.52.057 1.036.095 1.686m-12.833 1.416c.053-.423.1-.578.09-.73-.618-7.64-.51-15.273.068-22.912.558-7.365 1.478-14.684 2.714-21.96 2.14-12.58 4.913-25.026 8.393-37.306 3.5-12.344 7.782-24.392 13.287-36.002 7.315-15.426 17.377-28.735 30.35-39.834 7.218-6.174 15.094-11.303 23.92-14.913 3.664-1.5 7.427-2.683 11.27-3.635.422-.106 1.01-.328 1.144-.652.282-.68.314-1.464.467-2.313-.564.034-.88.012-1.18.076-8.744 1.876-17.265 4.51-25.184 8.676-12.322 6.483-22.91 15.225-31.714 26.007-10.927 13.38-19.29 28.304-25.524 44.378-8.502 21.926-14.076 44.598-16.59 68-.965 8.986-1.164 17.99-.475 27.006.15 1.984.396 3.962.605 6.014 2.875.36 5.58.32 8.36.1m134.49-37.278c.215-.66.38-1.103.503-1.557 4.547-17.136 8.22-34.445 10.25-52.077 1.194-10.39 1.81-20.8.923-31.25-.71-8.336-2.246-16.502-5.107-24.382-2.33-6.417-5.588-12.265-10.596-17.033-7.293-6.942-15.887-11.58-25.466-14.493-.285-.086-.59-.106-1.037-.184-.175.938-.33 1.783-.492 2.648.62.212 1.063.37 1.51.514 12.938 4.152 21.837 12.52 26.653 25.274 3.43 9.08 5.042 18.49 5.44 28.13.25 6.013-.027 12.015-.47 18.02-.695 9.42-1.854 18.78-3.39 28.092-2.06 12.486-4.692 24.854-7.913 37.096-.1.382-.108.79-.162 1.202h9.357zM305.06 196.99l-.203-.336c-.638.19-1.297.334-1.914.58-5.632 2.232-11.31 4.36-16.872 6.76-7.305 3.154-14.47 6.637-21.783 9.774-10.185 4.37-20.7 7.823-31.358 10.84-.532.15-1.05.34-1.69.548.27.376.394.602.567.786 3.037 3.232 6.537 5.804 10.686 7.437 7.23 2.843 14.546 2.613 21.87.46 6.413-1.884 12.058-5.243 17.307-9.315 9.078-7.04 16.304-15.7 22.204-25.508.403-.67.79-1.35 1.185-2.028m-46.176 44.42c.31-.043.61-.066.9-.126 10.347-2.123 20.007-5.956 28.66-12.032 13.212-9.28 23.39-21.32 31.39-35.265.143-.252.196-.553.33-.957-.492.026-.86 0-1.204.07-2.27.47-4.525 1.006-6.803 1.426-1.043.193-1.622.738-2.13 1.638-3.706 6.585-7.92 12.824-12.916 18.51-9.974 11.347-22.03 19.52-36.553 23.923-1.417.43-1.62.776-1.673 2.814M140.492 156.32c.174.587.317.97.4 1.367.373 1.764 1.504 2.512 3.23 2.936 5.258 1.294 10.558 1.38 15.864.673 5.43-.722 10.82-1.733 16.242-2.51 2.707-.387 5.447-.705 8.178-.745 4.127-.06 6.456 1.803 7.687 5.73.15.484.314.966.583 1.79.208-.726.375-1.11.423-1.507.566-4.635-2.412-8.463-7.043-9.05-3.123-.395-6.213.05-9.284.51-5.314.802-10.603 1.763-15.923 2.514-4.874.69-9.78.843-14.64-.165-1.843-.382-3.643-.975-5.718-1.542m74.93 71.58c3.473 6.03 23.347 15.595 30.563 14.733.108-.602.224-1.242.35-1.95-1.45-.463-2.755-.856-4.043-1.294-7.318-2.493-13.97-6.125-19.604-11.49-.46-.436-.89-.88-1.635-.77-1.854.276-3.716.513-5.63.773M174.79 188.02c-.43 0-.74-.036-1.037.007-1.51.22-3.02.457-4.528.7-4.554.736-9.138.847-13.71.375-3.848-.4-7.55-1.43-10.978-3.308-.42-.23-1.02-.395-1.456-.284-.73.187-1.4.62-2.348 1.068.67.505 1.102.866 1.566 1.175 3.67 2.44 7.75 3.77 12.082 4.368 5.37.743 10.723.507 16.056-.4 1.493-.254 2.992-.48 4.642-.745-.1-1.043-.19-1.958-.288-2.956m79.123 4.642c.475-.755.91-1.356 1.245-2.008.285-.555.56-1.154.652-1.76.304-1.996-1.12-3.216-3.003-2.505-1.772.672-2.978 2.02-3.425 3.872-.4 1.668.21 3.008 1.82 3.856-.252.362-.445.67-.667.952-.754.965-1.446 1.968-1.61 3.215-.162 1.275.168 2.428 1.217 3.242 1 .774 2.092.574 3.137.066 1.736-.846 2.955-2.19 3.62-4.002.74-2.02.108-3.494-1.837-4.415-.327-.155-.662-.295-1.15-.51m39.25-11.545c-.15-2.527-.415-4.512-1.423-6.293-1.2-2.126-3.15-2.44-5.013-.865-1 .844-1.59 1.95-1.938 3.19-.578 2.07-.595 4.17-.103 6.248.238 1.013.574 2.04 1.072 2.947 1.098 2.002 2.948 2.318 4.78.934.954-.72 1.66-1.647 1.957-2.795.325-1.266.514-2.566.667-3.365m-53.447 24.957c2.765.19 4.59-1.1 5.91-3.164 2.144-3.362 1.888-6.908.528-10.467-.18-.476-.532-.917-.892-1.29-.888-.932-2.045-1.15-3.18-.55-1.536.814-2.676 2.043-3.37 3.646-.436 1.005-.42 2.05-.09 3.096.643 2.043 2.64 2.767 4.4 1.562.43-.295.775-.71 1.165-1.062.29-.263.592-.514 1.102-.956.082 1.27.225 2.262.19 3.25-.064 2-1.737 4.414-4.205 4.28-1.19-.066-1.197.064-1.558 1.655m38.04-16.88c.434-.918.723-1.565 1.042-2.2.85-1.69 1.812-3.335 2.53-5.08.362-.882.45-1.953.38-2.92-.1-1.33-1.15-2.21-2.412-2.31-2.125-.165-4.97 2.295-4.65 4.586.207 1.47.71 1.724 2.045.83-.178-.487-.394-.97-.533-1.473-.283-1.03.085-1.92.893-2.275.94-.41 2.045-.02 2.567.944.444.82.574 1.717.27 2.6-.378 1.09-.808 2.167-1.29 3.216-.94 2.056-1.95 4.082-2.9 6.136-.198.433-.63.9-.13 1.462.137-.05.358-.056.404-.15.604-1.21 1.73-1.436 2.904-1.57.47-.054.942-.09 1.414-.14 3.17-.345 3.537-.694 3.993-3.884.044-.31-.074-.64-.117-.963-.115-.025-.23-.05-.346-.077-.22.5-.378 1.043-.676 1.49-.275.413-.646.94-1.067 1.043-1.31.322-2.66.468-4.323.734m-19.398 9.33c4.5 1.368 8.952-4.29 8.11-8.29-.203-.97-.8-1.715-1.812-2.025-.34-.105-.678-.215-1.063-.34.393-.73.797-1.35 1.076-2.026.41-.984.123-2.12-.595-2.758-.703-.626-1.667-.758-2.63-.063-.833.6-1.492 1.454-2.186 2.233-.153.17-.125.5-.256 1.11.726-.582 1.158-.942 1.604-1.286.563-.434 1.16-.78 1.88-.38.557.306.762 1.115.467 1.998-.148.442-.37.888-.658 1.25-.593.737-1.256 1.416-1.888 2.123-.29.322-.57.65-.853.976.458.143.738.07.984-.068.506-.282.968-.65 1.49-.89 1.02-.463 1.946-.18 2.42.786 1.278 2.6-.064 5.602-2.82 5.988-.52.072-1.053.08-1.577.082-1.29.007-1.29 0-1.694 1.58m-26.21-1.802c.403 3.514.8 6.93 1.182 10.248-2.767 1.682-2.767 1.682-2.66 2.593 2.52-.942 5.03-1.865 7.518-2.834.23-.09.352-.466.737-1.01l-3.675.522-1.59-13.03c-.897.98-1.525 1.673-2.164 2.355-.654.698-1.32 1.385-2.06 2.16 1.383.588 1.654-.77 2.71-1.004m41.51-9.45c-1.506.56-2.992 1.064-4.435 1.665-.69.29-.734.894-.41 1.643 1.453-.543 2.822-1.066 4.2-1.566.812-.294 1.002-.817.644-1.74m-82.893-5.776c-.41.434-.664.873 0 1.662v-1.66zM341.263 251.638c.31-1.095.548-1.938.792-2.78.947-3.293 1.9-6.583 2.843-9.876.146-.506.292-1.016.382-1.535.204-1.176-.255-1.61-1.4-1.29-.707.2-1.385.496-2.237.807.032-.365-.044-.783.092-.868 2.133-1.343 4.212-2.802 6.722-3.397.088-.022.198.056.385.114.47 1.53-.67 2.886-.643 4.613.493-.21.91-.343 1.28-.554 1.695-.964 3.372-1.96 5.067-2.922.596-.336 1.21-.652 1.846-.903 1.37-.538 1.79-.206 1.575 1.212-.063.414-.173.825-.282 1.233-.804 3.002-1.634 6-2.407 9.01-.235.912-.426 1.864-.433 2.798-.01 1.278.58 1.616 1.718 1.066 1.127-.545 2.215-1.172 3.553-1.573-.135.273-.198.657-.42.803-2.198 1.453-4.4 2.902-6.65 4.274-.99.602-1.64.266-1.71-.918-.065-1.14 0-2.332.258-3.44.634-2.72 1.42-5.402 2.13-8.104.187-.71.386-1.43.463-2.16.07-.673-.337-.988-.988-.84-.354.08-.69.255-1.017.42-4.667 2.37-4.66 2.37-6.038 7.482-.466 1.73-1.04 3.435-1.415 5.184-.224 1.046-.753 1.552-1.744 1.726-.495.087-.978.235-1.725.418"/><path d="M346.7 213.666c.113.325.17.5.233.673 1.25 3.553 3.932 5.554 7.697 5.734 3.39.162 6.725-.333 10.06-.85 5.62-.87 11.224-1.88 16.87-2.522 5.422-.615 10.825-.317 16.083 1.478 1.626.557 2.158 1.6 2.32 3.18-.25-.028-.407-.01-.528-.068-5.17-2.402-10.64-2.81-16.232-2.46-5.746.356-11.38 1.486-17.033 2.465-3.633.63-7.26 1.324-10.98 1.113-1.808-.1-3.554-.464-5.173-1.294-2.786-1.43-4.015-4.124-3.317-7.45M360.502 246.66c.44-1.884.676-3.847 1.356-5.64 1.615-4.26 4.724-7.033 9.17-8.116 2.695-.657 4.702.74 4.867 3.48.384 6.39-2.47 12.224-8.604 15.03-3.962 1.813-6.723-.24-6.788-4.753m3.197-1.36c.192 1.023.26 2.093.604 3.06.5 1.402 1.762 1.902 3.2 1.497 1.587-.445 2.615-1.54 3.334-2.936 1.32-2.565 2.015-5.303 2.018-8.195 0-.568-.1-1.158-.272-1.7-.63-1.993-2.21-2.665-4.094-1.774-1.19.563-1.99 1.535-2.644 2.637-1.35 2.275-1.923 4.76-2.147 7.412M375.406 248.18c.897-.586 1.76-1.147 2.762-1.798.223.667.372 1.15.545 1.623.448 1.236 1.287 2.11 2.616 2.227 1.414.124 2.578-.51 3.35-1.704.75-1.156.876-2.42.035-3.556-.485-.653-1.163-1.222-1.865-1.646-2.703-1.633-3.3-4.08-1.49-6.662 1.244-1.775 2.893-3.05 4.994-3.682 1.663-.5 3.087-.063 4.45 1.182l-2.115 2.478c-.61-.433-1.122-.872-1.697-1.192-1.882-1.045-4.013 0-4.143 2.006-.062.96.313 1.78.988 2.41.532.493 1.165.898 1.8 1.26 2.5 1.417 3.164 3.52 1.72 5.972-1.517 2.573-3.733 4.28-6.733 4.776-3.027.5-4.328-.403-5.22-3.695M347.835 227.457c1.51-1.906 3.115-2.67 5.253-1.824.388.154.806.232 1.202.37 1.546.545 2.99.438 4.31-.617.154-.124.36-.185.55-.263.033-.014.09.03.136.048-.775 2.143-2.744 3.228-4.86 2.677-.152-.038-.307-.07-.46-.114-3.174-.95-3.174-.95-6.13-.276M252.34 194.387c.73.345 1.336.55 1.852.888 1.758 1.154 1.584 3.878-.283 4.842-1.012.522-1.972.266-2.582-.713-.664-1.068-.75-2.183-.134-3.296.3-.544.687-1.04 1.145-1.72M252.72 192.3c-1.736-.823-2.288-2.295-1.443-3.68.35-.58.82-.97 1.54-.852.663.11.922.612 1.078 1.204.28 1.062-.012 1.938-1.176 3.33M291.478 182.78c-.146.876-.222 1.77-.46 2.622-.202.727-.683 1.36-1.5 1.452-.843.095-1.35-.495-1.725-1.156-1.01-1.774-1.356-3.746-1.578-5.733-.11-.986-.05-1.993-.05-2.99 0-.26.044-.526.107-.778.288-1.147.882-1.822 1.657-1.874 1.022-.067 1.615.62 1.875 1.412.555 1.685.963 3.42 1.378 5.147.146.607.136 1.253.195 1.88l.1.018M239.825 194.662c.308-.64.508-1.31.907-1.824.73-.933 1.973-1.063 2.747-.184.595.674 1 1.577 1.288 2.446.232.706-1.112 2.18-2.085 2.49-.79.255-1.57-.063-2.084-.98-.325-.578-.5-1.24-.775-1.948M240.56 122.07h-1.033l-.266-.108-.03-.015-.11-.026-.185-.088-.046-.053-.1-.163v-.262l.145-.146.053-.05.26-.19h.28l.28-.19h.472l.295-.176.266-.013.33-.09.32-.01.23-.082.338-.01.627-.094h.496l.53-.095h2.93l.684.094h.536l.863.094h.355l.414.102.334-.01.59.1h.344l.34.1.224-.01.584.1h.256l.335.103.132-.01.34.103.41-.007.334.104.223-.01.505.098.247-.003.267.108.104-.016.75.094.03.346-.464.092h-.5l-.502-.092-.905.004-.496-.098h-.437l-.5-.1-.438.007h-.04l-.083-.082c-.014 0-.074-.03-.353-.03-.133 0-.272.005-.38.01l-.174.004h-.47l-.767-.095h-.636c-.133-.015-1.77-.12-2.973-.12-.934 0-1.1.063-1.127.08l-.67.04-.227.09-.43.005-.533.098h-.215l-.228.083-.333.01-.11.075-.268.022-.107.07-.28.1-.267.014-.282.095-.09.094zm78.514-.24c-.19 0-.304-.126-.304-.33 0-.247.11-.535.352-.887.095-.134.192-.257.313-.384.12-.127.225-.238.334-.324.086-.085.213-.187.363-.307l.364-.285c.072-.154.142-.298.206-.433-.022.02-.038.04-.064.06-.228.19-.423.337-.605.44-.207.113-.39.17-.556.17-.226 0-.42-.143-.573-.438-.065-.108-.112-.22-.144-.344-.095.068-.177.12-.246.152-.122.06-.283.09-.485.09-.402.422-.776.656-1.128.656-.204 0-.39-.065-.564-.2-.16-.12-.288-.29-.378-.5-.015-.027-.03-.06-.037-.097-.533.608-.98.903-1.364.903-.195 0-.464-.073-.65-.42-.076-.147-.137-.325-.17-.543-.066.042-.13.083-.193.112-.11.06-.27.09-.474.09-.406.422-.783.656-1.134.656-.204 0-.397-.07-.56-.2-.16-.12-.29-.284-.38-.5-.026-.046-.04-.1-.06-.154-.29.268-.532.468-.7.61-.273.207-.482.3-.666.3-.16 0-.535-.056-.535-.635 0-.106.014-.208.04-.324.042-.098.09-.202.145-.302.03-.046.06-.11.102-.174-.102.098-.194.197-.273.288-.113.134-.23.282-.364.453-.14.18-.244.3-.31.36-.093.088-.196.136-.305.136-.257 0-.382-.298-.428-.395-.04-.09-.063-.183-.08-.285-.186.175-.35.316-.484.427-.208.175-.41.308-.592.403-.198.107-.395.156-.59.156-.213 0-.41-.07-.574-.227-.153-.134-.276-.324-.366-.553-.027-.068-.04-.136-.066-.21-.24.25-.472.452-.684.603-.323.225-.66.34-.992.34-.327 0-.58-.12-.77-.365-.18-.222-.27-.528-.27-.913 0-.328.08-.63.24-.903.157-.262.414-.535.756-.816.243-.2.493-.35.72-.445.243-.105.458-.153.664-.153.175 0 .33.038.438.126.084.06.187.187.187.413 0 .224-.077.443-.242.646-.153.193-.382.382-.683.57-.29.175-.647.348-1.087.522.107.065.133.155.183.214.06.06.125.088.213.088.13 0 .256-.028.386-.082.146-.057.292-.14.44-.247.153-.103.34-.245.555-.426-.027-.065-.014-.172.045-.27.098-.166.273-.37.55-.623.306-.288.6-.522.874-.68.297-.177.522-.258.7-.258.16 0 .29.05.396.155.113.1.167.237.167.39 0 .132-.055.286-.172.478-.11.185-.22.337-.36.475-.156.16-.287.236-.407.236-.153 0-.262-.09-.287-.223-.2.16-.367.273-.466.344-.086.066-.167.14-.224.21-.04.056-.058.106-.058.155 0 .118.036.205.115.284.08.075.19.11.322.11.163 0 .362-.064.6-.19.25-.13.545-.32.878-.57.004-.174.09-.308.204-.478.22-.318.395-.545.556-.692.17-.17.364-.257.547-.257.127 0 .23.02.315.062.113.062.176.172.176.3v.05l-.05.132-.148.17c.08-.07.16-.14.244-.222.23-.198.488-.385.778-.57.178-.124.343-.185.483-.185.2 0 .276.206.31.298.054.143.076.29.076.443 0 .117-.072.237-.24.408-.663.708-.74.967-.74 1.044 0 .004.01.004.015.004.028 0 .1-.02.218-.096.127-.08.326-.22.586-.42-.04-.076.024-.254.126-.428.13-.236.305-.457.523-.66.205-.202.432-.367.68-.497.253-.127.494-.195.722-.195.172 0 .305.025.407.085.17.086.214.22.214.326 0 .034-.003.066-.014.104.043.027.083.058.11.096.063.088.097.21.097.396 0 .158-.034.343-.11.57-.036.128-.086.247-.143.358l.046-.012.122-.086c.034-.208.103-.487.202-.78.145-.415.34-.836.584-1.25.244-.414.502-.79.765-1.098.276-.323.53-.556.765-.683.12-.07.212-.1.298-.1.133 0 .238.068.288.185.03.087.04.193.04.337 0 .44-.167.946-.534 1.55-.334.588-.818 1.194-1.426 1.806.015.046.004.144.004.22 0 .137.032.255.095.337.044.073.102.107.196.107.04 0 .09-.02.15-.06.075-.05.16-.114.254-.192l.27-.24.222-.196c-.023-.085.034-.26.13-.426.133-.236.31-.457.526-.662.2-.192.433-.363.684-.495.254-.127.498-.195.716-.195.17 0 .31.025.412.085.184.094.212.243.212.326 0 .034 0 .066-.012.104.042.027.08.058.108.096.07.088.1.21.1.396 0 .158-.036.343-.112.57-.035.124-.086.245-.144.358l.04-.01c.04-.022.122-.08.24-.163h-.01c-.05 0-.042-.057-.013-.127.063-.134.16-.28.29-.442.12-.145.28-.303.47-.455.188-.158.412-.314.662-.457.495-.295.88-.437 1.168-.437.426 0 .46.282.46.37 0 .114-.046.222-.137.327.08-.04.157-.058.23-.058.108 0 .203.033.274.106.068.06.104.155.104.274 0 .16-.055.37-.175.642-.063.152-.165.362-.296.628l.483-.335c-.026-.168.013-.255.05-.33.034-.068.096-.175.19-.318.462-.693.888-1.03 1.31-1.03.41 0 .443.29.443.377 0 .128-.06.292-.204.514-.126.213-.238.364-.348.46-.244.228-.408.387-.48.476-.066.07-.084.135-.084.21.088.153.142.19.26.19.11 0 .238-.042.376-.126.146-.086.34-.224.568-.408l-.02.003c-.034 0-.033-.042-.017-.086.034-.114.1-.23.19-.335.076-.102.207-.23.39-.39.46-.402.918-.706 1.36-.907.453-.2.803-.3 1.06-.3.106 0 .207.04.295.117.073.07.128.143.163.227.04.085.068.152.068.22v.1l-.146.167c-.027.01-.05.023-.073.035.033.08.065.142.078.188l.01.034.03.145c0 .082-.03.206-.248.487-.15.185-.25.32-.3.403-.044.06-.058.133-.058.23 0 .122.03.142.127.142.094 0 .33-.07.873-.52l.283-.242v.638c-1.11 1.244-1.553 1.37-1.796 1.37-.168 0-.302-.056-.39-.18-.077-.107-.1-.246-.1-.42 0-.095.006-.2.036-.324-.193.196-.346.35-.466.46-.252.227-.455.336-.64.336-.117 0-.23-.07-.37-.218-.124-.134-.223-.292-.295-.473-.007-.023-.022-.048-.03-.068-.194.212-.378.377-.544.504-.292.203-.532.304-.742.304-.317 0-.557-.162-.706-.47-.066-.126-.116-.278-.15-.433l-1.18.932c-.387.65-.776 1.183-1.132 1.53-.384.386-.672.56-.884.56m-1.546-4.33c-.02.01-.05.033-.072.047-.166.106-.306.214-.42.328-.104.102-.17.197-.205.293-.056.265-.097.427-.1.466 0 .025 0 .098.236.098.032 0 .144-.017.44-.21-.03-.11-.047-.216-.047-.316 0-.21.045-.41.133-.615.01-.03.02-.057.035-.09m-4.97 0c-.018.01-.04.033-.065.047-.166.106-.307.214-.42.328-.107.102-.173.197-.2.288-.068.27-.1.432-.103.47 0 .03 0 .1.232.1.03 0 .14-.018.44-.215-.03-.107-.044-.212-.044-.312 0-.2.044-.406.127-.615.015-.03.025-.057.032-.09m14.077-.14c-.443.21-.776.398-.997.56-.277.197-.418.393-.418.584l.036.15c.356-.218.634-.44.874-.703.152-.163.315-.36.504-.59m-5.235-.343c-.085.05-.184.1-.297.146-.24.102-.483.235-.72.4-.235.17-.428.34-.57.524-.124.163-.19.304-.19.417.032.034.072.052.113.052.055 0 .112-.03.182-.078.135-.09.328-.245.582-.472.11-.102.26-.266.462-.495.17-.202.312-.37.437-.493m-17.248.045c-.007.004-.018.012-.032.016-.11.063-.218.14-.332.236-.113.092-.206.204-.31.343-.013.013-.013.023-.02.034.102-.05.193-.11.268-.18.17-.128.303-.262.385-.383.02-.027.034-.047.042-.065m11.61-1.493c-.12.142-.243.34-.382.585-.068.137-.14.272-.193.403.09-.13.182-.266.27-.412.123-.203.218-.38.29-.543.004-.012.004-.018.015-.034m-23.02 6.03c-.137 0-.247-.093-.327-.278-.062-.144-.087-.27-.087-.383 0-.105.02-.2.068-.298.153-.333.442-.84.865-1.51-.502.42-.704.473-.82.473-.26 0-.418-.27-.524-.475-.137-.28-.21-.528-.21-.75 0-.194.032-.353.1-.486.05-.12.143-.273.28-.468.19-.25.37-.463.54-.635.177-.176.33-.31.468-.41.167-.12.276-.168.368-.168.13 0 .255.057.363.17.103.115.157.242.157.37 0 .09-.04.204-.15.356-.083.13-.22.29-.403.483-.18.187-.437.408-.76.678l-.027.13c.054-.03.178-.098.41-.247.3-.198.62-.46.98-.798.138-.133.25-.247.34-.348l.24-.282c.082-.095.15-.17.204-.213.09-.083.16-.117.244-.12h.01c.152 0 .26.062.323.173.06.087.083.223.083.39 0 .11-.035.223-.127.375-.074.122-.207.322-.41.605-.193.262-.383.545-.566.83.17-.16.314-.282.43-.383.127-.11.286-.236.48-.382l.28-.204v.631c-.46.532-.817.924-1.142 1.29-.32.367-.574.667-.75.886l-.155.198-.157.193c-.08.096-.15.187-.207.267-.066.1-.13.167-.17.217l-.055.062-.186.065zm-23.708-.62c-.35 0-.662-.068-.912-.208-.268-.14-.47-.34-.6-.61-.132-.256-.193-.57-.193-.908 0-.273.044-.562.13-.863.093-.296.22-.596.38-.89.173-.297.373-.603.613-.92.236-.31.515-.64.832-.982.338-.36.668-.67.99-.924.33-.262.625-.472.897-.617.263-.152.517-.266.746-.34.236-.078.443-.116.607-.116.19 0 .346.042.48.136.135.084.23.21.306.372.066.152.094.33.094.523 0 .358-.124.75-.362 1.163-.24.412-.535.806-.884 1.177-.346.367-.68.677-1.004.92-.35.26-.596.38-.777.38-.132 0-.26-.043-.373-.142-.118-.107-.178-.23-.178-.37 0-.208.102-.435.307-.696.188-.24.39-.463.614-.66.34-.313.422-.335.498-.335h.172l.013.07.086-.09c.237-.257.456-.538.652-.84.227-.348.272-.555.272-.67-.038-.023-.08-.033-.13-.033-.152 0-.38.105-.763.4-.418.32-.855.728-1.28 1.215-.44.487-.808.997-1.094 1.514-.288.51-.433.954-.433 1.322 0 .21.035.38.098.513.057.125.142.222.253.29.118.068.257.103.42.103.404 0 .87-.16 1.383-.46.51-.3 1.094-.754 1.73-1.354-.007-.172.026-.26.07-.334.03-.07.093-.176.185-.32.465-.69.89-1.028 1.31-1.028.413 0 .45.288.45.376 0 .13-.066.295-.208.52-.118.2-.235.352-.345.452-.25.23-.415.39-.486.48-.057.068-.086.133-.086.21.088.15.142.188.266.188.108 0 .232-.04.37-.126.153-.09.357-.235.603-.43-.032-.042.02-.25.136-.436.16-.265.405-.535.747-.816.258-.206.495-.35.725-.445.245-.105.46-.153.66-.153.183 0 .332.038.44.126.092.064.194.193.194.413 0 .224-.085.437-.248.646-.145.19-.374.374-.683.57-.292.175-.644.348-1.09.522.107.065.136.155.187.214.06.06.125.088.22.088.122 0 .25-.028.384-.085.14-.053.288-.137.43-.243.157-.103.338-.248.552-.423.01-.154.095-.288.212-.458.206-.31.395-.545.552-.692.182-.17.367-.257.55-.257.126 0 .23.02.312.062.112.062.183.17.183.3v.047l-.053.124c-.03.053-.054.095-.083.118v.004c.055-.052.117-.11.176-.162.23-.2.486-.386.777-.57.186-.128.35-.185.49-.185.194 0 .277.217.302.298.05.147.085.294.085.443 0 .116-.076.236-.243.407-.663.71-.74.967-.74 1.045.008.004.008.004.016.004.024 0 .095-.025.21-.096.134-.082.342-.233.608-.44-.028-.062-.014-.168.048-.266.097-.167.273-.37.546-.624.313-.295.608-.523.875-.68.294-.176.524-.258.705-.258.156 0 .295.052.393.158.105.1.164.235.164.39 0 .13-.06.285-.17.476-.107.186-.223.338-.358.475-.156.16-.288.237-.415.237-.153 0-.255-.09-.287-.224-.205.16-.366.272-.46.343-.094.066-.166.14-.227.21-.044.056-.067.106-.067.156 0 .117.043.205.127.284.076.074.18.11.316.11.168 0 .368-.065.596-.19.253-.13.54-.32.88-.566-.022-.15.01-.244.044-.314.035-.078.1-.184.196-.33.46-.69.887-1.026 1.31-1.026.408 0 .44.288.44.375 0 .13-.064.295-.2.52-.118.198-.235.35-.34.452-.255.23-.418.392-.494.48-.05.068-.084.134-.084.21.095.152.145.188.262.188.112 0 .237-.04.38-.126.144-.086.343-.226.568-.407 0-.2.063-.314.157-.42.072-.1.203-.227.377-.388.47-.403.928-.71 1.37-.908.445-.2.797-.3 1.055-.3.113 0 .212.045.296.12.07.066.127.14.17.224.033.086.06.154.06.22v.1l-.15.168c-.016.01-.044.024-.07.035v.007l.07.15c.036.093.05.15.05.21 0 .118-.076.258-.255.49-.137.183-.24.315-.295.4-.038.063-.06.138-.06.232 0 .122.032.142.133.142.093 0 .328-.07.866-.52l.285-.243v.638c-.85.977-1.406 1.37-1.79 1.37-.216 0-.326-.096-.39-.18-.07-.104-.106-.24-.106-.42 0-.095.014-.205.043-.324-.19.195-.345.344-.462.458-.258.228-.462.338-.643.338-.12 0-.24-.07-.374-.218-.117-.137-.216-.298-.288-.473-.014-.023-.026-.048-.032-.068-.193.21-.375.375-.55.504-.286.203-.53.304-.74.304-.216 0-.517-.08-.707-.47-.056-.122-.1-.258-.136-.403-.195.176-.364.322-.5.434-.206.177-.41.31-.59.405-.2.106-.398.156-.595.156-.214 0-.404-.07-.568-.227-.156-.14-.28-.33-.37-.554-.026-.07-.048-.143-.062-.213-.28.256-.51.455-.68.588-.263.204-.478.3-.662.3-.156 0-.537-.058-.537-.636 0-.114.018-.223.055-.324.032-.098.08-.205.134-.306l.1-.178c-.1.102-.192.2-.272.295-.108.13-.235.282-.364.45-.144.18-.244.31-.312.368-.095.087-.196.13-.306.13-.258 0-.378-.284-.422-.394-.037-.087-.07-.176-.086-.285-.24.25-.463.447-.677.597-.323.225-.66.34-1 .34-.32 0-.577-.12-.77-.357-.097-.144-.17-.295-.214-.478-.18.187-.35.342-.51.46-.29.202-.53.303-.74.303-.314 0-.555-.163-.704-.47-.057-.118-.105-.248-.137-.39-.39.404-.753.74-1.08 1.01-.422.35-.844.625-1.262.82-.426.198-.836.3-1.23.3m18.71-3.618c-.445.21-.768.396-.99.556-.28.2-.42.395-.42.586l.03.15c.363-.218.64-.44.888-.704.144-.163.314-.36.492-.588m-11.12-.3c-.01.004-.02.012-.036.016-.11.063-.214.14-.33.235-.117.097-.212.205-.31.34-.003.014-.014.027-.022.037.098-.05.19-.117.272-.18.176-.128.303-.262.383-.384.02-.026.03-.046.043-.064m23.478 3.04c-.13 0-.238-.05-.333-.144-.094-.102-.14-.228-.14-.378 0-.182.064-.41.184-.705.12-.273.3-.607.55-1.012.237-.392.545-.84.91-1.34.31-.427.656-.87 1.027-1.33-.178-.013-.37-.02-.593-.02-.4 0-.86.048-1.35.13-.507.085-.94.186-1.31.302l-.096.027c.272.054.407.13.407.283 0 .218-.27.218-.407.218l-.546-.004c-.184 0-.32-.007-.4-.022-.087-.014-.195-.048-.263-.14-.047-.066-.074-.153-.074-.27 0-.05.014-.164.05-.35.062-.32.156-.585.29-.785.13-.215.34-.382.608-.51.264-.126.606-.22 1.052-.294.738-.118 1.325-.172 1.804-.172.35 0 .642.013.842.036.225.033.383.076.494.138.14.07.22.146.26.23.028.055.064.145.104.275l.138.396.057.215c0 .14-.033.27-.103.39-.052.086-.154.228-.296.418-.137.17-.236.298-.305.403-.712 1.113-1.206 1.934-1.49 2.498l.026.017.122.092-.068.135c-.04.082-.08.155-.12.217l-.1.166c-.083.14-.122.21-.146.248-.255.43-.514.64-.783.64m-56.812-.163c-.07 0-.157-.01-.252-.028-.175-.033-.457-.093-.844-.19-.38-.092-.734-.17-1.06-.233-.322-.062-.617-.094-.878-.094-.138 0-.255.013-.35.047-.11.032-.262.09-.456.162-.29.117-.412.127-.475.127-.26 0-.35-.164-.35-.307 0-.085.027-.17.083-.264.1-.154.197-.308.292-.436.105-.162.216-.287.34-.37.116-.09.287-.162.51-.206.187-.042.427-.066.72-.076.47-.68.908-1.294 1.314-1.826.43-.56.814-1.025 1.162-1.407.342-.38.65-.676.927-.885.298-.22.532-.328.725-.328.146 0 .27.04.366.132.067.063.146.177.146.37 0 .23-.095.697-.893 2.094l.035.036.122.108-.107.125c-.263.312-.484.533-.675.676-.222.158-.377.228-.507.228-.046 0-.278-.016-.278-.353 0-.342.213-.836.656-1.508.11-.168.193-.302.262-.412-.05.053-.094.104-.155.165-.332.348-.747.856-1.236 1.505-.438.567-.763 1.007-.983 1.322.27.03.508.063.7.113.258.06.63.152 1.12.288.472.124.818.206 1.04.226l.32.026c-.027-.128-.04-.266-.04-.404 0-.116.013-.23.04-.358.028-.13.065-.218.106-.292.03-.07.092-.176.185-.32.463-.692.892-1.028 1.31-1.028.413 0 .444.288.444.376 0 .128-.063.292-.2.514-.123.206-.237.358-.347.458-.25.23-.416.39-.494.48-.048.067-.072.133-.072.21.086.15.14.188.256.188.115 0 .24-.04.377-.126.148-.086.34-.224.57-.408-.036-.182.113-.47.386-.748.29-.286.624-.535.997-.727.39-.202.68-.296.89-.296.133 0 .263.046.38.137.19-.37.375-.71.55-1.01.214-.368.393-.64.537-.818.19-.23.312-.325.435-.325.115 0 .225.048.31.15.086.094.124.206.124.323 0 .186-.113.46-.36.855l-.19.296-.484.76c-.213.33-.402.662-.558.99-.146.312-.22.594-.22.85 0 .212.06.212.085.212.047 0 .13-.028.294-.142.155-.106.365-.285.636-.532.036-.168.1-.312.174-.436.156-.262.413-.535.756-.816.244-.197.483-.35.715-.445.242-.105.467-.153.665-.153.184 0 .33.038.438.126.09.06.194.187.194.413 0 .02 0 .044-.004.062.08-.12.165-.222.264-.328.155-.16.293-.257.423-.31l.03-.005.15-.03c.16 0 .262.1.262.25 0 .024-.004.05-.01.076.44-.057.73-.088.864-.088h.038l.17.037c.12.056.178.184.21.278.037.104.058.22.058.336 0 .1-.038.2-.12.304-.053.07-.157.18-.297.32-.145.15-.262.305-.37.492-.118.213-.136.307-.136.348.018.003.042.006.067.006.138 0 .37-.086.856-.476l.28-.22v.645c-.3.378-.506.575-.67.72-.168.14-.327.266-.47.358-.167.1-.32.15-.456.15-.18 0-.338-.082-.453-.237-.106-.138-.16-.33-.16-.575 0-.154.038-.32.116-.488.06-.16.16-.333.295-.544.05-.063.096-.128.146-.19l-.152.024-.185.03c-.193.344-.46.66-.807.938-.305.333-.62.627-.913.835-.323.225-.66.34-.998.34-.325 0-.58-.12-.77-.358-.105-.146-.186-.307-.225-.503-.55.613-.975.902-1.322.902-.256 0-.385-.13-.452-.237-.08-.13-.115-.312-.115-.546 0-.118.01-.233.017-.356-.112.117-.22.227-.323.326-.212.203-.384.358-.514.46-.18.124-.28.18-.377.18-.133 0-.266-.082-.398-.244-.102-.134-.2-.298-.275-.504v-.01c-.198.216-.384.382-.558.514-.293.203-.533.304-.744.304-.315 0-.554-.16-.705-.47-.062-.14-.114-.286-.15-.44l-.213.235c-.277.305-.474.513-.577.625-.134.136-.225.206-.305.24-.07.026-.152.04-.247.04m9.975-2.565c-.152.194-.38.383-.685.565-.292.183-.65.355-1.09.523.114.063.143.155.194.215.058.06.123.088.213.088.128 0 .256-.028.386-.082.144-.057.29-.142.44-.247.148-.104.33-.248.552-.42.057-.072.12-.15.17-.217-.024-.023-.05-.047-.07-.07-.072-.07-.11-.18-.11-.32v-.035zm-4.304.038c-.17.076-.346.16-.542.267-.468.244-.58.333-.615.36-.024.023-.073.08-.126.25-.055.173-.07.262-.07.303.08-.067.164-.125.272-.22.12-.103.2-.17.233-.2l.336-.27c.17-.14.292-.243.368-.322.053-.047.097-.106.14-.167m3.52-.346c-.01.006-.017.01-.03.013-.11.06-.22.137-.336.233-.106.092-.21.205-.307.344-.003.013-.015.02-.018.033.097-.057.19-.11.266-.18.174-.128.304-.262.384-.384.017-.026.027-.046.04-.06m6.985 2.715c-.32 0-.58-.12-.767-.355-.182-.234-.27-.54-.27-.92 0-.332.082-.64.24-.904.16-.263.416-.534.76-.814.236-.197.48-.35.714-.446.24-.105.466-.153.665-.153.184 0 .33.038.44.126.085.064.19.192.19.413 0 .22-.085.434-.246.643-.154.192-.376.382-.69.57-.288.177-.64.35-1.09.523.112.07.14.155.196.215.055.06.12.088.214.088.123 0 .252-.028.39-.085.133-.053.275-.136.426-.243.156-.104.34-.248.553-.424.01-.153.09-.287.21-.457.21-.31.394-.545.552-.693.186-.17.368-.257.55-.257.128 0 .23.02.31.063.115.062.18.17.18.3v.047l-.043.124c-.034.052-.067.095-.088.118l-.01.012c.06-.056.123-.11.19-.17.224-.2.48-.386.772-.57.184-.128.35-.185.488-.185.19 0 .276.218.306.298.055.147.076.294.076.443 0 .116-.076.242-.244.413-.66.702-.733.96-.733 1.038.004.004.006.004.013.004.026 0 .096-.025.21-.096.14-.085.354-.233.642-.46l.28-.21V118.422c-.483.532-.812.823-1.038 1.002-.27.206-.478.3-.665.3-.162 0-.54-.057-.54-.636 0-.112.016-.222.052-.322.032-.098.08-.202.135-.303.03-.05.062-.11.103-.18-.103.1-.195.2-.274.294-.11.13-.233.282-.364.45-.145.18-.247.308-.31.368-.095.086-.196.13-.305.13-.26 0-.385-.298-.424-.394-.034-.087-.063-.18-.09-.286-.24.252-.458.447-.673.598-.323.225-.66.34-.998.34m.94-2.72c-.013.004-.022.012-.037.016-.105.063-.22.14-.33.235-.114.097-.215.206-.308.34-.004.014-.015.027-.025.037.102-.05.19-.11.273-.18.17-.128.303-.263.386-.384l.042-.064m24.976-.653c-.11 0-.22-.042-.317-.118-.106-.092-.17-.21-.17-.343 0-.17.077-.342.23-.532.157-.194.335-.294.522-.294.13 0 .243.038.34.114.065.07.15.18.15.37 0 .16-.077.335-.225.514-.155.192-.332.287-.53.287m-10.786 0c-.116 0-.218-.042-.32-.118-.112-.092-.167-.21-.167-.343 0-.17.077-.348.23-.532.155-.194.334-.294.524-.294.127 0 .238.038.333.12.098.085.15.206.15.364 0 .164-.073.335-.226.514-.152.192-.33.287-.523.287m49.48-.63c-.09 0-.177-.03-.248-.095l-.058-.048-.064-.187c0-.125.08-.33.498-.913.156-.204.275-.336.39-.405.11-.076.272-.11.475-.11.47 0 .507.294.507.39 0 .135-.102.296-.34.534-.202.196-.414.383-.64.552-.313.236-.424.282-.52.282m-77.63 0c-.094 0-.182-.03-.252-.095l-.06-.048-.067-.187c0-.125.087-.33.5-.913.156-.204.28-.336.388-.405.114-.076.272-.11.48-.11.467 0 .505.294.505.39 0 .135-.1.296-.345.534-.19.196-.403.383-.634.552-.31.234-.427.282-.514.282M337.15 224.33c0 .52.034.863-.004 1.2-.707 6.228-1.436 12.454-2.126 18.684-.127 1.148-.183 2.317-.136 3.472.06 1.427.668 1.987 2.104 1.998 1.043.01 2.088-.11 3.222-.176-.007.837-.37 1.24-1.068 1.38-2.014.4-4.024.823-6.045 1.185-1.195.214-1.8-.286-1.788-1.557.012-1.366.164-2.733.28-4.1.096-1.147.23-2.294.36-3.573-.48-.065-.878-.18-1.27-.165-1.95.08-3.892.23-5.838.275-.846.018-1.33.406-1.8 1.045-1.06 1.443-2.17 2.85-3.293 4.246-.463.572-.99 1.093-1.51 1.616-1.937 1.95-4.196 2.75-7.105 1.845.41-.947.81-1.875 1.25-2.887.534 0 .998-.01 1.462 0 2.55.06 4.62-.9 6.166-2.932 2.01-2.643 4.025-5.278 5.98-7.96 1.8-2.47 3.527-4.994 5.278-7.5.292-.416.54-.863.935-1.497-2.505-.5-4.797-1.052-7.167-.737-2.537.336-3.986 2.24-3.688 4.81.14 1.193.463 2.365.745 3.747l-2.853 1.87c-.91-1.478-1.073-3.023-.677-4.466 1.16-4.23 3.692-7.336 8.055-8.524 1.276-.348 2.706-.162 4.065-.16.627 0 1.257.135 1.88.23 1.478.223 2.842.093 3.902-1.132.086-.1.282-.104.683-.24m-3.685 5.967c-.168-.05-.336-.104-.502-.156-2.51 3.523-5.016 7.046-7.725 10.852 2.482.367 4.635.19 6.907.194.454-3.758.888-7.324 1.32-10.89"/><path d="M307.337 0c1.35.194 2.694.42 4.047.58 8.364.98 16.007 3.946 23.223 8.213 8.65 5.115 14.76 12.475 19.154 21.36 4.572 9.244 7.474 19.015 8.953 29.212 1.39 9.596 1.452 19.232.75 28.883-1.452 20.006-5.29 39.576-10.84 58.83-.13.45-.237.91-.39 1.496.427.21.828.428 1.244.613 2.08.935 4.036 2.06 5.672 3.684 1.29 1.28 2.31 2.74 2.98 4.43.125.313.162.66.288 1.192-.294-.253-.442-.332-.52-.455-2.178-3.404-5.404-5.415-9.078-6.803-5.4-2.038-11.04-2.725-16.764-2.77-7.52-.054-14.958.826-22.25 2.605-13.956 3.404-27.503 8.03-40.662 13.817-10.32 4.54-20.68 9-31.105 13.294-8.968 3.695-18.38 5.786-27.996 6.96-6.03.736-12.07 1.165-18.145.63-4.65-.412-9.2-1.205-13.48-3.16-3.482-1.593-6.544-3.66-8.083-7.387-.03-.068-.17-.088-.292-.148-.275 3.38.704 6.15 3.562 8.185 2.966 2.11 6.22 3.55 9.716 4.457 6.507 1.69 13.124 1.833 19.79 1.386 6.855-.46 13.595-1.616 20.287-3.134 6.498-1.474 12.785-3.604 18.907-6.19 7.185-3.032 14.304-6.223 21.443-9.367 14.15-6.232 28.567-11.724 43.566-15.57 9.39-2.41 18.925-3.764 28.65-3.137 5.35.346 10.567 1.37 15.39 3.836 3.226 1.65 5.846 3.978 7.29 7.39.382.9.628 1.905.705 2.878.374 4.68.663 9.363.992 14.044.04.566.134 1.127.223 1.86 1.73-.26 3.332-.473 4.92-.752 5.07-.893 10.166-1.147 15.277-.498 5.284.672 10.136 2.428 14.158 6.073.38.344.72.73 1.08 1.098-.542.596-1.008.64-1.584.23-5.732-4.102-12.25-5.36-19.15-5.413-4.83-.038-9.546.72-14.484 1.556l.195 3.052c1.336-.18 2.477-.29 3.603-.49 5.803-1.036 11.624-1.326 17.47-.43 2.986.457 5.855 1.325 8.548 2.723.404.21.776.478 1.38.855-4.35 1.904-7.14 5.148-9.6 8.987 4.7 4.578 8.543 9.783 11.265 16.105-.643-.126-1.034-.174-1.408-.28-4.584-1.266-9.243-1.433-13.958-1.094-6.432.46-12.712 1.906-19.073 2.822-2.24.32-4.5.53-6.76.7-.935.07-1.896-.036-2.83-.17-2.627-.377-4.39-1.866-5.46-4.277-.304-.685-.264-1.555-1.063-2.035-.163-.1-.074-.68-.045-1.032.453-5.517.916-11.033 1.372-16.55.025-.305.003-.616.003-1.05-.797-.132-1.51-.33-2.226-.352-3.634-.118-7.27-.17-10.905-.292-1.2-.04-1.888.458-2.508 1.49-5.307 8.85-11.363 17.14-18.633 24.493-8.552 8.654-18.055 16.028-29.067 21.326-7.598 3.654-15.526 6.322-23.885 7.526-17.16 2.472-32.796-1.24-46.637-11.848-1.75-1.34-3.36-2.89-4.887-4.486-.887-.93-1.77-1.223-3.03-1.23-3.686-.026-7.387-.06-11.054-.4-4.386-.408-8.617-1.526-12.396-3.938-2.56-1.632-4.508-3.793-5.61-6.657-.12-.317-.168-.662-.31-1.23.966 1.18 1.69 2.222 2.567 3.11 2.115 2.14 4.705 3.54 7.52 4.54 6.414 2.27 13.056 2.85 19.794 2.578 9.643-.385 19.01-2.283 28.246-5.046 10.92-3.267 21.64-7.047 32.056-11.69 8.327-3.71 16.695-7.332 25.084-10.9 8.71-3.7 17.69-6.53 27.05-8.083 6.933-1.147 13.892-1.965 20.93-1.73 5.93.2 11.778.95 17.226 3.533 2.446 1.158 4.764 2.532 6.362 4.814.566.808 1.017 1.694 1.556 2.602.525-2.984-.203-5.26-2.367-7.28-2.194-2.053-4.832-3.376-7.614-4.418-4.186-1.567-8.553-2.264-12.992-2.5-4.798-.254-9.584-.038-14.367.497-6.72.748-13.342 1.983-19.864 3.74-7.504 2.02-14.682 4.936-21.786 8.04-5.023 2.195-10.013 4.467-15.027 6.684-13.95 6.17-28.19 11.522-42.976 15.352-5.722 1.483-11.527 2.513-17.422 3.03-4.584.4-9.163.466-13.738-.052-4.474-.51-8.845-1.472-12.892-3.53-3.175-1.614-5.835-3.824-7.31-7.163-.458-1.035-.782-2.19-.875-3.316-.4-4.782-.684-9.57-1.02-14.358-.028-.41-.114-.815-.198-1.392-.637.074-1.196.112-1.744.21-4.73.842-9.477 1.505-14.3 1.343-.684-.023-1.37-.06-2.05-.132-1.422-.143-1.428-.157-2.103 1.06-9.057 16.35-21.887 28.895-38.15 38.023-9.84 5.525-20.272 9.38-31.384 11.298-9.812 1.693-19.69 2.178-29.625 1.144-7.545-.786-14.87-2.434-21.845-5.455-12.437-5.387-21.405-14.39-27.355-26.486-3.31-6.73-5.232-13.892-6.494-21.25-.088-.51-.108-1.032-.164-1.59l1.536-.687c.36.684.702 1.312 1.025 1.95 5.654 11.18 13.514 20.464 23.793 27.66 7.352 5.147 15.524 8.18 24.388 9.452 5.514.79 11.04 1.003 16.56.324 13.54-1.668 25.582-6.887 36.022-15.674 13.008-10.95 21.257-24.794 24.764-41.426 1.767-8.373 1.385-16.643-1.462-24.784-3.1-8.856-9.017-15.088-17.364-19.158-4.96-2.42-10.2-3.98-15.58-5.105-.403-.085-.796-.215-1.176-.317.12-1.866.123-1.857 1.714-2.414 15.138-5.302 28.434-13.496 39.46-25.226 9.985-10.62 16.317-23.103 18.835-37.468.944-5.39 1.148-10.824-.458-16.147-2.475-8.203-7.363-14.324-15.395-17.787-7.177-3.094-14.59-4.003-22.282-2.837-6.582.998-13.08 2.376-19.227 5.004-8.672 3.71-16.54 8.625-22.843 15.78-3.368 3.82-6.082 8.08-8.357 12.628-.87 1.74-.895 1.746-2.972 1.33-.022-.13-.09-.286-.065-.42 2.636-13.316 8.91-24.65 18.94-33.76 10.16-9.228 22.018-15.278 35.54-17.98 7.92-1.585 15.915-1.89 23.935-1.436 7.342.415 14.58 1.598 21.424 4.44 9.933 4.125 17.757 10.665 22.67 20.38 2.236 4.425 3.345 9.196 3.928 14.096 1.243 10.47-1.34 20.197-5.82 29.535-5.426 11.3-13.437 20.48-23.19 28.243-9.78 7.788-20.646 13.644-32.196 18.308-1.416.573-2.852 1.1-4.273 1.66-.466.184-1.04.277-1.084 1.19.807.15 1.61.303 2.413.45 7.532 1.36 14.72 3.687 21.248 7.78 7.086 4.444 12.742 10.22 16.104 17.985.914 2.115 1.47 4.387 2.178 6.59.174.543.303 1.096.482 1.755.538-.057 1-.08 1.45-.157 4.21-.716 8.41-1.47 12.622-2.156 3.183-.517 6.394-.872 9.588-.17 1.366.3 2.67.885 4.174 1.4.13-.94.29-1.897.39-2.865 1.362-13.03 3.92-25.84 7.094-38.535 3.523-14.09 7.962-27.88 14.075-41.077 5.96-12.87 13.053-25.073 22.09-36.057 9.194-11.18 20.22-20.15 33.113-26.754 7.418-3.8 15.33-6.203 23.515-7.676 2.692-.483 5.434-.68 8.15-1.022.518-.066 1.023-.21 1.535-.316h6.33zm-3.492 181.64c1.493.577 2.91.295 4.253-.44 2.328-1.274 3.644-3.306 4.145-5.862.453-2.297-.39-3.568-2.657-4.223-.065-.02-.097-.146-.15-.232.34-.644.766-1.262 1.01-1.946.58-1.61-.462-3.216-1.985-3.172-1.518.047-3.287 1.742-3.584 3.618.686-.525 1.2-1.064 1.83-1.35.463-.212 1.142-.262 1.61-.082.602.232.67.946.5 1.517-.18.594-.437 1.203-.814 1.686-.645.827-1.42 1.55-2.114 2.34-.2.226-.312.53-.464.8.797-.146 1.36-.508 1.944-.828 1.553-.846 2.61-.396 3.122 1.31.858 2.863-.963 5.334-4.044 5.28-1.34-.022-2.242.242-2.56 1.632l-3.542.242c-.29-2.163-.56-4.24-.846-6.317-.288-2.097-.353-4.226-.75-6.635-.888.974-1.513 1.67-2.15 2.357-.655.702-1.32 1.394-1.998 2.107.716.546 1.05.163 1.413-.145.328-.28.67-.542 1.185-.953l1.22 10.468c-.65.352-1.207.644-1.756.954-.568.32-1.325.518-1.068 1.448.123.032.235.103.31.076 2.374-.873 4.743-1.758 7.117-2.63.492-.18.828-.455.825-1.02m-86.69.653c.55 0 .922.05 1.278-.007 5.208-.846 10.352-1.967 15.39-3.546 8.165-2.56 16.005-5.937 23.79-9.45 5.96-2.686 11.873-5.475 17.87-8.07 8.378-3.62 17.037-6.483 25.738-9.22 7.16-2.25 14.464-3.813 21.906-4.756 1.572-.2 1.61-.174 1.988-1.678 1.244-4.96 2.554-9.902 3.668-14.89 4-17.918 7.415-35.93 8.465-54.31.586-10.26.247-20.452-2.01-30.52-1.773-7.902-4.7-15.325-9.51-21.894-7.595-10.37-17.89-14.26-30.476-12.403-5.833.86-11.14 3.143-16.114 6.226-8.308 5.15-15.15 11.905-21.192 19.515-7.206 9.077-12.6 19.198-17.055 29.845-4.998 11.94-8.87 24.253-12.086 36.775-4.173 16.246-7.717 32.617-9.932 49.26-1.213 9.11-1.94 18.244-1.812 27.437.007.52.057 1.036.095 1.686m-12.833 1.416c.053-.423.1-.578.09-.73-.618-7.64-.51-15.273.068-22.912.558-7.365 1.478-14.684 2.714-21.96 2.14-12.58 4.913-25.026 8.393-37.306 3.5-12.344 7.782-24.392 13.287-36.002 7.315-15.426 17.377-28.735 30.35-39.834 7.218-6.174 15.094-11.303 23.92-14.913 3.664-1.5 7.427-2.683 11.27-3.635.422-.106 1.01-.328 1.144-.652.282-.68.314-1.464.467-2.313-.564.034-.88.012-1.18.076-8.744 1.876-17.265 4.51-25.184 8.676-12.322 6.483-22.91 15.225-31.714 26.007-10.927 13.38-19.29 28.304-25.524 44.378-8.502 21.926-14.076 44.598-16.59 68-.965 8.986-1.164 17.99-.475 27.006.15 1.984.396 3.962.605 6.014 2.875.36 5.58.32 8.36.1m134.49-37.278c.215-.66.38-1.103.503-1.557 4.547-17.136 8.22-34.445 10.25-52.077 1.194-10.39 1.81-20.8.923-31.25-.71-8.336-2.246-16.502-5.107-24.382-2.33-6.417-5.588-12.265-10.596-17.033-7.293-6.942-15.887-11.58-25.466-14.493-.285-.086-.59-.106-1.037-.184-.175.938-.33 1.783-.492 2.648.62.212 1.063.37 1.51.514 12.938 4.152 21.837 12.52 26.653 25.274 3.43 9.08 5.042 18.49 5.44 28.13.25 6.013-.027 12.015-.47 18.02-.695 9.42-1.854 18.78-3.39 28.092-2.06 12.486-4.692 24.854-7.913 37.096-.1.382-.108.79-.162 1.202h9.357zM305.06 196.99l-.203-.336c-.638.19-1.297.334-1.914.58-5.632 2.232-11.31 4.36-16.872 6.76-7.305 3.154-14.47 6.637-21.783 9.774-10.185 4.37-20.7 7.823-31.358 10.84-.532.15-1.05.34-1.69.548.27.376.394.602.567.786 3.037 3.232 6.537 5.804 10.686 7.437 7.23 2.843 14.546 2.613 21.87.46 6.413-1.884 12.058-5.243 17.307-9.315 9.078-7.04 16.304-15.7 22.204-25.508.403-.67.79-1.35 1.185-2.028m-46.176 44.42c.31-.043.61-.066.9-.126 10.347-2.123 20.007-5.956 28.66-12.032 13.212-9.28 23.39-21.32 31.39-35.265.143-.252.196-.553.33-.957-.492.026-.86 0-1.204.07-2.27.47-4.525 1.006-6.803 1.426-1.043.193-1.622.738-2.13 1.638-3.706 6.585-7.92 12.824-12.916 18.51-9.974 11.347-22.03 19.52-36.553 23.923-1.417.43-1.62.776-1.673 2.814M140.492 156.32c.174.587.317.97.4 1.367.373 1.764 1.504 2.512 3.23 2.936 5.258 1.294 10.558 1.38 15.864.673 5.43-.722 10.82-1.733 16.242-2.51 2.707-.387 5.447-.705 8.178-.745 4.127-.06 6.456 1.803 7.687 5.73.15.484.314.966.583 1.79.208-.726.375-1.11.423-1.507.566-4.635-2.412-8.463-7.043-9.05-3.123-.395-6.213.05-9.284.51-5.314.802-10.603 1.763-15.923 2.514-4.874.69-9.78.843-14.64-.165-1.843-.382-3.643-.975-5.718-1.542m74.93 71.58c3.473 6.03 23.347 15.595 30.563 14.733.108-.602.224-1.242.35-1.95-1.45-.463-2.755-.856-4.043-1.294-7.318-2.493-13.97-6.125-19.604-11.49-.46-.436-.89-.88-1.635-.77-1.854.276-3.716.513-5.63.773M174.79 188.02c-.43 0-.74-.036-1.037.007-1.51.22-3.02.457-4.528.7-4.554.736-9.138.847-13.71.375-3.848-.4-7.55-1.43-10.978-3.308-.42-.23-1.02-.395-1.456-.284-.73.187-1.4.62-2.348 1.068.67.505 1.102.866 1.566 1.175 3.67 2.44 7.75 3.77 12.082 4.368 5.37.743 10.723.507 16.056-.4 1.493-.254 2.992-.48 4.642-.745-.1-1.043-.19-1.958-.288-2.956m79.123 4.642c.475-.755.91-1.356 1.245-2.008.285-.555.56-1.154.652-1.76.304-1.996-1.12-3.216-3.003-2.505-1.772.672-2.978 2.02-3.425 3.872-.4 1.668.21 3.008 1.82 3.856-.252.362-.445.67-.667.952-.754.965-1.446 1.968-1.61 3.215-.162 1.275.168 2.428 1.217 3.242 1 .774 2.092.574 3.137.066 1.736-.846 2.955-2.19 3.62-4.002.74-2.02.108-3.494-1.837-4.415-.327-.155-.662-.295-1.15-.51m39.25-11.545c-.15-2.527-.415-4.512-1.423-6.293-1.2-2.126-3.15-2.44-5.013-.865-1 .844-1.59 1.95-1.938 3.19-.578 2.07-.595 4.17-.103 6.248.238 1.013.574 2.04 1.072 2.947 1.098 2.002 2.948 2.318 4.78.934.954-.72 1.66-1.647 1.957-2.795.325-1.266.514-2.566.667-3.365m-53.447 24.957c2.765.19 4.59-1.1 5.91-3.164 2.144-3.362 1.888-6.908.528-10.467-.18-.476-.532-.917-.892-1.29-.888-.932-2.045-1.15-3.18-.55-1.536.814-2.676 2.043-3.37 3.646-.436 1.005-.42 2.05-.09 3.096.643 2.043 2.64 2.767 4.4 1.562.43-.295.775-.71 1.165-1.062.29-.263.592-.514 1.102-.956.082 1.27.225 2.262.19 3.25-.064 2-1.737 4.414-4.205 4.28-1.19-.066-1.197.064-1.558 1.655m38.04-16.88c.434-.918.723-1.565 1.042-2.2.85-1.69 1.812-3.335 2.53-5.08.362-.882.45-1.953.38-2.92-.1-1.33-1.15-2.21-2.412-2.31-2.125-.165-4.97 2.295-4.65 4.586.207 1.47.71 1.724 2.045.83-.178-.487-.394-.97-.533-1.473-.283-1.03.085-1.92.893-2.275.94-.41 2.045-.02 2.567.944.444.82.574 1.717.27 2.6-.378 1.09-.808 2.167-1.29 3.216-.94 2.056-1.95 4.082-2.9 6.136-.198.433-.63.9-.13 1.462.137-.05.358-.056.404-.15.604-1.21 1.73-1.436 2.904-1.57.47-.054.942-.09 1.414-.14 3.17-.345 3.537-.694 3.993-3.884.044-.31-.074-.64-.117-.963-.115-.025-.23-.05-.346-.077-.22.5-.378 1.043-.676 1.49-.275.413-.646.94-1.067 1.043-1.31.322-2.66.468-4.323.734m-19.398 9.33c4.5 1.368 8.952-4.29 8.11-8.29-.203-.97-.8-1.715-1.812-2.025-.34-.105-.678-.215-1.063-.34.393-.73.797-1.35 1.076-2.026.41-.984.123-2.12-.595-2.758-.703-.626-1.667-.758-2.63-.063-.833.6-1.492 1.454-2.186 2.233-.153.17-.125.5-.256 1.11.726-.582 1.158-.942 1.604-1.286.563-.434 1.16-.78 1.88-.38.557.306.762 1.115.467 1.998-.148.442-.37.888-.658 1.25-.593.737-1.256 1.416-1.888 2.123-.29.322-.57.65-.853.976.458.143.738.07.984-.068.506-.282.968-.65 1.49-.89 1.02-.463 1.946-.18 2.42.786 1.278 2.6-.064 5.602-2.82 5.988-.52.072-1.053.08-1.577.082-1.29.007-1.29 0-1.694 1.58m-26.21-1.802c.403 3.514.8 6.93 1.182 10.248-2.767 1.682-2.767 1.682-2.66 2.593 2.52-.942 5.03-1.865 7.518-2.834.23-.09.352-.466.737-1.01l-3.675.522-1.59-13.03c-.897.98-1.525 1.673-2.164 2.355-.654.698-1.32 1.385-2.06 2.16 1.383.588 1.654-.77 2.71-1.004m41.51-9.45c-1.506.56-2.992 1.064-4.435 1.665-.69.29-.734.894-.41 1.643 1.453-.543 2.822-1.066 4.2-1.566.812-.294 1.002-.817.644-1.74m-82.893-5.776c-.41.434-.664.873 0 1.662v-1.66zM341.263 251.638c.31-1.095.548-1.938.792-2.78.947-3.293 1.9-6.583 2.843-9.876.146-.506.292-1.016.382-1.535.204-1.176-.255-1.61-1.4-1.29-.707.2-1.385.496-2.237.807.032-.365-.044-.783.092-.868 2.133-1.343 4.212-2.802 6.722-3.397.088-.022.198.056.385.114.47 1.53-.67 2.886-.643 4.613.493-.21.91-.343 1.28-.554 1.695-.964 3.372-1.96 5.067-2.922.596-.336 1.21-.652 1.846-.903 1.37-.538 1.79-.206 1.575 1.212-.063.414-.173.825-.282 1.233-.804 3.002-1.634 6-2.407 9.01-.235.912-.426 1.864-.433 2.798-.01 1.278.58 1.616 1.718 1.066 1.127-.545 2.215-1.172 3.553-1.573-.135.273-.198.657-.42.803-2.198 1.453-4.4 2.902-6.65 4.274-.99.602-1.64.266-1.71-.918-.065-1.14 0-2.332.258-3.44.634-2.72 1.42-5.402 2.13-8.104.187-.71.386-1.43.463-2.16.07-.673-.337-.988-.988-.84-.354.08-.69.255-1.017.42-4.667 2.37-4.66 2.37-6.038 7.482-.466 1.73-1.04 3.435-1.415 5.184-.224 1.046-.753 1.552-1.744 1.726-.495.087-.978.235-1.725.418"/><path d="M346.7 213.666c.113.325.17.5.233.673 1.25 3.553 3.932 5.554 7.697 5.734 3.39.162 6.725-.333 10.06-.85 5.62-.87 11.224-1.88 16.87-2.522 5.422-.615 10.825-.317 16.083 1.478 1.626.557 2.158 1.6 2.32 3.18-.25-.028-.407-.01-.528-.068-5.17-2.402-10.64-2.81-16.232-2.46-5.746.356-11.38 1.486-17.033 2.465-3.633.63-7.26 1.324-10.98 1.113-1.808-.1-3.554-.464-5.173-1.294-2.786-1.43-4.015-4.124-3.317-7.45M360.502 246.66c.44-1.884.676-3.847 1.356-5.64 1.615-4.26 4.724-7.033 9.17-8.116 2.695-.657 4.702.74 4.867 3.48.384 6.39-2.47 12.224-8.604 15.03-3.962 1.813-6.723-.24-6.788-4.753m3.197-1.36c.192 1.023.26 2.093.604 3.06.5 1.402 1.762 1.902 3.2 1.497 1.587-.445 2.615-1.54 3.334-2.936 1.32-2.565 2.015-5.303 2.018-8.195 0-.568-.1-1.158-.272-1.7-.63-1.993-2.21-2.665-4.094-1.774-1.19.563-1.99 1.535-2.644 2.637-1.35 2.275-1.923 4.76-2.147 7.412M375.406 248.18c.897-.586 1.76-1.147 2.762-1.798.223.667.372 1.15.545 1.623.448 1.236 1.287 2.11 2.616 2.227 1.414.124 2.578-.51 3.35-1.704.75-1.156.876-2.42.035-3.556-.485-.653-1.163-1.222-1.865-1.646-2.703-1.633-3.3-4.08-1.49-6.662 1.244-1.775 2.893-3.05 4.994-3.682 1.663-.5 3.087-.063 4.45 1.182l-2.115 2.478c-.61-.433-1.122-.872-1.697-1.192-1.882-1.045-4.013 0-4.143 2.006-.062.96.313 1.78.988 2.41.532.493 1.165.898 1.8 1.26 2.5 1.417 3.164 3.52 1.72 5.972-1.517 2.573-3.733 4.28-6.733 4.776-3.027.5-4.328-.403-5.22-3.695M347.835 227.457c1.51-1.906 3.115-2.67 5.253-1.824.388.154.806.232 1.202.37 1.546.545 2.99.438 4.31-.617.154-.124.36-.185.55-.263.033-.014.09.03.136.048-.775 2.143-2.744 3.228-4.86 2.677-.152-.038-.307-.07-.46-.114-3.174-.95-3.174-.95-6.13-.276M252.34 194.387c.73.345 1.336.55 1.852.888 1.758 1.154 1.584 3.878-.283 4.842-1.012.522-1.972.266-2.582-.713-.664-1.068-.75-2.183-.134-3.296.3-.544.687-1.04 1.145-1.72M252.72 192.3c-1.736-.823-2.288-2.295-1.443-3.68.35-.58.82-.97 1.54-.852.663.11.922.612 1.078 1.204.28 1.062-.012 1.938-1.176 3.33M291.478 182.78c-.146.876-.222 1.77-.46 2.622-.202.727-.683 1.36-1.5 1.452-.843.095-1.35-.495-1.725-1.156-1.01-1.774-1.356-3.746-1.578-5.733-.11-.986-.05-1.993-.05-2.99 0-.26.044-.526.107-.778.288-1.147.882-1.822 1.657-1.874 1.022-.067 1.615.62 1.875 1.412.555 1.685.963 3.42 1.378 5.147.146.607.136 1.253.195 1.88l.1.018M239.825 194.662c.308-.64.508-1.31.907-1.824.73-.933 1.973-1.063 2.747-.184.595.674 1 1.577 1.288 2.446.232.706-1.112 2.18-2.085 2.49-.79.255-1.57-.063-2.084-.98-.325-.578-.5-1.24-.775-1.948M240.56 122.07h-1.033l-.266-.108-.03-.015-.11-.026-.185-.088-.046-.053-.1-.163v-.262l.145-.146.053-.05.26-.19h.28l.28-.19h.472l.295-.176.266-.013.33-.09.32-.01.23-.082.338-.01.627-.094h.496l.53-.095h2.93l.684.094h.536l.863.094h.355l.414.102.334-.01.59.1h.344l.34.1.224-.01.584.1h.256l.335.103.132-.01.34.103.41-.007.334.104.223-.01.505.098.247-.003.267.108.104-.016.75.094.03.346-.464.092h-.5l-.502-.092-.905.004-.496-.098h-.437l-.5-.1-.438.007h-.04l-.083-.082c-.014 0-.074-.03-.353-.03-.133 0-.272.005-.38.01l-.174.004h-.47l-.767-.095h-.636c-.133-.015-1.77-.12-2.973-.12-.934 0-1.1.063-1.127.08l-.67.04-.227.09-.43.005-.533.098h-.215l-.228.083-.333.01-.11.075-.268.022-.107.07-.28.1-.267.014-.282.095-.09.094zm78.514-.24c-.19 0-.304-.126-.304-.33 0-.247.11-.535.352-.887.095-.134.192-.257.313-.384.12-.127.225-.238.334-.324.086-.085.213-.187.363-.307l.364-.285c.072-.154.142-.298.206-.433-.022.02-.038.04-.064.06-.228.19-.423.337-.605.44-.207.113-.39.17-.556.17-.226 0-.42-.143-.573-.438-.065-.108-.112-.22-.144-.344-.095.068-.177.12-.246.152-.122.06-.283.09-.485.09-.402.422-.776.656-1.128.656-.204 0-.39-.065-.564-.2-.16-.12-.288-.29-.378-.5-.015-.027-.03-.06-.037-.097-.533.608-.98.903-1.364.903-.195 0-.464-.073-.65-.42-.076-.147-.137-.325-.17-.543-.066.042-.13.083-.193.112-.11.06-.27.09-.474.09-.406.422-.783.656-1.134.656-.204 0-.397-.07-.56-.2-.16-.12-.29-.284-.38-.5-.026-.046-.04-.1-.06-.154-.29.268-.532.468-.7.61-.273.207-.482.3-.666.3-.16 0-.535-.056-.535-.635 0-.106.014-.208.04-.324.042-.098.09-.202.145-.302.03-.046.06-.11.102-.174-.102.098-.194.197-.273.288-.113.134-.23.282-.364.453-.14.18-.244.3-.31.36-.093.088-.196.136-.305.136-.257 0-.382-.298-.428-.395-.04-.09-.063-.183-.08-.285-.186.175-.35.316-.484.427-.208.175-.41.308-.592.403-.198.107-.395.156-.59.156-.213 0-.41-.07-.574-.227-.153-.134-.276-.324-.366-.553-.027-.068-.04-.136-.066-.21-.24.25-.472.452-.684.603-.323.225-.66.34-.992.34-.327 0-.58-.12-.77-.365-.18-.222-.27-.528-.27-.913 0-.328.08-.63.24-.903.157-.262.414-.535.756-.816.243-.2.493-.35.72-.445.243-.105.458-.153.664-.153.175 0 .33.038.438.126.084.06.187.187.187.413 0 .224-.077.443-.242.646-.153.193-.382.382-.683.57-.29.175-.647.348-1.087.522.107.065.133.155.183.214.06.06.125.088.213.088.13 0 .256-.028.386-.082.146-.057.292-.14.44-.247.153-.103.34-.245.555-.426-.027-.065-.014-.172.045-.27.098-.166.273-.37.55-.623.306-.288.6-.522.874-.68.297-.177.522-.258.7-.258.16 0 .29.05.396.155.113.1.167.237.167.39 0 .132-.055.286-.172.478-.11.185-.22.337-.36.475-.156.16-.287.236-.407.236-.153 0-.262-.09-.287-.223-.2.16-.367.273-.466.344-.086.066-.167.14-.224.21-.04.056-.058.106-.058.155 0 .118.036.205.115.284.08.075.19.11.322.11.163 0 .362-.064.6-.19.25-.13.545-.32.878-.57.004-.174.09-.308.204-.478.22-.318.395-.545.556-.692.17-.17.364-.257.547-.257.127 0 .23.02.315.062.113.062.176.172.176.3v.05l-.05.132-.148.17c.08-.07.16-.14.244-.222.23-.198.488-.385.778-.57.178-.124.343-.185.483-.185.2 0 .276.206.31.298.054.143.076.29.076.443 0 .117-.072.237-.24.408-.663.708-.74.967-.74 1.044 0 .004.01.004.015.004.028 0 .1-.02.218-.096.127-.08.326-.22.586-.42-.04-.076.024-.254.126-.428.13-.236.305-.457.523-.66.205-.202.432-.367.68-.497.253-.127.494-.195.722-.195.172 0 .305.025.407.085.17.086.214.22.214.326 0 .034-.003.066-.014.104.043.027.083.058.11.096.063.088.097.21.097.396 0 .158-.034.343-.11.57-.036.128-.086.247-.143.358l.046-.012.122-.086c.034-.208.103-.487.202-.78.145-.415.34-.836.584-1.25.244-.414.502-.79.765-1.098.276-.323.53-.556.765-.683.12-.07.212-.1.298-.1.133 0 .238.068.288.185.03.087.04.193.04.337 0 .44-.167.946-.534 1.55-.334.588-.818 1.194-1.426 1.806.015.046.004.144.004.22 0 .137.032.255.095.337.044.073.102.107.196.107.04 0 .09-.02.15-.06.075-.05.16-.114.254-.192l.27-.24.222-.196c-.023-.085.034-.26.13-.426.133-.236.31-.457.526-.662.2-.192.433-.363.684-.495.254-.127.498-.195.716-.195.17 0 .31.025.412.085.184.094.212.243.212.326 0 .034 0 .066-.012.104.042.027.08.058.108.096.07.088.1.21.1.396 0 .158-.036.343-.112.57-.035.124-.086.245-.144.358l.04-.01c.04-.022.122-.08.24-.163h-.01c-.05 0-.042-.057-.013-.127.063-.134.16-.28.29-.442.12-.145.28-.303.47-.455.188-.158.412-.314.662-.457.495-.295.88-.437 1.168-.437.426 0 .46.282.46.37 0 .114-.046.222-.137.327.08-.04.157-.058.23-.058.108 0 .203.033.274.106.068.06.104.155.104.274 0 .16-.055.37-.175.642-.063.152-.165.362-.296.628l.483-.335c-.026-.168.013-.255.05-.33.034-.068.096-.175.19-.318.462-.693.888-1.03 1.31-1.03.41 0 .443.29.443.377 0 .128-.06.292-.204.514-.126.213-.238.364-.348.46-.244.228-.408.387-.48.476-.066.07-.084.135-.084.21.088.153.142.19.26.19.11 0 .238-.042.376-.126.146-.086.34-.224.568-.408l-.02.003c-.034 0-.033-.042-.017-.086.034-.114.1-.23.19-.335.076-.102.207-.23.39-.39.46-.402.918-.706 1.36-.907.453-.2.803-.3 1.06-.3.106 0 .207.04.295.117.073.07.128.143.163.227.04.085.068.152.068.22v.1l-.146.167c-.027.01-.05.023-.073.035.033.08.065.142.078.188l.01.034.03.145c0 .082-.03.206-.248.487-.15.185-.25.32-.3.403-.044.06-.058.133-.058.23 0 .122.03.142.127.142.094 0 .33-.07.873-.52l.283-.242v.638c-1.11 1.244-1.553 1.37-1.796 1.37-.168 0-.302-.056-.39-.18-.077-.107-.1-.246-.1-.42 0-.095.006-.2.036-.324-.193.196-.346.35-.466.46-.252.227-.455.336-.64.336-.117 0-.23-.07-.37-.218-.124-.134-.223-.292-.295-.473-.007-.023-.022-.048-.03-.068-.194.212-.378.377-.544.504-.292.203-.532.304-.742.304-.317 0-.557-.162-.706-.47-.066-.126-.116-.278-.15-.433l-1.18.932c-.387.65-.776 1.183-1.132 1.53-.384.386-.672.56-.884.56m-1.546-4.33c-.02.01-.05.033-.072.047-.166.106-.306.214-.42.328-.104.102-.17.197-.205.293-.056.265-.097.427-.1.466 0 .025 0 .098.236.098.032 0 .144-.017.44-.21-.03-.11-.047-.216-.047-.316 0-.21.045-.41.133-.615.01-.03.02-.057.035-.09m-4.97 0c-.018.01-.04.033-.065.047-.166.106-.307.214-.42.328-.107.102-.173.197-.2.288-.068.27-.1.432-.103.47 0 .03 0 .1.232.1.03 0 .14-.018.44-.215-.03-.107-.044-.212-.044-.312 0-.2.044-.406.127-.615.015-.03.025-.057.032-.09m14.077-.14c-.443.21-.776.398-.997.56-.277.197-.418.393-.418.584l.036.15c.356-.218.634-.44.874-.703.152-.163.315-.36.504-.59m-5.235-.343c-.085.05-.184.1-.297.146-.24.102-.483.235-.72.4-.235.17-.428.34-.57.524-.124.163-.19.304-.19.417.032.034.072.052.113.052.055 0 .112-.03.182-.078.135-.09.328-.245.582-.472.11-.102.26-.266.462-.495.17-.202.312-.37.437-.493m-17.248.045c-.007.004-.018.012-.032.016-.11.063-.218.14-.332.236-.113.092-.206.204-.31.343-.013.013-.013.023-.02.034.102-.05.193-.11.268-.18.17-.128.303-.262.385-.383.02-.027.034-.047.042-.065m11.61-1.493c-.12.142-.243.34-.382.585-.068.137-.14.272-.193.403.09-.13.182-.266.27-.412.123-.203.218-.38.29-.543.004-.012.004-.018.015-.034m-23.02 6.03c-.137 0-.247-.093-.327-.278-.062-.144-.087-.27-.087-.383 0-.105.02-.2.068-.298.153-.333.442-.84.865-1.51-.502.42-.704.473-.82.473-.26 0-.418-.27-.524-.475-.137-.28-.21-.528-.21-.75 0-.194.032-.353.1-.486.05-.12.143-.273.28-.468.19-.25.37-.463.54-.635.177-.176.33-.31.468-.41.167-.12.276-.168.368-.168.13 0 .255.057.363.17.103.115.157.242.157.37 0 .09-.04.204-.15.356-.083.13-.22.29-.403.483-.18.187-.437.408-.76.678l-.027.13c.054-.03.178-.098.41-.247.3-.198.62-.46.98-.798.138-.133.25-.247.34-.348l.24-.282c.082-.095.15-.17.204-.213.09-.083.16-.117.244-.12h.01c.152 0 .26.062.323.173.06.087.083.223.083.39 0 .11-.035.223-.127.375-.074.122-.207.322-.41.605-.193.262-.383.545-.566.83.17-.16.314-.282.43-.383.127-.11.286-.236.48-.382l.28-.204v.631c-.46.532-.817.924-1.142 1.29-.32.367-.574.667-.75.886l-.155.198-.157.193c-.08.096-.15.187-.207.267-.066.1-.13.167-.17.217l-.055.062-.186.065zm-23.708-.62c-.35 0-.662-.068-.912-.208-.268-.14-.47-.34-.6-.61-.132-.256-.193-.57-.193-.908 0-.273.044-.562.13-.863.093-.296.22-.596.38-.89.173-.297.373-.603.613-.92.236-.31.515-.64.832-.982.338-.36.668-.67.99-.924.33-.262.625-.472.897-.617.263-.152.517-.266.746-.34.236-.078.443-.116.607-.116.19 0 .346.042.48.136.135.084.23.21.306.372.066.152.094.33.094.523 0 .358-.124.75-.362 1.163-.24.412-.535.806-.884 1.177-.346.367-.68.677-1.004.92-.35.26-.596.38-.777.38-.132 0-.26-.043-.373-.142-.118-.107-.178-.23-.178-.37 0-.208.102-.435.307-.696.188-.24.39-.463.614-.66.34-.313.422-.335.498-.335h.172l.013.07.086-.09c.237-.257.456-.538.652-.84.227-.348.272-.555.272-.67-.038-.023-.08-.033-.13-.033-.152 0-.38.105-.763.4-.418.32-.855.728-1.28 1.215-.44.487-.808.997-1.094 1.514-.288.51-.433.954-.433 1.322 0 .21.035.38.098.513.057.125.142.222.253.29.118.068.257.103.42.103.404 0 .87-.16 1.383-.46.51-.3 1.094-.754 1.73-1.354-.007-.172.026-.26.07-.334.03-.07.093-.176.185-.32.465-.69.89-1.028 1.31-1.028.413 0 .45.288.45.376 0 .13-.066.295-.208.52-.118.2-.235.352-.345.452-.25.23-.415.39-.486.48-.057.068-.086.133-.086.21.088.15.142.188.266.188.108 0 .232-.04.37-.126.153-.09.357-.235.603-.43-.032-.042.02-.25.136-.436.16-.265.405-.535.747-.816.258-.206.495-.35.725-.445.245-.105.46-.153.66-.153.183 0 .332.038.44.126.092.064.194.193.194.413 0 .224-.085.437-.248.646-.145.19-.374.374-.683.57-.292.175-.644.348-1.09.522.107.065.136.155.187.214.06.06.125.088.22.088.122 0 .25-.028.384-.085.14-.053.288-.137.43-.243.157-.103.338-.248.552-.423.01-.154.095-.288.212-.458.206-.31.395-.545.552-.692.182-.17.367-.257.55-.257.126 0 .23.02.312.062.112.062.183.17.183.3v.047l-.053.124c-.03.053-.054.095-.083.118v.004c.055-.052.117-.11.176-.162.23-.2.486-.386.777-.57.186-.128.35-.185.49-.185.194 0 .277.217.302.298.05.147.085.294.085.443 0 .116-.076.236-.243.407-.663.71-.74.967-.74 1.045.008.004.008.004.016.004.024 0 .095-.025.21-.096.134-.082.342-.233.608-.44-.028-.062-.014-.168.048-.266.097-.167.273-.37.546-.624.313-.295.608-.523.875-.68.294-.176.524-.258.705-.258.156 0 .295.052.393.158.105.1.164.235.164.39 0 .13-.06.285-.17.476-.107.186-.223.338-.358.475-.156.16-.288.237-.415.237-.153 0-.255-.09-.287-.224-.205.16-.366.272-.46.343-.094.066-.166.14-.227.21-.044.056-.067.106-.067.156 0 .117.043.205.127.284.076.074.18.11.316.11.168 0 .368-.065.596-.19.253-.13.54-.32.88-.566-.022-.15.01-.244.044-.314.035-.078.1-.184.196-.33.46-.69.887-1.026 1.31-1.026.408 0 .44.288.44.375 0 .13-.064.295-.2.52-.118.198-.235.35-.34.452-.255.23-.418.392-.494.48-.05.068-.084.134-.084.21.095.152.145.188.262.188.112 0 .237-.04.38-.126.144-.086.343-.226.568-.407 0-.2.063-.314.157-.42.072-.1.203-.227.377-.388.47-.403.928-.71 1.37-.908.445-.2.797-.3 1.055-.3.113 0 .212.045.296.12.07.066.127.14.17.224.033.086.06.154.06.22v.1l-.15.168c-.016.01-.044.024-.07.035v.007l.07.15c.036.093.05.15.05.21 0 .118-.076.258-.255.49-.137.183-.24.315-.295.4-.038.063-.06.138-.06.232 0 .122.032.142.133.142.093 0 .328-.07.866-.52l.285-.243v.638c-.85.977-1.406 1.37-1.79 1.37-.216 0-.326-.096-.39-.18-.07-.104-.106-.24-.106-.42 0-.095.014-.205.043-.324-.19.195-.345.344-.462.458-.258.228-.462.338-.643.338-.12 0-.24-.07-.374-.218-.117-.137-.216-.298-.288-.473-.014-.023-.026-.048-.032-.068-.193.21-.375.375-.55.504-.286.203-.53.304-.74.304-.216 0-.517-.08-.707-.47-.056-.122-.1-.258-.136-.403-.195.176-.364.322-.5.434-.206.177-.41.31-.59.405-.2.106-.398.156-.595.156-.214 0-.404-.07-.568-.227-.156-.14-.28-.33-.37-.554-.026-.07-.048-.143-.062-.213-.28.256-.51.455-.68.588-.263.204-.478.3-.662.3-.156 0-.537-.058-.537-.636 0-.114.018-.223.055-.324.032-.098.08-.205.134-.306l.1-.178c-.1.102-.192.2-.272.295-.108.13-.235.282-.364.45-.144.18-.244.31-.312.368-.095.087-.196.13-.306.13-.258 0-.378-.284-.422-.394-.037-.087-.07-.176-.086-.285-.24.25-.463.447-.677.597-.323.225-.66.34-1 .34-.32 0-.577-.12-.77-.357-.097-.144-.17-.295-.214-.478-.18.187-.35.342-.51.46-.29.202-.53.303-.74.303-.314 0-.555-.163-.704-.47-.057-.118-.105-.248-.137-.39-.39.404-.753.74-1.08 1.01-.422.35-.844.625-1.262.82-.426.198-.836.3-1.23.3m18.71-3.618c-.445.21-.768.396-.99.556-.28.2-.42.395-.42.586l.03.15c.363-.218.64-.44.888-.704.144-.163.314-.36.492-.588m-11.12-.3c-.01.004-.02.012-.036.016-.11.063-.214.14-.33.235-.117.097-.212.205-.31.34-.003.014-.014.027-.022.037.098-.05.19-.117.272-.18.176-.128.303-.262.383-.384.02-.026.03-.046.043-.064m23.478 3.04c-.13 0-.238-.05-.333-.144-.094-.102-.14-.228-.14-.378 0-.182.064-.41.184-.705.12-.273.3-.607.55-1.012.237-.392.545-.84.91-1.34.31-.427.656-.87 1.027-1.33-.178-.013-.37-.02-.593-.02-.4 0-.86.048-1.35.13-.507.085-.94.186-1.31.302l-.096.027c.272.054.407.13.407.283 0 .218-.27.218-.407.218l-.546-.004c-.184 0-.32-.007-.4-.022-.087-.014-.195-.048-.263-.14-.047-.066-.074-.153-.074-.27 0-.05.014-.164.05-.35.062-.32.156-.585.29-.785.13-.215.34-.382.608-.51.264-.126.606-.22 1.052-.294.738-.118 1.325-.172 1.804-.172.35 0 .642.013.842.036.225.033.383.076.494.138.14.07.22.146.26.23.028.055.064.145.104.275l.138.396.057.215c0 .14-.033.27-.103.39-.052.086-.154.228-.296.418-.137.17-.236.298-.305.403-.712 1.113-1.206 1.934-1.49 2.498l.026.017.122.092-.068.135c-.04.082-.08.155-.12.217l-.1.166c-.083.14-.122.21-.146.248-.255.43-.514.64-.783.64m-56.812-.163c-.07 0-.157-.01-.252-.028-.175-.033-.457-.093-.844-.19-.38-.092-.734-.17-1.06-.233-.322-.062-.617-.094-.878-.094-.138 0-.255.013-.35.047-.11.032-.262.09-.456.162-.29.117-.412.127-.475.127-.26 0-.35-.164-.35-.307 0-.085.027-.17.083-.264.1-.154.197-.308.292-.436.105-.162.216-.287.34-.37.116-.09.287-.162.51-.206.187-.042.427-.066.72-.076.47-.68.908-1.294 1.314-1.826.43-.56.814-1.025 1.162-1.407.342-.38.65-.676.927-.885.298-.22.532-.328.725-.328.146 0 .27.04.366.132.067.063.146.177.146.37 0 .23-.095.697-.893 2.094l.035.036.122.108-.107.125c-.263.312-.484.533-.675.676-.222.158-.377.228-.507.228-.046 0-.278-.016-.278-.353 0-.342.213-.836.656-1.508.11-.168.193-.302.262-.412-.05.053-.094.104-.155.165-.332.348-.747.856-1.236 1.505-.438.567-.763 1.007-.983 1.322.27.03.508.063.7.113.258.06.63.152 1.12.288.472.124.818.206 1.04.226l.32.026c-.027-.128-.04-.266-.04-.404 0-.116.013-.23.04-.358.028-.13.065-.218.106-.292.03-.07.092-.176.185-.32.463-.692.892-1.028 1.31-1.028.413 0 .444.288.444.376 0 .128-.063.292-.2.514-.123.206-.237.358-.347.458-.25.23-.416.39-.494.48-.048.067-.072.133-.072.21.086.15.14.188.256.188.115 0 .24-.04.377-.126.148-.086.34-.224.57-.408-.036-.182.113-.47.386-.748.29-.286.624-.535.997-.727.39-.202.68-.296.89-.296.133 0 .263.046.38.137.19-.37.375-.71.55-1.01.214-.368.393-.64.537-.818.19-.23.312-.325.435-.325.115 0 .225.048.31.15.086.094.124.206.124.323 0 .186-.113.46-.36.855l-.19.296-.484.76c-.213.33-.402.662-.558.99-.146.312-.22.594-.22.85 0 .212.06.212.085.212.047 0 .13-.028.294-.142.155-.106.365-.285.636-.532.036-.168.1-.312.174-.436.156-.262.413-.535.756-.816.244-.197.483-.35.715-.445.242-.105.467-.153.665-.153.184 0 .33.038.438.126.09.06.194.187.194.413 0 .02 0 .044-.004.062.08-.12.165-.222.264-.328.155-.16.293-.257.423-.31l.03-.005.15-.03c.16 0 .262.1.262.25 0 .024-.004.05-.01.076.44-.057.73-.088.864-.088h.038l.17.037c.12.056.178.184.21.278.037.104.058.22.058.336 0 .1-.038.2-.12.304-.053.07-.157.18-.297.32-.145.15-.262.305-.37.492-.118.213-.136.307-.136.348.018.003.042.006.067.006.138 0 .37-.086.856-.476l.28-.22v.645c-.3.378-.506.575-.67.72-.168.14-.327.266-.47.358-.167.1-.32.15-.456.15-.18 0-.338-.082-.453-.237-.106-.138-.16-.33-.16-.575 0-.154.038-.32.116-.488.06-.16.16-.333.295-.544.05-.063.096-.128.146-.19l-.152.024-.185.03c-.193.344-.46.66-.807.938-.305.333-.62.627-.913.835-.323.225-.66.34-.998.34-.325 0-.58-.12-.77-.358-.105-.146-.186-.307-.225-.503-.55.613-.975.902-1.322.902-.256 0-.385-.13-.452-.237-.08-.13-.115-.312-.115-.546 0-.118.01-.233.017-.356-.112.117-.22.227-.323.326-.212.203-.384.358-.514.46-.18.124-.28.18-.377.18-.133 0-.266-.082-.398-.244-.102-.134-.2-.298-.275-.504v-.01c-.198.216-.384.382-.558.514-.293.203-.533.304-.744.304-.315 0-.554-.16-.705-.47-.062-.14-.114-.286-.15-.44l-.213.235c-.277.305-.474.513-.577.625-.134.136-.225.206-.305.24-.07.026-.152.04-.247.04m9.975-2.565c-.152.194-.38.383-.685.565-.292.183-.65.355-1.09.523.114.063.143.155.194.215.058.06.123.088.213.088.128 0 .256-.028.386-.082.144-.057.29-.142.44-.247.148-.104.33-.248.552-.42.057-.072.12-.15.17-.217-.024-.023-.05-.047-.07-.07-.072-.07-.11-.18-.11-.32v-.035zm-4.304.038c-.17.076-.346.16-.542.267-.468.244-.58.333-.615.36-.024.023-.073.08-.126.25-.055.173-.07.262-.07.303.08-.067.164-.125.272-.22.12-.103.2-.17.233-.2l.336-.27c.17-.14.292-.243.368-.322.053-.047.097-.106.14-.167m3.52-.346c-.01.006-.017.01-.03.013-.11.06-.22.137-.336.233-.106.092-.21.205-.307.344-.003.013-.015.02-.018.033.097-.057.19-.11.266-.18.174-.128.304-.262.384-.384.017-.026.027-.046.04-.06m6.985 2.715c-.32 0-.58-.12-.767-.355-.182-.234-.27-.54-.27-.92 0-.332.082-.64.24-.904.16-.263.416-.534.76-.814.236-.197.48-.35.714-.446.24-.105.466-.153.665-.153.184 0 .33.038.44.126.085.064.19.192.19.413 0 .22-.085.434-.246.643-.154.192-.376.382-.69.57-.288.177-.64.35-1.09.523.112.07.14.155.196.215.055.06.12.088.214.088.123 0 .252-.028.39-.085.133-.053.275-.136.426-.243.156-.104.34-.248.553-.424.01-.153.09-.287.21-.457.21-.31.394-.545.552-.693.186-.17.368-.257.55-.257.128 0 .23.02.31.063.115.062.18.17.18.3v.047l-.043.124c-.034.052-.067.095-.088.118l-.01.012c.06-.056.123-.11.19-.17.224-.2.48-.386.772-.57.184-.128.35-.185.488-.185.19 0 .276.218.306.298.055.147.076.294.076.443 0 .116-.076.242-.244.413-.66.702-.733.96-.733 1.038.004.004.006.004.013.004.026 0 .096-.025.21-.096.14-.085.354-.233.642-.46l.28-.21V118.422c-.483.532-.812.823-1.038 1.002-.27.206-.478.3-.665.3-.162 0-.54-.057-.54-.636 0-.112.016-.222.052-.322.032-.098.08-.202.135-.303.03-.05.062-.11.103-.18-.103.1-.195.2-.274.294-.11.13-.233.282-.364.45-.145.18-.247.308-.31.368-.095.086-.196.13-.305.13-.26 0-.385-.298-.424-.394-.034-.087-.063-.18-.09-.286-.24.252-.458.447-.673.598-.323.225-.66.34-.998.34m.94-2.72c-.013.004-.022.012-.037.016-.105.063-.22.14-.33.235-.114.097-.215.206-.308.34-.004.014-.015.027-.025.037.102-.05.19-.11.273-.18.17-.128.303-.263.386-.384l.042-.064m24.976-.653c-.11 0-.22-.042-.317-.118-.106-.092-.17-.21-.17-.343 0-.17.077-.342.23-.532.157-.194.335-.294.522-.294.13 0 .243.038.34.114.065.07.15.18.15.37 0 .16-.077.335-.225.514-.155.192-.332.287-.53.287m-10.786 0c-.116 0-.218-.042-.32-.118-.112-.092-.167-.21-.167-.343 0-.17.077-.348.23-.532.155-.194.334-.294.524-.294.127 0 .238.038.333.12.098.085.15.206.15.364 0 .164-.073.335-.226.514-.152.192-.33.287-.523.287m49.48-.63c-.09 0-.177-.03-.248-.095l-.058-.048-.064-.187c0-.125.08-.33.498-.913.156-.204.275-.336.39-.405.11-.076.272-.11.475-.11.47 0 .507.294.507.39 0 .135-.102.296-.34.534-.202.196-.414.383-.64.552-.313.236-.424.282-.52.282m-77.63 0c-.094 0-.182-.03-.252-.095l-.06-.048-.067-.187c0-.125.087-.33.5-.913.156-.204.28-.336.388-.405.114-.076.272-.11.48-.11.467 0 .505.294.505.39 0 .135-.1.296-.345.534-.19.196-.403.383-.634.552-.31.234-.427.282-.514.282M302.764 93.92h-2.078V67.948h-34.283V91.84h9.87V79.377h14.546v26.494h23.372V81.452h-11.428V93.92zm0-14.544h11.43V67.948h-11.43v11.428zM278.35 93.92h-14.027V67.948h-11.43v37.922h35.848V81.452h-10.39V93.92z"/></g></svg>