<svg xmlns="http://www.w3.org/2000/svg" xmlns:xlink="http://www.w3.org/1999/xlink" width="400" height="193.411"><defs><clipPath id="p"><path d="M0 0h612v792H0V0z"/></clipPath><clipPath id="q"><path d="M0 0h612v792H0V0z"/></clipPath><linearGradient xlink:href="#a" id="r" gradientUnits="userSpaceOnUse" gradientTransform="scale(32.07812) rotate(126.2 1.767 14.777)" x2="1"/><linearGradient id="a" gradientTransform="scale(32.07812) rotate(126.2 1.767 14.777)" gradientUnits="userSpaceOnUse" x2="1"><stop offset="0" stop-color="#eb7428"/><stop offset=".401" stop-color="#ee8625"/><stop offset=".555" stop-color="#f49b26"/><stop offset=".654" stop-color="#fcc119"/><stop offset=".77" stop-color="#f5cf0c"/><stop offset="1" stop-color="#f8e828"/></linearGradient><linearGradient xlink:href="#b" id="s" gradientUnits="userSpaceOnUse" gradientTransform="scale(19.6568) rotate(-170.7 14.28 17.53)" x2="1"/><linearGradient id="b" gradientTransform="scale(19.6568) rotate(-170.7 14.28 17.53)" gradientUnits="userSpaceOnUse" x2="1"><stop offset="0" stop-color="#f08824"/><stop offset=".247" stop-color="#f7b723"/><stop offset=".577" stop-color="#ffd60c"/><stop offset="1" stop-color="#fae604"/></linearGradient><linearGradient xlink:href="#c" id="t" gradientUnits="userSpaceOnUse" gradientTransform="matrix(-79.00197 -4.83197 -4.83197 79.00198 529.032 733.8)" x2="1"/><linearGradient id="c" gradientTransform="matrix(-79.00197 -4.83197 -4.83197 79.00198 529.032 733.8)" gradientUnits="userSpaceOnUse" x2="1"><stop offset="0" stop-color="#f49b26"/><stop offset=".247" stop-color="#f7b723"/><stop offset=".577" stop-color="#ffd60c"/><stop offset="1" stop-color="#fae604"/></linearGradient><linearGradient xlink:href="#d" id="u" gradientUnits="userSpaceOnUse" gradientTransform="scale(21.80047) rotate(176.6 10.073 16.942)" x2="1"/><linearGradient id="d" gradientTransform="scale(21.80047) rotate(176.6 10.073 16.942)" gradientUnits="userSpaceOnUse" x2="1"><stop offset="0" stop-color="#ea702a"/><stop offset=".412" stop-color="#f7b723"/><stop offset=".654" stop-color="#ffd60c"/><stop offset="1" stop-color="#fae604"/></linearGradient><linearGradient xlink:href="#e" id="v" gradientUnits="userSpaceOnUse" gradientTransform="scale(27.2677) rotate(-72.6 27.01 2.482)" x2="1"/><linearGradient id="e" gradientTransform="scale(27.2677) rotate(-72.6 27.01 2.482)" gradientUnits="userSpaceOnUse" x2="1"><stop offset="0" stop-color="#f49b26"/><stop offset=".214" stop-color="#fcc119"/><stop offset=".495" stop-color="#f5cf0c"/><stop offset="1" stop-color="#f8e828"/></linearGradient><clipPath id="w"><path d="M0 0h612v792H0V0z"/></clipPath><linearGradient xlink:href="#f" id="x" gradientUnits="userSpaceOnUse" gradientTransform="scale(20.81613) rotate(-36.2 66.442 -14.783)" x2="1"/><linearGradient id="f" gradientTransform="scale(20.81613) rotate(-36.2 66.442 -14.783)" gradientUnits="userSpaceOnUse" x2="1"><stop offset="0" stop-color="#ee8625"/><stop offset=".615" stop-color="#fcc119"/><stop offset=".753" stop-color="#f5cf0c"/><stop offset="1" stop-color="#f8e828"/></linearGradient><linearGradient xlink:href="#g" id="y" gradientUnits="userSpaceOnUse" gradientTransform="scale(16.66335) rotate(146.9 7.25 25.898)" x2="1"/><linearGradient id="g" gradientTransform="scale(16.66335) rotate(146.9 7.25 25.898)" gradientUnits="userSpaceOnUse" x2="1"><stop offset="0" stop-color="#ea702a"/><stop offset=".291" stop-color="#ee8625"/><stop offset=".505" stop-color="#f49b26"/><stop offset=".654" stop-color="#fcc119"/><stop offset=".77" stop-color="#f5cf0c"/><stop offset="1" stop-color="#ffe510"/></linearGradient><linearGradient xlink:href="#h" id="z" gradientUnits="userSpaceOnUse" gradientTransform="scale(17.4038) rotate(133.3 4.05 26.45)" x2="1"/><linearGradient id="h" gradientTransform="scale(17.4038) rotate(133.3 4.05 26.45)" gradientUnits="userSpaceOnUse" x2="1"><stop offset="0" stop-color="#f49b26"/><stop offset=".214" stop-color="#fcc119"/><stop offset=".495" stop-color="#f5cf0c"/><stop offset="1" stop-color="#f8e828"/></linearGradient><linearGradient xlink:href="#i" id="A" gradientUnits="userSpaceOnUse" gradientTransform="scale(25.10244) rotate(43.1 -28.91 37.077)" x2="1"/><linearGradient id="i" gradientTransform="scale(25.10244) rotate(43.1 -28.91 37.077)" gradientUnits="userSpaceOnUse" x2="1"><stop offset="0" stop-color="#ea702a"/><stop offset=".401" stop-color="#f49b26"/><stop offset=".555" stop-color="#f7b723"/><stop offset=".654" stop-color="#ffd60c"/><stop offset="1" stop-color="#fae604"/></linearGradient><linearGradient xlink:href="#j" id="B" gradientUnits="userSpaceOnUse" gradientTransform="scale(10.69654) rotate(56.1 -44.654 72.298)" x2="1"/><linearGradient id="j" gradientTransform="scale(10.69654) rotate(56.1 -44.654 72.298)" gradientUnits="userSpaceOnUse" x2="1"><stop offset="0" stop-color="#eb7428"/><stop offset=".401" stop-color="#ee8625"/><stop offset=".582" stop-color="#fcc119"/><stop offset=".77" stop-color="#fae604"/><stop offset="1" stop-color="#fae604"/></linearGradient><radialGradient xlink:href="#k" id="C" gradientUnits="userSpaceOnUse" gradientTransform="matrix(16.3919 0 0 -16.3919 458.542 744.56)" spreadMethod="pad" cx="0" cy="0" fx="0" fy="0" r="1"/><radialGradient id="k" spreadMethod="pad" gradientTransform="matrix(16.3919 0 0 -16.3919 458.542 744.56)" gradientUnits="userSpaceOnUse" r="1" cy="0" cx="0" fy="0" fx="0"><stop offset="0" stop-color="#eb7428"/><stop offset=".401" stop-color="#ee8625"/><stop offset=".555" stop-color="#f49b26"/><stop offset=".654" stop-color="#fcc119"/><stop offset=".77" stop-color="#f5cf0c"/><stop offset="1" stop-color="#f8e828"/></radialGradient><linearGradient xlink:href="#l" id="D" gradientUnits="userSpaceOnUse" gradientTransform="scale(19.6128) rotate(-177.9 12.138 18.484)" x2="1"/><linearGradient id="l" gradientTransform="scale(19.6128) rotate(-177.9 12.138 18.484)" gradientUnits="userSpaceOnUse" x2="1"><stop offset="0" stop-color="#ea6329"/><stop offset=".401" stop-color="#ee8625"/><stop offset=".555" stop-color="#f49b26"/><stop offset=".654" stop-color="#fcc119"/><stop offset=".77" stop-color="#f5cf0c"/><stop offset="1" stop-color="#f5cf0c"/></linearGradient><linearGradient xlink:href="#m" id="E" gradientUnits="userSpaceOnUse" gradientTransform="scale(18.27484) rotate(5.5 -374.8 274.04)" x2="1"/><linearGradient id="m" gradientTransform="scale(18.27484) rotate(5.5 -374.8 274.04)" gradientUnits="userSpaceOnUse" x2="1"><stop offset="0" stop-color="#fed165"/><stop offset="1" stop-color="#c96946"/></linearGradient><linearGradient xlink:href="#n" id="F" gradientUnits="userSpaceOnUse" gradientTransform="scale(23.28796) rotate(87.9 -4.566 27.504)" x2="1"/><linearGradient id="n" gradientTransform="scale(23.28796) rotate(87.9 -4.566 27.504)" gradientUnits="userSpaceOnUse" x2="1"><stop offset="0" stop-color="#fed165"/><stop offset="1" stop-color="#d87f42"/></linearGradient><clipPath id="G"><path d="M0 0h612v792H0V0z"/></clipPath><linearGradient xlink:href="#o" id="H" gradientUnits="userSpaceOnUse" gradientTransform="scale(73.714) rotate(-19.7 21.838 -10.352)" x2="1"/><linearGradient id="o" gradientTransform="scale(73.714) rotate(-19.7 21.838 -10.352)" gradientUnits="userSpaceOnUse" x2="1"><stop offset="0" stop-color="#f8b654"/><stop offset="1" stop-color="#bb6440"/></linearGradient><clipPath id="I"><path d="M0 0h612v792H0V0z"/></clipPath></defs><path d="M246.058 173.76v1.023h-7c-.01.6-.01 1.227-.01 1.867v3.643h3.971v.886h-3.97c0 .61-.004 1.323-.012 2.12 0 .806-.003 1.556-.003 2.27v2.565H237.8V173.79l8.258-.03zM252.282 188.156c-.526-.11-1.03-.286-1.486-.555-.455-.267-.87-.616-1.22-1.043-.357-.437-.625-.934-.842-1.507-.228-.58-.335-1.228-.338-1.948-.015-.71.088-1.372.323-2 .238-.618.55-1.155.966-1.63.393-.462.882-.822 1.438-1.09.536-.27 1.102-.405 1.724-.387.224 0 .408.008.55.037.152.026.28.044.398.07.14.022.258.07.375.103.11.044.244.1.384.154l.033.02c.018.012.17.093.467.284.28.177.588.463.92.85.337.382.65.87.918 1.44.272.596.41 1.317.426 2.148.004.66-.084 1.286-.29 1.878-.206.588-.504 1.118-.875 1.577-.353.445-.79.827-1.283 1.103-.497.29-1.033.474-1.603.53l-.985-.034zm-2.508-5.165c0 .634.08 1.218.243 1.78.162.56.38 1.052.662 1.478.27.427.598.754.973 1.015.368.24.776.37 1.195.37.44 0 .842-.13 1.224-.37.37-.26.698-.588.982-1.015.28-.426.5-.92.647-1.477.184-.562.258-1.146.258-1.78 0-.62-.074-1.208-.257-1.76-.147-.54-.367-1.018-.646-1.433-.284-.412-.61-.743-.982-.978-.382-.237-.783-.365-1.224-.365-.42 0-.827.128-1.195.364-.375.234-.702.565-.974.977-.284.415-.5.893-.663 1.433-.162.552-.243 1.14-.243 1.76M263.238 178.607c-.493.14-.882.327-1.202.573-.364.28-.673.647-.9 1.05l.032 7.96h-1.353l-.04-9.94 1.375-.007-.015 1.044c.39-.405.805-.706 1.265-.894.445-.19.864-.305 1.246-.36.456-.07.904-.084 1.357-.04.1.01.187.014.272.04.088.01.165.03.26.048l-.55.574c-.685-.18-1.254-.198-1.747-.047M270.6 183.848v4.066c.007.265.007.566-.02.893-.017.265-.043.61-.094.97-.037.372-.1.787-.206 1.22-.048.23-.143.453-.268.67-.118.203-.31.453-.585.76-.198.21-.456.41-.765.538-.246.13-.573.24-.952.342-.39.103-.827.13-1.334.08-.42-.036-.827-.132-1.213-.3-.34-.14-.68-.357-1.026-.64-.35-.31-.64-.717-.875-1.243l-.026-.03.316-.032.037.062c.014.033.04.052.054.052.118.257.353.496.695.74.326.252.676.436 1.047.594.375.136.753.206 1.136.224.33.022.676-.05 1.048-.17.353-.116.695-.366.986-.74.092-.12.165-.255.246-.39.074-.137.143-.31.206-.497.062-.203.114-.434.165-.706.03-.2.056-.39.074-.55.015-.162.037-.34.048-.56.007-.21.022-.46.022-.768 0-.298 0-.695.007-1.18v-9.01h1.257l.02 5.606zm-.114-8.44c-.147-.144-.324-.23-.53-.23-.202 0-.37.086-.53.23-.142.146-.223.32-.223.53 0 .193.08.373.224.51.158.15.327.216.53.216.205 0 .382-.066.53-.216.142-.137.22-.317.22-.51 0-.21-.078-.384-.22-.53M281.35 188.09h-1.264v-.736c-.47.268-.95.47-1.463.584-.52.118-.993.2-1.412.217-.495.048-.988.048-1.484-.018-.236-.022-.44-.055-.633-.13-.194-.06-.36-.13-.5-.194-.165-.077-.312-.154-.437-.25-.22-.154-.39-.308-.507-.48-.13-.185-.226-.35-.277-.516-.07-.18-.114-.375-.118-.555-.04-.522.048-.967.283-1.338.228-.368.493-.673.776-.912.342-.28.732-.496 1.17-.684.492-.194.907-.364 1.256-.514.357-.158.655-.283.883-.386.28-.122.507-.217.68-.298.24-.11.426-.243.606-.37.157-.123.29-.262.41-.358.12-.13.236-.26.328-.37.2-.244.298-.48.316-.692.037-.236 0-.427-.05-.607-.06-.187-.166-.375-.302-.548-.203-.21-.442-.364-.703-.463-.247-.08-.49-.15-.707-.18-.253-.052-.51-.06-.768-.044-.507.055-.923.184-1.253.36-.29.17-.548.353-.725.537-.21.21-.334.448-.43.702-.044.1-.073.22-.088.33-.027.122-.034.23-.056.328 0 .114-.02.224-.033.33-.22.005-.422.012-.606.012h-.456c-.14 0-.217-.007-.235-.01.018-.056.033-.12.044-.19.015-.076.03-.142.052-.204.068-.232.18-.438.333-.614.184-.288.404-.542.666-.788.135-.136.285-.243.414-.346.136-.1.272-.173.393-.25.144-.066.28-.143.434-.198.32-.133.655-.22.983-.276.312-.044.62-.066.89-.085.32-.007.613 0 .907.03.633.114 1.122.298 1.47.6.365.28.62.57.8.874.208.36.34.744.385 1.148l.025 7.55zm-1.283-6.434c-.275.217-.584.426-.926.6-.348.175-.672.333-.97.466-.353.15-.698.294-1.047.43-.49.165-.872.33-1.166.507-.28.168-.507.34-.672.492-.192.165-.317.345-.4.522-.222.37-.32.706-.32 1.004 0 .294.036.577.124.863.106.24.216.428.356.57.147.145.283.244.437.328.162.063.353.122.537.148.525.05.97.05 1.367-.015.412-.07.75-.132 1.04-.25.34-.14.64-.282.894-.455.207-.162.365-.324.457-.478.1-.154.17-.3.224-.43.05-.136.067-.28.067-.408v-3.894zM292.966 188.177h-1.408c.004-.908.015-1.764.015-2.566v-2.024c0-.313 0-.596-.01-.857 0-.243-.005-.46-.005-.626-.022-.378-.044-.772-.128-1.15-.067-.328-.173-.66-.317-1.008-.147-.353-.352-.65-.617-.893-.18-.15-.397-.283-.666-.4-.235-.096-.518-.148-.863-.18-.346-.027-.754.014-1.243.135-.217.044-.46.136-.7.276-.212.125-.447.3-.704.522-.26.24-.52.54-.794.912l-.052 7.86h-1.33l-.038-9.963h1.475v.856c.126-.127.276-.25.46-.366.133-.092.298-.18.504-.29.198-.11.415-.188.65-.243.335-.066.66-.124.997-.176.3-.03.596-.048.938-.03.324 0 .644.067.95.16.216.06.44.124.668.212.18.103.397.217.617.36.217.147.434.35.633.592.17.195.327.474.467.82.117.28.217.67.32 1.125.102.47.15 1.037.15 1.713l.033 5.23zM311.566 188.156c-.522-.11-1.01-.286-1.478-.555-.463-.267-.875-.616-1.217-1.043-.344-.437-.63-.934-.844-1.507-.21-.58-.327-1.228-.342-1.948-.015-.71.1-1.372.324-2 .235-.618.57-1.155.963-1.63.412-.462.894-.822 1.442-1.09.54-.27 1.114-.405 1.735-.387.217 0 .404.008.548.037.147.026.287.044.397.07.132.022.265.07.37.103l.383.154.026.02c.027.012.18.093.453.284.294.177.607.463.94.85.347.382.65.87.913 1.44.28.596.43 1.317.438 2.148.01.66-.085 1.286-.302 1.878-.21.588-.492 1.118-.853 1.577-.376.445-.802.827-1.295 1.103-.492.29-1.03.474-1.592.53l-1.007-.034zm-2.5-5.165c0 .634.08 1.218.236 1.78.17.56.386 1.052.665 1.478.28.427.614.754.974 1.015.372.24.777.37 1.207.37.426 0 .842-.13 1.21-.37.386-.26.71-.588.98-1.015.29-.426.508-.92.663-1.477.165-.562.246-1.146.246-1.78 0-.62-.08-1.208-.246-1.76-.155-.54-.372-1.018-.662-1.433-.272-.412-.595-.743-.98-.978-.37-.237-.785-.365-1.21-.365-.43 0-.836.128-1.207.364-.36.234-.694.565-.973.977-.28.415-.496.893-.665 1.433-.155.552-.236 1.14-.236 1.76M334.512 185.73c-.07.172-.173.334-.26.5-.1.157-.218.304-.34.422-.29.312-.57.55-.86.757-.29.19-.595.348-.878.462-.306.1-.58.177-.857.217-.287.032-.56.047-.82.047-.595-.01-1.176-.125-1.757-.324-.574-.235-1.074-.55-1.463-.952-.4-.407-.743-.796-1.02-1.182-.282-.45-.543-.923-.737-1.427-.18-.43-.335-.863-.427-1.293-.1-.434-.165-.853-.202-1.246-.04-.41-.05-.815-.025-1.183.02-.382.055-.757.096-1.088.115-.788.306-1.534.56-2.247.194-.497.42-.923.654-1.294.25-.37.515-.696.776-.96.264-.27.536-.482.816-.655.286-.18.54-.327.81-.438.6-.264 1.208-.39 1.84-.404.328 0 .622.018.868.066.254.036.482.084.67.14.205.058.385.135.558.227.54.213.99.496 1.342.842.345.348.625.712.834 1.105l-1.33.217-.085-.228c-.195-.334-.36-.57-.5-.687-.147-.122-.224-.192-.243-.206l-.136-.11c-.246-.18-.503-.312-.772-.386-.257-.077-.5-.12-.735-.14-.272-.032-.522-.032-.783 0-.544.05-1 .174-1.368.387-.378.218-.66.457-.897.71-.265.305-.486.633-.648 1-.36.743-.61 1.478-.713 2.206-.122.717-.18 1.368-.18 1.952 0 .67.058 1.316.18 1.915.102.578.245 1.074.418 1.522.2.438.36.817.53 1.13.213.37.433.69.65.96.298.337.574.587.827.745.27.165.508.28.71.334.235.067.46.107.68.09.445 0 .812-.05 1.118-.12.294-.076.57-.15.82-.253.014-.01.044-.032.1-.06.06-.02.124-.067.216-.126.09-.06.19-.133.29-.258.102-.106.212-.242.32-.408l.087-.216 1.265-.063zM345.41 188.09h-1.27v-.736c-.46.268-.95.47-1.458.584-.51.118-.993.2-1.42.217-.496.048-.988.048-1.477-.018-.236-.022-.445-.055-.644-.13-.18-.06-.348-.13-.48-.194-.173-.077-.313-.154-.44-.25-.222-.154-.395-.308-.516-.48-.13-.185-.21-.35-.265-.516-.074-.18-.12-.375-.13-.555-.036-.522.06-.967.29-1.338.225-.368.486-.673.773-.912.338-.28.717-.496 1.17-.684.484-.194.91-.364 1.256-.514.363-.158.65-.283.878-.386.287-.122.515-.217.676-.298.236-.11.43-.243.596-.37.162-.123.31-.262.43-.358.12-.13.228-.26.316-.37.202-.244.316-.48.335-.692.015-.236 0-.427-.065-.607-.048-.187-.16-.375-.29-.548-.22-.21-.446-.364-.703-.463-.254-.08-.482-.15-.71-.18-.26-.052-.514-.06-.772-.044-.507.055-.92.184-1.227.36-.324.17-.567.353-.736.537-.217.21-.356.448-.437.702-.048.1-.077.22-.096.33-.022.122-.033.23-.033.328-.028.114-.028.224-.043.33-.224.005-.43.012-.607.012h-.47c-.125 0-.206-.007-.235-.01.03-.056.044-.12.05-.19.023-.076.03-.142.06-.204.062-.232.173-.438.33-.614.185-.288.41-.542.66-.788.135-.136.278-.243.414-.346.14-.1.282-.173.407-.25.136-.066.276-.143.412-.198.323-.133.65-.22.984-.276.338-.044.63-.066.9-.085.31-.007.615 0 .905.03.624.114 1.11.298 1.462.6.36.28.625.57.795.874.213.36.338.744.386 1.148l.036 7.55zm-1.287-6.434c-.283.217-.585.426-.934.6-.343.175-.67.333-.98.466-.337.15-.683.294-1.028.43-.497.165-.883.33-1.162.507-.29.168-.5.34-.673.492-.184.165-.32.345-.386.522-.23.37-.337.706-.337 1.004 0 .294.037.577.132.863.092.24.217.428.346.57.148.145.288.244.442.328.162.063.338.122.537.148.51.05.966.05 1.37-.015.397-.07.746-.132 1.04-.25.335-.14.622-.282.89-.455.213-.162.357-.324.452-.478.096-.154.17-.3.213-.43.056-.136.078-.28.078-.408v-3.894zM360.8 181.71c0-.463-.047-.875-.135-1.268-.037-.184-.088-.353-.155-.537-.073-.17-.15-.33-.257-.5-.092-.154-.21-.29-.353-.412-.143-.128-.31-.235-.49-.316-.208-.095-.444-.154-.694-.206-.224-.013-.49-.013-.786.027-.298.03-.64.154-.993.346-.107.062-.202.143-.305.23-.077.086-.158.178-.235.295-.085.103-.15.236-.195.386-.07.25-.12.544-.13.872-.032.32-.047.65-.047.944-.014.31-.014.592 0 .846 0 .26.008.445.008.54v1.857c0 .478.007.908.007 1.305v2.004h-1.14v-3.226c0-.646-.01-1.267-.025-1.88.014-.357.014-.732-.015-1.096-.022-.31-.048-.655-.085-1.03-.033-.36-.103-.706-.172-1.018-.118-.298-.258-.522-.42-.676-.15-.15-.327-.29-.525-.398-.166-.073-.342-.128-.54-.176-.184-.037-.38-.066-.61-.077-.24-.02-.493-.02-.77.01-.23.052-.455.115-.646.214-.202.076-.39.194-.56.326l-.21.166c-.204.21-.385.492-.532.845-.14.353-.21.835-.21 1.46l-.03 6.588-1.38.022.01-9.96h1.47l-.014.24V178.917c0 .07 0 .095.015.095.122-.184.332-.375.607-.58.276-.214.596-.372.934-.468.255-.074.52-.13.817-.147.24-.018.515-.01.835.018.312.033.643.118 1.014.247.147.033.305.106.482.187.147.084.316.187.5.33.162.136.364.305.562.544.203-.202.416-.375.64-.537.206-.15.45-.286.735-.41.28-.137.592-.226.923-.25.232-.027.456-.038.706-.038.19 0 .415.01.67.043.26.018.5.08.73.162.405.103.74.253 1.052.44.265.18.522.41.765.696.25.302.412.684.47 1.133.02.12.038.265.042.4.007.133.007.273.025.423.008.16.02.317.026.482l.066 6.49h-1.468l.02-6.468zM366.277 175.827c0 .202-.078.38-.22.51-.144.155-.317.23-.527.23-.198 0-.367-.075-.5-.23-.158-.13-.23-.308-.23-.51 0-.21.072-.386.23-.53.133-.15.302-.21.5-.21.21 0 .383.06.526.21.143.144.22.32.22.53m-1.426 12.35h1.394l-.034-9.96h-1.36v9.96zM377.884 188.177h-1.427c.015-.908.015-1.764.015-2.566V182.73c-.007-.243-.015-.46-.015-.626-.003-.378-.044-.772-.117-1.15-.063-.328-.173-.66-.327-1.008-.144-.353-.346-.65-.61-.893-.18-.15-.4-.283-.67-.4-.24-.096-.518-.148-.864-.18-.335-.027-.758.014-1.243.135-.225.044-.46.136-.706.276-.205.125-.437.3-.69.522-.272.24-.537.54-.802.912l-.036 7.86h-1.346l-.026-9.963h1.456v.856c.14-.127.287-.25.463-.366.132-.092.308-.18.507-.29.206-.11.426-.188.654-.243.328-.066.666-.124.997-.176.29-.03.603-.048.93-.03.335 0 .647.067.953.16.224.06.455.124.654.212.202.103.415.217.643.36.21.147.423.35.618.592.173.195.338.474.478.82.106.28.22.67.32 1.125.084.47.15 1.037.15 1.713l.04 5.23zM384.117 188.156c-.52-.11-1.022-.286-1.486-.555-.462-.267-.874-.616-1.215-1.043-.357-.437-.63-.934-.846-1.507-.222-.58-.328-1.228-.34-1.948-.01-.71.093-1.372.32-2 .243-.618.556-1.155.967-1.63.398-.462.883-.822 1.43-1.09.548-.27 1.133-.405 1.743-.387.232 0 .408.008.552.037.143.026.275.044.397.07.135.022.26.07.366.103.118.044.243.1.39.154l.022.02c.026.012.173.093.46.284.286.177.584.463.94.85.335.382.633.87.912 1.44.27.596.412 1.317.423 2.148.015.66-.08 1.286-.3 1.878-.215.588-.494 1.118-.862 1.577-.36.445-.793.827-1.293 1.103-.5.29-1.014.474-1.59.53l-.99-.034zm-2.51-5.165c0 .634.083 1.218.238 1.78.17.56.386 1.052.672 1.478.272.427.596.754.975 1.015.37.24.768.37 1.198.37.434 0 .835-.13 1.21-.37.378-.26.702-.588.99-1.015.29-.426.5-.92.657-1.477.165-.562.242-1.146.242-1.78 0-.62-.078-1.208-.243-1.76-.158-.54-.368-1.018-.658-1.433-.288-.412-.612-.743-.99-.978-.375-.237-.776-.365-1.21-.365-.43 0-.827.128-1.198.364-.38.234-.703.565-.975.977-.286.415-.503.893-.672 1.433-.155.552-.24 1.14-.24 1.76M392.734 186.54c.055.096.14.206.242.324.114.12.258.235.445.327.226.148.49.258.795.34.25.072.563.128.912.153.37.04.768.015 1.22-.07.394-.11.703-.28.927-.514.107-.108.206-.225.276-.358.08-.136.12-.29.147-.47.03-.173.003-.372-.033-.592-.055-.224-.147-.486-.283-.77-.106-.168-.253-.348-.415-.52-.154-.144-.356-.317-.595-.482-.25-.18-.566-.342-.945-.515-.405-.206-.783-.412-1.125-.603-.302-.17-.603-.32-.893-.496-.283-.158-.5-.287-.618-.375-.2-.13-.376-.266-.534-.424-.12-.136-.254-.305-.37-.496-.123-.21-.196-.427-.222-.684-.015-.12 0-.298.026-.526.014-.24.1-.478.242-.717.147-.242.386-.466.714-.676.33-.202.805-.327 1.408-.39.294-.033.588-.044.882-.033.276.015.562.033.882.088.313.048.614.133.923.258.192.073.387.165.593.287.158.088.33.21.526.36.182.15.337.327.465.548l-.96.1-.073-.156c-.165-.27-.305-.45-.46-.552-.142-.088-.223-.136-.23-.136-.17-.103-.35-.176-.574-.246-.2-.07-.478-.11-.765-.147-.22-.023-.434-.02-.636.013-.173.022-.356.08-.548.162-.192.096-.365.217-.497.38-.176.172-.305.36-.382.58-.073.183-.11.39-.113.628-.01.24.088.504.264.798.07.115.17.233.296.347.1.1.24.21.386.327.15.117.345.235.588.334.19.08.423.188.706.32.224.103.507.228.838.39.338.158.72.334 1.17.53.33.198.635.422.918.676.232.24.44.51.647.834.18.313.267.688.256 1.125.01.22 0 .43-.047.636-.042.176-.112.36-.2.55-.107.192-.246.368-.44.5-.145.103-.303.203-.457.273-.154.08-.324.15-.522.228-.198.078-.437.126-.7.148-.538.058-1.078.066-1.608.033-.448-.014-.91-.088-1.415-.18-.504-.1-.95-.272-1.324-.518-.088-.05-.187-.15-.29-.24-.092-.08-.184-.183-.268-.308-.103-.125-.195-.275-.298-.46l1.147.056zM303.864 186.342v-5.702h.007l.05-6.878h-1.442l-.026 5.26c-.21-.2-.452-.37-.713-.525-.24-.13-.505-.246-.814-.35-.29-.113-.628-.183-1-.183-.44-.037-.9.026-1.345.15-.382.118-.8.317-1.257.596-.452.294-.87.717-1.253 1.29-.125.203-.246.46-.36.747-.1.254-.188.55-.28.915-.103.368-.176.783-.195 1.265-.01.342.008.68.078 1.06.047.32.147.668.283 1.06.147.39.35.788.647 1.185.007.03.03.055.036.084.007.026.032.067.055.08.11.145.227.292.36.413.136.13.265.267.42.38.455.402.984.682 1.59.84.052.018.118.025.188.05.052 0 .118.008.18.008.27.034.526.056.772.09.254.024.508.024.78 0 .32-.034.64-.067.945-.123.312-.047.617-.14.915-.272v.305h1.423v-.628h-.044v-1.118zm-2.452 1.066c-.387.078-.765.122-1.13.122-.356 0-.71-.037-1.036-.092-.338-.085-.595-.17-.8-.272-.373-.214-.703-.53-.983-.938-.114-.184-.22-.386-.33-.625-.118-.253-.21-.533-.298-.853-.074-.323-.14-.683-.18-1.08-.045-.4-.048-.857-.012-1.35.04-.294.085-.588.144-.893.055-.254.136-.518.228-.787.066-.28.195-.533.345-.768.184-.28.397-.522.63-.746.194-.184.444-.357.745-.515.29-.153.632-.216 1-.198.357 0 .713.06 1.052.195.29.096.59.276.893.52.305.25.57.602.798 1.076v2.165s-.015 0-.026-.004v.328c.01.003.01.003.026.003l.007 4.305c-.338.195-.695.338-1.073.408"/><path d="M238.276 164.97c-1.68 1.383-3.92 1.84-6.076 1.84-3.934 0-7.596-2.207-7.596-6.846 0-4.14 3.662-6.83 7.596-6.83 1.856 0 4.124.473 5.77 1.532l-.62 1.886c-.085.235-.217.68-.268.68-.074 0-.177-.298-.225-.53-.422-1.742-1.68-3.01-4.657-3.07-3.666 0-4.905 3.336-4.905 6.332 0 3.007 1.416 6.338 5.706 6.338 1.98 0 3.468-1.06 4.35-3.103.1-.23.125-.417.22-.417.08 0 .096.056.18.36l.526 1.828zm3.875-5.576c.225-1.743 1.21-3.37 3.038-3.37 2.092 0 3.055 1.392 3.055 3.37h-6.092zm8.61.36c-.275-2.786-2.944-4.114-5.13-4.114-3.405 0-5.95 2.31-5.95 5.533 0 3.224 2.545 5.53 5.95 5.53 2.738 0 4.756-1.662 5.388-4.445h-.41c-.696 2.36-2.39 3.948-4.71 3.948-1.95 0-3.883-1.39-3.883-5.125 0-.425.022-.852.06-1.326h8.686zm4.273-.985h.033c.467-1.71 1.456-3.13 4.11-3.13 2.202 0 4.276 1.147 4.276 4.35v3.87c-.04 1.916.228 2.203.812 2.41.143.032.272.09.272.127 0 .066-.118.066-.312.066-.192 0-.714-.066-1.813-.066-1.09 0-1.815.066-2.072.066-.118 0-.22 0-.22-.066 0-.037.032-.095.187-.106.713-.084 1.073-.635 1.073-2.43v-3.896c0-1.85-.816-3.82-2.945-3.82-2.396 0-3.18 2.456-3.18 5.276v2.44c0 1.287.06 2.225.964 2.38.136.03.21.062.21.12 0 .085-.04.103-.177.103-.13 0-.956-.066-2.04-.066-1.092 0-2.023.066-2.16.066-.113 0-.18-.018-.18-.103 0-.058.08-.09.215-.12 1.014-.155 1.095-1.093 1.095-2.38v-4.973c0-1.206-.143-1.89-.71-2.15-.21-.093-.35-.148-.35-.185 0-.062.14-.062.376-.103.967-.192 1.783-.324 2.537-.59v2.91zm10.503-1.68c-.136 0-.21-.086-.21-.174 0-.11.166-.184.394-.287 1.15-.4 2.128-1.33 2.87-2.857.056-.14.133-.188.222-.188.092 0 .092.133.092.265v2.6h2.238l-.143.64h-2.096v5.72c0 2.668.647 3.153 1.283 3.37.17.06.25.09.25.133 0 .07-.144.084-.324.084h-2.434c-.567-.25-.843-.698-.843-1.463v-7.845h-1.3zm9.558 1.37h.04c.788-1.673 2.2-2.897 4.082-2.82l-.84 2.078c-.33-.265-.83-.32-1.245-.32-1.146 0-1.903 1.455-1.903 2.764v3.7c0 1.285.088 2.223 1.14 2.43.135.02.194.068.194.105 0 .066-.058.066-.153.066-.132 0-1.12-.066-2.243-.066-1.077 0-2.01.066-2.143.066-.087 0-.183-.018-.183-.066 0-.037.096-.084.228-.095.938-.34 1.085-.74 1.085-2.44v-4.795c0-1.386-.07-2.118-.783-2.28-.2-.055-.302-.117-.302-.158.026-.078.287-.063.416-.11.938-.148 1.776-.354 2.614-.66v2.6zm7.22 2.713c0-2.375.63-5.15 3.625-5.15 3.02 0 3.643 2.775 3.643 5.15 0 2.382-.622 5.14-3.644 5.14-2.997 0-3.625-2.758-3.625-5.14m-2.335 0c0 3.224 2.544 5.53 5.96 5.53 3.44 0 5.977-2.306 5.977-5.53s-2.537-5.533-5.978-5.533c-3.416 0-5.96 2.31-5.96 5.533m21.286.592c0 1.94-.732 4.44-3.107 4.44-1.427 0-2.482-1.058-2.482-2.536 0-2.65 2.228-3.306 4.393-3.306h1.196v1.4zm2.077-2.76c0-2.545-2.42-3.365-4.713-3.365-1.798 0-3.084.15-4.75 1.004l.526 1.816c.04.114.07.217.103.217.04 0 .08-.15.153-.335.732-1.775 1.813-2.32 3.666-2.32 2.024 0 2.936 1.376 2.936 3.302v.665h-1.15c-2.104 0-6.772.305-6.772 3.352 0 2.39 2.146 3.36 4.238 3.36 1.772 0 2.945-.724 3.724-2.352h.037c.055.71.202 1.41.485 2.047h2.18c.133 0 .265-.014.265-.084 0-.044-.095-.044-.213-.107-.625-.29-.717-.882-.717-1.555v-5.646zm4.948-.567h.038c.654-1.92 2.092-2.798 4.044-2.798 1.868 0 3.298 1.004 3.62 2.798h.038c.562-1.92 1.996-2.798 3.945-2.798 1.834 0 3.73.82 3.73 4.57v4.26c0 1.218.174 1.57.79 1.77.126.05.27.073.27.157 0 .048-.158.066-.28.066-.128 0-.713-.066-1.805-.066-1.1 0-1.93.066-2.022.066-.12 0-.172-.066-.172-.103 0-.058.07-.07.15-.12.894-.262 1.01-1.093 1.01-2.832v-4.066c0-1.62-.653-3.198-2.51-3.198-2.433 0-3.036 2.974-3.036 4.89v3.433c0 .982.128 1.618.86 1.74.158.017.25.095.25.176 0 .062-.154.08-.235.08-.13 0-.805-.066-1.92-.066-1.073 0-1.746.066-1.966.066-.053 0-.152-.018-.152-.066 0-.037.044-.095.11-.106.813-.25.993-1.143.993-2.43v-4.518c0-1.62-.64-3.198-2.5-3.198-2.422 0-3.04 2.974-3.04 4.89v2.827c0 1.287.152 2.203.953 2.38.077.03.118.113.118.157 0 .066-.1.066-.27.066-.145 0-.726-.066-1.847-.066-1.08 0-1.397.066-1.566.066-.136 0-.213 0-.213-.066 0-.084.055-.106.128-.158.603-.214.636-1.53.636-3.048v-4.875c0-.596 0-1.4-.67-1.552-.135-.03-.315-.033-.315-.095 0-.118.162-.15.298-.155.95-.187 1.79-.39 2.54-.654v2.578zm19.905.956c.21-1.743 1.21-3.37 3.04-3.37 2.088 0 3.033 1.392 3.033 3.37h-6.073zm8.61.36c-.28-2.786-2.93-4.114-5.132-4.114-3.416 0-5.945 2.31-5.945 5.533 0 3.224 2.53 5.53 5.945 5.53 2.735 0 4.757-1.662 5.396-4.445h-.42c-.698 2.36-2.39 3.948-4.716 3.948-1.942 0-3.872-1.39-3.872-5.125 0-.425.01-.852.056-1.326h8.687zm4.606-1.294h.045c.787-1.673 2.188-2.897 4.073-2.82l-.84 2.078c-.34-.265-.83-.32-1.24-.32-1.144 0-1.916 1.455-1.916 2.764v3.7c0 1.285.092 2.223 1.147 2.43.143.02.202.068.202.105 0 .066-.06.066-.166.066-.147 0-1.13-.066-2.23-.066-1.09 0-2.027.066-2.148.066-.114 0-.18-.018-.18-.066 0-.037.066-.084.22-.095.945-.34 1.08-.74 1.08-2.44v-4.795c0-1.386-.087-2.118-.782-2.28-.195-.055-.298-.117-.298-.158.01-.078.276-.063.427-.11.92-.148 1.764-.354 2.606-.66v2.6zm6.784-3.91c.676 0 1.206-.53 1.206-1.178 0-.65-.53-1.206-1.206-1.206-.65 0-1.188.555-1.188 1.206 0 .647.537 1.177 1.188 1.177m-.875 9.31c0 1.287-.137 2.18-1.064 2.364-.12.015-.198.067-.198.173 0 .066.11.066.28.066.198 0 .933-.066 2.006-.066 1.096 0 1.817.066 2.015.066.172 0 .282 0 .282-.066 0-.106-.077-.158-.206-.173-.915-.183-1.036-1.077-1.036-2.363v-8c-.975.266-1.82.468-2.754.655-.147.004-.368.037-.368.074 0 .054.22.054.34.113.333.184.7.3.7 1.305v5.853zm14.465-5.444c-.103.33-.188.555-.232.555-.077 0-.084-.13-.128-.256-.508-1.45-1.596-2.69-3.677-2.69-2.643 0-3.588 2.69-3.613 5.15 0 3.642 2.036 5.032 3.89 5.032 1.71 0 3.297-1.165 4.032-2.65l.33.305c-1.09 1.853-2.444 2.842-4.624 2.842-3.41 0-5.948-2.305-5.948-5.53 0-3.223 2.537-5.532 5.948-5.532 1.147 0 3.504.486 4.493 1.21l-.47 1.566zm9.886 3.35c0 1.94-.72 4.44-3.08 4.44-1.43 0-2.496-1.06-2.496-2.537 0-2.65 2.22-3.306 4.404-3.306h1.173v1.4zm2.078-2.762c0-2.544-2.416-3.364-4.702-3.364-1.79 0-3.096.15-4.743 1.004l.526 1.816c.028.114.054.217.084.217.05 0 .1-.15.17-.335.727-1.775 1.815-2.32 3.653-2.32 2.05 0 2.934 1.376 2.934 3.302v.665h-1.14c-2.11 0-6.775.305-6.775 3.352 0 2.39 2.147 3.36 4.247 3.36 1.772 0 2.937-.724 3.713-2.352h.055c.033.71.195 1.41.47 2.047h2.18c.136 0 .254-.014.254-.084 0-.044-.077-.044-.195-.107-.622-.29-.732-.882-.732-1.555v-5.646zm4.955-.235h.037c.467-1.71 1.452-3.13 4.103-3.13 2.21 0 4.28 1.147 4.28 4.35v3.87c-.034 1.916.223 2.203.81 2.41.14.032.26.09.26.127 0 .066-.097.066-.292.066-.19 0-.708-.066-1.815-.066-1.095 0-1.805.066-2.07.066-.124 0-.235 0-.235-.066 0-.037.055-.095.195-.106.717-.084 1.077-.635 1.077-2.43v-3.896c0-1.85-.827-3.82-2.956-3.82-2.393 0-3.165 2.456-3.165 5.276v2.44c0 1.287.06 2.225.96 2.38.14.03.21.062.21.12 0 .085-.048.103-.165.103-.147 0-.967-.066-2.052-.066-1.1 0-2.022.066-2.154.066-.118 0-.192-.018-.192-.103 0-.058.092-.09.224-.12 1.008-.155 1.085-1.093 1.085-2.38v-4.973c0-1.206-.133-1.89-.7-2.15-.216-.093-.36-.148-.36-.185 0-.062.144-.062.38-.103.966-.192 1.786-.324 2.536-.59v2.91zm18.293 2.995c0 1.94-.713 4.44-3.088 4.44-1.433 0-2.492-1.058-2.492-2.536 0-2.65 2.228-3.306 4.41-3.306h1.17v1.4zm2.08-2.76c0-2.545-2.418-3.365-4.708-3.365-1.787 0-3.103.15-4.746 1.004l.526 1.816c.04.114.062.217.095.217.048 0 .085-.15.155-.335.738-1.775 1.812-2.32 3.668-2.32 2.03 0 2.93 1.376 2.93 3.302v.665h-1.15c-2.1 0-6.776.305-6.776 3.352 0 2.39 2.147 3.36 4.247 3.36 1.775 0 2.944-.724 3.724-2.352h.04c.04.71.203 1.41.475 2.047h2.18c.136 0 .265-.014.265-.084 0-.044-.08-.044-.206-.107-.614-.29-.717-.882-.717-1.555v-5.646zM94.024 162.838c0 2.507 1.823 3.835 4.286 3.835 3.346 0 4.79-1.555 4.79-4.982v-4.212c0-2.025-.55-2.956-1.37-3.364-.118-.07-.255-.147-.255-.21 0-.058.092-.084.15-.084.56 0 .76.085 1.68.085.858 0 1.428-.085 1.667-.085.17 0 .29.026.29.085 0 .048-.092.114-.29.254-.614.388-1.35 1.245-1.368 3.318v4.188c0 3.89-1.82 5.518-5.702 5.518-3.073 0-6.216-.688-6.216-4.335v-7.177c0-.827-.22-1.49-.853-1.654-.11-.042-.217-.097-.217-.115 0-.06.125-.085.305-.085.328 0 1.295.085 1.93.085.648 0 1.615-.085 1.935-.085.187 0 .3.026.3.085 0 .018-.098.073-.2.114-.644.164-.86.826-.86 1.653v7.165zm14.76-3.71h.04c.475-1.698 1.445-3.11 4.107-3.11 2.21 0 4.273 1.148 4.273 4.34v3.888c-.026 1.905.23 2.188.812 2.39.14.037.26.1.26.136 0 .062-.102.062-.3.062-.188 0-.695-.062-1.813-.062-1.088 0-1.805.062-2.07.062-.128 0-.216 0-.216-.062 0-.037.033-.1.18-.118.728-.084 1.084-.62 1.084-2.408v-3.908c0-1.852-.82-3.823-2.96-3.823-2.385 0-3.18 2.456-3.18 5.276v2.456c0 1.27.074 2.206.98 2.368.12.022.208.06.208.12 0 .078-.055.1-.176.1-.144 0-.96-.062-2.055-.062-1.077 0-2.007.062-2.14.062-.132 0-.187-.022-.187-.1 0-.06.084-.098.22-.12 1.004-.162 1.088-1.1 1.088-2.368v-4.992c0-1.213-.136-1.89-.71-2.136-.223-.103-.363-.158-.363-.2 0-.065.14-.065.382-.098.975-.187 1.794-.316 2.537-.588v2.897zm12.323-4.194c.687 0 1.224-.562 1.224-1.187 0-.65-.536-1.206-1.223-1.206-.636 0-1.18.556-1.18 1.207 0 .625.544 1.187 1.18 1.187m-.853 9.312c0 1.27-.147 2.166-1.07 2.342-.13.026-.206.066-.206.184 0 .062.1.062.283.062.207 0 .924-.062 2.01-.062 1.083 0 1.818.062 2.02.062.177 0 .28 0 .28-.062 0-.118-.077-.158-.206-.184-.926-.176-1.033-1.073-1.033-2.342v-8.014c-.977.272-1.815.47-2.763.65-.14.008-.364.037-.364.078 0 .055.224.055.34.13.33.175.71.293.71 1.304v5.852zm11.036.397l2.566-4.996c.364-.794.69-1.536.69-2.117 0-.68-.436-.934-.925-1.096-.102-.026-.176-.06-.176-.117 0-.06.074-.085.2-.085.52 0 .71.085 1.532.085.78 0 .967-.085 1.482-.085.147 0 .264 0 .264.062 0 .08-.055.162-.176.25-.673.453-1.37 1.515-2.063 2.75l-3.91 7.5c-.064.118-.185.283-.255.283h-.033c-.06 0-.077-.1-.202-.305l-3.51-6.853c-.77-1.526-1.416-2.83-2.258-3.405-.162-.107-.247-.14-.247-.198 0-.085.122-.085.265-.085.32 0 .824.085 1.783.085.93 0 1.654-.085 1.82-.085.096 0 .257.026.257.085 0 .058-.073.117-.18.172-.32.062-.57.308-.57.746 0 .415.327.996.51 1.378l3.137 6.03zm8.952-4.893c.224-1.724 1.21-3.36 3.033-3.36 2.095 0 3.048 1.397 3.048 3.36h-6.08zm8.61.394c-.29-2.805-2.938-4.125-5.132-4.125-3.42 0-5.956 2.307-5.956 5.524 0 3.21 2.537 5.533 5.956 5.533 2.74 0 4.75-1.673 5.4-4.452h-.445c-.672 2.364-2.39 3.945-4.69 3.945-1.95 0-3.88-1.383-3.88-5.114 0-.434.008-.86.06-1.312h8.687zm4.606-1.317h.03c.783-1.66 2.194-2.89 4.09-2.808l-.852 2.054c-.33-.25-.812-.302-1.242-.302-1.162 0-1.908 1.456-1.908 2.765v3.71c0 1.268.103 2.205 1.147 2.407.143.04.202.08.202.118 0 .062-.06.062-.162.062-.132 0-1.12-.062-2.23-.062-1.09 0-2.038.062-2.148.062-.107 0-.188-.022-.188-.062 0-.037.08-.077.225-.1.948-.338 1.084-.742 1.084-2.426v-4.82c0-1.385-.077-2.106-.787-2.26-.207-.06-.298-.122-.298-.17.014-.077.275-.05.422-.106.93-.154 1.758-.346 2.614-.658v2.595zm13.713-.555c-.08.158-.117.254-.194.254-.066 0-.125-.04-.143-.162-.195-1.128-1.607-1.974-3.254-1.974-1.563 0-2.95.7-2.95 2.42 0 1.403 1.758 1.727 3.603 1.848 2.82.184 4.11.927 4.11 2.86 0 2.864-3.345 3.56-5.632 3.56-1.583 0-3.22-.244-4.734-.81l.43-1.665c.06-.235.122-.382.18-.382.082 0 .096.074.107.18.327 1.592 2.768 2.295 4.15 2.295 1.545 0 3.475-.563 3.475-2.416 0-1.526-1.202-1.736-3.548-1.938-1.79-.162-4.158-.72-4.158-2.94 0-2.784 3.107-3.383 5.305-3.383 1.162 0 2.655.315 3.74.752l-.486 1.5zm3.74.122c0-1.01-.383-1.13-.703-1.305-.117-.075-.342-.075-.342-.13 0-.04.225-.07.364-.077.948-.18 1.793-.38 2.753-.65v8.013c0 1.27.118 2.166 1.055 2.342.107.026.19.066.19.184 0 .062-.102.062-.286.062-.194 0-.922-.062-1.996-.062-1.092 0-1.823.062-2.018.062-.18 0-.283 0-.283-.062 0-.118.084-.158.206-.184.92-.176 1.06-1.073 1.06-2.342v-5.852zm-.313-4.647c0-.65.53-1.206 1.184-1.206.68 0 1.203.556 1.203 1.207 0 .625-.522 1.187-1.202 1.187-.654 0-1.183-.562-1.183-1.187m7.147 7.797c0-4.224 2.202-5.03 3.533-5.03 1.305 0 3.496.806 3.496 5.03 0 3.743-2.19 5.026-3.496 5.026-1.33 0-3.533-.805-3.533-5.026m9.003-9.345c-.963.256-1.812.46-2.754.635-.154.026-.363.044-.363.118 0 .066.113.092.253.117.79.173.79.835.79 1.544v3.103h-.05c-.8-1.084-2.262-1.698-4.02-1.698-2.933 0-5.186 2.686-5.186 5.524 0 3.368 2.367 5.533 5.187 5.533 2.033 0 3.3-.945 4.092-2.323h.04c.088.51.213 1.305.588 2.018h2.368c.23 0 .338-.02.338-.077 0-.04-.06-.08-.143-.107-.72-.206-.993-.978-1.06-1.75-.08-1.08-.08-2.176-.08-3.294V152.2zm10.014 9.94c0 1.945-.73 4.43-3.098 4.43-1.43 0-2.496-1.055-2.496-2.533 0-2.65 2.24-3.29 4.41-3.29h1.185v1.393zm2.075-2.776c0-2.514-2.42-3.345-4.717-3.345-1.787 0-3.08.146-4.746.995l.533 1.812c.044.118.07.228.1.228s.08-.16.154-.342c.715-1.768 1.81-2.323 3.664-2.323 2.033 0 2.937 1.382 2.937 3.305v.662h-1.138c-2.122 0-6.772.3-6.772 3.364 0 2.397 2.136 3.357 4.228 3.357 1.764 0 2.933-.724 3.727-2.35h.04c.034.7.188 1.405.48 2.045h2.168c.14 0 .257-.02.257-.077 0-.06-.07-.06-.198-.125-.618-.272-.717-.883-.717-1.552v-5.654zm4.617 2.18c0-4.224 2.198-5.03 3.526-5.03 1.3 0 3.492.806 3.492 5.03 0 3.743-2.19 5.026-3.492 5.026-1.328 0-3.526-.805-3.526-5.026m8.992-9.345c-.96.256-1.808.46-2.753.635-.14.026-.352.044-.352.118 0 .066.103.092.24.117.793.173.793.835.793 1.544v3.103h-.032c-.798-1.084-2.272-1.698-4.026-1.698-2.937 0-5.19 2.686-5.19 5.524 0 3.368 2.374 5.533 5.19 5.533 2.03 0 3.313-.945 4.085-2.323h.036c.103.51.232 1.305.585 2.018h2.37c.25 0 .35-.02.35-.077 0-.04-.066-.08-.147-.107-.73-.206-.995-.978-1.072-1.75-.074-1.08-.074-2.176-.074-3.294V152.2z" fill="#0a71b4"/><path d="M38.987 159.81c-12.665 0-23.705-1.97-33.1-5.882v-50.553c5.48 2.883 12.204 4.19 20.174 3.923 8.754-.265 15.798-2.298 21.162-6.08 4.706-3.394 7.106-7.305 7.25-11.75 0-4.448-2.35-8.092-7.048-10.974-5.24-3.257-12.345-4.705-21.363-4.312-10.844.39-19.075 3.334-24.685 8.816L0 80.454l20.97-61.328h64.654L78.367 48.33H17.834l-7.64 20.948C22.47 59.492 36.31 54.462 51.73 54.194c15.675-.257 27.946 4.312 36.84 13.724 7.962 8.352 11.95 19.072 11.95 32.123 0 16.993-5.977 31.19-17.932 42.624-11.955 11.43-26.484 17.146-43.6 17.146" fill="#da2320"/><path d="M158.6 120.373c1.687 0 3.278.316 4.775.948 1.492.63 2.786 1.497 3.878 2.59 1.092 1.087 1.956 2.374 2.585 3.874.632 1.5.955 3.096.955 4.776v12.21h-2.44v-4.887c-1.107 1.467-2.52 2.647-4.25 3.54-1.725.893-3.555 1.346-5.504 1.346-1.732 0-3.335-.325-4.813-.946-1.482-.65-2.765-1.515-3.846-2.6-1.098-1.088-1.962-2.37-2.59-3.848-.636-1.482-.956-3.092-.956-4.816 0-1.68.32-3.276.956-4.776.628-1.5 1.492-2.787 2.59-3.875 1.082-1.093 2.365-1.96 3.847-2.59 1.478-.63 3.08-.947 4.812-.947m0 21.95c1.326 0 2.587-.264 3.77-.77 1.188-.534 2.225-1.23 3.1-2.108.882-.882 1.58-1.908 2.1-3.103.53-1.18.782-2.448.782-3.782 0-1.328-.253-2.59-.783-3.772-.52-1.184-1.218-2.22-2.1-3.107-.875-.874-1.912-1.576-3.1-2.09-1.183-.52-2.444-.78-3.77-.78-1.35 0-2.604.26-3.787.78-1.188.514-2.22 1.216-3.107 2.09-.868.887-1.573 1.924-2.088 3.108-.522 1.183-.776 2.444-.776 3.772 0 1.334.254 2.602.776 3.782.515 1.195 1.22 2.22 2.088 3.103.886.88 1.92 1.574 3.107 2.107 1.183.507 2.437.772 3.786.772M185.912 120.373c1.655 0 3.22.32 4.684.97 1.463.655 2.757 1.537 3.89 2.647 1.11 1.136 1.996 2.434 2.647 3.897.643 1.452.974 3.015.974 4.673v12.21h-2.43v-12.21c0-1.328-.272-2.59-.787-3.772-.518-1.184-1.22-2.22-2.1-3.107-.878-.874-1.904-1.576-3.09-2.09-1.188-.52-2.453-.78-3.788-.78-1.334 0-2.6.26-3.782.78-1.184.514-2.214 1.216-3.1 2.09-.874.887-1.577 1.924-2.09 3.108-.523 1.183-.788 2.444-.788 3.772v12.21h-2.445v-12.21c0-1.658.33-3.22.963-4.673.633-1.463 1.497-2.76 2.588-3.897 1.078-1.11 2.372-1.992 3.846-2.647 1.485-.65 3.088-.97 4.808-.97M201.04 115.983h2.44v2.438h-2.44v-2.437zm0 4.39h2.44v24.396h-2.44v-24.397zM208.796 144.767H206.4v-24.395h2.396v21.267l22.006-21.952 1.658 1.654-23.664 23.425z" fill="#0a71b4"/><g transform="matrix(3.6763 0 0 -3.6763 -1534.947 2798.655)" clip-path="url(#p)"><path d="M484.34 722.558c.568 0 1.066.153 1.498.452.435.3.754.704.957 1.205h.732c-.118-.335-.28-.646-.487-.926-.208-.287-.45-.53-.728-.732-.278-.203-.587-.366-.923-.483-.338-.122-.687-.182-1.05-.182-.468 0-.905.088-1.307.257-.402.177-.75.41-1.046.707-.3.296-.532.644-.707 1.047-.17.403-.26.84-.26 1.31 0 .457.09.89.26 1.3.175.406.408.757.707 1.053.295.297.644.532 1.046.704.402.173.84.26 1.307.26.462 0 .894-.087 1.3-.26.407-.17.76-.406 1.054-.703.297-.296.535-.647.704-1.054.172-.408.26-.842.26-1.3v-.33h-5.974c.054-.34.16-.65.314-.93.156-.285.35-.527.59-.73.238-.206.508-.366.805-.486.296-.12.612-.18.947-.18m0 5.31c-.335 0-.65-.06-.947-.18-.297-.12-.567-.28-.804-.483-.24-.205-.436-.45-.592-.737-.155-.288-.26-.596-.314-.925h5.313c-.055.33-.16.637-.315.925-.154.286-.35.532-.59.737-.238.202-.506.363-.81.483-.3.12-.614.18-.942.18M491.772 728.53c.45 0 .876-.087 1.27-.26.404-.17.755-.406 1.06-.703.306-.296.546-.646.72-1.054.178-.408.267-.842.267-1.3h-.667c0 .362-.068.705-.21 1.027-.14.322-.33.604-.57.845-.24.238-.52.43-.844.57-.323.14-.665.21-1.028.21s-.707-.07-1.027-.21c-.323-.14-.604-.332-.843-.57-.24-.24-.43-.523-.57-.845-.143-.322-.214-.665-.214-1.026v-3.32h-.663v3.32c0 .457.087.89.257 1.3.173.407.408.757.705 1.053.295.297.646.533 1.048.704.4.173.84.26 1.307.26M496.893 727.555c-.23-.207-.342-.48-.342-.816 0-.34.112-.622.343-.85.233-.23.514-.348.85-.348h2.99c.246 0 .476-.044.693-.137.22-.093.408-.22.573-.385.16-.163.29-.354.38-.57.092-.216.14-.45.14-.698 0-.248-.048-.485-.14-.71-.09-.223-.22-.42-.38-.59-.166-.168-.355-.302-.574-.405-.217-.1-.447-.153-.694-.153h-4.847v.665h4.847c.297 0 .56.113.79.344.222.23.334.513.334.848 0 .337-.112.608-.335.817-.227.207-.49.313-.788.313h-2.988c-.264 0-.51.048-.738.15-.225.1-.42.236-.59.405-.168.167-.295.366-.39.592-.094.223-.14.462-.14.71 0 .246.046.48.14.695.095.218.222.408.39.57.17.164.365.293.59.388.227.092.474.136.737.136h4.778v-.663h-4.777c-.336 0-.617-.104-.85-.312M506.634 728.53c.462 0 .893-.087 1.3-.26.41-.17.76-.406 1.054-.703.3-.296.533-.646.705-1.054.173-.408.26-.842.26-1.3v-3.32h-.665v1.33c-.3-.4-.686-.72-1.153-.964-.47-.244-.97-.367-1.5-.367-.468 0-.907.088-1.305.257-.405.177-.756.412-1.05.707-.298.296-.533.645-.706 1.047-.17.403-.257.84-.257 1.31 0 .457.086.89.257 1.3.173.407.408.757.705 1.053.294.297.645.533 1.05.704.398.173.837.26 1.304.26m0-5.972c.362 0 .71.072 1.03.21.32.145.603.334.842.573.24.24.43.52.57.845.144.32.212.666.212 1.03 0 .36-.068.703-.212 1.025-.14.322-.33.604-.57.845-.24.238-.52.43-.842.57-.32.14-.668.21-1.03.21s-.705-.07-1.026-.21c-.325-.14-.606-.332-.844-.57-.237-.24-.428-.523-.57-.845-.143-.322-.212-.665-.212-1.026 0-.363.07-.708.212-1.03.142-.324.333-.603.57-.843.238-.238.52-.427.844-.572.32-.138.664-.21 1.026-.21M514.064 728.53c.453 0 .88-.087 1.276-.26.396-.17.752-.406 1.054-.703.306-.296.545-.646.726-1.054.176-.408.264-.842.264-1.3h-.664c0 .362-.07.705-.21 1.027-.144.322-.334.604-.574.845-.24.238-.52.43-.84.57-.324.14-.668.21-1.032.21-.362 0-.703-.07-1.025-.21-.326-.14-.606-.332-.845-.57-.237-.24-.428-.523-.57-.845-.143-.322-.212-.665-.212-1.026v-3.32h-.667v3.32c0 .457.09.89.26 1.3.174.407.408.757.706 1.053.296.297.643.533 1.047.704.4.173.837.26 1.304.26" fill="#0a71b4"/></g><path d="M370.024 115.983h2.45v2.438h-2.45v-2.437zm0 4.39h2.45v24.396h-2.45v-24.397z" fill="#0a71b4"/><g transform="matrix(3.6763 0 0 -3.6763 -1534.947 2798.655)" clip-path="url(#q)"><path d="M522.958 728.53c.45 0 .877-.087 1.274-.26.398-.17.747-.406 1.055-.703.305-.296.545-.646.723-1.054.176-.408.265-.842.265-1.3 0-.468-.09-.906-.265-1.31-.178-.4-.418-.75-.723-1.046-.308-.295-.657-.53-1.055-.707-.397-.17-.823-.257-1.274-.257-.47 0-.903.088-1.308.257-.403.177-.753.412-1.05.707-.295.296-.53.645-.7 1.047-.174.403-.262.84-.262 1.31 0 .457.088.89.26 1.3.173.407.407.757.702 1.053.297.297.647.533 1.05.704.405.173.837.26 1.308.26m0-5.972c.36 0 .705.072 1.03.21.322.145.602.334.838.573.242.24.43.52.573.845.142.32.213.666.213 1.03 0 .36-.07.703-.214 1.025-.144.322-.332.604-.574.845-.236.238-.516.43-.84.57-.323.14-.668.21-1.028.21-.363 0-.706-.07-1.028-.21-.323-.14-.607-.332-.843-.57-.24-.24-.432-.523-.572-.845-.14-.322-.213-.665-.213-1.026 0-.363.072-.708.213-1.03.14-.324.332-.603.572-.843.236-.238.52-.427.843-.572.322-.138.665-.21 1.028-.21" fill="#0a71b4"/></g><path d="M497.193 743.213c-2.917-1.37-5.693-3.057-8.56-4.66-2.853-1.613-5.813-3.155-9-4.25-3.178-1.107-6.614-1.7-10.054-1.51-2.506.127-4.974.66-7.325 1.477-.99-.735-2.076-1.326-3.215-1.753 3.25-1.262 6.782-2.082 10.365-2.142 3.795-.083 7.526.706 10.844 2.007 3.34 1.28 6.325 3.002 9.15 4.745 2.825 1.742 5.508 3.53 8.278 4.98 2.765 1.434 5.654 2.52 8.668 2.566 3.008.087 6.037-.967 8.737-2.652 2.718-1.676 5.14-3.9 7.37-6.282-1.316 1.53-2.714 3.004-4.222 4.34-.008.005-.018.014-.024.022-.02.02-.045.038-.067.056-.9.79-1.838 1.526-2.824 2.196-2.662 1.82-5.747 3.07-8.934 3.13-.138.006-.276.008-.415.008-3.04 0-6.003-.98-8.774-2.277m-39.804-6.79l-.128-.07c.043.022.087.046.13.07h-.003zm-.43-.22l.004.002c.1.046.2.096.298.148-.1-.052-.2-.102-.3-.15m-.694-.417c-.182-.116-.372-.227-.568-.33.01.003.017.006.025.007.69.188 1.35.46 1.965.802l-.05.026c-.44-.213-.902-.383-1.372-.504" fill="url(#r)" transform="matrix(3.6763 0 0 -3.6763 -1534.947 2798.655)"/><path d="M496.65 744.3c-3.06-1.29-5.94-2.89-8.845-4.36-2.886-1.476-5.81-2.833-8.842-3.734-3.03-.903-6.164-1.297-9.244-.995-1.8.168-3.556.568-5.257 1.14-.655-.78-1.4-1.48-2.208-2.08 2.35-.818 4.82-1.35 7.324-1.476 3.44-.19 6.875.402 10.053 1.51 3.187 1.094 6.147 2.636 9 4.25 2.867 1.602 5.643 3.29 8.56 4.66 2.897 1.354 6.004 2.364 9.19 2.27 3.186-.06 6.27-1.312 8.933-3.132.986-.67 1.924-1.407 2.823-2.196.02-.018.046-.037.066-.056.006-.008.016-.017.025-.022 1.513-1.336 2.907-2.808 4.222-4.34-.253.322-.51.64-.772.955-1.826 2.206-3.825 4.28-6.144 6-2.627 1.965-5.782 3.4-9.156 3.6-.342.024-.684.036-1.026.036-3.014 0-5.97-.882-8.703-2.03m-39.26-7.878h.002c.91.508 1.703 1.214 2.3 2.056-.598-.842-1.395-1.548-2.303-2.056m.25-.13c.016-.01.034-.02.05-.027.934.516 1.762 1.19 2.437 1.978-.006 0-.007.006-.013.007-.68-.83-1.534-1.497-2.474-1.96" fill="url(#s)" transform="matrix(3.6763 0 0 -3.6763 -1534.947 2798.655)"/><path d="M496.21 745.438c-3.203-1.203-6.17-2.7-9.1-4.035-2.933-1.34-5.83-2.537-8.716-3.25-2.886-.718-5.735-.924-8.464-.514-1.338.192-2.65.53-3.928.986-.43-.778-.93-1.526-1.506-2.234-.01-.014-.02-.025-.033-.04 1.7-.574 3.457-.974 5.256-1.14 3.08-.303 6.214.09 9.243.994 3.033.9 5.956 2.258 8.842 3.734 2.905 1.47 5.784 3.07 8.846 4.36 3.042 1.278 6.362 2.224 9.73 1.994 3.374-.2 6.53-1.636 9.156-3.602 2.32-1.718 4.318-3.793 6.144-6 .262-.314.52-.632.772-.954-1.923 2.643-4.058 5.168-6.662 7.273-2.586 2.1-5.787 3.738-9.33 4.09-.58.065-1.163.094-1.744.094-2.948 0-5.852-.77-8.507-1.756m-35.103-5.568c-.26-.59-.596-1.132-.993-1.62.006 0 .007-.007.013-.007.25.293.482.602.687.923.306.477.567.998.787 1.545-.05.027-.1.058-.147.086-.096-.314-.208-.624-.346-.926m-.838-.42c-.167-.338-.358-.664-.578-.97v-.002c.22.308.416.634.58.975l-.003-.003" fill="url(#t)" transform="matrix(3.6763 0 0 -3.6763 -1534.947 2798.655)"/><path d="M459.47 746.953c-.016.034-.03.066-.042.096l.04-.097m.088-.237c-.02.046-.034.093-.054.142.02-.05.033-.096.054-.142m-17.054-5.064c-.087-.78-.087-1.58-.002-2.374.176-1.663.707-3.305 1.496-4.756 1.186-2.166 3.014-3.955 5.163-5.095 2.148-1.15 4.613-1.64 7.014-1.42l-.17 2.452c-1.926-.292-3.957-.015-5.793.84-1.844.854-3.47 2.28-4.577 4.07-.225.357-.43.737-.613 1.13-.6.91-1.045 1.902-1.316 2.936-.405.863-.676 1.806-.782 2.804-.042.402-.054.804-.044 1.195-.18-.58-.304-1.178-.376-1.783m16.822-3.483c-.68-.776-1.48-1.443-2.36-1.965.146.067.29.14.425.217.907.508 1.704 1.214 2.302 2.057.22.306.41.632.577.97-.28-.454-.595-.883-.946-1.28m-3.15-10.163v-.01.01z" fill="url(#u)" transform="matrix(3.6763 0 0 -3.6763 -1534.947 2798.655)"/><path d="M445.024 748.977c-2.142-1.774-3.624-4.363-4.047-7.16-.157-1.077-.17-2.157-.056-3.22.03-.275.064-.55.11-.82.058-.15.123-.3.19-.447l-.1-.035c.257-1.267.686-2.495 1.263-3.662 1.267-2.516 3.282-4.66 5.74-6.086 2.457-1.443 5.36-2.14 8.222-1.99l.004-.01-.175 2.45v.01c-2.4-.22-4.867.27-7.016 1.42-2.15 1.14-3.978 2.93-5.164 5.095-.79 1.45-1.32 3.093-1.496 4.756-.085.793-.085 1.594.002 2.374.072.605.197 1.202.376 1.783.072 2.224.986 4.272 2.464 5.794-.108-.084-.213-.17-.318-.253" fill="url(#v)" transform="matrix(3.6763 0 0 -3.6763 -1534.947 2798.655)"/><g transform="matrix(3.6763 0 0 -3.6763 -1534.947 2798.655)" clip-path="url(#w)"><path d="M460.27 739.453c-.162-.342-.357-.667-.578-.976-.596-.84-1.392-1.547-2.3-2.055-.14-.076-.286-.15-.43-.218-.14-.086-.28-.165-.425-.238-.025-.02-.053-.038-.078-.053 1.932.636 3.6 2.138 4.367 4.077.225.55.373 1.118.452 1.7-.242-.79-.584-1.542-1.01-2.237" fill="#e67034"/></g><path d="M448.433 751.907c-1.993-.45-3.996-1.696-5.38-3.242-1.417-1.564-2.33-3.524-2.638-5.53-.134-.884-.152-1.766-.06-2.632.097-.94.327-1.86.674-2.727-.046.27-.08.546-.11.822-.113 1.062-.1 2.142.057 3.22.423 2.796 1.905 5.385 4.047 7.16.105.083.21.168.318.25 1.37 1.415 3.23 2.375 5.344 2.598.588.064 1.167.065 1.733.01-.716.176-1.448.266-2.173.266-.614 0-1.224-.065-1.814-.195m12.846-10.216c-.08-.58-.227-1.15-.453-1.7-.77-1.94-2.435-3.44-4.368-4.077-.067-.043-.13-.086-.192-.127.47.12 1.035.212 1.477.43.94.46 1.69 1.203 2.37 2.034.396.488.733 1.03.992 1.62.138.302.25.612.346.926.3 1.01.38 2.074.267 3.128-.004.037-.01.074-.012.11-.05-.796-.196-1.587-.43-2.343m-21.788-4.996c.25-1.33.67-2.628 1.238-3.884 1.333-2.897 3.55-5.412 6.328-7.145 2.77-1.737 6.116-2.654 9.465-2.568l-.17 2.45-.005.01c-2.863-.15-5.765.547-8.22 1.99-2.46 1.426-4.475 3.57-5.742 6.086-.577 1.167-1.006 2.395-1.264 3.662l-1.63-.6z" fill="url(#x)" transform="matrix(3.6763 0 0 -3.6763 -1534.947 2798.655)"/><path d="M455.722 754.67c.136-.08.27-.166.403-.252 1.646-.71 3.122-1.87 4.216-3.38 1.08-1.482 1.778-3.284 1.977-5.174.02-.203.036-.406.045-.612.074-1.498-.19-3.114-.76-4.54-.22-.548-.482-1.07-.788-1.546-.205-.32-.437-.63-.687-.923-.675-.787-1.503-1.462-2.437-1.978-.615-.342-1.274-.614-1.965-.802-.008 0-.016-.004-.025-.006-.962-.515-2.04-.858-3.192-.978-.625-.066-1.244-.065-1.845 0 1.713-.532 3.57-.613 5.305-.215 2.436.535 4.64 1.98 6.07 3.976 1.42 1.99 2.148 4.517 2.165 6.964 0 .463-.022.927-.07 1.388-.206 1.985-.886 3.91-1.964 5.57-1.322 2.053-3.234 3.68-5.442 4.647l-1.006-2.14z" fill="url(#y)" transform="matrix(3.6763 0 0 -3.6763 -1534.947 2798.655)"/><path d="M456.722 756.81h.006c2.208-.97 4.12-2.595 5.44-4.648 1.08-1.66 1.76-3.585 1.966-5.57.047-.46.07-.925.07-1.388-.018-2.447-.747-4.973-2.165-6.963-1.43-1.996-3.636-3.44-6.072-3.975-1.736-.398-3.592-.317-5.305.214-1.685.178-3.24.843-4.514 1.858.598-.707 1.31-1.328 2.108-1.825 2.363-1.45 5.267-1.962 8.02-1.442 2.736.508 5.286 2.05 7.02 4.286 1.725 2.266 2.61 5.022 2.745 7.834.03.706.01 1.41-.064 2.118-.224 2.1-.902 4.164-1.99 5.996-1.445 2.45-3.643 4.47-6.224 5.73l-1.044-2.223z" fill="url(#z)" transform="matrix(3.6763 0 0 -3.6763 -1534.947 2798.655)"/><path d="M457.762 759.036s.004 0 .004-.002c2.58-1.26 4.78-3.28 6.225-5.73 1.088-1.832 1.766-3.896 1.99-5.996.073-.707.094-1.412.063-2.118-.135-2.812-1.02-5.568-2.745-7.834-1.734-2.237-4.284-3.778-7.02-4.285-2.753-.52-5.657-.008-8.02 1.443-.798.497-1.51 1.118-2.11 1.825-1.03.827-1.87 1.882-2.444 3.098.27-1.034.717-2.027 1.316-2.937.71-1.072 1.623-2.017 2.715-2.75 2.52-1.678 5.654-2.37 8.724-1.902.875.13 1.742.355 2.58.67 1.14.426 2.226 1.017 3.215 1.752.81.6 1.553 1.3 2.208 2.08l.033.042c.577.708 1.076 1.456 1.506 2.234 1.09 1.993 1.7 4.193 1.892 6.488.07.973.056 1.957-.046 2.932-.233 2.214-.914 4.396-2.012 6.378-1.575 2.87-4.056 5.296-7.03 6.848l-1.044-2.236z" fill="url(#A)" transform="matrix(3.6763 0 0 -3.6763 -1534.947 2798.655)"/><path d="M448.213 753.42c-2.407-.412-4.703-1.703-6.434-3.428-1.75-1.738-2.96-3.983-3.457-6.37-.268-1.28-.333-2.593-.197-3.882.116-1.116.384-2.213.788-3.255l-.01-.004.586.214 1.63.6-.167-.05c-.067.144.135.383.076.532-.348.866-.578 1.788-.676 2.727-.09.866-.073 1.748.06 2.63.308 2.008 1.222 3.968 2.64 5.532 1.383 1.546 3.386 2.793 5.38 3.242 1.285.285 2.663.256 3.985-.072 3.15-.295 5.88-2.293 7.144-5.145l-.008.026c-.02.046-.034.093-.054.142-.012.03-.02.064-.033.095-.016.034-.03.066-.042.096-.02.047-.037.096-.055.144-.008.014-.012.03-.018.042-.816 1.946-2.25 3.635-4.023 4.736-1.642 1.035-3.565 1.584-5.478 1.584-.55 0-1.1-.045-1.64-.137" fill="url(#B)" transform="matrix(3.6763 0 0 -3.6763 -1534.947 2798.655)"/><path d="M447.945 754.932c-2.816-.395-5.39-1.725-7.462-3.632-2.073-1.91-3.565-4.453-4.258-7.21-.42-1.66-.537-3.4-.356-5.12.12-1.13.366-2.253.743-3.33l-.012-.006h.003l2.3.847.01.005c-.403 1.042-.67 2.14-.787 3.255-.136 1.29-.07 2.602.197 3.88.498 2.39 1.708 4.634 3.456 6.372 1.73 1.725 4.026 3.016 6.433 3.427 2.425.413 5.004-.115 7.12-1.448 1.772-1.1 3.206-2.79 4.022-4.736.006-.013.01-.028.018-.042l.055-.145.04-.097c.014-.03.022-.064.034-.095.02-.05.033-.096.054-.142l.008-.026c.36-.81.605-1.694.7-2.628.172-1.63-.118-3.208-.765-4.595 1.056 1.697 1.538 3.763 1.323 5.776-.037.376-.105.757-.192 1.124-.653 2.694-2.364 5.104-4.68 6.67-1.895 1.288-4.194 1.993-6.513 1.994-.498 0-.996-.033-1.492-.098" fill="url(#C)" transform="matrix(3.6763 0 0 -3.6763 -1534.947 2798.655)"/><path d="M447.77 756.47c-3.238-.355-6.11-1.733-8.545-3.814-2.407-2.086-4.213-4.91-5.092-8.063-.59-2.053-.772-4.25-.546-6.412.123-1.147.358-2.29.712-3.395l2.3.85.013.006c-.377 1.077-.623 2.2-.744 3.33-.182 1.72-.064 3.46.355 5.12.693 2.757 2.185 5.3 4.258 7.21 2.072 1.907 4.646 3.237 7.462 3.632 2.806.374 5.703-.33 8.005-1.895 2.316-1.566 4.027-3.976 4.68-6.67.088-.367.156-.748.193-1.124.215-2.013-.267-4.08-1.324-5.776-.658-1.408-1.683-2.62-2.963-3.5.145.072.287.15.424.237h.004c.88.523 1.68 1.19 2.36 1.965.35.397.667.826.945 1.28v.003c.427.694.768 1.45 1.01 2.238.232.757.377 1.548.428 2.344.03.54.022 1.09-.037 1.63-.028.295-.073.59-.132.88-.614 2.97-2.353 5.66-4.856 7.49-.183.134-.37.26-.557.384-.132.086-.267.17-.403.252-1.986 1.192-4.332 1.858-6.722 1.858-.41 0-.82-.02-1.23-.06" fill="url(#D)" transform="matrix(3.6763 0 0 -3.6763 -1534.947 2798.655)"/><path d="M459.573 746.662c.022-.06.043-.123.064-.186-.02.063-.042.125-.064.186zm.197-.638c-.006.025-.012.05-.02.074-.035.125-.07.25-.113.37.048-.148.094-.296.133-.444m.026-.095c-.006.026-.015.05-.022.082.007-.03.016-.056.022-.083" fill="url(#E)" transform="matrix(3.6763 0 0 -3.6763 -1534.947 2798.655)"/><path d="M456.39 735.89c.023.007.043.017.07.023.024.015.052.034.077.053-.048-.024-.098-.053-.146-.077" fill="url(#F)" transform="matrix(3.6763 0 0 -3.6763 -1534.947 2798.655)"/><g transform="matrix(3.6763 0 0 -3.6763 -1534.947 2798.655)" clip-path="url(#G)"><path d="M455.7 735.457c-.315-.09-.642-.16-.973-.212-.703-.276-1.454-.467-2.243-.55-1.01-.106-2.004-.03-2.942.207.366-.164.738-.305 1.12-.423.603-.065 1.22-.067 1.847 0 1.15.12 2.23.462 3.19.977" fill="#e67034"/><path d="M450.663 734.48c-.383.117-.755.258-1.12.422-1.573.39-2.988 1.226-4.09 2.376.212-.328.443-.64.696-.94 1.27-1.015 2.828-1.68 4.513-1.86M443.704 739.436c-.107.404-.187.817-.24 1.224-.156.516-.267 1.05-.324 1.603-.068.667-.06 1.323.02 1.962-.103-.26-.197-.523-.28-.79-.01-.392 0-.793.043-1.195.105-.998.377-1.94.78-2.804" fill="#e67034"/><path d="M446.937 750.265c-.557-.3-1.092-.647-1.595-1.036-1.478-1.523-2.392-3.57-2.464-5.795.084.267.178.53.28.79.317 2.49 1.728 4.694 3.78 6.04m6.903 1.086c-.18.08-.358.153-.543.22-.186.02-.375.036-.56.045-.138.006-.276.007-.412.008.518-.044 1.026-.135 1.516-.272" fill="#e67034"/><path d="M453.297 751.57c-.29.105-.58.192-.878.265-.567.056-1.146.055-1.735-.01-2.114-.222-3.974-1.182-5.343-2.596.503.39 1.038.735 1.595 1.035 1.097.722 2.378 1.197 3.77 1.344.547.057 1.09.06 1.618.013.136 0 .275-.002.41-.007.187-.01.376-.024.562-.045M446.15 736.338c-.254.3-.485.612-.696.94-.903.94-1.594 2.092-1.99 3.383.053-.407.133-.82.24-1.224.573-1.215 1.416-2.27 2.445-3.098" fill="#e67034"/><path d="M459.99 744.835c-.04.37-.103.732-.194 1.094-.006.027-.015.052-.022.083 0 .002 0 .01-.003.012-.04.148-.085.296-.133.442v.01c-.02.062-.042.125-.064.186-.002.01-.007.02-.01.028-1.262 2.85-3.994 4.85-7.144 5.144.296-.072.587-.16.877-.263.185-.067.363-.14.544-.22 3.217-.88 5.74-3.62 6.19-7.108-.007.197-.02.393-.04.592" fill="#e67034"/><path d="M460.264 744.062c-.095.933-.34 1.816-.7 2.63.002-.01.007-.02.01-.03.02-.06.04-.123.063-.186v-.01c.042-.12.078-.243.114-.368.008-.023.014-.05.02-.073.004-.004.004-.01.004-.013.007-.03.016-.056.022-.083.09-.363.154-.727.193-1.096.02-.198.033-.395.04-.592l.023-.2c.235-2.234-.423-4.36-1.684-6.023.17.176.33.36.485.55.234.285.448.585.644.896.645 1.387.937 2.965.764 4.596" fill="#e67034"/><path d="M459.5 739.467c-.196-.312-.41-.61-.644-.896-.155-.188-.317-.373-.487-.55-.762-1.007-4.58-3.153-3.59-2.754-.448-.123.65-.127 1.076.068.1.046.434.408.535.46l.077-.01c.05.023.19.023.243.048 1.278.882 2.132 2.228 2.79 3.635M445.223 747.455c-.885-.943-1.587-2.045-2.065-3.23-.08-.64-.087-1.295-.02-1.962.058-.554.17-1.087.325-1.603-.005.063-.012.125-.02.19-.013.137-.025.273-.034.41-.135 2.212.485 4.482 1.813 6.195m7.385 2.52c-.01 0-.02 0-.03.003.01-.002.02-.002.03-.002m.813-.216c-2.222.536-4.624-.117-6.176-1.617-.59-.552-1.05-1.205-1.39-1.912.25.324.522.63.82.92 1.546 1.547 3.777 2.54 6.036 2.622.236.007.473.004.71-.012m.185-.013c-.31.097-.63.17-.954.22.324-.05.64-.123.955-.22m4.28-1.853c-.472.734-1.046 1.404-1.696 1.972-1.08.52-2.258.81-3.442.824-1.207.01-2.415-.207-3.55-.623 1.555.397 3.213.278 4.632-.346 1.463-.178 2.898-.817 4.055-1.826" fill="#e67034"/><path d="M456.19 749.866c-.476.42-.994.786-1.536 1.083-.265.15-.537.282-.813.4-.49.138-.996.228-1.514.273-1.872.008-3.732-.47-5.388-1.358-2.05-1.345-3.462-3.55-3.78-6.04.48 1.186 1.18 2.287 2.066 3.23.41.525.886.997 1.428 1.398.768.584 1.64.987 2.546 1.215 1.135.416 2.344.634 3.55.623 1.185-.014 2.364-.303 3.442-.823" fill="#e67034"/><path d="M452.326 751.623c-.53.047-1.07.043-1.618-.015-1.393-.146-2.674-.62-3.77-1.343 1.655.89 3.516 1.366 5.388 1.358M454.426 749.793c-.25.113-.562-.13-.82-.047-.315.097-.63.17-.954.22-.015.003-.03.005-.043.01-.012 0-.02 0-.03.002-1.972.287-4.053-.294-5.53-1.6-1.678-1.43-2.488-3.647-2.495-5.81V742.457c.004-.268.02-.537.048-.8.007-.068.013-.133.023-.2.05-.394.13-.78.235-1.164v-.003c.01-.03.02-.057.027-.086.005-.02.015-.04.02-.064l.007-.027c.613-2.002 1.985-3.757 3.785-4.785.272-.16.552-.3.842-.426.937-.237 1.93-.313 2.942-.208.79.084 1.54.275 2.242.55-.017 0-.036-.004-.052-.005-.976-.256-1.99-.332-2.993-.185-2.332.308-4.357 1.795-5.398 3.747-.506.804-.865 1.714-1.035 2.675-.036.192-.063.385-.083.58-.147 1.396.07 2.878.69 4.173.34.707.8 1.36 1.39 1.912 1.552 1.5 3.955 2.154 6.178 1.618.32-.077.69.16 1.004.033" fill="#e67034"/><path d="M454.426 749.793c-.21.106-.475-.143-.69-.06-1.02.386-2.138.513-3.232.39-1.326-.147-2.618-.658-3.667-1.52-2.137-1.705-3.076-4.605-2.808-7.3.003-.027.003-.052.005-.076.146-1.4.647-2.76 1.42-3.95 1.1-1.148 2.515-1.985 4.087-2.375-.29.126-.57.267-.843.426-1.8 1.028-3.173 2.783-3.786 4.785l-.008.027c-.004.023-.014.043-.02.064-.006.03-.015.057-.025.086v.003c-.1.362-.177.734-.228 1.11l-.03.242c-.028.266-.043.54-.047.812V742.568c.007 2.163.817 4.38 2.494 5.81 1.477 1.306 3.558 1.887 5.53 1.6.01-.002.018-.002.03-.002.012-.005.027-.007.042-.01.323-.05.642-.123.954-.22.26-.083.57.16.82.047" fill="#e67034"/></g><path d="M453.764 735.84h.002-.002zm-.12-.028c.004 0 .008.002.016.005l-.015-.005m-.12-.026c.004 0 .016.004.02.006-.004-.002-.016-.006-.02-.006m-.12-.025c.01.004.022.005.03.01-.008-.005-.02-.006-.03-.01m-.124-.022c.018.006.033.01.048.012-.015-.003-.03-.006-.047-.012m-.122-.017l.064.01-.064-.01m-.123-.015l.076.01-.075-.01m-.125-.016c.033.002.067.006.096.01-.03-.004-.063-.008-.096-.01" fill="url(#H)" transform="matrix(3.6763 0 0 -3.6763 -1534.947 2798.655)"/><g transform="matrix(3.6763 0 0 -3.6763 -1534.947 2798.655)" clip-path="url(#I)"><path d="M454.483 749.965c-.176.1-.465-.322-.652-.243-1.42.623-3.077.742-4.632.346-.908-.23-1.78-.63-2.546-1.214-.542-.4-1.02-.873-1.43-1.4-1.327-1.712-1.946-3.982-1.813-6.192.008-.14.02-.274.035-.412l.02-.19c.394-1.29 1.086-2.442 1.988-3.382-.772 1.19-1.272 2.55-1.418 3.95-.003.023-.003.05-.007.075-.267 2.696.672 5.596 2.81 7.302 1.048.86 2.34 1.37 3.666 1.52 1.094.122 2.21-.006 3.232-.392.215-.082.48.167.69.06" fill="#e67034"/><path d="M460.03 744.243c-.45 3.488-2.973 6.227-6.19 7.11.276-.12.548-.254.813-.403.543-.297 1.06-.664 1.537-1.083.65-.57 1.223-1.24 1.695-1.973.404-.628.732-1.307.97-2.015.156-.477.26-.97.315-1.474.07-.68.047-1.378-.07-2.067-.172-1.003-.542-1.984-1.112-2.862-.04-.058-.078-.117-.118-.177-.527-.766-1.212-1.465-2-2.02-1.093-.765-2.384-1.263-3.735-1.306-.123-.005-.25-.005-.376 0-2.476.032-5.205 1.6-6.246 4.048.94-2.47 3.615-4.198 6.194-4.355.314-.023.626-.023.938-.002.084.005.17.013.255.023h.01c.033.005.068.008.096.01.012.007.02.007.03.007l.075.01.048.006.064.012.06.006c.015.006.03.01.046.012.028.004.05.01.076.01.01.005.023.006.033.01l.09.016.02.006c.03.005.066.013.098.02l.015.005c.035.006.07.012.103.022h.003c1.827.44 3.472 1.604 4.588 3.08 1.16 1.524 1.735 3.438 1.675 5.323" fill="#e67034"/><path d="M460.053 744.043c-.008.066-.015.135-.024.2.06-1.885-.517-3.8-1.676-5.323-1.116-1.476-2.76-2.64-4.588-3.08h-.003c-.034-.01-.068-.017-.103-.023-.007-.003-.012-.004-.015-.004-.032-.008-.067-.016-.1-.02-.004-.003-.016-.007-.02-.007-.03-.005-.06-.01-.088-.017-.01-.004-.022-.005-.033-.01-.025 0-.048-.006-.076-.01-.015-.003-.03-.006-.047-.012-.016 0-.037-.004-.058-.006-.022-.005-.04-.01-.064-.01-.016-.004-.027-.004-.047-.006-.023-.004-.05-.008-.075-.01-.008 0-.017 0-.03-.008-.027-.002-.062-.005-.096-.01h-.01c-.08-.01-.17-.018-.254-.023-.302-.02-.61-.024-.914 0-2.587.148-5.182 1.893-6.118 4.374.84-2.52 3.405-4.423 6.107-4.68 2.472-.268 4.94.867 6.65 2.66 1.26 1.662 1.918 3.79 1.683 6.023" fill="#e67034"/><path d="M458.37 738.02c-1.71-1.793-4.18-2.93-6.65-2.66-2.7.257-5.268 2.16-6.106 4.68.125-.437.452-.84.667-1.238 1.043-1.952 3.068-3.44 5.4-3.747 1.005-.147 2.018-.07 2.994.184.035.005.067.018.105.025 1.44.582 2.672 1.547 3.59 2.754" fill="#e67034"/></g></svg>