<svg xmlns="http://www.w3.org/2000/svg" width="400" height="310.198"><defs><clipPath id="a"><path d="M82.383 265.108c-7.06-6.98-10.905-16.72-10.93-27.28v-.203c.017-7.136 1.777-14.64 5.466-21.918 11.836-23.35 39.056-35.514 60.793-27.168 4.863 1.866 9.04 4.6 12.462 7.984l3.683 3.64c-3.422-3.383-7.6-6.118-12.463-7.985-21.737-8.345-48.956 3.82-60.794 27.168-9.188 18.125-6.407 37.663 5.467 49.4l-3.684-3.64z"/></clipPath><clipPath id="b"><path d="M71.454 268.75h82.404v-82.842H71.454v82.84z"/></clipPath><clipPath id="c"><path d="M71.454 185.908h82.404v82.84H71.454v-82.84z"/></clipPath><clipPath id="d"><path d="M96.975 279.795c-5.198-1.995-9.664-4.92-13.327-8.542l-3.682-3.64c3.662 3.62 8.13 6.547 13.326 8.542 23.28 8.936 52.523-4.138 65.198-29.137 9.844-19.422 6.845-40.405-5.89-52.997l3.68 3.64c7.554 7.47 11.683 17.887 11.74 29.182v.472c-.04 7.61-1.923 15.602-5.848 23.344-9.968 19.663-30.188 31.95-49.694 31.95-5.293 0-10.534-.906-15.503-2.813"/></clipPath><clipPath id="e"><path d="M79.966 282.607h88.054V194.02H79.966v88.587z"/></clipPath><clipPath id="f"><path d="M79.966 194.02h88.054v88.587H79.966V194.02z"/></clipPath><clipPath id="g"><path d="M77.857 269.743c-8.02-7.928-12.39-19.002-12.422-31v-.268c.023-8.083 2.014-16.577 6.184-24.803 10.532-20.777 31.886-33.77 52.496-33.808h.172c5.57.01 11.084.967 16.313 2.974 5.5 2.11 10.226 5.207 14.102 9.038l3.682 3.64c-3.876-3.83-8.6-6.927-14.1-9.038-24.626-9.453-55.573 4.383-68.983 30.834-10.413 20.544-7.236 42.75 6.24 56.072l-3.683-3.64z"/></clipPath><clipPath id="h"><path d="M65.435 273.384h92.95v-93.52h-92.95v93.52z"/></clipPath><clipPath id="i"><path d="M65.435 179.864h92.948v93.52H65.435v-93.52z"/></clipPath><clipPath id="j"><path d="M90.62 292.33c-6.636-2.547-12.34-6.283-17.014-10.906l-3.682-3.64c4.674 4.622 10.378 8.357 17.013 10.906 29.712 11.405 67.044-5.28 83.222-37.193 12.564-24.785 8.73-51.578-7.526-67.652l3.68 3.64c16.26 16.075 20.092 42.867 7.527 67.653-12.724 25.1-38.536 40.78-63.434 40.78-6.756 0-13.445-1.154-19.787-3.588"/></clipPath><clipPath id="k"><path d="M69.924 295.92h111.38V183.844H69.924V295.92z"/></clipPath><clipPath id="l"><path d="M69.923 183.845h111.38V295.92H69.923V183.844z"/></clipPath><clipPath id="m"><path d="M67.82 279.917c-16.996-16.803-21.007-44.81-7.87-70.726 13.288-26.21 40.223-42.595 66.22-42.638h.204c7.027.01 13.985 1.22 20.582 3.75 6.938 2.664 12.9 6.57 17.787 11.403l3.683 3.64c-4.89-4.833-10.85-8.74-17.79-11.402-31.055-11.92-70.09 5.524-87.003 38.89-13.138 25.913-9.127 53.922 7.868 70.725l-3.68-3.64z"/></clipPath><clipPath id="n"><path d="M52.15 283.558h116.276V166.552H52.15v117.006z"/></clipPath><clipPath id="o"><path d="M52.15 166.552h116.276v117.006H52.15V166.552z"/></clipPath><clipPath id="p"><path d="M160.878 267.72c-.277-.003-.56-.027-.844-.072-.063-.01-.126-.02-.19-.033-.79-.15-1.47-.423-2.043-.82l-7.82-5.45c.573.397 1.253.672 2.044.822l.19.033c1.6.253 3.095-.16 4.48-1.237 1.437-1.127 2.548-3.072 3.33-5.845.838-2.988.916-5.24.234-6.773l7.82 5.45c.298.67.45 1.48.46 2.427v.146c-.01 1.187-.24 2.586-.693 4.198-.783 2.773-1.894 4.718-3.33 5.846-1.106.858-2.282 1.296-3.525 1.308h-.112z"/></clipPath><clipPath id="q"><path d="M149.982 267.72h18.555v-19.375h-18.555v19.375z"/></clipPath><clipPath id="r"><path d="M149.982 248.345h18.555v19.375h-18.555v-19.375z"/></clipPath><clipPath id="s"><path d="M168.08 253.794l-7.822-5.45c-.38-.84-.912-1.5-1.595-1.977l7.82 5.448c.683.477 1.215 1.136 1.596 1.98z"/></clipPath><clipPath id="t"><path d="M158.663 253.794h9.416v-7.427h-9.417v7.427z"/></clipPath><clipPath id="u"><path d="M158.663 246.367h9.416v7.427h-9.417v-7.427z"/></clipPath><clipPath id="v"><path d="M146.995 265.197c-1.173-.818-2.103-1.925-2.786-3.315-.688-1.39-1.033-2.98-1.037-4.774v-.073c.004-1.595.276-3.348.814-5.26 1.117-3.985 2.97-6.91 5.542-8.775 1.942-1.41 4.03-2.12 6.258-2.134h.136c.565.004 1.14.052 1.722.144.115.018.23.038.346.06 1.42.267 2.653.764 3.695 1.49l7.82 5.448c-1.042-.726-2.274-1.223-3.695-1.49l-.347-.06c-2.937-.466-5.643.196-8.117 1.99-2.57 1.866-4.424 4.79-5.54 8.776-1.154 4.095-1.084 7.467.22 10.107.684 1.392 1.613 2.497 2.787 3.316l-7.82-5.45z"/></clipPath><clipPath id="w"><path d="M143.173 270.646h26.334v-29.78h-26.334v29.78z"/></clipPath><clipPath id="x"><path d="M143.173 240.866h26.334v29.78h-26.334v-29.78z"/></clipPath><clipPath id="y"><path d="M131.298 266.347l-7.82-5.448c-.39-2.354-1.45-4.902-3.193-7.647-1.75-2.755-3.992-5.23-6.736-7.448l7.82 5.448c2.742 2.217 4.985 4.694 6.734 7.45 1.743 2.744 2.806 5.292 3.194 7.644z"/></clipPath><clipPath id="z"><path d="M113.55 266.347h17.75v-20.542h-17.75v20.542z"/></clipPath><clipPath id="A"><path d="M113.55 245.805h17.75v20.542h-17.75v-20.542z"/></clipPath><clipPath id="B"><path d="M123.548 245.656c-.17-.118-.337-.232-.504-.34l-7.82-5.45c.167.11.336.223.504.342l7.82 5.448z"/></clipPath><clipPath id="C"><path d="M115.225 245.656h8.324v-5.79h-8.325v5.79z"/></clipPath><clipPath id="D"><path d="M115.225 239.867h8.324v5.79h-8.325v-5.79z"/></clipPath><clipPath id="E"><path d="M100.533 236.695c-.55-.005-1.11-.053-1.68-.144-.12-.018-.242-.04-.363-.062-1.366-.256-2.564-.74-3.592-1.457l-7.82-5.447c1.028.716 2.225 1.2 3.592 1.457.122.023.243.044.365.063 2.814.446 5.38-.14 7.68-1.748 2.4-1.688 4.093-4.28 5.07-7.78 1.042-3.695.922-6.833-.356-9.416-.7-1.423-1.625-2.535-2.77-3.333l7.82 5.45c1.145.797 2.07 1.907 2.77 3.33.686 1.388 1.038 2.937 1.056 4.645v.266c-.014 1.397-.248 2.898-.7 4.505-.978 3.5-2.672 6.093-5.072 7.78-1.77 1.24-3.698 1.87-5.776 1.892h-.225z"/></clipPath><clipPath id="F"><path d="M87.078 236.696h25.228v-27.87H87.078v27.87z"/></clipPath><clipPath id="G"><path d="M87.078 208.827h25.227v27.87H87.078v-27.87z"/></clipPath><clipPath id="H"><path d="M93.503 240.115l-7.82-5.45c-1.047-.728-2.02-1.63-2.922-2.703l7.82 5.45c.9 1.072 1.875 1.973 2.923 2.703z"/></clipPath><clipPath id="I"><path d="M82.76 240.115h10.743v-8.153H82.76v8.153z"/></clipPath><clipPath id="J"><path d="M82.76 231.962h10.742v8.153h-10.74v-8.153z"/></clipPath><clipPath id="K"><path d="M87.755 219.048l-7.82-5.45c1.564-4.137 4.04-7.23 7.432-9.277 3.234-1.952 6.857-2.61 10.854-1.978.193.03.388.064.583.1 2.278.428 4.232 1.21 5.863 2.347l7.82 5.448c-1.63-1.137-3.585-1.92-5.863-2.347-.195-.036-.39-.07-.582-.1-3.996-.633-7.62.026-10.853 1.98-3.39 2.047-5.868 5.14-7.432 9.278z"/></clipPath><clipPath id="L"><path d="M79.936 219.048h32.55v-16.94h-32.55v16.94z"/></clipPath><clipPath id="M"><path d="M79.935 202.11h32.55v16.938h-32.55v-16.94z"/></clipPath></defs><path d="M106.764 50.592c50.04-19.208 112.698 8.794 139.947 62.544 27.25 53.75 8.774 112.896-41.265 132.104-50.042 19.21-112.698-8.794-139.95-62.544-27.25-53.75-8.772-112.896 41.27-132.104" fill="#ffeb00"/><g clip-path="url(#a)" transform="matrix(2.3 0 0 -2.3 -120 687.6)"><g clip-path="url(#c)"><path d="M153.857 200.164l-3.682-3.64c-3.422-3.384-7.6-6.12-12.462-7.986-21.738-8.344-48.956 3.82-60.794 27.17-9.19 18.124-6.41 37.662 5.464 49.4l3.682 3.64c-11.873-11.737-14.653-31.275-5.464-49.4 11.837-23.35 39.055-35.513 60.793-27.17 4.863 1.868 9.04 4.603 12.462 7.986" fill="#a19400"/></g></g><g clip-path="url(#d)" transform="matrix(2.3 0 0 -2.3 -120 687.6)"><g clip-path="url(#f)"><path d="M156.28 197.66l-3.682-3.64c12.736 12.593 15.737 33.577 5.89 52.998-12.672 24.998-41.915 38.073-65.196 29.137-5.197-1.995-9.664-4.922-13.326-8.543l3.682 3.64c3.662 3.622 8.13 6.548 13.326 8.543 23.28 8.937 52.524-4.138 65.197-29.137 9.847-19.42 6.846-40.405-5.89-52.997" fill="#a19400"/></g></g><g clip-path="url(#g)" transform="matrix(2.3 0 0 -2.3 -120 687.6)"><g clip-path="url(#i)"><path d="M158.383 195.517l-3.682-3.64c-3.874-3.832-8.6-6.928-14.1-9.04-24.625-9.452-55.57 4.384-68.98 30.835-10.415 20.543-7.238 42.75 6.237 56.072l3.683 3.64c-13.476-13.322-16.653-35.528-6.238-56.072 13.41-26.45 44.355-40.286 68.98-30.834 5.5 2.11 10.226 5.208 14.1 9.04" fill="#a19400"/></g></g><path d="M209.016 252.295c53.593-20.573 73.44-84.11 44.256-141.675-29.174-57.546-96.492-87.645-150.085-67.074C49.61 64.112 29.755 127.673 58.93 185.22c29.183 57.568 96.508 87.642 150.086 67.075m-108.898-214.8c56.69-21.76 127.935 10.065 158.805 70.956 30.87 60.892 9.858 128.155-46.83 149.913-56.69 21.76-127.928-10.087-158.795-70.98-30.87-60.89-9.867-128.126 46.82-149.887" fill="#ffeb00"/><g clip-path="url(#j)" transform="matrix(2.3 0 0 -2.3 -120 687.6)"><g clip-path="url(#l)"><path d="M166.315 187.486l-3.682-3.64c16.258 16.074 20.092 42.866 7.526 67.652-16.18 31.913-53.512 48.597-83.223 37.192-6.636-2.547-12.338-6.283-17.014-10.906l3.682 3.64c4.676 4.623 10.38 8.36 17.014 10.906 29.71 11.404 67.042-5.278 83.22-37.192 12.567-24.787 8.733-51.58-7.525-67.653" fill="#a19400"/></g></g><g clip-path="url(#m)" transform="matrix(2.3 0 0 -2.3 -120 687.6)"><g clip-path="url(#o)"><path d="M168.425 185.345l-3.682-3.64c-4.887-4.833-10.85-8.74-17.787-11.402-31.056-11.922-70.09 5.523-87.005 38.89-13.137 25.912-9.126 53.92 7.87 70.724l3.682 3.64c-16.996-16.803-21.007-44.81-7.87-70.725 16.916-33.365 55.95-50.81 87.006-38.89 6.937 2.664 12.9 6.57 17.787 11.403" fill="#a19400"/></g></g><path d="M223.644 281.15c68.396-26.254 93.736-107.377 56.492-180.842-37.244-73.466-123.184-111.87-191.58-85.616-68.394 26.254-93.735 107.375-56.49 180.842 37.244 73.464 123.183 111.87 191.578 85.617M85.49 8.64C157-18.81 246.847 21.33 285.788 98.14c38.94 76.807 12.443 161.63-59.065 189.08-71.492 27.444-161.35-12.715-200.29-89.525C-12.506 120.885 14 36.082 85.492 8.64" fill="#ffeb00"/><g clip-path="url(#p)" transform="matrix(2.3 0 0 -2.3 -120 687.6)"><g clip-path="url(#r)"><path d="M168.078 253.794l-7.82-5.45c.68 1.535.605 3.787-.233 6.774-.783 2.773-1.894 4.718-3.33 5.846-1.385 1.075-2.88 1.49-4.48 1.236-.064-.01-.127-.02-.19-.033-.79-.15-1.473-.423-2.044-.822l7.82 5.45c.572.397 1.253.67 2.044.82l.19.034c1.6.252 3.095-.163 4.48-1.238 1.436-1.127 2.548-3.073 3.33-5.845.838-2.987.915-5.24.234-6.773" fill="#00658f"/></g></g><g clip-path="url(#s)" transform="matrix(2.3 0 0 -2.3 -120 687.6)"><g clip-path="url(#u)"><path d="M166.482 251.815l-7.82-5.45c.684.478 1.215 1.138 1.596 1.98l7.82 5.448c-.38-.842-.912-1.502-1.596-1.978" fill="#00658f"/></g></g><g clip-path="url(#v)" transform="matrix(2.3 0 0 -2.3 -120 687.6)"><g clip-path="url(#x)"><path d="M169.506 248.008l-7.82-5.45c-1.04-.724-2.273-1.22-3.693-1.488-.117-.022-.233-.042-.348-.06-2.936-.465-5.643.195-8.117 1.99-2.57 1.866-4.423 4.79-5.54 8.776-1.155 4.095-1.084 7.466.22 10.106.683 1.39 1.613 2.497 2.788 3.315l7.82 5.45c-1.175-.82-2.105-1.925-2.788-3.316-1.305-2.64-1.375-6.01-.22-10.106 1.116-3.985 2.97-6.91 5.54-8.775 2.474-1.796 5.18-2.457 8.117-1.992l.347.06c1.42.267 2.652.764 3.694 1.49" fill="#00658f"/></g></g><path d="M266.87 103.402c1.567-3.53 1.39-8.715-.537-15.59-1.802-6.383-4.362-10.862-7.665-13.457-3.19-2.474-6.63-3.43-10.316-2.847-.145.025-.29.05-.437.078-3.944.746-6.704 2.825-8.27 6.275-1.576 3.43-1.4 8.533.496 15.29 1.86 6.6 4.435 11.22 7.756 13.81 3.22 2.53 6.683 3.482 10.4 2.895.123-.02.245-.04.37-.065 3.885-.74 6.613-2.873 8.204-6.388m10.396-17.22c2.57 9.175 2.357 16.8-.666 22.88-3.002 6.078-7.988 9.782-14.944 11.088-.27.05-.537.096-.802.138-6.758 1.07-12.99-.45-18.685-4.58-5.92-4.297-10.185-11.028-12.757-20.202-2.656-9.43-2.493-17.19.51-23.266 2.983-6.075 8.006-9.784 15.057-11.105.26-.048.522-.095.782-.136 6.764-1.07 13 .508 18.707 4.74 5.924 4.398 10.19 11.212 12.796 20.443" fill="#009de1"/><g clip-path="url(#y)" transform="matrix(2.3 0 0 -2.3 -120 687.6)"><g clip-path="url(#A)"><path d="M121.37 251.253l-7.82-5.45c2.743 2.218 4.986 4.695 6.735 7.45 1.743 2.745 2.805 5.293 3.194 7.645l7.82 5.45c-.39-2.354-1.452-4.902-3.195-7.647-1.75-2.753-3.993-5.23-6.735-7.447" fill="#1e1c47"/></g></g><g clip-path="url(#B)" transform="matrix(2.3 0 0 -2.3 -120 687.6)"><g clip-path="url(#D)"><path d="M123.55 245.656l-7.82-5.45c-.17-.117-.34-.23-.505-.34l7.82 5.45c.166.108.334.222.504.34" fill="#1e1c47"/></g></g><path d="M141.345 121.792l3.853 13.67 18-12.542-3.854-13.67-18 12.542zM166.698 113.47l25.336 90.165 18.002-12.546-25.34-90.167L166.7 113.47z" fill="#1e1c46"/><path d="M190.674 72.916l32.528 115.7-13.165 2.474-25.34-90.165c-2.25 3.846-5.487 7.886-9.713 12.085-4.224 4.22-8.145 7.528-11.784 9.91l-3.854-13.67c6.312-5.103 11.478-10.805 15.504-17.147 4.013-6.32 6.455-12.184 7.35-17.6l8.474-1.587z" fill="#292961"/><path d="M223.202 188.616L205.2 201.16l-13.165 2.474 18-12.544 13.167-2.474z" fill="#1e1b45"/><path d="M128.277 101.04l-18.002 12.543-42.748 8.022 18-12.543 42.75-8.023z" fill="#00628b"/><g clip-path="url(#E)" transform="matrix(2.3 0 0 -2.3 -120 687.6)"><g clip-path="url(#G)"><path d="M108.48 214.276l-7.82-5.45c1.146.8 2.07 1.91 2.77 3.334 1.277 2.582 1.398 5.72.355 9.415-.977 3.5-2.67 6.092-5.07 7.78-2.3 1.61-4.865 2.194-7.68 1.748-.12-.02-.243-.04-.365-.063-1.366-.256-2.563-.74-3.59-1.457l7.818 5.45c1.03.715 2.226 1.2 3.592 1.455.122.024.243.045.365.064 2.814.445 5.38-.14 7.68-1.75 2.4-1.686 4.093-4.28 5.07-7.78 1.043-3.693.92-6.832-.356-9.414-.702-1.423-1.624-2.534-2.77-3.332" fill="#00658f"/></g></g><g clip-path="url(#H)" transform="matrix(2.3 0 0 -2.3 -120 687.6)"><g clip-path="url(#J)"><path d="M90.58 237.41l-7.82-5.45c.902 1.075 1.876 1.976 2.923 2.706l7.82 5.45c-1.047-.73-2.02-1.632-2.922-2.706" fill="#00658f"/></g></g><path d="M90.308 158.06l-18 12.545-12.842.596 18.002-12.54 12.84-.6z" fill="#00628b"/><path d="M53.214 110.063l6.252 61.14 18.002-12.547-6.252-61.14-18.002 12.547z" fill="#00638d"/><g clip-path="url(#K)" transform="matrix(2.3 0 0 -2.3 -120 687.6)"><g clip-path="url(#M)"><path d="M112.486 210.238l-7.82-5.45c-1.63-1.136-3.586-1.92-5.864-2.346-.194-.037-.388-.07-.58-.1-3.998-.634-7.62.025-10.856 1.978-3.39 2.05-5.867 5.142-7.43 9.28l7.82 5.448c1.562-4.138 4.04-7.23 7.43-9.278 3.235-1.954 6.857-2.613 10.855-1.98.193.03.387.065.582.1 2.278.43 4.232 1.21 5.864 2.348" fill="#00658f"/></g></g><path d="M124.477 87.504l3.8 13.536-42.748 8.023 2.94 32.053c5.06-6.034 11.13-9.703 18.196-11.027.364-.07.725-.132 1.087-.19 8.948-1.418 17.458.647 25.53 6.19 8.378 5.753 14.113 14.12 17.193 25.06 2.93 10.43 2.633 19.977-.877 28.638-4.255 10.626-12.315 17.053-24.202 19.284-.45.085-.896.16-1.34.232-9.2 1.457-17.54-.06-24.986-4.558-7.806-4.714-13.51-11.832-17.107-21.358l13.444-3.85c3.06 7.043 6.956 12.027 11.705 14.97 4.572 2.828 9.388 3.834 14.43 3.035.2-.032.397-.064.595-.1 6.338-1.19 10.972-4.776 13.907-10.74 2.94-5.944 3.22-13.17.82-21.674-2.25-8.058-6.147-14.027-11.674-17.91-5.293-3.707-11.2-5.05-17.677-4.027-.28.046-.56.095-.84.148-4.24.795-7.772 2.544-10.597 5.268-2.832 2.707-4.752 5.902-5.772 9.553l-12.84.597-6.253-61.137 53.262-10.016z" fill="#009de1"/><path d="M400 300.032c0 5.615-4.55 10.166-10.166 10.166H208.24c-5.613 0-10.164-4.55-10.164-10.166V226.12c0-5.616 4.55-10.167 10.165-10.167h181.594c5.615 0 10.166 4.55 10.166 10.166v73.912z" fill="#fff"/><path d="M224.572 302.432h-18.414V222.95h18.414v79.482z" fill="#009fe3"/><path d="M224.572 222.95h17.946l24.475 42.888v-42.89h16.782v79.483h-15.85l-24.707-42.654v42.655h-18.646v-79.48z" fill="#292a62"/><path d="M322.002 249.754v24.94c.5 10.78-7.69 9.79-7.69 9.79h-11.657v-43.59h8.624c11.98-.49 10.722 8.86 10.722 8.86m-4.894-26.805h-33.33v79.48h34.027c18.14.468 19.114-15.384 19.114-15.384v-47.548c-1.92-17.37-19.812-16.55-19.812-16.55M336.92 254.677v-31.734h51.48v17.935h-32.563v12.735h30.22v15.11h-29.794v15.785h33.2v17.933H336.92v-47.763z" fill="#009fe3"/><path d="M263.908 189.337l-3.81 10.334h7.635l-3.825-10.333m-1.586-2.768h3.185l7.914 20.765h-2.92l-1.89-5.327h-9.36l-1.893 5.327h-2.962l7.927-20.766M288.804 197.932v9.403h-2.56v-9.32c0-1.473-.286-2.577-.86-3.31-.576-.732-1.438-1.098-2.588-1.098-1.382 0-2.47.44-3.27 1.32-.796.882-1.195 2.083-1.195 3.604v8.805h-2.572v-15.578h2.573v2.42c.613-.936 1.332-1.636 2.157-2.1.834-.464 1.794-.695 2.88-.695 1.79 0 3.142.556 4.06 1.67.918 1.102 1.377 2.73 1.377 4.88M291.693 191.757h2.56v15.578h-2.56v-15.578m0-6.064h2.56v3.24h-2.56v-3.24M296.18 191.757h2.713l4.867 13.074 4.868-13.073h2.713l-5.84 15.578h-3.478l-5.842-15.578M325.583 198.906v1.252h-11.767c.11 1.762.64 3.106 1.586 4.033.955.92 2.28 1.378 3.977 1.378.982 0 1.933-.12 2.85-.36.928-.243 1.846-.604 2.755-1.086v2.42c-.918.39-1.86.686-2.824.89-.963.204-1.94.306-2.934.306-2.484 0-4.455-.723-5.91-2.17-1.447-1.446-2.17-3.403-2.17-5.87 0-2.55.686-4.57 2.058-6.063 1.382-1.502 3.24-2.253 5.577-2.253 2.097 0 3.752.677 4.967 2.03 1.224 1.345 1.836 3.176 1.836 5.494m-2.56-.75c-.018-1.4-.412-2.518-1.182-3.353-.76-.834-1.77-1.252-3.03-1.252-1.43 0-2.574.405-3.436 1.21-.853.808-1.345 1.944-1.474 3.41l9.123-.016M337.122 194.15c-.287-.167-.603-.288-.946-.362-.333-.084-.704-.125-1.112-.125-1.447 0-2.56.472-3.338 1.418-.77.938-1.155 2.287-1.155 4.05v8.204H328v-15.577h2.573v2.42c.54-.946 1.24-1.646 2.102-2.1.862-.464 1.91-.695 3.143-.695.177 0 .37.014.584.04.212.02.448.052.708.1l.02 2.627" style="-inkscape-font-specification:ArialMT" font-size="15.467" fill="#fff" font-family="PUMHTR+ArialMT"/><path d="M347.512 192.216v2.42c-.724-.37-1.475-.65-2.254-.834-.778-.186-1.585-.278-2.42-.278-1.27 0-2.225.194-2.865.584-.63.39-.946.973-.946 1.752 0 .594.228 1.062.682 1.405.453.334 1.367.654 2.74.96l.875.194c1.818.39 3.106.94 3.867 1.654.77.705 1.154 1.693 1.154 2.963 0 1.446-.575 2.59-1.724 3.435-1.14.844-2.713 1.266-4.715 1.266-.835 0-1.707-.084-2.615-.25-.9-.158-1.85-.4-2.85-.724v-2.642c.944.49 1.876.862 2.794 1.112.918.24 1.827.362 2.726.362 1.206 0 2.133-.204 2.782-.612.65-.417.974-1 .974-1.752 0-.696-.237-1.23-.71-1.6-.463-.37-1.488-.728-3.074-1.07l-.89-.21c-1.585-.333-2.73-.843-3.435-1.53-.706-.695-1.058-1.645-1.058-2.85 0-1.466.52-2.597 1.558-3.394 1.038-.798 2.512-1.196 4.422-1.196.946 0 1.836.07 2.67.208.835.14 1.605.348 2.31.626M358.903 199.504c-2.068 0-3.5.237-4.298.71-.798.472-1.196 1.28-1.196 2.42 0 .908.295 1.63.89 2.17.6.528 1.418.792 2.447.792 1.418 0 2.554-.5 3.407-1.502.863-1.01 1.294-2.35 1.294-4.02v-.57h-2.545m5.104-1.057v8.888h-2.56v-2.365c-.583.946-1.31 1.646-2.183 2.1-.872.445-1.938.668-3.2.668-1.594 0-2.864-.445-3.81-1.335-.936-.9-1.404-2.1-1.404-3.603 0-1.752.584-3.073 1.752-3.964 1.178-.89 2.93-1.335 5.257-1.335h3.588v-.25c0-1.177-.39-2.085-1.17-2.725-.768-.65-1.853-.974-3.253-.974-.89 0-1.757.108-2.6.32-.845.214-1.656.534-2.435.96v-2.364c.937-.36 1.845-.63 2.726-.806.88-.186 1.74-.278 2.573-.278 2.252 0 3.935.584 5.048 1.752 1.112 1.168 1.67 2.94 1.67 5.313M376.687 194.15c-.288-.167-.603-.288-.946-.362-.333-.084-.704-.125-1.11-.125-1.448 0-2.56.472-3.34 1.418-.77.938-1.154 2.287-1.154 4.05v8.204h-2.573v-15.577h2.573v2.42c.538-.946 1.238-1.646 2.1-2.1.863-.464 1.91-.695 3.144-.695.176 0 .37.014.584.04.213.02.45.052.71.1l.017 2.627M377.146 191.757h2.56v15.578h-2.56v-15.578m0-6.064h2.56v3.24h-2.56v-3.24M389.506 193.55c-1.373 0-2.458.54-3.255 1.615-.796 1.066-1.195 2.53-1.195 4.395 0 1.863.394 3.333 1.182 4.41.797 1.065 1.887 1.598 3.27 1.598 1.36 0 2.442-.538 3.24-1.613.796-1.076 1.195-2.54 1.195-4.395 0-1.845-.4-3.306-1.196-4.38-.797-1.086-1.878-1.63-3.24-1.63m0-2.168c2.225 0 3.973.723 5.243 2.17 1.27 1.446 1.904 3.45 1.904 6.008 0 2.55-.635 4.552-1.905 6.008-1.27 1.447-3.02 2.17-5.244 2.17-2.235 0-3.988-.723-5.258-2.17-1.26-1.456-1.89-3.458-1.89-6.008 0-2.56.63-4.562 1.89-6.01 1.27-1.445 3.023-2.168 5.258-2.168" style="-inkscape-font-specification:ArialMT" font-size="15.467" fill="#fff" font-family="PUMHTR+ArialMT"/><path d="M256.996 207.335l2.24-6.177h8.524l2.378 6.177h3.073l-8.344-20.39h-2.905l-7.83 20.39h2.866zm5.258-14.354c.472-1.288.838-2.586 1.098-3.894.315 1.105.796 2.514 1.445 4.23l2.13 5.646h-6.913l2.24-5.98zM277.552 207.335v-8.067c0-1.892.387-3.177 1.16-3.853.776-.677 1.694-1.016 2.763-1.016.667 0 1.25.15 1.745.45.494.302.842.707 1.035 1.214.196.502.293 1.266.293 2.286v8.985h2.502v-9.082c0-1.16-.046-1.97-.138-2.436-.15-.71-.408-1.328-.778-1.85-.373-.516-.93-.937-1.676-1.257-.748-.32-1.565-.48-2.456-.48-2.05 0-3.617.81-4.7 2.434v-2.1h-2.255v14.77h2.505zM293.406 186.944h-2.503v2.88h2.503v-2.88zm0 5.62h-2.503v14.77h2.503v-14.77zM303.657 207.335l5.59-14.77h-2.572l-3.283 9.012c-.398 1.094-.71 2.03-.932 2.81-.288-1.03-.6-2.023-.944-2.978l-3.172-8.845H295.7l5.62 14.77h2.337zM320.028 204.886c-.65.484-1.434.723-2.35.723-1.234 0-2.263-.43-3.09-1.295-.824-.86-1.282-2.104-1.374-3.727h11.013c.01-.297.016-.52.016-.667 0-2.437-.626-4.33-1.878-5.674-1.253-1.344-2.866-2.016-4.84-2.016-2.04 0-3.7.686-4.978 2.058-1.283 1.372-1.92 3.3-1.92 5.785 0 2.403.63 4.27 1.897 5.6 1.266 1.33 2.978 1.994 5.14 1.994 1.715 0 3.124-.417 4.23-1.25 1.1-.835 1.857-2.007 2.264-3.52l-2.587-.32c-.38 1.057-.893 1.828-1.542 2.31zm-5.375-9.445c.783-.768 1.75-1.152 2.898-1.152 1.272 0 2.306.48 3.102 1.445.52.624.836 1.554.948 2.797h-8.248c.083-1.286.516-2.318 1.3-3.09zM329.777 207.335v-7.733c0-1.057.14-2.03.417-2.92.186-.586.495-1.042.932-1.37.435-.33.928-.494 1.476-.494.61 0 1.222.18 1.834.54l.86-2.32c-.87-.538-1.728-.81-2.57-.81-.585 0-1.12.17-1.607.502-.487.334-1.018 1.027-1.594 2.075v-2.24h-2.25v14.77h2.5zM337.71 206.47c1.007.8 2.47 1.198 4.39 1.198 1.16 0 2.197-.2 3.116-.605.916-.403 1.618-.974 2.106-1.71.486-.74.73-1.522.73-2.358 0-.854-.198-1.565-.598-2.14-.4-.576-.95-1.016-1.646-1.317-.703-.302-1.936-.69-3.71-1.16-1.22-.334-1.96-.55-2.21-.64-.436-.176-.756-.4-.96-.668-.204-.258-.305-.55-.305-.877 0-.51.244-.953.737-1.335.492-.38 1.312-.57 2.463-.57.97 0 1.726.215 2.258.64.535.427.857 1.02.968 1.78l2.447-.333c-.157-.956-.444-1.718-.86-2.29-.418-.57-1.064-1.02-1.942-1.355-.877-.333-1.894-.5-3.052-.5-.768 0-1.488.1-2.16.298-.673.2-1.205.444-1.594.732-.52.37-.93.836-1.23 1.397-.303.56-.452 1.17-.452 1.828 0 .725.18 1.386.547 1.982.367.6.906 1.066 1.615 1.407.71.336 1.982.74 3.817 1.2 1.365.347 2.217.627 2.56.848.492.327.74.772.74 1.336 0 .633-.282 1.18-.837 1.648-.555.47-1.41.704-2.56.704-1.14 0-2.028-.264-2.663-.794-.636-.527-1.022-1.287-1.16-2.28l-2.475.39c.276 1.568.918 2.75 1.924 3.545zM361.17 207.335h2.614c-.315-.567-.527-1.156-.633-1.775-.107-.615-.158-2.088-.158-4.413v-3.34c0-1.112-.044-1.88-.126-2.31-.15-.683-.408-1.254-.78-1.703-.37-.45-.95-.822-1.737-1.12-.79-.296-1.815-.445-3.076-.445-1.27 0-2.387.174-3.352.52-.964.35-1.7.846-2.21 1.49-.51.645-.877 1.49-1.1 2.537l2.45.337c.266-1.05.68-1.78 1.242-2.194.562-.41 1.432-.617 2.61-.617 1.26 0 2.21.283 2.85.847.473.42.71 1.137.71 2.157 0 .094-.005.31-.014.654-.955.334-2.445.62-4.466.864-.992.117-1.733.244-2.224.375-.667.183-1.268.457-1.802.82-.534.36-.965.84-1.294 1.437-.33.6-.493 1.26-.493 1.985 0 1.23.437 2.244 1.31 3.038.87.792 2.117 1.188 3.74 1.188.983 0 1.904-.163 2.76-.485.86-.325 1.75-.882 2.677-1.67.074.696.242 1.3.502 1.822zm-.71-6.494c0 1.103-.136 1.94-.403 2.503-.354.732-.905 1.31-1.657 1.733-.75.42-1.607.63-2.572.63-.973 0-1.712-.222-2.22-.667-.503-.445-.756-1.002-.756-1.67 0-.435.115-.83.347-1.187.232-.36.56-.63.987-.815.426-.187 1.153-.353 2.185-.502 1.816-.258 3.18-.576 4.088-.946v.92zM369.346 207.335v-7.733c0-1.057.14-2.03.417-2.92.186-.586.495-1.042.932-1.37.435-.33.928-.494 1.476-.494.61 0 1.223.18 1.836.54l.86-2.32c-.87-.538-1.728-.81-2.57-.81-.586 0-1.122.17-1.608.502-.485.334-1.017 1.027-1.593 2.075v-2.24h-2.25v14.77h2.5zM378.873 186.944h-2.502v2.88h2.503v-2.88zm0 5.62h-2.502v14.77h2.503v-14.77zM383.665 205.68c1.276 1.326 2.947 1.986 5.014 1.986 1.288 0 2.476-.3 3.567-.902 1.09-.603 1.92-1.448 2.49-2.54.57-1.086.855-2.582.855-4.483 0-2.345-.644-4.182-1.934-5.515-1.29-1.33-2.95-1.996-4.98-1.996-1.827 0-3.374.55-4.644 1.64-1.52 1.317-2.282 3.343-2.282 6.08 0 2.493.638 4.404 1.913 5.73zm1.9-9.973c.824-.936 1.862-1.404 3.114-1.404 1.23 0 2.264.47 3.093 1.41.83.943 1.245 2.326 1.245 4.154 0 1.936-.412 3.377-1.238 4.326-.824.944-1.858 1.418-3.1 1.418-1.253 0-2.29-.47-3.116-1.413-.826-.94-1.238-2.357-1.238-4.247 0-1.894.412-3.308 1.238-4.243z" fill="none" stroke="#fff" stroke-width="4.604" stroke-linecap="round" stroke-linejoin="round" stroke-miterlimit="10"/><path d="M263.908 189.337l-3.81 10.334h7.635l-3.825-10.333m-1.586-2.768h3.185l7.914 20.765h-2.92l-1.89-5.327h-9.36l-1.893 5.327h-2.962l7.927-20.766M288.804 197.932v9.403h-2.56v-9.32c0-1.473-.286-2.577-.86-3.31-.576-.732-1.438-1.098-2.588-1.098-1.382 0-2.47.44-3.27 1.32-.796.882-1.195 2.083-1.195 3.604v8.805h-2.572v-15.578h2.573v2.42c.613-.936 1.332-1.636 2.157-2.1.834-.464 1.794-.695 2.88-.695 1.79 0 3.142.556 4.06 1.67.918 1.102 1.377 2.73 1.377 4.88M291.693 191.757h2.56v15.578h-2.56v-15.578m0-6.064h2.56v3.24h-2.56v-3.24M296.18 191.757h2.713l4.867 13.074 4.868-13.073h2.713l-5.84 15.578h-3.478l-5.842-15.578M325.583 198.906v1.252h-11.767c.11 1.762.64 3.106 1.586 4.033.955.92 2.28 1.378 3.977 1.378.982 0 1.933-.12 2.85-.36.928-.243 1.846-.604 2.755-1.086v2.42c-.918.39-1.86.686-2.824.89-.963.204-1.94.306-2.934.306-2.484 0-4.455-.723-5.91-2.17-1.447-1.446-2.17-3.403-2.17-5.87 0-2.55.686-4.57 2.058-6.063 1.382-1.502 3.24-2.253 5.577-2.253 2.097 0 3.752.677 4.967 2.03 1.224 1.345 1.836 3.176 1.836 5.494m-2.56-.75c-.018-1.4-.412-2.518-1.182-3.353-.76-.834-1.77-1.252-3.03-1.252-1.43 0-2.574.405-3.436 1.21-.853.808-1.345 1.944-1.474 3.41l9.123-.016M337.122 194.15c-.287-.167-.603-.288-.946-.362-.333-.084-.704-.125-1.112-.125-1.447 0-2.56.472-3.338 1.418-.77.938-1.155 2.287-1.155 4.05v8.204H328v-15.577h2.573v2.42c.54-.946 1.24-1.646 2.102-2.1.862-.464 1.91-.695 3.143-.695.177 0 .37.014.584.04.212.02.448.052.708.1l.02 2.627" style="-inkscape-font-specification:ArialMT" font-size="15.467" fill="#009fe3" font-family="PUMHTR+ArialMT"/><path d="M347.512 192.216v2.42c-.724-.37-1.475-.65-2.254-.834-.778-.186-1.585-.278-2.42-.278-1.27 0-2.225.194-2.865.584-.63.39-.946.973-.946 1.752 0 .594.228 1.062.682 1.405.453.334 1.367.654 2.74.96l.875.194c1.818.39 3.106.94 3.867 1.654.77.705 1.154 1.693 1.154 2.963 0 1.446-.575 2.59-1.724 3.435-1.14.844-2.713 1.266-4.715 1.266-.835 0-1.707-.084-2.615-.25-.9-.158-1.85-.4-2.85-.724v-2.642c.944.49 1.876.862 2.794 1.112.918.24 1.827.362 2.726.362 1.206 0 2.133-.204 2.782-.612.65-.417.974-1 .974-1.752 0-.696-.237-1.23-.71-1.6-.463-.37-1.488-.728-3.074-1.07l-.89-.21c-1.585-.333-2.73-.843-3.435-1.53-.706-.695-1.058-1.645-1.058-2.85 0-1.466.52-2.597 1.558-3.394 1.038-.798 2.512-1.196 4.422-1.196.946 0 1.836.07 2.67.208.835.14 1.605.348 2.31.626M358.903 199.504c-2.068 0-3.5.237-4.298.71-.798.472-1.196 1.28-1.196 2.42 0 .908.295 1.63.89 2.17.6.528 1.418.792 2.447.792 1.418 0 2.554-.5 3.407-1.502.863-1.01 1.294-2.35 1.294-4.02v-.57h-2.545m5.104-1.057v8.888h-2.56v-2.365c-.583.946-1.31 1.646-2.183 2.1-.872.445-1.938.668-3.2.668-1.594 0-2.864-.445-3.81-1.335-.936-.9-1.404-2.1-1.404-3.603 0-1.752.584-3.073 1.752-3.964 1.178-.89 2.93-1.335 5.257-1.335h3.588v-.25c0-1.177-.39-2.085-1.17-2.725-.768-.65-1.853-.974-3.253-.974-.89 0-1.757.108-2.6.32-.845.214-1.656.534-2.435.96v-2.364c.937-.36 1.845-.63 2.726-.806.88-.186 1.74-.278 2.573-.278 2.252 0 3.935.584 5.048 1.752 1.112 1.168 1.67 2.94 1.67 5.313M376.687 194.15c-.288-.167-.603-.288-.946-.362-.333-.084-.704-.125-1.11-.125-1.448 0-2.56.472-3.34 1.418-.77.938-1.154 2.287-1.154 4.05v8.204h-2.573v-15.577h2.573v2.42c.538-.946 1.238-1.646 2.1-2.1.863-.464 1.91-.695 3.144-.695.176 0 .37.014.584.04.213.02.45.052.71.1l.017 2.627M377.146 191.757h2.56v15.578h-2.56v-15.578m0-6.064h2.56v3.24h-2.56v-3.24M389.506 193.55c-1.373 0-2.458.54-3.255 1.615-.796 1.066-1.195 2.53-1.195 4.395 0 1.863.394 3.333 1.182 4.41.797 1.065 1.887 1.598 3.27 1.598 1.36 0 2.442-.538 3.24-1.613.796-1.076 1.195-2.54 1.195-4.395 0-1.845-.4-3.306-1.196-4.38-.797-1.086-1.878-1.63-3.24-1.63m0-2.168c2.225 0 3.973.723 5.243 2.17 1.27 1.446 1.904 3.45 1.904 6.008 0 2.55-.635 4.552-1.905 6.008-1.27 1.447-3.02 2.17-5.244 2.17-2.235 0-3.988-.723-5.258-2.17-1.26-1.456-1.89-3.458-1.89-6.008 0-2.56.63-4.562 1.89-6.01 1.27-1.445 3.023-2.168 5.258-2.168" style="-inkscape-font-specification:ArialMT" font-size="15.467" fill="#009fe3" font-family="PUMHTR+ArialMT"/></svg>