<svg xmlns="http://www.w3.org/2000/svg" width="400" height="269.589"><path d="M360.554 134.913c-.227-.077-.44-.16-.658-.237.414.172.658.237.658.237M145.316 164.878l-.038.213.038-.212" fill="#909090"/><path d="M159.38 135.036c-2.432 4.35-4.588.307-7.944 6.026-3.333 5.68-4.185 13.057-6.12 23.816.348-1.894 3.223-16.256 11.824-23.365 3.64-3.007 5.132-5.728 6.017-8.147 1.53-4.187 2.587-7.426 2.587-13.81 0-4.083.107-5.735.372-7.31-1.384-.413-2.305-.876-3.95-1.52-.303 7.44.76 17.966-2.787 24.31M247.712 111.892c-6.714-1.687-10.96-3.365-16.156-5.727-1.22-.554-2.48-1.636-4.65-4.8-1.262 1.31-2.02 2.53-3.346 3.642 1.405 1.765 1.834 2.37 3.323 3.804 2.714 2.61 5.63 3.286 8.76 4.276.712-.197 2.288-.492 3.012-.577 5.47-.646 9.423.544 9.057-.618M153.74 25.39c-.57-3.28-1.196-5.6-1.525-6.707-1.268-.103-2.54-.116-3.808-.01 0 0-3.965-11.64-16.88-18.673 0 0 4.73 11.382.637 16.114 0 0-6.905-1.662-10.23 7.42 0 0-1.023-1.154-5.627-4.477-4.605-3.325-6.65-1.792-9.206-6.395 0 0-3.837 18.417 9.717 28.007 0 0-3.797 11.824-2.607 13.405.936 1.242 8.536 10.976 4.462 29.565 2 .28 3.023.615 4.474 1.123 1.486-9.03 1.425-21.655-4.834-30.694l-.385-1.282s5.883-5.627 5.372-14.326c0 0-8.954-3.326-10.745-14.07 0 0 7.932 2.814 10.744 9.21 0 0 6.65-20.977 11.254-7.42 0 0 4.35-10.232 3.583-14.836 0 0 7.335 8.237 7.335 12.585 0 0 3.225.024 8.268 1.458M349.278 125.116s-3.6-15.05-22.4-17.352c0 0-3.946 2.644-6.12 4.18-1 .706-8.075-.047-8.248 1.094-.328 2.16-.207 2.016-.645 3.095.896.008.75.453 1.516.48 3.384-2.57 7.004-1.838 8.06 1.293.905-.196 1.847-2.49 2.89-2.914 6.905-2.813 15.486 4.37 20.47 9.61 4.903 5.154 3.886 14.25 16.098 18.693-2.12-.885-8.837-4.698-11.62-18.18M166 88.602c-2.7-8.662-1.366-9.165-10.232-2.302-.572.443-2.108 1.978-6.37 2.83-1.508.302 3.555 3.15 4.834 2.03 0 0-2.3 3.58-5.804 7.334 1.65.927 3.033 2.036 4.637 2.83 3.545-4.012 6.466-8.113 6.19-9.755-.51-3.07 3.455-1.92 3.2 4.474-.242 6.036.955 3.522.222 9.195 1.52.54 2.818 1.036 4.42 1.036.26-2.698 1.27-10.067-1.098-17.674M159.652 18.744c.505 2.54.903 5.017 1.21 7.436 6.943 2.813 15.714 8.07 24.203 17.872 3.637 5.614 9.92 16.306 10.29 23.814 0 0 .574-4.993.118-9.745 10.798 16.026 17.692 28.992 24.65 39.185 2.164-1.586 2.605-2.458 3.29-3.125-13.453-21.32-37.476-67.55-63.76-75.436M137.348 112.65c.768 4.347 1.535 12.28-12.28 6.137 0 0-4.09-1.533-7.674-15.09 0 0 1.536-4.862 4.095-9.21.487-.83.56-1.966 1.08-3.942-1.937-.784-3.038-1.335-4.01-1.69-1.176 4-2.96 7.9-5.34 12.56 0 0-.258.128-1.538 2.177 0 0 .513 13.68 10.872 20.46 0 0 22.762 8.44 19.055-10.615 0 0-.13-2.686 3.195-4.348 1.012-.506 2.25-1.508 4.224-3.484-2.27-.648-3.468-1.662-4.972-2.453-4.2 3.626-7.425 5.447-6.71 9.496M385.534 108.34c-4.49-15.714-29.977-24.762-33.736-13.487-2.93 8.805-15.22 13.658-15.22 13.658 6.6 1.468 12.29-6.32 21.458-9.438 9.17-3.118 22.854 8.058 23 17.313.148 9.254 18.964 18.82 18.964 18.82-10.455-6.97-10.798-14.026-14.466-26.865" fill="#8a8a89"/><path d="M274.565 122.676c-6.277-.316-10.007 1.35-14.447-1.262 0 0-3.6 1.11-7.385-1.045 0 0-.65-.1-.88 0 0 0 1.945 12.15-1.735 18.573-3.68 6.42-6.69 20.858 12.307 24.367 39.286 7.253 41.455-3.836 42.25-10.653.864-7.39.95-16.626-3.096-24.586-1.07-2.104-20.413-5.06-27.015-5.394M313.053 118.175c-1.63 2.38-1.458 3.184-4.266 6.12-1.764 1.84-2.71 3.345-5.93 3.296 0 0 3.46 5.503 3.423 10.53-.007 1.06 3.81-.253 9.356-4.755 5.548-4.503 5.636-11.605 4.93-15.04-.03-.15-.08-.283-.125-.42-1.057-3.13-5.825-2.01-7.386.27" fill="#bb9427"/><path d="M250.636 127.433c-.074-4.846-.42-7.715-.42-7.715-.582-.922-1.5-.757-3.663.34-2.087 1.062-3.477 2.89-4.094 5.924-.788 3.862-.494 10.918.966 13.596 1.082 1.978 2.374 1.806 3.312 1.935 0 0 .77-1.846 1.68-3.7 1.132-2.303 2.298-5.29 2.218-10.38M226.437 100.363c.29-.3.578-.59.86-.9 0 0-.66-3.133-3.417-4.2 0 0-.16.173-.466.47-.686.668-2.13 1.99-4.29 3.576-8.07 5.926-26.138 15.488-52.027 7.97-1.473-.428-2.97-.914-4.493-1.455-3.166-1.128-6.44-2.512-9.82-4.184-1.602-.792-3.228-1.65-4.878-2.578-2.49-1.4-5.026-2.95-7.618-4.674 0 0 25.1-23.94 19.65-67.206-.306-2.42-.704-4.897-1.207-7.436-.138-.696-.282-1.394-.438-2.1 0 0-3.507.093-5.305.302.013.03.096.28.23.736.33 1.106.956 3.425 1.526 6.704 2.23 12.863 3.55 40.466-17.61 67.373 0 0-5.798-4.66-13.11-7.216-1.45-.507-2.96-.928-4.496-1.216-1.11-.208-2.228-.348-3.35-.395 0 0-1.08 3.248-.955 3.687.125.438 1.755 2.444 1.755 2.444s-.212-.264-.032-1.19c.146-.746.626-.784.626-.784s.34.12.906.325c.972.356 2.64.98 4.577 1.764 5.184 2.096 12.26 5.325 12.848 7.527 0 0-.644 11.15-2.568 14.226 0 0 5.41-4.845 5.138-12.783 0 0 2.16 1.378 5.864 3.325 1.503.79 3.262 1.672 5.237 2.597 3.577 1.673 7.86 3.473 12.616 5.09 1.316.446 2.67.878 4.053 1.29 17.18 5.11 39.153 6.95 56.318-7.448 1.324-1.11 2.616-2.33 3.88-3.64" fill="#bb9427"/><path d="M155.716 108.968c-.876-.084-3.943-1.804-3.943-1.804.435 2.138 3.228 6.69 5.692 9.7 1.452 1.77 3.3 4.17 3.3 4.17 0-1.287-.27-2.203-.267-3.173.005-1.228.267-2.46.267-2.46-.626-.083-5.05-6.432-5.05-6.432M245.57 110.722l2.055.475c-.11-.16-1.085-2.55-1.133-3.398-.046-.85-1.01-4.096-1.01-4.096.063.604.035 2.905.004 4.27-.03 1.367.084 2.748.084 2.748M251.798 112.287c-.794-1.565-1.38-3.194-1.647-4.813-.825-5.013-2.485-10.435-3.003-10.778-1.415-.94-2.542-.97-2.542-.97s1.986 4.136 2.443 8.074c.336 2.912.253 3.813 1.297 7.34.033.11.07.214.102.322 1.163 3.722 2.876 5.895 4.555 7.157 2.71 2.037 5.317 1.706 5.317 1.706-.39-.314-.776-.654-1.16-1.01-2.068-1.913-4.02-4.377-5.362-7.03" fill="#bb9427"/><path d="M311.695 112.808c.056-2.143.623-5.64-1.85-8.684-2.626-3.232-6.727-4.038-22.3 6.542-2.18 1.482-7.243 4.443-19.807-2.758-10.98-6.29-12.677-10.795-19.393-10.722 0 0 1.907 4.665 2.145 7.598.134 1.66.844 4.595 2.67 7.805 1.315 2.304 3.214 4.745 5.88 6.964.18.152.355.307.544.457 2.495 1.965 6.59 1.55 6.59 1.55s12.82-2.318 33.713 4.88c2.75.947 8.308-2.457 10.685-8.322.44-1.08.773-2.233.955-3.47.09-.598.153-1.21.168-1.84M237.726 113.312c-.722.098-1.446.252-2.158.448-7.333 2.01-13.54 8.603-5.986 8.545 8.287-.067 7.517 6.298 7.517 6.298-.46 11.782-4.598 5.284-4.01 13.703.447 6.433 12.95 4.617 12.95 4.617-.292-1.148.3-3.922.3-3.922-1.008-.194-2.342.127-3.778-2.417-3.493-6.193-2.247-11.67-1.723-14.738 1.404-8.255 9.8-7.658 9.8-7.658-.27-.148-1.082-1.206-1.298-1.567-.893-1.493-1.248-3.535-1.248-3.535s-2.212-.882-10.368.227" fill="#bb9427"/><path d="M131.668 135.514l2.498 2.317c-2.498 2.8-4.135 5.385-4.908 7.763-.772 2.38-1.157 6.036-1.157 10.972 0 20.22 4.52 44.486 13.558 72.794 5.056 15.697 9.01 23.547 11.865 23.547 1.368 0 3.568-1.574 6.602-4.727l2.23 2.14-1.07 1.162c-5.117 5.47-9.783 10.763-14.005 15.878l-1.785 2.23c-7.554-15.64-13.872-32.678-18.956-51.117-5.086-18.434-7.63-33.45-7.63-45.048 0-4.875.36-10.465 1.072-16.77l.27-2.41c-4.76 4.94-12.045 13.56-21.857 25.872-6.126 7.67-11.658 14.303-16.594 19.89l-2.05 2.322c3.27-.24 6.93-.36 10.973-.36l25.957.448 3.66.177c-2.143 5.95-4.225 13.32-6.245 22.124h-3.392c.834-3.21 1.25-5.71 1.25-7.493 0-2.26-.773-3.748-2.32-4.46-1.546-.714-4.726-1.072-9.544-1.072H87.153l-14.54.267-1.785.09-2.32 2.318c-12.846 12.49-21.498 20.64-25.96 24.445-4.46 3.807-11.063 8.593-19.803 14.36l-2.498 1.697c4.222-.356 8.77-.536 13.65-.536 11.238 0 19.83.357 25.777 1.072l16.772 1.872c4.46.534 8.474.8 12.042.8 9.217 0 16.577-2.375 22.08-7.134 5.497-4.757 8.904-11.715 10.214-20.875 2.2 1.312 3.3 3.006 3.3 5.086 0 5.116-3.42 10.972-10.26 17.574-10.645 10.23-22.213 15.343-34.7 15.343-4.164 0-9.874-.387-17.128-1.158-17.662-1.844-31.52-2.765-41.57-2.765l-18.733.444H0l5.62-9.01c15.7-5.71 30.24-14.6 43.62-26.673 13.382-12.07 32.263-33.3 56.648-63.693 11.715-14.57 20.308-24.47 25.78-29.703" fill="#6c4327"/><path d="M160.584 228.113c1.31.193 2.306.29 2.987.29 10.737 0 20.33-5.417 28.784-16.25 3.4-4.372 6.23-9.034 8.49-13.99 2.26-4.956 3.388-8.964 3.388-12.024 0-3.4-1.603-5.1-4.81-5.1-5.538 0-12.217 4.746-20.04 14.245-7.822 9.498-14.087 20.438-18.798 32.828m35.85-92.908c-.58 7.285-7.24 26.04-19.966 56.254l-1.31 2.986c5.293-5.683 11.05-10.346 17.27-13.99 6.217-3.643 11.586-5.466 16.103-5.466 4.47 0 6.706 2.358 6.706 7.07 0 5.343-2.432 11.56-7.288 18.654-4.858 7.093-11.052 13.504-18.58 19.235-13.7 10.3-26.94 15.45-39.714 15.45l1.02-2.333c9.083-21.082 16.965-40.126 23.646-57.13 6.678-17 10.018-26.524 10.018-28.564 0-1.457-.873-2.186-2.623-2.186-1.068 0-2.794.437-5.173 1.31l-.802-2.257c6.314-2.284 13.212-5.296 20.695-9.035M268.576 175.28c-3.402 6.512-7.53 15.668-12.39 27.473-4.856 11.806-7.334 18.68-7.43 20.622-.05 1.505.773 2.258 2.475 2.258 1.313 0 3.234-.484 5.76-1.456l.947 1.967c-3.55 1.846-9.4 4.324-17.562 7.432l-1.967.73c1.262-7.918 3.69-16.37 7.287-25.36-6.268 7.92-12.206 14.125-17.817 18.62-5.612 4.493-10.238 6.74-13.882 6.74-3.206 0-4.81-1.676-4.81-5.028 0-4.033 2.987-12.314 8.963-24.848l5.83-12.244c1.795-3.788 2.742-6.51 2.842-8.16.097-1.603-.73-2.405-2.48-2.405-.776 0-2.136.292-4.08.874l-.58-2.184 1.165-.364c6.8-1.99 12.46-3.96 16.977-5.904 0 3.888-2.16 10.275-6.485 19.165L225 206.18c-4.86 9.958-7.287 16.054-7.287 18.288 0 2.09.922 3.133 2.77 3.133 4.71 0 10.953-4.917 18.726-14.754 7.77-9.838 13.965-20.683 18.58-32.536l.948-2.333c2.815-.29 6.095-1.19 9.838-2.696M315 175.136l-2.624 7.358c-1.847-.386-3.475-.58-4.88-.58-5.637 0-11.66 4.323-18.073 12.97-3.012 4.13-5.6 8.622-7.76 13.478-2.163 4.86-4.847 12.27-8.052 22.227l-.8 2.477c-3.16.68-6.17 1.505-9.038 2.476l.803-2.185 6.41-17.052c6.073-16.418 9.11-26.087 9.11-29 0-1.507-.654-2.26-1.967-2.26-.728 0-2.358.655-4.882 1.967l-.947-2.258c6.8-3.304 12.895-6.97 18.29-11.004.192.875.29 1.678.29 2.406 0 3.74-1.676 9.983-5.028 18.728l1.75-2.04c11.32-12.436 19.333-18.656 24.046-18.656 1.02 0 2.137.318 3.352.948M345.85 175.65l-.948 2.186H334.63l-.586 1.24c-.92 1.944-3.424 7.625-7.503 17.05-1.65 3.837-3.98 9.134-6.996 15.885-3.546 7.872-5.318 12.852-5.318 14.938 0 2.09 1.068 3.134 3.205 3.134 2.577 0 6.098-1.504 10.568-4.518l1.165 1.896c-2.914 2.234-6.24 4.13-9.982 5.683-3.742 1.555-6.824 2.332-9.255 2.332-3.644 0-5.466-1.433-5.466-4.3 0-2.04 2.043-7.77 6.122-17.196l7.58-17.27c4.224-9.765 6.677-15.496 7.356-17.2l.73-1.674h-9.545l1.02-2.186h.948c4.177 0 6.984-.656 8.417-1.968 1.432-1.31 3.388-5.002 5.868-11.076.727.048 1.21.074 1.454.074 2.332 0 4.64-.293 6.923-.874-.536 1.41-1.484 3.716-2.843 6.92l-2.185 5.248-.73 1.676h10.275zM390.295 181.62c-2.577-.24-4.713-.363-6.414-.363-12.775 0-22.562 4.906-29.363 14.718-2.673 3.89-4.93 8.346-6.78 13.373-1.845 5.027-2.764 9.244-2.764 12.642 0 2.382.69 4.337 2.074 5.867 1.386 1.53 3.143 2.296 5.282 2.296 5.052 0 10.64-4.057 16.76-12.17 6.12-8.113 9.18-15.545 9.18-22.298 0-1.505-.4-2.78-1.2-3.826-.802-1.043-1.76-1.567-2.88-1.567-3.886 0-7.604 3.887-11.15 11.66-.243-.972-.362-1.824-.362-2.552 0-3.01 1.868-6.166 5.61-9.47 3.74-3.304 7.288-4.956 10.64-4.956 2.234 0 4.127.91 5.682 2.732 1.554 1.82 2.332 4.044 2.332 6.67 0 8.79-5.61 18.118-16.832 27.98-9.62 8.55-17.61 12.822-23.973 12.822-2.77 0-5.066-.992-6.887-2.986-1.82-1.99-2.734-4.493-2.734-7.505 0-6.656 2.32-13.614 6.96-20.875 4.64-7.263 10.748-13.52 18.326-18.764 4.178-2.867 8.733-5.224 13.664-7.07 4.93-1.846 9.118-2.77 12.57-2.77 2.137 0 3.205.948 3.205 2.843 0 .73-.314 1.92-.945 3.57" fill="#6c4327"/><path d="M170.835 242.944h20.45v6.577h-1.854c-.275-1.082-.55-1.94-.82-2.57-.27-.63-.558-1.11-.86-1.436-.3-.328-.627-.56-.973-.7-.347-.137-.866-.206-1.56-.206h-2.4v19.352c0 .745.042 1.337.125 1.78.08.438.205.79.376 1.046.17.26.4.46.69.605.29.147.742.288 1.36.426v.926h-8.637v-.926c.38-.09.713-.183 1.004-.283.29-.1.526-.223.708-.37.183-.143.333-.33.454-.556.12-.227.214-.534.283-.926.068-.39.104-.964.104-1.72v-19.352h-2.382c-.593 0-1.08.056-1.466.17-.383.112-.74.348-1.066.707-.33.36-.628.87-.898 1.532-.272.662-.527 1.495-.766 2.504h-1.87v-6.576zM201.945 260.125c-2.56.024-4.473.364-5.747 1.02-1.272.655-1.91 1.643-1.91 2.968 0 .718.147 1.284.436 1.7.29.417.655.703 1.097.86.442.157.966.236 1.57.236.856 0 1.634-.21 2.333-.624.7-.415 1.244-.946 1.635-1.588.39-.642.587-1.28.587-1.91v-2.663zm.322 5.915l-.284-.077c-1.097 1.122-2.128 1.917-3.09 2.383-.964.466-1.988.698-3.072.698-.956 0-1.8-.185-2.53-.557-.733-.372-1.294-.895-1.683-1.567-.39-.676-.586-1.454-.586-2.336 0-1.84.91-3.26 2.732-4.26 1.82-1.004 4.55-1.585 8.193-1.75v-1.23c0-1.31-.126-2.34-.38-3.098-.252-.756-.648-1.31-1.19-1.663-.54-.35-1.265-.53-2.173-.53-.983 0-1.774.26-2.37.776-.6.515-1.05 1.29-1.353 2.324h-2.477v-2.456c1.21-.632 2.218-1.096 3.025-1.39.805-.297 1.612-.53 2.418-.7.806-.17 1.625-.255 2.457-.255 1.248 0 2.25.2 3.005.595.756.396 1.324 1.006 1.7 1.824.38.818.57 2.055.57 3.705v6.576c0 .933.005 1.59.017 1.975.013.387.05.74.113 1.07.064.326.157.59.284.783.127.197.313.363.557.502.245.14.645.284 1.2.434v.926h-5.178l.094-2.702zM215.288 264.018c0 1.084.05 1.836.152 2.258.1.422.292.745.575.963.285.22.746.414 1.388.575v.927h-7.5v-.927c.628-.16 1.065-.332 1.312-.51.246-.175.423-.386.53-.632.107-.247.182-.58.227-1.004.043-.42.065-.972.065-1.652v-15.82c0-1.21-.01-2.054-.028-2.532-.02-.48-.072-.885-.154-1.22-.08-.334-.194-.594-.34-.783-.144-.19-.34-.34-.585-.454-.244-.114-.69-.23-1.33-.34v-.985l4.552-.19h1.136v22.323zM231.352 260.125c-2.557.024-4.473.364-5.746 1.02-1.27.655-1.91 1.643-1.91 2.968 0 .718.147 1.284.437 1.7.288.417.655.703 1.096.86.44.157.962.236 1.567.236.855 0 1.635-.21 2.335-.624.698-.415 1.243-.946 1.635-1.588.39-.642.585-1.28.585-1.91v-2.663zm.32 5.915l-.282-.077c-1.095 1.122-2.127 1.917-3.09 2.383-.964.466-1.99.698-3.07.698-.958 0-1.803-.185-2.533-.557-.732-.372-1.292-.895-1.682-1.567-.392-.676-.588-1.454-.588-2.336 0-1.84.91-3.26 2.732-4.26 1.82-1.004 4.55-1.585 8.192-1.75v-1.23c0-1.31-.125-2.34-.377-3.098-.254-.756-.65-1.31-1.192-1.663-.542-.35-1.266-.53-2.173-.53-.984 0-1.775.26-2.37.776-.6.515-1.05 1.29-1.353 2.324h-2.476v-2.456c1.21-.632 2.22-1.096 3.025-1.39.806-.297 1.612-.53 2.42-.7.805-.17 1.624-.255 2.456-.255 1.25 0 2.25.2 3.006.595.756.396 1.323 1.006 1.7 1.824.38.818.567 2.055.567 3.705v6.576c0 .933.01 1.59.02 1.975.012.387.05.74.113 1.07.063.326.157.59.284.783.125.197.312.363.556.502.246.14.647.284 1.202.434v.926h-5.18l.095-2.702zM244.41 261.94c0 .97.047 1.74.135 2.312.087.576.235 1.05.444 1.43.207.377.508.723.907 1.04.394.313.84.53 1.33.65.492.12 1.04.18 1.645.18 1.513 0 2.657-.616 3.44-1.852.78-1.235 1.172-3.088 1.172-5.56 0-2.492-.357-4.366-1.067-5.62-.713-1.254-1.786-1.88-3.224-1.88-.72 0-1.33.11-1.833.33-.505.222-1.004.565-1.5 1.032-.5.466-.865.923-1.098 1.378-.233.452-.35.97-.35 1.55v5.01zm0-8.298l.08.017c.88-.92 1.613-1.586 2.2-2.004.585-.416 1.19-.733 1.814-.954.623-.22 1.306-.33 2.052-.33 1.346 0 2.502.343 3.467 1.03.962.686 1.707 1.716 2.23 3.09.523 1.374.782 3.055.782 5.047 0 2.05-.31 3.788-.932 5.205-.626 1.418-1.547 2.488-2.76 3.212-1.216.725-2.658 1.088-4.32 1.088-.933 0-1.81-.084-2.636-.255-.826-.17-1.692-.47-2.598-.9l-1.325 1.155-1.304-.303v-20.544c0-1.21-.01-2.054-.026-2.532-.02-.48-.07-.886-.153-1.22-.08-.333-.194-.595-.338-.784-.145-.188-.342-.34-.588-.454-.244-.112-.69-.227-1.33-.338v-.985l4.573-.19h1.114v11.947zM271.44 260.125c-2.56.024-4.474.364-5.746 1.02-1.274.655-1.91 1.643-1.91 2.968 0 .718.146 1.284.434 1.7.29.417.657.703 1.098.86.44.157.963.236 1.567.236.856 0 1.636-.21 2.335-.624.7-.415 1.243-.946 1.635-1.588.39-.642.586-1.28.586-1.91v-2.663zm.32 5.915l-.284-.077c-1.095 1.122-2.127 1.917-3.09 2.383-.963.466-1.988.698-3.07.698-.958 0-1.802-.185-2.533-.557-.732-.372-1.29-.895-1.68-1.567-.393-.676-.59-1.454-.59-2.336 0-1.84.91-3.26 2.732-4.26 1.82-1.004 4.552-1.585 8.194-1.75v-1.23c0-1.31-.127-2.34-.38-3.098-.252-.756-.65-1.31-1.19-1.663-.543-.35-1.268-.53-2.173-.53-.984 0-1.775.26-2.372.776-.6.515-1.05 1.29-1.35 2.324h-2.48v-2.456c1.212-.632 2.22-1.096 3.027-1.39.805-.297 1.613-.53 2.42-.7.806-.17 1.623-.255 2.457-.255 1.246 0 2.246.2 3.002.595.757.396 1.324 1.006 1.7 1.824.38.818.568 2.055.568 3.705v6.576c0 .933.008 1.59.02 1.975.012.387.05.74.112 1.07.064.326.157.59.285.783.126.197.31.363.556.502.246.14.647.284 1.2.434v.926h-5.177l.095-2.702zM284.84 253.81l.265.06c.69-.847 1.334-1.512 1.926-1.996.593-.485 1.235-.86 1.92-1.126.686-.264 1.466-.395 2.336-.395.73 0 1.39.038 1.984.113v4.347h-2.137c-.302-.68-.623-1.175-.964-1.484-.342-.31-.807-.465-1.398-.465-.455 0-.905.133-1.353.397-.45.266-.88.65-1.294 1.153-.417.505-.703.978-.86 1.418-.158.442-.237.965-.237 1.57v6.615c0 1.146.067 1.937.206 2.372.14.434.37.752.69.955.322.202.805.36 1.447.47v.927h-7.618v-.926c.48-.15.823-.283 1.03-.396.208-.113.39-.27.538-.473.153-.202.266-.512.342-.927.076-.414.113-1.064.113-1.946v-8.24c0-.805-.014-1.455-.037-1.947-.024-.492-.112-.885-.264-1.18-.153-.297-.38-.517-.69-.663-.31-.144-.746-.268-1.316-.37v-.98l4.425-.19h1.154l-.21 3.307zM294.61 251.62c.63-.1 1.14-.28 1.532-.53.39-.252.695-.577.917-.973.216-.397.392-.894.517-1.494.126-.596.26-1.47.398-2.618h2.683v4.67h6.106v1.908h-6.106v8.41c0 1.222.05 2.197.152 2.92.1.725.29 1.292.567 1.7.276.412.59.704.946.88.352.176.803.265 1.36.265.503 0 .975-.104 1.416-.31.44-.21.876-.508 1.303-.9l.852 1.02c-.896.87-1.743 1.5-2.542 1.89-.802.392-1.63.587-2.486.587-1.626 0-2.834-.482-3.63-1.447-.793-.963-1.19-2.472-1.19-4.526v-10.49h-2.797v-.963zM320.428 257.856c-.075-1.36-.246-2.472-.51-3.336-.266-.864-.66-1.525-1.192-1.983-.528-.462-1.222-.692-2.078-.692-1.298 0-2.333.522-3.11 1.56-.774 1.04-1.23 2.523-1.37 4.45h8.26zm3.175 7.674c-.806.843-1.546 1.505-2.22 1.983-.675.48-1.415.855-2.222 1.126-.804.27-1.694.404-2.663.404-2.597 0-4.554-.777-5.88-2.332-1.322-1.558-1.982-3.854-1.982-6.89 0-1.878.337-3.535 1.01-4.97.675-1.436 1.636-2.547 2.883-3.328 1.248-.78 2.683-1.17 4.308-1.17 1.273 0 2.356.2 3.25.604.896.403 1.61.955 2.146 1.653.536.7.953 1.583 1.25 2.648.295 1.066.46 2.455.5 4.166h-11.908v.342c0 1.486.166 2.736.5 3.75.335 1.015.883 1.808 1.645 2.382.76.574 1.755.86 2.976.86 1.033 0 1.963-.193 2.786-.577.827-.382 1.648-1.01 2.47-1.88l1.15 1.23zM332.487 253.81l.263.06c.693-.847 1.336-1.512 1.928-1.996.592-.485 1.23-.86 1.92-1.126.686-.264 1.463-.395 2.332-.395.73 0 1.393.038 1.985.113v4.347h-2.135c-.303-.68-.625-1.175-.962-1.484-.342-.31-.81-.465-1.4-.465-.454 0-.904.133-1.352.397-.447.266-.878.65-1.295 1.153-.414.505-.702.978-.86 1.418-.155.442-.236.965-.236 1.57v6.615c0 1.146.07 1.937.21 2.372.136.434.367.752.69.955.32.202.8.36 1.445.47v.927h-7.617v-.926c.478-.15.82-.283 1.03-.396.206-.113.386-.27.54-.473.15-.202.263-.512.337-.927.076-.414.113-1.064.113-1.946v-8.24c0-.805-.01-1.455-.037-1.947-.024-.492-.113-.885-.264-1.18-.15-.297-.38-.517-.69-.663-.308-.144-.747-.268-1.312-.37v-.98l4.42-.19h1.154l-.207 3.307zM351.84 241.49v.944l-5.992 6.086-1.23-.984 3.913-6.046h3.31zm-8.447 26.325c.49-.15.838-.283 1.05-.395.206-.114.382-.27.527-.472.145-.202.258-.512.34-.928.08-.414.122-1.065.122-1.945v-8.242c0-.805-.01-1.453-.037-1.946-.026-.492-.114-.886-.265-1.18-.15-.298-.382-.517-.688-.663-.31-.144-.75-.267-1.314-.37v-1l4.404-.17h1.15v13.514c0 1.083.05 1.836.154 2.258.1.422.29.745.576.963.283.22.744.413 1.388.575v.926h-7.407v-.925zM364.748 260.125c-2.558.024-4.473.364-5.746 1.02-1.273.655-1.908 1.643-1.908 2.968 0 .718.145 1.284.434 1.7.29.417.657.703 1.097.86.44.157.962.236 1.568.236.855 0 1.635-.21 2.334-.624.7-.415 1.244-.946 1.635-1.588.39-.642.586-1.28.586-1.91v-2.663zm.322 5.915l-.285-.077c-1.095 1.122-2.126 1.917-3.09 2.383-.963.466-1.988.698-3.07.698-.958 0-1.803-.185-2.533-.557-.732-.372-1.29-.895-1.68-1.567-.393-.676-.59-1.454-.59-2.336 0-1.84.912-3.26 2.733-4.26 1.82-1.004 4.55-1.585 8.193-1.75v-1.23c0-1.31-.125-2.34-.378-3.098-.252-.756-.65-1.31-1.19-1.663-.544-.35-1.268-.53-2.174-.53-.983 0-1.775.26-2.37.776-.6.515-1.05 1.29-1.353 2.324h-2.478v-2.456c1.21-.632 2.22-1.096 3.026-1.39.807-.297 1.613-.53 2.42-.7.807-.17 1.625-.255 2.458-.255 1.246 0 2.247.2 3.003.595.757.396 1.326 1.006 1.702 1.824.38.818.567 2.055.567 3.705v6.576c0 .933.007 1.59.018 1.975.012.387.05.74.114 1.07.064.326.158.59.283.783.127.197.312.363.558.502.246.14.646.284 1.2.434v.926h-5.178l.095-2.702z" fill="#2b2b2a"/></svg>