<svg xmlns="http://www.w3.org/2000/svg" width="400" height="52.749" viewBox="0 0 400.00001 52.74941"><path d="M35.572 13l-26.44.13c-1.72-.014-3.628.048-4.402 3.84L.12 38.123c-.627 2.822 1.317 3.266 2.82 3.266l27.395.126c2.665.046 4.668-2.11 5.144-4.636L41.5 5.046c.618-3.803-1.947-5.04-7.057-5.005L12.67 0v3.978l22.12.048c1.62.055 2.64.75 2.198 2.517L35.572 13zm117.53 27.95l4.42-28.74c.796-5.57.088-12.645-12.824-11.94h-19.455L118.7 40.864l4.067.086 5.747-37.406 17.775.177c5.924 0 7.34 3.716 6.72 8.49l-4.244 28.74h4.335zM302.114 11.94c-.975 0-14.296.068-18.092 1.24-6.46 1.99-11.8 6.542-12.948 13.795-2.122 13.53 11.207 16.802 17.158 12.887l2.2-1.448c.534-.35 1.05-.193 1.535.483-.04 6.162-6.388 8.946-8.193 9.53-4.58 1.478-13.497-2.086-13.497-2.086l-1.37 4.044c4.898 2.9 17.64 4.18 23.3-2.454 1.68-1.943 4.33-6.896 5.837-15.12.708-3.63 1.502-6.4 2.13-9.303 1.348-6.294 2.29-11.568 1.94-11.568zM219.25 20.52l-17.957.084c-1.32 0-2.83.085-3.443 3.01l-3.19 14.76c-.083.274-.083.538-.083.805 0 1.76 1.5 1.942 2.387 2.027l19.016.093c2.126 0 3.623-1.677 3.983-3.632l4.147-22.194c.093-.264.093-.528.093-.792 0-2.48-2.3-3.188-5.392-3.188H203.33v3.632l15.745.084c.792 0 1.152.264 1.152.792 0 .096-.094.18-.094.36l-.88 4.158zm44.928-.444l-17.96.085c-1.32 0-2.83.085-3.44 3.01l-3.192 14.76c-.084.275-.084.54-.084.803 0 1.764 1.502 1.943 2.388 2.028l19.016.096c2.12 0 3.623-1.677 3.983-3.632l4.145-22.196c.094-.264.094-.528.094-.792 0-2.48-2.3-3.188-5.393-3.188h-15.484v3.632l15.746.084c.79 0 1.15.264 1.15.792 0 .096-.093.18-.093.36l-.88 4.16zm92.5.18l-17.96.084c-1.32 0-2.832.087-3.447 3.01l-3.185 14.76c-.085.274-.085.538-.085.805 0 1.76 1.498 1.943 2.388 2.028l19.016.095c2.12 0 3.62-1.677 3.978-3.632l4.152-22.196c.093-.264.093-.528.093-.792 0-2.48-2.303-3.188-5.396-3.188h-15.478v3.632l15.745.084c.792 0 1.152.264 1.152.792 0 .096-.1.18-.1.36l-.873 4.158zm-23.175-8.31h-4.507l-4.156 19.986c-2.92 3.892-5.926 4.777-10.437 4.953-2.738.177-7.43-2.565-6.278-7.252l4.068-17.686h-4.334l-3.89 19.896c-.975 4.69 4.155 8.578 9.108 8.845 6.898.44 10.788-2.477 10.877-2.565l-.797 2.565h4.598l5.747-28.74zm-324.64 6.93c.722-1.353 1.735-2.157 2.93-2.157h19.985c2.12.088 3.095.618 2.74 2.564l-2.65 14.858c-.445 2.035-1.77 3.626-3.008 3.626H7.725c-1.857 0-2.742-1.238-2.212-3.362l3.35-15.53zM84.91 32.482c1.428 12.596 19.906 11.824 26.006 2.452 7.163-10.966-.708-25.646-13.442-21.843-9.02 2.74-13.424 11.807-12.563 19.39zM45.42 29.225c.166-1.912.853-2.854 2.06-2.825l18.78-.22c1.767-3.803.654-10.938-4.087-13.077-12.086-5.465-25.27 7.417-21.1 21.433.247.842.786 1.643 1.278 2.344 3.366 4.807 9.827 5.927 19.384 3.357L62.81 35.2s-1.417.442-4.157 1.416c-6.455 2.3-13.79-1.026-13.235-7.392zm229.367-1.282c2.21-12.998 19.72-14.15 22.457-10.346 0 .44-2.122 10.7-3.8 13.442-6.103 9.905-20.426 7.34-18.657-3.096zm-83.652 7.518c-6.546 4.424-16.98 2.663-15.3-7.866 1.678-10.526 12.29-14.59 17.508-9.723v-4.688c-2.564-1.415-6.545-1.15-9.376-.707-9.905 1.764-13.442 11.846-12.555 19.364 1.067 9.544 11.848 11.404 19.63 7.78l.093-4.16zm39.39-7.95c1.396-7.32 4.414-11.116 9.068-11.387l3.868-.228.107-4.356c-1.53-.192-2.724.058-3.41.077-.787.075-2.537.257-3.548.623-.737.185-1.475.85-2.974 1.006l.49-1.372h-4.414l-6.9 28.994h4.418l3.296-13.358zm-121.02.528c-1.234 12.47-22.544 14.855-20.156.177 2.3-14.507 21.75-16.712 20.156-.177zm-34.41-.053c1.34-7.053 4.244-10.713 8.716-10.974l3.72-.22.103-4.197c-1.468-.184-2.622.057-3.278.075-.758.073-2.437.248-3.41.6-.71.18-1.42.818-2.86.97l.47-1.324h-4.244l-6.63 27.944h4.244l3.168-12.873zm171.305-3.22c.53-.792 1.06-1.152 1.68-1.152h13.802c1.23 0 1.497.276 1.497.804v.444l-1.857 10.35c-.266 1.317-1.152 2.12-1.68 2.12h-14.593c-.792 0-1.236-.357-1.236-1.15 0-.18.09-.358.09-.622l2.3-10.793zm92.496.168c.528-.792 1.06-1.15 1.68-1.15h13.797c1.237 0 1.503.274 1.503.802v.444l-1.857 10.346c-.266 1.32-1.152 2.123-1.68 2.123h-14.593c-.792 0-1.236-.358-1.236-1.153 0-.177.084-.357.084-.62l2.304-10.794zm-137.412.264c.528-.792 1.054-1.15 1.675-1.15h13.802c1.235 0 1.496.274 1.496.802v.443L216.6 35.64c-.263 1.32-1.153 2.123-1.676 2.123h-14.596c-.792 0-1.234-.357-1.234-1.152 0-.178.085-.356.085-.62l2.302-10.793zM62.558 20.94c-.26 1.176-.63 1.526-1.516 1.437l-12.45-.006c-.52-.013-.732-.386-.636-1.12.616-4.833 16.323-8.02 14.602-.31zm333.82 11.677l-7.323.037c-.476-.003-1.004.013-1.218 1.08l-1.277 5.94c-.173.795.364.918.783.918l7.584.037c.737.01 1.288-.595 1.422-1.303l1.665-8.945c.173-1.067-.537-1.416-1.95-1.404l-6.027-.012v1.118l6.12.014c.45.016.733.21.61.707l-.39 1.812zm-22.766 8.06h3.294c1.404 0 2.303-.262 2.97-.592 1.15-.58 1.93-1.52 2.235-2.65.285-1.09-1.506-2.323-2.596-3.21l-1.204-.802c-.822-.615-.517-1.416-.43-1.764.2-.718 1.33-1.658 2.597-1.658h2.425l.253-1.004h-2.383c-1.572 0-2.378.285-3.077.665-1.12.633-1.93 1.68-2.196 2.672-.285 1.047.18 1.975 1.278 2.78l1.36.96c.277.272 2.072.536 1.512 1.952-.498 1.236-1.08 1.256-1.725 1.477-.24.105-.653.235-1.805.235h-2.257l-.25.936zM169.64 12.03h-4.424l-4.952 28.74h4.51l4.865-28.74zm219.32 22.28c.202-.38.482-.605.81-.605h5.535c.587.025.858.173.76.72l-.738 4.173c-.12.57-.49 1.018-.83 1.018h-5.85c-.516 0-.76-.348-.614-.945l.928-4.36zM170.36 8.553l.876-4.925h-4.42l-.885 4.952 4.43-.027zm228.227 29.21c-.71 0-1.418.71-1.418 1.416 0 .704.707 1.412 1.417 1.412.707 0 1.413-.708 1.413-1.413 0-.707-.708-1.417-1.413-1.417zm-14.585.084c-.708 0-1.413.71-1.413 1.416s.707 1.413 1.412 1.413c.71 0 1.418-.707 1.418-1.413 0-.706-.708-1.416-1.418-1.416z" fill-rule="evenodd"/></svg>