<svg xmlns="http://www.w3.org/2000/svg" width="400" height="163.161"><path d="M352.515 84.54c4.996-2.75 8.465-4.673 8.465-4.673-2.624 1.766-5.484 3.32-8.465 4.672" fill="#fff"/><path d="M352.515 84.54c4.996-2.75 8.465-4.673 8.465-4.673-2.624 1.766-5.484 3.32-8.465 4.672z" fill="none" stroke="#fff" stroke-width="15.915"/><path d="M281.982 38.72c1.844 2.578 3.47 5.385 4.916 8.34-2.79-4.696-4.746-8.03-4.916-8.34" fill="#fff"/><path d="M281.982 38.72c1.844 2.578 3.47 5.385 4.916 8.34-2.79-4.696-4.746-8.03-4.916-8.34z" fill="none" stroke="#fff" stroke-width="15.915"/><path d="M352.515 84.54c4.996-2.75 8.465-4.673 8.465-4.673-2.624 1.766-5.484 3.32-8.465 4.672M281.982 38.72c1.844 2.578 3.47 5.385 4.916 8.34-2.79-4.696-4.746-8.03-4.916-8.34" fill="#0db14b"/><path d="M0 139.44h308.206v-7.408H0v7.408z" fill="#f7941e"/><path d="M30.273 105.957h10.29c-2.555-7.73-3.956-11.993-4.2-12.78-1.456 3.233-2.695 5.86-3.707 7.926l-2.383 4.854zm-25.64 22.375l2.75-4.74L24.52 91.515l1.824-3.6c.527-1.056 1.265-2.57 2.218-4.538 3.877.033 6.716.058 8.507.058 3.114 0 5.99-.025 8.648-.058l4.834 13.73 9.824 26.43 1.912 4.796c-3.82-.03-6.132-.058-6.95-.058-1.864 0-4.592.03-8.195.058-.965-3.615-2.362-7.877-4.198-12.777H26.268c-1.92 3.868-3.9 8.13-5.957 12.777-4.108-.03-6.633-.058-7.553-.058-1.68 0-4.39.03-8.125.058M90.74 103.93c-1.363-.26-2.582-.398-3.664-.398-1.982 0-3.69.377-5.14 1.14-1.443.76-2.56 1.886-3.346 3.395-.8 1.51-1.194 3.08-1.194 4.706 0 1.194.21 2.297.626 3.3.423 1.015 1.12 1.82 2.085 2.396.962.584 1.994.87 3.064.87 1.597 0 3.002-.573 4.237-1.713 1.236-1.135 2.082-2.707 2.542-4.684.463-1.986.728-4.987.79-9.013M68.02 132.423c2.848.958 5.36 1.642 7.52 2.015 2.17.39 4.055.585 5.663.585 1.175 0 2.236-.13 3.185-.382.954-.24 1.712-.558 2.285-.936.576-.364 1.065-.845 1.475-1.413.407-.563.722-1.206.946-1.91.216-.705.374-1.514.465-2.438.087-.925.166-2.2.228-3.818-.866.767-1.604 1.39-2.235 1.832-.63.473-1.41.92-2.338 1.347-.92.42-1.932.76-3.026.983-1.09.236-2.247.336-3.466.336-2.802 0-5.327-.63-7.578-1.932-2.255-1.294-3.94-3.114-5.04-5.443-1.1-2.322-1.65-4.843-1.65-7.537 0-3.188.592-6.065 1.786-8.627 1.193-2.567 2.893-4.747 5.115-6.53 2.207-1.774 4.644-3.01 7.294-3.69 2.644-.68 5.65-1.023 9.004-1.023 1.915 0 4.096.116 6.53.344 2.44.244 5.79.733 10.044 1.505l-.78 10.868-.683 11.928c-.047.854-.072 1.554-.072 2.11l-.257 10.712c-.04 1.352-.21 2.645-.496 3.872-.245 1.136-.655 2.173-1.223 3.14-.57.964-1.28 1.806-2.122 2.536-.924.792-1.965 1.413-3.113 1.878-1.17.48-2.55.883-4.137 1.185-1.72.302-3.524.46-5.398.46-1.06 0-2.36-.05-3.905-.15-1.55-.095-3.13-.236-4.755-.447-1.63-.2-3.027-.403-4.212-.63-1.174-.212-2.674-.53-4.482-.942l-.232-4.343c-.017-.846-.137-2.658-.336-5.444M110.058 128.334l1.024-14.622.33-8.4c.022-1.512.035-3.067.035-4.65 0-1.597-.025-3.59-.067-5.962 2.662.05 4.79.07 6.36.07 1.832 0 3.934-.02 6.326-.07l-.133 3.727c.86-.966 1.563-1.692 2.115-2.16.55-.473 1.18-.904 1.894-1.285.705-.39 1.443-.676 2.21-.863.775-.187 1.58-.278 2.43-.278.79 0 1.67.112 2.644.327.03 2.4.08 4.373.17 5.94l.224 5.066c-1.215-.353-2.342-.522-3.403-.522-1.327 0-2.467.186-3.425.576-.962.38-1.807.957-2.55 1.745-.737.775-1.33 1.758-1.77 2.91-.443 1.17-.75 3.01-.924 5.535-.178 2.537-.26 5.418-.26 8.668 0 1.145.04 2.562.123 4.246-2.142-.034-4.298-.063-6.458-.063-2.15 0-4.444.03-6.894.064M158.708 103.533c-1.41 0-2.67.36-3.773 1.086-1.098.72-1.936 1.78-2.504 3.174-.563 1.397-.84 2.91-.84 4.565 0 2.403.605 4.265 1.824 5.55 1.21 1.277 2.736 1.927 4.572 1.927 1.39 0 2.633-.364 3.736-1.094 1.102-.742 1.94-1.832 2.5-3.27.568-1.444.845-2.982.845-4.632 0-1.358-.215-2.586-.66-3.688-.442-1.095-1.164-1.978-2.17-2.633-1.004-.66-2.182-.987-3.53-.987m.24-9.693c2.737 0 5.357.415 7.895 1.252 2.528.842 4.668 2.048 6.41 3.61 1.744 1.572 3.03 3.4 3.858 5.51.825 2.094 1.24 4.34 1.24 6.77 0 2.347-.373 4.58-1.107 6.69-.742 2.128-1.998 4.114-3.768 5.97-1.762 1.863-4 3.256-6.733 4.163-2.728.93-5.613 1.39-8.66 1.39-2.807 0-5.502-.41-8.084-1.21-2.587-.826-4.743-2.004-6.476-3.567-1.733-1.562-3.04-3.428-3.905-5.596-.87-2.18-1.314-4.47-1.314-6.853 0-2.4.43-4.686 1.272-6.866.854-2.164 2.206-4.12 4.047-5.854 1.844-1.737 4.125-3.068 6.836-4.005 2.72-.937 5.547-1.405 8.49-1.405M186.365 104.282c.415-2.172.684-3.673.792-4.493.112-.822.294-2.112.53-3.865 6.364-1.39 11.828-2.085 16.405-2.085 2.604 0 4.987.298 7.147.874 2.168.59 3.86 1.526 5.074 2.823 1.214 1.298 1.82 3.15 1.82 5.564 0 1.236-.166 3.997-.498 8.305-.332 4.303-.584 9.945-.76 16.93-2.163-.037-4.314-.066-6.457-.066-2.078 0-4.296.028-6.635.066.307-2.41.635-7.396 1.008-14.954-.838.398-1.497.68-1.965.858-.477.175-1.314.432-2.496.784-1.194.352-2.118.655-2.794.89-.672.25-1.26.557-1.75.922-.493.377-.854.758-1.057 1.16-.214.386-.318.834-.318 1.31 0 .75.3 1.38.896 1.912.6.53 1.55.8 2.843.8.474 0 .967-.046 1.498-.12.53-.075 1.256-.262 2.19-.573-.648 1.688-1.41 4.154-2.29 7.41-1.898.3-3.702.455-5.397.455-2.74 0-5.015-.373-6.844-1.128-1.82-.76-3.22-1.986-4.203-3.685-.983-1.684-1.472-3.38-1.472-5.07 0-1.025.18-2.04.548-3.027.36-.982.93-1.953 1.704-2.898.77-.945 1.675-1.75 2.71-2.417 1.042-.67 2.46-1.306 4.26-1.898 1.794-.602 4.074-1.16 6.835-1.692 1.148-.215 2.197-.443 3.163-.705.958-.252 1.646-.472 2.052-.65.407-.183.734-.41 1-.66.24-.257.427-.514.538-.796.104-.273.162-.55.162-.866 0-.837-.348-1.48-1.053-1.924-.71-.447-1.746-.68-3.118-.68-3.79 0-8.487 1.062-14.067 3.188M224.258 128.334l.593-7.09 1.274-24.625.373-13.246c3.067.033 5.385.062 6.927.062 2.01 0 4.23-.03 6.662-.062l-.75 10.115-1.22 24.894-.264 9.95c-2.367-.025-4.498-.025-6.397-.025l-7.197.024zM246.78 128.334c.418-4.212.924-12.28 1.525-24.182h-4.042c.066-.672.158-2.127.282-4.35.124-2.21.19-3.817.215-4.808h4.706c-.025-.875-.037-1.63-.037-2.268 0-2.02.106-3.606.314-4.746.207-1.136.597-2.11 1.156-2.91.564-.805 1.36-1.522 2.388-2.148 1.024-.626 2.185-1.05 3.478-1.27 1.294-.214 2.633-.326 4.026-.326 1.28 0 2.666.08 4.154.244 1.488.166 3.28.53 5.348 1.078.07 3.487.21 6.385.43 8.694-2.184-.792-4.14-1.182-5.89-1.182-1.198 0-2.123.27-2.798.82-.672.548-1.016 1.56-1.016 3.027l.033.987h7.616c-.175 2.525-.354 5.593-.532 9.158h-6.878l-1.098 24.182c-2.624-.034-4.88-.063-6.754-.063-1.902 0-4.116.03-6.63.064M275.3 104.282c.414-2.172.68-3.673.79-4.493.11-.822.288-2.112.532-3.865 6.36-1.39 11.832-2.085 16.405-2.085 2.59 0 4.98.298 7.143.874 2.172.59 3.855 1.526 5.074 2.823 1.215 1.298 1.82 3.15 1.82 5.564 0 1.236-.166 3.997-.502 8.305-.327 4.303-.58 9.945-.754 16.93-2.164-.037-4.308-.066-6.468-.066-2.077 0-4.29.028-6.62.066.307-2.41.642-7.396.995-14.954-.83.398-1.49.68-1.96.858-.478.175-1.31.432-2.49.784-1.2.352-2.117.655-2.797.89-.672.25-1.256.557-1.75.922-.5.377-.845.758-1.057 1.16-.21.386-.318.834-.318 1.31 0 .75.31 1.38.896 1.912.597.53 1.55.8 2.852.8.464 0 .958-.046 1.488-.12.527-.075 1.252-.262 2.19-.573-.64 1.688-1.406 4.154-2.285 7.41-1.903.3-3.706.455-5.398.455-2.748 0-5.02-.373-6.84-1.128-1.828-.76-3.225-1.986-4.212-3.685-.983-1.684-1.476-3.38-1.476-5.07 0-1.025.19-2.04.547-3.027.36-.982.937-1.953 1.708-2.898.775-.945 1.675-1.75 2.72-2.417 1.032-.67 2.454-1.306 4.253-1.898 1.79-.602 4.08-1.16 6.832-1.692 1.15-.215 2.206-.443 3.16-.705.97-.252 1.65-.472 2.056-.65.402-.183.738-.41 1-.66.243-.257.426-.514.546-.796.098-.273.156-.55.156-.866 0-.837-.352-1.48-1.057-1.924-.71-.447-1.742-.68-3.114-.68-3.79 0-8.49 1.062-14.066 3.188"/><path d="M352.515 84.54c2.98-1.353 5.84-2.907 8.465-4.673 0 0-3.47 1.923-8.465 4.672m-.054.024c-19.824 8.996-45.224 9.244-45.224 9.244 31.723-57.948 92.768-18.352 92.768-18.352-27.79 49.86-80.572 27.606-80.572 27.606 6.302-3.65 22.827-12.84 33.03-18.498M281.982 38.72c.17.31 2.126 3.644 4.916 8.34 9.465 19.51 10.31 44.758 10.31 44.758-58.967-30.226-20.574-91.82-20.574-91.82 50.75 26.48 29.596 79.478 29.596 79.478-3.83-6.18-13.424-22.407-19.332-32.415-1.446-2.955-3.072-5.762-4.916-8.34" fill="#00a651"/><path d="M120.334 151.945h-5.364l-1.008 5.365h6.05l-.312 1.538h-7.864l2.802-14.672h7.54l-.306 1.538h-5.696l-.9 4.714h5.373l-.316 1.517zM122.486 158.856l1.4-7.466c.24-1.178.395-2.206.503-3.076h1.64l-.277 2.068h.04c.963-1.484 2.39-2.313 3.948-2.313 1.244 0 2.675.725 2.675 2.922 0 .477-.096 1.157-.204 1.695l-1.18 6.17h-1.795l1.16-6.1c.067-.39.133-.9.133-1.36 0-1.04-.418-1.82-1.666-1.82-1.298 0-3.14 1.548-3.615 4.16l-.966 5.12h-1.794zM134.598 158.856l1.294-6.8c.265-1.375.418-2.768.53-3.742h1.592c-.066.734-.153 1.46-.278 2.28h.063c.7-1.44 1.82-2.525 3.245-2.525.174 0 .365.016.522.045l-.348 1.787c-.134-.02-.312-.042-.51-.042-1.552 0-2.957 1.89-3.413 4.337l-.875 4.66h-1.824zM145.376 146.366c-.63 0-1.074-.493-1.074-1.173.025-.717.577-1.29 1.257-1.29.674 0 1.134.515 1.134 1.182-.024.76-.572 1.28-1.293 1.28h-.024zm-3.395 12.487L144 148.31h1.816l-2.01 10.543h-1.825zM155.653 149.88c-.324-.194-.962-.372-1.75-.372-2.433 0-4.494 2.57-4.494 5.543 0 1.618.725 2.563 1.84 2.563 1.708 0 3.304-1.915 3.727-4.07l.676-3.662zm-2.546 13.284l1.298-6.223h-.042c-.9 1.386-2.342 2.153-3.685 2.153-2.098 0-3.16-1.762-3.16-3.83 0-3.537 2.633-7.193 6.754-7.193 1.402 0 2.637.352 3.396.696l-2.737 14.398h-1.823zM169.746 148.31l-1.45 7.475c-.216 1.173-.374 2.185-.457 3.06h-1.642l.282-1.965h-.05c-.962 1.368-2.342 2.213-3.748 2.213-1.347 0-2.802-.65-2.802-3.05 0-.498.066-1.09.2-1.784l1.16-5.95h1.795l-1.116 5.887c-.108.577-.175 1.074-.175 1.542 0 1.086.436 1.828 1.688 1.828 1.335 0 3.026-1.55 3.46-3.86l1.03-5.398h1.824zM178.593 150.814c0-.846-.655-1.327-1.617-1.327-1.737 0-3.03 1.68-3.47 3.333 2.852.042 5.087-.344 5.087-1.977v-.03zm.394 7.458c-.788.435-2.073.82-3.503.82-2.807 0-4.03-1.915-4.03-4.253 0-3.177 2.363-6.767 5.78-6.767 2.018 0 3.113 1.198 3.113 2.716 0 2.768-3.135 3.494-7.056 3.423-.09.46-.024 1.44.216 2.01.42.954 1.28 1.402 2.372 1.402 1.247 0 2.193-.357 2.848-.713l.26 1.36zM188.977 158.442c-.543.273-1.642.65-3.068.65-2.737 0-4.076-1.824-4.076-4.066 0-3.628 2.678-6.953 6.492-6.953.983 0 1.882.278 2.21.48l-.53 1.415c-.415-.195-1-.39-1.792-.39-2.76 0-4.498 2.695-4.498 5.2 0 1.72.904 2.834 2.633 2.834 1.097 0 1.91-.327 2.457-.584l.17 1.414zM198.445 150.814c0-.846-.66-1.327-1.625-1.327-1.73 0-3.022 1.68-3.458 3.333 2.844.042 5.083-.344 5.083-1.977v-.03zm.394 7.458c-.793.435-2.082.82-3.508.82-2.807 0-4.034-1.915-4.034-4.253 0-3.177 2.367-6.767 5.787-6.767 2.02 0 3.114 1.198 3.114 2.716 0 2.768-3.136 3.494-7.062 3.423-.087.46-.024 1.44.224 2.01.415.954 1.265 1.402 2.368 1.402 1.243 0 2.188-.357 2.848-.713l.26 1.36zM201.55 158.856l1.426-7.466c.224-1.178.373-2.206.48-3.076h1.605l-.285 1.98h.067c.986-1.483 2.32-2.225 3.718-2.225 1.63 0 2.392 1.023 2.48 2.362.945-1.534 2.3-2.346 3.876-2.363 1.23 0 2.59.79 2.59 2.773 0 .48-.07 1.202-.17 1.782l-1.19 6.23h-1.773l1.14-6.08c.087-.386.153-.937.153-1.377 0-1.103-.414-1.82-1.604-1.82-1.31 0-2.89 1.518-3.33 3.872l-1.007 5.406h-1.745l1.182-6.19c.078-.472.128-.87.128-1.276 0-.904-.24-1.812-1.575-1.812-1.344 0-2.985 1.746-3.4 3.98l-.99 5.298h-1.775zM224.188 157.654c2.147 0 3.768-2.74 3.768-5.198 0-1.227-.572-2.948-2.475-2.948-2.283 0-3.796 2.765-3.796 5.182 0 1.73.966 2.964 2.48 2.964h.024zm-.216 1.44c-2.657 0-4.146-1.958-4.146-4.333 0-3.486 2.434-6.69 5.875-6.69 2.865 0 4.163 2.155 4.163 4.386 0 3.258-2.326 6.637-5.874 6.637h-.018zM231.678 157.045c.485.302 1.4.655 2.28.655 1.227 0 2.01-.784 2.01-1.72 0-.822-.368-1.352-1.483-1.962-1.228-.68-1.903-1.588-1.903-2.682 0-1.853 1.592-3.267 3.85-3.267.942 0 1.8.264 2.19.53l-.502 1.368c-.373-.22-1.032-.485-1.82-.485-1.115 0-1.907.705-1.907 1.596 0 .758.506 1.243 1.468 1.765 1.182.672 1.978 1.588 1.978 2.79 0 2.214-1.8 3.458-4.058 3.458-1.136-.025-2.148-.353-2.63-.714l.528-1.335zM249.292 145.786l-.485 2.525h2.55l-.29 1.42h-2.538l-.967 5.14c-.137.588-.22 1.135-.22 1.682 0 .626.307 1.012 1.012 1.012.327 0 .613-.02.846-.083l-.082 1.423c-.328.12-.875.19-1.402.19-1.6 0-2.23-.96-2.23-2.05 0-.602.083-1.212.236-1.983l1.028-5.33h-1.51l.263-1.42h1.513l.373-1.943 1.902-.58zM262.266 148.31l-1.446 7.475c-.22 1.173-.37 2.185-.465 3.06h-1.64l.29-1.965h-.05c-.967 1.368-2.343 2.213-3.75 2.213-1.35 0-2.805-.65-2.805-3.05 0-.498.07-1.09.207-1.784l1.152-5.95h1.8l-1.12 5.887c-.108.577-.175 1.074-.175 1.542 0 1.086.444 1.828 1.688 1.828 1.34 0 3.026-1.55 3.46-3.86l1.038-5.398h1.816zM263.97 157.045c.482.302 1.406.655 2.285.655 1.227 0 2.015-.784 2.015-1.72 0-.822-.373-1.352-1.49-1.962-1.226-.68-1.91-1.588-1.91-2.682 0-1.853 1.605-3.267 3.86-3.267.94 0 1.795.264 2.193.53l-.51 1.368c-.373-.22-1.032-.485-1.82-.485-1.11 0-1.903.705-1.903 1.596 0 .758.506 1.243 1.468 1.765 1.18.672 1.973 1.588 1.973 2.79 0 2.214-1.794 3.458-4.057 3.458-1.14-.025-2.144-.353-2.625-.714l.523-1.335zM284.18 158.442c-.548.273-1.643.65-3.073.65-2.745 0-4.075-1.824-4.075-4.066 0-3.628 2.665-6.953 6.488-6.953.978 0 1.878.278 2.213.48l-.53 1.415c-.423-.195-1.003-.39-1.8-.39-2.752 0-4.485 2.695-4.485 5.2 0 1.72.89 2.834 2.632 2.834 1.095 0 1.9-.327 2.446-.584l.183 1.414zM296.972 148.31l-1.45 7.475c-.22 1.173-.37 2.185-.457 3.06h-1.642l.282-1.965h-.046c-.963 1.368-2.347 2.213-3.744 2.213-1.356 0-2.807-.65-2.807-3.05 0-.498.07-1.09.198-1.784l1.16-5.95h1.8l-1.128 5.887c-.107.577-.17 1.074-.17 1.542 0 1.086.436 1.828 1.688 1.828 1.335 0 3.018-1.55 3.46-3.86l1.034-5.398h1.82zM298.584 158.856l2.97-15.476h1.814l-2.964 15.476h-1.82zM308.707 145.786l-.485 2.525h2.545l-.286 1.42h-2.54l-.962 5.14c-.128.588-.22 1.135-.22 1.682 0 .626.307 1.012 1.008 1.012.335 0 .617-.02.862-.083l-.095 1.423c-.328.12-.875.19-1.406.19-1.596 0-2.226-.96-2.226-2.05 0-.602.076-1.212.233-1.983l1.033-5.33h-1.51l.266-1.42h1.51l.38-1.943 1.895-.58zM314.71 146.366c-.635 0-1.066-.493-1.066-1.173.017-.717.564-1.29 1.252-1.29.672 0 1.132.515 1.132 1.182-.02.76-.568 1.28-1.29 1.28h-.028zm-3.396 12.487l2.02-10.543h1.815l-2.012 10.543h-1.824zM319.14 148.31l.92 6.012c.15 1.198.308 2.027.324 2.595h.07c.24-.568.53-1.27 1.133-2.467l3.23-6.14h1.993l-5.895 10.535h-1.774l-1.844-10.535h1.845zM331.382 157.654c2.156 0 3.773-2.74 3.773-5.198 0-1.227-.577-2.948-2.484-2.948-2.275 0-3.784 2.765-3.784 5.182 0 1.73.962 2.964 2.48 2.964h.016zm-.21 1.44c-2.66 0-4.147-1.958-4.147-4.333 0-3.486 2.433-6.69 5.878-6.69 2.86 0 4.167 2.155 4.167 4.386 0 3.258-2.33 6.637-5.88 6.637h-.02zM338.877 157.045c.485.302 1.405.655 2.276.655 1.227 0 2.023-.784 2.023-1.72 0-.822-.37-1.352-1.493-1.962-1.227-.68-1.907-1.588-1.907-2.682 0-1.853 1.6-3.267 3.86-3.267.933 0 1.79.264 2.19.53l-.507 1.368c-.378-.22-1.038-.485-1.825-.485-1.115 0-1.9.705-1.9 1.596 0 .758.503 1.243 1.465 1.765 1.185.672 1.977 1.588 1.977 2.79 0 2.214-1.8 3.458-4.05 3.458-1.15-.025-2.156-.353-2.63-.714l.52-1.335z"/></svg>