<svg xmlns="http://www.w3.org/2000/svg" width="419.942" height="391.02"><defs><clipPath id="a"><path d="M439.75 638.202h71.865v66.906H439.75v-66.906z"/></clipPath></defs><path d="M5.298 377.01v-26.353h12.22v2.373H8.822v9.193h7.814v2.338H8.822v10.076h8.696v2.373H5.298z" fill="#fff"/><g clip-path="url(#a)" transform="matrix(5.84435 0 0 -5.84435 -2570.11 4120.894)"><path d="M440.666 640.6v4.508h2.09v-.406h-1.487v-1.573h1.336v-.4h-1.337v-1.725h1.487v-.406h-2.09z" fill="none" stroke="#fff" stroke-width="1.833" stroke-linecap="round" stroke-linejoin="round"/><path d="M445.51 640.6v2.536c0 .327-.138.688-.74.688-.328 0-.486-.046-.67-.125v-3.1h-.576v3.348c.314.15.727.25 1.29.25.984 0 1.273-.545 1.273-1.05v-2.55h-.577z" fill="#fff"/><path d="M445.51 640.6v2.536c0 .327-.138.688-.74.688-.328 0-.486-.046-.67-.125v-3.1h-.576v3.348c.314.15.727.25 1.29.25.984 0 1.273-.545 1.273-1.05v-2.55h-.577z" fill="none" stroke="#fff" stroke-width="1.833" stroke-linecap="round" stroke-linejoin="round"/><path d="M448.867 645.745h.577V640.6h-.577v5.145z" fill="#fff"/><path d="M448.867 645.745h.577V640.6h-.577v5.145z" fill="none" stroke="#fff" stroke-width="1.833" stroke-linecap="round" stroke-linejoin="round"/><path d="M450.46 644.132h.577V640.6h-.577v3.532zm.275.387h-.328l.46.897c.235.144.563.15.615-.007l-.747-.89z" fill="#fff"/><path d="M450.46 644.132h.577V640.6h-.577v3.532zm.275.387h-.328l.46.897c.235.144.563.15.615-.007l-.747-.89z" fill="none" stroke="#fff" stroke-width="1.833" stroke-linecap="round" stroke-linejoin="round"/><path d="M453.986 640.6v2.536c0 .327-.138.688-.74.688-.328 0-.486-.046-.67-.125v-3.1H452v3.348c.315.15.728.25 1.29.25.984 0 1.273-.545 1.273-1.05v-2.55h-.577z" fill="#fff"/><path d="M453.986 640.6v2.536c0 .327-.138.688-.74.688-.328 0-.486-.046-.67-.125v-3.1H452v3.348c.315.15.728.25 1.29.25.984 0 1.273-.545 1.273-1.05v-2.55h-.577z" fill="none" stroke="#fff" stroke-width="1.833" stroke-linecap="round" stroke-linejoin="round"/><path d="M456.76 643.824c-.512 0-.892-.413-.88-1.37l1.692.256c0 .8-.308 1.114-.813 1.114m-.86-1.678c.066-.8.44-1.193 1.075-1.193.4 0 .69.098.872.203l.15-.38c-.215-.13-.59-.243-1.068-.243-.925 0-1.574.584-1.574 1.842 0 1.2.59 1.823 1.423 1.823.844 0 1.356-.55 1.342-1.73l-2.222-.322z" fill="#fff"/><path d="M456.76 643.824c-.512 0-.892-.413-.88-1.37l1.692.256c0 .8-.308 1.114-.813 1.114m-.86-1.678c.066-.8.44-1.193 1.075-1.193.4 0 .69.098.872.203l.15-.38c-.215-.13-.59-.243-1.068-.243-.925 0-1.574.584-1.574 1.842 0 1.2.59 1.823 1.423 1.823.844 0 1.356-.55 1.342-1.73l-2.222-.322z" fill="none" stroke="#fff" stroke-width="1.833" stroke-linecap="round" stroke-linejoin="round"/><path d="M460.612 642.605c-.89-.112-1.422-.302-1.422-1.016 0-.512.314-.722.84-.722.222 0 .438.04.582.118v1.62zm-.63-2.07c-.917 0-1.343.4-1.343 1.04 0 .938.878 1.213 1.972 1.325v.216c0 .544-.328.702-.78.702-.34 0-.655-.125-.852-.223l-.138.34c.203.112.597.263 1.082.263.655 0 1.232-.282 1.232-1.147v-2.267c-.27-.15-.682-.25-1.173-.25" fill="#fff"/><path d="M460.612 642.605c-.89-.112-1.422-.302-1.422-1.016 0-.512.314-.722.84-.722.222 0 .438.04.582.118v1.62zm-.63-2.07c-.917 0-1.343.4-1.343 1.04 0 .938.878 1.213 1.972 1.325v.216c0 .544-.328.702-.78.702-.34 0-.655-.125-.852-.223l-.138.34c.203.112.597.263 1.082.263.655 0 1.232-.282 1.232-1.147v-2.267c-.27-.15-.682-.25-1.173-.25" fill="none" stroke="#fff" stroke-width="1.833" stroke-linecap="round" stroke-linejoin="round"/><path d="M465.103 640.534c-.773 0-1.344.695-1.344 1.835 0 1.16.57 1.828 1.356 1.828.433 0 .67-.138.78-.236l-.138-.334c-.104.078-.262.17-.524.17-.642 0-.89-.583-.89-1.41 0-.845.3-1.428.87-1.428.243 0 .407.08.538.17l.144-.36c-.138-.125-.4-.236-.793-.236" fill="#fff"/><path d="M465.103 640.534c-.773 0-1.344.695-1.344 1.835 0 1.16.57 1.828 1.356 1.828.433 0 .67-.138.78-.236l-.138-.334c-.104.078-.262.17-.524.17-.642 0-.89-.583-.89-1.41 0-.845.3-1.428.87-1.428.243 0 .407.08.538.17l.144-.36c-.138-.125-.4-.236-.793-.236" fill="none" stroke="#fff" stroke-width="1.833" stroke-linecap="round" stroke-linejoin="round"/><path d="M467.705 643.83c-.675 0-.806-.753-.806-1.468 0-.714.143-1.43.805-1.43.675 0 .8.722.8 1.43s-.125 1.468-.8 1.468m0-3.297c-.964 0-1.383.794-1.383 1.83 0 1.054.426 1.834 1.376 1.834.97 0 1.383-.78 1.383-1.835 0-1.035-.418-1.83-1.375-1.83" fill="#fff"/><path d="M467.705 643.83c-.675 0-.806-.753-.806-1.468 0-.714.143-1.43.805-1.43.675 0 .8.722.8 1.43s-.125 1.468-.8 1.468m0-3.297c-.964 0-1.383.794-1.383 1.83 0 1.054.426 1.834 1.376 1.834.97 0 1.383-.78 1.383-1.835 0-1.035-.418-1.83-1.375-1.83" fill="none" stroke="#fff" stroke-width="1.833" stroke-linecap="round" stroke-linejoin="round"/><path d="M471.86 640.6v2.536c0 .327-.136.688-.74.688-.327 0-.484-.046-.668-.125v-3.1h-.577v3.348c.314.15.728.25 1.29.25.984 0 1.273-.545 1.273-1.05v-2.55h-.577z" fill="#fff"/><path d="M471.86 640.6v2.536c0 .327-.136.688-.74.688-.327 0-.484-.046-.668-.125v-3.1h-.577v3.348c.314.15.728.25 1.29.25.984 0 1.273-.545 1.273-1.05v-2.55h-.577z" fill="none" stroke="#fff" stroke-width="1.833" stroke-linecap="round" stroke-linejoin="round"/><path d="M476.253 640.567c-.642 0-.878.46-.878.89v2.314h-.407v.36h.407v.815l.577.176v-.99h.616v-.36h-.616v-2.3c0-.282.124-.51.445-.51.06 0 .11.012.17.025v-.367c-.065-.02-.17-.052-.314-.052" fill="#fff"/><path d="M476.253 640.567c-.642 0-.878.46-.878.89v2.314h-.407v.36h.407v.815l.577.176v-.99h.616v-.36h-.616v-2.3c0-.282.124-.51.445-.51.06 0 .11.012.17.025v-.367c-.065-.02-.17-.052-.314-.052" fill="none" stroke="#fff" stroke-width="1.833" stroke-linecap="round" stroke-linejoin="round"/><path d="M478.534 640.527c-.885 0-1.252.446-1.252 1.154v2.452h.577v-2.47c0-.414.222-.73.707-.73.275 0 .472.047.635.146v3.054h.577v-3.323c-.263-.152-.676-.283-1.246-.283" fill="#fff"/><path d="M478.534 640.527c-.885 0-1.252.446-1.252 1.154v2.452h.577v-2.47c0-.414.222-.73.707-.73.275 0 .472.047.635.146v3.054h.577v-3.323c-.263-.152-.676-.283-1.246-.283" fill="none" stroke="#fff" stroke-width="1.833" stroke-linecap="round" stroke-linejoin="round"/><path d="M484.506 640.6v2.536c0 .327-.137.688-.74.688-.328 0-.485-.046-.67-.125v-3.1h-.576v3.348c.315.15.728.25 1.29.25.984 0 1.273-.545 1.273-1.05v-2.55h-.577z" fill="#fff"/><path d="M484.506 640.6v2.536c0 .327-.137.688-.74.688-.328 0-.485-.046-.67-.125v-3.1h-.576v3.348c.315.15.728.25 1.29.25.984 0 1.273-.545 1.273-1.05v-2.55h-.577z" fill="none" stroke="#fff" stroke-width="1.833" stroke-linecap="round" stroke-linejoin="round"/><path d="M487.28 643.824c-.512 0-.892-.413-.88-1.37l1.692.256c0 .8-.308 1.114-.813 1.114m-.86-1.678c.066-.8.44-1.193 1.075-1.193.4 0 .688.098.872.203l.15-.38c-.215-.13-.59-.243-1.068-.243-.925 0-1.574.584-1.574 1.842 0 1.2.59 1.823 1.423 1.823.844 0 1.356-.55 1.342-1.73l-2.222-.322z" fill="#fff"/><path d="M487.28 643.824c-.512 0-.892-.413-.88-1.37l1.692.256c0 .8-.308 1.114-.813 1.114m-.86-1.678c.066-.8.44-1.193 1.075-1.193.4 0 .688.098.872.203l.15-.38c-.215-.13-.59-.243-1.068-.243-.925 0-1.574.584-1.574 1.842 0 1.2.59 1.823 1.423 1.823.844 0 1.356-.55 1.342-1.73l-2.222-.322z" fill="none" stroke="#fff" stroke-width="1.833" stroke-linecap="round" stroke-linejoin="round"/><path d="M491.395 643.752c-.13.072-.302.098-.505.098-.714 0-1.022-.596-1.022-1.527 0-.91.295-1.422.97-1.422.223 0 .42.06.557.145v2.707zm-.8-4.634c-.465 0-.858.098-1.094.242l.178.387c.196-.112.504-.21.82-.21.648 0 .897.394.897.924v.25c-.157-.09-.4-.15-.708-.15-.846 0-1.39.668-1.39 1.743 0 1.12.544 1.895 1.606 1.895.492 0 .846-.118 1.05-.25v-3.42c0-.893-.512-1.41-1.358-1.41" fill="#fff"/><path d="M491.395 643.752c-.13.072-.302.098-.505.098-.714 0-1.022-.596-1.022-1.527 0-.91.295-1.422.97-1.422.223 0 .42.06.557.145v2.707zm-.8-4.634c-.465 0-.858.098-1.094.242l.178.387c.196-.112.504-.21.82-.21.648 0 .897.394.897.924v.25c-.157-.09-.4-.15-.708-.15-.846 0-1.39.668-1.39 1.743 0 1.12.544 1.895 1.606 1.895.492 0 .846-.118 1.05-.25v-3.42c0-.893-.512-1.41-1.358-1.41" fill="none" stroke="#fff" stroke-width="1.833" stroke-linecap="round" stroke-linejoin="round"/><path d="M494.128 643.83c-.675 0-.806-.753-.806-1.468 0-.714.144-1.43.806-1.43.675 0 .8.722.8 1.43s-.125 1.468-.8 1.468m0-3.297c-.963 0-1.383.794-1.383 1.83 0 1.054.426 1.834 1.377 1.834.97 0 1.383-.78 1.383-1.835 0-1.035-.42-1.83-1.377-1.83" fill="#fff"/><path d="M494.128 643.83c-.675 0-.806-.753-.806-1.468 0-.714.144-1.43.806-1.43.675 0 .8.722.8 1.43s-.125 1.468-.8 1.468m0-3.297c-.963 0-1.383.794-1.383 1.83 0 1.054.426 1.834 1.377 1.834.97 0 1.383-.78 1.383-1.835 0-1.035-.42-1.83-1.377-1.83" fill="none" stroke="#fff" stroke-width="1.833" stroke-linecap="round" stroke-linejoin="round"/><path d="M497.505 640.534c-.773 0-1.344.695-1.344 1.835 0 1.16.572 1.828 1.358 1.828.433 0 .67-.138.78-.236l-.138-.334c-.104.078-.262.17-.524.17-.642 0-.892-.583-.892-1.41 0-.845.302-1.428.872-1.428.243 0 .407.08.538.17l.144-.36c-.138-.125-.4-.236-.793-.236" fill="#fff"/><path d="M497.505 640.534c-.773 0-1.344.695-1.344 1.835 0 1.16.572 1.828 1.358 1.828.433 0 .67-.138.78-.236l-.138-.334c-.104.078-.262.17-.524.17-.642 0-.892-.583-.892-1.41 0-.845.302-1.428.872-1.428.243 0 .407.08.538.17l.144-.36c-.138-.125-.4-.236-.793-.236" fill="none" stroke="#fff" stroke-width="1.833" stroke-linecap="round" stroke-linejoin="round"/><path d="M499.032 644.132h.577V640.6h-.578v3.532zm.29.682c-.192 0-.343.144-.343.314 0 .177.15.322.34.322.184 0 .335-.145.335-.322 0-.17-.15-.314-.334-.314" fill="#fff"/><path d="M499.032 644.132h.577V640.6h-.578v3.532zm.29.682c-.192 0-.343.144-.343.314 0 .177.15.322.34.322.184 0 .335-.145.335-.322 0-.17-.15-.314-.334-.314" fill="none" stroke="#fff" stroke-width="1.833" stroke-linecap="round" stroke-linejoin="round"/><path d="M501.818 643.83c-.675 0-.806-.753-.806-1.468 0-.714.144-1.43.806-1.43.675 0 .8.722.8 1.43s-.125 1.468-.8 1.468m0-3.297c-.963 0-1.383.794-1.383 1.83 0 1.054.426 1.834 1.377 1.834.97 0 1.383-.78 1.383-1.835 0-1.035-.42-1.83-1.377-1.83" fill="#fff"/><path d="M501.818 643.83c-.675 0-.806-.753-.806-1.468 0-.714.144-1.43.806-1.43.675 0 .8.722.8 1.43s-.125 1.468-.8 1.468m0-3.297c-.963 0-1.383.794-1.383 1.83 0 1.054.426 1.834 1.377 1.834.97 0 1.383-.78 1.383-1.835 0-1.035-.42-1.83-1.377-1.83" fill="none" stroke="#fff" stroke-width="1.833" stroke-linecap="round" stroke-linejoin="round"/><path d="M440.666 640.6v4.508h2.09v-.406h-1.487v-1.573h1.336v-.4h-1.337v-1.725h1.487v-.406h-2.09zM445.51 640.6v2.536c0 .327-.138.688-.74.688-.328 0-.486-.046-.67-.125v-3.1h-.576v3.348c.314.15.727.25 1.29.25.984 0 1.273-.545 1.273-1.05v-2.55h-.577zM448.867 645.745h.577V640.6h-.577v5.145zM450.46 644.132h.577V640.6h-.577v3.532zm.275.387h-.328l.46.897c.235.144.563.15.615-.007l-.747-.89zM453.986 640.6v2.536c0 .327-.138.688-.74.688-.328 0-.486-.046-.67-.125v-3.1H452v3.348c.315.15.728.25 1.29.25.984 0 1.273-.545 1.273-1.05v-2.55h-.577zM456.76 643.824c-.512 0-.892-.413-.88-1.37l1.692.256c0 .8-.308 1.114-.813 1.114m-.86-1.678c.066-.8.44-1.193 1.075-1.193.4 0 .69.098.872.203l.15-.38c-.215-.13-.59-.243-1.068-.243-.925 0-1.574.584-1.574 1.842 0 1.2.59 1.823 1.423 1.823.844 0 1.356-.55 1.342-1.73l-2.222-.322zM460.612 642.605c-.89-.112-1.422-.302-1.422-1.016 0-.512.314-.722.84-.722.222 0 .438.04.582.118v1.62zm-.63-2.07c-.917 0-1.343.4-1.343 1.04 0 .938.878 1.213 1.972 1.325v.216c0 .544-.328.702-.78.702-.34 0-.655-.125-.852-.223l-.138.34c.203.112.597.263 1.082.263.655 0 1.232-.282 1.232-1.147v-2.267c-.27-.15-.682-.25-1.173-.25M465.103 640.534c-.773 0-1.344.695-1.344 1.835 0 1.16.57 1.828 1.356 1.828.433 0 .67-.138.78-.236l-.138-.334c-.104.078-.262.17-.524.17-.642 0-.89-.583-.89-1.41 0-.845.3-1.428.87-1.428.243 0 .407.08.538.17l.144-.36c-.138-.125-.4-.236-.793-.236M467.705 643.83c-.675 0-.806-.753-.806-1.468 0-.714.143-1.43.805-1.43.675 0 .8.722.8 1.43s-.125 1.468-.8 1.468m0-3.297c-.964 0-1.383.794-1.383 1.83 0 1.054.426 1.834 1.376 1.834.97 0 1.383-.78 1.383-1.835 0-1.035-.418-1.83-1.375-1.83M471.86 640.6v2.536c0 .327-.136.688-.74.688-.327 0-.484-.046-.668-.125v-3.1h-.577v3.348c.314.15.728.25 1.29.25.984 0 1.273-.545 1.273-1.05v-2.55h-.577zM476.253 640.567c-.642 0-.878.46-.878.89v2.314h-.407v.36h.407v.815l.577.176v-.99h.616v-.36h-.616v-2.3c0-.282.124-.51.445-.51.06 0 .11.012.17.025v-.367c-.065-.02-.17-.052-.314-.052M478.534 640.527c-.885 0-1.252.446-1.252 1.154v2.452h.577v-2.47c0-.414.222-.73.707-.73.275 0 .472.047.635.146v3.054h.577v-3.323c-.263-.152-.676-.283-1.246-.283M484.506 640.6v2.536c0 .327-.137.688-.74.688-.328 0-.485-.046-.67-.125v-3.1h-.576v3.348c.315.15.728.25 1.29.25.984 0 1.273-.545 1.273-1.05v-2.55h-.577zM487.28 643.824c-.512 0-.892-.413-.88-1.37l1.692.256c0 .8-.308 1.114-.813 1.114m-.86-1.678c.066-.8.44-1.193 1.075-1.193.4 0 .688.098.872.203l.15-.38c-.215-.13-.59-.243-1.068-.243-.925 0-1.574.584-1.574 1.842 0 1.2.59 1.823 1.423 1.823.844 0 1.356-.55 1.342-1.73l-2.222-.322zM491.395 643.752c-.13.072-.302.098-.505.098-.714 0-1.022-.596-1.022-1.527 0-.91.295-1.422.97-1.422.223 0 .42.06.557.145v2.707zm-.8-4.634c-.465 0-.858.098-1.094.242l.178.387c.196-.112.504-.21.82-.21.648 0 .897.394.897.924v.25c-.157-.09-.4-.15-.708-.15-.846 0-1.39.668-1.39 1.743 0 1.12.544 1.895 1.606 1.895.492 0 .846-.118 1.05-.25v-3.42c0-.893-.512-1.41-1.358-1.41M494.128 643.83c-.675 0-.806-.753-.806-1.468 0-.714.144-1.43.806-1.43.675 0 .8.722.8 1.43s-.125 1.468-.8 1.468m0-3.297c-.963 0-1.383.794-1.383 1.83 0 1.054.426 1.834 1.377 1.834.97 0 1.383-.78 1.383-1.835 0-1.035-.42-1.83-1.377-1.83M497.505 640.534c-.773 0-1.344.695-1.344 1.835 0 1.16.572 1.828 1.358 1.828.433 0 .67-.138.78-.236l-.138-.334c-.104.078-.262.17-.524.17-.642 0-.892-.583-.892-1.41 0-.845.302-1.428.872-1.428.243 0 .407.08.538.17l.144-.36c-.138-.125-.4-.236-.793-.236M499.032 644.132h.577V640.6h-.578v3.532zm.29.682c-.192 0-.343.144-.343.314 0 .177.15.322.34.322.184 0 .335-.145.335-.322 0-.17-.15-.314-.334-.314M501.818 643.83c-.675 0-.806-.753-.806-1.468 0-.714.144-1.43.806-1.43.675 0 .8.722.8 1.43s-.125 1.468-.8 1.468m0-3.297c-.963 0-1.383.794-1.383 1.83 0 1.054.426 1.834 1.377 1.834.97 0 1.383-.78 1.383-1.835 0-1.035-.42-1.83-1.377-1.83M499.047 705.107c2.068 0 3.852-1.682 3.852-3.75V667.25c0-2.067-1.79-3.724-3.86-3.724l-20.64.002h-3.94c-7.555.005-12.143-11.732-13.173-13.534-.17-.3-.482-.345-.674-.31-.397.063-.594.27-.605.65v13.194h-15.73c-2.067 0-3.744 1.655-3.744 3.722v34.108c0 2.067 1.677 3.75 3.745 3.75h54.767z" fill="#008bc8"/><path d="M506.012 677.375l.748 2.582h-2.6l.517 1.783h2.598l.748 2.582h1.733l-.748-2.582h2.606l-.516-1.783h-2.606l-.748-2.582h-1.732z" fill="#fff" fill-rule="evenodd"/><path d="M506.012 677.375l.748 2.582h-2.6l.517 1.783h2.598l.748 2.582h1.733l-.748-2.582h2.606l-.516-1.783h-2.606l-.748-2.582h-1.732z" fill="#008bc8" fill-rule="evenodd"/><path d="M495.962 670.454h-4.525l.626 9.973-6.865-9.973h-4.38l10.417 13.85h4.73l-.003-13.85z" fill="#fff" fill-rule="evenodd"/><path d="M470.826 673.876h3.55l.59-1.47.692 2.49 2.707 9.417 11.476-.002-2.23-2.98h-5.767l-.695-2.415h4.635l-2.093-2.794h-3.346l-1.626-5.666H465.533l.998 3.486 2.982 10.36h4.315l-3-10.424z" fill="#fff"/><path d="M464.883 670.454h-4.514l.624 9.97-6.865-9.97h-4.38l10.417 13.85h4.676l.04-13.85zM447.04 672.274h.364c.174 0 .292.026.354.077.064.053.096.122.096.207 0 .054-.016.103-.045.146-.032.045-.075.077-.13.098-.053.022-.152.033-.298.033h-.34v-.56zm-.297-1.044v1.855h.637c.217 0 .375-.02.472-.053.097-.034.175-.093.233-.178.058-.085.087-.176.087-.272 0-.135-.05-.253-.147-.354-.095-.1-.223-.157-.383-.17.065-.027.118-.06.157-.097.074-.072.165-.194.273-.366l.227-.364h-.366l-.164.293c-.13.23-.235.373-.313.432-.055.042-.135.062-.24.062h-.176v-.787h-.297zm.675 2.39c-.243 0-.478-.062-.708-.186-.228-.124-.407-.3-.537-.532-.13-.23-.193-.47-.193-.72 0-.248.062-.486.188-.714.13-.226.307-.404.535-.532.228-.126.466-.19.715-.19.25 0 .486.064.714.19.23.128.407.306.533.532.126.228.19.466.19.714 0 .25-.066.49-.195.72-.128.23-.307.408-.536.532-.23.124-.466.187-.706.187m0 .287c.29 0 .57-.075.847-.225.276-.147.49-.36.645-.637.153-.275.23-.563.23-.863 0-.297-.076-.582-.228-.856-.15-.273-.364-.486-.637-.638-.273-.152-.56-.226-.857-.226-.298 0-.585.074-.86.226-.27.152-.483.365-.636.638-.152.274-.23.56-.23.856 0 .3.08.588.233.863.155.277.37.49.645.637.276.15.558.225.848.225" fill="#fff" fill-rule="evenodd"/></g></svg>