<svg xmlns="http://www.w3.org/2000/svg" width="400" height="189.526"><defs><clipPath id="a"><path d="M297 690.656h118.5V726H297v-35.344z"/></clipPath></defs><path d="M105.41 105.97c2.986-7.728 5.97-15.45 8.955-23.182 4.39 8.252 8.783 16.51 13.172 24.757-8.48.847-15.028.328-22.126-1.576m15.705-59.197c-5.044 5.48-19.693 45.61-22.553 54.984-3.3-1.21-5.803-3.338-10.675-4.07-.978.06-2.454.332-2.683 1.34-.68 1.43-.375 3.172.717 3.78 1.083.61 6.538 3.105 9.523 4.51.124 7.565-8.898 20.123-6.36 27.1.936 1.52 1.794 1.925 3.8.948 7.01-5.06 6.007-16.458 10.734-23.655 0 0 18.45 4.852 27.8 1.773 2.99 6.495 6.468 13.744 9.458 20.233 10.358.312 20.794.843 29.333.702-20.353-39.748-34.897-67.147-44.403-85.695-1.456-2.62-2.922-3.838-4.69-1.95M399.37 87.078c-6.218-5.58-26.795-3.552-38.983-3.235.005-11.237.005-22.48.005-33.72h34.762c.182-1.754.353-3.506.53-5.264h-65.322V122.3h-2.106c-11.95-15.63-23.884-31.262-35.823-46.893-.358-.35-.707-.703-1.06-1.05 6.026-9.564 14.643-18.56 23.58-25.237.91-.827 1.457-1.555 1.182-2.683-.64-.978-1.274-1.253-2.63-1.05-11.166 6.104-21.41 17.664-28.45 27.918-2.82 4.103-4.3 9.36-8.43 12.116-.696.177-2.007.645-2.106-2.402V44.86h-28.975v90.09h28.45c.176-11.244.348-22.48.524-33.723 8.075 10.89 16.156 21.783 24.23 32.666 32.132.167 64.273.35 96.404.525.182-1.757.353-3.515.53-5.272h-34.767c-.177-12.813-.348-27.103-.525-39.92 10.44-3.063 23.15 2.06 36.504.686.36 0 2.288-.187 2.844-1.004.348-.53.452-.915-.37-1.83m-164.084 36.857c-12.252-1.648-17.53 3.266-28.725 4.685V44.33h-27.393c-.182 27.04-.353 54.09-.525 81.134-2.345.15-2.96.062-4.54 1.128-.977 1.826-.727 3.048.323 4.14 22.994 12.136 40.59-5.102 63.513-2.866.64.094 1.638-.124 1.81-.3.39-.615.39-1.343 0-2.107-1.26-1.254-2.996-1.254-4.462-1.525" fill="#223d89" fill-rule="evenodd"/><g clip-path="url(#a)" transform="matrix(5.19998 0 0 -5.19998 -1544.394 3777.318)"><path d="M298.902 714.714h1.73l-.348-1.727c-.215-.147-.47-.265-.77-.356-.3-.09-.595-.135-.89-.135-.51 0-.896.13-1.156.39-.312.31-.468.742-.468 1.293 0 .48.107.92.32 1.322.214.402.477.696.79.88.31.186.66.278 1.046.278.425 0 .776-.104 1.055-.313.28-.21.465-.527.558-.956l-.74-.088c-.132.457-.422.686-.872.686-.245 0-.47-.064-.675-.19-.205-.128-.375-.334-.51-.62-.133-.286-.2-.62-.2-1 0-.342.075-.593.226-.752.15-.16.367-.24.65-.24.16 0 .315.02.466.062.204.053.378.118.522.195l.12.598h-.987l.135.674zM301.472 715.48h.71l-.112-.566c.265.42.554.632.867.632.108 0 .227-.028.355-.083l-.29-.645c-.07.026-.143.04-.22.04-.118 0-.23-.035-.335-.103-.16-.104-.28-.24-.365-.41-.085-.167-.17-.457-.25-.867l-.19-.914h-.756l.586 2.916zM303.574 715.48h.76l-.346-1.72c-.04-.207-.06-.336-.06-.39 0-.088.03-.163.09-.222.06-.06.135-.09.222-.09.102 0 .203.03.303.093.14.088.25.2.334.338.083.138.154.34.213.603l.303 1.39h.76l-.633-2.916h-.712l.084.395c-.308-.308-.64-.462-.998-.462-.225 0-.405.067-.537.202-.133.134-.2.32-.2.556 0 .1.03.298.09.6l.327 1.624zM307.366 713.806c0-.23.052-.406.156-.53.105-.125.226-.188.364-.188.11 0 .218.04.325.12.107.08.204.227.29.44.087.216.13.437.13.664 0 .218-.05.385-.148.5-.1.116-.222.174-.368.174-.115 0-.226-.04-.333-.12-.107-.077-.203-.22-.287-.425-.085-.204-.127-.416-.127-.634m-.46 1.674h.722l-.06-.3c.156.138.3.233.43.286.13.053.268.08.41.08.287 0 .518-.104.695-.313.176-.21.265-.523.265-.942 0-.533-.157-.982-.47-1.344-.257-.3-.56-.448-.91-.448-.362 0-.638.155-.826.464l-.307-1.51h-.757l.81 4.028zM311.93 714.338c0 .192-.053.343-.16.453-.106.11-.24.166-.405.166-.137 0-.267-.04-.387-.12-.12-.082-.226-.222-.316-.42-.09-.2-.136-.407-.136-.622 0-.218.056-.387.166-.508.11-.12.248-.18.412-.18.206 0 .382.092.526.28.2.255.3.573.3.952m-2.16-.563c0 .478.126.884.38 1.22.28.367.687.55 1.22.55.4 0 .717-.114.954-.345.238-.23.356-.552.356-.964 0-.483-.147-.893-.443-1.23-.295-.34-.68-.508-1.157-.508-.39 0-.704.115-.947.344-.242.228-.363.54-.363.933" fill="#008557"/><path d="M318.07 696.447h-.49l-.402 2.128h.458l.285-1.61.924 1.61h.454l-1.228-2.128zM320.022 697.342l.002.04c0 .117-.028.204-.083.26-.054.056-.125.085-.213.085-.09 0-.17-.033-.242-.098-.073-.066-.122-.16-.146-.288h.682zm.37-.254h-1.098v-.04c0-.103.03-.185.093-.247.062-.06.136-.092.223-.092.143 0 .257.07.34.214l.392-.062c-.077-.15-.18-.262-.307-.337-.127-.074-.27-.11-.43-.11-.21 0-.384.063-.524.19-.138.13-.207.303-.207.523 0 .237.08.446.237.626.16.18.38.27.665.27.192 0 .348-.056.467-.17.12-.114.18-.278.18-.492 0-.102-.01-.193-.03-.272M320.894 697.988h.416l-.043-.2c.107.088.206.15.295.183.09.036.182.053.277.053.13 0 .232-.036.31-.106.078-.07.117-.167.117-.29 0-.054-.016-.156-.048-.306l-.19-.874h-.44l.193.874c.028.13.042.21.042.235 0 .055-.017.098-.05.127-.035.03-.08.045-.133.045-.06 0-.12-.02-.182-.055-.088-.053-.154-.115-.197-.187-.044-.072-.087-.207-.13-.406l-.14-.634h-.437l.338 1.542zM322.943 697.075c0-.112.028-.2.085-.26.057-.06.126-.09.207-.09.067 0 .132.02.196.062.064.042.12.116.167.223.047.106.07.216.07.33 0 .115-.03.206-.09.275-.062.068-.132.102-.21.102-.062 0-.124-.022-.187-.066-.064-.043-.12-.12-.166-.23-.047-.11-.07-.224-.07-.345m.974-.628h-.414l.04.168c-.08-.075-.158-.127-.233-.157-.074-.03-.156-.046-.245-.046-.16 0-.292.054-.394.16-.1.11-.152.27-.152.486 0 .254.073.48.22.674.148.194.337.29.568.29.213 0 .373-.08.48-.244l.184.797h.437l-.49-2.128zM325.567 697.342l.002.04c0 .117-.03.204-.084.26-.055.056-.126.085-.214.085-.09 0-.17-.033-.242-.098-.073-.066-.122-.16-.146-.288h.683zm.37-.254h-1.098v-.04c0-.103.03-.185.092-.247.062-.06.136-.092.223-.092.143 0 .257.07.34.214l.392-.062c-.077-.15-.18-.262-.307-.337-.128-.074-.27-.11-.43-.11-.21 0-.384.063-.524.19-.14.13-.208.303-.208.523 0 .237.08.446.237.626.16.18.38.27.665.27.192 0 .348-.056.467-.17.12-.114.18-.278.18-.492 0-.102-.01-.193-.03-.272M326.4 697.988h.414l-.043-.187c.164.15.335.223.514.223.24 0 .377-.09.415-.272.058.08.14.146.246.197.107.05.214.076.323.076.126 0 .228-.032.303-.095.075-.064.112-.152.112-.266 0-.053-.014-.144-.043-.274l-.206-.942h-.44l.207.943c.026.117.04.183.04.2 0 .043-.015.077-.044.1-.03.025-.07.037-.12.037-.107 0-.203-.052-.29-.154-.067-.08-.124-.22-.17-.424l-.15-.704h-.44l.204.932c.023.108.035.177.035.208 0 .043-.016.078-.047.103-.03.024-.07.037-.12.037-.063 0-.13-.024-.2-.07-.067-.048-.122-.116-.162-.206-.024-.052-.052-.15-.085-.295l-.156-.71h-.438l.338 1.543zM330.18 697.384c0 .102-.03.18-.09.24-.063.058-.14.086-.235.086-.08 0-.153-.02-.223-.063s-.13-.117-.182-.222c-.053-.106-.08-.215-.08-.328 0-.115.033-.205.097-.27.064-.063.143-.095.238-.095.12 0 .22.05.303.148.115.136.173.304.173.504m-1.245-.298c0 .253.073.468.22.645.16.195.396.293.703.293.23 0 .414-.06.55-.183.137-.122.206-.292.206-.51 0-.255-.085-.472-.256-.65-.17-.18-.392-.268-.667-.268-.223 0-.405.06-.545.18-.14.122-.21.286-.21.494M330.718 696.878l.423.064c.038-.087.086-.148.143-.182.056-.035.132-.052.226-.052.09 0 .162.017.218.05.056.035.084.074.084.12 0 .03-.012.057-.036.078-.024.02-.084.045-.178.074-.26.083-.423.148-.486.195-.1.076-.15.176-.15.3 0 .144.065.263.196.357.13.094.31.14.54.14.385 0 .61-.133.67-.4l-.402-.068c-.047.122-.16.183-.338.183-.084 0-.148-.013-.192-.04-.043-.027-.064-.062-.064-.103 0-.035.016-.065.05-.09.025-.017.11-.047.256-.088.21-.058.35-.114.42-.17.107-.08.16-.178.16-.293 0-.155-.068-.285-.203-.387-.135-.103-.314-.154-.537-.154-.438 0-.705.156-.8.466M333.68 697.988h.414l-.043-.187c.164.15.335.223.514.223.24 0 .377-.09.415-.272.058.08.14.146.246.197.107.05.214.076.323.076.126 0 .228-.032.303-.095.074-.064.112-.152.112-.266 0-.053-.014-.144-.043-.274l-.206-.942h-.44l.207.943c.026.117.04.183.04.2 0 .043-.015.077-.044.1-.03.025-.07.037-.12.037-.107 0-.204-.052-.29-.154-.067-.08-.124-.22-.17-.424l-.15-.704h-.44l.204.932c.023.108.035.177.035.208 0 .043-.016.078-.047.103-.03.024-.07.037-.12.037-.063 0-.13-.024-.2-.07-.068-.048-.122-.116-.163-.206-.024-.052-.052-.15-.085-.295l-.156-.71h-.438l.338 1.543zM337.175 698.618h.468l-.496-.435h-.29l.318.435zm-.007-1.453c-.026-.006-.06-.013-.103-.018-.2-.024-.33-.055-.395-.094-.063-.04-.095-.09-.095-.157 0-.05.018-.092.054-.124.035-.032.08-.048.136-.048.058 0 .114.014.167.04.053.027.095.064.127.11.032.05.063.127.092.237l.016.055zm-.402.387l-.427.034c.05.142.14.25.265.325.126.076.286.113.48.113.196 0 .348-.038.454-.114.105-.078.158-.18.158-.305 0-.044-.005-.09-.015-.14-.01-.05-.047-.188-.112-.41-.052-.185-.08-.313-.08-.386 0-.07.015-.143.044-.223h-.435c-.02.056-.03.115-.034.175-.062-.068-.133-.12-.213-.156-.08-.036-.16-.054-.24-.054-.127 0-.234.04-.32.122-.085.08-.128.19-.128.325 0 .155.05.275.152.36.1.083.27.134.505.152.208.016.347.036.418.06.023.058.035.105.035.14 0 .046-.02.083-.062.112-.04.03-.096.043-.166.043-.153 0-.247-.06-.28-.175M337.826 696.878l.424.064c.037-.087.084-.148.14-.182.057-.035.133-.052.227-.052.09 0 .164.017.22.05.055.035.083.074.083.12 0 .03-.012.057-.036.078-.024.02-.084.045-.178.074-.26.083-.423.148-.486.195-.1.076-.15.176-.15.3 0 .144.065.263.196.357.13.094.31.14.54.14.385 0 .61-.133.67-.4l-.402-.068c-.047.122-.16.183-.338.183-.084 0-.148-.013-.19-.04-.045-.027-.066-.062-.066-.103 0-.035.017-.065.05-.09.025-.017.11-.047.256-.088.21-.058.35-.114.422-.17.105-.08.157-.178.157-.293 0-.155-.067-.285-.202-.387-.135-.103-.314-.154-.537-.154-.438 0-.705.156-.8.466M340.966 697.06c0-.106.03-.19.087-.25.058-.06.128-.09.21-.09.067 0 .132.022.195.063.063.04.117.115.163.222.047.108.07.222.07.343 0 .117-.03.208-.09.272-.06.064-.13.097-.206.097-.06 0-.122-.023-.186-.067-.064-.044-.12-.123-.17-.236-.048-.113-.072-.23-.072-.355m.902.928h.4l-.427-2.13h-.438l.147.72c-.08-.063-.153-.106-.22-.13-.07-.024-.144-.036-.225-.036-.165 0-.295.05-.392.148-.112.115-.168.28-.168.492 0 .19.04.364.12.52.078.158.176.272.293.344.116.07.24.107.368.107.226 0 .39-.092.492-.277l.05.242zM342.693 697.988h.44l-.2-.91c-.024-.11-.036-.177-.036-.205 0-.047.017-.086.052-.118.034-.032.077-.047.127-.047.06 0 .117.016.175.05.08.044.145.104.193.177.048.073.09.18.123.32l.174.733h.44l-.367-1.542h-.41l.048.21c-.177-.163-.37-.244-.575-.244-.13 0-.233.035-.31.106-.077.072-.115.17-.115.294 0 .053.017.158.052.317l.188.858zM345.5 697.342v.04c0 .117-.027.204-.082.26-.055.056-.126.085-.214.085-.09 0-.17-.033-.242-.098-.073-.066-.122-.16-.146-.288h.683zm.37-.254h-1.1v-.04c0-.103.032-.185.094-.247.062-.06.136-.092.223-.092.143 0 .257.07.34.214l.39-.062c-.075-.15-.177-.262-.305-.337-.127-.074-.27-.11-.43-.11-.21 0-.384.063-.523.19-.14.13-.21.303-.21.523 0 .237.08.446.237.626.16.18.38.27.665.27.192 0 .347-.056.467-.17.12-.114.178-.278.178-.492 0-.102-.01-.193-.03-.272M346.84 696.878l.423.064c.037-.087.084-.148.142-.182.056-.035.132-.052.226-.052.09 0 .164.017.22.05.056.035.084.074.084.12 0 .03-.012.057-.036.078-.024.02-.084.045-.178.074-.26.083-.423.148-.486.195-.1.076-.15.176-.15.3 0 .144.065.263.196.357.13.094.31.14.54.14.385 0 .61-.133.67-.4l-.402-.068c-.047.122-.16.183-.338.183-.084 0-.148-.013-.192-.04-.043-.027-.064-.062-.064-.103 0-.035.016-.065.05-.09.024-.017.11-.047.256-.088.21-.058.35-.114.422-.17.105-.08.157-.178.157-.293 0-.155-.068-.285-.203-.387-.135-.103-.314-.154-.537-.154-.438 0-.705.156-.8.466M349.943 697.384c0 .102-.03.18-.092.24-.06.058-.14.086-.233.086-.08 0-.154-.02-.223-.063-.07-.043-.13-.117-.182-.222-.053-.106-.08-.215-.08-.328 0-.115.033-.205.097-.27.063-.063.142-.095.236-.095.12 0 .22.05.304.148.115.136.173.304.173.504m-1.246-.298c0 .253.073.468.22.645.16.195.396.293.703.293.23 0 .414-.06.55-.183.137-.122.206-.292.206-.51 0-.255-.086-.472-.256-.65-.17-.18-.392-.268-.667-.268-.225 0-.406.06-.546.18-.14.122-.21.286-.21.494M350.543 696.447l.466 2.128h.437l-.468-2.128h-.437zM351.707 697.988h.44l-.2-.91c-.024-.11-.036-.177-.036-.205 0-.047.018-.086.053-.118s.078-.047.128-.047c.06 0 .118.016.176.05.08.044.145.104.193.177.046.073.087.18.12.32l.176.733h.44l-.367-1.542h-.412l.05.21c-.18-.163-.37-.244-.577-.244-.128 0-.232.035-.31.106-.075.072-.113.17-.113.294 0 .053.017.158.052.317l.187.858zM354.405 697.027l.423-.067c-.07-.183-.175-.32-.313-.412-.138-.09-.295-.137-.472-.137-.2 0-.363.06-.487.173-.123.114-.185.276-.185.486 0 .188.042.356.126.503.083.148.197.26.34.336.143.075.295.113.457.113.184 0 .334-.046.452-.137.117-.09.184-.217.198-.38l-.416-.04c-.02.167-.106.25-.26.25-.07 0-.14-.022-.207-.068-.07-.045-.128-.127-.18-.244-.05-.117-.077-.245-.077-.383 0-.09.024-.16.072-.21.048-.05.105-.073.172-.073.07 0 .138.023.203.07.065.047.117.12.155.22M355.51 698.574h.438l-.083-.378h-.437l.082.378zm-.128-.586h.436l-.338-1.542h-.436l.338 1.542zM357.222 697.384c0 .102-.03.18-.092.24-.062.058-.14.086-.234.086-.08 0-.154-.02-.223-.063-.07-.043-.13-.117-.183-.222-.052-.106-.078-.215-.078-.328 0-.115.032-.205.096-.27.064-.063.143-.095.237-.095.12 0 .22.05.304.148.114.136.172.304.172.504m-1.246-.298c0 .253.073.468.22.645.16.195.396.293.703.293.23 0 .413-.06.55-.183.136-.122.204-.292.204-.51 0-.255-.085-.472-.255-.65-.17-.18-.393-.268-.668-.268-.224 0-.407.06-.546.18-.14.122-.21.286-.21.494M358.158 697.988h.415l-.042-.2c.108.088.206.15.296.183.09.036.182.053.277.053.13 0 .233-.036.31-.106.08-.07.118-.167.118-.29 0-.054-.015-.156-.047-.306l-.19-.874h-.438l.19.874c.03.13.044.21.044.235 0 .055-.018.098-.052.127-.034.03-.078.045-.132.045-.06 0-.12-.02-.182-.055-.09-.053-.154-.115-.198-.187-.043-.072-.086-.207-.13-.406l-.14-.634h-.436l.338 1.542zM360.925 697.342l.002.04c0 .117-.028.204-.083.26-.055.056-.126.085-.214.085-.09 0-.17-.033-.243-.098-.072-.066-.12-.16-.146-.288h.685zm.37-.254h-1.098v-.04c0-.103.03-.185.093-.247.062-.06.136-.092.223-.092.143 0 .257.07.34.214l.39-.062c-.075-.15-.178-.262-.305-.337-.128-.074-.27-.11-.43-.11-.21 0-.384.063-.524.19-.14.13-.21.303-.21.523 0 .237.08.446.24.626.158.18.38.27.664.27.192 0 .347-.056.467-.17.12-.114.18-.278.18-.492 0-.102-.01-.193-.03-.272M361.4 696.878l.422.064c.038-.087.084-.148.142-.182.056-.035.132-.052.226-.052.09 0 .163.017.22.05.055.035.083.074.083.12 0 .03-.012.057-.036.078-.024.02-.084.045-.178.074-.262.083-.424.148-.487.195-.1.076-.15.176-.15.3 0 .144.065.263.196.357.13.094.31.14.538.14.386 0 .61-.133.672-.4l-.403-.068c-.047.122-.16.183-.338.183-.085 0-.15-.013-.193-.04-.043-.027-.064-.062-.064-.103 0-.035.016-.065.05-.09.024-.017.11-.047.256-.088.208-.058.35-.114.42-.17.106-.08.158-.178.158-.293 0-.155-.067-.285-.202-.387-.135-.103-.314-.154-.537-.154-.44 0-.706.156-.8.466" fill="#de2516"/></g><path d="M172.054 0C102.62.05 45.322 18.862 21.966 48.39l3.526 2.823c1.73-2.146 3.67-4.25 5.816-6.31 9.992-9.588 24.427-18.01 42.2-24.568 26.66-9.835 60.778-15.492 98.596-15.53 12.606-.012 25.622.6 38.91 1.89 48.744 4.732 92.65 17.757 125.3 35.152l2.854-3.768C305.798 20.066 261.05 6.74 211.338 1.915 197.923.616 184.785-.01 172.053 0zM10.884 74.662c-.038.414-.073.828-.1 1.244C7.32 127.186 91.498 177.198 198.8 187.612c82.66 8.023 154.928-9.795 185.345-41.844l-2.466-4.037c-.905.975-1.854 1.938-2.85 2.893-9.99 9.588-24.425 18.014-42.197 24.57-35.546 13.114-84.35 18.8-137.507 13.64-53.156-5.16-100.563-20.182-133.888-39.98-16.662-9.9-29.78-21-38.356-32.39-8.575-11.39-12.583-22.83-11.82-34.142l.007-.09-4.185-1.568z" fill="#223d89"/></svg>