<svg xmlns="http://www.w3.org/2000/svg" width="350" height="234.494"><path d="M97.916 14.343c-1.218 2.472-2.428 4.945-3.646 7.41 24.226 12.21 50.592 18.57 77.05 19.115v-8.284c-25.203-.535-50.32-6.616-73.404-18.24" fill="#7cd4eb"/><path d="M255.725 21.755c-1.218-2.47-2.428-4.942-3.652-7.41-23.076 11.624-48.19 17.704-73.402 18.24v8.283c26.463-.538 52.826-6.904 77.055-19.113" fill="#bde3f5"/><path d="M288.147 28.484c-1.512-2.297-3.024-4.594-4.54-6.888-31.687 21.538-68.23 32.66-104.934 33.347v8.284c38.294-.697 76.426-12.28 109.474-34.743" fill="#6bcef3"/><path d="M66.394 21.596c-1.52 2.297-3.033 4.59-4.554 6.888 33.062 22.463 71.195 34.046 109.478 34.743v-8.284c-36.7-.688-73.242-11.81-104.924-33.347" fill="#bde3f5"/><path d="M318.558 33.357c-1.733-2.13-3.474-4.257-5.204-6.386-39.043 32.74-86.752 49.51-134.682 50.326v8.28c49.78-.818 99.336-18.215 139.886-52.22" fill="#6bcef3"/><path d="M36.643 26.97c-1.735 2.13-3.47 4.256-5.203 6.386 40.55 34.007 90.107 51.4 139.877 52.222v-8.284c-47.92-.815-95.63-17.586-134.674-50.324" fill="#006fba"/><path d="M350 34.575c-1.933-1.948-3.855-3.905-5.79-5.854-45.79 46.364-105.516 70.01-165.538 70.935v8.284c62.11-.933 123.933-25.382 171.328-73.365M5.783 28.722C3.855 30.67 1.928 32.624 0 34.576c47.39 47.982 109.212 72.43 171.317 73.363v-8.285c-60.01-.926-119.74-24.57-165.534-70.933" fill="#7cd4eb"/><path d="M336.01 76.327c-1.636-2.215-3.26-4.415-4.886-6.638-45.146 34.124-98.703 51.553-152.452 52.312v8.28c55.47-.76 110.743-18.74 157.34-53.955" fill="#a5e1f9"/><path d="M18.875 69.69c-1.628 2.222-3.256 4.423-4.89 6.637 46.598 35.216 101.874 53.19 157.334 53.956v-8.28c-53.745-.76-107.3-18.188-152.445-52.314" fill="#6bcef3"/><path d="M313.503 117.343c-1.29-2.44-2.597-4.86-3.89-7.293-40.77 22.29-85.796 33.727-130.94 34.316v8.283c46.48-.598 92.85-12.362 134.83-35.307M40.378 110.05c-1.29 2.43-2.583 4.855-3.884 7.293 41.983 22.943 88.347 34.71 134.823 35.307v-8.283c-45.142-.59-90.163-12.025-130.94-34.316" fill="#009bda"/><path d="M277.018 157.834l-2.65-7.828c-30.975 10.756-63.31 16.327-95.697 16.726v8.276c33.295-.4 66.515-6.12 98.348-17.174" fill="#006fba"/><path d="M75.63 150.008c-.88 2.608-1.764 5.22-2.652 7.827 31.824 11.054 65.053 16.777 98.34 17.174v-8.28c-32.385-.396-64.715-5.966-95.69-16.722" fill="#bde3f5"/><path d="M203.09 0h-56.858v7.2h56.858V0z" fill="#006fba"/><path d="M70.413 220.136l1.676 5.562c.07.243.123.473.168.705.048.227.094.428.13.612.048.18.074.33.088.456.025.134.037.207.037.233 0-.026.02-.1.048-.232l.12-.475c.042-.196.1-.405.166-.62.07-.22.14-.445.22-.677l2.12-6.684h1.657l2.04 6.627c.08.273.153.53.213.797.056.255.11.48.15.67.053.233.104.45.144.636.036-.238.08-.454.127-.658.045-.203.102-.427.167-.693.07-.26.144-.533.24-.813l1.66-5.342-1.38-.683v-.524h4.22v.525l-1.2.66-3.156 9.048h-1.702l-2.057-6.71c-.058-.126-.106-.288-.154-.48-.042-.2-.088-.39-.116-.58-.037-.205-.065-.372-.09-.54-.03-.157-.046-.276-.046-.336-.008.06-.033.173-.067.326-.037.156-.074.334-.12.532-.05.2-.092.402-.15.61-.053.214-.106.39-.157.532l-2.157 6.646h-1.7l-2.9-9.127-1.262-.58v-.525h4.498v.525l-1.475.58zM87.938 220.136l1.68 5.562c.07.243.123.473.168.705.048.227.093.428.136.612.037.18.068.33.082.456.022.134.037.207.037.233 0-.026.015-.1.05-.232.033-.124.072-.28.115-.475.045-.196.107-.405.175-.62.062-.22.135-.445.217-.677l2.12-6.684h1.657l2.04 6.627c.085.273.153.53.21.797.062.255.113.48.15.67.053.233.1.45.138.636.04-.238.082-.454.13-.658.045-.203.107-.427.172-.693.068-.26.144-.533.238-.813l1.66-5.342-1.38-.683v-.524h4.222v.525l-1.204.66-3.16 9.048h-1.696l-2.06-6.71c-.048-.126-.102-.288-.147-.48-.048-.2-.09-.39-.127-.58-.03-.205-.06-.372-.085-.54-.026-.157-.04-.276-.04-.336-.014.06-.037.173-.07.326-.034.156-.07.334-.12.532-.047.2-.095.402-.146.61-.055.214-.11.39-.162.532l-2.163 6.646h-1.698l-2.895-9.127-1.257-.58v-.525h4.49v.525l-1.477.58zM105.47 220.136l1.68 5.562c.065.243.122.473.167.705.048.227.096.428.136.612.042.18.067.33.084.456.023.134.032.207.032.233 0-.026.018-.1.05-.232.036-.124.076-.28.118-.475.045-.196.1-.405.167-.62.07-.22.144-.445.223-.677l2.114-6.684h1.665l2.04 6.627c.074.273.148.53.207.797.06.255.113.48.153.67.05.233.1.45.14.636.035-.238.08-.454.128-.658.046-.203.102-.427.17-.693.068-.26.147-.533.24-.813l1.66-5.342-1.383-.683v-.524h4.218v.525l-1.2.66-3.156 9.048h-1.702l-2.055-6.71c-.053-.126-.107-.288-.152-.48-.045-.2-.082-.39-.12-.58-.03-.205-.058-.372-.087-.54-.025-.157-.042-.276-.042-.336-.014.06-.037.173-.07.326-.032.156-.07.334-.122.532-.045.2-.096.402-.15.61-.048.214-.105.39-.15.532l-2.162 6.646h-1.7l-2.9-9.127-1.265-.58v-.525h4.505v.525l-1.48.58zM123.918 228.264c0 .442-.093.76-.28.932-.186.19-.5.27-.938.27-.47 0-.797-.092-.99-.28-.2-.18-.288-.49-.288-.922 0-.422.088-.733.29-.923.19-.183.51-.277.968-.277.438 0 .758.094.947.278.195.19.29.502.29.924M131.056 224.33c-.47.06-.9.174-1.292.33-.392.16-.72.394-.98.694-.26.3-.39.7-.39 1.21 0 .56.15.996.455 1.293.295.303.722.453 1.265.453.24 0 .46-.05.678-.136.215-.087.41-.195.6-.328.19-.14.36-.286.517-.465.16-.166.316-.344.463-.514V224.2c-.412.035-.85.075-1.317.13m1.317 3.757c-.373.433-.777.767-1.212 1.022-.423.25-.946.376-1.545.376-.877 0-1.57-.26-2.078-.78-.51-.526-.76-1.23-.76-2.115 0-.71.192-1.29.568-1.72.38-.434.856-.77 1.42-1.006.564-.243 1.175-.41 1.828-.52.653-.094 1.252-.168 1.8-.225-.01 0-.014-.06-.008-.193.003-.128.008-.26.008-.408v-.604c0-.24-.054-.46-.17-.66-.112-.196-.26-.374-.44-.533-.18-.15-.385-.27-.622-.356-.228-.09-.466-.128-.71-.128-.42 0-.796.03-1.124.098-.33.065-.667.213-1.012.46l-.715 1.72h-.524v-2.28h.02c.308-.23.594-.427.857-.582.268-.167.548-.295.83-.394.286-.1.594-.17.92-.218.333-.05.703-.074 1.13-.074.4 0 .79.068 1.173.193.38.127.712.31 1.006.54.294.236.523.513.7.842.174.326.253.677.244 1.07v6.052l1.654.536v.464l-3.237.836v-1.416zM144.088 222.3h-.523l-.738-1.72c-.438-.187-.88-.28-1.317-.28-.238 0-.478.016-.71.053-.23.045-.443.116-.633.232-.183.12-.34.27-.458.465-.122.195-.182.447-.182.747 0 .35.12.618.357.82.226.208.525.38.88.548.363.156.748.306 1.155.456.404.15.786.34 1.144.582.362.235.656.54.896.912.23.362.345.832.345 1.41 0 .5-.1.946-.308 1.322-.206.37-.475.677-.808.912-.34.247-.705.428-1.123.55-.413.113-.823.178-1.235.178-.588 0-1.125-.07-1.614-.212-.49-.14-.96-.354-1.408-.623v-2.545h.523l.718 1.74c.238.135.493.23.76.302.264.062.583.096.956.096.484 0 .905-.116 1.27-.346.367-.235.554-.623.554-1.15 0-.416-.12-.74-.35-.982-.238-.244-.53-.445-.883-.612-.353-.167-.737-.32-1.147-.453-.416-.125-.797-.31-1.148-.515-.356-.224-.647-.493-.885-.84-.234-.336-.347-.792-.347-1.344 0-.537.107-.99.328-1.367.22-.368.506-.677.853-.906.343-.238.73-.405 1.146-.51.42-.09.83-.14 1.232-.14.427 0 .89.058 1.397.174.508.123.94.287 1.303.51v2.54zM151.187 224.33c-.472.06-.904.174-1.294.33-.393.16-.718.394-.98.694-.258.3-.39.7-.39 1.21 0 .56.148.996.45 1.293.303.303.725.453 1.267.453.24 0 .47-.05.68-.136.216-.087.417-.195.603-.328.184-.14.357-.286.518-.465.165-.166.314-.344.46-.514V224.2c-.41.035-.852.075-1.313.13m1.314 3.757c-.372.433-.776.767-1.214 1.022-.427.25-.944.376-1.55.376-.872 0-1.568-.26-2.076-.78-.504-.526-.758-1.23-.758-2.115 0-.71.192-1.29.574-1.72.376-.434.85-.77 1.416-1.006.565-.243 1.18-.41 1.83-.52.657-.094 1.245-.168 1.8-.225-.015 0-.018-.06-.01-.193.004-.128.01-.26.01-.408v-.604c0-.24-.06-.46-.17-.66-.113-.196-.263-.374-.44-.533-.182-.15-.383-.27-.626-.356-.232-.09-.46-.128-.707-.128-.422 0-.8.03-1.126.098-.327.065-.664.213-1.01.46l-.722 1.72h-.517v-2.28h.02c.302-.23.593-.427.86-.582.264-.167.54-.295.827-.394.285-.1.59-.17.92-.218.33-.05.705-.074 1.126-.074.407 0 .792.068 1.173.193.383.127.72.31 1.007.54.297.236.526.513.7.842.17.326.26.677.242 1.07v6.052l1.655.536v.464l-3.234.836v-1.416zM160.834 220.78c.413-.47.888-.875 1.42-1.21.534-.325 1.12-.495 1.757-.495.618 0 1.186.148 1.703.46.52.305.848.775.978 1.404.22-.233.445-.457.69-.686.25-.227.515-.43.795-.598.274-.173.565-.317.876-.422.315-.108.623-.16.942-.16.998 0 1.736.26 2.208.79.472.528.704 1.273.69 2.23v5.914l1.78.74v.514h-5.1v-.515l1.638-.722v-6.013c0-.48-.144-.875-.438-1.158-.29-.275-.68-.416-1.162-.416-.27 0-.54.06-.79.164-.245.116-.476.263-.697.46-.216.183-.43.39-.638.613-.206.227-.415.465-.61.7l.022 5.633 1.66.74v.514h-4.86v-.515l1.522-.722v-5.987c0-.493-.16-.884-.48-1.173-.32-.286-.725-.427-1.202-.427-.303 0-.59.06-.828.164-.246.116-.484.263-.7.46-.22.183-.425.39-.61.613-.186.227-.375.448-.562.663v5.67l1.665.74v.514h-5.024v-.515l1.742-.722v-7.228l-1.857-.543v-.456l3.474-.827v1.81zM184.82 223.96c0-.452-.06-.894-.185-1.333-.128-.43-.314-.82-.563-1.16-.246-.336-.56-.613-.93-.823-.373-.206-.797-.306-1.277-.306-.585 0-1.08.168-1.464.533-.4.363-.737.794-1.014 1.292v4.79c.277.43.653.76 1.122.982.466.224.938.33 1.42.33.57 0 1.045-.143 1.418-.435.373-.298.667-.66.887-1.083.218-.424.373-.895.455-1.393.088-.5.133-.97.133-1.393m-5.434-9.67v6.244c.387-.453.808-.807 1.258-1.07.455-.258.983-.39 1.585-.39.743 0 1.387.132 1.933.4.545.264.995.63 1.345 1.06.36.447.62.963.792 1.543.172.59.262 1.2.262 1.84 0 .686-.09 1.358-.262 2.012-.173.662-.447 1.262-.82 1.783-.368.53-.84.954-1.408 1.277-.568.34-1.243.496-2.03.496-.624 0-1.15-.077-1.58-.224-.423-.144-.808-.382-1.16-.716l-1.556.716v-13.19l-1.88-.56v-.45l3.52-.773zM188.76 215.025l3.56-.818v13.8l1.873.742v.512h-5.317v-.513l1.76-.743V216.03l-1.876-.546v-.46zM202.824 222.027c-.105-.328-.266-.61-.486-.846-.215-.243-.495-.435-.817-.58-.324-.136-.703-.2-1.12-.2-.437 0-.8.07-1.1.228-.3.153-.546.354-.747.595-.2.252-.356.54-.472.86-.112.332-.203.66-.268.998h5.14c.013-.376-.032-.727-.128-1.053m-5.094 2.23c-.005.532.026 1.036.108 1.506.093.467.237.878.446 1.232.204.35.486.63.837.84.354.208.792.312 1.312.312.557 0 1.092-.104 1.6-.31.5-.21.953-.502 1.334-.887l.88.858c-.518.515-1.066.93-1.657 1.232-.586.3-1.26.447-2.02.447-.81 0-1.5-.142-2.065-.413-.57-.275-1.035-.638-1.394-1.105-.355-.47-.615-1.02-.773-1.646-.16-.626-.243-1.297-.243-2.025 0-.653.09-1.29.28-1.907.186-.63.47-1.187.842-1.682.373-.49.828-.886 1.36-1.183.528-.31 1.15-.45 1.856-.45.727 0 1.357.124 1.866.382.517.25.938.58 1.263 1.004.324.425.564.904.708 1.442.147.54.218 1.093.218 1.656v.694h-6.756zM211.165 224.33c-.466.06-.898.174-1.29.33-.397.16-.72.394-.98.694-.262.3-.387.7-.387 1.21 0 .56.147.996.447 1.293.3.303.727.453 1.27.453.24 0 .466-.05.675-.136.22-.087.418-.195.605-.328.183-.14.36-.286.523-.465.155-.166.31-.344.457-.514V224.2c-.415.035-.856.075-1.32.13m1.32 3.757c-.378.433-.78.767-1.212 1.022-.435.25-.95.376-1.552.376-.872 0-1.57-.26-2.076-.78-.506-.526-.76-1.23-.76-2.115 0-.71.194-1.29.573-1.72.38-.434.854-.77 1.413-1.006.57-.243 1.182-.41 1.832-.52.658-.094 1.255-.168 1.803-.225-.017 0-.017-.06-.014-.193.01-.128.015-.26.015-.408v-.604c0-.24-.06-.46-.175-.66-.113-.196-.257-.374-.435-.533-.184-.15-.39-.27-.622-.356-.232-.09-.472-.128-.707-.128-.432 0-.803.03-1.133.098-.325.065-.664.213-1.004.46l-.727 1.72h-.512v-2.28h.015c.306-.23.6-.427.86-.582.265-.167.542-.295.83-.394.286-.1.59-.17.917-.218.327-.05.706-.074 1.127-.074.404 0 .796.068 1.172.193.38.127.718.31 1.01.54.293.236.528.513.695.842.178.326.257.677.246 1.07v6.052l1.653.536v.464l-3.23.836v-1.416zM220.658 228.264c0 .442-.09.76-.283.932-.183.19-.494.27-.938.27-.466 0-.794-.092-.986-.28-.194-.18-.288-.49-.288-.922 0-.422.094-.733.29-.923.19-.183.51-.277.968-.277.44 0 .755.094.947.278.195.19.29.502.29.924M229.89 222.393c-.01-.23-.05-.493-.106-.768-.062-.27-.164-.52-.308-.753-.15-.227-.345-.414-.59-.567-.247-.147-.575-.223-.97-.223-.323 0-.603.065-.848.184-.246.127-.458.297-.625.52-.164.22-.286.477-.368.768-.076.3-.115.615-.098.95.01.274.062.548.15.817.087.265.214.506.378.707.167.212.368.376.6.504.23.125.502.19.81.19.704 0 1.22-.218 1.538-.66.32-.438.467-.996.438-1.667m.68 8.538c-.074-.483-.23-.85-.458-1.118-.226-.26-.492-.45-.8-.572-.305-.133-.656-.218-1.035-.29-.393-.052-.788-.126-1.18-.23-.253.138-.516.29-.773.458-.26.167-.494.357-.695.58-.213.222-.377.468-.507.737-.122.277-.178.597-.167.954.014.4.1.724.252.982.15.252.347.442.588.598.24.136.503.226.785.27.293.05.58.072.875.072.333 0 .684-.045 1.054-.14.378-.09.72-.242 1.034-.432.313-.195.562-.442.757-.75.2-.31.284-.677.27-1.12m-4.673-2.406c-.186-.04-.407-.082-.66-.14-.253-.044-.5-.132-.73-.225-.232-.106-.436-.23-.6-.387-.17-.153-.254-.36-.268-.61-.015-.236.053-.47.194-.684.15-.208.328-.403.537-.567.2-.17.417-.312.643-.453.23-.133.418-.24.582-.34-.373-.295-.664-.663-.882-1.105-.21-.436-.33-.963-.356-1.577-.023-.52.05-.986.232-1.422.177-.427.428-.796.76-1.104.32-.306.697-.544 1.12-.722.43-.168.886-.253 1.36-.253.204 0 .433.017.68.046.26.034.525.1.802.19l3.16-.3v.682l-1.662.762c.192.23.345.507.475.832.124.325.2.738.226 1.243.015.523-.067.996-.25 1.416-.176.423-.427.78-.747 1.08-.32.3-.692.53-1.133.706-.43.167-.894.246-1.388.246-.345 0-.66-.034-.94-.1-.278-.067-.52-.13-.717-.206-.065.043-.155.105-.25.173-.103.075-.2.16-.29.248-.09.085-.175.178-.24.29-.065.115-.1.237-.1.376 0 .147.04.263.12.354.085.085.226.158.44.218.213.062.5.116.872.175.36.06.84.14 1.424.24.482.073.948.175 1.412.29.458.123.873.304 1.238.525.364.232.67.518.91.86.24.352.373.794.398 1.326.026.692-.1 1.284-.384 1.78-.288.49-.66.894-1.12 1.2-.463.306-.97.538-1.53.683-.564.144-1.104.22-1.64.22-.442 0-.908-.03-1.39-.093-.488-.06-.937-.192-1.347-.393-.415-.213-.763-.507-1.04-.907-.283-.388-.435-.93-.46-1.614-.026-.433.064-.83.282-1.167.205-.34.463-.627.748-.873.28-.246.57-.436.856-.59.29-.152.506-.262.653-.333M241.865 224.276c0-.45-.048-.91-.138-1.385-.093-.475-.252-.902-.48-1.29-.227-.394-.524-.7-.9-.95-.373-.234-.833-.35-1.38-.35-.547 0-1.005.116-1.39.35-.378.25-.692.556-.946.95-.254.388-.44.815-.553 1.29-.105.477-.167.936-.167 1.386 0 .473.062.943.167 1.416.113.473.294.898.537 1.286.24.377.55.688.935.923.386.247.853.364 1.418.364.532 0 .98-.117 1.348-.363.37-.234.667-.545.902-.922.235-.388.396-.813.498-1.286.1-.473.15-.943.15-1.416m1.738 0c0 .71-.105 1.376-.32 2.008-.215.626-.52 1.175-.916 1.65-.4.474-.887.854-1.464 1.13-.568.28-1.22.423-1.953.423-.79 0-1.48-.13-2.082-.402-.596-.26-1.094-.626-1.5-1.1-.394-.463-.702-1.018-.894-1.653-.204-.634-.303-1.317-.303-2.056 0-.69.112-1.35.344-1.977.226-.63.548-1.18.966-1.666.424-.476.924-.864 1.515-1.144.6-.278 1.26-.413 1.993-.413.786 0 1.467.13 2.052.4.574.26 1.06.63 1.44 1.1.377.465.657 1.017.85 1.654.183.64.274 1.32.274 2.046M254.26 223.96c0-.452-.07-.894-.187-1.333-.13-.43-.317-.82-.57-1.16-.242-.336-.547-.613-.926-.823-.373-.206-.8-.306-1.274-.306-.588 0-1.077.168-1.47.533-.396.363-.732.794-1.01 1.292v4.79c.278.43.65.76 1.123.982.463.224.938.33 1.416.33.574 0 1.05-.143 1.42-.435.37-.298.663-.66.886-1.083.218-.424.376-.895.455-1.393.088-.5.136-.97.136-1.393m-5.436-9.67v6.244c.38-.453.805-.807 1.255-1.07.454-.258.98-.39 1.582-.39.75 0 1.396.132 1.94.4.544.264.99.63 1.347 1.06.35.447.612.963.787 1.543.176.59.258 1.2.258 1.84 0 .686-.082 1.358-.258 2.012-.175.662-.446 1.262-.822 1.783-.37.53-.84.954-1.41 1.277-.566.34-1.24.496-2.027.496-.622 0-1.15-.077-1.575-.224-.43-.144-.816-.382-1.164-.716l-1.56.716v-13.19l-1.88-.56v-.45l3.524-.773zM261.433 228.264c0 .442-.087.76-.277.932-.192.19-.5.27-.94.27-.465 0-.795-.092-.988-.28-.2-.18-.296-.49-.296-.922 0-.422.096-.733.296-.923.193-.183.512-.277.967-.277.44 0 .755.094.95.278.192.19.288.502.288.924M264.113 219.798l3.542-.827v1.828c.384-.47.837-.88 1.365-1.215.53-.337 1.088-.507 1.69-.507 1.01 0 1.81.224 2.39.688.58.462.858 1.196.85 2.21v6.032l1.76.742v.515h-5.104v-.515l1.665-.742v-5.956c0-.317-.067-.575-.19-.776-.13-.198-.278-.357-.462-.467-.175-.12-.376-.19-.585-.23-.218-.042-.413-.07-.583-.07-.32 0-.61.065-.867.178-.263.116-.503.258-.718.447-.224.173-.433.377-.633.6-.198.23-.396.46-.577.683v5.59l1.555.743v.515h-4.998v-.515l1.758-.742v-7.208l-1.857-.544v-.456zM281.404 215.628c0 .75-.413 1.12-1.238 1.12-.843 0-1.264-.358-1.264-1.075 0-.733.42-1.102 1.264-1.102.825 0 1.238.353 1.238 1.058m-3.997 4.004l3.536-.82v9.194l1.66.742v.513h-5.08v-.512l1.76-.742v-7.37l-1.876-.534v-.47z" fill="#808184"/></svg>