<svg xmlns="http://www.w3.org/2000/svg" width="400" height="194.36"><path d="M3.09 178.6c-9.11 11.048 3.985 20.12 12.662 13.533 7.026-6.158 14.057-12.37 16.29-19.643 3.688.34 7.376-1.46 11.064-4.22 4.21 5.063 22.103 1.43 43.797-2.476 50.803-6.36 103.676-5.773 154.824-11.058 32.17-1.415 91.523 4.886 93.564-1.016 5.73.246 11.292.315 14.55-1.745 9.458 1.607 19.437-2.234 22.12-8.15 1.473-1.894-.81-4.078-.346-6.124 2.4.105 4.57 1.12 6.592 2.767l1.444 2.46c.37.552 1.682.188 1.652-.424l-.335-3.693c1.903-.848 3.278-2.11 4.304-3.648 8.698.937 12.258-3.575 12.943-6.44.646-1.636.69-3.79-.005-5.142-2.248-1.587-4.644-4.338-6.96-6.508-4.77-.97-6.86 3.052-10.834 3.6l-17.685.6c-31.457.297-64.663.233-94.38-2.474-59.725-.75-135.53-3.303-194.4 12.804-7.996-.478-19.775.646-18.478 9.895-.365 5.044-2.697 7.978-6.553 9.536l-4.68 3.505c-1.228.12-2.19 1.006-3.032 2.673-2.81-.478-4.822 1.174-6.474 3.792-4.585.75-7.43 2.865-8.524 6.326-3.93 8.115-15.852 5.625-23.12 11.27" fill="#231f20" fill-rule="evenodd"/><path d="M74.382 142.315l-1.297-3.496-1.32 3.495h2.617zm-3.09 1.297l-1.037 2.682h-1.41l3.595-9.205h1.296l3.6 9.204h-1.46l-1.01-2.682H71.29z" fill="#fff"/><path d="M74.382 142.315l-1.297-3.496-1.32 3.495h2.617zm-3.09 1.297l-1.037 2.682h-1.41l3.595-9.205h1.296l3.6 9.204h-1.46l-1.01-2.682H71.29z" fill="none" stroke="#fff" stroke-width=".12326" stroke-miterlimit="2.414"/><path d="M77.353 143.636h1.198c.02.478.16.858.42 1.144.262.28.602.424 1.02.424.46 0 .824-.143 1.1-.424.276-.286.415-.666.415-1.144 0-.42-.1-.74-.3-.967-.203-.227-.627-.444-1.273-.642-.035-.01-.09-.02-.168-.044-.774-.207-1.33-.542-1.676-1.016-.158-.207-.27-.43-.35-.66-.08-.237-.12-.483-.12-.75 0-.79.233-1.425.702-1.913.468-.488 1.08-.73 1.84-.73.704 0 1.27.218 1.704.656.434.435.67 1.032.72 1.79h-1.247c-.025-.364-.143-.66-.37-.886-.227-.227-.508-.34-.848-.34-.37 0-.667.128-.898.38-.227.25-.345.57-.345.97 0 .138.02.267.064.39.045.123.11.237.198.34.177.217.567.404 1.164.557.27.075.483.134.63.184.607.23 1.066.557 1.38.996.317.433.474.95.474 1.558 0 .892-.256 1.607-.76 2.15-.507.547-1.177.818-2.01.818-.784 0-1.42-.262-1.913-.784-.493-.518-.74-1.203-.75-2.056" fill="#fff"/><path d="M77.353 143.636h1.198c.02.478.16.858.42 1.144.262.28.602.424 1.02.424.46 0 .824-.143 1.1-.424.276-.286.415-.666.415-1.144 0-.42-.1-.74-.3-.967-.203-.227-.627-.444-1.273-.642-.035-.01-.09-.02-.168-.044-.774-.207-1.33-.542-1.676-1.016-.158-.207-.27-.43-.35-.66-.08-.237-.12-.483-.12-.75 0-.79.233-1.425.702-1.913.468-.488 1.08-.73 1.84-.73.704 0 1.27.218 1.704.656.434.435.67 1.032.72 1.79h-1.247c-.025-.364-.143-.66-.37-.886-.227-.227-.508-.34-.848-.34-.37 0-.667.128-.898.38-.227.25-.345.57-.345.97 0 .138.02.267.064.39.045.123.11.237.198.34.177.217.567.404 1.164.557.27.075.483.134.63.184.607.23 1.066.557 1.38.996.317.433.474.95.474 1.558 0 .892-.256 1.607-.76 2.15-.507.547-1.177.818-2.01.818-.784 0-1.42-.262-1.913-.784-.493-.518-.74-1.203-.75-2.056z" fill="none" stroke="#fff" stroke-width=".12326" stroke-miterlimit="2.414"/><path d="M84.966 141.645c0 .483.08.937.24 1.36.16.43.39.8.687 1.11.315.33.68.587 1.094.764.414.182.833.275 1.267.275.952 0 1.746-.34 2.387-1.015.642-.676.962-1.52.962-2.52 0-.424-.074-.833-.232-1.218-.153-.384-.374-.74-.67-1.065-.35-.374-.725-.65-1.124-.833-.4-.177-.84-.266-1.322-.266-.434 0-.848.084-1.242.246-.39.163-.74.405-1.04.715-.316.325-.563.7-.74 1.128-.178.43-.266.873-.266 1.317m-1.39-.015c0-.64.123-1.252.364-1.834.247-.577.602-1.095 1.075-1.558.45-.44.942-.77 1.49-.996.546-.227 1.133-.34 1.76-.34.645 0 1.242.113 1.794.34.546.227 1.05.562 1.507 1.006.464.463.82.976 1.056 1.543.236.573.355 1.184.355 1.84 0 .656-.104 1.257-.306 1.81-.202.547-.508 1.04-.912 1.48-.474.51-1.006.9-1.593 1.162-.59.262-1.227.395-1.913.395-.695 0-1.33-.133-1.913-.4-.585-.266-1.108-.66-1.572-1.183-.39-.434-.69-.927-.892-1.48-.202-.556-.3-1.148-.3-1.784" fill="#fff"/><path d="M84.966 141.645c0 .483.08.937.24 1.36.16.43.39.8.687 1.11.315.33.68.587 1.094.764.414.182.833.275 1.267.275.952 0 1.746-.34 2.387-1.015.642-.676.962-1.52.962-2.52 0-.424-.074-.833-.232-1.218-.153-.384-.374-.74-.67-1.065-.35-.374-.725-.65-1.124-.833-.4-.177-.84-.266-1.322-.266-.434 0-.848.084-1.242.246-.39.163-.74.405-1.04.715-.316.325-.563.7-.74 1.128-.178.43-.266.873-.266 1.317zm-1.39-.015c0-.64.123-1.252.364-1.834.247-.577.602-1.095 1.075-1.558.45-.44.942-.77 1.49-.996.546-.227 1.133-.34 1.76-.34.645 0 1.242.113 1.794.34.546.227 1.05.562 1.507 1.006.464.463.82.976 1.056 1.543.236.573.355 1.184.355 1.84 0 .656-.104 1.257-.306 1.81-.202.547-.508 1.04-.912 1.48-.474.51-1.006.9-1.593 1.162-.59.262-1.227.395-1.913.395-.695 0-1.33-.133-1.913-.4-.585-.266-1.108-.66-1.572-1.183-.39-.434-.69-.927-.892-1.48-.202-.556-.3-1.148-.3-1.784z" fill="none" stroke="#fff" stroke-width=".12326" stroke-miterlimit="2.414"/><path d="M102.56 143.983c-.4.804-.956 1.42-1.66 1.85-.706.428-1.524.64-2.456.64-.69 0-1.326-.133-1.913-.394-.58-.267-1.108-.662-1.572-1.185-.39-.433-.685-.93-.887-1.484-.2-.55-.305-1.147-.305-1.778 0-.64.123-1.248.37-1.825.24-.572.6-1.1 1.075-1.568.443-.44.94-.775 1.49-.996.54-.227 1.128-.34 1.76-.34.94 0 1.77.22 2.484.67.715.45 1.252 1.08 1.617 1.898h-1.567c-.296-.41-.66-.72-1.09-.927-.43-.202-.917-.306-1.46-.306-.433 0-.847.078-1.237.246-.394.163-.74.4-1.045.71-.314.325-.56.705-.738 1.134-.178.43-.267.868-.267 1.316 0 .48.084.932.242 1.36.158.43.39.8.69 1.11.316.33.68.582 1.095.765.41.183.833.272 1.262.272.527 0 1-.1 1.425-.3.423-.198.773-.49 1.044-.87h1.647z" fill="#fff"/><path d="M102.56 143.983c-.4.804-.956 1.42-1.66 1.85-.706.428-1.524.64-2.456.64-.69 0-1.326-.133-1.913-.394-.58-.267-1.108-.662-1.572-1.185-.39-.433-.685-.93-.887-1.484-.2-.55-.305-1.147-.305-1.778 0-.64.123-1.248.37-1.825.24-.572.6-1.1 1.075-1.568.443-.44.94-.775 1.49-.996.54-.227 1.128-.34 1.76-.34.94 0 1.77.22 2.484.67.715.45 1.252 1.08 1.617 1.898h-1.567c-.296-.41-.66-.72-1.09-.927-.43-.202-.917-.306-1.46-.306-.433 0-.847.078-1.237.246-.394.163-.74.4-1.045.71-.314.325-.56.705-.738 1.134-.178.43-.267.868-.267 1.316 0 .48.084.932.242 1.36.158.43.39.8.69 1.11.316.33.68.582 1.095.765.41.183.833.272 1.262.272.527 0 1-.1 1.425-.3.423-.198.773-.49 1.044-.87h1.647z" fill="none" stroke="#fff" stroke-width=".12326" stroke-miterlimit="2.414"/><path d="M105.252 146.292h-1.336v-9.205h1.336v9.205z" fill="#fff"/><path d="M105.254 146.292h-1.336v-9.205h1.336v9.205z" fill="none" stroke="#fff" stroke-width=".12326" stroke-miterlimit="2.414"/><path d="M111.196 142.315l-1.296-3.496-1.322 3.495h2.618zm-3.09 1.297l-1.036 2.682h-1.41l3.594-9.205h1.297l3.6 9.204h-1.46l-1.01-2.682h-3.575z" fill="#fff"/><path d="M111.196 142.315l-1.296-3.496-1.322 3.495h2.618zm-3.09 1.297l-1.036 2.682h-1.41l3.594-9.205h1.297l3.6 9.204h-1.46l-1.01-2.682h-3.575z" fill="none" stroke="#fff" stroke-width=".12326" stroke-miterlimit="2.414"/><path d="M122.804 143.983c-.4.804-.952 1.42-1.662 1.85-.705.428-1.523.64-2.455.64-.69 0-1.326-.133-1.913-.394-.582-.267-1.11-.662-1.573-1.185-.388-.433-.684-.93-.886-1.484-.202-.55-.306-1.147-.306-1.778 0-.64.123-1.248.37-1.825.242-.572.6-1.1 1.075-1.568.444-.44.942-.775 1.49-.996.54-.227 1.128-.34 1.76-.34.94 0 1.77.22 2.484.67.715.45 1.252 1.08 1.617 1.898h-1.568c-.296-.41-.66-.72-1.085-.927-.432-.202-.92-.306-1.463-.306-.434 0-.848.078-1.237.246-.395.163-.74.4-1.046.71-.315.325-.562.705-.74 1.134-.177.43-.265.868-.265 1.316 0 .48.082.932.24 1.36.158.43.39.8.69 1.11.316.33.68.582 1.095.765.41.183.833.272 1.262.272.528 0 1-.1 1.425-.3.424-.198.774-.49 1.045-.87h1.647z" fill="#fff"/><path d="M122.804 143.983c-.4.804-.952 1.42-1.662 1.85-.705.428-1.523.64-2.455.64-.69 0-1.326-.133-1.913-.394-.582-.267-1.11-.662-1.573-1.185-.388-.433-.684-.93-.886-1.484-.202-.55-.306-1.147-.306-1.778 0-.64.123-1.248.37-1.825.242-.572.6-1.1 1.075-1.568.444-.44.942-.775 1.49-.996.54-.227 1.128-.34 1.76-.34.94 0 1.77.22 2.484.67.715.45 1.252 1.08 1.617 1.898h-1.568c-.296-.41-.66-.72-1.085-.927-.432-.202-.92-.306-1.463-.306-.434 0-.848.078-1.237.246-.395.163-.74.4-1.046.71-.315.325-.562.705-.74 1.134-.177.43-.265.868-.265 1.316 0 .48.082.932.24 1.36.158.43.39.8.69 1.11.316.33.68.582 1.095.765.41.183.833.272 1.262.272.528 0 1-.1 1.425-.3.424-.198.774-.49 1.045-.87h1.647z" fill="none" stroke="#fff" stroke-width=".12326" stroke-miterlimit="2.414"/><path d="M125.497 146.292h-1.337v-9.205h1.337v9.205z" fill="#fff"/><path d="M125.498 146.292h-1.337v-9.205h1.338v9.205z" fill="none" stroke="#fff" stroke-width=".12326" stroke-miterlimit="2.414"/><path d="M128.077 141.645c0 .483.08.937.242 1.36.156.43.388.8.69 1.11.314.33.68.587 1.09.764.413.182.832.275 1.266.275.95 0 1.745-.34 2.39-1.015.637-.676.957-1.52.957-2.52 0-.424-.074-.833-.23-1.218-.154-.384-.376-.74-.672-1.065-.35-.374-.724-.65-1.118-.833-.4-.177-.843-.266-1.326-.266-.434 0-.848.084-1.243.246-.39.163-.734.405-1.04.715-.316.325-.562.7-.74 1.128-.177.43-.266.873-.266 1.317m-1.39-.015c0-.64.123-1.252.365-1.834.246-.577.606-1.095 1.074-1.558.45-.44.947-.77 1.49-.996.547-.227 1.133-.34 1.76-.34.645 0 1.242.113 1.794.34.552.227 1.05.562 1.51 1.006.467.463.817.976 1.054 1.543.237.573.355 1.184.355 1.84 0 .656-.105 1.257-.307 1.81-.202.547-.503 1.04-.907 1.48-.478.51-1.01.9-1.597 1.162-.588.262-1.23.395-1.914.395-.69 0-1.332-.133-1.913-.4-.582-.266-1.11-.66-1.573-1.183-.39-.434-.69-.927-.888-1.48-.207-.556-.305-1.148-.305-1.784" fill="#fff"/><path d="M128.077 141.645c0 .483.08.937.242 1.36.156.43.388.8.69 1.11.314.33.68.587 1.09.764.413.182.832.275 1.266.275.95 0 1.745-.34 2.39-1.015.637-.676.957-1.52.957-2.52 0-.424-.074-.833-.23-1.218-.154-.384-.376-.74-.672-1.065-.35-.374-.724-.65-1.118-.833-.4-.177-.843-.266-1.326-.266-.434 0-.848.084-1.243.246-.39.163-.734.405-1.04.715-.316.325-.562.7-.74 1.128-.177.43-.266.873-.266 1.317zm-1.39-.015c0-.64.123-1.252.365-1.834.246-.577.606-1.095 1.074-1.558.45-.44.947-.77 1.49-.996.547-.227 1.133-.34 1.76-.34.645 0 1.242.113 1.794.34.552.227 1.05.562 1.51 1.006.467.463.817.976 1.054 1.543.237.573.355 1.184.355 1.84 0 .656-.105 1.257-.307 1.81-.202.547-.503 1.04-.907 1.48-.478.51-1.01.9-1.597 1.162-.588.262-1.23.395-1.914.395-.69 0-1.332-.133-1.913-.4-.582-.266-1.11-.66-1.573-1.183-.39-.434-.69-.927-.888-1.48-.207-.556-.305-1.148-.305-1.784z" fill="none" stroke="#fff" stroke-width=".12326" stroke-miterlimit="2.414"/><path d="M138.63 146.29h-1.337v-9.204h1.375l4.516 6.967-.064-6.967h1.317v9.205h-1.277l-4.62-7.172.09 7.173z" fill="#fff"/><path d="M138.63 146.29h-1.337v-9.204h1.375l4.516 6.967-.064-6.967h1.317v9.205h-1.277l-4.62-7.172.09 7.173z" fill="none" stroke="#fff" stroke-width=".12326" stroke-miterlimit="2.414"/><path d="M151.084 146.29h-1.336v-9.204h1.375l4.517 6.967-.065-6.967h1.317v9.205h-1.277l-4.62-7.172.09 7.173z" fill="#fff"/><path d="M151.084 146.29h-1.336v-9.204h1.375l4.517 6.967-.065-6.967h1.317v9.205h-1.277l-4.62-7.172.09 7.173z" fill="none" stroke="#fff" stroke-width=".12326" stroke-miterlimit="2.414"/><path d="M159.832 146.292h-1.336v-9.205h1.336v9.205z" fill="#fff"/><path d="M159.834 146.292h-1.336v-9.205h1.336v9.205z" fill="none" stroke="#fff" stroke-width=".12326" stroke-miterlimit="2.414"/><path d="M169.816 143.983c-.4.804-.95 1.42-1.66 1.85-.706.428-1.525.64-2.456.64-.69 0-1.327-.133-1.913-.394-.582-.267-1.105-.662-1.573-1.185-.39-.433-.686-.93-.888-1.484-.202-.55-.305-1.147-.305-1.778 0-.64.124-1.248.37-1.825.242-.572.602-1.1 1.075-1.568.444-.44.942-.775 1.49-.996.546-.227 1.128-.34 1.76-.34.94 0 1.77.22 2.484.67.714.45 1.256 1.08 1.616 1.898h-1.567c-.297-.41-.662-.72-1.086-.927-.434-.202-.917-.306-1.464-.306-.434 0-.85.078-1.238.246-.394.163-.74.4-1.045.71-.316.325-.562.705-.74 1.134-.177.43-.26.868-.26 1.316 0 .48.078.932.236 1.36.157.43.39.8.69 1.11.315.33.68.582 1.094.765.41.183.834.272 1.263.272.527 0 1-.1 1.424-.3.424-.198.774-.49 1.05-.87h1.642z" fill="#fff"/><path d="M169.816 143.983c-.4.804-.95 1.42-1.66 1.85-.706.428-1.525.64-2.456.64-.69 0-1.327-.133-1.913-.394-.582-.267-1.105-.662-1.573-1.185-.39-.433-.686-.93-.888-1.484-.202-.55-.305-1.147-.305-1.778 0-.64.124-1.248.37-1.825.242-.572.602-1.1 1.075-1.568.444-.44.942-.775 1.49-.996.546-.227 1.128-.34 1.76-.34.94 0 1.77.22 2.484.67.714.45 1.256 1.08 1.616 1.898h-1.567c-.297-.41-.662-.72-1.086-.927-.434-.202-.917-.306-1.464-.306-.434 0-.85.078-1.238.246-.394.163-.74.4-1.045.71-.316.325-.562.705-.74 1.134-.177.43-.26.868-.26 1.316 0 .48.078.932.236 1.36.157.43.39.8.69 1.11.315.33.68.582 1.094.765.41.183.834.272 1.263.272.527 0 1-.1 1.424-.3.424-.198.774-.49 1.05-.87h1.642z" fill="none" stroke="#fff" stroke-width=".12326" stroke-miterlimit="2.414"/><path d="M175.512 142.315l-1.296-3.496-1.322 3.495h2.618zm-3.09 1.297l-1.036 2.682h-1.41l3.594-9.205h1.297l3.6 9.204h-1.46l-1.01-2.682h-3.576z" fill="#fff"/><path d="M175.512 142.315l-1.296-3.496-1.322 3.495h2.618zm-3.09 1.297l-1.036 2.682h-1.41l3.594-9.205h1.297l3.6 9.204h-1.46l-1.01-2.682h-3.576z" fill="none" stroke="#fff" stroke-width=".12326" stroke-miterlimit="2.414"/><path d="M180.304 141.866h.686c.922 0 1.607-.148 2.06-.448.45-.3.676-.755.676-1.366 0-.592-.192-1.03-.582-1.307-.39-.28-1-.42-1.84-.42h-1v3.54zm0 4.428h-1.33v-9.205h2.652c1.104 0 1.947.25 2.53.763.58.508.872 1.247.872 2.214 0 .744-.242 1.375-.73 1.878-.488.503-1.114.774-1.883.814l2.613 3.534h-1.667l-3.056-4.275v4.274z" fill="#fff"/><path d="M180.304 141.866h.686c.922 0 1.607-.148 2.06-.448.45-.3.676-.755.676-1.366 0-.592-.192-1.03-.582-1.307-.39-.28-1-.42-1.84-.42h-1v3.54zm0 4.428h-1.33v-9.205h2.652c1.104 0 1.947.25 2.53.763.58.508.872 1.247.872 2.214 0 .744-.242 1.375-.73 1.878-.488.503-1.114.774-1.883.814l2.613 3.534h-1.667l-3.056-4.275v4.274z" fill="none" stroke="#fff" stroke-width=".12326" stroke-miterlimit="2.414"/><path d="M190.623 142.315l-1.297-3.496-1.32 3.495h2.617zm-3.092 1.297l-1.034 2.682h-1.41l3.6-9.205h1.29l3.6 9.204h-1.46l-1.01-2.682h-3.575z" fill="#fff"/><path d="M190.623 142.315l-1.297-3.496-1.32 3.495h2.617zm-3.092 1.297l-1.034 2.682h-1.41l3.6-9.205h1.29l3.6 9.204h-1.46l-1.01-2.682h-3.575z" fill="none" stroke="#fff" stroke-width=".12326" stroke-miterlimit="2.414"/><path d="M197.126 141.645h5.71c-.064 1.44-.528 2.603-1.4 3.49-.873.893-1.973 1.342-3.31 1.342-.694 0-1.33-.133-1.917-.4-.587-.266-1.11-.66-1.573-1.183-.395-.434-.696-.927-.898-1.48-.203-.556-.307-1.148-.307-1.784 0-.64.124-1.252.37-1.834.247-.577.607-1.095 1.08-1.558.45-.45.947-.78 1.5-1 .556-.223 1.172-.336 1.848-.336.933 0 1.75.222 2.456.656.705.438 1.238 1.055 1.593 1.863h-1.643c-.306-.393-.67-.69-1.095-.886-.42-.197-.892-.296-1.415-.296-.434 0-.848.084-1.242.246-.395.163-.745.405-1.05.715-.316.325-.562.7-.74 1.128-.177.43-.266.873-.266 1.317 0 .483.078.937.235 1.36.163.43.395.8.696 1.11.316.33.68.587 1.095.764.42.182.838.275 1.272.275.7 0 1.322-.187 1.86-.562.536-.37.98-.922 1.325-1.65h-4.186v-1.298z" fill="#fff"/><path d="M197.126 141.645h5.71c-.064 1.44-.528 2.603-1.4 3.49-.873.893-1.973 1.342-3.31 1.342-.694 0-1.33-.133-1.917-.4-.587-.266-1.11-.66-1.573-1.183-.395-.434-.696-.927-.898-1.48-.203-.556-.307-1.148-.307-1.784 0-.64.124-1.252.37-1.834.247-.577.607-1.095 1.08-1.558.45-.45.947-.78 1.5-1 .556-.223 1.172-.336 1.848-.336.933 0 1.75.222 2.456.656.705.438 1.238 1.055 1.593 1.863h-1.643c-.306-.393-.67-.69-1.095-.886-.42-.197-.892-.296-1.415-.296-.434 0-.848.084-1.242.246-.395.163-.745.405-1.05.715-.316.325-.562.7-.74 1.128-.177.43-.266.873-.266 1.317 0 .483.078.937.235 1.36.163.43.395.8.696 1.11.316.33.68.587 1.095.764.42.182.838.275 1.272.275.7 0 1.322-.187 1.86-.562.536-.37.98-.922 1.325-1.65h-4.186v-1.298z" fill="none" stroke="#fff" stroke-width=".12326" stroke-miterlimit="2.414"/><path d="M207.455 134.538h1.163v1.322h-1.163v-1.322zm-2.254 0h1.165v1.322H205.2v-1.322zm-1.24 2.55h1.33v5.852c0 .838.123 1.415.375 1.74.246.325.67.488 1.267.488.572 0 .97-.167 1.208-.498.237-.33.355-.907.355-1.73v-5.853h1.336v5.843c0 .62-.033 1.1-.103 1.434-.073.33-.187.622-.345.863-.28.424-.616.735-1.015.942-.4.2-.868.305-1.405.305-.592 0-1.09-.1-1.494-.296-.405-.198-.755-.514-1.05-.938-.163-.246-.282-.518-.356-.823-.07-.302-.103-.8-.103-1.49v-5.843z" fill="#fff"/><path d="M207.453 134.54h1.164v1.32h-1.164v-1.32zm-2.248 0h1.163v1.32h-1.163v-1.32zm-1.248 2.548h1.337v5.852c0 .838.123 1.415.37 1.74.25.326.67.49 1.27.49.568 0 .973-.17 1.21-.5.236-.33.354-.907.354-1.73v-5.852h1.332v5.842c0 .62-.035 1.1-.104 1.435-.07.33-.182.62-.345.863-.275.424-.615.734-1.015.942-.394.202-.863.305-1.405.305-.592 0-1.085-.098-1.49-.296-.408-.198-.758-.513-1.05-.937-.167-.247-.285-.518-.354-.824-.074-.302-.11-.8-.11-1.49v-5.842z" fill="none" stroke="#fff" stroke-width=".12326" stroke-miterlimit="2.414"/><path d="M216.14 146.29h-4.783v-9.204h4.783v1.228h-3.446v2.75h3.446v1.2h-3.446v2.755h3.446v1.27z" fill="#fff"/><path d="M216.14 146.29h-4.783v-9.204h4.783v1.228h-3.446v2.75h3.446v1.2h-3.446v2.755h3.446v1.27z" fill="none" stroke="#fff" stroke-width=".12326" stroke-miterlimit="2.414"/><path d="M219.105 146.29h-1.332v-9.204h1.37l4.517 6.967-.06-6.967h1.313v9.205h-1.277l-4.62-7.172.09 7.173z" fill="#fff"/><path d="M219.105 146.29h-1.332v-9.204h1.37l4.517 6.967-.06-6.967h1.313v9.205h-1.277l-4.62-7.172.09 7.173z" fill="none" stroke="#fff" stroke-width=".12326" stroke-miterlimit="2.414"/><path d="M226.034 143.636h1.193c.025.478.163.858.424 1.144.263.28.603.424 1.022.424.46 0 .823-.143 1.1-.424.276-.286.414-.666.414-1.144 0-.42-.1-.74-.3-.967-.203-.227-.627-.444-1.273-.642-.035-.01-.09-.02-.173-.044-.77-.207-1.326-.542-1.67-1.016-.16-.207-.277-.43-.356-.66-.074-.237-.113-.483-.113-.75 0-.79.232-1.425.7-1.913.47-.488 1.08-.73 1.84-.73.705 0 1.272.218 1.706.656.43.435.67 1.032.715 1.79h-1.242c-.025-.364-.148-.66-.37-.886-.227-.227-.508-.34-.853-.34-.365 0-.665.128-.892.38-.232.25-.345.57-.345.97 0 .138.02.267.064.39.04.123.103.237.192.34.183.217.572.404 1.164.557.276.075.488.134.63.184.612.23 1.07.557 1.386.996.316.433.47.95.47 1.558 0 .892-.253 1.607-.76 2.15-.504.547-1.174.818-2.007.818-.784 0-1.425-.262-1.913-.784-.493-.518-.74-1.203-.75-2.056" fill="#fff"/><path d="M226.034 143.636h1.193c.025.478.163.858.424 1.144.263.28.603.424 1.022.424.46 0 .823-.143 1.1-.424.276-.286.414-.666.414-1.144 0-.42-.1-.74-.3-.967-.203-.227-.627-.444-1.273-.642-.035-.01-.09-.02-.173-.044-.77-.207-1.326-.542-1.67-1.016-.16-.207-.277-.43-.356-.66-.074-.237-.113-.483-.113-.75 0-.79.232-1.425.7-1.913.47-.488 1.08-.73 1.84-.73.705 0 1.272.218 1.706.656.43.435.67 1.032.715 1.79h-1.242c-.025-.364-.148-.66-.37-.886-.227-.227-.508-.34-.853-.34-.365 0-.665.128-.892.38-.232.25-.345.57-.345.97 0 .138.02.267.064.39.04.123.103.237.192.34.183.217.572.404 1.164.557.276.075.488.134.63.184.612.23 1.07.557 1.386.996.316.433.47.95.47 1.558 0 .892-.253 1.607-.76 2.15-.504.547-1.174.818-2.007.818-.784 0-1.425-.262-1.913-.784-.493-.518-.74-1.203-.75-2.056z" fill="none" stroke="#fff" stroke-width=".12326" stroke-miterlimit="2.414"/><path d="M237.452 146.29h-4.778v-9.204h4.778v1.228h-3.447v2.75h3.447v1.2h-3.447v2.755h3.447v1.27z" fill="#fff"/><path d="M237.452 146.29h-4.778v-9.204h4.778v1.228h-3.447v2.75h3.447v1.2h-3.447v2.755h3.447v1.27z" fill="none" stroke="#fff" stroke-width=".12326" stroke-miterlimit="2.414"/><path d="M244.02 145.06h1.618c1.025 0 1.834-.297 2.43-.9.597-.595.898-1.404.898-2.424 0-1.065-.316-1.894-.947-2.495-.637-.596-1.51-.897-2.63-.897h-1.37v6.716zm1.292 1.23h-2.588v-9.204h2.963c1.385 0 2.5.43 3.353 1.282.848.858 1.272 1.972 1.272 3.353 0 .785-.158 1.5-.48 2.146-.32.64-.773 1.178-1.374 1.612-.405.286-.838.498-1.297.626-.457.123-1.074.187-1.848.187" fill="#fff"/><path d="M244.02 145.06h1.618c1.025 0 1.834-.297 2.43-.9.597-.595.898-1.404.898-2.424 0-1.065-.316-1.894-.947-2.495-.637-.596-1.51-.897-2.63-.897h-1.37v6.716zm1.292 1.23h-2.588v-9.204h2.963c1.385 0 2.5.43 3.353 1.282.848.858 1.272 1.972 1.272 3.353 0 .785-.158 1.5-.48 2.146-.32.64-.773 1.178-1.374 1.612-.405.286-.838.498-1.297.626-.457.123-1.074.187-1.848.187z" fill="none" stroke="#fff" stroke-width=".12326" stroke-miterlimit="2.414"/><path d="M256.318 146.29h-4.783v-9.204h4.783v1.228h-3.447v2.75h3.448v1.2h-3.447v2.755h3.448v1.27z" fill="#fff"/><path d="M256.318 146.29h-4.783v-9.204h4.783v1.228h-3.447v2.75h3.448v1.2h-3.447v2.755h3.448v1.27z" fill="none" stroke="#fff" stroke-width=".12326" stroke-miterlimit="2.414"/><path d="M270.03 143.983c-.4.804-.95 1.42-1.66 1.85-.706.428-1.525.64-2.457.64-.69 0-1.326-.133-1.913-.394-.58-.267-1.104-.662-1.568-1.185-.394-.433-.69-.93-.892-1.484-.202-.55-.306-1.147-.306-1.778 0-.64.124-1.248.37-1.825.242-.572.602-1.1 1.075-1.568.443-.44.94-.775 1.488-.996.542-.227 1.13-.34 1.76-.34.942 0 1.77.22 2.485.67.715.45 1.252 1.08 1.617 1.898h-1.568c-.295-.41-.655-.72-1.09-.927-.428-.202-.91-.306-1.46-.306-.433 0-.847.078-1.236.246-.395.163-.74.4-1.045.71-.315.325-.562.705-.74 1.134-.176.43-.265.868-.265 1.316 0 .48.084.932.24 1.36.164.43.39.8.692 1.11.315.33.68.582 1.094.765.415.183.834.272 1.263.272.528 0 1.006-.1 1.425-.3.424-.198.774-.49 1.05-.87h1.642z" fill="#fff"/><path d="M270.03 143.983c-.4.804-.95 1.42-1.66 1.85-.706.428-1.525.64-2.457.64-.69 0-1.326-.133-1.913-.394-.58-.267-1.104-.662-1.568-1.185-.394-.433-.69-.93-.892-1.484-.202-.55-.306-1.147-.306-1.778 0-.64.124-1.248.37-1.825.242-.572.602-1.1 1.075-1.568.443-.44.94-.775 1.488-.996.542-.227 1.13-.34 1.76-.34.942 0 1.77.22 2.485.67.715.45 1.252 1.08 1.617 1.898h-1.568c-.295-.41-.655-.72-1.09-.927-.428-.202-.91-.306-1.46-.306-.433 0-.847.078-1.236.246-.395.163-.74.4-1.045.71-.315.325-.562.705-.74 1.134-.176.43-.265.868-.265 1.316 0 .48.084.932.24 1.36.164.43.39.8.692 1.11.315.33.68.582 1.094.765.415.183.834.272 1.263.272.528 0 1.006-.1 1.425-.3.424-.198.774-.49 1.05-.87h1.642z" fill="none" stroke="#fff" stroke-width=".12326" stroke-miterlimit="2.414"/><path d="M272.723 146.292h-1.33v-9.205h1.33v9.205z" fill="#fff"/><path d="M272.723 146.292h-1.33v-9.205h1.33v9.205z" fill="none" stroke="#fff" stroke-width=".12326" stroke-miterlimit="2.414"/><path d="M275.664 146.29h-1.336v-9.204h1.375l4.516 6.967-.06-6.967h1.312v9.205h-1.277l-4.62-7.172.09 7.173z" fill="#fff"/><path d="M275.664 146.29h-1.336v-9.204h1.375l4.516 6.967-.06-6.967h1.312v9.205h-1.277l-4.62-7.172.09 7.173z" fill="none" stroke="#fff" stroke-width=".12326" stroke-miterlimit="2.414"/><path d="M287.86 146.29h-4.778v-9.204h4.778v1.228h-3.447v2.75h3.447v1.2h-3.447v2.755h3.447v1.27z" fill="#fff"/><path d="M287.86 146.29h-4.778v-9.204h4.778v1.228h-3.447v2.75h3.447v1.2h-3.447v2.755h3.447v1.27z" fill="none" stroke="#fff" stroke-width=".12326" stroke-miterlimit="2.414"/><path d="M290.774 146.29h-1.282v-9.204h1.977l2.666 7.12 2.668-7.12h1.957v9.205h-1.25l.083-7.99-2.988 7.99h-.947l-2.978-7.99.094 7.99z" fill="#fff"/><path d="M290.774 146.29h-1.282v-9.204h1.977l2.666 7.12 2.668-7.12h1.957v9.205h-1.25l.083-7.99-2.988 7.99h-.947l-2.978-7.99.094 7.99z" fill="none" stroke="#fff" stroke-width=".12326" stroke-miterlimit="2.414"/><path d="M304.727 142.315l-1.296-3.496-1.32 3.495h2.617zm-3.09 1.297l-1.04 2.682h-1.406l3.595-9.205h1.297l3.6 9.204h-1.46l-1.016-2.682h-3.57z" fill="#fff"/><path d="M304.727 142.315l-1.296-3.496-1.32 3.495h2.617zm-3.09 1.297l-1.04 2.682h-1.406l3.595-9.205h1.297l3.6 9.204h-1.46l-1.016-2.682h-3.57z" fill="none" stroke="#fff" stroke-width=".12326" stroke-miterlimit="2.414"/><path d="M309.83 146.29h-1.332v-7.966h-1.725v-1.238h4.777v1.238h-1.72v7.967z" fill="#fff"/><path d="M309.83 146.29h-1.332v-7.966h-1.725v-1.238h4.777v1.238h-1.72v7.967z" fill="none" stroke="#fff" stroke-width=".12326" stroke-miterlimit="2.414"/><path d="M313.42 141.645c0 .483.08.937.237 1.36.163.43.394.8.695 1.11.316.33.68.587 1.095.764.41.182.828.275 1.262.275.95 0 1.75-.34 2.385-1.015.64-.676.962-1.52.962-2.52 0-.424-.074-.833-.232-1.218-.153-.384-.375-.74-.67-1.065-.35-.374-.726-.65-1.125-.833-.394-.177-.838-.266-1.32-.266-.435 0-.85.084-1.244.246-.39.163-.734.405-1.04.715-.316.325-.562.7-.74 1.128-.177.43-.266.873-.266 1.317m-1.39-.015c0-.64.123-1.252.365-1.834.246-.577.606-1.095 1.075-1.558.448-.44.946-.77 1.488-.996.548-.227 1.134-.34 1.76-.34.647 0 1.248.113 1.795.34.553.227 1.05.562 1.51 1.006.467.463.817.976 1.054 1.543.237.573.355 1.184.355 1.84 0 .656-.103 1.257-.306 1.81-.202.547-.502 1.04-.907 1.48-.48.51-1.012.9-1.598 1.162-.592.262-1.228.395-1.913.395-.69 0-1.332-.133-1.914-.4-.582-.266-1.11-.66-1.573-1.183-.394-.434-.69-.927-.887-1.48-.208-.556-.306-1.148-.306-1.784" fill="#fff"/><path d="M313.42 141.645c0 .483.08.937.237 1.36.163.43.394.8.695 1.11.316.33.68.587 1.095.764.41.182.828.275 1.262.275.95 0 1.75-.34 2.385-1.015.64-.676.962-1.52.962-2.52 0-.424-.074-.833-.232-1.218-.153-.384-.375-.74-.67-1.065-.35-.374-.726-.65-1.125-.833-.394-.177-.838-.266-1.32-.266-.435 0-.85.084-1.244.246-.39.163-.734.405-1.04.715-.316.325-.562.7-.74 1.128-.177.43-.266.873-.266 1.317zm-1.39-.015c0-.64.123-1.252.365-1.834.246-.577.606-1.095 1.075-1.558.448-.44.946-.77 1.488-.996.548-.227 1.134-.34 1.76-.34.647 0 1.248.113 1.795.34.553.227 1.05.562 1.51 1.006.467.463.817.976 1.054 1.543.237.573.355 1.184.355 1.84 0 .656-.103 1.257-.306 1.81-.202.547-.502 1.04-.907 1.48-.48.51-1.012.9-1.598 1.162-.592.262-1.228.395-1.913.395-.69 0-1.332-.133-1.914-.4-.582-.266-1.11-.66-1.573-1.183-.394-.434-.69-.927-.887-1.48-.208-.556-.306-1.148-.306-1.784z" fill="none" stroke="#fff" stroke-width=".12326" stroke-miterlimit="2.414"/><path d="M325.91 141.645h5.71c-.063 1.44-.527 2.603-1.4 3.49-.872.893-1.972 1.342-3.308 1.342-.695 0-1.33-.133-1.918-.4-.586-.266-1.11-.66-1.572-1.183-.395-.434-.69-.927-.898-1.48-.202-.556-.305-1.148-.305-1.784 0-.64.122-1.252.368-1.834.247-.577.607-1.095 1.08-1.558.45-.45.947-.78 1.504-1 .552-.223 1.168-.336 1.844-.336.932 0 1.75.222 2.455.656.706.438 1.24 1.055 1.594 1.863h-1.642c-.306-.393-.67-.69-1.095-.886-.42-.197-.892-.296-1.415-.296-.434 0-.848.084-1.242.246-.395.163-.745.405-1.05.715-.316.325-.562.7-.74 1.128-.177.43-.266.873-.266 1.317 0 .483.08.937.24 1.36.16.43.39.8.692 1.11.315.33.68.587 1.094.764.42.182.838.275 1.272.275.705 0 1.322-.187 1.86-.562.536-.37.98-.922 1.325-1.65h-4.186v-1.298z" fill="#fff"/><path d="M325.91 141.645h5.71c-.063 1.44-.527 2.603-1.4 3.49-.872.893-1.972 1.342-3.308 1.342-.695 0-1.33-.133-1.918-.4-.586-.266-1.11-.66-1.572-1.183-.395-.434-.69-.927-.898-1.48-.202-.556-.305-1.148-.305-1.784 0-.64.122-1.252.368-1.834.247-.577.607-1.095 1.08-1.558.45-.45.947-.78 1.504-1 .552-.223 1.168-.336 1.844-.336.932 0 1.75.222 2.455.656.706.438 1.24 1.055 1.594 1.863h-1.642c-.306-.393-.67-.69-1.095-.886-.42-.197-.892-.296-1.415-.296-.434 0-.848.084-1.242.246-.395.163-.745.405-1.05.715-.316.325-.562.7-.74 1.128-.177.43-.266.873-.266 1.317 0 .483.08.937.24 1.36.16.43.39.8.692 1.11.315.33.68.587 1.094.764.42.182.838.275 1.272.275.705 0 1.322-.187 1.86-.562.536-.37.98-.922 1.325-1.65h-4.186v-1.298z" fill="none" stroke="#fff" stroke-width=".12326" stroke-miterlimit="2.414"/><path d="M334.162 141.866h.686c.922 0 1.607-.148 2.06-.448.45-.3.676-.755.676-1.366 0-.592-.192-1.03-.582-1.307-.39-.28-1-.42-1.84-.42h-1v3.54zm0 4.428h-1.33v-9.205h2.652c1.104 0 1.947.25 2.53.763.58.508.872 1.247.872 2.214 0 .744-.242 1.375-.73 1.878-.488.503-1.114.774-1.883.814l2.613 3.534h-1.667l-3.058-4.275v4.274z" fill="#fff"/><path d="M334.162 141.866h.686c.922 0 1.607-.148 2.06-.448.45-.3.676-.755.676-1.366 0-.592-.192-1.03-.582-1.307-.39-.28-1-.42-1.84-.42h-1v3.54zm0 4.428h-1.33v-9.205h2.652c1.104 0 1.947.25 2.53.763.58.508.872 1.247.872 2.214 0 .744-.242 1.375-.73 1.878-.488.503-1.114.774-1.883.814l2.613 3.534h-1.667l-3.058-4.275v4.274z" fill="none" stroke="#fff" stroke-width=".12326" stroke-miterlimit="2.414"/><path d="M344.48 142.315l-1.296-3.496-1.32 3.495h2.617zm-3.09 1.297l-1.036 2.682h-1.41l3.6-9.205h1.29l3.6 9.204h-1.46l-1.01-2.682h-3.575z" fill="#fff"/><path d="M344.48 142.315l-1.296-3.496-1.32 3.495h2.617zm-3.09 1.297l-1.036 2.682h-1.41l3.6-9.205h1.29l3.6 9.204h-1.46l-1.01-2.682h-3.575z" fill="none" stroke="#fff" stroke-width=".12326" stroke-miterlimit="2.414"/><path d="M347.914 146.29v-9.204h4.53v1.228h-3.21v2.75h3.21v1.2h-3.21v4.027h-1.32z" fill="#fff"/><path d="M347.914 146.29v-9.204h4.53v1.228h-3.21v2.75h3.21v1.2h-3.21v4.027h-1.32z" fill="none" stroke="#fff" stroke-width=".12326" stroke-miterlimit="2.414"/><path d="M355.45 146.292h-1.33v-9.205h1.33v9.205z" fill="#fff"/><path d="M355.45 146.292h-1.33v-9.205h1.33v9.205z" fill="none" stroke="#fff" stroke-width=".12326" stroke-miterlimit="2.414"/><path d="M361.393 142.315l-1.297-3.496-1.32 3.495h2.617zm-3.09 1.297l-1.037 2.682h-1.41l3.6-9.205h1.29l3.6 9.204h-1.46l-1.01-2.682h-3.574z" fill="#fff"/><path d="M361.393 142.315l-1.297-3.496-1.32 3.495h2.617zm-3.09 1.297l-1.037 2.682h-1.41l3.6-9.205h1.29l3.6 9.204h-1.46l-1.01-2.682h-3.574z" fill="none" stroke="#fff" stroke-width=".12326" stroke-miterlimit="2.414"/><path d="M184.833 5.508c.64 0 1.163.784 1.163 1.745 0 .96-.522 1.745-1.163 1.745-.64 0-1.164-.784-1.164-1.745 0-.96.522-1.745 1.163-1.745" fill="#231f20" fill-rule="evenodd"/><path d="M184.833 5.508c.64 0 1.163.784 1.163 1.745 0 .96-.522 1.745-1.163 1.745-.64 0-1.164-.784-1.164-1.745 0-.96.522-1.745 1.163-1.745z" fill="none" stroke="#231f20" stroke-width=".26624159999999997" stroke-miterlimit="2.414"/><path d="M211.316 24.424c1.124 0 2.036 1.174 2.036 2.618 0 1.45-.912 2.618-2.036 2.618-1.125 0-2.037-1.168-2.037-2.618 0-1.444.91-2.618 2.036-2.618" fill="#231f20" fill-rule="evenodd"/><path d="M211.316 24.424c1.124 0 2.036 1.174 2.036 2.618 0 1.45-.912 2.618-2.036 2.618-1.125 0-2.037-1.168-2.037-2.618 0-1.444.91-2.618 2.036-2.618z" fill="none" stroke="#231f20" stroke-width=".26624159999999997" stroke-miterlimit="2.414"/><path d="M214.225 50.325c.483 0 .873 1.045.873 2.327 0 1.287-.39 2.327-.873 2.327s-.873-1.04-.873-2.328c0-1.282.39-2.327.873-2.327" fill="#231f20" fill-rule="evenodd"/><path d="M214.225 50.325c.483 0 .873 1.045.873 2.327 0 1.287-.39 2.327-.873 2.327s-.873-1.04-.873-2.328c0-1.282.39-2.327.873-2.327z" fill="none" stroke="#231f20" stroke-width=".26624159999999997" stroke-miterlimit="2.414"/><path d="M105.384 77.97c.64 0 1.164.39 1.164.873 0 .484-.523.878-1.164.878-.646 0-1.164-.393-1.164-.877 0-.483.518-.872 1.164-.872" fill="#231f20" fill-rule="evenodd"/><path d="M105.384 77.97c.64 0 1.164.39 1.164.873 0 .484-.523.878-1.164.878-.646 0-1.164-.393-1.164-.877 0-.483.518-.872 1.164-.872z" fill="none" stroke="#231f20" stroke-width=".26624159999999997" stroke-miterlimit="2.414"/><path d="M260.787 84.082c1.45 0 2.623 1.697 2.623 3.782 0 2.09-1.174 3.787-2.623 3.787-1.445 0-2.618-1.695-2.618-3.786 0-2.085 1.172-3.782 2.617-3.782" fill="#231f20" fill-rule="evenodd"/><path d="M260.787 84.082c1.45 0 2.623 1.697 2.623 3.782 0 2.09-1.174 3.787-2.623 3.787-1.445 0-2.618-1.695-2.618-3.786 0-2.085 1.172-3.782 2.617-3.782z" fill="none" stroke="#231f20" stroke-width=".26624159999999997" stroke-miterlimit="2.414"/><path d="M218.008 96.305c2.09 0 3.782 1.366 3.782 3.057 0 1.686-1.69 3.057-3.782 3.057-2.09 0-3.782-1.372-3.782-3.058 0-1.69 1.692-3.057 3.782-3.057" fill="#231f20" fill-rule="evenodd"/><path d="M218.008 96.305c2.09 0 3.782 1.366 3.782 3.057 0 1.686-1.69 3.057-3.782 3.057-2.09 0-3.782-1.372-3.782-3.058 0-1.69 1.692-3.057 3.782-3.057z" fill="none" stroke="#231f20" stroke-width=".26624159999999997" stroke-miterlimit="2.414"/><path d="M260.06 102.71c.72 0 1.308.585 1.308 1.31 0 .72-.587 1.307-1.307 1.307-.724 0-1.31-.587-1.31-1.307 0-.725.586-1.31 1.31-1.31" fill="#231f20" fill-rule="evenodd"/><path d="M260.06 102.71c.72 0 1.308.585 1.308 1.31 0 .72-.587 1.307-1.307 1.307-.724 0-1.31-.587-1.31-1.307 0-.725.586-1.31 1.31-1.31z" fill="none" stroke="#231f20" stroke-width=".26624159999999997" stroke-miterlimit="2.414"/><path d="M303.276 101.252c.484 0 .873.586.873 1.31 0 .726-.39 1.313-.874 1.313-.483 0-.872-.587-.872-1.312 0-.725.39-1.31.872-1.31" fill="#231f20" fill-rule="evenodd"/><path d="M303.276 101.252c.484 0 .873.586.873 1.31 0 .726-.39 1.313-.874 1.313-.483 0-.872-.587-.872-1.312 0-.725.39-1.31.872-1.31z" fill="none" stroke="#231f20" stroke-width=".26624159999999997" stroke-miterlimit="2.414"/><path d="M251.912 87.865c2.17 0 3.93.848 3.93 1.893 0 1.046-1.76 1.89-3.93 1.89s-3.93-.844-3.93-1.89c0-1.045 1.76-1.893 3.93-1.893" fill="#231f20" fill-rule="evenodd"/><path d="M251.912 87.865c2.17 0 3.93.848 3.93 1.893 0 1.046-1.76 1.89-3.93 1.89s-3.93-.844-3.93-1.89c0-1.045 1.76-1.893 3.93-1.893z" fill="none" stroke="#231f20" stroke-width=".26624159999999997" stroke-miterlimit="2.414"/><path d="M339.364 69.532c1.607 0 2.91 1.563 2.91 3.49 0 1.928-1.303 3.496-2.91 3.496-1.607 0-2.91-1.568-2.91-3.495 0-1.928 1.303-3.49 2.91-3.49" fill="#231f20" fill-rule="evenodd"/><path d="M339.364 69.532c1.607 0 2.91 1.563 2.91 3.49 0 1.928-1.303 3.496-2.91 3.496-1.607 0-2.91-1.568-2.91-3.495 0-1.928 1.303-3.49 2.91-3.49z" fill="none" stroke="#231f20" stroke-width=".26624159999999997" stroke-miterlimit="2.414"/><path d="M312.007 80.88c.804 0 1.455.523 1.455 1.164 0 .646-.65 1.163-1.455 1.163-.804 0-1.454-.517-1.454-1.163 0-.64.65-1.164 1.454-1.164" fill="#231f20" fill-rule="evenodd"/><path d="M312.007 80.88c.804 0 1.455.523 1.455 1.164 0 .646-.65 1.163-1.455 1.163-.804 0-1.454-.517-1.454-1.163 0-.64.65-1.164 1.454-1.164z" fill="none" stroke="#231f20" stroke-width=".26624159999999997" stroke-miterlimit="2.414"/><path d="M322.193 78.844c.483 0 .873.454.873 1.02 0 .563-.39 1.02-.873 1.02s-.873-.457-.873-1.02c0-.566.39-1.02.873-1.02" fill="#231f20" fill-rule="evenodd"/><path d="M322.193 78.844c.483 0 .873.454.873 1.02 0 .563-.39 1.02-.873 1.02s-.873-.457-.873-1.02c0-.566.39-1.02.873-1.02z" fill="none" stroke="#231f20" stroke-width=".26624159999999997" stroke-miterlimit="2.414"/><path d="M352.17 58.183c1.123 0 2.035.976 2.035 2.184 0 1.203-.912 2.18-2.036 2.18-1.125 0-2.038-.977-2.038-2.18 0-1.208.913-2.184 2.037-2.184" fill="#231f20" fill-rule="evenodd"/><path d="M352.17 58.183c1.123 0 2.035.976 2.035 2.184 0 1.203-.912 2.18-2.036 2.18-1.125 0-2.038-.977-2.038-2.18 0-1.208.913-2.184 2.037-2.184z" fill="none" stroke="#231f20" stroke-width=".26624159999999997" stroke-miterlimit="2.414"/><path d="M364.976 34.61l-2.194 6.256-6.26-2.194 2.198-6.257 6.256 2.194z" fill="#fff" fill-rule="evenodd"/><path d="M364.976 34.61l-2.194 6.256-6.26-2.194 2.198-6.257 6.256 2.194z" fill="none" stroke="#fff" stroke-width=".26624159999999997" stroke-miterlimit="2.414"/><path d="M359.548 50.792l-2.194 6.257-6.257-2.195 2.194-6.262 6.258 2.2z" fill="#fff" fill-rule="evenodd"/><path d="M359.548 50.792l-2.194 6.257-6.257-2.195 2.194-6.262 6.258 2.2z" fill="none" stroke="#fff" stroke-width=".26624159999999997" stroke-miterlimit="2.414"/><path d="M353.738 67.202l-2.194 6.257-6.257-2.195 2.194-6.257 6.258 2.194z" fill="#fff" fill-rule="evenodd"/><path d="M353.738 67.202l-2.194 6.257-6.257-2.195 2.194-6.257 6.258 2.194z" fill="none" stroke="#fff" stroke-width=".26624159999999997" stroke-miterlimit="2.414"/><path d="M348.364 83.327l-2.194 6.257-6.257-2.2 2.194-6.25 6.257 2.193z" fill="#fff" fill-rule="evenodd"/><path d="M348.364 83.327l-2.194 6.257-6.257-2.2 2.194-6.25 6.257 2.193z" fill="none" stroke="#fff" stroke-width=".26624159999999997" stroke-miterlimit="2.414"/><path d="M342.99 99.303l-2.194 6.257-6.257-2.194 2.193-6.257 6.257 2.193z" fill="#fff" fill-rule="evenodd"/><path d="M342.99 99.303l-2.194 6.257-6.257-2.194 2.193-6.257 6.257 2.193z" fill="none" stroke="#fff" stroke-width=".26624159999999997" stroke-miterlimit="2.414"/><path d="M334.764 97.036c.405 0 .725.326.725.725 0 .405-.32.726-.726.726-.4 0-.724-.32-.724-.725 0-.398.325-.724.724-.724" fill="#231f20" fill-rule="evenodd"/><path d="M334.764 97.036c.405 0 .725.326.725.725 0 .405-.32.726-.726.726-.4 0-.724-.32-.724-.725 0-.398.325-.724.724-.724z" fill="none" stroke="#231f20" stroke-width=".26624159999999997" stroke-miterlimit="2.414"/><path d="M345.368 90.21c.557 0 1.016.615 1.016 1.38 0 .764-.46 1.38-1.016 1.38-.562 0-1.015-.616-1.015-1.38 0-.765.453-1.38 1.015-1.38" fill="#231f20" fill-rule="evenodd"/><path d="M345.368 90.21c.557 0 1.016.615 1.016 1.38 0 .764-.46 1.38-1.016 1.38-.562 0-1.015-.616-1.015-1.38 0-.765.453-1.38 1.015-1.38z" fill="none" stroke="#231f20" stroke-width=".26624159999999997" stroke-miterlimit="2.414"/><path d="M349.652 82.364c.36 0 .65.424.65.947 0 .52-.29.943-.65.943-.36 0-.65-.424-.65-.942 0-.522.29-.946.65-.946" fill="#231f20" fill-rule="evenodd"/><path d="M349.652 82.364c.36 0 .65.424.65.947 0 .52-.29.943-.65.943-.36 0-.65-.424-.65-.942 0-.522.29-.946.65-.946z" fill="none" stroke="#231f20" stroke-width=".26624159999999997" stroke-miterlimit="2.414"/><path d="M338.703 110.06c.503 0 .912.212.912.474 0 .26-.41.473-.912.473-.503 0-.907-.212-.907-.473 0-.262.404-.474.907-.474" fill="#231f20" fill-rule="evenodd"/><path d="M338.703 110.06c.503 0 .912.212.912.474 0 .26-.41.473-.912.473-.503 0-.907-.212-.907-.473 0-.262.404-.474.907-.474z" fill="none" stroke="#231f20" stroke-width=".26624159999999997" stroke-miterlimit="2.414"/><path d="M318.554 94.85c1.85 0 3.348 1.302 3.348 2.91 0 1.612-1.5 2.908-3.348 2.908-1.85 0-3.348-1.296-3.348-2.91 0-1.606 1.5-2.908 3.348-2.908M222.126 57.528c1.405 0 2.54 1.006 2.54 2.25 0 1.246-1.135 2.257-2.54 2.257s-2.544-1.01-2.544-2.258c0-1.243 1.14-2.25 2.544-2.25" fill="#fff" fill-rule="evenodd"/><path d="M158.606 89.942c2.583-15.344 5.99-30.386 10.127-45.074 4.146-14.712 8.455-26.81 14.06-40.725l7.727-2.953c7.573 2.514 12.83 4.457 15.708 5.837 2.88 1.386 4.812.898 4.704 1.834-.035.317-.118.75-.3 1.234l-2.486 6.592 7.036 8.23c-.064 11.68 1.405 20.2 2.204 30.04.794 9.81 1.997 17.138 3.59 24.16 5.403-7.308 9.293-13.17 13.888-24.205 4.61-11.058 8.614-25.31 12.065-39.422 1.33-1.524 2.71-3.037 4.185-4.57 1.484-1.554 3.26-3.265 5.394-5.138l1.67.863c-7.77 32.876-15.33 60.165-22.64 78.506-7.312 18.34-12.32 22.714-17.188 22.023-.246-.024-.527-.093-.838-.216-.29-.124-.577-.306-.853-.508l-6.305-4.62c-3.11-2.274-6.197-9.3-9.165-21.138-2.964-11.833-6.05-21.186-7.026-36.923-1.603 6.35-5.06 16.052-10.36 29.108-5.284 13.06-8.928 22.22-10.91 27.51-.084.263-.207.652-.34 1.15-.81 2.495-2.086 3.62-3.836 3.372-.65-.093-1.928-1.523-3.85-4.324-1.9-2.795-4.01-6.355-6.262-10.644M262.8 37.238c14.565-6.158 29.864-12.454 40.184-15.102 10.304-2.642 18.508-4.644 24.612-3.78.927.132 1.494.876 1.686 2.232.193 1.327.064 4.96-.374 8.638-.173 1.43-.69 3.225-1.524 5.374-.833 2.17-2.45 3.97-4.817 8.727-15.802 1.33-29.415 6.242-40.878 11.46-11.434 5.195-19.49 11.61-21.882 18.088 2.337 1.44 6.316 2.648 9.718 3.61 3.377.95 10.995 1.68 17.31 2.193 11.612.932 23.533-.197 35.312-.966 1.85-.123 2.943-.148 3.26-.11.22.03.36.08.423.135.06.06.134.197.114.39l-.05.413-2.094 7.844c-1.475 1.54-3.333 2.83-5.582 3.915-2.243 1.084-4.95 1.957-8.14 2.662l-1.538 10.462c-4.827 1.686-10.255 3.012-16.67 3.747-6.143.706-16.176 1.352-23.592.312-4.018-.567-8.48-1.233-11.157-1.943-2.666-.706-4.387-1.377-5.087-2.077-2.07-2.08-4.235-6.976-5.468-14.574-1.233-7.613-2.49-15.433-1.528-23.47.32-2.682.828-4.545 1.41-5.975.572-1.39 2.302-3.013 3.022-3.723 4.15-4.057 9.534-7.735 14.287-10.615 4.768-2.884 9.585-5.03 15.753-6.986l-16.71-.882zM112.826 54.596h19.9c2.13-12.183 2.513-24.08 2.32-35.878-8.223 11.305-15.934 23.025-22.22 35.878m-15.008.178c6.11-13.584 14.288-31.12 20.732-40.78 4.758-1.454 10.453-2.554 14.48-6.33.523-2.4.385-4.763 1.164-7.204 6.888-.7 13.22-.572 20.106.183.31 1.277 1.406 2.026 2.012 2.623 8.796-.316 7.105 6.158 7.277 9.018-1.046 14.12-3.284 28.433-5.676 41.977h6.326c1.913.14-1.553 11.444-5.02 17.13-.877.65-1.838.99-2.908.872-1.933 2.135-4.087 4.043-6.405 5.793-1.75 2.076-1.947 3.8-2.47 7.494-3.46 7.745-7.913 14.968-10.625 21.9-.478 1.356-9.022 5.41-13.677 7.272-6.232 4.403-8.633 1.065-7.05-5.172 4.215-10.822 5.66-22.398 6.76-33.822H110.04c-5.71 10.635-15.195 28.093-24.736 33.753-2.7 3.408-5.66 7.377-9.53 12.155-12.7 7.252-9.703-1.563-7.933-5.167l23.282-43.363c-3.9-5.39-6.153-18.35-4.363-18.484l11.058.154zM336.515 96.846l6.606 2.253-2.247 6.606-6.68-2.322 2.322-6.538zm5.423-15.92l6.612 2.253-2.253 6.606-6.676-2.322 2.318-6.538zm5.36-16.137l6.606 2.252-2.253 6.612-6.675-2.327 2.322-6.538zm5.862-16.424l6.606 2.248-2.253 6.612-6.68-2.328 2.327-6.532zm5.28-16.138l6.607 2.254-2.248 6.606-6.687-2.327 2.327-6.532zm-27.99 12.83c1.903-4.916 4.157-9.807 6.69-14.664 2.54-4.866 5.967-9.64 9.142-13.543 1.967-2.42 4.072-3.648 6.962-3.584l3.224.074c1.267.025 2.16.286 2.707.562.557.28 1.04.79 1.49 1.51 2.148 3.75 3.997 7.818 5.5 12.197 1.5 4.377 2.225 7.345 2.156 8.952-.034.686-4.614 9.713-10.363 27.02-5.764 17.33-9.772 30.927-14.303 48.578l-.98-.07c-3.433-.23-8.67-2.385-11.218-6.468-2.534-4.062-3.13-4.994-2.88-10.58.13-2.83.814-7.273 2.052-13.302 1.237-6.016 2.9-12.948 4.984-20.822l-5.162-15.86zM24.303 163.054c.424 0 .764.23.764.522 0 .28-.34.513-.764.513-.42 0-.765-.233-.765-.514 0-.29.345-.522.765-.522M34.55 177.254c.933 0 1.692.74 1.692 1.642 0 .907-.76 1.642-1.69 1.642-.937 0-1.692-.735-1.692-1.642 0-.902.755-1.642 1.69-1.642M22.853 119.522c.996 0 1.81.897 1.81 2.01 0 1.106-.814 2.008-1.81 2.008-1 0-1.81-.902-1.81-2.007 0-1.114.81-2.01 1.81-2.01M37.88 118.796c1.202 0 2.18 1.08 2.18 2.42 0 1.342-.978 2.422-2.18 2.422-1.204 0-2.18-1.08-2.18-2.42 0-1.342.976-2.422 2.18-2.422M37.293 131.176c1.074 1.08 3.27-.404 1.992-2.026l-1.978-.972c-.892-.527-1.67-.073-1.252.932l1.238 2.066zM26.545 143.11c-1.35-5.906 5.428-8.49 7.307-4.052 1.306 2.56 1.084 5.837.148 8.322l.07 1.52h-.87l-.073-1.086c-2.263.168-6.124-.6-6.582-4.703M34.866 150.9c1.035 0 2.436.325 2.436 1.4 0 1.08-1.4 1.952-2.436 1.952-1.035 0-1.883-.872-1.883-1.952 0-1.075.848-1.4 1.883-1.4M41.234 150.274c.202 0 .36.232.36.503 0 .28-.158.508-.36.508-.203 0-.36-.227-.36-.508 0-.27.157-.503.36-.503M46.48 149.334c1.336 0 2.426 1.39 2.426 3.11 0 1.722-1.09 3.112-2.426 3.112s-2.426-1.39-2.426-3.11c0-1.722 1.09-3.112 2.426-3.112M75.69 171.373c.69 0 1.252.31 1.252.695 0 .384-.562.695-1.252.695-.695 0-1.257-.31-1.257-.695 0-.385.562-.695 1.257-.695M309.19 154.28c1.306 0 1.7 1.366 1.7 3.037 0 1.676-.394 2.362-1.7 2.362-1.312 0-1.702-.687-1.702-2.363 0-1.67.39-3.037 1.7-3.037M310.996 160.38c1.198 0 2.174.503 2.174 1.8 0 1.297-.976 2.347-2.174 2.347-1.193 0-1.612-1.05-1.612-2.347s.42-1.8 1.612-1.8M319.572 157.583c.78 0 1.41.488 1.41 1.085 0 .6-.63 1.09-1.41 1.09-.78 0-1.41-.49-1.41-1.09 0-.597.63-1.085 1.41-1.085M372.72 163.95c.44 0 .8.39.8.868 0 .483-.36.873-.8.873-.44 0-.794-.39-.794-.872 0-.478.355-.868.794-.868M369.43 150.996c.98 0 1.77.893 1.77 1.992 0 1.1-.79 1.992-1.77 1.992-.982 0-1.77-.892-1.77-1.992s.788-1.992 1.77-1.992M398.807 114.887c.66 0 1.193.552 1.193 1.233 0 .68-.532 1.227-1.193 1.227-.66 0-1.193-.547-1.193-1.227s.532-1.233 1.193-1.233M373.036 117.39c1.143 0 2.075 1.293 2.075 2.886 0 1.592-.93 2.884-2.074 2.884-1.15 0-2.076-1.292-2.076-2.884 0-1.593.927-2.885 2.076-2.885" fill="#231f20" fill-rule="evenodd"/><path d="M370.45 119.803c.768 0 1.394.868 1.394 1.933 0 1.07-.626 1.938-1.395 1.938-.77 0-1.392-.868-1.392-1.938 0-1.065.622-1.933 1.39-1.933M317.22 117.93c1.4 0 2.533 1.41 2.533 3.146 0 1.74-1.134 3.145-2.534 3.145s-2.535-1.404-2.535-3.144c0-1.736 1.134-3.146 2.534-3.146" fill="#231f20" fill-rule="evenodd"/></svg>