<svg xmlns="http://www.w3.org/2000/svg" width="400" height="402.264"><path d="M22.163 253.114l-4.59 3.05c-1.293.827-2.963 1.81-4.23 2.59l.033.106c1.51-.12 3.433-.29 4.92-.364l5.5-.12-1.633-5.262zm5.9 4.79l6.627-.237 1.732 5.58-26.065.113-2.182-7.028 21.505-14.808 1.798 5.794-5.54 3.733 2.125 6.854zM23.408 239.025c.51-1.593.866-4.057.452-6.426-.448-2.55-1.74-3.713-3.38-3.426-1.494.262-2.2 1.586-2.703 4.716-.743 4.337-2.53 7.43-6.136 8.06-4.19.736-7.978-2.242-8.987-7.998-.492-2.81-.297-4.907.14-6.485l4.662.46c-.308 1.03-.686 2.937-.27 5.305.42 2.403 1.754 3.372 2.992 3.154 1.567-.273 2.023-1.743 2.7-5.167.843-4.617 2.752-7.018 6.25-7.63 4.116-.722 8.163 1.797 9.344 8.538.493 2.807.213 5.71-.31 7.228l-4.752-.33zM21.27 207.82c-.158-3.807-3.832-5.84-8.71-5.64-4.473.183-8.23 2.447-8.07 6.328.16 3.88 4.02 5.907 8.675 5.715 4.694-.193 8.26-2.596 8.105-6.367v-.036zm4.48.074c.303 7.355-5.1 11.944-12.194 12.236-7.465.307-13.243-4.268-13.543-11.586-.314-7.65 5.242-12.062 12.117-12.343 8.203-.336 13.32 4.377 13.62 11.656v.038zM26.255 173.714c.383 1.04.746 3.454.46 6.435-.823 8.577-6.623 12.48-13.728 11.797-8.47-.812-12.565-7.3-11.844-14.81.28-2.908 1.08-5.06 1.692-6.006l4.305 1.604c-.585 1.06-1.178 2.6-1.373 4.624-.424 4.418 1.932 8.137 7.49 8.67 4.97.478 8.384-2.168 8.86-7.137.166-1.73.012-3.604-.357-4.79l4.495-.386zM4.334 159.896l24.486 4.67-1.053 5.523-24.485-4.672 1.052-5.522zM22.914 145.12l-5.51-.017c-1.536-.03-3.47-.144-4.958-.2l-.032.106c1.324.74 3.016 1.667 4.293 2.433l4.638 2.96 1.57-5.283zm2.24 7.263l5.638 3.488-1.665 5.603L7.404 147.07l2.096-7.054 26.105-.345-1.727 5.815-6.68.02-2.045 6.878zM43.385 120.47c.036 1.11-.38 3.513-1.593 6.252-3.485 7.883-10.22 9.758-16.748 6.87-7.78-3.44-9.623-10.89-6.57-17.79 1.18-2.67 2.62-4.462 3.498-5.165l3.58 2.877c-.89.82-1.938 2.097-2.76 3.956-1.796 4.06-.733 8.332 4.375 10.59 4.567 2.02 8.638.586 10.658-3.98.703-1.59 1.146-3.417 1.17-4.66l4.39 1.05zM26.965 100.436l21.754 12.17-2.746 4.905-21.754-12.167 2.745-4.907zM53.91 97.04c2.2-3.11.533-6.96-3.45-9.78-3.654-2.585-8.01-3.085-10.254.085-2.243 3.17-.424 7.128 3.38 9.82 3.834 2.713 8.126 2.984 10.304-.094l.02-.03zm3.505 2.797c-4.252 6.007-11.33 6.345-17.126 2.243-6.1-4.315-7.88-11.464-3.652-17.44 4.42-6.25 11.514-6.35 17.13-2.378 6.702 4.742 7.875 11.597 3.67 17.545l-.023.03zM66.628 86.807L48.624 69.57l4.554-4.755 10.178 2.577c2.918.748 6.16 1.855 8.982 2.97l.052-.054c-2.607-2.035-5.115-4.282-7.84-6.89l-5.235-5.014 3.58-3.74L80.9 71.904l-4.093 4.272-10.628-2.803c-2.974-.798-6.422-1.796-9.35-2.96l-.103.104c2.532 2.17 5.122 4.546 8.06 7.358l5.422 5.193-3.582 3.74zM87.016 49.86c.454-.195.953-.514 1.61-.993 2.42-1.768 3.02-4.083 1.534-6.114-1.352-1.852-3.414-2.04-5.713-.36-.927.677-1.51 1.194-1.773 1.524l4.342 5.943zM75.83 44.017c1.23-1.264 3.07-2.885 5.846-4.914 2.808-2.05 5.232-2.997 7.382-2.874 2.005.046 4.063 1.108 5.503 3.08 1.463 2 2.057 4.13 1.67 6.108-.505 2.568-2.333 4.957-5.02 6.922-.597.435-1.156.798-1.64 1.014l5.28 7.228-4.51 3.294-14.51-19.86zM106.022 36.593l1.94-1.078c2.458-1.364 3.23-3.4 2.172-5.308-1.096-1.973-3.028-2.252-5.29-.996-1.198.666-1.84 1.107-2.142 1.4l3.32 5.983zM95.954 29.96c1.423-1.17 3.642-2.66 6.293-4.13 3.234-1.795 5.767-2.567 8.018-2.166 1.9.298 3.455 1.42 4.568 3.427 1.525 2.75.613 5.752-.885 7.472l.053.097c1.862-.23 3.492.725 5.154 2.424 2.062 2.113 4.288 4.6 5.175 5.207l-5.044 2.8c-.664-.434-2.202-1.907-4.307-4.25-2.14-2.406-3.473-2.598-5.527-1.5l-1.456.81 4.758 8.568-4.882 2.71-11.92-21.47zM135.657 33.29c3.554-1.372 4.297-5.504 2.538-10.06-1.613-4.173-4.965-7-8.588-5.6-3.623 1.397-4.3 5.703-2.62 10.05 1.693 4.38 5.117 6.985 8.635 5.625l.035-.014zm1.37 4.268c-6.864 2.653-12.947-.985-15.505-7.608-2.694-6.968-.22-13.91 6.61-16.55 7.142-2.758 13.105 1.083 15.585 7.5 2.96 7.66.14 14.02-6.655 16.645l-.034.013zM150.705 11.5l-6.537 1.606-1.128-4.597 18.602-4.57 1.13 4.598-6.608 1.623 4.815 19.608-5.46 1.34-4.815-19.607zM183.955 15.402l-9.098 1.152.742 5.87 10.163-1.287.58 4.586-15.74 1.993-3.13-24.726 15.225-1.93.58 4.587-9.648 1.22.65 5.138 9.098-1.153.577 4.55zM208.457 24.574c-.99.497-3.348 1.128-6.343 1.177-8.615.14-13.14-5.187-13.257-12.324-.14-8.504 5.848-13.3 13.393-13.423 2.92-.047 5.15.51 6.157 1.01l-1.112 4.457c-1.117-.462-2.716-.88-4.75-.848-4.436.072-7.868 2.828-7.777 8.413.082 4.992 3.09 8.087 8.084 8.006 1.737-.028 3.58-.39 4.72-.89l.885 4.424zM219.275 6.105l-6.69-.75.528-4.706 19.04 2.136-.527 4.704-6.763-.758-2.254 20.07-5.587-.627 2.252-20.07zM242.813 26.444c3.7.905 6.672-2.062 7.83-6.804 1.064-4.347-.07-8.583-3.842-9.506-3.772-.922-6.787 2.224-7.893 6.752-1.116 4.56.206 8.653 3.87 9.55l.036.008zM241.5 30.73c-7.15-1.748-10.064-8.21-8.377-15.107 1.775-7.256 7.77-11.54 14.886-9.8 7.434 1.818 10.132 8.378 8.5 15.06-1.952 7.977-7.9 11.586-14.975 9.855l-.036-.008zM267.286 23.79l2.062.82c2.612 1.044 4.677.355 5.486-1.673.836-2.097-.17-3.77-2.574-4.73-1.272-.506-2.02-.726-2.44-.773l-2.534 6.356zm-1.23-11.998c1.806.36 4.363 1.142 7.18 2.265 3.437 1.37 5.636 2.844 6.753 4.842.968 1.66 1.08 3.577.23 5.706-1.164 2.92-4.067 4.112-6.35 4.04l-.038.104c1.354 1.295 1.644 3.163 1.38 5.526-.334 2.934-.852 6.232-.76 7.304l-5.363-2.138c-.083-.79.085-2.912.57-6.025.513-3.18-.183-4.333-2.335-5.23l-1.545-.617-3.63 9.105-5.187-2.067 9.093-22.816zM293.3 39.805l1.248-5.37c.37-1.49.91-3.35 1.298-4.79l-.096-.052c-1.018 1.124-2.298 2.568-3.33 3.642l-3.918 3.862 4.8 2.708zm-7.578.565l-4.658 4.72-5.09-2.872 18.884-17.97 6.41 3.616-5.48 25.53-5.284-2.982 1.467-6.518-6.248-3.524zM311.693 60.003c.297.395.92.918 1.43 1.346 3.91 3.334 8.295 3.348 12.125-1.21 3.45-4.105 2.77-8.01-.966-11.15-.934-.785-1.658-1.248-2.096-1.473l-10.493 12.486zm8.76-19.16c1.822 1.05 4.008 2.646 6.158 4.454 3.655 3.068 5.533 5.66 6.18 8.572.743 3.137-.01 6.56-2.865 9.96-3.07 3.65-6.517 5.052-9.637 5.086-3.414-.02-7.166-1.818-10.902-4.96-2.24-1.88-3.732-3.376-4.662-4.4l15.728-18.712zM341.825 80.392l-6.202-6.756-4.36 4.002 6.927 7.546-3.405 3.125-10.728-11.69 18.363-16.854 10.377 11.307-3.405 3.127-6.576-7.167L339 70.535l6.2 6.757-3.375 3.1zM357.303 101.607l3.595-4.18c1.02-1.146 2.363-2.543 3.372-3.638l-.06-.094c-1.424.525-3.227 1.208-4.64 1.682l-5.263 1.604 2.997 4.625zm-6.978-3.017l-6.316 2.02-3.177-4.907 25.068-7.155 4 6.178-16.702 20.07-3.298-5.09 4.325-5.093-3.9-6.023zM354.767 117.77l22.635-10.443 2.758 5.978-6.126 8.528c-1.763 2.444-3.983 5.056-6.054 7.275l.03.066c2.85-1.68 5.86-3.192 9.286-4.772l6.583-3.036 2.168 4.7-22.635 10.444-2.48-5.373 6.5-8.864c1.832-2.476 4.024-5.32 6.18-7.618l-.06-.135c-2.947 1.563-6.107 3.102-9.8 4.806l-6.817 3.146-2.17-4.702zM390.282 138.49l-23.594 8.043-1.816-5.32 23.598-8.047 1.812 5.323zM382.282 169.763c2.91-.728 6.396-1.577 9.98-2.333l-.016-.072c-3.28-.14-6.97-.42-10.027-.76l-10.145-.957-.908-4.305 8.858-4.592c2.728-1.408 5.998-2.928 9.09-4.224l-.015-.073c-3.317.586-7.112 1.236-10.182 1.732l-9.364 1.484-1.077-5.103 24.72-3.59 1.552 7.348-7.676 4.115c-2.618 1.383-5.506 2.748-8.252 3.895l.032.144c2.96.057 6.32.217 9.246.468l8.65.86 1.527 7.238-24.118 6.45-1.132-5.357 9.254-2.367zM385.598 193.415l5.207-1.814c1.457-.478 3.32-1.016 4.743-1.457l-.007-.11c-1.492-.26-3.397-.57-4.856-.87l-5.358-1.253.272 5.505zm-4.525-6.108l-6.477-1.42-.29-5.838 25.278 6.376.366 7.35-24.518 8.994-.3-6.06 6.298-2.237-.357-7.166zM400 207.932l-.404 5.606-20.14-1.448-.71 9.885-4.722-.338 1.116-15.495 24.86 1.79zM381.22 241.445l1.662-9.022-5.82-1.072-1.855 10.078-4.548-.838 2.873-15.605 24.518 4.516-2.78 15.097-4.546-.837 1.762-9.568-5.093-.938-1.662 9.022-4.51-.83zM375.155 246.187c-1.175 1.188-2.61 3.225-3.31 5.524-.76 2.476-.133 4.1 1.458 4.585 1.45.443 2.68-.42 4.547-2.98 2.626-3.53 5.618-5.475 9.12-4.406 4.066 1.24 6.094 5.615 4.387 11.202-.834 2.723-1.96 4.506-3.063 5.717l-3.947-2.525c.74-.778 1.943-2.304 2.645-4.603.713-2.336-.036-3.803-1.24-4.17-1.52-.465-2.59.64-4.745 3.383-2.845 3.733-5.63 5.007-9.026 3.97-3.995-1.222-6.462-5.3-4.46-11.845.83-2.722 2.395-5.185 3.548-6.3l4.087 2.447z" fill="#373535"/><path d="M358.48 200.35c0 87.447-70.892 158.337-158.34 158.337-87.45 0-158.34-70.89-158.34-158.336 0-87.448 70.89-158.34 158.34-158.34 87.448 0 158.34 70.892 158.34 158.34" fill="#fff215"/><path d="M115.197 204.428c-2.305-2.05-9.605-2.18-10.758-.13-1.154 2.05-1.283.898-1.795 3.97-.512 3.075-2.56 7.944-2.304 13.067.257 5.12-.256 7.556 1.41 11.397 1.665 3.842-1.153 7.812 2.304 11.783 3.46 3.97 4.227 5.38 6.532 3.843 2.306-1.538 3.843-2.69 4.227-6.276.384-3.587 0-9.478 2.178-13.193 2.178-3.714 4.74-4.995 5.124-9.35.383-4.354-1.922-9.86-2.946-11.143-1.026-1.28-3.97-3.97-3.97-3.97" fill="#fff"/><path d="M202.64 134.132s-7.134-26.502 9.175-33.126c0 0 14.78 8.663 8.154 32.616 0 0 12.74.018 12.74-28.03 0-20.385-22.425-19.365-22.425-19.365s-20.895-1.02-20.895 26.5c0 17.838 13.25 21.405 13.25 21.405" fill="#ef4b37"/><path d="M281.306 167.5c2.64-.377 5.128 2.46 6.563 5.742 1.433 3.28 0 12.303-3.283 12.713-3.28.41-6.768-.41-7.588-8.203-.82-7.79 2.87-10.048 4.306-10.252M282.738 162.888c.126 2.033-.504 3.728-1.408 3.785-.907.055-1.74-1.55-1.866-3.584-.126-2.035.505-3.73 1.41-3.786.906-.055 1.74 1.548 1.864 3.584M108.797 198.328c1.41-.083 2.6 1.527 3.213 3.322.614 1.796-.54 6.5-2.294 6.573-1.75.072-3.556-.516-3.645-4.668-.09-4.153 1.96-5.18 2.727-5.227M109.757 195.955c-.024 1.08-.43 1.948-.912 1.937-.48-.01-.85-.894-.827-1.974.024-1.08.43-1.948.913-1.938.48.01.85.895.827 1.975M116.996 199.175c1.394.223 2.21 2.05 2.422 3.936.212 1.89-1.93 6.232-3.657 5.925-1.725-.306-3.36-1.27-2.554-5.344.81-4.072 3.03-4.636 3.79-4.515M118.445 197.066c-.256 1.05-.842 1.807-1.308 1.694-.467-.114-.638-1.057-.382-2.107.256-1.05.84-1.808 1.308-1.695.467.115.638 1.057.382 2.108M121.693 211.575c1.313.518 1.716 2.478 1.515 4.365-.2 1.89-3.227 5.67-4.845 4.997-1.62-.674-3.01-1.963-1.344-5.768 1.665-3.807 3.958-3.878 4.673-3.595M123.562 209.827c-.476.97-1.21 1.584-1.642 1.372-.43-.213-.395-1.17.08-2.14.477-.97 1.212-1.585 1.644-1.374.432.212.394 1.17-.082 2.14M100.798 205.04c1.328-.484 2.93.713 4.035 2.257 1.106 1.542 1.36 6.378-.298 6.95-1.657.577-3.553.536-4.838-3.414-1.286-3.95.38-5.528 1.1-5.792M101.034 202.492c.29 1.04.148 1.99-.316 2.12-.462.126-1.07-.614-1.36-1.653-.29-1.043-.15-1.99.313-2.12.464-.13 1.073.61 1.364 1.652M98.706 221.546c1.328-.49 2.93.71 4.035 2.254 1.107 1.542 1.36 6.378-.297 6.95-1.656.577-3.553.537-4.837-3.413-1.287-3.95.38-5.527 1.1-5.79M98.942 218.995c.29 1.042.148 1.99-.316 2.12-.462.128-1.07-.612-1.36-1.653-.29-1.04-.15-1.99.313-2.12.464-.126 1.07.612 1.362 1.653M296.275 166.884c2.64-.377 5.128 2.46 6.562 5.742 1.436 3.28 0 12.303-3.28 12.713-3.282.41-6.768-.41-7.588-8.204-.822-7.79 2.87-10.047 4.305-10.252M297.708 162.272c.126 2.035-.506 3.73-1.41 3.785-.907.055-1.74-1.55-1.865-3.584s.504-3.73 1.41-3.784c.905-.057 1.74 1.548 1.865 3.582M271.453 185.172c2.238-1.448 5.687.085 8.365 2.463s5.156 11.17 2.35 12.918c-2.807 1.75-6.316 2.464-10.327-4.266-4.01-6.73-1.602-10.326-.387-11.115M270.82 180.385c.967 1.795 1.105 3.598.307 4.027-.797.43-2.228-.677-3.196-2.473-.965-1.794-1.1-3.597-.303-4.027.8-.43 2.228.676 3.194 2.472M310.443 186.034c-2.14-1.418-5.475.024-8.08 2.285-2.6 2.26-5.075 10.7-2.39 12.41 2.683 1.712 6.053 2.437 9.983-4.002 3.928-6.44 1.65-9.924.487-10.694M311.1 181.43c-.95 1.72-1.1 3.453-.336 3.874.764.423 2.152-.628 3.1-2.346s1.1-3.452.337-3.875c-.766-.42-2.15.63-3.1 2.348M289.92 200.72c3.28 0 7.175 1.435 9.432 4.306 2.254 2.87 4.92 6.356 1.846 8.408-3.077 2.048-3.077 3.074-7.793 2.048-4.717-1.024-3.897-1.024-7.792-1.024-3.898 0-6.562-2.46-6.562-4.306 0-1.845 3.692-5.332 5.742-6.562 2.05-1.23 2.46-2.46 4.51-2.665M163.135 302.432c4.05 0 4.074.788 6.703 3.55 2.63 2.76 5.39 5.783 7.887 8.543 2.498 2.76 3.942 8.676 1.05 9.2-2.89.526-10.646 1.84-12.485.658-1.84-1.182-1.446-3.287-3.286-1.052-1.84 2.234-9.464 4.6-11.7 3.55-2.234-1.052-3.81-4.994-3.81-6.44 0-1.447.13-3.418 2.497-6.18 2.368-2.758 4.865-5.518 6.704-8.28 1.84-2.758 5.915-3.548 6.44-3.548M169.18 272.07c3.285-.112 7.887 2.366 7.23 10.646-.656 8.282-3.285 13.406-7.754 13.67-4.47.263-7.887-4.862-6.442-12.88 1.446-8.018 3.155-11.305 6.967-11.437M153.014 274.962c4.057-.37 6.31 4.206 5.783 9.33-.524 5.13-1.71 9.334-6.57 10.123-4.865.788-6.704-6.18-6.31-10.385.394-4.206 2.76-8.675 7.097-9.068M141.053 293.626c2.527-.738 6.047 3.55 6.047 8.937 0 5.39-1.447 8.02-4.996 8.675-3.548.66-6.44-3.285-6.31-8.675.133-5.387 2.104-8.016 5.26-8.937M183.902 288.37c4.052.448 4.864 4.863 3.944 10.12-.92 5.258-3.418 9.99-6.836 9.463-3.417-.526-5.782-3.285-5.65-8.413.13-5.125 2.1-6.177 3.68-8.937 1.576-2.76 3.68-2.366 4.862-2.234M110.305 218.695c1.474-.156 1.937-.077 3.022 1.704 1.085 1.78.774.853 2.48 3.408 1.704 2.557 1.627 5.502.154 5.116-1.47-.388-1.86-2.56-2.942-3.1-1.085-.544-1.085 1.548-3.254 3.02-2.17 1.473-3.1 2.635-3.487 1.164-.388-1.472-.233-3.643-.233-4.96 0-1.316.698-1.937 1.163-2.788.465-.853 3.098-3.565 3.098-3.565M111.933 233.26c-1.04 1.04.077 3.255-.853 4.03-.93.775-3.64 1.24-2.48 1.937 1.164.698 2.015 1.163 3.565 1.318 1.55.154 2.248.62 2.248-1.087 0-1.704.464-1.548 0-3.717-.465-2.168-1.704-3.254-2.48-2.48" fill="#373535"/><path d="M136.424 148.73c.684 0 2.74.153 2.74-.985 0-1.14-1.988-5.087-2.535-6.15-.618-1.215-1.782-4.023-3.286-4.023-1.645 0-2.808 4.555-3.082 5.39-.274.834-1.438 3.796-1.438 4.707 0 1.29 1.712 1.06 2.464 1.06h5.136zm-14.38-5.465c2.125-5.237 4.93-11.92 4.93-17.917 0-5.237 2.192-9.184 8.286-9.184 5.956 0 9.722 6.756 12.392 11.766 1.163 2.202 11.502 25.433 13.967 31.658 2.257 5.77 5.954 2.278 5.954 6.604 0 5.54-9.72 5.314-13.144 5.314-9.79 0-15.68-.076-15.68-4.783 0-3.643 4.177-2.277 4.177-4.934 0-3.417-1.71-3.72-12.734-3.72-3.56 0-5.682.15-5.682 3.87 0 2.96 4.383.99 4.383 4.936 0 4.554-7.394 4.63-10.133 4.63-9.79 0-10.68-2.05-10.68-4.48 0-3.566 3.697-2.503 5.682-5.237 1.506-2.05 2.943-5.695 3.97-8.124l4.313-10.4z" fill="#ee3338"/><path d="M251.63 264.36c.684 0 2.737.153 2.737-.987s-1.985-5.086-2.532-6.147c-.617-1.215-1.78-4.024-3.287-4.024-1.645 0-2.807 4.554-3.082 5.388-.274.836-1.437 3.796-1.437 4.707 0 1.293 1.71 1.064 2.464 1.064h5.135zm-14.38-5.463c2.123-5.24 4.93-11.92 4.93-17.92 0-5.237 2.192-9.184 8.286-9.184 5.957 0 9.72 6.755 12.39 11.767 1.165 2.2 11.504 25.432 13.968 31.656 2.26 5.77 5.956 2.28 5.956 6.606 0 5.54-9.72 5.313-13.144 5.313-9.79 0-15.68-.075-15.68-4.782 0-3.644 4.18-2.277 4.18-4.935 0-3.416-1.713-3.72-12.737-3.72-3.562 0-5.683.152-5.683 3.873 0 2.96 4.38.987 4.38 4.935 0 4.555-7.393 4.63-10.132 4.63-9.79 0-10.68-2.05-10.68-4.48 0-3.566 3.697-2.502 5.68-5.237 1.51-2.05 2.946-5.695 3.973-8.123l4.313-10.398z" fill="#3f4096"/><path d="M200.25 192.693c-2.67 0-2.6.91-2.6 2.43v11.388c0 1.595-.618 3.34 3.08 3.34 4.52 0 6.297-3.796 6.297-8.426 0-4.783-2.19-8.73-6.777-8.73m-18.35 3.643c0-5.694-6.366-2.658-6.366-7.44 0-3.036 3.012-3.644 5.136-3.644 1.71 0 3.353.153 5.065.153 9.927 0 17.322-1.14 18.828-1.14 9.312 0 18.28 5.466 18.28 16.855 0 11.31-8.626 17.385-18.142 17.385-2.055 0-4.108-.38-5.956-.38-.822 0-1.095.38-1.095 1.214v4.405c.205 9.487 5.2 5.54 5.2 9.943 0 4.935-9.858 5.164-12.94 5.164-2.873 0-13.006-.077-13.006-5.012 0-4.174 4.997-1.594 4.997-7.82v-29.683z" fill="#00a85a"/><path d="M96.548 373.673l11.7-22.012 5.813 3.092.285 10.498c.074 3.012-.11 6.43-.418 9.452l.065.034c1.252-3.06 2.734-6.086 4.504-9.415l3.402-6.4 4.572 2.43-11.7 22.008-5.226-2.776-.188-10.99c-.04-3.08-.016-6.67.31-9.805l-.13-.07c-1.4 3.028-2.982 6.164-4.892 9.756l-3.524 6.63-4.572-2.43zM135.726 364.967l-9.466 23.066-5.202-2.136 9.466-23.064 5.202 2.134zM150.174 395.294c-1.096.165-3.532.035-6.395-.848-8.238-2.538-10.887-9.006-8.786-15.827 2.505-8.13 9.686-10.834 16.896-8.61 2.793.86 4.74 2.08 5.54 2.87l-2.438 3.89c-.918-.786-2.307-1.676-4.25-2.276-4.243-1.31-8.36.248-10.006 5.584-1.47 4.773.432 8.648 5.204 10.12 1.66.51 3.526.738 4.763.615l-.53 4.48zM169.527 388.938l-.623-5.476c-.148-1.528-.26-3.462-.38-4.946l-.11-.02c-.58 1.4-1.304 3.19-1.915 4.546l-2.402 4.95 5.43.946zm-6.952 3.07l-2.81 6.005-5.756-1.002 11.776-23.25 7.252 1.263 3.378 25.886-5.974-1.04-.8-6.633-7.067-1.23zM187.85 387.73l2.215.108c2.808.138 4.54-1.184 4.646-3.362.11-2.256-1.383-3.514-3.97-3.64-1.366-.067-2.145-.03-2.556.06l-.335 6.834zm-5.058-10.95c1.826-.242 4.498-.335 7.528-.187 3.693.18 6.252.862 7.956 2.39 1.456 1.255 2.185 3.03 2.072 5.32-.153 3.142-2.513 5.212-4.695 5.883l-.006.11c1.702.788 2.585 2.46 3.1 4.782.636 2.884 1.216 6.17 1.65 7.154l-5.763-.283c-.336-.72-.864-2.784-1.417-5.882-.548-3.176-1.578-4.04-3.904-4.192l-1.663-.082-.48 9.79-5.578-.274 1.2-24.53zM216.98 390.64l-1.942-5.157c-.517-1.447-1.1-3.293-1.577-4.704l-.11.007c-.22 1.5-.486 3.41-.748 4.876l-1.12 5.39 5.498-.413zm-5.993 4.678l-1.256 6.51-5.828.436 5.74-25.43 7.34-.548 9.605 24.282-6.048.453-2.397-6.236-7.156.534zM250.984 394.618c-1.587.928-4.648 2.386-7.874 3.045-4.457.914-7.912.45-10.596-1.228-2.647-1.687-4.533-4.622-5.266-8.21-1.624-8.124 3.332-13.973 11.34-15.612 3.153-.644 5.707-.526 7.013-.226l-.245 4.694c-1.47-.34-3.187-.442-5.868.106-4.603.942-7.583 4.27-6.5 9.562 1.038 5.074 4.826 7.356 9.357 6.428 1.23-.25 2.216-.605 2.615-.875l-1.055-5.144-3.768.77-.882-4.312 9.095-1.86 2.634 12.864zM254.312 368.654l4.735 13.51c1.432 4.08 3.725 5.59 6.413 4.65 2.792-.98 3.642-3.473 2.173-7.662l-4.735-13.508 5.305-1.862 4.626 13.196c2.545 7.26.09 12-6.05 14.154-5.936 2.08-10.554-.023-13.173-7.494l-4.602-13.123 5.307-1.86zM287.694 370.177l-3.757-4.034c-1.025-1.142-2.268-2.63-3.243-3.754l-.1.048c.365 1.473.846 3.342 1.162 4.798l1.01 5.407 4.928-2.466zm-3.766 6.6l1.31 6.502-5.227 2.616-4.347-25.703 6.58-3.296 18.11 18.813-5.425 2.716-4.584-4.86-6.416 3.212z" fill="#373535"/></svg>