<svg xmlns="http://www.w3.org/2000/svg" width="586.218" height="308.277"><g font-size="33.778" font-weight="bold" fill="#005bab" font-family="Arial"><path style="-inkscape-font-specification:Arial-BoldMT" d="M38.832 253.75l-2.476-7.922H25.72l-2.476 7.922H17.4l10.182-31.01h6.893l10.14 31.01h-5.783m-6.536-21.72c-.16-.515-.317-1.03-.475-1.542-.145-.528-.277-1.005-.396-1.43-.105-.44-.198-.8-.277-1.08-.066-.278-.106-.432-.12-.46-.012.043-.052.204-.118.483-.067.28-.16.632-.278 1.057-.106.426-.238.903-.396 1.43-.145.514-.297 1.028-.456 1.542l-2.753 8.912h8.022l-2.754-8.913M66.575 246.796c0 1.144-.217 2.17-.653 3.08-.423.91-1.043 1.688-1.862 2.334-.82.63-1.822 1.122-3.01 1.474-1.19.338-2.543.507-4.06.507-1.36 0-2.59-.11-3.685-.33-1.096-.22-2.06-.58-2.892-1.078-.82-.513-1.506-1.174-2.06-1.98-.555-.808-.97-1.805-1.248-2.994l4.892-.814c.16.66.377 1.196.654 1.607.278.41.622.727 1.03.947.41.22.886.367 1.427.44.555.073 1.182.11 1.882.11.633 0 1.22-.037 1.762-.11.554-.088 1.03-.227 1.426-.418.41-.207.726-.485.95-.837.225-.367.337-.822.337-1.365 0-.616-.165-1.1-.495-1.452-.317-.367-.76-.66-1.327-.88-.555-.236-1.215-.434-1.98-.595-.754-.175-1.56-.373-2.417-.593-.898-.22-1.783-.484-2.655-.792-.87-.31-1.65-.727-2.336-1.255-.686-.528-1.24-1.196-1.664-2.003-.422-.82-.633-1.856-.633-3.103 0-1.13.198-2.135.594-3.015.397-.896.978-1.65 1.744-2.268.766-.63 1.71-1.107 2.832-1.43 1.136-.338 2.437-.506 3.902-.506 1.162 0 2.245.124 3.25.374 1.002.234 1.9.616 2.692 1.144.793.514 1.453 1.174 1.98 1.98.543.808.92 1.784 1.13 2.928l-4.932.572c-.092-.572-.257-1.042-.495-1.408-.238-.382-.535-.683-.89-.903-.345-.22-.747-.367-1.21-.44-.462-.088-.97-.132-1.525-.132-1.32 0-2.31.192-2.97.573-.66.367-.99.99-.99 1.87 0 .544.13.977.395 1.3.277.322.66.594 1.15.814.5.205 1.088.39 1.762.55.686.147 1.432.33 2.238.55.99.235 1.96.514 2.912.836.964.31 1.815.74 2.555 1.3.752.542 1.353 1.246 1.802 2.112.462.865.693 1.966.693 3.3M91.427 241.822c0 1.82-.23 3.485-.693 4.996-.45 1.51-1.13 2.817-2.04 3.917-.91 1.086-2.047 1.937-3.407 2.553-1.36.602-2.945.903-4.754.903-1.743 0-3.28-.3-4.615-.902-1.333-.6-2.456-1.445-3.367-2.53-.897-1.086-1.577-2.385-2.04-3.896-.46-1.526-.692-3.206-.692-5.04 0-1.775.218-3.41.653-4.908.45-1.51 1.124-2.817 2.022-3.917.898-1.1 2.027-1.96 3.387-2.575 1.36-.616 2.95-.924 4.772-.924 1.928 0 3.572.308 4.932.924 1.36.616 2.47 1.474 3.328 2.575.87 1.086 1.505 2.384 1.9 3.895.41 1.497.615 3.14.615 4.93m-5.823 0c0-2.832-.416-4.886-1.248-6.162-.832-1.277-2.04-1.915-3.625-1.915-1.636 0-2.89.646-3.762 1.937-.87 1.29-1.307 3.338-1.307 6.14 0 1.423.113 2.648.337 3.675.238 1.027.568 1.87.99 2.53.423.662.932 1.153 1.526 1.476.594.308 1.248.462 1.96.462.82 0 1.546-.154 2.18-.462.647-.323 1.188-.814 1.624-1.475.436-.66.766-1.504.99-2.53.225-1.028.337-2.253.337-3.676M104.784 254.19c-1.704 0-3.196-.293-4.477-.88-1.267-.587-2.324-1.416-3.17-2.487-.844-1.07-1.478-2.355-1.9-3.85-.423-1.512-.634-3.178-.634-4.997 0-1.98.23-3.74.693-5.282.462-1.555 1.13-2.86 2-3.917.872-1.07 1.942-1.886 3.21-2.443 1.28-.558 2.733-.836 4.357-.836 1.387 0 2.615.205 3.684.616 1.083.41 2.014.976 2.793 1.694.78.705 1.406 1.54 1.882 2.51.488.968.825 2.01 1.01 3.124l-5.605.31c-.16-1.22-.555-2.188-1.19-2.906-.633-.734-1.53-1.1-2.693-1.1-1.492 0-2.58.68-3.268 2.046-.687 1.364-1.03 3.345-1.03 5.942 0 5.487 1.46 8.23 4.378 8.23 1.056 0 1.94-.366 2.654-1.1.713-.748 1.155-1.855 1.327-3.323l5.585.288c-.132 1.1-.435 2.156-.91 3.17-.463.996-1.097 1.884-1.902 2.662-.792.763-1.756 1.38-2.892 1.848-1.136.455-2.436.683-3.902.683M118.405 225.646v-4.555h5.566v4.556h-5.565m0 28.104v-23.812h5.566v23.812h-5.565M134.634 254.19c-1.03 0-1.954-.153-2.773-.462-.804-.322-1.49-.785-2.06-1.386-.567-.616-1.002-1.372-1.306-2.267-.304-.895-.456-1.915-.456-3.06 0-1.408.218-2.59.654-3.542.45-.97 1.056-1.746 1.822-2.333.766-.602 1.664-1.035 2.694-1.3 1.03-.277 2.126-.424 3.288-.44l4.615-.087v-1.21c0-.866-.072-1.585-.217-2.157-.132-.587-.33-1.064-.594-1.43-.265-.367-.595-.624-.99-.77-.384-.162-.827-.243-1.328-.243-.463 0-.88.05-1.248.154-.357.103-.667.286-.93.55-.265.25-.483.595-.655 1.035-.16.425-.272.968-.338 1.628l-5.803-.308c.157-1.042.448-1.988.87-2.84.423-.865 1.004-1.613 1.743-2.244.753-.63 1.67-1.115 2.754-1.452 1.096-.352 2.376-.528 3.842-.528 1.333 0 2.52.183 3.565.55 1.043.367 1.927.917 2.654 1.65.725.72 1.28 1.607 1.662 2.663.383 1.058.575 2.283.575 3.677v8.67c0 .558.02 1.057.06 1.497.052.44.138.815.257 1.123.132.293.31.52.535.682.236.146.54.22.91.22.422 0 .832-.045 1.228-.133v3.345c-.33.088-.627.17-.892.242-.264.074-.528.132-.792.176-.264.044-.548.08-.852.11-.29.03-.633.044-1.03.044-1.4 0-2.436-.38-3.11-1.144-.66-.763-1.056-1.885-1.188-3.367h-.12c-.738 1.482-1.69 2.633-2.85 3.455-1.15.822-2.55 1.233-4.2 1.233m6.477-11.466l-2.85.044c-.595.03-1.163.088-1.705.176-.528.074-.997.243-1.406.507-.397.25-.714.617-.952 1.1-.237.485-.356 1.145-.356 1.982 0 1.13.23 1.973.693 2.53.475.544 1.103.815 1.882.815.713 0 1.36-.17 1.94-.506.582-.337 1.07-.777 1.467-1.32.41-.557.726-1.195.95-1.914.225-.72.337-1.453.337-2.2v-1.212M161.17 254.19c-1.704 0-3.196-.293-4.477-.88-1.267-.587-2.324-1.416-3.17-2.487-.844-1.07-1.478-2.355-1.9-3.85-.423-1.512-.634-3.178-.634-4.997 0-1.98.23-3.74.692-5.282.462-1.555 1.13-2.86 2-3.917.872-1.07 1.942-1.886 3.21-2.443 1.28-.558 2.733-.836 4.357-.836 1.385 0 2.613.205 3.683.616 1.083.41 2.014.976 2.793 1.694.78.705 1.406 1.54 1.882 2.51.488.968.825 2.01 1.01 3.124l-5.606.31c-.158-1.22-.554-2.188-1.188-2.906-.634-.734-1.532-1.1-2.694-1.1-1.492 0-2.582.68-3.268 2.046-.687 1.364-1.03 3.345-1.03 5.942 0 5.487 1.46 8.23 4.377 8.23 1.056 0 1.94-.366 2.653-1.1.713-.748 1.156-1.855 1.328-3.323l5.586.288c-.132 1.1-.436 2.156-.91 3.17-.463.996-1.097 1.884-1.902 2.662-.793.763-1.757 1.38-2.892 1.848-1.136.455-2.437.683-3.902.683M174.79 225.646v-4.555h5.567v4.556h-5.566m0 28.104v-23.812h5.567v23.812h-5.566M206.43 241.822c0 1.82-.23 3.485-.693 4.996-.45 1.51-1.13 2.817-2.04 3.917-.912 1.086-2.047 1.937-3.407 2.553-1.36.602-2.945.903-4.754.903-1.743 0-3.282-.3-4.615-.902-1.333-.6-2.455-1.445-3.366-2.53-.898-1.086-1.578-2.385-2.04-3.896-.463-1.526-.694-3.206-.694-5.04 0-1.775.218-3.41.654-4.908.45-1.51 1.122-2.817 2.02-3.917.898-1.1 2.027-1.96 3.387-2.575 1.36-.616 2.952-.924 4.775-.924 1.928 0 3.572.308 4.932.924 1.36.616 2.47 1.474 3.327 2.575.872 1.086 1.506 2.384 1.902 3.895.41 1.497.614 3.14.614 4.93m-5.824 0c0-2.832-.415-4.886-1.247-6.162-.833-1.277-2.042-1.915-3.626-1.915-1.637 0-2.892.646-3.763 1.937-.87 1.29-1.307 3.338-1.307 6.14 0 1.423.112 2.648.337 3.675.238 1.027.568 1.87.99 2.53.423.662.93 1.153 1.526 1.476.594.308 1.247.462 1.96.462.82 0 1.545-.154 2.18-.462.646-.323 1.188-.814 1.623-1.475.435-.66.765-1.504.99-2.53.224-1.028.336-2.253.336-3.676m-8.16-14.107v-.682l4.99-6.34h5.112v.948l-6.735 6.075h-3.367M224.738 253.75v-13.358c0-.925-.066-1.768-.198-2.53-.132-.78-.35-1.44-.653-1.982-.304-.558-.7-.99-1.19-1.3-.488-.307-1.082-.46-1.782-.46-.673 0-1.287.168-1.842.505-.54.323-1.01.793-1.406 1.41-.396.6-.706 1.327-.93 2.178-.212.836-.318 1.76-.318 2.773v12.764h-5.567v-18.486c0-.514-.006-1.042-.02-1.585 0-.544-.013-1.057-.04-1.54-.012-.5-.025-.94-.04-1.322-.012-.396-.032-.69-.058-.88h5.308c.027.176.053.462.08.858.026.382.052.807.08 1.277.025.47.045.94.058 1.408.028.47.04.867.04 1.19h.08c.753-1.82 1.697-3.14 2.832-3.962 1.136-.822 2.49-1.232 4.06-1.232 1.295 0 2.384.234 3.27.704.897.47 1.623 1.115 2.178 1.937.568.82.977 1.79 1.228 2.905.25 1.115.376 2.318.376 3.61v15.118h-5.546M263.792 253.75l-12.162-23.878c.066.645.125 1.29.178 1.936.053.558.093 1.16.12 1.805.04.646.06 1.262.06 1.85v18.287h-5.19v-31.01h6.674l12.34 24.078c-.066-.616-.125-1.262-.178-1.937-.053-.57-.1-1.217-.14-1.936-.025-.718-.04-1.445-.04-2.178V222.74h5.19v31.01h-6.852M276.204 225.646v-4.555h5.566v4.556h-5.566m0 28.104v-23.812h5.566v23.812h-5.566M296.414 254.19c-1.703 0-3.195-.293-4.476-.88-1.268-.587-2.324-1.416-3.17-2.487-.845-1.07-1.478-2.355-1.9-3.85-.423-1.512-.635-3.178-.635-4.997 0-1.98.23-3.74.694-5.282.462-1.555 1.13-2.86 2-3.917.872-1.07 1.94-1.886 3.21-2.443 1.28-.558 2.732-.836 4.356-.836 1.387 0 2.615.205 3.685.616 1.082.41 2.013.976 2.792 1.694.78.705 1.407 1.54 1.882 2.51.49.968.825 2.01 1.01 3.124l-5.605.31c-.16-1.22-.555-2.188-1.19-2.906-.632-.734-1.53-1.1-2.692-1.1-1.493 0-2.582.68-3.27 2.046-.685 1.364-1.03 3.345-1.03 5.942 0 5.487 1.46 8.23 4.38 8.23 1.055 0 1.94-.366 2.653-1.1.713-.748 1.155-1.855 1.327-3.323l5.586.288c-.13 1.1-.435 2.156-.91 3.17-.463.996-1.096 1.884-1.902 2.662-.792.763-1.756 1.38-2.892 1.848-1.135.455-2.436.683-3.902.683M314.987 254.19c-1.03 0-1.954-.153-2.773-.462-.805-.322-1.492-.785-2.06-1.386-.568-.616-1.003-1.372-1.307-2.267-.304-.895-.456-1.915-.456-3.06 0-1.408.22-2.59.655-3.542.45-.97 1.056-1.746 1.822-2.333.766-.602 1.664-1.035 2.694-1.3 1.03-.277 2.127-.424 3.29-.44l4.614-.087v-1.21c0-.866-.072-1.585-.218-2.157-.132-.587-.33-1.064-.594-1.43-.264-.367-.594-.624-.99-.77-.383-.162-.826-.243-1.327-.243-.463 0-.88.05-1.248.154-.357.103-.667.286-.93.55-.265.25-.483.595-.655 1.035-.158.425-.27.968-.337 1.628l-5.803-.308c.158-1.042.45-1.988.87-2.84.424-.865 1.005-1.613 1.745-2.244.752-.63 1.67-1.115 2.753-1.452 1.096-.352 2.377-.528 3.842-.528 1.334 0 2.522.183 3.566.55 1.043.367 1.928.917 2.654 1.65.726.72 1.28 1.607 1.664 2.663.383 1.058.574 2.283.574 3.677v8.67c0 .558.02 1.057.06 1.497.052.44.138.815.257 1.123.132.293.31.52.535.682.237.146.54.22.91.22.423 0 .833-.045 1.23-.133v3.345c-.33.088-.628.17-.892.242-.265.074-.53.132-.793.176-.264.044-.548.08-.85.11-.292.03-.635.044-1.03.044-1.4 0-2.438-.38-3.11-1.144-.66-.763-1.058-1.885-1.19-3.367h-.118c-.74 1.482-1.692 2.633-2.854 3.455-1.15.822-2.548 1.233-4.2 1.233m6.478-11.466l-2.852.044c-.594.03-1.162.088-1.704.176-.528.074-.996.243-1.406.507-.396.25-.713.617-.95 1.1-.238.485-.357 1.145-.357 1.982 0 1.13.23 1.973.693 2.53.476.544 1.103.815 1.882.815.713 0 1.36-.17 1.94-.506.582-.337 1.07-.777 1.467-1.32.41-.557.726-1.195.95-1.914.225-.72.337-1.453.337-2.2v-1.212M332.59 253.75v-18.222c0-.514-.006-1.057-.02-1.63 0-.57-.013-1.114-.04-1.627-.013-.528-.026-.997-.04-1.408-.013-.425-.032-.733-.06-.924h5.31c.026.176.052.484.08.924.025.426.052.895.078 1.41.026.512.046 1.026.06 1.54.026.498.04.902.04 1.21h.078c.278-.866.555-1.636.832-2.31.278-.69.6-1.27.97-1.74.384-.484.84-.85 1.368-1.1.528-.264 1.18-.396 1.96-.396.33 0 .654.036.97.11.33.058.582.132.754.22v5.172c-.357-.088-.72-.162-1.09-.22-.356-.074-.785-.11-1.287-.11-1.387 0-2.47.623-3.25 1.87-.764 1.247-1.147 3.096-1.147 5.546v11.686h-5.566M353.32 254.19c-1.03 0-1.953-.153-2.772-.462-.805-.322-1.492-.785-2.06-1.386-.567-.616-1.003-1.372-1.307-2.267-.303-.895-.454-1.915-.454-3.06 0-1.408.217-2.59.653-3.542.448-.97 1.056-1.746 1.82-2.333.767-.602 1.665-1.035 2.695-1.3 1.03-.277 2.126-.424 3.288-.44l4.615-.087v-1.21c0-.866-.072-1.585-.218-2.157-.132-.587-.33-1.064-.594-1.43-.264-.367-.594-.624-.99-.77-.383-.162-.825-.243-1.327-.243-.463 0-.88.05-1.25.154-.356.103-.666.286-.93.55-.264.25-.482.595-.654 1.035-.158.425-.27.968-.336 1.628l-5.804-.308c.16-1.042.45-1.988.872-2.84.422-.865 1.003-1.613 1.743-2.244.753-.63 1.67-1.115 2.754-1.452 1.096-.352 2.377-.528 3.842-.528 1.334 0 2.523.183 3.566.55 1.043.367 1.928.917 2.654 1.65.726.72 1.28 1.607 1.664 2.663.383 1.058.574 2.283.574 3.677v8.67c0 .558.02 1.057.06 1.497.052.44.138.815.257 1.123.133.293.31.52.536.682.238.146.54.22.91.22.424 0 .833-.045 1.23-.133v3.345c-.33.088-.628.17-.892.242-.264.074-.528.132-.793.176-.263.044-.547.08-.85.11-.29.03-.634.044-1.03.044-1.4 0-2.437-.38-3.11-1.144-.66-.763-1.056-1.885-1.188-3.367h-.12c-.74 1.482-1.69 2.633-2.852 3.455-1.148.822-2.548 1.233-4.2 1.233m6.478-11.466l-2.852.044c-.594.03-1.162.088-1.703.176-.53.074-.997.243-1.407.507-.396.25-.713.617-.95 1.1-.238.485-.357 1.145-.357 1.982 0 1.13.23 1.973.692 2.53.476.544 1.103.815 1.882.815.713 0 1.36-.17 1.94-.506.582-.337 1.07-.777 1.467-1.32.41-.557.727-1.195.952-1.914.224-.72.336-1.453.336-2.2v-1.212M379.897 263.302c-1.413 0-2.66-.162-3.744-.484-1.07-.308-1.987-.75-2.753-1.32-.753-.558-1.36-1.233-1.823-2.026-.448-.777-.76-1.635-.93-2.574l5.565-.727c.198.955.62 1.703 1.268 2.246.66.543 1.52.814 2.575.814.66 0 1.26-.102 1.802-.308.555-.205 1.024-.557 1.407-1.056.396-.484.7-1.13.91-1.937.225-.808.338-1.805.338-2.994v-1.254c0-.426.006-.815.02-1.167.013-.41.02-.807.02-1.188h-.04c-.647 1.54-1.56 2.655-2.734 3.345-1.162.69-2.548 1.034-4.16 1.034-1.36 0-2.535-.293-3.525-.88-.977-.6-1.79-1.43-2.436-2.487-.647-1.072-1.13-2.34-1.446-3.808-.303-1.482-.455-3.11-.455-4.886 0-1.834.165-3.492.495-4.974.33-1.496.832-2.78 1.506-3.85.686-1.072 1.545-1.894 2.575-2.466 1.044-.587 2.28-.88 3.705-.88 1.426 0 2.7.337 3.822 1.012 1.136.675 2.02 1.768 2.655 3.28h.1c0-.31.005-.66.02-1.057.025-.41.05-.8.078-1.166.026-.38.053-.72.08-1.012.04-.293.072-.492.098-.594h5.27c-.028.528-.054 1.27-.08 2.223-.027.954-.04 2.047-.04 3.28v17.584c0 1.73-.225 3.235-.673 4.512-.45 1.29-1.11 2.362-1.98 3.213-.86.85-1.923 1.488-3.19 1.914-1.255.425-2.687.638-4.298.638m4.654-21.788c0-1.497-.13-2.744-.395-3.74-.264-1-.607-1.8-1.03-2.4-.422-.602-.91-1.027-1.466-1.277-.542-.25-1.09-.374-1.645-.374-.713 0-1.346.154-1.9.462-.542.308-1.005.785-1.388 1.43-.382.646-.673 1.468-.87 2.466-.2.998-.298 2.187-.298 3.566 0 2.568.37 4.504 1.108 5.81.74 1.306 1.842 1.96 3.308 1.96.554 0 1.102-.12 1.644-.353.554-.25 1.05-.675 1.485-1.277.436-.616.786-1.43 1.05-2.443.264-1.012.396-2.288.396-3.83M400.958 229.938v13.36c0 .923.066 1.774.198 2.552.132.762.35 1.423.654 1.98.304.543.693.97 1.168 1.277.49.308 1.083.462 1.783.462.675 0 1.282-.162 1.823-.485.555-.338 1.03-.807 1.427-1.41.396-.615.7-1.34.91-2.178.225-.85.337-1.782.337-2.795v-12.764h5.566v20.071l.04 1.562c.026.484.046.924.06 1.32l.06.858h-5.31c-.013-.176-.04-.454-.08-.836-.025-.396-.052-.83-.078-1.298-.013-.47-.033-.94-.06-1.41-.013-.468-.02-.865-.02-1.187h-.098c-.74 1.803-1.684 3.116-2.833 3.938-1.136.822-2.49 1.233-4.06 1.233-1.28 0-2.37-.234-3.27-.704-.897-.47-1.63-1.107-2.197-1.914-.555-.822-.958-1.79-1.208-2.905-.252-1.116-.378-2.32-.378-3.61v-15.12h5.566m6.418-2.574v-4.82h4.298v4.82h-4.298m-8.597 0v-4.82h4.238v4.82h-4.24M429.27 254.19c-1.546 0-2.94-.25-4.18-.748-1.228-.513-2.278-1.284-3.15-2.31-.87-1.042-1.538-2.34-2-3.896-.462-1.57-.693-3.404-.693-5.502 0-2.274.27-4.19.812-5.744.553-1.555 1.293-2.81 2.217-3.763.938-.97 2.014-1.666 3.23-2.09 1.214-.427 2.495-.64 3.84-.64 1.692 0 3.13.33 4.32.99 1.2.647 2.185 1.556 2.95 2.73.767 1.174 1.328 2.582 1.684 4.225.358 1.63.536 3.434.536 5.414v.177H425.09c0 .997.08 1.93.238 2.795.158.85.416 1.59.772 2.222.357.617.82 1.108 1.387 1.475.567.352 1.254.528 2.06.528.977 0 1.776-.227 2.396-.682.62-.47 1.063-1.188 1.327-2.156l5.25.506c-.24.675-.575 1.394-1.01 2.157-.424.763-.99 1.467-1.704 2.113-.713.63-1.605 1.16-2.674 1.584-1.057.41-2.344.617-3.863.617m0-20.797c-.57 0-1.103.11-1.605.33-.49.206-.918.543-1.288 1.012-.356.455-.647 1.05-.87 1.783-.226.734-.35 1.614-.378 2.64h8.32c-.107-1.92-.523-3.36-1.25-4.312-.726-.97-1.703-1.453-2.93-1.453M456.934 253.75v-13.358c0-.925-.066-1.768-.198-2.53-.132-.78-.35-1.44-.654-1.982-.304-.558-.7-.99-1.188-1.3-.49-.307-1.083-.46-1.783-.46-.673 0-1.287.168-1.84.505-.543.323-1.01.793-1.407 1.41-.397.6-.707 1.327-.93 2.178-.213.836-.318 1.76-.318 2.773v12.764h-5.566v-18.486c0-.514-.007-1.042-.02-1.585 0-.544-.014-1.057-.04-1.54-.014-.5-.027-.94-.04-1.322-.013-.396-.033-.69-.06-.88h5.31c.025.176.052.462.078.858.026.382.053.807.08 1.277.026.47.045.94.06 1.408.025.47.038.867.038 1.19h.08c.752-1.82 1.696-3.14 2.832-3.962 1.136-.822 2.49-1.232 4.06-1.232 1.295 0 2.384.234 3.27.704.897.47 1.623 1.115 2.177 1.937.568.82.978 1.79 1.23 2.905.25 1.115.375 2.318.375 3.61v15.118h-5.546M485.898 246.796c0 1.144-.217 2.17-.653 3.08-.423.91-1.043 1.688-1.862 2.334-.82.63-1.822 1.122-3.01 1.474-1.19.338-2.543.507-4.06.507-1.36 0-2.59-.11-3.685-.33-1.096-.22-2.06-.58-2.892-1.078-.82-.513-1.506-1.174-2.06-1.98-.555-.808-.97-1.805-1.248-2.994l4.892-.814c.16.66.377 1.196.654 1.607.277.41.62.727 1.03.947.41.22.885.367 1.426.44.555.073 1.182.11 1.882.11.634 0 1.22-.037 1.763-.11.554-.088 1.03-.227 1.426-.418.41-.207.727-.485.95-.837.226-.367.338-.822.338-1.365 0-.616-.165-1.1-.495-1.452-.317-.367-.76-.66-1.327-.88-.555-.236-1.215-.434-1.98-.595-.753-.175-1.56-.373-2.417-.593-.9-.22-1.784-.484-2.655-.792-.872-.31-1.65-.727-2.338-1.255-.686-.528-1.24-1.196-1.664-2.003-.422-.82-.633-1.856-.633-3.103 0-1.13.198-2.135.594-3.015.396-.896.977-1.65 1.743-2.268.766-.63 1.71-1.107 2.832-1.43 1.135-.338 2.436-.506 3.9-.506 1.163 0 2.246.124 3.25.374 1.003.234 1.9.616 2.694 1.144.792.514 1.452 1.174 1.98 1.98.542.808.918 1.784 1.13 2.928l-4.933.572c-.09-.572-.256-1.042-.494-1.408-.238-.382-.535-.683-.89-.903-.345-.22-.747-.367-1.21-.44-.462-.088-.97-.132-1.525-.132-1.32 0-2.31.192-2.97.573-.66.367-.99.99-.99 1.87 0 .544.132.977.396 1.3.277.322.66.594 1.15.814.5.205 1.088.39 1.762.55.686.147 1.432.33 2.238.55.99.235 1.96.514 2.912.836.964.31 1.815.74 2.555 1.3.752.542 1.353 1.246 1.802 2.112.462.865.693 1.966.693 3.3M499.163 254.19c-1.545 0-2.938-.25-4.18-.748-1.227-.513-2.277-1.284-3.15-2.31-.87-1.042-1.537-2.34-2-3.896-.46-1.57-.692-3.404-.692-5.502 0-2.274.27-4.19.813-5.744.554-1.555 1.294-2.81 2.218-3.763.94-.97 2.015-1.666 3.23-2.09 1.215-.427 2.495-.64 3.842-.64 1.69 0 3.13.33 4.318.99 1.202.647 2.186 1.556 2.952 2.73.765 1.174 1.327 2.582 1.683 4.225.357 1.63.535 3.434.535 5.414v.177h-13.746c0 .997.08 1.93.237 2.795.16.85.417 1.59.774 2.222.356.617.82 1.108 1.386 1.475.568.352 1.255.528 2.06.528.978 0 1.776-.227 2.397-.682.62-.47 1.063-1.188 1.327-2.156l5.25.506c-.24.675-.575 1.394-1.01 2.157-.424.763-.99 1.467-1.704 2.113-.714.63-1.605 1.16-2.674 1.584-1.057.41-2.344.617-3.863.617m0-20.797c-.568 0-1.103.11-1.604.33-.49.206-.92.543-1.29 1.012-.355.455-.646 1.05-.87 1.783-.225.734-.35 1.614-.377 2.64h8.32c-.106-1.92-.522-3.36-1.248-4.312-.727-.97-1.704-1.453-2.932-1.453M538.105 253.75c-.027-.117-.06-.322-.1-.616-.026-.308-.06-.653-.098-1.034l-.08-1.167c-.013-.396-.02-.748-.02-1.056h-.08c-.646 1.54-1.55 2.648-2.712 3.323-1.15.66-2.53.99-4.14.99-1.347 0-2.515-.308-3.506-.924-.978-.616-1.79-1.474-2.437-2.575-.634-1.1-1.11-2.398-1.426-3.894-.304-1.51-.456-3.155-.456-4.93 0-1.805.16-3.462.477-4.974.33-1.51.83-2.81 1.505-3.895.673-1.1 1.525-1.96 2.555-2.575 1.043-.616 2.278-.924 3.704-.924.7 0 1.374.08 2.02.242.648.16 1.25.41 1.804.748.554.337 1.056.77 1.505 1.298.448.53.83 1.167 1.148 1.915h.04c0-.146-.008-.358-.02-.637v-.99c0-.367-.007-.75-.02-1.145v-9.837h5.566v27.467c0 1.16.02 2.193.06 3.103.04.895.072 1.592.098 2.09h-5.387m-.258-12.038c0-1.57-.132-2.868-.396-3.895-.263-1.042-.613-1.864-1.05-2.465-.42-.616-.91-1.042-1.464-1.277-.542-.25-1.096-.374-1.664-.374-.713 0-1.347.155-1.902.463-.54.308-1.003.793-1.386 1.453-.37.66-.654 1.504-.852 2.53-.185 1.028-.277 2.268-.277 3.72 0 5.4 1.46 8.1 4.377 8.1.555 0 1.11-.133 1.664-.397.555-.265 1.05-.713 1.486-1.344.435-.63.785-1.474 1.05-2.53.277-1.072.415-2.4.415-3.984M557.78 254.19c-1.545 0-2.938-.25-4.18-.748-1.227-.513-2.277-1.284-3.15-2.31-.87-1.042-1.537-2.34-2-3.896-.46-1.57-.693-3.404-.693-5.502 0-2.274.27-4.19.813-5.744.554-1.555 1.294-2.81 2.218-3.763.937-.97 2.014-1.666 3.23-2.09 1.213-.427 2.494-.64 3.84-.64 1.69 0 3.13.33 4.32.99 1.2.647 2.185 1.556 2.95 2.73.766 1.174 1.327 2.582 1.684 4.225.357 1.63.535 3.434.535 5.414v.177H553.6c0 .997.08 1.93.238 2.795.16.85.416 1.59.773 2.222.357.617.82 1.108 1.387 1.475.568.352 1.255.528 2.06.528.977 0 1.776-.227 2.397-.682.62-.47 1.063-1.188 1.327-2.156l5.25.506c-.238.675-.575 1.394-1.01 2.157-.423.763-.99 1.467-1.704 2.113-.713.63-1.604 1.16-2.674 1.584-1.056.41-2.344.617-3.862.617m0-20.797c-.568 0-1.103.11-1.604.33-.49.206-.918.543-1.288 1.012-.356.455-.647 1.05-.87 1.783-.226.734-.35 1.614-.378 2.64h8.32c-.106-1.92-.522-3.36-1.25-4.312-.725-.97-1.702-1.453-2.93-1.453"/></g><g font-size="33.778" font-weight="bold" fill="#005bab" font-family="Arial"><path style="-inkscape-font-specification:Arial-BoldMT" d="M0 307.837v-31.01h5.843v31.01H0M25.28 307.837v-13.36c0-.923-.065-1.767-.197-2.53-.132-.777-.35-1.437-.654-1.98-.305-.558-.7-.99-1.19-1.3-.488-.307-1.082-.46-1.782-.46-.673 0-1.287.168-1.842.505-.54.323-1.01.792-1.406 1.41-.396.6-.707 1.327-.93 2.177-.213.836-.318 1.76-.318 2.772v12.765h-5.566V289.35c0-.513-.006-1.04-.02-1.584 0-.543-.013-1.057-.04-1.54-.013-.5-.026-.94-.04-1.32-.012-.397-.032-.69-.06-.882h5.31c.026.177.053.463.08.86.026.38.052.806.078 1.275.027.47.047.938.06 1.408.026.47.04.865.04 1.188h.08c.75-1.82 1.695-3.14 2.83-3.96 1.137-.823 2.49-1.234 4.062-1.234 1.294 0 2.383.235 3.268.705.898.47 1.624 1.115 2.18 1.936.566.822.976 1.79 1.227 2.905.252 1.115.377 2.32.377 3.61v15.12H25.28M54.246 300.883c0 1.144-.218 2.17-.654 3.08-.423.91-1.043 1.688-1.862 2.334-.82.63-1.822 1.122-3.01 1.474-1.19.34-2.543.507-4.06.507-1.36 0-2.59-.11-3.685-.33-1.096-.22-2.06-.58-2.892-1.078-.82-.515-1.505-1.175-2.06-1.982-.555-.807-.97-1.805-1.248-2.993l4.892-.814c.16.66.377 1.196.654 1.607.278.41.622.727 1.03.947.41.22.886.366 1.427.44.555.073 1.182.11 1.882.11.633 0 1.22-.037 1.762-.11.554-.088 1.03-.228 1.426-.418.41-.206.726-.485.95-.837.225-.367.337-.822.337-1.365 0-.616-.165-1.1-.495-1.453-.317-.367-.76-.66-1.327-.88-.555-.235-1.215-.433-1.98-.594-.753-.176-1.56-.374-2.417-.594-.898-.22-1.783-.485-2.654-.793-.872-.307-1.65-.725-2.338-1.253-.686-.528-1.24-1.196-1.663-2.003-.422-.822-.633-1.856-.633-3.103 0-1.13.198-2.134.594-3.014.397-.895.978-1.65 1.744-2.267.766-.632 1.71-1.11 2.832-1.432 1.136-.337 2.437-.506 3.902-.506 1.162 0 2.245.125 3.25.374 1.002.235 1.9.617 2.693 1.145.793.514 1.453 1.175 1.98 1.982.543.807.92 1.782 1.13 2.927l-4.932.57c-.092-.57-.257-1.04-.495-1.408-.237-.38-.535-.682-.89-.902-.344-.22-.747-.367-1.21-.44-.462-.088-.97-.132-1.525-.132-1.32 0-2.31.19-2.97.572-.66.367-.99.99-.99 1.87 0 .544.13.976.395 1.3.277.322.66.593 1.15.813.5.206 1.088.39 1.762.55.686.147 1.433.33 2.238.55.99.236 1.96.514 2.912.837.964.308 1.815.74 2.555 1.3.753.54 1.353 1.246 1.802 2.11.462.867.694 1.967.694 3.303M64.222 308.233c-1.637 0-2.898-.49-3.783-1.474-.886-1-1.328-2.503-1.328-4.513v-14.04h-2.714v-4.183h2.99l1.744-5.59h3.486v5.59h4.06v4.182h-4.06v12.368c0 1.16.198 2.018.595 2.575.396.542 1.01.814 1.842.814.343 0 .653-.03.93-.088.278-.06.588-.132.932-.22v3.83c-.687.248-1.413.432-2.18.55-.765.13-1.604.197-2.515.197M72.244 279.733v-4.556h5.566v4.556h-5.566m0 28.104v-23.813h5.566v23.813h-5.566M89.008 308.233c-1.638 0-2.9-.49-3.784-1.474-.884-1-1.327-2.503-1.327-4.513v-14.04h-2.713v-4.183h2.99l1.744-5.59h3.486v5.59h4.06v4.182h-4.06v12.368c0 1.16.198 2.018.594 2.575.396.542 1.01.814 1.842.814.343 0 .654-.03.93-.088.278-.06.59-.132.932-.22v3.83c-.687.248-1.413.432-2.18.55-.765.13-1.603.197-2.514.197M102.278 284.024v13.36c0 .924.066 1.775.198 2.552.132.763.35 1.423.654 1.98.304.544.693.97 1.17 1.277.487.31 1.08.463 1.78.463.675 0 1.282-.162 1.823-.485.555-.336 1.03-.806 1.427-1.407.396-.616.7-1.343.91-2.18.225-.85.337-1.782.337-2.794v-12.766h5.566V304.097l.04 1.562c.026.485.046.925.06 1.32.026.382.045.668.06.86h-5.31c-.013-.177-.04-.456-.08-.837-.025-.395-.052-.828-.078-1.298-.013-.47-.033-.94-.06-1.408-.013-.47-.02-.866-.02-1.19h-.098c-.74 1.806-1.684 3.12-2.833 3.94-1.135.822-2.49 1.233-4.06 1.233-1.28 0-2.37-.234-3.268-.704-.898-.47-1.63-1.108-2.2-1.915-.554-.82-.956-1.79-1.207-2.905-.252-1.115-.378-2.318-.378-3.61v-15.12h5.566M130.748 308.277c-1.704 0-3.196-.293-4.477-.88-1.266-.587-2.323-1.416-3.168-2.487-.845-1.07-1.48-2.355-1.9-3.85-.424-1.513-.635-3.178-.635-4.997 0-1.98.23-3.74.693-5.282.462-1.554 1.13-2.86 2-3.917.872-1.07 1.942-1.885 3.21-2.442 1.28-.557 2.733-.836 4.357-.836 1.386 0 2.614.206 3.684.617 1.084.41 2.015.976 2.794 1.695.78.704 1.406 1.54 1.882 2.51.488.967.825 2.01 1.01 3.124l-5.606.307c-.158-1.217-.554-2.186-1.188-2.905-.634-.733-1.532-1.1-2.694-1.1-1.492 0-2.58.682-3.268 2.047-.687 1.363-1.03 3.344-1.03 5.94 0 5.488 1.46 8.232 4.377 8.232 1.057 0 1.94-.367 2.654-1.1.715-.75 1.157-1.857 1.33-3.324l5.584.286c-.132 1.1-.436 2.157-.91 3.17-.463.997-1.097 1.885-1.902 2.662-.793.763-1.757 1.38-2.892 1.85-1.136.454-2.437.68-3.902.68M144.37 279.733v-4.556h5.565v4.556h-5.566m0 28.104v-23.813h5.565v23.813h-5.566M176.008 295.91c0 1.818-.23 3.483-.693 4.995-.45 1.51-1.13 2.817-2.04 3.917-.912 1.086-2.047 1.937-3.407 2.553-1.36.602-2.945.902-4.754.902-1.743 0-3.282-.3-4.615-.902-1.335-.602-2.457-1.445-3.368-2.53-.898-1.087-1.578-2.385-2.04-3.896-.463-1.527-.694-3.207-.694-5.04 0-1.777.218-3.412.654-4.91.45-1.51 1.122-2.816 2.02-3.916.898-1.1 2.027-1.96 3.387-2.575 1.36-.618 2.95-.926 4.773-.926 1.928 0 3.572.308 4.932.925 1.36.615 2.47 1.473 3.327 2.574.872 1.085 1.506 2.384 1.902 3.895.41 1.496.614 3.14.614 4.93m-5.823 0c0-2.833-.416-4.887-1.248-6.163-.832-1.277-2.04-1.915-3.625-1.915-1.637 0-2.892.645-3.763 1.937-.873 1.29-1.31 3.336-1.31 6.14 0 1.422.114 2.647.338 3.674.238 1.027.568 1.87.99 2.53.423.66.93 1.153 1.526 1.476.594.308 1.247.462 1.96.462.82 0 1.545-.154 2.18-.462.646-.323 1.188-.815 1.623-1.475.436-.66.766-1.504.99-2.53.225-1.028.338-2.253.338-3.676M194.316 307.837v-13.36c0-.923-.066-1.767-.198-2.53-.132-.777-.35-1.437-.653-1.98-.304-.558-.7-.99-1.19-1.3-.487-.307-1.082-.46-1.782-.46-.673 0-1.287.168-1.842.505-.54.323-1.01.792-1.405 1.41-.396.6-.706 1.327-.93 2.177-.212.836-.318 1.76-.318 2.772v12.765h-5.566V289.35c0-.513-.005-1.04-.018-1.584 0-.543-.014-1.057-.04-1.54-.013-.5-.026-.94-.04-1.32-.013-.397-.033-.69-.06-.882h5.31c.026.177.052.463.08.86.025.38.05.806.078 1.275.026.47.046.938.06 1.408.026.47.04.865.04 1.188h.078c.753-1.82 1.697-3.14 2.832-3.96 1.136-.823 2.49-1.234 4.06-1.234 1.295 0 2.384.235 3.27.705.897.47 1.623 1.115 2.178 1.936.568.822.977 1.79 1.228 2.905.25 1.115.376 2.32.376 3.61v15.12h-5.546M213.99 308.277c-1.544 0-2.937-.25-4.178-.748-1.228-.514-2.278-1.285-3.15-2.312-.87-1.042-1.538-2.34-2-3.895-.462-1.57-.693-3.404-.693-5.502 0-2.273.27-4.188.81-5.743.556-1.556 1.295-2.81 2.22-3.764.937-.968 2.013-1.665 3.228-2.09 1.215-.426 2.496-.64 3.843-.64 1.69 0 3.13.33 4.32.992 1.2.645 2.184 1.555 2.95 2.73.766 1.172 1.327 2.58 1.683 4.224.357 1.628.535 3.432.535 5.413v.176h-13.746c0 .997.08 1.93.238 2.794.158.85.416 1.592.772 2.223.357.616.82 1.108 1.387 1.475.567.352 1.253.528 2.06.528.976 0 1.775-.228 2.395-.682.62-.47 1.063-1.19 1.327-2.157l5.25.507c-.238.675-.575 1.394-1.01 2.157-.423.763-.99 1.467-1.704 2.112-.713.63-1.605 1.16-2.674 1.585-1.057.412-2.344.617-3.863.617m0-20.797c-.566 0-1.1.11-1.603.33-.49.205-.918.543-1.287 1.012-.357.455-.648 1.05-.872 1.783-.224.733-.35 1.614-.376 2.64h8.32c-.107-1.92-.523-3.36-1.25-4.313-.725-.968-1.703-1.452-2.93-1.452M245.835 300.883c0 1.144-.218 2.17-.653 3.08-.423.91-1.044 1.688-1.862 2.334-.82.63-1.823 1.122-3.01 1.474-1.19.34-2.543.507-4.06.507-1.362 0-2.59-.11-3.686-.33-1.096-.22-2.06-.58-2.89-1.078-.82-.515-1.507-1.175-2.06-1.982-.556-.807-.972-1.805-1.25-2.993l4.893-.814c.16.66.376 1.196.654 1.607.278.41.62.727 1.03.947.41.22.885.366 1.427.44.554.073 1.182.11 1.882.11.632 0 1.22-.037 1.76-.11.556-.088 1.03-.228 1.428-.418.41-.206.726-.485.95-.837.225-.367.337-.822.337-1.365 0-.616-.165-1.1-.495-1.453-.317-.367-.76-.66-1.327-.88-.555-.235-1.215-.433-1.98-.594-.754-.176-1.56-.374-2.417-.594-.898-.22-1.783-.485-2.655-.793-.87-.307-1.65-.725-2.336-1.253-.687-.528-1.24-1.196-1.664-2.003-.422-.822-.634-1.856-.634-3.103 0-1.13.2-2.134.595-3.014.397-.895.978-1.65 1.744-2.267.766-.632 1.71-1.11 2.832-1.432 1.136-.337 2.436-.506 3.902-.506 1.162 0 2.245.125 3.25.374 1.002.235 1.9.617 2.692 1.145.793.514 1.453 1.175 1.98 1.982.542.807.92 1.782 1.13 2.927l-4.932.57c-.092-.57-.257-1.04-.495-1.408-.238-.38-.535-.682-.89-.902-.345-.22-.748-.367-1.21-.44-.462-.088-.97-.132-1.525-.132-1.32 0-2.31.19-2.97.572-.66.367-.99.99-.99 1.87 0 .544.13.976.395 1.3.277.322.66.593 1.15.813.5.206 1.088.39 1.762.55.686.147 1.432.33 2.238.55.99.236 1.96.514 2.91.837.965.308 1.817.74 2.557 1.3.752.54 1.353 1.246 1.802 2.11.462.867.693 1.967.693 3.303M275.487 307.837c-.026-.117-.06-.323-.1-.616-.025-.307-.058-.652-.098-1.033-.027-.382-.054-.77-.08-1.167-.013-.396-.02-.748-.02-1.056h-.08c-.646 1.54-1.55 2.648-2.713 3.323-1.148.66-2.528.99-4.14.99-1.346 0-2.515-.308-3.505-.924-.977-.616-1.79-1.475-2.436-2.575-.634-1.1-1.11-2.4-1.427-3.895-.304-1.512-.456-3.155-.456-4.93 0-1.805.158-3.463.475-4.974.33-1.512.83-2.81 1.505-3.896.673-1.1 1.525-1.96 2.555-2.575 1.043-.618 2.278-.926 3.704-.926.7 0 1.373.08 2.02.242.647.162 1.248.41 1.802.75.555.336 1.057.77 1.506 1.297.45.528.832 1.167 1.15 1.915h.038c0-.147-.006-.36-.02-.638v-.99c0-.368-.006-.75-.02-1.145v-9.838h5.567v27.466c0 1.16.02 2.194.06 3.103.04.895.072 1.592.098 2.09h-5.388m-.257-12.037c0-1.57-.132-2.87-.396-3.897-.264-1.04-.614-1.863-1.05-2.465-.423-.616-.91-1.04-1.466-1.276-.54-.25-1.096-.374-1.664-.374-.713 0-1.346.154-1.9.462-.542.308-1.005.792-1.388 1.453-.37.66-.653 1.503-.85 2.53-.186 1.028-.28 2.267-.28 3.72 0 5.4 1.46 8.1 4.38 8.1.553 0 1.108-.133 1.663-.397.553-.264 1.048-.712 1.484-1.343.436-.63.786-1.474 1.05-2.53.277-1.072.416-2.4.416-3.984M295.162 308.277c-1.545 0-2.938-.25-4.18-.748-1.227-.514-2.277-1.285-3.148-2.312-.872-1.042-1.54-2.34-2-3.895-.463-1.57-.694-3.404-.694-5.502 0-2.273.27-4.188.812-5.743.555-1.556 1.294-2.81 2.218-3.764.938-.968 2.014-1.665 3.23-2.09 1.214-.426 2.495-.64 3.842-.64 1.69 0 3.13.33 4.318.992 1.2.645 2.185 1.555 2.95 2.73.767 1.172 1.328 2.58 1.685 4.224.356 1.628.534 3.432.534 5.413v.176h-13.747c0 .997.08 1.93.238 2.794.16.85.417 1.592.773 2.223.357.616.82 1.108 1.387 1.475.568.352 1.254.528 2.06.528.977 0 1.776-.228 2.396-.682.62-.47 1.063-1.19 1.328-2.157l5.248.507c-.237.675-.574 1.394-1.01 2.157-.422.763-.99 1.467-1.703 2.112-.714.63-1.606 1.16-2.675 1.585-1.057.412-2.344.617-3.863.617m0-20.797c-.567 0-1.102.11-1.604.33-.49.205-.918.543-1.287 1.012-.356.455-.646 1.05-.87 1.783-.225.733-.35 1.614-.377 2.64h8.32c-.107-1.92-.523-3.36-1.25-4.313-.725-.968-1.703-1.452-2.93-1.452M343.275 307.837v-18.795c0-.748.006-1.518.02-2.31.026-.793.053-1.52.08-2.18.04-.777.072-1.533.098-2.266-.277 1.16-.54 2.26-.792 3.3-.105.44-.217.896-.336 1.366-.12.47-.238.924-.356 1.364-.106.44-.212.85-.317 1.232-.105.382-.197.712-.277.99l-5.03 17.3h-4.16l-5.03-17.3c-.08-.278-.173-.608-.28-.99-.09-.38-.197-.792-.316-1.232-.105-.44-.217-.895-.336-1.364-.118-.47-.237-.925-.356-1.365-.264-1.042-.54-2.142-.832-3.3l.12 2.508c.026.704.052 1.445.078 2.223.027.777.04 1.452.04 2.024v18.795h-5.19v-31.01h7.824l4.992 17.343c.132.455.27 1.013.416 1.673.158.66.31 1.298.455 1.914.16.72.33 1.468.515 2.245l.535-2.2c.08-.31.16-.624.238-.947.08-.323.158-.638.238-.946.08-.31.158-.603.237-.882.08-.278.152-.528.218-.748l4.912-17.452h7.785v31.01h-5.19M354.01 279.733v-4.556h5.566v4.556h-5.566m0 28.104v-23.813h5.566v23.813h-5.566M374.22 308.277c-1.703 0-3.195-.293-4.476-.88-1.268-.587-2.324-1.416-3.17-2.487-.844-1.07-1.478-2.355-1.9-3.85-.423-1.513-.635-3.178-.635-4.997 0-1.98.23-3.74.693-5.282.462-1.554 1.13-2.86 2-3.917.872-1.07 1.94-1.885 3.21-2.442 1.28-.557 2.732-.836 4.357-.836 1.386 0 2.614.206 3.684.617 1.082.41 2.013.976 2.793 1.695.78.704 1.406 1.54 1.88 2.51.49.967.827 2.01 1.01 3.124l-5.604.307c-.16-1.217-.555-2.186-1.188-2.905-.634-.733-1.532-1.1-2.694-1.1-1.49 0-2.58.682-3.267 2.047-.687 1.363-1.03 3.344-1.03 5.94 0 5.488 1.46 8.232 4.377 8.232 1.056 0 1.94-.367 2.654-1.1.713-.75 1.156-1.857 1.327-3.324l5.587.286c-.132 1.1-.436 2.157-.91 3.17-.463.997-1.097 1.885-1.903 2.662-.792.763-1.756 1.38-2.892 1.85-1.135.454-2.436.68-3.902.68M387.842 307.837v-18.222c0-.514-.008-1.057-.02-1.63 0-.57-.013-1.114-.04-1.628-.013-.528-.026-.997-.04-1.408-.013-.427-.033-.735-.06-.926h5.31c.026.177.052.485.08.925.025.424.05.894.078 1.407.026.514.046 1.027.06 1.54.026.5.04.903.04 1.21h.078c.278-.864.555-1.635.832-2.31.277-.69.6-1.27.97-1.738.384-.485.84-.852 1.367-1.102.53-.264 1.182-.396 1.96-.396.33 0 .655.037.972.11.33.06.58.132.752.22v5.172c-.357-.088-.72-.16-1.09-.22-.356-.073-.786-.11-1.287-.11-1.387 0-2.47.624-3.25 1.87-.765 1.248-1.148 3.097-1.148 5.547v11.687h-5.565M423.983 295.91c0 1.818-.23 3.483-.693 4.995-.45 1.51-1.13 2.817-2.04 3.917-.91 1.086-2.047 1.937-3.407 2.553-1.36.602-2.945.902-4.754.902-1.744 0-3.282-.3-4.616-.902-1.333-.602-2.456-1.445-3.367-2.53-.898-1.087-1.578-2.385-2.04-3.896-.462-1.527-.693-3.207-.693-5.04 0-1.777.217-3.412.653-4.91.45-1.51 1.123-2.816 2.02-3.916.898-1.1 2.027-1.96 3.388-2.575 1.36-.618 2.95-.926 4.773-.926 1.928 0 3.572.308 4.932.925 1.36.615 2.47 1.473 3.328 2.574.87 1.085 1.505 2.384 1.9 3.895.41 1.496.615 3.14.615 4.93m-5.823 0c0-2.833-.416-4.887-1.248-6.163-.832-1.277-2.04-1.915-3.625-1.915-1.637 0-2.89.645-3.763 1.937-.872 1.29-1.307 3.336-1.307 6.14 0 1.422.112 2.647.336 3.674.238 1.027.568 1.87.99 2.53.423.66.932 1.153 1.526 1.476.593.308 1.247.462 1.96.462.82 0 1.545-.154 2.18-.462.646-.323 1.187-.815 1.623-1.475.436-.66.766-1.504.99-2.53.225-1.028.337-2.253.337-3.676M434.943 288.206v19.63h-5.546v-19.63h-3.13v-4.182h3.13v-2.486c0-.91.1-1.746.297-2.51.198-.777.535-1.452 1.01-2.024.476-.572 1.116-1.02 1.922-1.343.805-.32 1.81-.483 3.01-.483.634 0 1.255.037 1.862.11.62.074 1.176.154 1.664.242v3.983c-.238-.06-.508-.103-.812-.132-.29-.043-.56-.065-.812-.065-.515 0-.944.058-1.287.176-.33.118-.594.294-.792.53-.185.234-.317.535-.396.9-.08.353-.12.764-.12 1.234v1.87h4.22v4.182h-4.22M441.915 279.733v-4.556h5.566v4.556h-5.565m0 28.104v-23.813h5.566v23.813h-5.565M467.077 307.837v-13.36c0-.923-.066-1.767-.198-2.53-.133-.777-.35-1.437-.655-1.98-.303-.558-.7-.99-1.188-1.3-.49-.307-1.083-.46-1.783-.46-.673 0-1.287.168-1.842.505-.54.323-1.01.792-1.406 1.41-.396.6-.707 1.327-.93 2.177-.212.836-.318 1.76-.318 2.772v12.765h-5.566V289.35c0-.513-.006-1.04-.02-1.584 0-.543-.013-1.057-.04-1.54-.012-.5-.026-.94-.04-1.32-.012-.397-.032-.69-.058-.882h5.308c.026.177.053.463.08.86.026.38.052.806.08 1.275.025.47.045.938.058 1.408.026.47.04.865.04 1.188h.08c.752-1.82 1.696-3.14 2.83-3.96 1.137-.823 2.49-1.234 4.062-1.234 1.294 0 2.383.235 3.268.705.898.47 1.624 1.115 2.18 1.936.567.822.976 1.79 1.227 2.905.25 1.115.376 2.32.376 3.61v15.12h-5.546M482.93 308.277c-1.03 0-1.955-.154-2.774-.462-.805-.323-1.492-.785-2.06-1.386-.567-.618-1.003-1.373-1.307-2.268-.305-.895-.456-1.915-.456-3.06 0-1.408.217-2.59.653-3.543.45-.97 1.057-1.747 1.822-2.333.765-.602 1.663-1.035 2.693-1.3 1.03-.278 2.126-.424 3.288-.44l4.616-.087v-1.21c0-.866-.072-1.585-.218-2.157-.132-.587-.33-1.064-.594-1.43-.264-.368-.594-.624-.99-.77-.383-.163-.825-.243-1.327-.243-.462 0-.878.05-1.248.154-.358.103-.668.286-.932.55-.264.25-.482.594-.654 1.034-.158.426-.27.97-.336 1.63l-5.804-.31c.16-1.04.45-1.987.872-2.838.422-.866 1.003-1.614 1.743-2.245.75-.63 1.67-1.115 2.752-1.453 1.096-.352 2.377-.528 3.843-.528 1.333 0 2.522.184 3.565.55 1.043.367 1.928.917 2.654 1.65.726.72 1.28 1.608 1.664 2.664.383 1.056.574 2.282.574 3.675v8.672c0 .557.02 1.056.06 1.496.052.44.138.815.257 1.123.13.294.31.52.534.683.238.146.54.22.91.22.424 0 .833-.044 1.23-.132v3.345c-.33.087-.628.168-.892.24-.264.074-.528.133-.792.177-.265.044-.55.08-.852.11-.29.03-.634.044-1.03.044-1.4 0-2.436-.38-3.11-1.143-.66-.763-1.056-1.886-1.188-3.367h-.12c-.74 1.48-1.69 2.633-2.85 3.455-1.15.82-2.55 1.232-4.2 1.232m6.476-11.466l-2.852.045c-.594.03-1.162.088-1.703.176-.528.075-.996.243-1.406.507-.396.25-.713.617-.95 1.1-.238.485-.357 1.145-.357 1.98 0 1.13.23 1.975.693 2.532.476.542 1.103.814 1.882.814.713 0 1.36-.17 1.94-.506.582-.338 1.07-.778 1.467-1.32.408-.558.725-1.197.95-1.916.224-.72.336-1.452.336-2.2v-1.21M514.417 307.837v-13.36c0-.923-.066-1.767-.198-2.53-.133-.777-.35-1.437-.655-1.98-.304-.558-.7-.99-1.188-1.3-.49-.307-1.083-.46-1.783-.46-.674 0-1.288.168-1.842.505-.542.323-1.01.792-1.406 1.41-.397.6-.707 1.327-.93 2.177-.213.836-.318 1.76-.318 2.772v12.765h-5.566V289.35c0-.513-.006-1.04-.02-1.584 0-.543-.013-1.057-.04-1.54-.013-.5-.026-.94-.04-1.32-.012-.397-.032-.69-.06-.882h5.31c.026.177.052.463.08.86.025.38.052.806.078 1.275.027.47.046.938.06 1.408.026.47.04.865.04 1.188h.08c.75-1.82 1.695-3.14 2.83-3.96 1.137-.823 2.49-1.234 4.06-1.234 1.295 0 2.385.235 3.27.705.898.47 1.624 1.115 2.178 1.936.568.822.978 1.79 1.228 2.905.25 1.115.377 2.32.377 3.61v15.12h-5.546M523.832 307.837v-4.38l10.696-14.965h-9.884v-4.468h16.024v4.424l-10.637 14.877h11.608v4.512h-17.806M550.552 308.277c-1.03 0-1.955-.154-2.773-.462-.807-.323-1.493-.785-2.06-1.386-.57-.618-1.005-1.373-1.31-2.268-.302-.895-.454-1.915-.454-3.06 0-1.408.218-2.59.654-3.543.448-.97 1.056-1.747 1.822-2.333.766-.602 1.664-1.035 2.694-1.3 1.03-.278 2.126-.424 3.288-.44l4.615-.087v-1.21c0-.866-.074-1.585-.22-2.157-.13-.587-.33-1.064-.593-1.43-.265-.368-.595-.624-.99-.77-.384-.163-.826-.243-1.328-.243-.463 0-.88.05-1.25.154-.355.103-.666.286-.93.55-.264.25-.482.594-.653 1.034-.16.426-.27.97-.337 1.63l-5.804-.31c.16-1.04.45-1.987.872-2.838.422-.866 1.003-1.614 1.743-2.245.754-.63 1.67-1.115 2.754-1.453 1.096-.352 2.377-.528 3.843-.528 1.333 0 2.522.184 3.565.55 1.043.367 1.928.917 2.654 1.65.727.72 1.28 1.608 1.664 2.664.383 1.056.574 2.282.574 3.675v8.672c0 .557.02 1.056.06 1.496.053.44.14.815.257 1.123.133.294.312.52.536.683.238.146.542.22.91.22.424 0 .833-.044 1.23-.132v3.345c-.33.087-.628.168-.892.24-.264.074-.528.133-.792.177-.264.044-.548.08-.852.11-.29.03-.634.044-1.03.044-1.4 0-2.436-.38-3.11-1.143-.66-.763-1.056-1.886-1.188-3.367h-.12c-.738 1.48-1.69 2.633-2.85 3.455-1.15.82-2.55 1.232-4.2 1.232m6.477-11.466l-2.854.045c-.594.03-1.162.088-1.703.176-.528.075-.997.243-1.406.507-.397.25-.713.617-.95 1.1-.24.485-.358 1.145-.358 1.98 0 1.13.23 1.975.693 2.532.475.542 1.102.814 1.88.814.714 0 1.36-.17 1.942-.506.58-.338 1.07-.778 1.466-1.32.41-.558.727-1.197.952-1.916.224-.72.337-1.452.337-2.2v-1.21M586.218 300.883c0 1.144-.218 2.17-.653 3.08-.423.91-1.044 1.688-1.862 2.334-.82.63-1.822 1.122-3.01 1.474-1.19.34-2.543.507-4.06.507-1.362 0-2.59-.11-3.686-.33-1.096-.22-2.06-.58-2.89-1.078-.82-.515-1.507-1.175-2.06-1.982-.556-.807-.972-1.805-1.25-2.993l4.893-.814c.16.66.377 1.196.654 1.607.277.41.62.727 1.03.947.41.22.884.366 1.426.44.555.073 1.182.11 1.882.11.633 0 1.22-.037 1.762-.11.555-.088 1.03-.228 1.427-.418.41-.206.727-.485.95-.837.226-.367.338-.822.338-1.365 0-.616-.165-1.1-.495-1.453-.317-.367-.76-.66-1.327-.88-.555-.235-1.215-.433-1.98-.594-.754-.176-1.56-.374-2.417-.594-.9-.22-1.784-.485-2.656-.793-.87-.307-1.65-.725-2.337-1.253-.687-.528-1.24-1.196-1.664-2.003-.422-.822-.634-1.856-.634-3.103 0-1.13.198-2.134.594-3.014.396-.895.977-1.65 1.743-2.267.766-.632 1.71-1.11 2.832-1.432 1.135-.337 2.435-.506 3.9-.506 1.163 0 2.246.125 3.25.374 1.003.235 1.9.617 2.693 1.145.793.514 1.453 1.175 1.98 1.982.542.807.92 1.782 1.13 2.927l-4.932.57c-.09-.57-.256-1.04-.494-1.408-.238-.38-.535-.682-.89-.902-.345-.22-.747-.367-1.21-.44-.462-.088-.97-.132-1.525-.132-1.32 0-2.31.19-2.97.572-.66.367-.99.99-.99 1.87 0 .544.132.976.396 1.3.277.322.66.593 1.15.813.5.206 1.088.39 1.762.55.686.147 1.432.33 2.238.55.99.236 1.96.514 2.91.837.965.308 1.817.74 2.557 1.3.752.54 1.353 1.246 1.802 2.11.462.867.693 1.967.693 3.303"/></g><path d="M526.01 109.376c0 50.486-99.3 91.407-221.8 91.407-122.493 0-221.792-40.92-221.792-91.407 0-50.48 99.3-91.407 221.793-91.407 122.5 0 221.8 40.925 221.8 91.406" fill="#9d9fa1"/><path d="M505.11 89.527c0 48.995-97.65 88.72-218.102 88.72-120.458 0-218.102-39.725-218.102-88.72 0-49 97.644-88.72 218.102-88.72 120.453 0 218.102 39.72 218.102 88.72" fill="#fff"/><path d="M505.11 89.527c0 48.995-97.65 88.72-218.102 88.72-120.458 0-218.102-39.725-218.102-88.72 0-49 97.644-88.72 218.102-88.72 120.453 0 218.102 39.72 218.102 88.72z" fill="none" stroke="#000" stroke-width="1.6139969999999997"/><path d="M152.816 90.65c-1.345-7.01-2.723-15.703-4.132-26.054-2.132 12.21-3.437 21.126-3.915 26.736l8.046-.682zm11.607-41.466l14.79 61.715-24.083 2.04-1.414-11.2-8.433.717-1.164 11.41-24.364 2.07 10.638-63.87 34.03-2.883zM228.193 73.556l-19.958.92-.045-2.802c-.046-2.387-.264-3.887-.664-4.51-.405-.613-1.387-.886-2.946-.813-1.264.06-2.205.396-2.828 1.01-.623.614-.923 1.505-.905 2.668.028 1.587.205 2.742.537 3.465.323.727 1.286 1.49 2.887 2.296 1.592.812 4.856 1.944 9.79 3.408 6.577 1.928 10.905 3.828 12.987 5.706 2.073 1.877 3.142 4.696 3.21 8.46.073 4.206-.655 7.41-2.178 9.625-1.528 2.213-4.11 3.98-7.747 5.304-3.642 1.323-8.052 2.105-13.216 2.346-5.724.264-10.634-.132-14.717-1.19-4.096-1.056-6.92-2.615-8.478-4.67-1.56-2.055-2.378-5.237-2.45-9.543l-.042-2.49 19.958-.928.055 3.267c.045 2.778.323 4.565.846 5.374.508.81 1.512 1.178 3 1.11 1.6-.077 2.71-.41 3.33-.995.624-.582.915-1.773.888-3.565-.04-2.464-.473-3.987-1.305-4.573-.864-.582-5.264-2.22-13.193-4.92-6.66-2.286-10.734-4.454-12.216-6.5-1.486-2.05-2.255-4.528-2.3-7.433-.073-4.128.654-7.202 2.187-9.238 1.524-2.023 4.142-3.66 7.86-4.9 3.72-1.233 8.052-1.97 12.99-2.202 4.91-.227 9.088 0 12.543.728 3.45.71 6.11 1.732 7.974 3.073 1.864 1.346 3 2.614 3.414 3.814.41 1.204.638 3.104.683 5.696l.05 3zM265.568 70.733c-.028-2.64-.25-4.31-.67-4.996-.412-.682-1.294-1.014-2.63-1.005-1.337 0-2.224.368-2.665 1.064-.44.695-.646 2.368-.618 5.01l.26 23.313c.026 2.445.267 4.027.722 4.76.454.735 1.332 1.095 2.632 1.076 1.336 0 2.213-.354 2.636-1.04.418-.674.618-2.128.595-4.36l-.262-23.823zm22.576 3.642l.137 12.652c.055 4.642-.24 8.05-.886 10.224-.65 2.184-2.06 4.22-4.232 6.12-2.173 1.91-4.974 3.333-8.402 4.26-3.432.932-7.378 1.423-11.843 1.473-4.978.055-9.2-.28-12.67-1.01-3.47-.722-6.165-1.85-8.092-3.372-1.933-1.518-3.32-3.372-4.165-5.56-.845-2.18-1.286-5.464-1.336-9.85l-.14-13.235c-.06-4.8.644-8.56 2.108-11.275 1.45-2.71 4.105-4.91 7.956-6.587 3.846-1.673 8.783-2.546 14.812-2.614 5.055-.056 9.397.42 13.034 1.43 3.637 1.015 6.45 2.35 8.442 4.015 1.982 1.664 3.35 3.392 4.1 5.174.742 1.78 1.133 4.5 1.178 8.155M319.182 56.753l-.437 4.888c1.764-1.882 3.86-3.273 6.288-4.164 2.427-.886 5.187-1.277 8.278-1.173 6.03.205 10.753 2.314 14.186 6.324 1.91-1.887 4.06-3.273 6.455-4.164 2.388-.887 5.04-1.282 7.944-1.187 3.828.137 6.996.89 9.5 2.273 2.497 1.386 4.088 3.032 4.784 4.932.686 1.905 1.014 4.974.982 9.202l-.318 36.7-21.88-.744.29-33.665c.036-4.414-.155-7.15-.573-8.215-.42-1.07-1.41-1.628-2.975-1.682-1.595-.05-2.632.432-3.11 1.455-.472 1.018-.73 3.75-.763 8.187l-.295 33.665-21.882-.74.282-32.816c.04-5.06-.104-8.102-.45-9.13-.345-1.022-1.323-1.56-2.918-1.613-1.002-.046-1.86.2-2.575.704-.713.51-1.11 1.147-1.19 1.91-.082.765-.133 2.392-.155 4.883l-.314 35.802-21.877-.74.45-51.646 22.272.753zM410.36 50.216l-.035 8.192-23.28-1.718.03-8.193 23.286 1.72zm-.044 11.338l-.21 51.518-23.28-1.718.208-51.518 23.282 1.718zM447.68 53.857l.065 7.934c-4.67-.454-7.424-.568-8.26-.354-.837.218-1.255 1.023-1.242 2.414l.014 1.628 9.53.927.063 8.13-5.38-.524.342 42.017-22.64-2.195-.35-42.017-4.65-.455-.07-8.128 4.656.45c-.027-3.383.123-5.624.45-6.73.323-1.1 1.15-2.03 2.474-2.8 1.313-.758 3.168-1.254 5.56-1.49 2.382-.228 6.1-.1 11.142.39l8.297.805z" fill="#d1d3d4"/><path d="M170.98 105.99c-1.347-7.016-2.725-15.704-4.134-26.06-2.132 12.216-3.437 21.127-3.914 26.74l8.047-.68zm11.605-41.467l14.79 61.71-24.082 2.042-1.41-11.197-8.442.713-1.158 11.417-24.364 2.068 10.638-63.87 34.03-2.882zM246.355 88.89l-19.958.928-.045-2.805c-.04-2.387-.264-3.887-.664-4.51-.405-.613-1.387-.886-2.946-.813-1.26.06-2.205.395-2.823 1.004-.63.62-.933 1.505-.91 2.67.027 1.586.204 2.74.536 3.463.327.728 1.287 1.496 2.887 2.3 1.59.81 4.855 1.946 9.788 3.406 6.58 1.927 10.907 3.832 12.99 5.705 2.077 1.882 3.14 4.7 3.21 8.46.072 4.206-.66 7.416-2.178 9.63-1.528 2.214-4.11 3.978-7.747 5.3-3.646 1.328-8.052 2.11-13.216 2.347-5.725.268-10.63-.128-14.717-1.187-4.092-1.055-6.92-2.614-8.48-4.67-1.558-2.054-2.377-5.24-2.45-9.546l-.04-2.49 19.953-.93.06 3.274c.045 2.774.327 4.565.845 5.374.51.805 1.515 1.173 3.006 1.105 1.596-.073 2.705-.405 3.328-.99.623-.583.914-1.78.886-3.566-.04-2.47-.473-3.988-1.305-4.58-.863-.576-5.264-2.217-13.193-4.918-6.665-2.282-10.73-4.45-12.216-6.5-1.486-2.047-2.254-4.524-2.304-7.434-.07-4.123.66-7.2 2.186-9.233 1.523-2.028 4.146-3.665 7.87-4.906 3.714-1.233 8.042-1.97 12.988-2.197 4.906-.227 9.084 0 12.54.723 3.45.714 6.11 1.737 7.973 3.078 1.863 1.34 3 2.614 3.41 3.814.408 1.205.64 3.1.685 5.697l.05 2.996zM283.73 86.072c-.027-2.646-.25-4.31-.668-5-.42-.683-1.296-1.015-2.633-1-1.337 0-2.228.367-2.665 1.063-.44.69-.645 2.364-.613 5.01l.254 23.313c.027 2.44.268 4.028.723 4.76.454.732 1.33 1.096 2.63 1.077 1.338 0 2.215-.36 2.638-1.04.418-.678.618-2.133.596-4.365l-.264-23.818zm22.577 3.642l.136 12.647c.05 4.652-.245 8.057-.886 10.23-.655 2.178-2.06 4.22-4.233 6.12-2.173 1.91-4.974 3.328-8.4 4.255-3.434.936-7.376 1.427-11.84 1.477-4.983.055-9.21-.28-12.675-1.01-3.47-.722-6.17-1.85-8.093-3.372-1.932-1.528-3.323-3.378-4.165-5.56-.845-2.182-1.29-5.47-1.336-9.856l-.146-13.235c-.05-4.797.65-8.557 2.11-11.27 1.455-2.715 4.11-4.915 7.96-6.588 3.846-1.678 8.784-2.55 14.812-2.614 5.055-.06 9.402.418 13.034 1.432 3.642 1.01 6.45 2.346 8.442 4.01 1.987 1.668 3.356 3.39 4.1 5.173.742 1.787 1.138 4.505 1.18 8.16M337.344 72.092l-.437 4.888c1.764-1.887 3.856-3.274 6.292-4.17 2.427-.88 5.187-1.277 8.274-1.168 6.028.205 10.756 2.31 14.18 6.32 1.913-1.883 4.068-3.27 6.455-4.16 2.39-.887 5.04-1.282 7.94-1.187 3.834.132 7.003.887 9.503 2.273 2.5 1.382 4.092 3.028 4.787 4.928.69 1.91 1.02 4.98.987 9.207L395 125.725l-21.882-.75.296-33.666c.036-4.41-.155-7.152-.573-8.216-.417-1.068-1.408-1.627-2.968-1.677-1.605-.055-2.64.427-3.114 1.45-.473 1.018-.727 3.75-.768 8.188l-.29 33.665-21.887-.74.29-32.812c.037-5.06-.108-8.105-.45-9.128-.35-1.023-1.322-1.564-2.922-1.62-1.004-.044-1.86.206-2.572.71-.714.51-1.114 1.146-1.19 1.91-.083.76-.138 2.387-.156 4.878l-.31 35.806-21.88-.74.45-51.65 22.272.758zM428.523 65.555l-.036 8.192-23.277-1.718.028-8.194 23.285 1.72zm-.05 11.334l-.21 51.52-23.276-1.717.205-51.523 23.28 1.72zM465.844 69.192l.068 7.933c-4.674-.45-7.433-.564-8.265-.35-.84.214-1.25 1.018-1.24 2.414l.012 1.627 9.528.923.068 8.128-5.382-.523.345 42.02-22.65-2.2-.34-42.015-4.657-.45-.063-8.134 4.65.455c-.027-3.38.123-5.627.45-6.732.323-1.1 1.15-2.032 2.47-2.796 1.318-.76 3.173-1.255 5.564-1.49 2.382-.233 6.096-.1 11.147.385l8.294.805z" fill="#005bab"/></svg>