<?xml version="1.0" encoding="UTF-8" standalone="no"?>
<!-- Created with Inkscape (http://www.inkscape.org/) -->

<svg
   xmlns:dc="http://purl.org/dc/elements/1.1/"
   xmlns:cc="http://creativecommons.org/ns#"
   xmlns:rdf="http://www.w3.org/1999/02/22-rdf-syntax-ns#"
   xmlns:svg="http://www.w3.org/2000/svg"
   xmlns="http://www.w3.org/2000/svg"
   xmlns:sodipodi="http://sodipodi.sourceforge.net/DTD/sodipodi-0.dtd"
   xmlns:inkscape="http://www.inkscape.org/namespaces/inkscape"
   width="300"
   height="100.9575"
   id="svg87014"
   version="1.1"
   inkscape:version="0.48.5 r10040"
   sodipodi:docname="New document 17">
  <defs
     id="defs87016" />
  <sodipodi:namedview
     id="base"
     pagecolor="#ffffff"
     bordercolor="#666666"
     borderopacity="1.0"
     inkscape:pageopacity="0.0"
     inkscape:pageshadow="2"
     inkscape:zoom="3.9266667"
     inkscape:cx="150"
     inkscape:cy="50.478747"
     inkscape:document-units="px"
     inkscape:current-layer="layer1"
     showgrid="false"
     fit-margin-top="0"
     fit-margin-left="0"
     fit-margin-right="0"
     fit-margin-bottom="0"
     inkscape:window-width="1366"
     inkscape:window-height="708"
     inkscape:window-x="0"
     inkscape:window-y="27"
     inkscape:window-maximized="1" />
  <metadata
     id="metadata87019">
    <rdf:RDF>
      <cc:Work
         rdf:about="">
        <dc:format>image/svg+xml</dc:format>
        <dc:type
           rdf:resource="http://purl.org/dc/dcmitype/StillImage" />
        <dc:title></dc:title>
      </cc:Work>
    </rdf:RDF>
  </metadata>
  <g
     inkscape:label="Layer 1"
     inkscape:groupmode="layer"
     id="layer1"
     transform="translate(-527.14286,-224.74058)">
    <g
       id="g87097">
      <g
         transform="matrix(2.4085165,0,0,-2.4085165,800.29663,259.5862)"
         id="g84015">
        <path
           id="path84017"
           style="fill:#000000;fill-opacity:1;fill-rule:nonzero;stroke:none"
           d="m 0,0 0,-5.183 c 0,-1.382 1.164,-1.408 2.253,-1.408 l 0,-0.641 C 1.149,-7.138 0,-7.073 -1.12,-7.073 c -1.078,0 -2.161,-0.075 -3.233,-0.159 l 0,0.667 c 0.999,0 2.351,0.071 2.351,1.382 l 0,11.49 c 0,1.41 -1.134,1.388 -2.272,1.388 l 0,0.701 5.776,0 c 2.487,0 5.382,-1.042 5.382,-4.065 0,-1.94 -1.35,-3.391 -3.07,-4.033 l 0.398,-0.68 c 0.849,-1.451 3.039,-6.06 5.006,-6.06 0.369,0 0.747,0.113 1.128,0.221 l -0.122,-1.03 c -0.336,-0.043 -0.67,-0.071 -1.006,-0.071 -1.54,0 -2.864,0.494 -3.874,1.747 C 3.937,-3.87 2.725,-1.95 1.642,0 L 0,0 z m 0,7.567 0,-6.701 1.276,0 c 1.966,0 3.629,1.252 3.629,3.387 0,2.132 -1.441,3.303 -3.441,3.314 L 0,7.567 z"
           inkscape:connector-curvature="0" />
      </g>
      <g
         transform="matrix(2.4085165,0,0,-2.4085165,559.53883,261.85582)"
         id="g84019">
        <path
           id="path84021"
           style="fill:#000000;fill-opacity:1;fill-rule:nonzero;stroke:none"
           d="m 0,0 1.158,-3.707 c 0.065,-0.229 0.188,-0.856 0.188,-1.014 0,-0.576 -0.59,-0.849 -1.901,-0.979 l 0,-0.626 c 1.532,0.184 2.341,0.255 3.462,0.255 1.125,0 1.942,-0.071 3.472,-0.255 l 0,0.626 C 4.376,-5.542 4.032,-5.322 3.566,-3.965 L -2.715,15.41 -9.908,-3.838 c -0.528,-1.516 -0.875,-1.732 -2.747,-1.862 l 0,-0.626 c 1.253,0.156 1.935,0.184 2.873,0.184 0.907,0 1.598,-0.028 2.842,-0.184 l 0,0.626 c -1.462,0.064 -2.003,0.315 -2.003,0.947 0,0.28 0.103,0.69 0.383,1.513 L -7.435,0 0,0 z m -7.127,0.89 3.686,10.173 3.167,-10.173 -6.853,0 z"
           inkscape:connector-curvature="0" />
      </g>
      <g
         transform="matrix(2.4085165,0,0,-2.4085165,606.44373,265.25219)"
         id="g84023">
        <path
           id="path84025"
           style="fill:#000000;fill-opacity:1;fill-rule:nonzero;stroke:none"
           d="m 0,0 c 0,-1.548 -0.225,-2.37 -0.847,-3.154 -0.96,-1.261 -2.593,-1.924 -4.69,-1.924 -1.834,0 -3.276,0.512 -4.305,1.481 -0.943,0.882 -1.253,1.767 -1.253,3.404 l 0,9.134 c 0,1.166 -0.124,1.262 -2.035,1.422 l 0,0.534 c 1.533,-0.161 2.256,-0.19 3.069,-0.19 0.814,0 1.532,0.029 3.069,0.19 l 0,-0.534 c -2.014,-0.16 -2.137,-0.22 -2.137,-1.422 l 0,-9.164 c 0,-1.519 0.165,-2.074 0.752,-2.676 0.691,-0.734 1.746,-1.109 3.098,-1.109 2.744,0 4.128,1.237 4.128,3.749 l 0,9.2 c 0,1.202 -0.134,1.262 -2.068,1.422 l 0,0.534 c 1.282,-0.098 1.934,-0.132 2.66,-0.132 0.747,0 1.367,0.034 2.595,0.132 l 0,-0.534 C 0.094,10.203 0,10.143 0,8.941 L 0,0 z"
           inkscape:connector-curvature="0" />
      </g>
      <g
         transform="matrix(2.4085165,0,0,-2.4085165,630.76883,272.39307)"
         id="g84027">
        <path
           id="path84029"
           style="fill:#000000;fill-opacity:1;fill-rule:nonzero;stroke:none"
           d="m 0,0 c -0.067,-1.138 0.152,-1.261 2.059,-1.414 l 0,-0.537 c -1.529,0.157 -2.251,0.181 -3.064,0.181 -0.813,0 -1.496,-0.024 -3.022,-0.181 l 0,0.537 C -2.13,-1.289 -1.918,-1.138 -1.97,0 l 0,12.955 -1.651,0 c -1.565,0 -1.941,-0.353 -2.727,-2.619 l -0.623,0 0.623,3.432 10.815,0 0.66,-3.432 -0.598,0 C 3.808,12.565 3.438,12.955 1.961,12.955 L 0,12.955 0,0 z"
           inkscape:connector-curvature="0" />
      </g>
      <g
         transform="matrix(2.4085165,0,0,-2.4085165,663.43673,238.6292)"
         id="g84031">
        <path
           id="path84033"
           style="fill:#000000;fill-opacity:1;fill-rule:nonzero;stroke:none"
           d="m 0,0 c -3.971,0 -6.562,-3.154 -6.562,-8.001 0,-4.947 2.591,-8.131 6.65,-8.131 3.935,0 6.531,3.184 6.531,7.976 C 6.619,-3.154 4.056,0 0,0 m 0,-0.782 c 2.81,0 4.499,-2.779 4.499,-7.341 0,-4.448 -1.689,-7.226 -4.411,-7.226 -2.81,0 -4.557,2.848 -4.557,7.315 0,4.506 1.679,7.252 4.469,7.252"
           inkscape:connector-curvature="0" />
      </g>
      <g
         transform="matrix(2.4085165,0,0,-2.4085165,688.55683,262.07932)"
         id="g84035">
        <path
           id="path84037"
           style="fill:#000000;fill-opacity:1;fill-rule:nonzero;stroke:none"
           d="m 0,0 c 0.627,-3.715 2.437,-5.507 5.542,-5.507 2.612,0 4.43,1.761 4.43,4.346 0,1.671 -0.623,2.614 -2.312,3.593 -0.381,0.216 -0.381,0.216 -3.534,1.793 -3.499,1.794 -4.369,2.864 -4.369,5.416 0,3.273 2.278,5.477 5.711,5.477 1.63,0 2.686,-0.408 3.845,-1.543 l 0.873,1.641 0.536,0 0,-5.503 -0.59,0 c -0.84,3.201 -2.196,4.56 -4.567,4.56 -2.281,0 -4.092,-1.795 -4.092,-4.061 0,-1.287 0.591,-2.241 1.873,-3.027 C 4.126,6.682 4.159,6.682 6.444,5.543 8.785,4.39 9.25,4.131 10.067,3.47 c 1.128,-0.916 1.721,-2.273 1.721,-3.979 0,-3.523 -2.475,-5.887 -6.099,-5.887 -1.906,0 -3.28,0.511 -4.688,1.735 l -1.088,-1.855 -0.509,0 0,6.516 L 0,0 z"
           inkscape:connector-curvature="0" />
      </g>
      <g
         transform="matrix(2.4085165,0,0,-2.4085165,736.74354,272.39307)"
         id="g84039">
        <path
           id="path84041"
           style="fill:#000000;fill-opacity:1;fill-rule:nonzero;stroke:none"
           d="m 0,0 c -0.061,-1.138 0.156,-1.261 2.064,-1.414 l 0,-0.537 c -1.533,0.157 -2.252,0.181 -3.061,0.181 -0.817,0 -1.504,-0.024 -3.035,-0.181 l 0,0.537 c 1.908,0.125 2.128,0.276 2.062,1.414 l 0,12.955 -1.656,0 c -1.562,0 -1.936,-0.353 -2.713,-2.619 l -0.629,0 0.629,3.432 10.817,0 0.652,-3.432 -0.594,0 C 3.813,12.565 3.442,12.955 1.968,12.955 L 0,12.955 0,0 z"
           inkscape:connector-curvature="0" />
      </g>
      <g
         transform="matrix(2.4085165,0,0,-2.4085165,773.72304,265.87557)"
         id="g84043">
        <path
           id="path84045"
           style="fill:#000000;fill-opacity:1;fill-rule:nonzero;stroke:none"
           d="M 0,0 0.994,-2.83 C 1.059,-3.019 1.12,-3.245 1.12,-3.399 1.12,-3.873 0.833,-3.996 -0.481,-4.12 l 0,-0.538 c 1.511,0.157 2.168,0.185 2.91,0.185 0.752,0 1.406,-0.028 2.908,-0.185 l 0,0.538 C 3.589,-3.996 3.465,-3.909 3.062,-2.739 L -2.411,11.914 -7.946,-2.641 c -0.501,-1.326 -0.624,-1.39 -2.188,-1.479 l 0,-0.538 c 1.124,0.096 1.717,0.12 2.435,0.12 0.723,0 1.322,-0.024 2.45,-0.12 l 0,0.538 c -1.349,0.021 -1.696,0.153 -1.696,0.625 0,0.193 0.095,0.566 0.19,0.854 L -5.818,0 0,0 z m -5.507,0.821 2.689,7.066 2.494,-7.066 -5.183,0 z"
           inkscape:connector-curvature="0" />
      </g>
      <g
         transform="matrix(2.4085165,0,0,-2.4085165,603.06383,317.26345)"
         id="g84047">
        <path
           id="path84049"
           style="fill:#89878c;fill-opacity:1;fill-rule:nonzero;stroke:none"
           d="m 0,0 c -0.03,-0.828 -0.161,-1.338 -0.457,-1.897 -0.53,-1.001 -1.573,-1.605 -2.796,-1.605 -2.324,0 -3.895,2.046 -3.895,5.072 0,1.444 0.368,2.722 1.043,3.674 0.663,0.931 1.693,1.432 2.898,1.432 0.969,0 1.645,-0.25 2.308,-0.869 l 0.515,0.838 0.267,0 0,-2.883 -0.34,0 C -0.868,5.425 -1.692,6.205 -3.029,6.205 -4,6.205 -4.735,5.765 -5.163,4.896 -5.59,4.057 -5.824,2.908 -5.824,1.63 c 0,-2.84 1.013,-4.471 2.778,-4.471 1.473,0 2.411,1.047 2.515,2.841 L 0,0 z"
           inkscape:connector-curvature="0" />
      </g>
      <g
         transform="matrix(2.4085165,0,0,-2.4085165,609.68723,313.29782)"
         id="g84051">
        <path
           id="path84053"
           style="fill:#89878c;fill-opacity:1;fill-rule:nonzero;stroke:none"
           d="m 0,0 c 0,-2.972 0.985,-4.722 2.644,-4.722 1.649,0 2.587,1.693 2.587,4.659 0,3.001 -0.938,4.694 -2.587,4.694 C 0.985,4.631 0,2.892 0,0 m 6.557,-0.104 c 0,-3.045 -1.543,-5.032 -3.913,-5.032 -2.423,0 -3.969,1.987 -3.969,5.105 0,3.061 1.558,5.073 3.925,5.073 2.426,0 3.957,-1.986 3.957,-5.146"
           inkscape:connector-curvature="0" />
      </g>
      <g
         transform="matrix(2.4085165,0,0,-2.4085165,632.45523,322.15832)"
         id="g84055">
        <path
           id="path84057"
           style="fill:#89878c;fill-opacity:1;fill-rule:nonzero;stroke:none"
           d="m 0,0 0,-0.115 0,-0.148 c 0,-0.485 0.252,-0.632 1.207,-0.71 l 0,-0.347 c -0.721,0.054 -1.06,0.071 -1.44,0.071 -0.398,0 -0.718,-0.017 -1.485,-0.071 l 0,0.347 c 1.027,0.078 1.174,0.196 1.219,0.973 l 0.293,7.235 0.016,0.089 c 0.016,0.102 -0.058,0.442 -0.087,0.53 -0.118,0.207 -0.456,0.322 -1.133,0.352 l 0,0.368 c 0.574,-0.045 0.854,-0.058 1.204,-0.058 0.499,0 0.809,0.013 1.399,0.074 L 3.928,1.149 6.692,8.59 C 7.381,8.529 7.709,8.516 8.104,8.516 c 0.324,0 0.588,0.013 1.162,0.058 l 0,-0.352 C 8.34,8.163 8.06,7.986 8.06,7.501 l 0,-0.147 0,-0.119 L 8.206,0 c 0,-0.764 0.177,-0.909 1.219,-0.973 l 0,-0.347 c -0.821,0.071 -1.235,0.101 -1.835,0.101 -0.633,0 -1.03,-0.03 -1.839,-0.101 l 0,0.347 c 0.397,0.016 0.645,0.064 0.853,0.15 0.221,0.09 0.277,0.162 0.339,0.444 0.028,0.162 0.028,0.246 0.028,0.306 L 6.957,0 6.838,7.634 4.399,1.075 C 4.353,0.926 4.281,0.735 4.162,0.399 4.075,0.179 3.914,-0.292 3.665,-0.998 l -0.225,0 L 3.089,0.046 2.695,1.134 0.293,7.659 0,0 z"
           inkscape:connector-curvature="0" />
      </g>
      <g
         transform="matrix(2.4085165,0,0,-2.4085165,673.01683,325.2347)"
         id="g84059">
        <path
           id="path84061"
           style="fill:#89878c;fill-opacity:1;fill-rule:nonzero;stroke:none"
           d="m 0,0 -6.486,0 0,0.367 c 1.074,0.074 1.206,0.177 1.206,0.972 l 0,7.129 c 0,0.779 -0.148,0.911 -1.206,0.973 l 0,0.366 6.4,0 0.262,-2.205 -0.34,0 C -0.53,8.999 -0.867,9.351 -1.9,9.351 l -2.132,0 0,-4.029 2.103,0 c 0.663,0 0.825,0.222 0.87,1.208 l 0.366,0 0,-2.884 -0.366,0 C -1.088,4.6 -1.297,4.868 -2.003,4.868 l -2.029,0 0,-3.546 c 0,-0.706 0.192,-0.868 0.986,-0.868 l 1.043,0 c 1.165,0 1.62,0.429 2.003,1.912 l 0.336,0 L 0,0 z"
           inkscape:connector-curvature="0" />
      </g>
      <g
         transform="matrix(2.4085165,0,0,-2.4085165,685.51583,312.91219)"
         id="g84063">
        <path
           id="path84065"
           style="fill:#89878c;fill-opacity:1;fill-rule:nonzero;stroke:none"
           d="m 0,0 c 1.399,0 2.146,0.749 2.146,2.162 0,1.354 -0.703,2.071 -2.07,2.071 l -1.31,0 L -1.234,0 0,0 z m -1.251,-3.818 c 0,-0.797 0.118,-0.9 1.222,-0.994 l 0,-0.348 c -0.939,0.086 -1.353,0.119 -1.822,0.119 -0.473,0 -0.882,-0.033 -1.838,-0.119 l 0,0.348 c 1.088,0.094 1.206,0.197 1.206,0.994 l 0,7.17 c 0,0.78 -0.149,0.912 -1.206,0.971 l 0,0.368 3.937,0 c 0.927,0 1.53,-0.149 2.031,-0.485 C 2.957,3.766 3.4,2.929 3.4,2.104 3.4,1.221 2.896,0.38 2.146,0 1.824,-0.16 1.499,-0.265 0.985,-0.364 1.605,-0.545 1.881,-0.823 2.249,-1.633 l 1.015,-2.321 c 0.309,-0.709 0.47,-0.825 1.192,-0.858 l 0,-0.348 c -0.439,0.029 -0.678,0.045 -0.97,0.045 -0.279,0 -0.515,-0.016 -0.97,-0.045 -0.164,0.34 -0.224,0.484 -0.398,0.894 l -1.133,2.633 c -0.41,0.944 -0.737,1.178 -1.676,1.178 l -0.56,0 0,-3.363 z"
           inkscape:connector-curvature="0" />
      </g>
      <g
         transform="matrix(2.4085165,0,0,-2.4085165,714.77063,317.26345)"
         id="g84067">
        <path
           id="path84069"
           style="fill:#89878c;fill-opacity:1;fill-rule:nonzero;stroke:none"
           d="m 0,0 c -0.027,-0.828 -0.16,-1.338 -0.455,-1.897 -0.529,-1.001 -1.573,-1.605 -2.793,-1.605 -2.323,0 -3.899,2.046 -3.899,5.072 0,1.444 0.369,2.722 1.045,3.674 0.662,0.931 1.692,1.432 2.898,1.432 0.971,0 1.645,-0.25 2.309,-0.869 l 0.512,0.838 0.264,0 0,-2.883 -0.336,0 c -0.41,1.663 -1.233,2.443 -2.571,2.443 -0.973,0 -1.705,-0.44 -2.134,-1.309 -0.427,-0.839 -0.661,-1.988 -0.661,-3.266 0,-2.84 1.012,-4.471 2.778,-4.471 1.471,0 2.411,1.047 2.514,2.841 L 0,0 z"
           inkscape:connector-curvature="0" />
      </g>
      <g
         transform="matrix(2.4085165,0,0,-2.4085165,726.96134,325.34044)"
         id="g84071">
        <path
           id="path84073"
           style="fill:#89878c;fill-opacity:1;fill-rule:nonzero;stroke:none"
           d="M 0,0 C -0.971,0.086 -1.386,0.119 -1.854,0.119 -2.31,0.119 -2.722,0.086 -3.678,0 l 0,0.349 c 1.089,0.092 1.205,0.196 1.205,0.991 l 0,7.218 c 0,0.793 -0.131,0.899 -1.205,0.985 l 0,0.352 c 0.81,-0.071 1.205,-0.102 1.824,-0.102 0.633,0 1.045,0.031 1.854,0.102 L 0,9.543 C -1.088,9.457 -1.221,9.351 -1.221,8.558 l 0,-7.218 C -1.221,0.545 -1.104,0.441 0,0.349 L 0,0 z"
           inkscape:connector-curvature="0" />
      </g>
      <g
         transform="matrix(2.4085165,0,0,-2.4085165,742.37223,317.30132)"
         id="g84075">
        <path
           id="path84077"
           style="fill:#89878c;fill-opacity:1;fill-rule:nonzero;stroke:none"
           d="M 0,0 -1.445,4.499 -3.12,0 0,0 z M -3.297,-0.457 -3.78,-1.839 c -0.121,-0.354 -0.179,-0.572 -0.179,-0.69 0,-0.296 0.248,-0.414 0.969,-0.461 l 0,-0.348 c -0.599,0.057 -0.923,0.073 -1.395,0.073 -0.471,0 -0.794,-0.016 -1.397,-0.073 l 0,0.348 c 0.894,0.063 1.088,0.196 1.414,1.05 l 3.35,8.76 3.031,-8.923 C 2.246,-2.781 2.454,-2.912 3.381,-2.99 l 0,-0.348 c -0.823,0.086 -1.251,0.119 -1.797,0.119 -0.542,0 -0.968,-0.033 -1.793,-0.119 l 0,0.348 c 0.689,0.063 0.939,0.184 0.939,0.444 0,0.09 -0.056,0.384 -0.086,0.502 l -0.501,1.587 -3.44,0 z"
           inkscape:connector-curvature="0" />
      </g>
      <g
         transform="matrix(2.4085165,0,0,-2.4085165,767.61903,325.2347)"
         id="g84079">
        <path
           id="path84081"
           style="fill:#89878c;fill-opacity:1;fill-rule:nonzero;stroke:none"
           d="m 0,0 -6.483,0 0,0.367 c 1.071,0.074 1.203,0.189 1.203,0.972 l 0,7.174 c 0,0.793 -0.132,0.899 -1.203,0.986 l 0,0.353 c 0.808,-0.071 1.203,-0.103 1.821,-0.103 0.634,0 1.044,0.032 1.853,0.103 l 0,-0.353 C -3.896,9.412 -4.028,9.306 -4.028,8.513 l 0,-7.145 c 0,-0.709 0.19,-0.868 0.982,-0.868 L -2,0.5 c 1.162,0 1.617,0.428 2,1.866 l 0.34,0 L 0,0 z"
           inkscape:connector-curvature="0" />
      </g>
      <path
         id="path84083"
         style="fill:#ee8829;fill-opacity:1;fill-rule:nonzero;stroke:none"
         d="m 827.14286,291.06169 -300,0 0,-3.4875 300,0 0,3.4875 z"
         inkscape:connector-curvature="0" />
    </g>
  </g>
</svg>
