<svg xmlns="http://www.w3.org/2000/svg" width="400" height="174.745"><path d="M67.633 121.888c-5.96 4.632-11.724 8.11-17.29 10.434-5.582 2.304-11.828 3.463-18.745 3.463-6.32 0-11.87-1.243-16.656-3.74-4.788-2.49-8.474-5.882-11.058-10.157C1.297 117.618 0 112.983 0 107.984c0-6.745 2.136-12.49 6.418-17.243 4.27-4.756 10.13-7.95 17.603-9.57 1.558-.364 5.432-1.17 11.64-2.44 6.2-1.26 11.52-2.435 15.937-3.48 4.423-1.048 9.227-2.33 14.4-3.84-.29-6.503-1.605-11.27-3.923-14.302-2.318-3.035-7.122-4.562-14.4-4.562-6.26 0-10.972.86-14.132 2.618-3.15 1.75-5.865 4.37-8.123 7.853-2.268 3.494-3.862 5.788-4.802 6.903-.923 1.116-2.927 1.678-5.993 1.678-2.77 0-5.16-.89-7.176-2.67-2.012-1.777-3.03-4.04-3.03-6.81 0-4.34 1.53-8.544 4.61-12.63 3.065-4.11 7.85-7.473 14.36-10.13 6.497-2.646 14.586-3.967 24.285-3.967 10.83 0 19.348 1.28 25.554 3.842 6.198 2.55 10.575 6.6 13.135 12.135 2.554 5.546 3.827 12.887 3.827 22.024 0 5.79-.003 10.7-.037 14.73-.03 4.033-.084 8.517-.138 13.446 0 4.635.775 9.467 2.304 14.497 1.538 5.033 2.313 8.264 2.313 9.71 0 2.523-1.196 4.83-3.572 6.912-2.387 2.066-5.072 3.1-8.09 3.1-2.52 0-5.024-1.183-7.49-3.568-2.473-2.368-5.08-5.818-7.847-10.33M65.996 86.22c-3.608 1.32-8.857 2.73-15.754 4.208-6.896 1.47-11.653 2.55-14.31 3.237-2.64.694-5.173 2.055-7.578 4.067-2.413 2.025-3.615 4.83-3.615 8.453 0 3.72 1.4 6.903 4.247 9.514 2.827 2.62 6.526 3.934 11.094 3.934 4.886 0 9.387-1.072 13.5-3.21 4.128-2.13 7.153-4.893 9.08-8.262 2.227-3.733 3.336-9.87 3.336-18.418V86.22zM260.8 24.105c-3.422 0-6.36-1.058-8.796-3.163-2.442-2.1-3.665-5.084-3.665-8.942 0-3.483 1.252-6.36 3.75-8.614C254.584 1.122 257.49 0 260.798 0c3.195 0 6.02 1.017 8.49 3.062 2.477 2.056 3.703 5.03 3.703 8.938 0 3.794-1.21 6.755-3.61 8.895-2.413 2.15-5.267 3.21-8.582 3.21m12.193 25.467v71.238c0 4.925-1.172 8.655-3.527 11.188-2.335 2.524-5.32 3.787-8.94 3.787-3.606 0-6.534-1.287-8.79-3.87-2.27-2.598-3.397-6.297-3.397-11.105V50.28c0-4.86 1.127-8.534 3.395-11.007 2.257-2.463 5.185-3.7 8.79-3.7 3.62 0 6.606 1.237 8.94 3.7 2.356 2.473 3.528 5.906 3.528 10.3M400 103.562c0 6.8-1.658 12.62-4.953 17.462-3.315 4.85-8.203 8.53-14.678 11.02-6.48 2.496-14.343 3.743-23.615 3.743-8.844 0-16.427-1.354-22.75-4.063-6.325-2.705-10.98-6.09-14-10.148-3.008-4.07-4.504-8.15-4.504-12.25 0-2.705.958-5.016 2.89-6.94 1.926-1.92 4.365-2.89 7.313-2.89 2.587 0 4.568.633 5.953 1.893 1.388 1.266 2.712 3.038 3.972 5.336 2.527 4.386 5.56 7.668 9.083 9.83 3.515 2.17 8.312 3.262 14.403 3.262 4.936 0 8.97-1.105 12.14-3.3 3.16-2.198 4.74-4.708 4.74-7.535 0-4.35-1.645-7.51-4.923-9.487-3.285-1.988-8.685-3.89-16.215-5.69-8.473-2.103-15.386-4.316-20.716-6.634-5.324-2.31-9.586-5.377-12.78-9.164-3.187-3.797-4.78-8.456-4.78-14.002 0-4.928 1.472-9.598 4.43-13.99 2.95-4.39 7.294-7.898 13.04-10.52 5.742-2.61 12.686-3.924 20.805-3.924 6.388 0 12.115.657 17.202 1.98 5.087 1.338 9.34 3.11 12.732 5.33 3.402 2.23 5.986 4.704 7.77 7.4 1.783 2.71 2.66 5.363 2.66 7.96 0 2.827-.944 5.138-2.84 6.94-1.894 1.806-4.59 2.716-8.09 2.716-2.523 0-4.676-.725-6.445-2.17-1.782-1.445-3.814-3.612-6.1-6.502-1.87-2.406-4.064-4.33-6.584-5.778-2.53-1.442-5.972-2.17-10.305-2.17-4.454 0-8.156.95-11.094 2.854-2.95 1.883-4.423 4.245-4.423 7.082 0 2.587 1.078 4.71 3.248 6.36 2.17 1.66 5.09 3.032 8.76 4.114 3.675 1.08 8.722 2.405 15.167 3.975 7.648 1.863 13.894 4.084 18.732 6.668 4.848 2.598 8.523 5.66 11.02 9.17 2.49 3.522 3.736 7.544 3.736 12.062" fill="#425968"/><path d="M143.12 97.644l-18.936 18.944c-4.616 4.605-4.616 12.085 0 16.69 2.304 2.298 5.337 3.447 8.342 3.447 3.035 0 6.054-1.15 8.355-3.447l18.928-18.93V97.643H143.12zM197.476 76.68l19.497-19.5c4.61-4.613 4.61-12.106 0-16.708-4.606-4.592-12.075-4.592-16.694 0l-19.51 19.52V76.68h16.706zM159.81 59.99l-19.255-19.253c-4.612-4.613-12.088-4.613-16.696 0-4.624 4.608-4.624 12.084 0 16.69l19.253 19.25h16.696V59.99zM197.462 97.644H180.77v16.697l19.192 19.194c2.284 2.29 5.303 3.443 8.36 3.443 3 0 6.006-1.152 8.334-3.443 4.598-4.612 4.598-12.095 0-16.697l-19.194-19.193z" fill="#f47d30"/><path d="M6.865 156.164h10.02v3.406h-3.3v14.723h-3.503V159.57H6.865v-3.406zM25.69 156.164h3.46v11.724c0 1.007.09 1.728.262 2.143.182.42.472.752.88 1 .407.254.895.375 1.47.375.61 0 1.133-.134 1.568-.414.448-.28.75-.632.913-1.064.17-.43.256-1.253.256-2.466v-11.296h3.46v10.81c0 1.82-.102 3.09-.307 3.795-.206.706-.597 1.387-1.18 2.044-.576.66-1.246 1.145-1.997 1.462-.758.31-1.64.468-2.638.468-1.318 0-2.46-.296-3.433-.9-.97-.606-1.67-1.36-2.093-2.27-.414-.903-.623-2.44-.623-4.6v-10.81zM67.68 156.164h3.493l6.974 18.13H74.56l-1.42-3.738h-7.39l-1.476 3.737H60.69l6.99-18.13zm1.768 4.807l-2.432 6.23h4.85l-2.418-6.23zM104.036 159.354l-2.415 2.298c-1.64-1.732-3.49-2.6-5.54-2.6-1.726 0-3.185.592-4.374 1.775-1.186 1.185-1.78 2.644-1.78 4.376 0 1.213.264 2.284.79 3.224.528.937 1.27 1.675 2.23 2.203.96.54 2.028.802 3.2.802.997 0 1.917-.185 2.746-.56.825-.37 1.738-1.05 2.73-2.04l2.34 2.445c-1.337 1.304-2.604 2.21-3.797 2.712-1.19.505-2.55.754-4.076.754-2.818 0-5.122-.883-6.92-2.675-1.797-1.787-2.69-4.077-2.69-6.867 0-1.81.408-3.413 1.223-4.825.822-1.4 1.988-2.53 3.51-3.385 1.527-.853 3.164-1.277 4.923-1.277 1.496 0 2.938.31 4.32.943 1.384.632 2.576 1.53 3.58 2.694M130.276 159.354l-2.415 2.298c-1.64-1.732-3.49-2.6-5.54-2.6-1.73 0-3.192.592-4.374 1.775-1.186 1.185-1.783 2.644-1.783 4.376 0 1.213.267 2.284.792 3.224.522.937 1.27 1.675 2.23 2.203.957.54 2.025.802 3.2.802.998 0 1.91-.185 2.743-.56.83-.37 1.742-1.05 2.733-2.04l2.342 2.445c-1.337 1.304-2.604 2.21-3.797 2.712-1.192.505-2.55.754-4.076.754-2.818 0-5.126-.883-6.92-2.675-1.797-1.787-2.693-4.077-2.693-6.867 0-1.81.41-3.413 1.226-4.825.815-1.4 1.988-2.53 3.507-3.385 1.53-.853 3.167-1.277 4.926-1.277 1.492 0 2.938.31 4.32.943 1.384.632 2.573 1.53 3.58 2.694M139.866 156.164h9.89v3.382h-6.46v3.275h6.46v3.316h-6.46v4.767h6.46v3.39h-9.89v-18.13zM169.05 158.63l-2.558 2.255c-.9-1.247-1.813-1.873-2.742-1.873-.452 0-.82.124-1.11.367-.29.24-.433.51-.433.814 0 .307.104.597.313.866.28.36 1.118 1.14 2.527 2.328 1.32 1.102 2.112 1.796 2.398 2.085.698.705 1.193 1.382 1.483 2.025.293.644.438 1.35.438 2.113 0 1.486-.512 2.716-1.54 3.686-1.03.967-2.368 1.45-4.02 1.45-1.293 0-2.422-.314-3.372-.94-.96-.638-1.782-1.635-2.462-2.99l2.9-1.748c.87 1.6 1.877 2.402 3.01 2.402.592 0 1.09-.17 1.495-.515.404-.347.6-.74.6-1.2 0-.407-.145-.822-.455-1.233-.304-.407-.974-1.034-2.015-1.883-1.97-1.608-3.244-2.85-3.824-3.727-.573-.873-.862-1.745-.862-2.618 0-1.26.482-2.33 1.436-3.237.963-.893 2.143-1.34 3.55-1.34.907 0 1.763.204 2.585.622.816.42 1.702 1.186 2.66 2.29M187.775 155.716c2.564 0 4.77.923 6.617 2.78 1.843 1.856 2.766 4.12 2.766 6.79 0 2.646-.906 4.883-2.732 6.716-1.82 1.83-4.03 2.742-6.624 2.742-2.722 0-4.98-.937-6.782-2.816-1.8-1.884-2.698-4.117-2.698-6.7 0-1.74.414-3.333 1.253-4.782.84-1.456 1.998-2.608 3.46-3.46 1.47-.85 3.045-1.27 4.74-1.27m-.034 3.372c-1.676 0-3.09.583-4.233 1.75-1.14 1.164-1.712 2.65-1.712 4.45 0 2.004.718 3.59 2.156 4.756 1.12.91 2.403 1.36 3.852 1.36 1.634 0 3.03-.585 4.18-1.77 1.153-1.187 1.726-2.64 1.726-4.37 0-1.725-.58-3.188-1.735-4.384-1.162-1.196-2.574-1.792-4.232-1.792M226.123 156.164h3.497l6.974 18.13h-3.588l-1.418-3.738h-7.395l-1.476 3.737h-3.58l6.986-18.13zm1.773 4.807l-2.436 6.23h4.85l-2.414-6.23zM259.443 156.164h3.453v14.84h5.024v3.29h-8.477v-18.13zM277.106 156.164h3.453v14.84h5.022v3.29h-8.476v-18.13zM300.3 156.164h3.498l6.974 18.13h-3.588l-1.42-3.738h-7.394l-1.475 3.737h-3.585l6.99-18.13zm1.773 4.807l-2.436 6.23h4.85l-2.414-6.23zM320.01 156.164h3.313l7.752 11.93v-11.93h3.45v18.13h-3.32l-7.74-11.89v11.89h-3.454v-18.13zM343.438 156.164h10.02v3.406h-3.302v14.723h-3.5V159.57h-3.218v-3.406zM367.91 156.164h3.498l6.977 18.13h-3.59l-1.42-3.738h-7.39l-1.473 3.737h-3.588l6.987-18.13zm1.773 4.807l-2.436 6.23h4.852l-2.417-6.23zM397.127 158.63l-2.557 2.255c-.9-1.247-1.81-1.873-2.742-1.873-.455 0-.82.124-1.11.367-.288.24-.433.51-.433.814 0 .307.1.597.313.866.28.36 1.12 1.14 2.527 2.328 1.317 1.102 2.112 1.796 2.392 2.085.7.705 1.196 1.382 1.49 2.025.292.644.437 1.35.437 2.113 0 1.486-.512 2.716-1.54 3.686-1.03.967-2.368 1.45-4.02 1.45-1.296 0-2.415-.314-3.375-.94-.964-.638-1.78-1.635-2.464-2.99l2.9-1.748c.874 1.6 1.874 2.402 3.013 2.402.592 0 1.09-.17 1.492-.515.404-.347.606-.74.606-1.2 0-.407-.155-.822-.458-1.233-.307-.407-.974-1.034-2.015-1.883-1.97-1.608-3.244-2.85-3.824-3.727-.578-.873-.86-1.745-.86-2.618 0-1.26.474-2.33 1.434-3.237.957-.893 2.143-1.34 3.55-1.34.9 0 1.763.204 2.585.622.814.42 1.7 1.186 2.657 2.29" fill="#425968"/></svg>