<svg xmlns="http://www.w3.org/2000/svg" width="400" height="140.964"><path d="M396.826 73.974c-.57.915-.983 1.772-1.925 2.31-2.284 1.313-9.863 2.387-18.664 2.387-21.822 0-36.737-13.243-36.737-32.495 0-17.327 15.68-31.486 36.37-31.486 11.484 0 19.54 3.728 22.49 5.41.772.34.772.878.772 1.507v5.665c0 .328-.285.71-.565.947l-2.597 1.686c-1.46.978-4.59-9.467-20.02-9.467-14.454 0-22.023 10.64-22.023 25.01 0 17.66 11.213 27.482 24.235 27.482 6.51 0 13.677-1.513 18.97-6.098 1.435-1.238 3.518-.09 2.672 1.248l-2.978 5.892zM287.31 53.853l10.044-23.928 9.854 23.928H287.31zM334.028 73.3c-4.776-1.174-5.39-1.433-7.21-5.738-6.18-13.614-14.252-31.56-20.82-49.236-.308-1.322-1.054-2.533-2.44-2.533h-16.554c-1.053 0-1.873.085-2.29 1.042l-.487 1.44c-1.328 2.162 3.158 1.57 5.337 3.51 1.1 1 3.47 2.486 1.745 6.718l-16.45 39.06c-2.03 4.4-2.697 4.907-6.727 5.812-1.434.343-2.206.608-2.492 1.306l-.453 1.25c-.878 2.04 1.126 1.692 2.946 1.692h14.856c1.337 0 1.623-1.07 1.903-1.513l.593-.98c1.232-2.1-6.315-1.2-4.512-5.89l4.31-10.103h24.05l7.135 17.194c.337.726 1.157 1.292 2.083 1.292h13.397c1.1 0 1.904-.07 2.338-.905l.973-1.946c.28-.703-.28-1.194-1.232-1.47M224.67 20.553h5.568c7.96 0 12.435 1.962 12.435 10.356 0 5.806-4.19 11.322-12.043 11.322h-5.96v-21.68zm-18.973-4.75c-.582 0-1.248.254-1.64 1.058l-.803 1.678c-.43.967.412 1.248 1.86 1.597 4.153.608 6.036 2.12 6.036 5.84V71.92c0 2.67.973 4.162 2.587 4.707 5.11 1.57 11.42 2.105 20.516 2.105 13.243 0 26.847-5.3 26.847-18.75 0-5.807-4.623-15.015-18.5-16.45v-.14c8.34-2.662 13.877-7.787 13.592-14.23-.47-10.185-9.494-13.36-19.453-13.36h-31.043m18.972 31.19h5.775c9.578 0 15.306 5.23 15.507 13.35.185 8.32-4.337 13.62-12.133 13.62-5.993 0-9.15-1.93-9.15-7.866V46.992M104.92 86.214c-.263-.476-1.823-3.063-2.268-3.824-3.74-6.744-3.337-11.536-3.337-11.536.238-5.638 2.47-10.847 4.416-16.147.546-2.2-.972-3.998-2.05-5.776-1.365-1.797-1.773-4.013-1.64-6.303.053-1.296.72-2.528.407-3.86-.132-.488-.74-.667-.74-.667-2.62-.826-7.373.2-12.715 4.918-7.215 6.744-9.214 16.26-13.35 38.737-.894 5.004-.434 5.39 2.21 6.61 7.575 3.407 25.706 1.97 28.572 0 .667-.438.98-1.28.497-2.15" fill="#ed1d24"/><path d="M154.617 35.83c-.264-.296-2.206-1.49-2.206-1.49-2.363-1.56-4.928-2.71-7.498-3.777-12.303-4.59-11.99-4.5-12.63-4.792-.767-.322-1.72-.91-2.206-1.808-.804-1.53-1.44-3.01-2.03-3.74-.133-.19-.82-.64-1.894-1.443-4.782-3.688-14.64-8.855-14.64-8.855-1.18-.64-3.126-2.253-4.105-5.273-.798-1.878-3.49-2.423-5.447-2.375-3.946.227-7.47-.222-11.06-.984-5.426-1.76-12.17-1.618-17.692-.206-16.84 4.358-33.167 18.988-42.66 34.823 0 0-22.02 31.993-25.055 35.558-2.385 2.72.28 3.83 1.486 4.46 3.977 2.098 9.858 3.3 18.876 3.21 9.573.248 11.213-4.1 14.984-12.007 1.08-2.257 3.95-8.78 3.95-8.78 1.725-3.86 4.11-8.9 7.215-15.332 6.442-13.44 15.285-20.923 22.748-24.736 0 0 10.112-5.305 19.564-2.36 1.825.535 2.872-1.36 3.538-2.215.857-1.085 2.306-1.984 3.576-2.248 2.3-.477 5.924 1.136 5.924 1.136 5.755 2.935 9.346 4.866 14.89 8.6.057.09.343.328.623.788.354.508 2.507 4.638 2.507 4.638s.413.81 1.232 1.122c.825.296 13.757 5.257 13.757 5.257 2.12.9 7.198 2.963 9.843 4.81.175.14.508.4.296.92l-.99 2.42c-.824 2.027-.158 6.67-2.596 10.098-.338.503-1.232 1.01-2.11.915-1.507-.18-3.512-.434-5.363-.412-1.434.032-3.052.15-4.358 1.35-.725.634-1.01 1.13-.545 1.74.486.48 1.08.248 1.08.248.77-.43 1.892-.714 3.183-.714 1.698 0 3.998.63 4.718 1.798.524 1.01.64 1.91.498 3.04-.545 3.593-2.877 5.64-3.877 6.385-.19.143-.49.19-.877.08-1.306-.598-4.824-1.878-6.886-2.317-.29-.053-.508-.032-.61-.053-7.504.56-14.993.28-21.054-3.496-1.254-.77-3.158-3.47-4.31-1.2-1.72 4.644-2.894 9.277-2.2 14.397.327 2.03 2.406 9.23 7.642 12.07 8.425 3.998 24.155-.492 23.52-3.75-.032-.16-.132-.418-.54-.65-.412-.202-1.443-.688-3.5-1.98v.022c-1.942-1.265-5.38-3.47-6.69-6.6-1.292-3.212 2.125-7.47 11.365-3.34 0 0 1.592.736 2.496 1.487.196.133.413.38.846.344.566 0 1.254-.32 1.492-.438 2.84-1.513 8.72-6.965 7.23-14.02 3.03-2.46 4.194-5.184 4.834-9.162.095-.592.206-4.19 2-7.886.433-.973 1.417-2.115-.28-3.273" fill="#ed1d24"/><path d="M114.925 30.34c1.75 0 2.777.02 3.676.2 1 .307 2.154 1.407 3.1 2.46.318.438.884 1.21 1.725.782.396-.227.83-1.206.893-1.915.06-.81.418-2.343-.54-3.057 0 0-.126-.11-.227-.142-.38-.117-2.717-1.09-2.717-1.09-.386-.148-.645-.25-.846-.21-2.417.083-4.93.675-6.294.972-1.487.38-.556 1.38-.556 1.38.38.46.43.71 1.788.62M99.19 26.573c-.408-.63-3.36-5.374-3.73-5.902-.037-.095-.063-.132-.148-.158-1.772-2.11-7.626-1.56-9.292-1.486-5.95.338-20.607 6.262-29.905 25.646C47.108 63.385 44.538 70.25 44.538 70.25c-.9 1.9-1.486 3.485-5.04 9.197-1.884 2.502 1.01 3.75 1.37 3.93 3.257 1.48 13.38 3.496 22.007 2.502 2.015-.234 5.622-1.858 8.108-14.012.08-.45.153-.878.28-1.348 1.206-6.152 2.31-11.065 3.618-15.2 2.18-6.84 5.084-11.595 8.934-15.054 3.935-3.406 10.007-6.553 16.195-5.976.718.02 1.575-.392 1.443-1.465-.38-2.354-1.106-4.184-2.264-6.252M14.63 133.08H9.937L0 108.37h4.23l8.115 21.61h.08l8.345-21.61h3.95l-10.09 24.71zM37.58 124.474c-.772 0-1.534-.058-2.28-.058-1.925 0-6.674.285-6.674 3.46 0 1.935 1.946 2.955 3.565 2.955 3.518 0 5.39-2.056 5.39-4.76v-1.596zm-10.515-8.172c1.735-1 3.867-1.708 6.31-1.708 5.49 0 7.722 2.555 7.722 7.48v7.477c0 2.064.08 3.01.16 3.53h-3.333v-2.328h-.064c-.825 1.12-2.713 2.777-5.95 2.777-4.157 0-7.055-1.715-7.055-5.655 0-4.522 5.283-5.945 8.933-5.945 1.412 0 2.406 0 3.792.074 0-3.1-1.238-4.723-4.776-4.723-2.004 0-4.157.72-5.585 1.863l-.155-2.84zM47.568 106.508h3.565v26.567h-3.565v-26.567zM66.124 130.833c4.168 0 6.003-3.538 6.003-6.77 0-3.46-2.226-6.78-6.003-6.78-3.83 0-6.034 3.32-6.034 6.78 0 3.232 1.877 6.77 6.034 6.77m0-16.237c5.86 0 9.796 3.95 9.796 9.467 0 5.173-3.988 9.468-9.796 9.468-5.79 0-9.805-4.294-9.805-9.467 0-5.516 3.897-9.467 9.804-9.467M80.654 115.02h3.342v2.798h.048c.952-1.878 3.01-3.227 5.035-3.227 1.073 0 1.59.112 2.363.24v2.988c-.677-.244-1.364-.318-1.983-.318-3.18 0-5.24 2.84-5.24 7.363v8.22h-3.566V115.02zM107.79 122.322c0-2.77-1.74-5.04-4.776-5.04-3.464 0-4.924 2.697-5.188 5.04h9.964zm2.317 10.028c-1.365.47-2.9 1.18-6.093 1.18-6.823 0-9.954-3.904-9.954-9.79 0-5.347 3.596-9.145 9.002-9.145 6.442 0 8.494 4.406 8.494 10.203h-13.73c0 3.586 2.983 6.034 6.34 6.034 2.37 0 5.063-1.13 5.94-1.798v3.316zM114.91 129.552c1.374.857 3.374 1.28 4.41 1.28 1.62 0 3.613-.64 3.613-2.607 0-3.29-8.34-2.983-8.34-8.07 0-3.767 3.003-5.56 6.806-5.56 1.638 0 2.977.317 4.415.71l-.312 2.908c-.767-.46-2.92-.93-3.74-.93-1.798 0-3.39.718-3.39 2.19 0 3.69 8.368 2.648 8.368 8.398 0 3.883-3.315 5.66-6.753 5.66-1.8 0-3.67-.19-5.295-.99l.217-2.988zM153.712 118.075c-1.327-.52-2.687-.794-3.856-.794-3.94 0-6.145 3.328-6.145 6.782 0 3.23 1.815 6.77 6.416 6.77 1.206 0 2.72-.355 3.798-1.016l.26 2.978c-1.477.62-3.16.74-4.45.74-5.8 0-9.826-4.3-9.826-9.472 0-5.517 3.93-9.467 9.827-9.467 1.412 0 3.258.322 4.294.703l-.318 2.777zM166.785 130.833c4.163 0 5.998-3.538 5.998-6.77 0-3.46-2.232-6.78-5.998-6.78-3.802 0-6.003 3.32-6.003 6.78 0 3.232 1.82 6.77 6.003 6.77m0-16.237c5.855 0 9.785 3.95 9.785 9.467 0 5.173-4.014 9.468-9.785 9.468-5.807 0-9.81-4.294-9.81-9.467 0-5.516 3.93-9.467 9.81-9.467M181.256 115.02h3.338v2.613h.084c1.36-2.095 3.285-3.042 6.114-3.042 2.232 0 4.464 1.043 5.49 3.52 1.312-2.62 4.237-3.52 5.956-3.52 4.903 0 6.674 2.984 6.674 6.914v11.578h-3.538V122.32c0-2.233-.56-5.042-3.448-5.042-3.618 0-5.057 3.332-5.057 6.712v9.092h-3.565V122.32c0-2.233-.566-5.042-3.417-5.042-3.613 0-5.056 3.332-5.056 6.712v9.092h-3.576V115.02zM223.414 130.833c4.163 0 6.003-3.538 6.003-6.77 0-3.46-2.226-6.78-6.003-6.78-3.83 0-6.06 3.32-6.06 6.78 0 3.232 1.86 6.77 6.06 6.77m0-16.237c5.83 0 9.76 3.95 9.76 9.467 0 5.173-3.99 9.468-9.76 9.468-5.796 0-9.827-4.294-9.827-9.467 0-5.516 3.92-9.467 9.827-9.467M248.884 106.508h3.564v26.567h-3.564v-26.567zM267.467 130.833c4.136 0 5.982-3.538 5.982-6.77 0-3.46-2.244-6.78-5.983-6.78-3.797 0-6.035 3.32-6.035 6.78 0 3.232 1.857 6.77 6.035 6.77m0-16.237c5.855 0 9.753 3.95 9.753 9.467 0 5.173-4.01 9.468-9.753 9.468-5.828 0-9.81-4.294-9.81-9.467 0-5.516 3.902-9.467 9.81-9.467M280.557 129.552c1.386.857 3.39 1.28 4.41 1.28 1.593 0 3.624-.64 3.624-2.607 0-3.29-8.34-2.983-8.34-8.07 0-3.767 2.978-5.56 6.807-5.56 1.64 0 3.03.317 4.416.71l-.312 2.908c-.792-.46-2.902-.93-3.743-.93-1.804 0-3.385.718-3.385 2.19 0 3.69 8.34 2.648 8.34 8.398 0 3.883-3.29 5.66-6.706 5.66-1.83 0-3.697-.19-5.315-.99l.207-2.988zM317.395 117.705h-5.082v9.885c0 2.11 1.343 3.242 2.977 3.242 1.074 0 1.873-.333 2.386-.64v2.83c-.794.2-1.878.507-3 .507-3.675 0-5.94-1.635-5.94-5.258v-10.567h-4.325v-2.682h4.327v-4.178l3.576-1.053v5.23h5.082v2.683zM338.853 133.08h-3.422v-2.84h-.084c-1.063 2.047-3.596 3.29-6.3 3.29-5.002 0-7.24-2.91-7.24-7.765v-10.742h3.602v9.346c0 4.21.968 6.288 4.052 6.462 4.035 0 5.855-3.057 5.855-7.44v-8.37h3.538v18.058zM343.453 138.002c.486.122 1.08.27 1.67.27 3.18 0 4.232-4.13 4.232-4.453 0-.41-.46-1.33-.66-1.927l-6.554-16.872h3.89l5.17 14.96h.08l5.29-14.96h3.564l-7.082 18.46c-1.332 3.485-2.718 7.484-7.394 7.484-1.126 0-1.77-.122-2.417-.254l.213-2.708zM372.304 130.833c4.158 0 5.982-3.538 5.982-6.77 0-3.46-2.205-6.78-5.982-6.78-3.83 0-6.034 3.32-6.034 6.78 0 3.232 1.877 6.77 6.034 6.77m0-16.237c5.855 0 9.785 3.95 9.785 9.467 0 5.173-3.99 9.468-9.786 9.468-5.796 0-9.805-4.294-9.805-9.467 0-5.516 3.902-9.467 9.804-9.467M385.4 129.552c1.41.857 3.384 1.28 4.41 1.28 1.65 0 3.623-.64 3.623-2.607 0-3.29-8.346-2.983-8.346-8.07 0-3.767 3.004-5.56 6.812-5.56 1.64 0 2.998.317 4.416.71l-.313 2.908c-.793-.46-2.908-.93-3.723-.93-1.825 0-3.39.718-3.39 2.19 0 3.69 8.346 2.648 8.346 8.398 0 3.883-3.322 5.66-6.728 5.66-1.83 0-3.665-.19-5.29-.99l.18-2.988z" fill="#ed1d24"/></svg>