<svg xmlns="http://www.w3.org/2000/svg" width="400" height="115.253"><path d="M400 115.253H0V0h400v115.253z" fill="#e60f22"/><path d="M248.675 59.388c-.306.527-.52 1.024-1.03 1.344-1.24.768-5.32 1.387-10.063 1.387-11.712 0-19.747-7.738-19.747-18.95 0-10.092 8.44-18.34 19.555-18.34 6.193 0 10.502 2.183 12.102 3.157.427.206.427.52.427.875v3.292c0 .206-.186.412-.32.57l-1.402.98c-.768.562-2.467-5.51-10.744-5.51-7.794 0-11.847 6.178-11.847 14.576 0 10.29 6.03 15.993 13.02 15.993 3.513 0 7.374-.882 10.197-3.55.775-.724 1.906-.027 1.436.72l-1.585 3.455zM189.767 47.66l5.418-13.952 5.298 13.952h-10.716zm25.122 11.313c-2.56-.668-2.86-.81-3.855-3.35-3.335-7.913-7.665-18.366-11.207-28.65-.17-.788-.59-1.513-1.3-1.513h-8.904c-.568 0-1.03.057-1.244.61l-.256.833c-.71 1.287 1.7.925 2.873 2.062.583.59 1.863 1.458.93 3.918l-8.845 22.74c-1.095 2.596-1.457 2.88-3.612 3.4-.768.22-1.18.363-1.323.782l-.263.718c-.47 1.188.626.982 1.586.982h8c.704 0 .867-.612 1.017-.875l.32-.562c.66-1.237-3.4-.732-2.432-3.44l2.325-5.896h12.928l3.84 10.026c.17.427.618.747 1.13.747h7.203c.577 0 1.004-.057 1.26-.527l.505-1.137c.17-.412-.157-.696-.676-.867M156.095 28.25h3c4.274 0 6.692 1.146 6.692 6.03 0 3.407-2.27 6.593-6.478 6.593h-3.215V28.25zm-10.183-2.772c-.313 0-.668.15-.882.625l-.405.967c-.263.583.192.726.974.932 2.21.363 3.227 1.223 3.227 3.406v26.78c0 1.543.52 2.424 1.4 2.744 2.732.903 6.138 1.223 11.03 1.223 7.11 0 14.42-3.08 14.42-10.93 0-3.384-2.474-8.738-9.94-9.563v-.1c4.466-1.55 7.466-4.544 7.31-8.298-.242-5.923-5.098-7.786-10.446-7.786h-16.688zm10.183 18.175h3.086c5.178 0 8.25 3.058 8.35 7.793.113 4.836-2.312 7.943-6.53 7.943-3.2 0-4.905-1.16-4.905-4.623V43.653zM75.167 15.262c-8.775 2.496-18.19 10.368-23.85 20.593-5.37 8.818-11.683 18.204-12.536 19.39-.995 1.43-1.67 2.718-1.87 3.67-.263 1.238.37 2 1.323 2.59 2.944 1.883 7.047 2.886 12.117 2.666 2.595-.156 4.067-.767 5.51-1.97-.042.115-.468 1.067-.525 1.466-.03.298-.043.405-.007.61.15 1.118 1.2 1.686 2.232 2.19 2.17 1.09 7.93 2.227 12.8 1.63 1.337-.164 2.503-1.31 3.413-2.63.014 1.712.477 2.836 2.226 3.718 4.443 2.16 15.01 1.436 17.285-.235.71-.54 1.21-1.516 1.21-2.376.24.12.483.42.746.583l.1.085c.03 0 .064.022.064.022 4.31 2.176 11.108.79 13.76-1.138 1.522-1.13 1.593-2.368 1.458-3.05-.135-.704-.704-1.48-1.36-1.87l-.098-.065c.028 0-1.628-1.037-1.628-1.037-.768-.526-2.575-1.65-2.845-2.773-.02-.02 0-.17.058-.235.185-.263 1.173-.647 3.335.52.42.262.71.54.932.718-.42-.35.93.867 1.998.675.704-.135 1.095-.37 1.422-.555 1.99-1.123 4.95-4.287 4.95-8.398l-.05-.426v-.165c1.685-1.84 2.204-3.932 2.46-5.674 0-.042.057-.568.057-.568.064-.612.177-1.984.83-3.456l.108-.227c.292-.577.434-1.16.434-1.68 0-.817-.356-1.52-1.052-2.14l.028.036c-.135-.143-.455-.44-1.493-1.13v-.015.015c-1.408-1.003-2.95-1.756-4.26-2.318l-.078-.022s-5.683-2.353-5.84-2.41c-.667-.306-.788-.754-.788-.754-.3-.852-.64-1.35-1.138-1.926-.235-.242-.832-.732-1.3-1.152-2.533-2.062-7.73-5.12-8.357-5.504-.277-.2-1.123-1.116-1.308-1.77l-.022-.135-.05-.164c-.732-1.97-2.923-2.604-4.68-2.596h-.063c-1.707.12-3.3-.008-5.362-.477-3.03-1.038-6.876-1.102-10.296-.135" fill="#fff"/><path d="M92.358 66.173c-.143-.27-.982-1.785-1.224-2.204-1.976-3.884-1.763-6.643-1.763-6.643.122-3.27 1.302-6.25 2.348-9.294.29-1.308-.49-2.34-1.11-3.356-.704-1.024-.917-2.325-.846-3.634.014-.746.384-1.465.213-2.204-.085-.293-.405-.406-.405-.406-1.372-.484-3.904.12-6.713 2.837-3.854 3.897-4.913 9.373-7.132 22.33-.49 2.88-.227 3.1 1.166 3.803 4.04 1.99 13.676 1.124 15.212 0 .34-.25.512-.746.256-1.23" fill="#e60f22"/><path d="M118.787 37.136c-.15-.178-1.173-.854-1.173-.854-1.26-.917-2.624-1.578-3.99-2.183-6.54-2.66-6.385-2.61-6.705-2.767-.406-.206-.94-.547-1.18-1.03-.42-.883-.776-1.757-1.082-2.162-.078-.106-.44-.37-1.01-.84-2.546-2.125-7.78-5.097-7.78-5.097-.618-.363-1.677-1.287-2.196-3.05-.42-1.096-1.856-1.394-2.866-1.352-2.12.1-3.982-.14-5.902-.568-2.873-1.01-6.478-.952-9.408-.135C66.544 19.6 57.868 28.07 52.806 37.17c0 0-11.705 18.447-13.348 20.502-1.244 1.57.178 2.204.81 2.546 2.12 1.23 5.25 1.927 10.034 1.863 5.1.157 5.967-2.353 7.993-6.904.562-1.316 2.09-5.063 2.09-5.063.932-2.226 2.184-5.127 3.833-8.874 3.428-7.702 8.135-12.026 12.096-14.23 0 0 5.383-3.058 10.403-1.365.967.305 1.522-.76 1.885-1.28.462-.626 1.237-1.138 1.898-1.28 1.216-.285 3.15.654 3.15.654 3.05 1.684 4.978 2.793 7.908 4.976.05.022.192.164.355.44.185.293 1.31 2.66 1.31 2.66s.24.47.674.634c.42.206 7.303 3.064 7.303 3.064 1.102.484 3.826 1.686 5.248 2.767.092.086.256.235.135.527l-.52 1.386c-.447 1.167-.07 3.847-1.372 5.83-.17.272-.646.577-1.122.52-.84-.1-1.856-.263-2.852-.248-.768.05-1.635.092-2.31.79-.392.347-.54.66-.285 1 .228.28.57.158.57.15.39-.255 1.002-.412 1.685-.412.903 0 2.133.37 2.503 1.04.277.567.34 1.072.25 1.755-.257 2.055-1.516 3.242-2.035 3.662-.114.085-.284.107-.47.036-.696-.335-2.566-1.074-3.668-1.33-.164-.02-.25-.02-.306-.02-3.997.32-7.987.176-11.2-2-.67-.462-1.693-2.02-2.297-.704-.918 2.653-1.536 5.34-1.188 8.3.178 1.165 1.287 5.31 4.09 6.96 4.457 2.31 12.813-.298 12.478-2.16-.02-.1-.064-.243-.263-.37-.22-.13-.754-.414-1.863-1.153-1.038-.712-2.873-1.978-3.548-3.813-.705-1.827 1.115-4.273 6.03-1.927 0 0 .83.44 1.32.875.115.107.222.235.457.206.305 0 .66-.198.782-.262 1.513-.867 4.656-4.01 3.84-8.078 1.627-1.43 2.224-2.972 2.58-5.27.05-.362.114-2.417 1.06-4.55.24-.576.753-1.216-.143-1.884" fill="#e60f22"/><path d="M97.687 33.973c.91 0 1.48.014 1.955.128.526.15 1.16.79 1.636 1.416.177.227.476.683.917.427.22-.136.44-.69.476-1.11.05-.455.222-1.337-.29-1.756 0 0-.057-.07-.107-.07-.206-.072-1.45-.634-1.45-.634-.235-.085-.35-.142-.463-.142-1.28.08-2.645.42-3.335.598-.768.213-.29.782-.29.782.19.263.212.413.952.363M89.306 31.8c-.214-.377-1.8-3.086-1.977-3.413-.03-.036-.044-.072-.058-.086-.974-1.23-4.082-.91-4.978-.845-3.164.2-10.95 3.605-15.907 14.762-4.785 10.78-6.13 14.74-6.13 14.74-.483 1.11-.796 2.02-2.68 5.306-1.003 1.443.533 2.176.725 2.268 1.72.854 7.11 2.02 11.698 1.452 1.08-.15 2.993-1.074 4.302-8.064.042-.263.092-.526.142-.804.64-3.534 1.25-6.364 1.94-8.746 1.16-3.925 2.696-6.698 4.765-8.675 2.076-1.97 5.304-3.762 8.59-3.45.383.015.83-.234.767-.852-.206-1.35-.597-2.403-1.2-3.59" fill="#e60f22"/><path d="M158.352 89.162c0-.918-.277-1.622-.81-2.112-.548-.49-1.41-.747-2.568-.747h-.76c-.22 0-.427.007-.626.036v5.787c.192.028.384.05.59.07.2 0 .39.008.604.008 1.088-.007 1.956-.29 2.59-.832.66-.547.98-1.287.98-2.21m2.062-.193c0 .718-.135 1.38-.42 1.976-.284.59-.66 1.103-1.166 1.544-.504.426-1.095.767-1.8 1.01-.688.24-1.45.355-2.274.355h-.576c-.2 0-.39-.007-.59-.022v5.604h-2.013v-14.69c.548-.03 1.13-.05 1.72-.065.59-.014 1.224-.022 1.886-.022 1.7 0 3 .384 3.89 1.167.896.775 1.344 1.82 1.344 3.143M170.302 90.38c-1.145-.206-2.005.1-2.553.904-.562.803-.84 2.062-.84 3.797v4.338h-1.94V88.61h1.876c0 .334-.014.732-.05 1.202-.035.462-.106.938-.184 1.38h.035c.128-.37.278-.74.484-1.103.193-.35.442-.655.755-.918.29-.264.654-.456 1.08-.612.413-.142.89-.178 1.43-.128l-.093 1.948zM180.63 90.61c-.442-.49-1.04-.74-1.814-.74-.704 0-1.302.25-1.77.74-.477.498-.77 1.166-.883 1.984h5.07c.03-.818-.163-1.486-.604-1.984m2.6 2.368c0 .235-.013.562-.055.996H176.1c-.043 1.415.234 2.453.81 3.093.583.64 1.45.96 2.61.96.52 0 1.038-.057 1.557-.17.547-.1 1.038-.264 1.514-.492l.293 1.565c-.548.227-1.152.405-1.785.526-.618.12-1.28.185-1.955.185-1.65 0-2.916-.44-3.783-1.336-.86-.896-1.287-2.297-1.287-4.217 0-.803.1-1.557.32-2.247.213-.682.533-1.287.953-1.792.405-.512.91-.91 1.514-1.194.59-.278 1.273-.42 2.034-.42.768 0 1.415.12 1.962.356.555.25 1.01.576 1.36.98.347.413.603.897.78 1.445.157.554.235 1.144.235 1.763M194.33 94.72c-.23-.355-.54-.653-.925-.86-.377-.206-.783-.376-1.216-.51-.42-.122-.833-.265-1.21-.407-.37-.156-.683-.327-.94-.533-.24-.213-.362-.52-.362-.932 0-.448.157-.81.498-1.095.35-.29.875-.42 1.607-.42.342 0 .71.015 1.067.08.363.05.704.134 1.017.24l.156-1.613c-.34-.072-.675-.136-1.038-.178-.363-.036-.71-.057-1.052-.057-1.43 0-2.503.313-3.222.93-.724.613-1.072 1.38-1.072 2.312 0 .64.12 1.145.37 1.5.24.363.547.655.93.868.378.228.783.384 1.203.505.427.12.826.25 1.202.384.37.128.683.306.932.534.235.213.363.526.363.924 0 .512-.214.896-.64 1.202-.44.284-1.003.433-1.686.433-.404 0-.83-.042-1.243-.106-.405-.085-.79-.19-1.138-.348l-.186 1.764c.342.12.733.185 1.138.242.42.05.853.064 1.26.064.717 0 1.357-.086 1.92-.263.56-.172 1.037-.414 1.428-.727.39-.313.697-.675.903-1.102.213-.426.32-.88.32-1.364 0-.612-.128-1.102-.384-1.465M204.08 90.61c-.45-.49-1.047-.74-1.822-.74-.696 0-1.294.25-1.763.74-.47.498-.768 1.166-.882 1.984h5.077c.022-.818-.185-1.486-.61-1.984m2.608 2.368c0 .235-.02.562-.07.996h-7.062c-.057 1.415.228 2.453.804 3.093.576.64 1.443.96 2.617.96.512 0 1.03-.057 1.557-.17.533-.1 1.03-.264 1.507-.492l.293 1.565c-.562.227-1.145.405-1.778.526-.626.12-1.287.185-1.97.185-1.656 0-2.915-.44-3.782-1.336-.854-.896-1.295-2.297-1.295-4.217 0-.803.12-1.557.342-2.247.22-.682.526-1.287.938-1.792.413-.512.925-.91 1.522-1.194.597-.278 1.273-.42 2.04-.42.747 0 1.41.12 1.956.356.562.25 1.01.576 1.36.98.34.413.603.897.766 1.445.17.554.256 1.144.256 1.763M218.773 99.436v-6.954c0-.775-.15-1.38-.39-1.8-.257-.426-.755-.632-1.488-.632-.448 0-.867.106-1.237.334-.384.206-.71.52-.974.89-.277.376-.498.81-.647 1.33-.157.518-.228 1.072-.228 1.655v5.176h-1.95V88.613h1.9c0 .327-.015.726-.043 1.152-.02.434-.07.804-.142 1.145h.035c.327-.732.81-1.337 1.458-1.792.647-.455 1.436-.682 2.368-.682.618 0 1.145.085 1.564.27.42.185.74.434.996.74.25.305.433.675.547 1.094.114.434.164.875.164 1.35v7.546h-1.934zM232.426 99.37l-.2-1.614c-.426.12-.88.185-1.38.185-.305 0-.554-.042-.746-.1-.192-.07-.355-.19-.483-.362-.12-.17-.2-.398-.256-.696-.042-.292-.05-.662-.05-1.11v-5.525h3.023V88.61h-3.022v-4.045l-1.962.555v3.49h-2.21v1.537h2.21v6.23c0 .575.057 1.073.15 1.478.1.42.256.754.476 1.017.22.263.52.448.89.576.376.107.824.17 1.386.17.348 0 .71-.028 1.095-.07.398-.043.753-.1 1.08-.178M242.59 90.61c-.447-.49-1.037-.74-1.82-.74-.696 0-1.286.25-1.748.74-.477.498-.776 1.166-.896 1.984h5.07c.028-.818-.17-1.486-.605-1.984m2.604 2.368c0 .235-.007.562-.05.996h-7.082c-.03 1.415.234 2.453.817 3.093.575.64 1.443.96 2.602.96.526 0 1.038-.057 1.564-.17.54-.1 1.03-.264 1.515-.492l.278 1.565c-.547.227-1.138.405-1.77.526-.626.12-1.287.185-1.963.185-1.657 0-2.923-.44-3.783-1.336-.853-.896-1.287-2.297-1.287-4.217 0-.803.114-1.557.32-2.247.22-.682.533-1.287.946-1.792.427-.512.925-.91 1.522-1.194.59-.278 1.273-.42 2.048-.42.747 0 1.408.12 1.956.356.547.25 1.002.576 1.35.98.35.413.62.897.776 1.445.156.554.242 1.144.242 1.763M261.633 92.596h-5.063c.12-.825.412-1.486.882-1.984.476-.498 1.066-.74 1.77-.74.775 0 1.373.242 1.807.74.425.498.63 1.16.603 1.984m1.763-1.38c-.163-.547-.426-1.03-.782-1.443-.348-.412-.79-.732-1.344-.98-.547-.236-1.21-.357-1.955-.357-.782 0-1.45.143-2.04.42-.613.284-1.117.675-1.53 1.194-.405.505-.732 1.103-.946 1.792-.214.683-.328 1.444-.328 2.24 0 1.92.44 3.328 1.294 4.224.875.896 2.127 1.337 3.776 1.337.69 0 1.35-.07 1.977-.192.625-.113 1.215-.29 1.763-.518l-.285-1.564c-.47.227-.974.39-1.507.49-.518.107-1.052.17-1.564.17-1.16 0-2.033-.326-2.602-.96-.59-.64-.846-1.677-.81-3.092h7.06c.043-.434.078-.76.078-1.003 0-.62-.092-1.21-.256-1.756M275.993 99.436V91.89c0-.475-.057-.916-.164-1.35-.114-.42-.3-.79-.54-1.095-.27-.305-.598-.554-1.018-.74-.412-.184-.924-.27-1.557-.27-.925 0-1.707.228-2.368.683-.647.455-1.124 1.06-1.444 1.792h-.05c.072-.34.12-.71.15-1.145.028-.426.028-.825.028-1.152h-1.876v10.823h1.94V94.26c0-.584.072-1.138.23-1.657.148-.52.362-.953.632-1.33.263-.37.604-.683.967-.89.405-.227.796-.333 1.258-.333.727 0 1.217.206 1.48.633.257.42.377 1.024.377 1.8v6.953h1.956zM295.214 96.183c0 .49-.1.946-.32 1.372-.206.42-.504.782-.903 1.095-.39.313-.86.562-1.435.733-.548.17-1.195.256-1.906.256-.42 0-.854-.008-1.26-.065-.426-.05-.796-.12-1.13-.235l.164-1.763c.362.15.74.263 1.144.348.434.057.84.1 1.245.1.697 0 1.25-.143 1.685-.427.434-.306.647-.697.647-1.202 0-.398-.128-.71-.37-.924-.25-.228-.547-.406-.924-.534-.376-.135-.78-.27-1.215-.383-.405-.12-.818-.285-1.195-.512-.377-.214-.682-.505-.917-.86-.263-.364-.384-.868-.384-1.5 0-.933.355-1.7 1.073-2.32.718-.618 1.792-.93 3.22-.93.342 0 .677.028 1.053.056.356.042.697.106 1.032.184l-.143 1.614c-.32-.114-.66-.2-1.024-.25-.354-.056-.717-.077-1.072-.077-.726 0-1.252.136-1.6.42-.342.285-.49.648-.49 1.096 0 .412.113.718.362.93.24.207.547.378.938.534.363.143.768.285 1.21.413.433.135.838.298 1.208.512.384.206.697.498.932.853.248.363.376.853.376 1.465M307.798 99.436V88.613h-1.956v5.177c0 .597-.07 1.152-.227 1.678-.142.512-.363.967-.633 1.33-.285.39-.597.69-.98.896-.378.227-.79.334-1.232.334-.718 0-1.194-.206-1.443-.64-.27-.412-.405-1.017-.405-1.792v-6.983h-1.95v7.566c0 .476.065.93.165 1.343.1.427.263.797.52 1.11.27.312.582.554 1 .74.42.184.933.27 1.56.27.923 0 1.712-.228 2.36-.683.632-.463 1.123-1.06 1.436-1.8h.05c-.07.335-.1.705-.143 1.138-.02.42-.042.804-.042 1.138h1.92zM325.52 83.662c-.605-.15-1.195-.235-1.792-.235-1.358 0-2.39.356-3.086 1.074-.71.72-1.06 1.814-1.06 3.308v.803h-2.21v1.537h2.21v9.287h1.95v-9.287h3.006V88.61h-3.007v-.81c0-.945.178-1.65.534-2.083.34-.448.903-.675 1.692-.675.256 0 .526.02.804.056.27.036.54.1.782.185l.178-1.62zM337.942 99.436V88.613h-1.948v5.177c0 .597-.07 1.152-.228 1.678-.15.512-.362.967-.64 1.33-.277.39-.59.69-.974.896-.363.227-.79.334-1.23.334-.704 0-1.188-.206-1.45-.64-.257-.412-.392-1.017-.392-1.792v-6.983h-1.94v7.566c0 .476.042.93.148 1.343.1.427.27.797.534 1.11.256.312.59.554.995.74.42.184.924.27 1.557.27.925 0 1.707-.228 2.354-.683.647-.463 1.116-1.06 1.444-1.8h.042c-.057.335-.1.705-.135 1.138-.03.42-.044.804-.044 1.138h1.906zM348.623 99.547c-.4.043-.76.07-1.103.07-.56 0-1.01-.063-1.393-.17-.356-.128-.654-.312-.896-.576-.22-.262-.376-.596-.47-1.015-.09-.406-.14-.903-.14-1.48v-6.23h-2.22v-1.534h2.22v-3.49l1.948-.548v4.04h3.03v1.534h-3.03v5.526c0 .448.02.817.064 1.11.042.298.128.525.256.696.113.17.284.29.483.362.193.057.442.1.748.1.49 0 .953-.064 1.365-.185l.206 1.614c-.32.077-.683.134-1.067.177M363.074 99.436V88.613h-1.95v5.177c0 .597-.07 1.152-.226 1.678-.15.512-.363.967-.64 1.33-.278.39-.598.69-.974.896-.37.227-.797.334-1.245.334-.705 0-1.174-.206-1.437-.64-.27-.412-.39-1.017-.39-1.792v-6.983h-1.95v7.566c0 .476.05.93.15 1.343.1.427.277.797.526 1.11.262.312.575.554 1 .74.42.184.933.27 1.552.27.938 0 1.72-.228 2.36-.683.64-.463 1.13-1.06 1.444-1.8h.05c-.064.335-.114.705-.135 1.138-.035.42-.05.804-.05 1.138h1.914zM373.087 88.433c-.54-.05-1.038-.014-1.437.128-.426.157-.79.35-1.095.612-.305.263-.554.57-.746.918-.2.362-.357.725-.463 1.102h-.057c.092-.44.15-.917.192-1.38.035-.47.05-.867.05-1.2h-1.878v10.807h1.956v-4.34c0-1.734.27-2.992.817-3.796.548-.803 1.4-1.11 2.56-.903l.1-1.947zM384.746 93.957c0-1.244-.24-2.197-.732-2.88-.498-.675-1.244-1.024-2.233-1.024-.397 0-.774.07-1.122.22-.384.157-.704.4-.982.72-.284.32-.505.724-.675 1.208-.17.49-.24 1.067-.24 1.736 0 1.322.24 2.34.767 3.022.505.697 1.25 1.03 2.254 1.03.4 0 .776-.063 1.14-.234.354-.156.682-.405.952-.74.27-.333.49-.746.64-1.25.163-.506.234-1.103.234-1.807m2.077-.1c0 .81-.128 1.572-.39 2.27-.243.703-.6 1.315-1.068 1.84-.448.52-1.003.94-1.657 1.23-.647.292-1.372.442-2.17.442-.745 0-1.4-.108-2.004-.32-.583-.222-1.095-.556-1.522-.997-.42-.462-.746-1.017-.967-1.713-.234-.69-.355-1.515-.355-2.468 0-.803.12-1.543.355-2.233.242-.698.583-1.302 1.038-1.814.47-.512 1.024-.917 1.68-1.216.646-.3 1.378-.448 2.19-.448.69 0 1.336.1 1.933.292.597.2 1.11.512 1.543.952.433.44.767 1.003 1.01 1.693.255.674.383 1.513.383 2.488" fill="#fff"/></svg>