<svg xmlns="http://www.w3.org/2000/svg" width="400" height="203.58"><path d="M323.527 0c5.06 9.8 8.234 21.497 13.23 31.28-32.35 37.44-64.985 74.64-89.977 119.436 1.117-11.012 18.465-55.793 22.71-66.357 0 0-23.73-14.78-32.205-25.567 17.634-5.746 54.005-16.167 54.005-16.167S311.557 13.038 323.527 0M369.98 144.07s-48.897-27.88-64.44-37.918c13.852-11.41 29.156-21.416 44.557-31.28 8.314 21.402 19.884 69.2 19.884 69.2" fill="#066e38" fill-rule="evenodd"/><path d="M400 36.015s-49.664-3.447-54.835-.926c-11.043 5.313-76.906 91.922-76.906 91.922C335.08 74.045 400 36.015 400 36.015" fill="#7dba28" fill-rule="evenodd"/><path d="M20.236 111.88h3.766c2.282 0 4.134-.51 5.554-1.564 1.404-1.038 2.41-2.586 3.032-4.74l.4-1.293c.957-3.24 1.052-5.52.302-6.878-.734-1.388-2.457-2.043-5.123-2.043h-3.112l-4.82 16.518zM15.96 87.048h13.786c6.912 0 11.444 1.516 13.614 4.516 1.165 1.564 1.756 3.64 1.676 6.272.08 2.394-.43 5.187-1.372 8.442l-.224.686c-1.452 5.123-3.543 8.586-6.176 10.422-2.665 1.867-6.91 2.792-12.72 2.792h-6.718l-6.336 21.8H0l15.96-54.93zM61.348 110.98h1.93c2.442 0 4.373-.51 5.778-1.483 1.468-.99 2.537-2.505 3.128-4.532l.32-1.117c.83-3.064.924-5.25.206-6.56-.814-1.276-2.49-1.93-5.234-1.93H65.88l-4.532 15.623zm-4.39-23.937h13.183c6.432 0 10.677 1.325 12.8 3.99 1.085 1.42 1.676 3.32 1.676 5.76 0 1.996-.383 4.374-1.197 7.055l-.16.527c-1.086 3.846-3.08 6.67-5.89 8.41-2.106 1.372-4.835 2.186-8.203 2.505 3.128.463 5.347 1.357 6.655 2.65 1.93 1.883 2.25 4.915 1.022 9.064-.56 2.123-1.086 4.15-1.5 6.08-.43 2.378-.782 4.246-.99 5.602-.16 1.325-.27 2.394-.27 3.288H62.67c0-1.26.08-2.538.24-3.846.143-1.277.526-2.92.957-4.868.398-1.835.973-3.91 1.627-6.256.91-2.936.91-4.947.143-6.08-.766-1.1-2.65-1.66-5.537-1.66h-1.245l-6.495 22.726H41.08l15.88-54.947zM82.535 141.986L98.462 87.04h27.4l-1.196 4.133-1.18 4.18H107.67l-4.23 14.332h14.7l-1.198 4.118-1.165 4.18h-14.73l-4.564 15.72h16.405l-1.197 4.134-1.21 4.15H82.534zM129.35 141.986H118.977L135.83 87.04h16.582l-5.124 40.535h-.032l19.23-40.535h16.917l-15.975 54.946h-10.295L171.42 95.61l-22.36 46.376H137.377l5.635-47.366-13.66 47.366zM193.5 87.045h11.49l-15.91 54.946H177.57L193.5 87.046zM216.35 121.93h10.247l1.93-26.57h-.015l-12.16 26.57zm6.848-34.885h15.336l-2.65 54.946h-10.753l.845-11.76h-13.422l-5.346 11.76h-11.554l27.545-54.945zM90.007 166.43h2.57c1.563 0 2.84-.416 3.86-1.278 1.038-.862 1.756-2.138 2.315-3.958l.32-1.085c.558-1.932.398-3.256-.432-4.086-.798-.83-2.41-1.213-4.82-1.213h-.446l-3.367 11.62zm-5.586 19.054h2.395c1.787 0 3.27-.527 4.436-1.596 1.166-1.085 2.044-2.745 2.698-5.01l-.255.892c.638-2.298.686-3.973.16-5.074-.607-1.086-1.788-1.596-3.64-1.596h-2.17l-3.622 12.384zm1.597-37.296H94.46c6.19 0 10.245 1.005 12.287 3.032 1.197 1.18 1.852 2.873 1.852 5.01 0 1.55-.336 3.24-.895 5.188l.287-.846c-1.133 3.702-2.81 6.256-5.14 7.58-1.355.83-3.254 1.357-5.744 1.692 2.298.447 3.894 1.18 4.82 2.25.925 1.006 1.372 2.41 1.42 4.18 0 1.374-.335 3.066-.862 4.933l.288-.878c-1.373 4.627-3.208 7.787-5.586 9.4-2.362 1.627-6.224 2.44-11.682 2.44h-12.24l12.75-43.982zM124.527 177.64h-1.245c-1.994 0-3.415.302-4.308.924-.83.655-1.55 1.915-2.107 3.814l-.287.974c-.367 1.277-.367 2.234-.048 2.984.383.702 1.02 1.07 1.98 1.07 1.084 0 2.01-.447 2.68-1.31.686-.91 1.5-2.696 2.426-5.393l.91-3.064zm-10.31 15.176c-2.696 0-4.548-.91-5.57-2.745-.494-.925-.75-2.026-.75-3.367 0-1.213.256-2.57.703-4.133 1.07-3.798 2.633-6.384 4.692-7.772 2.01-1.357 5.22-2.06 9.72-2.06h2.872l.893-2.84c.32-1.212.32-2.058.032-2.617-.272-.59-.926-.876-1.788-.876-.926 0-1.628.255-2.06.782-.478.526-1.004 1.643-1.643 3.287h-8.347c.878-3.51 2.154-6 3.974-7.357 1.85-1.356 4.564-2.107 8.266-2.107 3.655 0 6.384.83 8.17 2.49 1.23 1.068 1.79 2.473 1.79 4.1.047.72-.08 1.453-.32 2.3l-3.942 13.452c-.398 1.452-.813 2.968-1.164 4.5-.288 1.564-.575 2.985-.734 4.31h-8.14l.767-2.73-.4.43c-2.01 1.948-4.325 2.954-7.022 2.954M143.6 161.52h8.266l-.766 2.89.128-.113c2.314-2.266 4.804-3.4 7.55-3.4 2.36 0 3.972.72 4.898 2.17.878 1.437.942 3.448.24 6.05l-6.72 23.044H149.012l6.56-22.58c.27-1.038.27-1.82.03-2.442-.24-.527-.717-.862-1.483-.862-1.086 0-2.14.606-3.017 1.74-.877 1.196-1.69 2.968-2.44 5.394l-5.427 18.75H134.757l8.842-30.64zM176.196 187.397c1.037 0 1.883-.4 2.6-1.165.703-.798 1.294-2.026 1.772-3.654l3.05-10.55c.525-1.786.637-3.175.366-4.18-.288-.99-.926-1.485-1.93-1.485-1.118 0-2.092.623-2.89 1.9-.846 1.244-1.676 3.415-2.6 6.543l-2.14 7.34c-.478 1.63-.558 2.89-.27 3.847.318.942.988 1.404 2.042 1.404m-3.942-25.87H179.69l-1.005 3.432.59-.655c2.06-2.282 4.597-3.415 7.597-3.415 2.777 0 4.548 1.1 5.346 3.303.336.862.43 1.883.43 3.048 0 1.805-.318 4.055-1.068 6.608l-1.787 6.08c-1.357 4.613-2.84 7.916-4.596 9.895-1.708 1.963-3.99 2.984-6.72 2.984-2.728 0-4.74-1.07-5.968-3.128l-.144-.224-4.054 14.124H160.06l12.194-42.052zM201.408 161.52h7.628l-1.085 3.75c2.92-2.936 5.937-4.436 9.017-4.372h1.102l-2.62 8.57c-.477-.192-1.004-.256-1.594-.256-2.57 0-4.453.687-5.794 2.123-1.324 1.404-2.505 3.99-3.526 7.66l-3.815 13.166H192.504l8.905-30.64zM228.863 185.92c.607-.877 1.293-2.728 2.043-5.537l2.06-7.02c.813-2.762 1.116-4.677.988-5.603-.175-.894-.99-1.357-2.394-1.357-1.117 0-2.09.43-2.697 1.357-.638.91-1.324 2.76-2.09 5.602l-2.06 7.02c-.78 2.778-1.1 4.63-.99 5.54.21.91.96 1.372 2.443 1.372 1.133 0 2.01-.463 2.697-1.373m-12.08 3.528c-.846-1.23-1.293-2.713-1.293-4.5 0-1.34.255-2.873.782-4.565l2.058-7.02c1.34-4.74 3.064-7.997 5.203-9.816 2.122-1.772 5.25-2.65 9.432-2.65 4.133 0 6.862.99 8.17 3.065.783 1.053 1.182 2.44 1.182 4.15 0 1.483-.32 3.24-.878 5.25l-2.06 7.02c-1.356 4.725-3.08 7.98-5.266 9.768-2.043 1.772-5.203 2.665-9.4 2.665-3.75 0-6.384-1.117-7.932-3.367" fill="#066e38"/></svg>