<?xml version="1.0" encoding="UTF-8" standalone="no"?>
<!-- Created with Inkscape (http://www.inkscape.org/) -->

<svg
   xmlns:dc="http://purl.org/dc/elements/1.1/"
   xmlns:cc="http://creativecommons.org/ns#"
   xmlns:rdf="http://www.w3.org/1999/02/22-rdf-syntax-ns#"
   xmlns:svg="http://www.w3.org/2000/svg"
   xmlns="http://www.w3.org/2000/svg"
   xmlns:sodipodi="http://sodipodi.sourceforge.net/DTD/sodipodi-0.dtd"
   xmlns:inkscape="http://www.inkscape.org/namespaces/inkscape"
   width="300mm"
   height="83.673714mm"
   viewBox="0 0 300 83.673714"
   version="1.1"
   id="svg4939"
   inkscape:version="0.92.1 r15371"
   sodipodi:docname="bavaria_delikatessen.svg">
  <defs
     id="defs4933" />
  <sodipodi:namedview
     id="base"
     pagecolor="#ffffff"
     bordercolor="#666666"
     borderopacity="1.0"
     inkscape:pageopacity="0.0"
     inkscape:pageshadow="2"
     inkscape:zoom="0.35"
     inkscape:cx="-214.57137"
     inkscape:cy="262.00025"
     inkscape:document-units="mm"
     inkscape:current-layer="layer1"
     showgrid="false"
     fit-margin-top="0"
     fit-margin-left="0"
     fit-margin-right="0"
     fit-margin-bottom="0"
     inkscape:window-width="1280"
     inkscape:window-height="656"
     inkscape:window-x="0"
     inkscape:window-y="27"
     inkscape:window-maximized="1" />
  <metadata
     id="metadata4936">
    <rdf:RDF>
      <cc:Work
         rdf:about="">
        <dc:format>image/svg+xml</dc:format>
        <dc:type
           rdf:resource="http://purl.org/dc/dcmitype/StillImage" />
        <dc:title></dc:title>
      </cc:Work>
    </rdf:RDF>
  </metadata>
  <g
     inkscape:label="Capa 1"
     inkscape:groupmode="layer"
     id="layer1"
     transform="translate(-8.3910548,-134.48052)">
    <g
       transform="matrix(0.68027195,0,0,-0.68027195,-49.432061,455.3114)"
       id="g4874">
      <path
         inkscape:connector-curvature="0"
         id="path254"
         style="fill:#ffffff;fill-opacity:1;fill-rule:nonzero;stroke:none"
         d="m 86.57529,431.4071 h 67.86111 v -41.225 c 0,0 1.6001,-39.3472 -33.7344,-39.7635 -35.32854,-0.4163 -33.12201,38.7243 -33.72643,46.0121 z" />
      <g
         transform="matrix(1.000694,0,0,1.00314,86.57529,431.4071)"
         id="g256">
        <path
           inkscape:connector-curvature="0"
           id="path258"
           style="fill:none;stroke:#ffffff;stroke-width:0.79700011;stroke-linecap:butt;stroke-linejoin:miter;stroke-miterlimit:10;stroke-dasharray:none;stroke-opacity:1"
           d="M 0,8.482037e-6 H 67.81401 V -41.09599 c 0,0 1.59898,-39.224 -33.71101,-39.63899 -35.304001,-0.41502 -33.098997,38.603 -33.7030011,45.868 z" />
      </g>
      <path
         inkscape:connector-curvature="0"
         id="path260"
         style="fill:#231f20;fill-opacity:1;fill-rule:nonzero;stroke:none"
         d="m 120.6928,349.3377 c -36.20515,-0.4273 -33.94459,39.7304 -34.55901,47.2048 l -0.41129,35.8944 h 69.5362 v -42.3015 c 0,0 1.6322,-40.3743 -34.5659,-40.7977 m 35.4816,83.684 -0.017,38.5998 -9.2204,-26.2983 -9.1884,26.2983 -8.9882,-26.2983 -8.2628,26.2983 -8.675,-26.2983 -8.1667,26.2983 -8.77705,-26.2983 -9.70372,26.2983 L 85,433.0217 85.41929,396.374 c 0.63344,-7.6339 -2.12148,-48.1788 34.93621,-47.7495 37.0537,0.4344 35.8189,41.208 35.8189,41.208 z" />
      <g
         transform="matrix(1.000694,0,0,1.00314,86.55188,431.4639)"
         id="g262">
        <path
           inkscape:connector-curvature="0"
           id="path264"
           style="fill:none;stroke:#253386;stroke-width:0.58499998;stroke-linecap:butt;stroke-linejoin:miter;stroke-miterlimit:10;stroke-dasharray:none;stroke-opacity:1"
           d="M 1.437555e-6,1.391244e-5 H 67.82401 V -41.15199 c 0,0 1.59799,-39.28798 -33.712,-39.69999 -35.309008,-0.412 -33.106008,38.664 -33.710005,45.93499 z" />
      </g>
      <path
         inkscape:connector-curvature="0"
         id="path266"
         style="fill:#253386;fill-opacity:1;fill-rule:nonzero;stroke:none"
         d="m 154.43,431.4071 h -6.3004 l 2.3476,-8.1194 3.9528,-1.5789 z" />
      <path
         inkscape:connector-curvature="0"
         id="path268"
         style="fill:#253386;fill-opacity:1;fill-rule:nonzero;stroke:none"
         d="m 137.3683,431.4071 h -10.8985 l 0.5534,-1.0773 11.7291,-3.7718 z" />
      <path
         inkscape:connector-curvature="0"
         id="path270"
         style="fill:#253386;fill-opacity:1;fill-rule:nonzero;stroke:none"
         d="M 105.2259,431.4071 H 94.46246 l 0.55339,-2.4235 12.27855,-3.6836 z" />
      <path
         inkscape:connector-curvature="0"
         id="path272"
         style="fill:#253386;fill-opacity:1;fill-rule:nonzero;stroke:none"
         d="m 86.68667,419.8386 0.13609,-11.8511 0.007,-0.1193 5.84205,-1.8197 -4.69125,13.3608 -1.2939,0.4293 z" />
      <path
         inkscape:connector-curvature="0"
         id="path274"
         style="fill:#253386;fill-opacity:1;fill-rule:nonzero;stroke:none"
         d="m 127.0233,430.3294 -6.3304,1.0774 h -4.8454 l 3.7546,-10.549 11.9753,-3.3134 z" />
      <path
         inkscape:connector-curvature="0"
         id="path276"
         style="fill:#253386;fill-opacity:1;fill-rule:nonzero;stroke:none"
         d="m 143.0296,413.807 11.4009,-3.3033 v 2.2551 l -3.9538,10.5289 -11.7241,3.2703 z" />
      <path
         inkscape:connector-curvature="0"
         id="path278"
         style="fill:#253386;fill-opacity:1;fill-rule:nonzero;stroke:none"
         d="m 136.27,404.3263 11.8602,-3.7357 -5.1005,13.2163 -11.452,3.7377 z" />
      <path
         inkscape:connector-curvature="0"
         id="path280"
         style="fill:#253386;fill-opacity:1;fill-rule:nonzero;stroke:none"
         d="m 124.2645,407.8686 -4.6622,12.9886 -12.3075,4.4419 4.6882,-13.6457 z" />
      <path
         inkscape:connector-curvature="0"
         id="path282"
         style="fill:#253386;fill-opacity:1;fill-rule:nonzero;stroke:none"
         d="m 95.01575,428.9839 c 0,0 -7.17698,2.4236 -7.86246,2.4236 h -0.59741 l 0.11307,-9.6993 1.31192,-2.2982 11.99832,-3.8782 z" />
      <path
         inkscape:connector-curvature="0"
         id="path284"
         style="fill:#253386;fill-opacity:1;fill-rule:nonzero;stroke:none"
         d="m 111.9826,411.6538 -12.00331,3.8782 4.69321,-13.074 12.1435,-3.8791 z" />
      <path
         inkscape:connector-curvature="0"
         id="path286"
         style="fill:#253386;fill-opacity:1;fill-rule:nonzero;stroke:none"
         d="m 128.9582,394.8415 12.0013,-3.9915 -4.6892,13.4761 -12.0054,3.5421 z" />
      <path
         inkscape:connector-curvature="0"
         id="path288"
         style="fill:#253386;fill-opacity:1;fill-rule:nonzero;stroke:none"
         d="m 154.3801,387.0853 v 0.004 11.49 l -6.2503,2.0113 4.9685,-13.5053 z" />
      <path
         inkscape:connector-curvature="0"
         id="path290"
         style="fill:#253386;fill-opacity:1;fill-rule:nonzero;stroke:none"
         d="m 104.6728,402.4576 -12.00028,3.5913 4.13186,-13.2184 12.42162,-3.5923 z" />
      <path
         inkscape:connector-curvature="0"
         id="path292"
         style="fill:#253386;fill-opacity:1;fill-rule:nonzero;stroke:none"
         d="m 121.6582,385.2136 12.1214,-3.5902 -4.8213,13.2184 -12.1424,3.7367 z" />
      <path
         inkscape:connector-curvature="0"
         id="path294"
         style="fill:#253386;fill-opacity:1;fill-rule:nonzero;stroke:none"
         d="m 145.6476,377.7465 6.9588,-1.9833 c 0.9106,3.3967 1.369,6.5445 1.6021,9.0323 l -1.1108,2.2902 -12.1384,3.7648 z" />
      <path
         inkscape:connector-curvature="0"
         id="path296"
         style="fill:#253386;fill-opacity:1;fill-rule:nonzero;stroke:none"
         d="m 138.7521,368.1162 9.2594,-2.8008 0.2832,-0.0371 c 0.4853,0.8226 0.9337,1.6562 1.3419,2.4958 l -3.9887,9.9723 -11.8683,3.8771 z" />
      <path
         inkscape:connector-curvature="0"
         id="path298"
         style="fill:#253386;fill-opacity:1;fill-rule:nonzero;stroke:none"
         d="m 130.7514,358.7808 8.4689,-3.2632 c 1.1318,0.7574 2.1835,1.5789 3.1562,2.4526 l -3.6245,10.1458 -12.2815,3.5953 z" />
      <path
         inkscape:connector-curvature="0"
         id="path300"
         style="fill:#253386;fill-opacity:1;fill-rule:nonzero;stroke:none"
         d="m 109.2258,389.2379 4.8274,-13.8533 12.4166,-3.6735 -4.8114,13.5022 z" />
      <path
         inkscape:connector-curvature="0"
         id="path302"
         style="fill:#253386;fill-opacity:1;fill-rule:nonzero;stroke:none"
         d="m 106.7973,365.9331 11.8092,-3.4187 -4.5531,12.8703 -12.2776,3.9433 z" />
      <path
         inkscape:connector-curvature="0"
         id="path304"
         style="fill:#253386;fill-opacity:1;fill-rule:nonzero;stroke:none"
         d="m 96.80409,392.8303 -9.84383,3.5441 c 0.05104,-0.643 0.08306,-1.5449 0.12208,-2.6353 l 0.23617,-5.1371 c 0,-0.027 0.005,-0.0622 0.01,-0.0953 l 2.28859,-5.3888 12.1594,-3.7899 z" />
      <path
         inkscape:connector-curvature="0"
         id="path306"
         style="fill:#253386;fill-opacity:1;fill-rule:nonzero;stroke:none"
         d="m 87.7412,383.9078 c 0.44831,-3.8139 1.22985,-8.0502 2.62983,-12.2002 l 3.99577,-1.7223 -4.74929,13.1331 z" />
      <path
         inkscape:connector-curvature="0"
         id="path308"
         style="fill:#253386;fill-opacity:1;fill-rule:nonzero;stroke:none"
         d="m 133.044,352.4515 -2.2926,6.3298 -12.1454,3.7337 4.6032,-12.1009 c 3.4594,0.2357 7.0989,1.1005 9.8348,2.0374" />
      <path
         inkscape:connector-curvature="0"
         id="path310"
         style="fill:#253386;fill-opacity:1;fill-rule:nonzero;stroke:none"
         d="m 97.74224,358.9175 c 3.35636,-3.534 7.78936,-6.3017 13.66746,-7.672 l -4.6122,14.688 -12.4306,4.0517 z" />
      <path
         inkscape:connector-curvature="0"
         id="path312"
         style="fill:#231f20;fill-opacity:1;fill-rule:nonzero;stroke:none"
         d="m 194.3449,406.6333 c 0.2842,-0.956 0.8215,-1.6121 1.6141,-1.9672 0.7915,-0.3551 2.0284,-0.5326 3.7196,-0.5326 7.7684,0 11.6561,4.9043 11.6561,14.717 0,4.3988 -1.1118,7.7463 -3.3334,10.0414 -2.2225,2.2972 -5.745,3.4438 -10.5733,3.4438 h -3.5144 v -21.2324 c 0,-2.0244 0.1451,-3.513 0.4313,-4.47 m 10.7925,30.8676 c 1.458,2.4868 2.1885,5.8072 2.1885,9.9612 0,4.2082 -0.6565,7.343 -1.9604,9.4064 -1.3099,2.0645 -3.3973,3.0957 -6.2593,3.0957 -1.4991,0 -2.6108,-0.1976 -3.3313,-0.5948 -0.7256,-0.3963 -1.2129,-1.0925 -1.4731,-2.0906 -0.2592,-0.9961 -0.3882,-2.5069 -0.3882,-4.5292 v -18.9794 h 3.5985 c 3.6255,0 6.1672,1.2429 7.6253,3.7307 m 11.1637,-6.8254 c 3.1502,-1.4605 5.4268,-3.2522 6.8307,-5.3698 1.403,-2.1186 2.1045,-4.3937 2.1045,-6.8243 0,-3.4709 -0.9276,-6.4292 -2.7799,-8.8768 -1.8523,-2.4467 -4.5122,-4.2905 -7.9756,-5.5333 -3.4594,-1.2419 -7.5772,-1.8649 -12.3485,-1.8649 -1.1999,0 -3.2503,0.0411 -6.1523,0.1224 -2.904,0.0832 -5.8301,0.1234 -8.7751,0.1234 -5.749,0 -10.043,-0.0813 -12.8779,-0.2458 v 1.6813 c 1.8523,0.0812 3.2002,0.2999 4.0478,0.656 0.8446,0.3551 1.424,1.0102 1.7372,1.9662 0.3122,0.958 0.4703,2.4888 0.4703,4.5934 v 41.6463 c 0,2.1036 -0.1581,3.6354 -0.4703,4.5904 -0.3132,0.958 -0.8926,1.613 -1.7372,1.9681 -0.8476,0.3552 -2.1955,0.5749 -4.0478,0.6561 v 1.6803 c 2.8059,-0.1635 7.0449,-0.2468 12.7148,-0.2468 2.2366,0 4.7193,0.0301 7.4442,0.0833 2.7259,0.0541 4.6202,0.0822 5.6829,0.0822 4.4981,0 8.2958,-0.5537 11.3879,-1.6612 3.0951,-1.1055 5.4218,-2.6493 6.9718,-4.6315 1.5571,-1.9812 2.3337,-4.2834 2.3337,-6.9066 0,-2.0775 -0.5995,-4.1139 -1.8003,-6.1071 -1.1998,-1.9953 -3.0611,-3.7648 -5.5799,-5.3096 -2.5217,-1.5439 -5.6369,-2.6584 -9.3444,-3.3405 v -0.1635 c 4.9614,-0.3832 9.0142,-1.3051 12.1634,-2.7677" />
      <path
         inkscape:connector-curvature="0"
         id="path314"
         style="fill:#231f20;fill-opacity:1;fill-rule:nonzero;stroke:none"
         d="m 248.5021,449.061 -8.668,-22.67 h 16.9728 z m 31.7321,-43.8412 c 0.9296,-0.8347 1.8532,-1.2781 2.7839,-1.3322 v -1.6813 c -3.3533,0.1655 -7.5913,0.2458 -12.7178,0.2458 -5.725,0 -9.9659,-0.0803 -12.7169,-0.2458 v 1.6813 c 2.0995,0.0812 3.6055,0.3431 4.5192,0.7784 0.9126,0.4374 1.3679,1.2028 1.3679,2.2962 0,0.8456 -0.3392,2.1718 -1.0217,3.9755 l -5.0285,13.772 h -18.2376 l -2.2096,-5.779 c -1.526,-3.9344 -2.2916,-7.0501 -2.2916,-9.3463 0,-2.0745 0.6135,-3.525 1.8423,-4.3446 1.2269,-0.8186 3.0792,-1.271 5.5609,-1.3522 v -1.6813 c -3.7636,0.1655 -7.224,0.2458 -10.3862,0.2458 -2.5638,0 -4.6893,-0.0803 -6.3815,-0.2458 v 1.6813 c 2.781,0.4644 5.1807,3.4026 7.2,8.8126 l 19.0933,49.1087 c 0.9036,-0.0813 1.8683,-0.1224 2.904,-0.1224 1.0898,0 2.0594,0.0411 2.906,0.1224 l 20.3211,-52.5515 c 0.7375,-1.8578 1.5701,-3.203 2.4928,-4.0376" />
      <path
         inkscape:connector-curvature="0"
         id="path316"
         style="fill:#231f20;fill-opacity:1;fill-rule:nonzero;stroke:none"
         d="m 326.649,461.3979 c 2.5608,0 4.6893,0.0832 6.3785,0.2468 v -1.6813 c -1.389,-0.5457 -2.7659,-1.6181 -4.1309,-3.2171 -1.3619,-1.598 -2.5608,-3.8601 -3.5965,-6.7852 l -17.6652,-47.919 c -0.6275,0.0552 -1.6102,0.0823 -2.9431,0.0823 -1.2829,0 -2.2235,-0.0271 -2.8229,-0.0823 l -21.3879,52.5525 c -0.7085,1.8578 -1.5321,3.204 -2.4727,4.0376 -0.9397,0.8326 -1.8733,1.278 -2.8009,1.3312 v 1.6813 c 3.3523,-0.1636 7.6072,-0.2468 12.7558,-0.2468 5.701,0 9.9379,0.0832 12.7198,0.2468 v -1.6813 c -2.0984,-0.0803 -3.6055,-0.334 -4.5201,-0.7574 -0.9136,-0.4223 -1.37,-1.2087 -1.37,-2.3573 0,-0.8738 0.3423,-2.1859 1.0227,-3.9344 l 14.7643,-37.5906 10.3011,27.8331 c 1.5571,4.3997 2.3337,7.8175 2.3337,10.2491 0,2.241 -0.5924,3.8731 -1.7783,4.8973 -1.1888,1.0252 -2.937,1.5799 -5.2556,1.6602 v 1.6813 c 3.7616,-0.1636 7.251,-0.2468 10.4682,-0.2468" />
      <path
         inkscape:connector-curvature="0"
         id="path318"
         style="fill:#231f20;fill-opacity:1;fill-rule:nonzero;stroke:none"
         d="m 347.8733,449.061 -8.668,-22.67 h 16.9687 z m 31.732,-43.8412 c 0.9236,-0.8347 1.8533,-1.2781 2.7779,-1.3322 v -1.6813 c -3.3513,0.1655 -7.5913,0.2458 -12.7138,0.2458 -5.725,0 -9.9639,-0.0803 -12.7198,-0.2458 v 1.6813 c 2.0984,0.0812 3.6055,0.3431 4.5181,0.7784 0.9136,0.4374 1.371,1.2028 1.371,2.2962 0,0.8456 -0.3423,2.1718 -1.0238,3.9755 l -5.0275,13.772 h -18.2386 l -2.2076,-5.779 c -1.529,-3.9344 -2.2905,-7.0501 -2.2905,-9.3463 0,-2.0745 0.6134,-3.525 1.8403,-4.3446 1.2248,-0.8186 3.0801,-1.271 5.5608,-1.3522 v -1.6813 c -3.7636,0.1655 -7.224,0.2458 -10.3872,0.2458 -2.5628,0 -4.6873,-0.0803 -6.3764,-0.2458 v 1.6813 c 2.7799,0.4644 5.1786,3.4026 7.195,8.8126 l 19.0972,49.1087 c 0.8996,-0.0813 1.8693,-0.1224 2.903,-0.1224 1.0918,0 2.0564,0.0411 2.904,0.1224 l 20.3231,-52.5515 c 0.7376,-1.8578 1.5661,-3.203 2.4948,-4.0376" />
      <path
         inkscape:connector-curvature="0"
         id="path320"
         style="fill:#231f20;fill-opacity:1;fill-rule:nonzero;stroke:none"
         d="m 413.4818,433.8939 c 1.7612,1.2028 2.9711,2.8138 3.6416,4.8362 0.6664,2.0213 0.9996,4.4549 0.9996,7.2968 0,4.5914 -0.8085,8.0612 -2.4317,10.4126 -1.6201,2.3493 -4.2739,3.524 -7.9555,3.524 -1.497,0 -2.6088,-0.1966 -3.3303,-0.5938 -0.7235,-0.3963 -1.2138,-1.0924 -1.472,-2.0906 -0.2582,-0.9971 -0.3873,-2.5068 -0.3873,-4.5302 v -20.6606 h 3.5975 c 3.1332,0 5.5819,0.6019 7.3381,1.8056 m 21.3468,-31.7283 c -1.7292,-0.7654 -3.8096,-1.1476 -6.2373,-1.1476 -3.2172,0 -5.766,0.6821 -7.6443,2.0504 -1.8803,1.3663 -3.1072,3.7157 -3.6806,7.0501 l -1.513,8.3622 c -0.4934,2.7055 -1.0017,4.8843 -1.5341,6.5384 -0.5323,1.6522 -1.2959,2.9653 -2.2886,3.9344 -0.9977,0.971 -2.3106,1.4555 -3.9477,1.4555 h -5.4368 v -19.3064 c 0,-2.1036 0.1511,-3.6354 0.4483,-4.5924 0.2992,-0.956 0.8736,-1.611 1.7172,-1.9662 0.8466,-0.3561 2.2096,-0.5757 4.0899,-0.657 v -1.6803 c -2.9711,0.1645 -7.183,0.2458 -12.6368,0.2458 -5.9702,0 -10.3712,-0.0813 -13.2052,-0.2458 v 1.6803 c 1.8523,0.0813 3.1992,0.3009 4.0458,0.657 0.8446,0.3552 1.423,1.0102 1.7372,1.9662 0.3133,0.957 0.4724,2.4888 0.4724,4.5924 v 41.6463 c 0,2.1046 -0.1591,3.6364 -0.4724,4.5914 -0.3142,0.958 -0.8926,1.6121 -1.7372,1.9672 -0.8466,0.3561 -2.1935,0.5758 -4.0458,0.656 v 1.6813 c 2.834,-0.1635 7.0729,-0.2468 12.7139,-0.2468 2.2365,0 4.7202,0.0291 7.4451,0.0833 2.7239,0.0541 4.6172,0.0822 5.683,0.0822 7.6853,0 13.4823,-1.2649 17.377,-3.7918 3.8997,-2.529 5.8491,-6.1292 5.8491,-10.8008 0,-2.4878 -0.5854,-4.8512 -1.7582,-7.0943 -1.1718,-2.239 -3.1612,-4.186 -5.9702,-5.8382 -2.8099,-1.6542 -6.5145,-2.7557 -11.1207,-3.3004 h 0.0791 c 3.3793,-0.3019 6.1552,-0.8747 8.3237,-1.7223 2.1675,-0.8477 3.8637,-2.0304 5.0906,-3.5451 1.2268,-1.5178 2.0834,-3.4509 2.5757,-5.8012 l 1.9234,-8.6501 c 0.4623,-2.2671 0.9847,-3.84 1.5741,-4.7137 0.5854,-0.8748 1.4089,-1.3121 2.4727,-1.3121 0.6544,0.027 1.2268,0.1906 1.7172,0.4925 0.4913,0.3009 1.0357,0.7794 1.6341,1.4335 l 1.1458,-1.0242 c -1.5251,-1.7214 -3.1532,-2.9653 -4.8864,-3.7297" />
      <path
         inkscape:connector-curvature="0"
         id="path322"
         style="fill:#231f20;fill-opacity:1;fill-rule:nonzero;stroke:none"
         d="m 462.6536,459.3079 c -0.8406,-0.3551 -1.417,-1.0092 -1.7142,-1.9672 -0.3022,-0.956 -0.4503,-2.4868 -0.4503,-4.5914 V 411.103 c 0,-2.1046 0.1481,-3.6354 0.4503,-4.5934 0.2972,-0.955 0.8736,-1.61 1.7142,-1.9652 0.8476,-0.3561 2.2106,-0.5758 4.0909,-0.657 v -1.6803 c -2.9721,0.1645 -7.182,0.2448 -12.6348,0.2448 -5.9672,0 -10.3742,-0.0803 -13.2092,-0.2448 v 1.6803 c 1.8543,0.0812 3.2052,0.3009 4.0498,0.657 0.8466,0.3552 1.423,1.0102 1.7373,1.9652 0.3132,0.958 0.4683,2.4888 0.4683,4.5934 v 41.6463 c 0,2.1046 -0.1551,3.6354 -0.4683,4.5914 -0.3143,0.958 -0.8907,1.6121 -1.7373,1.9672 -0.8446,0.3551 -2.1955,0.5758 -4.0498,0.656 v 1.6813 c 2.807,-0.1635 7.21,-0.2478 13.2092,-0.2478 5.4528,0 9.6627,0.0843 12.6348,0.2478 v -1.6813 c -1.8803,-0.0802 -3.2433,-0.3009 -4.0909,-0.656" />
      <path
         inkscape:connector-curvature="0"
         id="path324"
         style="fill:#231f20;fill-opacity:1;fill-rule:nonzero;stroke:none"
         d="m 491.4841,449.061 -8.668,-22.67 h 16.9688 z m 31.732,-43.8412 c 0.9276,-0.8347 1.8533,-1.2781 2.784,-1.3322 v -1.6813 c -3.3544,0.1655 -7.5953,0.2458 -12.7179,0.2458 -5.727,0 -9.9659,-0.0803 -12.7198,-0.2458 v 1.6813 c 2.0985,0.0812 3.6045,0.3431 4.5202,0.7784 0.9126,0.4374 1.3689,1.2028 1.3689,2.2962 0,0.8456 -0.3433,2.1718 -1.0207,3.9755 l -5.0305,13.772 h -18.2387 l -2.2095,-5.779 c -1.5231,-3.9344 -2.2886,-7.0501 -2.2886,-9.3463 0,-2.0745 0.6134,-3.525 1.8403,-4.3446 1.2248,-0.8186 3.0811,-1.271 5.5608,-1.3522 v -1.6813 c -3.7636,0.1655 -7.222,0.2458 -10.3852,0.2458 -2.5627,0 -4.6892,-0.0803 -6.3804,-0.2458 v 1.6813 c 2.7819,0.4644 5.1786,3.4026 7.198,8.8126 l 19.0953,49.1087 c 0.8996,-0.0813 1.8682,-0.1224 2.904,-0.1224 1.0897,0 2.0574,0.0411 2.904,0.1224 l 20.3221,-52.5515 c 0.7385,-1.8578 1.5691,-3.203 2.4937,-4.0376" />
      <path
         inkscape:connector-curvature="0"
         id="path326"
         style="fill:#231f20;fill-opacity:1;fill-rule:nonzero;stroke:none"
         d="m 184.8393,363.247 c 0.1891,-0.5929 0.5513,-1.0052 1.0767,-1.2409 0.5264,-0.2347 1.3119,-0.3531 2.3677,-0.3531 3.5224,0 6.2903,0.64 8.2957,1.922 2.0064,1.281 3.4174,3.1499 4.2329,5.6065 0.8166,2.4557 1.2269,5.5896 1.2269,9.3995 0,3.827 -0.4463,6.9437 -1.3349,9.3513 -0.8896,2.4085 -2.3407,4.2071 -4.354,5.3988 -2.0145,1.1928 -4.7213,1.7876 -8.1177,1.7876 -1.0347,0 -1.8092,-0.1173 -2.3286,-0.3531 -0.5174,-0.2337 -0.8756,-0.652 -1.0647,-1.2509 -0.1982,-0.5998 -0.2952,-1.4917 -0.2952,-2.6764 v -24.9049 c 0,-1.1998 0.097,-2.0956 0.2952,-2.6864 m -4.0789,32.603 1.2149,0.0231 c 4.5591,0.0973 7.0619,0.1465 7.4962,0.1465 5.854,0 10.2411,-1.4666 13.1601,-4.4028 2.921,-2.9342 4.381,-7.2146 4.381,-12.8412 0,-3.6163 -0.7084,-6.7823 -2.1214,-9.4987 -1.42,-2.7156 -3.4744,-4.8151 -6.1763,-6.2978 -2.7019,-1.4836 -5.9261,-2.2259 -9.6777,-2.2259 -0.4553,0 -1.5321,0.0241 -3.2403,0.0742 -1.7092,0.0471 -2.948,0.0732 -3.7236,0.0732 -2.7188,0 -4.7733,-0.0501 -6.1622,-0.1474 v 0.9971 c 1.1938,0.0491 2.0644,0.1786 2.6068,0.3892 0.5394,0.2107 0.9116,0.5989 1.1168,1.1687 0.2011,0.5667 0.3022,1.4746 0.3022,2.7225 v 24.7103 c 0,1.249 -0.1011,2.1578 -0.3022,2.7246 -0.2052,0.5678 -0.5774,0.957 -1.1168,1.1676 -0.5424,0.2097 -1.413,0.3391 -2.6068,0.3892 v 0.9972 c 1.7762,-0.1134 3.3933,-0.1696 4.8493,-0.1696" />
      <path
         inkscape:connector-curvature="0"
         id="path328"
         style="fill:#231f20;fill-opacity:1;fill-rule:nonzero;stroke:none"
         d="m 236.8544,367.1253 c 0,-1.8799 0.114,-4.0045 0.3412,-6.3719 -2.2485,0.0973 -6.0402,0.1464 -11.3809,0.1464 -6.3544,0 -11.1627,-0.0491 -14.411,-0.1464 v 0.9971 c 1.1978,0.0481 2.0654,0.1775 2.6068,0.3892 0.5444,0.2107 0.9167,0.5989 1.1188,1.1676 0.2011,0.5678 0.3012,1.4757 0.3012,2.7236 v 24.7103 c 0,1.2489 -0.1001,2.1568 -0.3012,2.7246 -0.2021,0.5677 -0.5744,0.956 -1.1188,1.1676 -0.5414,0.2097 -1.409,0.3391 -2.6068,0.3892 v 0.9971 c 3.2483,-0.0972 8.0566,-0.1464 14.411,-0.1464 4.8684,0 8.3308,0.0492 10.3852,0.1464 -0.2261,-2.1727 -0.3402,-4.1339 -0.3402,-5.8854 0,-1.297 0.047,-2.3273 0.1451,-3.0907 h -1.1408 c -0.2412,2.1578 -0.5484,3.7628 -0.9076,4.8161 -0.3623,1.0543 -0.9797,1.8207 -1.8423,2.2982 -0.8686,0.4795 -2.1755,0.7183 -3.9207,0.7183 h -4.1259 c -1.1958,0 -2.0644,-0.0983 -2.6088,-0.2929 -0.5414,-0.1947 -0.9136,-0.5698 -1.1148,-1.1286 -0.2021,-0.5607 -0.3012,-1.4646 -0.3012,-2.7135 v -11.7457 h 3.2943 c 1.6661,0 2.7769,0.4975 3.3263,1.4946 0.5514,0.9972 0.8886,2.0154 1.0177,3.0526 0.1291,1.0362 0.2192,1.7104 0.2692,2.0183 h 1.1388 c -0.1151,-1.6381 -0.1671,-3.202 -0.1671,-4.6947 l 0.023,-2.3835 c 0,-1.6842 0.0961,-4.0446 0.2912,-7.0771 h -1.1408 c -0.03,0.2277 -0.1241,1.0312 -0.2792,2.4075 -0.1541,1.3794 -0.6014,2.4216 -1.3459,3.1258 -0.7466,0.7052 -1.7873,1.0583 -3.1332,1.0583 h -3.2943 v -11.9664 c 0,-1.2479 0.0991,-2.1528 0.3012,-2.7115 0.2012,-0.5598 0.5734,-0.937 1.1148,-1.1316 0.5444,-0.1945 1.413,-0.2919 2.6088,-0.2919 h 3.6395 c 2.0715,0 3.6445,0.2769 4.7223,0.8276 1.0738,0.5518 1.8503,1.4355 2.3276,2.6513 0.4774,1.2158 0.8446,2.9994 1.1028,5.3498 h 1.1398 c -0.0951,-0.8908 -0.1451,-2.0906 -0.1451,-3.5993" />
      <path
         inkscape:connector-curvature="0"
         id="path330"
         style="fill:#231f20;fill-opacity:1;fill-rule:nonzero;stroke:none"
         d="m 251.7163,394.6333 c -0.5444,-0.2106 -0.9137,-0.5999 -1.1168,-1.1676 -0.2032,-0.5668 -0.3012,-1.4756 -0.3012,-2.7246 v -24.7103 c 0,-1.2479 0.098,-2.1527 0.3012,-2.7115 0.2031,-0.5587 0.5724,-0.9359 1.1168,-1.1315 0.5423,-0.1946 1.4129,-0.292 2.6068,-0.292 h 3.6415 c 2.0684,0 3.6415,0.292 4.7153,0.8758 1.0767,0.5838 1.8523,1.5168 2.3296,2.7978 0.4793,1.281 0.8456,3.1619 1.1067,5.6416 h 1.1388 c -0.098,-1.0372 -0.1471,-2.3995 -0.1471,-4.0858 0,-1.8799 0.1161,-4.0045 0.3433,-6.3719 -2.2506,0.0973 -6.0432,0.1474 -11.3839,0.1474 -6.3554,0 -11.1578,-0.0501 -14.41,-0.1474 v 0.9971 c 1.1988,0.0492 2.0664,0.1775 2.6088,0.3892 0.5434,0.2107 0.9136,0.5989 1.1188,1.1677 0.2021,0.5678 0.2982,1.4756 0.2982,2.7235 v 24.7103 c 0,1.249 -0.0961,2.1578 -0.2982,2.7246 -0.2052,0.5677 -0.5754,0.957 -1.1188,1.1676 -0.5424,0.2097 -1.41,0.3391 -2.6088,0.3893 v 0.9971 c 1.3749,-0.0973 3.4924,-0.1465 6.3574,-0.1465 2.6859,0 4.7863,0.0492 6.3084,0.1465 v -0.9971 c -1.1939,-0.0502 -2.0645,-0.1796 -2.6068,-0.3893" />
      <path
         inkscape:connector-curvature="0"
         id="path332"
         style="fill:#231f20;fill-opacity:1;fill-rule:nonzero;stroke:none"
         d="m 280.924,394.6333 c -0.5383,-0.2106 -0.9106,-0.5999 -1.1117,-1.1676 -0.2032,-0.5668 -0.3062,-1.4756 -0.3062,-2.7246 v -24.7103 c 0,-1.2479 0.103,-2.1557 0.3062,-2.7235 0.2011,-0.5688 0.5734,-0.957 1.1117,-1.1677 0.5444,-0.2117 1.413,-0.34 2.6109,-0.3892 v -0.9971 c -1.5221,0.0973 -3.6246,0.1474 -6.3094,0.1474 -2.847,0 -4.9645,-0.0501 -6.3554,-0.1474 v 0.9971 c 1.1958,0.0492 2.0684,0.1775 2.6098,0.3892 0.5404,0.2107 0.9126,0.5989 1.1147,1.1677 0.2012,0.5678 0.3013,1.4756 0.3013,2.7235 v 24.7103 c 0,1.249 -0.1001,2.1578 -0.3013,2.7246 -0.2021,0.5677 -0.5743,0.957 -1.1147,1.1676 -0.5414,0.2097 -1.414,0.3391 -2.6098,0.3893 v 0.9971 c 1.3739,-0.0973 3.4934,-0.1465 6.3554,-0.1465 2.6848,0 4.7873,0.0492 6.3094,0.1465 v -0.9971 c -1.1979,-0.0502 -2.0665,-0.1796 -2.6109,-0.3893" />
      <path
         inkscape:connector-curvature="0"
         id="path334"
         style="fill:#231f20;fill-opacity:1;fill-rule:nonzero;stroke:none"
         d="m 315.5843,362.8208 c 0.6785,-0.4704 1.5221,-0.8275 2.5237,-1.0703 v -0.9971 c -1.5691,0.0973 -3.5504,0.1464 -5.9441,0.1464 -1.7982,0 -3.5024,-0.0491 -5.1205,-0.1464 v 0.9971 c 0.7775,0.0321 1.3509,0.1304 1.7241,0.2919 0.3733,0.1625 0.5594,0.4143 0.5594,0.7544 0,0.3079 -0.1701,0.7052 -0.5133,1.1927 l -7.25,10.9673 c -0.6635,1.0222 -1.2389,1.7756 -1.7252,2.2631 -0.4864,0.4865 -0.9837,0.8216 -1.4911,1.0082 -0.5133,0.1865 -1.1758,0.3039 -2.0034,0.3521 v -12.5493 c 0,-1.2479 0.1001,-2.1558 0.3052,-2.7236 0.2012,-0.5687 0.5715,-0.9569 1.1148,-1.1676 0.5424,-0.2117 1.413,-0.3411 2.6068,-0.3892 v -0.9971 c -1.518,0.0973 -3.6215,0.1464 -6.3063,0.1464 -2.848,0 -4.9685,-0.0491 -6.3554,-0.1464 v 0.9971 c 1.1968,0.0481 2.0654,0.1775 2.6068,0.3892 0.5433,0.2107 0.9156,0.5989 1.1167,1.1676 0.2032,0.5678 0.3032,1.4757 0.3032,2.7236 v 24.7103 c 0,1.2489 -0.1,2.1568 -0.3032,2.7246 -0.2011,0.5677 -0.5734,0.956 -1.1167,1.1676 -0.5414,0.2097 -1.41,0.3391 -2.6068,0.3892 v 0.9971 c 1.3729,-0.0972 3.4944,-0.1464 6.3554,-0.1464 2.6848,0 4.7883,0.0492 6.3063,0.1464 v -0.9971 c -1.1938,-0.0501 -2.0644,-0.1795 -2.6068,-0.3892 -0.5433,-0.2116 -0.9136,-0.5999 -1.1148,-1.1676 -0.2051,-0.5678 -0.3052,-1.4757 -0.3052,-2.7246 v -11.1629 c 2.4127,0.0973 4.301,1.0292 5.678,2.7967 l 4.7563,6.0811 c 1.7012,2.1547 2.5487,3.7447 2.5487,4.7669 0,1.1506 -1.0307,1.7495 -3.0811,1.7996 v 0.9971 c 1.8903,-0.0972 3.7916,-0.1464 5.7,-0.1464 1.8412,0 3.2572,0.0492 4.2449,0.1464 v -0.9971 c -1.0998,-0.1635 -2.1315,-0.5196 -3.0931,-1.0713 -0.9597,-0.5518 -1.8873,-1.4014 -2.778,-2.554 l -8.1046,-10.4086 11.527,-16.1977 c 0.5484,-0.8416 1.1628,-1.4997 1.8423,-1.9702" />
      <path
         inkscape:connector-curvature="0"
         id="path336"
         style="fill:#231f20;fill-opacity:1;fill-rule:nonzero;stroke:none"
         d="m 332.0586,389.9629 -5.702,-14.8595 h 11.2578 z m 17.7363,-28.2133 v -0.9962 c -1.3599,0.0974 -3.1382,0.1465 -5.3367,0.1465 -2.832,0 -4.9514,-0.0491 -6.3554,-0.1465 v 0.9962 c 1.2589,0.0491 2.1625,0.2036 2.7019,0.4624 0.5423,0.2588 0.8125,0.7223 0.8125,1.3874 0,0.5667 -0.1931,1.3452 -0.5824,2.3333 l -3.0561,8.1726 h -11.9863 l -2.0384,-5.2766 c -0.6615,-1.6873 -0.9927,-3.0485 -0.9927,-4.0868 0,-1.0532 0.3512,-1.8076 1.0547,-2.262 0.7045,-0.4534 1.7923,-0.6972 3.2623,-0.7303 v -0.9962 c -1.8934,0.0974 -3.7997,0.1465 -5.727,0.1465 -1.487,0 -2.7239,-0.0491 -3.7096,-0.1465 v 0.9962 c 1.6502,0.3731 2.9501,1.8167 3.9047,4.3295 l 11.6962,30.1835 h 0.7995 l 12.1054,-31.326 c 0.8086,-2.0595 1.9594,-3.1208 3.4474,-3.187" />
      <path
         inkscape:connector-curvature="0"
         id="path338"
         style="fill:#231f20;fill-opacity:1;fill-rule:nonzero;stroke:none"
         d="m 348.7743,389.646 c 0,1.9461 -0.1211,4.0707 -0.3612,6.374 2.7479,-0.0974 7.4221,-0.1465 14.0217,-0.1465 6.5506,0 11.2018,0.0491 13.9497,0.1465 -0.2272,-2.3675 -0.3392,-4.4921 -0.3392,-6.374 0,-1.6692 0.05,-3.0305 0.144,-4.0848 h -1.1397 c -0.2582,2.5781 -0.5845,4.487 -0.9807,5.7269 -0.3963,1.2409 -1.0928,2.1488 -2.0895,2.7256 -0.9937,0.5748 -2.5137,0.8627 -4.5692,0.8627 h -2.6938 v -28.3347 c 0,-1.3773 0.1281,-2.3865 0.3872,-3.0275 0.2592,-0.64 0.7256,-1.0814 1.409,-1.3272 0.6765,-0.2407 1.7522,-0.3882 3.2253,-0.4373 v -0.9961 c -1.7493,0.0973 -4.1819,0.1464 -7.3031,0.1464 -3.3193,0 -5.766,-0.0491 -7.3501,-0.1464 v 0.9961 c 1.47,0.0491 2.5478,0.1966 3.2242,0.4373 0.6795,0.2458 1.1498,0.6872 1.409,1.3272 0.2592,0.641 0.3893,1.6502 0.3893,3.0275 v 28.3347 h -2.6919 c -2.0564,0 -3.5835,-0.2879 -4.5772,-0.8627 -0.9926,-0.5768 -1.6891,-1.4847 -2.0854,-2.7256 -0.3983,-1.2399 -0.7255,-3.1488 -0.9837,-5.7269 h -1.1398 c 0.0991,1.0543 0.1451,2.4156 0.1451,4.0848" />
      <path
         inkscape:connector-curvature="0"
         id="path340"
         style="fill:#231f20;fill-opacity:1;fill-rule:nonzero;stroke:none"
         d="m 405.3771,367.1253 c 0,-1.8799 0.114,-4.0045 0.3412,-6.3719 -2.2506,0.0973 -6.0412,0.1464 -11.3809,0.1464 -6.3554,0 -11.1597,-0.0491 -14.41,-0.1464 v 0.9971 c 1.1949,0.0481 2.0665,0.1775 2.6078,0.3892 0.5424,0.2107 0.9147,0.5989 1.1168,1.1676 0.2031,0.5678 0.3032,1.4757 0.3032,2.7236 v 24.7103 c 0,1.2489 -0.1001,2.1568 -0.3032,2.7246 -0.2021,0.5677 -0.5744,0.956 -1.1168,1.1676 -0.5413,0.2097 -1.4129,0.3391 -2.6078,0.3892 v 0.9971 c 3.2503,-0.0972 8.0546,-0.1464 14.41,-0.1464 4.8704,0 8.3328,0.0492 10.3872,0.1464 -0.2281,-2.1727 -0.3432,-4.1339 -0.3432,-5.8854 0,-1.297 0.052,-2.3273 0.1461,-3.0907 h -1.1368 c -0.2452,2.1578 -0.5484,3.7628 -0.9116,4.8161 -0.3643,1.0543 -0.9797,1.8207 -1.8443,2.2982 -0.8656,0.4795 -2.1695,0.7183 -3.9167,0.7183 h -4.1259 c -1.1938,0 -2.0664,-0.0983 -2.6068,-0.2929 -0.5434,-0.1947 -0.9137,-0.5698 -1.1178,-1.1286 -0.2031,-0.5607 -0.3042,-1.4646 -0.3042,-2.7135 v -11.7457 h 3.3003 c 1.6661,0 2.7759,0.4975 3.3253,1.4946 0.5514,0.9972 0.8896,2.0154 1.0167,3.0526 0.1311,1.0362 0.2212,1.7104 0.2692,2.0183 h 1.1368 c -0.1101,-1.6381 -0.1681,-3.202 -0.1681,-4.6947 l 0.024,-2.3835 c 0,-1.6842 0.1001,-4.0446 0.2932,-7.0771 H 396.62 c -0.033,0.2277 -0.1261,1.0312 -0.2792,2.4075 -0.1541,1.3794 -0.6004,2.4216 -1.3459,3.1258 -0.7436,0.7052 -1.7863,1.0583 -3.1312,1.0583 h -3.3003 v -11.9664 c 0,-1.2479 0.1011,-2.1528 0.3042,-2.7115 0.2041,-0.5598 0.5744,-0.937 1.1178,-1.1316 0.5404,-0.1945 1.413,-0.2919 2.6068,-0.2919 h 3.6375 c 2.0715,0 3.6446,0.2769 4.7223,0.8276 1.0738,0.5518 1.8493,1.4355 2.3296,2.6513 0.4744,1.2158 0.8426,2.9994 1.0998,5.3498 h 1.1408 c -0.0971,-0.8908 -0.1451,-2.0906 -0.1451,-3.5993" />
      <path
         inkscape:connector-curvature="0"
         id="path342"
         style="fill:#231f20;fill-opacity:1;fill-rule:nonzero;stroke:none"
         d="m 415.0361,364.1698 c 1.425,-2.0836 3.6115,-3.1248 6.5725,-3.1248 1.1338,0 2.1885,0.2347 3.1692,0.7052 0.9767,0.4705 1.7713,1.2048 2.3747,2.2009 0.6084,0.9971 0.9136,2.242 0.9136,3.7337 0,1.281 -0.3142,2.4286 -0.9396,3.4418 -0.6185,1.0141 -1.463,1.942 -2.5318,2.7836 -1.0697,0.8437 -2.4927,1.8007 -4.2719,2.871 -1.9744,1.1838 -3.5575,2.2461 -4.7524,3.186 -1.1998,0.942 -2.1815,2.0625 -2.952,3.3675 -0.7655,1.3071 -1.1488,2.843 -1.1488,4.6085 0,1.8829 0.4253,3.4709 1.2739,4.7679 0.8486,1.2981 1.9793,2.2671 3.3943,2.9081 1.414,0.639 2.9721,0.959 4.6703,0.959 1.0197,0 1.8983,-0.0852 2.6358,-0.2548 0.7345,-0.1695 1.3439,-0.3802 1.8303,-0.633 0.4843,-0.2508 1.0167,-0.5707 1.5991,-0.96 0.7445,-0.4705 1.3099,-0.7062 1.6991,-0.7062 0.3063,0 0.5424,0.1756 0.7026,0.5226 0.1611,0.3501 0.2902,0.9049 0.3902,1.6673 h 1.1408 c -0.1641,-1.9451 -0.2451,-5.3357 -0.2451,-10.1659 H 429.42 c -0.127,1.7014 -0.4963,3.2743 -1.1007,4.7178 -0.6074,1.4435 -1.4961,2.6132 -2.6729,3.514 -1.1678,0.9008 -2.6278,1.3502 -4.379,1.3502 -1.1648,0 -2.2045,-0.2437 -3.1252,-0.7292 -0.9246,-0.4875 -1.6451,-1.1687 -2.1615,-2.0424 -0.5173,-0.8768 -0.7755,-1.8809 -0.7755,-3.0185 0,-1.7976 0.5394,-3.2502 1.6251,-4.3526 1.0838,-1.1025 2.3487,-2.0956 3.7956,-2.9783 1.4501,-0.8838 2.4217,-1.4797 2.9251,-1.7876 2.0864,-1.3141 3.7356,-2.4527 4.9474,-3.4177 1.2149,-0.965 2.1855,-2.0825 2.912,-3.3565 0.7255,-1.272 1.0908,-2.7526 1.0908,-4.4379 0,-2.0434 -0.4663,-3.7738 -1.404,-5.1933 -0.9396,-1.4184 -2.2045,-2.4847 -3.7996,-3.198 -1.5921,-0.7142 -3.3724,-1.0693 -5.3497,-1.0693 -1.5851,0 -2.885,0.1665 -3.9047,0.4985 -1.0207,0.3321 -1.9814,0.7815 -2.888,1.3483 -0.7435,0.4714 -1.31,0.7072 -1.6992,0.7072 -0.3032,0 -0.5414,-0.1746 -0.7035,-0.5237 -0.1601,-0.3501 -0.2872,-0.9038 -0.3873,-1.6662 h -1.1398 c 0.1311,1.8157 0.1922,5.7962 0.1922,11.9414 h 1.1437 c 0.2262,-3.3726 1.0518,-6.1001 2.4748,-8.1846" />
      <path
         inkscape:connector-curvature="0"
         id="path344"
         style="fill:#231f20;fill-opacity:1;fill-rule:nonzero;stroke:none"
         d="m 441.8711,364.1698 c 1.421,-2.0836 3.6115,-3.1248 6.5726,-3.1248 1.1317,0 2.1885,0.2347 3.1692,0.7052 0.9746,0.4705 1.7692,1.2048 2.3746,2.2009 0.6044,0.9971 0.9116,2.242 0.9116,3.7337 0,1.281 -0.3132,2.4286 -0.9376,3.4418 -0.6224,1.0141 -1.467,1.942 -2.5328,2.7836 -1.0687,0.8437 -2.4937,1.8007 -4.2729,2.871 -1.9744,1.1838 -3.5565,2.2461 -4.7523,3.186 -1.1959,0.942 -2.1796,2.0625 -2.9521,3.3675 -0.7655,1.3071 -1.1478,2.843 -1.1478,4.6085 0,1.8829 0.4243,3.4709 1.2719,4.7679 0.8476,1.2981 1.9824,2.2671 3.3964,2.9081 1.4149,0.639 2.971,0.959 4.6702,0.959 1.0167,0 1.8993,-0.0852 2.6328,-0.2548 0.7365,-0.1695 1.3459,-0.3802 1.8323,-0.633 0.4863,-0.2508 1.0187,-0.5707 1.5991,-0.96 0.7465,-0.4705 1.3119,-0.7062 1.6992,-0.7062 0.3072,0 0.5423,0.1756 0.7035,0.5226 0.1621,0.3501 0.2892,0.9049 0.3892,1.6673 h 1.1428 c -0.1641,-1.9451 -0.2451,-5.3357 -0.2451,-10.1659 h -1.1428 c -0.1291,1.7014 -0.4964,3.2743 -1.1008,4.7178 -0.6064,1.4435 -1.498,2.6132 -2.6678,3.514 -1.1749,0.9008 -2.6309,1.3502 -4.3821,1.3502 -1.1648,0 -2.2065,-0.2437 -3.1261,-0.7292 -0.9257,-0.4875 -1.6442,-1.1687 -2.1625,-2.0424 -0.5194,-0.8768 -0.7756,-1.8809 -0.7756,-3.0185 0,-1.7976 0.5414,-3.2502 1.6251,-4.3526 1.0858,-1.1025 2.3487,-2.0956 3.7957,-2.9783 1.45,-0.8838 2.4237,-1.4797 2.927,-1.7876 2.0835,-1.3141 3.7356,-2.4527 4.9474,-3.4177 1.2149,-0.965 2.1835,-2.0825 2.91,-3.3565 0.7275,-1.272 1.0928,-2.7526 1.0928,-4.4379 0,-2.0434 -0.4673,-3.7738 -1.4039,-5.1933 -0.9417,-1.4184 -2.2056,-2.4847 -3.8007,-3.198 -1.5951,-0.7142 -3.3733,-1.0693 -5.3487,-1.0693 -1.5871,0 -2.887,0.1665 -3.9047,0.4985 -1.0207,0.3321 -1.9834,0.7815 -2.89,1.3483 -0.7445,0.4714 -1.3099,0.7072 -1.6972,0.7072 -0.3072,0 -0.5414,-0.1746 -0.7055,-0.5237 -0.1601,-0.3501 -0.2892,-0.9038 -0.3873,-1.6662 h -1.1377 c 0.129,1.8157 0.1901,5.7962 0.1901,11.9414 h 1.1438 c 0.2261,-3.3726 1.0517,-6.1001 2.4767,-8.1846" />
      <path
         inkscape:connector-curvature="0"
         id="path346"
         style="fill:#231f20;fill-opacity:1;fill-rule:nonzero;stroke:none"
         d="m 489.2991,367.1253 c 0,-1.8799 0.1151,-4.0045 0.3432,-6.3719 -2.2505,0.0973 -6.0422,0.1464 -11.3829,0.1464 -6.3554,0 -11.1577,-0.0491 -14.412,-0.1464 v 0.9971 c 1.1979,0.0481 2.0685,0.1775 2.6098,0.3892 0.5444,0.2107 0.9167,0.5989 1.1188,1.1676 0.2011,0.5678 0.3012,1.4757 0.3012,2.7236 v 24.7103 c 0,1.2489 -0.1001,2.1568 -0.3012,2.7246 -0.2021,0.5677 -0.5744,0.956 -1.1188,1.1676 -0.5413,0.2097 -1.4119,0.3391 -2.6098,0.3892 v 0.9971 c 3.2543,-0.0972 8.0566,-0.1464 14.412,-0.1464 4.8684,0 8.3318,0.0492 10.3852,0.1464 -0.2261,-2.1727 -0.3382,-4.1339 -0.3382,-5.8854 0,-1.297 0.045,-2.3273 0.1451,-3.0907 h -1.1398 c -0.2432,2.1578 -0.5474,3.7628 -0.9096,4.8161 -0.3633,1.0543 -0.9807,1.8207 -1.8433,2.2982 -0.8656,0.4795 -2.1755,0.7183 -3.9207,0.7183 h -4.1219 c -1.1978,0 -2.0664,-0.0983 -2.6108,-0.2929 -0.5394,-0.1947 -0.9136,-0.5698 -1.1138,-1.1286 -0.2031,-0.5607 -0.3052,-1.4646 -0.3052,-2.7135 v -11.7457 h 3.3023 c 1.6631,0 2.7689,0.4975 3.3203,1.4946 0.5534,0.9972 0.8916,2.0154 1.0207,3.0526 0.1291,1.0362 0.2192,1.7104 0.2672,2.0183 h 1.1388 c -0.1101,-1.6381 -0.1691,-3.202 -0.1691,-4.6947 l 0.024,-2.3835 c 0,-1.6842 0.0991,-4.0446 0.2912,-7.0771 h -1.1398 c -0.032,0.2277 -0.1241,1.0312 -0.2802,2.4075 -0.1531,1.3794 -0.5994,2.4216 -1.3449,3.1258 -0.7466,0.7052 -1.7863,1.0583 -3.1282,1.0583 h -3.3023 v -11.9664 c 0,-1.2479 0.1021,-2.1528 0.3052,-2.7115 0.2002,-0.5598 0.5744,-0.937 1.1138,-1.1316 0.5444,-0.1945 1.413,-0.2919 2.6108,-0.2919 h 3.6375 c 2.0695,0 3.6426,0.2769 4.7203,0.8276 1.0727,0.5518 1.8503,1.4355 2.3296,2.6513 0.4773,1.2158 0.8426,2.9994 1.1028,5.3498 h 1.1378 c -0.0951,-0.8908 -0.1451,-2.0906 -0.1451,-3.5993" />
      <path
         inkscape:connector-curvature="0"
         id="path348"
         style="fill:#231f20;fill-opacity:1;fill-rule:nonzero;stroke:none"
         d="m 522.7461,394.5241 c -0.5564,-0.2839 -0.9426,-0.7504 -1.1508,-1.3994 -0.2141,-0.648 -0.3172,-1.613 -0.3172,-2.8951 v -29.719 h -1.1408 l -20.8655,32.3232 v -26.2923 c 0,-1.28 0.1151,-2.2451 0.3393,-2.8951 0.2271,-0.648 0.6514,-1.1135 1.2738,-1.3973 0.6235,-0.2829 1.5891,-0.4505 2.9,-0.4986 v -0.9971 c -1.1818,0.0973 -2.8689,0.1464 -5.0695,0.1464 -1.9753,0 -3.5094,-0.0491 -4.6122,-0.1464 v 0.9971 c 1.1498,0.0481 2.0024,0.2157 2.5628,0.4986 0.5554,0.2838 0.9426,0.7493 1.1478,1.3973 0.2121,0.65 0.3172,1.6151 0.3172,2.8951 v 24.1997 c 0,1.2489 -0.1001,2.1568 -0.3002,2.7246 -0.2031,0.5677 -0.5774,0.956 -1.1188,1.1676 -0.5403,0.2097 -1.4109,0.3391 -2.6088,0.3892 v 0.9971 c 1.0838,-0.0972 2.6218,-0.1464 4.6122,-0.1464 1.4831,0 2.779,0.0492 3.8807,0.1464 l 17.5412,-27.0937 v 21.3036 c 0,1.2821 -0.1091,2.2471 -0.3282,2.8951 -0.2182,0.649 -0.6425,1.1155 -1.2739,1.3994 -0.6315,0.2829 -1.6001,0.4484 -2.91,0.4985 v 0.9971 c 1.1808,-0.0972 2.871,-0.1464 5.0705,-0.1464 1.9723,0 3.5094,0.0492 4.6092,0.1464 v -0.9971 c -1.1488,-0.0501 -2.0024,-0.2156 -2.5588,-0.4985" />
    </g>
  </g>
</svg>
