<svg xmlns="http://www.w3.org/2000/svg" width="400" height="323.864"><defs><clipPath id="a"><path d="M0 0h612v792H0V0z"/></clipPath></defs><g clip-path="url(#a)" transform="matrix(5.4 0 0 -5.4 -234.8 3191.9)"><path d="M114.106 563.27c-.088.575-.59.79-1.492.776H92v19.216l-7.663 4.5v-24.19s-.242-1.472 1.094-1.472h27.184s1.7-.236 1.492 1.17M44.844 563.27c.084.575.58.79 1.496.776h20.6v19.216l7.67 4.5v-24.19s.244-1.472-1.097-1.472H46.34s-1.694-.236-1.496 1.17M75.63 588.26l3.875 2.283 3.685-2.283v-24.77h-7.468l-.093 24.77zM45.767 560.38c-.58 0-1.048-.478-1.048-1.05 0-.583.468-1.047 1.047-1.047h67.348c.572 0 1.033.464 1.033 1.048 0 .572-.46 1.05-1.033 1.05H45.767z" fill="#f37816"/><path d="M46.782 543.43v-4.242h.74c1.242 0 2.07.17 2.502.505.43.33.628.8.628 1.43 0 .71-.243 1.273-.744 1.685-.505.41-1.342.623-2.51.623h-.617zm0 6.296v-3.483h.657c.72 0 1.26.164 1.61.485.354.318.54.758.54 1.313-.002.514-.18.94-.515 1.237-.327.297-.838.45-1.522.45h-.77zm-2.926-13.537v16.544h2.43c1.426 0 2.448-.1 3.107-.298.932-.258 1.67-.748 2.225-1.454.54-.72.814-1.562.814-2.523 0-.632-.13-1.2-.376-1.725-.244-.5-.65-.993-1.214-1.44.947-.467 1.636-1.06 2.074-1.763.438-.71.663-1.55.663-2.52-.002-.93-.228-1.78-.686-2.544-.453-.76-1.03-1.33-1.745-1.72-.706-.372-1.684-.56-2.942-.56h-4.353zM55.635 552.734h2.93v-16.546h-2.93v16.546zM83.872 548.332l-2.09-5.693h4.18l-2.09 5.693zm-1.5 4.4h2.992l5.956-16.543h-3.066L87.04 539.6h-6.336l-1.257-3.413h-3.074l6 16.542zM109.996 548.332l-2.087-5.693h4.17l-2.084 5.693zm-1.5 4.4h2.994l5.96-16.543h-3.082l-1.21 3.412h-6.328l-1.257-3.413H102.5l5.996 16.542zM76.685 541.182l-3.154.004c-.845-.896-1.635-1.515-2.34-1.854-.713-.35-1.49-.514-2.35-.514-1.002 0-1.912.247-2.737.728-.82.49-1.456 1.16-1.91 2.013-.438.86-.67 1.84-.67 2.935 0 1.578.512 2.908 1.524 3.993 1.008 1.077 2.263 1.62 3.737 1.62 1.758 0 3.338-.79 4.747-2.38h3.13s-.297 1.025-1.086 2.086l.02.013c-.153.187-.31.36-.47.53-.013.018-.022.027-.038.04-.75.788-1.6 1.427-2.553 1.885-1.185.576-2.42.86-3.694.86-1.505 0-2.91-.385-4.215-1.173-1.3-.782-2.305-1.804-3.003-3.083-.697-1.284-1.05-2.74-1.05-4.396 0-2.545.77-4.64 2.307-6.273 1.538-1.618 3.506-2.44 5.916-2.44 1.302 0 2.47.23 3.485.695 1.017.462 2.102 1.287 3.247 2.483l-.037.05c.865 1.084 1.195 2.177 1.195 2.177M98.893 548.748h3.04s.12 4.548-4.874 4.548c-5.013 0-5.375-5.37-4.23-7.16 1.514-2.395 4.824-2.764 5.74-3.862.927-1.098.827-3.21-1.375-3.49-2.206-.278-2.296 2.662-2.296 2.662h-3.08s-.045-5.286 5.147-5.286c5.187 0 5.57 4.284 5.417 5.795-.182 1.786-1.052 3.625-5.094 4.826-2.923.865-1.79 3.85-.374 3.85 1.472 0 1.795-.722 1.977-1.882" fill="#2e3192"/><path d="M43.7 532.157v-.988h.318c.19 0 .326.016.414.06.086.035.16.088.213.173.047.066.074.16.074.244 0 .12-.035.22-.102.31-.08.078-.186.138-.316.18-.085.01-.24.02-.457.02H43.7zm0 1.085v-.832h.147c.18 0 .312.025.397.06.083.032.143.084.196.16.05.07.078.155.078.23 0 .116-.043.22-.13.276-.083.067-.208.106-.39.106H43.7zm-.256.255h.51c.205 0 .36-.032.474-.08.11-.037.196-.113.257-.223.058-.088.088-.212.088-.333 0-.114-.015-.217-.072-.306-.055-.093-.146-.17-.252-.23.138-.052.237-.1.31-.156.073-.064.123-.143.17-.225.043-.092.06-.18.06-.276 0-.217-.078-.394-.23-.53-.14-.153-.353-.216-.607-.216h-.706v2.577zM45.42 532.826h.243v-1.904h-.243v1.904zm.125.775c.053 0 .102-.015.138-.056.04-.037.057-.088.057-.146 0-.053-.017-.094-.057-.135-.036-.044-.085-.064-.138-.064-.055 0-.108.02-.145.063-.04.04-.06.082-.06.135 0 .058.02.11.06.146.037.04.09.057.145.057M47.774 532.066c-.027.135-.08.236-.143.318-.06.07-.144.136-.253.18-.096.048-.204.07-.31.07-.192 0-.35-.06-.49-.172-.097-.087-.174-.22-.22-.396h1.417zm0-.518l.208-.102c-.062-.135-.144-.24-.235-.317-.085-.093-.188-.153-.298-.192-.114-.045-.24-.06-.377-.06-.313 0-.55.1-.72.296-.183.207-.27.43-.27.693 0 .237.07.458.22.642.177.243.437.368.754.368.32 0 .585-.132.78-.372.137-.18.205-.39.205-.655h-1.71c.007-.217.07-.4.21-.54.145-.14.303-.213.51-.213.1 0 .19.025.28.047.092.038.17.085.237.13.06.067.132.154.204.274M48.504 532.825h.244v-.344c.1.13.2.222.32.304.123.056.25.094.398.094.14 0 .262-.044.374-.12.108-.07.19-.17.235-.287.058-.124.082-.313.082-.573v-.976h-.244v.908c0 .222-.005.362-.022.438-.027.124-.08.22-.162.278-.084.067-.195.093-.318.093-.144 0-.278-.042-.393-.136-.12-.1-.2-.23-.236-.364-.023-.1-.032-.27-.032-.527v-.69h-.244v1.905zM52.292 532.066c-.037.135-.085.236-.146.318-.065.07-.147.136-.252.18-.105.048-.21.07-.32.07-.19 0-.35-.06-.486-.172-.1-.087-.17-.22-.223-.396h1.427zm0-.518l.205-.102c-.07-.135-.147-.24-.24-.317-.09-.093-.185-.153-.298-.192-.113-.045-.236-.06-.372-.06-.316 0-.556.1-.725.296-.183.207-.27.43-.27.693 0 .237.074.458.224.642.188.243.438.368.758.368s.584-.132.77-.372c.14-.18.207-.39.207-.655h-1.71c.006-.217.076-.4.216-.54.134-.14.305-.213.502-.213.1 0 .2.025.287.047.082.038.165.085.234.13.066.067.13.154.212.274M53.97 532.612l-.162-.16c-.127.132-.255.186-.38.186-.076 0-.15-.026-.207-.073-.05-.057-.084-.114-.084-.182 0-.063.032-.12.067-.182.056-.054.15-.12.308-.195.173-.095.298-.183.365-.275.06-.082.095-.184.095-.297 0-.16-.055-.29-.162-.405-.11-.102-.244-.15-.41-.15-.114 0-.22.015-.314.073-.102.034-.19.106-.25.184l.16.184c.115-.143.254-.215.394-.215.093 0 .183.03.245.104.07.058.108.128.108.218 0 .068-.027.125-.075.18-.04.063-.142.125-.3.208-.176.085-.29.173-.36.26-.055.084-.084.183-.084.302 0 .133.04.258.147.352.1.1.218.152.374.152.177 0 .353-.09.53-.268M55.396 533.497h.257v-2.576h-.257v2.577zM56.2 532.825h.245v-.344c.108.13.21.222.327.304.125.056.25.094.387.094.142 0 .277-.044.382-.12.115-.07.195-.17.248-.287.044-.124.077-.313.077-.573v-.976h-.25v.908c0 .222-.008.362-.027.438-.034.124-.086.22-.153.278-.088.067-.198.093-.326.093-.143 0-.276-.042-.394-.136-.123-.1-.197-.23-.234-.364-.015-.1-.037-.27-.037-.527v-.69H56.2v1.905zM58.38 532.825h.244v-.334c.09.12.183.212.265.268.123.076.258.12.398.12.087 0 .177-.025.254-.06.086-.034.153-.087.214-.146.047-.06.084-.144.132-.263.077.148.187.27.298.344.133.08.258.124.4.124.127 0 .246-.038.34-.112.098-.064.183-.155.228-.275.05-.116.073-.29.073-.532v-1.037h-.245v1.038c0 .202-.015.346-.038.426-.032.07-.085.135-.16.174-.066.053-.154.075-.25.075-.12 0-.22-.038-.326-.105-.1-.068-.162-.166-.212-.28-.05-.112-.073-.312-.073-.58v-.747h-.242v.972c0 .227-.015.38-.042.47-.026.076-.075.147-.145.196-.072.043-.155.075-.25.075-.12 0-.225-.034-.322-.103-.09-.07-.174-.156-.22-.275-.05-.11-.076-.293-.076-.528v-.806h-.245v1.905zM62.65 532.633c-.213 0-.38-.074-.528-.23-.147-.148-.212-.333-.212-.546 0-.13.032-.266.092-.388.064-.117.162-.205.267-.264.114-.07.244-.103.38-.103.13 0 .254.032.37.103.113.06.208.147.265.263.068.12.1.258.1.387 0 .213-.072.398-.216.545-.15.157-.32.23-.52.23m0 .246c.29 0 .54-.11.723-.324.177-.192.262-.42.262-.687 0-.263-.092-.505-.277-.7-.18-.197-.42-.29-.71-.29-.292 0-.532.093-.72.29-.178.195-.27.437-.27.7 0 .268.09.495.26.687.196.213.433.324.73.324M65.087 531.113c.14 0 .258.02.38.098.112.063.202.166.276.283.064.117.095.248.095.383 0 .132-.03.263-.095.387-.074.12-.164.215-.28.282-.118.067-.236.098-.37.098-.133 0-.256-.03-.387-.098-.12-.067-.21-.162-.273-.278-.068-.11-.096-.242-.096-.39 0-.21.07-.41.217-.542.145-.153.32-.222.533-.222m-.98-.192v2.638h.246v-1.066c.097.128.212.218.346.293.124.056.264.094.414.094.263 0 .502-.095.693-.307.19-.19.28-.427.28-.706 0-.275-.09-.514-.29-.704-.192-.193-.42-.284-.683-.284-.163 0-.304.03-.43.09-.13.067-.24.164-.33.303v-.352h-.246zM66.5 532.826h.244v-1.904H66.5v1.904zm.124.775c.046 0 .1-.015.134-.056.037-.037.063-.088.063-.146 0-.053-.025-.094-.062-.135-.033-.044-.088-.064-.134-.064-.057 0-.112.02-.155.063-.028.04-.05.082-.05.135 0 .058.022.11.05.146.042.04.097.057.154.057M67.214 533.558h.244v-2.638h-.244v2.638zM67.927 532.826h.25v-1.904h-.25v1.904zm.125.775c.053 0 .104-.015.138-.056.048-.037.065-.088.065-.146 0-.053-.017-.094-.065-.135-.034-.044-.085-.064-.138-.064-.054 0-.104.02-.134.063-.043.04-.065.082-.065.135 0 .058.022.11.065.146.03.04.08.057.134.057M69.597 532.633c-.133 0-.255-.033-.365-.104-.13-.06-.215-.156-.274-.28-.073-.115-.11-.246-.11-.383 0-.134.037-.26.11-.38.06-.125.16-.214.274-.28.11-.072.232-.11.365-.11.138 0 .263.038.388.11.114.058.204.146.273.262.07.12.093.244.093.395 0 .214-.067.402-.213.544-.144.15-.32.223-.54.223m.978.192v-1.905h-.23v.325c-.11-.117-.22-.217-.352-.275-.125-.06-.264-.092-.42-.092-.272 0-.503.092-.688.284-.192.19-.288.442-.288.714 0 .28.096.508.288.707.194.2.427.295.694.295.162 0 .305-.038.424-.11.133-.066.24-.166.34-.29v.347h.23zM71.04 532.825h.24v-.28c.088.11.157.194.25.247.074.05.165.086.25.086.064 0 .144-.028.216-.07l-.125-.21c-.05.032-.092.035-.134.035-.077 0-.152-.034-.224-.103-.082-.06-.14-.168-.173-.31-.04-.113-.06-.328-.06-.658v-.64h-.24v1.903zM72.17 532.826h.242v-1.904h-.242v1.904zm.125.775c.053 0 .096-.015.148-.056.03-.037.043-.088.043-.146 0-.053-.012-.094-.043-.135-.052-.044-.095-.064-.148-.064-.06 0-.096.02-.138.063-.04.04-.067.082-.067.135 0 .058.026.11.067.146.042.04.08.057.138.057M73.825 532.633c-.205 0-.38-.074-.528-.23-.147-.148-.21-.333-.21-.546 0-.13.026-.266.093-.388.067-.117.157-.205.272-.264.11-.07.235-.103.373-.103.132 0 .263.032.372.103.11.06.205.147.267.263.067.12.105.258.105.387 0 .213-.076.398-.227.545-.146.157-.32.23-.518.23m0 .246c.29 0 .535-.11.728-.324.173-.192.265-.42.265-.687 0-.263-.092-.505-.277-.7-.188-.197-.426-.29-.715-.29-.295 0-.528.093-.717.29-.187.195-.273.437-.273.7 0 .268.086.495.264.687.19.213.43.324.725.324M76.224 532.612l-.157-.16c-.13.132-.26.186-.38.186-.078 0-.15-.026-.205-.073-.055-.057-.09-.114-.09-.182 0-.063.028-.12.077-.182.045-.054.14-.12.293-.195.183-.095.304-.183.373-.275.063-.082.096-.184.096-.297 0-.16-.055-.29-.165-.405-.116-.102-.256-.15-.418-.15-.105 0-.21.015-.308.073-.1.034-.184.106-.255.184l.155.184c.123-.143.264-.215.4-.215.097 0 .185.03.247.104.07.058.105.128.105.218 0 .068-.016.125-.067.18-.044.063-.142.125-.314.208-.17.085-.286.173-.342.26-.067.084-.095.183-.095.302 0 .133.052.258.143.352.1.1.225.152.383.152.17 0 .348-.09.52-.268M80.084 533.013l-.2-.15c-.108.15-.247.256-.405.332-.16.07-.33.11-.52.11-.2 0-.393-.046-.565-.15-.178-.095-.315-.228-.41-.397-.092-.17-.145-.35-.145-.557 0-.31.107-.575.323-.786.217-.208.488-.317.812-.317.362 0 .67.142.91.427l.2-.162c-.123-.156-.29-.28-.474-.38-.198-.08-.408-.118-.65-.118-.447 0-.8.146-1.055.44-.224.25-.33.562-.33.92 0 .376.133.693.4.946.256.256.592.39.985.39.242 0 .463-.052.65-.143.19-.09.36-.233.474-.404M82.16 532.066c-.03.135-.08.236-.13.318-.075.07-.16.136-.255.18-.105.048-.21.07-.32.07-.192 0-.35-.06-.487-.172-.102-.087-.175-.22-.223-.396h1.415zm0-.518l.213-.102c-.067-.135-.146-.24-.235-.317-.087-.093-.19-.153-.297-.192-.116-.045-.242-.06-.378-.06-.31 0-.554.1-.73.296-.175.207-.258.43-.258.693 0 .237.07.458.222.642.19.243.436.368.753.368s.578-.132.777-.372c.138-.18.205-.39.205-.655H80.72c.007-.217.073-.4.218-.54.13-.14.305-.213.503-.213.095 0 .198.025.283.047.094.038.16.085.232.13.062.067.142.154.205.274M82.885 532.825h.255v-.344c.1.13.205.222.322.304.118.056.244.094.385.094.142 0 .273-.044.38-.12.11-.07.194-.17.245-.287.048-.124.085-.313.085-.573v-.976h-.245v.908c0 .222-.008.362-.032.438-.026.124-.085.22-.16.278-.09.067-.194.093-.322.093-.142 0-.276-.042-.394-.136-.12-.1-.2-.23-.236-.364-.025-.1-.028-.27-.028-.527v-.69h-.254v1.905zM85.283 533.528h.25v-.702h.383v-.214h-.382v-1.69h-.25v1.69h-.327v.214h.326v.702zM86.198 532.825h.245v-.28c.075.11.158.194.237.247.086.05.167.086.26.086.074 0 .145-.028.22-.07l-.138-.21c-.043.032-.087.035-.122.035-.08 0-.16-.034-.234-.103-.077-.06-.13-.168-.175-.31-.032-.113-.047-.328-.047-.658v-.64h-.245v1.903zM88.27 532.633c-.216 0-.385-.074-.533-.23-.144-.148-.214-.333-.214-.546 0-.13.035-.266.095-.388.075-.117.154-.205.28-.264.104-.07.23-.103.372-.103.133 0 .258.032.364.103.113.06.205.147.273.263.067.12.105.258.105.387 0 .213-.075.398-.227.545-.14.157-.318.23-.515.23m0 .246c.285 0 .532-.11.728-.324.173-.192.26-.42.26-.687 0-.263-.093-.505-.28-.7-.18-.197-.423-.29-.708-.29-.298 0-.533.093-.717.29-.187.195-.275.437-.275.7 0 .268.086.495.258.687.194.213.43.324.734.324M90.626 532.633c-.135 0-.256-.033-.375-.104-.11-.06-.204-.156-.276-.28-.066-.115-.103-.246-.103-.383 0-.134.038-.26.104-.38.072-.125.167-.214.277-.28.12-.072.24-.11.376-.11.132 0 .257.038.38.11.12.058.212.146.28.262.064.12.094.244.094.395 0 .214-.072.402-.217.544-.145.15-.322.223-.537.223m.978.192v-1.905h-.242v.325c-.1-.117-.216-.217-.344-.275-.127-.06-.265-.092-.42-.092-.27 0-.497.092-.69.284-.19.19-.287.442-.287.714 0 .28.1.508.297.707.188.2.413.295.687.295.16 0 .304-.038.424-.11.124-.066.24-.166.334-.29v.347h.242zM92.148 532.825h.245v-.334c.087.12.178.212.266.268.125.076.254.12.394.12.09 0 .183-.025.258-.06.088-.034.15-.087.205-.146.055-.06.106-.144.143-.263.085.148.18.27.298.344.13.08.256.124.396.124.125 0 .25-.038.34-.112.105-.064.18-.155.23-.275.053-.116.077-.29.077-.532v-1.037h-.25v1.038c0 .202-.013.346-.046.426-.025.07-.078.135-.15.174-.075.053-.147.075-.25.075-.11 0-.232-.038-.324-.105-.098-.068-.163-.166-.218-.28-.038-.112-.057-.312-.057-.58v-.747h-.25v.972c0 .227-.017.38-.048.47-.025.076-.074.147-.15.196-.064.043-.15.075-.245.075-.123 0-.227-.034-.316-.103-.108-.07-.18-.156-.23-.275-.038-.11-.073-.293-.073-.528v-.806h-.245v1.905zM97.114 532.066c-.026.135-.075.236-.135.318-.063.07-.148.136-.254.18-.1.048-.21.07-.323.07-.185 0-.344-.06-.482-.172-.095-.087-.175-.22-.222-.396h1.416zm0-.518l.21-.102c-.07-.135-.15-.24-.236-.317-.088-.093-.184-.153-.298-.192-.11-.045-.236-.06-.378-.06-.307 0-.557.1-.727.296-.173.207-.26.43-.26.693 0 .237.073.458.21.642.195.243.45.368.765.368.326 0 .584-.132.775-.372.142-.18.21-.39.21-.655h-1.707c.002-.217.067-.4.208-.54.147-.14.307-.213.51-.213.096 0 .19.025.276.047.102.038.172.085.24.13.056.067.13.154.202.274M97.752 532.825h.256v-.28c.07.11.154.194.226.247.09.05.167.086.263.086.07 0 .142-.028.214-.07l-.123-.21c-.056.032-.1.035-.134.035-.082 0-.155-.034-.228-.103-.076-.06-.146-.168-.177-.31-.03-.113-.04-.328-.04-.658v-.64h-.256v1.903zM98.882 532.826h.247v-1.904h-.248v1.904zm.117.775c.064 0 .11-.015.15-.056.038-.037.055-.088.055-.146 0-.053-.017-.094-.056-.135-.04-.044-.086-.064-.15-.064-.048 0-.103.02-.134.063-.04.04-.064.082-.064.135 0 .058.023.11.064.146.03.04.086.057.133.057M101.485 532.426l-.192-.122c-.175.225-.404.334-.69.334-.235 0-.425-.073-.577-.23-.147-.14-.226-.317-.226-.533 0-.142.033-.27.098-.39.075-.132.173-.22.29-.28.125-.07.27-.108.415-.108.282 0 .512.113.69.338l.192-.126c-.1-.142-.217-.252-.37-.328-.152-.072-.324-.104-.52-.104-.3 0-.554.092-.752.28-.2.19-.3.426-.3.698 0 .178.048.352.142.518.09.155.218.28.386.365.163.088.35.138.54.138.128 0 .25-.027.363-.063.124-.03.22-.094.3-.15.084-.065.152-.136.212-.24M102.87 532.633c-.136 0-.257-.033-.38-.104-.11-.06-.208-.156-.27-.28-.075-.115-.105-.246-.105-.383 0-.134.03-.26.104-.38.072-.125.16-.214.277-.28.117-.072.238-.11.375-.11.136 0 .258.038.38.11.12.058.206.146.277.262.062.12.097.244.097.395 0 .214-.075.402-.22.544-.14.15-.324.223-.535.223m.978.192v-1.905h-.24v.325c-.108-.117-.21-.217-.342-.275-.13-.06-.27-.092-.425-.092-.27 0-.506.092-.688.284-.19.19-.285.442-.285.714 0 .28.095.508.285.707.195.2.422.295.696.295.158 0 .297-.038.43-.11.127-.066.23-.166.33-.29v.347h.24zM104.4 532.825h.246v-.344c.093.13.205.222.317.304.132.056.257.094.398.094.142 0 .268-.044.376-.12.114-.07.192-.17.255-.287.044-.124.074-.313.074-.573v-.976h-.25v.908c0 .222 0 .362-.023.438-.03.124-.08.22-.166.278-.083.067-.186.093-.316.093-.147 0-.277-.042-.4-.136-.107-.1-.192-.23-.224-.364-.03-.1-.038-.27-.038-.527v-.69h-.247v1.905zM107.484 532.633c-.203 0-.377-.074-.527-.23-.14-.148-.212-.333-.212-.546 0-.13.03-.266.1-.388.064-.117.152-.205.262-.264.114-.07.24-.103.377-.103.136 0 .258.032.368.103.118.06.204.147.274.263.062.12.1.258.1.387 0 .213-.08.398-.224.545-.148.157-.318.23-.518.23m0 .246c.295 0 .533-.11.728-.324.176-.192.264-.42.264-.687 0-.263-.097-.505-.288-.7-.174-.197-.414-.29-.704-.29-.285 0-.535.093-.714.29-.184.195-.272.437-.272.7 0 .268.085.495.258.687.188.213.44.324.728.324M109.885 532.612l-.157-.16c-.137.132-.257.186-.38.186-.086 0-.15-.026-.21-.073-.047-.057-.08-.114-.08-.182 0-.063.015-.12.065-.182.05-.054.14-.12.297-.195.18-.095.3-.183.365-.275.067-.082.1-.184.1-.297 0-.16-.055-.29-.165-.405-.112-.102-.245-.15-.407-.15-.114 0-.217.015-.318.073-.102.034-.186.106-.244.184l.156.184c.117-.143.25-.215.393-.215.1 0 .183.03.255.104.062.058.095.128.095.218 0 .068-.018.125-.07.18-.035.063-.145.125-.305.208-.166.085-.282.173-.34.26-.076.084-.1.183-.1.302 0 .133.048.258.148.352.095.1.22.152.378.152.174 0 .342-.09.525-.268M110.563 531.394l.24-.12-.355-.65-.18.066.295.704zM112.08 531.403l.214.13c.152-.287.33-.43.532-.43.09 0 .168.026.247.06.073.044.133.096.17.165.043.075.064.136.064.218 0 .08-.03.17-.093.253-.083.11-.23.25-.448.41-.2.165-.334.278-.392.35-.09.125-.135.255-.135.39 0 .122.027.22.087.314.047.08.12.16.22.217.097.048.202.078.317.078.12 0 .236-.03.342-.094.1-.054.22-.16.332-.327l-.212-.16c-.088.13-.176.218-.248.248-.066.047-.14.057-.214.057-.11 0-.195-.018-.257-.087-.065-.06-.1-.135-.1-.23 0-.047.012-.11.035-.156.025-.063.065-.114.127-.177.03-.038.14-.124.33-.258.225-.166.376-.31.456-.438.082-.124.122-.25.122-.388 0-.197-.064-.343-.202-.492-.145-.137-.322-.195-.523-.195-.155 0-.303.032-.42.114-.128.08-.25.23-.353.426M114.358 531.31c.058 0 .104-.023.147-.064.042-.04.064-.102.064-.158 0-.06-.023-.11-.064-.15-.044-.045-.09-.06-.15-.06-.056 0-.1.015-.152.06-.034.04-.06.09-.06.15 0 .056.025.117.06.158.052.04.096.063.154.063M116.14 532.95l-.448-.94h.88l-.432.94zm.035.547l1.192-2.576h-.28l-.398.848h-1.123l-.39-.847h-.287l1.212 2.577h.073z" fill="#231f20"/></g></svg>