<svg xmlns="http://www.w3.org/2000/svg" width="400.175" height="133.579"><path d="M74.652 94.272H8.227v-71.92h65.26c3.593 0 6.962.437 10.024 1.29 3.24.923 6.058 2.28 8.397 4.02 2.48 1.848 4.447 4.157 5.82 6.857 1.392 2.74 2.085 5.79 2.085 9.09 0 4.144-1.048 7.797-3.12 10.87-.202.314-.44.622-.67.924.99.865 1.89 1.83 2.683 2.878 1.374 1.824 2.41 3.837 3.09 6.004.676 2.144 1 4.352 1 6.59 0 9.398-4.274 14.77-7.868 17.63-4.838 3.83-11.647 5.766-20.275 5.766" fill="#fff"/><path d="M53.565 56.572H34.232V36.706H53.21c1.623 0 2.937.118 4.12.373 1.535.32 2.92.9 4.064 1.716 1.314.912 2.386 2.215 3.03 3.725.528 1.28.783 2.618.783 4.057 0 4.672-2.51 7.046-4.003 8.06-1.954 1.302-4.447 1.935-7.64 1.935" fill="#fff"/><path d="M53.22 30.776H28.307V62.49H53.57c4.418 0 8.006-.964 10.955-2.96 4.192-2.813 6.608-7.544 6.608-12.956 0-2.238-.42-4.37-1.242-6.33-1.113-2.605-2.914-4.796-5.235-6.395-1.71-1.197-3.784-2.073-6.11-2.57-1.63-.344-3.352-.504-5.324-.504m0 11.843c1.124 0 2.072.076 2.84.24.77.16 1.4.41 1.872.742.486.33.83.746 1.043 1.237.207.49.313 1.07.313 1.734 0 1.475-.467 2.523-1.39 3.144-.925.622-2.37.93-4.33.93H40.15v-8.03h13.07" fill="#fff"/><path d="M56.05 80.63H34.234V57.6H55.43c2.06 0 3.778.16 5.252.472 1.865.38 3.458 1.054 4.784 2.026 1.564 1.12 2.766 2.694 3.423 4.518.486 1.29.758 2.836.758 4.524 0 5.548-3.57 11.493-13.596 11.493" fill="#fff"/><path d="M55.43 51.677H28.312v34.877H56.048c13.483 0 19.516-8.752 19.516-17.427 0-2.38-.384-4.618-1.136-6.643-1.096-2.92-3.026-5.43-5.584-7.254-1.943-1.403-4.33-2.416-7.035-2.973-1.86-.39-3.955-.58-6.377-.58m0 11.843c1.594 0 2.92.112 3.986.337 1.066.22 1.918.557 2.558 1.02.64.455 1.09 1.04 1.35 1.746.266.704.397 1.54.397 2.504 0 3.72-2.557 5.584-7.673 5.584H40.153V63.52H55.43M244.536 94.283H190.81V22.73H241.742c22.846 0 54.987 10.99 54.987 35.45 0 22.603-26.533 36.103-52.19 36.103" fill="#fff"/><path d="M241.743 16.8H184.88v83.408h59.658c28.174 0 58.124-14.726 58.124-42.024 0-28.547-35.63-41.384-60.92-41.384m0 11.842c20.306 0 49.078 9.848 49.078 29.542 0 20.12-25.983 30.18-46.282 30.18h-47.815V28.643h45.02" fill="#fff"/><path d="M241.275 78.07h-16.639V37.436h16.639c4.707 0 8.62.367 11.937 1.113 3.707.865 6.61 2.12 8.936 3.825 2.575 1.87 4.44 4.27 5.524 7.1.942 2.416 1.427 5.134 1.427 8.07 0 3.003-.474 5.768-1.416 8.243-1.048 2.83-2.9 5.27-5.513 7.23-2.373 1.783-5.298 3.05-8.946 3.91-3.292.768-7.206 1.14-11.95 1.14" fill="#fff"/><path d="M241.275 31.52H218.72V83.98h22.555c5.193 0 9.527-.42 13.27-1.284 4.43-1.037 8.19-2.695 11.185-4.945 3.517-2.64 6.052-5.98 7.52-9.93 1.167-3.08 1.765-6.555 1.765-10.274 0-3.672-.61-7.118-1.824-10.24-1.467-3.836-4.014-7.128-7.55-9.722-3.013-2.202-6.625-3.772-11.06-4.796-3.766-.86-8.106-1.273-13.305-1.273m0 11.842c4.275 0 7.816.325 10.64.97 2.813.652 5.05 1.588 6.727 2.808 1.658 1.22 2.837 2.706 3.506 4.464.687 1.753 1.024 3.737 1.024 5.945 0 2.297-.337 4.34-1.024 6.146-.67 1.8-1.854 3.328-3.535 4.59-1.676 1.26-3.926 2.213-6.745 2.87-2.818.658-6.348.984-10.593.984h-10.712V43.362h10.712M342.962 95.1h-38.477V67.712l-34.942-35.126-10.05-10.096H305.166l1.766 1.884 17.368 18.67 18.06-18.747 1.753-1.806h44.915L378.71 32.635 342.962 67.76V95.1zM144.263 94.885c-7.42 0-14.294-.84-20.435-2.487-6.324-1.682-11.902-4.104-16.568-7.212-4.897-3.287-8.752-7.284-11.482-11.902-2.836-4.767-4.275-10.114-4.275-15.893 0-5.82 1.475-11.21 4.388-15.993 2.802-4.63 6.686-8.604 11.542-11.82 4.678-3.108 10.256-5.506 16.58-7.164 6.21-1.61 13.027-2.422 20.25-2.422 7.237 0 14.052.824 20.252 2.447 6.336 1.67 11.914 4.085 16.598 7.188 4.867 3.227 8.746 7.213 11.523 11.843 2.877 4.814 4.322 10.16 4.322 15.923 0 5.744-1.433 11.068-4.275 15.846-2.73 4.59-6.58 8.575-11.416 11.855-4.63 3.127-10.21 5.59-16.568 7.284-6.153 1.67-13.028 2.51-20.435 2.51" fill="#fff"/><path d="M144.27 14.06c-7.73 0-15.042.884-21.733 2.625-6.98 1.818-13.17 4.5-18.392 7.964-5.59 3.706-10.072 8.307-13.33 13.677-3.475 5.75-5.233 12.163-5.233 19.067 0 6.84 1.71 13.2 5.098 18.92 3.198 5.388 7.662 10.024 13.276 13.778 5.217 3.482 11.387 6.188 18.362 8.04 6.662 1.778 14.052 2.678 21.95 2.678 7.894 0 15.296-.912 21.98-2.718 6.96-1.853 13.135-4.583 18.34-8.1 5.572-3.76 10.007-8.385 13.186-13.738 3.382-5.69 5.105-12.038 5.105-18.86 0-6.84-1.736-13.216-5.153-18.948-3.245-5.406-7.727-10.03-13.34-13.75-5.206-3.458-11.376-6.14-18.345-7.982-6.697-1.758-14.022-2.653-21.773-2.653m0 11.844c6.767 0 13.014.752 18.752 2.262 5.732 1.516 10.67 3.642 14.82 6.395 4.152 2.755 7.385 6.077 9.712 9.955 2.315 3.873 3.482 8.166 3.482 12.88 0 4.677-1.143 8.946-3.446 12.813-2.292 3.86-5.507 7.183-9.634 9.972-4.128 2.79-9.06 4.95-14.792 6.484-5.726 1.54-12.032 2.303-18.895 2.303-6.87 0-13.176-.752-18.902-2.274-5.732-1.527-10.677-3.67-14.828-6.442-4.144-2.776-7.372-6.104-9.67-9.97-2.297-3.885-3.445-8.172-3.445-12.886 0-4.737 1.172-9.048 3.517-12.926 2.35-3.88 5.596-7.2 9.752-9.948 4.145-2.754 9.09-4.88 14.822-6.377 5.732-1.487 11.98-2.24 18.753-2.24" fill="#fff"/><path d="M144.78 82.094c-3.57 0-6.928-.563-10.013-1.682-3.144-1.137-5.927-2.807-8.254-4.944-2.363-2.156-4.216-4.78-5.537-7.787-1.285-3.02-1.948-6.33-1.948-9.852 0-3.583.675-6.922 2.013-9.913 1.292-2.955 3.152-5.572 5.532-7.74 2.35-2.143 5.128-3.8 8.284-4.92 3.056-1.095 6.407-1.646 9.924-1.646 3.5 0 6.834.562 9.92 1.657 3.155 1.13 5.932 2.79 8.265 4.91 2.368 2.154 4.246 4.783 5.56 7.797 1.315 3.032 1.972 6.33 1.972 9.854 0 3.523-.657 6.82-1.948 9.806-1.316 3.008-3.157 5.625-5.496 7.78-2.316 2.132-5.08 3.808-8.225 4.974-3.092 1.13-6.467 1.706-10.05 1.706" fill="#fff"/><path d="M144.778 27.694c-4.216 0-8.23.67-11.926 1.995-3.902 1.39-7.36 3.445-10.28 6.11-2.966 2.712-5.323 5.998-6.975 9.764-1.646 3.713-2.487 7.852-2.487 12.264 0 4.352.818 8.45 2.428 12.18 1.63 3.778 3.973 7.082 6.958 9.824 2.92 2.67 6.36 4.73 10.232 6.14 3.736 1.362 7.787 2.043 12.05 2.043 4.263 0 8.32-.687 12.056-2.055 3.944-1.462 7.366-3.54 10.244-6.2 2.955-2.73 5.276-6.016 6.904-9.77 1.617-3.754 2.434-7.834 2.434-12.162 0-4.358-.83-8.468-2.457-12.21-1.653-3.79-4.01-7.088-7-9.812-2.896-2.635-6.33-4.684-10.215-6.093-3.736-1.344-7.757-2.02-11.967-2.02m0 11.843c2.866 0 5.507.44 7.935 1.315 2.427.877 4.524 2.115 6.276 3.714 1.758 1.604 3.126 3.53 4.11 5.785.982 2.25 1.473 4.742 1.473 7.478 0 2.718-.485 5.2-1.456 7.443-.972 2.245-2.334 4.175-4.08 5.792-1.747 1.617-3.83 2.872-6.26 3.772-2.427.888-5.092 1.338-8 1.338-2.906 0-5.57-.444-8-1.326-2.427-.883-4.517-2.132-6.276-3.737-1.75-1.61-3.12-3.548-4.09-5.798-.97-2.256-1.457-4.75-1.457-7.484 0-2.754.492-5.26 1.492-7.51.99-2.255 2.37-4.18 4.122-5.778 1.752-1.605 3.85-2.836 6.276-3.7 2.422-.87 5.075-1.304 7.935-1.304M198.628 124.723c-4.28 0-7.532-1.29-9.68-3.837-2.074-2.457-2.79-5.678-2.12-9.586l2.812-14.42.94-4.795h25.297l-1.35 7.04-2.807 14.62c-.598 3.334-.947 5.347-3.535 7.733-2.108 2.002-4.95 3.08-8.615 3.222l-.942.023z" fill="#fff"/><path d="M223.03 86.17h-37.333l-1.866 9.575-2.788 14.283c-1.267 7.354 1.143 12.014 3.376 14.667 2.285 2.712 6.608 5.945 14.217 5.945.38 0 .764-.006 1.166-.024 5.088-.195 9.292-1.835 12.5-4.867 3.94-3.678 4.573-7.207 5.188-10.624l.07-.38 2.78-14.506 2.693-14.07zm-14.323 11.843l-2.8 14.62c-.55 3.05-.575 3.423-1.742 4.506-1.16 1.1-2.77 1.563-4.837 1.645-.237.012-.468.012-.693.012-5.69 0-6.56-3.073-5.97-6.5l2.79-14.284h4.5l-2.79 13.578c-.11 1.09-.324 3.003 1.807 3.003.113 0 .23-.006.356-.018 1.006-.083 1.444-.142 2.072-2.777l2.783-13.785h4.524" fill="#fff"/><path d="M168.616 124.22c-3.12 0-5.915-1.16-7.887-3.28-1.996-2.15-2.968-5.146-2.72-8.426.345-4.957 2.903-12.116 7.136-16.166 2.665-2.552 6.958-4.257 10.688-4.257 3.02 0 5.697 1.102 7.52 3.103 1.043 1.13 2.174 2.96 2.452 5.69h.55l-.497 1.878c-.012.22-.03.44-.054.67l-.39 4.192-.924.23-.137.493c-.81 3.038-3.286 12.3-11.31 15.105-1.438.51-2.942.77-4.43.77" fill="#fff" fill-rule="evenodd"/><path d="M175.84 86.17c-5.306 0-10.973 2.256-14.78 5.892-5.567 5.335-8.545 14.13-8.966 20.05-.35 4.927 1.18 9.498 4.31 12.867 3.104 3.327 7.438 5.163 12.217 5.163 2.15 0 4.306-.38 6.408-1.12 6.53-2.267 11.298-7.74 14.182-16.266l1.835-.46.658-8.32c.006-.078.01-.15.017-.22l2.357-8.8h-3.837c-.645-1.373-1.486-2.634-2.51-3.753-2.96-3.245-7.183-5.034-11.89-5.034m0 11.843c2.42 0 4.4 1.273 4.067 4.88-1.468.372-2.635 1.053-4.103 1.432.106-1.13.598-2.15-.616-2.463-.23-.024-.45-.03-.657-.03-3.505 0-4.008 3.21-5.086 6.396-.687 2.03-1.71 4.222-1.024 5.732.468.485.953.692 1.433.692 1.616 0 3.168-2.303 3.695-3.766-.693 0-1.22.06-1.718.06-.248 0-.49-.018-.74-.06.498-1.273 1.8-2.877 2.363-4.097 2.262 0 2.93.01 5.187.01-1.15 4.282-3.203 9.546-7.55 11.062-.835.29-1.67.438-2.47.438-2.73 0-4.973-1.73-4.712-5.36.29-4.043 2.51-9.61 5.335-12.315 1.486-1.422 4.25-2.612 6.596-2.612" fill="#fff"/><path d="M238.794 124.73h-16.23v-.013l-.462.012H207.24l5.553-9.233c4.187-6.928 8.504-14.087 13.17-20.807l1.77-2.553H241.4l-.51 6.39c-.225 2.806-.48 5.583-.734 8.35-.38 4.06-.752 8.117-1.006 12.292l-.356 5.56z" fill="#fff" fill-rule="evenodd"/><path d="M247.786 86.217H224.634L221.1 91.31c-4.975 7.17-9.51 14.73-13.52 21.4l-10.783 17.94h47.573l.687-11.108c.254-4.09.627-8.07.99-12.05.26-2.824.52-5.65.745-8.51l.994-12.765zm-17.166 17.52s-3.25 5.632-4.808 8.522h3.932c.13-2.855.876-8.522.876-8.522m4.364-5.68c-.544 6.953-1.308 13.686-1.746 20.75h-4.364c.06-1.167.432-3.275.432-3.275h-5.24s-1.44 2.05-1.967 3.275h-4.37c4.233-7.047 8.48-14.087 13.104-20.75h4.15" fill="#fff"/><path d="M269.118 125.4h-26.474l1.806-7.337c1-4.08 2.398-7.834 3.754-11.47 1.297-3.434 2.505-6.697 3.34-10.06l1.113-4.5h4.636c.705 0 1.433-.036 2.168-.083.936-.048 1.795-.095 2.612-.095 1.6 0 6.43 0 9.51 4.17l.32.425.23.462c1.45 2.943 1.54 6.413.208 9.806-.89 2.29-2.357 4.364-4.11 5.945.06 2.398.172 4.447.326 6.288l.562 6.45z" fill="#fff" fill-rule="evenodd"/><path d="M262.093 85.945c-.96 0-1.954.047-2.96.112-.576.024-1.12.065-1.665.065h-9.273l-2.404 9c-.75 3.033-1.9 6.118-3.126 9.392-1.42 3.802-2.89 7.728-3.967 12.15l-3.594 14.656h40.448l-1.1-12.855c-.09-1.072-.16-2.232-.22-3.5 1.515-1.782 2.76-3.854 3.63-6.098 1.936-4.974 1.782-10.162-.445-14.614l-.456-.912-.61-.822c-2.213-2.997-6.483-6.573-14.257-6.573m-3.37 21.76c1.487 0 2.93-1.592 3.553-3.18.622-1.598.426-3.185-1.374-3.185-.136 0-.278.012-.432.024-.628 2.084-1.338 4.062-1.788 6.342h.04m3.37-9.918c1.937 0 3.66.313 4.732 1.764 1.835 3.677-1.386 8.752-4.572 9.966.03 3.44.13 6.792.403 9.96h-4.174c0-3.47-.728-9.238-.728-9.238s-2.31 7.48-2.653 9.238h-4.903c1.823-7.438 5.252-14.087 7.087-21.513h.184c.77 0 1.55-.047 2.333-.09.783-.046 1.552-.087 2.293-.087" fill="#fff"/><path d="M272.206 125.215l2.357-7.87c1.99-6.638 4.257-13.056 6.454-19.262l.652-1.806 1.337-3.8 4.044-.138c.925-.03 1.825-.054 2.707-.054 8.847 0 13.79 3.275 14.715 9.717 1.243 8.55-5.146 18.32-11.7 21.323-3.21 1.486-6.49 1.605-9.315 1.605h-.865c-.704 0-1.438 0-2.167.03l-8.22.255z" fill="#fff" fill-rule="evenodd"/><path d="M289.756 86.36c-.94 0-1.912.03-2.9.06l-8.084.267-2.7 7.62-.527 1.505c-2.25 6.365-4.583 12.944-6.644 19.824l-4.724 15.78 16.455-.538c.428-.018.86-.018 1.286-.018h.687l.77.006c2.528 0 7.224 0 11.92-2.185 8.402-3.86 16.686-16.123 15.052-27.515-.64-4.453-3.926-14.804-20.59-14.804m-3.398 28.974c1.712 0 3.547-.935 4.607-2.202 1.717-2.055 5.335-11.18.006-11.18-.142 0-.29.006-.444.018-1.73 4.25-3.24 8.716-4.595 13.347.143.012.285.017.428.017m3.398-17.13c4.578 0 8.296.675 8.865 4.642.848 5.886-4.186 13.2-8.313 15.094-2.15.995-4.512 1.083-6.934 1.083-.243 0-.485 0-.728-.005h-.728c-.557 0-1.12.005-1.67.023 2.13-7.128 4.577-13.95 6.993-20.783.858-.03 1.7-.053 2.516-.053" fill="#fff"/><path d="M391.692 20.73c-13.015-.208-49.96.26-53.044.183-5.47-.143-14.892 12.103-14.892 12.103-7.49-11.5-9.628-11.973-15.97-12.103 0 0-112.157-.042-119.375 0-7.21.04-5.234.68-6.05 4.115-.818 3.428-24.385 2.6-26.79 11.434-4.197 15.425-7.75 37.31-7.75 41.237v4.623c-5.685.492-9.386 5.886-9.386 12.47v9.18c.23 9.597 8.492 23.335 23.27 23.684H299.94c9.546.575 18.848-11.173 19.553-19.037v-8.527c10.76.338 18.45.58 21.175.687 6.045-.432 4.423-7.45 4.423-7.45l-.153-18.195c1.504 0 34.593-34.67 43.546-44.44 1.29-1.09 9.9-9.63 3.21-9.966" fill="#fff"/><path d="M391.692 20.73c-13.015-.208-49.96.26-53.044.183-5.47-.143-14.892 12.103-14.892 12.103-7.49-11.5-9.628-11.973-15.97-12.103 0 0-112.157-.042-119.375 0-7.21.04-5.234.68-6.05 4.115-.818 3.428-24.385 2.6-26.79 11.434-4.197 15.425-7.75 37.31-7.75 41.237v4.623c-5.685.492-9.386 5.886-9.386 12.47v9.18c.23 9.597 8.492 23.335 23.27 23.684H299.94c9.546.575 18.848-11.173 19.553-19.037v-8.527c10.76.338 18.45.58 21.175.687 6.045-.432 4.423-7.45 4.423-7.45l-.153-18.195c1.504 0 34.593-34.67 43.546-44.44 1.29-1.09 9.9-9.63 3.21-9.966z" fill="none" stroke="#245692" stroke-width="11.842500000000001"/><path d="M112.7 76.89c0 7.543-2.423 13.305-7.26 17.284-4.84 3.967-11.962 5.957-21.37 5.957H9.026s-2.95-.195-2.95-2.74c-.01-13.277-.046-70.258 0-71.964.055-1.936-.84-5.347 4.987-5.17 5.833.18 71.495 0 71.495 0 3.984 0 7.602.475 10.86 1.422 3.25.948 6.015 2.298 8.3 4.056 2.286 1.753 4.045 3.89 5.288 6.413 1.238 2.523 1.86 5.353 1.86 8.503 0 3.914-.918 7.26-2.736 10.043-1.818 2.783-4.583 5.098-8.302 6.958 2.475.605 4.65 1.546 6.502 2.813 1.86 1.273 3.41 2.754 4.648 4.453 1.238 1.694 2.167 3.56 2.79 5.596.615 2.037.93 4.17.93 6.377" fill="#fff"/><path d="M112.7 76.89c0 7.543-2.423 13.305-7.26 17.284-4.84 3.967-11.962 5.957-21.37 5.957H9.026s-2.95-.195-2.95-2.74c-.01-13.277-.046-70.258 0-71.964.055-1.936-.84-5.347 4.987-5.17 5.833.18 71.495 0 71.495 0 3.984 0 7.602.475 10.86 1.422 3.25.948 6.015 2.298 8.3 4.056 2.286 1.753 4.045 3.89 5.288 6.413 1.238 2.523 1.86 5.353 1.86 8.503 0 3.914-.918 7.26-2.736 10.043-1.818 2.783-4.583 5.098-8.302 6.958 2.475.605 4.65 1.546 6.502 2.813 1.86 1.273 3.41 2.754 4.648 4.453 1.238 1.694 2.167 3.56 2.79 5.596.615 2.037.93 4.17.93 6.377z" fill="none" stroke="#245692" stroke-width="11.842500000000001"/><path d="M96.872 71.858c0 5.673-1.878 10.002-5.632 12.992-3.754 2.984-9.284 4.482-16.58 4.482H14.144V29.254h59.344c3.09 0 5.904.36 8.426 1.072 2.523.71 4.672 1.73 6.443 3.05 1.77 1.32 3.138 2.93 4.097 4.82.965 1.9 1.445 4.032 1.445 6.4 0 2.943-.712 5.46-2.12 7.55-1.416 2.096-3.56 3.843-6.443 5.24 1.918.45 3.606 1.155 5.045 2.114 1.445.96 2.647 2.073 3.606 3.346.96 1.273 1.68 2.677 2.16 4.21.48 1.528.724 3.133.724 4.802" fill="#235492"/><path d="M40.153 51.634h13.412c1.96 0 3.405-.314 4.334-.936.923-.62 1.385-1.67 1.385-3.144 0-.663-.107-1.243-.314-1.735-.206-.492-.556-.907-1.035-1.238-.48-.332-1.107-.58-1.87-.74-.777-.166-1.724-.243-2.844-.243H40.154v8.034zM40.153 75.693h15.893c5.116 0 7.674-1.86 7.674-5.584 0-.967-.13-1.807-.39-2.506-.267-.705-.717-1.285-1.357-1.753-.64-.455-1.492-.792-2.558-1.017-1.066-.22-2.392-.332-3.985-.332H40.153v11.193z" fill="#fff"/><path d="M290.82 59.166c0 20.12-25.983 30.18-46.28 30.18h-47.817V29.625h45.02c20.305 0 49.077 9.847 49.077 29.542" fill="#235492"/><path d="M263.174 58.532c0-2.214-.344-4.192-1.025-5.95-.67-1.753-1.848-3.246-3.512-4.465-1.67-1.22-3.908-2.156-6.72-2.807-2.825-.646-6.372-.965-10.64-.965h-10.713v28.778h10.712c4.245 0 7.774-.326 10.593-.99 2.813-.65 5.063-1.61 6.738-2.865 1.688-1.26 2.872-2.795 3.54-4.595.682-1.806 1.026-3.85 1.026-6.14" fill="#fff"/><path d="M374.553 29.388l-37.512 36.86v23.93H310.4v-23.93l-36.66-36.86h28.856l21.63 23.254 22.396-23.254h27.93z" fill="#235492"/><path d="M206.8 59.41c0 23.88-27.57 43.243-61.583 43.243-34.02 0-61.595-19.363-61.595-43.244 0-23.882 27.576-43.24 61.595-43.24 34.012 0 61.582 19.358 61.582 43.24" fill="#fff"/><path d="M206.8 59.41c0 23.88-27.57 43.243-61.583 43.243-34.02 0-61.595-19.363-61.595-43.244 0-23.882 27.576-43.24 61.595-43.24 34.012 0 61.582 19.358 61.582 43.24z" fill="none" stroke="#245692" stroke-width="11.842500000000001"/><path d="M144.27 26.887c6.767 0 13.014.752 18.752 2.262 5.732 1.51 10.67 3.64 14.82 6.394 4.152 2.754 7.385 6.07 9.712 9.948 2.315 3.88 3.482 8.172 3.482 12.88 0 4.677-1.143 8.952-3.446 12.813-2.292 3.86-5.507 7.19-9.634 9.972-4.128 2.79-9.06 4.956-14.792 6.484-5.726 1.546-12.032 2.31-18.895 2.31-6.87 0-13.176-.764-18.902-2.274-5.732-1.533-10.677-3.677-14.828-6.448-4.144-2.77-7.372-6.1-9.67-9.972-2.297-3.884-3.445-8.17-3.445-12.885 0-4.736 1.172-9.047 3.517-12.925 2.35-3.88 5.596-7.195 9.752-9.948 4.145-2.754 9.09-4.88 14.822-6.37 5.732-1.494 11.98-2.24 18.753-2.24" fill="#f6b517"/><path d="M144.778 40.517c2.866 0 5.507.438 7.935 1.315 2.427.876 4.524 2.114 6.276 3.712 1.758 1.6 3.126 3.53 4.11 5.78.982 2.256 1.473 4.75 1.473 7.484 0 2.712-.485 5.2-1.456 7.443-.972 2.246-2.334 4.176-4.08 5.793-1.747 1.622-3.83 2.877-6.26 3.77-2.427.89-5.092 1.346-8 1.346-2.906 0-5.57-.45-8-1.334-2.427-.888-4.517-2.13-6.276-3.742-1.75-1.605-3.12-3.54-4.09-5.79-.97-2.257-1.457-4.75-1.457-7.486 0-2.753.492-5.258 1.492-7.508.99-2.256 2.37-4.18 4.122-5.78 1.752-1.598 3.85-2.836 6.276-3.7 2.422-.87 5.075-1.303 7.935-1.303" fill="#fff"/><path d="M357.066 93.19h1.51c1.196 0 1.79-.39 1.79-1.166 0-.764-.61-1.154-1.83-1.154h-1.47v2.32zm4.88 4.128h-1.368l-.58-1.64c-.178-.486-.427-.86-.74-1.102-.326-.242-.735-.355-1.244-.355h-.948v3.098h-1.184v-7.455h2.8c1.967 0 2.956.693 2.956 2.067 0 1.32-.652 2.025-1.943 2.108.675.2 1.167.675 1.48 1.42l.77 1.86zm-3.103 1.954c.527 0 1.03-.065 1.516-.207.484-.136.94-.332 1.372-.586.42-.256.823-.558 1.167-.907.36-.356.662-.752.917-1.18.254-.43.456-.893.592-1.39.14-.492.2-1.007.2-1.534 0-.522-.06-1.025-.2-1.517-.137-.485-.34-.947-.58-1.374-.256-.433-.558-.824-.913-1.18-.344-.348-.74-.65-1.167-.905-.426-.26-.888-.45-1.374-.604-.497-.13-1-.206-1.533-.206-.533 0-1.048.077-1.534.207-.492.155-.954.345-1.38.605-.44.255-.83.557-1.185.9-.35.35-.657.74-.906 1.173-.25.426-.445.888-.593 1.373-.13.493-.207.996-.207 1.53 0 .8.154 1.545.456 2.255.314.71.734 1.315 1.25 1.848.532.52 1.148.935 1.847 1.237.698.314 1.456.462 2.25.462m.006-12.75c.627 0 1.237.09 1.81.256.587.166 1.132.397 1.647.7.515.313.977.674 1.403 1.112.42.42.788.882 1.096 1.397.302.52.533 1.072.705 1.664.166.582.255 1.19.255 1.82 0 .627-.083 1.243-.25 1.823-.164.598-.395 1.15-.69 1.67-.31.51-.676.983-1.09 1.41-.415.414-.883.775-1.392 1.09-.516.306-1.072.537-1.658.703-.593.16-1.202.255-1.836.255-.635 0-1.244-.094-1.83-.254-.587-.166-1.144-.397-1.653-.693-.515-.302-.983-.663-1.41-1.09-.425-.414-.787-.887-1.095-1.408-.313-.51-.544-1.066-.71-1.664-.166-.586-.25-1.207-.25-1.84 0-.64.084-1.244.25-1.842.166-.587.397-1.143.71-1.658.308-.516.67-.977 1.096-1.398.426-.426.894-.787 1.41-1.095.508-.302 1.065-.533 1.65-.7.588-.165 1.197-.254 1.83-.254M205.91 113.615c-.558 3.055-.582 3.41-1.742 4.512-1.16 1.084-2.777 1.545-4.838 1.628-6.318.267-7.277-2.913-6.662-6.49l2.783-14.282h4.502l-2.79 13.59c-.112 1.137-.343 3.19 2.168 2.984 1.007-.09 1.445-.136 2.067-2.777l2.788-13.797h4.524l-2.8 14.632z" fill="#235492"/><path d="M179.907 103.865c-1.468.38-2.635 1.066-4.103 1.445.106-1.13.598-2.16-.616-2.463-4.098-.427-4.607 2.984-5.744 6.36-.687 2.036-1.71 4.22-1.024 5.737 2.037 2.126 4.447-1.178 5.128-3.073-1.037 0-1.7.125-2.458 0 .498-1.272 1.8-2.883 2.363-4.108 2.262 0 2.93.023 5.187.023-1.15 4.28-3.203 9.528-7.55 11.056-3.67 1.285-7.514-.23-7.182-4.926.29-4.033 2.51-9.61 5.335-12.293 3.026-2.9 11.316-4.843 10.664 2.245M225.812 113.245h3.932c.13-2.866.876-8.52.876-8.52s-3.25 5.63-4.808 8.52m9.172-14.2c-.544 6.946-1.308 13.68-1.746 20.743h-4.364c.06-1.167.432-3.27.432-3.27h-5.24s-1.44 2.044-1.967 3.27h-4.37c4.233-7.052 8.48-14.08 13.104-20.743h4.15zM260.468 102.35c-.622 2.084-1.34 4.062-1.79 6.324 3.104.07 6.053-6.845 1.79-6.324m1.788 8.142c.03 3.446.124 6.798.397 9.972h-4.175c0-3.482-.728-9.244-.728-9.244s-2.31 7.485-2.647 9.244H250.2c1.818-7.438 5.246-14.1 7.088-21.513 3.606.037 7.615-1.017 9.533 1.582 1.843 3.677-1.378 8.758-4.564 9.96M290.965 114.112c1.764-2.102 5.536-11.67-.44-11.162-1.728 4.258-3.238 8.723-4.594 13.347 1.825.172 3.892-.823 5.035-2.185m-10.724 5.91c2.14-7.124 4.584-13.945 7-20.784 5.673-.184 10.712-.09 11.38 4.595.848 5.874-4.185 13.193-8.313 15.093-3.067 1.422-6.572.97-10.066 1.096" fill="#235492" fill-rule="evenodd"/><path d="M25.317 11.043c-.568.26-1.202.397-1.894.397-1.25 0-2.298-.486-3.133-1.45-.84-.966-1.26-2.37-1.26-4.223 0-1.907.42-3.34 1.248-4.305.83-.96 1.795-1.44 2.902-1.44.663 0 1.374.18 2.126.54v2.303c-.593-.32-.972-.497-1.143-.54-.178-.04-.36-.058-.563-.058-.586 0-1.1.26-1.54.77-.443.515-.663 1.403-.663 2.665 0 1.314.214 2.226.646 2.73.426.51.953.757 1.593.757.52 0 1.077-.214 1.68-.652v2.505zM34.827 5.01v.706c0 1.15.036 1.913.113 2.274.065.367.22.657.456.87.237.207.52.314.84.314.267 0 .51-.1.73-.308.224-.2.378-.515.46-.935.095-.42.137-1.16.137-2.232 0-.96-.036-1.646-.113-2.05-.07-.407-.225-.733-.45-.988-.225-.248-.503-.38-.83-.38-.472 0-.816.22-1.03.66-.206.43-.313 1.124-.313 2.07m-2.362.67c0-1.54.16-2.67.473-3.387.314-.722.735-1.28 1.256-1.68.52-.398 1.178-.593 1.977-.593.66 0 1.192.118 1.594.343.403.23.776.568 1.125 1.013.343.438.597.988.75 1.64.16.65.244 1.516.244 2.6 0 2.202-.343 3.724-1.036 4.565-.7.84-1.593 1.256-2.694 1.256-1.12 0-2.02-.432-2.683-1.303-.668-.864-1.005-2.35-1.005-4.453M54.734 11.22H52.37L49.737 4.3H49.7v6.917h-2.167V.24h2.44l2.6 6.81h.04V.24h2.12v10.98zM64.94 2.23v7h.266c.45 0 .912-.196 1.398-.58.485-.386.728-1.31.728-2.767 0-1.077-.095-1.847-.272-2.297-.178-.462-.444-.8-.794-1.024-.343-.22-.704-.332-1.077-.332h-.25zM62.678.258h2.48c1.38 0 2.482.468 3.293 1.404.818.935 1.227 2.28 1.227 4.038 0 1.77-.403 3.132-1.196 4.092-.793.953-1.93 1.427-3.41 1.427h-2.392V.257zM79.368 5.01v.706c0 1.15.035 1.913.106 2.274.072.367.225.657.462.87.237.207.516.314.84.314.268 0 .51-.1.73-.308.225-.2.378-.515.467-.935.09-.42.13-1.16.13-2.232 0-.96-.035-1.646-.112-2.05-.07-.407-.224-.733-.45-.988-.224-.248-.502-.38-.828-.38-.48 0-.817.22-1.03.66-.208.43-.314 1.124-.314 2.07m-2.363.67c0-1.54.154-2.67.474-3.387.313-.722.733-1.28 1.254-1.68.52-.398 1.185-.593 1.978-.593.657 0 1.19.118 1.593.343.403.23.776.568 1.125 1.013.343.438.598.988.752 1.64.16.65.243 1.516.243 2.6 0 2.202-.344 3.724-1.042 4.565-.693.84-1.587 1.256-2.69 1.256-1.124 0-2.018-.432-2.68-1.303-.67-.864-1.008-2.35-1.008-4.453M99.274 11.22h-2.362L94.272 4.3h-.03v6.917h-2.174V.24h2.446l2.6 6.81h.04V.24h2.12v10.98zM112.35 11.22h-5.17V.25h4.85v2.12h-2.624V4.6h2.244v2.035h-2.244v2.428h2.943v2.156zM124.402 3.346c-.592-.735-1.154-1.096-1.7-1.096-.242 0-.455.083-.65.25-.19.17-.285.36-.285.573 0 .38.297.83.906 1.35.622.533 1.072.954 1.345 1.262.26.307.473.67.633 1.083.16.415.244.87.244 1.362 0 .965-.29 1.753-.87 2.375-.593.62-1.34.935-2.257.935-.752 0-1.486-.284-2.208-.853V8c.692.793 1.384 1.19 2.077 1.19.302 0 .563-.09.776-.272.2-.178.302-.403.302-.664 0-.396-.26-.83-.788-1.308-.852-.77-1.397-1.35-1.664-1.73-.266-.378-.46-.757-.592-1.136-.13-.385-.194-.776-.194-1.167 0-.84.278-1.54.84-2.09.557-.55 1.268-.823 2.132-.823.652 0 1.303.2 1.954.598v2.748z" fill="#235492"/></svg>