<svg xmlns="http://www.w3.org/2000/svg" width="450" height="139.689"><path d="M267.064 49.405c.957.176 2.234.22 3.898.22 4.796 0 9.24-1.817 9.24-7.215 0-5-4.23-7.152-9.305-7.152h-3.833v14.147zm0-17.726h4.216c4.878 0 7.747-2.686 7.747-6.27 0-4.29-3.158-6.042-7.845-6.042-2.14 0-3.358.148-4.118.317V31.68zm-4.642-15.19c2.007-.492 5.276-.825 8.475-.825 4.65 0 7.66.826 9.845 2.703 1.86 1.433 3.045 3.632 3.045 6.538 0 3.64-2.36 6.773-6.097 8.168v.154c3.425.823 7.427 3.725 7.427 9.25 0 3.187-1.222 5.614-3.103 7.435-2.458 2.365-6.526 3.464-12.39 3.464-3.21 0-5.658-.22-7.202-.44V16.49zM302.16 50.02c4.502 0 7.88-4.354 7.88-10.41 0-4.507-2.22-10.177-7.745-10.177-5.52 0-7.926 5.272-7.926 10.347 0 5.838 3.202 10.24 7.75 10.24h.04zm-.158 3.622c-6.94 0-12.38-5.274-12.38-13.698 0-8.92 5.73-14.145 12.824-14.145 7.414 0 12.434 5.558 12.434 13.632 0 9.936-6.682 14.21-12.812 14.21h-.066zM320.83 13.95h4.677v39.094h-4.676V13.95zM343.984 50.02c4.506 0 7.878-4.354 7.878-10.41 0-4.507-2.193-10.177-7.74-10.177-5.497 0-7.918 5.272-7.918 10.347 0 5.838 3.196 10.24 7.74 10.24h.04zm-.138 3.622c-6.92 0-12.38-5.274-12.38-13.698 0-8.92 5.698-14.145 12.808-14.145 7.432 0 12.434 5.558 12.434 13.632 0 9.936-6.656 14.21-12.807 14.21h-.054zM362.65 33.606c0-2.8-.035-5-.202-7.2h4.16l.258 4.346h.108c1.287-2.49 4.292-4.954 8.56-4.954 3.565 0 9.12 2.2 9.12 11.34v15.91h-4.686V37.685c0-4.302-1.56-7.934-5.984-7.934-3.035 0-5.453 2.26-6.292 4.952-.237.612-.345 1.49-.345 2.25v16.093h-4.697v-19.44zM392.313 26.405h4.697v26.64h-4.697v-26.64zm2.243-4.916c-1.76 0-2.926-1.422-2.926-3.122 0-1.718 1.213-3.093 3.033-3.093 1.813 0 2.985 1.375 2.985 3.093 0 1.7-1.172 3.12-3.044 3.12h-.04zM418.422 39.43c-5.12-.105-10.946.847-10.946 6.006 0 3.2 2.05 4.64 4.398 4.64 3.4 0 5.6-2.197 6.347-4.46.157-.498.202-1.042.202-1.54V39.43zm4.604 7.23c0 2.317.108 4.576.378 6.384h-4.216l-.433-3.36h-.157c-1.38 2.09-4.216 3.957-7.903 3.957-5.236 0-7.903-3.792-7.903-7.65 0-6.433 5.543-9.956 15.514-9.886v-.554c0-2.21-.57-6.244-5.868-6.176-2.436 0-4.962.723-6.763 1.985l-1.07-3.247c2.148-1.386 5.282-2.313 8.55-2.313 7.95 0 9.87 5.56 9.87 10.89v9.97zM267.064 100.37c1.007.275 2.352.38 3.833.38 5.677 0 9.022-2.866 9.022-7.875 0-4.952-3.346-7.314-8.482-7.314-2.022 0-3.566.23-4.374.39v14.42zm-4.642-17.837c2.244-.446 5.17-.778 8.918-.778 4.59 0 7.962 1.11 10.087 3.093 1.992 1.745 3.21 4.45 3.21 7.762 0 3.358-.966 5.995-2.824 7.914-2.47 2.702-6.47 4.067-11.002 4.067-1.394 0-2.694-.036-3.746-.32v14.87h-4.642V82.532zM289.828 100.807c0-3.13-.058-5.846-.21-8.322h4.114l.22 5.24h.14c1.178-3.575 4.08-5.826 7.21-5.826.484 0 .857.057 1.283.15v4.516c-.52-.056-1.008-.114-1.653-.114-3.307 0-5.662 2.594-6.286 6.168-.116.72-.192 1.48-.192 2.322v14.198h-4.684l.058-18.333zM307.454 92.486h4.71v26.65h-4.71v-26.65zm2.255-4.896c-1.782 0-2.943-1.44-2.943-3.128 0-1.695 1.23-3.088 3.044-3.088 1.823 0 2.986 1.393 2.986 3.088 0 1.687-1.163 3.128-3.05 3.128h-.04zM319.96 99.705c0-2.805-.052-4.997-.208-7.22h4.155l.275 4.367h.113c1.28-2.49 4.282-4.954 8.543-4.954 3.584 0 9.123 2.198 9.123 11.328v15.913h-4.68v-15.365c0-4.3-1.565-7.91-5.986-7.91-3.065 0-5.442 2.26-6.314 4.94-.21.61-.332 1.505-.332 2.268v16.066h-4.687V99.704zM355.07 86.113v6.372h6.712v3.7h-6.712v14.363c0 3.292.902 5.176 3.52 5.176 1.28 0 2.02-.12 2.726-.345l.21 3.71c-.915.314-2.333.656-4.172.656-2.168 0-3.94-.77-5.062-2.043-1.277-1.486-1.806-3.863-1.806-6.98v-14.54h-4.012v-3.698h4.012v-4.897l4.584-1.475zM367.09 92.486h4.714v26.65h-4.715v-26.65zm2.237-4.896c-1.75 0-2.92-1.44-2.92-3.128 0-1.695 1.218-3.088 3.03-3.088 1.83 0 3 1.393 3 3.088 0 1.687-1.17 3.128-3.055 3.128h-.06zM379.6 99.705c0-2.805-.06-4.997-.218-7.22h4.156l.264 4.367h.124c1.282-2.49 4.276-4.954 8.545-4.954 3.585 0 9.13 2.198 9.13 11.328v15.913h-4.69v-15.365c0-4.3-1.573-7.91-5.99-7.91-3.035 0-5.438 2.26-6.287 4.94-.23.61-.337 1.505-.337 2.268v16.066H379.6V99.704zM426.67 102.96c0-.766-.046-1.49-.275-2.154-.86-2.864-3.098-5.17-6.57-5.17-4.484 0-7.683 3.908-7.683 10.132 0 5.17 2.614 9.57 7.636 9.57 2.945 0 5.56-1.873 6.503-5.004.263-.778.39-1.713.39-2.584v-4.79zm4.69 12.28c0 6.146-1.235 9.855-3.686 12.22-2.57 2.36-6.196 3.18-9.452 3.18-3.1 0-6.516-.772-8.606-2.195l1.186-3.75c1.725 1.17 4.375 2.146 7.576 2.146 4.803 0 8.327-2.58 8.327-9.353v-2.912h-.08c-1.4 2.463-4.242 4.44-8.247 4.44-6.41 0-11.004-5.608-11.004-13.036 0-9.027 5.722-14.08 11.697-14.08 4.49 0 6.902 2.35 8.083 4.55h.075l.162-3.965h4.19c-.148 1.878-.22 4.027-.22 7.278v15.477z" fill="#5e5e5f"/><path d="M222.968 0h4.95v134.8h-4.95V0z" fill="#004761"/><path d="M3.264 116.793h2.113L2.443 132.6h6.93l-.366 1.9H0l3.264-17.707zM18.69 116.48l-3.4 3.748h-1.637l2.5-3.748h2.537zm-7.508 18.018l2.36-12.724h2.098l-2.332 12.724h-2.126zM26.585 123.774c-.423-.297-1.124-.55-2.023-.55-2.94 0-5.24 3.258-5.24 6.643 0 1.518.51 3.143 2.314 3.143 1.637 0 3.59-1.937 4.113-4.793l.835-4.443zm3.556-7.92l-2.72 14.607c-.22 1.33-.44 2.787-.51 4.036h-1.94l.338-2.544h-.043c-1.138 1.834-2.682 2.824-4.478 2.824-2.36 0-3.662-2.025-3.662-4.607 0-4.522 3.26-8.678 7.62-8.678.787 0 1.643.187 2.172.454l1.113-6.093h2.11zM38.85 124.81c0-1.035-.79-1.604-1.905-1.604-2.007 0-3.5 2-4.024 4.004 3.328.056 5.93-.415 5.93-2.39v-.01zm.438 8.976c-.92.52-2.416.988-4.053.988-3.26 0-4.694-2.308-4.694-5.106 0-3.84 2.743-8.178 6.715-8.178 2.34 0 3.617 1.44 3.617 3.285 0 3.34-3.665 4.198-8.21 4.123-.09.554-.026 1.727.26 2.422.48 1.146 1.492 1.696 2.756 1.696 1.456 0 2.55-.43 3.305-.87l.305 1.64zM41.936 134.498l1.52-8.208c.303-1.637.48-3.322.606-4.516h1.853c-.07.9-.174 1.763-.342 2.758h.093c.818-1.713 2.11-3.04 3.76-3.04.21 0 .44.023.63.055l-.42 2.154c-.15-.027-.35-.042-.578-.042-1.815 0-3.442 2.262-3.98 5.224l-1.016 5.616h-2.126zM63.123 124.81c0-1.035-.756-1.604-1.877-1.604-2.027 0-3.526 2-4.042 4.004 3.31.056 5.92-.415 5.92-2.39v-.01zm.448 8.976c-.9.52-2.412.988-4.05.988-3.273 0-4.71-2.308-4.71-5.106 0-3.84 2.762-8.178 6.736-8.178 2.337 0 3.61 1.44 3.61 3.285 0 3.34-3.638 4.198-8.2 4.123-.107.554-.032 1.727.248 2.422.48 1.146 1.486 1.696 2.743 1.696 1.473 0 2.566-.43 3.327-.87l.297 1.64zM66.266 134.498l1.637-9.024c.262-1.405.453-2.647.56-3.7h1.91l-.334 2.514h.07c1.095-1.79 2.762-2.796 4.58-2.796 1.436 0 3.1.87 3.1 3.526 0 .582-.095 1.398-.228 2.043l-1.38 7.438H74.1l1.346-7.344c.083-.49.16-1.09.16-1.64 0-1.257-.497-2.21-1.948-2.21-1.496 0-3.627 1.868-4.183 5.018l-1.12 6.176h-2.09zM88.42 119.44c-.737 0-1.243-.588-1.243-1.404.018-.86.653-1.556 1.446-1.556.798 0 1.32.614 1.32 1.413-.015.92-.655 1.546-1.486 1.546h-.036zm-3.95 15.058l2.36-12.724h2.1l-2.355 12.724H84.47zM90.32 134.498l1.637-9.024c.267-1.405.433-2.647.55-3.7h1.885l-.342 2.39h.063c1.158-1.77 2.71-2.672 4.35-2.672 1.87 0 2.757 1.242 2.878 2.833 1.084-1.828 2.663-2.81 4.502-2.833 1.428 0 3.002.947 3.002 3.327 0 .578-.073 1.462-.19 2.165l-1.384 7.513h-2.063l1.33-7.332c.093-.468.18-1.14.18-1.652 0-1.35-.497-2.21-1.87-2.21-1.53 0-3.357 1.842-3.87 4.66L99.8 134.5H97.77l1.375-7.47c.098-.577.16-1.05.16-1.554 0-1.06-.273-2.17-1.845-2.17-1.55 0-3.468 2.094-3.954 4.81l-1.14 6.384H90.32zM113.263 132.362c.564.446 1.353.703 2.37.703 2.723 0 4.982-3.478 4.982-6.823 0-1.335-.564-2.942-2.353-2.942-1.66 0-3.72 1.944-4.354 5.526l-.645 3.536zm-3.46 7.327l2.465-13.4c.285-1.516.537-3.247.698-4.534h1.934l-.35 2.41h.066c1.1-1.67 2.732-2.674 4.435-2.674 2.638 0 3.76 2.264 3.76 4.594 0 4.493-3.097 8.69-7.195 8.69-1.302 0-2.17-.278-2.65-.573h-.052l-1.002 5.486h-2.108zM124.333 134.498l1.488-8.208c.32-1.637.5-3.322.606-4.516h1.876c-.08.9-.18 1.763-.332 2.758h.063c.828-1.713 2.133-3.04 3.785-3.04.186 0 .428.023.607.055l-.42 2.154c-.137-.027-.35-.042-.57-.042-1.813 0-3.44 2.262-3.977 5.224l-1.032 5.616h-2.093zM140.736 124.81c0-1.035-.773-1.604-1.894-1.604-2.017 0-3.508 2-4.014 4.004 3.302.056 5.908-.415 5.908-2.39v-.01zm.46 8.976c-.92.52-2.404.988-4.09.988-3.243 0-4.68-2.308-4.68-5.106 0-3.84 2.744-8.178 6.73-8.178 2.353 0 3.608 1.44 3.608 3.285 0 3.34-3.642 4.198-8.203 4.123-.11.554-.022 1.727.268 2.422.466 1.146 1.463 1.696 2.76 1.696 1.433 0 2.514-.43 3.29-.87l.32 1.64zM143.954 132.315c.58.35 1.642.78 2.66.78 1.43 0 2.362-.948 2.362-2.082 0-.977-.45-1.612-1.743-2.35-1.43-.828-2.22-1.926-2.22-3.223 0-2.234 1.857-3.947 4.482-3.947 1.09 0 2.093.315 2.56.63l-.596 1.652c-.44-.262-1.2-.57-2.114-.57-1.302 0-2.22.834-2.22 1.917 0 .904.588 1.494 1.716 2.118 1.363.826 2.282 1.915 2.282 3.38 0 2.665-2.085 4.156-4.707 4.156-1.312-.013-2.5-.43-3.065-.86l.602-1.6zM157.295 119.44c-.728 0-1.26-.588-1.26-1.404.043-.86.673-1.556 1.46-1.556.77 0 1.328.614 1.328 1.413-.022.92-.657 1.546-1.506 1.546h-.022zm-3.96 15.058l2.355-12.724h2.113l-2.344 12.724h-2.125zM170.343 116.48l-3.393 3.748h-1.634l2.503-3.748h2.523zm-5.94 16.565c2.494 0 4.388-3.3 4.388-6.27 0-1.48-.67-3.55-2.88-3.55-2.662 0-4.42 3.33-4.42 6.244 0 2.08 1.113 3.575 2.89 3.575h.024zm-.258 1.73c-3.083 0-4.8-2.354-4.8-5.233 0-4.19 2.807-8.05 6.827-8.05 3.312 0 4.828 2.607 4.828 5.282 0 3.94-2.725 8.002-6.818 8.002h-.037zM172.49 134.498l1.66-9.024c.28-1.405.444-2.647.572-3.7h1.902l-.317 2.514h.027c1.154-1.79 2.793-2.796 4.6-2.796 1.463 0 3.105.87 3.105 3.526 0 .582-.107 1.398-.215 2.043l-1.386 7.438h-2.086l1.34-7.344c.083-.49.164-1.09.164-1.64 0-1.257-.494-2.21-1.942-2.21-1.5 0-3.63 1.868-4.184 5.018l-1.138 6.176h-2.103z" fill="#5e5e5f"/><path d="M32.795 81.197H48.59c5.338 0 9.11-.98 11.29-2.925 2.183-1.954 3.292-4.56 3.292-7.873 0-3.058-1.096-5.514-3.247-7.365-2.173-1.86-5.98-2.778-11.412-2.778H32.795v20.94zm0-40.628H46.28c4.825 0 8.177-.85 10.084-2.585 1.896-1.705 2.843-4.176 2.843-7.428 0-3.014-.947-5.362-2.843-7.067-1.907-1.677-5.196-2.52-9.898-2.52h-13.67v19.6zM1.498.01h58.06c9.663 0 17.088 2.477 22.26 7.4 5.167 4.935 7.76 11.063 7.76 18.34 0 6.11-1.845 11.356-5.535 15.73-2.468 2.912-6.077 5.227-10.817 6.924 7.21 1.776 12.515 4.86 15.91 9.183 3.388 4.367 5.103 9.833 5.103 16.416 0 5.36-1.223 10.18-3.64 14.46-2.39 4.28-5.725 7.66-9.92 10.15-2.59 1.56-6.525 2.687-11.753 3.377-7 .96-11.636 1.426-13.9 1.426H1.496V.01zM134.45 44.09h7.6c5.995 0 10.186-1.054 12.62-3.205 2.4-2.138 3.593-4.88 3.593-8.208 0-3.244-1.04-6.017-3.138-8.26-2.088-2.253-6.04-3.394-11.822-3.394h-8.853V44.09zM103.345.01h51.516c11.21 0 19.636 2.755 25.22 8.258 5.58 5.5 8.392 13.33 8.392 23.492 0 10.434-3.073 18.587-9.148 24.465-6.1 5.884-15.384 8.833-27.906 8.833H134.45v38.36h-31.105V.007z" fill="#004761"/><path d="M438.996 22.68h.778c1.1 0 1.79-.043 2.063-.13.267-.082.476-.233.63-.447.16-.212.232-.453.232-.725 0-.262-.072-.5-.228-.703-.146-.204-.36-.353-.645-.443-.28-.088-.96-.13-2.053-.13h-.778v2.578zm-1.922 5.367v-9.445h1.922c1.796 0 2.803.005 3.023.023.628.053 1.124.18 1.477.378.355.196.647.498.886.904.237.408.35.86.35 1.355 0 .682-.22 1.264-.664 1.75-.447.484-1.072.784-1.883.9.29.105.512.224.668.355.15.125.362.367.637.725.07.093.3.476.695 1.15l1.116 1.905h-2.37l-.79-1.53c-.535-1.036-.978-1.684-1.318-1.948-.353-.27-.794-.404-1.33-.404h-.5v3.88h-1.92zm4.035-11.92c-1.227 0-2.398.304-3.52.916-1.122.615-2.01 1.49-2.656 2.64-.645 1.146-.975 2.347-.975 3.6 0 1.248.32 2.437.95 3.568.63 1.13 1.512 2.013 2.646 2.65 1.128.637 2.317.955 3.553.955 1.25 0 2.435-.318 3.563-.955 1.123-.637 2.01-1.52 2.64-2.65.642-1.13.957-2.32.957-3.566 0-1.254-.325-2.455-.975-3.6-.64-1.152-1.53-2.026-2.662-2.64-1.12-.613-2.297-.918-3.524-.918m-.01-1.745c1.526 0 2.99.384 4.387 1.15 1.41.758 2.506 1.853 3.312 3.28.802 1.424 1.2 2.915 1.2 4.474 0 1.55-.393 3.028-1.18 4.433-.785 1.408-1.88 2.504-3.288 3.29-1.41.785-2.884 1.178-4.433 1.178-1.552 0-3.028-.393-4.43-1.18-1.41-.784-2.507-1.88-3.293-3.288-.786-1.405-1.18-2.884-1.18-4.433 0-1.56.397-3.05 1.203-4.473.8-1.427 1.9-2.522 3.302-3.28 1.405-.766 2.873-1.15 4.397-1.15" fill="#5e5e5f"/></svg>