<svg xmlns="http://www.w3.org/2000/svg" width="400" height="350.268"><path d="M44.35 12.775C17.835 28.342 0 57.082 0 90.045 0 92.66.384 279.42.384 279.42H44.35V12.776z" fill="#bec29f"/><path d="M50.577 9.497V279.05h46.39V.328C94.84.177 92.73 0 90.555 0c-14.373 0-27.93 3.483-39.978 9.497" fill="#9fa474"/><path d="M105.452 1.848V279.42h73.537c.284-145.525.383-115.598.383-189.377 0-44.13-31.924-80.745-73.92-88.195M399.45 323.22H.418v-29.43H399.45v29.43z" fill="#626a2a"/><path d="M399.45 350.268H.418V337.65H399.45v12.618z" fill="#e2b900"/><path d="M190.595 211.694h1.834c1.925 0 3.972.57 3.972 4.272 0 3.3-2.175 3.967-3.973 3.967h-1.835v-8.24zm0-11.245h1.5c1.77 0 3.74.226 3.74 3.54 0 2.934-2.027 3.468-3.662 3.468h-1.578v-7.01zm-3.874 23.947h6.754c2.43 0 6.81-1.052 6.81-8.224 0-3.505-1.8-6.12-4.43-6.47v-.092c2.297-.61 3.847-2.97 3.847-6.36 0-6.213-3.73-7.28-6.226-7.28h-6.753v28.427zM206.27 213.394c0-3.135 1.158-6.234 3.574-6.234 2.446 0 3.604 3.02 3.604 6.234 0 3.51-.76 7.265-3.604 7.265-2.822 0-3.575-3.804-3.575-7.266m-3.875.66c0 6.03 2.744 10.834 7.45 10.834 4.734 0 7.485-4.805 7.485-10.833 0-6.93-3.242-11.118-7.486-11.118-4.215 0-7.45 4.187-7.45 11.118M220.31 193.853h3.71v30.545h-3.71v-30.545zM236.404 207.82c-1.123-.57-1.97-.897-3.32-.897-1.002 0-2.19.533-2.19 2.317 0 3.34 6.455 1.223 6.455 8.8 0 4.898-2.965 6.846-5.98 6.846-1.413 0-2.85-.362-4.22-.896l.22-4.478c1.165.86 2.38 1.393 3.66 1.393.952 0 2.438-.533 2.438-2.573 0-4.11-6.454-1.308-6.454-8.87 0-4.53 2.687-6.52 5.594-6.52 1.75 0 2.893.405 4.052.768l-.256 4.11zM240.867 204.508c1.436-.967 3.384-1.57 4.955-1.57 4.35 0 6.142 2.644 6.142 8.828v2.694c0 2.118.035 3.704.057 5.253.03 1.585.093 3.057.17 4.685h-3.262c-.15-1.102-.15-2.48-.177-3.128h-.042c-.86 2.317-2.715 3.618-4.407 3.618-2.523 0-4.997-2.24-4.997-6.24 0-3.122 1.03-4.963 2.453-5.986 1.407-1.01 3.24-1.21 4.79-1.21h2.048c0-3.39-1.023-4.527-3.213-4.527-1.577 0-3.162.896-4.4 2.282l-.113-4.7zm4.344 16.4c1.145 0 2.02-.74 2.61-1.89.604-1.18.774-2.695.774-4.316h-1.613c-1.656 0-4.122.405-4.122 3.625 0 1.79 1.03 2.58 2.353 2.58M266.302 213.852c0-2.815.654-6.69 3.07-6.69 2.375 0 3.328 3.755 3.328 6.69 0 2.972-.81 6.803-3.27 6.803-2.445 0-3.128-3.91-3.128-6.803m6.526 10.542h3.604v-30.538h-3.71v12h-.05c-1.117-1.99-2.417-2.915-4.28-2.915-4.364 0-5.978 5.126-5.978 10.912 0 5.737 1.614 11.04 5.978 11.04 1.756 0 3.277-.825 4.386-2.858h.05v2.36zM282.88 211.847c.163-2.808 1.23-4.926 3.298-4.926 2.076 0 2.908 2.29 3.02 4.927h-6.318zm8.807 6.93c-1.38 1.152-2.928 2.126-4.727 2.126-2.296 0-3.917-1.912-4.08-5.303h9.867c0-7.33-1.493-12.66-6.79-12.66-4.428 0-6.617 4.997-6.617 11.075 0 6.888 2.744 10.876 7.45 10.876 1.997 0 3.547-.568 4.897-1.67v-4.442zM301.727 195.97h4.137l4.962 22.327h.064l4.904-22.327h3.846l-6.51 28.426h-4.757l-6.646-28.426zM322.94 218.33c0-3.22 2.475-3.633 4.13-3.633h1.6c0 1.628-.163 3.142-.78 4.322-.577 1.15-1.466 1.883-2.603 1.883-1.322 0-2.346-.782-2.346-2.574m-1.89-9.12c1.244-1.394 2.837-2.283 4.408-2.283 2.182 0 3.213 1.138 3.213 4.52h-2.047c-1.55 0-3.383.207-4.79 1.217-1.408 1.023-2.44 2.857-2.44 5.985 0 3.994 2.482 6.24 4.99 6.24 1.686 0 3.54-1.308 4.4-3.618h.058c.037.647.037 2.02.165 3.128h3.27c-.078-1.628-.142-3.1-.17-4.692-.03-1.542-.05-3.127-.05-5.246v-2.694c0-6.19-1.806-8.83-6.157-8.83-1.585 0-3.518.606-4.954 1.572l.106 4.7zM335.788 193.853h3.71v30.545h-3.71v-30.545zM346.37 213.394c0-3.135 1.166-6.234 3.576-6.234 2.438 0 3.604 3.02 3.604 6.234 0 3.51-.747 7.265-3.604 7.265-2.837 0-3.576-3.804-3.576-7.266m-3.88.66c0 6.03 2.757 10.834 7.456 10.834 4.74 0 7.485-4.805 7.485-10.833 0-6.93-3.24-11.118-7.484-11.118-4.216 0-7.457 4.187-7.457 11.118M360.42 203.433h3.292v4.763h.05c.163-1.962 1.692-5.253 3.916-5.253l1.13.156v5.494c-.333-.29-.994-.44-1.663-.44-3.02 0-3.02 5.53-3.02 8.537v7.706h-3.704v-20.963zM373.235 211.847c.178-2.808 1.23-4.926 3.306-4.926s2.915 2.29 3.03 4.927h-6.335zm8.815 6.93c-1.386 1.152-2.936 2.126-4.735 2.126-2.296 0-3.902-1.912-4.08-5.303h9.88c0-7.33-1.5-12.66-6.795-12.66-4.428 0-6.625 4.997-6.625 11.075 0 6.888 2.758 10.876 7.457 10.876 1.99 0 3.54-.568 4.898-1.67v-4.442zM394.49 207.82c-1.136-.57-1.96-.897-3.326-.897-.988 0-2.19.533-2.19 2.317 0 3.34 6.455 1.223 6.455 8.8 0 4.898-2.958 6.846-5.98 6.846-1.414 0-2.857-.362-4.207-.896l.213-4.478c1.166.86 2.39 1.393 3.654 1.393.945 0 2.438-.533 2.438-2.573 0-4.11-6.44-1.308-6.44-8.87 0-4.53 2.687-6.52 5.587-6.52 1.742 0 2.88.405 4.045.768l-.25 4.11zM235.543 263.632c0-2.815.668-6.675 3.085-6.675 2.374 0 3.313 3.747 3.313 6.675 0 2.986-.795 6.79-3.27 6.79-2.423 0-3.127-3.896-3.127-6.79m6.547 10.55h3.597v-30.546h-3.718v12.014h-.058c-1.102-1.998-2.402-2.93-4.265-2.93-4.364 0-5.978 5.133-5.978 10.912 0 5.737 1.613 11.033 5.977 11.033 1.75 0 3.277-.796 4.38-2.844h.063v2.36zM258.452 261.64c-.114-2.652-.94-4.933-3.014-4.933-2.083 0-3.135 2.118-3.306 4.933h6.32zm2.488 11.366c-1.358 1.095-2.908 1.657-4.898 1.657-4.706 0-7.45-3.995-7.45-10.862 0-6.07 2.19-11.08 6.618-11.08 5.296 0 6.79 5.33 6.79 12.666h-9.868c.17 3.39 1.77 5.282 4.073 5.282 1.8 0 3.356-.967 4.735-2.104v4.442zM272.752 245.743h4.755l7.365 21.27h.064v-21.27h3.71v28.44h-4.734l-7.4-21.267h-.057v21.268h-3.703v-28.44zM292.69 253.208h3.71v20.978h-3.71v-20.978zm0-9.056h3.71v5.218h-3.71v-5.218zM309.557 257.73c-.66-.447-1.387-.767-2.51-.767-2.31 0-3.774 2.68-3.774 6.632 0 3.867 1.244 6.825 3.845 6.825 1.052 0 2.21-.555 2.858-.967l.164 4.52c-1.074.49-2.197.69-3.71.69-4.686 0-7.04-4.67-7.04-11.068 0-6.063 2.447-10.876 6.897-10.876 1.5 0 2.573.24 3.604.69l-.333 4.32zM315.23 268.11c0-3.206 2.48-3.61 4.136-3.61h1.607c0 1.613-.17 3.12-.775 4.314-.583 1.13-1.47 1.855-2.602 1.855-1.336 0-2.367-.762-2.367-2.56m-1.877-9.12c1.244-1.38 2.83-2.282 4.407-2.282 2.19 0 3.213 1.144 3.213 4.514h-2.04c-1.564 0-3.398.206-4.798 1.237-1.422 1.015-2.446 2.835-2.446 5.984 0 3.995 2.466 6.22 4.99 6.22 1.677 0 3.54-1.3 4.4-3.618h.056c.03.66.03 2.04.17 3.135h3.264c-.085-1.627-.142-3.092-.164-4.684-.035-1.542-.057-3.135-.057-5.253v-2.673c0-6.19-1.8-8.85-6.15-8.85-1.577 0-3.51.61-4.96 1.592l.113 4.678zM328.086 253.206h3.305v4.755h.05c.164-1.954 1.693-5.238 3.91-5.238l1.13.164v5.487c-.333-.277-1.002-.447-1.663-.447-3.028 0-3.028 5.544-3.028 8.565v7.693h-3.704v-20.977zM339.422 254.31c1.435-.98 3.376-1.592 4.954-1.592 4.35 0 6.15 2.66 6.15 8.85v2.673c0 2.12.027 3.71.05 5.254.034 1.592.084 3.057.177 4.692h-3.27c-.15-1.102-.15-2.48-.185-3.142h-.043c-.86 2.324-2.708 3.618-4.4 3.618-2.524 0-4.997-2.218-4.997-6.22 0-3.142 1.03-4.97 2.438-5.985 1.415-1.03 3.256-1.23 4.805-1.23h2.048c0-3.377-1.03-4.52-3.22-4.52-1.578 0-3.156.91-4.393 2.28l-.113-4.677zm4.336 16.364c1.144 0 2.033-.732 2.616-1.862.61-1.195.774-2.702.774-4.315h-1.613c-1.664 0-4.123.405-4.123 3.61 0 1.8 1.024 2.567 2.346 2.567M363.572 263.472c0-3.597-.938-6.51-3.1-6.51-2.523 0-3.326 3.41-3.326 6.638 0 2.837 1.023 6.34 3.15 6.34 2.338 0 3.276-2.956 3.276-6.468m3.71-10.264v18.93c0 5.708-1.55 11.09-7.527 11.09-1.472 0-3.164-.328-4.934-1.423l.307-4.656c1.13.902 2.993 1.84 4.15 1.84 4.096 0 4.295-4.528 4.295-8.146h-.057c-.682 1.784-2.36 3.34-4.43 3.34-4.214 0-5.813-4.975-5.813-10.584 0-5.054 1.77-10.883 6.035-10.883 1.884 0 3.355.93 4.38 3.34h.048v-2.85h3.548zM384.21 274.184h-3.518v-2.843h-.064c-1.13 2.027-2.737 3.328-4.67 3.328-3.39 0-4.862-3.498-4.862-8.232v-13.23h3.717v11.19c0 2.587.03 6.028 2.417 6.028 2.673 0 3.263-4.265 3.263-6.952v-10.265h3.718v20.977zM390.667 268.11c0-3.206 2.46-3.61 4.122-3.61h1.6c0 1.613-.172 3.12-.77 4.314-.582 1.13-1.47 1.855-2.608 1.855-1.33 0-2.345-.762-2.345-2.56m-1.89-9.12c1.243-1.38 2.828-2.282 4.4-2.282 2.195 0 3.212 1.144 3.212 4.514h-2.048c-1.55 0-3.377.206-4.784 1.237-1.422 1.015-2.446 2.835-2.446 5.984 0 3.995 2.467 6.22 4.99 6.22 1.678 0 3.54-1.3 4.4-3.618h.058c.028.66.028 2.04.163 3.135H400c-.085-1.627-.15-3.092-.178-4.684-.028-1.542-.05-3.135-.05-5.253v-2.673c0-6.19-1.805-8.85-6.148-8.85-1.578 0-3.52.61-4.948 1.592l.1 4.678z" fill="#626a2a"/></svg>