<svg xmlns="http://www.w3.org/2000/svg" width="603.536" height="529.142"><path d="M391.692.01c5.927-.188 13.72 2.165 12.126 9-1.85 7.99-20.263 4.518-21.588-1.7-1.34-6.178 4.374-7.144 9.462-7.3M307.224 10.226c-.977 5.51-3.07 10.842-3.882 17.513-.847 6.915-.603 13.476 1.47 18.468.858 2.12 3.522 7.474 5.568 7.804 2.91.455 8.07-5.647 9.473-7.312 7.604-9.1 12.748-20.807 14.794-34.287 4.45-1.584 12.574-1.1 17.717-.485 1.103 3.652.33 7.79-.477 11.182-4.752 20.163-17.74 34.35-33.492 44.012-2.78 1.706-5.487 3.696-8.015 4.877-2.142.983-5.384 2.027-7.526 1.705-3.82-.585-8.577-8.03-10.44-10.942-3.014-4.75-5.06-9.48-6.304-14.838-2.838-12.126-2.168-27.013.477-37.94 5.662-1.61 14.26-.555 20.637.24M180.52 9.734c2.05.626 1.637 3.445 1.703 4.866.633 13.477 1.414 27.068 5.332 39.168 2.983 9.173 7.05 18.635 11.416 27.486 1.16 2.35 4.386 6.805 4.12 8.244-.497 2.664-10.095 4.86-13.104 6.09-1.435.582-3.515 1.84-4.614 1.707-2.18-.307-4.074-5.384-5.092-8.03-3.78-9.717-6.23-19.64-8.99-29.913-3.672-13.72-5.914-29.547-5.818-43.286 4.533-2.446 10.19-5.05 15.05-6.332M234.168 43.054c5.495-2.298 9.795-4.322 15.038-7.29 1.95-1.103 6.16-3.145 6.08-5.362-.126-3.267-8.233-5.302-12.148-4.855-9.558 1.085-17.628 10.417-17.22 19.453 3.007 1.088 5.693-.873 8.25-1.946m36.404 8.025c4.888 5.52 2.394 12.795-1.443 16.784-11.82 12.204-46.917 20.463-57.785 1.462-6.243-10.916-4.21-26.187 2.19-35.993 7.59-11.627 21.277-19.36 37.862-20.422 12.777-.82 24.81 5.533 20.38 18.717-2.574 7.693-11.13 14.805-17.96 19.452-5.3 3.615-11.686 6.727-19.16 9-2.058.613-6.376 1.66-6.56 2.685-.43 2.213 4.91 3.7 7.285 4.133 13.158 2.39 22.324-3.79 29.603-10.94 1.705-1.678 2.993-3.942 5.587-4.88M392.653 23.112c-1.514 4.703-4.29 8.85-6.55 13.373-6.568 13.27-9.872 29.19-15.042 44.278-3.08 1.306-7.077-.31-10.685-1.218-3.74-.955-7.675-1.787-10.664-3.175-.61-5.876 2.224-11.326 4.356-16.78 3.867-9.873 8.832-19.612 14.072-28.937 1.676-2.964 6.727-13.195 10.206-12.644 4.48.728 10.434 2.685 14.31 5.102M464.993 54.492c-1.31.87-1.477-1.184-2.672-1.22-1.31 1.313-2.482 3.703-1.2 5.598-1.988.932-3.32 1.032-6.074 1.206-3.863-9.813-11.76-19.978-25.498-16.766-.522.507-1.03-.396-1.936-.255-1.96.788-4.092 1.42-5.828 2.423-.16 1.802 1.773 3.353 2.905 4.633 3.303 6.85 9.627 11.62 15.06 16.778 3.526 3.353 8.758 8.452 8.01 16.052-.33 3.297-2.797 6.972-5.08 8.996-10.805 9.495-32.407 5.776-44.433-.485-6.78-3.514-15.664-9.476-13.355-19.692.322-1.436 1.392-3.445 2.18-4.622 1.595-2.335 4.107-4.762 7.05-5.595.872 13.078 10.44 23.2 22.323 24.812 4.525.6 13.003-.422 11.4-6.083-.38-1.378-1.646-2.873-2.664-4.135-2.027-2.538-5.305-5.143-8.49-8.03-4.72-4.27-13.86-10.345-11.642-19.944 2.338-10.104 14.9-13.575 27.9-12.654 10.298.75 20.644 6.11 27.19 11.69 2.076 1.78 4.185 4.384 4.855 7.296M124.693 69.81c-2.202 1.177-5.636 2.642-6.065 4.374-.633 2.568 1.824 6.246 2.91 8.514 1.334 2.78 2.378 4.733 3.88 7.545 2.835 5.258 6.468 14.78 14.568 13.617 5.8-.843 11.142-8.97 11.168-16.06.026-10.797-7.726-22.46-18.698-20.902-2.997.418-4.988 1.425-7.763 2.912m-10.202-4.133c8.212-5.936 15.816-17.455 31.324-13.133 13.037 3.638 21.555 19.08 20.87 34.287-.68 15.176-9.04 26.214-19.904 32.09-.7.367-1.436.7-1.93 0 .29 1.148-.445 1.18-.738 1.72-4.38 2.503-8 4.556-12.61 7.535-1.196.762-3.1 2.472-4.123 2.427-2.284-.077-4.496-5.26-5.843-8.022-7.642-15.72-14.483-30.816-21.603-47.427-1.195-2.78-2.753-6.065-4.122-9.717-1.106-2.94-3.534-7.815-3.164-9.972.315-1.79 3.597-3.23 5.584-4.622 2.298-1.613 4.892-4.603 7.29-4.38 2.497.23 3.37 7.618 4.122 9.96 1.295 4.008 1.93 6.39 4.847 9.255M500.923 49.15c5.517-1.05 16.27 3.016 15.278 10.442-.46 3.493-5.042 5.4-9.46 4.633-4.43-.792-11.734-5.48-11.16-10.713.3-2.75 2.945-3.926 5.343-4.362M499.463 71.275c-1.188 2.48-3.67 4.12-5.58 5.825-11.826 10.553-21.602 22.623-31.323 36.01-1.258 1.718-3.427 5.95-4.84 6.32-3.05.786-7.856-3.877-9.72-5.116-1.466-.973-3.072-1.89-4.608-2.916-1.017-.692-3.71-2.368-3.896-3.404-.263-1.614 2.757-5.247 4.385-7.3 8.39-10.658 18.71-20.246 28.656-28.938 3.874-3.422 8.85-7.915 13.58-9.48.28-.103.633-.318.966-.25 4.766.976 9.302 6.415 12.38 9.25M214.743 102.896c-20.248 10.358-36.844 27.494-35.922 56.896.91 28.977 15.157 48.633 28.645 64.93 18.612 22.472 42.513 40.218 69.65 54.964 23.15 12.574 50.817 23.016 81.567 27.242 2.142.288 4.122.403 6.06 1.21 1.973.817 3.534 1.595 5.6 1.942.7.122.99.204 1.205.245 1.666.314 4.54-1.114 6.794-1.222 2.706-.107 5.796.448 8.264.496 5.558.073 11.223.48 16.737.247 32.027-1.417 57.588-13.765 71.106-33.088 4.903-6.97 8.507-15.698 9.484-25.293 1.1-10.78-.222-21.102-3.157-30.638-5.48-17.737-14.41-32.32-24.507-44.99-21.543-26.99-47.586-44.977-78.413-60.555-15.112-7.64-31.815-14.054-50.73-18.72-17.13-4.237-40.827-7.98-62.37-6.32-19.146 1.47-35.9 5.41-50.01 12.65M269.6 84.888c18.92-.655 41.022 2.85 59.46 7.545 18.576 4.714 36.363 11.15 52.197 18.72 31.767 15.204 58.983 34.18 82.032 59.575 11.896 13.103 20.477 25.532 27.185 43.778 6.63 18.046 8.663 40.685.48 58.842-6.988 15.59-20.624 27.246-36.162 34.79-16.185 7.882-34.96 11.942-57.277 12.408-42.553.873-81.48-10.176-113.103-25.295-32.078-15.32-59.546-35.594-81.078-60.567-10.742-12.448-20.94-26.41-27.186-43.753-3.12-8.688-5.785-17.89-6.303-29.19-1.602-34.303 18.384-54.45 41.26-65.175 16.87-7.915 35.244-10.868 58.493-11.678M522.756 140.82c9.965-.872 20.207-8.806 20.877-17.024.156-1.776-.092-3.52-.485-4.615-2.605-7.277-11.593-12.998-21.842-12.165-8.37.7-18.113 6.705-20.874 13.872-3.51 9.047 4.43 15.208 10.206 17.987 1.04 0 .177 1.928 1.443 1.706 3.527-.13 6.846.578 10.676.24m-8.004-44.99c15.693-.79 26.96 7.425 33.984 16.783 4.11 5.462 8.588 15.912 4.36 25.28-6.232 13.873-24.11 21.485-40.286 20.19-15.427-1.218-30.735-12.2-34.472-25.78-4.715-17.18 7.593-26.983 17.972-32.093 5.436-2.68 11.153-4.015 18.442-4.38M92.9 126.712c-4.04 2.538-14.45 19.015-5.583 22.864 5.502 2.39 10.12-2.672 13.11-5.584 1.587-1.558 4.866-4.292 4.85-6.098-.014-1.625-3.488-4.255-5.342-6.07-2.254-2.223-4.333-5.79-6.553-5.353-.307.068-.307.142-.48.242m-8.986-12.152c-1.824-2.213-5.062-2.054-7.282-1.466-5.12 1.358-10.598 8.037-11.415 13.377-.375 2.47.47 5.008 0 7.065-2.207 1.876-7.176 1.843-9.21.233-2.233-1.754-2.825-7.445-1.696-11.678 2.51-9.517 15.656-23.997 25.965-25.525 9.964-1.487 14.985 4.648 20.147 9.71 5.52 5.45 10.8 11.585 16.026 18.01 2.013 2.497 7.12 7.21 7.275 9.73.185 3.26-4.46 7.29-6.553 9.485-7.268 7.552-16.678 17.943-26.22 21.636-1.625.632-6.07 1.72-8.985 1.22-2.88-.492-5.88-3.22-7.523-5.098-2.893-3.316-5.473-9.854-4.355-15.564.98-5.166 3.474-9.56 5.813-13.628 3.02-5.262 7.13-9.673 8.01-17.506" fill-rule="evenodd"/><path d="M207.708 189.465c-2.31-.803-2.36-3.626-2.916-5.354-1.85-5.746-3.42-13.487-3.408-20.92.1-28.564 22.964-48.242 49.773-50.08 4.63-.334 12.744.11 12.862 3.64.114 3.175-7.15 4.737-10.443 5.828-21.21 7.01-37.185 15.775-42.713 38.18-2.11 8.555-2.08 18.243-3.156 28.707M17.406 165.137c-2.8 4.603-3.963 9.813-3.397 17.273 1.03 13.287 11.718 25.032 23.307 26.512 9.887 1.247 17.266-5.17 20.874-10.712 3.4-5.2 6.465-13.14 4.367-21.636-.614-2.468-3.597-7.552-2.424-8.99 1.495-1.855 6.51.683 7.527 1.205 6.468 3.34 9.935 10.782 9.71 20.188-.2 7.937-3.227 15.696-6.802 22.376-5.54 10.32-13.998 21.147-30.827 19.933-9.738-.696-18.467-6.483-24.51-12.396-11.8-11.57-19.763-34.567-12.377-55.22 1.598-4.472 3.437-8.28 6.057-12.395 2.775-4.333 7.097-11.03 13.6-11.42 11.57-.713 11.018 17.663 3.636 22.61-2.616 1.76-5.554 1.506-8.74 2.672M353.084 157.604c4.255 7.667 6.51 16.688 8.992 25.765 4.92 17.964 9.42 36.517 14.808 54.723 1.236 4.192 2.513 8.192 3.63 13.632.567 2.683 2.757 13.032-.965 13.854-3.705.82-6.222-6.447-7.276-9.244-1.643-4.36-2.25-8.907-3.16-13.125-5.673-26.79-13.595-51.944-17.225-80.5-2.107.95-2.932 3.312-4.138 5.1-16.492 24.8-35.33 48.884-54.62 71.748-4.185 4.996-7.963 9.854-14.07 12.64 3.324 4.237 8.464 7.11 13.592 9.97 14.47 8.125 33.803 14.985 55.834 14.353 16.42-.47 27.63-6.667 39.083-12.632.804.95-.772 1.972-1.22 2.412-10.798 11.05-29.4 17.914-50.002 17.762-22.36-.174-41.77-8.363-56.067-17.02-15.2-9.212-28.2-20.65-36.174-36.975-6.027-12.352-8.725-30.102-2.172-44.01 1.784-3.798 4.174-8.157 8.5-9.237 2.6 3.112.318 7.156-.248 10.457-2.076 11.855-1.432 22.73 2.42 33.066 4.74 12.692 13.306 22.15 22.812 29.676 4.54-10.13 12.74-18.42 19.667-26.762 17.44-20.965 34.55-42.7 52.92-62.257-26.174 4.27-53.267 12.885-82.037 16.793-3.638.488-10.916 2.394-11.656-1.218-.807-3.885 4.625-5.228 7.774-6.323 17.047-6 38.68-7.99 58.49-10.46 10.884-1.356 21.167-2.07 32.508-2.188M588.306 162.71c2.642 4.477 5.044 9.206 6.302 15.082-1.3 1.048-4.04.648-4.614 2.424 5.28 7.808 16.385 13.99 12.866 25.292-3.2 10.327-17.736 13.09-28.885 16.536-4.148 1.288-8.21 2.435-13.343 3.656-3.945.922-10.85 2.89-13.847 1.69-2.52-.99-4.847-6.137-6.057-8.25-1.828-3.212-3.697-6.19-4.378-9.736 4.263-1.49 9.51-.455 14.332-.736 11.79-.644 24.414-3.712 32.514-8.022 3.253-1.717 8.008-4.992 7.778-9.717-.385-7.81-10.51-11.94-20.396-10.958-7.626.755-14.886 3.937-21.61 6.327-6.915 2.468-13.61 5.313-21.35 6.323-2.876-4.018-4.97-8.81-6.798-13.857 3.76-3.1 8.907-4.44 13.832-5.843 5.066-1.432 10.45-2.638 15.778-3.893 11.985-2.805 24.02-5.72 37.876-6.32" fill-rule="evenodd"/><path d="M291.69 344.367c-.326.077-.274.547-.482.732 2.872 25.254.026 52.285-10.686 67.61 5.11.638 10.894.5 16.266.49 4.533-.015 11.408-.914 15.05.24 1.49-1.247 4.255-.618 6.782-.73 8.322-.387 16.933-.705 24.518-1.212-.31-1.347-1.72-1.884-2.664-2.68-15.756-13.394-24.46-34.475-26.216-61.772-8.29-.644-15.224-1.33-22.57-2.68m-23.55-8.022c-8.982 28.53-24.534 50.487-47.324 65.185 15.223 4.125 30.005 9.98 48.067 10.445 1.518-12.03 6.487-22.85 9.466-34.047 3.086-11.64 5.12-23.24 9.447-34.283-6.542-2.438-13.4-4.56-19.656-7.3M236.1 298.896c12.803 12.822 26.953 23.23 44.422 30.643 19.423 8.24 48.896 11.837 73.307 5.102-53.286.056-92.535-17.313-122.833-41.824-.278-.037-.537-.437-.718 0 1.446 2.205 3.644 3.9 5.82 6.08m-67.716-102.64c2.39-.092 4.588 4.052 6.31 6.823 11.566 18.64 23.115 37.03 36.17 53.504 14.956 18.876 34.675 35.146 55.582 46.92 21.765 12.285 48.892 20.463 79.86 22.64 28.307 1.982 57.584-1.88 81.055-7.302 3.298-.762 6.765-2.113 10.21-1.465.785 2.912-3.948 3.22-6.072 3.892-15.645 4.887-32.09 9.006-50.983 11.193-3.05.34-6.275.325-9.214.966-3.662.798-7.47 3.388-11.4 4.846-11.818 4.47-25.25 7.493-40.296 8.525 3.527 11.817 9.366 21.567 14.813 31.373 2.757 4.97 5.61 9.798 8.72 14.364 4.26 6.176 9.59 11.342 13.12 18.468 30.353.467 62.49-5.498 90.287 2.93 6.21 1.87 12.007 4.593 17.247 7.775 1.455.89 3.808 1.61 4.104 3.653-3.404.403-6.505-1.284-9.71-2.198-22.767-6.52-51.415-4.07-76.444-3.4-15.045.4-30.73.887-46.117 2.186-22.742 1.92-47.775 3.365-67.234 2.432-20.523-.973-39.99-8.685-59.47-13.377-21.738-5.22-45.184-.573-64.562 4.14-6.642 1.61-13.406 4.083-20.39 3.158 1.03-3.468 4.867-5.103 7.76-6.565 19.683-9.94 47.886-17.765 74.037-13.373 1.824.293 4.133 1.207 5.58.962 2.31-.373 6.072-4.447 8.003-6.56 16.378-17.78 25.954-41.33 40.067-60.793-13.173-8.72-26.942-19.097-36.174-33.077-3.61-5.46-8.077-11.69-7.28-19.208-17.715-19.63-35.295-40.612-44.904-69.32-1.488-4.432-3.03-9.01-3.153-13.368.21-.19.133-.677.48-.744M313.053 231.29c-4.015 3.677-7.134 8.254-11.89 11.18 4.408 6.895 20.07 14.584 27.183 5.603.226-4.607-.914-7.84-1.706-11.426-6.327.717-11.393-1.222-13.587-5.358m15.774-2.188c-2.535-.204-5.136-3.75-9.957-2.93-1.52.28-2.842 1.22-3.882 2.445 1.57 2.805 4.48 3.933 7.53 3.885 2.028-.022 3.904-2.013 5.57-1.698 2.364.444 3.45 6.69 3.896 9.003.84 4.344.862 7.604.965 11.915-7.842 8.58-22.232 4.647-28.404-1.954-1.75-1.88-2.49-4.304-3.882-6.557-.34-.565-1.536-1.46-1.695-2.197-.844-3.71 3.27-5.776 4.373-8.744.677-.37 1.835-.282 2.424-.74 1.043-9.093 20.444-14.758 23.06-2.428M391.207 296.214c1.17-2.028 3.823-2.16 5.573-2.668 22.583-6.46 44.285-15.823 50.98-39.4 1.068-3.775 2.082-8.974 2.682-13.866.536-4.507.836-13.13 4.847-12.888 3.685.23 4.795 6.23 5.58 10.224 4.573 23.256-8.83 39.412-23.302 48.396-6.002 3.72-13.228 6.63-20.64 8.51-7.608 1.932-16.337 3.157-25.72 1.692M503.583 421.216c5.73-.447 16.3-.103 14.09 7.046-1.295 4.196-10.586 5.51-17.487 4.888-4.193-.39-8.848-1.85-8.985-5.37-.184-4.976 7.498-6.175 12.383-6.564M231.977 458.178c-3.016 7.9 2.63 14.135 8.98 16.548 6.82 2.598 17.558 2.25 24.752-.492 7.825-2.968 16.435-9.436 13.113-20.193-2.35-7.625-12.844-9.812-22.56-8.983-9.86.84-21.42 5.613-24.286 13.12m86.417-23.096c-4.75 4.9-12.78 6.502-18.93 9.977 2.955 5.495 7.148 9.036 7.758 16.048.66 7.59-2.012 13.787-6.316 17.998-9.595 9.403-26.927 9.566-45.373 11.43-7.897.804-16.877.848-24.77 3.405-2.982.973-6.65 2.346-10.194 4.137-2.688 1.362-7.332 4.366-7.032 7.053.47 4.447 14.405 3.707 18.206 3.4 12.692-1 25.306-4.91 37.854-7.293 6.21-1.184 13.003-2.646 19.66-2.672 5.173-.026 13.894 2.46 14.32 7.55.355 4.084-4.152 8.055-7.038 10.2-6.787 5.08-14.787 8.315-23.542 10.943-4.348 1.298-9.76 2.77-13.583 1.22.107-3.04 8.79-4.87 8.244-9.006-.368-2.716-6.776-2.176-9.696-1.95-11.116.877-22.53 3.15-31.323 4.133-14.275 1.6-33.028.082-40.06-6.794-3.932-3.86-4.258-10.78-.713-15.072 5.84-7.138 18.713-9.03 27.908-12.9-5.314-7.385-13.332-10.338-13.107-21.89.097-4.925 2.12-9.144 4.126-11.682 10.383-13.044 39.03-15.223 60.69-14.823 3.514.055 6.97.62 10.186.23 5.562-.63 10.58-3.372 15.297-5.344 5.436-2.27 10.823-4.82 15.045-6.325 6.062.74 9.45 4.152 12.382 8.026" fill-rule="evenodd"/><path d="M332.225 459.897c-4.07 14.497 8.255 18.58 19.663 18.468 13.273-.12 25.825-10.124 23.79-23.586-1.736-11.465-23.224-12.515-32.537-7.046-3.91-.9-8.092 2.853-12.14 2.67-.733 2.82.096 7.073 1.225 9.493m62.38-.74c.244-5.122-.4-13.762 1.454-18.717 2.76-1.484 7.348-.73 11.895-.73 4.44 0 9.24-.195 13.11.25-1.606 6.915-4.595 14.208-3.896 22.85.632 7.57 4.883 12.94 9.716 16.29 14.687-6.682 23.504-19.248 26.454-37.694 5.328-2.01 15.71-1.362 22.094-.725.64 16.19-7.756 27.165-17.713 36.242-4.743 4.303-9.705 8-15.785 11.422-5.643 3.168-12.488 7.175-18.69 8.52-6.265 1.338-8.61-1.43-12.862-5.123-7.74-6.704-14.383-16.14-14.794-29.416-1.108 1.69-.59 3.215-.985 5.354-.863 4.61-3.297 8.98-6.065 12.152-7.727 8.822-22.232 14.846-37.366 15.804-19.956 1.262-43.4-4.614-41.53-27.234 1.567-18.816 22.847-29.355 43.21-30.64 20.496-1.29 39.194 3.64 41.75 21.396M509.41 441.406c.25 2.094-.994 4.122-1.69 6.087-4.896 13.528-6.502 31.948-7.05 49.11-8.12 2.02-16.736.27-26.456 0-1.954-4.107-1.07-10.083 0-15.8 1.89-10.013 5.117-19.85 8.496-28.696 1.62-4.215 3.622-11.438 7.53-12.39 3.045-.772 6.964.027 10.19.242 3.238.19 6.535.236 8.98 1.446M537.32 479.578c-1.19 3.393 1.605 5.613 4.372 6.564 6.206 2.157 15.96 1.747 23.057.984 1.198-4.31 1.816-10.505 2.193-14.827-9.813-1.233-26.938-.304-29.624 7.278m47.83 18.005c-9.607 1.914-23.912 1.492-36.412.737-11.05-.677-24.755-1.717-31.793-7.06-1.25-.944-2.942-3.005-3.404-4.37-2.664-7.808 2.783-14.025 7.28-16.792 9.938-6.1 25.09-5.88 38.837-8.496 3.375-.648 10.654-2.34 10.92-4.622.34-2.83-5.18-4.936-8.973-5.84-7.686-1.827-17.247-.32-22.35 2.673-2.117 1.265-3.382 3.696-5.08 3.892-2.64.296-9.177-4.88-8.99-7.53.238-3.397 7.857-6.52 11.165-7.563 5.957-1.836 11.337-2.587 16.747-2.894 16.888-1.006 37.203 1.473 40.29 13.37 1.69 6.467-.604 16.41-2.17 23.097-1.798 7.552-3.922 14.705-6.068 21.398M162.798 456.725c2.59-.52 5.584-1.34 8.985-2.183 2.51-.633 7.77-1.432 8.01-3.4.297-2.498-6.34-5.2-9.7-5.843-11.79-2.247-23.817 3.932-26.225 13.13 6.083 1.267 12.755-.44 18.93-1.705m-42.472 5.843c.26.98.26 1.676 0 2.668 1.2-1.328.984-3.12 1.454-4.614 1.395-4.418 4.023-8.5 7.275-11.67 10.135-9.85 26.243-15.283 45.64-14.114 8.618.537 15.856 2.68 21.843 6.328 5.413 4.003 4.263 12.255 0 16.54-1.528 1.54-4.485 3.593-6.798 4.862-10.08 5.517-26.927 10.002-39.075 10.946-2.668.207-5.454-.71-7.523 1.21 1.225 3.393 5.665 4.185 9.218 5.106 3.833.996 8.096 1.802 11.9 1.7 12.385-.3 21.388-6.18 29.355-10.45 5.728 6.833-.445 13.242-6.543 16.043-19.722 9.13-63.082 8-65.532-15.075-1.354 1.136-1.143 2.63-1.95 3.882-6.076 9.628-25.17 13.92-41.255 14.365-7.12.188-15.537 0-21.843-.98-7.708-1.2-15.067-2.958-20.64-6.562-3.867-2.516-8.78-8.895-6.302-15.075.67-1.687 2.206-3.186 4.115-4.87 1.258-1.098 4.174-3.677 5.587-2.91 1.64.872.966 2.866 1.466 4.117.684 1.724 2.63 3.804 4.36 4.877 5.986 3.704 18.833 5.236 29.86 4.622 3.974-.233 7.005-.78 11.653-1.943 3.627-.92 8.644-2.437 8.977-5.594.226-2.102-2.01-4.65-3.63-5.84-5.572-4.054-14.853-5.542-23.31-7.54-7.102-1.68-14.84-3.63-21.363-5.588-.966-.296-1.906-.174-2.668-.492-2.768-1.154-4.5-3.955-7.28-5.598-.065-1.03.375-1.566.723-2.198-4.02-1.073-2.055-7.4-.242-9.48 1.018-.36 2.243-.5 3.397-.71 1.21-.77-.588-1.7.244-2.687 9.89-6.235 21.454-8.05 36.64-8.763 12.525-.58 25.695.777 35.933 5.355 2.576 1.154 6.117 2.834 6.313 4.133.29 2.005-3.793 4.914-5.587 6.087-1.996 1.3-5.944 3.96-7.76 3.878-1.888-.063-4.086-2.857-6.077-4.122-8.433-5.368-23.138-8.07-33.972-2.91-2.723 1.29-6.275 2.925-5.827 6.792.473 4.108 7.752 5.92 13.117 7.305 5.4 1.398 10.868 2.51 15.767 3.878 12.167 3.448 24.755 5.606 30.34 15.093" fill-rule="evenodd"/><path d="M391.692.01c5.927-.188 13.72 2.165 12.126 9-1.85 7.99-20.263 4.518-21.588-1.7-1.34-6.178 4.374-7.144 9.462-7.3M307.224 10.226c-.977 5.51-3.07 10.842-3.882 17.513-.847 6.915-.603 13.476 1.47 18.468.858 2.12 3.522 7.474 5.568 7.804 2.91.455 8.07-5.647 9.473-7.312 7.604-9.1 12.748-20.807 14.794-34.287 4.45-1.584 12.574-1.1 17.717-.485 1.103 3.652.33 7.79-.477 11.182-4.752 20.163-17.74 34.35-33.492 44.012-2.78 1.706-5.487 3.696-8.015 4.877-2.142.983-5.384 2.027-7.526 1.705-3.82-.585-8.577-8.03-10.44-10.942-3.014-4.75-5.06-9.48-6.304-14.838-2.838-12.126-2.168-27.013.477-37.94 5.662-1.61 14.26-.555 20.637.24M180.52 9.734c2.05.626 1.637 3.445 1.703 4.866.633 13.477 1.414 27.068 5.332 39.168 2.983 9.173 7.05 18.635 11.416 27.486 1.16 2.35 4.386 6.805 4.12 8.244-.497 2.664-10.095 4.86-13.104 6.09-1.435.582-3.515 1.84-4.614 1.707-2.18-.307-4.074-5.384-5.092-8.03-3.78-9.717-6.23-19.64-8.99-29.913-3.672-13.72-5.914-29.547-5.818-43.286 4.533-2.446 10.19-5.05 15.05-6.332M234.168 43.054c5.495-2.298 9.795-4.322 15.038-7.29 1.95-1.103 6.16-3.145 6.08-5.362-.126-3.267-8.233-5.302-12.148-4.855-9.558 1.085-17.628 10.417-17.22 19.453 3.007 1.088 5.693-.873 8.25-1.946m36.404 8.025c4.888 5.52 2.394 12.795-1.443 16.784-11.82 12.204-46.917 20.463-57.785 1.462-6.243-10.916-4.21-26.187 2.19-35.993 7.59-11.627 21.277-19.36 37.862-20.422 12.777-.82 24.81 5.533 20.38 18.717-2.574 7.693-11.13 14.805-17.96 19.452-5.3 3.615-11.686 6.727-19.16 9-2.058.613-6.376 1.66-6.56 2.685-.43 2.213 4.91 3.7 7.285 4.133 13.158 2.39 22.324-3.79 29.603-10.94 1.705-1.678 2.993-3.942 5.587-4.88M392.653 23.112c-1.514 4.703-4.29 8.85-6.55 13.373-6.568 13.27-9.872 29.19-15.042 44.278-3.08 1.306-7.077-.31-10.685-1.218-3.74-.955-7.675-1.787-10.664-3.175-.61-5.876 2.224-11.326 4.356-16.78 3.867-9.873 8.832-19.612 14.072-28.937 1.676-2.964 6.727-13.195 10.206-12.644 4.48.728 10.434 2.685 14.31 5.102M464.993 54.492c-1.31.87-1.477-1.184-2.672-1.22-1.31 1.313-2.482 3.703-1.2 5.598-1.988.932-3.32 1.032-6.074 1.206-3.863-9.813-11.76-19.978-25.498-16.766-.522.507-1.03-.396-1.936-.255-1.96.788-4.092 1.42-5.828 2.423-.16 1.802 1.773 3.353 2.905 4.633 3.303 6.85 9.627 11.62 15.06 16.778 3.526 3.353 8.758 8.452 8.01 16.052-.33 3.297-2.797 6.972-5.08 8.996-10.805 9.495-32.407 5.776-44.433-.485-6.78-3.514-15.664-9.476-13.355-19.692.322-1.436 1.392-3.445 2.18-4.622 1.595-2.335 4.107-4.762 7.05-5.595.872 13.078 10.44 23.2 22.323 24.812 4.525.6 13.003-.422 11.4-6.083-.38-1.378-1.646-2.873-2.664-4.135-2.027-2.538-5.305-5.143-8.49-8.03-4.72-4.27-13.86-10.345-11.642-19.944 2.338-10.104 14.9-13.575 27.9-12.654 10.298.75 20.644 6.11 27.19 11.69 2.076 1.78 4.185 4.384 4.855 7.296M124.693 69.81c-2.202 1.177-5.636 2.642-6.065 4.374-.633 2.568 1.824 6.246 2.91 8.514 1.334 2.78 2.378 4.733 3.88 7.545 2.835 5.258 6.468 14.78 14.568 13.617 5.8-.843 11.142-8.97 11.168-16.06.026-10.797-7.726-22.46-18.698-20.902-2.997.418-4.988 1.425-7.763 2.912m-10.202-4.133c8.212-5.936 15.816-17.455 31.324-13.133 13.037 3.638 21.555 19.08 20.87 34.287-.68 15.176-9.04 26.214-19.904 32.09-.7.367-1.436.7-1.93 0 .29 1.148-.445 1.18-.738 1.72-4.38 2.503-8 4.556-12.61 7.535-1.196.762-3.1 2.472-4.123 2.427-2.284-.077-4.496-5.26-5.843-8.022-7.642-15.72-14.483-30.816-21.603-47.427-1.195-2.78-2.753-6.065-4.122-9.717-1.106-2.94-3.534-7.815-3.164-9.972.315-1.79 3.597-3.23 5.584-4.622 2.298-1.613 4.892-4.603 7.29-4.38 2.497.23 3.37 7.618 4.122 9.96 1.295 4.008 1.93 6.39 4.847 9.255M500.923 49.15c5.517-1.05 16.27 3.016 15.278 10.442-.46 3.493-5.042 5.4-9.46 4.633-4.43-.792-11.734-5.48-11.16-10.713.3-2.75 2.945-3.926 5.343-4.362M499.463 71.275c-1.188 2.48-3.67 4.12-5.58 5.825-11.826 10.553-21.602 22.623-31.323 36.01-1.258 1.718-3.427 5.95-4.84 6.32-3.05.786-7.856-3.877-9.72-5.116-1.466-.973-3.072-1.89-4.608-2.916-1.017-.692-3.71-2.368-3.896-3.404-.263-1.614 2.757-5.247 4.385-7.3 8.39-10.658 18.71-20.246 28.656-28.938 3.874-3.422 8.85-7.915 13.58-9.48.28-.103.633-.318.966-.25 4.766.976 9.302 6.415 12.38 9.25M214.743 102.896c-20.248 10.358-36.844 27.494-35.922 56.896.91 28.977 15.157 48.633 28.645 64.93 18.612 22.472 42.513 40.218 69.65 54.964 23.15 12.574 50.817 23.016 81.567 27.242 2.142.288 4.122.403 6.06 1.21 1.973.817 3.534 1.595 5.6 1.942.7.122.99.204 1.205.245 1.666.314 4.54-1.114 6.794-1.222 2.706-.107 5.796.448 8.264.496 5.558.073 11.223.48 16.737.247 32.027-1.417 57.588-13.765 71.106-33.088 4.903-6.97 8.507-15.698 9.484-25.293 1.1-10.78-.222-21.102-3.157-30.638-5.48-17.737-14.41-32.32-24.507-44.99-21.543-26.99-47.586-44.977-78.413-60.555-15.112-7.64-31.815-14.054-50.73-18.72-17.13-4.237-40.827-7.98-62.37-6.32-19.146 1.47-35.9 5.41-50.01 12.65M269.6 84.888c18.92-.655 41.022 2.85 59.46 7.545 18.576 4.714 36.363 11.15 52.197 18.72 31.767 15.204 58.983 34.18 82.032 59.575 11.896 13.103 20.477 25.532 27.185 43.778 6.63 18.046 8.663 40.685.48 58.842-6.988 15.59-20.624 27.246-36.162 34.79-16.185 7.882-34.96 11.942-57.277 12.408-42.553.873-81.48-10.176-113.103-25.295-32.078-15.32-59.546-35.594-81.078-60.567-10.742-12.448-20.94-26.41-27.186-43.753-3.12-8.688-5.785-17.89-6.303-29.19-1.602-34.303 18.384-54.45 41.26-65.175 16.87-7.915 35.244-10.868 58.493-11.678M522.756 140.82c9.965-.872 20.207-8.806 20.877-17.024.156-1.776-.092-3.52-.485-4.615-2.605-7.277-11.593-12.998-21.842-12.165-8.37.7-18.113 6.705-20.874 13.872-3.51 9.047 4.43 15.208 10.206 17.987 1.04 0 .177 1.928 1.443 1.706 3.527-.13 6.846.578 10.676.24m-8.004-44.99c15.693-.79 26.96 7.425 33.984 16.783 4.11 5.462 8.588 15.912 4.36 25.28-6.232 13.873-24.11 21.485-40.286 20.19-15.427-1.218-30.735-12.2-34.472-25.78-4.715-17.18 7.593-26.983 17.972-32.093 5.436-2.68 11.153-4.015 18.442-4.38M92.9 126.712c-4.04 2.538-14.45 19.015-5.583 22.864 5.502 2.39 10.12-2.672 13.11-5.584 1.587-1.558 4.866-4.292 4.85-6.098-.014-1.625-3.488-4.255-5.342-6.07-2.254-2.223-4.333-5.79-6.553-5.353-.307.068-.307.142-.48.242m-8.986-12.152c-1.824-2.213-5.062-2.054-7.282-1.466-5.12 1.358-10.598 8.037-11.415 13.377-.375 2.47.47 5.008 0 7.065-2.207 1.876-7.176 1.843-9.21.233-2.233-1.754-2.825-7.445-1.696-11.678 2.51-9.517 15.656-23.997 25.965-25.525 9.964-1.487 14.985 4.648 20.147 9.71 5.52 5.45 10.8 11.585 16.026 18.01 2.013 2.497 7.12 7.21 7.275 9.73.185 3.26-4.46 7.29-6.553 9.485-7.268 7.552-16.678 17.943-26.22 21.636-1.625.632-6.07 1.72-8.985 1.22-2.88-.492-5.88-3.22-7.523-5.098-2.893-3.316-5.473-9.854-4.355-15.564.98-5.166 3.474-9.56 5.813-13.628 3.02-5.262 7.13-9.673 8.01-17.506"/><path d="M207.708 189.465c-2.31-.803-2.36-3.626-2.916-5.354-1.85-5.746-3.42-13.487-3.408-20.92.1-28.564 22.964-48.242 49.773-50.08 4.63-.334 12.744.11 12.862 3.64.114 3.175-7.15 4.737-10.443 5.828-21.21 7.01-37.185 15.775-42.713 38.18-2.11 8.555-2.08 18.243-3.156 28.707M17.406 165.137c-2.8 4.603-3.963 9.813-3.397 17.273 1.03 13.287 11.718 25.032 23.307 26.512 9.887 1.247 17.266-5.17 20.874-10.712 3.4-5.2 6.465-13.14 4.367-21.636-.614-2.468-3.597-7.552-2.424-8.99 1.495-1.855 6.51.683 7.527 1.205 6.468 3.34 9.935 10.782 9.71 20.188-.2 7.937-3.227 15.696-6.802 22.376-5.54 10.32-13.998 21.147-30.827 19.933-9.738-.696-18.467-6.483-24.51-12.396-11.8-11.57-19.763-34.567-12.377-55.22 1.598-4.472 3.437-8.28 6.057-12.395 2.775-4.333 7.097-11.03 13.6-11.42 11.57-.713 11.018 17.663 3.636 22.61-2.616 1.76-5.554 1.506-8.74 2.672M353.084 157.604c4.255 7.667 6.51 16.688 8.992 25.765 4.92 17.964 9.42 36.517 14.808 54.723 1.236 4.192 2.513 8.192 3.63 13.632.567 2.683 2.757 13.032-.965 13.854-3.705.82-6.222-6.447-7.276-9.244-1.643-4.36-2.25-8.907-3.16-13.125-5.673-26.79-13.595-51.944-17.225-80.5-2.107.95-2.932 3.312-4.138 5.1-16.492 24.8-35.33 48.884-54.62 71.748-4.185 4.996-7.963 9.854-14.07 12.64 3.324 4.237 8.464 7.11 13.592 9.97 14.47 8.125 33.803 14.985 55.834 14.353 16.42-.47 27.63-6.667 39.083-12.632.804.95-.772 1.972-1.22 2.412-10.798 11.05-29.4 17.914-50.002 17.762-22.36-.174-41.77-8.363-56.067-17.02-15.2-9.212-28.2-20.65-36.174-36.975-6.027-12.352-8.725-30.102-2.172-44.01 1.784-3.798 4.174-8.157 8.5-9.237 2.6 3.112.318 7.156-.248 10.457-2.076 11.855-1.432 22.73 2.42 33.066 4.74 12.692 13.306 22.15 22.812 29.676 4.54-10.13 12.74-18.42 19.667-26.762 17.44-20.965 34.55-42.7 52.92-62.257-26.174 4.27-53.267 12.885-82.037 16.793-3.638.488-10.916 2.394-11.656-1.218-.807-3.885 4.625-5.228 7.774-6.323 17.047-6 38.68-7.99 58.49-10.46 10.884-1.356 21.167-2.07 32.508-2.188M588.306 162.71c2.642 4.477 5.044 9.206 6.302 15.082-1.3 1.048-4.04.648-4.614 2.424 5.28 7.808 16.385 13.99 12.866 25.292-3.2 10.327-17.736 13.09-28.885 16.536-4.148 1.288-8.21 2.435-13.343 3.656-3.945.922-10.85 2.89-13.847 1.69-2.52-.99-4.847-6.137-6.057-8.25-1.828-3.212-3.697-6.19-4.378-9.736 4.263-1.49 9.51-.455 14.332-.736 11.79-.644 24.414-3.712 32.514-8.022 3.253-1.717 8.008-4.992 7.778-9.717-.385-7.81-10.51-11.94-20.396-10.958-7.626.755-14.886 3.937-21.61 6.327-6.915 2.468-13.61 5.313-21.35 6.323-2.876-4.018-4.97-8.81-6.798-13.857 3.76-3.1 8.907-4.44 13.832-5.843 5.066-1.432 10.45-2.638 15.778-3.893 11.985-2.805 24.02-5.72 37.876-6.32"/><path d="M291.69 344.367c-.326.077-.274.547-.482.732 2.872 25.254.026 52.285-10.686 67.61 5.11.638 10.894.5 16.266.49 4.533-.015 11.408-.914 15.05.24 1.49-1.247 4.255-.618 6.782-.73 8.322-.387 16.933-.705 24.518-1.212-.31-1.347-1.72-1.884-2.664-2.68-15.756-13.394-24.46-34.475-26.216-61.772-8.29-.644-15.224-1.33-22.57-2.68m-23.55-8.022c-8.982 28.53-24.534 50.487-47.324 65.185 15.223 4.125 30.005 9.98 48.067 10.445 1.518-12.03 6.487-22.85 9.466-34.047 3.086-11.64 5.12-23.24 9.447-34.283-6.542-2.438-13.4-4.56-19.656-7.3M236.1 298.896c12.803 12.822 26.953 23.23 44.422 30.643 19.423 8.24 48.896 11.837 73.307 5.102-53.286.056-92.535-17.313-122.833-41.824-.278-.037-.537-.437-.718 0 1.446 2.205 3.644 3.9 5.82 6.08m-67.716-102.64c2.39-.092 4.588 4.052 6.31 6.823 11.566 18.64 23.115 37.03 36.17 53.504 14.956 18.876 34.675 35.146 55.582 46.92 21.765 12.285 48.892 20.463 79.86 22.64 28.307 1.982 57.584-1.88 81.055-7.302 3.298-.762 6.765-2.113 10.21-1.465.785 2.912-3.948 3.22-6.072 3.892-15.645 4.887-32.09 9.006-50.983 11.193-3.05.34-6.275.325-9.214.966-3.662.798-7.47 3.388-11.4 4.846-11.818 4.47-25.25 7.493-40.296 8.525 3.527 11.817 9.366 21.567 14.813 31.373 2.757 4.97 5.61 9.798 8.72 14.364 4.26 6.176 9.59 11.342 13.12 18.468 30.353.467 62.49-5.498 90.287 2.93 6.21 1.87 12.007 4.593 17.247 7.775 1.455.89 3.808 1.61 4.104 3.653-3.404.403-6.505-1.284-9.71-2.198-22.767-6.52-51.415-4.07-76.444-3.4-15.045.4-30.73.887-46.117 2.186-22.742 1.92-47.775 3.365-67.234 2.432-20.523-.973-39.99-8.685-59.47-13.377-21.738-5.22-45.184-.573-64.562 4.14-6.642 1.61-13.406 4.083-20.39 3.158 1.03-3.468 4.867-5.103 7.76-6.565 19.683-9.94 47.886-17.765 74.037-13.373 1.824.293 4.133 1.207 5.58.962 2.31-.373 6.072-4.447 8.003-6.56 16.378-17.78 25.954-41.33 40.067-60.793-13.173-8.72-26.942-19.097-36.174-33.077-3.61-5.46-8.077-11.69-7.28-19.208-17.715-19.63-35.295-40.612-44.904-69.32-1.488-4.432-3.03-9.01-3.153-13.368.21-.19.133-.677.48-.744M313.053 231.29c-4.015 3.677-7.134 8.254-11.89 11.18 4.408 6.895 20.07 14.584 27.183 5.603.226-4.607-.914-7.84-1.706-11.426-6.327.717-11.393-1.222-13.587-5.358m15.774-2.188c-2.535-.204-5.136-3.75-9.957-2.93-1.52.28-2.842 1.22-3.882 2.445 1.57 2.805 4.48 3.933 7.53 3.885 2.028-.022 3.904-2.013 5.57-1.698 2.364.444 3.45 6.69 3.896 9.003.84 4.344.862 7.604.965 11.915-7.842 8.58-22.232 4.647-28.404-1.954-1.75-1.88-2.49-4.304-3.882-6.557-.34-.565-1.536-1.46-1.695-2.197-.844-3.71 3.27-5.776 4.373-8.744.677-.37 1.835-.282 2.424-.74 1.043-9.093 20.444-14.758 23.06-2.428M391.207 296.214c1.17-2.028 3.823-2.16 5.573-2.668 22.583-6.46 44.285-15.823 50.98-39.4 1.068-3.775 2.082-8.974 2.682-13.866.536-4.507.836-13.13 4.847-12.888 3.685.23 4.795 6.23 5.58 10.224 4.573 23.256-8.83 39.412-23.302 48.396-6.002 3.72-13.228 6.63-20.64 8.51-7.608 1.932-16.337 3.157-25.72 1.692M503.583 421.216c5.73-.447 16.3-.103 14.09 7.046-1.295 4.196-10.586 5.51-17.487 4.888-4.193-.39-8.848-1.85-8.985-5.37-.184-4.976 7.498-6.175 12.383-6.564M231.977 458.178c-3.016 7.9 2.63 14.135 8.98 16.548 6.82 2.598 17.558 2.25 24.752-.492 7.825-2.968 16.435-9.436 13.113-20.193-2.35-7.625-12.844-9.812-22.56-8.983-9.86.84-21.42 5.613-24.286 13.12m86.417-23.096c-4.75 4.9-12.78 6.502-18.93 9.977 2.955 5.495 7.148 9.036 7.758 16.048.66 7.59-2.012 13.787-6.316 17.998-9.595 9.403-26.927 9.566-45.373 11.43-7.897.804-16.877.848-24.77 3.405-2.982.973-6.65 2.346-10.194 4.137-2.688 1.362-7.332 4.366-7.032 7.053.47 4.447 14.405 3.707 18.206 3.4 12.692-1 25.306-4.91 37.854-7.293 6.21-1.184 13.003-2.646 19.66-2.672 5.173-.026 13.894 2.46 14.32 7.55.355 4.084-4.152 8.055-7.038 10.2-6.787 5.08-14.787 8.315-23.542 10.943-4.348 1.298-9.76 2.77-13.583 1.22.107-3.04 8.79-4.87 8.244-9.006-.368-2.716-6.776-2.176-9.696-1.95-11.116.877-22.53 3.15-31.323 4.133-14.275 1.6-33.028.082-40.06-6.794-3.932-3.86-4.258-10.78-.713-15.072 5.84-7.138 18.713-9.03 27.908-12.9-5.314-7.385-13.332-10.338-13.107-21.89.097-4.925 2.12-9.144 4.126-11.682 10.383-13.044 39.03-15.223 60.69-14.823 3.514.055 6.97.62 10.186.23 5.562-.63 10.58-3.372 15.297-5.344 5.436-2.27 10.823-4.82 15.045-6.325 6.062.74 9.45 4.152 12.382 8.026"/><path d="M332.225 459.897c-4.07 14.497 8.255 18.58 19.663 18.468 13.273-.12 25.825-10.124 23.79-23.586-1.736-11.465-23.224-12.515-32.537-7.046-3.91-.9-8.092 2.853-12.14 2.67-.733 2.82.096 7.073 1.225 9.493m62.38-.74c.244-5.122-.4-13.762 1.454-18.717 2.76-1.484 7.348-.73 11.895-.73 4.44 0 9.24-.195 13.11.25-1.606 6.915-4.595 14.208-3.896 22.85.632 7.57 4.883 12.94 9.716 16.29 14.687-6.682 23.504-19.248 26.454-37.694 5.328-2.01 15.71-1.362 22.094-.725.64 16.19-7.756 27.165-17.713 36.242-4.743 4.303-9.705 8-15.785 11.422-5.643 3.168-12.488 7.175-18.69 8.52-6.265 1.338-8.61-1.43-12.862-5.123-7.74-6.704-14.383-16.14-14.794-29.416-1.108 1.69-.59 3.215-.985 5.354-.863 4.61-3.297 8.98-6.065 12.152-7.727 8.822-22.232 14.846-37.366 15.804-19.956 1.262-43.4-4.614-41.53-27.234 1.567-18.816 22.847-29.355 43.21-30.64 20.496-1.29 39.194 3.64 41.75 21.396M509.41 441.406c.25 2.094-.994 4.122-1.69 6.087-4.896 13.528-6.502 31.948-7.05 49.11-8.12 2.02-16.736.27-26.456 0-1.954-4.107-1.07-10.083 0-15.8 1.89-10.013 5.117-19.85 8.496-28.696 1.62-4.215 3.622-11.438 7.53-12.39 3.045-.772 6.964.027 10.19.242 3.238.19 6.535.236 8.98 1.446M537.32 479.578c-1.19 3.393 1.605 5.613 4.372 6.564 6.206 2.157 15.96 1.747 23.057.984 1.198-4.31 1.816-10.505 2.193-14.827-9.813-1.233-26.938-.304-29.624 7.278m47.83 18.005c-9.607 1.914-23.912 1.492-36.412.737-11.05-.677-24.755-1.717-31.793-7.06-1.25-.944-2.942-3.005-3.404-4.37-2.664-7.808 2.783-14.025 7.28-16.792 9.938-6.1 25.09-5.88 38.837-8.496 3.375-.648 10.654-2.34 10.92-4.622.34-2.83-5.18-4.936-8.973-5.84-7.686-1.827-17.247-.32-22.35 2.673-2.117 1.265-3.382 3.696-5.08 3.892-2.64.296-9.177-4.88-8.99-7.53.238-3.397 7.857-6.52 11.165-7.563 5.957-1.836 11.337-2.587 16.747-2.894 16.888-1.006 37.203 1.473 40.29 13.37 1.69 6.467-.604 16.41-2.17 23.097-1.798 7.552-3.922 14.705-6.068 21.398M162.798 456.725c2.59-.52 5.584-1.34 8.985-2.183 2.51-.633 7.77-1.432 8.01-3.4.297-2.498-6.34-5.2-9.7-5.843-11.79-2.247-23.817 3.932-26.225 13.13 6.083 1.267 12.755-.44 18.93-1.705m-42.472 5.843c.26.98.26 1.676 0 2.668 1.2-1.328.984-3.12 1.454-4.614 1.395-4.418 4.023-8.5 7.275-11.67 10.135-9.85 26.243-15.283 45.64-14.114 8.618.537 15.856 2.68 21.843 6.328 5.413 4.003 4.263 12.255 0 16.54-1.528 1.54-4.485 3.593-6.798 4.862-10.08 5.517-26.927 10.002-39.075 10.946-2.668.207-5.454-.71-7.523 1.21 1.225 3.393 5.665 4.185 9.218 5.106 3.833.996 8.096 1.802 11.9 1.7 12.385-.3 21.388-6.18 29.355-10.45 5.728 6.833-.445 13.242-6.543 16.043-19.722 9.13-63.082 8-65.532-15.075-1.354 1.136-1.143 2.63-1.95 3.882-6.076 9.628-25.17 13.92-41.255 14.365-7.12.188-15.537 0-21.843-.98-7.708-1.2-15.067-2.958-20.64-6.562-3.867-2.516-8.78-8.895-6.302-15.075.67-1.687 2.206-3.186 4.115-4.87 1.258-1.098 4.174-3.677 5.587-2.91 1.64.872.966 2.866 1.466 4.117.684 1.724 2.63 3.804 4.36 4.877 5.986 3.704 18.833 5.236 29.86 4.622 3.974-.233 7.005-.78 11.653-1.943 3.627-.92 8.644-2.437 8.977-5.594.226-2.102-2.01-4.65-3.63-5.84-5.572-4.054-14.853-5.542-23.31-7.54-7.102-1.68-14.84-3.63-21.363-5.588-.966-.296-1.906-.174-2.668-.492-2.768-1.154-4.5-3.955-7.28-5.598-.065-1.03.375-1.566.723-2.198-4.02-1.073-2.055-7.4-.242-9.48 1.018-.36 2.243-.5 3.397-.71 1.21-.77-.588-1.7.244-2.687 9.89-6.235 21.454-8.05 36.64-8.763 12.525-.58 25.695.777 35.933 5.355 2.576 1.154 6.117 2.834 6.313 4.133.29 2.005-3.793 4.914-5.587 6.087-1.996 1.3-5.944 3.96-7.76 3.878-1.888-.063-4.086-2.857-6.077-4.122-8.433-5.368-23.138-8.07-33.972-2.91-2.723 1.29-6.275 2.925-5.827 6.792.473 4.108 7.752 5.92 13.117 7.305 5.4 1.398 10.868 2.51 15.767 3.878 12.167 3.448 24.755 5.606 30.34 15.093"/></svg>