<svg xmlns="http://www.w3.org/2000/svg" width="400" height="238.812"><path d="M270.17 108.224l17.208-19.31-89.76-83.992-17.206 19.823" fill="#fff"/><path d="M270.17 108.224l17.208-19.31-89.76-83.992-17.206 19.823 89.76 83.48z" fill="none" stroke="#231f20" stroke-width="4.7142"/><path d="M244.573 107.177l17.207-19.31-89.712-83.992-17.207 19.828" fill="#fff"/><path d="M244.573 107.177l17.207-19.31-89.712-83.992-17.207 19.828 89.713 83.474z" fill="none" stroke="#231f20" stroke-width="4.7142"/><path d="M221.096 108.224l17.207-19.31-89.71-83.992-17.208 19.823" fill="#fff"/><path d="M221.096 108.224l17.207-19.31-89.71-83.992-17.208 19.823 89.71 83.48z" fill="none" stroke="#231f20" stroke-width="4.7142"/><path d="M197.62 106.66l17.206-19.306-89.71-83.997-17.208 19.827" fill="#fff"/><path d="M197.62 106.66l17.206-19.306-89.71-83.997-17.208 19.827 89.71 83.475z" fill="none" stroke="#231f20" stroke-width="4.7142"/><path d="M51.573 108.738v61.567h97.537v-62.08l-49.028-46.96" fill="#231f20"/><path d="M102.44 166.91h43.795v-56.343H102.44v56.344z" fill="#ad3b4c"/><path d="M97.395 106.66H56.948l40.447-39.077" fill="#00a75c"/><path d="M144.35 106.66h-41.91V66.743" fill="#e8dc3d"/><path d="M34.32 105.09v65.734H7.212V101.96L94.85 5.967l87.637 83.47-15.65 15.65L97.96 40.402" fill="#fff"/><path d="M34.32 105.09v65.734H7.212V101.96L94.85 5.967l87.637 83.47-15.65 15.65L97.96 40.402l-63.64 64.69z" fill="none" stroke="#231f20" stroke-width="4.7142"/><path d="M53.46 166.996h44.17v-56.514H53.46v56.514z" fill="#e45f52"/><path d="M198.185 124.77v15.723h-1.273c-.99-4.097-2.78-7.246-5.374-9.433-2.64-2.183-5.563-3.277-8.91-3.277-2.734 0-5.28.81-7.59 2.442-2.31 1.627-4.007 3.757-5.044 6.388-1.367 3.366-2.074 7.114-2.074 11.24 0 4.057.47 7.758 1.508 11.086.99 3.337 2.546 5.854 4.667 7.566 2.17 1.706 4.903 2.56 8.345 2.56 2.78 0 5.327-.628 7.637-1.882 2.31-1.244 4.76-3.398 7.354-6.453v3.914c-2.498 2.658-5.09 4.582-7.778 5.774-2.687 1.193-5.845 1.787-9.428 1.787-4.714 0-8.91-.97-12.587-2.91-3.677-1.94-6.506-4.727-8.486-8.357-1.98-3.64-3.016-7.51-3.016-11.61 0-4.333 1.132-8.43 3.347-12.314 2.217-3.88 5.187-6.888 8.958-9.033 3.725-2.134 7.732-3.21 11.974-3.21 3.112 0 6.365.69 9.853 2.075 1.98.8 3.3 1.202 3.82 1.202.706 0 1.32-.254 1.79-.782.52-.528.85-1.353 1.037-2.494M228.544 155.78l-6.6-15.617-6.788 15.618h13.388zm1.132 2.476h-15.65l-1.887 4.417c-.614 1.47-.897 2.687-.897 3.644 0 1.278.52 2.21 1.51 2.81.565.358 2.026.627 4.336.806v1.24h-14.757v-1.24c1.603-.245 2.923-.92 3.913-2.027 1.037-1.1 2.31-3.385 3.82-6.84l15.838-36.196h.613l15.98 37.2c1.51 3.526 2.783 5.746 3.773 6.656.707.693 1.79 1.094 3.11 1.207v1.24h-21.4v-1.24h.847c1.744 0 2.97-.245 3.63-.73.52-.364.754-.878.754-1.542 0-.405-.093-.815-.234-1.244 0-.198-.377-1.037-.943-2.508M267.908 128.382v35.39c0 1.876.094 3.02.283 3.445l.897.972c.565.338 1.414.503 2.545.503 3.63 0 6.412-1.273 8.297-3.814 2.64-3.433 3.96-8.764 3.96-15.99 0-5.828-.896-10.472-2.688-13.95-1.414-2.725-3.253-4.573-5.468-5.554-1.556-.693-4.196-1.028-7.826-1.004m-16.877 42.786v-1.24h1.463c1.273 0 2.263-.198 2.97-.613.707-.415 1.178-.98 1.508-1.692.19-.472.284-1.876.284-4.215v-29.84c0-2.32-.094-3.767-.33-4.347-.236-.58-.754-1.088-1.46-1.526-.756-.43-1.698-.65-2.97-.65h-1.463v-1.236h19.848c5.28 0 9.523.73 12.776 2.2 3.912 1.812 6.93 4.546 8.957 8.2 2.028 3.662 3.065 7.792 3.065 12.412 0 3.19-.52 6.128-1.51 8.815-.99 2.683-2.31 4.903-3.912 6.657-1.555 1.75-3.394 3.158-5.468 4.214-2.12 1.056-4.62 1.877-7.637 2.457-1.32.273-3.44.405-6.27.405M300.06 125.808h22.863v1.235h-1.18c-1.696 0-2.874.184-3.534.556-.614.362-1.086.867-1.368 1.517-.283.65-.425 2.263-.425 4.85v22.21c0 4.06.33 6.75.943 8.066.566 1.32 1.556 2.404 2.923 3.28 1.367.868 3.11 1.302 5.186 1.302 2.403 0 4.477-.55 6.127-1.66 1.697-1.098 2.97-2.62 3.818-4.558.85-1.942 1.273-5.327 1.273-10.14v-18.5c0-2.03-.235-3.483-.66-4.35-.377-.867-.943-1.47-1.555-1.805-.99-.514-2.357-.77-4.15-.77v-1.234h15.322v1.235h-.895c-1.273 0-2.31.255-3.112.77-.848.512-1.414 1.28-1.79 2.308-.284.713-.425 2-.425 3.848v17.226c0 5.336-.378 9.18-1.038 11.545-.707 2.36-2.357 4.534-5.044 6.524-2.64 1.984-6.27 2.974-10.84 2.974-3.867 0-6.837-.528-8.91-1.57-2.83-1.428-4.857-3.262-6.035-5.487-1.18-2.23-1.745-5.232-1.745-9.003v-22.21c0-2.61-.188-4.232-.47-4.868-.284-.638-.755-1.142-1.463-1.52-.66-.38-1.98-.556-3.818-.537M364.55 128.25v19.87h1.885c3.017 0 5.28-.287 6.788-.858 1.51-.56 2.687-1.588 3.536-3.07.848-1.488 1.32-3.42 1.32-5.807 0-3.46-.802-6.01-2.405-7.665-1.556-1.645-4.102-2.47-7.59-2.47h-3.536zm0 22.246v12.71c0 2.46.188 3.997.47 4.634.283.636.802 1.145 1.556 1.527.707.377 2.122.566 4.15.566v1.235H348.05v-1.235c2.027 0 3.44-.198 4.148-.585.754-.39 1.273-.9 1.556-1.522.283-.627.424-2.16.424-4.62v-29.44c0-2.452-.14-3.993-.424-4.63-.283-.632-.85-1.14-1.556-1.522-.754-.382-2.12-.57-4.148-.57v-1.236h20.553c5.375 0 9.287.377 11.786 1.136 2.497.76 4.525 2.16 6.08 4.196 1.556 2.046 2.357 4.436 2.357 7.184 0 3.343-1.178 6.11-3.535 8.292-1.51 1.377-3.63 2.42-6.317 3.107l10.654 15.36c1.413 1.98 2.403 3.22 2.97 3.71.894.692 1.932 1.07 3.11 1.14v1.235h-13.954l-14.284-20.672M8.344 198.016l2.452 1.14c-.378 2.004-1.038 3.494-1.886 4.46-.85.98-1.933 1.466-3.3 1.466-1.65 0-2.97-.834-4.054-2.498C.52 200.914 0 198.634 0 195.748c0-3.06.52-5.435 1.603-7.123 1.037-1.693 2.45-2.536 4.195-2.536 1.51 0 2.735.663 3.678 1.988.565.787.99 1.914 1.272 3.385l-2.498.88c-.142-.95-.424-1.705-.896-2.26-.47-.548-1.037-.822-1.697-.822-.943 0-1.65.487-2.216 1.463-.61.975-.894 2.564-.894 4.747 0 2.324.283 3.98.848 4.964.566.985 1.32 1.48 2.216 1.48.66 0 1.226-.316 1.697-.943.47-.626.85-1.61 1.037-2.954M19.47 197.497l-1.698-6.812-1.697 6.812h3.395zm4.62 7.27h-2.735l-1.084-4.173h-4.95l-1.036 4.172h-2.64l4.808-18.366h2.688M25.362 204.766V186.4h3.725l2.262 12.525 2.215-12.525h3.77v18.366H34.98v-14.458l-2.452 14.458h-2.404l-2.452-14.458v14.458M46.388 197.497l-1.745-6.812-1.65 6.812h3.395zm4.572 7.27h-2.734l-1.037-4.173h-4.95l-1.038 4.172h-2.64l4.81-18.366h2.638M54.78 194.164h1.885c1.178 0 1.932-.076 2.215-.226l.707-.778c.19-.368.283-.82.283-1.377 0-.617-.14-1.117-.33-1.5l-.943-.72c-.235-.038-.848-.057-1.838-.057h-1.98v4.658zm-2.452 10.602V186.4h5.232c1.32 0 2.263.16 2.876.49.613.33 1.084.92 1.46 1.763.33.848.52 1.805.52 2.89 0 1.38-.283 2.522-.8 3.422-.567.89-1.37 1.457-2.453 1.693.52.466.99.98 1.32 1.54.377.562.85 1.557 1.462 2.98l1.508 3.588h-3.017l-1.79-4.002c-.66-1.424-1.086-2.324-1.32-2.697l-.756-.76c-.282-.14-.707-.206-1.272-.206h-.52v7.666M71.326 197.497l-1.697-6.812-1.65 6.812h3.346zm4.62 7.27h-2.734l-1.085-4.173h-4.95l-.99 4.172H63.5l4.856-18.366h2.64M83.913 189.506v12.168h1.885c.708 0 1.18-.062 1.51-.175l.99-.77c.282-.358.47-.947.66-1.772.187-.82.235-1.942.235-3.366 0-1.42-.048-2.508-.236-3.267-.19-.76-.424-1.348-.707-1.782-.283-.42-.707-.71-1.18-.862-.33-.112-.99-.174-2.026-.174h-1.13zm-2.5-3.106h4.574c1.037 0 1.79.113 2.357.353.707.31 1.367.877 1.886 1.683.47.816.895 1.806 1.178 2.98.236 1.17.377 2.62.377 4.34 0 1.515-.094 2.82-.377 3.91-.283 1.333-.754 2.418-1.32 3.247-.424.627-1.037 1.113-1.744 1.467-.566.254-1.32.386-2.216.386h-4.714M93.907 204.766V186.4h9.193v3.106h-6.695v4.07h6.223v3.09h-6.223v5.008h6.93v3.092M110.218 186.4h2.5v9.947c0 1.58.046 2.602.093 3.073.142.75.378 1.35.802 1.806.377.452.943.688 1.65.688s1.226-.217 1.603-.65c.33-.425.566-.957.613-1.584.094-.623.14-1.664.14-3.12V186.4h2.5v9.645c0 2.21-.094 3.767-.236 4.676-.094.91-.377 1.684-.707 2.307-.377.622-.85 1.122-1.46 1.494-.614.374-1.416.562-2.406.562-1.18 0-2.075-.203-2.688-.613-.613-.406-1.084-.925-1.46-1.575-.33-.65-.567-1.325-.66-2.037-.19-1.05-.284-2.602-.284-4.657M125.256 194.164h1.84c1.224 0 1.932-.076 2.262-.226l.707-.778c.14-.368.235-.82.235-1.377 0-.617-.094-1.117-.33-1.5l-.942-.72c-.19-.038-.802-.057-1.84-.057h-1.932v4.658zm-2.498 10.602V186.4h5.232c1.368 0 2.31.16 2.923.49.566.33 1.085.92 1.415 1.763.377.848.565 1.805.565 2.89 0 1.38-.283 2.522-.848 3.422-.52.89-1.367 1.457-2.452 1.693.566.466.99.98 1.367 1.54.33.562.802 1.557 1.415 2.98l1.508 3.588h-2.97l-1.838-4.002c-.613-1.424-1.085-2.324-1.32-2.697l-.754-.76c-.235-.14-.66-.206-1.225-.206h-.52v7.666M137.75 196.762v4.912h2.31c.895 0 1.46-.043 1.696-.113l.896-.735c.235-.386.377-.91.377-1.56 0-.552-.095-1.018-.284-1.405l-.8-.834c-.33-.175-1.038-.264-2.17-.264h-2.027zm0-7.303v4.242h1.602c.99 0 1.603-.02 1.838-.06.425-.077.755-.298.99-.66.283-.36.377-.84.377-1.434 0-.566-.094-1.028-.33-1.382l-.942-.65c-.236-.043-.943-.057-2.122-.057h-1.414zm-2.5-3.06h4.95c.99 0 1.698.06 2.17.184.47.117.895.372 1.32.754.376.382.66.89.942 1.532.235.64.377 1.358.377 2.154 0 .863-.19 1.646-.473 2.367-.33.717-.754 1.26-1.272 1.618.754.32 1.32.877 1.744 1.66.376.787.612 1.715.612 2.776 0 .83-.142 1.65-.425 2.432-.235.788-.612 1.424-1.084 1.89-.424.477-.99.765-1.65.873-.424.074-1.414.112-3.017.126h-4.196M154.296 197.497l-1.744-6.812-1.65 6.812h3.394zm4.573 7.27h-2.69l-1.083-4.173h-4.95l-1.037 4.172h-2.64l4.81-18.366h2.64M160.236 204.766V186.4h2.45l5.045 12.266V186.4h2.31v18.366h-2.497l-4.997-11.98v11.98M172.634 204.766h2.5V186.4h-2.5v18.366zM176.405 204.766v-3.342l6.506-11.918h-5.75V186.4h9.05v2.88l-6.787 12.394h7.07v3.092M194.602 197.497l-1.697-6.812-1.65 6.812h3.347zm4.62 7.27h-2.734l-1.084-4.173h-4.95l-.99 4.172h-2.64l4.808-18.366h2.64M203.04 189.506v12.168h1.84c.706 0 1.225-.062 1.555-.175l.99-.77c.283-.358.47-.947.66-1.772.14-.82.236-1.942.236-3.366 0-1.42-.094-2.508-.235-3.267-.19-.76-.424-1.348-.707-1.782-.33-.42-.707-.71-1.18-.862-.33-.112-1.036-.174-2.026-.174h-1.13zm-2.498-3.106h4.573c1.037 0 1.79.113 2.357.353.707.31 1.32.877 1.838 1.683.52.816.943 1.806 1.18 2.98.282 1.17.423 2.62.423 4.34 0 1.515-.14 2.82-.377 3.91-.33 1.333-.754 2.418-1.32 3.247-.424.627-1.037 1.113-1.744 1.467-.566.254-1.32.386-2.216.386h-4.714M215.11 195.57c0 2.073.33 3.657.942 4.727.66 1.075 1.508 1.617 2.498 1.617.99 0 1.792-.537 2.452-1.598.613-1.07.943-2.673.943-4.8 0-2.102-.33-3.67-.943-4.71-.613-1.03-1.462-1.55-2.452-1.55-1.037 0-1.885.524-2.498 1.566-.66 1.056-.943 2.635-.943 4.747m-2.594.12c0-1.87.19-3.435.566-4.708.283-.938.66-1.773 1.13-2.518.52-.744 1.038-1.29 1.65-1.654.756-.48 1.65-.726 2.64-.726 1.84 0 3.3.84 4.385 2.517 1.085 1.684 1.65 4.018 1.65 7.006 0 2.97-.565 5.285-1.65 6.96-1.084 1.677-2.545 2.516-4.337 2.516-1.838 0-3.3-.834-4.384-2.503-1.084-1.665-1.65-3.966-1.65-6.89M228.97 194.164h1.884c1.18 0 1.933-.076 2.216-.226l.707-.778c.19-.368.283-.82.283-1.377 0-.617-.14-1.117-.377-1.5l-.896-.72c-.235-.038-.848-.057-1.838-.057h-1.98v4.658zm-2.5 10.602V186.4h5.28c1.32 0 2.263.16 2.876.49.613.33 1.084.92 1.46 1.763.33.848.52 1.805.52 2.89 0 1.38-.283 2.522-.802 3.422-.565.89-1.367 1.457-2.45 1.693.518.466.99.98 1.32 1.54.376.562.848 1.557 1.413 2.98l1.51 3.588h-2.97l-1.793-4.002c-.66-1.424-1.084-2.324-1.32-2.697l-.754-.76c-.283-.14-.707-.206-1.273-.206h-.518v7.666M238.963 204.766V186.4h9.193v3.106h-6.695v4.07h6.224v3.09h-6.223v5.008h6.93v3.092M249.853 198.793l2.45-.353c.143 1.216.425 2.097.897 2.668.424.566 1.037.853 1.79.853.803 0 1.415-.253 1.84-.758.377-.51.613-1.094.613-1.772 0-.43-.095-.802-.283-1.113-.142-.302-.472-.57-.896-.797-.283-.146-.943-.405-1.98-.796-1.367-.49-2.31-1.094-2.828-1.815-.755-1.01-1.132-2.245-1.132-3.697 0-.938.19-1.81.52-2.626.376-.816.894-1.438 1.554-1.862.66-.424 1.51-.637 2.452-.637 1.555 0 2.687.505 3.488 1.518.802 1.01 1.18 2.357 1.226 4.04l-2.5.165c-.093-.946-.33-1.62-.66-2.035-.376-.415-.894-.622-1.6-.622-.708 0-1.274.226-1.698.67-.283.282-.425.664-.425 1.135 0 .44.143.81.378 1.117.33.392 1.085.802 2.31 1.226 1.226.435 2.122.873 2.687 1.326.613.457 1.038 1.08 1.368 1.867.33.792.518 1.767.518 2.927 0 1.05-.187 2.037-.612 2.956-.377.92-.943 1.603-1.65 2.046-.707.448-1.603.67-2.687.67-1.554 0-2.78-.538-3.63-1.608-.847-1.07-1.32-2.635-1.507-4.69M269.322 189.506v12.168h1.886c.707 0 1.178-.062 1.508-.175l.99-.77c.283-.358.472-.947.66-1.772.19-.82.236-1.942.236-3.366 0-1.42-.047-2.508-.236-3.267-.188-.76-.424-1.348-.707-1.782-.284-.42-.708-.71-1.132-.862-.377-.112-1.037-.174-2.074-.174h-1.132zm-2.498-3.106h4.573c1.037 0 1.838.113 2.357.353.707.31 1.367.877 1.885 1.683.518.816.895 1.806 1.178 2.98.236 1.17.377 2.62.377 4.34 0 1.515-.094 2.82-.377 3.91-.283 1.333-.754 2.418-1.32 3.247-.424.627-.99 1.113-1.744 1.467-.566.254-1.32.386-2.216.386h-4.714M279.316 204.766V186.4h9.193v3.106h-6.695v4.07h6.223v3.09h-6.223v5.008h6.93v3.092M295.675 204.766V186.4h2.45l5.045 12.266V186.4h2.357v18.366h-2.545l-4.95-11.98v11.98M308.073 204.766h2.5V186.4h-2.5v18.366zM320.896 198.016l2.404 1.14c-.377 2.004-.99 3.494-1.84 4.46-.894.98-1.98 1.466-3.3 1.466-1.65 0-3.016-.834-4.053-2.498-1.037-1.67-1.603-3.95-1.603-6.836 0-3.06.566-5.435 1.603-7.123 1.084-1.693 2.5-2.536 4.196-2.536 1.508 0 2.734.663 3.724 1.988.52.787.943 1.914 1.226 3.385l-2.452.88c-.14-.95-.47-1.705-.94-2.26-.426-.548-.99-.822-1.65-.822-.944 0-1.7.487-2.264 1.463-.566.975-.85 2.564-.85 4.747 0 2.324.284 3.98.85 4.964.565.985 1.273 1.48 2.215 1.48.66 0 1.227-.316 1.7-.943.47-.626.8-1.61 1.036-2.954M332.02 197.497l-1.696-6.812-1.697 6.812h3.394zm4.574 7.27h-2.687l-1.084-4.173h-4.95l-1.037 4.172h-2.64l4.808-18.366h2.64M340.46 194.164h1.838c1.18 0 1.933-.076 2.216-.226l.707-.778c.19-.368.284-.82.284-1.377 0-.617-.142-1.117-.33-1.5l-.943-.72c-.235-.038-.8-.057-1.838-.057h-1.932v4.658zm-2.5 10.602V186.4h5.234c1.32 0 2.31.16 2.875.49.612.33 1.084.92 1.46 1.763.378.848.52 1.805.52 2.89 0 1.38-.236 2.522-.802 3.422-.566.89-1.367 1.457-2.45 1.693.517.466.99.98 1.32 1.54.376.562.847 1.557 1.46 2.98l1.51 3.588h-3.02l-1.79-4.002c-.66-1.424-1.084-2.324-1.32-2.697l-.754-.76c-.283-.14-.66-.206-1.273-.206h-.47v7.666M356.96 197.497l-1.698-6.812-1.65 6.812h3.347zm4.62 7.27h-2.735l-1.084-4.173h-4.95l-.99 4.172h-2.64l4.81-18.366h2.64M368.65 198.016v-3.093h5.422v7.316c-.52.75-1.32 1.41-2.31 1.98-.99.575-1.98.862-3.017.862-1.273 0-2.404-.405-3.347-1.21-.99-.808-1.697-1.958-2.216-3.457-.47-1.5-.707-3.13-.707-4.893 0-1.914.283-3.61.8-5.1.567-1.49 1.37-2.627 2.406-3.424.755-.608 1.745-.91 2.923-.91 1.556 0 2.782.472 3.63 1.434.85.957 1.415 2.277 1.65 3.964l-2.45.693c-.19-.906-.52-1.618-.99-2.136-.52-.528-1.085-.783-1.84-.783-1.084 0-1.932.51-2.592 1.538-.612 1.028-.942 2.555-.942 4.573 0 2.18.33 3.82.943 4.904.66 1.093 1.556 1.64 2.593 1.64.52 0 1.038-.155 1.556-.462.565-.302.99-.674 1.366-1.108v-2.328M376.335 186.4h2.498v9.947c0 1.58.047 2.602.094 3.073.095.75.378 1.35.755 1.806.424.452.99.688 1.65.688.707 0 1.273-.217 1.603-.65.377-.425.612-.957.66-1.584.094-.623.094-1.664.094-3.12V186.4h2.544v9.645c0 2.21-.094 3.767-.235 4.676-.143.91-.378 1.684-.755 2.307-.33.622-.85 1.122-1.462 1.494-.566.374-1.367.562-2.357.562-1.18 0-2.074-.203-2.687-.613-.614-.406-1.085-.925-1.462-1.575-.33-.65-.566-1.325-.708-2.037-.14-1.05-.235-2.602-.235-4.657M395.427 197.497l-1.744-6.812-1.65 6.812h3.394zm4.573 7.27h-2.734l-1.037-4.173h-4.95l-1.038 4.172h-2.64l4.808-18.366h2.64M68.214 230.718l3.49-8.703h5.28v.363h-.425l-.944.203-.377.463c-.05.15-.096.556-.096 1.212v8.702c0 .67.047 1.094.095 1.263l.423.44.896.187h.423v.368h-6.74v-.368h.423l.895-.202.38-.467c.093-.155.093-.566.093-1.22v-9.788l-4.903 12.045h-.236l-5.044-11.95v9.29c0 .643.047 1.048.047 1.2l.566.79c.283.203.707.302 1.273.302v.368h-4.384v-.368h.14l.755-.136.566-.4.33-.712v-9.344c0-.67-.047-1.084-.094-1.25l-.425-.437-.896-.19h-.378v-.362h5.232M77.784 222.02h6.647v.363h-.33c-.517 0-.847.052-1.036.15l-.424.444c-.047.194-.094.66-.094 1.42v6.458c0 1.183.094 1.956.282 2.347l.85.948c.376.255.895.377 1.508.377.707 0 1.272-.16 1.79-.476.472-.32.85-.763 1.085-1.328.237-.56.378-1.547.378-2.947v-5.38c0-.588-.094-1.012-.188-1.272l-.472-.518c-.283-.146-.66-.222-1.178-.222v-.363h4.43v.363h-.235l-.942.222-.52.674c-.046.202-.093.58-.093 1.116v5.002c0 1.556-.095 2.673-.33 3.36-.19.69-.66 1.326-1.462 1.906-.754.575-1.79.858-3.158.858-1.084 0-1.98-.146-2.593-.453-.8-.42-1.414-.948-1.744-1.6-.33-.65-.52-1.522-.52-2.615v-6.46c0-.767-.046-1.234-.093-1.418l-.424-.443c-.236-.113-.613-.16-1.132-.15M104.372 221.72v4.57h-.377c-.283-1.19-.8-2.11-1.555-2.742-.755-.637-1.65-.953-2.593-.953-.802 0-1.556.23-2.216.708-.66.476-1.177 1.093-1.46 1.857-.425.98-.613 2.074-.613 3.272 0 1.178.14 2.253.424 3.22.33.97.755 1.71 1.368 2.206.66.495 1.462.74 2.452.74.8 0 1.555-.18 2.215-.542.66-.363 1.367-.99 2.122-1.88v1.14c-.707.773-1.462 1.33-2.263 1.673-.754.353-1.697.522-2.734.522-1.367 0-2.593-.283-3.677-.844-1.038-.56-1.886-1.376-2.452-2.437-.564-1.05-.847-2.177-.847-3.37 0-1.258.283-2.456.943-3.582.66-1.127 1.508-2.004 2.592-2.626 1.085-.627 2.263-.933 3.49-.933.895 0 1.885.197 2.874.602.566.236.943.35 1.132.35l.518-.232.283-.72M110.737 228.87v4.087c0 .674.047 1.098.14 1.268l.425.44.85.187h.423v.368h-6.74v-.368h.423l.896-.203.377-.467c.095-.156.142-.566.142-1.226v-8.68c0-.673-.047-1.097-.14-1.267l-.425-.438-.85-.19h-.423v-.362h6.74v.363h-.423l-.895.203-.424.466c-.046.16-.093.566-.093 1.226v3.734h4.572v-3.734c0-.674-.048-1.098-.095-1.268l-.424-.438-.895-.19h-.424v-.362h6.742v.363h-.424l-.896.203-.377.466c-.094.16-.094.566-.094 1.226v8.68c0 .673 0 1.097.095 1.267l.424.44.848.187h.424v.368h-6.74v-.368h.423l.896-.203.425-.467c.047-.156.094-.566.094-1.226v-4.087M128.18 222.454c-1.18 0-2.075.618-2.688 1.853-.47 1.01-.754 2.46-.754 4.356 0 2.253.424 3.917 1.178 4.992.52.75 1.273 1.127 2.263 1.127.66 0 1.178-.16 1.65-.486.565-.415.99-1.08 1.272-1.99.33-.914.47-2.102.47-3.568 0-1.744-.14-3.045-.47-3.917-.33-.862-.707-1.475-1.226-1.83-.47-.357-1.037-.536-1.697-.536m-.095-.622c2.074-.076 3.724.532 4.997 1.838 1.273 1.306 1.933 2.937 1.933 4.894 0 1.673-.472 3.15-1.414 4.422-1.272 1.683-3.064 2.526-5.374 2.526-2.357 0-4.148-.8-5.42-2.41-.99-1.276-1.462-2.78-1.462-4.53 0-1.95.66-3.59 1.932-4.892 1.32-1.31 2.923-1.924 4.81-1.848M149.864 230.718l3.49-8.703h5.232v.363h-.425l-.894.203-.377.463c-.096.15-.096.556-.096 1.212v8.702c0 .67 0 1.094.095 1.263l.423.44.848.187h.426v.368h-6.742v-.368h.425l.942-.202.377-.467c.046-.155.093-.566.093-1.22v-9.788l-4.95 12.045h-.236l-4.997-11.95v9.29c0 .643 0 1.048.047 1.2l.52.79c.282.203.706.302 1.32.302v.368h-4.432v-.368h.14l.802-.136.566-.4.283-.712v-9.344c0-.67 0-1.084-.094-1.25l-.425-.437-.848-.19h-.425v-.362h5.28M168.816 217.51l-3.16 3.38h-.8l1.084-3.38h2.876zm-2.122 13.222l-1.885-4.54-1.98 4.54h3.864zm.33.72H162.5l-.567 1.283c-.142.43-.236.788-.236 1.06l.424.82c.143.105.567.185 1.274.232v.368h-4.29v-.368c.472-.066.85-.264 1.132-.584.283-.325.66-.985 1.084-1.99l4.62-10.536h.188l4.668 10.824c.424 1.03.8 1.675 1.084 1.94l.896.347v.368h-6.223v-.368h.235c.52 0 .85-.066 1.085-.207l.188-.453-.046-.358-.283-.727M182.157 221.72l.094 4.397h-.376c-.19-1.103-.66-1.99-1.367-2.664-.707-.67-1.51-1.008-2.357-1.008-.613 0-1.132.174-1.51.532-.376.36-.565.764-.565 1.22l.19.78.895.91c.283.21.99.588 2.027 1.13 1.556.76 2.546 1.48 3.064 2.155.52.674.802 1.447.802 2.314 0 1.103-.424 2.05-1.272 2.848-.85.796-1.886 1.188-3.206 1.188l-1.13-.128c-.38-.08-.803-.235-1.37-.47l-.753-.2-.517.2-.425.588H174v-4.983h.378c.236 1.404.802 2.474 1.603 3.21.803.735 1.65 1.103 2.547 1.103.707 0 1.273-.203 1.697-.594.424-.392.613-.854.613-1.382l-.236-.906-.706-.83c-.33-.268-.943-.603-1.744-1.027-1.18-.594-2.027-1.094-2.546-1.508-.52-.415-.896-.882-1.178-1.396-.283-.503-.425-1.07-.425-1.687 0-1.056.378-1.946 1.133-2.687.754-.74 1.697-1.107 2.875-1.107l1.18.154c.33.076.706.222 1.13.434.425.207.707.31.896.31l.377-.155.284-.744M196.3 222.454c-1.132 0-2.028.608-2.64 1.824-.52 1.02-.802 2.466-.802 4.347 0 2.258.424 3.932 1.18 5.02.564.755 1.32 1.137 2.26 1.137.944 0 1.698-.373 2.264-1.118.754-1.07 1.18-2.682 1.18-4.827 0-2.112-.284-3.644-.756-4.596-.612-1.192-1.508-1.786-2.687-1.786m1.696 12.875c.283.86.755 1.512 1.368 1.946.612.43 1.367.65 2.31.65l.8-.08v.6c-.942.244-1.838.366-2.592.366-1.178 0-2.216-.297-3.158-.886-.896-.594-1.603-1.452-2.075-2.597-1.556-.34-2.83-1.12-3.772-2.344-.943-1.226-1.414-2.692-1.414-4.39 0-1.97.613-3.615 1.933-4.916 1.272-1.31 2.922-1.96 4.902-1.96s3.63.65 4.902 1.96c1.273 1.31 1.933 2.946 1.933 4.917 0 1.71-.52 3.196-1.51 4.464-.99 1.27-2.214 2.023-3.63 2.27M204.266 222.02h6.694v.363h-.377c-.47 0-.848.052-.99.15l-.424.444c-.095.194-.095.66-.095 1.42v6.458c0 1.183.047 1.956.236 2.347l.85.948c.423.255.895.377 1.508.377.707 0 1.32-.16 1.79-.476.52-.32.85-.763 1.132-1.328.236-.56.33-1.547.33-2.947v-5.38c0-.588-.047-1.012-.14-1.272l-.472-.518c-.283-.146-.708-.222-1.226-.222v-.363h4.478v.363h-.282l-.896.222-.52.674c-.093.202-.14.58-.14 1.116v5.002c0 1.556-.094 2.673-.283 3.36-.19.69-.708 1.326-1.462 1.906-.755.575-1.84.858-3.16.858-1.13 0-1.98-.146-2.592-.453-.848-.42-1.414-.948-1.744-1.6-.33-.65-.52-1.522-.52-2.615v-6.46c0-.767-.046-1.234-.14-1.418l-.424-.443c-.19-.113-.566-.16-1.132-.15M223.17 222.78v5.37h.283c.802 0 1.414-.26 1.744-.784.378-.533.613-1.31.708-2.33h.377v6.908h-.377c-.048-.755-.236-1.372-.472-1.844-.236-.48-.518-.8-.848-.966-.33-.165-.802-.25-1.415-.25v3.715c0 .725.047 1.168.095 1.333l.33.396.8.15h.802c1.18 0 2.17-.283 2.876-.854.707-.57 1.226-1.442 1.556-2.606h.376l-.613 4.2h-11.125v-.368h.424l.896-.203.377-.467c.094-.156.14-.566.14-1.226v-8.68c0-.597-.046-.965-.093-1.102l-.33-.518-.99-.274h-.424v-.363h10.795v3.903h-.377c-.19-.957-.424-1.64-.754-2.055-.33-.41-.802-.72-1.415-.914-.377-.114-1.037-.175-2.027-.175M249.24 222.02v.363c-.472.076-.896.326-1.273.764-.236.33-.66 1.094-1.18 2.286l-4.43 10.075h-.33l-4.43-10.48c-.52-1.268-.85-2.013-1.038-2.235-.19-.212-.52-.358-1.04-.41v-.363h6.177v.363h-.188c-.567 0-.944.066-1.133.212l-.236.42.096.415c.047.16.188.59.47 1.287l2.782 6.567 2.546-5.85c.283-.712.472-1.184.566-1.424l.094-.608-.14-.514-.473-.344c-.282-.11-.612-.16-1.083-.16v-.364M256.547 234.847v.368h-6.74v-.368h.423l.943-.202.377-.467c.047-.156.094-.566.094-1.22v-8.68c0-.68-.047-1.103-.094-1.273l-.424-.433-.896-.194h-.424v-.363h6.74v.363h-.423l-.896.203-.377.468c-.095.16-.095.566-.095 1.23v8.68c0 .668 0 1.093.095 1.262l.424.44.85.187M270.878 222.02v.363c-.47.076-.896.326-1.273.764-.236.33-.66 1.094-1.178 2.286l-4.432 10.075h-.33l-4.43-10.48c-.52-1.268-.85-2.013-1.038-2.235-.19-.212-.52-.358-1.037-.41v-.363h6.175v.363h-.188c-.566 0-.943.066-1.18.212l-.187.42.047.415c.047.16.235.59.518 1.287l2.782 6.567 2.545-5.85c.283-.712.472-1.184.52-1.424l.14-.608-.188-.514-.425-.344c-.283-.11-.613-.16-1.085-.16v-.364M278.185 234.847v.368h-6.74v-.368h.423l.896-.202.377-.467c.095-.156.142-.566.142-1.22v-8.68c0-.68-.047-1.103-.14-1.273l-.426-.433-.848-.194h-.424v-.363h6.74v.363h-.423l-.895.203-.377.468c-.094.16-.142.566-.142 1.23v8.68c0 .668.048 1.093.142 1.262l.424.44.85.187M283.936 222.78v5.37h.283c.8 0 1.366-.26 1.743-.784.378-.533.613-1.31.708-2.33h.378v6.908h-.377c-.094-.755-.235-1.372-.47-1.844-.237-.48-.52-.8-.85-.966-.33-.165-.8-.25-1.414-.25v3.715c0 .725.047 1.168.095 1.333l.33.396.802.15h.754c1.226 0 2.17-.283 2.923-.854.706-.57 1.225-1.442 1.555-2.606h.33l-.566 4.2h-11.126v-.368h.424l.895-.203.378-.467c.095-.156.095-.566.095-1.226v-8.68c0-.597 0-.965-.047-1.102l-.33-.518-.99-.274h-.424v-.363h10.795v3.903h-.378c-.19-.957-.424-1.64-.754-2.055-.33-.41-.802-.72-1.415-.914-.377-.114-1.037-.175-2.027-.175M296.476 222.02l6.364 8.175v-5.67c0-.79-.14-1.326-.377-1.6-.283-.38-.8-.565-1.508-.542v-.363h4.242v.363c-.518.066-.895.16-1.084.274l-.424.55c-.095.26-.19.7-.19 1.317v10.984h-.283l-8.72-10.984v8.396c0 .76.14 1.272.518 1.536.33.26.707.392 1.13.392h.33v.367h-4.572v-.367c.708 0 1.18-.15 1.462-.443.283-.293.424-.788.424-1.485v-9.316l-.284-.35-.707-.696-.897-.175v-.363M310.854 222.77v10.295c0 .547 0 .877.048 1l.282.283.755.146c1.036 0 1.837-.373 2.403-1.108.754-1.004 1.13-2.55 1.13-4.653 0-1.692-.234-3.05-.753-4.06-.424-.79-.943-1.328-1.603-1.61-.47-.2-1.226-.303-2.263-.293m-4.902 12.45v-.368h.424l.848-.18.425-.49c.046-.13.093-.54.093-1.225v-8.68c0-.673-.047-1.097-.094-1.267l-.426-.438-.848-.19h-.424v-.362h5.75c1.557 0 2.782.212 3.725.646 1.132.518 1.98 1.315 2.593 2.38.613 1.06.896 2.268.896 3.612 0 .924-.142 1.782-.425 2.56-.33.787-.66 1.433-1.13 1.937-.47.514-1.037.915-1.603 1.226-.613.307-1.367.548-2.216.717-.423.08-1.036.123-1.837.123M327.496 230.732l-1.933-4.54-1.98 4.54h3.913zm.33.72h-4.573l-.52 1.288c-.187.43-.282.788-.282 1.056l.426.82c.188.11.613.185 1.273.232v.367h-4.29v-.367c.47-.066.847-.264 1.177-.585.283-.32.66-.985 1.084-1.99l4.62-10.53h.19l4.62 10.823c.47 1.023.8 1.67 1.084 1.938l.943.344v.367h-6.27v-.367h.283c.518 0 .848-.066 1.037-.208l.236-.452-.095-.36c0-.05-.094-.296-.282-.725M342.91 221.72l.095 4.397h-.377c-.188-1.103-.613-1.99-1.32-2.664-.754-.67-1.508-1.008-2.357-1.008-.66 0-1.177.174-1.507.532-.378.36-.613.764-.613 1.22l.235.78.85.91c.33.21.99.588 2.073 1.13 1.51.76 2.546 1.48 3.064 2.155.52.674.802 1.447.802 2.314 0 1.103-.424 2.05-1.273 2.848-.848.796-1.932 1.188-3.205 1.188l-1.13-.128c-.378-.08-.85-.235-1.368-.47l-.754-.2-.52.2-.47.588h-.33v-4.983h.33c.282 1.404.8 2.474 1.602 3.21.802.735 1.65 1.103 2.593 1.103.707 0 1.273-.203 1.697-.594.425-.392.613-.854.613-1.382l-.236-.906-.754-.83c-.283-.268-.896-.603-1.744-1.027-1.13-.594-1.98-1.094-2.5-1.508-.517-.415-.894-.882-1.177-1.396-.283-.503-.424-1.07-.424-1.687 0-1.056.377-1.946 1.13-2.687.755-.74 1.698-1.107 2.83-1.107l1.225.154 1.084.434c.425.207.755.31.896.31l.424-.155.236-.744" fill="#231f20"/></svg>