<svg xmlns="http://www.w3.org/2000/svg" width="400" height="273.405"><path d="M149.325 77.377c4.903 1.296 9.504 2.97 13.554 5.312l-.207-1.68c-4.045-2.443-8.512-3.613-13.348-3.633M147.642 67.87c4.452 2.427 8.515 5.152 11.888 8.394l.2-1.678c-3.343-3.34-7.39-5.546-12.088-6.716" fill="#231f20" fill-rule="evenodd"/><path d="M147.642 67.87c4.452 2.427 8.515 5.152 11.888 8.394l.2-1.678c-3.343-3.34-7.39-5.546-12.088-6.716M224.53 99.8c6.403-9.753 20.013-8.41 27.415-1.17-9.316-4.89-18.498-5.934-27.416 1.17" fill="#231f20" fill-rule="evenodd"/><path d="M250.612 92.853l-37.765 6.837c-.564.096-1.13.2-1.693.307-.107.018-.21-.412-.32-.394-8.714 1.656-16.35 4.415-22.917 7.335-3.793 2.192-6.203 3.522-10.338 3.388-8.74-.28-12.447-9.198-12.56-24.304-5.95-2.33-6.674-12.232-6.04-21.433.663-9.495 2.837-18.313 6.43-21.907 7.375-7.36 18.092-3.275 19.38 15.288l4.32.194c.836-1.698 3.402-3.2 6.593-4.395 3.698-1.387 8.827-2.346 15.705-2.634l13.31-1.08 13.66 3.24 29.495 21.576 13.663 6.833-12.224 20.5-1.083 5.395c-7.676-4.91-13.295-9.834-17.618-14.747" fill="#fff" fill-rule="evenodd"/><path d="M250.612 92.853l-37.765 6.837c-.564.096-1.13.2-1.693.307-.107.018-.21-.412-.32-.394-8.714 1.656-16.35 4.415-22.917 7.335-3.793 2.192-6.203 3.522-10.338 3.388-8.74-.28-12.447-9.198-12.56-24.304-5.95-2.33-6.674-12.232-6.04-21.433.663-9.495 2.837-18.313 6.43-21.907 7.375-7.36 18.092-3.275 19.38 15.288l4.32.194c.836-1.698 3.402-3.2 6.593-4.395 3.698-1.387 8.827-2.346 15.705-2.634l13.31-1.08 13.66 3.24 29.495 21.576 13.663 6.833-12.224 20.5-1.083 5.395c-7.676-4.91-13.295-9.834-17.618-14.747z" fill="none" stroke="#231f20" stroke-width="1.23375" stroke-miterlimit="22.926"/><path d="M197.995 59.59c12.027-2.49 24.236-2.788 36.598-1.258" fill="none" stroke="#9eded8" stroke-width="1.7199999999999998" stroke-linecap="round" stroke-linejoin="round" stroke-miterlimit="22.926"/><path d="M142.812 98.61c9.34-6.236 19.44-4.403 25.718 2.696-7.954-4.36-16.566-5.045-25.718-2.695" fill="#231f20" fill-rule="evenodd"/><path d="M212.93 100.145l-.164-.91c12.555-2.275 24.883-4.783 37.71-7.106l.266 1.45c-12.833 2.325-25.26 4.292-37.813 6.565" fill="#231f20"/><path d="M233.706 52.757c-7.14-6.413-13.202-10.26-17.98-11.038-6.544-1.065-11.855 3.62-11.875 15.35 7.068-4.844 17.518-5.7 29.856-4.313" fill="#fff" fill-rule="evenodd"/><path d="M229.34 52.42c-2.33-2.047-4.846-3.975-7.77-5.597-4.644-2.514-6.678-2.13-3.507 1.708 1.046 1.095 1.736 2.27 2.067 3.523m-7.81 1.376c-.757-3.52-.268-7.437 1.34-11.624m-.678 0c-4.423 4.37-6.446 8.84-6.084 13.408" fill="none" stroke="#9eded8" stroke-width="1.7199999999999998" stroke-linecap="round" stroke-linejoin="round" stroke-miterlimit="22.926"/><path d="M233.706 52.757c-7.14-6.413-13.202-10.26-17.98-11.038-6.544-1.065-11.855 3.62-11.875 15.35 7.068-4.844 17.518-5.7 29.856-4.313z" fill="none" stroke="#231f20" stroke-width="1.23375" stroke-linecap="round" stroke-linejoin="round" stroke-miterlimit="22.926"/><path d="M275.784 5.644c16.958-.077 31.417 2.62 42.73 8.812 20.025 10.952 22.964 23.986 17.375 44.557-6.68 24.6-24.755 46.464-56.867 68.008l-4.32-6.203 24.013-42.887c1.127-19.41-19.905-51.146-40.585-62.467-6.376-3.493-10.05-3.996-16.874-2.81l-.804-3.234c-.335-.745.2-1.69 1.16-2.582 2.797-2.595 8.828-4.792 13.96-5.77 5.21-.995 9.496-.352 14.382 1.826 1.963.873 3.888 1.867 5.83 2.75" fill="#fff" fill-rule="evenodd"/><path d="M277.18 30.993c4.806-3.243 10.194-6.046 16.436-8.213m-26.395-1.09c5.267-3.07 10.87-6.175 17.592-8.308m-26.68 2.08c5.74-4.6 12.39-7.602 18.6-8.954m-29.68 5.27c3.744-3.89 9.88-7.367 17.904-10.515m49.488 59.583c1.484-.404 2.856-.973 4.147-1.718 2.266-1.314 2.827-2.403 4.13-4.56.14-.232.31-.462.524-.693.92-.97 2.14-.848 2.59.904.56 2.156-.21 4.482-.786 6.556-1.817 6.586-5.42 12.938-9.687 17.957m-11.52 1.698l11.508-9.17m-16.363 1.792l15.644-11.326m-2.608-10.838c1.876-.364 3.91-1.373 6.108-3.007 1.525-1.14 2.907-2.418 4.812-2.95 1.424-.393 2.538-.13 3.425.633 2.298 1.996 2.432 5.637 2.596 8.43 1.108 18.516-9.395 34.474-24.87 48.89m-7.375-40.376l15.304-9.96m-20.835-.55c28.162-18.605 46.575-22.336 45.72 3.32m-51.25-13.462c22.292-15.38 47.47-22.484 52.68-1.358m-5.527-15.05c-9.594-7.46-22.917-8.245-39.333-3.497m-6.63-7.613c9.56-3.267 20.086-3.133 30.338-1.147" fill="none" stroke="#9eded8" stroke-width="1.7199999999999998" stroke-linecap="round" stroke-linejoin="round" stroke-miterlimit="22.926"/><path d="M275.784 5.644c16.958-.077 31.417 2.62 42.73 8.812 20.025 10.952 22.964 23.986 17.375 44.557-6.68 24.6-24.755 46.464-56.867 68.008l-4.32-6.203 24.013-42.887c1.127-19.41-19.905-51.146-40.585-62.467-6.376-3.493-10.05-3.996-16.874-2.81l-.804-3.234c-.335-.745.2-1.69 1.16-2.582 2.797-2.595 8.828-4.792 13.96-5.77 5.21-.995 9.496-.352 14.382 1.826 1.963.873 3.888 1.867 5.83 2.75z" fill="none" stroke="#231f20" stroke-width="1.23375" stroke-miterlimit="22.926"/><path d="M337.73 32.796c12.99 36.795-32.497 77.38-58.362 94.737l-.687-1.026c25.02-16.787 69.75-57.468 57.2-93.055-5.036-14.253-23.05-22.397-36.738-25.15-7.105-1.43-14.915-2.083-23.353-2.045l-.006-1.233c8.516-.04 16.417.625 23.603 2.073 14.49 2.912 33.004 10.563 38.345 25.7" fill="#231f20"/><path d="M347.384 68.604c1.47.786 2.898 1.607 4.308 2.465 16.656 10.145 28.943 25.047 36.997 42.657 6.59 14.412 10.338 30.63 11.31 47.518l-11.06.61c-.903-15.548-4.314-30.407-10.315-43.527-7.16-15.65-18.02-28.856-32.71-37.803-.623-.38-1.246-.748-1.89-1.113l3.36-10.808zM0 161.03c1.35-14.02 5.545-25.966 11.737-35.555 6.247-9.68 14.536-16.978 23.998-21.6v-.026c9.46-4.626 20.082-6.55 31.02-5.494 8.76.845 17.687 3.593 26.327 8.396 12.128-15.07 30.108-25.566 50.688-30.847 2.188-.567 4.414-1.07 6.668-1.512 1.085 3.532 2.236 7.067 3.45 10.602-2.5.46-4.965 1.004-7.392 1.627-19.88 5.104-36.935 15.564-47.418 30.62l-3.06 4.396-4.49-2.898c-8.496-5.488-17.3-8.544-25.81-9.365-8.855-.85-17.462.71-25.124 4.457l-.01-.018c-7.65 3.74-14.39 9.7-19.52 17.648-5.285 8.185-8.875 18.465-10.043 30.607L0 161.03z" fill="#1ea5e5"/><path d="M297.264 27.02c.568.83.107 1.286-.568.403-5.95-8.337-13.15-15.092-21.28-21.294l.74-.98c7.98 6.083 15.28 13.696 21.108 21.87" fill="#231f20"/><path d="M322.63 60.303c1.65-.297 3.176-1.08 4.585-2.33m-3.092-5.73c.18 6.738-2.846 12.244-8.41 17.54" fill="none" stroke="#231f20" stroke-width="1.23375" stroke-linecap="round" stroke-linejoin="round" stroke-miterlimit="22.926"/><path d="M233.53 23.983c-11.525 36.46 14.767 58.072 53.508 74.806l11.678-20.86c1.127-19.41-19.904-51.146-40.585-62.467-6.375-3.493-10.05-3.996-16.873-2.81l-.805-3.234c-.124-.28-.134-.586-.035-.908-14.392-5.53-18.108 14.033-6.888 15.47" fill="#fbc39c" fill-rule="evenodd"/><path d="M233.53 23.983c-11.525 36.46 14.767 58.072 53.508 74.806l11.678-20.86c1.127-19.41-19.904-51.146-40.585-62.467-6.375-3.493-10.05-3.996-16.873-2.81l-.805-3.234c-.124-.28-.134-.586-.035-.908-14.392-5.53-18.108 14.033-6.888 15.47z" fill="none" stroke="#fbcba5" stroke-width=".30125" stroke-miterlimit="22.926"/><path d="M298.716 77.93c1.126-19.41-19.905-51.146-40.586-62.467-6.376-3.493-10.05-3.996-16.872-2.81l-.807-3.234c-.123-.28-.133-.586-.032-.908-14.392-5.53-18.11 14.033-6.89 15.472-11.523 36.458 14.768 58.07 53.51 74.805" fill="none" stroke="#231f20" stroke-width="1.23375" stroke-linecap="round" stroke-linejoin="round" stroke-miterlimit="22.926"/><path d="M251.994 19.01C246.246 7.86 222.58 8.42 234.35 15.774c-6.2.538-7.504 3.594-1.89 5.926-.807 2.155.004 3.14 2.426 2.96-1.275 1.64-.94 3.1 1.01 4.38-2.89 2.71-2.458 3.992 1.278 3.838-5.387 2.16-4.264 5.345 1.35 5.124-4.343 1.32-2.035 2.71 1.48 2.15-4.253 1.707-3.31 3.904 2.83 2.97-4.79 1.092-3.15 5.15 1.48 3.093-2.242 2.332-.515 3.453 1.75 2.56-3.593 3.283-.7 5.566 2.83 3.902-1.165 3.325-.526 5.253 2.96 4.985-.695 3.625 1.157 4.403 5.125 2.83-.697 2.845 1.096 2.87 2.555 1.483-1.118 7.368 2.35 3.563 2.83 2.02-.373 3.942 2.554 5.174 3.772 1.75.292 3.228 1.975 3.674 3.227 1.347-.206 3.493 2.84 3.517 3.91.81-.47 3.36.745 3.09 2.832 1.614-.202 5.31 2.22 3.832 3.637 1.213 1.793 3.055 2.915 4.22 4.172-.946 2.375 3.963 4.16 4.94 5.45 3.233 1.957-2.604 1.325-6.4.7-9.344-1.554-7.418-6.18-14.01-13.436-19.887L251.993 19.01z" fill="#a33c2d" fill-rule="evenodd"/><path d="M251.994 19.01C246.246 7.86 222.58 8.42 234.35 15.774c-6.2.538-7.504 3.594-1.89 5.926-.807 2.155.004 3.14 2.426 2.96-1.275 1.64-.94 3.1 1.01 4.38-2.89 2.71-2.458 3.992 1.278 3.838-5.387 2.16-4.264 5.345 1.35 5.124-4.343 1.32-2.035 2.71 1.48 2.15-4.253 1.707-3.31 3.904 2.83 2.97-4.79 1.092-3.15 5.15 1.48 3.093-2.242 2.332-.515 3.453 1.75 2.56-3.593 3.283-.7 5.566 2.83 3.902-1.165 3.325-.526 5.253 2.96 4.985-.695 3.625 1.157 4.403 5.125 2.83-.697 2.845 1.096 2.87 2.555 1.483-1.118 7.368 2.35 3.563 2.83 2.02-.373 3.942 2.554 5.174 3.772 1.75.292 3.228 1.975 3.674 3.227 1.347-.206 3.493 2.84 3.517 3.91.81-.47 3.36.745 3.09 2.832 1.614-.202 5.31 2.22 3.832 3.637 1.213 1.793 3.055 2.915 4.22 4.172-.946 2.375 3.963 4.16 4.94 5.45 3.233 1.957-2.604 1.325-6.4.7-9.344-1.554-7.418-6.18-14.01-13.436-19.887L251.993 19.01z" fill="none" stroke="#231f20" stroke-width="1.23375" stroke-linecap="round" stroke-linejoin="round" stroke-miterlimit="22.926"/><path d="M249.888 39.272c4.39 6.497 14.31 14.047 22.532 9.6 8.282-4.47 5.484-17.28 1.123-23.43-4.61-6.495-14.018-10.952-21.905-7.763-9.162 3.71-5.88 15.486-1.75 21.592" fill="#fbc39c" fill-rule="evenodd"/><path d="M249.888 39.272c4.39 6.497 14.31 14.047 22.532 9.6 8.282-4.47 5.484-17.28 1.123-23.43-4.61-6.495-14.018-10.952-21.905-7.763-9.162 3.71-5.88 15.486-1.75 21.592z" fill="none" stroke="#231f20" stroke-width="1.23375" stroke-miterlimit="22.926"/><path d="M225.916 52.082c-.7-1.286-1.88-2.427-2.917-3.177.71.874 1.448 2.06 1.84 3.334.615 2.024 1.612.83 1.076-.158" fill="#231f20" fill-rule="evenodd"/><path d="M113.797 132.26l4.864.25c-.555 1.82-1.596 3.22-3.122 4.188-1.52.98-3.266 1.463-5.243 1.463-2.38 0-4.173-.67-5.392-2.005-1.23-1.335-1.63-3.177-1.22-5.527.414-2.326 1.436-4.207 3.077-5.637 1.635-1.424 3.688-2.143 6.17-2.143 2.312 0 3.995.547 5.04 1.636 1.052 1.083 1.497 2.533 1.343 4.328l-5.045.226c.173-.99.077-1.703-.293-2.15-.37-.442-.86-.66-1.464-.66-1.692 0-2.79 1.437-3.3 4.325-.287 1.62-.262 2.716.078 3.296.33.587.892.874 1.693.874 1.416 0 2.356-.82 2.817-2.46m15.218 5.67h5.468l-2.84-14.853h-5.675l-8.03 14.853h4.356l1.563-2.927h4.687l.47 2.927zm-3.67-6.17l2.177-4.308.657 4.31h-2.836zm32.387-8.683l-2.625 14.853h-4.985l1.88-10.617-5.122 10.617h-3.406L142 127.313l-1.88 10.617h-4.02l2.624-14.853h7.01l1.136 7.886 3.818-7.886h7.044zM167.8 137.93h5.47l-2.84-14.853h-5.68l-8.026 14.853h4.355l1.564-2.927h4.685l.47 2.927zm-3.674-6.17l2.183-4.308.656 4.31h-2.84zm9.71 1.872l5.118-.758c.203 1.194 1.177 1.794 2.908 1.794 1.353 0 2.077-.307 2.187-.917.058-.32-.06-.566-.342-.747-.28-.172-.805-.332-1.583-.47-2.978-.5-4.826-1.156-5.555-1.957-.73-.806-1-1.75-.806-2.84.245-1.4 1.08-2.567 2.49-3.498 1.42-.925 3.3-1.39 5.65-1.39 3.563 0 5.695 1.218 6.41 3.645l-4.65 1.14c-.282-.986-1.13-1.49-2.54-1.49-1.166 0-1.808.31-1.914.925-.054.275.047.49.282.644.236.154.725.298 1.463.432 2.02.384 3.45.72 4.274 1.007.836.29 1.483.783 1.944 1.488.464.696.613 1.52.445 2.474-.267 1.5-1.2 2.717-2.803 3.648-1.593.935-3.564 1.4-5.895 1.4-4.26 0-6.62-1.51-7.086-4.528" fill="#231f20"/><path d="M113.045 145.725h9.35l-8.722 41.534h27.48l-1.623 7.735h-36.834l10.35-49.27zm-29.902-.47c-15.785 0-31.078 11.577-34.147 25.85-3.08 14.27 7.23 25.846 23.012 25.846 15.778 0 31.072-11.575 34.148-25.846 3.074-14.272-7.23-25.848-23.013-25.848m-1.347 7.938c10.394 0 16.93 8.022 14.597 17.91-2.333 9.887-12.646 17.902-23.037 17.902-10.396 0-16.935-8.015-14.603-17.902 2.33-9.888 12.65-17.91 23.043-17.91m233.765 21.662h18.407l-5.225-18.016-13.18 18.016zm20.804 8.273h-26.85l-8.69 11.865h-14.387l10.345-49.27h9.353l-7.913 37.698 27.4-37.358-.098-.34H336.312l14.278 49.27h-10.793l-3.433-11.866zm-75.543-37.405h-9.354l-10.343 49.27h9.35l4.284-20.41h21.204c7.946 0 15.38-6.49 16.538-14.43 1.15-7.94-4.398-14.43-12.335-14.43H260.82zm-4.494 21.398l2.526-12.038c.12-.005.223-.01.333-.01h17.635c3.343 0 5.68 2.736 5.197 6.073-.49 3.344-3.62 6.08-6.963 6.08h-17.63c-.384 0-.748-.036-1.098-.105m-7.997-21.398H235.566l-29.082 40.197-12.352-40.197H173.61l-19.9 20.912-.564-.95-11.87-19.962h-12.224l17.674 29.724-4.106 19.545h9.354l3.68-17.54 24.462-25.714-9.082 43.255h9.35l7.934-37.78 11.605 37.78h9.345l27.34-37.78-7.795 37.78h9.355l10.16-49.27zM208.453 107.06c7.186-12.623 24.216-12.023 33.984-3.598-11.963-5.346-23.464-5.926-33.984 3.597" fill="#231f20" fill-rule="evenodd"/><path d="M204.85 71.075l-8.628 3.08" fill="none" stroke="#231f20" stroke-width="1.23375" stroke-miterlimit="22.926"/><path d="M185.244 58.227c3.617-.072 8.237.446 12.1.853" fill="none" stroke="#231f20" stroke-width=".8025" stroke-miterlimit="22.926"/><path d="M194.964 95.522l15.313-2.715m-12.56-6.367l11.082-2.298m-11.097-4.604l9-2.726m-13.707-7.925l9.596-2.504m-17.885-4.135l14.402-.806" fill="none" stroke="#9eded8" stroke-width="1.7199999999999998" stroke-linecap="round" stroke-linejoin="round" stroke-miterlimit="22.926"/><path d="M184.556 62.694c.103-1.708.18-3.272.237-4.722-1.29-18.564-12.007-22.647-19.38-15.29-3.594 3.595-5.768 12.414-6.43 21.908-.637 9.2.087 19.1 6.036 21.433.853-6.596 2.13-11.874 4.038-15.327 4.192-7.634 10.108-9.586 15.498-8.002" fill="#285eb4" fill-rule="evenodd"/><path d="M184.556 62.694c.103-1.708.18-3.272.237-4.722-1.29-18.564-12.007-22.647-19.38-15.29-3.594 3.595-5.768 12.414-6.43 21.908-.637 9.2.087 19.1 6.036 21.433.853-6.596 2.13-11.874 4.038-15.327 4.192-7.634 10.108-9.586 15.498-8.002z" fill="none" stroke="#231f20" stroke-width="1.23375" stroke-miterlimit="22.926"/><path d="M184.556 62.694c-5.39-1.584-11.306.368-15.498 8.002-1.91 3.453-3.185 8.73-4.04 15.327.04 5.176.5 9.623 1.44 13.245.106.392.207.773.32 1.142 1.89 6.242 5.38 9.743 10.8 9.916 1.47.05 2.74-.163 3.934-.523 11.12-6.34 15.86-18.01 16.464-25.138.872-10.328-5.75-19.727-13.42-21.97" fill="#285eb4" fill-rule="evenodd"/><path d="M184.556 62.694c-5.39-1.584-11.306.368-15.498 8.002-1.91 3.453-3.185 8.73-4.04 15.327.04 5.176.5 9.623 1.44 13.245.106.392.207.773.32 1.142 1.89 6.242 5.38 9.743 10.8 9.916 1.47.05 2.74-.163 3.934-.523 11.12-6.34 15.86-18.01 16.464-25.138.872-10.328-5.75-19.727-13.42-21.97z" fill="none" stroke="#231f20" stroke-width="1.23375" stroke-miterlimit="22.926"/><path d="M211.087 94.383c12.287-1.572 25.765-3.06 36.887-4.202" fill="none" stroke="#9eded8" stroke-width="1.7199999999999998" stroke-linecap="round" stroke-linejoin="round" stroke-miterlimit="22.926"/><path d="M204.04 69.03c9.54-4.955 21.28-6.082 34.532-4.585" fill="none" stroke="#231f20" stroke-width=".925" stroke-miterlimit="22.926"/><path d="M204.808 66.618c2.762 5.363 11.844 10.174 10.736.79 2.883 7.24 10.847 6.526 7.28-3.414 4.318 10.73 11.03 2.97 4.857-3.148 2.88 2.16 6.205 1.708-.268-4.312l-10.696-.542-8.37 4.31-3.538 6.316z" fill="#fbc39c" fill-rule="evenodd"/><path d="M204.808 66.618c2.762 5.363 11.844 10.174 10.736.79 2.883 7.24 10.847 6.526 7.28-3.414 4.318 10.73 11.03 2.97 4.857-3.148 2.88 2.16 6.205 1.708-.268-4.312l-10.696-.542-8.37 4.31-3.538 6.316z" fill="none" stroke="#231f20" stroke-width="1.23375" stroke-linecap="round" stroke-linejoin="round" stroke-miterlimit="22.926"/><path d="M203.852 57.07c.15 3.37.394 6.67.726 9.893 4.46-6.63 11.658-10.525 22.835-10.43l-2.074-4.36c-8.692-.183-16.08 1.19-21.488 4.897" fill="#285eb4" fill-rule="evenodd"/><path d="M203.852 57.07c.15 3.37.394 6.67.726 9.893 4.46-6.63 11.658-10.525 22.835-10.43l-2.074-4.36c-8.692-.183-16.08 1.19-21.488 4.897z" fill="none" stroke="#231f20" stroke-width="1.23375" stroke-linecap="round" stroke-linejoin="round" stroke-miterlimit="22.926"/><path d="M278.302 123.965c8.597-5.94 17.194-12.8 25.79-20.418m5.863-13.874l5.406-10.38m-37.594 41.975L300.6 97.493" fill="none" stroke="#9eded8" stroke-width="1.7199999999999998" stroke-linecap="round" stroke-linejoin="round" stroke-miterlimit="22.926"/><path d="M298.716 78.093l-8.504 10.877-3.174 10.087c.56.24 1.128.47 1.694.706 4.63 3.996 9.023 4.61 13.232 2.518 6.625-3.295 10.196-9.785 6.043-16.66-1.524-2.53-4.058-4.865-7.583-7.004l-1.708-.523z" fill="#fbc39c" fill-rule="evenodd"/><path d="M303.12 96.39c-1.335-4.505-2.933-7.608-7.61-8.458-.978-.177-1.788-.55-1.5-1.77.177-.72.63-.984 1.182-1.012 5.505-.23 8.236 6.763 7.927 11.24" fill="#231f20" fill-rule="evenodd"/><path d="M287.038 99.057c.562.24 1.128.47 1.695.706 4.628 3.996 9.023 4.61 13.23 2.517 6.624-3.295 10.198-9.785 6.044-16.66-1.523-2.53-4.058-4.865-7.585-7.004l-1.706-.523" fill="none" stroke="#231f20" stroke-width="1.23375" stroke-linecap="round" stroke-linejoin="round" stroke-miterlimit="22.926"/><path d="M270.56 109.63l-9.93-6.865-8.79-7.94-5.264-7.084-3.453-8.573 8.755-.258 7.057.857 3.014.83 8.254 1.88 6.065 2.197 5.424 2.84-8.27 7.28-2.865 14.836z" fill="#fff" fill-rule="evenodd"/><path d="M310.718 48.91c3.71 9.134 5.482 18.03 5.003 26.64-.19 3.326-.234 4.026-2.6 6.245l-4.546 4.256" fill="none" stroke="#231f20" stroke-width="1.23375" stroke-linecap="round" stroke-linejoin="round" stroke-miterlimit="22.926"/><path d="M206.707 75.295c8.808-1.42 19.214-2.44 28.66-2.33 3.813.042 4.96.22 8.193 2.177 7.37 4.48 16.032 9.523 24.898 13.524m-58.724-3.455c9.105-1.117 18.207-2.066 27.312-2.828 4.164-.35 4.69-.69 7.848 1.942 6.314 5.26 14 11.313 20.175 15.72" fill="none" stroke="#9eded8" stroke-width="1.7199999999999998" stroke-linecap="round" stroke-linejoin="round" stroke-miterlimit="22.926"/><path d="M284.938 90.03c-13.235 6.782-15.592 17.743-8.074 23.79 7.07 6.58 12.26 6.89 11.508.426 8.856 5.09 13.207.297 7.014-6.99 9.512 2.245 12.665-4.98 1.713-10.54 6.734-10.454.43-13.5-12.162-6.687" fill="#fbc39c" fill-rule="evenodd"/><path d="M284.938 90.03c-13.235 6.782-15.592 17.743-8.074 23.79 7.07 6.58 12.26 6.89 11.508.426 8.856 5.09 13.207.297 7.014-6.99 9.512 2.245 12.665-4.98 1.713-10.54 6.734-10.454.43-13.5-12.162-6.687z" fill="none" stroke="#231f20" stroke-width="1.23375" stroke-miterlimit="22.926"/><path d="M278.935 100.31c3.675-2.394 6.356-1.508 8.356 1.625-2.666-1.793-5.453-2.337-8.355-1.626" fill="#231f20" fill-rule="evenodd"/><path d="M273.956 83.83c-7.027 5.782-9.35 13.79-9.306 22.28l10.888 6.48c-5.84-6.213-2.983-16.215 9.4-22.56l.552-.274-.682-.706-1.122-.686-6.425-3.33-3.304-1.204z" fill="#285eb4" fill-rule="evenodd"/><path d="M273.956 83.83c-7.027 5.782-9.35 13.79-9.306 22.28l10.888 6.48c-5.84-6.213-2.983-16.215 9.4-22.56l.552-.274-.682-.706-1.122-.686-6.425-3.33-3.304-1.204z" fill="none" stroke="#231f20" stroke-width=".7037499999999999" stroke-miterlimit="22.926"/><path d="M248.343 78.947c-.206-.02-.35-.192-.33-.383.017-.188.2-.332.402-.314 8.923.788 17.98 2.19 26.285 5.37 4.116 1.578 7.963 3.487 11.498 5.775.3.188-.2.216-.402.495-.394.152-.605.325-.34.523-.322-.217-.65-.418-.98-.624-3.19-1.97-6.625-3.633-10.28-5.035-8.353-3.198-16.882-5.016-25.853-5.808M246.012 88.153c-.11-.154-.077-.373.076-.484.16-.122.375-.088.49.07 5.152 7.033 11.26 12.93 18.425 17.915 2.994 2.08 6.165 3.92 9.5 5.444.16.07.385.1.46.254l.766 1.57c.077.14-.373-.1-.65-.213-3.816-1.655-7.413-3.698-10.786-6.04-7.118-4.95-13.153-11.527-18.282-18.517" fill="#231f20"/><path d="M211.14 99.775c-.41-26.63-16.513-50.875-22.03-41.61" fill="none" stroke="#231f20" stroke-width=".925" stroke-miterlimit="22.926"/><path d="M270.21 133.137c-4.342 5.393-1.08 8.06 2.518 2.337-3.055 6.505 2.667 7.79 3.416.902 0 6.768 5.275 5.66 3.415-1.44 4.05 2.712 6.42-.225 3.237-4.14 5.245 2.46 6.055-2.547 1.08-3.953.45-1.74-1.314-1.68-2.34-.36 1.322-2.724-1.288-3.175-2.15-1.616.502-3.6-2.044-3.84-3.603-2.342.302-4.058-4.194-3.463-3.416-.176-1.435-3.782-5.215-2.492-2.695.896-4.947-4.735-7.945.148-2.52.897-9.172.335-6.523 4.77-.177 3.238-5.983 1.532-3.943 6.146 1.08 4.32-4.996 2.59-2.39 7.026 2.153 1.437z" fill="none" stroke="#231f20" stroke-width="1.23375" stroke-linecap="round" stroke-linejoin="round" stroke-miterlimit="22.926"/><path d="M270.21 133.137c-4.342 5.393-1.08 8.06 2.518 2.337-3.055 6.505 2.667 7.79 3.416.902 0 6.768 5.275 5.66 3.415-1.44 4.05 2.712 6.42-.225 3.237-4.14 5.245 2.46 6.055-2.547 1.08-3.953.45-1.74-1.314-1.68-2.34-.36 1.322-2.724-1.288-3.175-2.15-1.616.502-3.6-2.044-3.84-3.603-2.342.302-4.058-4.194-3.463-3.416-.176-1.435-3.782-5.215-2.492-2.695.896-4.947-4.735-7.945.148-2.52.897-9.172.335-6.523 4.77-.177 3.238-5.983 1.532-3.943 6.146 1.08 4.32-4.996 2.59-2.39 7.026 2.153 1.437" fill="#285eb4" fill-rule="evenodd"/><path d="M96 244.886l6.062-19.262h5.124c8.646 1.067 7.024 9.453-.786 10.378l-7.623.07" fill="none" stroke="#231f20" stroke-width="3.0862499999999997" stroke-linecap="round" stroke-linejoin="round" stroke-miterlimit="22.926"/><path d="M112.166 245.154l9.566-14.814.74 15.285" fill="none" stroke="#231f20" stroke-width="3.08375" stroke-linecap="round" stroke-linejoin="round" stroke-miterlimit="22.926"/><path d="M126.28 244.863l6.245-12.957 5.245-.342c3.32.01 2.567 5.526-1.813 6.65l-7.25 1.615m-12.09.442l5.98-.29" fill="none" stroke="#231f20" stroke-width="3.0862499999999997" stroke-linecap="round" stroke-linejoin="round" stroke-miterlimit="22.926"/><path d="M134.35 238.574l5.095 7.972" fill="none" stroke="#231f20" stroke-width="3.08375" stroke-linecap="round" stroke-linejoin="round" stroke-miterlimit="22.926"/><path d="M256.056 232.845c-.415 1.056-.77 2.138-1.175 3.204-1.145 3.065-2.877 5.737-5.56 7.68-1.236.896-2.684 1.515-3.783 1.19-2.884-.868-1.286-5.954-.555-7.724.645-1.564 1.408-3.074 2.075-4.62m-7.833-1.213l-5.977 13.585m-6.99-11.36c6.913-.383 14.367-3.65 19.932-2.155m-42.386 7.154c4.012-.263 8.016-.96 12.027-1.948m-8.782-5.07c3.627-.653 7.038-.692 10.664-1.915m-10.708 1.636c-2.32 4.183-4.318 8.367-5.637 12.555 4.58 1.117 9.025.624 13.74-.677m-24.955-16.06l-6.2 16.302c-.08.784.4 1.15 1.436 1.096 1.608-.09 3.525-.79 5.032-1.353.935-.345 1.84-.747 2.71-1.202 1.988-1.036 4.276-2.436 5.614-4.29 1.064-1.46 1.252-2.972.556-4.522-.987-2.226-2.913-3.455-5.015-4.467-1.26-.6-2.638-1.12-4.133-1.563zm-28 11.446c4.008-.27 8.02-.96 12.024-1.948m-8.783-5.076c3.627-.647 7.036-.685 10.66-1.914m-10.7 1.64c-2.322 4.185-4.32 8.367-5.643 12.556 4.578 1.118 9.032.625 13.744-.676m-19.367-10.982l-5.974 13.585m-6.99-11.355c6.918-.387 14.367-3.656 19.943-2.16" fill="none" stroke="#231f20" stroke-width="3.0862499999999997" stroke-linecap="round" stroke-linejoin="round" stroke-miterlimit="22.926"/><path d="M284.846 230.608c-1.488 5.076-3.438 10.148-4.452 15.224m-14.324-13.797c2.546 3.54 2.84 8.538 3.357 13.168 3.396-4.812 7.187-9.586 11.485-14.31" fill="none" stroke="#231f20" stroke-width="3.08375" stroke-linecap="round" stroke-linejoin="round" stroke-miterlimit="22.926"/><path d="M308.46 239.163l5.976-.288m-10.43 5.17l9.562-14.814.742 15.287m-21.49-18.303l-6.2 16.3c-.08.79.395 1.155 1.43 1.096 1.612-.086 3.533-.786 5.038-1.348.935-.345 1.837-.75 2.705-1.203 1.992-1.04 4.28-2.438 5.62-4.29 1.063-1.464 1.25-2.976.56-4.525-.994-2.22-2.916-3.454-5.023-4.462-1.257-.603-2.635-1.126-4.13-1.57z" fill="none" stroke="#231f20" stroke-width="3.0862499999999997" stroke-linecap="round" stroke-linejoin="round" stroke-miterlimit="22.926"/><path d="M310.703 255.123c.965 0 1.752.783 1.752 1.75 0 .97-.787 1.753-1.752 1.753-.97 0-1.75-.783-1.75-1.752 0-.968.78-1.75 1.75-1.75M91.115 262.967c57.68-20.954 132.738-14.258 180.394-10.334 12.666 1.046 24.332 2.97 32.285 3.05-10.457.14-22.02-1.102-32.76-1.365-55.87-1.386-115.02-5.507-172.637 16.742-9.172 7.014-18.344-3.505-7.283-8.093" fill="#231f20" fill-rule="evenodd"/><path d="M360.24 189.583c-.345-.624-.83-1.098-1.438-1.43-.615-.337-1.252-.503-1.92-.503-.666 0-1.305.166-1.918.503-.61.332-1.095.806-1.44 1.43-.35.623-.526 1.272-.526 1.952 0 .676.17 1.32.516 1.933.34.615.82 1.095 1.437 1.435.614.345 1.253.518 1.933.518.676 0 1.32-.172 1.933-.517.62-.34 1.096-.82 1.435-1.435.346-.613.52-1.257.52-1.933 0-.68-.174-1.33-.53-1.952m-.643 3.51c-.278.496-.66.878-1.155 1.156-.494.277-1.012.418-1.554.418-.543 0-1.06-.14-1.555-.42-.495-.277-.877-.66-1.15-1.154-.273-.5-.413-1.017-.413-1.56 0-.545.14-1.07.423-1.573.28-.496.665-.887 1.16-1.15.49-.263 1.002-.397 1.535-.397.532 0 1.05.134 1.54.397.493.263.877.654 1.16 1.15.284.504.42 1.03.42 1.575 0 .542-.136 1.06-.41 1.56" fill="#231f20"/><path d="M358.23 192.783c-.167-.293-.273-.46-.3-.505-.117-.152-.212-.258-.28-.316-.066-.052-.162-.106-.288-.153.35-.055.62-.18.817-.395.195-.21.292-.466.292-.763 0-.216-.054-.412-.16-.59-.1-.177-.226-.31-.383-.392-.15-.087-.37-.144-.643-.17-.1-.004-.538-.01-1.326-.01h-.834v4.128h.835v-1.7h.222c.23 0 .428.06.577.174.15.12.342.403.58.853l.344.673h1.03l-.484-.835zm-1.02-1.57c-.126.04-.423.058-.907.058h-.342v-1.126h.343c.474 0 .776.02.897.057.124.043.22.105.288.193.062.092.095.19.095.313 0 .114-.033.22-.105.315-.067.093-.16.16-.268.192" fill="#231f20"/></svg>