<svg xmlns="http://www.w3.org/2000/svg" width="400" height="347.873"><path d="M342.867 296.028s8.99-16.8 12.565-31.436c3.575-14.645 9.127-82.907-19.055-111.877-28.175-28.97-83.695-83.73-147.608-65.483C124.86 105.492 72.215 152.05 71.284 210.26c-.924 58.205 1.984 69.377 1.984 69.377s27.957 16.602 43.54 17.064c15.595.463 155.654 2.053 181.063 2.448 25.41.4 44.994-3.12 44.994-3.12" fill="#fff"/><path d="M297.12 81.964c-.925-.054-1.774.612-1.83 1.434-.04.57 1.204 1.55 2.026 1.59.81.04 1.34-.475 1.366-1.31.028-.912-.652-1.66-1.563-1.714M205.6 109.432c-.013-.115-.08-.414-.088-.727-.007-.462-.027-.917-.53-1.135-.503-.217-.81.157-1.183.415-.977.713-1.76 1.644-2.656 2.453-.197.184-.414.367-.25.707.257.543 2.16 1.332 2.765 1.135 1.426-.456 1.935-1.15 1.942-2.848m2.406-8.786c-.877-.096-1.51.346-1.89 1.04-.42.767-.128 1.57.28 2.27.883 1.514 2.092 2.846 2.5 4.627.095.435.578.645.98.877 1.643.958 2.73-.157 3.852-1.047.68-.544.72-1.59-.014-1.998-1.638-.924-2.35-2.46-3.017-4.064-.504-1.188-1.496-1.61-2.692-1.704M177.074 294.07c.863 0 1.733.035 2.59-.013.733-.04 1.5-.483 1.542-1.108.027-.504-.79-.81-1.448-.932-5.81-1.053-11.62-2.16-17.43-3.2-.796-.143-1.61-.517-2.447-.116-.278.13-.624.197-.638.578-.007.34.177.577.47.754.733.442 1.42 1.006 2.262 1.243 4.947 1.394 9.894 2.807 15.1 2.794m14.488-67.317c.123 1.536.163 3.058.38 4.566.55 3.907 1.55 7.733 2.352 11.593 1.128 5.402 2.684 10.69 4.845 15.745 1.828 4.288 4.023 8.42 6.197 12.552 2.936 5.572 6.837 10.438 11.186 14.99 2.4 2.51 5.328 4.017 8.352 5.472.183.074.394.217.537-.04.108-.198-.075-.314-.19-.443-1.068-1.122-2.033-2.393-3.235-3.358-3.718-2.963-6.87-6.442-9.453-10.384-3.61-5.504-7.38-10.914-9.67-17.193-1.23-3.357-3.167-6.442-4.2-9.9-1.353-4.513-2.175-9.162-3.616-13.654-.49-1.54-.978-3.097-1.196-4.708-.516-3.792-.638-7.638-1.29-11.417-.048-.265-.008-.61-.402-.61-.428-.008-.292.38-.34.624-.414 2.044-.04 4.117-.258 6.163m-9.187-96.14v-2.9c0-.28 0-.558.02-.83.183-3.064 1.76-4.294 4.696-3.492 4.12 1.13 8.393 1.543 12.484 2.794 5.85 1.794 12.03 2.25 17.846 4.26.958.327 1.984.232 2.983.17.374-.02.727-.176.856-.51.15-.407-.293-.638-.517-.8-.768-.538-1.645-.925-2.548-1.11-3.786-.74-7.374-2.106-11.023-3.268-3.214-1.026-6.388-2.16-9.71-2.76-2.407-.434-4.887-.413-7.252-1.12-1.99-.59-4.003-1.026-6.103-1.02-1.155 0-2.147.354-3.003 1.17-1.482 1.406-1.828 3.275-2.21 5.137-.875 4.234-1.453 8.53-2.004 12.817-.366 2.874-.665 5.756-1.032 8.623-.252 1.917-.38 3.88-.558 5.818-.272 3.004-.768 5.974-1.216 8.957-1.386 9.134-3.085 18.22-4.764 27.298-.815 4.43-1.665 8.848-2.54 13.26-1.245 6.305-2.61 12.584-3.957 18.87-.482 2.263-.97 4.547-1.175 6.87-.11 1.25-.265 2.495-.68 3.704-.516 1.508-.72 3.078-.44 4.682.08.468.19.93.746.97.51.035.775-.304.95-.787.416-1.128.66-2.304.953-3.473 1.305-5.056 2.57-10.118 3.94-15.16 2.495-9.195 4.12-18.587 5.778-27.958.747-4.234 1.42-8.48 2.297-12.688.93-4.457 1.794-8.936 2.44-13.44 1.032-7.232 2.03-14.456 3.485-21.618.836-4.112 1.536-8.244 1.258-12.464m109.763 57.764c-.584 0-1.176.013-1.76 0-1.678-.068-3.12.496-4.064 1.862-1.93 2.765-3.955 5.456-4.886 8.807-1.502 5.362-3.167 10.676-4.736 16.017-1.63 5.498-3.222 11.01-4.846 16.514-1.984 6.72-4.002 13.428-5.98 20.15-2.06 6.99-4.118 13.99-6.136 21.004-.653 2.27-1.563 4.472-1.733 6.877-.102 1.42.258 2.59 1.19 3.615.74.815 1.69 1.29 2.676 1.72 2.834 1.243 5.777 2.024 8.876 1.548 4.817-.747 9.078-2.847 12.958-5.715 6.164-4.532 10.54-10.662 14.978-16.758 2.093-2.88 3.65-6.09 5.674-9.018.856-1.237 1.583-2.582 2.025-4.077.788-2.712 1.645-5.403 2.582-8.067 1.842-5.28 4.24-10.377 4.988-16.01.32-2.467 1.047-4.873 1.4-7.34.605-4.274.09-8.644.83-12.932.285-1.658-.38-3.18-.72-4.77-.41-1.923-1.204-3.582-2.502-5.022-1.583-1.753-3.52-3.05-5.545-4.227-1.7-.972-3.27-2.23-5.362-2.27-.768-.013-1.468-.292-2.168-.598-2.46-1.115-5.103-1.204-7.74-1.312M54.778 264.59c.13.307.19.497.273.68 1.673 3.276 3.67 6.36 5.968 9.222 7.25 9.06 16.513 15.46 27 20.238 9.112 4.152 18.673 6.863 28.44 8.956 5.23 1.122 10.49 1.992 15.785 2.712 2.086.285 4.18.584 6.26.76 2.785.24 5.578.517 8.364.633 3.656.15 7.312.354 10.982.422 9.948.184 19.883-.21 29.818-.693 12.966-.633 25.912-1.64 38.872-2.352 7.285-.4 14.563-.877 21.848-1.27 6.394-.354 12.79-.68 19.19-.966 11.254-.496 22.508-.843 33.768-1.006 6.51-.095 13.028-.08 19.545.04 8.244.15 16.487.144 24.716.87 4.832.43 9.637 1 14.373 2.04 1.52.333 3.023.706 4.532 1.067-1.957-1.142-4.084-1.876-6.198-2.562-6.163-2.004-12.497-3.282-18.898-4.192-7.714-1.108-15.467-1.76-23.228-2.358-4.383-.34-8.78-.585-13.17-.768-7.34-.313-14.685-.496-22.038-.456-11.54.055-23.072.197-34.597.81-5.532.29-11.07.502-16.595.876-5.253.367-10.513.666-15.76 1.067-6.802.508-13.59 1.1-20.386 1.63-4.69.367-9.385.734-14.08 1.005-5.75.333-11.5.558-17.248.693-10.255.232-20.503.055-30.717-.924-5.266-.503-10.52-1.182-15.745-2.127-4.343-.774-8.665-1.583-12.92-2.71-5.62-1.483-11.157-3.23-16.512-5.52-5.926-2.52-11.505-5.613-16.63-9.513-5.918-4.506-10.893-9.895-15.01-16.303m157.027-34.385c-.517-5.49-1.054-10.86-1.53-16.242-.842-9.452-1.664-18.905-2.446-28.358-.06-.734-.42-1.06-.99-1.237-.993-.3-2.006-.197-2.747.503-1.053.993-2.113 2.08-2.52 3.508-.98 3.425-1.903 6.884-2.257 10.43-.802 7.877-1.094 15.76-.7 23.67.116 2.358-.047 4.73.3 7.08.53 3.61 1.04 7.24 1.854 10.806 1.46 6.395 2.318 12.946 5.104 18.994 1.964 4.234 3.547 8.658 5.87 12.715 2.42 4.213 5.52 7.95 8.618 11.675 2.4 2.86 5.124 5.34 8.427 7.135.63.347 1.25.728 2.03.687 4.846-.252 9.69-.496 14.537-.707.564-.027 1.04-.224 1.406-.57 1.78-1.693 3.724-3.276 5.022-5.376 1.34-2.16 2.406-4.492 3.602-6.755.014-.027.014-.068.02-.095 1.38-4.676 2.78-9.344 4.153-14.013 1.74-5.912 3.452-11.824 5.198-17.73 1.862-6.293 3.8-12.572 5.607-18.885 1.862-6.56 3.86-13.07 5.695-19.634 1.542-5.524 3.397-10.975 5.035-16.48.408-1.35.93-2.656 1.36-3.995 1.046-3.288 1.834-6.652 2.813-9.96 1.848-6.2 3.77-12.37 5.565-18.58 2.053-7.075 4.336-14.074 6.844-21 1.202-3.33 2.663-6.618 2.038-10.356-.34-2.04-2.052-2.793-3.377-2.066-2.23 1.223-4.383 2.583-6.49 4.016-1.4.952-2.65 2.12-3.962 3.208-2.57 2.12-5.294 3.955-8.535 4.934-2.446.74-4.58.448-6.333-1.51-.754-.848-1.434-1.773-2.222-2.588-1.61-1.672-3.806-2.052-5.437-.924-1.134.78-2.065 1.814-2.956 2.874-2.942 3.534-4.362 7.95-6.802 11.77-1.835 2.875-3.33 6.008-6.306 7.985-.694.47-1.23.442-1.876-.013-.877-.626-1.692-1.312-2.467-2.046-1.494-1.386-2.425-1.203-2.982.74-1.495 5.18-3.167 10.31-4.2 15.617-.7 3.61-2.195 6.98-3.472 10.405-.537 1.462-1.258 2.848-2.094 4.16-.72 1.12-1.304 1.14-2.215.21-1.04-1.074-1.298-2.392-1.305-3.82-.034-7.033-.075-14.066-.115-21.106-.007-1.422.007-2.842-.06-4.262-.042-1.033-.117-2.066-.783-2.963-1.366-1.835-3.153-1.876-4.6-.177-2.48 2.936-3.215 6.585-3.9 10.146-.674 3.534-.715 7.19-1.027 10.792-.286 3.343-.408 6.707-.666 10.05-.652 8.536-1.297 17.07-1.936 25.6-.503 6.673-.986 13.34-1.488 20.006-.04.544 0 1.108-.3 1.733m60.89-159.29c.53.51 1.17.72 1.896.645.074-.007.136 0 .204 0 1.264-.06.863 1.46 1.74 1.8 1.032.422 1.25 1.13.577 2.047-.367.49-.163.8.306 1.012 1.195.543 2.146 1.447 3.24 2.126 1.556.98 3.37 1.244 5.172.517 2.42-.972 4.33-2.474 4.852-5.192.278-1.44.11-2.9-.082-4.35-.08-.698-.49-1.44.333-1.976.666-.428 1.99-.238 2.76.265 1.65 1.066 1.997 2.826 2.446 4.51.55 2.04 1.326 3.99 2.033 5.975.47 1.298 1.67 1.78 2.69 2.453.77.51 1.618.917 2.4 1.427 1.74 1.114 3.425 1.1 5.137-.075 1.7-1.17 3.636-1.828 5.545-2.54.714-.28 1.604-.307 2.38-.198 2.82.387 4.518-1.237 6.047-3.2.686-.87.782-1.98 1.047-3.012.637-2.514 1.167-5.035 1.54-7.61.558-3.854-1.045-6.905-3.213-9.827-1.29-1.74-2.752-3.344-4.26-4.886-1.02-1.04-1.856-2.134-2.488-3.446-1.748-3.635-4.758-6.17-8.054-8.235-3.255-2.046-6.218-4.417-9.29-6.687-1.434-1.067-3.03-1.903-4.56-2.834-1.59-.965-2.344-2.582-3.234-4.084-.87-1.454-1.706-2.922-2.508-4.417-.51-.958-.666-1.91.17-2.868.618-.7.57-1.672.66-2.57.053-.55-.15-1.27.543-1.555.72-.292 1.223.11 1.692.673.29.36.72.632 1.12.897.557.374.816.876.918 1.536.224 1.563.638 1.89 2.16 1.84.925-.026 1.244.314 1.108 1.388-.17 1.447-.292 2.894-.367 4.35-.07 1.317.49 2.1 1.664 2.683 3.37 1.658 6.945 3.024 10.003 5.192 4.343 3.064 8.99 5.755 12.946 9.363 1.203 1.088 2.494 2.032 3.962 2.84.503-1.148.367-2.194-.285-3.166-1.183-1.76-2.55-3.418-3.595-5.253-1.455-2.528-3.2-4.927-4.057-7.767-.34-1.108-.4-2.202.36-3.235.21-.28.4-.4.693-.537 1.972-.924 3.65-2.147 4.73-4.132.986-1.807-.665-3.207-2.126-3.46-.184-.033-.388.05-.605-.026-1.49-.482-1.496-.476-2.828.04-.116-.937.313-1.555 1.176-1.65 1.23-.136 2.385-.456 3.554-.843 1.114-.367 1.366-.06 1.237 1.094-.076.707.155 1.373.36 2.032.04.15.1.394.468.408 1.542.054 3.41 1.957 3.52 3.48.04.577-.34.964-.605 1.4-.496.82-.856 1.664-.462 2.636.62 1.57 2.753 2.25 4.39 1.318 1.904-1.067 3.514-2.52 5.023-4.07.972-.993.815-1.897-.415-2.882-1.094-.883-1.862-1.882-1.597-3.364.103-.537.226-1.107.497-1.57.26-.448.564-.788.286-1.345-.088-.17.034-.434.278-.488.92-.218 1.075-1.054 1.463-1.727.652-1.12 1.5-1.97 2.996-1.705.618.108 1.27-.027 1.793-.38 1.19-.81 2.576-1.102 3.888-1.584.633-.23 1.61-.51 1.924.088.326.646-.693.924-1.15 1.312-2.085 1.773-4.81 2.16-7.19 3.31-.535.257-1.045.366-1.086 1.134-.013.32-.326.7-.598.93-.442.368-.61.72-.374 1.258.265.585.734.87 1.32.802 2.996-.36 5.993-.713 8.867-1.638 1.15-.373 1.68-1.59 2.494-2.42 2.04-2.05 3.982-4.212 6.544-5.653 1.075-.592 2.176-.94 3.324-.164.57.38.79.788.13 1.29-1.23.925-1.985 2.38-3.398 3.08-1.393.686-2.74 1.474-4.146 2.12-1.216.564-1.55 1.7-2.188 2.643-.217.34.02.53.265.665 1.142.653 2.195 1.332 2.718 2.678.265.666 1.156.496 1.794.387.61-.102 1.202-.333 1.807-.475.462-.11.734-.415.85-.823.3-1.087 1.005-1.875 1.82-2.582 1.435-1.25 2.672-2.678 3.95-4.084 1.23-1.346 2.704-1.516 3.96-.564.85.652.857 1.17-.026 1.794-.87.61-1.773 1.203-2.697 1.74-1.502.87-2.52 2.228-3.65 3.465-.346.39-.142.667.32.688 1.563.06 2.23 1.1 2.644 2.385.543 1.665 1.535 2.84 3.31 3.248.87.205 1.508.77 2.16 1.34 1.162 1.026 1.842.978 2.91-.19.977-1.054 1.52-2.365 2.03-3.677.796-2.052 1.686-4.077 2.31-6.177.817-2.732 1.245-5.545.456-8.386-.204-.727-.21-1.366.55-1.794.823-.455 1.475-.476 2.17.353 1.562 1.875 1.677 2.52.304 4.552-1.57 2.325-2.12 4.99-2.772 7.632-.517 2.127-.823 4.274-.734 6.47.028.686-.15 1.277-.556 1.84-.17.24-.43.58-.048.925.347.305.666.278 1.026.04 1.454-.938 2.827-1.977 4.044-3.214.686-.7 1.29-1.393 2.575-1.088.79.19 1.544-.76 2.352-1.128 2.44-1.128 4.88-2.222 7.32-3.33.054.082.1.17.156.26-.578.413-1.142.848-1.74 1.215-3.452 2.148-6.89 4.302-10.452 6.273-.693.387-1.332.85-1.875 1.433-.597.647-1.338 1.034-2.18 1.333-1.428.524-2.604 1.34-2.964 3.024-.285 1.36-1.02 2.576-1.89 3.636-1.535 1.862-.882 3.853-.556 5.83.115.674.625.232.904.123 1.19-.47 2.344-1 3.52-1.488.482-.204.985-.34 1.515-.306.672.04.896.537.856 1.074-.048.645-.605.312-.884.258-2.005-.374-3.69.673-5.464 1.244-.883.278-.32 1.148-.136 1.67.266.708.816 1.265 1.516 1.646.346.19.802.442.544.958-.218.435-.605.102-.918.06-.83-.114-1.617-.386-2.385-.692-.36-.15-.75-.204-1.122-.095-.728.19-1.482.55-1.59 1.312-.082.59.618.924 1.14 1.162 2.957 1.344 5.213 3.668 7.802 5.585-1.12-.204-2.14-.055-3.227.238-1.013.265-1.713-.79-2.297-1.563-.564-.74-1.42-1.006-2.127-1.502-.2-.143-.56-.252-.715.122-.13.32.102.612.353.64 1.713.17 2.073 1.412 2.345 2.785.11.51.367.992.795 1.373.347.306.45.775.4 1.243-.053.613-.516.92-1.005 1.062-.59.163-.584-.395-.734-.768-.49-1.285-1.51-2.107-2.515-2.984-.76-.672-1.68-1.053-2.46-1.65-1.386-1.054-2.997-1.333-4.62-1.666-.83-.17-1.455.34-2.135.66-1.835.862-3.432 2.03-4.743 3.608-1.027 1.243-1.36 2.63-.98 4.18.477 1.943 1.075 3.86 1.503 5.816.408 1.828.686 3.704.23 5.552-.332 1.36-1.23 2.284-2.52 2.963-1.44.748-2.95 1.1-4.506 1.29-1.733.22-2.453 1.585-3.425 2.72-1.408 1.664-2.216 3.662-3.18 5.565-1.252 2.474-2.93 4.642-4.63 6.81-2.282 2.908-4.56 5.83-7.162 8.467-1.434 1.454-2.86 2.895-4.16 4.465-.63.768-.658 1.563-.23 2.297.388.645 1.176.652 1.89.543 1.583-.25 3.003-.978 4.47-1.583.096-.034.164-.15.26-.17.903-.218 2.052-.64 2.663.075.558.652.24 1.794.056 2.71-.068.348-.408.41-.687.558-3.1 1.604-6.287 2.943-9.74 3.568-.135.02-.27.054-.407.095-.747.252-1.63 1.312-1.42 1.835.3.748 1.053.897 1.76 1.06.347.082.877-.272 1.013.163.15.463-.075.953-.428 1.374-1.27 1.543-2.902 2.637-4.458 3.833-1.495 1.148-3.147 2.113-4.193 3.764-.544.865-.91 1.74-.286 2.706.62.945 1.53 1.373 2.658 1.257 1.91-.176 3.765-.47 5.437-1.522 1.814-1.134 2.93-2.778 3.71-4.7.3-.715.64-1.354 1.53-1.293.917.055 1.705.47 2.092 1.312.36.787.367 1.63-.333 2.316-1.63 1.604-3.29 3.024-5.735 3.452-1.38.245-2.63 1.305-3.91 2.032-2.003 1.142-3.98 2.345-6.074 3.33-1 .47-1.475 1.753-1.074 2.86.34.953 1.135 1.306 2.08 1.136 3.846-.686 7.706-1.278 11.484-2.324 2.012-.557 3.37-1.896 4.275-3.73 1.754-3.548 4.323-6.205 8.19-7.43.625-.196 1.27-.508 1.89-.488 1.514.06 2.88-.605 4.348-.795 1.876-.246 3.8-.653 5.51-1.64.26-.155.58-.318.858-.304 2.23.108 3.934-1.17 5.728-2.148 1.51-.822 2.93-1.808 4.41-2.67 1.47-.857 3.066-.626 4.907-.476-1.793 1.19-3.465 2.1-5.245 2.813-2.997 1.21-5.98 2.5-9.052 3.54-2.5.85-4.723 2.06-6.653 3.833-.23.218-.47.347-.822.36-1.183.048-2.168.578-2.997 1.407-.842.843-1.616 1.733-2.92 1.95-.694.116-1.353.517-1.81 1.13-.243.345-.597.522-.984.48-.843-.087-1.325.348-1.8.953-1.02 1.31-2.026 2.623-2.597 4.206-.43 1.203-.116 1.916 1.154 2.236.76.197 1.55.312 2.33.455.756.143.973.483.79 1.298-.333 1.522-1.19 2.515-2.365 3.493-3.773 3.147-8.204 3.622-12.804 3.378-2.963-.15-5.892-.53-8.8-1.27-1.414-.36-2.855-.735-4.302-.98-3.317-.57-5.73.945-7.74 3.344-2.644 3.166-3.97 6.897-4.73 10.907-.612 3.18-1.34 6.36-2.406 9.432-.238.68-.652 1.29-.992 1.937-.81 1.53-.524 2.684.87 3.683 3.425 2.453 7.352 3.785 11.287 5.104 4.39 1.47 8.814 2.855 12.64 5.594 3.65 2.61 6.34 5.986 8.148 10.064 1.802 4.037 2.543 8.304 2.787 12.694.327 5.668-.407 11.254-1.338 16.826-.953 5.743-2.217 11.424-3.93 16.99-1.304 4.22-2.826 8.365-4.648 12.408-1.814 4.003-3.77 7.93-6.116 11.655-2.466 3.902-4.668 7.972-7.427 11.703-2.87 3.853-6.165 7.326-9.406 10.853-.823.897-1.244 2.154-1.95 3.187-.252.36.203.34.4.346 2.596.06 5.185.475 7.788.346 1.53-.007 3.024.326 4.54.387 3.078.123 6.13.415 9.194.693 5.443.476 10.873 1.04 16.282 1.788 1.36.19 2.705.64 4.112.482 1.515.557 3.126.557 4.696.816 1.148.23 2.29.537 3.452.666 1.502.17 2.942.768 4.485.666.64.55 1.488.53 2.236.68 8.357 1.644 16.52 3.975 24.483 6.985 6.776 2.568 13.225 5.77 18.954 10.254 2.174 1.7 4.172 3.608 5.864 5.797.39.497 1.143.74 1.11 1.59-3.385-3.07-7.198-5.422-11.343-7.223-3.493-1.522-7.095-2.732-10.785-3.677-3.187-.808-6.38-1.542-9.616-2.14-5.015-.918-10.064-1.502-15.127-1.97-11.676-1.068-23.378-1.36-35.087-1.163-5.613.095-11.233.19-16.84.455-7.536.367-15.065.863-22.602 1.36-4.797.32-9.6.63-14.385 1.134-5.097.53-10.2.925-15.284 1.543-5.537.672-11.096 1.127-16.628 1.78-5.613.665-11.206 1.447-16.805 2.2-3.765.504-7.544.966-11.33 1.36-8.337.857-16.69 1.4-25.054 1.68-7.238.25-14.49.244-21.726-.083-8.95-.387-17.846-1.304-26.7-2.657-12.45-1.902-24.573-5.035-36.31-9.602-9.092-3.534-17.75-7.93-25.592-13.795-8.997-6.735-16.187-15.012-20.68-25.39-3.214-7.426-4.695-15.2-3.628-23.328.143-1.088.28-2.195.768-3.42 4.077 15.788 13.59 27.306 26.884 35.998.57.4 1.113.856 1.725 1.217 2.133 1.236 4.308 2.412 6.435 3.67.632.366 1.217.706 1.97.46.497.864 1.49.926 2.257 1.32 1.155.604 2.392 1.06 3.588 1.583 1.862.578 3.39 1.957 5.403 2.127.204.02.38.06.543.238.51.578 1.17.66 1.89.462.68.17 1.36.347 2.04.523.53.415 1.195.483 1.8.7 1.15.408 2.31.93 3.425 1.196 1.29.298 2.644.74 4.03.652.367-.02.768.054 1.12.163 2.393.754 4.867 1.053 7.32 1.44 1.482.232 2.983.43 4.472.632 2.793.367 5.565.877 8.372 1.1.55.05 1.093.124 1.643.164 2.046.165 4.057.695 6.123.538 1.937.15 3.874.3 5.804.435.89.06 1.536-.448 1.325-1.305-1.216-5.055.98-9.54 2.345-14.14 1.624-5.513 3.35-10.997 4.967-16.508 2.31-7.87 4.472-15.78 6.395-23.75 2.33-9.61 4.512-19.246 6.374-28.95.958-4.968 1.944-9.922 2.807-14.91 1.413-8.21 2.8-16.425 3.894-24.69.652-4.905 1.352-9.805 1.977-14.71.517-4.072.965-8.156 1.414-12.233.836-7.537 2.066-15.026 2.657-22.582.414-5.267 1.753-10.29 3.418-15.257 1.74-5.13 7.142-7.713 12.22-5.77 1.8.694 3.553 1.53 5.326 2.304.224.096.434.198.672.272 1.89.62 2.576.143 2.617-1.862.026-1.522.42-2.997.665-4.485.23-1.38 1.59-2.256 3.41-2.358.837-.05 1.652-.17 2.46-.375.633-.163.966-.373.62-1.128-.45-.978-.768-2.005-1.13-3.01-.298-.877-.162-1.672.606-2.236.776-.583 1.476-.217 2.176.266 1.305.877 2.01 2.045 1.95 3.65-.027.665.014 1.324.068 1.984.15 1.84 1.414 3.31 3.22 3.737 4.187 1.006 8.66-1.773 9.148-6.163.21-1.944.4-3.922-.23-5.865-.47-1.462-1.36-2.536-2.678-3.29-1.033-.598-1.067-1.692-.102-2.365 1.583-1.094 2.704-.768 3.588.965.53 1.046.815 2.127.795 3.303-.02 1.175-.027 2.35-.027 3.527 0 .97.455 1.447 1.454 1.48 1.638.062 1.835.266 1.903 1.904.047 1.162.326 2.27.917 3.248.347.564 1.074.788 1.754.83 1.026.067 2.065.08 3.092-.157.57-.136 1.175-.143 1.76-.143 1.257.007 2.025.537 2.44 1.713.183.51.325 1.053.4 1.597.272 1.93.986 2.636 2.936 2.813.448.04.897.02 1.345.007 1.55-.06 1.977.306 2.093 1.87.06.76.074 1.514.27 2.27.606 2.323 2.53 3.73 4.88 3.274 3.256-.625 6.504-1.352 9.725-2.14 2.114-.53 2.46-1.298 1.87-3.432-1.21-4.363-2.413-8.726-3.637-13.082-1.46-5.233-3.33-10.275-6.57-14.713-2.086-2.848-4.383-5.41-7.897-6.545-.83-.265-1.1-.985-.835-1.848.27-.904.95-.79 1.603-.605.796.217 1.517.646 2.29.938.715.265 1.4.394 2.115.34 2.908-.238 5.035 1.08 6.68 3.33.476.638.938 1.29 1.352 1.963.286.47.626.79 1.128 1.02 1.108.51 1.387.36 1.55-.877.136-.924-.38-1.672-.68-2.46-1-2.61-2.045-5.22-3.153-7.78-.435-1-1.114-1.904-1.658-2.862-.245-.442-.666-1.026-.265-1.413.34-.34.984-.1 1.46.15 2.215 1.17 4.173 2.678 5.79 4.614 1.142 1.353 2.06 2.827 2.745 4.465 1.15 2.724 3.03 4.92 5.185 6.897 2.06 1.896 2.474 4.023.83 6.258-1.978 2.698-2.236 5.566-1.496 8.665.578 2.426 1.27 4.81 2.705 6.904 1.1 1.597 2.554 2.834 4.104 3.97.632.475 1.23.998 1.84 1.508 1.197 1 2.36.706 3.12-.673.64-1.15.626-2.346.483-3.582-.34-2.84-.7-5.695-.938-8.55-.252-3.14-1.598-5.728-3.202-8.277-.434-.692-.74-1.364-.536-2.234.217-.972-.225-1.794-1.094-2.107-1-.354-1.305-1.102-1.604-1.945-.17-.482-.394-.958-.59-1.433l-.008-.007z" fill="#ce5f25"/><path d="M136.286 293.25c-2.066.15-4.078-.373-6.116-.536-.55-.047-1.1-.115-1.652-.163-2.813-.23-5.586-.733-8.38-1.107-1.48-.197-2.975-.394-4.464-.625-2.453-.387-4.933-.693-7.318-1.44-.36-.11-.748-.184-1.122-.164-1.393.082-2.745-.36-4.023-.652-1.113-.265-2.282-.788-3.424-1.196-.605-.224-1.277-.285-1.807-.7-.015-.136-.015-.285-.056-.415-2.936-8.615-5.307-17.39-6.952-26.352-.897-4.866-1.495-9.772-1.774-14.726-.17-3.052-.013-6.09-.06-9.134-.198 2.365-.436 4.716-.43 7.102.015 4.47.253 8.93.79 13.367.978 8.087 2.602 16.044 4.71 23.907.515 1.923.89 3.9 1.732 5.722-.714.204-1.373.122-1.896-.455-.15-.176-.326-.224-.537-.244-2.012-.163-3.547-1.55-5.396-2.127-.746-2.033-1.507-4.065-2.24-6.11-3.963-10.996-6.45-22.317-7.504-33.965-.81-9.045-.74-18.07.252-27.088 2.106-19.306 8.052-37.362 17.893-54.1 10.208-17.363 23.622-31.776 40.177-43.254 11.32-7.836 23.56-13.802 36.846-17.96-.503 1.555-.986 2.996-1.448 4.45-1.57 4.866-2.507 9.84-2.908 14.944-.435 5.592-1.312 11.144-1.992 16.717-.863 7.013-1.596 14.047-2.48 21.053-1.278 10.098-2.786 20.17-4.492 30.213-2.005 11.804-4.288 23.56-6.89 35.256-3.16 14.264-6.85 28.386-11.09 42.37-1.7 5.628-3.644 11.187-5.044 16.895-.843 3.46-1.217 6.96-.904 10.52M334.722 294.546c-1.406.163-2.752-.292-4.11-.475-5.41-.754-10.84-1.318-16.283-1.8-3.066-.265-6.124-.564-9.196-.687-1.515-.06-3.017-.394-4.546-.38.027-.462.353-.74.645-1.04 5.56-5.668 10.072-12.096 14.21-18.865 5.083-8.304 9.4-16.92 12.423-26.177 2.623-8.018 4.396-16.227 5.586-24.565.842-5.892 1.155-11.79.4-17.716-1.032-8.15-3.886-15.468-9.84-21.367-3.955-3.907-8.78-6.333-13.944-8.168-3.323-1.176-6.72-2.134-9.97-3.54-.516-.232-.72-.442-.536-1.068 1-3.384 1.767-6.83 2.473-10.288.51-2.482 1.49-4.745 3.187-6.675.483-.543.91-.74 1.693-.53 5.164 1.38 10.397 2.31 15.772 2.222.177 0 .36.04.524-.007 2.257-.618 3.473.45 4.676 2.325 6.755 10.424 12.17 21.467 15.983 33.305 2.915 9.072 4.872 18.342 5.837 27.822 1.182 11.54.917 23.03-.802 34.508-2.263 15.202-7.02 29.575-14.183 43.166M93.35 99.856c-.17-.224.325-.788-.457-.836-1.733-.11-3.22.34-4.342 1.726-.25.3-.53.66-.32 1.02.525.876 1.347 1.386 2.32 1.617.78.19 1.392-.136 1.915-.727.7-.79.727-1.76.884-2.8m19.618-39.47c.333 2.55 1.27 4.798 3.22 6.552.545.49 1.197.815 1.91 1.005.47.136.782.177.68-.523-.272-1.814-.496-3.642-1.196-5.355-.49-1.182-1.02-2.358-1.903-3.31-.925-.998-2.135-.706-2.536.6-.102.325-.13.678-.176 1.032m24.063-.972c1-.483 1.673-1.047 2.264-1.72 2.025-2.29 3.323-4.987 4.193-7.89.38-1.256.686-2.54.462-3.873-.13-.734-.456-1.338-1.183-1.57-.687-.217-1.298.09-1.794.558-.768.727-1.23 1.65-1.618 2.623-1.46 3.75-1.87 7.7-2.324 11.872m-26.957-1.183c.08-.007.13.007.142-.007.13-.197.265-.394.38-.61 2.1-3.902 3.086-8.13 3.514-12.498.407-4.153.346-8.298-.497-12.416-.21-1.005-.61-1.91-1.31-2.663-.64-.68-1.102-.618-1.503.21-.258.524-.442 1.095-.57 1.666-.762 3.29-.946 6.64-1.047 10.003-.164 5.464.088 10.907.89 16.316m52.598-21.27c.586-.292.837-.68 1.102-1.02 5.973-7.99 8.692-17.097 9.276-26.938.04-.625-.04-1.25-.272-1.834-.197-.51-.53-.93-1.1-1.006-.53-.068-.796.374-1.047.734-.79 1.107-1.28 2.37-1.734 3.642-3.044 8.53-4.98 17.322-6.225 26.422m19.043-4.2c.53-.06.706-.4.944-.632 3.54-3.44 5.96-7.618 7.95-12.062 2.006-4.472 3.603-9.066 4.18-13.965.102-.87.157-1.74-.353-2.515-.442-.672-.978-.856-1.61-.21-.64.645-1.122 1.413-1.53 2.215-4.396 8.576-7.223 17.71-9.58 27.17M87.79 100.12c1.284-1.963 3.126-2.167 4.974-2.31.544-.047.755-.163.72-.788-.197-3.568-.665-7.095-1.454-10.574-.59-2.63-1.182-5.267-2.623-7.598-.944-1.536-2.304-1.502-3.214.048-.605 1.033-.83 2.188-.904 3.377-.36 6.028 1.046 11.804 2.5 17.846m-49.1 39.905c.008.83.123 1.65.334 2.46 1.366 5.287 4.268 9.71 7.822 13.748 1.026 1.168 2.113 2.29 3.58 2.95 1.585.72 2.366.345 2.8-1.36.477-1.842-.12-3.514-.95-5.083-2.114-3.97-4.615-7.72-7.04-11.5-.918-1.426-1.83-2.866-2.957-4.137-1.095-1.23-2.576-.958-3.168.577-.285.748-.434 1.536-.42 2.345m52.1-.224c-2.24-14.5-5.578-28.78-8.697-43.104.34 2.235.7 4.478 1 6.72.386 2.916 1.12 5.81.536 8.774-.665 3.323-2.636 5.117-6.353 4.662-.83-.102-1.726-.476-2.175-1.325-.632-1.203-1.257-2.413-1.65-3.738-1.102-3.684-2.244-7.36-3.358-11.037-.252-.83-.64-1.59-1.033-2.352-.298-.603-.733-.93-1.385-.834-.66.102-.952.59-1.128 1.21-.483 1.752-.082 3.5.095 5.225.204 2.013.503 4.017.87 6.015.244 1.312.795 2.487 1.277 3.69 1.21 3.038 2.44 6.07 3.723 9.08.768 1.787.55 3.254-1.726 4.35-.98.474-.95 1.378-.836 2.234.062.516.137 1.025.11 1.542-.292.034-.326-.143-.38-.36-.64-2.392-1.897-4.547-2.712-6.89-1.06-3.073-2.433-6.05-3.697-9.046-.835-1.99-1.712-3.955-2.588-5.92-.13-.312-.3-.638-.537-.883-.496-.536-1.02-.543-1.454.11-.536.815-.61 1.752-.652 2.683-.115 2.576.252 5.118.483 7.673.34 3.696 1.788 7.04 3.188 10.403.754 1.835 1.61 3.615 2.16 5.532.348 1.21.32 2.242-.903 2.806-1.91.87-2.12 2.407-1.807 4.248-.714-.85-.816-1.95-1.618-2.697.218 1.108.442 2.223.64 3.337.25 1.366.373 2.746.305 4.14-.123 2.425-1.42 4.07-3.548 5.068-.543.26-1.243.218-1.882.26-.618.04-1.237.012-1.964.012.62 1.516 1.095 2.963 1.306 4.506.292 2.188-.707 5.26-3.106 6.462-1.257.632-2.71.395-4.064.028-2.962-.795-5.382-2.386-7.29-4.812-1.578-1.997-2.597-4.253-3.52-6.59-.742-1.876-.946-3.86-.96-5.743-.013-1.998.286-4.104 1.217-6.007.435-.877.707-1.808 1.31-2.61.647-.856 1.394-1.495 2.475-1.658.374-.06.59-.177.408-.605-.394-.965-.028-1.753.598-2.467.027-.027.04-.06.068-.08 1.413-1.122 1.44-2.488.686-3.97-.122-.244-.4-.51-.102-.686.313-.184.442.21.59.435 2.808 4.233 5.62 8.46 8.442 12.693 1.365 2.04 2.745 4.078 4.11 6.116.334.502.708.944 1.183 1.31 1.265.952 2.563.456 2.828-1.12.354-2.066-.115-4.078-.543-6.07-.768-3.54-1.78-7.005-2.922-10.458-1.44-4.322-3.052-8.57-4.642-12.837-.678-1.828-.413-2.385.87-3.22 1.428-.925 1.917-2.053 1.564-3.65-.06-.285.027-.598.272-.98.978 2.353 1.943 4.697 2.915 7.05-.06-2.36-.155-4.677.17-6.994.246-1.814.75-3.506 1.924-4.967 1.19-1.474 3.05-1.835 4.676-.842.604.368 1.21.734 1.753 1.067 0-1.59-.007-3.193 0-4.804.014-1.964.537-3.704 1.767-5.335 1.434-1.91 5.47-2.093 6.395.904 1.243 4.084 2.71 8.107 4.084 12.15.48 1.435.937 2.89 1.46 4.31.448 1.222 1.216 1.76 2.215 1.67.612-.053 1.04-.318 1.17-.978.257-1.372.203-2.745.013-4.118-.116-.836.095-1.7.013-2.514-.318-3.024-.597-6.082-1.215-9.06-.544-2.595-.59-5.238-1.135-7.827-.048-.225-.17-.598.048-.673.876-.313.468-.986.3-1.352-.436-.918-.28-1.89-.47-2.82-.265-1.34.163-2.386 1.454-2.72 2.01-.522 2.35-1.86 2.236-3.587-.02-.258-.204-.632.21-.673.367-.04.34.347.388.62.074.434.156.882.25 1.412.355-.686.626-1.345 1.007-1.923 1.53-2.332 3.255-2.726 5.892-1.965 1.835.537 3.16 1.82 4.2 3.425 1.433 2.195 2.065 4.662 2.35 7.217.395 3.547.042 7.054-.774 10.52-.094.428-.026.863-.182 1.304-.164.416.258.552.632.572 1.243.055 2.242-.455 3.024-1.386 1.352-1.59 2.127-3.48 2.684-5.457 1.155-4.092 1.44-8.292 1.373-12.52-.027-2.14-.074-4.307-.38-6.427-.904-6.245-1.128-12.497-.747-18.804.1-1.707.176-3.426.496-5.07.468-2.325.8-4.676 1.23-7.014.495-2.765 1.195-5.497 2.14-8.107.72-2.033 1.617-4.12 3.397-5.62 1.672-1.428 3.446-1.244 4.635.597 1.257 1.95 1.87 4.118 2.004 6.41.367 6.155-1.21 11.945-3.438 17.6-.958 2.412-2.005 4.783-3.398 6.972-.183.29-.245.563-.224.882.4 5.634.258 11.294.87 16.92.15 1.38.36 2.754.822 4.065.387 1.115 1.033 2.012 2.317 2.073 1.237.06 2.073-.612 2.637-1.692 1.02-1.978 1.34-4.14 1.63-6.293.26-1.855.354-3.724.3-5.607-.007-.312.11-.686-.428-.767-3.534-.584-5.07-3.166-6.164-6.184-.08-.224-.122-.468-.177-.7-.727-3.03.062-4.892 2.494-5.925 2.705-1.148 5.145-.366 6.72 2.155 1.428 2.27 2.094 4.784 2.366 7.49.897-.334 1.536-.987 2.182-1.585 2.127-1.97 3.724-4.288 4.71-7.047.414-1.196.808-2.385.978-3.635.04-.28.095-.68.455-.53.775.32.83-.28 1.04-.7 1.42-2.834 3.268-5.35 5.688-7.42 1.175-1.007 2.48-1.863 3.996-2.25 2.888-.748 5.41 1.14 5.68 4.165.266 2.943-1.114 5.253-2.833 7.455-2.25 2.86-5.09 5.002-8.19 6.836-.877.517-.632 1.468-.598 2.23.06 1.467.462 2.88 1.142 4.213.68 1.338 1.753 1.828 3.065 1.087 2.37-1.332 4.34-3.106 5.782-5.484.706-1.155 1.48-2.283 2.188-3.446 1.36-2.25 2.297-4.69 3.33-7.087 1.542-3.56 2.304-7.3 3.065-11.064 1.31-6.503 3.445-12.77 5.81-18.96.877-2.29 1.787-4.573 2.854-6.76 1.786-3.617 3.635-7.212 6.312-10.283.592-.68 1.25-1.278 2.066-1.645 1.495-.686 3.35.496 3.643 2.338.347 2.215.116 4.424-.258 6.62-.407 2.452-1.053 4.858-1.862 7.223-2.528 7.332-6.496 13.78-11.804 19.43-.244.257-.455.5-.516.862-.76 4.607-1.72 9.2-1.733 13.904 0 1.277.122 2.555.394 3.812.436 2.04 1.652 2.555 3.4 1.373 1.956-1.32 3.16-3.27 4.28-5.274 2.372-4.227 3.765-8.793 4.88-13.496 1.55-6.524 4.247-12.64 6.98-18.742 1.174-2.624 2.63-5.084 3.927-7.632 1.29-2.542 3.01-4.866 4.593-7.265 1.258-1.916 2.8-3.54 4.458-5.076 1.013-.938 2.216-1.72 3.616-1 1.318.68 1.72 1.972 1.65 3.447-.17 3.784-1.29 7.317-2.67 10.797-2.222 5.606-5.545 10.567-9.405 15.154-1.503 1.788-3.358 3.283-5.07 4.874-.232.217-.456.387-.537.706-1.264 4.574-2.657 9.107-3.126 13.857-.143 1.42-.184 2.834.068 4.247.265 1.46 1.427 2.046 2.793 1.44 1.597-.7 2.738-1.943 3.792-3.234 2.854-3.473 4.872-7.434 6.503-11.607.53-1.366 1.02-2.745 1.543-4.11.075-.198.102-.56.47-.382.236.123.502.246.352.626-.177.456-.306.918-.47 1.373-1.46 4.002-3.105 7.923-5.245 11.62-1.998 3.452-4.628 6.28-8.386 7.706-2.08.788-4.118.775-5.708-1.767-1.007-1.625-1.462-3.406-1.524-6.2-.42.17-.4.606-.53.92-1.148 2.894-2.5 5.68-4.566 8.065-1.387 1.59-3.03 2.84-5.03 3.602-1.684.66-3.146.374-4.51-.822-1.7-1.495-2.156-3.527-2.577-5.58-.272-1.345-.25-2.725-.238-4.362-.83 1.977-1.542 3.71-2.276 5.436-1.068 2.527-2.455 4.878-3.93 7.196-1.657 2.602-3.764 4.825-6.516 6.095-2.046.953-4.356.756-6.43-.57-2.61-1.664-3.308-4.267-3.71-7.04-.163-1.087-.25-2.202-.142-3.37-.42.7-.843 1.406-1.264 2.1-1.346 2.18-3.092 3.968-5.253 5.327-.59.374-.836.795-.843 1.51-.007 1.338-.333 2.65-.652 3.94-.863 3.39-2.447 6.45-4.288 9.412-.89 1.427-2.087 2.296-3.412 3.132-1.658 1.04-4.023 1.033-5.858-.47-1.82-1.494-2.61-3.614-3.46-5.693-.08-.192-.155-.375-.352-.837 0 1.29-.007 2.297 0 3.296.034 3.988-.435 7.916-1.57 11.728-.605 2.06-1.7 3.9-3.214 5.457-1.013 1.04-2.236 1.488-3.643 1.407-.577-.028-.835.095-1.02.686-.495 1.604-1.392 2.99-2.534 4.213-.796.857-2.196 1.143-3.494.626-.543-.21-1.046-.516-1.637-.822.57 3.18 1.317 6.26 2.18 9.31 1.48 5.212 3.05 10.398 4.56 15.596.32 1.094.577 2.21.577 3.357 0 .91-.305 1.61-1.148 2.02-.592.277-1.163.665-1.788.8-1.074.245-1.407.89-1.468 1.903-.048.81-.245 1.618-.38 2.426-.116.02-.225.034-.34.055" fill="#183356"/><path d="M82.26 280.41c-.756.245-1.34-.095-1.972-.462-2.127-1.257-4.302-2.433-6.435-3.67-.605-.353-1.156-.815-1.727-1.216-.59-2.202-1.196-4.397-1.773-6.6-.93-3.58-1.658-7.21-2.447-10.83-.258-1.177-.734-2.454-.754-3.562-.04-1.903-.408-3.738-.598-5.613-.734-6.96-1.162-13.945-.965-20.958.774-28.51 8.99-54.672 24.667-78.49 2.943-4.46 6.144-8.727 9.555-12.83 13.93-16.712 30.703-29.78 50.28-39.253 3.813-1.842 7.72-3.445 11.662-4.98 2.868-1.136 5.818-2.04 8.753-2.985 4.587-1.467 9.263-2.575 13.986-3.567 5.022-1.047 10.098-1.774 15.208-2.256.205-.015.41 0 .708 0-.475 1.242-.944 2.425-.992 3.723-.007.326-.374.373-.59.516-1.204.74-2.366 1.582-2.99 2.833-.844 1.692-2.27 1.617-3.678 1.434-1.277-.163-2.535-.38-3.82-.34-3.11.088-6.088.727-8.663 2.535-1.15.802-2.386 1.23-3.684 1.597-22.587 6.393-42.35 17.763-59.298 33.984-14.31 13.693-25.24 29.724-32.816 48.018-4.757 11.478-7.89 23.397-9.46 35.725-1.297 10.254-1.467 20.53-.53 30.81 1.135 12.376 3.88 24.39 8.244 36.04.054.12.088.257.13.393M347.35 296.692c-1.543.102-2.984-.496-4.48-.666-1.168-.13-2.31-.435-3.458-.666 1.652-3.54 3.39-7.04 4.88-10.655 5.028-12.164 8.283-24.777 9.772-37.86 1.168-10.233 1.216-20.474.13-30.708-1.904-17.927-7.07-34.87-15.502-50.818-2.25-4.256-4.703-8.394-7.407-12.376-.47-.687-.252-1.094.36-1.21 2.038-.387 3.635-1.577 5.212-2.78.66-.502.897-.326 1.305.286 6.904 10.445 12.395 21.583 16.48 33.414 3.655 10.568 6.054 21.427 7.243 32.545.986 9.193.965 18.408.558 27.623-.272 6.13-.836 12.225-1.883 18.287-1.36 7.87-3.785 15.406-7.026 22.69-1.944 4.357-4.085 8.61-6.185 12.892M7.712 166.09c1.25-3.594 2.35-6.924 3.316-10.294.768-2.644 1.244-5.32 1.182-8.08-.034-1.856-.278-3.67-1.33-5.267-1.925-2.91-5.29-2.767-6.818.332-1.284 2.61-1.664 5.396-1.27 8.29.516 3.752 1.7 7.326 3.112 10.833.537 1.325 1.135 2.63 1.808 4.186m17.79-.706c-3.214-.04-4.654 1.054-5.354 3.337-.66 2.155-.428 4.27.3 6.328 2.085 5.81 6.067 10.09 11.083 13.482 2.467 1.665 5.138 2.902 8.162 3.1 2.657.176 3.86-.538 4.383-3.494.367-2.01-.007-3.948-.747-5.796-2.508-6.266-6.94-10.935-12.443-14.652-1.876-1.264-3.887-2.263-5.382-2.304m13.822 27.727c-2.806-.128-5.063-1.65-7.468-2.826-2.31-1.122-4.186-2.82-6.055-4.458-1.51-1.32-2.725-3.072-3.92-4.764-2.706-3.826-3.698-8.032-3.21-12.66.443-4.16 3.616-6.014 7.198-5.64 2.093.224 4.084.794 5.905 1.807 3.072 1.705 5.124 3.24 7.734 6.482 2.873 3.554 4.905 7.51 5.863 11.98.245 1.122.367 2.257.394 3.405.02 1.156-.237 2.257-.468 3.412 2.465-1.23 3.71-4.133 3.247-7.3-.59-4.002-2.44-7.434-4.703-10.696-.747-1.08-1.624-2.032-2.446-3.045-.11-.13-.258-.252-.313-.4-.136-.32-.482-.64-.013-.98.428-.306.788-.007.978.238.578.768 1.298 1.427 1.842 2.18 1.495 2.08 2.936 4.187 4.023 6.532 1.332 2.88 2.168 5.844 1.746 9.045-.345 2.603-1.854 4.458-3.893 5.994-1.53 1.154-3.07 2.255-4.396 3.702-.8.877-2.276 1.15-3.458 1.652-2.114.89-4.343.842-6.58.87-2.554.033-4.81-.91-7.107-1.78-2.936-1.11-5.375-2.964-7.645-5.098-2.725-2.555-5.03-5.443-6.993-8.61-1.488-2.406-2.956-4.804-4.002-7.8-.503 1.46-.938 2.6-1.292 3.777-1.25 4.098-2.56 8.182-3.085 12.45-1.073 8.888 1.15 16.94 6.266 24.2 4.465 6.326 10.322 10.865 17.743 13.23 5.627 1.794 11.356 2.046 17.078.422 4.213-1.19 7.985-3.283 10.94-6.55 2.128-2.353 3.76-5.05 4.826-8.075.687-1.957 1.136-3.914 1.278-6 .095-1.468.4-2.956.204-4.417-.414-3.01-.326-6.103-1.17-9.04-1.018-3.546-1.303-7.222-2.058-10.804-.93-4.404-1.427-8.856-1.243-13.368.266-6.81 2.243-13.054 6.212-18.64 1.848-2.583 4.16-4.52 7.244-5.39 2.188-.618 4.295-.42 6.19 1.034.354.278.517.68.87.937.157.116.517.272.245.558-.236.26-.488.123-.72-.088-.563-.51-1.276-.76-1.936-1.12-1.984-1.06-3.94-.653-5.742.312-3.18 1.712-5.39 4.43-7.183 7.543-1.76 3.024-2.923 6.252-3.67 9.65-.728 3.302-.775 6.646-.544 10.003.414 6.02 1.93 11.865 3.112 17.757 1.06 5.246 1.89 10.513 1.17 15.875-.674 5.022-2.577 9.507-5.852 13.408-2.78 3.302-6.334 5.484-10.302 6.918-2.277.822-4.71 1.25-7.177 1.413-3.03.205-6-.182-8.99-.597-2.38-.34-4.635-1.08-6.735-2.06-1.957-.916-3.86-2.065-5.674-3.31-2.413-1.643-4.512-3.62-6.483-5.727-1.407-1.51-2.617-3.235-3.73-4.982-1.054-1.67-2.04-3.43-2.767-5.266-1.053-2.698-1.855-5.464-2.27-8.366-.965-6.64.252-12.96 2.16-19.238.66-2.168 1.333-4.33 2.08-6.463.28-.814.212-1.507-.033-2.296-2.1-6.598-3.29-13.34-3.174-20.292.05-2.895.416-5.77 1.374-8.46.632-1.76 1.7-3.568 3.942-3.833 2.052-.246 3.547.787 4.627 2.384 1.822 2.712 1.964 5.783 1.672 8.903-.285 3.126-1.203 6.102-2.14 9.072-.755 2.432-1.536 4.85-2.352 7.263-.197.57-.21 1.027.116 1.55.903 1.508 1.664 3.105 2.663 4.546 2.195 3.166 4.22 6.482 7 9.207 2.153 2.114 4.233 4.295 6.66 6.144 2.486 1.896 5.048 3.575 7.936 4.717 2.126.836 4.294 1.237 6.455-.136M223.085 32.102c1.162-1.366 2.093-2.69 2.27-4.417.047-.463.074-.89-.476-1.122-.565-.238-.858.15-1.095.51-1.013 1.51-1.237 3.146-.7 5.03m-8.617 16.906c.523-.075 1.08-.116 1.536-.483.23-.177.462-.306.034-.578-.91-.578-1.563-1.448-2.338-2.182-.945-.89-1.89-.918-2.487-.116-.632.843-.34 2.04.666 2.664.787.483 1.67.625 2.588.693m8.956-.116c2.977-.38 5.607-1.183 7.958-2.895 2.148-1.564 3.962-3.4 5.64-5.458.966-1.196 1.883-2.433 2.875-3.61.15-.19.245-.542.62-.182.25.25.202.387.073.686-.598 1.326-1.733 2.216-2.555 3.35-1.556 2.155-3.438 4.01-5.51 5.66-2.352 1.897-5.016 3.114-8.047 3.44-1.278.143-2.31.714-3.323 1.51-2.678 2.078-5.702 2.84-9.072 2.112-4.377-.944-5.24-5.334-3.337-8.542.822-1.386 3.072-1.814 4.553-.965 1.012.58 1.732 1.49 2.547 2.27 1.38 1.333 1.87 1.312 2.902-.298.488-.74.923-1.536 1.256-2.358.85-2.073.687-4.227.177-6.32-.503-2.093-.618-4.234-.245-6.28.333-1.848 1.128-3.683 2.834-4.852.673-.47 1.427-.503 2.195-.373 1.026.168 1.46.685 1.386 1.704-.122 1.692-.958 3.1-1.964 4.39-.68.877-.816 1.658-.408 2.725 1.787 4.77 1.733 9.534-.557 14.284M188.216 332.785c-.095-.938-.496-1.63-1.366-1.937-.965-.34-1.937-.367-2.698.428-.618.646-.373 1.44-.007 2.12.45.85.992 1.652 1.516 2.467.11.163.245.517.538.177.85-.986 1.82-1.896 2.018-3.255m-1.536 12.368c.98-.014 1.8-.38 2.528-1.026.38-.347.36-.558.014-.91-1.36-1.38-2.69-2.78-3.996-4.207-.408-.442-.673-.38-1.067 0-1.15 1.1-1.51 2.555-.94 3.96.552 1.354 1.884 2.19 3.46 2.183m4.777-3.942c1.074-1.915 1.992-3.73.463-5.843h4.464c-1.148 1.57-2.29 2.997-3.017 4.682-1.176 2.73-1.21 2.718 1.115 4.532.76.584 1.515 1.182 2.35 1.848-2.01.925-3.676.408-5.048-.897-.85-.808-1.298-.686-2.107.014-2.752 2.365-5.946 2.147-8.053-.435-1.067-1.284-1.176-2.684-.496-4.172.53-1.142 1.325-2.107 2.222-2.984.354-.346.428-.59.09-1.02-.47-.584-.905-1.23-1.245-1.902-.985-1.91-.374-4.037 1.46-5.273 1.89-1.27 4.445-1.053 5.784.49 1.168 1.332 1.154 3.106-.02 4.546-.6.727-1.313 1.325-2.06 1.896-.43.333-.463.558-.014.93 1.352 1.13 2.664 2.32 4.11 3.59M162.248 334.085c0 .904-.007 1.8.007 2.705 0 .258-.102.598.333.62 1.27.046 2.528.06 3.41-1.068.96-1.224.796-2.535.232-3.826-.523-1.203-1.522-1.72-2.813-1.76-.816-.02-1.325.15-1.19 1.148.103.714.02 1.454.02 2.18m1.714 12.64h-5.17c-.015-.114-.055-.202-.028-.243 1.176-1.76 1.012-3.764 1.02-5.728.006-1.515.026-3.044 0-4.567-.048-2.256.346-4.587-1.312-6.748 2.636.123 4.988-.21 7.32.21 1.963.36 3.057 1.645 3.464 3.548.4 1.903-.156 3.466-1.814 4.492-.748.462-.68.775-.23 1.393 1.59 2.222 3.104 4.5 4.708 6.714.517.707.218.823-.407.952-1.65.333-2.215.122-3.146-1.298-1.012-1.563-1.977-3.174-2.997-4.737-.577-.875-1.31-1.61-2.412-1.827-.47-.095-.755-.075-.727.585.034.93-.062 1.868-.143 2.8-.156 1.72.306 3.193 1.876 4.457M133.236 334.144h-.067c0 .76.02 1.515-.008 2.276-.014.49.15.7.66.612.305-.054.624-.02.93-.068 1.536-.245 2.473-1.393 2.446-2.956-.034-1.685-1.06-3.01-2.5-3.214-.993-.143-1.414.19-1.455 1.182-.034.72-.007 1.447-.007 2.168m-.06 6.938h-.042c.048.93.088 1.862.143 2.793.054.89.577 1.393 1.4 1.57 1.107.238 2.14.02 2.976-.78 1.15-1.11 1.305-2.475.85-3.923-.435-1.413-1.59-2.18-3.242-2.283-2.085-.13-2.085-.13-2.085 1.895v.727m4.492-3.737c.666.414 1.23.747 1.773 1.107 3.48 2.263 2.08 6.157-.353 7.605-.693.407-1.46.68-2.263.693-2.113.034-4.227.007-6.34.02-.394.007-.72-.007-.517-.55 1.414-3.8.524-7.74.74-11.62.096-1.727-.013-3.46-1.12-5.152 2.426.102 4.607-.238 6.755.21 1.84.38 3.085 1.47 3.513 3.378.415 1.794-.503 2.97-1.814 3.976-.108.08-.203.183-.373.333M220.187 338.33c.04.66.054 1.32.122 1.97.312 3.06 2.412 5.26 5.34 5.628 3.018.374 5.573-1.14 6.592-4.043.843-2.385.85-4.852.17-7.258-.78-2.76-3.343-4.444-6.252-4.336-2.963.11-4.96 1.775-5.626 4.738-.238 1.08-.333 2.188-.347 3.303m-2.868-.32c.026-5.055 4.172-9.132 9.255-9.098 5.056.04 9.1 4.18 9.08 9.283-.028 5.07-4.2 9.18-9.257 9.113-5.076-.06-9.106-4.186-9.08-9.297M242.067 329.48c-1.685 3.943-.89 7.96-.877 11.907.014 3.52 2.576 5.35 5.648 4.316 1.685-.564 2.793-2.073 2.86-4.173.082-2.698.008-5.402.09-8.1.046-1.366-.334-2.57-1.15-3.813h4.635c.007.034.048.123.02.17-1.298 1.917-1 4.112-1.04 6.232-.033 1.97.09 3.947.02 5.918-.06 1.665.13 3.22 1.292 4.804-1.264 0-2.276.04-3.296-.007-.85-.047-.218-.883-.64-1.277-.597.306-1.223.652-1.86.972-4.61 2.283-9.128-.503-9.176-5.648-.013-2.18-.04-4.362 0-6.55.02-1.4-.074-2.76-.7-4.044-.258-.53-.142-.734.476-.714 1.176.028 2.35.007 3.697.007M258.37 333.806c0 3.378.013 6.53-.007 9.677-.007.945.4 1.74.754 2.562.238.55.122.754-.49.707-.522-.04-1.046-.048-1.555.007-.863.08-1.244-.123-.795-1.04.645-1.34.713-2.794.74-4.255.055-2.494.055-4.988-.02-7.475-.034-1.223-.455-2.202-1.257-3.08-.347-.372-.72-.746-.897-1.31 1.828-.578 3.262.013 4.45 1.352 3.195 3.602 6.375 7.21 9.57 10.812.196.224.407.442.638.686.293-.3.19-.632.198-.903.007-3.12-.02-6.24-.02-9.358 0-.545-.198-.993-.497-1.442-.23-.353-.597-.672-.603-1.21h5.538l.034.143c-.402.144-.81.294-1.21.416-1.564.516-1.87.904-1.87 2.548-.013 4.567-.006 9.14-.006 13.714v1.515c-4.322-4.784-8.447-9.357-12.695-14.067M284.95 339.092h8.01c-.882.34-1.48.564-2.072.795-.802.306-1.182.89-1.182 1.753 0 1.183.08 2.358-.11 3.534-.148.924-.624 1.522-1.57 1.678-3.01.497-6.02.49-8.9-.632-4.105-1.603-6.042-6.483-4.486-11.063 1.386-4.098 4.79-6.354 9.1-6.02 1.725.135 3.445.407 5.178.34.475-.02.68.1.666.624-.028 1.34-.007 2.685-.007 4.1-.388-.164-.456-.477-.598-.72-1.462-2.59-3.324-3.535-6.185-3.114-3.052.442-5.138 2.21-5.682 4.975-.55 2.794-.38 5.525 1.237 8 1.522 2.33 5.573 3.465 8.114 2.316.503-.224.727-.625.755-1.148.02-.34-.042-.693-.015-1.033.17-1.937.115-3.73-2.256-4.383M146.913 338.64h3.574c.265 0 .64.06.476-.395-.632-1.87-1.298-3.724-2.046-5.85-.713 2.214-1.33 4.144-2.004 6.244m-.986 8.106c-1.277 0-2.276-.007-3.282.007-.394.007-.652-.08-.367-.516 2.82-4.295 3.575-9.385 5.403-14.06.374-.965.646-1.964 1.455-2.712.32-.285.462-.373.81-.013.495.543.923 1.087 1.174 1.8 1.27 3.643 2.595 7.28 3.846 10.942.53 1.542 1.366 2.915 2.303 4.45-1.72 0-3.23 0-4.737.008-.252 0-.394-.116-.442-.347-.053-.272.11-.367.334-.428 1.013-.25.958-.917.673-1.692-.177-.483-.306-.992-.462-1.482-.775-2.337-1.224-2.663-3.643-2.718-2.344-.047-2.31-.034-3.214 2.12-.64 1.516-1.17 2.99.15 4.642" fill="#183356"/><path d="M301.39 336.065v4.662c-1.19-2.358-3.113-1.97-4.928-1.917-.442.007-.496.225-.496.578.02 1.563.014 3.12.034 4.676.007.774.435 1.21 1.21 1.284.618.054 1.237.095 1.855.156 1.44.136 2.582-.353 3.377-1.576.15-.225.354-.408.72-.83-.32 1.237-.59 2.196-.8 3.154-.096.455-.36.51-.742.51-2.806-.008-5.613-.014-8.427.006-.448 0-.72-.122-.496-.584 1.122-2.29.7-4.757.762-7.156.046-1.624-.022-3.262 0-4.886.006-1.36-.022-2.69-.73-3.928-.257-.442-.21-.727.457-.72 2.813.02 5.62.02 8.426 0 .51-.007.768.08.74.673-.04.767-.013 1.55-.114 2.426-1.38-2.216-3.474-1.924-5.533-1.822-.53.03-.707.205-.693.75.027 1.725.02 3.465 0 5.19-.007.49.176.633.645.714 1.72.293 3.288.034 4.73-1.36M212.206 4.51c-.387 4.424-2.535 7.788-6.177 10.24-.422.293-1.014.416-1.32-.074-.36-.55.15-.87.585-1.114 1.244-.693 2.195-1.68 2.786-2.97.456-.985.13-1.692-.862-1.89-2.324-.448-3.63-3.69-2.616-5.6.475-.91.904-1.793 1.82-2.377 1.238-.768 2.515-1.013 3.786-.306 1.264.706 1.99 1.847 1.998 3.363v.727M234.306 84.258c1.93-.585 3.785.217 5.674.448.197.028.367.293.55.462 2.528 2.284 5.423 2.895 8.665 1.87 1.237-.388 1.393-.34 1.76.91.727 2.487 1.44 4.974 2.23 7.713-1.34-.61-2.767-.23-3.786-1.42-.75-.876-1.782-1.59-2.91-1.705-1.454-.15-2.032-1.15-2.562-2.16-1.576-2.99-4.213-4.112-7.346-4.452-.034-.007-.068-.014-.102-.007-1.318.265-1.957-.394-2.174-1.658M206.18 329.497h4.076c.333 0 .435.13.313.435-1.353 3.275-.58 6.714-.762 10.07-.068 1.28.014 2.563-.02 3.84-.02 1.047.482 1.496 1.474 1.625 2.664.34 3.2.11 5.512-2.69-.075 1.35-.456 2.472-.666 3.62-.062.327-.347.293-.592.293-2.867.007-5.75 0-8.623.007-.45 0-.57-.17-.38-.564.882-1.82.706-3.792.72-5.715.033-2.596-.048-5.192-.04-7.795.006-1.12-.776-1.97-1.014-3.126" fill="#183356"/><path d="M339.987 106.674c-1.944-.048-2.23-.476-1.543-2.365.354-.952.89-1.78 1.686-2.427.666-.544 1.515-.523 1.99.177.572.836 1.448 1.603.89 2.867-.753 1.672-.91 1.8-3.023 1.747M285.386 51.592c-.014-1.128.707-1.89 1.835-1.923 1.074-.035 1.917.8 1.917 1.88 0 1.014-.815 1.863-1.82 1.897-1.075.034-1.917-.775-1.93-1.855M208.69 65.94c-.006 1.073-.46 1.528-1.52 1.508-.905-.02-2-1.046-2.027-1.89-.027-.903.93-1.902 1.828-1.916 1.034-.007 1.728.918 1.72 2.297M367.86 114.803c-.45-.034-1.115-.04-1.387-.646-.272-.61.3-1.026.653-1.4.414-.44.93-.815 1.427-1.168.4-.287.822-.47 1.31-.083.484.374.722.788.586 1.42-.253 1.21-1.136 1.91-2.59 1.876M241.296 74c.945 0 1.645.686 1.652 1.61 0 .925-.707 1.645-1.624 1.658-.877.014-1.66-.76-1.66-1.63 0-.89.75-1.638 1.632-1.638M235.02 75.62c.013.917-.81 1.712-1.734 1.685-.774-.02-1.536-.843-1.55-1.665-.013-.863.68-1.604 1.523-1.63 1.005-.028 1.746.645 1.76 1.61M246.356 80.515c-.8-.02-1.36-.646-1.352-1.51.007-.774.68-1.392 1.475-1.365.712.027 1.365.714 1.35 1.427-.02.714-.774 1.46-1.474 1.448M374.372 47.95c.543.264 1.1.535 1.36 1.147.074.19-1.048 1.42-1.19 1.325-.558-.36-1.013-.83-1.006-1.563.007-.538.333-.79.836-.91M270.982 53.298c-1.264 1.237-1.44 1.23-2.365.068-.272-.346-.415-.598-.048-.965.326-.325.61-.543 1.046-.162.408.353.863.673 1.366 1.06M272.702 70.925l-.034-.027.027.013.007.015z" fill="#ce5f25"/><path d="M211.806 230.206c.306-.632.265-1.19.306-1.726.496-6.673.978-13.347 1.48-20.006.64-8.536 1.292-17.07 1.945-25.6.25-3.35.373-6.72.666-10.057.305-3.595.34-7.258 1.02-10.798.685-3.562 1.413-7.212 3.9-10.134 1.447-1.712 3.234-1.672 4.6.163.666.896.74 1.936.79 2.962.06 1.42.053 2.848.06 4.268.034 7.04.075 14.074.11 21.107.006 1.427.264 2.74 1.303 3.82.91.924 1.49.91 2.21-.218.842-1.306 1.555-2.692 2.1-4.153 1.276-3.432 2.77-6.796 3.47-10.404 1.034-5.315 2.706-10.445 4.2-15.624.558-1.937 1.49-2.128 2.984-.74.782.733 1.59 1.426 2.467 2.044.646.455 1.183.483 1.876.02 2.976-1.984 4.47-5.117 6.3-7.978 2.446-3.832 3.866-8.243 6.81-11.776.89-1.067 1.813-2.093 2.955-2.875 1.63-1.128 3.833-.754 5.436.924.79.815 1.468 1.74 2.223 2.588 1.753 1.958 3.887 2.243 6.333 1.51 3.242-.98 5.967-2.814 8.535-4.935 1.312-1.087 2.562-2.256 3.962-3.214 2.107-1.435 4.268-2.794 6.49-4.01 1.325-.728 3.038.027 3.378 2.065.625 3.738-.836 7.027-2.04 10.35-2.507 6.932-4.79 13.93-6.842 21.006-1.794 6.212-3.718 12.382-5.566 18.58-.98 3.31-1.767 6.673-2.813 9.956-.428 1.345-.952 2.643-1.36 4.002-1.637 5.505-3.492 10.955-5.035 16.487-1.836 6.557-3.834 13.074-5.703 19.625-1.794 6.314-3.744 12.586-5.6 18.886-1.74 5.905-3.458 11.81-5.198 17.723-1.374 4.674-2.767 9.343-4.153 14.018-.007.027-.007.068-.027.095-1.19 2.263-2.256 4.594-3.595 6.762-1.298 2.1-3.235 3.676-5.022 5.362-.367.346-.843.55-1.407.57-4.845.218-9.69.456-14.536.707-.775.04-1.4-.34-2.032-.68-3.302-1.793-6.027-4.274-8.42-7.142-3.105-3.71-6.204-7.454-8.623-11.674-2.33-4.058-3.908-8.468-5.865-12.708-2.786-6.055-3.65-12.606-5.11-19-.816-3.57-1.332-7.184-1.855-10.806-.347-2.345-.184-4.716-.3-7.074-.394-7.91-.1-15.8.694-23.663.366-3.56 1.283-7.013 2.262-10.445.4-1.427 1.468-2.514 2.514-3.5.748-.7 1.767-.802 2.745-.503.58.17.94.496 1 1.236.79 9.453 1.604 18.906 2.447 28.36.482 5.374 1.012 10.743 1.53 16.24" fill="#fdfdfc"/><path d="M54.777 264.587c4.118 6.415 9.093 11.804 15.012 16.303 5.123 3.907 10.71 7 16.628 9.527 5.355 2.277 10.893 4.03 16.513 5.51 4.255 1.123 8.584 1.938 12.92 2.72 5.226.93 10.48 1.617 15.745 2.12 10.22.972 20.462 1.148 30.717.917 5.75-.13 11.498-.36 17.247-.686 4.695-.265 9.39-.646 14.08-1.006 6.802-.537 13.59-1.128 20.387-1.637 5.246-.395 10.513-.694 15.76-1.054 5.524-.386 11.062-.597 16.594-.89 11.526-.61 23.065-.747 34.604-.808 7.346-.04 14.693.143 22.04.456 4.382.19 8.78.428 13.162.767 7.76.605 15.514 1.258 23.228 2.36 6.4.916 12.735 2.2 18.898 4.198 2.114.687 4.24 1.42 6.198 2.555-1.51-.36-3.01-.727-4.533-1.06-4.736-1.04-9.54-1.617-14.373-2.045-8.222-.714-16.466-.714-24.71-.863-6.523-.123-13.033-.143-19.55-.04-11.26.17-22.514.51-33.767.998-6.402.285-12.79.612-19.19.972-7.286.394-14.565.863-21.843 1.264-12.966.72-25.912 1.733-38.878 2.358-9.935.476-19.87.876-29.82.686-3.662-.068-7.318-.265-10.98-.42-2.787-.117-5.58-.395-8.36-.633-2.086-.177-4.18-.476-6.265-.76-5.293-.722-10.553-1.585-15.785-2.706-9.76-2.094-19.327-4.812-28.44-8.964-10.486-4.77-19.748-11.172-27-20.23-2.296-2.87-4.294-5.947-5.96-9.23-.088-.176-.15-.367-.278-.68M293.38 195.505c-.665-.04-1.147-.048-1.63-.116-.353-.048-.598.04-.795.34-1.02 1.596-2.12 3.166-2.698 5-.897 2.91-1.753 5.83-2.616 8.754-5.524 18.735-11.035 37.478-16.56 56.22-1.196 4.077-2.42 8.155-3.61 12.24-.1.36-.495.808.287 1.052 1.644.51 3.302.904 4.994.408 2.97-.87 5.82-2.01 8.313-3.894 4.213-3.18 7.672-7.047 10.784-11.294 2.685-3.663 5.11-7.482 7.55-11.3 1.57-2.46 2.753-5.023 3.52-7.81.83-3.003 1.747-5.98 2.997-8.834 1.455-3.316 2.48-6.748 3.038-10.323.53-3.344 1.597-6.6 1.665-10.024.054-2.494-.11-5.002.28-7.475.298-1.834.284-3.608-.32-5.382-.184-.53-.3-1.087-.72-1.46-2.29-2-4.534-4.058-7.77-4.438-.637-.075-1.317-.245-1.88-.557-1.578-.836-3.25-1.122-4.826-1.108m-1.236-7.136c2.637.115 5.274.203 7.74 1.31.694.32 1.387.592 2.155.606 2.1.04 3.668 1.298 5.367 2.27 2.032 1.175 3.962 2.48 5.552 4.233 1.29 1.433 2.092 3.09 2.493 5.014.333 1.59 1.006 3.113.72 4.778-.733 4.28-.23 8.644-.835 12.925-.347 2.467-1.074 4.88-1.4 7.34-.74 5.633-3.133 10.737-4.988 16.01-.93 2.657-1.787 5.355-2.582 8.066-.435 1.49-1.156 2.84-2.012 4.078-2.032 2.923-3.588 6.137-5.688 9.026-4.424 6.088-8.814 12.218-14.964 16.758-3.88 2.86-8.148 4.96-12.96 5.708-3.112.482-6.04-.3-8.874-1.543-.993-.436-1.944-.918-2.678-1.72-.938-1.033-1.29-2.202-1.196-3.622.177-2.406 1.08-4.6 1.733-6.87 2.017-7.014 4.076-14.013 6.142-21.013 1.978-6.72 3.99-13.428 5.974-20.15 1.624-5.496 3.22-11.008 4.838-16.512 1.577-5.342 3.248-10.656 4.737-16.018.938-3.35 2.97-6.04 4.894-8.807.95-1.36 2.385-1.937 4.057-1.87.592.022 1.183 0 1.774 0M182.37 130.616c.285 4.22-.415 8.36-1.25 12.464-1.462 7.162-2.454 14.386-3.487 21.617-.64 4.505-1.515 8.977-2.446 13.442-.87 4.205-1.543 8.452-2.29 12.686-1.665 9.37-3.29 18.756-5.783 27.957-1.373 5.043-2.637 10.1-3.935 15.162-.3 1.162-.538 2.344-.96 3.472-.176.476-.434.822-.944.788-.557-.04-.66-.502-.747-.978-.287-1.597-.076-3.167.44-4.676.408-1.208.564-2.452.673-3.71.217-2.316.693-4.6 1.176-6.87 1.344-6.285 2.71-12.558 3.967-18.864.863-4.417 1.713-8.828 2.535-13.26 1.672-9.084 3.378-18.17 4.757-27.297.448-2.984.95-5.96 1.216-8.957.176-1.944.32-3.908.557-5.817.374-2.875.666-5.756 1.04-8.624.543-4.288 1.12-8.583 1.997-12.824.38-1.855.728-3.724 2.216-5.13.856-.816 1.84-1.176 2.997-1.176 2.1-.007 4.11.435 6.11 1.026 2.364.707 4.844.687 7.243 1.115 3.323.598 6.51 1.74 9.718 2.76 3.65 1.168 7.23 2.533 11.016 3.274.917.177 1.78.57 2.548 1.108.238.163.673.394.523.802-.128.326-.488.49-.848.51-1.013.06-2.032.163-2.997-.177-5.81-2.012-11.988-2.46-17.845-4.26-4.09-1.252-8.366-1.66-12.484-2.794-2.936-.795-4.5.435-4.696 3.493-.02.277-.02.556-.02.828v2.908" fill="#fdfdfc"/><path d="M191.562 226.75c.224-2.044-.157-4.117.258-6.17.047-.237-.088-.624.34-.618.394 0 .36.347.4.612.66 3.778.768 7.625 1.292 11.417.217 1.61.707 3.168 1.196 4.717 1.44 4.485 2.27 9.127 3.615 13.646 1.04 3.465 2.963 6.544 4.2 9.9 2.29 6.28 6.062 11.69 9.67 17.194 2.582 3.948 5.742 7.428 9.46 10.384 1.196.966 2.16 2.237 3.228 3.358.116.122.3.244.19.442-.142.25-.36.122-.53.04-3.03-1.454-5.96-2.963-8.35-5.463-4.357-4.56-8.25-9.426-11.194-14.998-2.174-4.133-4.37-8.265-6.197-12.546-2.162-5.063-3.725-10.343-4.847-15.746-.8-3.866-1.8-7.686-2.358-11.6-.21-1.502-.25-3.03-.373-4.567M95.938 286.14c-.843-1.828-1.21-3.8-1.733-5.73-2.1-7.855-3.73-15.82-4.71-23.9-.536-4.443-.774-8.895-.788-13.373-.007-2.378.23-4.737.435-7.1.048 3.043-.115 6.087.06 9.132.273 4.953.878 9.86 1.768 14.732 1.652 8.957 4.016 17.73 6.952 26.354.04.13.04.265.055.407-.68-.176-1.36-.346-2.04-.523M177.074 294.07c-5.206.013-10.153-1.4-15.1-2.793-.843-.238-1.53-.802-2.263-1.244-.29-.176-.475-.42-.468-.754.014-.382.353-.45.64-.58.842-.4 1.65-.026 2.44.117 5.816 1.046 11.62 2.147 17.436 3.2.666.123 1.475.43 1.448.938-.034.62-.81 1.06-1.543 1.1-.863.05-1.726.015-2.59.015M208.012 100.64c1.19.103 2.188.518 2.684 1.72.673 1.59 1.38 3.127 3.024 4.05.734.41.687 1.462.014 2.006-1.128.89-2.21 1.998-3.86 1.04-.394-.225-.877-.442-.972-.877-.414-1.782-1.624-3.114-2.507-4.63-.4-.7-.7-1.5-.28-2.27.375-.692 1.013-1.127 1.897-1.04M205.6 109.435c-.006 1.7-.515 2.385-1.95 2.847-.597.198-2.5-.598-2.758-1.14-.163-.334.054-.518.25-.7.9-.81 1.68-1.74 2.665-2.454.367-.265.673-.632 1.176-.415.503.204.523.666.53 1.135 0 .306.075.612.088.727M297.12 81.964c.91.055 1.59.802 1.562 1.713-.027.836-.557 1.352-1.366 1.31-.822-.04-2.065-1.018-2.025-1.59.056-.82.905-1.487 1.83-1.433" fill="#fdfdfc"/><path d="M293.38 195.505c1.578-.014 3.25.272 4.826 1.108.564.312 1.244.482 1.882.557 3.235.38 5.478 2.44 7.768 4.437.42.374.537.93.72 1.46.605 1.775.62 3.55.32 5.384-.388 2.474-.225 4.982-.28 7.476-.067 3.425-1.134 6.68-1.664 10.023-.557 3.574-1.583 7.006-3.038 10.322-1.25 2.854-2.167 5.83-2.997 8.834-.767 2.787-1.95 5.35-3.52 7.81-2.44 3.818-4.865 7.637-7.55 11.3-3.112 4.247-6.57 8.114-10.784 11.294-2.494 1.883-5.342 3.024-8.312 3.894-1.69.496-3.35.102-4.993-.408-.782-.244-.388-.693-.286-1.053 1.19-4.084 2.414-8.162 3.61-12.24 5.525-18.74 11.036-37.484 16.56-56.22.864-2.922 1.72-5.844 2.617-8.752.578-1.834 1.68-3.404 2.698-5 .197-.3.442-.388.795-.34.483.067.965.074 1.63.115" fill="#183356"/></svg>