<svg xmlns="http://www.w3.org/2000/svg" width="400" height="98.28"><path d="M82.707 74.536c.403.01.707-.052.915-.19.207-.138.31-.432.31-.88 0-.208-.05-.368-.155-.484-.103-.115-.233-.2-.388-.252-.156-.05-.327-.082-.51-.094-.185-.01-.364-.017-.536-.017h-1.727v1.916h2.09zm2.522 4.058h-1.694l-1.59-2.917h-1.33v2.917h-1.502V71.48h3.558c.414 0 .792.025 1.13.077.34.052.63.154.873.31.242.156.43.375.562.656.133.284.198.66.198 1.133 0 .656-.164 1.13-.492 1.424-.328.293-.81.462-1.442.51l1.73 3.004zm-1.323 1.07c.616-.263 1.154-.625 1.616-1.086.46-.46.826-1 1.095-1.615.27-.616.407-1.276.407-1.978 0-.703-.136-1.362-.407-1.977-.27-.616-.636-1.155-1.095-1.615-.462-.46-1-.825-1.616-1.09-.616-.262-1.27-.396-1.96-.396-.715 0-1.38.134-1.995.397-.616.264-1.152.63-1.606 1.09-.455.46-.815.998-1.08 1.614-.266.615-.397 1.274-.397 1.977 0 .702.13 1.362.396 1.978.265.616.625 1.154 1.08 1.615.454.46.99.823 1.606 1.087.616.267 1.28.398 1.994.398.692 0 1.345-.13 1.96-.398zm-4.525 1.384c-.8-.346-1.497-.814-2.09-1.408-.594-.593-1.062-1.29-1.408-2.09-.345-.8-.518-1.656-.518-2.565 0-.91.173-1.764.518-2.566.346-.8.814-1.498 1.408-2.09.593-.592 1.29-1.062 2.09-1.408.8-.345 1.655-.518 2.564-.518.91 0 1.762.173 2.557.518.794.346 1.492.816 2.09 1.407.598.592 1.07 1.29 1.417 2.09.345.8.517 1.655.517 2.565 0 .91-.172 1.764-.517 2.565-.346.8-.82 1.497-1.418 2.09-.597.594-1.295 1.062-2.09 1.408-.794.345-1.646.518-2.556.518-.91 0-1.764-.173-2.564-.518M82.832 41.415c0 22.874-18.543 41.417-41.417 41.417C18.542 82.832 0 64.29 0 41.415 0 18.542 18.542 0 41.415 0 64.29 0 82.832 18.542 82.832 41.415" fill="#2393d9"/><path d="M73.85 15.667H8.982v25.748h7.648c.71-10.132 11.518-18.187 24.785-18.187 13.27 0 24.076 8.055 24.786 18.187h7.65V15.667M42.184 43.41h-1.536C37.78 55.51 26.93 64.525 13.952 64.525H7.045c.64.95 1.33 1.86 2.046 2.753h64.65c.714-.893 1.406-1.803 2.047-2.753H68.88c-12.98 0-23.828-9.014-26.696-21.115" fill="#fff"/><path d="M135.21 23.07v12.836h-1.067c-.803-3.348-2.296-5.916-4.484-7.7-2.187-1.785-4.666-2.677-7.435-2.677-2.315 0-4.437.664-6.37 1.993-1.93 1.328-3.344 3.068-4.235 5.215-1.15 2.75-1.723 5.81-1.723 9.176 0 3.316.42 6.332 1.258 9.056.838 2.72 2.15 4.778 3.937 6.17 1.785 1.393 4.1 2.09 6.94 2.09 2.334 0 4.47-.508 6.412-1.528 1.94-1.022 3.987-2.777 6.136-5.272v3.195c-2.077 2.168-4.24 3.738-6.492 4.71-2.25.975-4.88 1.462-7.885 1.462-3.955 0-7.467-.79-10.538-2.375-3.07-1.584-5.44-3.86-7.107-6.827-1.666-2.968-2.5-6.127-2.5-9.478 0-3.533.924-6.883 2.774-10.05 1.85-3.17 4.347-5.626 7.49-7.373 3.143-1.748 6.482-2.623 10.017-2.623 2.604 0 5.357.566 8.254 1.695 1.676.654 2.74.982 3.197.982.585 0 1.09-.213 1.52-.642.427-.43.706-1.107.833-2.034h1.066M156.462 55.188V46.64c-2.654 1.293-4.63 2.676-5.923 4.15-.856.986-1.284 1.977-1.284 2.98 0 .837.36 1.573 1.085 2.21.55.49 1.317.737 2.305.737 1.097 0 2.37-.507 3.817-1.53zm0 1.994c-3.75 2.748-7.12 4.124-10.104 4.124-1.754 0-3.214-.477-4.377-1.433-1.16-.957-1.743-2.154-1.743-3.592 0-1.947 1.01-3.7 3.028-5.257 2.02-1.556 6.42-3.627 13.197-6.213v-2.568c0-1.927-.126-3.143-.378-3.645-.253-.5-.73-.936-1.43-1.31-.704-.374-1.494-.56-2.37-.56-1.427 0-2.6.264-3.523.79-.57.33-.854.71-.854 1.147 0 .383.308.857.922 1.42.833.786 1.25 1.54 1.25 2.27 0 .89-.4 1.65-1.2 2.28-.802.626-1.85.94-3.143.94-1.384 0-2.54-.344-3.473-1.037-.933-.692-1.4-1.502-1.4-2.43 0-1.31.627-2.564 1.877-3.756 1.25-1.19 2.995-2.106 5.232-2.743 2.238-.637 4.564-.957 6.977-.957 2.916 0 5.227.515 6.925 1.543 1.7 1.03 2.804 2.143 3.31 3.346.306.763.46 2.522.46 5.27v9.914c0 1.166.053 1.9.164 2.198.108.3.274.525.492.67.22.146.472.218.757.218.57 0 1.15-.337 1.743-1.01l.988.655c-1.096 1.35-2.232 2.326-3.404 2.936-1.175.61-2.508.916-4 .916-1.754 0-3.125-.34-4.113-1.026-.988-.682-1.59-1.714-1.81-3.098M192.63 34.706l.494 8.71h-1.12c-1.338-2.583-2.726-4.35-4.163-5.296-1.435-.948-2.868-1.42-4.294-1.42-.898 0-1.665.25-2.303.75-.637.502-.954 1.08-.954 1.735 0 .492.218.965.657 1.42.7.746 2.665 2.024 5.89 3.836 3.226 1.814 5.35 3.35 6.37 4.617 1.02 1.265 1.528 2.68 1.528 4.246 0 1.42-.427 2.814-1.28 4.18-.857 1.366-2.065 2.413-3.623 3.14-1.558.728-3.28 1.092-5.166 1.092-1.47 0-3.434-.38-5.89-1.148-.66-.198-1.11-.3-1.35-.3-.725 0-1.328.456-1.81 1.366h-1.086l-.527-9.175h1.12c.986 2.402 2.34 4.206 4.064 5.406 1.72 1.202 3.35 1.804 4.887 1.804 1.053 0 1.914-.268 2.583-.807.67-.536 1.003-1.186 1.003-1.95 0-.875-.33-1.63-.987-2.27-.658-.636-2.128-1.6-4.41-2.893-3.356-1.93-5.528-3.405-6.515-4.425-1.45-1.492-2.173-3.14-2.173-4.943 0-1.967.818-3.746 2.452-5.34 1.634-1.593 3.998-2.39 7.094-2.39 1.667 0 3.278.34 4.837 1.01.593.275 1.075.41 1.448.41.395 0 .712-.068.953-.205.242-.135.626-.522 1.153-1.16h1.12M216.39 55.188V46.64c-2.655 1.293-4.628 2.676-5.922 4.15-.857.986-1.284 1.977-1.284 2.98 0 .837.36 1.573 1.086 2.21.55.49 1.316.737 2.303.737 1.097 0 2.37-.507 3.816-1.53zm0 1.994c-3.75 2.748-7.12 4.124-10.104 4.124-1.754 0-3.213-.477-4.377-1.433-1.163-.957-1.743-2.154-1.743-3.592 0-1.947 1.008-3.7 3.026-5.257 2.018-1.556 6.418-3.627 13.196-6.213v-2.568c0-1.927-.125-3.143-.378-3.645-.253-.5-.73-.936-1.43-1.31-.704-.374-1.495-.56-2.37-.56-1.427 0-2.6.264-3.522.79-.572.33-.856.71-.856 1.147 0 .383.308.857.92 1.42.834.786 1.25 1.54 1.25 2.27 0 .89-.398 1.65-1.198 2.28-.8.626-1.85.94-3.143.94-1.383 0-2.54-.344-3.474-1.037-.932-.692-1.4-1.502-1.4-2.43 0-1.31.627-2.564 1.877-3.756 1.25-1.19 2.996-2.106 5.233-2.743 2.24-.637 4.564-.957 6.977-.957 2.92 0 5.227.515 6.927 1.543 1.7 1.03 2.803 2.143 3.308 3.346.307.763.46 2.522.46 5.27v9.914c0 1.166.054 1.9.166 2.198.11.3.273.525.492.67.22.146.473.218.758.218.57 0 1.15-.337 1.744-1.01l.988.655c-1.098 1.35-2.235 2.326-3.407 2.936-1.174.61-2.507.916-4 .916-1.753 0-3.125-.34-4.112-1.026-.988-.682-1.59-1.714-1.81-3.098M269.28 23.917V33.94h-.982c-.586-2.312-1.23-3.972-1.942-4.984-.71-1.01-1.686-1.816-2.923-2.416-.694-.328-1.906-.492-3.637-.492h-2.76v28.567c0 1.893.104 3.078.315 3.552.21.472.62.887 1.23 1.24.61.355 1.444.534 2.5.534h1.23v1.01h-19.407v-1.01h1.23c1.076 0 1.94-.19 2.597-.573.475-.254.848-.693 1.12-1.31.203-.438.3-1.586.3-3.442V26.048h-2.677c-2.496 0-4.31.53-5.438 1.584-1.586 1.476-2.59 3.577-3.007 6.31h-1.04V23.916h33.293M291.2 45.44c0-2.934-.192-4.947-.576-6.038-.383-1.092-.98-1.92-1.794-2.485-.46-.326-1.075-.49-1.842-.49-1.14 0-2.075.462-2.798 1.39-1.295 1.623-1.942 3.843-1.942 6.665v.957h8.952zm8.096 1.83h-16.882c.197 3.384 1.284 6.063 3.257 8.028 1.515 1.512 3.337 2.265 5.465 2.265 1.317 0 2.513-.303 3.588-.913 1.073-.61 2.226-1.708 3.455-3.29l1.118.6c-1.666 2.82-3.51 4.82-5.53 5.995-2.017 1.175-4.354 1.76-7.008 1.76-4.564 0-8.02-1.457-10.367-4.37-1.886-2.347-2.828-5.26-2.828-8.738 0-4.26 1.386-7.65 4.162-10.174 2.776-2.52 6.027-3.783 9.757-3.783 3.116 0 5.82 1.062 8.114 3.183 2.293 2.12 3.526 5.265 3.702 9.436M315.914 35.414v5.79c2.043-2.638 3.83-4.393 5.367-5.257 1.535-.864 3.017-1.297 4.443-1.297 1.228 0 2.21.315 2.944.943.736.63 1.103 1.516 1.103 2.664 0 1.22-.358 2.165-1.07 2.84-.713.672-1.574 1.01-2.583 1.01-1.162 0-2.172-.31-3.03-.928-.853-.62-1.36-.967-1.51-1.04-.22-.11-.473-.165-.757-.165-.637 0-1.24.2-1.812.6-.898.623-1.578 1.503-2.04 2.65-.7 1.767-1.054 3.715-1.054 5.844v5.872l.034 1.53c0 1.038.078 1.703.23 1.994.265.49.653.852 1.17 1.08.513.227 1.385.368 2.616.42v.984h-16.62v-.983c1.337-.09 2.242-.395 2.716-.913.47-.52.706-1.89.706-4.112v-14.12c0-1.455-.087-2.385-.264-2.784-.22-.51-.536-.884-.953-1.12-.418-.236-1.153-.4-2.206-.49v-1.014h12.57M357.61 22.66l-10.89 9.478h-2.83l3.818-9.477h9.902zm-7.567 32.528V46.64c-2.657 1.293-4.628 2.676-5.923 4.15-.854.986-1.285 1.977-1.285 2.98 0 .837.364 1.573 1.09 2.21.545.49 1.315.737 2.3.737 1.098 0 2.368-.507 3.818-1.53zm0 1.994c-3.75 2.748-7.12 4.124-10.103 4.124-1.757 0-3.213-.477-4.378-1.433-1.163-.957-1.743-2.154-1.743-3.592 0-1.947 1.008-3.7 3.026-5.257 2.016-1.556 6.42-3.627 13.197-6.213v-2.568c0-1.927-.126-3.143-.38-3.645-.25-.5-.727-.936-1.43-1.31-.704-.374-1.495-.56-2.37-.56-1.428 0-2.597.264-3.52.79-.572.33-.86.71-.86 1.147 0 .383.31.857.925 1.42.833.786 1.25 1.54 1.25 2.27 0 .89-.4 1.65-1.2 2.28-.802.626-1.85.94-3.144.94-1.383 0-2.54-.344-3.473-1.037-.93-.692-1.398-1.502-1.398-2.43 0-1.31.627-2.564 1.876-3.756 1.253-1.19 2.996-2.106 5.233-2.743 2.24-.637 4.565-.957 6.98-.957 2.92 0 5.226.515 6.928 1.543 1.7 1.03 2.803 2.143 3.304 3.346.308.763.462 2.522.462 5.27v9.914c0 1.166.056 1.9.165 2.198.11.3.272.525.492.67.22.146.473.218.756.218.574 0 1.152-.337 1.747-1.01l.987.655c-1.096 1.35-2.233 2.326-3.406 2.936-1.176.61-2.51.916-4 .916-1.755 0-3.127-.34-4.114-1.026-.987-.682-1.592-1.714-1.81-3.098M379.334 35.414v3.306c1.578-1.42 3.094-2.453 4.54-3.1 1.45-.646 3.003-.97 4.673-.97 1.995 0 3.65.462 4.97 1.38 1.316.92 2.192 2.063 2.633 3.427.35 1.036.525 3.032.525 5.982v9.94c0 1.966.217 3.19.64 3.674.43.48 1.323.786 2.685.913v.983h-15.566v-.983c1.162-.127 1.995-.526 2.5-1.2.35-.456.528-1.585.528-3.387V44.02c0-2.095-.098-3.416-.298-3.963-.2-.544-.532-.97-1.005-1.27-.47-.3-.99-.45-1.562-.45-1.886 0-3.644 1.12-5.264 3.36V55.38c0 1.91.213 3.123.64 3.633.427.51 1.222.827 2.384.954v.983h-15.563v-.983c1.292-.108 2.213-.455 2.766-1.036.372-.4.557-1.584.557-3.55V40.96c0-1.93-.213-3.13-.64-3.604-.427-.475-1.323-.784-2.682-.93v-1.012h12.54" fill="#918f90"/><path d="M172.73 76.776c0 1.367-.563 3.004-1.69 4.917-1.124 1.91-2.416 3.584-3.876 5.018-1.458 1.437-2.606 2.155-3.446 2.155-.366 0-.667-.13-.905-.386-.238-.26-.356-.605-.356-1.04 0-.3.08-.62.238-.967.158-.346.364-.658.617-.934l2.07-2.288.76-.863c.143-.18.278-.268.405-.268.222 0 .332.138.332.416l-.072.327c1.094-1.147 2.01-2.312 2.746-3.49.737-1.18 1.106-2.064 1.106-2.658 0-.436-.173-.653-.523-.653-.46 0-1.09.287-1.89.86-.8.575-1.716 1.4-2.746 2.48s-2.067 2.33-3.115 3.757c-1.046 1.427-1.935 2.932-2.664 4.516-.727 1.584-1.092 3.06-1.092 4.426 0 .97.21 1.748.63 2.332.42.584.994.875 1.725.875 1.06 0 2.24-.392 3.53-1.173 1.292-.783 2.446-1.634 3.46-2.556 1.015-.92 2.22-2.093 3.614-3.517l.024.564c0 .436-.157.905-.474 1.412-.317.502-1.184 1.5-2.603 2.983-1.42 1.485-2.925 2.733-4.52 3.743-1.592 1.008-3.04 1.514-4.338 1.514-1.348 0-2.43-.49-3.247-1.47-.817-.98-1.223-2.302-1.223-3.966 0-1.763.538-3.777 1.615-6.043 1.08-2.267 2.386-4.268 3.924-6 1.537-1.732 3.222-3.292 5.054-4.678 1.83-1.385 3.35-2.08 4.553-2.08.746 0 1.33.245 1.75.728.42.485.63 1.154.63 2.006M183.717 89.785l-.048.867.022.417c-1.03 1.095-1.974 2.05-2.83 2.866-.856.818-1.64 1.225-2.353 1.225-.383 0-.7-.188-.953-.564-.253-.376-.38-.84-.38-1.396 0-.276.04-.574.12-.89.078-.317.212-.84.402-1.575-.586.755-1.165 1.496-1.738 2.227-.807.912-1.513 1.368-2.115 1.368-1.143 0-1.713-1.08-1.713-3.238 0-1.585.323-2.892.964-3.92.643-1.03 1.22-1.797 1.737-2.3.514-.508 1.05-.76 1.604-.76.856 0 1.284.217 1.284.655 0 .276-.306.82-.916 1.632-.61.81-1.138 1.414-1.58 1.81-.447.4-.79.77-1.036 1.115-.246.346-.368.867-.368 1.56 0 .335.078.504.237.504.128 0 .263-.05.405-.15.142-.1.41-.267.796-.505.39-.238 1.128-.97 2.214-2.196 1.085-1.23 2.116-2.403 3.09-3.522.976-1.118 1.623-1.677 1.94-1.677.395 0 .595.556.595 1.663 0 .337-.573 1.24-1.714 2.703-1.142 1.466-1.712 2.654-1.712 3.564 0 .594.277.89.832.89.428 0 .975-.304 1.64-.916.668-.61 1.19-1.097 1.57-1.46" fill="#ed1c24"/><path d="M191.303 80.963c0 .595-.192 1.18-.573 1.754-.38.574-.8.86-1.26.86-.285 0-.523-.123-.713-.37-.192-.248-.286-.57-.286-.966 0-.572.227-1.093.68-1.558.45-.464.907-.698 1.368-.698.522 0 .785.326.785.98zm-.715 8.822l-.024 1.307c-.76.733-1.513 1.455-2.258 2.167-1.064.932-1.904 1.395-2.522 1.395-.65 0-1.165-.305-1.545-.92-.382-.613-.572-1.493-.572-2.643 0-1.564.474-3.113 1.427-4.648.95-1.535 2.005-2.304 3.163-2.304.19 0 .388.06.595.18.205.118.308.337.308.653 0 .595-.44 1.422-1.32 2.482-.88 1.06-1.557 1.865-2.033 2.42-.11.297-.165.544-.165.74 0 .934.46 1.397 1.38 1.397.426 0 .89-.152 1.39-.46.5-.307 1.224-.895 2.176-1.767" fill="#ed1c24"/><path d="M197.414 86.28c-1.682.752-2.924 1.402-3.722 1.945-.802.545-1.2 1.412-1.2 2.6 0 .416.126.624.38.624.14 0 .582-.324 1.32-.966.736-.645 1.37-1.294 1.902-1.945.53-.656.97-1.406 1.32-2.26zm6.207-8.315c0 .652-.456 1.805-1.368 3.458-.912 1.655-1.824 3.346-2.734 5.08-.912 1.733-1.368 3.103-1.368 4.113 0 1.09.263 1.634.784 1.634.238 0 .61-.172 1.12-.52.506-.345 1.322-.995 2.447-1.945-.014.22-.026.407-.033.564-.01.158-.014.286-.014.385v.328c-.792.77-1.584 1.534-2.376 2.286-1.064.91-1.966 1.364-2.71 1.364-.842 0-1.262-.74-1.262-2.227 0-.732.07-1.424.215-2.077-.635.73-1.357 1.534-2.165 2.405-.808.87-1.442 1.307-1.902 1.307-.38 0-.738-.306-1.07-.922-.333-.612-.54-1.326-.62-2.137 0-1.643.42-2.986 1.26-4.025.842-1.04 1.86-1.846 3.057-2.422 1.198-.573 1.97-.86 2.32-.86.19 0 .343.045.463.133.118.09.314.32.582.697 1.077-2.573 1.943-4.513 2.592-5.82.65-1.31 1.3-1.962 1.95-1.962.237 0 .436.11.595.328.16.217.24.493.24.832" fill="#ed1c24"/><path d="M210.492 86.34c-.968.335-1.84.698-2.616 1.083-.776.386-1.49.837-2.14 1.353-.65.515-1.062.95-1.237 1.305-.175.358-.262.844-.262 1.46 0 .433.127.65.38.65.54 0 1.49-.736 2.855-2.21 1.362-1.476 2.37-2.69 3.02-3.64zm3.924 3.445l-.048.897.025.387c-.826.836-1.735 1.737-2.735 2.702-1 .965-1.792 1.45-2.38 1.45-.268 0-.502-.157-.7-.464-.198-.31-.297-.644-.297-1.002 0-.437.065-.892.19-1.36.127-.47.365-1.17.715-2.105-.778.812-1.66 1.714-2.652 2.704-.992.99-1.684 1.483-2.08 1.483-.476 0-.91-.396-1.298-1.186-.387-.792-.63-1.535-.725-2.227v-.61c0-.208.017-.43.048-.668.334-1.385 1.563-2.782 3.687-4.187 2.124-1.406 3.828-2.11 5.112-2.11.602 0 1.062.348 1.38 1.04l.094.326c0 .22-.11.398-.33.535-.272.118-.437.197-.5.237.443.238.664.615.664 1.13 0 .258-.353.95-1.057 2.08-.706 1.126-1.058 1.918-1.058 2.374 0 .26.07.466.212.623.142.16.334.238.57.238.302 0 .603-.107.906-.324.3-.218 1.054-.87 2.258-1.96" fill="#ed1c24"/><path d="M225.522 89.785l-.05.887.027.412c-1.445 1.358-2.49 2.302-3.142 2.836-.65.53-1.31.794-1.973.794-.35 0-.647-.182-.892-.547-.246-.364-.37-.803-.37-1.315 0-.847.26-1.76.775-2.736.514-.975.937-1.768 1.272-2.38-.73.713-1.386 1.41-1.963 2.094-.578.682-1.125 1.43-1.64 2.24-.515.815-.916 1.368-1.2 1.665-.287.297-.55.447-.787.447-.443 0-.756-.224-.94-.67-.18-.444-.272-1.252-.272-2.42v-.416c0-1.11.42-2.4 1.26-3.875.84-1.474 1.634-2.213 2.378-2.213.507 0 .855.04 1.047.12.19.08.284.238.284.475 0 .416-.496 1.22-1.486 2.42-.99 1.198-1.484 1.996-1.484 2.392 0 .236.08.355.238.355.11 0 .197-.035.26-.105.064-.07.273-.374.632-.92.355-.545 1.403-1.668 3.138-3.37 1.736-1.704 2.842-2.556 3.318-2.556.19 0 .324.188.403.563.08.377.163.743.25 1.1.088.357.132.564.132.623-.65.972-1.294 1.93-1.927 2.882-.634.95-.95 1.723-.95 2.317 0 .515.23.772.688.772.317 0 .705-.143 1.166-.432.458-.287 1.063-.766 1.808-1.44" fill="#ed1c24"/><path d="M232.323 86.28c-1.682.752-2.922 1.402-3.723 1.945-.8.545-1.2 1.412-1.2 2.6 0 .416.126.624.38.624.143 0 .583-.324 1.32-.966.737-.645 1.372-1.294 1.902-1.945.53-.656.972-1.406 1.32-2.26zm6.206-8.315c0 .652-.457 1.805-1.368 3.458-.912 1.655-1.825 3.346-2.735 5.08-.912 1.733-1.368 3.103-1.368 4.113 0 1.09.26 1.634.783 1.634.238 0 .612-.172 1.12-.52.505-.345 1.322-.995 2.448-1.945-.016.22-.027.407-.033.564-.01.158-.014.286-.014.385v.328c-.792.77-1.584 1.534-2.378 2.286-1.062.91-1.966 1.364-2.71 1.364-.84 0-1.26-.74-1.26-2.227 0-.732.07-1.424.214-2.077-.635.73-1.357 1.534-2.165 2.405-.81.87-1.443 1.307-1.902 1.307-.382 0-.737-.306-1.07-.922-.333-.612-.54-1.326-.62-2.137 0-1.643.42-2.986 1.26-4.025.84-1.04 1.858-1.846 3.058-2.422 1.196-.573 1.97-.86 2.318-.86.19 0 .343.045.464.133.117.09.313.32.582.697 1.078-2.573 1.942-4.513 2.593-5.82.65-1.31 1.3-1.962 1.95-1.962.237 0 .436.11.593.328.16.217.24.493.24.832" fill="#ed1c24"/><path d="M242.69 86.547c-1.188.793-2.084 1.516-2.686 2.17-.602.65-.904 1.553-.904 2.703 0 .592.284.89.855.89.382 0 .707-.068.975-.208.27-.14.587-.406.95-.8-.172-.477-.26-.924-.26-1.34 0-.434.075-.89.226-1.364.15-.476.433-1.16.844-2.05zm4.162 3.238c-.016.16-.028.313-.036.46-.008.148-.01.322-.01.52v.327c-.603.515-1.11.876-1.523 1.084-.414.208-.825.31-1.238.31h-.69c-1.236 1.427-2.402 2.14-3.496 2.14-.68 0-1.245-.307-1.688-.92-.444-.615-.722-1.485-.833-2.614 0-1.028.103-1.935.31-2.717.204-.783.63-1.556 1.272-2.318s1.418-1.4 2.33-1.917c.91-.514 1.786-.77 2.628-.77.363 0 .668.1.916.296.244.198.366.446.366.744 0 .317-.182.584-.547.8.32.14.538.33.655.566.12.238.18.603.18 1.1 0 .97-.382 2.276-1.143 3.92l.476.03c.333 0 .637-.07.916-.21.276-.137.66-.416 1.152-.83M263.948 89.785l-.046.89.023.417c-.89.81-1.775 1.624-2.664 2.437-1.093.89-2.13 1.334-3.113 1.334-.84 0-1.587-.268-2.236-.8-.65-.535-.974-1.17-.974-1.903 0-.414.12-.76.358-1.038.237-.278.537-.416.902-.416.286 0 .558.084.82.252.262.168.568.43.916.788 1.126-.833 1.69-1.952 1.69-3.357 0-.376-.015-.733-.048-1.07-.032-.337-.07-.743-.12-1.218-.92 1.05-1.73 1.94-2.437 2.674-.706.73-1.494 1.504-2.367 2.316v-.608c0-.19.016-.42.048-.7 1.08-1.008 1.94-1.85 2.58-2.525.644-.672 1.33-1.484 2.058-2.435.16-.85.35-1.437.57-1.75.223-.32.547-.477.975-.477.287 0 .48.074.585.22.1.15.168.434.2.848 0 .377.088.932.262 1.664.176.733.262 1.296.262 1.693 0 1.327-.346 2.39-1.036 3.194-.688.8-1.4 1.53-2.127 2.182l.643.058c.57 0 1.073-.133 1.51-.4.434-.267 1.358-1.026 2.768-2.273" fill="#ed1c24"/><path d="M275.483 89.785l-.048.867.023.417c-1.03 1.095-1.973 2.05-2.83 2.866-.855.818-1.64 1.225-2.353 1.225-.38 0-.7-.188-.95-.564-.256-.376-.382-.84-.382-1.396 0-.276.04-.574.12-.89.08-.317.213-.84.402-1.575-.585.755-1.163 1.496-1.735 2.227-.808.912-1.514 1.368-2.116 1.368-1.142 0-1.712-1.08-1.712-3.238 0-1.585.322-2.892.962-3.92.643-1.03 1.223-1.797 1.737-2.3.516-.508 1.05-.76 1.606-.76.856 0 1.284.217 1.284.655 0 .276-.306.82-.915 1.632-.61.81-1.137 1.414-1.582 1.81-.444.4-.79.77-1.034 1.115-.247.346-.37.867-.37 1.56 0 .335.08.504.238.504.127 0 .263-.05.405-.15.142-.1.407-.267.796-.505.387-.238 1.124-.97 2.21-2.196 1.087-1.23 2.118-2.403 3.09-3.522.977-1.118 1.622-1.677 1.94-1.677.395 0 .595.556.595 1.663 0 .337-.57 1.24-1.712 2.703-1.142 1.466-1.712 2.654-1.712 3.564 0 .594.277.89.832.89.428 0 .975-.304 1.642-.916.665-.61 1.19-1.097 1.57-1.46M300.237 75.707c0 .99-.127 1.698-.38 2.123-.254.425-.65.762-1.19 1.01-.54.248-1.177.64-1.913 1.174-.738.534-1.138.8-1.2.8-.256 0-.383-.136-.383-.415 0-.158.097-.347.287-.564l1.428-1.577c-1.27 0-2.455.146-3.557.433-1.1.29-2.01.64-2.72 1.057-.715.415-1.3.813-1.75 1.188-.452.377-.678.715-.678 1.012 0 .238.16.458.475.656.317.198.857.406 1.617.625l2.495.688c1.348.377 2.534.882 3.557 1.514 1.024.63 1.536 1.542 1.536 2.727 0 2.095-1.075 3.74-3.223 4.924-2.148 1.186-5.133 1.78-8.954 1.78-1.062 0-1.874-.14-2.438-.415-.563-.28-.843-.684-.843-1.22 0-.474.195-1.044.582-1.707.388-.664.873-1.13 1.452-1.397.578-.266.976-.4 1.2-.4.127 0 .19.08.19.237 0 .18-.095.348-.285.505-.19.16-.366.298-.523.417l1.618.06c1.647 0 3.146-.155 4.496-.46 1.346-.31 2.433-.74 3.256-1.295.825-.554 1.238-.99 1.238-1.306 0-.317-.362-.674-1.082-1.07-.722-.394-1.56-.702-2.51-.92l-3.922-.89c-.89-.2-1.516-.496-1.88-.892-.365-.395-.547-.968-.547-1.723 0-.594.07-1.243.214-1.946.143-.702.436-1.504.88-2.405.444-.903 1.79-1.76 4.042-2.57 2.25-.812 4.21-1.218 5.875-1.218 1.348 0 2.273.102 2.78.31.508.208.762.59.762 1.145M307.537 86.34c-.967.335-1.84.698-2.615 1.083-.778.386-1.49.837-2.142 1.353-.65.515-1.06.95-1.236 1.305-.173.358-.26.844-.26 1.46 0 .433.125.65.38.65.538 0 1.49-.736 2.854-2.21 1.362-1.476 2.37-2.69 3.02-3.64zm3.925 3.445l-.048.897.025.387c-.828.836-1.737 1.737-2.736 2.702-1 .965-1.793 1.45-2.38 1.45-.27 0-.503-.157-.7-.464-.2-.31-.3-.644-.3-1.002 0-.437.065-.892.193-1.36.125-.47.363-1.17.713-2.105-.778.812-1.66 1.714-2.65 2.704-.992.99-1.686 1.483-2.084 1.483-.474 0-.906-.396-1.296-1.186-.388-.792-.63-1.535-.724-2.227v-.61c0-.208.016-.43.048-.668.332-1.385 1.562-2.782 3.686-4.187 2.125-1.406 3.828-2.11 5.11-2.11.604 0 1.065.348 1.383 1.04l.093.326c0 .22-.11.398-.332.535-.27.118-.436.197-.5.237.444.238.666.615.666 1.13 0 .258-.353.95-1.058 2.08-.705 1.126-1.06 1.918-1.06 2.374 0 .26.073.466.215.623.144.16.333.238.57.238.303 0 .604-.107.906-.324.3-.218 1.054-.87 2.26-1.96" fill="#ed1c24"/><path d="M317.907 79.657c-.872.91-1.542 1.798-2.01 2.658-.47.86-1.027 2.104-1.676 3.727.872-1.13 1.605-2.178 2.2-3.147.594-.97 1.09-2.048 1.487-3.238zm1.782-2.586c-.016.712-.09 1.365-.225 1.958-.136.592-.323 1.26-.56 2-.24.743-.64 1.57-1.212 2.475-.57.91-1.213 1.815-1.926 2.714-.715.9-1.395 1.744-2.047 2.534l-.117 1.455c0 1.264.443 1.897 1.33 1.897.476 0 .99-.168 1.535-.504.546-.338 1.288-.94 2.223-1.813l-.047.89.023.417c-1.25 1.168-2.254 2.055-3.007 2.658-.754.604-1.457.905-2.105.905-.697 0-1.23-.284-1.593-.858-.365-.575-.548-1.473-.548-2.7 0-1.62.242-3.172.726-4.655.483-1.484 1.09-2.852 1.818-4.106.73-1.256 1.682-2.597 2.855-4.02 1.172-1.422 1.957-2.134 2.354-2.134.143 0 .265.084.368.252.103.168.154.382.154.637" fill="#ed1c24"/><path d="M330.224 89.785l-.05.867.026.417c-1.03 1.095-1.973 2.05-2.83 2.866-.855.818-1.64 1.225-2.352 1.225-.383 0-.7-.188-.954-.564-.254-.376-.38-.84-.38-1.396 0-.276.038-.574.12-.89.078-.317.214-.84.404-1.575-.587.755-1.166 1.496-1.737 2.227-.808.912-1.514 1.368-2.117 1.368-1.14 0-1.71-1.08-1.71-3.238 0-1.585.32-2.892.963-3.92.642-1.03 1.22-1.797 1.738-2.3.512-.508 1.048-.76 1.603-.76.856 0 1.285.217 1.285.655 0 .276-.306.82-.916 1.632-.61.81-1.137 1.414-1.58 1.81-.446.4-.79.77-1.037 1.115-.247.346-.37.867-.37 1.56 0 .335.08.504.238.504.127 0 .263-.05.406-.15.14-.1.406-.267.794-.505.39-.238 1.13-.97 2.213-2.196 1.088-1.23 2.118-2.403 3.094-3.522.973-1.118 1.62-1.677 1.937-1.677.397 0 .595.556.595 1.663 0 .337-.57 1.24-1.712 2.703-1.14 1.466-1.712 2.654-1.712 3.564 0 .594.277.89.834.89.427 0 .975-.304 1.64-.916.667-.61 1.19-1.097 1.57-1.46" fill="#ed1c24"/><path d="M337.025 86.28c-1.68.752-2.92 1.402-3.723 1.945-.798.545-1.2 1.412-1.2 2.6 0 .416.127.624.38.624.143 0 .582-.324 1.32-.966.738-.645 1.372-1.294 1.904-1.945.53-.656.97-1.406 1.32-2.26zm6.206-8.315c0 .652-.454 1.805-1.364 3.458-.914 1.655-1.824 3.346-2.738 5.08-.91 1.733-1.365 3.103-1.365 4.113 0 1.09.26 1.634.784 1.634.238 0 .61-.172 1.117-.52.507-.345 1.327-.995 2.45-1.945-.017.22-.028.407-.035.564-.008.158-.015.286-.015.385v.328c-.79.77-1.586 1.534-2.377 2.286-1.06.91-1.967 1.364-2.712 1.364-.84 0-1.26-.74-1.26-2.227 0-.732.073-1.424.214-2.077-.634.73-1.355 1.534-2.16 2.405-.81.87-1.445 1.307-1.905 1.307-.382 0-.737-.306-1.07-.922-.334-.612-.54-1.326-.62-2.137 0-1.643.42-2.986 1.26-4.025.84-1.04 1.86-1.846 3.058-2.422 1.195-.573 1.968-.86 2.318-.86.19 0 .344.045.463.133.12.09.315.32.585.697 1.078-2.573 1.94-4.513 2.59-5.82.65-1.31 1.302-1.962 1.95-1.962.238 0 .437.11.595.328.157.217.238.493.238.832" fill="#ed1c24"/></svg>