<?xml version="1.0" encoding="UTF-8" standalone="no"?>
<!-- Created with Inkscape (http://www.inkscape.org/) -->

<svg
   xmlns:dc="http://purl.org/dc/elements/1.1/"
   xmlns:cc="http://creativecommons.org/ns#"
   xmlns:rdf="http://www.w3.org/1999/02/22-rdf-syntax-ns#"
   xmlns:svg="http://www.w3.org/2000/svg"
   xmlns="http://www.w3.org/2000/svg"
   xmlns:xlink="http://www.w3.org/1999/xlink"
   xmlns:sodipodi="http://sodipodi.sourceforge.net/DTD/sodipodi-0.dtd"
   xmlns:inkscape="http://www.inkscape.org/namespaces/inkscape"
   width="400"
   height="240.74182"
   id="svg26958"
   version="1.1"
   inkscape:version="0.48.3.1 r9886"
   sodipodi:docname="Documento nuevo 27">
  <defs
     id="defs26960">
    <linearGradient
       inkscape:collect="always"
       xlink:href="#linearGradient26507"
       id="linearGradient26858"
       gradientUnits="userSpaceOnUse"
       gradientTransform="matrix(-1.53e-5,319.79834,319.79834,1.53e-5,460.89551,80.258789)"
       spreadMethod="pad"
       x1="0"
       y1="0"
       x2="1"
       y2="0" />
    <linearGradient
       id="linearGradient26507"
       spreadMethod="pad"
       gradientTransform="matrix(-1.53e-5,319.79834,319.79834,1.53e-5,460.89551,80.258789)"
       gradientUnits="userSpaceOnUse"
       y2="0"
       x2="1"
       y1="0"
       x1="0">
      <stop
         id="stop26509"
         offset="0"
         style="stop-opacity:1;stop-color:#ed7d1c" />
      <stop
         id="stop26511"
         offset="1"
         style="stop-opacity:1;stop-color:#fabe0e" />
    </linearGradient>
    <clipPath
       id="clipPath26519"
       clipPathUnits="userSpaceOnUse">
      <path
         inkscape:connector-curvature="0"
         id="path26521"
         d="M 0,500 900,500 900,0 0,0 0,500 z" />
    </clipPath>
    <clipPath
       id="clipPath26527"
       clipPathUnits="userSpaceOnUse">
      <path
         inkscape:connector-curvature="0"
         id="path26529"
         d="m 195.38,402.411 533.148,0 0,-189.053 -533.148,0 0,189.053 z" />
    </clipPath>
    <linearGradient
       inkscape:collect="always"
       xlink:href="#linearGradient26551"
       id="linearGradient26860"
       gradientUnits="userSpaceOnUse"
       gradientTransform="matrix(0,98.793945,98.793945,0,291.31299,275.45166)"
       spreadMethod="pad"
       x1="0"
       y1="0"
       x2="1"
       y2="0" />
    <linearGradient
       id="linearGradient26551"
       spreadMethod="pad"
       gradientTransform="matrix(0,98.793945,98.793945,0,291.31299,275.45166)"
       gradientUnits="userSpaceOnUse"
       y2="0"
       x2="1"
       y1="0"
       x1="0">
      <stop
         id="stop26553"
         offset="0"
         style="stop-opacity:1;stop-color:#015353" />
      <stop
         id="stop26555"
         offset="1"
         style="stop-opacity:1;stop-color:#039fc5" />
    </linearGradient>
    <linearGradient
       inkscape:collect="always"
       xlink:href="#linearGradient26571"
       id="linearGradient26862"
       gradientUnits="userSpaceOnUse"
       gradientTransform="matrix(0,97.225098,97.225098,0,402.91162,276.16309)"
       spreadMethod="pad"
       x1="0"
       y1="0"
       x2="1"
       y2="0" />
    <linearGradient
       id="linearGradient26571"
       spreadMethod="pad"
       gradientTransform="matrix(0,97.225098,97.225098,0,402.91162,276.16309)"
       gradientUnits="userSpaceOnUse"
       y2="0"
       x2="1"
       y1="0"
       x1="0">
      <stop
         id="stop26573"
         offset="0"
         style="stop-opacity:1;stop-color:#015353" />
      <stop
         id="stop26575"
         offset="1"
         style="stop-opacity:1;stop-color:#039fc5" />
    </linearGradient>
    <linearGradient
       inkscape:collect="always"
       xlink:href="#linearGradient26591"
       id="linearGradient26864"
       gradientUnits="userSpaceOnUse"
       gradientTransform="matrix(0,95.669922,95.669922,0,514.8623,277.01367)"
       spreadMethod="pad"
       x1="0"
       y1="0"
       x2="1"
       y2="0" />
    <linearGradient
       id="linearGradient26591"
       spreadMethod="pad"
       gradientTransform="matrix(0,95.669922,95.669922,0,514.8623,277.01367)"
       gradientUnits="userSpaceOnUse"
       y2="0"
       x2="1"
       y1="0"
       x1="0">
      <stop
         id="stop26593"
         offset="0"
         style="stop-opacity:1;stop-color:#015353" />
      <stop
         id="stop26595"
         offset="1"
         style="stop-opacity:1;stop-color:#039fc5" />
    </linearGradient>
    <linearGradient
       inkscape:collect="always"
       xlink:href="#linearGradient26611"
       id="linearGradient26866"
       gradientUnits="userSpaceOnUse"
       gradientTransform="matrix(0,95.669922,95.669922,0,629.50879,277.01367)"
       spreadMethod="pad"
       x1="0"
       y1="0"
       x2="1"
       y2="0" />
    <linearGradient
       id="linearGradient26611"
       spreadMethod="pad"
       gradientTransform="matrix(0,95.669922,95.669922,0,629.50879,277.01367)"
       gradientUnits="userSpaceOnUse"
       y2="0"
       x2="1"
       y1="0"
       x1="0">
      <stop
         id="stop26613"
         offset="0"
         style="stop-opacity:1;stop-color:#015353" />
      <stop
         id="stop26615"
         offset="1"
         style="stop-opacity:1;stop-color:#039fc5" />
    </linearGradient>
    <linearGradient
       inkscape:collect="always"
       xlink:href="#linearGradient26631"
       id="linearGradient26868"
       gradientUnits="userSpaceOnUse"
       gradientTransform="matrix(0,156.02588,156.02588,0,405.19971,110.67773)"
       spreadMethod="pad"
       x1="0"
       y1="0"
       x2="1"
       y2="0" />
    <linearGradient
       id="linearGradient26631"
       spreadMethod="pad"
       gradientTransform="matrix(0,156.02588,156.02588,0,405.19971,110.67773)"
       gradientUnits="userSpaceOnUse"
       y2="0"
       x2="1"
       y1="0"
       x1="0">
      <stop
         id="stop26633"
         offset="0"
         style="stop-opacity:1;stop-color:#8e141a" />
      <stop
         id="stop26635"
         offset="1"
         style="stop-opacity:1;stop-color:#e32522" />
    </linearGradient>
    <linearGradient
       inkscape:collect="always"
       xlink:href="#linearGradient26651"
       id="linearGradient26870"
       gradientUnits="userSpaceOnUse"
       gradientTransform="matrix(0,159.22314,159.22314,0,526.58008,107.65527)"
       spreadMethod="pad"
       x1="0"
       y1="0"
       x2="1"
       y2="0" />
    <linearGradient
       id="linearGradient26651"
       spreadMethod="pad"
       gradientTransform="matrix(0,159.22314,159.22314,0,526.58008,107.65527)"
       gradientUnits="userSpaceOnUse"
       y2="0"
       x2="1"
       y1="0"
       x1="0">
      <stop
         id="stop26653"
         offset="0"
         style="stop-opacity:1;stop-color:#8e141a" />
      <stop
         id="stop26655"
         offset="1"
         style="stop-opacity:1;stop-color:#e32522" />
    </linearGradient>
  </defs>
  <sodipodi:namedview
     id="base"
     pagecolor="#ffffff"
     bordercolor="#666666"
     borderopacity="1.0"
     inkscape:pageopacity="0.0"
     inkscape:pageshadow="2"
     inkscape:zoom="0.35"
     inkscape:cx="200"
     inkscape:cy="120.37091"
     inkscape:document-units="px"
     inkscape:current-layer="layer1"
     showgrid="false"
     fit-margin-top="0"
     fit-margin-left="0"
     fit-margin-right="0"
     fit-margin-bottom="0"
     inkscape:window-width="596"
     inkscape:window-height="418"
     inkscape:window-x="2"
     inkscape:window-y="123"
     inkscape:window-maximized="0" />
  <metadata
     id="metadata26963">
    <rdf:RDF>
      <cc:Work
         rdf:about="">
        <dc:format>image/svg+xml</dc:format>
        <dc:type
           rdf:resource="http://purl.org/dc/dcmitype/StillImage" />
        <dc:title></dc:title>
      </cc:Work>
    </rdf:RDF>
  </metadata>
  <g
     inkscape:label="Capa 1"
     inkscape:groupmode="layer"
     id="layer1"
     transform="translate(-150,-411.99127)">
    <g
       id="g26813"
       transform="matrix(0.597834,0,0,0.597834,571.98035,326.05442)">
      <g
         transform="matrix(1.25,0,0,-1.25,-947.42775,646.76064)"
         id="g26495">
        <g
           id="g26497">
          <g
             id="g26503">
            <g
               id="g26505">
              <path
                 id="path26513"
                 style="fill:url(#linearGradient26858);stroke:none"
                 d="m 703.962,400.051 -486.736,0 c -24.831,-3.509 -23.959,-25.944 -23.959,-25.944 l 0,0 0,-267.185 c 0,-27.279 26.102,-26.662 26.102,-26.662 l 0,0 475.236,0 c 35.024,0 33.92,22.63 33.92,22.63 l 0,0 0,264.708 c -0.007,31.319 -21.114,32.46 -24.19,32.46 l 0,0 c -0.242,0 -0.373,-0.007 -0.373,-0.007"
                 inkscape:connector-curvature="0" />
            </g>
          </g>
        </g>
      </g>
      <g
         transform="matrix(1.25,0,0,-1.25,-947.42775,646.76064)"
         id="g26515">
        <g
           clip-path="url(#clipPath26519)"
           id="g26517">
          <g
             id="g26523">
            <g
               id="g26525" />
            <g
               id="g26531">
              <g
                 id="g26533"
                 clip-path="url(#clipPath26527)"
                 style="opacity:0.14999402">
                <g
                   id="g26535"
                   transform="translate(195.3804,277.8779)">
                  <path
                     id="path26537"
                     style="fill:#ffffff;fill-opacity:1;fill-rule:nonzero;stroke:none"
                     d="m 0,0 0,101.998 c 0,0 1.293,18.736 22.645,22.535 l 487.935,0 c 0,0 24.591,-2.608 22.434,-29.655 l 0,-63.566 0,-13.288 0,-82.544 c 0,0 -204.411,126.663 -532.367,0"
                     inkscape:connector-curvature="0" />
                </g>
              </g>
            </g>
          </g>
        </g>
      </g>
      <g
         transform="matrix(1.25,0,0,-1.25,-947.42775,646.76064)"
         id="g26539">
        <g
           id="g26541">
          <g
             id="g26547">
            <g
               id="g26549">
              <path
                 id="path26557"
                 style="fill:url(#linearGradient26860);stroke:none"
                 d="m 246.706,323.995 c 0,-31.508 24.744,-48.544 57.858,-48.544 l 0,0 c 14.283,0 25.608,2.274 31.013,4.548 l 0,0 -2.971,9.931 c -6.088,-2.412 -15.503,-3.974 -24.911,-3.974 l 0,0 c -28.398,0 -44.954,14.908 -44.954,38.468 l 0,0 c 0,25.122 18.292,39.455 45.826,39.455 l 0,0 c 9.756,0 17.951,-1.7 23.523,-3.974 l 0,0 3.829,10.076 c -4.003,1.707 -13.411,4.264 -27.876,4.264 l 0,0 c -36.418,0 -61.337,-20.16 -61.337,-50.25"
                 inkscape:connector-curvature="0" />
            </g>
          </g>
        </g>
      </g>
      <g
         transform="matrix(1.25,0,0,-1.25,-947.42775,646.76064)"
         id="g26559">
        <g
           id="g26561">
          <g
             id="g26567">
            <g
               id="g26569">
              <path
                 id="path26577"
                 style="fill:url(#linearGradient26862);stroke:none"
                 d="m 354.56,371.406 0,-94.103 c 7.847,-0.856 16.731,-1.14 27.709,-1.14 l 0,0 c 22.825,0 40.944,4.824 52.095,13.767 l 0,0 c 10.803,8.805 16.899,21.576 16.899,37.189 l 0,0 c 0,15.473 -6.096,26.684 -16.724,34.493 l 0,0 c -10.28,7.803 -25.79,11.776 -47.57,11.776 l 0,0 c -12.017,0 -23.001,-0.849 -32.409,-1.982 m 30.665,-85.304 c -5.914,0 -11.493,0 -15.329,0.566 l 0,0 0,75.656 c 4.011,0.705 9.932,1.271 17.777,1.271 l 0,0 c 32.053,0 47.745,-14.049 47.571,-36.898 l 0,0 c 0,-25.709 -17.438,-40.597 -49.549,-40.596 l 0,0 c -0.155,0 -0.314,0 -0.47,10e-4"
                 inkscape:connector-curvature="0" />
            </g>
          </g>
        </g>
      </g>
      <g
         transform="matrix(1.25,0,0,-1.25,-947.42775,646.76064)"
         id="g26579">
        <g
           id="g26581">
          <g
             id="g26587">
            <g
               id="g26589">
              <path
                 id="path26597"
                 style="fill:url(#linearGradient26864);stroke:none"
                 d="m 544.659,372.684 0,-40.168 c 0,-14.762 0.349,-26.4 1.736,-39.179 l 0,0 -0.515,-0.138 c -5.398,9.932 -12.373,19.87 -20.916,31.079 l 0,0 -37.457,48.406 -16.731,0 0,-95.67 14.29,0 0,40.879 c 0,15.895 -0.175,27.396 -1.047,39.462 l 0,0 0.531,0.138 c 5.739,-10.359 13.585,-21.286 21.78,-31.936 l 0,0 37.283,-48.543 15.336,0 0,95.67 -14.29,0 z"
                 inkscape:connector-curvature="0" />
            </g>
          </g>
        </g>
      </g>
      <g
         transform="matrix(1.25,0,0,-1.25,-947.42775,646.76064)"
         id="g26599">
        <g
           id="g26601">
          <g
             id="g26607">
            <g
               id="g26609">
              <path
                 id="path26617"
                 style="fill:url(#linearGradient26866);stroke:none"
                 d="m 659.305,372.684 0,-40.168 c 0,-14.762 0.349,-26.4 1.744,-39.179 l 0,0 -0.524,-0.138 c -5.405,9.932 -12.371,19.87 -20.907,31.079 l 0,0 -37.458,48.406 -16.731,0 0,-95.67 14.283,0 0,40.879 c 0,15.895 -0.174,27.396 -1.039,39.462 l 0,0 0.516,0.138 c 5.753,-10.359 13.592,-21.286 21.78,-31.936 l 0,0 37.297,-48.543 15.322,0 0,95.67 -14.283,0 z"
                 inkscape:connector-curvature="0" />
            </g>
          </g>
        </g>
      </g>
      <g
         transform="matrix(1.25,0,0,-1.25,-947.42775,646.76064)"
         id="g26619">
        <g
           id="g26621">
          <g
             id="g26627">
            <g
               id="g26629">
              <path
                 id="path26637"
                 style="fill:url(#linearGradient26868);stroke:none"
                 d="m 377.786,263.021 c -6.8,-2.462 -12.328,-6.081 -16.565,-10.868 l 0,0 c -4.256,-4.788 -6.923,-9.647 -8.004,-14.587 l 0,0 c -1.076,-4.948 -1.621,-11.704 -1.621,-20.262 l 0,0 0,-5.573 41.997,0 0,14.559 c 0,6.749 0.866,11.253 2.602,13.52 l 0,0 c 1.751,2.274 4.402,3.407 7.963,3.407 l 0,0 c 3.559,0 6.21,-1.023 7.954,-3.073 l 0,0 c 1.744,-2.048 2.608,-5.158 2.608,-9.313 l 0,0 c 0,-5.428 -2.876,-12.975 -8.637,-22.651 l 0,0 c -5.761,-9.686 -23.909,-34.886 -54.443,-75.613 l 0,0 -0.044,-21.889 102.95,0 0,26.153 -51.231,0 c 26.255,31.697 42.07,52.423 47.431,62.193 l 0,0 c 5.361,9.765 8.057,19.028 8.057,27.789 l 0,0 c 0,11.529 -4.78,21.061 -14.311,28.594 l 0,0 c -9.546,7.526 -23.632,11.297 -42.245,11.297 l 0,0 c -9.51,0 -17.655,-1.235 -24.461,-3.683"
                 inkscape:connector-curvature="0" />
            </g>
          </g>
        </g>
      </g>
      <g
         transform="matrix(1.25,0,0,-1.25,-947.42775,646.76064)"
         id="g26639">
        <g
           id="g26641">
          <g
             id="g26647">
            <g
               id="g26649">
              <path
                 id="path26657"
                 style="fill:url(#linearGradient26870);stroke:none"
                 d="m 483.656,259.15 c -8.18,-5.152 -12.27,-15.053 -12.27,-29.715 l 0,0 0,-13.076 46.778,0 0,12.62 c 0,5.883 0.596,9.734 1.794,11.535 l 0,0 c 1.201,1.802 3.43,2.703 6.678,2.703 l 0,0 c 2.862,0 4.975,-0.85 6.327,-2.557 l 0,0 c 1.351,-1.7 2.034,-5.238 2.034,-10.599 l 0,0 0,-8.523 c 0,-4.989 -0.581,-8.651 -1.736,-10.983 l 0,0 c -1.163,-2.332 -3.052,-3.851 -5.675,-4.55 l 0,0 c -2.622,-0.689 -9.48,-1.037 -20.588,-1.037 l 0,0 0,-22.238 c 9.094,-0.123 15.234,-0.61 18.395,-1.459 l 0,0 c 3.161,-0.858 5.55,-2.638 7.17,-5.348 l 0,0 c 1.62,-2.71 2.434,-6.989 2.434,-12.852 l 0,0 0,-10.584 c 0,-9.575 -0.581,-15.496 -1.736,-17.77 l 0,0 c -1.177,-2.266 -3.56,-3.401 -7.208,-3.401 l 0,0 c -3.328,0 -5.47,0.903 -6.443,2.697 l 0,0 c -0.966,1.793 -1.446,6.007 -1.446,12.632 l 0,0 0,24.875 -46.778,0 0,-12.11 c 0,-14.567 1.329,-24.802 3.996,-30.701 l 0,0 c 2.659,-5.899 8.223,-10.883 16.672,-14.951 l 0,0 c 8.464,-4.069 20.102,-6.103 34.922,-6.103 l 0,0 c 13.055,0 23.748,1.751 32.089,5.254 l 0,0 c 8.347,3.493 14.211,8.601 17.611,15.32 l 0,0 c 3.399,6.713 5.099,16.15 5.099,28.327 l 0,0 c 0,16.388 -1.743,26.806 -5.216,31.252 l 0,0 c -3.473,4.445 -8.769,7.643 -15.874,9.596 l 0,0 c 7.171,3.154 12.184,6.641 15.031,10.462 l 0,0 c 2.855,3.815 4.287,10.019 4.287,18.598 l 0,0 c 0,12.684 -3.981,22.587 -11.93,29.721 l 0,0 c -7.954,7.126 -23.08,10.694 -45.389,10.694 l 0,0 c -17.836,0 -30.84,-2.58 -39.028,-7.729"
                 inkscape:connector-curvature="0" />
            </g>
          </g>
        </g>
      </g>
    </g>
    <g
       transform="matrix(0.597834,0,0,0.597834,571.98035,326.05442)"
       id="g27123">
      <g
         id="g27125"
         transform="matrix(1.25,0,0,-1.25,-947.42775,646.76064)">
        <g
           id="g27127">
          <g
             id="g27129">
            <g
               id="g27131">
              <path
                 inkscape:connector-curvature="0"
                 d="m 703.962,400.051 -486.736,0 c -24.831,-3.509 -23.959,-25.944 -23.959,-25.944 l 0,0 0,-267.185 c 0,-27.279 26.102,-26.662 26.102,-26.662 l 0,0 475.236,0 c 35.024,0 33.92,22.63 33.92,22.63 l 0,0 0,264.708 c -0.007,31.319 -21.114,32.46 -24.19,32.46 l 0,0 c -0.242,0 -0.373,-0.007 -0.373,-0.007"
                 style="fill:url(#linearGradient26858);stroke:none"
                 id="path27133" />
            </g>
          </g>
        </g>
      </g>
      <g
         id="g27135"
         transform="matrix(1.25,0,0,-1.25,-947.42775,646.76064)">
        <g
           id="g27137"
           clip-path="url(#clipPath26519)">
          <g
             id="g27139">
            <g
               id="g27141" />
            <g
               id="g27143">
              <g
                 style="opacity:0.14999402"
                 clip-path="url(#clipPath26527)"
                 id="g27145">
                <g
                   transform="translate(195.3804,277.8779)"
                   id="g27147">
                  <path
                     inkscape:connector-curvature="0"
                     d="m 0,0 0,101.998 c 0,0 1.293,18.736 22.645,22.535 l 487.935,0 c 0,0 24.591,-2.608 22.434,-29.655 l 0,-63.566 0,-13.288 0,-82.544 c 0,0 -204.411,126.663 -532.367,0"
                     style="fill:#ffffff;fill-opacity:1;fill-rule:nonzero;stroke:none"
                     id="path27149" />
                </g>
              </g>
            </g>
          </g>
        </g>
      </g>
      <g
         id="g27151"
         transform="matrix(1.25,0,0,-1.25,-947.42775,646.76064)">
        <g
           id="g27153">
          <g
             id="g27155">
            <g
               id="g27157">
              <path
                 inkscape:connector-curvature="0"
                 d="m 246.706,323.995 c 0,-31.508 24.744,-48.544 57.858,-48.544 l 0,0 c 14.283,0 25.608,2.274 31.013,4.548 l 0,0 -2.971,9.931 c -6.088,-2.412 -15.503,-3.974 -24.911,-3.974 l 0,0 c -28.398,0 -44.954,14.908 -44.954,38.468 l 0,0 c 0,25.122 18.292,39.455 45.826,39.455 l 0,0 c 9.756,0 17.951,-1.7 23.523,-3.974 l 0,0 3.829,10.076 c -4.003,1.707 -13.411,4.264 -27.876,4.264 l 0,0 c -36.418,0 -61.337,-20.16 -61.337,-50.25"
                 style="fill:url(#linearGradient26860);stroke:none"
                 id="path27159" />
            </g>
          </g>
        </g>
      </g>
      <g
         id="g27161"
         transform="matrix(1.25,0,0,-1.25,-947.42775,646.76064)">
        <g
           id="g27163">
          <g
             id="g27165">
            <g
               id="g27167">
              <path
                 inkscape:connector-curvature="0"
                 d="m 354.56,371.406 0,-94.103 c 7.847,-0.856 16.731,-1.14 27.709,-1.14 l 0,0 c 22.825,0 40.944,4.824 52.095,13.767 l 0,0 c 10.803,8.805 16.899,21.576 16.899,37.189 l 0,0 c 0,15.473 -6.096,26.684 -16.724,34.493 l 0,0 c -10.28,7.803 -25.79,11.776 -47.57,11.776 l 0,0 c -12.017,0 -23.001,-0.849 -32.409,-1.982 m 30.665,-85.304 c -5.914,0 -11.493,0 -15.329,0.566 l 0,0 0,75.656 c 4.011,0.705 9.932,1.271 17.777,1.271 l 0,0 c 32.053,0 47.745,-14.049 47.571,-36.898 l 0,0 c 0,-25.709 -17.438,-40.597 -49.549,-40.596 l 0,0 c -0.155,0 -0.314,0 -0.47,10e-4"
                 style="fill:url(#linearGradient26862);stroke:none"
                 id="path27169" />
            </g>
          </g>
        </g>
      </g>
      <g
         id="g27171"
         transform="matrix(1.25,0,0,-1.25,-947.42775,646.76064)">
        <g
           id="g27173">
          <g
             id="g27175">
            <g
               id="g27177">
              <path
                 inkscape:connector-curvature="0"
                 d="m 544.659,372.684 0,-40.168 c 0,-14.762 0.349,-26.4 1.736,-39.179 l 0,0 -0.515,-0.138 c -5.398,9.932 -12.373,19.87 -20.916,31.079 l 0,0 -37.457,48.406 -16.731,0 0,-95.67 14.29,0 0,40.879 c 0,15.895 -0.175,27.396 -1.047,39.462 l 0,0 0.531,0.138 c 5.739,-10.359 13.585,-21.286 21.78,-31.936 l 0,0 37.283,-48.543 15.336,0 0,95.67 -14.29,0 z"
                 style="fill:url(#linearGradient26864);stroke:none"
                 id="path27179" />
            </g>
          </g>
        </g>
      </g>
      <g
         id="g27181"
         transform="matrix(1.25,0,0,-1.25,-947.42775,646.76064)">
        <g
           id="g27183">
          <g
             id="g27185">
            <g
               id="g27187">
              <path
                 inkscape:connector-curvature="0"
                 d="m 659.305,372.684 0,-40.168 c 0,-14.762 0.349,-26.4 1.744,-39.179 l 0,0 -0.524,-0.138 c -5.405,9.932 -12.371,19.87 -20.907,31.079 l 0,0 -37.458,48.406 -16.731,0 0,-95.67 14.283,0 0,40.879 c 0,15.895 -0.174,27.396 -1.039,39.462 l 0,0 0.516,0.138 c 5.753,-10.359 13.592,-21.286 21.78,-31.936 l 0,0 37.297,-48.543 15.322,0 0,95.67 -14.283,0 z"
                 style="fill:url(#linearGradient26866);stroke:none"
                 id="path27189" />
            </g>
          </g>
        </g>
      </g>
      <g
         id="g27191"
         transform="matrix(1.25,0,0,-1.25,-947.42775,646.76064)">
        <g
           id="g27193">
          <g
             id="g27195">
            <g
               id="g27197">
              <path
                 inkscape:connector-curvature="0"
                 d="m 377.786,263.021 c -6.8,-2.462 -12.328,-6.081 -16.565,-10.868 l 0,0 c -4.256,-4.788 -6.923,-9.647 -8.004,-14.587 l 0,0 c -1.076,-4.948 -1.621,-11.704 -1.621,-20.262 l 0,0 0,-5.573 41.997,0 0,14.559 c 0,6.749 0.866,11.253 2.602,13.52 l 0,0 c 1.751,2.274 4.402,3.407 7.963,3.407 l 0,0 c 3.559,0 6.21,-1.023 7.954,-3.073 l 0,0 c 1.744,-2.048 2.608,-5.158 2.608,-9.313 l 0,0 c 0,-5.428 -2.876,-12.975 -8.637,-22.651 l 0,0 c -5.761,-9.686 -23.909,-34.886 -54.443,-75.613 l 0,0 -0.044,-21.889 102.95,0 0,26.153 -51.231,0 c 26.255,31.697 42.07,52.423 47.431,62.193 l 0,0 c 5.361,9.765 8.057,19.028 8.057,27.789 l 0,0 c 0,11.529 -4.78,21.061 -14.311,28.594 l 0,0 c -9.546,7.526 -23.632,11.297 -42.245,11.297 l 0,0 c -9.51,0 -17.655,-1.235 -24.461,-3.683"
                 style="fill:url(#linearGradient26868);stroke:none"
                 id="path27199" />
            </g>
          </g>
        </g>
      </g>
      <g
         id="g27201"
         transform="matrix(1.25,0,0,-1.25,-947.42775,646.76064)">
        <g
           id="g27203">
          <g
             id="g27205">
            <g
               id="g27207">
              <path
                 inkscape:connector-curvature="0"
                 d="m 483.656,259.15 c -8.18,-5.152 -12.27,-15.053 -12.27,-29.715 l 0,0 0,-13.076 46.778,0 0,12.62 c 0,5.883 0.596,9.734 1.794,11.535 l 0,0 c 1.201,1.802 3.43,2.703 6.678,2.703 l 0,0 c 2.862,0 4.975,-0.85 6.327,-2.557 l 0,0 c 1.351,-1.7 2.034,-5.238 2.034,-10.599 l 0,0 0,-8.523 c 0,-4.989 -0.581,-8.651 -1.736,-10.983 l 0,0 c -1.163,-2.332 -3.052,-3.851 -5.675,-4.55 l 0,0 c -2.622,-0.689 -9.48,-1.037 -20.588,-1.037 l 0,0 0,-22.238 c 9.094,-0.123 15.234,-0.61 18.395,-1.459 l 0,0 c 3.161,-0.858 5.55,-2.638 7.17,-5.348 l 0,0 c 1.62,-2.71 2.434,-6.989 2.434,-12.852 l 0,0 0,-10.584 c 0,-9.575 -0.581,-15.496 -1.736,-17.77 l 0,0 c -1.177,-2.266 -3.56,-3.401 -7.208,-3.401 l 0,0 c -3.328,0 -5.47,0.903 -6.443,2.697 l 0,0 c -0.966,1.793 -1.446,6.007 -1.446,12.632 l 0,0 0,24.875 -46.778,0 0,-12.11 c 0,-14.567 1.329,-24.802 3.996,-30.701 l 0,0 c 2.659,-5.899 8.223,-10.883 16.672,-14.951 l 0,0 c 8.464,-4.069 20.102,-6.103 34.922,-6.103 l 0,0 c 13.055,0 23.748,1.751 32.089,5.254 l 0,0 c 8.347,3.493 14.211,8.601 17.611,15.32 l 0,0 c 3.399,6.713 5.099,16.15 5.099,28.327 l 0,0 c 0,16.388 -1.743,26.806 -5.216,31.252 l 0,0 c -3.473,4.445 -8.769,7.643 -15.874,9.596 l 0,0 c 7.171,3.154 12.184,6.641 15.031,10.462 l 0,0 c 2.855,3.815 4.287,10.019 4.287,18.598 l 0,0 c 0,12.684 -3.981,22.587 -11.93,29.721 l 0,0 c -7.954,7.126 -23.08,10.694 -45.389,10.694 l 0,0 c -17.836,0 -30.84,-2.58 -39.028,-7.729"
                 style="fill:url(#linearGradient26870);stroke:none"
                 id="path27209" />
            </g>
          </g>
        </g>
      </g>
    </g>
  </g>
</svg>
