<svg xmlns="http://www.w3.org/2000/svg" width="400" height="272.968"><g fill="#de2516"><path d="M306.15 133.688L302.07 90.63l-3.9 43.058h7.977zm34.553 58.227h-27.325l-4.817-38.542H295.77l-4.83 38.542h-27.32l20.858-143.52h35.37l20.857 143.52zm-85.765-20.912c0 5.605-2.412 10.593-7.236 14.965-5.55 5.057-12.73 7.585-21.536 7.585-9.408 0-17.006-2.117-22.796-6.352-6.277-4.644-9.408-11.14-9.408-19.48V75.255c0-9.154 2.29-15.924 6.873-20.295 5.31-5.058 13.75-7.586 25.33-7.586 10.012 0 17.494 2.528 22.44 7.585 4.222 4.37 6.333 10.318 6.333 17.834V94.66h-25.154V70.15c0-1.234-.315-2.13-.946-2.68-.63-.555-1.644-.83-3.028-.83-1.39 0-2.433.275-3.125.824-.698.555-1.04 1.445-1.04 2.68v100.023c0 1.103.41 1.96 1.232 2.577.816.616 1.795.925 2.933.925 1.384 0 2.398-.31 3.028-.926.63-.624.946-1.48.946-2.584v-32.12h25.154v32.963zm-70.02 20.912H130.45V48.395h54.104V66.64H158.14v38.756h23.88v17.63h-23.88v50.643h26.777v18.245zm-64.957-20.912c0 5.605-2.418 10.593-7.235 14.965-5.55 5.057-12.73 7.585-21.535 7.585-9.408 0-17.007-2.117-22.797-6.352-6.276-4.644-9.407-11.14-9.407-19.48V75.255c0-9.154 2.288-15.924 6.872-20.295 5.31-5.058 13.752-7.586 25.332-7.586 10.01 0 17.486 2.528 22.433 7.585 4.228 4.37 6.338 10.318 6.338 17.834v21.063H94.81V70.15c0-1.234-.316-2.13-.946-2.68-.63-.555-1.644-.83-3.03-.83-1.39 0-2.43.275-3.123.824-.7.555-1.043 1.445-1.043 2.68v100.023c0 1.103.412 1.96 1.227 2.577.822.616 1.802.925 2.94.925 1.384 0 2.398-.31 3.028-.926.63-.624.946-1.48.946-2.584v-28.935h25.153v29.778z"/><path d="M370.687 82.343l27.854.02V42.63L360.26-.01H42.622L-.003 44.57v150.138l41.94 48.02h315.45L400 200.113v-49.17h-28.716v35.11l-25.38 27.134H52.88L25.53 183.766V54.496l29.785-29.784H345.15l25.668 25.79-.13 31.84zM355.11 263.005h5.282v4.954h-5.283v-4.955zm-9.23-1.83l-1.967-6.406-1.946 6.406h3.912zm1.137 3.85h-6.25l-.863 2.94h-5.625l6.693-17.814h6.01l6.694 17.816h-5.77l-.89-2.94zm-19.55-2.02h5.284v4.954h-5.282v-4.955zm-18.616-.932l5.236-.33c.117.85.343 1.502.692 1.947.57.72 1.378 1.076 2.433 1.076.782 0 1.392-.178 1.816-.548.425-.37.638-.795.638-1.282 0-.465-.2-.877-.61-1.24-.404-.363-1.343-.712-2.816-1.034-2.412-.542-4.14-1.26-5.167-2.166-1.033-.897-1.554-2.04-1.554-3.432 0-.92.267-1.782.802-2.597.527-.816 1.322-1.453 2.39-1.92 1.063-.465 2.522-.698 4.38-.698 2.274 0 4.015.424 5.207 1.267 1.192.85 1.905 2.192 2.13 4.043l-5.186.3c-.138-.8-.426-1.383-.87-1.746-.44-.363-1.05-.548-1.83-.548-.638 0-1.118.137-1.447.404-.322.274-.486.603-.486.993 0 .28.137.542.404.76.262.24.87.46 1.844.66 2.412.52 4.132 1.047 5.174 1.575 1.04.527 1.795 1.185 2.274 1.973.473.79.706 1.666.706 2.64 0 1.143-.315 2.192-.945 3.158-.63.966-1.515 1.692-2.652 2.192-1.13.5-2.562.747-4.288.747-3.03 0-5.126-.582-6.29-1.747-1.165-1.165-1.83-2.652-1.98-4.447m-15.945.98h5.29v4.07c0 1.5-.316 2.686-.94 3.55-.623.87-1.685 1.637-3.192 2.295l-1.158-2.16c.94-.437 1.59-.876 1.94-1.307.355-.43.547-.945.588-1.534h-2.528v-4.913zm-16.28-12.902h5.502v13.43h8.59v4.386h-14.093V250.15zm-9.545 11.026l-1.967-6.407-1.946 6.406h3.912zm1.144 3.85h-6.25l-.87 2.94h-5.618l6.695-17.815h6.002l6.694 17.816h-5.77l-.884-2.94zm-20.42-14.875h5.517v17.816h-5.516V250.15zm-7.714 10.525l4.824 1.46c-.322 1.35-.836 2.48-1.535 3.385-.69.91-1.554 1.596-2.59 2.055-1.034.46-2.35.692-3.946.692-1.932 0-3.515-.28-4.74-.843-1.228-.56-2.29-1.555-3.18-2.966-.89-1.42-1.337-3.235-1.337-5.44 0-2.947.788-5.215 2.35-6.798 1.57-1.583 3.79-2.37 6.654-2.37 2.248 0 4.01.45 5.29 1.356 1.29.91 2.24 2.302 2.865 4.18l-4.858 1.082c-.172-.54-.35-.938-.535-1.185-.308-.425-.685-.747-1.13-.973-.446-.226-.946-.343-1.494-.343-1.247 0-2.207.5-2.87 1.508-.5.74-.755 1.91-.755 3.508 0 1.973.302 3.323.898 4.056.604.732 1.446 1.096 2.53 1.096 1.054 0 1.85-.295 2.39-.884.535-.596.925-1.453 1.172-2.577m-25.167-3.302h2.323c.253 0 .74-.083 1.46-.247.362-.075.664-.26.89-.562.233-.294.35-.644.35-1.028 0-.575-.186-1.02-.55-1.33-.362-.3-1.047-.458-2.054-.458h-2.42v3.625zm-5.523 10.593V250.15h9.168c1.706 0 3 .15 3.906.44.897.294 1.624.828 2.172 1.623.548.788.83 1.747.83 2.885 0 .987-.214 1.843-.638 2.556-.418.72-1 1.3-1.734 1.747-.473.282-1.117.515-1.94.7.66.22 1.138.438 1.44.658.2.15.493.46.877.938.384.48.644.85.774 1.103l2.666 5.166H220.7l-2.938-5.447c-.377-.7-.706-1.16-1-1.372-.398-.274-.844-.41-1.35-.41h-.487v7.228h-5.523zm-18.055-17.815h14.746v3.804h-9.23v2.83h8.565v3.638h-8.565v3.508h9.497v4.036h-15.013V250.15zm-23.536 0h7.237l2.788 10.84 2.775-10.84h7.236v17.816h-4.51v-13.588l-3.472 13.588h-4.077l-3.467-13.588v13.588h-4.51V250.15zm-15.854 8.943c0 1.802.328 3.09 1 3.878.665.79 1.576 1.18 2.727 1.18 1.185 0 2.097-.384 2.748-1.152.645-.774.974-2.15.974-4.145 0-1.68-.343-2.906-1.014-3.68-.68-.774-1.597-1.158-2.755-1.158-1.11 0-2 .39-2.672 1.18-.672.787-1.007 2.09-1.007 3.898m-5.51-.02c0-2.913.816-5.174 2.433-6.798 1.616-1.617 3.877-2.426 6.77-2.426 2.96 0 5.247.794 6.85 2.384 1.604 1.596 2.406 3.823 2.406 6.687 0 2.084-.35 3.79-1.05 5.126-.704 1.33-1.712 2.37-3.04 3.11-1.323.74-2.975 1.11-4.948 1.11-2.014 0-3.673-.32-4.988-.958-1.323-.637-2.385-1.65-3.207-3.035-.815-1.385-1.226-3.118-1.226-5.2m-6.804 1.602l4.823 1.46c-.322 1.35-.836 2.48-1.528 3.385-.7.91-1.562 1.596-2.597 2.055-1.026.46-2.342.692-3.938.692-1.94 0-3.522-.28-4.75-.843-1.225-.56-2.28-1.555-3.17-2.966-.892-1.42-1.337-3.235-1.337-5.44 0-2.947.78-5.215 2.35-6.798 1.562-1.583 3.782-2.37 6.653-2.37 2.24 0 4.002.45 5.29 1.356 1.28.91 2.234 2.302 2.857 4.18l-4.858 1.082c-.17-.54-.35-.94-.534-1.185-.31-.425-.686-.747-1.13-.973-.446-.226-.947-.343-1.495-.343-1.247 0-2.2.5-2.864 1.508-.507.74-.754 1.91-.754 3.508 0 1.973.295 3.323.898 4.056.596.732 1.44 1.096 2.528 1.096 1.05 0 1.844-.295 2.385-.884.542-.596.933-1.453 1.173-2.577M118.32 250.15h5.515v17.816h-5.516V250.15zm-19.44 0h16.733v4.4h-5.62v13.416h-5.5V254.55H98.88v-4.4zm-14.08 0h5.502v13.43h8.592v4.386H84.8V250.15zm-9.14 0h5.494v10.614c0 1.056-.164 2.05-.493 2.98-.328.94-.842 1.755-1.54 2.454-.706.7-1.44 1.192-2.207 1.473-1.07.4-2.357.597-3.85.597-.87 0-1.816-.06-2.837-.185-1.028-.116-1.885-.356-2.57-.72-.692-.362-1.322-.87-1.89-1.534-.57-.665-.967-1.35-1.173-2.056-.342-1.13-.514-2.13-.514-3.008V250.15h5.495v10.868c0 .973.267 1.727.808 2.275.535.548 1.28.822 2.24.822.946 0 1.693-.274 2.228-.81.542-.54.81-1.3.81-2.287V250.15zm-35.138 0h7.236l2.796 10.84 2.768-10.84h7.235v17.816H56.05v-13.588l-3.475 13.588h-4.077l-3.467-13.588v13.588h-4.508V250.15z"/></g></svg>