<svg xmlns="http://www.w3.org/2000/svg" xmlns:xlink="http://www.w3.org/1999/xlink" width="400" height="348.888"><defs><linearGradient id="a" gradientTransform="scale(48.6784) rotate(-36.7 22.592 5.552)" gradientUnits="userSpaceOnUse" x2="1"><stop offset="0" stop-color="#00a650"/><stop offset=".997" stop-color="#0e3c22"/><stop offset="1" stop-color="#0e3c22"/></linearGradient><linearGradient id="b" gradientTransform="matrix(46.8262 0 0 -46.8262 88.977 645.74)" gradientUnits="userSpaceOnUse" x2="1"><stop offset="0" stop-color="#1c63ab"/><stop offset=".506" stop-color="#1f2e76"/><stop offset=".997" stop-color="#1c63a6"/><stop offset="1" stop-color="#1c63a6"/></linearGradient><linearGradient id="c" gradientTransform="matrix(60.6348 0 0 -60.6348 87.682 625.23)" gradientUnits="userSpaceOnUse" x2="1"><stop offset="0" stop-color="#1c63ab"/><stop offset=".506" stop-color="#1f2e76"/><stop offset=".997" stop-color="#1c63a6"/><stop offset="1" stop-color="#1c63a6"/></linearGradient><linearGradient xlink:href="#a" id="d" gradientUnits="userSpaceOnUse" gradientTransform="scale(253.39896) rotate(36.7 -3.544 2.534)" x2="1"/><linearGradient xlink:href="#b" id="e" gradientUnits="userSpaceOnUse" gradientTransform="translate(375.018 1002.75) scale(243.75735)" x2="1"/><linearGradient xlink:href="#c" id="f" gradientUnits="userSpaceOnUse" gradientTransform="translate(368.276 1109.51) scale(315.63893)" x2="1"/></defs><path d="M143.112 47.688L156.46 59.64 197 22.623l.135-.13.458.448L173.923 0 54.507 107.714H86.47s3.732 3.17 9.406 8l-.42-.358 42.273-38.61c-7.268-7.262-12.78-12.785-12.78-12.785L143.11 47.69z" fill="#f2f368"/><path d="M524.11 247.854l37.937 36.564 11.93-11.37 17.398 16.28-11.993 11.81 42.425 40.895h49.807l-61.998-58.115-61.993-58.1-23.514 22.036z" fill="url(#d)" transform="translate(-326.975 -225.363)"/><path d="M235.07 59.058l-22.43 21.374 22.43-21.374zM213.43 213.592l-.323-.1.323.1z" fill="#f9ad35"/><path d="M197.592 22.938l-.458-.447-.135.13-40.542 37.023.458.41.067.064 22.67 20.312s5.342 7.63 16.018 7.63c10.652 0 16.966-7.63 16.966-7.63l22.436-21.37-37.48-36.122zm-2.582 50.474c-7.83 0-14.185-6.252-14.185-13.988 0-7.735 6.356-13.992 14.185-13.992 7.85 0 14.206 6.257 14.206 13.992 0 7.736-6.356 13.988-14.206 13.988M294.83 116.668l-42.42-40.89-35.82 35.29s-1.697 2.107-2.602 5.6c-.328 1.27-.557 2.713-.557 4.31v92.613c28.423 8.143 53.233-23.695 68.204-51.347 8.402-15.56 20.463-23.79 31.29-28.13l-18.094-17.445zM175.514 120.98s.17-1.977-.292-4.31c-.38-1.92-1.18-4.085-2.873-5.605-2.37-2.124-20.73-20.427-33.884-33.582l-.318-.312-.422-.426-42.274 38.61.422.36c15.694 13.378 48.6 41.57 79.775 69.18l-.136-.124v-63.79z" fill="#f9ad35"/><path d="M172.596 2.625l21.67 20.89 1.333-1.208-21.677-20.884-1.327 1.202zM170.11 4.874l21.734 20.85 1.338-1.225-21.676-20.89-1.396 1.264zM167.675 6.987l21.74 20.948 1.337-1.22L169.07 5.812l-1.395 1.177zM165.246 9.28l21.743 20.86 1.337-1.214-21.68-20.905-1.4 1.26zM162.86 11.443l21.702 20.9 1.348-1.223-21.696-20.895-1.354 1.218zM160.474 13.693l21.67 20.858 1.333-1.227-21.702-20.89-1.3 1.26zM157.952 15.886l21.76 20.874 1.343-1.223-21.702-20.92-1.4 1.27zM155.523 18.086l21.765 20.885 1.338-1.222-21.702-20.922-1.4 1.26zM153.1 20.287l21.765 20.89 1.328-1.22-21.697-20.915-1.395 1.245zM150.664 22.492l21.812 20.927 1.306-1.26-21.712-20.922-1.406 1.254zM148.236 24.692l21.78 20.895 1.333-1.213-21.714-20.92-1.4 1.238zM145.8 26.898l21.796 20.895 1.338-1.218-21.728-20.942-1.406 1.265zM143.378 29.09l21.78 20.912 1.343-1.218-21.727-20.926-1.395 1.233zM140.955 31.29l21.785 20.922 1.35-1.228-21.745-20.927-1.39 1.234zM138.52 33.497l21.795 20.92 1.332-1.217-21.723-20.968-1.405 1.265zM136.17 35.628l21.714 20.995 1.343-1.22-21.734-20.935-1.322 1.16zM111.812 57.652l21.817 21.052 1.352-1.23-21.79-20.983-1.38 1.162zM109.364 59.858l21.843 21.046 1.338-1.218-21.78-20.994-1.4 1.166zM106.942 62.07l21.842 21.046 1.338-1.224-21.785-20.983-1.395 1.16zM104.506 64.264l21.863 21.05 1.32-1.207-21.78-20.994-1.404 1.15zM102.077 66.47l21.864 21.056 1.323-1.213-21.786-21.015-1.4 1.17zM99.648 68.67l21.863 21.062 1.344-1.23-21.806-20.998-1.4 1.166zM97.225 70.863l21.863 21.073 1.338-1.22L98.62 69.71l-1.395 1.155zM94.796 73.087l21.864 21.056 1.343-1.218L96.19 71.92l-1.394 1.167zM92.367 75.28l21.863 21.078 1.338-1.218-21.806-21.093-1.395 1.233zM89.932 77.493l21.873 21.067 1.364-1.192-21.838-21.05-1.4 1.175zM87.508 79.68l21.87 21.09 1.342-1.224-21.843-21.073-1.37 1.208zM85.136 81.95l21.822 21.024 1.333-1.213-21.816-21.035-1.338 1.224zM82.644 84.093l21.884 21.088 1.338-1.212L84.04 82.854l-1.396 1.24zM80.216 86.293l21.895 21.098 1.338-1.217L81.61 85.127l-1.394 1.166zM77.793 88.518L99.677 109.6l1.343-1.218-21.884-21.088-1.343 1.224zM75.35 90.704l21.912 21.093 1.337-1.212-21.86-21.12-1.39 1.24zM72.92 92.898l21.91 21.114 1.34-1.218-21.854-21.13-1.395 1.234zM71.868 93.883l-1.374 1.228 13.087 12.604h2.604l-14.316-13.83zM69.403 96.12l-1.338 1.193 10.807 10.4h2.603L69.403 96.122zM67.017 98.278l-1.375 1.25 8.5 8.187h2.63l-9.755-9.437zM64.568 100.495l-1.363 1.23 6.225 5.99h2.608l-7.47-7.22zM58.347 106.127l1.65 1.588h2.597l-2.92-2.785-1.327 1.197zM60.797 103.934l3.92 3.78h2.603l-5.263-4.946-1.26 1.166z" fill="#f68712"/><path d="M197.66 23.837l-1.046.968 36.595 36.028 1.202-1.15-36.752-35.846zM196.074 25.3l-1.624 1.493 36.62 36.075 1.615-1.536-36.61-36.033zM193.88 27.313l-1.67 1.53 36.683 36.1 1.64-1.56-36.653-36.07zM191.693 29.32l-1.67 1.53 36.72 36.138 1.633-1.55-36.683-36.117zM165.376 53.358l-1.665 1.525 33.608 33.102c.978-.068 1.91-.213 2.81-.395l-34.752-34.232zM196.353 88.028l-33.17-32.67-1.666 1.525 31.458 30.99c.864.103 1.75.186 2.696.186l.683-.032zM161.02 57.367l-1.698 1.51 27.746 27.334c1.39.64 2.972 1.172 4.747 1.5L161.02 57.367zM184.864 85.035L158.8 59.355l-1.317 1.21 22.17 19.863s1.74 2.483 5.21 4.607M270.31 180.742c.432-.624.87-1.26 1.296-1.89l-58.178-57.334v3.18l56.882 56.044zM268.57 183.196c.447-.62.89-1.24 1.326-1.864l-56.464-55.668v3.196l55.137 54.336zM266.784 185.607c.458-.61.91-1.208 1.364-1.822l-54.716-53.92v3.15l53.352 52.592zM264.95 187.986c.473-.593.936-1.197 1.394-1.806l-52.914-52.16v3.18l51.52 50.786zM263.078 190.31c.48-.59.963-1.172 1.427-1.765l-51.072-50.37v3.187l49.645 48.948zM261.157 192.578c.49-.568.98-1.146 1.468-1.73l-49.192-48.494v3.18l47.724 47.044zM259.16 194.802l1.526-1.69-47.256-46.586v3.175l45.73 45.102zM257.136 196.958l1.557-1.64-45.263-44.632v3.18l43.706 43.092zM255.017 199.07l1.62-1.602-43.207-42.603v3.202l41.587 41.004zM175.34 117.3L136.88 79.38l-1.68 1.546 40.327 39.766c.03-.552.047-1.853-.187-3.39M134.677 81.397l-1.66 1.52 42.498 41.905v-3.165l-40.838-40.26zM252.854 201.092l1.66-1.536-41.082-40.51v3.176l39.422 38.87zM132.478 83.386l-1.65 1.505 44.684 44.07v-3.138l-43.034-42.436zM250.61 203.037c.58-.48 1.146-.968 1.713-1.468l-38.89-38.35v3.154l37.178 36.663zM248.275 204.915c.598-.458 1.197-.93 1.79-1.41l-36.637-36.122v3.165l34.847 34.367zM130.277 85.376l-1.65 1.536 46.887 46.24v-3.17l-45.237-44.606zM245.85 206.7c.626-.432 1.24-.885 1.855-1.354l-34.274-33.794v3.175l32.42 31.973zM128.072 87.395l-1.65 1.52 49.094 48.412v-3.16l-47.444-46.772zM243.305 208.373c.65-.406 1.296-.832 1.942-1.264l-31.817-31.38v3.164l29.875 29.48zM125.904 89.367l-1.65 1.535 51.26 50.578v-3.165l-49.61-48.948zM123.684 91.374l-1.63 1.52 53.457 52.748v-3.144l-51.826-51.124zM240.653 209.916c.682-.364 1.348-.75 2.025-1.15l-29.245-28.855v3.15l27.22 26.856zM121.553 93.388l-1.718 1.54 55.68 54.91v-3.197L121.552 93.39zM237.85 211.33c.72-.33 1.433-.683 2.146-1.052l-26.564-26.216v3.18l24.42 24.087zM119.316 95.376l-1.686 1.515 57.886 57.1v-3.164l-56.2-55.45zM234.884 212.568c.76-.286 1.52-.588 2.27-.92l-23.722-23.406v3.165l21.452 21.16zM117.128 97.366l-1.687 1.54 60.074 59.266v-3.19l-58.386-57.616zM231.68 213.59c.838-.213 1.65-.463 2.462-.75l-20.713-20.436v3.186l18.25 18zM114.892 99.373l-1.66 1.536 62.284 61.446v-3.176l-60.624-59.807zM228.248 214.39c.89-.156 1.77-.338 2.65-.562l-17.465-17.24v3.18l14.815 14.622zM224.48 214.83c.978-.057 1.952-.15 2.915-.292l-13.962-13.78v3.177l11.046 10.895zM112.723 101.394l-1.682 1.535 64.472 63.596v-3.186l-62.79-61.946zM110.554 103.395l-1.697 1.463 66.657 65.81v-3.16l-64.96-64.113zM220.222 214.805c1.104.083 2.202.104 3.285.068l-10.078-9.938v3.165l6.792 6.705zM215.24 214.06c1.297.297 2.583.516 3.868.65l-5.68-5.595v3.16l1.813 1.786zM108.305 105.372l-1.65 1.55 68.86 67.94v-3.166l-67.21-66.324zM106.148 107.392l-1.68 1.536 71.045 70.103v-3.17l-69.365-68.468zM208.88 211.962l.136.057-.156-.08.02.022zM211.66 213.025l-.59-.203.59.203zM213.43 213.583l.437.14-.437-.437v.297zM200.092 206.85l-.948-.708.948.708zM201.506 207.84l-.947-.657.946.656zM198.695 205.796l-.978-.786.978.786zM197.084 204.498l.208.167-.26-.214.052.048zM205.953 210.537l-.708-.385.708.385zM206.937 211.048l-.016-.02-.332-.157.35.178zM103.93 109.362l-1.65 1.557 73.232 72.283v-3.175l-71.582-70.666zM204.598 209.792l-.853-.51.853.51zM203.235 208.982l-1.286-.833 1.285.832zM175.514 184.194l-73.763-72.81-1.67 1.524 51.436 50.776c8.74 7.63 17.725 15.528 26.543 23.352-.85-.755-1.693-1.51-2.546-2.265v-.576zM97.876 114.89l19.25 19.022c7.772 6.684 16.565 14.268 25.82 22.31L99.52 113.387l-1.644 1.505zM96.48 116.216c2.817 2.405 5.758 4.925 9.548 8.173l-8.886-8.788-.66.614zM197.715 45.692l.66.157.517.13.838.26.25.093.93.374-13.6-13.383-1.677 1.536 10.812 10.645.182.026 1.088.162zM195.008 45.432l.385.026-10.28-10.12-1.677 1.53 8.96 8.813 1.28-.18 1.332-.07zM190.36 46.22l1.214-.355-8.657-8.52-1.67 1.524 7.932 7.807 1.15-.453.03-.005zM187.54 47.545l.974-.552-7.777-7.658-1.68 1.53 7.48 7.36.94-.644.064-.035zM185.96 48.655l-7.422-7.314-1.66 1.526 7.464 7.356c.505-.562 1.036-1.093 1.62-1.567M176.344 43.35l-1.666 1.52 7.918 7.793c.375-.667.807-1.296 1.286-1.89l-7.538-7.423zM181.77 54.442l.48-1.103.005-.006-8.105-7.98-1.67 1.52 8.89 8.76v-.01l.386-1.145.015-.037zM181.164 56.412l-9.203-9.057-1.67 1.52 10.546 10.395c.005-.978.125-1.936.328-2.852v-.005zM169.77 49.348l-1.672 1.53 13.638 13.436c-.478-1.265-.775-2.62-.87-4.03L169.77 49.35z" fill="#be5c1b"/><path d="M203.746 209.282l-.51-.302.51.302zM205.245 210.153l-.645-.36.645.36zM211.07 212.822c-.683-.25-1.365-.51-2.052-.807.687.297 1.37.557 2.05.807M213.43 213.59v-.004c-.587-.167-1.18-.35-1.77-.557.59.207 1.183.394 1.77.56M197.717 205.01l-.422-.345.422.344zM200.56 207.183l-.468-.333.468.333zM201.947 208.148l-.442-.307.442.308zM199.145 206.143l-.448-.35.448.35zM206.59 210.87l-.635-.333.635.333zM224.59 69.05l1.046-1-1.046 1zM222.44 71.092l.566-.54-.567.54zM220.29 73.144l1.644-1.566-1.645 1.566zM215.998 77.235l.77-.74-.77.74zM214.48 78.677l1.004-.957-1.004.957zM211.744 81.37l.01-.01-.01.01zM212.638 80.43l.692-.656-.692.656zM209.476 83.306l.01-.005-.01.006zM210.418 82.557l.03-.026-.03.027zM207.69 84.524l.302-.182-.302.182zM204.126 86.366h.005-.004zM205.072 85.944l.245-.11-.245.11zM201.97 87.125l.344-.11-.343.11zM203.4 86.647v-.005.005zM200.96 87.41h.004-.005zM196.625 45.53l-.177-.025.177.026zM199.73 46.238l-.837-.26.838.26zM200.91 46.707l-.93-.375.93.375zM198.377 45.85l-.66-.162.66.162zM195.393 45.456l-.385-.026.385.026zM192.394 45.68l1.286-.18-1.286.18zM189.175 46.68l1.15-.454-1.15.453zM190.36 46.22l1.214-.354-1.213.354zM186.538 48.225l.942-.64-.942.64zM187.54 47.546l.974-.552-.973.552zM185.96 48.655c-.582.474-1.113 1.005-1.618 1.567.505-.562 1.036-1.093 1.62-1.567M183.88 50.773c-.48.594-.912 1.218-1.282 1.89.37-.66.802-1.296 1.28-1.89M181.37 55.627l.386-1.145-.385 1.145zM181.773 54.442l.474-1.098-.474 1.098zM181.164 56.42c-.203.915-.322 1.867-.328 2.85.005-.983.125-1.935.328-2.85M180.868 60.286c.093 1.41.39 2.764.87 4.03-.48-1.266-.777-2.62-.87-4.03M186.187 70.362l-.307-.235.307.235zM182.565 66.136l-.026-.042.025.042zM183.395 67.438l-.22-.312.22.312zM184.163 68.427l-.24-.292.24.292zM185.006 69.34l-.057-.067.056.067z" fill="#fff"/><path d="M132.632 38.864l-1.4 1.166 9.85 9.484 1.347-1.207-9.798-9.443zM156.842 57.627l-21.774-20.952-1.474 1.286 20.448 19.527 1.4 1.358 1.4-1.218zM130.204 41.076l-1.41 1.16 9.843 9.47 1.343-1.203-9.776-9.427zM127.756 43.275l-1.385 1.172 9.814 9.448 1.343-1.203-9.77-9.417zM125.34 45.475l-1.396 1.172 9.802 9.437 1.348-1.218-9.755-9.39zM122.917 47.67l-1.406 1.17 9.788 9.433 1.358-1.218-9.74-9.386zM120.493 49.88l-1.406 1.167 9.77 9.412 1.355-1.21-9.72-9.37zM118.058 52.068l-1.405 1.192 9.76 9.39 1.354-1.217-9.71-9.365z" fill="#f68712"/><path d="M197.262 204.648l-.73-.63.73.63zM200.195 206.922c-.676-.494-1.358-1.02-2.045-1.562.687.547 1.37 1.068 2.045 1.562M195.608 203.22l-.708-.64.708.64zM192.17 199.95l-.552-.553.552.552zM206.19 210.664l-1.19-.64 1.19.64zM204.598 209.792l-1.098-.65 1.098.65zM203 208.823l-1.045-.677 1.046.677zM201.4 207.773l-1.016-.713 1.015.713zM193.922 201.673l-.66-.635.66.635zM182.865 191.3l-.208-.187.208.188z" fill="#f9ad35"/><path d="M201.956 208.148l-.557-.375.556.375zM189.97 197.646c-2.342-2.097-4.716-4.22-7.106-6.345 2.39 2.135 4.764 4.25 7.106 6.346M200.382 207.06l-.188-.14.188.14zM203.503 209.14l-.5-.316.5.317zM205.002 210.022l-.4-.23.4.23zM206.356 210.753l-.162-.09.162.09zM194.9 202.577l-.978-.905.98.905zM193.26 201.036l-1.093-1.088 1.094 1.088zM182.658 191.115c-2.316-2.07-4.66-4.143-7.006-6.22 2.347 2.077 4.69 4.15 7.006 6.22M191.62 199.394c-.548-.562-1.105-1.145-1.65-1.75.545.605 1.102 1.188 1.65 1.75M196.53 204.02l-.92-.8.92.8zM198.152 205.36l-.89-.713.89.713z" fill="#fff"/><path d="M138.146 77.17l-.422-.428.422.427z" fill="#f2f368"/><path d="M247.004 47.688l-11.936 11.37-22.43 21.373s-6.315 7.627-16.966 7.627c-10.676 0-16.017-7.626-16.017-7.626l-22.67-20.31-.068-.064-.458-.416-13.348-11.952L124.95 63.96s5.512 5.524 12.774 12.785l.42.427.32.307c13.153 13.16 31.514 31.462 33.882 33.586 1.692 1.52 2.5 3.68 2.88 5.6.462 2.338.285 4.316.285 4.316v63.79l.142.124c2.347 2.072 4.69 4.15 7.006 6.22l.203.183c2.396 2.128 4.77 4.247 7.112 6.345.542.604 1.104 1.187 1.645 1.75l.552.556 1.092 1.084.66.64.98.906.708.64.92.802.735.624.885.713c.687.54 1.37 1.067 2.046 1.56l.187.142 1.015.708.557.38 1.047.676.505.318 1.093.65.406.23 1.187.64.16.088c2.38 1.234 4.743 2.176 7.075 2.837V120.98c0-1.598.23-3.045.563-4.315.9-3.493 2.603-5.6 2.603-5.6l35.815-35.29 11.988-11.817-17.392-16.272z" fill="#fff"/><path d="M195.01 73.41c7.85 0 14.205-6.252 14.205-13.987 0-7.73-6.356-13.993-14.206-13.993-7.825 0-14.187 6.262-14.187 13.993 0 7.735 6.362 13.987 14.186 13.987" fill="#fff"/><path d="M374.886 403.34s1.978 50.274 52.935 54.538c50.954 4.253 52.932 13.805 71.9 27.272 18.96 13.44 31.99 30.088 62.02 30.088 30.03 0 36.34-21.613 56.902-27.975 0 0-20.562-1.062-44.263 12.4-23.702 13.446-49.77-12.4-77.423-37.178-27.657-24.79-48.193-50.635-122.07-59.146z" fill="url(#e)" transform="translate(-326.975 -225.363)"/><path d="M368.415 333.08v21.957s47.788-11.682 96.392 46.735c48.59 58.417 49.375 76.465 92.826 76.465 52.144 0 62.415-81.775 112.982-81.775h13.435v-41.79h-18.974s-37.527-2.124-56.47 32.936c-18.964 35.044-53.753 76.84-91.66 35.403-46.225-41.43-103.502-89.93-103.502-89.93h-45.03z" fill="url(#f)" transform="translate(-326.975 -225.363)"/><path d="M284.438 264.992c-15.32 8.417-23.462 24.877-49.672 24.877-30.03 0-43.06-16.643-62.024-30.084-18.97-13.466-20.942-23.02-71.9-27.272-23.53-1.967-36.6-13.742-43.877-25.85 6.923 12.972 20.145 26.355 45.366 28.464 50.97 4.247 52.937 13.81 71.895 27.26 18.97 13.468 32.004 30.1 62.014 30.1 30.03 0 36.37-21.61 56.896-27.985 0 0-3.264-.167-8.698.49" fill="#231f20"/><path d="M357.075 131.925v39.177H343.64c-50.562 0-60.838 81.77-112.982 81.77-43.45 0-44.237-18.043-92.826-76.465-43.607-52.41-86.543-48.39-94.918-47.012v2.894s47.802-11.692 96.396 46.725c48.584 58.427 49.375 76.485 92.837 76.485 52.144 0 62.41-81.785 112.98-81.785h13.432v-41.79h-1.485zM209.217 59.424c0 7.736-6.356 13.988-14.206 13.988-4.476 0-8.458-2.046-11.056-5.237 2.415 5.013 7.548 8.48 13.498 8.48 8.282 0 14.997-6.69 14.997-14.945 0-6.3-3.93-11.687-9.48-13.873 3.774 2.51 6.247 6.762 6.247 11.587M175.223 116.668c-.38-1.92-1.182-4.086-2.874-5.6-2.37-2.125-20.73-20.433-33.884-33.587l-.317-.31-.423-.428c-5.622-5.612-10.182-10.177-11.957-11.963l-.812.723s43.648 43.7 47.402 47.09c2.504 2.238 3.07 5.87 3.165 8.052.03-.655.052-2.212-.302-3.977" fill="#231f20"/><path d="M211.35 212.922l-1.203-.453 1.202.452zM213.387 213.578l-1.572-.495 1.572.495zM175.542 184.802l-.026-.026.026.026zM201.956 208.148l-.552-.375.552.375zM196.52 204.01l-.91-.785.91.786zM209.658 212.275l-1.265-.54 1.265.54zM206.205 210.677c.604.318 1.203.604 1.8.88l-1.65-.807-.15-.073zM198.15 205.36l-.88-.712c1.005.838 2.01 1.614 3 2.337l-.074-.062c-.677-.495-1.36-1.02-2.046-1.562M205.002 210.022l.442.24-.843-.47.402.23zM252.408 75.778l-35.815 35.288s-1.702 2.108-2.602 5.6c-.332 1.272-.562 2.72-.562 4.317v92.607l.016.005v-91.118c0-6.013 3.16-9.886 3.16-9.886l47.787-47.088-.79-.75-11.192 11.025zM203.002 208.825l-.792-.505c.755.494 1.515.958 2.265 1.405l-.968-.583-.505-.317zM193.26 201.036l-1.092-1.083-.547-.557c-.545-.567-1.102-1.15-1.65-1.75 1.65 1.803 3.286 3.442 4.92 4.926l-.968-.895-.66-.64z" fill="#231f20"/><path d="M211.813 213.08l-.463-.16.463.16zM213.43 213.592l-.04-.016.04.016zM208.394 211.732l-.385-.172.384.172zM206.206 210.678l-.016-.016-.75-.4.766.416zM210.145 212.468l-.49-.193.49.193zM175.65 184.894c2.347 2.077 4.69 4.15 7.006 6.22l.208.188c2.39 2.124 4.764 4.243 7.106 6.346-4.716-4.227-9.547-8.532-14.425-12.847l.105.094zM195.608 203.224v-.005l-.708-.64-.01-.006.718.65zM175.526 120.647l-.01.333v63.794-62.3s.067-.73.01-1.827M204.598 209.792l-.12-.067.12.067zM202.21 208.317l-.256-.167.256.167zM200.878 207.41l-.494-.35-.115-.073.608.422zm.52.363h.006l-.526-.364.52.363zM196.53 204.02l.73.63h.01l-.75-.64.01.01z" fill="#fff"/><path d="M173.406 112.246l-.312-.396.312.396zM137.907 78.45l-.5.446 36.892 36.377c-.465-.98-1.084-1.92-1.943-2.68-2.415-2.177-21.265-20.97-34.45-34.144" fill="#be5c1b"/><path d="M125.767 64.78l.292.295-1.11-1.114.37-.326-9.704-9.355-1.384 1.165 17.657 16.99c-4.186-4.174-6.935-6.933-6.935-6.933l.812-.723z" fill="#f68712"/><path d="M145.32 84.332l-.282-.28.28.28z" fill="#231f20"/><path d="M205.76 50.3l-.552-.588.552.588zM189.5 31.323l-1.67 1.53 15.272 15.04c3.685 1.493 6.637 4.398 8.172 8.04l13.316 13.114 1.04-1 .595-.567L189.5 31.323zM222.44 71.093l.563-.542 1.088-1.024-12.268-12.082c.36 1.207.567 2.477.603 3.794l10.016 9.855zM220.29 73.144l1.64-1.567-9.51-9.365c-.03.973-.156 1.916-.36 2.827l8.23 8.104zM218.14 75.188l1.635-1.56-7.918-7.794c-.23.796-.526 1.567-.88 2.3l7.163 7.054zM215.996 77.234l.77-.74.87-.827-6.98-6.872c-.365.682-.792 1.317-1.265 1.932l6.606 6.507zM213.852 79.278l.624-.598 1.005-.958-6.532-6.424-1.577 1.598 6.482 6.382zM211.746 81.373l.005-.01c.578-.558.885-.933.885-.933l.698-.656-6.507-6.408c-.6.48-1.234.906-1.905 1.29l6.825 6.717zM209.478 83.306l.005-.005.937-.743.03-.026.782-.67-6.96-6.852c-.723.375-1.483.693-2.27.943l7.476 7.356zM206.95 84.985l.744-.458.296-.188.91-.61-7.682-7.57c-.9.236-1.822.386-2.775.45l8.506 8.375zM193.806 76.205l10.318 10.16h.005l.94-.42.245-.11.984-.505-8.81-8.672h-.04c-1.26 0-2.478-.16-3.644-.453M183.953 68.174l.02.026-.05-.063-.527-.702-.223-.308-.61-.994-.03-.04-14.956-14.738-1.676 1.52 35.055 34.533h.01l1.01-.286.34-.104 1.08-.37v-.01l-11.04-10.874c-3.69-1.338-6.71-4.082-8.402-7.59" fill="#be5c1b"/><path d="M184.95 69.277l.058.062.875.785.218.167c-.78-.62-1.498-1.327-2.128-2.093l.193.228.786.85zM203.788 48.454l-.525-.406h-.01l-.152-.156-.13-.057.818.62z" fill="#231f20"/><path d="M309.28 135.71c.71-.327 1.4-.65 2.093-.946l-58.927-57.486-1.26 1.245 58.095 57.188zM306.468 137.142c.713-.385 1.426-.75 2.134-1.103L250.67 79.032l-1.594 1.572 57.392 56.537zM303.803 138.667c.677-.41 1.353-.807 2.02-1.176l-57.267-56.376-1.62 1.593 56.867 55.96zM301.238 140.31c.64-.433 1.28-.865 1.926-1.266L246.434 83.2l-1.61 1.586 56.414 55.523zM278.446 167.91c.396-.678.78-1.354 1.166-2.026l-58.557-57.678-1.61 1.583 59 58.12zM216.56 111.112l.03-.047-.03.047zM276.897 170.542c.396-.666.797-1.337 1.193-2.01l-59.146-58.244-1.61 1.577 59.563 58.677zM215.537 114.258l59.765 58.88c.412-.655.813-1.31 1.22-1.972l-59.69-58.803-.228.23s-.484.588-1.067 1.665M273.674 175.723c.417-.65.833-1.302 1.234-1.947l-59.713-58.85c-.313.64-.63 1.4-.91 2.27l59.39 58.527zM213.444 120.533v.01l.005-.036-.006.026zM213.753 117.704l.005-.032-.005.032zM272.014 178.25c.422-.645.843-1.28 1.265-1.92l-59.225-58.37c-.224.817-.4 1.713-.505 2.68l58.464 57.61zM298.77 142.07c.615-.465 1.234-.918 1.854-1.345l-56.31-55.434-1.612 1.584 56.07 55.195zM296.436 143.928c.588-.495 1.18-.98 1.785-1.437l-56.01-55.13-1.62 1.597 55.846 54.97zM294.198 145.898l1.697-1.51-55.803-54.934-1.614 1.587 55.72 54.858zM292.073 147.968l1.603-1.588-55.705-54.84-1.612 1.582 55.715 54.846zM290.053 150.15l1.525-1.682-55.715-54.857-1.61 1.594 55.8 54.945zM288.137 152.43c.48-.595.948-1.193 1.437-1.756l-55.83-54.97-1.608 1.582 56 55.143zM286.315 154.81c.458-.62.91-1.24 1.37-1.83l-56.06-55.193-1.608 1.582 56.298 55.44zM284.612 157.288c.42-.646.848-1.28 1.29-1.9L229.517 99.87l-1.61 1.588 56.706 55.83zM282.988 159.878c.4-.676.812-1.337 1.228-1.983L227.4 101.95l-1.61 1.588 57.2 56.34zM281.464 162.543l.166-.297c.318-.604.66-1.16.995-1.74l-57.34-56.474-1.613 1.588 57.792 56.923zM279.97 165.244c.385-.687.77-1.37 1.14-2.05l-57.938-57.08-1.61 1.587 58.408 57.544z" fill="#be5c1b"/><path d="M214.353 115.436l.037-.088-.037.088zM215.988 111.946l.052-.078-.052.078zM199.99 25.25l35.08 33.81-35.08-33.81zM99.448 119.456h.812l-.417-.354-.395.354zM294.832 116.668l2.89 2.79h49.697l-2.974-2.79h-49.614z" fill="#231f20"/><path d="M181.282 312.33v15.05h17.397v-15.05h4.694v35.97h-4.695v-16.86H181.28v16.86h-4.698v-35.97h4.698zM232.89 341.202c0 2.724.056 5.07.213 7.1h-4.165l-.265-4.218h-.105c-1.173 2.08-3.946 4.804-8.536 4.804-4.06 0-8.916-2.298-8.916-11.313v-15.108h4.7v14.25c0 4.91 1.545 8.274 5.762 8.274 3.15 0 5.335-2.185 6.19-4.32.27-.645.426-1.496.426-2.4v-15.803h4.7v18.735zM240.683 329.462c0-2.723-.104-4.856-.213-6.993h4.112l.213 4.216h.156c1.442-2.453 3.843-4.748 8.17-4.748 3.467 0 6.135 2.133 7.252 5.173h.11c.798-1.492 1.87-2.56 2.938-3.358 1.546-1.174 3.198-1.814 5.655-1.814 3.47 0 8.54 2.242 8.54 11.208V348.3h-4.59v-14.57c0-5.016-1.87-7.954-5.606-7.954-2.72 0-4.75 1.978-5.602 4.217-.214.696-.375 1.494-.375 2.35V348.3h-4.594v-15.478c0-4.108-1.814-7.046-5.388-7.046-2.878 0-5.07 2.35-5.817 4.7-.265.638-.374 1.492-.374 2.297V348.3h-4.59v-18.838zM285.196 310.41h4.643v16.224h.108c1.652-2.882 4.64-4.7 8.807-4.7 6.456 0 10.937 5.34 10.937 13.13 0 9.233-5.866 13.823-11.633 13.823-3.737 0-6.724-1.44-8.703-4.804h-.104l-.27 4.217h-4.004c.11-1.76.213-4.375.213-6.67v-31.22zm4.643 27.537c0 .587.056 1.177.212 1.708.854 3.254 3.63 5.496 7.046 5.496 4.96 0 7.845-3.998 7.845-9.924 0-5.176-2.668-9.608-7.735-9.608-3.153 0-6.143 2.242-7.103 5.764-.157.587-.266 1.226-.266 1.975v4.59zM338.94 335.17c0 9.555-6.673 13.716-12.858 13.716-6.94 0-12.385-5.12-12.385-13.288 0-8.593 5.71-13.66 12.807-13.66 7.422 0 12.437 5.387 12.437 13.23m-20.438.272c0 5.654 3.205 9.924 7.788 9.924 4.484 0 7.847-4.213 7.847-10.033 0-4.375-2.186-9.87-7.74-9.87-5.495 0-7.895 5.123-7.895 9.98M344.87 310.41h4.694v37.89h-4.695v-37.89zM379.718 310.41v31.22c0 2.295.104 4.91.213 6.67h-4.163l-.214-4.484h-.156c-1.392 2.88-4.488 5.07-8.705 5.07-6.242 0-11.1-5.285-11.1-13.13-.05-8.592 5.336-13.82 11.58-13.82 4.004 0 6.618 1.865 7.796 3.896h.104v-15.42h4.642zm-4.643 22.574c0-.59-.057-1.388-.213-1.975-.696-2.935-3.255-5.392-6.776-5.392-4.86 0-7.743 4.27-7.743 9.928 0 5.23 2.615 9.55 7.634 9.55 3.15 0 6.03-2.134 6.885-5.6.156-.643.213-1.282.213-2.03v-4.482zM393.277 316.28v6.19H400v3.574h-6.723v13.93c0 3.202.906 5.02 3.52 5.02 1.284 0 2.025-.11 2.72-.324l.214 3.578c-.91.32-2.346.64-4.163.64-2.186 0-3.947-.75-5.07-1.976-1.28-1.437-1.815-3.736-1.815-6.776v-14.092h-4v-3.574h4v-4.805l4.593-1.384zM28.4 345.69c-.844.367-1.607.71-2.287 1.037-.683.32-1.578.66-2.68 1.01-.933.292-1.95.542-3.05.747-1.096.208-2.302.31-3.617.31-2.485 0-4.742-.345-6.775-1.044-2.032-.7-3.798-1.793-5.302-3.277-1.47-1.456-2.617-3.31-3.447-5.554-.827-2.25-1.24-4.86-1.24-7.83 0-2.823.395-5.343 1.196-7.568.798-2.222 1.946-4.098 3.447-5.634 1.458-1.484 3.216-2.623 5.277-3.405 2.062-.776 4.352-1.17 6.865-1.17 1.838 0 3.675.22 5.506.666 1.835.442 3.868 1.224 6.11 2.347v5.402h-.345c-1.885-1.58-3.757-2.73-5.61-3.448-1.857-.72-3.842-1.08-5.958-1.08-1.735 0-3.297.28-4.682.837-1.385.56-2.625 1.43-3.713 2.61-1.058 1.147-1.882 2.602-2.472 4.356-.59 1.758-.885 3.784-.885 6.083 0 2.407.328 4.475.978 6.207.65 1.734 1.49 3.142 2.517 4.23 1.07 1.137 2.328 1.977 3.758 2.52 1.437.544 2.95.817 4.544.817 2.193 0 4.248-.378 6.166-1.126 1.914-.753 3.71-1.88 5.377-3.382h.322v5.335zM55.995 335.78H37.067c0 1.58.24 2.952.713 4.13.473 1.17 1.128 2.13 1.955 2.884.8.738 1.745 1.286 2.84 1.652 1.095.372 2.3.554 3.62.554 1.75 0 3.51-.346 5.282-1.045 1.77-.7 3.03-1.385 3.78-2.058h.23v4.713c-1.456.616-2.943 1.126-4.463 1.54-1.514.416-3.11.62-4.78.62-4.266 0-7.59-1.15-9.983-3.455-2.39-2.312-3.587-5.586-3.587-9.834 0-4.2 1.148-7.535 3.438-10.004 2.296-2.47 5.31-3.703 9.052-3.703 3.46 0 6.137 1.016 8.01 3.037 1.882 2.026 2.822 4.9 2.822 8.625v2.344zm-4.21-3.31c-.052-2.27-.583-4.028-1.715-5.268-1.126-1.24-2.838-1.863-5.137-1.863-2.315 0-4.16.685-5.53 2.044-1.374 1.366-2.153 3.062-2.336 5.086h14.718zM84.026 348.176H79.7V333.55c0-1.178-.067-2.29-.202-3.326-.135-1.033-.385-1.84-.76-2.42-.38-.65-.936-1.13-1.658-1.44-.718-.315-1.654-.475-2.802-.475-1.18 0-2.414.294-3.703.877-1.286.58-2.52 1.324-3.704 2.23v19.18h-4.318V322.49h4.32v2.85c1.352-1.12 2.744-1.994 4.187-2.623 1.438-.628 2.92-.942 4.433-.942 2.78 0 4.893.837 6.35 2.507 1.458 1.674 2.185 4.075 2.185 7.22v16.674zM105.688 347.943c-.815.215-1.7.395-2.655.53-.96.137-1.815.208-2.57.208-2.618 0-4.613-.705-5.976-2.115-1.365-1.41-2.045-3.672-2.045-6.782V326.12h-2.918v-3.633h2.918v-7.38h4.322v7.38h8.924v3.633h-8.924v11.71c0 1.347.052 2.4.094 3.16.052.76.27 1.464.64 2.124.335.616.803 1.062 1.393 1.347.588.283 1.49.428 2.7.428.706 0 1.444-.106 2.21-.31.766-.207 1.318-.383 1.658-.52h.23v3.885zM126.936 327.202h-.23c-.643-.154-1.272-.263-1.878-.333-.603-.07-1.32-.104-2.148-.104-1.334 0-2.62.295-3.864.885-1.24.59-2.433 1.354-3.588 2.29v18.236h-4.32V322.49h4.32v3.792c1.72-1.38 3.232-2.36 4.544-2.93 1.308-.578 2.648-.863 4.01-.863.752 0 1.3.018 1.633.056.338.04.843.11 1.52.218v4.438zM152.804 335.344c0 4.184-1.074 7.487-3.22 9.908-2.148 2.424-5.02 3.636-8.625 3.636-3.63 0-6.516-1.212-8.658-3.636-2.136-2.42-3.207-5.724-3.207-9.908 0-4.188 1.07-7.494 3.207-9.924 2.142-2.427 5.027-3.646 8.657-3.646 3.604 0 6.476 1.22 8.624 3.646 2.146 2.43 3.22 5.736 3.22 9.924m-4.463 0c0-3.328-.647-5.797-1.952-7.417-1.302-1.62-3.11-2.427-5.43-2.427-2.343 0-4.164.808-5.456 2.427-1.3 1.62-1.947 4.09-1.947 7.417 0 3.22.652 5.66 1.953 7.323 1.305 1.665 3.123 2.495 5.45 2.495 2.304 0 4.11-.82 5.417-2.47 1.314-1.65 1.966-4.1 1.966-7.348" fill="#1b5ba0"/></svg>