<svg xmlns="http://www.w3.org/2000/svg" width="449.996" height="141.146"><g fill-rule="evenodd" stroke-width=".48" stroke-linecap="round" stroke-linejoin="round" stroke-miterlimit="10"><path d="M102.467 98.334l-7.677-.59-7.087-1.772-5.314-4.134-4.726-4.725-3.543-5.905-2.36-7.087-1.183-7.085v-7.678L71.76 50.5l2.36-8.27 3.544-8.266 4.725-7.087 5.904-6.496 7.087-5.314 7.678-3.543 8.858-1.194h6.496l8.268 1.783-1.18 18.898-3.545-3.542-3.543-2.953-4.134-1.772-4.724-.59-4.134.59-3.543 1.772-3.544 2.953-2.952 4.134-2.362 4.724-1.77 5.315-1.182 6.497-.59 7.087v6.496l.59 5.905 1.18 5.315 1.772 4.724 2.953 3.544 2.954 2.362 3.543 1.772 4.134.59 4.726-1.18 3.543-1.773 3.542-2.363 2.362-2.362 5.906 6.496-5.315 5.316-5.906 4.134-5.906 2.953-7.087 1.18z" fill="#147040" stroke="#147040" stroke-width=".5905536"/><path d="M135.538 72.35v-2.966l.59-5.893 1.772-5.314 2.953-3.555 3.543-1.76 2.953 1.182 1.77 1.772 1.182 2.953v3.543l-.59 1.772-.59 1.18-1.182 1.182-2.953 1.772-9.45 4.133zm6.496 33.07h-4.724l-4.725-1.77-4.134-2.363-2.95-2.953-2.954-4.725-1.772-4.725-1.18-5.906v-6.497l.59-5.905 1.18-6.496 2.363-5.315 2.953-4.725 4.134-4.724 4.134-2.953 5.315-2.362 5.905-1.18 4.724.59 4.134 1.18 3.544 2.363 2.362 3.543 1.77 3.542 1.183 5.315.59 5.315.59 5.906-28.936 11.81 1.18 4.725 2.362 3.544 2.953 2.362 4.134 1.18 5.904-2.362 5.906-4.134 5.315 6.496-4.725 4.134-4.724 3.543-5.906 2.362-6.496 1.18zM165.656 103.058l.59-3.543.59-5.315.592-6.496v-6.496l1.18-17.126v-4.134l.592-5.906-.59-5.905-.592-4.724 14.174-.59 1.18 2.952v2.952l2.954-2.952 3.543-2.953 3.542-1.772 4.134-.59h4.134l2.953 1.18 2.362 1.773 2.362 2.362 1.18 2.952.592 3.544.59 3.544v4.134l-1.182 18.898v6.496l-.59 6.496v5.315l.59 3.543-17.126.59.59-3.543.59-5.315.592-5.905.59-7.087.59-14.764v-5.315l-.59-2.952-1.77-2.363-2.954-.59-2.362 1.17-2.362 1.192-1.772 2.362-.59 3.544-1.182 18.897-.59 6.496V101.876l-16.536 1.18zM230.026 98.334h-4.134l-2.952-1.18-1.772-1.773-1.772-2.36-.59-2.954-.59-3.543v-8.86l1.77-28.937-6.495.59.59-11.22h6.497l.59-10.04V19.79l15.946-.59v.59l-.59 2.363v2.94l-.59 2.965v8.858l8.857-.59-.59 11.22-8.86.59-1.77 27.757v5.315l.59 3.543 1.18 1.773h2.363l4.725-.59-.59 9.448-5.906 2.363-5.906.59zM247.152 95.38l.59-3.542.59-5.315.592-6.496V73.53l1.18-15.944V39.278l-.59-3.545 14.764-.59.59 1.77.59 2.364v4.133l3.545-4.134 4.134-3.545 4.724-2.362 5.316-.59-.59 13.582h-3.544l-4.724 1.18-4.134 3.545-2.362 4.724-1.772 5.906-.59 5.905-.59 5.315-.592 6.496V94.2l-17.126 1.18zM304.436 80.027l-3.544-1.18-2.362-4.135-.59-6.496v-8.268l.59-8.268 1.772-6.496 2.953-4.134 3.543-1.77 3.543 1.18 1.773 4.134 1.18 6.496v8.267l-.59 8.268-1.77 6.496-2.954 4.135-3.544 1.772zm-.59 10.63h-5.906l-4.725-2.363-4.134-2.952-2.95-3.544-2.364-4.724-1.77-5.315-.592-5.316v-5.906l.59-5.314 1.182-5.315 2.362-5.907 2.953-4.724 3.544-4.135 4.134-3.543 5.315-2.363 5.906-1.182 5.904.59 4.724 1.772 4.134 2.953 2.953 4.134 2.362 4.724 1.772 4.726.59 5.905v5.316l-.59 5.315-1.182 5.894-2.362 5.328-2.953 4.724-3.543 4.712-4.725 2.965-4.724 2.362-5.905 1.182zM329.24 85.932l.59-3.543.59-5.316.59-6.496.59-6.496 2.363-38.99V12.705l.59-7.087-.59-4.724 15.945-.59-3.543 62.598v7.087l-.59 5.906v5.315l.59 3.543-17.126 1.182zM371.168 74.12l-2.953-.59-1.77-1.18-1.182-2.363-.59-3.543.59-2.953 1.18-2.952 1.772-1.77 1.772-2.363 2.362-1.18 2.36-1.183 2.364-1.18h1.77l-1.18 17.716-2.362 2.362-4.134 1.18zm-6.496 11.222h-2.953l-2.954-.59-2.362-1.182-2.362-1.772-2.362-2.362-1.18-2.953-1.182-3.543v-4.134l.59-4.724 1.772-4.725 2.362-3.543 3.543-3.543 4.134-2.952 5.314-2.953 5.315-2.362 6.495-2.362-1.18-3.542-1.773-2.953-2.362-1.18-3.543-.592-3.543.59-3.544 1.182-3.543 1.77-3.543 2.364 1.18-15.356 3.544-.59h12.992l6.496.59 5.315 1.772 4.135 3.543 2.953 4.724 1.18 5.315.592 4.723v4.724l-1.182 14.764v5.894l.59 4.737.592 4.726.59 3.543-14.764 1.18-1.18-2.362-.59-1.772-2.954 1.772-2.953 2.362-3.544 1.18-4.134.592zM419.593 87.113h-4.724l-4.135-1.18-4.134-1.785-3.542-2.94-2.953-4.134-2.362-4.725-1.18-5.906-.592-6.496 1.182-7.087 1.772-6.495 2.953-5.315 4.134-5.315 5.316-4.724 5.314-2.952 7.087-2.362 7.677-1.18h5.906l-1.18 14.763-4.135-2.954-5.906-.59-5.316 1.18-4.134 4.134-2.952 6.496-1.18 7.678v8.858l1.18 3.543 1.18 2.953 2.363 2.362 1.773 1.772 2.952 1.18 2.363.59 5.905-1.77 4.725-3.544 4.133 6.496-3.542 2.953-4.724 3.53-5.315 2.376-5.907.59z" fill="#147040" stroke="#147040" stroke-width=".5905536"/><path d="M55.223 140.853l-2.362-.59-1.77-1.772-1.772-1.77-1.772-2.953-1.18-3.543-.592-3.544-.59-4.134-.59-4.724 1.18-9.45-5.905 7.088-3.544 2.362-3.544 2.362-3.543 1.772-2.954 1.18-3.543.59H20.38l-2.362-.59-1.77-1.18-1.182-2.362-.59-1.772v-2.953l1.18-2.954 1.18-2.952 2.364-3.544 2.362-2.952 3.543-2.953 7.677-5.315h-10.04l-4.724-.59-4.133-.59-3.544-1.182L6.8 90.066l-2.953-1.772-1.77-1.77L.89 84.147l-.59-1.76.59-2.36 1.182-1.773 2.362-1.772 2.362-1.18 3.543-1.182 4.135-.59h8.857l9.45 1.772-7.678-6.496-2.953-3.543-2.362-3.543-1.772-3.544-1.77-2.952-.592-3.544v-2.362l.59-2.362 1.182-1.772 1.772-1.18h2.362l2.362.59 3.543 1.18 2.953 1.182 3.543 2.362 3.544 2.953 2.952 2.954 6.495 8.267-1.18-9.448.59-4.724.59-4.134.59-3.543 1.773-2.952 1.77-2.953 1.773-1.77 1.773-1.182h2.362l1.77.59 2.364 1.18 1.77 2.363 1.18 2.94 1.183 3.557 1.18 3.543.59 4.134v4.724l-.59 5.315-.59 5.314-1.772 4.134-2.36 2.953-2.954-1.18H53.45l-4.132 1.18-4.134 2.363-2.362 4.134h-.59.59L41.64 83.57l-.59 2.953.59 2.952.59 2.953 1.773 2.953 1.77 2.363 2.364 1.772 2.362 1.772 2.95 1.18h5.316l4.725-1.18 3.544-3.544 2.953-4.134 3.543 1.18 4.134 2.363 4.725 3.543 4.132 4.134 2.953 3.543 2.362 3.543 2.363 3.544 1.18 2.952.59 2.953.592 2.953-.59 2.362-1.182 1.76-1.772.602-2.362.59-2.953-.59-2.952-1.18-3.543-1.772-2.952-2.363-3.544-2.362-3.542-3.543-5.905-7.677.59 9.45v4.132l-.59 4.134-1.182 4.135-1.18 2.953-1.77 2.362-1.773 2.362-2.362.59-1.772.59z" fill="#7ac242" stroke="#7ac242" stroke-width=".5905536"/><path d="M55.814 96.562l-3.544-1.18-2.362-2.363-1.77-2.954v-4.134l.59-2.953 2.36-2.953 2.954-1.18h2.953l3.543 1.18L62.9 82.39l1.772 2.952.59 3.543-1.18 3.543-1.772 2.362-2.953 1.772h-3.543z" fill="#f5e608" stroke="#f5e608" stroke-width=".5905536"/><path d="M166.837 127.86h-13.582l-13.583-.59-12.992-1.77-12.402-2.363-11.22-3.543-10.04-4.725-8.858-5.906-7.677-7.677-6.496-8.268 1.18.59 3.544 2.362 5.907 3.543 8.858 4.134 10.63 4.133 13.583 3.543 15.354 2.953 18.898 1.18 17.126-.59 18.897-1.194 19.49-1.76 20.077-2.362 20.67-2.953 21.26-2.95 20.67-2.954 21.26-2.953 20.077-2.362 20.08-1.77 19.487-1.182 18.307-.59 17.127 1.18 15.945 1.772 14.173 3.544 12.402 5.315h-1.18l-3.544-.592-5.315-.59-7.678-.59-9.448-.59-11.81-.592h-13.584l-14.764.59-11.22.59-11.81 1.182-12.994 1.18-12.992 1.773-14.173 2.363-14.173 2.362-14.764 2.363-15.354 2.362-14.173 2.362-14.763 2.953-14.764 1.77-15.354 2.364-14.765 1.18-14.764 1.18-14.763.59zM441.444 90.066v-1.772h1.77l.592 1.18-.59.592H441.443zm-1.18 4.134l-.592-7.087h4.134l1.18.59.59 1.182-.59 1.18-.59.592 1.18 1.77.592 1.773h-1.772l-.59-1.772-.59-.59-1.182-.59h-.59V94.2h-1.18zm2.95 2.362l-2.36-.59-1.773-1.182-1.18-1.77-.59-2.363v-2.363l1.18-1.77 1.773-1.182 1.77-.59 2.363.59 1.772 1.18 1.18 1.772.592 2.363-.59 2.362-.59 1.77-1.773 1.182-1.772.59zm0 1.18l-2.95-.59-2.364-1.18-1.77-2.363-.592-2.953.59-2.953 1.182-2.362 2.362-1.194 2.362-.578 2.953.578 2.362 1.194 1.18 2.362 1.18 2.953-.59 2.952-1.18 1.77-2.363 1.773-2.362.59z" fill="#7ac242" stroke="#7ac242" stroke-width=".5905536"/></g></svg>