<svg xmlns="http://www.w3.org/2000/svg" width="400" height="198.326"><path d="M77.022 3.25S1.578-5.43.862 67.13c8.663 66.054 72.356 57.683 74.72 58.473 7.577.365 32.847 0 32.847 0v-84.1s1.818-26.298 25.274-25.274c16.592.723 22.002 15.163 22.002 19.504 0 4.328 2.555 24.91-19.49 28.515-14.064.35-28.522-.358-28.522-.358l-.343 15.162 31.038.352s36.1-2.166 34.285-41.515C171.04 2.086 136.94 1.44 133.703 0c-14.092 0-40.8 9.02-41.523 39.696-.564 24.2-.722 71.018-.722 71.018l-26.353-.276s-42.58-.352-47.286-43.662c-4.694-43.325 45.128-51.628 58.47-48.73.304-6.977.732-14.797.732-14.797M171.044 124.522L187.85 11.904S189.887.356 199.016.356c7.234 0 11.566 3.484 14.097 10.108.34 3.962 27.792 88.075 27.792 88.075l27.066-86.275S270.86 1.075 280.96.708c10.12-.352 12.27 10.113 12.27 10.113l18.053 113.702h-14.968l-16.425-99.98-28.52 92.038s-2.165 10.658-11.926 9.39c-6.24-.803-7.928-6.498-9.372-11.19-1.448-4.694-28.153-89.89-28.153-89.89l-14.622 99.632h-16.254zM333.484 62.96v22.418s1.805 25.08 25.275 25.27c7.634.045 38.386-.212 38.386-.212.32 4.566 0 10.807 0 16.335-20.17 0-34.245.303-38.387.114-14.08 0-40.794-9.02-41.52-39.706-.57-24.214-.357-68.215-.357-68.215l.356-17.702c8.695.04 16.244 0 16.244 0V62.96z" fill="#1567a9"/><path d="M16.488 157.004c-.69.32-2.22.68-4.17.68-5.108 0-8.213-3.036-8.213-7.71 0-5.073 3.7-8.096 8.615-8.096 1.93 0 3.298.366 3.88.668l-.61 2.22c-.76-.316-1.84-.578-3.166-.578-3.25 0-5.614 1.963-5.614 5.636 0 3.37 2.044 5.515 5.605 5.515 1.173 0 2.414-.227 3.203-.534l.47 2.198zM27.998 150.636h-6.07v4.52h6.788v2.307h-9.72v-15.365h9.363v2.306h-6.43v3.985h6.068v2.246zM31.276 157.462v-15.36h3.362l4.165 6.597c1.038 1.704 2 3.47 2.735 5.134l.05-.018c-.222-2.026-.262-4.003-.262-6.354v-5.36h2.716v15.36h-3.055l-4.2-6.76c-1.03-1.692-2.072-3.565-2.866-5.298l-.09.037c.113 1.968.15 4.003.15 6.535v5.487h-2.704zM50.512 144.45h-4.576v-2.352h12.157v2.35H53.45v13.015H50.51V144.45zM62.877 149.102h1.75c1.978 0 3.196-.997 3.196-2.53 0-1.67-1.218-2.45-3.136-2.45-.93 0-1.525.066-1.81.125v4.855zm-2.915-6.773c1.128-.2 2.753-.335 4.45-.335 2.305 0 3.862.36 4.96 1.237.883.7 1.38 1.773 1.38 3.09 0 1.986-1.408 3.317-2.93 3.827v.072c1.17.4 1.85 1.47 2.248 2.96.524 1.895.952 3.69 1.264 4.282h-3.02c-.234-.46-.63-1.715-1.07-3.628-.477-2.008-1.217-2.644-2.878-2.68h-1.49v6.308h-2.914V142.33zM80.284 155.444c2.838 0 4.435-2.482 4.435-5.713 0-2.882-1.494-5.612-4.436-5.612-2.938 0-4.46 2.67-4.46 5.708 0 3.055 1.612 5.618 4.433 5.618h.027zm-.15 2.256c-4.552 0-7.427-3.32-7.427-7.802 0-4.688 3.136-8.032 7.67-8.032 4.685 0 7.452 3.39 7.452 7.76 0 5.15-3.278 8.074-7.655 8.074h-.04zM98.232 155.338c.406.072 1.03.072 1.63.072 3.812.023 6.077-2.008 6.077-5.893.04-3.367-2.022-5.33-5.695-5.33-.925 0-1.575.06-2.013.15v11zm-2.93-13.01c1.315-.198 2.93-.334 4.685-.334 2.997 0 5.045.592 6.534 1.77 1.58 1.213 2.537 3.05 2.537 5.65 0 2.756-.97 4.79-2.513 6.11-1.597 1.38-4.156 2.088-7.283 2.088-1.687 0-2.973-.1-3.957-.198v-15.086zM120.605 150.636h-6.06v4.52h6.777v2.307h-9.706v-15.365h9.363v2.306h-6.435v3.985h6.06v2.246zM131.767 149.442c.38.113.822.144 1.435.144 2.184 0 3.53-1.065 3.53-2.83 0-1.69-1.237-2.598-3.277-2.598-.812 0-1.38.067-1.688.144v5.14zm-2.915-7.12c1.065-.19 2.532-.326 4.5-.326 2.143 0 3.69.424 4.715 1.26.947.744 1.584 1.953 1.584 3.38 0 1.47-.487 2.64-1.367 3.47-1.19 1.114-3.01 1.67-5.08 1.67-.56 0-1.04-.033-1.436-.128v5.812h-2.915v-15.14zM145.11 149.102h1.743c1.976 0 3.194-.997 3.194-2.53 0-1.67-1.218-2.45-3.127-2.45-.92 0-1.52.066-1.81.125v4.855zm-2.91-6.773c1.12-.2 2.744-.335 4.436-.335 2.32 0 3.863.36 4.964 1.237.884.7 1.39 1.773 1.39 3.09 0 1.986-1.417 3.317-2.943 3.827v.072c1.183.4 1.87 1.47 2.26 2.96.525 1.895.953 3.69 1.247 4.282h-3c-.245-.46-.646-1.715-1.075-3.628-.47-2.008-1.21-2.644-2.898-2.68h-1.47v6.308H142.2V142.33zM162.51 155.444c2.846 0 4.44-2.482 4.44-5.713 0-2.882-1.495-5.612-4.44-5.612-2.94 0-4.46 2.67-4.46 5.708 0 3.055 1.63 5.618 4.44 5.618h.02zm-.132 2.256c-4.57 0-7.432-3.32-7.432-7.802 0-4.688 3.127-8.032 7.657-8.032 4.69 0 7.45 3.39 7.45 7.76 0 5.15-3.258 8.074-7.657 8.074h-.018zM175.522 155.338c.41.072 1.033.072 1.633.072 3.81.023 6.078-2.008 6.078-5.893.023-3.367-2.026-5.33-5.708-5.33-.934 0-1.57.06-2.003.15v11zm-2.933-13.01c1.307-.198 2.932-.334 4.673-.334 3.01 0 5.068.592 6.548 1.77 1.58 1.213 2.528 3.05 2.528 5.65 0 2.756-.975 4.79-2.5 6.11-1.602 1.38-4.15 2.088-7.283 2.088-1.697 0-2.987-.1-3.966-.198v-15.086zM191.8 142.1v8.966c0 2.997 1.322 4.377 3.294 4.377 2.134 0 3.398-1.38 3.398-4.377V142.1h2.947v8.78c0 4.73-2.564 6.82-6.436 6.82-3.723 0-6.128-1.972-6.128-6.805V142.1h2.924zM216.323 157.004c-.685.32-2.22.68-4.174.68-5.104 0-8.21-3.036-8.21-7.71 0-5.073 3.71-8.096 8.616-8.096 1.922 0 3.298.366 3.894.668l-.623 2.22c-.758-.316-1.84-.578-3.154-.578-3.267 0-5.627 1.963-5.627 5.636 0 3.37 2.053 5.515 5.604 5.515 1.17 0 2.42-.227 3.204-.534l.47 2.198zM229.755 157.004c-.7.32-2.22.68-4.188.68-5.117 0-8.217-3.036-8.217-7.71 0-5.073 3.71-8.096 8.628-8.096 1.94 0 3.29.366 3.894.668l-.627 2.22c-.758-.316-1.828-.578-3.154-.578-3.266 0-5.64 1.963-5.64 5.636 0 3.37 2.062 5.515 5.623 5.515 1.177 0 2.414-.227 3.194-.534l.488 2.198zM235.195 157.46h-2.934V142.1h2.935v15.36zM249.11 138.518l-2.993 2.712h-2.35l2.102-2.712h3.24zm-3.827 16.926c2.843 0 4.444-2.482 4.444-5.713 0-2.882-1.498-5.612-4.444-5.612-2.93 0-4.46 2.67-4.46 5.708 0 3.055 1.612 5.618 4.437 5.618h.023zm-.15 2.256c-4.548 0-7.404-3.32-7.404-7.802 0-4.688 3.126-8.032 7.647-8.032 4.68 0 7.446 3.39 7.446 7.76 0 5.15-3.258 8.074-7.658 8.074h-.03zM255.82 157.462v-15.36h3.367l4.156 6.597c1.056 1.704 2.003 3.47 2.74 5.134l.05-.018c-.218-2.026-.26-4.003-.26-6.354v-5.36h2.727v15.36h-3.078l-4.183-6.76c-1.04-1.692-2.076-3.565-2.875-5.298l-.095.037c.113 1.968.176 4.003.176 6.535v5.487h-2.725zM290.5 151.19c-.094-1.984-.21-4.344-.18-6.443h-.07c-.53 1.87-1.188 3.95-1.91 5.876l-2.374 6.656h-2.247l-2.144-6.558c-.614-1.972-1.196-4.052-1.616-5.975h-.05c-.067 2.013-.166 4.45-.288 6.54l-.357 6.177h-2.752l1.07-15.365h3.87l2.113 6.18c.573 1.792 1.083 3.624 1.48 5.33h.067c.434-1.665.975-3.56 1.598-5.347l2.23-6.164h3.822l.916 15.364h-2.865l-.312-6.273zM306.216 138.553l-2.974 2.73h-2.36l2.09-2.73h3.244zm-1.868 12.44l-1.25-3.785c-.325-.934-.578-1.98-.817-2.87h-.05c-.23.89-.477 1.967-.752 2.87l-1.25 3.786h4.12zm-4.603 2.112l-1.385 4.355h-3.02l5.154-15.36h3.745l5.22 15.36h-3.15l-1.452-4.355h-5.113zM312.14 154.4c.937.532 2.39.987 3.893.987 1.868 0 2.906-.84 2.906-2.098 0-1.16-.813-1.846-2.835-2.555-2.685-.89-4.373-2.247-4.373-4.43 0-2.542 2.203-4.423 5.704-4.423 1.747 0 3.024.36 3.845.753l-.69 2.27c-.604-.28-1.723-.718-3.217-.718-1.86 0-2.653.917-2.653 1.846 0 1.173.925 1.728 3.086 2.486 2.784 1.037 4.13 2.378 4.13 4.57 0 2.478-1.96 4.6-6.084 4.6-1.737 0-3.497-.457-4.377-.958l.664-2.333zM329.523 142.1h2.937v13.014h6.616v2.346h-9.553V142.1zM344.23 157.46h-2.943V142.1h2.942v15.36zM361.176 151.19c-.09-1.984-.212-4.344-.176-6.443h-.086c-.514 1.87-1.2 3.95-1.9 5.876l-2.368 6.656h-2.252l-2.148-6.558c-.614-1.972-1.187-4.052-1.625-5.975h-.048c-.072 2.013-.167 4.45-.266 6.54l-.366 6.177h-2.753l1.083-15.365h3.872l2.094 6.18c.564 1.792 1.07 3.624 1.485 5.33h.064c.428-1.665.97-3.56 1.606-5.347l2.21-6.164h3.837l.92 15.364h-2.87l-.31-6.273zM370.254 149.442c.388.113.85.144 1.422.144 2.21 0 3.542-1.065 3.542-2.83 0-1.69-1.25-2.598-3.276-2.598-.812 0-1.39.067-1.688.144v5.14zm-2.91-7.12c1.074-.19 2.522-.326 4.494-.326 2.13 0 3.696.424 4.72 1.26.948.744 1.575 1.953 1.575 3.38 0 1.47-.474 2.64-1.363 3.47-1.19 1.114-3.005 1.67-5.094 1.67-.546 0-1.007-.033-1.422-.128v5.812h-2.91v-15.14zM383.614 157.46h-2.92V142.1h2.92v15.36zM394.817 150.993l-1.264-3.786c-.315-.934-.577-1.977-.816-2.87h-.05c-.23.893-.478 1.967-.753 2.87l-1.237 3.786h4.12zm-4.612 2.112l-1.385 4.36h-3.02l5.15-15.366h3.768l5.212 15.364h-3.15l-1.458-4.36h-5.117z" fill="#1369af"/><path d="M399.01 198.326H0v-27.918h399.01v27.918z" fill="#a9c135"/><path d="M399.38 172.23H.34v-3.36H399.38v3.36z" fill="#1567a9"/><path d="M99.783 192.39v-15.347h3.213l3.97 6.58c1.003 1.705 1.91 3.487 2.618 5.143l.04-.022c-.202-2.017-.252-4.012-.252-6.345v-5.357h2.6v15.347h-2.91l-4.013-6.756c-.98-1.696-1.982-3.555-2.735-5.284l-.086.014c.103 1.972.157 4.007.157 6.547v5.48h-2.604zM127.125 192.388h-2.806V177.04h2.805v15.348zM150.44 191.93c-.656.322-2.118.678-3.986.678-4.878 0-7.83-3.037-7.83-7.707 0-5.058 3.516-8.09 8.218-8.09 1.855 0 3.145.36 3.71.668l-.587 2.23c-.727-.32-1.756-.6-3.015-.6-3.11 0-5.374 1.97-5.374 5.648 0 3.376 1.968 5.524 5.365 5.524 1.102 0 2.298-.248 3.047-.546l.452 2.197zM169.572 185.93l-1.213-3.796c-.295-.93-.543-1.972-.764-2.86h-.045c-.234.888-.464 1.953-.74 2.86l-1.18 3.795h3.942zm-4.404 2.098l-1.322 4.363h-2.88l4.915-15.35h3.58l4.98 15.35h-3.004l-1.385-4.362h-4.882zM188.464 184.034h1.66c1.905 0 3.06-1.015 3.06-2.536 0-1.656-1.155-2.45-2.983-2.45-.888 0-1.456.06-1.736.136v4.85zm-2.762-6.768c1.07-.208 2.6-.325 4.224-.325 2.207 0 3.71.348 4.73 1.21.856.718 1.326 1.787 1.326 3.11 0 1.98-1.35 3.31-2.798 3.82v.065c1.115.41 1.778 1.48 2.143 2.955.51 1.91.916 3.7 1.21 4.292h-2.875c-.23-.46-.613-1.706-1.03-3.624-.45-2-1.158-2.644-2.747-2.69h-1.42v6.314H185.7v-15.126zM215.39 185.93l-1.2-3.796c-.313-.93-.56-1.972-.782-2.86h-.045c-.226.888-.46 1.953-.713 2.86l-1.205 3.795h3.944zm-4.396 2.098l-1.33 4.363h-2.885l4.93-15.35h3.57l4.987 15.35h-3.005l-1.395-4.362h-4.873zM243.332 191.684c-.98.357-2.902.87-4.914.87-2.604 0-4.59-.667-6.038-2.056-1.372-1.304-2.143-3.322-2.143-5.645.013-4.874 3.46-7.974 8.546-7.974 1.882 0 3.353.387 4.08.725l-.62 2.266c-.865-.396-1.876-.672-3.487-.672-3.276 0-5.573 1.945-5.573 5.515 0 3.51 2.14 5.564 5.312 5.564 1.042 0 1.76-.14 2.134-.303v-3.85h-2.718v-2.2h5.42v7.76zM258.094 177.04v8.954c0 3.005 1.264 4.38 3.14 4.38 2.027 0 3.232-1.375 3.232-4.38v-8.953h2.798v8.764c0 4.72-2.432 6.828-6.124 6.828-3.55 0-5.857-1.968-5.857-6.805v-8.786h2.81zM286.32 185.93l-1.196-3.796c-.303-.93-.55-1.972-.78-2.86h-.042c-.23.888-.446 1.953-.717 2.86l-1.196 3.795h3.93zm-4.387 2.098l-1.326 4.363h-2.884l4.914-15.35h3.588l4.977 15.35h-3.01l-1.38-4.362h-4.88z" fill="#fff"/><path d="M370.554 43.517c-.014-.04 0-.1-.018-.103-.018-.023-.023-.032-.04-.032 0-.023-.032-.05-.04-.054-.024 0-.033-.032-.033-.032v-.054c-.014-.018 0-.027-.014-.06h-.032l-.023.033-.013.01c-.005.026.013.026-.005.03-.027.01-.01.023-.045 0-.027-.004-.055-.03-.055-.03s-.027-.01-.04-.01c-.014-.023-.036-.032-.054-.023-.01.023-.01.023-.027.023-.023.01-.05.013-.06.013l-.04.014-.058-.014s0-.005-.018-.013c-.028 0-.05 0-.073.01 0 0 0 .026-.01.026-.03 0-.044.006-.062-.008 0-.018-.022-.06-.022-.06h-.02c-.017 0-.04-.017-.04-.017l-.008-.085c0-.028-.018-.028-.032-.037-.018-.01-.013-.036-.018-.04 0-.01-.018-.032-.018-.068v-.04l-.027-.05v-.032c0-.013-.01.014 0-.036v-.072l.027-.032c.023-.027.036-.036.036-.036 0-.018-.013-.045-.018-.054-.018-.022-.027-.045-.027-.045l-.018-.005h-.054s-.023-.013-.036-.018c-.01-.013 0-.013-.027-.027-.018-.023-.018-.018-.023-.036-.01-.014-.027-.032-.027-.032s0-.013-.027-.013c-.027-.014-.04-.014-.05-.014-.027-.005-.045-.013-.045-.013s0 .013-.03.01c0-.01-.028-.033-.04-.033-.024 0 0 .005-.042.005-.018.018-.013.032-.045.018-.05-.022-.054-.022-.054-.022s-.04-.023-.06-.023c-.022.01-.045.027-.045.027s-.013.018-.036.027c-.01 0-.05 0-.073.004-.018 0-.036.014-.036.027-.026.02 0 .033-.035.033-.023 0-.023-.013-.05 0-.013.014.027-.045-.013.014-.04.03-.06.036-.06.036l-.022.013c-.022.005-.022 0-.04.005-.018.02-.018.015-.032.042 0 0-.013 0-.03.022-.01 0-.033 0-.037.023-.013.013-.013.027-.036.04 0 .02-.04.02-.04.05-.01.01-.04 0 0 .05.022.03.022.013.01.04-.01.05-.037.05-.05.06-.023.026-.032.04-.032.058.01.018.022.018-.01.04-.008.032-.008.06-.008.06s-.036-.01-.045.04c0 .04-.042.04.008.1.045.04.045.04.085.07.032.037.04.042.077.064.027.017.027.013.045.05.032.03.032.03.077.053.058.032.058.032.122.032.05 0 .018.005.08-.032.073-.023.04-.032.096-.032.04.01.04-.017.072.01.013.023.013.01.027.06.03.04.03.03.05.03 0-.013.008 0 .026-.03.018-.028.027 0 .05-.037.017-.023 0-.068 0-.068s.03-.018.05-.018c.012 0 .02.036.053.018.035-.018.04-.022.07-.036h.096c.045.013.06.017.104.035.036.014.067.014.09.036 0 .033.018.047.018.07.01.004.01.004 0 .04-.018.036-.04.05-.04.067 0 .023.022.05.022.073.018.013.045.08.045.1.005.022 0 .035.032.067.018.04.027.04.05.054.017.032.017.032.058.06l.063.063c.01.036.01.045.032.054.027.01.063.022.108.022h.095c.068-.014.09 0 .153-.014.06-.01.064-.018.095-.027.037-.015.037-.015.07-.02.02-.017.044-.008.085-.04.022-.04.045-.068.045-.068s.013-.045.013-.067v-.064c0-.03-.018-.008-.013-.053.013-.036-.005-.045 0-.067.013-.036.013-.064.013-.082m5.848 2.96c-.03.023-.012.06-.03.082-.014.018 0 .005-.014.027-.013.036 0 .023-.013.05-.045.03-.05 0-.05.054 0 .04 0 .046.036.068.026.01.04.023.04.032-.014.023.054.04-.06.023-.103-.023-.058-.023-.125.018-.08.05-.11.064-.122.1 0 .032.036 0-.036.054-.077.045-.045.045-.11.072-.035 0-.053.018-.107 0-.068-.027-.113-.045-.167-.027-.054.026-.036.026-.09.044-.045.027-.054 0-.14.05-.104.05-.117.086-.17.077-.06-.013-.092-.022-.12-.05-.026-.026-.026-.076-.066-.094-.045-.027-.027-.058-.068-.08-.042-.046 0-.064-.042-.046-.054.032-.005 0-.054.032-.027.013-.063.013-.067.03-.02.006-.02.006-.113.024-.072.04-.136.04-.163.018-.026-.023-.062 0-.044-.06.018-.067.072-.14.018-.143-.072-.013-.08 0-.1.006-.017.013-.05.027-.05.027s-.062-.045-.07-.032c-.02 0-.02.006-.055.006 0 .027.017.027-.024.036-.04.01-.1.01-.1.01s-.017-.05-.058-.068c-.027-.005-.058 0-.058 0s-.023 0-.04.018c-.01.018-.02.03-.037.005 0-.023-.018-.055-.018-.077 0-.027-.032-.045-.032-.045s0-.014-.04 0c-.028 0-.077.005-.077.005s-.068 0-.08-.005c-.042 0-.07-.023-.07-.023s0-.036-.026-.022c-.04.005-.063.022-.063.022l-.073.023s-.022.022-.063.022c-.04 0-.09-.005-.09-.022-.022-.04-.022-.077-.022-.086-.018-.006-.036-.05-.072-.05-.027-.014-.045 0-.085-.018-.027-.023-.04-.032-.04-.032s-.023-.06-.04-.05c-.02.023-.02.027-.028.05-.018.01-.045.05-.045.05s-.06-.04-.063 0c-.01.01-.01.01-.014.018l-.018.013c-.013.015-.013.028-.022.015-.04-.014-.04-.036-.063-.027-.02.013-.02.013-.064.027-.005 0-.01 0-.054-.014-.023-.02-.023 0-.055-.02-.04-.05-.04-.05-.068-.06-.022 0 .01-.027-.036-.023-.04 0-.04 0-.053.023-.036.01-.06.01-.09.01-.036-.01-.063-.033-.095-.042-.023-.027-.167-.1-.203-.13-.033-.046-.096-.1-.16-.118-.07-.023-.13-.06-.157-.036-.045.027-.1.036-.1.036l-.14-.08s.024-.024-.05-.037c-.057-.014-.07-.014-.102-.014h-.23c-.03-.023-.08-.037-.103-.04-.01-.01-.05-.02-.073-.02-.054 0-.09 0-.12.01h-.074s-.094-.01-.094-.02c-.014-.008 0-.02-.023-.035-.023-.022-.023-.005-.036-.03-.027-.01-.054-.024-.054-.024l-.06.015s-.04-.086-.04-.06c.01.028-.022-.026-.045 0-.018.01-.03.01-.067 0-.013-.026-.05-.044-.05-.044s-.044 0-.053-.022c-.01-.005 0-.045-.04-.045-.037 0-.082 0-.082-.013-.023-.018-.04-.06-.04-.06l-.04-.013s-.064-.013-.082-.03c-.014-.01-.036-.082-.036-.082l-.06-.082-.085-.045s.023-.03-.03-.03c-.05 0-.083 0-.105.017-.027 0-.072-.032-.072-.032l-.032-.036s0 .023-.023.023c-.04-.014-.04-.023-.04-.04 0-.023.022-.046-.01-.046-.044-.027-.058-.027-.085 0-.022 0-.022.023-.054 0-.03-.027-.067-.063-.07-.045 0 0 .004 0-.024.044-.03.023 0 0-.05 0-.03.01-.04.06-.108 0-.063-.068-.063-.063-.09-.095-.036-.037-.036-.073-.1-.1-.053-.027-.013 0-.053-.018-.032-.014-.023-.027-.064-.045-.04 0-.053-.005-.08-.054-.03-.05-.04-.014-.058-.045-.014-.027.018-.027-.014-.054-.04-.037-.05 0-.08-.06-.024-.053 0-.044-.055-.067-.036-.013-.036-.054-.09-.113-.046-.076-.02-.054-.068-.063-.045-.012-.073.01-.113-.04-.014-.045-.014-.08-.04-.108-.046-.054-.06-.063-.1-.08-.032-.028-.018-.05-.032-.06-.013-.018-.018-.013-.036-.036-.027-.036-.03-.013-.045-.063-.01-.032-.023-.032-.032-.054-.01-.02 0-.07-.037-.105-.02-.03-.008-.03-.044-.086-.013-.046-.03-.046-.054-.095-.013-.04-.022-.086-.022-.158-.01-.068.01-.086-.023-.122-.023-.027-.054-.014-.06-.086-.008-.068-.017-.195-.017-.25 0-.053.023-.134-.018-.166-.036-.032-.072-.104-.095-.117-.027-.023-.067-.08-.1-.118-.026-.032-.012-.077-.05-.1-.03-.03-.07-.045-.075-.08-.014-.05-.086-.177-.086-.177s-.013-.054-.027-.08c0-.046-.042-.078-.042-.132 0-.053-.036-.08-.036-.112 0-.045-.036-.072-.058-.135 0-.077-.028-.077-.032-.15 0-.067-.027-.17-.027-.22v-.122c-.027-.035-.014-.107-.06-.14-.058-.03-.04-.053-.08-.044-.027.013-.036.045-.06.104-.012.036 0 .045-.02.045h-.086c-.01-.045-.01-.045-.032-.063-.058-.028-.085-.04-.117-.086-.014-.027-.014-.054-.042-.15-.013-.058-.013-.058.028-.09.036-.044 0 0 .045-.044.055-.046.055-.095.055-.095l.076.018s.06-.054.074-.1c.01-.063.01-.085.01-.14 0-.072-.024-.072 0-.14.035-.04.012-.04.012-.135 0-.09-.013-.067 0-.103.023-.037-.036-.01-.072-.055-.036-.063-.036-.08-.036-.14 0-.044-.032-.072-.032-.072l-.085-.117s-.085-.104-.112-.153c-.045-.023 0-.06 0-.1 0-.058.03-.072.03-.072h.1l.068.086s.014.063.045.063c.06 0 .06-.036.06-.104 0-.045-.06-.045-.06-.09 0-.023-.044-.08-.044-.08l-.094-.02s-.073.02-.104.02c-.045 0-.086-.146-.113-.204-.027-.082-.027-.195-.027-.295 0-.117.068-.167.068-.23 0-.045.1-.23.112-.298.027-.05.064-.13.1-.194.058-.04.072-.158.09-.212.036-.057.072-.057.108-.098.032-.032.06-.032.068-.032h.08c.05 0 .05.032.11.032.053 0 .135-.027.198-.032.072-.022.013-.04.05-.08l.022-.04.068-.033.1-.05s.035-.022.08-.03c0 .004.005.02.014.03.022 0 .036 0 .036-.01.027-.02.027-.09.054-.048.036.048.04.03.063.07.022.037.008-.012.044.01.032.027.068.027.077.063.028.045 0 .036.082.068.054.028.054.05.1.05h.09c.036-.022.09-.04.09-.04.027-.01.036.013.036.018.01.023 0 .023 0 .054 0 .027-.036.027.01.063.05.023.076.023.085.05.01.005.018.013.05.04.03.032.05.05.076.05h.067c.027 0 .04-.005.054-.005 0 0 0 .005.037.018.023.027.023.027.063.054.04.014.082.014.04.032-.053.045-.094.018-.08.05.022.027-.014.04.04.04.04 0 .023-.018.073.023.03.04.022.04.04.027.032-.032 0-.09.045-.077.04.014 0 .05.08.045.06 0 .06-.03.092-.06.018-.017-.032-.03.045-.04.08 0 .018-.022.113 0 .112.037.12.024.144.042.023.022.036.027.063.058.027.032.045.032.06.045.017 0 .017-.045.048.04.032.078.064.055.086.078 0 .03-.023.027.026.063.054.054.05.05.068.077.032.008-.018 0 .036.045.072.022.054.018.1.058.026.045.04.05.05.073 0 .028.044.05.044.1.005.03.005.045.036.068.045.036.045.03.054.076l.01.04c.017.032.03.046.04.07.01 0 .018.026.04.053.02.05 0 .03.02.058.008.032-.02.032.008.068.04.018.04.01.067.027.026.027.017.014.044.063.028.06.028.046.055.05.03.01.026-.018.044.027.036.036.067.018.076.068.023.072.045.095.064.13 0 .023 0 .02.04.032.045.032.018.032.08.032.065 0 .1 0 .087-.032 0-.013 0-.05.024-.067.036-.01.022-.05.067-.023.042 0 .037-.036.096 0 .068.023.068.023.13.023.033 0 .055-.023.082-.023.018 0 .032.013.08.013.06.01.06.01.12.01.02.017.084.036.094.054 0 .022 0 .045.03.072.042.017.06.053.114.053.045.013.032-.01.072.03.045.033.045.02.068.07.03.076.03.053.05.094.04.045.04.063.063.09.026.032 0 .014.07.095.05.045.073.036.096.068.018.05.018.05.045.08.014.037-.035-.013.068.087.104.067.082.058.14.058.04.01.04-.005.095.01.045.026.063.026.09.067.005.036.005.054.028.072.037 0 .037 0 .073-.01.045-.026.054-.04.117-.035.036.026-.018 0 .06.044.098.018.053 0 .098.045.023.044.04.044.04.085 0 .045-.022.013-.017.072.02.072.02.072.06.072.044.026.022 0 .022.076 0 .05-.014.09.032.09.05.027.09.04.117 0 .02-.022 0-.09.05-.022.05.08.01.022.023.063.023.045.068.045.072.068.014.013 0 0 0 .058-.005.104-.072.104.014.13.062.024.044.015.08.024.018.013.04-.01.072.022.054.045.054.022.06.1.008.062.04.098.04.12-.006.028.013.06.013.095 0 .032 0 .064.018.073.005.013.005.018.032 0 .03-.014 0-.046.054-.055.062 0 .08-.022.107.014.04.06.05.113.04.113 0 .022.01.058.01.058s.03 0 .05.01c.008.008.008-.01.035.03.036.06.064.06.09.1v.086c0 .014.02.014.023.06.01.053-.005.103.027.107.036.015.027 0 .054.015.023.018.023.058.068.058.04 0 .027-.045.054 0 .032.072.032.072.045.077 0 .013.014.045.055.06.04 0 .04-.033.04.008.018.054 0 .04.045.08.032.06.032.073.05.09.03.028.03.02.03.046.024.036.042-.01.05.014.028.04 0 .036.028.072.037.045.015.054.055.054.045.018.018-.01.045.023.014.027.028.03.068.058.04.032.023.032.04.04.01.033.01 0 .032.06.023.054 0 .054.06.072.026.013.026.018.044 0 .032-.018.032.018.032.054-.018.014-.04.014-.018.046.04.023.04.01.058.045.018.05.018.06.018.105 0 .05 0 .036.01.06.03.026.05.008.054.066.036.065.054.12.08.096 0-.018.028-.05.028-.072 0-.023.04-.063.05-.08.017-.033.017-.046.045-.046.02 0 .02-.023.032.013.014.033.014.033.023.07.022.03.05.012.036.067-.013.03-.013.03-.026.05-.01.022-.01.04 0 .067.013.01.013.027 0 .08-.01.028 0 .064.013.073.027.036.06.05.027.077 0 .04-.027.04-.013.077 0 .01-.013.04.014.055.04.018.06-.023.06.018v.08c.013.02.04.02.062.028.036 0 .063.024.077.028v.04c.032 0 .068.01.08.01.02 0 .02 0 .033.04.01.04.022.095.01.095 0 .018 0 .018-.01.05-.014.005-.06.027-.032.054.032.027.04.032.09.05.036 0 .055 0 .073.013.01.023.027.005.036.023.01.01 0 .022.03.054.046.027.06.06.073.06.046 0 .073-.015.113 0 .05.03.03.03.067.044.045.014.01-.013.045.014.032.023.06.036.04.054 0 .023.032.032.02.077 0 .05.012.05 0 .095 0 .03-.046.03 0 .08.035.033.035.033.048.07 0 .017-.027-.024 0 .044.014.085.055.063.064.072.018.013.04-.01.04.027 0 .036 0 .063-.022.086-.028.017-.068-.006-.05.03.023.04.023.06.005.086-.005.01-.036-.045-.018.018.012.05.012.077.017.117.027.042.045.042.027.078-.027.023-.027.068-.027.068s.027.027.027.068c0 .045.018.045 0 .085-.027.04-.027 0-.027.062 0 .046.027.095.045.11.014 0 .04.026.063.026.04.018.027-.018.054.03.03.056.03.056.03.1 0 .06.042.073 0 .082m-11.416-10.05c-.04.055-.04.037-.04.096-.018.058 0 .076-.018.157-.045.086-.077.158-.045.213.046.072.046.072.014.135-.013.046 0 .046-.06.118-.048.063-.11.086-.17.1-.054.013-.027.022-.15.013-.116-.012-.116-.026-.17-.012-.05.013-.1-.014-.118.04-.01.063 0 .04-.08.077-.114.027-.163.013-.218.013-.054 0-.12.032-.212.032-.067 0-.234-.032-.302-.032-.063 0-.17-.027-.262-.027-.085 0-.17 0-.17-.062 0-.054-.155-.077-.07-.108l.118-.068.1-.054.085-.09s.028-.045.037-.11c.005-.053 0-.14 0-.175 0-.04-.064-.198-.064-.198l-.022-.127-.095-.076-.103-.086s-.072 0-.113.014c-.05.027-.058.027-.103.027h-.058l-.077.05-.068.03s-.022-.035-.063.006c-.054.068-.054.077-.08.117l-.082.09s.04.018-.032.073c-.076.04.045.054-.076.04-.122-.013-.176-.058-.176-.058l-.122-.086s-.104-.09-.15-.09c-.035 0-.12-.037-.12-.037s-.02-.032-.073-.055c-.05-.03-.068-.036-.13-.036h-.14c-.006 0-.028 0-.046-.036-.023-.054-.054-.054-.08-.104-.028-.027-.09-.022-.128-.05-.04-.017-.086 0-.136 0-.063 0-.077 0-.126-.017-.06-.032-.06-.04-.06-.127 0-.045-.05-.126-.05-.126s-.102-.113-.102-.162c0-.05.018-.122.027-.203.01-.086-.027-.118-.045-.18 0-.064.036-.073.08-.105.04-.018.014-.054.04-.067.05-.037.087 0 .128-.014.03-.035.005.07 0 .114-.018.04.03.06.108.072.063.023.122.063.158.095.045.046.045.055.126.078.06.01.06-.023.127-.032.067-.045.117.032.153.01.045-.01.08-.046.117-.11.032-.07.05-.053.05-.12 0-.078.036-.087.113-.195.054-.107.054-.03.122-.098.054-.082.072-.04.14-.082.072-.045.072 0 .234-.045.176-.036.068-.005.122-.067.054-.064.054-.046.054-.046s.117-.03.23.028c.113.063 0 0 .05 0 .063 0 .045-.046.045-.046l.072.018s.05-.018.068-.067c.036-.06-.018-.095.054-.13.08-.02.08-.064.12-.046.055.026.06.057.118.026.063-.027.09-.068.113-.032.015.032.078.05.078.11 0 .057.058.07.067.12.01.064.028.095.037.14.018.06 0 .077-.01.15-.018.067-.027.067-.027.135 0 .075-.067.035 0 .075.055.027.145.06.145.06s.063-.01.1.022c.026.05.058.018.116.126.032.095.086.217.086.217s.027.04.036.13c.01.054 0 .036.032.154.054.095.063.08.054.162-.027.063.018.063.018.127v.198l.018.07.167-.2s.068-.036.08-.067c.02-.05.02-.1.074-.1.028 0 .11 0 .122-.027.023-.05.09-.144.09-.144s0-.08.055-.05c.063.032.117-.018.15.032.026.05.026.005.093.05.086.03.104-.032.086.03-.022.082-.022.082-.022.11.022.05 0 .076 0 .12 0 .033.04.16.04.16s.023.05 0 .107m24.86-23.942s-.2 0-.24-.03l-.352-.096-.243.03-.056.03-.067.066-.127.032c-.1.108-.24.144-.22.063.017-.072.017-.162.09-.19l.067-.018-.036-.12-.103.04-.08.022-.037-.136s-.036-.098-.08-.035c-.046.054-.155.077-.155.077l-.072-.023-.104-.09-.1-.09h-.15l-.143-.015s-.068 0-.054.06c.03.058.058.125.058.125s.042.082-.026.127c-.058.045-.185 0-.185 0s0-.023-.055.045c-.072.06.018.03-.072.06-.113.017-.2-.047-.2-.047l-.057-.175s-.014-.118-.082-.077c-.058.06-.166.077-.166.077l-.082.126s-.1.068-.122.13c-.027.064-.027.064-.045.154-.032.08 0 .126-.068.15-.068.017-.11.103-.11.103l-.048.126-.045.094s-.1-.086-.195-.032c-.086.032-.1.095-.1.095s0 .032-.013.1c-.023.085.027.175-.023.194-.068.02-.086.04-.132-.018-.045-.063.13-.063-.045-.063-.153 0-.19-.028-.26 0-.087.026-.21.03-.21.03l-.112.05-.067.145c-.067.095-.225.095-.225.095l-.086.112-.1.09-.017.123-.154-.122h-.057l-.023.113h-.167l-.06-.028-.03.185s0 .04-.09.086c-.104.04-.104.076-.19.103-.09.018-.17.077-.17 0 0-.086.098-.212.012-.19-.086.01-.14.086-.14.086s0 .053-.077.04l-.08-.023-.1-.018-.063.103s.063.054-.023.167c-.09.108-.185.126-.27.108-.095-.032-.073-.072-.136-.09-.068-.018-.04-.063-.194-.018-.13.036-.176.018-.244.036-.067.013-.027.13-.067.013-.004-.095.04-.14-.072-.14-.108 0-.185.018-.185.018s-.108 0-.13-.077c-.02-.08.04-.12-.055-.153-.058-.013-.144.032-.144.032s-.04 0-.054.076c-.023.08 0 .17 0 .17l.14.132.058.04s0 .04-.05.073c-.058.037-.094.06-.17 0-.09-.053-.186-.017-.186-.017l-.063.054s.017.08-.06.113c-.085.05-.212.05-.26.05-.073 0-.15-.068-.15-.068s-.113.018-.136-.1c-.013-.126-.013-.216-.013-.216s-.03-.082-.085-.06c-.063.024-.04 0-.13.042-.082.03-.186.13-.186.13l-.05.204s-.045.04 0 .08l.063.05.113.194-.045.113s-.03.08-.13.08c-.072 0-.194-.018-.194-.018s.022-.063-.04-.13l-.078-.05-.13.05h-.127v-.118l.128-.08.03-.155s.024-.18-.057-.15c-.08.037-.058-.054-.08.037-.02.112-.068.176-.068.176s-.04-.082-.11-.064l-.053.022s-.02.09-.09.15c-.05.062-.105.134-.105.134s.054 0 0 .086c-.03.09-.09.15-.135.194-.063.036-.194.13-.257.13h-.208c-.063 0-.045-.05-.126.02-.096.053-.272.053-.272.053s-.018 0-.06-.105c-.044-.1-.044-.158-.107-.158-.053 0-.225 0-.292.014-.068.028-.2 0-.2 0s-.07-.12-.13-.107c-.063.018.04-.014-.063.018-.104.05-.045.154-.104.05-.062-.108.042-.122-.062-.108-.095.027.045.027-.095.027-.153 0-.09.107-.153 0-.063-.114-.136-.16-.136-.16s-.103-.07-.103 0v.09l-.103.1s-.108.05-.108-.017c0-.054.026-.082 0-.13-.056-.07-.123-.114-.123-.114l-.113-.14s-.095-.07-.063-.14c.023-.06 0-.132-.058-.114-.068.023-.135.037-.135.037s-.113-.095-.02-.154c.105-.033.214-.2.214-.2s-.148 0-.212-.018c-.067-.027-.085.02-.094-.085-.032-.104-.06-.235-.118-.253-.058-.01-.252-.01-.252-.01h-.203s-.08.055-.144.087c-.063.006-.104-.058-.207.006-.114.067-.168.17-.168.17s-.055.037-.06.105c-.017.06-.085.2-.085.2s-.122.1-.18.1c-.077 0-.113-.024-.172.017-.063.036-.09.086-.15.113-.062.058-.13.072-.188.14-.06.063-.1.12-.126.185-.03.067-.03.117-.03.117s.07.04-.024.1c-.072.076-.103.03-.085.135.014.1.086.22.086.22s.095-.07.095.077c0 .145-.07.24-.07.24s-.024.036-.11.085c-.017.022-.044.05-.044.058 0 .023.027.036-.04.086-.11.08-.155.207-.245.19-.107-.028-.18-.028-.184-.082-.036-.063-.036-.144-.108-.167-.054-.018-.072-.104-.158-.036-.08.058-.126.017-.126.107 0 .113-.04.262 0 .32.045.055.1.127.085.195-.023.058.04.058 0 .13-.04.06-.095.122-.172.168-.05.03-.117.013-.167.072-.026.054-.053.26-.076.36-.018.082.077.105 0 .163-.09.06-.108.09-.14.145-.036.063-.067.036-.067.194 0 .144.09.243.09.243s.01-.045.095 0c.045.04.1 0 .08.113l-.008.095s.054.063.158.108c.113.045.036-.045.113.045.054.072.108.136-.032.217-.144.05-.185.05-.212.1-.017.076 0 .175-.094.157-.1-.018-.158 0-.248-.045-.086-.036.022 0-.086-.036-.104-.04-.04-.076-.162-.022-.136.032-.136.06-.194.06-.063 0-.15-.037-.15-.037s0 .064-.112.037c-.126-.027-.18-.06-.185 0-.028.063-.073.045-.073.13 0 .078-.045.16-.045.16s-.095.07-.176.07c-.054 0-.005-.116-.054 0-.032.11 0 .204-.02.3-.012.07-.165.197-.165.197s-.005.027-.005.127.063.132 0 .18c-.086.064-.2.1-.27.1-.06 0-.186.01-.186.01l-.095.072s-.03.117-.085.117h-.22c-.06 0-.06.04-.06.13 0 .086-.022.117-.085.18-.054.064-.2.082-.2.082s-.067.04-.067-.082c0-.126.068-.08 0-.126-.05-.032-.117-.054-.148 0-.023.063-.082.15-.082.15l-.1.026c-.125.135-.112.2-.184.158l-.082-.04-.09.067.01.113s0 .1-.11.1c-.126 0-.176-.073-.198 0-.014.053 0-.073-.014.053-.027.132-.05.2-.13.14-.073-.057-.14-.157-.25-.12-.098.044-.14.063-.184.153-.054.085-.1.067-.126.18-.014.136-.036.36-.014.433.014.095.04.294.04.294l.145.104-.045.13s-.08.055-.1.113c-.026.054-.143-.05-.143-.05l-.168-.08s-.05.072-.185 0c-.082-.037-.136-.064-.18-.113-.042-.05-.082-.104-.082-.145 0-.086-.1-.326-.1-.326s-.045-.112-.17-.085c-.132.02-.1-.074-.132.02-.01.096.158.173-.03.21-.177.04-.21.02-.236-.073-.01-.073.027-.11 0-.185-.01-.045-.167-.113-.167-.113s-.045 0-.117-.02c-.086-.04-.27-.13-.366-.184-.086-.027-.198-.145-.198-.145l-.19-.157s-.02-.135.07-.248c.078-.122.16-.17.23-.253.087-.076.164-.293.083-.293h-.276c-.036 0-.036.153-.108.175-.055.01-.02.09-.118.04-.11-.062.158-.175-.11-.062-.278.094-.32.076-.328.14-.04.067 0 .067-.1.1-.076.04-.243-.033-.288.04-.04.085-.063.126-.04.193.013.06-.04-.036.013.06.07.107.143.143.053.19-.108.053-.185.053-.266.053h-.054l-.118.14s.068.166.04.23c-.022.066-.12-.02-.216.066-.077.073-.037.158-.037.158s0 .11-.067.127c-.05.02-.073.04-.14.082-.06.032-.09.072-.145.117-.057.04-.125.108-.188.166-.06.068-.036.108-.08.172-.042.072 0 .14-.078.162-.08.032-.036-.09-.08.032-.065.113 0 .252 0 .252s-.092-.027-.204.1c-.1.126-.02.018-.1.126-.076.09-.126.18-.18.09-.06-.072-.06-.158-.136-.117-.076.045-.076.045-.14.086-.067.03-.153.084-.153.084s-.058-.085-.12-.085c-.073 0-.123.03-.123.03s-.04-.03-.058-.09c-.015-.068-.07-.126-.14-.108-.07.018-.123.067-.227.108-.095.036-.212-.04-.212-.04l-.07-.136-.07-.077h-.17c-.167 0-.244.04-.244.04s.027.02-.036.087c-.063.058-.1.018-.203.036-.126.022-.194-.018-.194-.018l-.06.018s-.053.022-.17.05c-.122.013-.267-.068-.352-.068-.085 0-.247 0-.347.04-.144.04-.248.068-.266.127-.036.057 0 .184 0 .25v.26s-.077 0-.126.156c-.03.14-.07.2-.03.267.03.067.017.08.107.1.014.012.05.026.068.026l.005.008s.154.203.1.334c-.023.113-.055.17-.055.253 0 .08.032.13.054.185.054.076.144.122.144.22-.032.11 0 .11 0 .24-.032.104 0 .158 0 .325 0 .162-.032.29-.054.352-.005.068-.063.108-.036.194.03.082.13.222.13.222l.18.108s.042.032.042.104v.31s.022.087-.073.16c-.09.053-.112.072-.19.12-.03 0-.053.02-.09.02-.053.013-.108.008-.157-.02-.095-.048-.054-.066-.208-.12-.135-.073-.248-.122-.307-.122-.057 0-.13 0-.224.076-.11.05-.208.05-.258.145-.036.067-.144.18-.167.24-.017.07-.075.202-.075.202s-.086.04-.086.153c0 .104-.02.217 0 .312.03.108.067.24.04.288-.01.073-.04.032-.086.13-.04.114-.04.132-.018.227.018.045.018.068.018.13 0 .073-.1.136-.158.208-.027.06-.027.1-.09.2-.06.07-.095.112-.248.225-.15.09-.22.117-.262.157-.068.04 0 .1-.108.15-.104.035-.136.035-.176-.023-.027-.068-.027-.127-.113-.15-.033-.017-1.274.02-2.036.04-.01 0-.01.006-.018.024l-.014.06-.14.152s-.09.036-.158.036c-.063 0-.15-.018-.167.04-.018.078-.203.078-.162.15.04.08-.04.077.1.08.148.033.184.136.36.07.167-.07.208-.07.312-.11.094-.04.148-.112.243-.072.113.032.127-.08.113.032-.023.13.014.113-.126.13-.14.02-.14-.017-.23.055-.086.08-.24.112-.24.112s-.072.04-.18.022c-.104-.022-.104.018-.19.036-.076.01 0 .04-.135-.018-.153-.072-.244-.072-.33-.072-.08 0-.24-.117-.31-.153-.1-.037-.272-.086-.258-.172.027-.09.027-.257 0-.32-.013-.06 0-.06-.1-.14-.1-.086-.148-.185-.247-.23-.077-.04-.055-.04-.14-.086-.082-.028-.122-.02-.23-.028-.104-.036-.172-.045-.082-.154.082-.117.05-.076.122-.18.08-.072.19-.24.068-.158-.14.086-.28.126-.293.19-.023.072 0 .072-.023.148-.028.073-.028.154-.082.208-.068.06.045-.09-.068.06-.095.143-.18.202-.18.202s-.068.09-.15.108c-.085.018-.17.2-.17.2s-.087.09-.11.206c-.008.11.023.11 0 .217-.008.134-.03.08 0 .18.04.112 0 .243.16.288.13.04.12-.045.202.063.086.105.13.105.248.186.122.077.37.185.37.185s.15.02.2.12c.035.062.057.03.197.143.15.122.172.208.172.208s.09 0 .035-.085c-.036-.045-.06-.135-.1-.203-.04-.045-.076-.113-.148-.163-.055-.046-.1-.046-.055-.095.032-.068.185-.136.185-.136.04.103.018.085.04.184.02.104.132.208.132.208l.07.135.105.023s.027 0 .04.045c.027.086.158 0 .09.086-.063.055-.144.073-.144.073s-.044.013.114.126c.126.09.1.09.153.184.064.086.14.086.163.203.054.086.198.212.198.212s0-.028.086.117c.08.126.253.23.253.297 0 .095.072.158.072.158s.112.054.112 0c-.018-.063.063-.144.063-.144s.14-.194.126-.1c-.012.06.055-.063-.012.06-.086.14-.06.14-.077.22-.008.082-.143.11-.035.15.113.03.072.076.167.03.072-.03.18-.053.18 0 0 .073.15.236.15.236l.148.067.122.078.113.104.072.077.086.116.054.144.068.06.108.085.077.03s0-.08-.014-.14c-.027-.07-.104-.12-.045-.12.06 0 .1.05.1.05s.05.116.113.18l.063.063s-.018.113.064.113c.08 0 .117 0 .19.073.058.077.076.144.076.144l-.118.018s-.067.036-.126-.04c-.077-.045.027-.036-.15-.1l-.193-.063s-.037.127.067.163c.1.04.17.09.275.103.095.037.253.086.253.086l.158.136.122.1.167.09.085.067s.09 0 .13.095c.046.08.168.1.213.18.027.077.14.032.226.1.08.103.045.045.185.148.145.118.25.118.317.167.063.064.018.064.117.122l.293.193s.127.027.158.08v.006l.027.013c.005.01.005.036.02.04.093.14.13.073.188.14l.09.055s.1.085.1.018c0-.073.144-.073.144-.073s.203-.04.122 0c-.095.073-.208.14-.176.194.018.073.122.09.158.15.018.062.1.08.1.184 0 .105.05.23.05.23s.057.042.062.137c.022.072-.005.072.054.207.1.122.1.1.14.212.045.09.05.118.17.2.096.09.096.143.164.27.022.09.063.135.104.17.013.037.04.07.054.096.067.113.144.158.212.22.06.064.045.064.122.186.085.126.067.135.12.293.07.14.218.218.263.263.04.06.08.045.185.15.1.107.163.152.23.216.06.093.118.157.145.21.01.073.126.05.095.16-.023.098-.06.035-.023.166.054.13.054.094.15.176.103.05.103-.032.193.1.086.107.158.107.23.166.027.027.05.054.09.086.063.036.145.1.145.1s-.05.008.076.067c.13.037.18 0 .225.082.045.122.104.067.135.158.005.085.104.15.145.23.036.08.17.15.17.15s.042.03.168.098c.117.072.303.117.303.117s.027.04.18.145c.18.072.23.072.298.167.072.072.072.04.17.153.11.127.06.127.186.172.027.018.068.036.082.045.013.03 0 .05 0 .113.027.108.085.162.144.212.068.067.104.067.19.108.076.04.157.04.24.08.048.046.116.046.152.132.045.086.1.104.122.18.018.09-.023.136.08.158.082.014.09-.022.145.032.037.063.014 0 .095.14.09.113.068.068.19.18.122.1.212.194.212.194s.04-.027.14 0c.104.01.203.154.203.154s.086.063.144.13c.07.068.07.068.166.132.068.094.023.05.127.22.112.163.162.25.24.294.084.036.084.014.143.072.068.068.158.167.2.235.062.072.093.063.134.144.05.113.122.113.122.194 0 .083.09.16.072.227-.032.063 0 .144 0 .144l.054.1s.054-.05.104-.04c.068.04.17 0 .217.072.026.06.053.027.152.104.122.068.17.068.262.1.022.004.04.017.063.022l.753-1.214s.14.023.19.023c.045.018.144 0 .226.085.076.104.076.06.144.14.072.113.235.307.357.357.103.04.194.04.383.094.18.063.31.063.51.076.22.018.38.018.38.018s.166.018.216.04c.063.042.15.154.216.18.072.056.127.114.235.155.126.027.19.022.28.045 0 .013.19.095.45.18.83.312 2.402.894 2.402.894l1.87-1.128h.2s.14.054.167.1c.04.05.058.112.108.135.045.057.08.057.162.084.082.01.208-.045.208-.045s.13-.04.185 0c.06.017.104.044.15.116.017.064 0 .127.076.127.063.027.22.05.22.05s.19-.05.244-.023c.04.022.145.1.145.1s.036 0 .072.103c.04.095.068.06.1.153.026.08.008.11.09.14.09.032.176-.045.176-.045s.054-.107.126-.14c.062-.03.053-.048.12-.048.073.018.096.036.11 0 .022-.045.022-.127.067-.15.054-.013.198-.013.198.028 0 .045.06.14.05.203-.023.054.01.207.01.207s.09.06.112.06c.054 0 .14-.06.08.04-.067.1.06.194.09.212.055 0 .096.027.177.027.08 0 .023-.028.126.017.095.05.163.068.24.095.063.027.148.13.198.185.063.054.126.17.126.17s0 .055-.063.105c-.075.068 0 .06-.062.095-.04.067-.122.1-.1.144.02.033-.022.05.082.09.08.033.162-.04.18.033.018.06-.036.032.018.09.055.068.217.014.276 0 .05-.005.14-.09.234-.03.104.044.09.044.09.112 0 .08.014.126.055.126.04 0 .144-.03.144-.03s.05-.14.086-.118c.045.01.067 0 .113.054.018.063.058.113.058.113s.06.035.09 0c.05-.02.136-.1.136-.1s.054-.046.13-.09c.073-.037.096-.068.15-.055.063.014.036-.013.103.032.068.054.113.167.167.207.068.04.235.154.267.208l.058.063s.136.118.24.118c.117 0 .243-.064.338-.073.086-.018.158-.018.23-.036.05-.01.027-.117.1-.135.067-.024.067-.024.23-.06.148-.018.148-.126.212-.18.076-.06.248-.068.248-.068s.158.01.212 0c.036-.023.13-.113.185-.144.054-.028.167-.06.253-.037.09.01.108-.02.144-.057.054-.032.068-.145.068-.176 0-.036-.014-.1-.036-.145-.033-.036-.07-.144-.07-.194 0-.03.02-.243.02-.243l-.082-.086s.013-.028-.045-.118c-.05-.073-.05-.104-.073-.163v-.132c-.126-.013-.167-.013-.167-.013s.037-.023-.067-.04c-.1-.014-.253-.11-.253-.11s-.14-.08-.158-.152c-.022-.086-.185-.316-.185-.316s-.063-.118-.117-.226c-.05-.116-.1-.216-.127-.256-.036-.08-.1-.212-.144-.357-.036-.144-.153-.663-.19-.75-.013-.084-.036-.315-.058-.445-.032-.118-.122-.452-.104-.537.023-.068.04-.402.06-.497.012-.104.066-.253.103-.352.05-.104.126-.234.19-.275.058-.04.076-.08.18-.08.12 0 .12.04.162-.036.072-.082.144-.258.153-.325.028-.1.104-.14.095-.322-.018-.153-.104-.176.01-.23.13-.077.13-.077.252-.077.13 0 .032.033.13 0 .105-.017.068-.11.105-.18.013-.067.117-.19.117-.19l.068-.116c0 .005 0 .036.045.086.063.068.063.117.17.1.1-.01.114-.1.1-.186-.01-.095-.085-.144-.1-.23-.02-.09.09.027-.02-.185-.1-.213-.15-.272-.132-.358.03-.112-.045-.302-.045-.302s-.086-.38-.1-.433c-.022-.063-.054-.077-.09-.158-.013-.046-.072-.028-.072-.09v-.25l-.085-.072s-.045-.076-.113-.103c-.054-.014-.122-.045-.122-.045s.023.03-.03.148c-.024.09-.037.09-.024.19.023.063 0 .09.023.176 0 .077 0 .162-.087.126-.095-.05-.04-.17-.095-.05-.04.127-.108.127-.108.127s-.06-.126-.086-.185c0-.063-.12-.13-.12-.13s-.164.094-.137-.028c.014-.086.032-.086.032-.153s-.078-.148-.078-.148l-.1-.072.118-.158s.06 0 .126-.077c.068-.095.068-.095.086-.176.018-.073 0-.06.072-.114.09-.077.145-.13.145-.225 0-.072-.033-.144 0-.27.008-.113.075-.18.143-.285.063-.108.172-.148.117-.288-.03-.145-.108-.307-.108-.307s.054-.086.04-.185c-.04-.077 0-.1-.067-.163-.077-.05-.086-.072-.185-.144-.117-.06 0-.018-.208-.06-.18-.04-.135-.066-.26-.04-.123.02-.146-.04-.042-.058.1-.023.14-.05.2-.023.066.023.224.082.224.023 0-.072-.122.018 0-.072.09-.072.154-.072.154-.072s.144.063.117.12c-.05.056-.126.083-.077.123.077.04.18.103.212.162.023.067.09.027.055.158-.055.112-.086.03-.055.112.055.095.055.127.113.032.063-.113.063-.2.063-.275 0-.087 0-.06-.063-.177-.058-.095-.113-.23-.113-.23s0-.11.068 0c.054.135.045.117.108.194.06.08.077.063.1.153.027.072.045.06.045.135 0 .086.06 0 0 .086-.067.082-.144.132-.144.132s-.03-.018-.03.077c0 .103-.024.017.03.175.04.144.04.1.077.212.05.09.05.03.09.158.086.13.036.24.086.13.03-.13.03-.275.053-.33l.04-.193s-.026-.248-.04-.347c-.022-.077.014-.366 0-.488-.022-.12 0-.33.04-.442.04-.1.105-.334.105-.334l.063-.23.07-.216.12-.185.09-.18v-.1l-.162-.023s-.117.04-.117.122c0 .07-.062.234-.062.234v.176s-.018.13-.082.144c-.063.027-.166.027-.153-.018.036-.08.068-.14.068-.14s-.022-.1.023-.162c.04-.064.014-.082.04-.163.024-.053.024-.152.024-.152l.112-.118.03-.135h-.062s-.063-.05-.13.013c-.06.1-.105.046-.105.167 0 .145.036.154-.013.212-.036.064-.06.122-.145.113-.09-.018-.18-.067-.18-.14v-.365s.135-.1.09-.167c-.032-.06-.054-.036-.09-.09-.054-.08-.086-.127-.032-.176.045-.063.045-.176 0-.248-.054-.09.1-.077-.054-.09-.127-.02-.127-.055-.19-.02-.073.033-.1.11-.16.033-.026-.045-.026-.185-.026-.185s.04-.077.09-.18c.055-.1.095-.217.095-.217s.063-.1.166-.113c.11-.027.023-.104.167-.06.14.073.122.073.208.06.073-.027.118-.126.118-.126l.172-.064.117-.117s0-.126.068-.126c.076 0 .076-.042.126-.015.07.014.024 0 .073-.03.077-.037.054-.177.14-.182.08-.027.09-.203.09-.203s-.01-.086-.04-.185c-.014-.104-.05-.176-.05-.176l-.144-.123s-.046-.027-.02-.1c.02-.076.023-.094 0-.162-.05-.054-.05-.153-.1-.14-.075.032-.16.032-.16.032l-.037-.1s.135-.112.086-.166c-.07-.07-.087-.013-.132-.13-.045-.095-.13-.203-.13-.203s-.105-.068-.155.04c-.067.104 0 .19-.067.262-.06.05-.023.063-.13.085-.09.027-.213.113-.213-.023 0-.112.036-.112 0-.18-.068-.06.013-.077-.145-.077-.153 0-.108.145-.153 0-.014-.15.05-.257.113-.212.067.036.144.036.198.127.023.085.23.12.23.12l.1-.102s.185-.163.067-.19c-.09-.023-.126-.08-.108-.18.018-.11-.06-.176.018-.208.09-.01.185-.027.185-.027s.023.14.086.185c.06.05.104.027.135.086.013.063-.032.045.013.17.036.123.036.23.036.23s.098.05.13 0c.03-.067.054-.134.13-.107.06.022-.026 0 .163.04.18.037.226-.018.293.037.046.067.163.05.18.108.02.068 0 .316 0 .316s.05.03-.062.1c-.104.07-.14.053-.118.125.014.086-.05-.018.014.086.063.094.086.26.086.26s-.055.02-.068.114c-.018.08-.018.112 0 .18.013.08.013.15.013.23v.244c0 .1-.03.302-.03.302s0 .09-.08.1c-.096.013-.137.045-.177-.01-.037-.063-.136-.09-.136-.09s0-.018-.058-.045c-.07-.018-.047-.117-.07-.018-.026.108.023.154.023.208 0 .063-.022.063-.022.126 0 .064-.026.25-.026.25s-.014.112-.023.162c-.03.058-.03.153-.03.153s.054.108.08.167c.023.063.05.095.127.19.086.08 0 .207 0 .207l-.104.126-.022.112.05.082s.018.085.14.04c.113-.077.293-.185.348-.158.067.036.085.023.167.036.09.027.103.027.19.027.098 0 .184.055.21-.027.028-.058.087.027.087-.126 0-.176.045-.29.013-.384-.013-.112-.05-.207-.05-.207s-.022-.067-.094-.098c-.067-.046-.067-.082-.067-.14 0-.05.054-.077-.027-.163-.086-.082-.17-.213-.185-.267-.03-.068 0-.208 0-.298 0-.072-.044-.36-.044-.36s-.032-.452 0-.497c.014-.077.06-.27.06-.27l.057-.195v-.275s-.018-.136-.018-.18c0-.068.018-.262.06-.32.04-.07.04-.21.04-.21l-.04-.27s.07-.085-.06-.103c-.13-.023-.315.104-.284-.023.055-.13.073-.068.137-.15.063-.07.063-.355.063-.355s.058-.122.085-.018c.018.11.046.152.046.202 0 .063-.045.29.04.153.073-.13.11-.28.073-.338-.058-.045-.112-.11-.14-.212-.018-.1-.117-.262-.148-.33 0-.03-.032-.104-.05-.194-.005-.09-.032-.175-.032-.22 0-.09.027-.167 0-.217-.018-.076-.103-.374-.103-.374s-.082-.05-.064-.182c.027-.126-.018-.22-.018-.288 0-.064-.094-.217-.067-.285.023-.112.023-.23.023-.356v-.276c0-.068-.05-.27-.05-.34 0-.08 0-.23.028-.35.023-.123.037-.28.037-.348 0-.063.03-.158.05-.27.027-.132.027-.245.08-.358.068-.126.132-.33.132-.33s.11-.058.11-.148c0-.063.015-.248.015-.248l-.06-.018-.085-.104s-.1.077-.112 0c-.018-.05-.018-.09-.082-.158l-.063-.06-.144-.062c-.082-.05-.082.063-.082-.05 0-.108.022-.126-.018-.207-.04-.08.112-.1-.04-.08l-.16.012s-.03.032-.03-.1c0-.12-.032-.23.04-.26.063-.05.108-.05.167-.028.063.027.023 0 .135.027.13.005.244.09.194-.027-.05-.135 0-.022-.05-.135-.035-.09.05-.135.05-.135s.095.248.194.045c.086-.22.02-.294.086-.22.06.09.014.202.014.202s.085.018 0 .19c-.082.157-.145.28-.167.383-.032.09.04.176.022.284-.022.1-.054.123 0 .18.045.065-.022.015.045.065.054.045.158.085.145-.05-.014-.122.085-.167.04-.302-.04-.15-.085-.235-.04-.34.04-.107.085-.048.085-.188 0-.145.014-.22.014-.22v-.236c0-.06-.014-.024.04-.168.06-.144-.013-.045.06-.22.085-.15.17-.33.17-.33s.028-.095.04-.186c.033-.076.078-.252.114-.306.023-.06.054-.018.054-.172 0-.14.073-.077.018-.207-.045-.12-.05-.234-.05-.234s0-.144-.076-.027c-.1.094-.27.21-.27.125 0-.1.054-.1.054-.185v-.068s-.02-.148-.194-.094c-.167.08-.204.045-.167-.054.05-.11.018-.194.094-.203.056-.03.155.01.155.01l.144.04.085.135s0 .312.04.176c.06-.12-.04-.175.073-.265.027-.027.063-.058.095-.085 0-.064.05-.055.085-.055.06-.027.072-.054.068-.027-.01.027-.045.027-.068.027-.027.014-.063.037-.085.055 0 .135-.032.176-.032.23 0 .063.05.22.05.22l.055.114s.013.045.027-.077c.03-.135 0-.077.054-.194.045-.117.063-.18.095-.253.05-.05.068-.095.104-.162.046-.054.095-.118.18-.167.078-.044.042-.017.132-.094.104-.086.13-.217.153-.217.013 0 .103-.15.103-.15l.036-.1s0-.098.08-.166l.09-.077.15-.176-.032-.08-.1.018s-.126-.022-.054-.1c.1-.067-.018-.044.1-.067.094-.012.036-.075.094-.075.077 0 .118-.095.118-.095l.04-.203h-.13l-.086-.045-.014-.045s.208-.136.15-.158c-.064-.02-.15-.028-.15-.055 0 .027 0 .027-.067.054-.092.03-.227.057-.155-.055.045-.1.045-.154.045-.154l-.045-.116s-.117-.036-.085-.09c.013-.073.05-.037.085-.082.014-.067.1.104 0-.194-.135-.284-.176-.284-.135-.284h.135c.045 0 .027-.13.154 0 .13.126.044-.023.13.126.085.14.194.176.166.244-.022.06-.08.06-.067.144.026.09.026.136.066.208.04.068.082.1.082.15V19l-.082.515s.208-.054.208-.163c0-.135-.063-.18 0-.36.077-.177.104-.145.144-.23.037-.09.06-.154.1-.245.045-.072.08-.153.08-.22 0-.06.09-.204.033-.303-.067-.104-.08-.068-.08-.17 0-.11.013-.11-.032-.168-.04-.06-.063-.127-.127-.1-.04.018-.116.018-.116.018l-.104.172s-.144.054-.144 0c0-.077-.04-.316-.04-.316s.013-.072 0-.13c-.028-.07-.028-.15-.077-.24-.042-.108 0-.068-.042-.208-.032-.108-.018-.108-.054-.18-.045-.05-.185-.29-.118-.23.104.067.154.126.204.18.036.072.058.072.1.172.044.117.067.198.094.266.013.045 0 .013.013.126.018.14 0 .172.063.208.06.05.11.108.19.077.06-.04.077-.027.03-.17-.03-.15-.07-.15-.11-.24-.006-.108-.11-.366-.11-.366s-.103-.207-.126-.297c-.018-.082 0-.118-.018-.2-.027-.085-.068-.252-.117-.324-.042-.045-.042-.14-.074-.216-.036-.09 0-.01-.067-.172-.074-.153-.092-.17-.092-.226 0-.073-.018-.122-.018-.208 0-.095 0-.235.018-.32.02-.073.02-.113.02-.222 0-.112.017-.13 0-.216-.02-.086.017-.208-.02-.086-.036.135-.18.19-.18.19l-.126-.14s.018-.14-.06-.063c-.08.085-.04.148-.04.148l.1.095.045.122s.036.172-.104.14c-.144-.04-.144-.023-.158-.113-.032-.077-.045-.04-.086-.15-.05-.094-.11-.18-.132-.274-.018-.077-.08-.217-.08-.217l-.105-.013s-.112.036-.045-.063c.068-.113.068-.127.113-.19.037-.077.078-.144.14-.198.06-.04.123-.15.164-.235.045-.068 0-.1.108-.135.113-.05.185-.05.185-.05l.212.117v.18c0 .063.03.144.03.212 0 .054.02.17-.03.144-.064-.018-.087.095-.15.127v.103l.018.06c.032.076.117.076.117.076s.136-.06.136-.113c0-.064.1-.087.086-.195-.022-.095-.067-.126-.022-.19.036-.05.095-.144.144-.198.04-.072.027-.072.136-.2.103-.125.185-.197.225-.265.03-.06-.04-.185.04-.257.06-.054.153-.054.153-.054l.176.037.094-.036c.162-.058.307-.058.2-.12m-22.176 28.608c-.027-.06-.04-.06-.04-.09 0-.032.013-.05.013-.08-.012-.042-.012-.078-.035-.1-.027-.014-.036-.032-.086-.032-.028.03-.028.03-.04.09-.02.04-.033.04-.06.005-.023-.026.027-.026-.054-.062-.08-.032-.06.022-.06.022-.02.036.037.036-.02.036-.065 0-.1-.022-.1-.022l-.032-.036-.045-.032-.038.032-.027.022-.03.014v.097l-.05.048-.028.063s-.054 0-.04.047c.018.03-.037-.018.018.03.05.033.1.05.1.05s.048.02.03.04c-.005.028-.072.074-.072.074l.027.05.073.018s.036-.03.067-.045c.045-.01.08.014.122 0 .063-.01.08-.04.122 0 .063.027.063.045.117.027.07 0 .078.027.128-.013.05-.082.085-.082.054-.15-.005-.05 0-.044-.014-.1" fill="#1567a9"/><path d="M373.656 52.6c-12.35 0-22.346-9.995-22.346-22.32 0-12.36 9.996-22.367 22.346-22.367 12.328 0 22.35 10.008 22.35 22.368 0 12.325-10.022 22.32-22.35 22.32m0-48.69c-14.553 0-26.348 11.8-26.348 26.37 0 14.536 11.795 26.336 26.348 26.336 14.553 0 26.344-11.8 26.344-26.335 0-14.57-11.79-26.37-26.344-26.37" fill="#1567a9"/></svg>