<svg xmlns="http://www.w3.org/2000/svg" xmlns:xlink="http://www.w3.org/1999/xlink" width="399.313" height="400.008"><defs><radialGradient fx="0" fy="0" cx="0" cy="0" r="1" gradientUnits="userSpaceOnUse" gradientTransform="matrix(258.85 0 0 -258.85 393.44 302.54)" spreadMethod="pad" id="a"><stop offset="0" stop-color="#ffcf01"/><stop offset=".797" stop-color="#9b5437"/><stop offset=".797" stop-color="#9b5437"/><stop offset="1" stop-color="#9b5437"/></radialGradient><linearGradient x2="1" gradientUnits="userSpaceOnUse" gradientTransform="matrix(0 104.8 104.8 0 395.51 197.21)" id="b"><stop offset="0" stop-color="#9fddf9"/><stop offset=".67" stop-color="#84cba5"/><stop offset="1" stop-color="#84cba5"/></linearGradient><linearGradient x2="1" gradientUnits="userSpaceOnUse" gradientTransform="matrix(0 104.8 104.8 0 395.51 301.41)" id="c"><stop offset="0" stop-color="#fff200"/><stop offset=".94" stop-color="#f68b1f"/><stop offset="1" stop-color="#f68b1f"/></linearGradient><linearGradient x2="1" gradientUnits="userSpaceOnUse" gradientTransform="matrix(95.7 5.14 5.14 -95.7 346.13 295.59)" id="d"><stop offset="0" stop-color="#ffcf01"/><stop offset="1" stop-color="#f15822"/></linearGradient><linearGradient x2="1" gradientUnits="userSpaceOnUse" gradientTransform="matrix(81.32 4.37 4.37 -81.32 332.86 347.54)" id="e"><stop offset="0" stop-color="#ffcf01"/><stop offset="1" stop-color="#f15822"/></linearGradient><linearGradient x2="1" gradientUnits="userSpaceOnUse" gradientTransform="matrix(19.72 1.06 1.06 -19.72 337.39 295.12)" id="f"><stop offset="0" stop-color="#ffcf01"/><stop offset="1" stop-color="#f15822"/></linearGradient><linearGradient x2="1" gradientUnits="userSpaceOnUse" gradientTransform="matrix(25.43 1.36 1.36 -25.43 323.05 274.67)" id="g"><stop offset="0" stop-color="#ffcf01"/><stop offset="1" stop-color="#f15822"/></linearGradient><linearGradient x2="1" gradientUnits="userSpaceOnUse" gradientTransform="matrix(58 3.1 3.1 -58 285.06 238.89)" id="h"><stop offset="0" stop-color="#ffcf01"/><stop offset="1" stop-color="#f15822"/></linearGradient><linearGradient x2="1" gradientUnits="userSpaceOnUse" gradientTransform="scale(55) rotate(3.07 -88.21 159.08)" id="i"><stop offset="0" stop-color="#ffcf01"/><stop offset="1" stop-color="#f15822"/></linearGradient><linearGradient x2="1" gradientUnits="userSpaceOnUse" gradientTransform="matrix(28.3 1.52 1.52 -28.3 415.4 322.28)" id="j"><stop offset="0" stop-color="#ffcf01"/><stop offset="1" stop-color="#f15822"/></linearGradient><linearGradient x2="1" gradientUnits="userSpaceOnUse" gradientTransform="matrix(49.67 2.67 2.67 -49.67 434.79 308.79)" id="k"><stop offset="0" stop-color="#ffcf01"/><stop offset="1" stop-color="#f15822"/></linearGradient><linearGradient x2="1" gradientUnits="userSpaceOnUse" gradientTransform="matrix(83.43 4.48 4.48 -83.43 346.03 201.5)" id="l"><stop offset="0" stop-color="#ffcf01"/><stop offset="1" stop-color="#f15822"/></linearGradient><linearGradient x2="1" gradientUnits="userSpaceOnUse" gradientTransform="matrix(31.6 1.7 1.7 -31.6 385.34 230.31)" id="m"><stop offset="0" stop-color="#ffcf01"/><stop offset="1" stop-color="#f15822"/></linearGradient><linearGradient x2="1" gradientUnits="userSpaceOnUse" gradientTransform="matrix(31.84 1.7 1.7 -31.84 392.07 242.94)" id="n"><stop offset="0" stop-color="#ffcf01"/><stop offset="1" stop-color="#f15822"/></linearGradient><linearGradient x2="1" gradientUnits="userSpaceOnUse" gradientTransform="matrix(36.43 1.96 1.96 -36.43 393.04 254.57)" id="o"><stop offset="0" stop-color="#ffcf01"/><stop offset="1" stop-color="#f15822"/></linearGradient><linearGradient x2="1" gradientUnits="userSpaceOnUse" gradientTransform="matrix(37.48 2 2 -37.48 392.84 266.55)" id="p"><stop offset="0" stop-color="#ffcf01"/><stop offset="1" stop-color="#f15822"/></linearGradient><linearGradient x2="1" gradientUnits="userSpaceOnUse" gradientTransform="matrix(38.74 2.08 2.08 -38.74 391.02 277.78)" id="q"><stop offset="0" stop-color="#ffcf01"/><stop offset="1" stop-color="#f15822"/></linearGradient><linearGradient x2="1" gradientUnits="userSpaceOnUse" gradientTransform="matrix(36.7 1.97 1.97 -36.7 388.81 286.5)" id="r"><stop offset="0" stop-color="#ffcf01"/><stop offset="1" stop-color="#f15822"/></linearGradient><radialGradient xlink:href="#a" id="s" gradientUnits="userSpaceOnUse" gradientTransform="matrix(158.75 0 0 -158.75 292.73 201.66)" spreadMethod="pad" cx="0" cy="0" fx="0" fy="0" r="1"/><linearGradient xlink:href="#b" id="t" gradientUnits="userSpaceOnUse" gradientTransform="matrix(0 64.27 64.27 0 294 137.06)" x2="1"/><linearGradient xlink:href="#c" id="u" gradientUnits="userSpaceOnUse" gradientTransform="matrix(0 64.27 64.27 0 294 200.96)" x2="1"/><linearGradient xlink:href="#d" id="v" gradientUnits="userSpaceOnUse" gradientTransform="matrix(58.7 3.15 3.15 -58.7 263.71 197.4)" x2="1"/><linearGradient xlink:href="#e" id="w" gradientUnits="userSpaceOnUse" gradientTransform="matrix(49.88 2.68 2.68 -49.88 255.57 229.25)" x2="1"/><linearGradient xlink:href="#f" id="x" gradientUnits="userSpaceOnUse" gradientTransform="matrix(12.1 .65 .65 -12.1 258.35 197.1)" x2="1"/><linearGradient xlink:href="#g" id="y" gradientUnits="userSpaceOnUse" gradientTransform="matrix(15.6 .84 .84 -15.6 249.56 184.56)" x2="1"/><linearGradient xlink:href="#h" id="z" gradientUnits="userSpaceOnUse" gradientTransform="matrix(35.58 1.9 1.9 -35.58 226.26 162.62)" x2="1"/><linearGradient xlink:href="#i" id="A" gradientUnits="userSpaceOnUse" gradientTransform="matrix(33.67 1.8 1.8 -33.67 334.69 183.25)" x2="1"/><linearGradient xlink:href="#j" id="B" gradientUnits="userSpaceOnUse" gradientTransform="matrix(17.36 .93 .93 -17.36 306.2 213.76)" x2="1"/><linearGradient xlink:href="#k" id="C" gradientUnits="userSpaceOnUse" gradientTransform="matrix(30.46 1.63 1.63 -30.46 318.09 205.49)" x2="1"/><linearGradient xlink:href="#l" id="D" gradientUnits="userSpaceOnUse" gradientTransform="matrix(51.17 2.75 2.75 -51.17 263.66 139.69)" x2="1"/><linearGradient xlink:href="#m" id="E" gradientUnits="userSpaceOnUse" gradientTransform="matrix(19.37 1.04 1.04 -19.37 287.76 157.36)" x2="1"/><linearGradient xlink:href="#n" id="F" gradientUnits="userSpaceOnUse" gradientTransform="matrix(19.53 1.05 1.05 -19.53 291.89 165.1)" x2="1"/><linearGradient xlink:href="#o" id="G" gradientUnits="userSpaceOnUse" gradientTransform="matrix(22.35 1.2 1.2 -22.35 292.48 172.24)" x2="1"/><linearGradient xlink:href="#p" id="H" gradientUnits="userSpaceOnUse" gradientTransform="matrix(23 1.23 1.23 -23 292.37 179.58)" x2="1"/><linearGradient xlink:href="#q" id="I" gradientUnits="userSpaceOnUse" gradientTransform="matrix(23.76 1.28 1.28 -23.76 291.25 186.47)" x2="1"/><linearGradient xlink:href="#r" id="J" gradientUnits="userSpaceOnUse" gradientTransform="matrix(22.5 1.2 1.2 -22.5 289.89 191.81)" x2="1"/></defs><path d="M293.46 360.546c-.018 0-.034.003-.05.003v-.008c-17.797-.32-7.36-30.734-7.36-30.734l-6.853-1.612-1.125-7.69c-20.405-2.547-39.217-10.213-55.118-21.67l-6.02 4.85-6.124-3.475s-13.012 29.407-26.286 17.545l-.004.006c-.013-.01-.02-.024-.034-.036-.012-.01-.027-.02-.038-.032l.004-.004c-12.84-12.327 15.49-27.546 15.49-27.546l-3.932-5.84 4.463-6.496c-14.518-17.56-24.132-39.317-26.765-63.18l-7.48-1.223-1.498-6.88s-30.586 9.923-30.604-7.878h-.007c0-.018.003-.032.003-.05l-.002-.05h.008c.618-17.788 30.853-6.837 30.853-6.837l1.727-6.825 7.52-.97c2.944-20.304 10.96-38.962 22.73-54.646l-4.382-5.696 3.612-6.042s-29.103-13.676-16.943-26.677l-.006-.004c.013-.013.025-.02.038-.032l.032-.04.005.005c12.616-12.556 27.188 16.108 27.188 16.108l5.927-3.797 5.857 4.224c16.742-13.346 37.123-22.316 59.418-25.17l1.01-6.993 6.85-1.628s-10.505-30.39 7.293-30.748v-.008c.017 0 .03.005.05.005.016 0 .032-.004.05-.004v.008c17.797.28 7.424 30.717 7.424 30.717l6.854 1.597 1.045 7.03c21.562 2.716 41.34 11.154 57.78 23.736l5.352-4.058 6.017 3.654s13.876-29.01 26.792-16.763l.005-.004c.013.013.02.025.033.037.01.012.027.02.038.033l-.004.004c12.47 12.702-16.297 27.08-16.297 27.08l3.76 5.95-4.02 5.496c12.686 16.193 21.298 35.73 24.312 57.064l6.683.854 1.737 6.825s30.22-10.99 30.862 6.797h.007c0 .018-.003.034-.002.05 0 .017.003.033.003.05h-.005c.006 17.798-30.593 7.918-30.593 7.918l-1.488 6.88-6.772 1.12c-2.65 23.642-12.157 45.212-26.495 62.666l4.293 6.11-3.87 5.882s28.485 14.92 15.776 27.383l.004.006c-.014.01-.025.02-.038.032-.012.012-.022.025-.034.036l-.006-.004c-13.147 12-26.467-17.268-26.467-17.268l-6.086 3.538-5.916-4.665c-15.794 11.477-34.49 19.2-54.785 21.86l-1.14 7.782-6.853 1.612s10.438 30.415-7.36 30.733v.007l-.048-.003" fill="url(#s)" transform="matrix(1.25 0 0 -1.25 -166.25 452.07)"/><path d="M397.926 203.42h-.008c.008-22.25-38.242-9.9-38.242-9.9l-1.86-8.6-8.463-1.398c-3.315-29.554-15.198-56.516-33.12-78.333l5.366-7.64-4.84-7.352s35.607-18.65 19.723-34.23l.005-.005c-.017-.014-.032-.025-.048-.04s-.027-.03-.043-.046l-.007.005c-16.433-14.998-33.084 21.586-33.084 21.586l-7.607-4.423-7.394 5.83c-19.744-14.344-43.115-24-68.482-27.322l-1.424-9.73-8.566-2.014s13.048-38.02-9.2-38.418v-.01c-.02 0-.04.005-.06.005-.022 0-.04-.004-.063-.004v.01c-22.245.397-9.198 38.416-9.198 38.416l-8.566 2.014-1.406 9.612c-25.507 3.185-49.023 12.768-68.898 27.09l-7.525-6.065-7.656 4.345s-16.264-36.757-32.855-21.93l-.005-.006c-.016.014-.027.03-.044.044-.015.014-.032.025-.047.04l.004.005c-16.05 15.41 19.36 34.432 19.36 34.432l-4.914 7.3 5.58 8.12c-18.147 21.95-30.164 49.146-33.456 78.974l-9.35 1.53-1.872 8.6s-38.234-12.404-38.256 9.847h-.01c0 .022.006.04.006.062.002.02-.002.042-.002.062h.01c.77 22.237 38.565 8.55 38.565 8.55l2.158 8.53 9.4 1.21c3.68 25.38 13.7 48.704 28.41 68.308l-5.476 7.12 4.515 7.555s-36.378 17.095-21.178 33.346l-.007.006c.016.016.032.026.047.04.013.016.025.033.04.05l.007-.007c15.77 15.695 33.986-20.136 33.986-20.136l7.407 4.747 7.322-5.28c20.927 16.683 46.402 27.895 74.273 31.462l1.26 8.742 8.563 2.034s-13.13 37.99 9.118 38.436v.01c.022 0 .04-.006.062-.006.02 0 .042.006.062.006v-.01c22.248-.35 9.282-38.396 9.282-38.396l8.567-1.995 1.308-8.785c26.954-3.398 51.677-13.943 72.225-29.672l6.69 5.073 7.523-4.568s17.345 36.263 33.492 20.952l.005.006c.016-.016.026-.03.042-.046.014-.015.032-.027.046-.042l-.004-.005c15.588-15.878-20.37-33.847-20.37-33.847l4.7-7.44-5.026-6.87c15.86-20.242 26.623-44.66 30.39-71.33l8.356-1.068 2.17-8.53s37.777 13.74 38.58-8.496h.008c0-.022-.004-.042-.003-.062 0-.02.005-.042.005-.062z" fill="none" stroke="#231f20" stroke-width="2.7700000000000005"/><path d="M200.094 67.887c-73.188 0-132.516 59.328-132.516 132.516 0 73.188 59.328 132.518 132.516 132.518 73.188 0 132.517-59.33 132.517-132.517 0-73.188-59.328-132.516-132.516-132.516" fill="#fff"/><path d="M200.094 67.887c-73.188 0-132.516 59.328-132.516 132.516 0 73.188 59.328 132.518 132.516 132.518 73.188 0 132.517-59.33 132.517-132.517 0-73.188-59.328-132.516-132.516-132.516z" fill="none" stroke="#000" stroke-width="2.0774999999999997"/><path d="M101.642 271.898l3.043-2.533 3.41 4.098-.24.2c-.59.49-.88 1.026-.868 1.604.013.578.32 1.23.926 1.957.472.567.97.928 1.498 1.085.528.155.98.077 1.358-.238.367-.306.52-.75.463-1.328-.058-.58-.36-1.434-.902-2.564-.12-.252-.294-.613-.524-1.084-.843-1.705-1.36-2.986-1.55-3.842-.19-.882-.207-1.628-.046-2.242.16-.614.518-1.15 1.072-1.613 1.092-.908 2.413-1.072 3.964-.49 1.552.58 3.116 1.817 4.69 3.71.925 1.11 1.688 2.25 2.29 3.418.603 1.167 1.053 2.385 1.35 3.652l-2.86 2.38-3.35-4.026.217-.18c.522-.434.78-.932.772-1.494-.007-.56-.277-1.16-.81-1.8-.498-.6-1-.992-1.504-1.18-.503-.19-.926-.143-1.267.14-.318.267-.418.69-.298 1.273s.617 1.735 1.49 3.456c1.15 2.258 1.742 3.955 1.777 5.09.032 1.134-.435 2.105-1.404 2.91-1.156.963-2.54 1.18-4.153.648-1.613-.53-3.2-1.733-4.762-3.61-.99-1.19-1.805-2.415-2.446-3.672-.642-1.257-1.086-2.5-1.332-3.728M114.28 288.777l1.723-2.027c.402.25.73.358.983.325.254-.035.59-.296 1.007-.788l4.737-5.574c.418-.49.623-.864.616-1.12-.008-.256-.167-.563-.48-.918l1.657-1.947 12.73 10.82-3.13 3.682-3.917-3.33.108-.128c.394-.464.512-.924.352-1.377-.16-.453-.643-1.024-1.45-1.71l-1.545-1.313-2.14 2.517 4.942 4.2-1.723 2.026-4.94-4.2-2.464 2.898 1.83 1.555c.703.598 1.27.923 1.697.972.428.05.856-.175 1.282-.676l.37-.436 3.918 3.332-3.432 4.037-12.73-10.823zM139.138 299.296l2.77 1.653 1.706-6.025-4.476 4.37zm-9.365 2.316l1.362-2.286c.36.127.68.15.964.073.28-.078.654-.334 1.118-.766l8.764-8.155 7 4.173-2.845 11.986c-.11.49-.13.868-.058 1.132.07.265.243.523.517.775l-1.362 2.285-6.935-4.136 1.362-2.284c.323.168.61.25.86.246.25-.003.43-.098.54-.282.03-.048.06-.11.09-.182.033-.074.063-.154.092-.243l.166-.674-3.936-2.346-.482.414c-.075.084-.136.154-.182.212-.046.057-.085.112-.116.166-.136.226-.147.444-.038.656.11.21.354.436.73.677l-1.362 2.285-6.25-3.728zM148.17 312.145l.97-2.476c.46.104.805.1 1.034-.015.23-.114.46-.472.696-1.072l2.667-6.81c.236-.6.308-1.02.218-1.262-.09-.238-.34-.475-.75-.71l.932-2.38 15.166 5.94-1.77 4.518-4.484-1.756.05-.136c.218-.555.188-1.017-.09-1.387-.28-.37-.875-.734-1.784-1.09l-1.974-.772-1.175 3 5.747 2.25-.97 2.477-5.747-2.252-.928 2.37c-.23.588-.302 1.016-.21 1.286.088.268.336.497.742.686l-.97 2.477-7.373-2.888zM174.67 309.908l-1.115 5.31c-.17.81-.1 1.435.212 1.87.312.433.906.74 1.78.925.855.18 1.51.135 1.964-.134.455-.27.77-.814.942-1.634l1.115-5.308c.17-.815.103-1.436-.205-1.865-.31-.43-.89-.734-1.744-.913-.875-.185-1.542-.14-2.002.13-.46.273-.776.812-.945 1.618m-5.363-1c.263-1.253.543-2.122.84-2.605.3-.482.71-.866 1.24-1.152.716-.378 1.63-.58 2.745-.6 1.114-.02 2.495.142 4.142.488 1.627.342 2.94.743 3.935 1.204.997.46 1.756 1.015 2.28 1.663.366.474.587 1 .663 1.578.075.578-.017 1.478-.273 2.698l-1.064 5.065c-.258 1.227-.537 2.09-.838 2.585-.3.496-.715.887-1.242 1.173-.74.382-1.657.585-2.756.61-1.1.023-2.46-.136-4.088-.477-1.647-.347-2.977-.754-3.99-1.22-1.01-.47-1.766-1.023-2.27-1.667-.366-.474-.59-.99-.67-1.55-.078-.557.015-1.467.28-2.727l1.065-5.065zM193.28 312.638l-.22 5.42c-.034.83.14 1.434.52 1.81.38.376 1.015.58 1.908.618.872.035 1.51-.117 1.914-.457.404-.343.622-.93.657-1.77l.22-5.42c.032-.83-.14-1.43-.513-1.803-.375-.372-1-.576-1.87-.612-.893-.036-1.545.12-1.954.462-.41.344-.63.928-.664 1.75m-5.457-.095c.053-1.28.185-2.184.4-2.71.213-.524.556-.97 1.03-1.34.643-.494 1.512-.844 2.607-1.048 1.095-.206 2.483-.274 4.165-.206 1.662.068 3.022.246 4.08.535 1.06.29 1.902.71 2.524 1.262.44.406.746.888.916 1.447.17.557.228 1.46.178 2.705l-.21 5.17c-.05 1.254-.183 2.15-.397 2.69-.214.538-.558.992-1.03 1.36-.665.5-1.538.853-2.617 1.06-1.08.205-2.45.273-4.112.207-1.68-.068-3.06-.25-4.135-.542-1.074-.294-1.912-.716-2.514-1.267-.443-.407-.75-.878-.92-1.416-.17-.538-.228-1.45-.177-2.737l.21-5.17zM214.13 319.53l1.59-.207c1.29-.165 2.13-.417 2.528-.755.397-.338.536-.956.42-1.856l-.61-4.73c-.135-1.045-.43-1.7-.89-1.97s-1.256-.33-2.39-.185l-.31.04-1.558.223 1.22 9.44zm1.58 2.99l-7.822 1.01-.34-2.638c.455-.128.754-.297.9-.51.146-.21.177-.635.095-1.274l-.937-7.254c-.082-.64-.22-1.042-.415-1.21-.194-.167-.527-.255-1-.263l-.327-2.534 7.822-1.01c3.483-.45 5.923-.333 7.32.348 1.4.683 2.243 2.147 2.532 4.394l.485 3.75c.306 2.364-.102 4.037-1.22 5.02-1.122.983-3.485 1.707-7.092 2.172M248.7 310.08l-1.467-3.542-2.06.852c-1.104.457-1.823.91-2.154 1.36-.333.447-.37.98-.113 1.602.273.66.706 1.027 1.3 1.103.595.078 1.502-.137 2.72-.642l1.772-.733zm5.92 1.137l-7.433 3.077c-2.727 1.128-4.784 1.59-6.173 1.386-1.39-.205-2.41-1.09-3.058-2.66-.394-.954-.43-1.84-.106-2.66.324-.82 1.01-1.568 2.058-2.242-1.17.11-2.118.012-2.847-.294-.727-.306-1.242-.824-1.544-1.554-.503-1.216-.26-2.435.73-3.658.988-1.223 2.6-2.298 4.838-3.224 1.258-.52 2.56-.922 3.905-1.206 1.343-.283 2.692-.434 4.045-.454l1.04 2.516-4.823 1.996c-.17-.274-.49-.423-.954-.45-.466-.023-.986.084-1.562.322-.75.31-1.278.69-1.59 1.136-.31.447-.36.916-.158 1.41.207.498.604.764 1.19.795.587.03 1.412-.175 2.48-.616l1.597-.66-.21-.51 4.65-1.926.21.51.866-.358.978 2.362-.864.358 2.735 6.605zM262.48 294.735c-.69-.91-1.133-1.604-1.324-2.087-.19-.48-.265-.968-.223-1.462.072-.865.468-1.76 1.185-2.687.72-.927 1.817-1.954 3.298-3.08 1.033-.788 2.116-1.492 3.25-2.112 1.135-.62 2.315-1.154 3.542-1.602l2.544 3.34-4.116 3.136-.05-.067c-.428-.56-.91-.855-1.445-.878-.532-.025-1.13.216-1.79.72-.712.54-1.116 1.075-1.21 1.6-.097.527.105 1.117.605 1.773l3.287 4.314c.504.662 1.022 1.016 1.554 1.063.532.047 1.155-.2 1.865-.742.696-.53 1.09-1.054 1.184-1.573.093-.52-.114-1.113-.622-1.78l-.334-.438-1.748 1.33-1.537-2.015 5.865-4.47 4.307 5.654c-.578 1.06-1.307 2.082-2.187 3.07-.88.99-1.878 1.91-2.993 2.76-1.34 1.02-2.516 1.76-3.53 2.22-1.016.458-1.93.668-2.746.627-.604-.036-1.15-.215-1.635-.536-.487-.322-1.106-.976-1.858-1.963l-3.136-4.115zM282.825 279.336l1.463-1.576c.687-.738 1.078-1.38 1.174-1.92.097-.542-.09-1.03-.563-1.47-.478-.443-.99-.6-1.53-.475-.544.127-1.145.544-1.803 1.252l-1.506 1.622 2.765 2.566zm3.502 3.253c.482.447.847.673 1.095.676.247.002.552-.14.913-.428l1.95 1.81-5.368 5.78-1.948-1.81c.266-.39.39-.713.366-.968-.023-.255-.27-.603-.743-1.04l-5.36-4.98c-.47-.438-.836-.66-1.092-.663-.255-.004-.568.142-.937.437l-1.873-1.74 6.343-6.83c1.86-2 3.48-3.21 4.858-3.624 1.378-.415 2.65-.082 3.81.997.716.665 1.094 1.434 1.134 2.308.04.873-.262 1.813-.904 2.82.898-.712 1.63-1.108 2.193-1.187.565-.078 1.126.142 1.685.66l.624.58c.432.402.776.62 1.033.652.258.033.537-.072.84-.316l1.95 1.81-4 4.306c-.29-.044-.576-.14-.854-.294-.28-.152-.67-.463-1.172-.93l-1.485-1.378c-.573-.533-1.087-.745-1.544-.636-.456.108-1.062.57-1.818 1.385l-1.157 1.245 1.462 1.357zM299.76 265.863c.54.377.932.55 1.178.518.245-.03.525-.21.837-.536l2.182 1.522-4.504 6.455-2.182-1.52c.206-.416.28-.747.22-.997-.056-.25-.35-.56-.878-.927l-6-4.186c-.528-.37-.92-.537-1.174-.505-.254.03-.54.215-.86.55l-2.095-1.463 4.503-6.455 2.097 1.462c-.2.406-.27.73-.21.974.057.243.354.552.888.923l6 4.186zM313.925 249.323l-7.377 14.224-2.36-1.225c.152-.447.185-.79.094-1.03-.09-.24-.42-.508-.993-.804l-6.495-3.37c-.572-.296-.982-.412-1.23-.347-.247.065-.51.29-.787.672l-2.27-1.177 3.633-7 2.27 1.176c-.145.43-.173.763-.087 1.002.088.237.42.507.998.806l7.648 3.966.825-1.59c.49-.94.694-1.654.618-2.138-.075-.485-.57-.965-1.488-1.44l-1.55-.803 2.19-4.22 6.364 3.3zM320.303 230.7l-5.013 15.218-2.526-.833c.08-.466.056-.81-.07-1.03-.128-.225-.498-.436-1.11-.638l-6.948-2.29c-.61-.2-1.035-.25-1.27-.146-.233.104-.457.367-.67.79l-2.428-.8 2.468-7.49 2.428.8c-.074.445-.05.78.075 1 .123.222.494.434 1.113.638l8.18 2.694.562-1.702c.332-1.006.42-1.743.268-2.21-.153-.465-.72-.86-1.7-1.182l-1.658-.547 1.488-4.514 6.81 2.243z" fill="#d2181f"/><path d="M95.553 241.46c-2.323.572-4.022.856-5.098.853-1.076-.003-2.06-.213-2.955-.63-1.568-.728-2.91-2.04-4.027-3.935-1.116-1.894-2.088-4.52-2.917-7.88-.578-2.347-.954-4.722-1.13-7.128-.175-2.406-.146-4.832.087-7.278l9.08-2.238 2.303 9.346-.633.156c-1.464.36-2.46 1-2.988 1.916-.528.918-.607 2.126-.237 3.628.398 1.613 1.05 2.687 1.958 3.22.908.532 2.2.592 3.874.18l11.022-2.717c1.69-.416 2.812-1.072 3.368-1.965.556-.894.635-2.147.237-3.762-.388-1.576-1.032-2.627-1.93-3.15-.9-.527-2.2-.58-3.903-.16l-2.28.562-2.304-9.347 11.02-2.715c1.313 1.867 2.472 3.935 3.48 6.205 1.007 2.27 1.807 4.606 2.4 7.008.748 3.04 1.11 5.604 1.088 7.69-.023 2.086-.43 3.824-1.223 5.214-.584 1.02-1.39 1.84-2.417 2.462-1.026.622-2.813 1.246-5.36 1.874l-10.515 2.592z"/><path d="M95.553 241.46c-2.323.572-4.022.856-5.098.853-1.076-.003-2.06-.213-2.955-.63-1.568-.728-2.91-2.04-4.027-3.935-1.116-1.894-2.088-4.52-2.917-7.88-.578-2.347-.954-4.722-1.13-7.128-.175-2.406-.146-4.832.087-7.278l9.08-2.238 2.303 9.346-.633.156c-1.464.36-2.46 1-2.988 1.916-.528.918-.607 2.126-.237 3.628.398 1.613 1.05 2.687 1.958 3.22.908.532 2.2.592 3.874.18l11.022-2.717c1.69-.416 2.812-1.072 3.368-1.965.556-.894.635-2.147.237-3.762-.388-1.576-1.032-2.627-1.93-3.15-.9-.527-2.2-.58-3.903-.16l-2.28.562-2.304-9.347 11.02-2.715c1.313 1.867 2.472 3.935 3.48 6.205 1.007 2.27 1.807 4.606 2.4 7.008.748 3.04 1.11 5.604 1.088 7.69-.023 2.086-.43 3.824-1.223 5.214-.584 1.02-1.39 1.84-2.417 2.462-1.026.622-2.813 1.246-5.36 1.874l-10.515 2.592z" fill="none" stroke="#000" stroke-width="1.3850000000000002"/><path d="M109.502 203.455l-5.516-.75c-.026-.882-.217-1.507-.568-1.877-.352-.37-1.196-.646-2.533-.827l-15.17-2.06c-1.335-.183-2.222-.142-2.66.12-.437.263-.787.815-1.048 1.658l-5.3-.72 4.186-30.8 10.02 1.362-1.29 9.48-.344-.046c-1.265-.17-2.2.092-2.808.79-.607.698-1.043 2.023-1.308 3.976l-.508 3.735 6.852.932 1.625-11.952 5.515.75-1.624 11.952 7.886 1.07.602-4.423c.232-1.705.144-2.92-.26-3.65-.407-.727-1.292-1.184-2.657-1.37l-1.185-.16 1.29-9.48 10.988 1.492-4.186 30.8z"/><path d="M109.502 203.455l-5.516-.75c-.026-.882-.217-1.507-.568-1.877-.352-.37-1.196-.646-2.533-.827l-15.17-2.06c-1.335-.183-2.222-.142-2.66.12-.437.263-.787.815-1.048 1.658l-5.3-.72 4.186-30.8 10.02 1.362-1.29 9.48-.344-.046c-1.265-.17-2.2.092-2.808.79-.607.698-1.043 2.023-1.308 3.976l-.508 3.735 6.852.932 1.625-11.952 5.515.75-1.624 11.952 7.886 1.07.602-4.423c.232-1.705.144-2.92-.26-3.65-.407-.727-1.292-1.184-2.657-1.37l-1.185-.16 1.29-9.48 10.988 1.492-4.186 30.8z" fill="none" stroke="#000" stroke-width="1.3850000000000002"/><path d="M117.252 166.117l-25.19-5.247c-1-.21-1.76-.23-2.28-.06-.517.17-1.043.552-1.575 1.147l-4.762-2.438 6.953-13.575 4.76 2.438c-.253.782-.336 1.392-.25 1.826.086.435.355.767.807 1 .168.086.333.153.494.203.16.05.34.093.533.127l18.76 4.202-14.363-12.31c-.125-.106-.266-.21-.425-.315-.16-.103-.367-.22-.626-.352-.49-.252-.938-.286-1.342-.1-.404.183-.85.628-1.342 1.332l-4.76-2.44 6.17-12.05 4.763 2.438c-.12.678-.068 1.29.156 1.84s.65 1.114 1.28 1.698l19.175 17.085-6.938 13.55z"/><path d="M117.252 166.117l-25.19-5.247c-1-.21-1.76-.23-2.28-.06-.517.17-1.043.552-1.575 1.147l-4.762-2.438 6.953-13.575 4.76 2.438c-.253.782-.336 1.392-.25 1.826.086.435.355.767.807 1 .168.086.333.153.494.203.16.05.34.093.533.127l18.76 4.202-14.363-12.31c-.125-.106-.266-.21-.425-.315-.16-.103-.367-.22-.626-.352-.49-.252-.938-.286-1.342-.1-.404.183-.85.628-1.342 1.332l-4.76-2.44 6.17-12.05 4.763 2.438c-.12.678-.068 1.29.156 1.84s.65 1.114 1.28 1.698l19.175 17.085-6.938 13.55z" fill="none" stroke="#000" stroke-width="1.3850000000000002"/><path d="M131.476 129.765c1.01.937 1.76 1.423 2.252 1.457.492.035 1.074-.203 1.745-.713l4.08 3.786-9.96 10.732-4.08-3.787c.472-.722.67-1.335.595-1.84-.075-.505-.606-1.216-1.595-2.134l-11.22-10.413c-.99-.918-1.737-1.395-2.247-1.432-.51-.037-1.106.207-1.79.73l-3.922-3.638 9.962-10.732 3.92 3.64c-.46.708-.65 1.308-.574 1.8.077.494.615 1.204 1.613 2.13l11.22 10.415z"/><path d="M131.476 129.765c1.01.937 1.76 1.423 2.252 1.457.492.035 1.074-.203 1.745-.713l4.08 3.786-9.96 10.732-4.08-3.787c.472-.722.67-1.335.595-1.84-.075-.505-.606-1.216-1.595-2.134l-11.22-10.413c-.99-.918-1.737-1.395-2.247-1.432-.51-.037-1.106.207-1.79.73l-3.922-3.638 9.962-10.732 3.92 3.64c-.46.708-.65 1.308-.574 1.8.077.494.615 1.204 1.613 2.13l11.22 10.415z" fill="none" stroke="#000" stroke-width="1.3850000000000002"/><path d="M130.962 111.922c-1.214-2.062-1.973-3.61-2.277-4.64-.305-1.032-.386-2.036-.243-3.012.25-1.71 1.12-3.372 2.618-4.985 1.495-1.612 3.734-3.296 6.716-5.052 2.08-1.225 4.25-2.266 6.506-3.122 2.254-.855 4.587-1.522 6.997-2l4.743 8.06-8.295 4.882-.332-.562c-.764-1.3-1.66-2.07-2.69-2.314-1.03-.243-2.21.027-3.544.81-1.433.844-2.274 1.777-2.524 2.8-.25 1.022.06 2.276.937 3.762l5.758 9.783c.882 1.5 1.83 2.39 2.847 2.665 1.015.277 2.24-.006 3.672-.85 1.4-.823 2.222-1.74 2.468-2.75.246-1.012-.076-2.274-.967-3.785l-1.19-2.024 8.295-4.884 5.758 9.782c-1.414 1.79-3.063 3.494-4.95 5.11-1.887 1.615-3.896 3.05-6.028 4.305-2.698 1.588-5.05 2.67-7.056 3.244-2.005.575-3.787.682-5.345.32-1.145-.267-2.162-.804-3.052-1.61-.888-.805-2-2.34-3.33-4.6l-5.493-9.332z"/><path d="M130.962 111.922c-1.214-2.062-1.973-3.61-2.277-4.64-.305-1.032-.386-2.036-.243-3.012.25-1.71 1.12-3.372 2.618-4.985 1.495-1.612 3.734-3.296 6.716-5.052 2.08-1.225 4.25-2.266 6.506-3.122 2.254-.855 4.587-1.522 6.997-2l4.743 8.06-8.295 4.882-.332-.562c-.764-1.3-1.66-2.07-2.69-2.314-1.03-.243-2.21.027-3.544.81-1.433.844-2.274 1.777-2.524 2.8-.25 1.022.06 2.276.937 3.762l5.758 9.783c.882 1.5 1.83 2.39 2.847 2.665 1.015.277 2.24-.006 3.672-.85 1.4-.823 2.222-1.74 2.468-2.75.246-1.012-.076-2.274-.967-3.785l-1.19-2.024 8.295-4.884 5.758 9.782c-1.414 1.79-3.063 3.494-4.95 5.11-1.887 1.615-3.896 3.05-6.028 4.305-2.698 1.588-5.05 2.67-7.056 3.244-2.005.575-3.787.682-5.345.32-1.145-.267-2.162-.804-3.052-1.61-.888-.805-2-2.34-3.33-4.6l-5.493-9.332z" fill="none" stroke="#000" stroke-width="1.3850000000000002"/><path d="M182.523 103.51c.178 1.365.447 2.218.803 2.558.357.34.966.528 1.83.56l.722 5.52-14.546 1.908-.724-5.52c.843-.256 1.398-.603 1.66-1.04.267-.437.31-1.324.135-2.66l-1.99-15.18c-.174-1.336-.447-2.182-.815-2.535-.368-.353-.992-.545-1.873-.576l-.696-5.304 14.545-1.907.696 5.304c-.804.252-1.34.592-1.605 1.022-.266.428-.31 1.32-.132 2.67l.574 4.377 9.314-1.222-.573-4.376c-.18-1.367-.447-2.22-.803-2.56-.357-.34-.966-.528-1.828-.56l-.696-5.306 14.547-1.907.695 5.304c-.824.256-1.373.605-1.646 1.05-.274.446-.323 1.33-.15 2.652l1.99 15.18c.176 1.336.448 2.18.816 2.535.368.354.992.546 1.873.577l.725 5.52-14.547 1.906-.724-5.52c.823-.253 1.364-.59 1.62-1.012.258-.42.296-1.315.117-2.68l-.687-5.24-9.314 1.222.687 5.24z"/><path d="M182.523 103.51c.178 1.365.447 2.218.803 2.558.357.34.966.528 1.83.56l.722 5.52-14.546 1.908-.724-5.52c.843-.256 1.398-.603 1.66-1.04.267-.437.31-1.324.135-2.66l-1.99-15.18c-.174-1.336-.447-2.182-.815-2.535-.368-.353-.992-.545-1.873-.576l-.696-5.304 14.545-1.907.696 5.304c-.804.252-1.34.592-1.605 1.022-.266.428-.31 1.32-.132 2.67l.574 4.377 9.314-1.222-.573-4.376c-.18-1.367-.447-2.22-.803-2.56-.357-.34-.966-.528-1.828-.56l-.696-5.306 14.547-1.907.695 5.304c-.824.256-1.373.605-1.646 1.05-.274.446-.323 1.33-.15 2.652l1.99 15.18c.176 1.336.448 2.18.816 2.535.368.354.992.546 1.873.577l.725 5.52-14.547 1.906-.724-5.52c.823-.253 1.364-.59 1.62-1.012.258-.42.296-1.315.117-2.68l-.687-5.24-9.314 1.222.687 5.24z" fill="none" stroke="#000" stroke-width="1.3850000000000002"/><path d="M210.527 110.34l1.565-5.344c.875.106 1.52.01 1.94-.28.418-.294.817-1.088 1.196-2.382l4.3-14.69c.38-1.295.473-2.178.28-2.65-.195-.473-.69-.9-1.483-1.285l1.503-5.135 29.83 8.735-2.842 9.705-9.183-2.69.097-.333c.36-1.224.24-2.19-.36-2.893-.6-.705-1.846-1.334-3.737-1.89l-3.618-1.057-1.943 6.635 11.575 3.39-1.565 5.343-11.575-3.388-2.236 7.638 4.286 1.255c1.65.483 2.867.578 3.646.286.782-.292 1.366-1.1 1.753-2.42l.336-1.15 9.183 2.69-3.117 10.643-29.83-8.734z"/><path d="M210.527 110.34l1.565-5.344c.875.106 1.52.01 1.94-.28.418-.294.817-1.088 1.196-2.382l4.3-14.69c.38-1.295.473-2.178.28-2.65-.195-.473-.69-.9-1.483-1.285l1.503-5.135 29.83 8.735-2.842 9.705-9.183-2.69.097-.333c.36-1.224.24-2.19-.36-2.893-.6-.705-1.846-1.334-3.737-1.89l-3.618-1.057-1.943 6.635 11.575 3.39-1.565 5.343-11.575-3.388-2.236 7.638 4.286 1.255c1.65.483 2.867.578 3.646.286.782-.292 1.366-1.1 1.753-2.42l.336-1.15 9.183 2.69-3.117 10.643-29.83-8.734z" fill="none" stroke="#000" stroke-width="1.3850000000000002"/><path d="M266.306 114.55l3.08 2.555c1.442 1.197 2.693 1.83 3.754 1.9 1.06.07 2.02-.415 2.88-1.452.87-1.05 1.183-2.1.94-3.15-.247-1.052-1.06-2.152-2.445-3.3l-3.17-2.63-5.04 6.077zm-6.387 7.698c-.88 1.06-1.324 1.837-1.33 2.33-.01.493.27 1.067.832 1.722l-3.555 4.284-11.292-9.368 3.555-4.284c.762.444 1.393.615 1.894.51.5-.102 1.18-.673 2.04-1.71l9.776-11.782c.86-1.038 1.294-1.812 1.304-2.322.01-.51-.274-1.1-.85-1.767l3.414-4.115 13.345 11.07c3.91 3.246 6.27 6.192 7.076 8.838.805 2.646.15 5.247-1.97 7.803-1.307 1.573-2.815 2.497-4.525 2.773-1.712.275-3.55-.11-5.52-1.16 1.392 1.624 2.162 2.988 2.313 4.094.15 1.104-.283 2.27-1.3 3.497l-1.14 1.374c-.786.948-1.213 1.682-1.28 2.2-.066.52.14 1.053.615 1.6l-3.553 4.283-8.413-6.98c.085-.587.278-1.176.58-1.764.3-.59.907-1.436 1.824-2.54l2.708-3.264c1.046-1.263 1.464-2.334 1.253-3.214-.21-.882-1.11-1.983-2.703-3.303l-2.432-2.018-2.666 3.213z"/><path d="M266.306 114.55l3.08 2.555c1.442 1.197 2.693 1.83 3.754 1.9 1.06.07 2.02-.415 2.88-1.452.87-1.05 1.183-2.1.94-3.15-.247-1.052-1.06-2.152-2.445-3.3l-3.17-2.63-5.04 6.077zm-6.387 7.698c-.88 1.06-1.324 1.837-1.33 2.33-.01.493.27 1.067.832 1.722l-3.555 4.284-11.292-9.368 3.555-4.284c.762.444 1.393.615 1.894.51.5-.102 1.18-.673 2.04-1.71l9.776-11.782c.86-1.038 1.294-1.812 1.304-2.322.01-.51-.274-1.1-.85-1.767l3.414-4.115 13.345 11.07c3.91 3.246 6.27 6.192 7.076 8.838.805 2.646.15 5.247-1.97 7.803-1.307 1.573-2.815 2.497-4.525 2.773-1.712.275-3.55-.11-5.52-1.16 1.392 1.624 2.162 2.988 2.313 4.094.15 1.104-.283 2.27-1.3 3.497l-1.14 1.374c-.786.948-1.213 1.682-1.28 2.2-.066.52.14 1.053.615 1.6l-3.553 4.283-8.413-6.98c.085-.587.278-1.176.58-1.764.3-.59.907-1.436 1.824-2.54l2.708-3.264c1.046-1.263 1.464-2.334 1.253-3.214-.21-.882-1.11-1.983-2.703-3.303l-2.432-2.018-2.666 3.213z" fill="none" stroke="#000" stroke-width="1.3850000000000002"/><path d="M295.636 142.576l-9.943 5.475c-1.524.84-2.44 1.764-2.745 2.77-.306 1.008-.06 2.24.743 3.695.785 1.423 1.678 2.272 2.682 2.546 1.004.276 2.274-.01 3.81-.856l9.943-5.475c1.524-.84 2.438-1.757 2.743-2.752.304-.996.065-2.204-.718-3.627-.803-1.455-1.71-2.323-2.725-2.603-1.015-.28-2.277-.002-3.79.83m-5.123-8.764c2.35-1.294 4.1-2.054 5.25-2.28 1.15-.224 2.286-.16 3.407.194 1.51.49 2.983 1.495 4.414 3.013 1.43 1.517 2.903 3.648 4.414 6.39 1.49 2.71 2.492 5.06 3.002 7.053.51 1.992.57 3.78.183 5.36-.3 1.137-.87 2.14-1.707 3.01-.837.868-2.398 1.932-4.684 3.19l-9.487 5.224c-2.298 1.266-4.035 2.02-5.21 2.258-1.177.24-2.325.182-3.447-.172-1.542-.518-3.023-1.524-4.44-3.016-1.418-1.49-2.873-3.593-4.365-6.3-1.51-2.744-2.524-5.127-3.04-7.148-.518-2.022-.574-3.806-.17-5.353.303-1.137.853-2.13 1.652-2.978.8-.85 2.38-1.923 4.74-3.224l9.487-5.223z"/><path d="M295.636 142.576l-9.943 5.475c-1.524.84-2.44 1.764-2.745 2.77-.306 1.008-.06 2.24.743 3.695.785 1.423 1.678 2.272 2.682 2.546 1.004.276 2.274-.01 3.81-.856l9.943-5.475c1.524-.84 2.438-1.757 2.743-2.752.304-.996.065-2.204-.718-3.627-.803-1.455-1.71-2.323-2.725-2.603-1.015-.28-2.277-.002-3.79.83zm-5.124-8.763c2.35-1.294 4.1-2.054 5.25-2.28 1.15-.224 2.286-.16 3.407.194 1.51.49 2.983 1.495 4.414 3.013 1.43 1.517 2.903 3.648 4.414 6.39 1.49 2.71 2.492 5.06 3.002 7.053.51 1.992.57 3.78.183 5.36-.3 1.137-.87 2.14-1.707 3.01-.837.868-2.398 1.932-4.684 3.19l-9.487 5.224c-2.298 1.266-4.035 2.02-5.21 2.258-1.177.24-2.325.182-3.447-.172-1.542-.518-3.023-1.524-4.44-3.016-1.418-1.49-2.873-3.593-4.365-6.3-1.51-2.744-2.524-5.127-3.04-7.148-.518-2.022-.574-3.806-.17-5.353.303-1.137.853-2.13 1.652-2.978.8-.85 2.38-1.923 4.74-3.224l9.487-5.223z" fill="none" stroke="#000" stroke-width="1.3850000000000002"/><path d="M319.616 165.19l2.17 7.16-10.354-6.344-1.194-3.94 9.378 3.125z"/><path d="M319.616 165.19l2.17 7.16-10.354-6.344-1.194-3.94 9.378 3.125z" fill="none" stroke="#000" stroke-width="1.3850000000000002"/><path d="M290.65 176.4l8.245-.83.992 9.867-.65.066c-1.6.16-2.734.697-3.4 1.61-.666.91-.91 2.242-.734 3.992.137 1.366.565 2.44 1.285 3.223.72.78 1.592 1.12 2.616 1.018.995-.1 1.787-.63 2.375-1.593.587-.963 1.085-2.602 1.494-4.915.093-.515.223-1.257.388-2.225.578-3.516 1.214-6.038 1.906-7.564.716-1.57 1.577-2.75 2.584-3.54 1.005-.79 2.258-1.26 3.758-1.41 2.956-.3 5.424.798 7.4 3.29 1.978 2.492 3.197 6.017 3.655 10.575.268 2.673.227 5.226-.126 7.662-.353 2.434-1.027 4.79-2.022 7.066l-7.745.78-.976-9.694.585-.06c1.413-.142 2.447-.654 3.1-1.536.656-.882.905-2.092.75-3.63-.144-1.443-.538-2.57-1.18-3.38-.643-.808-1.425-1.167-2.348-1.074-.866.087-1.542.646-2.03 1.675-.485 1.03-1 3.33-1.544 6.902-.71 4.695-1.708 7.942-2.998 9.743-1.29 1.8-3.25 2.833-5.875 3.096-3.13.316-5.766-.765-7.91-3.24-2.142-2.476-3.44-5.973-3.895-10.492-.288-2.866-.236-5.605.157-8.218.392-2.614 1.106-5.003 2.14-7.166"/><path d="M290.65 176.4l8.245-.83.992 9.867-.65.066c-1.6.16-2.734.697-3.4 1.61-.666.91-.91 2.242-.734 3.992.137 1.366.565 2.44 1.285 3.223.72.78 1.592 1.12 2.616 1.018.995-.1 1.787-.63 2.375-1.593.587-.963 1.085-2.602 1.494-4.915.093-.515.223-1.257.388-2.225.578-3.516 1.214-6.038 1.906-7.564.716-1.57 1.577-2.75 2.584-3.54 1.005-.79 2.258-1.26 3.758-1.41 2.956-.3 5.424.798 7.4 3.29 1.978 2.492 3.197 6.017 3.655 10.575.268 2.673.227 5.226-.126 7.662-.353 2.434-1.027 4.79-2.022 7.066l-7.745.78-.976-9.694.585-.06c1.413-.142 2.447-.654 3.1-1.536.656-.882.905-2.092.75-3.63-.144-1.443-.538-2.57-1.18-3.38-.643-.808-1.425-1.167-2.348-1.074-.866.087-1.542.646-2.03 1.675-.485 1.03-1 3.33-1.544 6.902-.71 4.695-1.708 7.942-2.998 9.743-1.29 1.8-3.25 2.833-5.875 3.096-3.13.316-5.766-.765-7.91-3.24-2.142-2.476-3.44-5.973-3.895-10.492-.288-2.866-.236-5.605.157-8.218.392-2.614 1.106-5.003 2.14-7.166z" fill="none" stroke="#000" stroke-width="1.3850000000000002"/><path d="M229.726 201.334c0-35.497 28.776-64.275 64.274-64.275 35.496 0 64.272 28.777 64.272 64.274H229.726z" fill="url(#t)" transform="matrix(1.25 0 0 -1.25 -166.25 452.07)"/><path d="M281.59 200.403c0 44.372-35.97 80.343-80.34 80.343-44.373 0-80.342-35.97-80.342-80.343" fill="none" stroke="#231f20" stroke-width="2.0774999999999997" stroke-linecap="round" stroke-linejoin="round"/><path d="M229.726 200.963h128.547c0 35.5-28.777 64.273-64.274 64.273-35.498 0-64.274-28.774-64.274-64.273" fill="url(#u)" transform="matrix(1.25 0 0 -1.25 -166.25 452.07)"/><path d="M281.59 200.866c0-44.373-35.97-80.342-80.34-80.342-44.373 0-80.343 35.97-80.343 80.342H281.59z" fill="none" stroke="#231f20" stroke-width="2.0774999999999997" stroke-linecap="round" stroke-linejoin="round"/><path d="M129.726 180.808s11.79 3.72 16.612 12.492c0 0 6.833-8.38 14.584-6.905 0 0-5.73-4.114-14.966-.42 0 0-6.92-9.447-16.23-5.167M222.326 148.65s11.56 1.483 16.03 12.28c0 0 8.206-9.007 18.612-5.924 0 0-5.545-7.74-18.79-1.306 0 0-6.758-8.55-15.852-5.05M247.055 169.657s9.214 3.544 11.188 9.117c0 0 5.904-5.574 10.605-4.83 0 0-4.09-1.725-10.13-.31 0 0-5.8-6.86-11.663-3.977" fill="#231f20"/><path d="M277.608 214.59c-4.05.974-8.19-4.228-8.19-4.228-1.8.886-6.797 1.18-6.147-4.397.65-5.577 8.918-8.01 8.918-8.01-2.68-12.84 13.78-18.9 13.78-18.9s.012 7.504 5.052 13.04c4.703 5.16 10.09 8.043 17.332 6.396 6.547-1.486 11.493-11.587 11.493-11.587s5.755 6.482.768 17.087c-5.5 12.33-17.782 15.038-17.782 15.038-14.733-11.662-25.222-4.44-25.222-4.44" fill="url(#v)" transform="matrix(1.25 0 0 -1.25 -166.25 452.07)"/><path d="M180.76 183.834s13.11 9.03 31.53-5.55c0 0 15.35 3.386 22.226 18.8 6.234 13.256-.96 21.357-.96 21.357s-6.182-12.626-14.366-14.483c-9.054-2.06-15.786 1.545-21.666 7.996-6.3 6.918-6.315 16.298-6.315 16.298s-20.574-7.575-17.225-23.624c0 0-10.335-3.04-11.146-10.01-.813-6.972 5.432-6.606 7.682-5.5 0 0 5.176-6.5 10.238-5.282M200 187.8s7.793 3.088 8.243 16.39M202.637 184.678s11.046 6.51 9.853 18.582" fill="none" stroke="#231f20" stroke-width="1.3850000000000002" stroke-linecap="round" stroke-linejoin="round"/><path d="M295.198 248.032c-1.126-13.902-13.71-7.657-13.71-7.657-11.686-12.318-16.726 1.44-16.726 1.44s-7.27 1.296-8.83-2.717c-3.362-7.1 6.068-8.558 6.068-8.558 6.515-11.62 15.608-15.95 15.608-15.95s10.49-7.224 25.223 4.438c6.706 7.515-1.807 9.302-1.807 9.302-.324 2.602-1.95 3.262-1.95 3.262 2.667 2.576 1.776 8.7 1.776 8.7s5.33 3.467 3.426 7.572c-1.367 1.744-2.857 2.318-4.227 2.318-2.65 0-4.852-2.15-4.852-2.15" fill="url(#w)" transform="matrix(1.25 0 0 -1.25 -166.25 452.07)"/><path d="M164.703 149.8s6.3 17.2 20.905 1.8c0 0 15.732 7.808 17.14-9.57 0 0 6.332-6.184 11.347.21 2.38 5.132-4.284 9.465-4.284 9.465s1.114 7.655-2.22 10.875c0 0 2.033.825 2.44 4.077 0 0 10.64 2.235 2.26 11.628-18.42 14.578-31.53 5.55-31.53 5.55s-11.366-5.413-19.51-19.94c0 0-11.788-1.822-7.587-10.698 1.95-5.015 11.04-3.397 11.04-3.397M164.545 149.774c.102.015.158.026.158.026" fill="none" stroke="#231f20" stroke-width="1.3850000000000002" stroke-linecap="round" stroke-linejoin="round"/><path d="M202.747 142.03c-1.407 17.377-17.14 9.57-17.14 9.57-14.604 15.398-20.904-1.8-20.904-1.8s-3.49-7.68 1.8-13.693c5.29-6.01 13.13-2.188 15.728 2.698 0 0 2.51-13.318 13.132-10.086 7.387 2.077 7.385 13.31 7.385 13.31" fill="#fff"/><path d="M202.747 142.03c-1.407 17.377-17.14 9.57-17.14 9.57-14.604 15.398-20.904-1.8-20.904-1.8s-3.49-7.68 1.8-13.693c5.29-6.01 13.13-2.188 15.728 2.698 0 0 2.51-13.318 13.132-10.086 7.387 2.077 7.385 13.31 7.385 13.31z" fill="none" stroke="#231f20" stroke-width="1.3850000000000002" stroke-linecap="round" stroke-linejoin="round"/><path d="M190.977 228.264s.016-9.38 6.315-16.297c5.88-6.45 12.612-10.056 21.666-7.997 8.185 1.858 14.367 14.485 14.367 14.485s-20.528 14.515-42.348 9.81" fill="#231f20"/><path d="M174.428 196.535s-.762-7.673-5.954-8.01M181.315 190.905s-8.05 8.498-7.673 17.16" fill="none" stroke="#231f20" stroke-width="1.3850000000000002" stroke-linecap="round" stroke-linejoin="round"/><path d="M174.69 201.302s-3.966-11.792-8.31-8.52c-2.18 2.328-.764 4.578-.098 5.505.66.93 7.592 5.906 7.89 4.374.206-1.062.52-1.358.52-1.358" fill="#231f20"/><path d="M261.617 196.266c-5.075-.833-2.375-4.125-2.375-4.125 6.414 3.36 5.69-4.042 5.69-4.042 3.537-.58 1.663 4.297 1.663 4.297l3.466 12.53c-.532 2.075-2.288 2.122-2.288 2.122l-6.155-10.78z" fill="url(#x)" transform="matrix(1.25 0 0 -1.25 -166.25 452.07)"/><path d="M171.326 195.913l-4.332 15.663s2.343 6.098-2.08 5.372c0 0 .906-9.254-7.11-5.055 0 0-3.377-4.114 2.967-5.156l7.696-13.475s2.195.058 2.86 2.65zM160.418 206.668s5.598-.01 6.8 5.86" fill="none" stroke="#231f20" stroke-width="1.3850000000000002" stroke-linecap="round" stroke-linejoin="round"/><path d="M259.242 192.14l-4.88-5.802s-5.595 1.033-4.63-3.895c0 0 10.836 1.985 9.253-5.114 0 0 4.746.462 2.896 4.853l2.96 6.33s.773 4.47-2.546 4.47c-.774 0-1.77-.243-3.052-.842" fill="url(#y)" transform="matrix(1.25 0 0 -1.25 -166.25 452.07)"/><path d="M157.48 230.41s5.933-.58 3.622-6.068l3.696-7.913s1.474-8.496-6.995-4.536l-6.1 7.254s-6.994-1.29-5.786 4.87c0 0 13.544-2.482 11.564 6.39z" fill="none" stroke="#231f20" stroke-width="1.3850000000000002" stroke-linecap="round" stroke-linejoin="round"/><path d="M230.003 172.798c-6.924-12.154-3.898-21.923 8.744-28.75 0 0-.428 18.423 8.858 20.535 0 0-.75-1.724 1.57-1.81 0 0 1.9-7.964-1.593-12.15 0 0 9.106 4.137 10.917 9.635 0 0 2.457-.08 2.054 2.213 0 0 3.43 5.376-1.486 9.39l-.083 5.47s2.02 6.77-9.252 5.113c0 0-1.436.46-3.66.46-4.048 0-10.706-1.522-16.07-10.105" fill="url(#z)" transform="matrix(1.25 0 0 -1.25 -166.25 452.07)"/><path d="M145.917 224.017s-14.275-4.567-24.663 12.056c-8.655 15.192-4.872 27.404 10.93 35.938 0 0-.535-23.03 11.072-25.67 0 0-.937 2.156 1.963 2.264 0 0 2.374 9.956-1.992 15.19 0 0 11.382-5.174 13.646-12.046 0 0 3.073.1 2.568-2.768 0 0 4.287-6.717-1.857-11.736l-.104-6.835s2.528-8.464-11.563-6.393zM152 244.293s4.664.278 7.442 4.687M145.22 248.605s6.887-3.967 11.654 3.144M145.016 239.935s-2.946 2.263-1.732 6.93M139.748 239.78s.403 2.607 3.008 3.783M137.694 244.01s2.105 1.64 5.27.156" fill="none" stroke="#231f20" stroke-width="1.3850000000000002" stroke-linecap="round" stroke-linejoin="round"/><path d="M338.317 198.206l-.29-5.065c-4.996-3.91-3.098-10.384-3.098-10.384-.45-2.286 2.01-2.256 2.01-2.256 1.692-5.536 10.712-9.86 10.712-9.86-3.405 4.26-1.34 12.18-1.34 12.18 2.32.038 1.61 1.775 1.61 1.775 9.24-2.304 8.425-20.712 8.425-20.712 12.782 6.56 14.392 17.225 9.96 26.83-6.65 13.85-18.542 11.786-18.542 11.786-1.368 1.282-2.595 1.78-3.676 1.78-3.775 0-5.773-6.074-5.773-6.074" fill="url(#A)" transform="matrix(1.25 0 0 -1.25 -166.25 452.07)"/><path d="M268.456 198.946s14.866-2.58 23.177 14.733c5.54 12.005 3.53 25.338-12.45 33.537 0 0 1.018-23.01-10.532-25.892 0 0 .89 2.173-2.01 2.22 0 0-2.58 9.9 1.674 15.226 0 0-11.274-5.406-13.39-12.325 0 0-3.076.037-2.513-2.82 0 0-2.37-8.092 3.874-12.98l.362-6.332s4.133-12.57 11.81-5.367zM259.95 219.1s-4.665.174-7.538 4.525M266.64 223.545s-6.806-4.107-11.715 2.9M267.022 214.882s2.957 1.778 1.647 6.42M272.297 214.84s-.457 2.598-3.088 3.72M274.26 219.108s-2.138 1.596-5.273.048M262.614 207.676s-3.7-.328-7.166 3.716M151.737 234.685s1.948-.993 6.085 2.934" fill="none" stroke="#231f20" stroke-width="1.3850000000000002" stroke-linecap="round" stroke-linejoin="round"/><path d="M314.34 218.943l-8.374-.822c9.675-4.25 13.14-10.988 13.14-10.988 3.475 1.494 4.426 7.816 4.426 7.816-.088 5.33-1.743 6.87-3.625 6.87-2.572 0-5.567-2.875-5.567-2.875" fill="url(#B)" transform="matrix(1.25 0 0 -1.25 -166.25 452.07)"/><path d="M216.207 179.42l10.467-1.03s11.23-10.773 11.49 4.995c0 0-1.187 7.902-5.53 9.77 0 0-4.334-8.423-16.427-13.736zM227.912 177.505s-3.153 2.81-2.89 7.17" fill="none" stroke="#231f20" stroke-width="1.3850000000000002" stroke-linecap="round" stroke-linejoin="round"/><path d="M231.374 191.932s6.183-8.15 2.97-12.2c-2.758-3.476-6.677 4.1-6.38 7.474 0 0 3.26 4.15 3.41 4.726" fill="#231f20"/><path d="M317.784 211.92l9.874-5.917c1.59-3.467 5.057-1.88 5.057-1.88l2.81-3.59c-.353-3.853 2.523-3.417 2.523-3.417s-.176 1.598 2.527 5.185c3.252 3.917 7.19.2 7.19.2l1.02.242c-.16 6.444-6.792 4.5-6.792 4.5l-5.713 3.714c-2.933 5.828-7.872 2.01-7.872 2.01l-9.648 2.006c-1.406-1.665-.976-3.052-.976-3.052" fill="url(#C)" transform="matrix(1.25 0 0 -1.25 -166.25 452.07)"/><path d="M232.2 183.355l12.06 2.508s6.174-4.773 9.84 2.513l7.142 4.642s8.288-2.43 8.488 5.624l-1.274.304s-4.922-4.647-8.988.247c-3.378 4.484-3.158 6.482-3.158 6.482s-3.594.545-3.153-4.272l-3.513-4.488s-4.334 1.986-6.322-2.35l-12.342-7.395s-.537-1.734 1.22-3.815zM242.565 191.332s-1.27-3.533 2.69-5.966" fill="none" stroke="#231f20" stroke-width="1.3850000000000002" stroke-linecap="round" stroke-linejoin="round"/><path d="M253.93 188.236s-6.264-3.517-7.813 1.737c-.293 1.067-.237 2.117-.237 2.117l4.778 6.29M257.527 195.673s.82-2.148 5.226-2.853M255.186 197.786s-2.2 2.57-2.175 5.26" fill="none" stroke="#231f20" stroke-width="1.3850000000000002" stroke-linecap="round" stroke-linejoin="round"/><path d="M208.67 145.687s3.658 11.495-1.08 16.893c0 0 1.714.6 2.53 3.604 1.164 4.263-5.632 19.24-26.802 14.648-5.916-1.32-14.702-8.214-23.874-24.44 0 0 13.243 15.892 34.103 8.11 6.103-1.73 12.967-8.88 15.124-18.815" fill="#fff"/><path d="M208.67 145.687s3.658 11.495-1.08 16.893c0 0 1.714.6 2.53 3.604 1.164 4.263-5.632 19.24-26.802 14.648-5.916-1.32-14.702-8.214-23.874-24.44 0 0 13.243 15.892 34.103 8.11 6.103-1.73 12.967-8.88 15.124-18.815zM155.562 158.12s2.26-3.627 8.392-2.67M205.464 144.808s3.58-.894 5.957 2.017M174.362 170.792s19.07 11.133 33.228-8.212" fill="none" stroke="#231f20" stroke-width="1.3850000000000002" stroke-linecap="round" stroke-linejoin="round"/><path d="M178.97 144.076c.286.456.464.976.47 1.54.015 1.73-1.477 3.14-3.33 3.156-1.852.017-3.365-1.37-3.382-3.095-.005-.67.22-1.288.6-1.8-1.57.864-2.63 2.452-2.614 4.282.025 2.722 2.395 4.91 5.295 4.885 2.9-.025 5.234-2.254 5.21-4.977-.016-1.66-.906-3.11-2.25-3.992M195.75 140.12c.28.457.453.98.45 1.545 0 1.727-1.504 3.122-3.36 3.118-1.85-.003-3.35-1.404-3.348-3.13.002-.672.233-1.288.618-1.795-1.58.848-2.657 2.426-2.66 4.256-.005 2.724 2.344 4.936 5.244 4.94 2.902.007 5.26-2.197 5.263-4.92.003-1.66-.873-3.118-2.207-4.015" fill="#231f20"/><path d="M269.567 140.04c-3.908-5.63-6.026-12.873-4.964-13.825 1.768-1.587 3.905-3.066 12.853.97 6.816 3.073 9.644 8.088 10.784 9.93 2.096-.444 3.808-.195 4.968.054.986.21 1.573.422 1.658.208 1.84-4.67 14.026-6.917 19.684-2.59 2.927 2.232-5.35 16.08-16.003 17.657-6.888 1.02-10.59 3.92-10.59 3.92s-11.605-6.536-18.39-16.324" fill="url(#D)" transform="matrix(1.25 0 0 -1.25 -166.25 452.07)"/><path d="M193.695 256.613s4.63 3.625 13.24 4.9c13.314 1.974 23.66 19.28 20.003 22.073-7.073 5.407-22.304 2.6-24.605-3.238-.232-.583-3.435 1.356-8.283.328-1.426 2.303-4.96 8.57-13.48 12.412-11.185 5.046-13.857 3.197-16.068 1.213-1.326-1.19 1.322-10.24 6.206-17.282 8.482-12.234 22.987-20.405 22.987-20.405zM207.878 261.695s2.762 12.245-5.67 18.542M194.384 265.11s2.168 7.714-.678 15.7" fill="none" stroke="#231f20" stroke-width="1.3850000000000002" stroke-linecap="round" stroke-linejoin="round"/><path d="M292.092 162.946c-3.05-1.962-4.268-6.728-4.268-6.728s7.86-3.997 10.44-3.718c1.202.13 4.805-.643 8.666 9.724-6.297-2.066-9.94-1.144-12.105-.222-1.203.512-1.95 1.025-2.442 1.025-.108 0-.205-.025-.29-.08" fill="url(#E)" transform="matrix(1.25 0 0 -1.25 -166.25 452.07)"/><path d="M217.412 249.29c-4.825 12.958-9.33 11.993-10.832 12.154-3.226.35-13.05-4.647-13.05-4.647s1.52-5.957 5.335-8.41c1.472-.95 5.338 5.237 18.547.903z" fill="none" stroke="#231f20" stroke-width="1.3850000000000002" stroke-linecap="round" stroke-linejoin="round"/><path d="M292.998 168.28s-2.03-2.864-.58-4.87c1.363-1.892 8.895-3.662 14.36-.983 4.288 2.098 4.445 7.392 4.445 7.392s-6.02-1.518-7.46.44c0 0-6.09-4.116-10.765-1.98" fill="url(#F)" transform="matrix(1.25 0 0 -1.25 -166.25 452.07)"/><path d="M199.998 241.72s-2.536 3.58-.725 6.088c1.704 2.364 11.118 4.577 17.952 1.23 5.357-2.625 5.554-9.24 5.554-9.24s-7.528 1.894-9.326-.552c0 0-7.615 5.143-13.456 2.473z" fill="none" stroke="#231f20" stroke-width="1.3850000000000002" stroke-linecap="round" stroke-linejoin="round"/><path d="M295.287 174.226c-.424.042-.76.084-1 .084-3.122-1.92-1.08-6.017-1.08-6.017 2.275-1.843 9.973 1.095 10.63 1.9 1.04-1.067 4.75-1.512 7.79-.073 4.514 2.137 2.768 7.232 2.768 7.232-4.467-1.71-8.433.32-8.433.32-4.97-3.833-8.743-3.64-10.675-3.446" fill="url(#G)" transform="matrix(1.25 0 0 -1.25 -166.25 452.07)"/><path d="M226.743 230.38s2.184 6.37-3.46 9.04c-3.8 1.8-8.438 1.242-9.735-.09-.823 1.005-10.446 4.678-13.288 2.374 0 0-2.554-5.12 1.35-7.522 1.666 0 7.015 1.64 14.593-4.2 0 0 4.956 2.537 10.54.397z" fill="none" stroke="#231f20" stroke-width="1.3850000000000002" stroke-linecap="round" stroke-linejoin="round"/><path d="M305.104 184.5c-6.648 1.045-12.188-4.23-12.188-4.23-1.594-2.962 1.29-5.753 1.29-5.753 5.986-1.715 11.756 3.154 11.756 3.154s3.612-1.977 8.017-.408c2.514 2.8.656 8.662.656 8.662-.873.272-1.772.38-2.653.38-3.586 0-6.88-1.804-6.88-1.804" fill="url(#H)" transform="matrix(1.25 0 0 -1.25 -166.25 452.07)"/><path d="M227.045 219.665s2.323 7.33-.82 10.827c-5.507 1.962-10.022-.51-10.022-.51s-7.214 6.086-14.696 3.943c0 0-3.606-3.49-1.613-7.19 0 0 6.926-6.597 15.236-5.29 0 0 6.39-3.5 11.915-1.78z" fill="none" stroke="#231f20" stroke-width="1.3850000000000002" stroke-linecap="round" stroke-linejoin="round"/><path d="M291.994 185.69c-1.753-2.618.922-5.42.922-5.42 6.298 5.526 12.188 4.23 12.188 4.23 6.15 3.066 9.532 1.424 9.532 1.424 1.542 5.273-2.618 6.943-2.618 6.943-1.996.478-3.823.686-5.49.686-8.712 0-13.062-5.664-14.534-7.862" fill="url(#I)" transform="matrix(1.25 0 0 -1.25 -166.25 452.07)"/><path d="M223.773 210.986s5.2 2.088 3.272 8.68c0 0-4.228-2.053-11.914 1.778 0 0-7.363-1.62-15.235 5.29 0 0-3.344-3.504-1.152-6.778 2.19-3.273 9.49-12.695 25.03-8.97z" fill="none" stroke="#231f20" stroke-width="1.3850000000000002" stroke-linecap="round" stroke-linejoin="round"/><path d="M290.56 191.504c-1.87-1.78 1.434-5.813 1.434-5.813s5.054 10.373 20.165 7.184c0 0 .784 3.69-1.304 4.7-1.142.553-3.484 1.236-6.34 1.237-4.268 0-9.684-1.527-13.956-7.306" fill="url(#J)" transform="matrix(1.25 0 0 -1.25 -166.25 452.07)"/><path d="M223.95 210.977s.98-4.612-1.63-5.874c-3.562-1.726-16.46-4.467-25.37 7.586-2.336 2.226 1.792 7.266 1.792 7.266s6.318-12.964 25.207-8.98z" fill="none" stroke="#231f20" stroke-width="1.3850000000000002" stroke-linecap="round" stroke-linejoin="round"/></svg>