<svg xmlns="http://www.w3.org/2000/svg" xmlns:xlink="http://www.w3.org/1999/xlink" width="400" height="271.233"><defs><clipPath id="d"><path d="M22.72 8.377h567.666v775.246H22.72V8.377z"/></clipPath><linearGradient xlink:href="#a" id="e" gradientUnits="userSpaceOnUse" gradientTransform="matrix(12.1 -.6 -.3 -13.4 147.4 745.9)" x2="1"/><linearGradient id="a" gradientTransform="matrix(12.1 -.6 -.3 -13.4 147.4 745.9)" gradientUnits="userSpaceOnUse" x2="1"><stop offset="0" stop-color="#3db664"/><stop offset=".331" stop-color="#9cd3a8"/><stop offset=".331" stop-color="#9cd3a8"/><stop offset=".534" stop-color="#95bb33"/><stop offset=".803" stop-color="#3e833f"/><stop offset="1" stop-color="#91b934"/></linearGradient><linearGradient xlink:href="#b" id="f" gradientUnits="userSpaceOnUse" gradientTransform="matrix(15.9 -.8 -.4 -17.6 118.9 764.4)" x2="1"/><linearGradient id="b" gradientTransform="matrix(15.9 -.8 -.4 -17.6 118.9 764.4)" gradientUnits="userSpaceOnUse" x2="1"><stop offset="0" stop-color="#3db664"/><stop offset=".331" stop-color="#9cd3a8"/><stop offset=".331" stop-color="#9cd3a8"/><stop offset=".534" stop-color="#95bb33"/><stop offset=".803" stop-color="#3e833f"/><stop offset="1" stop-color="#91b934"/></linearGradient><linearGradient xlink:href="#c" id="g" gradientUnits="userSpaceOnUse" gradientTransform="matrix(11.4 -.6 -.3 -12.7 137.2 741.4)" x2="1"/><linearGradient id="c" gradientTransform="matrix(11.4 -.6 -.3 -12.7 137.2 741.4)" gradientUnits="userSpaceOnUse" x2="1"><stop offset="0" stop-color="#3db664"/><stop offset=".331" stop-color="#9cd3a8"/><stop offset=".331" stop-color="#9cd3a8"/><stop offset=".534" stop-color="#95bb33"/><stop offset=".803" stop-color="#3e833f"/><stop offset="1" stop-color="#91b934"/></linearGradient><clipPath id="h"><path d="M22.72 9.557h567.666v774.065H22.72V9.557z"/></clipPath><clipPath id="i"><path d="M22.72 8.377h567.666v775.246H22.72V8.377z"/></clipPath></defs><g clip-path="url(#d)" transform="matrix(3.2 0 0 -3.2 -127.1 2533)"><path d="M39.31 740.84h116.285l-6.846-19.483-105.012-3.448-4.427 22.93z" fill="#ca522d"/></g><path d="M145.73 750.86l4.07-.017-4.736-14.018c8.605-3.96 15.19 3.997 15.19 3.997-9.174-5.75-12.795-3.803-12.795-3.803l8.583 14.85-9.833 4.206-.48-5.216z" fill="url(#e)" transform="matrix(3.2 0 0 -3.2 -127.1 2533)"/><path d="M116.067 760.013c4.475 7.956 6.176 7.405 6.176 7.405l5.107-9.077 8.522-1.785-.055.675-6.323 2.89-2.877 10.932-5.292.26c-5.166-.934-5.257-11.18-5.258-11.3" fill="url(#f)" transform="matrix(3.2 0 0 -3.2 -127.1 2533)"/><path d="M143.182 782.542c-3.32-.29-5.726-2.846-5.726-2.846l-1.476-16.34c-1.94-18.795 4.113-52.478 4.113-52.478l1.805-11.096c3.662-.565 4.77 2.46 4.77 2.46l-1.398 11.646c-3.02 14.94 3.576 65.357 3.576 65.357l1.685 1.518-1.795-.145c-1.496 1.253-2.97 1.802-4.332 1.924h-1.22z" fill="url(#g)" transform="matrix(3.2 0 0 -3.2 -127.1 2533)"/><g clip-path="url(#h)" transform="matrix(3.2 0 0 -3.2 -127.1 2533)"><path d="M139.01 714.283s-7.007 38.725-1.553 65.413c0 0 3.194 6.436 12.07 1.782l3.704 2.144-3.886-4.16s-6.576-42.648-4.424-64.868c0 0-1.944 29.44 2.44 63.507l.218 1.62s-1.22 4.51-8.105.94c0 0-7.092-8.568-.464-66.377"/></g><g clip-path="url(#i)" transform="matrix(3.2 0 0 -3.2 -127.1 2533)"><path d="M139.472 780.66s.008-4.397 8.105-.94l-1.193-2.5s-7.346.204-6.912 3.44M135.817 757.23l-6.323 2.89-2.423 11.54-7.588.234s-4.584-1.784-4.704-12.74c0 0-.112-3.7 1.56-9.688 0 0 2.04 17.746 9.492 19.202l-2.294.833s-4.355-1.204-6.89-8.385c0 0-.01 5.615 4.273 9.534l5.35-.077 2.514-10.853 7.033-2.49z"/><path d="M122.952 765.713l4.925-7.597 7.995-1.56-7.37 2.972-4.466 7.464s-.885-.072-1.084-1.28M145.82 756.513l11.607-3.99-9.694-14.057s7.403-2.665 15.324 5.994c0 0-6.173-12.722-18.404-8.286l8.323 16.327-6.617 2.866.1-3.054 5.418-.92-.668-.904-5.9-.48.51 6.505zM140.464 769.432c.155-1.913-.97-3.566-2.518-3.692-1.548-.125-2.928 1.324-3.084 3.237-.155 1.912.972 3.566 2.52 3.692 1.547.125 2.927-1.327 3.082-3.238"/><path d="M140.17 769.408c.12-1.447-.777-2.7-2-2.8-1.22-.1-2.305.993-2.422 2.44-.12 1.447.777 2.7 1.998 2.798 1.22.1 2.307-.992 2.425-2.438" fill="#fff"/><path d="M147.332 768.033c.182-2.24-1.138-4.175-2.95-4.322-1.813-.147-3.428 1.55-3.61 3.79-.183 2.24 1.138 4.175 2.95 4.322 1.812.148 3.43-1.55 3.61-3.79"/><path d="M146.987 768.005c.137-1.693-.91-3.16-2.342-3.277-1.428-.116-2.7 1.163-2.84 2.856-.136 1.694.913 3.16 2.34 3.277 1.434.118 2.704-1.162 2.842-2.855" fill="#fff"/><path d="M139.916 768.876c.08-.98-.55-1.83-1.403-1.9-.857-.07-1.614.668-1.694 1.648-.08.98.548 1.83 1.405 1.9.854.07 1.612-.668 1.69-1.648M146.558 767.546c.08-.982-.55-1.83-1.404-1.9-.856-.07-1.615.666-1.695 1.648-.08.978.55 1.83 1.406 1.9.854.07 1.612-.67 1.692-1.648M136.86 757.144s2.232-1.86 7.32 1.276l-.565-5.83s-5.55-1.13-6.754 4.554M136.957 743.203s2.777-1.304 6.995 1.59c0 0 .82-1.065-1.726-2.633l-2.003.27s-.843-.81-2.76-.967l-.506 1.74z"/><path d="M138.165 755.72l.86-1.46 3.995.154.652 2.945s-2.77-2.438-5.507-1.64" fill="#fff"/><path d="M138.453 724.784s1.223-2.28 5.886.647c0 0-1.418-2.664-5.708-2.844l-.18 2.198zM139.898 712.483s1.52-2.258 4.705.553c0 0-2.325-4.272-4.705-.553"/><path d="M143.76 712.457s-1.797 20.267-.08 33.848c0 0-1.058-27.137.08-33.848M134.668 773.95s3.3 1.995 4.908.744c1.608-1.25-1.364 1.962-1.364 1.962s-3.17.086-3.544-2.706M149.286 772.916s-4.03 1.614-5.587-.066c-1.56-1.68 1.158 2.425 1.158 2.425s3.503.674 4.428-2.36"/><path d="M140.91 753.277s.774 1.27 1.815.348c0 0 .082-1-1.814-.348" fill="#ed1848"/><path d="M135.247 769.883s-1.03.282-.64 2.362c0 0 .4-1.277 1.273-1.367l-.633-.995z"/><path d="M135.955 770.948s-1.03.282-.64 2.36c0 0 .4-1.276 1.272-1.365l-.632-.995zM147.336 768.25s1.005-.365 1.887 1.557c0 0-1.063-.81-1.83-.38l-.057-1.177zM147.19 766.637s1.006-.365 1.89 1.558c0 0-1.064-.813-1.83-.38l-.06-1.178z"/><path d="M52.573 778.276c-1.38-.67-2.258-1.842-2.333-3.818-1.11.12-1.43-.55-2.12-.848-.414 2.08-.792 3.8-2.547 3.818-1.386.013-2.04-1.123-2.757-2.227v3.076h9.757z" fill="#fff" fill-rule="evenodd"/><path d="M71.557 750.595c.592.066 1 1.856.53 2.652-.208.352-1.574.656-1.802.742-.062-.99.185-3.515 1.272-3.395m11.24 3.076c1.447.076 2.61.432 3.396 1.168-1.417.31-2.68-.426-3.395-1.167m-19.832 2.016c-1.708-.912-4.54-1.012-6.787-1.06.056-1.056-.71-1.85 0-2.652 1.84.252 4.073 1.217 5.938.742-1.31-1.624-2.575-3.293-4.136-4.666-.15-.37.297-.68 0-.85-.566-.14-.495.355-1.06.213-.222-.38-.38-.823-.53-1.272.698-.377.675-1.687 1.59-1.59.452.048.656.666.954 1.167.36-.065.17-.68.637-.637.96.88 2.858.385 4.136.107.152.412.41.72.317 1.378.576.202 1.176.38 2.014.318.317.327.227 1.115.108 1.59-.736.043-.756.8-1.273 1.062-1.04-.692-2.584-1.446-4.03-1.38.88 1.453 2.377 2.29 3.288 3.712-.006.348-.302.406-.212.85.39.888 1.238.81 1.804 1.378-.125 1.123-1.078 1.357-2.122.848-.242.217-.195.725-.636.743m-14.316-1.38c-.302-.193-.827-.163-1.06-.424.75-2.404-.682-3.887-1.275-5.832-.28-.32-1.02-.18-1.378-.424.002-.565-.067-1.198.212-1.485.17-.252.933.087.954-.318-.04-.845-.67-1.098-.53-2.12.404-.126.65-.41 1.272-.318.528.955.592 2.377 1.273 3.18 1.357.27 2.534.718 3.817 1.062.393-.88.703-1.843 1.166-2.652.96-.112 1.292.405 1.803.743.11 1.24-1.036 1.227-.955 2.44.758-.05.97.445 1.805.317.48.363.31 1.18 0 1.59-.68-.112-.883.25-1.274.425-.368-.303-.778-.563-1.377-.638-.646 1.582-1.236 3.218-1.59 5.09-.992.167-3 2.117-2.863-.635m5.62-1.272c.314 1.028.575 2.11 1.06 2.97.276.218.86.13.85.636-1.188.14-2.55.047-3.82.318 1.152-.793 1.323-2.566 1.91-3.923m13.15-4.137c.346-.786 1.277-1.87 2.015-2.015 5.122-.993 8.503 1.827 7.742 6.788-.133.87-.783 3.366-1.272 3.925-.69.79-2.136.64-2.333-.637-.44.123-.846.133-.955-.317.377-1.76 1.592-4.83.636-6.68-.32-.622-1.16-1.322-1.91-1.38-2.993-.23-3.247 4.14-3.286 7 2.027.874-.296 2.96-1.59 1.485.184-3.028.02-6.043.953-8.167m19.09 9.65c-.15.274-.248.6-.636.638-4.252-.912-8.815-1.952-8.166-7.424.496-5.038 8.745-4.183 11.347-1.59.07.794.036.743 0 1.59-.593.136-.684.17-1.378.105-.302-.228-.326-.734-.53-1.06-1.886-.685-4.673-1.656-6.576-.53 2.27-.43 4 .402 5.728.848.537.587 1.833.888 1.38 2.122-2.17-.626-5.95-2.695-8.167-.637.434 1.52 1.813 2.636 3.288 3.288.866.383 2.11.894 2.758.848.46-.032.85-.673 1.38-.424.615.344.806 1.485.423 2.227-.156.155-.695.155-.85 0m-8.91.106c.154-.273.377-.475.532-.743.387.143.667.393.955.636-.178.458-.605.668-.85 1.06.004-.534-.52-.538-.636-.954m-8.165-2.652c.44-.303 1.168-.317 1.59-.636.75 1.34 1.777 2.957 2.122 4.348-2.257-.218-2.605-2.344-3.712-3.712m25.454 3.287c-.63 1.394-2.113.41-2.017-.953-.373-.086-.673-.246-.954-.424-.22-.892.354-.988.53-1.485-1.032-1.515-.763-4.328-2.97-4.666-.266-.488-.07-1.312.212-1.59.32-.034.825.117.85-.213-.02-.868-.667-1.104-.638-2.016.38-.22.677-.526 1.38-.424.486.962.612 2.285 1.165 3.18 1.534.128 2.385.938 4.03.956.395-.713.39-2.36 1.272-2.546.594-.125 1.15.348 1.59.85-.117.942-.79 1.33-1.06 2.12.7.413 2.227 1.027 2.97.424.202-1.095.387-2.964.318-4.666.39-.074.806-.183 1.167 0 .23-.16.17-.608.53-.637.715-.113 1 .202 1.38.426-.15 1.16-.914 1.703-.85 3.075 2.628.08 4.392-1.614 6.682-2.226.35.286.612.66.53 1.378-.12.342-.878.043-.956.425-.024.443.173.5 0 .848-.89.453-2.235.452-2.97 1.06.334.597.995 1.01 1.38 1.697.125.226.083.6.212.85.256.495.753.604.954.954 1.677 2.913-2.49 3.842-5.196 3.924-1.707-.415-2.96-1.284-4.455-1.91.022-.34-.188-.448-.106-.848.735-.465 1.205-1.198 1.166-2.44-.275-.112-.317-.46-.636-.53-.83.737-1.912.66-2.864.107-.803 1.53-1.055 3.61-1.803 5.196-.404.132-.51-.094-.848.105m2.756 1.168c.037-.616.635-1.546.743-2.44.644.91 1.336 1.774 2.65 2.016-.045 2.317-2.03.418-3.394.424M65.83 761.73c-.59-1.282-.648-3.163-2.228-3.5-.77-.163-1.473.122-2.226.426-1.206-.915-2.893-1.35-4.455-1.91 2.836-.925 5.727 1.593 7.955.32.26 2.153 2.903 2.536 4.984 2.225-.09.34.167.33.212.532-1.787-.055-2.177 1.287-2.97 2.227-.437-.093-.87-.19-1.273-.32m-12.197 1.167c2.077-.304 3.41 1.042 4.56 2.016-1.777.68-3.91-.56-4.56-2.016m41.043 1.485c-.233-2.978-5.586-3.433-5.62-.424-.636.293-1.18-.168-1.803-.212-.137-.994-.516-1.748-.743-2.65 1.08-.265 1.735-.953 2.65-1.38.575-.95.66-2.45.213-3.606-.236-.365-.76-.442-.742-1.06.613-.167.83-.728 1.168-1.168.397.736.688 1.575.955 2.44-.44.8-.27 1.792 0 2.65 1.338 1.088 1.68 3.665 4.666 2.76-.676 1.47.48 2.933-.108 4.347-1.082-.122-.574-.91-.636-1.698m8.272-.212c-.176-.142-.674.04-.636-.318-.11-.817.714-.7.425-1.697-.172-.182-.667-.04-.637-.424v-.53c.746-.072 1.16-.023 1.803-.317.597 1.033 2.636.81 3.818.954.242.27.044.748-.105.954-.93-.295-3.97-1.417-3.606.426 1.126.464 2.54.64 3.923.848.104.776-.248 1.094-.742 1.273-.92-.233-2.44-.922-3.393-.424.443 1.183 2.492.76 3.712 1.166.102.738-.274 1-.744 1.166-.813-.425-2.005-.47-2.97-.742.053.334-.19.374-.104.742-1.65.65-.647-2.114-.744-3.076m-5.726 3.288c-.38.062-.513-.124-.743-.212.345-1.278.79-3.448 0-4.35.25-.35.412-.788.954-.847.344.186.66.4.955.636 2.677-.178 4.91 2.745 3.18 4.666-.817.394-2.072.763-3.287.424-.242.077-.188.448-.32.636h-.635c-.227-.36.04-.557-.106-.954m-47.725-5.41c.29-5.04 8.536-4.298 11.242-1.59.086.43.252 1.224-.107 1.485-.707.034-.738-.605-1.484-.53.503.606 1.166 1.445.53 2.333-2.01-1.308-4.687-3.953-7.956-2.333-1.103 1.003-.33 2.43.637 3.393 1.287 1.284 3.315 1.834 4.986 2.228.45-.08.476-.585 1.06-.53.806.176 1.09 1.543.636 2.332-.665.064-1.12-.08-1.696-.106-.113.525-.233 1.04-.637 1.273-3.412-1.46-7.483-3.244-7.213-7.954m27.998 8.27v.638h-.424c.105-.25.036-.673.425-.637m-2.863.32c-.19.3-.412 1.112-.85 1.166-.833.104-1.077-.967-.953-1.697-1.657-.38-1.313-2.15 0-2.652.573-2.277.068-5.006.742-7.212 1.127.35 1.732-.996 2.757-.106-.173 1.773-1.29 3.165-1.06 4.984 1.353-1.367 2.623-2.82 3.923-4.24.388-.568.702-1.21 1.378-1.486.792.27.906 1.216 1.38 1.803-.5.387-.242 1.046 0 1.486-.912 1.775-.51 5.186-.636 7.423-.092.367-.797.122-.85.53.086.544-.113.805-.21 1.166-2.3.138-1.33-1.077-.955-2.757.46-2.07.955-3.908.74-5.622-1.504 2.162-3.962 4.928-5.408 7.21m-9.863.213c-.718-.06-1.106-.45-1.274-1.06.087-.373.404-.514.53-.847-.4-1.72-1.077-3.165-1.803-4.56-.485-.08-1.035-.096-1.272-.425-.015-.547.137-.925.32-1.272.547.088.844-.075.953-.425-.17-.678-.52-1.175-.742-1.802.29-.41 1.03-.722 1.7-.424.335 1.2.255 2.495 1.165 3.075.868.553 2.648.636 3.712.954.556-.857.492-2.336 1.59-2.65.41.296.94.472 1.38.74.072 1.277-.993 1.412-1.06 2.547.703.145 1.478.218 2.12.424.595 1.867-1.87 2.08-2.863 1.273-.624 1.498-1.265 2.978-1.485 4.88-.37.16-.618.443-1.273.317.077.467-.344.435-.426.742-1.124.207-1.318-.518-1.27-1.485m13.786 3.183c-1.838 0-4.36-.235-6.575-.212.15-2.37 3.9-.842 6.152-1.272.202.434.438.835.424 1.485m8.91.32c-1.005.172-1.052-.446-1.273-1.487-1.198-.08-1.153-1.336-.637-2.12-.465-1.585-1.06-3.042-1.804-4.35-1.228.195-1.54-.93-.954-1.695.662.13.862-.2 1.06-.53-.362-.45-.577-1.048-.74-1.696.196-.44.754-.517 1.27-.637.642.81.763 2.137 1.168 3.182 1.37.324 2.638.755 3.924 1.165.725-.724.616-2.282 1.59-2.757.422.32 1.116.37 1.485.742.16 1.326-1.017 1.316-.954 2.546.604.21 1.486.14 2.016.424.63 1.823-1.826 2.117-2.758 1.272-.837 1.39-1.245 3.21-1.697 4.984-.615-.225-1.188.868-1.695.956m-36.802-2.758c-.157.513-.69.652-1.06.954-1.08-.476-1.792-1.318-3.18-1.484-.427 1.306-.613 2.853-.85 4.348-.422.078-.427.078-.848 0-.04-.562-.436-.767-.637-1.167.827-1.047 1.27-2.476 1.59-4.03-.196-.084-.387-.177-.635-.212-.034-.423-.006-.784.213-.954 1.91.49 3.263 1.543 5.09 2.12.375-.19.748-.384.954-.743-.026-.36-.268-.51-.213-.954.205-.15.428-.28.744-.318.298.444.358 1.127.424 1.803.667.36 1.487.563 2.12.954.477-.302.418-1.14.956-1.378.54-.08.536.383.85.53-.08.52-.5.703-.532 1.272.48.124.916.286 1.06.743-.123.017-.114.167-.105.316-.622.222-1.1.208-1.59-.105-.56.785-.966 1.722-1.273 2.758-3.193 1.282-.812-3.818-3.077-4.454m1.91 6.68h.955c1.29-.548 2.408-1.267 2.65-2.862 1.394.026 2.694-.94 2.652-2.333-.015-.515-.726-1.103-.637-1.592.163-.88 2.177-.804 2.758-1.697.89-1.366.138-2.447 0-3.71 1.594.55 1.164 2.38 1.168 3.71.005 1.93 1.826 2.746 2.333 4.137 1.79.88 3.226-.428 4.56-.954.516-.865.97-1.79 1.062-3.076 3.12 1.5-.427 3.698-1.274 5.41 4.046.268 8.425.764 12.516.635-.023-.967-.668-1.313-.637-2.333 1.528-.523 2.167-1.935 2.758-3.395.245-.033.407.018.53.106.386.463-.177.88-.318 1.168-.007 1.42.56 2.267 1.485 2.757.257 1.432 1.4 2.316 2.863 2.016.324-.067.363-.368.848-.636.386-.213.917-.186 1.273-.318 1.397-.517 1.298-3.156 1.803-4.455 1.806-.1 3.115-.7 3.71-2.014.7.744 1.398 1.73 2.864 1.485.413-.067.644-.333 1.06-.53h1.167c1.114-1.062 3.65-.047 4.56-1.27.913.382 2.136 1.01 3.078.316 1.073-.79.98-1.455 1.272-2.757.192-.86.815-1.873.106-2.758.078-.417.22-.77.318-1.167-.237-.435-.51-.833-.53-1.485.105-.424.606-.454.955-.636 1.142-.982 1.988-3.15 1.06-4.985-.55-.406-.945-.966-1.167-1.697.113-.452.655-.477 1.06-.637.513-.795 1.05-1.566 1.697-2.227.292-2.096-.782-2.825-1.803-3.607-2.22-.24-2.68 1.28-4.56 1.38.253-3.563-6.008-3.106-6.682-.32-1.908-.886-4.116-.183-4.348 1.804-1.74.113-2.196-1.056-2.227-2.652-.954-1.744-4.502-1.374-4.88.637-1.377-.532-3.29-1.163-4.983-1.485-.778-.148-1.062.2-1.38.318-.884.33-2.002.17-2.862.636-.47.255-.58.782-1.167.85-1.725-1.88-4.065-3.147-7.848-2.97-.648.483-1.83.432-2.44.955-.632-.11-.79-.695-1.59-.636-.753-.415-1.053-1.282-1.803-1.698-2.185.176-4.443.435-5.727-.743-.613-.048-1.086.044-1.59.105-.204.54-.875.61-1.168 1.06-1.52-1.043-4.538-1.036-4.56 1.38-.462.197-1.085-.03-1.59-.106-.968-1.014-.71-3.253-2.333-3.608H46.42c-1.3.22-1.935 1.105-2.44 2.122-.125.585.183.736.213 1.166-1.164 1.518-.805 4.297 1.272 4.56.32.81.547 1.716.955 2.44-1.017 1.935.195 2.377 1.167 3.924.077.125-.056.39 0 .53.328.847 1.833 1.416 2.968 1.167-.624 1.04-1.8 1.525-2.015 2.97-.16.16-.318.32-.424.53.11 1.11-.157 1.823 0 2.652.042.23.347.325.423.53.25.668.33 1.83.742 2.44.526.78 1.524 1.03.637 2.227-1.136-.374-1.618-.76-2.97-1.168-.47-.14-.845-.525-1.167-.53-1.17-.02-2.076 1.126-2.12 2.333-.018.485.318.99.318 1.485 0 1.127-.752 1.93-1.167 2.65v1.38c.717 1.105 1.37 2.24 2.757 2.227 1.755-.017 2.133-1.737 2.546-3.818.69.297 1.01.967 2.12.847.075 1.976.952 3.148 2.333 3.818" fill-rule="evenodd"/><path d="M71.557 750.595c.592.066 1 1.856.53 2.652-.208.352-1.574.656-1.802.742-.062-.99.185-3.515 1.272-3.395zm11.24 3.076c1.447.076 2.61.432 3.396 1.168-1.417.31-2.68-.426-3.395-1.167zm-19.83 2.016c-1.71-.912-4.54-1.012-6.788-1.06.056-1.056-.71-1.85 0-2.652 1.84.252 4.073 1.217 5.938.742-1.31-1.624-2.575-3.293-4.136-4.666-.15-.37.297-.68 0-.85-.566-.14-.495.355-1.06.213-.222-.38-.38-.823-.53-1.272.698-.377.675-1.687 1.59-1.59.452.048.656.666.954 1.167.36-.065.17-.68.637-.637.96.88 2.858.385 4.136.107.152.412.41.72.317 1.378.576.202 1.176.38 2.014.318.317.327.227 1.115.108 1.59-.736.043-.756.8-1.273 1.062-1.04-.692-2.584-1.446-4.03-1.38.88 1.453 2.377 2.29 3.288 3.712-.006.348-.302.406-.212.85.39.888 1.238.81 1.804 1.378-.125 1.123-1.078 1.357-2.122.848-.242.217-.195.725-.636.743zm-14.317-1.38c-.302-.193-.827-.163-1.06-.424.75-2.404-.682-3.887-1.275-5.832-.28-.32-1.02-.18-1.378-.424.002-.565-.067-1.198.212-1.485.17-.252.933.087.954-.318-.04-.845-.67-1.098-.53-2.12.404-.126.65-.41 1.272-.318.528.955.592 2.377 1.273 3.18 1.357.27 2.534.718 3.817 1.062.393-.88.703-1.843 1.166-2.652.96-.112 1.292.405 1.803.743.11 1.24-1.036 1.227-.955 2.44.758-.05.97.445 1.805.317.48.363.31 1.18 0 1.59-.68-.112-.883.25-1.274.425-.368-.303-.778-.563-1.377-.638-.646 1.582-1.236 3.218-1.59 5.09-.992.167-3 2.117-2.863-.635zm5.62-1.27c.314 1.027.575 2.11 1.06 2.968.276.22.86.13.85.637-1.188.14-2.55.047-3.82.318 1.152-.793 1.323-2.566 1.91-3.923zm13.15-4.138c.346-.786 1.277-1.87 2.015-2.015 5.122-.993 8.503 1.827 7.742 6.788-.133.87-.783 3.366-1.272 3.925-.69.79-2.136.64-2.333-.637-.44.123-.846.133-.955-.317.377-1.76 1.592-4.83.636-6.68-.32-.622-1.16-1.322-1.91-1.38-2.993-.23-3.247 4.14-3.286 7 2.027.874-.296 2.96-1.59 1.485.184-3.028.02-6.043.953-8.167zm19.09 9.65c-.15.274-.248.6-.636.638-4.252-.912-8.815-1.952-8.166-7.424.496-5.038 8.745-4.183 11.347-1.59.07.794.036.743 0 1.59-.593.136-.684.17-1.378.105-.302-.228-.326-.734-.53-1.06-1.886-.685-4.673-1.656-6.576-.53 2.27-.43 4 .402 5.728.848.537.587 1.833.888 1.38 2.122-2.17-.626-5.95-2.695-8.167-.637.434 1.52 1.813 2.636 3.288 3.288.866.383 2.11.894 2.758.848.46-.032.85-.673 1.38-.424.615.344.806 1.485.423 2.227-.156.155-.695.155-.85 0zm-8.91.108c.154-.273.377-.475.532-.743.387.143.667.393.955.636-.178.458-.605.668-.85 1.06.004-.534-.52-.538-.636-.954zm-8.165-2.652c.44-.303 1.168-.317 1.59-.636.75 1.34 1.777 2.957 2.122 4.348-2.257-.218-2.605-2.344-3.712-3.712zm25.454 3.287c-.63 1.394-2.113.41-2.017-.953-.373-.086-.673-.246-.954-.424-.22-.892.354-.988.53-1.485-1.032-1.515-.763-4.328-2.97-4.666-.266-.488-.07-1.312.212-1.59.32-.034.825.117.85-.213-.02-.868-.667-1.104-.638-2.016.38-.22.677-.526 1.38-.424.486.962.612 2.285 1.165 3.18 1.534.128 2.385.938 4.03.956.395-.713.39-2.36 1.272-2.546.594-.125 1.15.348 1.59.85-.117.942-.79 1.33-1.06 2.12.7.413 2.227 1.027 2.97.424.202-1.095.387-2.964.318-4.666.39-.074.806-.183 1.167 0 .23-.16.17-.608.53-.637.715-.113 1 .202 1.38.426-.15 1.16-.914 1.703-.85 3.075 2.628.08 4.392-1.614 6.682-2.226.35.286.612.66.53 1.378-.12.342-.878.043-.956.425-.024.443.173.5 0 .848-.89.453-2.235.452-2.97 1.06.334.597.995 1.01 1.38 1.697.125.226.083.6.212.85.256.495.753.604.954.954 1.677 2.913-2.49 3.842-5.196 3.924-1.707-.415-2.96-1.284-4.455-1.91.022-.34-.188-.448-.106-.848.735-.465 1.205-1.198 1.166-2.44-.275-.112-.317-.46-.636-.53-.83.737-1.912.66-2.864.107-.803 1.53-1.055 3.61-1.803 5.196-.404.132-.51-.094-.848.105zm2.756 1.168c.037-.616.635-1.546.743-2.44.644.91 1.336 1.774 2.65 2.016-.045 2.317-2.03.418-3.394.424zM65.83 761.73c-.59-1.282-.648-3.163-2.228-3.5-.77-.163-1.473.122-2.226.426-1.206-.915-2.893-1.35-4.455-1.91 2.836-.925 5.727 1.593 7.955.32.26 2.153 2.903 2.536 4.984 2.225-.09.34.167.33.212.532-1.787-.055-2.177 1.287-2.97 2.227-.437-.093-.87-.19-1.273-.32zm-12.197 1.167c2.077-.304 3.41 1.042 4.56 2.016-1.777.68-3.91-.56-4.56-2.016zm41.043 1.485c-.233-2.978-5.586-3.433-5.62-.424-.636.293-1.18-.168-1.803-.212-.137-.994-.516-1.748-.743-2.65 1.08-.265 1.735-.953 2.65-1.38.575-.95.66-2.45.213-3.606-.236-.365-.76-.442-.742-1.06.613-.167.83-.728 1.168-1.168.397.736.688 1.575.955 2.44-.44.8-.27 1.792 0 2.65 1.338 1.088 1.68 3.665 4.666 2.76-.676 1.47.48 2.933-.108 4.347-1.082-.122-.574-.91-.636-1.698zm8.272-.212c-.176-.142-.674.04-.636-.318-.11-.817.714-.7.425-1.697-.172-.182-.667-.04-.637-.424v-.53c.746-.072 1.16-.023 1.803-.317.597 1.033 2.636.81 3.818.954.242.27.044.748-.105.954-.93-.295-3.97-1.417-3.606.426 1.126.464 2.54.64 3.923.848.104.776-.248 1.094-.742 1.273-.92-.233-2.44-.922-3.393-.424.443 1.183 2.492.76 3.712 1.166.102.738-.274 1-.744 1.166-.813-.425-2.005-.47-2.97-.742.053.334-.19.374-.104.742-1.65.65-.647-2.114-.744-3.076zm-5.726 3.288c-.38.062-.513-.124-.743-.212.345-1.278.79-3.448 0-4.35.25-.35.412-.788.954-.847.344.186.66.4.955.636 2.677-.178 4.91 2.745 3.18 4.666-.817.394-2.072.763-3.287.424-.242.077-.188.448-.32.636h-.635c-.227-.36.04-.557-.106-.954zm-47.725-5.41c.29-5.04 8.536-4.298 11.242-1.59.086.43.252 1.224-.107 1.485-.707.034-.738-.605-1.484-.53.503.606 1.166 1.445.53 2.333-2.01-1.308-4.687-3.953-7.956-2.333-1.103 1.003-.33 2.43.637 3.393 1.287 1.284 3.315 1.834 4.986 2.228.45-.08.476-.585 1.06-.53.806.176 1.09 1.543.636 2.332-.665.064-1.12-.08-1.696-.106-.113.525-.233 1.04-.637 1.273-3.412-1.46-7.483-3.244-7.213-7.954zm27.998 8.273v.638h-.424c.105-.25.036-.673.425-.637zm-2.863.32c-.19.3-.412 1.112-.85 1.166-.833.104-1.077-.967-.953-1.697-1.657-.38-1.313-2.15 0-2.652.573-2.277.068-5.006.742-7.212 1.127.35 1.732-.996 2.757-.106-.173 1.773-1.29 3.165-1.06 4.984 1.353-1.367 2.623-2.82 3.923-4.24.388-.568.702-1.21 1.378-1.486.792.27.906 1.216 1.38 1.803-.5.387-.242 1.046 0 1.486-.912 1.775-.51 5.186-.636 7.423-.092.367-.797.122-.85.53.086.544-.113.805-.21 1.166-2.3.138-1.33-1.077-.955-2.757.46-2.07.955-3.908.74-5.622-1.504 2.162-3.962 4.928-5.408 7.21zm-9.863.21c-.718-.06-1.106-.45-1.274-1.06.087-.373.404-.514.53-.847-.4-1.72-1.077-3.165-1.803-4.56-.485-.08-1.035-.096-1.272-.425-.015-.547.137-.925.32-1.272.547.088.844-.075.953-.425-.17-.678-.52-1.175-.742-1.802.29-.41 1.03-.722 1.7-.424.335 1.2.255 2.495 1.165 3.075.868.553 2.648.636 3.712.954.556-.857.492-2.336 1.59-2.65.41.296.94.472 1.38.74.072 1.277-.993 1.412-1.06 2.547.703.145 1.478.218 2.12.424.595 1.867-1.87 2.08-2.863 1.273-.624 1.498-1.265 2.978-1.485 4.88-.37.16-.618.443-1.273.317.077.467-.344.435-.426.742-1.124.207-1.318-.518-1.27-1.485zm13.786 3.183c-1.838 0-4.36-.235-6.575-.212.15-2.37 3.9-.842 6.152-1.272.202.434.438.835.424 1.485zm8.91.32c-1.005.172-1.052-.446-1.273-1.487-1.198-.08-1.153-1.336-.637-2.12-.465-1.585-1.06-3.042-1.804-4.35-1.228.195-1.54-.93-.954-1.695.662.13.862-.2 1.06-.53-.362-.45-.577-1.048-.74-1.696.196-.44.754-.517 1.27-.637.642.81.763 2.137 1.168 3.182 1.37.324 2.638.755 3.924 1.165.725-.724.616-2.282 1.59-2.757.422.32 1.116.37 1.485.742.16 1.326-1.017 1.316-.954 2.546.604.21 1.486.14 2.016.424.63 1.823-1.826 2.117-2.758 1.272-.837 1.39-1.245 3.21-1.697 4.984-.615-.225-1.188.868-1.695.956zm-36.803-2.76c-.157.514-.69.653-1.06.955-1.08-.476-1.792-1.318-3.18-1.484-.427 1.306-.613 2.853-.85 4.348-.422.078-.427.078-.848 0-.04-.562-.436-.767-.637-1.167.827-1.047 1.27-2.476 1.59-4.03-.196-.084-.387-.177-.635-.212-.034-.423-.006-.784.213-.954 1.91.49 3.263 1.543 5.09 2.12.375-.19.748-.384.954-.743-.026-.36-.268-.51-.213-.954.205-.15.428-.28.744-.318.298.444.358 1.127.424 1.803.667.36 1.487.563 2.12.954.477-.302.418-1.14.956-1.378.54-.08.536.383.85.53-.08.52-.5.703-.532 1.272.48.124.916.286 1.06.743-.123.017-.114.167-.105.316-.622.222-1.1.208-1.59-.105-.56.785-.966 1.722-1.273 2.758-3.193 1.282-.812-3.818-3.077-4.454zm1.91 6.682h.955c1.29-.55 2.408-1.268 2.65-2.863 1.394.026 2.694-.94 2.652-2.333-.015-.515-.726-1.103-.637-1.592.163-.88 2.177-.804 2.758-1.697.89-1.366.138-2.447 0-3.71 1.594.55 1.164 2.38 1.168 3.71.005 1.93 1.826 2.746 2.333 4.137 1.79.88 3.226-.428 4.56-.954.516-.865.97-1.79 1.062-3.076 3.12 1.5-.427 3.698-1.274 5.41 4.046.268 8.425.764 12.516.635-.023-.967-.668-1.313-.637-2.333 1.528-.523 2.167-1.935 2.758-3.395.245-.033.407.018.53.106.386.463-.177.88-.318 1.168-.007 1.42.56 2.267 1.485 2.757.257 1.432 1.4 2.316 2.863 2.016.324-.067.363-.368.848-.636.386-.213.917-.186 1.273-.318 1.397-.517 1.298-3.156 1.803-4.455 1.806-.1 3.115-.7 3.71-2.014.7.744 1.398 1.73 2.864 1.485.413-.067.644-.333 1.06-.53h1.167c1.114-1.062 3.65-.047 4.56-1.27.913.382 2.136 1.01 3.078.316 1.073-.79.98-1.455 1.272-2.757.192-.86.815-1.873.106-2.758.078-.417.22-.77.318-1.167-.237-.435-.51-.833-.53-1.485.105-.424.606-.454.955-.636 1.142-.982 1.988-3.15 1.06-4.985-.55-.406-.945-.966-1.167-1.697.113-.452.655-.477 1.06-.637.513-.795 1.05-1.566 1.697-2.227.292-2.096-.782-2.825-1.803-3.607-2.22-.24-2.68 1.28-4.56 1.38.253-3.563-6.008-3.106-6.682-.32-1.908-.886-4.116-.183-4.348 1.804-1.74.113-2.196-1.056-2.227-2.652-.954-1.744-4.502-1.374-4.88.637-1.377-.532-3.29-1.163-4.983-1.485-.778-.148-1.062.2-1.38.318-.884.33-2.002.17-2.862.636-.47.255-.58.782-1.167.85-1.725-1.88-4.065-3.147-7.848-2.97-.648.483-1.83.432-2.44.955-.632-.11-.79-.695-1.59-.636-.753-.415-1.053-1.282-1.803-1.698-2.185.176-4.443.435-5.727-.743-.613-.048-1.086.044-1.59.105-.204.54-.875.61-1.168 1.06-1.52-1.043-4.538-1.036-4.56 1.38-.462.197-1.085-.03-1.59-.106-.968-1.014-.71-3.253-2.333-3.608H46.42c-1.3.22-1.935 1.105-2.44 2.122-.125.585.183.736.213 1.166-1.164 1.518-.805 4.297 1.272 4.56.32.81.547 1.716.955 2.44-1.017 1.935.195 2.377 1.167 3.924.077.125-.056.39 0 .53.328.847 1.833 1.416 2.968 1.167-.624 1.04-1.8 1.525-2.015 2.97-.16.16-.318.32-.424.53.11 1.11-.157 1.823 0 2.652.042.23.347.325.423.53.25.668.33 1.83.742 2.44.526.78 1.524 1.03.637 2.227-1.136-.374-1.618-.76-2.97-1.168-.47-.14-.845-.525-1.167-.53-1.17-.02-2.076 1.126-2.12 2.333-.018.485.318.99.318 1.485 0 1.127-.752 1.93-1.167 2.65v1.38c.717 1.105 1.37 2.24 2.757 2.227 1.755-.017 2.133-1.737 2.546-3.818.69.297 1.01.967 2.12.847.075 1.976.952 3.148 2.333 3.818z" fill="none" stroke="#000" stroke-width=".511" stroke-linecap="round" stroke-linejoin="round" stroke-miterlimit="10"/><path d="M52.68 772.443c.458-.328.792.223 1.165.318-.138.498-.53.743-.848 1.06-.076-.49-.246-.884-.318-1.377m1.06 3.605c.306-1.036.712-1.973 1.272-2.757.49.314.97.328 1.59.107-.01-.15-.017-.3.107-.318-.147-.457-.584-.62-1.062-.744.03-.57.45-.75.53-1.272-.312-.147-.308-.61-.848-.53-.538.238-.48 1.076-.955 1.38-.634-.393-1.454-.597-2.12-.956-.067-.676-.127-1.358-.424-1.803-.316.038-.538.17-.743.318-.055.445.186.593.213.954-.206.36-.58.552-.954.743-1.828-.577-3.18-1.63-5.09-2.12-.22.17-.248.53-.213.953.248.035.438.128.636.212-.322 1.554-.765 2.983-1.592 4.03.2.4.597.605.636 1.167.422.078.427.078.85 0 .236-1.495.42-3.042.847-4.348 1.39.166 2.103 1.008 3.183 1.484.37-.302.903-.44 1.06-.954 2.265.636-.116 5.736 3.077 4.454M86.404 767.034c.728.262 1.832.148 2.228.742-.107.6-.655 1.678-1.273 2.122-.253-1.02-.872-1.675-.956-2.864m2.758 6.363c.45-1.776.86-3.595 1.697-4.984.93.845 3.385.55 2.756-1.273-.53-.284-1.412-.213-2.015-.424-.062-1.23 1.115-1.22.955-2.545-.37-.373-1.063-.42-1.484-.742-.973.475-.865 2.034-1.59 2.758-1.286-.41-2.553-.84-3.923-1.167-.406-1.046-.526-2.374-1.168-3.183-.518.12-1.076.197-1.273.637.165.648.38 1.247.742 1.697-.2.332-.4.662-1.06.53-.59.766-.276 1.892.953 1.697.744 1.307 1.338 2.764 1.804 4.35-.516.784-.562 2.038.636 2.12.22 1.04.268 1.66 1.272 1.485.507-.088 1.08-1.18 1.697-.955M78.132 772.55c-2.253.43-6-1.098-6.15 1.272 2.214-.024 4.736.21 6.574.212.014-.65-.222-1.05-.424-1.485" fill="#c3d835" fill-rule="evenodd"/><path d="M52.998 773.82c.317-.317.71-.562.848-1.06-.373-.094-.707-.646-1.166-.317.07.493.242.888.318 1.378" fill-rule="evenodd"/><path d="M64.875 765.02c.77.29 1.978.143 2.333.847-.51.585-.71 1.482-1.272 2.016-.513-.733-.976-2.054-1.06-2.864m1.166 7.316c.08-.307.502-.275.425-.74.655.124.903-.16 1.272-.32.22-1.9.86-3.38 1.484-4.88.995.807 3.458.596 2.863-1.27-.642-.207-1.417-.28-2.12-.425.067-1.134 1.133-1.27 1.06-2.544-.438-.27-.97-.446-1.38-.743-1.098.315-1.033 1.794-1.59 2.652-1.064-.318-2.844-.402-3.712-.955-.91-.58-.83-1.874-1.166-3.076-.67-.298-1.41.014-1.698.425.222.625.573 1.123.742 1.802-.11.35-.406.512-.954.424-.183.347-.334.726-.32 1.272.24.33.788.344 1.274.425.725 1.396 1.403 2.84 1.803 4.56-.127.333-.444.475-.53.848.167.61.556 1 1.272 1.062-.048.966.146 1.692 1.272 1.484M56.71 770.003c.403-.233.523-.748.636-1.273.575.026 1.03.17 1.696.106.454-.79.17-2.156-.636-2.333-.584-.054-.61.45-1.06.53-1.67-.393-3.698-.943-4.985-2.227-.965-.962-1.738-2.39-.636-3.393 3.27-1.62 5.947 1.025 7.955 2.333.636-.888-.026-1.727-.53-2.333.745-.075.777.564 1.483.53.36-.26.193-1.054.106-1.485-2.707-2.708-10.953-3.45-11.243 1.59-.27 4.71 3.8 6.494 7.212 7.955" fill="#c3d835" fill-rule="evenodd"/><path d="M87.36 769.898c.617-.444 1.165-1.52 1.27-2.122-.394-.594-1.498-.48-2.226-.742.084 1.19.703 1.844.955 2.864M74.42 768.413c.918-.637 1.523-1.588 2.12-2.545-.822.667-2.086 1.44-2.12 2.545M65.936 767.883c.562-.534.76-1.43 1.27-2.015-.353-.705-1.56-.557-2.33-.85.084.81.547 2.132 1.06 2.865" fill-rule="evenodd"/><path d="M103.692 767.246c-.085-.368.158-.408.106-.742.962.273 2.155.318 2.968.742.47-.166.846-.427.742-1.166-1.218-.407-3.268.016-3.71-1.167.95-.497 2.472.192 3.393.424.495-.178.848-.497.743-1.272-1.382-.21-2.798-.384-3.924-.85-.366-1.842 2.675-.72 3.605-.423.15-.207.348-.683.106-.955-1.18-.143-3.22.08-3.816-.954-.642.294-1.058.245-1.803.318v.53c-.03.384.466.243.637.426.29.997-.534.88-.424 1.696-.04.357.458.177.635.32.097.96-.904 3.726.744 3.074" fill="#c3d835" fill-rule="evenodd"/><path d="M101.252 765.55c-.544-.958-2.086-1.427-3.394-1.274v1.804c.946.708 2.986.492 3.394-.53" fill-rule="evenodd"/><path d="M58.193 764.913c-1.15-.974-2.484-2.32-4.56-2.016.65 1.456 2.783 2.696 4.56 2.016" fill="#fff" fill-rule="evenodd"/><path d="M104.858 752.93c.177-.148.95-.246.848.21-.36.01-.74.034-.848-.21m-11.667-.213c.892.1 1.745.237 2.335.636-.524.68-.688 1.716-1.38 2.227-.338-.933-.714-1.83-.954-2.863m9.334 4.242c.103-.482.08-1.958.318-2.652 1.804.317 3.707.536 4.773 1.59-.214 2.638-3.385 1.837-5.09 1.06m-6.788 2.23c.748-1.587 1-3.668 1.802-5.2.952.555 2.034.632 2.863-.105.32.07.362.417.637.53.038 1.242-.43 1.974-1.167 2.44-.08.4.13.507.106.85 1.495.623 2.747 1.493 4.454 1.907 2.704-.08 6.873-1.01 5.196-3.924-.202-.35-.7-.458-.954-.954-.13-.25-.087-.623-.213-.85-.384-.687-1.045-1.1-1.378-1.695.734-.61 2.078-.61 2.97-1.06.172-.35-.025-.406 0-.85.077-.38.835-.083.954-.424.082-.718-.18-1.092-.532-1.378-2.29.612-4.054 2.307-6.68 2.227-.065-1.372.7-1.915.847-3.075-.377-.225-.663-.54-1.378-.425-.36.028-.3.478-.53.637-.362-.185-.778-.075-1.167 0 .068 1.7-.116 3.57-.318 4.665-.743.602-2.27-.012-2.97-.424.27-.79.943-1.177 1.06-2.12-.44-.5-.996-.974-1.59-.85-.882.187-.877 1.833-1.273 2.547-1.645-.018-2.496-.83-4.03-.955-.554-.896-.68-2.22-1.168-3.182-.7-.1-.998.204-1.378.424-.03.913.618 1.15.637 2.015-.024.33-.528.18-.848.212-.283.28-.48 1.103-.212 1.59 2.207.338 1.938 3.152 2.97 4.667-.177.495-.752.592-.53 1.484.28.178.58.338.953.424-.096 1.363 1.386 2.347 2.016.954.336-.2.442.027.847-.105M73.147 759.717c-.345-1.39-1.374-3.008-2.12-4.35-.424.32-1.153.334-1.592.637 1.107 1.37 1.455 3.495 3.712 3.713" fill="#c3d835" fill-rule="evenodd"/><path d="M78.238 759.61c.245-.392.672-.6.85-1.06-.29-.244-.57-.493-.956-.637-.155.27-.377.47-.53.743" fill="#fff" fill-rule="evenodd"/><path d="M87.36 758.55c.382-.743.19-1.884-.425-2.228-.53-.25-.92.393-1.378.425-.65.045-1.893-.466-2.758-.85-1.477-.65-2.856-1.768-3.288-3.287 2.217-2.058 5.995.01 8.165.637.454-1.234-.842-1.535-1.38-2.12-1.725-.447-3.456-1.28-5.726-.85 1.905-1.125 4.692-.155 6.576.53.205.326.23.832.53 1.06.695.065.786.03 1.38-.105.036-.846.068-.796 0-1.59-2.603-2.593-10.85-3.448-11.348 1.59-.65 5.473 3.914 6.513 8.166 7.424.388-.037.486-.364.636-.637.155.155.694.155.85 0M74.208 756.11c.71-1.578.885-3.543 1.06-5.41.338 1.735.072 4.84-1.06 5.41m-7.74.955c1.294 1.476 3.617-.61 1.59-1.485.038-2.86.293-7.23 3.287-7 .75.058 1.588.758 1.908 1.38.956 1.85-.26 4.92-.635 6.68.108.45.515.44.954.318.197 1.278 1.642 1.426 2.333.637.49-.56 1.14-3.054 1.272-3.925.762-4.96-2.62-7.78-7.742-6.787-.738.144-1.67 1.23-2.015 2.015-.932 2.124-.77 5.14-.953 8.167" fill="#c3d835" fill-rule="evenodd"/><path d="M107.615 755.898c-1.066-1.055-2.97-1.274-4.773-1.59-.238.693-.215 2.17-.318 2.65 1.706.776 4.877 1.577 5.09-1.06M75.27 750.7c-.177 1.866-.352 3.83-1.062 5.41 1.132-.572 1.398-3.675 1.06-5.41" fill-rule="evenodd"/><path d="M48.755 748.58c.844.04 1.436.332 2.227.425-.138 1.098-.67 1.805-1.272 2.44-.25-1.022-.817-1.73-.955-2.865m2.757 6.364c.355-1.873.945-3.51 1.59-5.09.6.073 1.01.334 1.38.635.39-.174.594-.537 1.273-.424.31-.41.48-1.228 0-1.59-.836.127-1.047-.37-1.804-.32-.08-1.212 1.067-1.197.956-2.44-.51-.337-.843-.854-1.803-.74-.463.807-.773 1.77-1.166 2.65-1.283-.343-2.46-.793-3.818-1.06-.682-.804-.746-2.226-1.274-3.182-.622-.09-.87.192-1.273.318-.138 1.022.492 1.276.53 2.12-.02.405-.783.066-.954.32-.28.286-.21.92-.213 1.484.357.245 1.098.103 1.378.424.593 1.946 2.025 3.43 1.274 5.833.233.26.758.23 1.06.425-.136 2.75 1.87.8 2.862.636" fill="#c3d835" fill-rule="evenodd"/><path d="M63.602 754.944c1.044.51 1.997.275 2.122-.848-.566-.57-1.413-.49-1.804-1.38-.09-.442.207-.5.213-.848-.91-1.422-2.408-2.26-3.288-3.712 1.446-.067 2.99.688 4.03 1.38.517-.262.537-1.02 1.272-1.06.12-.478.21-1.265-.106-1.593-.837.062-1.437-.116-2.013-.317.092-.66-.166-.967-.32-1.38-1.277.28-3.173.775-4.135-.105-.466-.04-.276.573-.636.637-.298-.5-.502-1.118-.954-1.166-.916-.097-.893 1.214-1.59 1.59.15.45.308.894.53 1.274.565.142.494-.354 1.06-.212.297.17-.15.477 0 .848 1.56 1.373 2.826 3.042 4.135 4.667-1.864.474-4.097-.49-5.938-.743-.71.8.056 1.597 0 2.652 2.246.048 5.078.15 6.786 1.06.44-.017.394-.525.636-.742" fill="#c3d835" fill-rule="evenodd"/><path d="M94.146 755.58c.692-.51.856-1.548 1.38-2.227-.59-.4-1.444-.537-2.334-.636.24 1.034.615 1.93.954 2.863" fill-rule="evenodd"/><path d="M86.192 754.838c-.783-.736-1.948-1.092-3.393-1.167.713.742 1.975 1.48 3.392 1.168" fill="#fff" fill-rule="evenodd"/><path d="M105.706 753.14c.102-.456-.67-.358-.848-.212.108.245.487.22.848.212M49.71 751.444c.602-.635 1.134-1.34 1.272-2.44-.79-.092-1.383-.384-2.227-.424.138 1.136.704 1.842.955 2.864" fill-rule="evenodd"/><path d="M76.54 765.867c-.597.958-1.203 1.908-2.12 2.545.034-1.106 1.298-1.877 2.12-2.545m3.5-2.44c.215 1.715-.28 3.552-.74 5.622-.375 1.68-1.347 2.894.954 2.756.097-.36.296-.622.21-1.166.053-.408.758-.163.85-.53.125-2.238-.276-5.65.636-7.424-.242-.44-.5-1.1 0-1.485-.474-.586-.588-1.532-1.38-1.802-.676.277-.99.918-1.377 1.485-1.3 1.422-2.57 2.875-3.925 4.24-.228-1.818.89-3.21 1.06-4.983-1.024-.89-1.63.455-2.757.107-.672 2.205-.167 4.934-.74 7.21-1.314.502-1.657 2.272 0 2.652-.125.73.12 1.8.953 1.696.437-.054.66-.867.85-1.166 1.445-2.284 3.903-5.05 5.408-7.212M97.858 766.08v-1.803c1.307-.154 2.85.316 3.394 1.272-.408 1.023-2.448 1.238-3.394.53m-.53 2.333h.636c.13-.188.077-.56.32-.637 1.214.34 2.47-.03 3.286-.423 1.73-1.922-.503-4.844-3.18-4.667-.296-.236-.612-.45-.956-.637-.542.058-.704.497-.955.848.79.9.344 3.07 0 4.348.23.09.36.275.742.212.146.398-.12.593.106.955" fill="#c3d835" fill-rule="evenodd"/><path d="M50.307 733.92c0-.316-.047-.608-.142-.873-.095-.266-.235-.496-.423-.69-.186-.197-.42-.35-.697-.46-.28-.11-.6-.165-.964-.165-.368 0-.69.055-.97.166-.28.11-.512.262-.7.458-.185.195-.326.425-.42.69-.095.266-.143.558-.143.873v3.268h1.166v-3.224c0-.165.027-.318.078-.458.053-.14.128-.262.22-.365.096-.102.21-.182.342-.24.132-.057.275-.086.43-.086.153 0 .295.03.425.087.13.058.242.138.335.24.095.104.17.226.22.366.053.14.08.293.08.458v3.224h1.165v-3.27zM51.24 735.52h1.076v-.496h.015l.15.21.233.19c.09.053.19.1.306.134.113.034.237.052.372.052.284 0 .513-.044.687-.13.174-.09.31-.21.407-.366.096-.155.162-.338.198-.55.034-.21.052-.437.052-.683v-2.012h-1.12v1.788c0 .105-.005.214-.012.327-.007.113-.03.217-.067.312-.038.095-.095.173-.172.233-.077.06-.188.09-.333.09-.144 0-.26-.026-.35-.08l-.205-.21c-.048-.087-.08-.186-.094-.295-.015-.11-.023-.227-.023-.346v-1.82h-1.12v3.653zM60.196 734.34c-.055.08-.132.147-.23.2-.1.052-.208.078-.323.078-.283 0-.504-.085-.66-.255-.157-.17-.236-.394-.236-.67 0-.275.08-.498.235-.668.157-.17.378-.255.66-.255.126 0 .234.027.323.082l.23.196.74-.782c-.174-.18-.38-.307-.615-.38-.237-.072-.462-.108-.677-.108-.278 0-.54.045-.788.135-.246.09-.46.22-.642.387-.182.168-.325.37-.43.605-.104.235-.156.498-.156.79 0 .29.052.553.156.788.105.236.248.437.43.604.183.17.396.298.642.388.248.09.51.136.788.136.215 0 .44-.036.677-.108.236-.074.44-.2.616-.38l-.74-.782zM64.835 731.868H63.76v.496h-.015l-.154-.21-.226-.19c-.09-.054-.192-.1-.307-.134-.115-.035-.24-.052-.373-.052-.284 0-.514.044-.69.13-.178.09-.316.21-.412.365-.097.156-.162.34-.194.55-.033.21-.05.437-.05.683v2.014h1.122v-1.788c0-.106.003-.215.01-.327.008-.113.03-.217.068-.312.037-.095.095-.173.172-.233.078-.06.188-.09.332-.09.144 0 .262.026.35.08l.207.21c.045.087.077.186.092.296.015.11.023.225.023.345v1.82h1.12v-3.652zM65.64 737.55h1.12v-5.682h-1.12v5.68zM70.04 734.618h-.986V733.4c0-.1.005-.19.014-.274l.068-.214.16-.14c.072-.032.17-.048.287-.048.06 0 .14.006.236.02.096.01.17.04.22.085v-.94c-.125-.045-.254-.075-.39-.09-.133-.015-.265-.023-.395-.023-.19 0-.364.02-.522.06-.16.04-.3.104-.42.192-.118.087-.212.2-.28.34-.066.14-.1.31-.1.512v1.736h-.717v.902h.718v1.082h1.12v-1.082h.985v-.902zM70.623 735.52h1.12v-3.652h-1.12v3.652zm-.09 1.15c0 .18.064.334.19.462.128.128.28.192.46.192s.332-.064.46-.192c.126-.128.19-.282.19-.462 0-.18-.064-.334-.19-.462-.128-.128-.28-.192-.46-.192s-.332.064-.46.192c-.126.128-.19.282-.19.462M72.17 735.52h1.208l.92-2.48h.014l.852 2.48h1.128l-1.434-3.652H73.67l-1.5 3.652zM77.69 733.694c0-.276.077-.5.234-.67.157-.17.377-.255.66-.255.285 0 .505.084.662.255.157.17.235.393.235.67 0 .274-.077.498-.234.668-.157.17-.377.255-.66.255-.285 0-.505-.085-.662-.255-.157-.17-.235-.394-.235-.67m-1.122 0c0 .29.053.554.157.79.105.235.247.437.43.604.18.168.395.298.642.388.247.09.51.135.788.135s.542-.045.788-.135c.246-.09.46-.22.642-.388.182-.167.326-.37.43-.604.104-.236.157-.5.157-.79 0-.29-.053-.553-.157-.788-.104-.236-.248-.437-.43-.606-.182-.168-.396-.298-.642-.387-.246-.09-.51-.136-.788-.136-.28 0-.54.045-.788.136-.247.09-.46.22-.642.386-.183.168-.325.37-.43.605-.104.235-.157.498-.157.79M85.47 733.47c-.084 0-.19-.005-.317-.012-.127-.008-.248-.03-.366-.064-.116-.036-.216-.09-.3-.158-.08-.07-.12-.168-.12-.293 0-.136.056-.236.17-.3.115-.066.234-.098.36-.098.108 0 .214.014.317.045.102.03.193.072.27.127l.192.21c.048.086.07.186.07.3v.242h-.275zm.277-1.143h-.014c-.125-.196-.29-.337-.498-.42-.206-.087-.423-.13-.653-.13-.17 0-.332.025-.49.072-.156.047-.294.118-.414.213s-.213.213-.283.354c-.07.14-.105.302-.105.488 0 .21.038.388.116.534.077.144.182.264.313.36.13.094.282.17.45.22.17.053.346.092.528.118.182.025.364.04.545.045.18.005.35.007.504.007 0 .2-.07.36-.213.478-.14.117-.31.176-.504.176-.184 0-.35-.04-.504-.117-.152-.077-.288-.184-.407-.32l-.598.617c.208.196.453.343.73.44.28.097.57.147.868.147.33 0 .598-.04.81-.123.212-.083.38-.205.508-.365.127-.16.216-.357.265-.59.05-.233.075-.502.075-.808v-1.856h-1.03v.46zM87.48 735.52h1.076v-.496h.015l.15.21.232.19c.09.053.192.1.306.134.115.034.24.052.374.052.253 0 .478-.052.674-.158.2-.105.347-.27.446-.495.128.235.285.403.47.503.185.1.412.15.68.15.243 0 .448-.04.616-.123.168-.083.3-.196.397-.34.096-.142.165-.31.208-.503.043-.192.064-.4.064-.62v-2.156h-1.12v2.126c0 .17-.037.317-.11.44-.07.122-.2.184-.383.184-.13 0-.24-.02-.325-.064l-.21-.176c-.053-.076-.09-.163-.113-.263-.022-.1-.033-.206-.033-.316v-1.932h-1.12v1.93c0 .066-.004.146-.01.24-.003.097-.02.187-.05.272l-.147.218c-.066.06-.164.09-.294.09-.145 0-.262-.026-.352-.08l-.204-.21c-.047-.087-.077-.186-.092-.295-.016-.11-.024-.227-.024-.346v-1.82h-1.12v3.653zM93.994 735.52h1.12v-3.652h-1.12v3.652zm-.09 1.15c0 .18.064.334.19.462.128.128.28.192.46.192s.332-.064.46-.192c.126-.128.19-.282.19-.462 0-.18-.064-.334-.19-.462-.128-.128-.28-.192-.46-.192s-.332.064-.46.192c-.126.128-.19.282-.19.462M96.907 733.716c0-.12.022-.234.066-.342.045-.108.11-.203.19-.285.084-.084.18-.15.285-.2.107-.05.226-.076.355-.076.124 0 .242.025.35.076.11.05.207.116.288.2.084.08.147.176.192.284.044.108.067.222.067.342 0 .12-.024.234-.068.342-.045.108-.108.203-.19.286-.082.083-.18.148-.288.2-.11.05-.227.074-.35.074-.13 0-.25-.025-.356-.075-.106-.05-.2-.116-.284-.2-.082-.082-.146-.177-.19-.285-.045-.108-.067-.222-.067-.342m2.823-1.54c0-.692-.173-1.217-.52-1.575-.345-.357-.872-.536-1.58-.536-.322 0-.642.036-.955.11-.314.07-.602.213-.866.423l.62.932c.173-.146.356-.26.548-.346.19-.086.402-.128.63-.128.344 0 .597.084.76.25.16.17.242.383.242.644v.353h-.015c-.13-.175-.29-.3-.482-.37-.19-.074-.373-.11-.542-.11-.268 0-.512.045-.73.138-.22.094-.408.224-.565.393-.157.167-.278.366-.362.597-.084.23-.127.483-.127.76 0 .24.04.475.116.705.077.23.187.434.328.608.142.177.315.318.52.426.204.106.435.16.694.16.16 0 .305-.018.438-.052.13-.035.25-.08.354-.135.105-.056.194-.118.27-.184l.178-.2h.015v.48h1.03v-3.344zM102.628 733.47c-.085 0-.19-.005-.317-.012-.126-.008-.248-.03-.366-.064-.116-.036-.216-.09-.298-.158-.082-.07-.123-.168-.123-.293 0-.136.057-.236.17-.3.116-.066.235-.098.36-.098.11 0 .215.014.318.045.103.03.194.072.273.127l.19.21c.048.086.072.186.072.3v.242h-.277zm.277-1.143h-.015c-.125-.196-.29-.337-.497-.42-.207-.087-.424-.13-.654-.13-.17 0-.333.025-.49.072-.157.047-.295.118-.414.213-.12.095-.214.213-.284.354-.07.14-.105.302-.105.488 0 .21.038.388.116.534.077.144.182.264.313.36.133.094.283.17.452.22.17.053.345.092.527.118.182.025.364.04.546.045.18.005.35.007.505.007 0 .2-.07.36-.214.478-.14.117-.31.176-.503.176-.184 0-.35-.04-.504-.117-.15-.077-.287-.184-.406-.32l-.598.617c.207.196.452.343.73.44.28.097.568.147.867.147.33 0 .598-.04.81-.123.212-.083.38-.205.508-.365s.216-.357.266-.59c.05-.233.075-.502.075-.808v-1.856h-1.03v.46zM105.772 733.694c0-.276.078-.5.235-.67.157-.17.377-.255.66-.255.285 0 .505.084.662.255.157.17.235.393.235.67 0 .274-.078.498-.236.668-.158.17-.378.255-.662.255-.284 0-.504-.085-.66-.255-.158-.17-.236-.394-.236-.67m-1.03 3.856h1.12v-2.42h.014c.13.174.296.298.497.37.202.073.42.11.654.11.26 0 .49-.054.695-.16.203-.11.377-.253.52-.434.14-.18.25-.387.327-.62.076-.233.115-.477.115-.733 0-.275-.042-.528-.127-.758-.085-.23-.206-.43-.362-.598-.157-.168-.345-.298-.565-.39-.217-.094-.46-.14-.73-.14-.13 0-.252.018-.366.053-.115.035-.22.08-.317.135-.098.055-.183.116-.254.184l-.176.198h-.015v-.48h-1.03v5.68zM109.357 737.55h1.12v-5.682h-1.12v5.68zM113.77 734.107c.006.19-.056.354-.186.49-.13.134-.296.202-.5.202-.124 0-.234-.02-.328-.06-.095-.042-.176-.093-.243-.155l-.157-.22-.064-.258h1.48zm.95-1.608c-.18-.232-.406-.41-.68-.535-.274-.125-.558-.187-.85-.187-.28 0-.542.045-.79.135-.245.09-.46.22-.642.387-.18.168-.325.37-.43.605-.103.235-.156.498-.156.79 0 .29.053.553.157.788.103.236.247.437.428.605.183.168.397.297.643.387.248.09.51.136.79.136.258 0 .494-.044.705-.135.21-.09.39-.22.538-.387.146-.168.26-.37.34-.605.08-.235.12-.5.12-.79v-.352h-2.6c.044-.214.14-.386.29-.514.15-.128.335-.192.554-.192.184 0 .34.04.466.124.127.083.238.19.333.32l.784-.58zM57.007 726.825c-.055.08-.132.147-.232.2-.1.052-.206.08-.32.08-.284 0-.505-.087-.662-.258-.156-.17-.235-.393-.235-.668 0-.277.08-.5.235-.67.157-.17.378-.256.66-.256.126 0 .233.028.322.083l.232.196.74-.782c-.175-.18-.38-.306-.616-.38-.236-.07-.462-.107-.676-.107-.278 0-.54.044-.788.134-.246.09-.46.22-.642.388-.182.167-.325.37-.43.605-.104.235-.156.498-.156.79 0 .29.052.552.157.788.104.235.247.437.43.605.18.168.395.297.64.387.248.09.51.135.79.135.213 0 .44-.036.676-.11.237-.072.442-.198.617-.378l-.74-.782zM59.136 726.18c0-.276.078-.5.235-.67.158-.17.378-.256.662-.256.284 0 .504.086.66.256.158.17.236.394.236.67 0 .274-.078.498-.235.668-.157.17-.377.256-.66.256-.285 0-.505-.087-.662-.257-.156-.17-.234-.394-.234-.67m-1.12 0c0 .29.052.554.156.79.105.235.247.437.43.605.18.168.395.297.642.388.246.09.51.134.788.134.28 0 .542-.045.788-.134.246-.09.46-.22.642-.388s.325-.37.43-.605c.104-.236.156-.5.156-.79 0-.29-.052-.553-.156-.788-.105-.235-.248-.438-.43-.605-.182-.168-.396-.297-.642-.387-.246-.09-.51-.135-.788-.135-.28 0-.542.045-.788.135-.247.09-.46.22-.643.387-.18.167-.323.37-.428.605-.104.235-.157.498-.157.79M62.706 728.005h1.074v-.496h.017l.15.21.23.188c.09.055.192.1.306.135.115.035.24.052.374.052.284 0 .513-.044.687-.13.175-.088.31-.21.408-.365.096-.156.162-.34.197-.55.034-.21.052-.438.052-.683v-2.014h-1.12v1.788c0 .106-.005.216-.013.33-.007.11-.03.215-.067.31-.04.095-.096.173-.173.233-.076.06-.187.09-.332.09-.145 0-.262-.026-.35-.08l-.206-.21c-.048-.088-.078-.187-.093-.297-.017-.11-.024-.225-.024-.345v-1.818h-1.12v3.652zM71.69 726.592c.006.19-.056.353-.186.49-.13.134-.296.2-.5.2-.124 0-.234-.018-.328-.058-.095-.04-.176-.092-.243-.154l-.157-.22-.064-.258h1.48zm.95-1.608c-.18-.23-.406-.41-.68-.534-.274-.125-.558-.187-.85-.187-.28 0-.543.045-.79.134-.245.09-.46.22-.642.388-.182.167-.325.37-.43.605-.103.235-.156.498-.156.79 0 .29.053.552.157.788.103.235.246.437.428.605.182.168.397.297.643.387.247.09.51.135.79.135.258 0 .493-.045.705-.135.21-.09.39-.22.538-.387.146-.168.26-.37.34-.605.08-.236.12-.5.12-.79v-.352h-2.6c.044-.216.142-.388.29-.515.15-.127.334-.19.554-.19.184 0 .34.04.466.123.127.083.238.19.333.32l.784-.58zM73.506 730.034h1.12v-5.682h-1.12v5.682zM77.644 728.005h1.075v-.496h.014l.15.21.23.188c.09.055.192.1.306.135.116.035.24.052.375.052.254 0 .478-.052.675-.157.198-.105.346-.27.445-.496.13.235.286.403.47.503.185.1.412.15.68.15.245 0 .45-.04.617-.123.167-.083.3-.196.396-.338.097-.144.167-.312.21-.504.042-.193.063-.4.063-.62v-2.157h-1.12v2.126c0 .17-.037.316-.11.44-.07.122-.2.184-.383.184-.13 0-.238-.022-.325-.065l-.21-.177c-.05-.076-.09-.164-.11-.264-.023-.102-.034-.207-.034-.317v-1.93h-1.12v1.93c0 .065-.003.146-.01.24-.004.095-.02.186-.05.27l-.146.22c-.068.06-.166.09-.296.09-.144 0-.26-.027-.35-.08l-.206-.21c-.047-.088-.078-.187-.093-.297-.015-.11-.023-.225-.023-.345v-1.818h-1.12v3.652zM86.63 726.592c.004.19-.058.353-.188.49-.13.134-.296.2-.5.2-.124 0-.234-.018-.33-.058-.093-.04-.174-.092-.242-.154l-.156-.22-.064-.258h1.48zm.948-1.608c-.18-.23-.406-.41-.68-.534-.274-.125-.557-.187-.85-.187-.28 0-.542.045-.79.134-.246.09-.46.22-.642.388-.18.167-.325.37-.43.605-.103.235-.156.498-.156.79 0 .29.053.552.157.788.104.235.248.437.43.605.182.168.395.297.642.387.246.09.508.135.787.135.26 0 .494-.045.706-.135.212-.09.39-.22.538-.387.147-.168.26-.37.34-.605.08-.236.12-.5.12-.79v-.352h-2.6c.045-.216.143-.388.292-.515.15-.127.333-.19.553-.19.184 0 .34.04.467.123.127.083.237.19.332.32l.784-.58zM91.207 726.18c0 .274-.078.498-.235.668-.157.17-.377.256-.66.256-.285 0-.505-.087-.662-.257-.157-.17-.235-.394-.235-.67 0-.274.078-.498.235-.668.157-.17.377-.256.66-.256.285 0 .505.086.662.256.157.17.235.394.235.67m1.03-1.827h-1.03v.48h-.014l-.177-.2c-.07-.067-.156-.128-.253-.184-.097-.055-.204-.1-.32-.135-.118-.035-.24-.052-.364-.052-.27 0-.514.046-.732.14-.22.09-.407.222-.565.39-.157.167-.278.367-.362.597-.084.23-.126.483-.126.76 0 .254.04.5.116.732.077.233.187.44.328.62.143.18.316.324.52.432.204.107.435.16.694.16.235 0 .453-.036.654-.11.2-.07.367-.195.497-.37h.015v2.42h1.12v-5.682zM93.15 728.004h1.12v-3.652h-1.12v3.652zm-.09 1.15c0 .18.063.335.19.463s.28.19.46.19c.178 0 .332-.062.46-.19.126-.128.19-.282.19-.463 0-.18-.064-.334-.19-.46-.128-.13-.282-.193-.46-.193-.18 0-.333.065-.46.193-.127.127-.19.28-.19.46M96.063 726.18c0-.276.077-.5.234-.67.158-.17.378-.256.662-.256.283 0 .503.086.66.256.156.17.234.394.234.67 0 .274-.077.498-.234.668-.158.17-.378.256-.662.256-.283 0-.503-.087-.66-.257-.158-.17-.236-.394-.236-.67m-1.12 0c0 .29.052.554.157.79.104.235.247.437.43.605.18.168.394.297.64.388.247.09.51.134.79.134.277 0 .54-.045.787-.134.245-.09.46-.22.64-.388.183-.168.327-.37.43-.605.106-.236.16-.5.16-.79-.002-.29-.055-.553-.16-.788-.102-.235-.246-.438-.428-.605-.184-.168-.398-.297-.644-.387-.245-.09-.51-.135-.787-.135-.28 0-.543.045-.79.135-.246.09-.46.22-.64.387-.183.167-.326.37-.43.605-.106.235-.158.498-.158.79M103.844 725.954c-.084 0-.19-.005-.317-.012s-.25-.03-.367-.063c-.116-.037-.216-.09-.298-.16-.08-.07-.123-.167-.123-.293 0-.135.056-.235.17-.3.115-.065.235-.098.36-.098.108 0 .215.014.317.044.102.03.193.073.272.127l.19.212c.047.086.07.186.07.3v.242h-.276zm.277-1.142h-.014c-.125-.196-.29-.337-.497-.42-.208-.087-.425-.13-.655-.13-.17 0-.33.025-.49.072-.156.048-.294.12-.413.214-.12.095-.214.213-.284.354-.07.14-.105.302-.105.488 0 .21.04.388.116.533.076.146.18.266.313.36.132.096.282.17.452.223.17.052.344.09.526.116.183.026.365.04.547.046.18.005.35.007.504.007 0 .2-.07.36-.213.477-.14.118-.31.177-.504.177-.184 0-.35-.04-.504-.118-.153-.077-.29-.184-.407-.32l-.598.617c.21.195.453.34.732.44.28.096.567.145.866.145.33 0 .6-.04.81-.124.212-.08.382-.203.51-.363.126-.16.214-.357.263-.59.05-.233.075-.503.075-.808v-1.857h-1.03v.46zM105.854 728.005h1.075v-.496h.015l.15.21.23.188c.09.055.192.1.306.135.116.035.24.052.375.052.254 0 .48-.052.676-.157.198-.105.346-.27.446-.496.13.235.286.403.47.503.184.1.41.15.68.15.243 0 .45-.04.616-.123.167-.083.298-.196.396-.338.097-.144.167-.312.21-.504.04-.193.063-.4.063-.62v-2.157h-1.12v2.126c0 .17-.036.316-.108.44-.073.122-.2.184-.385.184-.13 0-.238-.022-.325-.065l-.21-.177c-.05-.076-.09-.164-.11-.264-.024-.102-.035-.207-.035-.317v-1.93h-1.12v1.93c0 .065-.002.146-.008.24-.005.095-.023.186-.052.27l-.146.22c-.068.06-.165.09-.296.09-.144 0-.26-.027-.35-.08l-.205-.21c-.047-.088-.078-.187-.093-.297-.015-.11-.023-.225-.023-.345v-1.818h-1.12v3.652zM113.487 726.18c0-.276.08-.5.236-.67.156-.17.376-.256.66-.256.285 0 .505.086.662.256.157.17.235.394.235.67 0 .274-.078.498-.235.668-.157.17-.377.256-.662.256-.284 0-.504-.087-.66-.257-.157-.17-.236-.394-.236-.67m-1.03 3.857h1.12v-2.42h.015c.13.175.295.3.496.37.202.074.42.11.655.11.258 0 .49-.054.694-.16.204-.108.377-.252.52-.433.14-.18.25-.385.327-.618.077-.233.117-.478.117-.733 0-.277-.042-.53-.126-.76-.085-.23-.206-.43-.362-.597-.157-.168-.346-.3-.565-.39-.22-.094-.462-.14-.73-.14-.13 0-.253.017-.367.052-.115.036-.22.08-.318.135-.097.056-.182.117-.254.185l-.175.2h-.016v-.482h-1.03v5.682zM117.072 728.004h1.12v-3.652h-1.12v3.652zm-.09 1.15c0 .18.065.335.192.463s.28.19.46.19c.178 0 .33-.062.457-.19.13-.128.192-.282.192-.463 0-.18-.063-.334-.19-.46-.127-.13-.28-.193-.46-.193s-.33.065-.458.193c-.127.127-.19.28-.19.46M121.487 726.592c.005.19-.057.353-.187.49-.13.134-.297.2-.5.2-.125 0-.235-.018-.33-.058-.093-.04-.174-.092-.242-.154l-.157-.22-.062-.258h1.48zm.948-1.608c-.18-.23-.405-.41-.68-.534-.274-.125-.557-.187-.85-.187-.28 0-.542.045-.79.134-.245.09-.46.22-.64.388-.183.167-.326.37-.43.605-.105.235-.157.498-.157.79 0 .29.052.552.156.788.105.235.248.437.43.605.182.168.396.297.642.387.247.09.51.135.788.135.26 0 .495-.045.706-.135.212-.09.39-.22.538-.387.147-.168.26-.37.34-.605.08-.236.12-.5.12-.79v-.352h-2.6c.045-.216.142-.388.292-.515s.333-.19.552-.19c.184 0 .34.04.467.123.126.083.236.19.33.32l.785-.58zM123.287 728.005h1.075v-.496h.015l.15.21.23.188c.09.055.192.1.307.135.114.035.24.052.374.052.284 0 .513-.044.687-.13.174-.088.31-.21.408-.365.096-.156.162-.34.197-.55.035-.21.053-.438.053-.683v-2.014h-1.12v1.788c0 .106-.004.216-.012.33-.007.11-.03.215-.066.31-.038.095-.095.173-.173.233-.075.06-.187.09-.33.09-.145 0-.262-.026-.35-.08l-.207-.21c-.048-.088-.078-.187-.093-.297-.015-.11-.023-.225-.023-.345v-1.818h-1.12v3.652zM130.045 727.103h-.985v-1.218c0-.1.005-.192.014-.275l.07-.213.16-.14c.07-.032.167-.048.286-.048.06 0 .14.005.235.018.097.012.17.04.22.086v-.94c-.124-.045-.252-.075-.387-.09s-.267-.022-.397-.022c-.188 0-.363.02-.52.06-.16.04-.3.104-.42.192-.12.087-.213.202-.28.342-.067.14-.1.31-.1.51v1.737h-.718v.9h.718v1.084h1.12v-1.083h.985v-.9zM133.1 726.592c.006.19-.056.353-.186.49-.13.134-.295.2-.5.2-.124 0-.235-.018-.328-.058-.096-.04-.177-.092-.244-.154l-.156-.22-.064-.258h1.478zm.95-1.608c-.18-.23-.405-.41-.68-.534-.274-.125-.557-.187-.852-.187-.278 0-.54.045-.787.134-.246.09-.46.22-.64.388-.183.167-.327.37-.432.605-.103.235-.156.498-.156.79 0 .29.052.552.155.788.105.235.25.437.43.605.184.168.397.297.644.387.248.09.51.135.788.135.26 0 .495-.045.707-.135.21-.09.39-.22.537-.387.146-.168.26-.37.34-.605.08-.236.12-.5.12-.79v-.352h-2.6c.045-.216.142-.388.292-.515s.334-.19.552-.19c.184 0 .34.04.467.123.127.083.238.19.333.32l.783-.58z" fill="#fff"/></g></svg>