<svg xmlns="http://www.w3.org/2000/svg" width="400" height="454.974"><g fill-rule="evenodd"><path d="M242.408 269.11c1.047-11.518 1.57-25.13 2.618-37.173-3.14-5.76-6.283-10.995-8.9-16.754-3.665-7.33-7.337-12.565-11.002-19.895 5.766-3.14 11.525-9.948 15.707-17.8 5.767 1.57 8.385-1.048 8.385-6.284 4.188 1.047 6.282-.523 6.806-5.76 4.19 1.048 6.807-1.57 8.378-6.282v-5.235c-6.806-10.995-17.8-17.8-30.89-21.466-2.618-4.188-4.72-8.376-7.33-12.04-.524-3.143-.524-6.284-.524-8.378-19.37-7.33-37.696-7.33-57.59 0v8.377c-3.143 3.664-7.33 9.423-11.52 13.088-13.088 4.712-21.99 10.47-26.7 20.942-.525 1.57-.525 3.142-.525 4.712 1.046 3.142 1.57 5.236 8.376 6.283 0 3.665 3.665 5.76 7.33 5.76-1.047 3.664 3.665 6.805 6.283 6.805 1.046 5.236 10.994 15.707 23.552 20.943-10.464 1.57-17.794 5.235-21.982 15.707-1.57 4.188-.524 7.853.523 11.518-4.712 6.283-5.76 16.23-2.618 23.56-2.617 6.806-3.14 13.09 0 20.943 30.367-4.188 61.257-5.235 91.623-1.57" fill="#2056ae"/><path d="M178.534 194.764c6.814 0 10.48-2.094 12.565-6.282 6.282-.524 12.04-.524 17.8.523 4.706 1.047 9.425 3.665 13.613 6.807 7.33 10.994 13.613 21.99 17.794 32.984 2.633 3.14 2.633 6.806 1.578 10.995-1.054 9.425-1.578 18.85-2.61 28.273-9.432-.524-19.372-1.57-28.804-2.094.525-2.62 1.048-5.237 2.095-7.855 3.665-1.047 6.807 1.047 9.425 3.142-1.57-3.665-4.196-6.807-7.854-8.9 1.57-7.33 1.57-14.66 1.57-21.467 4.713-3.665 1.048-10.995-3.14-11.518-.524-2.618-1.048-6.807-1.048-8.9 3.142-5.236 2.088-8.9-3.134-10.996-13.62-1.047-31.944.524-29.85-4.712M176.44 187.435c2.094 0 9.947-1.048 10.464 1.57-.518 2.094-2.087 3.142-6.276 3.665-4.188-1.047-5.766-3.14-4.188-5.235" fill="#fff"/><path d="M200.524 202.094c-7.33-.523-15.176-1.047-22.514-1.047-21.99 1.047-25.13 14.66-21.99 21.466 6.284-3.14 12.566-5.236 18.842-6.283 7.86-1.047 15.19-1.57 22.52 0 4.712 0 7.33-2.094 8.9-5.235-7.86.523-5.758-4.712-5.758-8.9" fill="#fff"/><path d="M202.618 202.094c-.524 5.76 0 8.377 5.235 7.33 2.618-2.094 2.618-4.712 0-7.33h-5.235M200.524 249.738c-5.76-1.57-9.425-1.047-17.802 2.618-12.557 5.236-18.324 15.183-19.378 16.754 5.242-2.618 18.34-1.047 23.043-2.094 0 0 5.76-7.33 11.52-6.283 3.664 0 5.234-1.57 6.805-4.19-6.29.525-4.188-3.663-4.188-6.805" fill="#fff"/><path d="M202.094 249.738c-.523 4.19 0 6.283 4.19 5.76 2.1-2.095 2.1-3.666 0-5.76h-4.19M203.665 219.895c-4.19-1.57-16.76-2.618-26.17-1.57-23.045 1.57-29.327 16.754-24.092 29.32 2.618-6.807 15.707-11.52 21.983-12.566 8.384-1.572 18.855-3.666 26.185-2.096 4.19 0 6.814-.523 8.9-3.665-7.852.523-6.805-5.236-6.805-9.425" fill="#fff"/><path d="M202.094 235.602c-13.612-1.57-13.08 0-23.036 1.047-25.655 2.617-35.08 26.177-22.514 36.125 3.142-6.283 13.62-15.707 19.372-19.372 7.854-4.188 15.183-7.853 22.506-6.283 4.72 0 9.43.524 11.52-2.617-7.848.523-8.37-5.236-7.848-8.9M205.236 220.42c-.524 5.234 0 7.852 5.235 7.33 3.666 2.616 5.76-.525 2.62-5.237-2.62-1.047-6.284-2.094-7.854-2.094" fill="#fff"/><path d="M203.14 235.602c0 4.19 2.096 7.33 6.284 7.33 2.618-2.094 2.618-4.712.518-6.806-2.087-.524-4.705-.524-6.8-.524" fill="#fff"/><path d="M185.864 318.325c1.57 15.706 3.15 31.413 4.712 47.644-9.424 3.663-6.283 17.8 3.14 18.323 8.902 1.047 15.708-9.424 6.284-17.8 1.047-8.9 2.094-17.802 3.14-26.18 3.666 5.237 3.143 10.472 4.713 15.708 1.047 4.713 1.57 9.95 2.618 14.66.525 5.76 1.572 11.52 2.095 16.755 1.57-.524 2.095-.524 3.142-1.048-.524-6.282-.524-12.565-2.1-18.324-3.136-9.424-4.707-19.895-7.324-29.843 0-4.19 1.57-6.283 3.658-8.377 4.72 6.806 7.337 13.612 7.854 21.466 1.054 5.758 1.054 11.517 2.11 16.753.517 4.712 2.086 8.377 3.656 12.565-1.047-10.47-2.1-21.466-3.14-31.937v-1.046c-1.048-6.806-3.143-13.09-6.284-19.895 5.767-3.143 6.806-8.378 10.988-7.33 2.1 1.046 4.72 2.617 6.82 4.187 2.61.524 5.23 1.047 7.847 1.57 5.76 5.76 9.425 15.708 13.09 26.18-1.57-8.902-3.142-18.85-7.33-26.18 3.14-.523 6.8.525 9.947 2.095l10.995 17.278c.524-1.047.524-1.57 1.047-2.618-3.142-5.76-6.807-11.518-9.948-17.8-23.037-5.76-47.12-7.33-71.728-6.807" fill="#2056ae"/><path d="M196.866 83.246c-58.646.524-106.814 70.68-106.814 157.068 0 85.864 48.168 156.02 106.814 156.545v-7.33c-54.458 0-98.437-67.017-98.437-149.216 0-81.675 43.978-148.69 98.436-149.215v-7.854zm0-57.068c-88.49 0-160.74 94.24-160.74 209.948 0 115.706 72.25 210.47 160.74 210.47v8.378h-.53c-93.193 0-169.11-98.43-169.11-218.325 0-120.42 75.917-218.325 169.11-218.325h.53v7.853zm0 370.68h.518c59.162 0 107.337-70.156 107.337-156.544 0-86.91-48.174-157.068-107.336-157.068h-.518V91.1c54.443 0 98.946 67.015 98.946 149.214 0 82.2-44.503 149.215-98.946 149.215v7.33zm0 49.74c88.482 0 160.726-94.766 160.726-210.472 0-115.707-72.244-209.948-160.726-209.948v-7.853c93.186 0 168.58 97.905 168.58 218.324 0 119.894-75.394 217.8-168.58 218.324v-8.377" fill="#ed1c24"/><path d="M194.764 265.445c52.88-.524 87.96 10.995 108.377 18.325 7.33 5.235 9.433 12.042 2.096 24.607 31.937 3.14 62.827 1.57 94.764.524-13.09 11.52-28.28 20.42-45.55 25.655 14.66 5.236 28.79 9.948 43.456 15.183-19.372 3.665-38.744 5.76-58.63 2.618-9.433-1.047-19.904-3.665-28.805-2.618-17.8 2.094-36.64 7.854-39.79 3.142l-6.282-3.665 11.518-18.85c-53.926-16.752-106.282-16.23-156.544 0 3.14 9.426 8.377 16.232 13.612 22.515l-7.33.523C86.387 340.313 29.32 358.64 0 351.833c12.042-6.807 23.56-14.137 35.08-20.943-16.755-5.236-29.844-12.565-33.51-25.13 23.56 10.994 58.64-6.284 79.582 2.617-16.23-20.942 71.204-42.932 113.612-42.932" fill="#ed1c24"/><path d="M275.916 347.12c7.854 3.665 23.037-3.665 37.173-3.665 16.222 0 38.22 7.33 51.83 3.142-9.94-1.047-19.37-5.236-28.27-13.613 16.23-3.14 29.85-8.9 40.837-16.754-26.694 2.095-52.356 2.095-77.487-.523-7.853 10.47 4.188 20.42-24.084 31.413M290.57 287.958c-67.01-22.513-132.978-20.42-197.9 8.377-5.235 3.665-8.9 6.806-4.188 9.424 2.617 7.33 8.377 16.23 14.66 23.56 49.214-20.943 111.518-26.18 186.394-2.095.518-3.665 1.563-7.853 2.61-11.518 1.57-5.76 5.244-10.47 9.425-14.66 4.706-4.712 1.048-8.9-11-13.09M114.136 347.12c-12.042-3.665-20.42-12.04-28.796-30.366-17.277-9.948-45.55 2.094-68.586-1.57 8.377 6.806 19.372 11.518 31.414 15.706-7.854 5.76-16.23 10.995-24.084 16.23 31.937 1.048 60.733-12.565 90.052 0M110.995 333.508l-5.76 2.094 9.948 6.283-4.188-8.377" fill="#fff"/><path d="M283.77 333.508l3.665 1.57-6.283 2.618 2.618-4.188M198.422 6.283c-5.228 13.612-10.988 29.843-12.035 37.696-1.57 7.852-1.04 17.8 0 24.083-1.04.523-17.277 19.372-9.424 40.838 8.9-3.14 33.508-4.188 45.027 1.57 9.955-10.994-2.618-28.27-7.33-42.407 2.094-8.377 2.617-19.895-2.618-36.65 0-9.423-3.142-16.23-13.62-25.13" fill="#fff"/><path d="M174.346 109.948c-4.712-21.99 2.617-32.46 9.424-42.41C173.298 34.556 197.906 20.943 197.382 0c7.854 9.948 20.412 20.942 17.8 34.03 4.19 13.09 5.76 27.227 4.19 40.316 9.417 12.04 8.9 26.178 5.235 37.172-2.094-1.047-5.235-1.57-7.33-2.617 8.9-21.99-5.235-29.842-10.47-50.785 2.093 1.57 4.188 3.142 6.8 5.236.528-9.423-.52-19.37-4.183-29.32.518-9.946-4.188-20.417-10.47-24.606 0 3.14-1.048 6.283-1.572 9.424 1.57-1.047 3.142-2.618 4.712-4.188-.523 9.947-12.042 17.8-13.08 27.748-2.627 8.377-3.666 17.278 1.038 26.178-7.33 5.76-14.666 25.13-8.9 39.79-2.618.525-4.712.525-6.806 1.572" fill="#ed1c24"/><path d="M194.24 74.346c-3.14 10.47-4.71 19.37-1.046 31.413-3.142-5.236-8.377-3.666-7.846-16.755 0-9.424 5.75-9.424 8.893-14.66M203.14 60.21c-4.718 17.277 0 38.22 7.33 44.502 10.472-15.707-6.282-30.366-7.33-44.503M199.476 27.225c3.142 15.183 0 34.032-5.235 40.314-7.853-14.137 4.182-27.75 5.236-40.315M203.665 23.56c4.188 6.806 5.235 16.23 3.665 19.895-5.76-5.235-2.094-13.612-3.665-19.895" fill="#ed1c24"/><path d="M170.165 113.09v7.852c-4.72 4.19-8.385 9.948-11.526 13.613-13.09 4.188-24.085 12.042-26.18 19.372v4.712c.524 3.664 2.618 5.758 6.283 5.234 1.048 3.142 3.142 5.76 7.33 6.283 1.57 4.19 3.665 6.283 7.33 5.76 5.76 12.04 14.13 18.324 24.09 21.99-1.577-1.572-1.577-3.143-1.053-4.713-2.61-2.095-2.094-4.19-1.578-7.33 5.243 0 9.43-.524 14.15.523 15.176-1.047 26.695 1.048 34.548 6.807 4.712-1.57 10.47-7.854 15.715-18.325 4.704 1.57 7.853 1.046 8.37-5.237 4.704 1.57 6.813-1.57 7.852-5.76 3.665 1.048 5.76-1.57 7.33-4.71v-5.76c-7.33-9.948-17.8-15.707-30.366-19.895-2.617-4.19-5.235-8.377-7.853-12.566-.517-2.094-1.047-4.712-1.047-6.806-14.136-7.33-31.413-7.853-53.395-1.047" fill="#fab20b"/><path d="M169.634 145.55c-3.658 0-7.33-3.142-7.33-7.33 0-3.665 3.672-7.33 7.33-7.33v1.57c-3.134 0-5.767 2.62-5.767 5.76 0 3.14 2.633 5.76 5.767 5.76v1.57zm0-14.66c4.196 0 7.33 3.665 7.33 7.33 0 4.188-3.134 7.33-7.33 7.33v-1.57c3.14 0 5.752-2.62 5.752-5.76 0-3.14-2.61-5.76-5.752-5.76v-1.57" fill="#2056ae"/><path d="M183.246 143.98c-4.188 0-7.33-3.142-7.33-7.33 0-3.666 3.142-7.33 7.33-7.33v1.57c-3.665 0-5.752 2.618-5.752 5.76 0 3.14 2.087 5.758 5.752 5.758v1.57zm0-14.66c3.658 0 6.806 3.664 6.806 7.33 0 4.188-3.148 7.33-6.806 7.33v-1.572c3.14 0 5.236-2.617 5.236-5.76 0-3.14-2.095-5.758-5.236-5.758v-1.57M157.592 148.69c-3.665 0-6.807-3.664-6.807-7.33 0-4.187 3.142-7.33 6.807-7.33v1.572c-3.142 0-5.76 2.618-5.76 5.76 0 3.14 2.618 5.758 5.76 5.758v1.57zm0-14.66c4.188 0 7.33 3.143 7.33 7.33 0 3.666-3.142 7.33-7.33 7.33v-1.57c3.14 0 5.752-2.617 5.752-5.76 0-3.14-2.61-5.758-5.752-5.758v-1.57" fill="#2056ae"/><path d="M146.073 154.45c-4.188 0-7.33-3.14-7.33-7.33 0-3.665 3.142-6.806 7.33-6.806v1.57c-3.14 0-5.76 2.095-5.76 5.236 0 3.142 2.62 5.76 5.76 5.76v1.57zm0-14.136c4.19 0 7.33 3.14 7.33 6.806 0 4.19-3.14 7.33-7.33 7.33v-1.57c3.142 0 5.76-2.618 5.76-5.76 0-3.14-2.618-5.235-5.76-5.235v-1.57" fill="#2056ae"/><path d="M137.173 164.398c-3.665 0-6.807-3.665-6.807-7.33 0-4.188 3.142-7.33 6.807-7.33v1.57c-3.142 0-5.76 2.62-5.76 5.76 0 3.14 2.618 5.76 5.76 5.76v1.57zm0-14.66c4.188 0 7.33 3.142 7.33 7.33 0 3.665-3.142 7.33-7.33 7.33v-1.57c3.14 0 5.76-2.62 5.76-5.76 0-3.14-2.62-5.76-5.76-5.76v-1.57M195.812 142.932c-3.665 0-6.8-3.14-6.8-6.806 0-4.19 3.135-7.33 6.8-7.33v1.57c-3.142 0-5.76 2.618-5.76 5.76 0 3.14 2.618 5.235 5.76 5.76v1.046zm0-14.136c4.188 0 7.33 3.14 7.33 7.33 0 3.665-3.142 6.806-7.33 6.806v-1.047c3.14 0 5.76-2.618 5.76-5.76 0-3.14-2.62-5.76-5.76-5.76v-1.57" fill="#2056ae"/><path d="M208.384 143.455c-3.672 0-6.813-3.664-6.813-7.33 0-4.188 3.142-7.33 6.814-7.33v1.57c-3.148 0-5.766 2.62-5.766 5.76 0 3.142 2.618 5.76 5.766 5.76v1.57zm0-14.66c4.18 0 7.323 3.142 7.323 7.33 0 3.666-3.142 7.33-7.323 7.33v-1.57c3.134 0 5.752-2.618 5.752-5.76 0-3.14-2.618-5.76-5.752-5.76v-1.57" fill="#2056ae"/><path d="M221.99 145.55c-4.196 0-7.33-3.142-7.33-7.33 0-3.665 3.134-6.806 7.33-7.33v1.57c-3.142 0-5.76 2.62-5.76 5.76 0 3.14 2.618 5.76 5.76 5.76v1.57zm0-14.66c3.664 0 6.8 3.665 6.8 7.33 0 4.188-3.136 7.33-6.8 7.33v-1.57c3.134 0 5.76-2.62 5.76-5.76 0-3.14-2.626-5.76-5.76-5.76v-1.57" fill="#2056ae"/><path d="M235.078 148.69c-4.188 0-7.33-3.14-7.33-7.33 0-3.664 3.142-6.805 7.33-6.805v1.047c-3.133 0-5.766 2.618-5.766 5.76 0 3.14 2.633 5.758 5.766 5.758v1.57zm0-14.135c4.197 0 7.33 3.14 7.33 6.806 0 4.19-3.133 7.33-7.33 7.33v-1.57c3.142 0 5.753-2.617 5.753-5.76 0-3.14-2.61-5.758-5.752-5.758v-1.047" fill="#2056ae"/><path d="M246.597 154.974c-4.19 0-7.322-3.142-7.322-7.33 0-4.19 3.133-7.33 7.322-7.33v1.57c-3.142 0-5.766 2.62-5.766 5.76 0 3.14 2.625 5.76 5.767 5.76v1.57zm0-14.66c4.196 0 7.33 3.14 7.33 7.33 0 4.188-3.134 7.33-7.33 7.33v-1.57c3.14 0 5.752-2.62 5.752-5.76 0-3.14-2.612-5.76-5.753-5.76v-1.57" fill="#2056ae"/><path d="M257.068 163.35c-4.188 0-7.33-3.14-7.33-6.806 0-4.188 3.142-7.33 7.33-7.33v1.57c-3.14 0-5.76 2.62-5.76 5.76 0 3.142 2.62 5.76 5.76 5.76v1.047zm0-14.135c3.665 0 7.33 3.14 7.33 7.33 0 3.664-3.665 6.806-7.33 6.806v-1.046c3.14 0 5.76-2.618 5.76-5.76 0-3.14-2.62-5.76-5.76-5.76v-1.57" fill="#2056ae"/><path d="M137.173 164.398c17.8-15.707 36.657-21.466 60.21-21.466 21.99 0 45.025 7.33 61.256 21.99 0 0 0 .523-.525.523l-2.094-.524c-10.994-12.564-34.56-20.417-59.154-20.417-27.756 0-45.557 8.9-58.123 20.418 0 0-.523.525-.523 0 0-.522-1.047 0-1.047-.522" fill="#2056ae"/><path d="M143.98 170.157c15.706-14.136 30.882-17.8 52.355-18.325 19.895 0 38.22 5.236 52.356 18.325v.524c0 .524-.522 1.048-.522 1.57-9.425-11.517-30.89-18.847-52.356-18.847-24.608 0-39.79 6.806-50.786 17.278h-.523c-.524 0-.524-.523-.524-.523" fill="#2056ae"/><path d="M151.31 176.44c13.088-12.042 27.748-16.754 45.025-16.754 16.23 0 31.937 4.188 43.456 15.707v.523s-.517 1.047-.517 1.57c-7.854-9.947-25.67-16.753-43.463-16.753-20.426 0-33.508 6.806-42.932 15.707h-.524c0-.524-1.047 0-1.047 0M158.64 132.984c25.13-6.806 49.744-7.33 74.337-1.047 0 1.047-.517 1.047-.517 1.57-24.608-6.805-49.215-6.282-73.822.524v-1.046" fill="#2056ae"/><path d="M175.386 129.32l4.195-10.995v-7.854l1.048-.522v7.853l-3.665 11.52h-1.577M217.794 129.843L213.09 117.8v-8.376h-1.048v7.853l4.188 12.042 1.564.523M187.958 128.796l1.055-12.042V108.9l1.04-.523v8.377l-.524 12.042h-1.572M204.712 128.272l-1.047-12.042v-7.853l-1.047-.524v7.854l.523 12.042 1.572.522" fill="#2056ae"/><path d="M169.634 119.895c9.424-2.618 18.324-4.188 27.748-4.188 8.9 0 18.325 1.57 27.225 4.188v1.046c-8.9-2.617-18.324-4.188-27.225-4.188-9.424 0-18.324 1.57-27.748 4.188v-1.048M150.262 155.497c-.524 3.665.523 5.76 4.188 7.33 0 5.236 1.57 7.33 5.236 7.33 2.094 8.377 7.33 14.136 12.565 18.848-5.75-4.188-11.517-8.9-14.135-17.8-3.665-.524-5.235-3.142-5.235-7.854-2.618-1.046-4.19-3.14-4.19-6.806.525-.523 1.048-.523 1.572-1.047M243.455 154.45c1.57 3.665-1.047 7.33-5.235 8.377.523 4.19-1.57 6.806-5.243 7.33-2.087 8.9-7.323 13.09-13.074 18.325 5.75-4.19 11.518-7.854 14.652-16.754 3.665-1.57 5.236-4.19 5.236-7.854 3.665-1.047 6.807-4.712 5.236-8.9-.523 0-1.047-.524-1.57-.524" fill="#2056ae"/><path d="M194.764 383.246c4.712 0 8.377-3.665 8.377-8.377 0-4.713-3.664-8.378-8.376-8.378s-8.377 3.665-8.377 8.377c0 4.71 3.665 8.376 8.377 8.376M187.434 319.895l4.19 45.55c2.617-.524 4.71-.524 7.33.524l5.234-46.598c-5.766-.524-10.994-.524-16.754.523" fill="#fab20b"/><path d="M198.953 369.633c2.618 1.048 3.14 5.236 1.047 9.425 1.047-3.665 1.047-7.33-1.047-9.425" fill="#2e3192"/><path d="M63.874 213.09v7.852c-2.094-.523-3.665-.523-5.235 0-2.096 0-3.666.524-5.237 1.048-1.047.523-2.618 1.047-3.14 2.094-1.048 1.57-1.048 2.618-1.048 3.665-.524 1.57 0 3.14.523 4.187.524 1.047 2.094 2.094 3.665 2.618 1.57 1.047 3.14 1.57 4.712 1.57 1.57.524 3.665.524 5.236.524h.524v7.33h-.523c-2.617 0-4.71-.525-6.282-1.048-2.094-.524-3.665-2.094-5.236-3.665-1.57-1.57-2.617-3.14-3.664-5.236-.524-2.093-1.048-4.187-1.048-6.28.524-4.19 2.095-7.855 4.712-10.473 1.57-1.57 3.665-2.617 5.236-3.14 1.57-.524 4.19-1.048 6.806-1.048zm0-16.23v7.328l-7.853-1.57c-1.57-.524-2.617-.524-3.14 0-.524.523-1.57 1.57-1.57 3.14h-1.572l3.142-15.182 1.57.523c-.523 1.57-.523 2.617 0 3.14.524.524 1.57 1.048 3.142 1.572l6.282 1.047zm0-45.55v7.33c-1.047 1.046-1.57 2.617-2.094 4.187-.523 1.047-.523 2.094 0 2.618 0 .524.524 1.047 1.57 1.57h.524v6.807h-1.57c-1.047-.524-2.095-.524-3.142-.524-.523.524-1.57 1.57-2.094 3.142l-1.57-.524 7.853-24.607h.524zm0 125.13c-2.094 0-3.665-.524-5.76-1.047-2.617-1.047-5.234-2.618-6.805-4.712-2.095-2.094-3.142-4.71-3.142-7.33v-2.093-2.618c.523-1.048.523-1.572.523-2.096 0-1.047-.522-2.094-1.57-3.664l9.424-3.142.524 1.57c-2.094 1.048-4.188 3.142-5.236 4.713-1.57 2.095-2.617 4.19-2.094 6.284v1.57c1.047 2.095 2.618 3.665 5.236 4.712 2.094.524 5.235 1.047 8.9.524v7.33zm0-117.8c.524-1.048 1.047-1.572 1.57-2.096 1.572-1.57 4.19-3.14 6.284-4.188v-1.047h-7.854v7.33zm0 85.34v-7.33h.524c3.665.523 6.806 0 9.948-1.048 2.617-1.047 4.188-3.14 4.188-5.76 0-3.664-1.57-5.758-5.236-7.33-1.047-.522-2.617-1.046-4.188-1.046-1.57-.524-3.14-.524-5.236-.524v-7.853c3.142 0 5.76 1.046 8.377 2.093 2.62 1.57 4.713 3.665 5.76 5.76 1.57 2.617 2.095 5.235 2.095 8.376 0 4.71-1.57 8.9-5.236 11.518-1.572 1.047-3.142 2.094-5.236 2.617-1.57.524-3.665.524-5.76.524zM82.2 184.816v17.277l-1.572 9.424h-1.57c.523-1.57 0-3.14 0-3.665-.524-.523-1.57-1.047-3.142-1.57l-12.042-2.095v-7.33l13.09 2.618c1.046.524 2.094.524 2.617.524.525 0 .525-.524 1.048-.524.524-.523.524-1.047 1.047-2.094.524-4.712-1.047-9.424-4.712-14.136l.524-1.047 4.712 2.617zm0-23.037v2.094c-1.572-.523-3.142 0-4.19.524-1.57 1.047-2.617 3.14-3.14 5.76l7.33 2.093v7.33H81.15l-17.278-5.758v-6.806h1.57l7.33 2.617c1.048-2.617 1.048-4.712 1.048-5.76-.524-1.57-1.57-2.616-3.14-3.664l.522-1.57 10.995 3.14zm0-41.36v3.14c-1.572.524-3.142 1.047-4.19 1.57-1.57.524-2.617 2.095-3.664 3.666-.524 1.047-.524 2.618-.524 3.665.524 1.048.524 2.095 1.57 3.142.524 1.047 1.57 2.094 2.618 3.14 1.048 1.05 2.618 2.096 4.19 2.62v8.376c-2.095-1.047-3.666-2.094-5.237-3.665-1.57-1.57-2.617-3.14-3.665-5.235-1.047-1.57-1.57-4.19-2.094-6.283 0-2.094.524-4.19 1.57-6.283.524-.523.524-1.047 1.048-1.57 0 0 .524-.524 1.047-1.57l1.046-1.048c.524 0 .524-.524.524-.524.523-1.047.523-2.618.523-3.665l5.236.524zM70.156 249.737l1.047-1.57c2.618 1.57 5.236 3.14 6.806 5.235 1.57 1.57 2.618 4.19 2.618 6.806.524 2.094 0 3.664-.523 5.76 0 1.57-1.047 3.663-2.618 4.71-1.047 1.57-2.618 3.142-4.19 3.666-2.093 1.047-4.187 1.57-6.805 2.094h-2.619v-7.33h1.047c3.143-.524 6.284-1.57 8.378-3.14 2.095-1.572 3.142-3.666 3.665-5.237 0-.524.524-1.57 0-2.618 0-3.665-2.617-6.283-6.806-8.377zM82.2 123.56v-3.14l4.187 1.046-.523 1.57c-1.047 0-2.618.524-3.665.524zm0 39.79v-1.57h.523l-.524 1.57zm0 16.23c1.046.525 2.093 1.048 2.093 1.572.524.523.524 2.094 0 3.665h1.57l7.33-24.084-6.806-5.76-.523 1.048c.523 1.572 1.57 3.142 2.094 4.713.524 2.094 1.047 3.665 1.047 5.76 0 1.57-.523 3.14-1.047 4.71-.523 1.048-1.047 2.095-1.57 2.095-.524 0-1.57 0-2.618-.523h-1.047l-.524-.524v7.33zm0 22.514v-17.277l3.14 1.57-3.14 15.707zm13.088-56.544v4.712c-4.19 2.094-8.377 1.57-13.09-.524v-8.377c1.048.525 1.572 1.048 2.095 1.048 4.712 2.095 8.377 3.142 10.995 3.142zm0-22.513v9.947c-1.047-.523-1.57 0-2.094 0-.524 0-1.047 1.047-2.095 2.618l-1.57-.523 5.758-12.043zm0-20.42v8.378l-3.665-2.618c-1.047-.524-2.094-1.047-3.14-.524-1.048 0-1.572.524-2.62 2.095l-1.046-1.047 8.9-12.565 1.047 1.047c-1.047 1.047-1.57 2.094-1.047 3.142 0 .523.524 1.047 1.57 2.094zm0 47.645c3.14-1.57 5.236-4.19 6.806-7.33 1.047-1.047 1.047-2.094 1.047-2.618.525-.523.525-1.57 1.048-3.14 0-1.572 0-3.143.524-4.19 0-.523.524-1.57 1.047-2.094l-6.284-3.14c-1.57-.525-2.094-1.572-2.617-2.096 0-.523 0-1.57.522-3.14l-1.57-.524-.524 1.047v9.947h.524l1.047.524c1.57.523 2.616 1.57 3.664 2.618 1.047 1.047 1.57 3.14.523 5.76l-.523.522c-1.048 1.57-2.618 2.618-4.712 2.618 0 .524-.524.524-.524.524v4.712zm16.754-36.126v9.948l-1.57 2.618-1.57-.524c1.046-1.57 1.57-2.618 1.046-3.14 0-1.048-.524-2.096-1.57-2.62l-13.09-9.423v-8.377h.524c6.282 4.712 9.947 7.33 9.947 7.33l-2.095-1.57-2.094-1.048s3.666 2.094 10.472 6.806zm0-38.22v2.094l-1.047 1.048c-1.047 1.047-2.094 2.617-2.094 3.665-.523 1.047 0 2.617.524 4.188 1.047 2.095 1.57 3.142 2.618 4.713v10.47c-.524-.522-1.047-1.046-1.57-1.57-1.57-1.57-3.142-3.664-4.19-5.235-.523-1.57-1.046-3.665-1.046-6.283 0-1.57 0-3.665 1.047-5.76.523-2.093 2.094-4.187 3.665-5.758.523-.524 1.57-1.047 2.094-1.57zm0 26.178v-10.47c1.047 1.046 2.094 2.093 3.14 3.664.525.524.525.524 1.048.524 2.095 3.14 5.236 4.712 7.854 6.282 2.618 1.047 4.712.524 7.33-1.57 2.094-2.095 2.617-5.236 1.047-8.9-.523-1.048-1.57-2.62-2.094-3.666-1.047-1.57-2.617-2.618-3.664-4.188-1.57-1.047-2.618-2.618-4.19-3.665-1.046-1.047-2.617-1.57-4.187-2.095-1.57-1.047-2.618-1.047-4.19-.523-.522 0-1.57.523-2.093.523v-2.094c2.618-1.57 5.235-2.618 8.377-2.618 2.093 0 4.187.524 5.758 1.048 2.094 1.047 3.665 2.094 5.76 4.188 2.093 2.094 3.664 4.712 4.188 7.33 1.047 2.618 1.047 5.235.523 7.853-.524 3.142-1.572 5.76-3.666 7.33v.524c-3.665 3.666-7.33 4.713-12.042 4.713-1.57-.524-3.665-1.047-5.76-1.57-1.046-.525-2.093-1.572-3.14-2.62zm0 21.99v-9.948.524-.524c1.047 1.047 2.094 1.57 2.618 1.57 1.047 0 2.094-1.046 3.14-2.617l1.048 1.046-6.806 9.948zm145.55-57.592V78.01l-5.243 6.807c-1.04 1.57-2.088 2.618-2.088 3.665 0 .523 1.047 1.57 2.618 2.617 1.578 1.57 3.14 2.094 4.712 2.094v3.14c-1.048-.522-2.095-1.046-3.665-2.093l-14.652-10.994 1.032-1.047c1.578 1.046 2.633 1.046 3.148 1.046.524 0 1.57-.523 2.095-1.57l12.042-15.184zm0-7.33v.524-.524zm4.188 32.46v6.284c-1.047 0-2.618-.524-4.188-1.57v-3.142c1.57 0 3.14-.524 4.188-1.57zm0-30.365V72.25l-2.618 3.666 1.57 1.57c.525 0 1.048.524 1.048.524v2.618c-.523-.523-1.047-1.047-2.094-1.57l-2.094-1.57v.522-11.518l.523-1.047c1.047-1.57 1.57-2.094 1.047-3.14 0-1.048-.523-1.572-1.57-2.62v-.523l.523-.523 3.665 2.617zM263.867 100v1.57l-.517-1.046.517-.524zm0-10.995v8.9h-2.084v-6.282c.53-.524 1.047-1.047 1.57-1.57 0-.524.518-1.048.518-1.048zm0-9.947v4.188c-.517-1.047-1.04-1.57-2.087-2.618V78.01c1.047.524 1.57 1.048 2.087 1.048zm0-16.23v6.282l-2.087 3.14V61.258l2.087 1.57zm0 35.078c2.102-.524 3.672-1.57 4.72-3.142 1.57-1.57 2.094-4.188 1.047-6.282-.524-2.095-1.57-4.19-3.665-6.283 5.234 2.617 8.9 2.093 10.993-.525 2.618-4.188.524-8.9-6.282-14.136l-6.813-4.713v6.283l.53-.524 1.57-1.57c1.048 0 2.095.523 3.142 1.57 1.046 1.048 2.093 2.095 2.617 3.142 1.047 1.57.523 3.665-.524 5.235-2.094 2.095-3.665 3.142-5.76 2.618-.523 0-1.046 0-1.577-.522v4.188l.53.524c.523 1.047.523 2.094.523 3.14-.524.525-.524 1.048-1.055 2.095v8.9zm22.52-2.094v2.617l-6.806 2.094 5.768 7.33 1.04-1.57v12.04c0 .524-.524 1.048-.524 1.57-.518.525-1.047 1.048-1.047 1.572-.524 1.57-.524 3.14 1.047 4.712l-1.57.524-9.425-11.52 1.57-.522 1.57 1.57h1.57c.525-.523 1.048-1.047 2.095-2.617l2.618-4.19-6.806-8.376-3.14 1.047-3.143 1.57c-.523.524-1.047 1.572-1.047 2.095.524.523.524 1.57 1.57 2.617l-1.57 1.047-6.29-7.853V100h.53c1.047.524 2.618 1.57 3.665 1.57 1.047 0 2.094-.523 4.188-.523l14.136-5.235zm8.37 28.272v8.377l-2.087 2.095c-.523 1.047-1.047 2.094-1.047 3.14 0 1.048.524 2.096 1.047 3.143.524 1.57 1.564 2.094 2.087 3.14v2.095c-1.563-1.047-2.61-2.618-3.658-4.712-2.095-3.14-3.142-6.28-2.618-8.9 0-1.57.523-3.14 1.57-4.188 1.047-1.57 2.095-2.618 3.665-3.665l1.04-.523zm0-30.89v13.09l-6.275 9.423c0 .523-.524 1.047-1.047 1.57-.53.524-.53.524-1.048 1.048v-12.042l6.807-10.47-6.807 2.616V95.81l8.37-2.618zm0 13.09v-13.09l1.055-.524 5.76 4.19-6.815 9.423zm18.332 167.014v5.76-5.76zm0-74.87v15.708c-.52-1.047-.52-2.094-.52-3.14-.528-1.048 0-2.095 0-4.19.52-1.57.52-3.14.52-3.665 0-1.046-.52-2.093-1.572-3.664l1.57-1.047zm0-15.182v7.33l-.52.523c-.528.523-1.053 2.094-.528 3.664l-1.57.524-3.142-15.183h1.57c0 1.047.524 2.094 1.57 2.617.525.524 1.572.524 2.62.524zm0-23.56v7.33l-4.19 1.57c-1.57.524-2.624 1.047-2.624 1.57-.524 1.048 0 2.095 0 3.142l-1.04.524L300 159.686l1.57-.524c.524 1.57 1.048 2.618 1.57 2.618 1.048.524 2.096.524 3.136 0l6.813-2.094zm0-20.42v2.62l-6.814 4.187c-3.135 1.57-6.276 2.095-8.37 1.047-1.04 0-2.094-.523-3.15-1.047v-2.094c1.056 1.046 2.11 1.57 3.15 1.57 2.094 0 4.712-.524 7.33-2.095l7.853-4.188zm0-24.083v7.33c-.52 0-1.048.524-1.572.524l-13.612 7.33c-1.04.523-2.094 1.57-3.15 2.094v-8.376l13.63-6.807c1.562-1.047 2.085-1.57 2.085-2.617.525-.524 0-1.57-.522-3.142l1.047-.523 2.094 4.188zm0 7.33v-7.33l5.235 8.9-1.57 1.048c-.52-1.57-1.572-2.093-2.095-2.617h-1.57zm0 19.372v-2.618l5.758-2.618c1.57-1.048 2.094-1.57 2.094-2.62 0-.522 0-1.57-.523-3.14l1.046-.524 5.236 9.425-1.57.524c-.525-1.047-1.572-2.094-2.095-2.618-.524 0-2.095 0-3.134 1.047l-6.814 3.142zm17.277 113.612v2.095l-2.61-1.048-.53 9.425 3.14-1.05v7.33l-6.805 1.048c-.524 0-1.047.524-2.094.524s-2.095.524-2.618.524c-.524 0-1.57.523-2.094 1.047-1.047 0-2.095 1.57-2.618 3.665h-1.047v-5.76l1.048-9.424 1.57.524v2.094c.53.524 1.048 1.047 1.57 1.047h2.627l5.228-1.57 1.047-10.473-3.665-1.57c-1.047-.524-2.094-1.047-2.61-1.047-1.055 0-2.11.523-2.11 1.047-.517.523-1.04 1.57-1.555 2.617h-1.58l1.05-11.518 1.57.524c.517 1.57 1.046 2.618 1.57 3.665.523.523 2.094 1.57 3.14 2.094l8.378 4.187zm0-24.607v6.806h-9.948c-1.572 0-2.626.524-3.143 1.047-.523.524-1.04 1.57-1.04 3.142h-1.054l-.523-15.183h1.578c0 1.57.518 2.617 1.04 3.664 0 .524 1.047.524 2.625.524h10.464zm0-34.555v18.848c0 .524-.524 1.047-1.055 1.57-1.04 1.572-3.134 2.62-5.752 3.142-3.14.524-5.766-.523-7.853-2.618-1.047-1.047-1.57-2.094-2.618-3.14v-15.708l7.852-2.618.524 1.047c-2.094 2.093-4.19 4.187-5.76 6.28-1.046 1.572-2.093 4.19-1.57 6.284 0 1.57.524 2.618 1.047 3.14.524 1.05 1.055 1.572 2.094 2.096.518.523 1.57 1.047 2.626.523 1.04 0 2.61-.523 3.134-1.57.523-1.048 1.57-3.142 2.094-5.76.524-2.617 1.048-4.188 1.048-4.712.524-2.093 2.094-4.187 3.134-5.758 0-.523.53-.523 1.055-1.047zm0-17.277v7.33l-7.854 1.57 2.618-.523 2.626-.524-12.573 3.142c-.523 0-1.57.524-2.094.524v-7.33h.523l16.754-4.188zm0-10.472v4.19l-1.57.522-.525-1.047c.524-1.046 1.57-2.617 2.095-3.664zm0-17.277v9.423l-17.278 6.283v-7.33l16.222-5.76c-1.556-3.14-4.705-5.758-9.94-6.806v-2.094l8.9-.523 2.095 6.806zm0 21.465v-4.19c.523-.522.523-1.57 1.047-2.093.523-2.094 1.047-4.188 0-5.76h-1.047v-9.423l5.76 17.276-5.76 4.19zm0 13.612v-7.33l2.617-.523c1.57-.524 2.618-1.047 3.142-1.57.523-1.048.523-2.095 0-3.142l1.57-.524 3.665 14.66-1.57.524c-.517-1.57-1.047-2.618-1.57-3.142-1.047 0-2.094-.523-3.665 0l-4.188 1.047zm0 28.796v-18.848c1.047-1.047 2.617-1.57 4.188-1.57 2.618-.524 4.72.523 6.276 1.57 2.102 1.57 3.666 3.665 3.666 6.806.53 1.048 0 1.572 0 2.62v2.093c-.518.524-.518 1.048-.518 1.57 0 1.048.518 2.62 2.094 3.666l-8.9 3.664-1.048-1.57c2.095-1.57 4.19-3.142 5.236-5.236 1.047-2.095 2.094-4.19 1.57-6.283 0-1.57-.523-2.618-1.57-3.665-1.047-.524-2.087-1.047-3.14-1.047-1.048.523-2.62.523-3.143 1.57-.523 1.048-1.047 2.095-1.57 3.665-.524 2.095-.524 3.665-1.047 5.236-.524 2.094-1.048 4.19-2.095 5.76zm0 22.513v-6.806l14.13-.524c-.52-3.664-3.136-6.806-7.324-9.947v-1.048l8.9 1.57v25.655l-8.377 2.618v-2.095c1.58-1.047 3.135-2.617 4.712-4.188 1.047-1.57 2.088-3.665 2.088-5.76l-14.13.524zm0 34.555v-7.33l10.464-2.093-10.463-5.235v-2.095l14.13 6.807 1.576 6.282-15.706 3.665M117.8 293.717v1.57h-1.57v-1.046l1.57-.523zm-15.706 21.99l.524-1.047c2.094 1.57 3.665 2.617 5.235 3.14 1.57 1.048 3.142 1.048 4.712.525 1.048 0 1.57-.524 2.095-1.048.523-.523 1.047-1.57 1.047-2.094.523-.523.523-1.047 0-2.094 0-.525-.524-1.572-1.57-1.572-1.048-.523-2.62-.523-4.19-.523h-3.664c-1.57-.524-3.142-.524-4.712-1.57-1.046-.524-2.094-1.572-2.617-3.142-.524-1.57 0-3.142.523-4.712.524-1.57 2.095-2.617 4.19-3.664.522 0 1.046-.524 1.57-.524h2.617c1.048 0 1.57-.523 2.618-2.094l3.666 5.76-1.047.523c-1.048-1.046-2.62-2.094-4.19-2.617-1.57-.524-3.14-.524-4.712 0-1.047.523-1.57 1.047-2.094 1.57-.523 1.048-.523 1.57-.523 2.618.524.525 1.048 1.572 1.57 1.572.525.524 1.572 1.047 3.143.524 1.047 0 2.094.523 3.665 0 2.094 0 3.665.523 5.235 1.047 1.047.523 1.57 1.047 2.618 2.094v8.377c-1.046 1.047-2.617 2.094-3.664 2.618-.523 0-1.57.523-3.14.523h-2.62c-.523.524-1.57 1.047-2.617 2.095l-3.666-6.283zm38.22-5.76v1.048l-.523-1.047h.524zm0-4.188h-1.047c-.524 1.046-1.047 2.093-2.094 3.14l-2.618 2.618c-1.57.524-2.618 1.047-3.665 1.047-1.047.524-1.57 0-2.094 0 0-.523-.524-1.047-.524-2.094v-.522l-1.57-5.76c2.094-.523 3.664-.523 4.712 0 .523.524 1.57 1.048 2.094 2.095l1.047-.524-2.094-8.378-1.046.524c0 1.047-.524 2.618-1.048 3.14-.523.525-2.094 1.048-4.188 1.572l-1.047-5.236c0-1.047-.523-1.57-.523-1.57v-1.57c.524-.525 1.047-1.048 2.095-1.048 1.57-.524 3.14-.524 5.235 0 1.57.523 3.14 1.57 4.712 2.618l.523-.524-3.142-5.236-16.23 3.665v1.57c.525 0 1.048 0 1.048.525.524 0 1.047 1.047 1.047 2.094l.524.523 2.617 13.088c.523 1.047.523 2.095 0 2.618 0 .524-.524 1.047-2.095 1.047l.524 1.047 17.8-4.188 1.048-5.236v-1.047zm-22.513 2.617c0 .524.525 1.047.525 1.57 1.047 2.095 1.047 4.19-.524 5.76v1.047-8.377zm22.514-1.57v-1.048 1.046zm8.377-19.896v6.284l-1.046-2.618-2.094 10.47 3.14-1.046v1.57l-3.14 1.048-.524 2.618c0 .523-.523 1.57 0 2.094 0 .523.524 1.047.524 1.047.523.524 1.57.524 2.618.524v1.048l-7.854 1.047v-1.047c.524-.524 1.57-1.047 2.094-1.57 0-.525.524-1.572 1.048-2.62l3.14-17.8 2.095-1.047zm0 14.66V300l3.666-.524-3.665-6.282v-6.283l2.095-1.046 7.33 14.66c.524 0 .524.523.524 1.047.522 1.048 1.046 1.57 1.046 2.095.523.523.523 1.047 1.047 1.047.523 1.047 1.57 1.57 3.134 1.047v1.046l-10.464 2.095v-1.047c.524 0 1.047-.523 1.57-.523.524-.524.524-1.047.524-1.047 0-.524-.523-1.047-1.047-2.095l-1.57-3.14-4.19.523zm44.504 2.095l-.524 1.047h.524v-1.047zm0-4.712v.523l-1.57 5.76-18.326.523-.523-.524c1.055-.524 2.087-.524 2.61-1.048.53-.523.53-1.047.53-2.094l-.53-14.66c0-1.047-.523-2.094-1.04-2.094 0-.523-1.047-1.047-2.094-.523v-1.57h10.996v1.046c-1.047 0-2.094 0-2.094.524-.524.523-1.047 1.047-1.047 2.094l.523 14.66c.524 1.048.524 1.57.524 1.57 0 .525 0 1.048.53 1.048h1.562c3.142 0 6.283-2.094 8.9-5.235h1.048zm0 .523v-.523.523zm10.47-15.706v3.665l-3.14 8.377h3.14v1.57H200L198.953 300c-.53.524-.53 1.047-.53 1.57 0 1.048 0 1.57.53 1.57.523.525 1.047.525 2.094 1.048v1.048l-7.853-.524v-1.047c1.047 0 1.57-.524 2.094-1.047 1.047-.524 1.578-1.57 1.578-2.618l6.8-16.23zm22.514 23.036v-1.047c1.047 0 2.094 0 2.61-.524.524 0 .524-1.048 1.055-2.095l2.102-14.135c0-1.047 0-2.094-.524-2.618 0-.523-1.054-.523-2.108-1.047v-1.047l10.995 2.094v1.048c-1.032-.524-2.087-.524-2.61 0-.524.523-1.048 1.047-1.048 2.094l-2.095 14.658v1.57s0 .525.523 1.048c0 0 .53 0 1.57.524 3.143.523 6.292-1.047 9.95-3.665h.528l-2.625 5.76-18.324-2.62zm-22.513-9.424v-1.57h3.665l-3.142-9.425-.523 1.048v-3.665l4.72-1.57 4.18 16.23s.524.523.524 1.046c0 1.048.517 1.57.517 2.095 0 .524.53 1.048.53 1.57.523.525 1.57 1.048 3.14 1.572v1.047l-10.994-.524v-1.048h2.1c.52-.523.52-.523.52-1.047 0-.522 0-1.046-.52-2.093l-1.053-3.665h-3.665zm67.016 14.136l-3.14 2.618.523 1.047 2.618.524v-4.19zm0-18.848v1.57c-.523.524-1.046 1.048-1.046 2.095l-2.618 10.995c-1.047 2.618-2.095 4.188-3.15 5.235-2.086 1.048-4.18 1.048-6.798.524-2.61-.525-4.72-1.572-5.76-2.62-1.046-1.046-1.57-2.093-1.57-3.14-.523-1.047-.523-2.094 0-3.665l2.61-11.518c.53-1.048.53-1.57 0-2.095-.517-.523-1.04-1.047-2.086-1.047v-1.047l10.995 2.618-.524 1.047c-1.047-.524-1.57-.524-2.094 0-.525 0-1.048.524-1.572 1.57l-2.094 10.995c-.518 1.048-.518 1.57-.518 2.618-.53.524 0 1.57 0 2.095 0 1.048.518 1.57 1.04 2.095.523.523 1.57.523 2.617 1.047 1.57.523 3.665 0 4.713-1.047 1.04-.524 2.094-2.094 2.617-4.712l2.618-10.47c0-1.05 0-1.572-.522-2.096 0-.523-1.048-1.047-2.095-1.047l.524-1.047 4.712 1.047zm0 1.57h2.095l.523-1.046-2.617-.524v1.57zm0 21.467v-4.19l14.668-13.088c-2.11-.524-3.673-1.048-4.72-1.048-1.577 0-2.618.524-3.665.524-1.047.523-2.094 1.047-3.665 2.094l-.523-.524 3.14-5.235 15.184 4.713V300l-17.802 15.707c1.57.523 3.142 1.047 4.19 1.047h3.14c1.047-.524 2.095-.524 2.61-1.047 1.055-.524 2.11-1.047 3.15-2.094l1.047 1.047-3.665 5.235-13.09-4.188M113.613 386.91l-2.618 1.048c-1.047.524-2.094 1.047-2.618 1.047-1.047 0-2.094-.523-3.14-1.047l-.525.524 5.76 6.282 1.046-1.047c-1.047-.523-1.047-1.57-1.047-2.094 0-.524 0-1.047.525-1.57.523 0 1.047-.524 2.094-1.048l.523-.523v-1.57zm0-17.277v-1.57l-10.995 3.14 8.9-13.088-5.76-7.33-.522.524c.523 1.046 1.047 1.57.523 2.617 0 .523-.524 1.047-1.048 1.57l-10.47 7.33c-1.048 1.047-2.095 2.094-3.143 2.094-.524.525-1.048.525-1.57 0-.525 0-1.048-.522-1.572-1.046l-1.047.524 4.713 6.806 1.047-1.047c-.523-.524-.523-1.047-1.047-1.57 0-.524 0-.524.524-1.048 0-.524.523-1.048 1.047-1.57.523 0 1.047-1.05 2.094-1.572l10.995-7.854-12.042 17.802.524 1.047 18.85-5.76zm0 7.33l-8.377 6.283c-.524.524-1.048 1.047-1.048 2.094 0 .524 0 1.047.524 2.095l-.524.523-6.806-9.424.524-.524c1.047 1.048 1.57 1.57 2.094 1.57.524.525 1.57 0 2.094-.522l11.52-8.377v6.283zm6.282 18.848v8.378l-5.235-5.76.523-.522c.524.523 1.047 1.047 1.57 1.047.524 0 1.048 0 1.048-.524.525 0 .525-.524 1.572-1.57l.523-1.05zm0-12.04v2.094l-3.14 1.047 3.14 3.142v2.095l-4.712-4.19-1.57.525v-1.57l6.282-3.142zm-2.094-9.424l-4.187 2.617v-6.282l2.617-1.57h-.523l-2.094.523v-1.57l4.188-1.047 2.095 2.617v3.665c-.523 0-1.047.524-2.094 1.048zm5.237 31.937v.523-.523zm0-16.754v11.517c-.524.524-.524 1.047-1.047 1.57 0 .524 0 2.095 1.047 2.62v.522l-.524.523-2.618-2.095v-8.377l1.047-2.093-1.047-1.57v-2.095l1.57 2.095 1.572-2.618zm0-6.808v1.57l-3.142 1.572v-2.094l3.142-1.048zm-3.142-13.09l3.142 4.714-1.047.523c-.524-1.048-1.57-1.572-2.095-1.572v-3.665zm3.142 30.892V389.53l3.665-6.808-3.665 1.57v-1.57l5.235-2.617 4.19 2.094-7.855 15.706c-.523 0-.523.523-1.047 1.047 0 .523-.523 1.047-.523 1.57zm0 5.235v-.524.523zm26.178 9.947v2.618c0 .523-.524.523-.524 1.047v1.57l.525.524v1.57l-6.807-3.14.524-.524c1.047 0 2.094 0 2.618-.524 1.047 0 1.57-1.047 2.618-1.57l1.047-1.57zm0-13.09l-5.76 8.9-.523-19.894-6.806-4.712-.524 1.048c1.047 1.047 1.57 2.618 1.57 4.19l-7.853 12.04-2.095 2.095h-1.57c-.524 0-1.048 0-2.095-.524l-.523.523v.523l7.33 4.712.523-.523c-.524-1.047-1.047-1.57-1.047-1.57-.524-.525-.524-1.048-.524-1.572 0-.523 0-.523.523-1.047 0-.523.523-1.047 1.047-2.094l6.806-9.948.524 21.99 2.094 1.57 8.9-12.565v-3.142zm0-6.282v1.047l-.524-.523.525-.525zm-26.178-21.99zm26.178 48.692v-1.57c.523.523 1.047.523 1.047 1.046v1.047l-1.047-.523zm5.76-13.09v2.618l-2.095 1.57 2.094.525v2.094l-3.142-1.57-1.57 2.093-1.047 1.048v-2.618l5.76-5.76zm0-10.47v2.094c-1.048-.523-1.572-.523-2.095-.523-.524.524-1.57 1.047-2.095 2.618l-1.57 2.094v-3.142c1.047-1.57 1.57-2.618 1.57-3.142 0-.523-.523-1.047-1.57-2.094v-1.047l5.76 3.14zm0 2.094v-2.094l1.57 1.57-.524.525h-1.046zm0 15.184v-2.094l4.71 2.094 1.048-10.47-5.76 6.28v-2.616l6.283-6.283h4.72l-1.578 17.8s-.53.525-.53 1.048V426.177c0 1.048.53 2.095 2.11 2.62l-.53 1.046-9.948-4.19v-1.046c1.047.524 1.57.524 2.094.524.524 0 .524-.523 1.048-.523 0-.523 0-1.047.523-2.094v-4.188l-4.188-1.57zm35.077 6.806l-10.47-2.094v1.57c1.046 0 2.1.524 2.1 1.048.52 0 .52 1.047.52 1.57v1.048c0 1.047-.52 2.094-1.048 3.14-.524 1.048-2.095 1.572-4.19 1.572h-.522c-1.578-.524-2.61-1.57-3.142-3.142-.523-2.094-1.047-4.712 0-8.9v-1.57c.53-1.572 1.047-2.62 1.564-3.666.523-1.047 1.054-2.094 1.578-2.618.523-1.047 1.57-1.57 2.094-1.57 1.047-.524 1.57-.524 2.618-.524 1.57.524 2.617 1.047 3.665 2.094 1.046 1.047 2.086 2.618 3.14 5.236h1.055l-.53-7.33c-1.047.524-2.094.524-3.134.524h-.528s-.524-.524-1.047-.524c-.524-.524-1.047-.524-1.047-.524-.524-.523-1.04-.523-1.57-.523-1.572-.524-3.142-.524-4.713 0-1.578.523-3.14 1.57-4.19 2.618-1.046 1.047-2.085 2.618-3.14 3.665-.523 1.57-1.047 3.14-1.577 4.712-.518 3.665 0 6.806 2.1 9.424 1.57 2.094 4.197 3.14 6.807 3.665 1.055 0 1.57.524 2.094 0 .523.524 1.57 0 2.617 0h4.712l1.04-5.235c0-1.047.53-1.57 1.053-2.094.524 0 1.055-.523 2.095-.523v-1.047zm-.523-12.565h.522v1.047h-.523v-1.047zm.522 0zm0 13.612h.524v-1.047h-.524v1.047zm24.084 7.33v.524-.523zm0-21.99v1.048c-1.047 0-2.094 0-2.618.523 0 .524-.523 1.047-.523 2.095l1.047 12.04c0 2.62-.524 4.713-1.57 6.284-1.572 1.57-3.666 2.618-6.807 2.618-2.618 0-4.712 0-6.8-1.047-1.053-1.047-1.577-1.57-2.1-2.618-.524-1.047-1.048-2.094-1.048-3.665l-.523-12.565c-.524-1.047-.524-1.57-1.047-2.095-.524-.523-1.048-.523-2.095-.523v-1.047l10.995-.524v1.048c-1.047 0-1.57.524-2.094.524-.53.523-.53 1.57-.53 2.618l.53 11.518v2.618c.523 1.047.523 1.57 1.047 2.618.524.523 1.047 1.047 2.094 1.57h2.094c2.618 0 4.196-.523 4.712-2.094 1.04-1.047 1.04-3.14 1.04-5.236l-.517-11.518c0-1.57-.524-2.094-.524-2.618-.518 0-1.57-.523-2.62-.523v-1.047h7.855zm0 1.048v-1.047 1.047zm8.377-4.712v8.377l-2.61-3.665-1.055 10.995 3.665-1.048v1.57l-3.665 1.048v5.236c0 .523.524 1.047 1.055 1.047.518.523 1.04.523 2.087 0l.523 1.047-8.377 2.618v-1.57c1.047-.524 1.57-1.048 2.094-1.572.524-.523.524-2.094.524-3.14l2.094-18.326 3.665-2.617zm15.707 19.37c-1.57.525-2.61 0-3.142-.522-.523-.523-1.047-1.046-1.047-1.57-.522-.523-1.053-1.047-1.053-1.57l-1.032-1.048-8.908-15.183-.524.523v8.377l3.14 5.76-3.14.522v1.57l4.19-1.046 2.086 3.14c.522 1.048 1.053 2.096 1.053 2.096 0 .523 0 .523-.53 1.047-.523.522-1.04.522-1.563 1.046v1.047l10.47-3.14v-1.05zm0-4.187v3.14-.522c0-.524-.524-1.047-.524-1.57.524-.524.524-.524.524-1.048zm0 3.14c.523.525 1.055 1.048 1.57 1.048.518.524 1.57.524 2.095 0 0 1.048.523 1.57 0 2.618 0 .524-.524 1.047-1.578 2.618l1.054.524c1.048-.524 1.58-1.57 2.095-2.618.524-1.047 1.048-2.094 1.048-3.142.523-1.047 0-2.094-.524-3.14 0-1.048-.525-1.572-1.572-2.095-.523-.525-1.577-.525-2.617 0-.517 0-1.047.522-1.047.522l-.523.524v3.14zm0 2.096v-1.048l.523 1.048h-.523zm29.843-28.796l-4.712-6.807c-1.04-1.048-1.57-2.095-1.57-3.142 0-.523.53-1.57 1.57-2.094l-.523-1.047-6.806 4.712.524 1.046c1.048-.524 2.095-1.047 2.618-.524 1.047 0 1.57 1.047 2.618 2.095l6.283 8.9-18.848-6.806-6.275 4.713.517 1.047c1.57-.524 2.618-.524 4.19-.524l8.9 12.042c.523 1.047 1.046 1.57 1.046 2.095v2.094l-1.57 1.57.523 1.048 7.323-5.236-.52-1.048c-1.038.523-1.57.523-2.093.523-.523.524-1.047.524-1.047 0-.524 0-1.047 0-1.57-.523 0-.524-.524-1.047-1.048-1.57L250.262 400l17.8 6.283v-8.377zm0-19.896v6.807h-.524c-.524-1.047-1.57-1.57-2.095-1.57-.524 0-1.578.523-2.094 1.57l-.523-1.047 5.236-5.76zm0 28.273v-8.377l5.767 7.853-2.626 1.57-3.14-1.047zm13.09-15.707c-3.666-4.19-5.767-5.76-5.767-5.76l1.054 1.048 1.57 1.57-6.806-6.806c-.523-.523-1.047-1.57-1.047-2.094 0-.524.524-1.047 1.047-2.094l-.523-.524-2.617 2.094v6.807l10.47 10.47c1.048.524 1.572 1.572 1.572 2.095 0 .524-.524 1.57-1.57 2.094l1.046 1.048 1.572-2.095v-7.854zm0-27.225v2.095c-1.048.524-2.102 1.047-2.62 2.094-.523 0-.523.523-.523.523-1.047 1.57-.523 3.14 0 5.235 1.04 1.048 2.095 2.618 3.142 3.665v7.33l-.524-.523s-.523 0-.523-.524c-1.57-1.047-2.618-2.618-3.665-4.712-1.054-2.094-1.57-3.665-1.054-5.76 0-2.093.53-4.188 1.577-5.758.524 0 1.047-.524 1.047-1.047.524-.525 1.04-1.05 2.095-1.05.523-.522 1.047-1.046 1.047-1.57zm20.418 7.33c-1.046-.523-1.57-1.047-1.57-2.094 0-.523 0-1.57.524-2.094.53-.523 1.047-1.047 2.094-1.047.523-.524 1.57-.524 2.102 0 .517.524 1.032 1.047 1.032 2.094.524.523 0 1.57-.518 2.093-.517.524-1.047 1.048-1.57 1.57-1.047 0-1.57 0-2.094-.522zm-20.418-5.235v-2.094c.523-.523.523-1.046 1.047-2.617l6.805 3.14-.523 1.572c-2.095-.524-3.665-.524-5.76-.524-.523 0-1.047.525-1.57.525zm0 18.848v-7.33c.523 1.047 1.57 1.57 2.087 2.095 2.108 1.57 4.195 2.094 6.296 2.617 1.563 0 3.658 0 4.698-1.047.523-.523 1.054-.523 1.578-1.57 1.578-1.57 1.578-4.712.523-7.854l1.055-.523c1.032 2.095 1.032 4.19 1.032 6.283 0 2.095-.517 3.665-2.087 5.236-.523 1.046-2.1 2.093-3.14 3.14-1.048.524-2.626 1.047-3.66 1.047-1.577.524-3.148 0-4.718-.523-1.047 0-2.618-.524-3.665-1.57zm0 14.136v-7.854l1.047 1.047c1.04.524 1.57.524 2.093 1.047.524 0 1.57-.523 2.61-1.57l.53 1.047-6.282 6.282" fill="#2056ae"/></g></svg>