<svg xmlns="http://www.w3.org/2000/svg" width="400" height="119.387"><path d="M336.912 15.12c-2.718 0-4.574-.51-5.68-1.56-1.13-1.07-1.683-2.768-1.683-5.203 0-2.498.56-4.257 1.71-5.37 1.133-1.098 3.01-1.63 5.732-1.63 2.693 0 4.544.52 5.66 1.58 1.146 1.087 1.7 2.795 1.7 5.22 0 2.512-.57 4.27-1.746 5.37-1.142 1.073-3.006 1.593-5.694 1.593M221.866 59.072c-1.05 0-1.94-.033-2.642-.105-.782-.08-1.404-.207-1.902-.38-.702-.242-1.218-.593-1.564-1.066-.35-.472-.533-1.043-.533-1.652V34.733c0-1.078-.1-2.058-.3-2.916-.182-.8-.457-1.476-.812-2.012-.325-.49-.714-.854-1.192-1.116-.464-.255-1.055-.382-1.766-.382-.832 0-1.724.36-2.658 1.07-1.02.773-2.148 1.906-3.365 3.37v23.12c0 .63-.202 1.222-.59 1.704-.36.448-.867.782-1.552 1.014-.495.174-1.116.3-1.894.38-.706.073-1.568.106-2.566.106-1.023 0-1.898-.033-2.6-.105-.78-.08-1.403-.207-1.9-.38-.682-.233-1.19-.567-1.548-1.015-.39-.482-.592-1.074-.592-1.704V34.733c0-1.073-.102-2.054-.3-2.92-.182-.8-.453-1.48-.803-2.03-.31-.473-.69-.832-1.167-1.09-.482-.254-1.074-.385-1.76-.385-.87 0-1.753.347-2.7 1.07-1.014.773-2.13 1.902-3.322 3.36v23.13c0 .63-.207 1.222-.592 1.704-.36.448-.866.782-1.55 1.014-.5.174-1.117.3-1.895.38-.707.073-1.582.106-2.605.106s-1.898-.033-2.604-.105c-.78-.08-1.402-.207-1.9-.38-.677-.233-1.188-.567-1.548-1.015-.384-.482-.587-1.074-.587-1.704V20.226c0-.58.16-1.133.47-1.593.312-.474.81-.846 1.474-1.104.477-.182 1.04-.313 1.72-.398.62-.072 1.378-.11 2.257-.11.9 0 1.674.038 2.303.11.723.085 1.294.224 1.75.423.596.262 1.053.625 1.357 1.078.31.47.47 1.014.47 1.593v.35c1.17-.988 2.345-1.804 3.52-2.438 2.19-1.192 4.51-1.796 6.9-1.796 1.593 0 3.06.173 4.36.51 1.33.348 2.533.855 3.582 1.51 1.064.664 1.99 1.467 2.763 2.393.28.338.545.693.795 1.06.6-.57 1.192-1.09 1.775-1.563 1.112-.892 2.223-1.628 3.306-2.19 1.098-.57 2.222-1.006 3.342-1.29 1.13-.287 2.287-.43 3.454-.43 2.603 0 4.86.46 6.7 1.365 1.855.913 3.377 2.173 4.527 3.75 1.12 1.542 1.93 3.36 2.405 5.397.452 1.957.68 4.04.68 6.197V55.87c0 .63-.207 1.222-.592 1.704-.35.435-.858.778-1.517 1.01-.49.178-1.11.3-1.89.385-.706.072-1.58.105-2.604.105m115.088 0c-1.023 0-1.902-.033-2.6-.105-.786-.08-1.403-.207-1.906-.38-.676-.233-1.188-.567-1.547-1.015-.383-.482-.59-1.074-.59-1.704v-35.56c0-.63.207-1.22.59-1.705.352-.43.842-.765 1.51-1.02.516-.193 1.137-.333 1.907-.43.71-.09 1.572-.13 2.637-.13 1.06 0 1.924.04 2.638.13.76.097 1.382.237 1.902.43.672.255 1.162.59 1.51 1.02.388.486.59 1.074.59 1.704v35.56c0 .63-.202 1.223-.59 1.705-.36.448-.867.782-1.552 1.014-.5.174-1.12.3-1.894.38-.71.073-1.58.106-2.604.106m56.405 0c-1.024 0-1.9-.033-2.6-.105-.786-.085-1.408-.207-1.91-.38-.677-.233-1.18-.567-1.54-1.015-.388-.482-.59-1.074-.59-1.704V3.322c0-.608.193-1.187.557-1.678.35-.47.854-.82 1.53-1.082.52-.194 1.145-.334 1.915-.43.714-.09 1.576-.132 2.637-.132 1.06 0 1.923.042 2.637.13.765.098 1.39.238 1.902.432.692.262 1.19.613 1.538 1.078.368.495.562 1.074.562 1.682v52.546c0 .63-.203 1.222-.592 1.704-.355.448-.862.778-1.55 1.014-.496.174-1.117.3-1.895.38-.706.073-1.58.106-2.604.106m-78.813.643c-2.938 0-5.592-.47-7.892-1.395-2.35-.947-4.354-2.363-5.952-4.22-1.58-1.825-2.785-4.07-3.576-6.673-.777-2.532-1.17-5.46-1.17-8.7 0-3.736.477-7.024 1.424-9.772.01-.017.01-.03.018-.042-.13.16-.27.304-.43.427-.44.338-1.01.524-1.633.524-.4 0-.824-.076-1.26-.233-.245-.083-.528-.176-.853-.282-.292-.093-.617-.182-.977-.266-.275-.064-.592-.097-.947-.097-.35 0-.706.076-1.077.224-.414.168-.862.442-1.335.823-.503.406-1.057.968-1.64 1.678-.533.66-1.116 1.472-1.73 2.415v21.743c0 .63-.206 1.222-.595 1.704-.355.448-.862.782-1.556 1.018-.49.17-1.107.296-1.885.377-.71.072-1.586.105-2.61.105-1.022 0-1.897-.033-2.6-.105-.78-.08-1.402-.207-1.9-.38-.686-.233-1.19-.567-1.548-1.015-.39-.482-.592-1.074-.592-1.704V20.226c0-.583.16-1.137.474-1.598.304-.465.807-.84 1.475-1.1.472-.18 1.03-.31 1.715-.396.626-.072 1.382-.11 2.257-.11.9 0 1.68.038 2.304.11.727.09 1.298.224 1.75.423.596.258 1.048.62 1.357 1.073.292.453.452.96.47 1.493.866-.896 1.682-1.597 2.49-2.143.89-.604 1.808-1.035 2.725-1.28.87-.237 1.767-.355 2.65-.355.394 0 .825.02 1.277.067.46.046.93.122 1.42.227.516.115.964.246 1.345.385.515.195.913.423 1.217.698.326.3.566.642.723 1.018.106.25.194.562.27.96.064.346.114.833.148 1.483.026.59.043 1.37.043 2.364 0 1.01-.033 1.843-.084 2.49-.034.385-.08.723-.13 1.027.883-1.985 1.998-3.706 3.338-5.135 1.763-1.88 3.877-3.292 6.278-4.2 2.362-.893 4.975-1.34 7.765-1.34 1.15 0 2.3.1 3.42.303 1.11.203 2.163.482 3.13.83.978.345 1.87.747 2.652 1.19.836.474 1.44.9 1.837 1.298.406.41.677.74.863 1.053.215.358.376.79.477 1.28.077.372.14.828.186 1.365.043.507.068 1.116.068 1.835 0 1.804-.168 3.04-.527 3.884-.715 1.67-1.88 1.92-2.515 1.92-.808 0-1.61-.297-2.397-.876-.48-.355-1.056-.748-1.724-1.188-.592-.384-1.327-.752-2.18-1.082-.766-.3-1.726-.452-2.85-.452-2.097 0-3.58.74-4.675 2.325-1.187 1.73-1.79 4.397-1.79 7.94 0 1.787.16 3.368.476 4.704.296 1.264.736 2.32 1.298 3.132.52.76 1.154 1.31 1.928 1.682.8.385 1.77.58 2.882.58 1.167 0 2.165-.165 2.96-.495.895-.368 1.677-.782 2.333-1.226.7-.473 1.29-.904 1.762-1.293.81-.66 1.56-.98 2.295-.98.617 0 1.18.198 1.627.57.427.36.723.87.905 1.568.114.44.202.972.27 1.627.05.608.085 1.377.085 2.316 0 .748-.026 1.373-.068 1.876-.047.537-.11.994-.186 1.36-.093.454-.21.826-.36 1.147-.19.392-.494.785-.963 1.233-.414.398-1.036.83-1.95 1.353-.865.49-1.837.926-2.903 1.298-1.065.372-2.227.676-3.457.904-1.256.228-2.558.347-3.868.347m-169.313-32.21c-1.238 0-2.32.224-3.212.66-.87.426-1.573 1.035-2.135 1.86-.61.887-1.073 1.986-1.382 3.267-.33 1.348-.495 2.92-.495 4.675 0 1.648.136 3.174.41 4.544.254 1.29.664 2.415 1.222 3.345.503.845 1.167 1.48 2.033 1.944.88.468 2.02.71 3.4.71 1.263 0 2.357-.22 3.25-.656.874-.427 1.576-1.03 2.138-1.852.6-.866 1.057-1.952 1.357-3.225.317-1.352.478-2.93.478-4.687 0-1.653-.13-3.183-.393-4.557-.24-1.28-.647-2.397-1.21-3.323-.524-.853-1.2-1.504-2.066-1.986-.86-.474-2.005-.72-3.396-.72m-.52 32.25c-3.347 0-6.323-.48-8.834-1.42-2.574-.965-4.743-2.394-6.455-4.254-1.703-1.847-2.975-4.142-3.79-6.814-.788-2.587-1.19-5.567-1.19-8.86 0-3.19.436-6.158 1.3-8.825.878-2.722 2.218-5.097 3.99-7.054 1.783-1.97 4.03-3.513 6.682-4.587 2.625-1.062 5.71-1.598 9.177-1.598 3.37 0 6.35.47 8.868 1.4 2.578.95 4.743 2.38 6.442 4.238 1.686 1.848 2.955 4.14 3.77 6.81.787 2.59 1.188 5.588 1.188 8.898 0 3.19-.43 6.15-1.276 8.8-.867 2.71-2.203 5.086-3.97 7.06-1.783 1.986-4.04 3.538-6.712 4.61-2.634 1.058-5.728 1.595-9.19 1.595m111.51-27.226c-.137-1.7-.585-3.07-1.35-4.084-.896-1.196-2.312-1.775-4.324-1.775-1.023 0-1.902.186-2.612.545-.736.372-1.327.863-1.814 1.488-.503.652-.896 1.447-1.17 2.36-.144.473-.258.96-.34 1.467h11.61zm-4.558 27.226c-3.33 0-6.302-.43-8.843-1.28-2.616-.88-4.84-2.237-6.607-4.033-1.767-1.8-3.102-4.084-3.965-6.797-.827-2.62-1.25-5.715-1.25-9.194 0-3.332.44-6.384 1.32-9.072.887-2.74 2.206-5.11 3.922-7.043 1.72-1.94 3.846-3.45 6.315-4.472 2.443-1.01 5.212-1.52 8.23-1.52 3.183 0 5.964.485 8.268 1.44 2.342.972 4.294 2.346 5.812 4.083 1.505 1.725 2.62 3.788 3.322 6.13.68 2.274 1.027 4.767 1.027 7.414v1.597c0 1.645-.423 2.925-1.256 3.817-.582.63-1.656 1.387-3.427 1.387h-20.01c.075.745.207 1.442.397 2.085.287.993.748 1.843 1.36 2.523.618.677 1.4 1.184 2.398 1.547 1.056.39 2.367.584 3.91.584 1.652 0 3.11-.12 4.332-.352 1.268-.24 2.367-.507 3.272-.795.93-.29 1.703-.558 2.308-.8.845-.333 1.547-.493 2.156-.493.524 0 .993.122 1.403.355.455.275.806.68 1.056 1.226.186.423.3.922.355 1.54.043.477.068 1.08.068 1.804 0 .626-.017 1.158-.042 1.598-.034.49-.08.896-.14 1.234-.088.474-.22.867-.4 1.213-.19.35-.41.655-.673.934-.347.372-.9.697-1.974 1.14-.85.352-1.92.69-3.176 1.01-1.25.318-2.692.597-4.277.834-1.628.237-3.373.355-5.19.355m114.97-17.42c-1.51 0-2.8.11-3.83.326-.94.193-1.69.477-2.232.84-.486.32-.82.685-1.023 1.103-.228.46-.338 1.01-.338 1.636 0 1.04.28 1.775.883 2.32.647.583 1.58.866 2.862.866 1.123 0 2.125-.274 3.063-.845.918-.557 1.87-1.364 2.84-2.4v-3.847h-2.227zm-5.876 17.42c-2.04 0-3.956-.27-5.69-.812-1.783-.552-3.355-1.394-4.674-2.5-1.34-1.125-2.397-2.537-3.132-4.194-.727-1.64-1.1-3.55-1.1-5.686 0-2.333.478-4.408 1.413-6.17.938-1.776 2.354-3.26 4.21-4.406 1.762-1.094 3.96-1.914 6.54-2.43 2.49-.495 5.405-.748 8.67-.748h1.867v-.554c0-.972-.097-1.818-.283-2.52-.16-.587-.405-1.052-.743-1.42-.326-.35-.778-.612-1.374-.794-.714-.22-1.64-.33-2.743-.33-1.522 0-2.887.17-4.058.5-1.243.35-2.346.74-3.28 1.157-.964.435-1.772.824-2.423 1.184-.922.506-1.717.755-2.43.755-.67 0-1.29-.224-1.802-.65-.418-.34-.77-.82-1.02-1.417-.193-.452-.34-.997-.442-1.648-.093-.584-.14-1.235-.14-1.928 0-.99.085-1.77.258-2.392.207-.74.596-1.408 1.154-1.983.51-.528 1.293-1.048 2.392-1.598 1.02-.508 2.194-.977 3.505-1.395 1.314-.415 2.764-.76 4.315-1.032 1.57-.266 3.2-.4 4.845-.4 2.925 0 5.482.294 7.6.874 2.215.612 4.08 1.576 5.533 2.865 1.492 1.324 2.587 3.03 3.263 5.077.635 1.944.956 4.247.956 6.855V55.99c0 .86-.355 1.616-1 2.13-.483.39-1.134.648-2 .792-.673.11-1.586.16-2.803.16-1.294 0-2.24-.05-2.883-.16-.884-.152-1.534-.44-2-.88-.287-.27-.63-.718-.773-1.386-.88.63-1.81 1.18-2.79 1.636-2.084.976-4.417 1.47-6.936 1.47m-135.25 58.955c-1.05 0-1.903-.034-2.6-.106-.787-.083-1.404-.206-1.902-.38-.668-.227-1.193-.57-1.548-1.014-.388-.482-.59-1.073-.59-1.703V62.957c0-.61.19-1.188.557-1.678.355-.47.87-.83 1.538-1.083.524-.195 1.146-.338 1.907-.43.71-.09 1.576-.132 2.637-.132 1.06 0 1.923.042 2.637.13.76.094 1.386.237 1.902.432.667.25 1.187.608 1.533 1.07.372.502.567 1.08.567 1.69v52.546c0 .63-.203 1.22-.592 1.703-.355.448-.883.787-1.564 1.02-.478.168-1.095.29-1.877.375-.697.073-1.572.107-2.608.107m-68.673-16.743c-1.51 0-2.794.11-3.825.325-.938.198-1.69.48-2.236.845-.482.32-.82.684-1.027 1.107-.23.46-.34.993-.34 1.632 0 1.04.284 1.775.888 2.32.647.584 1.58.867 2.862.867 1.124 0 2.126-.274 3.065-.845.917-.557 1.872-1.365 2.84-2.405v-3.846h-2.228zm-5.875 17.423c-2.042 0-3.952-.27-5.69-.81-1.788-.555-3.36-1.396-4.675-2.504-1.34-1.124-2.392-2.536-3.132-4.193-.727-1.64-1.095-3.55-1.095-5.69 0-2.328.474-4.404 1.404-6.162.942-1.78 2.358-3.263 4.21-4.41 1.77-1.098 3.973-1.914 6.547-2.43 2.49-.498 5.408-.752 8.667-.752h1.868v-.55c0-.967-.097-1.817-.283-2.514-.16-.592-.406-1.057-.744-1.425-.326-.35-.778-.613-1.378-.8-.706-.214-1.632-.324-2.74-.324-1.517 0-2.882.164-4.06.498-1.23.348-2.335.74-3.277 1.16-.964.43-1.776.828-2.422 1.183-.92.507-1.715.757-2.426.757-.672 0-1.297-.228-1.81-.655-.417-.343-.764-.82-1.013-1.412-.194-.46-.342-1.006-.443-1.653-.093-.583-.14-1.23-.14-1.923 0-.985.085-1.767.258-2.393.203-.735.592-1.403 1.154-1.982.506-.524 1.288-1.048 2.396-1.598 1.01-.507 2.19-.976 3.504-1.395 1.298-.415 2.748-.762 4.312-1.032 1.56-.267 3.19-.402 4.848-.402 2.917 0 5.474.296 7.596.88 2.215.608 4.08 1.568 5.537 2.86 1.488 1.32 2.583 3.028 3.255 5.078.638 1.94.96 4.248.96 6.852v23.975c0 .868-.355 1.624-1.006 2.14-.482.39-1.137.647-1.996.79-.68.106-1.593.157-2.798.157-1.293 0-2.236-.05-2.883-.156-.883-.156-1.534-.443-2-.883-.29-.266-.633-.72-.777-1.39-.88.633-1.813 1.183-2.79 1.64-2.083.976-4.417 1.47-6.936 1.47m44.586-32.247c-1.234 0-2.312.224-3.212.66-.87.422-1.568 1.03-2.135 1.86-.608.887-1.072 1.986-1.38 3.266-.33 1.35-.496 2.92-.496 4.675 0 1.65.14 3.176.41 4.546.254 1.29.664 2.413 1.218 3.34.507.848 1.175 1.487 2.04 1.947.876.47 2.018.706 3.396.706 1.264 0 2.358-.22 3.255-.652.87-.426 1.568-1.03 2.138-1.85.602-.868 1.058-1.954 1.354-3.226.317-1.353.478-2.93.478-4.692 0-1.65-.13-3.18-.39-4.553-.244-1.28-.65-2.4-1.212-3.322-.525-.854-1.2-1.505-2.067-1.987-.858-.473-2.004-.718-3.395-.718m-.52 32.247c-3.347 0-6.32-.477-8.834-1.42-2.574-.964-4.743-2.397-6.455-4.252-1.7-1.852-2.976-4.143-3.792-6.814-.786-2.586-1.188-5.566-1.188-8.86 0-3.19.44-6.158 1.298-8.825.88-2.722 2.223-5.093 3.994-7.055 1.78-1.97 4.024-3.512 6.68-4.59 2.624-1.057 5.71-1.594 9.176-1.594 3.364 0 6.35.47 8.868 1.4 2.574.95 4.743 2.375 6.442 4.235 1.69 1.856 2.96 4.147 3.766 6.815.79 2.587 1.188 5.584 1.188 8.898 0 3.187-.427 6.15-1.272 8.8-.867 2.714-2.203 5.09-3.974 7.055-1.78 1.99-4.037 3.542-6.708 4.616-2.633 1.057-5.723 1.593-9.19 1.593m60.163-17.423c-1.508 0-2.793.11-3.828.325-.934.198-1.687.48-2.232.845-.486.32-.82.684-1.027 1.11-.23.458-.334.995-.334 1.63 0 1.04.278 1.774.882 2.32.647.583 1.585.866 2.862.866 1.124 0 2.122-.274 3.06-.845.917-.553 1.873-1.36 2.845-2.405v-3.846h-2.23zm-5.874 17.423c-2.038 0-3.952-.27-5.69-.81-1.792-.555-3.364-1.4-4.675-2.504-1.34-1.124-2.396-2.536-3.127-4.193-.73-1.64-1.1-3.55-1.1-5.69 0-2.324.47-4.4 1.405-6.162.942-1.78 2.358-3.263 4.21-4.41 1.77-1.098 3.973-1.914 6.543-2.43 2.49-.498 5.407-.752 8.67-.752h1.87v-.55c0-.972-.098-1.817-.284-2.51-.16-.596-.402-1.06-.744-1.43-.33-.35-.778-.612-1.378-.798-.71-.215-1.632-.325-2.74-.325-1.517 0-2.882.164-4.06.498-1.23.348-2.34.74-3.277 1.16-.964.43-1.776.828-2.422 1.183-.922.507-1.72.757-2.427.757-.668 0-1.293-.228-1.805-.65-.422-.348-.765-.82-1.014-1.405-.204-.48-.348-1.022-.45-1.665-.092-.583-.14-1.23-.14-1.923 0-.99.086-1.77.263-2.393.2-.73.588-1.403 1.15-1.986.503-.52 1.29-1.044 2.397-1.594 1.01-.507 2.19-.976 3.504-1.395 1.293-.415 2.743-.762 4.312-1.032 1.56-.267 3.19-.402 4.848-.402 2.917 0 5.474.296 7.596.88 2.215.604 4.075 1.568 5.537 2.86 1.484 1.32 2.583 3.023 3.255 5.073.638 1.948.96 4.256.96 6.856v23.975c0 .864-.356 1.624-1.006 2.14-.487.39-1.142.647-2 .79-.676.106-1.585.157-2.794.157-1.29 0-2.232-.05-2.883-.156-.88-.156-1.53-.44-1.996-.874-.3-.28-.638-.728-.778-1.4-.883.634-1.817 1.184-2.798 1.64-2.084.977-4.417 1.47-6.932 1.47" fill="#de2516"/><path d="M259.027 100.358h-3.838c-1.628 0-3.01.12-4.156.36-1.15.24-2.08.6-2.794 1.078-.723.48-1.247 1.06-1.58 1.74-.335.682-.5 1.46-.5 2.34 0 1.49.47 2.662 1.416 3.51.947.855 2.262 1.282 3.936 1.282 1.412 0 2.71-.36 3.897-1.078 1.187-.723 2.387-1.77 3.617-3.157v-6.075zm9.87 15.264c0 .376-.135.668-.4.88-.267.215-.686.367-1.26.46-.57.093-1.417.14-2.537.14-1.196 0-2.07-.047-2.62-.14-.542-.093-.93-.245-1.16-.46-.223-.212-.337-.504-.337-.88v-2.836c-1.467 1.572-3.137 2.798-5.013 3.677-1.88.88-3.965 1.32-6.252 1.32-1.894 0-3.63-.25-5.216-.74-1.585-.495-2.96-1.222-4.117-2.2-1.16-.97-2.055-2.176-2.697-3.617-.638-1.437-.96-3.115-.96-5.034 0-2.076.41-3.88 1.218-5.41.816-1.535 2.03-2.8 3.64-3.797 1.61-1.002 3.613-1.74 6.014-2.22 2.397-.48 5.178-.722 8.35-.722h3.477v-2.156c0-1.12-.114-2.096-.342-2.933-.224-.84-.6-1.543-1.12-2.1-.52-.563-1.21-.973-2.076-1.24-.867-.266-1.937-.4-3.217-.4-1.68 0-3.18.19-4.498.56-1.32.373-2.48.787-3.49 1.24-1.016.452-1.86.866-2.542 1.238-.68.372-1.234.558-1.657.558-.292 0-.554-.09-.782-.28-.224-.185-.41-.45-.558-.798-.148-.346-.258-.77-.338-1.28-.08-.504-.118-1.066-.118-1.68 0-.823.063-1.474.198-1.956.13-.477.385-.913.76-1.297.37-.386 1.024-.813 1.954-1.278.93-.465 2.025-.9 3.28-1.302 1.247-.397 2.613-.723 4.092-.976 1.48-.254 3.005-.38 4.578-.38 2.798 0 5.186.274 7.173.82 1.987.545 3.614 1.382 4.895 2.514 1.276 1.137 2.206 2.592 2.798 4.375.584 1.788.88 3.906.88 6.353v23.976zm-38.355-.118c0 .266-.08.498-.237.7-.16.2-.43.365-.82.496-.385.135-.9.232-1.54.304-.637.064-1.453.097-2.438.097-.985 0-1.796-.032-2.44-.096-.633-.072-1.15-.17-1.537-.304-.385-.13-.656-.296-.816-.495-.16-.203-.24-.435-.24-.7V62.957c0-.266.08-.507.24-.72.16-.21.43-.392.816-.54.388-.144.904-.258 1.538-.338.643-.08 1.454-.123 2.44-.123.984 0 1.8.043 2.438.123.638.08 1.154.194 1.54.338.388.148.658.33.82.54.155.213.236.454.236.72v52.546zM204.22 97.72c0-1.758-.14-3.372-.418-4.852-.284-1.48-.757-2.764-1.42-3.86-.67-1.09-1.552-1.94-2.66-2.556-1.103-.61-2.498-.918-4.176-.918-1.492 0-2.794.275-3.914.82-1.12.546-2.037 1.344-2.756 2.397-.72 1.054-1.26 2.322-1.62 3.797-.358 1.48-.54 3.166-.54 5.055 0 1.76.148 3.378.44 4.857.296 1.474.765 2.764 1.42 3.854.65 1.09 1.54 1.936 2.66 2.536 1.115.6 2.5.897 4.154.897 1.517 0 2.836-.27 3.952-.816 1.12-.545 2.042-1.34 2.76-2.38.72-1.04 1.25-2.294 1.598-3.774.347-1.475.52-3.162.52-5.055m10.348-.397c0 3.035-.402 5.808-1.2 8.31-.8 2.507-2.01 4.663-3.636 6.472-1.623 1.814-3.66 3.213-6.112 4.198-2.452.984-5.314 1.48-8.59 1.48-3.174 0-5.93-.44-8.272-1.32-2.346-.88-4.29-2.16-5.833-3.838-1.547-1.678-2.693-3.74-3.437-6.192-.748-2.448-1.12-5.246-1.12-8.39 0-3.04.406-5.813 1.218-8.332.81-2.515 2.033-4.675 3.656-6.47 1.627-1.802 3.656-3.192 6.095-4.182 2.44-.98 5.293-1.475 8.57-1.475 3.198 0 5.967.436 8.313 1.298 2.342.867 4.282 2.14 5.816 3.818 1.526 1.678 2.668 3.745 3.412 6.192.748 2.452 1.12 5.263 1.12 8.433m-53.895 3.035h-3.838c-1.623 0-3.01.12-4.155.36-1.145.24-2.075.6-2.798 1.078-.72.48-1.243 1.06-1.577 1.74-.334.682-.5 1.46-.5 2.34 0 1.49.475 2.662 1.417 3.51.947.855 2.262 1.282 3.94 1.282 1.408 0 2.71-.36 3.893-1.078 1.188-.723 2.393-1.77 3.618-3.157v-6.075zm9.87 15.264c0 .376-.135.668-.4.88-.267.215-.686.367-1.26.46-.57.093-1.417.14-2.537.14-1.196 0-2.07-.047-2.616-.14-.546-.093-.935-.245-1.16-.46-.227-.212-.34-.504-.34-.88v-2.836c-1.464 1.572-3.137 2.798-5.014 3.677-1.877.88-3.96 1.32-6.252 1.32-1.894 0-3.63-.25-5.216-.74-1.585-.495-2.96-1.222-4.117-2.2-1.157-.97-2.054-2.176-2.696-3.617-.638-1.437-.96-3.115-.96-5.034 0-2.076.406-3.88 1.222-5.41.812-1.535 2.025-2.8 3.635-3.797 1.612-1.002 3.615-1.74 6.016-2.22 2.397-.48 5.178-.722 8.35-.722h3.477v-2.156c0-1.12-.114-2.096-.342-2.933-.223-.84-.595-1.543-1.115-2.1-.52-.563-1.213-.973-2.08-1.24-.866-.266-1.936-.4-3.216-.4-1.68 0-3.176.19-4.495.56-1.318.373-2.485.787-3.495 1.24-1.015.452-1.86.866-2.54 1.238-.677.372-1.23.558-1.658.558-.29 0-.553-.09-.778-.28-.228-.185-.414-.45-.562-.798-.143-.346-.258-.77-.338-1.28-.08-.504-.118-1.066-.118-1.68 0-.823.063-1.474.198-1.956.13-.477.385-.913.757-1.297.377-.386 1.028-.813 1.962-1.278.93-.465 2.025-.9 3.276-1.302 1.252-.397 2.617-.723 4.096-.976 1.48-.254 3-.38 4.574-.38 2.798 0 5.186.274 7.173.82 1.984.545 3.62 1.382 4.896 2.514 1.28 1.137 2.21 2.592 2.798 4.375.584 1.788.88 3.906.88 6.353v23.976zM398.397 55.87c0 .265-.08.498-.24.697-.162.202-.436.367-.82.503-.386.13-.9.232-1.54.3-.638.063-1.454.097-2.44.097-.984 0-1.795-.034-2.433-.097-.64-.068-1.16-.17-1.543-.3-.385-.136-.656-.3-.816-.503-.16-.2-.24-.432-.24-.698V3.322c0-.266.08-.503.24-.718.16-.212.43-.393.816-.54.384-.145.904-.26 1.543-.34.638-.08 1.45-.118 2.434-.118.985 0 1.8.038 2.44.118.638.08 1.153.195 1.538.34.385.147.66.328.82.54.16.215.24.452.24.718V55.87zm-27.928-15.146h-3.834c-1.623 0-3.01.122-4.155.36-1.147.24-2.08.6-2.8 1.08-.718.48-1.242 1.058-1.576 1.738-.334.68-.503 1.46-.503 2.338 0 1.492.474 2.663 1.426 3.517.942.854 2.253 1.276 3.93 1.276 1.417 0 2.71-.36 3.898-1.077 1.188-.72 2.392-1.772 3.614-3.158v-6.074zm9.87 15.263c0 .377-.13.668-.397.88-.266.215-.684.367-1.26.46-.57.093-1.415.14-2.535.14-1.2 0-2.07-.047-2.617-.14-.55-.093-.934-.245-1.158-.46-.228-.212-.342-.503-.342-.88V53.15c-1.463 1.574-3.132 2.8-5.013 3.68-1.877.878-3.96 1.317-6.252 1.317-1.894 0-3.63-.25-5.216-.74-1.59-.49-2.955-1.225-4.113-2.197-1.163-.972-2.063-2.177-2.7-3.614-.64-1.442-.96-3.12-.96-5.04 0-2.074.405-3.88 1.22-5.41.812-1.534 2.02-2.798 3.636-3.8 1.61-.997 3.614-1.737 6.01-2.215 2.402-.48 5.183-.717 8.353-.717h3.475v-2.16c0-1.116-.11-2.097-.334-2.938-.228-.837-.6-1.54-1.12-2.096-.52-.56-1.213-.974-2.08-1.24-.866-.266-1.94-.397-3.216-.397-1.68 0-3.175.186-4.494.558-1.32.373-2.485.787-3.5 1.24-1.01.45-1.855.866-2.536 1.238-.676.376-1.234.558-1.657.558-.295 0-.553-.093-.777-.28-.228-.185-.414-.452-.562-.798-.147-.347-.26-.774-.337-1.277-.08-.506-.123-1.064-.123-1.677 0-.828.068-1.48.2-1.96.14-.48.388-.91.76-1.3.376-.384 1.023-.81 1.957-1.276.934-.464 2.025-.9 3.28-1.3 1.25-.4 2.617-.724 4.096-.978 1.48-.254 3-.38 4.574-.38 2.798 0 5.186.273 7.173.82 1.982.544 3.614 1.385 4.895 2.514 1.276 1.133 2.21 2.59 2.794 4.375.586 1.787.878 3.905.878 6.356v23.97zm-38.352-.118c0 .265-.08.498-.24.697-.157.202-.432.367-.816.503-.39.13-.9.232-1.54.3-.637.063-1.453.097-2.438.097-.985 0-1.796-.034-2.44-.097-.637-.068-1.15-.17-1.533-.3-.39-.136-.66-.3-.82-.503-.162-.2-.242-.432-.242-.698V20.306c0-.266.08-.498.24-.7.16-.2.432-.373.82-.52.385-.145.897-.26 1.535-.34.643-.08 1.454-.118 2.44-.118.984 0 1.8.037 2.438.118.64.08 1.15.194 1.54.338.384.148.66.32.816.52.16.203.24.435.24.7V55.87zm.76-47.71c0 2.024-.413 3.423-1.237 4.196-.825.774-2.36 1.16-4.6 1.16-2.262 0-3.788-.373-4.574-1.122-.786-.744-1.175-2.092-1.175-4.036 0-2.02.403-3.428 1.22-4.215.81-.786 2.35-1.18 4.61-1.18 2.24 0 3.758.38 4.557 1.142.8.757 1.2 2.11 1.2 4.054m-16.054 42.037c0 .693-.02 1.272-.06 1.737-.04.465-.096.858-.16 1.18-.067.316-.148.578-.24.777-.094.2-.296.457-.618.762-.32.304-.87.676-1.64 1.116-.773.44-1.648.837-2.637 1.18-.985.346-2.06.625-3.217.84-1.157.212-2.35.317-3.575.317-2.744 0-5.174-.427-7.292-1.276-2.118-.855-3.897-2.11-5.334-3.776-1.438-1.665-2.525-3.7-3.26-6.095-.732-2.398-1.1-5.14-1.1-8.23 0-3.573.45-6.655 1.34-9.254.893-2.596 2.14-4.747 3.737-6.45 1.598-1.704 3.492-2.972 5.677-3.797 2.18-.83 4.578-1.243 7.19-1.243 1.066 0 2.11.097 3.137.283 1.024.186 1.983.44 2.88.757.89.32 1.69.68 2.396 1.077.702.402 1.205.75 1.5 1.04.288.296.495.54.618.74.118.2.21.46.28.778.062.32.117.714.16 1.18.037.468.06 1.035.06 1.698 0 1.547-.132 2.634-.4 3.255-.27.63-.616.943-1.04.943-.45 0-.933-.186-1.436-.562-.51-.372-1.107-.782-1.796-1.24-.698-.45-1.522-.86-2.482-1.237-.96-.373-2.105-.56-3.436-.56-2.608 0-4.607 1.007-5.994 3.02-1.386 2.01-2.08 4.96-2.08 8.846 0 1.92.174 3.614.52 5.076.347 1.467.858 2.693 1.54 3.678.68.985 1.53 1.725 2.556 2.215 1.023.494 2.22.74 3.576.74 1.387 0 2.58-.203 3.576-.618.998-.414 1.873-.875 2.62-1.378.745-.508 1.37-.97 1.878-1.383.507-.41.93-.617 1.28-.617.242 0 .44.068.597.2.16.134.283.38.38.74.093.358.165.82.22 1.377.05.562.08 1.28.08 2.16m-29.96-26.656c0 .96-.03 1.747-.08 2.36-.056.613-.132 1.094-.242 1.437-.11.35-.244.587-.418.723-.173.13-.393.198-.66.198-.21 0-.45-.046-.718-.14-.266-.092-.566-.194-.9-.3-.334-.105-.697-.206-1.1-.3-.396-.092-.836-.14-1.318-.14-.558 0-1.116.115-1.674.34-.562.228-1.145.578-1.74 1.06-.6.478-1.227 1.12-1.882 1.92-.65.798-1.35 1.783-2.097 2.954V55.87c0 .265-.076.498-.236.697-.16.202-.436.367-.82.503-.385.13-.897.232-1.54.3-.637.063-1.45.097-2.438.097-.986 0-1.798-.034-2.436-.097-.638-.068-1.154-.17-1.538-.3-.385-.136-.66-.3-.82-.503-.16-.2-.24-.432-.24-.698V20.226c0-.266.066-.5.2-.702.132-.198.37-.363.72-.498.342-.13.79-.233 1.336-.3.545-.064 1.23-.098 2.063-.098.85 0 1.555.033 2.113.096.562.068.993.17 1.298.3.308.136.528.3.663.5.126.202.198.435.198.7v4.435c.93-1.33 1.81-2.43 2.638-3.296.824-.862 1.61-1.55 2.354-2.058.744-.503 1.492-.86 2.24-1.057.744-.2 1.488-.3 2.237-.3.346 0 .718.02 1.12.058.4.042.807.11 1.238.2.423.096.8.2 1.116.32.322.118.555.25.7.38.15.136.256.28.32.44.067.16.13.38.182.66.05.278.093.697.118 1.26.03.557.042 1.318.042 2.273m-38.87 10.594c.08-2.824-.487-5.043-1.7-6.653-1.214-1.614-3.086-2.417-5.614-2.417-1.28 0-2.392.236-3.34.718-.942.48-1.728 1.126-2.358 1.937-.626.816-1.103 1.776-1.437 2.88-.334 1.106-.524 2.282-.58 3.537h15.028zm9.75 2.874c0 1.226-.28 2.135-.824 2.718-.545.588-1.298.88-2.257.88h-21.696c0 1.517.18 2.895.54 4.133.36 1.238.93 2.295 1.717 3.157.787.867 1.802 1.526 3.04 1.978 1.24.453 2.722.68 4.455.68 1.76 0 3.302-.126 4.637-.38 1.328-.253 2.482-.532 3.454-.84.972-.305 1.78-.584 2.418-.838.642-.253 1.158-.38 1.56-.38.24 0 .44.046.6.14.16.097.287.26.397.498.107.24.183.58.22 1.02.04.438.06.992.06 1.66 0 .588-.013 1.086-.038 1.496-.03.416-.067.77-.122 1.062-.05.292-.132.537-.237.74-.11.2-.245.393-.423.58-.173.185-.647.44-1.416.756-.773.32-1.758.634-2.96.938-1.195.31-2.57.575-4.112.8-1.547.227-3.195.342-4.958.342-3.17 0-5.947-.402-8.33-1.2-2.38-.8-4.376-2.01-5.974-3.636-1.598-1.623-2.79-3.678-3.576-6.155-.786-2.477-1.18-5.376-1.18-8.712 0-3.166.415-6.023 1.24-8.568.827-2.544 2.024-4.7 3.596-6.475 1.573-1.772 3.483-3.12 5.732-4.054 2.253-.934 4.79-1.4 7.617-1.4 2.98 0 5.528.44 7.65 1.32 2.118.88 3.855 2.096 5.216 3.656 1.357 1.56 2.354 3.403 2.997 5.533.638 2.135.96 4.45.96 6.953v1.598zm-40.752 18.86c0 .267-.08.5-.24.7-.157.202-.428.366-.8.502-.372.13-.88.232-1.517.3-.64.063-1.455.097-2.44.097-1.01 0-1.834-.034-2.476-.097-.64-.068-1.15-.17-1.54-.3-.384-.136-.65-.3-.798-.503-.15-.2-.22-.432-.22-.698V34.73c0-1.196-.115-2.29-.34-3.276-.227-.985-.57-1.83-1.04-2.536-.464-.706-1.05-1.25-1.757-1.64-.706-.385-1.552-.58-2.536-.58-1.2 0-2.414.47-3.636 1.4-1.224.934-2.556 2.29-3.993 4.075V55.87c0 .265-.08.498-.24.697-.162.203-.436.367-.82.503-.39.13-.9.232-1.54.3-.642.063-1.437.097-2.396.097-.99 0-1.8-.034-2.438-.097-.64-.068-1.154-.17-1.54-.3-.388-.136-.658-.3-.82-.503-.156-.2-.236-.432-.236-.698V34.73c0-1.196-.114-2.29-.338-3.276-.232-.985-.57-1.83-1.023-2.536-.452-.706-1.04-1.25-1.758-1.64-.72-.385-1.56-.58-2.515-.58-1.226 0-2.452.47-3.678 1.4-1.226.934-2.545 2.29-3.956 4.075V55.87c0 .265-.08.498-.237.697-.16.203-.434.367-.82.503-.388.13-.9.232-1.538.3-.638.063-1.454.097-2.44.097-.984 0-1.795-.034-2.438-.097-.638-.068-1.15-.17-1.534-.3-.39-.136-.66-.3-.82-.503-.16-.2-.24-.432-.24-.698V20.226c0-.266.066-.5.198-.702.135-.198.372-.363.718-.498.347-.13.795-.233 1.34-.3.545-.064 1.23-.098 2.06-.098.848 0 1.558.033 2.116.096.558.068.994.17 1.298.3.31.136.528.3.66.5.135.202.198.435.198.7v4.118c1.974-2.13 3.94-3.732 5.897-4.797 1.957-1.066 4.003-1.598 6.133-1.598 1.463 0 2.782.155 3.957.46 1.17.304 2.22.743 3.136 1.318.918.57 1.713 1.256 2.377 2.055.668.803 1.226 1.695 1.678 2.68 1.065-1.146 2.113-2.13 3.136-2.96 1.028-.824 2.043-1.496 3.04-2.016.998-.52 1.996-.904 2.997-1.158.998-.254 2.017-.38 3.057-.38 2.37 0 4.366.4 5.993 1.2 1.624.798 2.938 1.884 3.936 3.254 1.002 1.374 1.712 2.976 2.14 4.815.42 1.837.637 3.782.637 5.832V55.87zm-72.954-17.782c0-1.758-.144-3.373-.423-4.852-.28-1.48-.752-2.765-1.416-3.855-.668-1.096-1.55-1.946-2.658-2.56-1.11-.612-2.5-.92-4.178-.92-1.492 0-2.798.274-3.914.82-1.12.545-2.037 1.344-2.756 2.396-.723 1.053-1.26 2.317-1.62 3.796-.358 1.48-.54 3.166-.54 5.056 0 1.758.148 3.377.44 4.857.29 1.475.765 2.764 1.42 3.855.65 1.09 1.54 1.936 2.654 2.536 1.12.6 2.507.9 4.156.9 1.52 0 2.84-.275 3.956-.82 1.12-.545 2.038-1.34 2.76-2.375.72-1.04 1.252-2.3 1.598-3.778.347-1.48.52-3.162.52-5.056m10.348-.397c0 3.034-.402 5.807-1.2 8.31-.8 2.506-2.013 4.662-3.636 6.475-1.627 1.81-3.665 3.208-6.112 4.193-2.452.985-5.318 1.48-8.594 1.48-3.17 0-5.926-.44-8.268-1.32-2.346-.88-4.29-2.16-5.837-3.837-1.543-1.678-2.69-3.74-3.437-6.192-.744-2.447-1.116-5.246-1.116-8.39 0-3.036.406-5.813 1.218-8.332.81-2.52 2.03-4.675 3.656-6.472 1.623-1.8 3.656-3.19 6.095-4.176 2.435-.985 5.293-1.48 8.57-1.48 3.198 0 5.967.436 8.313 1.298 2.342.867 4.282 2.14 5.812 3.817 1.53 1.68 2.672 3.746 3.416 6.193.748 2.452 1.12 5.263 1.12 8.433" fill="#2e67a8"/><path d="M43.217 105.384c-6.56 0-12.58-1.03-17.885-3.064-5.35-2.05-9.97-5.16-13.73-9.245C7.855 89 4.95 83.865 2.963 77.812 1 71.812 0 64.754 0 56.83c0-8.075 1.095-15.358 3.26-21.652 2.176-6.332 5.27-11.734 9.2-16.063 3.94-4.34 8.734-7.68 14.25-9.925 5.483-2.232 11.59-3.364 18.164-3.364 2.68 0 5.3.228 7.786.676 2.473.444 4.798 1.036 6.903 1.754 2.122.723 4.066 1.577 5.782 2.532 1.784.998 3.018 1.852 3.78 2.612.756.757 1.28 1.404 1.597 1.974.32.58.57 1.29.748 2.106.157.74.275 1.59.355 2.586.076.956.114 2.14.114 3.522 0 1.48-.05 2.768-.153 3.83-.11 1.157-.308 2.096-.604 2.87-.343.89-.774 1.55-1.32 2.016-.63.54-1.39.82-2.2.82-1.096 0-2.31-.52-3.717-1.59-1.052-.8-2.443-1.707-4.13-2.705-1.657-.973-3.67-1.878-5.985-2.68-2.248-.78-4.995-1.172-8.16-1.172-3.425 0-6.515.702-9.174 2.088-2.676 1.39-4.988 3.416-6.873 6.01-1.915 2.64-3.394 5.894-4.396 9.673-1.02 3.837-1.535 8.237-1.535 13.068 0 5.314.55 9.96 1.636 13.81 1.065 3.787 2.59 6.932 4.536 9.342 1.92 2.384 4.26 4.18 6.957 5.338 2.74 1.18 5.885 1.78 9.352 1.78 3.182 0 5.95-.376 8.234-1.112 2.354-.765 4.383-1.61 6.027-2.51 1.712-.94 3.124-1.784 4.198-2.516 1.442-.98 2.562-1.433 3.54-1.433.798 0 1.487.186 2.045.558.592.393 1.035 1.04 1.352 1.98.233.7.398 1.605.508 2.776.1 1.108.152 2.554.152 4.295 0 1.252-.038 2.33-.114 3.21-.08.933-.2 1.72-.364 2.4-.174.73-.424 1.39-.736 1.948-.313.567-.77 1.158-1.395 1.814-.656.68-1.747 1.445-3.43 2.41-1.593.908-3.542 1.783-5.803 2.603-2.25.816-4.857 1.505-7.752 2.05-2.9.55-6.07.824-9.418.824" fill="#de2516"/><path d="M70.62 88.126c0 1.205-.038 2.227-.11 3.07-.072.84-.177 1.558-.325 2.16-.144.603-.334 1.12-.575 1.55-.24.43-.626.926-1.154 1.48-.528.553-1.55 1.26-3.065 2.126-1.512.862-3.368 1.695-5.553 2.49-2.185.79-4.688 1.45-7.5 1.982-2.81.528-5.853.794-9.12.794-6.396 0-12.166-.99-17.31-2.958-5.144-1.97-9.515-4.916-13.125-8.835-3.6-3.918-6.37-8.805-8.29-14.672C2.566 71.446 1.607 64.62 1.607 56.83c0-7.93 1.057-14.973 3.174-21.127 2.114-6.155 5.073-11.325 8.87-15.505 3.794-4.185 8.35-7.355 13.664-9.52 5.314-2.164 11.168-3.246 17.56-3.246 2.595 0 5.097.216 7.502.65 2.4.432 4.625 1 6.67 1.696 2.042.698 3.88 1.5 5.517 2.414 1.63.913 2.777 1.695 3.424 2.346.65.647 1.094 1.188 1.335 1.62.237.434.432.988.575 1.66.144.672.254 1.467.326 2.38.072.913.11 2.046.11 3.386 0 1.445-.05 2.67-.148 3.677-.093 1.01-.267 1.832-.503 2.457-.24.626-.53 1.078-.867 1.37-.338.287-.718.43-1.154.43-.722 0-1.63-.418-2.738-1.26-1.107-.84-2.536-1.778-4.29-2.814-1.754-1.03-3.847-1.97-6.273-2.81-2.432-.842-5.327-1.26-8.692-1.26-3.703 0-7.008.752-9.916 2.27-2.91 1.513-5.386 3.677-7.427 6.488-2.046 2.816-3.593 6.214-4.65 10.205-1.06 3.994-1.59 8.488-1.59 13.484 0 5.48.567 10.232 1.696 14.244 1.13 4.01 2.74 7.32 4.832 9.912 2.093 2.6 4.616 4.536 7.575 5.808 2.955 1.272 6.286 1.91 9.984 1.91 3.366 0 6.278-.397 8.73-1.187 2.452-.8 4.552-1.67 6.307-2.634 1.754-.963 3.2-1.826 4.328-2.595 1.13-.77 2.004-1.154 2.633-1.154.478 0 .863.097 1.154.288.288.19.53.574.72 1.154.193.574.337 1.382.434 2.413.093 1.035.144 2.417.144 4.146" fill="#2e67a8"/><path d="M87.824 72.138c2.338 0 4.3-.308 5.825-.92 1.483-.597 2.704-1.426 3.62-2.46.948-1.075 1.68-2.38 2.174-3.886.512-1.55.77-3.28.77-5.123 0-2.478-.423-4.51-1.265-6.05-.83-1.52-1.843-2.65-3.006-3.348-1.234-.74-2.536-1.208-3.872-1.4-1.484-.21-3.035-.32-4.612-.32h-5.21v23.506h5.574zm-15.213 43.26c-1.64 0-2.966-.068-4.057-.2-1.116-.126-2.054-.312-2.777-.553-.947-.317-1.62-.76-2.063-1.357-.444-.587-.68-1.302-.68-2.054v-70.84c0-2.355.663-4.19 1.982-5.453 1.298-1.242 2.993-1.872 5.04-1.872h18.56c1.935 0 3.774.072 5.46.216 1.73.148 3.826.46 6.23.938 2.487.495 5.04 1.412 7.585 2.74 2.578 1.34 4.81 3.068 6.636 5.135 1.84 2.08 3.255 4.53 4.21 7.296.947 2.74 1.43 5.833 1.43 9.198 0 4.608-.737 8.763-2.19 12.348-1.463 3.623-3.632 6.72-6.447 9.215-2.795 2.468-6.253 4.37-10.285 5.65-3.978 1.265-8.695 1.903-14.03 1.903H82.25v23.528c0 .77-.263 1.5-.754 2.105-.465.57-1.128.997-2.04 1.305-.733.24-1.663.427-2.766.558-1.065.127-2.4.195-4.08.195" fill="#de2516"/><path d="M101.82 59.748c0-2.76-.485-5.03-1.457-6.818-.976-1.784-2.173-3.103-3.593-3.957-1.42-.85-2.912-1.39-4.472-1.61-1.564-.224-3.175-.334-4.84-.334h-6.814v26.718h7.182c2.553 0 4.692-.347 6.42-1.036 1.725-.693 3.133-1.653 4.228-2.89 1.094-1.24 1.927-2.723 2.493-4.444.57-1.724.854-3.6.854-5.63m16.74-1.158c0 4.42-.693 8.34-2.07 11.742-1.38 3.416-3.39 6.282-6.03 8.615-2.632 2.333-5.87 4.11-9.704 5.326-3.834 1.217-8.348 1.826-13.54 1.826h-6.572v25.137c0 .402-.135.765-.397 1.09-.267.326-.702.588-1.306.795-.612.2-1.424.364-2.438.482-1.01.127-2.308.186-3.894.186-1.542 0-2.827-.06-3.863-.186-1.036-.118-1.856-.283-2.47-.482-.603-.207-1.03-.47-1.275-.794-.24-.326-.364-.69-.364-1.09V40.39c0-1.906.495-3.34 1.492-4.29.994-.95 2.304-1.43 3.927-1.43h18.56c1.865 0 3.64.07 5.327.213 1.683.143 3.7.448 6.053.913 2.35.47 4.734 1.33 7.152 2.587 2.414 1.26 4.472 2.853 6.176 4.776 1.703 1.93 3 4.177 3.897 6.756.892 2.578 1.34 5.47 1.34 8.674" fill="#2e67a8"/></svg>