<svg xmlns="http://www.w3.org/2000/svg" width="400" height="361.954"><path d="M18.467 302.656c-.917-4.22-4.555-4.983-6.93-4.983-4.483 0-8.09 3.205-8.09 9.533 0 5.647 2.056 10 8.198 10 2.174 0 5.93-1.004 7.054-6.594h3.25c-1.38 9.073-8.976 9.48-10.825 9.48C5.503 320.093 0 316.538 0 307.3c0-7.38 4.34-12.517 11.537-12.517 6.39 0 9.687 3.86 10.166 7.873h-3.236zM48.83 307.44c0-5.187-2.83-12.66-12.068-12.66-9.228 0-12.068 7.473-12.068 12.66 0 5.19 2.84 12.65 12.068 12.65 9.24 0 12.067-7.46 12.067-12.65m-3.453 0c0 5.654-3.23 9.77-8.615 9.77-5.37 0-8.62-4.116-8.62-9.77 0-5.656 3.25-9.768 8.62-9.768 5.384 0 8.615 4.112 8.615 9.77M73.158 319.453v-14.186c0-.7.062-3.746.062-5.997h-.062l-6.97 20.183h-3.31l-6.956-20.137h-.077c0 2.205.077 5.25.077 5.95v14.187h-3.24V295.44h4.786l7.07 20.287h.067l7.028-20.286h4.76v24.013H73.16zM85.184 309.313h7.776c5.384 0 7.347-3.782 7.347-7.126 0-3.875-2.756-6.745-7.347-6.745H81.83v24.012h3.354v-10.14zm0-11.114h6.786c2.762 0 4.89.968 4.89 4.018 0 3.24-2.04 4.323-5.04 4.323h-6.636v-8.34zM114.163 312.458l2.448 6.992h3.654l-8.97-24.01h-3.778l-9.305 24.01h3.443l2.58-6.992h9.93zm-8.888-2.885l3.957-10.568h.083l3.648 10.568h-7.688zM139.73 295.44h3.236v24.012h-3.756l-12.573-19.405h-.082v19.405h-3.236V295.44h3.977l12.366 19.39h.067v-19.39zm-.345-6.678c-.242 2.015-1.48 3.65-3.432 3.65-.634 0-1.113-.13-2.045-.42l-.897-.308c-1.205-.407-1.7-.51-2.09-.51-.944 0-1.372.613-1.63 1.474h-1.653c.278-1.98 1.278-3.57 3.58-3.57.892 0 1.624.225 2.35.493l.742.295c.664.284 1.355.443 1.643.443 1.355 0 1.566-.907 1.71-1.546h1.722zM152.06 319.453h-3.338v-24.01h3.34v24.01zM171.612 312.458l2.437 6.992h3.657l-8.96-24.01h-3.792l-9.3 24.01h3.44l2.577-6.992h9.94zm-8.894-2.885l3.958-10.568h.072l3.653 10.568h-7.682zM207.715 302.656c-.922-4.22-4.55-4.983-6.92-4.983-4.493 0-8.1 3.205-8.1 9.533 0 5.647 2.06 10 8.21 10 2.152 0 5.914-1.004 7.042-6.594h3.246c-1.365 9.073-8.955 9.48-10.81 9.48-5.627 0-11.145-3.555-11.145-12.793 0-7.38 4.36-12.517 11.557-12.517 6.38 0 9.677 3.86 10.166 7.873h-3.245zM233.835 319.453h-18.26V295.44h18.023v2.87h-14.685v7.35h13.542v2.884h-13.542v8.028h14.922v2.88zM241.972 309.137h8.1c3.998 0 4.4 2.314 4.4 4.292 0 .896.108 4.54.593 6.023h4.1v-.536c-1.03-.577-1.215-1.077-1.24-2.417l-.212-4.35c-.14-3.343-1.545-3.946-2.952-4.512 1.583-.902 3.432-2.21 3.432-5.75 0-5.08-4.06-6.447-8.12-6.447h-11.444v24.013h3.344v-10.316zm0-10.94h8.337c1.653 0 4.45.31 4.45 4.02 0 3.54-2.59 4.158-5.038 4.158h-7.75v-8.177zM277.296 295.44h3.756l-9.038 24.012h-3.545l-9.023-24.012h3.725l7.06 20.45h.082l6.982-20.45zM302.964 319.453h-18.256V295.44h18.02v2.87h-14.68v7.35h13.54v2.884h-13.54v8.028h14.916v2.88zM324.716 302.656c-.948-4.22-4.565-4.983-6.93-4.983-4.473 0-8.1 3.205-8.1 9.533 0 5.647 2.066 10 8.208 10 2.164 0 5.93-1.004 7.064-6.594h3.23c-1.38 9.073-8.954 9.48-10.82 9.48-5.616 0-11.13-3.555-11.13-12.793 0-7.38 4.34-12.517 11.548-12.517 6.38 0 9.68 3.86 10.166 7.873h-3.236zM350.832 319.453h-18.266V295.44h18.023v2.87h-14.675v7.35h13.536v2.884h-13.535v8.028h14.917v2.88zM358.958 309.137h8.1c4.003 0 4.416 2.314 4.416 4.292 0 .896.097 4.54.592 6.023h4.086v-.536c-1.03-.577-1.2-1.077-1.247-2.417l-.19-4.35c-.15-3.343-1.55-3.946-2.963-4.512 1.582-.902 3.442-2.21 3.442-5.75 0-5.08-4.055-6.447-8.136-6.447h-11.43v24.013h3.33v-10.316zm0-10.94h8.347c1.654 0 4.447.31 4.447 4.02 0 3.54-2.592 4.158-5.04 4.158h-7.754v-8.177zM393.904 312.458l2.448 6.992H400l-8.955-24.01h-3.793l-9.305 24.01h3.447l2.586-6.992h9.924zm-8.888-2.885l3.957-10.568h.073l3.653 10.568h-7.684zM28.54 357.03h9.9c8.115 0 10.54-6.96 10.54-12.345 0-6.92-3.966-11.67-10.412-11.67H28.54v24.016zm3.345-21.244h6.24c4.544 0 7.41 3.05 7.41 9.115 0 6.045-2.824 9.364-7.173 9.364h-6.477v-18.478zM71.87 357.03H53.6v-24.016h18.023v2.875h-14.69v7.363h13.54v2.88h-13.54v8.017H71.87v2.88zM102.217 333.013h3.246v24.017h-3.76l-12.58-19.4h-.07v19.4h-3.257v-24.017h3.993l12.355 19.405h.072v-19.405zM114.544 357.03h-3.323v-24.015h3.324v24.016zM137.63 340.24c-.926-4.216-4.533-5-6.924-5-4.467 0-8.095 3.237-8.095 9.54 0 5.656 2.073 10 8.21 10 2.174 0 5.93-.98 7.053-6.58h3.24c-1.37 9.07-8.96 9.47-10.81 9.47-5.62 0-11.128-3.55-11.128-12.773 0-7.394 4.338-12.52 11.53-12.52 6.39 0 9.693 3.864 10.172 7.862h-3.246zM158.967 350.046l2.447 6.982h3.648l-8.95-24.016h-3.787l-9.31 24.016h3.44l2.588-6.982h9.924zm-8.888-2.88l3.956-10.578h.072l3.674 10.578h-7.703zM171.89 346.725h8.098c4 0 4.41 2.304 4.41 4.287 0 .902.1 4.55.583 6.02h4.118v-.537c-1.035-.572-1.21-1.056-1.247-2.4l-.22-4.35c-.134-3.344-1.54-3.952-2.953-4.52 1.582-.906 3.442-2.204 3.442-5.765 0-5.08-4.076-6.446-8.132-6.446h-11.433v24.017h3.334v-10.305zm0-10.94h8.336c1.664 0 4.45.31 4.45 4.02 0 3.545-2.585 4.143-5.038 4.143h-7.75v-8.162zM206.82 350.046l2.458 6.982h3.653l-8.965-24.016h-3.787l-9.306 24.016h3.442l2.597-6.982h9.91zm-8.89-2.88l3.98-10.578h.06l3.665 10.578h-7.704zM225.76 344.194h10.846v12.835h-2.16l-.803-3.092c-1.674 2.256-4.78 3.73-8.167 3.73-4.245 0-6.306-1.51-7.57-2.715-3.796-3.473-3.89-7.59-3.89-10.136 0-5.858 3.644-12.443 11.718-12.443 4.612 0 9.728 2.545 10.46 7.93h-3.246c-1.05-4.19-4.69-5.06-7.39-5.06-4.45 0-8.11 3.457-8.11 9.743 0 4.89 1.66 9.9 8.24 9.9 1.24 0 3.24-.125 5.07-1.532 2.17-1.674 2.72-3.823 2.72-6.39h-7.718v-2.77zM261.355 333.013V348.6c0 4.916-3.174 9.07-9.96 9.07-6.647 0-9.512-4.154-9.512-8.642v-16.015h3.34v15.123c0 5.22 3.282 6.647 6.275 6.647 3.07 0 6.518-1.365 6.518-6.585v-15.185h3.34zM279.112 350.046l2.448 6.982h3.653l-8.97-24.016h-3.793l-9.296 24.016h3.442l2.577-6.982h9.94zm-8.893-2.88l3.946-10.578h.082l3.653 10.578h-7.68zM288.658 353.483h3.57v3.293c0 4.544-2.895 5.06-3.57 5.178v-1.546c1.443-.134 1.82-1.793 1.82-3.38h-1.82v-3.545zM322.356 340.048c-.165-3.72-3.34-4.9-6.126-4.9-2.118 0-5.668.572-5.668 4.22 0 2.04 1.484 2.705 2.926 3.03l7.07 1.592c3.21.72 5.616 2.607 5.616 6.405 0 5.698-5.44 7.275-9.676 7.275-4.59 0-6.374-1.34-7.487-2.308-2.1-1.85-2.51-3.85-2.51-6.086h3.12c0 4.34 3.667 5.612 6.84 5.612 2.408 0 6.473-.603 6.473-4.04 0-2.525-1.2-3.318-5.26-4.25l-5.076-1.134c-1.608-.37-5.27-1.474-5.27-5.658 0-3.746 2.513-7.43 8.51-7.43 8.637 0 9.513 5.024 9.652 7.672h-3.134zM333.696 353.48h-3.576v3.546h3.576v-3.545zM360.65 350.046l2.452 6.982h3.642l-8.95-24.016h-3.792l-9.3 24.016h3.44l2.573-6.982h9.934zm-8.895-2.88l3.968-10.578h.082l3.633 10.578h-7.683zM373.778 357.03h-3.58v-3.544h3.58v3.545zM234.027 173.518c-35.904 0-64.96 29.097-64.96 64.985v34.672h9.368v-34.672c0-30.7 24.887-55.59 55.592-55.59 30.71 0 55.586 24.89 55.586 55.59v34.672h9.414v-34.672c0-35.888-29.117-64.985-65-64.985" fill="#006636"/><path d="M197.23 165.905c-30.696 0-55.588-24.892-55.588-55.59 0-30.69 24.892-55.593 55.587-55.593 10.927 0 21.114 3.164 29.698 8.594-12.38 11.836-20.136 28.525-20.136 46.998 0 18.508 7.74 35.177 20.126 47.012-8.574 5.42-18.76 8.58-29.69 8.58m74.57 0c-10.92 0-21.08-3.16-29.685-8.58 9.543-9.125 16.33-21.105 18.94-34.564h-9.614c-2.582 11.285-8.62 21.276-16.932 28.788-11.243-10.17-18.307-24.877-18.307-41.236 0-16.345 7.065-31.066 18.308-41.232 8.64 7.822 14.82 18.282 17.21 30.133h9.573c-2.41-14.01-9.315-26.46-19.177-35.888 8.584-5.426 18.766-8.605 29.684-8.605 26.908 0 49.332 19.12 54.48 44.493h9.578c-5.28-30.602-31.95-53.886-64.058-53.886-13.876 0-26.716 4.353-37.29 11.757-10.547-7.404-23.402-11.758-37.278-11.758-35.89 0-64.98 29.1-64.98 64.984 0 35.908 29.09 65.01 64.98 65.01 13.885 0 26.746-4.364 37.293-11.748 10.558 7.384 23.398 11.748 37.274 11.748 31.643 0 58.004-22.615 63.805-52.562h-9.62c-5.63 24.702-27.752 43.143-54.185 43.143" fill="#006636"/><path d="M94.56 70.828c2.03-.474 2.663-3.02 3.936-6.46 1.24-3.423.824-8.003.118-10.126-.7-2.14-1.81-5.72-1.81-10.306 0-7.512-.854-25.495-.854-35.656 0-5.9-.433-8.28-1.412-8.28-.953 0-1.375 2.38-1.375 8.28 0 10.16-.86 28.144-.86 35.656 0 4.586-1.11 8.167-1.8 10.306-.715 2.123-1.128 6.703.13 10.125 1.257 3.442 1.886 5.987 3.926 6.46" fill="#c49920"/><path d="M91.117 92.666c.824 1.134 2.143.49 2.143-1.973 0-2.437-.34-7.667-1.973-10.795-1.64-3.09-5.714-7.507-5.565-12.088.165-4.575 0-43.318-.15-49.053-.17-5.724-2.787-5.554-2.787-.314 0 5.214 0 48.383-.494 52.974-.484 4.565-.154 8.172 1.81 11.1 1.957 2.956 6.203 8.99 7.017 10.15" fill="#c49920"/><path d="M78.37 93.97c-.163 2.447.326 5.977 1.305 7.935.974 1.968 9.97 17.987 10.96 19.626.984 1.63 2.628 1.63 2.628-1.638v-10.284c0-1.97-.99-4.51-2.144-6.132-1.13-1.638-6.534-8.832-7.513-10.475-.995-1.633-2.783-4.26-3.118-7.692-.31-3.432-.016-46.425-.016-49.218 0-3.92-2.922-3.92-2.922 0s.984 55.417.82 57.88M97.825 79.9c-1.634 3.123-1.958 8.353-1.958 10.796 0 2.457 1.303 3.1 2.123 1.973.824-1.16 5.075-7.194 7.033-10.152 1.963-2.932 2.277-6.538 1.793-11.098-.49-4.59-.49-47.76-.49-52.98 0-5.235-2.607-5.41-2.772.32-.16 5.73-.335 44.477-.16 49.048.16 4.585-3.936 8.996-5.57 12.093" fill="#c49920"/><path d="M105.513 93.003c-.99 1.64-6.374 8.837-7.523 10.47-1.15 1.63-2.123 4.17-2.123 6.137v10.285c0 3.267 1.64 3.267 2.628 1.633.964-1.633 9.96-17.658 10.95-19.62.973-1.96 1.463-5.494 1.298-7.936-.16-2.463.824-53.958.824-57.885 0-3.92-2.932-3.92-2.932 0 0 2.793.315 45.792-.02 49.223-.325 3.432-2.123 6.06-3.102 7.693M78.37 131.583c2.12 3.43 9.977 12.752 11.44 14.88 1.48 2.118 3.453 2.288 3.453-.82V134.68c0-2.113-1.155-3.91-2.304-5.555-1.15-1.634-9.482-12.258-11.285-16.84-1.798-4.585-2.937-7.527-3.102-11.608-.165-4.08-.984-38.263-.984-43.503 0-6.034-2.613-6.034-2.613 0 0 4.74 1.798 53.14 1.947 59.858.17 6.698 1.32 11.12 3.447 14.55" fill="#c49920"/><path d="M98.162 129.127c-1.15 1.64-2.293 3.442-2.293 5.55v10.97c0 3.107 1.957 2.932 3.44.814 1.46-2.127 9.3-11.443 11.43-14.875 2.132-3.43 3.28-7.858 3.43-14.556.166-6.715 1.964-55.12 1.964-59.86 0-6.033-2.612-6.033-2.612 0 0 5.246-.81 39.43-.99 43.51-.154 4.08-1.298 7.023-3.09 11.603-1.794 4.58-10.13 15.21-11.28 16.844" fill="#c49920"/><path d="M122.028 144.495c-1.71 2.555-4.092 12.587-5.895 18.79-1.798 6.226-3.256 21.75-4.735 29.773-1.474 8.007-3.107 13.897-6.374 20.1-2.257 4.277-4.086 9.806-6.374 15.14-.5 1.122-1.48 1.05-1.48-.264v-50.43c0-.978.656-2.22 1.326-2.7 11.237-8.44 15.84-25.504 16.988-30.085 1.128-4.514 3.6-9.647 3.77-14.552.156-4.905.847-37.604.975-42.014.175-5.56-2.124-5.56-2.124.16 0 4.74-.98 27.463-1.143 31.38-.165 3.935-.706 7.32-1.644 11.453-1.964 8.662-15.86 28.288-17.16 29.767-1.318 1.463-2.462 3.117-2.292 4.89.17 1.813-.17 5.24-1.31 7.038-1.133-1.798-1.468-5.225-1.298-7.038.165-1.773-.984-3.427-2.298-4.89-1.313-1.48-15.205-21.105-17.168-29.767-.933-4.132-1.47-7.518-1.64-11.454-.158-3.916-1.143-26.64-1.143-31.38 0-5.72-2.29-5.72-2.12-.16.127 4.41.823 37.11.972 42.015.17 4.905 2.64 10.038 3.772 14.55 1.14 4.582 5.756 21.647 17 30.087.653.48 1.307 1.72 1.307 2.7v50.43c0 1.313-.978 1.385-1.467.262-2.293-5.333-4.138-10.862-6.374-15.14-3.278-6.202-4.91-12.092-6.39-20.1-1.47-8.022-2.937-23.546-4.735-29.77-1.794-6.205-4.18-16.237-5.895-18.792-2.602-3.927-4.42-2.288-2.432 1.803 1.633 3.427 6.162 32.21 6.688 42.18.5 9.315 6.214 30.41 10.3 37.12 4.086 6.682 7.688 13.566 8.353 15.19.643 1.637 1.297 3.286 1.297 6.218v26.17h6.54v-26.17c0-2.932.67-4.58 1.313-6.22.654-1.622 4.256-8.506 8.337-15.19 4.09-6.708 9.815-27.803 10.31-37.12.51-9.97 5.05-38.75 6.693-42.178 1.958-4.09.17-5.73-2.452-1.803" fill="#c49920"/></svg>