<svg xmlns="http://www.w3.org/2000/svg" width="450" height="286.565"><path d="M25.396 224.196c-3.218-1.45-6.28-1.566-7.42-1.566-8.07 0-14.226 5.71-14.226 12.594 0 2.823 1.07 5.38 2.974 7.083 2.853 2.522 6.718 2.572 7.94 2.572 2.578 0 6.407-.705 8.24-1.632l-3.7 3.413c-.92.353-2.32.64-4.814.64-1.825 0-3.743-.187-5.525-.64C3.312 245.168 0 240.8 0 235.54c0-7.098 6.293-15.338 18.305-15.338 3.844 0 6.71.754 7.932 1.135l-.84 2.86zM53.266 231.386c0-4.806-3.19-8.908-9.06-8.908-9.62 0-12.004 9.813-12.004 13.42 0 5.172 3.355 8.994 8.966 8.994 9.396 0 12.098-9.325 12.098-13.506m-12.43 15.856c-7.686 0-12.34-4.54-12.34-11.344 0-5.942 4.244-15.734 15.912-15.734 9.152 0 12.443 6.294 12.443 11.394 0 5.87-4.303 15.684-16.013 15.684M90.245 246.657h-3.47l3.88-21.596-16.668 21.597h-.18l-3.857-21.495-8.578 21.495h-3.5l10.835-25.87h3.735l3.413 19.24 14.77-19.24h3.887l-4.267 25.87zM106.82 233.068c.46.065.84.13 1.64.13 4.453 0 7.183-2.752 7.183-5.726 0-3.398-2.895-4.232-5.72-4.232h-2.42l-3.534 12.04 2.85-2.212zm-6.15 13.593h-3.526l7.47-25.87h6.223c3.8 0 8.556 1.488 8.556 6.488 0 2.414-1.322 4.684-3.247 6.164-1.796 1.343-4.727 2.342-8.68 2.342-.545 0-2.132-.043-3.576-.215l-3.22 11.09zM135.826 236.684l-1.494-12.673-8.908 12.674h10.402zm4.742 9.972h-3.44l-1-7.472h-12.414l-5.21 7.472h-4l18.83-25.863h3.793l3.44 25.863zM161.044 215.332c.775-.367 1.465-.475 1.946-.475.755 0 1.588.237 2.005.367 1.458.416 1.71.488 2.277.488.992 0 1.56-.23 2.83-.898l-1.17 2.42c-.94.432-1.66.52-2.005.52-.524 0-1.005-.145-1.932-.418-.905-.295-1.588-.51-2.328-.51-1.236 0-2.148.546-2.73.948l1.107-2.442zm14.835 5.452l-7.616 26.08h-.194l-13.995-22.746-6.487 22.537h-3.27l7.58-25.87h3.836l11.51 19.06 5.352-19.06h3.283zM191.29 213.865l-.647 2.37-7.71 2.695.75-2.414 7.607-2.65zm-12.472 32.79h-3.585l7.515-25.87h3.49l-7.42 25.87zM203.943 236.684l-1.523-12.673-8.887 12.674h10.41zm4.763 9.972h-3.484l-.97-7.472h-12.414l-5.202 7.472h-4.023l18.852-25.863h3.757l3.484 25.863zM252.278 224.196c-3.218-1.45-6.28-1.566-7.42-1.566-8.083 0-14.233 5.71-14.233 12.594 0 2.823 1.078 5.38 3.003 7.083 2.824 2.522 6.69 2.572 7.917 2.572 2.6 0 6.416-.705 8.24-1.632l-3.7 3.413c-.92.353-2.313.64-4.842.64-1.803 0-3.72-.187-5.488-.64-5.56-1.493-8.873-5.86-8.873-11.12 0-7.098 6.28-15.338 18.313-15.338 3.836 0 6.688.754 7.924 1.135l-.842 2.86zM272.23 244.126l-2.695 2.536h-15.9l7.552-25.87h15.582l-.755 2.45H263.99l-2.487 8.548h10.54l-.77 2.48h-10.51l-2.824 9.856h14.29zM286.195 232.65c.474.05 1.02.08 1.51.08 5.1 0 7.11-3.04 7.11-5.31 0-2.815-2.39-4.108-5.308-4.108h-2.788l-3.442 11.74 2.917-2.4zm-2.25-11.89h6.1c4.203 0 8.406 1.804 8.406 6.474 0 2.53-1.43 4.655-3.41 5.963-1.345.97-2.58 1.286-3.565 1.588l5.403 11.868h-3.758l-4.97-11.35c-.935.078-1.48.085-2.645.085-.718 0-1.753-.05-2.256-.086l-3.392 11.35h-3.383l7.47-25.89zM310.998 246.657h-3.348l-2.902-25.87h3.456l2.255 22.17 16.092-22.17h3.83l-19.384 25.87zM346.148 244.126l-2.694 2.536h-15.898l7.55-25.87h15.576l-.748 2.45h-12.062l-2.442 8.548h10.517l-.733 2.48H334.71l-2.858 9.856h14.296zM377.48 224.196c-3.233-1.45-6.28-1.566-7.45-1.566-8.054 0-14.218 5.71-14.218 12.594 0 2.823 1.07 5.38 2.96 7.083 2.888 2.522 6.746 2.572 7.975 2.572 2.565 0 6.38-.705 8.24-1.632l-3.72 3.413c-.914.353-2.3.64-4.822.64-1.803 0-3.72-.187-5.51-.64-5.554-1.493-8.85-5.86-8.85-11.12 0-7.098 6.256-15.338 18.31-15.338 3.816 0 6.69.754 7.904 1.135l-.82 2.86zM397.41 244.126l-2.695 2.536H378.81l7.564-25.87h15.59l-.77 2.45H389.14l-2.45 8.548h10.518l-.733 2.48h-10.503l-2.867 9.856h14.304zM411.39 232.65c.495.05 1.048.08 1.53.08 5.122 0 7.112-3.04 7.112-5.31 0-2.815-2.378-4.108-5.288-4.108h-2.83l-3.406 11.74 2.88-2.4zm-2.206-11.89h6.056c4.224 0 8.434 1.804 8.434 6.474 0 2.53-1.408 4.655-3.405 5.963-1.366.97-2.587 1.286-3.586 1.588l5.41 11.868h-3.75l-4.98-11.35c-.926.078-1.48.085-2.636.085-.718 0-1.745-.05-2.248-.086l-3.384 11.35h-3.377l7.464-25.89zM445.28 236.684l-1.516-12.673-8.908 12.674h10.424zm4.72 9.972h-3.463l-.99-7.472h-12.4l-5.202 7.472h-4.024l18.83-25.863h3.787L450 246.656zM36.75 280.972h2.714c1.286 0 2.694-.094 4.01-.467 4.733-1.387 6.702-6.272 6.702-9.778 0-2.665-1.063-4.052-1.818-4.67-1.38-1.15-3.233-1.257-4.885-1.257h-1.997l-4.727 16.172zm-1.014-21.15h9.69c7.135 0 12.286 3.053 12.286 10.524 0 4.505-2.07 9.024-5.438 11.833-4.174 3.498-8.708 3.706-12.206 3.706h-11.94l7.608-26.064zM82.383 280.943l-5.26 4.943h-17.73l7.55-26.115h18.838l-1.522 5.066H72.67l-1.487 5.223h9.993l-1.465 4.97h-9.993l-1.695 5.913h14.36zM130.014 259.82l-7.608 26.123h-4.297l-11.07-17.228-4.808 17.17h-7.02l7.566-26.064h6.164l9.814 15.346 4.447-15.345h6.81zM136.962 285.882h-7.213l7.6-26.064h7.177l-7.565 26.064zM171.666 265.435c-.99-.467-3.52-1.688-6.782-1.688-6.997 0-11.358 5.518-11.358 10.61 0 3.96 2.507 7.638 8.894 7.638 2.902 0 5.575-.805 7.45-1.523l.582-.223-5.618 5.69c-1.128.25-2.68.617-5.13.617-9.44 0-13.484-5.826-13.484-11.79 0-7.413 6.192-15.682 18.556-15.682 1.976 0 5.094.208 8.356 1.163l-1.466 5.187zM190.035 276.112l-.776-9.13-6.143 9.13h6.918zm7.845 9.77h-7.07l-.495-5.223h-10.208l-3.57 5.222h-7.638l18.592-26.064h7.788l2.6 26.064zM215.623 270.648c.273.043.525.043.905.043 2.788 0 4.153-1.665 4.153-3.275 0-1.422-.868-2.227-1.903-2.58-.726-.23-1.51-.257-2.414-.257h-2.026l-2.852 9.69 4.138-3.62zm10.116 15.23h-7.35l-3.737-11.056c-.582.03-1.2.058-1.56.058-.545 0-1.148-.03-1.752-.058l-3.203 11.057h-7.033l7.53-26.058h9.496c1.46.02 3.205.057 4.835.64 3.413 1.192 4.65 3.864 4.65 6.213 0 2.378-1.273 4.62-3.198 5.97-1.23.95-2.565 1.344-3.305 1.588l4.627 11.646zM247.56 276.112l-.777-9.13-6.135 9.13h6.91zm7.815 9.77H248.3l-.468-5.223H237.61l-3.528 5.222h-7.66l18.558-26.064h7.81l2.585 26.064zM288.308 271.928l-3.62 12.407c-1.308.51-5.374 2.22-10.604 2.22-8.952 0-14.448-4.993-14.448-11.976 0-6.54 5.223-15.498 19.405-15.498 5.296 0 9.017 1.107 10.382 1.516l-1.487 5.18c-2.723-1.386-5.762-2.162-8.837-2.162-8.06 0-12.306 5.646-12.306 10.74 0 4.64 3.484 7.687 8.384 7.687 1.724 0 2.708-.294 3.398-.582l1.523-5.186h-6.868l4.108-4.346h10.97zM322.95 259.82l-4.87 16.82c-.804 2.593-1.61 5.164-4.454 7.262-2.148 1.645-5.323 2.658-9.16 2.658-7.42 0-11.81-3.635-11.81-8.678 0-1.286.366-2.58.87-4.433l3.965-13.63h7.343l-4.253 14.477c-.2.733-.64 2.356-.64 3.34 0 2.508 2.084 3.952 4.656 3.952 2.14 0 3.427-.856 4.246-1.64 1.15-1.12 1.587-2.248 2.24-4.44l4.534-15.69h7.335zM339.648 276.112l-.776-9.13-6.135 9.13h6.91zm7.824 9.77h-7.062l-.49-5.223h-10.2l-3.557 5.222h-7.65l18.57-26.064h7.802l2.587 26.064zM384.43 266.162c-2.33-2.084-4.757-2.307-5.727-2.307-2.838 0-4.117 1.76-4.117 3.212 0 1.516.948 2.35 2.838 3.872l1.027.832c1.496 1.164 3.73 3.025 3.73 6.315 0 3.995-3.39 8.478-11.28 8.478-1.99 0-5.71-.374-9.16-1.926l1.58-5.425c1.87 1.315 4.096 2.407 6.69 2.407 3.412 0 4.864-1.918 4.864-3.67 0-1.59-1.128-2.566-2.903-3.902-2.283-1.732-4.554-3.456-4.554-6.818 0-3.908 3.427-8.154 10.403-8.154 1.65 0 4.61.216 8.132 1.84l-1.523 5.244zM388.548 286.227c-1.868 0-3.37-1.3-3.37-3.118 0-1.86 1.63-3.104 3.37-3.104 1.89 0 3.37 1.372 3.37 3.103 0 1.71-1.402 3.117-3.37 3.117M413.722 276.112l-.754-9.13-6.164 9.13h6.918zm7.845 9.77h-7.076l-.488-5.223h-10.21l-3.548 5.222h-7.636l18.564-26.064h7.794l2.6 26.064zM428.543 286.227c-1.868 0-3.362-1.3-3.362-3.118 0-1.86 1.603-3.104 3.363-3.104 1.854 0 3.348 1.372 3.348 3.103 0 1.71-1.386 3.117-3.347 3.117M213.462 79.732c-6.092-.72-11.46-1.107-16.12-1.107-8.27 0-15.778.74-22.61 2.17-6.832 1.415-12.802 3.355-17.96 5.783-5.158 2.457-9.57 5.28-13.29 8.528-3.722 3.218-6.733 6.616-9.132 10.172-2.356 3.52-4.102 7.142-5.21 10.82-1.083 3.693-1.622 7.234-1.622 10.618 0 5.144 1.27 9.57 3.886 13.147 2.608 3.607 6.1 6.574 10.432 8.837 4.325 2.29 9.325 3.98 14.936 5.03 5.647 1.047 11.473 1.572 17.522 1.572 6.954 0 13.485-.43 19.606-1.3 4.39-.64 8.226-1.286 11.602-2.026l5.266-15.59c-4.69 1.157-9.368 2.19-14.03 2.924-5.963.934-11.696 1.386-17.17 1.386-3.284 0-6.31-.23-9.132-.71-2.81-.482-5.237-1.3-7.292-2.4-2.033-1.128-3.635-2.673-4.756-4.598-1.142-1.933-1.73-4.332-1.73-7.17 0-1.918.322-4.052.94-6.365.582-2.378 1.588-4.713 2.924-7.14 1.322-2.422 3.082-4.772 5.26-7.035 2.16-2.29 4.812-4.332 7.966-6.113 3.154-1.782 6.818-3.212 11.042-4.31 4.188-1.078 8.995-1.603 14.383-1.603 3.52 0 7.435.273 11.818.812 4.362.546 8.75 1.45 13.155 2.665l4.792-14.225c-4.303-1.107-9.454-2.062-15.475-2.773M276.952 1.078C270.875.323 265.472 0 260.845 0c-8.283 0-15.798.682-22.63 2.134-6.803 1.43-12.78 3.362-17.953 5.79-5.13 2.443-9.576 5.273-13.276 8.5-3.722 3.24-6.768 6.637-9.14 10.18-2.37 3.548-4.094 7.147-5.236 10.854-1.063 3.686-1.645 7.213-1.645 10.56 0 5.18 1.33 9.578 3.93 13.177 2.63 3.614 6.092 6.588 10.43 8.872 4.32 2.285 9.312 3.944 14.937 5 5.64 1.057 11.473 1.58 17.53 1.58 6.947 0 13.484-.437 19.598-1.335 4.382-.61 8.22-1.286 11.602-1.976l5.28-15.625c-4.698 1.172-9.367 2.2-14.066 2.94-5.956.91-11.68 1.407-17.134 1.407-3.283 0-6.33-.237-9.13-.718-2.832-.476-5.253-1.302-7.308-2.444-2.033-1.128-3.628-2.637-4.777-4.576-1.142-1.91-1.73-4.318-1.73-7.192 0-1.918.336-4.044.94-6.38.625-2.29 1.587-4.683 2.93-7.097 1.38-2.392 3.112-4.755 5.288-7.047 2.163-2.277 4.8-4.325 7.94-6.12 3.167-1.768 6.817-3.198 11.048-4.283 4.203-1.084 9.023-1.602 14.39-1.602 3.52 0 7.443.288 11.825.834 4.354.524 8.758 1.422 13.162 2.63l4.77-14.204c-4.296-1.12-9.462-2.084-15.468-2.78" fill="#00703c"/><path d="M387.24 115.47c-5.74.63-8.585.775-14.182.63 0 0 3.693-3.69 7.486-8.275 4.8-5.647 11.545-9.9 17.12-11.832 5.288-1.746 7.903-2.766 13.082-5.022 4.65-8.764 8.298-17.844 11.13-26.882.157.05.214.072.336.136-3.822 13.24-9.31 26.54-17.242 38.975-4.777 7.276-12.127 11.55-17.73 12.27" fill="#d59f0f"/><path d="M401.745 89.652c-5.094 2.22-7.702 3.14-12.84 4.59 0 0 2.264-4.36 4.434-9.518 2.73-6.373 7.65-12.005 12.212-15.31 4.318-2.996 6.423-4.67 10.51-8.118 1.696-8.995 2.38-17.91 2.364-26.59.137.023.23.023.36.052.308 12.55-.805 25.733-4.383 38.924-2.24 7.78-7.694 13.707-12.658 15.97M363.38 89.343c6.057-10.97 12.12-21.524 17.602-32.157.144.036.223.065.345.115-3.6 7.422-7.45 14.83-11.4 22.38 1.378 4.835 2.082 7.25 3.548 12.163 1.415 5.194.94 12.773-2.58 19.167-2.808 5.08-5.36 9.512-5.36 9.512-1.938-4.943-2.822-7.472-4.546-12.537-1.575-4.964-1.043-12.134 2.39-18.642" fill="#d59f0f"/><path d="M378.89 70.808c6.414-11.15 11.486-22.637 17.262-33.507.13.015.216.066.36.123-3.83 7.594-6.545 15.87-10.74 23.6 1.242 4.964 1.838 7.464 3.146 12.522 1.236 5.374.546 13.097-3.14 19.512-2.974 5.087-5.596 9.512-5.64 9.512-1.766-5.08-2.585-7.66-4.144-12.84-1.46-5.057-.726-12.313 2.895-18.922M397.876 70.586c-2.93 3.16-5.848 5.345-5.848 5.345 1.07-5.58 1.365-8.333 1.68-13.793.332-5.416 1.56-12.07 4.326-16.53 1.336-2.077 2.572-4.01 3.32-5.187 3.807-10.1 5.754-17.76 7.557-27.76h.252c-1.235 9.49-3.297 17.838-6.91 27.94.58 4.676.868 7.456 1.127 12.665.258 5.618-1.546 13.17-5.504 17.32" fill="#d59f0f"/><path d="M414.88 94.75c-5.39 8.103-11.502 15.99-18.45 23.233-5.503.725-8.247.97-13.707 1.156-5.776.352-13.37 2.686-19.484 6.868-2.874 2.026-5.583 3.728-7.364 4.79.165-.264.323-.5.503-.81 3.483-6.344 3.303-13.974 1.866-19.125-1.494-4.813-2.205-7.227-3.613-12.012 3.93-7.398 7.737-14.654 11.293-21.89-.15-.042-.2-.05-.36-.078-5.4 10.295-11.407 20.655-17.435 31.503-3.404 6.444-3.943 13.535-2.348 18.477 1.22 3.643 1.803 5.346 2.744 7.846-32.22 21.135-76.353 36.898-123.963 41.94-62.782 6.697-115.313-6.91-140.45-32.608 17.687 34.556 73.55 53.386 142.7 43.902 51.272-7.033 98.458-28.133 129.94-55.066 3.52 1.013 6.142 1.61 10.567 2.378 5.44.876 13.478-1.207 20.08-6.933 11.056-9.885 20.173-21.38 27.73-33.32-.085-.1-.15-.165-.25-.25" fill="#d59f0f"/><path d="M332.614 87.54c-1.79-2.35-4.29-4.254-7.436-5.892-3.132-1.61-6.767-2.81-10.884-3.65-4.138-.826-8.52-1.236-13.175-1.236-4.096 0-7.997.31-11.697.906-3.736.603-7.163 1.43-10.36 2.413-3.168.993-6.1 2.15-8.75 3.5-2.493 1.243-6.107 3.592-6.107 3.592l2.493-7.37c-2.594.46-5.367.92-8.313 1.357-6.4.92-13.348 1.378-20.597 1.378-.28 0-.568-.014-.87-.014l-22.7 67.31c1.407-.396 2.808-.763 4.23-1.208 10.69-3.22 20.468-7.343 29.125-12.07l7.227-21.394c.56-1.645 1.1-3.097 1.652-4.332.54-1.236 1.092-2.292 1.653-3.255.575-.977 1.178-1.803 1.774-2.55.634-.77 1.266-1.444 1.912-2.14 3.413-3.406 7.702-6.093 12.846-8.12 5.158-2.04 10.718-3.024 16.68-3.024 4.822 0 8.407.727 10.7 2.1 2.37 1.43 3.52 3.433 3.52 5.97 0 .86-.152 1.88-.418 3.146-.302 1.214-.682 2.608-1.178 4.18l-14.706 43.702c12.033-4.202 23.392-9.095 33.823-14.52l9.44-27.83c.732-2.256 1.357-4.54 1.94-6.797.574-2.247.875-4.302.875-6.163 0-3.024-.905-5.668-2.7-7.988" fill="#00703c"/></svg>