<svg xmlns="http://www.w3.org/2000/svg" width="511.911" height="367.208"><path d="M432 72.583l42.814 174.22c.496 137.926-150.353 56.154-195.282 102.405-48.75-41.228-159.757 14.496-195.687-57.28l-2.375 3.31c40.093 88.55 163.612 22.76 197.656 71.97C313.73 313.11 483.52 401.182 485.5 248.802l-44.03-176.22H432zM19.006 178.89c1.363 1.89 1.873 3.484 1.563 5.095-6.444-1.92-12.592-3.29-19.314-4.094 6.413 5.732 10.023 10.996 12.532 17.47-1.983-.62-3.398-1.41-5.938-1.844 6.97 11.988 8.92 20.454 20.906 22.312l17.563-4.468 11.436 1.375.063-.062-3.407 16.718-10.688 9.47c-1.208 7.373-1.594 12.703-1.687 21.563 5.266-6.382 7.102-8.303 11.625-10.782 2.137 1.705 2.79 4.345 3.906 7.908 2.415-6.94 3.903-9.417 7.25-14.125.99 1.64 1.027 3.18.718 6.03 3.717-7.93 5.213-9.336 8.093-12.062-.68-2.074-1.92-3.134-3.717-4.28 1.765-1.394 3.454-2.15 5.312-1.406.775-5.762.715-10.605-3.25-18.97-1.89.094-3.89.118-5.687-.81-.092-.12-.19-.27-.282-.408 9.248-4.726 16.22-4.88 31.72 2.22v-5.438c-12.097-7.177-23.19-4.093-32.5 1.562-.196-.612-.284-1.28-.22-1.97l.063-.062c-1.705-5.823-3.494-10.827-6.22-16.093-.155 2.416-.194 3.735-1 5.593-2.137-5.018-4.374-8.268-7.812-13.937-.155 2.23-.507 3.54-1.313 4.47-4.584-3.996-8.608-6.238-13.75-8.375.867 1.518 1.278 2.668.938 4-5.266-3.036-10.71-5.045-16.907-6.594z" fill="#f7bc08"/><path d="M17.75 179.263c1.363 1.89 1.872 3.483 1.562 5.093-6.443-1.92-12.59-3.288-19.312-4.093 6.412 5.73 10.022 10.994 12.53 17.468-1.98-.618-3.396-1.41-5.936-1.842 6.97 11.988 8.918 20.454 20.906 22.312l17.562-4.47 11.438 1.376.062-.062-3.406 16.72-10.687 9.468c-1.21 7.372-1.596 12.703-1.69 21.562 5.267-6.38 7.104-8.303 11.626-10.78 2.138 1.703 2.79 4.343 3.906 7.905 2.417-6.94 3.905-9.417 7.25-14.126.992 1.642 1.03 3.182.72 6.032 3.716-7.93 5.212-9.337 8.093-12.063-.682-2.075-1.922-3.135-3.72-4.28 1.767-1.395 3.455-2.15 5.314-1.407.773-5.762.714-10.605-3.25-18.97-1.89.094-3.892.118-5.69-.812-.09-.118-.19-.268-.28-.406 9.248-4.727 16.22-4.88 31.72 2.22v-5.44c-12.098-7.175-23.19-4.09-32.5 1.564-.197-.613-.284-1.28-.22-1.97l.062-.062c-1.703-5.823-3.492-10.827-6.218-16.093-.155 2.416-.195 3.735-1 5.593-2.138-5.018-4.374-8.27-7.813-13.937-.154 2.23-.506 3.54-1.31 4.47-4.586-3.997-8.61-6.24-13.75-8.376.866 1.517 1.277 2.668.936 4-5.266-3.036-10.71-5.045-16.906-6.594z" fill="#034e0c"/><path d="M63.36 216.47l-5.997-9.253c-6.69-3.085-12.47-3.042-21.245-1.043-3.953 3.128-6.473 5.604-9.514 9.384l-.782 3.39c-2.78 3.866-4.91 7.21-6.387 10.817H21c-.13 4.866-.262 6.995 0 11.86 1.085-.347 2.04-.434 2.866.13-.564 4.042-.347 5.084-.782 9.385 3.954.043 6.344-.564 9.515-3.388-.945 1.086-1.152 2.08-1.174 3.258 4.543-.555 7.152-1.664 10.036-4.43.043.694-.19 1.297.13 2.084 5.27-.183 9.654-1.213 15.38-3.128 1.978-3.914 3.863-6.722 7.038-9.254 1.292-2.737 1.938-4.83 2.216-8.21.51-3.797.374-7.04-.13-10.56z" fill="#f7bc08"/><g stroke="#034e0c" fill="none"><path d="M24.426 239.376c.37-.28 2.51-.372 2.51-.372l-.56 2.695M26.935 246.067l4.74-1.766.464 2.417M22.66 228.596l2.974-1.394.464 3.253M26.656 235.473l6.133-3.253v4.46M34.648 240.677l7.25-2.416.277 1.952M28.98 218.838l5.39-.557.092 2.79M32.882 224.6l-.093 2.88 9.2-2.415.743 8.828 4.832-1.3.65 2.88M49.052 239.562l5.018-.465.28 5.576M41.618 211.87l-.558 2.88 8.27-.465-1.207 6.97 7.248-.837-.928 7.25 6.04-1.395.186 4.925"/></g><path d="M281.318 59.96a7.435 7.435 0 0 0-6.844 4.22C256 102.732 214.866 118.545 171.91 100.555a7.435 7.435 0 0 0-10.155 5.28c-4.093 18.918-18.294 28.943-41.656 28.47a7.435 7.435 0 0 0-7.595 7.28c-.312 13.97-1.87 24.367-5.28 31.157-3.413 6.79-8.155 10.796-18.345 13.438a7.435 7.435 0 0 0-5.53 7.75c.84 11.09-.193 17.505-2.75 21.937-2.56 4.432-7.263 8.097-16.5 12.344a7.435 7.435 0 0 0-2.97 11.064l6.625 9.375c.386 5.13 1.027 9.947 1.844 14.53l-44.47 12.625a7.435 7.435 0 0 0-5.406 7.156v23a7.435 7.435 0 0 0 9.47 7.157l53.342-15.125c9.973 15.25 24.286 24.658 40.157 29.97 17.6 5.89 37.135 7.237 56.562 7.562 38.854.65 77.317-1.687 96.188 11.75a7.435 7.435 0 0 0 7.875.468C312 332.01 362.87 338.562 405.41 333.9c21.272-2.334 41.206-7.848 54.595-22.876 13.39-15.028 18.675-38.37 13.625-72.5a7.435 7.435 0 0 0-.125-.75l-12.03-47.22 45.03-12.78a7.435 7.435 0 0 0 5.406-7.157v-23a7.435 7.435 0 0 0-9.467-7.156l-50.094 14.19-19.626-77.095a7.435 7.435 0 0 0-7.22-5.594H411.35a7.435 7.435 0 0 0-6.845 4.532c-8.914 20.893-28.563 31.677-51.094 30.657-22.53-1.022-47.765-14.275-65.874-43.658a7.435 7.435 0 0 0-6.218-3.53z" fill="#e12101"/><path d="M119.932 141.744c-.642 28.768-5.826 45.56-29.18 51.615 1.782 23.506-3.868 32.56-23.56 41.613l7.747 10.917c7.76 127.603 152.055 57.73 204.83 95.31 64.75-35.514 206.023 30.14 186.53-101.594L425.5 79.388h-14.158c-20.26 47.49-91.73 50.356-130.16-12-20.042 41.827-66.1 59.29-112.16 40-4.8 22.19-23.228 34.88-49.09 34.356z" fill="#f0dfa9"/><path d="M504.474 147.617L27.16 282.96v23l477.314-135.343v-23z" fill="#f0dfa9"/><path d="M140.587 0c-5.11 13.92 3.066 26.378.876 39.128-.913 7.015-12.384 15.32-8.906 27.595 1.8 5.207 21.267-7.982 15.038-30.807-.292-8.03-4.088-13.724-7.008-35.916zM109.303 0c5.11 13.92-3.066 26.378-.876 39.128.913 7.015 12.384 15.32 8.906 27.595-1.8 5.207-21.267-7.982-15.038-30.807.292-8.03 4.088-13.724 7.008-35.916z" fill="#f7bc08"/><path d="M152.936 24.515c-5.11 13.92 4.54 34.488.876 39.13-9.39 9.593-23.258 17.714-19.78 29.99 1.8 5.206 28.27-1.347 25.544-30.07-.292-8.03-3.72-16.858-6.64-39.05zM96.32 24.515c5.11 13.92-4.54 34.488-.876 39.13 9.392 9.593 23.26 17.714 19.78 29.99-1.8 5.206-28.27-1.347-25.543-30.07.293-8.03 3.72-16.858 6.64-39.05zM159.107 87.357c1.403 26.665-14.67 45.408-24.884 39.077-10.138-8.786 17.695-22.733 24.884-39.077zM90.82 87.357c-1.402 26.665 14.67 45.408 24.885 39.077 10.138-8.786-17.695-22.733-24.884-39.077zM317.698 51.024c-9.567.084-19.592 5.23-19.843 13.5 0 6.076 4.924 11 11 11 6.075 0 11-4.924 11-11v-.062c5.362-.508 11.658 3.038 18.375 7.78-5.887 5.47-2.606 14.567-.344 21.564 1.95-6.854 4.9-12.286 10.406-14.125 13.954 10.42 28.688 20.15 40.47 7.032 2.41-3.278 3.06-6.708 3.06-9.656 0-6.075-4.924-11-11-11-6.074 0-11 4.925-11 11 0 1.04.138 2.047.408 3-2.506.926-6.867-2.32-12.375-6.907 6.4-5.886 5.175-14.91-.813-21.22-1.008 6.815-3.126 11.264-8.03 13.844-9.367-7.613-20.477-15.285-31.314-14.75zM248.533 50.398c9.567.084 19.592 5.23 19.844 13.5 0 6.075-4.925 11-11 11s-11-4.925-11-11v-.063c-5.362-.508-11.658 3.038-18.375 7.782 5.886 5.467 2.605 14.75.344 21.746-1.95-6.854-4.902-12.47-10.407-14.31-13.954 10.42-28.69 20.15-40.47 7.032-2.41-3.278-3.062-6.707-3.062-9.656 0-6.076 4.925-11 11-11s11 4.924 11 11c0 1.038-.137 2.046-.406 3 2.506.925 6.866-2.322 12.375-6.907-6.4-5.885-5.175-14.91.812-21.22 1.007 6.815 3.125 11.264 8.03 13.845 9.366-7.613 20.477-15.286 31.313-14.75zM66.31 132.932c.95 1.114 1.488 1.98 1.624 3.093-4.4-1.277-8.49-1.668-13.22-2.375 1.47 1.006 2.368 2 2.94 3.25-5.11-.434-9.717-.356-15.314.188 1.63.625 2.43 1.148 3.407 2.344-4.483.842-8.45 2.43-12.688 4.25 2.743.27 4.096.618 5.78 2.03-5.95 2.365-10.695 4.41-16.156 7.345 6.195-.408 12.4-.178 18.594.718-1.658.653-3.31 1.89-4.97 3.438 4.104-.38 7.13-.684 11.314-.656-1.305 1.44-1.867 2.296-2.438 4.062 3.75-1.82 6.113-2.076 9.78-1.532.055 3.315.04 4.843.908 7.75l25.125-3.813-9.282 9.407 11.438 11.156c2.703 4.055 2.72 8.457 2.844 13.25 4.577-4.3 8.152-8.584 11.53-13.438 1.537.492 2.513 1.155 3.22 2.844 1.29-2.734 1.937-5.36 1.937-8.187 1.813.83 2.794 1.944 3.5 4.156 1.075-4.67 1.43-8.258 1.03-12.375 1.967.676 3.646 1.828 4.783 4.53.338-6.327-.526-12.195-2.032-18.155 1.63-.983 2.883-1.324 5.157-.188-2.612-3.195-5.12-4.995-8.375-6.53-2.655-1.12-5.26-1.74-7.938-2.095 2.424-13.032 9.842-8.925 25.03-1.968l-.28-3.844c-5.854-4.343-11.197-5.956-16.157-5.844-7.19.163-13.55 3.913-19.438 8.03l-3-1.25-4.406-.155-.72-3.657c-4.51-2.663-8.695-4.34-13.53-5.78z" fill="#f7bc08"/><path d="M65.034 133.294c.95 1.114 1.49 1.98 1.625 3.094-4.403-1.277-8.493-1.67-13.22-2.375 1.467 1.005 2.367 2 2.937 3.25-5.108-.435-9.715-.356-15.312.187 1.63.625 2.428 1.148 3.406 2.344-4.482.842-8.448 2.43-12.686 4.25 2.744.272 4.096.618 5.78 2.03-5.95 2.365-10.694 4.41-16.155 7.345 6.193-.41 12.398-.18 18.592.718-1.657.652-3.31 1.888-4.968 3.437 4.102-.38 7.128-.683 11.312-.656-1.304 1.44-1.867 2.295-2.437 4.06 3.748-1.82 6.112-2.073 9.78-1.53.054 3.315.037 4.843.906 7.75l25.125-3.812-9.28 9.406 11.437 11.156c2.704 4.055 2.72 8.458 2.844 13.25 4.578-4.3 8.153-8.583 11.532-13.437 1.536.49 2.513 1.154 3.22 2.843 1.29-2.734 1.937-5.36 1.937-8.187 1.81.828 2.792 1.943 3.5 4.155 1.074-4.67 1.43-8.258 1.03-12.375 1.966.676 3.644 1.828 4.78 4.53.34-6.327-.525-12.195-2.03-18.155 1.628-.983 2.883-1.324 5.156-.187-2.61-3.195-5.12-4.995-8.375-6.532-2.654-1.12-5.26-1.74-7.936-2.093 2.424-13.033 9.842-8.926 25.03-1.97l-.28-3.843c-5.854-4.343-11.196-5.956-16.157-5.844-7.19.164-13.55 3.914-19.437 8.032l-3-1.25-4.406-.157-.72-3.655c-4.51-2.663-8.694-4.34-13.53-5.78z" fill="#034e0c"/><path d="M94.63 150.582l-8.458-8.507c-7.814-1.785-13.956-.443-22.85 3.652-3.51 4.216-5.636 7.418-8.026 12.123l-.073 3.783c-2.093 4.74-3.61 8.78-4.374 12.95l1.664-.352c.952 5.21 1.29 7.506 2.66 12.628 1.077-.614 1.293-.4 2.3.017-.987 1.295-.846 3.31-.344 7.986 4.218-.84 9.022-.364 11.766-4.08-.762 1.367-.76 2.47-.52 3.73 4.068-2.254 5.122-3.097 9.23-4.386.202.73 1.012-.603 1.53.163 5.566-1.376 9.544-4.008 15.21-7.33 1.228-4.61 2.605-8.023 5.42-11.43.76-3.204.98-5.575.517-9.238-.31-4.156-1.18-7.578-2.506-11.21z" fill="#f7bc08"/><g stroke="#034e0c" fill="none"><path d="M54.465 174.585l6.02-2.433-.385 9.477 7.172-3.075-.64 9.477 10.245-4.354-.128 4.738M56.514 164.21l6.02-2.944 1.792 5.507 5.507-2.05M71.242 169.206l.256 1.793 7.812-3.587M81.616 174.585l.128 1.153 6.787-3.458.77 2.817M62.15 154.35l6.66-2.305 1.28 6.916 5.25-1.024M78.286 159.09l1.153 5.506 4.865-.897M89.172 166.26l4.866-2.05 1.92 5.636M71.498 147.434l7.812-.256.257 5.89 6.915-1.28.897 6.276h4.865l4.867 4.61"/></g><path d="M119.142 318.688l3.208-271.105c-8.366-21.232-.087-23.338 3.812-47.49 4.167 23.698 12.277 27.393 2.428 47.44l.463 274.562c-3.613-.62-6.814-1.86-9.91-3.407z" fill="#f7bc08"/><g style="line-height:125%;-inkscape-font-specification:Cantarell" font-size="90.727" letter-spacing="0" word-spacing="0" fill="#f7bc08" font-family="ClarendonTExtBol"><path d="M222.757 197.493l2.423 29.25-11.478.95c-.626-5.764-2.14-10.176-4.542-13.237-3.31-4.17-8.018-6.003-14.125-5.498-6.475.537-11.063 3.955-13.764 10.254-2.144 4.956-2.893 11.334-2.247 19.134.69 8.315 2.42 14.69 5.197 19.128 3.927 6.268 9.184 9.13 15.77 8.584 7.247-.6 11.952-4.4 14.113-11.394.79-2.547 1.09-6.276.907-11.188l11.478-.95c.467 5.628.002 10.52-1.395 14.673-2.05 6.095-5.494 10.807-10.33 14.135-4.803 3.287-11.104 5.254-18.904 5.9-5.152.427-9.666.264-13.544-.49-3.84-.755-7.498-2.193-10.97-4.313-4.64-2.8-8.253-6.39-10.84-10.77-3.53-5.968-5.603-12.65-6.216-20.044-1.168-14.09 2.46-25.078 10.882-32.963 6.327-5.896 14.402-9.25 24.225-10.064 6.18-.512 11.083.082 14.706 1.782 1.735.82 3.745 2.283 6.03 4.39l1.145-6.318 11.48-.95M314.74 189.87l2.425 29.25-11.48.95c-.625-5.764-2.14-10.176-4.54-13.237-3.31-4.17-8.018-6.003-14.125-5.497-6.476.536-11.063 3.954-13.764 10.253-2.145 4.955-2.895 11.334-2.25 19.133.69 8.315 2.423 14.69 5.198 19.128 3.928 6.27 9.184 9.13 15.77 8.585 7.248-.6 11.952-4.398 14.114-11.394.79-2.546 1.09-6.275.906-11.187l11.48-.95c.465 5.628 0 10.52-1.397 14.673-2.05 6.097-5.494 10.81-10.33 14.136-4.803 3.287-11.104 5.254-18.903 5.9-5.15.427-9.665.264-13.543-.49-3.84-.755-7.497-2.193-10.97-4.312-4.64-2.802-8.253-6.392-10.838-10.77-3.532-5.97-5.605-12.65-6.218-20.045-1.167-14.09 2.46-25.078 10.882-32.963 6.328-5.895 14.403-9.25 24.226-10.064 6.18-.512 11.083.082 14.706 1.782 1.734.82 3.745 2.282 6.03 4.39l1.144-6.318 11.48-.952M373.007 185.042l33.014 49.717-2.588-31.236c-.408-4.04-.71-6.553-.902-7.538-.334-1.342-1.01-2.138-2.032-2.387-.723-.238-1.988-.3-3.793-.187l-6.954.576-.85-10.265 37.803-3.133.85 10.265-6.346.525c-2.68.297-4.28.892-4.797 1.787-.387.698-.568 1.86-.544 3.49.042.515.165 2.45.37 5.803l4.513 54.47-24.393 2.02-34.517-52.427 2.817 33.995c.412 4.08.715 6.61.907 7.594.33 1.306 1.008 2.102 2.032 2.387.723.238 1.986.28 3.79.132l7.008-.58.855 10.32-37.86 3.136-.854-10.32 6.347-.526c2.682-.258 4.283-.836 4.8-1.73.385-.737.566-1.9.546-3.49-.044-.516-.168-2.47-.375-5.86l-2.78-33.553c-.41-4.042-.71-6.555-.903-7.54-.334-1.342-1.01-2.138-2.032-2.387-.723-.236-1.988-.298-3.794-.185l-6.346.526-.85-10.265 37.857-3.138" style="-inkscape-font-specification:ClarendonTExtBol"/></g><g style="line-height:125%;-inkscape-font-specification:Cantarell" font-size="90.727" letter-spacing="0" word-spacing="0" fill="#e12101" font-family="ClarendonTExtBol"><path style="-inkscape-font-specification:ClarendonTExtBol" d="M217.27 194.52l2.424 29.248-11.48.95c-.625-5.763-2.14-10.175-4.54-13.236-3.31-4.17-8.018-6.003-14.126-5.497-6.475.536-11.063 3.954-13.764 10.253-2.145 4.956-2.894 11.335-2.248 19.134.69 8.315 2.42 14.69 5.197 19.128 3.927 6.27 9.184 9.13 15.77 8.584 7.247-.6 11.952-4.398 14.113-11.394.79-2.547 1.092-6.276.907-11.188l11.48-.95c.465 5.628 0 10.52-1.397 14.673-2.05 6.097-5.494 10.81-10.33 14.136-4.803 3.288-11.104 5.255-18.904 5.902-5.15.426-9.665.263-13.543-.49-3.842-.756-7.5-2.194-10.97-4.314-4.64-2.8-8.254-6.39-10.84-10.77-3.532-5.968-5.604-12.65-6.217-20.044-1.168-14.09 2.46-25.078 10.882-32.963 6.327-5.894 14.402-9.25 24.225-10.063 6.18-.512 11.083.082 14.706 1.782 1.735.818 3.746 2.28 6.032 4.39l1.143-6.32 11.48-.95M309.254 186.897l2.424 29.248-11.48.95c-.625-5.762-2.138-10.175-4.54-13.236-3.31-4.172-8.018-6.004-14.125-5.498-6.475.537-11.063 3.954-13.764 10.253-2.146 4.957-2.896 11.335-2.25 19.134.69 8.314 2.422 14.69 5.197 19.128 3.928 6.268 9.184 9.13 15.77 8.583 7.248-.6 11.952-4.397 14.114-11.392.79-2.548 1.092-6.277.907-11.188l11.48-.952c.465 5.63 0 10.52-1.397 14.674-2.05 6.097-5.494 10.81-10.33 14.136-4.803 3.288-11.104 5.254-18.903 5.9-5.15.428-9.665.265-13.543-.488-3.84-.756-7.498-2.194-10.97-4.314-4.64-2.8-8.254-6.392-10.84-10.77-3.53-5.968-5.604-12.65-6.217-20.045-1.167-14.09 2.46-25.077 10.882-32.96 6.327-5.897 14.402-9.252 24.225-10.066 6.18-.512 11.083.082 14.706 1.782 1.736.82 3.746 2.283 6.032 4.39l1.144-6.318 11.478-.95M367.52 182.068l33.014 49.718-2.588-31.236c-.41-4.04-.71-6.553-.903-7.537-.333-1.343-1.01-2.14-2.03-2.388-.725-.236-1.99-.298-3.795-.186l-6.954.576-.85-10.265 37.802-3.132.85 10.265-6.346.526c-2.68.295-4.278.89-4.797 1.785-.387.7-.568 1.863-.544 3.49.042.516.164 2.45.368 5.804l4.514 54.468-24.392 2.02-34.517-52.425 2.818 33.994c.412 4.078.715 6.61.908 7.593.33 1.306 1.007 2.102 2.03 2.388.724.236 1.988.28 3.79.13l7.01-.58.854 10.32-37.857 3.136-.856-10.32 6.346-.525c2.682-.26 4.283-.838 4.8-1.733.385-.735.566-1.9.546-3.49-.043-.515-.167-2.468-.374-5.86l-2.78-33.552c-.41-4.04-.71-6.553-.903-7.538-.334-1.343-1.01-2.138-2.032-2.387-.723-.237-1.988-.3-3.794-.186l-6.347.526-.85-10.265 37.857-3.137"/></g></svg>