<svg xmlns="http://www.w3.org/2000/svg" xmlns:xlink="http://www.w3.org/1999/xlink" width="439.959" height="122.276"><defs><radialGradient id="a" spreadMethod="pad" gradientTransform="matrix(2.1 0 0 -2.3 260.2 724.3)" gradientUnits="userSpaceOnUse" r="1" cy="0" cx="0" fy="0" fx="0"><stop offset="0" stop-color="#fff"/><stop offset=".896" stop-color="#12b5ea"/><stop offset=".896" stop-color="#12b5ea"/><stop offset="1" stop-color="#12b5ea"/></radialGradient><radialGradient id="b" spreadMethod="pad" gradientTransform="matrix(6.5 0 0 -7.1 198.6 716.6)" gradientUnits="userSpaceOnUse" r="1" cy="0" cx="0" fy="0" fx="0"><stop offset="0" stop-color="#fff"/><stop offset=".896" stop-color="#12b5ea"/><stop offset=".896" stop-color="#12b5ea"/><stop offset="1" stop-color="#12b5ea"/></radialGradient><radialGradient xlink:href="#a" id="c" gradientUnits="userSpaceOnUse" gradientTransform="matrix(8 0 0 8.8 443.4 475.9)" spreadMethod="pad" cx="0" cy="0" fx="0" fy="0" r="1"/><radialGradient xlink:href="#b" id="d" gradientUnits="userSpaceOnUse" gradientTransform="matrix(25.1 0 0 27.5 204.1 505.6)" spreadMethod="pad" cx="0" cy="0" fx="0" fy="0" r="1"/></defs><path d="M445.813 471.224c-4.593 0-8.33 4.096-8.33 9.156 0 5.05 3.737 9.155 8.33 9.155 4.605 0 8.324-4.104 8.324-9.155 0-5.06-3.72-9.156-8.324-9.156z" fill="url(#c)" transform="translate(-130 -471.2)"/><path d="M185.5 519.737c0 15.77 11.643 28.562 26 28.562 14.348 0 25.99-12.794 25.99-28.563 0-15.777-11.642-28.558-25.99-28.558-14.357 0-26 12.78-26 28.557" fill="url(#d)" transform="translate(-130 -471.2)"/><path d="M48.39 67.55l.882.89c-.602 1.302-1.134 2.628-1.608 3.988-2.752 1.58-5.394 2.708-7.943 3.373-2.537.653-5.478.992-8.79.992-6.205 0-11.45-1.197-15.737-3.595C10.9 70.797 7.6 67.43 5.3 63.074c-2.317-4.356-3.467-9.35-3.467-14.98 0-8.1 2.615-14.74 7.838-19.916 5.227-5.18 12.428-7.764 21.626-7.764 3.058 0 6.078.3 9.07.898 3 .59 5.976 1.504 8.94 2.716l.254.587c-.43 1.406-.734 2.75-.905 4.045-.296 2.254-.537 5.056-.715 8.4h-3.028c-.136-4.122-.276-6.383-.412-6.79-.16-.405-.796-1.097-1.954-2.072-1.154-.98-2.713-1.776-4.694-2.394-1.97-.61-4.14-.917-6.525-.917-5.666 0-10.17 1.927-13.508 5.794-3.335 3.867-4.998 9.25-4.998 16.143 0 7.473 1.997 13.52 6.02 18.136 3.7 4.277 8.797 6.418 15.27 6.418 2.508 0 4.843-.28 7.03-.843 2.19-.575 4.598-1.57 7.248-2.984M114.268 75.96v-3.228l2.133-.156c1.72-.108 2.814-.435 3.26-.975.436-.566.68-2.428.775-5.626.17-6.427.26-13.395.26-20.9 0-3.986-.012-8.513-.035-13.588-.035-3.085-.194-4.958-.482-5.642-.144-.327-.396-.61-.777-.816-.372-.206-2.06-.424-5.043-.66V21.14c2.844.078 5.635.11 8.366.11 3.18 0 6.23-.032 9.17-.11 1.276 3.31 2.6 6.59 3.988 9.835.977 2.32 5.267 12.152 12.895 29.48 8.087-17.795 13.737-30.906 16.966-39.315 2.873.202 5.577.307 8.15.307 3.01 0 5.93-.106 8.736-.308v3.225c-3.156.214-4.94.52-5.363.91-.396.404-.67 1.628-.79 3.664-.185 3.28-.283 9.518-.283 18.7 0 4.628.05 9.513.144 14.674.086 5.15.26 8.06.494 8.747.175.41.423.708.726.922.32.206 2.005.466 5.072.75v3.23c-3.855-.21-7.29-.308-10.302-.308-3.05 0-7.19.097-12.427.307v-3.228l2.098-.066c1.65-.09 2.68-.346 3.097-.78.412-.437.668-1.583.79-3.444.115-1.858.174-6.19.174-12.995V31.88c-3.653 8.04-8.297 18.562-13.97 31.6-2.324 5.354-4.143 9.714-5.445 13.103h-2.458c-1.768-4.47-4.13-10.135-7.096-16.966L124.872 31.88v5.315c0 14.68.055 24.792.187 30.334.073 2.268.34 3.663.82 4.188.48.52 2.257.858 5.338 1.014v3.23c-2.43-.21-4.857-.308-7.286-.308-3.622 0-6.843.097-9.664.307M186.7 24.366V21.14c4.84.203 9.104.308 12.76.308 2.325 0 5.624-.105 9.87-.307v3.226c-2.144 0-3.663.206-4.54.622-.308.132-.557.353-.736.676-.256.365-.423.97-.524 1.846-.14 1.453-.26 5.658-.362 12.586-.058 4.842-.093 9.746-.093 14.728 0 4.108.424 7.108 1.278 9.035.844 1.91 2.072 3.34 3.72 4.28 2.343 1.334 4.907 2 7.686 2 3.79 0 6.683-.693 8.676-2.072 2.005-1.388 3.358-3.3 4.045-5.72.674-2.44 1.02-7.745 1.02-15.945l-.032-14.48c-.038-3.263-.174-5.222-.446-5.874-.133-.355-.385-.643-.735-.817-.602-.366-2.374-.66-5.328-.867V21.14c3.09.203 5.95.308 8.568.308 2.242 0 5-.105 8.29-.307v3.226c-2.337 0-3.782.288-4.35.867-.58.57-.928 2.055-1.05 4.46-.286 5.845-.45 12.46-.465 19.85 0 4.725-.058 7.815-.194 9.276-.27 3.605-1.05 6.68-2.38 9.232-1.32 2.538-3.528 4.644-6.598 6.272-3.09 1.644-6.894 2.468-11.464 2.468-4.764 0-8.712-.79-11.856-2.348-3.147-1.566-5.39-3.544-6.715-5.937-1.325-2.38-1.98-5.888-1.98-10.504l.19-17.623c0-1.403-.063-4.993-.19-10.764-.056-1.803-.235-3.027-.55-3.68-.19-.37-.48-.66-.878-.867-.393-.203-1.94-.444-4.64-.704" fill="#12b6ea"/><path d="M243.835 75.96v-3.228c2.906-.124 4.597-.334 5.102-.618.33-.21.59-.552.758-1.014.26-.638.41-2.853.49-6.63.127-6.264.186-10.985.186-14.176l-.077-16.57c0-4.39-.132-6.92-.373-7.593-.16-.39-.377-.675-.696-.857-.462-.323-2.27-.622-5.39-.906v-3.225c3.723.202 6.478.307 8.254.307 1.974 0 4.228-.106 6.735-.308 5.46 7.678 11.63 16.002 18.51 24.99 4.576 5.997 8.528 10.96 11.86 14.872V45.468c0-5.883-.06-10.947-.2-15.214-.09-2.54-.283-4.092-.567-4.67-.136-.31-.404-.53-.79-.67-.364-.13-2.035-.31-4.98-.547v-3.225c2.572.202 5.125.307 7.67.307 3.482 0 6.63-.106 9.478-.308v3.225c-2.6.175-4.15.39-4.682.622-.307.127-.54.314-.735.543-.183.237-.322.544-.412.91-.155.617-.252 2.626-.287 6.007l-.144 15.625-.062 15.746c0 4.233.07 8.442.256 12.662l-.47.548c-2.93-.587-5.013-.952-6.21-1.135-6.07-7.4-13.41-16.694-22.014-27.886-4.34-5.65-7.842-10.415-10.508-14.285v15.19c0 4.142.06 9.128.19 14.953.07 4.298.226 6.777.483 7.414.096.296.263.52.535.673.435.283 2.118.552 5.04.777v3.23c-3.808-.21-6.528-.308-8.184-.308-1.35 0-4.277.097-8.765.307M304.508 75.96v-3.228c3.23-.17 5.048-.482 5.476-.894.42-.42.68-1.45.773-3.1.18-3.44.284-9.867.284-19.264 0-3.606-.05-8.83-.143-15.664-.047-4.68-.14-7.24-.29-7.706-.138-.45-.386-.785-.736-.99-.516-.292-2.31-.54-5.362-.747v-3.225c4.87.202 8.585.307 11.157.307 4.438 0 8.452-.106 12.043-.308v3.225c-3.23.206-5.04.498-5.445.843-.423.354-.684 1.166-.816 2.445-.186 2.51-.283 7.593-.283 15.237 0 10.18.035 17.28.12 21.287.066 4.005.276 6.384.622 7.145.15.342.443.618.898.805.47.198 2.09.4 4.904.602v3.23l-4.186-.133c-2.642-.13-4.997-.176-7.084-.176l-11.93.307zM379.64 67.55l.89.89c-.607 1.302-1.143 2.628-1.605 3.988-2.752 1.58-5.398 2.708-7.943 3.373-2.55.653-5.483.992-8.786.992-6.206 0-11.46-1.197-15.75-3.595-4.29-2.4-7.59-5.767-9.894-10.123-2.308-4.356-3.466-9.35-3.466-14.98 0-8.1 2.61-14.74 7.834-19.916 5.223-5.18 12.43-7.764 21.625-7.764 3.062 0 6.086.3 9.086.898 3 .59 5.977 1.504 8.935 2.716l.248.587c-.42 1.406-.726 2.75-.89 4.045-.314 2.254-.55 5.056-.72 8.4h-3.03c-.136-4.122-.287-6.383-.43-6.79-.145-.405-.79-1.097-1.94-2.072-1.17-.98-2.72-1.776-4.69-2.394-1.963-.61-4.143-.917-6.533-.917-5.662 0-10.158 1.927-13.496 5.794-3.345 3.867-5 9.25-5 16.143 0 7.473 2 13.52 6.015 18.136 3.698 4.277 8.78 6.418 15.263 6.418 2.506 0 4.85-.28 7.037-.843 2.184-.575 4.597-1.57 7.24-2.984M408.183 34.56l-7.508 20.08c2.17.133 4.597.21 7.228.21 2.75 0 5.39-.077 7.92-.21l-7.64-20.08zm-23.335 37.867c2.234-.128 3.61-.377 4.138-.75.35-.26.902-1.247 1.663-2.97 1.45-3.383 3.3-8.08 5.556-14.1l12.603-33.88h5.202l16.08 41.966c2.07 5.293 3.373 8.195 3.855 8.704.486.51 1.99.844 4.484 1.03v3.533c-3.838-.206-7.487-.304-10.907-.304-4.107 0-8 .098-11.673.304v-3.533c2.806-.128 4.434-.3 4.86-.513.44-.213.67-.602.67-1.154 0-.474-.502-2.106-1.497-4.896l-2.347-6.44c-2.95-.077-6.256-.1-9.91-.1-3.18 0-6.057.023-8.676.1l-1.555 4.334c-.408 1.177-.94 2.94-1.538 5.273-.152.533-.218 1.007-.218 1.43 0 .592.217.992.683 1.23.474.232 2.122.49 4.986.737v3.533c-2.32-.206-5.205-.304-8.636-.304-3.284 0-5.89.098-7.826.304v-3.533z" fill="#c7cacc"/><path d="M14.226 112.88l.238.292c-.164.435-.31.874-.436 1.32-.73.534-1.44.903-2.125 1.128-.676.233-1.46.338-2.344.338-1.66 0-3.082-.4-4.21-1.2-1.15-.793-2.035-1.928-2.65-3.366-.633-1.457-.928-3.128-.928-4.993 0-2.694.692-4.917 2.09-6.635 1.388-1.733 3.315-2.58 5.775-2.58.812 0 1.613.093 2.42.295.798.2 1.59.506 2.387.914l.058.19c-.093.466-.19.92-.233 1.356-.078.742-.145 1.68-.187 2.802h-.81c-.034-1.372-.076-2.126-.107-2.258-.047-.128-.218-.37-.53-.7-.302-.318-.733-.59-1.258-.784-.525-.21-1.115-.315-1.74-.315-1.532 0-2.744.645-3.634 1.92-.902 1.294-1.345 3.077-1.345 5.378 0 2.475.528 4.48 1.612 6.015 1 1.423 2.363 2.126 4.11 2.126.677 0 1.3-.078 1.886-.264.598-.19 1.247-.517 1.958-.98M18.425 108.597c0 2.312.21 3.944.645 4.93.338.76.832 1.124 1.504 1.124.583 0 1.042-.314 1.353-.96.326-.636.48-1.802.48-3.496 0-2.324-.205-3.933-.59-4.82-.326-.706-.82-1.07-1.49-1.07-.592 0-1.062.325-1.4.978-.33.645-.502 1.756-.502 3.315m-2.642.89c0-2.072.342-3.61 1.05-4.644.842-1.224 2.06-1.842 3.652-1.842 1.585 0 2.755.494 3.466 1.477.743.984 1.105 2.538 1.105 4.668 0 2.176-.416 3.862-1.267 5.04-.836 1.177-2.005 1.772-3.494 1.772-1.476 0-2.595-.56-3.37-1.66-.768-1.1-1.14-2.7-1.14-4.81M26.314 115.693v-1.096c.676-.023 1.072-.08 1.158-.167.097-.085.147-.233.182-.454.06-.428.094-1.446.094-3.047 0-3.355-.035-5.17-.1-5.45-.056-.232-.277-.357-.693-.36l-.64-.04v-.983c.788-.116 1.46-.248 2.012-.415.552-.167 1.053-.366 1.492-.618.104-.03.17-.062.205-.062.09 0 .132.116.132.334 0 .16-.004.384-.023.645-.012.13-.02.34-.02.658v.454l1.55-1.585c.33-.338.825-.505 1.497-.505.673 0 1.206.19 1.614.54.4.357.695.928.91 1.706l1.596-1.74c.315-.34.746-.506 1.314-.506.983 0 1.717.334 2.18 1.006.47.672.707 1.764.707 3.26l-.023 1.085c-.02 1.2-.03 2.273-.03 3.21 0 1.247.03 2.043.09 2.412.03.2.084.335.174.424.086.08.424.15 1.01.197v1.096c-.768-.074-1.445-.105-2.02-.105-.567 0-1.142.03-1.748.105l-.11-.25c.156-1.876.242-3.714.242-5.49 0-2.12-.12-3.446-.362-3.97-.23-.53-.645-.794-1.24-.794-.4 0-.738.135-1.037.407-.29.26-.482.575-.58.93-.07.24-.096 1.006-.096 2.28 0 2.308.018 3.89.073 4.78.012.388.074.637.167.75.097.11.51.198 1.216.26v1.096c-.816-.074-1.636-.105-2.432-.105-.987 0-1.877.03-2.67.105v-1.096c.61 0 .96-.116 1.073-.36.104-.258.16-1.346.16-3.285 0-2.203-.032-3.57-.094-4.12-.067-.53-.218-.947-.46-1.223-.236-.285-.574-.42-1.002-.42-.306 0-.597.104-.86.3-.254.197-.47.492-.65.846-.1.202-.148.517-.148.932l.012.498c.02.24.023.928.023 2.048l-.004 1.538c0 1.49.016 2.367.055 2.64.015.174.062.294.143.38.09.074.437.16 1.043.225v1.096c-.766-.074-1.597-.105-2.507-.105-.31 0-1.162.03-2.572.105M43.378 105.187v-.983c1.014-.136 1.95-.377 2.817-.746l.944-.458c.104 0 .167.105.167.307l-.035.757c-.11 1.978-.148 3.898-.148 5.74 0 1.185.04 1.982.12 2.374.097.385.26.692.486.902.237.217.552.334.937.334.462 0 .858-.175 1.193-.513.35-.33.555-.71.64-1.103.075-.404.12-1.562.12-3.47 0-1.527-.022-2.417-.06-2.665-.024-.136-.067-.237-.12-.288-.095-.078-.522-.128-1.292-.187v-.983c1.29-.202 2.22-.43 2.822-.707l1.002-.497c.1 0 .167.093.167.276l-.024.35c-.117 1.5-.183 4.223-.183 8.17 0 1.21.04 1.964.074 2.275.035.152.09.25.163.308.09.077.498.163 1.193.22v1.093c-.72-.07-1.43-.104-2.14-.104-.58 0-1.116.035-1.602.105l-.092-.24c.03-.427.07-1.115.093-2.06-.59.657-1.16 1.376-1.71 2.157-.446.276-.892.408-1.32.408-.594 0-1.1-.155-1.53-.485-.428-.32-.743-.727-.96-1.248-.203-.513-.304-1.232-.304-2.164l.023-1.41c.01-.875.015-1.586.015-2.134 0-1.527-.012-2.452-.05-2.755-.04-.203-.105-.335-.207-.425-.104-.074-.512-.124-1.2-.148M55.41 115.693v-1.096c.712-.046 1.116-.12 1.206-.225.097-.086.15-.323.175-.676.024-.886.043-2.433.043-4.66 0-1.103-.02-2.036-.042-2.836-.02-.486-.046-.777-.077-.875-.035-.054-.09-.116-.163-.143-.062-.04-.45-.063-1.14-.1v-.985c.355 0 .887-.097 1.633-.3.735-.19 1.35-.422 1.858-.67l.265-.125c.085 0 .132.105.132.303l-.012.12c-.023.245-.035.867-.035 1.87l1.442-1.695c.19-.21.377-.36.556-.443.29-.1.63-.155 1.014-.155.676 0 1.21.155 1.624.478.424.31.74.765.94 1.313.195.567.285 1.446.285 2.62 0 .52-.003 1.13-.034 1.806-.043 1.418-.055 2.645-.055 3.66 0 .583.036.983.11 1.208.047.16.113.26.218.32.085.046.44.123 1.045.19v1.095l-1.162-.074-.753-.032-1.95.105-.11-.163c.164-1.667.23-3.354.23-5.098 0-2.212-.086-3.58-.28-4.096-.25-.66-.696-.99-1.356-.99-.423 0-.784.154-1.09.45-.324.3-.514.63-.61.963-.048.13-.06.578-.06 1.324 0 3.14.012 4.94.035 5.402.012.458.06.738.144.843.12.124.547.22 1.29.267v1.096c-1.124-.074-2.06-.105-2.833-.105-.44 0-1.28.03-2.476.105M69.962 96.76c.4 0 .75.2 1.037.603.283.39.42.867.42 1.442 0 .548-.137 1.026-.42 1.426-.288.393-.638.592-1.046.592-.4 0-.75-.2-1.038-.59-.283-.4-.423-.88-.423-1.427 0-.575.14-1.053.423-1.442.288-.404.638-.602 1.046-.602m-2.608 18.933v-1.096c.71-.023 1.112-.08 1.228-.175.1-.085.183-.334.21-.73.05-.552.074-1.768.074-3.645 0-.812-.012-1.562-.023-2.254l-.04-1.53c0-.502-.034-.81-.12-.938-.07-.116-.276-.182-.618-.202l-.71-.042v-.983c1.51-.155 2.758-.524 3.737-1.095l.234.264c-.086 1.663-.148 4.08-.148 7.26 0 1.825.027 2.937.074 3.314.035.283.085.446.182.532.07.074.482.16 1.224.225v1.096c-1.142-.074-2.012-.105-2.623-.105-.338 0-1.23.03-2.68.105M80.676 107.686h-.758c-.04-1.037-.097-1.624-.16-1.79-.08-.25-.275-.464-.566-.677-.276-.188-.645-.29-1.085-.29-.676 0-1.154.265-1.468.798-.305.524-.46 1.476-.46 2.86 0 1.72.29 3.073.85 4.018.584.952 1.315 1.43 2.216 1.43.326 0 .633-.043.905-.125.273-.072.526-.19.744-.34l.167.29c-.13.413-.263.82-.38 1.248-.416.288-.847.498-1.282.638-.432.143-.87.21-1.314.21-1.372 0-2.444-.533-3.217-1.574-.766-1.046-1.155-2.534-1.155-4.47 0-.71.06-1.355.156-1.927.097-.583.24-1.072.408-1.476.167-.405.36-.736.58-.984.12-.144.66-.626 1.627-1.446.567-.486.964-.797 1.216-.91.264-.104.602-.17 1.037-.17.373 0 .738.042 1.096.128.373.07.71.186 1.06.342l.168.237c-.228 1.445-.353 2.778-.384 3.98M87.49 109.195c-1.13.338-1.865.703-2.2 1.092-.337.396-.504.93-.504 1.585 0 .545.11.968.322 1.28.218.31.498.46.82.46.51 0 1.018-.383 1.563-1.184v-3.233zm3.642 5.405v1.092l-.754-.046c-.385-.04-.785-.06-1.17-.06-.602 0-1.19.036-1.717.106l-.108-.143.11-1.793-1.99 2.03c-.355.11-.666.17-.938.17-.672 0-1.19-.276-1.55-.824-.37-.56-.548-1.364-.548-2.406 0-1.31.25-2.215.754-2.755.633-.69 2.06-1.32 4.27-1.87-.03-1.025-.15-1.763-.404-2.226-.338-.63-.878-.948-1.605-.948-.17 0-.352.03-.527.078-.18.058-.36.155-.556.276l-.416 1.418-.667-.225.02-.587-.008-.58-.012-.516c.97-.82 1.68-1.337 2.098-1.554.32-.156.747-.237 1.303-.237.746 0 1.36.16 1.83.47.47.308.81.735 1.026 1.26.217.53.333 1.29.333 2.32 0 .427-.02 1.185-.046 2.29-.043 1.126-.058 2.035-.058 2.715 0 1.096.022 1.745.07 1.99.034.14.084.24.193.326.11.075.462.16 1.068.23M98.98 107.686h-.765c-.035-1.037-.09-1.624-.155-1.79-.09-.25-.272-.464-.56-.677-.295-.188-.645-.29-1.08-.29-.673 0-1.17.265-1.477.798-.31.524-.46 1.476-.46 2.86 0 1.72.28 3.073.85 4.018.585.952 1.32 1.43 2.214 1.43.326 0 .633-.043.905-.125.276-.072.53-.19.746-.34l.163.29c-.14.413-.27.82-.38 1.248-.41.288-.843.498-1.266.638-.45.143-.88.21-1.325.21-1.38 0-2.446-.533-3.22-1.574-.768-1.046-1.153-2.534-1.153-4.47 0-.71.054-1.355.155-1.927.097-.583.237-1.072.408-1.476.17-.405.362-.736.575-.984.12-.144.67-.626 1.62-1.446.568-.486.976-.797 1.23-.91.26-.104.613-.17 1.033-.17.388 0 .742.042 1.1.128.36.07.71.186 1.06.342l.163.237c-.224 1.445-.348 2.778-.38 3.98M103.325 96.76c.404 0 .754.2 1.04.603.28.39.432.867.432 1.442 0 .548-.15 1.026-.43 1.426-.288.393-.638.592-1.054.592-.404 0-.742-.2-1.03-.59-.276-.4-.42-.88-.42-1.427 0-.575.144-1.053.42-1.442.288-.404.645-.602 1.042-.602m-2.608 18.933v-1.096c.723-.023 1.12-.08 1.236-.175.1-.085.17-.334.206-.73.053-.552.077-1.768.077-3.645 0-.812-.008-1.562-.024-2.254l-.027-1.53c0-.502-.047-.81-.128-.938-.078-.116-.288-.182-.634-.202l-.707-.042v-.983c1.52-.155 2.76-.524 3.742-1.095l.236.264c-.09 1.663-.147 4.08-.147 7.26 0 1.825.034 2.937.07 3.314.026.283.084.446.177.532.082.074.498.16 1.22.225v1.096c-1.126-.074-2.012-.105-2.626-.105-.322 0-1.22.03-2.673.105M109.972 108.597c0 2.312.218 3.944.64 4.93.335.76.83 1.124 1.5 1.124.596 0 1.035-.314 1.36-.96.312-.636.475-1.802.475-3.496 0-2.324-.19-3.933-.58-4.82-.33-.706-.822-1.07-1.506-1.07-.586 0-1.056.325-1.383.978-.338.645-.505 1.756-.505 3.315m.65-6.696h-.94L111.867 99c.525-.684.863-1.1 1.057-1.235.17-.144.362-.222.552-.222.24 0 .435.098.58.292.143.2.22.443.22.74 0 .255-.065.477-.186.67-.115.172-.504.506-1.157.97l-2.312 1.69zm-3.304 7.587c0-2.072.35-3.61 1.05-4.644.854-1.224 2.074-1.842 3.656-1.842 1.6 0 2.75.494 3.478 1.477.723.984 1.1 2.538 1.1 4.668 0 2.176-.424 3.862-1.267 5.04-.844 1.177-2.002 1.772-3.506 1.772-1.473 0-2.59-.56-3.358-1.66-.766-1.1-1.154-2.7-1.154-4.81M117.864 115.693v-1.096c.71-.046 1.115-.12 1.205-.225.096-.086.15-.323.17-.676.035-.886.046-2.433.046-4.66 0-1.103-.01-2.036-.046-2.836-.012-.486-.04-.777-.074-.875-.035-.054-.082-.116-.156-.143-.066-.04-.458-.063-1.146-.1v-.985c.35 0 .894-.097 1.628-.3.742-.19 1.36-.422 1.862-.67l.26-.125c.1 0 .136.105.136.303l-.004.12c-.03.245-.05.867-.05 1.87l1.46-1.695c.183-.21.374-.36.564-.443.272-.1.602-.155 1.003-.155.66 0 1.204.155 1.628.478.428.31.735.765.926 1.313.206.567.303 1.446.303 2.62 0 .52-.02 1.13-.04 1.806-.047 1.418-.058 2.645-.058 3.66 0 .583.035.983.1 1.208.043.16.13.26.21.32.105.046.447.123 1.065.19v1.095l-1.173-.074-.75-.032-1.96.105-.096-.163c.156-1.667.233-3.354.233-5.098 0-2.212-.092-3.58-.294-4.096-.233-.66-.696-.99-1.35-.99-.434 0-.787.154-1.098.45-.296.3-.513.63-.6.963-.045.13-.072.578-.072 1.324 0 3.14.02 4.94.038 5.402.016.458.07.738.156.843.113.124.544.22 1.282.267v1.096c-1.115-.074-2.055-.105-2.82-.105-.456 0-1.283.03-2.488.105M133.35 115.693v-.672c.326-.205.625-.458.893-.734.128-1.352.19-4.196.19-8.54 0-2.966-.015-4.936-.062-5.904-.022-.513-.084-.827-.19-.97-.12-.133-.578-.246-1.402-.33v-1.1c1.48.07 2.67.1 3.517.1l5.203-.1c.552 0 1.045.03 1.492.084l.06.152c-.13.948-.215 2.203-.277 3.773h-.758c-.035-1.262-.074-1.934-.11-2.027-.046-.082-.197-.164-.426-.237-.534-.156-1.327-.234-2.4-.234-.53 0-1.153.035-1.85.098-.084 2.69-.13 4.814-.143 6.404.673.073 1.302.105 1.897.105.87 0 1.403-.04 1.578-.122.108-.054.186-.18.225-.377.046-.158.08-.702.136-1.635h.804c-.04 1.477-.05 2.42-.05 2.876l.05 2.942h-.804c-.035-1.142-.1-1.8-.175-1.974-.035-.116-.128-.17-.253-.22-.31-.087-1.03-.133-2.145-.133-.334 0-.746.027-1.216.1-.012.448-.023.902-.023 1.376 0 2.438.04 4.33.12 5.648l1.87.046c1.057 0 2.033-.093 2.915-.264.144-.797.287-1.694.43-2.7h.798c-.163 1.554-.264 3.038-.288 4.468-.567.078-1.11.105-1.636.105-.358 0-1.027-.02-2.053-.047-.952-.038-1.806-.058-2.603-.058-1.06 0-2.157.03-3.315.105M144.383 115.693v-1.096c.676-.023 1.053-.08 1.15-.167.09-.085.152-.233.183-.454.058-.428.08-1.446.08-3.047 0-3.355-.022-5.17-.08-5.45-.062-.232-.284-.357-.7-.36l-.633-.04v-.983c.78-.116 1.45-.248 2.005-.415.556-.167 1.057-.366 1.508-.618.078-.03.144-.062.19-.062.09 0 .132.116.132.334 0 .16-.008.384-.02.645-.022.13-.022.34-.022.658v.454l1.55-1.585c.334-.338.82-.505 1.496-.505.688 0 1.217.19 1.6.54.41.357.712.928.918 1.706l1.613-1.74c.303-.34.738-.506 1.298-.506.992 0 1.72.334 2.19 1.006.46.672.698 1.764.698 3.26l-.01 1.085c-.036 1.2-.04 2.273-.04 3.21 0 1.247.027 2.043.085 2.412.035.2.097.335.18.424.096.08.423.15 1.013.197v1.096c-.773-.074-1.445-.105-2.024-.105-.568 0-1.143.03-1.75.105l-.108-.25c.156-1.876.24-3.714.24-5.49 0-2.12-.12-3.446-.36-3.97-.24-.53-.645-.794-1.256-.794-.384 0-.718.135-1.01.407-.3.26-.505.575-.594.93-.067.24-.098 1.006-.098 2.28 0 2.308.032 3.89.067 4.78.015.388.085.637.182.75.093.11.505.198 1.216.26v1.096c-.826-.074-1.638-.105-2.435-.105-.987 0-1.88.03-2.674.105v-1.096c.615 0 .965-.116 1.074-.36.11-.258.163-1.346.163-3.285 0-2.203-.05-3.57-.097-4.12-.066-.53-.218-.947-.45-1.223-.242-.285-.576-.42-1.015-.42-.315 0-.598.104-.847.3-.26.197-.478.492-.657.846-.096.202-.146.517-.146.932l.015.498c.01.24.02.928.02 2.048l-.01 1.538c0 1.49.016 2.367.06 2.64.022.174.065.294.154.38.086.074.424.16 1.026.225v1.096c-.765-.074-1.59-.105-2.502-.105-.307 0-1.162.03-2.565.105M165.507 112.853c.28.49.576.867.914 1.12.323.252.673.373 1.058.373.625 0 1.158-.38 1.55-1.147.4-.762.61-1.994.61-3.685 0-1.364-.213-2.405-.633-3.105-.393-.715-.93-1.064-1.562-1.064-.327 0-.65.112-.972.33-.317.21-.644.532-.963.97v6.207zm-3.874-7.667v-.983c1.112-.136 2.036-.353 2.77-.65l1.027-.446c.077 0 .132.094.132.307 0 .18-.012.412-.035.71l-.02 1.202 1.512-1.67c.326-.366.854-.55 1.592-.55 1.042 0 1.893.46 2.522 1.365.642.903.952 2.123.952 3.646 0 .78-.077 1.543-.233 2.28-.155.75-.35 1.334-.567 1.79-.218.442-.602.955-1.143 1.546-.94 1.057-1.496 1.65-1.69 1.8-.35.28-.77.426-1.278.426-.26 0-.552-.058-.828-.147-.292-.097-.56-.23-.84-.415l.043 3.917c.02.948.1 1.496.21 1.663.128.155.6.24 1.403.24v1.085c-.987-.07-1.838-.097-2.576-.097-1.4 0-2.386.027-2.954.097v-1.084c.665-.043 1.05-.086 1.154-.163.063-.047.113-.132.148-.245.047-.21.097-1.092.12-2.658.024-2.188.035-3.812.035-4.877l-.01-5.14c-.013-1.505-.044-2.36-.102-2.585-.03-.11-.078-.187-.152-.253-.1-.078-.505-.11-1.193-.11M173.19 115.693v-1.096c.63-.04.995-.09 1.084-.15.074-.048.132-.137.167-.25.083-.206.11-.668.122-1.387.04-1.28.04-2.445.04-3.478 0-2.017-.013-3.222-.052-3.587-.02-.218-.07-.38-.167-.474-.097-.088-.493-.147-1.193-.19v-.983c1.27-.163 2.184-.365 2.724-.602l.983-.493c.09 0 .125.085.125.248l-.012.18c-.02.547-.023 1.324-.023 2.342.326-.42.676-.956 1.064-1.597.285-.493.553-.8.755-.948.218-.152.513-.225.867-.225.206 0 .412.054.625.147-.08.858-.124 2.04-.147 3.532l-.428.202c-.132-.338-.303-.583-.47-.71-.167-.137-.385-.2-.676-.2-.373 0-.688.13-.964.4-.252.273-.44.587-.517.925-.05.264-.073 1.16-.073 2.67 0 2.206.023 3.493.062 3.858.035.24.09.416.18.5.154.126.613.223 1.42.27v1.095l-1.064-.046c-.664-.04-1.247-.06-1.737-.06-.462 0-1.01.02-1.62.06l-1.073.046zM183.723 108.102c.556.078 1.12.1 1.664.1.493 0 1.01-.022 1.546-.1l.012-.622c0-1.057-.136-1.842-.408-2.335-.284-.494-.67-.74-1.15-.74-.327 0-.615.114-.855.347-.24.237-.432.56-.544.98-.12.408-.203 1.212-.265 2.37m5.215 5.08l.28.376-.435 1.247c-.45.377-.937.665-1.457.87-.517.18-1.065.28-1.644.28-1.38 0-2.452-.547-3.25-1.647-.78-1.108-1.18-2.647-1.18-4.64 0-1.267.12-2.304.36-3.132.184-.67.483-1.224.93-1.663.424-.44.93-.87 1.477-1.275.57-.396 1.192-.598 1.86-.598 1.03 0 1.885.408 2.553 1.204.676.793 1.014 2.083 1.014 3.84 0 .22-.015.55-.046.99l-1.542.405c-.474.045-1.158.065-2.052.065h-2.04c.1 1.504.412 2.638.968 3.392.555.75 1.255 1.14 2.098 1.14.358 0 .715-.07 1.07-.22.34-.146.69-.356 1.036-.636M191.857 111.428c.024 1.13.07 1.753.113 1.877.152.365.42.672.797.94.38.268.827.408 1.337.408.62 0 1.103-.175 1.402-.528.315-.334.46-.793.46-1.372 0-.493-.11-.89-.32-1.162-.22-.294-.69-.547-1.426-.764-1.092-.315-1.807-.618-2.14-.855-.33-.248-.596-.62-.79-1.11-.186-.49-.295-1.07-.295-1.745 0-.8.15-1.508.435-2.126.28-.623.7-1.1 1.255-1.462.544-.346 1.263-.53 2.16-.53.93 0 1.796.223 2.593.642-.097.712-.152 1.82-.195 3.32h-.754c-.036-.945-.09-1.5-.156-1.664-.09-.25-.276-.463-.528-.645-.377-.228-.754-.345-1.155-.345-.527 0-.94.167-1.227.49-.295.322-.446.734-.446 1.22 0 .454.143.82.396 1.092.272.272.905.54 1.892.785.688.182 1.17.334 1.434.478.45.26.773.653 1.014 1.146.23.5.342 1.13.342 1.892 0 1.473-.416 2.596-1.248 3.377-.816.778-1.807 1.17-2.95 1.17-.376 0-.796-.058-1.258-.183-.47-.124-.96-.307-1.504-.544l-.144-.22c.066-.763.12-1.952.144-3.58h.76zM204.48 109.195c-1.103.338-1.845.703-2.187 1.092-.338.396-.505.93-.505 1.585 0 .545.1.968.323 1.28.206.31.49.46.82.46.502 0 1.015-.383 1.55-1.184v-3.233zm3.646 5.405v1.092l-.742-.046c-.393-.04-.777-.06-1.174-.06-.618 0-1.18.036-1.72.106l-.114-.143.105-1.793-1.977 2.03c-.342.11-.668.17-.933.17-.676 0-1.185-.276-1.554-.824-.36-.56-.544-1.364-.544-2.406 0-1.31.25-2.215.742-2.755.645-.69 2.07-1.32 4.267-1.87-.007-1.025-.14-1.763-.38-2.226-.353-.63-.89-.948-1.62-.948-.175 0-.35.03-.525.078-.186.058-.36.155-.556.276l-.416 1.418-.67-.225.013-.587-.004-.58-.008-.516c.98-.82 1.667-1.337 2.11-1.554.303-.156.73-.237 1.29-.237.746 0 1.368.16 1.834.47.466.308.815.735 1.02 1.26.22.53.324 1.29.324 2.32 0 .427-.012 1.185-.04 2.29-.03 1.126-.053 2.035-.053 2.715 0 1.096.032 1.745.082 1.99.012.14.09.24.183.326.1.075.458.16 1.06.23M208.733 115.693v-1.096c.634-.04.995-.09 1.088-.15.07-.048.137-.137.172-.25.082-.206.12-.668.12-1.387.044-1.28.044-2.445.044-3.478 0-2.017-.02-3.222-.055-3.587-.026-.218-.07-.38-.166-.474-.097-.088-.5-.147-1.2-.19v-.983c1.27-.163 2.183-.365 2.743-.602l.952-.493c.096 0 .143.085.143.248l-.012.18c-.022.547-.034 1.324-.034 2.342.323-.42.672-.956 1.073-1.597.294-.493.546-.8.756-.948.214-.152.505-.225.855-.225.21 0 .41.054.627.147-.078.858-.12 2.04-.132 3.532l-.436.202c-.144-.338-.3-.583-.467-.71-.17-.137-.4-.2-.664-.2-.386 0-.71.13-.977.4-.264.273-.44.587-.517.925-.05.264-.073 1.16-.073 2.67 0 2.206.023 3.493.062 3.858.02.24.09.416.18.5.15.126.613.223 1.41.27v1.095l-1.05-.046c-.676-.04-1.25-.06-1.75-.06-.465 0-.997.02-1.623.06l-1.07.046zM219.272 96.76c.4 0 .75.2 1.037.603.283.39.423.867.423 1.442 0 .548-.14 1.026-.424 1.426-.288.393-.638.592-1.05.592-.396 0-.746-.2-1.037-.59-.276-.4-.428-.88-.428-1.427 0-.575.152-1.053.428-1.442.29-.404.64-.602 1.05-.602m-2.617 18.933v-1.096c.716-.023 1.124-.08 1.232-.175.105-.085.19-.334.21-.73.055-.552.078-1.768.078-3.645 0-.812 0-1.562-.023-2.254l-.04-1.53c0-.502-.034-.81-.104-.938-.087-.116-.293-.182-.64-.202l-.714-.042v-.983c1.52-.155 2.767-.524 3.754-1.095l.226.264c-.094 1.663-.144 4.08-.144 7.26 0 1.825.023 2.937.07 3.314.04.283.085.446.182.532.07.074.494.16 1.213.225v1.096c-1.13-.074-2-.105-2.62-.105-.333 0-1.227.03-2.68.105M228.19 109.195c-1.13.338-1.857.703-2.2 1.092-.33.396-.504.93-.504 1.585 0 .545.113.968.32 1.28.228.31.504.46.823.46.5 0 1.017-.383 1.56-1.184v-3.233zm3.646 5.405v1.092l-.75-.046c-.39-.04-.785-.06-1.17-.06-.618 0-1.19.036-1.725.106l-.1-.143.1-1.793-1.977 2.03c-.362.11-.672.17-.944.17-.67 0-1.187-.276-1.552-.824-.365-.56-.552-1.364-.552-2.406 0-1.31.253-2.215.758-2.755.64-.69 2.063-1.32 4.267-1.87-.01-1.025-.143-1.763-.4-2.226-.345-.63-.882-.948-1.597-.948-.194 0-.353.03-.532.078-.182.058-.364.155-.55.276l-.428 1.418-.657-.225.02-.587-.016-.58-.005-.516c.967-.82 1.667-1.337 2.08-1.554.325-.156.757-.237 1.312-.237.74 0 1.364.16 1.834.47.472.308.81.735 1.027 1.26.214.53.323 1.29.323 2.32 0 .427-.016 1.185-.058 2.29-.012 1.126-.04 2.035-.04 2.715 0 1.096.04 1.745.082 1.99.016.14.086.24.187.326.102.075.455.16 1.066.23M232.77 98.276v-.79c.904-.158 1.608-.32 2.132-.496.517-.18 1.084-.424 1.687-.734l.24.268c-.082 3.105-.144 7.43-.144 12.98 0 1.122.03 2.25.062 3.395.008.726.023 1.15.078 1.266.054.12.124.214.22.28.106.07.483.128 1.124.15v1.097l-1.002-.046c-.618-.04-1.14-.06-1.566-.06l-2.833.106v-1.096l.702-.046c.31-.007.51-.104.6-.24.096-.144.146-.684.17-1.636.023-1.298.046-3.16.046-5.565l-.01-5.554c-.013-1.683-.036-2.642-.11-2.852-.024-.11-.074-.183-.132-.226-.11-.105-.544-.174-1.267-.202M249.72 104.108c.648-.63 1.107-1.224 1.36-1.79.252-.56.392-1.112.392-1.664 0-.346-.06-.657-.148-.937-.105-.295-.245-.513-.44-.672-.193-.17-.353-.257-.516-.257-.268 0-.532.164-.812.498-.284.318-.42.84-.42 1.535 0 .976.206 2.08.583 3.288m-1.47 2.483c-.692.627-1.05 1.513-1.05 2.67 0 1.283.343 2.41 1.027 3.394.672.987 1.45 1.472 2.293 1.472.58 0 1.2-.287 1.822-.878-.87-1-1.616-2-2.238-3-.614-.987-1.224-2.21-1.854-3.657m10.96 5.73l.302.85c-.64.86-1.232 1.718-1.76 2.585-.413.136-.778.202-1.124.202-1.127 0-2.29-.618-3.493-1.87-.634.677-1.26 1.158-1.865 1.442-.6.283-1.28.427-2.025.427-1.348 0-2.425-.506-3.218-1.512-.785-1.003-1.19-2.254-1.19-3.723 0-1.04.207-1.943.646-2.735.408-.79 1.228-1.617 2.45-2.468-.425-1.276-.63-2.387-.63-3.327 0-.54.038-.976.123-1.322.043-.185.167-.438.358-.753l.676-1.025c.513-.797.898-1.28 1.158-1.446.455-.32.94-.462 1.395-.462.377 0 .723.124 1.076.384.334.253.602.6.77 1.038.162.44.263.936.263 1.51 0 .934-.23 1.773-.688 2.523-.447.742-1.216 1.612-2.33 2.622.994 2.122 2.29 4.147 3.904 6.06.248-.514.403-.946.5-1.303.082-.37.125-.76.125-1.202 0-.637-.125-1.294-.39-1.966h-.485c-.23-.008-.637.03-1.196.11l-.1-.21c.232-.514.453-1.066.613-1.668 1.01.07 1.94.105 2.76.105 1.3 0 2.334-.064 3.166-.2l.136.13c-.18.64-.3 1.27-.34 1.895l-.108.136c-1.193-.1-2.064-.174-2.616-.19.086.354.11.677.11.968 0 1.333-.444 2.713-1.353 4.135 1.06.855 2.052 1.29 2.992 1.29.132 0 .264-.04.373-.117.327-.23.673-.54 1.01-.917M265.212 115.693v-1.096c.722-.08 1.134-.16 1.235-.248.078-.044.117-.126.152-.23.07-.218.104-.922.127-2.12.04-1.856.05-3.317.05-4.386 0-1.44-.003-3.272-.05-5.49-.015-1.66-.07-2.67-.163-3.043-.027-.112-.082-.2-.136-.264-.1-.09-.517-.178-1.216-.275v-1.1c1.313.07 2.15.102 2.522.102l4.744-.1c1.01 0 1.772.13 2.25.407.463.26.836.706 1.112 1.308.276.607.416 1.314.416 2.126 0 1.034-.23 1.955-.66 2.724-.432.785-1.19 1.492-2.263 2.087l1.97 4.193 1.543 3.21c.32.516.544.82.692.932.15.113.404.167.75.167v.99l-.567.02c-1.604.012-2.638.047-3.1.086-.537-1.2-1.376-2.95-2.48-5.246l-1.95-4.076c.054-.13.093-.287.143-.458.253.043.447.062.56.062.583 0 1.18-.326 1.74-.967.58-.65.856-1.578.856-2.763 0-1.05-.215-1.862-.67-2.425-.45-.576-1.138-.868-2.036-.868-.287 0-.668.035-1.154.098l-.082 3.823-.062 4.854c0 1.092.004 2.5.086 4.216.058 1.286.097 2 .163 2.145.02.125.105.21.198.284.132.105.564.18 1.302.225v1.096c-1.143-.074-2.145-.105-3.016-.105-.937 0-1.928.03-3.008.105M281.727 108.102c.56.078 1.127.1 1.675.1.493 0 1.006-.022 1.546-.1l.012-.622c0-1.057-.128-1.842-.412-2.335-.28-.494-.664-.74-1.146-.74-.33 0-.61.114-.863.347-.242.237-.424.56-.537.98-.124.408-.21 1.212-.276 2.37m5.223 5.08l.28.376-.436 1.247c-.447.377-.932.665-1.445.87-.518.18-1.074.28-1.653.28-1.372 0-2.456-.547-3.24-1.647-.797-1.108-1.194-2.647-1.194-4.64 0-1.267.12-2.304.354-3.132.198-.67.497-1.224.92-1.663.452-.44.94-.87 1.51-1.275.547-.396 1.172-.598 1.837-.598 1.04 0 1.9.408 2.553 1.204.695.793 1.026 2.083 1.026 3.84 0 .22-.02.55-.055.99l-1.53.405c-.483.045-1.155.065-2.06.065h-2.04c.093 1.504.41 2.638.963 3.392.553.75 1.256 1.14 2.096 1.14.37 0 .72-.07 1.068-.22.354-.146.696-.356 1.046-.636M288.776 98.276v-.79c.906-.158 1.617-.32 2.14-.496.51-.18 1.082-.424 1.676-.734l.25.268c-.098 3.105-.145 7.43-.145 12.98 0 1.122.023 2.25.047 3.395.015.726.054 1.15.093 1.266.054.12.11.214.22.28.114.07.48.128 1.124.15v1.097l-1.005-.046c-.61-.04-1.142-.06-1.566-.06l-2.834.106v-1.096l.692-.046c.315-.007.52-.104.614-.24.093-.144.147-.684.16-1.636.034-1.298.046-3.16.046-5.565l-.012-5.554c0-1.683-.035-2.642-.097-2.852-.024-.11-.07-.183-.145-.226-.11-.105-.544-.174-1.26-.202M300.352 109.195c-1.127.338-1.857.703-2.2 1.092-.33.396-.512.93-.512 1.585 0 .545.11.968.334 1.28.218.31.486.46.824.46.505 0 1.018-.383 1.554-1.184v-3.233zm3.638 5.405v1.092l-.746-.046c-.393-.04-.782-.06-1.17-.06-.614 0-1.193.036-1.722.106l-.108-.143.108-1.793-1.99 2.03c-.35.11-.664.17-.932.17-.672 0-1.193-.276-1.562-.824-.346-.56-.54-1.364-.54-2.406 0-1.31.25-2.215.746-2.755.637-.69 2.063-1.32 4.278-1.87-.023-1.025-.143-1.763-.396-2.226-.342-.63-.882-.948-1.617-.948-.164 0-.35.03-.53.078-.178.058-.364.155-.547.276l-.42 1.418-.672-.225.024-.587-.008-.58-.015-.516c.976-.82 1.683-1.337 2.11-1.554.3-.156.747-.237 1.303-.237.746 0 1.344.16 1.807.47.482.308.827.735 1.045 1.26.218.53.32 1.29.32 2.32 0 .427-.02 1.185-.04 2.29-.04 1.126-.05 2.035-.05 2.715 0 1.096.01 1.745.07 1.99.02.14.085.24.197.326.1.075.455.16 1.057.23M311.846 107.686h-.766c-.042-1.037-.09-1.624-.155-1.79-.078-.25-.272-.464-.56-.677-.28-.188-.656-.29-1.095-.29-.66 0-1.15.265-1.462.798-.307.524-.462 1.476-.462 2.86 0 1.72.284 3.073.863 4.018.57.952 1.312 1.43 2.202 1.43.334 0 .626-.043.902-.125.283-.072.528-.19.757-.34l.137.29c-.116.413-.24.82-.36 1.248-.417.288-.84.498-1.272.638-.44.143-.882.21-1.313.21-1.388 0-2.464-.533-3.222-1.574-.777-1.046-1.142-2.534-1.142-4.47 0-.71.03-1.355.14-1.927.105-.583.237-1.072.404-1.476.18-.405.37-.736.58-.984.127-.144.667-.626 1.62-1.446.567-.486.975-.797 1.227-.91.267-.104.605-.17 1.025-.17.385 0 .758.042 1.123.128.362.07.71.186 1.046.342l.143.237c-.213 1.445-.342 2.778-.36 3.98M316.187 96.76c.404 0 .754.2 1.037.603.288.39.42.867.42 1.442 0 .548-.132 1.026-.42 1.426-.283.393-.64.592-1.05.592-.4 0-.733-.2-1.025-.59-.288-.4-.444-.88-.444-1.427 0-.575.156-1.053.443-1.442.29-.404.637-.602 1.037-.602m-2.604 18.933v-1.096c.71-.023 1.108-.08 1.224-.175.113-.085.183-.334.222-.73.042-.552.065-1.768.065-3.645 0-.812-.004-1.562-.043-2.254l-.023-1.53c0-.502-.017-.81-.11-.938-.08-.116-.283-.182-.625-.202l-.712-.042v-.983c1.512-.155 2.756-.524 3.746-1.095l.23.264c-.098 1.663-.137 4.08-.137 7.26 0 1.825.023 2.937.066 3.314.022.283.084.446.154.532.097.074.51.16 1.236.225v1.096c-1.127-.074-1.99-.105-2.627-.105-.326 0-1.224.03-2.67.105M322.837 108.597c0 2.312.2 3.944.645 4.93.327.76.813 1.124 1.497 1.124.58 0 1.04-.314 1.355-.96.303-.636.474-1.802.474-3.496 0-2.324-.2-3.933-.584-4.82-.327-.706-.832-1.07-1.496-1.07-.59 0-1.053.325-1.39.978-.347.645-.503 1.756-.503 3.315m-2.65.89c0-2.072.35-3.61 1.053-4.644.843-1.224 2.056-1.842 3.653-1.842 1.586 0 2.747.494 3.462 1.477.74.984 1.1 2.538 1.1 4.668 0 2.176-.408 3.862-1.25 5.04-.848 1.177-2.014 1.772-3.514 1.772-1.48 0-2.6-.56-3.36-1.66-.762-1.1-1.143-2.7-1.143-4.81M330.734 115.693v-1.096c.71-.046 1.104-.12 1.216-.225.078-.086.136-.323.156-.676.027-.886.05-2.433.05-4.66 0-1.103-.023-2.036-.05-2.836-.012-.486-.024-.777-.078-.875-.027-.054-.078-.116-.15-.143-.07-.04-.448-.063-1.144-.1v-.985c.354 0 .89-.097 1.617-.3.75-.19 1.372-.422 1.866-.67l.264-.125c.097 0 .14.105.14.303l-.02.12c-.02.245-.023.867-.023 1.87l1.446-1.695c.18-.21.365-.36.563-.443.268-.1.61-.155 1.003-.155.663 0 1.204.155 1.627.478.424.31.72.765.933 1.313.19.567.295 1.446.295 2.62 0 .52-.008 1.13-.043 1.806-.042 1.418-.054 2.645-.054 3.66 0 .583.023.983.097 1.208.062.16.132.26.218.32.097.046.443.123 1.057.19v1.095l-1.166-.074-.75-.032-1.963.105-.1-.163c.16-1.667.234-3.354.234-5.098 0-2.212-.098-3.58-.288-4.096-.237-.66-.7-.99-1.348-.99-.42 0-.797.154-1.104.45-.295.3-.5.63-.598.963-.043.13-.06.578-.06 1.324 0 3.14.005 4.94.017 5.402.027.458.077.738.163.843.124.124.544.22 1.278.267v1.096c-1.123-.074-2.048-.105-2.82-.105-.448 0-1.275.03-2.48.105M345.276 108.102c.556.078 1.123.1 1.675.1.494 0 1.004-.022 1.544-.1l.015-.622c0-1.057-.145-1.842-.413-2.335-.287-.494-.676-.74-1.146-.74-.333 0-.613.114-.866.347-.237.237-.427.56-.536.98-.117.408-.21 1.212-.272 2.37m5.22 5.08l.267.376-.424 1.247c-.46.377-.933.665-1.446.87-.53.18-1.08.28-1.66.28-1.38 0-2.45-.547-3.233-1.647-.795-1.108-1.184-2.647-1.184-4.64 0-1.267.11-2.304.338-3.132.195-.67.513-1.224.94-1.663.428-.44.93-.87 1.485-1.275.563-.396 1.18-.598 1.864-.598 1.015 0 1.87.408 2.55 1.204.676.793 1.006 2.083 1.006 3.84 0 .22-.012.55-.047.99l-1.534.405c-.48.045-1.163.065-2.057.065h-2.036c.085 1.504.408 2.638.963 3.392.548.75 1.255 1.14 2.103 1.14.357 0 .703-.07 1.06-.22.35-.146.692-.356 1.042-.636M353.41 111.428c.04 1.13.075 1.753.13 1.877.136.365.404.672.788.94.385.268.828.408 1.337.408.626 0 1.096-.175 1.403-.528.307-.334.466-.793.466-1.372 0-.493-.116-.89-.334-1.162-.206-.294-.703-.547-1.414-.764-1.096-.315-1.807-.618-2.145-.855-.33-.248-.598-.62-.796-1.11-.187-.49-.288-1.07-.288-1.745 0-.8.14-1.508.432-2.126.29-.623.72-1.1 1.255-1.462.556-.346 1.267-.53 2.157-.53.932 0 1.795.223 2.603.642-.097.712-.155 1.82-.198 3.32h-.754c-.034-.945-.084-1.5-.158-1.664-.093-.25-.276-.463-.53-.645-.368-.228-.752-.345-1.157-.345-.528 0-.932.167-1.228.49-.287.322-.427.734-.427 1.22 0 .454.14.82.404 1.092.253.272.886.54 1.877.785.685.182 1.17.334 1.423.478.45.26.79.653 1.03 1.146.214.5.334 1.13.334 1.892 0 1.473-.42 2.596-1.247 3.377-.824.778-1.815 1.17-2.96 1.17-.374 0-.794-.058-1.253-.183-.47-.124-.963-.307-1.5-.544l-.147-.22c.08-.763.132-1.952.147-3.58h.754zM365.92 115.693v-1.096c.774-.066 1.194-.15 1.3-.248.073-.044.135-.137.182-.266.058-.22.097-1.12.136-2.693.015-1.576.035-3.115.035-4.592 0-2.767-.028-4.752-.063-5.93-.046-1.2-.108-1.86-.217-2.005-.082-.136-.354-.218-.816-.272l-.556-.05v-1.1l1.062.063c.672.023 1.205.04 1.59.04.528 0 1.41-.02 2.603-.06.637-.03 1.123-.042 1.422-.042 1.14 0 1.978.148 2.507.432.536.295.948.742 1.24 1.333.263.598.42 1.345.42 2.215 0 1.6-.42 2.946-1.252 4.018-.824 1.088-1.893 1.624-3.175 1.624-.163 0-.342-.015-.525-.046-.182-.027-.373-.074-.575-.132-.124-.3-.233-.59-.354-.87l.23-.3c.136.03.264.058.38.066.13.02.238.03.32.03.644 0 1.18-.29 1.577-.9.412-.607.618-1.438.618-2.522 0-1.217-.206-2.114-.626-2.7-.412-.6-1.037-.9-1.857-.9-.315 0-.723.075-1.166.21-.06 2.675-.09 4.932-.09 6.782 0 .63.027 2.612.073 5.97.016 1.312.06 2.078.1 2.288.032.148.095.25.184.307.128.1.668.186 1.585.252v1.096c-1.115-.074-2.063-.105-2.82-.105-.347 0-1.5.03-3.47.105M381.63 101.9h-.936l2.2-2.9c.5-.686.858-1.102 1.037-1.238.175-.144.366-.218.56-.218.24 0 .435.093.58.292.143.194.217.44.217.734 0 .257-.055.482-.18.672-.116.175-.508.506-1.157.968l-2.32 1.69zm-4.243 3.288v-.983c1.006-.136 1.943-.377 2.817-.746l.944-.46c.113 0 .16.105.16.307l-.02.758c-.105 1.978-.16 3.897-.16 5.74 0 1.185.047 1.98.133 2.374.098.383.246.69.49.9.222.218.537.334.94.334.452 0 .848-.174 1.186-.513.342-.33.556-.71.634-1.102.085-.404.116-1.562.116-3.47 0-1.527-.015-2.417-.043-2.67-.03-.132-.073-.233-.147-.284-.09-.077-.513-.128-1.275-.186v-.983c1.284-.202 2.224-.432 2.83-.708l.995-.497c.11 0 .155.093.155.276l-.015.35c-.128 1.5-.183 4.224-.183 8.172 0 1.208.024 1.962.094 2.27.015.155.08.252.132.31.105.078.517.163 1.197.222v1.092c-.73-.07-1.434-.105-2.138-.105-.58 0-1.12.035-1.608.105l-.08-.24c.036-.43.06-1.117.086-2.06-.583.656-1.158 1.375-1.702 2.156-.458.276-.897.408-1.34.408-.576 0-1.085-.156-1.516-.486-.427-.32-.754-.727-.952-1.247-.202-.513-.315-1.232-.315-2.165l.013-1.41c.027-.875.04-1.586.04-2.134 0-1.527-.013-2.452-.056-2.755-.046-.203-.108-.335-.213-.424-.105-.074-.51-.125-1.197-.148M393.202 106.724v5.973c.237.474.52.832.832 1.073.326.244.71.357 1.127.357.67 0 1.213-.37 1.637-1.103.408-.743.62-1.866.62-3.374 0-1.422-.212-2.498-.62-3.213-.447-.723-.995-1.092-1.69-1.092-.362 0-.712.113-1.02.342-.318.23-.61.575-.885 1.037m-2.048 9.233l-.458-.248c.12-2.115.194-5.018.194-8.73 0-1.686-.012-2.98-.04-3.893l-.042-3.35c0-.513-.04-.858-.112-1.018-.035-.113-.11-.19-.222-.23-.074-.043-.462-.078-1.103-.117v-.932c.346 0 .89-.104 1.64-.29.758-.19 1.325-.393 1.7-.595l.41-.206c.12 0 .183.108.183.31l-.035 1.356c-.015.474-.035 2.91-.066 7.344l1.15-1.317c.358-.416.684-.696.972-.843.287-.125.625-.198 1.05-.198 1.048 0 1.9.47 2.556 1.406.622.917.948 2.14.948 3.645 0 .735-.082 1.5-.264 2.293-.18.785-.397 1.422-.665 1.92-.25.497-.6.944-1.007 1.33-.536.46-.98.885-1.34 1.262-.436.45-.8.75-1.097.89-.303.14-.664.21-1.092.21-.423 0-.82-.082-1.18-.222-.378-.156-.79-.428-1.248-.82-.144.16-.432.497-.832 1.04M401.308 98.276v-.79c.91-.158 1.61-.32 2.14-.496.53-.18 1.08-.424 1.684-.734l.268.268c-.11 3.105-.152 7.43-.152 12.98 0 1.122.008 2.25.043 3.395 0 .726.044 1.15.098 1.266.043.12.105.214.202.28.11.07.482.128 1.11.15v1.097l-.99-.046c-.625-.04-1.134-.06-1.57-.06l-2.832.106v-1.096l.7-.046c.326-.007.512-.104.605-.24.09-.144.16-.684.168-1.636.032-1.298.032-3.16.032-5.565v-5.554c0-1.683-.032-2.642-.105-2.852-.012-.11-.066-.183-.13-.226-.127-.105-.543-.174-1.27-.202M410.43 96.76c.392 0 .742.2 1.025.603.296.39.44.867.44 1.442 0 .548-.144 1.026-.44 1.426-.283.393-.633.592-1.033.592-.42 0-.758-.2-1.038-.59-.29-.4-.427-.88-.427-1.427 0-.575.136-1.053.427-1.442.28-.404.633-.602 1.045-.602m-2.616 18.933v-1.096c.72-.023 1.13-.08 1.236-.175.105-.085.167-.334.206-.73.054-.552.074-1.768.074-3.645 0-.812-.008-1.562-.032-2.254l-.02-1.53c0-.502-.05-.81-.112-.938-.077-.116-.31-.182-.645-.202l-.706-.042v-.983c1.516-.155 2.767-.524 3.73-1.095l.253.264c-.097 1.663-.144 4.08-.144 7.26 0 1.825.024 2.937.06 3.314.038.283.1.446.18.532.087.074.495.16 1.23.225v1.096c-1.132-.074-2.006-.105-2.628-.105-.338 0-1.228.03-2.68.105M421.14 107.686h-.76c-.042-1.037-.096-1.624-.158-1.79-.086-.25-.272-.464-.58-.677-.268-.188-.637-.29-1.076-.29-.672 0-1.166.265-1.465.798-.302.524-.457 1.476-.457 2.86 0 1.72.29 3.073.858 4.018.577.952 1.3 1.43 2.205 1.43.33 0 .633-.043.9-.125.277-.072.534-.19.763-.34l.144.29c-.125.413-.26.82-.373 1.248-.417.288-.845.498-1.268.638-.447.143-.87.21-1.33.21-1.37 0-2.447-.533-3.2-1.574-.77-1.046-1.16-2.534-1.16-4.47 0-.71.044-1.355.156-1.927.1-.583.233-1.072.4-1.476.183-.405.362-.736.58-.984.132-.144.668-.626 1.628-1.446.563-.486.975-.797 1.224-.91.264-.104.606-.17 1.022-.17.384 0 .746.042 1.115.128.36.07.71.186 1.06.342l.145.237c-.222 1.445-.338 2.778-.373 3.98M427.946 109.195c-1.12.338-1.845.703-2.183 1.092-.346.396-.517.93-.517 1.585 0 .545.11.968.338 1.28.206.31.482.46.82.46.5 0 1.018-.383 1.542-1.184v-3.233zm3.646 5.405v1.092l-.743-.046c-.385-.04-.793-.06-1.178-.06-.606 0-1.185.036-1.726.106l-.097-.143.096-1.793-1.977 2.03c-.35.11-.674.17-.938.17-.676 0-1.185-.276-1.558-.824-.366-.56-.537-1.364-.537-2.406 0-1.31.23-2.215.73-2.755.65-.69 2.08-1.32 4.28-1.87-.016-1.025-.137-1.763-.393-2.226-.342-.63-.882-.948-1.61-.948-.166 0-.34.03-.527.078-.183.058-.362.155-.548.276l-.417 1.418-.664-.225.01-.587-.01-.58v-.516c.97-.82 1.673-1.337 2.093-1.554.315-.156.738-.237 1.294-.237.754 0 1.36.16 1.83.47.474.308.82.735 1.03 1.26.222.53.327 1.29.327 2.32 0 .427-.024 1.185-.04 2.29-.034 1.126-.065 2.035-.065 2.715 0 1.096.037 1.745.08 1.99.023.14.09.24.198.326.11.075.443.16 1.053.23M433.617 111.428c.03 1.13.078 1.753.125 1.877.147.365.404.672.796.94.373.268.82.408 1.337.408.63 0 1.084-.175 1.41-.528.304-.334.45-.793.45-1.372 0-.493-.11-.89-.33-1.162-.217-.294-.698-.547-1.41-.764-1.11-.315-1.814-.618-2.145-.855-.326-.248-.602-.62-.796-1.11-.19-.49-.288-1.07-.288-1.745 0-.8.136-1.508.428-2.126.303-.623.72-1.1 1.26-1.462.543-.346 1.266-.53 2.148-.53.936 0 1.807.223 2.607.642-.106.712-.164 1.82-.187 3.32h-.758c-.04-.945-.093-1.5-.16-1.664-.097-.25-.28-.463-.543-.645-.358-.228-.747-.345-1.158-.345-.52 0-.93.167-1.21.49-.294.322-.438.734-.438 1.22 0 .454.128.82.396 1.092.268.272.894.54 1.9.785.68.182 1.155.334 1.415.478.447.26.785.653 1.018 1.146.225.5.346 1.13.346 1.892 0 1.473-.423 2.596-1.243 3.377-.83.778-1.826 1.17-2.957 1.17-.385 0-.812-.058-1.27-.183-.447-.124-.956-.307-1.5-.544l-.14-.22c.08-.763.12-1.952.14-3.58h.757zM1.442 88.16h437.116V86.43H1.453l-.01 1.733z" fill="#12b6ea"/><path d="M1.442 88.16h437.116V86.43H1.453l-.01 1.733z" fill="none" stroke="#12b6ea" stroke-width="2.883"/></svg>