<svg xmlns="http://www.w3.org/2000/svg" width="400" height="203.583"><path d="M60.458 1.13c-2.624 0-4.68 2.267-4.68 4.844 0 2.872 2.15 4.995 4.68 4.995 1.6 0 2.904-.67 3.87-2.01h1.356c-1.072 1.973-2.904 3.1-5.134 3.1-3.45 0-5.99-2.645-5.99-6.106 0-1.613.63-3.098 1.824-4.273C57.487.57 58.88 0 60.47 0c2.31 0 4.234 1.16 5.31 3.234h-1.375c-.944-1.31-2.147-2.103-3.947-2.103M94.03 10.97c2.608 0 4.695-2.172 4.695-5.027 0-2.58-2.087-4.83-4.776-4.83-1.084 0-2.1.373-2.928 1.074-1.09.932-1.776 2.362-1.776 3.788 0 2.87 2.114 4.994 4.783 4.994m-4.163-9.29C90.982.57 92.364 0 93.953 0c1.64 0 3.02.57 4.162 1.697 1.183 1.16 1.78 2.613 1.78 4.258 0 1.652-.5 3.02-1.533 4.146-1.17 1.295-2.676 1.96-4.413 1.96-3.334 0-5.9-2.644-5.9-6.105 0-1.613.634-3.115 1.817-4.274M130.272.227h1.115v11.606h-1.37l-6.36-10.236.13 10.236h-1.122V.227h1.366l6.36 10.216-.118-10.216zM155.92 10.74h2.363c3.02 0 4.604-1.795 4.604-4.766 0-1.533-.574-2.856-1.562-3.72-.97-.836-1.995-.916-3.317-.916h-2.087v9.403zM158.088.228c1.705 0 2.92.295 3.93 1.143 1.328 1.11 2.096 2.792 2.096 4.636 0 2.09-.872 3.82-2.326 4.867-1.302.924-2.592.96-4.205.96h-2.788V.227h3.293zM192.275 10.97c2.6 0 4.704-2.172 4.704-5.027 0-2.58-2.104-4.83-4.784-4.83-1.076 0-2.09.373-2.928 1.074-1.087.932-1.776 2.362-1.776 3.788 0 2.87 2.123 4.994 4.783 4.994m-4.166-9.29C189.236.57 190.606 0 192.207 0c1.633 0 3.023.57 4.166 1.697 1.17 1.16 1.78 2.613 1.78 4.258 0 1.652-.51 3.02-1.533 4.146-1.182 1.295-2.676 1.96-4.424 1.96-3.33 0-5.895-2.644-5.895-6.105 0-1.613.63-3.115 1.81-4.274M221.007.227h1.69l4 10.088L230.702.227h1.678v11.606h-1.09V1.585l-4.076 10.248h-1.035l-4.08-10.248v10.248h-1.09V.227zM255.62.227h1.132V11.83h-1.13V.226zM287.702.227h1.127v11.606h-1.38l-6.36-10.236.132 10.236h-1.13V.227h1.377l6.36 10.216-.128-10.216zM312.208.227h1.143V11.83h-1.142V.226zM342.107 10.97c2.608 0 4.695-2.172 4.695-5.027 0-2.58-2.087-4.83-4.78-4.83-1.074 0-2.09.373-2.918 1.074-1.096.932-1.785 2.362-1.785 3.788 0 2.87 2.13 4.994 4.787 4.994m-4.166-9.29C339.065.57 340.44 0 342.04 0c1.632 0 3.018.57 4.16 1.697 1.172 1.16 1.78 2.613 1.78 4.258 0 1.652-.51 3.02-1.54 4.146-1.17 1.295-2.665 1.96-4.417 1.96-3.33 0-5.89-2.644-5.89-6.105 0-1.613.637-3.115 1.808-4.274"/><path d="M15.126 172.51H387.65V67.72S211.284-16.63 14.484 66.44l.64 106.07z" fill="#b6a042"/><path d="M234.33 44.05c0-1.123-1.164-2.115-3.482-2.98-2.322-.86-4.982-1.29-7.997-1.29-4.125 0-7.897.916-11.302 2.756 7.448 2.477 13.72 3.712 18.82 3.712 2.64 0 3.96-.737 3.96-2.198m-11.85 27.417c0-2.03-.794-3.708-2.403-5.034-1.613-1.323-3.64-1.992-6.09-1.992-6.06 0-11.984 2.522-17.763 7.553-5.775 5.034-8.662 10.18-8.662 15.42 0 1.526.466 3.08 1.394 4.657 1.63.306 3.142.462 4.516.462 6.66 0 13.16-2.306 19.492-6.918 6.344-4.608 9.515-9.324 9.515-14.147m12.832-27.342c0 1.904-1.74 2.856-5.214 2.856-2.732 0-9.248-1.285-19.52-3.846-4.847 2.732-7.268 6.173-7.268 10.315 0 1.998.7 3.38 2.095 4.14 2.023-.154 3.544-.23 4.572-.23 2.967 0 4.45.35 4.45 1.044 0 .446-.79.67-2.335.67-1.98 0-4.126-.284-6.44-.85-3.13.454-6.77 1.673-10.92 3.648-10.563 5.063-15.845 11.622-15.845 19.675 0 5.345 2.88 8.738 8.647 10.184-1.044-1.727-1.565-3.72-1.565-5.973 0-5.564 2.828-10.69 8.5-15.38 5.666-4.685 11.86-7.03 18.606-7.03 3.1 0 5.552.756 7.396 2.285 1.835 1.522 2.747 3.57 2.747 6.134 0 5.504-3.014 10.458-9.044 14.875-6.026 4.414-12.81 6.625-20.356 6.625-1.526 0-2.95-.084-4.274-.255 2.71 3.588 6.715 5.384 12.028 5.384 3.295 0 5.98-.494 8.062-1.485l.506-.085c.167.06.25.167.25.34 0 .397-1.038.82-3.12 1.285-2.084.446-3.984.677-5.71.677-5.88 0-10.374-2.13-13.472-6.392-4.334-.96-7.72-2.59-10.168-4.895-2.45-2.298-3.672-4.97-3.672-8.02 0-4.092 1.692-7.92 5.07-11.5 3.393-3.572 7.9-6.268 13.545-8.104 3.418-1.13 7.33-1.948 11.742-2.458-3.142-1.326-4.712-3.425-4.712-6.304 0-3.688 2.287-6.78 6.875-9.26C200.2 40.58 194.8 39.78 190.54 39.78c-8.373 0-15.498 2.087-21.384 6.273-5.89 4.19-8.83 9.256-8.83 15.186 0 2.664.768 4.942 2.33 6.838 1.553 1.89 3.42 2.84 5.595 2.84 1.5 0 2.244-.244 2.244-.73 0-.25-.263-.338-.8-.25-1.51 0-2.247-.7-2.247-2.095 0-.805.33-1.486.988-2.06.665-.56 1.46-.848 2.405-.848 1.804 0 2.713.88 2.713 2.65 0 1.166-.518 2.157-1.55 2.97-1.035.812-2.29 1.215-3.752 1.215-2.627 0-4.877-1.18-6.733-3.537-1.852-2.366-2.788-5.21-2.788-8.547 0-5.006 2.18-9.602 6.53-13.788 5.174-4.98 12.435-7.464 21.79-7.464 5.202 0 12.12 1.063 20.77 3.202 3.9-1.892 8.432-2.84 13.597-2.84 3.832 0 7.11.522 9.818 1.558 2.712 1.035 4.074 2.294 4.074 3.77M129.93 123.16h-1.092c-.733-3.574-3.53-7.497-8.105-7.497-2.174 0-4.397 1.354-4.397 4.055 0 6.535 14.557 7.404 14.557 16.34 0 3.71-2.963 7.887-9.2 7.887-3.31 0-5.444-1.478-6.76-1.478-.91 0-1.345.74-1.345 1.434h-.956l-1.31-9.235h1.004c.828 2.047 3.046 7.71 8.937 7.71 3.48 0 5.22-2.48 5.22-4.835 0-2.48-.692-3.962-7.104-7.71-4.008-2.314-6.8-4.23-6.8-8.543 0-4.97 3.97-7.408 7.894-7.408 2.62 0 4.975 1.477 6.054 1.477 1.23 0 1.442-1 1.53-1.478h.916l.955 9.28zM153.416 143.34H140.69v-.83c3.968-.178 4.1-1.178 4.1-4.4v-21.794h-2.35c-4.8 0-5.975.833-6.935 5.58h-1.047l.263-7.408h24.582l.267 7.408h-1.056c-.908-4.795-2.135-5.58-6.922-5.58h-2.354v22.272c0 2.963.522 3.788 4.178 3.923v.83zM184.406 143.34H160.87v-.83c2.79-.178 3.793-.57 3.793-3.922v-19.352c0-3.445-1.043-3.7-3.792-3.923v-.825h23.145l.128 6.23h-1.088c-.653-3.88-1.788-4.577-6.623-4.577h-5.886c-.917 0-1.438 0-1.438 1.483v9.678h6.715c3.875 0 4.305-1.047 4.795-4.14h.996v10.107h-.996c-.534-3.48-1.183-4.094-4.795-4.138l-6.715-.085v10.805c0 1.785 0 1.83 6.496 1.83 5.448 0 7.63-1.308 9.538-5.71h1.227l-1.964 7.37zM206.848 133.267c-.482-3.66-1.525-4.094-4.787-4.138l-6.324-.085v9.543c0 3.266.865 3.788 3.963 3.923v.83h-12.196v-.83c3.266-.178 3.792-.83 3.792-4.4v-18.874c0-3.445-1.06-3.7-3.792-3.923v-.825h23.136l.13 6.23h-1.086c-.657-3.88-1.792-4.577-6.623-4.577h-5.926c-1.1 0-1.398.176-1.398 1.483v9.678h6.325c3.57 0 4.354-.875 4.788-4.14h1v10.107h-1zM227.467 132.136l-5.058-11.988-5.007 11.988h10.064zm11.287 11.203h-11.116v-.83c1.613 0 3.05-.043 3.05-1.656 0-.697-.568-2.14-.823-2.744l-1.793-4.19h-11.418l-2.003 5.102c-.218.566-.35 1.18-.35 1.657 0 1.83 2.05 1.83 2.963 1.83v.83h-8.626v-.83c.697-.043 1.44-.134 2.226-.96 1-1.09 2.35-4.272 3.178-6.188l9.062-21.4h.876l10.853 24.753c1.395 3.183 2.004 3.66 3.924 3.796v.83zM270.262 115.313c-2.744.306-4.142.478-4.142 5.584v22.92h-.74l-19.178-23.88h-.084v16.994c0 4.494.912 5.446 4.095 5.58v.83h-10.24v-.83c3.322-.218 4.23-.875 4.23-5.58v-19.216c-1.793-2.178-2.49-2.4-4.23-2.4v-.826h7.452l16.687 20.965h.092v-14.556c0-5.01-1.227-5.36-4.182-5.584v-.825h10.24v.825zM271.692 142.51c3.708-.09 4.225-.83 4.225-3.922v-19.352c0-3.222-.597-3.748-4.225-3.923v-.825h12.95v.825c-3.18.13-4.276.438-4.276 3.923v19.352c0 3.4 1.043 3.83 4.277 3.923v.83h-12.95v-.83zM316.99 126.313l-7.956-18.87-7.89 18.87h15.847zm17.776 17.632H317.27v-1.3c2.545 0 4.803-.066 4.803-2.607 0-1.096-.888-3.362-1.302-4.326l-2.807-6.587h-17.986l-3.154 8.03c-.34.89-.55 1.855-.55 2.604 0 2.886 3.226 2.886 4.668 2.886v1.3h-13.588v-1.3c1.1-.067 2.27-.21 3.51-1.513 1.568-1.713 3.7-6.723 5.01-9.738L310.13 97.7h1.375l17.09 38.976c2.195 5.007 3.15 5.76 6.17 5.97v1.3zM106.487 143.945H69.43v-1.3c4.398-.277 5.975-.89 5.975-6.176v-30.465c0-5.425-1.648-5.84-5.974-6.177v-1.303h36.444l.2 9.81h-1.71c-1.035-6.106-2.82-7.205-10.43-7.205h-9.27c-1.44 0-2.26 0-2.26 2.334v15.234h10.56c6.115 0 6.8-1.653 7.557-6.524h1.574v15.923h-1.573c-.824-5.492-1.86-6.448-7.555-6.52l-10.562-.135v17.014c0 2.816 0 2.884 10.224 2.884 8.575 0 12-2.06 15.023-8.99h1.924l-3.087 11.595z" fill="#fff"/><path d="M400 163.564H0v-10.132h400v10.132z" fill="#9d7e2d"/><path d="M93.834 183.812h1.923v17.405h7.432v1.876h-9.356v-19.28zM118.845 187.878l-3.305 7.014h6.615l-3.31-7.014zm.243-4.066l9 19.28h-2.078l-3.015-6.328h-8.347l-2.987 6.33h-2.146l9.104-19.282h.47zM134.04 199.512l1.64-.984c1.152 2.123 2.49 3.18 4 3.18.648 0 1.262-.15 1.827-.447.574-.306 1.004-.708 1.303-1.218.29-.506.446-1.044.446-1.613 0-.65-.223-1.28-.657-1.905-.607-.856-1.706-1.888-3.307-3.09-1.61-1.215-2.61-2.096-3.007-2.637-.677-.908-1.016-1.892-1.016-2.95 0-.838.195-1.606.602-2.295.402-.693.96-1.235 1.696-1.633.73-.4 1.526-.598 2.37-.598.912 0 1.768.227 2.557.677.79.45 1.62 1.274 2.51 2.485l-1.574 1.186c-.728-.958-1.345-1.588-1.847-1.898-.514-.307-1.07-.454-1.67-.454-.787 0-1.425.23-1.915.705-.493.473-.732 1.055-.732 1.74 0 .422.08.832.26 1.227.17.39.492.82.954 1.286.255.243 1.08.88 2.486 1.924 1.672 1.234 2.81 2.326 3.437 3.29.62.96.932 1.93.932 2.9 0 1.393-.534 2.616-1.593 3.643-1.064 1.032-2.354 1.55-3.868 1.55-1.18 0-2.246-.315-3.198-.94-.948-.626-1.832-1.665-2.636-3.13M184.74 187.4l-1.513 1.168c-.845-1.1-1.86-1.924-3.03-2.49-1.18-.565-2.463-.852-3.88-.852-1.538 0-2.96.37-4.27 1.112-1.318.74-2.334 1.728-3.06 2.975-.712 1.246-1.082 2.648-1.082 4.2 0 2.355.812 4.315 2.425 5.888 1.61 1.578 3.65 2.363 6.102 2.363 2.704 0 4.97-1.064 6.795-3.178l1.513 1.15c-.96 1.223-2.163 2.175-3.604 2.84-1.43.67-3.04 1.008-4.82 1.008-3.37 0-6.025-1.127-7.98-3.374-1.642-1.896-2.45-4.186-2.45-6.87 0-2.825.983-5.202 2.967-7.126 1.98-1.932 4.46-2.89 7.44-2.89 1.804 0 3.433.357 4.88 1.074 1.448.71 2.643 1.71 3.567 3.003M202.838 185.19c-1.426 0-2.772.378-4.05 1.12-1.28.744-2.275 1.744-2.992 3.002-.72 1.263-1.07 2.665-1.07 4.218 0 2.29.783 4.23 2.373 5.807 1.592 1.58 3.5 2.37 5.738 2.37 1.5 0 2.887-.36 4.154-1.088 1.282-.726 2.27-1.717 2.975-2.98.725-1.262 1.08-2.664 1.08-4.202 0-1.533-.355-2.92-1.08-4.154-.705-1.238-1.71-2.23-3-2.975-1.302-.742-2.672-1.12-4.13-1.12m-.083-1.868c2.923 0 5.365.976 7.34 2.924 1.964 1.947 2.948 4.345 2.948 7.2 0 2.824-.984 5.218-2.948 7.18-1.963 1.97-4.357 2.956-7.177 2.956-2.86 0-5.273-.98-7.24-2.943-1.972-1.956-2.948-4.326-2.948-7.102 0-1.856.442-3.577 1.342-5.158.896-1.58 2.11-2.816 3.664-3.712 1.545-.904 3.226-1.346 5.018-1.346M221.863 183.812h1.924v17.405h7.432v1.876h-9.357v-19.28zM238.977 183.812h1.916v19.277h-1.916V183.81zM250.288 203.093v-19.28h.418l12.837 14.768v-14.768h1.9v19.28h-.427l-12.736-14.6v14.6h-1.992zM282.748 187.878l-3.318 7.014h6.615l-3.297-7.014zm.235-4.066l9.005 19.28h-2.075l-3.023-6.328h-8.348l-2.99 6.33h-2.144l9.1-19.282h.475zM297.934 199.512l1.633-.984c1.163 2.123 2.493 3.18 4.01 3.18.642 0 1.26-.15 1.82-.447.57-.306 1.004-.708 1.303-1.218.303-.506.45-1.044.45-1.613 0-.65-.223-1.28-.66-1.905-.606-.856-1.71-1.888-3.303-3.09-1.61-1.215-2.61-2.096-3.003-2.637-.685-.908-1.03-1.892-1.03-2.95 0-.838.206-1.606.608-2.295.398-.693.968-1.235 1.697-1.633.728-.4 1.52-.598 2.38-.598.904 0 1.76.227 2.537.677.8.45 1.63 1.274 2.517 2.485l-1.573 1.186c-.728-.958-1.35-1.588-1.85-1.898-.51-.307-1.068-.454-1.67-.454-.776 0-1.413.23-1.91.705-.495.473-.738 1.055-.738 1.74 0 .422.084.832.26 1.227.178.39.493.82.955 1.286.263.243 1.087.88 2.5 1.924 1.666 1.234 2.813 2.326 3.43 3.29.617.96.928 1.93.928 2.9 0 1.393-.534 2.616-1.593 3.643-1.06 1.032-2.354 1.55-3.875 1.55-1.175 0-2.24-.315-3.186-.94-.96-.626-1.832-1.665-2.636-3.13"/><path d="M74.127 60.474h79.23M233.445 60.474h79.23" fill="none" stroke="#fff" stroke-width="2.16263325"/></svg>