<svg xmlns="http://www.w3.org/2000/svg" width="400" height="342.692"><path d="M379.965 342.692H0V0h379.965v342.692z" fill="#fd0"/><path d="M148.863 253.06c-26.993-11.632-46.24-37.804-47.908-68.637H276.583c.15 1.473.317 2.89.317 4.418 0 24.14-16.87 43.882-38.102 45.3-7.382 8.024-16.554 14.51-26.713 18.92h55.607c17.187-19.527 27.775-45.214 27.775-73.4 0-61.162-49.65-110.794-110.804-110.794-61.246 0-110.766 49.632-110.766 110.794 0 28.186 10.467 53.873 27.822 73.4h47.143z" fill="#513628"/><path d="M180.494 251.28c35.01 0 64.014-25.258 70.054-58.55H110.356c6.077 33.292 35.093 58.55 70.138 58.55M267.608 192.733h-8.49c-1.744 10.915-5.8 21.102-11.475 29.966 10.756-4.82 18.613-16.22 19.965-29.967M111.043 262.446c19.602 17.448 45.364 28.01 73.615 28.01 28.26 0 54.022-10.562 73.586-28.01h-147.2zM287.655 136.058c.866-1.724.866-1.883 1.864-3.626.95 1.743.987 1.864 1.947 3.626h-3.812zm-109.23-5.117c.048.337.076.616.122.896-.196-.28-.354-.615-.634-.895h.513zm3.142 8.473v-.018.018zm-97.29-2.936v5.062c0 1.08-.1 1.648-.1 1.9-.69.14-1.884.224-4.26.224H62.858c-2.825 0-3.496-.476-3.533-.476-.037 0-.597-.773-.597-4.902v-5.602c0-4.79.28-5.47 4.996-5.47h17.42c1.277 0 2.023.13 2.47.195v6.187h23.367c.29.998.606 2.004 1.007 2.88H84.278zm218.617-32.137h-26.872l-22.06 40.824c-.085-4.893-.794-10.234-4.14-14.223h1.948v-6.766c0-12.238-4.287-20.403-25.194-20.403h-22.35c-17.3 0-23.172 5.52-25.157 12.687-2.033-7.82-8.26-12.686-24.412-12.686H132.28c-15.836 0-22.08 4.662-24.57 10.962-.727-1.677-1.705-3.262-3.066-4.65-4.51-4.54-11.744-6.31-25.595-6.31H60.24c-13.02 0-28.064 2.665-28.064 23.953v15.557c0 21.27 15.043 23.916 28.064 23.916h25.837c11.157 0 18.334-3.197 21.82-9.58 4.017 8.686 14.065 9.58 23.665 9.58h19.405c14.485 0 24.644-.773 28.894-9.488 4.01 8.594 14.094 9.488 23.62 9.488h19.443c8.165 0 15.127-.195 20.235-2.087l-.876 1.53h29.453s3.383-6.544 4.726-9.256h26.36c1.425 2.712 4.95 9.255 4.95 9.255h29.377l-34.253-62.3z" fill="#513628"/><path d="M36.465 127.726c0-15.332 8.612-18.874 23.143-18.874h18.92c22.91 0 25.875 4.847 25.8 19.63H88.186v-1.473c0-3.627-2.74-4.8-7.54-4.8H63.057c-8.417 0-10.094 3.97-10.094 10.475v5.592c0 7.625 1.677 10.486 9.302 10.486h17.15c7.26 0 9.432-.67 9.432-7.223h16.088v4.884c0 8.845-3.18 15.742-19.37 15.742H59.61c-14.53 0-23.143-3.588-23.143-18.884v-15.556zM110.8 144.53h16.078c.112 5.5 2.34 5.937 6.98 5.937h19.724c3.383 0 6.86-.317 6.86-4.39 0-4.53-1.855-4.8-22.575-4.8-24.205 0-26.983-2.908-26.983-15.734 0-9.48.83-16.684 21.11-16.684h22.548c18.567 0 20.272 6.198 20.272 15.313v1.706H158.67c0-3.795-.363-5.38-7.745-5.38h-17.82c-3.645 0-6.115 1.194-6.115 4.028 0 4.548 1.9 4.697 19.22 4.697 24.988-.15 30.823 1.333 30.823 16.62 0 14.017-4.83 16.33-26.19 16.33h-19.565c-14.643 0-20.478-2.742-20.478-14.066v-3.58zM183.03 144.53h16.152c.047 5.5 2.312 5.937 6.953 5.937h19.676c3.47 0 6.917-.317 6.917-4.39 0-4.53-1.9-4.8-22.584-4.8-24.252 0-27.03-2.908-27.03-15.734 0-9.48.904-16.684 21.223-16.684h22.435c18.568 0 20.274 6.263 20.274 15.313v1.706h-16.07c0-3.795-.428-5.38-7.81-5.38h-17.82c-3.692 0-6.115 1.194-6.115 4.028 0 4.548 1.937 4.697 19.21 4.697 24.997-.15 30.794 1.333 30.794 16.62 0 14.017-4.763 16.33-26.163 16.33h-19.48c-14.642 0-20.56-2.742-20.56-14.066v-3.58zM251.176 161.604h17.942l4.763-9.255h32.54l5.04 9.254h17.897l-28.885-52.26h-20.878l-28.418 52.26zm38.81-40.088l10.403 19.62h-20.554l10.15-19.62z" fill="#fff"/><path d="M392.15 342.56c-27.03-113.89 27.15-228.562 0-342.535H369.33c27.105 113.973-27.076 228.645 0 342.534h22.817z" fill="#ffc628"/><path d="M346.63 155.266c-.28-.14-.717-.205-1.192-.205h-.513v2.33h.793c.475 0 .876-.017 1.118-.213.308-.224.43-.578.43-1.035 0-.438-.197-.736-.635-.876m-3.848 6.497v-8.12h2.302c.96 0 1.51 0 1.584.094.68 0 1.23.16 1.585.383.68.298 1.118 1.006 1.118 1.864 0 .717-.157 1.193-.558 1.547-.4.28-.83.44-1.39.58.477.036.83.195 1.11.437.476.335.718.95.718 1.8v.875c0 .12.075.177.075.298l.084.243h-1.987c-.074-.26-.158-.597-.205-1.138 0-.53-.037-.848-.112-1.006-.12-.3-.316-.523-.56-.57-.195-.074-.428-.13-.754-.13l-.43-.038h-.437v2.88h-2.143zm-1.11-8.296c-1.155 1.23-1.752 2.6-1.752 4.24 0 1.707.597 3.077 1.79 4.27 1.146 1.23 2.582 1.808 4.24 1.808 1.716 0 3.058-.68 4.288-1.808 1.156-1.193 1.706-2.656 1.706-4.27 0-1.64-.55-3.01-1.706-4.24-1.23-1.24-2.572-1.873-4.287-1.873-1.658 0-3.094.634-4.278 1.873m9.442 9.423c-1.426 1.343-3.13 2.107-5.163 2.107-2.06 0-3.728-.764-5.154-2.144-1.388-1.35-2.143-3.076-2.143-5.145 0-2.144.755-3.924 2.302-5.36 1.426-1.323 3.094-1.966 4.996-1.966 2.033 0 3.738.755 5.164 2.106 1.473 1.492 2.144 3.16 2.144 5.22 0 2.07-.67 3.812-2.144 5.182" fill="#513628"/></svg>