<svg xmlns="http://www.w3.org/2000/svg" width="400" height="248.762"><path d="M252.755 32.825l-.47 5.16-1.875 4.688-2.344 4.22-2.814 3.752-3.75 3.282-4.222 2.345-5.158 1.407-4.69.468-5.158-.47-4.69-1.406-4.688-2.345-3.752-3.282-2.813-3.752-2.344-4.22-1.407-4.69-.47-5.158.47-5.158 1.406-4.69 2.345-4.22 2.814-3.75 3.752-3.284 4.69-2.344 4.688-1.408 5.16-.47 4.688.47 5.158 1.407 4.22 2.343 3.752 3.283 2.814 3.75 2.344 4.222 1.876 4.69.47 5.157z" fill="#fccc22"/><path d="M283.236 80.657h.938l.468.468.47.47h1.874l.47-.47h.468l.938-.468h1.407l1.875-.47h1.407l1.407.47h1.875l.938 1.406 1.406.47.468 1.406v1.875l-.47 1.407-.468 1.875-.937 1.876-.938.938h-.47l-.468.47-.938.938-.94 1.407-.937.937-.938.938-1.406.938-.94.938-.468-.47h-1.407l-.938.94-.47.468v.938l-.937.47-1.875.468-1.407.47-2.814.936-1.407.47h1.876l3.752-.47h1.875l1.407-.47.938-.467.938-.47h1.408v.47h.938l1.875-.47.938-.47v-.938l.94-.468.937-.47.47.47h.937l.938-.47.468-.468.47-.47 1.406-.468h.938l.938-.47v.47l.47.47h.937l2.343-.47h2.345l2.345-.47h.938l.938.47 2.345.938H317v.938l.468.938.47 1.407v.936l-.47.47-.47.468-.468.938-.47.938.47.47v.937l-.47.938-.468 1.875-1.407.938-.938.47h-.47l-.467.468-.47.47-1.406 1.406v.47H313.247l.938.468.47-.47h.937l.938.47v.47l.938.468h.938l.47-.47h1.874v.94l.938.467h1.408l.468-.468h.938l.47.468h.468v.47l.937.468 1.876.47 1.407.468.938.47.938.47.938.468.937.938v4.221l-.936 1.876-.47 1.876-1.406.47h-.938v.468l-.938.468-.938.47h-.47l-.937-.47h-.937v-.468l-.938-.47h-.938l-.938-.468-.938-.47-.47-.468h-.468l-3.282-.938-1.876-.938-1.876-.938h-1.875l-.937.47h-.938l-3.752-.47h-1.406l-.47-.47-.937-.468h-5.159v-.937l-.938-.468-.938-.47-.47-.468-.468-.47h-.938l-1.407-.468-.47.47h-.468l-.937-.47-.938-.938-.47-.938v-.938l-.937-1.407-.938-.468-.938-.47h-.938l-.47-1.406-.47-.468h-.468l-.468.938-.938.938-.47-.47v-1.876l.47-.468h-1.876l.47-.938v-.47h-.94l-.937-.468-.47-.938-.937-.938-.938-.468h-.468l-.938.937-.938 1.408-.938 1.876-.47.47-.468.468h-1.407l-1.406-.47-2.813-.937-.937-.47-.47.47h-.468l-.938-.47-2.813-1.875-1.407-.938-.938-1.406-.94-.938-.468-1.407-.47-.937.47-.938.47-1.406-.47-.47.47-.47.468-.468.938-1.407 1.407-.47.47-.937.937-.47 1.406-.937-1.406.47-2.814.47h-.938l-.47.468v.47l-.937.468-.938-.47-1.406-1.406-2.815-3.75-2.345-4.69-.47-1.407.47-.47.47-.468-.94-.47-.936-.468h.468l.938-.47.938-.468.938-.47.47.47h.937l.938-.47v-.938l.94-.47.936-.468.938-.47h1.876l.938-.467v-.47l.938-.468 1.876-.94h.937l.468.47.938-.47 1.876-.937 1.876-.938.938-.47v-.468l.468-.47 2.345-.937h.937l1.876-.47h1.407l1.406.94 1.407.468.47 1.407.937 1.407V81.124h.47l1.406-.468z" fill="#36a146"/><path d="M216.178 40.797l.938.938v.938h.47-.47v.938l-.47.94v.468-.47l.47-.937.47-.937h-.47l.938-.47h.47l-.47.47.938.47h.47v-.47l.468-.938.938-.47v.47h.937l.938-.47.938.47h.94l.468.47h-1.407l-.937-.47v-.47l-.47-.468h-.937 4.69v1.407l.47-1.407h4.688l-.938.47-1.407.468 1.406-.47.938-.468h11.254l.938 1.407-.47-1.407h4.222-.47l-.468.47-.47.468-.937.938-.47.938v.47l-.468.938-1.407.937-.937.47-.937.937-1.407.47-.47.937-.468.468-.47.47-.937.937-.937.47-1.406.468-1.407.47-.938.468-1.407.47H227.902l-.938-.47v-.468h-1.407l-.47.47v.467l-.468-.47-.47-.468v.47h.47l-.47-.94v-.937l.47.47v.468h-.94l-.937-.47h.47l-.47-.468h-.938l-.937-.47-.938-.468-.47-.938-.937-.94h-.47l-.468-.468-.47-.47v-.468h-.937l-.938.47v.468h.47v-1.408l.468-.467V43.61l-.47 1.408v1.407l-.468.937v.47-.47l-.47-.938-.468-.47-.937-.936-1.876-.938-1.408-.47-.938-.468-.47-.47-.468-.937-.938-.938h-.468 9.378zm11.724 7.972h3.282l1.407-.47 1.408-.47 2.813-1.406 1.877-1.406.47-.938h.937l1.407-.938-1.406.47-.938.468h-.938l-1.876.47H233.53l-3.284-.47h-2.814l-1.407.47-1.407.468-2.346.937-.938.47h-2.344 2.344l.938.468 2.345.938 1.875.47 1.407.47z" fill="#fccc22"/><path d="M254.162 49.238l1.407.47h.468l.468.468.938.47.938-.47h.47l.468-.47h.938l1.407-.468 1.407-.47h1.875l1.407.47h1.407l1.408 1.407 1.406.938.47 1.406v1.406l-.938 1.876-.47 1.876-.937 1.407-.47.937h-.47l-.937.47-.47.937-.937 1.406-1.407.938-.938.938-.938 1.407-.938.467h-.47l-.937-.468-.94.467-.937.47v.468l-.47.938-.937.47-2.813.937-2.814.938-1.408.938 1.876-.47 3.752-.468h1.406l1.876-.47.938-.468.938-.47h.938v.47h.938l2.344-.47.938-.468v-.938l.938-.47H268.7l.937-.468v-.47l.937-.467h.938l.938-.47h1.408l.468.47h.938l2.344-.47h2.345l.47-.47h.468l.47-.468h.938l.47.47v.468l.468.937h.47v.47h-1.408l-.938.468h-.47l.47.47H284.175l.467 1.406.47.94.937-.47h.468l.47.938v.938h.468l.938.47h.47v.937l-.47.937-.47.47v.468l-.468.938-.938 1.876-.938.938-.938.47-.468.468h-.47l-.937.47-1.407 1.405.47.47H284.64l.938.468v-.468h1.407l.47.47.468.468v.47h1.876l.47-.47h.938l.937.47v.468l.938.47.938.468v-.47l.47-.468h.938l.938.47v.468l.938.47 2.344.468.938.47.938.468.938.47.938.467.938.937V91.442l.47 1.876-.94 1.875-.468 1.876-1.407.468-.938.47h-.47l-.937.468-.938.47h-1.406l-.47-.47-.468-.47-.47-.468h-1.406l-.938-.47-.938-.468-.938-.47-2.813-.937-1.876-.937-1.876-.938h-1.405l-.47.47h-.937l-1.407.468-3.75-.47-.938-.468-.938-.47h-.47l-.937-.468h-1.407l-.47.47-.937.468H268.7l-.47-.47-1.407-.937h-1.876l-1.407-.468h-1.875l-1.407-.938-.938-.938-.47-.47v-.937l-.937-.938-.938-.47h-.937l-.47-.937-.468-.938-.47-.47h-.468l-.47-.937v-1.408h-1.875l-.47-.468h-.468l-.94-.47-2.812.47h-1.407l-1.406.47h-1.407l-1.406-.47-2.344-.937-1.407-.47-.47.47h-.47l-.937-.47-2.344-1.875-1.408-.938-1.407-1.407-.938-.938-.47-.94-.468-1.405h.468l.47-.938v-2.345l.937-.47.938-1.406.938-.47.94-.936.937-.47 1.406-.937-1.875.47-2.345.468h-.938l-.47.47-.468.47-.938.467-.938-.468-1.407-1.408-4.22-4.22-3.283-4.69-.47-1.407v-.938l2.346-.47.937-.468.938-.47h2.816v1.407l-.47.938.47.47h1.876l.468.468h.937l.937-.47.47-.937v-.47l.937-.937 1.876-.938 1.407-.47.47-.937v-.938l.936-.47.47-.468v-.47l-.47-.47.47-.468 1.875-.938 2.345-.47.47-.467v-.938l.937-.47 1.875-.47 1.407-.468h1.407l1.875-.47 1.406.94.94.468.937 1.407.47 1.406v1.876l.468.937h.47l.937-.47z" fill="#36a146"/><path d="M217.116 63.306l.938-.938h.938l.47-.47.937-.468 2.812-2.813 1.876-.938 1.407-.94 1.407-1.875.937-1.407 1.406-.937 1.876-.937.47-.938.468-.47.47-.468.468-.938 1.406-.94 1.407-1.406h2.347l.937-.47.938-.467v-.938h.47l.936-.94 2.345-1.406.938-.47 1.408-.468 2.344-1.407 1.407-.47h1.406l1.876-.47 1.876-.467h1.407l.468.468.938.47.94.47.937.937.47.938.937.938.938.47.468-.47h.47l.937.47 1.407 1.875.47.47-.47.936-.47.47.47.937.938.47.47-.47h.468l.938.47.47.938-.47.47.47.937.936.47h.47l.937.468.47.47v.468l.47.938 1.406 1.876.938.47-.47.468v.47l.47.468.938.938.47-.47.936.94.47.468h.468l.938.47.47.936.468.938.47.938v.47l-.47.468.938.938.47.47.937-.47.47-.47.937.47.468.938h-.468v.47l.468.937 1.876 1.405 1.407 1.407.938.938.47-.47.937.47.47.938v.47l-.47.468.47.938.936.937.938.47 1.876 1.407.938.47h.47l.468.468 1.876 1.876.468.47v.938l.47.937 1.406 1.407 1.876 1.407.938.468h.47l.468.938 1.875 1.407.47.47v.938l.468.468.94.47h.468l.47-.47.937.47.938.468.938.938.47.47.468.937v.47l.938.938.47.47.468.937.47.468.937.938.94.94h1.407l.936.937 1.407 1.407 1.407 1.407.938.47h.938l.47.47 1.406.467.467.938.47.938.468.47.938.937 2.814 2.345.938.937h.938l.468.47.94.468.937.938v.47l.47.937.468.47.938.468h.47l.468-.47.94.47.937.47.937.468 1.407.47.94.47.937.937-.47.468v.47l.94.468.937.938.938.94h.937l.468-.47.47-.47.937.47.938.47 1.407.468.47.938.468.47.47.468.937.47 1.406.937.47.47V126.142l-.47.47-1.874.468h-1.408l-.468-.468h-1.876l-1.407-.47h-1.406l-.937-.468-.938-.47v-.938l-.938-.468-1.876-1.406-2.343-.938-.938-.938v-.47l-.94-.468-.937-.47-.47.47-.468.47h-.938l-.938-.47v-.938l-.94-.47-2.343-.937-.938-.47h-.47l-.47-.468-.937-.468-.938-.938-.47-.47-.468-.938-.937-.938-1.407-1.407-1.407-1.407-.938-.47-.938.47h-.938l-.937-.47-.938-.936-.47-.938-.468-.938-.94-.938-.937-.47h-1.408l-1.405-.468-.47-.938-.468-.938-.47-.47-.937-.936-.938-.47-.938-.468h-.47l-.938-.938-2.813-1.876-1.408-1.407-.938-.468.47-.47v-.467l-.47-.938-.938-.47-.938-.937-.938-.47-.468.47h-.47l-.937-.47-.47-.468v-.938l-.468-.938-.938-.47-.47-.937-.938-.938v-.47l-.47-.468-.937-.47-.47.47h-.467l-.938-.47-.47-.468v-.47l.47-.937-.938-.47-.47-.938-.937-.938-.938-.47-.47.47-.468.47-.94-.47-.468-.47v-.937l-.468-.937-.938-.47-.938-.937-.47-.47v-.468l-.937-.938-.937-.47-.47.47-.468.47-.938-.47-.47-.47v-.938l-.467-.47-.938-.936-.47.47-.937-.94-.47-.468v-.938l-.468-.938-.47-.47v-.938l-.468-.468-.94-.47h-.468l-.938-.468-.468-.937v-.47l-.47-.938-.937-.47-.47.47-.47.47-.937-.47-.47-.938v-.938l-.468-.938-1.407-.938-.938-.938-.937-.937v-.938l-.47-.938-.937-1.408-1.407-1.407-1.408-1.407-3.282-2.813-1.407-1.407-.47-.47-.937.94-.938.468v1.408l-.938.468-1.406.937-.938.468-1.407.938-1.408.938-.47.47-.468.468v.47l-.938.937-.938.468h-.938l-.937.47-.47.937-.468.468v.47l-.938.468-.938.47h-.94l-.937.47-.937.937v.47l-.47.468-.468.47-.938.468h-1.408l-.937.47-.47.937v1.875l-.468.938-.938.47h-.938l-.938.468-.938.47-1.407-.47-3.752-2.344-3.283-2.344-.47-.938v-.938z" fill="#221e1f"/><path d="M235.873 62.368h.47-1.407.937zm-44.08-9.38l1.876-.936.937-.938.47-1.407 1.875-.938 1.876-.94v-.468l1.875-.938 1.407-.47v.47l1.407.938 1.876.47v.468l-.47 1.407v.938l.47 1.407 1.407 1.406v-.47 3.284l.468.938h.938v.47l-.938 1.406-1.406 1.875h-.47.47l.938 1.877 1.406 2.345.938.938v1.406l-.938 1.876-.938 1.407-.468.468h-1.408l-.468-.938.47-.47.468-.468.938-.47h1.876l.468.94.47.468.468.47 1.407-.47h.937l.938-.47v-1.875h.937l.938-.47h1.876l.47.47h3.751l.47.47h1.875l1.408-.47h.47l.468-.938v-.937l.47-.47 1.406-.468h.937l.937.47.47 1.405.468.938.47.47h.937l1.876-.47.47-.938v-.468l1.874-.47h1.407l1.406.937 1.407 1.407 1.407 1.876 1.875 4.22 1.876 3.752 1.877 3.282V83l-.938 2.346-.94 1.407h-.938l-.937-.47h-.47l-.937.94-1.406 1.874v.938H245.252l1.407-.47.937-.468.938-1.406.937-1.406.47-.938h3.282l1.407.47.94.468h2.343l.938.47 1.408.468 3.75 2.813 4.222 4.22 4.69 4.69 4.22 4.69 3.282 3.75 1.876 3.283.47.938-.47.47h-2.345l-1.876.468-1.875.47-1.876 1.406-1.876 1.875-.47 1.407-.937 1.407-1.875.937-2.345.938-.938.47-1.407.937-1.875.937H260.258l-.938-1.407-1.407-1.407h-.47l-1.405.47-1.407.937v.938l-1.875.47h-1.407l-.47-.938-.468-.47H247.597l-.47.94-.468 1.405v1.876l-.47.47-1.407.468h-1.876l-.47-.468h-3.281l-.47-.47h-.468l-1.407-.468-1.874.47-.47-.47-.468-.47h-1.407l-1.875.47-.47.47v.468l-1.875.47h-.937l-.938-.47v-.47l-.47-.937h-1.875l-1.876.47-.47.468-.936.938-1.876.47-1.876.47-1.407.468-.94.938-1.874.468-2.814.47-2.814-.938-1.406-.47v-.937l.47-.94v-.937l-.47-1.407-1.407-1.875-.47-.468-.937.47-1.876.467-1.406.468-.47.47v.468l-.468.938-.47.47-.937.468-1.875.47v.937l-.47.468-1.406.938h-1.877l-.468-1.407-.47-.94-.937-.468-.938.47-4.22.468-1.876.47v.468l-.47.47-1.406.468-1.407.468-.468.47v.937l-.468.94-.47.468-.937.47h-1.877l-.468-.94-.47-.937h-1.875l-2.344.94h-4.691l-.468-.47h-1.875l-1.877.47-.47.468-.937.47h-1.876l-1.875.468-.47.47-.468.468-1.876.47h-2.812l-2.345.468-2.345.47-.47-.47-.937-.938-1.874-.47-2.345-.468-.937.47-.47-.47-.468-2.345-.47-2.343.47-.938-.47.468-1.874.47h-1.875l-.938.468-.938.468-2.346.47h-3.283l-.938-.47-2.345-.468-.938-.47-.938-.937-.938-1.408-.938-1.407-.938-.47-1.407-.468h-1.406l-.47.47-1.406.937-.468.938-.47.47h-.937l-.938-.94-1.407-.937v-.938l.938-.938v-.938l-.47-1.407-.468-1.407-.47-.47H107.855l.47-1.875.468-2.344v-.47l1.876-1.407 1.876-.938h3.751l1.876-.938 1.408.47.938.468 1.876-.47 1.406-.937.47-.47.937-1.874.47-1.876.937-.47.938-.937h1.877l.467.47v.47-3.753l.47-.468h1.406l1.407.936.938-.47 1.407-.467.47-.94.468-.937V97.07l.468-.94 1.407-.468 1.876-.47.47.94.938.468 1.876-.47 1.875-.937v-.937l.468-.938 1.876-.938 1.407-.47.47.47.938.938.937 1.407.938.468.938-.468 1.408-.47.938-.937.47-.938.468-.938-.47-.47-.468-.937-.938-.47-1.407-.468h-1.876l-1.405-.938-1.408-.47h-.47l-.937.938-.47.47h-.468l-.938-1.876-.47-1.407.47-.47h.468l.47.47.468-.47.938-.468.47-1.407V81.125l-.47-.468h-.47l1.408-.938 1.876-.94h.468l.938.47.938.47.938-.47 2.345-.938.47-.47-.47-4.22-.47-2.813-.468-.94v-1.406l1.407-1.407 1.406-1.406h.938l.938.47h.47l1.406-.47 2.814-.937-.47-.938-.937-2.345-.94-1.875-.937-.938.47-.47 1.406-1.406 1.406-2.344h.468l1.876-.938.938-.937.47-.468-.47-.47-.47-.468 1.408-.938 1.407-.47.47.94v.468l1.405-.47 1.876-1.406.47-.47.468-.468 1.407-1.407.937-.47.47-.468.468-.468-.47-.47v.938l-.468.938.47 1.407.468 1.407v-.47l.47-1.406.936-.468 1.408-.47 1.407-.937h.47l2.344.47 1.874.468h.938l.47.938 1.406 1.877.47 1.407v.938l-.47 1.406v.47h.47l1.406-.94z" fill="#bfd633"/><path d="M50.645 99.414l1.407-1.407 1.875-.938 1.407-1.408 1.407-1.406 1.408-.47h.938l1.406-.937.938-1.408.47-.938v-.47l1.406-.937h1.407l.47.47.468.937.47 1.407.937 1.877.47.47.937-.47.938-1.407 3.283-2.814 1.406-.938v-.937l1.408-.937 2.345-1.876.938-1.407.47-.47.938-.937.937-.47h.938l.938-.936.94-.938v-.47h.468l.938-1.407.938-.938v-.47l.938-.937.937-.47h.468l.47.47h1.407l.468-.47.938-.937.47-.467v-.47l.938-.937.938-.938 1.875-.47.94-.937 1.406.47 1.407.47-.47.468.47.938.938 1.407h.938v1.406l-.468 1.406-.47.47.47-.94.937-.937 3.283-3.283 1.407-.47.47-.468h.937l1.406-.94.938-.937.47-.47v-.937l1.406-.937.938-.94.47-.468 1.875-.938 1.875-.938 1.407 1.407 1.406.47h.47l.468 1.406.938 1.874-.47 2.345-.937 1.875-1.876 1.406-.94 1.408h-1.875l-.937.938-.938 1.876v.938l.47.47.468-.47 1.875-.47.938-1.406v-.938l.47-.938.938-1.407.938-.936.47-.47.468-.937.938-.938 1.406-.94.47-.468h.937l1.407-.938.938-.938H130.363l.938-.937v.467l.94.938h1.875l.47-.938.937.938.938 1.876-.47 1.877-.468 1.407h-.47l-.468.47-.938 1.405-.938.937v1.408l-.938 1.406-.938 1.877-1.406 1.406-2.345 2.814-1.406.938h-.938l-1.407.47-.938.937v.937l-.47.468-.937.938-.938.938-.47.47v.468l-.937.938-1.876.938-1.406.938-.938.937-.47-.468.47.468.938 1.407v1.407l-.47.47-.937.468-1.406.938-1.407 1.407-1.876.47-.936.936-.47.47v.468l-1.406.47-1.407.937h-.468l-1.407-.937-.47-.938v.47h-2.343.47l-.94.937-.937.938-.938-.47h-.47l-1.406.94-1.874.937-1.876.938-1.876 1.875-1.876 1.407-2.344 1.407-1.876.938-1.407.938-.468.47-.938.937-.937.937-1.876.938-2.344.47H75.03v-.47l-1.407-.938-.938-.47v-1.405l-.47-1.408-.468-.47h-.47l.47-1.406.938-1.876.938-.47-1.407.47H70.81v-.47l-1.408-.468h-1.407l-.47.47h-.468l-.468-1.407-.47-2.814h-.47l-1.406.94-1.407.468-.47.47-.937.468-1.407.938v1.407l-.937.938-3.283 1.407-1.407.47-.47-.47-.468-.938-1.406-.47h-3.284l-.468-1.875-.47-1.406.47-.47v-.468l-.47-1.407-.937-1.406-.47-.47.47-.468.47-1.406.468-.938.94-.47h.468l1.407-.468z" fill="#36a146"/><path d="M30.012 108.792l.938-.468h1.407l.937-.47.938-.468h1.408l.937-.47.938-.937v-.47l.47-.938.468-.938.937-.47h1.408l.937-.468.47-.937.468-.47.47-.938.468-.47.94-.468h.937l.937.47.938-.47.47-.938.468-.47v-.937l.938-.47.938-.47h.938l.938-.468.47-.47h.467v-.467l.468-.47.938-.468.47.47h1.406l.47-.94v-.938l.468-.938.938-.47v.47h.47l.937-.47.468-.468v-.938l.938-.47.47-.468h1.408l.937-.937v-.468l.938-.47 1.876-.937 1.874-1.407.47-.47h.938l.468-.468.938-.47-.47-.468v-.47l.94-.937.468-.468.47.468.468.47.937-.47.47-.937v-.47l-.47-.937.94-.468.468-.47h.938l.47-.468 1.875-1.407h1.408l.47.47.936-.47.47-.47V74.09l.468-.467 1.876-1.407 1.876-.938.938-.47.47.47.467.47.937-.47.47-.47v-.937l-.47-.468.938-.938h.938l.47.47.468.468.94-.47.468-.468v-.938l.938-.47.47-.467V65.18l.467-.47h.938l.47.47.47.47h.937l.938-.47v-.47l.47-.468.937-.938v-.47l.47-.468 1.874-.938 1.876-.938.47-.47v-.467h.468l.47-.47.937-.468.47.47.468.936.937-.468.938-.47 1.407-.468.47-.938.468-.47.47-.938.937-.47 1.876-.468 1.406-.47 1.407-.468 1.877-.47.938-.468.47-.47.468-.467.937-.468h.938l.47.47.468.467h.938l.938-.47v-.468h.47l.937-.47.937.47v.47l.47.936h1.875l.468.47 1.407.468.938.47.938.468h.47l.468-.47.938.94.47.468v.47h.468l.47.937.468.937v.938l.47.937.937.47.47-.47.938-.47.47.47.937.938v1.407l.47.938 2.343 2.345 2.814 2.344.938.938h.47l.936.47.938.468.47.938.468.938v.47l.938.937v.468l-.47.94-2.344 1.875-3.282 1.407h-1.876l-2.344-2.814-.938-1.407-1.407-1.405-.47-.47-.938-.468h-.47l-.937-.938-.938-.47h-1.407l-.937-.938-.938-.47v-.937l-.47-.47-.468-.936-.938-.94v-.468l-.47-.938-.47-.938-1.406-.938h-1.406l-.938.47v.468l-.47.47-.937.468-.938-.47v-.468l-.47-.938h-1.407l-.468.47v.468h-.937l-1.407.47-1.407.468-2.815 1.407-2.813.94-2.814.467-1.407.47-1.405.468-.47.47v.468l-.468.938h-.938l-.47-.468h-.938l-.47.938v.938l-.468.47h-1.408v-.47h-.936l-.938.47-.938.937-1.407.938-.938.468v.47l-.47.47h-.938l-.47-.47-.467-.47-.938.47-.47.47v.938l-.468.468-.94.47h-1.406l-1.407 1.406-.938.47v.938l-.47.937h-.937l-.47-.47-.468-.937-.938.47-.47.468v1.407l-.468.937-1.877.938h-.938l-.468-.47H79.25l-.47.47v.938l-.468.47-.938.468v.938l-.938.47-.47.468-.468-.47-.938.47-.937.47-.938.936-1.876.938-1.877.938-.47.47h-.468l-.938.468-.468.47v.938l-.47.468-.938.47h-.47l-.937.468-.47.47h-.468v.467l-.47.47-.937.468-.47-.468h-.938l-1.874.938-.938.938-.938.47-.938.468-.938.47-1.875.937-.937.938v.47l-.938.937-.938.47v.468l-.47.47-.937.937h-1.876l-.47-.47-1.405.47-.47.47-.47.468-.468.938-.938.47-1.407.468-1.407.47-2.813 1.874-.938.47v1.875l-.94.938-.937.47-.47-.47h-.937l-.937.47-1.408.468-1.876.47-.938.47-.938-.47h-.938l.47-.47.468-.937.47.47.937-.47.47-.47.937-.937.47-.938v-1.407l.468-.468z" fill="#221e1f"/><path d="M188.042 21.57l-.47-1.406-.468.938-1.406.938-4.22 2.813-2.346 1.407h-2.344l-1.407.47h-.937l-.938-2.345-.938-1.407v-.938l.47-3.283.468-4.69.47-1.406h.468v.47l-1.407-.938-.938-1.407-.468.47-1.407 1.406-2.345.94-2.345.468-5.158.47-2.345.468-2.813-.938-1.876-.47-.468-2.813V8.91l-.47-.47.47-2.344.47-1.876h.468l.938-1.406.47-1.407v-.47h1.406L158.03 0h.47l.937.47 1.876.468.938 1.407.47 1.406v.47-.47l1.876-.467h1.406l1.876-.47 3.752-1.406 1.406-.47h.938l2.345 1.877 2.344 1.406.468.938.47 1.876.937 3.75.468 2.346h.47l1.406-1.407 1.876-.938h2.344l2.345.47 1.875 1.406 1.875.94v.468l.938 1.876 1.407.938v.47l-.47 1.874v1.407l.47.47-1.407 1.406-1.406 1.406-.47-.47-1.875-.468-1.407.47h-.47l-.468-1.877z" fill="#fff"/><path d="M186.166 22.51l-.937-1.877-.47.938-1.407 1.408-4.22 2.344-1.876 1.407h-2.345l-1.876.468h-.47l-1.405-1.876-.937-1.875v-.938l.47-2.815.937-5.158.468-1.407v.47l-1.406-.94-.938-.937v-.47l-.47.94-.937.937-2.345.938-2.813.47-5.16.468-2.344.47-2.345-.94-2.344-.468-.468-2.814V9.848l-.47-.938.47-1.876.468-1.876.47-.47.937-1.405.47-1.407v-.47.47l1.875-.47.938-.468.47-.47 1.406.94h1.406l.938 1.406.938 1.406-.47.47.47-.47 1.407-.47h1.877l1.406-.467 3.752-1.407 1.876-.47h.47l2.344 1.877 2.345 1.406.468.937.47 1.876.937 4.22.47 2.345.467-.47 1.407-.937 2.344-1.406 1.876.47h2.344l1.876 1.406 1.876 1.407.47.47.937 1.406.937.938.47.47h-.47v1.875l-.468 1.876h.468l-1.406 1.408-1.407 1.407-.47-.47H186.637v.47-.47l-.47-1.406z" fill="#d53929"/><path d="M15.944 179.132l2.344-7.034H16.882l-1.407-.468-2.345-.47-2.813-.468H8.44l-1.875.47-1.876.936-1.407 1.407-1.407 1.407-.938 1.876L0 179.132V184.29l.938 2.345.938 1.876 1.407 1.408 1.406 1.407 1.875.938 1.876.47h4.69l2.345-.94 1.876-.937h1.408l-2.814-6.565h-.47v.94l-.468.936-1.407.47-1.877.468-1.406.47-1.876-.47-1.875-.938-1.407-1.875-.47-.937v-2.814l.47-1.408 1.407-1.875 1.876-.938h3.752l1.876.468.938.47.47.937v.47l.468.467zM23.447 175.85v8.91l.47 3.282.468 1.407.468.937.938.938 1.408.938 1.407.47h3.752l1.876-.47.938-.938 1.407-.938.47-.938.468-1.408.47-3.282v-9.848h.936v-.47h-5.626v.47h.47V187.104l-.94.938-.937.47h-2.343l-.938-.47-.938-.938V174.912h.47v-.47h-5.628v.47h.468l.47.938zM56.74 188.98h-8.91v-4.22h6.097v.47l.47.468h.468v-5.16h-.47l-.468.94H47.83v-3.283h9.38l.47.937v-5.627l-.47.938H42.673v.47h.938V191.794l-.937.468v.47H57.21l.47.467v-5.158l-.47.938h-.47zM77.843 191.325v-16.413h.938v-.47h-5.626v.47h.47l.467.938v7.972l-1.874-2.814-1.876-2.344-1.407-1.876-.47-.938.47-.938v-.47H61.9v.47h.468l.47.938v15.475l-.47.47-.47.468v.47h5.16v-.47l-.47-.47-.468-.468V180.54h.47l2.343 3.75 2.345 3.283 1.876 2.814.47 1.407v.47h-.47v.468h5.627v-.47l-.937-.468v-.47zM95.662 174.443H82.062v-.938h-.468v6.096h.47v-.936h5.158v12.66l-.47.47-.468.47v.468h5.627v-.47l-.468-.468-.47-.47v-12.66h5.16v.937h.468v-6.095h-.47v.938h-.468z"/><path d="M111.606 192.732h5.158v-.47h-.47v-.468l-.936-2.814-1.407-3.282-.937-3.752-1.407-2.814-.938-2.813v-.94l.47-.468v-.47h-6.566v.47l.47.47-.47 1.875-1.407 3.75-1.875 5.16-1.876 5.627v.47h-.47v.468h4.69v-.47h-.47v-.938l.47-.937v-.47l.47-.937h7.033l.47.938v.47l.468.937v.938h-.47v.47zm-1.407-6.566h-5.16l2.346-7.502 2.813 7.502zM135.99 180.07v-4.69h5.16l.937.47.938.47.47.468v1.876l-.47.937-.938.47h-6.098zm0 11.255v-7.034h2.814l.47.94.937 1.405.47 1.407.938 1.407.938 1.406v.938l-.47.47v.468h6.097v-.47l-.47-.468-.468-.47-3.283-6.564 1.407-.938 1.406-1.407.938-1.876.47-2.814-.47-2.814-.47-1.407-.468-.938-.938-.937-1.407-.47-2.812-.468h-11.255v.47l.938.468v20.165l-.937.468v.47h6.565v-.47l-.937-.47v-.468z" fill-rule="evenodd"/><path d="M166.002 188.98h-8.91v-4.22h5.628l.47.47.468.468v-5.16l-.47.94h-6.095v-3.283h9.378v.937h.47v-5.627h-.47v.938h-14.536v.47h.938V191.794l-.938.468v.47h14.538l.468.467v-5.158h-.47v.938h-.468zM184.29 174.443h-13.598v-.938h-.47v6.096h.47v-.936H175.382v13.13l-.47.47v.468h5.627v-.47l-.47-.468-.47-.47v-12.66h5.16v.937h.47v-6.095h-.47v.938h-.47z"/><path d="M195.545 178.664l1.876.468 1.408.938.938 1.407v4.221l-.938 1.406-1.407.938-1.875.47-1.407-.47-1.406-.938-.938-1.406-.47-2.345.47-1.876.938-1.407 1.406-.938 1.407-.468zm0-4.69l-2.813.938-1.407.47-1.407.937-.938 1.406-.938 1.406-.47 2.345v4.221l.47 2.344.938 1.407.938 1.406 1.407.938 1.407.47 2.813.468 2.814-.47 1.406-.468 1.406-.938.938-1.407.938-1.408.938-2.344v-4.221l-.938-2.345-.938-1.406-.938-1.407-1.406-.94-1.407-.468-2.815-.938zM221.336 188.51v-9.846H226.027l1.407.937.47 1.408.467 2.345-.468 2.813-.47 1.407-1.406.938h-4.689zm-3.75-12.66v15.475l-.47.47-.47.468v.47h9.38l1.407-.47 1.406-.47.937-.937.938-.938.938-1.407.47-1.406v-7.034l-.47-1.406-.938-1.407-.938-1.407-.938-.47-1.407-.937h-10.787v.47h.47l.47.937z" fill-rule="evenodd"/><path d="M249.472 188.98h-8.91v-4.22h5.628l.47.47v.468h.468v-5.16h-.47v.94h-6.095v-3.283h9.378v.937h.47v-5.627h-.47v.938h-14.536v.47h.47l.468.937v15.475l-.47.47-.468.468v.47h14.538v.467h.468v-5.158h-.47v.938h-.468zM255.1 175.85v15.945l-.938.468v.47h14.068v.936h.47v-6.097h-.47v.938h-8.91v-13.598h.938v-.47h-6.096v.47h.938v.938zM296.366 192.732h6.096v-.47l-.47-.468-.468-.47V172.1l.47-.468.468-.47v-.468h-8.44v.47l.937.468v.468l-.47.938-.47 2.345-.937 2.815-1.407 2.813v-.938l-.937-1.875-.47-1.876-.47-1.877-.468-1.876-.47-.47.47-.467.47-.47v-.468h-7.973v.47l.468.468v20.165l-.47.468v.47h5.16v-.47l-.47-.47-.47-.468V175.85l5.628 16.413 5.628-15.944V191.794l-.938.468v.47zM313.247 174.443h-6.096v.47h.47l.47.937v15.475l-.47.47-.47.468v.47h6.097v-.47l-.937-.47v-16.881h.937v-.47zM317.937 175.85v15.475l-.47.47-.468.468v.47H331.067v.936h.468v-6.097h-.47v.938h-8.908v-13.598h.468v-.47H317v.47h.468l.47.938zM347.948 188.98h-8.44v-4.22h5.627l.47.47v.468h.468v-5.16h-.47v.94h-6.095v-3.283h9.378v.937h.47v-5.627h-.47v.938H334.35v.47h.468l.47.937v15.475l-.47.47-.47.468v.47h14.07l.468.467h.47v-5.158h-.47l-.47.938h-.468zM369.05 191.325V175.85l.47-.938h.468v-.47h-5.158v.47h.47v8.91l-1.877-2.814-1.876-2.344-.937-1.876-.47-.938v-.938h.47v-.47h-7.503v.47h.47l.468.938v15.475l-.47.47-.468.468v.47h5.627v-.47l-.938-.47V180.54l2.814 3.75 2.344 3.283 1.407 2.814.94 1.407-.47.47h-.47v.468h5.628v-.47l-.47-.468-.468-.47zM380.305 174.443h-6.096v.47h.468l.47.937v15.475l-.47.47-.47.468v.47h6.097v-.47l-.938-.47v-16.881h.938v-.47z"/><path d="M391.56 178.664l1.875.468 1.407.938.47 1.407.468 1.876-.47 2.345-.468 1.406-1.407.938-1.876.47-1.408-.47-1.406-.938-.938-1.406-.47-2.345.47-1.876.938-1.407 1.406-.938 1.407-.468zm0-4.69l-2.814.938-1.407.47-1.408.937-.938 1.406-.938 1.406-.47 2.345v4.221l.47 2.344.938 1.407.938 1.406 1.407.938 1.406.47 2.813.468 2.813-.47 1.407-.468 1.406-.938.938-1.407.938-1.408.47-2.344.468-2.345-.47-1.876-.468-2.345-.938-1.406-.938-1.407-1.406-.94-1.407-.468-2.814-.938z" fill-rule="evenodd"/><path d="M114.42 235.873l3.75-.47v-.467h-.468v-9.848l8.44 8.91.47.47-.47.468v.468h4.22v-.468h-.468V221.336h.47v-.937h-3.752v.936h.47v9.38l-7.973-8.442-.47-.938h.47v-.937l-4.69.936v.47l.47.468v12.662l-.47.468v.47zM139.273 235.404h4.22v-.468h-.937V223.68h.938v-.468h-4.22v.47h.468v11.255h-.47v.467zM161.313 226.964l1.876-2.814h-1.408l-.938-.47-1.407-.468-2.344-.47-2.345.47-2.345 1.407-1.407 1.875-.468 1.407-.47 1.406.47 1.407.468 1.407 1.407 1.876 2.345.938 2.345.468h2.344l1.407-.468 1.407-.938h1.408l-1.876-3.283-.47.47v.468l-.468.47-.938.937H158.5l-1.407.47-1.407-.47-1.407-.938-.94-.938-.468-1.876.47-1.875.937-1.407 1.406-.938h3.282l.938.47.938.468.47.47v.468z" fill="#2c308c"/><path d="M173.505 230.246l1.876-4.69 2.346 4.69h-4.22zm-4.69 5.158h3.283v-.468l-.468-.47.468-.468.47-1.876h6.096l.937 1.876v.938h-.468v.468h3.752v-.468l-.47-.47-4.688-9.847v-1.408h-4.22v.47h.468v.468l-.47.938-4.22 8.91v.47l-.468.468v.468zM192.263 228.37v-3.282h5.627l.938.47.47.468v1.407l-.47.47-.938.467h-5.627zm4.69-5.158h-7.973v.47h.47l.468.468v10.317l-.47.47h-.468v.467h3.752v-.468h-.47V230.246h3.752l2.345 3.752.468.47-.47.468v.468h4.22v-.468l-.468-.47-.47-.468-2.812-3.752.938-.47.937-.937.938-.938.47-1.407-.47-1.407-.937-1.407-1.875-.468h-1.876zM212.896 230.246l1.875-4.69 2.346 4.69h-4.22zm-5.16 5.158h3.753v-.468h-.47v-.938l.938-1.876h6.096l.47 1.876v.47h.468l-.47.468v.468h3.752v-.468h-.47l-.468-.47-4.22-9.847-.47-.47v-.47h.47v-.468h-4.22v1.876l-4.22 8.91-.47.47-.47.468v.468z" fill="#2c308c" fill-rule="evenodd"/><path d="M240.563 224.15v-.47l-.47.47h-.468l-.47-.47h-.937l-1.407-.468-1.874-.47-3.283.47-2.345 1.407-.938.937-.468.938-.47 1.407-.468 1.406.47 1.407.468.938 1.406 2.345 2.345.938 3.283.468h2.344l1.876-.468 1.407-.47.938-.468v-.47l-.468-.468v-3.284h.47v-.937h-6.098l-.468-.47h-.47v3.283h.47l.468-.47.47-.468h2.813v1.876l-1.876.94h-2.343l-1.407-.47-1.876-.47-.938-1.406-.47-1.876.47-1.875.938-1.407 1.876-.938h3.282l1.407.47.937.468v.938h.47l1.406-2.814zM252.755 223.212h-4.22v.47h.937v7.502l.47 1.407.937 1.408 1.875.938 3.283.468 2.813-.468 1.877-.938.938-1.407.47-1.406v-7.034l.468-.47h.47v-.468h-4.222v.47h.47l.47.468v6.096l-.47 1.407-.47.938-1.406.47-1.406.47-1.876-.47-1.407-.47-.47-.937-.468-1.407v-6.096l.47-.47h.468v-.468z" fill="#2c308c"/><path d="M273.857 230.246l1.876-4.69 2.344 4.69h-4.22zm-5.158 5.158h3.75v-.468h-.47v-.47l.47-.468.47-1.876h6.095l.47 1.876.468.47-.47.468v.468h3.753v-.468h-.47v-.47l-4.69-9.847v-.47l-.468-.47h.47v-.468h-4.22v.47h.468l-.47.468v.938l-4.22 8.91v.47l-.937.468v.468z" fill="#2c308c" fill-rule="evenodd"/><path d="M88.16 118.17l1.875-1.875.47-.937h.938l.468-.47 1.877-1.875.47-1.407v-.47l-.47-.937.47-.94.936-.468h.47l.468.47.94.937h.468l.47-.47.468-.47v-.936l-.47-.47-.468-.937.47-.47.468-.468.47-.94h.468l.938-.937.938-.47.468-.468h.938l.938-.938 1.876-.937 1.876-1.407.938-.938v-1.407l.468-.938.938-.938 1.407-.937h1.876l.938-.938 3.752-2.814.938-.938v-.938l.47-.938.937-1.407 1.407-.47.47-.468h.936l1.407-.938.938-.47.938-.468.938-.47 1.408-.47.47-1.406.468-.937v-.47l.937-1.406.938-.468h.94l.468-.47.938-.468.938-.938h1.408l.936-.938.938-.938v-.937l.47-.47.937-.937 2.814-2.345 2.813-2.344 2.814-2.344 1.407-.938 1.408-1.407.937-.938V60.49l.938-.937.938-.938h1.408l.938-.938.938-.47.47-.47h.936l.938-.468 1.407-1.407.938-1.407 1.876-.937 1.406-1.406.937-.938V48.77l.938-.94 1.408-.468h.47l.468-.47.938-.468.938-.937h.938l.468-.47.938-.468.938-.94v-1.875l.938-.938.938-.47h1.876l.938-.468 1.406-.94 1.407-1.405.938-.938V35.17l.938-1.407.938-.47h.94l1.405-.468 1.407-.938 1.407-.937.937-.47h.47l.468.47H194.138l.47-.47.468-.468.938-.47h.938l.47.47.468.938.47 1.406.937.938 1.406.938h1.878l1.406.47 1.407.937v.937l.47.938.937.938 1.406.937.47.47h.937l1.407.937.938.938.47.938.468.47.938.937.937.938h2.346l.938.47 1.876 1.405 1.406.938.47.94.468.468v.47l.47.937.937.47h.47l.47.468.937.47 1.407.936.938.937 2.344 1.876.938.938v.94l.938.937.938.938v.468l-.47.938.94.94.937.937v.47l.937.937.47.47h.468l.938-.47.938-.47h.47l.468.47.938.938v.938l.938 1.406.47.938v.938l.936.938.938.47h.938l.47-.47.937.47.94.937-.47.938v.938l.47.937.937.47h.47l.468-.47.937-.47h.47l.937.47.468 1.407v.47l-.47.937.94.938.937.938h.47l.937.938.938.47h.938l.937.936.938.938v1.407l.47.937 1.406.47.468-.47h.938l.938.47.938.937v.938l.937.937 1.406.937 1.407.938 1.407.938 1.407.938.47.94v.468l.467.47.47.937.937.937h.94l.937.47.938.937v.468l.47.47.468.937 2.813 2.345.47.937v.47l.468.468.47.938.937.47h.94l.937-.47h.47l.468.47 1.406.937 1.408.938.47.938v1.875l.468.94 1.407 1.406.938.938.94.938h.936l.938.47.938.937v1.405l.938.47.938.468h.47l.937.47.938.937v-.47h.47l.936.47.937.47h.47l.468-.47.938.47.938.937v.47l.94.468 1.874 1.876 2.345 1.407.937.47.938.937.938.938v1.407l.938.937.938.47h1.407l.938.467.47.47v.468l-.94.47-1.406.468-1.875-.47h-1.408l-.937.94-.938.468-.47.47-.938-.47-.47-.47-.468-.468v-.938l.47-.938-.47-.468-.468-.938-2.345-.938-.937-.938v.47h-.47l-.937-.94-.938-.468v.47h-.47l-.936-.47-.938-.938v-.47l-.47-.937-1.406-.47v.47h-.47l-.937-.47-.937-.468-.47.47-.468.467-.937-.47-.938-.937v-.47l-.938-.468-.938-.938.47-.938v-.47l-.94-.938-.937-.938-1.407-.937-.938-.47h-.937l-.47.47-.937-.47-.938-.937-.47-.47-.937-.937-.938-.938v-.938l-.938-.47-1.406-1.406-.937-.936-.938-.938v-.938l-.938-.938-.938-.47h-.94l-.937-.937-.937-.47h-.47l-.937.47-.94-.938-.468-.47V101.29l-.938-.938-2.345-1.876-1.407-1.407-.938-.94-.938-.468-.938.47-.94.468-.937-.47-.938-.937v-.938l-.937-.937-.938-.938-.47.47h-.468l-.938-.94-.938-.937v-.938l-.938-.938-2.344-1.875-.47-.938v-.47l-.468-.468-.47-.47-1.406-.937-.47.468-1.406-.47-.938-.937-1.406-.937-.938-.47h-.47l-.937-.936-.938-.938.47-.47v-.47l-.94-.937-.937-.938h-.47l-.937-.47-.937-.937v-.47l-.47-.468-.468-.47-.938-.936h-.938l-.938-.47-.938-.468h-.47l-.937.47-.938-.47-.47-.47V70.34l.47-.938v-.47l-.47-.468-.937-.938h-.938l-.938-.47-.94-.936v-.938l-.468-.938-.938-.47h-.938l-.937-.468-.94-.938-.468.47h-.47l-1.406-.47-.47-.938v-1.408l-.468-.936-1.407-.47h-1.405l-.938-.468-3.283-2.345-.938-.938H206.8l-1.407-.938-.47-.938-.468-1.407v-.938l-.938-.938-.938-.938-.47-.94-.47-.468-.937-.938-1.406-.47h-1.878l-1.406-.467-.938-.938-.47-.47-.468-.47h-1.406l-1.407.47v1.407l-.938 1.406-.938.47-.94.468h-.468l-.938.94-.938 1.875-1.406 1.876-.938.47-.938.468h-.47l-1.406.47-2.813 2.344-.938.938h-1.407l-.938.47-.47.937V61.9l-.468.468-.47.47h-.937l-.937-.47-.938-.47h-.47l-.937.47-.47.47V66.59l-.468.467-1.407.47h-.47l-.937-.47-1.406.47-.47.937-.468.47-.47.468-.938.938-.938 1.407-1.407 1.407-2.813 2.344-1.407.938-1.876.938-2.812 2.345-.47.937-.468.468v.938l-.938.938-2.814 1.877-.938.938v.938l-.47.47-.936.936-.938.468h-.938l-.47-.47-1.406.94-2.814 2.344-.937.938-.468.938-.47.938-.937.937-1.876 1.407-1.408 1.407-3.75 2.814-.94.94h-.937l-.47.467-1.406.938-.938.47h-.938l-.938.468-1.407.47-.94 1.406v.937l-.468.938-.938.937-3.282 2.814-1.876 1.876-1.407 1.407-1.408.937h-.937l-.938.468-1.407.938-.938.938-.47.94-.468.937-.938.938-3.75 3.282-1.408 1.407-1.407.938-.937.47-.468.468-.938.938-.938.938-.47.937h-1.876l-1.407-.47-.938-.936-1.407-2.345-.47-1.407v-.938l.47-1.406.47-2.813v-1.408l.936-.47z" fill="#221e1f"/><path d="M127.08 144.9l1.877-.47 2.344-1.874 1.877-1.407 1.876-1.408 1.875-.938 2.345-.47 1.407-.468 2.345-.47h1.406l.47-.468.938-1.406 1.407-.938h.47l1.875.47.938.468h.468l.938-.938 1.407-1.407.94-1.407v.47h1.406l3.75-.47h1.408l1.876-.938 1.407-.47h.47l1.405-.468 1.407-.937v-.47h7.503l1.407-.468 1.875-.94h1.406l1.877-.468 1.876-.938.938-.938.47-.47h3.751l1.408-.468 1.876-.47 2.344-.467 2.345-.468h2.345l2.344-.47 2.814.47h1.876l.47.47.936.467h3.283l.94-.47h.937l1.407.47h1.876l1.406.468 1.407.47h-.47l-.468 1.875v1.407l.47-.47v2.814-.468l-.47-.47-.938.938-.938.47v1.406l-.47.938v.938l-.47 1.407.47.47-.47-.47-.936 1.407-.938 1.406h-.47l-1.406.47-1.407.468-.47.47v.468l-1.406.938-.937.938h-1.408l-1.406.938-1.407.938-1.408.937-1.875 1.877 2.344-.938 1.877-.47h1.407l2.344.47 1.876-1.408 1.876-1.406 1.876-.938h2.344l.938.47 1.407-.47 1.876-.47.94-.468.936-.47 1.407-.468 1.876-.47.937.47h2.813l3.283-.47 2.345-.937 2.813-1.407h8.911l1.408-.468 1.407-.47 2.813-.937 1.407-.47H259.79l2.344-.937 2.344-1.407h2.345l1.876.468h2.343l1.876-.938 1.875-.47h2.345l1.875-.468 1.876-.47.47-.468h2.814l1.406.47.938.468.938.47h1.407l1.876.468.936-.47 2.345-.468h2.347l.937.47H301.523l.938-.47 1.876-.47h1.406l.938.47 2.345.47 1.876.468h3.283l2.814.47 2.343.468 2.814.47 2.345.937 2.813.938h4.69l2.344.938 2.344.47 2.345.468 2.343.47 2.345.468 1.407.47 1.876.937.938.47h-.47l.94 1.406.468.937v-.47H351.7h-.47v1.408l.47 1.406h-.47v1.408l-.468 1.407h.47l-.47 1.407v1.407l-.47-.47h-1.406l-.938.47h-.47l-1.405-.47-1.876.47-2.345-.94-1.875-1.406-2.345-.47-2.345-.468-2.344-.938-1.407-.938h-.938l-.47.47h-1.875l-2.344-.47-2.815-.938-2.345-.937H315.592l-2.345-.938-1.406-.47h-.937l-2.345.47h-2.345l-2.813-.47-2.345-.468-2.345.468h-2.344l-2.345-.47h-1.875l-.47.47h-2.813l-2.345-.47-2.344-.468h-2.345l-2.346.47-1.407-.47H275.264l-1.876.938-1.876.47-2.344.468-1.876.47-1.876.468-2.344.468h-2.814l-2.345-.468H255.1l-2.814 1.406-1.876.47-.938.468-2.813-.47h-2.815l-2.813.94-2.814.937-2.814.938-1.406.47H227.903l-.938.468-2.814.94-1.407.468H218.992l-2.345.468-2.345.47-1.875 1.406-1.876.47-1.875.468-1.875.938-4.22 1.407-1.408.47h-.47l-.468-.47h-1.406l-1.407.47-.937.468h-1.876l-1.407-.47-.468-.468h-.938l-1.407-.47-1.407.47h-.47l-.468.47-1.407-.47-1.406-.938v-.47l-.94-.937-.937-.938-.938-.47-.938-.468h-.47v.47l.47.468.47-.47.468-.937v-1.406.468l.938-.938.938-1.876 1.408-.47 1.406-1.406.47-.47.937-.937 1.408-1.405 2.345-1.407 2.344-1.876 2.345-2.345 2.345-1.875 1.875-.938 1.407-1.876.937-1.407.938-.468 1.876-1.406-2.813.468-1.407.47-.47.468-1.406.47-1.406.468H196.483l-1.876.47-.47.468-1.874.47h-2.345l-1.876.468h-2.813l-2.815.47-3.283.468-2.813.938-2.815 1.406-2.813 1.407-2.814.47-2.814.937-2.344 1.407-2.345.937-5.158 1.407-2.345.468-2.813.938-1.877 1.407-2.814.938-2.345.47-2.345.468-2.814 1.407-1.875 1.406-2.344 1.876-.938.47-1.407.468h-4.689l-1.407.47-1.407.468h-.938l-.468.47v.468h.468v-1.407l-.468-1.408v.47l-.938-.47-.938-.47h-.47l-.468.47.47.47v-2.814.468l-.47-.937-.47-1.408.47.47.938-.94.938-.937v.47l.47-.94.936-.937h-.468H125.205l1.876-.938z" fill="#195a90"/><path d="M124.267 141.618l2.345-1.407 1.876-1.875 1.875-1.407 1.876-.937 2.344-.937 1.876-.47 1.875-.468 1.876-.47h1.408l.47.47 1.406-1.407 1.406-.938v-.47l1.876.47h1.407v.47l1.407-.94 1.406-1.406.938-1.406h6.566l1.875-.47 1.407-.937v-.938l1.407-.468 1.874-1.407h1.876l1.407.47h.47v.468h1.406l1.875-.47.47-.468.937-.47 1.407-.936.47.47h3.75l1.407-1.407 1.406-.938h.47l1.875-.47 1.408.47h1.875l1.407-.47.47-.468.468-.47 1.407-.468h2.344l2.344-.47h2.814l2.813.47 1.408.468h.938l.938.47h1.876l1.406-.47.938-.47H211.49l1.406.47 1.406.938 1.407.47.468-.47-.47.47-.468 1.406v.937h-.47V126.142l.47-.47v-.468l-1.406.938-.938.47h.47v2.812l-.47-.47-.47.938v1.876l-.468-.47-.938.94-.938 1.406v.47l-1.407.937-1.407.47h-.468l-1.876.937-1.407 1.406-1.876 1.407-2.812 2.345-1.407.47-.468.468.47-.47 1.406-.937 1.406-.47.47.47.468.468 1.407.47h1.876l2.344-1.408.937-.938.938-.47.47-.468 1.406-.47 1.408-.468.938.47h.47l1.874-.47 2.345-.938 2.814-.468 2.812-.47 2.814-.468 2.813-.47 2.813-.937 1.407-.938H240.094l2.813-.47 5.628-.937 2.813-.47 2.814-.468H258.382l1.407-.47 1.406-.936.938-.47.47-.468H266.352l1.876-.47 1.407-.468.47.47h2.343l1.407-.47h.47l.937-.47 1.407-.468 1.407-.47h.938l.938.47 1.407.47H286.518l2.345.468 2.813-.47h2.345l2.815.47h4.688l2.814-.47 2.344.47 2.345.938 2.814.938H314.186l.938-.47h3.282l.937.47 2.814 1.406 2.345.938h5.158l2.345.47 2.344.937 2.344.938 1.407.47h2.814l1.407.468.47-.47 1.876.94.938.468h-.47v.47l.47.937.938 1.407h-.47v-.47H348.886v-.468 3.283l-.47 1.406V145.37l-.468 1.406h.47l-.47-.47-1.406.47h-1.408v-.47H342.322l-.937.47h-.47l-1.874-.938-1.877-.938-2.345-.47-2.344-.936-1.876-.938-2.345-1.407h-5.159l-2.345-.94-2.344-.937-2.814.47-2.345-.47-2.344-.47-1.876-.468h-.47l-.937.47h-3.282l-.938-.47-.47-.47-1.875-.468-2.345-.47-2.344.47-2.345.47h-2.812l-4.69-.47h-1.407l-.936.47H281.83l-2.346-.47h-4.22l-.47-.47h-1.875l-1.877.47-.47.47-.467.468H268.7l-1.877.47-1.876.468-2.344.47-1.876.468-2.814.47H255.1l-2.814-.47-2.814.94-2.344.937h-6.096l-2.814.47-5.158 1.874-2.814.47h-2.813l-2.814.47-2.815.937-2.813.938-2.345.47H213.366l-1.407.468-1.876.938-1.876.47h-2.343l-1.876.938-4.22 1.406-.938.47-.47.468-.468.47-1.407.468h-2.345l-1.875-.47-1.407-.468-.938-.47h-.47l-1.406-.468-1.876.47-1.875-.94h-1.876l-.937-1.405-.47-.94v.47l-.937-.938-.938-.47h-.468v.94h.468v-.47l.47-.938.468-1.407v.47h-.47l.94-.94.937-1.875h.47l1.406-.468 1.407-.938.47-.938.468-.938 1.406-1.407 1.407-.938 1.408-.47.938-.468 1.407-.937 2.344-2.345 2.345-1.876.938-.94.47-.468.468-.938.938-1.406.937-.938 1.407-.938 1.407-.938-2.345.47-1.875.468-1.407.47-4.22 1.406-1.876.47h-1.876l-2.345.468-2.344.468-5.16 1.407-3.282.47-2.814 1.407-2.813.938-2.813.47-2.814 1.406-2.813.938-2.345.938-2.813.47-4.69 1.875-2.344.94-2.345.937-1.876.938h-3.283l-1.876.937-.47.47-.938.468-1.407.938-1.875.47h-1.876l-1.407.937-2.345 1.407-.47.47-1.874.468-1.407.47-.937.468-1.876.937h-3.752l-.468.47v.468l-.47-1.407-.468-1.406h.468v.47l-.938-.47-1.407-.47v.47h.47v-2.814l.468.47-.468-.94-.47-1.406h-.468l.938-.47.938-.936v.938l.938-.938.938-1.407h-.47.94l1.406-.47.468.47 1.407-.47z" fill="#1a7cb1"/><path d="M8.44 248.535h63.776V210.55H8.44v37.985z" fill="#15679a"/><path d="M72.216 248.535H8.44V210.55h63.776v37.985z" fill="none" stroke="#221e1f" stroke-width=".46876715999999996" stroke-linecap="square" stroke-miterlimit="10"/><path d="M8.91 235.873h63.306v-12.66H8.91v12.66z" fill="#fff"/><path d="M356.39 215.24h35.17M356.39 220.868h35.17M356.39 226.964h35.17M327.784 232.59h63.775M327.784 238.218h63.775M327.784 244.314h63.775" fill="none" stroke="#fff" stroke-width="3.75136764" stroke-linecap="square" stroke-miterlimit="10"/><path d="M356.39 213.834h35.17v-2.814h-35.17v2.814zM356.39 219.46h35.17v-2.813h-35.17v2.814zM356.39 225.557h35.17v-3.283h-35.17v3.283zM356.39 231.184h35.17v-2.814h-35.17v2.814zM327.784 236.81h63.775V234h-63.776v2.813zM327.784 242.907h63.775v-3.282h-63.776v3.282zM327.784 248.535h63.775v-2.814h-63.776v2.815z" fill="#d51d4f"/><path d="M327.784 248.535h63.775V211.02h-63.776v37.515z" fill="none" stroke="#221e1f" stroke-width=".46876715999999996" stroke-linecap="square" stroke-miterlimit="10"/><path d="M328.253 231.184h28.136V211.02h-28.137v20.164z" fill="#1f4079"/><path d="M331.067 212.896l-.47.47h-.468.468l-.47.936.94-.468.468.468-.47-.937h.47-.47v-.47zM331.067 216.647l-.47.47h-.468l.468.468-.47.47.94-.47.468.47-.47-.47.47-.47h-.47v-.468zM331.067 220.4l-.47.468h-.468l.468.468-.47.47.94-.47.468.47-.47-.47.47-.468h-.47v-.47zM331.067 224.15l-.47.47h-.468l.468.468-.47.47.94-.47.468.47-.47-.47.47-.47h-.47v-.468zM331.067 227.902l-.47.937h-.468.468l-.47.937.94-.47.468.47-.47-.938h.47-.47v-.938zM333.41 214.77l-.467.47h-.47l.47.47-.47.468.938-.47.47.47-.47-.47.47-.468h-.47v-.47zM333.41 218.523l-.467.47h-.47l.47.468-.47.94.938-.47.47.47-.47-.94.47-.468h-.47v-.47zM333.41 222.274l-.467.938h-.47.47l-.47.938.938-.47.47.47-.47-.938h.47-.47v-.938zM333.41 226.495l-.467.47h-.47.47l-.47.937.938-.47.47.47-.47-.938h.47-.47v-.47zM335.287 212.896v.47h-.47.47l-.47.936.47-.468.938.468-.47-.937h.47-.47l-.468-.47zM335.287 216.647v.47h-.47l.47.468-.47.47.47-.47.938.47-.47-.47.47-.47h-.47l-.468-.468zM335.287 220.4v.468h-.47l.47.468-.47.47.47-.47.938.47-.47-.47.47-.468h-.47l-.468-.47zM335.287 224.15v.47h-.47l.47.468-.47.47.47-.47.938.47-.47-.47.47-.47h-.47l-.468-.468zM335.287 227.902v.937h-.47.47l-.47.937.47-.47.938.47-.47-.938h.47-.47l-.468-.938zM337.632 214.77v.47h-.47l.47.47-.47.468.47-.47.938.47-.47-.47.47-.468h-.47l-.468-.47zM337.632 218.523v.47h-.47l.47.468-.47.94.47-.47.938.47-.47-.94.47-.468h-.47l-.468-.47zM337.632 222.274v.938h-.47.47l-.47.938.47-.47.938.47-.47-.938h.47-.47l-.468-.938zM337.632 226.495v.47h-.47.47l-.47.937.47-.47.938.47-.47-.938h.47-.47l-.468-.47zM339.977 212.896v.47h-.938.468v.936l.47-.468.467.468v-.937h.47-.47l-.468-.47zM339.977 216.647v.47h-.938l.468.468v.47l.47-.47.467.47v-.47l.47-.47h-.47l-.468-.468zM339.977 220.4v.468h-.938l.468.468v.47l.47-.47.467.47v-.47l.47-.468h-.47l-.468-.47zM339.977 224.15v.47h-.938l.468.468v.47l.47-.47.467.47v-.47l.47-.47h-.47l-.468-.468zM339.977 227.902v.937h-.938.468v.937l.47-.47.467.47v-.938h.47-.47l-.468-.938zM342.32 214.77v.47h-.468v.938l.47-.47.468.47v-.47l.47-.468h-.47l-.47-.47zM342.32 218.523v.47h-.468v1.408l.47-.47.468.47v-.94l.47-.468h-.47l-.47-.47zM342.32 222.274v.938h-.468v.938l.47-.47.468.47v-.938h.47-.47l-.47-.938zM342.32 226.495v.47h-.468v.937l.47-.47.468.47v-.938h.47-.47l-.47-.47zM344.666 212.896l-.47.47h-.468.47v.936l.468-.468.47.468v-.937h.468-.938v-.47zM344.666 216.647l-.47.47h-.468l.47.468v.47l.468-.47.47.47v-.47l.468-.47h-.938v-.468zM344.666 220.4l-.47.468h-.468l.47.468v.47l.468-.47.47.47v-.47l.468-.468h-.938v-.47zM344.666 224.15l-.47.47h-.468l.47.468v.47l.468-.47.47.47v-.47l.468-.47h-.938v-.468zM344.666 227.902l-.47.937h-.468.47v.937l.468-.47.47.47v-.938h.468-.938v-.938zM347.01 214.77l-.468.47h-.47l.47.47v.468l.47-.47.467.47v-.47l.468-.468h-.937v-.47zM347.01 218.523l-.468.47h-.47l.47.468v.94l.47-.47.467.47v-.94l.468-.468h-.937v-.47zM347.01 222.274l-.468.938h-.47.47v.938l.47-.47.467.47v-.938h.468-.937v-.938zM347.01 226.495l-.468.47h-.47.47v.937l.47-.47.467.47v-.938h.468-.937v-.47zM349.355 212.896l-.47.47h-.468.47v.936l.468-.468.47.468-.47-.937h.47-.47v-.47zM349.355 216.647l-.47.47h-.468l.47.468v.47l.468-.47.47.47-.47-.47.47-.47h-.47v-.468zM349.355 220.4l-.47.468h-.468l.47.468v.47l.468-.47.47.47-.47-.47.47-.468h-.47v-.47zM349.355 224.15l-.47.47h-.468l.47.468v.47l.468-.47.47.47-.47-.47.47-.47h-.47v-.468zM349.355 227.902l-.47.937h-.468.47v.937l.468-.47.47.47-.47-.938h.47-.47v-.938zM351.7 214.77l-.47.47h-.468l.47.47v.468l.468-.47.47.47v-.938h-.47v-.47zM351.7 218.523l-.47.47h-.468l.47.468v.94l.468-.47.47.47v-1.408h-.47v-.47zM351.7 222.274l-.47.938h-.468.47v.938l.468-.47.47.47v-.938h-.47v-.938zM351.7 226.495l-.47.47h-.468.47v.937l.468-.47.47.47v-.938h-.47v-.47zM354.045 212.896l-.47.47h-.468.47l-.47.936.938-.468.468.468-.468-.937h.468-.468v-.47zM354.045 216.647l-.47.47h-.468l.47.468-.47.47.938-.47.468.47-.468-.47.468-.47h-.468v-.468zM354.045 220.4l-.47.468h-.468l.47.468-.47.47.938-.47.468.47-.468-.47.468-.468h-.468v-.47zM354.045 224.15l-.47.47h-.468l.47.468-.47.47.938-.47.468.47-.468-.47.468-.47h-.468v-.468zM354.045 227.902l-.47.937h-.468.47l-.47.937.938-.47.468.47-.468-.938h.468-.468v-.938z" fill="#fff" fill-rule="evenodd"/><path d="M217.116 25.79l.47-4.688 2.344-2.345 4.69-2.813 2.813-.938 2.344-.938-12.66 11.723z" fill="#fff"/></svg>