<svg xmlns="http://www.w3.org/2000/svg" width="400" height="156.852"><path d="M195.565 27.13c0 10.23-6.005 18.524-13.413 18.524s-13.414-8.294-13.414-18.524 6.006-18.524 13.414-18.524c7.408 0 13.413 8.294 13.413 18.524z" color="#000" fill="#52711b" overflow="visible"/><path d="M177.808 41.663l-.308 13.55c-.06 2.65 1.287 4.9 3.164 5.543v19.99c-2.918.845-5.24 7.066-3.668 10.08 1.078 2.065 4.254 2.675 6.524 1.79 2.27.885 5.445.275 6.523-1.79 1.572-3.014-.75-9.235-3.668-10.08v-19.99c1.878-.643 3.224-2.894 3.164-5.543l-.31-13.55H177.81zm5.712 18.785c.484.278 1.012.445 1.568.476v19.822c-.547.158-1.086.5-1.568.98-.482-.48-.995-.82-1.54-.98V60.924c.55-.033 1.06-.2 1.54-.476z" color="#000" fill="#124745" overflow="visible"/><path d="M171.177 16.45c-.158 1.06 4.038.643 6.062.508 1.454-2.407 11.472-6.14 11.472-9.224h6.14c-.128-.85-.236-2-.66-2.78-10.638-10.947-23.05-2.25-23.015 11.495z" color="#000" fill="#abae29" overflow="visible"/><path d="M171.243 24.516c0 7.47 1.987 14.1 5.06 18.26h15.13c3.074-4.16 5.06-10.79 5.06-18.26-5.413-13.782-18.893-13.266-25.25 0z" color="#000" fill="#c95c11" overflow="visible"/><path d="M188.14 5.435c-10.368 1.15-16.623 8.358-16.91 19.093-.163 6.063 3.214 10.232 7.894 11.9-2.394-2.194-4.08-5.534-3.89-8.96-.066-1.037.087-2.317-.085-2.576.24-.79.526-1.766 1.09-2.91.023.02.163.11.393-.28.174-.384.312-.777.53-1.15l.113-.026c.113-.657 1.538-1.677 1.96-2.184l.028.196c.92-.864 2.548-1.435 3.472-1.848-.243.27.553-.02 1.12-.055-.18.1-.365.162-.532.28.68-.163.65.063 1.344-.028l.14-.027c.033-.048-.193-.076-.392-.112.664.02.61.063.392.112v.027h-.14c-.244.035-.523.132-.476.168.776.09.877-.24 1.595 0l-.027-.196c.998.36 1.21.29 2.295.867.38.02.405-.234.98 0 .1.178-.007.196.7.616.078-.032-.163-.205-.336-.364 1.42.758 2.972 2.354 3.443 4.087-.442-.813-.044.428-.196.364.197.53.348 1.087.448 1.652-.13-.463-.398-1.6-.896-2.323-.042.465-.666-.328-.337.7.25.362.055-.367.364.28.005.306.128.607.196 1.006-.106-.017-.23-.426-.308-.308.107.504.27.774.336.812-.033.084-.104-.09-.11.252.04.788.22.467.307.504-.086.388-.452.845-.28 1.512-.05-.202-.152-.424-.224-.616-.03.243.016.404.028.56-.01-.154-.084-.21-.167-.084.08.885-.7 1.54-.616 2.1l-.224-.308c-.58.843-.09.553-.392 1.092.052-.14-.086-.08.085-.336-.133.01-.588.57-1.008.896-1.648 1.32-3.61 1.495-5.515.784.01-.044-.014-.11-.14-.196-1.615-1.238-2.572-2.27-2.24-4.704.246-.186.303-1.212.868-1.568.344-.76 1.39-1.465 2.492-1.483 1.125-.06 2.07.606 2.547 1.23-.87-.81-2.287-1.047-3.5-.446-1.24.557-1.983 1.914-1.876 3.274.046-.067.09-.028.112-.196-.038 2.643 2.85 4.59 4.927 3.612l.028.056c.844-.23.738-.434 1.29-.812-.044.088-.365.332-.17.336.27-.072 1.1-.866 1.513-1.232.19-.407-.096-.216.168-.728l.31-.168c.178-.518.385-.797.363-1.4l-.196.392c.277-.837.13-1.76.168-2.548h-.084c-.067-1.983-1.777-4.1-3.303-4.815-1.11-.512-2.74-.686-3.78-.447.01-.014.028-.04 0-.056-1.464.146-1.144.525-2.267.812-.308.297.9-.246.252.14-.602.165-.9-.113-1.792.81.08.13.574-.37.168.14-.84-.102-2.667 1.906-3.052 2.577l.224.027c-.33.827-.78 1.38-.84 1.875-.085 1.218-.506 3.432.084 4.115l-.056.56c.08.162.152.323.252.476l-.14.028c.622 1.96.663.035 1.484 2.072-.12-.04-.246-.102-.42-.336-.02.178.264.73.588 1.148l-.14.168c.18.33.35.39.476.503-.675-.368.64 1.226.756 1.428l.084-.195c-.015.266.202.617.588 1.092l.308-.027c.132.262.63.734.924.756l-.112.14c.863.16 1.747.224 2.66.224 6.974 0 12.626-4.733 12.626-12.71 0-3.966-2.19-7.057-3.64-10.19-1.11-2.4-.1-5.35 2.24-6.693-2.048-.936-4.56-2.476-6.943-2.21zm-3.276 11.086c-.134.012-.256.017-.364.057l-.168-.027c.175-.022.353-.014.532-.028zm-9.21 4.817c.065.073.32-.2.083.336-.127.088-.196.146-.224.168.028-.046.15-.235.14-.503zm-.42 1.652c-.046.206-.08.424-.197.782.034-.28-.127-.37.196-.783zm13.27 2.49c.045 0 .078.113.055.448-.068.27-.127-.16-.197-.196.03-.128.094-.25.14-.252zm3.667 1.064c.01.186-.007.383-.14.728.087-.286.137-.543.14-.728zm.42.056c-.024.192-.07.4-.11.588.03-.148.034-.298.055-.448l.056-.14zm-4.62.42c-.048.2-.42.65-.307.672.038.01.134-.03.308-.14.065-.113.113-.223.17-.336-.083.213-.168.45-.31.644.014-.12-.095-.13-.167-.168-.087-.045-.104-.153.308-.672zm4.48.252c-.128.536-.298 1.05-.56 1.54.25-.49.44-1.012.56-1.54zm-5.71 1.036c-.11.103-.23.203-.365.308-.486-.076-.904-.275-.532-.28.31.028.594.046.896-.027zm-4.564.308c.045.083.103.152.168.224l.112.336c-.107-.18-.194-.368-.28-.56zm-.42.252c.308.594.475.765.7 1.204-.313-.26-.51-.62-.756-.952l.056-.252zm.476.364c.197.043.866 1.117 1.372 1.288-.3-.24-.514-.555-.728-.868.404.464.89.84 1.428 1.092-.013-.047.014-.08.028-.112.033.105.376.366.644.504.725.268 1.537.304 2.183.28-1.397.584-4.056-.623-4.928-2.184z" color="#000" fill="#d8dd2d" overflow="visible"/><path d="M181.65 3.014c-1.99.534-1.543 3.76-.817 5.19 1.702.315 4.493-1.503 5.285-3.93z" fill="#c95c11"/><path d="M185.256 3.867c-1.58.41-1.93 1.285-2.072 2.575-2.732 1.01-4.855 2.333-4.256 3.78 1.33 3.21 5.542-1.39 10.33-1.932 7.5-.847 16.562.195 16.558-.237-.016-1.68-8.587-3.595-13-3.598-2.9 0-5.25-.45-7.56-.588z"/><path d="M187.626 5.658c0 1.268-1.028 2.296-2.296 2.296-1.268 0-2.296-1.028-2.296-2.296 0-1.267 1.028-2.295 2.296-2.295 1.268 0 2.296 1.028 2.296 2.295z" color="#000" fill="#abae29" overflow="visible"/><path d="M187.01 5.66c0 .926-.752 1.678-1.68 1.678-.928 0-1.68-.752-1.68-1.68 0-.927.752-1.68 1.68-1.68.928 0 1.68.753 1.68 1.68z" color="#000" overflow="visible"/><path d="M186.144 5.22c0 .246-.2.447-.448.447-.247 0-.447-.2-.447-.448s.2-.45.446-.45c.248 0 .448.202.448.45z" color="#000" fill="#fff" overflow="visible"/><path d="M188.703 4.634c.964-.103 2.118-.253 3.196-.194-4.112-4.072-13.604-2.38-13.952-.98-.348 1.403 3.58-1.207 10.755 1.174z" fill="#fff"/><path d="M23.937 41.774H0v64.056h18.338c23.904 0 35.864-10.653 35.864-32.81 0-10.718-2.383-18.6-7.14-23.658-4.756-5.058-12.467-7.588-23.125-7.588zm-3.33 6.132c15.292 0 22.928 8.45 22.928 25.31 0 8.97-1.914 15.176-5.767 19.512-4.095 4.636-10.58 6.972-19.43 6.972h-9.07V47.906zM80.827 55.24c-7.526 0-13.296 2.407-17.33 7.224-3.673 4.456-5.515 10.52-5.515 18.226 0 8.19 2.33 14.574 7.027 19.15 4.695 4.576 11.156 6.86 19.345 6.86 3.993 0 8.047-.49 11.87-1.484l1.232-6.16c-2.774 1.037-5.88 1.68-11.478 1.68-11.2 0-17.292-6.41-18.255-19.234h32.616c.182-1.927.253-3.693.253-5.32 0-6.502-1.668-11.608-5.04-15.342-3.37-3.733-8.283-5.6-14.726-5.6zm-.728 5.124c7.405 0 11.09 5.282 11.03 15.82H67.64c.663-10.538 4.812-15.82 12.46-15.82zM114.9 38.08l-9.268 2.475v63.96c5.617 1.46 11 2.184 15.315 2.184 8.67 0 15.472-2.848 20.41-8.568 4.575-5.358 6.86-12.454 6.86-21.305 0-6.383-1.276-11.44-3.865-15.175-3.01-4.275-7.605-6.41-13.746-6.41-7.166 0-12.335 3.656-15.706 11.002zm12.178 24.748c4.335 0 7.603 1.89 9.77 5.684 1.747 3.13 2.605 7.01 2.605 11.646 0 14.03-5.623 21.054-16.883 21.054-2.528 0-5.082-.346-7.67-1.008V81.782c0-12.644 4.05-18.954 12.178-18.954zM200.36 105.265c-4.696 1.023-9.543 1.535-14.54 1.535-10.297 0-18.426-2.8-24.387-8.4-5.96-5.66-8.94-13.607-8.94-23.843 0-10.778 2.8-18.997 8.398-24.657 5.66-5.72 13.88-8.58 24.658-8.58 6.563 0 12.223.903 16.98 2.71l-2.754 6.7c-3.502-2.796-8.084-3.72-14.226-3.72-7.346 0-13.006 2.62-16.98 7.857-3.552 4.697-5.328 10.84-5.328 18.425 0 8.008 1.987 14.48 5.96 19.418 4.336 5.42 10.417 8.13 18.245 8.13 5.96 0 10.672-1.182 14.37-2.91zM251.28 80.518c0 7.887-1.926 14.15-5.78 18.786-4.094 4.997-10.025 7.496-17.792 7.496-7.828 0-13.85-2.318-18.063-6.955-4.035-4.455-6.052-10.627-6.052-18.515 0-7.948 1.957-14.24 5.87-18.876 4.155-4.877 10.147-7.316 17.974-7.316 7.647 0 13.578 2.35 17.793 7.045 4.034 4.516 6.05 10.627 6.05 18.335m-9.573.542c0-13.428-4.576-20.14-13.728-20.14-9.996 0-14.994 6.712-14.994 20.14 0 13.366 4.877 20.05 14.632 20.05 9.393 0 14.09-6.684 14.09-20.05M265.523 54.513l-9.267 2.482v48.835h9.267V83.77c0-6.804.41-11.716 1.735-14.726 2.108-4.576 6.134-6.86 12.095-6.86 3.432 0 5.838.957 7.223 2.884 1.144 1.566 1.708 4.17 1.708 7.783v32.98l9.267-.158V74.037c0-6.503-.886-10.864-2.21-13.393-1.927-3.612-5.882-5.403-11.843-5.403-4.516 0-8.15.835-10.92 2.52-2.77 1.687-5.067 4.534-7.054 8.568zM331.315 38.163c-16.462 1.424-21.697 7.708-21.697 19.654v4.48h-8.035v6.047h8.035v37.488h9.127V68.344h9.49v-6.048h-9.49v-6.44c0-5.542 2.275-10.918 6.97-10.918 1.05 0 1.938.022 2.773.084z" style="text-align:start;line-height:125%;-inkscape-font-specification:LaudatioC" font-size="100.812" letter-spacing="-3.5" word-spacing="0" fill="#4c403b" font-family="LaudatioC"/><g font-size="138.479" letter-spacing="0" word-spacing="0" fill="#4c403b" font-family="LaudatioC"><path d="M400 105.83h-30.69c0-20.21 24.21-26.334 22.727-37.655-.984-5.845-4.54-8.03-10.09-7.306-5.845.763-8.92 4.38-11.86 7.956l-2.507-6.103c12.644-13.144 29.89-7.184 31.43 4.282 2.007 14.97-15.717 18.907-18.773 32.695H400M361.01 105.83h-9.266V63.828c-4.688 1.902-9.938 3.576-14.87 4.526v-6.052c5.455-.622 14.228-3.677 24.137-7.565" style="text-align:start;line-height:125%;-inkscape-font-specification:LaudatioC"/></g><path d="M200.17 131.904c0 3.327-2.697 6.024-6.023 6.024-3.327 0-6.024-2.697-6.024-6.024 0-3.326 2.697-6.023 6.024-6.023 3.326 0 6.023 2.698 6.023 6.024z" color="#000" fill="#406e19" overflow="visible"/><g fill="#406e19"><path style="text-align:start;line-height:125%;-inkscape-font-specification:LaudatioC" d="M221.653 114.166h-6.26v31.818h4.625v-25.806l15.51 25.806h4.624v-31.818h-4.625v23.947zM268.836 125.37c-1.25-1.265-2.835-1.654-4.972-1.654-2.554 0-4.514.935-5.88 2.806-1.217 1.662-1.825 3.815-1.825 6.457 0 2.998.726 5.516 2.18 7.387 1.604 2.048 3.86 3.073 6.77 3.073 1.84 0 3.29-.333 4.42-1.145l-.678 3.416c-1.663.357-3.103.535-4.32.535-4.128 0-7.35-1.083-9.665-3.25-2.316-2.198-3.474-5.428-3.474-9.526 0-3.89 1.128-6.978 3.385-9.264 2.286-2.316 5.374-3.474 9.264-3.474 1.84 0 3.934.34 6.28 1.024zM283.22 120.767c-3.205 0-6.656.918-10.516 2.64l1.246 3.03c2.344-1.56 5.424-2.967 8.337-2.98 3.117-.012 4.674 1.893 4.674 5.723v1.282c-.89-.03-1.695-.03-2.407-.03-8.58 0-12.86 2.725-12.86 8.188 0 2.227.674 4.042 2.01 5.468 1.336 1.425 3.1 2.153 5.298 2.153 1.87 0 3.53-.518 5.015-1.557 1.484-1.07 2.38-2.416 3.002-4.198l.16 5.5h4.345v-17.37c0-2.763-.703-4.76-2.068-5.98-1.336-1.246-3.412-1.868-6.233-1.868zm.625 12.16c1.04 0 2.077.077 3.116.226-.06 1.84-.188 3.188-.396 4.08-.326 1.395-.95 2.616-1.87 3.625-1.157 1.277-2.56 1.898-4.192 1.898-1.217 0-2.204-.39-2.946-1.16-.713-.773-1.048-1.758-1.048-2.976 0-3.8 2.438-5.694 7.337-5.694zM320.12 120.767c-3.206 0-6.656.918-10.516 2.64l1.245 3.03c2.344-1.56 5.424-2.967 8.336-2.98 3.118-.012 4.674 1.893 4.674 5.723v1.282c-.89-.03-1.695-.03-2.407-.03-8.58 0-12.862 2.725-12.862 8.188 0 2.227.677 4.042 2.013 5.468 1.336 1.425 3.1 2.153 5.297 2.153 1.87 0 3.53-.518 5.014-1.557 1.485-1.07 2.38-2.416 3.003-4.198l.16 5.5h4.344v-17.37c0-2.763-.7-4.76-2.067-5.98-1.336-1.246-3.41-1.868-6.232-1.868zm.624 12.16c1.04 0 2.077.077 3.116.226-.06 1.84-.188 3.188-.396 4.08-.327 1.395-.95 2.616-1.87 3.625-1.158 1.277-2.56 1.898-4.192 1.898-1.218 0-2.204-.39-2.947-1.16-.712-.773-1.048-1.758-1.048-2.976 0-3.8 2.438-5.694 7.337-5.694zM350.377 124.74c.712 1.07 1.068 2.375 1.068 3.92 0 2.612-.83 4.616-2.494 6.012-1.632 1.366-3.784 2.05-6.457 2.05-.415 0-1.04-.06-1.87-.18-.802-.148-1.41-.222-1.826-.222-.416 0-.995.31-1.737.935-.742.624-1.114 1.143-1.114 1.56 0 .8.758 1.35 2.272 1.647.297.06 1.38.163 3.25.31l4.455.358c2.642.208 4.587.683 5.834 1.425 1.752 1.01 2.628 2.687 2.628 5.033 0 3.147-1.603 5.567-4.81 7.26-2.554 1.335-5.567 2.004-9.04 2.004-2.347 0-4.38-.386-6.103-1.158-2.286-1.01-3.43-2.54-3.43-4.588 0-1.425.654-2.73 1.96-3.92.802-.712 2.08-1.528 3.83-2.45-3.414-.503-5.12-1.884-5.12-4.14 0-1.307.578-2.376 1.736-3.207.386-.268 1.53-.848 3.43-1.738-3.09-1.247-4.633-3.623-4.633-7.126 0-2.613.936-4.603 2.806-5.968 1.664-1.218 3.846-1.826 6.548-1.826 2.465 0 4.825.52 7.082 1.558 2.197 0 4.26-.148 6.19-.445v3.25zm-3.697 3.74c0-1.632-.37-2.953-1.113-3.963-.832-1.128-2.05-1.692-3.653-1.692-1.633 0-2.894.58-3.785 1.737-.803 1.04-1.204 2.405-1.204 4.097 0 1.603.4 2.924 1.203 3.963.89 1.158 2.107 1.737 3.65 1.737 1.604 0 2.85-.594 3.742-1.78.772-1.07 1.158-2.436 1.158-4.1m3.83 20.533c0-2.643-2.954-3.964-8.863-3.964-.386 0-.935.013-1.648.043h-1.65c-1.127 1.01-1.87 1.737-2.225 2.183-.743.92-1.114 1.855-1.114 2.806 0 1.514.833 2.642 2.495 3.384 1.247.535 2.732.802 4.454.802 2.137 0 3.978-.356 5.522-1.07 2.02-.92 3.028-2.315 3.028-4.185M362.376 121.155h-4.624v18.106c0 4.662 2.36 6.97 7.082 6.97 3.652 0 6.396-1.927 7.91-5.58l.16 5.335h4.345v-24.83h-4.626l-.198 12.44c0 6.028-1.97 9.037-5.95 9.037-2.94 0-4.418-1.61-4.418-4.816z" font-size="49.131" letter-spacing="-1.306" word-spacing="0" font-family="LaudatioC"/><g color="#000"><path d="M243.847 121.155h4.625v24.83h-4.625zM248.898 115.72c0 1.514-1.226 2.74-2.74 2.74-1.51 0-2.738-1.226-2.738-2.74 0-1.512 1.227-2.738 2.74-2.738 1.512 0 2.738 1.226 2.738 2.74z" overflow="visible"/></g><path d="M294.99 121.614v24.365h4.618v-13.05c0-6.595 3.185-9.71 7.422-7.574l1.473-3.598c-4.505-1.523-7.003.854-8.895 4.43l.007-5.812z" color="#000" overflow="visible"/><path d="M391.7 120.767c-3.207 0-6.658.918-10.518 2.64l1.246 3.03c2.345-1.56 5.425-2.967 8.337-2.98 3.118-.012 4.674 1.893 4.674 5.723v1.282c-.892-.03-1.696-.03-2.41-.03-8.58 0-12.86 2.725-12.86 8.188 0 2.227.675 4.042 2.012 5.468 1.336 1.425 3.1 2.153 5.297 2.153 1.87 0 3.528-.518 5.013-1.557 1.485-1.07 2.38-2.416 3.003-4.198l.16 5.5H400v-17.37c0-2.763-.702-4.76-2.068-5.98-1.336-1.246-3.41-1.868-6.232-1.868zm.623 12.16c1.04 0 2.077.077 3.116.226-.06 1.84-.19 3.188-.397 4.08-.327 1.395-.95 2.616-1.87 3.625-1.158 1.277-2.56 1.898-4.193 1.898-1.217 0-2.204-.39-2.946-1.16-.712-.773-1.048-1.758-1.048-2.976 0-3.8 2.438-5.694 7.337-5.694z" style="text-align:start;line-height:125%;-inkscape-font-specification:LaudatioC" font-size="49.131" letter-spacing="-1.306" word-spacing="0" font-family="LaudatioC"/></g><g word-spacing="0" fill="#406e19" font-family="LaudatioC"><path style="text-align:start;line-height:125%;-inkscape-font-specification:LaudatioC" d="M7.1 114.166H0v31.818h4.625v-25.778l8.718 25.778h2.35l11.098-27.525v27.524h4.626v-31.818h-6.714l-9.46 24.476zM45.867 120.767c-3.207 0-6.657.918-10.517 2.64l1.245 3.03c2.345-1.56 5.425-2.967 8.337-2.98 3.118-.012 4.674 1.893 4.674 5.723v1.282c-.89-.03-1.695-.03-2.407-.03-8.582 0-12.862 2.725-12.862 8.188 0 2.227.675 4.042 2.01 5.468 1.337 1.425 3.1 2.153 5.298 2.153 1.87 0 3.53-.518 5.014-1.557 1.485-1.07 2.38-2.416 3.003-4.198l.16 5.5h4.344v-17.37c0-2.763-.702-4.76-2.068-5.98-1.337-1.246-3.412-1.868-6.233-1.868zm.623 12.16c1.04 0 2.077.077 3.116.226-.06 1.84-.188 3.188-.396 4.08-.327 1.395-.95 2.616-1.87 3.625-1.158 1.277-2.56 1.898-4.192 1.898-1.218 0-2.204-.39-2.947-1.16-.71-.773-1.047-1.758-1.047-2.976 0-3.8 2.438-5.694 7.337-5.694zM123.277 124.74c.713 1.07 1.07 2.375 1.07 3.92 0 2.612-.832 4.616-2.495 6.012-1.633 1.366-3.786 2.05-6.458 2.05-.416 0-1.04-.06-1.87-.18-.802-.148-1.41-.222-1.827-.222-.415 0-.994.31-1.737.935-.742.624-1.113 1.143-1.113 1.56 0 .8.757 1.35 2.27 1.647.298.06 1.382.163 3.253.31l4.453.358c2.643.208 4.588.683 5.835 1.425 1.75 1.01 2.627 2.687 2.627 5.033 0 3.147-1.603 5.567-4.81 7.26-2.553 1.335-5.567 2.004-9.04 2.004-2.346 0-4.38-.386-6.102-1.158-2.287-1.01-3.43-2.54-3.43-4.588 0-1.425.653-2.73 1.96-3.92.802-.712 2.078-1.528 3.83-2.45-3.414-.503-5.122-1.884-5.122-4.14 0-1.307.58-2.376 1.738-3.207.386-.268 1.53-.848 3.43-1.738-3.088-1.247-4.632-3.623-4.632-7.126 0-2.613.935-4.603 2.806-5.968 1.662-1.218 3.845-1.826 6.547-1.826 2.463 0 4.823.52 7.08 1.558 2.197 0 4.26-.148 6.19-.445v3.25zm-3.697 3.74c0-1.632-.37-2.953-1.113-3.963-.83-1.128-2.05-1.692-3.652-1.692-1.633 0-2.895.58-3.786 1.737-.802 1.04-1.203 2.405-1.203 4.097 0 1.603.4 2.924 1.202 3.963.89 1.158 2.107 1.737 3.65 1.737 1.605 0 2.852-.594 3.742-1.78.772-1.07 1.158-2.436 1.158-4.1m3.83 20.533c0-2.643-2.954-3.964-8.862-3.964-.386 0-.936.013-1.648.043h-1.648c-1.128 1.01-1.87 1.737-2.227 2.183-.742.92-1.113 1.855-1.113 2.806 0 1.514.83 2.642 2.494 3.384 1.247.535 2.73.802 4.453.802 2.137 0 3.978-.356 5.522-1.07 2.02-.92 3.03-2.315 3.03-4.185" font-size="49.131" letter-spacing="-1.306"/><path d="M62.474 120.376l-4.625 1.238v24.37h4.624v-11.008c0-3.396.205-5.847.866-7.35 1.052-2.283 3.06-3.422 6.036-3.422 1.712 0 2.913.477 3.604 1.44.57.78.853 2.08.853 3.883v16.457l4.624-.078V130.12c0-3.246-.443-5.422-1.104-6.684-.96-1.803-2.935-2.697-5.91-2.697-2.253 0-4.066.415-5.448 1.256-1.382.842-2.53 2.263-3.52 4.276z" style="text-align:start;line-height:125%;-inkscape-font-specification:LaudatioC" font-size="100.812" letter-spacing="-3.5"/><path d="M92.908 120.767c-3.207 0-6.657.918-10.517 2.64l1.246 3.03c2.345-1.56 5.425-2.967 8.337-2.98 3.118-.012 4.675 1.893 4.675 5.723v1.282c-.89-.03-1.696-.03-2.408-.03-8.58 0-12.86 2.725-12.86 8.188 0 2.227.674 4.042 2.01 5.468 1.336 1.425 3.1 2.153 5.297 2.153 1.87 0 3.53-.518 5.014-1.557 1.486-1.07 2.38-2.416 3.004-4.198l.16 5.5h4.344v-17.37c0-2.763-.702-4.76-2.068-5.98-1.336-1.246-3.41-1.868-6.232-1.868zm.623 12.16c1.04 0 2.078.077 3.118.226-.06 1.84-.19 3.188-.397 4.08-.326 1.395-.948 2.616-1.87 3.625-1.157 1.277-2.558 1.898-4.19 1.898-1.22 0-2.205-.39-2.947-1.16-.713-.773-1.05-1.758-1.05-2.976 0-3.8 2.44-5.694 7.338-5.694zM164.6 120.767c-3.206 0-6.657.918-10.517 2.64l1.245 3.03c2.345-1.56 5.425-2.967 8.337-2.98 3.118-.012 4.675 1.893 4.675 5.723v1.282c-.89-.03-1.696-.03-2.408-.03-8.58 0-12.86 2.725-12.86 8.188 0 2.227.674 4.042 2.01 5.468 1.336 1.425 3.1 2.153 5.297 2.153 1.87 0 3.53-.518 5.013-1.557 1.485-1.07 2.38-2.416 3.003-4.198l.16 5.5h4.344v-17.37c0-2.763-.702-4.76-2.068-5.98-1.336-1.246-3.41-1.868-6.232-1.868zm.623 12.16c1.04 0 2.077.077 3.117.226-.06 1.84-.19 3.188-.397 4.08-.327 1.395-.95 2.616-1.87 3.625-1.158 1.277-2.56 1.898-4.192 1.898-1.217 0-2.203-.39-2.945-1.16-.713-.773-1.05-1.758-1.05-2.976 0-3.8 2.44-5.694 7.338-5.694zM135.277 121.155h-4.625v18.106c0 4.662 2.36 6.97 7.082 6.97 3.652 0 6.396-1.927 7.91-5.58l.16 5.335h4.345v-24.83h-4.625l-.198 12.44c0 6.028-1.97 9.037-5.95 9.037-2.94 0-4.42-1.61-4.42-4.816z" style="text-align:start;line-height:125%;-inkscape-font-specification:LaudatioC" font-size="49.131" letter-spacing="-1.306"/></g></svg>