<svg xmlns="http://www.w3.org/2000/svg" width="400" height="214.19"><path d="M362.397 131.288h-18.63v-7.368h18.63v7.368zm-10.494 11.208h-17.91v-7.37h17.91v7.37zm0 20.722h-17.91v-7.368h17.91v7.368zm-21.75 0h-20.37v-7.368h20.37v7.368zm-24.105 0h-40.334v-7.368h40.334v7.368zm-42.993 0H229.48v-7.368h33.575v7.368zm-36.08 0h-29.277v-7.368h29.277v7.368zm-33.012 0h-29.277v-7.368h29.277v7.368zm-33.47 0H135.67v-7.368h24.824v7.368zm-27.582 0H97.185v-7.368h35.727v7.368zm-39.053 0H72.464v-7.368h21.393v7.368zm-24.874 0H47.59v-7.368h21.393v7.368zm-35.517-17.402H55.17v7.368H33.465v-7.368zm-8.753-21.9h29.07v7.37h-29.07v-7.37zm22.877-10.243h21.393v7.37H47.59v-7.37zm11.36-10.636h21.09v7.372H58.95v-7.373zm13.514-10.244h21.393v7.368H72.464v-7.367zm24.717 0h35.728v7.368H97.18v-7.367zm33.628-10.638h48.11v7.37h-48.11v-7.37zm29.686-2.876H135.67v-7.37h24.824v7.37zm-29.686-18.005h48.11v7.368h-48.11v-7.368zm4.86-10.247h24.826v7.37H135.67v-7.37zm29.018 0h29.277v7.37h-29.277v-7.37zm0-20.876h29.277v7.368h-29.277v-7.368zm21.34-11.264h21.91v9.418h-21.91v-9.418zm40.95 18.632h-29.278v-7.368h29.277v7.368zm-43.658 2.872h37.672v7.372h-37.672v-7.372zM226.975 58.4h-29.277v-7.372h29.277v7.37zm2.505-7.372h33.575v7.37H229.48v-7.37zm33.575 28.25H229.48v-7.367h33.575v7.37zM295.3 89.527h-37.672v-7.372H295.3v7.372zm3.17-7.37h18.016v7.37H298.47v-7.37zm0-20.88h18.016v7.367H298.47v-7.368zm31.682 38.885h-20.37v-7.367h20.37v7.368zm11.514 10.245h-21.39v-7.37h21.39v7.37zm-21.393 13.512h21.39v7.368h-21.39v-7.368zm-37.925 21.9h33.983v7.367H282.35v-7.368zm-16.634-10.69h40.334v7.373h-40.334v-7.372zm-10.235 10.69h24.617v7.367H255.48v-7.368zm-26-10.69h33.575v7.373H229.48v-7.372zm-7.78 10.69h30.762v7.367h-30.76v-7.368zm-24.005-10.69h29.277v7.373h-29.277v-7.372zm-8.388 10.69h30.758v7.367h-30.758v-7.368zm-24.62-10.69h29.276v7.373h-29.277v-7.372zm-14.533 10.69h36.132v7.367h-36.132v-7.368zm-14.485-10.69h24.824v7.373H135.67v-7.372zm-24.056 10.69h36.135v7.367h-36.136v-7.368zm-14.433-10.69h35.728v7.373H97.18v-7.372zm-12.28 10.69h21.7v7.367H84.9v-7.368zm-12.436-10.69h21.393v7.373H72.464v-7.372zm-14.28 10.69h21.7v7.367h-21.7v-7.368zm10.8-3.32H47.59v-7.372h21.393v7.37zm11.055-11.21H58.95v-7.367h21.09v7.368zm13.817-10.243H72.464v-7.37h21.393v7.37zm31.63-10.64H83.212v-7.37h42.275v7.37zm0 20.884H83.212v-7.368h42.275v7.368zm7.424-10.244H97.185v-7.37h35.727v7.37zm61.053-20.883h-29.277v-7.367h29.277v7.368zm-10.645-18.005h37.672v7.37h-37.672v-7.37zm10.645-2.876h-29.277v-7.37h29.277v7.37zm27.023-10.637h-37.67v-7.368h37.67v7.368zm34.085 20.883h-32.448v-7.372h32.45v7.372zm7.985 10.635H229.48v-7.367h33.575v7.368zm32.245 10.245h-37.672v-7.37H295.3v7.37zm10.748-10.244h-40.334v-7.367h40.334v7.368zm10.438 10.245H298.47v-7.37h18.016v7.37zm-6.707 3.268h20.37v7.37h-20.37v-7.37zm-11.31 10.244h18.016v7.368H298.47v-7.368zm-32.756-10.244h40.334v7.37h-40.334v-7.37zm-8.086 10.244H295.3v7.368h-37.672v-7.368zm-28.148-10.244h33.575v7.37H229.48v-7.37zm-6.855 10.244h32.45v7.368h-32.45v-7.368zm-24.93-10.244h29.277v7.37h-29.277v-7.37zm-14.377 10.244h37.672v7.368h-37.672v-7.368zm37.668-13.512h-37.67v-7.37h37.67v7.37zm34.085 0h-32.448v-7.37h32.45v7.37zm-28.095-10.244h-29.277v-7.367h29.277v7.368zm-62.29 13.513h29.278v7.37h-29.277v-7.37zm-29.016 0h24.824v7.37H135.67v-7.37zm43.248 17.615h-48.11v-7.368h48.11v7.368zm43.707-70.013h32.45v7.368h-32.45v-7.368zm4.35 18.004h-29.277v-7.37h29.277v7.37zM135.67 92.792h24.824v7.368H135.67v-7.367zm43.248 17.612h-48.11v-7.37h48.11v7.37zm162.133 42.78h-21.086v-7.37h21.087v7.37zm-10.898-10.69h-20.37v-7.37h20.37v7.37zm21.75-21.45h-17.91v-7.372h17.91v7.37zm15.356 10.243v-7.37h9.928v-2.055l-1.287-.82h-20.262v-7.37h8.724l-5.117-3.268h-15.483v-7.368h3.94l-4.5-2.876h-9.213V94.28l-7.448-4.752h-6.27v-7.37h5.938v-2.877h-16.43v-7.37h16.43v-3.267h-5.937v-7.368h5.937V58.4h-16.43v-7.372h16.43v-1.02h-30.094v1.02h9.932v7.37h-9.932v13.513h9.932v7.37h-40.334v-7.37h30.103l-4.735-3.267h-33.454v-7.368h22.762l-4.17-2.876h-10.506v-7.244l-4.923-3.392h-3.162v-2.18l-2.557-1.766v3.946h-32.445v-7.372h27.477l-4.17-2.872H229.48v-7.368h5.765l-3.152-2.175v.33h-21.907v-9.42h8.724l-2.583-1.78v.145H178.45v-.404l-2.964 2.04h7.477v9.418H161.77l-2.682 1.846h1.406v7.368H148.36l-4.185 2.872h34.743v7.372h-45.474l-4.755 3.264h4.22v7.37H117.96l-4.186 2.877h11.715v7.368h-22.442l-4.758 3.268h34.624v7.37H97.18v-6.61l-3.323 2.28v4.33h-6.302l-4.185 2.875h42.117v7.37H83.212v-7.258l-3.173 2.178v5.08h-7.4l-4.756 3.268h1.1v7.368H57.148l-4.183 2.877h.816v7.368H42.24l-4.76 3.268h6.783v7.37h-17.51l-2.092 1.432v12.653h19.603v7.368H24.66v3.32h7.016v7.368H24.66v2.666h19.603v7.368H24.66v2.866h352.526v-2.866h-21.548v-7.368h21.548v-2.666H343.61v-7.368h33.576v-3.32h-21.548v-7.368h21.548v-3.84M197.238 3.948l-4.17 2.863h8.326" fill="#bebb9f"/><path d="M24.713 131.285h29.07v-7.368h-29.07v7.368zM24.66 142.5h19.603v-7.372H24.66v7.37zM24.664 153.184h7.012v-7.368h-7.012v7.368zM33.463 153.184h21.702v-7.368H33.463v7.368zM58.183 153.184h21.702v-7.368H58.183v7.368zM84.9 153.184h21.7v-7.368H84.9v7.368zM111.614 153.184h36.135v-7.368h-36.136v7.368zM150.154 153.184h36.132v-7.368h-36.132v7.368zM189.307 153.184h30.758v-7.368h-30.758v7.368zM221.7 153.184h30.762v-7.368h-30.76v7.368zM255.48 153.184h24.617v-7.368H255.48v7.368zM282.35 153.184h33.984v-7.368H282.35v7.368zM319.967 153.184h21.087v-7.368h-21.087v7.368zM343.61 153.184h33.576v-7.368H343.61v7.368zM47.59 142.496h21.393v-7.37H47.59v7.37zM72.464 142.5h21.393v-7.372H72.464v7.37zM97.184 142.5h35.727v-7.372H97.185v7.37zM135.67 142.5h24.824v-7.372H135.67v7.37zM164.686 142.5h29.277v-7.372h-29.277v7.37zM197.698 142.5h29.277v-7.372h-29.277v7.37zM229.48 142.5h33.575v-7.372H229.48v7.37zM265.714 142.5h40.334v-7.372h-40.334v7.37zM309.78 142.496h20.37v-7.37h-20.37v7.37zM333.99 142.496h17.91v-7.37h-17.91v7.37zM355.638 142.496h21.544v-7.37h-21.544v7.37zM24.66 163.218h19.603v-7.368H24.66v7.368zM47.59 163.218h21.393v-7.368H47.59v7.368zM72.464 163.218h21.393v-7.368H72.464v7.368zM97.18 163.218h35.728v-7.368H97.18v7.368zM135.67 163.218h24.824v-7.368H135.67v7.368zM164.686 163.218h29.277v-7.368h-29.277v7.368zM197.695 163.218h29.277v-7.368h-29.277v7.368zM229.48 163.218h33.575v-7.368H229.48v7.368zM265.714 163.218h40.334v-7.368h-40.334v7.368zM309.78 163.218h20.37v-7.368h-20.37v7.368zM333.99 163.218h17.91v-7.368h-17.91v7.368zM355.638 163.218h21.544v-7.368h-21.544v7.368zM44.263 113.673h-6.785l-10.728 7.37h17.513M47.59 121.044h21.393v-7.37H47.59v7.37zM72.464 121.044h21.393v-7.37H72.464v7.37zM97.18 121.044h35.728v-7.37H97.18v7.37zM135.67 121.044h24.824v-7.37H135.67v7.37zM164.686 121.044h29.277v-7.37h-29.277v7.37zM197.698 121.044h29.277v-7.37h-29.277v7.37zM229.48 121.044h33.575v-7.37H229.48v7.37zM265.714 121.044h40.334v-7.37h-40.334v7.37zM309.782 121.044h20.37v-7.37h-20.37v7.37zM333.99 121.044h17.91v-7.37h-17.91v7.37zM355.638 121.044h20.26l-11.54-7.37h-8.72M58.95 131.288h21.09v-7.368H58.95v7.368zM83.212 131.288h42.275v-7.368H83.212v7.368zM130.81 131.288h48.108v-7.368h-48.11v7.368zM183.315 131.285h37.67v-7.368h-37.67v7.368zM257.628 131.285H295.3v-7.368h-37.672v7.368zM222.622 131.285h32.45v-7.368h-32.45v7.368zM298.47 131.285h18.016v-7.368H298.47v7.368zM320.277 131.285h21.39v-7.368h-21.39v7.368zM343.762 131.288h18.632v-7.368h-18.632v7.368zM367.258 131.288h9.928v-7.368h-9.928v7.368zM53.783 103.037h-.816l-10.73 7.372h11.546M68.983 92.793h-1.1L57.15 100.16h11.833M72.464 100.16h21.393v-7.367H72.464v7.368zM97.184 100.16h35.727v-7.367H97.185v7.368zM135.67 100.16h24.824v-7.367H135.67v7.368zM164.686 100.16h29.277v-7.367h-29.277v7.368zM197.695 100.16h29.277v-7.367h-29.277v7.368zM229.48 100.16h33.575v-7.367H229.48v7.368zM265.714 100.16h40.334v-7.367h-40.334v7.368zM309.78 100.16h20.37v-7.367h-20.37v7.368zM343.203 100.16l-9.21-5.882v5.883M58.95 110.41h21.09v-7.373H58.95v7.372zM83.212 110.405h42.275v-7.37H83.212v7.37zM130.81 110.405h48.108v-7.37h-48.11v7.37zM183.318 110.405h37.672v-7.37h-37.672v7.37zM257.628 110.405H295.3v-7.37h-37.672v7.37zM222.625 110.405h32.45v-7.37h-32.45v7.37zM298.47 110.405h18.016v-7.37H298.47v7.37zM320.273 110.405h21.39v-7.37h-21.39v7.37zM343.762 110.405h15.48l-11.54-7.37h-3.94M93.857 74.955l-6.3 4.327h6.3M97.18 71.91v.758l1.103-.757M132.91 79.28v-7.37H98.288l-1.103.758v6.61M135.67 79.28h24.824v-7.37H135.67v7.37zM164.686 79.28h29.277v-7.37h-29.277v7.37zM197.695 79.28h29.277v-7.37h-29.277v7.37zM229.48 79.28h33.575v-7.37H229.48v7.37zM296.116 72.118v-.207h-.3" fill="#ed1c24"/><path d="M295.817 71.91h-30.104v7.37h40.334v-7.37h-9.93v.208M309.78 79.28h16.43v-7.37h-16.43v7.37zM80.04 84.445l-7.4 5.08h7.4M83.212 82.155v.112l.158-.112" fill="#ed1c24"/><path d="M125.487 89.526v-7.37H83.37l-.158.11v7.26M130.81 89.526h48.108v-7.372h-48.11v7.372zM183.315 89.526h37.67v-7.372h-37.67v7.372zM257.628 89.526H295.3v-7.372h-37.672v7.372zM222.625 89.526h32.45v-7.372h-32.45v7.372zM298.47 89.526h18.016v-7.372H298.47v7.372zM320.273 89.526h6.27l-.333-.21v-7.16h-5.937M132.91 51.03h-4.22l-10.732 7.372h14.953M135.67 58.4h24.824v-7.372H135.67v7.37zM164.686 58.4h29.277v-7.372h-29.277v7.37zM197.695 58.4h29.277v-7.372h-29.277v7.37zM229.48 58.4h33.575v-7.372H229.48v7.37zM276.22 58.4l-10.506-7.244V58.4M296.116 58.4h9.932v-7.372h-9.932v7.37zM309.78 58.4h16.43v-7.372h-16.43v7.37zM125.487 61.275h-11.715l-10.727 7.368h22.442M130.81 68.643h48.108v-7.368h-48.11v7.368zM183.318 68.643h37.672v-7.368h-37.672v7.368zM257.628 61.275v7.368h33.454l-10.692-7.368M222.622 68.643h32.45v-7.368h-32.45v7.368zM298.47 68.643h18.016v-7.368H298.47v7.368zM320.273 68.643h5.937v-7.368h-5.937v7.368zM160.494 30.152h-1.405l-10.73 7.368h12.134M164.686 37.52h29.277v-7.368h-29.277v7.368zM197.695 37.52h29.277v-7.368h-29.277v7.368zM186.03 28.306h21.91v-9.418h-21.91v9.418zM216.327 17.252v-.14l-14.933-10.3h-8.326L178.45 16.847v.404M210.186 28.306h21.906v-.333l-13.182-9.085h-8.724M182.963 18.888h-7.477l-13.715 9.418h21.193M229.48 37.52h16.453l-10.688-7.368h-5.765M178.918 40.392h-34.743l-10.73 7.372h45.473M183.315 47.764h37.67v-7.372h-37.67v7.372zM260.79 47.764l-3.162-2.18v2.18M222.625 47.764h32.446v-3.946l-4.97-3.426h-27.475" fill="#ed1c24"/><path d="M23.614 122.475v43.605h352.522v-44.217l-50.976-32.55V50.007h-30.09v22.11L196.19 3.945 23.615 122.475z" fill="none" stroke="#231f20" stroke-width="6.58138"/><path d="M135.39 151.34s31.935-15.965 44.22-60.185c0 0 3.066-49.13 17.81-61.415 0 0-49.135-1.842-62.646 42.99" fill="#00aeef"/><path d="M135.39 151.34s31.935-15.965 44.22-60.185c0 0 3.066-49.13 17.81-61.415 0 0-49.135-1.842-62.646 42.99l.615 78.61z" fill="none" stroke="#fff" stroke-width=".8226725"/><path d="M257.605 151.34s-31.936-15.965-44.217-60.185c0 0-3.07-49.13-17.812-61.415 0 0 49.137-1.842 62.645 42.99" fill="#00aeef"/><path d="M257.605 151.34s-31.936-15.965-44.217-60.185c0 0-3.07-49.13-17.812-61.415 0 0 49.137-1.842 62.645 42.99l-.615 78.61z" fill="none" stroke="#fff" stroke-width=".8226725"/><path d="M195.576 161.783h2.455V29.743h-2.454v132.04z" fill="#231f20"/><path d="M135.39 84.096h122.828v-2.458h-122.83v2.458z" fill="#231f20"/><path d="M114.93 118.74v34.362c0 1.82.086 2.935.26 3.347.172.41.465.723.88.94.582.326 1.428.487 2.53.487 3.616 0 6.377-1.234 8.283-3.702 2.6-3.334 3.896-8.51 3.896-15.526 0-5.65-.886-10.166-2.663-13.542-1.406-2.642-3.215-4.44-5.423-5.393-1.56-.672-4.147-.994-7.763-.974M98.14 160.283v-1.204h1.46c1.278 0 2.26-.198 2.943-.6.683-.4 1.186-.947 1.512-1.64.194-.455.293-1.82.293-4.095v-28.968c0-2.25-.122-3.66-.36-4.222-.236-.562-.72-1.056-1.444-1.477-.726-.425-1.707-.635-2.94-.635h-1.462v-1.2h19.715c5.262 0 9.494.714 12.702 2.145 3.916 1.75 6.887 4.403 8.915 7.957 2.023 3.55 3.034 7.565 3.034 12.047 0 3.096-.497 5.95-1.494 8.558-.994 2.61-2.284 4.765-3.864 6.463-1.58 1.703-3.406 3.065-5.472 4.095-2.07 1.027-4.597 1.823-7.585 2.386-1.32.26-3.4.392-6.237.392" fill="#fff"/><path d="M114.93 118.74v34.362c0 1.82.086 2.935.26 3.347.172.41.465.723.88.94.582.326 1.428.487 2.53.487 3.616 0 6.377-1.234 8.283-3.702 2.6-3.334 3.896-8.51 3.896-15.526 0-5.65-.886-10.166-2.663-13.542-1.406-2.642-3.215-4.44-5.423-5.393-1.56-.672-4.147-.994-7.763-.974z" fill="none" stroke="#fff" stroke-width="3.29069"/><path d="M98.138 160.282v-1.204h1.46c1.278 0 2.26-.198 2.943-.6.683-.4 1.186-.947 1.512-1.64.194-.455.293-1.82.293-4.095v-28.968c0-2.25-.122-3.66-.36-4.222-.236-.562-.72-1.056-1.444-1.477-.726-.425-1.707-.635-2.94-.635h-1.462v-1.2h19.715c5.262 0 9.494.714 12.702 2.145 3.916 1.75 6.887 4.403 8.915 7.957 2.023 3.55 3.034 7.565 3.034 12.047 0 3.096-.497 5.95-1.494 8.558-.994 2.61-2.284 4.765-3.864 6.463-1.58 1.703-3.406 3.065-5.472 4.095-2.07 1.027-4.597 1.823-7.585 2.386-1.32.26-3.4.392-6.237.392H98.138z" fill="none" stroke="#fff" stroke-width="3.29069"/><path d="M169.658 159.078v1.2H146.63v-1.2h1.46c1.278 0 2.308-.227 3.088-.68.562-.304.997-.824 1.3-1.56.236-.52.358-1.883.358-4.095v-28.97c0-2.252-.122-3.657-.36-4.223-.235-.563-.72-1.056-1.443-1.474-.727-.425-1.708-.635-2.942-.635h-1.46v-1.2h23.028v1.2h-1.46c-1.28 0-2.308.228-3.088.682-.562.303-1.007.823-1.332 1.56-.237.52-.356 1.885-.356 4.09v28.97c0 2.255.125 3.66.375 4.223.247.566.734 1.057 1.462 1.48.722.422 1.703.633 2.937.633" fill="#fff"/><path d="M169.658 159.078v1.2H146.63v-1.2h1.46c1.278 0 2.308-.227 3.088-.68.562-.304.997-.824 1.3-1.56.236-.52.358-1.883.358-4.095v-28.97c0-2.252-.122-3.657-.36-4.223-.235-.563-.72-1.056-1.443-1.474-.727-.425-1.708-.635-2.942-.635h-1.46v-1.2h23.028v1.2h-1.46c-1.28 0-2.308.228-3.088.682-.562.303-1.007.823-1.332 1.56-.237.52-.356 1.885-.356 4.09v28.97c0 2.255.125 3.66.375 4.223.247.566.734 1.057 1.462 1.48.722.422 1.703.633 2.937.633h1.46z" fill="none" stroke="#fff" stroke-width="3.29069"/><path d="M187.75 116.24l21.73 27.312v-18.934c0-2.64-.38-4.426-1.14-5.36-1.04-1.254-2.78-1.86-5.23-1.817v-1.2h14.553v1.2c-1.863.24-3.113.547-3.752.925-.637.382-1.137.998-1.493 1.853-.355.856-.536 2.323-.536 4.4v36.668h-1.1l-29.785-36.668v27.997c0 2.534.58 4.245 1.737 5.13 1.158.89 2.485 1.333 3.98 1.333h1.038v1.2h-15.624v-1.2c2.425-.02 4.114-.52 5.068-1.494.954-.974 1.43-2.63 1.43-4.97v-31.083l-.943-1.167c-.93-1.168-1.753-1.935-2.467-2.304-.714-.37-1.74-.576-3.087-.62v-1.2" fill="#fff"/><path d="M187.75 116.24l21.73 27.312v-18.934c0-2.64-.38-4.426-1.14-5.36-1.04-1.254-2.78-1.86-5.23-1.817v-1.2h14.553v1.2c-1.863.24-3.113.547-3.752.925-.637.382-1.137.998-1.493 1.853-.355.856-.536 2.323-.536 4.4v36.668h-1.1l-29.785-36.668v27.997c0 2.534.58 4.245 1.737 5.13 1.158.89 2.485 1.333 3.98 1.333h1.038v1.2h-15.624v-1.2c2.425-.02 4.114-.52 5.068-1.494.954-.974 1.43-2.63 1.43-4.97v-31.083l-.943-1.167c-.93-1.168-1.753-1.935-2.467-2.304-.714-.37-1.74-.576-3.087-.62v-1.2h15.624z" fill="none" stroke="#fff" stroke-width="3.29069"/><path d="M250.464 115.233l.36 14.68h-1.334c-.628-3.68-2.172-6.64-4.63-8.882-2.455-2.24-5.113-3.362-7.97-3.362-2.208 0-3.958.59-5.245 1.77-1.29 1.182-1.935 2.54-1.935 4.077 0 .974.227 1.84.68 2.6.63 1.017 1.637 2.024 3.022 3.018 1.017.714 3.366 1.98 7.05 3.8 5.152 2.534 8.627 4.927 10.424 7.177 1.777 2.254 2.665 4.83 2.665 7.73 0 3.682-1.434 6.848-4.303 9.5-2.87 2.656-6.512 3.98-10.93 3.98-1.384 0-2.694-.143-3.928-.422-1.235-.28-2.785-.813-4.647-1.59-1.04-.434-1.896-.65-2.567-.65-.563 0-1.158.216-1.783.65-.63.43-1.14 1.093-1.527 1.98h-1.2v-16.63h1.2c.95 4.676 2.787 8.243 5.505 10.7 2.72 2.46 5.645 3.687 8.784 3.687 2.425 0 4.357-.658 5.798-1.98 1.44-1.32 2.162-2.857 2.162-4.61 0-1.04-.276-2.048-.83-3.022-.552-.974-1.39-1.902-2.517-2.777-1.125-.876-3.12-2.018-5.975-3.426-4.008-1.97-6.888-3.65-8.638-5.035-1.754-1.385-3.104-2.935-4.045-4.646-.942-1.71-1.412-3.59-1.412-5.65 0-3.51 1.286-6.497 3.863-8.965s5.825-3.702 9.745-3.702c1.428 0 2.813.174 4.156.52 1.02.26 2.258.74 3.72 1.444 1.464.704 2.484 1.057 3.07 1.057.562 0 1.006-.175 1.332-.52.323-.346.63-1.182.908-2.5" fill="#fff"/><path d="M250.464 115.233l.36 14.68h-1.334c-.628-3.68-2.172-6.64-4.63-8.882-2.455-2.24-5.113-3.362-7.97-3.362-2.208 0-3.958.59-5.245 1.77-1.29 1.182-1.935 2.54-1.935 4.077 0 .974.227 1.84.68 2.6.63 1.017 1.637 2.024 3.022 3.018 1.017.714 3.366 1.98 7.05 3.8 5.152 2.534 8.627 4.927 10.424 7.177 1.777 2.254 2.665 4.83 2.665 7.73 0 3.682-1.434 6.848-4.303 9.5-2.87 2.656-6.512 3.98-10.93 3.98-1.384 0-2.694-.143-3.928-.422-1.235-.28-2.785-.813-4.647-1.59-1.04-.434-1.896-.65-2.567-.65-.563 0-1.158.216-1.783.65-.63.43-1.14 1.093-1.527 1.98h-1.2v-16.63h1.2c.95 4.676 2.787 8.243 5.505 10.7 2.72 2.46 5.645 3.687 8.784 3.687 2.425 0 4.357-.658 5.798-1.98 1.44-1.32 2.162-2.857 2.162-4.61 0-1.04-.276-2.048-.83-3.022-.552-.974-1.39-1.902-2.517-2.777-1.125-.876-3.12-2.018-5.975-3.426-4.008-1.97-6.888-3.65-8.638-5.035-1.754-1.385-3.104-2.935-4.045-4.646-.942-1.71-1.412-3.59-1.412-5.65 0-3.51 1.286-6.497 3.863-8.965s5.825-3.702 9.745-3.702c1.428 0 2.813.174 4.156.52 1.02.26 2.258.74 3.72 1.444 1.464.704 2.484 1.057 3.07 1.057.562 0 1.006-.175 1.332-.52.323-.346.63-1.182.908-2.5h.974z" fill="none" stroke="#fff" stroke-width="3.29069"/><path d="M282.782 145.34l-6.56-15.164-6.757 15.163h13.317zm1.103 2.405H268.33l-1.853 4.284c-.605 1.43-.908 2.612-.908 3.54 0 1.234.496 2.142 1.493 2.73.582.347 2.024.603 4.32.78v1.202h-14.65v-1.2c1.58-.238 2.88-.9 3.9-1.97 1.017-1.072 2.27-3.283 3.768-6.636l15.75-35.148h.62l15.88 36.12c1.516 3.418 2.76 5.576 3.734 6.462.737.668 1.777 1.062 3.12 1.17v1.202h-21.307v-1.2h.875c1.71 0 2.916-.238 3.607-.718.476-.343.713-.843.713-1.49 0-.396-.066-.79-.194-1.202-.044-.198-.37-1.01-.976-2.442" fill="#fff"/><path d="M282.782 145.34l-6.56-15.164-6.757 15.163h13.317z" fill="none" stroke="#fff" stroke-width="3.29069"/><path d="M283.885 147.745H268.33l-1.853 4.284c-.605 1.43-.908 2.612-.908 3.54 0 1.234.496 2.142 1.493 2.73.582.347 2.024.603 4.32.78v1.202h-14.65v-1.2c1.58-.238 2.88-.9 3.9-1.97 1.017-1.072 2.27-3.283 3.768-6.636l15.75-35.148h.62l15.88 36.12c1.516 3.418 2.76 5.576 3.734 6.462.737.668 1.777 1.062 3.12 1.17v1.202h-21.307v-1.2h.875c1.71 0 2.916-.238 3.607-.718.476-.343.713-.843.713-1.49 0-.396-.066-.79-.194-1.202-.044-.198-.37-1.01-.976-2.442l-2.34-5.485z" fill="none" stroke="#fff" stroke-width="3.29069"/><path d="M114.93 118.74v34.362c0 1.82.086 2.935.26 3.347.172.41.465.723.88.94.582.326 1.428.487 2.53.487 3.616 0 6.377-1.234 8.283-3.702 2.6-3.334 3.896-8.51 3.896-15.526 0-5.65-.886-10.166-2.663-13.542-1.406-2.642-3.215-4.44-5.423-5.393-1.56-.672-4.147-.994-7.763-.974M98.14 160.283v-1.204h1.46c1.278 0 2.26-.198 2.943-.6.683-.4 1.186-.947 1.512-1.64.194-.455.293-1.82.293-4.095v-28.968c0-2.25-.122-3.66-.36-4.222-.236-.562-.72-1.056-1.444-1.477-.726-.425-1.707-.635-2.94-.635h-1.462v-1.2h19.715c5.262 0 9.494.714 12.702 2.145 3.916 1.75 6.887 4.403 8.915 7.957 2.023 3.55 3.034 7.565 3.034 12.047 0 3.096-.497 5.95-1.494 8.558-.994 2.61-2.284 4.765-3.864 6.463-1.58 1.703-3.406 3.065-5.472 4.095-2.07 1.027-4.597 1.823-7.585 2.386-1.32.26-3.4.392-6.237.392M169.658 159.078v1.2H146.63v-1.2h1.46c1.278 0 2.308-.227 3.088-.68.562-.304.997-.824 1.3-1.56.236-.52.358-1.883.358-4.095v-28.97c0-2.252-.122-3.657-.36-4.223-.235-.563-.72-1.056-1.443-1.474-.727-.425-1.708-.635-2.942-.635h-1.46v-1.2h23.028v1.2h-1.46c-1.28 0-2.308.228-3.088.682-.562.303-1.007.823-1.332 1.56-.237.52-.356 1.885-.356 4.09v28.97c0 2.255.125 3.66.375 4.223.247.566.734 1.057 1.462 1.48.722.422 1.703.633 2.937.633M187.75 116.24l21.73 27.312v-18.934c0-2.64-.38-4.426-1.14-5.36-1.04-1.254-2.78-1.86-5.23-1.817v-1.2h14.553v1.2c-1.863.24-3.113.547-3.752.925-.637.382-1.137.998-1.493 1.853-.355.856-.536 2.323-.536 4.4v36.668h-1.1l-29.785-36.668v27.997c0 2.534.58 4.245 1.737 5.13 1.158.89 2.485 1.333 3.98 1.333h1.038v1.2h-15.624v-1.2c2.425-.02 4.114-.52 5.068-1.494.954-.974 1.43-2.63 1.43-4.97v-31.083l-.943-1.167c-.93-1.168-1.753-1.935-2.467-2.304-.714-.37-1.74-.576-3.087-.62v-1.2M250.464 115.233l.36 14.68h-1.334c-.628-3.68-2.172-6.64-4.63-8.882-2.455-2.24-5.113-3.362-7.97-3.362-2.208 0-3.958.59-5.245 1.77-1.29 1.182-1.935 2.54-1.935 4.077 0 .974.227 1.84.68 2.6.63 1.017 1.637 2.024 3.022 3.018 1.017.714 3.366 1.98 7.05 3.8 5.152 2.534 8.627 4.927 10.424 7.177 1.777 2.254 2.665 4.83 2.665 7.73 0 3.682-1.434 6.848-4.303 9.5-2.87 2.656-6.512 3.98-10.93 3.98-1.384 0-2.694-.143-3.928-.422-1.235-.28-2.785-.813-4.647-1.59-1.04-.434-1.896-.65-2.567-.65-.563 0-1.158.216-1.783.65-.63.43-1.14 1.093-1.527 1.98h-1.2v-16.63h1.2c.95 4.676 2.787 8.243 5.505 10.7 2.72 2.46 5.645 3.687 8.784 3.687 2.425 0 4.357-.658 5.798-1.98 1.44-1.32 2.162-2.857 2.162-4.61 0-1.04-.276-2.048-.83-3.022-.552-.974-1.39-1.902-2.517-2.777-1.125-.876-3.12-2.018-5.975-3.426-4.008-1.97-6.888-3.65-8.638-5.035-1.754-1.385-3.104-2.935-4.045-4.646-.942-1.71-1.412-3.59-1.412-5.65 0-3.51 1.286-6.497 3.863-8.965s5.825-3.702 9.745-3.702c1.428 0 2.813.174 4.156.52 1.02.26 2.258.74 3.72 1.444 1.464.704 2.484 1.057 3.07 1.057.562 0 1.006-.175 1.332-.52.323-.346.63-1.182.908-2.5M282.782 145.34l-6.56-15.164-6.757 15.163h13.317zm1.103 2.405H268.33l-1.853 4.284c-.605 1.43-.908 2.612-.908 3.54 0 1.234.496 2.142 1.493 2.73.582.347 2.024.603 4.32.78v1.202h-14.65v-1.2c1.58-.238 2.88-.9 3.9-1.97 1.017-1.072 2.27-3.283 3.768-6.636l15.75-35.148h.62l15.88 36.12c1.516 3.418 2.76 5.576 3.734 6.462.737.668 1.777 1.062 3.12 1.17v1.202h-21.307v-1.2h.875c1.71 0 2.916-.238 3.607-.718.476-.343.713-.843.713-1.49 0-.396-.066-.79-.194-1.202-.044-.198-.37-1.01-.976-2.442" fill="#19469d"/><path d="M115.16 118.74v34.362c0 1.82.087 2.935.26 3.347.172.41.465.723.88.94.582.326 1.428.487 2.53.487 3.617 0 6.378-1.234 8.283-3.702 2.6-3.334 3.896-8.51 3.896-15.526 0-5.65-.886-10.166-2.663-13.542-1.405-2.642-3.215-4.44-5.423-5.393-1.56-.672-4.146-.994-7.763-.974m-16.79 41.542v-1.204h1.46c1.277 0 2.257-.198 2.942-.6.68-.4 1.184-.947 1.51-1.64.194-.455.293-1.82.293-4.095v-28.968c0-2.25-.122-3.66-.36-4.222-.236-.562-.72-1.056-1.443-1.477-.728-.425-1.708-.635-2.942-.635h-1.46v-1.2h19.713c5.262 0 9.494.714 12.702 2.145 3.916 1.75 6.888 4.403 8.915 7.957 2.024 3.55 3.034 7.565 3.034 12.047 0 3.096-.497 5.95-1.494 8.558-.994 2.61-2.284 4.765-3.863 6.463-1.58 1.703-3.406 3.065-5.473 4.095-2.07 1.027-4.597 1.823-7.585 2.386-1.32.26-3.4.392-6.237.392M169.89 159.078v1.2h-23.03v-1.2h1.46c1.278 0 2.308-.227 3.088-.68.563-.304.997-.824 1.3-1.56.237-.52.36-1.883.36-4.095v-28.97c0-2.252-.123-3.657-.36-4.223-.237-.563-.72-1.056-1.445-1.474-.727-.425-1.708-.635-2.942-.635h-1.46v-1.2h23.03v1.2h-1.463c-1.28 0-2.306.228-3.086.682-.562.303-1.006.823-1.332 1.56-.237.52-.355 1.885-.355 4.09v28.97c0 2.255.125 3.66.375 4.223.247.566.734 1.057 1.46 1.48.725.422 1.705.633 2.94.633M187.978 116.24l21.728 27.312v-18.934c0-2.64-.378-4.426-1.14-5.36-1.038-1.254-2.78-1.86-5.227-1.817v-1.2h14.55v1.2c-1.863.24-3.113.547-3.75.925-.64.382-1.14.998-1.495 1.853-.356.856-.537 2.323-.537 4.4v36.668h-1.102l-29.784-36.668v27.997c0 2.534.58 4.245 1.737 5.13 1.158.89 2.484 1.333 3.978 1.333h1.04v1.2h-15.625v-1.2c2.426-.02 4.114-.52 5.068-1.494.955-.974 1.433-2.63 1.433-4.97v-31.083l-.945-1.167c-.93-1.168-1.754-1.935-2.468-2.304-.714-.37-1.74-.576-3.087-.62v-1.2M250.695 115.233l.36 14.68h-1.334c-.628-3.68-2.17-6.64-4.63-8.882-2.454-2.24-5.113-3.362-7.97-3.362-2.207 0-3.958.59-5.244 1.77-1.29 1.182-1.935 2.54-1.935 4.077 0 .974.228 1.84.682 2.6.628 1.017 1.635 2.024 3.02 3.018 1.017.714 3.367 1.98 7.05 3.8 5.153 2.534 8.628 4.927 10.424 7.177 1.777 2.254 2.666 4.83 2.666 7.73 0 3.682-1.435 6.848-4.305 9.5-2.87 2.656-6.512 3.98-10.928 3.98-1.386 0-2.696-.143-3.93-.422-1.234-.28-2.784-.813-4.646-1.59-1.04-.434-1.896-.65-2.567-.65-.563 0-1.16.216-1.784.65-.628.43-1.138 1.093-1.527 1.98h-1.2v-16.63h1.2c.95 4.676 2.788 8.243 5.506 10.7 2.718 2.46 5.643 3.687 8.783 3.687 2.425 0 4.356-.658 5.798-1.98 1.44-1.32 2.162-2.857 2.162-4.61 0-1.04-.277-2.048-.83-3.022-.552-.974-1.39-1.902-2.517-2.777-1.125-.876-3.12-2.018-5.976-3.426-4.008-1.97-6.887-3.65-8.638-5.035-1.754-1.385-3.103-2.935-4.044-4.646-.94-1.71-1.412-3.59-1.412-5.65 0-3.51 1.287-6.497 3.863-8.965 2.578-2.468 5.826-3.702 9.745-3.702 1.428 0 2.814.174 4.156.52 1.02.26 2.26.74 3.72 1.444 1.464.704 2.484 1.057 3.07 1.057.563 0 1.007-.175 1.333-.52.322-.346.628-1.182.908-2.5M283.013 145.34l-6.562-15.164-6.755 15.163h13.318zm1.102 2.405H268.56l-1.853 4.284c-.605 1.43-.908 2.612-.908 3.54 0 1.234.496 2.142 1.493 2.73.583.347 2.024.603 4.32.78v1.202h-14.65v-1.2c1.58-.238 2.88-.9 3.9-1.97 1.017-1.072 2.27-3.283 3.768-6.636l15.75-35.148h.62l15.88 36.12c1.517 3.418 2.76 5.576 3.735 6.462.737.668 1.777 1.062 3.12 1.17v1.202h-21.308v-1.2h.875c1.712 0 2.916-.238 3.607-.718.476-.343.713-.843.713-1.49 0-.396-.066-.79-.194-1.202-.044-.198-.37-1.01-.975-2.442" fill="#19469d"/><path d="M4.196 207.573h.71c1.666 0 2.88-.343 3.647-1.027.763-.68 1.145-1.767 1.145-3.254 0-1.488-.382-2.577-1.145-3.27-.767-.696-1.98-1.045-3.647-1.045h-.71v8.596zM0 211.058v-15.552h3.238c2.415 0 4.123.112 5.127.34 1.004.226 1.882.604 2.64 1.134.986.688 1.733 1.57 2.24 2.64.513 1.075.767 2.3.767 3.672 0 1.375-.254 2.596-.767 3.67-.507 1.075-1.254 1.953-2.24 2.64-.75.524-1.607.9-2.57 1.123-.962.22-2.456.333-4.483.333h-.714M16.668 211.058v-15.555h9.53v3.412H20.8v2.698h5.088v3.337H20.8v2.623h5.397v3.485M29.692 206.033c.628.714 1.25 1.25 1.866 1.602.612.356 1.22.533 1.833.533.567 0 1.03-.15 1.396-.457.365-.305.546-.69.546-1.157 0-.517-.155-.915-.47-1.195-.316-.28-1.03-.57-2.143-.865-1.52-.412-2.6-.948-3.23-1.606-.63-.658-.947-1.56-.947-2.708 0-1.49.5-2.703 1.494-3.64.994-.94 2.287-1.41 3.874-1.41.856 0 1.67.12 2.436.346.77.23 1.5.58 2.185 1.047l-1.325 3.05c-.484-.41-.978-.72-1.485-.93-.506-.21-1.006-.314-1.503-.314-.51 0-.922.12-1.24.368-.32.243-.478.556-.478.938 0 .39.137.704.417.934.28.237.82.458 1.62.67l.19.054c1.73.467 2.866.98 3.412 1.54.368.385.647.843.838 1.376.19.536.287 1.128.287 1.78 0 1.65-.543 2.978-1.626 3.978-1.087 1-2.532 1.504-4.335 1.504-1.083 0-2.07-.184-2.958-.553-.89-.37-1.748-.945-2.567-1.735M45.754 205.246h4.22l-1.584-5.13c-.05-.155-.12-.408-.204-.757l-.33-1.337c-.09.382-.18.747-.27 1.093-.088.35-.18.68-.27 1l-1.562 5.13zm-5.94 5.812l5.367-15.552h5.313l5.376 15.552h-4.22l-.786-2.784h-6.022l-.81 2.784M61.33 202.857h.785c.915 0 1.583-.154 2.004-.467.42-.313.63-.8.63-1.468 0-.776-.197-1.332-.59-1.66-.393-.33-1.05-.495-1.982-.495h-.85v4.09zm-3.977 8.2v-15.55h4.433c1.734 0 2.945.078 3.626.236.685.16 1.274.428 1.77.803.56.424.99.967 1.29 1.625.303.66.455 1.387.455 2.18 0 1.204-.296 2.18-.89 2.938-.59.754-1.453 1.254-2.585 1.5l4.238 6.27H64.9l-3.57-6.088v6.088M75.278 202.857h.786c.915 0 1.583-.154 2.004-.467.422-.313.632-.8.632-1.468 0-.776-.197-1.332-.592-1.66-.392-.33-1.05-.495-1.98-.495h-.85v4.09zm-3.975 8.2v-15.55h4.432c1.735 0 2.946.078 3.627.236.684.16 1.273.428 1.77.803.56.424.99.967 1.29 1.625.303.66.454 1.387.454 2.18 0 1.204-.296 2.18-.888 2.938-.593.754-1.455 1.254-2.587 1.5l4.24 6.27h-4.792l-3.57-6.088v6.088M92.913 207.88c1.174 0 2.145-.432 2.915-1.298.77-.862 1.152-1.954 1.152-3.27 0-1.304-.388-2.393-1.168-3.262-.777-.872-1.744-1.306-2.9-1.306-1.174 0-2.148.43-2.915 1.3-.77.868-1.155 1.958-1.155 3.267 0 1.334.38 2.427 1.14 3.282.756.86 1.733 1.287 2.93 1.287m8.306-4.57c0 1.12-.204 2.17-.615 3.144-.41.977-1.01 1.853-1.793 2.626-.797.763-1.702 1.352-2.722 1.767-1.02.415-2.08.622-3.175.622-1.113 0-2.18-.208-3.192-.623-1.016-.415-1.91-1.004-2.685-1.767-.8-.773-1.405-1.652-1.82-2.636-.414-.984-.62-2.027-.62-3.133 0-1.11.206-2.157.62-3.138.415-.98 1.02-1.86 1.82-2.63.774-.766 1.67-1.355 2.686-1.77 1.014-.414 2.08-.622 3.193-.622 1.102 0 2.168.208 3.192.622 1.023.415 1.925 1.004 2.705 1.77.776.764 1.372 1.64 1.786 2.623.415.988.622 2.034.622 3.146M103.874 211.058v-15.555h4.242v11.922h5.268v3.633M115.454 211.058v-15.555h4.242v11.922h5.268v3.633M134.313 207.88c1.175 0 2.146-.432 2.916-1.298.77-.862 1.15-1.954 1.15-3.27 0-1.304-.388-2.393-1.168-3.262-.777-.872-1.744-1.306-2.9-1.306-1.174 0-2.148.43-2.915 1.3-.77.868-1.155 1.958-1.155 3.267 0 1.334.38 2.427 1.14 3.282.756.86 1.733 1.287 2.93 1.287m8.307-4.57c0 1.12-.205 2.17-.617 3.144-.41.977-1.01 1.853-1.793 2.626-.796.763-1.7 1.352-2.72 1.767-1.022.415-2.08.622-3.177.622-1.112 0-2.178-.208-3.192-.623-1.016-.415-1.91-1.004-2.684-1.767-.8-.773-1.405-1.652-1.82-2.636-.415-.984-.622-2.027-.622-3.133 0-1.11.207-2.157.622-3.138.415-.98 1.02-1.86 1.82-2.63.773-.766 1.668-1.355 2.685-1.77 1.015-.414 2.08-.622 3.193-.622 1.102 0 2.17.208 3.192.622 1.023.415 1.925 1.004 2.705 1.77.777.764 1.372 1.64 1.787 2.623.414.988.622 2.034.622 3.146M145.965 206.033c.63.714 1.25 1.25 1.866 1.602.613.356 1.222.533 1.834.533.566 0 1.03-.15 1.395-.457.364-.305.545-.69.545-1.157 0-.517-.154-.915-.47-1.195-.316-.28-1.03-.57-2.142-.865-1.52-.412-2.6-.948-3.23-1.606-.63-.658-.946-1.56-.946-2.708 0-1.49.5-2.703 1.494-3.64.995-.94 2.288-1.41 3.874-1.41.855 0 1.668.12 2.435.346.77.23 1.5.58 2.184 1.047l-1.326 3.05c-.484-.41-.977-.72-1.484-.93-.507-.21-1.007-.314-1.504-.314-.51 0-.92.12-1.24.368-.32.243-.478.556-.478.938 0 .39.138.704.418.934.28.237.82.458 1.62.67l.19.054c1.73.467 2.866.98 3.412 1.54.37.385.65.843.84 1.376.19.536.286 1.128.286 1.78 0 1.65-.543 2.978-1.626 3.978-1.086 1-2.53 1.504-4.334 1.504-1.082 0-2.07-.184-2.958-.553-.888-.37-1.747-.945-2.567-1.735M164.834 211.058h4.28v-15.556h-4.28v15.556zM172.534 211.058v-15.555h4.09l5.874 8.003c.116.16.3.49.56.98.257.494.543 1.08.855 1.76-.085-.644-.148-1.22-.187-1.72-.036-.504-.056-.95-.056-1.34v-7.683h4.067v15.555h-4.067l-5.877-8.03c-.12-.164-.31-.493-.566-.984-.26-.493-.543-1.072-.846-1.737.087.652.146 1.227.19 1.73.035.504.055.95.055 1.34v7.68M208.913 211.058h-3.97l-.91-6.723c-.06-.477-.122-1.004-.17-1.583-.057-.582-.103-1.218-.146-1.905-.1.66-.296 1.48-.586 2.464l-.134.46-2.116 7.288h-2.83l-2.112-7.29-.13-.457c-.295-.983-.486-1.8-.58-2.45-.044.59-.093 1.168-.15 1.747-.055.576-.124 1.152-.203 1.728l-.912 6.723h-3.942l2.4-15.555h4.2l2.35 8.022.084.277c.214.714.355 1.33.41 1.84.028-.277.084-.587.16-.922.082-.336.184-.74.322-1.214l2.37-8.003h4.2M218.854 207.88c1.175 0 2.146-.432 2.916-1.298.77-.862 1.15-1.954 1.15-3.27 0-1.304-.387-2.393-1.167-3.262-.776-.872-1.744-1.306-2.9-1.306-1.174 0-2.148.43-2.915 1.3-.77.868-1.155 1.958-1.155 3.267 0 1.334.38 2.427 1.14 3.282.756.86 1.733 1.287 2.93 1.287m8.307-4.57c0 1.12-.204 2.17-.616 3.144-.41.977-1.01 1.853-1.793 2.626-.795.763-1.7 1.352-2.72 1.767-1.02.415-2.08.622-3.176.622-1.112 0-2.178-.208-3.192-.623-1.017-.415-1.912-1.004-2.685-1.767-.8-.773-1.405-1.652-1.82-2.636-.415-.984-.622-2.027-.622-3.133 0-1.11.207-2.157.622-3.138.415-.98 1.02-1.86 1.82-2.63.773-.766 1.668-1.355 2.685-1.77 1.014-.414 2.08-.622 3.192-.622 1.102 0 2.17.208 3.192.622 1.023.415 1.925 1.004 2.705 1.77.778.764 1.373 1.64 1.788 2.623.414.988.622 2.034.622 3.146M233.748 207.88h1.487c1.004 0 1.718-.126 2.136-.38.42-.25.626-.668.626-1.257 0-.65-.19-1.105-.572-1.365-.385-.26-1.09-.39-2.126-.39h-1.55v3.39zm0-6.165h.85c1.05 0 1.766-.11 2.158-.345.388-.227.582-.625.582-1.19 0-.59-.18-1.005-.546-1.242-.365-.237-1.076-.355-2.133-.355h-.912v3.132zm-3.932 9.34v-15.552h4.26c1.758 0 2.986.056 3.683.17.697.113 1.296.307 1.8.583.572.32 1.01.747 1.312 1.28.3.537.45 1.155.45 1.853 0 .884-.226 1.588-.673 2.112-.452.52-1.17.91-2.154 1.18 1.106.086 1.972.475 2.593 1.166.62.69.934 1.612.934 2.767 0 .83-.178 1.557-.526 2.19-.35.63-.853 1.117-1.504 1.466-.53.284-1.185.485-1.965.607-.78.118-2.054.177-3.825.177M244.683 211.058h4.28v-15.556h-4.28v15.556zM252.383 211.058v-15.555h4.242v11.922h5.268v3.633M264.072 211.058h4.28v-15.556h-4.28v15.556zM275.885 205.246h4.22l-1.584-5.13c-.048-.155-.117-.408-.203-.757l-.33-1.337c-.09.382-.18.747-.27 1.093-.088.35-.18.68-.27 1l-1.562 5.13zm-5.94 5.812l5.368-15.552h5.31l5.378 15.552h-4.218l-.786-2.784h-6.022l-.81 2.784M291.46 202.857h.783c.918 0 1.583-.154 2.004-.467.42-.313.632-.8.632-1.468 0-.776-.2-1.332-.593-1.66-.39-.33-1.05-.495-1.98-.495h-.847v4.09zm-3.98 8.2v-15.55h4.434c1.734 0 2.945.078 3.63.236.68.16 1.27.428 1.767.803.56.424.99.967 1.29 1.625.303.66.455 1.387.455 2.18 0 1.204-.296 2.18-.89 2.938-.59.754-1.453 1.254-2.585 1.5l4.238 6.27h-4.79l-3.568-6.088v6.088M301.54 211.058h4.28v-15.556h-4.28v15.556zM316.903 207.88c1.175 0 2.146-.432 2.916-1.298.77-.862 1.15-1.954 1.15-3.27 0-1.304-.388-2.393-1.167-3.262-.777-.872-1.745-1.306-2.9-1.306-1.174 0-2.148.43-2.915 1.3-.77.868-1.155 1.958-1.155 3.267 0 1.334.378 2.427 1.138 3.282.758.86 1.736 1.287 2.933 1.287m8.306-4.57c0 1.12-.205 2.17-.616 3.144-.412.977-1.01 1.853-1.794 2.626-.796.763-1.7 1.352-2.72 1.767-1.02.415-2.08.622-3.177.622-1.112 0-2.178-.208-3.192-.623-1.015-.415-1.91-1.004-2.684-1.767-.8-.773-1.405-1.652-1.82-2.636-.414-.984-.62-2.027-.62-3.133 0-1.11.206-2.157.62-3.138.415-.98 1.02-1.86 1.82-2.63.774-.766 1.67-1.355 2.685-1.77 1.015-.414 2.08-.622 3.193-.622 1.103 0 2.17.208 3.192.622 1.024.415 1.925 1.004 2.705 1.77.777.764 1.373 1.64 1.787 2.623.415.988.622 2.034.622 3.146M328.556 206.033c.628.714 1.25 1.25 1.866 1.602.612.356 1.22.533 1.833.533.566 0 1.03-.15 1.395-.457.365-.305.546-.69.546-1.157 0-.517-.154-.915-.47-1.195-.316-.28-1.03-.57-2.143-.865-1.52-.412-2.6-.948-3.228-1.606-.632-.658-.948-1.56-.948-2.708 0-1.49.5-2.703 1.494-3.64.995-.94 2.288-1.41 3.875-1.41.855 0 1.668.12 2.435.346.77.23 1.5.58 2.185 1.047l-1.326 3.05c-.485-.41-.98-.72-1.486-.93-.506-.21-1.006-.314-1.503-.314-.51 0-.92.12-1.24.368-.32.243-.477.556-.477.938 0 .39.138.704.418.934.28.237.82.458 1.62.67l.19.054c1.732.467 2.867.98 3.413 1.54.37.385.648.843.84 1.376.19.536.286 1.128.286 1.78 0 1.65-.544 2.978-1.627 3.978-1.086 1-2.53 1.504-4.334 1.504-1.084 0-2.07-.184-2.96-.553-.888-.37-1.747-.945-2.566-1.735M341.018 207.53h3.952l-3.284 6.66h-2.932M354.414 206.033c.63.714 1.25 1.25 1.866 1.602.612.356 1.22.533 1.833.533.566 0 1.03-.15 1.395-.457.365-.305.546-.69.546-1.157 0-.517-.154-.915-.47-1.195-.316-.28-1.03-.57-2.142-.865-1.52-.412-2.6-.948-3.23-1.606-.63-.658-.946-1.56-.946-2.708 0-1.49.5-2.703 1.494-3.64.993-.94 2.287-1.41 3.873-1.41.855 0 1.668.12 2.435.346.77.23 1.5.58 2.185 1.047l-1.326 3.05c-.484-.41-.978-.72-1.484-.93-.507-.21-1.007-.314-1.504-.314-.51 0-.923.12-1.242.368-.32.243-.477.556-.477.938 0 .39.14.704.42.934.28.237.818.458 1.618.67l.19.054c1.732.467 2.867.98 3.413 1.54.37.385.65.843.84 1.376.19.536.287 1.128.287 1.78 0 1.65-.543 2.978-1.626 3.978-1.085 1-2.53 1.504-4.333 1.504-1.082 0-2.07-.184-2.958-.553-.89-.37-1.748-.945-2.568-1.735M365.59 209.317c0-.602.203-1.11.61-1.52.406-.41.91-.616 1.515-.616.616 0 1.13.208 1.54.616.408.412.616.92.616 1.52 0 .603-.207 1.113-.62 1.53-.416.42-.926.626-1.535.626-.595 0-1.1-.207-1.51-.625-.408-.418-.616-.928-.616-1.53M383.69 205.246h4.22l-1.583-5.13c-.05-.155-.118-.408-.204-.757l-.33-1.337c-.09.382-.18.747-.27 1.093-.088.35-.18.68-.27 1l-1.562 5.13zm-5.938 5.812l5.367-15.552h5.31l5.377 15.552h-4.22l-.785-2.784h-6.022l-.81 2.784" fill="#231f20"/><g><path d="M394.903 209.317c0-.602.2-1.11.61-1.52.403-.41.907-.616 1.512-.616.616 0 1.13.208 1.54.616.408.412.616.92.616 1.52 0 .603-.207 1.113-.618 1.53-.418.42-.928.626-1.537.626-.595 0-1.1-.207-1.51-.625-.408-.418-.612-.928-.612-1.53" fill="#231f20"/></g><path d="M.8 188.96H400v-22.11H.8v22.11z" fill="#231f20"/></svg>