<?xml version="1.0" encoding="utf-8"?>
<!-- Generator: Adobe Illustrator 23.0.1, SVG Export Plug-In . SVG Version: 6.00 Build 0)  -->
<svg version="1.1" id="Layer_1" xmlns="http://www.w3.org/2000/svg" xmlns:xlink="http://www.w3.org/1999/xlink" x="0px" y="0px"
	 viewBox="0 0 193.4 106.9" style="enable-background:new 0 0 193.4 106.9;" xml:space="preserve">
<style type="text/css">
	.st0{fill-rule:evenodd;clip-rule:evenodd;fill:#FFFFFF;}
	.st1{fill-rule:evenodd;clip-rule:evenodd;fill:#72BE44;}
	.st2{fill-rule:evenodd;clip-rule:evenodd;fill:#356130;}
	.st3{fill-rule:evenodd;clip-rule:evenodd;fill:#CBC1BF;}
	.st4{fill-rule:evenodd;clip-rule:evenodd;fill:#231F20;}
	.st5{fill-rule:evenodd;clip-rule:evenodd;fill:#131012;}
	.st6{fill-rule:evenodd;clip-rule:evenodd;fill:#C4C1BA;}
	.st7{fill-rule:evenodd;clip-rule:evenodd;fill:#C1BEB4;}
	.st8{fill-rule:evenodd;clip-rule:evenodd;fill:#B7B5AA;}
	.st9{fill-rule:evenodd;clip-rule:evenodd;fill:#E1EBD9;}
	.st10{fill-rule:evenodd;clip-rule:evenodd;fill:#212115;}
	.st11{fill-rule:evenodd;clip-rule:evenodd;fill:#D6E6CE;}
	.st12{fill-rule:evenodd;clip-rule:evenodd;fill:#272C21;}
	.st13{fill-rule:evenodd;clip-rule:evenodd;fill:#27231E;}
	.st14{fill-rule:evenodd;clip-rule:evenodd;fill:#8E9982;}
	.st15{fill-rule:evenodd;clip-rule:evenodd;fill:#2C402C;}
	.st16{fill-rule:evenodd;clip-rule:evenodd;fill:#302D22;}
	.st17{fill-rule:evenodd;clip-rule:evenodd;fill:#8E9988;}
	.st18{fill-rule:evenodd;clip-rule:evenodd;fill:#808D7D;}
	.st19{fill-rule:evenodd;clip-rule:evenodd;fill:#B9BDAB;}
	.st20{fill-rule:evenodd;clip-rule:evenodd;fill:#CAE0C0;}
</style>
<g>
	<g>
		<path class="st0" d="M2.9,37.2L12,64.4L6.3,96c0,0,46.6-19.7,94.8-28.7c0,0,59.4-10.5,88.5-5.4l-8.6-30.2l5.7-29.2
			c0,0-61.9-6.3-136.5,16.7C50.3,19.2,20.1,29.4,2.9,37.2z"/>
		<g>
			<path class="st1" d="M3,41.9c-0.3-1.3-0.8-2.4-1.1-3.7c-0.1-0.3-0.2-0.6-0.3-1c-0.2-0.7-0.2-0.7,0.4-1c1.8-0.8,3.6-1.6,5.4-2.4
				c5.9-2.6,11.8-5,17.8-7.3c0.5-0.2,1-0.2,1.5,0c1.2,0.4,2.4,0.8,3.7,1c0.2,0,0.3,0.1,0.6,0.2c-0.3,0.1-0.5,0.2-0.7,0.3
				C22.1,31.1,14,34.4,6,37.9c-0.1,0-0.2,0.1-0.3,0.1c-0.5,0.2-0.5,0.2-0.3,0.7c2,6.4,4.1,12.8,6.1,19.3c0.6,1.9,1.2,3.8,1.8,5.7
				c0.1,0.4,0.2,0.7,0.1,1.1c-1.6,9.5-3.2,19-4.9,28.5c0,0.1-0.1,0.2,0,0.4C65.8,68.9,125.3,57.1,187.6,60c0.1-0.2,0-0.3,0-0.5
				c-2.3-7.9-4.6-15.8-6.8-23.7c-0.3-1.1-0.6-2.2-1-3.3c-0.1-0.4-0.1-0.8,0-1.1c1.3-6.6,2.6-13.2,3.9-19.8c0.5-2.4,0.9-4.8,1.4-7.1
				c0.1-0.6,0.1-0.6-0.5-0.6c-3.8-0.2-7.7-0.3-11.6-0.4c-2.9-0.1-5.8-0.1-8.7-0.1c-6.4,0-12.8,0.2-19.2,0.5
				c-5.2,0.3-10.5,0.7-15.7,1.2c-3.8,0.4-7.5,0.8-11.3,1.3c-3.4,0.4-6.8,0.9-10.2,1.4c-4.5,0.7-9,1.5-13.5,2.3
				c-5.7,1.1-11.4,2.3-17.1,3.7c-9.4,2.2-18.7,4.8-27.9,7.7c-0.2,0.1-0.4,0.2-0.6,0.1c0-0.9-0.2-1.9-0.3-2.8
				c-0.1-0.4,0.3-0.4,0.5-0.5c1.5-0.5,3.1-1,4.7-1.4c5.8-1.8,11.7-3.4,17.6-4.9c4.6-1.2,9.2-2.2,13.9-3.2c4.1-0.9,8.1-1.7,12.2-2.4
				c3-0.5,6-1,9-1.5c3.3-0.5,6.6-1,9.9-1.4c2.3-0.3,4.6-0.6,6.9-0.8c4.6-0.6,9.3-1,13.9-1.3c1.5-0.1,3-0.2,4.5-0.3
				c5.1-0.4,10.2-0.6,15.3-0.7C161.4,0,165.9,0,170.5,0c3.7,0.1,7.4,0.2,11.1,0.3c2.3,0.1,4.6,0.2,6.9,0.4c0.5,0,0.5,0.1,0.4,0.7
				c-0.4,2.2-0.9,4.5-1.3,6.7c-1.5,7.7-3,15.4-4.5,23.1c-0.1,0.3-0.1,0.7,0,1c2.9,10.2,5.9,20.3,8.8,30.5c0.1,0.2,0.1,0.5,0.2,0.7
				c-1-0.1-2-0.1-3-0.2c-2.3-0.1-4.7-0.2-7-0.3c-2.4-0.1-4.7-0.1-7.1-0.2c-1.8,0-3.6,0-5.4-0.1c-8,0-15.9,0.2-23.9,0.7
				c-4.7,0.3-9.4,0.7-14.1,1.2c-0.5,0.1-0.9,0.1-1.4,0.2c-1.3,0.2-2.5,0.3-3.8,0.5c-1.7,0.2-3.4,0.5-5.1,0.7
				c-1.8,0.3-3.6,0.5-5.4,0.7c-4.2,0.6-8.4,1.3-12.6,2c-5.8,1-11.6,2.2-17.4,3.4C77.6,74,69.5,76,61.3,78.4
				c-7.5,2.2-14.9,4.5-22.3,7.1c-7.2,2.5-14.3,5.3-21.4,8.2c-3.6,1.5-7.2,3.1-10.8,4.7c-0.2,0.1-0.5,0.3-0.8,0.2H6l-0.1,0
				c-0.1,0-0.1,0.1-0.2,0.1C5.4,98.9,5,99,4.6,99.2c-0.1-0.2,0-0.4,0-0.6C6.2,89,7.8,79.4,9.4,69.8c0-0.1,0-0.3,0-0.4
				c-0.1-1.3,0.3-2.6,0.5-3.9c0.1-0.6,0.1-1.1-0.1-1.7C7.6,56.9,5.5,49.9,3.2,43C3.1,42.6,2.9,42.3,3,41.9z"/>
			<path class="st2" d="M146.8,21.3c1.1-0.1,2.1-0.4,3.2-0.7c0.1,0,0.3-0.1,0.4-0.1c0.3-0.1,0.4,0,0.4,0.3c0,0.4,0,0.9,0,1.3
				c0.2,0.3,0.1,0.7,0,1c-0.5,2.6-2.5,4.4-5.1,4.6c-0.8,0.1-1.6,0.1-2.4,0.1c-0.6,0-0.9,0.2-1,0.9c-0.4,3.5-0.8,7-1,10.5
				c0,1.1,0,2.1,0.2,3.2c0.1,0.5,0.2,1.1,0.6,1.4c0.5,0.6,1.2,0.4,1.8,0.3c1.1-0.4,2.1-1.1,3-1.9c1.2-1.1,1.3-1,1.9,0.4
				c0,0.1,0.1,0.2,0.1,0.3c0.1,0.2,0.1,0.4,0.2,0.5c0.7,2.6-0.3,4.6-2.3,6.2c-2.4,1.8-5.2,2.6-8.2,2.2c-1.4-0.2-2.5-0.8-3.4-1.9
				c-1.7-2.3-1.9-5-1.9-7.7c0-3.1,0.3-6.2,0.6-9.3c0-0.2,0-0.4,0-0.6c-0.2-0.8,0.1-1.5,0.1-2.3c0.2-1.6,0.2-1.6-1.4-1.2
				c-1,0.3-1.9,0.7-2.8,1.2c-0.2,0.1-0.4,0.2-0.7,0c0-0.1-0.1-0.1-0.1-0.2c-0.4-1.1-0.4-1.1-1.5-0.7c-1.1,0.4-2.3,0.5-3.5,0.5
				c-0.9,0-1,0.1-1.1,1c-0.5,3.7-0.8,7.4-1,11.1c0,1.1,0,2.2,0.3,3.2c0.1,0.3,0.2,0.6,0.5,0.8c0.5,0.5,1.2,0.2,1.8,0.3
				c0.9-0.3,1.6-0.8,2.3-1.4c0.6-0.5,1.2-1.1,1.8-1.6c0.4,0.5,0.5,1.1,0.8,1.5c0.1,0.1,0.1,0.4,0.2,0.5c0.8,2.6-0.3,4.6-2.3,6.2
				c-1.9,1.6-4.2,2.5-6.7,2.7c-1.7,0.1-3.4-0.3-4.8-1.5c-1.5-2.1-2-4.6-2-7.1c0-3.3,0.2-6.6,0.6-9.8c0-0.2,0-0.4,0-0.6
				c-0.1-0.5,0-1.1,0-1.6c0-0.3,0-0.6-0.1-0.9c0-0.3,0.2-0.5,0.3-0.8c0.1-0.7,0-0.8-0.6-0.6c-1.3,0.3-2.5,0.8-3.6,1.6
				c-0.5,0.3-0.8,0.1-0.9-0.5c-0.1-0.5-0.2-1.1-0.2-1.6c0-0.2,0-0.4-0.1-0.6c0-0.5,0.1-0.9,0.2-1.4c0.1-0.2,0.1-0.5,0.2-0.7
				c0-0.2,0.1-0.3,0.2-0.5c0.3-0.6,0.5-1.2,1.3-1.4c1.3-0.7,2.7-1,4.1-1.2c0.4-0.1,0.5-0.2,0.6-0.6c0.1-1.5,0.3-2.9,0.4-4.4
				c0.1-0.6,0.1-1.3,0.1-1.9c0.1-1.4-0.1-2.7-0.6-4c-0.1-0.2-0.3-0.4,0.1-0.6c1.8-1,3.6-1.9,5.7-2c0.3,0,0.6,0,0.9,0
				c1,0.2,1.8,0.7,2.1,1.7c0.1,0.2,0.2,0.3,0.2,0.5c0.3,1,0.1,2.1,0,3.1c-0.2,2-0.6,3.9-0.8,5.8c-0.1,0.8-0.1,0.8,0.7,0.8
				c0.7,0,1.4-0.4,2.2-0.2c1.3-0.2,2.6-0.6,3.9-1c0.2-0.1,0.3-0.2,0.6-0.1c0.2,0.3,0,0.7,0.1,1c1.1-0.3,2.2-0.5,3.3-0.6
				c0.3,0,0.2-0.2,0.3-0.4c0.1-1.2,0.3-2.5,0.4-3.7c0.1-1,0.1-2,0.2-3c0.1-1.3-0.1-2.5-0.7-3.7c-0.2-0.4-0.1-0.5,0.2-0.7
				c1.5-0.8,3-1.4,4.7-1.6c0.4-0.1,0.9-0.1,1.3,0c1.3,0.1,2.2,0.7,2.6,1.9c0,0.1,0.1,0.3,0.2,0.4c0.5,0.9,0.2,1.8,0.1,2.6
				c-0.2,2.1-0.5,4.2-0.9,6.2c-0.1,0.8-0.1,0.9,0.7,0.8C145,21.2,145.9,21.4,146.8,21.3z"/>
			<path class="st2" d="M15.1,50c-0.2,0-0.3,0.3-0.6,0.3c-0.2-0.1-0.1-0.3-0.2-0.4c-0.2-1.6-0.2-3.3,0.2-4.9c0.5-2,1.6-3.5,3.4-4.6
				c1.5-1,3-2,4.6-3c1.6-1,3.3-2.1,4.9-3.1c1.9-1.2,3.9-2.1,6.1-2.7c1.2-0.3,2.4-0.5,3.6-0.3c1.9,0.2,3.2,1.2,4.2,2.8
				c0.2,0.4,0.4,0.8,0.7,1.2c0.2,0.3,0.3,0.6,0.5,0.9c1.2,4.8,0.9,9.5,0,14.3c-1.4,7.7-4.5,14.8-9.2,21.2c-2.1,2.8-4.6,5.3-7.9,6.6
				c-1.7,0.6-3.4,1.2-5,2.1c-0.7,0.4-1.5,0.6-2.2,0c-0.9-0.6-1-1.5-0.9-2.5c0.1-1.5,0.3-3,0.5-4.5c0.7-5.1,1.4-10.2,2-15.3
				c0.2-2,0.4-4.1,0.7-6.1c0-0.2,0-0.5,0-0.7c-0.2-1,0.1-2.1,0-3.1c0-0.6,0.3-1.3,0.1-1.9c-1.7,1-3.2,2.2-4.6,3.4
				C15.5,49.7,15.4,49.9,15.1,50z"/>
			<path class="st2" d="M153.4,23.6c0.6-1.1,1.2-2.2,2-3.2c0.8-1,1.7-2,2.8-2.7c3-2,6.1-2.1,9.3-0.4c0.1,0.1,0.3,0.1,0.4,0.2
				c0.1,0.1,0.3,0.1,0.4,0c1.3-1.3,2.8-1.2,4.4-0.9c1.1,0.2,2.1,0.6,3.1,1.2c0.4,0.2,0.5,0.4,0.3,0.8c-0.1,0.1-0.1,0.3-0.1,0.4
				c0,0.8-0.3,1.5-0.5,2.2c-1,4.7-1.5,9.4-1.9,14.1c-0.2,2.5-0.2,5-0.1,7.6c0.1,1.6,0.4,3.1,1,4.6c0.2,0.6,0.1,1-0.3,1.4
				c-1.7,1.8-4.9,2.2-7,0.8c-0.1-0.1-0.2-0.2-0.3-0.2c-0.4-0.7-0.8-1.3-1.1-2c-0.6-0.6-0.6-1.3-0.7-2.1c-0.1-0.6,0-1.2-0.1-1.7
				c0-1.1-0.1-2.2,0.2-3.2c-1,2.4-2.3,4.7-4,6.9c-0.9,1.2-2,2.2-3.3,2.9c-2.2,1.2-4.4,0.9-6.2-0.7c0,0-0.1-0.1-0.1-0.1
				c-0.8-0.9-1.3-2-1.6-3.1c-0.2-0.4-0.2-0.9-0.3-1.3c-0.1-0.4,0-0.7-0.2-1.1c-0.4-3.4-0.3-6.7,0.3-10c0.2-1.2,0.5-2.5,0.9-3.7
				c0.6-2,1.3-3.9,2.2-5.7C153,24.2,153.1,23.8,153.4,23.6z"/>
			<path class="st2" d="M100.4,55.2c-0.2-0.3-0.3-0.6-0.6-0.9c-0.9-0.8-0.8-1.9-1.1-2.9c-0.1-0.2,0-0.5-0.1-0.8c0-1,0-2,0.1-3
				c-0.6,1.5-1.3,3-2.1,4.5c-0.8,1.5-1.7,2.9-2.8,4.2c-1.2,1.3-2.5,2.4-4.3,2.9c-1.4,0.4-2.6,0.2-3.8-0.6c-0.3-0.7-0.9-1.3-1.1-2
				c-0.3-1-0.4-1.9-0.4-2.9c0-3.1,0.4-6.1,0.7-9.2c0.2-1.8,0.5-3.6,0.7-5.4c0.1-0.3-0.1-0.5-0.1-0.7c0-0.1,0-0.2,0-0.3
				c0.1-0.2,0.1-0.4,0.1-0.6c0-0.1,0-0.1,0-0.2C86,37,86,36.7,86,36.5c0-0.1,0-0.2,0-0.3c0.1-0.2,0.1-0.4,0.1-0.6c0-0.1,0-0.2,0-0.3
				c0.1-0.2,0.1-0.5,0.1-0.7c0-0.1,0-0.2,0-0.3c0.1-0.3,0-0.6,0.1-0.8c0-0.1,0-0.2,0-0.3c0.1-0.3,0-0.6,0-0.9c0-0.2,0-0.3,0-0.5
				c0.1-0.4,0-0.8,0-1.2c0-0.2,0-0.5,0-0.7c0.1-0.6,0.3-1.2,0.1-1.8c0-0.5-0.2-1-0.4-1.4c-0.1-0.2-0.1-0.4,0.2-0.5
				c1.5-0.9,3-1.8,4.7-2.2c0.4-0.1,0.9-0.1,1.3-0.1c1.2,0.1,1.9,0.7,2.4,2.2c0.4,0.7,0.3,1.5,0.2,2.3c-0.5,4.7-1.2,9.4-1.8,14.1
				c-0.2,1.9-0.4,3.9-0.5,5.8c0,0.3,0,0.7,0,1c0,0.1,0,0.3,0.1,0.4c0.2,0,0.2-0.2,0.3-0.3c1-1.4,1.6-3,2.3-4.6
				c0.1-0.3,0.2-0.7,0.5-0.8c2-4.6,3.8-9.3,4.8-14.3c0.3-1.6,0.5-3.3,0.3-5c-0.1-0.4-0.2-0.8-0.3-1.3c-0.1-0.3-0.1-0.4,0.2-0.6
				c1.5-0.8,3-1.3,4.7-1.5c0.4,0,0.8,0,1.2,0.1c1,0.2,1.6,0.7,2,1.6c0.1,0.2,0.2,0.4,0.2,0.6c0.3,1.3,0.2,2.6,0,3.8
				c-0.6,3.7-1.2,7.5-1.5,11.2c-0.3,3.2-0.5,6.4-0.2,9.7c0.1,1.3,0.4,2.6,1,3.8c0.3,0.6,0.2,1.2-0.3,1.6c-1.4,1.4-3,2.3-5.1,2.3
				C101.9,56.1,101.1,55.9,100.4,55.2z"/>
			<path class="st2" d="M45.6,49.2c0.3-2.1,0.5-4.2,0.7-6.3c0.3-2.7,0.4-5.4,0.4-8.1c0-1.3-0.1-2.5-0.7-3.7c-0.2-0.3,0-0.4,0.1-0.6
				c0.8-0.8,1.6-1.6,2.6-2.2c2.3-1.7,5-2.8,7.7-3.6c2.7-0.7,5.5-1.4,8.1-2.6c1-0.4,2-0.9,3-1.4c0.2-0.1,0.4-0.2,0.7-0.3
				c0,0.7-0.1,1.3-0.2,2c0.1,0.1,0.1,0.3,0.1,0.5c-0.7,3-2.1,5.4-5.1,6.5c-1.5,0.5-3.1,0.8-4.6,1.2c-0.8,0.2-1.6,0.4-2.5,0.6
				c-0.5,0.2-0.8,0.4-0.9,1c-0.4,3.6-0.8,7.2-1.2,10.8c-0.1,0.7,0.2,0.6,0.7,0.5c0.8-0.2,1.5-0.4,2.3-0.7c2.1-0.8,4.1-1.7,5.9-3
				c0.2-0.2,0.5-0.4,0.8-0.2c0.3,0.2,0.2,0.5,0.2,0.8c0,0.4-0.1,0.8-0.1,1.2c-0.1,1-0.3,1.9-0.6,2.8c-0.4,1.4-1.3,2.5-2.6,3.2
				c-2.1,1.2-4.3,1.9-6.5,2.7c-0.7,0.2-1,0.6-1.1,1.3c-0.4,3.7-0.9,7.3-1.1,11c-0.1,1.2-0.1,2.5,0.1,3.7c0.1,0.5,0,0.8-0.4,1.1
				c-1.5,1.2-3,2.4-4.9,3c-0.5,0.2-1,0.3-1.6,0.3c-0.4,0-0.7-0.1-1-0.4c-0.8-0.5-0.9-1.3-0.9-2.1c0-1.4,0.2-2.8,0.4-4.2
				c0.5-3,0.9-6,1.4-9c0-0.2,0-0.3,0-0.5c-0.1-1,0.1-2,0.3-3c0-0.1,0.1-0.3,0.1-0.4c0-0.1,0-0.1,0-0.2c0-0.1,0-0.3,0-0.4
				c0-0.1,0.1-0.3,0-0.4C45.4,49.8,45.4,49.5,45.6,49.2z"/>
			<path class="st2" d="M64.4,64.1c-0.1-0.1-0.1-0.3-0.2-0.4c-0.7-0.7-0.8-1.7-0.8-2.6c0.1-1.9,0.3-3.7,0.6-5.6
				c0.3-1.9,0.5-3.9,0.8-5.8c-0.1-2,0.4-3.9,0.6-5.9c0-0.3,0.1-0.5,0.1-0.8c0.3-2.8,0.5-5.6,0.6-8.4c0-0.7-0.2-1.4-0.3-2.1
				c-0.3-1.2-0.3-1.2,0.7-1.9c0.7-0.5,1.4-0.9,2.2-1.3c0.3-0.2,0.7-0.2,1-0.3c0.4-0.1,0.9-0.3,1.3-0.3c1.8-0.3,2.9,0.4,3.3,2
				c0.4,0.6,0.3,1.4,0.2,2.1c0,0.6-0.1,1.3-0.2,1.9c-0.1,0.6-0.1,1.2-0.3,1.8c0.2-0.8,0.6-1.5,0.9-2.3c0.5-0.6,0.6-1.5,1.2-2
				c0.7-1.3,1.5-2.7,2.4-3.9c0.5-0.7,1.1-1.3,1.8-1.8c0.5-0.4,1.1-0.7,1.8-0.8c1.2-0.2,2.1,0.3,2.5,1.4c0,0.1,0.1,0.3,0.1,0.4
				c0.3,0.6,0.3,1.3,0.2,2c-0.2,2.6-1.1,5-2.2,7.3c-0.3,0.7-0.7,1.3-1.1,2c-0.4,0.6-0.6,0.7-1.1,0.1c-1.1-1.2-1.5-1.2-2.5,0.1
				c-1.1,1.4-1.9,3.1-2.5,4.7c-1.5,3.9-2.9,7.9-3.7,12.1c-0.4,1.9-0.7,3.7,0,5.6c0.1,0.4,0,0.7-0.3,0.9c-1.7,1-3.5,1.9-5.6,2
				C65.4,64.4,64.9,64.3,64.4,64.1z"/>
			<path class="st3" d="M6.1,98.6c1.4-0.7,2.9-1.3,4.4-2c6.5-2.9,13.1-5.5,19.7-8c9.9-3.8,20-7.1,30.2-10.1c5.5-1.6,11-3.1,16.6-4.5
				c3.9-0.9,7.8-1.8,11.7-2.7c3.4-0.7,6.8-1.4,10.2-2c2.4-0.5,4.9-0.9,7.4-1.3c2.5-0.4,4.9-0.8,7.4-1.2c1.9-0.3,3.8-0.5,5.7-0.8
				c2.3-0.3,4.5-0.6,6.8-0.9c1.4-0.1,2.8-0.4,4.3-0.4c-0.1,0.1-0.2,0.1-0.3,0.2c-1.3,0.2-2.6,0.3-3.9,0.5c-1.1,0.2-2.2,0.4-3.4,0.5
				c-1.1,0.2-2.1,0.4-3.2,0.5c-0.9,0.1-1.8,0.3-2.7,0.5c-1,0.2-2,0.4-2.9,0.5c-1.5,0.3-3.1,0.6-4.6,0.9c-1.4,0.3-2.8,0.6-4.2,0.8
				c-2.1,0.4-4.2,0.9-6.3,1.4c-2.2,0.5-4.4,1.1-6.6,1.6c-2.5,0.6-5,1.3-7.4,1.9c-4.7,1.3-9.4,2.6-14.1,4.1c-3.2,1-6.4,2.1-9.7,3.2
				c-6.6,2.3-13.2,4.7-19.7,7.3c-3.3,1.3-6.7,2.8-10,4.2c-2.9,1.3-5.8,2.6-8.7,3.9c-2.9,1.3-5.8,2.8-8.6,4.2
				c-2.8,1.4-5.6,2.8-8.3,4.2c-0.1,0.1-0.2,0.1-0.4,0.1c-0.1-0.2-0.1-0.5,0-0.8C5.5,102.5,5.8,100.5,6.1,98.6z"/>
			<path class="st1" d="M30.3,13.5c1.6,0.6,3,1.4,4.4,2.3c0.1,0.1,0.2,0.2,0.4,0.3c0.1,0,0.1,0.1,0.2,0.1c0.2,0.1,0.3,0.3,0.4,0.4
				c1.3,1,2.5,2.2,3.5,3.5c1.3,1.8,2.1,3.8,2.3,6c0,0.5,0.2,1-0.2,1.5c-0.1,0.2-0.1,0.4-0.1,0.6c-0.2-0.1-0.2-0.3-0.2-0.4
				c0-1-0.7-1.7-1.4-2.2c-1.3-1-2.9-1.6-4.6-1.7c-4-0.4-7.8-1.5-11.3-3.4c-4-2.2-6.9-5.4-7.9-9.9c-0.1-0.6-0.4-1.3-0.2-1.9
				c0-0.4,0-0.9-0.1-1.4c0.7,0.4,1.4,0.7,2.1,0.8C19.4,8.4,21.2,8.3,23,8c4.4-0.7,8.8-0.8,13.1,0.8c4,1.4,6.9,4.1,8.5,8.1
				c0.8,2,1,4.1,0.9,6.2c-0.1,2.9-0.9,5.7-2.2,8.4c-0.1,0.2-0.2,0.3-0.2,0.5c0,0-0.1,0.1-0.1,0.1c-0.1-0.2-0.1-0.5,0-0.7
				c0.2-0.2,0-0.5,0.1-0.8c0-0.1,0-0.2,0-0.3c0-0.3,0.1-0.5,0.1-0.8c0-1.1-0.1-2.2-0.3-3.4c-0.3-1.6-0.7-3.2-1.4-4.6
				c-1.4-3.1-3.8-5.3-6.9-6.6c-1.4-0.6-2.8-0.9-4.2-1.3"/>
			<path class="st3" d="M44.7,54.1c-0.3,1.8-0.8,3.5-1.3,5.2c-0.5,1.8-1.2,3.5-2,5.2c-0.8,1.7-1.6,3.5-2.6,5.1
				c-1,1.8-2.1,3.6-3.5,5.3c-1.8,2.3-3.9,4.4-6.5,5.7c-0.8,0.4-1.7,0.8-2.6,1c-0.7,0.2-1.4,0.4-2.1,0.9c-0.8,0.6-1.7,1-2.7,1
				c-1.1,0-1.6-0.5-1.7-1.5c0-0.1,0.1-0.2,0.2-0.3c0.1-0.1,0.3-0.1,0.4-0.1c3.2-1.8,7-2.3,9.8-5c2-1.9,3.7-4,5.2-6.3
				c4-6.3,6.7-13.2,7.7-20.6c0.4-2.9,0.5-5.9,0.2-8.8c-0.1-1.6-0.6-3.1-1.1-4.6c0-0.3-0.4-0.5-0.3-0.9c0.7,0.2,1.1,0.8,1.5,1.3
				c0.8,1.1,1.3,2.3,1.5,3.6c0.4,1.7,0.5,3.4,0.5,5.2c0,1.1-0.1,2.3-0.1,3.4c0,0.6,0,1.2-0.1,1.8c0,0.1,0,0.2-0.1,0.3
				c0,0.1,0,0.2,0,0.2c-0.1,0.8-0.2,1.6-0.3,2.4C44.9,53.7,44.9,53.9,44.7,54.1z"/>
			<path class="st3" d="M65.6,43c-0.1,1.6-0.4,3.2-0.6,4.8c-0.1,0.6-0.1,1.2-0.3,1.8c-0.1-0.1,0-0.3-0.2-0.2
				c-0.3,0.2-0.5,0.5-0.7,0.7c-0.9,0.8-2,1.2-3.1,1.7c-1.5,0.7-3.1,1.2-4.7,1.7c-0.4,0.1-0.6,0.3-0.7,0.8c-0.3,2.5-0.6,5-0.9,7.5
				c-0.2,2.3-0.5,4.6-0.3,6.9c0,0.3,0,0.7,0.1,1c0.1,0.3,0,0.5-0.2,0.7c-1.5,1.2-2.9,2.4-4.8,3c-0.7,0.2-1.4,0.5-2.1,0.3
				c-0.8-0.3-1.3-0.7-1.3-1.5c0.1-0.2,0.3-0.2,0.5-0.3c2.1-0.4,3.8-1.6,5.4-2.9c0.3-0.2,0.5-0.5,0.4-0.9c-0.4-2.2-0.1-4.5,0.1-6.7
				c0.3-2.8,0.6-5.6,0.9-8.4c0.1-0.7,0.4-1.1,1.1-1.3c1.7-0.6,3.4-1.1,5-1.9c0.7-0.3,1.4-0.7,2-1.1c1.4-0.9,1.9-2.2,2.3-3.7
				c0.1-0.4,0.1-0.9,0.3-1.3c0.4,0,0.6-0.2,0.9-0.4C65.1,43.2,65.3,42.9,65.6,43z"/>
			<path class="st4" d="M42.4,36.1c0.6,1,0.8,2.2,1,3.3c0.5,2.8,0.4,5.6,0.2,8.5c-0.8,8.9-4.1,16.9-9.1,24.3
				c-1.3,1.9-2.9,3.7-4.7,5.1c-1.8,1.4-3.7,2.5-5.9,2.9c-0.3,0.1-0.5,0.2-0.7,0.3c-1,0.6-2,1.2-3.2,1.4h0c-0.2-0.1-0.4,0-0.6-0.1
				c-0.8-0.2-1.2-0.7-1.2-1.6c1.1,0.3,2-0.1,3-0.6c0.2-0.1,0.4-0.2,0.6-0.4c0.6-0.4,1.3-0.7,2.1-0.9c1.6-0.3,3-1.1,4.4-2.1
				c2.2-1.6,4-3.5,5.5-5.7c1.8-2.6,3.3-5.3,4.7-8.2c1.9-4.1,3.3-8.3,4-12.7c0.3-1.7,0.5-3.4,0.6-5.1c0-1.4,0.1-2.8,0-4.2
				c-0.1-1.3-0.3-2.6-0.6-3.9c-0.1-0.2-0.1-0.4-0.1-0.6C42.3,36.1,42.3,36.1,42.4,36.1z"/>
			<path class="st3" d="M82,41c-1,0.4-1.6,1.2-2.1,2.1c-0.9,1.5-1.6,3-2.2,4.6c-1.1,2.8-2,5.7-2.8,8.6c-0.5,1.7-0.8,3.4-1,5.1
				c-0.1,1.1-0.1,2.3,0.3,3.4c0.1,0.4,0,0.6-0.3,0.8c-0.9,0.6-1.8,1-2.8,1.3c-0.7,0.3-1.5,0.5-2.2,0.6c-1.4,0.1-2.3-0.4-2.8-1.6
				c0.2-0.2,0.4-0.2,0.6-0.2c1.8-0.1,3.5-0.8,5.1-1.7c0.4-0.2,0.6-0.5,0.4-0.9c-0.5-1.7-0.3-3.5,0-5.2c0.8-4.1,2.1-8,3.5-11.9
				c0.7-1.9,1.5-3.7,2.7-5.3c0.1-0.1,0.2-0.3,0.3-0.4c1.2-1.3,2.1-1.2,3,0.4C81.9,40.6,82,40.8,82,41z"/>
			<path class="st3" d="M177,20.1c0.5,0.4,1,0.5,1.5,0.8c0.3,0.2,0.4,0.3,0.3,0.7c-1,2.9-1.4,5.9-1.9,8.9c-0.3,2.3-0.6,4.7-0.7,7
				c-0.1,1.4-0.2,2.9-0.2,4.3c-0.1,1.4,0,2.8,0.1,4.2c0.1,1.7,0.5,3.3,1.1,4.8c0.1,0.3,0.1,0.5-0.1,0.7c-0.7,0.8-1.6,1.3-2.6,1.6
				c-1.5,0.4-2.9,0.3-4.2-0.5c-0.5-0.3-0.9-0.7-1.2-1.3c0.3-0.2,0.7-0.1,1,0c1.7,0.3,3.2-0.1,4.5-1.1c0.7-0.6,0.7-0.8,0.4-1.6
				c-0.9-2.7-1.1-5.4-1-8.2c0.1-4.9,0.7-9.8,1.4-14.6c0.3-1.7,0.6-3.4,1.1-5.1C176.6,20.5,176.6,20.2,177,20.1z"/>
			<path class="st3" d="M3,41.9c0.6,1.4,1,2.9,1.4,4.3c1.9,5.9,3.8,11.8,5.7,17.7c0.1,0.3,0.2,0.6,0.2,1c-0.3,1.5-0.5,3-0.8,4.5
				c-0.2-1.1-0.7-2.1-1-3.2c-1.3-3.8-2.6-7.6-3.9-11.5C3.4,51.2,2.2,47.6,1,44c-0.3-1-0.4-1,0.6-1.4C2.1,42.3,2.5,42.1,3,41.9z"/>
			<path class="st4" d="M81.7,40.6c-0.1-0.3-0.4-0.6-0.6-0.9c-0.5-0.5-0.8-0.5-1.4-0.1c-0.4,0.3-0.7,0.6-1,1
				c-0.7,0.9-1.2,1.9-1.7,2.9c-2.1,4.9-3.8,9.9-4.7,15.2c-0.3,1.5-0.3,3,0.3,4.5c0.1,0.2,0,0.4-0.2,0.5c-1.9,1.1-3.9,2.1-6.2,2
				c-0.8-0.3-1.5-0.7-1.7-1.6c0.1,0,0.1-0.1,0.2-0.1c1.3,0.4,2.6,0.1,3.8-0.3c1.1-0.4,2-0.9,3-1.4c0.2-0.1,0.4-0.2,0.3-0.6
				c-0.7-1.8-0.5-3.6-0.1-5.4c0.7-4,2-7.9,3.4-11.7c0.6-1.5,1.2-3,2.1-4.5c0.4-0.7,0.9-1.4,1.6-1.9c0.6-0.5,0.9-0.4,1.5,0
				c0.3,0.3,0.6,0.7,0.9,1.1c1.4-1.6,4.2-7.4,3.6-11.6c0.5,0.2,0.6,0.7,0.8,1.2c0.4,0.7,0.2,1.5,0.3,2.3c0,0.1,0,0.2,0,0.4
				c0,0.2-0.1,0.4-0.1,0.6c0,0.1,0,0.1,0,0.2c-0.1,0.2-0.1,0.4-0.1,0.5c0,0.1,0,0.1,0,0.2c0,0.1-0.1,0.3-0.1,0.4
				c0,0.1,0,0.1-0.1,0.2c0,0.1,0,0.3-0.1,0.4c0,0.1,0,0.1,0,0.2c-0.1,0.2-0.1,0.4-0.2,0.5c0,0.1,0,0.1-0.1,0.2
				c0,0.1-0.1,0.2-0.1,0.3c0,0,0,0.1,0,0.2c0,0.1,0,0.2-0.1,0.2c0,0,0,0.1,0,0.2c0,0.1-0.1,0.1-0.1,0.2c0,0,0,0.1-0.1,0.1
				c0,0.1-0.1,0.1-0.1,0.2c0,0,0,0.1-0.1,0.1c0,0.1,0,0.1-0.1,0.1c0,0.1,0,0.1-0.1,0.2c0,0,0,0.1-0.1,0.1c0,0,0,0.1-0.1,0.1
				c0,0,0,0.1-0.1,0.2c0,0.1,0,0.1-0.1,0.1c0,0.1,0,0.1-0.1,0.2c0,0.1,0,0.1-0.1,0.1c0,0.1,0,0.1-0.1,0.1c0,0,0,0.1-0.1,0.2
				c0,0.1,0,0.1-0.1,0.1c0,0.1,0,0.1-0.1,0.2c0,0.1,0,0.1-0.1,0.1c0,0.1,0,0.1-0.1,0.2c0,0,0,0.1-0.1,0.1c0,0,0,0.1-0.1,0.1
				c0,0,0,0.1-0.1,0.1c0,0.1,0,0.1-0.1,0.1c0,0-0.1,0.1-0.1,0.1c0,0,0,0,0,0.1c0,0,0,0.1-0.1,0.1c0,0,0,0.1-0.1,0.1
				c0,0.1-0.1,0.1-0.1,0.2c0,0,0,0.1-0.1,0.1c0,0-0.1,0.1-0.1,0.1c0,0,0,0,0,0.1c0,0,0,0.1-0.1,0.1c0,0.1,0,0.1-0.1,0.1
				c0,0-0.1,0.1-0.1,0.1c0,0,0,0,0,0.1c0,0.1-0.1,0.1-0.1,0.2c0,0-0.1,0.1-0.1,0.1C82,40.9,81.8,40.9,81.7,40.6z"/>
			<path class="st3" d="M109.7,30.2c0.1,0.8,0.2,1.5,0.3,2.2c0.3,0.1,0.4-0.2,0.7-0.1c0.5,0.5,0.2,1.1,0.4,1.6
				c-0.3,0.9-0.3,1.7-0.5,2.6c-0.2,2-0.5,3.9-0.7,5.9c-0.1,1.6-0.2,3.1-0.3,4.7c0,1,0,2.1,0,3.1c0.1,1.8,0.4,3.6,1.1,5.3
				c0.2,0.4,0.2,0.7-0.1,1.1c-1.4,1.5-3,2.5-5.1,2.5c-1.4,0-2.5-0.5-3.2-1.8c0.2-0.2,0.5-0.1,0.7-0.1c2.2,0.2,4-0.7,5.4-2.2
				c0.3-0.3,0.3-0.7,0.2-1.1c-1-2.5-1.2-5.1-1.1-7.8c0.1-4.9,0.8-9.7,1.5-14.5c0.1-0.4,0.1-0.9,0.4-1.2
				C109.5,30.2,109.6,30.2,109.7,30.2z"/>
			<path class="st4" d="M64.2,43.7c-0.1,0.5-0.2,1.1-0.3,1.6c-0.4,1.9-1.4,3.3-3.2,4.1c-2,1-4.1,1.7-6.3,2.5c-0.1,0-0.2,0.1-0.3,0.1
				c-0.3,0.1-0.4,0.2-0.5,0.5c-0.2,1.7-0.4,3.5-0.6,5.2c-0.2,2.3-0.5,4.6-0.6,6.9c-0.1,1.2-0.1,2.4,0.2,3.5c0.1,0.3,0,0.5-0.2,0.7
				c-1.3,1.1-2.6,2-4.1,2.7c-0.7,0.3-1.5,0.5-2.3,0.6c-1.3-0.3-1.7-0.6-1.8-1.8c0.9,0.4,1.8,0.2,2.7-0.1c1.6-0.5,2.9-1.5,4.2-2.5
				c0.1-0.1,0.2-0.2,0.3-0.3c0.4-0.3,0.5-0.5,0.4-1c-0.2-1.3-0.2-2.6-0.1-4c0.1-1.6,0.3-3.2,0.4-4.8c0.2-1.6,0.4-3.2,0.5-4.7
				c0.1-0.6,0.2-1.1,0.2-1.7c0-0.5,0.3-0.8,0.8-0.9c1.4-0.4,2.8-0.9,4.2-1.5c1-0.4,1.9-0.8,2.7-1.3c1.2-0.7,2-1.7,2.4-3
				c0.3-0.9,0.4-1.9,0.6-2.8c0.2-0.3,0.4-0.5,0.7-0.5c0.4,0.1,0.3,0.5,0.3,0.8C64.4,42.6,64.5,43.1,64.2,43.7z"/>
			<path class="st3" d="M69.6,29.1c-1.2,0.5-2.3,1.1-3.4,1.9c-0.7,0.5-0.7,0.4-0.4,1.1c0,0.1,0,0.1,0,0.2c-0.2,0.4-0.6,0.4-0.9,0.5
				c-2.1,0.6-4.2,1.1-6.3,1.6c-0.7,0.2-1,0.5-1,1.2c-0.2,2.2-0.5,4.4-0.7,6.6c0,0.3-0.1,0.5-0.2,0.8c-0.7,0.3-1.4,0.6-2.2,0.7
				c-0.2-0.2-0.2-0.5-0.1-0.8c0.4-3.1,0.7-6.3,1.1-9.5c0.1-0.7,0.5-0.8,1-1c2-0.5,4-1,6-1.5c1.2-0.3,2.3-0.7,3.3-1.5
				c1.4-1.1,2.1-2.7,2.7-4.3c0.1-0.3,0-0.6,0.4-0.7c0.1,0.2,0.3,0.1,0.4,0c0.6-0.2,1-0.6,1.7-0.7c0,0.7-0.1,1.4-0.3,2.1
				c-0.3,1-0.5,2.1-1,3.1C69.5,29,69.5,29.1,69.6,29.1z"/>
			<path class="st3" d="M153.4,23.6c-1,2.1-1.9,4.3-2.6,6.6c-1.6,0.6-3.2,0.8-4.8,0.9c-1,0-1,0.1-1.1,1c-0.4,3.5-0.8,7-1,10.5
				c0,0.6,0.1,1.1,0,1.7c-0.7,0.2-1.3,0.5-1.9-0.2c-0.5-0.9-0.4-1.9-0.3-2.9c0.1-3.6,0.5-7.2,0.9-10.9c0.1-1.2,0.2-1.2,1.4-1.3
				c1-0.1,2.1-0.1,3.1-0.3c2.1-0.5,3.4-1.7,4-3.8c0.1-0.3,0-0.7,0.4-0.7C152.2,23.8,152.8,23.7,153.4,23.6z"/>
			<path class="st3" d="M129.2,30c0.2,0,0.4-0.2,0.6-0.2c0.3,0.3,0.3,0.6,0.4,0.9c0,0.4,0.2,0.5,0.5,0.3c0.8-0.5,1.7-0.8,2.6-1.1
				c0.3-0.1,0.6-0.2,0.8,0c-0.1,0.8-0.1,1.6-0.3,2.3c-0.7,0.1-1.2,0.6-1.9,0.9c-0.1-0.6-0.2-1.1-0.3-1.7c-0.4,0.2-0.8,0.4-1.2,0.5
				c-0.7,0.3-1.3,0.4-2,0.4c-0.8,0-1.6,0.3-2.4,0.3c-0.2,0-0.3,0.1-0.4,0.4c-0.1,0.8-0.2,1.5-0.3,2.3c-0.2,1.5-0.3,2.9-0.4,4.4
				c-0.1,1-0.1,2-0.2,3c-0.1,0.8,0,1.5-0.1,2.3c0,0.3-0.1,0.7,0.2,1c-0.4,0.2-0.8,0.2-1.2,0.3c-0.3,0-0.5,0-0.7-0.3
				c0-0.1-0.1-0.1-0.1-0.2c-0.1-0.1-0.2-0.3-0.2-0.4c-0.2-1.9,0-3.8,0.2-5.7c0.2-2.5,0.5-5.1,0.8-7.6c0.1-1.1,0.2-1.1,1.3-1.3
				c1.3-0.1,2.6-0.2,3.8-0.6C128.8,30,129,29.9,129.2,30z"/>
			<path class="st4" d="M68.8,24.5c-0.2,0.8-0.4,1.5-0.8,2.3c-1,2.2-2.6,3.7-5.1,4.3c-2.2,0.6-4.4,1.1-6.6,1.7
				c-0.6,0.2-0.6,0.2-0.7,0.8c-0.4,3.2-0.7,6.4-1.1,9.5c0,0.2,0,0.4,0,0.6c-0.3,0.1-0.6,0.3-1,0.3c0-1,0.2-1.9,0.3-2.9
				c0.2-1.7,0.4-3.4,0.6-5.1c0.2-1.4,0.4-2.7,0.5-4.1c0-0.4,0.2-0.6,0.5-0.6c0.9-0.2,1.9-0.5,2.8-0.7c1.5-0.4,3-0.7,4.4-1.1
				c1.9-0.6,3.3-1.8,4.2-3.5c0.6-1.1,0.9-2.2,1.2-3.4c0.4,0,0.7-0.4,1.1-0.4C69.1,22.9,68.9,23.7,68.8,24.5z"/>
			<path class="st4" d="M177,20.1c-0.6,1.5-0.9,3.1-1.2,4.7c-0.7,3.7-1.1,7.5-1.4,11.2c-0.2,2.4-0.3,4.8-0.2,7.2
				c0.1,2.1,0.4,4.1,1.2,6.1c0.1,0.4,0,0.5-0.2,0.8c-1.6,1.6-3.4,2.1-5.6,1.6c-0.2,0-0.4-0.1-0.6-0.1c-0.9-0.5-1.7-1.1-2.1-2.1
				c0.2-0.2,0.4,0,0.6,0.1c2,1.3,5.2,0.8,6.8-1.1c0.2-0.3,0.3-0.5,0.1-0.8c-0.6-1.4-1-2.8-1.1-4.3c-0.1-1.3-0.2-2.6-0.2-3.9
				c0-1.3,0.1-2.6,0.2-3.9c0.1-1.2,0.2-2.4,0.3-3.5c0.2-2.2,0.5-4.4,0.8-6.6c0.3-2,0.6-3.9,1.2-5.8c0.1-0.2,0.1-0.5,0.3-0.7
				c0.2,0.1,0.4,0.2,0.6,0.3C177.1,19.5,177.1,19.5,177,20.1z"/>
			<path class="st4" d="M109.6,30.2c-0.4,1.9-0.6,3.8-0.9,5.7c-0.4,2.9-0.7,5.8-0.8,8.7c-0.1,2.4-0.2,4.8,0.4,7.2
				c0.2,0.8,0.4,1.5,0.8,2.3c0.1,0.2,0.2,0.4,0,0.7c-1.3,1.6-3,2.6-5.1,2.7c-0.5,0-1-0.1-1.5-0.2c-0.8-0.4-1.5-0.9-1.8-1.7
				c0,0,0,0-0.1-0.1c0-0.1-0.1-0.2-0.1-0.3c0.1,0,0.1,0,0.2,0.1c2.3,1.4,4.4,0.7,6.4-0.8c0.4-0.3,0.8-0.7,1.1-1
				c0.2-0.2,0.3-0.4,0.1-0.8c-0.5-1.1-0.8-2.3-1.1-3.5c0-0.2-0.1-0.4-0.1-0.7c-0.1-1.9-0.2-3.8-0.1-5.7c0.1-1.6,0.2-3.3,0.4-4.9
				c0.2-2.3,0.6-4.6,0.9-6.9c0.2-1,0.3-2.1,0.5-3.1c0.2-1.2,0.3-2.3,0.2-3.5c0-0.3-0.1-0.5,0-0.8c0.4,0.2,0.5,0.6,0.7,1
				c0.4,0.5,0.5,1.2,0.4,1.8c-0.1,0.3-0.1,0.7-0.2,1c-0.1,0.3-0.1,0.5-0.2,0.8c0,0.5-0.1,1-0.2,1.5
				C109.6,29.9,109.7,30.1,109.6,30.2z"/>
			<path class="st3" d="M95.9,44c-0.7,1.8-1.5,3.5-2.4,5.2c0,0.1-0.1,0.1-0.2,0.2c-0.3-0.3-0.2-0.6-0.2-1c0.4-4.4,0.9-8.8,1.5-13.1
				c0.3-2.1,0.6-4.2,0.7-6.3c0-0.4,0-0.8,0-1.2c-0.1-0.3-0.1-0.5,0.1-0.8c1.1,0.4,1.7,1.1,1.9,2.3c0.2,1,0,2-0.1,3
				c-0.3,2.7-0.7,5.3-1,7.9c-0.1,1-0.3,2.1-0.4,3.1C95.8,43.7,95.8,43.9,95.9,44z"/>
			<path class="st4" d="M15.5,8.6c0.4,3.1,1.5,5.8,3.7,8.2c1.6,1.7,3.4,3,5.4,4c3.1,1.5,6.4,2.4,9.8,2.8c1.9,0.2,3.7,0.7,5.3,1.9
				c0.1,0.1,0.3,0.2,0.4,0.4c0.8,0.6,1.1,1.4,1.1,2.4c0,0.2,0.1,0.3-0.1,0.5c-0.4-0.8-1-1.5-1.7-2c-1.1-0.8-2.3-1.4-3.7-1.6
				c-1.2-0.2-2.5-0.3-3.7-0.6c-3-0.6-5.8-1.5-8.5-2.9c-1.9-1-3.5-2.3-4.9-3.9c-2.1-2.5-3.2-5.4-3.3-8.7C15.2,8.8,15.1,8.5,15.5,8.6z
				"/>
			<path class="st3" d="M130.5,46.7c0.1,0,0.2,0,0.3-0.1c0.6-0.5,0.6-0.5,1,0.3c0.3,0.7,0.7,1.5,0.7,2.3c0.1,1.3-0.2,2.6-1.1,3.6
				c-1.6,2-3.7,3.2-6.3,3.8c-1.5,0.3-3,0.4-4.4-0.1c-1-0.3-1.8-0.8-2.4-1.8c0.2-0.2,0.4-0.1,0.6,0c3.9,1.1,8.5-1,10.6-3.8
				c0.8-1,1.1-2.2,1-3.5C130.5,47.2,130.3,46.9,130.5,46.7z"/>
			<path class="st3" d="M98.8,50.6c0.3,0.3,0.1,0.6,0.2,1c0.1,1,0.4,1.9,0.8,2.8c-0.2,0-0.3,0.2-0.4,0.3c-0.7,1.3-1.4,2.5-2.2,3.6
				c-1,1.3-2.1,2.5-3.7,3.3c-1.1,0.6-2.3,0.7-3.5,0.6c-1.1-0.1-1.8-0.8-2.4-1.7c0.2-0.2,0.4-0.1,0.6-0.1c2.1,0.3,3.7-0.5,5.2-1.8
				c2.1-1.9,3.4-4.3,4.6-6.7C98.3,51.4,98.4,50.9,98.8,50.6z"/>
			<path class="st4" d="M151.6,24.1c-0.2,0.3-0.2,0.6-0.3,1c-0.6,2.1-1.9,3.3-4,3.8c-1.2,0.3-2.4,0.2-3.6,0.3c-0.7,0-0.7,0-0.7,0.7
				c-0.3,2.8-0.6,5.5-0.9,8.3c-0.1,2-0.3,3.9-0.1,5.9c-0.6-0.4-0.7-1-0.8-1.6c-0.2-1.7-0.2-3.5,0-5.2c0.1-1.6,0.3-3.2,0.4-4.8
				c0.1-1.5,0.3-2.9,0.5-4.4c0-0.3,0.2-0.4,0.5-0.4c0.9,0,1.9-0.1,2.8-0.1c1.3-0.1,2.5-0.5,3.5-1.4c1-0.8,1.4-2,1.6-3.2
				c0-0.2,0.1-0.5,0.1-0.7c0.3,0,0.5-0.1,0.8-0.1C151.7,22.7,151.5,23.4,151.6,24.1z"/>
			<path class="st3" d="M165.2,43.5c0.2,0.2,0.1,0.5,0.1,0.7c0,1.1,0.2,2.2,0.6,3.2c-0.2,0-0.3,0.2-0.4,0.4
				c-0.6,1.1-1.4,2.1-2.2,3.1c-1,1.2-2.1,2.3-3.7,2.8c-2,0.6-4.1,0.3-5.5-1.5c-0.1-0.1-0.1-0.2-0.1-0.3c0.1-0.2,0.3-0.1,0.5-0.1
				c2.5,0.7,4.5-0.3,6.2-2c1.6-1.6,2.7-3.5,3.8-5.5C164.7,44.1,164.8,43.7,165.2,43.5z"/>
			<path class="st3" d="M150.1,46.3c0.3,0.9,0.6,1.7,1.1,2.4c0.1,0.2,0.2,0.5,0.3,0.7c-0.4,0.9-0.9,1.8-1.6,2.4
				c-1.5,1.3-3.2,2.2-5.1,2.7c-1.6,0.4-3.3,0.4-4.8-0.2c-1-0.3-1.9-0.8-2.3-1.8c0.3-0.2,0.5,0,0.8,0c2.1,0.7,4.2,0.4,6.2-0.4
				c0.8-0.3,1.5-0.7,2.2-1.2c1.5-1,2.5-2.3,2.9-4.1C149.9,46.7,149.8,46.4,150.1,46.3z"/>
			<path class="st4" d="M98.8,50.6c-1,2.4-2.2,4.7-3.9,6.7c-0.7,0.8-1.4,1.6-2.3,2.1c-1.5,1-3.1,1.5-4.9,1c-0.9-0.4-1.6-1-1.9-1.9
				c0.1-0.1,0.1-0.1,0.2,0c1.5,1,3.1,0.7,4.6,0C92,57.9,93,57,94,55.9c2-2.4,3.3-5.2,4.5-8c0.1-0.2,0.2-0.4,0.4-0.6
				c0,0.3,0.1,0.5,0,0.8C98.8,48.8,99,49.7,98.8,50.6z"/>
			<path class="st4" d="M165.2,43.5c-0.9,1.8-1.9,3.5-3.1,5.1c-0.7,1-1.6,1.9-2.6,2.6c-1.6,1.2-3.3,1.5-5.2,0.8c-0.1,0-0.1,0-0.2,0
				c-1-0.6-1.8-1.3-2.3-2.4c0.2-0.2,0.3,0,0.4,0.1c1,0.8,2.1,1.2,3.4,1.2c1.1,0,2-0.4,2.9-1c1.3-0.9,2.4-2.1,3.3-3.4
				c1.2-1.8,2.3-3.6,3.2-5.6c0.1-0.2,0.2-0.4,0.5-0.7c0,0.3,0.1,0.5,0,0.7C165.2,41.8,165.4,42.7,165.2,43.5z"/>
			<path class="st4" d="M130.5,46.7c0.5,2.1-0.1,3.9-1.7,5.4c-2.3,2.1-5,3.2-8.2,3.1c-0.8,0-1.5-0.3-2.3-0.5c-0.9-0.5-1.7-1.1-2.2-2
				c-0.1-0.1-0.1-0.2-0.2-0.3c0.2-0.2,0.3,0,0.4,0.1c1.2,1,2.7,1.3,4.3,1.3c1.5-0.1,2.9-0.4,4.2-1.1c1.2-0.6,2.3-1.3,3.3-2.3
				c1.1-1.1,1.7-2.4,1.7-4c0-0.5-0.2-0.9-0.2-1.4c0-0.1,0.1-0.1,0.1,0C130.1,45.5,130.3,46.1,130.5,46.7z"/>
			<path class="st4" d="M149.9,46.9c-0.2,1.4-0.8,2.6-1.9,3.5c-2.4,2.1-5.2,3.1-8.4,2.7c-0.7-0.1-1.3-0.3-2-0.5
				c-0.9-0.5-1.7-1.1-2.2-2.1c-0.1-0.1-0.1-0.2-0.2-0.3c0,0,0-0.1-0.1-0.1c-0.1-0.1-0.1-0.2-0.1-0.3c0.2,0,0.4,0.2,0.5,0.4
				c1.1,1,2.5,1.4,4,1.4c1.8,0,3.5-0.3,5.1-1.1c1.4-0.7,2.7-1.6,3.5-2.9c0.7-1.2,1-2.5,0.6-3.8c0-0.1,0-0.3-0.1-0.4
				c0.1,0,0.1-0.1,0.2,0c0.4,0.2,0.4,0.7,0.6,1c0.1,0.3,0.1,0.5,0.1,0.8C150,45.7,150,46.3,149.9,46.9z"/>
			<path class="st4" d="M95.4,27.1c0.4,1.6,0.1,3.2-0.1,4.8c-0.6,4.9-1.3,9.8-1.8,14.7c-0.1,0.9-0.2,1.9-0.2,2.8
				c-0.2,0.3-0.3,0.7-0.8,0.9c-0.2-0.7-0.2-1.4-0.1-2.1c0-1,0.2-2,0.3-3c0.1-1.4,0.3-2.8,0.4-4.3c0.2-2.1,0.5-4.2,0.8-6.3
				c0.2-1.8,0.5-3.6,0.7-5.4c0.1-1,0.1-2.1,0-3.1C95.1,26.3,95.2,26.8,95.4,27.1z"/>
			<path class="st3" d="M85.6,31.5c0-0.1,0-0.2,0-0.2c0.2-0.8-0.1-1.6,0-2.4c0.3,0,0.6,0.2,0.9,0.2c0.2,0.3,0.1,0.5,0.1,0.8
				c0.1,0.2,0,0.5,0,0.7c-0.1,0.4,0.1,0.8-0.1,1.2c0,0.1,0,0.3,0,0.4c-0.1,0.3,0,0.6-0.1,0.9c0,0.1,0,0.2,0,0.2
				c-0.2,0.3,0.1,0.6-0.1,0.9c0,0.1,0,0.2,0,0.3c-0.1,0.2,0,0.5-0.1,0.8c0,0.1,0,0.2,0,0.3c-0.1,0.2,0,0.4-0.1,0.6
				c0,0.1,0,0.2,0,0.2c-0.2,0.2,0,0.5-0.1,0.7c0,0,0,0.1,0,0.1c-0.1,0.2,0,0.4-0.1,0.6c0,0.1,0,0.2,0,0.2c-0.2,0.2,0.1,0.5-0.1,0.6
				c-0.5,1-1,1.9-1.5,2.9c-0.1,0.1-0.1,0.2-0.2,0.3c-0.3,0.4-0.3,0.4-0.6,0c-0.4-0.4-0.7-0.9-1.2-1.2c-0.1-0.1-0.1-0.2,0-0.3l0,0
				c0.1-0.1,0.1-0.2,0.2-0.3v0c0.1,0,0.1-0.1,0.1-0.2l0,0c0.1-0.1,0.1-0.2,0.2-0.3v0c0.1-0.1,0.1-0.1,0.1-0.2l0,0
				c0.1,0,0.1-0.2,0.2-0.3l0,0c0.1-0.1,0.1-0.2,0.2-0.3l0,0c0.1-0.1,0.1-0.1,0.1-0.2l0,0c0.1-0.1,0.1-0.2,0.2-0.3l0,0
				c0.1-0.1,0.1-0.2,0.2-0.3l0,0c0.1-0.1,0.1-0.2,0.1-0.3v0c0.1-0.1,0.1-0.2,0.1-0.3l0,0c0.1-0.1,0-0.2,0.1-0.3v0
				c0.1-0.1,0-0.2,0.1-0.3l0,0c0.1-0.1,0-0.2,0.1-0.3v0c0.1-0.1,0-0.2,0.1-0.3v0c0.1-0.1,0.1-0.2,0.1-0.3l0,0
				c0.1-0.1,0.1-0.2,0.1-0.3l0,0c0.1-0.1,0.1-0.2,0.1-0.4c0,0,0-0.1,0-0.1c0.1-0.1,0-0.2,0.1-0.3l0,0c0.2-0.1,0-0.3,0.1-0.4v0
				c0.2-0.2,0.2-0.5,0.2-0.8c0,0,0-0.1,0-0.1c0.1-0.1,0-0.3,0.1-0.5l0,0c0.1-0.1,0-0.3,0.1-0.5c0,0,0-0.1,0-0.1
				c0.2-0.2,0-0.4,0.1-0.6c0,0,0-0.1,0-0.1C85.6,31.9,85.5,31.7,85.6,31.5z"/>
			<path class="st3" d="M146.8,21.3c-0.9,0.3-1.8,0.3-2.8,0.3c-0.2-0.3-0.1-0.7,0-1.1c0.3-1.8,0.6-3.6,0.7-5.5c0-0.6,0-1.1,0-1.7
				c0-0.2-0.1-0.5,0.1-0.7c1.1,0.2,1.5,1,1.8,1.9c0.3,1,0.1,2,0.1,2.9c-0.1,1.1-0.3,2.1-0.4,3.2C146.2,21.2,146.2,21.2,146.8,21.3z"
				/>
			<path class="st3" d="M127,23c-0.7,0.2-1.4,0.3-2.2,0.4c-0.3-0.4-0.1-0.8-0.1-1.2c0.3-1.6,0.5-3.1,0.7-4.7c0.1-0.7,0-1.4,0-2.1
				c0-0.3-0.1-0.6,0.2-0.9c1.1,0.3,1.8,1.1,1.9,2.2c0.2,1.6,0,3.2-0.3,4.8C127.1,22,126.9,22.5,127,23z"/>
			<path class="st5" d="M34.7,16c-1.4-0.9-2.9-1.8-4.5-2.4c0-0.1,0-0.2,0.1-0.2c2.9,0.5,5.7,1.4,8,3.4c2.2,1.9,3.6,4.2,4.3,7
				c0.2,0.7,0.4,1.4,0.4,2.1c0,0.2,0.2,0.4-0.1,0.5c-0.3-1-0.5-2.1-0.9-3.1c-1.2-3.1-3.3-5.4-6.3-6.8c-0.2,0-0.4-0.1-0.6-0.3
				c-0.1,0-0.1,0-0.2,0C34.9,16.1,34.8,16,34.7,16z"/>
			<path class="st4" d="M15.1,50c0.2-0.4,0.5-0.6,0.8-0.8c1.5-1.2,3-2.4,4.7-3.4c0,0.8,0.1,1.5-0.2,2.2c0,0.1,0,0.1,0,0.1
				c-1.2,1-2.3,1.9-3.7,2.7c-0.4,0.4-0.9,0.7-1.4,1.1C15.1,51.2,15.1,50.6,15.1,50z"/>
			<path class="st3" d="M16.7,50.8c1.1-1,2.4-1.9,3.7-2.8c0.1,0.1,0.1,0.1,0.1,0.2c-0.1,1-0.1,2-0.3,3c-0.3-0.2-0.4,0.1-0.5,0.2
				c-0.8,0.7-1.6,1.3-2.5,2C17,53.3,17,53,17,52.8c0-0.5-0.1-1-0.1-1.5C16.9,51.1,16.9,50.9,16.7,50.8z"/>
			<path class="st4" d="M144.8,12.6c0.4,1.6,0.1,3.3-0.1,4.9c-0.2,1.3-0.4,2.7-0.6,4c-1.1,0.1-1.1,0.1-0.9-1
				c0.3-1.7,0.6-3.5,0.8-5.2c0.2-1.3,0.2-2.5,0.2-3.8c0,0,0.1,0,0.1,0.1l0,0C144.5,11.9,144.6,12.3,144.8,12.6z"/>
			<path class="st4" d="M125.6,14.4c0.3,2.1,0,4.2-0.3,6.3c-0.1,0.9-0.3,1.8-0.4,2.6c-0.4,0-0.7,0.1-1.1,0c0.1-1,0.3-2,0.4-2.9
				c0.3-1.7,0.5-3.4,0.7-5.1c0-0.4,0-0.8,0-1.2c0-0.2-0.1-0.5,0.1-0.7C125.2,13.7,125.3,14.1,125.6,14.4z"/>
			<path class="st5" d="M111.1,34c-0.2,0-0.3-0.2-0.3-0.3c0-0.4-0.1-0.9-0.1-1.3c0-0.2,0.2-0.3,0.4-0.4c1.1-0.7,2.2-1.1,3.5-1.4
				c0.6-0.1,0.7,0,0.6,0.6c-0.1,0.4,0,0.8-0.4,1.1c-0.7,0.6-1.6,0.8-2.4,1C111.8,33.5,111.4,33.7,111.1,34z"/>
			<path class="st6" d="M112.2,33.3c0.8-0.5,1.6-0.8,2.4-1c0.2,0,0.3,0.1,0.3,0.3c-0.1,0.8-0.2,1.5-0.3,2.3c-0.1-0.2-0.2-0.1-0.4,0
				c-0.4,0.2-0.7,0.5-1.1,0.7c-0.4,0.2-0.5,0.2-0.5-0.3c0-0.6-0.2-1.1-0.2-1.6C112.4,33.4,112.3,33.4,112.2,33.3z"/>
			<path class="st5" d="M75.1,34.3c-0.3,1-0.8,1.9-1.2,2.8c0.1-2.1,0.6-4.2,0.3-6.3c0.4,0.2,0.5,0.7,0.8,1.1
				C75.5,32.7,75.3,33.5,75.1,34.3z"/>
			<path class="st7" d="M110,26.5c0-0.6-0.1-1.3-0.2-1.9c0.7,0.2,1.1,0.6,1.5,1.1c-0.5,0.4-0.9,0.9-1.1,1.5
				C109.8,27.1,110,26.8,110,26.5z"/>
			<path class="st8" d="M75.1,34.3c0-0.8,0-1.6-0.1-2.3c0.4,0,0.7,0.5,1.2,0.4C75.8,33,75.6,33.7,75.1,34.3z"/>
			<path class="st9" d="M44.7,54.1c0.1-1,0.4-2,0.4-3.1c0.1-0.1,0.1-0.1,0.2,0c0,0.1,0,0.1,0,0.2c0,0.1,0,0.2,0,0.3
				c-0.1,1-0.2,2.1-0.4,3.1C44.8,54.4,44.9,54.2,44.7,54.1z"/>
			<path class="st10" d="M42.9,26.4c0.2-0.1,0.1-0.3,0.1-0.5c0.2,0.2,0.1,0.5,0.2,0.7c0.1,1,0.1,2.7,0.1,3.7c-0.1,1-0.2,1.2-0.2,1.1
				C43.2,29.9,43,27.4,42.9,26.4z"/>
			<path class="st11" d="M45.3,51c0,0-0.1,0-0.1,0c0,0,0-0.1,0-0.1c0,0,0.1-0.1,0.1-0.2c0-0.6,0-1.3,0.2-1.9c0,0.1,0,0.3,0.2,0.4
				c0.1,0.3-0.1,0.7-0.1,1c-0.1,0.1-0.1,0.2-0.1,0.4c0,0.1,0,0.2,0,0.4C45.4,51.1,45.3,51.1,45.3,51z"/>
			<path class="st3" d="M85.6,28.9c0,0.6,0.1,1.2,0.1,1.7c0,0.2,0.1,0.4-0.1,0.6c0-0.8,0-1.7-0.1-2.5C85.5,28.8,85.6,28.9,85.6,28.9
				z"/>
			<path class="st3" d="M86.6,30c0-0.3,0-0.5-0.1-0.8c0-0.3,0-0.7,0-1C86.7,28.7,86.7,29.3,86.6,30z"/>
			<path class="st12" d="M42.4,36.1c-0.1,0-0.1,0-0.2,0c-0.2-0.3-0.3-0.6-0.3-0.9c0,0,0.1,0,0.1,0C42.1,35.6,42.4,35.8,42.4,36.1z"
				/>
			<path class="st3" d="M82.2,40.6c0,0.1,0,0.2,0,0.3c-0.1,0-0.2,0-0.2,0c-0.2,0-0.4-0.1-0.3-0.3C81.9,40.8,82,40.8,82.2,40.6z"/>
			<path class="st3" d="M85.8,38.9c0.1-0.2-0.1-0.5,0.1-0.6c0,0.3,0.1,0.5-0.1,0.8C85.8,39,85.8,38.9,85.8,38.9z"/>
			<path class="st3" d="M19.2,81.9c0.2,0,0.4,0,0.6,0.1C19.6,82,19.4,82.1,19.2,81.9z"/>
			<path class="st13" d="M129.8,45L129.8,45l-0.1,0c-0.2-0.1-0.1-0.3-0.2-0.5C129.7,44.6,129.8,44.8,129.8,45z"/>
			<polygon class="st2" points="144.2,11.7 144.1,11.7 144.1,11.7 144.2,11.7 			"/>
			<path class="st3" d="M5.8,98.7c0-0.1,0.1-0.1,0.2-0.1C5.9,98.7,5.8,98.7,5.8,98.7z"/>
			<path class="st2" d="M100.5,55.5C100.6,55.5,100.6,55.5,100.5,55.5L100.5,55.5L100.5,55.5z"/>
			<path class="st2" d="M135.3,50.1C135.3,50.2,135.3,50.2,135.3,50.1C135.3,50.2,135.3,50.2,135.3,50.1L135.3,50.1z"/>
			<path class="st0" d="M149.5,44.3c-0.2-0.3-0.3-0.7-0.5-1c-0.1-0.1-0.2-0.3-0.3-0.4c-0.2-0.5-0.4-1-0.7-1.5
				c-0.3,0.1-0.5,0.3-0.7,0.5c-0.9,0.8-1.8,1.6-2.9,2.1c-0.1,0.1-0.3,0.1-0.4,0.1c-0.2-0.1-0.2-0.4-0.2-0.6
				c-0.1-1.4,0.1-2.7,0.2-4.1c0.1-1.2,0.2-2.4,0.3-3.7c0.2-1.5,0.3-3.1,0.5-4.6c0-0.3,0.2-0.4,0.5-0.4c0.6,0,1.2-0.1,1.8-0.1
				c1.2,0,2.3-0.2,3.4-0.7c0.2-0.1,0.3-0.1,0.4,0.2c-0.4,1.7-0.8,3.4-1.1,5.1c-0.4,2.9-0.4,5.8-0.1,8.8
				C149.7,44.2,149.8,44.3,149.5,44.3z"/>
			<path class="st4" d="M122.8,45.7c0,0.1,0,0.2,0,0.2c-0.7-0.4-0.8-1.2-0.9-1.9c-0.2-1.4-0.1-2.9,0-4.4c0.1-1.3,0.2-2.5,0.3-3.7
				c0.1-1.4,0.3-2.8,0.4-4.3c0.1-0.5,0.1-1,0.2-1.5c0.1-0.7,0.1-0.7,0.8-0.8c1.2-0.1,2.5-0.2,3.7-0.5c0.6-0.1,1.1-0.4,1.7-0.7
				c0.1,0.6,0.3,1.2,0.3,1.7c-0.7,0.4-1.5,0.6-2.4,0.7c-0.9,0.1-1.7,0.2-2.6,0.3c-0.4,0-0.5,0.1-0.5,0.5c-0.2,2-0.5,4.1-0.7,6.1
				c-0.2,2-0.3,3.9-0.4,5.9c0,0.7,0,1.4,0.1,2C122.8,45.6,122.8,45.6,122.8,45.7z"/>
			<path class="st4" d="M134.2,29.9c-1.4,0.2-2.8,0.9-4,1.7c-0.1-0.7-0.2-1.2-0.3-1.8c1.3-1,2.8-1.4,4.5-1.5
				C134.3,28.9,134.3,29.4,134.2,29.9z"/>
			<path class="st14" d="M110,26.5c0.1,0.2,0,0.5,0.2,0.7c0,0.2-0.1,0.3-0.1,0.5c-0.1,0-0.2,0-0.2-0.1
				C109.9,27.2,109.8,26.9,110,26.5z"/>
			<path class="st15" d="M109.9,27.6c0.1,0,0.1,0.1,0.2,0.1c-0.1,0.2-0.1,0.4-0.2,0.6C109.8,28.1,109.7,27.8,109.9,27.6z"/>
			<path class="st16" d="M148.7,42.9c0.2,0,0.3,0.2,0.3,0.4c0,0-0.1,0-0.2,0C148.8,43.2,148.7,43.1,148.7,42.9z"/>
			<path class="st17" d="M109.6,30.2c0-0.1,0-0.3,0-0.4c0.1,0.1,0.2,0.3,0.1,0.4L109.6,30.2L109.6,30.2z"/>
			<path class="st0" d="M34.3,41.6c0.3,0.6,0.3,1.3,0.4,1.9c0.6,7.4-0.2,14.6-2.9,21.6c-0.5,1.2-1,2.4-1.8,3.5
				c-0.4,0.5-0.8,1.1-1.3,1.4c-0.5-0.2-0.3-0.6-0.3-0.9c0.1-1.4,0.3-2.8,0.4-4.3c0.8-6.9,1.5-13.8,2.2-20.7c0.1-0.8,0.4-1.4,1.1-1.8
				C32.9,42.1,33.5,41.5,34.3,41.6z"/>
			<path class="st3" d="M34.3,41.6c-0.9,0.3-1.7,0.7-2.5,1.2c-0.3,0.2-0.5,0.4-0.5,0.8c-0.2,2-0.4,4.1-0.7,6.1
				c-0.2,1.7-0.3,3.4-0.5,5c-0.2,1.4-0.3,2.8-0.5,4.2c-0.2,1.7-0.4,3.4-0.5,5c-0.1,1.4-0.3,2.8-0.5,4.2c0,0.4-0.1,0.9-0.1,1.3
				c0,0.2-0.1,0.4,0.2,0.5c-0.6,0.6-1.4,0.8-2.3,0.8c-0.3-0.4-0.1-0.9-0.1-1.3c0.3-2.7,0.6-5.5,0.9-8.2c0.7-6.2,1.4-12.3,2-18.5
				c0.1-0.6,0-1.3,0.7-1.7c1-0.6,1.9-1.3,3.1-1.2c0.3,0,0.6,0.1,0.8,0.5C34.2,40.7,34.3,41.2,34.3,41.6z"/>
			<path class="st4" d="M33.9,40.4c-0.7-0.4-1.3-0.4-2-0.1c-0.7,0.3-1.3,0.7-2,1.1c-0.2,0.2-0.3,0.4-0.3,0.6
				c-0.3,2.9-0.6,5.7-0.9,8.6c-0.4,3.6-0.8,7.1-1.2,10.7c-0.3,3.2-0.7,6.4-1,9.7c-0.3,0-0.7,0.2-0.9,0c-0.3-0.2,0-0.6,0-0.8
				c0.1-1.4,0.3-2.8,0.4-4.2c0.2-1.5,0.3-2.9,0.5-4.4c0.2-1.6,0.4-3.3,0.5-4.9c0.2-1.4,0.3-2.9,0.5-4.3c0.2-1.6,0.3-3.2,0.5-4.8
				c0.2-1.4,0.3-2.9,0.5-4.3c0.1-0.9,0.2-1.9,0.3-2.8c0-0.1,0-0.3,0.2-0.4c0.9-0.6,1.8-1.3,2.9-1.4c0.8-0.1,1.4,0.3,1.7,0.9
				C33.7,39.7,34,40,33.9,40.4z"/>
			<path class="st3" d="M160.5,40.3c-0.4,0.9-0.9,1.7-1.6,2.3c-0.2,0-0.2-0.2-0.3-0.3c-0.5-0.7-0.3-1.5-0.3-2.3
				c0-3.7,0.6-7.3,1.5-10.8c0.4-1.4,0.8-2.8,1.6-4.1c0.2-0.4,0.5-0.8,0.9-1.1c0.7-0.6,1.4-0.8,2.3-0.5c0.9,0.4,1.7,0.9,2.2,1.9
				c-0.2,0.2-0.5,0.1-0.7,0.1c-0.9-0.2-1.6,0.1-2.1,0.8c-0.6,0.8-1,1.6-1.3,2.5C161.4,32.5,160.8,36.4,160.5,40.3z"/>
			<path class="st0" d="M160.5,40.3c-0.3-0.2-0.2-0.4-0.2-0.7c0.2-2.2,0.5-4.4,0.9-6.6c0.3-1.5,0.7-2.9,1.2-4.3
				c0.3-0.8,0.6-1.6,1.1-2.3c0.9-1.3,1.7-1.5,2.8-1c0.1,0,0.1,0,0.2,0c0.1,0,0.1,0,0.1,0c0.1,0.2,0,0.4-0.1,0.6
				c-1.7,4.8-3.6,9.5-6,14C160.7,40.1,160.6,40.2,160.5,40.3z"/>
			<path class="st4" d="M166.7,25.4c0,0-0.1,0-0.1,0c-0.6-0.8-1.3-1.4-2.2-1.7c-0.9-0.3-1.6-0.2-2.2,0.5c-0.5,0.6-0.9,1.3-1.2,2
				c-0.7,1.6-1.1,3.2-1.4,4.9c-0.7,3.4-1.2,6.7-1,10.2c0,0.4,0,0.7,0.1,1.1c0,0.1,0,0.2-0.1,0.3c-0.1,0.1-0.2,0-0.2-0.1
				c-0.4-0.6-0.5-1.2-0.6-1.8c-0.2-2.3-0.1-4.5,0.2-6.8c0.3-2.4,0.8-4.8,1.4-7.1c0.2-0.8,0.5-1.7,0.9-2.4c0.3-0.6,0.6-1.1,1-1.6
				c0.7-0.8,1.4-0.9,2.3-0.5c0.6,0.2,1.1,0.6,1.5,1c0.6,0.6,1.1,1.2,1.5,1.8C166.8,25.2,166.9,25.3,166.7,25.4z"/>
			<path class="st18" d="M149.9,46.9c-0.1-0.6,0-1.3-0.2-1.9c0-0.1,0.1-0.1,0.1,0c0.2,0.4,0.2,0.9,0.3,1.3
				C149.9,46.5,150.1,46.8,149.9,46.9z"/>
			<path class="st19" d="M149.8,45c0,0-0.1,0-0.1,0c0-0.3-0.2-0.5-0.2-0.7c0.1-0.1,0.1-0.2,0.1-0.3C149.8,44.3,149.8,44.7,149.8,45z
				"/>
			<path class="st3" d="M86.5,31.9c0-0.4-0.2-0.8,0.1-1.2C86.6,31,86.7,31.5,86.5,31.9z"/>
			<path class="st3" d="M86.3,34.3c0-0.3-0.2-0.6,0.1-0.9C86.4,33.7,86.5,34,86.3,34.3z"/>
			<path class="st3" d="M86.4,33.2c0-0.3-0.2-0.6,0.1-0.9C86.5,32.6,86.6,32.9,86.4,33.2z"/>
			<path class="st3" d="M86,37.2c0-0.2-0.1-0.5,0.1-0.7C86.1,36.7,86.2,37,86,37.2z"/>
			<path class="st3" d="M86.2,35.3c0-0.3-0.1-0.5,0.1-0.8C86.3,34.8,86.4,35.1,86.2,35.3z"/>
			<path class="st3" d="M85.9,38c0-0.2-0.1-0.5,0.1-0.6C86,37.6,86.1,37.8,85.9,38z"/>
			<path class="st3" d="M86.1,36.3c0-0.2-0.1-0.4,0.1-0.6C86.2,35.8,86.3,36.1,86.1,36.3z"/>
			<path class="st0" d="M56.7,43.1c-0.3-0.3-0.1-0.7,0-1c0.2-2.3,0.5-4.6,0.8-6.9c0-0.4,0.1-0.5,0.5-0.6c1.6-0.4,3.2-0.8,4.8-1.2
				c1-0.3,2.1-0.5,3.1-0.9c0.3,0.6,0.3,1.2,0.4,1.8c0,2.2-0.1,4.4-0.3,6.6c-0.1,0.7-0.1,1.5-0.2,2.2c-0.4,0.3-0.8,0.5-1.1,0.8
				c-0.2,0.1-0.2,0-0.3-0.2c0-0.8,0.2-1.6,0-2.4c-0.3,0.2-0.6,0.3-0.8,0.5c0-0.6,0.1-1.2,0-1.9c-0.3,0-0.5,0.2-0.7,0.3
				C60.9,41.3,59,42.2,57,43C56.9,43,56.8,43,56.7,43.1z"/>
			<path class="st3" d="M45.4,50.6c0-0.1,0-0.3,0.1-0.4C45.6,50.4,45.5,50.5,45.4,50.6z"/>
			<path class="st3" d="M45.3,51.5c0-0.1,0-0.2,0-0.3c0-0.1,0.1-0.1,0.1,0C45.4,51.3,45.4,51.4,45.3,51.5z"/>
			<path class="st20" d="M45.4,51.2c0,0-0.1,0-0.1,0c0,0,0-0.1,0-0.1c0,0,0.1,0,0.1,0C45.4,51.1,45.4,51.1,45.4,51.2z"/>
			<path class="st20" d="M45.3,50.7c0,0.1-0.1,0.1-0.1,0.2C45.2,50.8,45.2,50.8,45.3,50.7z"/>
			<path class="st3" d="M85.1,34c0,0.3,0.2,0.6-0.2,0.8C84.9,34.5,85,34.3,85.1,34z"/>
			<path class="st3" d="M85.6,31.5c0,0.2,0.1,0.4-0.1,0.6C85.5,31.9,85.5,31.7,85.6,31.5z"/>
			<path class="st3" d="M85.5,32.3c0,0.2,0.1,0.4-0.1,0.6C85.3,32.7,85.3,32.5,85.5,32.3z"/>
			<path class="st3" d="M85.3,33c0,0.2,0.1,0.4-0.1,0.5C85.2,33.3,85.2,33.1,85.3,33z"/>
			<path class="st3" d="M85.2,33.5c0,0.2,0,0.3-0.1,0.5C85.1,33.7,85.1,33.6,85.2,33.5z"/>
			<path class="st3" d="M84.9,34.8c0,0.2,0,0.3-0.1,0.4C84.7,35.1,84.8,34.9,84.9,34.8z"/>
			<path class="st3" d="M84.7,35.2c0,0.1,0,0.2-0.1,0.3C84.6,35.4,84.6,35.3,84.7,35.2z"/>
			<path class="st3" d="M84.6,35.6c0,0.1,0,0.3-0.1,0.4C84.5,35.8,84.5,35.7,84.6,35.6z"/>
			<path class="st3" d="M84.5,36c0,0.1,0,0.2-0.1,0.3C84.4,36.2,84.4,36,84.5,36z"/>
			<path class="st3" d="M84.4,36.3c0,0.1,0,0.2-0.1,0.3C84.2,36.5,84.3,36.3,84.4,36.3z"/>
			<path class="st3" d="M84.2,36.6c0,0.1,0,0.2-0.1,0.3C84.1,36.8,84.1,36.7,84.2,36.6z"/>
			<path class="st3" d="M84.1,36.9c0,0.1,0,0.2-0.1,0.3C84,37.1,84,37,84.1,36.9z"/>
			<path class="st3" d="M84,37.2c0,0.1,0,0.2-0.1,0.3C83.8,37.4,83.9,37.3,84,37.2z"/>
			<path class="st3" d="M83.8,37.5c0,0.1,0,0.2-0.1,0.3C83.7,37.6,83.8,37.6,83.8,37.5z"/>
			<path class="st3" d="M83.7,37.8c0,0.1,0,0.2-0.1,0.3C83.6,37.9,83.6,37.8,83.7,37.8z"/>
			<path class="st3" d="M83.6,38.1c0,0.1,0,0.2-0.1,0.3C83.4,38.2,83.5,38.1,83.6,38.1z"/>
			<path class="st3" d="M83.4,38.3c0,0.1,0,0.3-0.2,0.3C83.3,38.5,83.3,38.4,83.4,38.3z"/>
			<path class="st3" d="M83.3,38.6c0,0.1,0,0.3-0.2,0.3C83.1,38.8,83.2,38.7,83.3,38.6z"/>
			<path class="st3" d="M83,39.1c0,0.1,0,0.2-0.2,0.3C82.9,39.3,82.9,39.2,83,39.1z"/>
			<path class="st3" d="M82.9,39.4c0,0.1,0,0.3-0.2,0.3C82.8,39.6,82.8,39.5,82.9,39.4z"/>
			<path class="st3" d="M82.4,40.3c0,0.1,0,0.2-0.2,0.3C82.2,40.5,82.3,40.4,82.4,40.3z"/>
			<path class="st3" d="M82.6,39.8c0,0.1,0,0.3-0.2,0.3C82.5,40,82.5,39.9,82.6,39.8z"/>
			<path class="st3" d="M82.5,40.1c0,0.1,0,0.1-0.1,0.2C82.4,40.2,82.4,40.2,82.5,40.1z"/>
			<path class="st3" d="M82.8,39.7c0,0.1,0,0.2-0.1,0.2C82.6,39.8,82.7,39.7,82.8,39.7z"/>
			<path class="st3" d="M83.2,38.9c0,0.1,0,0.2-0.1,0.2C83,39,83.1,39,83.2,38.9z"/>
			<path class="st2" d="M122.8,45.7c0,0,0-0.1-0.1-0.1c0,0,0,0,0-0.1C122.8,45.6,122.8,45.6,122.8,45.7
				C122.8,45.7,122.8,45.7,122.8,45.7z"/>
		</g>
	</g>
</g>
</svg>
