<svg xmlns="http://www.w3.org/2000/svg" width="400" height="93.411"><g fill-rule="evenodd"><path d="M237.588 31.345l-3.66 10.376c-4.232.61-7.558.852-10.807.852-12.087 0-21.463-7.31-19.37-20.584C205.818 8.84 219.545 1.69 231.82 1.69c2.86 0 6.746 1.09 10.85 1.814l-1.407 8.99c-7.122-4.534-14.145-4.164-19.256-.3-3.318 2.51-6.35 6.748-6.286 11.02.066 4.325 2.82 8.555 7.778 10.02 3.71 1.096 9.126-.115 14.09-1.89zM400 1.69h-15.567l3.79 7.307-2.662 17.576L372.296 1.69H353.17l5.014 7.046-5.96 25.08L341.86 1.69h-22.752l4.72 6.024-19.603 26.14h-18.153l2.018-7.503h13.083l3.052-7.623H290.14l1.498-5.567h15.368l4.237-11.47h-35.82l4.234 9.534-7.502 31.348h40.902l8.378-12.228h16.27l2.58 12.228h21.954l5.89-23.008 11.85 23.008h13.382L400 1.69zm-63.982 20.667l-2.145-10.165-6.966 10.165h9.11zm-99.06 20.215h33.3l2.423-10.004h-18.34l7.99-30.878h-18.792l3.07 5.622-9.65 35.26zM172.567 1.69l8.444 20.947-3.265 19.935h13.06l3.492-17.345L214.116 1.69H193.06l3.38 6.872-5.744 5.18-5.18-12.052h-12.95zm-38.94.013l5.274 8.934-8.574 31.935h11.24l5.84-22.746h-.005l2.217-8.616h7.16c2.613 0 4.75 1.94 4.75 4.308 0 2.37-2.137 4.308-4.75 4.308h-7.16l9.24 22.746h12.85l-9.197-17.15c10.318-1.07 15.45-13.12 8.18-20.19-4.055-3.944-7.712-3.53-12.917-3.53h-24.15zm-47.624 40.87h26.725c7.06 0 14.227-4.89 17.736-11.55 1.98-3.757 3.32-9.485 3.45-13.763.26-8.467-4.64-15.57-13.988-15.57h-28.36l4.853 7.798-10.416 33.084zm21.27-31.01l-6.487 21.093c5.28.786 9.862.288 13.47-1.995 3.88-2.454 5.884-6.26 6.426-10.815.906-7.62-4.77-9.29-13.408-8.28" fill="#2e3192"/><path d="M13.878 11.99h68.117c1.46.014 2.824.663 4.107 1.836l.738-1.837 1.903-5.133c1.046-2.823-.39-5.132-3.19-5.132H17.518C15.666 1.663 14.25 1.09 13.265 0l-.676 1.725-1.903 5.132c-1.046 2.823.39 5.132 3.19 5.132M8.854 25.885H76.97c1.462.015 2.825.663 4.108 1.836l.738-1.835 1.903-5.132c1.045-2.823-.39-5.133-3.192-5.133H12.495c-1.852-.06-3.27-.636-4.253-1.724l-.676 1.724-1.903 5.133c-1.046 2.822.39 5.132 3.19 5.132M3.533 40.397H71.65c1.46.016 2.824.664 4.107 1.837l.738-1.837 1.903-5.132c1.046-2.822-.39-5.132-3.19-5.132H7.173c-1.853-.06-3.27-.636-4.253-1.725l-.675 1.725-1.903 5.132c-1.046 2.823.39 5.132 3.19 5.132M77.336 58.324H246.85l9.025-10.015H80.888c-1.807-.06-3.19-.62-4.15-1.683l-.66 1.682-1.856 5.007c-1.02 2.754.38 5.007 3.114 5.007M71.077 75.014H231.81L240.833 65H74.63c-1.808-.06-3.19-.62-4.15-1.683L69.82 65l-1.856 5.007c-1.02 2.754.38 5.007 3.113 5.007M64.818 91.704h151.95l9.026-10.015H68.37c-1.807-.06-3.19-.62-4.15-1.683l-.658 1.682-1.857 5.007c-1.02 2.754.38 5.007 3.113 5.007" fill="#ed1c24"/><path d="M378.854 48.192l13.19 43.512H377.28L375.495 80.6h-17.494l-7.24 11.104h-11.776l21.786-34.742-4.67-8.77h22.752zm-4.918 22.68l-1.894-11.81-7.7 11.81h9.594zm-60.48-22.68l-5.12 28.61c-1.27 6.02-4.605 10.77-10.534 12.955-7.818 2.88-22.672 4.358-29.697-.713-3.65-2.634-4.527-7.48-3.235-13.765l3.954-20.91-4.772-6.178h20.53l-5.86 26.53c-1.044 3.03-1.113 5.3-.355 6.924 1.527 3.273 6.815 3.864 9.92 2.937 3.27-.974 5.413-3.856 6.576-8.398l4.32-19.89-4.868-8.103h19.142zm31.28 12.363l-1.364-11.82c-10.51-1.546-18.086-.57-23.17 2.61-4.72 2.95-6.795 7.733-4.796 13.216 1.66 4.55 6.158 6.906 9.025 9.69 2.94 2.85 3.453 6.464-1.242 7.795-3.038.862-7.518.13-12.548-1.213l-2.272 10.872c10.8 2.645 19.903 2.44 26.362-2.2 2.462-1.767 4.687-4.226 5.078-7.354.138-1.09.047-2.214-.267-3.374-1.006-3.7-3.67-6.658-6.263-9.343-2.335-2.418-4.57-4.837-4.518-7.272.087-3.922 4.178-4.354 7.213-4.044 2.57.262 5.53 1.137 8.764 2.44" fill="#2e3192"/></g></svg>