<svg xmlns="http://www.w3.org/2000/svg" xmlns:xlink="http://www.w3.org/1999/xlink" width="422.303" height="103.133"><defs><clipPath id="f"><path clip-rule="evenodd" d="M468.384 3979.684c.93-2.794 5.816-3.683 10.912-1.985 3.748 1.248 6.565 3.547 7.423 5.788 0 .277-.032.552-.1.823-.006.026-.014.048-.02.07-.124-2.32-3.218-4.845-7.445-5.905-4.7-1.18-9.023-.103-9.653 2.407-.63 2.508 2.67 5.5 7.373 6.68.76.19 1.512.322 2.24.398-1.218-.025-2.513-.194-3.83-.526-.403-.1-.798-.215-1.183-.34-4.048-1.872-6.533-4.965-5.718-7.41"/></clipPath><clipPath id="g"><path d="M3.885-5.076h1.557v.972H3.885v-.972z"/></clipPath><clipPath id="h"><path d="M-.046-.737H1.51v.973H-.045v-.973z"/></clipPath><radialGradient xlink:href="#a" id="i" gradientUnits="userSpaceOnUse" gradientTransform="translate(3.9 -4.3)" cx="0" cy="0" fx="0" fy="0" r="1"/><radialGradient id="a" gradientTransform="translate(3.9 -4.3)" gradientUnits="userSpaceOnUse" r="1" cy="0" cx="0" fy="0" fx="0"><stop offset="0" stop-color="#d2deea"/><stop offset="1" stop-color="#00446a"/></radialGradient><clipPath id="j"><path clip-rule="evenodd" d="M468.268 3980.354s-.547 2.41 3.382 5.32c0 0 1.986 1.334 2.917 1.566 0 0 2.363.707 4.476.707 0 0-3.86-.2-6.515-1.984-1.92-1.29-3.92-2.974-4.26-5.61"/></clipPath><clipPath id="k"><path d="M467.72 3987.947h11.323v-7.593H467.72v7.593z"/></clipPath><clipPath id="l"><path d="M-.102-1.284h1.94v1.3h-1.94v-1.3z"/></clipPath><radialGradient xlink:href="#b" id="m" gradientUnits="userSpaceOnUse" gradientTransform="matrix(5.8 0 0 -5.8 468.3 3980.5)" cx="0" cy="0" fx="0" fy="0" r="1"/><radialGradient id="b" gradientTransform="matrix(5.8 0 0 -5.8 468.3 3980.5)" gradientUnits="userSpaceOnUse" r="1" cy="0" cx="0" fy="0" fx="0"><stop offset="0" stop-color="#d6e0eb"/><stop offset="1" stop-color="#00658a"/></radialGradient><clipPath id="n"><path clip-rule="evenodd" d="M486.703 3983.828s.144-.996-.46-1.695c-.513-.59-1.775-1.965-4.915-3.57 0 0-2.792-1.373-5.955-1.65 0 0-5.12-.61-6.78 2.286 0 0 1.822-2.835 7.757-1.823 0 0 4.024.465 6.675 2.372 0 0 3.504 2.03 3.678 4.078"/></clipPath><clipPath id="o"><path d="M3.677-4.392h1.375v.567H3.677v-.567z"/></clipPath><clipPath id="p"><path d="M-.14-.513h1.374v.567H-.14v-.567z"/></clipPath><radialGradient xlink:href="#c" id="q" gradientUnits="userSpaceOnUse" gradientTransform="translate(3.8 -3.9)" cx="0" cy="0" fx="0" fy="0" r="1"/><radialGradient id="c" gradientTransform="translate(3.8 -3.9)" gradientUnits="userSpaceOnUse" r="1" cy="0" cx="0" fy="0" fx="0"><stop offset="0" stop-color="#d6e0eb"/><stop offset="1" stop-color="#186b90"/></radialGradient><clipPath id="r"><path clip-rule="evenodd" d="M485.154 3993.976c-1.6 2.458-7.16 1.672-12.42-1.753-4.708-3.066-7.578-7.208-6.978-9.807.396 2.292 2.82 5.402 6.418 7.925 4.827 3.388 9.936 4.43 11.41 2.33 1.47-2.098-1.248-6.547-6.077-9.934l-.36-.25c.46.26.923.54 1.384.84 5.26 3.423 8.225 8.193 6.624 10.65"/></clipPath><clipPath id="s"><path d="M465.156 3996.434h21.6v-14.02h-21.6v14.02z"/></clipPath><clipPath id="t"><path d="M-1.796-.28H.21v1.302h-2.006v-1.3z"/></clipPath><radialGradient xlink:href="#d" id="u" gradientUnits="userSpaceOnUse" gradientTransform="matrix(10.8 0 0 -10.8 484.5 3993.4)" cx="0" cy="0" fx="0" fy="0" r="1"/><radialGradient id="d" gradientTransform="matrix(10.8 0 0 -10.8 484.5 3993.4)" gradientUnits="userSpaceOnUse" r="1" cy="0" cx="0" fy="0" fx="0"><stop offset="0" stop-color="#e7f4ee"/><stop offset=".657" stop-color="#3dbb97"/><stop offset=".657" stop-color="#3dbb97"/><stop offset="1" stop-color="#00b085"/></radialGradient><clipPath id="v"><path clip-rule="evenodd" d="M483.944 3991.708s-.248 2.42-3.94 2.016c0 0-5.086-.31-11.24-6.307 0 0 6.9 7.89 13.877 6.37 0 0 1.645-.56 1.304-2.08"/></clipPath><clipPath id="w"><path d="M1.94-2.765h.616v.313H1.94v-.313z"/></clipPath><clipPath id="x"><path d="M-.55-.028h.615v.312H-.55v-.312z"/></clipPath><radialGradient xlink:href="#e" id="y" gradientUnits="userSpaceOnUse" gradientTransform="translate(2.5 -2.7)" cx="0" cy="0" fx="0" fy="0" r="1"/><radialGradient id="e" gradientTransform="translate(2.5 -2.7)" gradientUnits="userSpaceOnUse" r="1" cy="0" cx="0" fy="0" fx="0"><stop offset="0" stop-color="#e7f4ee"/><stop offset="1" stop-color="#00b085"/></radialGradient></defs><path d="M109.404 58c-.032-.13-.068-.244-.105-.365-.65 12.137-16.82 25.33-38.915 30.87-24.572 6.174-47.163.54-50.45-12.58-3.293-13.11 13.96-28.75 38.533-34.91 3.977-1.005 7.908-1.69 11.708-2.087-6.36.13-13.13 1.014-20.014 2.75-28.65 7.187-48.574 26.155-44.512 42.36 4.07 16.213 30.593 23.52 59.247 16.328C93.545 93.18 113.47 74.21 109.404 58" fill="#00446a" fill-rule="evenodd"/><g clip-path="url(#f)" transform="matrix(5.2 0 0 -5.2 -2434 20883.7)"><g clip-path="url(#g)" transform="matrix(12.3 0 0 -12.3 419.8 3925.5)"><path d="M3.885-5.076h1.557v.972H3.885v-.972z" fill="#00446a"/><g clip-path="url(#h)"><path d="M3.885-5.076h1.557v.972H3.885v-.972z" fill="url(#i)"/></g></g></g><g clip-path="url(#j)" transform="matrix(5.2 0 0 -5.2 -2434 20883.7)"><g clip-path="url(#k)"><path d="M467.72 3987.947h11.323v-7.593H467.72v7.593z" fill="#00658a"/><g clip-path="url(#l)"><path d="M467.72 3987.947h11.323v-7.593H467.72v7.593z" fill="url(#m)"/></g></g></g><g clip-path="url(#n)" transform="matrix(5.2 0 0 -5.2 -2434 20883.7)"><g clip-path="url(#o)" transform="matrix(13.3 0 0 -13.3 419.8 3925.5)"><path d="M3.677-4.392h1.375v.567H3.677v-.567z" fill="#186b90"/><g clip-path="url(#p)"><path d="M3.677-4.392h1.375v.567H3.677v-.567z" fill="url(#q)"/></g></g></g><path d="M101.81 7.55c-8.364-12.847-37.436-8.738-64.92 9.164C9.994 34.224-5.415 58.467 1.756 71.534.51 60.83 13.877 43.794 34.575 30.8c23.59-14.813 47.78-18.75 54.02-8.807 6.247 9.947-7.824 30.018-31.408 44.826-8.666 5.435-17.4 9.402-25.304 11.75 10.81-2.26 23.213-7.47 35.303-15.336C94.674 45.32 110.178 20.394 101.81 7.55" fill="#00b085" fill-rule="evenodd"/><g clip-path="url(#r)" transform="matrix(5.2 0 0 -5.2 -2434 20883.7)"><g clip-path="url(#s)"><path d="M465.156 3996.434h21.6v-14.02h-21.6v14.02z" fill="#00b085"/><g clip-path="url(#t)"><path d="M465.156 3996.434h21.6v-14.02h-21.6v14.02z" fill="url(#u)"/></g></g></g><g clip-path="url(#v)" transform="matrix(5.2 0 0 -5.2 -2434 20883.7)"><g clip-path="url(#w)" transform="matrix(25.2 0 0 -25.2 419.8 3925.5)"><path d="M1.94-2.765h.616v.313H1.94v-.313z" fill="#00b085"/><g clip-path="url(#x)"><path d="M1.94-2.765h.616v.313H1.94v-.313z" fill="url(#y)"/></g></g></g><path d="M158.124 68.194c-8.598 0-15.12-1.41-19.716-4.37-7.636-4.892-11.933-12.675-11.933-21.57 0-8.892 4.297-16.602 11.933-21.494 4.595-2.97 11.118-4.375 19.716-4.375h1.255v9.12h-1.998c-11.343 0-18.012 3.706-20.234 11.782h22.23v9.262h-22.376c1.85 8.3 8.593 12.528 20.3 12.528.676 0 1.34-.073 2.077-.073v9.19h-1.256zM166.722 16.385h10.522c7.558 0 13.496 1.19 18.31 4.296 7.558 4.972 11.635 12.457 11.635 21.573 0 8.598-3.64 15.858-10.747 20.98-4.522 3.252-10.376 4.888-17.646 4.96v-9.26c11.27 0 18.315-6.896 18.315-16.754 0-9.487-6.973-16.45-17.646-16.45h-2.964v42.464h-9.78v-51.81zM213.854 16.385h9.79v51.81h-9.79v-51.81zM251.137 68.194h-9.858V25.73h-12.227v-9.345h34.388v9.345h-12.303v42.464zM294.824 45.812h-15.937v-9.487h15.937v-.67c0-6.747-3.48-10.672-9.12-10.672-5.777 0-9.038 3.857-9.038 11.342v31.87h-9.78V36.617c0-13.26 7.856-21.122 18.9-21.122 11.035 0 18.823 7.86 18.823 21.122v31.576h-9.786V45.812zM312.167 34.25c0-11.415 7.338-18.822 17.792-18.822 9.852 0 17.19 6.816 17.19 15.038 0 4.673-2.22 8.525-6.45 11.27 5.63 1.928 7.486 5.19 7.486 11.263v15.194h-9.78V55c0-5.926-2.148-7.332-8.447-7.332h-5.337v-9.12h3.11c6.078 0 9.19-2.37 9.19-6.89 0-3.93-3.038-6.895-6.964-6.895-5.045 0-8.014 3.555-8.014 10.15v33.208h-9.78V34.25zM373.834 68.194h-9.858V25.73H351.74v-9.345h34.393v9.345h-12.3v42.464zM421.05 68.194c-8.6 0-15.123-1.41-19.717-4.37-7.637-4.892-11.933-12.675-11.933-21.57 0-8.892 4.296-16.602 11.933-21.494 4.594-2.97 11.118-4.375 19.716-4.375h1.253v9.12H420.3c-11.336 0-18.005 3.706-20.227 11.782h22.23v9.262h-22.38c1.85 8.3 8.602 12.528 20.305 12.528.67 0 1.333-.073 2.075-.073v9.19h-1.254zM139.976 92.39c-2.63 0-4.626-.435-6.032-1.334-2.33-1.5-3.648-3.883-3.648-6.606 0-2.718 1.317-5.08 3.648-6.576 1.406-.9 3.403-1.338 6.032-1.338h.382v2.833h-.7c-4.03 0-6.257 1.907-6.257 5.1 0 3.2 2.227 5.128 6.278 5.128h.68v2.833h-.382zM152.923 87.152c0 3.492-2.017 5.44-4.87 5.44-1.57 0-3.022-.704-3.974-1.928-.795-1.02-.926-2.11-.926-3.512v-5.786h2.676v6.215c0 1.454.926 2.4 2.222 2.4 1.286 0 2.195-.946 2.195-2.4v-6.214h2.676v5.786zM156.274 81.366h2.697V92.39h-2.696V81.365zm1.343-4.83c.904 0 1.63.732 1.63 1.615 0 .91-.752 1.606-1.63 1.606-.888 0-1.59-.727-1.59-1.605 0-.882.68-1.614 1.59-1.614M172.937 76.536v9.59c0 1.502-.09 2.678-.674 3.723-.93 1.677-2.79 2.743-4.903 2.743-3.105 0-5.436-2.336-5.436-5.713 0-3.34 2.29-5.645 5.415-5.645.788 0 1.567.13 2.29.43v2.738c-.723-.43-1.38-.628-2.04-.628-1.704 0-2.88 1.218-2.88 3.194 0 1.766 1.16 2.99 2.744 2.99 1.678 0 2.807-1.177 2.807-3.11V76.535h2.677zM184.09 86.927c0-1.934-1.133-3.11-2.805-3.11-1.59 0-2.745 1.202-2.745 2.97 0 1.97 1.177 3.193 2.88 3.193.654 0 1.318-.2 2.034-.628v2.766c-.716.287-1.495.423-2.284.423-3.126 0-5.416-2.33-5.416-5.66 0-3.382 2.332-5.718 5.437-5.718 2.112 0 3.968 1.066 4.898 2.75.59 1.034.685 2.215.685 3.716v4.76h-2.682v-5.46zM190.008 86.29c0-3.288 1.908-5.128 4.584-5.128 1.197 0 2.337.528 3.24 1.547.858-1.02 1.992-1.548 3.242-1.548 2.676 0 4.605 1.84 4.605 5.127v6.1h-2.71v-6.717c0-1.244-.762-2.065-1.896-2.065-1.114 0-1.908.82-1.908 2.065v6.716h-2.67v-6.717c0-1.244-.77-2.065-1.904-2.065-1.113 0-1.907.82-1.907 2.065v6.716h-2.677v-6.1zM214.063 89.917c1.515 0 2.79-1.317 2.79-3.068 0-1.742-1.275-3.075-2.79-3.075-1.52 0-2.786 1.333-2.786 3.074 0 1.75 1.265 3.067 2.786 3.067m-3.92-7.098c1.045-1.067 2.42-1.658 3.92-1.658 1.495 0 2.906.57 3.946 1.657 1.065 1.09 1.635 2.518 1.635 4.06 0 1.537-.57 2.97-1.636 4.056-1.04 1.087-2.452 1.657-3.947 1.657-1.5 0-2.875-.596-3.92-1.657-1.062-1.113-1.63-2.52-1.63-4.056 0-1.542.568-2.948 1.63-4.06M226.372 89.917c.633 0 .977-.272.977-.706 0-.297-.163-.516-.476-.7l-2.023-1.086c-1.72-.952-2.696-1.704-2.696-3.293 0-1.65 1.364-2.764 3.695-2.764h4.082v2.41h-3.952c-.418 0-.742.245-.742.653 0 .176.136.406.387.548l1.902 1.04c1.98 1.066 2.974 1.83 2.974 3.423 0 .994-.453 1.83-1.295 2.38-.883.57-1.923.57-3.262.57h-3.857v-2.473h4.286zM244.802 89.917c.638 0 .978-.272.978-.706 0-.297-.162-.516-.48-.7l-2.014-1.086c-1.725-.952-2.697-1.704-2.697-3.293 0-1.65 1.353-2.764 3.69-2.764h4.082v2.41h-3.94c-.435 0-.75.245-.75.653 0 .176.137.406.383.548l1.908 1.04c1.965 1.066 2.963 1.83 2.963 3.423 0 .994-.45 1.83-1.286 2.38-.883.57-1.928.57-3.266.57h-3.853v-2.473h4.282zM261.602 87.152c0 3.492-2.018 5.44-4.872 5.44-1.563 0-3.016-.704-3.967-1.928-.795-1.02-.93-2.11-.93-3.512v-5.786h2.676v6.215c0 1.454.93 2.4 2.22 2.4s2.2-.946 2.2-2.4v-6.214h2.672v5.786zM276.002 81.575l-1.365 10.814h-3.083l1.95-13.157c.297-1.944 1.2-2.922 2.655-2.922 1.384 0 2.288.885 2.722 2.657l1.27 5.237c.24 1.014.423 1.97.517 2.854.093-.904.27-1.84.522-2.854l1.27-5.237c.43-1.772 1.333-2.656 2.718-2.656 1.474 0 2.352.958 2.655 2.923l1.95 13.156H286.7l-1.363-10.815c-.026-.23-.11-1-.225-2.342l-2.833 11.41c-.32 1.292-.66 1.856-1.61 1.856-.926 0-1.292-.633-1.584-1.856l-2.818-11.41c-.11 1.045-.198 1.818-.266 2.34M297.422 92.593c-1.474 0-2.886-.57-3.92-1.657-1.067-1.087-1.63-2.52-1.63-4.056 0-1.542.563-2.97 1.63-4.06 1.07-1.088 2.446-1.68 3.92-1.68 2.22 0 4.014 1.203 5.174 3.466l-5.713 3.68-1.07-1.793 3.286-2.106c-.544-.413-1.088-.638-1.678-.638-1.542 0-2.807 1.337-2.807 3.1 0 1.75 1.286 3.11 2.807 3.11 1.27 0 2.362-.858 2.744-2.312l2.655.7c-.84 2.72-2.88 4.245-5.398 4.245M307.212 76.536c.91 0 1.61.732 1.61 1.615 0 .91-.722 1.606-1.61 1.606-.878 0-1.605-.727-1.605-1.605 0-.882.7-1.614 1.605-1.614m1.338 4.83v11.2c0 3.2-1.558 4.648-4.982 4.648h-1.317v-2.63h1.768c1.364 0 1.86-.46 1.86-1.72V81.367h2.672zM317.075 89.917c1.52 0 2.796-1.317 2.796-3.068 0-1.742-1.274-3.075-2.795-3.075-1.516 0-2.786 1.333-2.786 3.074 0 1.75 1.27 3.067 2.785 3.067m-3.92-7.098c1.045-1.067 2.43-1.658 3.92-1.658 1.5 0 2.906.57 3.946 1.657 1.067 1.09 1.637 2.518 1.637 4.06 0 1.537-.57 2.97-1.636 4.056-1.04 1.087-2.445 1.657-3.945 1.657-1.49 0-2.875-.596-3.92-1.657-1.06-1.113-1.63-2.52-1.63-4.056 0-1.542.57-2.948 1.63-4.06M325.58 81.366h2.56v1.678c.732-1.197 1.84-1.678 3.56-1.678h.455v2.655h-.32c-2.54 0-3.58 1.11-3.58 3.81v4.56h-2.676V81.365zM342.222 76.536h2.984v15.848h-2.984V76.536zM348.77 86.29c0-3.288 1.91-5.128 4.58-5.128 1.202 0 2.336.528 3.24 1.547.863-1.02 1.997-1.548 3.24-1.548 2.677 0 4.606 1.84 4.606 5.127v6.1h-2.697v-6.717c0-1.244-.775-2.065-1.91-2.065-1.107 0-1.9.82-1.9 2.065v6.716h-2.672v-6.717c0-1.244-.774-2.065-1.908-2.065-1.108 0-1.903.82-1.903 2.065v6.716h-2.676v-6.1zM375.616 86.927c0-1.934-1.134-3.11-2.812-3.11-1.59 0-2.74 1.202-2.74 2.97 0 1.97 1.172 3.193 2.876 3.193.66 0 1.307-.2 2.04-.628v2.766c-.733.287-1.49.423-2.29.423-3.132 0-5.42-2.33-5.42-5.66 0-3.382 2.34-5.718 5.44-5.718 2.107 0 3.967 1.066 4.898 2.75.59 1.034.68 2.215.68 3.716v4.76h-2.672v-5.46zM386.515 97.418c-1.04 0-2.264-.157-3.69-.497v-2.65c1.25.362 2.446.566 3.648.566 1.95 0 2.99-1 2.99-2.84v-5.07c0-1.933-1.16-3.11-2.833-3.11-1.59 0-2.74 1.203-2.74 2.97 0 1.97 1.177 3.194 2.88 3.194.654 0 1.334-.2 2.06-.628v2.766c-.726.287-1.495.423-2.29.423-3.125 0-5.42-2.33-5.42-5.66 0-3.382 2.332-5.718 5.442-5.718 2.106 0 3.946 1.066 4.876 2.75.59 1.034.7 2.215.7 3.716v4.124c0 3.58-2.148 5.666-5.623 5.666M400.48 92.593c-1.473 0-2.88-.57-3.92-1.657-1.066-1.087-1.63-2.52-1.63-4.056 0-1.542.564-2.97 1.63-4.06 1.067-1.088 2.447-1.68 3.92-1.68 2.222 0 4.015 1.203 5.17 3.466l-5.713 3.68-1.066-1.793 3.294-2.106c-.544-.413-1.092-.638-1.683-.638-1.54 0-2.806 1.337-2.806 3.1 0 1.75 1.286 3.11 2.807 3.11 1.276 0 2.363-.858 2.745-2.312l2.655.7c-.84 2.72-2.885 4.245-5.4 4.245M408.76 86.603c0-3.497 2.04-5.44 4.893-5.44 1.568 0 2.99.705 3.946 1.928.794 1.02.924 2.112.924 3.513v5.786h-2.67v-6.236c0-1.46-.91-2.38-2.2-2.38-1.292 0-2.223.92-2.223 2.38v6.235h-2.67v-5.787z" fill="#00446a"/></svg>