<svg xmlns="http://www.w3.org/2000/svg" width="399.983" height="229.865"><path d="M279.48 78.754c-3.087 0-5.65 1.092-7.695 3.276-2.04 2.18-3.063 4.982-3.063 8.396 0 3.44 1.038 6.27 3.117 8.49 2.08 2.222 4.638 3.33 7.676 3.33 3.138 0 5.738-1.09 7.805-3.276 2.07-2.183 3.103-5.043 3.103-8.58 0-3.462-1.034-6.266-3.102-8.417-2.066-2.146-4.678-3.22-7.84-3.22m10.5-23.566h9.993v55.18h-9.992v-4.205c-1.946 1.853-3.903 3.19-5.864 4.005-1.96.818-4.086 1.227-6.378 1.227-5.14 0-9.586-1.993-13.338-5.984-3.755-3.986-5.63-8.946-5.63-14.875 0-6.145 1.816-11.184 5.445-15.11 3.633-3.928 8.04-5.89 13.232-5.89 2.386 0 4.63.448 6.725 1.352 2.094.904 4.032 2.256 5.81 4.063V55.187z" fill="#231f20"/><path d="M279.48 78.754c-3.087 0-5.65 1.092-7.695 3.276-2.04 2.18-3.063 4.982-3.063 8.396 0 3.44 1.038 6.27 3.117 8.49 2.08 2.222 4.638 3.33 7.676 3.33 3.138 0 5.738-1.09 7.805-3.276 2.07-2.183 3.103-5.043 3.103-8.58 0-3.462-1.034-6.266-3.102-8.417-2.066-2.146-4.678-3.22-7.84-3.22zm10.5-23.567h9.993v55.18h-9.992v-4.205c-1.946 1.853-3.903 3.19-5.864 4.005-1.96.818-4.086 1.227-6.378 1.227-5.14 0-9.586-1.994-13.338-5.984-3.755-3.986-5.63-8.946-5.63-14.875 0-6.145 1.816-11.184 5.445-15.11 3.633-3.928 8.04-5.89 13.232-5.89 2.386 0 4.63.448 6.725 1.352 2.094.904 4.032 2.256 5.81 4.063V55.187z" fill="none" stroke="#000" stroke-width="21.664"/><path d="M333.82 85.487c-.66-2.22-1.962-4.026-3.905-5.415-1.945-1.392-4.2-2.085-6.762-2.085-2.786 0-5.233.78-7.33 2.342-1.322.973-2.543 2.694-3.668 5.157h21.664zm9.99 7.868h-32.092c.46 2.828 1.703 5.08 3.71 6.75 2.016 1.672 4.582 2.507 7.705 2.507 3.732 0 6.94-1.304 9.625-3.917l8.418 3.952c-2.104 2.977-4.613 5.18-7.542 6.608-2.925 1.423-6.402 2.14-10.43 2.14-6.245 0-11.33-1.97-15.256-5.91-3.93-3.94-5.894-8.875-5.894-14.803 0-6.075 1.96-11.117 5.874-15.13 3.918-4.01 8.826-6.018 14.728-6.018 6.27 0 11.367 2.007 15.295 6.017 3.93 4.015 5.896 9.314 5.896 15.9l-.036 1.905z" fill="#231f20"/><path d="M333.82 85.487c-.66-2.22-1.962-4.026-3.905-5.415-1.945-1.392-4.2-2.085-6.762-2.085-2.786 0-5.233.78-7.33 2.342-1.322.973-2.543 2.694-3.668 5.157h21.664zm9.99 7.868h-32.092c.46 2.828 1.703 5.08 3.71 6.75 2.016 1.672 4.582 2.507 7.705 2.507 3.732 0 6.94-1.304 9.625-3.917l8.418 3.952c-2.104 2.977-4.613 5.18-7.542 6.608-2.925 1.423-6.402 2.14-10.43 2.14-6.245 0-11.33-1.97-15.256-5.91-3.93-3.94-5.894-8.875-5.894-14.803 0-6.075 1.96-11.117 5.874-15.13 3.918-4.01 8.826-6.018 14.728-6.018 6.27 0 11.367 2.007 15.295 6.017 3.93 4.015 5.896 9.314 5.896 15.9l-.036 1.905z" fill="none" stroke="#000" stroke-width="21.664"/><path d="M48.44 25.193c-.312-1.054-.928-1.907-1.846-2.566-.922-.658-1.99-.986-3.205-.986-1.32 0-2.477.37-3.473 1.112-.625.458-1.204 1.276-1.735 2.44h10.26zm4.732 3.73H37.974c.22 1.334.805 2.404 1.758 3.192.952.793 2.17 1.19 3.648 1.19 1.767 0 3.288-.62 4.558-1.854l3.984 1.87c-.99 1.41-2.18 2.455-3.568 3.132-1.385.673-3.032 1.014-4.94 1.014-2.96 0-5.367-.934-7.225-2.8-1.862-1.866-2.792-4.204-2.792-7.01 0-2.88.927-5.265 2.783-7.168 1.853-1.903 4.18-2.85 6.976-2.85 2.97 0 5.383.947 7.244 2.85 1.86 1.903 2.79 4.413 2.79 7.53l-.018.904z" fill="#231f20"/><path d="M48.44 25.193c-.312-1.054-.928-1.907-1.846-2.566-.922-.658-1.99-.986-3.205-.986-1.32 0-2.477.37-3.473 1.112-.625.458-1.204 1.276-1.735 2.44h10.26zm4.732 3.73H37.974c.22 1.334.805 2.404 1.758 3.192.952.793 2.17 1.19 3.648 1.19 1.767 0 3.288-.62 4.558-1.854l3.984 1.87c-.99 1.41-2.18 2.455-3.568 3.132-1.385.673-3.032 1.014-4.94 1.014-2.96 0-5.367-.934-7.225-2.8-1.862-1.866-2.792-4.204-2.792-7.01 0-2.88.927-5.265 2.783-7.168 1.853-1.903 4.18-2.85 6.976-2.85 2.97 0 5.383.947 7.244 2.85 1.86 1.903 2.79 4.413 2.79 7.53l-.018.904z" fill="none" stroke="#000" stroke-width="21.664"/><path d="M56.482 10.843h4.733V36.98h-4.733V10.843z" fill="#231f20" stroke="#000" stroke-width="21.664"/><path d="M46.342 56.892c-5.478 0-10.017 1.87-13.625 5.6-3.608 3.737-5.41 8.617-5.41 14.643 0 6.155 1.802 11.13 5.41 14.93 3.608 3.796 8.147 5.7 13.625 5.7 5.304 0 9.77-1.937 13.4-5.795 3.628-3.864 5.443-8.785 5.443-14.77 0-5.943-1.783-10.81-5.347-14.61-3.566-3.797-8.064-5.698-13.496-5.698m-18.27-40.996V50.27c3.136-3.14 6.534-5.494 10.184-7.063 3.65-1.57 7.553-2.36 11.713-2.36 9.04 0 16.72 3.42 23.044 10.25 6.324 6.837 9.486 15.6 9.486 26.295 0 10.31-3.27 18.938-9.802 25.877-6.54 6.937-14.284 10.404-23.24 10.404-3.988 0-7.7-.707-11.138-2.13-3.438-1.42-6.855-3.747-10.25-6.97v7.32H10.82V15.895h17.25z" fill="#231f20"/><path d="M46.342 56.892c-5.478 0-10.017 1.87-13.625 5.6-3.608 3.737-5.41 8.617-5.41 14.643 0 6.155 1.802 11.13 5.41 14.93 3.608 3.796 8.147 5.7 13.625 5.7 5.304 0 9.77-1.937 13.4-5.795 3.628-3.864 5.443-8.785 5.443-14.77 0-5.943-1.783-10.81-5.347-14.61-3.566-3.797-8.064-5.698-13.496-5.698zm-18.27-40.996V50.27c3.136-3.14 6.534-5.494 10.184-7.063 3.65-1.57 7.553-2.36 11.713-2.36 9.04 0 16.72 3.42 23.044 10.25 6.324 6.837 9.486 15.6 9.486 26.295 0 10.31-3.27 18.938-9.802 25.877-6.54 6.937-14.284 10.404-23.24 10.404-3.988 0-7.7-.707-11.138-2.13-3.438-1.42-6.855-3.747-10.25-6.97v7.32H10.82V15.895h17.25z" fill="none" stroke="#000" stroke-width="21.664"/><path d="M121.534 56.892c-5.368 0-9.832 1.9-13.385 5.697-3.556 3.8-5.33 8.667-5.33 14.61 0 5.985 1.806 10.906 5.422 14.77 3.618 3.858 8.068 5.794 13.357 5.794 5.455 0 9.98-1.903 13.577-5.698 3.594-3.8 5.393-8.776 5.393-14.93 0-6.027-1.8-10.907-5.393-14.643-3.596-3.732-8.14-5.6-13.643-5.6m18.27-14.26h17.38v69.26h-17.38v-7.32c-3.39 3.224-6.794 5.552-10.204 6.972-3.415 1.422-7.113 2.13-11.095 2.13-8.947 0-16.683-3.468-23.21-10.406-6.527-6.94-9.792-15.57-9.792-25.878 0-10.694 3.16-19.458 9.475-26.294 6.314-6.83 13.987-10.25 23.018-10.25 4.156 0 8.052.79 11.698 2.36 3.644 1.568 7.017 3.922 10.11 7.06v-7.634z" fill="#231f20"/><path d="M121.534 56.892c-5.368 0-9.832 1.9-13.385 5.697-3.556 3.8-5.33 8.667-5.33 14.61 0 5.985 1.806 10.906 5.422 14.77 3.618 3.858 8.068 5.794 13.357 5.794 5.455 0 9.98-1.903 13.577-5.698 3.594-3.8 5.393-8.776 5.393-14.93 0-6.027-1.8-10.907-5.393-14.643-3.596-3.732-8.14-5.6-13.643-5.6zm18.27-14.258h17.38v69.26h-17.38v-7.32c-3.39 3.223-6.794 5.55-10.204 6.97-3.415 1.423-7.113 2.13-11.095 2.13-8.947 0-16.683-3.467-23.21-10.405-6.527-6.94-9.792-15.57-9.792-25.878 0-10.694 3.16-19.458 9.475-26.294 6.314-6.83 13.987-10.25 23.018-10.25 4.156 0 8.052.79 11.698 2.36 3.644 1.568 7.017 3.922 10.11 7.06v-7.634z" fill="none" stroke="#000" stroke-width="21.664"/><path d="M162.482 42.634h14.897v8.72c1.612-3.44 3.753-6.05 6.428-7.83 2.672-1.783 5.6-2.677 8.784-2.677 2.252 0 4.603.597 7.07 1.787l-5.414 14.96c-2.04-1.02-3.712-1.532-5.03-1.532-2.674 0-4.934 1.66-6.778 4.964-1.847 3.313-2.77 9.807-2.77 19.485l.065 3.373v28.01h-17.253v-69.26z" fill="#231f20"/><path d="M162.482 42.634h14.897v8.72c1.612-3.44 3.753-6.05 6.428-7.83 2.672-1.783 5.6-2.677 8.784-2.677 2.252 0 4.603.597 7.07 1.787l-5.414 14.96c-2.04-1.02-3.712-1.532-5.03-1.532-2.674 0-4.934 1.66-6.778 4.964-1.847 3.313-2.77 9.807-2.77 19.485l.065 3.373v28.01h-17.253v-69.26z" fill="none" stroke="#000" stroke-width="21.664"/><path d="M69.94 139.54c-5.404 0-9.887 1.84-13.45 5.53-3.564 3.69-5.345 8.51-5.345 14.462 0 6.073 1.78 10.99 5.345 14.738 3.563 3.75 8.046 5.626 13.45 5.626 5.24 0 9.65-1.91 13.234-5.72 3.582-3.814 5.374-8.676 5.374-14.585 0-5.863-1.76-10.674-5.28-14.426-3.52-3.748-7.963-5.625-13.328-5.625M51.9 125.457v7.546c3.102-3.103 6.455-5.43 10.057-6.98 3.605-1.547 7.46-2.325 11.568-2.325 8.924 0 16.51 3.372 22.755 10.12 6.247 6.75 9.363 15.4 9.363 25.96 0 10.185-3.224 18.702-9.677 25.553-6.455 6.852-14.102 10.28-22.944 10.28-3.94 0-7.605-.704-11.003-2.107-3.394-1.406-6.768-3.698-10.12-6.885v32.25H34.867v-93.412H51.9z" fill="#231f20"/><path d="M69.94 139.54c-5.404 0-9.887 1.84-13.45 5.53-3.564 3.69-5.345 8.51-5.345 14.462 0 6.073 1.78 10.99 5.345 14.738 3.563 3.75 8.046 5.626 13.45 5.626 5.24 0 9.65-1.91 13.234-5.72 3.582-3.814 5.374-8.676 5.374-14.585 0-5.863-1.76-10.674-5.28-14.426-3.52-3.748-7.963-5.625-13.328-5.625zM51.9 125.457v7.546c3.102-3.103 6.455-5.43 10.057-6.98 3.605-1.547 7.46-2.325 11.568-2.325 8.924 0 16.51 3.372 22.755 10.12 6.247 6.75 9.363 15.4 9.363 25.96 0 10.185-3.224 18.702-9.677 25.553-6.455 6.852-14.102 10.28-22.944 10.28-3.94 0-7.605-.704-11.003-2.107-3.394-1.406-6.768-3.698-10.12-6.885v32.25H34.867v-93.412H51.9z" fill="none" stroke="#000" stroke-width="21.664"/><path d="M145.1 139.54c-5.305 0-9.715 1.876-13.217 5.624-3.513 3.752-5.264 8.563-5.264 14.427 0 5.91 1.782 10.772 5.352 14.587 3.57 3.81 7.965 5.72 13.19 5.72 5.388 0 9.86-1.877 13.406-5.627 3.55-3.75 5.324-8.665 5.324-14.738 0-5.95-1.774-10.77-5.324-14.462-3.546-3.69-8.04-5.53-13.468-5.53m18.04-14.082H180.3v68.396H163.14v-7.233c-3.347 3.188-6.71 5.48-10.08 6.886-3.367 1.403-7.02 2.107-10.95 2.107-8.835 0-16.477-3.428-22.92-10.28-6.45-6.85-9.67-15.368-9.67-25.552 0-10.56 3.115-19.21 9.356-25.96 6.238-6.748 13.813-10.12 22.727-10.12 4.104 0 7.954.777 11.552 2.323 3.6 1.552 6.93 3.878 9.985 6.98v-7.545z" fill="#231f20"/><path d="M145.1 139.54c-5.305 0-9.715 1.876-13.217 5.624-3.513 3.752-5.264 8.563-5.264 14.427 0 5.91 1.782 10.772 5.352 14.587 3.57 3.81 7.965 5.72 13.19 5.72 5.388 0 9.86-1.877 13.406-5.627 3.55-3.75 5.324-8.665 5.324-14.738 0-5.95-1.774-10.77-5.324-14.462-3.546-3.69-8.04-5.53-13.468-5.53zm18.04-14.082H180.3v68.396H163.14v-7.233c-3.347 3.188-6.71 5.48-10.08 6.886-3.367 1.403-7.02 2.107-10.95 2.107-8.835 0-16.477-3.428-22.92-10.28-6.45-6.85-9.67-15.368-9.67-25.552 0-10.56 3.115-19.21 9.356-25.96 6.238-6.748 13.813-10.12 22.727-10.12 4.104 0 7.954.777 11.552 2.323 3.6 1.552 6.93 3.878 9.985 6.98v-7.545z" fill="none" stroke="#000" stroke-width="21.664"/><path d="M192.536 100.254h17.162v25.204h10.182v14.772h-10.182v53.623h-17.162V140.23h-8.802v-14.772h8.802v-25.204z" fill="#231f20"/><path d="M192.536 100.254h17.162v25.204h10.182v14.772h-10.182v53.623h-17.162V140.23h-8.802v-14.772h8.802v-25.204z" fill="none" stroke="#000" stroke-width="21.664"/><path d="M224.773 125.457h17.162v68.396h-17.162v-68.396zm8.58-28.16c3.008 0 5.59 1.092 7.744 3.27 2.154 2.18 3.225 4.817 3.225 7.917 0 3.063-1.062 5.67-3.193 7.83-2.133 2.158-4.684 3.236-7.65 3.236-3.05 0-5.653-1.1-7.807-3.302-2.15-2.2-3.223-4.872-3.223-8.013 0-3.02 1.06-5.593 3.193-7.73 2.132-2.138 4.7-3.208 7.71-3.208" fill="#231f20"/><path d="M224.773 125.457h17.162v68.396h-17.162v-68.396zm8.58-28.16c3.008 0 5.59 1.092 7.744 3.27 2.154 2.18 3.225 4.817 3.225 7.917 0 3.063-1.062 5.67-3.193 7.83-2.133 2.158-4.684 3.236-7.65 3.236-3.05 0-5.653-1.1-7.807-3.302-2.15-2.2-3.223-4.872-3.223-8.013 0-3.02 1.06-5.593 3.193-7.73 2.132-2.138 4.7-3.208 7.71-3.208z" fill="none" stroke="#000" stroke-width="21.664"/><path d="M317.283 139.29l-14.285 7.856c-2.69-2.807-5.34-4.758-7.963-5.844-2.625-1.09-5.695-1.638-9.223-1.638-6.42 0-11.61 1.916-15.58 5.742-3.962 3.83-5.94 8.74-5.94 14.72 0 5.815 1.907 10.567 5.725 14.248 3.817 3.685 8.83 5.522 15.043 5.522 7.68 0 13.656-2.62 17.938-7.858l13.528 9.268c-7.334 9.538-17.685 14.306-31.05 14.306-12.032 0-21.45-3.56-28.258-10.686-6.813-7.125-10.215-15.465-10.215-25.022 0-6.615 1.654-12.716 4.964-18.29 3.314-5.57 7.933-9.954 13.863-13.138 5.93-3.184 12.566-4.778 19.895-4.778 6.79 0 12.888 1.35 18.292 4.056 5.408 2.703 9.826 6.547 13.266 11.535" fill="#231f20"/><path d="M317.283 139.29l-14.285 7.856c-2.69-2.807-5.34-4.758-7.963-5.844-2.625-1.09-5.695-1.638-9.223-1.638-6.42 0-11.61 1.916-15.58 5.742-3.962 3.83-5.94 8.74-5.94 14.72 0 5.815 1.907 10.567 5.725 14.248 3.817 3.685 8.83 5.522 15.043 5.522 7.68 0 13.656-2.62 17.938-7.858l13.528 9.268c-7.334 9.538-17.685 14.306-31.05 14.306-12.032 0-21.45-3.56-28.258-10.686-6.813-7.125-10.215-15.465-10.215-25.022 0-6.615 1.654-12.716 4.964-18.29 3.314-5.57 7.933-9.954 13.863-13.138 5.93-3.184 12.566-4.778 19.895-4.778 6.79 0 12.888 1.35 18.292 4.056 5.408 2.703 9.826 6.547 13.266 11.535z" fill="none" stroke="#000" stroke-width="21.664"/><path d="M353.167 139.854c-5.333 0-9.77 1.857-13.318 5.562-3.55 3.71-5.322 8.454-5.322 14.24 0 5.95 1.755 10.77 5.257 14.455 3.507 3.69 7.944 5.535 13.317 5.535s9.84-1.866 13.408-5.595c3.568-3.73 5.358-8.528 5.358-14.394 0-5.87-1.756-10.635-5.26-14.304-3.504-3.666-7.984-5.498-13.44-5.498m-.286-16.155c6.455 0 12.52 1.61 18.198 4.84 5.678 3.228 10.113 7.605 13.297 13.14 3.184 5.532 4.778 11.502 4.778 17.91 0 6.457-1.603 12.49-4.81 18.11-3.208 5.61-7.574 10-13.108 13.166-5.53 3.166-11.628 4.747-18.29 4.747-9.807 0-18.178-3.49-25.114-10.466-6.934-6.98-10.406-15.453-10.406-25.43 0-10.686 3.92-19.59 11.755-26.713 6.877-6.202 14.776-9.305 23.7-9.305" fill="#231f20"/><path d="M353.167 139.854c-5.333 0-9.77 1.857-13.318 5.562-3.55 3.71-5.322 8.454-5.322 14.24 0 5.95 1.755 10.77 5.257 14.455 3.507 3.69 7.944 5.535 13.317 5.535s9.84-1.866 13.408-5.595c3.568-3.73 5.358-8.528 5.358-14.394 0-5.87-1.756-10.635-5.26-14.304-3.504-3.666-7.984-5.498-13.44-5.498zm-.285-16.155c6.455 0 12.52 1.61 18.198 4.84 5.678 3.228 10.113 7.605 13.297 13.14 3.184 5.532 4.778 11.502 4.778 17.91 0 6.457-1.603 12.49-4.81 18.11-3.208 5.61-7.574 10-13.108 13.166-5.53 3.166-11.628 4.747-18.29 4.747-9.807 0-18.178-3.49-25.114-10.466-6.934-6.98-10.406-15.453-10.406-25.43 0-10.686 3.92-19.59 11.755-26.713 6.877-6.202 14.776-9.305 23.7-9.305z" fill="none" stroke="#000" stroke-width="21.664"/><path d="M69.196 138.946c-5.406 0-9.89 1.84-13.45 5.53-3.564 3.69-5.346 8.51-5.346 14.46 0 6.077 1.782 10.99 5.345 14.742 3.562 3.746 8.045 5.625 13.45 5.625 5.24 0 9.65-1.91 13.234-5.72 3.582-3.818 5.372-8.677 5.372-14.587 0-5.864-1.76-10.675-5.28-14.424-3.518-3.752-7.96-5.626-13.326-5.626m-18.038-14.084v7.547c3.1-3.103 6.453-5.428 10.056-6.98 3.602-1.55 7.458-2.326 11.567-2.326 8.926 0 16.51 3.372 22.755 10.123 6.247 6.746 9.366 15.4 9.366 25.96 0 10.182-3.225 18.698-9.68 25.548-6.453 6.855-14.1 10.282-22.944 10.282-3.938 0-7.604-.703-11-2.106-3.396-1.405-6.77-3.7-10.118-6.886v32.248H34.12v-93.41H51.16z" fill="#231f20"/><path d="M69.196 138.946c-5.406 0-9.89 1.84-13.45 5.53-3.564 3.69-5.346 8.51-5.346 14.46 0 6.077 1.782 10.99 5.345 14.742 3.562 3.746 8.045 5.625 13.45 5.625 5.24 0 9.65-1.91 13.234-5.72 3.582-3.818 5.372-8.677 5.372-14.587 0-5.864-1.76-10.675-5.28-14.424-3.518-3.752-7.96-5.626-13.326-5.626zm-18.038-14.084v7.547c3.1-3.103 6.453-5.428 10.056-6.98 3.602-1.55 7.458-2.326 11.567-2.326 8.926 0 16.51 3.372 22.755 10.123 6.247 6.746 9.366 15.4 9.366 25.96 0 10.182-3.225 18.698-9.68 25.548-6.453 6.855-14.1 10.282-22.944 10.282-3.938 0-7.604-.703-11-2.106-3.396-1.405-6.77-3.7-10.118-6.886v32.248H34.12v-93.41H51.16z" fill="none" stroke="#000" stroke-width="21.664"/><path d="M144.354 138.946c-5.304 0-9.714 1.874-13.216 5.626-3.512 3.75-5.265 8.56-5.265 14.424 0 5.91 1.786 10.77 5.354 14.586 3.573 3.81 7.967 5.72 13.19 5.72 5.388 0 9.86-1.878 13.406-5.624 3.55-3.753 5.324-8.665 5.324-14.743 0-5.95-1.775-10.77-5.324-14.46-3.546-3.688-8.037-5.53-13.47-5.53m18.043-14.083h17.16v68.395h-17.16v-7.233c-3.348 3.187-6.71 5.48-10.082 6.887-3.366 1.404-7.018 2.107-10.95 2.107-8.832 0-16.476-3.427-22.918-10.282-6.452-6.85-9.67-15.366-9.67-25.548 0-10.56 3.114-19.214 9.355-25.96 6.24-6.75 13.814-10.123 22.73-10.123 4.1 0 7.952.777 11.55 2.325 3.6 1.552 6.93 3.877 9.986 6.98v-7.548z" fill="#231f20"/><path d="M144.354 138.946c-5.304 0-9.714 1.874-13.216 5.626-3.512 3.75-5.265 8.56-5.265 14.424 0 5.91 1.786 10.77 5.354 14.586 3.573 3.81 7.967 5.72 13.19 5.72 5.388 0 9.86-1.878 13.406-5.624 3.55-3.753 5.324-8.665 5.324-14.743 0-5.95-1.775-10.77-5.324-14.46-3.546-3.688-8.037-5.53-13.47-5.53zm18.042-14.084h17.16v68.395h-17.16v-7.233c-3.348 3.187-6.71 5.48-10.082 6.887-3.366 1.404-7.018 2.107-10.95 2.107-8.832 0-16.476-3.427-22.918-10.282-6.452-6.85-9.67-15.366-9.67-25.548 0-10.56 3.114-19.214 9.355-25.96 6.24-6.75 13.814-10.123 22.73-10.123 4.1 0 7.952.777 11.55 2.325 3.6 1.552 6.93 3.877 9.986 6.98v-7.548z" fill="none" stroke="#000" stroke-width="21.664"/><path d="M191.79 99.66h17.162v25.202h10.18v14.773h-10.18v53.622H191.79v-53.622h-8.8v-14.773h8.8V99.66z" fill="#231f20"/><path d="M191.79 99.66h17.162v25.202h10.18v14.773h-10.18v53.622H191.79v-53.622h-8.8v-14.773h8.8V99.66z" fill="none" stroke="#000" stroke-width="21.664"/><path d="M224.03 124.863h17.16v68.394h-17.16v-68.394zm8.58-28.16c3.006 0 5.59 1.09 7.74 3.268 2.153 2.18 3.23 4.82 3.23 7.92 0 3.062-1.065 5.67-3.196 7.83-2.13 2.156-4.684 3.236-7.65 3.236-3.045 0-5.653-1.1-7.804-3.3-2.153-2.203-3.226-4.874-3.226-8.015 0-3.018 1.063-5.593 3.195-7.73 2.13-2.14 4.697-3.208 7.71-3.208" fill="#231f20"/><path d="M224.03 124.863h17.16v68.394h-17.16v-68.394zm8.58-28.16c3.006 0 5.59 1.09 7.74 3.268 2.153 2.18 3.23 4.82 3.23 7.92 0 3.062-1.065 5.67-3.196 7.83-2.13 2.156-4.684 3.236-7.65 3.236-3.045 0-5.653-1.1-7.804-3.3-2.153-2.203-3.226-4.874-3.226-8.015 0-3.018 1.063-5.593 3.195-7.73 2.13-2.14 4.697-3.208 7.71-3.208z" fill="none" stroke="#000" stroke-width="21.664"/><path d="M316.54 138.696l-14.29 7.854c-2.688-2.805-5.338-4.756-7.96-5.844-2.628-1.09-5.7-1.636-9.222-1.636-6.42 0-11.615 1.916-15.58 5.743-3.963 3.83-5.946 8.74-5.946 14.718 0 5.814 1.907 10.567 5.726 14.248 3.823 3.686 8.835 5.524 15.05 5.524 7.678 0 13.653-2.622 17.93-7.86l13.533 9.27c-7.333 9.537-17.684 14.305-31.05 14.305-12.028 0-21.448-3.564-28.257-10.685-6.81-7.128-10.214-15.468-10.214-25.02 0-6.62 1.652-12.72 4.96-18.292 3.316-5.572 7.935-9.955 13.864-13.138 5.93-3.184 12.56-4.778 19.896-4.778 6.792 0 12.886 1.352 18.295 4.056 5.404 2.703 9.825 6.546 13.264 11.536" fill="#231f20"/><path d="M316.54 138.696l-14.29 7.854c-2.688-2.805-5.338-4.756-7.96-5.844-2.628-1.09-5.7-1.636-9.222-1.636-6.42 0-11.615 1.916-15.58 5.743-3.963 3.83-5.946 8.74-5.946 14.718 0 5.814 1.907 10.567 5.726 14.248 3.823 3.686 8.835 5.524 15.05 5.524 7.678 0 13.653-2.622 17.93-7.86l13.533 9.27c-7.333 9.537-17.684 14.305-31.05 14.305-12.028 0-21.448-3.564-28.257-10.685-6.81-7.128-10.214-15.468-10.214-25.02 0-6.62 1.652-12.72 4.96-18.292 3.316-5.572 7.935-9.955 13.864-13.138 5.93-3.184 12.56-4.778 19.896-4.778 6.792 0 12.886 1.352 18.295 4.056 5.404 2.703 9.825 6.546 13.264 11.536z" fill="none" stroke="#000" stroke-width="21.664"/><path d="M352.42 139.258c-5.33 0-9.767 1.857-13.317 5.566-3.55 3.707-5.32 8.454-5.32 14.24 0 5.95 1.754 10.766 5.256 14.454 3.51 3.686 7.945 5.533 13.317 5.533 5.373 0 9.84-1.866 13.41-5.593 3.567-3.732 5.358-8.528 5.358-14.393 0-5.87-1.76-10.638-5.26-14.304-3.506-3.67-7.986-5.502-13.444-5.502m-.284-16.154c6.455 0 12.523 1.614 18.2 4.84 5.677 3.23 10.113 7.607 13.296 13.14s4.778 11.502 4.778 17.912c0 6.457-1.603 12.49-4.81 18.108-3.208 5.61-7.575 10.003-13.108 13.166-5.53 3.167-11.628 4.747-18.29 4.747-9.805 0-18.178-3.492-25.115-10.466-6.933-6.978-10.404-15.454-10.404-25.426 0-10.688 3.92-19.59 11.755-26.715 6.875-6.203 14.775-9.306 23.698-9.306" fill="#231f20"/><path d="M352.42 139.258c-5.33 0-9.767 1.857-13.317 5.566-3.55 3.707-5.32 8.454-5.32 14.24 0 5.95 1.754 10.766 5.256 14.454 3.51 3.686 7.945 5.533 13.317 5.533 5.373 0 9.84-1.866 13.41-5.593 3.567-3.732 5.358-8.528 5.358-14.393 0-5.87-1.76-10.638-5.26-14.304-3.506-3.67-7.986-5.502-13.444-5.502zm-.284-16.154c6.455 0 12.523 1.614 18.2 4.84 5.677 3.23 10.113 7.607 13.296 13.14s4.778 11.502 4.778 17.912c0 6.457-1.603 12.49-4.81 18.108-3.208 5.61-7.575 10.003-13.108 13.166-5.53 3.167-11.628 4.747-18.29 4.747-9.805 0-18.178-3.492-25.115-10.466-6.933-6.978-10.404-15.454-10.404-25.426 0-10.688 3.92-19.59 11.755-26.715 6.875-6.203 14.775-9.306 23.698-9.306z" fill="none" stroke="#000" stroke-width="21.664"/><path d="M69.196 139.687c-5.406 0-9.89 1.842-13.45 5.53-3.564 3.692-5.346 8.51-5.346 14.46 0 6.08 1.782 10.994 5.345 14.743 3.562 3.748 8.045 5.627 13.45 5.627 5.24 0 9.65-1.91 13.234-5.722 3.582-3.815 5.372-8.677 5.372-14.586 0-5.867-1.76-10.675-5.28-14.428-3.518-3.75-7.96-5.625-13.326-5.625m-18.038-14.08v7.544c3.1-3.102 6.453-5.427 10.056-6.98 3.602-1.548 7.458-2.325 11.567-2.325 8.926 0 16.51 3.376 22.755 10.12 6.247 6.752 9.366 15.404 9.366 25.966 0 10.184-3.225 18.7-9.68 25.55-6.453 6.855-14.1 10.283-22.944 10.283-3.938 0-7.604-.706-11-2.107-3.396-1.406-6.77-3.7-10.118-6.886v32.247H34.12v-93.41H51.16z" fill="#231f20"/><path d="M69.196 139.687c-5.406 0-9.89 1.842-13.45 5.53-3.564 3.692-5.346 8.51-5.346 14.46 0 6.08 1.782 10.994 5.345 14.743 3.562 3.748 8.045 5.627 13.45 5.627 5.24 0 9.65-1.91 13.234-5.722 3.582-3.815 5.372-8.677 5.372-14.586 0-5.867-1.76-10.675-5.28-14.428-3.518-3.75-7.96-5.625-13.326-5.625zm-18.038-14.08v7.544c3.1-3.102 6.453-5.427 10.056-6.98 3.602-1.548 7.458-2.325 11.567-2.325 8.926 0 16.51 3.376 22.755 10.12 6.247 6.752 9.366 15.404 9.366 25.966 0 10.184-3.225 18.7-9.68 25.55-6.453 6.855-14.1 10.283-22.944 10.283-3.938 0-7.604-.706-11-2.107-3.396-1.406-6.77-3.7-10.118-6.886v32.247H34.12v-93.41H51.16z" fill="none" stroke="#000" stroke-width="21.664"/><path d="M144.354 139.687c-5.304 0-9.714 1.875-13.216 5.625-3.512 3.753-5.265 8.56-5.265 14.427 0 5.908 1.786 10.77 5.354 14.585 3.573 3.812 7.967 5.722 13.19 5.722 5.388 0 9.86-1.88 13.406-5.627 3.55-3.75 5.324-8.664 5.324-14.742 0-5.95-1.775-10.77-5.324-14.46-3.546-3.69-8.037-5.53-13.47-5.53m18.043-14.082h17.16v68.396h-17.16v-7.232c-3.348 3.187-6.71 5.48-10.082 6.886-3.366 1.4-7.018 2.107-10.95 2.107-8.832 0-16.476-3.428-22.918-10.282-6.452-6.85-9.67-15.366-9.67-25.55 0-10.56 3.114-19.213 9.355-25.964 6.24-6.745 13.814-10.12 22.73-10.12 4.1 0 7.952.776 11.55 2.324 3.6 1.553 6.93 3.878 9.986 6.98v-7.544z" fill="#231f20"/><path d="M144.354 139.687c-5.304 0-9.714 1.875-13.216 5.625-3.512 3.753-5.265 8.56-5.265 14.427 0 5.908 1.786 10.77 5.354 14.585 3.573 3.812 7.967 5.722 13.19 5.722 5.388 0 9.86-1.88 13.406-5.627 3.55-3.75 5.324-8.664 5.324-14.742 0-5.95-1.775-10.77-5.324-14.46-3.546-3.69-8.037-5.53-13.47-5.53zm18.042-14.08h17.16V194h-17.16v-7.232c-3.348 3.187-6.71 5.48-10.082 6.886-3.366 1.4-7.018 2.107-10.95 2.107-8.832 0-16.476-3.428-22.918-10.282-6.452-6.85-9.67-15.366-9.67-25.55 0-10.56 3.114-19.213 9.355-25.964 6.24-6.745 13.814-10.12 22.73-10.12 4.1 0 7.952.776 11.55 2.324 3.6 1.553 6.93 3.878 9.986 6.98v-7.544z" fill="none" stroke="#000" stroke-width="21.664"/><path d="M191.79 100.402h17.162v25.204h10.18v14.77h-10.18V194H191.79v-53.624h-8.8v-14.77h8.8v-25.204z" fill="#231f20"/><path d="M191.79 100.402h17.162v25.204h10.18v14.77h-10.18V194H191.79v-53.624h-8.8v-14.77h8.8v-25.204z" fill="none" stroke="#000" stroke-width="21.664"/><path d="M224.03 125.606h17.16v68.396h-17.16v-68.396zm8.58-28.163c3.006 0 5.59 1.094 7.74 3.27 2.153 2.18 3.23 4.817 3.23 7.92 0 3.06-1.065 5.67-3.196 7.828-2.13 2.16-4.684 3.236-7.65 3.236-3.045 0-5.653-1.1-7.804-3.3-2.153-2.2-3.226-4.87-3.226-8.014 0-3.02 1.063-5.594 3.195-7.73 2.13-2.14 4.697-3.21 7.71-3.21" fill="#231f20"/><path d="M224.03 125.606h17.16v68.396h-17.16v-68.396zm8.58-28.163c3.006 0 5.59 1.094 7.74 3.27 2.153 2.18 3.23 4.817 3.23 7.92 0 3.06-1.065 5.67-3.196 7.828-2.13 2.16-4.684 3.236-7.65 3.236-3.045 0-5.653-1.1-7.804-3.3-2.153-2.2-3.226-4.87-3.226-8.014 0-3.02 1.063-5.594 3.195-7.73 2.13-2.14 4.697-3.21 7.71-3.21z" fill="none" stroke="#000" stroke-width="21.664"/><path d="M316.54 139.435l-14.29 7.858c-2.688-2.808-5.338-4.76-7.96-5.843-2.628-1.09-5.7-1.638-9.222-1.638-6.42 0-11.615 1.914-15.58 5.74-3.963 3.834-5.946 8.742-5.946 14.723 0 5.814 1.907 10.568 5.726 14.247 3.823 3.687 8.835 5.524 15.05 5.524 7.678 0 13.653-2.622 17.93-7.86l13.533 9.27c-7.333 9.54-17.684 14.307-31.05 14.307-12.028 0-21.448-3.564-28.257-10.686-6.81-7.128-10.214-15.47-10.214-25.023 0-6.62 1.652-12.718 4.96-18.292 3.316-5.572 7.935-9.954 13.864-13.136 5.93-3.188 12.56-4.782 19.896-4.782 6.792 0 12.886 1.352 18.295 4.057 5.404 2.703 9.825 6.547 13.264 11.535" fill="#231f20"/><path d="M316.54 139.435l-14.29 7.858c-2.688-2.808-5.338-4.76-7.96-5.843-2.628-1.09-5.7-1.638-9.222-1.638-6.42 0-11.615 1.914-15.58 5.74-3.963 3.834-5.946 8.742-5.946 14.723 0 5.814 1.907 10.568 5.726 14.247 3.823 3.687 8.835 5.524 15.05 5.524 7.678 0 13.653-2.622 17.93-7.86l13.533 9.27c-7.333 9.54-17.684 14.307-31.05 14.307-12.028 0-21.448-3.564-28.257-10.686-6.81-7.128-10.214-15.47-10.214-25.023 0-6.62 1.652-12.718 4.96-18.292 3.316-5.572 7.935-9.954 13.864-13.136 5.93-3.188 12.56-4.782 19.896-4.782 6.792 0 12.886 1.352 18.295 4.057 5.404 2.703 9.825 6.547 13.264 11.535z" fill="none" stroke="#000" stroke-width="21.664"/><path d="M352.42 140c-5.33 0-9.767 1.86-13.317 5.566-3.55 3.707-5.32 8.45-5.32 14.24 0 5.95 1.754 10.77 5.256 14.455 3.51 3.688 7.945 5.533 13.317 5.533 5.373 0 9.84-1.864 13.41-5.592 3.567-3.73 5.358-8.528 5.358-14.393 0-5.875-1.76-10.638-5.26-14.306-3.506-3.666-7.986-5.5-13.444-5.5m-.284-16.155c6.455 0 12.523 1.613 18.2 4.84 5.677 3.23 10.113 7.608 13.296 13.142 3.183 5.533 4.778 11.503 4.778 17.912 0 6.458-1.603 12.49-4.81 18.108-3.208 5.61-7.575 10.003-13.108 13.166-5.53 3.17-11.628 4.75-18.29 4.75-9.805 0-18.178-3.493-25.115-10.467-6.933-6.98-10.404-15.455-10.404-25.43 0-10.69 3.92-19.59 11.755-26.716 6.875-6.202 14.775-9.305 23.698-9.305" fill="#231f20"/><path d="M352.42 140c-5.33 0-9.767 1.86-13.317 5.566-3.55 3.707-5.32 8.45-5.32 14.24 0 5.95 1.754 10.77 5.256 14.455 3.51 3.688 7.945 5.533 13.317 5.533 5.373 0 9.84-1.864 13.41-5.592 3.567-3.73 5.358-8.528 5.358-14.393 0-5.875-1.76-10.638-5.26-14.306-3.506-3.666-7.986-5.5-13.444-5.5zm-.284-16.155c6.455 0 12.523 1.613 18.2 4.84 5.677 3.23 10.113 7.608 13.296 13.142 3.183 5.533 4.778 11.503 4.778 17.912 0 6.458-1.603 12.49-4.81 18.108-3.208 5.61-7.575 10.003-13.108 13.166-5.53 3.17-11.628 4.75-18.29 4.75-9.805 0-18.178-3.493-25.115-10.467-6.933-6.98-10.404-15.455-10.404-25.43 0-10.69 3.92-19.59 11.755-26.716 6.875-6.202 14.775-9.305 23.698-9.305z" fill="none" stroke="#000" stroke-width="21.664"/><path d="M279.81 78.754c-3.09 0-5.655 1.092-7.697 3.276-2.04 2.18-3.062 4.982-3.062 8.396 0 3.44 1.04 6.27 3.114 8.49 2.084 2.222 4.643 3.33 7.68 3.33 3.137 0 5.74-1.09 7.806-3.276 2.064-2.183 3.098-5.043 3.098-8.58 0-3.462-1.034-6.266-3.098-8.417-2.067-2.146-4.682-3.22-7.84-3.22zm10.5-23.567h9.99v55.18h-9.99v-4.205c-1.95 1.853-3.906 3.19-5.865 4.005-1.96.818-4.086 1.227-6.378 1.227-5.14 0-9.59-1.994-13.34-5.984-3.754-3.986-5.63-8.946-5.63-14.875 0-6.145 1.813-11.184 5.444-15.11 3.635-3.928 8.04-5.89 13.234-5.89 2.387 0 4.63.448 6.723 1.352 2.096.904 4.032 2.256 5.813 4.063V55.187zM334.145 85.487c-.658-2.22-1.962-4.026-3.904-5.415-1.942-1.392-4.196-2.085-6.76-2.085-2.787 0-5.23.78-7.33 2.342-1.32.973-2.545 2.694-3.666 5.157h21.66zm9.992 7.868h-32.092c.462 2.828 1.7 5.08 3.71 6.75 2.015 1.672 4.58 2.507 7.705 2.507 3.732 0 6.942-1.304 9.625-3.917l8.414 3.952c-2.1 2.977-4.612 5.18-7.537 6.608-2.93 1.423-6.403 2.14-10.43 2.14-6.246 0-11.33-1.97-15.26-5.91-3.927-3.94-5.89-8.875-5.89-14.803 0-6.075 1.958-11.117 5.874-15.13 3.916-4.01 8.824-6.018 14.728-6.018 6.268 0 11.366 2.007 15.295 6.017 3.93 4.015 5.893 9.314 5.893 15.9l-.036 1.905z" fill="none" stroke="#be1e2d" stroke-width="10.832"/><path d="M280.906 78.073c-3.09 0-5.653 1.09-7.695 3.273-2.04 2.184-3.06 4.985-3.06 8.398 0 3.44 1.034 6.27 3.112 8.49 2.083 2.22 4.64 3.328 7.68 3.328 3.134 0 5.738-1.09 7.804-3.273 2.065-2.185 3.1-5.046 3.1-8.58 0-3.465-1.035-6.27-3.1-8.42-2.066-2.145-4.682-3.217-7.84-3.217zm10.502-23.567h9.99v55.182h-9.99v-4.21c-1.95 1.856-3.906 3.19-5.865 4.008-1.963.816-4.087 1.224-6.378 1.224-5.14 0-9.59-1.992-13.34-5.984-3.754-3.986-5.632-8.946-5.632-14.872 0-6.145 1.814-11.187 5.446-15.112 3.632-3.927 8.04-5.89 13.23-5.89 2.39 0 4.63.45 6.725 1.352 2.096.904 4.03 2.258 5.813 4.062v-19.76zM335.243 84.804c-.66-2.22-1.962-4.025-3.904-5.415-1.942-1.392-4.197-2.086-6.764-2.086-2.785 0-5.23.78-7.33 2.342-1.317.975-2.543 2.694-3.665 5.158h21.663zm9.99 7.87h-32.092c.465 2.828 1.704 5.078 3.717 6.748 2.01 1.673 4.577 2.507 7.7 2.507 3.736 0 6.943-1.306 9.625-3.916l8.415 3.95c-2.097 2.977-4.61 5.182-7.538 6.607-2.928 1.428-6.404 2.14-10.428 2.14-6.247 0-11.332-1.968-15.262-5.908-3.928-3.94-5.89-8.875-5.89-14.804 0-6.07 1.957-11.116 5.874-15.128 3.915-4.013 8.823-6.018 14.73-6.018 6.265 0 11.367 2.005 15.296 6.018 3.927 4.012 5.89 9.31 5.89 15.897l-.036 1.906z" fill="none" stroke="#f6921e" stroke-width="6.499"/><path d="M280.164 78.07c-3.087 0-5.65 1.09-7.695 3.275-2.044 2.183-3.067 4.984-3.067 8.397 0 3.44 1.04 6.27 3.118 8.49 2.083 2.22 4.64 3.328 7.68 3.328 3.138 0 5.737-1.09 7.804-3.274 2.067-2.183 3.1-5.044 3.1-8.58 0-3.464-1.033-6.267-3.1-8.418-2.067-2.145-4.68-3.217-7.84-3.217m10.5-23.566h9.992v55.182h-9.99v-4.21c-1.95 1.854-3.905 3.19-5.865 4.008-1.962.816-4.09 1.225-6.377 1.225-5.142 0-9.59-1.994-13.342-5.985-3.754-3.986-5.626-8.946-5.626-14.873 0-6.146 1.813-11.186 5.444-15.113 3.633-3.927 8.04-5.89 13.233-5.89 2.384 0 4.628.45 6.723 1.352 2.096.903 4.034 2.258 5.812 4.063v-19.76zM334.502 84.802c-.66-2.22-1.962-4.024-3.904-5.415-1.946-1.39-4.2-2.085-6.762-2.085-2.787 0-5.235.78-7.33 2.342-1.323.976-2.544 2.694-3.67 5.158h21.666zm9.99 7.87H312.4c.46 2.828 1.702 5.078 3.713 6.748 2.014 1.674 4.58 2.507 7.704 2.507 3.73 0 6.937-1.304 9.625-3.915l8.415 3.95c-2.1 2.977-4.613 5.182-7.54 6.607-2.926 1.426-6.4 2.138-10.43 2.138-6.245 0-11.33-1.968-15.258-5.908-3.928-3.94-5.893-8.875-5.893-14.804 0-6.07 1.958-11.116 5.875-15.128 3.915-4.012 8.826-6.018 14.727-6.018 6.27 0 11.365 2.006 15.294 6.018 3.927 4.012 5.895 9.31 5.895 15.898l-.037 1.906z" fill="#fff"/><path d="M48.767 25.193c-.31-1.054-.927-1.907-1.847-2.566-.92-.658-1.99-.986-3.203-.986-1.32 0-2.476.37-3.474 1.112-.625.458-1.202 1.276-1.735 2.44h10.26zm4.733 3.73H38.3c.22 1.334.806 2.404 1.76 3.192.952.793 2.17 1.19 3.65 1.19 1.765 0 3.284-.62 4.555-1.854l3.986 1.87c-.992 1.41-2.182 2.455-3.57 3.132-1.385.673-3.03 1.014-4.94 1.014-2.956 0-5.364-.934-7.223-2.8-1.863-1.866-2.793-4.204-2.793-7.01 0-2.88.928-5.265 2.783-7.168 1.854-1.903 4.18-2.85 6.976-2.85 2.968 0 5.383.947 7.244 2.85 1.86 1.903 2.79 4.413 2.79 7.53l-.017.904zM56.81 10.843h4.732V36.98h-4.73V10.843z" fill="none" stroke="#be1e2d" stroke-width="10.832"/><path d="M46.668 56.892c-5.476 0-10.014 1.87-13.625 5.6-3.606 3.737-5.408 8.617-5.408 14.643 0 6.155 1.802 11.13 5.408 14.93 3.61 3.796 8.15 5.7 13.625 5.7 5.304 0 9.77-1.937 13.4-5.795 3.628-3.864 5.445-8.785 5.445-14.77 0-5.943-1.784-10.81-5.35-14.61-3.565-3.797-8.062-5.698-13.495-5.698zm-18.27-40.996V50.27c3.138-3.14 6.534-5.494 10.187-7.063 3.65-1.57 7.552-2.36 11.71-2.36 9.04 0 16.722 3.42 23.047 10.25 6.323 6.837 9.484 15.6 9.484 26.295 0 10.31-3.27 18.938-9.802 25.877-6.537 6.937-14.282 10.404-23.237 10.404-3.99 0-7.7-.707-11.138-2.13-3.442-1.42-6.857-3.747-10.253-6.97v7.32h-17.25V15.895h17.25zM121.863 56.892c-5.37 0-9.832 1.9-13.386 5.697-3.554 3.8-5.33 8.667-5.33 14.61 0 5.985 1.806 10.906 5.422 14.77 3.617 3.858 8.068 5.794 13.355 5.794 5.457 0 9.982-1.903 13.578-5.698 3.594-3.8 5.396-8.776 5.396-14.93 0-6.027-1.803-10.907-5.397-14.643-3.596-3.732-8.14-5.6-13.64-5.6zm18.27-14.258h17.38v69.26h-17.38v-7.32c-3.392 3.223-6.795 5.55-10.206 6.97-3.413 1.423-7.11 2.13-11.095 2.13-8.945 0-16.68-3.467-23.21-10.405-6.525-6.94-9.79-15.57-9.79-25.878 0-10.694 3.156-19.458 9.473-26.294 6.316-6.83 13.988-10.25 23.018-10.25 4.154 0 8.052.79 11.698 2.36 3.646 1.568 7.016 3.922 10.113 7.06v-7.634zM162.81 42.634h14.894v8.72c1.614-3.44 3.756-6.05 6.43-7.83 2.675-1.783 5.6-2.677 8.785-2.677 2.25 0 4.605.597 7.064 1.787l-5.41 14.96c-2.036-1.02-3.712-1.532-5.027-1.532-2.675 0-4.936 1.66-6.783 4.964C180.92 64.34 180 70.833 180 80.51l.063 3.373v28.01H162.81v-69.26z" fill="none" stroke="#be1e2d" stroke-width="10.832"/><path d="M49.867 24.512c-.313-1.054-.93-1.906-1.85-2.566-.918-.658-1.988-.99-3.203-.99-1.32 0-2.475.373-3.473 1.114-.624.46-1.2 1.272-1.734 2.442h10.26zm4.73 3.724h-15.2c.22 1.34.806 2.406 1.76 3.2.953.79 2.17 1.187 3.65 1.187 1.766 0 3.285-.62 4.556-1.857l3.986 1.873c-.995 1.41-2.185 2.45-3.572 3.127-1.385.677-3.03 1.013-4.94 1.013-2.956 0-5.364-.933-7.223-2.8-1.863-1.865-2.793-4.2-2.793-7.01 0-2.875.928-5.265 2.783-7.16 1.853-1.905 4.18-2.853 6.975-2.853 2.97 0 5.383.948 7.245 2.852 1.86 1.895 2.79 4.406 2.79 7.525l-.018.9zM57.908 10.162h4.73v26.133h-4.73V10.162z" fill="none" stroke="#f6921e" stroke-width="6.499"/><path d="M47.766 56.21c-5.476 0-10.016 1.866-13.625 5.602-3.605 3.736-5.407 8.616-5.407 14.642 0 6.155 1.802 11.13 5.408 14.927 3.61 3.802 8.15 5.698 13.626 5.698 5.305 0 9.77-1.93 13.4-5.793 3.628-3.86 5.445-8.785 5.445-14.77 0-5.94-1.783-10.81-5.348-14.607-3.566-3.8-8.063-5.698-13.496-5.698zm-18.27-41v34.378c3.138-3.14 6.534-5.498 10.187-7.066 3.65-1.57 7.552-2.354 11.713-2.354 9.036 0 16.72 3.413 23.044 10.25 6.322 6.83 9.484 15.595 9.484 26.288 0 10.313-3.27 18.94-9.802 25.878-6.537 6.94-14.282 10.41-23.237 10.41-3.99 0-7.7-.713-11.138-2.135-3.44-1.42-6.856-3.742-10.25-6.97v7.322H12.245V15.21h17.252zM122.96 56.21c-5.37 0-9.832 1.897-13.386 5.698-3.554 3.797-5.328 8.668-5.328 14.606 0 5.986 1.804 10.91 5.42 14.77 3.618 3.865 8.07 5.794 13.356 5.794 5.458 0 9.983-1.896 13.582-5.697 3.592-3.795 5.392-8.77 5.392-14.926 0-6.026-1.8-10.906-5.392-14.642-3.6-3.736-8.144-5.602-13.643-5.602zm18.27-14.26h17.382v69.262h-17.38v-7.322c-3.392 3.228-6.797 5.55-10.206 6.97-3.414 1.42-7.112 2.135-11.096 2.135-8.946 0-16.682-3.472-23.212-10.41-6.524-6.94-9.79-15.566-9.79-25.88 0-10.692 3.158-19.457 9.474-26.288 6.316-6.836 13.99-10.25 23.02-10.25 4.154 0 8.05.784 11.696 2.355 3.646 1.568 7.017 3.926 10.113 7.066v-7.64zM163.91 41.95H178.8v8.72c1.614-3.436 3.756-6.047 6.43-7.828 2.672-1.787 5.6-2.674 8.783-2.674 2.25 0 4.606.59 7.067 1.78l-5.41 14.96c-2.038-1.018-3.712-1.527-5.026-1.527-2.678 0-4.937 1.656-6.784 4.967-1.845 3.312-2.765 9.805-2.765 19.48l.064 3.374v28.012h-17.25V41.95z" fill="none" stroke="#f6921e" stroke-width="6.499"/><path d="M49.122 24.508c-.31-1.054-.925-1.905-1.847-2.566-.92-.657-1.987-.986-3.204-.986-1.318 0-2.476.37-3.47 1.11-.625.46-1.202 1.276-1.735 2.442h10.257zm4.732 3.728H38.656c.22 1.336.806 2.407 1.76 3.196.95.79 2.167 1.187 3.648 1.187 1.766 0 3.287-.62 4.558-1.854l3.986 1.87c-.993 1.41-2.184 2.454-3.57 3.13-1.386.674-3.033 1.014-4.94 1.014-2.957 0-5.367-.934-7.226-2.798-1.86-1.867-2.79-4.205-2.79-7.012 0-2.88.925-5.264 2.78-7.166 1.855-1.903 4.18-2.85 6.975-2.85 2.97 0 5.385.947 7.245 2.85 1.86 1.902 2.79 4.412 2.79 7.53l-.018.902zM57.165 10.158h4.73v26.137h-4.73V10.158z" fill="#fff"/><path d="M47.022 56.207c-5.474 0-10.016 1.87-13.622 5.6-3.608 3.737-5.41 8.617-5.41 14.643 0 6.155 1.802 11.13 5.41 14.93 3.606 3.798 8.148 5.698 13.622 5.698 5.305 0 9.772-1.933 13.403-5.793 3.626-3.865 5.442-8.785 5.442-14.77 0-5.943-1.784-10.81-5.347-14.61-3.566-3.797-8.064-5.698-13.498-5.698M28.752 15.21v34.374c3.14-3.14 6.536-5.494 10.187-7.062 3.65-1.57 7.554-2.358 11.712-2.358 9.04 0 16.72 3.418 23.045 10.25 6.325 6.834 9.485 15.6 9.485 26.293 0 10.31-3.27 18.94-9.804 25.877-6.535 6.94-14.282 10.407-23.236 10.407-3.99 0-7.7-.708-11.14-2.13-3.44-1.42-6.852-3.747-10.25-6.97v7.317h-17.25V15.21h17.25zM122.22 56.207c-5.373 0-9.837 1.9-13.39 5.698-3.553 3.8-5.327 8.667-5.327 14.61 0 5.985 1.804 10.905 5.422 14.77 3.618 3.86 8.068 5.793 13.354 5.793 5.456 0 9.984-1.9 13.578-5.697 3.595-3.8 5.395-8.775 5.395-14.93 0-6.026-1.8-10.906-5.395-14.642-3.594-3.732-8.14-5.6-13.638-5.6m18.268-14.26h17.378v69.26h-17.378v-7.318c-3.393 3.223-6.794 5.55-10.207 6.97-3.412 1.422-7.11 2.13-11.093 2.13-8.944 0-16.682-3.466-23.212-10.406-6.526-6.938-9.79-15.568-9.79-25.877 0-10.694 3.16-19.46 9.474-26.294 6.317-6.83 13.987-10.25 23.017-10.25 4.156 0 8.054.79 11.7 2.36 3.645 1.567 7.015 3.922 10.11 7.06V41.95zM163.164 41.95h14.896v8.72c1.615-3.44 3.757-6.05 6.43-7.832 2.673-1.783 5.602-2.673 8.785-2.673 2.25 0 4.604.594 7.066 1.784l-5.41 14.958c-2.037-1.018-3.712-1.53-5.028-1.53-2.675 0-4.934 1.658-6.78 4.965-1.847 3.312-2.77 9.805-2.77 19.483l.064 3.372v28.01h-17.252v-69.26zM70.624 138.855c-5.406 0-9.89 1.842-13.453 5.532-3.56 3.69-5.34 8.508-5.34 14.46 0 6.076 1.78 10.99 5.34 14.74 3.564 3.75 8.048 5.626 13.454 5.626 5.238 0 9.65-1.912 13.23-5.72 3.586-3.816 5.376-8.676 5.376-14.585 0-5.867-1.758-10.676-5.28-14.427-3.52-3.75-7.96-5.625-13.326-5.625m-18.04-14.083v7.547c3.1-3.103 6.455-5.43 10.056-6.98 3.604-1.55 7.462-2.327 11.568-2.327 8.927 0 16.51 3.374 22.753 10.124 6.248 6.746 9.37 15.4 9.37 25.962 0 10.18-3.227 18.696-9.68 25.548-6.456 6.852-14.104 10.28-22.947 10.28-3.938 0-7.605-.703-11-2.106-3.394-1.405-6.768-3.7-10.12-6.885v32.246H35.55v-93.41h17.036z" fill="#fff"/><path d="M70.624 138.855c-5.406 0-9.89 1.842-13.453 5.532-3.56 3.69-5.34 8.508-5.34 14.46 0 6.076 1.78 10.99 5.34 14.74 3.564 3.75 8.048 5.626 13.454 5.626 5.238 0 9.65-1.912 13.23-5.72 3.586-3.816 5.376-8.676 5.376-14.585 0-5.867-1.758-10.676-5.28-14.427-3.52-3.75-7.96-5.625-13.326-5.625zm-18.04-14.083v7.547c3.1-3.103 6.455-5.43 10.056-6.98 3.604-1.55 7.462-2.327 11.568-2.327 8.927 0 16.51 3.374 22.753 10.124 6.248 6.746 9.37 15.4 9.37 25.962 0 10.18-3.227 18.696-9.68 25.548-6.456 6.852-14.104 10.28-22.947 10.28-3.938 0-7.605-.703-11-2.106-3.394-1.405-6.768-3.7-10.12-6.885v32.246H35.55v-93.41h17.036z" fill="none" stroke="#be1e2d" stroke-width="10.832"/><path d="M145.782 138.855c-5.304 0-9.714 1.875-13.217 5.626-3.51 3.752-5.266 8.56-5.266 14.428 0 5.91 1.787 10.77 5.353 14.586 3.574 3.807 7.97 5.72 13.19 5.72 5.39 0 9.86-1.878 13.408-5.627 3.55-3.75 5.326-8.664 5.326-14.74 0-5.952-1.775-10.77-5.325-14.46-3.546-3.69-8.04-5.532-13.468-5.532m18.042-14.083h17.16v68.396h-17.16v-7.23c-3.35 3.185-6.71 5.48-10.082 6.884-3.368 1.403-7.017 2.105-10.953 2.105-8.83 0-16.475-3.427-22.918-10.28-6.45-6.85-9.668-15.366-9.668-25.548 0-10.563 3.114-19.217 9.356-25.963 6.237-6.75 13.812-10.124 22.727-10.124 4.1 0 7.95.778 11.55 2.326 3.6 1.55 6.93 3.877 9.987 6.98v-7.548z" fill="#fff"/><path d="M145.782 138.855c-5.304 0-9.714 1.875-13.217 5.626-3.51 3.752-5.266 8.56-5.266 14.428 0 5.91 1.787 10.77 5.353 14.586 3.574 3.807 7.97 5.72 13.19 5.72 5.39 0 9.86-1.878 13.408-5.627 3.55-3.75 5.326-8.664 5.326-14.74 0-5.952-1.775-10.77-5.325-14.46-3.546-3.69-8.04-5.532-13.468-5.532zm18.042-14.083h17.16v68.396h-17.16v-7.23c-3.35 3.185-6.71 5.48-10.082 6.884-3.368 1.403-7.017 2.105-10.953 2.105-8.83 0-16.475-3.427-22.918-10.28-6.45-6.85-9.668-15.366-9.668-25.548 0-10.563 3.114-19.217 9.356-25.963 6.237-6.75 13.812-10.124 22.727-10.124 4.1 0 7.95.778 11.55 2.326 3.6 1.55 6.93 3.877 9.987 6.98v-7.548z" fill="none" stroke="#be1e2d" stroke-width="10.832"/><path d="M193.217 99.57h17.16v25.203h10.185v14.772h-10.184v53.623h-17.16v-53.623h-8.8v-14.772h8.8V99.57z" fill="#fff"/><path d="M193.217 99.57h17.16v25.203h10.185v14.772h-10.184v53.623h-17.16v-53.623h-8.8v-14.772h8.8V99.57z" fill="none" stroke="#be1e2d" stroke-width="10.832"/><path d="M225.454 124.773h17.16v68.396h-17.16v-68.397zm8.583-28.16c3.006 0 5.59 1.09 7.742 3.268 2.154 2.18 3.228 4.82 3.228 7.92 0 3.06-1.064 5.67-3.198 7.83-2.132 2.157-4.684 3.235-7.648 3.235-3.046 0-5.652-1.1-7.806-3.3-2.152-2.202-3.223-4.873-3.223-8.015 0-3.02 1.06-5.593 3.193-7.73 2.132-2.14 4.698-3.208 7.71-3.208" fill="#fff"/><path d="M225.454 124.773h17.16v68.396h-17.16v-68.397zm8.583-28.16c3.006 0 5.59 1.09 7.742 3.268 2.154 2.18 3.228 4.82 3.228 7.92 0 3.06-1.064 5.67-3.198 7.83-2.132 2.157-4.684 3.235-7.648 3.235-3.046 0-5.652-1.1-7.806-3.3-2.152-2.202-3.223-4.873-3.223-8.015 0-3.02 1.06-5.593 3.193-7.73 2.132-2.14 4.698-3.208 7.71-3.208z" fill="none" stroke="#be1e2d" stroke-width="10.832"/><path d="M317.967 138.606l-14.286 7.855c-2.692-2.806-5.34-4.755-7.964-5.844-2.62-1.088-5.694-1.635-9.22-1.635-6.422 0-11.61 1.915-15.58 5.744-3.965 3.828-5.942 8.738-5.942 14.718 0 5.815 1.906 10.565 5.726 14.248 3.816 3.684 8.83 5.522 15.043 5.522 7.68 0 13.656-2.62 17.938-7.858l13.53 9.267c-7.335 9.54-17.685 14.307-31.05 14.307-12.033 0-21.45-3.562-28.26-10.685-6.81-7.127-10.216-15.466-10.216-25.02 0-6.62 1.656-12.72 4.965-18.293 3.312-5.572 7.93-9.956 13.86-13.138 5.93-3.184 12.567-4.78 19.898-4.78 6.792 0 12.89 1.354 18.295 4.06 5.405 2.7 9.823 6.543 13.264 11.534" fill="#fff"/><path d="M317.967 138.606l-14.286 7.855c-2.692-2.806-5.34-4.755-7.964-5.844-2.62-1.088-5.694-1.635-9.22-1.635-6.422 0-11.61 1.915-15.58 5.744-3.965 3.828-5.942 8.738-5.942 14.718 0 5.815 1.906 10.565 5.726 14.248 3.816 3.684 8.83 5.522 15.043 5.522 7.68 0 13.656-2.62 17.938-7.858l13.53 9.267c-7.335 9.54-17.685 14.307-31.05 14.307-12.033 0-21.45-3.562-28.26-10.685-6.81-7.127-10.216-15.466-10.216-25.02 0-6.62 1.656-12.72 4.965-18.293 3.312-5.572 7.93-9.956 13.86-13.138 5.93-3.184 12.567-4.78 19.898-4.78 6.792 0 12.89 1.354 18.295 4.06 5.405 2.7 9.823 6.543 13.264 11.534z" fill="none" stroke="#be1e2d" stroke-width="10.832"/><path d="M353.848 139.17c-5.333 0-9.768 1.856-13.316 5.564-3.552 3.706-5.32 8.453-5.32 14.24 0 5.95 1.752 10.767 5.255 14.454 3.51 3.687 7.944 5.532 13.316 5.532 5.373 0 9.843-1.867 13.41-5.593 3.567-3.732 5.358-8.528 5.358-14.394 0-5.87-1.757-10.637-5.26-14.304-3.503-3.67-7.985-5.5-13.442-5.5m-.285-16.157c6.455 0 12.52 1.614 18.2 4.84 5.676 3.23 10.114 7.606 13.296 13.14 3.18 5.534 4.776 11.504 4.776 17.915 0 6.454-1.603 12.487-4.808 18.106-3.208 5.612-7.577 10-13.11 13.168-5.53 3.165-11.628 4.745-18.29 4.745-9.805 0-18.176-3.49-25.112-10.465-6.934-6.98-10.405-15.454-10.405-25.428 0-10.687 3.92-19.59 11.754-26.715 6.876-6.203 14.777-9.307 23.7-9.307" fill="#fff"/><path d="M353.848 139.17c-5.333 0-9.768 1.856-13.316 5.564-3.552 3.706-5.32 8.453-5.32 14.24 0 5.95 1.752 10.767 5.255 14.454 3.51 3.687 7.944 5.532 13.316 5.532 5.373 0 9.843-1.867 13.41-5.593 3.567-3.732 5.358-8.528 5.358-14.394 0-5.87-1.757-10.637-5.26-14.304-3.503-3.67-7.985-5.5-13.442-5.5zm-.285-16.157c6.455 0 12.52 1.614 18.2 4.84 5.676 3.23 10.114 7.606 13.296 13.14 3.18 5.534 4.776 11.504 4.776 17.915 0 6.454-1.603 12.487-4.808 18.106-3.208 5.612-7.577 10-13.11 13.168-5.53 3.165-11.628 4.745-18.29 4.745-9.805 0-18.176-3.49-25.112-10.465-6.934-6.98-10.405-15.454-10.405-25.428 0-10.687 3.92-19.59 11.754-26.715 6.876-6.203 14.777-9.307 23.7-9.307z" fill="none" stroke="#be1e2d" stroke-width="10.832"/><path d="M69.88 138.26c-5.407 0-9.89 1.84-13.454 5.532-3.562 3.69-5.34 8.51-5.34 14.458 0 6.078 1.778 10.99 5.34 14.742 3.564 3.748 8.047 5.627 13.455 5.627 5.237 0 9.65-1.91 13.23-5.723 3.584-3.817 5.377-8.677 5.377-14.587 0-5.863-1.76-10.672-5.28-14.424-3.522-3.75-7.963-5.625-13.326-5.625M51.84 124.18v7.544c3.102-3.103 6.455-5.427 10.057-6.98 3.606-1.55 7.46-2.325 11.568-2.325 8.927 0 16.51 3.372 22.755 10.12 6.245 6.75 9.366 15.402 9.366 25.963 0 10.18-3.226 18.697-9.68 25.548-6.455 6.857-14.102 10.283-22.945 10.283-3.94 0-7.607-.704-11-2.107-3.395-1.404-6.768-3.7-10.122-6.885v32.246H34.802V124.18h17.036z" fill="#fff"/><path d="M69.88 138.26c-5.407 0-9.89 1.84-13.454 5.532-3.562 3.69-5.34 8.51-5.34 14.458 0 6.078 1.778 10.99 5.34 14.742 3.564 3.748 8.047 5.627 13.455 5.627 5.237 0 9.65-1.91 13.23-5.723 3.584-3.817 5.377-8.677 5.377-14.587 0-5.863-1.76-10.672-5.28-14.424-3.522-3.75-7.963-5.625-13.326-5.625zM51.84 124.18v7.544c3.102-3.103 6.455-5.427 10.057-6.98 3.606-1.55 7.46-2.325 11.568-2.325 8.927 0 16.51 3.372 22.755 10.12 6.245 6.75 9.366 15.402 9.366 25.963 0 10.18-3.226 18.697-9.68 25.548-6.455 6.857-14.102 10.283-22.945 10.283-3.94 0-7.607-.704-11-2.107-3.395-1.404-6.768-3.7-10.122-6.885v32.246H34.802V124.18h17.036z" fill="none" stroke="#f6921e" stroke-width="5.416"/><path d="M145.037 138.26c-5.304 0-9.712 1.875-13.217 5.626-3.51 3.752-5.266 8.56-5.266 14.424 0 5.91 1.787 10.77 5.353 14.587 3.575 3.812 7.97 5.722 13.193 5.722 5.388 0 9.858-1.88 13.408-5.628 3.548-3.75 5.325-8.664 5.325-14.742 0-5.95-1.777-10.768-5.325-14.458-3.55-3.69-8.042-5.53-13.47-5.53m18.04-14.083h17.162v68.392h-17.16v-7.23c-3.35 3.184-6.712 5.48-10.083 6.884-3.368 1.403-7.017 2.107-10.95 2.107-8.833 0-16.478-3.426-22.918-10.282-6.453-6.85-9.67-15.367-9.67-25.547 0-10.56 3.113-19.214 9.354-25.962 6.238-6.748 13.813-10.12 22.728-10.12 4.103 0 7.95.775 11.55 2.323 3.6 1.554 6.933 3.878 9.987 6.98v-7.544z" fill="#fff"/><path d="M145.037 138.26c-5.304 0-9.712 1.875-13.217 5.626-3.51 3.752-5.266 8.56-5.266 14.424 0 5.91 1.787 10.77 5.353 14.587 3.575 3.812 7.97 5.722 13.193 5.722 5.388 0 9.858-1.88 13.408-5.628 3.548-3.75 5.325-8.664 5.325-14.742 0-5.95-1.777-10.768-5.325-14.458-3.55-3.69-8.042-5.53-13.47-5.53zm18.042-14.08h17.16v68.392h-17.16v-7.23c-3.35 3.184-6.712 5.48-10.083 6.884-3.368 1.403-7.017 2.107-10.95 2.107-8.833 0-16.478-3.426-22.918-10.282-6.453-6.85-9.67-15.367-9.67-25.547 0-10.56 3.113-19.214 9.354-25.962 6.238-6.748 13.813-10.12 22.728-10.12 4.103 0 7.95.775 11.55 2.323 3.6 1.554 6.933 3.878 9.987 6.98v-7.544z" fill="none" stroke="#f6921e" stroke-width="5.416"/><path d="M192.47 98.973h17.163v25.206h10.182v14.773h-10.182v53.618H192.47v-53.617h-8.796V124.18h8.797V98.972z" fill="#fff"/><path d="M192.47 98.973h17.163v25.206h10.182v14.773h-10.182v53.618H192.47v-53.617h-8.796V124.18h8.797V98.972z" fill="none" stroke="#f6921e" stroke-width="5.416"/><path d="M224.71 124.18h17.16v68.392h-17.16V124.18zm8.583-28.163c3.008 0 5.588 1.09 7.74 3.27 2.153 2.18 3.23 4.82 3.23 7.92 0 3.06-1.064 5.67-3.196 7.828-2.133 2.157-4.682 3.237-7.65 3.237-3.046 0-5.65-1.102-7.803-3.302-2.154-2.198-3.228-4.872-3.228-8.013 0-3.02 1.063-5.594 3.195-7.733 2.134-2.137 4.698-3.207 7.713-3.207" fill="#fff"/><path d="M224.71 124.18h17.16v68.392h-17.16V124.18zm8.583-28.163c3.008 0 5.588 1.09 7.74 3.27 2.153 2.18 3.23 4.82 3.23 7.92 0 3.06-1.064 5.67-3.196 7.828-2.133 2.157-4.682 3.237-7.65 3.237-3.046 0-5.65-1.102-7.803-3.302-2.154-2.198-3.228-4.872-3.228-8.013 0-3.02 1.063-5.594 3.195-7.733 2.134-2.137 4.698-3.207 7.713-3.207z" fill="none" stroke="#f6921e" stroke-width="5.416"/><path d="M317.22 138.01l-14.288 7.856c-2.687-2.807-5.337-4.757-7.96-5.845-2.626-1.086-5.7-1.634-9.22-1.634-6.423 0-11.615 1.914-15.58 5.742-3.966 3.83-5.945 8.74-5.945 14.718 0 5.816 1.904 10.567 5.725 14.248 3.82 3.687 8.832 5.524 15.046 5.524 7.68 0 13.66-2.622 17.934-7.86l13.534 9.268c-7.337 9.538-17.685 14.306-31.055 14.306-12.028 0-21.443-3.562-28.254-10.686-6.81-7.125-10.214-15.467-10.214-25.02 0-6.617 1.652-12.72 4.963-18.29 3.31-5.572 7.932-9.954 13.863-13.138 5.93-3.184 12.56-4.78 19.894-4.78 6.792 0 12.886 1.353 18.296 4.058 5.404 2.703 9.824 6.547 13.263 11.535" fill="#fff"/><path d="M317.22 138.01l-14.288 7.856c-2.687-2.807-5.337-4.757-7.96-5.845-2.626-1.086-5.7-1.634-9.22-1.634-6.423 0-11.615 1.914-15.58 5.742-3.966 3.83-5.945 8.74-5.945 14.718 0 5.816 1.904 10.567 5.725 14.248 3.82 3.687 8.832 5.524 15.046 5.524 7.68 0 13.66-2.622 17.934-7.86l13.534 9.268c-7.337 9.538-17.685 14.306-31.055 14.306-12.028 0-21.443-3.562-28.254-10.686-6.81-7.125-10.214-15.467-10.214-25.02 0-6.617 1.652-12.72 4.963-18.29 3.31-5.572 7.932-9.954 13.863-13.138 5.93-3.184 12.56-4.78 19.894-4.78 6.792 0 12.886 1.353 18.296 4.058 5.404 2.703 9.824 6.547 13.263 11.535z" fill="none" stroke="#f6921e" stroke-width="5.416"/><path d="M353.103 138.576c-5.333 0-9.77 1.855-13.314 5.562-3.554 3.71-5.324 8.454-5.324 14.24 0 5.95 1.752 10.767 5.258 14.454 3.507 3.688 7.942 5.533 13.315 5.533 5.374 0 9.843-1.864 13.41-5.593 3.567-3.732 5.357-8.528 5.357-14.393 0-5.87-1.757-10.637-5.262-14.305-3.502-3.67-7.983-5.5-13.442-5.5m-.283-16.156c6.453 0 12.52 1.613 18.197 4.84 5.677 3.228 10.114 7.605 13.298 13.138 3.183 5.534 4.777 11.504 4.777 17.912 0 6.46-1.603 12.493-4.81 18.11-3.207 5.61-7.576 10-13.11 13.164-5.53 3.167-11.626 4.75-18.287 4.75-9.807 0-18.18-3.49-25.112-10.467-6.935-6.978-10.407-15.456-10.407-25.43 0-10.684 3.92-19.587 11.755-26.713 6.874-6.202 14.775-9.305 23.7-9.305" fill="#fff"/><path d="M353.103 138.576c-5.333 0-9.77 1.855-13.314 5.562-3.554 3.71-5.324 8.454-5.324 14.24 0 5.95 1.752 10.767 5.258 14.454 3.507 3.688 7.942 5.533 13.315 5.533 5.374 0 9.843-1.864 13.41-5.593 3.567-3.732 5.357-8.528 5.357-14.393 0-5.87-1.757-10.637-5.262-14.305-3.502-3.67-7.983-5.5-13.442-5.5zm-.283-16.157c6.453 0 12.52 1.613 18.197 4.84 5.677 3.228 10.114 7.605 13.298 13.138 3.183 5.534 4.777 11.504 4.777 17.912 0 6.46-1.603 12.493-4.81 18.11-3.207 5.61-7.576 10-13.11 13.164-5.53 3.167-11.626 4.75-18.287 4.75-9.807 0-18.18-3.49-25.112-10.467-6.935-6.978-10.407-15.456-10.407-25.43 0-10.684 3.92-19.587 11.755-26.713 6.874-6.202 14.775-9.305 23.7-9.305z" fill="none" stroke="#f6921e" stroke-width="5.416"/><path d="M69.88 139.003c-5.407 0-9.89 1.842-13.454 5.53-3.562 3.69-5.34 8.508-5.34 14.462 0 6.078 1.778 10.99 5.34 14.742 3.564 3.747 8.047 5.626 13.455 5.626 5.237 0 9.65-1.912 13.23-5.72 3.584-3.818 5.377-8.678 5.377-14.587 0-5.867-1.76-10.676-5.28-14.427-3.522-3.753-7.963-5.627-13.326-5.627M51.84 124.92v7.546c3.102-3.103 6.455-5.426 10.057-6.98 3.606-1.548 7.46-2.327 11.568-2.327 8.927 0 16.51 3.376 22.755 10.123 6.245 6.748 9.366 15.402 9.366 25.965 0 10.18-3.226 18.696-9.68 25.548-6.455 6.854-14.102 10.282-22.945 10.282-3.94 0-7.607-.707-11-2.106-3.395-1.407-6.768-3.7-10.122-6.887v32.246H34.802v-93.41h17.036zM145.037 139.003c-5.304 0-9.712 1.874-13.217 5.626-3.51 3.75-5.266 8.56-5.266 14.426 0 5.91 1.787 10.77 5.353 14.586 3.575 3.81 7.97 5.72 13.193 5.72 5.388 0 9.858-1.878 13.408-5.625 3.548-3.75 5.325-8.664 5.325-14.742 0-5.954-1.777-10.77-5.325-14.462-3.55-3.688-8.042-5.53-13.47-5.53m18.04-14.083h17.162v68.396h-17.16v-7.23c-3.35 3.186-6.712 5.48-10.083 6.886-3.368 1.4-7.017 2.106-10.95 2.106-8.833 0-16.478-3.428-22.918-10.282-6.453-6.852-9.67-15.367-9.67-25.548 0-10.563 3.113-19.217 9.354-25.965 6.238-6.747 13.813-10.124 22.728-10.124 4.103 0 7.95.778 11.55 2.326 3.6 1.554 6.933 3.877 9.987 6.98v-7.546zM192.47 99.717h17.163v25.203h10.182v14.77h-10.182v53.626H192.47V139.69h-8.796v-14.77h8.797V99.717zM224.71 124.92h17.16v68.396h-17.16V124.92zm8.583-28.163c3.008 0 5.588 1.094 7.74 3.273 2.153 2.177 3.23 4.816 3.23 7.918 0 3.06-1.064 5.67-3.196 7.83-2.133 2.158-4.682 3.232-7.65 3.232-3.046 0-5.65-1.098-7.803-3.296-2.154-2.205-3.228-4.875-3.228-8.018 0-3.02 1.063-5.593 3.195-7.73 2.134-2.138 4.698-3.21 7.713-3.21M317.22 138.752l-14.288 7.855c-2.687-2.807-5.337-4.756-7.96-5.842-2.626-1.09-5.7-1.636-9.22-1.636-6.423 0-11.615 1.91-15.58 5.74-3.966 3.83-5.945 8.74-5.945 14.72 0 5.813 1.904 10.568 5.725 14.248 3.82 3.687 8.832 5.525 15.046 5.525 7.68 0 13.66-2.623 17.934-7.86l13.534 9.268c-7.337 9.54-17.685 14.307-31.055 14.307-12.028 0-21.443-3.564-28.254-10.685-6.81-7.128-10.214-15.468-10.214-25.02 0-6.623 1.652-12.72 4.963-18.296 3.31-5.572 7.932-9.953 13.863-13.136 5.93-3.188 12.56-4.78 19.894-4.78 6.792 0 12.886 1.354 18.296 4.058 5.404 2.7 9.824 6.543 13.263 11.534M353.103 139.314c-5.333 0-9.77 1.86-13.314 5.568-3.554 3.706-5.324 8.452-5.324 14.24 0 5.95 1.752 10.768 5.258 14.456 3.507 3.685 7.942 5.533 13.315 5.533 5.374 0 9.843-1.866 13.41-5.593 3.567-3.73 5.357-8.528 5.357-14.394 0-5.873-1.757-10.64-5.262-14.306-3.502-3.668-7.983-5.503-13.442-5.503m-.283-16.155c6.453 0 12.52 1.612 18.197 4.84 5.677 3.23 10.114 7.608 13.298 13.143 3.183 5.532 4.777 11.503 4.777 17.913 0 6.456-1.603 12.49-4.81 18.107-3.207 5.61-7.576 10.003-13.11 13.167-5.53 3.167-11.626 4.748-18.287 4.748-9.807 0-18.18-3.493-25.112-10.466-6.935-6.98-10.407-15.456-10.407-25.428 0-10.69 3.92-19.592 11.755-26.718 6.874-6.203 14.775-9.307 23.7-9.307" fill="#fff"/></svg>