<svg xmlns="http://www.w3.org/2000/svg" width="400" height="105.8"><path d="M0 105.8h400V0H0v105.8z" fill="#fff200"/><path d="M42.352 7.183v7.502H20.924v8.698H40.59v6.933H20.925v9.95h21.883v7.5H12V7.184H42.35zM56.278 47.77h-8.07V7.183h8.07V47.77zM97.77 40.832c.872 0 1.707-.086 2.503-.254.796-.173 1.494-.455 2.102-.855.608-.396 1.09-.938 1.45-1.62.358-.682.54-1.553.54-2.612 0-2.08-.59-3.57-1.762-4.46-1.177-.892-2.73-1.34-4.663-1.34h-9.718v11.142h9.55zm-.508-17.223c1.588 0 2.898-.378 3.92-1.138 1.025-.757 1.534-1.99 1.534-3.694 0-.95-.168-1.726-.51-2.33-.34-.608-.795-1.082-1.364-1.423-.57-.342-1.224-.577-1.96-.71-.742-.134-1.507-.2-2.303-.2H88.22v9.494h9.04zM98.4 7.18c1.928 0 3.693.174 5.28.515 1.593.34 2.958.898 4.095 1.68 1.138.775 2.02 1.806 2.643 3.093.624 1.29.938 2.882.938 4.776 0 2.047-.463 3.753-1.392 5.118-.93 1.36-2.302 2.478-4.122 3.353 2.502.717 4.37 1.98 5.6 3.776 1.23 1.8 1.847 3.974 1.847 6.51 0 2.048-.397 3.82-1.193 5.315-.796 1.498-1.867 2.72-3.212 3.67-1.345.946-2.882 1.647-4.604 2.102-1.724.45-3.497.683-5.316.683H79.297V7.18H98.4zM138.355 47.768v-4.094h-.168c-1.024 1.706-2.353 2.937-3.98 3.694-1.632.76-3.3 1.137-5.005 1.137-2.156 0-3.93-.282-5.313-.85-1.386-.57-2.472-1.377-3.268-2.42-.796-1.04-1.357-2.31-1.678-3.808-.322-1.494-.483-3.153-.483-4.97V18.38h8.072v16.6c0 2.423.38 4.235 1.137 5.423.756 1.197 2.1 1.793 4.034 1.793 2.196 0 3.79-.655 4.777-1.96.985-1.307 1.475-3.46 1.475-6.452V18.38h8.075v29.388h-7.675zM169.93 25.258c-.965-1.06-2.435-1.593-4.404-1.593-1.29 0-2.36.22-3.21.655-.856.436-1.54.977-2.05 1.62-.512.647-.87 1.33-1.077 2.047-.213.718-.334 1.365-.374 1.933h13.134c-.38-2.047-1.055-3.6-2.02-4.662m-9.12 15.458c1.21 1.177 2.952 1.765 5.226 1.765 1.628 0 3.03-.407 4.208-1.218 1.172-.816 1.894-1.68 2.16-2.59h7.103c-1.134 3.523-2.88 6.048-5.228 7.558-2.35 1.518-5.193 2.275-8.526 2.275-2.314 0-4.396-.37-6.255-1.106-1.856-.742-3.43-1.793-4.72-3.158-1.285-1.365-2.28-2.992-2.983-4.886-.702-1.894-1.05-3.98-1.05-6.255 0-2.195.36-4.242 1.08-6.136.72-1.895 1.742-3.534 3.068-4.918 1.325-1.384 2.91-2.47 4.75-3.267 1.834-.797 3.87-1.193 6.11-1.193 2.497 0 4.677.478 6.536 1.447 1.856.97 3.38 2.263 4.574 3.894 1.196 1.628 2.058 3.487 2.588 5.57.53 2.085.717 4.262.568 6.536h-21.204c.114 2.616.777 4.51 1.993 5.682M192.467 18.38v4.094h.17c1.022-1.706 2.352-2.945 3.98-3.725 1.63-.774 3.297-1.166 5.003-1.166 2.157 0 3.93.294 5.314.878 1.384.592 2.47 1.408 3.266 2.447.797 1.043 1.357 2.31 1.68 3.807.32 1.498.48 3.157.48 4.973v18.078h-8.07v-16.6c0-2.423-.38-4.235-1.137-5.427-.756-1.19-2.102-1.79-4.035-1.79-2.2 0-3.792.653-4.776 1.963-.985 1.306-1.475 3.46-1.475 6.45V47.77h-8.074V18.38h7.674zM263.69 7.183v7.502h-19.612v9.38h16.996V31h-16.996v16.767h-8.92V7.183h28.532zM276.306 47.77h-8.07V18.38h8.07v29.39zm-8.07-40.586h8.07v6.65h-8.07v-6.65zM300.435 25.258c-.964-1.06-2.435-1.593-4.404-1.593-1.29 0-2.36.22-3.214.655-.85.436-1.534.977-2.043 1.62-.514.647-.87 1.33-1.08 2.047-.21.718-.332 1.365-.37 1.933h13.128c-.375-2.047-1.05-3.6-2.015-4.662m-9.12 15.458c1.21 1.177 2.952 1.765 5.226 1.765 1.63 0 3.033-.407 4.21-1.218 1.172-.816 1.893-1.68 2.16-2.59h7.102c-1.134 3.523-2.88 6.048-5.228 7.558-2.35 1.518-5.192 2.275-8.53 2.275-2.31 0-4.39-.37-6.25-1.106-1.855-.742-3.43-1.793-4.718-3.158-1.29-1.365-2.282-2.992-2.984-4.886-.702-1.894-1.05-3.98-1.05-6.255 0-2.195.36-4.242 1.08-6.136.72-1.895 1.743-3.534 3.068-4.918 1.326-1.384 2.91-2.47 4.745-3.267 1.84-.797 3.875-1.193 6.11-1.193 2.506 0 4.682.478 6.537 1.447 1.86.97 3.385 2.263 4.577 3.894 1.195 1.628 2.057 3.487 2.587 5.57.53 2.085.718 4.262.57 6.536H289.32c.113 2.616.776 4.51 1.992 5.682M322.973 18.38v5.46h.113c.377-.915.89-1.758 1.534-2.535.643-.776 1.384-1.435 2.215-1.988.836-.55 1.726-.972 2.675-1.278.945-.303 1.93-.456 2.953-.456.533 0 1.117.094 1.765.286v7.502c-.38-.078-.836-.14-1.365-.2-.534-.055-1.043-.086-1.534-.086-1.48 0-2.73.247-3.753.74-1.024.49-1.848 1.166-2.475 2.02-.624.852-1.07 1.844-1.333 2.98-.268 1.142-.397 2.374-.397 3.695V47.77h-8.075V18.38h7.675zM345.082 18.38v5.46h.114c.38-.915.89-1.758 1.537-2.535.644-.776 1.38-1.435 2.216-1.988.834-.55 1.72-.972 2.674-1.278.945-.303 1.93-.456 2.953-.456.53 0 1.117.094 1.76.286v7.502c-.38-.078-.83-.14-1.364-.2-.53-.055-1.044-.086-1.534-.086-1.48 0-2.73.247-3.75.74-1.023.49-1.85 1.166-2.474 2.02-.624.852-1.07 1.844-1.338 2.98-.262 1.142-.396 2.374-.396 3.695V47.77h-8.07V18.38h7.67zM366 36.54c.228 1.118.616 2.122 1.165 3.013.55.894 1.28 1.603 2.188 2.133.91.53 2.047.792 3.412.792 1.365 0 2.51-.263 3.44-.792.925-.53 1.666-1.24 2.215-2.133.55-.89.937-1.895 1.165-3.012.227-1.117.34-2.262.34-3.438 0-1.177-.113-2.33-.34-3.467-.228-1.137-.616-2.14-1.165-3.012-.55-.87-1.29-1.58-2.216-2.133-.93-.55-2.074-.824-3.44-.824-1.364 0-2.5.275-3.41.824-.91.553-1.64 1.263-2.19 2.133-.548.87-.936 1.875-1.164 3.012-.227 1.137-.34 2.29-.34 3.467 0 1.176.113 2.32.34 3.44m-7.333-9.837c.722-1.91 1.745-3.54 3.07-4.886 1.326-1.346 2.918-2.39 4.773-3.126 1.86-.738 3.945-1.11 6.255-1.11 2.314 0 4.404.372 6.283 1.11 1.874.737 3.474 1.78 4.8 3.125 1.325 1.344 2.35 2.976 3.07 4.885.722 1.914 1.082 4.048 1.082 6.397 0 2.352-.36 4.474-1.082 6.364-.72 1.898-1.745 3.518-3.07 4.863-1.326 1.344-2.926 2.375-4.8 3.097-1.88.718-3.97 1.078-6.283 1.078-2.31 0-4.396-.36-6.255-1.078-1.855-.722-3.447-1.753-4.772-3.098-1.326-1.346-2.35-2.966-3.07-4.864-.72-1.89-1.08-4.012-1.08-6.364 0-2.35.36-4.483 1.08-6.397M111.114 98.094h-4.502V64.27h4.502v33.824zM121.82 73.605v3.882h.09c1.675-2.968 4.326-4.45 7.962-4.45 1.612 0 2.953.22 4.027.662 1.07.442 1.94 1.058 2.603 1.846.663.788 1.13 1.73 1.396 2.82.27 1.086.403 2.294.403 3.62v16.11h-4.027v-16.58c0-1.52-.443-2.72-1.326-3.6-.886-.884-2.102-1.33-3.647-1.33-1.23 0-2.298.192-3.196.572-.898.376-1.65.914-2.25 1.608-.6.694-1.052 1.51-1.35 2.44-.302.932-.45 1.948-.45 3.058v13.83h-4.028v-24.49h3.79zM147.754 89.4c.298 1.09.757 2.06 1.372 2.914.616.85 1.404 1.53 2.37 2.035.96.505 2.093.76 3.387.76 1.357 0 2.51-.27 3.455-.808.95-.533 1.722-1.24 2.322-2.106.6-.866 1.035-1.854 1.302-2.96.27-1.106.404-2.228.404-3.365 0-1.2-.142-2.36-.428-3.48-.282-1.123-.733-2.107-1.35-2.958-.615-.855-1.41-1.54-2.39-2.063-.978-.523-2.166-.785-3.554-.785-1.357 0-2.51.27-3.455.807-.95.538-1.707 1.248-2.275 2.13-.573.89-.98 1.898-1.232 3.035-.255 1.137-.38 2.302-.38 3.502 0 1.14.15 2.25.45 3.34m14.47 8.694v-3.317h-.093c-.666 1.357-1.706 2.337-3.125 2.937-1.424.6-2.985.898-4.69.898-1.898 0-3.55-.345-4.953-1.04-1.404-.693-2.573-1.627-3.502-2.795-.934-1.17-1.636-2.526-2.11-4.075-.475-1.545-.71-3.188-.71-4.925 0-1.734.228-3.377.686-4.926.46-1.548 1.153-2.897 2.087-4.05.93-1.153 2.098-2.066 3.502-2.745 1.407-.678 3.043-1.02 4.902-1.02.635 0 1.313.063 2.04.19.724.128 1.454.34 2.18.638.725.302 1.41.698 2.058 1.188.647.488 1.192 1.095 1.635 1.82h.094v-12.6h4.024v33.824h-4.024zM188.94 98.094V94.21h-.1c-.85 1.515-1.94 2.63-3.262 3.34-1.33.708-2.894 1.06-4.694 1.06-1.608 0-2.953-.21-4.024-.638-1.074-.423-1.945-1.03-2.607-1.82-.663-.792-1.126-1.73-1.396-2.823-.27-1.087-.4-2.295-.4-3.625V73.603h4.023V90.18c0 1.518.443 2.718 1.33 3.604.882.882 2.097 1.325 3.647 1.325 1.227 0 2.294-.19 3.196-.57.898-.38 1.65-.917 2.247-1.61.604-.695 1.05-1.51 1.353-2.44.298-.93.45-1.95.45-3.055V73.603h4.024v24.49h-3.788zM201.87 92.62c.38.62.878 1.106 1.494 1.47.615.366 1.31.624 2.082.78.773.158 1.57.237 2.392.237.63 0 1.294-.047 1.992-.138.694-.1 1.33-.27 1.918-.522.584-.255 1.063-.628 1.443-1.118.378-.486.57-1.11.57-1.87 0-1.044-.396-1.828-1.185-2.365-.788-.537-1.776-.973-2.96-1.306-1.185-.33-2.47-.632-3.863-.9-1.388-.27-2.675-.646-3.86-1.136-1.183-.49-2.172-1.177-2.956-2.063-.792-.88-1.188-2.113-1.188-3.693 0-1.232.274-2.286.827-3.173.557-.882 1.267-1.604 2.134-2.157.87-.55 1.85-.96 2.936-1.23 1.09-.268 2.17-.4 3.247-.4 1.388 0 2.667.117 3.835.352 1.165.238 2.2.65 3.102 1.23.898.585 1.62 1.377 2.157 2.373.533.992.85 2.23.945 3.718h-4.027c-.063-.788-.267-1.446-.612-1.968-.35-.518-.792-.937-1.33-1.25-.537-.32-1.125-.55-1.776-.69-.647-.142-1.302-.217-1.965-.217-.6 0-1.207.05-1.823.145-.617.094-1.178.263-1.683.498-.506.236-.918.553-1.232.945-.317.396-.474.91-.474 1.54 0 .696.248 1.272.738 1.727.486.46 1.11.84 1.867 1.14.76.3 1.61.554 2.56.758.95.204 1.894.42 2.844.64 1.006.22 1.995.49 2.96.803.96.32 1.81.734 2.556 1.256.74.522 1.34 1.18 1.8 1.965.46.793.686 1.773.686 2.938 0 1.486-.31 2.718-.92 3.698-.62.977-1.425 1.77-2.417 2.365-.996.605-2.117 1.02-3.365 1.26-1.247.235-2.486.353-3.717.353-1.36 0-2.655-.142-3.886-.428-1.232-.282-2.322-.75-3.267-1.396-.95-.648-1.706-1.5-2.275-2.558-.568-1.06-.882-2.345-.945-3.86h4.024c.03.884.235 1.633.615 2.248M232.943 73.605v3.553h-4.88v15.2c0 .478.04.855.12 1.14.08.283.226.507.45.664.22.157.53.26.922.31.396.043.91.07 1.54.07h1.848v3.553h-3.08c-1.042 0-1.936-.074-2.677-.215-.74-.142-1.337-.404-1.796-.78-.46-.38-.8-.915-1.02-1.613-.22-.694-.333-1.61-.333-2.745V77.158h-4.165v-3.553h4.165v-7.34h4.027v7.34h4.88zM241.042 73.605v5.16h.094c.98-1.987 2.18-3.454 3.6-4.403 1.423-.95 3.223-1.392 5.4-1.326V77.3c-1.612 0-2.98.22-4.122.662-1.137.443-2.05 1.086-2.745 1.94-.7.852-1.2 1.887-1.52 3.103-.312 1.216-.47 2.612-.47 4.196v10.895h-4.027v-24.49h3.79zM257.43 98.094h-4.026v-24.49h4.027v24.49zm-4.026-33.823h4.027v4.93h-4.026v-4.93zM276.85 86.275c-.82.176-1.682.314-2.58.427-.898.11-1.812.236-2.726.377-.913.14-1.737.37-2.462.685-.726.318-1.318.77-1.777 1.353-.455.584-.682 1.38-.682 2.392 0 .663.133 1.224.4 1.682.266.455.615.828 1.043 1.11.427.287.93.49 1.514.62.584.12 1.176.188 1.776.188 1.33 0 2.463-.18 3.412-.55.945-.36 1.72-.815 2.318-1.368.603-.556 1.043-1.152 1.33-1.803.28-.648.426-1.256.426-1.82v-4.123c-.506.377-1.168.655-1.992.828m5.64 12.337c-1.048 0-1.87-.29-2.49-.874-.616-.585-.922-1.542-.922-2.867-1.106 1.326-2.392 2.283-3.86 2.868-1.47.584-3.054.874-4.76.874-1.106 0-2.15-.118-3.13-.353-.976-.24-1.84-.632-2.58-1.185s-1.325-1.263-1.753-2.13c-.423-.87-.64-1.917-.64-3.153 0-1.388.24-2.525.71-3.407.475-.887 1.1-1.604 1.87-2.157.778-.553 1.66-.97 2.656-1.255.994-.286 2.013-.522 3.056-.71 1.106-.22 2.153-.388 3.153-.498.99-.114 1.866-.27 2.627-.474.757-.203 1.353-.505 1.796-.898.447-.396.666-.972.666-1.73 0-.885-.17-1.595-.5-2.132-.332-.534-.755-.95-1.277-1.232-.526-.286-1.106-.474-1.753-.568-.647-.094-1.286-.145-1.922-.145-1.702 0-3.125.325-4.258.972-1.138.65-1.757 1.875-1.85 3.67h-4.025c.063-1.513.377-2.79.945-3.835.573-1.043 1.33-1.886 2.275-2.533.95-.648 2.04-1.115 3.266-1.4 1.233-.283 2.53-.424 3.888-.424 1.106 0 2.2.078 3.294.235 1.086.162 2.074.483 2.957.973.885.49 1.595 1.177 2.132 2.06.537.886.804 2.04.804 3.458v12.6c0 .95.055 1.644.17 2.087.104.44.477.663 1.108.663.35 0 .76-.078 1.232-.24v3.126c-.694.412-1.655.616-2.887.616M293.384 98.094h-4.027V64.27h4.027v33.824z" fill="#231f20"/></svg>