<svg xmlns="http://www.w3.org/2000/svg" width="400" height="175.404"><g fill-rule="evenodd"><path d="M86.538 9.066c-29.84 14.33-47.087 33.255-50.47 36.808-3.382 3.552-15.898 18.267-19.957 25.37 0 0 18.732-20.985 37.304-34.24C66.498 27.67 88.59 18.772 93.507 26.258c15.156 23.08-81.385 60.44-81.385 60.44 55.097-3.6 109.2-45.687 117.353-69.79C137.63-7.2 108.382-1.43 86.538 9.065" fill="#ed1c24"/><path d="M91.3 137.81l12.423-41.856c5.586-18.837 24.555-31.396 44.822-31.396 20.266 0 31.782 12.56 26.193 31.396l-12.42 41.855h-15.242l12.416-41.856c3.285-11.066-3.76-18.837-14.673-18.837-10.915 0-22.574 7.77-25.855 18.837l-12.422 41.855H91.3M176.16 137.81l21.29-71.754h15.24L191.4 137.81h-15.24M270.203 78.61H240.41l-11.178 37.67c-1.997 6.73.976 8.97 8.772 8.97h18.36l-3.727 12.56H232.2c-15.59 0-21.937-8.974-17.723-23.176l19.738-66.516h15.242l-5.322 17.938h29.797l-3.73 12.553M289.826 114.188l-3.128-10.462 46.907-19.73c-3.867-4.486-7.49-6.88-16.842-6.88-15.76 0-30.21 10.168-34.558 24.814-4.346 14.65 4.07 24.813 19.832 24.813 18.013 0 27.517-9.267 34.54-22.42l14.928 1.646c-7.366 18.982-29.29 33.33-53.194 33.33-23.035 0-38.604-15.25-32.04-37.37 6.564-22.122 31.184-37.372 54.22-37.372 19.4 0 29.775 8.82 33.442 22.726l-64.106 26.904M353.71 137.81l31.045-104.64H400l-31.048 104.64H353.71" fill="#8f9396"/><path d="M6.537 88.593s-22.873 47.547 16.953 57.363c39.995 9.853 93.955-36.667 109.294-57.53 0 0-67.05 54.704-107.083 36.716-28.33-12.73-19.163-36.55-19.163-36.55M212.48 40.99c-.148 0-.3.013-.447.02-13.287-.41-55.323 19.462-71.756 40.908 26.953-21.24 43.574-23.108 45.62-23.618 2.04-.51 6.384-.766 10.728-.51 2.54.15 6.935 1.292 9.572 1.314 5.172.043 10.77-3.98 12.5-8.98 1.738-5.006-1.045-9.093-6.217-9.133M229.83 149.05l-14.712 25.203h5.375l8.442-15.61 7.676 16.12 16.122-16.375.382 15.865h5.374l-1.535-25.076-18.677 18.807-8.445-18.934zm52.477 1.018c11.333-1.69 21.54 2.423 22.726 9.153 1.183 6.734-7.092 13.602-18.425 15.294-11.33 1.688-21.537-2.423-22.723-9.155-1.186-6.733 7.092-13.6 18.422-15.292zm.504 2.976c8.686-1.27 16.512 1.82 17.418 6.877.908 5.058-5.435 10.22-14.122 11.49-8.684 1.268-16.51-1.822-17.418-6.878-.91-5.057 5.436-10.217 14.123-11.488zm37.47 22.36L309.788 150.2h5.375l7.037 17.4 15.99-17.4h5.757l-23.667 25.204zm21.365-1.28l6.396-24.05h4.993l-6.27 24.05h-5.118zm13.305 0l6.268-23.923h5.247l-5.63 21.11h11.774l-.645 2.815H354.95" fill="#ed1c24"/></g></svg>