<svg xmlns="http://www.w3.org/2000/svg" width="360" height="146.795"><defs><clipPath id="a"><path d="M192.648 217.163h80.11v32.677h-80.11v-32.677z"/></clipPath></defs><g clip-path="url(#a)" transform="matrix(4.5 0 0 -4.5 -865.7 1122.7)"><path d="M199.44 222.722h-2.93c-1.085 0-1.94.193-2.563.58-.622.39-.935.9-.935 1.533 0 .61.297 1.118.888 1.52.637.43 1.51.645 2.623.645h2.917v-.99h-2.648c-.494 0-.915-.124-1.265-.365-.35-.243-.524-.52-.524-.834 0-.318.166-.594.498-.824.332-.232.744-.348 1.238-.348h2.702v-.916zM206.298 224.88c0 .35-.178.64-.532.874-.354.235-.836.352-1.446.352-.555 0-1.014-.12-1.377-.36s-.545-.542-.545-.907c0-.42.184-.754.55-1.002.37-.25.844-.374 1.427-.374.663 0 1.156.13 1.48.39.295.237.443.58.443 1.027m2.083-.007c0-.745-.384-1.315-1.154-1.713-.71-.364-1.673-.546-2.89-.546-1.22 0-2.166.166-2.84.496-.78.38-1.17.974-1.17 1.78 0 .672.422 1.202 1.266 1.587.752.348 1.68.523 2.783.523 1.21 0 2.18-.188 2.91-.56.73-.372 1.096-.895 1.096-1.567M215.73 222.722h-1.87v2.816c0 .07-.025.135-.08.194-.054.058-.13.114-.228.17-.18.092-.385.14-.62.14h-1.828v-3.32h-1.87V227h3.578c.636 0 1.098-.023 1.385-.068.447-.065.807-.212 1.076-.436.306-.265.456-.554.456-.868v-2.906zM224.204 224.026c0-.364-.19-.674-.57-.932-.383-.26-.864-.387-1.447-.387h-4.612v.774h3.78c.27 0 .495.044.678.126.183.082.275.2.275.355 0 .358-.394.537-1.18.537h-1.93c-.413 0-.81.12-1.195.363-.384.242-.576.504-.576.785 0 .397.143.715.43.957.33.276.82.414 1.466.414h4.437v-.81h-3.953c-.153 0-.284-.046-.398-.136-.112-.09-.17-.194-.17-.31 0-.127.077-.235.224-.326.148-.092.325-.136.53-.136h2.084c.655 0 1.173-.12 1.555-.36.38-.24.57-.543.57-.912M232.064 222.722h-3.578c-.655 0-1.116.02-1.386.058-.448.065-.805.208-1.075.43-.305.253-.457.54-.457.866V227h1.87v-2.833c0-.138.097-.256.295-.356.197-.097.408-.147.632-.147h1.83V227h1.87v-4.278zM249.406 224.88c0 .35-.18.64-.532.874-.355.235-.837.352-1.446.352-.556 0-1.015-.12-1.38-.36-.36-.24-.543-.542-.543-.907 0-.42.183-.754.55-1.002.368-.25.845-.374 1.425-.374.665 0 1.158.13 1.48.39.296.237.446.58.446 1.027m2.082-.007c0-.745-.385-1.315-1.157-1.713-.707-.364-1.67-.546-2.888-.546-1.22 0-2.167.166-2.838.496-.78.38-1.17.974-1.17 1.78 0 .672.42 1.202 1.264 1.587.753.348 1.682.523 2.782.523 1.213 0 2.18-.188 2.912-.56.73-.372 1.096-.895 1.096-1.567M255.478 226.074h-1.057v-3.35h-1.855V227h1.856v-.596c.1.15.22.27.365.364.144.094.336.165.57.215.108.023.222.04.345.057.12.017.246.025.37.025.155 0 .3-.01.434-.032 0 0 1.018-.134 1.018-.81v-.763h-2.044v.614zM264.958 222.696h-3.28c-.8 0-1.49.212-2.08.632-.584.422-.878.907-.878 1.458 0 .6.32 1.12.96 1.556.64.44 1.357.658 2.145.658h3.12v-.885h-2.285c-.288 0-.532-.015-.734-.045-.202-.03-.388-.09-.557-.177-.315-.166-.473-.388-.473-.67h4.035v-.89h-4.035c0-.133.024-.244.074-.336.052-.09.153-.18.305-.272.155-.09.335-.15.548-.182.21-.03.468-.046.774-.046h2.36v-.8zM272.757 224.026c0-.364-.192-.674-.57-.932-.38-.26-.864-.387-1.445-.387h-4.614v.774h3.78c.27 0 .495.044.678.126.184.082.275.2.275.355 0 .358-.392.537-1.18.537h-1.93c-.41 0-.808.12-1.193.363-.385.242-.576.504-.576.785 0 .397.143.715.43.957.332.276.82.414 1.468.414h4.437v-.81h-3.955c-.152 0-.284-.046-.396-.136-.112-.09-.168-.194-.168-.31 0-.127.074-.235.222-.326.148-.092.324-.136.53-.136h2.085c.654 0 1.173-.12 1.554-.36.378-.24.57-.543.57-.912M236.058 222.722h-1.895v5.77h1.895v-5.77zM242.407 226.107h-1.816v-1.94c0-.176.1-.322.297-.437.224-.116.52-.174.887-.174h.552v-.833h-1.735c-.52 0-.963.114-1.33.346-.216.136-.355.288-.417.453-.063.165-.093.36-.093.586v1.997h-1.185V227h1.185v1.494h1.84V227h1.817v-.893z" fill="#8f9194"/><path d="M242.13 244.066c-.59-.36-.885-.768-.885-1.224 0-.503.392-.932 1.17-1.29.782-.36 1.71-.54 2.795-.54h18.56c3.45 0 6.175-.473 8.182-1.42.192-.09.373-.185.547-.28v5.293h-28.28c-.803 0-1.5-.18-2.09-.54" fill="#ed1d24"/><path d="M233.948 246.173c1.748 1.088 4.323 1.632 7.726 1.632H272.5v2.034h-79.852v-5.926c.593.426 1.267.836 2.034 1.23 3.376 1.73 7.14 2.595 11.3 2.595h23.206v-3.494h-18.812c-1.514 0-2.803-.06-3.863-.18-1.063-.12-2.043-.354-2.942-.702-1.65-.653-2.475-1.536-2.475-2.645h28.022v-3.528h-28.022c0-.523.127-.965.39-1.324.26-.358.792-.718 1.595-1.078.81-.36 1.768-.6 2.884-.718 1.113-.12 2.473-.18 4.09-.18h49.905c1.41-.064 2.603.1 3.564.427.964.323 1.45.792 1.45 1.403 0 1.413-2.072 2.12-6.218 2.12h-17.748c-2.165 0-4.26.48-6.29 1.438-2.024.96-3.036 1.995-3.036 3.104 0 1.57.753 2.832 2.266 3.79M205.203 230.725c-4.21 0-7.857.833-10.945 2.5-.594.32-1.13.648-1.61.986v-4.46h79.85v2.843c-.174-.102-.355-.202-.546-.3-2.007-1.024-4.545-1.535-7.614-1.566h-35.083v-.002h-24.052z" fill="#ed1d24"/><path d="M197.6 218.007h-1.355c-.33 0-.615.11-.858.327-.242.217-.363.47-.363.753 0 .31.133.58.396.805.265.226.56.34.885.34h1.29v-.457h-.944c-.118 0-.22-.008-.303-.024-.083-.015-.16-.045-.23-.09-.13-.086-.194-.2-.194-.346h1.666v-.462h-1.667c0-.068.01-.126.03-.173.022-.048.063-.095.127-.14.062-.048.137-.08.224-.095.087-.016.195-.024.322-.024h.973v-.413z" fill="#231f20"/><path d="M197.6 218.007h-1.355c-.33 0-.615.11-.858.327-.242.217-.363.47-.363.753 0 .31.133.58.396.805.265.226.56.34.885.34h1.29v-.457h-.944c-.118 0-.22-.008-.303-.024-.083-.015-.16-.045-.23-.09-.13-.086-.194-.2-.194-.346h1.666v-.462h-1.667c0-.068.01-.126.03-.173.022-.048.063-.095.127-.14.062-.048.137-.08.224-.095.087-.016.195-.024.322-.024h.973v-.413z" fill="none" stroke="#fff" stroke-width=".102"/><path d="M201.094 218.695c0-.188-.078-.35-.236-.482-.157-.134-.356-.2-.595-.2h-1.905v.4h1.56c.11 0 .205.022.28.064.077.043.113.104.113.184 0 .185-.16.278-.486.278h-.796c-.17 0-.334.063-.492.188-.16.126-.238.26-.238.405 0 .207.06.372.177.497.137.142.338.213.605.213h1.83v-.418h-1.63c-.062 0-.118-.024-.164-.07-.046-.047-.07-.1-.07-.16 0-.066.03-.122.093-.17.06-.046.133-.07.218-.07h.86c.27 0 .483-.062.64-.185.158-.124.236-.282.236-.472" fill="#231f20"/><path d="M201.094 218.695c0-.188-.078-.35-.236-.482-.157-.134-.356-.2-.595-.2h-1.905v.4h1.56c.11 0 .205.022.28.064.077.043.113.104.113.184 0 .185-.16.278-.486.278h-.796c-.17 0-.334.063-.492.188-.16.126-.238.26-.238.405 0 .207.06.372.177.497.137.142.338.213.605.213h1.83v-.418h-1.63c-.062 0-.118-.024-.164-.07-.046-.047-.07-.1-.07-.16 0-.066.03-.122.093-.17.06-.046.133-.07.218-.07h.86c.27 0 .483-.062.64-.185.158-.124.236-.282.236-.472z" fill="none" stroke="#fff" stroke-width=".102"/><path d="M203.947 219.143c0 .186-.076.337-.23.456-.154.117-.345.175-.574.175h-.545v-1.29h.6c.222 0 .402.06.54.183.14.12.21.278.21.475m.782.035c0-.354-.12-.634-.357-.843-.24-.21-.552-.314-.938-.314h-.837v-.806h-.783v3.018h1.544c.435 0 .776-.1 1.02-.3.233-.19.35-.442.35-.754" fill="#231f20"/><path d="M203.947 219.143c0 .186-.076.337-.23.456-.154.117-.345.175-.574.175h-.545v-1.29h.6c.222 0 .402.06.54.183.14.12.21.278.21.475zm.783.035c0-.354-.12-.634-.357-.843-.24-.21-.552-.314-.938-.314h-.837v-.806h-.783v3.018h1.544c.435 0 .776-.1 1.02-.3.233-.19.35-.442.35-.754z" fill="none" stroke="#fff" stroke-width=".102"/><path d="M207.915 218.007h-1.354c-.33 0-.614.11-.857.327-.243.217-.363.47-.363.753 0 .31.133.58.397.805.264.226.56.34.884.34h1.29v-.457h-.944c-.12 0-.22-.008-.303-.024-.083-.015-.16-.045-.23-.09-.13-.086-.194-.2-.194-.346h1.663v-.462h-1.664c0-.068.01-.126.03-.173.02-.048.062-.095.124-.14.064-.048.14-.08.226-.095.088-.016.195-.024.32-.024h.975v-.413z" fill="#231f20"/><path d="M207.915 218.007h-1.354c-.33 0-.614.11-.857.327-.243.217-.363.47-.363.753 0 .31.133.58.397.805.264.226.56.34.884.34h1.29v-.457h-.944c-.12 0-.22-.008-.303-.024-.083-.015-.16-.045-.23-.09-.13-.086-.194-.2-.194-.346h1.663v-.462h-1.664c0-.068.01-.126.03-.173.02-.048.062-.095.124-.14.064-.048.14-.08.226-.095.088-.016.195-.024.32-.024h.975v-.413z" fill="none" stroke="#fff" stroke-width=".102"/><path d="M211.278 218.02h-1.21c-.447 0-.8.1-1.058.3-.256.2-.385.465-.385.793 0 .315.122.578.367.785.262.222.623.333 1.08.333h1.206v-.51h-1.093c-.204 0-.378-.063-.522-.19-.144-.124-.215-.268-.215-.43 0-.165.067-.308.204-.427.137-.12.307-.18.51-.18h1.116v-.473z" fill="#231f20"/><path d="M211.278 218.02h-1.21c-.447 0-.8.1-1.058.3-.256.2-.385.465-.385.793 0 .315.122.578.367.785.262.222.623.333 1.08.333h1.206v-.51h-1.093c-.204 0-.378-.063-.522-.19-.144-.124-.215-.268-.215-.43 0-.165.067-.308.204-.427.137-.12.307-.18.51-.18h1.116v-.473z" fill="none" stroke="#fff" stroke-width=".102"/><path d="M212.8 218.02h-.767v2.21h.766v-2.21zm0 2.46h-.767v.524h.766v-.525z" fill="#231f20" stroke="#fff" stroke-width=".102"/><path d="M215.657 218.473v.43h-.978c-.092 0-.17-.02-.236-.06-.065-.042-.097-.095-.097-.163 0-.06.03-.11.094-.148.065-.04.137-.06.218-.06h1zm.793-.453h-2.075c-.234 0-.432.06-.597.18-.165.12-.247.274-.247.46 0 .19.076.35.226.477.15.126.337.19.56.19h1.34v.12c0 .036-.008.068-.024.095-.017.027-.044.06-.08.096-.053.046-.106.075-.16.088-.056.013-.134.02-.234.02h-1.433v.485h1.472c.27 0 .47-.016.603-.052s.248-.09.345-.16c.122-.093.204-.196.244-.306.04-.112.06-.253.06-.426v-1.266z" fill="#231f20"/><path d="M215.657 218.473v.43h-.978c-.092 0-.17-.02-.236-.06-.065-.042-.097-.095-.097-.163 0-.06.03-.11.094-.148.065-.04.137-.06.218-.06h1zm.793-.453h-2.075c-.234 0-.432.06-.597.18-.165.12-.247.274-.247.46 0 .19.076.35.226.477.15.126.337.19.56.19h1.34v.12c0 .036-.008.068-.024.095-.017.027-.044.06-.08.096-.053.046-.106.075-.16.088-.056.013-.134.02-.234.02h-1.433v.485h1.472c.27 0 .47-.016.603-.052s.248-.09.345-.16c.122-.093.204-.196.244-.306.04-.112.06-.253.06-.426v-1.266z" fill="none" stroke="#fff" stroke-width=".102"/><path d="M218.065 218.02h-.783v2.984h.783v-2.984zM219.658 218.02h-.765v2.21h.765v-2.21zm0 2.46h-.765v.524h.765v-.525z" fill="#231f20" stroke="#fff" stroke-width=".102"/><path d="M223.176 218.695c0-.188-.078-.35-.235-.482-.157-.134-.356-.2-.597-.2h-1.903v.4H222c.11 0 .204.022.28.064.076.043.113.104.113.184 0 .185-.162.278-.487.278h-.797c-.17 0-.335.063-.493.188-.158.126-.24.26-.24.405 0 .207.06.372.18.497.136.142.338.213.603.213h1.833v-.418h-1.63c-.064 0-.12-.024-.166-.07-.046-.047-.07-.1-.07-.16 0-.066.032-.122.092-.17.06-.046.134-.07.22-.07h.858c.27 0 .485-.062.643-.185.158-.124.236-.282.236-.472" fill="#231f20"/><path d="M223.176 218.695c0-.188-.078-.35-.235-.482-.157-.134-.356-.2-.597-.2h-1.903v.4H222c.11 0 .204.022.28.064.076.043.113.104.113.184 0 .185-.162.278-.487.278h-.797c-.17 0-.335.063-.493.188-.158.126-.24.26-.24.405 0 .207.06.372.18.497.136.142.338.213.603.213h1.833v-.418h-1.63c-.064 0-.12-.024-.166-.07-.046-.047-.07-.1-.07-.16 0-.066.032-.122.092-.17.06-.046.134-.07.22-.07h.858c.27 0 .485-.062.643-.185.158-.124.236-.282.236-.472z" fill="none" stroke="#fff" stroke-width=".102"/><path d="M225.607 219.77h-.75v-1.003c0-.09.04-.166.122-.226.093-.058.214-.088.365-.088h.23v-.43h-.718c-.214 0-.397.058-.55.178-.088.07-.145.15-.17.235-.027.085-.04.186-.04.303v1.033h-.488v.462h.488v.773h.76v-.773h.75v-.46z" fill="#231f20"/><path d="M225.607 219.77h-.75v-1.003c0-.09.04-.166.122-.226.093-.058.214-.088.365-.088h.23v-.43h-.718c-.214 0-.397.058-.55.178-.088.07-.145.15-.17.235-.027.085-.04.186-.04.303v1.033h-.488v.462h.488v.773h.76v-.773h.75v-.46z" fill="none" stroke="#fff" stroke-width=".102"/><path d="M228.304 218.473v.43h-.977c-.093 0-.172-.02-.235-.06-.066-.042-.1-.095-.1-.163 0-.06.033-.11.096-.148.062-.04.135-.06.216-.06h1zm.793-.453h-2.076c-.232 0-.43.06-.596.18-.165.12-.247.274-.247.46 0 .19.076.35.224.477.15.126.338.19.564.19h1.34v.12c0 .036-.008.068-.025.095-.018.027-.045.06-.082.096-.052.046-.105.075-.16.088-.056.013-.134.02-.233.02h-1.433v.485h1.47c.27 0 .472-.016.606-.052.133-.036.247-.09.344-.16.122-.093.203-.196.244-.306.04-.112.06-.253.06-.426v-1.266z" fill="#231f20"/><path d="M228.304 218.473v.43h-.977c-.093 0-.172-.02-.235-.06-.066-.042-.1-.095-.1-.163 0-.06.033-.11.096-.148.062-.04.135-.06.216-.06h1zm.793-.453h-2.076c-.232 0-.43.06-.596.18-.165.12-.247.274-.247.46 0 .19.076.35.224.477.15.126.338.19.564.19h1.34v.12c0 .036-.008.068-.025.095-.018.027-.045.06-.082.096-.052.046-.105.075-.16.088-.056.013-.134.02-.233.02h-1.433v.485h1.47c.27 0 .472-.016.606-.052.133-.036.247-.09.344-.16.122-.093.203-.196.244-.306.04-.112.06-.253.06-.426v-1.266z" fill="none" stroke="#fff" stroke-width=".102"/><path d="M232.605 218.695c0-.188-.08-.35-.237-.482-.158-.134-.356-.2-.595-.2h-1.905v.4h1.562c.11 0 .203.022.278.064.076.043.113.104.113.184 0 .185-.162.278-.485.278h-.798c-.17 0-.334.063-.49.188-.16.126-.24.26-.24.405 0 .207.06.372.178.497.137.142.338.213.605.213h1.83v-.418h-1.63c-.063 0-.118-.024-.164-.07-.046-.047-.07-.1-.07-.16 0-.066.032-.122.092-.17.06-.046.135-.07.22-.07h.86c.27 0 .482-.062.64-.185.157-.124.237-.282.237-.472" fill="#231f20"/><path d="M232.605 218.695c0-.188-.08-.35-.237-.482-.158-.134-.356-.2-.595-.2h-1.905v.4h1.562c.11 0 .203.022.278.064.076.043.113.104.113.184 0 .185-.162.278-.485.278h-.798c-.17 0-.334.063-.49.188-.16.126-.24.26-.24.405 0 .207.06.372.178.497.137.142.338.213.605.213h1.83v-.418h-1.63c-.063 0-.118-.024-.164-.07-.046-.047-.07-.1-.07-.16 0-.066.032-.122.092-.17.06-.046.135-.07.22-.07h.86c.27 0 .482-.062.64-.185.157-.124.237-.282.237-.472z" fill="none" stroke="#fff" stroke-width=".102"/><path d="M238.248 218.007h-1.353c-.33 0-.616.11-.86.327-.242.217-.362.47-.362.753 0 .31.132.58.396.805.263.226.56.34.885.34h1.287v-.457h-.944c-.118 0-.218-.008-.303-.024-.082-.015-.16-.045-.23-.09-.13-.086-.193-.2-.193-.346h1.665v-.462h-1.665c0-.068.01-.126.03-.173.02-.048.062-.095.125-.14.064-.048.14-.08.226-.095.086-.016.193-.024.32-.024h.974v-.413z" fill="#231f20"/><path d="M238.248 218.007h-1.353c-.33 0-.616.11-.86.327-.242.217-.362.47-.362.753 0 .31.132.58.396.805.263.226.56.34.885.34h1.287v-.457h-.944c-.118 0-.218-.008-.303-.024-.082-.015-.16-.045-.23-.09-.13-.086-.193-.2-.193-.346h1.665v-.462h-1.665c0-.068.01-.126.03-.173.02-.048.062-.095.125-.14.064-.048.14-.08.226-.095.086-.016.193-.024.32-.024h.974v-.413z" fill="none" stroke="#fff" stroke-width=".102"/><path d="M241.75 218.02h-.773v1.455c0 .037-.01.07-.033.1-.02.03-.053.06-.094.09-.074.047-.16.07-.255.07h-.755v-1.715h-.77v2.21h1.475c.263 0 .454-.01.572-.033.184-.034.333-.11.443-.226.127-.136.19-.285.19-.447v-1.503z" fill="#231f20"/><path d="M241.75 218.02h-.773v1.455c0 .037-.01.07-.033.1-.02.03-.053.06-.094.09-.074.047-.16.07-.255.07h-.755v-1.715h-.77v2.21h1.475c.263 0 .454-.01.572-.033.184-.034.333-.11.443-.226.127-.136.19-.285.19-.447v-1.503z" fill="none" stroke="#fff" stroke-width=".102"/><path d="M249.103 218.02h-.766v2.21h.766v-2.21zm0 2.46h-.766v.524h.766v-.525z" fill="#231f20" stroke="#fff" stroke-width=".102"/><path d="M252.62 218.695c0-.188-.077-.35-.235-.482-.156-.134-.356-.2-.597-.2h-1.903v.4h1.56c.11 0 .204.022.28.064.075.043.113.104.113.184 0 .185-.162.278-.487.278h-.795c-.17 0-.334.063-.494.188-.156.126-.235.26-.235.405 0 .207.057.372.177.497.137.142.338.213.604.213h1.832v-.418h-1.632c-.06 0-.117-.024-.164-.07-.046-.047-.07-.1-.07-.16 0-.066.03-.122.092-.17.062-.046.135-.07.22-.07h.86c.27 0 .485-.062.64-.185.16-.124.237-.282.237-.472" fill="#231f20"/><path d="M252.62 218.695c0-.188-.077-.35-.235-.482-.156-.134-.356-.2-.597-.2h-1.903v.4h1.56c.11 0 .204.022.28.064.075.043.113.104.113.184 0 .185-.162.278-.487.278h-.795c-.17 0-.334.063-.494.188-.156.126-.235.26-.235.405 0 .207.057.372.177.497.137.142.338.213.604.213h1.832v-.418h-1.632c-.06 0-.117-.024-.164-.07-.046-.047-.07-.1-.07-.16 0-.066.03-.122.092-.17.062-.046.135-.07.22-.07h.86c.27 0 .485-.062.64-.185.16-.124.237-.282.237-.472z" fill="none" stroke="#fff" stroke-width=".102"/><path d="M247.246 218.695c0-.188-.078-.35-.235-.482-.157-.134-.356-.2-.595-.2h-1.905v.4h1.56c.11 0 .205.022.28.064.075.043.113.104.113.184 0 .185-.16.278-.486.278h-.797c-.17 0-.334.063-.492.188-.16.126-.238.26-.238.405 0 .207.058.372.177.497.138.142.338.213.604.213h1.832v-.418h-1.63c-.063 0-.118-.024-.165-.07-.045-.047-.07-.1-.07-.16 0-.066.03-.122.093-.17.06-.046.134-.07.22-.07h.86c.27 0 .483-.062.64-.185.158-.124.236-.282.236-.472" fill="#231f20"/><path d="M247.246 218.695c0-.188-.078-.35-.235-.482-.157-.134-.356-.2-.595-.2h-1.905v.4h1.56c.11 0 .205.022.28.064.075.043.113.104.113.184 0 .185-.16.278-.486.278h-.797c-.17 0-.334.063-.492.188-.16.126-.238.26-.238.405 0 .207.058.372.177.497.138.142.338.213.604.213h1.832v-.418h-1.63c-.063 0-.118-.024-.165-.07-.045-.047-.07-.1-.07-.16 0-.066.03-.122.093-.17.06-.046.134-.07.22-.07h.86c.27 0 .483-.062.64-.185.158-.124.236-.282.236-.472z" fill="none" stroke="#fff" stroke-width=".102"/><path d="M255.052 219.77h-.75v-1.003c0-.09.042-.166.123-.226.092-.058.214-.088.366-.088h.23v-.43h-.717c-.215 0-.397.058-.55.178-.088.07-.145.15-.17.235-.028.085-.04.186-.04.303v1.033h-.49v.462h.49v.773h.76v-.773h.75v-.46z" fill="#231f20"/><path d="M255.052 219.77h-.75v-1.003c0-.09.042-.166.123-.226.092-.058.214-.088.366-.088h.23v-.43h-.717c-.215 0-.397.058-.55.178-.088.07-.145.15-.17.235-.028.085-.04.186-.04.303v1.033h-.49v.462h.49v.773h.76v-.773h.75v-.46z" fill="none" stroke="#fff" stroke-width=".102"/><path d="M258.198 218.007h-1.353c-.33 0-.615.11-.858.327-.242.217-.364.47-.364.753 0 .31.132.58.397.805.265.226.56.34.885.34h1.287v-.457h-.942c-.12 0-.22-.008-.303-.024-.082-.015-.16-.045-.23-.09-.13-.086-.193-.2-.193-.346h1.665v-.462h-1.666c0-.068.01-.126.03-.173.02-.048.06-.095.124-.14.063-.048.138-.08.226-.095.086-.016.195-.024.32-.024h.974v-.413z" fill="#231f20"/><path d="M258.198 218.007h-1.353c-.33 0-.615.11-.858.327-.242.217-.364.47-.364.753 0 .31.132.58.397.805.265.226.56.34.885.34h1.287v-.457h-.942c-.12 0-.22-.008-.303-.024-.082-.015-.16-.045-.23-.09-.13-.086-.193-.2-.193-.346h1.665v-.462h-1.666c0-.068.01-.126.03-.173.02-.048.06-.095.124-.14.063-.048.138-.08.226-.095.086-.016.195-.024.32-.024h.974v-.413z" fill="none" stroke="#fff" stroke-width=".102"/><path d="M263.148 218.02h-.75v1.384c0 .054-.005.096-.02.127-.017.033-.046.067-.09.1-.045.037-.09.062-.134.078-.044.015-.095.023-.154.023h-.55v-1.71h-.76v1.725h-.888v-1.725h-.783v2.21h3.08c.19 0 .344-.012.455-.04.11-.027.22-.084.327-.172.084-.07.15-.14.197-.208.045-.07.068-.143.068-.222v-1.568z" fill="#231f20"/><path d="M263.148 218.02h-.75v1.384c0 .054-.005.096-.02.127-.017.033-.046.067-.09.1-.045.037-.09.062-.134.078-.044.015-.095.023-.154.023h-.55v-1.71h-.76v1.725h-.888v-1.725h-.783v2.21h3.08c.19 0 .344-.012.455-.04.11-.027.22-.084.327-.172.084-.07.15-.14.197-.208.045-.07.068-.143.068-.222v-1.568z" fill="none" stroke="#fff" stroke-width=".102"/><path d="M266.004 218.473v.43h-.975c-.094 0-.172-.02-.236-.06-.065-.042-.098-.095-.098-.163 0-.06.032-.11.094-.148.065-.04.135-.06.216-.06h.998zm.796-.453h-2.076c-.233 0-.432.06-.596.18-.167.12-.248.274-.248.46 0 .19.075.35.225.477.148.126.336.19.562.19h1.337v.12c0 .036-.006.068-.023.095-.016.027-.043.06-.08.096-.052.046-.104.075-.162.088-.054.013-.13.02-.23.02h-1.434v.485h1.472c.27 0 .47-.016.605-.052.133-.036.247-.09.345-.16.12-.093.202-.196.242-.306.042-.112.063-.253.063-.426v-1.266z" fill="#231f20"/><path d="M266.004 218.473v.43h-.975c-.094 0-.172-.02-.236-.06-.065-.042-.098-.095-.098-.163 0-.06.032-.11.094-.148.065-.04.135-.06.216-.06h.998zm.796-.453h-2.076c-.233 0-.432.06-.596.18-.167.12-.248.274-.248.46 0 .19.075.35.225.477.148.126.336.19.562.19h1.337v.12c0 .036-.006.068-.023.095-.016.027-.043.06-.08.096-.052.046-.104.075-.162.088-.054.013-.13.02-.23.02h-1.434v.485h1.472c.27 0 .47-.016.605-.052.133-.036.247-.09.345-.16.12-.093.202-.196.242-.306.042-.112.063-.253.063-.426v-1.266z" fill="none" stroke="#fff" stroke-width=".102"/><path d="M270.307 218.695c0-.188-.078-.35-.237-.482-.156-.134-.355-.2-.596-.2h-1.903v.4h1.562c.11 0 .203.022.278.064.076.043.115.104.115.184 0 .185-.164.278-.488.278h-.797c-.17 0-.334.063-.492.188-.16.126-.238.26-.238.405 0 .207.06.372.176.497.137.142.34.213.606.213h1.83v-.418h-1.63c-.063 0-.117-.024-.164-.07-.047-.047-.07-.1-.07-.16 0-.066.032-.122.092-.17.06-.046.135-.07.22-.07h.86c.27 0 .484-.062.64-.185.16-.124.237-.282.237-.472" fill="#231f20"/><path d="M270.307 218.695c0-.188-.078-.35-.237-.482-.156-.134-.355-.2-.596-.2h-1.903v.4h1.562c.11 0 .203.022.278.064.076.043.115.104.115.184 0 .185-.164.278-.488.278h-.797c-.17 0-.334.063-.492.188-.16.126-.238.26-.238.405 0 .207.06.372.176.497.137.142.34.213.606.213h1.83v-.418h-1.63c-.063 0-.117-.024-.164-.07-.047-.047-.07-.1-.07-.16 0-.066.032-.122.092-.17.06-.046.135-.07.22-.07h.86c.27 0 .484-.062.64-.185.16-.124.237-.282.237-.472z" fill="none" stroke="#fff" stroke-width=".102"/><path d="M194.154 219.15c0-.324-.262-.586-.585-.586-.325 0-.587.262-.587.585 0 .322.262.585.586.585.322 0 .584-.263.584-.586M272.412 219.15c0-.324-.262-.586-.585-.586-.323 0-.585.262-.585.585 0 .322.262.585.585.585.323 0 .585-.263.585-.586" fill="#ed1d24"/></g></svg>