<svg xmlns="http://www.w3.org/2000/svg" width="400" height="581.138"><path d="M0 581.138V1.288C4.863 1 161.373-12.215 281.262 52.866c119.954 65.128 118.706 99.86 118.706 134.287 0 .464.016.96.032 1.424v392.56H0z" fill="#b81c20"/><path d="M52.362 58.81h2.928c137.15 0 290.557 72.664 290.557 126.417l.048 7.407v180.94s-57.433-15.167-96.244-40.3c-31.324-20.302-42.874-36.908-42.874-51.482 0-19.07 12.83-32.204 72.23-59.61 82.28-37.947-10.078-78.214-10.078-78.214 14.16 9.39 34.684 23.357 22.734 37.98-16.782 20.51-57.258 26.38-77.32 30.796-20.013 4.4-75.862 3.248-97.012 45.595-4.56 9.15-6.783 20.444-6.415 32.14-14.142-12.16-28.444-26.862-40.907-40.604 35.868-51.21 91.125-42.987 150.302-52.682 147.518-24.06-8.27-78.247-11.183-81.782-.207 2.56 64.105 30.828 45.883 44.794-15.182 11.63-142.943-20.59-202.648 23.422V58.81zM66.008 494.9l-3.52 9.07h7.024l-3.504-9.07zm-2.592-7.008h5.104l10.175 26.445h-5.232l-2.08-5.472H60.617l-2.144 5.472h-5.23l10.173-26.445zM90.044 487.9h5.04v17.086c0 1.472.11 2.527.383 3.15.256.61.672 1.09 1.264 1.44.61.37 1.313.56 2.176.56.864 0 1.616-.207 2.272-.59.64-.433 1.104-.96 1.312-1.553.256-.656.384-1.823.384-3.6V487.9h5.055v15.726c0 2.672-.16 4.527-.45 5.55-.32 1.04-.878 2.033-1.742 3.01-.832.927-1.792 1.647-2.896 2.095-1.104.48-2.368.72-3.84.72-1.935 0-3.615-.447-5.023-1.327-1.41-.88-2.417-2-3.025-3.328-.623-1.296-.91-3.552-.91-6.72V487.9zM118.783 487.9h14.606v4.96h-4.817v21.47h-5.103v-21.47h-4.687v-4.96zM156.872 492.134c-2.432 0-4.51.848-6.16 2.576-1.663 1.696-2.495 3.856-2.495 6.48 0 2.91 1.04 5.23 3.152 6.943 1.598 1.327 3.486 1.983 5.598 1.983 2.384 0 4.4-.88 6.11-2.59 1.665-1.713 2.48-3.84 2.497-6.385 0-2.51-.848-4.654-2.512-6.35-1.712-1.744-3.775-2.656-6.19-2.656m.047-4.91c3.744 0 6.96 1.343 9.647 4.08 2.688 2.686 4.03 5.982 4.03 9.885 0 3.855-1.326 7.12-3.982 9.79-2.64 2.672-5.855 4.032-9.647 4.032-3.968 0-7.28-1.392-9.903-4.128-2.608-2.75-3.903-5.983-3.903-9.79 0-2.528.608-4.832 1.823-6.976 1.216-2.11 2.896-3.76 5.024-5.023 2.16-1.232 4.446-1.872 6.91-1.872M185.51 487.9h4.926l6.095 18.43 6.225-18.43h4.847l4.447 26.43h-4.88l-2.832-16.703-5.615 16.702h-4.43l-5.553-16.703-2.88 16.702h-4.91l4.56-26.43zM236.13 492.134c-2.465 0-4.496.848-6.192 2.576-1.648 1.696-2.48 3.856-2.48 6.48 0 2.91 1.04 5.23 3.152 6.943 1.632 1.327 3.503 1.983 5.6 1.983 2.367 0 4.4-.88 6.094-2.59 1.68-1.713 2.512-3.84 2.512-6.385 0-2.51-.832-4.654-2.544-6.35-1.68-1.744-3.743-2.656-6.143-2.656m.015-4.91c3.76 0 6.99 1.343 9.663 4.08 2.688 2.686 4.03 5.982 4.03 9.885 0 3.855-1.326 7.12-3.998 9.79-2.624 2.672-5.855 4.032-9.63 4.032-3.968 0-7.264-1.392-9.888-4.128-2.623-2.75-3.92-5.983-3.92-9.79 0-2.528.625-4.832 1.84-6.976 1.2-2.11 2.88-3.76 5.024-5.023 2.144-1.232 4.43-1.872 6.88-1.872M259.595 487.9h14.622v4.96h-4.83v21.47h-5.105v-21.47h-4.687v-4.96zM290.638 498.227h1.583c1.6 0 2.705-.208 3.313-.624.608-.416.896-1.104.896-2.096 0-.56-.13-1.056-.433-1.52-.32-.4-.704-.72-1.216-.88-.48-.192-1.407-.304-2.767-.304h-1.375v5.424zm-5.008-10.335h5.328c2.895 0 4.99.256 6.24.784 1.215.528 2.223 1.376 2.99 2.607.736 1.2 1.12 2.608 1.12 4.288 0 1.73-.4 3.185-1.263 4.352-.832 1.168-2.08 2.064-3.744 2.64l6.256 11.775h-5.52l-5.934-11.2h-.464v11.2h-5.008v-26.445zM313.882 487.908h4.976v26.43h-4.976v-26.43zM330.742 487.9h15.982l-9.423 21.597h8.8v4.832h-16.11l9.375-21.47h-8.623v-4.96zM60.08 442.358c0 8.4 0 15.662-.464 19.534-.384 2.67-.848 4.67-2.672 5.055-.848.16-1.936.368-3.31.368-1.105 0-1.473.256-1.473.704 0 .67.657.943 1.824.943 3.696 0 9.487-.272 11.567-.272 5.424 0 11.584.513 25.438.513 3.488 0 4.288 0 4.96-2.352.463-1.84 1.183-8.094 1.183-10.174 0-.944 0-1.663-.72-1.663-.67 0-.83.352-1.007 1.36-.655 3.76-1.743 5.68-4.143 6.783-2.384 1.103-6.24 1.103-8.607 1.103-9.39 0-10.863-1.36-11.055-7.68-.08-2.67 0-11.134 0-14.222v-7.28c0-.527.112-.91.56-.91 2.208 0 11.31.095 13.04.27 3.39.353 4.686 1.745 5.134 3.585.272 1.2.272 2.383.368 3.295 0 .48.192.816.832.816.832 0 .832-1.008.832-1.728 0-.656.192-4.303.368-6.143.256-4.687.72-6.143.72-6.687 0-.56-.256-.768-.64-.768-.448 0-.816.48-1.44 1.216-.848.912-2.224 1.2-4.415 1.36-2.112.192-12.655.192-14.67.192-.577 0-.69-.352-.69-.992v-23.23c0-.623.193-.91.69-.91 1.807 0 11.454.19 13.006.367 4.59.545 5.503 1.632 6.16 3.28.43 1.12.543 2.672.543 3.296 0 .832.176 1.312.816 1.312.64 0 .848-.56.928-1.008.176-1.104.368-5.136.432-6.064.304-4.24.752-5.31.752-5.95 0-.45-.08-.85-.544-.85s-.992.29-1.488.4c-.72.177-2.192.353-3.92.53-1.76.095-19.997.095-22.94.095-2.56 0-8.352-.27-13.215-.27-1.392 0-2.032.175-2.032.8 0 .67.576.847 1.552.847 1.296 0 2.863.096 3.583.256 3.056.64 3.776 2.112 3.968 5.23.192 2.977.192 5.505.192 19.455v16.19zM155.09 408.94c2.768-4.03 4.608-6.606 6.688-7.15 1.31-.4 2.4-.56 3.31-.56.93 0 1.473-.288 1.473-.848 0-.528-.623-.8-1.647-.8-3.39 0-7.15.272-8.975.272-1.76 0-5.615-.272-9.183-.272-1.295 0-1.92.272-1.92.8 0 .672.53.848 1.073.848.75 0 2.03 0 2.943.256.913.304 1.57 1.024 1.57 1.68 0 .72-.273 2.176-.993 3.472-1.392 2.575-9.84 15.326-12.494 19.373-3.568-6.238-7.71-12.957-11.663-20.284-.544-.992-.912-2.128-.912-2.656 0-.56.288-1.184 1.088-1.472.752-.288 1.936-.368 2.512-.368.8 0 1.344-.176 1.344-.848 0-.624-.544-.8-1.824-.8-3.392 0-8.543.272-9.807.272-4.32 0-11.758-.272-13.95-.272-1.2 0-1.84.176-1.84.736 0 .624.37.912.913.912.928 0 2.383.16 3.855.656 3.232.976 5.424 3.2 7.615 6.88l15.806 26.14-17.55 25.037c-3.12 4.432-4.848 6.16-7.536 6.91-1.36.37-2.735.45-3.39.45-.72 0-1.265.27-1.265.815 0 .56.447.848 1.36.848h1.567c1.44 0 5.967-.288 7.71-.288 2.288 0 8.08.288 8.624.288h1.632c1.216 0 1.856-.192 1.856-.848 0-.544-.56-.816-1.104-.816-.752 0-1.567-.08-2.11-.192-.817-.16-1.665-.736-1.745-1.552-.08-.99.367-2.4 1.263-3.87l13.598-21.934c4.225 6.895 9.456 15.982 14.495 24.973.64 1.2.288 2.015-.176 2.127-.85.16-1.28.448-1.28 1.008 0 .624.735.816 3.103.912 7.07.192 14.318.192 16.526.192h2.75c1.01 0 1.76-.288 1.76-.944 0-.544-.59-.72-1.215-.72-.816 0-1.904-.08-3.472-.56-2.384-.736-3.775-1.84-5.327-3.84-2.288-2.96-17.182-27.82-20.078-32.315l15.022-21.646zM212.874 470.215c5.888 0 12.88-.64 16.526-2.095 1.552-.64 1.936-1.104 2.384-2.672.928-3.104 2.048-11.07 2.048-12.19 0-.72-.208-1.36-.848-1.36-.736 0-.928.368-1.2 1.823-.368 1.633-1.552 4.305-3.12 6.065-3.647 4.223-8.607 5.12-16.782 5.12-12.318 0-28.908-10.816-28.908-32.653 0-8.91 1.744-17.646 8.48-23.773 3.998-3.665 9.23-5.712 17.213-5.712 8.447 0 15.598 2.495 18.638 5.71 2.287 2.385 3.487 5.6 3.583 8.448 0 1.296.176 2.016.896 2.016.832 0 1.04-.72 1.12-2.112.176-1.824.08-6.91.256-9.903.176-3.232.464-4.32.464-5.04 0-.575-.384-1.023-1.376-1.12-2.736-.27-5.695-1.087-9.167-1.55-4.222-.545-7.63-.93-13.31-.93-13.662 0-22.397 3.665-29.004 9.728-8.8 8.08-10.72 18.91-10.72 25.165 0 8.88 2.385 19.182 11.376 27.053 8.35 7.247 18.894 9.982 31.452 9.982M251.314 442.358c0 8.4 0 15.662-.464 19.534-.35 2.67-.815 4.67-2.655 5.055-.832.16-1.92.368-3.312.368-1.104 0-1.456.256-1.456.704 0 .67.624.943 1.824.943 3.68 0 9.456-.272 11.568-.272 5.423 0 11.55.513 25.42.513 3.472 0 4.304 0 4.96-2.352.448-1.84 1.168-8.094 1.168-10.174 0-.944 0-1.663-.72-1.663-.64 0-.848.352-1.024 1.36-.624 3.76-1.712 5.68-4.11 6.783-2.4 1.103-6.257 1.103-8.624 1.103-9.36 0-10.847-1.36-11.023-7.68-.08-2.67 0-11.134 0-14.222v-7.28c0-.527.096-.91.544-.91 2.223 0 11.31.095 13.053.27 3.376.353 4.672 1.745 5.136 3.585.255 1.2.255 2.383.367 3.295 0 .48.16.816.816.816.832 0 .832-1.008.832-1.728 0-.656.176-4.303.352-6.143.287-4.687.735-6.143.735-6.687 0-.56-.288-.768-.655-.768-.432 0-.816.48-1.424 1.216-.864.912-2.224 1.2-4.416 1.36-2.112.192-12.686.192-14.686.192-.56 0-.655-.352-.655-.992v-23.23c0-.623.176-.91.656-.91 1.81 0 11.472.19 13.023.367 4.592.545 5.504 1.632 6.144 3.28.464 1.12.544 2.672.544 3.296 0 .832.193 1.312.817 1.312.655 0 .863-.56.927-1.008.208-1.104.368-5.136.464-6.064.272-4.24.736-5.31.736-5.95 0-.45-.096-.85-.544-.85-.448 0-1.008.29-1.488.4-.72.177-2.175.353-3.92.53-1.743.095-20.013.095-22.94.095-2.576 0-8.35-.27-13.23-.27-1.377 0-2.016.175-2.016.8 0 .67.56.847 1.583.847 1.263 0 2.815.096 3.583.256 3.024.64 3.743 2.112 3.935 5.23.176 2.977.176 5.505.176 19.455v16.19zM318.625 426.173c0-13.95 0-16.478.192-19.454.192-3.2.912-4.768 3.392-5.232 1.103-.176 2.59-.272 3.583-.272 1.087 0 1.63-.16 1.63-.832 0-.624-.623-.8-1.902-.8-3.6 0-10.286.256-12.494.256-2.448 0-8.24-.256-12.558-.256-1.36 0-2.032.176-2.032.8 0 .672.576.832 1.568.832 1.2 0 2.303.096 3.023.272 3.056.64 3.776 2.11 3.952 5.23.175 2.977.175 5.504.175 19.455v16.19c0 8.4 0 15.662-.448 19.517-.368 2.672-.816 4.672-2.656 5.072-.83.16-1.935.352-3.31.352-1.104 0-1.456.272-1.456.72 0 .656.64.944 1.808.944 3.695 0 9.486-.288 11.566-.288 7.455 0 13.503.512 26.733.512 4.768 0 5.216-.416 5.76-2.448.752-2.656 1.376-9.535 1.376-10.56 0-1.07-.08-1.55-.736-1.55-.736 0-.896.543-1.008 1.36-.176 1.775-1.28 4.32-2.383 5.52-2.29 2.494-5.873 2.574-10.736 2.574-7.15 0-9.535-.64-11.087-2.032-1.952-1.63-1.952-7.967-1.952-19.693v-16.19z" fill="#fff" fill-rule="evenodd"/></svg>