<svg xmlns="http://www.w3.org/2000/svg" width="400" height="135.624"><path d="M105.954.01s38.15-1.674 46.79 39.097c8.28 39.1-23.19 59.948-23.19 59.948L105.954.01zM84.01 27.937l12.007 51.76H53.783l30.226-51.76zM63.72 6.34L4.922 107.623S-9.156 80.81 10.305 48.79C29.768 16.767 63.72 6.34 63.72 6.34M40.117 102.035h61.7l2.896 16.757s-43.476 31.275-78.258 8.563l13.662-25.32z" fill="#eb232c"/><path d="M171.843 48.377V16.98h16.07v4.606h-10.405v7.95h9.754v4.607h-9.754v14.234h-5.665zM201.22 35.943c-1.297.922-2.872 1.842-4.248 3.015-.766.67-.89 1.842-.89 2.848 0 1.798.523 3.012 2.468 3.012 3.116 0 2.55-4.06 2.67-6.32v-2.555zm.73 12.433c-.364-.75-.408-1.59-.32-2.425h-.088c-.604.96-1.29 1.758-2.1 2.26-.773.5-1.62.796-2.508.796-4.252 0-6.114-2.22-6.114-7.076 0-5.4 3.686-6.698 7.814-8.456 2.226-.962 3.032-2.01 2.587-3.937-.242-1.046-1.05-1.21-2.467-1.21-2.39 0-2.793 1.294-2.755 3.43h-5.016c-.04-4.477 1.376-7.617 7.973-7.617 7.163 0 7.608 3.89 7.525 6.99v13.94c0 1.13.164 2.216.448 3.306h-4.978zM216.84 28.952h.076c.65-1.714 1.3-2.68 2.067-3.347 1.497-1.298 2.51-1.217 3.278-1.258v6.447c-2.916-.292-5.14.462-5.22 3.937V48.38h-5.26V24.766h5.06v4.186zM230.758 27.195h.075c1.18-2.596 3.322-2.972 5.022-3.056 1.945-.044 4.532.835 4.853 3.055h.087c1.01-2.05 2.668-3.056 5.258-3.056 3.885 0 5.582 2.51 5.582 5.023v19.215h-5.26v-15.95c0-2.137-.203-4.23-2.504-4.103-2.27.127-2.676 1.758-2.676 4.52V48.38h-5.26V32.132c0-2.09-.158-3.847-2.59-3.807-2.467.044-2.586 1.925-2.586 4.52V48.38h-5.26v-23.61h5.26v2.427zM266.404 35.943c-1.298.922-2.877 1.842-4.252 3.015-.77.67-.888 1.842-.888 2.848 0 1.798.523 3.012 2.47 3.012 3.112 0 2.545-4.06 2.67-6.32v-2.555zm.722 12.433c-.36-.75-.4-1.59-.315-2.425h-.085c-.607.96-1.295 1.758-2.102 2.26-.775.5-1.622.796-2.512.796-4.248 0-6.113-2.22-6.113-7.076 0-5.4 3.686-6.698 7.817-8.456 2.223-.962 3.032-2.01 2.59-3.937-.246-1.046-1.055-1.21-2.47-1.21-2.392 0-2.79 1.294-2.754 3.43h-5.012c-.05-4.477 1.37-7.617 7.972-7.617 7.155 0 7.606 3.89 7.525 6.99v13.94c0 1.13.162 2.216.445 3.306h-4.984zM285.58 32.97v-2.64c-.078-1.294-.688-2.005-1.82-2.005-2.027 0-2.027 2.385-1.984 5.276v5.568c-.12 4.602.4 5.44 1.983 5.652 1.62-.044 1.656-1.593 1.82-3.478v-2.174h5.26v2.174c0 4.94-1.98 7.664-7.205 7.664-4.65 0-7.325-2.556-7.12-8.835v-7.66c-.043-6.613 3.116-8.37 7.12-8.37 5.3 0 7.244 3.43 7.204 6.946v1.885h-5.26zM295.494 24.765h5.253v23.612h-5.253V24.765zm0-7.784h5.253v4.94h-5.253v-4.94zM315.846 35.943c-1.298.922-2.87 1.842-4.25 3.015-.763.67-.89 1.842-.89 2.848 0 1.798.526 3.012 2.466 3.012 3.12 0 2.55-4.06 2.674-6.32v-2.555zm.73 12.433c-.37-.75-.41-1.59-.323-2.425h-.086c-.605.96-1.293 1.758-2.102 2.26-.772.5-1.625.796-2.512.796-4.247 0-6.114-2.22-6.114-7.076 0-5.4 3.688-6.698 7.816-8.456 2.22-.962 3.035-2.01 2.59-3.937-.246-1.046-1.053-1.21-2.472-1.21-2.388 0-2.79 1.294-2.752 3.43h-5.015c-.044-4.477 1.376-7.617 7.972-7.617 7.16 0 7.608 3.89 7.524 6.99v13.94c0 1.13.165 2.216.448 3.306h-4.975zM346.754 33.516v-2.053c-.04-2.385-.65-3.136-2.75-3.136-2.63 0-2.508 2.09-2.508 4.226v.963h5.258zm-10.52-.63c-.248-5.565 2.513-8.748 7.69-8.748 7.325 0 8.088 3.937 8.088 10.384v3.18h-10.516v3.434c.04 3.098 1.174 3.682 2.75 3.682 1.942 0 2.508-1.465 2.427-4.44h5.264c.203 5.28-1.905 8.626-7.284 8.626-6.077 0-8.542-2.972-8.418-9.92v-6.2zM357.318 16.98h5.258v31.397h-5.258V16.98zM174.383 75.454l-8.377 21.1h10.54l-2.163-21.1zm-32.867 41.138l27.227-58.885h16.978l9.27 58.885h-16.623l-.795-7.768H160.95l-3.096 7.768h-16.338zM208.143 57.707h14.714l-3.267 21.43c3.634-4.337 7.3-6.626 12.257-6.626 9.76 0 13.344 6.626 11.55 18.403l-3.913 25.678H224.77l3.452-22.65c.653-4.256.234-8.016-3.94-8.016-4.527 0-6.238 3.353-7.076 8.83l-3.33 21.837h-14.71l8.977-58.883zM263.468 94.756c-1.234 8.097.847 11.612 4.596 11.612 3.96 0 6.903-3.515 8.135-11.612.958-6.3-.72-11.04-4.58-10.794-5.02 0-7.415 5.97-8.152 10.794m9.687-22.244c13.09 0 19.79 8.915 17.758 22.244-2.394 15.702-12.71 23.06-24.598 23.06-11.883 0-19.93-7.522-17.7-22.16 2.272-14.885 12.02-23.144 24.54-23.144M300.342 73.737h13.372l-1.327 8.67h.148c3.07-6.707 7.16-9.895 12.898-9.895.63 0 1.24.162 1.868.245l-2.592 17.01c-.966-.165-1.977-.492-2.97-.492-6.012 0-9.547 3.272-10.96 12.514l-2.258 14.8h-14.714l6.536-42.853zM331.75 73.737h13.37l-1.324 8.67h.14c3.077-6.707 7.165-9.895 12.897-9.895.64 0 1.25.162 1.873.245l-2.59 17.01c-.965-.165-1.98-.492-2.97-.492-6.014 0-9.553 3.272-10.97 12.514l-2.248 14.8h-14.714l6.536-42.853zM372.195 94.756c-1.23 8.097.85 11.612 4.596 11.612 3.967 0 6.907-3.515 8.14-11.612.96-6.3-.718-11.04-4.58-10.794-5.02 0-7.412 5.97-8.155 10.794m9.693-22.244c13.083 0 19.784 8.915 17.754 22.244-2.393 15.702-12.713 23.06-24.594 23.06-11.89 0-19.93-7.522-17.703-22.16 2.27-14.885 12.02-23.144 24.543-23.144" fill="#32449d"/></svg>