<svg xmlns="http://www.w3.org/2000/svg" width="399.997" height="141.309"><path d="M46.712 63.158c3.41.903 5.37 1.355 5.877 1.355 1.302 0 2.228-.232 2.777-.696.552-.467 1.017-1.135 1.403-2.01h2.002l.71 17.652H57.39c-1.866-4.066-3.794-7.096-5.782-9.093-3.59-3.494-8.263-5.238-14.014-5.238-5.844 0-10.987 2.034-15.422 6.118-4.43 4.082-6.65 10.807-6.65 20.17 0 7.73 2.21 13.764 6.63 18.104 4.42 4.345 9.877 6.517 16.373 6.517 1.1 0 2.39-.1 3.87-.288 1.486-.194 2.895-.488 4.23-.897 2.166-.66 3.517-1.22 4.047-1.7.536-.475.803-1.18.803-2.11V97.69c0-3.246-.497-5.26-1.492-6.06-.995-.79-3.167-1.286-6.517-1.476v-1.56h23.227v1.56c-2.255.135-3.752.474-4.498 1.024-1.244.87-1.867 2.672-1.867 5.403v16.51c0 .98-2.62 2.293-7.853 3.93-5.235 1.637-10.27 2.46-15.104 2.46-8.9 0-16.404-2.394-22.515-7.172C8.122 107.042 4.75 99.97 4.75 91.092c0-7.808 2.692-14.5 8.056-20.07 5.905-6.14 13.74-9.214 23.494-9.214 3.53 0 7.003.453 10.412 1.35zM82.49 80.36v26.213c0 1.86.278 3.347.842 4.465 1.097 2.075 3.113 3.115 6.048 3.115 2.018 0 3.994-.613 5.92-1.845 1.097-.682 2.21-1.62 3.34-2.826v-22.44c0-2.106-.445-3.483-1.338-4.14-.886-.658-2.665-1.05-5.34-1.19v-1.353h14.375v28.835c0 1.855.362 3.134 1.09 3.83.726.697 2.264 1.003 4.602.927v1.142c-1.63.412-2.832.718-3.604.92-.768.207-2.06.584-3.868 1.13-.773.24-2.47.835-5.077 1.76-.146 0-.236-.06-.26-.186-.035-.12-.045-.263-.045-.43v-6.593c-2.023 2.21-3.86 3.85-5.524 4.913-2.52 1.64-5.19 2.463-8.003 2.463-2.582 0-5.013-.852-7.3-2.545-2.31-1.67-3.467-4.473-3.467-8.41V86.833c0-2.168-.504-3.62-1.514-4.352-.656-.453-2.046-.783-4.183-.972v-1.15H82.49zM140.063 95.6c-3.41 1.034-6.23 2.18-8.455 3.438-4.273 2.428-6.408 5.19-6.408 8.275 0 2.482.89 4.313 2.673 5.488 1.15.764 2.447 1.153 3.868 1.153 1.96 0 3.84-.51 5.63-1.52 1.793-1.008 2.693-2.3 2.693-3.853V95.6zm-16.33 4.625c2.73-1.635 8.174-3.86 16.33-6.673v-3.485c0-2.786-.3-4.726-.888-5.81-1.012-1.832-3.104-2.75-6.276-2.75-1.514 0-2.955.354-4.317 1.065-1.362.74-2.05 1.748-2.05 3.034 0 .325.075.882.226 1.656.144.777.222 1.277.222 1.495 0 1.533-.552 2.6-1.647 3.196-.623.355-1.366.53-2.224.53-1.333 0-2.356-.4-3.07-1.208-.712-.803-1.067-1.698-1.067-2.68 0-1.91 1.28-3.912 3.844-6.002 2.568-2.09 6.328-3.136 11.286-3.136 5.75 0 9.655 1.724 11.7 5.164 1.094 1.884 1.64 4.63 1.64 8.233v16.428c0 1.58.124 2.67.36 3.273.385 1.066 1.188 1.6 2.4 1.6.688 0 1.25-.09 1.697-.286.443-.194 1.215-.658 2.312-1.395v2.132c-.954 1.064-1.973 1.94-3.075 2.62-1.658 1.035-3.35 1.56-5.07 1.56-2.015 0-3.477-.603-4.384-1.804-.9-1.2-1.397-2.632-1.488-4.302-2.255 1.8-4.178 3.134-5.784 4.013-2.697 1.477-5.265 2.214-7.698 2.214-2.55 0-4.76-.827-6.63-2.478-1.865-1.656-2.8-3.748-2.8-6.292 0-3.956 2.15-7.258 6.45-9.91zM183.223 112.76c1.42-1.256 2.134-2.438 2.134-3.566V91.627c0-3.55-1.03-6.058-3.09-7.517-2.062-1.464-4.07-2.19-6.028-2.19-3.74 0-6.648 1.517-8.723 4.566-2.078 3.044-3.115 6.79-3.115 11.24 0 4.4 1.104 8.32 3.312 11.755 2.212 3.438 5.51 5.16 9.9 5.16 2.316 0 4.183-.623 5.61-1.88zm-1.29-31.867c1.185.578 2.33 1.37 3.424 2.376V70.25c0-1.67-.2-2.817-.597-3.445-.403-.63-1.362-.94-2.876-.94-.353 0-.665.01-.93.036-.268.03-.863.083-1.78.164v-1.348l3.646-.86c1.334-.33 2.67-.668 4.01-1.023 1.33-.355 2.502-.7 3.516-1.023.464-.138 1.255-.396 2.352-.782l.27.08-.09 4.305c-.03 1.554-.057 3.155-.092 4.81-.03 1.654-.043 3.286-.043 4.897l-.087 33.46c0 1.778.234 3.016.705 3.727.482.713 1.738 1.068 3.792 1.068.322 0 .65-.01.976-.02.33-.017.653-.05.978-.105v1.355c-.175.05-2.33.734-6.45 2.047l-6.986 2.418-.313-.372v-5.038c-1.663 1.667-3.1 2.854-4.316 3.565-2.162 1.23-4.668 1.845-7.518 1.845-5.043 0-9.127-1.798-12.257-5.39-3.13-3.588-4.697-7.743-4.697-12.47 0-5.923 1.876-11.012 5.63-15.257 3.753-4.247 8.344-6.367 13.773-6.367 2.167 0 4.154.433 5.964 1.307zM226.07 95.6c-3.416 1.034-6.23 2.18-8.457 3.438-4.27 2.428-6.405 5.19-6.405 8.275 0 2.482.886 4.313 2.667 5.488 1.158.764 2.452 1.153 3.873 1.153 1.96 0 3.835-.51 5.626-1.52 1.798-1.008 2.696-2.3 2.696-3.853V95.6zm-16.333 4.625c2.733-1.635 8.177-3.86 16.333-6.673v-3.485c0-2.786-.298-4.726-.893-5.81-1.004-1.832-3.096-2.75-6.275-2.75-1.51 0-2.95.354-4.312 1.065-1.366.74-2.046 1.748-2.046 3.034 0 .325.07.882.222 1.656.145.777.22 1.277.22 1.495 0 1.533-.55 2.6-1.646 3.196-.625.355-1.364.53-2.22.53-1.338 0-2.366-.4-3.072-1.208-.715-.803-1.07-1.698-1.07-2.68 0-1.91 1.28-3.912 3.85-6.002 2.56-2.09 6.32-3.136 11.282-3.136 5.754 0 9.653 1.724 11.698 5.164 1.1 1.884 1.644 4.63 1.644 8.233v16.428c0 1.58.118 2.67.36 3.273.386 1.066 1.182 1.6 2.404 1.6.682 0 1.24-.09 1.687-.286.45-.194 1.22-.658 2.314-1.395v2.132c-.95 1.064-1.973 1.94-3.072 2.62-1.66 1.035-3.35 1.56-5.067 1.56-2.016 0-3.48-.603-4.383-1.804-.905-1.2-1.402-2.632-1.492-4.302-2.255 1.8-4.184 3.134-5.785 4.013-2.698 1.477-5.27 2.214-7.7 2.214-2.55 0-4.76-.827-6.63-2.478-1.866-1.656-2.802-3.748-2.802-6.292 0-3.956 2.153-7.258 6.45-9.91zM242.264 117.14c2.76-.243 4.63-.76 5.605-1.532.98-.78 1.47-2.302 1.47-4.57V71.022c0-1.802-.166-3.043-.49-3.725-.593-1.144-1.796-1.718-3.604-1.718-.42 0-.87.038-1.36.124-.487.08-1.1.202-1.847.365v-1.35c4.007-.985 8.825-2.293 14.46-3.93.207 0 .337.078.375.244.05.165.074.518.074 1.065v49.11c0 2.373.444 3.908 1.332 4.607.89.7 2.73 1.142 5.515 1.33v1.146h-21.533v-1.147zM279.817 80.36v26.213c0 1.86.28 3.347.845 4.465 1.1 2.075 3.113 3.115 6.053 3.115 2.016 0 3.987-.613 5.915-1.845 1.1-.682 2.21-1.62 3.34-2.826v-22.44c0-2.106-.445-3.483-1.336-4.14-.888-.658-2.67-1.05-5.34-1.19v-1.353h14.373v28.835c0 1.855.362 3.134 1.092 3.83.72.697 2.26 1.003 4.604.927v1.142c-1.632.412-2.838.718-3.606.92-.777.207-2.06.584-3.873 1.13-.772.24-2.46.835-5.07 1.76-.153 0-.238-.06-.264-.186-.033-.12-.05-.263-.05-.43v-6.593c-2.015 2.21-3.85 3.85-5.514 4.913-2.523 1.64-5.19 2.463-8.01 2.463-2.584 0-5.016-.852-7.298-2.545-2.314-1.67-3.468-4.473-3.468-8.41V86.833c0-2.168-.504-3.62-1.513-4.352-.652-.453-2.045-.783-4.182-.972v-1.15h13.302zM329.275 114.874c1.526.912 3.326 1.366 5.406 1.366 3.204 0 5.94-1.466 8.21-4.394 2.266-2.935 3.405-7.017 3.405-12.254 0-5.017-1.186-8.77-3.54-11.25-2.356-2.48-5.094-3.722-8.21-3.722-2.195 0-4.2.624-6.01 1.862-1.807 1.24-2.707 2.46-2.707 3.663v20.574c.768 1.853 1.917 3.237 3.447 4.154zm-17.553 20.33c2.764-.164 4.524-.71 5.28-1.638.746-.93 1.125-2.387 1.125-4.382v-39.32c0-2.08-.275-3.405-.822-3.99-.55-.59-1.58-.88-3.094-.88-.326 0-.627.01-.91.034-.285.028-.692.085-1.223.168v-1.353l4.226-1.272c.147-.02 3.132-.967 8.943-2.827.146 0 .262.066.336.187.073.123.107.265.107.43v5.528c1.96-1.798 3.68-3.137 5.16-4.01 2.67-1.53 5.416-2.29 8.232-2.29 4.096 0 7.62 1.598 10.57 4.8 2.95 3.21 4.425 7.59 4.425 13.157 0 5.453-1.774 10.407-5.316 14.853-3.545 4.45-8 6.67-13.37 6.67-1.657 0-3.102-.19-4.317-.577-1.897-.57-3.643-1.62-5.245-3.15v13.432c0 2.762.488 4.458 1.467 5.08.978.63 3.108 1.053 6.407 1.268v1.436h-21.98v-1.353zM367.38 86.996c-.952 1.476-1.63 3.334-2.05 5.57h18.784c-.325-2.73-.89-4.76-1.692-6.103-1.454-2.402-3.89-3.603-7.298-3.603-3.385 0-5.963 1.38-7.744 4.136zm21.317-3.134c3.14 2.663 4.712 6.44 4.712 11.326h-28.252c.294 6.325 1.855 10.928 4.67 13.815 2.818 2.886 6.158 4.328 10.015 4.328 3.115 0 5.735-.745 7.87-2.244 2.138-1.497 4.11-3.622 5.924-6.377l1.556.49c-1.22 3.474-3.492 6.69-6.832 9.638-3.332 2.954-7.423 4.435-12.258 4.435-5.58 0-9.89-1.94-12.922-5.818-3.047-3.878-4.563-8.34-4.563-13.392 0-5.488 1.765-10.226 5.29-14.215 3.53-3.987 8.13-5.975 13.8-5.975 4.18 0 7.842 1.33 10.99 3.99zM139.765 13.473c0 .462-.195 1.11-.595 1.933-.396.827-1.033 1.89-1.914 3.19-2.054 2.998-4.278 5.23-6.68 6.695-2.402 1.47-5.046 2.2-7.936 2.2-2.973 0-5.41-.704-7.306-2.113-1.897-1.415-2.84-3.2-2.84-5.356 0-1.918.637-3.745 1.914-5.476 1.28-1.727 3.12-3.267 5.52-4.608 2.82-1.566 6.2-2.703 10.136-3.404 3.935-.71 9.063-1.063 15.39-1.063.46 0 1.69.022 3.687.067 1.993.043 3.74.067 5.238.067 3.904 0 7.792-.242 11.674-.725.77-.09 1.244-.134 1.42-.134.22 0 .4.047.53.147.13.1.2.23.2.38 0 .82-1.122 1.733-3.358 2.745-2.236 1.013-4.757 1.52-7.554 1.52-1.874 0-5.195-.282-9.97-.84-4.77-.564-8.624-.85-11.554-.85-6.526 0-11.86 1.13-16 3.375-4.147 2.25-6.215 5.05-6.215 8.4 0 1.542.7 2.83 2.1 3.87 1.395 1.036 3.167 1.552 5.303 1.552 2.734 0 5.45-.71 8.154-2.132 2.698-1.424 5.195-3.466 7.486-6.135.616-.725 1.243-1.54 1.87-2.445.627-.907 1.017-1.357 1.174-1.357.042 0 .076.026.095.08.026.057.033.197.033.417zm-6.778 18.747c-3.81 1.256-7.34 3.46-10.58 6.612-.812.794-1.32 1.187-1.518 1.187-.048-.023-.084-.05-.1-.08-.026-.037-.033-.085-.033-.15 0-.328.286-.82.857-1.474.576-.647 1.457-1.455 2.644-2.426 1.28-1.064 2.705-1.997 4.27-2.814 1.562-.813 3.348-1.55 5.36-2.213 3.188-5.685 6.616-10.473 10.273-14.348 3.66-3.88 6.22-5.818 7.672-5.818.11 0 .182.004.204.014.02.015.042.053.066.117 0 .066-.187.263-.566.592-4.08 3.93-8.085 10.143-12.03 18.652 3.7-.422 7.436-1.69 11.205-3.807.91-.505 1.458-.758 1.655-.758.154 0 .28.033.376.097.103.07.15.156.15.263 0 .092-.253.434-.757 1.028-2.36 2.734-4.46 5.882-6.285 9.454-.11.265-.263.618-.46 1.06-.464 1.012-.912 1.654-1.36 1.92-.634.42-1.397.8-2.278 1.155-.88.356-1.455.53-1.718.53-.087 0-.168-.06-.23-.186-.07-.12-.1-.276-.1-.48 0-.615.828-2.1 2.49-4.46 1.668-2.36 3.703-4.773 6.103-7.24-1.495.657-3.018 1.2-4.562 1.618-1.543.422-3.163.706-4.857.858-4.188 7.583-9.193 13.24-15.01 16.966-5.822 3.722-12.533 5.586-20.134 5.586-5.646 0-10.1-1.246-13.36-3.734-3.265-2.496-4.895-5.88-4.895-10.155 0-4.495 1.724-8.28 5.174-11.355 3.452-3.075 7.723-4.617 12.816-4.617 3.923 0 7.13.97 9.618 2.897 2.494 1.928 3.736 4.366 3.736 7.322 0 3.175-1.41 5.946-4.23 8.315-2.823 2.374-6.198 3.556-10.12 3.556-2.135 0-4.08-.337-5.833-1.007-1.753-.674-2.627-1.264-2.627-1.768 0-.067.03-.114.097-.15.066-.035.168-.052.3-.052.11 0 .394.11.853.332 2.338 1.123 4.686 1.686 7.045 1.686 3.682 0 6.797-.997 9.34-2.994 2.55-1.992 3.82-4.378 3.82-7.16 0-2.486-.94-4.485-2.824-6-1.885-1.508-4.405-2.26-7.553-2.26-4.96 0-9.25 1.415-12.864 4.246-3.614 2.833-5.42 6.133-5.42 9.902 0 3.615 1.528 6.543 4.59 8.777 3.067 2.24 7.113 3.356 12.14 3.356 6.43 0 11.986-1.633 16.66-4.895 4.67-3.258 8.94-8.493 12.794-15.7zM149.124 50.305c0 .64.145 1.146.43 1.52.283.375.68.562 1.19.562.744 0 1.682-.374 2.793-1.12 1.114-.75 2.277-1.798 3.487-3.144 1.83-2.01 3.243-3.965 4.252-5.87 1-1.905 1.502-3.553 1.502-4.937 0-.604-.215-1.1-.646-1.51-.427-.406-.95-.61-1.57-.61-1.1 0-2.303.48-3.604 1.436-1.3.96-2.59 2.312-3.868 4.05-1.235 1.74-2.2 3.483-2.907 5.226-.708 1.74-1.06 3.205-1.06 4.397zm14.48-11.508l2.777-4.068 4.464-.264-7.436 11.705c-1.108 1.723-1.798 2.908-2.082 3.57-.29.664-.433 1.235-.433 1.72 0 .377.08.647.234.813.154.164.42.247.79.247.575 0 1.473-.48 2.695-1.443 1.222-.955 2.762-2.393 4.61-4.31.53-.53 1.144-1.18 1.836-1.95.696-.77 1.122-1.16 1.276-1.16.133 0 .23.024.3.067.063.045.094.11.094.197 0 .245-.254.676-.756 1.292-.512.616-1.29 1.457-2.35 2.515-2.38 2.445-4.14 4.04-5.273 4.774-1.136.742-2.202 1.112-3.192 1.112-.903 0-1.592-.287-2.068-.865-.474-.57-.708-1.407-.708-2.506 0-.288.02-.613.06-.98.05-.36.134-.898.267-1.6-1.54 1.96-3.034 3.44-4.48 4.447-1.444 1-2.796 1.505-4.047 1.505-1.213 0-2.165-.614-2.862-1.834-.69-1.227-1.04-2.918-1.04-5.076 0-.53.04-1.062.117-1.587.074-.53.178-1.05.316-1.557-.27.42-.52.744-.766.98-.24.226-.45.344-.627.344-.15 0-.256-.023-.313-.066-.055-.043-.08-.11-.08-.2 0-.172.284-.603.855-1.288.575-.684 1.347-1.52 2.32-2.515 2.114-2.113 4.237-3.75 6.362-4.906 2.124-1.16 4.067-1.737 5.834-1.737 1.083 0 1.945.287 2.6.86.646.573.97 1.334.97 2.286 0 .218-.02.448-.064.69-.045.244-.11.506-.2.79z" fill="none" stroke="#000" stroke-width="9.55847115" stroke-linecap="round" stroke-linejoin="round"/><path d="M173.092 53.28l8.794-13.127.267-.427c1.256-1.855 1.88-3.07 1.88-3.64 0-.31-.07-.53-.212-.676-.14-.144-.378-.213-.707-.213-.728 0-1.673.462-2.83 1.386-1.155.928-2.856 2.594-5.106 4.993-.464.484-1.014 1.114-1.654 1.886-.77.943-1.28 1.42-1.516 1.42-.09 0-.173-.027-.237-.084-.066-.052-.1-.114-.1-.18 0-.175.105-.42.318-.732.21-.306.62-.812 1.237-1.516l2.15-2.352c2.18-2.334 3.834-3.904 4.942-4.707 1.12-.805 2.132-1.207 3.06-1.207.766 0 1.406.274 1.9.824.494.557.745 1.246.745 2.087 0 1.078-.204 2.182-.61 3.304-.41 1.123-1.288 2.824-2.626 5.09l.06-.065c2.448-2.355 4.365-4.127 5.758-5.325.855-2.29 1.69-3.847 2.492-4.677.805-.825 1.822-1.237 3.06-1.237.44 0 .81.104 1.104.315.304.206.448.47.448.78 0 .77-1.31 2.124-3.937 4.064-.44.33-.778.58-1.022.756-.99.732-1.7 1.494-2.132 2.286-.427.79-.645 1.698-.645 2.71 0 .552.162.99.485 1.324.315.33.715.493 1.205.493 1.12 0 2.258-.535 3.402-1.62 1.15-1.075 1.734-1.62 1.75-1.62.136.024.23.062.302.116.068.054.097.126.097.216 0 .533-.64 1.295-1.928 2.297-1.293 1.006-2.444 1.508-3.458 1.508-.926 0-1.632-.232-2.12-.682-.48-.45-.725-1.104-.725-1.964 0-.33.07-.75.202-1.258.126-.506.346-1.167.66-1.987-1.347 1.128-2.832 2.58-4.447 4.352-1.62 1.773-3.48 3.983-5.572 6.627l-4.73.464z" fill="none" stroke="#000" stroke-width="9.55847115" stroke-linecap="round" stroke-linejoin="round"/><path d="M195.38 53.344l8.86-13.19.265-.428c1.253-1.853 1.885-3.068 1.885-3.64 0-.307-.073-.53-.21-.677-.148-.143-.382-.216-.718-.216-.728 0-1.675.464-2.824 1.388-1.163.93-2.862 2.592-5.11 4.996-.462.48-1.016 1.11-1.653 1.883-.773.946-1.282 1.423-1.52 1.423-.09 0-.17-.03-.233-.083-.07-.052-.1-.116-.1-.183 0-.175.104-.417.313-.73.208-.307.625-.812 1.24-1.515l2.152-2.353c2.177-2.336 3.826-3.907 4.94-4.71 1.11-.805 2.136-1.206 3.055-1.206.82 0 1.462.284 1.94.858.472.575.71 1.355.71 2.354 0 1.01-.215 2.102-.646 3.27-.43 1.165-1.116 2.51-2.068 4.03 3.044-3.836 5.456-6.546 7.244-8.133 1.782-1.59 3.293-2.38 4.53-2.38.79 0 1.447.27 1.954.81.5.54.758 1.217.758 2.034 0 1.187-.227 2.385-.68 3.586-.452 1.2-1.173 2.52-2.163 3.954 3.59-4.077 6.217-6.83 7.885-8.253 1.663-1.42 3.013-2.13 4.05-2.13.773 0 1.39.308 1.853.926.464.62.69 1.42.69 2.414 0 1.696-1.123 4.065-3.367 7.105-.35.506-.624.894-.828 1.157-1.215 1.675-2.032 2.916-2.463 3.72-.428.807-.64 1.458-.64 1.97 0 .396.082.7.257.907.175.21.455.313.822.313.58 0 1.49-.495 2.747-1.49 1.26-.985 2.78-2.42 4.565-4.295.528-.528 1.132-1.19 1.817-1.983.71-.794 1.134-1.192 1.292-1.192.105 0 .204.04.294.116.088.073.13.147.13.213 0 .356-.98 1.533-2.937 3.537l-.4.398c-1.87 1.916-3.436 3.345-4.694 4.283-1.258.938-2.215 1.405-2.88 1.405-.965 0-1.756-.44-2.346-1.322-.592-.88-.886-2.037-.886-3.473 0-1.033.265-2.113.808-3.24.538-1.124 1.71-2.82 3.52-5.09.237-.31.583-.73 1.026-1.257 1.296-1.606 1.95-2.677 1.95-3.207-.024-.305-.084-.516-.18-.627-.098-.11-.297-.175-.586-.2-.964 0-2.95 1.58-5.962 4.73-3.016 3.152-6.645 7.468-10.895 12.96l-4.73.46 8.795-13.19c.903-1.344 1.486-2.278 1.737-2.792.255-.517.38-.963.38-1.34 0-.305-.072-.52-.217-.644-.142-.12-.39-.182-.74-.182-1.766 0-6.77 5.08-15.02 15.244l-1.978 2.444-4.792.462z" fill="none" stroke="#000" stroke-width="9.55847115" stroke-linecap="round" stroke-linejoin="round"/><path d="M239.386 50.305c0 .64.144 1.146.43 1.52.285.375.68.562 1.188.562.753 0 1.682-.374 2.795-1.12 1.113-.75 2.273-1.798 3.486-3.144 1.834-2.01 3.243-3.965 4.25-5.87 1.004-1.905 1.502-3.553 1.502-4.937 0-.604-.213-1.1-.647-1.51-.423-.406-.95-.61-1.565-.61-1.106 0-2.307.48-3.605 1.436-1.298.96-2.587 2.312-3.866 4.05-1.234 1.74-2.206 3.483-2.91 5.226-.707 1.74-1.058 3.205-1.058 4.397zm14.483-11.508l2.773-4.068 4.463-.264-7.433 11.705c-1.107 1.723-1.798 2.908-2.087 3.57-.29.664-.434 1.235-.434 1.72 0 .377.078.647.235.813.154.164.417.247.79.247.577 0 1.474-.48 2.697-1.443 1.227-.955 2.762-2.393 4.612-4.31.528-.53 1.142-1.18 1.833-1.95.694-.77 1.122-1.16 1.272-1.16.14 0 .234.024.298.067.07.045.1.11.1.197 0 .245-.252.676-.76 1.292s-1.287 1.457-2.346 2.515c-2.383 2.445-4.14 4.04-5.278 4.774-1.128.742-2.194 1.112-3.186 1.112-.907 0-1.59-.287-2.063-.865-.48-.57-.718-1.407-.718-2.506 0-.288.025-.613.067-.98.043-.36.133-.898.27-1.6-1.544 1.96-3.04 3.44-4.484 4.447-1.445 1-2.793 1.505-4.048 1.505-1.21 0-2.168-.614-2.86-1.834-.696-1.227-1.042-2.918-1.042-5.076 0-.53.038-1.062.116-1.587.073-.53.177-1.05.31-1.557-.266.42-.517.744-.758.98-.244.226-.45.344-.63.344-.154 0-.26-.023-.313-.066-.056-.043-.082-.11-.082-.2 0-.172.287-.603.858-1.288.57-.684 1.348-1.52 2.312-2.515 2.118-2.113 4.235-3.75 6.37-4.906 2.125-1.16 4.067-1.737 5.832-1.737 1.085 0 1.945.287 2.594.86.65.573.974 1.334.974 2.286 0 .218-.022.448-.064.69-.045.244-.107.506-.195.79z" fill="none" stroke="#000" stroke-width="9.55847115" stroke-linecap="round" stroke-linejoin="round"/><path d="M263.718 43.56c-.305.417-.58.734-.822.945-.246.21-.452.313-.628.313-.153 0-.258-.02-.315-.066-.056-.043-.087-.114-.087-.202 0-.13.222-.47.665-1.028.44-.545 1.124-1.32 2.05-2.307 2.092-2.253 4.198-3.987 6.314-5.21 2.122-1.226 4.086-1.835 5.917-1.835 1.368 0 2.446.32 3.23.96.78.64 1.172 1.494 1.172 2.58 0 .883-.248 1.62-.73 2.214-.487.594-1.067.89-1.754.89-.638 0-1.138-.153-1.505-.46-.357-.312-.54-.738-.54-1.29 0-.573.348-1.08 1.06-1.523.703-.44 1.053-.86 1.053-1.257 0-.327-.135-.604-.412-.82-.277-.225-.61-.334-1.007-.334-2.01 0-4.29 1.596-6.86 4.794-2.57 3.195-3.854 6.382-3.854 9.554 0 1.016.244 1.802.73 2.366.483.56 1.165.84 2.05.84 1.166 0 2.386-.378 3.67-1.138 1.272-.763 2.83-2.054 4.66-3.885.793-.774 1.604-1.632 2.428-2.58.832-.947 1.33-1.423 1.505-1.423.107 0 .204.033.282.1.076.066.114.142.114.232 0 .198-.208.553-.625 1.058-.42.504-1.352 1.51-2.81 3.006-1.982 1.99-3.73 3.406-5.24 4.266-1.513.86-2.97 1.29-4.38 1.29-1.676 0-3.043-.686-4.102-2.05-1.057-1.365-1.585-3.115-1.585-5.254 0-.424.03-.86.097-1.308.07-.452.154-.93.263-1.438z" fill="none" stroke="#000" stroke-width="9.55847115" stroke-linecap="round" stroke-linejoin="round"/><path d="M295.76 23.818c0-.723.29-1.414.874-2.063.58-.647 1.215-.974 1.905-.974.546 0 .986.18 1.318.546.332.365.497.827.497 1.405 0 .75-.277 1.448-.83 2.102-.553.647-1.17.97-1.85.97-.553 0-1.008-.186-1.375-.558-.36-.377-.54-.85-.54-1.426zm-8.332 14.614c-1.236 1.24-2.518 2.61-3.854 4.117-1.333 1.513-2.12 2.268-2.362 2.268-.087 0-.156-.02-.2-.052-.044-.033-.065-.08-.065-.147 0-.29.75-1.294 2.246-3.01 1.504-1.72 3.617-3.988 6.348-6.812l4.862-.332-6.71 10.55c-1.434 2.266-2.343 3.79-2.727 4.56-.39.774-.58 1.375-.58 1.82 0 .332.118.63.345.89.235.267.502.4.813.4.83 0 1.864-.448 3.072-1.34 1.21-.892 2.83-2.42 4.86-4.583.378-.415.86-.957 1.456-1.62.88-.988 1.434-1.486 1.654-1.486.11 0 .202.034.284.1.074.066.11.142.11.232 0 .198-.183.532-.557.992-.376.46-1.222 1.378-2.543 2.745-2.275 2.317-3.994 3.87-5.16 4.676-1.168.806-2.203 1.208-3.11 1.208-1.102 0-1.988-.385-2.66-1.155-.673-.772-1.007-1.812-1.007-3.112 0-1.72 1.56-4.937 4.695-9.653.348-.55.616-.967.793-1.258z" fill="none" stroke="#000" stroke-width="9.55847115" stroke-linecap="round" stroke-linejoin="round"/><path d="M299.987 50.305c0 .64.144 1.146.434 1.52.285.375.678.562 1.19.562.748 0 1.684-.374 2.795-1.12 1.113-.75 2.27-1.798 3.487-3.144 1.83-2.01 3.238-3.965 4.25-5.87 1.004-1.905 1.502-3.553 1.502-4.937 0-.604-.216-1.1-.645-1.51-.43-.406-.955-.61-1.57-.61-1.11 0-2.304.48-3.604 1.436-1.3.96-2.592 2.312-3.87 4.05-1.238 1.74-2.202 3.483-2.91 5.226-.706 1.74-1.06 3.205-1.06 4.397zm14.483-11.508l2.772-4.068 4.47-.264-7.438 11.705c-1.104 1.723-1.796 2.908-2.085 3.57-.29.664-.432 1.235-.432 1.72 0 .377.078.647.23.813.154.164.42.247.793.247.577 0 1.472-.48 2.697-1.443 1.227-.955 2.762-2.393 4.608-4.31.533-.53 1.146-1.18 1.838-1.95.696-.77 1.12-1.16 1.272-1.16.137 0 .235.024.3.067.07.045.098.11.098.197 0 .245-.254.676-.763 1.292-.504.616-1.286 1.457-2.343 2.515-2.38 2.445-4.14 4.04-5.275 4.774-1.135.742-2.198 1.112-3.19 1.112-.9 0-1.593-.287-2.064-.865-.476-.57-.713-1.407-.713-2.506 0-.288.02-.613.064-.98.044-.36.134-.898.27-1.6-1.546 1.96-3.036 3.44-4.483 4.447-1.445 1-2.793 1.505-4.05 1.505-1.212 0-2.17-.614-2.858-1.834-.697-1.227-1.048-2.918-1.048-5.076 0-.53.04-1.062.118-1.587.076-.53.18-1.05.315-1.557-.265.42-.518.744-.76.98-.246.226-.45.344-.632.344-.152 0-.254-.023-.31-.066-.055-.043-.084-.11-.084-.2 0-.172.288-.603.862-1.288.57-.684 1.34-1.52 2.312-2.515 2.113-2.113 4.233-3.75 6.365-4.906 2.126-1.16 4.07-1.737 5.83-1.737 1.086 0 1.946.287 2.6.86.65.573.976 1.334.976 2.286 0 .218-.026.448-.064.69-.05.244-.114.506-.202.79z" fill="none" stroke="#000" stroke-width="9.55847115" stroke-linecap="round" stroke-linejoin="round"/><path d="M46.712 63.158c3.41.903 5.37 1.355 5.877 1.355 1.302 0 2.228-.232 2.777-.696.552-.467 1.017-1.135 1.403-2.01h2.002l.71 17.652H57.39c-1.866-4.066-3.794-7.096-5.782-9.093-3.59-3.494-8.263-5.238-14.014-5.238-5.844 0-10.987 2.034-15.422 6.118-4.43 4.082-6.65 10.807-6.65 20.17 0 7.73 2.21 13.764 6.63 18.104 4.42 4.345 9.877 6.517 16.373 6.517 1.1 0 2.39-.1 3.87-.288 1.486-.194 2.895-.488 4.23-.897 2.166-.66 3.517-1.22 4.047-1.7.536-.475.803-1.18.803-2.11V97.69c0-3.246-.497-5.26-1.492-6.06-.995-.79-3.167-1.286-6.517-1.476v-1.56h23.227v1.56c-2.255.135-3.752.474-4.498 1.024-1.244.87-1.867 2.672-1.867 5.403v16.51c0 .98-2.62 2.293-7.853 3.93-5.235 1.637-10.27 2.46-15.104 2.46-8.9 0-16.404-2.394-22.515-7.172C8.122 107.042 4.75 99.97 4.75 91.092c0-7.808 2.692-14.5 8.056-20.07 5.905-6.14 13.74-9.214 23.494-9.214 3.53 0 7.003.453 10.412 1.35zM82.49 80.36v26.213c0 1.86.278 3.347.842 4.465 1.097 2.075 3.113 3.115 6.048 3.115 2.018 0 3.994-.613 5.92-1.845 1.097-.682 2.21-1.62 3.34-2.826v-22.44c0-2.106-.445-3.483-1.338-4.14-.886-.658-2.665-1.05-5.34-1.19v-1.353h14.375v28.835c0 1.855.362 3.134 1.09 3.83.726.697 2.264 1.003 4.602.927v1.142c-1.63.412-2.832.718-3.604.92-.768.207-2.06.584-3.868 1.13-.773.24-2.47.835-5.077 1.76-.146 0-.236-.06-.26-.186-.035-.12-.045-.263-.045-.43v-6.593c-2.023 2.21-3.86 3.85-5.524 4.913-2.52 1.64-5.19 2.463-8.003 2.463-2.582 0-5.013-.852-7.3-2.545-2.31-1.67-3.467-4.473-3.467-8.41V86.833c0-2.168-.504-3.62-1.514-4.352-.656-.453-2.046-.783-4.183-.972v-1.15H82.49zM140.063 95.6c-3.41 1.034-6.23 2.18-8.455 3.438-4.273 2.428-6.408 5.19-6.408 8.275 0 2.482.89 4.313 2.673 5.488 1.15.764 2.447 1.153 3.868 1.153 1.96 0 3.84-.51 5.63-1.52 1.793-1.008 2.693-2.3 2.693-3.853V95.6zm-16.33 4.625c2.73-1.635 8.174-3.86 16.33-6.673v-3.485c0-2.786-.3-4.726-.888-5.81-1.012-1.832-3.104-2.75-6.276-2.75-1.514 0-2.955.354-4.317 1.065-1.362.74-2.05 1.748-2.05 3.034 0 .325.075.882.226 1.656.144.777.222 1.277.222 1.495 0 1.533-.552 2.6-1.647 3.196-.623.355-1.366.53-2.224.53-1.333 0-2.356-.4-3.07-1.208-.712-.803-1.067-1.698-1.067-2.68 0-1.91 1.28-3.912 3.844-6.002 2.568-2.09 6.328-3.136 11.286-3.136 5.75 0 9.655 1.724 11.7 5.164 1.094 1.884 1.64 4.63 1.64 8.233v16.428c0 1.58.124 2.67.36 3.273.385 1.066 1.188 1.6 2.4 1.6.688 0 1.25-.09 1.697-.286.443-.194 1.215-.658 2.312-1.395v2.132c-.954 1.064-1.973 1.94-3.075 2.62-1.658 1.035-3.35 1.56-5.07 1.56-2.015 0-3.477-.603-4.384-1.804-.9-1.2-1.397-2.632-1.488-4.302-2.255 1.8-4.178 3.134-5.784 4.013-2.697 1.477-5.265 2.214-7.698 2.214-2.55 0-4.76-.827-6.63-2.478-1.865-1.656-2.8-3.748-2.8-6.292 0-3.956 2.15-7.258 6.45-9.91zM183.223 112.76c1.42-1.256 2.134-2.438 2.134-3.566V91.627c0-3.55-1.03-6.058-3.09-7.517-2.062-1.464-4.07-2.19-6.028-2.19-3.74 0-6.648 1.517-8.723 4.566-2.078 3.044-3.115 6.79-3.115 11.24 0 4.4 1.104 8.32 3.312 11.755 2.212 3.438 5.51 5.16 9.9 5.16 2.316 0 4.183-.623 5.61-1.88zm-1.29-31.867c1.185.578 2.33 1.37 3.424 2.376V70.25c0-1.67-.2-2.817-.597-3.445-.403-.63-1.362-.94-2.876-.94-.353 0-.665.01-.93.036-.268.03-.863.083-1.78.164v-1.348l3.646-.86c1.334-.33 2.67-.668 4.01-1.023 1.33-.355 2.502-.7 3.516-1.023.464-.138 1.255-.396 2.352-.782l.27.08-.09 4.305c-.03 1.554-.057 3.155-.092 4.81-.03 1.654-.043 3.286-.043 4.897l-.087 33.46c0 1.778.234 3.016.705 3.727.482.713 1.738 1.068 3.792 1.068.322 0 .65-.01.976-.02.33-.017.653-.05.978-.105v1.355c-.175.05-2.33.734-6.45 2.047l-6.986 2.418-.313-.372v-5.038c-1.663 1.667-3.1 2.854-4.316 3.565-2.162 1.23-4.668 1.845-7.518 1.845-5.043 0-9.127-1.798-12.257-5.39-3.13-3.588-4.697-7.743-4.697-12.47 0-5.923 1.876-11.012 5.63-15.257 3.753-4.247 8.344-6.367 13.773-6.367 2.167 0 4.154.433 5.964 1.307zM226.07 95.6c-3.416 1.034-6.23 2.18-8.457 3.438-4.27 2.428-6.405 5.19-6.405 8.275 0 2.482.886 4.313 2.667 5.488 1.158.764 2.452 1.153 3.873 1.153 1.96 0 3.835-.51 5.626-1.52 1.798-1.008 2.696-2.3 2.696-3.853V95.6zm-16.333 4.625c2.733-1.635 8.177-3.86 16.333-6.673v-3.485c0-2.786-.298-4.726-.893-5.81-1.004-1.832-3.096-2.75-6.275-2.75-1.51 0-2.95.354-4.312 1.065-1.366.74-2.046 1.748-2.046 3.034 0 .325.07.882.222 1.656.145.777.22 1.277.22 1.495 0 1.533-.55 2.6-1.646 3.196-.625.355-1.364.53-2.22.53-1.338 0-2.366-.4-3.072-1.208-.715-.803-1.07-1.698-1.07-2.68 0-1.91 1.28-3.912 3.85-6.002 2.56-2.09 6.32-3.136 11.282-3.136 5.754 0 9.653 1.724 11.698 5.164 1.1 1.884 1.644 4.63 1.644 8.233v16.428c0 1.58.118 2.67.36 3.273.386 1.066 1.182 1.6 2.404 1.6.682 0 1.24-.09 1.687-.286.45-.194 1.22-.658 2.314-1.395v2.132c-.95 1.064-1.973 1.94-3.072 2.62-1.66 1.035-3.35 1.56-5.067 1.56-2.016 0-3.48-.603-4.383-1.804-.905-1.2-1.402-2.632-1.492-4.302-2.255 1.8-4.184 3.134-5.785 4.013-2.698 1.477-5.27 2.214-7.7 2.214-2.55 0-4.76-.827-6.63-2.478-1.866-1.656-2.802-3.748-2.802-6.292 0-3.956 2.153-7.258 6.45-9.91zM242.264 117.14c2.76-.243 4.63-.76 5.605-1.532.98-.78 1.47-2.302 1.47-4.57V71.022c0-1.802-.166-3.043-.49-3.725-.593-1.144-1.796-1.718-3.604-1.718-.42 0-.87.038-1.36.124-.487.08-1.1.202-1.847.365v-1.35c4.007-.985 8.825-2.293 14.46-3.93.207 0 .337.078.375.244.05.165.074.518.074 1.065v49.11c0 2.373.444 3.908 1.332 4.607.89.7 2.73 1.142 5.515 1.33v1.146h-21.533v-1.147zM279.817 80.36v26.213c0 1.86.28 3.347.845 4.465 1.1 2.075 3.113 3.115 6.053 3.115 2.016 0 3.987-.613 5.915-1.845 1.1-.682 2.21-1.62 3.34-2.826v-22.44c0-2.106-.445-3.483-1.336-4.14-.888-.658-2.67-1.05-5.34-1.19v-1.353h14.373v28.835c0 1.855.362 3.134 1.092 3.83.72.697 2.26 1.003 4.604.927v1.142c-1.632.412-2.838.718-3.606.92-.777.207-2.06.584-3.873 1.13-.772.24-2.46.835-5.07 1.76-.153 0-.238-.06-.264-.186-.033-.12-.05-.263-.05-.43v-6.593c-2.015 2.21-3.85 3.85-5.514 4.913-2.523 1.64-5.19 2.463-8.01 2.463-2.584 0-5.016-.852-7.298-2.545-2.314-1.67-3.468-4.473-3.468-8.41V86.833c0-2.168-.504-3.62-1.513-4.352-.652-.453-2.045-.783-4.182-.972v-1.15h13.302zM329.275 114.874c1.526.912 3.326 1.366 5.406 1.366 3.204 0 5.94-1.466 8.21-4.394 2.266-2.935 3.405-7.017 3.405-12.254 0-5.017-1.186-8.77-3.54-11.25-2.356-2.48-5.094-3.722-8.21-3.722-2.195 0-4.2.624-6.01 1.862-1.807 1.24-2.707 2.46-2.707 3.663v20.574c.768 1.853 1.917 3.237 3.447 4.154zm-17.553 20.33c2.764-.164 4.524-.71 5.28-1.638.746-.93 1.125-2.387 1.125-4.382v-39.32c0-2.08-.275-3.405-.822-3.99-.55-.59-1.58-.88-3.094-.88-.326 0-.627.01-.91.034-.285.028-.692.085-1.223.168v-1.353l4.226-1.272c.147-.02 3.132-.967 8.943-2.827.146 0 .262.066.336.187.073.123.107.265.107.43v5.528c1.96-1.798 3.68-3.137 5.16-4.01 2.67-1.53 5.416-2.29 8.232-2.29 4.096 0 7.62 1.598 10.57 4.8 2.95 3.21 4.425 7.59 4.425 13.157 0 5.453-1.774 10.407-5.316 14.853-3.545 4.45-8 6.67-13.37 6.67-1.657 0-3.102-.19-4.317-.577-1.897-.57-3.643-1.62-5.245-3.15v13.432c0 2.762.488 4.458 1.467 5.08.978.63 3.108 1.053 6.407 1.268v1.436h-21.98v-1.353zM367.38 86.996c-.952 1.476-1.63 3.334-2.05 5.57h18.784c-.325-2.73-.89-4.76-1.692-6.103-1.454-2.402-3.89-3.603-7.298-3.603-3.385 0-5.963 1.38-7.744 4.136zm21.317-3.134c3.14 2.663 4.712 6.44 4.712 11.326h-28.252c.294 6.325 1.855 10.928 4.67 13.815 2.818 2.886 6.158 4.328 10.015 4.328 3.115 0 5.735-.745 7.87-2.244 2.138-1.497 4.11-3.622 5.924-6.377l1.556.49c-1.22 3.474-3.492 6.69-6.832 9.638-3.332 2.954-7.423 4.435-12.258 4.435-5.58 0-9.89-1.94-12.922-5.818-3.047-3.878-4.563-8.34-4.563-13.392 0-5.488 1.765-10.226 5.29-14.215 3.53-3.987 8.13-5.975 13.8-5.975 4.18 0 7.842 1.33 10.99 3.99zM139.765 13.473c0 .462-.195 1.11-.595 1.933-.396.827-1.033 1.89-1.914 3.19-2.054 2.998-4.278 5.23-6.68 6.695-2.402 1.47-5.046 2.2-7.936 2.2-2.973 0-5.41-.704-7.306-2.113-1.897-1.415-2.84-3.2-2.84-5.356 0-1.918.637-3.745 1.914-5.476 1.28-1.727 3.12-3.267 5.52-4.608 2.82-1.566 6.2-2.703 10.136-3.404 3.935-.71 9.063-1.063 15.39-1.063.46 0 1.69.022 3.687.067 1.993.043 3.74.067 5.238.067 3.904 0 7.792-.242 11.674-.725.77-.09 1.244-.134 1.42-.134.22 0 .4.047.53.147.13.1.2.23.2.38 0 .82-1.122 1.733-3.358 2.745-2.236 1.013-4.757 1.52-7.554 1.52-1.874 0-5.195-.282-9.97-.84-4.77-.564-8.624-.85-11.554-.85-6.526 0-11.86 1.13-16 3.375-4.147 2.25-6.215 5.05-6.215 8.4 0 1.542.7 2.83 2.1 3.87 1.395 1.036 3.167 1.552 5.303 1.552 2.734 0 5.45-.71 8.154-2.132 2.698-1.424 5.195-3.466 7.486-6.135.616-.725 1.243-1.54 1.87-2.445.627-.907 1.017-1.357 1.174-1.357.042 0 .076.026.095.08.026.057.033.197.033.417zm-6.778 18.747c-3.81 1.256-7.34 3.46-10.58 6.612-.812.794-1.32 1.187-1.518 1.187-.048-.023-.084-.05-.1-.08-.026-.037-.033-.085-.033-.15 0-.328.286-.82.857-1.474.576-.647 1.457-1.455 2.644-2.426 1.28-1.064 2.705-1.997 4.27-2.814 1.562-.813 3.348-1.55 5.36-2.213 3.188-5.685 6.616-10.473 10.273-14.348 3.66-3.88 6.22-5.818 7.672-5.818.11 0 .182.004.204.014.02.015.042.053.066.117 0 .066-.187.263-.566.592-4.08 3.93-8.085 10.143-12.03 18.652 3.7-.422 7.436-1.69 11.205-3.807.91-.505 1.458-.758 1.655-.758.154 0 .28.033.376.097.103.07.15.156.15.263 0 .092-.253.434-.757 1.028-2.36 2.734-4.46 5.882-6.285 9.454-.11.265-.263.618-.46 1.06-.464 1.012-.912 1.654-1.36 1.92-.634.42-1.397.8-2.278 1.155-.88.356-1.455.53-1.718.53-.087 0-.168-.06-.23-.186-.07-.12-.1-.276-.1-.48 0-.615.828-2.1 2.49-4.46 1.668-2.36 3.703-4.773 6.103-7.24-1.495.657-3.018 1.2-4.562 1.618-1.543.422-3.163.706-4.857.858-4.188 7.583-9.193 13.24-15.01 16.966-5.822 3.722-12.533 5.586-20.134 5.586-5.646 0-10.1-1.246-13.36-3.734-3.265-2.496-4.895-5.88-4.895-10.155 0-4.495 1.724-8.28 5.174-11.355 3.452-3.075 7.723-4.617 12.816-4.617 3.923 0 7.13.97 9.618 2.897 2.494 1.928 3.736 4.366 3.736 7.322 0 3.175-1.41 5.946-4.23 8.315-2.823 2.374-6.198 3.556-10.12 3.556-2.135 0-4.08-.337-5.833-1.007-1.753-.674-2.627-1.264-2.627-1.768 0-.067.03-.114.097-.15.066-.035.168-.052.3-.052.11 0 .394.11.853.332 2.338 1.123 4.686 1.686 7.045 1.686 3.682 0 6.797-.997 9.34-2.994 2.55-1.992 3.82-4.378 3.82-7.16 0-2.486-.94-4.485-2.824-6-1.885-1.508-4.405-2.26-7.553-2.26-4.96 0-9.25 1.415-12.864 4.246-3.614 2.833-5.42 6.133-5.42 9.902 0 3.615 1.528 6.543 4.59 8.777 3.067 2.24 7.113 3.356 12.14 3.356 6.43 0 11.986-1.633 16.66-4.895 4.67-3.258 8.94-8.493 12.794-15.7zM149.124 50.305c0 .64.145 1.146.43 1.52.283.375.68.562 1.19.562.744 0 1.682-.374 2.793-1.12 1.114-.75 2.277-1.798 3.487-3.144 1.83-2.01 3.243-3.965 4.252-5.87 1-1.905 1.502-3.553 1.502-4.937 0-.604-.215-1.1-.646-1.51-.427-.406-.95-.61-1.57-.61-1.1 0-2.303.48-3.604 1.436-1.3.96-2.59 2.312-3.868 4.05-1.235 1.74-2.2 3.483-2.907 5.226-.708 1.74-1.06 3.205-1.06 4.397zm14.48-11.508l2.777-4.068 4.464-.264-7.436 11.705c-1.108 1.723-1.798 2.908-2.082 3.57-.29.664-.433 1.235-.433 1.72 0 .377.08.647.234.813.154.164.42.247.79.247.575 0 1.473-.48 2.695-1.443 1.222-.955 2.762-2.393 4.61-4.31.53-.53 1.144-1.18 1.836-1.95.696-.77 1.122-1.16 1.276-1.16.133 0 .23.024.3.067.063.045.094.11.094.197 0 .245-.254.676-.756 1.292-.512.616-1.29 1.457-2.35 2.515-2.38 2.445-4.14 4.04-5.273 4.774-1.136.742-2.202 1.112-3.192 1.112-.903 0-1.592-.287-2.068-.865-.474-.57-.708-1.407-.708-2.506 0-.288.02-.613.06-.98.05-.36.134-.898.267-1.6-1.54 1.96-3.034 3.44-4.48 4.447-1.444 1-2.796 1.505-4.047 1.505-1.213 0-2.165-.614-2.862-1.834-.69-1.227-1.04-2.918-1.04-5.076 0-.53.04-1.062.117-1.587.074-.53.178-1.05.316-1.557-.27.42-.52.744-.766.98-.24.226-.45.344-.627.344-.15 0-.256-.023-.313-.066-.055-.043-.08-.11-.08-.2 0-.172.284-.603.855-1.288.575-.684 1.347-1.52 2.32-2.515 2.114-2.113 4.237-3.75 6.362-4.906 2.124-1.16 4.067-1.737 5.834-1.737 1.083 0 1.945.287 2.6.86.646.573.97 1.334.97 2.286 0 .218-.02.448-.064.69-.045.244-.11.506-.2.79z" fill="none" stroke="#fff" stroke-width="4.22136198" stroke-linecap="round" stroke-linejoin="round"/><path d="M173.092 53.28l8.794-13.127.267-.427c1.256-1.855 1.88-3.07 1.88-3.64 0-.31-.07-.53-.212-.676-.14-.144-.378-.213-.707-.213-.728 0-1.673.462-2.83 1.386-1.155.928-2.856 2.594-5.106 4.993-.464.484-1.014 1.114-1.654 1.886-.77.943-1.28 1.42-1.516 1.42-.09 0-.173-.027-.237-.084-.066-.052-.1-.114-.1-.18 0-.175.105-.42.318-.732.21-.306.62-.812 1.237-1.516l2.15-2.352c2.18-2.334 3.834-3.904 4.942-4.707 1.12-.805 2.132-1.207 3.06-1.207.766 0 1.406.274 1.9.824.494.557.745 1.246.745 2.087 0 1.078-.204 2.182-.61 3.304-.41 1.123-1.288 2.824-2.626 5.09l.06-.065c2.448-2.355 4.365-4.127 5.758-5.325.855-2.29 1.69-3.847 2.492-4.677.805-.825 1.822-1.237 3.06-1.237.44 0 .81.104 1.104.315.304.206.448.47.448.78 0 .77-1.31 2.124-3.937 4.064-.44.33-.778.58-1.022.756-.99.732-1.7 1.494-2.132 2.286-.427.79-.645 1.698-.645 2.71 0 .552.162.99.485 1.324.315.33.715.493 1.205.493 1.12 0 2.258-.535 3.402-1.62 1.15-1.075 1.734-1.62 1.75-1.62.136.024.23.062.302.116.068.054.097.126.097.216 0 .533-.64 1.295-1.928 2.297-1.293 1.006-2.444 1.508-3.458 1.508-.926 0-1.632-.232-2.12-.682-.48-.45-.725-1.104-.725-1.964 0-.33.07-.75.202-1.258.126-.506.346-1.167.66-1.987-1.347 1.128-2.832 2.58-4.447 4.352-1.62 1.773-3.48 3.983-5.572 6.627l-4.73.464z" fill="none" stroke="#fff" stroke-width="4.22136198" stroke-linecap="round" stroke-linejoin="round"/><path d="M195.38 53.344l8.86-13.19.265-.428c1.253-1.853 1.885-3.068 1.885-3.64 0-.307-.073-.53-.21-.677-.148-.143-.382-.216-.718-.216-.728 0-1.675.464-2.824 1.388-1.163.93-2.862 2.592-5.11 4.996-.462.48-1.016 1.11-1.653 1.883-.773.946-1.282 1.423-1.52 1.423-.09 0-.17-.03-.233-.083-.07-.052-.1-.116-.1-.183 0-.175.104-.417.313-.73.208-.307.625-.812 1.24-1.515l2.152-2.353c2.177-2.336 3.826-3.907 4.94-4.71 1.11-.805 2.136-1.206 3.055-1.206.82 0 1.462.284 1.94.858.472.575.71 1.355.71 2.354 0 1.01-.215 2.102-.646 3.27-.43 1.165-1.116 2.51-2.068 4.03 3.044-3.836 5.456-6.546 7.244-8.133 1.782-1.59 3.293-2.38 4.53-2.38.79 0 1.447.27 1.954.81.5.54.758 1.217.758 2.034 0 1.187-.227 2.385-.68 3.586-.452 1.2-1.173 2.52-2.163 3.954 3.59-4.077 6.217-6.83 7.885-8.253 1.663-1.42 3.013-2.13 4.05-2.13.773 0 1.39.308 1.853.926.464.62.69 1.42.69 2.414 0 1.696-1.123 4.065-3.367 7.105-.35.506-.624.894-.828 1.157-1.215 1.675-2.032 2.916-2.463 3.72-.428.807-.64 1.458-.64 1.97 0 .396.082.7.257.907.175.21.455.313.822.313.58 0 1.49-.495 2.747-1.49 1.26-.985 2.78-2.42 4.565-4.295.528-.528 1.132-1.19 1.817-1.983.71-.794 1.134-1.192 1.292-1.192.105 0 .204.04.294.116.088.073.13.147.13.213 0 .356-.98 1.533-2.937 3.537l-.4.398c-1.87 1.916-3.436 3.345-4.694 4.283-1.258.938-2.215 1.405-2.88 1.405-.965 0-1.756-.44-2.346-1.322-.592-.88-.886-2.037-.886-3.473 0-1.033.265-2.113.808-3.24.538-1.124 1.71-2.82 3.52-5.09.237-.31.583-.73 1.026-1.257 1.296-1.606 1.95-2.677 1.95-3.207-.024-.305-.084-.516-.18-.627-.098-.11-.297-.175-.586-.2-.964 0-2.95 1.58-5.962 4.73-3.016 3.152-6.645 7.468-10.895 12.96l-4.73.46 8.795-13.19c.903-1.344 1.486-2.278 1.737-2.792.255-.517.38-.963.38-1.34 0-.305-.072-.52-.217-.644-.142-.12-.39-.182-.74-.182-1.766 0-6.77 5.08-15.02 15.244l-1.978 2.444-4.792.462z" fill="none" stroke="#fff" stroke-width="4.22136198" stroke-linecap="round" stroke-linejoin="round"/><path d="M239.386 50.305c0 .64.144 1.146.43 1.52.285.375.68.562 1.188.562.753 0 1.682-.374 2.795-1.12 1.113-.75 2.273-1.798 3.486-3.144 1.834-2.01 3.243-3.965 4.25-5.87 1.004-1.905 1.502-3.553 1.502-4.937 0-.604-.213-1.1-.647-1.51-.423-.406-.95-.61-1.565-.61-1.106 0-2.307.48-3.605 1.436-1.298.96-2.587 2.312-3.866 4.05-1.234 1.74-2.206 3.483-2.91 5.226-.707 1.74-1.058 3.205-1.058 4.397zm14.483-11.508l2.773-4.068 4.463-.264-7.433 11.705c-1.107 1.723-1.798 2.908-2.087 3.57-.29.664-.434 1.235-.434 1.72 0 .377.078.647.235.813.154.164.417.247.79.247.577 0 1.474-.48 2.697-1.443 1.227-.955 2.762-2.393 4.612-4.31.528-.53 1.142-1.18 1.833-1.95.694-.77 1.122-1.16 1.272-1.16.14 0 .234.024.298.067.07.045.1.11.1.197 0 .245-.252.676-.76 1.292s-1.287 1.457-2.346 2.515c-2.383 2.445-4.14 4.04-5.278 4.774-1.128.742-2.194 1.112-3.186 1.112-.907 0-1.59-.287-2.063-.865-.48-.57-.718-1.407-.718-2.506 0-.288.025-.613.067-.98.043-.36.133-.898.27-1.6-1.544 1.96-3.04 3.44-4.484 4.447-1.445 1-2.793 1.505-4.048 1.505-1.21 0-2.168-.614-2.86-1.834-.696-1.227-1.042-2.918-1.042-5.076 0-.53.038-1.062.116-1.587.073-.53.177-1.05.31-1.557-.266.42-.517.744-.758.98-.244.226-.45.344-.63.344-.154 0-.26-.023-.313-.066-.056-.043-.082-.11-.082-.2 0-.172.287-.603.858-1.288.57-.684 1.348-1.52 2.312-2.515 2.118-2.113 4.235-3.75 6.37-4.906 2.125-1.16 4.067-1.737 5.832-1.737 1.085 0 1.945.287 2.594.86.65.573.974 1.334.974 2.286 0 .218-.022.448-.064.69-.045.244-.107.506-.195.79z" fill="none" stroke="#fff" stroke-width="4.22136198" stroke-linecap="round" stroke-linejoin="round"/><path d="M263.718 43.56c-.305.417-.58.734-.822.945-.246.21-.452.313-.628.313-.153 0-.258-.02-.315-.066-.056-.043-.087-.114-.087-.202 0-.13.222-.47.665-1.028.44-.545 1.124-1.32 2.05-2.307 2.092-2.253 4.198-3.987 6.314-5.21 2.122-1.226 4.086-1.835 5.917-1.835 1.368 0 2.446.32 3.23.96.78.64 1.172 1.494 1.172 2.58 0 .883-.248 1.62-.73 2.214-.487.594-1.067.89-1.754.89-.638 0-1.138-.153-1.505-.46-.357-.312-.54-.738-.54-1.29 0-.573.348-1.08 1.06-1.523.703-.44 1.053-.86 1.053-1.257 0-.327-.135-.604-.412-.82-.277-.225-.61-.334-1.007-.334-2.01 0-4.29 1.596-6.86 4.794-2.57 3.195-3.854 6.382-3.854 9.554 0 1.016.244 1.802.73 2.366.483.56 1.165.84 2.05.84 1.166 0 2.386-.378 3.67-1.138 1.272-.763 2.83-2.054 4.66-3.885.793-.774 1.604-1.632 2.428-2.58.832-.947 1.33-1.423 1.505-1.423.107 0 .204.033.282.1.076.066.114.142.114.232 0 .198-.208.553-.625 1.058-.42.504-1.352 1.51-2.81 3.006-1.982 1.99-3.73 3.406-5.24 4.266-1.513.86-2.97 1.29-4.38 1.29-1.676 0-3.043-.686-4.102-2.05-1.057-1.365-1.585-3.115-1.585-5.254 0-.424.03-.86.097-1.308.07-.452.154-.93.263-1.438z" fill="none" stroke="#fff" stroke-width="4.22136198" stroke-linecap="round" stroke-linejoin="round"/><path d="M295.76 23.818c0-.723.29-1.414.874-2.063.58-.647 1.215-.974 1.905-.974.546 0 .986.18 1.318.546.332.365.497.827.497 1.405 0 .75-.277 1.448-.83 2.102-.553.647-1.17.97-1.85.97-.553 0-1.008-.186-1.375-.558-.36-.377-.54-.85-.54-1.426zm-8.332 14.614c-1.236 1.24-2.518 2.61-3.854 4.117-1.333 1.513-2.12 2.268-2.362 2.268-.087 0-.156-.02-.2-.052-.044-.033-.065-.08-.065-.147 0-.29.75-1.294 2.246-3.01 1.504-1.72 3.617-3.988 6.348-6.812l4.862-.332-6.71 10.55c-1.434 2.266-2.343 3.79-2.727 4.56-.39.774-.58 1.375-.58 1.82 0 .332.118.63.345.89.235.267.502.4.813.4.83 0 1.864-.448 3.072-1.34 1.21-.892 2.83-2.42 4.86-4.583.378-.415.86-.957 1.456-1.62.88-.988 1.434-1.486 1.654-1.486.11 0 .202.034.284.1.074.066.11.142.11.232 0 .198-.183.532-.557.992-.376.46-1.222 1.378-2.543 2.745-2.275 2.317-3.994 3.87-5.16 4.676-1.168.806-2.203 1.208-3.11 1.208-1.102 0-1.988-.385-2.66-1.155-.673-.772-1.007-1.812-1.007-3.112 0-1.72 1.56-4.937 4.695-9.653.348-.55.616-.967.793-1.258z" fill="none" stroke="#fff" stroke-width="4.22136198" stroke-linecap="round" stroke-linejoin="round"/><path d="M299.987 50.305c0 .64.144 1.146.434 1.52.285.375.678.562 1.19.562.748 0 1.684-.374 2.795-1.12 1.113-.75 2.27-1.798 3.487-3.144 1.83-2.01 3.238-3.965 4.25-5.87 1.004-1.905 1.502-3.553 1.502-4.937 0-.604-.216-1.1-.645-1.51-.43-.406-.955-.61-1.57-.61-1.11 0-2.304.48-3.604 1.436-1.3.96-2.592 2.312-3.87 4.05-1.238 1.74-2.202 3.483-2.91 5.226-.706 1.74-1.06 3.205-1.06 4.397zm14.483-11.508l2.772-4.068 4.47-.264-7.438 11.705c-1.104 1.723-1.796 2.908-2.085 3.57-.29.664-.432 1.235-.432 1.72 0 .377.078.647.23.813.154.164.42.247.793.247.577 0 1.472-.48 2.697-1.443 1.227-.955 2.762-2.393 4.608-4.31.533-.53 1.146-1.18 1.838-1.95.696-.77 1.12-1.16 1.272-1.16.137 0 .235.024.3.067.07.045.098.11.098.197 0 .245-.254.676-.763 1.292-.504.616-1.286 1.457-2.343 2.515-2.38 2.445-4.14 4.04-5.275 4.774-1.135.742-2.198 1.112-3.19 1.112-.9 0-1.593-.287-2.064-.865-.476-.57-.713-1.407-.713-2.506 0-.288.02-.613.064-.98.044-.36.134-.898.27-1.6-1.546 1.96-3.036 3.44-4.483 4.447-1.445 1-2.793 1.505-4.05 1.505-1.212 0-2.17-.614-2.858-1.834-.697-1.227-1.048-2.918-1.048-5.076 0-.53.04-1.062.118-1.587.076-.53.18-1.05.315-1.557-.265.42-.518.744-.76.98-.246.226-.45.344-.632.344-.152 0-.254-.023-.31-.066-.055-.043-.084-.11-.084-.2 0-.172.288-.603.862-1.288.57-.684 1.34-1.52 2.312-2.515 2.113-2.113 4.233-3.75 6.365-4.906 2.126-1.16 4.07-1.737 5.83-1.737 1.086 0 1.946.287 2.6.86.65.573.976 1.334.976 2.286 0 .218-.026.448-.064.69-.05.244-.114.506-.202.79z" fill="none" stroke="#fff" stroke-width="4.22136198" stroke-linecap="round" stroke-linejoin="round"/><path d="M46.712 63.158c3.41.903 5.37 1.355 5.877 1.355 1.302 0 2.228-.232 2.777-.696.552-.467 1.017-1.135 1.403-2.01h2.002l.71 17.652H57.39c-1.866-4.066-3.794-7.096-5.782-9.093-3.59-3.494-8.263-5.238-14.014-5.238-5.844 0-10.987 2.034-15.422 6.118-4.43 4.082-6.65 10.807-6.65 20.17 0 7.73 2.21 13.764 6.63 18.104 4.42 4.345 9.877 6.517 16.373 6.517 1.1 0 2.39-.1 3.87-.288 1.486-.194 2.895-.488 4.23-.897 2.166-.66 3.517-1.22 4.047-1.7.536-.475.803-1.18.803-2.11V97.69c0-3.246-.497-5.26-1.492-6.06-.995-.79-3.167-1.286-6.517-1.476v-1.56h23.227v1.56c-2.255.135-3.752.474-4.498 1.024-1.244.87-1.867 2.672-1.867 5.403v16.51c0 .98-2.62 2.293-7.853 3.93-5.235 1.637-10.27 2.46-15.104 2.46-8.9 0-16.404-2.394-22.515-7.172C8.122 107.042 4.75 99.97 4.75 91.092c0-7.808 2.692-14.5 8.056-20.07 5.905-6.14 13.74-9.214 23.494-9.214 3.53 0 7.003.453 10.412 1.35M82.49 80.36v26.213c0 1.86.278 3.347.842 4.465 1.097 2.075 3.113 3.115 6.048 3.115 2.018 0 3.994-.613 5.92-1.845 1.097-.682 2.21-1.62 3.34-2.826v-22.44c0-2.106-.445-3.483-1.338-4.14-.886-.658-2.665-1.05-5.34-1.19v-1.353h14.375v28.835c0 1.855.362 3.134 1.09 3.83.726.697 2.264 1.003 4.602.927v1.142c-1.63.412-2.832.718-3.604.92-.768.207-2.06.584-3.868 1.13-.773.24-2.47.835-5.077 1.76-.146 0-.236-.06-.26-.186-.035-.12-.045-.263-.045-.43v-6.593c-2.023 2.21-3.86 3.85-5.524 4.913-2.52 1.64-5.19 2.463-8.003 2.463-2.582 0-5.013-.852-7.3-2.545-2.31-1.67-3.467-4.473-3.467-8.41V86.833c0-2.168-.504-3.62-1.514-4.352-.656-.453-2.046-.783-4.183-.972v-1.15H82.49zM140.063 95.6c-3.41 1.034-6.23 2.18-8.455 3.438-4.273 2.428-6.408 5.19-6.408 8.275 0 2.482.89 4.313 2.673 5.488 1.15.764 2.447 1.153 3.868 1.153 1.96 0 3.84-.51 5.63-1.52 1.793-1.008 2.693-2.3 2.693-3.853V95.6zm-16.33 4.625c2.73-1.635 8.174-3.86 16.33-6.673v-3.485c0-2.786-.3-4.726-.888-5.81-1.012-1.832-3.104-2.75-6.276-2.75-1.514 0-2.955.354-4.317 1.065-1.362.74-2.05 1.748-2.05 3.034 0 .325.075.882.226 1.656.144.777.222 1.277.222 1.495 0 1.533-.552 2.6-1.647 3.196-.623.355-1.366.53-2.224.53-1.333 0-2.356-.4-3.07-1.208-.712-.803-1.067-1.698-1.067-2.68 0-1.91 1.28-3.912 3.844-6.002 2.568-2.09 6.328-3.136 11.286-3.136 5.75 0 9.655 1.724 11.7 5.164 1.094 1.884 1.64 4.63 1.64 8.233v16.428c0 1.58.124 2.67.36 3.273.385 1.066 1.188 1.6 2.4 1.6.688 0 1.25-.09 1.697-.286.443-.194 1.215-.658 2.312-1.395v2.132c-.954 1.064-1.973 1.94-3.075 2.62-1.658 1.035-3.35 1.56-5.07 1.56-2.015 0-3.477-.603-4.384-1.804-.9-1.2-1.397-2.632-1.488-4.302-2.255 1.8-4.178 3.134-5.784 4.013-2.697 1.477-5.265 2.214-7.698 2.214-2.55 0-4.76-.827-6.63-2.478-1.865-1.656-2.8-3.748-2.8-6.292 0-3.956 2.15-7.258 6.45-9.91M183.223 112.76c1.42-1.256 2.134-2.438 2.134-3.566V91.627c0-3.55-1.03-6.058-3.09-7.517-2.062-1.464-4.07-2.19-6.028-2.19-3.74 0-6.648 1.517-8.723 4.566-2.078 3.044-3.115 6.79-3.115 11.24 0 4.4 1.104 8.32 3.312 11.755 2.212 3.438 5.51 5.16 9.9 5.16 2.316 0 4.183-.623 5.61-1.88m-1.29-31.867c1.184.578 2.33 1.37 3.423 2.376V70.25c0-1.67-.2-2.817-.597-3.445-.403-.63-1.362-.94-2.876-.94-.353 0-.665.01-.93.036-.268.03-.863.083-1.78.164v-1.348l3.646-.86c1.334-.33 2.67-.668 4.01-1.023 1.33-.355 2.502-.7 3.516-1.023.464-.138 1.255-.396 2.352-.782l.27.08-.09 4.305c-.03 1.554-.057 3.155-.092 4.81-.03 1.654-.043 3.286-.043 4.897l-.087 33.46c0 1.778.234 3.016.705 3.727.482.713 1.738 1.068 3.792 1.068.322 0 .65-.01.976-.02.33-.017.653-.05.978-.105v1.355c-.175.05-2.33.734-6.45 2.047l-6.986 2.418-.313-.372v-5.038c-1.663 1.667-3.1 2.854-4.316 3.565-2.162 1.23-4.668 1.845-7.518 1.845-5.043 0-9.127-1.798-12.257-5.39-3.13-3.588-4.697-7.743-4.697-12.47 0-5.923 1.876-11.012 5.63-15.257 3.753-4.247 8.344-6.367 13.773-6.367 2.167 0 4.154.433 5.964 1.307M226.07 95.6c-3.416 1.034-6.23 2.18-8.457 3.438-4.27 2.428-6.405 5.19-6.405 8.275 0 2.482.886 4.313 2.667 5.488 1.158.764 2.452 1.153 3.873 1.153 1.96 0 3.835-.51 5.626-1.52 1.798-1.008 2.696-2.3 2.696-3.853V95.6zm-16.333 4.625c2.733-1.635 8.177-3.86 16.333-6.673v-3.485c0-2.786-.298-4.726-.893-5.81-1.004-1.832-3.096-2.75-6.275-2.75-1.51 0-2.95.354-4.312 1.065-1.366.74-2.046 1.748-2.046 3.034 0 .325.07.882.222 1.656.145.777.22 1.277.22 1.495 0 1.533-.55 2.6-1.646 3.196-.625.355-1.364.53-2.22.53-1.338 0-2.366-.4-3.072-1.208-.715-.803-1.07-1.698-1.07-2.68 0-1.91 1.28-3.912 3.85-6.002 2.56-2.09 6.32-3.136 11.282-3.136 5.754 0 9.653 1.724 11.698 5.164 1.1 1.884 1.644 4.63 1.644 8.233v16.428c0 1.58.118 2.67.36 3.273.386 1.066 1.182 1.6 2.404 1.6.682 0 1.24-.09 1.687-.286.45-.194 1.22-.658 2.314-1.395v2.132c-.95 1.064-1.973 1.94-3.072 2.62-1.66 1.035-3.35 1.56-5.067 1.56-2.016 0-3.48-.603-4.383-1.804-.905-1.2-1.402-2.632-1.492-4.302-2.255 1.8-4.184 3.134-5.785 4.013-2.698 1.477-5.27 2.214-7.7 2.214-2.55 0-4.76-.827-6.63-2.478-1.866-1.656-2.802-3.748-2.802-6.292 0-3.956 2.153-7.258 6.45-9.91M242.264 117.14c2.76-.243 4.63-.76 5.605-1.532.98-.78 1.47-2.302 1.47-4.57V71.022c0-1.802-.166-3.043-.49-3.725-.593-1.144-1.796-1.718-3.604-1.718-.42 0-.87.038-1.36.124-.487.08-1.1.202-1.847.365v-1.35c4.007-.985 8.825-2.293 14.46-3.93.207 0 .337.078.375.244.05.165.074.518.074 1.065v49.11c0 2.373.444 3.908 1.332 4.607.89.7 2.73 1.142 5.515 1.33v1.146h-21.533v-1.147zM279.817 80.36v26.213c0 1.86.28 3.347.845 4.465 1.1 2.075 3.113 3.115 6.053 3.115 2.016 0 3.987-.613 5.915-1.845 1.1-.682 2.21-1.62 3.34-2.826v-22.44c0-2.106-.445-3.483-1.336-4.14-.888-.658-2.67-1.05-5.34-1.19v-1.353h14.373v28.835c0 1.855.362 3.134 1.092 3.83.72.697 2.26 1.003 4.604.927v1.142c-1.632.412-2.838.718-3.606.92-.777.207-2.06.584-3.873 1.13-.772.24-2.46.835-5.07 1.76-.153 0-.238-.06-.264-.186-.033-.12-.05-.263-.05-.43v-6.593c-2.015 2.21-3.85 3.85-5.514 4.913-2.523 1.64-5.19 2.463-8.01 2.463-2.584 0-5.016-.852-7.298-2.545-2.314-1.67-3.468-4.473-3.468-8.41V86.833c0-2.168-.504-3.62-1.513-4.352-.652-.453-2.045-.783-4.182-.972v-1.15h13.302zM329.275 114.874c1.526.912 3.326 1.366 5.406 1.366 3.204 0 5.94-1.466 8.21-4.394 2.266-2.935 3.405-7.017 3.405-12.254 0-5.017-1.186-8.77-3.54-11.25-2.356-2.48-5.094-3.722-8.21-3.722-2.195 0-4.2.624-6.01 1.862-1.807 1.24-2.707 2.46-2.707 3.663v20.574c.768 1.853 1.917 3.237 3.447 4.154m-17.553 20.33c2.764-.164 4.524-.71 5.28-1.638.746-.93 1.125-2.387 1.125-4.382v-39.32c0-2.08-.275-3.405-.822-3.99-.55-.59-1.58-.88-3.094-.88-.326 0-.627.01-.91.034-.285.028-.692.085-1.223.168v-1.353l4.226-1.272c.147-.02 3.132-.967 8.943-2.827.146 0 .262.066.336.187.073.123.107.265.107.43v5.528c1.96-1.798 3.68-3.137 5.16-4.01 2.67-1.53 5.416-2.29 8.232-2.29 4.096 0 7.62 1.598 10.57 4.8 2.95 3.21 4.425 7.59 4.425 13.157 0 5.453-1.774 10.407-5.316 14.853-3.545 4.45-8 6.67-13.37 6.67-1.657 0-3.102-.19-4.317-.577-1.897-.57-3.643-1.62-5.245-3.15v13.432c0 2.762.488 4.458 1.467 5.08.978.63 3.108 1.053 6.407 1.268v1.436h-21.98v-1.353zM367.38 86.996c-.952 1.476-1.63 3.334-2.05 5.57h18.784c-.325-2.73-.89-4.76-1.692-6.103-1.454-2.402-3.89-3.603-7.298-3.603-3.385 0-5.963 1.38-7.744 4.136m21.317-3.134c3.14 2.663 4.712 6.44 4.712 11.326h-28.252c.294 6.325 1.855 10.928 4.67 13.815 2.818 2.886 6.158 4.328 10.015 4.328 3.115 0 5.735-.745 7.87-2.244 2.138-1.497 4.11-3.622 5.924-6.377l1.556.49c-1.22 3.474-3.492 6.69-6.832 9.638-3.332 2.954-7.423 4.435-12.258 4.435-5.58 0-9.89-1.94-12.922-5.818-3.047-3.878-4.563-8.34-4.563-13.392 0-5.488 1.765-10.226 5.29-14.215 3.53-3.987 8.13-5.975 13.8-5.975 4.18 0 7.842 1.33 10.99 3.99" fill="#00aeef"/><path d="M139.765 13.473c0 .462-.195 1.11-.595 1.933-.396.827-1.033 1.89-1.914 3.19-2.054 2.998-4.278 5.23-6.68 6.695-2.402 1.47-5.046 2.2-7.936 2.2-2.973 0-5.41-.704-7.306-2.113-1.897-1.415-2.84-3.2-2.84-5.356 0-1.918.637-3.745 1.914-5.476 1.28-1.727 3.12-3.267 5.52-4.608 2.82-1.566 6.2-2.703 10.136-3.404 3.935-.71 9.063-1.063 15.39-1.063.46 0 1.69.022 3.687.067 1.993.043 3.74.067 5.238.067 3.904 0 7.792-.242 11.674-.725.77-.09 1.244-.134 1.42-.134.22 0 .4.047.53.147.13.1.2.23.2.38 0 .82-1.122 1.733-3.358 2.745-2.236 1.013-4.757 1.52-7.554 1.52-1.874 0-5.195-.282-9.97-.84-4.77-.564-8.624-.85-11.554-.85-6.526 0-11.86 1.13-16 3.375-4.147 2.25-6.215 5.05-6.215 8.4 0 1.542.7 2.83 2.1 3.87 1.395 1.036 3.167 1.552 5.303 1.552 2.734 0 5.45-.71 8.154-2.132 2.698-1.424 5.195-3.466 7.486-6.135.616-.725 1.243-1.54 1.87-2.445.627-.907 1.017-1.357 1.174-1.357.042 0 .076.026.095.08.026.057.033.197.033.417m-6.778 18.747c-3.81 1.256-7.34 3.46-10.58 6.612-.812.794-1.32 1.187-1.518 1.187-.048-.023-.084-.05-.1-.08-.026-.037-.033-.085-.033-.15 0-.328.286-.82.857-1.474.576-.647 1.457-1.455 2.644-2.426 1.28-1.064 2.705-1.997 4.27-2.814 1.562-.813 3.348-1.55 5.36-2.213 3.188-5.685 6.616-10.473 10.273-14.348 3.66-3.88 6.22-5.818 7.672-5.818.11 0 .182.004.204.014.02.015.042.053.066.117 0 .066-.187.263-.566.592-4.08 3.93-8.085 10.143-12.03 18.652 3.7-.422 7.436-1.69 11.205-3.807.91-.505 1.458-.758 1.655-.758.154 0 .28.033.376.097.103.07.15.156.15.263 0 .092-.253.434-.757 1.028-2.36 2.734-4.46 5.882-6.285 9.454-.11.265-.263.618-.46 1.06-.464 1.012-.912 1.654-1.36 1.92-.634.42-1.397.8-2.278 1.155-.88.356-1.455.53-1.718.53-.087 0-.168-.06-.23-.186-.07-.12-.1-.276-.1-.48 0-.615.828-2.1 2.49-4.46 1.668-2.36 3.703-4.773 6.103-7.24-1.495.657-3.018 1.2-4.562 1.618-1.543.422-3.163.706-4.857.858-4.188 7.583-9.193 13.24-15.01 16.966-5.822 3.722-12.533 5.586-20.134 5.586-5.646 0-10.1-1.246-13.36-3.734-3.265-2.496-4.895-5.88-4.895-10.155 0-4.495 1.724-8.28 5.174-11.355 3.452-3.075 7.723-4.617 12.816-4.617 3.923 0 7.13.97 9.618 2.897 2.494 1.928 3.736 4.366 3.736 7.322 0 3.175-1.41 5.946-4.23 8.315-2.823 2.374-6.198 3.556-10.12 3.556-2.135 0-4.08-.337-5.833-1.007-1.753-.674-2.627-1.264-2.627-1.768 0-.067.03-.114.097-.15.066-.035.168-.052.3-.052.11 0 .394.11.853.332 2.338 1.123 4.686 1.686 7.045 1.686 3.682 0 6.797-.997 9.34-2.994 2.55-1.992 3.82-4.378 3.82-7.16 0-2.486-.94-4.485-2.824-6-1.885-1.508-4.405-2.26-7.553-2.26-4.96 0-9.25 1.415-12.864 4.246-3.614 2.833-5.42 6.133-5.42 9.902 0 3.615 1.528 6.543 4.59 8.777 3.067 2.24 7.113 3.356 12.14 3.356 6.43 0 11.986-1.633 16.66-4.895 4.67-3.258 8.94-8.493 12.794-15.7M149.124 50.305c0 .64.145 1.146.43 1.52.283.375.68.562 1.19.562.744 0 1.682-.374 2.793-1.12 1.114-.75 2.277-1.798 3.487-3.144 1.83-2.01 3.243-3.965 4.252-5.87 1-1.905 1.502-3.553 1.502-4.937 0-.604-.215-1.1-.646-1.51-.427-.406-.95-.61-1.57-.61-1.1 0-2.303.48-3.604 1.436-1.3.96-2.59 2.312-3.868 4.05-1.235 1.74-2.2 3.483-2.907 5.226-.708 1.74-1.06 3.205-1.06 4.397m14.482-11.508l2.776-4.068 4.464-.264-7.436 11.705c-1.108 1.723-1.798 2.908-2.082 3.57-.29.664-.433 1.235-.433 1.72 0 .377.08.647.234.813.154.164.42.247.79.247.575 0 1.473-.48 2.695-1.443 1.222-.955 2.762-2.393 4.61-4.31.53-.53 1.144-1.18 1.836-1.95.696-.77 1.122-1.16 1.276-1.16.133 0 .23.024.3.067.063.045.094.11.094.197 0 .245-.254.676-.756 1.292-.512.616-1.29 1.457-2.35 2.515-2.38 2.445-4.14 4.04-5.273 4.774-1.136.742-2.202 1.112-3.192 1.112-.903 0-1.592-.287-2.068-.865-.474-.57-.708-1.407-.708-2.506 0-.288.02-.613.06-.98.05-.36.134-.898.267-1.6-1.54 1.96-3.034 3.44-4.48 4.447-1.444 1-2.796 1.505-4.047 1.505-1.213 0-2.165-.614-2.862-1.834-.69-1.227-1.04-2.918-1.04-5.076 0-.53.04-1.062.117-1.587.074-.53.178-1.05.316-1.557-.27.42-.52.744-.766.98-.24.226-.45.344-.627.344-.15 0-.256-.023-.313-.066-.055-.043-.08-.11-.08-.2 0-.172.284-.603.855-1.288.575-.684 1.347-1.52 2.32-2.515 2.114-2.113 4.237-3.75 6.362-4.906 2.124-1.16 4.067-1.737 5.834-1.737 1.083 0 1.945.287 2.6.86.646.573.97 1.334.97 2.286 0 .218-.02.448-.064.69-.045.244-.11.506-.2.79" fill="#f47920"/><path d="M173.092 53.28l8.794-13.127.267-.427c1.256-1.855 1.88-3.07 1.88-3.64 0-.31-.07-.53-.212-.676-.14-.144-.378-.213-.707-.213-.728 0-1.673.462-2.83 1.386-1.155.928-2.856 2.594-5.106 4.993-.464.484-1.014 1.114-1.654 1.886-.77.943-1.28 1.42-1.516 1.42-.09 0-.173-.027-.237-.084-.066-.052-.1-.114-.1-.18 0-.175.105-.42.318-.732.21-.306.62-.812 1.237-1.516l2.15-2.352c2.18-2.334 3.834-3.904 4.942-4.707 1.12-.805 2.132-1.207 3.06-1.207.766 0 1.406.274 1.9.824.494.557.745 1.246.745 2.087 0 1.078-.204 2.182-.61 3.304-.41 1.123-1.288 2.824-2.626 5.09l.06-.065c2.448-2.355 4.365-4.127 5.758-5.325.855-2.29 1.69-3.847 2.492-4.677.805-.825 1.822-1.237 3.06-1.237.44 0 .81.104 1.104.315.304.206.448.47.448.78 0 .77-1.31 2.124-3.937 4.064-.44.33-.778.58-1.022.756-.99.732-1.7 1.494-2.132 2.286-.427.79-.645 1.698-.645 2.71 0 .552.162.99.485 1.324.315.33.715.493 1.205.493 1.12 0 2.258-.535 3.402-1.62 1.15-1.075 1.734-1.62 1.75-1.62.136.024.23.062.302.116.068.054.097.126.097.216 0 .533-.64 1.295-1.928 2.297-1.293 1.006-2.444 1.508-3.458 1.508-.926 0-1.632-.232-2.12-.682-.48-.45-.725-1.104-.725-1.964 0-.33.07-.75.202-1.258.126-.506.346-1.167.66-1.987-1.347 1.128-2.832 2.58-4.447 4.352-1.62 1.773-3.48 3.983-5.572 6.627l-4.73.464z" fill="#f47920"/><path d="M195.38 53.344l8.86-13.19.265-.428c1.253-1.853 1.885-3.068 1.885-3.64 0-.307-.073-.53-.21-.677-.148-.143-.382-.216-.718-.216-.728 0-1.675.464-2.824 1.388-1.163.93-2.862 2.592-5.11 4.996-.462.48-1.016 1.11-1.653 1.883-.773.946-1.282 1.423-1.52 1.423-.09 0-.17-.03-.233-.083-.07-.052-.1-.116-.1-.183 0-.175.104-.417.313-.73.208-.307.625-.812 1.24-1.515l2.152-2.353c2.177-2.336 3.826-3.907 4.94-4.71 1.11-.805 2.136-1.206 3.055-1.206.82 0 1.462.284 1.94.858.472.575.71 1.355.71 2.354 0 1.01-.215 2.102-.646 3.27-.43 1.165-1.116 2.51-2.068 4.03 3.044-3.836 5.456-6.546 7.244-8.133 1.782-1.59 3.293-2.38 4.53-2.38.79 0 1.447.27 1.954.81.5.54.758 1.217.758 2.034 0 1.187-.227 2.385-.68 3.586-.452 1.2-1.173 2.52-2.163 3.954 3.59-4.077 6.217-6.83 7.885-8.253 1.663-1.42 3.013-2.13 4.05-2.13.773 0 1.39.308 1.853.926.464.62.69 1.42.69 2.414 0 1.696-1.123 4.065-3.367 7.105-.35.506-.624.894-.828 1.157-1.215 1.675-2.032 2.916-2.463 3.72-.428.807-.64 1.458-.64 1.97 0 .396.082.7.257.907.175.21.455.313.822.313.58 0 1.49-.495 2.747-1.49 1.26-.985 2.78-2.42 4.565-4.295.528-.528 1.132-1.19 1.817-1.983.71-.794 1.134-1.192 1.292-1.192.105 0 .204.04.294.116.088.073.13.147.13.213 0 .356-.98 1.533-2.937 3.537l-.4.398c-1.87 1.916-3.436 3.345-4.694 4.283-1.258.938-2.215 1.405-2.88 1.405-.965 0-1.756-.44-2.346-1.322-.592-.88-.886-2.037-.886-3.473 0-1.033.265-2.113.808-3.24.538-1.124 1.71-2.82 3.52-5.09.237-.31.583-.73 1.026-1.257 1.296-1.606 1.95-2.677 1.95-3.207-.024-.305-.084-.516-.18-.627-.098-.11-.297-.175-.586-.2-.964 0-2.95 1.58-5.962 4.73-3.016 3.152-6.645 7.468-10.895 12.96l-4.73.46 8.795-13.19c.903-1.344 1.486-2.278 1.737-2.792.255-.517.38-.963.38-1.34 0-.305-.072-.52-.217-.644-.142-.12-.39-.182-.74-.182-1.766 0-6.77 5.08-15.02 15.244l-1.978 2.444-4.792.462z" fill="#f47920"/><path d="M239.386 50.305c0 .64.144 1.146.43 1.52.285.375.68.562 1.188.562.753 0 1.682-.374 2.795-1.12 1.113-.75 2.273-1.798 3.486-3.144 1.834-2.01 3.243-3.965 4.25-5.87 1.004-1.905 1.502-3.553 1.502-4.937 0-.604-.213-1.1-.647-1.51-.423-.406-.95-.61-1.565-.61-1.106 0-2.307.48-3.605 1.436-1.298.96-2.587 2.312-3.866 4.05-1.234 1.74-2.206 3.483-2.91 5.226-.707 1.74-1.058 3.205-1.058 4.397m14.483-11.508l2.773-4.068 4.463-.264-7.433 11.705c-1.107 1.723-1.798 2.908-2.087 3.57-.29.664-.434 1.235-.434 1.72 0 .377.078.647.235.813.154.164.417.247.79.247.577 0 1.474-.48 2.697-1.443 1.227-.955 2.762-2.393 4.612-4.31.528-.53 1.142-1.18 1.833-1.95.694-.77 1.122-1.16 1.272-1.16.14 0 .234.024.298.067.07.045.1.11.1.197 0 .245-.252.676-.76 1.292s-1.287 1.457-2.346 2.515c-2.383 2.445-4.14 4.04-5.278 4.774-1.128.742-2.194 1.112-3.186 1.112-.907 0-1.59-.287-2.063-.865-.48-.57-.718-1.407-.718-2.506 0-.288.025-.613.067-.98.043-.36.133-.898.27-1.6-1.544 1.96-3.04 3.44-4.484 4.447-1.445 1-2.793 1.505-4.048 1.505-1.21 0-2.168-.614-2.86-1.834-.696-1.227-1.042-2.918-1.042-5.076 0-.53.038-1.062.116-1.587.073-.53.177-1.05.31-1.557-.266.42-.517.744-.758.98-.244.226-.45.344-.63.344-.154 0-.26-.023-.313-.066-.056-.043-.082-.11-.082-.2 0-.172.287-.603.858-1.288.57-.684 1.348-1.52 2.312-2.515 2.118-2.113 4.235-3.75 6.37-4.906 2.125-1.16 4.067-1.737 5.832-1.737 1.085 0 1.945.287 2.594.86.65.573.974 1.334.974 2.286 0 .218-.022.448-.064.69-.045.244-.107.506-.195.79" fill="#f47920"/><path d="M263.718 43.56c-.305.417-.58.734-.822.945-.246.21-.452.313-.628.313-.153 0-.258-.02-.315-.066-.056-.043-.087-.114-.087-.202 0-.13.222-.47.665-1.028.44-.545 1.124-1.32 2.05-2.307 2.092-2.253 4.198-3.987 6.314-5.21 2.122-1.226 4.086-1.835 5.917-1.835 1.368 0 2.446.32 3.23.96.78.64 1.172 1.494 1.172 2.58 0 .883-.248 1.62-.73 2.214-.487.594-1.067.89-1.754.89-.638 0-1.138-.153-1.505-.46-.357-.312-.54-.738-.54-1.29 0-.573.348-1.08 1.06-1.523.703-.44 1.053-.86 1.053-1.257 0-.327-.135-.604-.412-.82-.277-.225-.61-.334-1.007-.334-2.01 0-4.29 1.596-6.86 4.794-2.57 3.195-3.854 6.382-3.854 9.554 0 1.016.244 1.802.73 2.366.483.56 1.165.84 2.05.84 1.166 0 2.386-.378 3.67-1.138 1.272-.763 2.83-2.054 4.66-3.885.793-.774 1.604-1.632 2.428-2.58.832-.947 1.33-1.423 1.505-1.423.107 0 .204.033.282.1.076.066.114.142.114.232 0 .198-.208.553-.625 1.058-.42.504-1.352 1.51-2.81 3.006-1.982 1.99-3.73 3.406-5.24 4.266-1.513.86-2.97 1.29-4.38 1.29-1.676 0-3.043-.686-4.102-2.05-1.057-1.365-1.585-3.115-1.585-5.254 0-.424.03-.86.097-1.308.07-.452.154-.93.263-1.438" fill="#f47920"/><path d="M295.76 23.818c0-.723.29-1.414.874-2.063.58-.647 1.215-.974 1.905-.974.546 0 .986.18 1.318.546.332.365.497.827.497 1.405 0 .75-.277 1.448-.83 2.102-.553.647-1.17.97-1.85.97-.553 0-1.008-.186-1.375-.558-.36-.377-.54-.85-.54-1.426m-8.332 14.614c-1.236 1.24-2.518 2.61-3.854 4.117-1.333 1.513-2.12 2.268-2.362 2.268-.087 0-.156-.02-.2-.052-.044-.033-.065-.08-.065-.147 0-.29.75-1.294 2.246-3.01 1.504-1.72 3.617-3.988 6.348-6.812l4.862-.332-6.71 10.55c-1.434 2.266-2.343 3.79-2.727 4.56-.39.774-.58 1.375-.58 1.82 0 .332.118.63.345.89.235.267.502.4.813.4.83 0 1.864-.448 3.072-1.34 1.21-.892 2.83-2.42 4.86-4.583.378-.415.86-.957 1.456-1.62.88-.988 1.434-1.486 1.654-1.486.11 0 .202.034.284.1.074.066.11.142.11.232 0 .198-.183.532-.557.992-.376.46-1.222 1.378-2.543 2.745-2.275 2.317-3.994 3.87-5.16 4.676-1.168.806-2.203 1.208-3.11 1.208-1.102 0-1.988-.385-2.66-1.155-.673-.772-1.007-1.812-1.007-3.112 0-1.72 1.56-4.937 4.695-9.653.348-.55.616-.967.793-1.258" fill="#f47920"/><path d="M299.987 50.305c0 .64.144 1.146.434 1.52.285.375.678.562 1.19.562.748 0 1.684-.374 2.795-1.12 1.113-.75 2.27-1.798 3.487-3.144 1.83-2.01 3.238-3.965 4.25-5.87 1.004-1.905 1.502-3.553 1.502-4.937 0-.604-.216-1.1-.645-1.51-.43-.406-.955-.61-1.57-.61-1.11 0-2.304.48-3.604 1.436-1.3.96-2.592 2.312-3.87 4.05-1.238 1.74-2.202 3.483-2.91 5.226-.706 1.74-1.06 3.205-1.06 4.397m14.484-11.508l2.772-4.068 4.47-.264-7.438 11.705c-1.104 1.723-1.796 2.908-2.085 3.57-.29.664-.432 1.235-.432 1.72 0 .377.078.647.23.813.154.164.42.247.793.247.577 0 1.472-.48 2.697-1.443 1.227-.955 2.762-2.393 4.608-4.31.533-.53 1.146-1.18 1.838-1.95.696-.77 1.12-1.16 1.272-1.16.137 0 .235.024.3.067.07.045.098.11.098.197 0 .245-.254.676-.763 1.292-.504.616-1.286 1.457-2.343 2.515-2.38 2.445-4.14 4.04-5.275 4.774-1.135.742-2.198 1.112-3.19 1.112-.9 0-1.593-.287-2.064-.865-.476-.57-.713-1.407-.713-2.506 0-.288.02-.613.064-.98.044-.36.134-.898.27-1.6-1.546 1.96-3.036 3.44-4.483 4.447-1.445 1-2.793 1.505-4.05 1.505-1.212 0-2.17-.614-2.858-1.834-.697-1.227-1.048-2.918-1.048-5.076 0-.53.04-1.062.118-1.587.076-.53.18-1.05.315-1.557-.265.42-.518.744-.76.98-.246.226-.45.344-.632.344-.152 0-.254-.023-.31-.066-.055-.043-.084-.11-.084-.2 0-.172.288-.603.862-1.288.57-.684 1.34-1.52 2.312-2.515 2.113-2.113 4.233-3.75 6.365-4.906 2.126-1.16 4.07-1.737 5.83-1.737 1.086 0 1.946.287 2.6.86.65.573.976 1.334.976 2.286 0 .218-.026.448-.064.69-.05.244-.114.506-.202.79" fill="#f47920"/></svg>