<svg xmlns="http://www.w3.org/2000/svg" width="500" height="312.992"><path d="M500 312.992H0V0h500v312.992z" fill="#f04e23"/><path d="M362.487 230.518c0 2.69-.998 5.156-2.983 7.393-2.043 2.22-4.978 4.51-8.813 6.864l-8.67 5.486-.07.12c3.555-.165 9.548-.247 17.99-.247l-1.177 5.105H331.8l.964-4.522 10.925-7.02c4.313-2.686 7.354-4.896 9.112-6.62 1.66-1.685 2.467-3.45 2.422-5.293 0-1.216-.444-2.278-1.315-3.195-.928-.972-2.53-1.477-4.808-1.51-3.844.033-7.128.9-9.865 2.58v-5.164c3.608-1.44 7.445-2.173 11.526-2.22 4.026.047 7.01.846 8.95 2.4 1.846 1.56 2.774 3.512 2.774 5.844M401.168 235.434c0-2.478-.732-4.497-2.2-6.056-1.51-1.496-3.894-2.267-7.176-2.302-4.514.082-8.122 1.647-10.805 4.703-2.814 3.03-4.238 6.716-4.283 11.037 0 2.417.77 4.363 2.313 5.843 1.475 1.555 3.717 2.334 6.706 2.334 4.257-.036 7.874-1.58 10.848-4.614 3.02-2.848 4.553-6.495 4.598-10.946m6.54-.83c-.103 6.226-2.345 11.294-6.733 15.217-4.36 3.943-9.787 5.955-16.292 6.037-9.674-.082-14.507-4.056-14.507-11.914.045-6.257 2.24-11.398 6.582-15.417 4.17-4.09 9.556-6.17 16.147-6.252 9.822.167 14.755 4.278 14.802 12.33M426.24 255.238h-6.612l6.167-26.808-9.014 3.006v-5.158l11.38-3.418h5.296l-7.215 32.378zM466.787 230.518c0 2.69-.998 5.156-2.983 7.393-2.04 2.22-4.978 4.51-8.822 6.864l-8.66 5.486-.072.12c3.553-.165 9.548-.247 17.978-.247l-1.17 5.105h-26.953l.96-4.522 10.928-7.02c4.313-2.686 7.353-4.896 9.11-6.62 1.66-1.685 2.466-3.45 2.414-5.293 0-1.216-.44-2.278-1.316-3.195-.922-.972-2.522-1.477-4.81-1.51-3.838.033-7.123.9-9.85 2.58v-5.164c3.608-1.44 7.442-2.173 11.515-2.22 4.034.047 7.017.846 8.957 2.4 1.85 1.56 2.775 3.512 2.775 5.844M433.003 195.202h-8.822v-28.39l8.823 11.887V195.2zM448.625 162.383h8.81v28.356l-8.81-11.874v-16.483zM389.624 178.72c0-5.47 4.137-9.99 9.56-10.798v-7.17c-10.502.7-18.754 8.378-18.754 17.74 0 9.36 8.252 17.035 18.753 17.726v-6.69c-5.422-.806-9.56-5.343-9.56-10.808M248.818 195.202h-8.813v-32.804h8.813v32.804zM314.438 195.202h-8.822V162.37h8.822v32.832zM457.622 195.202h-8.814l-24.082-32.81h8.82l24.076 32.81zM281.716 195.202h-8.822v-32.804h8.822v32.804zM268.858 168.554H250.84v-6.158h18.018v6.158zM266.09 181.8h-15.25v-6.16h15.25v6.16zM301.944 168.554h-18.027v-6.158h18.027v6.158zM301.944 195.202h-18.027v-6.163h18.027v6.162zM297.347 180.714H283.92v-5.53h13.427v5.53zM317.192 162.398h9.2c15.43 0 14.893 19.093.924 19.093l12.672 13.71-11.878.025-11.09-13.574v-4.776h6.423c6.81 0 7.175-8.318.2-8.318h-6.622l.172-6.158zM421.053 178.49c0-9.58-8.653-17.395-19.488-17.772v7.094c5.95.312 10.666 5.077 10.666 10.907 0 5.828-4.716 10.592-10.665 10.91v6.626c10.835-.38 19.488-8.175 19.488-17.766" fill="#fff"/><path d="M349.55 178.72c0-5.47 4.138-9.99 9.555-10.798v-7.17c-10.485.7-18.75 8.378-18.75 17.74 0 9.36 8.265 17.035 18.75 17.726v-6.69c-5.417-.806-9.556-5.343-9.556-10.808M361.317 160.718v7.094c3.87.202 7.233 2.3 9.093 5.36h9.467c-2.5-7.004-9.828-12.15-18.56-12.454M361.317 189.63v6.626c8.794-.302 16.166-5.516 18.613-12.603h-9.166c-1.777 3.392-5.313 5.766-9.447 5.978" fill="#fff"/><path d="M137.01 229.455l-7.553-5.575-7.723 51.402-85.605-59.038 6.896-44.773-9.813 6.082 14.79-93.53 84.687-53.607-4.552 30.977 14.3-9.136 11.35 6.772 4.638-25.243 85.028 48.962-15.32 91.698-7.01-3.92-7.013 48.817-85.38 63.235 8.28-53.122z" fill="#f1f1f1"/><path d="M136.08 134.306l60.003 39.77-59.2 49.147-64.096-47.315 63.293-41.602z" fill="#f04e2c"/><path d="M136.08 134.306l60.003 39.77-59.2 49.147-64.096-47.315 63.293-41.602z" fill="none" stroke="#000" stroke-width="3.2546696" stroke-linecap="round" stroke-linejoin="round"/><path d="M125.653 40.642l-11.955 81.324-73.337 45.43 12.786-80.86 72.507-45.894z" fill="#f57f2f"/><path d="M125.653 40.642l-11.955 81.324-73.337 45.43 12.786-80.86 72.507-45.894z" fill="none" stroke="#000" stroke-width="3.2546696" stroke-linecap="round" stroke-linejoin="round"/><path d="M162.526 41.733l75.016 43.197-13.637 81.61s-76.374-42.747-76.374-42.978c0-.227 14.996-81.83 14.996-81.83"/><path d="M162.526 41.733l75.016 43.197-13.637 81.61s-76.374-42.747-76.374-42.978c0-.227 14.996-81.83 14.996-81.83z" fill="none" stroke="#000" stroke-width="3.2546696" stroke-linecap="round" stroke-linejoin="round"/><path d="M220.63 135.452l-11.726 81.598-72.824 53.94 13.073-83.872 71.476-51.666z" fill="#0c4c95"/><path d="M220.63 135.452l-11.726 81.598-72.824 53.94 13.073-83.872 71.476-51.666z" fill="none" stroke="#000" stroke-width="3.2546696" stroke-linecap="round" stroke-linejoin="round"/><path d="M54.79 131.107l75.274 51.89-12.537 83.42-75.56-52.108 12.822-83.203z" fill="#007742"/><path d="M54.79 131.107l75.274 51.89-12.537 83.42-75.56-52.108 12.822-83.203z" fill="none" stroke="#000" stroke-width="3.2546696" stroke-linecap="round" stroke-linejoin="round"/><path d="M142.55 57.975l79.65 47.5-77.257 57.118-79.87-55.11 77.477-49.508z" fill="#ffe800"/><path d="M142.55 57.975l79.65 47.5-77.257 57.118-79.87-55.11 77.477-49.508z" fill="none" stroke="#000" stroke-width="3.2546696" stroke-linecap="round" stroke-linejoin="round"/></svg>