<svg xmlns="http://www.w3.org/2000/svg" width="363.695" height="400"><path d="M363.695 363.695H0V0h363.695v363.695z" fill="#231f20"/><path d="M313.66 220.977h-47.94c-1.022-55.68.69-114.974 9.812-146.862.73-2.546 12.482-37.313 22.18-29.553 6.16 4.926 8.96 20.51 3.495 46.394-4.324 20.482-21.892 44.662-28.348 51.705l8.39 7.692c7.006-7.643 26.153-33.64 31.094-57.045 5.29-25.06 4.68-47.873-7.52-57.632-7.628-6.103-16.594-3.667-23.42 2.884-31.224 29.966-27.49 145.69-26.816 182.417h-54.462c-1.044-55.845.65-115.435 9.802-147.43.73-2.547 12.482-37.313 22.18-29.554 6.16 4.927 8.96 20.51 3.496 46.394-4.324 20.482-21.892 44.66-28.35 51.705l8.392 7.69c7.006-7.642 26.153-33.64 31.093-57.044 5.29-25.06 4.68-47.872-7.52-57.633-7.628-6.102-16.593-3.666-23.42 2.885-31.384 30.12-27.45 146.892-26.805 182.987h-55.568c-1.045-55.845.65-115.435 9.803-147.43.728-2.547 12.48-37.313 22.18-29.554 6.158 4.927 8.958 20.51 3.494 46.394-4.324 20.482-21.892 44.66-28.348 51.705l8.39 7.69c7.007-7.642 26.154-33.64 31.094-57.044 5.29-25.06 4.68-47.872-7.52-57.633-7.627-6.102-16.592-3.666-23.418 2.885-31.385 30.12-27.452 146.892-26.806 182.987H45.138c-3.22 0-9.176-.61-12.037-2.386.332-6.55 5.282-13.658 25.184-12.553 11.292.628 22.167 5.555 30.72 12.78 1.435 1.21 2.206 2 2.206 2l8.21-7.88c-3.184-3.35-7.31-6.288-11.206-8.7-18.59-11.51-66.513-18.343-66.513 15.087 0 10.76 15.667 13.035 23.438 13.035h77.396c1.176 49.23 4.04 89.08 4.04 89.08l11.353-.816c-1.596-22.217-3.385-54.116-4.25-88.265h55.556c1.176 49.23 4.04 89.08 4.04 89.08l11.353-.816c-1.596-22.217-3.384-54.116-4.248-88.265h54.445c1.168 49.49 4.054 89.65 4.054 89.65l11.352-.816c-1.605-22.34-3.404-54.47-4.263-88.835h47.694v-11.383z" fill="#fff"/><path d="M7.05 380.23h7.788l-.33 2.688h-7.79l-2.05 16.703h-2.42L4.3 382.92H1.31l.33-2.69h2.99c.207-1.58.35-2.59.428-3.024.356-2.1 1.05-3.753 2.085-4.957 1.224-1.458 2.81-2.185 4.753-2.185 1.305 0 2.638.517 4 1.554l-.395 3.214c-.953-1.36-2.173-2.037-3.662-2.037-1.735 0-2.967.707-3.694 2.122-.356.7-.596 1.49-.716 2.373-.057.365-.14 1.002-.253 1.912l-.126 1.03zM30.053 386.953c.066-1.443.02-2.577-.135-3.404-.228-1.163-.773-2.08-1.638-2.753-.866-.673-1.888-1.01-3.07-1.01-2.203 0-3.914 1.01-5.134 3.027-.648 1.078-1.114 2.458-1.394 4.14h11.37zm1.712 2.29H18.383c-.177 1.835-.135 3.355.123 4.56.53 2.506 2.245 3.76 5.15 3.76 1.833 0 3.46-.66 4.875-1.975.53-.49 1.17-1.247 1.922-2.27l-.42 3.426c-.912 1.007-1.738 1.722-2.478 2.142-1.31.742-2.813 1.114-4.512 1.114-2.498 0-4.34-.827-5.527-2.48-1.4-1.946-1.86-4.86-1.383-8.74.447-3.64 1.466-6.477 3.057-8.51 1.677-2.14 3.84-3.212 6.485-3.212 3.25 0 5.3 1.68 6.156 5.042.38 1.512.44 3.333.178 5.462-.057.462-.137 1.022-.243 1.68M34.312 399.62l2.73-22.227h2.565l-.972 5.358c.407-1.105.768-1.95 1.086-2.53.318-.582.703-1.11 1.156-1.588 1.03-1.078 2.272-1.617 3.724-1.617 1.02 0 1.836.28 2.444.84.222.197.467.504.736.925l-.33 2.69c-.918-1.247-2.01-1.87-3.278-1.87-2.252 0-3.93 1.434-5.032 4.306-.378.966-.74 2.71-1.086 5.232l-.916 7.31-.39 3.173h-2.436zM48.12 399.62l2.73-22.227h2.36l-.342 2.795c-.014.112-.05.356-.11.735-.064.322-.147.855-.25 1.597.46-1.443 1.11-2.57 1.947-3.383 1.44-1.414 3.16-2.122 5.152-2.122 2.3 0 3.877.946 4.727 2.837.466 1.022.68 2.094.64 3.214-.028.925-.133 2.135-.317 3.634l-1.586 12.92h-2.417l1.586-12.92c.22-1.806.308-3.018.26-3.634-.102-1.275-.542-2.2-1.32-2.773-.633-.463-1.423-.694-2.37-.694-1.255 0-2.417.392-3.486 1.176-1.34.995-2.292 2.43-2.854 4.307-.23.755-.43 1.835-.6 3.235L50.48 399.62H48.12zM80.058 387.247c-.445.518-.926.924-1.442 1.218-.637.38-1.275.666-1.914.862l-2.08.546c-1.59.42-2.733.966-3.43 1.64-.67.643-1.067 1.463-1.19 2.457-.148 1.22.148 2.158.892 2.815.564.518 1.3.778 2.21.778 1.442 0 2.77-.554 3.99-1.66.982-.882 1.686-2.115 2.116-3.698.293-1.092.576-2.745.848-4.958m.51 12.374h-2.14l.08-.65.16-1.01c.132-.866.237-1.524.317-1.973-1.916 2.676-4.13 4.012-6.64 4.012-1.427 0-2.594-.526-3.498-1.577-1.01-1.19-1.406-2.68-1.185-4.473.2-1.626.828-2.943 1.887-3.95 1.058-1.01 2.596-1.76 4.613-2.25 2.54-.63 4.138-1.225 4.797-1.785.745-.658 1.183-1.52 1.314-2.585.147-1.203-.136-2.15-.852-2.836-.673-.63-1.545-.945-2.615-.945-1.625 0-3.245.616-4.86 1.848-.802.617-1.592 1.437-2.37 2.458l.39-3.173c1.04-1.05 1.926-1.807 2.66-2.268 1.496-.966 3.05-1.45 4.663-1.45 1.108 0 2.094.257 2.96.767.867.512 1.48 1.195 1.844 2.048.405 1.01.543 2.242.414 3.698-.056.658-.158 1.583-.304 2.773l-1.636 13.32zM85.11 399.62l2.73-22.227h2.36l-.342 2.795c-.013.112-.05.356-.11.735-.063.322-.147.855-.25 1.597.46-1.443 1.11-2.57 1.948-3.383 1.44-1.414 3.158-2.122 5.152-2.122 2.3 0 3.877.946 4.728 2.837.465 1.022.677 2.094.64 3.214-.03.925-.135 2.135-.32 3.634l-1.585 12.92h-2.417l1.586-12.92c.22-1.806.31-3.018.26-3.634-.1-1.275-.54-2.2-1.32-2.773-.633-.463-1.423-.694-2.37-.694-1.255 0-2.416.392-3.485 1.176-1.34.995-2.292 2.43-2.855 4.307-.228.755-.428 1.835-.6 3.235l-1.387 11.303H85.11zM114.24 379.6c-1.747 0-3.238.77-4.473 2.31-.554.7-1.048 1.668-1.482 2.9-.434 1.232-.736 2.535-.904 3.908-.38 3.11-.077 5.392.913 6.85.932 1.33 2.216 1.994 3.852 1.994 1.846 0 3.412-.826 4.698-2.478.526-.673.993-1.622 1.402-2.848.41-1.225.702-2.558.88-4 .388-3.167.04-5.45-1.043-6.85-.912-1.19-2.193-1.787-3.842-1.787m9.235-9.665l-3.645 29.686h-2.14l.123-1.007c.02-.168.087-.553.197-1.155.078-.435.19-1.142.335-2.123-1.122 1.71-2.13 2.865-3.03 3.468-1.168.797-2.478 1.197-3.93 1.197-2.29 0-3.984-.974-5.087-2.92-.558-.967-.935-2.206-1.13-3.72-.197-1.512-.192-3.094.01-4.747.244-1.99.73-3.824 1.46-5.504.73-1.683 1.61-3.007 2.638-3.972 1.528-1.416 3.233-2.123 5.115-2.123 1.59 0 2.903.52 3.945 1.555.438.435.937 1.184 1.496 2.248.07-.868.163-1.87.277-3.004l.765-7.88h2.603zM134.47 379.6c-2.165 0-3.832.79-4.998 2.373-1.18 1.583-1.936 3.748-2.273 6.492-.374 3.04-.117 5.35.772 6.934.385.67.963 1.2 1.734 1.585.77.386 1.643.577 2.614.577 2.093 0 3.744-.81 4.952-2.436 1.267-1.71 2.09-4.104 2.47-7.186.317-2.59.123-4.573-.582-5.945-.812-1.598-2.376-2.396-4.69-2.396m.337-2.585c1.366 0 2.594.27 3.684.81 1.092.538 1.923 1.284 2.496 2.236 1.073 1.78 1.405 4.337.996 7.67-.51 4.16-1.8 7.383-3.863 9.664-1.568 1.737-3.576 2.606-6.025 2.606-2.485 0-4.328-.827-5.528-2.48-1.538-2.114-2.056-5.202-1.557-9.265.5-4.075 1.756-7.087 3.767-9.034 1.51-1.47 3.52-2.205 6.03-2.205M160.254 380.23h7.79l-.33 2.688h-7.79l-2.05 16.703h-2.42l2.052-16.702h-2.99l.33-2.69h2.99c.206-1.58.348-2.59.426-3.024.357-2.1 1.052-3.753 2.086-4.957 1.225-1.458 2.81-2.185 4.753-2.185 1.306 0 2.64.517 4 1.554l-.393 3.215c-.954-1.36-2.174-2.037-3.664-2.037-1.735 0-2.966.707-3.694 2.122-.358.7-.596 1.49-.716 2.373-.058.365-.142 1.002-.254 1.912l-.126 1.03zM186.647 377.393l-2.73 22.228h-2.324l.517-2.71.135-.798c.128-.644.217-1.12.267-1.428-.405.897-.78 1.587-1.12 2.07-.344.483-.783.955-1.32 1.418-1.442 1.218-3.036 1.828-4.783 1.828-1.023 0-1.958-.225-2.808-.673-.85-.447-1.492-1.05-1.928-1.807-.646-1.148-.934-2.52-.86-4.118.057-1.063.192-2.472.407-4.222l1.45-11.787h2.416l-1.447 11.787c-.37 3.01-.443 5-.217 5.967.223.896.732 1.555 1.53 1.974.59.296 1.256.443 1.994.443 2.34 0 4.118-1.065 5.34-3.194.69-1.205 1.143-2.452 1.364-3.74.166-.952.373-2.43.618-4.433l1.082-8.804h2.417zM202.953 386.953c.068-1.443.02-2.577-.134-3.404-.23-1.163-.774-2.08-1.64-2.753-.865-.673-1.888-1.01-3.07-1.01-2.202 0-3.913 1.01-5.133 3.027-.65 1.078-1.114 2.458-1.394 4.14h11.37zm1.712 2.29h-13.38c-.178 1.835-.136 3.355.122 4.56.528 2.506 2.245 3.76 5.15 3.76 1.833 0 3.458-.66 4.876-1.975.527-.49 1.167-1.247 1.92-2.27l-.42 3.426c-.912 1.007-1.738 1.722-2.478 2.142-1.31.742-2.814 1.114-4.512 1.114-2.498 0-4.34-.827-5.527-2.48-1.4-1.946-1.86-4.86-1.383-8.74.447-3.64 1.466-6.477 3.057-8.51 1.678-2.14 3.84-3.212 6.486-3.212 3.25 0 5.3 1.68 6.155 5.042.38 1.512.44 3.333.18 5.462-.058.462-.138 1.022-.245 1.68M207.213 399.62l2.73-22.227h2.362l-.343 2.795c-.015.112-.05.356-.11.735-.063.322-.148.855-.25 1.597.46-1.443 1.11-2.57 1.947-3.383 1.44-1.414 3.158-2.122 5.15-2.122 2.302 0 3.877.946 4.728 2.837.465 1.022.68 2.094.64 3.214-.028.925-.134 2.135-.318 3.634l-1.585 12.92h-2.42l1.587-12.92c.223-1.806.31-3.018.262-3.634-.102-1.275-.543-2.2-1.32-2.773-.634-.463-1.423-.694-2.37-.694-1.256 0-2.418.392-3.486 1.176-1.34.995-2.292 2.43-2.855 4.307-.228.755-.428 1.835-.6 3.235l-1.388 11.303h-2.362zM233.67 377.625h6.958l-.33 2.688h-7.273c-.43 3.614-.848 6.864-1.252 9.748-.155 1.065-.26 1.823-.315 2.272-.19 1.554-.176 2.738.043 3.55.295 1.12 1.044 1.68 2.25 1.68 1.38 0 2.83-.89 4.352-2.668l-.356 2.9c-.547.546-1.022.96-1.426 1.24-.904.643-1.915.966-3.035.966-.947 0-1.784-.235-2.506-.704-.726-.47-1.224-1.096-1.496-1.88-.32-.912-.436-2.025-.347-3.34.048-.7.13-1.5.238-2.396.11-.882.282-2.15.523-3.804.278-1.973.473-3.41.585-4.306.078-.643.193-1.73.343-3.257H227.6l.223-1.827c1.293-.21 2.302-.714 3.028-1.513.952-1.12 1.847-3.054 2.69-5.8h1.29l-1.16 6.452zM255.394 386.953c.067-1.443.02-2.577-.135-3.404-.227-1.163-.774-2.08-1.638-2.753-.866-.673-1.89-1.01-3.07-1.01-2.202 0-3.914 1.01-5.134 3.027-.65 1.078-1.113 2.458-1.395 4.14h11.37zm1.713 2.29h-13.383c-.176 1.835-.134 3.355.124 4.56.53 2.506 2.245 3.76 5.148 3.76 1.835 0 3.46-.66 4.877-1.975.528-.49 1.167-1.247 1.922-2.27l-.42 3.426c-.913 1.007-1.74 1.722-2.48 2.142-1.31.742-2.812 1.114-4.51 1.114-2.498 0-4.342-.827-5.53-2.48-1.396-1.946-1.857-4.86-1.382-8.74.448-3.64 1.467-6.477 3.057-8.51 1.678-2.14 3.84-3.212 6.486-3.212 3.25 0 5.3 1.68 6.155 5.042.382 1.512.44 3.333.18 5.462-.057.462-.138 1.022-.243 1.68M273.026 379.557l-.41 3.34c-.577-.923-1.114-1.603-1.615-2.037-.98-.84-2.114-1.26-3.406-1.26-1.477 0-2.64.518-3.495 1.554-.607.73-.965 1.533-1.074 2.416-.098.798.034 1.485.394 2.06.318.517 1.045.91 2.18 1.176 1.818.434 3.036.79 3.654 1.07 2.14 1.01 3.05 2.817 2.73 5.42-.252 2.06-1.083 3.72-2.494 4.98-1.273 1.15-2.894 1.724-4.863 1.724-1.487 0-2.7-.35-3.636-1.05-.46-.35-.918-.94-1.37-1.765l.356-2.9c.67 1.065 1.29 1.814 1.865 2.248.913.686 1.973 1.03 3.18 1.03 1.512 0 2.697-.477 3.553-1.43.654-.727 1.04-1.56 1.156-2.5.132-1.092-.082-1.96-.642-2.604-.354-.42-.822-.722-1.402-.905-.57-.182-1.308-.378-2.217-.588-1.892-.434-3.18-1.113-3.866-2.038-.726-1.01-.99-2.326-.79-3.95.253-2.06 1.1-3.705 2.545-4.938 1.26-1.064 2.816-1.597 4.662-1.597 1.477 0 2.72.4 3.73 1.197.36.28.783.73 1.274 1.345M290.885 380.23h7.79l-.33 2.688h-7.79l-2.05 16.703h-2.42l2.052-16.702h-2.99l.33-2.69h2.99c.206-1.58.348-2.59.426-3.024.357-2.1 1.052-3.753 2.087-4.957 1.224-1.458 2.808-2.185 4.753-2.185 1.304 0 2.637.517 3.998 1.554l-.393 3.215c-.953-1.36-2.173-2.037-3.663-2.037-1.735 0-2.966.707-3.693 2.122-.356.7-.595 1.49-.715 2.373-.057.365-.142 1.002-.253 1.912l-.127 1.03zM299.45 399.62l2.73-22.227h2.565l-.972 5.358c.406-1.105.77-1.95 1.086-2.53.316-.582.7-1.11 1.154-1.587 1.03-1.08 2.272-1.618 3.724-1.618 1.022 0 1.836.28 2.444.84.222.197.468.504.736.925l-.33 2.69c-.918-1.247-2.01-1.87-3.278-1.87-2.252 0-3.93 1.434-5.033 4.306-.377.966-.738 2.71-1.085 5.232l-.915 7.31-.39 3.173h-2.437zM325.722 387.247c-.445.518-.926.924-1.44 1.218-.64.38-1.277.666-1.916.862l-2.08.546c-1.59.42-2.734.966-3.432 1.64-.668.643-1.065 1.463-1.187 2.457-.15 1.22.148 2.158.89 2.815.564.518 1.302.778 2.212.778 1.44 0 2.768-.554 3.988-1.66.982-.882 1.687-2.115 2.116-3.698.293-1.092.576-2.745.848-4.958m.51 12.374h-2.14l.08-.65.16-1.01c.132-.866.236-1.524.317-1.973-1.916 2.676-4.13 4.012-6.64 4.012-1.428 0-2.595-.526-3.5-1.577-1.01-1.19-1.404-2.68-1.184-4.473.2-1.626.828-2.943 1.887-3.95 1.06-1.01 2.597-1.76 4.614-2.25 2.54-.63 4.137-1.225 4.797-1.785.745-.658 1.183-1.52 1.314-2.585.148-1.203-.136-2.15-.852-2.836-.673-.63-1.544-.945-2.615-.945-1.623 0-3.244.616-4.86 1.848-.8.617-1.592 1.437-2.37 2.458l.39-3.173c1.04-1.05 1.927-1.807 2.66-2.268 1.497-.966 3.052-1.45 4.664-1.45 1.108 0 2.094.257 2.96.767.866.512 1.48 1.195 1.845 2.048.403 1.01.542 2.242.412 3.698-.056.658-.158 1.583-.304 2.773l-1.636 13.32zM336.404 373.61h-2.42l.474-3.843h2.42l-.474 3.844zm-5.63 26.01l2.73-22.227h2.435l-2.73 22.228h-2.436zM337.75 399.62l3.647-29.685h2.418l-3.646 29.686h-2.42zM359.205 386.953c.066-1.443.02-2.577-.135-3.404-.227-1.163-.773-2.08-1.64-2.753-.863-.673-1.887-1.01-3.068-1.01-2.203 0-3.913 1.01-5.134 3.027-.648 1.078-1.113 2.458-1.394 4.14h11.37zm1.712 2.29h-13.382c-.177 1.835-.135 3.355.123 4.56.53 2.506 2.245 3.76 5.15 3.76 1.833 0 3.458-.66 4.875-1.975.527-.49 1.168-1.247 1.92-2.27l-.42 3.426c-.91 1.007-1.737 1.722-2.476 2.142-1.31.742-2.814 1.114-4.512 1.114-2.5 0-4.34-.827-5.53-2.48-1.397-1.946-1.857-4.86-1.38-8.74.447-3.64 1.465-6.477 3.056-8.51 1.68-2.14 3.84-3.212 6.486-3.212 3.25 0 5.302 1.68 6.157 5.042.38 1.512.44 3.333.178 5.462-.057.462-.137 1.022-.243 1.68" fill="#231f20"/></svg>