<svg xmlns="http://www.w3.org/2000/svg" width="440" height="137.847"><path d="M146.58 34.924l8.525 17.257-17.257 8.526-8.526-17.256z" fill="#103572"/><path d="M94.604 103.54l8.526 17.257-17.257 8.526-8.526-17.257z" fill="#0f0"/><path d="M103.335 77.758l8.526 17.257-17.256 8.526-8.526-17.256z" fill="#103572"/><path d="M112.066 51.976l8.526 17.256-17.257 8.526-8.526-17.256z" fill="#0f0"/><path d="M120.797 26.193l8.525 17.257-17.256 8.526-8.526-17.257z" fill="#103572"/><path d="M68.822 94.81l8.525 17.256-17.256 8.526-8.525-17.257z" fill="#0f0"/><path d="M77.552 69.027l8.526 17.257-17.256 8.526-8.526-17.257z" fill="#103572"/><path d="M60.5 34.514l8.527 17.256-17.257 8.526-8.526-17.257zM17.257 77.348l8.525 17.257-17.256 8.525L0 85.874z" fill="#0f0"/><path d="M25.988 51.565l8.525 17.257-17.256 8.526L8.73 60.09z" fill="#103572"/><path d="M155.105 52.18l8.526 17.256-17.256 8.526-8.525-17.257z" fill="#793073"/><path d="M77.347 112.065l8.526 17.256-17.257 8.527-8.525-17.256z" fill="#c72d75"/><path d="M86.078 86.282l8.526 17.257-17.257 8.525-8.525-17.257z" fill="#793073"/><path d="M94.81 60.5l8.525 17.256-17.257 8.526-8.525-17.257z" fill="#c72d75"/><path d="M103.54 34.717l8.526 17.257L94.81 60.5l-8.526-17.257zM60.296 77.552l8.526 17.256-17.257 8.526-8.526-17.257z" fill="#793073"/><path d="M69.027 51.77l8.526 17.256-17.257 8.525-8.526-17.255z" fill="#c72d75"/><path d="M77.758 25.986l8.526 17.257-17.257 8.526L60.5 34.51z" fill="#793073"/><path d="M83.27 20.41c-26.574 0-48.117 21.542-48.117 48.117 0 26.575 21.543 48.118 48.118 48.118 26.576 0 48.12-21.543 48.12-48.118 0-26.575-21.544-48.118-48.12-48.118zm0 26.807c11.77 0 21.31 9.54 21.31 21.31s-9.54 21.31-21.31 21.31c-11.768 0-21.308-9.54-21.308-21.31s9.54-21.31 21.31-21.31zm0 7.003c-7.892 0-14.306 6.413-14.306 14.307 0 7.893 6.414 14.263 14.307 14.263 7.895 0 14.265-6.37 14.265-14.263 0-7.894-6.37-14.307-14.264-14.307zm0 4.51c5.414 0 9.796 4.384 9.796 9.797s-4.382 9.795-9.795 9.795c-5.412 0-9.794-4.382-9.794-9.795s4.382-9.796 9.795-9.796z" fill="#d40055"/><path d="M127.62 87.228l-15.766 7.797 4.28 8.62c4.895-4.58 8.838-10.15 11.485-16.417z" opacity=".5" fill="#103572"/><path d="M131.163 64.005l-10.576 5.218 7.854 15.907c1.91-5.183 2.95-10.772 2.95-16.616 0-1.518-.09-3.027-.227-4.51z" opacity=".5" fill="#0f0"/><path d="M146.58 34.924l8.525 17.257-17.257 8.526-8.526-17.256z" opacity=".5" fill="#103572"/><path d="M94.614 103.532l-17.268 8.535 2.183 4.395c1.235.095 2.482.17 3.742.17 5.76 0 11.27-1.01 16.39-2.864l-5.048-10.236z" opacity=".5" fill="#0f0"/><path d="M103.335 77.758l8.525 17.257-17.256 8.525-8.526-17.256z" opacity=".5" fill="#103572"/><path d="M112.066 51.975l8.525 17.257-17.255 8.526L94.81 60.5z" opacity=".5" fill="#0f0"/><path d="M112.477 30.29l-8.93 4.425 8.505 17.268 13.412-6.635c-3.236-5.883-7.688-11-12.987-15.057z" opacity=".5" fill="#103572"/><path d="M68.81 94.798l-17.24 8.535 1.136 2.325c5.325 4.388 11.605 7.662 18.487 9.442l6.153-3.033-8.535-17.27z" opacity=".5" fill="#0f0"/><path d="M77.552 69.027l8.526 17.257L68.82 94.81l-8.524-17.257z" opacity=".5" fill="#103572"/><path d="M86.283 43.244L94.81 60.5 77.55 69.028 69.026 51.77z" opacity=".5" fill="#0f0"/><path d="M88.49 20.68l-10.72 5.3 8.508 17.27 17.268-8.535-6.04-12.193c-2.898-.895-5.913-1.51-9.017-1.843z" opacity=".5" fill="#103572"/><path d="M43.037 86.065l-3.8 1.872C41.91 93.99 45.79 99.38 50.58 103.815l.99-.482-8.533-17.268z" opacity=".5" fill="#0f0"/><path d="M51.77 60.29l-16.616 8.224c0 .572.008 1.133.028 1.7l7.855 15.85 17.268-8.505-8.535-17.27z" opacity=".5" fill="#103572"/><path d="M60.5 34.514l8.527 17.256-17.257 8.526-8.526-17.257z" opacity=".5" fill="#0f0"/><path d="M75.333 21.076c-1.638.272-3.243.617-4.82 1.05-.79.216-1.582.453-2.354.708-.774.255-1.543.53-2.298.822-2.212.857-4.34 1.874-6.38 3.034-.107.06-.205.137-.312.2-.633.366-1.257.738-1.87 1.133l3.203 6.493L77.77 25.98l-2.437-4.904zM25.988 51.565l8.525 17.257-17.256 8.526L8.73 60.09z" opacity=".5" fill="#103572"/><path d="M42.895 42.37c-.257.396-.52.788-.766 1.19-.012.02-.018.04-.03.058l1.135-.567-.34-.68z" opacity=".5" fill="#0f0"/><path d="M43.45 0l8.525 17.257-17.256 8.525-8.527-17.256z" opacity=".5" fill="#103572"/><path d="M35.182 70.215c.22 6.284 1.65 12.275 4.055 17.722l3.8-1.872-7.855-15.85z" opacity=".5" fill="#793073"/><path d="M43.235 43.05l-1.134.568c-4.4 7.264-6.946 15.783-6.946 24.896L51.77 60.29l-8.535-17.24z" opacity=".5" fill="#c72d75"/><path d="M57.3 28.023C51.53 31.73 46.624 36.62 42.894 42.37l.34.68 17.268-8.534-3.204-6.493zM155.105 52.18l8.526 17.255-17.256 8.526-8.525-17.256zM111.854 95.025l-17.24 8.507 5.047 10.236c6.178-2.24 11.77-5.72 16.475-10.123l-4.28-8.62zM125.464 45.348l-13.412 6.635 8.535 17.24 10.576-5.218c-.623-6.714-2.603-13.03-5.7-18.657z" opacity=".5" fill="#793073"/><path d="M77.346 112.067l-6.153 3.033c2.696.698 5.48 1.142 8.336 1.362l-2.184-4.395z" opacity=".5" fill="#c72d75"/><path d="M86.078 86.282l8.526 17.257-17.257 8.525-8.525-17.257z" opacity=".5" fill="#793073"/><path d="M94.81 60.5l8.525 17.256-17.257 8.526-8.525-17.257z" opacity=".5" fill="#c72d75"/><path d="M103.54 34.717l8.526 17.257L94.81 60.5l-8.526-17.257z" opacity=".5" fill="#793073"/><path d="M97.534 22.522l6.012 12.193 8.93-4.424c-4.443-3.4-9.47-6.073-14.942-7.768zM51.57 103.333l-.99.482c.686.637 1.402 1.247 2.126 1.843l-1.135-2.325z" opacity=".5" fill="#c72d75"/><path d="M60.296 77.55l8.526 17.258-17.257 8.525-8.526-17.256z" opacity=".5" fill="#793073"/><path d="M69.027 51.768l8.526 17.257-17.257 8.526-8.526-17.256z" opacity=".5" fill="#c72d75"/><path d="M77.758 25.986l8.526 17.256-17.257 8.526L60.5 34.512z" opacity=".5" fill="#793073"/><path d="M83.272 20.396c-2.71 0-5.352.25-7.94.68l2.44 4.905 10.69-5.3c-1.702-.183-3.44-.284-5.19-.284z" opacity=".5" fill="#c72d75"/><path d="M83.27 47.217c-11.768 0-21.308 9.54-21.308 21.31s9.54 21.31 21.31 21.31c11.768 0 21.308-9.54 21.308-21.31s-9.54-21.31-21.31-21.31zm0 7.003c7.895 0 14.265 6.413 14.265 14.307 0 7.893-6.37 14.263-14.264 14.263-7.892 0-14.306-6.37-14.306-14.263 0-7.894 6.414-14.307 14.307-14.307zm0 4.51c-5.412 0-9.794 4.384-9.794 9.797s4.382 9.795 9.795 9.795c5.414 0 9.796-4.382 9.796-9.795s-4.382-9.796-9.795-9.796z" opacity=".5" fill="#ff0"/><g font-size="42.937" fill="#103572" font-family="Orbitron" font-weight="bold"><path d="M204.7 113.118h50.892v-9.33h-41.56v-41.63h-9.33v50.96M260.473 113.118h9.33v-50.89h-9.33v50.89M325.055 72.052c0-5.442-4.453-9.824-9.825-9.824h-39.016v50.89h40.995c5.442 0 9.895-4.382 9.895-9.824V92.338c0-2.545-1.13-5.018-2.757-6.715.495-1.06.707-2.262.707-3.604V72.05m-9.825-.494c.212 0 .424.212.424.494v9.967c0 .28-.212.493-.424.493h-29.19c-.284 0-.496-.212-.496-.494V72.05c0-.282.212-.494.495-.494h29.19m2.474 31.736c0 .282-.212.494-.495.494h-31.17c-.284 0-.496-.212-.496-.494V92.338c0-.283.212-.424.495-.424h31.17c.282 0 .494.14.494.424v10.956M385.63 72.123c0-5.372-4.452-9.824-9.895-9.824H334.74v50.818h9.33V95.66h16.682l14.7 17.458h10.18v-2.403L372.978 95.66h2.755c5.443 0 9.896-4.453 9.896-9.825V72.123M344.566 86.33c-.283 0-.495-.212-.495-.495V72.123c0-.283.212-.495.495-.495h31.17c.283 0 .495.212.495.495v13.712c0 .283-.212.495-.495.495h-31.17M440 62.228h-46.79v50.89H440v-9.33h-37.39v-11.45h30.11v-9.33h-30.11v-11.45H440v-9.33" style="-inkscape-font-specification:Orbitron Bold"/></g><g font-size="21.598" fill="#256fa6" font-family="Orbitron" font-weight="bold"><path d="M203.662 41.82c0-2.736-2.24-4.94-4.942-4.94h-15.714c-2.738 0-4.942 2.204-4.942 4.94v5.263c0 2.738 2.204 4.942 4.942 4.942h15.714c.107 0 .214.107.214.25v5.26c0 .143-.107.25-.214.25h-15.714c-.142 0-.25-.107-.25-.25V55.58h-4.692v1.956c0 2.737 2.204 4.942 4.942 4.942h15.714c2.702 0 4.942-2.205 4.942-4.942v-5.262c0-2.738-2.24-4.942-4.942-4.942h-15.714c-.142 0-.25-.107-.25-.25v-5.26c0-.143.108-.25.25-.25h15.714c.107 0 .214.107.214.25v1.955h4.728V41.82M212.347 36.88c-2.738 0-4.942 2.204-4.942 4.94v15.716c0 2.737 2.204 4.942 4.942 4.942h15.714c2.703 0 4.943-2.205 4.943-4.942V41.82c0-2.736-2.24-4.94-4.942-4.94h-15.713m0 20.905c-.143 0-.25-.107-.25-.25V41.822c0-.14.107-.248.25-.248h15.714c.108 0 .214.107.214.25v15.714c0 .142-.106.25-.213.25h-15.713M236.99 36.88v25.598h4.728V52.025h15.146v-4.693h-15.146v-5.76h18.808V36.88H236.99M262.025 36.88v4.692h10.453v20.906h4.73V41.572h10.416V36.88h-25.6M323.88 36.88l-6.187 16.887-6.186-16.888h-4.586l-6.186 16.887-6.186-16.888h-4.977l9.316 25.598h3.662c2.133-5.938 4.48-12.195 6.648-18.168l6.65 18.168h3.696l9.315-25.6h-4.977M335.744 36.88c-2.737 0-4.942 2.204-4.942 4.94V62.48h4.693v-8.604h16.177v8.604h4.73V41.82c0-2.736-2.24-4.94-4.98-4.94h-15.678m-.25 12.3v-7.36c0-.14.108-.248.25-.248h15.68c.142 0 .248.107.248.25v7.36h-16.177M386.014 41.857c0-2.702-2.24-4.942-4.977-4.942h-20.62v25.563h4.692v-8.782h8.39l7.395 8.782h5.12v-1.21l-6.365-7.572h1.387c2.737 0 4.977-2.24 4.977-4.942v-6.897m-20.656 7.146c-.142 0-.25-.107-.25-.25v-6.896c0-.143.108-.25.25-.25h15.68c.14 0 .248.107.248.25v6.897c0 .142-.107.25-.25.25H365.36M413.362 36.88h-23.536v25.598h23.536v-4.693h-18.807v-5.76H409.7v-4.693h-15.145v-5.76h18.807V36.88" style="-inkscape-font-specification:Orbitron Bold"/></g><g font-size="10.154" fill="#721b63" font-family="Orbitron" font-weight="bold"><path d="M197.276 24.746V36.78h2.223v-4.914h7.12V29.66h-7.12v-2.708h8.84v-2.206h-11.064M220.42 24.746h-11.065V36.78h11.065v-2.206h-8.842v-2.708h7.12V29.66h-7.12v-2.708h8.842v-2.206M234.07 27.07c0-1.288-1.054-2.324-2.324-2.324h-7.388c-1.287 0-2.323 1.036-2.323 2.323v2.473c0 1.287 1.036 2.323 2.323 2.323h7.388c.05 0 .1.05.1.117v2.474c0 .067-.05.117-.1.117h-7.388c-.067 0-.117-.05-.117-.117v-.92h-2.205v.92c0 1.287 1.036 2.324 2.323 2.324h7.388c1.27 0 2.323-1.036 2.323-2.323v-2.474c0-1.287-1.054-2.323-2.324-2.323h-7.388c-.067 0-.117-.05-.117-.117V27.07c0-.068.05-.118.118-.118h7.388c.05 0 .1.05.1.117v.92h2.223v-.92M235.26 24.746v2.206h4.915v9.83h2.223v-9.83h4.897v-2.206H235.26M248.578 36.78h2.207V24.747h-2.207V36.78M259.856 34.106l-5.4-9.36H251.9l6.953 12.035h1.99l6.952-12.034h-2.557l-5.382 9.36M271.028 24.746c-1.287 0-2.323 1.036-2.323 2.323v9.71h2.206v-4.044h7.607v4.045h2.223v-9.71c0-1.288-1.053-2.324-2.34-2.324h-7.372m-.117 5.783v-3.46c0-.068.05-.118.118-.118h7.372c.066 0 .117.05.117.117v3.46h-7.606M282.66 36.78h12.035v-2.206h-9.828V24.73h-2.206v12.05M310.64 33.57l-7.405-8.824h-2.407V36.78h2.206v-8.825l7.422 8.826h2.406V24.747h-2.223v8.825M317.092 24.746c-1.287 0-2.324 1.036-2.324 2.323v9.71h2.207v-4.044h7.605v4.045h2.223v-9.71c0-1.288-1.053-2.324-2.34-2.324h-7.37m-.118 5.783v-3.46c0-.068.05-.118.117-.118h7.37c.068 0 .118.05.118.117v3.46h-7.605M340.71 26.952v-2.206h-9.68c-1.286 0-2.322 1.036-2.322 2.323v7.387c0 1.287 1.036 2.324 2.323 2.324h9.68v-2.206h-9.68c-.066 0-.116-.05-.116-.117V27.07c0-.068.05-.118.117-.118h9.68M342.468 36.78h2.207V24.747h-2.207V36.78M348.43 24.746c-1.287 0-2.323 1.036-2.323 2.323v7.387c0 1.287 1.036 2.324 2.323 2.324h7.388c1.27 0 2.324-1.036 2.324-2.323V27.07c0-1.288-1.053-2.324-2.324-2.324h-7.388m0 9.828c-.066 0-.117-.05-.117-.117V27.07c0-.068.05-.118.117-.118h7.388c.05 0 .1.05.1.117v7.387c0 .067-.05.117-.1.117h-7.388M369.794 33.57l-7.405-8.824h-2.408V36.78h2.207v-8.825l7.42 8.826h2.407V24.747h-2.223v8.825M376.246 24.746c-1.287 0-2.323 1.036-2.323 2.323v9.71h2.206v-4.044h7.605v4.045h2.223v-9.71c0-1.288-1.053-2.324-2.34-2.324h-7.372m-.117 5.783v-3.46c0-.068.05-.118.116-.118h7.372c.066 0 .117.05.117.117v3.46h-7.606M387.88 36.78h12.033v-2.206h-9.828V24.73h-2.206v12.05M406.08 24.746V36.78h9.694c1.287 0 2.34-1.036 2.34-2.323V27.07c0-1.288-1.053-2.324-2.34-2.324h-9.695m9.81 9.71c0 .068-.05.118-.116.118h-7.37c-.068 0-.118-.05-.118-.117V27.07c0-.068.05-.118.117-.118h7.37c.068 0 .118.05.118.117v7.387M431.084 24.746H420.02V36.78h11.064v-2.206h-8.842v-2.708h7.12V29.66h-7.12v-2.708h8.842v-2.206" style="-inkscape-font-specification:Orbitron Bold"/></g></svg>