<svg xmlns="http://www.w3.org/2000/svg" width="400" height="246.857"><path d="M199.088 99.967c.615 1.336 3.692 8.757 2.842 18.684-.255 2.998-.864 6.21-2.017 9.59l-1.29-.444c5.07-14.787-.767-27.313-.823-27.437l-.1-.19.03-.187M66.158 115.018v-11.75l-53.568 12.74 9.76-.068v37.23h43.82V115.02h-.012zM135.808 101.4V85.657L68.853 102.49l12.185-.088v50.76h54.78v-51.76h-.01z" fill="#8a6405"/><path d="M190.662 53.818c.7.64 1.533 1.097 2.466 1.358 1.565.4 3.247.124 4.784-.78 2.23-1.3 3.925-3.71 4.685-6.612.202-.71.3-1.445.352-2.152.34-4.248-1.683-8.033-5.038-8.89-1.553-.414-3.22-.142-4.784.766-2.22 1.29-3.913 3.7-4.672 6.614-.717 2.807-.46 5.61.737 7.8.602.45 1.094 1.085 1.47 1.896m.083-9.098c.576-2.27 1.91-4.216 3.567-5.185.708-.43 1.793-.826 3.018-.537 2.65.7 3.998 4.362 3.004 8.223-.6 2.242-1.94 4.182-3.59 5.146-.708.417-1.822.84-3.03.538-1.207-.32-1.955-1.237-2.376-1.955-.967-1.633-1.207-3.98-.592-6.23m10.978 8.032l-.882 2.2c.224.06 18.13 7.842 21.308 58.38l2.347-.124c-3.285-52.324-21.99-60.144-22.773-60.456m-26.283-1.555l1.292-1.99c-.023-.022-3.493-2.33-4.21-6.248-.104-.678-.133-1.352-.094-2.046.15-1.922.297-3.9 2.477-6.007.565-.41 3.873-2.75 6.646-.45.223.163 3.517 2.436 3.227 6.324l2.34.182c.39-5.3-4-8.264-4.184-8.384-3.445-2.882-6.665-1.73-9.638.61l-.124.083-.072.12c-3.146 2.938-3.48 6.77-2.86 10.01.898 4.922 5.035 7.678 5.203 7.798m-20.593 43.946c-.24-3.41 3.143-6.13 3.17-6.148l-1.453-1.85c-.184.15-4.355 3.476-4.053 8.143.208 3.25 2.5 6.22 6.814 8.81l1.22-2.017c-3.63-2.166-5.534-4.504-5.697-6.94m29.578-41.198c.05-.02 1.99-1.006 3.224-.25 1 .62 1.48 2.434 1.442 5.037-1.41 2.108-8.54 14.032-10.14 31.386-.236 2.652.687 1.344.788 1.93l5.388 1.702c-4.577-26.87 5.964-33.788 6.104-33.983l.19-.304v-.333c.1-2.22-.16-3.996-.76-5.312-.53-.473-.972-1.024-1.358-1.67-.044-.076-.084-.136-.11-.225-.097-.087-.204-.14-.32-.22-2.423-1.505-5.4.09-5.545.17-7.84 3.984-13.256-2.442-13.754-3.073-.39-.76-2.33-4.205-5.4-3.93-3.05.24-5.637 4.087-7.91 11.747-.082.163-10.384 26.05-12.2 44.842l-.036.47.263.37c.94 1.217 5.35 6.85 8.23 8.58.006 1.315.59 46.102.59 46.102l2.35-.026-.616-47.575-.748-.28c-1.59-.58-5.413-4.98-7.644-7.85 1.92-18.444 11.914-43.61 12.02-43.875 2.666-8.963 5.008-10.096 5.897-10.154 1.414-.133 2.79 1.988 3.153 2.74l.066.11.06.086c.075.107 6.94 8.81 16.773 3.79m24.488 98.905l2.202.81c5.697-15.413 10.097-37.547 10.158-37.77l-2.33-.452c-.046.223-4.378 22.158-10.03 37.413M198.79 99.28c-1.404-.857-3.13.054-3.19.09-4.508 2.277-7.616-1.414-7.895-1.768-.207-.426-1.315-2.4-3.097-2.252-1.74.15-3.214 2.35-4.528 6.733-.032.09-5.93 14.927-6.982 25.713l-.038.252.18.198c.507.714 3.055 3.944 4.695 4.93.017.745.345 26.413.345 26.413l1.338-.023-.343-27.256-.445-.134c-.896-.355-3.08-2.873-4.355-4.514 1.083-10.554 6.835-24.99 6.88-25.136 1.53-5.126 2.868-5.785 3.382-5.822.794-.077 1.592 1.133 1.8 1.57l.033.046.046.08c.045.036 3.985 5.032 9.61 2.156.02-.005 1.133-.59 1.848-.134.577.353.866 1.375.81 2.877-.798 1.216 1.143.706 1.236.59l.123-.18v-.193c.09-2.158-.424-3.6-1.453-4.238m-11.95 37.44c-.583 1.057-.54 1.978-.258 3.096.257 1.047-.055 2.355-.055 3.477 0 1.21-.46 2.23-.62 3.422-.237 1.67.277 3.395 0 5.07-.276 1.674-1.19 3.406-1.26 5.04.275-.435.61-.827.805-1.28.218-.48.23-1.08.358-1.58.256-1.095.772-2.005 1.057-3.11.28-1.21.113-2.216.045-3.435-.022-.625.303-1.018.34-1.566.013-.495-.16-1.008-.105-1.562.105-1.157.105-2.284.278-3.377.145-1 .09-2.143.538-3.028.375-.226.375-1.262.134-1.502-.493-.5-1.036-.03-1.258.336m8.597-.06s-.022.06 0 .13c.093.473-.174.33-.364.56-.196.28-.16.3-.196.71-.05.547-.13 1.126-.163 1.67-.02.543.27.773.397 1.26.126.54.086 1.088.086 1.65 0 1.423-.375 2.684-.375 4.123 0 1.45-.05 2.9.22 4.287.223 1.33.062 2.843.062 4.212 0 .578.055 1.116.094 1.694.04.433-.13 1.078.1 1.44.19-.458 0-1.007.09-1.506.085-.512.234-.955.275-1.518.062-1.214.566-2.278.566-3.522 0-.59.07-1.222-.02-1.782-.077-.61-.434-1.08-.434-1.702-.023-.555.326-.734.454-1.22.15-.592-.22-1.064-.332-1.6-.16-.73.113-1.755.152-2.545.022-.37.06-.66.022-1.02-.06-.413-.174-.804-.095-1.22.084-.428.202-.77.295-1.18.108-.41.303-.614.426-1.01.285-.805-.357-1.985-1.257-1.91m5.702-56.808c-.148-.622-.35-.777-.623-1.272-.223-.396-.29-1.355-.35-1.797-.14-1.19.25-2.337-.176-3.467-.417-1.2-.983-2.168-.395-3.47.118-.294.335-.495.48-.746.13-.267.153-.584.372-.82.373-.393.73-.55.943-1.098.1-.245.156-.532.156-.81-.654.61-1.27 1.273-1.95 1.91-.637.57-1.18 1.74-1.4 2.584-.574 2.05.427 4.04.64 6.01.07.594.363 1.108.458 1.704.117.6 0 1.162-.05 1.73-.022.24.04.52 0 .755-.05.282-.208.422-.285.678-.154.482-.113 1.063.283 1.38.202.173 1.124.528 1.37.47.105-.034.3-.36.454-.443.172-.126.556-.126.71-.32.234-.23.215-1.343.11-1.66-.11-.498-.598-.787-.748-1.318m-3.574 11.712c.023-.55-.073-1.102-.268-1.472-.06-.114-.118-.204-.19-.297-.62-1.523-1.845-2.678-3.393-2.975-2.716-.523-5.456 1.724-6.09 5.032-.652 3.31 1.025 6.438 3.748 6.97 1.146.227 2.352-.037 3.398-.755 1.37-.928 2.36-2.487 2.718-4.28.078-.485.122-.958.122-1.423 0-.277-.02-.536-.044-.8m-.598 2.113c-.074.317-.14.622-.24.914-.46.78-.906 1.668-1.465 2.302-.76.826-2.04.917-3.068.903h.088c-.587-.085-1.704-.75-2.152-1.178-.462-.485-.562-1.304-.776-1.928-.123-.325-.133-.554-.16-.787-.014-.127.027-.35.027-.503-.006-.08-.224-.235-.23-.342-.082-.725.89-.844.432-1.537.41-.233.246-.56.346-.97.063-.313.335-.78.508-1.037.303-.437.925-1.057 1.404-1.307 1.18-.59 2.432.193 3.342 1.103v-.213c.363.37.214 1.157.214 1.64.027.554-.17 1.033-.113 1.58.073.512.375 1.002.76 1.26.497.3.79-.007 1.158-.386h.012c-.034.16-.05.327-.084.487" fill="#8a6405"/><path d="M135.67 52.783L199.645 6.19s-5.412-2.147-13.21-1.188l-50.767 47.78zM173.562 1.18s-10.167-2.656-22.074 0l-23.28 49.928L173.56 1.18zM132.516.08L107.63 4.834l13.05 44.018L132.517.08zM98.472 62.56l-82.568-8.908s3.226-4.353 10.39-7.247L98.473 62.56zM0 74.692s2.896-5.534 10.492-10.15l84.516 5.015M34.78 37.1s6.9-7.055 18.56-10.455l50.377 30.965L34.78 37.1zM68.628 16.746L92.492 8.94l16.17 43.21L68.63 16.745z" fill="#fbc108"/><path d="M230.854 63.378h42.064v16.98H246.45v20.945h24.706v16.88H246.45v36.83h-15.596V63.378zm53.82 1.363c5.746-1.362 13.193-2.023 20.98-2.023 13.18 0 21.765 2.82 28.35 9.498 7.145 7.078 11.668 18.488 11.668 34.804 0 17.532-4.836 29.642-11.38 37.11-7.252 8.016-18.403 11.826-31.915 11.826-8.09 0-13.915-.668-17.702-1.344v-89.87zm15.558 74.647c1.313.402 3.58.402 5.42.402 14.228.144 23.547-10.2 23.547-32.096 0-19.713-8.41-29.09-21.915-29.09-3.376 0-5.74.422-7.053.82v59.963zm55.765-76.01h15.53V137.6h27.427v17.413h-42.957V63.378z" fill="#15366f"/><path d="M135.07 77.682s-28.202.42-54.178 13.635c0 0-6.5-1.767-11.558 4.196 0 0 3.236-20.26 65.736-17.83" fill="#3b923b"/><path d="M135.07 77.682s-75.066-8.167-114.028 29.51c0 0-5.686-1.528-9.733 3.1 0 0 19.67-40.542 123.76-32.61" fill="#3b923b"/><path d="M22.524 181.712H36.11v4.13h-8.56v5.083h8.002v4.102H27.55v8.948h-5.026v-22.263zM46.497 200.74c1.97 0 3.194-1.954 3.194-4.864 0-2.37-.922-4.82-3.193-4.82-2.386 0-3.314 2.45-3.314 4.856 0 2.742 1.164 4.828 3.27 4.828h.044zm-.11 3.6c-4.724 0-8.347-3.1-8.347-8.317 0-5.223 3.432-8.567 8.647-8.567 4.914 0 8.23 3.41 8.23 8.294 0 5.874-4.195 8.59-8.498 8.59h-.034zM58.02 192.97c0-2.01-.062-3.688-.13-5.145h4.355l.233 2.246h.108c.653-1.053 2.275-2.615 4.986-2.615 3.29 0 5.785 2.225 5.785 6.974v9.54h-5.025v-8.943c0-2.08-.736-3.507-2.55-3.507-1.385 0-2.212.962-2.58 1.887-.13.334-.16.794-.16 1.257v9.307H58.02v-11zM88.02 194.7c0-.308 0-.632-.072-.93-.292-1.365-1.386-2.44-2.93-2.44-2.31 0-3.47 2.04-3.47 4.582 0 2.712 1.358 4.43 3.436 4.43 1.45 0 2.645-.996 2.935-2.406.067-.345.1-.74.1-1.12V194.7zm5.02-14.177v18.627c0 1.856.06 3.736.128 4.825h-4.456l-.206-2.35h-.088c-.995 1.792-2.98 2.71-5.06 2.71-3.828 0-6.9-3.276-6.9-8.286-.03-5.418 3.378-8.595 7.236-8.595 2.018 0 3.53.73 4.254 1.827h.072v-8.76h5.02zM104.605 200.74c1.985 0 3.202-1.954 3.202-4.864 0-2.37-.926-4.82-3.202-4.82-2.385 0-3.308 2.45-3.308 4.856 0 2.742 1.156 4.828 3.267 4.828h.04zm-.1 3.6c-4.725 0-8.35-3.1-8.35-8.317 0-5.223 3.424-8.567 8.647-8.567 4.912 0 8.226 3.41 8.226 8.294 0 5.874-4.203 8.59-8.5 8.59h-.024zM133.45 194.7c0-.308 0-.632-.068-.93-.296-1.365-1.39-2.44-2.933-2.44-2.312 0-3.468 2.04-3.468 4.582 0 2.712 1.358 4.43 3.432 4.43 1.447 0 2.638-.996 2.934-2.406.067-.345.1-.74.1-1.12V194.7zm5.02-14.177v18.627c0 1.856.06 3.736.127 4.825h-4.46l-.202-2.35h-.09c-.994 1.792-2.984 2.71-5.057 2.71-3.83 0-6.9-3.276-6.9-8.286-.032-5.418 3.37-8.595 7.235-8.595 2.012 0 3.532.73 4.26 1.827h.066v-8.76h5.02zM152.27 194.03c0-1.187-.52-3.265-2.8-3.265-2.146 0-3.003 1.948-3.14 3.266h5.94zm-5.903 3.438c.162 2.12 2.22 3.11 4.55 3.11 1.733 0 3.11-.23 4.468-.694l.66 3.405c-1.656.68-3.668 1.02-5.854 1.02-5.472 0-8.607-3.18-8.607-8.26 0-4.1 2.576-8.62 8.16-8.62 5.206 0 7.19 4.058 7.19 8.05 0 .87-.09 1.626-.162 2.023l-10.403-.035zM171.796 200.175c.437.105 1.156.105 1.762.105 4.584.026 7.6-2.474 7.6-7.797 0-4.794-2.708-7.065-7.08-7.065-1.085 0-1.845.09-2.282.192v14.565zm-5.014-18.125c1.85-.338 4.26-.5 6.776-.5 4.26 0 7.037.686 9.156 2.312 2.31 1.718 3.756 4.49 3.756 8.45 0 4.264-1.554 7.204-3.666 9.012-2.353 1.965-5.943 2.886-10.305 2.886-2.616 0-4.493-.167-5.718-.336V182.05zM199.545 194.03c0-1.187-.514-3.265-2.8-3.265-2.148 0-3.013 1.948-3.143 3.266h5.943zm-5.91 3.438c.17 2.12 2.21 3.11 4.56 3.11 1.718 0 3.104-.23 4.463-.694l.65 3.405c-1.645.68-3.662 1.02-5.837 1.02-5.49 0-8.625-3.18-8.625-8.26 0-4.1 2.58-8.62 8.156-8.62 5.222 0 7.206 4.058 7.206 8.05 0 .87-.1 1.626-.162 2.023l-10.408-.035zM207.17 199.614c.945.566 2.85 1.187 4.338 1.187 1.513 0 2.15-.495 2.15-1.312 0-.864-.508-1.256-2.353-1.897-3.37-1.082-4.657-2.926-4.623-4.813 0-3.032 2.583-5.322 6.576-5.322 1.882 0 3.525.468 4.52.96l-.853 3.433c-.716-.353-2.154-.887-3.5-.887-1.224 0-1.917.492-1.917 1.294 0 .782.63 1.188 2.603 1.867 3.07 1.03 4.335 2.623 4.368 4.97 0 3.037-2.348 5.245-6.97 5.245-2.113 0-3.992-.49-5.222-1.153l.884-3.568zM230.15 196.35c-2.655 0-4.702.622-4.702 2.545 0 1.285.866 1.91 1.99 1.91 1.21 0 2.27-.83 2.6-1.843.072-.266.11-.57.11-.862v-1.75zm4.84 3.733c0 1.52.07 3 .27 3.888h-4.535l-.285-1.61h-.1c-1.055 1.287-2.706 1.974-4.624 1.974-3.263 0-5.215-2.377-5.215-4.95 0-4.19 3.758-6.17 9.464-6.17v-.21c0-.853-.446-2.078-2.928-2.078-1.654 0-3.403.562-4.455 1.194l-.92-3.202c1.116-.635 3.323-1.457 6.266-1.457 5.38 0 7.063 3.172 7.063 6.97v5.653zM239.03 193.145c0-2.38-.03-3.93-.144-5.33h4.305l.21 3.016h.114c.83-2.38 2.79-3.375 4.368-3.375.457 0 .692.048 1.056.103v4.718c-.43-.06-.834-.125-1.393-.125-1.845 0-3.108.958-3.432 2.55-.072.32-.09.686-.09 1.114v8.16H239l.03-10.83zM251.554 193.145c0-2.38-.04-3.93-.128-5.33h4.287l.195 3.016h.14c.82-2.38 2.767-3.375 4.354-3.375.47 0 .692.048 1.062.103v4.718c-.43-.06-.82-.125-1.386-.125-1.856 0-3.107.958-3.432 2.55-.074.32-.106.686-.106 1.114v8.16h-5.025l.04-10.83zM271.382 200.74c1.978 0 3.202-1.954 3.202-4.864 0-2.37-.923-4.82-3.202-4.82-2.382 0-3.303 2.45-3.303 4.856 0 2.742 1.148 4.828 3.266 4.828h.036zm-.108 3.6c-4.717 0-8.338-3.1-8.338-8.317 0-5.223 3.425-8.567 8.647-8.567 4.913 0 8.222 3.41 8.222 8.294 0 5.874-4.197 8.59-8.496 8.59h-.036zM282.908 180.524h5.03v23.447h-5.03v-23.446zM291.964 180.524h5.02v23.447h-5.02v-23.446zM308.542 200.74c1.99 0 3.204-1.954 3.204-4.864 0-2.37-.933-4.82-3.204-4.82-2.38 0-3.31 2.45-3.31 4.856 0 2.742 1.165 4.828 3.272 4.828h.038zm-.094 3.6c-4.73 0-8.363-3.1-8.363-8.317 0-5.223 3.438-8.567 8.66-8.567 4.913 0 8.216 3.41 8.216 8.294 0 5.874-4.192 8.59-8.49 8.59h-.022zM326.95 181.712h5.02v18.04h8.85v4.223h-13.87v-22.263zM350.88 200.74c1.97 0 3.198-1.954 3.198-4.864 0-2.37-.926-4.82-3.198-4.82-2.385 0-3.308 2.45-3.308 4.856 0 2.742 1.158 4.828 3.27 4.828h.038zm-.11 3.6c-4.718 0-8.348-3.1-8.348-8.317 0-5.223 3.434-8.567 8.65-8.567 4.925 0 8.228 3.41 8.228 8.294 0 5.874-4.195 8.59-8.493 8.59h-.037zM374.633 203.574c-.9.434-2.583.76-4.5.76-5.22 0-8.548-3.205-8.548-8.285 0-4.725 3.24-8.59 9.235-8.59 1.337 0 2.784.23 3.847.63l-.8 3.742c-.587-.287-1.492-.507-2.806-.507-2.642 0-4.36 1.89-4.32 4.527 0 2.97 1.968 4.565 4.422 4.565 1.19 0 2.118-.2 2.867-.533l.603 3.69zM386.125 196.35c-2.644 0-4.694.622-4.694 2.545 0 1.285.863 1.91 1.98 1.91 1.222 0 2.278-.83 2.615-1.843.06-.266.1-.57.1-.862v-1.75zm4.864 3.733c0 1.52.047 3 .244 3.888h-4.516l-.297-1.61h-.1c-1.05 1.287-2.705 1.974-4.622 1.974-3.27 0-5.22-2.377-5.22-4.95 0-4.19 3.768-6.17 9.48-6.17v-.21c0-.853-.47-2.078-2.947-2.078-1.635 0-3.39.562-4.458 1.194l-.923-3.202c1.13-.635 3.347-1.457 6.287-1.457 5.385 0 7.072 3.172 7.072 6.97v5.653zM394.97 180.524H400v23.447h-5.03v-23.446zM22.143 221.712h10.334v2.082H24.64v6.37h7.235v2.058H24.64v8.678h-2.497v-19.188zM35.213 227.135h2.515V240.9h-2.515v-13.765zm1.196-2.538c-.935 0-1.56-.75-1.56-1.62 0-.892.65-1.605 1.61-1.605.97 0 1.596.713 1.596 1.604 0 .872-.626 1.62-1.626 1.62h-.02zM41.88 230.852c0-1.445-.04-2.595-.122-3.717h2.225l.14 2.24h.066c.68-1.29 2.27-2.567 4.55-2.567 1.895 0 4.864 1.147 4.864 5.87v8.22h-2.51v-7.935c0-2.23-.822-4.103-3.187-4.103-1.62 0-2.907 1.162-3.36 2.565-.107.31-.17.765-.17 1.17v8.304H41.88V230.85zM64.933 233.868c-2.733-.06-5.84.43-5.84 3.107 0 1.646 1.084 2.395 2.337 2.395 1.82 0 2.985-1.14 3.392-2.312.082-.256.11-.545.11-.796v-2.394zm2.454 3.738c0 1.186.055 2.355.197 3.294H65.33l-.228-1.73h-.08c-.738 1.073-2.252 2.05-4.214 2.05-2.79 0-4.215-1.972-4.215-3.963 0-3.33 2.967-5.15 8.28-5.113v-.297c0-1.132-.313-3.21-3.125-3.19-1.31 0-2.655.37-3.617 1.034l-.57-1.675c1.134-.724 2.816-1.207 4.545-1.207 4.254 0 5.282 2.883 5.282 5.644v5.154zM71.4 230.852c0-1.445-.028-2.595-.116-3.717h2.22l.14 2.24h.06c.687-1.29 2.282-2.567 4.556-2.567 1.902 0 4.863 1.147 4.863 5.87v8.22h-2.505v-7.935c0-2.23-.82-4.103-3.19-4.103-1.616 0-2.898 1.162-3.355 2.565-.117.31-.168.765-.168 1.17v8.304H71.4V230.85zM97.025 240.418c-.654.316-2.12.798-3.964.798-4.147 0-6.862-2.816-6.862-7.06 0-4.247 2.907-7.34 7.41-7.34 1.48 0 2.785.36 3.473.742l-.57 1.898c-.603-.307-1.542-.645-2.9-.645-3.16 0-4.88 2.364-4.88 5.232 0 3.19 2.063 5.155 4.786 5.155 1.43 0 2.364-.346 3.074-.653l.435 1.874zM99.955 227.135h2.515V240.9h-2.515v-13.765zm1.208-2.538c-.952 0-1.568-.75-1.568-1.62 0-.892.655-1.605 1.605-1.605.975 0 1.605.713 1.605 1.604 0 .872-.63 1.62-1.62 1.62h-.022zM113.88 233.868c-2.74-.06-5.832.43-5.832 3.107 0 1.646 1.075 2.395 2.322 2.395 1.827 0 2.99-1.14 3.402-2.312.08-.256.107-.545.107-.796v-2.394zm2.453 3.738c0 1.186.05 2.355.196 3.294h-2.254l-.224-1.73h-.084c-.747 1.073-2.253 2.05-4.213 2.05-2.797 0-4.212-1.972-4.212-3.963 0-3.33 2.964-5.15 8.274-5.113v-.297c0-1.132-.302-3.21-3.13-3.19-1.308 0-2.64.37-3.61 1.034l-.573-1.675c1.137-.724 2.82-1.207 4.557-1.207 4.238 0 5.273 2.883 5.273 5.644v5.154zM120.35 230.852c0-1.445-.036-2.595-.126-3.717h2.225l.137 2.24h.06c.69-1.29 2.278-2.567 4.552-2.567 1.906 0 4.868 1.147 4.868 5.87v8.22h-2.51v-7.935c0-2.23-.816-4.103-3.186-4.103-1.61 0-2.9 1.162-3.35 2.565-.12.31-.184.765-.184 1.17v8.304h-2.487V230.85zM145.54 232.733c0-.35-.027-.747-.122-1.084-.358-1.568-1.728-2.872-3.608-2.872-2.59 0-4.13 2.275-4.13 5.295 0 2.82 1.4 5.124 4.07 5.124 1.68 0 3.21-1.134 3.668-2.99.095-.35.122-.678.122-1.093v-2.38zm2.5-12.042v16.65c0 1.23.032 2.62.11 3.56h-2.24l-.12-2.386h-.054c-.777 1.537-2.42 2.703-4.674 2.703-3.324 0-5.92-2.826-5.92-7.006-.022-4.604 2.852-7.394 6.178-7.394 2.14 0 3.562.988 4.157 2.072h.063v-8.197h2.5zM157.888 239.335c2.394 0 4.2-2.25 4.2-5.372 0-2.34-1.17-5.266-4.14-5.266-2.927 0-4.22 2.728-4.22 5.345 0 3.015 1.723 5.293 4.138 5.293h.022zm-.077 1.882c-3.706 0-6.606-2.732-6.606-7.093 0-4.616 3.047-7.316 6.83-7.316 3.957 0 6.63 2.884 6.63 7.06 0 5.122-3.55 7.35-6.827 7.35h-.026zM176.894 223.825v3.31h3.582v1.898h-3.582v7.426c0 1.705.475 2.682 1.88 2.682.675 0 1.078-.062 1.446-.17l.118 1.907c-.486.16-1.258.337-2.232.337-1.166 0-2.1-.4-2.7-1.058-.686-.772-.966-1.995-.966-3.616v-7.51h-2.135v-1.9h2.135v-2.537l2.454-.772zM194.82 237.146c0 1.418.03 2.675.118 3.754h-2.22l-.143-2.24h-.057c-.626 1.11-2.102 2.56-4.555 2.56-2.16 0-4.754-1.223-4.754-6.045v-8.04h2.5v7.595c0 2.615.827 4.405 3.085 4.405 1.662 0 2.84-1.163 3.287-2.308.163-.338.24-.795.24-1.284v-8.408h2.498v10.01zM207.582 231.196c.542.14 1.247.198 2.064.198 3.007 0 4.802-1.485 4.802-4.066 0-2.564-1.795-3.792-4.528-3.792-1.09 0-1.908.114-2.338.19v7.47zm-2.474-9.227c1.19-.223 2.755-.395 4.75-.395 2.454 0 4.237.563 5.385 1.6 1.056.903 1.703 2.297 1.703 4.002 0 1.74-.508 3.112-1.497 4.106-1.315 1.396-3.45 2.107-5.865 2.107-.756 0-1.43-.036-2.003-.18v7.69h-2.474v-18.93zM219.715 231.425c0-1.62-.02-3.023-.114-4.297h2.192l.123 2.7h.08c.63-1.843 2.162-3.012 3.845-3.012.25 0 .452.017.687.085v2.33c-.296-.035-.554-.057-.888-.057-1.77 0-3.015 1.344-3.35 3.18-.06.38-.094.78-.094 1.2v7.346h-2.5l.02-9.475zM234.527 239.335c2.39 0 4.192-2.25 4.192-5.372 0-2.34-1.17-5.266-4.138-5.266-2.928 0-4.215 2.728-4.215 5.345 0 3.015 1.716 5.293 4.13 5.293h.03zm-.08 1.882c-3.705 0-6.613-2.732-6.613-7.093 0-4.616 3.042-7.316 6.826-7.316 3.97 0 6.64 2.884 6.64 7.06 0 5.122-3.547 7.35-6.83 7.35h-.023zM253.77 232.536c0-.392-.025-.772-.137-1.116-.452-1.476-1.648-2.675-3.504-2.675-2.382 0-4.105 2.03-4.105 5.244 0 2.673 1.403 4.945 4.08 4.945 1.56 0 2.952-.964 3.465-2.584.15-.402.2-.88.2-1.338v-2.476zm2.513 6.347c0 3.19-.655 5.097-1.962 6.314-1.37 1.226-3.302 1.66-5.048 1.66-1.64 0-3.466-.397-4.57-1.148l.613-1.94c.91.605 2.336 1.115 4.046 1.115 2.57 0 4.445-1.34 4.445-4.838v-1.502h-.06c-.733 1.276-2.253 2.303-4.384 2.303-3.415 0-5.867-2.913-5.867-6.745 0-4.678 3.05-7.287 6.237-7.287 2.393 0 3.68 1.23 4.3 2.357h.056l.083-2.038h2.23c-.09.95-.117 2.06-.117 3.754v7.993zM260.437 231.425c0-1.62-.018-3.023-.112-4.297h2.195l.118 2.7h.083c.628-1.843 2.16-3.012 3.837-3.012.257 0 .457.017.692.085v2.33c-.296-.035-.55-.057-.89-.057-1.766 0-3.012 1.344-3.354 3.18-.054.38-.094.78-.094 1.2v7.346h-2.493l.017-9.475zM278.296 232.643c.022-1.56-.656-4.073-3.45-4.073-2.555 0-3.638 2.343-3.833 4.073h7.283zm-7.312 1.8c.045 3.377 2.185 4.784 4.69 4.784 1.793 0 2.9-.314 3.818-.694l.452 1.77c-.877.405-2.42.888-4.6.888-4.22 0-6.788-2.827-6.788-6.95 0-4.18 2.473-7.454 6.493-7.454 4.492 0 5.666 3.96 5.666 6.48 0 .516-.03.914-.09 1.203l-9.642-.028zM283.477 238.363c.773.458 2.08.972 3.332.972 1.8 0 2.648-.874 2.648-2.05 0-1.2-.71-1.842-2.53-2.532-2.513-.91-3.686-2.25-3.686-3.9 0-2.217 1.83-4.045 4.77-4.045 1.384 0 2.614.37 3.352.858l-.596 1.795c-.538-.307-1.543-.802-2.815-.802-1.487 0-2.28.86-2.28 1.875 0 1.177.793 1.69 2.588 2.363 2.366.886 3.618 2.092 3.618 4.162 0 2.444-1.903 4.163-5.13 4.163-1.503 0-2.885-.405-3.862-.978l.59-1.88zM300.79 239.335c2.392 0 4.192-2.25 4.192-5.372 0-2.34-1.17-5.266-4.136-5.266-2.93 0-4.216 2.728-4.216 5.345 0 3.015 1.72 5.293 4.138 5.293h.022zm-.085 1.882c-3.705 0-6.612-2.732-6.612-7.093 0-4.616 3.052-7.316 6.837-7.316 3.952 0 6.63 2.884 6.63 7.06 0 5.122-3.55 7.35-6.827 7.35h-.028z" fill="#15366f"/></svg>