<svg xmlns="http://www.w3.org/2000/svg" width="400" height="177.981"><path d="M356.83 169.92l1.11-1.556c.732.728 1.48 1.095 2.244 1.095.465 0 .86-.165 1.182-.5.32-.333.483-.747.483-1.238 0-.546-.32-1.29-.958-2.238l-.77-1.15c-.75-1.122-1.127-2.056-1.127-2.807 0-1.047.365-1.975 1.093-2.784.726-.81 1.558-1.214 2.492-1.214.515 0 1.09.143 1.73.435l-.374 2.547h-.535l.027-.197c.012-.066.017-.147.017-.24 0-1.037-.49-1.555-1.47-1.555-1.102 0-1.65.596-1.65 1.795 0 .608.325 1.41.98 2.417l.695 1.053c.754 1.16 1.132 2.11 1.132 2.853 0 1.03-.402 1.946-1.2 2.75-.8.806-1.71 1.21-2.734 1.21-.717 0-1.504-.228-2.368-.68m-6.453-5.24c1.26-.136 2.25-.58 2.96-1.327.71-.75 1.065-1.716 1.065-2.907 0-1.177-.313-1.764-.937-1.764-.677 0-1.333.615-1.966 1.835-.628 1.23-1.004 2.616-1.123 4.163m5.597 2.49l-.124.886c-1.795 1.695-3.322 2.545-4.585 2.545-.8 0-1.45-.383-1.95-1.146-.5-.764-.747-1.752-.747-2.966 0-2.166.607-4.2 1.827-6.11 1.217-1.904 2.518-2.86 3.897-2.86.503 0 .908.23 1.22.69.306.462.462 1.058.462 1.798 0 1.474-.55 2.74-1.656 3.802-1.105 1.055-2.426 1.587-3.958 1.587l-.01.517c0 2.24.605 3.362 1.81 3.362 1.044 0 2.316-.705 3.814-2.107M339.5 170.45l.626-3.546.82-5.635c.085-.57.128-1.06.128-1.472 0-.662-.17-.992-.51-.992-.594 0-1.45.87-2.563 2.602l.154-1.02c1.304-1.914 2.434-2.87 3.394-2.87.81 0 1.217.632 1.217 1.898 0 .56-.052 1.183-.153 1.868l-.402 2.775h.11c.668-1.92 1.463-3.487 2.38-4.707.916-1.214 1.754-1.824 2.514-1.824.396 0 .75.117 1.058.357l-1.124 2.073c-.335-.3-.613-.45-.847-.45-1.098 0-2.56 2.202-4.388 6.602l-.618 4.2-1.793.14zm-9.56-1.76c.706.42 1.41.63 2.114.63 1.02 0 1.84-.88 2.455-2.647.727-2.088 1.09-3.964 1.09-5.63 0-1.207-.265-1.806-.785-1.806-.48 0-1.177.69-2.08 2.08-.912 1.38-1.716 2.968-2.412 4.757l-.382 2.616zm-7.926 9.084l1.145-1.645c.574.38 1.17.574 1.79.574 1.438 0 2.395-1.62 2.87-4.86l1.3-8.92c.153-1.137.228-1.897.228-2.27 0-.648-.18-.972-.54-.972-.258 0-.717.14-1.37.405l.11-.714 4.128-1.844-.645 3.722-.413 2.807h.145c.642-1.935 1.41-3.508 2.307-4.72.89-1.204 1.73-1.81 2.51-1.81 1.204 0 1.805 1.013 1.805 3.037 0 2.373-.688 4.62-2.06 6.74-1.374 2.118-2.828 3.18-4.37 3.18-.155 0-.476-.045-.962-.128-.064-.007-.16-.025-.29-.048-.444 2.48-1.213 4.38-2.312 5.696-1.097 1.318-2.456 1.974-4.08 1.974-.406 0-.84-.072-1.296-.208m-11.867-7.323l1.775-.138.618-4.076c.78-1.974 1.587-3.637 2.414-4.984.824-1.353 1.452-2.03 1.874-2.03.338 0 .508.327.508.98 0 .232-.037.596-.11 1.105l-1.33 9.144 1.657-.138.636-4.165c1.858-4.617 3.283-6.924 4.26-6.924.35 0 .527.318.527.957 0 .23-.04.595-.12 1.104l-.823 5.62c-.133.928-.202 1.58-.202 1.957 0 1.16.41 1.74 1.23 1.74.987 0 2.092-.9 3.323-2.704l.15-1.076c-1.12 1.69-1.963 2.535-2.52 2.535-.33 0-.498-.242-.498-.725 0-.266.064-.84.194-1.726l.822-5.62c.09-.63.136-1.16.136-1.59 0-1.443-.5-2.165-1.498-2.165-.71 0-1.488.61-2.34 1.823-.854 1.22-1.59 2.787-2.216 4.706h-.118l.404-2.8c.096-.62.145-1.156.145-1.6 0-.605-.127-1.114-.384-1.52-.257-.406-.575-.61-.954-.61-.72 0-1.51.588-2.364 1.768-.853 1.18-1.642 2.766-2.365 4.76h-.12l.418-2.84c.13-.91.193-1.56.193-1.952 0-1.16-.407-1.737-1.217-1.737-.987 0-2.092.903-3.323 2.707l-.154 1.06c1.13-1.684 1.97-2.525 2.52-2.525.334 0 .502.24.502.714 0 .27-.064.847-.194 1.726l-.832 5.692-.62 3.547zm-13.238-.138l1.25-1.705h.142c.86 0 1.45-.243 1.773-.73.323-.482.607-1.543.844-3.185l1.537-10.523c-1.162 0-2.102.424-2.82 1.27-.713.848-1.07 1.956-1.07 3.32v.255l-1.64 1.08c.138-2.326.81-4.044 2.01-5.157 1.2-1.113 2.98-1.67 5.338-1.67h4.973l-.755 3.257h-.53c.044-.297.068-.563.068-.803 0-.607-.254-1.027-.766-1.255-.51-.23-1.436-.347-2.786-.347h-.264l-.98 6.817h3.773l-.864 1.188c-1.278-.225-2.148-.335-2.61-.335h-.426l-.176 1.243c-.2 1.4-.5 2.504-.9 3.322-.406.815-1.05 1.63-1.944 2.437l4.062.217.887.033c.92 0 1.778-.433 2.582-1.298l-.136.93c-1 1.374-1.936 2.062-2.817 2.062l-.388-.01-7.366-.415zm-10.66-6.253h-.144c-1.602 4.36-3.163 6.54-4.687 6.54-.903 0-1.354-.727-1.354-2.178 0-.414.047-.93.136-1.553l.824-5.658c.127-.88.19-1.457.19-1.726 0-.474-.164-.714-.5-.714-.548 0-1.39.84-2.517 2.524l.152-1.06c1.23-1.805 2.336-2.707 3.322-2.707.818 0 1.228.574 1.228 1.724 0 .385-.066 1.038-.202 1.958l-.833 5.666c-.072.506-.11.867-.11 1.084 0 .622.168.93.5.93.423 0 1.065-.696 1.923-2.09.862-1.393 1.65-3.012 2.374-4.862l.61-4.137 1.792-.136-.627 3.545-.828 5.692c-.13.885-.194 1.46-.194 1.726 0 .483.168.725.497.725.558 0 1.4-.844 2.52-2.53l-.152 1.07c-1.234 1.804-2.34 2.704-3.322 2.704-.817 0-1.227-.58-1.227-1.74 0-.392.066-1.045.202-1.956l.425-2.845zm-16.183 5.86l1.11-1.556c.73.728 1.48 1.096 2.243 1.096.468 0 .862-.165 1.182-.5.32-.333.483-.746.483-1.238 0-.546-.318-1.29-.957-2.238l-.77-1.15c-.75-1.122-1.126-2.056-1.126-2.807 0-1.047.364-1.975 1.093-2.784.728-.81 1.558-1.214 2.495-1.214.514 0 1.087.143 1.725.435l-.372 2.547h-.535l.026-.197c.01-.066.017-.147.017-.24 0-1.037-.487-1.555-1.47-1.555-1.1 0-1.648.596-1.648 1.795 0 .608.326 1.41.983 2.417l.69 1.053c.758 1.16 1.137 2.11 1.137 2.853 0 1.03-.402 1.946-1.203 2.75-.8.806-1.712 1.21-2.736 1.21-.714 0-1.503-.228-2.367-.68m-8.916-10.467c-.707-.427-1.41-.644-2.104-.644-1.026 0-1.847.885-2.463 2.65-.72 2.09-1.08 3.962-1.08 5.63 0 1.206.26 1.807.777 1.807.485 0 1.182-.69 2.096-2.08.907-1.383 1.708-2.968 2.396-4.75l.38-2.612zm-.673 4.61h-.153c-.64 1.925-1.405 3.497-2.3 4.714-.897 1.215-1.74 1.825-2.522 1.825-1.19 0-1.784-1.013-1.784-3.04 0-2.235.654-4.42 1.963-6.562 1.35-2.223 3.005-3.33 4.956-3.33.807 0 1.65.046 2.53.135l-.607 3.41-.825 5.69c-.13.888-.194 1.467-.194 1.727 0 .483.17.725.5.725.565 0 1.403-.844 2.522-2.53l-.153 1.07c-1.235 1.804-2.343 2.704-3.326 2.704-.815 0-1.225-.58-1.225-1.74 0-.383.065-1.037.2-1.96l.417-2.84zm-15.69 6.39l.626-3.546.82-5.635c.084-.57.128-1.06.128-1.472 0-.662-.17-.992-.508-.992-.598 0-1.45.87-2.564 2.602l.153-1.02c1.305-1.914 2.435-2.87 3.395-2.87.81 0 1.217.632 1.217 1.898 0 .56-.052 1.183-.153 1.868l-.406 2.775h.11c.67-1.92 1.466-3.487 2.38-4.707.92-1.214 1.754-1.824 2.517-1.824.397 0 .75.117 1.06.357l-1.128 2.073c-.333-.3-.61-.45-.847-.45-1.096 0-2.56 2.202-4.386 6.602l-.62 4.2-1.792.14zm-4.968-11c-.713-.427-1.415-.644-2.106-.644-1.03 0-1.85.885-2.463 2.65-.722 2.09-1.083 3.962-1.083 5.63 0 1.206.26 1.807.78 1.807.486 0 1.18-.69 2.093-2.08.91-1.383 1.71-2.968 2.397-4.75l.382-2.612zm-.678 4.61h-.153c-.64 1.925-1.403 3.497-2.302 4.714-.894 1.215-1.735 1.825-2.52 1.825-1.19 0-1.785-1.013-1.785-3.04 0-2.235.656-4.42 1.963-6.562 1.353-2.223 3.007-3.33 4.958-3.33.804 0 1.648.046 2.53.135l-.61 3.41-.82 5.69c-.13.888-.195 1.467-.195 1.727 0 .483.164.725.496.725.564 0 1.405-.844 2.52-2.53l-.152 1.07c-1.232 1.804-2.342 2.704-3.322 2.704-.818 0-1.228-.58-1.228-1.74 0-.383.066-1.037.202-1.96l.416-2.84zm-15.495 4.63c.702.42 1.408.63 2.113.63 1.02 0 1.84-.88 2.454-2.647.726-2.088 1.09-3.964 1.09-5.63 0-1.207-.263-1.806-.783-1.806-.48 0-1.176.69-2.084 2.08-.907 1.38-1.71 2.968-2.408 4.757l-.38 2.617zm-7.927 9.084l1.145-1.645c.575.38 1.17.574 1.792.574 1.437 0 2.394-1.62 2.868-4.86l1.3-8.92c.154-1.137.23-1.897.23-2.27 0-.648-.18-.972-.542-.972-.26 0-.717.14-1.37.405l.11-.714 4.128-1.844-.643 3.722-.414 2.807h.142c.645-1.935 1.414-3.507 2.307-4.72.893-1.204 1.734-1.81 2.515-1.81 1.203 0 1.8 1.013 1.8 3.037 0 2.373-.684 4.62-2.057 6.74-1.374 2.118-2.828 3.18-4.366 3.18-.162 0-.482-.045-.965-.128-.065-.007-.16-.024-.29-.048-.446 2.48-1.217 4.38-2.313 5.696-1.1 1.318-2.457 1.974-4.082 1.974-.405 0-.84-.072-1.295-.208m-4.74-18.323c-.707-.427-1.41-.644-2.103-.644-1.026 0-1.847.885-2.463 2.65-.72 2.09-1.08 3.962-1.08 5.63 0 1.206.26 1.807.78 1.807.482 0 1.18-.69 2.092-2.08.908-1.383 1.71-2.968 2.397-4.748l.378-2.614zm-.672 4.61h-.153c-.64 1.925-1.405 3.497-2.302 4.714-.896 1.215-1.734 1.825-2.52 1.825-1.192 0-1.784-1.013-1.784-3.04 0-2.234.652-4.42 1.962-6.562 1.35-2.223 3.006-3.33 4.958-3.33.803 0 1.648.046 2.53.135l-.61 3.41-.825 5.69c-.13.89-.193 1.467-.193 1.727 0 .483.167.726.5.726.564 0 1.405-.845 2.52-2.53l-.152 1.07c-1.232 1.804-2.342 2.703-3.322 2.703-.818 0-1.23-.58-1.23-1.74 0-.383.068-1.037.204-1.96l.416-2.84zm-17.655 6.54l.44-1.88 7.218-8.994c-.26.023-.453.034-.583.034-.237 0-.676-.054-1.327-.16l-1.05-.16c-.338-.058-.624-.09-.864-.09-.79 0-1.59.46-2.393 1.38l.144-1.004c1.16-1.38 2.203-2.07 3.12-2.07.248 0 .54.032.88.09l.727.13c.373.057.7.09.98.09.786 0 1.48-.145 2.08-.437l-.435 1.91-6.838 8.81c.335-.045.613-.068.827-.068.418 0 .747.023.99.07l.555.115c.385.075.76.113 1.128.113 1.29 0 2.393-.564 3.31-1.7l-.162 1.104c-1.208 1.71-2.332 2.567-3.384 2.567-.255 0-.64-.04-1.157-.114l-.61-.08c-.368-.053-.804-.082-1.31-.082-.876 0-1.637.14-2.287.425m-11.25-.15l.626-3.546.828-5.692c.13-.88.194-1.457.194-1.726 0-.474-.168-.714-.5-.714-.552 0-1.39.84-2.52 2.524l.152-1.06c1.23-1.803 2.336-2.707 3.325-2.707.808 0 1.216.574 1.216 1.725 0 .393-.064 1.046-.194 1.962l-.416 2.842h.127c.705-1.967 1.5-3.548 2.39-4.74.888-1.193 1.715-1.79 2.484-1.79.925 0 1.385.698 1.385 2.095 0 .45-.05 1.006-.142 1.66l-.82 5.62c-.13.892-.194 1.465-.194 1.725 0 .483.167.725.5.725.563 0 1.405-.844 2.526-2.535l-.16 1.076c-1.23 1.804-2.337 2.703-3.323 2.703-.81 0-1.218-.58-1.218-1.74 0-.383.066-1.037.202-1.956l.818-5.643c.067-.436.1-.806.1-1.106 0-.62-.17-.93-.507-.93-1.076 0-2.57 2.326-4.48 6.977l-.617 4.112-1.784.14zm-4.856-11c-.71-.427-1.413-.644-2.104-.644-1.03 0-1.85.885-2.463 2.65-.723 2.09-1.084 3.962-1.084 5.63 0 1.206.26 1.807.78 1.807.486 0 1.18-.69 2.093-2.08.907-1.383 1.708-2.968 2.396-4.748l.38-2.614zm-.676 4.61h-.152c-.64 1.925-1.402 3.497-2.3 4.714-.898 1.215-1.736 1.825-2.522 1.825-1.19 0-1.784-1.013-1.784-3.04 0-2.234.656-4.42 1.963-6.562 1.35-2.223 3.006-3.33 4.958-3.33.804 0 1.648.046 2.53.135l-.61 3.41-.825 5.69c-.13.888-.193 1.467-.193 1.727 0 .483.167.725.5.725.564 0 1.405-.844 2.52-2.53l-.152 1.07c-1.232 1.805-2.342 2.704-3.322 2.704-.817 0-1.228-.58-1.228-1.74 0-.383.067-1.037.203-1.96l.416-2.84zm-10.456-8.535l.567-1.564 2.386-2.118-.728 2.12-2.224 1.563zm3.105 11.295l-.154 1.076c-1.232 1.804-2.342 2.703-3.322 2.703-.812 0-1.22-.58-1.22-1.74 0-.392.064-1.037.194-1.933l.587-4.01c.156-1.133.237-1.89.237-2.266 0-.644-.185-.968-.552-.968-.255 0-.708.136-1.362.405l.098-.714 4.14-1.844-.64 3.687-.834 5.687c-.13.893-.19 1.46-.19 1.706 0 .5.164.745.496.745.558 0 1.4-.844 2.52-2.535m-18.177 11.012c.487.098.95.15 1.392.15 1.673 0 3.064-.818 4.177-2.454 1.11-1.634 1.852-3.958 2.225-6.965l1.232-9.907h.44c.722 0 1.44.06 2.156.174l.685-1.027h-3.163l.246-1.633c.267-1.813.605-3.06 1.016-3.738.41-.682 1.04-1.02 1.887-1.02.552 0 1.087.225 1.613.67l1.21-1.75c-.415-.13-.87-.196-1.363-.196-1.532 0-2.88.694-4.04 2.09-1.163 1.39-1.904 3.204-2.224 5.43l-.027.147h-1.43l-.59.853h1.892l-1.62 13.093c-.215 1.722-.542 2.954-.98 3.7-.438.743-1.057 1.116-1.866 1.116-.565 0-1.12-.148-1.658-.45l-1.21 1.716zm-6.437-7.38l.627-3.548.827-5.692c.13-.88.194-1.457.194-1.726 0-.474-.167-.714-.5-.714-.55 0-1.39.84-2.517 2.524l.153-1.06c1.228-1.803 2.333-2.707 3.32-2.707.814 0 1.22.574 1.22 1.725 0 .393-.062 1.046-.192 1.962l-.417 2.842h.128c.702-1.967 1.5-3.548 2.39-4.74.885-1.193 1.715-1.79 2.484-1.79.92 0 1.384.698 1.384 2.095 0 .45-.05 1.006-.145 1.66l-.822 5.62c-.127.892-.194 1.465-.194 1.725 0 .483.17.725.5.725.564 0 1.408-.844 2.527-2.535l-.16 1.076c-1.227 1.804-2.337 2.703-3.32 2.703-.812 0-1.22-.58-1.22-1.74 0-.383.067-1.037.203-1.956l.82-5.643c.067-.436.102-.806.102-1.106 0-.62-.17-.93-.51-.93-1.077 0-2.57 2.326-4.48 6.977l-.618 4.112-1.784.14zm-7.112-.857c.837 0 1.568-.728 2.204-2.19.633-1.464.95-3.164.95-5.095 0-2.544-.568-3.813-1.707-3.813-.807 0-1.533.755-2.18 2.264-.642 1.507-.966 3.204-.966 5.095 0 2.494.568 3.74 1.7 3.74m-.962 1.004c-.74 0-1.358-.395-1.853-1.18-.49-.787-.737-1.767-.737-2.944 0-2.21.613-4.252 1.845-6.132 1.228-1.876 2.567-2.815 4.015-2.815.786 0 1.43.386 1.937 1.15.51.768.763 1.745.763 2.936 0 2.296-.616 4.37-1.844 6.213-1.232 1.846-2.605 2.77-4.126 2.77m-4.868-1.337c-1.795.983-3.368 1.474-4.718 1.474-1.457 0-2.584-.558-3.385-1.67-.798-1.114-1.2-2.678-1.2-4.698 0-3.202.77-5.925 2.304-8.168 1.536-2.247 3.395-3.37 5.578-3.37 1.304 0 2.512.227 3.63.68l-.72 3.17h-.534c.058-.362.087-.66.087-.89 0-.67-.268-1.206-.803-1.623-.535-.414-1.23-.622-2.087-.622-1.295 0-2.423.78-3.394 2.35-.645 1.035-1.168 2.32-1.573 3.857-.407 1.532-.61 2.986-.61 4.362 0 1.66.32 2.963.963 3.914.636.953 1.515 1.43 2.63 1.43 1.255 0 2.585-.428 3.996-1.29l-.162 1.093zm-26.95 8.384l1.17-1.61c.557.442 1.155.667 1.79.667.787 0 1.397-.38 1.83-1.14.44-.76.836-2.144 1.192-4.147l1.31-7.358h-.107c-.66 1.826-1.333 3.324-2.015 4.495-.683 1.17-1.22 1.757-1.616 1.757-.41 0-.717-.303-.925-.904-.207-.602-.386-1.72-.54-3.357l-.404-4.477c-.153-1.66-.41-2.486-.772-2.486-.35 0-.913.67-1.7 2.012l.17-1.178c.886-1.595 1.72-2.393 2.513-2.393.45 0 .77.273.963.828.19.555.373 1.718.54 3.493l.356 3.843c.13 1.376.347 2.064.645 2.064.35 0 .842-.665 1.48-1.992.114-.246.744-1.67 1.886-4.273l.644-3.69 1.802-.135-.752 3.594-1.483 8.188c-.5 2.77-1.298 4.886-2.397 6.343-1.095 1.46-2.44 2.192-4.03 2.192-.604 0-1.12-.11-1.55-.335m-12.667-8.052c.835 0 1.57-.728 2.202-2.19.634-1.464.952-3.164.952-5.095 0-2.544-.57-3.813-1.71-3.813-.806 0-1.53.755-2.176 2.264-.644 1.507-.967 3.204-.967 5.095 0 2.494.566 3.74 1.7 3.74m-.963 1.004c-.74 0-1.36-.395-1.85-1.18-.495-.787-.74-1.767-.74-2.944 0-2.21.615-4.252 1.844-6.132 1.23-1.876 2.567-2.815 4.016-2.815.786 0 1.433.386 1.936 1.15.51.768.764 1.745.764 2.936 0 2.296-.616 4.37-1.845 6.213-1.23 1.846-2.604 2.77-4.125 2.77m-11.523-.68l1.107-1.556c.734.728 1.483 1.096 2.243 1.096.47 0 .865-.165 1.185-.5.32-.333.483-.746.483-1.238 0-.546-.318-1.29-.957-2.237l-.772-1.15c-.748-1.123-1.124-2.057-1.124-2.808 0-1.047.364-1.975 1.09-2.784.728-.81 1.56-1.214 2.495-1.214.514 0 1.09.143 1.726.435l-.37 2.547h-.535l.026-.196c.01-.067.017-.148.017-.24 0-1.038-.49-1.556-1.47-1.556-1.102 0-1.65.596-1.65 1.796 0 .607.325 1.41.982 2.416l.694 1.053c.754 1.16 1.133 2.11 1.133 2.853 0 1.03-.403 1.946-1.204 2.75-.798.806-1.71 1.21-2.732 1.21-.717 0-1.506-.228-2.367-.68m-6.453-5.24c1.26-.136 2.25-.58 2.957-1.327.713-.75 1.068-1.716 1.068-2.907 0-1.177-.312-1.764-.94-1.764-.676 0-1.33.615-1.962 1.835-.63 1.23-1.006 2.616-1.122 4.163m5.597 2.49l-.126.887c-1.793 1.694-3.32 2.544-4.585 2.544-.8 0-1.45-.383-1.95-1.146-.5-.763-.75-1.752-.75-2.966 0-2.166.61-4.2 1.83-6.11 1.218-1.904 2.52-2.86 3.898-2.86.503 0 .908.23 1.217.69.31.463.466 1.058.466 1.798 0 1.475-.55 2.74-1.656 3.802-1.107 1.055-2.425 1.587-3.957 1.587l-.01.517c0 2.24.602 3.363 1.81 3.363 1.04 0 2.316-.706 3.813-2.108m-16.475 3.284l.627-3.546.82-5.634c.085-.57.13-1.06.13-1.472 0-.662-.172-.992-.51-.992-.6 0-1.452.87-2.565 2.602l.154-1.02c1.302-1.914 2.435-2.87 3.392-2.87.812 0 1.22.632 1.22 1.898 0 .56-.052 1.183-.153 1.868l-.406 2.775h.11c.67-1.92 1.465-3.487 2.38-4.707.918-1.214 1.754-1.824 2.517-1.824.397 0 .75.117 1.056.357l-1.124 2.073c-.333-.3-.613-.45-.848-.45-1.095 0-2.558 2.202-4.388 6.602l-.616 4.2-1.795.14zm-4.813-6.39l-.67 6.252c-.25 2.313-.666 4-1.25 5.07-.58 1.074-1.38 1.608-2.39 1.608-.78 0-1.45-.27-2-.812-.548-.54-.822-1.197-.822-1.963 0-1.19.737-2.48 2.214-3.868.92-.19 1.795-.835 2.63-1.937.836-1.096 1.553-2.547 2.152-4.35h.136zm.664-4.574l-.372 2.567c-1.84 4.37-3.31 6.554-4.424 6.554-.5 0-.75-.544-.75-1.625 0-.997.166-2.2.502-3.608.335-1.41.708-2.475 1.12-3.194.52-.917 1.152-1.374 1.904-1.374.67 0 1.347.23 2.02.68m-6.25 10.64c-2.08 1.652-3.122 3.323-3.122 5.008 0 .848.31 1.536.93 2.056.622.53 1.426.792 2.42.792 1.524 0 2.868-.74 4.036-2.214.795-1.01 1.35-2.044 1.66-3.102.315-1.056.627-2.95.936-5.672.073-.668.21-1.706.417-3.108l.396-2.674.597-3.41c-1.2-.088-1.99-.135-2.36-.135-1.95 0-3.584 1.032-4.896 3.097-1.355 2.12-2.03 4.316-2.03 6.588 0 1.388.337 2.316 1.016 2.775m-7.467-.532c.834 0 1.57-.728 2.202-2.19.633-1.464.95-3.164.95-5.095 0-2.544-.57-3.813-1.708-3.813-.806 0-1.532.755-2.177 2.264-.644 1.507-.968 3.204-.968 5.095 0 2.494.566 3.74 1.7 3.74m-.964 1.004c-.74 0-1.36-.395-1.85-1.18-.494-.787-.74-1.767-.74-2.944 0-2.21.616-4.252 1.844-6.132 1.232-1.876 2.568-2.815 4.016-2.815.786 0 1.434.386 1.937 1.15.51.768.763 1.745.763 2.936 0 2.296-.616 4.37-1.844 6.213-1.232 1.846-2.605 2.77-4.126 2.77m-11.656-.15l1.792-.138.62-4.2c1.826-4.4 3.29-6.603 4.387-6.603.234 0 .514.15.844.45l1.127-2.073c-.308-.24-.66-.358-1.057-.358-.76 0-1.6.61-2.515 1.823-.917 1.22-1.712 2.787-2.38 4.706h-.11l.403-2.776c.105-.685.154-1.307.154-1.868 0-1.266-.405-1.9-1.217-1.9-.96 0-2.09.958-3.394 2.872l-.15 1.02c1.11-1.73 1.965-2.602 2.56-2.602.34 0 .51.33.51.992 0 .413-.044.902-.128 1.472l-.818 5.634-.627 3.547zm-13.868-.138l1.26-1.705h.16l.364.01c.668 0 1.153-.302 1.457-.904.303-.6.59-1.818.86-3.654l1.44-9.896c-1.155 0-2.095.425-2.812 1.275-.72.848-1.08 1.953-1.08 3.32l.01.252-1.65 1.084c.16-2.385.84-4.123 2.04-5.213 1.202-1.084 3.05-1.627 5.54-1.627 1.794 0 3.07.263 3.837.79.767.522 1.145 1.404 1.145 2.63 0 .983-.26 1.986-.786 3.006-.523 1.018-1.185 1.81-1.978 2.36-.922.63-1.968.942-3.148.942h-.228l.32-.714h.154c1.08 0 1.99-.483 2.723-1.45.73-.967 1.098-2.167 1.098-3.6 0-2.166-1.128-3.247-3.383-3.247L23.15 163.3c-.334 2.338-1.268 4.174-2.795 5.503l3.256.09-1.167 1.706-5.27-.288zM373.063 159.45c-.71-.427-1.41-.643-2.105-.643-1.03 0-1.847.884-2.463 2.648-.723 2.087-1.084 3.963-1.084 5.628 0 1.21.26 1.81.78 1.81.487 0 1.184-.69 2.095-2.078.91-1.385 1.708-2.97 2.396-4.75l.383-2.614zm-.677 4.61h-.153c-.636 1.925-1.402 3.498-2.3 4.715-.894 1.214-1.736 1.824-2.522 1.824-1.187 0-1.783-1.016-1.783-3.04 0-2.237.656-4.423 1.963-6.565 1.353-2.22 3.007-3.327 4.958-3.327.807 0 1.65.046 2.53.135l-.61 3.41-.82 5.69c-.13.89-.195 1.467-.195 1.727 0 .483.168.726.5.726.56 0 1.402-.844 2.518-2.53l-.15 1.07c-1.234 1.804-2.34 2.703-3.324 2.703-.818 0-1.226-.58-1.226-1.74 0-.383.064-1.037.2-1.96l.416-2.84z" fill="#231f20"/><path d="M357.327 169.92l1.11-1.556c.732.728 1.48 1.095 2.244 1.095.466 0 .862-.165 1.183-.5.32-.333.483-.747.483-1.238 0-.546-.318-1.29-.957-2.238l-.77-1.15c-.752-1.122-1.128-2.056-1.128-2.807 0-1.047.365-1.975 1.093-2.784.726-.81 1.558-1.214 2.495-1.214.512 0 1.087.143 1.726.435l-.373 2.547h-.535l.026-.197c.012-.066.017-.147.017-.24 0-1.037-.49-1.555-1.47-1.555-1.102 0-1.65.596-1.65 1.795 0 .608.326 1.41.982 2.417l.694 1.053c.755 1.16 1.133 2.11 1.133 2.853 0 1.03-.403 1.946-1.2 2.75-.8.806-1.712 1.21-2.735 1.21-.717 0-1.504-.228-2.368-.68m-6.453-5.24c1.26-.136 2.25-.58 2.96-1.327.71-.75 1.065-1.716 1.065-2.907 0-1.177-.314-1.764-.94-1.764-.675 0-1.33.615-1.96 1.835-.63 1.23-1.007 2.616-1.126 4.163m5.597 2.49l-.126.886c-1.792 1.695-3.32 2.545-4.585 2.545-.8 0-1.45-.383-1.95-1.146-.497-.764-.745-1.752-.745-2.966 0-2.166.607-4.2 1.827-6.11 1.217-1.904 2.518-2.86 3.897-2.86.502 0 .906.23 1.22.69.308.462.46 1.058.46 1.798 0 1.474-.548 2.74-1.655 3.802-1.105 1.055-2.426 1.587-3.958 1.587l-.01.517c0 2.24.605 3.362 1.81 3.362 1.044 0 2.316-.705 3.814-2.107M340 170.45l.625-3.546.82-5.635c.085-.57.128-1.06.128-1.472 0-.662-.17-.992-.508-.992-.598 0-1.45.87-2.564 2.602l.153-1.02c1.305-1.914 2.435-2.87 3.395-2.87.812 0 1.217.632 1.217 1.898 0 .56-.052 1.183-.153 1.868l-.406 2.775h.11c.67-1.92 1.466-3.487 2.38-4.707.92-1.214 1.757-1.824 2.517-1.824.397 0 .75.117 1.06.357l-1.128 2.073c-.333-.3-.613-.45-.844-.45-1.1 0-2.562 2.202-4.39 6.602l-.617 4.2-1.792.14zm-9.56-1.76c.705.42 1.408.63 2.113.63 1.025 0 1.84-.88 2.456-2.647.725-2.088 1.09-3.964 1.09-5.63 0-1.207-.26-1.806-.784-1.806-.48 0-1.177.69-2.08 2.08-.912 1.38-1.713 2.968-2.412 4.757l-.382 2.616zm-7.927 9.084l1.146-1.645c.575.38 1.17.574 1.792.574 1.437 0 2.394-1.62 2.868-4.86l1.3-8.92c.154-1.137.23-1.897.23-2.27 0-.648-.18-.972-.54-.972-.26 0-.718.14-1.372.405l.11-.714 4.13-1.844-.646 3.722-.416 2.807h.147c.64-1.935 1.41-3.508 2.306-4.72.89-1.204 1.732-1.81 2.512-1.81 1.203 0 1.804 1.013 1.804 3.037 0 2.373-.688 4.62-2.058 6.74-1.376 2.118-2.83 3.18-4.37 3.18-.16 0-.478-.045-.964-.128-.064-.007-.16-.025-.29-.048-.444 2.48-1.213 4.38-2.312 5.696-1.098 1.318-2.457 1.974-4.082 1.974-.405 0-.838-.072-1.295-.208m-11.866-7.323l1.775-.138.617-4.076c.78-1.974 1.587-3.637 2.414-4.984.825-1.353 1.453-2.03 1.875-2.03.338 0 .506.327.506.98 0 .232-.037.596-.11 1.105l-1.326 9.144 1.656-.138.636-4.165c1.86-4.617 3.284-6.924 4.26-6.924.35 0 .528.318.528.957 0 .23-.04.595-.12 1.104l-.82 5.62c-.14.928-.205 1.58-.205 1.957 0 1.16.41 1.74 1.227 1.74.99 0 2.094-.9 3.322-2.704l.152-1.076c-1.12 1.69-1.963 2.535-2.518 2.535-.332 0-.5-.242-.5-.725 0-.266.064-.84.194-1.726l.82-5.62c.09-.63.137-1.16.137-1.59 0-1.443-.5-2.165-1.498-2.165-.71 0-1.488.61-2.34 1.823-.854 1.22-1.59 2.787-2.216 4.706h-.117l.404-2.8c.096-.62.145-1.156.145-1.6 0-.605-.127-1.114-.385-1.52-.257-.406-.575-.61-.954-.61-.72 0-1.51.588-2.364 1.768-.854 1.18-1.643 2.766-2.363 4.76h-.12l.415-2.84c.13-.91.193-1.56.193-1.952 0-1.16-.407-1.737-1.217-1.737-.988 0-2.093.903-3.324 2.707l-.154 1.06c1.13-1.684 1.97-2.525 2.52-2.525.334 0 .5.24.5.714 0 .27-.062.847-.192 1.726l-.833 5.692-.62 3.547zm-13.24-.138l1.254-1.705h.14c.857 0 1.45-.243 1.774-.73.323-.482.607-1.543.844-3.185l1.538-10.523c-1.162 0-2.102.424-2.82 1.27-.713.848-1.072 1.956-1.072 3.32v.255l-1.642 1.08c.145-2.326.813-4.044 2.015-5.157 1.2-1.113 2.978-1.67 5.337-1.67h4.973l-.755 3.257h-.53c.044-.297.067-.563.067-.803 0-.607-.254-1.027-.766-1.255-.51-.23-1.435-.347-2.786-.347h-.263l-.98 6.817h3.774l-.864 1.188c-1.278-.225-2.148-.335-2.61-.335h-.426l-.176 1.243c-.2 1.4-.5 2.504-.902 3.322-.405.815-1.05 1.63-1.943 2.437l4.062.217.887.033c.92 0 1.778-.433 2.582-1.298l-.136.93c-1 1.374-1.937 2.062-2.818 2.062l-.388-.01-7.37-.415zm-10.657-6.253h-.144c-1.602 4.36-3.163 6.54-4.687 6.54-.902 0-1.353-.727-1.353-2.178 0-.414.047-.93.136-1.553l.823-5.658c.127-.88.19-1.457.19-1.726 0-.474-.164-.714-.496-.714-.552 0-1.394.84-2.52 2.524l.152-1.06c1.228-1.805 2.335-2.707 3.32-2.707.82 0 1.23.574 1.23 1.724 0 .385-.067 1.038-.203 1.958l-.833 5.666c-.072.506-.11.867-.11 1.084 0 .622.168.93.5.93.423 0 1.067-.696 1.923-2.09.862-1.393 1.65-3.012 2.374-4.862l.61-4.137 1.793-.136-.627 3.545-.83 5.692c-.127.885-.19 1.46-.19 1.726 0 .483.167.725.5.725.554 0 1.396-.844 2.517-2.53l-.153 1.07c-1.234 1.804-2.34 2.704-3.322 2.704-.818 0-1.225-.58-1.225-1.74 0-.392.063-1.045.202-1.956l.422-2.845zm-16.183 5.86l1.11-1.556c.734.728 1.48 1.096 2.243 1.096.468 0 .862-.165 1.182-.5.32-.333.482-.746.482-1.238 0-.546-.318-1.29-.954-2.238l-.772-1.15c-.75-1.122-1.127-2.056-1.127-2.807 0-1.047.363-1.975 1.092-2.784.728-.81 1.558-1.214 2.495-1.214.514 0 1.087.143 1.725.435l-.373 2.547h-.535l.026-.197c.012-.066.018-.147.018-.24 0-1.037-.49-1.555-1.472-1.555-1.1 0-1.647.596-1.647 1.795 0 .608.325 1.41.98 2.417l.692 1.053c.758 1.16 1.137 2.11 1.137 2.853 0 1.03-.403 1.946-1.204 2.75-.8.806-1.71 1.21-2.735 1.21-.713 0-1.502-.228-2.367-.68m-8.915-10.467c-.71-.427-1.41-.644-2.105-.644-1.026 0-1.847.885-2.463 2.65-.72 2.09-1.08 3.962-1.08 5.63 0 1.206.26 1.807.777 1.807.485 0 1.182-.69 2.096-2.08.907-1.383 1.708-2.968 2.396-4.75l.378-2.612zm-.674 4.61h-.153c-.638 1.925-1.404 3.497-2.3 4.714-.896 1.215-1.738 1.825-2.52 1.825-1.192 0-1.785-1.013-1.785-3.04 0-2.235.654-4.42 1.963-6.562 1.35-2.223 3.004-3.33 4.955-3.33.807 0 1.65.046 2.533.135l-.61 3.41-.824 5.69c-.13.888-.194 1.467-.194 1.727 0 .483.168.725.5.725.564 0 1.402-.844 2.52-2.53l-.152 1.07c-1.232 1.804-2.342 2.704-3.325 2.704-.814 0-1.224-.58-1.224-1.74 0-.383.066-1.037.202-1.96l.416-2.84zm-15.69 6.39l.625-3.546.82-5.635c.084-.57.128-1.06.128-1.472 0-.662-.17-.992-.51-.992-.598 0-1.45.87-2.563 2.602l.153-1.02c1.304-1.914 2.434-2.87 3.394-2.87.81 0 1.217.632 1.217 1.898 0 .56-.053 1.183-.154 1.868l-.405 2.775h.11c.672-1.92 1.467-3.487 2.38-4.707.92-1.214 1.755-1.824 2.518-1.824.396 0 .75.117 1.058.357l-1.127 2.073c-.334-.3-.614-.45-.845-.45-1.1 0-2.565 2.202-4.392 6.602l-.616 4.2-1.792.14zm-4.968-11c-.71-.427-1.414-.644-2.108-.644-1.026 0-1.844.885-2.46 2.65-.722 2.09-1.084 3.962-1.084 5.63 0 1.206.26 1.807.78 1.807.486 0 1.18-.69 2.094-2.08.91-1.383 1.708-2.968 2.396-4.75l.382-2.612zm-.677 4.61h-.154c-.64 1.925-1.402 3.497-2.3 4.714-.894 1.215-1.735 1.825-2.522 1.825-1.188 0-1.784-1.013-1.784-3.04 0-2.235.657-4.42 1.963-6.562 1.353-2.223 3.007-3.33 4.958-3.33.808 0 1.65.046 2.53.135l-.61 3.41-.82 5.69c-.13.888-.194 1.467-.194 1.727 0 .483.168.725.497.725.564 0 1.405-.844 2.52-2.53l-.152 1.07c-1.23 1.804-2.34 2.704-3.32 2.704-.82 0-1.23-.58-1.23-1.74 0-.383.067-1.037.203-1.96l.416-2.84zm-15.496 4.63c.705.42 1.408.63 2.113.63 1.024 0 1.84-.88 2.455-2.647.725-2.088 1.09-3.964 1.09-5.63 0-1.207-.263-1.806-.784-1.806-.48 0-1.176.69-2.08 2.08-.912 1.38-1.716 2.968-2.412 4.757l-.382 2.616zm-7.924 9.084l1.142-1.645c.575.38 1.17.574 1.792.574 1.437 0 2.394-1.62 2.868-4.86l1.3-8.92c.154-1.137.23-1.897.23-2.27 0-.648-.18-.972-.54-.972-.26 0-.72.14-1.372.405l.11-.714 4.13-1.844-.646 3.722-.416 2.807h.144c.645-1.935 1.414-3.508 2.31-4.72.89-1.204 1.732-1.81 2.512-1.81 1.203 0 1.804 1.013 1.804 3.037 0 2.373-.688 4.62-2.06 6.74-1.374 2.118-2.828 3.18-4.37 3.18-.158 0-.476-.045-.962-.128-.064-.007-.16-.025-.29-.048-.444 2.48-1.216 4.38-2.312 5.696-1.098 1.318-2.457 1.974-4.082 1.974-.405 0-.838-.072-1.292-.208m-4.74-18.323c-.71-.427-1.412-.644-2.106-.644-1.026 0-1.847.885-2.46 2.65-.723 2.09-1.084 3.962-1.084 5.63 0 1.206.26 1.807.78 1.807.483 0 1.18-.69 2.093-2.08.908-1.383 1.71-2.968 2.397-4.75l.38-2.612zm-.675 4.61h-.153c-.64 1.925-1.405 3.497-2.3 4.714-.897 1.215-1.74 1.825-2.522 1.825-1.19 0-1.784-1.013-1.784-3.04 0-2.235.654-4.42 1.963-6.562 1.35-2.223 3.006-3.33 4.957-3.33.804 0 1.648.046 2.53.135l-.61 3.41-.824 5.69c-.13.888-.194 1.467-.194 1.727 0 .483.167.725.5.725.563 0 1.4-.844 2.52-2.53l-.153 1.07c-1.235 1.804-2.342 2.704-3.325 2.704-.815 0-1.225-.58-1.225-1.74 0-.383.066-1.037.202-1.96l.415-2.84zm-17.652 6.54l.437-1.88 7.218-8.994c-.26.023-.454.034-.584.034-.237 0-.676-.054-1.327-.16l-1.052-.16c-.335-.058-.62-.09-.86-.09-.79 0-1.59.46-2.395 1.38l.144-1.004c1.16-1.38 2.203-2.07 3.12-2.07.248 0 .54.032.88.09l.727.13c.374.057.7.09.98.09.787 0 1.48-.145 2.083-.437l-.437 1.91-6.837 8.81c.334-.045.612-.068.826-.068.42 0 .75.023.99.07l.556.115c.385.075.76.112 1.128.112 1.292 0 2.394-.564 3.31-1.7l-.162 1.104c-1.208 1.708-2.333 2.567-3.385 2.567-.255 0-.64-.04-1.156-.115l-.61-.08c-.368-.053-.804-.08-1.313-.08-.873 0-1.633.14-2.28.424m-11.252-.15l.624-3.546.83-5.692c.13-.88.193-1.457.193-1.726 0-.474-.168-.714-.5-.714-.553 0-1.39.84-2.522 2.523l.154-1.058c1.228-1.804 2.335-2.708 3.324-2.708.81 0 1.217.574 1.217 1.724 0 .394-.063 1.047-.193 1.963l-.417 2.842h.127c.706-1.967 1.5-3.548 2.39-4.74.89-1.193 1.716-1.79 2.485-1.79.925 0 1.384.698 1.384 2.095 0 .45-.05 1.006-.145 1.66l-.818 5.62c-.13.892-.194 1.465-.194 1.725 0 .483.168.725.5.725.56 0 1.405-.844 2.527-2.535l-.162 1.076c-1.23 1.803-2.336 2.703-3.322 2.703-.812 0-1.217-.58-1.217-1.74 0-.383.066-1.037.2-1.956l.82-5.643c.066-.436.1-.806.1-1.106 0-.62-.17-.93-.508-.93-1.075 0-2.57 2.326-4.48 6.977l-.617 4.112-1.783.14zm-4.857-11c-.71-.427-1.414-.644-2.108-.644-1.026 0-1.847.885-2.46 2.65-.723 2.09-1.084 3.962-1.084 5.63 0 1.206.26 1.807.78 1.807.483 0 1.18-.69 2.094-2.08.907-1.383 1.708-2.968 2.396-4.75l.382-2.612zm-.677 4.61h-.153c-.64 1.925-1.402 3.497-2.3 4.714-.897 1.215-1.736 1.825-2.522 1.825-1.188 0-1.784-1.013-1.784-3.04 0-2.235.655-4.42 1.962-6.562 1.35-2.223 3.007-3.33 4.958-3.33.804 0 1.648.046 2.53.135l-.61 3.41-.824 5.69c-.13.888-.194 1.467-.194 1.727 0 .483.168.725.5.725.564 0 1.405-.844 2.52-2.53l-.152 1.07c-1.232 1.804-2.342 2.704-3.322 2.704-.818 0-1.228-.58-1.228-1.74 0-.383.066-1.037.202-1.96l.416-2.84zm-10.456-8.535l.566-1.564 2.385-2.118-.725 2.12-2.226 1.563zm3.105 11.295l-.154 1.076c-1.23 1.803-2.34 2.703-3.32 2.703-.814 0-1.22-.58-1.22-1.74 0-.392.062-1.037.192-1.933l.587-4.01c.156-1.133.237-1.89.237-2.266 0-.644-.186-.968-.553-.968-.254 0-.708.136-1.362.405l.1-.714 4.14-1.844-.643 3.687-.833 5.687c-.13.893-.194 1.46-.194 1.706 0 .5.167.745.5.745.558 0 1.4-.844 2.52-2.535m-18.178 11.012c.486.098.95.15 1.39.15 1.675 0 3.065-.818 4.178-2.454 1.11-1.634 1.853-3.958 2.226-6.965l1.232-9.907h.44c.722 0 1.44.06 2.156.174l.685-1.027h-3.163l.246-1.633c.266-1.813.604-3.06 1.012-3.738.413-.682 1.044-1.02 1.89-1.02.553 0 1.088.225 1.614.67l1.21-1.75c-.415-.13-.872-.196-1.363-.196-1.532 0-2.88.694-4.04 2.09-1.163 1.39-1.903 3.204-2.224 5.43l-.026.147h-1.43l-.59.853h1.893l-1.622 13.093c-.213 1.722-.54 2.954-.976 3.7-.44.743-1.06 1.115-1.868 1.115-.564 0-1.116-.147-1.656-.448l-1.212 1.715zm-6.438-7.38l.628-3.548.826-5.692c.13-.88.194-1.457.194-1.726 0-.474-.168-.714-.497-.714-.55 0-1.393.84-2.523 2.523l.156-1.058c1.23-1.804 2.333-2.708 3.322-2.708.812 0 1.22.574 1.22 1.724 0 .394-.064 1.047-.194 1.963l-.415 2.842h.127c.702-1.967 1.5-3.548 2.39-4.74.885-1.193 1.715-1.79 2.48-1.79.926 0 1.39.698 1.39 2.095 0 .45-.05 1.006-.146 1.66l-.82 5.62c-.13.892-.194 1.465-.194 1.725 0 .483.167.725.5.725.563 0 1.408-.844 2.526-2.535l-.16 1.076c-1.227 1.803-2.337 2.703-3.32 2.703-.813 0-1.22-.58-1.22-1.74 0-.383.066-1.037.202-1.956l.82-5.643c.068-.436.102-.806.102-1.106 0-.62-.17-.93-.508-.93-1.08 0-2.57 2.326-4.48 6.977l-.62 4.112-1.784.14zm-7.112-.857c.836 0 1.567-.728 2.203-2.19.634-1.464.952-3.164.952-5.095 0-2.544-.57-3.813-1.708-3.813-.807 0-1.532.755-2.18 2.264-.642 1.507-.965 3.204-.965 5.095 0 2.494.565 3.74 1.698 3.74m-.962 1.004c-.74 0-1.36-.395-1.853-1.18-.492-.787-.738-1.767-.738-2.944 0-2.21.613-4.253 1.845-6.132 1.23-1.876 2.567-2.815 4.015-2.815.787 0 1.434.386 1.937 1.15.51.768.764 1.745.764 2.936 0 2.296-.616 4.37-1.845 6.213-1.23 1.846-2.604 2.77-4.124 2.77m-4.87-1.337c-1.794.983-3.367 1.474-4.717 1.474-1.455 0-2.585-.558-3.386-1.67-.798-1.114-1.2-2.678-1.2-4.698 0-3.202.77-5.925 2.304-8.168 1.536-2.247 3.394-3.37 5.577-3.37 1.304 0 2.512.227 3.63.68l-.72 3.17h-.534c.06-.362.088-.66.088-.89 0-.67-.27-1.206-.804-1.623-.534-.414-1.23-.622-2.09-.622-1.292 0-2.42.78-3.39 2.35-.645 1.035-1.17 2.32-1.573 3.857-.407 1.532-.61 2.986-.61 4.362 0 1.66.32 2.963.963 3.914.636.953 1.515 1.43 2.63 1.43 1.256 0 2.585-.428 3.996-1.29l-.163 1.093zm-26.948 8.384l1.168-1.61c.558.442 1.156.667 1.792.667.787 0 1.397-.38 1.83-1.14.44-.76.836-2.144 1.19-4.147l1.31-7.358h-.106c-.66 1.826-1.333 3.324-2.015 4.495-.685 1.17-1.22 1.757-1.616 1.757-.41 0-.72-.303-.927-.905-.202-.6-.382-1.72-.535-3.356l-.405-4.477c-.153-1.66-.41-2.486-.77-2.486-.35 0-.915.67-1.7 2.012l.17-1.178c.884-1.596 1.72-2.393 2.51-2.393.452 0 .773.273.964.828.19.555.373 1.718.54 3.493l.356 3.843c.13 1.376.347 2.064.645 2.064.35 0 .84-.665 1.48-1.992.113-.246.743-1.67 1.885-4.273l.645-3.69 1.8-.135-.754 3.594-1.48 8.188c-.5 2.77-1.298 4.886-2.396 6.343-1.096 1.46-2.44 2.192-4.03 2.192-.605 0-1.122-.11-1.55-.335m-12.668-8.052c.835 0 1.57-.728 2.203-2.19.633-1.464.95-3.164.95-5.095 0-2.544-.57-3.813-1.71-3.813-.804 0-1.53.755-2.175 2.264-.644 1.507-.968 3.204-.968 5.095 0 2.494.567 3.74 1.7 3.74m-.963 1.004c-.74 0-1.36-.395-1.853-1.18-.49-.787-.737-1.767-.737-2.944 0-2.21.613-4.253 1.844-6.132 1.23-1.876 2.568-2.815 4.017-2.815.786 0 1.434.386 1.937 1.15.51.768.763 1.745.763 2.936 0 2.296-.616 4.37-1.844 6.213-1.232 1.846-2.605 2.77-4.126 2.77m-11.523-.68l1.107-1.556c.735.728 1.484 1.096 2.244 1.096.47 0 .865-.165 1.186-.5.32-.333.48-.746.48-1.238 0-.546-.315-1.29-.954-2.238l-.772-1.15c-.75-1.122-1.125-2.056-1.125-2.807 0-1.047.363-1.975 1.09-2.784.728-.81 1.56-1.214 2.494-1.214.515 0 1.09.143 1.726.435l-.37 2.547h-.535l.026-.197c.013-.066.018-.147.018-.24 0-1.037-.49-1.555-1.474-1.555-1.1 0-1.648.596-1.648 1.795 0 .608.327 1.41.983 2.417l.693 1.053c.754 1.16 1.133 2.11 1.133 2.853 0 1.03-.402 1.946-1.2 2.75-.8.806-1.714 1.21-2.734 1.21-.717 0-1.507-.228-2.368-.68m-6.453-5.24c1.262-.136 2.25-.58 2.96-1.327.71-.75 1.065-1.716 1.065-2.907 0-1.177-.312-1.764-.94-1.764-.676 0-1.33.615-1.962 1.835-.63 1.23-1.003 2.616-1.122 4.163m5.598 2.49l-.127.887c-1.79 1.694-3.318 2.544-4.584 2.544-.8 0-1.45-.383-1.95-1.146-.5-.763-.747-1.752-.747-2.966 0-2.166.61-4.2 1.83-6.11 1.216-1.904 2.517-2.86 3.896-2.86.503 0 .904.23 1.217.69.31.463.465 1.058.465 1.798 0 1.475-.552 2.74-1.656 3.802-1.108 1.055-2.426 1.587-3.958 1.587l-.01.517c0 2.24.602 3.362 1.81 3.362 1.04 0 2.316-.705 3.814-2.107m-16.476 3.284l.628-3.546.82-5.635c.084-.57.128-1.06.128-1.472 0-.662-.17-.992-.51-.992-.597 0-1.453.87-2.563 2.602l.153-1.02c1.3-1.914 2.434-2.87 3.39-2.87.813 0 1.22.632 1.22 1.898 0 .56-.05 1.183-.152 1.868l-.405 2.775h.11c.672-1.92 1.467-3.487 2.38-4.707.92-1.214 1.755-1.824 2.518-1.824.396 0 .75.117 1.058.357l-1.127 2.073c-.334-.3-.614-.45-.848-.45-1.096 0-2.562 2.202-4.39 6.602l-.614 4.2-1.796.14zm-4.813-6.39l-.672 6.252c-.248 2.313-.665 4-1.25 5.07-.58 1.074-1.378 1.608-2.39 1.608-.78 0-1.448-.27-1.997-.812-.548-.54-.823-1.197-.823-1.963 0-1.19.737-2.48 2.214-3.868.92-.19 1.797-.835 2.632-1.937.836-1.096 1.553-2.547 2.15-4.35h.137zm.664-4.574l-.373 2.567c-1.838 4.37-3.31 6.554-4.422 6.554-.5 0-.752-.544-.752-1.625 0-.997.168-2.2.5-3.608.338-1.41.71-2.475 1.125-3.194.518-.917 1.15-1.374 1.903-1.374.67 0 1.344.23 2.02.68m-6.25 10.64c-2.08 1.652-3.122 3.323-3.122 5.008 0 .847.31 1.536.932 2.056.622.53 1.425.792 2.42.792 1.523 0 2.868-.74 4.036-2.214.795-1.01 1.35-2.044 1.66-3.102.314-1.056.626-2.95.936-5.672.072-.668.21-1.706.416-3.108l.396-2.674.6-3.41c-1.2-.088-1.99-.135-2.36-.135-1.952 0-3.585 1.032-4.898 3.097-1.356 2.12-2.03 4.316-2.03 6.588 0 1.388.336 2.316 1.016 2.775m-7.468-.532c.836 0 1.57-.728 2.203-2.19.632-1.464.95-3.164.95-5.095 0-2.544-.57-3.813-1.708-3.813-.807 0-1.533.755-2.177 2.264-.645 1.507-.97 3.204-.97 5.095 0 2.494.568 3.74 1.7 3.74m-.96 1.004c-.742 0-1.36-.395-1.852-1.18-.494-.787-.74-1.767-.74-2.944 0-2.21.616-4.253 1.845-6.132 1.23-1.876 2.567-2.815 4.015-2.815.787 0 1.434.386 1.937 1.15.51.768.763 1.745.763 2.936 0 2.296-.615 4.37-1.844 6.213-1.233 1.846-2.606 2.77-4.126 2.77m-11.657-.15l1.793-.138.618-4.2c1.827-4.4 3.29-6.603 4.39-6.603.233 0 .513.15.846.45l1.124-2.073c-.31-.24-.662-.358-1.058-.358-.76 0-1.598.61-2.515 1.823-.916 1.22-1.71 2.787-2.38 4.706h-.11l.403-2.776c.104-.685.153-1.307.153-1.868 0-1.266-.404-1.9-1.216-1.9-.96 0-2.09.958-3.394 2.872l-.153 1.02c1.113-1.73 1.97-2.602 2.564-2.602.34 0 .51.33.51.992 0 .413-.043.902-.127 1.47l-.818 5.636-.628 3.547zm-13.868-.138l1.26-1.705h.16l.363.01c.668 0 1.154-.302 1.457-.904.304-.6.59-1.818.862-3.654l1.436-9.896c-1.153 0-2.093.425-2.81 1.274-.72.85-1.08 1.955-1.08 3.322l.008.252-1.648 1.084c.16-2.385.84-4.123 2.038-5.213 1.203-1.084 3.05-1.627 5.542-1.627 1.793 0 3.07.263 3.837.79.766.522 1.145 1.404 1.145 2.63 0 .983-.26 1.986-.787 3.006-.523 1.018-1.185 1.81-1.977 2.36-.922.63-1.97.942-3.148.942h-.23l.322-.714h.153c1.08 0 1.99-.483 2.724-1.45.73-.967 1.098-2.167 1.098-3.6 0-2.166-1.127-3.247-3.382-3.247l-1.365 9.326c-.335 2.338-1.27 4.173-2.795 5.503l3.255.09-1.168 1.706-5.27-.288zM373.56 159.45c-.712-.427-1.412-.643-2.106-.643-1.03 0-1.847.884-2.463 2.648-.72 2.087-1.08 3.963-1.08 5.628 0 1.21.257 1.81.778 1.81.486 0 1.182-.69 2.093-2.078.912-1.385 1.71-2.97 2.398-4.75l.38-2.614zm-.677 4.61h-.154c-.637 1.925-1.403 3.498-2.3 4.715-.895 1.214-1.736 1.824-2.52 1.824-1.19 0-1.786-1.016-1.786-3.04 0-2.237.656-4.423 1.963-6.565 1.352-2.22 3.006-3.327 4.958-3.327.806 0 1.65.046 2.53.135l-.61 3.41-.822 5.69c-.13.89-.194 1.467-.194 1.727 0 .483.167.726.5.726.56 0 1.402-.844 2.518-2.53l-.15 1.07c-1.235 1.804-2.342 2.703-3.325 2.703-.82 0-1.226-.58-1.226-1.74 0-.383.066-1.037.2-1.96l.416-2.84z" fill="#231f20"/><path d="M153.247 37.267c-5.143 4.995-24.006 7.054-37.088.332 12.205-7.89 32.23-5.132 37.087-.333" fill="#00a651" fill-rule="evenodd"/><path d="M153.247 37.267c-5.143 4.995-24.006 7.054-37.088.332 12.205-7.89 32.23-5.132 37.087-.333z" fill="none" stroke="#54a275" stroke-width="1.165" stroke-miterlimit="22.926"/><path d="M65.85 38.79c5.038 4.995 23.522 7.053 36.34.332-11.962-7.89-31.583-5.132-36.34-.333" fill="#00a651" fill-rule="evenodd"/><path d="M65.85 38.79c5.038 4.995 23.522 7.053 36.34.332-11.962-7.89-31.583-5.132-36.34-.333z" fill="none" stroke="#54a275" stroke-width="1.165" stroke-miterlimit="22.926"/><path d="M107.72.783c5.178 4.313 7.918 20.81 1.674 32.584-8.323-10.405-6.29-28.118-1.674-32.584" fill="#00a651" fill-rule="evenodd"/><path d="M107.72.783c5.178 4.313 7.918 20.81 1.674 32.584-8.323-10.405-6.29-28.118-1.674-32.584z" fill="none" stroke="#54a275" stroke-width="1.165" stroke-miterlimit="22.926"/><path d="M142.697 13.59c-.836 7.247-14.143 19.513-28.508 20.846 4.483-13.71 21.725-22.38 28.507-20.847" fill="#00a651" fill-rule="evenodd"/><path d="M142.697 13.59c-.836 7.247-14.143 19.513-28.508 20.846 4.483-13.71 21.725-22.38 28.507-20.847z" fill="none" stroke="#54a275" stroke-width="1.165" stroke-miterlimit="22.926"/><path d="M75.973 13.742c.835 7.247 14.142 19.513 28.508 20.846-4.483-13.71-21.722-22.38-28.507-20.846" fill="#00a651" fill-rule="evenodd"/><path d="M75.973 13.742c.835 7.247 14.142 19.513 28.508 20.846-4.483-13.71-21.722-22.38-28.507-20.846z" fill="none" stroke="#54a275" stroke-width="1.165" stroke-miterlimit="22.926"/><path d="M0 147.753h400.012v-2.93H0v2.93z" fill="#231f20" fill-rule="evenodd"/><path d="M329.794 66.003l-2.764-2.19h27.34c1.84 0 3.455-.45 4.84-1.375 1.38-.925 2.046-2.142 2.046-3.608 0-.225-.1-.427-.332-.63-.258-.225-.486-.318-.717-.318-.564 0-.923.408-1.076 1.22-.253.7-.817 1.33-1.664 1.87-.87.564-1.688.836-2.506.836h-29.312c-1.613 0-2.434.45-2.434 1.353 0 .43.205.837.59 1.218l4.455 3.25c.765.54 1.33.812 1.687.812.486 0 .743-.272.743-.812 0-.7-.306-1.24-.896-1.625m9.37 14.48l-10.6-7.848c-.41-.362-.817-.54-1.227-.54-.845 0-1.255.314-1.255.944 0 .474.332.925.948 1.352l9.957 7.173c.717.454 1.228.656 1.538.656.74 0 1.1-.294 1.1-.924 0-.272-.155-.564-.46-.812m-13.517 38.027v-16.914c0-1.873.766-3.272 2.278-4.174 1.51-.925 3.045-1.376 4.632-1.376h19.534c1.33 0 2.738-.495 4.145-1.466 1.434-.992 2.15-2.165 2.15-3.518 0-1.194-.406-1.78-1.253-1.78-.512 0-.923.404-1.23 1.216-.152.812-.664 1.6-1.56 2.39-.922.767-1.767 1.15-2.61 1.15l-20.38.273c-2.02 0-3.89.678-5.578 2.05-1.718 1.38-2.562 3.094-2.562 5.1v17.05c0 1.895.41 2.843 1.203 2.843.82 0 1.23-.948 1.23-2.842m-4.916 12.452c-1.127 0-1.687.408-1.687 1.218 0 .835.56 1.24 1.688 1.24h37.326c1.1 0 2.278-.45 3.585-1.33 1.304-.88 2.1-1.94 2.406-3.18 0-1.174-.255-1.738-.743-1.738-.434 0-.818.16-1.177.498-.332.315-.51.653-.51.99-.13.767-.59 1.377-1.383 1.852-.795.474-1.51.722-2.177.722l-37.325-.272zm-1.075 4.06h38.733c2.408 0 4.354-.7 5.81-2.12 1.435-1.4 2.178-3.044 2.178-4.917 0-1.87-.743-3.472-2.177-4.782-1.458-1.33-3.508-1.986-6.17-1.986h-23.475c-4.634 0-6.938-1.578-6.938-4.712v-12.723c0-3.698 1.998-5.548 5.993-5.548h17.843c2.457 0 4.63-.812 6.528-2.414 1.894-1.6 2.84-3.518 2.84-5.727 0-2.55-1.43-4.85-4.325-6.903l-23.628-17.75h20.248c3.302 0 5.89-.7 7.73-2.12 1.82-1.4 2.74-3.09 2.74-5.053 0-1.76-.768-3.25-2.303-4.49-1.535-1.24-3.738-1.847-6.606-1.847H318.76c-3.48 0-6.118.63-7.936 1.916-1.793 1.284-2.686 2.886-2.686 4.85 0 2.953 1.74 5.752 5.22 8.388l23.63 17.46h-17.64c-2.404 0-4.25.744-5.555 2.256-1.304 1.486-1.946 3.09-1.946 4.782v34.914c0 2.437.463 4.49 1.36 6.09.895 1.626 3.046 2.435 6.448 2.435m-1.535-56.86l-11.673-9.044c-3.38-2.593-5.068-5.955-5.068-10.15 0-2.278.586-4.377 1.74-6.34 1.15-1.96 2.89-3.538 5.22-4.735 2.33-1.193 5.198-1.78 8.578-1.78h39.293c4.254 0 7.657 1.24 10.244 3.698 2.585 2.46 3.89 5.39 3.89 8.75 0 3.565-1.537 6.61-4.633 9.16-3.098 2.55-7.628 3.833-13.618 3.833l11.954 9.746c2.767 2.278 4.148 5.3 4.148 9.066 0 3.588-1.306 6.72-3.97 9.407-2.635 2.682-6.347 4.012-11.11 4.012h-18.56v11.887l25.167.27c3.967 0 7.093 1.24 9.446 3.745 2.33 2.503 3.506 5.392 3.506 8.705 0 3.428-1.277 6.363-3.84 8.797-2.534 2.437-6.246 3.654-11.083 3.654h-39.63c-8.806 0-13.208-4.24-13.208-12.72V91.04c0-3.07 1.023-5.864 3.096-8.325 2.047-2.48 5.426-3.99 10.112-4.556m-45.003 3.677c-1.385-.382-2.715-1.33-4.02-2.82-1.308-1.488-2.664-3.066-4.072-4.737-1.408-1.668-2.816-2.773-4.17-3.27-1.846-.54-3.508-.79-4.968-.79-4.172 0-6.247 1.58-6.247 4.716v37.056c0 3.18 1.893 4.76 5.657 4.76 1.87-.317 3.97-1.06 6.3-2.233 2.327-1.195 4.428-3.204 6.348-6.023 1.92-2.82 2.917-6.52 3.02-11.098v-5.55c0-5.21.718-8.548 2.152-10.013m6.935-17.728c-.537-.452-1.05-.677-1.535-.677-.642 0-.948.38-.948 1.104 0 .587.305 1.08.947 1.49 2.61 1.624 4.097 4.78 4.403 9.473.153.902.613 1.353 1.408 1.353.922 0 1.382-.54 1.382-1.648-.434-3.067-.97-5.21-1.662-6.45-.665-1.263-1.998-2.798-3.996-4.646m10.113 22.465c-.28-.995-.743-1.49-1.382-1.49-.59 0-.948.585-1.1 1.782.536 2.437.794 4.828.794 7.172 0 6.383-1.46 12.474-4.406 18.27-2.942 5.796-7.013 9.99-12.208 12.56-7.86 3.973-16.027 5.957-24.553 5.957-4.736 0-8.934-.63-12.62-1.917-.59-.272-1.153-.405-1.665-.405-.743 0-1.1.292-1.1.833 0 .88.716 1.6 2.176 2.142 3.996 1.286 8.396 1.94 13.21 1.94 5.556 0 11.06-.813 16.513-2.41 5.426-1.603 10.01-3.927 13.746-6.95 2.714-2.276 5.096-5.008 7.143-8.188 2.072-3.18 3.633-6.586 4.71-10.217 1.1-3.654 1.638-7.308 1.638-10.962 0-2.706-.305-5.412-.895-8.118m-47.923 32.185c-.818-1.06-1.23-2.278-1.23-3.63V74.146c0-2.752 1.308-5.392 3.892-7.895 2.61-2.504 6.68-3.767 12.238-3.767 2.252 0 3.38-.45 3.38-1.353 0-.677-1.128-1.06-3.38-1.197-6.58 0-11.443 1.333-14.542 3.97-3.122 2.64-4.683 5.775-4.683 9.406v41.255c0 1.983.51 3.744 1.56 5.3.36.9.87 1.352 1.536 1.352.818 0 1.23-.812 1.23-2.457m-15.36-59.14v66.312c0 2.978 1.612 5.233 4.836 6.768 3.225 1.555 6.63 2.32 10.24 2.32 9.573 0 18.023-1.305 25.395-3.922 7.372-2.616 13.287-6.72 17.716-12.315 4.456-5.57 7.066-12.607 7.86-21.113.103-.63.152-1.714.152-3.246 0-3.903-.662-7.285-1.97-10.15-1.306-2.888-3.532-4.31-6.63-4.31-1.972.205-3.56.97-4.762 2.257-1.23 1.285-1.845 4.332-1.845 9.09 0 5.166-.792 10.104-2.353 14.82-1.587 4.69-4.223 8.57-7.935 11.615-3.712 3.044-8.578 4.556-14.568 4.556-6.887 0-10.32-3.338-10.32-10.013V75.5c0-7.603 4.303-11.39 12.906-11.39 7.91.314 14.08 3.856 18.43 10.554.512 1.015 1.307 2.007 2.434 3 1.1.97 2.148 1.467 3.097 1.467.306 0 .69-.09 1.075-.27 1.535-.63 3.302-.946 5.35-.946.947-.16 1.41-1.243 1.41-3.25 0-1.49-.36-3.157-1.05-4.984-.717-1.827-1.897-3.767-3.585-5.796-1.688-2.03-3.943-3.993-6.733-5.866-7.17-4.622-17-6.924-29.49-6.924-1.87 0-4.328.09-7.373.272-2.944.18-5.734.922-8.345 2.232-2.636 1.33-3.943 3.34-3.943 6.022m-6.606-.79c0-3.813 1.36-6.72 4.097-8.727 2.74-2.033 5.99-3.25 9.728-3.724 3.97-.565 7.962-.833 11.958-.833 7.14 0 14 .902 20.606 2.73 6.606 1.826 12.34 4.598 17.204 8.365 6.63 5.03 9.957 9.97 9.957 14.796 0 1.85-.512 3.747-1.535 5.684 4.94 2.572 7.398 7.94 7.398 16.082 0 1.804-.154 3.654-.46 5.55-2.894 26.548-21.12 40.485-54.682 41.818-16.178 0-24.27-4.602-24.27-13.804V58.83zm-15.513 2.978v63.335c0 1.038-.485 1.917-1.434 2.663-.946.743-2.305 1.104-4.123 1.104H147.93c-1.74 0-2.584.405-2.584 1.217 0 .746.844 1.107 2.584 1.107h50.537c2.278 0 4.325-.52 6.143-1.578 1.82-1.06 2.738-2.663 2.738-4.762V61.536c0-.812-.153-1.51-.46-2.096-.28-.563-.64-.858-1.075-.858-.69 0-1.05 1.084-1.05 3.226m-53.76-3.54l40.242 53.724c1.232 1.85 1.845 3.07 1.845 3.677 0 .632-.307 1.352-.922 2.165-.18.36-.28.54-.28.54 0 .25.126.52.384.813.254.27.586.407.997.407.33 0 .742-.27 1.202-.835.922-1.217 1.382-2.3 1.382-3.226 0-.743-.255-1.533-.74-2.322L153.46 57.478c-.537-.813-1.15-1.218-1.815-1.218-.616 0-.948.316-.948.97 0 .427.1.788.306 1.037M149.16 79.38v38.455c0 .79.514 1.197 1.537 1.197.844 0 1.255-.408 1.255-1.197V79.943c0-.474-.18-.86-.538-1.174-.385-.293-.77-.43-1.154-.43-.743 0-1.1.34-1.1 1.04m11.366 20.207v11.888c0 .36.205.835.616 1.42.41.586 1.23.88 2.457.88h7.55l-10.624-14.188zm-22.118 26.368c0 2.278.77 3.97 2.304 5.03 1.535 1.062 3.38 1.602 5.53 1.602h51.61c3.71 0 6.553-.812 8.473-2.414 1.945-1.6 2.92-3.475 2.92-5.594V58.266c0-2.39-.845-4.264-2.51-5.57-1.688-1.33-3.66-1.987-5.964-1.987-2.254 0-4.174.61-5.76 1.85-1.588 1.24-2.38 2.955-2.38 5.19v33.29c0 8.12 1.842 14.48 5.554 19.082 1.306 1.804 1.97 3.608 1.97 5.412 0 2.324-1.048 4.33-3.12 6-2.1 1.692-4.534 2.525-7.35 2.525-3.813 0-7.14-1.487-9.956-4.465h-21.786c-2.79 0-4.175-1.94-4.175-5.82v-32.21l28.418 36.27c2.15 2.798 4.814 4.194 8.01 4.194 2 0 3.713-.587 5.173-1.735 1.434-1.174 2.177-2.663 2.177-4.49 0-1.465-.616-3-1.845-4.602l-40.525-54.29c-2.995-4.127-6.27-6.203-9.83-6.203-2.023 0-3.685.676-4.992 2.052-1.304 1.353-1.945 3.114-1.945 5.256v67.937zm-6.603-67.937c0-3.246 1.33-6.18 4.018-8.728 2.69-2.573 5.964-3.856 9.806-3.856 6.09 0 11.67 3.43 16.74 10.306l23.654 32.165V58.29c0-4.082 1.512-7.285 4.504-9.633 2.998-2.32 6.505-3.495 10.55-3.495 3.97 0 7.423 1.174 10.366 3.542 2.946 2.344 4.403 5.637 4.403 9.878v66.02c0 5.233-1.714 8.84-5.146 10.827-3.453 1.982-7.266 2.977-11.467 2.977h-54.22c-3.97 0-7.143-.995-9.574-3-2.433-1.987-3.635-4.965-3.635-8.888V58.017zm-18.56 2.706v65.772c0 .925-.232 1.827-.668 2.663-.46.854-1.203 1.282-2.252 1.282-.844 0-1.255.25-1.255.792 0 1.08.743 1.622 2.203 1.622 1.203 0 2.278-.54 3.276-1.602 1-1.08 1.484-2.75 1.484-5.007V60.455c0-1.442-.41-2.188-1.254-2.188-1.024 0-1.535.835-1.535 2.457m-11.367-1.08v65.77c0 3.045.77 5.413 2.278 7.084 1.535 1.688 3.38 2.523 5.556 2.523 2.1 0 3.992-.808 5.658-2.413 1.662-1.62 2.48-3.743 2.48-6.36V59.643c0-2.73-.766-4.805-2.278-6.247-1.535-1.446-3.38-2.166-5.554-2.166-2.176 0-4.07.743-5.71 2.232-1.612 1.49-2.43 3.54-2.43 6.18m-6.3-.54c0-4.197 1.486-7.467 4.48-9.858 2.996-2.368 6.454-3.564 10.42-3.564 3.816 0 7.092 1.15 9.855 3.428 2.74 2.3 4.123 5.528 4.123 9.722v67.397c0 3.067-.665 5.704-1.998 7.892-1.304 2.21-3.07 3.856-5.247 4.94-2.173 1.104-4.48 1.645-6.885 1.645-3.967 0-7.398-1.284-10.344-3.88-2.942-2.593-4.402-6.11-4.402-10.598V59.102zm-57.24 6.63l-2.918-2.435h27.777c1.714 0 3.2-.45 4.426-1.376 1.23-.924 1.87-1.962 1.87-3.066 0-.836-.384-1.24-1.1-1.24-.487 0-.898.427-1.204 1.24-.154.653-.614 1.217-1.383 1.69-.77.475-1.538.724-2.33.724H34.78c-1.92 0-2.892.676-2.892 2.03 0 .45.153.81.46 1.08l4.454 3.25c.434.248.743.38.897.38.817 0 1.227-.403 1.227-1.216 0-.45-.18-.812-.59-1.06m9.344 13.94L37.11 72.34c-.435-.36-.845-.518-1.256-.518-.717 0-1.075.316-1.075.95 0 .47.308.924.92 1.352l10.14 7.44c.433.34.844.52 1.228.52.307 0 .587-.135.844-.383.258-.268.41-.586.41-.968 0-.474-.23-.835-.64-1.06m-18.278 53.996c2.79-.79 4.172-2.142 4.172-4.058v-28.15c0-2.142.818-3.61 2.483-4.443 1.64-.835 3.327-1.24 5.018-1.24l19.173.27c1.076 0 2.28-.496 3.638-1.444 1.33-.948 2.226-2.053 2.662-3.293 0-1.353-.332-2.052-1.05-2.052-.768 0-1.23.428-1.384 1.24-.153.723-.665 1.442-1.56 2.188-.897.723-1.663 1.082-2.305 1.082H39.874c-1.946 0-3.84.656-5.707 1.963C32.32 97.04 31.4 99 31.4 101.597v27.63c0 1.332-.614 2.187-1.842 2.526-1.128.315-1.692.766-1.692 1.353 0 .384.512.563 1.538.563m6.757-7.172V102.95c0-1.536.36-2.753 1.076-3.655.743-.925 2.483-1.376 5.224-1.376h17.79c1.972 0 3.892-.88 5.788-2.617 1.894-1.738 2.84-3.7 2.84-5.91 0-2.347-1.278-4.49-3.866-6.472L41.717 65.44H61.66c3.277 0 5.835-.724 7.68-2.19 1.84-1.442 2.764-3.156 2.764-5.12 0-1.803-.743-3.338-2.252-4.578-1.486-1.264-3.61-1.894-6.375-1.894H26.92c-3.352 0-5.914.63-7.654 1.917-1.74 1.286-2.61 2.888-2.61 4.828 0 3.223 1.74 6.02 5.22 8.39L45.533 83.71H27.56c-5.016 0-7.525 2.616-7.525 7.872v34.914c0 2.663.818 4.782 2.483 6.34 1.662 1.555 3.608 2.32 5.81 2.32 2.152 0 3.993-.742 5.528-2.254 1.538-1.512 2.305-3.654 2.305-6.406M26.948 78.16l-11.983-9.315c-3.275-2.617-4.914-6-4.914-10.15 0-3.472 1.306-6.45 3.943-8.91 2.61-2.458 6.423-3.675 11.39-3.675h39.94c3.89 0 7.038 1.128 9.39 3.406 2.357 2.255 3.534 4.96 3.534 8.097 0 2.302-.665 4.487-2.02 6.54-1.383 2.052-3.456 3.7-6.3 4.963-2.816 1.24-6.346 1.87-10.572 1.87l12.902 10.31c2.56 2.12 3.816 4.712 3.816 7.826 0 2.278-.616 4.513-1.897 6.698-1.277 2.19-3.018 3.97-5.195 5.325-2.175 1.376-4.532 2.053-7.038 2.053H45.224c-1.076 0-1.69.09-1.868.27-.18.18-.257.81-.257 1.918v21.63c0 4.308-1.51 7.647-4.53 10.015-3.022 2.368-6.607 3.542-10.704 3.542-3.966 0-7.372-1.107-10.187-3.293-2.843-2.19-4.25-5.233-4.25-9.16V90.748c0-3.204 1.048-6.022 3.12-8.503 2.077-2.483 5.532-3.836 10.397-4.085" fill="#d52930"/><path d="M329.794 66.003l-2.764-2.19h27.34c1.84 0 3.455-.45 4.84-1.375 1.38-.925 2.046-2.142 2.046-3.608 0-.225-.1-.427-.332-.63-.258-.225-.486-.318-.717-.318-.564 0-.923.408-1.076 1.22-.253.7-.817 1.33-1.664 1.87-.87.564-1.688.836-2.506.836h-29.312c-1.613 0-2.434.45-2.434 1.353 0 .43.205.837.59 1.218l4.455 3.25c.765.54 1.33.812 1.687.812.486 0 .743-.272.743-.812 0-.7-.306-1.24-.896-1.625zm9.37 14.48l-10.6-7.848c-.41-.362-.817-.54-1.227-.54-.845 0-1.255.314-1.255.944 0 .474.332.925.948 1.352l9.957 7.173c.717.454 1.228.656 1.538.656.74 0 1.1-.294 1.1-.924 0-.272-.155-.564-.46-.812zm-13.516 38.028v-16.914c0-1.873.766-3.272 2.278-4.174 1.51-.925 3.045-1.376 4.632-1.376h19.534c1.33 0 2.738-.495 4.145-1.466 1.434-.992 2.15-2.165 2.15-3.518 0-1.194-.406-1.78-1.253-1.78-.512 0-.923.404-1.23 1.216-.152.812-.664 1.6-1.56 2.39-.922.767-1.767 1.15-2.61 1.15l-20.38.273c-2.02 0-3.89.678-5.578 2.05-1.718 1.38-2.562 3.094-2.562 5.1v17.05c0 1.895.41 2.843 1.203 2.843.82 0 1.23-.948 1.23-2.842zm-4.917 12.452c-1.127 0-1.687.408-1.687 1.218 0 .835.56 1.24 1.688 1.24h37.326c1.1 0 2.278-.45 3.585-1.33 1.304-.88 2.1-1.94 2.406-3.18 0-1.174-.255-1.738-.743-1.738-.434 0-.818.16-1.177.498-.332.315-.51.653-.51.99-.13.767-.59 1.377-1.383 1.852-.795.474-1.51.722-2.177.722l-37.325-.272zm-1.075 4.06h38.733c2.408 0 4.354-.7 5.81-2.12 1.435-1.4 2.178-3.044 2.178-4.917 0-1.87-.743-3.472-2.177-4.782-1.458-1.33-3.508-1.986-6.17-1.986h-23.475c-4.634 0-6.938-1.578-6.938-4.712v-12.723c0-3.698 1.998-5.548 5.993-5.548h17.843c2.457 0 4.63-.812 6.528-2.414 1.894-1.6 2.84-3.518 2.84-5.727 0-2.55-1.43-4.85-4.325-6.903l-23.628-17.75h20.248c3.302 0 5.89-.7 7.73-2.12 1.82-1.4 2.74-3.09 2.74-5.053 0-1.76-.768-3.25-2.303-4.49-1.535-1.24-3.738-1.847-6.606-1.847H318.76c-3.482 0-6.118.63-7.936 1.917-1.793 1.283-2.686 2.885-2.686 4.848 0 2.954 1.74 5.753 5.22 8.39l23.63 17.458h-17.64c-2.404 0-4.25.745-5.555 2.257-1.304 1.486-1.946 3.09-1.946 4.782v34.914c0 2.437.462 4.49 1.36 6.09.895 1.626 3.046 2.435 6.448 2.435zm-1.535-56.863l-11.673-9.044c-3.38-2.593-5.068-5.955-5.068-10.15 0-2.278.586-4.377 1.74-6.34 1.15-1.96 2.89-3.538 5.22-4.735 2.33-1.193 5.198-1.78 8.578-1.78h39.293c4.254 0 7.657 1.24 10.244 3.698 2.585 2.46 3.89 5.39 3.89 8.75 0 3.565-1.537 6.61-4.633 9.16-3.098 2.55-7.628 3.833-13.618 3.833l11.954 9.746c2.767 2.278 4.148 5.3 4.148 9.066 0 3.588-1.306 6.72-3.97 9.407-2.635 2.682-6.347 4.012-11.11 4.012h-18.56v11.887l25.167.27c3.967 0 7.093 1.24 9.446 3.745 2.33 2.503 3.506 5.392 3.506 8.705 0 3.428-1.277 6.363-3.84 8.797-2.534 2.437-6.246 3.654-11.083 3.654h-39.63c-8.806 0-13.208-4.24-13.208-12.72V91.04c0-3.07 1.023-5.864 3.096-8.325 2.047-2.48 5.426-3.99 10.112-4.556zm-45.003 3.677c-1.385-.382-2.715-1.33-4.02-2.82-1.308-1.488-2.664-3.066-4.072-4.737-1.408-1.668-2.816-2.773-4.17-3.27-1.846-.54-3.508-.79-4.968-.79-4.172 0-6.247 1.58-6.247 4.716v37.056c0 3.18 1.893 4.76 5.657 4.76 1.87-.317 3.97-1.06 6.3-2.233 2.327-1.195 4.428-3.204 6.348-6.023 1.92-2.82 2.917-6.52 3.02-11.098v-5.55c0-5.21.718-8.548 2.152-10.013zm6.935-17.728c-.537-.452-1.05-.677-1.535-.677-.642 0-.948.38-.948 1.104 0 .587.305 1.08.947 1.49 2.61 1.624 4.097 4.78 4.403 9.473.153.902.613 1.353 1.408 1.353.922 0 1.382-.54 1.382-1.648-.434-3.067-.97-5.21-1.662-6.45-.665-1.263-1.998-2.798-3.996-4.646zm10.113 22.465c-.28-.995-.743-1.49-1.382-1.49-.59 0-.948.585-1.1 1.782.536 2.437.794 4.828.794 7.172 0 6.383-1.46 12.474-4.406 18.27-2.942 5.796-7.013 9.99-12.208 12.56-7.86 3.973-16.027 5.957-24.553 5.957-4.736 0-8.934-.63-12.62-1.917-.59-.272-1.153-.405-1.665-.405-.743 0-1.1.292-1.1.833 0 .88.716 1.6 2.176 2.142 3.996 1.286 8.396 1.94 13.21 1.94 5.556 0 11.06-.813 16.513-2.41 5.426-1.603 10.01-3.927 13.746-6.95 2.714-2.276 5.096-5.008 7.143-8.188 2.072-3.18 3.633-6.586 4.71-10.217 1.1-3.654 1.638-7.308 1.638-10.962 0-2.706-.305-5.412-.895-8.118zm-47.923 32.185c-.82-1.06-1.23-2.278-1.23-3.63V74.146c0-2.752 1.308-5.392 3.892-7.895 2.61-2.504 6.68-3.767 12.238-3.767 2.252 0 3.38-.45 3.38-1.353 0-.677-1.128-1.06-3.38-1.197-6.58 0-11.443 1.333-14.542 3.97-3.122 2.64-4.683 5.775-4.683 9.406v41.255c0 1.983.51 3.744 1.56 5.3.36.9.87 1.352 1.536 1.352.818 0 1.23-.812 1.23-2.457zm-15.36-59.14v66.312c0 2.978 1.613 5.233 4.837 6.768 3.225 1.555 6.63 2.32 10.24 2.32 9.573 0 18.023-1.305 25.395-3.922 7.372-2.616 13.287-6.72 17.716-12.315 4.456-5.57 7.066-12.607 7.86-21.113.103-.63.152-1.714.152-3.246 0-3.903-.662-7.285-1.97-10.15-1.306-2.888-3.532-4.31-6.63-4.31-1.972.205-3.56.97-4.762 2.257-1.23 1.285-1.845 4.332-1.845 9.09 0 5.166-.792 10.104-2.353 14.82-1.587 4.69-4.223 8.57-7.935 11.615-3.712 3.044-8.578 4.556-14.568 4.556-6.887 0-10.32-3.338-10.32-10.013V75.5c0-7.604 4.303-11.39 12.906-11.39 7.91.314 14.08 3.856 18.43 10.554.512 1.015 1.307 2.007 2.434 3 1.1.97 2.148 1.467 3.097 1.467.306 0 .69-.09 1.075-.27 1.535-.63 3.302-.946 5.35-.946.947-.16 1.41-1.243 1.41-3.25 0-1.49-.36-3.157-1.05-4.984-.717-1.827-1.897-3.767-3.585-5.796-1.688-2.03-3.943-3.993-6.733-5.866-7.17-4.622-17-6.924-29.49-6.924-1.87 0-4.328.09-7.373.272-2.944.18-5.734.922-8.345 2.232-2.636 1.33-3.943 3.34-3.943 6.022zm-6.606-.79c0-3.813 1.36-6.72 4.097-8.727 2.74-2.033 5.99-3.25 9.728-3.724 3.97-.565 7.962-.833 11.958-.833 7.14 0 14 .902 20.606 2.73 6.606 1.826 12.34 4.598 17.204 8.365 6.63 5.03 9.957 9.97 9.957 14.796 0 1.85-.512 3.747-1.535 5.684 4.94 2.572 7.398 7.94 7.398 16.082 0 1.804-.154 3.654-.46 5.55-2.894 26.548-21.12 40.485-54.682 41.818-16.178 0-24.27-4.602-24.27-13.804V58.83zm-15.513 2.978v63.335c0 1.038-.485 1.917-1.434 2.663-.946.743-2.305 1.104-4.123 1.104H147.93c-1.74 0-2.584.405-2.584 1.217 0 .746.844 1.107 2.584 1.107h50.537c2.278 0 4.325-.52 6.143-1.578 1.82-1.06 2.738-2.663 2.738-4.762V61.536c0-.812-.153-1.51-.46-2.096-.28-.563-.64-.858-1.075-.858-.69 0-1.05 1.084-1.05 3.226zm-53.76-3.54l40.242 53.724c1.232 1.85 1.845 3.07 1.845 3.677 0 .632-.307 1.352-.922 2.165-.18.36-.28.54-.28.54 0 .25.126.52.384.813.254.27.586.407.997.407.33 0 .742-.27 1.202-.835.922-1.217 1.382-2.3 1.382-3.226 0-.743-.255-1.533-.74-2.322L153.46 57.478c-.537-.813-1.15-1.218-1.815-1.218-.616 0-.948.316-.948.97 0 .427.1.788.306 1.037zm-1.844 21.11v38.457c0 .79.514 1.197 1.537 1.197.844 0 1.255-.408 1.255-1.197V79.943c0-.474-.18-.86-.538-1.174-.385-.293-.77-.43-1.154-.43-.743 0-1.1.34-1.1 1.04zm11.366 20.21v11.887c0 .36.205.835.616 1.42.41.586 1.23.88 2.457.88h7.55l-10.624-14.188zm-22.118 26.367c0 2.278.77 3.97 2.304 5.03 1.535 1.062 3.38 1.602 5.53 1.602h51.61c3.71 0 6.553-.812 8.473-2.414 1.945-1.6 2.92-3.475 2.92-5.594V58.266c0-2.39-.845-4.264-2.51-5.57-1.688-1.33-3.66-1.987-5.964-1.987-2.254 0-4.174.61-5.76 1.85-1.588 1.24-2.38 2.955-2.38 5.19v33.29c0 8.12 1.842 14.48 5.554 19.082 1.306 1.804 1.97 3.608 1.97 5.412 0 2.324-1.048 4.33-3.12 6-2.1 1.692-4.534 2.525-7.35 2.525-3.813 0-7.14-1.487-9.956-4.465h-21.786c-2.79 0-4.175-1.94-4.175-5.82v-32.21l28.418 36.27c2.15 2.798 4.814 4.194 8.01 4.194 2 0 3.713-.587 5.173-1.735 1.434-1.174 2.177-2.663 2.177-4.49 0-1.465-.616-3-1.845-4.602l-40.525-54.29c-2.995-4.127-6.27-6.203-9.83-6.203-2.023 0-3.685.676-4.992 2.052-1.304 1.353-1.945 3.114-1.945 5.256v67.937zm-6.603-67.937c0-3.246 1.33-6.18 4.018-8.728 2.69-2.573 5.964-3.856 9.806-3.856 6.09 0 11.67 3.43 16.74 10.306l23.654 32.165V58.29c0-4.082 1.512-7.285 4.504-9.633 2.998-2.32 6.505-3.495 10.55-3.495 3.97 0 7.423 1.174 10.366 3.542 2.946 2.344 4.403 5.637 4.403 9.878v66.02c0 5.233-1.714 8.84-5.146 10.827-3.453 1.982-7.266 2.977-11.467 2.977h-54.22c-3.97 0-7.143-.995-9.574-3-2.433-1.987-3.635-4.965-3.635-8.888V58.017zm-18.56 2.706v65.772c0 .925-.232 1.827-.668 2.663-.46.854-1.203 1.282-2.252 1.282-.844 0-1.255.25-1.255.792 0 1.08.743 1.622 2.203 1.622 1.203 0 2.278-.54 3.276-1.602 1-1.08 1.484-2.75 1.484-5.007V60.455c0-1.442-.41-2.188-1.254-2.188-1.024 0-1.535.835-1.535 2.457zm-11.367-1.08v65.77c0 3.045.77 5.413 2.278 7.084 1.535 1.688 3.38 2.523 5.556 2.523 2.1 0 3.992-.808 5.658-2.413 1.662-1.62 2.48-3.743 2.48-6.36V59.643c0-2.73-.766-4.805-2.278-6.247-1.535-1.446-3.38-2.166-5.554-2.166-2.176 0-4.07.743-5.71 2.232-1.612 1.49-2.43 3.54-2.43 6.18zm-6.3-.542c0-4.197 1.486-7.467 4.48-9.858 2.996-2.368 6.454-3.564 10.42-3.564 3.816 0 7.092 1.15 9.855 3.428 2.74 2.3 4.123 5.528 4.123 9.722v67.397c0 3.067-.665 5.704-1.998 7.892-1.304 2.21-3.07 3.856-5.247 4.94-2.173 1.104-4.48 1.645-6.885 1.645-3.967 0-7.398-1.284-10.344-3.88-2.942-2.593-4.402-6.11-4.402-10.598V59.102zm-57.24 6.63l-2.918-2.435h27.777c1.714 0 3.2-.45 4.426-1.376 1.23-.924 1.87-1.962 1.87-3.066 0-.836-.384-1.24-1.1-1.24-.487 0-.898.427-1.204 1.24-.154.653-.614 1.217-1.383 1.69-.77.475-1.538.724-2.33.724H34.78c-1.92 0-2.892.676-2.892 2.03 0 .45.153.81.46 1.08l4.454 3.25c.434.248.743.38.897.38.817 0 1.227-.403 1.227-1.216 0-.45-.18-.812-.59-1.06zm9.343 13.94L37.11 72.34c-.435-.36-.845-.518-1.256-.518-.717 0-1.075.316-1.075.95 0 .47.308.924.92 1.352l10.14 7.44c.433.34.844.52 1.228.52.307 0 .587-.135.844-.383.258-.268.41-.586.41-.968 0-.474-.23-.835-.64-1.06zm-18.276 53.996c2.79-.79 4.172-2.142 4.172-4.058v-28.15c0-2.142.818-3.61 2.483-4.443 1.64-.835 3.327-1.24 5.018-1.24l19.173.27c1.076 0 2.28-.496 3.638-1.444 1.33-.948 2.226-2.053 2.662-3.293 0-1.353-.332-2.052-1.05-2.052-.768 0-1.23.428-1.384 1.24-.153.723-.665 1.442-1.56 2.188-.897.723-1.663 1.082-2.305 1.082H39.874c-1.946 0-3.84.656-5.707 1.963C32.32 97.04 31.4 99 31.4 101.597v27.63c0 1.332-.614 2.187-1.842 2.526-1.128.315-1.692.766-1.692 1.353 0 .384.512.563 1.538.563zm6.757-7.172V102.95c0-1.536.36-2.753 1.076-3.655.743-.925 2.483-1.376 5.224-1.376h17.79c1.972 0 3.892-.88 5.788-2.617 1.894-1.738 2.84-3.7 2.84-5.91 0-2.347-1.278-4.49-3.866-6.472L41.717 65.44H61.66c3.277 0 5.835-.724 7.68-2.19 1.84-1.442 2.764-3.156 2.764-5.12 0-1.803-.743-3.338-2.252-4.578-1.486-1.264-3.61-1.894-6.375-1.894H26.92c-3.352 0-5.914.63-7.654 1.917-1.74 1.286-2.61 2.888-2.61 4.828 0 3.223 1.74 6.02 5.22 8.39L45.533 83.71H27.56c-5.016 0-7.525 2.616-7.525 7.872v34.914c0 2.663.818 4.782 2.483 6.34 1.662 1.555 3.608 2.32 5.81 2.32 2.152 0 3.993-.742 5.528-2.254 1.538-1.512 2.305-3.654 2.305-6.406zM26.948 78.16l-11.983-9.315c-3.275-2.617-4.914-6-4.914-10.15 0-3.472 1.306-6.45 3.943-8.91 2.61-2.458 6.423-3.675 11.39-3.675h39.94c3.89 0 7.038 1.128 9.39 3.406 2.357 2.255 3.534 4.96 3.534 8.097 0 2.302-.665 4.487-2.02 6.54-1.383 2.052-3.456 3.7-6.3 4.963-2.816 1.24-6.346 1.87-10.572 1.87l12.902 10.31c2.56 2.12 3.816 4.712 3.816 7.826 0 2.278-.616 4.513-1.897 6.698-1.277 2.19-3.018 3.97-5.195 5.325-2.175 1.376-4.532 2.053-7.038 2.053H45.224c-1.076 0-1.69.09-1.868.27-.18.18-.257.81-.257 1.918v21.63c0 4.308-1.51 7.647-4.53 10.015-3.022 2.368-6.607 3.542-10.704 3.542-3.966 0-7.372-1.107-10.187-3.293-2.843-2.19-4.25-5.233-4.25-9.16V90.748c0-3.204 1.048-6.022 3.12-8.503 2.077-2.483 5.532-3.836 10.397-4.085z" fill="none" stroke="#ed1c24" stroke-width=".127" stroke-miterlimit="22.926"/></svg>