<svg xmlns="http://www.w3.org/2000/svg" xmlns:xlink="http://www.w3.org/1999/xlink" width="400" height="67.198"><defs><linearGradient id="a" gradientTransform="scale(22.92375) rotate(87.44 -12.717 15.25)" gradientUnits="userSpaceOnUse" x2="1"><stop offset="0" stop-color="#fff"/><stop offset="1" stop-color="#231c1d"/></linearGradient><radialGradient id="b" spreadMethod="pad" gradientTransform="matrix(2.85956 -1.41162 -1.3937 -2.82324 85.44 620.227)" gradientUnits="userSpaceOnUse" r="1" cy="0" cx="0" fy="0" fx="0"><stop offset="0" stop-color="#f5f5f5"/><stop offset=".15" stop-color="#7d6f75"/><stop offset=".3" stop-color="#7c797a"/><stop offset=".47" stop-color="#bfbebf"/><stop offset=".64" stop-color="#e1ccd8"/><stop offset=".801" stop-color="#797777"/><stop offset="1" stop-color="#c2c1c1"/></radialGradient><radialGradient id="c" spreadMethod="pad" gradientTransform="matrix(6.36874 -3.25086 -3.20957 -6.28786 67.075 622.02)" gradientUnits="userSpaceOnUse" r="1" cy="0" cx="0" fy="0" fx="0"><stop offset="0" stop-color="#f5f5f5"/><stop offset=".15" stop-color="#7d6f75"/><stop offset=".3" stop-color="#7c797a"/><stop offset=".47" stop-color="#bfbebf"/><stop offset=".64" stop-color="#e1ccd8"/><stop offset=".801" stop-color="#797777"/><stop offset="1" stop-color="#c2c1c1"/></radialGradient><clipPath id="u"><path d="M63.848 634.18l-1.655-10.577s.43 4.67-5.186 3.976c0 0 5.86 3.4 6.84 6.6"/></clipPath><mask id="v" height="1" width="1" y="0" x="0" maskUnits="userSpaceOnUse"><path d="M-32768 32767h65535v-65535h-65535v65535z" fill="url(#d)"/></mask><linearGradient id="d" gradientTransform="scale(4.92745) rotate(-104.036 56.257 59.262)" gradientUnits="userSpaceOnUse" x2="1"><stop offset="0" stop-color="#fff"/><stop offset="1" stop-opacity="0" stop-color="#fff"/></linearGradient><linearGradient id="e" gradientTransform="scale(4.92745) rotate(-104.036 56.257 59.262)" gradientUnits="userSpaceOnUse" x2="1"><stop offset="0" stop-color="#231f20"/><stop offset="1" stop-color="#231f20"/></linearGradient><linearGradient id="f" gradientTransform="matrix(0 -.2242 -.2242 0 50.932 620.746)" gradientUnits="userSpaceOnUse" x2="1"><stop offset="0" stop-color="#fff"/><stop offset="1" stop-color="#231c1d"/></linearGradient><linearGradient id="g" gradientTransform="matrix(.016 -.20802 -.20802 -.016 46.332 620.79)" gradientUnits="userSpaceOnUse" x2="1"><stop offset="0" stop-color="#fff"/><stop offset="1" stop-color="#231c1d"/></linearGradient><linearGradient id="h" gradientTransform="matrix(0 -.41614 -.41614 0 58.46 620.89)" gradientUnits="userSpaceOnUse" x2="1"><stop offset="0" stop-color="#fff"/><stop offset="1" stop-color="#231c1d"/></linearGradient><linearGradient id="i" gradientTransform="scale(21.45527) rotate(82.45 -15.01 16.4)" gradientUnits="userSpaceOnUse" x2="1"><stop offset="0" stop-color="#fff"/><stop offset="1" stop-color="#231c1d"/></linearGradient><clipPath id="B"><path d="M87.216 619.923c0-.206-.17-.373-.383-.373-.21 0-.385.167-.385.373s.174.373.385.373c.213 0 .383-.167.383-.373"/></clipPath><mask id="C" height="1" width="1" y="0" x="0" maskUnits="userSpaceOnUse"><path d="M-32768 32767h65535v-65535h-65535v65535z" fill="url(#j)"/></mask><linearGradient id="j" gradientTransform="matrix(.7683 0 0 -.7683 86.448 619.923)" gradientUnits="userSpaceOnUse" x2="1"><stop offset="0" stop-color="#fff"/><stop offset=".515" stop-opacity=".678" stop-color="#fff"/><stop offset="1" stop-opacity="0" stop-color="#fff"/></linearGradient><linearGradient id="k" gradientTransform="matrix(.7683 0 0 -.7683 86.448 619.923)" gradientUnits="userSpaceOnUse" x2="1"><stop offset="0" stop-color="#231f20"/><stop offset="1" stop-color="#231f20"/></linearGradient><clipPath id="E"><path d="M87.216 619.923c0-.175-.147-.32-.33-.32-.18 0-.33.145-.33.32 0 .176.15.322.33.322.183 0 .33-.146.33-.322"/></clipPath><mask id="F" height="1" width="1" y="0" x="0" maskUnits="userSpaceOnUse"><path d="M-32768 32767h65535v-65535h-65535v65535z" fill="url(#l)"/></mask><linearGradient id="l" gradientTransform="matrix(.65942 0 0 -.65942 86.557 619.924)" gradientUnits="userSpaceOnUse" x2="1"><stop offset="0" stop-color="#fff"/><stop offset=".515" stop-opacity=".678" stop-color="#fff"/><stop offset="1" stop-opacity="0" stop-color="#fff"/></linearGradient><linearGradient id="m" gradientTransform="matrix(.65942 0 0 -.65942 86.557 619.924)" gradientUnits="userSpaceOnUse" x2="1"><stop offset="0" stop-color="#231f20"/><stop offset="1" stop-color="#231f20"/></linearGradient><clipPath id="H"><path d="M70.972 620.61c0-.403-.32-.732-.712-.732-.392 0-.71.33-.71.733 0 .405.318.733.71.733.393 0 .712-.328.712-.732"/></clipPath><mask id="I" height="1" width="1" y="0" x="0" maskUnits="userSpaceOnUse"><path d="M-32768 32767h65535v-65535h-65535v65535z" fill="url(#n)"/></mask><linearGradient id="n" gradientTransform="matrix(1.4226 0 0 -1.4226 69.55 620.61)" gradientUnits="userSpaceOnUse" x2="1"><stop offset="0" stop-color="#fff"/><stop offset=".515" stop-opacity=".678" stop-color="#fff"/><stop offset="1" stop-opacity="0" stop-color="#fff"/></linearGradient><linearGradient id="o" gradientTransform="matrix(1.4226 0 0 -1.4226 69.55 620.61)" gradientUnits="userSpaceOnUse" x2="1"><stop offset="0" stop-color="#231f20"/><stop offset="1" stop-color="#231f20"/></linearGradient><clipPath id="K"><path d="M70.972 620.61c0-.345-.273-.628-.61-.628-.34 0-.614.283-.614.63 0 .346.274.626.613.626.34 0 .612-.28.612-.627"/></clipPath><mask id="L" height="1" width="1" y="0" x="0" maskUnits="userSpaceOnUse"><path d="M-32768 32767h65535v-65535h-65535v65535z" fill="url(#p)"/></mask><linearGradient id="p" gradientTransform="matrix(1.22388 0 0 -1.22388 69.748 620.61)" gradientUnits="userSpaceOnUse" x2="1"><stop offset="0" stop-color="#fff"/><stop offset=".515" stop-opacity=".678" stop-color="#fff"/><stop offset="1" stop-opacity="0" stop-color="#fff"/></linearGradient><linearGradient id="q" gradientTransform="matrix(1.22388 0 0 -1.22388 69.748 620.61)" gradientUnits="userSpaceOnUse" x2="1"><stop offset="0" stop-color="#231f20"/><stop offset="1" stop-color="#231f20"/></linearGradient><linearGradient xlink:href="#q" id="M" gradientUnits="userSpaceOnUse" gradientTransform="matrix(1.22388 0 0 -1.22388 69.748 620.61)" x2="1"/><linearGradient xlink:href="#o" id="J" gradientUnits="userSpaceOnUse" gradientTransform="matrix(1.4226 0 0 -1.4226 69.55 620.61)" x2="1"/><linearGradient xlink:href="#m" id="G" gradientUnits="userSpaceOnUse" gradientTransform="matrix(.65942 0 0 -.65942 86.557 619.924)" x2="1"/><linearGradient xlink:href="#k" id="D" gradientUnits="userSpaceOnUse" gradientTransform="matrix(.7683 0 0 -.7683 86.448 619.923)" x2="1"/><linearGradient xlink:href="#i" id="A" gradientUnits="userSpaceOnUse" gradientTransform="scale(21.45527) rotate(82.45 -15.01 16.4)" x2="1"/><linearGradient xlink:href="#h" id="z" gradientUnits="userSpaceOnUse" gradientTransform="matrix(0 -.41614 -.41614 0 58.46 620.89)" x2="1"/><linearGradient xlink:href="#g" id="y" gradientUnits="userSpaceOnUse" gradientTransform="matrix(.016 -.20802 -.20802 -.016 46.332 620.79)" x2="1"/><linearGradient xlink:href="#f" id="x" gradientUnits="userSpaceOnUse" gradientTransform="matrix(0 -.2242 -.2242 0 50.932 620.746)" x2="1"/><linearGradient xlink:href="#e" id="w" gradientUnits="userSpaceOnUse" gradientTransform="scale(4.92745) rotate(-104.036 56.257 59.262)" x2="1"/><radialGradient xlink:href="#c" id="t" gradientUnits="userSpaceOnUse" gradientTransform="matrix(6.36874 -3.25086 -3.20957 -6.28786 67.075 622.02)" spreadMethod="pad" cx="0" cy="0" fx="0" fy="0" r="1"/><radialGradient xlink:href="#b" id="s" gradientUnits="userSpaceOnUse" gradientTransform="matrix(2.85956 -1.41162 -1.3937 -2.82324 85.44 620.227)" spreadMethod="pad" cx="0" cy="0" fx="0" fy="0" r="1"/><linearGradient xlink:href="#a" id="r" gradientUnits="userSpaceOnUse" gradientTransform="scale(22.92375) rotate(87.44 -12.717 15.25)" x2="1"/></defs><path d="M20.3 41.747v2.968c-2.37-.492-4.17-1.474-5.472-2.968H20.3zm12.432-13.53c0 .134 0 .272-.003.412-.007.413-.01.83-.01 1.246l-14.608 5.142-3.697 6.206c-1.336-1.814-2.017-4.222-2.017-7.165 0-.302.017-.77.054-1.405.025-.526.14-1.06.343-1.587.177-.46.455-.866.84-1.223.288-.268.766-.397 1.42-.397.772 0 1.45.15 2.005.433.624.325 1.145.69 1.547 1.084l.025.028c.51.473.93.988 1.258 1.548l.568.967 12.274-5.29zm25.805 2.314c.39.147.763.302 1.117.468.85.402 1.63.917 2.332 1.54.524.452.766.986.766 1.67 0 .253-.03.588-.19.78-.17.205-.387.354-.663.452-.383.132-.8.214-1.24.242-.184.01-.373.02-.556.023-.137-.566-.284-1.1-.422-1.595-.216-.763-.436-1.483-.652-2.14-.155-.485-.32-.963-.493-1.44m46.793 23.06c-.504-2.044-1.09-4.126-1.747-6.177-.664-2.056-1.373-4.093-2.12-6.054-.74-1.945-1.51-3.875-2.29-5.745-.784-1.86-1.554-3.613-2.3-5.22-1.73-3.77-3.56-7.45-5.438-10.948l-.543-1.016-9.537 3.96v.832c0 1.083-.154 2.61-.458 4.544-.312 1.955-.793 4.256-1.438 6.827-.645 2.577-1.47 5.42-2.44 8.45-.205.637-.425 1.287-.652 1.954l-4.88-4.82c.64-.587 1.19-1.24 1.642-1.952.742-1.176 1.125-2.698 1.125-4.532 0-1.716-.4-3.272-1.176-4.628-.747-1.294-1.74-2.453-2.952-3.434-1.16-.942-2.507-1.794-3.998-2.534-1.437-.71-2.928-1.373-4.44-1.978-1.473-.588-2.964-1.162-4.424-1.708-1.398-.52-2.673-1.074-3.787-1.642l-.625-.318-7.39 4.267.002-.233.054-1.587-12.616 2.557-.043.977c-.046 1.174-.083 2.386-.108 3.62l-.315-.404c-1.767-2.265-3.818-4.012-6.09-5.185-2.266-1.177-4.623-1.858-7.017-2.024-.445-.034-.9-.05-1.34-.05-1.923 0-3.845.297-5.713.89-2.295.724-4.386 1.85-6.203 3.346-1.823 1.5-3.303 3.373-4.403 5.56C.564 31.383 0 33.886 0 36.618c0 2.672.44 5.015 1.303 6.962.85 1.93 1.966 3.592 3.302 4.93 1.334 1.332 2.845 2.42 4.502 3.228 1.606.782 3.218 1.393 4.793 1.81 1.556.418 3.033.708 4.406.85.754.08 1.415.136 1.994.176v6.515l13.034-4.874V44.122c.236 3.165.53 6.262.858 9.224l.13 1.143 12.665-.325-.203-1.398c-.242-1.67-.447-3.427-.6-5.216-.16-1.794-.292-3.603-.396-5.38-.11-1.776-.186-3.54-.242-5.25-.05-1.803-.093-3.404-.13-4.875-.01-.673-.022-1.337-.027-2.01.04.16.09.31.125.468.63 2.332 1.185 4.805 1.654 7.362.47 2.566.89 5.233 1.26 7.925.37 2.72.734 5.37 1.09 7.953l.19 1.4 12.924-3.333-.048-1.015c-.03-.788-.107-1.65-.217-2.535-.037-.4-.082-.816-.136-1.252l7.588 7.69 12.732-.6h2.217l.34-.738c.193-.422.423-.998.705-1.772.188-.526.385-1.114.593-1.75l4.68-.633c.232.816.454 1.57.65 2.273.28.974.533 1.835.75 2.552.244.824.455 1.56.63 2.18l.318 1.128 12.198-2.487-.304-1.26z" fill="#504c4d"/><path d="M21.287 41.19v2.972c-2.372-.498-4.17-1.48-5.472-2.973h5.472zM33.72 27.656c0 .14-.002.276-.005.41-.003.417-.006.836-.006 1.253L19.1 34.46l-3.7 6.208c-1.332-1.814-2.016-4.225-2.016-7.17 0-.3.02-.77.053-1.402.028-.526.144-1.063.344-1.584.18-.464.46-.866.844-1.226.287-.26.76-.394 1.413-.394.78 0 1.454.146 2.01.428.626.326 1.146.692 1.546 1.088l.025.023c.51.476.934.994 1.257 1.55l.572.966 12.274-5.29zm25.804 2.318c.388.146.768.3 1.12.467.844.402 1.63.914 2.33 1.533.522.46.767.993.767 1.68 0 .253-.027.588-.187.776-.172.207-.388.353-.664.45-.384.14-.803.215-1.242.243-.185.012-.374.026-.557.026-.14-.567-.277-1.1-.42-1.594-.212-.768-.437-1.488-.653-2.146-.155-.48-.32-.962-.493-1.435m46.79 23.06c-.5-2.048-1.086-4.124-1.747-6.178-.656-2.062-1.368-4.096-2.113-6.05-.737-1.948-1.508-3.878-2.3-5.75-.778-1.86-1.55-3.616-2.29-5.22-1.734-3.767-3.563-7.452-5.442-10.95l-.543-1.014-9.538 3.96v.83c0 1.084-.15 2.61-.46 4.544-.308 1.955-.792 4.256-1.433 6.827-.648 2.58-1.472 5.422-2.446 8.45-.202.637-.42 1.29-.647 1.954l-4.88-4.82c.64-.584 1.19-1.237 1.64-1.95.742-1.175 1.12-2.702 1.12-4.534 0-1.713-.395-3.266-1.17-4.625-.747-1.298-1.74-2.454-2.95-3.438-1.16-.943-2.506-1.792-4-2.532-1.437-.71-2.928-1.38-4.44-1.98-1.473-.586-2.964-1.165-4.427-1.71-1.396-.522-2.67-1.073-3.784-1.64l-.622-.316-7.39 4.267c.003-.078.006-.156.006-.235l.048-1.587-12.615 2.557-.042.98c-.05 1.175-.086 2.385-.11 3.617l-.316-.405c-1.767-2.262-3.818-4.006-6.09-5.182-2.266-1.18-4.626-1.857-7.017-2.028-.445-.03-.898-.045-1.34-.045-1.924 0-3.842.295-5.71.886-2.3.726-4.39 1.85-6.203 3.348-1.826 1.496-3.31 3.37-4.41 5.56C1.55 30.825.988 33.33.988 36.062c0 2.672.442 5.016 1.3 6.965.855 1.927 1.97 3.587 3.305 4.93 1.337 1.335 2.85 2.413 4.504 3.226 1.607.785 3.22 1.39 4.788 1.812 1.556.42 3.04.7 4.41.846.755.08 1.417.14 1.993.172v6.52l13.034-4.87v-12.1c.243 3.164.53 6.267.862 9.226l.126 1.142 12.668-.33-.205-1.39c-.238-1.672-.444-3.428-.598-5.217-.16-1.792-.293-3.604-.397-5.38-.104-1.774-.183-3.544-.24-5.248-.052-1.81-.095-3.407-.13-4.88-.013-.674-.02-1.338-.03-2.004l.133.464c.624 2.33 1.18 4.805 1.648 7.36.467 2.57.895 5.235 1.26 7.92.372 2.722.732 5.375 1.087 7.957l.194 1.407 12.926-3.34-.047-1.01c-.034-.795-.11-1.65-.214-2.542-.042-.39-.087-.81-.14-1.25l7.586 7.69 12.73-.6h2.223l.34-.74c.19-.416.42-.992.7-1.772.19-.526.393-1.108.595-1.74l4.684-.637.65 2.27c.275.976.528 1.836.744 2.548.242.827.456 1.564.63 2.186l.32 1.128 12.2-2.487-.31-1.26z" fill="#f68712"/><path d="M17.313 39.933h5.243v5.702c-3.463-.416-6.068-1.67-7.815-3.764-1.746-2.092-2.62-4.883-2.62-8.374 0-.312.016-.802.05-1.463.037-.664.177-1.313.425-1.963.247-.642.638-1.213 1.164-1.697.528-.492 1.29-.737 2.278-.737s1.854.194 2.6.58c.742.38 1.358.816 1.853 1.305.603.56 1.096 1.17 1.484 1.833L32.42 26.85c-1.663-2.128-3.556-3.74-5.675-4.84-2.118-1.1-4.29-1.727-6.518-1.885-2.225-.155-4.417.107-6.572.785-2.16.68-4.084 1.722-5.778 3.117S4.822 27.14 3.792 29.18c-1.02 2.04-1.536 4.336-1.536 6.885 0 2.506.4 4.664 1.196 6.456.793 1.802 1.812 3.32 3.044 4.556 1.24 1.24 2.627 2.233 4.166 2.987 1.533.75 3.052 1.323 4.557 1.722 1.5.4 2.906.672 4.21.81 1.31.144 2.35.214 3.126.214v5.912l10.496-3.927V30.88l-13.09 4.602-2.65 4.45zM45.506 41.69c-.107-1.796-.185-3.56-.236-5.29-.053-1.728-.1-3.357-.132-4.89-.073-3.63-.05-7.17.05-10.623l-10.07 2.037c-.07 1.68-.116 3.4-.133 5.16-.02 1.76 0 3.496.056 5.207.052 1.71.125 3.37.212 4.994.087 1.624.186 3.148.293 4.583.242 3.38.545 6.642.9 9.782l10.07-.26c-.246-1.713-.452-3.474-.612-5.286-.158-1.815-.29-3.62-.397-5.413M88.224 42.08c.18-.627.337-1.227.478-1.778.144-.56.265-1.046.37-1.466.142-.492.27-.942.373-1.364.278.664.565 1.333.847 2.02.284.675.565 1.387.852 2.115l-2.92.473zm-23.687-6.86c-.32.39-.726.665-1.22.843-.494.17-1.025.28-1.596.312-.562.036-1.105.036-1.64 0-.21-.906-.42-1.736-.635-2.487-.208-.748-.422-1.443-.636-2.09-.212-.647-.434-1.275-.662-1.888-.23-.608-.47-1.23-.715-1.85 1.376.31 2.63.73 3.764 1.256.954.45 1.83 1.024 2.625 1.722.793.698 1.187 1.57 1.187 2.616 0 .664-.155 1.188-.473 1.567m38.822 12.017c-.656-2.046-1.354-4.04-2.097-5.993-.74-1.958-1.5-3.854-2.28-5.705-.775-1.846-1.535-3.576-2.274-5.183-1.734-3.764-3.538-7.396-5.408-10.88l-7.686 3.186c0 1.156-.158 2.73-.478 4.74-.318 2.003-.805 4.313-1.458 6.932-.652 2.614-1.477 5.46-2.464 8.533-.414 1.277-.855 2.568-1.32 3.873l-7.32-7.226c1.022-.695 1.846-1.536 2.468-2.512.616-.976.925-2.267.925-3.868 0-1.502-.338-2.84-1.008-4.006-.672-1.17-1.553-2.197-2.65-3.086-1.097-.892-2.352-1.688-3.764-2.383-1.412-.7-2.86-1.34-4.344-1.934-1.488-.593-2.953-1.162-4.4-1.702-1.45-.543-2.756-1.108-3.92-1.702l-8.43 4.867c.884 1.918 1.64 4.064 2.28 6.433.635 2.377 1.192 4.858 1.673 7.458.476 2.603.895 5.26 1.266 7.982.37 2.723.737 5.373 1.09 7.956l10.543-2.72c-.03-.77-.102-1.593-.21-2.462-.072-.732-.164-1.545-.29-2.436-.122-.89-.26-1.753-.395-2.59l9.906 10.05 12.193-.58h1.428c.177-.382.4-.94.664-1.673.264-.732.537-1.55.82-2.46l6.573-.885c.357 1.22.675 2.326.954 3.322.283.99.53 1.835.74 2.535.25.84.46 1.57.637 2.2l9.75-1.987c-.49-2.023-1.065-4.062-1.718-6.096" fill="#231f20"/><path d="M127.51 49.267c-3.94 0-7.145-3.106-7.145-6.926 0-3.82 3.204-6.925 7.145-6.925 3.94 0 7.143 3.105 7.143 6.926 0 3.82-3.204 6.927-7.143 6.927m89.843-13.51c-2.695-.66-32.678-7.952-38.805-8.892-.043-.01-.704-.154-1.815-.368.025 1.865.017 3.724-.003 5.497l.746-.11s.472.16.11 1.12l-.876-.042c-.112 6.068-.44 10.91-.45 11.02l-.008.125-14.99-.003c-3.943 0-5.512 2.918-5.53 2.943-1.023 1.545-1.766 8.305-1.772 8.372-.216 1.088-1.288 1.198-1.3 1.198-4.5 1.02-11.925 1.212-12 1.218l-.138.003v-.904c.58-13.25 1.915-24.076 3.395-32.524l-.093.017c-17.855 5.28-26.69 14.242-30.962 20.834-4.507 6.968-5.005 12.794-5.027 13.11 3.663.134 7.337.244 7.958.267v-6.43c0-.813.563-1.472 1.25-1.472.15 0 .295.034.43.096.64.014 1.18.366 1.407.86l3.406 7.253c16.88.914 30.16-1.314 30.3-1.34 1.02-.176 1.83.004 2.415.54.24.223.423.494.56.783.668-4.77 3.473-8.55 3.5-8.588 4.977-4.597 8.305-3.995 12.702-1.283l.124.07c4.158 2.753 2.19 12.028 1.758 13.837h.096l29.44-2.897 1.12-.214 2.923-5.835h5.832c.88 0 1.527.285 1.918.842.813 1.148.327 3.117.093 3.877.84-.06 1.508-.32 1.995-.772 1.022-.956.873-2.478.873-2.49l-.003-.025.003-.022c.42-6.008-.453-18.01-.58-19.672" fill="#ed4c1e"/><path d="M57.88 622.016c-1.402 0-2.542 1.104-2.542 2.463 0 1.356 1.14 2.46 2.54 2.46 1.4 0 2.54-1.104 2.54-2.46 0-1.36-1.14-2.464-2.54-2.464m31.936 4.802c-.957.235-11.615 2.828-13.794 3.16-.014.005-.25.056-.645.132.01-.663.007-1.324 0-1.954l.265.04s.168-.058.04-.4l-.312.016c-.04-2.157-.156-3.877-.16-3.916l-.004-.046h-5.327c-1.402 0-1.96-1.036-1.966-1.045-.363-.55-.627-2.95-.63-2.975-.077-.388-.457-.427-.46-.427-1.602-.362-4.24-.43-4.268-.433h-.048v.32c.206 4.71.68 8.558 1.206 11.56l-.032-.005c-6.348-1.877-9.49-5.063-11.006-7.406-1.602-2.478-1.78-4.548-1.787-4.66 1.3-.05 2.607-.088 2.83-.095v2.285c0 .29.2.523.443.523.054 0 .105-.012.153-.034.228-.006.42-.13.5-.307l1.21-2.578c6-.325 10.722.467 10.772.476.363.064.65 0 .858-.19.086-.08.15-.175.2-.278.237 1.695 1.234 3.038 1.244 3.052 1.77 1.635 2.952 1.42 4.515.456l.043-.025c1.478-.98.777-4.275.625-4.92h.034l10.464 1.03.4.077 1.037 2.074h2.074c.312 0 .543-.1.68-.3.29-.407.118-1.107.034-1.377.3.02.538.112.71.273.364.34.31.88.31.885v.017c.15 2.136-.16 6.403-.206 6.993" fill="url(#r)" transform="matrix(2.81322 0 0 -2.81322 -35.315 1799.133)"/><path d="M133.43 38.466s5.244 4.94 1.717 10.448c0 0-1.905 2.425-7.635 2.946-5.74.514-3.227 5.196-1.14 6.996l-.98.408-14.14-.912 4.858-7.114s2.523-2.588 4.88-1.322c0 0-2.118-4.64 0-6.07 2.125-1.43 12.44-5.38 12.44-5.38" fill="#b83a21"/><path d="M111.25 18.93l-3.36.332c-.34.852-4.835 12.184-6.635 19.692.608 1.463 1.23 3.098 1.82 4.89 2.39-10.66 7.576-23.454 8.175-24.914" fill="#ed4c1e"/><path d="M98.05 38.466c-1.904 0-3.45 1.502-3.45 3.342 0 1.845 1.546 3.35 3.45 3.35 1.906 0 3.45-1.505 3.45-3.35 0-1.84-1.544-3.342-3.45-3.342" fill="#656263"/><path d="M122.797 33.985c2.546-8.552 5.58-15.315 6.054-16.36l-5.4.418c-.335.73-4.36 9.747-7.34 22.078 1.955-2.202 4.192-4.25 6.687-6.135" fill="#ed4c1e"/><path d="M118.85 8.184c.33-.473.432-.847.302-1.097-.205-.377-.886-.383-.897-.383l-5.368.543c-1.06.118-2.29 1.154-3.488 2.538l7.136 2.023c1.182-1.866 2.22-3.472 2.315-3.624" fill="#231f20"/><path d="M98.57 50.645c-.103-.037-.22-.057-.34-.057-.588 0-1.063.487-1.063 1.086v9.424c0 .6.475 1.09 1.063 1.09.12 0 .237-.026.34-.066.31-.137.552-.377.66-.66.04-.116.06-.234.06-.364v-9.424c0-.13-.02-.253-.06-.366-.113-.284-.35-.52-.66-.664" fill="#bdbcbc"/><path d="M155.793 61.757c.003-.042.258-2.388-.918-3.47-.537-.502-1.3-.668-2.26-.5-.148.023-15.196 2.55-33.625 1.126v4.335c0 .746-.672 1.356-1.516 1.382-.135.056-.28.09-.43.09-.69 0-1.25-.656-1.25-1.472v-4.43c-1.316-.037-14.41-.45-15.813-.625V61.1c0 .612-.56 1.113-1.276 1.17-.146.067-.31.095-.475.095-.688 0-1.248-.566-1.248-1.266v-2.904c-.135.008-.408.02-.754.02-1.226 0-3.395-.11-3.952-.836-.062-.085-.104-.172-.12-.265l-.156.003c0-.014-.006-.334.006-.92-.515.113-1.142.476-1.418.662-2.062 3.097-.335 5.424-.034 5.792 10.29 3.967 38.834 4.006 39.397 4.006h.007c13.565-.093 22.52-1.336 22.607-1.347l.152-.022.095.118c.01.006.02.014.024.023.78-.215 3.07-1.062 2.96-3.673" fill="#425254"/><path d="M127.562 14.79c.01.007 1.168.84-.04 2.764l11.076-.858c2.406-.042 2.558-1.48 2.56-1.494l.006-.025 3.74-9.765c.362-.678.446-1.182.252-1.497-.306-.51-1.246-.41-1.252-.41l-20.65 2.48h-.09c-1.698 0-2.57 1.424-2.578 1.44l-2.844 4.67 9.806 2.688.015.008z" fill="#231f20"/><path d="M174.227 31.885c.3 0 .557.166.627.388l.003-.003.895-.13c-.155-.545-.782-.95-1.525-.95-.864 0-1.567.543-1.567 1.218 0 .664.703 1.21 1.567 1.21.627 0 1.17-.29 1.418-.712l-1.1-.048c-.093.04-.205.068-.318.068-.36 0-.655-.234-.655-.518 0-.29.295-.523.655-.523" fill="#7b797a"/><path d="M107.682 19.28l-3.353.33-.02-.012c-.02-.003-.437-.14-.606-.54-.115-.28-.073-.613.133-.996.213-.428 5.407-10.578 9.03-10.997l5.382-.54c.04 0 .806.003 1.062.478.166.313.062.746-.31 1.283-.05.08-5.288 8.23-5.89 9.438-.023.048-.538 1.033-1.657 1.182-.363.883-5.85 14.302-8.27 25.282 1.29 3.987 2.427 8.74 3 14.126.364.014.735.025 1.103.04.008-.122.448-6.173 5.115-13.38 1.024-1.585 2.174-3.106 3.45-4.564 2.902-12.136 6.846-21.14 7.39-22.348l-7.394.57-.018-.005c-.028-.008-.692-.194-.97-.804-.2-.434-.155-.963.137-1.57l5.43-8.918c.007-.017.964-1.57 2.812-1.533l20.644-2.473s.087-.012.222-.012c.332 0 .937.062 1.204.506.23.37.146.934-.242 1.66l-3.733 9.748c-.02.16-.304 1.6-2.73 1.645l-9.547.735c-.293.63-3.396 7.44-6.018 16.193l.242-.18c5.58-4.097 12.44-7.368 20.396-9.715l.023-.008.312-.06c2.636-14.793 5.677-22.116 5.725-22.23l.017-.04.04-.02c.275-.178.612-.265 1.01-.265.604 0 1.14.205 1.243.245 3.55.635 18.772 5.716 18.92 5.764 3.374.79 3.968 3.47 4.01 3.694 1.187 3.207 1.635 9.06 1.74 14.952 1.186.233 1.886.383 1.93.394 6.154.937 36.362 8.293 38.863 8.904.307-.37.442-.726.414-1.07-.045-.528-.48-.874-.484-.877l-.104-.08v-.22l-2.578-10.354c-.625-2.61-3.35-3.582-3.382-3.588l-.02-.008-2.343-1.024C178.775 5.493 156.57 1.31 156.35 1.268c-4.36-.884-9.373-.715-9.423-.715-13.557.77-29.76 3.688-29.924 3.716-5.787.703-9.214 5.54-9.248 5.59-5.184 6.622-8.57 14.063-10.766 20.786.4.608 2.205 3.424 4.146 8.026 1.792-7.328 6.023-18.063 6.546-19.39" fill="#504c4d"/><path d="M107.682 19.28l-3.353.33-.02-.012c-.02-.003-.437-.14-.606-.54-.115-.28-.073-.613.133-.996.213-.428 5.407-10.578 9.03-10.997l5.382-.54c.04 0 .806.003 1.062.478.166.313.062.746-.31 1.283-.05.08-5.288 8.23-5.89 9.438-.023.048-.538 1.033-1.657 1.182-.363.883-5.85 14.302-8.27 25.282 1.29 3.987 2.427 8.74 3 14.126.364.014.735.025 1.103.04.008-.122.448-6.173 5.115-13.38 1.024-1.585 2.174-3.106 3.45-4.564 2.902-12.136 6.846-21.14 7.39-22.348l-7.394.57-.018-.005c-.028-.008-.692-.194-.97-.804-.2-.434-.155-.963.137-1.57l5.43-8.918c.007-.017.964-1.57 2.812-1.533l20.644-2.473s.087-.012.222-.012c.332 0 .937.062 1.204.506.23.37.146.934-.242 1.66l-3.733 9.748c-.02.16-.304 1.6-2.73 1.645l-9.547.735c-.293.63-3.396 7.44-6.018 16.193l.242-.18c5.58-4.097 12.44-7.368 20.396-9.715l.023-.008.312-.06c2.636-14.793 5.677-22.116 5.725-22.23l.017-.04.04-.02c.275-.178.612-.265 1.01-.265.604 0 1.14.205 1.243.245 3.55.635 18.772 5.716 18.92 5.764 3.374.79 3.968 3.47 4.01 3.694 1.187 3.207 1.635 9.06 1.74 14.952 1.186.233 1.886.383 1.93.394 6.154.937 36.362 8.293 38.863 8.904.307-.37.442-.726.414-1.07-.045-.528-.48-.874-.484-.877l-.104-.08v-.22l-2.578-10.354c-.625-2.61-3.35-3.582-3.382-3.588l-.02-.008-2.343-1.024C178.775 5.493 156.57 1.31 156.35 1.268c-4.36-.884-9.373-.715-9.423-.715-13.557.77-29.76 3.688-29.924 3.716-5.787.703-9.214 5.54-9.248 5.59-5.184 6.622-8.57 14.063-10.766 20.786.4.608 2.205 3.424 4.146 8.026 1.792-7.328 6.023-18.063 6.546-19.39" fill="#393637"/><path d="M176.456 32.035c.028-1.804.03-3.697.003-5.59-5.996-1.173-23.38-4.24-31.726-2.195l-.535.104c-1.483 8.45-2.822 19.293-3.405 32.586v.62c1.044-.035 7.672-.268 11.822-1.21.05-.007.9-.094 1.07-.977.03-.262.755-6.876 1.813-8.46.006-.02 1.65-3.077 5.764-3.077h14.733c.057-.807.338-5.33.44-10.89l-.392-.014c-.267.608-.98 1.046-1.817 1.046-1.067 0-1.933-.703-1.933-1.572 0-.867.866-1.578 1.933-1.578.928 0 1.707.54 1.89 1.254l.338-.048z" fill="#ed4c1e"/><path d="M146.404 17.514c.723-4.527 3.35-11.847 3.378-11.92.602-1.516 1.865-1.834 2.822-1.834.917 0 1.67.284 1.705.293l15.868 4.414c3.947 1.083 3.67 4.91 3.67 4.95l.457 9.284-27.915-5.1.014-.086zm30.045 8.378c-.11-5.858-.553-11.653-1.73-14.82l-.01-.023c-.017-.113-.484-2.716-3.815-3.492-.163-.06-15.405-5.14-18.913-5.762l-.028-.01c-.008 0-.548-.226-1.148-.226-.326 0-.605.065-.83.194-.25.608-3.148 7.874-5.674 22.033l.315-.064c8.384-2.05 25.72.976 31.832 2.17" fill="#393637"/><path d="M173.663 13.414c.014-.164.264-3.73-3.533-4.777L154.252 4.22c-.017-.003-.768-.28-1.646-.28-1.308 0-2.2.575-2.658 1.718-.023.07-2.614 7.28-3.354 11.798l27.52 5.03-.45-9.072z" fill="#231f20"/><path d="M92.423 57.27c.653.85 3.984.772 4.56.744v-6.338c0-.7.56-1.27 1.247-1.27.166 0 .326.035.475.096.715.06 1.277.56 1.277 1.174v.064l1.655 6.38-.04-.002c1.05.056 2.48.115 4.037.174-.71-6.527-2.242-12.122-3.862-16.525 0 .014.003.03.003.04 0 1.997-1.674 3.617-3.725 3.617-2.054 0-3.722-1.62-3.722-3.617 0-1.992 1.668-3.613 3.722-3.613 1.125 0 2.138.493 2.824 1.264-1.747-4.248-3.426-7.07-4.1-8.142-1.12 3.503-1.917 6.797-2.483 9.663-1.83 9.207-1.746 16.06-1.746 16.13l-.2.003c.018.054.04.105.08.158" fill="#ed4c1e"/><path d="M209.788 58.68l-.518-2.86s.056-.01.132-.1l1.412 1.14s-.056 1.21-1.026 1.82m3.412-4.468c-.045-.003-.096-.006-.146-.006h-1.57c.067.616-.363.984-.363.984l-1.39-.596c.035-.115.02-.284.013-.388h-1.185l-.067.253-.312-.254h-.843l-.192.377 1.016.205c-.164.12 0 .402 0 .402l-1.672.7-1.12 2.232 2.895-2.302-.346 4.19s-1.443.007-2.147-.41c.47.775 1.314 1.703 2.783 2.154h.03c3.286.126 4.476-2.907 4.485-2.94l.08-.203h.01c.087-.317.73-2.75.042-4.4" fill="#bdbcbc"/><path d="M205.117 58.624l-.695 1.393-1.125.214c.967 1.424 2.154 1.525 2.202 1.528l2.517-.003c-1.986-.813-2.7-2.512-2.9-3.13" fill="#231f20"/><path d="M97.752 38.466c-1.74 0-3.153 1.502-3.153 3.342 0 1.845 1.41 3.35 3.152 3.35 1.74 0 3.157-1.505 3.157-3.35 0-1.84-1.42-3.342-3.158-3.342" fill="#bebcbd"/><path d="M97.298 38.466c-1.486 0-2.698 1.418-2.698 3.168 0 1.75 1.212 3.17 2.698 3.17 1.49 0 2.703-1.42 2.703-3.17s-1.21-3.168-2.702-3.168" fill="#fff"/><path d="M214.828 54.965c-.304-.428-.785-.675-1.418-.743.647 1.688.04 4.015-.073 4.417l.03.007c.552.087 1.05.12 1.5.1.22-.68.74-2.68-.04-3.783M171.78 49.28c-.038-.027-.074-.047-.108-.07-.81-.5-1.59-.928-2.343-1.263 4.016 6.47.83 13.467.024 15.02h4.1c.384-1.646 2.37-11.017-1.675-13.686" fill="#231f20"/><path d="M118.99 58.822l.01-.056h-.01v.056zM167.012 53.664l-2.926-1.02s-.09-.87-.664-.96l2.583-3.3s1.243 2.067 1.007 5.28m-3.134 7.23l-.973-5.94c.396-.06.726-.69.726-.69l2.65 2.492c-.092 1.53-2.402 4.138-2.402 4.138m5.16-13.07c-1.69-.692-3.295-.906-5.008-.405l-1.792 3.763c-.64.01-1.122.886-1.122.886l-1.807-1.712c-.037.03-.07.068-.11.102-.006.008-.358.478-.833 1.285l2.532 1.303c-.187.436 0 .824 0 .824l-4.23 1.446c-.404 1.106-.75 2.35-.93 3.666l5.376-4.254s.438.36.55.25l-1.102 7.593s-3.01.563-4.583-.903c-.002.048-.002.085-.007.09.008.138.006.273-.003.403 2.4 4.425 7.394 4.194 7.444 4.19l.008.09c3.027-.657 5.106-2.7 5.624-3.248l-.02-.006c.045-.082 4.71-8.11.01-15.367" fill="#bdbcbc"/><path d="M87.728 620.26c.024-.218-.128-.35-.128-.35l-.496.212c.013.04.01.1.005.14h-.42l-.025-.092-.11.09h-.302l-.068-.134.362-.073c-.06-.042 0-.143 0-.143l-.595-.25-.397-.79 1.03.817-.125-1.49s-.513-.002-.763.147c.167-.276.468-.607.99-.767h.01c1.168-.045 1.59 1.033 1.595 1.045l.028.072h.003c.03.113.26.978.016 1.564l-.054.003h-.558zm-.787-.573s.022.003.05.035l.5-.405s-.02-.43-.365-.646l-.184 1.017z" fill="url(#s)" transform="matrix(2.81322 0 0 -2.81322 -35.315 1799.133)"/><path d="M70.86 622.673l-.637-1.338c-.227-.004-.4-.315-.4-.315l-.64.608-.04-.036c-.002-.003-.127-.17-.297-.457l.9-.463c-.064-.155 0-.293 0-.293l-1.502-.515c-.144-.393-.267-.835-.33-1.302l1.91 1.51s.156-.127.196-.088l-.392-2.698s-1.07-.2-1.63.32c0-.017 0-.03-.002-.03.003-.05.002-.1 0-.145.852-1.573 2.627-1.49 2.645-1.49l.004-.032c1.076.234 1.816.96 2 1.155l-.008.002c.016.03 1.674 2.883.004 5.462-.377.153-.74.24-1.11.24-.22 0-.443-.03-.67-.097m.02-1.858s-.03.31-.236.342l.918 1.173s.443-.735.358-1.877l-1.04.362zm-.42-.82c.14.02.258.245.258.245l.942-.885c-.033-.545-.854-1.473-.854-1.473l-.346 2.112z" fill="url(#t)" transform="matrix(2.81322 0 0 -2.81322 -35.315 1799.133)"/><path d="M155.942 62.472c-.28 2.064-2.172 2.858-2.97 3.097.42.418 1.16.936 1.39 1.088h7.155c.51 0 1.002-.048 1.472-.13-1.273-.05-4.986-.52-7.048-4.056" fill="#231f20"/><path d="M140.796 59.02s2.16 2.947 0 7.313l1.347-.186s1.868-4.183 1.137-7.292l-2.484.166z" fill="#f5f4f5"/><path d="M157.913 52.154s1.23-5.086 7.317-6.12c0 0 12.378-1.984 12.192 5.175l.008 5.583s.678 2.138 4.327 1.56l15.087.103s2.054.04 3.013 1.302c0 0 .608-11.162 13.48-9.857 0 0 .97-1.752-.764-3.42l-1.758-1.843s2.228 0 2.796-1.668c0 0 .696-2.068-.485-4.277 0 0-.394-3.376.213-3.69l3.843.9.333 4.652s.59 12.69.417 13.476c0 0 .723 4.57-2.693 4.595 0 0 1.092-3.463-.703-4.42l-1.018-.357-6.294.028-2.872 5.882-30.678 3.064s2.175-8.586-.473-12.336c0 0-.5-1.722-5.174-3.218 0 0-2.56-.976-5.123.374 0 0-2.144 1.05-3.843 2.698l-1.148 1.814z" fill="#b83a21"/><path d="M90.553 62.65c10.29 3.968 38.834 4.007 39.397 4.007h.008c13.563-.09 22.517-1.336 22.604-1.347l.152-.023.096.12c.008.004.02.013.025.02.777-.213 3.067-1.06 2.957-3.67.006-.042.26-2.39-.917-3.472-.507-.475-1.213-.647-2.096-.517-1.396 4.898-7.524 4.703-7.524 4.703-10.915 1.684-20.06 2.24-27.617 2.145-.054.006-.11.01-.167.014-.135.055-.278.09-.43.09-.177 0-.35-.043-.498-.125-14.87-.312-23.372-3.16-26.954-4.723.004 1.514.772 2.543.963 2.78" fill="#2c2f2f" opacity=".64"/><path d="M176.477 22.485c3.48.588 6.94 1.243 10.39 1.966 3.454.713 6.89 1.49 10.32 2.297 3.427.827 6.845 1.674 10.238 2.636 1.697.475 3.387.982 5.06 1.533.84.284 1.67.57 2.496.89.412.16.82.326 1.225.508.394.197.805.386 1.13.676-.35-.256-.77-.406-1.18-.563-.408-.152-.828-.293-1.244-.422-.84-.26-1.687-.492-2.534-.717-1.7-.456-3.406-.88-5.114-1.303-3.415-.835-6.84-1.654-10.268-2.464l-10.266-2.46c-3.42-.825-6.84-1.686-10.25-2.575" fill="#fff"/><path d="M217.928 34.17c-.045-.528-.48-.874-.484-.877l-.107-.08v-.22l-2.574-10.354c-.627-2.61-3.35-3.582-3.384-3.588l-.018-.008-2.344-1.024c-2.532-1.047-5.013-2.037-7.424-2.97-.683 1.935-2.985 1.68-2.985 1.68l14.727 9.603v7.888c2.177.53 3.69.9 4.177 1.02.304-.37.44-.726.414-1.07" fill="#231f20" opacity=".24"/><g clip-path="url(#u)" transform="matrix(2.81322 0 0 -2.81322 -35.315 1799.133)" opacity=".5"><path d="M63.848 634.18l-1.655-10.577s.43 4.67-5.186 3.976c0 0 5.86 3.4 6.84 6.6" fill="url(#w)" mask="url(#v)"/></g><path d="M145.258 12.65L148.783.547s-16.477.782-33.84 4.16c0 0-5.19.746-9.647 8.547l4.504-5.288 3.708-2.1s1.28-.238 1.702-.356c.424-.118 9.446-.082 17.143-2.52l4.07-.184s4.862-.118 5.23-.236c.364-.124 8.058-5.823 3.605 10.08M104.395 48.382s.677-1.378 1.853-4.695c1.182-3.314.6-.403.6-.403s-1.655 3.984 2.55 1.958l6.455-4.83s-6.79 6.89-8.564 17.94l-1.103-.037s-1.593-8.273-1.792-9.933" fill="#231f20" opacity=".24"/><path d="M117.736 32.633l.388-1.412c.183-.677.132-1.225-.163-1.614-.294-.377-.8-.588-1.52-.63l-.92-.045c-.544-.027-1.028.052-1.44.232l.14-.515c.087-.326.115-.622.084-.88-.034-.276-.132-.512-.298-.707-.315-.357-.86-.554-1.618-.576l-1.024-.028c-.71-.02-1.302.14-1.783.47-.472.334-.796.827-.967 1.454l-1.533 5.83c-.166.615-.105 1.12.19 1.487.282.366.777.585 1.467.656l2.422.244c-.16.66-.15 1.38.12 1.773.278.41.776.666 1.48.754l.877.115c.698.086 1.294-.018 1.767-.313.245-.155.46-.37.636-.62.16-.244.284-.525.377-.85l.548-2.007c.118-.437.144-.726.076-.94-.058-.19-.165-.36-.32-.504-.118-.104-.31-.25-.59-.436l-.006-.003-1.2-.75c-.1-.066-.165-.12-.204-.156l.006-.013.416-1.54c.008-.032.014-.05.023-.063.017-.006.056-.012.124-.006l.23.02c.072 0 .112.014.13.022 0 .008-.004.028-.013.062l-.35 1.297 2.45.193z" fill="#231f20"/><path d="M112.862 38.73c-.588-.07-.998-.276-1.223-.605-.224-.33-.26-.785-.108-1.36l.146-.533 1.61.166-.16.582c-.083.31.055.478.44.52l.254.028c.166.023.3 0 .4-.07.098-.067.17-.18.21-.335l.43-1.578c.03-.098.046-.233-.01-.292-.063-.068-.17-.158-.32-.265l-1.194-.782c-.27-.166-.462-.298-.577-.408-.123-.115-.193-.26-.218-.427-.02-.16.003-.365.067-.613l.503-1.876c.15-.542.416-.95.8-1.21.384-.258.885-.373 1.498-.34l.918.05c.608.032 1.03.207 1.258.505.236.304.275.745.12 1.308l-.272 1-1.626-.125.244-.9c.09-.324-.05-.49-.43-.518l-.225-.008c-.374-.025-.588.113-.672.44l-.417 1.532c-.03.1-.048.23.012.29.06.065.168.15.323.256l1.2.754c.266.174.45.315.558.41.11.102.187.223.23.358.044.138.016.374-.08.726l-.548 2c-.146.548-.414.948-.796 1.19-.377.236-.87.318-1.463.242l-.88-.11z" fill="#fff"/><path d="M112.862 38.73c-.588-.07-.998-.276-1.223-.605-.224-.33-.26-.785-.108-1.36l.146-.533 1.61.166-.16.582c-.083.31.055.478.44.52l.254.028c.166.023.3 0 .4-.07.098-.067.17-.18.21-.335l.43-1.578c.03-.098.046-.233-.01-.292-.063-.068-.17-.158-.32-.265l-1.194-.782c-.27-.166-.462-.298-.577-.408-.123-.115-.193-.26-.218-.427-.02-.16.003-.365.067-.613l.503-1.876c.15-.542.416-.95.8-1.21.384-.258.885-.373 1.498-.34l.918.05c.608.032 1.03.207 1.258.505.236.304.275.745.12 1.308l-.272 1-1.626-.125.244-.9c.09-.324-.05-.49-.43-.518l-.225-.008c-.374-.025-.588.113-.672.44l-.417 1.532c-.03.1-.048.23.012.29.06.065.168.15.323.256l1.2.754c.266.174.45.315.558.41.11.102.187.223.23.358.044.138.016.374-.08.726l-.548 2c-.146.548-.414.948-.796 1.19-.377.236-.87.318-1.463.242l-.88-.11z" fill="none" stroke="#fff" stroke-width=".352" stroke-miterlimit="10"/><path d="M115.912 31.993l.22-.818c.106-.374-.06-.574-.487-.602l-.23-.014c-.415-.03-.673.145-.772.516l-.413 1.53c-.05.172-.043.29.022.358.068.067.175.155.332.264l1.204.754c.262.175.445.31.55.403.1.098.173.208.21.33.04.128.008.353-.08.685l-.545 1.998c-.287 1.055-1.004 1.505-2.16 1.36l-.878-.11c-1.142-.134-1.564-.758-1.272-1.872l.124-.456 1.446.15-.138.5c-.098.357.07.56.498.608l.256.03c.38.043.618-.115.714-.475l.427-1.578c.05-.172.044-.295-.02-.363-.07-.067-.173-.157-.333-.27l-1.193-.785c-.267-.163-.453-.292-.568-.4-.113-.103-.175-.23-.197-.39-.02-.152 0-.35.064-.588l.506-1.875c.278-1.044 1.013-1.536 2.186-1.477l.923.054c1.172.067 1.61.644 1.31 1.727l-.25.916-1.458-.112z" fill="#f14c1e"/><path d="M108.834 35.966c-.58-.056-.982-.23-1.207-.518-.228-.287-.276-.692-.14-1.207l1.547-5.844c.14-.526.4-.926.77-1.182.372-.264.864-.388 1.458-.368l1.024.033c.647.016 1.103.177 1.36.466.252.293.308.726.156 1.28l-.292 1.075-1.638-.08.237-.892c.106-.394-.02-.586-.398-.602l-.37-.015c-.384-.013-.61.162-.716.55l-1.46 5.49c-.1.395.025.584.405.62l.9.076.55-2.05-.762-.057.334-1.244 2.394.16-1.24 4.603-2.912-.294z" fill="#fff"/><path d="M108.834 35.966c-.58-.056-.982-.23-1.207-.518-.228-.287-.276-.692-.14-1.207l1.547-5.844c.14-.526.4-.926.77-1.182.372-.264.864-.388 1.458-.368l1.024.033c.647.016 1.103.177 1.36.466.252.293.308.726.156 1.28l-.292 1.075-1.638-.08.237-.892c.106-.394-.02-.586-.398-.602l-.37-.015c-.384-.013-.61.162-.716.55l-1.46 5.49c-.1.395.025.584.405.62l.9.076.55-2.05-.762-.057.334-1.244 2.394.16-1.24 4.603-2.912-.294z" fill="none" stroke="#fff" stroke-width=".352" stroke-miterlimit="10"/><path d="M110.364 32.67l.292-1.095 2.223.146-1.197 4.454-2.824-.28c-1.12-.108-1.546-.654-1.287-1.644l1.542-5.848c.272-1.02.976-1.51 2.124-1.48l1.025.034c1.258.04 1.74.596 1.455 1.668l-.273.996-1.47-.076.215-.81c.116-.44-.034-.667-.456-.687l-.374-.014c-.427-.017-.703.19-.818.627l-1.46 5.486c-.116.428.042.664.464.7l.982.088.593-2.21-.76-.055z" fill="#f14c1e"/><path d="M97.353 48.382c1.823-.706 2.26-1.986 2.138-3.238-.44.18-.928.28-1.44.28-2.053 0-3.724-1.62-3.724-3.616 0-1.517.967-2.814 2.337-3.348-.123-2.59 1.103-5.47 1.103-5.47-.425-.747-.765-1.31-.993-1.673-1.12 3.503-1.916 6.797-2.48 9.664-1.833 9.208-1.748 16.06-1.748 16.132l-.2.003c.017.053.04.104.08.157.432.566 2.05.717 3.257.748-1.36-6.653 1.67-9.638 1.67-9.638" fill="#b83a21"/><path d="M139.098 58.98l-.97-4.718c-.55-3.15-3.748-2.667-3.748-2.667l-15.183.774.672 1.434 13.42-.684s3.2-.49 3.745 2.664l.35 3.33 1.713-.134z" fill="#656263"/><path d="M133.75 52.998c.87 0 2.94.273 3.374 2.774l.344 3.243 1.522-.12-.95-4.612c-.41-2.368-2.376-2.622-3.197-2.622-.27 0-.447.027-.447.027l-15.06.77.588 1.252 13.36-.68s.18-.032.467-.032m3.554 6.214l-.36-3.418c-.41-2.357-2.37-2.613-3.193-2.613-.27 0-.443.03-.443.03l-13.495.685-.757-1.6 15.324-.786c-.007 0 .176-.032.463-.032.866 0 2.943.27 3.373 2.77l.993 4.812-1.906.152z" fill="#231f20"/><path d="M115.936 53.92l-15.593-.424L100 52.37l15.936.226v1.325z" fill="#656263"/><path d="M100.41 53.407l15.433.428v-1.15l-15.72-.22.287.942zm15.613.608l-15.75-.43-.398-1.303 16.148.225v1.508z" fill="#231f20"/><path d="M94.392 58.11v-3.152s.092-1.845 1.687-1.617l.908-.025v-.945l-1.865.023c-1.595-.228-1.688 1.617-1.688 1.617v3.854l.957.245z" fill="#656263"/><path d="M53.765 620.362l-5.544.15-.12.4 5.665-.08v-.47z" fill="url(#x)" transform="matrix(2.81322 0 0 -2.81322 -35.315 1799.133)"/><path d="M46.106 618.873v1.12s.033.656.6.575l.323.01v.335l-.664-.008c-.567.08-.6-.575-.6-.575v-1.37l.34-.087z" fill="url(#y)" transform="matrix(2.81322 0 0 -2.81322 -35.315 1799.133)"/><path d="M93.527 57.794l.773.194v-3.03c.003-.022.105-1.732 1.517-1.732.087 0 .183.008.273.02l.807-.015v-.767l-1.775.023c-.1-.017-.18-.023-.262-.023-1.243 0-1.33 1.488-1.333 1.55v3.78zm.956.43l-1.14-.295v-3.92c0-.02.102-1.727 1.517-1.727.087 0 .183.006.273.017l1.944-.02v1.126l-1 .025c-.094-.016-.18-.022-.26-.022-1.24 0-1.33 1.49-1.334 1.556v3.26z" fill="#231f20"/><path d="M120.99 35.415l1.807-1.43s2.492-8.18 6.054-16.358l-1.088.087s-1.55 1.418-1.73 1.686c-.186.272-.456 5.176-2.37 7.97 0 0-2.556 6.19-2.67 8.045M111.25 18.93s-5.615 13.487-5.29 14.558c0 0-2.997 10.018-2.885 10.356l-.563-1.626 3.41-10.83s.867-2.772 1.106-3.32c.24-.546.742-2.952.936-3.267.195-.314 2.563-5.797 2.563-5.797l.723-.073z" fill="#b83a21"/><path d="M117.042 64.538c.588 0 1.064-.577 1.064-1.29V52.21c0-.714-.476-1.29-1.064-1.29-.585 0-1.063.576-1.063 1.29v11.04c0 .71.477 1.288 1.062 1.288" fill="#bdbcbc"/><path d="M127.51 35.682c-3.79 0-6.87 2.99-6.87 6.658 0 3.67 3.08 6.657 6.87 6.657s6.87-2.988 6.87-6.657c0-3.668-3.08-6.658-6.87-6.658" fill="#656263"/><path d="M126.926 35.682c-3.47 0-6.287 2.99-6.287 6.658 0 3.67 2.817 6.657 6.286 6.657 3.463 0 6.285-2.988 6.285-6.657 0-3.668-2.82-6.658-6.284-6.658" fill="#bebcbd"/><path d="M126.372 36.054c-3.162 0-5.733 2.765-5.733 6.163 0 3.4 2.57 6.164 5.732 6.164 3.162 0 5.736-2.764 5.736-6.163 0-3.398-2.574-6.163-5.736-6.163" fill="#fff"/><path d="M61.998 618.563l-.345 1.677c-.195 1.12-1.332.948-1.332.948l-5.397-.275.24-.51 4.77.243s1.137.174 1.33-.946l.125-1.185.61.048z" fill="url(#z)" transform="matrix(2.81322 0 0 -2.81322 -35.315 1799.133)"/><path d="M143.903 42.34c.12-.794.4-2.22.4-2.22-2.518-4.814 1.662-16.126 1.662-16.126-.425.07-.838.16-1.232.256l-.535.105c-1.48 8.45-2.818 19.293-3.4 32.585v.62c.26-.01.877-.026 1.724-.07-1.548-4.024 1.274-14.46 1.38-15.15" fill="#b83a21"/><path d="M143.903 42.34c.12-.794.4-2.22.4-2.22-2.518-4.813 1.662-16.125 1.662-16.125-.425.07-.838.16-1.232.256l-.535.105c-1.48 8.45-2.818 19.293-3.4 32.585v.62c.26-.01.877-.026 1.724-.07-1.548-4.024 1.274-14.46 1.38-15.15" fill="#b83a21"/><path d="M75.277 628.142c.01.64.01 1.314.002 1.987-2.133.415-8.312 1.505-11.28.78l-.19-.038c-.526-3.005-1-6.858-1.21-11.583v-.22c.372.01 2.728.094 4.203.43.018 0 .32.032.38.345.01.094.27 2.445.645 3.008.002.006.586 1.094 2.05 1.094h5.236c.02.286.12 1.895.156 3.87l-.14.006c-.094-.216-.347-.373-.645-.373-.38 0-.687.25-.687.56 0 .308.308.56.687.56.33 0 .607-.192.672-.445l.12.017z" fill="url(#A)" transform="matrix(2.81322 0 0 -2.81322 -35.315 1799.133)"/><path d="M98.215 32.674s5.697-17.388 6.392-18.404c0 0-5.66 9.436-7.62 16.376l1.228 2.028z" fill="#231f20" opacity=".24"/><path d="M155.92 63.165c.188.372.44.743.71 1.083.277.346.59.664.924.957.672.565 1.474 1.007 2.35 1.24-.887-.17-1.74-.554-2.476-1.088-.37-.27-.715-.574-1.027-.914-.31-.338-.596-.687-.84-1.098l.36-.18zM155.56 63.817c.12.264.286.537.466.782.19.252.397.485.625.702.46.427 1.02.762 1.635.95-.636-.123-1.243-.404-1.764-.795-.263-.2-.505-.42-.727-.67-.223-.245-.422-.5-.6-.796l.366-.173zM154.874 64.484c.08.205.194.42.32.613.128.197.277.39.44.563.323.35.73.63 1.198.785-.484-.09-.945-.324-1.34-.64-.196-.162-.376-.34-.542-.528-.163-.196-.31-.393-.44-.63l.364-.163zM154.012 64.998c.053.166.143.343.24.506.092.166.207.33.328.473.253.29.574.54.954.68-.397-.075-.774-.272-1.092-.54-.163-.132-.306-.28-.44-.438-.136-.167-.252-.328-.364-.525l.374-.157zM205.053 59.595c.096.22.245.445.397.647.16.21.338.4.535.577.388.348.858.618 1.375.773-.532-.088-1.052-.3-1.505-.622-.225-.154-.44-.334-.636-.53-.192-.2-.37-.41-.527-.665l.36-.18z" fill="#f5f4f5"/><path d="M204.837 59.987c.06.152.154.32.258.467.1.152.217.295.352.424.26.265.582.476.942.602-.38-.06-.752-.22-1.075-.447-.166-.118-.315-.245-.46-.39-.14-.15-.263-.3-.38-.482l.362-.173zM204.432 60.388c.034.118.1.247.163.368.07.116.15.237.242.335.18.218.41.398.69.505-.293-.042-.58-.172-.828-.355-.125-.09-.24-.197-.344-.31-.11-.117-.205-.233-.295-.376l.372-.166zM203.914 60.698c.028.09.07.2.118.3.05.1.104.196.175.286.143.182.323.337.545.438-.244-.033-.478-.137-.683-.292-.105-.08-.198-.166-.288-.262-.09-.095-.163-.188-.24-.315l.372-.155z" fill="#f5f4f5"/><path d="M217.933 55.48c0 .01.15 1.532-.872 2.488-.486.453-1.153.712-1.994.77.234-.76.72-2.728-.093-3.876-.39-.557-1.038-.84-1.918-.84h-5.832l-2.923 5.834-1.12.214-29.44 2.897h-.096c.428-1.81 2.4-11.084-1.758-13.838l-.124-.07c-4.397-2.713-7.725-3.315-12.7 1.282-.03.04-2.834 3.817-3.5 8.588-.14-.29-.322-.56-.56-.782-.586-.537-1.396-.717-2.417-.54-.138.025-13.42 2.254-30.3 1.34l-3.405-7.253c-.226-.495-.768-.847-1.407-.86-.135-.063-.28-.097-.43-.097-.687 0-1.25.66-1.25 1.472v6.43c-.624-.022-4.295-.132-7.958-.267.022-.315.52-6.14 5.027-13.11 4.268-6.59 13.107-15.553 30.962-20.834l.09-.018c-1.477 8.448-2.813 19.274-3.392 32.524v.903l.137-.004c.075-.006 7.5-.197 12-1.218.012 0 1.084-.11 1.3-1.2.006-.066.75-6.826 1.773-8.37.017-.026 1.586-2.943 5.53-2.943l14.99.003.007-.127c.01-.11.338-4.95.45-11.018l.875.042c.363-.96-.11-1.12-.11-1.12l-.745.11c.02-1.772.028-3.632.003-5.497 1.11.214 1.772.357 1.815.368 6.127.94 36.11 8.232 38.802 8.893.13 1.663 1.002 13.664.583 19.673l-.003.023.003.026zm-4.566 3.166l-.028-.006c.11-.405.716-2.73.07-4.42.635.068 1.113.32 1.417.743.78 1.103.26 3.103.042 3.787-.454.017-.952-.017-1.503-.104m-.22-.034l-.078.203c-.01.033-1.2 3.066-4.486 2.94h-.033c-1.465-.454-2.312-1.382-2.782-2.158.704.42 2.15.41 2.15.41l.343-4.186-2.89 2.3 1.116-2.228 1.674-.7s-.164-.285 0-.403l-1.016-.207.19-.38h.845l.312.257.067-.256h1.18c.012.104.026.275-.013.39l1.395.597s.427-.367.363-.986h1.57c.05 0 .1.006.146.008.69 1.645.043 4.082-.04 4.4h-.013zm-7.65 3.145c-.046-.003-1.234-.104-2.2-1.527l1.127-.214.692-1.393c.2.62.917 2.318 2.9 3.13l-2.518.004zm-36.143 1.21c.805-1.553 3.992-8.55-.025-15.02.753.335 1.532.762 2.342 1.26.034.026.07.045.107.074 4.045 2.67 2.058 12.04 1.673 13.687h-4.1zm-.31.228c-.514.548-2.596 2.59-5.623 3.25l-.005-.09c-.05.002-5.044.233-7.444-4.193.007-.13.013-.264.004-.402.003-.006.003-.042.008-.09 1.57 1.466 4.583.9 4.583.9l1.1-7.59c-.11.11-.55-.25-.55-.25l-5.377 4.253c.182-1.316.526-2.56.934-3.665l4.228-1.446s-.186-.388 0-.824l-2.535-1.303c.476-.807.827-1.277.833-1.286.042-.034.076-.07.112-.102l1.804 1.71s.484-.874 1.122-.886l1.792-3.764c1.716-.5 3.317-.287 5.008.405 4.698 7.256.033 15.285-.012 15.366l.02.005zm-7.525 3.463h-7.16c-.228-.152-.965-.67-1.39-1.09.8-.24 2.692-1.03 2.97-3.096 2.063 3.536 5.78 4.006 7.048 4.056-.47.082-.962.13-1.47.13m-42.526-7.838v-.056h.006l-.006.056zm-3.013 4.428v-11.04c0-.713.477-1.29 1.062-1.29.588 0 1.064.577 1.064 1.29v11.04c0 .712-.476 1.29-1.064 1.29-.585 0-1.063-.578-1.063-1.29m36.83 2.158l-.096-.118-.15.022c-.09.012-9.044 1.255-22.603 1.348h-.01c-.56 0-29.103-.042-39.397-4.006-.3-.37-2.028-2.695.034-5.793.278-.186.903-.55 1.42-.662-.013.585-.007.906-.007.92l.157-.003c.017.093.057.18.118.265.557.725 2.726.835 3.956.835.344 0 .617-.01.755-.02V61.1c0 .7.56 1.265 1.246 1.265.167 0 .327-.028.474-.096.717-.057 1.277-.558 1.277-1.17v-2.907c1.405.174 14.5.588 15.814.624v4.43c0 .817.562 1.472 1.25 1.472.15 0 .294-.034.43-.09.846-.026 1.518-.636 1.518-1.382v-4.335c18.427 1.423 33.475-1.103 33.624-1.125.962-.17 1.722-.003 2.26.498 1.175 1.083.922 3.43.916 3.47.113 2.612-2.18 3.46-2.957 3.672-.006-.008-.016-.017-.025-.022m-53.518-13.73v9.423c0 .128-.02.246-.062.36-.107.286-.35.525-.66.66-.103.042-.22.067-.34.067-.587 0-1.062-.492-1.062-1.088v-9.426c0-.6.475-1.085 1.063-1.085.12 0 .237.018.34.055.31.143.547.38.66.664.042.11.062.235.062.365m-5-10.696c.566-2.865 1.362-6.162 2.482-9.665.675 1.072 2.354 3.894 4.1 8.145-.685-.774-1.698-1.266-2.823-1.266-2.053 0-3.724 1.623-3.724 3.615 0 1.993 1.67 3.614 3.725 3.614 2.052 0 3.723-1.62 3.723-3.615l-.003-.044c1.623 4.403 3.156 10 3.865 16.525-1.558-.058-2.99-.117-4.037-.173l.037.003-1.654-6.38v-.065c0-.614-.56-1.114-1.277-1.173-.146-.062-.306-.096-.472-.096-.686 0-1.245.568-1.245 1.27v6.337c-.58.028-3.908.107-4.56-.743-.04-.05-.063-.1-.08-.154l.2-.006c0-.068-.084-6.92 1.747-16.13M109.4 9.782c1.198-1.384 2.427-2.42 3.488-2.535l5.367-.546c.012 0 .692.008.898.386.13.247.028.62-.3 1.094-.097.152-1.135 1.76-2.317 3.626L109.4 9.783zm7.035 2.18c-1.48 2.34-3.156 5.013-3.488 5.686-.006.005-.51.972-1.564 1.087l-7.033.69c-.07-.03-.358-.155-.476-.437-.098-.233-.053-.512.12-.846.038-.07 2.56-5.002 5.28-8.21l7.16 2.03zM101.5 41.808c0 1.846-1.545 3.35-3.45 3.35-1.9 0-3.45-1.504-3.45-3.35 0-1.842 1.55-3.342 3.45-3.342 1.905 0 3.45 1.5 3.45 3.342m-.245-2.855c1.8-7.506 6.296-18.84 6.636-19.692l3.36-.33c-.6 1.46-5.784 14.253-8.175 24.915-.59-1.792-1.212-3.43-1.82-4.892m27.598-21.327c-.476 1.044-3.508 7.807-6.054 16.36-2.5 1.884-4.733 3.932-6.69 6.135 2.98-12.33 7.006-21.346 7.34-22.078l5.403-.416zm-11.113-5.528l2.847-4.673c.008-.014.878-1.44 2.577-1.44h.09l20.65-2.48c.007 0 .945-.1 1.254.41.19.315.11.818-.253 1.496l-3.742 9.766-.003.025c-.006.015-.157 1.453-2.56 1.495l-11.075.858c1.204-1.924.05-2.754.036-2.763l-.013-.008-9.807-2.684zm9.73 2.847c.12.093.997.855-.176 2.622l-11.424.883c-.093-.03-.62-.213-.844-.703-.175-.383-.13-.86.135-1.412l2.485-4.074 9.824 2.685zm16.833 8.842c2.526-14.16 5.424-21.425 5.674-22.033.225-.13.504-.194.83-.194.6 0 1.14.225 1.148.225l.028.01c3.508.623 18.75 5.703 18.913 5.762 3.33.777 3.798 3.38 3.815 3.492l.012.02c1.176 3.17 1.618 8.96 1.727 14.818-6.114-1.19-23.45-4.22-31.832-2.166l-.315.065zm29.924 7.04c-1.063 0-1.933.71-1.933 1.58 0 .866.87 1.572 1.933 1.572.838 0 1.553-.442 1.817-1.05l.39.017c-.1 5.556-.38 10.082-.435 10.887h-14.736c-4.116 0-5.76 3.06-5.765 3.08-1.058 1.58-1.784 8.195-1.812 8.46-.172.88-1.02.97-1.072.976-4.15.942-10.778 1.173-11.82 1.207v-.616c.584-13.294 1.923-24.134 3.405-32.585l.533-.107c8.347-2.042 25.73 1.024 31.728 2.195.026 1.896.026 3.79-.005 5.592l-.338.048c-.183-.714-.96-1.255-1.89-1.255m0 2.096c.112 0 .225-.028.317-.067l1.103.048c-.25.422-.793.71-1.42.71-.864 0-1.567-.544-1.567-1.208 0-.673.703-1.216 1.567-1.216.745 0 1.37.404 1.524.95l-.893.13-.003.002c-.07-.222-.327-.388-.628-.388-.36 0-.655.236-.655.523 0 .284.296.517.656.517M107.756 9.86c.033-.05 3.46-4.89 9.244-5.594.166-.025 16.37-2.942 29.927-3.713.05 0 5.064-.17 9.424.712.22.045 22.425 4.225 52.667 16.755l2.344 1.02.02.013c.03.006 2.755.98 3.382 3.586l2.574 10.35v.22l.107.083c.003.003.44.35.484.878.028.344-.11.698-.414 1.07-2.5-.613-32.71-7.967-38.867-8.904-.04-.01-.74-.163-1.924-.394-.107-5.89-.554-11.745-1.742-14.952-.042-.225-.635-2.906-4.01-3.694-.15-.048-15.37-5.128-18.92-5.764-.104-.04-.64-.245-1.244-.245-.396 0-.737.087-1.01.265l-.04.016-.016.043c-.048.116-3.092 7.44-5.725 22.23l-.312.063-.023.006c-7.955 2.348-14.817 5.62-20.395 9.715l-.242.178c2.622-8.75 5.725-15.56 6.014-16.19l9.55-.737c2.426-.043 2.708-1.483 2.73-1.643l3.733-9.748c.388-.726.473-1.29.242-1.66-.267-.444-.872-.51-1.207-.51-.132 0-.22.015-.22.015l-20.643 2.473c-1.85-.037-2.804 1.513-2.813 1.533L115 16.254c-.293.608-.338 1.136-.138 1.57.278.61.942.793.97.8l.017.007 7.392-.567c-.545 1.207-4.487 10.212-7.39 22.348-1.274 1.46-2.425 2.98-3.45 4.564-4.666 7.208-5.105 13.26-5.113 13.377-.373-.01-.74-.02-1.104-.035-.577-5.385-1.713-10.142-3.002-14.128 2.422-10.98 7.908-24.397 8.27-25.28 1.12-.15 1.633-1.134 1.658-1.18.602-1.21 5.84-9.364 5.89-9.44.372-.537.476-.973.308-1.283-.254-.475-1.02-.478-1.06-.478l-5.383.54c-3.623.417-8.816 10.57-9.033 10.997-.202.383-.245.715-.13.996.167.398.586.536.603.54l.022.01 3.353-.33c-.524 1.326-4.755 12.064-6.547 19.39-1.94-4.6-3.747-7.416-4.146-8.023 2.197-6.724 5.58-14.165 10.766-20.787m110.137 25.772c.433-.49.622-1 .58-1.508-.05-.583-.405-.99-.588-1.165v-.032l-2.59-10.412c-.682-2.844-3.493-3.893-3.723-3.97l-2.332-1.02C178.922 4.97 156.675.776 156.455.74c-4.42-.898-9.494-.726-9.553-.726-13.597.776-29.837 3.696-29.984 3.72-6.01.73-9.472 5.61-9.604 5.802-8.14 10.4-11.87 22.784-13.565 31.342-1.338 6.755-1.658 12.263-1.73 14.772-.81.127-1.746.763-1.79.788l-.04.034-.028.045c-2.493 3.685-.003 6.513.022 6.54l.045.046.056.025c10.383 4.05 39.376 4.07 39.674 4.07 12.65-.086 21.32-1.175 22.534-1.336.53.552 1.58 1.258 1.63 1.292l.067.045h7.338c4.43 0 7.43-3.087 7.978-3.692h4.262l29.148-2.867c1.116 1.554 2.495 1.647 2.568 1.655l3.09-.008c3.133.124 4.562-2.34 4.916-3.075 1.747.245 3.072-.042 3.94-.85 1.158-1.077 1.068-2.686 1.048-2.916.428-6.16-.484-18.492-.585-19.814" fill="#231f20"/><path d="M127.51 48.998c-3.79 0-6.87-2.988-6.87-6.66 0-3.665 3.08-6.655 6.87-6.655s6.87 2.99 6.87 6.656c0 3.67-3.08 6.658-6.87 6.658m0-13.583c-3.94 0-7.145 3.103-7.145 6.924 0 3.822 3.204 6.928 7.145 6.928 3.94 0 7.143-3.106 7.143-6.93 0-3.82-3.204-6.923-7.143-6.923M149.947 5.656c.46-1.14 1.35-1.716 2.658-1.716.878 0 1.632.276 1.646.282l15.88 4.414c3.797 1.05 3.546 4.616 3.532 4.776l.45 9.073-27.518-5.03c.74-4.518 3.333-11.728 3.353-11.8m23.898 7.763c.003-.04.282-3.868-3.665-4.95l-15.873-4.415c-.033-.008-.787-.293-1.702-.293-.956 0-2.222.315-2.824 1.834-.024.07-2.652 7.394-3.378 11.92l-.01.087 27.915 5.102-.462-9.284zM163.42 51.685c.578.087.668.96.668.96l2.923 1.02c.24-3.213-1.006-5.283-1.006-5.283l-2.583 3.303zM162.904 54.955l.974 5.94s2.31-2.61 2.402-4.14l-2.647-2.492s-.332.63-.73.692M209.27 55.82l.517 2.86c.97-.61 1.03-1.82 1.03-1.82l-1.415-1.14c-.074.09-.133.1-.133.1" fill="#231f20"/><path d="M210.043 55.155c0 .58-.48 1.05-1.077 1.05-.594 0-1.083-.47-1.083-1.05 0-.582.49-1.05 1.083-1.05.596 0 1.077.468 1.077 1.05" fill="#e9e9e9"/><path d="M210.043 55.155c0 .493-.413.9-.925.9s-.93-.407-.93-.9c0-.495.418-.905.93-.905s.925.41.925.905" fill="#bebcbd"/><g clip-path="url(#B)" transform="matrix(2.81322 0 0 -2.81322 -35.315 1799.133)" opacity=".5"><path d="M87.216 619.923c0-.206-.17-.373-.383-.373-.21 0-.385.167-.385.373s.174.373.385.373c.213 0 .383-.167.383-.373" fill="url(#D)" mask="url(#C)"/></g><g clip-path="url(#E)" transform="matrix(2.81322 0 0 -2.81322 -35.315 1799.133)" opacity=".5"><path d="M87.216 619.923c0-.175-.147-.32-.33-.32-.18 0-.33.145-.33.32 0 .176.15.322.33.322.183 0 .33-.146.33-.322" fill="url(#G)" mask="url(#F)"/></g><path d="M164.345 53.22c0 1.137-.9 2.06-2.003 2.06-1.103 0-2-.923-2-2.06 0-1.136.897-2.06 2-2.06s2.003.924 2.003 2.06" fill="#e9e9e9"/><path d="M164.345 53.22c0 .974-.768 1.767-1.722 1.767-.95 0-1.72-.793-1.72-1.767 0-.98.77-1.764 1.72-1.764.954 0 1.722.785 1.722 1.764" fill="#bebcbd"/><g clip-path="url(#H)" transform="matrix(2.81322 0 0 -2.81322 -35.315 1799.133)" opacity=".5"><path d="M70.972 620.61c0-.403-.32-.732-.712-.732-.392 0-.71.33-.71.733 0 .405.318.733.71.733.393 0 .712-.328.712-.732" fill="url(#J)" mask="url(#I)"/></g><g clip-path="url(#K)" transform="matrix(2.81322 0 0 -2.81322 -35.315 1799.133)" opacity=".5"><path d="M70.972 620.61c0-.345-.273-.628-.61-.628-.34 0-.614.283-.614.63 0 .346.274.626.613.626.34 0 .612-.28.612-.627" fill="url(#M)" mask="url(#L)"/></g><path d="M206.77 34.173V30.73c0-1.657-.468-3.02-1.4-4.062-.908-1.033-2.213-1.697-3.892-1.98l-2.144-.366c-1.275-.214-2.332-.124-3.162.278v-1.39c0-.872-.12-1.682-.355-2.408-.247-.776-.627-1.465-1.128-2.065-.946-1.133-2.313-1.9-4.06-2.262l-2.366-.49c-1.63-.337-2.906-.092-3.792.738-.895.852-1.348 2.25-1.348 4.158v17.64c0 1.885.453 3.38 1.35 4.442.887 1.027 2.164 1.575 3.79 1.64l5.77.22c.048 1.803.517 3.75 1.384 4.717.906 1.015 2.225 1.52 3.916 1.52h2.11c1.682 0 2.996-.44 3.907-1.3.48-.443.848-1.003 1.084-1.664.223-.616.335-1.328.335-2.118v-4.923c0-1.07-.125-1.773-.412-2.3-.256-.463-.613-.877-1.054-1.22-.344-.264-.887-.62-1.652-1.094l-.01-.005-3.24-1.94c-.275-.19-.46-.325-.58-.418V30.03c0-.082.004-.136.01-.167.047-.008.134-.014.29.006l.536.072c.18.026.28.057.324.08.008.03.01.08.01.162v3.345l5.777.643z" fill="#231f20"/><path d="M199.332 50.02c-1.426-.008-2.512-.42-3.232-1.224-.72-.807-1.086-2.02-1.086-3.595v-1.465l3.83.172v1.533c0 .824.426 1.23 1.346 1.252l.608.008c.397.02.695-.076.883-.26.19-.188.285-.486.285-.894V41.5c0-.258-.036-.596-.213-.747-.18-.16-.484-.38-.898-.642l-3.258-1.968c-.73-.43-1.25-.785-1.586-1.075-.352-.306-.61-.697-.763-1.15-.154-.442-.233-1.008-.233-1.677v-5.095c0-1.48.368-2.55 1.09-3.187.724-.628 1.805-.824 3.228-.594l2.144.352c1.42.23 2.504.765 3.224 1.578.723.813 1.09 1.922 1.09 3.303v2.47l-3.825-.46v-2.294c0-.833-.413-1.283-1.31-1.407l-.538-.08c-.87-.117-1.274.22-1.274 1.067v4.035c0 .26.04.607.21.768.186.168.485.396.9.675l3.26 1.942c.72.436 1.24.78 1.543 1.013.318.25.577.545.757.877.185.34.278.926.278 1.79v4.95c0 1.36-.37 2.392-1.1 3.08-.727.677-1.822 1.02-3.248 1.014l-2.11-.017z" fill="#fff"/><path d="M195.22 43.944V45.2c0 1.53.346 2.697 1.032 3.467.68.757 1.72 1.145 3.08 1.15l2.167.015c1.34 0 2.37-.323 3.05-.96.69-.64 1.04-1.628 1.04-2.928V40.99c0-.816-.088-1.387-.25-1.696-.17-.307-.41-.58-.71-.813-.296-.227-.808-.565-1.522-.998l-3.258-1.938c-.433-.293-.75-.526-.937-.7-.177-.172-.273-.48-.273-.915v-4.035c0-1.066.628-1.29 1.157-1.29.106 0 .225.01.348.027l.538.078c.998.138 1.485.662 1.485 1.604v2.12l3.42.406v-2.245c0-1.322-.348-2.394-1.037-3.17-.697-.782-1.735-1.294-3.105-1.514l-2.15-.348c-1.35-.216-2.388-.036-3.057.546-.675.597-1.02 1.615-1.02 3.036v5.097c0 .654.072 1.19.215 1.613.147.422.383.78.712 1.066.326.286.836.63 1.556 1.052l3.258 1.97c.43.272.743.497.93.66.187.163.28.467.28.9v4.043c0 .464-.115.813-.343 1.038-.22.216-.54.323-.962.323l-.68-.02c-1.022-.022-1.543-.51-1.543-1.448v-1.34l-3.42-.154zm6.28 6.288l-2.173-.012c-1.483-.008-2.62-.447-3.376-1.29-.756-.848-1.136-2.103-1.136-3.73v-1.672l4.23.188v1.722c0 .71.345 1.03 1.152 1.052l.667.02c.306 0 .54-.074.678-.21.147-.153.223-.4.223-.755v-4.043c0-.298-.06-.523-.143-.602-.175-.152-.473-.36-.88-.622l-3.247-1.96c-.74-.442-1.27-.8-1.618-1.1-.377-.335-.653-.75-.822-1.238-.16-.462-.24-1.05-.24-1.74v-5.096c0-1.54.387-2.662 1.16-3.337.763-.66 1.91-.88 3.388-.638l2.153.347c1.46.24 2.585.788 3.345 1.65.75.85 1.136 2.008 1.136 3.428v2.695l-4.23-.503v-2.473c0-.734-.344-1.097-1.138-1.207l-.54-.082c-.104-.014-.197-.022-.29-.022-.39 0-.75.11-.75.892v4.034c0 .303.053.536.143.62.173.164.47.38.88.66l3.25 1.932c.727.44 1.253.784 1.563 1.026.337.268.613.583.807.937.203.374.304.988.304 1.885v4.954c0 1.415-.394 2.495-1.167 3.216-.757.71-1.88 1.07-3.328 1.07" fill="#fff"/><path d="M202.155 32.427v-2.09c0-.945-.5-1.497-1.5-1.637l-.537-.076c-.98-.144-1.468.275-1.468 1.25v4.033c0 .45.093.765.284.94.19.182.5.413.937.706l3.256 1.932c.72.436 1.224.768 1.522.996.298.235.53.502.697.806.17.304.25.87.25 1.69v4.96c0 2.62-1.383 3.914-4.152 3.888l-2.11-.014c-2.75-.022-4.12-1.553-4.12-4.608v-1.246l3.437.155v1.323c0 .948.515 1.437 1.54 1.465l.61.015c.902.028 1.355-.428 1.355-1.356V41.51c0-.44-.087-.744-.28-.916-.195-.166-.502-.385-.932-.664l-3.26-1.966c-.715-.425-1.236-.782-1.56-1.06-.323-.277-.554-.628-.697-1.047-.143-.417-.214-.95-.214-1.596v-5.093c0-2.836 1.37-4.034 4.122-3.593l2.143.343c2.75.448 4.12 1.998 4.12 4.654v2.27l-3.442-.413z" fill="#f14c1e"/><path d="M188.264 43.487c-1.364-.065-2.416-.504-3.11-1.317-.705-.824-1.062-2.028-1.062-3.576v-17.55c0-1.568.357-2.708 1.06-3.372.696-.652 1.742-.846 3.112-.565l2.366.47c1.5.3 2.644.92 3.404 1.83.774.915 1.16 2.134 1.16 3.633v2.917l-3.827-.596v-2.49c0-1.104-.405-1.692-1.274-1.847l-.858-.16c-.895-.158-1.31.298-1.31 1.426v15.925c0 1.13.415 1.687 1.31 1.74l2.132.144v-5.804l-1.792-.177v-3.566l5.618.69v12.552l-6.93-.31z" fill="#fff"/><path d="M187.137 17.18c-.78 0-1.398.214-1.85.638-.656.622-.988 1.71-.988 3.23v17.546c0 1.5.336 2.664 1.003 3.446.658.765 1.66 1.185 2.974 1.246l6.715.3V31.42l-5.213-.638v3.156l1.79.183v6.196l-2.35-.158c-1.005-.065-1.498-.703-1.498-1.944V22.29c0-1.25.52-1.802 1.55-1.616l.856.15c.973.173 1.443.846 1.443 2.047v2.32l3.422.53v-2.68c0-1.452-.374-2.628-1.11-3.5-.733-.883-1.84-1.474-3.293-1.767l-2.36-.475c-.392-.076-.764-.118-1.093-.118m8.26 26.824l-7.14-.318c-1.432-.065-2.53-.532-3.26-1.387-.732-.86-1.103-2.108-1.103-3.706V21.048c0-1.634.377-2.813 1.116-3.52.746-.7 1.857-.908 3.298-.62l2.36.474c1.544.313 2.73.948 3.528 1.902.796.948 1.2 2.21 1.2 3.756v3.15l-4.233-.658v-2.66c0-1.005-.34-1.517-1.108-1.652l-.86-.158c-.103-.017-.198-.025-.285-.025-.366 0-.783.14-.783 1.252v15.924c0 1.033.335 1.497 1.12 1.548l1.916.126v-5.41l-1.79-.185v-3.96l6.024.736v12.934z" fill="#fff"/><path d="M189.77 33.916V30.8l5.23.635V43.57l-6.735-.308c-2.65-.124-3.97-1.67-3.97-4.66v-17.52c0-3.035 1.32-4.284 3.97-3.755l2.366.472c2.913.582 4.37 2.315 4.37 5.21v2.7l-3.438-.537v-2.268c0-1.223-.495-1.927-1.468-2.104l-.858-.157c-1.004-.177-1.508.355-1.508 1.612v15.943c0 1.257.504 1.92 1.508 1.99l2.326.142v-6.234l-1.792-.18z" fill="#f14c1e"/><path d="M158.223 63.296c.754-.048 1.483-.175 2.186-.363.705-.2 1.372-.46 1.996-.8 1.244-.666 2.265-1.642 3.016-2.82.75-1.174 1.244-2.52 1.59-3.92.346-1.398.537-2.85.728-4.33.265 1.472.307 2.983.116 4.488-.2 1.503-.66 3.01-1.508 4.342-.428.66-.945 1.27-1.55 1.78-.608.518-1.297.935-2.026 1.23-.73.293-1.496.48-2.267.546-.768.062-1.548.036-2.282-.152M207.36 60.19c.668-.124 1.292-.377 1.85-.72.545-.35 1.023-.802 1.39-1.334.37-.526.635-1.125.82-1.755.192-.624.296-1.282.383-1.946.068.67.037 1.35-.104 2.014-.144.67-.406 1.32-.797 1.89-.4.575-.934 1.056-1.556 1.374-.613.318-1.302.5-1.986.478" fill="#393637"/><path d="M253.195 43.853l-11.087-.528c-.028-.467-.062-.912-.107-1.328-.024-.26-.047-.518-.072-.774h6.37l3.718-8.32H240.7c-.235-1.042-.44-1.883-.62-2.533l7.185.523 4.82-4.065c.398 2.47.677 4.95.823 7.404.19 3.25.29 6.22.29 8.822 0 .27-.003.535-.003.8m145.82 10.14l-6.155-9.803-11.878.302c-.067-1.79-.16-3.713-.273-5.756-.144-2.172-.352-4.73-.61-7.595-.266-2.877-.654-6.062-1.15-9.455l-.156-1.074h-1.103c-.722 0-1.682-.033-2.835-.1-1.167-.074-2.35-.158-3.533-.262-1.376-.107-2.814-.23-4.265-.366l-1.58-.15.196 1.554c.596 4.667 1.057 9.472 1.373 14.29.084 1.303.146 2.592.177 3.872-.504-1.294-1.027-2.583-1.553-3.832-.782-1.856-1.553-3.612-2.296-5.218-1.733-3.77-3.56-7.452-5.443-10.952l-.537-1.013-9.536 3.956v.83c0 1.084-.155 2.612-.465 4.545-.31 1.955-.793 4.256-1.434 6.827-.647 2.586-1.47 5.427-2.445 8.45-.034.114-.07.232-.113.353-.014-.535-.033-1.066-.056-1.598-.07-1.61-.152-3.297-.236-5.08-.087-1.78-.197-3.607-.32-5.44-.127-1.847-.28-3.718-.457-5.555-.176-1.856-.39-3.674-.637-5.393l-.177-1.244-13.397 1.868.196 1.257c.31 2.016.613 4.083.895 6.15.285 2.077.535 3.962.743 5.588l.14 1.12L319.99 21.91l-10.604 1.81.225 1.24c.17.95.338 2.087.493 3.384.152 1.29.296 2.704.42 4.192.12 1.5.236 3.06.343 4.636.022.352.045.703.064 1.055-.35-.88-.71-1.747-1.072-2.61-.78-1.857-1.552-3.613-2.292-5.22-1.736-3.77-3.568-7.45-5.444-10.95l-.543-1.014-9.535 3.956v.83c0 1.084-.155 2.615-.456 4.545-.316 1.955-.8 4.25-1.44 6.827-.555 2.214-1.236 4.622-2.04 7.177-.05-.775-.107-1.543-.18-2.305-.262-2.943-.698-5.987-1.29-9.045-.584-3.058-1.372-6.284-2.33-9.584l-.252-.853-12.544-.697-.084 1.24c-.172 2.628-.394 5.134-.653 7.45-.264 2.32-.537 4.39-.816 6.135-.114.69-.235 1.368-.353 2.03l-8.575-17.22-7.775 3.84-19.862-3.59-6.41 4.48c-.676-.462-1.38-.9-2.103-1.306l-.03-.017c-1.182-.625-2.563-1.21-4.09-1.75-1.62-.57-3.385-.86-5.248-.86-2.022 0-3.845.303-5.435.894-1.59.6-2.95 1.393-4.035 2.364-1.094.984-1.938 2.11-2.5 3.345-.572 1.234-.86 2.505-.86 3.76 0 .925.057 1.795.17 2.585.132.87.394 1.694.793 2.46.394.756.937 1.487 1.623 2.182.663.678 1.563 1.364 2.657 2.037 1.272.863 2.504 1.58 3.657 2.14 1.117.544 2.107 1.02 2.95 1.42.806.378 1.447.71 1.906.99h.006c-.008.007-.02.016-.023.024-.084.082-.3.132-.593.132-.712 0-1.53-.197-2.445-.576-1.024-.43-2.023-.923-2.97-1.458l-.018-.01c-1.116-.597-2.244-1.31-3.36-2.108l-1.093-.788-5.885 9.152.998.686c.72.5 1.586 1.06 2.57 1.66 1.025.63 2.192 1.212 3.467 1.738 1.277.532 2.655.985 4.1 1.345 1.49.37 3.085.56 4.74.56 1.78 0 3.45-.168 4.964-.5 1.58-.343 2.967-.91 4.118-1.676 1.2-.794 2.146-1.854 2.81-3.137.653-1.275.985-2.813.985-4.574 0-2.45-.743-4.575-2.203-6.3-1.4-1.648-3.49-3.052-6.197-4.163-1.807-.776-3.22-1.477-4.203-2.082-.67-.416-.91-.74-.954-.897.02-.03.06-.078.115-.137.052-.05.25-.132.67-.132.518 0 1.157.142 1.91.42.867.315 1.695.664 2.47 1.024.918.442 1.87.937 2.837 1.48l1.08.61 2.402-3.986c1.054 2.934 1.842 5.978 2.357 9.084.762 4.588 1.15 9.168 1.15 13.61v1.322l1.337-.073c1.336-.066 2.65-.156 3.902-.257 1.052-.07 2.12-.13 3.167-.186 1.053-.05 1.916-.073 2.56-.073 1.286 0 2.586.022 3.874.076 1.286.053 2.45.112 3.45.183l4.517.34.245-.962h10.782l.172-1.065c.11-.69.202-1.508.275-2.49.04-.456.07-.982.087-1.567l1.617 3.443 8.772-1.574.028-.1c-.025.35-.048.702-.076 1.056-.087 1.055-.203 2.22-.34 3.47l-.124 1.105 13.557 3.103.07-1.503c.046-.998.088-2.022.116-3.04h7.225l.34-.735c.192-.425.42-1.004.7-1.772.19-.53.387-1.114.595-1.753l4.684-.63.65 2.273c.277.97.528 1.837.747 2.552.24.824.453 1.555.628 2.18l.32 1.128 12.2-2.49-.176-.706h7.792l-.335-8.93 7.818 8.93h12.19v-.048h7.65l.345-.734c.19-.42.422-1 .7-1.772.194-.53.39-1.114.594-1.753l4.684-.63c.236.813.45 1.573.65 2.273.278.97.528 1.837.748 2.552.245.83.456 1.555.633 2.18l.314 1.128 12.2-2.49-.31-1.26-.1-.41 3.66 2.458 23.63-1.643z" fill="#504c4d"/><path d="M254.183 43.294l-11.087-.53c-.03-.466-.062-.91-.107-1.33l-.074-.77h6.372l3.72-8.313H241.69c-.24-1.046-.445-1.887-.625-2.537l7.183.523 4.82-4.067c.4 2.47.68 4.95.826 7.41.19 3.245.287 6.216.287 8.818v.796zM400 53.44l-6.155-9.805-11.875.298c-.067-1.787-.16-3.717-.273-5.756-.143-2.172-.35-4.726-.61-7.593-.268-2.884-.653-6.065-1.15-9.458l-.156-1.075h-1.1c-.724 0-1.68-.032-2.837-.1-1.168-.067-2.35-.152-3.533-.262-1.373-.104-2.814-.23-4.265-.365l-1.584-.15.2 1.553c.6 4.67 1.06 9.478 1.37 14.292.088 1.302.147 2.593.183 3.873-.512-1.293-1.026-2.578-1.558-3.833-.78-1.857-1.55-3.612-2.296-5.22-1.73-3.768-3.562-7.45-5.44-10.948l-.542-1.02-9.534 3.962v.833c0 1.083-.154 2.61-.464 4.54-.306 1.956-.79 4.26-1.432 6.828-.647 2.585-1.474 5.43-2.444 8.45-.04.116-.07.237-.113.353l-.058-1.596c-.07-1.61-.152-3.302-.236-5.083-.087-1.778-.197-3.607-.32-5.438-.125-1.85-.28-3.717-.454-5.557-.177-1.857-.39-3.674-.644-5.393l-.175-1.24-13.396 1.867.194 1.255c.31 2.014.614 4.085.898 6.153.285 2.076.532 3.958.743 5.587.05.374.094.745.142 1.116L320.98 21.35l-10.606 1.813.228 1.24c.166.95.332 2.09.49 3.382.15 1.29.294 2.7.418 4.192.12 1.507.237 3.063.34 4.636l.068 1.055c-.352-.878-.71-1.747-1.072-2.61-.782-1.858-1.55-3.61-2.29-5.22-1.735-3.77-3.567-7.452-5.446-10.95l-.543-1.017-9.534 3.962v.833c0 1.083-.155 2.61-.46 4.54-.31 1.956-.795 4.25-1.433 6.828-.56 2.217-1.24 4.625-2.04 7.177-.053-.768-.115-1.54-.183-2.305-.264-2.94-.703-5.986-1.288-9.04-.586-3.062-1.37-6.283-2.336-9.586l-.25-.853-12.542-.698-.084 1.237c-.172 2.63-.394 5.14-.653 7.452-.264 2.32-.537 4.388-.813 6.135-.118.69-.236 1.367-.352 2.025l-8.583-17.214-7.77 3.835-19.864-3.58-6.414 4.472c-.67-.46-1.377-.9-2.103-1.305l-.025-.02c-1.18-.62-2.563-1.21-4.093-1.747-1.62-.568-3.38-.855-5.25-.855-2.018 0-3.843.296-5.436.886-1.59.598-2.945 1.394-4.03 2.367-1.1.985-1.94 2.107-2.5 3.342-.573 1.24-.857 2.506-.857 3.76 0 .93.053 1.795.17 2.586.125.87.39 1.696.79 2.46.393.758.936 1.487 1.625 2.185.66.68 1.56 1.362 2.65 2.037 1.275.858 2.504 1.58 3.66 2.14 1.117.544 2.113 1.02 2.954 1.422.802.373 1.44.708 1.902.983h.003c-.005.012-.016.017-.024.026-.08.086-.296.134-.588.134-.71 0-1.53-.19-2.442-.58-1.027-.433-2.026-.917-2.974-1.454l-.017-.008c-1.117-.602-2.245-1.314-3.362-2.113l-1.094-.786-5.883 9.146.998.692c.72.5 1.584 1.058 2.574 1.663 1.023.62 2.188 1.21 3.463 1.735 1.277.53 2.652.98 4.1 1.345 1.492.37 3.087.557 4.74.557 1.78 0 3.453-.17 4.967-.498 1.578-.346 2.965-.914 4.113-1.676 1.207-.797 2.15-1.852 2.81-3.143.656-1.27.988-2.807.988-4.566 0-2.457-.742-4.578-2.205-6.305-1.398-1.65-3.488-3.052-6.192-4.164-1.81-.772-3.22-1.47-4.206-2.08-.666-.417-.906-.737-.96-.895.024-.034.066-.082.125-.14.048-.048.245-.13.667-.13.516 0 1.158.138 1.914.42.858.314 1.69.66 2.465 1.03.92.432 1.87.927 2.834 1.473l1.084.61 2.402-3.986c1.05 2.93 1.837 5.978 2.358 9.084.762 4.585 1.147 9.165 1.147 13.607v1.325l1.337-.067c1.336-.072 2.65-.157 3.896-.27 1.058-.064 2.124-.123 3.176-.176 1.05-.054 1.913-.076 2.56-.076 1.286 0 2.583.022 3.87.076 1.284.053 2.45.112 3.453.177l4.515.347.245-.968h10.786l.168-1.06c.114-.696.204-1.518.277-2.494.04-.453.07-.976.087-1.564l1.618 3.44 8.77-1.575.024-.098c-.02.347-.04.696-.07 1.056-.087 1.055-.203 2.214-.34 3.463l-.13 1.11 13.56 3.1.07-1.5c.05-1 .087-2.02.118-3.043h7.224l.338-.737c.194-.416.425-1 .7-1.775.192-.526.392-1.108.594-1.738l4.684-.64.653 2.27c.275.98.53 1.84.745 2.556.242.824.453 1.558.63 2.183l.318 1.128 12.204-2.487-.174-.706h7.79l-.335-8.934 7.818 8.935h12.19v-.053h7.65l.34-.737c.196-.416.426-.993.702-1.775.197-.526.394-1.108.6-1.738l4.683-.64c.228.817.45 1.574.65 2.27.276.98.526 1.84.746 2.553.24.83.455 1.56.633 2.186l.312 1.128 12.203-2.487-.31-1.26c-.034-.14-.067-.273-.1-.417l3.653 2.462L400 53.44z" fill="#f68712"/><path d="M354.726 42.08c.177-.627.335-1.227.475-1.778l.373-1.466c.14-.492.26-.942.374-1.364.278.664.563 1.333.847 2.02.278.675.562 1.387.847 2.115l-2.914.473zm-55.81 0c.176-.627.333-1.227.477-1.778.143-.56.26-1.046.37-1.466.142-.492.266-.942.367-1.364.287.664.57 1.333.852 2.02.282.675.566 1.387.844 2.115l-2.91.473zm98.9 10.254l-4.667-7.43-12.405.316c-.067-2.127-.174-4.448-.317-6.96-.14-2.167-.344-4.687-.605-7.56-.27-2.88-.65-6.014-1.142-9.396-.745 0-1.713-.033-2.914-.1-1.204-.07-2.388-.16-3.553-.268-1.376-.1-2.805-.225-4.293-.363.602 4.706 1.063 9.495 1.378 14.364.248 3.812.29 7.475.127 10.977-.53-1.58-1.08-3.14-1.66-4.67-.745-1.958-1.505-3.854-2.28-5.705-.778-1.846-1.537-3.576-2.28-5.183-1.73-3.764-3.533-7.396-5.404-10.88l-7.688 3.186c0 1.156-.157 2.73-.472 4.74-.324 2.003-.808 4.313-1.46 6.932-.66 2.614-1.477 5.46-2.465 8.533-.726 2.236-1.53 4.51-2.416 6.825-.052-2.766-.128-5.57-.238-8.398-.067-1.6-.15-3.297-.233-5.075-.088-1.78-.2-3.587-.325-5.42-.12-1.83-.27-3.67-.447-5.52-.18-1.846-.39-3.627-.636-5.334l-10.867 1.516c.318 2.056.62 4.118.9 6.175.287 2.06.532 3.924.746 5.598.248 1.958.48 3.857.687 5.703l-12.454-16.22-8.586 1.464c.177.98.346 2.133.504 3.455.158 1.325.3 2.74.425 4.237.12 1.502.237 3.052.344 4.66.105 1.602.193 3.16.266 4.657.073 1.523.14 3.073.205 4.648-.522-1.555-1.062-3.086-1.636-4.594-.743-1.958-1.505-3.854-2.282-5.705-.773-1.846-1.536-3.576-2.278-5.183-1.73-3.764-3.534-7.396-5.405-10.88l-7.683 3.186c0 1.156-.164 2.73-.48 4.74-.317 2.003-.806 4.313-1.46 6.932-.65 2.614-1.473 5.46-2.466 8.533-.562 1.755-1.183 3.54-1.853 5.34.006-.158.006-.322.006-.482 0-2.89-.135-5.792-.402-8.71-.258-2.91-.686-5.882-1.27-8.918-.58-3.038-1.348-6.19-2.305-9.47l-10.39-.576c-.173 2.648-.396 5.15-.66 7.506-.262 2.352-.54 4.423-.82 6.2-.356 2.094-.71 4.012-1.062 5.756l-9.7-19.462-7.123 3.514.073-.065-19.718-3.554-6.718 4.69c-.847-.637-1.752-1.222-2.712-1.762-1.133-.59-2.44-1.148-3.924-1.67-1.482-.527-3.09-.79-4.82-.79-1.875 0-3.534.27-4.983.81-1.446.542-2.656 1.25-3.632 2.12-.97.875-1.705 1.854-2.203 2.93-.492 1.084-.74 2.165-.74 3.248 0 .87.057 1.67.16 2.408.11.73.324 1.418.665 2.068.334.64.8 1.27 1.406 1.882.597.607 1.41 1.232 2.44 1.856 1.23.836 2.404 1.522 3.52 2.068 1.113.54 2.092 1.013 2.944 1.412.844.4 1.513.75 2.01 1.047.497.298.747.622.747.968 0 .316-.175.648-.506.996-.335.35-.842.52-1.51.52-.885 0-1.866-.22-2.94-.677-1.08-.457-2.114-.96-3.1-1.52-1.166-.628-2.333-1.36-3.504-2.195l-4.5 7.008c.705.493 1.547 1.035 2.517 1.626.972.587 2.066 1.14 3.287 1.645 1.22.506 2.523.934 3.916 1.283 1.4.35 2.878.523 4.428.523 1.697 0 3.26-.16 4.693-.472 1.43-.31 2.66-.81 3.686-1.493 1.023-.678 1.82-1.565 2.38-2.665.57-1.097.85-2.436.85-4 0-2.163-.632-4-1.906-5.497-1.277-1.502-3.182-2.774-5.725-3.82-1.878-.8-3.332-1.528-4.373-2.172-1.04-.643-1.567-1.316-1.567-2.013 0-.315.172-.64.506-.97.335-.33.856-.496 1.562-.496.672 0 1.46.167 2.357.496.903.332 1.76.692 2.574 1.072.953.458 1.92.96 2.914 1.522l3.106-5.148c1.558 3.75 2.683 7.666 3.36 11.736.778 4.68 1.166 9.28 1.166 13.816 1.342-.065 2.63-.155 3.868-.26 1.06-.07 2.127-.13 3.207-.182 1.082-.053 1.95-.078 2.626-.078 1.308 0 2.614.025 3.922.078 1.308.05 2.473.113 3.497.18l3.446.262 1.962-7.745-13.15-.628c-.03-.87-.08-1.674-.154-2.408-.073-.732-.14-1.443-.214-2.144h6.943l2.602-5.81h-10.396c-.385-1.774-.706-3.085-.95-3.92-.144-.49-.28-.91-.425-1.258l8.534.627 6.116-5.163c.625 3.238 1.027 6.476 1.224 9.714.194 3.28.29 6.246.29 8.896 0 3.106-.107 6.088-.316 8.95h8.848c.107-.66.194-1.464.27-2.41.068-.8.1-1.828.1-3.088 0-1.252-.086-2.77-.263-4.55l3.868 8.22 6.998-1.26 1.91-7.586c.14 1.255.253 2.416.346 3.477.084 1.068.13 2.1.13 3.113 0 1.01-.046 2.06-.13 3.145-.093 1.08-.206 2.245-.346 3.503l10.97 2.51c.066-1.42.117-2.833.156-4.24h7.635c.174-.382.396-.94.66-1.673.267-.732.54-1.55.822-2.46l6.577-.885.947 3.322c.284.99.532 1.835.746 2.535.244.84.46 1.57.635 2.2l9.754-1.987c-.082-.335-.17-.667-.253-1h8.095l-.425-11.195 9.804 11.196h10.333v-.053h8.11c.178-.382.4-.94.665-1.673.267-.732.537-1.55.818-2.46l6.578-.885c.35 1.22.666 2.326.953 3.322.283.99.53 1.835.74 2.535.25.84.46 1.57.637 2.2l9.75-1.987c-.295-1.213-.62-2.425-.973-3.646l6.116 4.113 21.096-1.466z" fill="#231f20"/></svg>