<svg xmlns="http://www.w3.org/2000/svg" width="380" height="633.503"><path d="M20.763 555.402c0-4.776-1.28-7.17-2.998-7.17v-.692h15.84v.69c-1.72 0-2.94 2.396-2.94 7.172v47.152c0 4.835 1.22 7.23 2.94 7.23v.705h-18.78C6.643 610.49 0 605.566 0 597.513v-72.426c0-8.067 8.33-13.004 15.37-13.004h14.547v15.53h-1.822c-2.13-5.803-6.76-11.974-12.725-11.974-3.233 0-5.202 3.218-5.202 6.51v78.347c0 3.19 1.97 6.466 5.202 6.466h5.393v-51.56zM64.536 543.032v15.356h-8.082v-16.53c0-1.662-1.72-3.66-4.496-3.66v64.36c0 4.82 1.278 7.23 2.968 7.23v.69H39.923v-.69c1.705 0 2.983-2.41 2.983-7.23v-59.526c0-4.834-1.278-7.23-2.983-7.23v-.675H55.75c4.804 0 8.786 3.497 8.786 7.905M102.454 602.56c0 4.82 1.293 7.23 2.997 7.23v.69H85.94c-5.35 0-10.55-4.246-10.55-9.61v-57.835c0-4.834-1.28-7.23-2.984-7.23v-.675H84.41v66.446c0 3.57 2.688 5.393 6.215 5.393h2.85v-63.935c0-4.834-1.322-7.23-2.982-7.23v-.675h11.96v67.43zM123.8 606.966h3.276c2.91 0 5.598-2.69 5.598-5.643V544.31c0-2.982-2.69-5.686-5.598-5.686H123.8v68.342zm-12.02 26.537v-.705c1.704 0 2.983-2.396 2.983-7.186v-82.58c0-4.834-1.28-7.23-2.983-7.23v-.675h18.808c7.2 0 11.006 5.07 11.006 9.727v55.88c0 6.232-5.364 9.744-11.006 9.744h-6.79v15.134c0 4.79 1.265 7.186 2.97 7.186v.705H111.78zM165.283 537.53c-2.806 0-4.496 2.394-4.496 5.51v59.525c0 3.144 1.69 5.51 4.496 5.51 2.836 0 4.555-2.366 4.555-5.51V543.04c0-3.116-1.72-5.51-4.555-5.51m-14.253 8.155c0-6.657 6.348-12.005 14.253-12.005 7.92 0 14.253 5.348 14.253 12.005v54.235c0 6.642-6.333 11.96-14.253 11.96-7.905 0-14.253-5.318-14.253-11.96v-54.235z" fill="#ef991b"/><path d="M211.194 555.402c0-4.776-1.278-7.17-2.982-7.17v-.692h15.825v.69c-1.69 0-2.983 2.396-2.983 7.172v47.152c0 4.835 1.293 7.23 2.983 7.23v.705h-18.78c-8.213 0-14.84-4.923-14.84-12.976v-72.426c0-8.067 8.317-13.004 15.4-13.004h14.502v15.53h-1.793c-2.1-5.803-6.774-11.974-12.71-11.974-3.263 0-5.26 3.218-5.26 6.51v78.347c0 3.19 1.997 6.466 5.26 6.466h5.377v-51.56zM242.247 602.56c0 4.82 1.25 7.23 2.97 7.23v.69h-14.842v-.69c1.704 0 2.968-2.41 2.968-7.23v-82.565c0-4.805-1.264-7.2-2.968-7.2v-.72h11.872v90.485zM267.367 537.53c-2.822 0-4.526 2.394-4.526 5.51v59.525c0 3.144 1.705 5.51 4.527 5.51 2.82 0 4.51-2.366 4.51-5.51V543.04c0-3.116-1.69-5.51-4.51-5.51m-14.254 8.155c0-6.657 6.334-12.005 14.254-12.005 7.905 0 14.253 5.348 14.253 12.005v54.235c0 6.642-6.348 11.96-14.253 11.96-7.92 0-14.254-5.318-14.254-11.96v-54.235zM304.76 606.966c2.984 0 5.63-2.69 5.63-5.643V544.31c0-2.982-2.646-5.686-5.63-5.686h-3.23v68.342h3.23zm-3.23-71.84h6.787c5.628 0 10.99 3.498 10.99 9.728v55.88c0 4.66-3.82 9.744-10.99 9.744H289.51v-.69c1.703 0 2.952-2.41 2.952-7.23v-82.55c0-4.82-1.25-7.216-2.953-7.216v-.72h12.02v23.055zM337.922 572.67v30.198c0 2.835 2.704 4.672 5.672 4.672h3.248v-46.344c-5.393 2.41-8.743 6.377-8.92 11.475m8.92-30.092c0-2.953-1.573-5.48-4.232-5.48-2.72 0-4.1 2.527-4.1 5.48v9.2h-9.066v-8.333c0-6.524 6.833-9.624 13.166-9.624s13.254 3.1 13.254 9.625v59.114c0 4.82 1.278 7.228 2.968 7.228v.69h-21.85c-4.687 0-8.243-4.51-8.243-9.315V573.92c0-9.036 10.196-14.356 18.102-17.236v-14.106zM377.076 602.56c0 4.82 1.234 7.23 2.924 7.23v.69h-14.812v-.69c1.705 0 2.97-2.41 2.97-7.23v-82.565c0-4.805-1.265-7.2-2.97-7.2v-.72h11.888v90.485zM136.972 219.586c0-24.318-6.436-36.514-15.046-36.514v-3.527h61.523v318.962h-76.527c-41.466 0-75.1-25.024-75.1-65.785V65.814C31.823 25.024 73.993 0 109.773 0h73.676v78.686h-9.272c-10.756-29.344-34.355-60.803-64.404-60.803-16.457 0-26.464 16.457-26.464 32.914v396.927c0 16.443 10.007 32.93 26.464 32.93h27.198V219.586z" fill="#424e58"/><path d="M243.618 480.654h27.14c16.486 0 26.508-16.502 26.508-32.93V50.797c0-16.457-10.022-32.914-26.508-32.914-30.005 0-53.604 31.445-64.33 60.803h-9.33V0h73.66c35.81 0 77.966 25.024 77.966 65.814v366.908c0 40.76-33.59 65.785-75.1 65.785h-76.527V179.545h61.538v3.527c-8.566 0-15.017 12.196-15.017 36.514v261.068z" fill="#ef991b"/></svg>