<svg xmlns="http://www.w3.org/2000/svg" width="430" height="196.296"><path d="M68.317 46.458c3.348 0 6.052-2.713 6.052-6.06 0-3.34-2.705-6.054-6.053-6.054-3.358 0-6.062 2.714-6.062 6.053 0 3.348 2.704 6.06 6.062 6.06m-6.14-7.207c0-2.34 1.887-4.22 4.216-4.22 2.316 0 4.203 1.88 4.203 4.22 0 2.316-1.887 4.193-4.203 4.193-2.33 0-4.216-1.877-4.216-4.193" fill="#231a05"/><path d="M69.388 44.692c2.375-.594 3.81-2.997 3.206-5.377-.593-2.37-3-3.814-5.362-3.22-2.38.598-3.824 3.01-3.22 5.38.593 2.372 2.996 3.82 5.376 3.217M91.322 0l18.665 22.92s-11.758 7.273-33.25 28.83L61.28 48.61l-3.056-14.95S69.538 14.59 91.322 0M184.313 111.285c1.142 13.854 8.747 15.6 8.747 15.6 17.344 5.252 36.11-4.683 36.11-4.683-13.53 3.42-27.842-.393-27.842-.393-11.694-4.806-5.765-30.692-5.765-30.692-1.082-3.21-5.714-4.64-5.714-4.64-32.415 42.398-35.75 42.15-35.75 42.15-6.883-19.115-13.173-64.82-13.173-64.82-3.66 1.552-8.637 9.153-8.637 9.153s.72 9.662 2.484 19.665c0 0-17.325 35.127-18.956 66.864 0 0 5.267-27.403 22.825-47.716 0 0 3.024 17.42 9.602 26.936 0 0 17.924-8.775 36.177-37.356 0 0-.543 4.64-.11 9.93M58.254 154.768c-4.564 0-25.005-.288-38.65-10.068 0 0-11.89-8.336-14.424-25.954 0 0 14.562 16.26 53 16.746v-6.13c-6.737.013-14.388-.43-22.25-2.778 0 0-20.303-4.207-31.088-15.005 0 0-.708-12.914 6.888-26.887 0 0 12.47 17.874 46.45 17.55v-6.02c-6.91.214-14.502-1.577-14.502-1.577s-27.197-5.71-26.553-17.6c0 0 5.207-8.263 13.845-13.237 0 0-2.42 5.964 14.576 10.747 0 0 5.262 1.658 12.635 1.927m.087-2.68c-18.87-.545-20.824-8.762-20.824-8.762-.86-6.404 11.42-8.802 11.42-8.802-21.04 2.667-33.976 17.814-33.976 17.814C-.407 90.576 0 111.47 0 111.47c.68 29.498 19.025 43.43 19.025 43.43 10.424 9.556 22.757 12.827 22.757 12.827-14.064-8.19-18.413-15.26-18.413-15.26 13.154 5.247 24.42 6.403 34.81 6.503" fill="#f4a131"/><path d="M58.21 76.484c7.36-.27 12.612-1.927 12.612-1.927 17-4.783 14.598-10.748 14.598-10.748 8.63 4.973 13.832 13.236 13.832 13.236.64 11.89-26.562 17.6-26.562 17.6s-7.587 1.79-14.48 1.576v6.02c33.952.325 46.446-17.55 46.446-17.55 7.596 13.974 6.87 26.887 6.87 26.887-10.785 10.797-31.075 15.004-31.075 15.004-7.865 2.348-15.526 2.79-22.24 2.778v6.13c38.424-.485 52.987-16.746 52.987-16.746-2.53 17.618-14.416 25.954-14.416 25.954-13.657 9.78-34.098 10.068-38.666 10.068m.096 4.202c10.37-.1 21.642-1.256 34.802-6.504 0 0-4.362 7.07-18.427 15.26 0 0 12.343-3.27 22.77-12.826 0 0 18.336-13.932 19.022-43.43 0 0 .415-20.894-14.882-37.416 0 0-12.946-15.147-33.99-17.814 0 0 12.292 2.398 11.424 8.802 0 0-.407 7.847-20.697 8.76M54.708 60.052s-63.776 44.89-4.362 107.057c0 0-45.277-57.77 4.362-107.058" fill="#f4a131"/><path d="M63.656 60.052s63.776 44.89 4.367 107.057c0 0 45.272-57.77-4.367-107.058M58.238 59.89s-7.578 53.12 0 107.723c0 0 7.363-47.976 0-107.723" fill="#f4a131"/><path d="M91.474.002l18.673 22.917s-11.762 7.27-33.25 28.83L61.45 48.614C67.105 47.12 76.318 49.9 76.318 49.9c6.09-9.363 27.992-27.237 27.992-27.237s-11-15.27-12.836-22.66" fill="#231a05"/><path d="M70.147 41.747c-5.595 5.69-6.408 14.84-6.408 14.84-1.883 1.243-4.87 1.558-4.87 1.558 1.493-11.643 4.75-15.777 7.404-17.143l3.873.745z" fill="#f4a131"/><path d="M59.336 55.076c-6.733-14.955-19.65-10.588-19.65-10.588 4.813 10.802 19.65 10.588 19.65 10.588M34.67 44.52s19.043-10.424 27.448 12.904c0 0-20.336 6.8-27.45-12.904" fill="#f4a131"/><path d="M217.328 99.045c0-3.174-.44-5.49-1.348-6.934-.89-1.424-2.306-2.155-4.26-2.155-2.01 0-3.514.73-4.464 2.18-.946 1.443-1.425 3.676-1.425 6.732v13.352h-4.476V86.085h4.166v3.08c.882-1.157 1.868-2.024 2.95-2.6 1.11-.562 2.35-.854 3.77-.854 1.872 0 3.444.36 4.704 1.078 1.266.735 2.302 1.868 3.102 3.407.808-1.516 1.873-2.64 3.21-3.375 1.326-.74 2.947-1.11 4.87-1.11 2.95 0 5.304.96 7.08 2.878 1.782 1.918 2.664 4.476 2.664 7.678v15.95h-4.728V97.01c0-2.23-.49-3.96-1.462-5.203-.982-1.215-2.33-1.85-4.074-1.85-2.03 0-3.486.658-4.38 1.97-.878 1.31-1.33 3.544-1.33 6.66v13.634h-4.568V99.044zM265.22 112.22h-4.512v-2.913c-.95 1.188-1.978 2.074-3.147 2.654-1.16.567-2.457.864-3.89.864-3.28 0-5.83-1.032-7.62-3.08-1.81-2.04-2.695-4.9-2.695-8.618V86.09h4.673v13.688c0 2.823.493 4.943 1.498 6.345.982 1.416 2.466 2.115 4.467 2.115 1.233 0 2.32-.288 3.29-.86.967-.583 1.73-1.4 2.306-2.488.328-.672.597-1.457.74-2.37.15-.924.223-2.408.223-4.454V86.09h4.668v26.13zM296.78 112.22V77.64h-4.676v11.64c-1.275-1.285-2.663-2.248-4.16-2.88-1.518-.643-3.162-.958-4.926-.958-1.99 0-3.782.333-5.335.987-1.562.644-2.996 1.676-4.307 3.046-1.197 1.252-2.13 2.7-2.777 4.344-.655 1.65-.974 3.39-.974 5.22 0 3.953 1.3 7.232 3.896 9.86 2.585 2.607 5.847 3.927 9.78 3.927 1.672 0 3.266-.333 4.727-.964 1.484-.648 2.822-1.576 4.037-2.823v3.184h4.714zM277.1 92.63c1.748-1.75 3.85-2.613 6.325-2.613 2.416 0 4.49.91 6.23 2.736 1.764 1.818 2.632 4.03 2.632 6.596 0 2.406-.877 4.512-2.654 6.298-1.75 1.8-3.792 2.704-6.117 2.704-2.52 0-4.668-.9-6.417-2.69-1.75-1.768-2.623-3.997-2.623-6.642 0-2.52.872-4.645 2.622-6.39M328.094 112.22V86.09h-4.74v3.187c-1.23-1.288-2.596-2.252-4.112-2.887-1.498-.635-3.13-.95-4.93-.95-1.995 0-3.767.333-5.33.987-1.553.644-2.982 1.676-4.307 3.046-1.188 1.252-2.115 2.7-2.763 4.344-.65 1.65-.973 3.39-.973 5.22 0 3.953 1.296 7.232 3.88 9.86 2.61 2.607 5.857 3.927 9.786 3.927 1.68 0 3.252-.333 4.736-.964 1.48-.648 2.814-1.576 4.01-2.823v3.184h4.742zm-19.7-19.59c1.767-1.75 3.873-2.613 6.34-2.613 2.402 0 4.48.91 6.24 2.736 1.762 1.818 2.62 4.03 2.62 6.596 0 2.406-.876 4.512-2.653 6.298-1.748 1.8-3.804 2.704-6.106 2.704-2.554 0-4.673-.9-6.44-2.69-1.755-1.768-2.632-3.997-2.632-6.642 0-2.52.877-4.645 2.63-6.39M338.268 112.22h-4.682V86.09h4.49v3.004c.982-1.17 2.065-2.028 3.248-2.57 1.183-.536 2.53-.81 4.05-.81 3.423 0 6.054.996 7.89 3.015C355.1 90.742 356 93.606 356 97.37v14.85h-4.718V98.386c0-2.768-.52-4.823-1.544-6.153-1.033-1.333-2.627-2.005-4.787-2.005-2.352 0-4.042.777-5.106 2.362-1.05 1.584-1.576 4.17-1.576 7.787v11.844zM377.205 112.22h-18.02v-3.8l12.607-18.083h-11.1V86.09h15.8v4.822l-11.766 16.915h12.48v4.394zM406.895 112.22V86.09h-4.727v3.187c-1.234-1.288-2.61-2.252-4.116-2.887-1.494-.635-3.143-.95-4.938-.95-1.99 0-3.764.333-5.326.987-1.544.644-2.992 1.676-4.298 3.046-1.215 1.252-2.133 2.7-2.777 4.344-.654 1.65-.97 3.39-.97 5.22 0 3.953 1.29 7.232 3.884 9.86 2.594 2.607 5.86 3.927 9.78 3.927 1.67 0 3.256-.333 4.727-.964 1.49-.648 2.823-1.576 4.034-2.823v3.184h4.727zm-19.7-19.59c1.75-1.75 3.868-2.613 6.344-2.613 2.402 0 4.485.91 6.225 2.736 1.76 1.818 2.63 4.03 2.63 6.596 0 2.406-.87 4.512-2.648 6.298-1.76 1.8-3.805 2.704-6.126 2.704-2.525 0-4.676-.9-6.426-2.69-1.74-1.768-2.622-3.997-2.622-6.642 0-2.52.882-4.645 2.622-6.39M410.566 103.785h4.404c0 1.384.388 2.526 1.15 3.43.763.905 1.727 1.357 2.897 1.357 1.09 0 1.978-.35 2.7-1.023.694-.677 1.045-1.54 1.045-2.59 0-.92-.246-1.69-.75-2.33-.506-.653-1.296-1.183-2.402-1.636-.388-.146-.922-.36-1.607-.612-1.86-.685-3.033-1.247-3.536-1.658-.936-.744-1.626-1.585-2.055-2.53-.44-.94-.667-2.024-.667-3.266 0-2.12.74-3.933 2.22-5.413 1.47-1.5 3.28-2.234 5.412-2.234 2.243 0 4.01.654 5.317 1.96 1.307 1.307 2.024 3.148 2.16 5.514h-4.517c-.082-.968-.397-1.722-.95-2.243-.56-.556-1.3-.816-2.23-.816-.84 0-1.543.287-2.105.863-.56.58-.85 1.297-.85 2.156 0 1.457 1.27 2.63 3.81 3.577.713.27 1.257.484 1.668.63 2.014.808 3.435 1.818 4.275 3.015.85 1.206 1.284 2.81 1.284 4.823 0 2.353-.8 4.285-2.38 5.83-1.59 1.56-3.59 2.333-6 2.333-2.406 0-4.36-.817-5.845-2.452-1.5-1.63-2.307-3.855-2.45-6.683M217.328 144.926c0-3.184-.44-5.496-1.348-6.94-.89-1.447-2.306-2.164-4.26-2.164-2.01 0-3.514.726-4.464 2.188-.946 1.43-1.425 3.672-1.425 6.72v13.355h-4.476v-26.123h4.166v3.08c.882-1.166 1.868-2.025 2.95-2.6 1.11-.58 2.35-.864 3.77-.864 1.872 0 3.444.37 4.704 1.083 1.266.732 2.302 1.865 3.102 3.404.808-1.503 1.873-2.636 3.21-3.37 1.326-.74 2.947-1.116 4.87-1.116 2.95 0 5.304.964 7.08 2.864 1.782 1.933 2.664 4.49 2.664 7.706v15.938h-4.728v-15.198c0-2.247-.49-3.983-1.462-5.216-.982-1.23-2.33-1.85-4.074-1.85-2.03 0-3.486.662-4.38 1.978-.878 1.306-1.33 3.517-1.33 6.646v13.64h-4.568v-13.16zM265.22 158.086h-4.512v-2.91c-.95 1.183-1.978 2.065-3.147 2.645-1.16.577-2.457.864-3.89.864-3.28 0-5.83-1.014-7.62-3.07-1.81-2.032-2.695-4.914-2.695-8.614v-15.037h4.673v13.69c0 2.813.493 4.942 1.498 6.34.982 1.42 2.466 2.12 4.467 2.12 1.233 0 2.32-.303 3.29-.87.967-.58 1.73-1.406 2.306-2.484.328-.672.597-1.45.74-2.385.15-.91.223-2.39.223-4.44v-11.972h4.668v26.123zM275.64 158.086h-4.668v-26.123h4.48v3.005c1.002-1.17 2.08-2.033 3.267-2.567 1.173-.547 2.507-.82 4.046-.82 3.417 0 6.053 1 7.88 3.01 1.827 2.018 2.745 4.887 2.745 8.64v14.856h-4.727V144.25c0-2.777-.516-4.82-1.553-6.153-1.027-1.338-2.622-2-4.773-2-2.348 0-4.052.785-5.107 2.356-1.06 1.58-1.59 4.166-1.59 7.78v11.853zM324.702 158.086v-34.58h-4.682v11.63c-1.26-1.278-2.663-2.237-4.17-2.872-1.503-.64-3.162-.96-4.91-.96-2.002 0-3.78.334-5.336.997-1.563.65-3.006 1.668-4.308 3.047-1.2 1.247-2.133 2.7-2.79 4.344-.65 1.64-.97 3.386-.97 5.222 0 3.938 1.29 7.222 3.893 9.844 2.593 2.613 5.855 3.928 9.783 3.928 1.686 0 3.243-.324 4.74-.96 1.486-.638 2.815-1.58 4.012-2.826v3.188h4.737zM305.01 138.49c1.74-1.736 3.846-2.604 6.33-2.604 2.417 0 4.487.914 6.236 2.736 1.763 1.828 2.64 4.025 2.64 6.596 0 2.412-.895 4.51-2.658 6.304-1.754 1.795-3.8 2.7-6.13 2.7-2.535 0-4.678-.896-6.418-2.7-1.754-1.777-2.63-3.988-2.63-6.642 0-2.512.876-4.645 2.63-6.39M330.195 131.962h4.682v26.123h-4.682v-26.123zm4.678-3.07h-4.682v-5.38h4.683v5.38zM366.26 158.086v-26.123h-4.73v3.174c-1.24-1.28-2.607-2.238-4.105-2.873-1.503-.64-3.152-.96-4.933-.96-1.997 0-3.773.334-5.33.997-1.554.65-2.998 1.668-4.31 3.047-1.2 1.247-2.127 2.7-2.77 4.344-.654 1.64-.98 3.386-.98 5.222 0 3.938 1.303 7.222 3.893 9.844 2.6 2.613 5.85 3.928 9.784 3.928 1.657 0 3.238-.324 4.727-.96 1.475-.638 2.823-1.58 4.024-2.826v3.188h4.73zm-19.693-19.596c1.745-1.736 3.846-2.604 6.33-2.604 2.413 0 4.505.914 6.24 2.736 1.746 1.828 2.623 4.025 2.623 6.596 0 2.412-.877 4.51-2.64 6.304-1.773 1.795-3.81 2.7-6.12 2.7-2.532 0-4.688-.896-6.433-2.7-1.75-1.777-2.63-3.988-2.63-6.642 0-2.512.88-4.645 2.63-6.39M371.758 123.507h4.682v34.578h-4.682v-34.578zM407.44 146.8v-.74c0-1.823-.19-3.44-.543-4.86-.37-1.426-.918-2.714-1.68-3.91-1.294-1.928-2.915-3.413-4.88-4.477-1.968-1.064-4.102-1.617-6.404-1.617-1.923 0-3.713.365-5.335 1.083-1.65.734-3.102 1.803-4.4 3.21-1.223 1.32-2.137 2.79-2.762 4.37-.617 1.605-.928 3.327-.928 5.163 0 1.772.33 3.513 1.033 5.207.68 1.71 1.636 3.19 2.865 4.477 1.302 1.37 2.736 2.38 4.34 3.065 1.598.676 3.37 1.01 5.302 1.01 2.86 0 5.38-.76 7.533-2.29 2.174-1.54 3.864-3.736 5.056-6.632h-5.27c-.755 1.352-1.778 2.403-3.06 3.143-1.276.735-2.696 1.11-4.24 1.11-2.175 0-4.06-.672-5.642-2.024-1.58-1.357-2.562-3.107-2.964-5.29h21.98zm-21.834-4.262c.57-2.092 1.603-3.732 3.11-4.947 1.517-1.21 3.3-1.817 5.363-1.817 1.996 0 3.73.598 5.166 1.768 1.443 1.188 2.457 2.856 3.042 4.998h-16.682zM409.736 149.65h4.4c0 1.383.39 2.525 1.177 3.434.754.9 1.713 1.347 2.87 1.347 1.1 0 1.99-.346 2.694-1.013.703-.676 1.064-1.535 1.064-2.585 0-.918-.26-1.704-.748-2.334-.507-.64-1.307-1.17-2.426-1.617-.36-.168-.918-.365-1.598-.634-1.846-.685-3.033-1.238-3.527-1.645-.935-.752-1.625-1.588-2.073-2.548-.438-.94-.644-2.02-.644-3.243 0-2.134.73-3.934 2.21-5.423 1.477-1.493 3.28-2.23 5.423-2.23 2.225 0 3.983.645 5.308 1.952 1.325 1.305 2.037 3.146 2.156 5.512h-4.518c-.068-.964-.388-1.722-.95-2.252-.548-.548-1.292-.818-2.233-.818-.846 0-1.54.288-2.093.868-.558.58-.85 1.302-.85 2.147 0 1.466 1.27 2.65 3.8 3.595.718.26 1.284.47 1.686.63 2 .818 3.408 1.81 4.257 3.02.864 1.192 1.284 2.795 1.284 4.814 0 2.34-.79 4.285-2.376 5.833-1.58 1.566-3.567 2.32-5.98 2.32-2.424 0-4.39-.8-5.868-2.44-1.49-1.626-2.307-3.85-2.444-6.69M209.254 62.06h12.27c-.143 3.075-1.143 5.57-3.01 7.474-1.865 1.91-4.235 2.864-7.095 2.864-1.49 0-2.87-.288-4.107-.86-1.27-.574-2.4-1.41-3.394-2.534-.842-.927-1.49-1.982-1.924-3.17-.425-1.18-.644-2.448-.644-3.81 0-1.38.27-2.672.8-3.914.51-1.247 1.292-2.366 2.32-3.358.95-.954 2.023-1.653 3.206-2.133 1.192-.48 2.512-.713 3.96-.713 2.006 0 3.773.466 5.276 1.393 1.508.932 2.645 2.265 3.43 3.983h-3.558c-.653-.84-1.434-1.485-2.334-1.887-.923-.433-1.932-.648-3.05-.648-.938 0-1.842.187-2.673.54-.856.34-1.59.853-2.253 1.53-.686.703-1.21 1.497-1.6 2.42-.374.927-.566 1.864-.566 2.823 0 1.038.17 2.006.518 2.933.338.905.83 1.704 1.49 2.38.68.704 1.47 1.247 2.356 1.63.886.398 1.795.6 2.727.6 1.5 0 2.837-.407 3.993-1.216 1.147-.804 2.106-2.005 2.84-3.58h-8.98V62.06zM226.958 62.924l6.532 9.095h3.568l-5.577-7.534c1.636-.082 2.97-.657 4.02-1.74 1.046-1.073 1.558-2.416 1.558-4.03 0-2.068-.603-3.644-1.855-4.75-1.26-1.09-3.046-1.63-5.426-1.63h-5.67V72.02h2.85v-9.096zm0-7.952h2.134c1.808 0 3.138.292 3.983.89.822.617 1.25 1.553 1.25 2.828 0 1.32-.497 2.297-1.465 2.95-.95.645-2.448.965-4.435.965h-1.467v-7.633zM239.56 52.278h2.855v12.548c0 1.786.26 3.037.804 3.718.525.713 1.43 1.06 2.722 1.06 1.23 0 2.083-.366 2.6-1.074.506-.712.766-1.955.766-3.704V52.278h2.823v12.52c0 1.343-.058 2.362-.204 3.075-.15.72-.393 1.324-.736 1.86-.598.9-1.32 1.56-2.183 2-.854.442-1.855.666-3.01.666-1.27 0-2.335-.22-3.207-.65-.86-.424-1.608-1.077-2.243-1.995-.356-.526-.607-1.11-.758-1.76-.147-.643-.23-1.72-.23-3.197v-12.52zM258.31 64.065h2.248c2.12 0 3.79-.562 5.034-1.635 1.238-1.087 1.85-2.544 1.85-4.385 0-1.037-.242-2-.74-2.887-.48-.895-1.133-1.562-1.946-2.05-.512-.293-1.11-.503-1.772-.645-.663-.123-1.66-.187-2.956-.187h-4.59v19.746h2.873v-7.957zm0-9.15h2.152c1.38 0 2.403.284 3.065.814.69.552 1.023 1.36 1.023 2.48 0 1.114-.333 1.913-1.005 2.44-.648.524-1.722.77-3.193.77h-2.04v-6.504zM269.435 65.836c.452 1.183 1.1 2.243 1.923 3.17 1.014 1.124 2.12 1.96 3.384 2.53 1.247.576 2.618.864 4.09.864 1.474 0 2.84-.283 4.096-.84 1.28-.563 2.407-1.398 3.43-2.495.887-.94 1.53-2.01 1.95-3.165.44-1.192.654-2.47.654-3.874 0-1.41-.256-2.718-.754-3.942-.507-1.224-1.26-2.31-2.28-3.298-.958-.95-2.04-1.68-3.224-2.165-1.174-.48-2.462-.716-3.832-.716-1.348 0-2.608.237-3.782.717-1.18.485-2.243 1.212-3.198 2.13-1.01.99-1.772 2.11-2.302 3.357-.53 1.242-.78 2.54-.78 3.92 0 1.36.204 2.626.625 3.81m2.887-6.597c.388-.927.913-1.718 1.59-2.42.652-.677 1.406-1.193 2.242-1.53.84-.353 1.73-.545 2.658-.545 1.042 0 1.992.2 2.846.58.85.38 1.65.987 2.42 1.786.618.714 1.102 1.468 1.43 2.29.33.826.512 1.69.512 2.613 0 2.15-.703 3.955-2.073 5.403-1.375 1.453-3.093 2.184-5.135 2.184-.91 0-1.84-.2-2.704-.594-.88-.384-1.676-.927-2.366-1.635-.62-.67-1.128-1.47-1.475-2.38-.347-.927-.507-1.89-.507-2.927 0-.96.182-1.896.562-2.823" fill="#231a05"/><path d="M212.476 188.203h-6.46v6.01h7.227v1.81h-9.405v-16.677h9.035v1.804h-6.856v5.272h6.46v1.78zM215.963 178.453h2.18v17.568h-2.18v-17.567zM227.048 187.287c0-1.265-.05-2.252-.096-3.243h1.905l.1 1.955h.074c.668-1.138 1.778-2.203 3.783-2.203 1.608 0 2.85.992 3.366 2.403h.05c.37-.694.868-1.188 1.36-1.562.718-.54 1.486-.84 2.623-.84 1.612 0 3.96 1.04 3.96 5.198v7.025h-2.128v-6.755c0-2.325-.864-3.686-2.6-3.686-1.26 0-2.2.917-2.594 1.954-.1.324-.173.694-.173 1.092v7.395h-2.128v-7.17c0-1.91-.846-3.27-2.5-3.27-1.338 0-2.352 1.09-2.7 2.178-.123.297-.173.694-.173 1.064v7.2h-2.13v-8.735zM257.71 192.732c0 1.26.022 2.352.095 3.288h-1.928l-.123-1.95h-.05c-.544.964-1.832 2.225-3.96 2.225-1.878 0-4.135-1.065-4.135-5.244v-7.002h2.178v6.605c0 2.275.717 3.837 2.673 3.837 1.462 0 2.476-1.014 2.874-2.005.123-.297.196-.694.196-1.115v-7.322h2.18v8.684zM261.32 187.287c0-1.265-.028-2.252-.1-3.243h1.93l.124 1.978h.05c.595-1.11 1.98-2.225 3.96-2.225 1.66 0 4.23.992 4.23 5.098v7.126h-2.173v-6.9c0-1.93-.72-3.54-2.772-3.54-1.412 0-2.526 1.017-2.923 2.228-.096.27-.147.644-.147 1.014v7.2h-2.18v-8.735zM283.22 188.92c0-.27-.03-.644-.102-.918-.32-1.357-1.507-2.5-3.143-2.5-2.252 0-3.585 1.984-3.585 4.606 0 2.425 1.21 4.43 3.535 4.43 1.462 0 2.8-.99 3.193-2.598.073-.297.1-.594.1-.94v-2.08zm2.15-10.47v14.48c0 1.065.05 2.276.1 3.093h-1.927l-.1-2.078h-.074c-.645 1.334-2.084 2.348-4.04 2.348-2.89 0-5.147-2.45-5.147-6.085-.022-3.987 2.476-6.408 5.372-6.408 1.855 0 3.07.863 3.613 1.804h.05v-7.153h2.152zM290.37 190.06c0 2.62 1.484 4.603 3.612 4.603 2.08 0 3.636-1.955 3.636-4.654 0-2.03-1.014-4.578-3.586-4.578-2.548 0-3.663 2.375-3.663 4.627m9.477-.124c0 4.43-3.092 6.358-5.965 6.358-3.216 0-5.742-2.375-5.742-6.162 0-3.983 2.65-6.336 5.943-6.336 3.44 0 5.764 2.5 5.764 6.14M314.148 189.91c-2.375-.05-5.075.375-5.075 2.696 0 1.438.94 2.082 2.033 2.082 1.585 0 2.594-.99 2.946-2.01.068-.24.096-.493.096-.69v-2.077zm2.106 3.244c0 1.037.045 2.05.17 2.868h-1.952l-.173-1.507h-.08c-.666.936-1.95 1.78-3.658 1.78-2.425 0-3.663-1.707-3.663-3.438 0-2.896 2.57-4.48 7.198-4.458v-.248c0-.964-.27-2.768-2.718-2.745-1.142 0-2.307.32-3.148.89l-.493-1.46c.986-.618 2.447-1.038 3.96-1.038 3.663 0 4.554 2.497 4.554 4.873v4.48zM324.71 193.82c.673.397 1.81.84 2.897.84 1.558 0 2.303-.767 2.303-1.78 0-1.038-.622-1.586-2.202-2.18-2.18-.79-3.193-1.95-3.193-3.39 0-1.927 1.585-3.512 4.134-3.512 1.21 0 2.274.324 2.918.744l-.52 1.58c-.472-.296-1.335-.716-2.45-.716-1.287 0-1.977.744-1.977 1.635 0 .988.69 1.435 2.248 2.052 2.056.767 3.147 1.81 3.147 3.59 0 2.13-1.662 3.613-4.458 3.613-1.31 0-2.52-.347-3.366-.84l.52-1.635zM344.832 192.732c0 1.26.023 2.352.096 3.288H343l-.123-1.95h-.05c-.544.964-1.832 2.225-3.96 2.225-1.882 0-4.134-1.065-4.134-5.244v-7.002h2.18v6.605c0 2.275.716 3.837 2.67 3.837 1.462 0 2.477-1.014 2.874-2.005.123-.297.196-.694.196-1.115v-7.322h2.18v8.684zM353.39 193.82c.668.397 1.806.84 2.897.84 1.558 0 2.303-.767 2.303-1.78 0-1.038-.622-1.586-2.207-2.18-2.174-.79-3.193-1.95-3.193-3.39 0-1.927 1.586-3.512 4.134-3.512 1.215 0 2.28.324 2.924.744l-.52 1.58c-.47-.296-1.34-.716-2.45-.716-1.292 0-1.982.744-1.982 1.635 0 .988.69 1.435 2.252 2.052 2.056.767 3.143 1.81 3.143 3.59 0 2.13-1.657 3.613-4.453 3.613-1.31 0-2.52-.347-3.366-.84l.52-1.635zM371.083 188.87c.027-1.36-.567-3.51-3.02-3.51-2.224 0-3.165 2-3.34 3.51h6.36zm-6.386 1.56c.05 2.945 1.91 4.156 4.106 4.156 1.563 0 2.526-.27 3.32-.617l.394 1.557c-.763.347-2.1.767-4.006.767-3.685 0-5.892-2.448-5.892-6.06 0-3.615 2.13-6.438 5.62-6.438 3.932 0 4.95 3.417 4.95 5.62 0 .447-.027.766-.077 1.013h-8.413zM375.883 187.783c0-1.412-.027-2.622-.1-3.737h1.91l.095 2.376h.077c.544-1.608 1.878-2.622 3.34-2.622.223 0 .392.022.593.045v2.056c-.224-.05-.447-.05-.744-.05-1.53 0-2.622 1.143-2.92 2.773-.05.297-.072.667-.072 1.014v6.386h-2.18v-8.24zM385.434 184.046l2.352 6.705c.393 1.116.717 2.107.964 3.094h.073c.274-.987.62-1.978 1.014-3.093l2.33-6.704h2.275l-4.7 11.977h-2.08l-4.553-11.977h2.324zM396.493 184.044h2.174v11.977h-2.174v-11.976zm2.425-3.362c0 .74-.516 1.334-1.384 1.334-.795 0-1.31-.594-1.31-1.334 0-.744.543-1.36 1.356-1.36.795 0 1.338.593 1.338 1.36M410.82 195.602c-.566.274-1.827.694-3.44.694-3.612 0-5.96-2.453-5.96-6.112 0-3.686 2.52-6.386 6.43-6.386 1.29 0 2.427.325 3.02.644l-.493 1.658c-.52-.274-1.338-.57-2.526-.57-2.744 0-4.228 2.055-4.228 4.53 0 2.773 1.78 4.477 4.156 4.477 1.238 0 2.056-.297 2.673-.566l.37 1.632zM413.366 184.044h2.18v11.977h-2.18v-11.976zm2.43-3.362c0 .74-.52 1.334-1.388 1.334-.79 0-1.31-.594-1.31-1.334 0-.744.542-1.36 1.36-1.36.795 0 1.338.593 1.338 1.36M420.522 190.06c0 2.62 1.484 4.603 3.613 4.603 2.078 0 3.636-1.955 3.636-4.654 0-2.03-1.013-4.578-3.585-4.578-2.553 0-3.663 2.375-3.663 4.627m9.478-.124c0 4.43-3.092 6.358-5.966 6.358-3.215 0-5.74-2.375-5.74-6.162 0-3.983 2.648-6.336 5.937-6.336 3.44 0 5.77 2.5 5.77 6.14" fill="#1c1c1a"/></svg>