<svg xmlns="http://www.w3.org/2000/svg" width="400" height="174.711"><path d="M0 174.71h400V24.726H0V174.71z" fill="#fff200"/><path d="M11.465 120.584h139.81v-48.09H11.465v48.09zM13.056 63.898h143.63l52.867-28.66H74.525l-61.47 28.66zM162.423 70.904v49.046h226.114V35.556h-162.42l-63.694 35.348z" fill="#005596"/><path d="M193.165 96.012v4.733h-8.818c-2.253 0-6.408-1.455-6.408-5.535V76.85c0-3.497 4.226-6.77 7.648-6.77h7.724v5.53h-5.172c-1.24 0-2.843 1.316-2.843 2.775v7.86h6.775v5.105h-6.413v3.13c0 .878 1.096 1.603 2.48 1.603s5.025-.07 5.025-.07M290.64 96.012v4.733h-8.813c-2.26 0-6.412-1.455-6.412-5.535V76.85c0-3.497 4.223-6.77 7.65-6.77h7.72v5.53h-5.17c-1.24 0-2.843 1.316-2.843 2.775v7.86h6.776v5.105h-6.41v3.13c0 .878 1.094 1.603 2.478 1.603 1.384 0 5.024-.07 5.024-.07M196.59 100.774h7.065v-22.83c0-3.06 4.52-3.354 4.52-.148v22.946h7.28V78.235c0-2.553 5.177-3.426 5.177.582v21.95h7.72v-22.97c0-4.3-5.32-7.87-9.324-7.87-4.007 0-6.412 2.625-6.412 2.625s-2.516-2.44-6.96-2.44c-4.44 0-8.995 2.807-8.995 7.465 0 4.665-.07 23.197-.07 23.197M293.286 100.774h7.066v-22.83c0-3.06 4.518-3.354 4.518-.148v22.946h7.282V78.235c0-2.553 5.176-3.426 5.176.582v21.95h7.72v-22.97c0-4.3-5.32-7.87-9.323-7.87-4.008 0-6.412 2.625-6.412 2.625s-2.513-2.44-6.96-2.44c-4.44 0-8.996 2.807-8.996 7.465 0 4.665-.07 23.197-.07 23.197M239.623 76.34v8.533s4.52-1.105 4.52-4.42c0-3.313-4.52-4.114-4.52-4.114m-6.727-6.027c14.16 0 17.973 3.717 17.973 10.544 0 8.13-10.944 10.444-10.944 10.444v9.237h-7.13l.1-30.224zM260.61 76.34s4.52.8 4.52 4.114-4.52 4.42-4.52 4.42v-8.535zm11.848 24.18c0-4.342-3.704-10.016-5.1-12.01 2.377-1.62 4.498-4.072 4.498-7.653 0-6.827-1.766-10.544-17.977-10.544l-.1 30.224h7.134v-9.052c3.56 4.2 3.916 9.036 3.916 9.036h7.628zM361.222 76.34s4.518.8 4.518 4.114-4.518 4.42-4.518 4.42v-8.535zm11.848 24.15c0-4.312-3.705-9.986-5.097-11.98 2.373-1.62 4.495-4.072 4.495-7.653 0-6.827-2.138-10.544-17.973-10.544l-.1 30.224h7.13v-9.052c3.565 4.2 3.912 9.004 3.912 9.004h7.633zM377.54 72.795h.336c.39 0 .71-.13.71-.446 0-.28-.207-.468-.654-.468-.187 0-.315.02-.39.036v.877zm-.018 1.71h-.706v-3.03c.28-.06.67-.12 1.172-.12.578 0 .838.1 1.06.248.168.13.3.37.3.65 0 .355-.26.618-.634.726v.038c.3.092.467.335.558.746.096.463.152.65.224.742h-.762c-.092-.108-.148-.37-.243-.726-.055-.335-.243-.486-.633-.486h-.335v1.212zm.466-4.02c-1.344 0-2.345 1.098-2.345 2.438 0 1.36 1 2.44 2.385 2.44 1.34.02 2.325-1.08 2.325-2.44 0-1.34-.985-2.437-2.35-2.437h-.015zm.04-.613c1.75 0 3.107 1.36 3.107 3.05 0 1.735-1.356 3.075-3.13 3.075-1.748 0-3.147-1.34-3.147-3.074 0-1.69 1.4-3.05 3.146-3.05h.024zM337.46 86.18v-7.943c0-2.553 5.168-3.426 5.168.582v7.36h-5.168zm3.57-16.25c-5.735 0-10.856 2.532-10.856 7.868v22.946h7.286V91.3h5.168v9.464h7.725V77.798c0-4.3-5.316-7.868-9.324-7.868" fill="#fff"/><path d="M71.76 137.347v2.516h-4.586v-4.35c0-1.08-.063-1.76-.2-2.034-.13-.276-.37-.412-.713-.412-.33 0-.56.136-.693.41-.135.276-.2.954-.2 2.035v20.804c0 1.08.065 1.76.2 2.034.132.272.363.412.694.412.344 0 .583-.136.715-.403.136-.264.2-.946.2-2.043v-6.3h4.585v4.558c0 3.106-.414 5.252-1.244 6.44-.833 1.192-2.25 1.79-4.255 1.79-2.01 0-3.42-.594-4.242-1.774-.825-1.184-1.236-3.333-1.236-6.455v-17.228c0-3.118.415-5.276 1.248-6.476.83-1.2 2.24-1.798 4.23-1.798 2.007 0 3.423.6 4.256 1.8.83 1.2 1.244 3.357 1.244 6.475M79.553 134.948c-.315 1.946-.555 4.236-.718 6.875-.164 2.64-.255 6.062-.27 10.26h1.997c-.06-4.685-.168-8.25-.316-10.694-.15-2.446-.378-4.59-.693-6.442m.917 27.433v-6.3h-1.81v6.3h-4.49v-6.344c0-6.44.222-11.772.67-16 .446-4.222 1.155-7.736 2.128-10.54h5.145c.973 2.836 1.69 6.386 2.153 10.65.463 4.262.694 9.557.694 15.89v6.345h-4.49zM87.885 162.38v-32.883h4.586v28.888h4.324v3.996h-8.91zM98.476 129.497h4.582v32.884h-4.582v-32.883zM112.637 155.494v-19.11c0-1.272-.116-2.07-.343-2.4-.223-.328-.662-.49-1.304-.49h-.235v24.89h.235c.642 0 1.08-.163 1.304-.494.227-.327.343-1.128.343-2.396m-6.325-25.997h5.15c2.176 0 3.67.47 4.477 1.408.804.94 1.21 2.703 1.21 5.292v19.484c0 2.585-.406 4.352-1.21 5.29-.807.94-2.302 1.41-4.48 1.41h-5.148v-32.883zM125.13 134.948c-.315 1.946-.55 4.236-.718 6.875-.164 2.64-.255 6.062-.267 10.26h1.998c-.064-4.685-.172-8.25-.32-10.694-.147-2.446-.378-4.59-.693-6.442m.917 27.433v-6.3h-1.81v6.3h-4.49v-6.344c0-6.44.222-11.772.67-16 .446-4.222 1.155-7.736 2.13-10.54h5.147c.97 2.836 1.687 6.386 2.15 10.65.462 4.262.693 9.557.693 15.89v6.345h-4.49zM139.786 155.494v-19.11c0-1.272-.116-2.07-.343-2.4-.227-.328-.662-.49-1.304-.49h-.236v24.89h.235c.64 0 1.076-.163 1.303-.494.227-.327.343-1.128.343-2.396m-6.325-25.997h5.15c2.177 0 3.673.47 4.478 1.408.806.94 1.208 2.703 1.208 5.292v19.484c0 2.585-.402 4.352-1.208 5.29-.805.94-2.3 1.41-4.478 1.41h-5.15v-32.883zM146.756 157.14h4.42v5.245h-4.42v-5.244zM153.584 157.14h4.418v5.245h-4.418v-5.244zM160.41 157.14h4.42v5.245h-4.42v-5.244zM174.538 162.38v-32.883h4.442v12.267h1.878v-12.267h4.423v32.884h-4.422v-16.62h-1.878v16.62h-4.442zM188.44 162.38v-32.883h8.957v3.996h-4.514v8.227h4.28v3.996h-4.28v12.67h4.514v3.995h-8.956zM210.408 137.347v2.516h-4.582v-4.35c0-1.08-.067-1.76-.2-2.034-.135-.276-.374-.412-.717-.412-.332 0-.563.136-.695.41-.135.276-.2.954-.2 2.035v20.804c0 1.08.065 1.76.2 2.034.132.272.363.412.694.412.342 0 .58-.136.717-.403.132-.264.2-.946.2-2.043v-6.3h4.58v4.558c0 3.106-.413 5.252-1.243 6.44-.833 1.192-2.25 1.79-4.255 1.79-2.007 0-3.422-.594-4.244-1.774-.825-1.184-1.236-3.333-1.236-6.455v-17.228c0-3.118.415-5.276 1.248-6.476.83-1.2 2.24-1.798 4.23-1.798 2.007 0 3.423.6 4.256 1.8.83 1.2 1.244 3.357 1.244 6.475M213.052 162.38v-32.883h4.443v12.267h1.882v-12.267h4.42v32.884h-4.42v-16.62h-1.882v16.62h-4.443zM232.103 134.948c-.31 1.946-.55 4.236-.718 6.875-.164 2.64-.255 6.062-.267 10.26h1.998c-.064-4.685-.172-8.25-.32-10.694-.147-2.446-.382-4.59-.693-6.442m.917 27.433v-6.3h-1.81v6.3h-4.49v-6.344c0-6.44.222-11.772.67-16 .446-4.222 1.155-7.736 2.128-10.54h5.15c.968 2.836 1.686 6.386 2.148 10.65.463 4.262.694 9.557.694 15.89v6.345h-4.49zM257.913 139.91h-4.582v-4.396c0-1.02-.07-1.683-.21-1.99-.144-.303-.395-.454-.754-.454-.33 0-.563.135-.706.41-.14.276-.212.954-.212 2.034v1.69c0 1.9.73 3.678 2.186 5.337.17.204.3.356.38.448.01.016.034.04.066.07 2.553 2.964 3.833 5.808 3.833 8.535v2.983c0 3.103-.415 5.252-1.245 6.44-.833 1.193-2.25 1.79-4.255 1.79s-3.42-.593-4.243-1.777c-.825-1.186-1.236-3.335-1.236-6.454v-4.7h4.514v6.44c0 1.068.072 1.738.212 2.02.143.284.375.423.706.423.36 0 .61-.144.753-.435.14-.287.21-.957.21-2.01v-2.89c0-1.612-.17-2.904-.506-3.877-.34-.974-1.18-2.218-2.528-3.74-1.456-1.66-2.38-3.044-2.772-4.148-.394-1.105-.59-2.545-.59-4.31v-1.788c0-2.15.46-3.764 1.376-4.857.917-1.09 2.285-1.63 4.103-1.63 2.006 0 3.422.597 4.255 1.793.83 1.2 1.245 3.362 1.245 6.48v2.56zM260.605 162.38v-32.883h8.956v3.996h-4.513v8.227h4.28v3.996h-4.28v12.67h4.514v3.995h-8.955zM278.245 140.144v-4.327c0-.92-.112-1.54-.34-1.854-.227-.315-.65-.47-1.26-.47h-.28v8.952h.19c.657 0 1.103-.152 1.34-.455.234-.307.35-.92.35-1.846m-6.325 22.236v-32.884h4.726c2.273 0 3.844.43 4.713 1.292.87.862 1.303 2.373 1.303 4.538v4.866c0 1.63-.095 2.807-.29 3.525-.196.722-.53 1.216-1.002 1.48l1.624 17.183h-4.418l-1.292-16.358h-.918v16.358h-4.446zM289.705 129.496v7.9c0 5.762.07 10.173.21 13.22.14 3.046.368 5.654.683 7.816.33-2.21.562-4.842.706-7.896.14-3.06.21-7.438.21-13.14v-7.9h4.49v9.543c0 6.236-.222 11.005-.67 14.303-.445 3.298-1.17 6.313-2.172 9.037h-5.148c-.99-2.648-1.703-5.567-2.142-8.754-.438-3.19-.658-7.636-.658-13.343v-10.786h4.49zM299.024 129.497h4.586v32.884h-4.586v-32.883zM317.512 137.347v2.516h-4.586v-4.35c0-1.08-.064-1.76-.2-2.034-.13-.276-.37-.412-.713-.412-.33 0-.562.136-.694.41-.137.276-.2.954-.2 2.035v20.804c0 1.08.063 1.76.2 2.034.13.272.362.412.693.412.343 0 .582-.136.714-.403.135-.264.2-.946.2-2.043v-6.3h4.585v4.558c0 3.106-.415 5.252-1.248 6.44-.83 1.192-2.245 1.79-4.25 1.79-2.007 0-3.423-.594-4.244-1.774-.826-1.184-1.236-3.333-1.236-6.455v-17.228c0-3.118.414-5.276 1.248-6.476.83-1.2 2.24-1.798 4.23-1.798 2.007 0 3.423.6 4.252 1.8.833 1.2 1.248 3.357 1.248 6.475M320.25 129.497h4.583v32.884h-4.582v-32.883zM332.343 156.316c0 1.08.068 1.76.2 2.034.13.275.363.41.694.41.343 0 .582-.13.717-.398.132-.267.2-.95.2-2.046v-20.804c0-1.08-.068-1.76-.2-2.034-.135-.275-.374-.41-.717-.41-.33 0-.563.135-.694.41-.132.275-.2.953-.2 2.034v20.804zm-4.582-18.97c0-3.118.416-5.276 1.246-6.476.83-1.2 2.24-1.798 4.23-1.798 2.006 0 3.426.598 4.256 1.798.83 1.2 1.244 3.358 1.244 6.476v17.232c0 3.102-.415 5.248-1.244 6.44-.83 1.192-2.25 1.787-4.255 1.787-2.006 0-3.422-.59-4.243-1.775-.822-1.184-1.233-3.334-1.233-6.452v-17.232z" fill="#231f20"/><path d="M124.563 14.524c-.953.355-2.815.84-4.79.84-2.528 0-4.454-.64-5.874-1.993-1.332-1.263-2.086-3.237-2.086-5.498.024-4.746 3.37-7.76 8.314-7.76 1.84 0 3.282.374 3.968.71l-.598 2.193c-.82-.375-1.818-.642-3.39-.642-3.194 0-5.435 1.886-5.435 5.367 0 3.39 2.086 5.408 5.188 5.408 1.002 0 1.712-.132 2.063-.287V9.113h-2.636v-2.15h5.276v7.562zM130.058 7.074h1.62c1.837 0 2.97-.977 2.97-2.46 0-1.62-1.133-2.398-2.907-2.398-.86 0-1.415.068-1.682.136v4.722zM127.354.49c1.04-.2 2.548-.335 4.123-.335 2.15 0 3.594.355 4.61 1.196.822.69 1.288 1.732 1.288 3.02 0 1.926-1.308 3.234-2.727 3.724v.064c1.084.403 1.727 1.444 2.08 2.883.492 1.864.89 3.595 1.178 4.173h-2.792c-.223-.447-.598-1.667-1-3.53-.443-1.95-1.13-2.572-2.68-2.616h-1.376v6.146h-2.704V.49zM142.582.266V8.98c0 2.927 1.22 4.28 3.058 4.28 1.974 0 3.15-1.353 3.15-4.28V.266h2.728v8.538c0 4.61-2.372 6.652-5.965 6.652-3.458 0-5.7-1.93-5.7-6.632V.266h2.73zM157.343 7.406c.355.112.778.132 1.328.132 2.043 0 3.283-1.017 3.283-2.748 0-1.663-1.153-2.528-3.035-2.528-.754 0-1.288.068-1.575.13v5.014zM154.64.466c.996-.178 2.348-.31 4.167-.31 1.993 0 3.437.42 4.39 1.22.885.73 1.464 1.907 1.464 3.302 0 1.42-.442 2.573-1.263 3.37-1.11 1.09-2.796 1.62-4.726 1.62-.506 0-.952-.02-1.327-.112v5.654h-2.704V.467zM169.135 7.783c0 3.06 1.532 5.475 4.148 5.475 2.636 0 4.123-2.46 4.123-5.587 0-2.814-1.396-5.474-4.123-5.474-2.708 0-4.148 2.504-4.148 5.587m11.15-.2c0 5.013-3.034 7.873-7.138 7.873-4.235 0-6.895-3.24-6.895-7.605 0-4.613 2.907-7.85 7.12-7.85 4.34 0 6.913 3.305 6.913 7.584M187.22.266h2.728v12.662h6.14v2.285h-8.868V.266zM199.39 7.783c0 3.06 1.532 5.475 4.148 5.475 2.636 0 4.124-2.46 4.124-5.587 0-2.814-1.396-5.474-4.124-5.474-2.704 0-4.147 2.504-4.147 5.587m11.155-.2c0 5.013-3.04 7.873-7.138 7.873-4.24 0-6.9-3.24-6.9-7.605 0-4.613 2.908-7.85 7.12-7.85 4.346 0 6.918 3.305 6.918 7.584M224.864 14.524c-.957.355-2.82.84-4.79.84-2.527 0-4.458-.64-5.877-1.993-1.332-1.263-2.082-3.237-2.082-5.498.02-4.746 3.37-7.76 8.315-7.76 1.838 0 3.278.374 3.968.71l-.598 2.193c-.822-.375-1.82-.642-3.394-.642-3.194 0-5.432 1.886-5.432 5.367 0 3.39 2.086 5.408 5.19 5.408.996 0 1.705-.132 2.06-.287V9.113h-2.64v-2.15h5.28v7.562zM230.377 15.21h-2.727V.263h2.727V15.21zM233.46 12.24c.865.51 2.217.953 3.613.953 1.73 0 2.703-.822 2.703-2.038 0-1.132-.75-1.798-2.636-2.484-2.484-.89-4.06-2.197-4.06-4.346 0-2.46 2.043-4.303 5.3-4.303 1.62 0 2.796.356 3.57.755l-.642 2.197c-.555-.287-1.595-.71-2.99-.71-1.732 0-2.466.91-2.466 1.795 0 1.152.866 1.687 2.864 2.46 2.592.977 3.836 2.285 3.836 4.435 0 2.42-1.822 4.502-5.655 4.502-1.6 0-3.238-.443-4.06-.953l.623-2.26zM247.868 2.55h-4.26V.265h11.29V2.55h-4.303v12.662h-2.727V2.55zM259.373 15.21h-2.728V.263h2.728V15.21zM273.205 14.79c-.642.31-2.062.665-3.88.665-4.746 0-7.625-2.97-7.625-7.54 0-4.922 3.433-7.893 8.004-7.893 1.794 0 3.058.38 3.613.666l-.58 2.174c-.71-.31-1.706-.58-2.922-.58-3.04 0-5.236 1.908-5.236 5.5 0 3.303 1.905 5.388 5.21 5.388 1.086 0 2.238-.22 2.972-.53l.443 2.15zM277.06 7.783c0 3.06 1.532 5.475 4.144 5.475 2.64 0 4.127-2.46 4.127-5.587 0-2.814-1.4-5.474-4.126-5.474-2.704 0-4.144 2.504-4.144 5.587m11.154-.2c0 5.013-3.038 7.873-7.142 7.873-4.235 0-6.895-3.24-6.895-7.605 0-4.613 2.907-7.85 7.118-7.85 4.347 0 6.92 3.305 6.92 7.584" fill="#005596"/></svg>