<svg xmlns="http://www.w3.org/2000/svg" width="400" height="135.353"><path d="M172.48 45.603c-1.82 0-3.297 1.474-3.297 3.297v1.744c-3.5-3.134-8.12-5.04-13.19-5.04-10.924 0-19.783 8.856-19.783 19.782 0 10.927 8.86 19.784 19.784 19.784 5.068 0 9.69-1.906 13.19-5.04v1.083c0 3.375-1.29 6.75-3.863 9.327-5.15 5.15-13.5 5.15-18.652 0-1.288-1.29-3.375-1.29-4.664 0-1.287 1.288-1.287 3.374 0 4.662 7.726 7.727 20.25 7.727 27.98 0 3.862-3.862 5.794-8.925 5.793-13.99V48.9c0-1.823-1.475-3.297-3.296-3.297zm-16.486 32.973c-7.284 0-13.188-5.904-13.188-13.19 0-7.284 5.904-13.19 13.188-13.19 7.284 0 13.19 5.905 13.19 13.19 0 7.284-5.906 13.19-13.19 13.19zM181.054 65.386c0 10.927 8.86 19.784 19.784 19.784 10.925 0 19.784-8.857 19.784-19.784V48.9c0-1.823-1.476-3.297-3.3-3.297-1.82 0-3.295 1.474-3.295 3.297v16.486c0 7.286-5.905 13.19-13.19 13.19-7.284 0-13.19-5.904-13.19-13.19V48.9c0-1.823-1.476-3.297-3.297-3.297-1.82 0-3.297 1.474-3.297 3.297v16.486zM245.683 45.603c-10.925 0-19.785 8.857-19.785 19.783 0 10.927 8.86 19.784 19.785 19.784 5.464 0 10.41-2.216 13.99-5.796 1.286-1.288 1.286-3.376 0-4.662-1.287-1.287-3.375-1.287-4.662 0-2.386 2.388-5.684 3.864-9.325 3.864-6.147 0-11.31-4.204-12.776-9.894h29.264c1.82 0 3.293-1.476 3.293-3.296 0-10.926-8.858-19.783-19.783-19.783zM232.907 62.09c1.464-5.69 6.628-9.893 12.776-9.893 6.144 0 11.31 4.204 12.773 9.892h-25.55zM196.882 36.37c0 2.186-1.772 3.958-3.957 3.958-2.186 0-3.958-1.772-3.958-3.957 0-2.185 1.772-3.957 3.958-3.957 2.185 0 3.957 1.772 3.957 3.958zM212.71 36.37c0 2.186-1.773 3.958-3.96 3.958-2.184 0-3.956-1.772-3.956-3.957 0-2.185 1.772-3.957 3.957-3.957 2.187 0 3.96 1.772 3.96 3.958zM307.015 45.603c-1.823 0-3.3 1.474-3.3 3.297v1.744c-3.5-3.134-8.123-5.04-13.19-5.04-10.925 0-19.785 8.856-19.785 19.782 0 10.927 8.86 19.784 19.786 19.784 5.066 0 9.69-1.906 13.19-5.04v1.083c0 3.375-1.288 6.75-3.862 9.327-5.15 5.15-13.503 5.15-18.654 0-1.286-1.29-3.374-1.29-4.664 0-1.286 1.288-1.286 3.374 0 4.662 7.727 7.727 20.255 7.727 27.98 0 3.863-3.862 5.795-8.925 5.795-13.99V48.9c0-1.823-1.476-3.297-3.295-3.297zm-16.488 32.973c-7.285 0-13.19-5.904-13.19-13.19 0-7.284 5.905-13.19 13.19-13.19 7.285 0 13.19 5.905 13.19 13.19-.002 7.284-5.906 13.19-13.19 13.19zM315.584 65.386c0 10.927 8.86 19.784 19.787 19.784 10.925 0 19.785-8.857 19.785-19.784V48.9c0-1.823-1.476-3.297-3.3-3.297-1.82 0-3.297 1.474-3.297 3.297v16.486c0 7.286-5.904 13.19-13.188 13.19-7.287 0-13.19-5.904-13.19-13.19V48.9c0-1.823-1.477-3.297-3.3-3.297-1.818 0-3.298 1.474-3.298 3.297v16.486zM380.215 45.603c-10.927 0-19.784 8.857-19.784 19.783 0 10.927 8.858 19.784 19.785 19.784 5.464 0 10.412-2.216 13.992-5.796 1.285-1.288 1.285-3.376-.004-4.662-1.288-1.287-3.376-1.287-4.663 0-2.385 2.388-5.684 3.864-9.325 3.864-6.146 0-11.31-4.204-12.775-9.894H396.705c1.818 0 3.295-1.476 3.295-3.296 0-10.926-8.86-19.783-19.785-19.783zM367.44 62.09c1.465-5.69 6.63-9.893 12.775-9.893 6.145 0 11.31 4.204 12.773 9.892H367.44zM331.415 36.37c0 2.186-1.772 3.958-3.957 3.958-2.186 0-3.958-1.772-3.958-3.957 0-2.185 1.772-3.957 3.958-3.957 2.185 0 3.957 1.772 3.957 3.958zM347.24 36.37c0 2.185-1.772 3.957-3.957 3.957-2.185 0-3.956-1.772-3.956-3.956s1.77-3.955 3.956-3.955c2.185 0 3.956 1.77 3.956 3.956zM40.6 64.99c0 2.914-2.364 5.276-5.277 5.276-2.914 0-5.276-2.362-5.276-5.276 0-2.913 2.362-5.276 5.276-5.276 2.913 0 5.276 2.363 5.276 5.276z" fill="#010101"/><path d="M91.964 21.532c-.503 2.847-1.43 5.63-2.782 8.25 8.467 8.574 13.695 20.354 13.695 33.358 0 18.76-10.88 34.976-26.67 42.688.598 2.54 1.587 5.02 2.973 7.353 18.692-8.9 31.61-27.96 31.61-50.04 0-16.58-7.285-31.456-18.826-41.608z" fill="#488bca"/><path d="M34.585 105.828C18.792 98.116 7.913 81.9 7.913 63.14c0-13.004 5.228-24.784 13.696-33.36-1.353-2.62-2.28-5.4-2.783-8.248C7.285 31.684 0 46.56 0 63.14c0 22.082 12.92 41.14 31.61 50.04 1.386-2.33 2.375-4.81 2.975-7.352z" fill="#ed2224"/><path d="M39.403 18.42c4.997-1.787 10.38-2.763 15.993-2.763 5.61 0 10.994.976 15.993 2.764 1.038-2.435 2.146-4.84 3.32-7.215-6.014-2.237-12.52-3.46-19.314-3.46-6.795 0-13.3 1.223-19.315 3.46 1.175 2.374 2.283 4.78 3.323 7.216z" fill="#f8951d"/><path d="M81.872 37.575c-1.822-1.64-2.93-3.77-3.323-6.01-1.238-7.013-.062-13.892 2.928-19.79-1.638 7.04-1.072 14.638 2.082 21.705 8.085-9.555 8.342-23.62.446-33.48-23.63 37.487-27.46 83.04-12.804 122.853-4.197 3.748-9.738 6.028-15.808 6.028s-11.61-2.28-15.81-6.027C54.243 83.04 50.415 37.487 26.782 0c-7.895 9.86-7.636 23.927.45 33.48 3.153-7.067 3.72-14.664 2.082-21.704 2.99 5.897 4.165 12.776 2.928 19.79-.392 2.238-1.5 4.37-3.323 6.01-5.834 5.252-9.73 11.85-11.665 18.898.333 7.858 3.837 15.554 10.337 21.007 10.927 9.146 13.725 25.174 5.958 37.604-1.684 2.7-1.7 6.254.237 9.025 5.128 7.322 13.302 11.236 21.61 11.243 8.306-.007 16.48-3.92 21.607-11.244 1.94-2.772 1.922-6.326.238-9.026-7.766-12.428-4.97-28.456 5.958-37.603 6.5-5.452 10.004-13.148 10.336-21.006-1.932-7.048-5.828-13.646-11.662-18.9zM27.12 57.853c0-2.055.3-4.035.845-5.913 8.975 2.428 15.58 10.624 15.58 20.368 0 2.053-.3 4.036-.846 5.913-8.976-2.428-15.58-10.624-15.58-20.367zM68.09 78.22c-.548-1.876-.846-3.86-.846-5.912 0-9.744 6.604-17.94 15.58-20.368.546 1.877.844 3.858.844 5.913 0 9.743-6.604 17.94-15.578 20.368z" fill="#010101"/><path d="M80.742 64.99c0 2.914-2.362 5.276-5.276 5.276-2.913 0-5.276-2.362-5.276-5.276 0-2.913 2.363-5.276 5.276-5.276 2.914 0 5.276 2.363 5.276 5.276zM67.918 29.445c-3.937-1.313-8.144-2.034-12.522-2.034-4.37 0-8.57.72-12.5 2.027 10.69 29.703 11.166 62.392 1.153 92.51 3.37 1.838 7.235 2.883 11.346 2.883 4.112 0 7.98-1.046 11.353-2.888-10.258-30.684-9.37-63.258 1.168-92.497z" fill="#010101"/></svg>