<svg xmlns="http://www.w3.org/2000/svg" width="400" height="100" viewBox="-0.597 -0.149 400 100"><path d="M210.83 10.99v30.265h-5.483v-13.86h-11.972v13.86h-5.484V10.99h5.485v11.887h11.972V10.99h5.484zM233.81 32.7h-11.225l-2.5 8.555h-5.618l9.082-28.818c.26-.966.92-1.448 1.97-1.448h5.353c1.05 0 1.71.48 1.972 1.447l9.078 28.818h-5.614l-2.5-8.554zm-1.315-4.515l-3.028-10.438c-.406-1.58-.628-2.442-.656-2.588h-1.183l-.704 2.587-3.028 10.438h8.6zM269.557 10.99h5.656c1.376 0 2.09.717 2.152 2.15l1.232 28.115H273.2l-1.01-25.834h-.835l-5.218 20.133c-.32 1.226-1.082 1.842-2.282 1.842h-4.208c-1.23 0-2.008-.616-2.328-1.842l-5.305-20.132h-.746l-.965 25.835h-5.352l1.14-28.116c.058-1.433.774-2.15 2.148-2.15h5.705c1.2 0 1.946.613 2.234 1.84l4.3 16.405c.057.206.363 1.578.92 4.124h.657c.324-1.697.628-3.085.922-4.167l4.295-16.36c.326-1.228 1.084-1.842 2.282-1.842zM300.92 32.7h-11.23l-2.5 8.555h-5.613l9.078-28.818c.262-.966.918-1.448 1.972-1.448h5.352c1.05 0 1.71.48 1.97 1.447l9.083 28.818h-5.614l-2.5-8.554zm-1.32-4.515l-3.023-10.438c-.414-1.58-.628-2.442-.656-2.588h-1.187l-.7 2.587-3.028 10.438h8.596zM332.457 36.52l.48 4.12c-2.43.76-5.528 1.14-9.3 1.14-4.532 0-7.714-1.167-9.558-3.507-1.845-2.34-2.767-6.388-2.767-12.15 0-5.76.922-9.81 2.766-12.15 1.843-2.34 5.027-3.508 9.557-3.508 3.364 0 6.258.322 8.688.966l-.528 4.165c-2.546-.204-5.266-.306-8.16-.306-2.512 0-4.234.767-5.152 2.3-.922 1.535-1.382 4.38-1.382 8.53 0 4.153.46 6.997 1.382 8.53.918 1.537 2.64 2.305 5.152 2.305 3.714.002 6.652-.144 8.82-.436zM353.9 32.7h-11.23l-2.495 8.555h-5.618l9.082-28.818c.26-.966.917-1.448 1.97-1.448h5.353c1.05 0 1.71.48 1.972 1.447l9.078 28.818H356.4l-2.5-8.554zm-1.315-4.515l-3.024-10.438c-.413-1.58-.63-2.442-.66-2.588h-1.183l-.704 2.587-3.028 10.438h8.6zM376.535 29.28l-6.098-1.93c-2.196-.7-3.758-1.76-4.692-3.18-.938-1.417-1.406-3.283-1.406-5.593 0-3.302.77-5.482 2.303-6.536 1.532-1.05 4.23-1.577 8.09-1.577 3.714 0 6.886.336 9.52 1.008l-.352 3.905c-3.33-.116-6.33-.174-8.99-.174-2.017 0-3.36.197-4.037.593-.672.394-1.012 1.352-1.012 2.874 0 1.256.247 2.142.727 2.654.48.513 1.364.975 2.656 1.383l5.832 1.798c2.308.733 3.926 1.807 4.844 3.225.92 1.42 1.38 3.282 1.38 5.592 0 3.334-.79 5.578-2.367 6.734-1.578 1.155-4.372 1.733-8.378 1.733-3.332 0-6.61-.322-9.824-.964l.353-4.037c5.118.118 8.316.176 9.606.176 2.02 0 3.363-.235 4.035-.703.672-.466 1.008-1.462 1.008-2.982 0-1.288-.226-2.18-.68-2.676-.452-.5-1.292-.94-2.518-1.32zM264.055 56.185v30.32c0 1.446-.722 2.166-2.168 2.166h-4.66c-1.128 0-1.946-.595-2.45-1.79l-9.132-19.913c-1.098-2.354-1.742-3.972-1.93-4.85h-.566c.187 1.318.28 2.95.28 4.896V88.67h-5.79V58.35c0-1.445.74-2.167 2.215-2.167h4.562c.628 0 1.122.14 1.484.426.365.28.685.735.965 1.36l8.852 19.355c.098.22.422.958.988 2.208.566 1.26.988 2.232 1.274 2.92h.565c-.16-1.974-.238-3.73-.238-5.272V56.186h5.748zM277.187 88.67H271.3V56.186h5.887V88.67zM306 83.585l.52 4.426c-2.607.817-5.935 1.225-9.98 1.225-4.865 0-8.29-1.254-10.263-3.766-1.98-2.513-2.968-6.86-2.968-13.043 0-6.182.987-10.53 2.967-13.04 1.972-2.512 5.398-3.768 10.262-3.768 3.61 0 6.713.347 9.32 1.035l-.563 4.472c-2.73-.218-5.652-.328-8.758-.328-2.7 0-4.543.82-5.533 2.47-.992 1.645-1.484 4.7-1.484 9.155 0 4.458.492 7.51 1.484 9.16.988 1.646 2.832 2.47 5.532 2.47 3.983.002 7.14-.156 9.46-.47zM329.023 79.49H316.97l-2.68 9.18h-6.03l9.747-30.93c.282-1.04.988-1.555 2.118-1.555h5.746c1.13 0 1.833.518 2.12 1.554l9.745 30.93h-6.028l-2.684-9.18zm-1.41-4.85l-3.25-11.205c-.442-1.696-.676-2.622-.708-2.778h-1.27l-.754 2.778-3.25 11.206h9.233z" fill="#575756"/><path d="M398.215 2.203H.59c-.657 0-1.187-.526-1.187-1.176C-.597.377-.065-.15.59-.15h397.625c.656 0 1.188.527 1.188 1.177s-.532 1.176-1.188 1.176zM398.215 99.85H.59c-.657 0-1.187-.527-1.187-1.177s.532-1.178 1.186-1.178h397.625c.656 0 1.188.528 1.188 1.178 0 .65-.532 1.178-1.188 1.178z" fill="#232854"/><path d="M84.667 80.963c-.114-.304-.216-.624-.306-.95-.03-.108-.07-.152-.407-.36-.206-.126-.466-.282-.718-.52-.28-.04-.526-.138-.73-.22-.08-.034-.192-.078-.254-.096l-.047.006c-.38.05-.766.078-1.146.078-3.652 0-7.056-2.255-10.716-7.095-.16-.216-.373-.418-.597-.636-.19-.18-.386-.37-.574-.585l-.22-.25V54.66l.015-.205.912.102c1.24.132 2.358-.886 2.482-2.27.113-1.378-.81-2.63-2.05-2.762l-4.877-.548L15.595 15.77c.558-1.03.63-2.477.076-3.835-.647-1.59-1.947-2.576-3.21-2.584C11.066 5.3 8.364.146 2.966.146c-.488 0-.882.396-.882.882 0 .488.396.882.882.882 4.314 0 6.614 4.483 7.848 8.09-1.036.97-1.334 2.84-.624 4.56.463 1.137 1.26 1.97 2.137 2.355l-2.124 25.872-1.466-.164c-1.24-.132-2.364.892-2.486 2.27-.113 1.384.81 2.63 2.05 2.762l4.7.528c19.487 20.9 43.57 31.918 71.667 32.78zM61.925 48.585l-6.792-.762-27.278-21.938 34.07 22.7zm-9.792-1.098l-7.526-.842L22.603 23.74l29.53 23.747zm-10.04-1.126l-8.228-.92-15.278-23.545L42.093 46.36zm-10.308-1.153l-8.864-.994-7.205-23.774 16.07 24.767zM13.74 19.503l7.43 24.512-9.36-1.048 1.93-23.464zM162.405.29c-11.214 0-13.912 11.98-15.882 20.725-.392 1.732-.762 3.38-1.166 4.81-.664.246-1.354 1.008-1.776 2.064-.357.943-.41 1.897-.203 2.58L121.75 52.068l-1.89.332c-.577.107-.98.705-.88 1.333l.15.984c.087.626.645 1.064 1.225.956l.156-.026c-2.91 7.214-9.92 20.348-17.813 22.86 1.04.442 2.116.876 3.21 1.304l.75.113c1.358.168 2.744.256 4.132.256 17.147 0 33.923-12.547 40.07-29.9l2.485-.44c.58-.09.966-.69.88-1.315l-.15-.994c-.096-.625-.648-1.057-1.228-.953l-1.362.242-5.72-16.04c.358-.373.682-.877.914-1.48.43-1.13.43-2.27.053-2.95.428-1.5.814-3.21 1.22-5.013 1.966-8.722 4.412-19.574 14.448-19.574.41 0 .735-.33.735-.736.004-.406-.322-.736-.73-.736zm-38.63 51.42l14.89-14.87-10.994 14.18-3.895.69zm5.62-.99l11.72-15.12-7.62 14.393-4.1.726zm9.826-1.737l-4.253.752 8.004-15.126-3.75 14.373zm1.275-.224l3.868-14.823.464 14.058-4.332.764zm9.818-1.733L146 47.79l-.47-14.175 4.783 13.412z" fill="#232854"/><path d="M151.823 65.745c-.028-2.564-.114-5.184-.206-7.638l-.188-5.19c-6.97 16.942-23.61 28.732-40.64 28.732-1.725 0-3.453-.125-5.13-.373-.045-.006-3.207-1.264-4.647-1.888C91.197 75.096 78 67.69 70.42 56.644V69.78c.107.11.22.217.34.33.257.25.523.505.757.815 3.354 4.438 6.384 6.508 9.538 6.508.302 0 .612-.022.92-.06.084-.02.172-.03.262-.03.304 0 .576.108.816.208.164.065.33.135.434.135l.026-.002c.04-.008.076-.014.114-.014.184 0 .36.087.472.235.163.22.37.346.615.492.386.232.866.526 1.062 1.214.736 2.735 2.378 4.48 4.876 5.19.02.007.04.015.058.02.64.26 1.29.39 1.93.39.93 0 1.89-.28 2.843-.823.214-.132.456-.198.732-.198.148 0 .29.02.414.037.1.012 1.53.424 1.77.526.377.166.89.388 1.077 1.094.58 2.084 2.16 3.424 4.822 4.084.21.023.423.033.63.033.94 0 3.21-.226 4.015-2.304.028-.07.07-.14.122-.195.366-.382.766-.474 1.058-.54.258-.062 1.604-.094 1.854-.054.295.05.703.123 1.077.497 1.444 1.396 3.42 1.608 4.47 1.608.41 0 .822-.032 1.198-.092 1.482-.626 2.998-1.47 3.95-4.102.018-.045.042-.093.072-.135.302-.428.628-.642.914-.828.245-.16 2.16-.972 2.393-.972.266 0 .51.09.704.264.564.507 1.816.835 3.19.835 1.292 0 2.532-.288 3.408-.784 1.468-1.13 3.172-3.07 3.036-5.91-.005-.13.03-.257.105-.365.29-.416.602-.68.876-.914.25-.21 1.505-1.11 1.635-1.19.278-.17.594-.365.954-.365.147 0 .285.032.415.096 1.376.705 2.63 1.06 3.736 1.06 3.087 0 5.277-2.843 6.507-8.45.02-.095.062-.18.124-.253.2-.236.943-.97 1.083-1.122z" fill="#232854"/><path d="M98.057 86.223s0-.004-.002-.006c-.044-.028-.156-.076-.24-.116-.194-.083-1.242-.4-1.376-.417-.085-.01-.165-.022-.217-.022-1.184.677-2.386 1.017-3.582 1.017-.81 0-1.633-.156-2.43-.474-2.13-.618-3.775-1.904-4.84-3.762h-.68c-27.665-.82-51.543-11.373-70.975-31.365l-.018-.018-.528-.626c-.217.093-.41.305-.495.693-.61 2.762-1.778 8.274-1.778 9.994.442.37 1.238.55 1.398 1.088 1.782 5.908 5.47 7.43 9.788 7.43.942 0 1.91-.072 2.894-.19.542.118 3.054 1.402 3.606 1.874.27 2.235 2.768 4.74 4.716 5.753 1.01.438 2.54.748 4.007.748 1.348 0 2.646-.263 3.444-.94h.03c.555 0 3.04.975 3.587 1.423 1.166 2.556 3.578 3.702 5.528 4.49.946.286 2.056.51 3.186.51 1.19 0 2.397-.25 3.455-.93.084-.016.162-.02.244-.02.41 0 2.81.584 3.373 1.018.712 2.28 3.628 3.767 5.846 4.25.41.07.885.11 1.383.11 1.854 0 4.072-.5 4.952-1.737.192-.074.392-.092.6-.092.166 0 2.44.25 3.002.645 1.582 1.896 4.192 3.184 6.52 3.308.188.014.37.02.55.02 1.696 0 3.128-.53 5.112-2.188.55-.33 3.05-.244 3.603.118 2.266 1.482 4.408 2.184 6.466 2.184.74 0 1.47-.092 2.193-.27-1.146-.892-1.926-2.058-2.326-3.494z" fill="#232854"/></svg>