<svg xmlns="http://www.w3.org/2000/svg" width="380" height="202.585"><path d="M3.57 178.937c.65-.907 1.378-1.564 2.16-1.976.786-.42 1.704-.616 2.75-.616 1.174 0 2.17.265 3.003.82.825.545 1.422 1.305 1.762 2.282.546-1.027 1.245-1.798 2.104-2.323.862-.523 1.874-.78 3.04-.78 1.53 0 2.728.434 3.603 1.33.878.895 1.31 2.11 1.31 3.67v14.004h-3.176v-11.863c0-1.804-.234-3.043-.687-3.713-.456-.665-1.25-.994-2.382-.994-1.24 0-2.15.466-2.738 1.41-.584.938-.876 2.418-.876 4.438v10.723h-3.21v-11.863c0-1.804-.23-3.043-.698-3.713-.462-.665-1.247-.994-2.373-.994-1.266 0-2.186.466-2.753 1.392-.588.94-.87 2.42-.87 4.456v10.723H.35V179.72c0-.405 0-.843-.035-1.322-.03-.485-.08-1.025-.136-1.61h3.247l.143 2.15zM27.653 176.79h3.07v18.555h-3.07V176.79zm0-8.054h3.07v3.39h-3.07v-3.39zM44.986 195.347v-11.86c0-1.807-.23-3.046-.695-3.716-.468-.665-1.257-.994-2.38-.994-1.26 0-2.183.466-2.754 1.394-.586.94-.867 2.42-.867 4.456v10.72h-3.18v-15.623c0-.406-.017-.847-.047-1.325-.033-.486-.067-1.023-.132-1.607h3.245l.143 2.147c.65-.907 1.376-1.562 2.16-1.976.793-.417 1.704-.618 2.758-.618 1.523 0 2.733.45 3.627 1.342.884.888 1.332 2.114 1.332 3.656v14.007h-3.21zM55.09 184.405h7.17v-1.588c0-1.39-.285-2.457-.866-3.17-.58-.73-1.428-1.085-2.545-1.085-1.255 0-2.18.467-2.79 1.4-.605.94-.935 2.425-.97 4.443m10.306 5.13c-.094 1.955-.726 3.5-1.9 4.603-1.18 1.105-2.753 1.66-4.752 1.66-2.49 0-4.268-.76-5.34-2.27-1.076-1.513-1.612-4.054-1.612-7.605 0-3.333.55-5.758 1.66-7.274 1.102-1.518 2.866-2.28 5.292-2.28 2.297 0 3.977.61 5.052 1.823 1.07 1.2 1.6 3.114 1.6 5.73v2.878h-10.32v1.076c0 1.83.29 3.154.872 3.975.584.833 1.517 1.245 2.796 1.245.963 0 1.757-.313 2.35-.93.598-.61.978-1.492 1.13-2.63h3.172zM71.798 176.752l.3 2.434c.333-.922.902-1.636 1.695-2.136.798-.494 1.78-.748 2.96-.748.056 0 .15.007.283.01.117.022.233.032.31.032v3.258c-.106 0-.25-.007-.428-.015-.182-.01-.315-.02-.382-.02-1.598 0-2.74.356-3.42 1.04-.673.69-1.02 1.857-1.02 3.493v11.245h-3.17v-15.452c0-.138-.074-.854-.204-2.13-.046-.436-.084-.768-.11-1.01H71.8zM79.857 176.79h3.075v18.555h-3.075V176.79zm-1.027-2.433l3.68-6.285h3.635L81 174.357h-2.17zM96.68 185.62c-2.558 0-4.348.294-5.35.888-1.02.597-1.524 1.603-1.524 3.03 0 .91.27 1.675.83 2.277.552.613 1.253.918 2.09.918 1.253 0 2.23-.496 2.922-1.476.683-.98 1.033-2.38 1.033-4.198v-1.44zm-6.284-3.994h-3.41v-.357c0-1.614.556-2.84 1.67-3.676 1.11-.842 2.752-1.25 4.917-1.25 2.145 0 3.722.43 4.738 1.304 1.01.872 1.51 2.24 1.51 4.087v8.66c0 .85.028 1.702.085 2.52.052.826.14 1.64.25 2.43H96.97l-.213-2.326c-.628.8-1.365 1.424-2.182 1.853-.83.435-1.71.655-2.62.655-1.58 0-2.865-.53-3.848-1.58-.987-1.04-1.48-2.412-1.48-4.11 0-2.124.693-3.74 2.068-4.816 1.38-1.086 3.436-1.626 6.155-1.626h1.794v-.917c0-1.463-.212-2.46-.643-3.02-.423-.554-1.164-.83-2.22-.83-1.11 0-1.954.24-2.525.713-.565.475-.86 1.174-.86 2.102v.18zM142.32 184.405h7.16v-1.588c0-1.39-.28-2.457-.865-3.17-.577-.73-1.423-1.085-2.54-1.085-1.26 0-2.185.467-2.796 1.4-.606.94-.927 2.425-.96 4.443m10.306 5.13c-.102 1.955-.73 3.5-1.902 4.603-1.18 1.105-2.764 1.66-4.76 1.66-2.483 0-4.258-.76-5.335-2.27-1.076-1.513-1.618-4.054-1.618-7.605 0-3.333.56-5.758 1.66-7.274 1.11-1.518 2.87-2.28 5.293-2.28 2.29 0 3.982.61 5.053 1.823 1.065 1.2 1.608 3.114 1.608 5.73v2.878h-10.332v1.076c0 1.83.296 3.154.878 3.975.58.833 1.518 1.245 2.793 1.245.964 0 1.758-.313 2.356-.93.594-.61.974-1.492 1.123-2.63h3.183zM166 195.347v-11.86c0-1.807-.236-3.046-.705-3.716-.45-.665-1.247-.994-2.364-.994-1.257 0-2.187.466-2.763 1.394-.567.94-.863 2.42-.863 4.456v10.72h-3.18v-15.623c0-.406-.014-.847-.052-1.325-.025-.486-.065-1.023-.134-1.607h3.26l.133 2.147c.66-.907 1.377-1.562 2.17-1.976.784-.417 1.7-.618 2.747-.618 1.53 0 2.735.45 3.627 1.342.9.888 1.342 2.114 1.342 3.656v14.007H166zM176.11 184.405h7.158v-1.588c0-1.39-.288-2.457-.86-3.17-.575-.73-1.423-1.085-2.544-1.085-1.25 0-2.185.467-2.79 1.4-.608.94-.932 2.425-.965 4.443m10.306 5.13c-.097 1.955-.725 3.5-1.91 4.603-1.165 1.105-2.76 1.66-4.752 1.66-2.476 0-4.252-.76-5.334-2.27-1.073-1.513-1.613-4.054-1.613-7.605 0-3.333.55-5.758 1.66-7.274 1.108-1.518 2.872-2.28 5.287-2.28 2.298 0 3.986.61 5.05 1.823 1.076 1.2 1.612 3.114 1.612 5.73v2.878h-10.33v1.076c0 1.83.298 3.154.877 3.975.584.833 1.517 1.245 2.79 1.245.972 0 1.763-.313 2.364-.93.584-.61.96-1.492 1.125-2.63h3.174zM192.805 176.752l.307 2.434c.336-.922.907-1.636 1.695-2.136.796-.494 1.783-.748 2.965-.748.06 0 .15.007.277.01.123.022.236.032.31.032v3.258c-.1 0-.25-.007-.43-.015-.177-.01-.31-.02-.377-.02-1.606 0-2.738.356-3.42 1.04-.68.69-1.02 1.857-1.02 3.493v11.245h-3.178v-15.452c0-.138-.063-.854-.198-2.13-.048-.436-.088-.768-.11-1.01h3.178zM203.39 185.997c0 2.52.28 4.326.848 5.435.554 1.106 1.472 1.663 2.744 1.663 1.332 0 2.32-.57 2.936-1.7.626-1.142.94-2.935.94-5.398 0-2.62-.29-4.503-.883-5.637-.586-1.134-1.558-1.694-2.892-1.694-1.337 0-2.297.535-2.856 1.602-.563 1.067-.836 2.97-.836 5.73m-2.136 11.425h3.607c.03.834.28 1.514.766 2.012.483.504 1.113.754 1.91.754 1.17 0 1.987-.308 2.468-.91.477-.597.712-1.73.712-3.378v-2.667c-.668.88-1.352 1.523-2.072 1.937-.733.42-1.515.625-2.37.625-2.13 0-3.695-.804-4.676-2.415-1.006-1.606-1.493-4.12-1.493-7.568 0-3.28.487-5.676 1.493-7.21.98-1.534 2.533-2.303 4.635-2.303.947 0 1.78.192 2.51.562.743.373 1.387.938 1.973 1.7l.168-1.772h3.224c-.067.416-.114.893-.137 1.418-.032.525-.045 1.138-.045 1.86v16.278c0 1.152-.084 2.037-.246 2.652-.17.626-.448 1.17-.822 1.632-.537.69-1.226 1.188-2.077 1.49-.85.318-1.943.465-3.28.465-1.93 0-3.43-.448-4.512-1.348-1.08-.89-1.657-2.168-1.734-3.814M218.33 176.79h3.068v18.555h-3.068V176.79zm-1.03-2.433l3.683-6.285h3.622l-5.14 6.285h-2.164zM235.157 185.62c-2.562 0-4.354.294-5.366.888-1.01.597-1.517 1.603-1.517 3.03 0 .91.285 1.675.836 2.277.542.613 1.248.918 2.094.918 1.254 0 2.216-.496 2.917-1.476.68-.98 1.037-2.38 1.037-4.198v-1.44zm-6.282-3.994h-3.418v-.357c0-1.614.562-2.84 1.67-3.676 1.112-.842 2.752-1.25 4.926-1.25 2.136 0 3.71.43 4.727 1.304 1 .872 1.514 2.24 1.514 4.087v8.66c0 .85.02 1.702.08 2.52.06.826.143 1.64.243 2.43h-3.175l-.21-2.326c-.638.8-1.352 1.424-2.188 1.853-.832.435-1.695.655-2.62.655-1.584 0-2.857-.53-3.854-1.58-.98-1.04-1.475-2.412-1.475-4.11 0-2.124.696-3.74 2.077-4.816 1.374-1.086 3.43-1.626 6.156-1.626h1.79v-.917c0-1.463-.218-2.46-.644-3.02-.43-.554-1.163-.83-2.205-.83-1.13 0-1.97.24-2.542.713-.575.475-.853 1.174-.853 2.102v.18zM278.605 173.613v-1.19c0-.883.096-1.54.29-1.99.2-.44.53-.84.99-1.152.494-.327 1.1-.566 1.828-.728.722-.15 1.606-.22 2.684-.22h.814v2.505c-1.395.027-2.332.25-2.775.645-.462.392-.693 1.428-.693 3.085v2.223h3.47v2.292h-3.47v16.266h-3.137v-16.266h-2.598v-2.292h2.598v-3.177zM293.925 179.082c-1.325 0-2.274.538-2.856 1.623-.587 1.082-.874 2.87-.874 5.36 0 2.54.283 4.35.873 5.416.57 1.078 1.526 1.616 2.855 1.616 1.334 0 2.275-.538 2.835-1.615.584-1.066.87-2.86.87-5.382 0-2.55-.286-4.353-.87-5.424-.56-1.056-1.5-1.592-2.835-1.592m-6.98 6.95c0-3.388.558-5.833 1.665-7.364 1.12-1.535 2.89-2.3 5.315-2.3 2.447 0 4.217.765 5.307 2.294 1.094 1.516 1.644 3.982 1.644 7.403 0 3.42-.55 5.9-1.644 7.438-1.113 1.525-2.87 2.293-5.307 2.293-2.46 0-4.225-.768-5.328-2.293-1.102-1.54-1.652-4.03-1.652-7.47M307.446 176.752l.313 2.434c.333-.922.898-1.636 1.696-2.136.79-.494 1.778-.748 2.954-.748.06 0 .158.007.276.01.134.022.235.032.327.032v3.258c-.113 0-.26-.007-.44-.015-.175-.01-.307-.02-.375-.02-1.61 0-2.742.356-3.423 1.04-.674.69-1.016 1.857-1.016 3.493v11.245h-3.178v-15.452c0-.138-.076-.854-.208-2.13-.036-.436-.074-.768-.107-1.01h3.18zM318.122 184.405h7.162v-1.588c0-1.39-.286-2.457-.872-3.17-.58-.73-1.422-1.085-2.543-1.085-1.25 0-2.18.467-2.784 1.4-.607.94-.93 2.425-.964 4.443m10.307 5.13c-.1 1.955-.74 3.5-1.905 4.603-1.178 1.105-2.76 1.66-4.76 1.66-2.48 0-4.25-.76-5.337-2.27-1.073-1.513-1.615-4.054-1.615-7.605 0-3.333.558-5.758 1.663-7.274 1.1-1.518 2.87-2.28 5.288-2.28 2.3 0 3.982.61 5.06 1.823 1.066 1.2 1.605 3.114 1.605 5.73v2.878h-10.337v1.076c0 1.83.294 3.154.88 3.975.584.833 1.52 1.245 2.79 1.245.977 0 1.763-.313 2.355-.93.594-.61.968-1.492 1.132-2.63h3.18zM331.245 189.693h3.46c.034 1.138.32 1.993.85 2.58.526.595 1.292.893 2.288.893.92 0 1.66-.23 2.215-.684.54-.452.82-1.048.82-1.79 0-.552-.21-1.058-.622-1.516-.408-.46-1.103-.94-2.065-1.45l-3.375-1.73c-1.225-.63-2.077-1.287-2.575-1.94-.498-.66-.748-1.466-.748-2.432 0-1.585.593-2.87 1.77-3.845 1.183-.986 2.735-1.477 4.66-1.477 1.88 0 3.36.445 4.46 1.336 1.09.893 1.635 2.092 1.635 3.63v.32h-3.394c0-.917-.258-1.63-.796-2.145-.525-.515-1.266-.777-2.2-.777-.824 0-1.506.216-2.02.653-.528.446-.792 1.005-.792 1.677 0 .466.138.877.434 1.23.29.34.774.687 1.46 1.03l3.067 1.513c1.758.878 2.96 1.7 3.595 2.478.636.78.958 1.743.958 2.886 0 1.718-.6 3.09-1.796 4.118-1.2 1.03-2.8 1.545-4.796 1.545-2.132 0-3.742-.516-4.837-1.554-1.093-1.03-1.65-2.553-1.655-4.55M351.943 171.53v5.262h3.704v2.29h-3.704v11.12c0 1 .16 1.69.462 2.065.31.386.872.565 1.7.565.276 0 .753-.01 1.433-.065h.11l-.017 2.404c-.5.11-.953.188-1.394.24-.44.057-.838.083-1.2.083-1.572 0-2.68-.307-3.31-.924-.64-.62-.96-1.702-.96-3.254v-12.233h-2.82v-2.29h2.82v-3.74l3.177-1.522zM367.674 185.62c-2.57 0-4.357.294-5.37.888-1.003.597-1.51 1.603-1.51 3.03 0 .91.27 1.675.832 2.277.553.613 1.25.918 2.092.918 1.245 0 2.22-.496 2.913-1.476.687-.98 1.044-2.38 1.044-4.198v-1.44zm-6.285-3.994h-3.42v-.357c0-1.614.563-2.84 1.672-3.676 1.11-.842 2.76-1.25 4.924-1.25 2.15 0 3.71.43 4.728 1.304 1.012.872 1.51 2.24 1.51 4.087v8.66c0 .85.03 1.702.08 2.52.058.826.144 1.64.256 2.43h-3.18l-.218-2.326c-.626.8-1.353 1.424-2.19 1.853-.826.435-1.695.655-2.613.655-1.576 0-2.863-.53-3.844-1.58-.99-1.04-1.49-2.412-1.49-4.11 0-2.124.702-3.74 2.072-4.816 1.38-1.086 3.433-1.626 6.172-1.626h1.78v-.917c0-1.463-.203-2.46-.638-3.02-.426-.554-1.163-.83-2.218-.83-1.123 0-1.96.24-2.532.713-.576.475-.853 1.174-.853 2.102v.18zM378.036 195.345h-3.18V168.72h3.18v26.625zM118.16 166.963h3.697v33.63h-3.696v-33.63zM257.03 166.963h3.708v33.63h-3.71v-33.63zM0 152.642V79.114h27.56v24.826h13.157V79.114h27.57v73.528h-27.57v-27.466H27.56v27.466H0zM153.393 153.367v-73.52h30.198l5.885 24.342 4.324-24.342 32.62.013-.03 73.59-24.025.03-.097-32.192-11.848 24.652h-1.483l-11.665-24.652-.04 32.08h-23.84zM303.486 126.895c-.1 9.52-2.904 16.623-8.428 21.302-5.508 4.68-13.862 7.02-25.053 7.02-11.4 0-20.212-3.33-26.445-9.983-6.24-6.66-9.343-16.04-9.343-28.15 0-12.275 3.156-21.744 9.467-28.42 6.31-6.682 15.313-10.015 26.997-10.015 10.65 0 18.618 2.424 23.916 7.267 5.307 4.85 7.995 12.17 8.058 21.96H277.46v-.9c0-3.218-.53-5.543-1.583-6.952-1.056-1.403-2.79-2.11-5.196-2.11-2.865 0-4.887 1.34-6.057 4.02-1.172 2.685-1.758 7.666-1.758 14.95 0 7.372.582 12.42 1.735 15.113 1.165 2.698 3.148 4.053 5.985 4.053 2.245 0 3.895-.718 4.952-2.167 1.062-1.44 1.667-3.77 1.83-6.988h26.12zM345.692 98.632c-2.72 0-4.643 1.36-5.76 4.098-1.11 2.738-1.678 7.826-1.678 15.273 0 6.974.567 11.844 1.678 14.61 1.117 2.77 3.005 4.147 5.668 4.147 2.723 0 4.634-1.453 5.756-4.372 1.12-2.92 1.678-8.163 1.678-15.748 0-6.842-.555-11.548-1.66-14.135-1.096-2.583-2.992-3.873-5.682-3.873m-.735 57.297c-10.704 0-18.982-3.333-24.84-9.984-5.86-6.657-8.788-16.042-8.788-28.15 0-12.273 2.994-21.747 8.975-28.418 5.977-6.676 14.463-10.013 25.475-10.013 10.95 0 19.39 3.332 25.326 9.98 5.93 6.667 8.894 16.11 8.894 28.353 0 12.405-2.988 21.885-8.97 28.422-5.978 6.542-14.666 9.81-26.073 9.81M106.993 133.544v-8.67h25.278v-18.89h-25.277v-7.975h33.7V79.114H81.14v73.528h59.636v-19.1h-33.783zM149.594 23.884c3.593-3.46 9.463-3.46 13.043 0l31.177 29.89c3.593 3.437 2.455 6.257-2.514 6.257h-70.36c-4.988 0-6.11-2.82-2.51-6.255l31.164-29.89z"/><path d="M94.278 3.566c4.945-4.755 13.022-4.755 17.967 0l52.005 49.86c4.923 4.73 3.37 8.623-3.465 8.623H45.745c-6.85 0-8.395-3.894-3.47-8.623l52.003-49.86z"/><path d="M55.94 15.096c4.07-3.89 10.728-3.89 14.796 0l42.872 41.108c4.078 3.923 2.784 7.098-2.852 7.098H15.92c-5.633 0-6.916-3.175-2.863-7.098L55.94 15.096zM211.706 38.918c-3.612-2.1-7.83-2.224-11.374-.742.48 3.85 2.684 7.418 6.305 9.51 3.605 2.076 7.805 2.194 11.37.71-.486-3.815-2.706-7.393-6.3-9.478m14.846 0c-2.47 1.42-4.418 3.637-5.493 6.287-.506 1.267-.78 2.598-.916 3.91-.195 1.58-.24 3.15-.237 4.71v4.255h.605c0-.107.067-2.543.113-2.986.055-.596.143-1.226.262-1.802.22-.928.59-1.88 1.273-2.555.78-.737 1.88-1.042 2.925-1.223 1.145-.19 2.28-.26 3.405-.556 1.104-.284 2.146-.697 3.133-1.273 3.605-2.09 5.804-5.66 6.314-9.51-3.574-1.48-7.793-1.357-11.384.743m-2.438-7.573c0-3.99-1.9-7.556-4.838-9.782-2.953 2.226-4.85 5.792-4.85 9.782s1.897 7.508 4.85 9.753c2.938-2.245 4.838-5.763 4.838-9.753"/><path d="M13.158 57.152c.85-.223 5.947-.948 11.335-1.57 0 0 12.99-1.576 24.543-2.46 11.828-.857 19.82 3.387 31.65 2.53 11.615-.888 23.104-3.238 34.47-3.98 15.323-.978 29.295 1.315 44.528 1.868 14.978.537 30.908-.81 45.63.302 8.76.67 14.35 2.596 22.8 2.995 10.76.525 21.428.3 32.652.947 19.23 1.132 38.324-.345 57.6 1.646 19.59 2.062 45.453 3.408 45.453 3.408 5.41.276 5.42.786 0 1.113 0 0-16.53 1.018-28.442 1.436-14.442.466-28.495 2.362-42.637 2.684-19.655.464-40.195-1.645-60.168-1.617-29.096.065-57.51-2.088-86.506-2.132-15.05-.045-33.576-2.067-47.97-1.02-8.45.6-15.602 3.17-22.868 3.684-20.688 1.438-39.182-5.004-59.002-2.848l-7.264.784c-3.63.466-7.277.74-7.277-1.02-.036-3.546 10.607-6.51 11.473-6.748"/></svg>