<svg xmlns="http://www.w3.org/2000/svg" width="400" height="207.238"><path d="M365.063 82.125c-13.37 0-38.657 1.817-38.657 38.344 0 36.525 31.67 37.03 36.344 37.03 4.673 0 37.9.016 37.25-36.125-.65-36.14-21.568-39.25-34.938-39.25zm-1.813 18.625c2.69 0 4.56 1.292 5.656 3.875 1.105 2.587 1.688 7.314 1.688 14.156 0 7.587-.568 12.83-1.688 15.75s-3.026 4.345-5.75 4.345c-2.663 0-4.57-1.355-5.687-4.125-1.112-2.766-1.658-7.65-1.658-14.625 0-7.447.546-12.543 1.657-15.28 1.116-2.738 3.06-4.095 5.78-4.095z" fill="#017a3c"/><path d="M80.38 22.565c5.13 4.15 14.918 13.846 23.276 21.945 4.688 4.543 9.494 8.34 11.395 10.966l58.417 2.04s-9.43-9.833-26.377-26.15c-11.976-11.532-23.073-24.026-31.1-28.877-2.77-1.675-5.842-2.586-7.278-2.482-6.892.5-11.376 5.204-17.295 10.847-7.704 7.343-11.324 11.287-11.038 11.71z" fill="#f1b225"/><path d="M34.47 39.878c-.332-.39 7.592-7.797 15.296-15.14 5.92-5.642 10.403-10.346 17.295-10.846 1.437-.105 4.51.807 7.28 2.48l6.026 6.097c-.007.04-.002.072.013.094 5.13 4.15 14.918 13.847 23.276 21.946 4.688 4.543 9.494 8.34 11.395 10.966l58.417 2.04s-8.61-8.98-24.164-24.015c4.535-4.662 9.46-10.818 15.258-10.81 9.836.01 38.49 35.366 41.137 35.395 24.656.27 27.28 2.844 42.23 3.38 64.387 2.307 146.288 4.484 140.818 6.9-4.183 1.85-44.984 4.763-90.16 4.868-18.27.043-32.67-.72-50.24-1.094-40.094-.854-77.395-1.822-77.395-1.822-10.74-.504-53.756-.514-66.072-1.682-4.104-.39-9.52 2.463-13.34 2.924-8.394 1.013-13.37 2.003-21.113 1.456-5.71-.404-9.168-1.2-14.824-1.53-10.07-.585-19.423-1.745-29.42-1.597-6.97.103-13.913.436-20.82 1.067-3.25.296-4.546-.802-5.145-2.04.223-1.784 2.122-3.008 4.02-3.673 3.917-2.77 7.834-3.166 11.472-8.45 6.534-4.94 12.51-11.278 18.764-16.916z" fill="#422817"/><path d="M251.043 41.188c-4.683-1.216-9.68-1.044-13.118 1.12-3.437 2.163-6.21 6.38-6.91 10.794-.292 1.622-.33 4.967-.417 6.592.794.106 1.565.212 2.324.317.134-2.047.642-3.83 2.467-4.75 2.898-1.465 6.41-1.4 8.91-2.974 3.405-2.143 6.16-6.1 6.743-11.098zM230.958 23.02c3.522 3.316 6.04 7.637 6.04 11.7 0 4.06-2.677 8.036-6.04 10.98-3.523-2.705-5.8-7.037-5.8-11.06 0-4.025 1.88-8.463 5.8-11.62zm-19.93 18.168c4.683-1.216 9.678-1.044 13.118 1.12 3.437 2.162 5.376 6.545 6.076 10.96-4.166 1.54-9.045 1.162-12.45-.982-3.407-2.143-6.16-6.1-6.744-11.098zM.062 83.14h27.21v24.72h11.45V83.14h28.424v73.213H38.723V129.95h-11.45v26.403H.063V83.14zM80.18 83.14h55.007v19.417h-27.363v7.4h25.548v19.126h-25.548v8.097h27.502v19.173H80.18V83.14zM146.495 83.14h41.666l6.68 40.06 7.5-40.06h38.67v73.213h-24.15v-45.42l-9.112 45.42h-26.334l-10.627-45.41v45.41h-24.292V83.14zM287.063 82.123c37.513 0 33.347 29.63 33.347 29.63l-26.467-.13s.134-9.75-6.62-9.75c-6.755 0-7.553 6.043-7.606 17.385-.053 11.342 1.244 19.272 7.735 19.272 6.492 0 5.712-9.49 5.712-9.49l27.246-.26s4.443 28.732-33.996 28.732c-38.44 0-36.062-32.24-36.062-37.44 0-5.2-.802-37.95 36.71-37.95zM3.622 182.203c.69-.978 1.46-1.695 2.3-2.15.842-.45 1.82-.677 2.938-.677 1.243 0 2.307.294 3.195.89.88.597 1.51 1.428 1.886 2.487.58-1.113 1.322-1.95 2.242-2.52.92-.57 1.998-.857 3.247-.857 1.63 0 2.91.482 3.845 1.454.926.972 1.393 2.298 1.393 3.987v15.234h-3.39v-12.894c0-1.964-.245-3.31-.73-4.034-.494-.73-1.336-1.093-2.545-1.093-1.32 0-2.294.51-2.918 1.527-.625 1.026-.934 2.634-.934 4.833v11.66h-3.423v-12.894c0-1.964-.25-3.31-.743-4.034-.493-.73-1.334-1.093-2.53-1.093-1.348 0-2.334.51-2.945 1.52-.62 1.013-.927 2.628-.927 4.84v11.66H.19V183.05c0-.43-.013-.91-.046-1.434-.032-.523-.085-1.106-.144-1.75h3.464l.158 2.34zm25.666-7.405v-3.693h3.274v3.693h-3.274zm0 25.253v-20.185h3.274v20.186h-3.274zm18.51 0v-12.894c0-1.964-.25-3.31-.743-4.034-.493-.73-1.335-1.093-2.53-1.093-1.348 0-2.334.51-2.946 1.52-.618 1.013-.927 2.628-.927 4.84v11.66H37.26V183.05c0-.43-.012-.91-.045-1.434-.033-.523-.085-1.106-.145-1.75h3.464l.158 2.34c.69-.98 1.46-1.696 2.3-2.152.842-.45 1.82-.676 2.94-.676 1.63 0 2.917.49 3.864 1.46.953.98 1.426 2.306 1.426 3.98v15.235h-3.425zm10.76-11.902H66.2v-1.722c0-1.522-.308-2.668-.925-3.452-.61-.784-1.52-1.18-2.715-1.18-1.334 0-2.327.51-2.97 1.53-.652 1.018-.993 2.626-1.033 4.824zm10.996 5.576c-.106 2.13-.782 3.806-2.032 5.006-1.255 1.206-2.944 1.81-5.073 1.81-2.644 0-4.544-.825-5.694-2.473-1.15-1.65-1.72-4.404-1.72-8.264 0-3.625.59-6.266 1.773-7.915 1.175-1.65 3.055-2.472 5.64-2.472 2.45 0 4.244.656 5.388 1.97 1.143 1.314 1.716 3.39 1.716 6.232v3.144H58.537v1.16c0 1.99.31 3.43.934 4.328.625.9 1.618 1.348 2.98 1.348 1.037 0 1.872-.335 2.51-1.006.637-.663 1.038-1.62 1.202-2.868h3.392zm6.815-13.9l.328 2.647c.36-1.004.96-1.774 1.808-2.317.847-.543 1.9-.818 3.154-.818.067 0 .165.007.303.02.13.014.243.02.335.02v3.552c-.118 0-.27-.007-.46-.02-.197-.013-.33-.02-.407-.02-1.702 0-2.918.376-3.648 1.126-.723.757-1.084 2.024-1.084 3.8v12.238h-3.392v-16.807c0-.16-.072-.932-.21-2.32-.053-.47-.092-.837-.118-1.098h3.39zm8.603 20.227v-20.185h3.274v20.186h-3.274zm-1.097-22.832l3.93-6.836h3.872l-5.49 6.836h-2.312zm12.35 7.908h-3.64v-.396c0-1.75.59-3.083 1.78-3.988 1.19-.91 2.938-1.366 5.245-1.366 2.288 0 3.97.475 5.05 1.42 1.077.952 1.615 2.433 1.615 4.45v9.423c0 .93.027 1.842.086 2.74.06.898.146 1.776.264 2.64h-3.392l-.23-2.533c-.67.878-1.446 1.548-2.333 2.024-.888.47-1.815.705-2.795.705-1.682 0-3.05-.57-4.1-1.71-1.053-1.14-1.578-2.633-1.578-4.476 0-2.32.736-4.062 2.208-5.242 1.466-1.18 3.66-1.77 6.573-1.77h1.907v-.998c0-1.588-.23-2.68-.685-3.277-.453-.603-1.242-.905-2.36-.905-1.188 0-2.09.262-2.7.778-.612.516-.914 1.273-.914 2.285v.196zm6.697 4.336c-2.734 0-4.64.32-5.718.97-1.077.65-1.617 1.75-1.617 3.292 0 1 .296 1.823.888 2.486.59.664 1.334.992 2.228.992 1.34 0 2.373-.536 3.11-1.6.74-1.067 1.11-2.588 1.11-4.565v-1.575zM149.21 187.28h7.577v-1.737c0-1.536-.306-2.692-.92-3.483-.605-.79-1.504-1.19-2.69-1.19-1.323 0-2.306.514-2.945 1.542-.645 1.027-.983 2.65-1.023 4.87zm10.9 5.627c-.104 2.15-.775 3.842-2.014 5.052-1.244 1.217-2.92 1.825-5.03 1.825-2.618 0-4.502-.832-5.642-2.495-1.14-1.664-1.707-4.443-1.707-8.34 0-3.657.586-6.322 1.76-7.986 1.165-1.663 3.03-2.495 5.59-2.495 2.43 0 4.208.662 5.342 1.987 1.133 1.326 1.7 3.422 1.7 6.29v3.17h-10.92v1.17c0 2.01.306 3.464.925 4.37.62.906 1.603 1.36 2.952 1.36 1.03 0 1.857-.34 2.49-1.015.63-.67 1.028-1.637 1.19-2.895h3.363zm14.165 6.385V186.28c0-1.982-.248-3.34-.737-4.07-.488-.738-1.322-1.104-2.508-1.104-1.336 0-2.314.514-2.92 1.536-.61 1.02-.918 2.65-.918 4.882v11.768h-3.362v-17.158c0-.433-.013-.92-.045-1.447-.033-.527-.085-1.116-.144-1.765h3.435l.156 2.36c.685-.987 1.448-1.71 2.28-2.17.836-.454 1.807-.684 2.914-.684 1.616 0 2.893.494 3.83 1.475.946.987 1.415 2.326 1.415 4.017v15.372h-3.395zm10.665-12.01h7.578v-1.74c0-1.535-.306-2.69-.92-3.482-.605-.79-1.504-1.19-2.69-1.19-1.322 0-2.306.514-2.945 1.542-.645 1.027-.984 2.65-1.023 4.87zm10.9 5.625c-.104 2.15-.774 3.842-2.012 5.052-1.245 1.217-2.92 1.825-5.03 1.825-2.62 0-4.502-.832-5.643-2.495-1.14-1.664-1.707-4.443-1.707-8.34 0-3.657.587-6.322 1.76-7.986 1.165-1.663 3.03-2.495 5.59-2.495 2.43 0 4.208.662 5.342 1.987 1.134 1.326 1.7 3.422 1.7 6.29v3.17h-10.92v1.17c0 2.01.307 3.464.926 4.37.62.906 1.603 1.36 2.952 1.36 1.03 0 1.856-.34 2.488-1.015.633-.67 1.03-1.637 1.193-2.895h3.36zm6.757-14.025l.326 2.67c.36-1.014.952-1.792 1.792-2.34.84-.547 1.883-.824 3.127-.824.065 0 .163.006.3.02.13.014.24.02.332.02v3.584c-.117 0-.267-.007-.456-.02-.195-.013-.325-.02-.404-.02-1.687 0-2.893.38-3.616 1.136-.716.764-1.075 2.043-1.075 3.835v12.35h-3.362V182.33c0-.162-.07-.94-.207-2.34-.052-.473-.09-.845-.118-1.108h3.362zm11.18 10.15c0 2.76.3 4.748.9 5.958.6 1.217 1.564 1.826 2.9 1.826 1.413 0 2.45-.622 3.114-1.86.665-1.244.99-3.22.99-5.923 0-2.882-.305-4.944-.93-6.188-.626-1.238-1.642-1.86-3.056-1.86-1.427 0-2.437.58-3.03 1.75s-.886 3.268-.886 6.298zm-2.247 12.538h3.818c.026.927.294 1.658.802 2.205.508.548 1.185.825 2.026.825 1.232 0 2.098-.33 2.6-.993.5-.657.756-1.894.756-3.7v-2.935c-.697.967-1.434 1.677-2.196 2.13-.763.453-1.596.683-2.502.683-2.255 0-3.903-.88-4.952-2.644-1.05-1.764-1.577-4.537-1.577-8.31 0-3.59.528-6.23 1.577-7.913 1.05-1.684 2.685-2.53 4.913-2.53.996 0 1.876.204 2.658.616.775.406 1.466 1.028 2.08 1.86l.187-1.94h3.395c-.06.46-.11.98-.143 1.554-.033.575-.046 1.258-.046 2.056v17.847c0 1.272-.09 2.246-.267 2.922-.177.683-.464 1.278-.86 1.792-.574.757-1.304 1.3-2.203 1.636-.9.338-2.053.508-3.467.508-2.032 0-3.622-.494-4.77-1.475-1.146-.987-1.75-2.38-1.83-4.193zm18.054-2.278v-20.37h3.245v20.37h-3.246zm-1.087-23.04l3.896-6.9h3.838l-5.44 6.9h-2.293zm12.242 7.98h-3.61v-.4c0-1.766.586-3.11 1.765-4.024 1.18-.92 2.913-1.38 5.2-1.38 2.267 0 3.935.48 5.003 1.434 1.07.96 1.603 2.455 1.603 4.49v9.51c0 .94.027 1.86.086 2.765.06.906.143 1.792.26 2.665h-3.36l-.23-2.557c-.664.886-1.433 1.563-2.313 2.043-.88.473-1.798.71-2.77.71-1.667 0-3.02-.575-4.064-1.725-1.044-1.15-1.565-2.658-1.565-4.517 0-2.34.73-4.1 2.19-5.29 1.452-1.19 3.628-1.784 6.514-1.784h1.89v-1.008c0-1.603-.23-2.705-.678-3.307-.45-.61-1.232-.913-2.34-.913-1.18 0-2.07.263-2.677.785-.606.52-.906 1.284-.906 2.305v.196zm6.638 4.375c-2.71 0-4.6.324-5.668.98-1.07.656-1.603 1.765-1.603 3.32 0 1.008.293 1.84.88 2.51.586.67 1.322 1 2.208 1 1.33 0 2.352-.54 3.082-1.616.736-1.074 1.1-2.61 1.1-4.605v-1.588zM292.833 175.842v-1.313c0-.975.105-1.703.313-2.192.215-.497.56-.92 1.04-1.28.52-.354 1.165-.626 1.926-.796.767-.17 1.71-.26 2.842-.26h.86v2.77c-1.478.042-2.453.28-2.94.715-.483.443-.723 1.58-.723 3.416v2.45h3.663v2.532h-3.662v17.964h-3.317v-17.965h-2.745v-2.532h2.745v-3.51zm8.807 13.72c0-3.738.586-6.446 1.763-8.134 1.177-1.687 3.044-2.53 5.613-2.53 2.576 0 4.45.843 5.6 2.524 1.16 1.68 1.738 4.402 1.738 8.18 0 3.776-.58 6.51-1.743 8.206-1.164 1.694-3.024 2.538-5.593 2.538-2.596 0-4.47-.844-5.633-2.538-1.165-1.695-1.744-4.444-1.744-8.247zm7.377-7.677c-1.4 0-2.407.6-3.025 1.796-.618 1.2-.924 3.172-.924 5.92 0 2.805.306 4.8.918 5.983.61 1.184 1.62 1.776 3.03 1.776 1.4 0 2.4-.593 3.006-1.777.604-1.184.904-3.165.904-5.94 0-2.818-.3-4.82-.904-5.996-.605-1.177-1.607-1.762-3.006-1.762zm14.27-2.573l.326 2.688c.358-1.02.95-1.803 1.79-2.354.838-.55 1.88-.83 3.12-.83.066 0 .163.006.3.02.13.014.24.02.332.02v3.607c-.117 0-.267-.007-.455-.02-.196-.014-.326-.02-.404-.02-1.684 0-2.888.38-3.61 1.143-.715.768-1.073 2.054-1.073 3.858v12.425h-3.357v-17.067c0-.164-.07-.946-.208-2.354l-.117-1.118h3.358zm11.26 8.452h7.565v-1.75c0-1.544-.306-2.707-.917-3.504-.605-.796-1.503-1.197-2.686-1.197-1.322 0-2.304.517-2.942 1.552-.644 1.033-.982 2.667-1.02 4.9zm10.882 5.66c-.105 2.165-.775 3.867-2.01 5.084-1.243 1.225-2.915 1.838-5.022 1.838-2.615 0-4.495-.837-5.633-2.51-1.14-1.675-1.704-4.472-1.704-8.39 0-3.683.586-6.364 1.757-8.038 1.164-1.674 3.025-2.51 5.58-2.51 2.427 0 4.203.666 5.334 2 1.133 1.334 1.7 3.443 1.7 6.328v3.192h-10.902v1.177c0 2.02.305 3.484.923 4.396.62.913 1.6 1.368 2.948 1.368 1.027 0 1.854-.34 2.484-1.02.63-.674 1.028-1.646 1.19-2.913h3.357zm2.972.185h3.662c.04 1.245.338 2.197.898 2.85.553.647 1.36.974 2.412.974.97 0 1.744-.252 2.323-.75.585-.496.878-1.156.878-1.98 0-.612-.22-1.17-.657-1.673-.436-.503-1.164-1.033-2.18-1.59l-3.563-1.92c-1.282-.702-2.186-1.416-2.713-2.144-.527-.72-.793-1.62-.793-2.68 0-1.757.623-3.172 1.866-4.254 1.242-1.082 2.88-1.627 4.917-1.627 1.984 0 3.55.49 4.702 1.477 1.158.98 1.737 2.314 1.737 4v.362h-3.583c0-1.007-.28-1.796-.84-2.368-.56-.572-1.334-.858-2.323-.858-.878 0-1.593.246-2.146.73-.552.482-.825 1.095-.825 1.843 0 .518.15.967.455 1.355.306.38.82.762 1.548 1.136l3.233 1.675c1.86.967 3.123 1.885 3.8 2.743.67.857 1.008 1.912 1.008 3.178 0 1.898-.632 3.415-1.893 4.552-1.27 1.137-2.953 1.708-5.06 1.708-2.252 0-3.956-.57-5.107-1.715-1.158-1.142-1.743-2.816-1.756-5.02zm21.855-20.06v5.803h3.91v2.532h-3.91v12.275c0 1.103.163 1.865.488 2.287.325.415.917.626 1.782.626.306 0 .813-.027 1.522-.082h.116l-.02 2.655c-.52.123-1.007.21-1.47.273-.455.06-.884.088-1.274.088-1.652 0-2.817-.34-3.493-1.014-.67-.68-1.01-1.878-1.01-3.593v-13.515h-2.972v-2.532h2.973v-4.13l3.357-1.674zm9.972 11.145h-3.605v-.402c0-1.775.586-3.13 1.763-4.05 1.177-.924 2.908-1.387 5.19-1.387 2.264 0 3.93.483 4.996 1.443 1.067.965 1.6 2.47 1.6 4.517v9.568c0 .946.026 1.87.084 2.783.06.912.143 1.803.26 2.68h-3.355l-.228-2.57c-.664.89-1.43 1.57-2.31 2.054-.878.477-1.795.715-2.764.715-1.664 0-3.017-.58-4.058-1.736-1.04-1.156-1.56-2.673-1.56-4.544 0-2.355.728-4.124 2.185-5.32 1.45-1.2 3.623-1.798 6.504-1.798h1.888v-1.014c0-1.613-.228-2.722-.677-3.328-.448-.612-1.228-.918-2.334-.918-1.177 0-2.068.265-2.673.79-.605.523-.904 1.292-.904 2.32v.197zm6.627 4.403c-2.706 0-4.593.326-5.66.986-1.066.66-1.6 1.776-1.6 3.34 0 1.016.293 1.853.88 2.526.584.674 1.32 1.007 2.204 1.007 1.328 0 2.35-.544 3.077-1.626.736-1.08 1.1-2.626 1.1-4.633v-1.6zm10.934 10.75h-3.355v-29.402h3.356v29.403z" fill="#017a3c"/><path d="M3.622 182.203c.69-.978 1.46-1.695 2.3-2.15.842-.45 1.82-.677 2.938-.677 1.243 0 2.307.294 3.195.89.88.597 1.51 1.428 1.886 2.487.58-1.113 1.322-1.95 2.242-2.52.92-.57 1.998-.857 3.247-.857 1.63 0 2.91.482 3.845 1.454.926.972 1.393 2.298 1.393 3.987v15.234h-3.39v-12.894c0-1.964-.245-3.31-.73-4.034-.494-.73-1.336-1.093-2.545-1.093-1.32 0-2.294.51-2.918 1.527-.625 1.026-.934 2.634-.934 4.833v11.66h-3.423v-12.894c0-1.964-.25-3.31-.743-4.034-.493-.73-1.334-1.093-2.53-1.093-1.348 0-2.334.51-2.945 1.52-.62 1.013-.927 2.628-.927 4.84v11.66H.19V183.05c0-.43-.013-.91-.046-1.434-.032-.523-.085-1.106-.144-1.75h3.464l.158 2.34zm25.666-7.405v-3.693h3.274v3.693h-3.274zm0 25.253v-20.185h3.274v20.186h-3.274zm18.51 0v-12.894c0-1.964-.25-3.31-.743-4.034-.493-.73-1.335-1.093-2.53-1.093-1.348 0-2.334.51-2.946 1.52-.618 1.013-.927 2.628-.927 4.84v11.66H37.26V183.05c0-.43-.012-.91-.045-1.434-.033-.523-.085-1.106-.145-1.75h3.464l.158 2.34c.69-.98 1.46-1.696 2.3-2.152.842-.45 1.82-.676 2.94-.676 1.63 0 2.917.49 3.864 1.46.953.98 1.426 2.306 1.426 3.98v15.235h-3.425zm10.76-11.902H66.2v-1.722c0-1.522-.308-2.668-.925-3.452-.61-.784-1.52-1.18-2.715-1.18-1.334 0-2.327.51-2.97 1.53-.652 1.018-.993 2.626-1.033 4.824zm10.996 5.576c-.106 2.13-.782 3.806-2.032 5.006-1.255 1.206-2.944 1.81-5.073 1.81-2.644 0-4.544-.825-5.694-2.473-1.15-1.65-1.72-4.404-1.72-8.264 0-3.625.59-6.266 1.773-7.915 1.175-1.65 3.055-2.472 5.64-2.472 2.45 0 4.244.656 5.388 1.97 1.143 1.314 1.716 3.39 1.716 6.232v3.144H58.537v1.16c0 1.99.31 3.43.934 4.328.625.9 1.618 1.348 2.98 1.348 1.037 0 1.872-.335 2.51-1.006.637-.663 1.038-1.62 1.202-2.868h3.392zm6.815-13.9l.328 2.647c.36-1.004.96-1.774 1.808-2.317.847-.543 1.9-.818 3.154-.818.067 0 .165.007.303.02.13.014.243.02.335.02v3.552c-.118 0-.27-.007-.46-.02-.197-.013-.33-.02-.407-.02-1.702 0-2.918.376-3.648 1.126-.723.757-1.084 2.024-1.084 3.8v12.238h-3.392v-16.807c0-.16-.072-.932-.21-2.32-.053-.47-.092-.837-.118-1.098h3.39zm8.603 20.227v-20.185h3.274v20.186h-3.274zm-1.097-22.832l3.93-6.836h3.872l-5.49 6.836h-2.312zm12.35 7.908h-3.64v-.396c0-1.75.59-3.083 1.78-3.988 1.19-.91 2.938-1.366 5.245-1.366 2.288 0 3.97.475 5.05 1.42 1.077.952 1.615 2.433 1.615 4.45v9.423c0 .93.027 1.842.086 2.74.06.898.146 1.776.264 2.64h-3.392l-.23-2.533c-.67.878-1.446 1.548-2.333 2.024-.888.47-1.815.705-2.795.705-1.682 0-3.05-.57-4.1-1.71-1.053-1.14-1.578-2.633-1.578-4.476 0-2.32.736-4.062 2.208-5.242 1.466-1.18 3.66-1.77 6.573-1.77h1.907v-.998c0-1.588-.23-2.68-.685-3.277-.453-.603-1.242-.905-2.36-.905-1.188 0-2.09.262-2.7.778-.612.516-.914 1.273-.914 2.285v.196zm6.697 4.336c-2.734 0-4.64.32-5.718.97-1.077.65-1.617 1.75-1.617 3.292 0 1 .296 1.823.888 2.486.59.664 1.334.992 2.228.992 1.34 0 2.373-.536 3.11-1.6.74-1.067 1.11-2.588 1.11-4.565v-1.575zM149.21 187.28h7.577v-1.737c0-1.536-.306-2.692-.92-3.483-.605-.79-1.504-1.19-2.69-1.19-1.323 0-2.306.514-2.945 1.542-.645 1.027-.983 2.65-1.023 4.87zm10.9 5.627c-.104 2.15-.775 3.842-2.014 5.052-1.244 1.217-2.92 1.825-5.03 1.825-2.618 0-4.502-.832-5.642-2.495-1.14-1.664-1.707-4.443-1.707-8.34 0-3.657.586-6.322 1.76-7.986 1.165-1.663 3.03-2.495 5.59-2.495 2.43 0 4.208.662 5.342 1.987 1.133 1.326 1.7 3.422 1.7 6.29v3.17h-10.92v1.17c0 2.01.306 3.464.925 4.37.62.906 1.603 1.36 2.952 1.36 1.03 0 1.857-.34 2.49-1.015.63-.67 1.028-1.637 1.19-2.895h3.363zm14.165 6.385V186.28c0-1.982-.248-3.34-.737-4.07-.488-.738-1.322-1.104-2.508-1.104-1.336 0-2.314.514-2.92 1.536-.61 1.02-.918 2.65-.918 4.882v11.768h-3.362v-17.158c0-.433-.013-.92-.045-1.447-.033-.527-.085-1.116-.144-1.765h3.435l.156 2.36c.685-.987 1.448-1.71 2.28-2.17.836-.454 1.807-.684 2.914-.684 1.616 0 2.893.494 3.83 1.475.946.987 1.415 2.326 1.415 4.017v15.372h-3.395zm10.665-12.01h7.578v-1.74c0-1.535-.306-2.69-.92-3.482-.605-.79-1.504-1.19-2.69-1.19-1.322 0-2.306.514-2.945 1.542-.645 1.027-.984 2.65-1.023 4.87zm10.9 5.625c-.104 2.15-.774 3.842-2.012 5.052-1.245 1.217-2.92 1.825-5.03 1.825-2.62 0-4.502-.832-5.643-2.495-1.14-1.664-1.707-4.443-1.707-8.34 0-3.657.587-6.322 1.76-7.986 1.165-1.663 3.03-2.495 5.59-2.495 2.43 0 4.208.662 5.342 1.987 1.134 1.326 1.7 3.422 1.7 6.29v3.17h-10.92v1.17c0 2.01.307 3.464.926 4.37.62.906 1.603 1.36 2.952 1.36 1.03 0 1.856-.34 2.488-1.015.633-.67 1.03-1.637 1.193-2.895h3.36zm6.757-14.025l.326 2.67c.36-1.014.952-1.792 1.792-2.34.84-.547 1.883-.824 3.127-.824.065 0 .163.006.3.02.13.014.24.02.332.02v3.584c-.117 0-.267-.007-.456-.02-.195-.013-.325-.02-.404-.02-1.687 0-2.893.38-3.616 1.136-.716.764-1.075 2.043-1.075 3.835v12.35h-3.362V182.33c0-.162-.07-.94-.207-2.34-.052-.473-.09-.845-.118-1.108h3.362zm11.18 10.15c0 2.76.3 4.748.9 5.958.6 1.217 1.564 1.826 2.9 1.826 1.413 0 2.45-.622 3.114-1.86.665-1.244.99-3.22.99-5.923 0-2.882-.305-4.944-.93-6.188-.626-1.238-1.642-1.86-3.056-1.86-1.427 0-2.437.58-3.03 1.75s-.886 3.268-.886 6.298zm-2.247 12.538h3.818c.026.927.294 1.658.802 2.205.508.548 1.185.825 2.026.825 1.232 0 2.098-.33 2.6-.993.5-.657.756-1.894.756-3.7v-2.935c-.697.967-1.434 1.677-2.196 2.13-.763.453-1.596.683-2.502.683-2.255 0-3.903-.88-4.952-2.644-1.05-1.764-1.577-4.537-1.577-8.31 0-3.59.528-6.23 1.577-7.913 1.05-1.684 2.685-2.53 4.913-2.53.996 0 1.876.204 2.658.616.775.406 1.466 1.028 2.08 1.86l.187-1.94h3.395c-.06.46-.11.98-.143 1.554-.033.575-.046 1.258-.046 2.056v17.847c0 1.272-.09 2.246-.267 2.922-.177.683-.464 1.278-.86 1.792-.574.757-1.304 1.3-2.203 1.636-.9.338-2.053.508-3.467.508-2.032 0-3.622-.494-4.77-1.475-1.146-.987-1.75-2.38-1.83-4.193zm18.054-2.278v-20.37h3.245v20.37h-3.246zm-1.087-23.04l3.896-6.9h3.838l-5.44 6.9h-2.293zm12.242 7.98h-3.61v-.4c0-1.766.586-3.11 1.765-4.024 1.18-.92 2.913-1.38 5.2-1.38 2.267 0 3.935.48 5.003 1.434 1.07.96 1.603 2.455 1.603 4.49v9.51c0 .94.027 1.86.086 2.765.06.906.143 1.792.26 2.665h-3.36l-.23-2.557c-.664.886-1.433 1.563-2.313 2.043-.88.473-1.798.71-2.77.71-1.667 0-3.02-.575-4.064-1.725-1.044-1.15-1.565-2.658-1.565-4.517 0-2.34.73-4.1 2.19-5.29 1.452-1.19 3.628-1.784 6.514-1.784h1.89v-1.008c0-1.603-.23-2.705-.678-3.307-.45-.61-1.232-.913-2.34-.913-1.18 0-2.07.263-2.677.785-.606.52-.906 1.284-.906 2.305v.196zm6.638 4.375c-2.71 0-4.6.324-5.668.98-1.07.656-1.603 1.765-1.603 3.32 0 1.008.293 1.84.88 2.51.586.67 1.322 1 2.208 1 1.33 0 2.352-.54 3.082-1.616.736-1.074 1.1-2.61 1.1-4.605v-1.588zM292.833 175.842v-1.313c0-.975.105-1.703.313-2.192.215-.497.56-.92 1.04-1.28.52-.354 1.165-.626 1.926-.796.767-.17 1.71-.26 2.842-.26h.86v2.77c-1.478.042-2.453.28-2.94.715-.483.443-.723 1.58-.723 3.416v2.45h3.663v2.532h-3.662v17.964h-3.317v-17.965h-2.745v-2.532h2.745v-3.51zm8.807 13.72c0-3.738.586-6.446 1.763-8.134 1.177-1.687 3.044-2.53 5.613-2.53 2.576 0 4.45.843 5.6 2.524 1.16 1.68 1.738 4.402 1.738 8.18 0 3.776-.58 6.51-1.743 8.206-1.164 1.694-3.024 2.538-5.593 2.538-2.596 0-4.47-.844-5.633-2.538-1.165-1.695-1.744-4.444-1.744-8.247zm7.377-7.677c-1.4 0-2.407.6-3.025 1.796-.618 1.2-.924 3.172-.924 5.92 0 2.805.306 4.8.918 5.983.61 1.184 1.62 1.776 3.03 1.776 1.4 0 2.4-.593 3.006-1.777.604-1.184.904-3.165.904-5.94 0-2.818-.3-4.82-.904-5.996-.605-1.177-1.607-1.762-3.006-1.762zm14.27-2.573l.326 2.688c.358-1.02.95-1.803 1.79-2.354.838-.55 1.88-.83 3.12-.83.066 0 .163.006.3.02.13.014.24.02.332.02v3.607c-.117 0-.267-.007-.455-.02-.196-.014-.326-.02-.404-.02-1.684 0-2.888.38-3.61 1.143-.715.768-1.073 2.054-1.073 3.858v12.425h-3.357v-17.067c0-.164-.07-.946-.208-2.354l-.117-1.118h3.358zm11.26 8.452h7.565v-1.75c0-1.544-.306-2.707-.917-3.504-.605-.796-1.503-1.197-2.686-1.197-1.322 0-2.304.517-2.942 1.552-.644 1.033-.982 2.667-1.02 4.9zm10.882 5.66c-.105 2.165-.775 3.867-2.01 5.084-1.243 1.225-2.915 1.838-5.022 1.838-2.615 0-4.495-.837-5.633-2.51-1.14-1.675-1.704-4.472-1.704-8.39 0-3.683.586-6.364 1.757-8.038 1.164-1.674 3.025-2.51 5.58-2.51 2.427 0 4.203.666 5.334 2 1.133 1.334 1.7 3.443 1.7 6.328v3.192h-10.902v1.177c0 2.02.305 3.484.923 4.396.62.913 1.6 1.368 2.948 1.368 1.027 0 1.854-.34 2.484-1.02.63-.674 1.028-1.646 1.19-2.913h3.357zm2.972.185h3.662c.04 1.245.338 2.197.898 2.85.553.647 1.36.974 2.412.974.97 0 1.744-.252 2.323-.75.585-.496.878-1.156.878-1.98 0-.612-.22-1.17-.657-1.673-.436-.503-1.164-1.033-2.18-1.59l-3.563-1.92c-1.282-.702-2.186-1.416-2.713-2.144-.527-.72-.793-1.62-.793-2.68 0-1.757.623-3.172 1.866-4.254 1.242-1.082 2.88-1.627 4.917-1.627 1.984 0 3.55.49 4.702 1.477 1.158.98 1.737 2.314 1.737 4v.362h-3.583c0-1.007-.28-1.796-.84-2.368-.56-.572-1.334-.858-2.323-.858-.878 0-1.593.246-2.146.73-.552.482-.825 1.095-.825 1.843 0 .518.15.967.455 1.355.306.38.82.762 1.548 1.136l3.233 1.675c1.86.967 3.123 1.885 3.8 2.743.67.857 1.008 1.912 1.008 3.178 0 1.898-.632 3.415-1.893 4.552-1.27 1.137-2.953 1.708-5.06 1.708-2.252 0-3.956-.57-5.107-1.715-1.158-1.142-1.743-2.816-1.756-5.02zm21.855-20.06v5.803h3.91v2.532h-3.91v12.275c0 1.103.163 1.865.488 2.287.325.415.917.626 1.782.626.306 0 .813-.027 1.522-.082h.116l-.02 2.655c-.52.123-1.007.21-1.47.273-.455.06-.884.088-1.274.088-1.652 0-2.817-.34-3.493-1.014-.67-.68-1.01-1.878-1.01-3.593v-13.515h-2.972v-2.532h2.973v-4.13l3.357-1.674zm9.972 11.145h-3.605v-.402c0-1.775.586-3.13 1.763-4.05 1.177-.924 2.908-1.387 5.19-1.387 2.264 0 3.93.483 4.996 1.443 1.067.965 1.6 2.47 1.6 4.517v9.568c0 .946.026 1.87.084 2.783.06.912.143 1.803.26 2.68h-3.355l-.228-2.57c-.664.89-1.43 1.57-2.31 2.054-.878.477-1.795.715-2.764.715-1.664 0-3.017-.58-4.058-1.736-1.04-1.156-1.56-2.673-1.56-4.544 0-2.355.728-4.124 2.185-5.32 1.45-1.2 3.623-1.798 6.504-1.798h1.888v-1.014c0-1.613-.228-2.722-.677-3.328-.448-.612-1.228-.918-2.334-.918-1.177 0-2.068.265-2.673.79-.605.523-.904 1.292-.904 2.32v.197zm6.627 4.403c-2.706 0-4.593.326-5.66.986-1.066.66-1.6 1.776-1.6 3.34 0 1.016.293 1.853.88 2.526.584.674 1.32 1.007 2.204 1.007 1.328 0 2.35-.544 3.077-1.626.736-1.08 1.1-2.626 1.1-4.633v-1.6zm10.934 10.75h-3.355v-29.402h3.356v29.403zM124.805 168.377h3.904v36.766h-3.905v-36.766zM270.57 168.377h3.905v36.766h-3.904v-36.766z" fill="#017a3c"/></svg>