<?xml version="1.0" encoding="utf-8"?>
<!-- Generator: Adobe Illustrator 23.0.1, SVG Export Plug-In . SVG Version: 6.00 Build 0)  -->
<svg version="1.1" id="Layer_1" xmlns="http://www.w3.org/2000/svg" xmlns:xlink="http://www.w3.org/1999/xlink" x="0px" y="0px"
	 viewBox="0 0 188.7 122.1" style="enable-background:new 0 0 188.7 122.1;" xml:space="preserve">
<style type="text/css">
	.st0{fill-rule:evenodd;clip-rule:evenodd;fill:#FFFFFF;}
	.st1{fill-rule:evenodd;clip-rule:evenodd;fill:#090E1D;}
	.st2{fill-rule:evenodd;clip-rule:evenodd;fill:#AA1D21;}
	.st3{fill:#FFFFFF;}
	.st4{fill-rule:evenodd;clip-rule:evenodd;fill:#E5E6E7;}
	.st5{fill:#090E1D;}
	.st6{fill:#DFAE80;}
	.st7{fill:#AC6027;}
	.st8{fill:#AA1D21;}
	.st9{fill:#650E0B;}
	.st10{fill:#BBBCBF;}
	.st11{fill:#EFD0B1;}
	.st12{fill:#80451D;}
	.st13{fill-rule:evenodd;clip-rule:evenodd;fill:#650E0B;}
	.st14{fill-rule:evenodd;clip-rule:evenodd;fill:#DFAE80;}
	.st15{fill-rule:evenodd;clip-rule:evenodd;fill:#C8CBD1;}
</style>
<g>
	<path class="st0" d="M95,32.2c-1.6,1.5-2.1,2.6-2,5.1c2.9,0.6,4.9,2,6.6,4.2c-0.2-2-1.8-6.8-1.7-7.9C96.9,33.4,95.8,32.9,95,32.2z
		 M124.2,42.6c-0.2-0.1-0.4-0.1-0.5-0.2c-0.8,0.9-1.8,1.4-3,1.6l-0.7,1.3c-0.3,0.4-0.6,0.8-0.9,1.2c-0.9,0.9-2,1.5-3.2,1.9
		c-0.4,0.1-0.9,0.3-1.3,0.4c0.1,2.7,0.3,5.5,0.3,8.2c0,2.8-0.2,6.2-1.1,9.2l5.4,0.1v0l2.2,0l3.4,0v0l14.3,0.2v-0.1l12.4,0.3v0
		l2.4,0.1l2,0l0,0l8.1,0.2c2.9-3,7.2-4.3,11.2-3l12.4,0.1v26.4l-1.6-0.1c1.6,3.2,2.4,6.6,2.4,10.9c0,1-0.1,1.9-0.2,2.9
		c0,2.7,0,4.2-0.9,6.9c-2.5,7.2-9.1,10.3-15.6,6.8l-11.5-2.4v-3.3l-3.4-0.7l-3.9-0.6c-11.2-1.8-22.5-3-33.7-4.1l-3-0.3v0
		c-2.6,0.6-5.4,0.3-8-0.6v0.1l-3.5-0.1c-6-0.2-11.9-0.3-17.9-0.2c-5.9,0.1-11.9,0.3-17.8,0.6l-3.5,0.2v0c-5.1,2-10.4,0.7-14-3
		c-1.4,1.9-3.1,3.5-5.2,4.6c-2.3,1.3-5,1.9-7.6,1.7c-0.7-0.1-1.3-0.2-2-0.3v3.5L18.3,117l-18.6,5.2v-20l2.6-0.6V83.6l-2.6,0.1V64.1
		l22.2-0.3v0l14.6-0.1v3.2c1.4-0.5,2.9-0.8,4.5-0.8c4,0.1,7.4,1.9,9.8,4.8c1.8-2.2,4.2-3.9,7.1-4.7c-3.2-3.6-5.1-9.2-3-13.8
		c0.1-0.2,0.2-0.4,0.3-0.7c0.8-7.3,5.1-11.6,6.4-19.3c-0.8,0-3,1.1-3.8,1.4l-0.4-3.3c-0.8-6.7,0.6-13.3,4.8-18.7
		c9.1-11.8,27.7-14.4,41.3-9.8l4.3,1.5l-3.5,2.9C100.2,9.7,97,13,95.9,18l-0.1,1.4c1.7-3.2,4.4-6.4,8-7.1c1.8-0.3,3.6,0,5.2,0.9
		l21.8,11.7c1,0.5,1.9,1.2,2.5,2.1c1.8,2.8,1.1,6.5-0.2,9.4C131.7,39.5,128.2,43.9,124.2,42.6z"/>
	<polygon class="st1" points="163.4,109.8 163.4,112.7 163.4,109.5 163.4,106.6 	"/>
	<polygon class="st2" points="163.4,106.6 163.4,109.5 155.8,108.1 153.3,100.7 153.3,97.8 155.8,105.2 	"/>
	<path class="st2" d="M17.7,110.8L17.7,110.8l15.5-3.5v2.9l-15.5,3.5v0l-14.6,4v-2.9L17.7,110.8z M5.8,77.2v2.9l-2.6,0.1v-2.9
		L5.8,77.2z M171.9,114.1v0.4l-8.5-1.8v-2.9l8.5,1.8v-0.4c3.7,2.6,7.7,2.5,10.5-1.2c1.4-1.8,2-3.9,2.3-6.1c0,2.5,0.1,3.6-0.7,6
		C182.1,115.3,177.2,117.8,171.9,114.1z M184.1,83.9v2.9l-7.4-0.6v-2.9L184.1,83.9z M119.4,103.4v-2.1c-4.3,3.4-10.6,2.5-14.4-1.1
		l-0.4-0.4v2.7c-13.4-0.4-22.6-0.3-36,0.4V100c-0.2,0.5-2.3,2.1-3,2.5c-5.5,3-11.7,1.1-14.4-5.1L51,96.6v-0.4
		c-0.1,0.7-0.2,1.3-0.8,2.5c-2,4.5-6.2,8-11.4,7.6c-2.1-0.2-3.9-1-5.4-2.5l-0.2-0.2v-2.9c4.7,5,12.3,2.8,15.9-2.9
		c0.9-1.4,1.4-2.7,1.9-4.2c1.7,4.4,4.8,7.4,9.7,7.3c3.2-0.1,5.9-1.5,8-3.8v2.8c13.4-0.7,22.6-0.8,36-0.4v-2.7
		c3.9,3.9,10.3,4.9,14.7,1.5v2.1c11.5,1.1,22.6,2.3,33.9,4.1v2.9C142,105.7,130.9,104.5,119.4,103.4z"/>
	<polygon class="st1" points="119.4,100.5 119.4,103.4 119.4,101.2 119.4,98.3 	"/>
	<polygon class="st1" points="33.2,100.7 33.2,103.6 33.2,110.2 33.2,107.3 	"/>
	<polygon class="st1" points="33.2,67 33.2,69.9 33.2,76.3 33.2,73.4 	"/>
	<polygon class="st1" points="84.5,69.5 84.5,72.4 84.5,72.4 84.5,69.5 	"/>
	<path class="st1" d="M165.4,70.4c2.4-3.4,6.7-4.6,10.2-2.5v-0.5l8.5,0.1v16.6l-7.4-0.6c4.7,5.5,8.2,9.8,8.2,17.9
		c0,9.9-6.9,14.6-13,10v0.4l-8.5-1.8v-3.2l-7.6-1.4l-2.5-7.4v6.8c-11.3-1.8-22.4-3-33.9-4.1v-2.1c-4.1,3.4-10.9,2.6-14.7-1.5v2.7
		c-13.8-0.5-21.7-0.4-36,0.4v-2.8c-4.5,5.3-14.3,6-17.7-3.5c-1.5,4.8-4.6,8.8-10,9.7c-3,0.5-5.7-0.4-7.8-2.6v6.6l-15.5,3.5v0
		l-14.6,4v-10l2.6-0.6v-27l-2.6,0.1v-9.9l15.5-0.2v0L33.2,67v6.3c5.3-6.4,14.6-4.8,17.8,4.4c3-9.3,12.4-11,17.8-5.1v-3l15.8-0.1v0
		l4.3,0v0l15.8,0v2.1c2.4-2.4,5.9-3.2,8.8-1.8v-0.2l7.9,0.1v0l1.1,0v0l19.8,0.2v-0.1l11,0.2l1.4,3.5v-3.5L165.4,70.4z"/>
	<path class="st3" d="M165.1,108.2V96c0-0.1,0-0.2,0.1-0.3c0.1-0.1,0.2-0.1,0.3-0.1c1.5,0.2,3,0.4,4.5,0.6c0.2,0,0.3,0.2,0.3,0.3
		c0,3.7,0.4,7.2,3,7.8c2.7,0.6,3.3-3.6,1.8-7.1c-2.5-6-10.3-10.4-10.3-19.3c0-7.4,5.2-11,9.7-8.8c0.6,0.3,1.3,0.9,2.1,1.8
		c0.1,0.1,0.2,0.1,0.4,0.1c0.1-0.1,0.2-0.2,0.2-0.3c0-0.5,0-0.9,0-1.4c0-0.1,0-0.2,0.1-0.2c0.1-0.1,0.1-0.1,0.2-0.1
		c1.5,0,3,0,4.5,0.1c0.2,0,0.3,0.2,0.3,0.3v12.4c0,0.1,0,0.2-0.1,0.2c-0.1,0.1-0.2,0.1-0.3,0.1c-1.5-0.1-3-0.2-4.5-0.4
		c-0.2,0-0.3-0.2-0.3-0.3c0-3.4-0.4-6.5-2.9-6.6c-2.6-0.1-2.7,3.8-1.5,6c2.7,5.1,10.4,9.5,10.4,20.5c0,10.2-7.3,13.1-12.4,6.5
		c-0.1-0.1-0.2-0.2-0.4-0.1c-0.1,0-0.2,0.2-0.2,0.3c0,0.4,0,0.7,0,1.1c0,0.1,0,0.2-0.1,0.3c-0.1,0.1-0.2,0.1-0.3,0.1
		c-1.5-0.3-3-0.6-4.5-0.9C165.2,108.5,165.1,108.3,165.1,108.2 M144.1,101.1c0-1.3,0-2.5,0-3.8c0-0.1,0-0.2,0.1-0.2
		c0.1-0.1,0.2-0.1,0.3-0.1c0.3,0,0.7,0.1,1,0.1c0.1,0,0.2,0,0.3-0.1c0.1-0.1,0.1-0.2,0.1-0.2V76.4c0-0.2-0.1-0.3-0.3-0.3
		c-0.4,0-0.8,0-1.1,0c-0.2,0-0.3-0.2-0.3-0.3c0-1.3,0-2.5,0-3.8c0-0.1,0-0.2,0.1-0.2c0.1-0.1,0.1-0.1,0.2-0.1c2.5,0,5.1,0.1,7.6,0.2
		c0.1,0,0.3,0.1,0.3,0.2c2.3,5.9,4.1,12.2,5.6,18.7c0,0.1,0.1,0.2,0.3,0.3c0,0,0.1,0,0.1,0c-0.3-7.8-0.3-7.2-0.3-14
		c0-0.2-0.1-0.3-0.3-0.3c-0.3,0-0.7,0-1,0c-0.2,0-0.3-0.2-0.3-0.3c0-1.3,0-2.7,0-4.1c0-0.1,0-0.2,0.1-0.2c0.1-0.1,0.1-0.1,0.2-0.1
		c2.3,0.1,4.5,0.1,6.8,0.2c0.2,0,0.3,0.2,0.3,0.3c0,1.4,0,2.8,0,4.2c0,0.1,0,0.2-0.1,0.2c-0.1,0.1-0.2,0.1-0.2,0.1
		c-0.3,0-0.6,0-0.8,0c-0.1,0-0.2,0-0.2,0.1c-0.1,0.1-0.1,0.1-0.1,0.2v27.2c0,0.1,0,0.2-0.1,0.3c-0.1,0.1-0.2,0.1-0.3,0.1
		c-1.6-0.3-3.1-0.6-4.7-0.9c-0.1,0-0.2-0.1-0.3-0.2c-2.6-7.9-4.9-14.2-6.9-22.2h0c-0.1,0-0.2,0-0.3,0.1c-0.1,0.1-0.1,0.2-0.1,0.3
		c0.4,5.7,0.3,10.1,0.3,15.7c0,0.2,0.1,0.3,0.3,0.3c0.3,0,0.7,0.1,1,0.1c0.2,0,0.3,0.2,0.3,0.3c0,1.3,0,2.6,0,3.9
		c0,0.1,0,0.2-0.1,0.3c-0.1,0.1-0.2,0.1-0.3,0.1c-2.3-0.4-4.6-0.7-6.9-1.1C144.2,101.5,144.1,101.3,144.1,101.1z M130.6,86.8
		c1,0.1,2,0.1,3,0.2c0.1,0,0.2,0,0.3-0.1c0.1-0.1,0.1-0.2,0.1-0.3l-1.4-11.3c0-0.2-0.2-0.3-0.3-0.3c-0.1,0-0.1,0-0.2,0
		c-0.2,0-0.3,0.1-0.3,0.3l-1.4,11.1c0,0.1,0,0.2,0.1,0.3C130.4,86.7,130.5,86.8,130.6,86.8z M121.1,98.6c0-1.2,0-2.3,0-3.5
		c0-0.1,0-0.2,0.1-0.2c0.1-0.1,0.2-0.1,0.3-0.1c0.4,0,0.8,0.1,1.2,0.1c0.2,0,0.3-0.1,0.4-0.3l2.9-18.7c0-0.1,0-0.2-0.1-0.3
		c-0.1-0.1-0.1-0.1-0.2-0.1c-0.4,0-0.7,0-1.1,0c-0.2,0-0.3-0.2-0.3-0.3c0-1.2,0-2.3,0-3.5c0-0.1,0-0.2,0.1-0.2
		c0.1-0.1,0.1-0.1,0.2-0.1c5,0.1,10.1,0.1,15.1,0.2c0.2,0,0.3,0.2,0.3,0.3c0,1.2,0,2.5,0,3.7c0,0.1,0,0.2-0.1,0.2
		c-0.1,0.1-0.2,0.1-0.2,0.1c-0.4,0-0.8,0-1.1,0c-0.1,0-0.2,0-0.3,0.1c-0.1,0.1-0.1,0.2-0.1,0.3l3.1,20.2c0,0.2,0.1,0.3,0.3,0.3
		c0.4,0,0.8,0.1,1.2,0.1c0.2,0,0.3,0.2,0.3,0.3c0,1.3,0,2.5,0,3.8c0,0.1,0,0.2-0.1,0.3c-0.1,0.1-0.2,0.1-0.3,0.1
		c-3-0.4-6.1-0.8-9.1-1.2c-0.2,0-0.3-0.2-0.3-0.3c0-1.2,0-2.4,0-3.6c0-0.1,0-0.2,0.1-0.2c0.1-0.1,0.2-0.1,0.3-0.1
		c0.3,0,0.7,0.1,1,0.1c0.1,0,0.2,0,0.3-0.1c0.1-0.1,0.1-0.2,0.1-0.3c-0.2-1.6-0.4-3.2-0.6-4.8c0-0.2-0.1-0.3-0.3-0.3
		c-1.4-0.1-2.7-0.2-4.1-0.3c-0.2,0-0.3,0.1-0.4,0.3c-0.2,1.5-0.4,3.1-0.6,4.6c0,0.1,0,0.2,0.1,0.2c0.1,0.1,0.1,0.1,0.2,0.1
		c0.4,0,0.7,0.1,1.1,0.1c0.2,0,0.3,0.2,0.3,0.3c0,1.2,0,2.4,0,3.6c0,0.1,0,0.2-0.1,0.2c-0.1,0.1-0.2,0.1-0.3,0.1
		c-3.1-0.3-6.1-0.6-9.1-0.9C121.2,98.9,121.1,98.8,121.1,98.6z M114.5,89.8c-0.4,0-0.9,0-1.3-0.1c-0.2,0-0.3-0.2-0.3-0.3
		c0-1.1,0-2.3,0-3.4c0-0.1,0-0.2,0.1-0.2c0.1-0.1,0.2-0.1,0.2-0.1c2.7,0.1,5.4,0.2,8,0.4c0.2,0,0.3,0.2,0.3,0.3
		c0,4.4-0.5,10-5.3,11.8c-3.7,1.4-8.5,0.3-11.2-3.4c-3.5-4.9-3.5-15.4-0.5-20.4c2.4-4.1,7.5-5.1,10.5-1.2c0,0,0,0,0.1,0
		c0-0.6,0-1.1,0-1.7c0-0.1,0-0.2,0.1-0.2c0.1-0.1,0.1-0.1,0.2-0.1c1.3,0,2.6,0,3.9,0c0.2,0,0.3,0.2,0.3,0.3c0,2.9,0,5.8,0,8.7
		c0,0.1,0,0.2-0.1,0.2c-0.1,0.1-0.1,0.1-0.2,0.1c-1.3,0-2.6-0.1-3.9-0.1c-0.2,0-0.3-0.1-0.3-0.3c-0.3-6-4.2-5.7-4.8-3.2
		c-0.5,2.1-0.8,14.3,0.5,16.3c0.7,1.1,3.8,2.1,4-3.1C114.8,90,114.7,89.8,114.5,89.8z M90.5,97.3c0-1.1,0-2.2,0-3.3
		c0-0.1,0-0.2,0.1-0.2c0.1-0.1,0.1-0.1,0.2-0.1c0.7,0,1.4,0,2.1,0c0.1,0,0.2,0,0.2-0.1c0.1-0.1,0.1-0.1,0.1-0.2V75.4
		c0-0.2-0.1-0.3-0.3-0.3c-0.7,0-1.4,0-2.1,0c-0.2,0-0.3-0.2-0.3-0.3c0-1.1,0-2.2,0-3.3c0-0.1,0-0.2,0.1-0.2c0.1-0.1,0.1-0.1,0.2-0.1
		c3.9,0,7.9,0,11.8,0c0.2,0,0.3,0.2,0.3,0.3c0,1.1,0,2.2,0,3.3c0,0.1,0,0.2-0.1,0.2c-0.1,0.1-0.1,0.1-0.2,0.1c-0.8,0-1.5,0-2.2,0
		c-0.1,0-0.2,0-0.2,0.1c-0.1,0.1-0.1,0.1-0.1,0.2v18c0,0.2,0.1,0.3,0.3,0.3c0.8,0,1.5,0.1,2.3,0.1c0.2,0,0.3,0.2,0.3,0.3
		c0,1.1,0,2.2,0,3.3c0,0.1,0,0.2-0.1,0.2c-0.1,0.1-0.1,0.1-0.2,0.1c-3.9-0.1-7.9-0.2-11.8-0.2C90.7,97.6,90.5,97.5,90.5,97.3z
		 M70.4,97.8c0-1.1,0-2.2,0-3.4c0-0.2,0.1-0.3,0.3-0.3c0.6,0,1.3-0.1,1.9-0.1c0.2,0,0.3-0.2,0.3-0.3V75.5c0-0.1,0-0.2-0.1-0.2
		c-0.1-0.1-0.1-0.1-0.2-0.1c-0.6,0-1.2,0-1.9,0c-0.1,0-0.2,0-0.2-0.1c-0.1-0.1-0.1-0.1-0.1-0.2c0-1.1,0-2.2,0-3.4
		c0-0.2,0.1-0.3,0.3-0.3c3.9,0,7.9-0.1,11.8-0.1c0.1,0,0.2,0,0.2,0.1c0.1,0.1,0.1,0.1,0.1,0.2c0,1.1,0,2.2,0,3.3
		c0,0.2-0.1,0.3-0.3,0.3c-0.8,0-1.6,0-2.5,0c-0.2,0-0.3,0.2-0.3,0.3v18c0,0.1,0,0.2,0.1,0.2c0.1,0.1,0.1,0.1,0.2,0.1
		c1.4,0,2.7,0,4.1-0.1c0.2,0,0.3-0.2,0.3-0.3c0-2.4,0-4.8,0-7.2c0-0.2,0.1-0.3,0.3-0.3c1.5,0,2.9,0,4.4,0c0.1,0,0.2,0,0.2,0.1
		c0.1,0.1,0.1,0.1,0.1,0.2v11.1c0,0.2-0.1,0.3-0.3,0.3c-6.2,0.1-12.4,0.3-18.5,0.6c-0.1,0-0.2,0-0.2-0.1
		C70.4,98,70.4,97.9,70.4,97.8z M61.2,94.6c1.7-0.1,2-1.7,2.1-3.6c0.2-2.1,0.6-12.9-0.7-14.8c-0.6-1-2.3-0.9-2.9,0.1
		c-1.3,2-0.9,12.9-0.7,15C59.2,93.1,59.5,94.7,61.2,94.6z M61.2,99.2c-11.3,1-11.4-17.8-7.1-24.3c4.9-7.3,16.9-5.2,16.9,9.7
		C70.9,90.9,68.5,98.6,61.2,99.2z M40.7,96.7c1.7-0.2,2-1.9,2.1-3.9c0.2-2.3,0.6-13.8-0.7-15.9c-0.6-1-2.3-0.9-2.9,0.1
		c-1.3,2.2-0.9,13.9-0.7,16.3C38.8,95.2,39.1,96.9,40.7,96.7z M40.7,101.7c-5.4,0.8-8.4-3.5-9.4-9.3c-1-5.8-0.1-12.8,2.3-16.8
		c4.8-7.9,16.9-5.8,16.9,10C50.5,92.1,48.2,100.6,40.7,101.7z M4.8,112.2c0-1.9,0-3.9,0-5.8c0-0.2,0.1-0.3,0.3-0.3
		c0.7-0.2,1.4-0.3,2.1-0.5c0.2,0,0.3-0.2,0.3-0.3V75.8c0-0.1,0-0.2-0.1-0.2c-0.1-0.1-0.2-0.1-0.2-0.1c-0.6,0-1.3,0.1-1.9,0.1
		c-0.1,0-0.2,0-0.2-0.1c-0.1-0.1-0.1-0.1-0.1-0.2c0-1.9,0-3.9,0-5.8C4.8,69.2,5,69,5.2,69c3.8,0,7.6-0.1,11.4-0.1
		c0.1,0,0.2,0,0.2,0.1c0.1,0.1,0.1,0.1,0.1,0.2c0,1.8,0,3.6,0,5.4c0,0.2-0.1,0.3-0.3,0.3c-0.2,0-0.5,0-0.7,0c-0.2,0-0.3,0.2-0.3,0.3
		c0,3.2,0,6.3,0,9.5c0,0.1,0,0.2,0.1,0.2c0.1,0.1,0.2,0.1,0.3,0.1c1.5-0.2,3-0.3,4.5-0.5c0.2,0,0.3-0.2,0.3-0.3c0-3.1,0-6.2,0-9.2
		c0-0.1,0-0.2-0.1-0.2c-0.1-0.1-0.2-0.1-0.2-0.1c-0.2,0-0.4,0-0.7,0c-0.1,0-0.2,0-0.2-0.1c-0.1-0.1-0.1-0.1-0.1-0.2
		c0-1.8,0-3.5,0-5.3c0-0.2,0.1-0.3,0.3-0.3c3.8,0,7.6-0.1,11.4-0.1c0.1,0,0.2,0,0.2,0.1c0.1,0.1,0.1,0.1,0.1,0.2c0,1.6,0,3.3,0,4.9
		c0,0.2-0.1,0.3-0.3,0.3c-0.7,0-1.3,0-1.9,0.1c-0.2,0-0.3,0.2-0.3,0.3v25.7c0,0.1,0,0.2,0.1,0.3c0.1,0.1,0.2,0.1,0.3,0.1
		c0.6-0.1,1.2-0.2,1.8-0.3c0.1,0,0.2,0,0.3,0.1c0.1,0.1,0.1,0.2,0.1,0.3c0,1.6,0,3.3,0,4.9c0,0.2-0.1,0.3-0.3,0.3
		c-3.8,0.8-7.6,1.6-11.4,2.5c-0.1,0-0.2,0-0.3-0.1c-0.1-0.1-0.1-0.2-0.1-0.3c0-1.7,0-3.5,0-5.3c0-0.2,0.1-0.3,0.3-0.3
		c0.3-0.1,0.5-0.1,0.8-0.2c0.2,0,0.3-0.2,0.3-0.3V90.9c0-0.1,0-0.2-0.1-0.3c-0.1-0.1-0.2-0.1-0.3-0.1c-1.5,0.2-3,0.4-4.5,0.6
		c-0.2,0-0.3,0.2-0.3,0.3v11.5c0,0.1,0,0.2,0.1,0.3c0.1,0.1,0.2,0.1,0.3,0.1c0.2,0,0.4-0.1,0.6-0.1c0.1,0,0.2,0,0.3,0.1
		c0.1,0.1,0.1,0.2,0.1,0.3c0,1.8,0,3.6,0,5.4c0,0.2-0.1,0.3-0.2,0.3c-3.8,1-7.6,2.1-11.4,3.2c-0.1,0-0.2,0-0.3-0.1
		C4.9,112.4,4.8,112.3,4.8,112.2z"/>
	<path class="st4" d="M73.6,83.9c1.8,0,3.7-0.1,5.5-0.1v9.7c0,0.3,0.1,0.5,0.3,0.7c0.2,0.2,0.4,0.3,0.7,0.3c1.4,0,2.8,0,4.1-0.1
		c0.5,0,0.9-0.4,0.9-1c0-2.3,0-4.6,0-6.9c1.3,0,2.6,0,3.8,0V97c-6,0.1-12,0.2-18,0.5c0-0.9,0-1.8,0-2.8c0.5,0,1.1,0,1.6-0.1
		c0.5,0,0.9-0.4,0.9-1V83.9z M52.1,84.6c2-0.1,4-0.2,6.1-0.3c0,2.9,0.1,5.8,0.3,7.1c0.2,1.7,0.5,4,2.8,3.8c2.2-0.2,2.5-2.3,2.7-4.1
		c0.1-1.3,0.3-4.1,0.2-7c2-0.1,4.1-0.1,6.1-0.2c0,0.2,0,0.5,0,0.7c0,5.9-2.2,13.3-9.2,14c-1.7,0.2-3.4-0.2-4.8-1.2
		C53,95,52.1,89.8,52,86.1C52,85.6,52.1,85.1,52.1,84.6z M31.6,85.8c2-0.1,4.1-0.3,6.1-0.4c0,3.3,0.1,6.5,0.3,8
		c0.2,1.7,0.5,4.3,2.8,4c2.2-0.3,2.5-2.7,2.7-4.5c0.1-1.4,0.3-4.6,0.2-7.9c2-0.1,4.1-0.2,6.1-0.3c0,0.3,0,0.7,0,1
		c0,6.1-2.2,14.3-9.2,15.4c-5.5,0.9-7.9-4.2-8.7-8.8C31.6,90.4,31.5,88.1,31.6,85.8z M168.4,86.7c3.1,0.3,6,0.6,8.9,0.9
		c0.4,0.5,0.9,1.1,1.3,1.6c2.7,3.7,4.1,7.4,4.1,12c0,2.2-0.4,4.6-1.5,6.6c-0.8,1.3-1.9,2.4-3.4,2.7c-2.6,0.6-4.9-1.2-6.4-3.1
		c-0.3-0.3-0.7-0.5-1.1-0.3c-0.4,0.1-0.6,0.5-0.6,0.9c0,0.2,0,0.5,0,0.7c-1.3-0.3-2.6-0.5-3.9-0.8V96.3c1.3,0.2,2.6,0.4,3.9,0.6
		c0,2.8,0.2,7.5,3.5,8.1c0.6,0.1,1.2,0.1,1.7-0.2c1.1-0.6,1.5-2.1,1.6-3.2c0.1-1.5-0.2-3.1-0.8-4.5c-1.3-3.2-4.1-6-6.2-8.7
		C169.1,87.8,168.7,87.3,168.4,86.7z M151.9,85.4c1.4,0.1,2.8,0.2,4.2,0.3c0.4,1.7,0.9,3.4,1.2,5c0.1,0.4,0.4,0.7,0.8,0.7
		c0,0,0.1,0,0.1,0l0.7,0.1l0-0.7c-0.1-1.6-0.1-3.3-0.2-4.9c1,0.1,2,0.1,2.9,0.2V104c-1.4-0.3-2.8-0.5-4.2-0.8
		C155.6,97.3,153.6,91.4,151.9,85.4z M146.5,85.1c1,0.1,1.9,0.1,2.9,0.2c0.2,4.1,0.2,8.1,0.2,12.2c0,0.5,0.4,0.9,0.8,1
		c0.2,0,0.5,0.1,0.7,0.1c0,1.1,0,2.2,0,3.3c-2.1-0.3-4.2-0.7-6.3-1c0-1.1,0-2.1,0-3.2c0.2,0,0.5,0.1,0.7,0.1c0.3,0,0.5-0.1,0.7-0.2
		c0.2-0.2,0.3-0.4,0.3-0.7V85.1z M125.3,84.1c1.5,0.1,3.1,0.1,4.6,0.2l-0.3,2c0,0.3,0,0.5,0.2,0.7c0.2,0.2,0.4,0.3,0.7,0.3
		c1,0.1,2,0.1,3,0.2c0.3,0,0.6-0.1,0.8-0.3c0.2-0.2,0.3-0.5,0.3-0.8l-0.3-2c1.5,0.1,3,0.1,4.5,0.2l1.9,11.9c0.1,0.4,0.4,0.8,0.8,0.8
		c0.3,0,0.7,0.1,1,0.1c0,1.1,0,2.1,0,3.2c-2.8-0.4-5.7-0.8-8.5-1.1c0-1,0-2,0-3c0.2,0,0.5,0,0.7,0.1c0.3,0,0.6-0.1,0.8-0.3
		c0.2-0.2,0.3-0.5,0.3-0.8c-0.2-1.6-0.4-3.2-0.6-4.8c-0.1-0.5-0.4-0.8-0.9-0.8c-1.4-0.1-2.7-0.2-4.1-0.3c-0.5,0-1,0.3-1,0.8
		c-0.2,1.5-0.4,3.1-0.6,4.6c0,0.3,0,0.5,0.2,0.7c0.2,0.2,0.4,0.3,0.7,0.4c0.3,0,0.6,0.1,0.8,0.1c0,1,0,2,0,3
		c-2.9-0.3-5.7-0.6-8.6-0.9c0-1,0-1.9,0-2.9c0.3,0,0.6,0,0.9,0.1c0.5,0,0.9-0.3,1-0.8L125.3,84.1z M103.1,83.7c2.1,0,4.1,0,6.2,0.1
		c0,0.5,0,0.9,0,1.4c0,1.8,0.1,7.1,1.1,8.5c0.6,0.9,1.9,1.4,2.9,1c1.8-0.5,2.2-2.9,2.2-4.5c0-0.5-0.4-1-0.9-1c-0.3,0-0.7,0-1-0.1
		c0-0.9,0-1.9,0-2.8c2.5,0.1,5,0.2,7.4,0.3c0,4-0.5,9.3-4.9,10.9c-3.7,1.4-8.2,0-10.5-3.2C103.8,91.9,103,87.7,103.1,83.7z
		 M94.1,83.6c1.8,0,3.6,0,5.4,0v9.8c0,0.5,0.4,0.9,0.9,1c0.7,0,1.3,0.1,2,0.1c0,0.9,0,1.8,0,2.7c-3.7-0.1-7.5-0.2-11.2-0.2
		c0-0.9,0-1.8,0-2.7c0.6,0,1.2,0,1.8,0c0.3,0,0.5-0.1,0.7-0.3c0.2-0.2,0.3-0.4,0.3-0.7v-9.7H94.1z M5.5,111.8c3.6-1,7.2-2,10.9-3
		c0-1.6,0-3.2,0-4.8c-0.1,0-0.1,0-0.2,0c-0.3,0.1-0.6,0-0.8-0.2c-0.2-0.2-0.4-0.5-0.4-0.7V91.6c0-0.5,0.4-0.9,0.8-1
		c1.5-0.2,3-0.4,4.5-0.6c0.3,0,0.6,0,0.8,0.2c0.2,0.2,0.3,0.4,0.3,0.7v11.2c0,0.5-0.3,0.8-0.8,0.9c-0.2,0-0.4,0.1-0.6,0.1
		c0,1.5,0,3.1,0,4.6c3.6-0.9,7.2-1.7,10.9-2.4c0-1.4,0-2.9,0-4.3c-0.5,0.1-1,0.2-1.5,0.3c-0.3,0-0.6,0-0.8-0.2
		c-0.2-0.2-0.3-0.4-0.3-0.7V86c-7.1,0.5-13.9,1.2-20.2,1.9v17.3c0,0.4-0.3,0.8-0.7,0.9c-0.6,0.2-1.2,0.3-1.9,0.4
		C5.5,108.3,5.5,110,5.5,111.8z"/>
	<path class="st5" d="M100.9,31.1c-2.3-0.4-4.7-0.9-5-2.8c-0.8-4.8,4.8-17.5,11.8-13.7l21.9,11.7c5.6,2.5-0.6,14.5-4.8,13.2
		c-0.8-0.2-1.5-0.6-2.3-1c-0.8,2.3-2.4,2.5-3.4,2.3l-1.5,2.5c-1.2,2-4.2,2.2-5.8,2.8c0.1,7.5,2.3,22.7-6.1,24.3
		c0.1,0.4,0.1,0.7,0.2,1.1c-1.7,0.6-2,0.9-3.4,1.8c-0.2-0.5-0.5-0.9-0.9-1.3c-7.9,1.2-20.2,6.4-24.9-0.3c-2.6,0.5-5.7,0.2-9.5-4
		c-7.9-0.1-13.5-10.4-9.8-15.8c0.5-4.3,1.2-6.2,2.4-7.7c1.7-3.7,4-9.3,4.3-14.2c-1.3-0.6-3-1-4.5-0.3C57,6.8,83.2-2.8,102.6,3.8
		c-4.8,3.9-8,7.7-9.2,13.1l-0.2,4.2c-0.5,0.3-1,0.5-1.5,0.6c-0.3,2.6,0.4,5.2,1.8,7.8c-0.4,0.4-0.8,0.8-1.3,1.2
		c-0.4-0.1-1.5-0.2-2.5-0.4c0,0.9,0.3,1.8,0.5,2.6c-0.4,0-0.9-0.1-1.3-0.1c-0.1,0.4-0.2,0.8-0.2,1.2c0.7,0,1.3,0.1,2,0.2
		c-0.2,0.7-0.2,1.9-0.1,2.7c-0.7,0-1.3,0.1-1.8,0.2c-0.1,0.3-0.1,0.5-0.1,0.8c0.5,0,1.5,0.3,2.4,1c1.3,0.1,4.9,0.5,5.6,3.3
		c1.4,0.2,3.4,1.5,5.1,6.6c0.8-1,1.6-2,2.4-3c0.3-1.4,0.5-2.9,0.4-4.1c-0.1-0.1-0.3-0.2-0.4-0.3c-0.6-0.1-1.3-0.2-1.8-0.1
		c-0.2-1.4-0.4-3.4-0.8-4c0.3-0.6,0.7-1.2,0.7-1.9C100.8,34.7,99.9,33.7,100.9,31.1"/>
	<path class="st6" d="M94.8,42.2c-0.6-1.1-1.7-1.5-2.6-1.9c0.1,0.2,0.2,0.5,0.2,0.8C93.2,41.3,94,41.7,94.8,42.2"/>
	<path class="st6" d="M99.7,51.3c0.3-0.4,0.5-0.7,0.8-1.1c-0.8-3.3-2.4-5.2-4.1-6.5C98.4,45.8,99.7,48.8,99.7,51.3"/>
	<path class="st7" d="M65.4,24.2c-0.3-0.6,0.5-3.8,2.7-3.1c-0.1-0.5-0.6-0.7-1.9-0.3c-2.5,0.8-1.9,5.6-0.1,7.7
		c1.2,1.4,1.6,1.3,2.3,0.5c0.3-0.5,0.5-1,0.5-1.6c-0.4,0.1-0.9,0.1-1.3,0.2c0-0.2,0.1-0.5,0.2-0.8c-2-0.9,0.2-3,0.3-3.1
		c0.1-0.1,0.2-0.3,0.3-0.4c-0.3-0.3-0.2-0.9-0.2-1.4C66.7,21.3,66,22.5,65.4,24.2"/>
	<path class="st6" d="M65.4,24.2c-0.3-0.6,0.5-3.8,2.7-3.1c-0.1-0.5-0.6-0.7-1.9-0.3c-0.4,0.1-0.7,0.3-0.9,0.6
		c-0.7,2.3-0.6,3.5,0,4.1c0.3-1.2,0.8-2.3,1.9-2.9c-0.3,0.6-0.2,1,0,1.3c-1.2,1.3-1.3,2.6-0.4,3.5l-0.3,0.9l1.6-0.2
		c0.1,0.7-0.3,1.3-0.8,1.6c0.4,0.1,0.6-0.1,1-0.5c0.3-0.5,0.5-1,0.5-1.6c-0.4,0.1-0.9,0.1-1.3,0.2c0-0.2,0.1-0.5,0.2-0.8
		c-2-0.9,0.2-3,0.3-3.1c0.1-0.1,0.2-0.3,0.3-0.4c-0.3-0.3-0.2-0.9-0.2-1.4C66.7,21.3,66,22.5,65.4,24.2"/>
	<path class="st8" d="M79.1,36.8c0.1,2.6-1,4.3-1.8,4.5c0.2-0.2,0.4-0.5,0.5-0.9c-2.6,0.2-4.6-0.4-6-2.1c-0.3,0.5-0.7,1-1.2,1.3
		c1-2.6,2-6.1,1.6-10.6c-0.9,0.3-1.9,0.2-2.9-0.2c-0.5,0.9-1.2,1.6-1.8,1.5l0,0c-0.1,0-0.3,0-0.4,0c0.8,3.7,0.4,6.5-0.5,8.8
		c1,0.1,3,0.5,3.7,0.3c-0.4,0.3-1.2,0.4-2,0.4c4.4,0.8,8.7,2.1,12.2,4.3c2.4-1.1,5.1-2.1,8-2.5c-0.8-1.2-0.9-2.6-0.3-4
		c-0.1,0-0.2,0.1-0.3,0.1c-0.6,1.2-0.7,3.3-0.3,3.8c-0.1,0-0.9-0.1-1.1-0.2c-2,0.1-3.4,0.1-5.3-0.4c0,0.3,0,0.5,0,0.7
		C80.5,41.1,80.4,38.3,79.1,36.8"/>
	<path class="st9" d="M80.6,44.2c2.4-1.1,5.1-2.1,8-2.5c-0.5-0.7-0.7-1.4-0.7-2.1h0l-0.2,2c-0.1,0-0.9-0.1-1.1-0.2
		c-1.8,0.1-3,0.1-4.5-0.2l2.4,0.6l-1.7,0.5l1.3,0C84,42.3,81.5,43.3,80.6,44.2"/>
	<path class="st9" d="M81.2,41.7c-0.8-0.6-0.8-3.4-2.1-4.9C80,38.6,79.4,41.1,81.2,41.7"/>
	<path class="st9" d="M70.7,39.7c1-2.6,2-6.1,1.6-10.6c-0.9,0.3-1.9,0.2-2.9-0.2c-0.2,0.4-0.5,0.7-0.7,1c1.2,1.5,0.9,3.4,0.3,5.5
		c0.9-0.7,1.4-1.8,1.3-3.3C71.6,34.2,71.1,36.9,70.7,39.7"/>
	<path class="st9" d="M77.3,41.3c0.2-0.2,0.4-0.5,0.5-0.9c-2.6,0.2-4.6-0.4-6-2.1c-0.1,0.2-0.3,0.4-0.4,0.6c1.6,1,3.2,2,5.6,1.8
		c0,0.2-0.1,0.4-0.1,0.5C77.1,41.3,77.2,41.3,77.3,41.3"/>
	<path class="st3" d="M82.3,32.6c2.3,0.7,4.3,1,5.6,0.9c-0.1-0.2,0-0.5,0.1-0.7c-1.9-0.1-3.8-0.4-5.5-1.1
		C82.5,32,82.4,32.3,82.3,32.6"/>
	<path class="st10" d="M87.4,33.5c0.2,0,0.3,0,0.5,0c-0.1-0.2,0-0.5,0.1-0.7c-1.9-0.1-3.8-0.4-5.5-1.1c0,0.1,0,0.3,0,0.4
		c1.5,0.6,3.2,0.9,5.1,1L87.4,33.5z"/>
	<path class="st3" d="M85.9,34.3c-1.5-0.1-2.8-0.4-4-0.9c-0.1,0.1-0.2,0.2-0.3,0.3c0.3,0.5,0.7,1.1,1,1.6
		C83.7,34.9,84.8,34.5,85.9,34.3"/>
	<path class="st11" d="M94.3,64.7c-12.8,9.6-18.1-0.6-18-2.3C77.7,65.6,84.5,69.8,94.3,64.7 M71,59.8c0.7-4.1,0.1-8-0.2-10.2
		c1.7,4.2,2.4,8,1.5,12.4c-4.3-1.5-8.5-3.5-9.7-8.3C64.1,56.2,65.2,57.7,71,59.8z M77.1,43.5c-2.9-1.5-7-2.7-11.8-3.4
		c0.9-0.9,2-3.7,0.9-10.1c-0.2-0.1-0.4-0.3-0.6-0.4c-0.3,4.6-1.7,8.5-3.2,12.1c0.9-0.8,1.8-1.8,3-3.1c-1.3,5-6.5,5-6.2,11.7
		c0.7-0.5,1.6-0.9,2.6-1.2c0.5-5,4.1-4.8,8.4-1c-4.7-2-7.1-4.1-8.3,4.6c-0.1-0.6-0.1-1.3-0.1-1.8c-9.3,1.6-1.2,20.2,11.5,15
		c-1.2,0.8-2.5,1.3-3.6,1.6c6.5,7.3,11.9-1.1,13.9,3.2c-1.2-0.9-2.7-0.2-4.5,0.4c4.2,5.7,13.9,0.8,21.1-0.3
		c-0.2-0.1-0.4-0.2-0.6-0.3c1.3,0.1,2.5,0.5,3.3,1.5c0.6-0.2,1.1-0.5,2.1-1.1c-0.6-1-0.1-2.9,1-4c-0.1,0.6-0.2,1.3-0.2,1.9
		c6.1-7.7,0.1-12.4,2.2-22.1c-0.4,9.8,4.5,15.6-0.8,21.9c6.6-4.7,1.6-18.6,5-25.6c-0.1,0.6-0.2,1.3-0.2,2.3c1.3-0.4,3.9-0.8,4.8-2.7
		l1.3-2.7c-0.5-0.9-0.8-2.5-2.1-2.7c-0.7,0-1.6,0.3-2.2,0.2c-0.4-0.4-0.5-0.9-0.9-1.3c-0.6-0.4-1.4,0-1.8,0.2
		c0.4-0.6,0.5-0.8,2.1-0.7c0.3,0.3,0.6,0.6,1,0.9c0.7,0,1.4-0.2,2.1-0.2c1.2,0.4,2.2,1.2,2.7,2.1l0.6-1.3c-0.6,0-1.4,0.1-2.1-0.3
		c-0.6-0.3-1.1-1-2-1.4c-0.4-0.1-1.4,0-1.8-0.2c-0.5-0.2-0.9-1-1.4-1.2c-0.8-0.3-1.7-0.1-2.4-0.4c-0.7-0.3-1-0.9-1.6-1.1
		c-0.5-0.2-1.3-0.2-1.7-0.4c-0.8-0.5-1.5-0.3-1.7,0.6c0.4,0.3,0.6,0.3,1.2,0.5c0.4,0.1,0.7,0.3,0.9,0.5h0c0.5,0.2,2,2.4-2.1,3.7
		c0.2-0.4,0.6-0.8,1-1.2c-0.2,0-0.5-0.1-0.8-0.2v0c-0.6-0.2-1.2-0.4-1.8-0.6c-0.1,0.6-0.4,1-0.8,1.5c0.6,1,0.8,1.8,0.9,3.1
		c0.2,0.1,0.6,0.1,0.9,0.2h0c0.2,0,0.5,0.2,0.7,0.3c0.1,0.1,0.2,0.1,0.3,0.2c1.5,1.2,3.1,4,1.7,4.8c-0.1-0.9-0.6-2.2-1.3-3.1
		c0.3,3.1-1.2,7.2-2.9,8.7c0.2-0.9,0.6-2.3,1-3.8C99,54,94.7,58.2,97,65.7c-2-1.9-2.2-4.3-1.4-7c-6.8-7.9-19.1-0.1-19.2-0.1
		c2.6-6.8-4.1-13.8-8.5-12.9c0.8-0.4,1.7-0.5,2.6-0.3C71.9,44.5,73.9,43.7,77.1,43.5z"/>
	<path class="st6" d="M104.7,37.7c0.2-0.4,0.6-0.8,1-1.2c-0.2,0-0.5-0.1-0.8-0.2v0c-0.6-0.2-1.2-0.4-1.8-0.6c-0.1,0.6-0.4,1-0.8,1.5
		c0.6,1,0.8,1.8,0.9,3.1c0.2,0.1,0.6,0.1,0.9,0.2h0c0.2,0,0.5,0.2,0.7,0.3c0.1,0.1,0.2,0.1,0.3,0.2c1,0.8,2,2.3,2.2,3.5h0
		c-0.2-2.2-1.3-3.9-3.3-5c0.3-0.7,0.3-1.4-0.1-2C104.2,37.6,104.4,37.6,104.7,37.7"/>
	<path class="st6" d="M113.3,35.3c-0.4-0.3-0.7-0.9-1.2-1.1c-0.8-0.3-1.7-0.1-2.4-0.4c-0.7-0.3-1-0.9-1.6-1.1
		c-0.5-0.2-1.3-0.2-1.7-0.4c-0.8-0.5-1.5-0.3-1.7,0.6c0.4,0.3,0.6,0.3,1.2,0.5c0.4,0.1,0.7,0.3,0.9,0.5h0c0.5,0.2,2,2.4-2.1,3.7
		c1.4,0.1,2.8,0,4-2.1c0.2-0.3,0-1.1-0.5-1.5c1.9,1,1.6,1.1,3.7,0.8C112.6,34.7,113.3,35.3,113.3,35.3"/>
	<path class="st6" d="M79.1,71.1c4.2,5.7,13.9,0.8,21.1-0.3c-0.2-0.1-0.4-0.2-0.6-0.3c1.3,0.1,2.5,0.5,3.3,1.5
		c0.6-0.2,1.1-0.5,2.1-1.1c-0.2-0.4-0.3-0.8-0.3-1.3c-0.4,0.5-0.9,0.9-1.7,1c-0.3-0.4-0.8-0.8-1.8-1.3c-1.8-4.7-0.7-10.7,1-16.9
		c-2.3,5.4-4.7,11.6-3,17.2C88.5,73.7,82.7,73.2,79.1,71.1"/>
	<path class="st6" d="M108,46.7c-0.4,9.8,4.5,15.6-0.8,21.9c6.5-4.6,1.9-17.9,4.7-25c-1.8,2.4-2.1,5.2-1.9,8.3
		C108.7,50.7,108.3,48.7,108,46.7"/>
	<polygon class="st12" points="107.5,51.5 107.5,51.5 107.5,51.5 	"/>
	<path class="st6" d="M65.6,29.6c-0.3,4.6-1.7,8.5-3.2,12.1c0.6-0.6,1.4-1.3,2.2-2.2C63.3,40.1,66.5,32.3,65.6,29.6"/>
	<path class="st6" d="M95.7,63.9c-0.5-1.2-0.6-2.4-0.4-3.8v0c-5.1-5.9-14.9-0.8-14.9-0.8c4.3-0.9,7.3-0.7,9.1,0.4
		c-3.5-0.5-7.1-0.4-11.1,1c0.1,8.9,11.2,6.5,15.9,3.9c-0.3,0.2-0.6,0.4-0.9,0.6C94.7,64.6,95.7,63.9,95.7,63.9L95.7,63.9z"/>
	<path class="st6" d="M77.1,43.5c-2.9-1.5-7-2.7-11.8-3.4c3.3,0.7,6.3,1.6,8.3,2.8c-2.4,0.5-3,1.1-3.6,1.7c-1-0.6-2-0.4-3-0.1
		c0,0-3.1-1.7-4.7,2.6c0.9-2.3,2.8-2.5,5.3-1.1h0c0,0,0.1-0.2,0.4-0.4c0,0,0,0,0,0c0.1,0,0.1-0.1,0.2-0.1c0.2-0.1,0.5-0.2,0.8-0.2
		l0,0l0,0c0.5-0.1,1-0.1,1.6,0C71.9,44.5,73.9,43.7,77.1,43.5"/>
	<path class="st6" d="M70.7,49.6l0.6,6.7C71.3,53.5,71,51.2,70.7,49.6 M66.7,59.4c1.3,2.2,3.5,3.1,6.1,3.4c1.3-3.9,0.1-8.5-2.1-13.3
		c1.7,4.2,2.4,8,1.5,12.4C70.3,61.3,68.3,60.5,66.7,59.4L66.7,59.4z"/>
	<path class="st6" d="M59.3,61L59.3,61c2.5,4.2,7.7,7.5,14,4.9c-1.2,0.8-2.5,1.3-3.6,1.6c6.5,7.3,11.9-1.1,13.9,3.2
		c-1.2-4.2-8.8,0.4-11.5-2.9c1.7-0.7,3.1-1.5,3.8-2.8c-10.3,0-15.7-4-15.4-12.5C59.2,53.8,58.3,58.7,59.3,61"/>
	<path class="st3" d="M69.8,47.8c-3.1-1.4-5.2-2.6-6.5-0.1C64.6,46,68.4,47.3,69.8,47.8"/>
	<path class="st3" d="M76.9,56.8c0.9-6-4.7-11.6-8.6-11.1C69.6,45.8,75.9,47.7,76.9,56.8"/>
	<path class="st3" d="M112,44.4c0,0.3,0,0.6,0,0.9c1.3-0.4,3.9-0.8,4.8-2.7l1-2.2l0,0l0.3-0.6l0,0l0,0l0,0l0,0l0,0l0,0l0,0l0,0l0,0
		l0,0l0,0l0,0l0,0l0,0l0,0l0,0l0,0l0,0l0,0l0,0l0,0l0,0l0,0l0,0l0,0l0,0l0,0l0,0l0,0l0,0l0,0l0,0l0,0l0,0l0,0l0,0l0,0l0,0l0,0l0,0
		l0,0l0,0l0,0l0,0l0,0l0,0l0,0l0,0l0,0l0,0l0,0l0,0l0,0l0,0l0,0l0,0l0,0l0,0l0,0l0,0l0,0l0,0l0,0l0,0l0,0l0,0l0,0l0,0l0,0
		c-0.4-0.9-0.8-2.2-2-2.3c-0.4,0-0.9,0.1-1.3,0.1c0.2,0,2.6-0.3,3.1,2.7C116.4,43.7,114.5,44.2,112,44.4"/>
	<path class="st3" d="M105.9,66.9c-0.1,0.6-0.2,1.3-0.2,1.9c4.5-5.7,2.4-9.7,1.9-15.3C108.4,60.7,108.1,64.8,105.9,66.9"/>
	<path class="st3" d="M103.2,49.6c0.2-0.6,0.3-1.2,0.5-1.9c-2.5,3.4-4.9,6.2-6.2,9.2C97.3,56.8,101.1,51.1,103.2,49.6"/>
	<path class="st3" d="M70.7,49.6c0,0,0.2,8.4-1.2,9.7c0.4,0.2,0.9,0.3,1.4,0.5C71.7,55.7,71.1,51.8,70.7,49.6"/>
	<path class="st3" d="M95.4,59.4c0.1-0.2,0.1-0.5,0.2-0.7c-6.8-7.9-19.1-0.1-19.2-0.1C76.7,58.4,89.8,52.4,95.4,59.4z"/>
	<path class="st11" d="M85.9,43.7c-2,0.6-3.9,1.3-5.2,2.4c-0.5-0.5-1-0.9-1.7-1.4c-2-0.2-4.9-0.1-8.2,0.8c3.5,0.7,7.6,4.5,8.1,9.3
		c2.6-1.1,8.9-3.1,14.3,0.5C93.4,46.7,88.4,44.3,85.9,43.7"/>
	<path class="st3" d="M85.9,43.7c-0.5,0.1-0.9,0.3-1.4,0.4c0,0,7.5,1.3,8.7,11.2C93.4,46.7,88.4,44.3,85.9,43.7"/>
	<path class="st11" d="M89.9,42.6c-0.1,0-0.2,0.1-0.3,0.1l0,0c-0.3,0.1-0.6,0.1-0.9,0.2c2.2,1.3,5.7,4.7,5.4,13.2
		c0.6,0.5,1.2,1.1,1.7,1.8c0.7-1.8,1.8-3.6,3-5.5C98.8,47.9,94.8,41.4,89.9,42.6"/>
	<path class="st6" d="M89.9,42.6c-0.1,0-0.2,0.1-0.3,0.1l0,0c-0.3,0.1-0.6,0.1-0.9,0.2c2.2,1.3,5.7,4.7,5.4,13.2
		c1.7-9.4-3.4-13.5-3.5-13.6C90.4,42.5,90.2,42.5,89.9,42.6"/>
	<path class="st3" d="M98.3,53.3c0.2-0.3,0.4-0.7,0.7-1c-0.2-3.7-3-8.9-6.8-9.8C92.4,42.6,97.4,44,98.3,53.3z"/>
	<path class="st6" d="M88.6,39.3c0.2,0.7,0.5,1.3,0.9,1.8c0.5-0.1,1.1-0.1,1.6-0.1C90.9,39.9,89.4,39.8,88.6,39.3"/>
	<path class="st11" d="M82.8,22.4c3.3,1,4.1,1.1,6.1,0.3c-1.7,2-6.3,0.5-6.3,0.5L82.8,22.4z M81.9,31c-0.8,0.4-1.4,1-2,1.6
		c1.3-3.1,5.7-4.2,7.4-4.4l0.5-0.9c0.1,0.4,0.2,0.9,0.3,1.3c0.1,0.2,0.2,0.3,0.4,0.5c1.2,0.2,2.4,0.4,3.5,0.6
		c0.2-0.2,0.4-0.4,0.6-0.5c-1.8-2.5-1.9-4.9-1.7-7.3c-0.9,0.2-1.7,0.1-2.4-0.2c-0.8,0.3-1.5,0.4-2.1,0.3c-0.5-0.1-0.9-0.3-1.3-0.4
		c-0.2-0.1-0.4-0.2-0.5-0.3c-1.6,0.1-2.7,0.4-2.7,0.4c0.7-1.2,2.5-1.4,4.1-1.3c-1.1-0.7-2.2-1.3-3.8-0.7l-0.7,1.6l0.3-1.4
		c-0.4,0.2-0.9,0.4-1.4,0.8c0.4-0.7,0.9-1.2,1.3-1.5l0.1,0.6l0.4-2l1-0.2l-0.5,1.2c2.8-0.6,6.3,3.4,8.6,2.3c0.4-0.2,0.7-0.3,1.1-0.5
		c0.3-5-1.1-8-6.4-8.8c1.3,1.5,1.8,3.3,1.8,5.1c-2.8-1.6-8.2-2-12.6-1c-1,4.5-0.6,11.3-4.3,12.7c0.4,0,1.6-0.3,2.3-1.3
		c-0.1,1.3,0.6,6.1-0.5,9.6c1.3,1.7,2.9,3.2,5.5,2.8c0.5-1.7,0.4-4,0.6-5.6c1.5,2.2,2.2,4.4,2.4,6.1c1.9,0.5,3.8,0.8,5.4,0.3
		c-0.2-0.9,0-1.9,0.3-2.8c-0.6,0.2-1.2,0.5-1.8,0.9c-0.3-1.9,3.8-2.5,4.7-2.5c0-0.3,0.1-0.7,0.2-0.9c-3-0.4-5.5,0.9-8,1.9
		c0-1.1-0.7-2.4-1.2-3.3c0.4-0.4,0.7-0.8,0.9-1.5l0,0l0,0C81.8,32,81.8,31.5,81.9,31z"/>
	<path class="st6" d="M81.5,21.3l0.3-1.4c-0.4,0.2-0.9,0.4-1.4,0.8c0.3-0.1,0.6-0.2,1-0.3C81.3,20.8,81.4,21.1,81.5,21.3 M81.9,21.7
		c0.7-1.2,2.5-1.4,4.1-1.3c-1.1-0.7-2.2-1.3-3.8-0.7l-0.2,0.4l0,0c0.6-0.3,1.2-0.3,1.9-0.1C82.6,20.5,82,21,81.9,21.7z M88.4,21.8
		c-0.8,0.3-1.5,0.4-2.1,0.3c-0.5-0.1-0.9-0.3-1.3-0.4c-0.2-0.1-0.4-0.2-0.5-0.3c-1.6,0.1-2.7,0.4-2.7,0.4c0.9-0.1,2.3-0.2,3,0
		C84.4,22,83.5,22.1,83,22c0.5,0.3,0.9,0.6,1.4,0.8c0.7,0.2,1.3,0.3,1.8,0.4C87,23.2,87.7,22.7,88.4,21.8z"/>
	<path class="st6" d="M89,35.1c-2.6-0.1-4.8,1.1-7.1,2c0-1.1-0.7-2.4-1.2-3.3c0.6,1.5,1,3.1,0.8,4.5C82.6,37,85.5,36,89,35.1"/>
	<path class="st12" d="M81.9,31c-0.7,0.4-1.3,0.9-1.8,1.4l-0.1,0.2c0,0,0.7-0.6,1.9-1.3C81.9,31.2,81.9,31.1,81.9,31"/>
	<path class="st6" d="M87.6,15.8c0,0.4,0.1,0.7,0,1.1c-2.8-1.6-8.2-2-12.6-1c-1,4.5-0.6,11.3-4.3,12.7c0.4,0,1.6-0.3,2.3-1.3
		c-0.1,1.3,0.6,6.1-0.5,9.6c1.3,1.7,2.9,3.2,5.5,2.8c0.4-1.7,0.4-3.8,0.6-5.3c-0.2,1.8-0.5,3.4-1.2,4.4c-1.8-0.1-3-0.8-3.8-2
		c0.4-2.4,0.5-4.9,0.1-7.8c0.5,2.1,1.5,3.6,3.9,3.7c-3.8-1.3-4-7-0.2-8.3c-1.5-0.2-2.7,0.8-3.9,2.3c1.3-2.4,2.4-5,2.8-9.9
		c4.4-0.8,8.3-0.3,11.8,1.4L87.6,15.8z"/>
	<path class="st3" d="M85.9,40.6c0.2,0,0.4-0.1,0.6-0.1c-0.2-0.9,0-1.9,0.3-2.8c-0.4,0.1-0.8,0.3-1.1,0.5
		C85.7,38.2,85.2,40.1,85.9,40.6"/>
	<path class="st3" d="M88.7,36.2c0.4-0.1,0.8-0.1,1-0.1c0-0.3,0.1-0.7,0.2-0.9c-0.3,0-0.6-0.1-0.9-0.1C89,35.1,88.7,35.6,88.7,36.2
		L88.7,36.2z"/>
	<path class="st3" d="M92,29.7c0.2-0.2,0.4-0.4,0.6-0.5c-1.8-2.5-1.9-4.9-1.7-7.3c-0.2,0-0.4,0.1-0.6,0.1C90.2,22,89.6,28.1,92,29.7
		"/>
	<path class="st3" d="M91.6,20.8l0.7-0.3c0.3-5-1.1-8-6.4-8.8C86,11.9,92.5,12.7,91.6,20.8"/>
	<path class="st11" d="M87.4,29.2c-0.7,0.1-3,0.6-5,1.6c2.1,0.9,4.2,1.1,6.6,1.1c-0.2-0.5-0.1-1.2,0-1.7c-0.6-0.1-1-0.2-1.1-0.4
		L87.4,29.2z"/>
	<path class="st6" d="M87.4,29.2c-0.7,0.1-3,0.6-5,1.6c0.1,0,0.2,0.1,0.3,0.1c1.3-0.6,3.1-1,5.3-1.1c-0.1,0-0.1-0.1-0.1-0.1
		L87.4,29.2z"/>
	<path class="st3" d="M87.9,31.9c0.3,0,0.7,0,1,0c-0.2-0.5-0.1-1.2,0-1.7c-0.4-0.1-0.8-0.2-1-0.3C87.9,29.9,87.6,30.8,87.9,31.9"/>
	<path class="st8" d="M86.1,14.9c-0.5-2.6-2.3-3.4-3.5-4.4c4,0.2,8.2,0.3,10.5,3.9c0.9-4,2.7-6.6,5.9-9.4c-3.1-1-6.4-1.5-9.7-1.6
		l-3,4.7l1-4.7c-9.2,0.3-18.1,4.1-23.1,10.9l4.5,4.6l-5.4-3.3c-2.3,3.6-3.4,8-3.1,13.1c1.2-0.4,3-0.4,4.3-0.2
		c-1.3-2.1-2.3-8.5,1.1-9c3.9-0.6,2.9,1.9,2.8,3.4c0.3-0.3,0.7-0.6,1.1-0.7c-0.4,0.4-0.8,0.8-1.1,1.3v0l0,0
		c-0.1,0.2-0.2,0.4-0.2,0.6c0.4-0.3,1.3-0.4,1.6-0.2c-0.6,0.8-1.4,1.8-1.5,2.7c0.3,0,1-0.2,1.4-0.3c0.2,0.6,0,1.4-0.3,2.1
		c4.5-1.8,3.3-9.3,3.8-12.3c-1.6,0.5-2.9,1.3-3.8,2.3C71.6,13.5,81.4,13.2,86.1,14.9"/>
	<path class="st9" d="M60.3,27.5c0,0.4,0,0.9,0.1,1.3c1.2-0.4,3-0.4,4.3-0.2c-1.3-2.1-2.3-8.5,1.1-9C62.9,20,62.4,23,63,27.3
		C62,27.1,61.1,27.2,60.3,27.5"/>
	<path class="st3" d="M87.2,4.4l0.2-0.9c-9.2,0.3-18.1,4.1-23.1,10.9c4.5-5,11.8-8.9,21.9-9.9L87.2,4.4z"/>
	<path class="st3" d="M94.1,11.3c1-2.4,2.6-4.3,4.9-6.3c-3.1-1-6.4-1.5-9.7-1.6c-1,1.6-2,3.1-3,4.7l3.1-3.7c2.7,0,4.5,0.4,6.9,1
		C95.2,7.5,94.4,9.7,94.1,11.3"/>
	<path class="st3" d="M68.8,18.9l-5.4-3.3c-2.3,3.6-3.4,8-3.1,13.1c0-3.9,0.6-7.8,3.2-12L68.8,18.9z"/>
	<path class="st9" d="M112.7,26.9c0.2-0.4,0.4-0.8,0.7-1.1c-0.6-0.6-1.8-0.6-2,0.5C111.9,26.3,112.3,26.5,112.7,26.9"/>
	<path class="st3" d="M113.3,25.9C113.3,25.9,113.3,25.8,113.3,25.9c-0.5-0.7-1.7-0.7-1.9,0.4C111.4,26.2,112,25.2,113.3,25.9"/>
	<path class="st3" d="M104.4,16c-4.4,0.6-7.2,8.2-6.9,11.9c0.1,0.6,0.5,1.1,1.1,1.4c0.6,0.1,1,0.2,1.4,0.2c0-1,0.7-1.6,1.5-1.7
		C105.5,22.6,107.1,17.4,104.4,16"/>
	<path class="st3" d="M120.3,23L107,16.5l0,0c0.5,1.1,0.8,4.3-3,8.9c-0.5,0.7,0.3,0.4,0.7,0.5c1.1,0.1,2.1,0.7,2.3,2
		c0.4-0.1,0.9-0.1,1.3,0.1c0.3-1.1,1.2-1.6,2.2-1.8c0.1-1.9,2.6-2.1,3.3-0.7c1.2-0.8,2.9-0.7,3.9,0.2
		C118.1,24.3,119.1,23.4,120.3,23"/>
	<path class="st8" d="M121.5,36.9c0.9,0.2,2.8,1.2,3.4,1.4c2.9,1.1,7.5-6.5,5.2-10c-3.9-0.4-5.3,6.7-5.4,8.2
		c-1.3-4.9,1.7-8.6,3.8-9.5l-6.6-3.2c-1.6-0.2-3.3,1.5-3.3,3.4c0,0,0,0,0,0c0,0.1,0.1,0.3,0.1,0.4c0.9,0,1.8,0.7,1.8,1.9
		c-0.5-1.3-2.7-1.8-3.9,0c0-1,0.6-1.6,1.3-1.8c-0.1-0.1-0.2-0.3-0.3-0.5c-0.8-2-4.4-1.6-4.4,1.1c0,0,0,0,0,0c0,0.2,0,0.3,0,0.5
		c-0.5,0-0.4-0.2-1.3-1.2c-0.9-1-3-0.6-3,1.1c0.1,0.3,0.2,0.6,0.2,0.9c-0.4-0.1-0.4-0.2-1.1-0.7c-0.3-0.2-0.8-0.3-1.1,0
		c-0.8,0.5-0.6,0.8-1.3,0.8c0-0.6,0.2-1,0.5-1.3c-0.2-1.3-3.1-1.5-3.4-0.2c0.4,0.3,0.7,0.8,0.7,1.4c-0.4,0-0.5-0.1-1.2-0.7
		c-0.5-0.4-1.4-0.2-1.4,0.6c0.4,0,0.8,0,1.4,0.3c-0.1,0.1-0.3,0.2-0.4,0.2l1.9,0.3C106.2,30.3,118.3,35.8,121.5,36.9"/>
	<path class="st3" d="M130.5,29.2c-0.1-0.3-0.2-0.6-0.4-0.8c-3.9-0.4-5.3,6.7-5.4,8.2C124.7,36.5,126.4,28.6,130.5,29.2"/>
	<path class="st3" d="M102,28.7c-0.5-0.1-1.1,0.1-1.1,0.8c0.1,0,0.3,0,0.4,0C101.2,28.9,101.6,28.7,102,28.7"/>
	<path class="st3" d="M106.2,28.3c-0.2-1.3-3.1-1.5-3.4-0.2c0.1,0.1,0.2,0.2,0.3,0.3C104.3,26.9,106.3,28.1,106.2,28.3"/>
	<path class="st3" d="M109.3,29.6c-0.4-0.1-0.4-0.2-1.1-0.7c-0.3-0.2-0.8-0.3-1.1,0c-0.2,0.1-0.3,0.2-0.4,0.3
		c0.8-0.3,1.3,0.1,1.8,0.3C108.9,29.8,109.3,29.6,109.3,29.6"/>
	<path class="st3" d="M113.4,28.8c-0.5,0-0.4-0.2-1.3-1.2c-0.9-1-3-0.6-3,1.1c0.3-1.7,2.2-1.5,2.9-0.7
		C112.7,28.8,113.4,28.8,113.4,28.8"/>
	<path class="st3" d="M120.6,29.4c-0.6-1.2-2.7-1.7-3.8,0.1c1.4-1.2,2.7-1.2,3.9,0L120.6,29.4z"/>
	<path class="st3" d="M118.1,27.7c-0.1-0.1-0.2-0.3-0.3-0.5c-0.6-1.5-2.7-1.6-3.8-0.5C116.4,25.4,118.1,27.7,118.1,27.7"/>
	<path class="st3" d="M127.8,27.4c0.3-0.2,0.5-0.3,0.8-0.4l-6.6-3.2c-1.6-0.2-3.3,1.5-3.3,3.4c0,0,0,0,0,0c0,0.1,0.1,0.3,0.1,0.4
		c-0.1-2.7,2.8-3.1,2.8-3.1L127.8,27.4L127.8,27.4z"/>
	<path class="st3" d="M119.8,39.9c0.7,0.2,1.4,0.1,2-1.7c-0.3-0.1-0.6-0.3-0.8-0.4L119.8,39.9z"/>
	<path class="st3" d="M103.3,31.4c-0.3-0.1-0.6-0.1-1-0.2c-0.6,1.3-1.2,2.8,0.3,3.3c0.7,0.3,4.1,1.9,3.8,0.3c-0.3-1.5-4.3-0.3-3.3-3
		C103.1,31.8,103.2,31.6,103.3,31.4"/>
	<path class="st13" d="M93.7,12.2c-2.9-2.2-9-3.2-13.7-2.3c1.9,0.8,3.3,2.1,4.3,3.6c-3-1-6.2-1.6-9.9-1.2c1.1,0.2,2,0.4,2.4,1
		c-4.1,1-6.6,2.8-7.3,5.3c2-5.1,11.8-5.4,16.5-3.7c-0.5-2.6-2.3-3.4-3.5-4.4c4,0.2,8.2,0.3,10.5,3.9C93.1,14.2,93.7,12.3,93.7,12.2"
		/>
	<path class="st13" d="M72.1,16.8c1,4.7-0.1,7.9-1.8,10.8c0.2-0.7,0.5-1.4,0.3-1.9c-0.5,0.3-0.7,0.4-1.4,0.5
		c0.4-1.1,0.8-1.8,1.7-2.5c-0.4-0.2-1-0.2-1.8,0c0.6-1.2,1.4-1.8,2.3-2.7c-0.7,0.2-1.4,0.2-2.1,0.8c-0.1-0.9-0.4-1.4-0.8-1.7h0
		c0.7,0.7,0.3,2.1,0.2,3c0.3-0.3,0.7-0.6,1.1-0.7c-0.4,0.4-0.8,0.8-1.1,1.3v0l0,0c-0.1,0.2-0.2,0.4-0.2,0.6c0.4-0.3,1.3-0.4,1.6-0.2
		c-0.6,0.8-1.4,1.8-1.5,2.7c0.3,0,1-0.2,1.4-0.3c0.2,0.6,0,1.4-0.3,2.1c4.5-1.8,3.3-9.3,3.8-12.3C72.9,16.5,72.5,16.6,72.1,16.8"/>
	<path class="st13" d="M101.3,29.3c0.4-0.2,0.7-0.2,1,0c0.2,0.2,0.5,0.3,0.8,0.4c-0.1,0.1-0.3,0.1-0.5,0.1c1.7,0.1,3.3,0.2,4.8,0.7
		c2,0.8,4,1.6,6,2.5c3.5,1.4,7.1,2.8,10.6,4.2c0.1,0,0.3,0.1,0.4,0.1c-0.3-1.3-0.2-2.6,0.1-3.8c-0.1,1.1,0,2,0.3,2.9
		c0,0.1,0,0.1,0,0.2l0,0c0.1,0.3,0.2,0.6,0.4,0.8c2.8-0.7,5.2-4,4.6-8.1l-0.1-0.8c0.2,0,0.3,0,0.5,0c2.3,3.5-2.3,11-5.2,10
		c-0.7-0.2-2.5-1.2-3.4-1.4c-3.2-1.1-15.3-6.6-17.8-6.6l-1.9-0.3c0.1-0.1,0.3-0.2,0.4-0.2c-0.5-0.2-0.8-0.3-1.2-0.3L101.3,29.3z"/>
	<path class="st14" d="M75.6,46.4c0,0,3.3,2.7,3.4,6.7c9.5-1.9,14.2,2.1,14.2,2.1s-1.6-8.9-9.9-9.7c2,1.6,2.9,2.9,3.4,4.7
		C83.5,48.2,79.8,47,75.6,46.4"/>
	<path class="st15" d="M118.8,22.9c-3.6-1.8-7.2-3.5-10.9-5.3c0.3,3-1.2,5.4-3.1,7.7c1.7-1.6,3.4-3.3,4-5.7c0.3,1.9-0.7,3.7-1.6,5.4
		c1.4-1.4,3-2.8,3.3-4.8c0.2,1.9-0.5,3.5-1.3,5c1-1.3,2-2.5,2.4-4c0.3,1.1,0,2.1-0.6,3c1.6-0.7,2.3-0.3,3,0.3c1-0.7,2-0.7,3.1-0.2
		C117.3,23.8,117.6,23.3,118.8,22.9"/>
	<path class="st15" d="M98.2,28.1c-0.5-4.1,2.9-11.1,6-11.6c1.6,1.9,0.2,5.4-2,9.4c0.3-2,1-3.9,0.4-6.1C99.2,22,99,25.2,98.2,28.1"
		/>
</g>
</svg>
