<svg xmlns="http://www.w3.org/2000/svg" width="450" height="239.912"><path d="M37.57 202.833c0 .608-.32 1.215-.956 1.822-.637.607-1.274.91-1.91.91-.578 0-.867-.303-.867-.91 0-.666.303-1.303.91-1.91.608-.608 1.23-.91 1.867-.91s.955.332.955.998m-3.644 4.22c0 .075-.09.246-.267.512-1.393 2.03-3.837 7.035-7.332 15.018-.86 1.97-1.585 3.333-2.177 4.088-.592.756-1.214 1.134-1.866 1.134-.888 0-1.333-.437-1.333-1.31 0-.637.772-2.06 2.312-4.266.933-1.26 1.866-2.525 2.8-3.8 3.657-5.035 6.11-8.797 7.353-11.285.103-.178.214-.266.333-.266.118 0 .178.06.178.177M75.287 198.5c0 .712-.718 1.74-2.155 3.09-1.422 1.332-3.162 2.613-5.22 3.843-.267.844-.66 2.377-1.178 4.598-.83 3.482-1.592 5.955-2.29 7.42-.695 1.453-1.843 2.934-3.442 4.445-4.62 4.37-9.797 6.553-15.53 6.553-1.643 0-3.095-.274-4.353-.822-.698 1.363-1.046 2.548-1.046 3.555 0 1.275.422 2.445 1.267 3.51.09.09.134.194.134.312 0 .12-.074.178-.222.178-.34 0-.71-.46-1.11-1.377-.386-.92-.58-1.778-.58-2.578 0-1.155.38-2.43 1.134-3.82-3.095-1.6-4.643-4.348-4.643-8.243 0-2.503.74-4.99 2.222-7.465 1.48-2.473 3.562-4.702 6.243-6.687 3.42-2.517 6.805-3.776 10.152-3.776 1.822 0 3.266.51 4.332 1.533 1.082 1.022 1.622 2.406 1.622 4.154 0 .934-.133 1.904-.4 2.91 2.178-1.45 4.103-2.68 5.777-3.687 1.067-2.325 2.407-4.324 4.022-5.998 1.614-1.673 3.02-2.51 4.22-2.51.697 0 1.045.29 1.045.866m-.422.046c0-.356-.208-.533-.622-.533-.993 0-2.103.688-3.333 2.066-1.214 1.36-2.155 2.96-2.82 4.797 1.954-1.2 3.568-2.4 4.842-3.6 1.29-1.198 1.933-2.11 1.933-2.73M59.447 210.83l-1.466 1c-5.583 3.852-9.612 7.058-12.085 9.62.622.326 1.288.49 2 .49 2.073 0 4.243-1.09 6.51-3.266 2.265-2.178 3.946-4.792 5.042-7.843m6.287-4.086c-1.733 1.096-3.63 2.34-5.687 3.732-.978 3.14-2.696 5.895-5.154 8.264-2.444 2.37-4.792 3.555-7.043 3.555-.68 0-1.43-.178-2.244-.533-1.673 1.732-3.095 3.554-4.265 5.465 1.215.548 2.593.822 4.133.822 2.784 0 5.48-.786 8.087-2.356 2.606-1.585 4.843-3.777 6.71-6.576.873-1.303 1.56-2.51 2.065-3.62.503-1.127 1.318-3.237 2.444-6.333.265-.77.584-1.577.954-2.42m-5.51.087c0-1.555-.496-2.806-1.488-3.754-.978-.948-2.274-1.422-3.888-1.422-3.984 0-7.842 2.074-11.575 6.22-3.717 4.148-5.576 8.443-5.576 12.886 0 2.918 1.074 4.99 3.222 6.22 1.006-1.658 2.45-3.473 4.33-5.443-.977-.845-1.466-1.852-1.466-3.022 0-.89.282-1.644.845-2.266.56-.637 1.243-.955 2.043-.955.992 0 1.488.46 1.488 1.377 0 .474-.184.89-.554 1.244-.37.34-.808.51-1.31.51-.727 0-1.09-.347-1.09-1.043 0-.222.075-.46.222-.71.06-.193.09-.304.09-.334 0-.088-.045-.132-.134-.132-.252 0-.51.266-.778.8-.266.533-.4 1.058-.4 1.577 0 .977.452 1.85 1.356 2.62 2.977-3.14 7.68-6.804 14.107-10.996.37-1.304.554-2.43.554-3.378M80.595 220.584c0 .34-1.074 1.777-3.22 4.31-1.78 2.103-3.186 3.155-4.222 3.155-.652 0-1.207-.26-1.666-.78-.445-.532-.667-1.17-.667-1.91 0-.577.29-1.384.866-2.42l-.444.6c-1.362 1.746-2.362 2.916-3 3.51-.695.665-1.354 1-1.976 1-.652 0-1.2-.253-1.644-.757-.445-.518-.667-1.148-.667-1.888 0-.86.333-1.844 1-2.955l4.043-6.798c.504.104.896.155 1.178.155.28 0 .785-.05 1.51-.155l-5.287 8.71c-.534.887-.8 1.672-.8 2.354 0 .666.28 1 .843 1 1.496 0 3.896-2.793 7.198-8.376l2.18-3.688c.458.104.843.155 1.154.155.37 0 .896-.05 1.577-.155l-3.553 5.798c-1.69 2.755-2.533 4.525-2.533 5.31 0 .637.304.955.91.955 1.186 0 3.11-1.866 5.777-5.598l.69-.955.4-.49c.074-.147.148-.22.222-.22.09 0 .133.043.133.132M131.704 199.456c0 1.052-1.296 3.074-3.888 6.065-2.577 2.993-5.087 5.385-7.53 7.177-1.853 4.058-3.763 7.02-5.733 8.887-1.97 1.866-4.628 3.228-7.975 4.087 5.894 1.57 9.42 2.482 10.574 2.734 1.17.267 2.29.4 3.355.4 1.54 0 2.933-.556 4.177-1.666.133-.074.214-.11.244-.11.074.028.118.065.133.11 0 .237-.39.63-1.176 1.177-1.452.992-3.562 1.49-6.332 1.49-2.03 0-3.984-.194-5.865-.58-1.88-.384-4.747-1.19-8.597-2.42-2.474.488-5.02.733-7.643.733-4.65 0-6.976-.71-6.976-2.133 0-1.333 1.78-2 5.333-2 2.755 0 6.865.71 12.33 2.133 1.63-.637 3.073-1.577 4.332-2.82 1.274-1.26 2.874-3.34 4.8-6.244-4.415 3.85-8.54 5.776-12.375 5.776-2.607 0-4.688-.77-6.243-2.31-1.54-1.54-2.31-3.622-2.31-6.243 0-4.014 1.895-7.82 5.687-11.42 3.806-3.598 7.827-5.398 12.063-5.398 1.955 0 3.51.503 4.666 1.51 1.17 1.007 1.755 2.37 1.755 4.088 0 3.036-1.422 6.176-4.266 9.42-2.844 3.243-5.59 4.865-8.242 4.865-1.126 0-2.08-.356-2.866-1.067-.77-.71-1.155-1.584-1.155-2.62 0-.8.243-1.49.732-2.067.503-.594 1.096-.89 1.777-.89.917 0 1.377.452 1.377 1.355 0 .49-.178.926-.534 1.31-.355.37-.755.556-1.2.556-.725 0-1.073-.332-1.043-.998.015-.43-.038-.644-.156-.645-.326 0-.49.46-.49 1.378 0 .933.35 1.71 1.046 2.333.71.622 1.592.933 2.643.933 2.444 0 5.043-1.59 7.798-4.776 2.77-3.2 4.155-6.213 4.155-9.042 0-1.525-.525-2.777-1.577-3.754-1.037-.993-2.37-1.49-4-1.49-3.924 0-7.686 1.964-11.285 5.888-3.584 3.925-5.376 8.013-5.376 12.264 0 2 .637 3.57 1.91 4.71 1.29 1.14 3.052 1.71 5.288 1.71 1.926 0 3.836-.474 5.732-1.422 1.91-.947 4.258-2.6 7.042-4.954 2.325-3.895 4.013-6.598 5.065-8.11 1.007-1.45 2.214-2.916 3.62-4.397 2.74-2.874 4.837-4.31 6.288-4.31.607 0 .91.266.91.8m-.377 0c0-.326-.177-.49-.533-.49-1.096 0-2.6 1.12-4.51 3.355-1.703 2-3.6 5.236-5.687 9.71 2.533-2.06 4.954-4.437 7.265-7.133 2.31-2.71 3.466-4.525 3.466-5.444m-28.97 27.126c-5.198-1.644-8.73-2.466-10.597-2.466-1.94 0-2.91.43-2.91 1.29 0 1.154 2.273 1.732 6.82 1.732 2.458 0 4.687-.185 6.686-.556" style="-inkscape-font-specification:Edwardian Script ITC" font-size="61.133" fill="#231f20" font-family="Edwardian Script ITC"/><path d="M130.47 211.386c0 .52-.223 1.008-.667 1.467-.43.444-.904.666-1.422.666-.665 0-1-.334-1-1 0-.49.23-.956.69-1.4.46-.46.94-.69 1.444-.69.637 0 .955.32.955.956m.31 9.198c-.015.044-.088.163-.222.355l-.955 1.31c-2.785 3.866-4.91 5.8-6.376 5.8-.696 0-1.28-.246-1.755-.735-.46-.503-.69-1.125-.69-1.866 0-.86.512-2.163 1.534-3.91l3.466-5.888c.46.104.822.155 1.088.155.4 0 .963-.05 1.69-.155l-5.044 8.287c-.726 1.198-1.09 2.124-1.09 2.776 0 .666.35 1 1.045 1 1.32 0 3.637-2.348 6.955-7.043.074-.148.148-.222.222-.222.09 0 .133.045.133.134" style="-inkscape-font-specification:Edwardian Script ITC" font-size="61.133" fill="#231f20" font-family="Edwardian Script ITC"/><path d="M155.53 220.584c-.014.044-.088.163-.222.355l-.955 1.31c-2.784 3.866-4.843 5.8-6.176 5.8-.696 0-1.266-.26-1.71-.78-.445-.517-.667-1.184-.667-1.998 0-.83.28-1.726.844-2.69.104-.176.644-.97 1.622-2.376 1.244-1.777 1.866-2.94 1.866-3.488 0-.607-.304-.91-.91-.91-1.956 0-5.31 4.013-10.065 12.04-.296-.06-.703-.088-1.222-.088-.607 0-1.125.03-1.555.09l3.155-5c2.06-3.288 3.088-5.302 3.088-6.043 0-.666-.274-1-.822-1-.814 0-2.147 1.17-3.998 3.51-1.85 2.34-3.688 5.184-5.51 8.532-.34-.06-.777-.09-1.31-.09-.578 0-1.08.03-1.51.09l3.176-5c2.192-3.436 3.288-5.56 3.288-6.376 0-.444-.17-.667-.51-.667-.727 0-2.23 1.593-4.51 4.777-.15.207-.268.31-.356.31-.06-.014-.09-.058-.09-.132 0-.134.682-1.06 2.045-2.777 1.333-1.674 2.362-2.51 3.088-2.51.474 0 .88.23 1.222.688.34.444.51.977.51 1.6 0 .86-.436 2.05-1.31 3.576 2.666-3.91 4.65-5.866 5.954-5.866.62 0 1.132.252 1.532.756.4.503.6 1.133.6 1.888 0 .844-.393 1.918-1.178 3.22 2.814-3.91 4.924-5.864 6.332-5.864.636 0 1.17.274 1.6.822.443.548.666 1.215.666 2 0 .918-.363 1.992-1.09 3.22-.014.016-.65.964-1.91 2.845-.725 1.067-1.088 1.882-1.088 2.444 0 .608.303.91.91.91 1.156 0 3.066-1.865 5.732-5.597l.69-.955.4-.49c.073-.147.147-.22.22-.22.09 0 .134.043.134.132" style="-inkscape-font-specification:Edwardian Script ITC" font-size="61.133" fill="#231f20" font-family="Edwardian Script ITC"/><path d="M162.864 211.386c0 .52-.222 1.008-.666 1.467-.43.444-.904.666-1.422.666-.667 0-1-.334-1-1 0-.49.23-.956.69-1.4.458-.46.94-.69 1.443-.69.636 0 .954.32.954.956m.31 9.198c-.014.044-.088.163-.22.355l-.956 1.31c-2.785 3.866-4.91 5.8-6.376 5.8-.696 0-1.28-.246-1.755-.735-.46-.503-.69-1.125-.69-1.866 0-.86.512-2.163 1.534-3.91l3.467-5.888c.46.104.822.155 1.088.155.4 0 .963-.05 1.69-.155l-5.044 8.287c-.725 1.198-1.088 2.124-1.088 2.776 0 .666.348 1 1.044 1 1.318 0 3.636-2.348 6.954-7.043.073-.148.148-.222.222-.222.09 0 .133.045.133.134" style="-inkscape-font-specification:Edwardian Script ITC" font-size="61.133" fill="#231f20" font-family="Edwardian Script ITC"/><path d="M171.42 215.474l-.18.333h-2.91l-4.953 8.465c-.608 1.022-.91 1.836-.91 2.444 0 .666.347 1 1.043 1 1.348 0 3.62-2.348 6.82-7.043.104-.148.193-.222.267-.222.09 0 .133.045.133.134-.015.044-.09.163-.222.355l-.955 1.31c-2.785 3.866-4.88 5.8-6.287 5.8-.697 0-1.282-.253-1.755-.757-.46-.503-.688-1.133-.688-1.888 0-.89.392-2 1.177-3.333l3.732-6.265h-2.266l.222-.333h2.22l2.6-4.31c.445.12.867.178 1.267.178.415 0 .844-.06 1.288-.178l-2.554 4.31h2.91" style="-inkscape-font-specification:Edwardian Script ITC" font-size="61.133" fill="#231f20" font-family="Edwardian Script ITC"/><path d="M181.925 220.584c0 .044-.133.237-.4.578l-.955 1.2c-3.066 3.79-5.695 5.687-7.887 5.687-1.036 0-1.91-.372-2.62-1.112-.697-.756-1.045-1.696-1.045-2.822 0-2.666 1.86-5.013 5.576-7.042 1.955-1.067 3.547-1.6 4.777-1.6.534 0 .985.163 1.356.49.385.31.577.695.577 1.154 0 1.067-.696 1.977-2.088 2.733-1.392.74-3.717 1.437-6.976 2.09-1.008 1.525-1.512 2.798-1.512 3.82 0 1.274.69 1.91 2.067 1.91 2.34 0 5.206-2.287 8.597-6.864.178-.237.326-.355.445-.355.06.015.088.06.088.134m-1.866-4.11c0-.474-.26-.71-.778-.71-.785 0-1.822.547-3.11 1.643-1.274 1.08-2.526 2.488-3.755 4.22 2.133-.547 3.94-1.317 5.42-2.31 1.482-1.007 2.222-1.954 2.222-2.843M200.55 219.03c0 2.413-1.504 4.612-4.51 6.597-2.444 1.614-4.355 2.422-5.732 2.422-.948 0-1.422-.446-1.422-1.334 0-.267.075-.63.222-1.09l-8.508 14.197c-.52-.118-.94-.178-1.267-.178-.49 0-.97.09-1.444.267l18.24-29.992c.398.134.79.2 1.176.2.4 0 .89-.067 1.466-.2l-6.598 10.664c1.585-2.103 2.733-3.48 3.444-4.132.725-.652 1.444-.978 2.155-.978.784 0 1.444.34 1.977 1.022.533.68.8 1.526.8 2.533m-1.644-1.778c0-.963-.43-1.445-1.29-1.445-1.08 0-2.894 1.74-5.442 5.22-1.97 2.697-2.955 4.548-2.955 5.555 0 .756.347 1.133 1.044 1.133 1.362 0 3.14-1.325 5.33-3.976 2.208-2.667 3.312-4.83 3.312-6.488M217.65 220.584c0 .31-1.082 1.748-3.244 4.31-1.748 2.103-3.125 3.155-4.132 3.155-.68 0-1.237-.253-1.666-.757-.43-.518-.645-1.162-.645-1.933 0-.8.237-1.666.71-2.6-1.48 2.075-2.613 3.474-3.398 4.2-.785.726-1.547 1.09-2.288 1.09-.785 0-1.444-.335-1.977-1-.533-.682-.8-1.534-.8-2.556 0-2.844 2.007-5.362 6.02-7.554 1.763-.977 3.185-1.466 4.266-1.466.918 0 1.377.445 1.377 1.333 0 .252-.06.585-.177 1l1.133-2.155c.443.104.835.155 1.176.155.4 0 .918-.05 1.555-.155l-3.93 6.51c-1.364 2.28-2.045 3.783-2.045 4.51 0 .695.29 1.043.867 1.043.592 0 1.54-.674 2.843-2.02 1.304-1.364 2.63-3.038 3.977-5.022.09-.148.17-.222.244-.222.09 0 .134.045.134.134m-6.11-3.688c0-.726-.333-1.09-1-1.09-1.362 0-3.154 1.334-5.376 4-2.207 2.666-3.31 4.82-3.31 6.465 0 .964.43 1.445 1.288 1.445 1.022 0 2.792-1.696 5.31-5.087 2.06-2.785 3.088-4.695 3.088-5.732" style="-inkscape-font-specification:Edwardian Script ITC" font-size="61.133" fill="#231f20" font-family="Edwardian Script ITC"/><path d="M230.346 220.584c0 .118-.444.66-1.333 1.622-1.125 1.244-2.184 1.866-3.177 1.866-1.125 0-1.688-.652-1.688-1.955 0-.415.09-.94.267-1.578-.934.814-1.696 1.62-2.29 2.42-.576.8-1.583 2.43-3.02 4.89-.785-.06-1.244-.09-1.377-.09-.06 0-.51.03-1.356.09l3.644-5.91c1.82-2.963 2.732-4.8 2.732-5.51 0-.415-.17-.623-.51-.623-.83 0-2.333 1.593-4.51 4.777-.134.207-.252.31-.356.31-.06-.014-.09-.058-.09-.132.016-.074.046-.134.09-.178l.4-.555c2.28-3.038 3.83-4.556 4.643-4.556 1.185 0 1.777.763 1.777 2.288 0 1.14-.607 2.652-1.82 4.533.77-.89 1.502-1.615 2.198-2.178.563-1.318 1.26-2.42 2.088-3.31.845-.888 1.6-1.333 2.266-1.333.46 0 .69.2.69.6 0 .71-1.03 1.726-3.09 3.044-.325.207-.813.51-1.465.91l-.268.223c-.207.682-.31 1.245-.31 1.69 0 1.243.466 1.865 1.4 1.865 1.154 0 2.413-.955 3.776-2.866.296-.326.48-.49.555-.49.09 0 .133.045.133.134" style="-inkscape-font-specification:Edwardian Script ITC" font-size="61.133" fill="#231f20" font-family="Edwardian Script ITC"/><path d="M245.95 220.584c0 .31-1.08 1.748-3.244 4.31-1.747 2.103-3.125 3.155-4.132 3.155-.68 0-1.237-.253-1.666-.757-.43-.518-.644-1.162-.644-1.933 0-.8.237-1.666.71-2.6-1.48 2.075-2.614 3.474-3.4 4.2-.783.726-1.546 1.09-2.287 1.09-.785 0-1.444-.335-1.977-1-.533-.682-.8-1.534-.8-2.556 0-2.844 2.007-5.362 6.02-7.554 1.763-.977 3.185-1.466 4.266-1.466.92 0 1.378.445 1.378 1.333 0 .252-.06.585-.178 1l1.133-2.155c.443.104.836.155 1.176.155.4 0 .92-.05 1.556-.155l-3.933 6.51c-1.363 2.28-2.045 3.783-2.045 4.51 0 .695.29 1.043.867 1.043.592 0 1.54-.674 2.844-2.02 1.303-1.364 2.628-3.038 3.976-5.022.09-.148.17-.222.245-.222.088 0 .133.045.133.134m-6.11-3.688c0-.726-.333-1.09-1-1.09-1.362 0-3.154 1.334-5.376 4-2.206 2.666-3.31 4.82-3.31 6.465 0 .964.43 1.445 1.29 1.445 1.02 0 2.79-1.696 5.308-5.087 2.06-2.785 3.088-4.695 3.088-5.732M274.21 205.055c-5.555 8.827-9.058 14.47-10.51 16.93-1.466 2.502-2.2 4.08-2.2 4.73 0 .667.305 1 .912 1 1.348 0 3.636-2.347 6.865-7.042.088-.148.17-.222.244-.222.09 0 .134.045.134.134-.015.044-.09.163-.222.355l-.955 1.31c-2.8 3.866-4.866 5.8-6.198 5.8-.683 0-1.238-.253-1.668-.757-.43-.518-.644-1.177-.644-1.977s.267-1.725.8-2.777c-2.592 3.672-4.517 5.51-5.776 5.51-.785 0-1.444-.335-1.978-1-.533-.682-.8-1.534-.8-2.556 0-2.444 1.52-4.658 4.555-6.643 2.413-1.583 4.31-2.376 5.686-2.376.918 0 1.378.445 1.378 1.333 0 .415-.126.88-.378 1.4l7.93-13.285c.49.148.97.222 1.445.222.12 0 .58-.03 1.38-.09m-10.71 11.93c0-.784-.362-1.177-1.088-1.177-1.333 0-3.096 1.333-5.288 4-2.177 2.65-3.265 4.79-3.265 6.42 0 .992.406 1.488 1.22 1.488 1.185 0 3.222-2.058 6.11-6.176 1.54-2.222 2.31-3.74 2.31-4.555" style="-inkscape-font-specification:Edwardian Script ITC" font-size="61.133" fill="#231f20" font-family="Edwardian Script ITC"/><path d="M280.885 220.584c0 .044-.134.237-.4.578l-.956 1.2c-3.066 3.79-5.695 5.687-7.887 5.687-1.037 0-1.91-.372-2.622-1.112-.695-.756-1.043-1.696-1.043-2.822 0-2.666 1.86-5.013 5.576-7.042 1.955-1.067 3.548-1.6 4.777-1.6.533 0 .985.163 1.355.49.385.31.578.695.578 1.154 0 1.067-.696 1.977-2.09 2.733-1.39.74-3.716 1.437-6.975 2.09-1.007 1.525-1.51 2.798-1.51 3.82 0 1.274.688 1.91 2.066 1.91 2.34 0 5.206-2.287 8.597-6.864.18-.237.327-.355.446-.355.06.015.09.06.09.134m-1.867-4.11c0-.474-.26-.71-.78-.71-.784 0-1.82.547-3.11 1.643-1.273 1.08-2.525 2.488-3.754 4.22 2.133-.547 3.94-1.317 5.42-2.31 1.482-1.007 2.223-1.954 2.223-2.843" style="-inkscape-font-specification:Edwardian Script ITC" font-size="61.133" fill="#231f20" font-family="Edwardian Script ITC"/><path d="M288.39 211.942c0 .592-.926 1.77-2.777 3.532-.09.46-.134.86-.134 1.2 0 .86.392 2.222 1.177 4.088.4.933.6 1.718.6 2.355 0 1.333-.652 2.488-1.955 3.465-1.29.978-2.822 1.467-4.6 1.467-1.006 0-1.814-.283-2.42-.846-.593-.577-.89-1.347-.89-2.31 0-1.11.393-2.192 1.178-3.244.8-1.05 1.622-1.577 2.466-1.577.148 0 .28.03.4.09l1.777-2.178c.533-.637 1.244-1.518 2.133-2.644.252-1.036.637-1.924 1.155-2.665.52-.74 1.03-1.11 1.534-1.11.237 0 .356.125.356.377m-3.088 8.775c0-.444-.015-.88-.045-1.31-.03-.445-.044-1.074-.044-1.89 0-.665.03-1.22.09-1.665-.83 1.05-2.03 2.533-3.6 4.443.28.237.422.526.422.867 0 .873-.72 1.466-2.155 1.777-.578.132-1.082.45-1.51.954-.416.49-.623 1.007-.623 1.555 0 .592.215 1.088.644 1.488.43.4.964.6 1.6.6 1.245 0 2.422-.72 3.533-2.155 1.126-1.452 1.69-3.007 1.69-4.666M300.772 220.584c0 .192-1.044 1.437-3.132 3.732-2.28 2.488-4.222 3.733-5.82 3.733-1.038 0-1.926-.394-2.667-1.18-.74-.8-1.11-1.747-1.11-2.843 0-1.244.503-2.532 1.51-3.865 1.007-1.333 2.362-2.48 4.065-3.444 1.437-.83 2.607-1.244 3.51-1.244 1.097 0 1.645.652 1.645 1.955 0 1.02-.348 2.043-1.045 3.065-.68 1.022-1.362 1.533-2.043 1.533-.667 0-1-.333-1-1 0-.785.68-1.51 2.044-2.177 1.05-.517 1.576-1.2 1.576-2.043 0-.666-.363-1-1.09-1-1.228 0-2.74 1.222-4.53 3.666-1.793 2.444-2.69 4.495-2.69 6.154 0 1.392.653 2.088 1.956 2.088 2.044 0 4.814-2.303 8.31-6.91.192-.236.332-.354.42-.354.06.015.09.06.09.134" style="-inkscape-font-specification:Edwardian Script ITC" font-size="61.133" fill="#231f20" font-family="Edwardian Script ITC"/><path d="M316.382 220.584c0 .31-1.08 1.748-3.244 4.31-1.747 2.103-3.125 3.155-4.132 3.155-.68 0-1.237-.253-1.666-.757-.43-.518-.644-1.162-.644-1.933 0-.8.237-1.666.71-2.6-1.48 2.075-2.614 3.474-3.4 4.2-.784.726-1.546 1.09-2.287 1.09-.786 0-1.445-.335-1.978-1-.533-.682-.8-1.534-.8-2.556 0-2.844 2.007-5.362 6.02-7.554 1.763-.977 3.185-1.466 4.266-1.466.92 0 1.378.445 1.378 1.333 0 .252-.06.585-.178 1l1.133-2.155c.445.104.838.155 1.178.155.4 0 .92-.05 1.556-.155l-3.933 6.51c-1.36 2.28-2.043 3.783-2.043 4.51 0 .695.29 1.043.867 1.043.592 0 1.54-.674 2.843-2.02 1.304-1.364 2.63-3.038 3.977-5.022.09-.148.17-.222.245-.222.087 0 .132.045.132.134m-6.11-3.688c0-.726-.333-1.09-1-1.09-1.362 0-3.154 1.334-5.376 4-2.206 2.666-3.31 4.82-3.31 6.465 0 .964.43 1.445 1.29 1.445 1.02 0 2.79-1.696 5.308-5.087 2.06-2.785 3.088-4.695 3.088-5.732" style="-inkscape-font-specification:Edwardian Script ITC" font-size="61.133" fill="#231f20" font-family="Edwardian Script ITC"/><path d="M334.21 220.584c0 .31-1.073 1.748-3.22 4.31-1.763 2.103-3.148 3.155-4.155 3.155-.667 0-1.23-.26-1.69-.78-.443-.517-.665-1.154-.665-1.91 0-.666.133-1.28.4-1.844.28-.577 1-1.71 2.155-3.4 1.2-1.776 1.8-2.91 1.8-3.398 0-.607-.32-.91-.956-.91-2.164 0-5.496 4.013-9.998 12.04-.726-.06-1.163-.088-1.31-.088-.52 0-1.008.03-1.467.09l3.465-5.49c1.97-3.14 2.955-5.1 2.955-5.886 0-.444-.185-.667-.555-.667-.756 0-2.244 1.593-4.466 4.777-.133.192-.237.296-.31.31-.075 0-.12-.043-.134-.132.015-.074.044-.134.09-.178l.42-.555c2.267-3.038 3.792-4.556 4.577-4.556.504 0 .933.23 1.29.69.354.458.532 1.006.532 1.643 0 .948-.556 2.266-1.667 3.954 1.748-2.413 3.088-4.064 4.02-4.953.95-.888 1.823-1.333 2.622-1.333.652 0 1.2.267 1.644.8.444.533.666 1.192.666 1.977 0 .994-.68 2.512-2.044 4.556-1.392 2.088-2.088 3.42-2.088 3.998 0 .608.303.91.91.91 1.32 0 3.592-2.346 6.82-7.04.075-.15.15-.223.223-.223.09 0 .133.045.133.134" style="-inkscape-font-specification:Edwardian Script ITC" font-size="61.133" fill="#231f20" font-family="Edwardian Script ITC"/><path d="M341.714 211.942c0 .592-.925 1.77-2.777 3.532-.09.46-.133.86-.133 1.2 0 .86.392 2.222 1.177 4.088.4.933.6 1.718.6 2.355 0 1.333-.65 2.488-1.954 3.465-1.288.978-2.82 1.467-4.6 1.467-1.006 0-1.813-.283-2.42-.846-.593-.577-.89-1.347-.89-2.31 0-1.11.394-2.192 1.18-3.244.798-1.05 1.62-1.577 2.465-1.577.15 0 .282.03.4.09l1.778-2.178c.533-.637 1.244-1.518 2.133-2.644.252-1.036.637-1.924 1.156-2.665.518-.74 1.03-1.11 1.533-1.11.236 0 .354.125.354.377m-3.088 8.775c0-.444-.015-.88-.044-1.31-.03-.445-.045-1.074-.045-1.89 0-.665.03-1.22.09-1.665-.83 1.05-2.03 2.533-3.6 4.443.282.237.422.526.422.867 0 .873-.72 1.466-2.156 1.777-.577.132-1.08.45-1.51.954-.415.49-.622 1.007-.622 1.555 0 .592.214 1.088.644 1.488.43.4.962.6 1.6.6 1.243 0 2.42-.72 3.532-2.155 1.125-1.452 1.688-3.007 1.688-4.666M358.695 220.584c0 .31-1.08 1.748-3.244 4.31-1.746 2.103-3.124 3.155-4.13 3.155-.682 0-1.238-.253-1.667-.757-.43-.518-.644-1.162-.644-1.933 0-.8.236-1.666.71-2.6-1.48 2.075-2.614 3.474-3.4 4.2-.784.726-1.547 1.09-2.288 1.09-.785 0-1.444-.335-1.977-1-.533-.682-.8-1.534-.8-2.556 0-2.844 2.007-5.362 6.02-7.554 1.763-.977 3.185-1.466 4.266-1.466.92 0 1.38.445 1.38 1.333 0 .252-.06.585-.18 1l1.134-2.155c.444.104.837.155 1.177.155.4 0 .92-.05 1.557-.155l-3.933 6.51c-1.362 2.28-2.044 3.783-2.044 4.51 0 .695.29 1.043.867 1.043.592 0 1.54-.674 2.844-2.02 1.304-1.364 2.63-3.038 3.977-5.022.09-.148.17-.222.245-.222.088 0 .133.045.133.134m-6.11-3.688c0-.726-.333-1.09-1-1.09-1.362 0-3.154 1.334-5.376 4-2.207 2.666-3.31 4.82-3.31 6.465 0 .964.43 1.445 1.288 1.445 1.022 0 2.792-1.696 5.31-5.087 2.058-2.785 3.087-4.695 3.088-5.732" style="-inkscape-font-specification:Edwardian Script ITC" font-size="61.133" fill="#231f20" font-family="Edwardian Script ITC"/><path d="M371.392 220.584c0 .118-.444.66-1.333 1.622-1.127 1.244-2.186 1.866-3.178 1.866-1.125 0-1.688-.652-1.688-1.955 0-.415.09-.94.266-1.578-.933.814-1.696 1.62-2.288 2.42-.578.8-1.585 2.43-3.02 4.89-.786-.06-1.245-.09-1.38-.09-.058 0-.51.03-1.354.09l3.644-5.91c1.82-2.963 2.732-4.8 2.732-5.51 0-.415-.17-.623-.51-.623-.83 0-2.334 1.593-4.51 4.777-.134.207-.253.31-.356.31-.06-.014-.09-.058-.09-.132.016-.074.045-.134.09-.178l.4-.555c2.28-3.038 3.828-4.556 4.643-4.556 1.186 0 1.778.763 1.778 2.288 0 1.14-.607 2.652-1.822 4.533.77-.89 1.504-1.615 2.2-2.178.563-1.318 1.26-2.42 2.088-3.31.844-.888 1.6-1.333 2.266-1.333.46 0 .69.2.69.6 0 .71-1.03 1.726-3.09 3.044-.325.207-.814.51-1.465.91l-.267.223c-.207.682-.31 1.245-.31 1.69 0 1.243.465 1.865 1.4 1.865 1.154 0 2.413-.955 3.775-2.866.297-.326.482-.49.556-.49.088 0 .132.045.132.134M387.307 203.01c0 .682-1.696 3.37-5.088 8.065-3.718 5.11-6.177 8.872-7.377 11.286-.09.18-.192.268-.31.268-.134 0-.2-.074-.2-.222 0-.045.096-.2.288-.467 1.512-2.222 3.97-7.23 7.377-15.02.86-1.984 1.577-3.346 2.155-4.087.577-.755 1.207-1.133 1.888-1.133.844 0 1.267.437 1.267 1.31m-12.73 21.928c0 .667-.304 1.304-.91 1.91-.608.608-1.23.912-1.867.912s-.956-.334-.956-1c0-.607.32-1.214.956-1.822.637-.607 1.273-.91 1.91-.91.578 0 .867.303.867.91" style="-inkscape-font-specification:Edwardian Script ITC" font-size="61.133" fill="#231f20" font-family="Edwardian Script ITC"/><path d="M230.44 133.142c.132.7 0 1.68-.386 2.932-.374 1.252-1.06 2.866-2.044 4.832-2.306 4.546-5.085 7.92-8.33 10.14-3.25 2.227-7.06 3.336-11.43 3.336-4.52 0-8.392-1.07-11.64-3.206-3.25-2.144-5.164-4.84-5.743-8.12-.518-2.898-.03-5.66 1.444-8.287 1.47-2.624 3.85-4.956 7.135-6.99 3.858-2.376 8.67-4.09 14.445-5.16 5.768-1.07 13.454-1.597 23.032-1.597.696 0 2.57.035 5.603.096 3.036.06 5.694.1 7.97.1 5.906 0 11.74-.366 17.494-1.1 1.138-.132 1.834-.206 2.1-.206.34 0 .617.08.852.235.218.147.357.334.396.57.226 1.24-1.23 2.618-4.354 4.162-3.106 1.535-6.795 2.296-11.04 2.296-2.836 0-7.938-.426-15.324-1.274-7.377-.848-13.298-1.275-17.726-1.275-9.895 0-17.677 1.7-23.354 5.106-5.68 3.406-8.068 7.65-7.177 12.732.414 2.33 1.82 4.29 4.22 5.85 2.396 1.57 5.215 2.358 8.456 2.358 4.13 0 8.067-1.074 11.773-3.228 3.715-2.16 6.95-5.26 9.71-9.3.747-1.1 1.47-2.33 2.178-3.7.715-1.376 1.176-2.06 1.42-2.06.06 0 .112.045.17.128.056.09.095.3.15.626m-5.258 28.404c-5.44 1.91-10.187 5.237-14.262 10.018-1.023 1.204-1.684 1.81-1.98 1.81-.082-.03-.134-.084-.178-.127-.04-.052-.074-.13-.09-.226-.088-.5.22-1.243.908-2.23.696-.98 1.818-2.215 3.366-3.676 1.653-1.61 3.554-3.028 5.707-4.263 2.154-1.24 4.655-2.357 7.52-3.353 3.33-8.63 7.248-15.868 11.754-21.744 4.502-5.877 7.856-8.822 10.07-8.822.165 0 .257.01.3.027.035.022.083.074.135.174.013.102-.213.406-.692.91-5.132 5.938-9.547 15.355-13.258 28.248 5.494-.63 10.827-2.55 15.968-5.755 1.24-.774 1.997-1.157 2.31-1.157.222 0 .426.052.6.152.157.1.266.23.292.396.017.135-.27.657-.875 1.558-2.85 4.15-5.185 8.92-7.003 14.328-.087.4-.23.94-.41 1.605-.438 1.535-.947 2.5-1.543 2.9-.856.64-1.908 1.223-3.148 1.754-1.24.534-2.062.804-2.47.804-.127 0-.266-.092-.397-.28-.13-.18-.217-.425-.274-.72-.16-.94.706-3.19 2.59-6.76 1.887-3.58 4.328-7.238 7.303-10.983-2.084 1.01-4.24 1.823-6.473 2.458-2.23.635-4.606 1.07-7.138 1.3-4.32 11.497-10.39 20.062-18.216 25.708-7.817 5.646-17.495 8.46-29.005 8.46-8.555 0-15.636-1.88-21.243-5.66-5.607-3.774-8.982-8.894-10.126-15.375-1.2-6.815.4-12.548 4.803-17.207 4.406-4.66 10.47-6.986 18.182-6.986 5.942 0 11.06 1.453 15.355 4.372 4.284 2.926 6.824 6.628 7.616 11.104.848 4.81-.548 9.008-4.193 12.6-3.645 3.59-8.434 5.382-14.38 5.382-3.237 0-6.27-.505-9.113-1.536-2.828-1.01-4.32-1.905-4.45-2.666-.018-.1.022-.18.11-.23.09-.05.238-.075.434-.075.17 0 .635.173 1.396.504 3.84 1.696 7.542 2.553 11.114 2.553 5.58 0 10.03-1.513 13.358-4.532 3.32-3.02 4.615-6.642 3.87-10.857-.665-3.767-2.622-6.803-5.88-9.083-3.262-2.292-7.277-3.436-12.057-3.436-7.513 0-13.628 2.148-18.348 6.437-4.724 4.293-6.585 9.29-5.572 15.002.96 5.48 4.067 9.917 9.304 13.305 5.236 3.39 11.665 5.09 19.286 5.09 9.752 0 17.734-2.476 23.937-7.426 6.216-4.946 11.275-12.872 15.19-23.794M257.925 165.583c-.635.53-1.196 1.14-1.714 1.844-.143.2-.9 1.514-2.29 3.946l-1.34.07c.343-1.193 1.095-2.65 2.274-4.372 1.187-1.74 2.275-2.922 3.25-3.562.634-.417 1.37-.657 2.24-.722.57.157.978.36 1.24.618.256.27.408.578.47.948.073.37.09.74.073 1.114-.026 1.187-.205 2.905-.535 5.14-.33 2.237-.653 4-.992 5.3l-.996 4.04-.03.596c.217-.53.63-1.696 1.256-3.52 2.384-6.772 4.224-10.956 5.525-12.54.96-1.13 2.218-1.696 3.784-1.696.873 0 1.752.348 2.635 1.053.67.547 1.092 1.278 1.24 2.17.178 1.013.017 1.88-.488 2.596-.356.513-.94.76-1.74.76-.678 0-1.187-.155-1.518-.48-.327-.315-.644-1.11-.927-2.376-.396-.575-.76-.857-1.11-.857-.356 0-.69.187-1.013.556-.89.93-2.344 3.953-4.38 9.043-2.018 5.09-3.22 8.63-3.615 10.61-.382 1.974-.74 3.34-1.07 4.088-.178.375-.587.557-1.226.557-.602 0-1.04-.095-1.324-.304-.287-.21-.456-.474-.517-.805-.084-.44-.058-.944.06-1.518.535-2.297 1.3-6.538 2.292-12.732l1.06-7.033c.05-.627.08-1.023.12-1.2l.116-.492c-.048-.21-.304-.492-.813-.84M279.584 186.01c.18 1 .544 1.753 1.097 2.232.562.487 1.362.726 2.428.726 1.026 0 1.98-.51 2.853-1.513 1.563-1.85 2.88-5.007 3.98-9.505 1.097-4.49 1.42-8.042.954-10.622-.16-.926-.518-1.657-1.07-2.192-.553-.535-1.13-.8-1.73-.8-1.285 0-2.507.752-3.642 2.26-1.945 2.55-3.39 6.056-4.324 10.532-.76 3.637-.948 6.603-.544 8.883m14.46-14.967c.908 5.09.147 9.61-2.228 13.554-2.384 3.945-5.233 5.91-8.54 5.91-1.778 0-3.326-.66-4.666-1.982-1.327-1.327-2.236-3.406-2.74-6.23-.34-1.91-.3-4.114.117-6.598.422-2.488 1.157-4.554 2.232-6.198.238-.38.516-.823.82-1.35.892-1.51 2.054-2.792 3.467-3.814 1.42-1.04 2.967-1.55 4.62-1.55 1.535 0 2.945.65 4.232 1.928 1.274 1.283 2.165 3.39 2.683 6.33M305.165 166.934c-.07-.178-.157-.292-.248-.37-.087-.056-.178-.09-.296-.09-1.13 0-2.596 1.8-4.38 5.388-.23.03-.408.035-.517.035-.13 0-.356-.004-.656-.035.29-.922.835-2.083 1.622-3.48.8-1.4 1.708-2.58 2.713-3.5 1.005-.936 2.006-1.628 2.967-2.093.326-.154.626-.228.91-.228.1 0 .277.01.503.026.462.4.73.8.8 1.214.044.265.062.526.062.792-.018.265-.052.665-.13 1.21-.336 1.895-.584 3.218-.74 3.988l-1.022 4.867c-.227 1.12-.453 2.313-.65 3.553.123-.218.25-.43.34-.627 1.52-2.98 3.21-5.837 5.094-8.57 1.875-2.722 3.506-4.548 4.88-5.47.97-.688 1.963-1.018 2.946-1.018.748 0 1.352.195 1.844.61.49.4.792.92.905 1.556.074.396.09.787.074 1.157-.01.832-.14 1.993-.41 3.485-.265 1.492-1.07 4.728-2.435 9.704l-1.952 7.594-.052.426c.026.13.13.327.34.596 1.17-.27 2.674-2.218 4.483-5.86l1.357.036c-.466 1.23-1.3 2.81-2.523 4.732-.948 1.48-2.036 2.61-3.276 3.432-.687.453-1.46.688-2.344.688-.526 0-.948-.118-1.24-.327-.317-.226-.474-.474-.53-.735-.2-1.16.034-2.958.73-5.39l2.928-10.43 1.07-4.37c.252-.963.374-1.633.413-2.007.017-.374 0-.743-.065-1.117-.06-.283-.18-.514-.357-.683-.187-.157-.387-.24-.64-.24-.347 0-.72.148-1.135.427-1.46.97-2.953 2.623-4.484 4.967-2.214 3.38-3.658 5.806-4.32 7.272-1.657 3.64-3.005 7.35-4.04 11.148-.162.618-.392 1.066-.723 1.353-.442.057-.795.09-1.034.09-.287 0-.73-.055-1.34-.168-.12-.17-.195-.31-.213-.422-.026-.178.01-.57.126-1.188.23-1.422.882-4.428 1.96-9.008l.436-1.775 2.25-11.148zM334.067 165.812h-1.997l-.926-.034-2.13.065h-.432c-.035-.483.065-1.04.278-1.675 3.184-.087 5.06-.16 5.655-.23.24-1.044.457-1.893.644-2.536.4-1.423.764-3.106 1.112-5.063.096-.637.235-1.215.396-1.74.48-.067 1.03-.1 1.662-.1.53 0 1.048.05 1.548.164l.148.526c.083.413-.46 2.823-1.63 7.234-.114.504-.205 1.018-.266 1.544.648.113 1.022.165 1.13.165h.688l1.113.035 3.116-.065c.126.718.09 1.314-.087 1.78-.854.086-1.972.125-3.385.125-.696 0-1.13.017-1.327.035-1.087.11-1.705.222-1.857.335l-3.083 12.832c-.387 1.244-.996 3.593-1.823 7.064.01.13.105.287.274.465l.44.06c.59 0 1.257-.37 2.01-1.118 1.604-1.644 3.074-3.562 4.38-5.76.39.197.748.432 1.087.688-1.705 2.658-2.91 4.41-3.64 5.25-.732.853-1.69 1.727-2.872 2.64-1.187.9-1.922 1.41-2.175 1.52-.46.195-.94.295-1.457.295-.534 0-.943-.113-1.247-.344-.296-.225-.483-.564-.56-1.004-.11-.635.15-2.114.782-4.437l.84-3.063 2.787-11.675c.357-1.513.627-2.836.805-3.98M349.036 176.203c.705.03 1.758-.253 3.14-.818.758-.31 1.724-.91 2.902-1.805.47-.353.962-.953 1.497-1.792.526-.85.89-1.727 1.087-2.636.178-.914.196-1.853.026-2.82-.113-.63-.39-1.156-.835-1.565-.457-.418-.9-.63-1.357-.63-.596 0-1.24.34-1.936 1.017-1.144 1.18-2.222 3.17-3.22 5.95-.75 2.136-1.177 3.837-1.304 5.1m-.27 1.682c-.37 1.988-.378 3.997-.012 6.033.256 1.482.818 2.67 1.674 3.58.57.6 1.25.912 2.036.912.487 0 .9-.104 1.227-.3.745-.413 1.362-.904 1.832-1.466.492-.565.966-1.313 1.435-2.227.483-.918.814-1.95 1.01-3.076h.452c.27 0 .564.022.912.057-.234 2.45-1.426 4.855-3.606 7.217-1.36 1.466-2.905 2.196-4.645 2.196-1.16 0-2.24-.526-3.227-1.587-1.322-1.37-2.205-3.284-2.623-5.716-.19-1.052-.26-2.318-.2-3.788.057-1.466.21-2.702.457-3.68.383-1.536.866-2.98 1.44-4.34l1.88-3.68c1.34-1.754 2.096-2.72 2.256-2.898.64-.657 1.327-1.157 2.054-1.505.713-.336 1.496-.502 2.327-.502 1.078 0 2.105.45 3.066 1.35.962.908 1.57 2.03 1.814 3.396.213 1.21.113 2.4-.31 3.576-.412 1.178-.93 2.035-1.565 2.588l-2.42 1.783c-.273.153-1.043.432-2.318.84-1.257.4-2.918.814-4.945 1.236M369.065 165.583c-.635.53-1.205 1.14-1.705 1.844-.153.2-.922 1.514-2.31 3.946l-1.33.07c.343-1.193 1.095-2.65 2.265-4.372 1.196-1.74 2.275-2.922 3.258-3.562.635-.417 1.37-.657 2.232-.722.578.157.987.36 1.248.618.257.27.41.578.47.948.065.37.09.74.065 1.114-.03 1.187-.21 2.905-.526 5.14-.322 2.237-.653 4-.992 5.3l-.987 4.04-.04.596c.218-.53.63-1.696 1.257-3.52 2.384-6.772 4.224-10.956 5.525-12.54.952-1.13 2.218-1.696 3.775-1.696.88 0 1.753.348 2.645 1.053.67.547 1.087 1.278 1.248 2.17.18 1.013 0 1.88-.496 2.596-.348.513-.93.76-1.74.76-.678 0-1.196-.155-1.518-.48-.33-.315-.644-1.11-.936-2.376-.387-.575-.752-.857-1.11-.857-.347 0-.682.187-1.012.556-.883.93-2.336 3.953-4.372 9.043-2.018 5.09-3.22 8.63-3.615 10.61-.382 1.974-.74 3.34-1.07 4.088-.178.375-.587.557-1.24.557-.578 0-1.026-.095-1.31-.304-.286-.21-.455-.474-.516-.805-.075-.44-.066-.944.06-1.518.535-2.297 1.3-6.538 2.292-12.732l1.06-7.033c.05-.627.08-1.023.127-1.2l.108-.492c-.04-.21-.31-.492-.813-.84M391.872 187.49c.51-.136.957-.314 1.322-.566.222-.122.996-.73 2.327-1.805 2.285-2.698 3.568-4.242 3.868-4.634.64-.86 1.327-2.036 2.057-3.515.214-.38.596-1.408 1.18-3.096l.46-2.275c.074-1.336.092-2.1.057-2.297-.11-.61-.48-1.2-1.08-1.744-.395-.332-.973-.49-1.743-.49-.884 0-1.615.136-2.193.42-1.3.66-2.462 1.495-3.458 2.5-1.34 1.383-2.546 3.154-3.634 5.31-1.087 2.16-1.81 3.968-2.166 5.408-.487 1.996-.635 3.493-.456 4.48.14.814.417 1.41.822 1.805.404.396.874.596 1.4.596.18 0 .587-.03 1.236-.1m12.25-21.58c.15-.374.238-.666.268-.883.148-.66.326-1.087.57-1.283.596-.065 1.035-.105 1.327-.105.374 0 .748.082 1.135.234l.16.392c.027.13.01.33-.05.6-.05.126-.12.544-.206 1.248l-.152.657-1.135 5.882c-.458 2.654-.893 4.772-1.302 6.346-.422 1.584-.722 3.19-.948 4.82-.213 1.644-.47 2.806-.77 3.506l-.065.313c.017.13.17.3.426.51.84-.545 1.515-1.14 2.032-1.78 1.358-1.636 2.15-2.662 2.384-3.054.178-.282.357-.543.518-.79.287.216.543.45.804.7-.448.843-1.23 2-2.357 3.475-1.12 1.47-2.19 2.514-3.2 3.127-.775.465-1.545.683-2.302.683-.482 0-.865-.104-1.148-.318-.278-.217-.448-.49-.505-.835-.047-.3-.04-.87.027-1.7.29-1.45.51-2.406.648-2.858.14-.466.31-1.183.513-2.145.117-.59.378-1.618.8-3.088-.365.413-.77 1.026-1.265 1.84-1.436 2.236-3.154 4.358-5.172 6.346-.457.466-1.64 1.2-3.532 2.2-.714.288-1.588.47-2.606.558-.88-.017-1.487-.104-1.81-.252-.587-.292-1.104-.735-1.552-1.357-.33-.458-.583-1.163-.753-2.137-.243-1.4-.21-2.962.122-4.672.56-2.913 1.266-5.07 2.118-6.476 1.45-2.436 2.976-4.358 4.58-5.798 1.588-1.418 3.115-2.458 4.542-3.12 1.88-.87 3.575-1.312 5.076-1.312.488 0 .967.052 1.436.14.462.082.91.216 1.345.386M123.698 41.406c10.49-3.35 18.547-7.168 24.14-11.5 5.6-4.324 8.04-8.526 7.317-12.593-.234-1.41-.765-2.458-1.57-3.162-.813-.708-1.87-1.047-3.17-1.047-3.676 0-7.917 2.518-12.72 7.56-4.806 5.05-9.478 11.953-13.997 20.743m-25.99 9.77c-4.12 10.883-10.096 19.23-17.92 25.046-7.826 5.816-17 8.717-27.526 8.717-8.443 0-15.538-1.893-21.288-5.686-5.75-3.79-9.17-8.813-10.274-15.06-1.184-6.737.66-12.457 5.546-17.15 4.884-4.698 11.535-7.042 19.952-7.042 6.107 0 11.248 1.378 15.402 4.1 4.16 2.746 6.63 6.37 7.43 10.87.87 4.956-.66 9.206-4.593 12.785-3.924 3.572-9.157 5.36-15.708 5.36-3.14 0-6.208-.466-9.218-1.4-3.005-.94-4.563-1.74-4.684-2.407.013-.135.065-.235.152-.3.083-.065.183-.104.278-.104.235 0 .788.178 1.653.552 3.92 1.57 7.813 2.362 11.69 2.362 5.745 0 10.486-1.592 14.24-4.767 3.745-3.17 5.272-6.755 4.563-10.766-.648-3.64-2.666-6.564-6.09-8.773-3.4-2.206-7.642-3.302-12.723-3.302-8.05 0-14.454 2.145-19.23 6.438-4.763 4.293-6.638 9.356-5.61 15.202.943 5.35 3.927 9.605 8.938 12.775 5.024 3.18 11.318 4.76 18.9 4.76 8.955 0 16.26-2.22 21.918-6.682 5.66-4.46 10.59-11.953 14.776-22.475-3.167 1.54-6.216 3.392-9.14 5.56-2.922 2.174-4.588 3.252-4.988 3.252-.06 0-.118-.026-.174-.095-.04-.06-.065-.127-.078-.2-.127-.7 1.24-2.075 4.1-4.128 2.864-2.06 6.49-4.173 10.885-6.34 1.705-4.584 3.666-9.094 5.907-13.553 2.235-4.463 4.915-9.09 8.038-13.906-4.132 2.31-7.12 3.807-8.948 4.49-1.835.683-3.45 1.026-4.858 1.026-2.336 0-4.254-.726-5.746-2.183-1.492-1.457-2.475-3.558-2.97-6.334-.127-.71-.2-1.64-.22-2.806-.012-1.166-.068-1.97-.147-2.406-.178-1.004-.443-1.753-.796-2.253-.356-.504-.787-.757-1.287-.757-1.966 0-4.285 1.17-6.947 3.51-2.657 2.345-5.28 5.56-7.86 9.675-1.21 1.86-2.366 3.884-3.466 6.06-1.097 2.165-1.845 3.248-2.206 3.248-.108-.03-.195-.086-.26-.173-.056-.074-.104-.187-.13-.317-.087-.505.3-1.684 1.187-3.537.875-1.853 2.01-3.832 3.406-5.937 3.275-4.907 6.477-8.682 9.604-11.318 3.124-2.64 5.938-3.96 8.443-3.96 1.966 0 3.602.658 4.91 1.99 1.297 1.308 2.163 3.183 2.598 5.628.135.796.265 1.905.387 3.323.113 1.42.23 2.47.348 3.135.196 1.105.548 1.918 1.06 2.453.51.535 1.193.805 2.072.805 1.605 0 3.802-.726 6.603-2.183 2.8-1.453 5.885-3.502 9.265-6.134 1.47-1.14 3.367-2.68 5.698-4.615 3.633-3.07 5.956-4.6 6.948-4.6.5 0 .922.112 1.244.347.317.235.526.566.604.996.157.94-1.435 2.214-4.79 3.832-3.352 1.627-5.875 3.493-7.58 5.59-2.523 3.11-5.886 11.705-10.08 25.798l-.643 2c2.062-.586 4.977-1.53 8.743-2.804 3.772-1.263 6.525-2.15 8.274-2.65 5.34-9.483 11.353-17.23 18.03-23.22 6.668-5.993 12.244-8.995 16.72-8.995 1.87 0 3.397.48 4.58 1.43 1.197.958 1.94 2.294 2.24 4.034.823 4.64-1.752 9.285-7.73 13.957-5.976 4.65-14.68 8.752-26.11 12.292-2.99 7.877-5.12 14.706-6.412 20.465-1.288 5.76-1.653 10.192-1.11 13.297.253 1.445.696 2.536 1.358 3.284.643.75 1.452 1.13 2.422 1.13 1.17 0 2.628-.734 4.376-2.182 1.753-1.453 3.71-3.593 5.877-6.438.527-.635 1.12-1.43 1.78-2.41.687-1.07 1.157-1.596 1.422-1.596.13 0 .28.057.43.152.15.096.236.213.262.348.056.37-.21 1.022-.8 1.98-.605.956-1.61 2.313-3.037 4.084-2.422 2.94-4.532 5.06-6.324 6.36-1.792 1.304-3.47 1.957-5.046 1.957-2 0-3.84-1.017-5.51-3.036-1.676-2.013-2.794-4.597-3.346-7.738-.634-3.606-.543-7.668.288-12.17.818-4.51 2.366-9.522 4.637-15.033-3.236.974-6.19 1.896-8.856 2.78-2.668.887-5.238 1.778-7.722 2.683M144.35 78.558c.166 1.01.53 1.76 1.08 2.253.56.48 1.365.732 2.414.74 1.04.005 2-.495 2.888-1.492 1.57-1.83 2.932-4.984 4.058-9.473 1.135-4.485 1.483-8.03 1.053-10.614-.165-.92-.518-1.656-1.07-2.195-.548-.54-1.122-.823-1.714-.823-1.302-.008-2.52.736-3.672 2.25-1.97 2.522-3.445 6.02-4.428 10.482-.792 3.637-.996 6.6-.61 8.874m14.625-14.85c.86 5.093.074 9.608-2.354 13.536-2.413 3.928-5.292 5.885-8.61 5.855-1.78-.018-3.333-.693-4.655-2.024-1.323-1.34-2.227-3.432-2.702-6.26-.32-1.913-.26-4.105.174-6.593.435-2.484 1.2-4.55 2.284-6.177.245-.383.523-.818.828-1.348.91-1.505 2.087-2.77 3.514-3.79 1.43-1.017 2.975-1.517 4.654-1.504 1.536.01 2.945.657 4.21 1.95 1.28 1.304 2.158 3.413 2.66 6.354M170.292 58.572l-2.013-.018-.928-.043-2.13.057-.436-.013c-.035-.474.065-1.044.29-1.674 3.185-.057 5.086-.122 5.67-.183.247-1.053.47-1.892.67-2.532.4-1.422.786-3.105 1.15-5.05.11-.635.245-1.213.42-1.735.477-.066 1.03-.096 1.66-.092.53.005 1.045.07 1.55.18l.15.53c.07.413-.5 2.818-1.686 7.224-.126.496-.235 1.014-.287 1.536.648.117 1.026.17 1.13.17l.688.004 1.12.052 3.113-.048c.122.727.1 1.322-.09 1.775-.858.084-1.99.118-3.403.11-.687-.01-1.13.004-1.322.02-1.092.097-1.718.21-1.862.32l-3.2 12.81c-.393 1.234-1.028 3.583-1.89 7.054.027.122.114.287.275.453l.445.065c.587 0 1.26-.357 2.014-1.1 1.643-1.627 3.117-3.537 4.444-5.72.396.2.753.44 1.08.7-1.72 2.64-2.946 4.38-3.68 5.215-.74.84-1.71 1.71-2.91 2.61-1.197.905-1.932 1.405-2.19 1.518-.46.187-.947.292-1.46.278-.544 0-.953-.117-1.258-.356-.29-.24-.474-.57-.548-1.01-.104-.63.166-2.113.822-4.427l.87-3.058 2.893-11.645c.365-1.518.644-2.844.84-3.975M185.202 69.077c.705.026 1.757-.24 3.162-.8.762-.292 1.736-.892 2.92-1.784.478-.344.978-.94 1.513-1.78.54-.834.913-1.713 1.113-2.618.196-.91.218-1.848.048-2.814-.104-.634-.383-1.17-.826-1.59-.435-.414-.896-.632-1.357-.632-.592-.008-1.236.33-1.936 1.005-1.167 1.174-2.26 3.15-3.29 5.93-.756 2.117-1.21 3.814-1.348 5.084m-.278 1.68c-.383 1.982-.41 3.996-.07 6.036.252 1.475.8 2.68 1.657 3.59.57.603 1.245.92 2.046.925.474 0 .896-.095 1.23-.29.74-.406 1.358-.893 1.85-1.454.487-.565.97-1.31 1.452-2.214.483-.91.822-1.94 1.027-3.075l.46.004c.266 0 .575.025.9.082-.234 2.44-1.47 4.832-3.66 7.177-1.38 1.452-2.937 2.17-4.677 2.156-1.166-.008-2.24-.543-3.228-1.61-1.322-1.39-2.18-3.305-2.588-5.732-.174-1.057-.222-2.32-.152-3.79.07-1.46.23-2.696.474-3.68.405-1.525.896-2.97 1.48-4.33l1.913-3.668c1.357-1.744 2.118-2.7 2.288-2.87.657-.658 1.348-1.145 2.075-1.488.717-.335 1.5-.492 2.33-.488 1.08.005 2.098.46 3.072 1.37.966.91 1.562 2.05 1.788 3.42.21 1.204.096 2.388-.335 3.57-.43 1.17-.96 2.032-1.592 2.576l-2.432 1.76c-.286.15-1.064.423-2.334.815-1.27.4-2.937.8-4.972 1.206M206.972 40.31l-.07-.96c2.663-.2 4.69-.288 6.082-.28l1.452.014.074.443-.482 3.184c-.03.088-.492 2.11-1.38 6.074l-2.505 11.553c-.422 2.17-1.174 5.515-2.266 10.052l-.605 2.852c-.417 2.084-.787 3.485-1.13 4.198-.53 1.183-.74 2.053-.653 2.618l.22.527c.714-.06 1.528-.548 2.428-1.462 1.33-1.283 2.458-2.93 3.388-4.94.396-.084.705-.123.93-.123l.37.03c-.547 1.606-1.22 2.906-1.996 3.898-1.23 1.575-2.096 2.57-2.6 2.98-1.11.957-2.193 1.683-3.267 2.18-.688.32-1.392.477-2.097.477-.39-.004-.692-.104-.91-.3-.234-.204-.364-.46-.417-.77-.175-1.022.82-5.546 2.983-13.55.67-2.44 1.318-5.215 1.958-8.338 1.12-5.48 2.032-9.378 2.737-11.696.71-2.31 1.152-4.406 1.352-6.267.012-.192.004-.348-.022-.48-.048-.308-.26-.612-.6-.886-.457-.34-1.45-.687-2.976-1.027" fill="#364799"/><path d="M.197 96.246c65.93 26.968 150.002 49.613 212.83 3.18C231.165 86.015 245.193 68.102 258 49.75c9.342-13.405 18.068-29.308 31.513-39.125 26.695-19.522 47.26 15.385 56.847 35.563 9.805 20.64 19.235 41.254 32.528 59.958 18.117 25.494 42.806 44.824 70.897 58.252-.66-.318.722-4.994 0-5.342-41.062-19.622-70.192-51.15-90.632-91.332-10.66-20.983-19.574-56.804-44.146-65.97-15.894-5.927-28.317 4.125-37.812 15.76-12.336 15.13-22.14 32.167-34.416 47.374-20.854 25.83-47.644 44.807-80.285 52.29-54.24 12.417-112.45-5.887-162.298-26.274.59.235-.657 5.072 0 5.342" fill="#7a2519"/></svg>