<svg xmlns="http://www.w3.org/2000/svg" width="360" height="666.307"><path d="M343.513 145.955c.163-1.152 1.3-2.23 2.586-2.487 1.443-.267 2.798.55 3.836 2.33l3.085-1.84c.105.148.125.237.125.237-.04-.232.08-.92.188-1.394.212-1.33.484-2.823-.208-4.034-1.91-3.18-5.39-4.82-8.677-4.064-3.24.75-5.355 3.53-5.692 7.466-.276 3.214-.375 6.61.594 9.785.118.44.292.83.474 1.216-16.826-19.966-49.583-47.3-107.62-58.073v-9.894c4.405-.58 8.425-2.27 11.382-5.024l.588-.54v-.074c5.053-5.073 7.867-12.574 7.867-21.26 0-.056-.098-2.874-.098-2.874-.356-4.672-1.647-10.314-3.377-15.17 3.13-1.854 5.77-3.228 9.127-4.42 5.73-2.032 10.37-1.775 14.21-.114-3.782 1.805-7.204 4.658-9.804 8.45-4.4 6.418-3.93 16.836-2.166 23.783 4.682 18.528 22.566 29.782 30.033 33.767 8.02 4.257 16.588 6.764 24.86 9.187 6.542 1.923 13.31 3.906 19.69 6.744 10.818 4.816 23.288 13.103 21.285 25.247-.524 3.19-1.825 5.37-3.783 6.324-1.873.918-4.3.65-6.783-.713-.9-.51-1.934-1.34-1.72-2.562M142.535 92.58v-9.42c.108-.03.217-.078.32-.118h.055l.362-.178c2.74-1.236 9.474-4.826 14.59-11.45 7.893 2.382 15.814.177 22.143-6.137 6.334 6.314 14.26 8.51 22.16 6.136 5.123 6.625 11.843 10.215 14.587 11.45.638.293 1.276.55 1.918.802v9.29c-12.153-1.6-25.335-2.486-39.585-2.486-13.083 0-25.232.74-36.55 2.11m-121.94 59.526c.04-.054.05-.1.065-.153.99-3.165.86-6.57.603-9.785-.35-3.936-2.467-6.715-5.7-7.466-3.28-.757-6.78.885-8.654 4.06-.713 1.215-.456 2.71-.218 4.04.093.473.217 1.16.182 1.393 0 0 .02-.09.1-.237l3.095 1.84c1.042-1.78 2.41-2.597 3.84-2.33 1.28.257 2.413 1.335 2.606 2.487.188 1.222-.83 2.052-1.72 2.562-2.512 1.364-4.925 1.63-6.81.712-1.947-.956-3.248-3.136-3.79-6.325-2-12.144 10.48-20.43 21.31-25.247 6.358-2.838 13.137-4.82 19.688-6.744 8.257-2.423 16.83-4.93 24.85-9.187 7.467-3.985 25.356-15.24 30.038-33.766 1.76-6.946 2.24-17.364-2.18-23.78-2.596-3.79-6.017-6.637-9.805-8.452 3.847-1.66 8.495-1.918 14.245.12 3.367 1.206 5.928 2.516 9.108 4.415-1.73 4.835-2.992 10.472-3.362 15.07 0 .1-.1 2.922-.1 2.922 0 9.083 2.982 16.85 8.44 21.914 3.225 3 7.7 4.74 12.594 5.166v9.232c-58.572 10.195-91.428 37.27-108.427 57.538m93.9-97.42c.287-3.556 1.153-7.343 2.493-11.185 6.066 3.957 12.08 8.654 17.444 12.847 6.714 5.256 12.48 9.805 17.345 12.307.015 0 .207.103.484.227-2.985 3.645-6.466 6.696-9.724 8.486v-3.27l-13.514 3.38v1.863c-2.917-.664-5.602-2.053-7.86-4.16-4.357-4.044-6.755-10.388-6.755-17.874 0 .064.09-2.62.09-2.62m16.47-33.568c9.25-9.48 20.182-14.65 29.26-13.84 5.997.618 11.02 2.863 14.962 6.626-1.87 2.917-3.354 6.22-4.397 9.86-3.426 12.167-.964 27.62 5.81 37.4-4.13 4.592-8.252 5.78-14.63 3.994 1.65-2.73 2.96-5.587 3.886-9.43.765-3.174.834-5.572.834-7.564 0-5.548-1.31-10.27-3.94-14.057-3.387-5.128-7.467-7.002-9.81-6.557-2.092.4-4.144 2.68-4.757 5.29-.9 3.76-.33 11.73 3.644 17.702l.135.218c.108.084.277.252.277.252.02.015 2.922 2.457 2.922 2.457.435.39 1.083.593 1.69.504.64-.085 1.207-.455 1.578-.99.58-.855.51-2.032-.143-2.862-3.453-4.12-5.336-12.258-4.704-14.23.11-.342.327-.722.49-.955.53.233 1.805 1.187 3.604 3.877 2.488 3.634 3.012 8.07 3.012 11.154 0 1.543-.173 3.17-.53 4.816-.73 3.452-1.83 5.444-3.693 8.258-.668-.342-1.41-.727-2.003-1.054l-.183-.09c.02 0-.895-.488-.895-.488-4.446-2.29-10.29-6.873-16.496-11.738l-.143-.084-3.283-2.62c-4.014-3.19-8.54-6.745-13.706-10.117 2.612-5.71 5.935-10.368 11.206-15.732m46.2 6.037c.515-1.815 1.41-4.332 2.84-6.932 1.166 2.12 2.115 4.43 2.847 6.932 2.685 9.627 1.547 20.88-2.848 29.02-4.366-8.14-5.528-19.393-2.838-29.02m22.655-19.877c9.053-.81 19.99 4.36 29.256 13.84 5.247 5.384 8.57 10.037 11.18 15.733-5.177 3.373-9.696 6.928-13.69 10.117.014 0-3.344 2.62-3.344 2.62-6.28 4.94-12.138 9.52-16.544 11.793l-.98.505v.03c-.642.34-1.418.76-2.15 1.127-1.88-2.794-2.947-4.792-3.678-8.243-.352-1.657-.534-3.264-.534-4.832 0-3.085.52-7.52 2.986-11.095 1.815-2.73 3.09-3.703 3.614-3.936.17.213.38.61.495.935.613 1.968-1.24 10.126-4.673 14.225-.687.816-.75 2.032-.143 2.922.35.533.93.874 1.557.954.618.09 1.237-.114 1.73-.534-.048.03 2.468-2.082 2.785-2.36l.24-.167c.09-.104.288-.415.288-.415 3.945-5.93 4.49-13.9 3.604-17.657-.603-2.61-2.64-4.89-4.76-5.295-2.325-.44-6.394 1.434-9.826 6.6-2.59 3.734-3.9 8.45-3.9 14.02 0 2 .083 4.414.815 7.564.945 3.86 2.265 6.718 3.892 9.443-6.368 1.77-10.472.583-14.626-4.01 6.78-9.78 9.237-25.232 5.82-37.4-1.033-3.64-2.532-6.942-4.41-9.86 3.95-3.762 8.98-6.007 14.996-6.625m45.692 47.482c.02.074.034.573.11 2.615 0 7.412-2.394 13.76-6.76 17.8-1.963 1.815-4.223 3.1-6.66 3.852v-1.552l-13.534-3.378v3.867c-3.604-1.65-7.555-4.984-10.917-9.078l.43-.193c4.86-2.517 10.59-7.006 17.237-12.203l.158-.128c5.365-4.198 11.362-8.895 17.444-12.86 1.36 3.86 2.215 7.633 2.492 11.258M70.02 63.076c-.267-.11-1.577-.756-2.482-1.266.603-1.814 1.42-3.134 2.26-3.604 1.176-.648 2.783-1.083 3.683.47.733 1.32 1.03 2.863.94 4.47-1.542.32-3.045.34-4.4-.07m-1.27 10.7c-1.647 1.276-4.82 3.026-7.664.282-2.947-2.838-7.472-8.6-4.604-15.338 1.92-4.534 4.836-8.4 8.396-11.17 2.403-1.858 4.875-3.203 7.382-4.05-.39.64-.76 1.292-1.088 1.91-.133.227-.227.514-.277.825 0 .065-.282 2.685-.282 2.685v.02c-.084 0-.163 0-.27.03-2.948.563-5.524 3.253-6.4 6.695-.875 3.293-.726 6.7-.5 9.582.258 2.996 1.8 4.593 3.032 5.4 1.226.805 2.69 1.18 4.178 1.3-.588.687-1.22 1.315-1.904 1.83m217.788-15.1c.895-1.554 2.487-1.12 3.684-.47.83.47 1.646 1.79 2.26 3.603-.92.51-2.24 1.157-2.567 1.296-1.315.38-2.78.38-4.32.05-.085-1.613.177-3.16.943-4.48m8.584-11.125c3.58 2.77 6.487 6.636 8.41 11.17 2.863 6.74-1.656 12.5-4.603 15.338-2.85 2.744-6.028.994-7.675-.282-.677-.514-1.3-1.142-1.89-1.83 1.49-.118 2.968-.494 4.18-1.3 1.23-.806 2.768-2.403 3.006-5.4.243-2.892.376-6.303-.484-9.58-.885-3.443-3.46-6.133-6.408-6.696-.094-.025-.158-.03-.247-.03v-.025l-.286-2.615c-.054-.35-.124-.574-.232-.79-.327-.644-.722-1.317-1.108-2.004 2.457.84 4.954 2.186 7.338 4.045m59.19 109.89c5.23-2.412 5.513-10.743 5.666-15.707.895-27.027-25.825-34.527-43.477-39.492l-4.716-1.334c-12.885-3.817-27.595-9.503-39.194-22.78-4.594-5.27-7.862-11.292-9.405-17.403-1.587-6.32 2.937-11.264 5.76-13.647 3.417-2.858 7.24-4.396 11.175-4.677 1.88 2.332 3.486 4.963 4.92 7.653-.514.39-1.004.885-1.46 1.458-1.823 2.508-2.23 6.464-2.12 10.093-3.644-1.968-7.006-5.39-8.564-9.316v-.004l-3.327 1.33c0-.015-.02-.015-.02-.015.048.237-.065 1.033-.154 1.523-.183 1.158-.41 2.478.09 3.684 2.224 5.617 6.713 9.662 13.274 12.085 1.232 4.725 4.188 10.703 8.826 12.805 2.482 1.137 5.143 1.028 7.72-.332 7.663-4.054 9.843-14.586 9.324-23.09-.88-14.225-11.847-21.682-16.52-24.223-3.832-2.092-8.04-2.883-12.193-2.527-5.646-5.2-13.335-8.613-23.19-5.206-3.312 1.152-6.852 2.823-10.684 5.063C236.698 13.65 215.016-1.434 197.78.11c-6.907.71-12.99 3.465-17.775 7.954C175.223 3.574 169.147.82 162.26.11c-17.262-1.544-38.94 13.55-48.28 33.27-3.855-2.24-7.36-3.936-10.664-5.063-9.904-3.407-17.587.005-23.24 5.206-4.132-.356-8.34.435-12.172 2.527-4.687 2.54-15.644 9.998-16.53 24.223-.5 8.114 1.657 19.036 9.33 23.09 2.582 1.36 5.237 1.47 7.724.332 4.618-2.102 7.6-8.065 8.816-12.806 6.59-2.424 11.056-6.47 13.286-12.086.474-1.206.277-2.526.064-3.683-.064-.49-.193-1.285-.11-1.527 0 0-.028.005-.038.02l-3.333-1.326c-1.552 3.926-4.93 7.348-8.593 9.31.143-3.623-.257-7.58-2.107-10.086-.43-.572-.92-1.052-1.448-1.453 1.468-2.684 3.08-5.325 4.93-7.658 3.94.28 7.742 1.818 11.16 4.676 2.822 2.383 7.36 7.323 5.76 13.647-1.53 6.11-4.807 12.133-9.405 17.404-11.605 13.276-26.31 18.962-39.175 22.78l-4.712 1.334C25.84 107.207-.864 114.707.02 141.734c.16 4.964.446 13.295 5.668 15.708 2.526 1.158 6.596 1.623 10.057.07.33-.148.638-.326.944-.494-9.405 11.357-12.832 21.83-12.832 21.83v419.458h352.268V178.717s-3.11-9.23-13.602-22.23c.53.386 1.113.727 1.74 1.023 3.472 1.553 7.55 1.088 10.048-.07" fill="#231f20"/><path d="M347.133 181.536v-.954l-.39-.856c-.367-.82-9.242-20.653-34.523-40.51-23.07-18.136-64.92-39.748-133.134-39.748-68.25 0-109.584 21.637-132.26 39.773-24.84 19.893-33.94 41.396-33.94 41.396v407.458h334.247V181.536zM18.02 582.17l-.292-398.39c.32-.76 33.553-78.206 161.328-78.206 127.864 0 162.475 77.16 162.82 77.91l.713 398.687H18.02z" fill="#fae589"/><path d="M342.205 184.18s-7.9-19.02-33.805-39.96c-22.13-17.895-62.997-38.543-129.288-38.543-66.33 0-106.45 20.96-128.417 38.552-23.97 19.184-32.762 39.738-32.762 39.738v398.33h324.272V184.18zm-319.323.945c.312-.742 32.525-74.518 156.23-74.518 123.735 0 157.704 73.816 158.03 74.557l-.247 392.007-313.77.08-.243-392.125z" fill="#fff"/><path d="M71.242 183.97c.06 5.388.133 10.802.188 16.25.034 3.764.326 3.79 6.764 3.982.025.697.044 1.4.054 2.08-6.917.105-13.81.23-20.737.337.016-.49.046-.975.065-1.47 6.517-.657 6.606-.77 6.65-4.113.065-9.81.144-19.55.213-29.197.04-3.155-.1-3.382-5.765 1.088.035-.475.04-.954.05-1.43 5.888-5.324 12.05-10.18 18.373-14.566.015.668.015 1.33.035 1.988-5.888 4.445-6.106 4.87-6.086 8.42.064 4.708.12 9.435.153 14.17 8.193-3.33 16.54-6.258 25.044-8.78-.25-6.324-.508-12.618-.74-18.868-.198-4.727-.42-4.974-6.582-2.13-.04-.767-.05-1.53-.08-2.3 6.528-3.798 13.208-7.15 20.046-10.052.03.89.07 1.794.094 2.684-6.34 3.264-6.576 3.71-6.373 8.693.647 15.283 1.275 30.754 1.898 46.41.243 5.353.534 5.447 7.03 5.897.03.925.07 1.87.115 2.82-6.932.068-13.84.152-20.762.236-.044-.806-.06-1.592-.084-2.393 6.423-.79 6.616-.935 6.413-5.983-.272-7.298-.573-14.547-.85-21.74-8.51 2.274-16.9 4.93-25.123 7.965M124.6 169.424c.82 15.16 4.58 33.924 17.805 34.013 13.192-.02 15.778-21.004 15.55-37.94-.588-16.682-4.356-36.702-17.978-33.814-13.582 3.347-15.777 22.695-15.377 37.74m34.562-34.007c4.504 6.28 7.006 16.677 7.288 29.642.267 12.95-1.76 23.822-5.765 30.873-3.99 7.432-9.84 11.53-18.16 11.487-8.095-.005-14.325-3.926-18.864-10.265-4.192-6.08-6.907-15.056-7.362-26.176-.47-11.15 1.44-20.83 5.192-28.09 3.975-7.51 10.008-13.053 18.344-14.95 8.534-1.915 14.898.968 19.328 7.48M195.404 194.522c.06 6.735.33 6.883 8.287 7.728 0 1.118 0 2.23.016 3.343-7.926-.025-15.862-.035-23.808-.035-.005-1.147-.025-2.284-.045-3.426 8.03-.78 8.248-.915 8.16-7.71-.24-22.066-.47-43.742-.698-65.058-1.508-.044-3.03-.094-4.525-.133-9.186-.128-10.76 2.61-11.4 14.948-.778.015-1.544.05-2.29.074-.134-6.27-.268-12.524-.39-18.735 14.906-.82 29.923.213 44.72 3.13-.014 5.978-.028 11.995-.053 18.047-.757-.118-1.513-.232-2.26-.326-.89-12.035-2.482-14.917-11.53-16.01-1.533-.168-3.066-.326-4.633-.455.168 21.152.3 42.705.45 64.62M255.83 142.584c-.075 4.875-.1 9.775-.154 14.695-.732-.26-1.473-.53-2.22-.802-.96-9.79-2.61-13.034-11.145-16.208-2.42-.846-4.874-1.677-7.326-2.443-2.448-.76-2.834-.46-2.858 2.838-.084 8.243-.144 16.55-.218 24.91 3.496.623 7.006 1.326 10.502 2.097 6.38 1.394 6.67-.717 7.422-6.418.756.213 1.503.44 2.21.658-.06 6.54-.134 13.107-.198 19.733-.74-.134-1.483-.267-2.225-.39-.61-6.068-.88-8.555-7.264-9.865-3.476-.682-6.982-1.315-10.492-1.884-.055 7.773-.134 15.58-.193 23.447-.054 5.127.327 6.962 1.87 7.955 1.533 1.03 4.232 1.207 7.713 1.31 9.385.263 12.693-1.24 14.527-12.32.742.088 1.488.197 2.22.29-.326 5.222-.682 10.478-1.028 15.794-13.143-.15-26.3-.258-39.432-.337 0-1.078.005-2.14.005-3.223 6.586-.638 6.69-.747 6.73-7.05.103-18.385.236-36.506.33-54.34.045-5.835-.025-6.2-6.808-8.416 0-1.02.02-2.037.02-3.036 12.93 2.872 25.686 7.2 38.012 13.004M276.578 197.046c0 3.674.38 5.023 1.913 5.79 1.54.77 4.23.97 7.888 1.152 7.777.39 11.792-.36 12.91-7.036.707.158 1.404.326 2.15.49-.088 2.986-.177 6.05-.266 9.166-12.85-.222-25.712-.415-38.597-.568 0-.846.01-1.66.01-2.527 6.58-.34 6.675-.425 6.68-5.162.09-13.858.168-27.57.232-41.142.015-4.405-.044-4.766-6.427-8.593.014-.796.02-1.587.03-2.413 6.857 3.63 13.572 7.703 20.09 12.272.013.643.028 1.29.028 1.928-6.393-3.752-6.714-3.574-6.7.53.02 11.916.02 23.965.06 36.114" fill="#f2e18b"/><path d="M229.31 648.66c-9.34 7.793-20.365 12.04-29.547 11.388-5.998-.515-11.03-2.324-14.972-5.336 1.81-2.343 3.26-4.98 4.233-7.876 3.437-9.993 1.044-22.616-5.646-30.72 4.11-3.654 8.287-4.593 14.63-3.174-1.532 2.17-2.773 4.45-3.668 7.48-.748 2.527-.842 4.525-.842 6.33 0 4.603 1.35 8.53 4.005 11.698 3.348 4.144 7.254 5.642 9.454 5.31 1.75-.276 3.98-1.893 4.682-4.385.92-3.13.365-9.805-3.684-14.8l-.074-.113-.1-.074-.128-.114c-.084-.07-.242-.153-.242-.153.11.065-2.78-1.942-2.78-1.942-.914-.603-2.135-.445-2.798.4-.672.792-.608 1.998.134 2.76 3.58 3.515 5.177 9.943 4.668 11.293-.124.292-.41.688-.58.83-.395-.038-1.764-.617-3.945-3.282-2.436-2.892-2.95-6.457-2.95-8.92 0-1.236.182-2.52.52-3.866.73-2.804 1.833-4.416 3.77-6.764.862.35 1.88.806 2.478 1.048l.895.4c4.43 1.88 10.265 5.622 16.44 9.568l.2.124.236.148 3.09 2.007c3.955 2.586 8.44 5.46 13.517 8.17-2.576 4.518-5.864 8.266-10.996 12.567m-46.274-4.88c-.54 1.558-1.474 3.714-3.03 5.953-1.262-1.81-2.29-3.802-3.017-5.953-2.746-7.89-1.47-17.147 3.015-23.748 4.5 6.62 5.77 15.857 3.03 23.748m-22.808 16.268c-9.152.652-20.198-3.595-29.52-11.388-5.15-4.326-8.424-8.05-11.01-12.568 5.093-2.695 9.558-5.583 13.508-8.154l3.343-2.17.222-.16c6.166-3.944 11.99-7.653 16.38-9.502l1.005-.43v-.015c.974-.43 1.785-.79 2.408-1.032 2.072 2.507 3.056 4.064 3.768 6.764.342 1.335.51 2.63.51 3.866 0 2.463-.49 6.028-2.897 8.87-2.225 2.745-3.6 3.294-3.96 3.333-.21-.142-.48-.538-.59-.83-.523-1.35 1.074-7.777 4.62-11.253.78-.776.844-2.007.147-2.838-.672-.822-1.88-.965-2.764-.362l-2.813 1.943-.14.065c-.068.075-.256.257-.256.257l-.05.05c-.034.01-.064.084-.064.084-4.054 4.974-4.613 11.67-3.703 14.8.717 2.49 2.947 4.108 4.682 4.384 2.206.332 6.107-1.166 9.5-5.35 2.614-3.11 3.964-7.035 3.964-11.658 0-1.682-.064-3.68-.84-6.33-.92-3.03-2.14-5.325-3.694-7.48 6.37-1.42 10.522-.48 14.65 3.194-6.7 8.084-9.073 20.707-5.636 30.7.99 2.897 2.418 5.533 4.203 7.876-3.927 3.012-8.936 4.82-14.973 5.336m-45.93-38.745c0-.065 0-.49-.063-2.136 0-5.94 2.383-11.06 6.684-14.344 5.385-4.104 13.257-4.994 20.53-2.33 3.545 1.326 7.412 3.937 10.74 7.195l-.18.08c-4.864 2.022-10.65 5.745-17.31 10.022-5.22 3.347-11.57 7.402-17.854 10.78-1.36-3.2-2.23-6.296-2.546-9.267m111.047-1.49c-6.67-4.3-12.455-8.01-17.3-10.046 0 0-.11-.024-.223-.08 3.333-3.257 7.2-5.868 10.74-7.193 7.263-2.665 15.125-1.775 20.54 2.33 4.296 3.282 6.68 8.404 6.68 14.437 0-.093-.1 2.127-.1 2.127-.282 2.873-1.152 5.983-2.527 9.127-6.205-3.283-12.336-7.184-17.81-10.7m62.582 4.16c-.92-.367-1.948-.04-2.497.77-5.448 8.322-12.994 16.218-27.89 11.896-3.344-.95-5.95-2.086-9.05-3.56 1.682-3.925 2.923-8.464 3.264-12.183 0-.084.113-2.408.113-2.408 0-7.566-3.03-13.998-8.54-18.18-6.17-4.718-17.032-5.6-26.382-2.177-2.764 1.038-9.533 3.99-14.67 9.464-7.907-2.032-15.922-.213-22.27 5.107-6.36-5.305-14.364-7.14-22.285-5.107-5.137-5.503-11.882-8.43-14.64-9.464-9.365-3.422-20.218-2.54-26.41 2.176l-.647.478v.084c-5.073 4.183-7.866 10.374-7.866 17.553 0 .08.094 2.388.094 2.388.352 3.788 1.593 8.322 3.264 12.267-3.066 1.474-5.696 2.586-9.03 3.56-14.89 4.322-22.47-3.574-27.91-11.896-.504-.81-1.567-1.137-2.487-.77-.875.3-1.42 1.215-1.3 2.194l.28 2.136c.04.317.12.514.23.737l.043.065.035.07c4.757 7.228 15.204 18.655 31.763 13.977 3.387-.964 6.997-2.373 10.987-4.287 9.177 15.94 31.194 28.59 48.07 27.353 6.937-.593 13.058-2.882 17.81-6.645 4.76 3.763 10.873 6.052 17.795 6.645 17.182 1.266 38.81-11.154 48.09-27.353 3.985 1.914 7.6 3.323 10.976 4.287 16.6 4.707 27.007-6.74 31.75-13.978.21-.262.28-.593.305-.712.02-.158.318-2.294.318-2.294.108-.98-.45-1.894-1.31-2.195" fill="#231f20"/><path d="M80.998 530.875h-2.56c-1.56-8.015-7.685-10.84-16.526-10.84-15.95-.068-21.538 11.097-21.538 22.202 0 8.183 3.704 21.993 21.45 21.993 11.253 0 15.62-5.162 18.07-12.223h2.563L81.23 563.36c-4.128 1.775-12.05 3.263-18.848 3.263-9.73 0-18.092-1.577-23.437-5.81-5.142-4.044-8.163-10.393-8.163-18.413 0-7.64 2.917-13.46 7.797-17.775 5.156-4.59 13.636-6.977 24.232-6.977 7.812 0 14.398 1.167 18.186 2.645v10.582zM98.65 542.142c.212 9.948 3.688 22.087 18.97 22.087 15.285 0 18.865-12.14 19.097-22.088-.232-10.027-3.812-22.107-19.096-22.107-15.282 0-18.758 12.08-18.97 22.107m40.287-17.958c4.79 4.05 7.362 10.3 7.362 17.958 0 7.58-2.572 13.835-7.363 17.884-4.8 4.203-11.7 6.596-21.316 6.596-9.378 0-16.41-2.393-21.304-6.596-4.58-4.05-7.27-10.304-7.27-17.884 0-7.66 2.69-13.91 7.27-17.958 4.895-4.218 11.926-6.532 21.305-6.532 9.618 0 16.516 2.314 21.317 6.532M169.52 557.464c0 3.268.456 4.405 2.236 5.023 1.785.61 4.905.703 9.147.703 9.05 0 13.736-.88 15.506-9.77h2.575l-1 12.153H153.34v-1.948c7.58-.435 7.703-.53 7.703-4.4v-34.246c0-3.8-.122-3.962-7.702-4.407v-1.938h24.445v1.938c-7.936.445-8.262.608-8.262 4.406v32.484zM227.66 513.796l12.407-6.8c3-1.566 4.222-2.006 5.567-1.734 1.335.168 3.006 2.106 2.79 3.51-.22 1.23-1.34 1.765-5.242 2.735l-14.626 3.797-.895-1.508zm-14.837 28.346c.222 9.95 3.698 22.087 18.962 22.087 15.298 0 18.873-12.14 19.09-22.088-.217-10.027-3.792-22.106-19.09-22.106-15.264 0-18.74 12.08-18.962 22.106m40.302-17.958c4.796 4.05 7.342 10.3 7.342 17.958 0 7.58-2.546 13.835-7.342 17.885-4.81 4.202-11.718 6.595-21.34 6.595-9.355 0-16.386-2.393-21.306-6.595-4.58-4.05-7.27-10.305-7.27-17.885 0-7.66 2.69-13.908 7.27-17.958 4.92-4.217 11.95-6.53 21.305-6.53 9.622 0 16.53 2.313 21.34 6.53M283.9 522.568c11.062 11.462 22.217 22.908 33.49 34.285l.237.163v-21.86c0-3.223-.237-5.65-.682-7.663-.43-2.58-2.56-2.823-8.153-3.15v-1.775h20.44v1.775c-4.46.327-6.576.57-7.026 3.15-.45 2.012-.682 4.44-.682 7.664v30.413h-5.687c-12.064-12.51-24.208-24.925-36.603-37.434h-.114v24.846c0 3.228.114 5.64.534 7.66.583 2.66 2.58 2.827 8.168 3.138v1.79H267.62v-1.79c4.46-.222 6.47-.48 7.035-3.14.445-2.017.55-4.43.55-7.658v-24.61c0-3.46-.105-3.623-7.7-4.03v-1.774H283.9zM67.38 474.14c0 2.848 1.275 3.02 6.22 3.02 7.223 0 14.115-3.475 14.115-13.087 0-8.386-5.28-12.93-13.938-12.93-5.47 0-6.398.682-6.398 2.828v20.17zm0 20.39c0 4.327.256 4.47 8.93 4.935v2.225H51.506v-2.225c7.392-.464 7.56-.608 7.56-4.934v-38.927c0-4.326-.168-4.46-7.56-4.935v-2.225H74.94c5.883 0 11.267.777 15.292 3.076 3.783 2.165 6.56 6.155 6.56 12.004 0 9.632-7.41 13.79-13.873 15.323-3.086.687-6.878.99-10.74.99h-4.8v14.694zM117.787 492.47c0 3.772.326 5.063 2.12 5.77 1.737.613 4.758.76 8.956.76 8.816 0 13.434-1.008 15.125-11.075h2.53l-1.012 13.76H101.91v-2.22c7.388-.464 7.55-.612 7.55-4.934V455.6c0-4.318-.162-4.456-7.55-4.93v-2.226h23.927v2.225c-7.798.474-8.05.612-8.05 4.93v36.87z" fill="#f2e18b"/><path d="M171.87 456.224h-.248c-2.52 6.773-5.458 14.31-8.148 22.002h16.702l-8.306-22.002zm8.885 45.46v-2.22l3.797-.318c2.68-.222 3.095-1.063 2.255-3.302l-5.617-14.695h-18.81c-1.942 5.462-3.707 10.23-5.12 14.852-.694 2.08-.427 2.853 2.105 3.08l4.356.38v2.22h-18.47v-2.22c5.294-.227 6.05-1.16 7.796-5.31 2.957-7 6.477-16.227 9.078-22.932l8.81-22.774h6.226l17.795 46.41c1.523 4 2.443 4.226 7.323 4.607v2.22h-21.523z" fill="#f2e18b"/><path d="M249.876 448.445l.52 1.014c-12.703 16.553-25.286 33.008-37.554 49.543h16.96c12.95 0 16.905-1.39 18.408-11.007h2.695l-.86 13.686h-47.838l-.45-.993c12.697-16.546 25.28-33.075 37.548-49.545h-15.03c-11.502 0-13.603 1.69-14.602 10.542h-2.715v-13.242h42.918zM278.084 456.224h-.242c-2.527 6.773-5.454 14.31-8.14 22.002h16.694l-8.312-22.002zm8.91 45.46v-2.22l3.778-.318c2.694-.222 3.105-1.063 2.27-3.302l-5.628-14.695h-18.818c-1.944 5.462-3.69 10.23-5.118 14.852-.677 2.08-.415 2.853 2.11 3.08l4.362.38v2.22h-18.472v-2.22c5.276-.227 6.042-1.16 7.792-5.31 2.947-7 6.468-16.227 9.083-22.932l8.82-22.774h6.207l17.81 46.41c1.503 4 2.427 4.226 7.307 4.607v2.22h-21.503zM262.682 268.313c-.015.865-.1 13.562-.11 14.878-1.383-.28-75.867-15.39-80.83-16.395l-.1-18.117c4.055.99 80.125 19.407 81.04 19.635m-14.34 150.55c-.998-.05-5.596-.323-6.506-.357V283.438l6.507-1.543v136.967zm-7.727-136.854l-50.888-9.41v-2.922l49.36 10.012c.677.148 1.177.237 1.528.316v2.003zm-11.57 14.368c-9.31-1.276-22.072-3.02-29.884-4.104 4.174-1.375 17.96-4.85 29.885 4.104m-32.095-4.574l.188.203c-2.19-.317-3.787-.54-4.524-.633l.045-16.846c4.745.87 46.99 8.49 47.935 8.663-.01.935-.104 13.524-.104 14.76-.38-.06-3.98-.524-9.082-1.246-15.674-13.31-34.27-4.974-34.458-4.9m43.665 30.013l-50.028-4.44c-.178-5.078-.42-10.295-.727-15.615v-.133l1.933.23.015-6.125-1.928-.386v-2.7l2.734.454v-.662l48 6.793v22.582zm0 4.717c-4.82-.356-45.573-3.45-49.83-3.778-.045-1.36-.09-2.744-.14-4.123 3.443.29 45 3.916 49.97 4.336v3.564zm0 91.517c-4.39.777-41.44 7.363-47.13 8.377l.03-19.97-.66.034-2.896.203.162-9.923 1.543-.183.01-6.116-.623.02-.683.025c.158-3.135 1.542-30.393.444-66.542l49.8 3.866v90.21zm-48.367 10.88c-.786.19-6.744 1.635-7.936 1.907 0-1.414.025-21.488.025-22.537.935-.07 6.883-.455 7.946-.53 0 1.223-.035 20.264-.035 21.16m-9.033-21.792l-7.185-.316c-.074-2.344-.1-7.94-.1-9.884l7.59.643 5.48-.69-.035 2.278-.306 7.614-5.445.356zm-.346 23.872c-1.153-.138-9.055-1.21-9.99-1.33.016-1.033.035-20.598.055-21.76 1.048.054 8.955.39 9.958.435 0 1.112 0 21.404-.024 22.655m-11.176-23.738l-.153 18.448c-5.695-.618-53.923-5.914-58.477-6.418v-91.804l61.316-3.66c-.332 18.573-.55 45.268.498 66.78l-1.463-.024v.623l.034 5.528 1.394.104-.025 9.932-3.09-.143-.036.632zm-60.332-128.996v.074c-13.434 2.28-23.496 3.995-23.595 4.025v-15.1c.944-.198 88.2-17.94 92.476-18.82v18.172c-1.187.207-12.623 2.136-27.08 4.608l-41.8 7.04zm-8.14 141.738V280.98l.145-.02 7.995 1.32.118 137.042c-1.636.128-7.258.623-8.257.692m80.2-129.67l-.08-12.37v-5.523l8.065 1.514c0 .925-.015 16.38-.015 17.672-1.108-.178-6.937-1.113-7.97-1.29m5.048 4.736l-6.106-1-6.823.936v-2.497l6.824-1.13 6.107 1.022v2.67zm-5.255 4.49l-.035-4.267 7.382 1.438v3.724c-1.073-.14-6.28-.767-7.347-.895m-.322 92.387v4.29c-1.463-.113-7.332-.583-8.217-.647 0-.766-.015-2.912-.03-3.758.994.015 6.917.1 8.247.114m-1.003-96.823v4.286c-1.083.13-6.636.737-7.704.856 0-.88-.02-3.037-.02-3.75.82-.138 6.483-1.156 7.724-1.393m-23.032-2.898c-11.16 1.19-26.487 2.817-36.282 3.866 4.796-2.58 20.267-9.667 36.282-3.867m13.177-17.81l.08 16.385c-1.514.173-5.44.593-10.616 1.127l.01-.014c-19.295-8.688-38.924 2.62-41.97 4.51-3.664.394-6.072.652-6.477.68v-13.947c1.938-.28 52.515-7.792 58.972-8.74m.846-1.41v-.005l-.72.1-59.097 8.78v-2.586l39.812-6.765c11.393-1.923 20.87-3.515 21.4-3.61 0 .13.025 1.464.025 3.803l-1.42.282zm9.237 17.162c-1.093.188-7.605 1.25-8.742 1.43-.015-1.296-.094-16.486-.094-17.41.832-.163 7.606-1.498 8.802-1.736 0 .475.01 2.77.035 5.533v12.182zm-7.62 28.347c-.02 1.31-.064 2.684-.108 4.118-7.373.435-58.138 3.43-61.327 3.634v-3.634c3.19-.203 54.443-3.654 61.435-4.12m-61.435 2.883v-23.055l59.076-6.3v1.015l2.16-.35-.025 2.535-1.34.247.025 6.15 1.992-.22c-.034.914-.242 6.91-.43 15.89l-61.46 4.09zm77.38 70.38v3.704c-.796.084-4.825.55-6.12.697l-.01-4.25c.92-.03 3.816-.13 5.334-.184.213.11.52.1.796.035m-.583-41.19c-.084 20.696-.9 37.13-1.053 39.955l-5.765.183-6.626-.104c-.13-3.59-.94-26.878-.94-40.312 0-24.164.742-44.56.896-49.094l6.284-.603 5.87.84c.662 7.847.775 15.25.983 21.984v.42h.03c.27 9.28.36 17.764.32 26.73m-1.34-81.175l.025 3.012-5.84-1.227-7.174 1.286-.004-3.807 5.528-.89 7.466 1.625zm-6.853-50.522v.025L58.61 248.9l.617 2.448 122.44-29.83-.035 25.395-95.106 19.348v17.583l15.466-2.65V421.36l10.433-.876 59.09 6.976-.043 3.224 12.09 1.592 9.912-2.358.01-2.34 47.13-8.523v.608l5.885.32-54.094 14.315.277 1.207 56.525-14.942-.08-.4.44.024V281.82l14.227 2.89.128-17.366-79.744-19.318v-26.468c3.173 1 101.865 32.352 101.865 32.352l.79-2.413-105.148-32.574-.02-.02zM70.852 416.755h.667v-46.78h-.668v46.78zm3.273.17h.663v-52.848h-.663v52.847zm3.046.39h.673V350.38h-.672v66.934zm3.274.35h.673V337.04h-.673v80.625zm2.917.49h.69V317.48h-.69v100.675zm3.373.395h.678v-73.544h-.677v73.544zm3.28.485h.67V366.53h-.67v52.505zm2.975.455h.663v-66.582h-.662v66.582zm3.264.272h.672v-80.2h-.672v80.2zm2.922.4h.667V308.556h-.666v111.606zm187.68-10.76h.748v-36.78h-.747v36.78zm-3.648.723h.737v-47.07h-.737v47.07zm-4.09 1.424h.748v-61.876h-.747v61.875zm-3.657 1.052h.755V336.33h-.756V412.6zm-3.858 1.024h.732V321.01h-.732v92.616zm-3.753 1.102h.746v-69.376h-.747v69.376zm-3.818.984h.732v-48.535h-.732v48.535zm-3.802.964h.75V354.39h-.75v62.286zm-4.248 1.034h.752v-76.67h-.752v76.67zm-3.876 1.295h.75V310.05h-.75v108.955zm-15.002-27.096c-.954.08-8.682.746-9.81.845.01-1.305.287-61.425.287-62.73 1.124.108 8.93.776 9.87.85 0 1.122-.346 59.937-.346 61.034m1.592-62.147l-12.33-1.073v.667l-.313 64.753 12.283-1.058.36-63.29zm-33.943 64.44c-.95.08-8.683.752-9.8.856 0-1.32.09-66 .09-67.3 1.126.094 8.933.762 9.878.846 0 1.102-.167 64.49-.167 65.598m1.41-66.74l-12.357-1.06v.674l-.09 69.326 12.263-1.068.182-67.873zm15.08-10.433c-1.118-.118-8.96-.825-9.9-.91 0-1.023.04-16.578.055-17.83 1.162.14 8.99 1.074 9.93 1.178 0 .99-.085 16.35-.085 17.563m1.305-18.67l-12.38-1.458v.697l-.06 19.638 12.366 1.142.074-20.02zm-1.627 94.702c-.953.08-8.676.746-9.794.85 0-1.325.193-63.724.193-65.015 1.102.094 8.924.762 9.863.846 0 1.097-.242 62.216-.262 63.32m1.51-64.457l-12.347-1.044v.658l-.208 67.037 12.297-1.053.257-65.598zm-17.475-13.113c-1.132-.094-8.934-.82-9.888-.905l.014-18.517c1.153.144 8.995 1.08 9.91 1.178 0 1.004-.035 17.03-.035 18.245m1.286-19.338l-12.375-1.473-.02.692-.024 20.336 12.377 1.133.044-20.688zm31.29 22.408c-1.123-.09-8.94-.815-9.88-.904 0-1.03.06-15.913.065-17.154 1.142.14 8.984 1.058 9.91 1.177 0 1-.095 15.68-.095 16.88m1.354-17.988l-12.4-1.463v.702l-.09 18.962 12.367 1.152.124-19.353zm-34.2 117.748c-.88.143-8.584 1.29-9.776 1.483 0-1.3.04-18.027.04-19.026.934-.09 8.668-.865 9.785-.97 0 1.237-.035 17.544-.05 18.513m1.296-19.862l-.683.055-11.58 1.147-.03 21.563 12.243-1.814.05-20.95zm14.852 17.905c-.885.123-8.588 1.275-9.765 1.463 0-1.305.054-17.32.054-18.34.916-.098 8.67-.86 9.796-.973 0 1.236-.084 16.876-.084 17.85m1.34-19.214l-.707.08-11.59 1.142-.05 20.875 12.243-1.83.104-20.266zm14.81 17.247c-.896.11-8.605 1.28-9.776 1.45 0-1.297.064-16.644.08-17.663.928-.09 8.65-.85 9.794-.954 0 1.23-.1 16.203-.1 17.167m1.356-18.532l-.712.06-11.57 1.147-.094 20.212 12.242-1.84.134-19.58zm-81.653-1.43c0-1.116-.252-64.81-.267-65.953 1.018-.054 12.06-.776 13.196-.84.01 1.27.332 66.31.366 67.56-1.152-.054-12.272-.697-13.295-.766m14.175-68.105l-15.67 1 .264 68.278 15.753.915-.347-70.192zm-54.84 66.118c0-1.127-.068-60.574-.068-61.716 1.004-.055 12.065-.782 13.187-.866 0 1.29.153 62.073.153 63.35-1.137-.075-12.247-.718-13.27-.768m14.358-63.887l-.648.046-15.026.974.08 64.035 15.738.89-.144-65.944zm5.973 64.882c0-1.127-.162-62.71-.172-63.818 1.02-.084 12.05-.8 13.207-.875 0 1.275.242 64.183.242 65.454-1.137-.045-12.257-.693-13.276-.762m14.27-65.993l-.657.038-15.01.98.157 66.15 15.753.89-.242-68.06zm-14.215 89.474c0-1-.044-16.802-.044-17.983 1.153.08 12.273.81 13.297.87 0 1.054.054 17.237.074 18.478-1.206-.118-12.346-1.24-13.325-1.364m-1.275-19.294v.653l.05 19.768 15.777 1.603-.074-21-15.753-1.023zm21.652 21.054c0-.98-.07-17.39-.07-18.596 1.138.08 12.268.81 13.296.87 0 1.043.07 17.854.07 19.1-1.178-.113-12.322-1.265-13.296-1.374m-1.306-19.907v.663l.07 20.37 15.772 1.613-.1-21.612-15.742-1.033zm-39.432 16.396c0-1.008-.025-16.188-.025-17.38 1.152.08 12.267.81 13.285.87 0 1.044.04 16.62.055 17.85-1.207-.11-12.347-1.256-13.316-1.34m-1.25-18.7v.653l.03 19.16 15.772 1.597-.05-20.362-15.753-1.047zm41.572-81.153c0-1.192-.06-17.35-.07-18.344.98-.12 11.986-1.27 13.173-1.4.01 1.247.073 17.796.083 18.834-1.013.104-12.05.83-13.187.91m13.667-21.034l-14.992 1.548.105 20.796 15.644-1.058-.11-21.355-.647.07zm-33.875 22.517c0-1.177-.05-16.707-.05-17.71.97-.13 11.97-1.267 13.173-1.395 0 1.216.04 17.167.04 18.21-.998.074-12.015.836-13.162.895m-1.285-18.838l.044 20.173 15.664-1.078-.068-20.732-15.64 1.637zm-18.938 20.34c0-1.205-.01-16.098-.024-17.097.98-.113 11.986-1.27 13.163-1.39 0 1.222.044 16.54.044 17.588-1.008.07-12.034.816-13.182.9m-1.26-18.24l.03 19.555 15.648-1.067-.044-20.11-15.635 1.623z" fill="#f2e18b"/></svg>