<svg xmlns="http://www.w3.org/2000/svg" width="400" height="136.837"><defs><clipPath id="a"><path d="M129.556 140.063c-4.583-4.584-5.77-10.846-2.633-13.98 3.13-3.13 9.39-1.944 13.974 2.64 4.588 4.59 5.772 10.844 2.64 13.978-1.185 1.186-2.816 1.754-4.635 1.754-2.993 0-6.493-1.537-9.346-4.39"/></clipPath></defs><path d="M146.41 35.784c0 4.806.96 8.36 2.86 10.655 1.907 2.293 4.233 3.444 6.975 3.444 2.628 0 4.823-1.054 6.565-3.16 1.746-2.115 2.617-5.567 2.617-10.378 0-4.486-.894-7.818-2.694-9.995-1.804-2.175-4.03-3.26-6.697-3.26-2.763 0-5.06 1.067-6.89 3.2-1.825 2.137-2.735 5.296-2.735 9.494m-11.203-20.678h10.558v6.29c1.37-2.152 3.223-3.898 5.557-5.24 2.337-1.34 4.936-2.015 7.778-2.015 4.97 0 9.188 1.95 12.657 5.845 3.466 3.89 5.196 9.323 5.196 16.276 0 7.15-1.743 12.706-5.238 16.664-3.49 3.966-7.724 5.946-12.695 5.946-2.363 0-4.503-.472-6.422-1.414-1.927-.935-3.948-2.545-6.068-4.83V74.18h-11.323V15.105z" fill="#d34827"/><path d="M204.204 57.904v-6.41c-1.56 2.284-3.607 4.084-6.147 5.402-2.54 1.31-5.216 1.974-8.036 1.974-2.877 0-5.455-.632-7.74-1.897-2.282-1.257-3.94-3.034-4.958-5.312-1.02-2.287-1.527-5.442-1.527-9.473v-27.08h11.32v19.67c0 6.016.21 9.7.628 11.06.414 1.353 1.173 2.426 2.278 3.218 1.1.794 2.498 1.193 4.19 1.193 1.933 0 3.668-.53 5.2-1.59 1.533-1.062 2.574-2.38 3.14-3.955.56-1.568.84-5.412.84-11.543V15.106h11.33v42.798h-10.516zM255.468 57.904H244.14v-21.84c0-4.62-.237-7.608-.72-8.967-.48-1.353-1.268-2.41-2.36-3.16-1.087-.758-2.396-1.132-3.928-1.132-1.958 0-3.72.535-5.276 1.61-1.56 1.07-2.63 2.504-3.207 4.274-.58 1.77-.868 5.05-.868 9.83v19.384h-11.32V15.106h10.515v6.29c3.733-4.84 8.438-7.255 14.106-7.255 2.495 0 4.782.455 6.845 1.35 2.07.9 3.638 2.05 4.7 3.45 1.06 1.39 1.795 2.983 2.215 4.753.42 1.77.625 4.31.625 7.62v26.59z" fill="#d34827"/><path d="M276.674 15.107v9.027h-7.738v17.25c0 3.492.07 5.525.22 6.104.15.578.483 1.05 1.01 1.425.525.38 1.163.566 1.912.566 1.047 0 2.566-.36 4.553-1.086l.972 8.782c-2.64 1.127-5.617 1.694-8.95 1.694-2.04 0-3.88-.346-5.517-1.025-1.64-.686-2.844-1.575-3.607-2.66-.766-1.092-1.298-2.558-1.594-4.412-.24-1.317-.36-3.976-.36-7.982V24.135h-5.2v-9.027h5.2v-8.5L268.936 0v15.107h7.738z" fill="#d34827"/><path d="M298.24 37.352c-1.45.483-3.746 1.062-6.892 1.73-3.143.673-5.195 1.33-6.16 1.98-1.488 1.05-2.218 2.37-2.218 3.982 0 1.59.59 2.957 1.773 4.114 1.18 1.156 2.683 1.733 4.514 1.733 2.04 0 3.983-.672 5.844-2.012 1.366-1.02 2.266-2.273 2.695-3.75.298-.968.444-2.803.444-5.516v-2.26zm-15.15-9.187l-10.276-1.856c1.156-4.138 3.143-7.196 5.966-9.188 2.82-1.985 7.01-2.982 12.568-2.982 5.052 0 8.813.597 11.282 1.797 2.474 1.192 4.21 2.712 5.218 4.547 1.008 1.843 1.514 5.218 1.514 10.136l-.12 13.22c0 3.762.18 6.533.544 8.322.36 1.783 1.04 3.696 2.034 5.742h-11.205c-.29-.76-.656-1.867-1.087-3.345-.186-.674-.325-1.116-.4-1.33-1.934 1.878-4.004 3.29-6.208 4.225-2.2.943-4.55 1.414-7.053 1.414-4.403 0-7.875-1.194-10.416-3.59-2.537-2.385-3.806-5.414-3.806-9.062 0-2.42.58-4.573 1.733-6.47 1.15-1.888 2.777-3.343 4.858-4.35 2.08-1.008 5.08-1.887 9-2.643 5.294-.99 8.964-1.92 11.004-2.78V28.85c0-2.177-.54-3.728-1.613-4.65-1.07-.93-3.1-1.396-6.08-1.396-2.02 0-3.59.4-4.717 1.186-1.133.8-2.04 2.19-2.74 4.175M154.283 66.053v9.02h-7.733v17.25c0 3.493.07 5.526.222 6.103.146.58.477 1.056 1.003 1.432.525.38 1.163.566 1.917.566 1.05 0 2.566-.364 4.556-1.09l.966 8.787c-2.636 1.127-5.615 1.695-8.947 1.695-2.043 0-3.885-.347-5.523-1.032-1.64-.686-2.84-1.574-3.607-2.66-.762-1.09-1.294-2.557-1.592-4.412-.237-1.316-.36-3.975-.36-7.974V75.074h-5.2v-9.02h5.2v-8.51l11.365-6.604v15.113h7.733z" fill="#d34827"/><path d="M177.667 83.778c-.08-3.272-.93-5.766-2.543-7.476-1.606-1.704-3.57-2.558-5.878-2.558-2.474 0-4.51.9-6.128 2.7-1.612 1.802-2.4 4.245-2.374 7.334h16.923zm-.648 11.447l11.283 1.89c-1.45 4.137-3.74 7.286-6.868 9.45-3.13 2.163-7.045 3.25-11.75 3.25-7.44 0-12.945-2.44-16.517-7.298-2.822-3.9-4.232-8.812-4.232-14.75 0-7.088 1.853-12.645 5.56-16.664 3.71-4.012 8.393-6.022 14.068-6.022 6.366 0 11.386 2.105 15.065 6.31 3.68 4.202 5.435 10.64 5.28 19.322h-28.367c.08 3.356.992 5.968 2.736 7.835 1.748 1.865 3.924 2.8 6.525 2.8 1.778 0 3.268-.482 4.474-1.448 1.207-.973 2.123-2.53 2.74-4.675" fill="#d34827"/><path d="M197.22 87.445c0 4.244 1.005 7.495 3.02 9.754 2.013 2.252 4.5 3.385 7.457 3.385 2.95 0 5.43-1.133 7.433-3.386 1.998-2.26 3-5.534 3-9.838 0-4.187-1.002-7.41-3-9.665-2.003-2.26-4.483-3.386-7.433-3.386-2.956 0-5.444 1.127-7.456 3.387-2.015 2.254-3.02 5.51-3.02 9.748m-11.605-.602c0-3.762.923-7.4 2.776-10.923 1.86-3.516 4.484-6.2 7.88-8.054 3.4-1.855 7.195-2.783 11.384-2.783 6.475 0 11.776 2.102 15.915 6.306 4.136 4.202 6.204 9.515 6.204 15.936 0 6.475-2.093 11.84-6.268 16.097-4.17 4.257-9.43 6.39-15.773 6.39-3.922 0-7.66-.887-11.215-2.664-3.567-1.772-6.267-4.378-8.127-7.8-1.852-3.422-2.775-7.588-2.775-12.507" fill="#d34827"/><path d="M267.664 108.842H256.34v-21.84c0-4.618-.24-7.606-.72-8.965-.483-1.353-1.27-2.415-2.362-3.16-1.09-.758-2.4-1.133-3.93-1.133-1.96 0-3.717.543-5.273 1.61-1.562 1.08-2.63 2.505-3.21 4.275-.577 1.77-.865 5.05-.865 9.83v19.382h-11.32v-42.79h10.516v6.285c3.733-4.835 8.438-7.255 14.1-7.255 2.5 0 4.783.453 6.85 1.353 2.073.894 3.638 2.05 4.696 3.446 1.064 1.395 1.802 2.982 2.22 4.753.413 1.77.622 4.31.622 7.62v26.59z" fill="#d34827"/><path d="M278.232 87.445c0 4.244 1.006 7.495 3.022 9.754 2.012 2.252 4.5 3.385 7.456 3.385 2.95 0 5.43-1.133 7.435-3.386 1.996-2.26 3-5.534 3-9.838 0-4.187-1.004-7.41-3-9.665-2.005-2.26-4.485-3.386-7.435-3.386-2.956 0-5.444 1.127-7.456 3.387-2.016 2.254-3.022 5.51-3.022 9.748m-11.604-.602c0-3.762.924-7.4 2.776-10.923 1.86-3.516 4.483-6.2 7.883-8.054 3.396-1.855 7.19-2.783 11.38-2.783 6.475 0 11.776 2.102 15.915 6.306 4.14 4.202 6.205 9.515 6.205 15.936 0 6.475-2.085 11.84-6.263 16.097-4.176 4.257-9.44 6.39-15.778 6.39-3.922 0-7.656-.887-11.215-2.664-3.563-1.772-6.265-4.378-8.126-7.8-1.852-3.422-2.776-7.588-2.776-12.507" fill="#d34827"/><path d="M305.76 96.632l11.37-1.73c.478 2.2 1.46 3.876 2.94 5.015 1.473 1.146 3.548 1.718 6.207 1.718 2.925 0 5.127-.544 6.603-1.617.994-.75 1.488-1.758 1.488-3.022 0-.86-.268-1.574-.807-2.135-.556-.535-1.823-1.03-3.782-1.49-9.134-2.015-14.925-3.856-17.364-5.52-3.393-2.314-5.08-5.52-5.08-9.635 0-3.702 1.466-6.82 4.392-9.347 2.928-2.522 7.46-3.786 13.617-3.786 5.857 0 10.21.954 13.06 2.86 2.845 1.91 4.81 4.73 5.88 8.46l-10.676 1.98c-.457-1.67-1.327-2.945-2.596-3.827-1.276-.888-3.097-1.335-5.468-1.335-2.973 0-5.115.417-6.404 1.25-.857.592-1.29 1.36-1.29 2.296 0 .806.377 1.49 1.13 2.057 1.023.752 4.545 1.814 10.578 3.185 6.033 1.37 10.236 3.052 12.63 5.03 2.364 2.017 3.55 4.825 3.55 8.426 0 3.922-1.64 7.297-4.92 10.117-3.275 2.82-8.125 4.235-14.54 4.235-5.83 0-10.45-1.187-13.844-3.554-3.403-2.36-5.624-5.567-6.67-9.628" fill="#d34827"/><path d="M365.37 66.053v9.02h-7.74v17.25c0 3.493.074 5.526.224 6.103.145.58.484 1.056 1.008 1.432.52.38 1.162.566 1.91.566 1.05 0 2.567-.364 4.555-1.09l.97 8.787c-2.64 1.127-5.617 1.695-8.948 1.695-2.042 0-3.88-.347-5.52-1.032-1.64-.686-2.84-1.574-3.607-2.66-.767-1.09-1.293-2.557-1.594-4.412-.24-1.316-.364-3.975-.364-7.974V75.074h-5.196v-9.02h5.196v-8.51l11.365-6.604v15.113h7.74z" fill="#d34827"/><path d="M388.75 83.778c-.082-3.272-.93-5.766-2.54-7.476-1.613-1.704-3.572-2.558-5.883-2.558-2.468 0-4.516.9-6.13 2.7-1.607 1.802-2.4 4.245-2.372 7.334h16.926zm-.65 11.447l11.282 1.89c-1.448 4.137-3.735 7.286-6.868 9.45-3.128 2.163-7.044 3.25-11.744 3.25-7.442 0-12.946-2.44-16.523-7.298-2.82-3.9-4.232-8.812-4.232-14.75 0-7.088 1.854-12.645 5.567-16.664 3.708-4.012 8.39-6.022 14.058-6.022 6.37 0 11.392 2.105 15.073 6.31 3.678 4.202 5.436 10.64 5.277 19.322h-28.368c.08 3.356.997 5.968 2.74 7.835 1.745 1.865 3.92 2.8 6.524 2.8 1.78 0 3.264-.482 4.478-1.448 1.207-.973 2.123-2.53 2.736-4.675" fill="#d34827"/><path d="M133.592 132.09l3.927-.6c.166.762.504 1.34 1.014 1.734.512.395 1.226.59 2.145.59 1.01 0 1.77-.185 2.282-.556.343-.26.516-.607.516-1.044 0-.297-.093-.542-.28-.74-.194-.183-.63-.355-1.308-.513-3.156-.695-5.156-1.33-6-1.907-1.17-.798-1.756-1.906-1.756-3.328 0-1.28.507-2.357 1.52-3.23 1.01-.872 2.58-1.308 4.705-1.308 2.022 0 3.526.33 4.51.988.984.66 1.662 1.635 2.032 2.925l-3.69.682c-.157-.576-.456-1.017-.898-1.323-.44-.308-1.07-.462-1.887-.462-1.03 0-1.768.146-2.212.433-.298.206-.447.47-.447.795 0 .278.13.514.39.71.353.26 1.572.627 3.655 1.1 2.084.473 3.538 1.053 4.366 1.74.815.696 1.223 1.666 1.223 2.91 0 1.354-.565 2.52-1.698 3.495-1.132.974-2.807 1.46-5.026 1.46-2.015 0-3.61-.407-4.784-1.225-1.174-.816-1.943-1.925-2.304-3.326M158.85 136.307v-2.213c-.54.788-1.246 1.41-2.123 1.865-.877.455-1.804.682-2.778.682-.994 0-1.885-.218-2.674-.655-.79-.436-1.36-1.05-1.713-1.838-.352-.79-.53-1.88-.53-3.273v-9.356h3.914v6.796c0 2.08.07 3.353.216 3.82.143.47.405.842.786 1.116.38.274.863.41 1.447.41.67 0 1.267-.183 1.796-.55.53-.366.89-.82 1.086-1.365.194-.542.29-1.872.29-3.99v-6.236h3.914v14.787h-3.634zM168.57 136.307h-3.912V121.52h3.634v2.103c.622-.993 1.18-1.648 1.678-1.963.496-.315 1.06-.474 1.692-.474.89 0 1.75.246 2.575.738l-1.212 3.412c-.658-.427-1.272-.64-1.837-.64-.548 0-1.01.15-1.392.45-.38.304-.68.85-.9 1.637-.217.79-.326 2.442-.326 4.958v4.567z" fill="#5c5c5b"/><path d="M172.498 121.52h2.172v-1.113c0-1.243.132-2.172.397-2.785.264-.612.75-1.11 1.46-1.497.712-.385 1.61-.577 2.697-.577 1.113 0 2.204.168 3.27.5l-.527 2.73c-.623-.148-1.222-.223-1.798-.223-.567 0-.972.133-1.22.397-.244.265-.368.772-.368 1.524v1.044h2.925v3.078h-2.925v11.71h-3.912v-11.71h-2.172v-3.078zM195.642 122.72l1.058-.81c.78-.603 1.17-1.202 1.17-1.796 0-.5-.187-.927-.564-1.28-.376-.353-.884-.53-1.524-.53-.623 0-1.11.155-1.462.467-.353.313-.53.672-.53 1.08 0 .482.298 1.067.892 1.755l.96 1.114zm-1.53 4.245c-.9.456-1.574 1.002-2.02 1.644-.445.64-.67 1.293-.67 1.96 0 .845.278 1.536.83 2.07.552.532 1.292.8 2.22.8.614 0 1.203-.122 1.768-.363.567-.242 1.185-.64 1.852-1.197l-3.98-4.915zm12.182 6.85l-2.367 3.022c-1.16-.566-2.274-1.346-3.342-2.34-.826.743-1.704 1.29-2.63 1.644-.93.353-2.035.53-3.315.53-2.544 0-4.456-.716-5.736-2.144-.993-1.106-1.49-2.376-1.49-3.816 0-1.308.39-2.485 1.17-3.53.778-1.044 1.944-1.95 3.494-2.72-.696-.827-1.222-1.614-1.574-2.36-.353-.75-.528-1.455-.528-2.124 0-1.235.494-2.282 1.482-3.14.988-.86 2.397-1.29 4.226-1.29 1.764 0 3.142.452 4.135 1.352.992.9 1.49 2 1.49 3.3 0 .826-.248 1.61-.74 2.353-.49.743-1.483 1.584-2.98 2.52l2.84 3.747c.335-.595.623-1.37.865-2.325l3.537.807c-.354 1.253-.66 2.17-.92 2.75-.26.578-.538 1.064-.835 1.454.436.408 1 .856 1.692 1.344.69.487 1.198.81 1.524.968M220.08 121.52v3.12h-2.673v5.96c0 1.205.026 1.91.077 2.108.05.2.168.364.348.495.18.13.402.195.662.195.36 0 .885-.126 1.572-.376l.335 3.035c-.91.39-1.94.585-3.09.585-.706 0-1.34-.12-1.908-.356-.566-.236-.982-.542-1.245-.918-.265-.376-.45-.884-.55-1.525-.084-.456-.125-1.373-.125-2.757v-6.447h-1.797v-3.12h1.797v-2.936l3.925-2.285v5.22h2.674zM230.817 136.307v-2.213c-.54.788-1.246 1.41-2.123 1.865-.877.455-1.804.682-2.778.682-.993 0-1.884-.218-2.673-.655-.79-.436-1.36-1.05-1.713-1.838-.352-.79-.53-1.88-.53-3.273v-9.356h3.914v6.796c0 2.08.07 3.353.215 3.82.143.47.405.842.786 1.116.38.274.864.41 1.448.41.67 0 1.266-.183 1.796-.55.53-.366.89-.82 1.086-1.365.195-.542.292-1.872.292-3.99v-6.236h3.913v14.787h-3.633zM240.537 136.307h-3.912V121.52h3.634v2.103c.62-.993 1.18-1.648 1.677-1.963.496-.315 1.06-.474 1.692-.474.888 0 1.75.246 2.574.738l-1.212 3.412c-.658-.427-1.272-.64-1.837-.64-.548 0-1.01.15-1.392.45-.38.304-.68.85-.9 1.637-.217.79-.326 2.442-.326 4.958v4.567z" fill="#5c5c5b"/><path d="M252.958 121.52v3.12h-2.673v5.96c0 1.205.026 1.91.076 2.108.053.2.17.364.35.495.18.13.4.195.66.195.362 0 .887-.126 1.574-.376l.334 3.035c-.91.39-1.94.585-3.09.585-.707 0-1.342-.12-1.91-.356-.564-.236-.98-.542-1.244-.918s-.45-.884-.55-1.525c-.084-.456-.125-1.373-.125-2.757v-6.447h-1.798v-3.12h1.797v-2.936l3.925-2.285v5.22h2.673zM253.963 115.896h3.91v20.412h-3.91v-20.412zM268.96 127.647c-.028-1.133-.32-1.993-.877-2.583-.558-.59-1.234-.884-2.033-.884-.854 0-1.56.312-2.116.933-.558.623-.832 1.467-.82 2.534h5.846zm-.223 3.954l3.898.655c-.5 1.43-1.292 2.52-2.373 3.266-1.082.748-2.435 1.122-4.06 1.122-2.57 0-4.474-.84-5.707-2.52-.975-1.345-1.463-3.045-1.463-5.097 0-2.45.64-4.37 1.92-5.757 1.282-1.387 2.902-2.082 4.86-2.082 2.2 0 3.937.727 5.208 2.18 1.272 1.453 1.88 3.678 1.825 6.675h-9.804c.03 1.162.346 2.065.95 2.71.602.645 1.354.968 2.254.968.614 0 1.13-.168 1.546-.5.417-.336.733-.874.947-1.617M284.278 136.307h-3.912V121.52H284v2.103c.62-.993 1.18-1.648 1.678-1.963.496-.315 1.06-.474 1.69-.474.89 0 1.75.246 2.576.738l-1.21 3.412c-.66-.427-1.273-.64-1.84-.64-.546 0-1.01.15-1.39.45-.382.304-.68.85-.9 1.637-.218.79-.326 2.442-.326 4.958v4.567zM298.705 127.647c-.03-1.133-.32-1.993-.877-2.583-.558-.59-1.235-.884-2.033-.884-.855 0-1.56.312-2.117.933-.557.623-.83 1.467-.82 2.534h5.847zm-.224 3.954l3.9.655c-.5 1.43-1.293 2.52-2.374 3.266-1.082.748-2.434 1.122-4.06 1.122-2.57 0-4.473-.84-5.707-2.52-.976-1.345-1.464-3.045-1.464-5.097 0-2.45.642-4.37 1.922-5.757 1.28-1.387 2.9-2.082 4.86-2.082 2.2 0 3.936.727 5.206 2.18 1.272 1.453 1.88 3.678 1.825 6.675h-9.804c.028 1.162.345 2.065.948 2.71s1.355.968 2.255.968c.612 0 1.127-.168 1.545-.5.417-.336.733-.874.946-1.617M302.688 132.09l3.928-.6c.166.762.505 1.34 1.015 1.734.512.395 1.226.59 2.146.59 1.01 0 1.77-.185 2.283-.556.34-.26.514-.607.514-1.044 0-.297-.093-.542-.28-.74-.194-.183-.63-.355-1.307-.513-3.156-.695-5.157-1.33-6-1.907-1.17-.798-1.756-1.906-1.756-3.328 0-1.28.507-2.357 1.52-3.23 1.01-.872 2.58-1.308 4.705-1.308 2.024 0 3.527.33 4.51.988.985.66 1.663 1.635 2.034 2.925l-3.69.682c-.158-.576-.458-1.017-.9-1.323-.44-.308-1.07-.462-1.886-.462-1.03 0-1.768.146-2.212.433-.3.206-.447.47-.447.795 0 .278.13.514.39.71.352.26 1.57.627 3.654 1.1 2.084.473 3.538 1.053 4.366 1.74.816.696 1.224 1.666 1.224 2.91 0 1.354-.566 2.52-1.698 3.495-1.133.974-2.808 1.46-5.026 1.46-2.015 0-3.61-.407-4.784-1.225-1.174-.816-1.942-1.925-2.304-3.326M321.32 128.915c0 1.467.348 2.59 1.044 3.368.696.78 1.554 1.17 2.575 1.17 1.02 0 1.877-.39 2.568-1.17.692-.78 1.037-1.912 1.037-3.396 0-1.45-.345-2.563-1.037-3.342-.69-.78-1.547-1.17-2.57-1.17-1.02 0-1.878.39-2.574 1.17-.696.78-1.045 1.903-1.045 3.37m-4.01-.21c0-1.3.32-2.558.96-3.773.64-1.215 1.547-2.144 2.723-2.784 1.173-.64 2.484-.96 3.932-.96 2.237 0 4.07.725 5.5 2.177 1.43 1.453 2.144 3.29 2.144 5.508 0 2.236-.723 4.09-2.166 5.56-1.444 1.473-3.26 2.208-5.45 2.208-1.357 0-2.648-.305-3.88-.918-1.228-.61-2.163-1.51-2.804-2.693-.64-1.184-.96-2.626-.96-4.325M337.666 136.307h-3.912V121.52h3.634v2.103c.622-.993 1.18-1.648 1.678-1.963.496-.315 1.06-.474 1.692-.474.89 0 1.75.246 2.575.738l-1.212 3.412c-.657-.427-1.27-.64-1.836-.64-.548 0-1.01.15-1.392.45-.38.304-.68.85-.9 1.637-.217.79-.326 2.442-.326 4.958v4.567z" fill="#5c5c5b"/><path d="M350.088 121.52v3.12h-2.674v5.96c0 1.205.026 1.91.077 2.108.052.2.168.364.35.495.18.13.4.195.66.195.362 0 .886-.126 1.573-.376l.335 3.035c-.91.39-1.94.585-3.092.585-.705 0-1.34-.12-1.907-.356s-.983-.542-1.246-.918c-.265-.376-.45-.884-.55-1.525-.084-.456-.125-1.373-.125-2.757v-6.447h-1.798v-3.12h1.797v-2.936l3.924-2.285v5.22h2.674z" fill="#5c5c5b"/><path d="M102.78 101.482s25.654-32.826.357-64.864c0 0 6.168.255 12.46-6.04 6.283-6.282 5.277-13.724 1.685-17.334l-.008-.002-.008-.01c-3.594-3.58-11.05-4.6-17.332 1.683-6.294 6.292-6.036 12.464-6.036 12.464-32.06-24.932-64.865.358-64.865.358s12.08-1.288 18 1.285c0 0-20.05 11.302-22.875 34.948 0 0-18.63-3.726-24.158 17.217 0 0 14.005-8.342 24.795 2.444 7.508 7.51 3.705 18.036 3.492 18.58l-.036.035.024-.005-.008.022.038-.038c.554-.203 11.07-4.014 18.574 3.49 10.797 10.802 2.45 24.803 2.45 24.803 20.944-5.527 17.213-24.162 17.213-24.162 23.65-2.822 34.954-22.87 34.954-22.87 2.576 5.92 1.285 17.997 1.285 17.997" fill="#903344"/><path d="M91.422 88.71c-15.498 15.496-39.115 17.022-52.736 3.4-13.63-13.625-12.1-37.24 3.397-52.74 15.512-15.512 39.12-17.03 52.748-3.404 13.62 13.622 12.103 37.23-3.408 52.743" fill="#e98b25"/><path d="M99.075 31.725C83.39 16.038 56.207 17.785 38.352 35.64c-17.842 17.843-19.594 45.027-3.91 60.713 15.682 15.68 42.864 13.922 60.705-3.917 17.857-17.854 19.608-45.032 3.928-60.71m-3.73 3.725c13.6 13.604 11.844 37.493-3.923 53.26-15.76 15.76-39.652 17.52-53.253 3.92-13.602-13.603-11.85-37.505 3.91-53.265C57.847 23.6 81.743 21.85 95.344 35.45" fill="#e98b25" stroke="#903344" stroke-width="1.3172382" stroke-miterlimit="10"/><path d="M72.09 83.626c7.185-3.594 18.245 6.43 18.245 6.43-6.813-7.833-10.024-13.87-6.04-19.92 5.255-7.97 19.657-6.805 19.657-6.805s-12.456-.894-15.54-11.696c-2.08-7.282 6.294-15.806 6.294-15.806S86.178 44.2 78.898 42.12c-10.802-3.084-11.696-15.537-11.696-15.537s1.165 14.4-6.804 19.655c-6.043 3.992-12.088.778-19.916-6.036 0 0 10.018 11.052 6.423 18.243-3.562 7.123-16.71 5.917-16.71 5.917s12.212 5.005 14.27 11.687c2.053 6.685-6.946 16.964-6.946 16.964s10.28-9 16.964-6.944c6.688 2.063 11.69 14.272 11.69 14.272s-1.21-13.15 5.915-16.716" fill="#903344"/><path d="M80.57 50.23c-5.835-5.838-16.477-4.354-24.23 3.4-7.743 7.74-9.228 18.384-3.392 24.22 5.827 5.828 16.463 4.335 24.206-3.41 7.752-7.75 9.244-18.384 3.416-24.21m-3.085 3.08c4.043 4.048 2.515 12.125-3.41 18.052-5.918 5.92-14.004 7.452-18.047 3.41-4.05-4.05-2.517-12.135 3.4-18.054 5.925-5.925 14.008-7.454 18.057-3.407" fill="#e98b25"/><path d="M79.033 51.767c-4.974-4.977-14.262-3.483-21.15 3.404-6.877 6.88-8.375 16.173-3.402 21.148 4.97 4.965 14.257 3.463 21.135-3.42C82.502 66.016 84 56.73 79.033 51.77" fill="#903344"/><path d="M77.485 53.31c4.043 4.048 2.516 12.126-3.41 18.053-5.918 5.92-14.003 7.45-18.047 3.408-4.05-4.047-2.517-12.132 3.4-18.05 5.926-5.928 14.007-7.457 18.057-3.41" fill="#e98b25"/><g><g clip-path="url(#a)" transform="matrix(1.3 0 0 -1.3 -107.9 237.6)"><path d="M136.085 147.56l12.55-12.55M134.52 145.997l12.55-12.55M132.957 144.435l12.55-12.55M131.395 142.87l12.55-12.55M129.83 141.306l12.55-12.55M128.266 139.742l12.55-12.55M126.702 138.178l12.55-12.55M125.137 136.614l12.55-12.55M123.574 135.05l12.55-12.55M122.01 133.487l12.55-12.55" fill="none" stroke="#903344" stroke-width="1.02" stroke-miterlimit="10"/></g></g></svg>