<svg xmlns="http://www.w3.org/2000/svg" width="400" height="511.603"><path d="M0 435.27h400V0H0v435.27z" fill="#3a53a4"/><path d="M28.08 420.557v-47.545" fill="none" stroke="#fff" stroke-width="9.702421819999998" stroke-miterlimit="10"/><path d="M63.172 383.356v26.64h7.705c2.223 0 3.918-.144 5.115-.407 1.18-.267 2.256-.706 3.214-1.32 1.7-1.076 2.955-2.58 3.768-4.515.81-1.947 1.216-4.383 1.216-7.343 0-4.555-1.175-7.872-3.507-9.942-2.345-2.083-6.073-3.114-11.202-3.114h-6.308zm-13.846-10.344h24.506c7.855 0 13.878 2.016 18.054 6.024 4.176 4.008 6.268 9.802 6.268 17.362 0 8.193-2.038 14.267-6.123 18.23-4.076 3.95-10.393 5.916-18.943 5.916h-23.76v-47.532zM109.55 373.012h34.04v9.278h-20.184v9.047h16.427v9.147h-16.427V410.7h21.95v9.853H109.55v-47.54zM180.487 386.868l-8.356 18.193h15.998l-7.64-18.192zm-4.908-13.856h11.604l23.03 47.54h-15.036l-3.466-7.627h-23.22l-3.64 7.628h-12.853l23.58-47.54zM252.765 374.024c-.028.39-.04.84-.055 1.33 0 .5-.013 1.192-.013 2.05 0 1.13.04 2.32.122 3.548.07 1.234.198 2.576.35 3.995-3.248-1.405-6.29-2.43-9.1-3.082-2.816-.67-5.536-.985-8.157-.985-2.55 0-4.487.402-5.807 1.193-1.324.786-1.988 1.948-1.988 3.47 0 1.27.583 2.237 1.735 2.92 1.134.682 4.08 1.46 8.817 2.305 6.06 1.102 10.335 2.86 12.83 5.27 2.49 2.416 3.732 5.9 3.732 10.45 0 4.986-1.61 8.81-4.84 11.466-3.218 2.676-7.86 4.01-13.883 4.01-3.458 0-6.784-.21-9.983-.625-3.213-.417-6.264-1.03-9.16-1.858-.082-2.888-.18-5.247-.308-7.1-.114-1.853-.28-3.498-.502-4.94 3.086 1.506 6.2 2.658 9.354 3.462 3.16.796 6.137 1.203 8.934 1.203 2.884 0 4.985-.37 6.318-1.103 1.33-.732 1.988-1.907 1.988-3.507 0-2.404-2.71-4.18-8.116-5.31-.334-.077-.587-.135-.772-.18-.272-.055-.65-.136-1.148-.23-5.72-1.248-9.585-2.59-11.574-4.01-1.658-1.206-2.95-2.78-3.882-4.695-.935-1.91-1.387-4-1.387-6.254 0-4.822 1.75-8.55 5.238-11.216 3.494-2.658 8.415-3.986 14.77-3.986 2.466 0 5.078.194 7.853.605 2.76.417 5.65 1.01 8.632 1.804M316.813 373.315H332.9l11.94 18.108 12.224-18.108h14.448L351.09 400.88v19.966h-13.85V401.18l-20.427-27.865z" fill="#fff"/><path d="M32.347 468.617v29.663h7.873c2.277 0 4.026-.15 5.242-.45 1.202-.295 2.3-.792 3.29-1.46 1.748-1.203 3.018-2.88 3.85-5.04.83-2.15 1.238-4.867 1.238-8.16 0-5.063-1.193-8.764-3.584-11.068-2.395-2.314-6.218-3.485-11.46-3.485h-6.45zM18.19 457.13h25.066c8.026 0 14.19 2.237 18.47 6.697 4.275 4.46 6.403 10.91 6.403 19.333 0 9.115-2.088 15.88-6.26 20.272-4.166 4.402-10.633 6.598-19.386 6.598H18.19v-52.9zM79.793 457.13h14.172v52.905H79.793V457.13zM142.35 458.242c-.01.443-.027.944-.036 1.49-.027.552-.027 1.302-.027 2.28 0 1.25.054 2.574.127 3.948.076 1.374.208 2.852.36 4.442-3.32-1.554-6.434-2.706-9.304-3.43-2.887-.727-5.666-1.09-8.355-1.09-2.603 0-4.583.44-5.938 1.33-1.343.877-2.02 2.156-2.02 3.86 0 1.405.587 2.49 1.753 3.248 1.18.755 4.19 1.614 9.025 2.563 6.2 1.238 10.58 3.186 13.132 5.87 2.54 2.68 3.823 6.557 3.823 11.637 0 5.535-1.654 9.788-4.957 12.76-3.29 2.97-8.026 4.453-14.208 4.453-3.53 0-6.932-.24-10.213-.687-3.28-.46-6.4-1.162-9.368-2.07-.082-3.218-.177-5.843-.294-7.904-.13-2.07-.303-3.904-.515-5.5 3.14 1.677 6.33 2.96 9.553 3.85 3.227.896 6.272 1.325 9.147 1.325 2.946 0 5.097-.393 6.457-1.207 1.347-.813 2.025-2.12 2.025-3.895 0-2.694-2.76-4.66-8.288-5.916-.354-.09-.607-.16-.796-.2-.276-.063-.678-.158-1.18-.27-5.857-1.38-9.797-2.875-11.844-4.452-1.686-1.342-3.01-3.086-3.964-5.228-.944-2.133-1.423-4.452-1.423-6.97 0-5.35 1.794-9.51 5.364-12.47 3.575-2.966 8.61-4.444 15.107-4.444 2.513 0 5.202.222 8.035.678 2.833.452 5.765 1.112 8.82 1.998M156.215 457.13h34.815v10.317h-20.643v10.06h16.806v10.18h-16.806v11.375h22.45v10.968h-36.622v-52.9zM238.597 439.754h3.665c-.542 3.168-1.49 5.513-2.833 7.014-1.343 1.51-3.12 2.268-5.334 2.268-.37 0-.696-.045-1.007-.077-.295-.046-.59-.104-.865-.186l-5.002-1.374c-.18-.067-.402-.122-.66-.153-.258-.045-.538-.045-.84-.045-.93 0-1.673.226-2.237.673-.543.438-.977 1.184-1.284 2.196h-3.588c.624-3.058 1.564-5.34 2.802-6.863 1.252-1.52 2.838-2.278 4.745-2.278.376 0 .774.044 1.207.094.43.072.886.172 1.347.325l4.718 1.337c.28.068.574.127.84.154.28.046.584.05.882.05.904 0 1.636-.248 2.196-.76.55-.505.967-1.305 1.247-2.38m-33.802 17.375h14.01l25.02 34.865-.243-34.865h12.486v52.9h-14.27l-24.748-34.362.244 34.363h-12.5v-52.9zM294.082 468.373c-3.832 0-6.833 1.338-9.002 4.013-2.155 2.698-3.24 6.413-3.24 11.194 0 4.822 1.085 8.564 3.24 11.216 2.17 2.68 5.17 3.995 9.002 3.995 3.81 0 6.783-1.314 8.93-3.994 2.137-2.652 3.2-6.394 3.2-11.216 0-4.795-1.063-8.527-3.2-11.207-2.147-2.67-5.12-4-8.93-4m0-12.81c8.126 0 14.56 2.53 19.306 7.59 4.74 5.058 7.117 11.88 7.117 20.463 0 8.627-2.377 15.446-7.117 20.47-4.745 5.013-11.18 7.517-19.306 7.517-8.17 0-14.637-2.513-19.386-7.547-4.764-5.016-7.14-11.84-7.14-20.44 0-8.61 2.385-15.432 7.153-20.476 4.776-5.057 11.22-7.578 19.372-7.578M366.14 458.242c-.02.443-.047.944-.047 1.49-.013.552-.013 1.302-.013 2.28 0 1.25.04 2.574.113 3.948.086 1.374.208 2.852.366 4.442-3.336-1.554-6.44-2.706-9.31-3.43-2.883-.727-5.672-1.09-8.356-1.09-2.59 0-4.582.44-5.938 1.33-1.342.877-2.02 2.156-2.02 3.86 0 1.405.592 2.49 1.767 3.248 1.17.755 4.17 1.614 9.015 2.563 6.22 1.238 10.575 3.186 13.128 5.87 2.54 2.68 3.828 6.557 3.828 11.637 0 5.535-1.66 9.788-4.962 12.76-3.294 2.97-8.026 4.453-14.203 4.453-3.535 0-6.93-.24-10.22-.687-3.284-.46-6.398-1.162-9.367-2.07-.072-3.218-.185-5.843-.294-7.904-.132-2.07-.295-3.904-.525-5.5 3.154 1.677 6.345 2.96 9.576 3.85 3.218.896 6.27 1.325 9.138 1.325 2.942 0 5.102-.393 6.45-1.207 1.355-.813 2.033-2.12 2.033-3.895 0-2.694-2.765-4.66-8.283-5.916-.348-.09-.614-.16-.8-.2-.284-.063-.677-.158-1.18-.27-5.86-1.38-9.8-2.875-11.844-4.452-1.69-1.342-3.014-3.086-3.958-5.228-.95-2.133-1.42-4.452-1.42-6.97 0-5.35 1.78-9.51 5.35-12.47 3.57-2.966 8.606-4.444 15.11-4.444 2.516 0 5.2.222 8.038.678 2.838.452 5.77 1.112 8.826 1.998" fill="#030304"/><path d="M299.38 233.604c0-25.998-10.196-45.44-30.537-58.305-17.443-10.982-40.323-16.464-68.658-16.464h-31.24v154.548h33.78c64.433 0 96.654-26.586 96.654-79.78m45.673 1.424c0 37.277-12.486 66.317-37.45 87.086-23.512 19.848-55.28 29.754-95.284 29.754h-85.452v-231.53h90.187c36.848 0 67.266 10.28 91.27 30.825 24.49 21.52 36.728 49.466 36.728 83.865M173.7 83.024h-46.823V37.562H173.7v45.462zM88.62 83.024H41.8V37.562h46.82v45.462zM88.62 165.62H41.8v-45.463h46.82v45.462z" fill="#fff"/></svg>