<svg xmlns="http://www.w3.org/2000/svg" width="400" height="161.27"><path d="M8.466 156.62v-12.177H3.322v-1.802h12.253v1.803H10.45v12.178H8.465" fill="#231f20"/><path d="M13.325 155.415c.95.92 2.116 1.395 3.493 1.395.655 0 1.282-.123 1.87-.35.57-.23 1.092-.582 1.576-1.036.454-.455.797-.978 1.062-1.576.256-.596.37-1.215.37-1.84 0-.638-.114-1.244-.36-1.813-.248-.58-.608-1.102-1.072-1.586-.484-.446-1.007-.797-1.586-1.045-.588-.237-1.214-.36-1.86-.36-1.377 0-2.544.466-3.493 1.404-.95.92-1.423 2.06-1.423 3.398 0 1.337.474 2.477 1.423 3.407zm1.358-5.572c.57-.598 1.28-.9 2.106-.9.806 0 1.518.302 2.088.9.598.617.882 1.33.882 2.174 0 .844-.284 1.583-.882 2.173-.59.617-1.282.91-2.09.91-.824 0-1.536-.293-2.105-.9-.58-.6-.874-1.33-.874-2.183 0-.845.294-1.557.873-2.174M28.975 156.62h1.852v-13.98h-1.852v5.287c-.34-.248-.71-.437-1.11-.542-.39-.123-.816-.18-1.28-.18-1.34 0-2.41.445-3.256 1.337-.846.884-1.264 2.05-1.264 3.466 0 1.413.418 2.573 1.263 3.463.844.893 1.916 1.34 3.254 1.34.474 0 .91-.057 1.3-.17.38-.115.75-.287 1.09-.524v.505zm-.91-1.566c-.314.104-.646.16-1.007.16-.93 0-1.67-.293-2.2-.863-.533-.578-.808-1.365-.808-2.372 0-.995.275-1.783.807-2.353.532-.578 1.27-.853 2.2-.853.362 0 .694.047 1.008.15.304.105.617.257.91.475v5.172c-.293.227-.606.39-.91.484M33.228 155.415c.95.92 2.107 1.395 3.484 1.395.673 0 1.29-.123 1.87-.35.587-.23 1.11-.582 1.574-1.036.466-.455.826-.978 1.072-1.576.247-.596.38-1.215.38-1.84 0-.638-.123-1.244-.37-1.813-.247-.58-.608-1.102-1.082-1.586-.464-.446-.987-.797-1.585-1.045-.588-.237-1.205-.36-1.858-.36-1.377 0-2.535.466-3.484 1.404-.95.92-1.433 2.06-1.433 3.398 0 1.337.484 2.477 1.433 3.407zm1.347-5.572c.59-.598 1.29-.9 2.117-.9.816 0 1.518.302 2.098.9.578.617.872 1.33.872 2.174 0 .844-.294 1.583-.872 2.173-.59.617-1.29.91-2.098.91-.827 0-1.528-.293-2.117-.9-.578-.6-.863-1.33-.863-2.183 0-.845.285-1.557.863-2.174M46.942 156.62h1.85v-13.98h-1.85v13.98zM51.195 155.415c.958.92 2.125 1.395 3.5 1.395.656 0 1.282-.123 1.87-.35.58-.23 1.102-.582 1.567-1.036.465-.455.816-.978 1.072-1.576.248-.596.38-1.215.38-1.84 0-.638-.124-1.244-.37-1.813-.246-.58-.608-1.102-1.082-1.586-.465-.446-.996-.797-1.585-1.045-.59-.237-1.206-.36-1.85-.36-1.377 0-2.544.466-3.502 1.404-.95.92-1.425 2.06-1.425 3.398 0 1.337.475 2.477 1.425 3.407zm1.365-5.572c.58-.598 1.282-.9 2.098-.9.826 0 1.528.302 2.107.9.588.617.873 1.33.873 2.174 0 .844-.295 1.583-.873 2.173-.588.617-1.28.91-2.107.91-.816 0-1.518-.293-2.098-.9-.587-.6-.873-1.33-.873-2.183 0-.845.286-1.557.873-2.174M71.19 161.27h1.843v-13.885H71.19v.532c-.35-.246-.72-.427-1.11-.532-.398-.123-.816-.18-1.28-.18-1.33 0-2.42.445-3.266 1.337-.835.884-1.253 2.05-1.253 3.466 0 1.413.42 2.573 1.254 3.463.845.893 1.937 1.34 3.266 1.34.474 0 .91-.057 1.3-.17.38-.115.75-.295 1.09-.524v5.154zm-.92-6.178c-.303.104-.645.153-.996.153-.94 0-1.67-.276-2.202-.845-.55-.58-.807-1.358-.807-2.344 0-1.007.257-1.794.807-2.365.532-.567 1.262-.853 2.202-.853.35 0 .693.057.996.153.314.103.617.255.92.473v5.154c-.303.21-.606.37-.92.475M80.635 155.5c-.456.445-.91.76-1.368.96-.455.206-.958.312-1.47.312-1.016 0-1.813-.295-2.383-.873-.587-.57-.864-1.368-.864-2.375v-6.14h1.843v5.665c0 .75.15 1.31.473 1.662.314.352.797.533 1.47.533.476 0 .885-.087 1.245-.276.362-.183.713-.485 1.055-.912v-6.673h1.84v9.236h-1.84v-1.12M92.08 153.763c-.673.445-1.328.787-1.954 1.016-.636.218-1.244.32-1.832.32-.874 0-1.566-.237-2.078-.73-.513-.493-.808-1.186-.855-2.068h6.91v-.268c0-1.478-.398-2.656-1.176-3.52-.78-.873-1.842-1.31-3.16-1.31-1.35 0-2.43.437-3.275 1.29-.826.866-1.255 1.996-1.255 3.37 0 1.51.43 2.717 1.3 3.626.875.893 2.032 1.357 3.485 1.357.692 0 1.357-.103 2.002-.303.654-.2 1.28-.494 1.888-.894v-1.887zm-5.864-4.403c.426-.37.996-.562 1.698-.562.646 0 1.177.202 1.604.6.428.407.664.93.73 1.603H85.36c.125-.73.41-1.26.856-1.64M105.586 153.763c-.674.445-1.328.787-1.955 1.016-.635.218-1.252.32-1.83.32-.874 0-1.566-.237-2.078-.73-.514-.493-.807-1.186-.856-2.068h6.9v-.268c0-1.478-.39-2.656-1.167-3.52-.78-.873-1.833-1.31-3.16-1.31-1.35 0-2.44.437-3.275 1.29-.836.866-1.263 1.996-1.263 3.37 0 1.51.447 2.717 1.31 3.626.863.893 2.03 1.357 3.482 1.357.693 0 1.357-.103 2.013-.303.645-.2 1.273-.494 1.88-.894v-1.887zm-5.875-4.403c.438-.37 1.007-.562 1.71-.562.635 0 1.176.202 1.602.6.42.407.666.93.722 1.603h-4.878c.124-.73.41-1.26.845-1.64M106.09 155.984v-1.946c.55.362 1.07.636 1.594.825.512.18.977.276 1.404.276.474 0 .854-.096 1.13-.256.257-.18.398-.42.398-.722 0-.39-.513-.817-1.518-1.31-.285-.153-.512-.256-.664-.35-.864-.437-1.453-.865-1.766-1.273-.323-.41-.484-.912-.484-1.5 0-.78.285-1.394.825-1.842.56-.454 1.32-.683 2.296-.683.513 0 1.006.058 1.49.19.475.114.95.313 1.413.57v1.792c-.57-.313-1.09-.55-1.566-.7-.464-.144-.91-.22-1.328-.22-.39 0-.692.067-.902.2-.21.133-.323.332-.323.578 0 .466.637 1.016 1.938 1.653l.17.085c1.006.502 1.67.95 1.974 1.328.314.38.467.875.467 1.453 0 .807-.315 1.463-.922 1.947-.608.484-1.424.73-2.43.73-.58 0-1.14-.066-1.66-.21-.532-.133-1.036-.34-1.54-.616M115.427 161.27v-5.154c.352.247.713.418 1.093.532.39.105.825.162 1.29.162 1.348 0 2.43-.447 3.274-1.34.837-.89 1.263-2.05 1.263-3.462 0-1.416-.426-2.582-1.263-3.466-.843-.892-1.926-1.337-3.273-1.337-.465 0-.892.058-1.272.18-.38.105-.76.286-1.11.523v-.523h-1.832v13.885h1.83zm.93-12.328c.306-.095.646-.144.998-.144.94 0 1.69.277 2.23.866.542.568.807 1.346.807 2.353 0 .997-.265 1.794-.807 2.362-.54.58-1.29.865-2.23.865-.352 0-.692-.05-.997-.153-.313-.106-.625-.266-.93-.484v-5.182c.305-.22.617-.38.93-.484M131.402 153.763c-.674.445-1.33.787-1.964 1.016-.628.218-1.246.32-1.824.32-.883 0-1.575-.237-2.087-.73-.522-.493-.798-1.186-.855-2.068h6.91v-.268c0-1.478-.39-2.656-1.177-3.52-.77-.873-1.832-1.31-3.16-1.31-1.348 0-2.43.437-3.266 1.29-.836.866-1.253 1.996-1.253 3.37 0 1.51.427 2.717 1.29 3.626.873.893 2.04 1.357 3.493 1.357.693 0 1.357-.103 2.012-.303.636-.2 1.272-.494 1.88-.894v-1.887zm-5.875-4.403c.426-.37.996-.562 1.698-.562.646 0 1.177.202 1.614.6.416.407.663.93.72 1.603h-4.888c.134-.73.41-1.26.855-1.64M132.53 156.62v-9.235h1.842v2.032c.503-.808.967-1.368 1.386-1.7.398-.313.844-.474 1.328-.474.323 0 .665.077 1.006.218.34.144.702.37 1.09.685l-1.004 1.65c-.286-.264-.58-.455-.845-.567-.275-.126-.56-.18-.864-.18-.494 0-.93.216-1.3.634-.37.41-.636.998-.798 1.747v5.19h-1.842" fill="#231f20"/><path d="M144.26 156.582c.18.153.447.228.8.228.368 0 .72-.066 1.06-.21.353-.14.685-.34 1.026-.634v-1.103c-.284.21-.493.343-.617.4-.124.066-.238.096-.36.096-.134 0-.23-.08-.286-.202-.057-.133-.085-.37-.085-.693v-3.93c0-1.175-.277-2.01-.817-2.543-.542-.53-1.396-.787-2.59-.787-.657 0-1.283.094-1.88.295-.59.208-1.12.492-1.585.872v1.803c.55-.418 1.09-.73 1.64-.947.542-.21 1.074-.315 1.586-.315.627 0 1.072.114 1.34.37.274.248.406.645.406 1.207 0 .102 0 .18-.018.236v.16l-2.184.722c-1.015.343-1.783.76-2.295 1.253-.504.495-.76 1.065-.76 1.72 0 .692.227 1.242.692 1.632.475.398 1.12.598 1.946.598.485 0 .93-.075 1.35-.22.417-.14.852-.378 1.327-.702.02.314.124.552.304.694zm-1.29-1.3c-.322.123-.636.18-.96.18-.436 0-.776-.103-1.024-.304-.246-.218-.36-.512-.36-.893 0-.427.237-.815.703-1.138.464-.322 1.318-.674 2.552-1.062v2.714c-.295.227-.607.387-.912.5" fill="#231f20"/><path d="M146.795 155.984v-1.946c.55.362 1.082.636 1.595.825.52.18.996.276 1.422.276.466 0 .837-.096 1.102-.256.275-.18.418-.42.418-.722 0-.39-.503-.817-1.51-1.31-.303-.153-.52-.256-.682-.35-.856-.437-1.443-.865-1.757-1.273-.32-.41-.484-.912-.484-1.5 0-.78.275-1.394.826-1.842.558-.454 1.32-.683 2.278-.683.52 0 1.033.058 1.508.19.484.114.95.313 1.414.57v1.792c-.578-.313-1.082-.55-1.565-.7-.465-.144-.912-.22-1.328-.22-.4 0-.693.067-.903.2-.21.133-.323.323-.323.578 0 .466.646 1.016 1.927 1.653l.18.085c1.006.502 1.65.95 1.974 1.328.304.38.456.875.456 1.453 0 .807-.304 1.463-.91 1.947-.62.484-1.425.73-2.43.73-.58 0-1.13-.066-1.662-.21-.522-.133-1.034-.34-1.547-.616M164.95 156.62h1.842v-13.98h-1.84v5.287c-.35-.248-.722-.437-1.11-.542-.39-.123-.82-.18-1.282-.18-1.33 0-2.42.445-3.245 1.337-.847.884-1.274 2.05-1.274 3.466 0 1.413.428 2.573 1.275 3.463.824.893 1.915 1.34 3.245 1.34.473 0 .91-.057 1.3-.17.39-.115.76-.287 1.09-.524v.505zm-.91-1.566c-.313.104-.647.16-1.007.16-.93 0-1.66-.293-2.2-.863-.532-.578-.797-1.365-.797-2.372 0-.995.265-1.783.796-2.353.54-.578 1.272-.853 2.2-.853.36 0 .695.038 1.008.15.313.105.616.257.91.475v5.172c-.294.227-.597.39-.91.484M176.454 153.763c-.673.445-1.328.787-1.965 1.016-.646.218-1.244.32-1.832.32-.874 0-1.566-.237-2.07-.73-.52-.493-.815-1.186-.872-2.068h6.91v-.268c0-1.478-.38-2.656-1.17-3.52-.768-.873-1.83-1.31-3.15-1.31-1.357 0-2.448.437-3.275 1.29-.834.866-1.26 1.996-1.26 3.37 0 1.51.437 2.717 1.3 3.626.872.893 2.032 1.357 3.492 1.357.694 0 1.358-.103 2.014-.303.644-.2 1.262-.494 1.878-.894v-1.887zm-5.875-4.403c.426-.37.997-.562 1.706-.562.646 0 1.17.202 1.596.6.427.407.665.93.73 1.603h-4.896c.142-.73.427-1.26.863-1.64M187.9 155.5c-.456.445-.912.76-1.366.96-.456.206-.95.312-1.472.312-1.006 0-1.803-.295-2.383-.873-.58-.57-.873-1.368-.873-2.383v-6.132h1.842v5.665c0 .75.17 1.3.483 1.662.313.352.805.533 1.48.533.474 0 .89-.087 1.234-.276.37-.183.71-.485 1.053-.912v-6.673h1.84v9.236h-1.84v-1.12M191.28 156.62v-9.235h1.85v1.11c.455-.427.91-.75 1.366-.938.456-.21.95-.314 1.48-.314 1.007 0 1.795.284 2.364.863.59.58.873 1.377.873 2.384v6.13h-1.84v-5.657c0-.75-.163-1.3-.476-1.66-.32-.36-.806-.53-1.482-.53-.472 0-.89.082-1.25.263-.352.192-.703.495-1.036.913v6.67h-1.85M205.582 156.582c.18.153.455.228.806.228.37 0 .72-.066 1.064-.21.34-.14.68-.34 1.025-.634v-1.103c-.295.21-.494.343-.628.4-.124.066-.238.096-.35.096-.145 0-.23-.08-.295-.202-.057-.133-.086-.37-.086-.693v-3.93c0-1.175-.266-2.01-.807-2.543-.542-.53-1.407-.787-2.59-.787-.677 0-1.292.094-1.87.295-.598.208-1.13.492-1.596.872v1.803c.532-.418 1.09-.73 1.632-.947.548-.21 1.09-.315 1.594-.315.626 0 1.072.114 1.33.37.273.248.416.645.416 1.207v.236c-.01.056-.01.104-.017.16l-2.186.722c-1.024.343-1.793.76-2.295 1.253-.514.495-.77 1.065-.77 1.72 0 .692.23 1.242.713 1.632.456.398 1.1.598 1.936.598.475 0 .922-.075 1.35-.22.417-.14.853-.378 1.318-.702.037.314.133.552.304.694zm-1.292-1.3c-.313.123-.626.18-.95.18-.444 0-.787-.103-1.033-.304-.238-.218-.352-.512-.352-.893 0-.427.228-.815.704-1.138.464-.322 1.308-.674 2.553-1.062v2.714c-.307.227-.61.387-.923.5M213.315 156.62h1.804V143.98h-1.805v12.643zM217.123 156.62V143.98h1.575l4.546 5.315 4.565-5.315h1.575v12.643h-1.777v-9.872l-4.364 5.097-4.348-5.097v9.873h-1.773M233.14 156.62v-5.448h2.156c1.32 0 2.347-.313 3.086-.94.73-.635 1.1-1.51 1.1-2.638 0-1.13-.37-2.02-1.1-2.658-.74-.635-1.766-.958-3.086-.958h-3.957v12.643h1.8zm0-11.01h1.966c.884 0 1.52.162 1.908.484.39.304.59.807.59 1.5 0 .703-.2 1.204-.59 1.52-.39.312-1.024.463-1.908.463h-1.965v-3.967M242.434 156.62v-5.657h.542c.55 0 1.025.134 1.432.407.39.286.922.932 1.557 1.927l2.182 3.324h2.185l-3.078-4.63c-.282-.44-.54-.78-.72-.96-.19-.2-.39-.35-.6-.455.827-.247 1.427-.637 1.815-1.14.38-.502.57-1.177.57-2 0-1.103-.354-1.95-1.045-2.547-.695-.606-1.68-.91-2.962-.91h-3.684v12.643h1.804zm0-11.112h1.5c.883 0 1.518.16 1.916.462.39.304.59.808.59 1.49 0 .674-.21 1.17-.628 1.49-.42.324-1.034.486-1.88.486h-1.498v-3.928M250.35 156.62V143.98h7.612v1.595h-5.81v3.863h5.64v1.63h-5.64V155h6v1.623h-7.802M259.032 155.633v-2.402c.572.665 1.12 1.15 1.635 1.435.53.294 1.07.435 1.668.435.62 0 1.113-.14 1.472-.444.362-.285.54-.683.54-1.197 0-.41-.122-.77-.36-1.074-.245-.313-.826-.768-1.744-1.356-1.434-.922-2.327-1.633-2.696-2.136-.36-.502-.55-1.1-.55-1.803 0-.977.358-1.784 1.052-2.41.703-.626 1.593-.95 2.695-.95.483 0 .967.076 1.442.212.475.15.95.36 1.434.652v2.04c-.55-.436-1.064-.757-1.548-.967-.464-.198-.936-.304-1.402-.304-.572 0-1.036.145-1.386.418-.362.286-.552.647-.552 1.082 0 .628.75 1.396 2.23 2.327l.275.17c1.217.758 2.013 1.422 2.384 2.002.378.57.57 1.28.57 2.136 0 .967-.35 1.765-1.053 2.39-.692.637-1.585.96-2.677.96-.674 0-1.3-.095-1.84-.294-.55-.19-1.073-.495-1.588-.92M267.538 156.62h1.803V143.98h-1.802v12.643zM277.16 142.772l2.556-3.15h-1.624l-1.88 3.15h.95zm-5.968 10.014c.323.797.814 1.518 1.46 2.144.63.608 1.36 1.093 2.184 1.415.814.333 1.678.502 2.57.502.933 0 1.797-.17 2.604-.494.805-.32 1.544-.787 2.21-1.423.618-.597 1.102-1.29 1.44-2.086.343-.788.505-1.634.505-2.48 0-.92-.15-1.764-.492-2.55-.324-.79-.817-1.5-1.48-2.14-.628-.605-1.34-1.08-2.174-1.412-.83-.332-1.68-.483-2.613-.483-.893 0-1.757.15-2.57.482-.8.323-1.53.798-2.185 1.413-.635.62-1.12 1.31-1.46 2.11-.342.796-.514 1.612-.514 2.457 0 .9.172 1.756.514 2.544zm1.766-4.348c.235-.587.587-1.1 1.033-1.537.473-.454 1.007-.806 1.597-1.052.588-.256 1.194-.38 1.82-.38.656 0 1.273.124 1.87.37.58.237 1.1.598 1.556 1.063.465.467.825.998 1.074 1.577.237.57.35 1.187.35 1.822 0 .644-.122 1.26-.368 1.84-.24.58-.592 1.1-1.037 1.557-.463.465-.997.806-1.565 1.052-.58.236-1.207.35-1.88.35-.645 0-1.253-.114-1.862-.36-.596-.247-1.098-.588-1.555-1.043-.445-.456-.797-.977-1.032-1.557-.25-.58-.362-1.196-.362-1.84 0-.657.113-1.273.362-1.862M285.427 156.62V143.98h1.585l8.294 9.823v-9.822h1.804v12.643h-1.594l-8.276-9.814v9.815h-1.813M306.97 156.62v-5.486h1.36c1.964 0 3.425-.352 4.4-1.073.983-.72 1.464-1.802 1.464-3.254 0-1.404-.454-2.46-1.366-3.14-.92-.684-2.317-1.025-4.223-1.025h-5.144v13.98h3.51zm0-8.21v-3.19h1.67c.64 0 1.11.143 1.444.42.334.273.493.663.493 1.175 0 .54-.15.93-.473 1.196-.323.268-.807.4-1.472.4h-1.662M315.334 156.62v-13.98h9.347v2.58h-5.835v2.868h5.59v2.592h-5.59v3.33h6.017v2.61h-9.528M329.854 156.62v-5.694c.047 0 .115 0 .21-.01.075-.01.14-.01.2-.01.67 0 1.202.124 1.564.362.37.236.694.683.977 1.328l1.786 4.025h3.93l-2.21-4.784c-.21-.466-.448-.835-.73-1.14-.28-.293-.582-.5-.933-.624.826-.38 1.434-.844 1.834-1.396.397-.55.598-1.215.598-1.985 0-1.374-.457-2.408-1.36-3.064-.908-.655-2.303-.985-4.204-.985h-5.18v13.98h3.52zm0-8.248v-3.255h1.68c.62 0 1.103.132 1.433.417.333.276.493.674.493 1.206 0 .55-.15.968-.474 1.234-.313.275-.796.398-1.452.398h-1.68M338.823 156.62v-13.98h9.036v2.58h-5.534v3.038h5.17v2.63h-5.17v5.733h-3.503M349.177 156.62v-13.98h9.35v2.58h-5.848v2.868h5.6v2.592h-5.6v3.33h6.027v2.61h-9.53M372.334 155.46c-.843.477-1.698.827-2.58 1.065-.884.237-1.802.35-2.772.35-1.092 0-2.098-.16-3.01-.503-.928-.33-1.724-.814-2.41-1.47-.69-.665-1.243-1.46-1.605-2.353-.377-.903-.558-1.87-.558-2.907 0-2.182.72-3.93 2.172-5.257 1.453-1.328 3.37-1.993 5.752-1.993.863 0 1.68.085 2.496.275.816.19 1.612.474 2.39.865v3.282c-.75-.493-1.526-.872-2.316-1.118-.777-.238-1.544-.37-2.333-.37-1.414 0-2.513.387-3.34 1.157-.797.76-1.204 1.813-1.204 3.16 0 1.31.39 2.345 1.158 3.113.767.798 1.802 1.187 3.11 1.187.838 0 1.68-.15 2.527-.458.835-.29 1.68-.74 2.524-1.316v3.29M377.003 156.62v-11.4h-4.64v-2.58h12.956v2.58h-4.643v11.4h-3.674M386.83 156.62l1.116-2.676h6.02l1.005 2.677h3.703l-5.44-13.98h-4.043l-6.102 13.98h3.742zm4.286-10.44l1.958 5.343h-4.12l2.162-5.342M334.742 42.595c-.294 0-.635.01-.997.028-.285-.028-.436-.028-.436-.028h-45.482c-1.81 0-3.615.607-5.058 1.718l-1.225.93s-24.23 18.507-35.837 27.37V50.93c0-4.594-3.74-8.333-8.332-8.333h-31.15c-.57 0-1.11.076-1.67.198h-61.3c-5.467 0-10.574 2.06-14.53 5.78-.276.143-.523.323-.76.523-4.49-4.195-10.478-6.787-17.093-6.787-10.772 0-19.95 6.768-23.538 16.277-3.587-9.51-12.765-16.278-23.527-16.278-13.886 0-25.142 11.266-25.142 25.15 0 4.946 1.433 9.548 3.89 13.43-1.07-.142-2.163-.218-3.263-.218-13.886 0-25.142 11.258-25.142 25.144 0 2.164.267 4.26.78 6.263H5.61c-2.516 0-4.556 2.04-4.556 4.546v3.89c0 2.515 2.04 4.555 4.555 4.555h17.52c4.365 3.676 10.002 5.897 16.163 5.897 11.902 0 21.856-8.276 24.467-19.38 2.467 11.302 12.527 19.768 24.562 19.768 11.22 0 20.72-7.336 23.955-17.473.437 8.505 7.47 15.262 16.078 15.262 1.784 0 3.482-.322 5.077-.863.124.038.266.084.37.123 1.586.533 3.578 1.197 5.477.74 1.308.258 2.628.418 3.975.418h66.883c3.216 0 5.97-1.84 7.364-4.517 4.85 2.42 10.194 3.692 15.736 3.692.265 0 .522-.01.778-.02h.407c.246.02 13.724.02 13.724.02h32.005c1.83 0 3.622-.616 5.067-1.725l1.216-.923s9.442-7.213 12.564-9.604h23.27v3.91c0 4.603 3.73 8.342 8.335 8.342h31.148c4.594 0 8.33-3.74 8.33-8.342V77.938c0-19.484-15.848-35.343-35.34-35.343M378.06 102.34v-4.336c1.032 1.197 2.03 2.05 2.968 2.573.95.532 1.965.788 3.03.788 1.14 0 2.028-.256 2.692-.797.647-.532.98-1.253.98-2.175 0-.74-.21-1.405-.665-1.964-.44-.58-1.5-1.396-3.16-2.46-2.61-1.688-4.252-2.998-4.91-3.928-.662-.912-.993-2.022-.993-3.293 0-1.807.625-3.278 1.897-4.436 1.26-1.148 2.903-1.728 4.906-1.728.884 0 1.764.133 2.62.39.864.256 1.726.664 2.61 1.195v3.73c-1.006-.805-1.936-1.394-2.8-1.754-.845-.362-1.71-.55-2.545-.55-1.042 0-1.876.255-2.532.768-.646.513-.967 1.177-.967 1.974 0 1.15 1.34 2.565 4.043 4.264l.484.294c2.22 1.376 3.672 2.6 4.357 3.645.683 1.054 1.024 2.363 1.024 3.91 0 1.766-.635 3.227-1.908 4.375-1.28 1.15-2.912 1.728-4.895 1.728-1.246 0-2.365-.18-3.36-.53-1.006-.353-1.956-.912-2.876-1.682M393.244 102.4c0-.542.19-1.017.58-1.405.376-.38.863-.57 1.423-.57.568 0 1.034.19 1.423.57.388.388.578.863.578 1.404 0 .55-.19 1.024-.578 1.402-.39.38-.855.572-1.423.572-.56 0-1.047-.19-1.424-.572-.39-.378-.58-.853-.58-1.403" fill="#231f20"/><path d="M376.653 125.594l2.932-6.843h9.824l2.97 6.844h3.417l-10.127-23.14h-2.41l-10.003 23.14h3.396zm7.764-18.118l3.645 8.333h-7.193l3.547-8.334M395.987 123.856c0-.55.178-1.014.578-1.403.38-.38.864-.57 1.425-.57.567 0 1.042.19 1.422.57.39.39.588.854.588 1.403 0 .562-.2 1.026-.588 1.407-.38.388-.855.568-1.422.568-.56 0-1.045-.18-1.425-.567-.4-.38-.578-.845-.578-1.407" fill="#231f20"/><path d="M330.605 84.127h-2.983l2.983-2.27v2.27zm-125.023 13.07h-13.668V75.595h14.312v17.798c0 1.28.095 2.563.276 3.806h-.92zm129.16-46.27c-.504 0-.997.02-1.5.048l.067-.047h-45.482l-1.225.94-49.227 37.604V50.928h-31.15v.19h-62.97c-7.156 0-12.965 5.818-12.965 12.973v41.83c-.92-.39-1.935-.598-3-.598-1.582 0-3.073.484-4.298 1.282l3.655-35.67c.245-1.11.39-2.258.39-3.455 0-8.523-6.92-15.432-15.443-15.432s-15.44 6.91-15.44 15.43c0 1.36.18 2.668.5 3.92l2.962 24.015c-2.828-3.426-7.108-5.618-11.902-5.618-4.62 0-8.77 2.02-11.598 5.24l2.877-24.556c.19-.93.266-1.88.266-2.86 0-8.53-6.92-15.44-15.434-15.44-8.532 0-15.442 6.91-15.442 15.44 0 1.188.134 2.356.39 3.476.02.066.028.133.056.21l2.307 23.168c-2.82-2.962-6.786-4.812-11.2-4.812-8.532 0-15.44 6.91-15.44 15.432 0 4.593 2.012 8.704 5.172 11.532H0v3.89h39.13c.267.02.542.03.808.03 8.523 0 15.432-6.92 15.432-15.452 0-1.025-.095-2.03-.295-2.998L51.63 77.084c2.82 3.635 7.233 5.97 12.196 5.97 4.603 0 8.74-2.022 11.57-5.22l-2.42 22.8c-.466 1.452-.703 2.99-.703 4.603 0 8.522 6.91 15.43 15.44 15.43 8.516 0 15.424-6.908 15.424-15.43 0-1.47-.19-2.886-.58-4.234l-2.532-23.3c2.818 3.197 6.956 5.218 11.57 5.218 4.905 0 9.29-2.286 12.11-5.855l-3.997 34.112c-.17.637-.256 1.31-.256 1.985 0 4.335 3.51 7.84 7.84 7.84 2.828 0 5.286-1.49 6.662-3.72 2.363 2.428 5.656 3.957 9.3 3.957h66.884V107.37c4.745 7.802 13.324 13.02 23.1 13.02.502 0 1.006-.018 1.49-.045l-.06.046h45.484l1.22-.94 14.81-11.303h34.423v12.243h31.148V77.938c0-14.89-12.117-27.01-27.01-27.01" fill="#fff"/><path d="M72.596 67.62c0 4.842-3.93 8.78-8.77 8.78-4.85 0-8.78-3.938-8.78-8.78 0-4.84 3.93-8.777 8.78-8.777 4.84 0 8.77 3.938 8.77 8.778" fill="#ec008c"/><path d="M48.716 105.094c0 4.86-3.938 8.788-8.778 8.788-4.85 0-8.78-3.928-8.78-8.788 0-4.84 3.93-8.77 8.78-8.77 4.84 0 8.778 3.93 8.778 8.77" fill="#00adef"/><path d="M96.485 105.227c0 4.86-3.93 8.778-8.77 8.778-4.85 0-8.78-3.92-8.78-8.778 0-4.85 3.93-8.77 8.78-8.77 4.84 0 8.77 3.92 8.77 8.77" fill="#fff200"/><path d="M120.363 67.48c0 4.85-3.92 8.78-8.77 8.78s-8.777-3.93-8.777-8.78c0-4.84 3.928-8.77 8.778-8.77 4.85 0 8.77 3.93 8.77 8.77M233.238 115.838c5.438 0 10.42-1.926 14.312-5.144l72.283-55.2h-30.467L232.82 98.687V55.493h-22.038v37.9c0 12.394 10.052 22.445 22.456 22.445M314.156 88.684l21.005-16.04v16.04h-21.004zm20.586-33.19c-5.44 0-10.423 1.916-14.312 5.133l-72.283 55.21h30.465l16.03-12.242h40.52v12.243h22.037v-37.9c0-12.404-10.054-22.445-22.458-22.445M159.39 101.752c-2.116 0-3.845-1.716-3.845-3.842 0-2.116 1.73-3.835 3.845-3.835h27.97v-15.36h-27.97c-2.116 0-3.845-1.725-3.845-3.833 0-2.134 1.73-3.853 3.845-3.853h46.192V55.672h-62.327c-4.65 0-8.41 3.768-8.41 8.418v44.174c0 4.64 3.76 8.41 8.41 8.41h62.327V101.75H159.39M60.257 25.872c1.035-1.964 2.012-4.707 2.953-8.23.93-3.52 1.688-7.354 2.258-11.502-1.974.048-4.84.646-8.598 1.794-.04 0-.077-.01-.105-.038-.028-.02-.047-.066-.047-.133 0-.54.332-1.49.986-2.847.675-1.348 1.3-2.334 1.908-2.942.607-.588 1.623-1.016 3.047-1.28 1.422-.276 3.35-.41 5.77-.41 1.186 0 2.173.295 2.95.902.78.598 1.17 1.376 1.17 2.326 0 1.242-.097 2.6-.277 4.07-.19 1.472-.485 3.2-.883 5.173-.616 2.924-1.29 5.59-2.03 7.992-.74 2.4-1.452 4.3-2.136 5.694-.73 1.463-1.87 2.687-3.408 3.694-1.536.996-2.942 1.498-4.232 1.498-.616 0-1.31-.266-2.107-.768-.788-.522-1.566-1.224-2.316-2.126-.587-.73-1.08-1.462-1.47-2.21-.39-.75-.59-1.264-.59-1.52s.23-.73.713-1.452c.465-.702 1.092-1.47 1.86-2.287.874-.95 1.518-1.586 1.936-1.91.417-.312.788-.473 1.12-.473.104.01.18.056.218.132.047.075.067.208.067.38 0 .037-.02.13-.076.322-.172.598-.267 1.186-.267 1.765 0 .91.132 1.737.39 2.45.265.72.653 1.365 1.194 1.935M85.352 16.808c-1.813 1.443-3.38 2.99-4.68 4.63-1.31 1.644-2.363 3.4-3.14 5.27-.295.673-.6 1.537-.912 2.59-.304 1.054-.598 1.576-.854 1.576-.134 0-.475-.124-1.016-.39-.532-.266-1.158-.608-1.86-1.044-.55-.35-.958-.682-1.215-.987-.256-.303-.37-.607-.37-.92 0-.835.228-2.316.703-4.442.483-2.106 1.11-4.327 1.89-6.643.73-2.135 1.29-3.558 1.668-4.27.38-.722.72-1.073 1.054-1.073.77 0 1.7.304 2.79.91 1.082.608 1.623 1.245 1.623 1.92 0 .293-.057.69-.17 1.185-.114.5-.333 1.233-.637 2.2 2.107-2.353 3.76-4.014 4.945-4.944 1.178-.95 2.174-1.424 2.953-1.424.208 0 .57.086 1.054.247.493.16.996.38 1.5.645.473.237.787.484.957.72.17.238.247.618.247 1.12 0 1.082-.274 2.592-.815 4.546-.56 1.947-1.33 4.12-2.344 6.512h.22c.37 0 .796-.047 1.27-.132.476-.077.76-.124.884-.124.2 0 .322.038.388.086.066.047.105.152.105.294 0 .266-.123.617-.37 1.054-.247.426-.817 1.252-1.7 2.458-.73 1.006-1.27 1.68-1.613 2.002-.34.332-.655.494-.93.494-.266 0-.787-.124-1.556-.39-.78-.266-1.528-.598-2.22-1.016-.485-.236-.845-.578-1.083-1.005-.246-.427-.36-.93-.36-1.528 0-.968.313-2.363.95-4.176.634-1.814 1.517-3.797 2.647-5.95M103.65 30.028c.645.57 1.52.846 2.62.846.653 0 1.357-.105 2.106-.333.74-.217 1.196-.426 1.358-.644.616-.798 1.205-1.87 1.783-3.218.58-1.347.865-2.145.865-2.382 0-.085-.038-.142-.096-.17-.056-.038-.133-.048-.256-.048-.066 0-.502.104-1.31.313-.825.22-1.64.362-2.486.448-.16-.532-.285-1.073-.38-1.652-.094-.57-.132-1.168-.132-1.794V20.9c1.67-3.845 3.008-7.452 4.014-10.82 1.006-3.37 1.5-5.734 1.5-7.1 0-.504-.636-1.12-1.908-1.822-1.272-.703-2.154-1.064-2.648-1.064-.38 0-1.025 1.216-1.945 3.626-.922 2.43-1.955 5.685-3.085 9.785-.855-.74-1.623-1.32-2.297-1.736-.692-.42-1.205-.628-1.528-.628-.228 0-.617.227-1.148.674-.532.455-1.205 1.13-2.022 2.03-1.633 1.795-2.866 3.59-3.7 5.382-.827 1.794-1.235 3.56-1.235 5.296 0 1.936.503 3.464 1.52 4.612 1.015 1.168 2.315 1.738 3.91 1.738.947 0 1.83-.248 2.675-.74.836-.494 1.746-1.34 2.743-2.544.085 1.053.446 1.87 1.082 2.438zm-1.025-11.806c-.16 1.1-.256 2.145-.256 3.123-.57.787-1.178 1.528-1.815 2.202-.627.683-1.3 1.328-2.01 1.945-.106-.38-.19-.73-.238-1.016-.048-.284-.076-.54-.076-.75 0-1.49.475-3.074 1.415-4.754.948-1.67 2.192-3.094 3.74-4.262-.334 1.244-.58 2.41-.76 3.512" fill="#231f20"/><path d="M122.888 24.44c-1.785 2.115-3.265 3.71-4.45 4.772-1.188 1.064-2.08 1.586-2.705 1.586-.61 0-1.397-.314-2.374-.968-.97-.646-1.463-1.282-1.463-1.898 0-1.206.256-3.038.75-5.514.503-2.478 1.177-4.983 2.03-7.555.505-1.566.92-2.61 1.235-3.142.322-.52.684-.787 1.072-.787.855 0 1.804.342 2.856 1.035 1.045.683 1.577 1.423 1.577 2.23 0 .56-.19 1.48-.55 2.76-.352 1.293-1.197 3.865-2.526 7.728 1.245-.95 2.385-2.155 3.418-3.617 1.025-1.453 2.184-3.54 3.445-6.255.21-.456.466-1.054.788-1.794.6-1.43 1.11-2.163 1.52-2.163.53 0 1.3.37 2.306 1.082 1.026.72 1.538 1.404 1.538 2.06 0 .54-.266 1.86-.77 3.937-.503 2.088-1.167 4.423-1.964 6.986.067.02.133.028.21.028h.312c.21 0 .455-.018.74-.075.295-.047.485-.066.55-.066.258 0 .438.028.562.084.14.057.208.143.208.257 0 .39-.237 1.016-.72 1.86-.486.855-1.112 1.718-1.862 2.61-.398.456-.834.788-1.32.978-.483.18-1.11.276-1.85.276-1.14 0-2.003-.2-2.61-.598-.607-.408-.91-.988-.91-1.746 0-.476.075-1.044.237-1.71.152-.664.39-1.46.72-2.38" fill="#231f20"/><path d="M136.944 25.588c-1.272-2.364-2.174-4.225-2.705-5.58-.532-1.35-.798-2.46-.798-3.314 0-1.69.473-3.065 1.453-4.138.967-1.063 2.22-1.604 3.786-1.604.808 0 1.68.133 2.61.4.92.264 1.66.57 2.192.93.333.217.56.56.703 1.062.142.493.21 1.158.21 1.993 0 1.016-.058 1.718-.162 2.098-.105.37-.305.56-.58.56-.265 0-.768-.257-1.528-.78-.758-.512-1.528-.872-2.315-1.062 1.215 2.306 2.05 4.167 2.545 5.562.473 1.404.72 2.648.72 3.75 0 1.745-.56 3.112-1.67 4.07-1.11.96-2.667 1.433-4.66 1.433-1.158 0-2.05-.076-2.686-.227-.628-.16-1.122-.426-1.482-.806-.436-.484-.817-1.196-1.12-2.136-.313-.94-.475-1.84-.475-2.704 0-.228.048-.408.143-.542.085-.123.228-.2.398-.2.106 0 .664.22 1.7.647 1.044.426 2.068.644 3.085.644.045 0 .14-.01.292-.028.142-.02.265-.028.342-.028M146.756 18.83c-.75-.332-1.26-.713-1.545-1.15-.275-.445-.408-1.318-.408-2.61v-.293c0-.798.028-1.3.124-1.528.076-.238.208-.343.407-.343.22 0 .646.076 1.282.256.646.172 1.11.304 1.424.38.92-4.423 1.697-7.563 2.333-9.425.626-1.86 1.234-2.798 1.833-2.798.72 0 1.603.322 2.647.93 1.054.606 1.574 1.28 1.574 2.002 0 .854-.142 2.268-.427 4.242-.294 1.974-.672 4.1-1.166 6.407.247.048.588.086 1.025.143 1.12.152 1.68.426 1.68.835 0 .38-.248 1.035-.74 1.993-.23.447-.4.8-.515 1.064l-.047.114c-.38.817-.938 1.233-1.67 1.233-.123 0-.247 0-.38-.008-.123-.01-.274-.02-.437-.02-.083.41-.216 1.017-.397 1.795-1.31 5.885-2.344 8.827-3.122 8.827-.302 0-.72-.086-1.242-.257-.512-.16-1.12-.417-1.832-.75-.427-.2-.73-.445-.92-.75-.19-.303-.285-.73-.285-1.27 0-.637.076-1.775.22-3.408.15-1.643.35-3.513.586-5.61M163.68 13.155c.323-.817.644-1.444.94-1.86.285-.42.567-.627.835-.627.463 0 1.214.427 2.22 1.253 1.016.835 1.52 1.557 1.52 2.145 0 .228-.107.588-.305 1.072-.21.484-.598 1.273-1.178 2.364.172-.065.334-.113.505-.132.18-.03.36-.03.56-.03.104 0 .17.02.218.097.046.056.075.17.075.322 0 .826-.294 1.69-.874 2.573-.578.88-1.242 1.328-1.983 1.328-.362 0-.74-.066-1.14-.228-.387-.143-.843-.37-1.346-.674-.76 2.164-1.404 4.404-1.936 6.73-.53 2.324-.92 3.482-1.138 3.482-.22 0-.608-.132-1.187-.398-.58-.266-1.28-.664-2.144-1.196-.455-.276-.768-.532-.92-.75-.162-.218-.237-.58-.237-1.062 0-.77.16-2.05.474-3.835.312-1.784.73-3.74 1.253-5.866.656-2.76 1.14-4.545 1.425-5.332.303-.797.586-1.187.89-1.187.314 0 .75.153 1.32.447.56.304 1.282.76 2.155 1.368M174.27 25.027c.38-.037.79-.095 1.216-.17.427-.086.674-.124.74-.124.22 0 .36.03.446.095.086.066.125.18.125.342 0 .284-.135.844-.41 1.688-.266.855-.597 1.662-.987 2.46-.313.616-.797 1.08-1.433 1.384-.645.304-1.432.456-2.353.456-1.233 0-2.202-.38-2.886-1.148-.69-.77-1.034-1.87-1.034-3.294 0-1.328.343-3.216 1.016-5.675.673-2.467 1.584-4.99 2.714-7.582.39-.91.72-1.557.968-1.936.255-.38.492-.57.72-.57.22 0 .55.124.998.342.446.228 1.025.578 1.728 1.053.493.314.797.58.93.778.123.21.18.514.18.912 0 .512-.257 1.812-.75 3.89-.484 2.09-1.13 4.452-1.928 7.1zm1.32-16.523c-.825 0-1.5-.247-2.01-.74-.533-.484-.79-1.11-.79-1.87 0-.864.322-1.594.96-2.174.634-.588 1.395-.882 2.287-.882.75 0 1.376.246 1.907.74.53.494.798 1.1.798 1.822 0 .902-.304 1.642-.902 2.22-.608.59-1.35.884-2.25.884" fill="#231f20"/><path d="M187.824 27.608c-.01.105-.01.276-.01.484 0 .93.343 1.633 1.026 2.098.682.456 1.718.684 3.083.684.466 0 .902-.143 1.32-.418.41-.294.997-.892 1.746-1.812.588-.712 1.044-1.35 1.375-1.89.325-.55.485-.94.485-1.196-.01-.15-.038-.246-.075-.284-.03-.028-.163-.038-.39-.038-.75.038-1.32.066-1.71.066h-.492c.958-2.41 1.73-4.69 2.305-6.823.57-2.156.856-3.675.856-4.576 0-.57-.562-1.206-1.69-1.898-1.11-.703-1.936-1.054-2.468-1.054-.36.02-.6.37-.74 1.054-.132.665-.285 1.225-.474 1.698-.816-.777-1.605-1.395-2.363-1.832-.76-.455-1.368-.673-1.804-.673-.54 0-1.377.34-2.516 1.014-1.13.684-2.22 1.538-3.293 2.572-1.7 1.66-3.047 3.483-4.043 5.495-.988 2.004-1.48 3.884-1.48 5.64 0 1.566.378 2.79 1.156 3.654.77.872 1.834 1.3 3.18 1.3.978 0 2.032-.276 3.162-.846 1.12-.57 2.41-1.47 3.89-2.704-.02.086-.02.18-.038.284zm.2-5.143c-1.187 1.67-2.592 2.8-4.225 3.407-.05-.208-.086-.408-.115-.598-.018-.16-.036-.342-.036-.503 0-2.06.796-4.118 2.39-6.17 1.585-2.05 3.474-3.415 5.646-4.107-1.263 3.644-2.477 6.3-3.663 7.972" fill="#231f20"/><path d="M202.46 25.588c-1.284-2.364-2.185-4.225-2.705-5.58-.542-1.35-.8-2.46-.8-3.314 0-1.69.476-3.065 1.443-4.138.97-1.063 2.232-1.604 3.778-1.604.827 0 1.69.133 2.63.4.91.264 1.652.57 2.193.93.32.217.558.56.7 1.062.133.493.21 1.158.21 1.993 0 1.016-.058 1.718-.172 2.098-.104.37-.294.56-.58.56-.254 0-.768-.257-1.516-.78-.76-.512-1.528-.872-2.317-1.062 1.205 2.306 2.052 4.167 2.535 5.562.484 1.404.72 2.648.72 3.75 0 1.745-.55 3.112-1.66 4.07-1.112.96-2.667 1.433-4.67 1.433-1.15 0-2.04-.076-2.676-.227-.636-.16-1.12-.426-1.48-.806-.447-.484-.828-1.196-1.14-2.136-.303-.94-.456-1.84-.456-2.704 0-.228.047-.408.134-.542.085-.123.226-.2.407-.2.094 0 .664.22 1.7.647 1.042.426 2.057.644 3.083.644.04 0 .14-.01.295-.028.14-.02.255-.028.342-.028M229.822 32.582c.323-1.433.72-2.952 1.194-4.537.465-1.585 1.044-3.312 1.71-5.153-2.22 2.562-4.035 4.47-5.448 5.722-1.406 1.254-2.42 1.88-3.038 1.88-.398 0-1.005-.2-1.803-.626-.815-.418-1.557-.902-2.23-1.462-.6-.522-1.034-1.206-1.31-2.05-.266-.844-.408-1.993-.408-3.454 0-2.658.73-5.63 2.173-8.913 1.452-3.285 3.33-6.19 5.647-8.685 1.423-1.575 2.885-2.81 4.403-3.692 1.51-.882 2.876-1.33 4.09-1.33.843 0 1.745.23 2.686.685.95.446 1.63.987 2.077 1.604.61.864 1.094 1.784 1.49 2.78.37 1.006.572 1.756.572 2.25 0 .294-.155.608-.467.93-.323.323-.884.75-1.71 1.252-1.11.694-2.003 1.187-2.656 1.48-.656.295-1.176.447-1.576.447-.19 0-.352-.075-.492-.236-.122-.15-.2-.35-.2-.58 0-.113.055-.483.153-1.11.096-.616.152-1.186.152-1.688 0-.428-.056-.816-.163-1.168-.105-.35-.274-.712-.5-1.072-2.356 1.936-4.217 4.327-5.583 7.165-1.377 2.85-2.07 5.753-2.07 8.724 0 .208.022.464.058.76.047.293.115.634.19 1.014 2.4-1.9 4.357-4.033 5.883-6.425 1.528-2.392 2.336-3.588 2.442-3.588.71 0 1.696.446 2.95 1.338 1.262.902 1.886 1.756 1.886 2.573 0 1.527-.404 3.87-1.23 7.04-.818 3.162-1.88 6.2-3.18 9.123l-.02.074c-.494 1.168-1.112 2.003-1.867 2.535-1.2.805-2.214 1.393-3.04 1.763-.827.39-1.528.57-2.107.57-.457 0-.893-.104-1.31-.314-.426-.22-.872-.56-1.377-1.044-.673-.712-1.244-1.386-1.67-1.993-.427-.617-.635-1.054-.635-1.32 0-.18.085-.38.248-.588.162-.22.53-.58 1.1-1.1.787-.693 1.423-1.207 1.918-1.548.493-.332.843-.503 1.053-.503.273 0 .585.313.93.91.342.618.702 1.13 1.082 1.558M247.73 13.155c.322-.817.634-1.444.93-1.86.295-.42.57-.627.835-.627.475 0 1.225.427 2.232 1.253 1.015.835 1.517 1.557 1.517 2.145 0 .228-.104.588-.303 1.072-.207.484-.598 1.273-1.177 2.364.172-.065.332-.113.504-.132.18-.03.362-.03.56-.03.096 0 .17.02.218.097.05.056.077.17.077.322 0 .826-.288 1.69-.875 2.573-.58.88-1.242 1.328-1.983 1.328-.362 0-.73-.066-1.138-.228-.39-.143-.836-.37-1.35-.674-.76 2.164-1.404 4.404-1.935 6.73-.53 2.324-.92 3.482-1.136 3.482-.22 0-.608-.132-1.187-.398-.58-.266-1.29-.664-2.146-1.196-.453-.276-.768-.532-.92-.75-.15-.218-.237-.58-.237-1.062 0-.77.152-2.05.475-3.835.303-1.784.73-3.74 1.244-5.866.665-2.76 1.14-4.545 1.433-5.332.294-.797.597-1.187.89-1.187.315 0 .752.153 1.32.447.562.304 1.284.76 2.154 1.368" fill="#231f20"/><path d="M266.02 9.073c.77 0 1.83-.522 3.207-1.566.73-.53 1.35-.977 1.83-1.33.257-.16.6-.397 1.055-.71 1.718-1.167 2.573-1.85 2.573-2.05 0-.143-.115-.247-.335-.304-.217-.057-.642-.086-1.28-.086h-2.107c-1.042 0-1.756.057-2.145.18-.378.125-.75.39-1.108.807-.97 1.044-1.786 2.06-2.478 3.038-.683.958-1.025 1.537-1.025 1.726 0 .096.037.162.123.21.076.056.208.085.37.085h1.32zm-4.148 18.535c-.02.105-.02.276-.02.484 0 .93.352 1.633 1.035 2.098.683.456 1.71.684 3.084.684.458 0 .894-.143 1.312-.418.42-.294 1.004-.892 1.746-1.812.588-.712 1.05-1.35 1.377-1.89.33-.55.484-.94.484-1.196-.01-.15-.04-.246-.067-.284-.04-.028-.163-.038-.39-.038-.758.038-1.33.066-1.728.066h-.484c.97-2.41 1.737-4.69 2.307-6.823.57-2.156.855-3.675.855-4.576 0-.57-.56-1.206-1.68-1.898-1.11-.703-1.945-1.054-2.487-1.054-.342.02-.588.37-.73 1.054-.125.665-.286 1.225-.464 1.698-.818-.777-1.614-1.395-2.364-1.832-.76-.455-1.377-.673-1.814-.673-.54 0-1.377.34-2.503 1.014-1.13.684-2.232 1.538-3.295 2.572-1.7 1.66-3.048 3.483-4.045 5.495-.986 2.004-1.488 3.884-1.488 5.64 0 1.566.396 2.79 1.156 3.654.78.872 1.833 1.3 3.18 1.3.978 0 2.04-.276 3.16-.846s2.42-1.47 3.89-2.704c-.005.086-.017.18-.026.284zm.19-5.143c-1.178 1.67-2.582 2.8-4.215 3.407-.056-.208-.095-.408-.113-.598-.03-.16-.038-.342-.038-.503 0-2.06.787-4.118 2.383-6.17 1.59-2.05 3.472-3.415 5.645-4.107-1.253 3.644-2.476 6.3-3.663 7.972M273.697 22.265c-.048-.028-.143-.076-.274-.142-1.293-.664-1.946-1.33-1.946-2.012 0-1.69.294-2.875.872-3.567.58-.684 1.537-1.026 2.864-1.026h.25c1.26-4.745 2.457-8.513 3.587-11.323C280.18 1.404 281.07 0 281.71 0c.2 0 .615.142 1.243.418.646.284 1.245.626 1.774 1.043.6.4 1.017.874 1.282 1.396.267.532.39 1.196.39 1.994 0 1.3-.417 3.008-1.245 5.125-.835 2.116-2.276 5.058-4.306 8.846.18.19.362.342.552.455.187.114.368.172.558.172.502 0 1.187-.324 2.042-.997.843-.665 1.366-.987 1.546-.987.123 0 .247.066.333.2.104.142.16.312.16.502 0 .314-.16.997-.474 2.05-.302 1.054-.682 2.003-1.128 2.857-.4.807-.884 1.395-1.413 1.766-.534.38-1.152.56-1.853.56-.266 0-.533-.02-.79-.076-.263-.048-.54-.115-.833-.21-.03.4-.077 1.006-.142 1.794-.695 8.058-1.407 12.09-2.117 12.09-.22 0-.683-.17-1.395-.51-.712-.333-1.368-.73-1.967-1.187-.936-.713-1.526-1.245-1.764-1.605-.238-.36-.36-.807-.36-1.338 0-1.044.17-2.658.51-4.822.333-2.164.8-4.593 1.387-7.27M291.625 25.027c.37-.037.777-.095 1.207-.17.425-.086.68-.124.748-.124.208 0 .362.03.437.095.086.066.124.18.124.342 0 .284-.132.844-.4 1.688-.273.855-.607 1.662-.994 2.46-.314.616-.787 1.08-1.442 1.384-.638.304-1.416.456-2.345.456-1.236 0-2.203-.38-2.898-1.148-.682-.77-1.024-1.87-1.024-3.294 0-1.328.342-3.216 1.024-5.675.665-2.467 1.588-4.99 2.705-7.582.4-.91.723-1.557.97-1.936.255-.38.495-.57.72-.57.218 0 .553.124.998.342.455.228 1.024.578 1.734 1.053.485.314.797.58.913.778.13.21.187.514.187.912 0 .512-.244 1.812-.748 3.89-.493 2.09-1.13 4.452-1.917 7.1zm1.31-16.523c-.827 0-1.5-.247-2.023-.74-.51-.484-.777-1.11-.777-1.87 0-.864.312-1.594.958-2.174.638-.588 1.407-.882 2.288-.882.743 0 1.385.246 1.91.74.53.494.796 1.1.796 1.822 0 .902-.303 1.642-.9 2.22-.608.59-1.357.884-2.25.884M301.894 25.872c1.927-.048 3.95-.37 6.046-.968.552-.152.873-.228.988-.228.13 0 .22.01.276.028.057.02.084.067.093.152 0 .228-.18.892-.55 1.994-.36 1.1-.75 2.02-1.166 2.76-.21.334-.958.694-2.24 1.036-1.28.35-2.59.512-3.92.512-2.002 0-3.598-.54-4.785-1.623-1.185-1.09-1.773-2.563-1.773-4.44 0-1.548.303-3.134.92-4.756.616-1.633 1.482-3.153 2.6-4.567 1.215-1.528 2.506-2.76 3.865-3.69 1.345-.94 2.503-1.415 3.462-1.415 1.414 0 2.628.35 3.652 1.034 1.036.683 1.55 1.557 1.55 2.59 0 2.118-.4 3.513-1.188 4.215-.796.692-2.24 1.034-4.336 1.034-.267 0-.466-.01-.59-.055-.123-.038-.182-.105-.182-.21 0-.16.154-.636.457-1.442.294-.806.457-1.5.457-2.068v-.656c-1.244.806-2.24 2-3.01 3.568-.768 1.566-1.148 3.236-1.148 5.002 0 .34.047.702.145 1.072.092.37.205.74.377 1.12" fill="#231f20"/><path d="M319.777 27.608c0 .105-.012.276-.012.484 0 .93.342 1.633 1.025 2.098.694.456 1.718.684 3.093.684.46 0 .895-.143 1.31-.418.41-.294.998-.892 1.75-1.812.587-.712 1.04-1.35 1.367-1.89.33-.55.49-.94.49-1.196-.008-.15-.038-.246-.065-.284-.04-.028-.172-.038-.39-.038-.76.038-1.33.066-1.73.066h-.483c.96-2.41 1.728-4.69 2.31-6.823.557-2.156.844-3.675.844-4.576 0-.57-.55-1.206-1.673-1.898-1.12-.703-1.953-1.054-2.485-1.054-.34.02-.587.37-.74 1.054-.126.665-.275 1.225-.456 1.698-.827-.777-1.614-1.395-2.374-1.832-.757-.455-1.365-.673-1.802-.673-.542 0-1.377.34-2.516 1.014-1.13.684-2.23 1.538-3.283 2.572-1.698 1.66-3.055 3.483-4.043 5.495-.986 2.004-1.48 3.884-1.48 5.64 0 1.566.38 2.79 1.157 3.654.77.872 1.823 1.3 3.17 1.3.98 0 2.033-.276 3.153-.846 1.128-.57 2.43-1.47 3.91-2.704-.02.086-.037.18-.046.284zm.2-5.143c-1.188 1.67-2.595 2.8-4.225 3.407-.048-.208-.086-.408-.113-.598-.024-.16-.042-.342-.042-.503 0-2.06.798-4.118 2.392-6.17 1.594-2.05 3.476-3.415 5.648-4.107-1.26 3.644-2.475 6.3-3.662 7.972" fill="#231f20"/><path d="M334.41 25.588c-1.273-2.364-2.173-4.225-2.706-5.58-.54-1.35-.794-2.46-.794-3.314 0-1.69.472-3.065 1.44-4.138.968-1.063 2.23-1.604 3.787-1.604.817 0 1.69.133 2.61.4.92.264 1.66.57 2.202.93.322.217.56.56.693 1.062.14.493.208 1.158.208 1.993 0 1.016-.05 1.718-.162 2.098-.102.37-.294.56-.576.56-.258 0-.77-.257-1.522-.78-.757-.512-1.526-.872-2.313-1.062 1.205 2.306 2.048 4.167 2.532 5.562.483 1.404.72 2.648.72 3.75 0 1.745-.558 3.112-1.67 4.07-1.108.96-2.657 1.433-4.65 1.433-1.168 0-2.057-.076-2.685-.227-.626-.16-1.12-.426-1.48-.806-.447-.484-.826-1.196-1.132-2.136-.3-.94-.463-1.84-.463-2.704 0-.228.038-.408.133-.542.095-.123.226-.2.407-.2.098 0 .665.22 1.698.647 1.047.426 2.062.644 3.087.644.038 0 .142-.01.282-.028.154-.02.267-.028.353-.028" fill="#231f20"/></svg>