<svg xmlns="http://www.w3.org/2000/svg" width="400" height="240.732"><path d="M145.852 57.4s-2.382-13.33 7.587-24.296c11.292-12.415 22.98-12.68 28.83-16.977C193.425 7.924 190.072 0 190.072 0s19.964 19.563 19.07 41.49c-1.083 26.66-34.678 36.764-34.678 36.764s-2.772-7.748-13.005-13.76c-11.704-6.88-15.608-7.095-15.608-7.095" fill="#50afe6"/><path d="M178.768 87.48s9.32-11.766 28.386-10.92c15.518.68 31.898 19.342 42.153 25.837 9.956 6.308 18.428 13.444 32.834 17.438 0 0-21.608 38.66-49.778 36.976-29.472-1.76-59.527-26.682-59.527-26.682s7.41-13.236 8.264-22.692c.94-10.515-2.332-19.955-2.332-19.955" fill="#ed1f26"/><path d="M117.894 144.326s-6.702 37.287-5.632 48.76c1.074 11.47 5.632 30.375 33.152 39.325 27.084 8.813 36.316 8.316 36.316 8.316s-1.452-10.642.288-26.183c1.77-15.825 7.373-34.52 8.126-42.018.734-7.337 2.61-27.052-22.342-37.7 0 0-9.867 9.5-21.183 11.8-14.96 3.044-28.726-2.3-28.726-2.3" fill="#3b4ca7"/><path d="M90.647 92.958s-40.762-5.44-64.93 7.434c-23.143 12.33-25.717 61-25.717 61s13.075-3.826 38.146.213c9.392 1.513 35.264 9.857 48.215 6.59 12.96-3.27 22.07-12.328 26.575-26.144 0 0-12.294-7.763-18.432-19.77-7.283-14.234-3.856-29.322-3.856-29.322" fill="#ec008c"/><path d="M133.6 56.834s-2.847-11.463-18.26-18.768c-14.998-7.123-29.337-6.495-40.537-9.142-11.21-2.648-14.473-12.422-14.473-12.422s-12.155 21.394-10.985 39.17c.817 12.38 13.902 25.916 43.717 29.24 0 0 2.01-9.142 15.58-19.605 13.395-10.332 24.957-8.473 24.957-8.473" fill="#3e993a"/><path d="M174.5 102.206c0 21.615-17.294 39.133-38.653 39.133-21.336 0-38.636-17.52-38.636-39.134 0-21.622 17.3-39.14 38.637-39.14 21.36 0 38.653 17.518 38.653 39.14" fill="#f6df05"/><path d="M242.496 180.62v32.283h8c1.976 0 3.367.385 4.18 1.147.806.773 1.213 1.773 1.213 3.007 0 1.238-.408 2.235-1.213 2.988-.814.753-2.205 1.13-4.18 1.13H226.55c-1.976 0-3.367-.386-4.175-1.156-.81-.77-1.218-1.773-1.218-3.004 0-1.238.407-2.235 1.218-2.988.808-.747 2.2-1.125 4.174-1.125h8v-32.328h-8c-1.976 0-3.367-.378-4.175-1.14-.81-.764-1.218-1.76-1.218-2.995 0-1.238.407-2.235 1.218-2.997.808-.76 2.2-1.142 4.174-1.142l23.947.043c1.975 0 3.366.378 4.18 1.135.805.756 1.212 1.747 1.212 2.984 0 1.234-.408 2.237-1.213 3.004-.814.77-2.205 1.154-4.18 1.154h-8zM276.138 187.938v24.965h2.837c1.972 0 3.363.384 4.174 1.147.807.773 1.217 1.773 1.217 3.007 0 1.237-.41 2.234-1.218 2.987-.812.754-2.203 1.132-4.175 1.132H268.19c-1.97 0-3.36-.388-4.172-1.157-.814-.77-1.218-1.774-1.218-3.005 0-1.237.404-2.234 1.218-2.987.81-.747 2.202-1.125 4.17-1.125v-32.328h-1.246c-1.972 0-3.363-.38-4.174-1.142-.81-.763-1.215-1.76-1.215-2.994 0-1.238.404-2.235 1.215-2.998.81-.76 2.202-1.14 4.174-1.14l9.145.04 20.31 33.117v-24.885h-2.84c-1.968 0-3.362-.38-4.173-1.14-.81-.764-1.218-1.76-1.218-2.995 0-1.238.407-2.235 1.218-2.998.81-.76 2.205-1.14 4.173-1.14l10.784.04c1.976 0 3.364.38 4.178 1.136.81.756 1.215 1.747 1.215 2.984 0 1.234-.404 2.238-1.215 3.004-.814.77-2.202 1.154-4.177 1.154v40.556h-7.82l-20.382-33.238zM321.923 219.095c-.696.85-1.254 1.395-1.68 1.63-.426.236-.95.358-1.564.358-1.216 0-2.19-.42-2.922-1.273-.734-.84-1.102-2.24-1.102-4.206v-5.555c0-1.985.368-3.4 1.102-4.248.73-.843 1.71-1.27 2.92-1.27.93 0 1.71.257 2.34.773.63.503 1.113 1.36 1.453 2.552.33 1.195.684 2.01 1.043 2.44.743.83 2.067 1.68 3.97 2.538 1.902.86 3.983 1.285 6.25 1.285 3.52 0 6.41-.86 8.67-2.577 1.443-1.045 2.164-2.337 2.164-3.872 0-1.012-.346-1.97-1.036-2.88-.694-.895-1.823-1.64-3.387-2.232-1.023-.404-3.318-.952-6.88-1.65-4.31-.834-7.57-1.838-9.795-3.024-2.228-1.183-3.985-2.846-5.283-5-1.295-2.148-1.936-4.47-1.936-6.97 0-3.952 1.582-7.41 4.762-10.38 3.177-2.97 7.31-4.455 12.396-4.455 2.04 0 3.933.234 5.674.705 1.744.464 3.32 1.18 4.744 2.14 1.032-1.022 2.065-1.535 3.094-1.535 1.163 0 2.112.427 2.843 1.273.73.85 1.103 2.254 1.103 4.212v6.213c0 1.99-.372 3.41-1.103 4.26-.73.846-1.68 1.272-2.84 1.272-.98 0-1.834-.31-2.555-.933-.567-.458-.99-1.375-1.273-2.75-.285-1.372-.647-2.35-1.083-2.946-.747-1.028-1.87-1.884-3.363-2.582-1.498-.706-3.222-1.055-5.18-1.055-2.86 0-5.123.692-6.787 2.074-1.66 1.388-2.488 2.827-2.488 4.33 0 1.023.337 2.007 1.016 2.966.678.95 1.67 1.695 2.98 2.234.87.372 3.327.978 7.36 1.81 4.038.835 7.148 1.75 9.334 2.745 2.186.99 4.007 2.55 5.453 4.667 1.455 2.13 2.173 4.654 2.173 7.587 0 4.08-1.378 7.35-4.138 9.79-3.658 3.228-8.325 4.837-14 4.837-2.188 0-4.32-.273-6.394-.82-2.077-.555-4.097-1.382-6.055-2.48M369.41 219.095c-.696.85-1.257 1.395-1.68 1.63-.423.236-.943.358-1.568.358-1.208 0-2.183-.42-2.917-1.273-.73-.84-1.096-2.24-1.096-4.206v-5.555c0-1.985.364-3.4 1.095-4.248.734-.843 1.71-1.27 2.92-1.27.927 0 1.71.257 2.337.773.635.503 1.12 1.36 1.452 2.552.334 1.195.686 2.01 1.045 2.44.743.83 2.067 1.68 3.968 2.538 1.904.86 3.984 1.285 6.254 1.285 3.52 0 6.408-.86 8.674-2.577 1.44-1.045 2.157-2.337 2.157-3.872 0-1.012-.346-1.97-1.035-2.88-.696-.895-1.824-1.64-3.385-2.232-1.023-.404-3.32-.952-6.882-1.65-4.304-.834-7.568-1.838-9.792-3.024-2.225-1.183-3.988-2.846-5.283-5-1.292-2.148-1.94-4.47-1.94-6.97 0-3.952 1.587-7.41 4.76-10.38 3.177-2.97 7.313-4.455 12.4-4.455 2.042 0 3.933.234 5.674.705 1.746.464 3.326 1.18 4.746 2.14 1.032-1.022 2.065-1.535 3.093-1.535 1.157 0 2.106.427 2.84 1.273.734.85 1.102 2.254 1.102 4.212v6.213c0 1.99-.368 3.41-1.102 4.26-.734.846-1.683 1.272-2.84 1.272-.978 0-1.83-.31-2.55-.933-.57-.458-.996-1.375-1.28-2.75-.283-1.372-.642-2.35-1.078-2.946-.753-1.028-1.872-1.884-3.366-2.582-1.49-.706-3.222-1.055-5.177-1.055-2.864 0-5.123.692-6.79 2.074-1.658 1.388-2.49 2.827-2.49 4.33 0 1.023.34 2.007 1.018 2.966.677.95 1.674 1.695 2.978 2.234.872.372 3.328.978 7.363 1.81 4.035.835 7.145 1.75 9.334 2.745 2.183.99 4 2.55 5.453 4.667 1.448 2.13 2.173 4.654 2.173 7.587 0 4.08-1.382 7.35-4.138 9.79-3.664 3.228-8.325 4.837-14.002 4.837-2.19 0-4.32-.273-6.402-.82-2.074-.555-4.087-1.382-6.05-2.48" fill="#ec008c"/></svg>