<svg xmlns="http://www.w3.org/2000/svg" width="400" height="137.629"><path d="M0 0h400v137.63H0V0z" fill="#00407d" fill-rule="evenodd"/><path d="M258.66 0H400v137.63H258.66V0z" fill="#fff" fill-rule="evenodd"/><path d="M281.176 27.755c19.61-.48 33.612-4.234 47.282-17.678 13.518 14.572 29.45 16.17 47.666 17.523 2.157 41.928-15.95 74.205-47.304 95.08-32.612-20.62-50.654-53.856-47.644-94.925z" fill="#facf2b" fill-rule="evenodd" stroke="#2b2929" stroke-width="2.215" stroke-miterlimit="22.926"/><path d="M285.49 52.56c6.742 28.434 20.678 49.567 42.074 64.22l-.134-64.22h-41.94z" fill="#213d99" fill-rule="evenodd"/><path d="M371.84 52.38c-6.562 28.435-19.527 49.73-40.983 64.51l.65-64.51h40.333z" fill="#fff" fill-rule="evenodd"/><path d="M284.108 31.334c17.128-1.715 32.172-4.17 44.335-15.03C341.227 27.62 356.245 30.06 373 31.32l-.543 17.972-87.642-.317-.707-17.64z" fill="#e31f24" fill-rule="evenodd"/><path d="M301.575 61.647l-2.543-1.17-2.8 8.456 2.544 1.17 2.8-8.456zM304.855 60.245l-2.27.88c-.045.016-.072.065-.06.106l2.358 8.478c.012.042.057.062.1.045l2.273-.88c.044-.016.07-.064.06-.107l-2.36-8.476c-.01-.043-.056-.062-.1-.046zM315.534 61.393l-2.543-1.17-2.798 8.456 2.543 1.17 2.8-8.457zM318.814 59.99l-2.27.88c-.046.016-.07.065-.06.108l2.357 8.476c.013.043.058.062.103.046l2.27-.88c.045-.017.07-.065.06-.107l-2.358-8.476c-.01-.043-.057-.062-.1-.046zM309.59 76.754l-2.544-1.17-2.8 8.456 2.543 1.17 2.8-8.456zM312.868 75.352l-2.27.88c-.045.017-.07.065-.06.107l2.358 8.475c.012.043.057.062.102.046l2.27-.878c.046-.017.07-.065.06-.108l-2.358-8.476c-.012-.043-.058-.062-.1-.045z" fill="#fff" fill-rule="evenodd" stroke="#fff" stroke-width=".169" stroke-miterlimit="22.926"/><path d="M347.883 57.21l2.68 8.88 8.677.002-7.02 5.488 2.682 8.88-7.02-5.488-7.018 5.488 2.68-8.88-7.018-5.488h8.676l2.68-8.88z" fill="#e31f24" fill-rule="evenodd" stroke="#e31f24" stroke-width=".169" stroke-miterlimit="22.926"/><path d="M293.01 34.042h3.03v8.154h4.723v2.665h-7.753V34.043zm15.156 9.033h-3.45l-.473 1.786h-3.092l3.68-10.818h3.302l3.683 10.82h-3.168l-.48-1.787zm-.634-2.34l-1.084-3.89-1.076 3.89h2.16zm9.287.546l2.88-.197c.06.516.19.91.38 1.18.31.44.757.655 1.337.655.43 0 .764-.11 1-.334.23-.225.348-.484.348-.78 0-.278-.11-.53-.333-.752-.224-.222-.74-.43-1.55-.627-1.33-.33-2.275-.766-2.84-1.312-.57-.547-.856-1.242-.856-2.09 0-.555.146-1.082.438-1.575.292-.494.73-.882 1.316-1.167.586-.28 1.39-.422 2.408-.422 1.252 0 2.208.257 2.865.77.656.515 1.047 1.334 1.172 2.455l-2.853.183c-.075-.486-.235-.84-.48-1.063-.24-.22-.576-.33-1.002-.33-.354 0-.62.08-.797.247-.178.164-.267.365-.267.602 0 .17.073.325.22.464.143.143.48.274 1.017.398 1.323.315 2.27.635 2.842.957.572.323.99.72 1.25 1.2.26.476.392 1.01.392 1.602 0 .693-.176 1.332-.522 1.917-.348.586-.833 1.03-1.458 1.33-.622.303-1.41.454-2.358.454-1.666 0-2.82-.352-3.46-1.062-.644-.708-1.007-1.607-1.09-2.7zm16.436 1.795h-3.45l-.473 1.786h-3.093l3.682-10.818h3.3l3.683 10.82h-3.168l-.48-1.787zm-.634-2.34l-1.084-3.89-1.076 3.89h2.16zm5.25-6.693h3.028v8.154h4.724v2.665h-7.752V34.043zm9.127 0h3.028v8.154h4.723v2.665H347V34.043zm9.122 0h8.11v2.31h-5.077v1.72h4.71v2.207h-4.71v2.13h5.225v2.45h-8.258V34.043z" fill="#fff"/><path d="M347.173 78.7v15.304M345.234 80.622l-3.73 8.864M349.948 80.476l3.285 7.788" fill="none" stroke="#2b2929" stroke-width=".586" stroke-miterlimit="2.613"/><path style="-inkscape-font-specification:Arial-BoldMT" d="M125.27 98.55v-9.238h1.705v9.24h-1.706M132.65 98.55v-3.98c0-.274-.02-.526-.058-.753-.04-.232-.1-.43-.19-.59-.09-.166-.205-.295-.347-.387-.143-.092-.317-.138-.52-.138-.198 0-.377.05-.54.15-.157.097-.294.237-.41.42-.115.18-.206.396-.27.65-.063.25-.093.524-.093.826v3.803h-1.625v-5.507c0-.153 0-.31-.012-.472 0-.16 0-.314-.012-.458 0-.15-.012-.28-.012-.394 0-.118-.01-.205-.016-.262h1.55c.012.053.015.138.023.256.01.113.015.24.023.38.012.14.013.28.017.42.012.14.012.258.012.354h.022c.22-.542.495-.936.827-1.18.33-.245.726-.368 1.184-.368.378 0 .696.07.955.21.26.14.473.333.635.577.166.245.285.534.358.866.074.333.11.692.11 1.076v4.505h-1.62M141.108 96.48c0 .34-.063.646-.19.917-.124.27-.305.503-.544.695-.24.188-.532.335-.88.44-.346.1-.742.15-1.185.15-.398 0-.757-.034-1.077-.098-.32-.065-.6-.172-.844-.32-.24-.154-.44-.35-.603-.59-.162-.242-.283-.54-.364-.893l1.428-.242c.047.197.11.357.192.48.082.122.18.215.3.28.12.066.26.11.417.132.16.022.344.034.55.034.184 0 .355-.013.514-.034.16-.025.3-.068.416-.124.12-.06.212-.145.278-.25.066-.11.098-.244.098-.406 0-.184-.047-.328-.145-.433-.09-.11-.22-.197-.386-.262-.162-.07-.355-.13-.58-.177-.218-.053-.454-.112-.704-.177-.263-.065-.52-.143-.775-.235s-.482-.217-.683-.374c-.2-.157-.362-.355-.486-.596-.123-.245-.185-.553-.185-.924 0-.337.06-.636.175-.9.116-.265.285-.49.51-.674.222-.188.498-.33.826-.426.332-.1.712-.15 1.14-.15.34 0 .656.036.95.11.292.07.554.184.785.342.232.153.424.35.58.59.157.24.267.53.328.872l-1.44.17c-.027-.17-.075-.31-.144-.42-.07-.112-.158-.203-.262-.268-.1-.065-.217-.11-.352-.13-.135-.026-.284-.04-.446-.04-.385 0-.675.057-.867.17-.193.11-.29.295-.29.558 0 .16.04.29.116.387.08.097.192.178.335.243.146.06.318.116.514.164.2.043.418.098.653.164.29.07.573.154.85.25.282.092.53.22.746.387.22.162.395.372.526.63.134.257.202.585.202.983M144.02 98.67c-.477 0-.845-.147-1.103-.44-.26-.297-.388-.745-.388-1.344v-4.184h-.793v-1.246h.873l.51-1.665h1.017v1.666h1.186v1.246h-1.186v3.685c0 .346.058.6.173.768.116.16.295.242.538.242.1 0 .19-.013.272-.025.08-.017.172-.04.272-.065v1.14c-.2.075-.413.13-.636.165-.224.04-.47.06-.735.06M146.364 90.177V88.82h1.625v1.357h-1.626m0 8.374v-7.094h1.625v7.095h-1.626M151.26 98.67c-.48 0-.848-.147-1.106-.44-.258-.297-.388-.745-.388-1.344v-4.184h-.792v-1.246h.873l.51-1.665h1.017v1.666h1.186v1.246h-1.186v3.685c0 .346.058.6.174.768.115.16.295.242.538.242.1 0 .19-.013.27-.025.082-.017.173-.04.273-.065v1.14c-.2.075-.413.13-.637.165-.224.04-.468.06-.734.06M155.133 91.456v3.98c0 .276.02.53.058.76.04.228.103.425.192.59.09.163.203.29.342.382.142.092.316.137.52.137.197 0 .374-.048.532-.144.162-.1.3-.24.417-.42.115-.182.204-.4.266-.648.064-.253.097-.53.097-.833v-3.804h1.625v5.98c0 .162.012.317.012.466.012.144.014.275.017.394.013.113.015.198.018.255h-1.55c0-.052-.012-.134-.023-.248-.012-.118-.015-.247-.023-.387 0-.14-.012-.28-.017-.42 0-.14-.012-.257-.012-.354h-.03c-.215.54-.49.93-.826 1.175-.332.245-.727.367-1.186.367-.373 0-.69-.07-.953-.21-.263-.14-.476-.33-.642-.57-.162-.245-.28-.533-.353-.865-.074-.333-.11-.69-.11-1.076v-4.504h1.626M162.44 98.67c-.478 0-.846-.147-1.105-.44-.258-.297-.387-.745-.387-1.344v-4.184h-.792v-1.246h.873l.508-1.665h1.018v1.666h1.185v1.246h-1.184v3.685c0 .346.058.6.173.768.115.16.294.242.537.242.1 0 .19-.013.272-.025.08-.017.17-.04.27-.065v1.14c-.2.075-.412.13-.635.165-.224.04-.47.06-.735.06M170.728 94.997c0 .542-.067 1.038-.203 1.49-.13.45-.33.838-.595 1.166-.266.323-.598.577-.995.76-.397.18-.86.27-1.388.27-.51 0-.958-.09-1.348-.27-.39-.18-.718-.43-.984-.754-.262-.324-.46-.71-.596-1.16-.135-.456-.202-.956-.202-1.503 0-.53.063-1.016.19-1.462.132-.45.328-.84.59-1.167.263-.328.593-.584.99-.768.397-.183.86-.275 1.394-.275.562 0 1.042.092 1.44.275.397.184.72.44.97.768.256.323.44.71.556 1.16.12.446.18.936.18 1.47m-1.7 0c0-.845-.122-1.457-.365-1.837-.243-.38-.596-.57-1.058-.57-.478 0-.845.193-1.1.578-.254.384-.38.994-.38 1.83 0 .423.03.788.097 1.094.07.306.166.558.29.754.123.197.27.343.445.44.173.092.364.137.572.137.238 0 .45-.045.636-.137.188-.096.347-.243.474-.44.127-.196.223-.448.29-.754.064-.306.097-.67.097-1.095M181.98 92.236c0 .398-.06.783-.178 1.155-.116.368-.295.693-.538.978-.243.284-.552.51-.926.682-.374.166-.817.25-1.33.25h-2.024v3.25h-1.706v-9.238h3.66c.52 0 .972.073 1.354.216.382.14.698.34.95.597.25.258.434.566.554.925.123.358.185.754.185 1.186m-1.717.034c0-.476-.127-.837-.382-1.082-.25-.25-.627-.373-1.132-.373h-1.764v2.996h1.81c.255 0 .473-.036.654-.11.185-.076.337-.18.457-.315.123-.136.214-.298.27-.486.06-.193.088-.403.088-.63M185.775 98.682c-.45 0-.858-.075-1.22-.223-.36-.154-.665-.383-.92-.69-.254-.31-.45-.696-.584-1.16-.134-.468-.202-1.014-.202-1.64 0-.677.08-1.247.238-1.71.162-.464.377-.838.647-1.122.274-.29.588-.496.943-.623s.73-.19 1.122-.19c.494 0 .914.098 1.26.295.352.192.64.463.863.813.224.35.388.77.492 1.26.104.484.157 1.022.157 1.612v.053h-4.015c0 .298.023.575.07.833.045.255.12.475.224.663.103.184.238.33.404.44.166.105.366.157.602.157.285 0 .518-.068.7-.203.18-.14.31-.354.387-.643l1.532.15c-.07.202-.167.416-.295.644-.123.227-.29.437-.497.63-.208.187-.468.345-.78.47-.31.124-.685.185-1.128.185m0-6.197c-.166 0-.322.034-.47.098-.142.06-.267.162-.375.302-.104.135-.19.312-.254.53-.066.22-.102.482-.11.788h2.43c-.032-.573-.153-1-.365-1.285-.21-.29-.497-.434-.855-.434M193.853 98.55c-.012-.034-.017-.095-.03-.182-.01-.092-.016-.195-.028-.31-.012-.112-.015-.228-.023-.346 0-.118-.012-.223-.012-.315h-.023c-.19.46-.453.79-.793.99-.335.197-.738.295-1.208.295-.394 0-.735-.092-1.024-.275-.286-.184-.523-.44-.712-.767-.185-.328-.323-.715-.416-1.16-.09-.45-.133-.94-.133-1.47 0-.537.047-1.03.14-1.482.096-.45.243-.837.44-1.16.196-.328.445-.584.745-.768.305-.183.666-.275 1.082-.275.204 0 .4.024.59.073.19.05.364.123.526.223.162.102.31.23.44.388.13.157.243.347.335.57h.012c0-.044 0-.107-.012-.19v-.295c0-.11 0-.223-.01-.34V88.82h1.624v8.185c0 .345.012.653.017.924.01.266.02.474.028.622h-1.573m-.075-3.587c0-.467-.04-.854-.116-1.16-.077-.31-.18-.556-.306-.735-.124-.183-.266-.31-.428-.38-.158-.074-.32-.112-.486-.112-.208 0-.393.045-.555.138-.16.092-.294.236-.406.432-.11.197-.19.448-.25.754-.053.307-.08.676-.08 1.11 0 1.607.426 2.412 1.278 2.412.162 0 .324-.04.486-.118.162-.078.307-.212.434-.4.127-.188.23-.44.306-.754.08-.32.122-.715.122-1.187M198.482 98.682c-.3 0-.57-.045-.81-.137-.235-.096-.436-.234-.6-.414-.167-.182-.294-.407-.383-.674-.09-.267-.134-.57-.134-.912 0-.42.063-.77.19-1.055.132-.29.31-.52.533-.696.222-.18.485-.308.785-.387.3-.083.62-.127.96-.13l1.348-.026v-.36c0-.258-.022-.472-.064-.643-.04-.174-.098-.316-.174-.426-.077-.11-.174-.185-.29-.228-.112-.047-.24-.073-.387-.073-.136 0-.257.014-.365.044-.104.03-.195.084-.272.163-.077.075-.14.178-.19.31-.047.126-.08.287-.1.484l-1.694-.09c.045-.31.13-.593.254-.847.123-.258.293-.48.51-.67.22-.187.486-.33.803-.432.32-.104.694-.156 1.122-.156.388 0 .735.054 1.04.164.304.11.563.273.775.492.212.214.374.478.486.793.113.315.168.68.168 1.095v2.584c0 .166.012.315.017.446.015.13.04.243.075.334.04.088.09.156.157.204.07.044.158.065.266.065.123 0 .242-.013.358-.038v.996c-.096.025-.182.05-.26.073-.076.023-.153.04-.23.054-.077.014-.16.023-.25.034-.083.013-.184.014-.3.014-.408 0-.71-.113-.908-.34-.193-.228-.308-.562-.347-1.004h-.035c-.216.442-.493.785-.833 1.03-.335.244-.744.367-1.226.367m1.892-3.417l-.832.014c-.174.013-.34.025-.498.053-.154.022-.29.073-.41.15-.116.076-.21.185-.278.33-.07.143-.104.34-.104.59 0 .336.067.587.202.753.14.162.322.243.55.243.208 0 .397-.05.566-.15.17-.1.313-.232.43-.394.118-.166.21-.356.276-.57.065-.214.1-.433.1-.656v-.36M206.242 101.397c-.413 0-.777-.048-1.094-.144-.312-.092-.58-.223-.804-.394-.22-.167-.397-.368-.532-.604-.13-.232-.22-.487-.27-.767l1.624-.218c.058.285.18.508.37.67.193.16.443.242.752.242.193 0 .368-.03.526-.092.162-.06.3-.166.41-.315.116-.144.205-.336.267-.577.067-.24.1-.537.1-.892v-.373c0-.127 0-.243.01-.348 0-.123.012-.24.012-.354h-.012c-.19.46-.455.79-.798.997-.34.205-.745.308-1.215.308-.397 0-.74-.088-1.03-.262-.285-.18-.522-.427-.71-.74-.19-.32-.33-.7-.423-1.136-.09-.44-.133-.926-.133-1.456 0-.546.048-1.04.146-1.48.097-.447.242-.83.44-1.15.2-.318.45-.563.75-.734.305-.174.666-.262 1.082-.262.417 0 .79.1 1.117.302.33.2.59.527.775.977h.03c0-.092 0-.197.01-.315.013-.123.016-.238.024-.347.01-.114.015-.215.023-.302.012-.088.02-.146.03-.177h1.537c-.012.157-.015.378-.023.662-.01.284-.01.61-.01.977v5.24c0 .515-.066.964-.198 1.344-.13.384-.323.703-.578.956-.25.254-.56.444-.93.57-.367.128-.786.19-1.256.19m1.36-6.49c0-.447-.04-.818-.117-1.116-.076-.297-.176-.535-.3-.714-.123-.18-.265-.306-.427-.38-.158-.076-.318-.113-.48-.113-.208 0-.394.045-.556.138-.158.093-.293.235-.404.427-.112.193-.197.437-.255.735-.058.297-.087.65-.087 1.062 0 .765.11 1.342.325 1.73.216.39.538.585.966.585.163 0 .323-.036.48-.105.163-.075.308-.2.435-.38.127-.184.23-.427.306-.728.078-.302.117-.682.117-1.14M216.804 94.997c0 .542-.067 1.038-.202 1.49-.13.45-.33.838-.596 1.166-.266.323-.597.577-.995.76-.396.18-.858.27-1.387.27-.51 0-.958-.09-1.347-.27-.39-.18-.718-.43-.984-.754-.262-.324-.46-.71-.595-1.16-.135-.456-.203-.956-.203-1.503 0-.53.064-1.016.19-1.462.132-.45.33-.84.59-1.167.263-.328.593-.584.99-.768.397-.183.862-.275 1.394-.275.563 0 1.043.092 1.44.275.397.184.72.44.972.768.254.323.44.71.555 1.16.12.446.18.936.18 1.47m-1.7 0c0-.845-.123-1.457-.365-1.837-.243-.38-.596-.57-1.06-.57-.477 0-.843.193-1.098.578-.254.384-.382.994-.382 1.83 0 .423.032.788.098 1.094.07.306.166.558.29.754.123.197.272.343.445.44.174.092.364.137.573.137.24 0 .45-.045.636-.137.19-.096.347-.243.474-.44.127-.196.224-.448.29-.754.064-.306.097-.67.097-1.095m-2.383-4.203v-.203l1.458-1.888h1.492v.282l-1.966 1.81h-.984M220.716 101.397c-.413 0-.777-.048-1.093-.144-.313-.092-.58-.223-.804-.394-.22-.167-.398-.368-.533-.604-.13-.232-.222-.487-.272-.767l1.625-.218c.058.285.18.508.37.67.193.16.444.242.752.242.193 0 .368-.03.526-.092.162-.06.3-.166.41-.315.117-.144.205-.336.267-.577.066-.24.098-.537.098-.892v-.373c0-.127 0-.243.01-.348 0-.123.013-.24.013-.354h-.012c-.19.46-.455.79-.798.997-.34.205-.744.308-1.215.308-.396 0-.74-.088-1.028-.262-.285-.18-.523-.427-.71-.74-.19-.32-.33-.7-.424-1.136-.09-.44-.133-.926-.133-1.456 0-.546.047-1.04.145-1.48.097-.447.243-.83.44-1.15.2-.318.45-.563.75-.734.306-.174.666-.262 1.083-.262.416 0 .788.1 1.116.302.33.2.59.527.774.977h.03c0-.092 0-.197.01-.315.013-.123.016-.238.024-.347.012-.114.015-.215.023-.302.013-.088.023-.146.03-.177h1.538c-.012.157-.015.378-.023.662-.012.284-.012.61-.012.977v5.24c0 .515-.065.964-.196 1.344-.13.384-.324.703-.58.956-.25.254-.56.444-.93.57-.366.128-.784.19-1.255.19m1.36-6.49c0-.447-.04-.818-.116-1.116-.077-.297-.178-.535-.3-.714-.124-.18-.267-.306-.43-.38-.157-.076-.317-.113-.48-.113-.207 0-.392.045-.554.138-.158.093-.294.235-.405.427-.112.193-.197.437-.255.735-.058.297-.087.65-.087 1.062 0 .765.11 1.342.324 1.73.215.39.537.585.965.585.162 0 .322-.036.48-.105.162-.075.307-.2.434-.38.126-.184.228-.427.306-.728.077-.302.115-.682.115-1.14M225.333 90.177V88.82h1.625v1.357h-1.625m0 8.374v-7.094h1.625v7.095h-1.625M231.234 98.682c-.497 0-.933-.088-1.307-.262-.37-.175-.678-.422-.925-.74-.247-.32-.432-.703-.555-1.15-.124-.45-.185-.945-.185-1.487 0-.59.067-1.115.202-1.574.135-.464.33-.853.584-1.168.255-.32.567-.562.937-.728.374-.166.798-.25 1.273-.25.404 0 .763.062 1.075.185.316.12.588.29.816.503.226.21.41.46.548.748.143.29.24.6.295.932l-1.637.092c-.046-.363-.162-.65-.347-.865-.186-.22-.448-.33-.787-.33-.436 0-.754.204-.954.61-.202.407-.302.997-.302 1.77 0 1.636.426 2.453 1.278 2.453.308 0 .567-.11.775-.327.21-.223.338-.553.388-.99l1.632.083c-.04.327-.128.642-.267.944-.134.297-.32.56-.555.793-.23.227-.513.41-.844.55-.332.136-.712.204-1.14.204M241.157 94.997c0 .542-.067 1.038-.202 1.49-.13.45-.33.838-.596 1.166-.267.323-.598.577-.996.76-.397.18-.86.27-1.388.27-.51 0-.958-.09-1.347-.27-.39-.18-.72-.43-.985-.754-.262-.324-.46-.71-.595-1.16-.135-.456-.203-.956-.203-1.503 0-.53.063-1.016.19-1.462.132-.45.33-.84.59-1.167.263-.328.593-.584.99-.768.397-.183.862-.275 1.394-.275.564 0 1.044.092 1.44.275.398.184.722.44.973.768.254.323.44.71.555 1.16.12.446.18.936.18 1.47m-1.7 0c0-.845-.123-1.457-.366-1.837-.242-.38-.595-.57-1.058-.57-.478 0-.844.193-1.1.578-.253.384-.38.994-.38 1.83 0 .423.03.788.098 1.094.07.306.166.558.29.754.123.197.27.343.445.44.173.092.364.137.572.137.24 0 .45-.045.636-.137.19-.096.347-.243.474-.44.127-.196.224-.448.29-.754.065-.306.097-.67.097-1.095" font-size="10.926" font-weight="bold" fill="#fff" font-family="Arial"/><path d="M91.986 22.06l6.932 27.673h27.68l-20.758 13.84 13.835 27.685-27.697-13.86-27.667 27.7 13.84-41.522-27.68-20.76 34.596 6.914 6.92-27.673z" fill="#fad103"/><path d="M27.117 84.488h16.567v-5.893h-9.558V52.612h-7.01v31.876zM59.64 75.56c0 1.383-.18 5.312-5.135 5.312-2.053 0-3.884-.58-3.884-2.947 0-2.322 1.787-2.99 3.752-3.392 1.964-.358 4.196-.402 5.267-1.34v2.366zm-8.304-7.055c.223-2.5 1.785-3.482 4.196-3.482 2.232 0 4.107.402 4.107 3.125 0 2.59-3.617 2.456-7.5 3.036-3.93.536-7.858 1.786-7.858 7.008 0 4.733 3.482 6.92 7.857 6.92 2.81 0 5.76-.758 7.767-2.856.044.758.224 1.518.446 2.232h6.43c-.58-.938-.804-3.036-.804-5.134v-12.01c0-5.535-5.537-6.562-10.136-6.562-5.178 0-10.49 1.786-10.85 7.723h6.342zM122.162 73.907c-.09 7.858 6.52 11.34 13.573 11.34 8.66 0 13.26-4.375 13.26-10.224 0-7.232-7.144-8.705-9.466-9.286-7.99-2.054-9.51-2.366-9.51-4.82 0-2.68 2.59-3.617 4.822-3.617 3.348 0 6.07.982 6.294 4.82h6.786c0-7.365-6.116-10.267-12.768-10.267-5.76 0-11.92 3.125-11.92 9.644 0 5.98 4.778 7.812 9.51 9.062 4.687 1.25 9.464 1.83 9.464 5.267 0 3.26-3.75 3.973-6.206 3.973-3.75 0-7.054-1.652-7.054-5.893h-6.786zM165.324 75.56c0 1.383-.18 5.312-5.135 5.312-2.054 0-3.884-.58-3.884-2.947 0-2.322 1.786-2.99 3.75-3.392 1.964-.358 4.196-.402 5.268-1.34v2.366zm-8.304-7.055c.223-2.5 1.785-3.482 4.196-3.482 2.233 0 4.108.402 4.108 3.125 0 2.59-3.617 2.456-7.5 3.036-3.93.536-7.858 1.786-7.858 7.008 0 4.733 3.482 6.92 7.857 6.92 2.813 0 5.76-.758 7.77-2.856.043.758.222 1.518.445 2.232h6.43c-.58-.938-.805-3.036-.805-5.134v-12.01c0-5.535-5.536-6.562-10.134-6.562-5.18 0-10.492 1.786-10.85 7.723h6.34zM174.414 84.488h6.34V52.612h-6.34v31.876zM183.34 84.488h6.34V52.612h-6.34v31.876zM214.395 74.488c.447-7.098-3.348-13.706-11.205-13.706-7.01 0-11.786 5.268-11.786 12.188 0 7.143 4.508 12.143 11.786 12.143 5.223 0 9.02-2.322 10.804-7.768h-5.58c-.402 1.428-2.456 2.99-5 2.99-3.528 0-5.492-1.83-5.67-5.847h16.65zm-16.65-4.02c.088-1.784 1.25-4.91 5.266-4.91 3.082 0 4.465 1.697 5.046 4.91h-10.312z" fill="#fff" fill-rule="evenodd"/></svg>