<svg xmlns="http://www.w3.org/2000/svg" width="400" height="172.855"><path d="M400 129.394H0v-4.29h400v4.29z" fill="#94be35"/><path d="M147.56 97.28c1.414 1.95 2.02 4.205 1.817 6.762-.2 2.487-2.724 5.112-7.568 7.872-4.375 2.486-7.84 3.732-10.395 3.732-19.375 0-36.194-4.777-50.456-14.328-11.237-7.537-24.053-20.72-38.45-39.56-2.622-3.43-6.39-7.298-11.3-11.604-1.818 1.817-2.726 4.138-2.726 6.963 0 4.172.437 10.394 1.312 18.67.873 8.274 1.312 14.496 1.312 18.667 0 2.086-.573 4.406-1.716 6.965-1.816-1.82-2.724-7.336-2.724-16.55V69.63c0-10.898-1.067-18.028-3.195-21.393-.733-.066-1.465-.066-2.196 0-.8 0-4.46 1.65-10.983 4.944L8 51.97c.065-.94 1.95-2.422 5.65-4.44l7.366-4.036c-7.4-4.844-11.942-7.433-13.623-7.77 2.758-1.01 4.24-1.48 4.44-1.413l9.183 2.22c.47.27.942.34 1.413.203.537-.202.806-.605.806-1.21.27-5.718.505-11.437.707-17.156.404-6.66 1.176-12.345 2.32-17.054 1.144 1.952 1.716 6.29 1.716 13.017 0 1.884-.086 4.742-.253 8.578-.17 3.835-.252 6.695-.252 8.577 0 5.99 1.01 8.31 3.027 6.963l48.943-26.035 1.514 1.01-46.926 30.88C45.27 57.958 56.94 70.402 69.05 81.638c17.29 16.078 31.418 25.733 42.384 28.962 5.718 1.68 11.066 2.522 16.046 2.522 9.215 0 15.81-3.095 19.78-9.284.267-.404.402-.907.402-1.513 0-2.49-3.667-6.09-11-10.8-3.498-2.218-5.718-3.33-6.66-3.33-4.71.068-7.064.74-7.064 2.02 0 .94 2.59 3.262 7.77 6.962.27.267.405.57.405.908 0 .873-.808 1.968-2.423 3.28-1.614 1.313-2.893 1.967-3.834 1.967-1.615 0-3.398-1.328-5.35-3.986-1.95-2.66-2.925-4.83-2.925-6.51 0-1.076.37-2.32 1.11-3.732.405-.54 1.75-1.196 4.038-1.968 2.286-.775 3.867-1.16 4.742-1.16 1.278 0 3.364.468 6.257 1.41 6.66 2.154 11.605 5.45 14.834 9.89" fill="#947938"/><path d="M106.59 38.348c-.403-.203-.673-.673-.807-1.414-.135-.67-.135-1.176 0-1.513.202-.335.303-.536.303-.604-.068-.135-.237-.203-.505-.203s-1.512.37-3.732 1.11L98.82 37.34c.47-1.143 1.782-2.22 3.936-3.23 1.816-.94 3.464-1.478 4.945-1.613.538-.067 1.06.168 1.564.706.505.54.757 1.078.757 1.616 0 .874-1.143 2.053-3.43 3.532m21.192 3.027c0 1.01-.337 2.893-1.01 5.65-1.346 5.384-3.465 8.21-6.357 8.478-1.346.135-2.674-.236-3.986-1.11-1.313-.874-1.968-1.984-1.968-3.33 0-1.144.67-2.372 2.018-3.683 1.344-1.313 2.59-1.97 3.734-1.97.336.137.504.506.504 1.11 0 .607-.168 1.464-.504 2.574-.337 1.11-.505 1.902-.505 2.372 0 .136.032.202.1.202.134 0 .268-.1.404-.303 2.623-2.825 3.935-6.592 3.935-11.302 0-6.996-5.08-10.495-15.24-10.495-7.13 0-13.32 1.885-18.567 5.65-5.383 3.97-8.915 9.353-10.595 16.147-.404 1.615-.606 3.466-.606 5.55 0 2.692.47 7.132 1.413 13.32.94 5.788 1.345 10.16 1.21 13.12 0 .74-.37 1.21-1.11 1.412-.605.202-1.177.1-1.714-.302-1.01-3.296-1.883-8.476-2.623-15.54-.606-5.786-.91-9.754-.91-11.91 0-2.487.286-6.204.86-11.15.57-4.944.857-8.628.857-11.05.066-3.16.37-4.743.908-4.743.134 0 .235.068.303.203l2.422 3.632c.268.54.403 1.312.403 2.32v1.213c5.158-4.037 9.278-6.795 12.36-8.276 4.487-2.286 9.244-3.43 14.267-3.43 6.028 0 10.483.773 13.363 2.32 4.422 2.356 6.632 6.796 6.632 13.32M174 73.465c0 2.558-2.995 3.835-8.98 3.835-4.308 0-7.604-1.917-9.89-5.752.403-.268 1.377-.167 2.925.303.606.202 1.782.843 3.533 1.918 1.344.875 2.69 1.312 4.036 1.312 1.75 0 3.464-.47 5.147-1.413-1.21-.268-1.815-1.143-1.815-2.623 0-1.682.47-2.49 1.412-2.423 2.422.203 3.633 1.818 3.633 4.845M145.24 38.55c-2.356 0-5.046.907-8.073 2.724-3.365 1.952-5.047 4.037-5.047 6.256v1.717c.135.672.774 1.008 1.918 1.008 2.69-.336 6.626-.772 11.807-1.31 1.01 0 2.456-.068 4.34-.204.537-.133.807-.57.807-1.31 0-2.22-.404-4.137-1.21-5.752-1.01-2.085-2.524-3.13-4.542-3.13m53.484 30.88c0 6.123-4.61 10.463-13.825 13.02-5.79 1.613-12.752 2.42-20.89 2.42-8.613 0-16.82-2.892-24.624-8.678-8.476-6.257-12.715-13.522-12.715-21.797 0-3.7 1.414-7.602 4.24-11.706 3.027-4.507 6.29-6.76 9.79-6.76 4.843 0 8.374 1.007 10.595 3.027 2.22 2.018 3.33 5.416 3.33 10.19 0 1.482-2.523 2.22-7.57 2.22-1.614 0-3.6-.065-5.952-.2h-3.634c-1.077 0-2.558.435-4.44 1.302-2.155 1.003-3.23 1.94-3.23 2.806 0 6.55 3.9 12.597 11.706 18.145 7.198 5.146 14.194 7.718 20.99 7.718 10.36 0 17.29-.37 20.787-1.11 8.88-1.883 13.32-6.12 13.32-12.715 0-1.615-.74-3.296-2.218-5.046h2.018c1.546 2.086 2.32 4.474 2.32 7.164" fill="#94be35"/><path d="M216.685 53.383c.74 9.824 1.38 17.56 1.918 23.21.74 8.544 1.716 14.698 2.926 18.47l3.33.502c-.068-.337-1.212-14.564-3.432-42.686l-4.743.503zm-.302-4.238c-.673-7.198-1.58-12.377-2.725-15.54v-15.54c.066-7.2.505-13.153 1.312-17.863.2-.133.403-.202.606-.202.807 0 1.615 1.11 2.422 3.33.67 1.952 1.008 3.366 1.008 4.24-.068 8.208.606 21.796 2.02 40.768l-4.643.807zM206.29 50.76c2.61-16.837 4.982-25.592 7.124-26.265l-3.103 25.658-4.02.606zm3.673 3.234l-4.89 40.056c-.606 1.01-1.276 1.515-2.014 1.515-1.142 0-1.713-1.116-1.713-3.345 1.412-14.873 2.89-27.583 4.44-38.13l4.176-.096zm-12.955-1.215c2.018-.742 10.292-2.255 24.825-4.543 1.613.74 2.42 1.48 2.42 2.22 0 .27-.64 1.044-1.916 2.322l-16.45 1.31c-4.035 0-6.997-.437-8.88-1.31" fill="#947938"/><path d="M254.426 38.348c-.403-.203-.672-.673-.807-1.414-.136-.67-.136-1.176 0-1.513.202-.335.302-.536.302-.604-.067-.135-.236-.203-.505-.203-.27 0-1.513.37-3.734 1.11l-3.027 1.615c.47-1.143 1.783-2.22 3.935-3.23 1.818-.94 3.466-1.478 4.947-1.613.538-.067 1.058.168 1.564.706.506.54.758 1.078.758 1.616 0 .874-1.146 2.053-3.432 3.532m21.192 3.027c0 1.01-.337 2.893-1.008 5.65-1.347 5.384-3.467 8.21-6.358 8.478-1.346.135-2.674-.236-3.987-1.11-1.31-.874-1.967-1.984-1.967-3.33 0-1.144.672-2.372 2.018-3.683 1.345-1.313 2.59-1.97 3.734-1.97.336.137.504.506.504 1.11 0 .607-.168 1.464-.504 2.574-.338 1.11-.504 1.902-.504 2.372 0 .136.033.202.1.202.134 0 .268-.1.404-.303 2.624-2.825 3.937-6.592 3.937-11.302 0-6.996-5.08-10.495-15.24-10.495-7.13 0-13.32 1.885-18.568 5.65-5.383 3.97-8.914 9.353-10.597 16.147-.402 1.615-.604 3.466-.604 5.55 0 2.692.468 7.132 1.41 13.32.943 5.788 1.346 10.16 1.212 13.12 0 .74-.37 1.21-1.11 1.412-.605.202-1.178.1-1.715-.302-1.01-3.296-1.884-8.476-2.624-15.54-.605-5.786-.908-9.754-.908-11.91 0-2.487.285-6.204.858-11.15.57-4.944.857-8.628.857-11.05.067-3.16.37-4.743.908-4.743.134 0 .235.068.303.203l2.424 3.632c.267.54.402 1.312.402 2.32v1.213c5.16-4.037 9.278-6.795 12.358-8.276 4.49-2.286 9.246-3.43 14.27-3.43 6.028 0 10.482.773 13.363 2.32 4.42 2.356 6.63 6.796 6.63 13.32" fill="#94be35"/><path d="M321.432 111.914c-1.952-.472-2.825-.708-2.624-.708 1.547-.403 3.23-1.513 5.046-3.33.2.134.302.338.302.607 0 .605-.907 1.747-2.724 3.43m0 .124c-1.145.793-2.39 1.188-3.733 1.188-1.616 0-2.794-.304-3.534-.908-.404-.337-1.18-1.347-2.32-3.028.133 0 1.125.336 2.977 1.008 1.848.672 3.312 1.008 4.39 1.008h1.513c0 .123.235.366.706.73m43.29-13.948c0 2.96-1.446 6.157-4.337 9.587-2.357 2.757-4.71 4.877-7.065 6.358l-7.366 4.44c-.807.537-2.457 1.21-4.945 2.017-3.164 1.076-5.686 1.614-7.57 1.614-1.816 0-6.357-.267-13.624-.805-8.41-.607-13.085-1.18-14.025-1.717-7.536-2.558-13.86-7.165-18.972-13.824-5.113-6.664-7.77-13.93-7.97-21.8l-1.313-47.227c-1.816-1.143-2.894-1.883-3.23-2.22-1.145-1.01-1.648-2.018-1.513-3.027 1.816-.067 3.06-.27 3.734-.606.94-.538 1.413-1.615 1.413-3.23 0-.267-.038-.772-.103-1.513V24.42c0-3.63.638-7.23 1.917-10.796l1.817.807.204 1.414c.468 3.7 1.175 8.31 2.118 13.825.135.672.605 1.396 1.413 2.17.807.773 1.546 1.194 2.22 1.26 1.68.136 4.708.706 9.082 1.716 3.97.942 6.762 1.412 8.376 1.412 3.498 0 7.03-.638 10.596-1.917-2.013 2.625-5.668 3.937-10.966 3.937-2.416 0-5.115-.455-8.098-1.363-2.985-.908-5.18-1.362-6.59-1.362-2.01 0-3.185.035-3.52.1-1.073.202-1.912.775-2.514 1.716-.136 4.508-.202 13.523-.202 27.045 0 1.413-.067 3.567-.2 6.458-.136 2.895-.203 5.082-.203 6.56 0 6.393.57 10.933 1.715 13.624 4.037 9.55 8.005 16.212 11.907 19.98 5.853 5.583 14.128 8.376 24.825 8.376h15.137c1.413 0 3.43-.706 6.055-2.12 12.646-6.793 18.972-12.95 18.972-18.466 0-2.288-.96-4.29-2.878-6.004-1.918-1.716-4.055-2.71-6.41-2.977-1.007-.136-2.116.336-3.328 1.412-.943.875-1.953 1.782-3.027 2.726-.136-.27-.202-.572-.202-.908 0-1.007.436-2.186 1.31-3.532 2.287-1.614 4.407-2.42 6.36-2.42 3.093 0 5.7 1.058 7.82 3.177 2.12 2.12 3.178 4.725 3.178 7.82" fill="#94be35"/><path d="M360.383 73.465c0 2.558-2.994 3.835-8.98 3.835-4.306 0-7.604-1.917-9.89-5.752.404-.268 1.378-.167 2.926.303.605.202 1.78.843 3.532 1.918 1.344.875 2.69 1.312 4.035 1.312 1.75 0 3.465-.47 5.148-1.413-1.212-.268-1.818-1.143-1.818-2.623 0-1.682.47-2.49 1.413-2.423 2.422.203 3.633 1.818 3.633 4.845m-28.76-34.916c-2.356 0-5.045.907-8.072 2.724-3.365 1.952-5.046 4.037-5.046 6.256v1.717c.134.672.773 1.008 1.918 1.008 2.69-.336 6.625-.772 11.806-1.31 1.01 0 2.455-.068 4.34-.204.538-.133.808-.57.808-1.31 0-2.22-.405-4.137-1.212-5.752-1.01-2.085-2.522-3.13-4.542-3.13m53.485 30.88c0 6.123-4.61 10.463-13.826 13.02-5.785 1.613-12.747 2.42-20.887 2.42-8.612 0-16.82-2.892-24.622-8.678-8.475-6.257-12.715-13.522-12.715-21.797 0-3.7 1.413-7.602 4.24-11.706 3.027-4.507 6.29-6.76 9.786-6.76 4.846 0 8.377 1.007 10.598 3.027 2.22 2.018 3.33 5.416 3.33 10.19 0 1.482-2.523 2.22-7.568 2.22-1.614 0-3.6-.065-5.954-.2h-3.633c-1.077 0-2.557.435-4.44 1.302-2.153 1.003-3.23 1.94-3.23 2.806 0 6.55 3.9 12.597 11.706 18.145 7.197 5.146 14.193 7.718 20.99 7.718 10.36 0 17.29-.37 20.787-1.11 8.88-1.883 13.32-6.12 13.32-12.715 0-1.615-.74-3.296-2.22-5.046h2.018c1.547 2.086 2.322 4.474 2.322 7.164" fill="#94be35"/><path d="M28.94 137.084c0 .684.098 1.322.294 1.907.065-.128.196-.323.39-.584.457-.653.907-1.307 1.347-1.958.44-.65.89-1.304 1.345-1.958l.612-.806c.213-.276.383-.578.514-.905.066-.263.09-.54.075-.832-.018-.294-.205-.457-.563-.49-.457-.064-.89.065-1.297.393-.408.326-.742.652-1.003.978-.49.587-.897 1.247-1.222 1.98-.326.734-.49 1.492-.49 2.276m-4.55 22.454c.23.164.482.262.76.293.276.033.545.05.807.05.358.032.716.023 1.076-.024.358-.05.717-.107 1.076-.17.814-.164 1.605-.41 2.372-.736.765-.324 1.46-.765 2.078-1.32-.946.163-1.875.26-2.788.294-.913.03-1.842.082-2.788.146-.36.033-.717.064-1.077.098-.36.033-.7.13-1.027.293-.195.068-.4.222-.61.466-.213.244-.173.45.12.612m15.557-7.29c.098-.13.236-.203.416-.22.18-.016.318.042.416.17.16.196.202.376.12.54-.08.163-.187.327-.317.49-.88 1.14-1.99 2.087-3.326 2.836-.294.163-.596.31-.905.44-.31.13-.63.262-.955.39l-.977.297c-.13.064-.237.162-.318.293-.083.13-.172.26-.27.39-.717.85-1.598 1.51-2.64 1.983-1.046.472-2.104.806-3.18 1.003-.49.063-.988.104-1.493.12-.507.016-.988-.008-1.444-.073-.457-.067-.905-.22-1.346-.466-.44-.243-.66-.64-.66-1.196 0-.653.237-1.133.71-1.443.472-.31.986-.512 1.54-.61.75-.163 1.485-.245 2.202-.245.716 0 1.45-.032 2.2-.097.85-.034 1.697-.13 2.545-.295l.734-.146c.1-.032.204-.056.32-.074.113-.016.202-.056.268-.12.098-.165.187-.344.27-.54.08-.197.153-.392.22-.588.26-.75.35-1.498.268-2.25-.082-.75-.253-1.482-.514-2.2-.586-1.63-1.37-3.182-2.347-4.648-.98-1.467-1.828-3-2.544-4.598l-4.01 6.114-5.675 8.708-2.104 3.178c-.13.23-.293.343-.488.343-.26.033-.44-.056-.538-.27-.098-.21-.08-.416.05-.61l.635-.93 4.842-7.387c.782-1.207 1.557-2.405 2.323-3.595.766-1.19 1.542-2.372 2.323-3.546l1.42-2.103.684-1.075c.066-.066.073-.163.025-.294-.05-.13-.09-.227-.122-.293-.067-.162-.13-.374-.196-.636-.23-.845-.31-1.678-.246-2.493.066-.815.294-1.614.685-2.397.26-.553.587-1.1.978-1.64.39-.537.863-1.003 1.418-1.393.36-.262.75-.466 1.175-.61.424-.15.864-.155 1.32-.026.718.23 1.11.703 1.176 1.42.064.36.04.71-.074 1.052-.115.343-.27.676-.465 1.002-.163.294-.35.58-.562.856-.213.278-.416.56-.612.856l-1.32 1.858-1.42 2.105-.44.635c-.066.066-.066.147 0 .244.065.097.115.196.147.293l.49 1.026c.39.783.806 1.558 1.247 2.324.44.766.888 1.524 1.345 2.273.39.686.782 1.413 1.174 2.177.39.77.7 1.55.93 2.35.228.798.358 1.613.39 2.445.033.832-.114 1.655-.44 2.47 2.023-.718 3.67-1.91 4.94-3.57" fill="#947938"/><path d="M47.92 139.53c-.26-.13-.408-.344-.44-.637-.033-.292.016-.562.147-.807.13-.244.318-.432.562-.562.244-.13.497-.13.758 0 .26.164.407.385.44.662.032.276-.017.538-.147.78-.13.246-.317.434-.56.563-.246.132-.5.132-.76 0m1.175 12.67c.195.163.252.334.17.512-.08.18-.17.352-.268.515l-.88.98c-.425.488-.85.976-1.273 1.466-.424.488-.864.962-1.32 1.42-.36.358-.718.692-1.076 1-.36.312-.75.597-1.175.857-.293.163-.628.31-1.003.44-.375.132-.725.115-1.052-.05-.26-.13-.44-.317-.537-.56-.097-.245-.163-.498-.195-.76-.066-.552-.033-1.09.098-1.613.13-.522.276-1.028.44-1.517.26-.75.546-1.483.856-2.202.31-.715.642-1.45 1.002-2.2l-2.2 2.592c-.263.293-.532.334-.81.124-.276-.214-.284-.498-.023-.857l.733-.88 3.326-3.817 1.076-1.273c.163-.226.358-.323.587-.292.162.066.285.163.366.292.08.133.09.28.023.44-.033.098-.073.197-.122.296-.047.097-.105.196-.17.294-.554 1.042-1.084 2.086-1.59 3.13s-.986 2.118-1.443 3.228c-.195.458-.375.922-.538 1.394-.164.473-.31.954-.44 1.442-.1.425-.132.815-.1 1.174 0 .066.01.18.025.343.017.162.074.244.172.244.13.032.27.016.415-.05.148-.065.27-.13.368-.195.39-.23.783-.506 1.174-.832.39-.36.758-.717 1.1-1.076.343-.36.693-.718 1.052-1.076.652-.718 1.27-1.435 1.86-2.153.16-.164.366-.392.61-.686.245-.293.497-.324.76-.098" fill="#947938"/><path d="M78.054 152.004c.26.23.31.464.146.708-.162.246-.325.45-.488.614-.294.358-.587.724-.88 1.1-.295.376-.605.74-.93 1.1-.522.588-1.07 1.167-1.64 1.737-.57.57-1.197 1.05-1.883 1.443-.196.13-.433.244-.71.34-.278.1-.556.165-.832.198-.277.033-.538.018-.782-.05-.245-.065-.465-.21-.66-.44-.392-.423-.523-.953-.392-1.59.13-.635.277-1.182.44-1.638.26-.75.554-1.482.88-2.2.327-.717.636-1.435.93-2.153.13-.327.26-.645.392-.955.13-.31.244-.643.342-1.002.065-.228.13-.466.196-.71.065-.244.08-.496.048-.758-.032-.26-.13-.433-.293-.513-.164-.08-.352-.123-.563-.123-.213 0-.433.033-.66.098-.23.066-.41.13-.54.196-.554.262-1.05.57-1.49.928-.44.36-.875.734-1.298 1.127-.49.49-.954 1.002-1.395 1.54-.44.54-.872 1.086-1.295 1.64-.23.26-.44.538-.637.83-.195.295-.39.59-.587.882l-.538.83c-.097.164-.18.338-.245.515-.065.18-.13.367-.195.562-.13.36-.262.7-.392 1.028-.13.326-.278.65-.44.977-.097.164-.196.343-.294.538-.097.197-.228.36-.39.49-.294.26-.572.26-.832 0-.13-.13-.196-.27-.196-.416 0-.147.032-.302.098-.466.13-.455.326-.91.587-1.367l.537-1.028c.098-.163.203-.333.318-.514.114-.177.203-.365.27-.56.13-.358.252-.727.366-1.1.115-.376.22-.76.318-1.15.196-.686.368-1.395.514-2.128.147-.736.187-1.46.123-2.177-.033-.294-.106-.595-.22-.906-.115-.31-.35-.465-.71-.465-.228 0-.506.064-.83.195-.36.163-.704.376-1.028.637-.327.26-.62.538-.88.83-.784.784-1.493 1.63-2.13 2.544-.635.915-1.246 1.845-1.834 2.79l-1.614 2.787-.686 1.273-.22.538c-.082.195-.188.376-.318.538-.293.294-.586.294-.88 0-.132-.196-.132-.423 0-.685l.636-1.32c.325-.685.652-1.36.977-2.03.325-.667.636-1.345.93-2.03.227-.522.44-1.042.635-1.565.196-.52.36-1.06.49-1.615.097-.357.187-.782.27-1.27.08-.49-.025-.882-.32-1.177-.13-.128-.26-.177-.39-.144-.13.03-.262.08-.392.143-.26.133-.506.287-.734.467-.23.18-.458.365-.686.562-.26.262-.506.523-.734.782-.228.262-.473.52-.734.783l-1.712 1.957-.635.733c-.067.098-.14.19-.22.27-.084.08-.205.122-.368.122-.26-.034-.424-.163-.49-.393-.066-.226-.016-.423.147-.587l.44-.488 1.663-1.958c.456-.52.912-1.034 1.37-1.54.455-.506.978-.937 1.565-1.296.39-.294.823-.507 1.296-.636.472-.13.92 0 1.345.39.26.262.44.556.537.882.098.325.147.67.147 1.026 0 .36-.04.727-.122 1.1-.082.376-.17.71-.27 1.006.425-.59.857-1.16 1.297-1.713.44-.555.936-1.06 1.492-1.517.39-.358.814-.686 1.27-.98.457-.29.963-.47 1.518-.536.587-.032 1.068.138 1.443.512.374.376.61.84.71 1.395.13.717.146 1.435.048 2.152-.097.716-.227 1.418-.39 2.103.554-.75 1.15-1.49 1.785-2.227.636-.733 1.328-1.41 2.08-2.03.488-.423 1.018-.805 1.59-1.148.57-.343 1.18-.546 1.834-.612.292-.033.593-.024.903.023.31.05.58.173.808.367.196.196.334.416.416.662.08.242.123.496.123.757 0 .75-.148 1.49-.442 2.225l-.83 2.078c-.295.685-.588 1.363-.88 2.032-.295.667-.556 1.36-.784 2.077-.066.228-.14.465-.22.71-.083.244-.09.497-.025.757.03.228.13.36.293.392.162.032.34.032.537 0 .457-.098.89-.31 1.297-.637.407-.326.79-.652 1.15-.98.456-.455.896-.91 1.32-1.368.424-.456.848-.93 1.27-1.42l1.03-1.27c.13-.164.276-.318.44-.466.163-.147.358-.14.587.024" fill="#947938"/><path d="M93.61 152.25c.195-.23.432-.246.708-.05.278.194.335.424.172.686-.098.163-.213.308-.342.44-.13.13-.262.277-.392.44l-.367.366c-.116.114-.22.253-.318.415-.75.783-1.6 1.55-2.544 2.3-1.045.782-2.177 1.443-3.4 1.98-1.223.538-2.503.875-3.84 1.004-.848.098-1.745.067-2.69-.097l-.784-.148c-.36-.128-.49-.365-.39-.708.097-.343.324-.465.684-.368.326.098.652.146.978.146.163 0 .3-.007.416-.024.115-.016.237-.04.367-.073.52-.1 1.042-.278 1.564-.538.49-.262.954-.564 1.394-.907.44-.34.857-.724 1.248-1.15.717-.782 1.345-1.67 1.883-2.664.537-.994.936-2.014 1.198-3.058.13-.39.228-.813.294-1.272.03-.293.056-.602.073-.928.015-.326-.042-.62-.172-.88-.13-.263-.35-.36-.66-.293-.31.064-.562.145-.758.242-.424.163-.824.376-1.2.636-.373.263-.74.538-1.1.832-.456.39-.904.805-1.345 1.246-.44.44-.872.89-1.296 1.347-.457.554-.897 1.117-1.32 1.687-.425.57-.832 1.166-1.224 1.784-.424.655-.782 1.29-1.076 1.91-.066.098-.122.187-.17.268-.05.082-.09.172-.123.27l-.244.537-.44 1.075c-.62 1.47-1.24 2.927-1.86 4.38-.62 1.45-1.255 2.91-1.907 4.377-.262.588-.514 1.174-.76 1.76-.244.588-.496 1.158-.757 1.713-.065.162-.138.3-.22.417-.08.113-.204.17-.368.17-.358-.066-.538-.26-.538-.587 0-.13.025-.253.074-.367.05-.114.107-.22.172-.317l.293-.635 2.79-6.458 5.722-13.598c-.457.52-.913 1.034-1.37 1.538-.457.506-.913 1.037-1.37 1.59-.13.164-.285.28-.463.342-.18.066-.35 0-.514-.195-.23-.226-.213-.488.05-.782l2.64-3.032c.424-.456.832-.912 1.223-1.37l1.174-1.37c.196-.227.432-.252.71-.073.276.18.35.4.22.662-.066.127-.115.242-.147.34-.033.1-.066.196-.097.294-.263.65-.523 1.28-.783 1.88-.26.606-.523 1.234-.784 1.887.685-.847 1.42-1.67 2.202-2.47.783-.8 1.647-1.49 2.593-2.08l.783-.44c.293-.162.595-.293.905-.39.31-.098.612-.14.905-.123.294.017.57.106.832.27.39.26.636.627.733 1.1.098.474.13.92.098 1.345-.033.62-.122 1.24-.27 1.86-.145.62-.334 1.206-.56 1.76-.49 1.24-1.135 2.42-1.933 3.546-.8 1.126-1.77 2.063-2.91 2.813 1.792-.455 3.398-1.254 4.818-2.396 1.42-1.14 2.715-2.414 3.89-3.814" fill="#947938"/><path d="M106.572 134.54c.13-.26.245-.603.343-1.028.098-.422.032-.764-.195-1.026-.067-.097-.164-.148-.294-.148-.13 0-.245.018-.343.05-.457.196-.848.514-1.174.955-.328.44-.62.87-.882 1.296-.293.455-.562.92-.807 1.393-.243.472-.48.953-.71 1.44-.357.72-.7 1.43-1.025 2.13-.326.702-.637 1.412-.93 2.13l-1.467 3.667c.75-1.01 1.5-2.013 2.25-3.01.75-.993 1.484-1.995 2.2-3.007.556-.782 1.093-1.572 1.616-2.373.52-.798.994-1.622 1.418-2.47m.54-3.13c.552.26.847.726.878 1.394.033.667-.048 1.247-.244 1.737-.163.425-.35.832-.562 1.222-.213.392-.433.768-.66 1.127-.555.945-1.15 1.857-1.786 2.737-.636.88-1.28 1.762-1.932 2.644-.816 1.108-1.632 2.2-2.446 3.276-.816 1.077-1.648 2.153-2.495 3.23-.13.13-.244.292-.343.49l-.195.585-.44 1.175c-.294.816-.54 1.566-.734 2.25-.196.653-.343 1.29-.44 1.908-.066.36-.1.727-.1 1.1 0 .376.082.744.246 1.103.227.553.603.758 1.124.61.522-.146 1.068-.447 1.64-.904.57-.457 1.1-.946 1.59-1.47.488-.52.814-.878.978-1.075l1.516-1.662c.098-.097.204-.23.317-.392.115-.162.245-.3.393-.416.146-.114.293-.186.44-.22.146-.032.285.034.415.196.13.164.163.318.098.464-.064.148-.146.287-.244.415-.163.164-.31.327-.44.492l-.39.487-1.616 1.713c-.424.458-.856.907-1.296 1.347-.44.44-.905.84-1.394 1.198-.36.26-.718.49-1.076.684-.36.196-.767.277-1.223.246-.75 0-1.288-.295-1.613-.88-.326-.588-.507-1.207-.538-1.86-.034-.782.055-1.566.268-2.35.212-.78.448-1.548.71-2.297-.165.196-.32.392-.466.587-.147.196-.3.39-.464.588-.164.164-.36.244-.588.244-.228 0-.374-.13-.44-.393-.066-.226.016-.464.245-.708.227-.247.407-.45.538-.613l1.174-1.517c.163-.162.3-.325.416-.49.113-.163.252-.323.415-.487.066-.066.13-.148.196-.246.065-.097.114-.195.147-.292.066-.066.106-.148.123-.245.016-.098.057-.196.122-.294.23-.587.45-1.167.66-1.736.213-.57.45-1.133.71-1.688.36-.88.71-1.762 1.052-2.643.342-.88.71-1.744 1.1-2.594.26-.585.54-1.173.832-1.76l.88-1.76c.26-.522.545-1.037.855-1.54.31-.507.662-.99 1.053-1.445.325-.422.774-.813 1.345-1.173.57-.358 1.133-.39 1.688-.097" fill="#947938"/><path d="M111.317 139.53c-.26-.13-.408-.344-.44-.637-.033-.292.016-.562.147-.807.13-.244.318-.432.562-.562.245-.13.498-.13.76 0 .26.164.406.385.44.662.03.276-.018.538-.148.78-.13.246-.318.434-.562.563-.245.132-.498.132-.76 0m1.176 12.67c.195.163.252.334.17.512-.08.18-.17.352-.268.515l-.88.98c-.425.488-.85.976-1.273 1.466-.423.488-.863.962-1.32 1.42-.36.358-.717.692-1.075 1-.36.312-.75.597-1.175.857-.293.163-.628.31-1.002.44-.376.132-.727.115-1.053-.05-.26-.13-.44-.317-.538-.56-.097-.245-.163-.498-.195-.76-.066-.552-.033-1.09.098-1.613.13-.522.276-1.028.44-1.517.26-.75.546-1.483.855-2.202.31-.715.644-1.45 1.003-2.2l-2.2 2.592c-.262.293-.53.334-.808.124-.277-.214-.285-.498-.024-.857l.734-.88 3.326-3.817 1.077-1.273c.163-.226.358-.323.587-.292.162.066.284.163.366.292.08.133.09.28.025.44-.033.098-.073.197-.122.296-.05.097-.106.196-.17.294-.555 1.042-1.086 2.086-1.59 3.13-.507 1.044-.987 2.118-1.444 3.228-.195.458-.375.922-.538 1.394-.163.473-.31.954-.44 1.442-.098.425-.13.815-.098 1.174 0 .066.008.18.024.343.017.162.074.244.172.244.13.032.27.016.415-.05.146-.065.27-.13.367-.195.39-.23.782-.506 1.174-.832.392-.36.76-.717 1.1-1.076.343-.36.694-.718 1.053-1.076.652-.718 1.27-1.435 1.86-2.153.16-.164.366-.392.61-.686.245-.293.497-.324.76-.098" fill="#947938"/><path d="M123.35 152.2c.13-.163.302-.212.515-.147.21.064.35.197.415.39.065.166.05.304-.048.417-.098.115-.196.22-.295.318l-1.858 1.957c-.98.946-2.04 1.817-3.18 2.617-1.142.8-2.415 1.314-3.817 1.54-.62.098-1.238.108-1.858.026-.62-.082-1.158-.384-1.615-.906-.36-.422-.586-.888-.684-1.395-.098-.503-.115-1.018-.05-1.54.1-1.305.48-2.56 1.15-3.766.668-1.205 1.426-2.28 2.275-3.228.458-.456.946-.912 1.47-1.37.52-.456 1.107-.75 1.76-.88.52-.066.986.032 1.393.293.408.26.694.636.857 1.125.032.098.073.238.122.417.05.18.065.36.05.536-.018.18-.067.32-.148.418-.08.098-.237.13-.464.098-.23-.065-.36-.17-.392-.317-.032-.148-.065-.3-.097-.466-.065-.323-.196-.586-.39-.78-.197-.198-.425-.27-.686-.222-.26.05-.506.14-.733.27-.358.163-.677.383-.954.66l-.807.806c-1.012 1.11-1.828 2.285-2.446 3.523-.262.49-.465 1.003-.612 1.542-.146.538-.237 1.086-.27 1.64-.032.455.025.912.172 1.368.146.457.448.784.905.98.292.13.61.194.953.194.343 0 .676-.032 1.003-.097.717-.164 1.37-.375 1.957-.636 1.272-.554 2.42-1.336 3.45-2.347 1.026-1.01 2.012-2.022 2.958-3.034" fill="#947938"/><path d="M125.7 158.168c.553-.163 1.05-.408 1.49-.735.44-.325.857-.683 1.25-1.075.455-.457.887-.96 1.295-1.516.407-.555.79-1.11 1.15-1.664.13-.163.235-.326.317-.49.08-.162.155-.325.22-.49l.44-.927c.13-.327.26-.635.393-.93.13-.293.276-.586.44-.88.26-.455.513-.905.758-1.345.244-.44.496-.888.758-1.344-.75-.098-1.5-.066-2.25.1-.75.162-1.45.405-2.103.73-.653.33-1.247.703-1.786 1.127-.536.423-1.05.88-1.54 1.37-.586.554-1.125 1.16-1.614 1.81-.49.65-.897 1.353-1.222 2.102-.197.457-.36.962-.49 1.515-.13.556-.13 1.095 0 1.615.065.23.154.44.27.636.114.195.284.343.513.44.26.098.545.13.856.098.31-.032.595-.08.856-.146m13.452-5.97c.195-.194.415-.225.66-.096.245.13.334.327.27.587-.034.13-.083.236-.148.316-.065.082-.13.156-.195.22-.263.262-.507.53-.735.808-.23.277-.457.548-.685.808l-1.663 1.858c-.555.62-1.158 1.19-1.81 1.712-.458.39-.987.71-1.59.953-.603.245-1.215.22-1.834-.073-.685-.292-1.07-.773-1.15-1.442-.082-.67-.074-1.33.025-1.98-.457.585-.97 1.147-1.542 1.685-.57.54-1.182.99-1.834 1.348-.555.26-1.174.43-1.86.512-.684.082-1.304-.056-1.858-.415-.457-.294-.775-.686-.954-1.174-.18-.49-.27-.995-.27-1.517.033-.62.156-1.225.368-1.81.212-.59.465-1.158.76-1.712.357-.75.797-1.445 1.32-2.08.52-.636 1.092-1.23 1.71-1.785.49-.456 1.012-.89 1.567-1.297.553-.408 1.14-.757 1.76-1.052.75-.36 1.542-.628 2.373-.807.832-.18 1.67-.22 2.52-.123.163.034.31.058.44.074.13.018.277.058.44.12.196.067.31.174.343.32.032.147.025.31-.024.49-.05.18-.122.358-.22.538-.098.18-.163.318-.196.415-.293.654-.595 1.29-.905 1.908-.31.62-.644 1.256-1.003 1.91-.097.194-.204.39-.317.586-.115.195-.237.39-.367.587-.098.198-.196.385-.293.563-.1.18-.18.384-.245.612-.13.36-.254.725-.368 1.1-.114.376-.203.758-.27 1.15-.064.294-.105.612-.12.955-.017.342.056.66.22.954.097.195.26.333.49.415.226.08.456.09.683.024.26-.066.506-.154.735-.27.227-.114.44-.252.635-.415l.783-.686c.26-.228.505-.474.733-.735.654-.652 1.273-1.32 1.86-2.006l1.762-2.055" fill="#947938"/><path d="M150.33 152.077c.21.05.35.172.414.367.066.165 0 .375-.195.636-.164.163-.32.343-.466.54-.146.194-.302.373-.464.537-.555.65-1.1 1.312-1.64 1.98-.537.67-1.148 1.28-1.833 1.834-.49.394-1.045.712-1.663.956-.62.244-1.257.27-1.908.074-.49-.13-.865-.384-1.125-.76-.26-.373-.424-.788-.49-1.246-.065-.49-.08-.98-.047-1.47.03-.486.097-.96.195-1.418.163-.75.343-1.482.538-2.2.196-.717.423-1.435.686-2.152-.327.456-.654.922-.98 1.394-.326.472-.668.938-1.027 1.394-.13.164-.286.334-.464.513-.18.18-.383.172-.61-.025-.263-.16-.327-.358-.196-.586.13-.228.276-.424.44-.587.652-.88 1.28-1.77 1.883-2.667.603-.896 1.18-1.817 1.737-2.763h-2.2c-.23 0-.402-.08-.515-.245-.116-.162-.124-.343-.025-.538.064-.162.17-.252.318-.268.146-.017.3-.025.463-.025h2.594l.49-1.026c.456-.913.887-1.843 1.295-2.79.407-.944.808-1.89 1.2-2.835.097-.263.284-.376.56-.345.277.034.433.196.466.49.033.163.01.325-.073.49-.08.163-.154.31-.22.44l-.733 1.858c-.262.62-.514 1.232-.76 1.835-.243.602-.497 1.232-.757 1.883h3.375c.196 0 .44-.006.734-.024.294-.015.49.092.587.318.1.195.08.376-.05.538-.13.164-.292.245-.488.245h-4.598c-.066 0-.14.14-.22.416-.08.277-.14.448-.17.513l-.392 1.03-.784 2.15c-.227.653-.43 1.314-.61 1.98-.18.67-.335 1.347-.465 2.03-.066.46-.122.93-.17 1.42-.05.49.023.947.22 1.37.13.326.325.53.586.61.263.083.54.1.832.05.294-.05.588-.14.882-.27.293-.13.537-.274.733-.438.652-.457 1.24-.995 1.762-1.614.52-.62 1.042-1.256 1.564-1.91l1.272-1.515c.13-.164.3-.22.513-.173" fill="#947938"/><path d="M156.077 146.915c-.555.067-1.07.27-1.542.614-.472.34-.888.707-1.247 1.1-.88.976-1.63 2.134-2.25 3.47 1.01-.26 2.03-.6 3.058-1.026 1.027-.423 1.9-1.01 2.617-1.76.456-.456.733-.93.83-1.42.066-.456-.072-.75-.415-.88-.342-.13-.693-.16-1.05-.1m4.89 5.236c.228.197.277.408.147.638-.13.227-.26.423-.39.585l-1.175 1.322-1.052 1.05c-.342.344-.71.693-1.1 1.052-.783.655-1.672 1.256-2.667 1.81-.994.556-2.028.768-3.105.637-.523-.065-.987-.236-1.394-.514-.407-.278-.725-.66-.953-1.15-.26-.553-.376-1.148-.343-1.785.033-.636.114-1.248.245-1.833.292-1.24.765-2.43 1.418-3.572.652-1.142 1.45-2.135 2.397-2.984.39-.358.815-.686 1.272-.98.456-.29.945-.488 1.467-.587.554-.1 1.117-.056 1.688.122.57.18.954.563 1.15 1.15.13.458.13.88 0 1.273-.13.39-.318.765-.563 1.124-.246.357-.54.685-.882.978-.342.292-.677.554-1.003.782-.554.36-1.125.662-1.71.904-.59.245-1.193.466-1.812.66-.195.067-.39.124-.587.172-.195.05-.39.106-.587.172l-.588.148c-.065 0-.114.006-.146.023-.033.017-.082.023-.147.023-.034 0-.05.035-.05.098 0 .067-.017.098-.05.098-.26.85-.39 1.665-.39 2.447.032.263.08.538.147.833.065.292.196.553.39.782.392.325.8.49 1.224.49.458.065.914.024 1.37-.124.457-.146.897-.317 1.32-.513.556-.326 1.094-.692 1.615-1.102.522-.404 1.028-.837 1.517-1.295.294-.26.58-.544.857-.856l.805-.904.88-1.076c.23-.295.49-.328.784-.1" fill="#947938"/><path d="M177.11 134.588c.36.164.457.41.296.734-.85 2.09-1.713 4.175-2.594 6.262-.88 2.087-1.793 4.157-2.74 6.213l-1.026 2.398-.88 2.004c-.23.522-.425 1.044-.588 1.565l-.49 1.566c-.162.652-.243 1.256-.243 1.81 0 .163.007.343.024.538.015.195.088.36.22.49.16.163.342.22.537.17.196-.048.392-.146.588-.292.195-.147.382-.302.562-.465.18-.163.318-.292.416-.39.456-.424.897-.873 1.32-1.347.424-.472.848-.953 1.272-1.442l1.76-2.15c.198-.23.425-.277.686-.15.262.132.36.345.294.637-.032.098-.097.195-.195.293-.1.1-.246.278-.44.538-.425.522-.874 1.07-1.347 1.64-.473.57-.92 1.085-1.345 1.542-.39.423-.8.847-1.223 1.27-.424.426-.88.768-1.37 1.027-.39.23-.807.343-1.247.343-.44 0-.824-.195-1.15-.587-.423-.52-.595-1.14-.513-1.858.08-.717.203-1.353.367-1.907-.098.164-.204.308-.318.44-.115.13-.237.277-.367.44-.457.555-.946 1.052-1.467 1.49-.523.442-1.11.826-1.76 1.15-.556.294-1.176.524-1.86.686-.686.164-1.338.082-1.957-.244-.522-.228-.89-.563-1.1-1.004-.213-.44-.327-.92-.343-1.443-.017-.52.04-1.043.17-1.565s.294-.995.49-1.42c.36-.75.783-1.45 1.272-2.102.49-.65 1.01-1.27 1.565-1.86.457-.488.955-.944 1.492-1.37.538-.422 1.1-.8 1.687-1.124.685-.392 1.41-.71 2.177-.954.766-.243 1.557-.35 2.373-.32.162 0 .3.01.415.026.114.018.236.042.367.074.195.033.325.116.39.244.066.132.08.26.05.392-.033.13-.107.244-.22.34-.115.1-.27.134-.465.1-.034 0-.066-.008-.098-.023-.033-.016-.082-.024-.147-.024-.653-.067-1.32-.016-2.006.146-.685.164-1.32.407-1.908.735-1.076.52-2.087 1.255-3.032 2.2-.555.588-1.085 1.208-1.59 1.86-.507.65-.938 1.352-1.297 2.102-.228.456-.408.952-.538 1.49-.13.538-.116 1.053.048 1.542.13.523.39.85.783.98.295.163.604.22.93.17.326-.05.653-.122.98-.22 1.27-.457 2.355-1.19 3.25-2.2.898-1.01 1.673-2.088 2.325-3.23.75-1.24 1.427-2.486 2.03-3.742.604-1.255 1.182-2.536 1.737-3.84.52-1.14 1.027-2.29 1.517-3.448.488-1.158.96-2.307 1.417-3.45l.88-2.103c.1-.23.228-.547.392-.957.162-.405.423-.544.78-.415M198.39 163.5c.098-.294.204-.58.32-.856.113-.277.234-.563.366-.856-.817.65-1.64 1.303-2.47 1.956-.833.653-1.624 1.353-2.373 2.103-.457.457-.898.954-1.32 1.493-.425.538-.768 1.116-1.028 1.737-.164.324-.294.692-.39 1.102-.1.404-.05.788.145 1.147.162.293.416.44.758.44s.644-.066.905-.194c.424-.133.83-.394 1.223-.784.456-.426.832-.89 1.125-1.395.295-.507.57-1.02.833-1.543.358-.717.692-1.434 1.002-2.152.31-.717.612-1.45.906-2.2m8.903-11.25c.13-.164.286-.238.466-.22.176.015.317.105.414.267.13.196.138.376.025.538-.116.164-.238.327-.37.49l-1.808 2.054-1.956 1.955c-.653.655-1.338 1.29-2.055 1.91l-.978.88c-.164.13-.277.293-.343.49-.067.194-.13.374-.196.538-.066.16-.13.324-.195.487-.067.164-.133.328-.197.49-.098.294-.205.586-.318.88-.115.295-.237.588-.368.88-.293.718-.586 1.428-.88 2.13-.294.7-.603 1.394-.93 2.078-.26.554-.554 1.102-.88 1.64-.326.538-.7 1.033-1.124 1.492-.36.423-.792.79-1.297 1.1-.506.31-1.052.48-1.64.513-.684.065-1.24-.14-1.662-.61-.424-.475-.636-1.054-.636-1.737.032-.947.318-1.835.856-2.667.54-.833 1.117-1.575 1.737-2.227.555-.586 1.134-1.14 1.737-1.662.604-.522 1.23-1.03 1.883-1.516l2.006-1.615.98-.882c.063-.064.137-.123.22-.17.08-.05.137-.106.17-.173l.147-.34c.488-1.24.978-2.464 1.467-3.67.49-1.206.995-2.43 1.517-3.67-.75 1.012-1.526 2-2.324 2.96-.8.963-1.67 1.852-2.617 2.667-.392.36-.824.685-1.297.977-.474.293-.987.49-1.542.588-.26.066-.52.066-.782 0-.262-.067-.49-.18-.685-.344-.195-.163-.334-.35-.414-.563-.082-.21-.123-.446-.123-.707-.033-.326-.016-.644.05-.953.064-.31.13-.63.195-.954l.782-2.35c.26-.684.522-1.376.783-2.077.26-.704.457-1.427.587-2.18.064-.226.105-.464.122-.708.017-.245-.024-.465-.122-.66-.097-.195-.245-.293-.44-.293s-.376.03-.54.097c-.227.097-.432.228-.61.39-.18.163-.367.327-.562.49-.23.262-.457.498-.685.71-.23.21-.44.447-.637.706l-1.956 2.3-.733.882c-.164.164-.36.244-.588.244-.23 0-.376-.13-.44-.393-.067-.195-.034-.358.097-.487.13-.133.245-.26.342-.394l.782-.928c.456-.522.897-1.035 1.32-1.542.424-.504.865-.985 1.322-1.442.358-.358.734-.71 1.125-1.052.39-.342.83-.562 1.32-.66.488-.097.944-.017 1.37.244.456.36.684.864.684 1.516.065.752-.025 1.5-.27 2.25-.244.752-.497 1.47-.758 2.152-.26.687-.52 1.38-.78 2.08-.264.702-.475 1.41-.638 2.128-.032.195-.058.416-.073.66-.016.247.024.45.122.61.098.134.244.19.44.174.196-.017.36-.04.49-.075.39-.128.758-.307 1.1-.537.342-.227.66-.472.954-.734.913-.815 1.754-1.695 2.52-2.64.765-.948 1.524-1.91 2.274-2.887.36-.522.718-1.035 1.077-1.542.36-.504.718-1.034 1.077-1.588.065-.13.14-.25.22-.368.082-.113.172-.236.27-.365.064-.132.138-.246.22-.344.08-.098.203-.148.366-.148.23-.032.385.05.465.246.08.195.09.39.025.586l-4.158 10.32c.945-.878 1.882-1.79 2.813-2.737.93-.946 1.817-1.94 2.665-2.983" fill="#947938"/><path d="M214.583 154.84c.52-.683.962-1.335 1.32-1.955.423-.686.767-1.41 1.027-2.177.262-.766.36-1.574.295-2.423-.033-.258-.08-.53-.148-.806-.065-.278-.228-.5-.488-.662-.23-.098-.46-.088-.687.025-.228.114-.423.253-.586.415-.457.49-.808 1.07-1.05 1.737-.248.67-.417 1.328-.517 1.982-.097.653-.105 1.337-.023 2.053.08.72.367 1.322.856 1.81m7.534-2.64c.26.26.293.522.098.783-.197.26-.376.472-.538.636l-1.322 1.32c-.36.324-.75.626-1.174.903-.422.278-.863.498-1.32.662-.26.066-.537.122-.832.17-.292.05-.587.042-.88-.022-.163-.034-.31-.058-.44-.076-.13-.017-.277-.057-.44-.12-.196-.066-.342-.132-.44-.2l-.44.442c-.522.555-1.094 1.052-1.714 1.49-.62.442-1.304.744-2.053.907-.685.164-1.344.13-1.98-.097-.638-.228-1.135-.67-1.493-1.322-.262-.52-.408-1.083-.44-1.687-.032-.603 0-1.182.098-1.736.228-1.205.644-2.356 1.247-3.45.603-1.09 1.33-2.078 2.177-2.957.49-.49 1.01-.964 1.564-1.42.13-.066.27-.163.416-.292.146-.132.3-.197.464-.197.36.065.54.262.54.587-.033.195-.115.343-.246.44l-.39.293c-.294.196-.555.41-.784.636-.555.458-1.044.947-1.467 1.468-.392.523-.75 1.053-1.077 1.59-.325.54-.604 1.12-.83 1.736-.197.49-.36.987-.49 1.494-.13.505-.18 1.035-.146 1.59.03.65.226 1.222.587 1.71.358.49.896.686 1.615.588.75-.1 1.46-.383 2.128-.856.667-.474 1.248-.986 1.737-1.54-.425-.393-.735-.857-.93-1.395-.195-.54-.31-1.102-.343-1.69-.034-.586 0-1.173.097-1.76.1-.59.23-1.142.392-1.665.164-.554.392-1.107.685-1.66.295-.555.687-1.012 1.176-1.37.52-.36 1.067-.497 1.638-.417.57.082 1.003.4 1.297.954.36.652.522 1.395.49 2.226-.033.83-.18 1.59-.44 2.275-.262.75-.596 1.482-1.003 2.2-.41.717-.856 1.388-1.345 2.006.52.196 1.034.243 1.54.146.505-.098.987-.294 1.443-.587.62-.425 1.174-.896 1.664-1.42l1.026-1.075c.098-.164.228-.287.392-.368.162-.08.325-.04.49.122" fill="#947938"/><path d="M238.356 152.25c.163-.164.335-.23.514-.197.178.033.318.13.416.294.097.227.05.472-.146.733-.165.164-.32.343-.467.538-.146.196-.3.375-.464.54-.425.455-.857.912-1.297 1.367-.44.457-.89.914-1.346 1.37-.39.393-.8.767-1.222 1.127-.425.358-.88.668-1.37.928-.196.098-.424.196-.685.294-.262.097-.52.156-.782.17-.26.017-.513-.014-.76-.096-.243-.082-.43-.252-.56-.515-.197-.357-.27-.757-.22-1.197.048-.44.12-.856.22-1.248.16-.717.382-1.42.66-2.104.276-.686.562-1.37.855-2.055-.718 1.01-1.467 1.997-2.25 2.96-.782.96-1.648 1.85-2.592 2.666-.457.36-.938.693-1.443 1-.506.312-1.036.5-1.59.564-.49.067-.93-.025-1.32-.267-.39-.246-.637-.63-.735-1.152-.064-.456-.048-.927.05-1.417.1-.49.227-.96.39-1.418.23-.717.49-1.427.785-2.13.292-.7.586-1.408.88-2.126l-1.175 1.514c-.163.164-.343.36-.538.59-.194.227-.424.26-.684.096-.26-.163-.335-.36-.22-.587.113-.228.25-.423.415-.586l.98-1.224c.52-.653 1.034-1.313 1.54-1.98.504-.67.986-1.33 1.442-1.982.066-.064.115-.146.147-.244.032-.1.08-.18.148-.243.227-.23.488-.23.78 0 .132.128.18.26.15.39-.034.13-.082.26-.15.392-.26.653-.53 1.32-.806 2.006-.277.684-.562 1.354-.856 2.006-.293.653-.58 1.305-.856 1.957-.277.652-.53 1.304-.76 1.956-.096.26-.185.536-.268.83-.08.294-.154.588-.22.882-.13.456-.146.847-.048 1.174.1.39.342.554.734.488.39-.064.717-.162.977-.292.358-.165.71-.375 1.052-.636.342-.262.66-.538.953-.833.816-.75 1.567-1.565 2.25-2.447.685-.88 1.354-1.775 2.007-2.69.554-.847 1.1-1.687 1.638-2.518.54-.83 1.052-1.67 1.542-2.52.162-.293.357-.44.587-.44.292 0 .47.147.537.44.032.098.024.204-.025.318-.05.115-.09.22-.123.32-.164.357-.32.724-.465 1.1-.146.375-.302.74-.464 1.1-.36.88-.717 1.752-1.075 2.617-.36.864-.702 1.72-1.028 2.568-.197.523-.384 1.037-.563 1.54-.18.508-.302 1.036-.367 1.592-.033.097-.048.237-.048.416 0 .18.047.302.145.366.097.066.22.082.366.05.15-.033.254-.066.32-.1l.54-.242c.553-.295 1.05-.645 1.49-1.052.44-.41.888-.824 1.346-1.25.554-.553 1.092-1.115 1.614-1.686.522-.57 1.026-1.165 1.516-1.785" fill="#947938"/><path d="M251.515 151.906c.13 0 .245.05.343.147.097.097.162.22.195.367.033.148-.016.286-.146.415l-.49.588-1.71 1.907c-.458.554-.932 1.093-1.42 1.615-.49.522-1.01 1.01-1.565 1.467-.36.294-.727.572-1.1.83-.376.263-.793.425-1.25.49-.358.034-.66-.015-.904-.147-.243-.13-.44-.318-.587-.562-.145-.243-.243-.514-.29-.807-.05-.292-.06-.586-.027-.88.13-.783.4-1.533.808-2.25.408-.717.823-1.402 1.248-2.056.228-.358.448-.716.66-1.075.212-.358.433-.735.66-1.124l.44-.88c.164-.326.23-.637.196-.93-.032-.162-.243-.235-.636-.22-.39.016-.653.024-.78.024-.33-.033-.63-.098-.906-.195-.28-.1-.482-.327-.613-.686-.556.685-1.118 1.344-1.687 1.98-.57.638-1.135 1.28-1.69 1.932l-.928.98c-.13.13-.262.23-.39.293-.13.064-.28.048-.44-.05-.198-.097-.296-.228-.296-.39 0-.164.066-.327.196-.49.13-.162.27-.32.415-.465l.368-.367c.49-.522.97-1.045 1.443-1.565.473-.52.94-1.06 1.395-1.615l1.565-1.91.734-.83c.164-.225.375-.284.635-.17.26.114.375.302.343.56-.033.165-.098.328-.195.492-.098.164-.18.325-.246.488-.033.097-.065.188-.098.27-.032.082-.048.17-.048.268-.033.132-.04.214-.026.246.018.032.107.065.27.097.325.032.643.032.955 0 .308-.033.61.016.904.147.358.13.602.34.733.636.13.292.163.604.097.928-.13.653-.39 1.307-.78 1.958-.197.39-.41.767-.637 1.126-.23.358-.458.717-.685 1.074-.36.59-.72 1.193-1.076 1.81-.36.62-.62 1.275-.783 1.957-.035.197-.042.44-.026.735.016.294.155.474.416.538.162.065.334.05.513-.05.18-.096.336-.178.466-.244.52-.324.993-.7 1.417-1.123.423-.424.848-.865 1.272-1.32l3.375-3.77c.13-.127.26-.193.39-.193M270.348 146.915c-.555.067-1.068.27-1.54.614-.474.34-.89.707-1.248 1.1-.88.976-1.632 2.134-2.25 3.47 1.01-.26 2.03-.6 3.057-1.026 1.028-.423 1.9-1.01 2.617-1.76.456-.456.735-.93.832-1.42.065-.456-.073-.75-.416-.88-.342-.13-.692-.16-1.052-.1m4.892 5.236c.23.197.278.408.147.638-.13.227-.262.423-.392.585l-1.174 1.322-1.05 1.05c-.343.344-.71.693-1.1 1.052-.783.655-1.672 1.256-2.667 1.81-.995.556-2.03.768-3.106.637-.523-.065-.987-.236-1.394-.514-.408-.278-.727-.66-.954-1.15-.262-.553-.377-1.148-.344-1.785.033-.636.113-1.248.246-1.833.292-1.24.765-2.43 1.418-3.572.65-1.142 1.45-2.135 2.396-2.984.392-.358.815-.686 1.273-.98.455-.29.944-.488 1.465-.587.556-.1 1.117-.056 1.688.122.57.18.954.563 1.15 1.15.13.458.13.88 0 1.273-.13.39-.32.765-.562 1.124-.243.357-.537.685-.88.978-.342.292-.677.554-1.003.782-.555.36-1.125.662-1.712.904-.586.245-1.19.466-1.81.66-.196.067-.39.124-.586.172-.198.05-.393.106-.588.172l-.587.148c-.066 0-.115.006-.148.023-.033.017-.082.023-.146.023-.032 0-.05.035-.05.098 0 .067-.016.098-.047.098-.26.85-.39 1.665-.39 2.447.032.263.08.538.145.833.066.292.196.553.392.782.39.325.8.49 1.222.49.457.065.912.024 1.37-.124.457-.146.897-.317 1.32-.513.554-.326 1.093-.692 1.615-1.102.52-.404 1.028-.837 1.517-1.295.293-.26.58-.544.856-.856.277-.31.546-.61.807-.904l.88-1.076c.228-.295.49-.328.783-.1" fill="#947938"/><path d="M304.2 152.004c.26.23.31.464.147.708-.163.246-.327.45-.49.614-.294.358-.586.724-.88 1.1-.293.376-.604.74-.928 1.1-.523.588-1.072 1.167-1.64 1.737-.572.57-1.2 1.05-1.885 1.443-.195.13-.432.244-.71.34-.276.1-.553.165-.83.198-.277.033-.54.018-.783-.05-.244-.065-.464-.21-.66-.44-.392-.423-.522-.953-.392-1.59.13-.635.277-1.182.44-1.638.262-.75.554-1.482.88-2.2.326-.717.638-1.435.93-2.153.13-.327.262-.645.392-.955.13-.31.244-.643.342-1.002.066-.228.13-.466.196-.71.065-.244.08-.496.05-.758-.034-.26-.132-.433-.295-.513-.164-.08-.35-.123-.562-.123-.213 0-.432.033-.66.098-.23.066-.408.13-.54.196-.553.262-1.05.57-1.49.928-.44.36-.874.734-1.298 1.127-.49.49-.953 1.002-1.393 1.54-.44.54-.874 1.086-1.297 1.64-.228.26-.44.538-.636.83l-.588.882-.538.83c-.098.164-.18.338-.244.515-.066.18-.13.367-.196.562-.13.36-.262.7-.39 1.028-.132.326-.28.65-.44.977-.1.164-.198.343-.296.538-.097.197-.228.36-.39.49-.294.26-.57.26-.832 0-.13-.13-.195-.27-.195-.416 0-.147.033-.302.098-.466.13-.455.326-.91.588-1.367l.537-1.028c.098-.163.203-.333.318-.514.115-.177.204-.365.27-.56.13-.358.252-.727.367-1.1.114-.376.22-.76.318-1.15.197-.686.367-1.395.514-2.128.145-.736.186-1.46.12-2.177-.033-.294-.105-.595-.22-.906-.113-.31-.35-.465-.708-.465-.23 0-.507.064-.832.195-.36.163-.702.376-1.028.637-.326.26-.62.538-.88.83-.783.784-1.49 1.63-2.13 2.544-.634.915-1.245 1.845-1.832 2.79l-1.614 2.787-.686 1.273c-.064.164-.138.34-.22.538-.082.195-.188.376-.318.538-.293.294-.587.294-.88 0-.13-.196-.13-.423 0-.685l.636-1.32c.326-.685.65-1.36.98-2.03.324-.667.635-1.345.927-2.03.228-.522.44-1.042.638-1.565.195-.52.357-1.06.487-1.615.1-.357.187-.782.27-1.27.08-.49-.024-.882-.32-1.177-.13-.128-.26-.177-.388-.144-.132.03-.262.08-.392.143-.262.133-.507.287-.734.467-.23.18-.458.365-.686.562-.26.262-.505.523-.733.782-.228.262-.474.52-.733.783l-1.712 1.957-.638.733c-.064.098-.138.19-.22.27-.08.08-.203.122-.366.122-.262-.034-.424-.163-.488-.393-.066-.226-.018-.423.146-.587l.44-.488 1.664-1.958c.456-.52.912-1.034 1.37-1.54.455-.506.977-.937 1.564-1.296.392-.294.824-.507 1.297-.636.473-.13.92 0 1.346.39.26.262.44.556.54.882.096.325.145.67.145 1.026 0 .36-.04.727-.122 1.1-.082.376-.172.71-.27 1.006.424-.59.857-1.16 1.298-1.713.44-.555.937-1.06 1.49-1.517.393-.358.817-.686 1.274-.98.457-.29.96-.47 1.516-.536.587-.032 1.068.138 1.442.512.375.376.612.84.71 1.395.13.717.146 1.435.05 2.152-.1.716-.23 1.418-.39 2.103.553-.75 1.147-1.49 1.783-2.227.637-.733 1.33-1.41 2.08-2.03.49-.423 1.02-.805 1.59-1.148.57-.343 1.182-.546 1.835-.612.293-.033.595-.024.905.023.31.05.58.173.808.367.194.196.332.416.415.662.08.242.122.496.122.757 0 .75-.146 1.49-.44 2.225l-.83 2.078c-.295.685-.59 1.363-.882 2.032-.295.667-.556 1.36-.783 2.077-.065.228-.14.465-.22.71-.082.244-.09.497-.025.757.032.228.13.36.294.392.162.032.34.032.538 0 .456-.098.886-.31 1.294-.637.408-.326.792-.652 1.15-.98.457-.455.898-.91 1.32-1.368.426-.456.85-.93 1.274-1.42l1.027-1.27c.13-.164.276-.318.44-.466.163-.147.358-.14.586.024" fill="#947938"/><path d="M310.657 154.84c.52-.683.96-1.335 1.32-1.955.423-.686.767-1.41 1.028-2.177.26-.766.358-1.574.294-2.423-.034-.258-.083-.53-.148-.806-.065-.278-.23-.5-.488-.662-.23-.098-.46-.088-.687.025-.228.114-.423.253-.587.415-.456.49-.807 1.07-1.05 1.737-.246.67-.417 1.328-.515 1.982-.098.653-.106 1.337-.024 2.053.08.72.368 1.322.857 1.81m7.534-2.64c.26.26.294.522.1.783-.198.26-.377.472-.54.636l-1.32 1.32c-.36.324-.752.626-1.175.903-.423.278-.864.498-1.32.662-.26.066-.54.122-.833.17-.292.05-.586.042-.88-.022-.163-.034-.31-.058-.44-.076-.13-.017-.277-.057-.44-.12-.196-.066-.342-.132-.44-.2l-.44.442c-.522.555-1.094 1.052-1.714 1.49-.62.442-1.304.744-2.053.907-.686.164-1.345.13-1.98-.097-.64-.228-1.136-.67-1.494-1.322-.26-.52-.407-1.083-.438-1.687-.034-.603 0-1.182.097-1.736.227-1.205.643-2.356 1.247-3.45.603-1.09 1.328-2.078 2.177-2.957.488-.49 1.01-.964 1.565-1.42.128-.066.268-.163.414-.292.147-.132.3-.197.464-.197.36.065.54.262.54.587-.033.195-.115.343-.245.44l-.392.293c-.292.196-.553.41-.78.636-.557.458-1.046.947-1.47 1.468-.39.523-.75 1.053-1.075 1.59-.326.54-.604 1.12-.83 1.736-.198.49-.362.987-.49 1.494-.13.505-.18 1.035-.147 1.59.032.65.227 1.222.587 1.71.357.49.895.686 1.614.588.748-.1 1.458-.383 2.127-.856.667-.474 1.248-.986 1.736-1.54-.424-.393-.734-.857-.93-1.395-.194-.54-.31-1.102-.342-1.69-.032-.586 0-1.173.098-1.76.1-.59.228-1.142.392-1.665.164-.554.392-1.107.685-1.66.293-.555.686-1.012 1.175-1.37.52-.36 1.067-.497 1.638-.417.57.082 1.003.4 1.296.954.36.652.522 1.395.49 2.226-.033.83-.18 1.59-.44 2.275-.26.75-.595 1.482-1.003 2.2-.408.717-.855 1.388-1.344 2.006.52.196 1.034.243 1.54.146.505-.098.987-.294 1.443-.587.62-.425 1.173-.896 1.663-1.42l1.027-1.075c.097-.164.23-.287.392-.368.162-.08.326-.04.49.122" fill="#947938"/><path d="M328.633 152.077c.213.05.35.172.417.367.065.165 0 .375-.197.636-.163.163-.318.343-.464.54-.147.194-.303.373-.466.537-.555.65-1.1 1.312-1.64 1.98-.537.67-1.148 1.28-1.833 1.834-.49.394-1.043.712-1.663.956-.62.244-1.256.27-1.907.074-.49-.13-.865-.384-1.125-.76-.26-.373-.425-.788-.49-1.246-.065-.49-.08-.98-.048-1.47.032-.486.098-.96.195-1.418.164-.75.343-1.482.538-2.2.196-.717.423-1.435.685-2.152-.326.456-.652.922-.977 1.394-.328.472-.67.938-1.028 1.394-.13.164-.286.334-.466.513-.18.18-.382.172-.61-.025-.26-.16-.328-.358-.197-.586.13-.228.277-.424.44-.587.654-.88 1.28-1.77 1.884-2.667.604-.896 1.183-1.817 1.738-2.763h-2.2c-.23 0-.4-.08-.516-.245-.114-.162-.12-.343-.023-.538.063-.162.17-.252.316-.268.147-.017.3-.025.465-.025h2.594l.49-1.026c.456-.913.886-1.843 1.296-2.79.407-.944.807-1.89 1.198-2.835.098-.263.286-.376.563-.345.278.034.432.196.465.49.033.163.008.325-.073.49-.08.163-.155.31-.22.44l-.734 1.858c-.262.62-.514 1.232-.76 1.835-.243.602-.496 1.232-.756 1.883h3.375c.195 0 .44-.006.734-.024.294-.015.49.092.588.318.098.195.08.376-.05.538-.13.164-.293.245-.488.245h-4.6c-.065 0-.138.14-.22.416-.08.277-.138.448-.17.513l-.392 1.03-.782 2.15c-.228.653-.433 1.314-.612 1.98-.18.67-.333 1.347-.464 2.03-.067.46-.123.93-.17 1.42-.05.49.024.947.22 1.37.13.326.324.53.585.61.262.083.538.1.833.05.293-.05.587-.14.88-.27.293-.13.538-.274.734-.438.652-.457 1.238-.995 1.76-1.614.522-.62 1.044-1.256 1.567-1.91l1.27-1.515c.13-.164.3-.22.513-.173" fill="#947938"/><path d="M336.093 139.53c-.26-.13-.408-.344-.44-.637-.034-.292.017-.562.147-.807.13-.244.318-.432.562-.562.245-.13.497-.13.76 0 .26.164.406.385.44.662.03.276-.018.538-.147.78-.132.246-.32.434-.563.563-.245.132-.497.132-.76 0m1.175 12.67c.197.163.253.334.17.512-.08.18-.17.352-.268.515l-.882.98c-.423.488-.848.976-1.27 1.466-.425.488-.866.962-1.32 1.42-.362.358-.72.692-1.078 1-.358.312-.75.597-1.173.857-.295.163-.63.31-1.005.44-.374.132-.725.115-1.05-.05-.26-.13-.44-.317-.54-.56-.096-.245-.162-.498-.194-.76-.066-.552-.033-1.09.098-1.613.13-.522.277-1.028.44-1.517.26-.75.545-1.483.856-2.202.31-.715.644-1.45 1.003-2.2l-2.202 2.592c-.26.293-.53.334-.807.124-.277-.214-.287-.498-.024-.857l.734-.88 3.326-3.817 1.076-1.273c.163-.226.36-.323.588-.292.16.066.284.163.366.292.082.133.09.28.025.44-.033.098-.074.197-.122.296-.05.097-.107.196-.172.294-.555 1.042-1.084 2.086-1.59 3.13s-.986 2.118-1.442 3.228c-.196.458-.375.922-.537 1.394-.164.473-.31.954-.44 1.442-.098.425-.13.815-.098 1.174 0 .066.006.18.023.343.016.162.074.244.172.244.13.032.27.016.415-.05.146-.065.27-.13.367-.195.392-.23.783-.506 1.175-.832.39-.36.757-.717 1.1-1.076.343-.36.692-.718 1.05-1.076.654-.718 1.274-1.435 1.86-2.153.163-.164.367-.392.61-.686.247-.293.5-.324.76-.098" fill="#947938"/><path d="M343.822 154.84c.52-.683.962-1.335 1.32-1.955.423-.686.767-1.41 1.028-2.177.26-.766.36-1.574.294-2.423-.033-.258-.082-.53-.147-.806-.065-.278-.23-.5-.49-.662-.23-.098-.457-.088-.685.025-.228.114-.423.253-.586.415-.457.49-.808 1.07-1.052 1.737-.246.67-.415 1.328-.514 1.982-.098.653-.106 1.337-.024 2.053.08.72.367 1.322.856 1.81m7.534-2.64c.26.26.293.522.098.783-.197.26-.376.472-.54.636l-1.32 1.32c-.36.324-.75.626-1.174.903-.423.278-.864.498-1.32.662-.26.066-.538.122-.833.17-.293.05-.586.042-.88-.022-.163-.034-.31-.058-.44-.076-.13-.017-.277-.057-.44-.12-.196-.066-.342-.132-.44-.2l-.44.442c-.522.555-1.094 1.052-1.714 1.49-.62.442-1.304.744-2.053.907-.686.164-1.345.13-1.98-.097-.64-.228-1.136-.67-1.494-1.322-.26-.52-.408-1.083-.44-1.687-.033-.603 0-1.182.098-1.736.23-1.205.644-2.356 1.248-3.45.602-1.09 1.328-2.078 2.176-2.957.49-.49 1.01-.964 1.566-1.42.13-.066.27-.163.416-.292.146-.132.3-.197.464-.197.358.065.538.262.538.587-.032.195-.114.343-.244.44-.13.098-.26.196-.392.293-.292.196-.554.41-.782.636-.556.458-1.045.947-1.468 1.468-.392.523-.75 1.053-1.076 1.59-.326.54-.605 1.12-.83 1.736-.198.49-.362.987-.49 1.494-.13.505-.18 1.035-.147 1.59.03.65.227 1.222.587 1.71.358.49.895.686 1.614.588.75-.1 1.46-.383 2.128-.856.667-.474 1.247-.986 1.737-1.54-.426-.393-.735-.857-.93-1.395-.196-.54-.31-1.102-.344-1.69-.033-.586 0-1.173.098-1.76.1-.59.228-1.142.39-1.665.165-.554.393-1.107.686-1.66.294-.555.686-1.012 1.175-1.37.52-.36 1.068-.497 1.64-.417.568.082 1 .4 1.295.954.36.652.52 1.395.49 2.226-.034.83-.18 1.59-.442 2.275-.26.75-.594 1.482-1.002 2.2-.41.717-.856 1.388-1.345 2.006.522.196 1.035.243 1.54.146.506-.098.988-.294 1.444-.587.62-.425 1.174-.896 1.664-1.42l1.027-1.075c.098-.164.228-.287.392-.368.162-.08.325-.04.49.122" fill="#947938"/><path d="M371.46 152.15c.163-.162.35-.228.563-.195.21.033.35.162.415.392.032.164.016.285-.05.365-.064.082-.13.174-.194.27-.066.164-.163.32-.294.465-.13.146-.244.285-.342.416-.36.457-.734.93-1.126 1.418-.39.49-.8.947-1.223 1.372-.457.456-.954.913-1.493 1.37-.537.456-1.133.8-1.786 1.026-.52.163-1.057.204-1.612.122-.555-.08-.914-.43-1.077-1.05-.064-.263-.08-.53-.048-.808.033-.277.082-.546.148-.808.064-.358.162-.71.293-1.05.13-.344.277-.693.44-1.053.293-.715.595-1.425.905-2.127.31-.7.595-1.412.856-2.13.262-.65.44-1.237.538-1.758.033-.163.057-.343.074-.538.016-.197-.04-.374-.17-.538-.165-.165-.368-.237-.614-.22-.243.014-.448.055-.61.12-.197.033-.392.09-.587.17-.196.083-.376.173-.54.27-.946.49-1.777 1.134-2.494 1.932-.716.8-1.385 1.623-2.003 2.47-.62.85-1.207 1.705-1.762 2.57-.555.863-1.093 1.753-1.615 2.666-.164.26-.318.538-.464.83-.147.294-.318.572-.513.832-.067.132-.18.23-.344.294-.164.066-.326.066-.49 0-.325-.13-.407-.36-.243-.685l.39-.88c.424-.85.84-1.69 1.247-2.52.408-.833.79-1.672 1.15-2.52.196-.49.39-.985.588-1.492.194-.507.36-1.035.49-1.59.096-.393.146-.798.146-1.224.03-.16.03-.333 0-.512-.034-.18-.13-.318-.295-.416-.163-.066-.326-.074-.488-.025-.163.05-.327.108-.49.173-.424.294-.85.62-1.272.977-.554.49-1.084 1.013-1.59 1.567s-.986 1.108-1.442 1.662l-.732.977c-.1.132-.205.238-.32.318-.114.082-.25.09-.415.025-.164-.065-.277-.17-.342-.317-.065-.15-.048-.287.05-.416.032-.066.065-.123.097-.173.032-.047.065-.104.098-.17l1.47-1.86c.357-.39.714-.774 1.074-1.148.357-.375.733-.742 1.125-1.102.36-.324.716-.62 1.076-.88.358-.26.766-.473 1.224-.637.456-.162.897-.144 1.32.05.423.195.717.555.88 1.077.066.293.1.595.1.904 0 .31-.034.613-.1.905-.066.39-.155.784-.268 1.174-.115.392-.254.784-.415 1.174.587-.78 1.174-1.516 1.762-2.2.488-.554 1.01-1.075 1.565-1.566.554-.488 1.156-.912 1.81-1.272.456-.26 1.017-.456 1.686-.586.67-.13 1.248 0 1.737.392.228.194.393.43.49.708.098.278.138.573.122.88-.017.312-.065.62-.147.93-.083.31-.155.58-.22.808-.262.782-.555 1.54-.88 2.275-.326.733-.653 1.475-.98 2.224-.13.328-.26.645-.39.954-.13.312-.245.645-.343 1.004-.065.227-.14.464-.22.708-.082.245-.107.497-.073.76.03.26.137.407.317.44.18.032.383.024.61-.026.23-.048.458-.123.686-.22.228-.098.392-.178.49-.245.52-.327.993-.693 1.418-1.1.425-.41.848-.84 1.273-1.297.392-.456.8-.97 1.223-1.542.423-.57.814-1.08 1.173-1.54" fill="#947938"/><path d="M383.2 152.297c.227-.293.488-.334.78-.123.296.214.344.466.15.76-.197.26-.385.505-.564.733-.18.228-.384.474-.61.734-.458.523-.93 1.02-1.42 1.494-.49.472-1.01.92-1.566 1.344-1.075.85-2.29 1.526-3.644 2.03-1.353.506-2.732.596-4.134.27-.684-.163-1.33-.415-1.932-.76-.604-.34-1.165-.756-1.687-1.246-.13-.1-.27-.22-.416-.366-.146-.148-.237-.303-.27-.467 0-.163.043-.3.124-.416.082-.114.205-.17.366-.17.197-.033.36.024.49.17.13.148.26.287.392.415.26.26.538.49.83.686.588.423 1.192.733 1.812.928.162.066.333.114.513.148.18.03.35.066.513.097.163.03.32.056.466.072.146.017.3.01.464-.024.456-.1.823-.3 1.1-.612.277-.308.497-.676.66-1.1.197-.555.318-1.125.367-1.713.05-.586.074-1.174.074-1.76 0-.783-.033-1.573-.097-2.372-.067-.8-.067-1.606 0-2.42-.98 1.206-1.974 2.347-2.984 3.423l-.88.93c-.067.098-.173.154-.32.17-.146.017-.268-.024-.365-.123-.163-.13-.237-.268-.22-.416.015-.146.073-.292.17-.44.1-.145.213-.275.344-.39.13-.113.245-.22.342-.318.75-.848 1.484-1.704 2.202-2.568.715-.864 1.45-1.72 2.2-2.568l.588-.686c.228-.26.472-.293.733-.098.26.195.325.425.196.687-.067.163-.164.302-.295.415-.13.114-.227.25-.293.416-.13.292-.212.604-.244.928-.033.327-.066.67-.097 1.03-.033.814-.017 1.63.05 2.444.063.816.08 1.63.047 2.446 0 .685-.048 1.394-.146 2.127-.097.733-.327 1.41-.685 2.03.783-.294 1.516-.676 2.2-1.15.686-.472 1.338-.985 1.958-1.54 1.076-.98 1.99-2.007 2.74-3.083" fill="#947938"/></svg>