<svg xmlns="http://www.w3.org/2000/svg" width="400" height="97.577"><path d="M.705 81.315c-.47 0-.705-.118-.705-.353 1.177-1.416 2.61-3.32 4.3-5.716 1.69-2.397 3.516-5.166 5.48-8.308 1.805-2.907 3.653-5.97 5.537-9.192 1.887-3.222 3.752-6.483 5.6-9.783 1.844-3.3 3.593-6.557 5.244-9.78 1.65-3.22 3.18-6.285 4.597-9.192 0-.077.017-.136.06-.176.038-.04.057-.098.057-.176 0-.237-.195-.354-.59-.354-2.12 0-4.284.117-6.48.354-2.2.235-4.204.353-6.012.353-.866 0-1.294-.236-1.294-.706 0-.078.077-.296.235-.65.155-.353.333-.707.53-1.06.197-.354.413-.665.648-.942.236-.274.433-.413.59-.413 0 .63.393 1.06 1.178 1.295.63.16 1.57.296 2.83.412 1.253.12 2.357.218 3.3.295.39 0 .842.02 1.354.06.51.04 1.078.058 1.707.058 2.436 0 4.716-.038 6.835-.118 2.123-.077 4.753-.235 7.895-.47.237.393.196.747-.115 1.06-.394 0-1.084.02-2.064.06-.98.04-1.824.097-2.533.175-.55 0-1.02.316-1.414.944-2.043 3.223-4.224 6.757-6.54 10.606-2.318 3.85-4.933 8.212-7.836 13.08-.315.552-.374.886-.177 1.005.195.117.49.02.883-.295 4.086-2.435 8.09-4.89 12.02-7.366 3.928-2.476 7.543-4.81 10.844-7.015.783-.47 2.196-1.39 4.24-2.767l6.305-4.242c2.16-1.453 4.126-2.77 5.892-3.95 1.77-1.178 2.808-1.803 3.125-1.885h.47c.39.238.844.435 1.354.59.51.16 1.042.315 1.592.472.076.237.038.433-.117.59-.553.157-1.38.51-2.475 1.06-1.1.55-2.653 1.377-4.658 2.476-2.003 1.1-4.497 2.532-7.482 4.302-2.987 1.767-6.64 3.988-10.96 6.658-2.356 1.492-4.83 3.084-7.423 4.772-2.593 1.69-5.148 3.438-7.663 5.244-.314.237-.47.472-.47.707 3.22 4.322 6.99 9.134 11.312 14.437 4.32 5.304 9.822 11.06 16.5 17.265 2.434 2.278 4.633 4.163 6.598 5.657 1.963 1.49 3.868 2.67 5.716 3.533 1.846.865 3.654 1.492 5.422 1.886 1.768.393 3.713.59 5.832.59 3.223 0 6.343-.413 9.37-1.24 3.022-.825 5.478-1.904 7.366-3.24.627-.394.942-.316.942.235 0 .157-.158.353-.472.59-2.2 1.415-5.05 2.573-8.543 3.477-3.497.902-7.13 1.355-10.902 1.355-2.354 0-4.87-.277-7.54-.824-2.672-.55-5.5-1.533-8.486-2.947-2.987-1.414-6.088-3.358-9.31-5.833-3.22-2.476-6.56-5.64-10.017-9.486-3.222-3.614-6.522-7.465-9.9-11.55-3.376-4.085-6.522-8.092-9.425-12.02-.237-.393-.412-.57-.533-.53-.117.04-.373.335-.765.882-2.278 3.77-4.36 7.366-6.248 10.783-1.884 3.417-3.77 6.817-5.655 10.194-.315.472-.57 1-.766 1.59-.197.59-.336 1.043-.413 1.355-.393-.078-.806-.138-1.236-.176-.434-.042-.81-.06-1.12-.06-1.1 0-2.163.276-3.182.826-1.023.55-1.768 1.06-2.24 1.533" fill="#960154"/><path d="M92.27 64.815c-1.336 1.887-2.907 3.872-4.713 5.952-1.808 2.083-3.694 3.988-5.657 5.716-1.963 1.727-3.967 3.162-6.008 4.3-2.045 1.14-3.97 1.71-5.776 1.71-1.337 0-2.377-.355-3.124-1.06-.748-.708-1.12-1.81-1.12-3.3 0-.708.097-1.51.296-2.417.195-.902.53-1.903 1-3.004-.47.55-1 1.198-1.59 1.944-.59.747-1.256 1.454-2.003 2.12-.746.668-1.57 1.218-2.475 1.65-.902.434-1.906.65-3.004.65-.866 0-1.57-.254-2.122-.766-.55-.51-.825-1.315-.825-2.418 0-.627.134-1.412.41-2.356.277-.942.785-2.22 1.534-3.83.745-1.61 1.768-3.612 3.064-6.01 1.295-2.395 2.966-5.36 5.01-8.897.39-.786.744-1.18 1.06-1.18.548 0 1.12.337 1.708 1.002.588.668.883 1.12.883 1.355 0 .237-.236.707-.708 1.416-1.258 1.884-2.435 3.768-3.534 5.655-1.1 1.886-2.062 3.654-2.89 5.305-.823 1.647-1.49 3.12-2.002 4.418-.51 1.297-.765 2.298-.765 3.005 0 1.178.43 1.768 1.297 1.768.785 0 1.865-.607 3.24-1.827 1.375-1.217 3.005-3.28 4.89-6.186.71-1.256 1.433-2.572 2.18-3.948.747-1.372 1.476-2.69 2.183-3.95.707-1.254 1.372-2.414 2-3.475.63-1.06 1.1-1.865 1.417-2.416.392-.547.707-.824.942-.824.312 0 .666.336 1.06 1.003.39.666.588 1.473.588 2.415 0 .63-.158 1.217-.472 1.766-.942 1.415-1.942 2.812-3.002 4.186-1.063 1.374-2.045 2.81-2.947 4.3-.904 1.493-1.67 3.065-2.297 4.715-.63 1.652-.944 3.46-.944 5.422 0 1.726.823 2.594 2.475 2.594 1.1 0 2.416-.415 3.95-1.24 1.532-.824 3.2-1.982 5.006-3.475 1.806-1.49 3.673-3.3 5.598-5.42 1.926-2.122 3.753-4.438 5.48-6.953.47-.157.706.04.706.588" fill="#960154"/><path d="M139.998 2.12c0 1.102-.432 2.71-1.296 4.834-.864 2.12-2.102 4.576-3.713 7.366-1.61 2.788-3.577 5.773-5.893 8.953-2.318 3.184-4.95 6.347-7.895 9.487-2.947 3.144-6.188 6.148-9.722 9.017-3.535 2.868-7.308 5.402-11.313 7.6-.708 1.257-1.69 2.947-2.945 5.068-1.26 2.12-2.496 4.36-3.714 6.718-1.22 2.356-2.28 4.674-3.182 6.952-.902 2.28-1.356 4.203-1.356 5.776 0 2.516 1.14 3.77 3.418 3.77 1.965 0 4.008-.547 6.127-1.648 2.124-1.1 4.144-2.435 6.07-4.008 1.925-1.57 3.73-3.24 5.422-5.01 1.687-1.766 3.123-3.356 4.3-4.773.548-.545.866-.683.944-.41.077.278-.04.572-.353.883-1.414 1.73-3.084 3.576-5.01 5.54-1.923 1.965-3.966 3.77-6.128 5.42-2.16 1.65-4.42 3.028-6.775 4.125-2.357 1.102-4.715 1.65-7.07 1.65-2.046 0-3.518-.488-4.42-1.473-.904-.982-1.357-2.178-1.357-3.594 0-1.414.608-3.435 1.827-6.07 1.22-2.63 2.653-5.4 4.302-8.305 1.65-2.908 3.3-5.658 4.95-8.252 1.65-2.59 2.867-4.554 3.652-5.892 1.335-2.277 2.73-4.652 4.182-7.13 1.455-2.472 2.888-4.887 4.302-7.246 1.414-2.356 2.77-4.615 4.065-6.776 1.297-2.158 2.495-4.065 3.594-5.715 1.334-2.043 2.712-3.967 4.124-5.773 1.416-1.808 3.222-3.614 5.424-5.424 2.983-2.513 5.73-4.435 8.248-5.773C135.323.67 137.013 0 137.876 0c.63 0 1.14.176 1.533.53.393.355.588.884.588 1.59m-5.302 3.065c0-1.256-.512-1.886-1.532-1.886-.394 0-.826.117-1.296.352-.472.237-1.082.728-1.827 1.474-.746.747-1.65 1.788-2.71 3.124s-2.415 3.064-4.066 5.185c-.63.864-1.513 2.12-2.65 3.77-1.142 1.65-2.596 3.83-4.362 6.54-1.767 2.712-3.89 6.05-6.364 10.018-2.473 3.968-5.402 8.66-8.78 14.08 4.715-2.67 9.134-5.91 13.258-9.72 4.126-3.81 7.68-7.72 10.664-11.725 2.987-4.008 5.343-7.897 7.073-11.667 1.728-3.77 2.593-6.954 2.593-9.545" fill="#960154"/><path d="M133.164 35.943c-.63.16-1.338.453-2.12.883-.79.434-1.377.964-1.77 1.592-1.81 2.515-3.555 5.145-5.243 7.897-1.69 2.75-3.32 5.498-4.89 8.248h14.613c.237.16.35.316.35.47 0 .16-.077.278-.234.354-.63 0-1.574.02-2.827.06-1.26.04-2.634.1-4.126.175-1.495.082-3.026.16-4.596.237-1.57.08-2.946.158-4.124.234-2.2 3.93-3.89 7.27-5.066 10.018-1.18 2.75-1.768 5.147-1.768 7.188 0 2.83 1.296 4.244 3.888 4.244 1.255 0 2.69-.334 4.3-1 1.612-.668 3.32-1.55 5.13-2.654.234-.237.47-.216.706.06.235.275.157.49-.235.647-2.673 1.73-5.148 2.985-7.424 3.77-2.28.786-4.596 1.178-6.954 1.178-1.258 0-2.357-.373-3.3-1.12-.943-.743-1.415-2.02-1.415-3.828 0-1.573.71-3.89 2.123-6.952 1.415-3.066 3.494-6.836 6.246-11.316-.944.08-2.102.177-3.476.295-1.378.117-2.183.176-2.418.176-.394 0-.59-.154-.59-.47.315-.548.825-1.098 1.532-1.648l6.012-.12c.708-1.178 1.49-2.493 2.355-3.947.87-1.453 1.73-2.905 2.594-4.36.866-1.454 1.75-2.866 2.653-4.244.902-1.37 1.708-2.648 2.416-3.827.863-.393 2.062-.904 3.594-1.532 1.533-.626 2.888-1.14 4.067-1.532.155 0 .275.1.354.294.076.197-.042.375-.354.53" fill="#960154"/><path d="M162.74 64.815c-1.334 1.887-2.905 3.872-4.71 5.952-1.81 2.083-3.696 3.988-5.658 5.716-1.965 1.727-3.968 3.162-6.01 4.3-2.044 1.14-3.968 1.71-5.774 1.71-1.338 0-2.377-.355-3.125-1.06-.747-.708-1.12-1.81-1.12-3.3 0-.708.098-1.51.297-2.417.195-.902.53-1.903 1-3.004-.47.55-1 1.198-1.59 1.944-.59.747-1.256 1.454-2.004 2.12-.745.668-1.573 1.218-2.475 1.65-.903.434-1.904.65-3.005.65-.864 0-1.57-.254-2.12-.766-.55-.51-.825-1.315-.825-2.418 0-.627.136-1.412.413-2.356.275-.942.784-2.22 1.533-3.83.745-1.61 1.768-3.612 3.063-6.01 1.295-2.395 2.963-5.36 5.006-8.897.394-.786.748-1.18 1.06-1.18.55 0 1.12.337 1.71 1.002.59.668.884 1.12.884 1.355 0 .237-.235.707-.707 1.416-1.257 1.884-2.436 3.768-3.533 5.655-1.1 1.886-2.064 3.654-2.89 5.305-.824 1.647-1.493 3.12-2.003 4.418-.51 1.297-.764 2.298-.764 3.005 0 1.178.428 1.768 1.296 1.768.784 0 1.864-.607 3.24-1.827 1.374-1.217 3.002-3.28 4.888-6.186.71-1.256 1.434-2.572 2.18-3.948.748-1.372 1.474-2.69 2.183-3.95.708-1.254 1.373-2.414 2.002-3.475.63-1.06 1.1-1.865 1.416-2.416.392-.547.706-.824.943-.824.314 0 .668.336 1.06 1.003.393.666.59 1.473.59 2.415 0 .63-.16 1.217-.472 1.766-.942 1.415-1.942 2.812-3.004 4.186-1.06 1.374-2.043 2.81-2.945 4.3-.907 1.493-1.672 3.065-2.3 4.715-.63 1.652-.943 3.46-.943 5.422 0 1.726.824 2.594 2.473 2.594 1.1 0 2.416-.415 3.95-1.24 1.53-.824 3.202-1.982 5.008-3.475 1.806-1.49 3.673-3.3 5.597-5.42 1.927-2.122 3.754-4.438 5.48-6.953.47-.157.706.04.706.588" fill="#960154"/><path d="M180.77 54.916c-.47.55-.96 1.22-1.474 2.003-.51.786-.844 1.375-1 1.767-.08.235-.234.353-.47.353-.08 0-.2-.118-.357-.353-.157-.235-.373-.49-.647-.766-.277-.273-.647-.53-1.12-.766-.47-.235-1.138-.353-2.004-.353-1.022 0-2.16.354-3.416 1.063-1.26.705-2.36 1.493-3.3 2.357-1.495 1.257-2.812 2.63-3.95 4.126-1.14 1.492-2.218 3.044-3.24 4.653-1.02 1.61-2 3.26-2.947 4.95-.942 1.69-1.965 3.397-3.062 5.126-.08.235-.315.354-.71.354-.155 0-.49-.237-1-.707-.51-.472-.767-.826-.767-1.06 0-.473.276-1.18.826-2.124 1.256-2.2 2.534-4.42 3.832-6.66 1.294-2.24 2.51-4.338 3.652-6.304 1.137-1.963 2.138-3.67 3.006-5.126.862-1.452 1.452-2.534 1.768-3.24.39-.708.663-1.06.823-1.06.157 0 .547.195 1.18.587.626.394.942.944.942 1.65 0 .236-.14.63-.413 1.18-.277.55-.59 1.118-.942 1.707-.356.59-.69 1.162-1.003 1.71-.315.55-.552.943-.71 1.178-.234.395-.274.59-.115.59.157 0 .35-.118.588-.353.784-.787 1.75-1.652 2.888-2.595 1.14-.942 2.338-1.825 3.596-2.652 1.255-.824 2.494-1.512 3.71-2.06 1.22-.55 2.298-.826 3.242-.826.708 0 1.315.176 1.827.53.51.353.765.728.765 1.12M214.59 62.813c-1.81 2.2-3.79 4.42-5.95 6.658-2.16 2.24-4.344 4.264-6.542 6.07-2.197 1.806-4.38 3.26-6.54 4.36-2.16 1.1-4.147 1.65-5.95 1.65-1.572 0-2.672-.395-3.3-1.178-.63-.788-.943-1.768-.943-2.947 0-1.1.332-2.57 1.003-4.42.665-1.845 1.668-3.83 3.004-5.952-1.022 1.338-2.2 2.754-3.537 4.245-1.336 1.492-2.708 2.847-4.122 4.065-1.415 1.22-2.83 2.24-4.245 3.063-1.412.826-2.67 1.24-3.77 1.24-1.65 0-2.473-.827-2.473-2.476 0-1.806.707-4.084 2.12-6.836 1.413-2.748 3.317-5.4 5.715-7.954 2.397-2.552 5.128-4.753 8.19-6.6 3.064-1.843 6.248-2.77 9.547-2.77.394-.784.743-1.334 1.06-1.648.312-.315.627-.55.943-.71l3.298-.94.237.118c-.393.393-.764.884-1.122 1.47-.35.59-.726 1.2-1.118 1.828.392 0 .98.042 1.77.12.782.077 1.372.157 1.766.234.393.158.588.353.588.59 0 .235-.117.354-.354.354-.468-.157-1.177-.274-2.117-.354-.944-.078-1.652-.118-2.124-.118-3.613 6.364-6.262 11.413-7.954 15.143-1.692 3.733-2.535 6.502-2.535 8.308 0 .707.18 1.297.532 1.768.35.472 1.08.707 2.18.707 1.256 0 2.748-.453 4.48-1.355 1.724-.902 3.574-2.16 5.538-3.773 1.957-1.61 3.987-3.474 6.068-5.596 2.08-2.123 4.067-4.36 5.95-6.717.154-.238.313-.295.47-.18.158.12.236.296.236.533m-18.384-8.958c-2.67 0-5.223.944-7.66 2.83-2.434 1.883-4.595 4.106-6.48 6.657-1.886 2.555-3.4 5.087-4.537 7.602-1.14 2.515-1.71 4.36-1.71 5.54 0 .627.236.94.708.94.47 0 1.196-.313 2.18-.94.98-.63 2.1-1.475 3.358-2.536 1.256-1.062 2.534-2.297 3.828-3.71 1.298-1.415 2.496-2.948 3.595-4.597 1.256-1.885 2.476-3.888 3.65-6.01 1.182-2.12 2.24-4.007 3.187-5.656l-.12-.12z" fill="#960154"/><path d="M271.185 44.558c-.348-.053-.677-.076-.986-.076h-1.96c-.31 0-.638.023-.982.076-.174-.57-.407-1.255-.702-2.058-.296-.803-.625-1.642-.986-2.52-.355-.874-.718-1.763-1.09-2.665-.37-.902-.716-1.76-1.035-2.572-.793-.027-1.596-.042-2.41-.055-.812-.014-1.628-.02-2.444-.02-.764 0-1.52.006-2.26.02-.736.013-1.494.028-2.255.055-.793 1.923-1.506 3.76-2.152 5.498-.64 1.744-1.124 3.18-1.443 4.318-.422-.053-.877-.076-1.372-.076-.495 0-.95.023-1.368.076 2-4.32 3.95-8.62 5.85-12.89 1.905-4.27 3.818-8.617 5.742-13.04h.704c.598 1.434 1.232 2.984 1.926 4.65.69 1.667 1.39 3.352 2.108 5.057.717 1.703 1.433 3.392 2.15 5.072.717 1.682 1.387 3.243 2.02 4.686.63 1.445 1.196 2.737 1.703 3.87.506 1.14.92 2 1.242 2.595m-16.407-11.522c.64 0 1.31.014 2 .04.69.023 1.358.037 1.998.037.69 0 1.38-.008 2.076-.02.69-.01 1.38-.03 2.077-.057l-4.116-9.404-4.036 9.404zM272.797 30.39c-.042-1.223-.12-2.364-.244-3.426.688.124 1.248.183 1.67.183.2 0 .41-.015.646-.05.234-.042.51-.084.836-.133-.076.99-.115 1.976-.115 2.962h.074c1.31-2.223 3.14-3.333 5.504-3.333.615 0 1.22.093 1.808.28.592.182 1.125.437 1.605.758.48.324.896.712 1.238 1.168.347.457.58.944.705 1.464h.07c.593-1.187 1.407-2.096 2.433-2.723 1.027-.632 2.21-.947 3.55-.947.817 0 1.574.11 2.264.334.696.22 1.296.57 1.802 1.036.506.47.904 1.074 1.19 1.816.283.738.427 1.63.427 2.665 0 .42-.015.88-.04 1.37-.022.495-.05 1.07-.07 1.724-.03.654-.054 1.394-.073 2.22-.026.827-.042 1.784-.042 2.872 0 .665.008 1.31.02 1.924.017.618.04 1.286.095 2.003-.275-.054-.55-.077-.818-.077H295.742c-.277 0-.547.023-.816.076.073-.62.155-1.866.24-3.743.09-1.878.13-4.495.13-7.853 0-.62-.07-1.196-.206-1.742-.137-.543-.357-1.01-.65-1.407-.298-.396-.695-.707-1.192-.944-.493-.232-1.114-.35-1.86-.35-.89 0-1.65.173-2.27.517-.617.346-1.1.755-1.447 1.225-.195.27-.352.54-.465.812-.113.272-.197.687-.266 1.243-.058.556-.1 1.332-.127 2.33-.023 1.003-.038 2.38-.038 4.13 0 1.064.02 2.033.06 2.912.034.872.078 1.83.127 2.87-.56-.054-1.1-.077-1.613-.077-.513 0-1.048.023-1.608.076.11-1.36.184-2.743.228-4.152.045-1.406.066-2.79.066-4.15 0-1.157-.008-2.063-.02-2.722-.01-.65-.04-1.17-.092-1.554-.046-.382-.115-.697-.2-.944-.09-.248-.207-.52-.353-.816-.266-.468-.692-.868-1.267-1.204-.583-.332-1.178-.5-1.787-.5-1.627 0-2.817.533-3.58 1.595-.762 1.063-1.145 2.555-1.145 4.482v3.147c0 1.11.022 2.278.057 3.5.038 1.223.116 2.327.24 3.317-.567-.054-1.127-.077-1.664-.077-.545 0-1.1.023-1.67.076.124-.99.202-2.095.244-3.32.04-1.22.052-2.387.052-3.498V33.89c0-1.11-.014-2.277-.053-3.5M302.778 19.186c.365-.37.818-.556 1.332-.556.52 0 .963.185 1.33.556.376.373.56.816.56 1.332 0 .52-.184.965-.56 1.334-.367.374-.81.558-1.33.558-.514 0-.967-.184-1.332-.558-.37-.37-.558-.814-.558-1.334 0-.516.19-.96.558-1.332m-.092 11.205c-.038-1.222-.12-2.363-.245-3.426.693.124 1.25.183 1.67.183.42 0 .976-.06 1.666-.183-.124 1.063-.202 2.204-.24 3.427-.033 1.224-.056 2.39-.056 3.5v3.853c0 1.11.023 2.278.055 3.5.04 1.222.117 2.327.24 3.316-.566-.054-1.124-.077-1.665-.077-.543 0-1.1.023-1.67.076.126-.99.208-2.095.246-3.318.036-1.22.05-2.39.05-3.5V33.89c0-1.11-.014-2.276-.05-3.5M309.814 29.945c.368-.753.882-1.378 1.54-1.87.65-.494 1.406-.865 2.255-1.11.855-.246 1.76-.374 2.72-.374.47 0 .923.015 1.355.043.432.02.98.06 1.65.11.567.05 1.074.085 1.515.108.447.03.803.04 1.078.04 1.384 0 2.38-.062 2.998-.188-.024.126-.045.256-.055.394-.012.133-.018.263-.018.388 0 .12.006.252.02.386.01.135.03.267.054.388-.716-.048-1.414-.102-2.088-.165-.683-.06-1.357-.103-2.022-.13l-.075.075c.764.42 1.383 1.07 1.855 1.945.468.877.7 1.783.7 2.722 0 1.85-.622 3.3-1.87 4.353-1.246 1.05-2.916 1.57-5.02 1.57-.342 0-.682-.01-1.015-.035-.336-.023-.674-.037-1.018-.037-.45 0-.86.163-1.245.482-.38.32-.57.728-.57 1.223 0 .64.152 1.113.46 1.408.31.296.884.456 1.723.48.692.026 1.37.045 2.04.055.663.013 1.345.032 2.037.057 1.13.025 2.106.16 2.906.407.803.247 1.453.583 1.96 1 .508.42.878.902 1.112 1.444.237.546.355 1.14.355 1.78 0 .864-.166 1.742-.5 2.628-.335.89-.855 1.692-1.56 2.408-.7.717-1.61 1.31-2.72 1.782-1.114.464-2.446.7-4 .7-2.392 0-4.282-.475-5.668-1.427-1.382-.948-2.07-2.248-2.07-3.903 0-.646.117-1.237.35-1.78.233-.542.537-1.026.904-1.444.375-.42.793-.753 1.263-1 .466-.248.943-.433 1.442-.554v-.077c-.764-.22-1.343-.593-1.74-1.112-.393-.515-.59-1.133-.59-1.85 0-.422.077-.8.238-1.148.16-.346.363-.652.61-.927.25-.27.532-.493.855-.667.32-.17.627-.283.923-.33v-.075c-1.133-.497-2.025-1.192-2.665-2.094-.645-.902-.964-2.03-.964-3.388 0-1.04.187-1.932.554-2.687m11.298 15.425c-.868-.593-2.295-.887-4.298-.887-1.854 0-3.287.302-4.296.908-1.013.604-1.52 1.696-1.52 3.278 0 .84.144 1.556.428 2.148.28.59.664 1.074 1.15 1.443.48.37 1.052.643 1.72.815.664.174 1.38.26 2.147.26.742 0 1.47-.098 2.186-.294.712-.2 1.35-.496 1.907-.89.552-.397 1.007-.898 1.35-1.502.35-.604.52-1.326.52-2.165 0-1.48-.433-2.517-1.295-3.113m-1.814-16.48c-.747-.814-1.716-1.22-2.927-1.22-1.335 0-2.37.448-3.11 1.348-.742.902-1.11 2.108-1.11 3.614 0 1.554.34 2.783 1.018 3.683.676.9 1.733 1.35 3.162 1.35.717 0 1.33-.14 1.833-.423.51-.283.93-.667 1.26-1.147.334-.484.584-1.04.743-1.668.16-.63.243-1.288.243-1.98 0-1.558-.372-2.74-1.112-3.557M326.166 31.536c.53-1.17 1.227-2.123 2.095-2.85.863-.73 1.833-1.26 2.908-1.59 1.072-.338 2.142-.504 3.203-.504 1.084 0 2.16.166 3.22.503 1.06.332 2.028.862 2.89 1.592.864.726 1.565 1.68 2.095 2.85.53 1.174.795 2.602.795 4.278 0 1.68-.266 3.108-.795 4.277-.53 1.175-1.23 2.125-2.095 2.855-.862.726-1.83 1.24-2.89 1.535-1.06.296-2.136.445-3.22.445-1.06 0-2.13-.15-3.202-.445-1.075-.294-2.045-.81-2.907-1.535-.867-.73-1.564-1.68-2.094-2.855-.53-1.17-.8-2.597-.8-4.277 0-1.676.27-3.104.8-4.28m2.74 7.282c.186.96.5 1.818.947 2.57.445.758 1.035 1.356 1.773 1.8.744.444 1.66.668 2.745.668 1.084 0 2-.224 2.74-.667.74-.445 1.335-1.043 1.78-1.8.446-.753.76-1.61.944-2.57.184-.964.277-1.963.277-3.003 0-1.036-.092-2.035-.276-2.998-.185-.964-.498-1.822-.944-2.575-.445-.753-1.04-1.35-1.78-1.796-.74-.443-1.656-.667-2.74-.667-1.085 0-2 .223-2.744.666-.738.445-1.328 1.043-1.773 1.796-.448.753-.76 1.61-.946 2.575-.188.963-.277 1.962-.277 2.998 0 1.04.09 2.04.277 3.002M346.02 41.928c.262.296.57.57.92.833.362.26.77.477 1.228.647.455.176.946.26 1.466.26.466 0 .913-.07 1.35-.22.43-.15.813-.36 1.148-.633.332-.267.6-.613.797-1.033.197-.42.295-.9.295-1.446 0-.763-.218-1.353-.65-1.76-.432-.407-.97-.74-1.613-1-.64-.26-1.345-.487-2.114-.684-.76-.197-1.464-.476-2.108-.835-.642-.356-1.175-.83-1.61-1.424-.43-.59-.647-1.405-.647-2.445 0-.812.134-1.56.41-2.24.27-.678.664-1.265 1.182-1.758.52-.493 1.16-.885 1.927-1.168.766-.284 1.64-.427 2.628-.427.915 0 1.687.124 2.314.37.63.247 1.23.47 1.798.668-.197.372-.384.83-.56 1.373-.166.543-.28.963-.327 1.26h-.447c-.195-.597-.58-1.126-1.146-1.596-.568-.467-1.273-.704-2.112-.704-.37 0-.742.063-1.112.188-.37.12-.704.31-1.002.557-.3.246-.543.564-.738.96-.196.397-.292.865-.292 1.408 0 .79.21 1.402.642 1.834.434.43.97.77 1.607 1.018.648.246 1.352.464 2.116.648.765.185 1.47.443 2.11.776.645.334 1.18.798 1.612 1.39.436.593.652 1.407.652 2.443 0 .717-.16 1.422-.463 2.112-.308.694-.754 1.315-1.333 1.87-.58.555-1.278.99-2.092 1.297-.816.307-1.74.462-2.777.462-1.14 0-2.087-.11-2.857-.33-.762-.226-1.404-.484-1.92-.78.145-.32.3-.76.46-1.317.16-.555.24-1.016.24-1.388h.445c.128.248.315.52.575.816M379.15 41.037c-.2.4-.462.82-.798 1.28-.335.457-.753.885-1.258 1.28-.508.392-1.108.715-1.798.962-.692.245-1.494.368-2.408.368-.938 0-1.856-.163-2.756-.482-.902-.32-1.704-.845-2.408-1.575-.703-.725-1.276-1.665-1.704-2.814-.432-1.146-.65-2.524-.65-4.13 0-1.576.237-2.95.703-4.11.468-1.16 1.078-2.13 1.837-2.91.75-.775 1.603-1.352 2.555-1.738.95-.38 1.905-.575 2.87-.575 2.74 0 4.64 1.236 5.7 3.705h.076v-3.63c0-.937-.003-1.883-.015-2.83-.01-.955-.027-1.86-.04-2.727-.013-.862-.027-1.676-.034-2.44-.01-.767-.03-1.448-.057-2.038.297.05.58.092.853.13.27.036.544.055.814.055.275 0 .537-.02.797-.055.26-.038.548-.08.87-.13-.075.79-.138 1.93-.182 3.425-.054 1.494-.094 3.14-.134 4.944-.037 1.803-.068 3.658-.09 5.558-.026 1.9-.04 3.64-.04 5.22 0 1.704.015 3.237.04 4.595.022 1.357.05 2.752.072 4.186-.493-.053-.97-.078-1.44-.078-.448 0-.918.025-1.41.077l.11-3.523h-.07zm-10.057-1.22c.307.963.703 1.734 1.183 2.315.483.58 1.032.98 1.653 1.204.618.22 1.22.332 1.812.332.964 0 1.79-.24 2.48-.72.69-.484 1.268-1.113 1.723-1.892.457-.774.79-1.66.997-2.645.213-.99.318-1.977.318-2.963 0-2.37-.457-4.18-1.367-5.428-.915-1.247-2.264-1.868-4.04-1.868-.89 0-1.662.203-2.312.608-.657.407-1.2.976-1.63 1.706-.437.727-.756 1.58-.965 2.555-.212.978-.313 2.02-.313 3.132 0 1.48.15 2.702.46 3.665M386.02 29.187c1.447-1.73 3.55-2.595 6.315-2.595 1.305 0 2.438.205 3.392.612.944.407 1.743.953 2.387 1.632.64.68 1.118 1.475 1.424 2.387.31.913.462 1.89.462 2.926 0 .245-.002.488-.017.72-.012.236-.03.48-.054.725-1.337-.026-2.657-.05-3.966-.074-1.307-.024-2.628-.036-3.96-.036-.816 0-1.626.012-2.43.037-.798.026-1.606.05-2.422.075-.027.123-.04.31-.04.556v.48c0 .964.147 1.864.428 2.703.28.843.695 1.564 1.24 2.168.543.606 1.206 1.088 2 1.447.788.356 1.706.537 2.74.537.498 0 1-.07 1.52-.204.515-.136 1.02-.323 1.518-.556.495-.233.958-.513 1.386-.832.434-.323.81-.667 1.13-1.04l.188.113-.22 1.816c-.743.592-1.666 1.098-2.763 1.518-1.1.42-2.24.63-3.427.63-1.332 0-2.55-.205-3.647-.612-1.1-.41-2.05-1-2.85-1.776-.802-.78-1.42-1.7-1.855-2.76-.43-1.06-.647-2.21-.647-3.445 0-3.037.723-5.418 2.167-7.148m4.075-.78c-.63.42-1.15.95-1.558 1.575-.407.63-.716 1.323-.925 2.076-.21.753-.34 1.462-.388 2.13.765.024 1.56.05 2.39.073.83.026 1.633.038 2.424.038.815 0 1.644-.012 2.483-.037.838-.024 1.656-.048 2.443-.073 0-.667-.053-1.37-.164-2.11-.114-.743-.337-1.433-.666-2.075-.336-.64-.8-1.174-1.39-1.594-.596-.42-1.372-.63-2.335-.63-.912 0-1.688.21-2.315.63M271.185 74.86c-.348-.052-.677-.075-.986-.075h-1.96c-.31 0-.638.023-.982.076-.174-.568-.407-1.254-.702-2.057-.296-.802-.625-1.64-.986-2.52-.355-.872-.718-1.76-1.09-2.665-.37-.902-.716-1.76-1.035-2.572-.793-.027-1.596-.042-2.41-.055-.812-.013-1.628-.018-2.444-.018-.764 0-1.52.006-2.26.02-.736.012-1.494.027-2.255.054-.793 1.925-1.506 3.76-2.152 5.498-.64 1.743-1.124 3.18-1.443 4.317-.422-.052-.877-.075-1.372-.075-.495 0-.95.023-1.368.076 2-4.32 3.95-8.616 5.85-12.887 1.905-4.27 3.818-8.62 5.742-13.04h.704c.598 1.432 1.232 2.98 1.926 4.648.69 1.668 1.39 3.353 2.108 5.058.717 1.703 1.433 3.392 2.15 5.074.717 1.68 1.387 3.24 2.02 4.684.63 1.445 1.196 2.737 1.703 3.87.506 1.14.92 2.003 1.242 2.595m-16.407-11.52c.64 0 1.31.015 2 .04.69.022 1.358.036 1.998.036.69 0 1.38-.008 2.076-.02.69-.01 1.38-.03 2.077-.057l-4.116-9.407-4.036 9.406zM273.723 54.86c-.013-.986-.034-1.962-.055-2.926-.027-.965-.058-1.882-.096-2.76-.036-.878-.078-1.624-.128-2.24.692.123 1.246.186 1.668.186.417 0 .97-.063 1.665-.187-.048.617-.094 1.363-.13 2.242-.034.877-.07 1.794-.096 2.76-.016.963-.04 1.94-.052 2.925-.013.986-.02 1.9-.02 2.743v6.7c0 .843.007 1.756.02 2.742.013.988.036 1.963.053 2.928.028.963.063 1.873.097 2.74.036.863.082 1.58.13 2.15-.568-.055-1.12-.078-1.665-.078-.55 0-1.102.023-1.668.077.05-.57.092-1.286.128-2.15.038-.866.07-1.776.096-2.74.02-.964.042-1.94.055-2.927.012-.986.017-1.9.017-2.742v-6.7c0-.843-.006-1.757-.017-2.743M281.87 59.49c1.442-1.73 3.546-2.595 6.316-2.595 1.307 0 2.434.205 3.386.612.952.407 1.747.953 2.39 1.632.64.68 1.115 1.474 1.42 2.386.314.913.47 1.89.47 2.926 0 .246-.007.49-.018.724-.014.233-.035.476-.06.722l-3.96-.074c-1.304-.025-2.63-.036-3.965-.036-.817 0-1.627.01-2.426.036l-2.427.074c-.025.123-.036.31-.036.557v.48c0 .962.144 1.864.427 2.7.283.844.698 1.565 1.238 2.17.55.604 1.21 1.088 2 1.445.792.356 1.708.537 2.744.537.494 0 .996-.068 1.518-.204.52-.136 1.026-.323 1.52-.556.492-.233.953-.512 1.385-.832.436-.323.81-.667 1.133-1.04l.184.114-.222 1.814c-.742.59-1.66 1.097-2.76 1.518-1.1.418-2.24.628-3.426.628-1.332 0-2.55-.204-3.647-.61-1.1-.408-2.052-1-2.855-1.777-.8-.78-1.42-1.7-1.848-2.76-.434-1.06-.653-2.21-.653-3.445 0-3.037.723-5.418 2.17-7.148m4.072-.78c-.63.42-1.148.95-1.556 1.576-.407.63-.716 1.322-.923 2.075-.21.754-.342 1.463-.388 2.132.763.023 1.558.05 2.387.072.828.025 1.634.037 2.426.037.814 0 1.643-.01 2.478-.036.845-.022 1.66-.05 2.45-.072 0-.67-.057-1.372-.168-2.112-.113-.743-.332-1.433-.67-2.075-.33-.64-.794-1.174-1.384-1.594-.593-.418-1.372-.628-2.336-.628-.915 0-1.683.21-2.316.63M297.905 60.694c-.036-1.224-.12-2.365-.237-3.427.69.124 1.242.183 1.664.183.2 0 .415-.015.652-.05.233-.04.51-.083.83-.133-.075.99-.11 1.976-.11 2.962h.075c1.303-2.223 3.135-3.334 5.497-3.334.618 0 1.218.094 1.81.28.593.183 1.126.437 1.61.758.48.323.888.71 1.232 1.168.345.456.58.944.706 1.463h.075c.59-1.186 1.4-2.094 2.43-2.723 1.028-.63 2.21-.946 3.547-.946.812 0 1.57.11 2.268.335.69.22 1.292.57 1.798 1.036.51.47.904 1.076 1.19 1.816.288.74.425 1.63.425 2.666 0 .42-.013.88-.03 1.37-.03.495-.058 1.07-.077 1.724-.024.656-.05 1.395-.077 2.223-.02.825-.035 1.783-.035 2.87 0 .665.006 1.31.016 1.925.017.617.046 1.286.097 2.002-.274-.053-.543-.076-.815-.076h-1.596c-.27 0-.54.023-.813.076.075-.62.155-1.865.24-3.742.085-1.878.13-4.494.13-7.852 0-.62-.068-1.197-.202-1.743-.137-.543-.355-1.01-.65-1.407-.3-.395-.7-.707-1.196-.944-.5-.233-1.115-.35-1.858-.35-.89 0-1.65.172-2.27.518-.62.346-1.103.753-1.45 1.223-.198.27-.355.543-.466.813-.114.27-.2.686-.26 1.242-.06.556-.103 1.332-.13 2.33-.03 1.005-.038 2.38-.038 4.13 0 1.064.018 2.033.058 2.912.034.875.078 1.83.128 2.87-.564-.053-1.1-.076-1.615-.076-.508 0-1.05.023-1.61.076.11-1.358.19-2.742.237-4.15.036-1.407.065-2.79.065-4.15 0-1.158-.008-2.064-.02-2.723-.015-.65-.045-1.17-.093-1.555-.055-.382-.118-.697-.206-.944-.084-.245-.204-.518-.347-.815-.276-.466-.698-.867-1.277-1.202-.577-.332-1.17-.5-1.785-.5-1.624 0-2.82.533-3.58 1.593-.76 1.063-1.142 2.556-1.142 4.484v3.145c0 1.113.023 2.28.055 3.5.042 1.223.12 2.327.24 3.317-.57-.053-1.12-.076-1.666-.076-.542 0-1.098.023-1.664.076.118-.99.2-2.094.237-3.317.038-1.22.057-2.387.057-3.5v-3.852c0-1.11-.02-2.276-.057-3.5M330.296 57.342c.937-.294 1.9-.447 2.892-.447.888 0 1.7.132 2.444.392.743.26 1.376.63 1.902 1.112.53.48.934 1.06 1.238 1.738.3.68.45 1.428.45 2.242 0 1.41-.026 2.807-.074 4.203-.053 1.395-.076 2.87-.076 4.426 0 .295.01.61.02.943.01.334.066.63.165.89.098.256.24.474.427.648.185.17.46.26.835.26.12 0 .247-.007.387-.018.135-.013.262-.057.388-.128v.81c-.27.126-.608.226-1.02.296-.406.077-.855.113-1.346.113-.804 0-1.42-.204-1.844-.61-.428-.406-.678-.932-.753-1.574-.884.887-1.762 1.54-2.622 1.963-.86.417-1.917.627-3.175.627-.61 0-1.215-.086-1.804-.26-.59-.17-1.11-.456-1.568-.85-.457-.396-.827-.868-1.112-1.424-.28-.556-.417-1.194-.417-1.91 0-1.48.457-2.63 1.376-3.443.926-.816 2.2-1.36 3.82-1.632 1.332-.22 2.373-.41 3.122-.57.75-.163 1.307-.33 1.66-.5.356-.175.572-.38.645-.613.076-.233.113-.538.113-.91 0-.615-.073-1.207-.222-1.775-.147-.565-.386-1.062-.707-1.48-.32-.42-.733-.76-1.255-1.02-.516-.26-1.146-.387-1.89-.387-.99 0-1.907.22-2.757.665-.853.443-1.487 1.06-1.908 1.854h-.407v-1.927c1.113-.84 2.137-1.408 3.073-1.705m4.62 8.665c-.555.102-1.115.205-1.677.316-.566.112-1.126.254-1.682.428-.553.173-1.042.408-1.472.704-.432.296-.774.663-1.03 1.11-.262.444-.392 1.015-.392 1.705 0 1.16.33 2.034.998 2.63.667.59 1.397.885 2.21.885.935 0 1.788-.258 2.564-.777.77-.516 1.368-1.122 1.79-1.816l.144-5.554c-.42.15-.902.274-1.455.37M354.556 60.25c-.716-.95-1.706-1.428-2.964-1.428-1.727 0-2.994.533-3.793 1.595-.806 1.063-1.207 2.555-1.207 4.482v3.146c0 1.11.02 2.278.053 3.498.042 1.223.12 2.327.243 3.317-.572-.05-1.125-.075-1.67-.075-.542 0-1.098.025-1.664.076.124-.99.207-2.093.24-3.316.037-1.22.054-2.387.054-3.498v-3.854c0-1.11-.017-2.274-.053-3.5-.034-1.223-.117-2.363-.24-3.426.69.126 1.243.185 1.664.185.2 0 .415-.016.652-.052l.832-.132c-.075.992-.11 1.978-.11 2.964h.073c.688-1.062 1.524-1.882 2.487-2.463.967-.58 2.117-.872 3.457-.872.695 0 1.394.102 2.1.3.704.197 1.34.535 1.914 1.015.57.484 1.032 1.14 1.397 1.963.353.83.538 1.884.538 3.166 0 1.062-.026 2.157-.076 3.28-.052 1.123-.073 2.313-.073 3.573V72.6c0 .396.003.786.013 1.166.015.384.036.748.06 1.095-.5-.05-1.022-.075-1.578-.075-.523 0-1.034.025-1.532.076.047-1.283.1-2.605.17-3.964.055-1.357.09-2.752.09-4.185v-2.258c0-1.852-.364-3.25-1.076-4.203M363.3 49.49c.367-.37.816-.555 1.33-.555.52 0 .963.185 1.334.556.373.37.556.813.556 1.333s-.183.963-.556 1.334c-.37.37-.814.556-1.334.556-.514 0-.963-.187-1.33-.556-.37-.37-.56-.814-.56-1.334 0-.52.19-.963.56-1.332m-.094 11.204c-.038-1.223-.116-2.364-.242-3.427.69.124 1.25.184 1.666.184.422 0 .977-.06 1.667-.183-.125 1.063-.203 2.204-.24 3.427-.034 1.223-.055 2.39-.055 3.5v3.852c0 1.112.02 2.28.056 3.5.036 1.222.114 2.327.24 3.317-.57-.054-1.127-.077-1.668-.077-.543 0-1.097.023-1.666.077.126-.99.204-2.095.242-3.318.04-1.22.052-2.387.052-3.5v-3.852c0-1.11-.012-2.276-.052-3.5M374.15 57.342c.937-.294 1.9-.447 2.886-.447.893 0 1.707.132 2.447.392.743.26 1.378.63 1.903 1.112.526.48.937 1.06 1.242 1.738.295.68.446 1.428.446 2.242 0 1.41-.023 2.807-.073 4.203-.05 1.395-.07 2.87-.07 4.426 0 .295.002.61.016.943.008.334.072.63.164.89.1.256.243.474.43.648.185.17.46.26.83.26.124 0 .255-.007.39-.018.135-.013.265-.057.393-.128v.81c-.277.126-.614.226-1.02.296-.408.077-.863.113-1.354.113-.803 0-1.417-.204-1.843-.61-.424-.406-.675-.932-.75-1.574-.888.887-1.765 1.54-2.62 1.963-.863.417-1.922.627-3.174.627-.617 0-1.223-.086-1.807-.26-.593-.17-1.113-.456-1.573-.85-.453-.396-.822-.868-1.105-1.424-.283-.556-.424-1.194-.424-1.91 0-1.48.46-2.63 1.383-3.443.924-.816 2.2-1.36 3.82-1.632 1.33-.22 2.37-.41 3.12-.57.75-.163 1.3-.33 1.66-.5.358-.175.572-.38.648-.613.07-.233.11-.538.11-.91 0-.615-.077-1.207-.224-1.775-.148-.565-.384-1.062-.7-1.48-.326-.42-.742-.76-1.264-1.02-.516-.26-1.143-.387-1.886-.387-.99 0-1.908.22-2.76.665-.852.443-1.492 1.06-1.907 1.854h-.405v-1.927c1.112-.84 2.133-1.408 3.073-1.705m4.616 8.665c-.552.102-1.11.205-1.676.316-.566.112-1.126.254-1.678.428-.552.173-1.047.408-1.47.704-.433.296-.78.663-1.032 1.11-.26.444-.39 1.015-.39 1.705 0 1.16.33 2.034.996 2.63.663.59 1.393.885 2.21.885.934 0 1.788-.258 2.56-.777.774-.516 1.373-1.122 1.79-1.816l.148-5.554c-.418.15-.906.274-1.458.37M228.903 85.803h-1.912V19.13h1.913v66.673z" fill="#787475"/></svg>