<svg xmlns="http://www.w3.org/2000/svg" width="436.1" height="157.331"><path d="M102.736 125.682c.424.04.904.066 1.443.087.537.017 1.303.03 2.303.03 7.15 0 12.406-1.836 15.768-5.51 3.364-3.667 5.047-9.384 5.047-17.15 0-6.65-1.48-11.75-4.44-15.308-2.96-3.553-7.188-5.33-12.684-5.33-1 0-2.105.075-3.314.23-1.213.152-2.588.384-4.124.69v42.26zm-5.647-80.83h5.646V78.58c3.227-1.805 6.245-3.14 9.05-4.002 2.806-.87 5.497-1.3 8.073-1.3 6.803 0 12.374 2.5 16.716 7.497 4.346 4.993 6.52 11.433 6.52 19.31 0 6.842-1.59 12.752-4.757 17.728-3.175 4.984-7.797 8.83-13.868 11.564-2.154.92-4.874 1.607-8.16 2.047-3.285.44-7.252.66-11.904.66h-3.228l-13.087-.227V54.998H79.56v-4.61l17.53-5.535zM144.755 132.08v-5.3l6.285-.464 1.673-1.788v-40.76h-8.535v-4.726l17.354-5.534h5.708l-.52 12.047c2.04-2.163 4.21-4.257 6.515-6.285 2.306-2.025 4.728-3.95 7.264-5.762.652-.09 1.182-.155 1.586-.184.402-.033.76-.048 1.065-.048 1.27 0 2.547.163 3.838.49 1.285.327 2.602.835 3.948 1.527l-1.5 16.318h-6.168c-.886-1.462-1.953-2.537-3.2-3.228-1.25-.692-2.74-1.04-4.468-1.04-1 0-2.2.283-3.605.838-1.402.56-2.988 1.373-4.755 2.448v33.9l1.73 1.788 8.415.463v5.3h-32.63z" fill="#0066a0"/><path d="M227.42 44.45h14.587l-18.163 22.484h-7.897L227.42 44.45zm-22.31 28.71h5.647v36.608c0 4.693.873 8.064 2.624 10.12 1.753 2.06 4.622 3.085 8.622 3.085 1.343 0 2.832-.144 4.466-.432 1.634-.29 3.526-.756 5.68-1.413V83.423h-7.67v-4.727l16.778-5.535h5.42v51.368l1.613 1.788 6.167.463v5.3h-22.31v-6.513c-4.114 2.69-7.735 4.62-10.867 5.796-3.134 1.168-6.12 1.758-8.965 1.758-5.458 0-9.524-1.65-12.195-4.958-2.67-3.308-4.005-8.378-4.005-15.217V83.423h-7.668v-4.727l16.662-5.535z" fill="#0066a0"/><path d="M261.34 55.46c0-2.65.796-4.793 2.39-6.424 1.597-1.635 3.7-2.455 6.313-2.455 2.46 0 4.518.86 6.17 2.57 1.652 1.71 2.48 3.853 2.48 6.428 0 2.382-.864 4.41-2.593 6.08-1.73 1.673-3.825 2.51-6.285 2.51-2.423 0-4.44-.816-6.056-2.45-1.613-1.633-2.42-3.72-2.42-6.257m1.613 28.31h-8.36V79.04l17.815-5.535h4.96v46.986c0 7.148-.493 12.773-1.475 16.865-.984 4.09-2.634 7.602-4.946 10.52-2.275 2.96-5.165 5.272-8.675 6.946-3.51 1.674-7.152 2.507-10.93 2.507-3.278 0-5.9-.775-7.863-2.334-1.97-1.555-2.953-3.602-2.953-6.14 0-1.844.643-3.467 1.927-4.87 1.284-1.402 2.957-2.294 5.016-2.682l11.62 10.723c1.347-1.845 2.326-4.61 2.94-8.297.617-3.695.923-8.707.923-15.05V83.77zM298.026 73.162h5.65v36.607c0 4.69.873 8.063 2.624 10.117 1.748 2.06 4.62 3.086 8.618 3.086 1.345 0 2.838-.145 4.468-.432 1.633-.29 3.527-.757 5.68-1.413V83.423h-7.667v-4.727l16.772-5.534h5.423v51.365l1.612 1.79 6.17.46v5.304h-22.312v-6.512c-4.113 2.69-7.735 4.62-10.867 5.796-3.133 1.167-6.122 1.756-8.964 1.756-5.46 0-9.524-1.65-12.195-4.96-2.673-3.306-4.006-8.375-4.006-15.215V83.423h-7.666v-4.727l16.658-5.534z" fill="#0066a0"/><path d="M345.726 132.08v-5.188l6.862-.69 1.67-1.674v-69.41h-8.532v-4.73l17.815-5.535h5.19v79.445l1.788 1.903 6.858.692v5.19h-31.65zM413.5 120.494V101.24c-7.763 1.73-13.065 3.61-15.91 5.648-2.846 2.04-4.268 4.806-4.268 8.304 0 2.725.788 4.888 2.365 6.482 1.577 1.6 3.708 2.396 6.4 2.396 1.496 0 3.2-.3 5.1-.894 1.904-.595 4.007-1.49 6.312-2.682m0 4.845c-3.997 2.724-7.63 4.707-10.894 5.935-3.268 1.23-6.4 1.845-9.4 1.845-4.535 0-8.243-1.436-11.124-4.294-2.884-2.862-4.324-6.545-4.324-11.042 0-5.534 2.113-9.803 6.34-12.798 4.23-3 14.087-6.244 29.575-9.742v-3.52c0-4.266-.902-7.38-2.71-9.34-1.803-1.957-4.65-2.938-8.53-2.938-.847 0-1.73.057-2.652.172-.92.115-1.92.286-2.996.518v11.07h-10.898c-1.884 0-3.257-.348-4.124-1.04-.86-.692-1.297-1.784-1.297-3.286 0-3.69 2.482-6.896 7.44-9.627 4.956-2.727 11.05-4.09 18.273-4.09 8.11 0 13.818 1.555 17.123 4.667 3.306 3.113 4.96 8.536 4.96 16.26v30.552l1.555 1.674 6.285.577v5.19h-21.044l-1.557-6.744z" fill="#0066a0"/><path d="M127.944 0h2.413c-.268 1.45-.493 2.704-.682 3.77-.19 1.063-.312 1.772-.373 2.125l-9.074 45.158c-.322 1.578-.562 3.003-.723 4.276-.162 1.268-.24 2.272-.24 2.998 0 1.374.413 2.423 1.247 3.136.83.715 2.052 1.075 3.662 1.075.7 0 1.572-.117 2.608-.353 1.04-.235 2.303-.6 3.794-1.097v2.814c-2.37 1-4.576 1.757-6.622 2.272-2.046.512-3.826.766-5.348.766-2.19 0-3.83-.546-4.915-1.642-1.077-1.097-1.618-2.756-1.618-4.984 0-.644.138-1.85.416-3.622.278-1.77.68-4.02 1.203-6.738l8.598-43.974-7.98-.92V2.72L127.945 0zM157.624 26.346h-1.228c-5.33 0-9.706 2.29-13.13 6.87-3.426 4.58-5.136 10.41-5.136 17.493 0 3.6.648 6.3 1.953 8.1 1.303 1.796 3.256 2.698 5.86 2.698 1.697 0 3.426-.498 5.18-1.492 1.757-.997 3.572-2.49 5.448-4.48l4.654-23.704-3.6-5.486zm8.386-3.56h4.652c-.468.968-.988 2.546-1.558 4.737-.57 2.187-1.19 4.912-1.866 8.172l-3.206 15.89c-.29 1.398-.52 2.627-.68 3.69-.16 1.063-.24 1.93-.24 2.597 0 1.4.388 2.432 1.164 3.098.776.67 2.01 1.004 3.71 1.004.352 0 .825-.044 1.427-.14.6-.096 1.792-.34 3.58-.722v2.685c-2.517 1.062-4.694 1.855-6.52 2.37-1.83.52-3.33.775-4.5.775-1.876 0-3.26-.555-4.15-1.665-.895-1.11-1.34-2.822-1.34-5.13V59.4c-2.435 2.574-4.75 4.477-6.947 5.703-2.2 1.227-4.37 1.84-6.508 1.84-3.84 0-6.868-1.387-9.08-4.17-2.214-2.785-3.32-6.637-3.32-11.56 0-2.957.39-5.827 1.165-8.613.775-2.783 1.94-5.462 3.492-8.04 2.316-3.807 5.26-6.722 8.836-8.745 3.575-2.02 7.563-3.03 11.958-3.03 1.317 0 2.667.17 4.044.512 1.378.34 2.74.84 4.087 1.492l1.8-2.005zM76.307 93.143c0 21.07-17.084 38.154-38.157 38.154C17.077 131.297 0 114.213 0 93.143 0 72.073 17.077 54.99 38.15 54.99c21.073 0 38.157 17.082 38.157 38.153"/><path d="M38.055 70.02v19.178l-1.518-.64 1.518-18.54z" fill="#bcbec0"/><path d="M38.055 70.02v19.178l1.517-.64-1.517-18.54z" fill="#fff"/><path d="M38.055 116.253V97.07l-1.518.642 1.518 18.54z" fill="#bcbec0"/><path d="M38.055 116.253V97.07l1.517.642-1.517 18.54z" fill="#fff"/><path d="M61.165 93.077H41.987l.638 1.515 18.54-1.515z" fill="#bcbec0"/><path d="M61.165 93.077H41.987l.638-1.52 18.54 1.52z" fill="#fff"/><path d="M14.948 93.077h19.178l-.638 1.515-18.54-1.515z" fill="#bcbec0"/><path d="M34.126 93.077l-.638-1.52-18.54 1.52" fill="#fff"/><path d="M21.78 76.733l13.565 13.56-1.527.622L21.78 76.733z" fill="#bcbec0"/><path d="M35.342 90.294l.625-1.525L21.78 76.732" fill="#fff"/><path d="M54.46 109.412l-13.558-13.56-.624 1.524 14.182 12.036z" fill="#bcbec0"/><path d="M40.9 95.852l1.524-.622 12.036 14.18" fill="#fff"/><path d="M54.374 76.782L40.81 90.342l1.53.62 12.034-14.18z" fill="#bcbec0"/><path d="M54.374 76.782L40.81 90.347l-.62-1.533 14.184-12.032z" fill="#fff"/><path d="M21.693 109.46l13.56-13.56.62 1.524-14.18 12.036z" fill="#bcbec0"/><path d="M35.256 95.9l-1.526-.622-12.035 14.182" fill="#fff"/><path d="M43.907 93.143c0 3.232-2.62 5.858-5.853 5.858-3.232 0-5.85-2.625-5.85-5.857s2.618-5.853 5.85-5.853c3.233 0 5.853 2.62 5.853 5.853" fill="#fff"/><path d="M43.907 93.143c0 3.232-2.62 5.858-5.853 5.858-3.232 0-5.85-2.625-5.85-5.857s2.618-5.853 5.85-5.853c3.233 0 5.853 2.62 5.853 5.853z" fill="none" stroke="#000" stroke-width=".275"/><path d="M43.982 66.113l-8.34 26.493 5.024 1.075" fill="#d1d3d4"/><path d="M32.32 120.172l8.346-26.49-5.03-1.076" fill="#58595b"/><path d="M35.52 69.042v-.37l.456-.065.138-.138v-4.077l-.11-.108-.484-.038v-.378h1.764v.205l2.37 3.665v-3.302l-.14-.146-.474-.045v-.378h1.756v.377l-.456.045-.13.146v4.604h-.86l-2.674-4.14v3.567l.12.137.478.064v.372H35.52zM14.28 93.24c0 .424-.065.802-.197 1.137-.134.334-.33.63-.6.87-.24.222-.51.394-.81.503-.304.11-.632.173-.993.173-.332 0-.64-.054-.918-.155-.287-.1-.545-.255-.78-.453-.297-.256-.524-.563-.683-.925-.158-.36-.234-.762-.234-1.194 0-.41.07-.784.207-1.128.14-.34.345-.634.617-.888.234-.218.502-.383.8-.498.3-.12.614-.175.936-.175.796 0 1.44.25 1.923.75.49.503.73 1.163.73 1.983m-2.616 2.19c.448 0 .802-.202 1.07-.6.27-.396.404-.93.404-1.6 0-.68-.134-1.23-.404-1.637-.268-.413-.62-.616-1.052-.616-.44 0-.793.203-1.062.6-.268.398-.4.93-.4 1.597 0 .686.128 1.24.392 1.643.263.406.617.612 1.052.612M36.392 122.175v-1.396h.583l.125.925.1.113c.116.036.23.062.343.08.108.018.222.026.34.026.304 0 .544-.07.725-.197.182-.136.27-.31.27-.533 0-.193-.062-.366-.187-.52-.13-.15-.34-.3-.64-.45-.048-.025-.12-.06-.216-.105-.352-.164-.616-.318-.793-.47-.17-.143-.306-.306-.397-.49-.093-.18-.14-.37-.14-.56 0-.446.17-.81.507-1.097.34-.28.776-.427 1.314-.427.235 0 .47.02.712.065.243.046.49.113.736.2v1.25h-.557l-.126-.805-.108-.11c-.073-.035-.157-.066-.25-.084-.092-.017-.2-.022-.316-.022-.276 0-.498.067-.666.203-.164.14-.25.315-.25.535 0 .158.048.302.143.43.094.133.257.265.487.403.057.035.21.11.46.22.255.115.47.223.645.334.22.14.394.316.514.516.118.2.18.413.18.642 0 .472-.19.855-.564 1.146-.374.29-.866.437-1.483.437-.25 0-.504-.02-.76-.067-.254-.045-.495-.107-.73-.19M62.705 95.82v-.377l.466-.04.13-.124v-4.11l-.13-.106-.465-.04v-.377h3.89v1.206h-.535l-.132-.673-.08-.103h-1.55v1.833h1.012l.104-.11.078-.55h.458v1.788h-.458l-.078-.556-.104-.104h-1.012v2.003h1.798l.09-.123.126-.823h.532v1.387h-4.14z" fill="#fff"/><path d="M39.297 93.143c0 .682-.555 1.24-1.243 1.24-.685 0-1.238-.558-1.238-1.24 0-.682.553-1.24 1.238-1.24.688 0 1.243.558 1.243 1.24"/><path d="M39.297 93.143c0 .682-.555 1.24-1.243 1.24-.685 0-1.238-.558-1.238-1.24 0-.682.553-1.24 1.238-1.24.688 0 1.243.558 1.243 1.24z" fill="none" stroke="#fff" stroke-width=".275"/><path d="M38.055 58.324c-19.23 0-34.823 15.59-34.823 34.818 0 19.23 15.594 34.82 34.823 34.82 19.232 0 34.824-15.59 34.824-34.82 0-19.227-15.593-34.818-34.825-34.818m0 .755c18.786 0 34.07 15.28 34.07 34.062 0 18.784-15.284 34.065-34.07 34.065-18.785 0-34.068-15.28-34.068-34.065 0-18.782 15.283-34.063 34.068-34.063" fill="#fff"/><path d="M291.394 143.856v.87c-.605-.302-1.274-.57-2.007-.805-.48-.153-1.09-.236-1.823-.248-1.085-.02-1.966.222-2.645.72-.617.457-.926 1.24-.926 2.35 0 .685.235 1.227.703 1.628.5.425 1.252.768 2.257 1.027l1.1.286c.987.26 1.75.568 2.285.925 1.004.685 1.507 1.545 1.507 2.58 0 1.5-.44 2.538-1.323 3.117-.962.623-1.948.935-2.96.935-1.054 0-1.997-.145-2.83-.435-.524-.21-1.073-.5-1.646-.87v-.906c.863.51 1.468.838 1.813.98.772.314 1.487.47 2.147.47 1.128 0 2.065-.25 2.81-.748.704-.47 1.056-1.292 1.056-2.47 0-.69-.216-1.233-.648-1.627-.623-.574-1.43-.98-2.423-1.22l-1.11-.27c-.888-.215-1.643-.517-2.266-.906-.943-.593-1.415-1.4-1.415-2.424 0-1.276.386-2.257 1.157-2.94.715-.636 1.8-.957 3.256-.963.857 0 1.513.074 1.97.222 1.17.382 1.825.623 1.96.72M306.97 143.163h7.805v.767h-6.863v5.3h6.576v.75h-6.576v6.242h7.03v.75h-7.973v-13.81M330.306 143.163h1.286l3.838 10.238 3.857-10.237h1.276v13.808h-.943v-12.124l-3.552 9.47h-1.276l-3.542-9.47v12.125h-.944v-13.807M360.835 144.097l-2.96 7.77h5.873l-2.913-7.77m-.592-.934h1.21l5.282 13.808h-1.054l-1.645-4.336h-6.447l-1.637 4.337h-.98l5.273-13.807M379.998 143.163h1.37l6.695 12.624v-12.624h.925v13.808h-1.313l-6.733-12.707v12.708h-.944v-13.807M408.833 144.097l-2.96 7.77h5.873l-2.913-7.77m-.592-.934h1.212l5.28 13.808h-1.053l-1.647-4.336h-6.447l-1.637 4.337h-.98l5.27-13.807M428.015 143.163h.925v13.05h6.724v.758h-7.65v-13.807" style="-inkscape-font-specification:HelveticaNeue-Light" font-size="15.916" font-weight="300" font-family="YGHGA W+ Helvetica Neue"/></svg>