<svg xmlns="http://www.w3.org/2000/svg" width="532.345" height="192.053"><path d="M125.41 153.42c.516.05 1.103.08 1.76.106.656.022 1.592.038 2.812.038 8.728 0 15.145-2.242 19.25-6.725 4.105-4.48 6.157-11.46 6.157-20.936 0-8.12-1.807-14.344-5.418-18.687-3.614-4.338-8.775-6.51-15.485-6.51-1.22 0-2.57.095-4.045.284-1.48.186-3.16.47-5.033.845v51.585zm-6.894-98.667h6.893V95.92c3.937-2.204 7.622-3.833 11.048-4.886 3.424-1.06 6.71-1.587 9.852-1.587 8.306 0 15.107 3.053 20.408 9.15 5.303 6.1 7.957 13.96 7.957 23.576 0 8.35-1.94 15.565-5.806 21.638-3.875 6.082-9.517 10.78-16.93 14.116-2.627 1.122-5.947 1.96-9.958 2.5-4.01.536-8.854.804-14.533.804h-3.94l-15.975-.278V67.136H97.118v-5.63l21.398-6.753zM176.7 161.23v-6.47l7.674-.567 2.04-2.183v-49.753h-10.418v-5.77l21.186-6.758h6.967l-.636 14.706c2.487-2.64 5.138-5.196 7.952-7.672 2.816-2.472 5.772-4.82 8.87-7.035.794-.11 1.442-.188 1.934-.224.49-.04.927-.06 1.3-.06 1.55 0 3.11.2 4.684.6 1.57.4 3.176 1.02 4.82 1.863l-1.832 19.918h-7.528c-1.08-1.786-2.385-3.097-3.906-3.94-1.526-.844-3.345-1.27-5.454-1.27-1.22 0-2.686.345-4.4 1.022-1.714.682-3.648 1.678-5.805 2.99v41.38l2.11 2.183 10.272.566v6.47h-39.83z" fill="#0066a0"/><path d="M277.61 54.26h17.805l-22.17 27.445h-9.64L277.61 54.26zm-27.236 35.048h6.895v44.686c0 5.727 1.066 9.844 3.203 12.35 2.138 2.516 5.64 3.768 10.524 3.768 1.638 0 3.457-.176 5.452-.527 1.992-.354 4.302-.924 6.932-1.726v-46.026h-9.363v-5.77l20.48-6.756h6.615v62.702l1.97 2.183 7.53.565v6.472H283.38v-7.95c-5.024 3.284-9.443 5.638-13.267 7.074-3.825 1.425-7.472 2.145-10.943 2.145-6.663 0-11.626-2.016-14.888-6.054-3.256-4.037-4.888-10.225-4.888-18.575v-36.036h-9.36v-5.77l20.338-6.756z" fill="#0066a0"/><path d="M319.014 67.7c0-3.236.974-5.85 2.92-7.842 1.948-1.995 4.516-2.996 7.706-2.996 3.004 0 5.515 1.05 7.533 3.134 2.016 2.087 3.025 4.705 3.025 7.847 0 2.908-1.054 5.386-3.165 7.422-2.112 2.043-4.67 3.066-7.672 3.066-2.957 0-5.417-.997-7.39-2.992-1.97-1.992-2.956-4.54-2.956-7.637m1.97 34.558H310.78v-5.772l21.748-6.755h6.053v57.356c0 8.725-.6 15.59-1.8 20.587-1.202 4.993-3.214 9.278-6.038 12.843-2.775 3.61-6.306 6.434-10.588 8.477-4.284 2.044-8.73 3.06-13.344 3.06-4 0-7.2-.947-9.598-2.85-2.404-1.9-3.602-4.398-3.602-7.495 0-2.25.784-4.23 2.352-5.946 1.567-1.71 3.61-2.8 6.123-3.274l14.185 13.09c1.643-2.25 2.84-5.628 3.588-10.127.754-4.51 1.127-10.63 1.127-18.37v-54.822zM363.798 89.308h6.898v44.686c0 5.727 1.065 9.844 3.2 12.35 2.136 2.516 5.643 3.768 10.522 3.768 1.643 0 3.464-.177 5.455-.526 1.992-.356 4.303-.926 6.932-1.726v-46.026h-9.36v-5.77l20.477-6.756h6.62v62.703l1.967 2.184 7.532.564v6.473h-27.237v-7.95c-5.02 3.284-9.444 5.64-13.266 7.075-3.826 1.425-7.474 2.145-10.944 2.145-6.663 0-11.625-2.017-14.886-6.055-3.26-4.036-4.887-10.224-4.887-18.574v-36.036h-9.36v-5.77l20.335-6.756z" fill="#0066a0"/><path d="M422.026 161.23v-6.333l8.376-.844 2.04-2.043V67.282h-10.416v-5.774l21.746-6.756h6.333v96.978l2.183 2.323 8.374.844v6.334h-38.636zM504.756 147.086V123.58c-9.475 2.114-15.947 4.41-19.42 6.898-3.474 2.49-5.21 5.865-5.21 10.136 0 3.327.963 5.967 2.887 7.913 1.925 1.95 4.526 2.924 7.81 2.924 1.83 0 3.908-.364 6.23-1.09 2.322-.726 4.89-1.817 7.703-3.274m0 5.915c-4.877 3.327-9.313 5.747-13.297 7.247-3.99 1.5-7.815 2.252-11.475 2.252-5.536 0-10.064-1.754-13.578-5.243-3.523-3.493-5.28-7.988-5.28-13.478 0-6.758 2.58-11.968 7.738-15.623 5.164-3.66 17.196-7.624 36.105-11.893v-4.295c0-5.21-1.102-9.013-3.31-11.404-2.2-2.39-5.676-3.587-10.413-3.587-1.033 0-2.11.07-3.238.208-1.125.14-2.347.35-3.658.634v13.513H471.05c-2.3 0-3.977-.426-5.034-1.27-1.054-.845-1.584-2.178-1.584-4.01 0-4.506 3.03-8.42 9.08-11.752 6.052-3.33 13.488-4.995 22.308-4.995 9.9 0 16.867 1.9 20.902 5.698 4.034 3.802 6.053 10.42 6.053 19.85v37.295l1.898 2.044 7.672.703v6.335h-25.688l-1.9-8.23z" fill="#0066a0"/><path d="M156.18 0h2.945c-.326 1.77-.6 3.301-.832 4.6-.23 1.3-.38 2.165-.454 2.596L146.76 62.32c-.39 1.927-.684 3.665-.88 5.22-.2 1.55-.296 2.775-.296 3.66 0 1.678.505 2.958 1.525 3.83 1.012.872 2.503 1.31 4.468 1.31.855 0 1.92-.14 3.183-.43 1.27-.286 2.813-.732 4.632-1.337v3.434c-2.89 1.22-5.586 2.145-8.082 2.774-2.497.626-4.67.936-6.53.936-2.674 0-4.675-.666-5.997-2.005-1.316-1.338-1.978-3.364-1.978-6.082 0-.786.168-2.26.508-4.422.34-2.162.83-4.906 1.47-8.226l10.49-53.68-9.737-1.12V3.317L156.18 0zM192.41 32.16h-1.5c-6.505 0-11.845 2.797-16.026 8.386-4.182 5.59-6.27 12.708-6.27 21.354 0 4.398.792 7.69 2.383 9.887 1.592 2.193 3.976 3.295 7.156 3.295 2.07 0 4.18-.606 6.323-1.82 2.144-1.217 4.36-3.04 6.65-5.47l5.68-28.934-4.395-6.698zm10.237-4.347h5.68c-.573 1.184-1.206 3.11-1.903 5.783-.696 2.67-1.454 5.998-2.278 9.977l-3.913 19.397c-.355 1.707-.634 3.207-.83 4.505-.196 1.296-.294 2.356-.294 3.17 0 1.707.472 2.967 1.42 3.78.947.818 2.455 1.227 4.53 1.227.428 0 1.007-.053 1.743-.172.73-.117 2.186-.415 4.368-.882v3.278c-3.072 1.298-5.727 2.266-7.958 2.894-2.233.635-4.064.946-5.492.946-2.29 0-3.98-.677-5.067-2.03-1.092-1.356-1.635-3.447-1.635-6.266v-.91c-2.973 3.142-5.8 5.465-8.48 6.962-2.686 1.498-5.337 2.244-7.944 2.244-4.69 0-8.384-1.693-11.086-5.09-2.702-3.398-4.053-8.1-4.053-14.11 0-3.61.478-7.113 1.425-10.514.945-3.398 2.367-6.668 4.262-9.816 2.826-4.646 6.42-8.204 10.785-10.673 4.364-2.465 9.232-3.7 14.597-3.7 1.607 0 3.255.208 4.935.625 1.683.415 3.342 1.023 4.988 1.822l2.2-2.447zM93.147 113.7c0 25.718-20.854 46.573-46.576 46.573C20.847 160.273 0 139.418 0 113.7c0-25.723 20.846-46.575 46.57-46.575 25.723 0 46.577 20.852 46.577 46.574"/><path d="M46.453 85.472v23.41l-1.853-.778 1.853-22.632z" fill="#bcbec0"/><path d="M46.453 85.472v23.41l1.85-.778-1.85-22.632z" fill="#fff"/><path d="M46.453 141.91v-23.416l-1.853.782 1.853 22.633z" fill="#bcbec0"/><path d="M46.453 141.91v-23.416l1.85.782-1.85 22.633z" fill="#fff"/><path d="M74.664 113.618h-23.41l.78 1.85 22.63-1.85z" fill="#bcbec0"/><path d="M74.664 113.618h-23.41l.78-1.854 22.63 1.854z" fill="#fff"/><path d="M18.246 113.618h23.41l-.78 1.85-22.63-1.85z" fill="#bcbec0"/><path d="M41.657 113.618l-.78-1.854-22.63 1.854" fill="#fff"/><path d="M26.587 93.668l16.557 16.552-1.864.76-14.693-17.312z" fill="#bcbec0"/><path d="M43.14 110.22l.764-1.86-17.317-14.692" fill="#fff"/><path d="M66.478 133.56l-16.55-16.554-.76 1.86 17.31 14.693z" fill="#bcbec0"/><path d="M49.925 117.006l1.86-.76L66.48 133.56" fill="#fff"/><path d="M66.374 93.727L49.817 110.28l1.867.76 14.69-17.313z" fill="#bcbec0"/><path d="M66.374 93.727l-16.557 16.558-.757-1.87 17.314-14.688z" fill="#fff"/><path d="M26.48 133.618l16.553-16.553.76 1.86-17.313 14.693z" fill="#bcbec0"/><path d="M43.036 117.066l-1.863-.76-14.69 17.312" fill="#fff"/><path d="M53.597 113.7c0 3.945-3.2 7.15-7.145 7.15-3.946 0-7.142-3.205-7.142-7.15 0-3.947 3.196-7.146 7.142-7.146s7.145 3.2 7.145 7.145" fill="#fff"/><path d="M53.597 113.7c0 3.945-3.2 7.15-7.145 7.15-3.946 0-7.142-3.205-7.142-7.15 0-3.947 3.196-7.146 7.142-7.146s7.145 3.2 7.145 7.145z" fill="none" stroke="#000" stroke-width=".336"/><path d="M53.69 80.703l-10.184 32.34 6.134 1.313" fill="#d1d3d4"/><path d="M39.452 146.694l10.188-32.338-6.138-1.31" fill="#58595b"/><path d="M43.36 84.28v-.453l.555-.077.17-.17v-4.976l-.135-.132-.59-.045v-.462h2.152v.25l2.892 4.475v-4.03l-.172-.18-.576-.053v-.462H49.8v.462l-.558.053-.158.18v5.62h-1.052l-3.262-5.055v4.354l.148.17.583.077v.452h-2.14zM17.43 113.818c0 .516-.08.98-.24 1.387-.162.41-.404.77-.732 1.064-.292.268-.623.477-.99.612-.37.136-.77.21-1.21.21-.406 0-.782-.064-1.122-.188-.35-.125-.664-.31-.952-.555-.363-.31-.64-.688-.834-1.13-.19-.44-.283-.928-.283-1.457 0-.5.086-.957.252-1.376.17-.413.42-.774.753-1.085.286-.265.612-.467.977-.608.363-.145.748-.214 1.142-.214.97 0 1.76.306 2.346.918.598.614.893 1.42.893 2.42m-3.192 2.672c.545 0 .978-.247 1.307-.73.33-.485.49-1.136.49-1.953 0-.833-.16-1.502-.49-2-.33-.505-.76-.753-1.284-.753-.538 0-.968.248-1.296.732-.328.488-.49 1.14-.49 1.952 0 .838.156 1.51.48 2.006.32.494.75.746 1.284.746M44.423 149.14v-1.705h.713l.152 1.13.124.138c.138.044.277.076.416.097.133.022.27.033.415.033.37 0 .663-.086.885-.24.223-.168.33-.38.33-.652 0-.236-.076-.446-.23-.634-.157-.183-.415-.366-.78-.547-.06-.034-.147-.077-.264-.13-.43-.2-.754-.39-.968-.572-.21-.175-.377-.376-.487-.6-.114-.22-.17-.45-.17-.684 0-.543.204-.99.618-1.338.415-.344.947-.523 1.603-.523.288 0 .576.027.87.082.297.053.598.135.9.242v1.525h-.682l-.152-.983-.13-.135c-.09-.042-.193-.08-.306-.102-.113-.022-.244-.028-.386-.028-.338 0-.61.082-.813.247-.2.168-.304.384-.304.652 0 .195.058.37.174.526.115.16.314.323.594.49.07.044.258.134.564.27.31.14.573.272.786.407.268.172.48.387.628.63.145.246.218.506.218.784 0 .576-.228 1.045-.687 1.4-.457.353-1.058.532-1.81.532-.306 0-.616-.022-.927-.08-.31-.055-.605-.13-.893-.233M76.543 116.97v-.464l.57-.048.157-.15v-5.017l-.157-.13-.57-.047v-.46h4.75v1.472h-.654l-.162-.822-.1-.125h-1.89v2.238h1.235l.126-.137.096-.67h.56v2.182h-.56l-.097-.68-.127-.126H78.49v2.445h2.193l.11-.15.152-1.004h.65v1.693h-5.052z" fill="#fff"/><path d="M47.97 113.7c0 .832-.68 1.512-1.518 1.512-.837 0-1.51-.68-1.51-1.513 0-.833.673-1.516 1.51-1.516.84 0 1.517.683 1.517 1.515"/><path d="M47.97 113.7c0 .832-.68 1.512-1.518 1.512-.837 0-1.51-.68-1.51-1.513 0-.833.673-1.516 1.51-1.516.84 0 1.517.683 1.517 1.515z" fill="none" stroke="#fff" stroke-width=".336"/><path d="M46.453 71.196c-23.473 0-42.508 19.03-42.508 42.503 0 23.472 19.035 42.504 42.508 42.504 23.477 0 42.51-19.032 42.51-42.505 0-23.473-19.033-42.504-42.51-42.504m0 .92c22.932 0 41.59 18.655 41.59 41.583 0 22.93-18.658 41.582-41.59 41.582-22.932 0-41.586-18.653-41.586-41.583S23.52 72.116 46.453 72.116" fill="#fff"/></svg>