<svg xmlns="http://www.w3.org/2000/svg" width="584.458" height="154.473"><path d="M12.037 32.663h.398c7.95-12.523 16.3-17.493 28.426-17.493 13.916 0 23.058 6.958 28.824 21.468C78.63 21.73 87.77 15.17 100.69 15.17c18.687 0 31.013 14.313 31.013 36.18v54.86h-9.544V55.523c0-17.89-7.553-31.01-23.255-31.01-10.933 0-18.092 5.96-27.037 20.872v60.823h-9.54V55.322c0-22.062-10.932-30.81-23.455-30.81-10.933 0-18.49 5.368-26.836 19.083v62.613h-9.54V16.96h9.54v15.703z" fill="#fff"/><path d="M12.037 32.663h.398c7.95-12.523 16.3-17.493 28.426-17.493 13.916 0 23.058 6.958 28.824 21.468C78.63 21.73 87.77 15.17 100.69 15.17c18.687 0 31.013 14.313 31.013 36.18v54.86h-9.544V55.523c0-17.89-7.553-31.01-23.255-31.01-10.933 0-18.092 5.96-27.037 20.872v60.823h-9.54V55.322c0-22.062-10.932-30.81-23.455-30.81-10.933 0-18.49 5.368-26.836 19.083v62.613h-9.54V16.96h9.54v15.703z" fill="none" stroke="#fff" stroke-width="4.97054649"/><path d="M208.033 90.706c-4.77 3.778-10.536 7.95-12.724 7.95-1.59 0-2.185-.992-2.185-4.57v-55.66c0-18.684-16.698-23.253-27.828-23.253-9.74 0-17.89 2.782-28.823 9.54v9.74c10.535-7.954 17.69-11.33 27.23-11.33 13.32 0 19.878 6.36 19.878 18.287v11.33c-26.037 1.193-52.08 9.343-52.08 32.598 0 12.523 10.537 22.66 24.055 22.66 9.54 0 18.088-3.376 28.025-11.13.794 8.946 1.987 11.13 6.363 11.13 3.774 0 7.552-1.39 16.498-8.146l1.59-1.196v-7.95zm-24.45-2.188c-9.344 8.35-16.298 11.53-24.846 11.53-10.138 0-17.694-6.36-17.694-14.71 0-15.506 19.284-25.64 42.54-24.648v27.828z" fill="#fff"/><path d="M208.033 90.706c-4.77 3.778-10.536 7.95-12.724 7.95-1.59 0-2.185-.992-2.185-4.57v-55.66c0-18.684-16.698-23.253-27.828-23.253-9.74 0-17.89 2.782-28.823 9.54v9.74c10.535-7.954 17.69-11.33 27.23-11.33 13.32 0 19.878 6.36 19.878 18.287v11.33c-26.037 1.193-52.08 9.343-52.08 32.598 0 12.523 10.537 22.66 24.055 22.66 9.54 0 18.088-3.376 28.025-11.13.794 8.946 1.987 11.13 6.363 11.13 3.774 0 7.552-1.39 16.498-8.146l1.59-1.196v-7.95zm-24.45-2.188c-9.344 8.35-16.298 11.53-24.846 11.53-10.138 0-17.694-6.36-17.694-14.71 0-15.506 19.284-25.64 42.54-24.648v27.828z" fill="none" stroke="#fff" stroke-width="4.97054649"/><path d="M265.718 126.685c0 10.535-11.928 17.292-30.213 17.292-19.68 0-30.614-5.962-30.614-16.497 0-14.908 21.273-16.498 32.402-16.498 16.104 0 28.426 3.18 28.426 15.703M275.06 16.96h-35.78c-28.623 0-37.966 16.895-37.966 31.802 0 10.737 5.962 24.452 23.853 29.62v.396c-10.535 3.184-17.89 6.56-17.89 14.51 0 6.163 4.97 10.54 14.513 12.724v.397c-16.698 2.585-26.04 10.338-26.04 21.668 0 12.72 11.727 23.853 39.157 23.853 25.046 0 39.953-9.74 39.953-26.04 0-37.77-58.438-13.916-58.438-33.397 0-17.292 50.685-4.17 50.685-44.128 0-8.945-3.774-15.702-12.322-23.652h20.276V16.96zm-17.095 31.606c0 13.12-10.732 23.853-23.853 23.853-13.518 0-23.656-10.934-23.656-24.252 0-12.92 10.138-23.258 23.46-23.258 13.317 0 24.05 10.535 24.05 23.656" fill="#fff"/><path d="M265.718 126.685c0 10.535-11.928 17.292-30.213 17.292-19.68 0-30.614-5.962-30.614-16.497 0-14.908 21.273-16.498 32.402-16.498 16.104 0 28.426 3.18 28.426 15.703zM275.06 16.96h-35.78c-28.623 0-37.966 16.895-37.966 31.802 0 10.737 5.962 24.452 23.853 29.62v.396c-10.535 3.184-17.89 6.56-17.89 14.51 0 6.163 4.97 10.54 14.513 12.724v.397c-16.698 2.585-26.04 10.338-26.04 21.668 0 12.72 11.727 23.853 39.157 23.853 25.046 0 39.953-9.74 39.953-26.04 0-37.77-58.438-13.916-58.438-33.397 0-17.292 50.685-4.17 50.685-44.128 0-8.945-3.774-15.702-12.322-23.652h20.276V16.96zm-17.095 31.606c0 13.12-10.732 23.853-23.853 23.853-13.518 0-23.656-10.934-23.656-24.252 0-12.92 10.138-23.258 23.46-23.258 13.317 0 24.05 10.535 24.05 23.656z" fill="none" stroke="#fff" stroke-width="4.97054649"/><path d="M343.278 90.706c-4.77 3.778-10.535 7.95-12.724 7.95-1.59 0-2.184-.992-2.184-4.57v-55.66c0-18.684-16.698-23.253-27.827-23.253-9.74 0-17.895 2.782-28.828 9.54v9.74c10.54-7.954 17.694-11.33 27.234-11.33 13.32 0 19.877 6.36 19.877 18.287v11.33c-26.037 1.193-52.078 9.343-52.078 32.598 0 12.523 10.534 22.66 24.052 22.66 9.54 0 18.088-3.376 28.025-11.13.795 8.946 1.987 11.13 6.36 11.13 3.777 0 7.556-1.39 16.5-8.146l1.59-1.196v-7.95zm-24.45-2.188c-9.344 8.35-16.298 11.53-24.846 11.53-10.142 0-17.694-6.36-17.694-14.71 0-15.506 19.284-25.64 42.54-24.648v27.828z" fill="#fff"/><path d="M343.278 90.706c-4.77 3.778-10.535 7.95-12.724 7.95-1.59 0-2.184-.992-2.184-4.57v-55.66c0-18.684-16.698-23.253-27.827-23.253-9.74 0-17.895 2.782-28.828 9.54v9.74c10.54-7.954 17.694-11.33 27.234-11.33 13.32 0 19.877 6.36 19.877 18.287v11.33c-26.037 1.193-52.078 9.343-52.078 32.598 0 12.523 10.534 22.66 24.052 22.66 9.54 0 18.088-3.376 28.025-11.13.795 8.946 1.987 11.13 6.36 11.13 3.777 0 7.556-1.39 16.5-8.146l1.59-1.196v-7.95zm-24.45-2.188c-9.344 8.35-16.298 11.53-24.846 11.53-10.142 0-17.694-6.36-17.694-14.71 0-15.506 19.284-25.64 42.54-24.648v27.828z" fill="none" stroke="#fff" stroke-width="4.97054649"/><path d="M416.224 19.942l-58.64 77.524h58.64v8.745h-73.547l-.995-2.978 59.036-77.525H345.46v-8.75h69.97l.794 2.985z" fill="#fff"/><path d="M416.224 19.942l-58.64 77.524h58.64v8.745h-73.547l-.995-2.978 59.036-77.525H345.46v-8.75h69.97l.794 2.985z" fill="none" stroke="#fff" stroke-width="4.97054649"/><path d="M427.832 13.606h-9.543V2.486h9.542v11.12zm0 92.605h-9.543V16.96h9.542v89.253z" fill="#fff" stroke="#fff" stroke-width="4.9705935"/><path d="M441.355 32.464h.397c8.352-12.522 16.502-17.292 29.418-17.292 19.083 0 33.2 12.522 33.2 36.576v54.463h-9.544V55.326c0-20.078-8.548-30.81-24.25-30.81-12.92 0-21.272 6.158-29.22 19.08v62.616h-9.54V16.96h9.54v15.506z" fill="#fff"/><path d="M441.355 32.464h.397c8.352-12.522 16.502-17.292 29.418-17.292 19.083 0 33.2 12.522 33.2 36.576v54.463h-9.544V55.326c0-20.078-8.548-30.81-24.25-30.81-12.92 0-21.272 6.158-29.22 19.08v62.616h-9.54V16.96h9.54v15.506z" fill="none" stroke="#fff" stroke-width="4.97054649"/><path d="M582.025 58.305c0-29.815-20.473-43.133-39.556-43.133-23.657 0-40.95 19.08-40.95 45.32 0 27.628 18.686 47.506 44.527 47.506 12.92 0 23.852-3.774 34.388-11.924V85.338c-11.527 9.342-21.268 13.32-33.196 13.32-20.277 0-38.364-17.492-35.582-40.353h70.367zm-69.174-7.753c3.38-16.3 14.908-26.037 29.62-26.037 15.304 0 24.848 8.544 28.224 26.037H512.85z" fill="#fff"/><path d="M582.025 58.305c0-29.815-20.473-43.133-39.556-43.133-23.657 0-40.95 19.08-40.95 45.32 0 27.628 18.686 47.506 44.527 47.506 12.92 0 23.852-3.774 34.388-11.924V85.338c-11.527 9.342-21.268 13.32-33.196 13.32-20.277 0-38.364-17.492-35.582-40.353h70.367zm-69.174-7.753c3.38-16.3 14.908-26.037 29.62-26.037 15.304 0 24.848 8.544 28.224 26.037H512.85z" fill="none" stroke="#fff" stroke-width="4.97054649"/><path d="M12.037 32.663h.398c7.95-12.523 16.3-17.493 28.426-17.493 13.916 0 23.058 6.958 28.824 21.468C78.63 21.73 87.77 15.17 100.69 15.17c18.687 0 31.013 14.313 31.013 36.18v54.86h-9.544V55.523c0-17.89-7.553-31.01-23.255-31.01-10.933 0-18.092 5.96-27.037 20.872v60.823h-9.54V55.322c0-22.062-10.932-30.81-23.455-30.81-10.933 0-18.49 5.368-26.836 19.083v62.613h-9.54V16.96h9.54v15.703z" fill="#231f20"/><path d="M208.033 90.706c-4.77 3.778-10.536 7.95-12.724 7.95-1.59 0-2.185-.992-2.185-4.57v-55.66c0-18.684-16.698-23.253-27.828-23.253-9.74 0-17.89 2.782-28.823 9.54v9.74c10.535-7.954 17.69-11.33 27.23-11.33 13.32 0 19.878 6.36 19.878 18.287v11.33c-26.037 1.193-52.08 9.343-52.08 32.598 0 12.523 10.537 22.66 24.055 22.66 9.54 0 18.088-3.376 28.025-11.13.794 8.946 1.987 11.13 6.363 11.13 3.774 0 7.552-1.39 16.498-8.146l1.59-1.196v-7.95zm-24.45-2.188c-9.344 8.35-16.298 11.53-24.846 11.53-10.138 0-17.694-6.36-17.694-14.71 0-15.506 19.284-25.64 42.54-24.648v27.828z" fill="#231f20"/><path d="M265.718 126.685c0 10.535-11.928 17.292-30.213 17.292-19.68 0-30.614-5.962-30.614-16.497 0-14.908 21.273-16.498 32.402-16.498 16.104 0 28.426 3.18 28.426 15.703M275.06 16.96h-35.78c-28.623 0-37.966 16.895-37.966 31.802 0 10.737 5.962 24.452 23.853 29.62v.396c-10.535 3.184-17.89 6.56-17.89 14.51 0 6.163 4.97 10.54 14.513 12.724v.397c-16.698 2.585-26.04 10.338-26.04 21.668 0 12.72 11.727 23.853 39.157 23.853 25.046 0 39.953-9.74 39.953-26.04 0-37.77-58.438-13.916-58.438-33.397 0-17.292 50.685-4.17 50.685-44.128 0-8.945-3.774-15.702-12.322-23.652h20.276V16.96zm-17.095 31.606c0 13.12-10.732 23.853-23.853 23.853-13.518 0-23.656-10.934-23.656-24.252 0-12.92 10.138-23.258 23.46-23.258 13.317 0 24.05 10.535 24.05 23.656" fill="#231f20"/><path d="M343.278 90.706c-4.77 3.778-10.535 7.95-12.724 7.95-1.59 0-2.184-.992-2.184-4.57v-55.66c0-18.684-16.698-23.253-27.827-23.253-9.74 0-17.895 2.782-28.828 9.54v9.74c10.54-7.954 17.694-11.33 27.234-11.33 13.32 0 19.877 6.36 19.877 18.287v11.33c-26.037 1.193-52.078 9.343-52.078 32.598 0 12.523 10.534 22.66 24.052 22.66 9.54 0 18.088-3.376 28.025-11.13.795 8.946 1.987 11.13 6.36 11.13 3.777 0 7.556-1.39 16.5-8.146l1.59-1.196v-7.95zm-24.45-2.188c-9.344 8.35-16.298 11.53-24.846 11.53-10.142 0-17.694-6.36-17.694-14.71 0-15.506 19.284-25.64 42.54-24.648v27.828z" fill="#231f20"/><path d="M416.224 19.942l-58.64 77.524h58.64v8.745h-73.547l-.995-2.978 59.036-77.525H345.46v-8.75h69.97l.794 2.985z" fill="#d22027"/><path d="M427.832 13.606h-9.543V2.486h9.542v11.12zm0 92.605h-9.543V16.96h9.542v89.253zM441.355 32.464h.397c8.352-12.522 16.502-17.292 29.418-17.292 19.083 0 33.2 12.522 33.2 36.576v54.463h-9.544V55.326c0-20.078-8.548-30.81-24.25-30.81-12.92 0-21.272 6.158-29.22 19.08v62.616h-9.54V16.96h9.54v15.506z" fill="#231f20"/><path d="M582.025 58.305c0-29.815-20.473-43.133-39.556-43.133-23.657 0-40.95 19.08-40.95 45.32 0 27.628 18.686 47.506 44.527 47.506 12.92 0 23.852-3.774 34.388-11.924V85.338c-11.527 9.342-21.268 13.32-33.196 13.32-20.277 0-38.364-17.492-35.582-40.353h70.367zm-69.174-7.753c3.38-16.3 14.908-26.037 29.62-26.037 15.304 0 24.848 8.544 28.224 26.037H512.85z" fill="#231f20"/></svg>