<svg xmlns="http://www.w3.org/2000/svg" width="400" height="97.968"><defs><clipPath id="a"><path d="M909.816 1573.05H114.47v-175.217h795.346v175.217z"/></clipPath><clipPath id="b"><path d="M794.988 1573.05h-606.78v-142.363h606.78v142.362z"/></clipPath><clipPath id="c"><path d="M0 1620.015h828V.015H0v1620z"/></clipPath></defs><path d="M244.237 75.782l-.687-.046-1.633-.11c-.055-.005-.11-.01-.162-.012-.25-.804-.79-1.426-2.153-1.426h-30.545v-3.134h.65c2.706 0 4.028-1.44 4.028-4.397V33.865c0-2.71-1.413-4.327-3.776-4.327h-.973v-2.803h32.07l4.71-.613-1.27 9.888-.984-.128-.77-.102-.38-.052c.057-.466.092-.918.092-1.32 0-1.377-.31-2.4-.95-3.205-.49-.612-1.16-1.063-2.055-1.37-.983-.334-2.238-.493-3.826-.493h-13.257v17.745h11.167c2.202 0 2.768-1.708 2.943-3.007.747.07 1.32.134 2.084.204l-1.285 10.538-1.167-.1-.91-.077c.02-.275.034-.57.034-.882 0-.386-.02-.782-.09-1.12-.545-2.95-3.768-2.95-4.832-2.95h-7.943v21.364h12.18c6.747 0 8.83-2.942 10.117-8.674.755.15 1.44.282 2.237.438-.328 1.595-2.382 11.61-2.663 12.964m0 0c.28-1.354 2.335-11.37 2.664-12.964l-2.236-.438c.755.15 1.44.282 2.238.438-.33 1.595-2.384 11.61-2.665 12.964m-.687-.046l-1.633-.11 1.633.11m-9.002-4.682h-12.18V49.69v21.364h12.18m2.727-16.234c.174-1.44 1.097-8.99 1.286-10.538-.762-.07-1.336-.134-2.083-.204.748.07 1.32.134 2.084.204l-1.285 10.538m-1.167-.1l-.91-.077.91.077m-2.575-7.635h-11.166V29.34h13.257c1.588 0 2.843.16 3.826.494-.983-.335-2.237-.494-3.826-.494h-13.257v17.745h11.166m10.964-11.075l1.27-9.888-1.27 9.888m-.984-.128l-.77-.102c.267.036.518.07.77.102M300.777 74.188h-5c-.55-.72-29.384-38.347-29.384-38.347v30.754c0 3.38 1.692 4.587 3.273 4.587h1.852v3.008h-13.885V71.18h1.286c2.216 0 3.643-1.75 3.643-4.453v-32.8c0-3.888-2.4-4.192-3.134-4.192h-1.985v-3h14.752c.376.897 1.244 2.67 3.117 5.217l21.45 28.274v-26.89c0-2.216-1.202-3.6-3.14-3.6h-1.79v-3h13.878v3h-1.6c-2.475 0-3.58 1.397-3.58 4.524v37.668c0 .637.12 1.54.245 2.26m0 0c-.126-.72-.245-1.623-.245-2.26V34.26c0-3.127 1.105-4.525 3.58-4.525-2.474 0-3.58 1.398-3.58 4.525v37.668c0 .637.12 1.54.245 2.26m-29.258 0h-.002V71.18h-1.852c-1.58 0-3.273-1.206-3.273-4.586V35.84 66.595c0 3.38 1.692 4.587 3.273 4.587h1.853v3.008m25.244-13.962l-21.45-28.275c-1.873-2.547-2.74-4.318-3.117-5.215h-14.753 14.753c.376.897 1.245 2.668 3.118 5.217l21.45 28.274m8.948-30.49v-3h-13.878 13.878v3M315.816 75.48c-.343-1.44-2.58-10.722-2.965-12.296.875-.198 1.79-.4 2.617-.585.587 2.243 1.474 4.48 3.753 6.11 2.97 2.084 5.72 2.937 9.5 2.937h.002c5.37 0 8.704-3.147 8.704-8.216 0-3.224-2.307-6.3-6.32-8.433-2.656-1.42-7.894-4.58-9.74-5.76-3.453-2.223-6.95-6.43-6.95-10.827 0-8.928 7.58-12.994 14.62-12.994 2.95 0 5.335.508 7.25.91 1.252.27 2.238.48 3.056.48h.238c1.097 0 1.985-.042 2.502-1.015.602.05 1.266.09 2.063.148-.147 1.546-.833 9.134-.964 10.594-.782-.05-1.496-.09-2.37-.14.028-.255.063-.494.063-.777 0-1.214-.252-2.647-1-3.607-1.35-1.686-3.705-3.917-8.683-3.917-5.454 0-8.39 3.347-8.39 6.502 0 3.1.86 5.4 5.27 8.018l10.49 6.317c3.535 2.138 7.752 6.04 7.752 12.465 0 6.67-4.573 13.848-14.62 13.848-4.11 0-6.445-.643-8.144-1.115-.937-.26-1.684-.467-2.41-.467-.687 0-2.317.015-2.806 1.328-.643.12-1.664.325-2.516.493m0 0c.852-.17 1.873-.374 2.516-.494.49-1.313 2.12-1.328 2.805-1.328-.687 0-2.316.016-2.804 1.328-.643.12-1.665.325-2.517.493m15.878-.24c10.045 0 14.618-7.18 14.618-13.848 0-6.424-4.217-10.327-7.753-12.465l-10.49-6.317c-4.41-2.62-5.27-4.92-5.27-8.018 0-3.155 2.936-6.5 8.39-6.5-5.453 0-8.39 3.345-8.39 6.5 0 3.1.86 5.4 5.272 8.018l10.487 6.317c3.535 2.138 7.752 6.04 7.752 12.465 0 6.67-4.573 13.848-14.618 13.848m-2.973-3.593c-3.78 0-6.53-.853-9.5-2.936-2.28-1.63-3.166-3.867-3.753-6.11.587 2.243 1.475 4.48 3.753 6.11 2.972 2.084 5.72 2.937 9.502 2.937m14.46-35.115c.13-1.46.816-9.048.964-10.594-.798-.057-1.462-.1-2.064-.147.602.05 1.266.09 2.064.148-.147 1.546-.833 9.134-.965 10.594m-3.6-9.725h-.238c-.818 0-1.804-.212-3.055-.48-1.915-.403-4.3-.91-7.25-.91 2.95 0 5.335.507 7.25.91 1.25.268 2.238.48 3.056.48h.237M32.454 75.925c-.755-.05-1.95-.127-2.67-.178-.357-1.418-1.56-1.424-2.818-1.424H.126v-3.29h1.482c2.978 0 3.384-2.28 3.384-4.51v-32.39c0-2.703-1.35-4.25-3.698-4.25H0v-3.288h18.89v3.29h-2.18c-2.315 0-3.44 1.213-3.44 3.72v37.428h10.208c4.894 0 7.753-2.76 9.23-8.83.726.148 1.676.34 2.466.494-.287 1.39-2.475 12.04-2.72 13.228m0 0l2.72-13.228c-.79-.155-1.74-.346-2.467-.493.727.147 1.677.338 2.467.494-.287 1.39-2.474 12.04-2.72 13.227m-8.977-4.892H13.27v-37.43c0-2.505 1.125-3.718 3.44-3.718-2.315 0-3.44 1.213-3.44 3.72v37.428h10.208M18.89 29.885v-3.29H0h18.89v3.29M88.337 74.188H69.593V71.18h.713c1.7 0 2.496-.71 2.866-1.304.21-.34.4-.827.4-1.477 0-.53-.127-1.17-.463-1.94L70.654 60.6l-.602.02h-17.26l-.232.607c-.886 2.336-1.264 3.705-1.447 4.36l-.09.306c-.518 1.41-.964 3.047-.216 4.177.657.995 1.915 1.108 2.81 1.108h.65v3.008H41.585V71.18h.587c2.336 0 2.86-1.268 4.14-4.332.81-1.97 2.67-6.833 4.817-12.466 3.27-8.553 7.332-19.197 9.472-24.28.608-1.425.825-2.583.908-3.367h5.517c1.817 4.645 13.835 35.348 15.64 39.59 1.35 3.22 2.544 4.856 5.334 4.856h.337v3.008M55.575 55.993H67.9c-1.202-3.558-6.13-16.53-6.13-16.53s-5.12 13.565-6.195 16.53m32.762 18.195V71.18H88c-2.79 0-3.984-1.636-5.333-4.854-1.805-4.243-13.823-34.946-15.64-39.59H61.51h5.517c1.817 4.644 13.836 35.347 15.64 39.59 1.35 3.218 2.545 4.855 5.334 4.855h.337v3.008m-34.07 0V71.18h-.65c-.895 0-2.153-.112-2.81-1.107-.748-1.13-.302-2.767.216-4.177l.09-.306c.183-.655.56-2.024 1.448-4.36l.232-.608-.23.607c-.888 2.336-1.266 3.705-1.448 4.36l-.09.306c-.518 1.41-.965 3.047-.217 4.177.657.995 1.915 1.108 2.81 1.108h.65v3.008m15.787-13.566l.6-.02-.6.02m-14.48-4.63c1.077-2.964 6.195-16.53 6.195-16.53-.033.086-5.122 13.575-6.195 16.53M400 74.188h-18.744V71.18h.713c1.698 0 2.502-.71 2.865-1.304.21-.34.4-.827.4-1.477 0-.53-.127-1.17-.462-1.94l-2.455-5.858-.6.02h-17.263l-.23.607c-.882 2.336-1.265 3.705-1.448 4.36l-.083.306c-.525 1.41-.973 3.047-.225 4.177.656.995 1.915 1.108 2.81 1.108h.65v3.008h-12.682V71.18h.587c2.335 0 2.86-1.268 4.147-4.332.804-1.97 2.663-6.833 4.817-12.466 3.264-8.553 7.333-19.197 9.464-24.28.61-1.425.826-2.583.91-3.367h5.516c1.817 4.645 13.836 35.348 15.64 39.59 1.35 3.22 2.544 4.856 5.334 4.856H400v3.008m-32.762-18.195h12.326c-1.195-3.558-6.13-16.53-6.13-16.53s-5.12 13.565-6.196 16.53m0 0c1.076-2.965 6.195-16.53 6.195-16.53-.04.104-5.123 13.576-6.195 16.53m-1.308 18.195V71.18h-.65c-.895 0-2.154-.112-2.81-1.107-.75-1.13-.3-2.767.224-4.177l.083-.306c.182-.655.566-2.024 1.447-4.36l.23-.608-.23.607c-.88 2.336-1.265 3.705-1.446 4.36l-.084.306c-.525 1.41-.973 3.047-.225 4.177.656.995 1.916 1.108 2.81 1.108h.65v3.008M400 71.18h-.336c-2.79 0-3.985-1.636-5.335-4.854-1.805-4.243-13.823-34.946-15.64-39.59h-5.517 5.517c1.818 4.644 13.835 35.347 15.64 39.59 1.35 3.218 2.544 4.855 5.334 4.855H400m-18.283-10.558l.6-.02-.6.02M126.95 74.308h-19.01v-3.296h1.105c1.595 0 3.504-.677 3.504-3.91v-32.63c0-3.035-1.205-4.574-3.567-4.574h-1.112v-3.29h24.666c9.872 0 16.766 5.697 16.766 13.85 0 9.048-7.984 15.358-19.415 15.358h-8.495v11.09c0 2.06.87 3.454 2.383 3.927.377.118.793.18 1.246.18h1.93v3.295m.09-22.798c6.574 0 11.873-2.174 11.873-10.263 0-5.922-3.216-10.263-10.732-10.263h-5.998V51.51h4.86m-.092 22.798v-3.296 3.296m-3.175-3.475c-1.513-.473-2.383-1.866-2.383-3.928v-11.09h8.495c11.43 0 19.415-6.31 19.415-15.358 0-8.152-6.894-13.848-16.766-13.848H107.87h24.666c9.872 0 16.766 5.695 16.766 13.847 0 9.05-7.984 15.36-19.415 15.36h-8.494v11.088c0 2.062.87 3.454 2.382 3.928m3.266-19.323h-4.858V30.984 51.51h4.86M197.032 77.81c-10.145-5.52-16.96-12.86-21.38-23.074l-.25-.572h-6.147v13.023c0 3.48 2.133 3.994 3.4 3.994h1.724v3.008h-18.437V71.18h1.098c2.378 0 3.588-1.276 3.588-3.796V34.062c0-2.95-1.182-4.327-3.713-4.327h-.972v-3h25.498c11.187 0 16.2 6.46 16.2 12.86 0 5.91-3.46 9.91-11.222 12.987l-.867.347.33.902c1.37 3.756 3.097 7.222 5.28 10.602 4.11 6.325 5.473 8.11 7.983 10.82-.608.74-1.56 1.884-2.112 2.555m-20.84-27.48c5.125 0 11.194-2.9 11.194-10.403 0-6.795-3.658-9.223-11.198-9.223-.206 0-.414.002-.624.006-.107.003-.215.006-.324.007-.778.016-1.55.022-2.25.022-1.593 0-2.803-.03-2.803-.03v19.622h6.005m20.842 27.477c.552-.672 1.503-1.814 2.11-2.556-2.51-2.71-3.872-4.495-7.983-10.82-2.183-3.38-3.91-6.846-5.28-10.6l-.328-.905.867-.347c7.76-3.077 11.22-7.08 11.22-12.987 0-6.4-5.013-12.86-16.2-12.86h-25.497 25.5c11.185 0 16.198 6.46 16.198 12.86 0 5.908-3.46 9.91-11.22 12.987l-.868.346.328.903c1.37 3.755 3.098 7.22 5.28 10.6 4.11 6.326 5.473 8.11 7.984 10.82-.61.743-1.56 1.885-2.112 2.556m-22.65-3.62l-.002-3.008h-1.725c-1.266 0-3.4-.515-3.4-3.995V54.164v13.023c0 3.48 2.134 3.995 3.4 3.995h1.727v3.007m1.808-23.858h-6.004V30.71v19.622h6.004m-.952-19.615l.324-.007c.21-.004.418-.006.623-.006-.205 0-.41.002-.623.006-.107.003-.215.006-.324.007" fill="#3157a9"/><path d="M103.64 95.604h2.82l.047-.15c-.99-.177-1.153-.53-.443-1.662l.84-1.376h2.76l.234 2c.093.766-.07.977-1.178 1.037l-.045.15h3.658l.046-.15c-.886-.118-.98-.27-1.097-1.13l-.954-7.058h-.526l-3.973 6.328c-.733 1.176-1.245 1.684-2.142 1.86l-.047.15zm5.99-3.433h-2.588l2.133-3.446h.046l.41 3.447zm6.583-5l-2.435.12v.14c.86.044 1.07.222.978.598l-.57 2.19-1.234 4.13c-.06.2-.094.387-.094.54 0 .53.337.798 1 .798.514 0 1.177-.2 1.4-.293v-.116c-.898.058-1.202-.048-1.202-.424 0-.14.035-.306.083-.494l2.073-7.19zm1.61 8.634h.185l.653-.61c.525.306 1.446.575 2.26.575 2.087 0 3.053-1.4 3.053-2.8 0-1.048-.71-1.612-1.735-2.154-.92-.493-1.655-.882-1.655-1.752 0-.918.698-1.6 1.608-1.6.922 0 1.48.424 2.097 2.33h.198l.64-2.623h-.185l-.675.577c-.456-.248-1.05-.505-1.864-.505-1.748 0-2.946 1.27-2.946 2.61 0 1.07.686 1.53 1.757 2.07 1.202.6 1.692 1.166 1.692 1.977 0 .918-.7 1.66-1.795 1.66-1.118 0-1.736-.613-2.364-2.602h-.176l-.745 2.846zm11.895-4.493c0-.694-.524-1.21-1.585-1.21-1.888 0-3.332 1.776-3.332 3.552 0 1.412.956 2.057 2.016 2.057.944 0 1.726-.457 2.354-1.316l-.15-.13c-.443.6-1.108.99-1.713.99-.933 0-1.272-.544-1.272-1.625 0-.214.012-.437.058-.662 2.484.048 3.625-.74 3.625-1.657m-1.643-.965c.35 0 .583.2.583.658 0 .78-.373 1.744-2.53 1.78.28-1.272 1.13-2.438 1.947-2.438m5.99-.233c-.63 0-1.316.622-1.83 1.34l-.023-.024.385-1.27-2.11.105v.142c.722.047.84.223.734.598l-.72 2.694-.56 1.907h1.27l.932-3.823c.467-.552 1.05-1.046 1.503-1.07-.116.13-.15.353-.15.47 0 .424.29.624.687.624.43 0 .745-.364.745-.895 0-.434-.292-.798-.863-.798m2.924 5.644l1.9-2.54c1.06-1.41 1.246-1.823 1.246-2.35 0-.4-.29-.778-.72-.778-.443 0-.71.318-.71.74 0 .377.22.647.604.835-.128.425-.443 1.12-1.282 2.26l-.687.95h-.072l-.046-1.103-.374-3.623-1.956.2v.14c.687-.012.815.094.874.564l.338 2.8.082 1.824.802.082zm5.467-7.374c0 .41.28.634.58.634.48 0 .862-.493.862-1.034 0-.41-.266-.61-.57-.61-.476 0-.872.47-.872 1.01zm.628 6.906c-.874.047-1.166-.035-1.166-.4 0-.13.035-.306.105-.518l1.283-4.21-2.366.103v.142c.722.047 1.023.21.907.598l-1.024 3.344c-.06.212-.094.388-.094.553 0 .517.338.8 1 .8.514 0 1.132-.2 1.353-.295v-.117zm4.01-5.188c-1.692 0-3.09 1.67-3.09 3.41 0 1.343.92 2.2 2.132 2.2.933 0 1.678-.47 2.25-1.35l-.163-.12c-.42.613-1 1.024-1.62 1.024-.92 0-1.365-.6-1.365-1.682 0-1.353.84-3.26 1.936-3.26.316 0 .525.105.664.283-.303.15-.477.494-.477.717 0 .425.28.67.686.67.42 0 .687-.34.687-.753 0-.66-.628-1.14-1.64-1.14m4.042-1.718c0 .41.28.634.583.634.477 0 .86-.493.86-1.034 0-.41-.267-.61-.57-.61-.477 0-.873.47-.873 1.01zm.628 6.906c-.873.047-1.166-.035-1.166-.4 0-.13.035-.306.105-.518l1.284-4.21-2.365.103v.142c.72.047 1.025.21.908.598l-1.024 3.344c-.058.212-.093.388-.093.553 0 .517.338.8 1 .8.515 0 1.132-.2 1.353-.295v-.117zm4.033-5.188c-1.97 0-3.123 1.764-3.123 3.352 0 1.366.838 2.257 2.084 2.257 1.96 0 3.112-1.776 3.112-3.353 0-1.364-.83-2.257-2.074-2.257m-1.05 5.376c-.63 0-.92-.47-.92-1.354 0-1.235.687-3.8 1.97-3.8.642 0 .92.483.92 1.365 0 1.236-.687 3.79-1.97 3.79m12.387-8.306l-2.435.12v.14c.86.044 1.083.222.99.61l-.7 2.66c-.255-.355-.547-.6-1.223-.6-1.55 0-3.074 1.906-3.074 3.646 0 1.19.663 1.963 1.57 1.963.677 0 1.19-.376 1.693-1.045l.023.01c-.023.12-.023.213-.023.284 0 .526.3.74.93.74.467 0 1.015-.165 1.212-.248v-.118c-.815.06-1.05-.093-1.05-.446 0-.154.05-.352.118-.6l1.97-7.117zm-3.192 3.2c.466 0 .78.41.908.905l-.85 2.955c-.327.575-.7.88-1.14.88-.573 0-.91-.445-.91-1.27 0-1.176.79-3.47 1.993-3.47m7.806.94c0-.694-.524-1.21-1.584-1.21-1.888 0-3.33 1.776-3.33 3.552 0 1.412.953 2.057 2.014 2.057.943 0 1.724-.457 2.354-1.316l-.15-.13c-.445.6-1.11.99-1.714.99-.934 0-1.272-.544-1.272-1.625 0-.214.012-.437.06-.662 2.48.048 3.622-.74 3.622-1.657m-1.64-.965c.347 0 .582.2.582.658 0 .78-.374 1.744-2.53 1.78.28-1.272 1.13-2.438 1.947-2.438m7.584-3.174l-2.435.12v.14c.86.044 1.07.222.978.598l-.572 2.19-1.234 4.13c-.057.2-.092.387-.092.54 0 .53.338.798 1 .798.514 0 1.178-.2 1.4-.293v-.116c-.9.058-1.2-.048-1.2-.424 0-.14.034-.306.08-.494l2.075-7.19zm5.044 4.823l.628-1.893-1.222.14-.21.612c-.222-.447-.5-.752-1.177-.752-1.55 0-3.133 1.88-3.133 3.728 0 1.19.617 1.88 1.55 1.88.676 0 1.176-.303 1.724-1.09l.024.012c-.048.188-.06.305-.06.4 0 .527.327.67.92.67.385 0 .874-.13 1.178-.248v-.117c-.723.058-1.014-.023-1.014-.364 0-.152.047-.364.115-.612l.677-2.365zm-1.816-1.623c.43 0 .756.41.837 1l-.826 2.788c-.328.577-.746 1.036-1.202 1.036-.57 0-.85-.53-.85-1.354 0-1.176.885-3.47 2.04-3.47m7.047 5.386l1.9-2.54c1.06-1.41 1.247-1.823 1.247-2.35 0-.4-.29-.778-.723-.778-.442 0-.71.318-.71.74 0 .377.22.647.605.835-.13.425-.442 1.12-1.282 2.26l-.688.95h-.07l-.046-1.103-.374-3.623-1.956.2v.14c.687-.012.815.094.874.564l.338 2.8.08 1.824.803.082zm8.297-4.445c0-.694-.524-1.21-1.583-1.21-1.89 0-3.334 1.776-3.334 3.552 0 1.412.954 2.057 2.015 2.057.945 0 1.727-.457 2.355-1.316l-.152-.13c-.44.6-1.107.99-1.713.99-.933 0-1.27-.544-1.27-1.625 0-.214.01-.437.058-.662 2.484.048 3.624-.74 3.624-1.657m-1.643-.965c.35 0 .583.2.583.658 0 .78-.372 1.744-2.53 1.78.28-1.272 1.13-2.438 1.946-2.438m5.99-.233c-.63 0-1.317.622-1.83 1.34l-.023-.024.384-1.27-2.108.105v.142c.723.047.84.223.733.598l-.72 2.694-.56 1.907h1.27l.932-3.823c.466-.552 1.048-1.046 1.503-1.07-.116.13-.15.353-.15.47 0 .424.29.624.686.624.43 0 .745-.364.745-.895 0-.434-.29-.798-.86-.798m7.117-2.94l-2.433.117v.14c.86.044 1.082.222.988.61l-.698 2.66c-.256-.355-.547-.6-1.223-.6-1.55 0-3.075 1.906-3.075 3.646 0 1.19.664 1.963 1.572 1.963.676 0 1.19-.376 1.692-1.045l.02.01c-.02.12-.02.213-.02.284 0 .526.3.74.93.74.465 0 1.013-.165 1.21-.248v-.118c-.815.06-1.048-.093-1.048-.446 0-.153.046-.352.116-.6l1.97-7.117zm-3.19 3.198c.465 0 .78.41.907.905l-.85 2.955c-.326.575-.7.88-1.142.88-.572 0-.91-.445-.91-1.27 0-1.176.793-3.47 1.994-3.47m8.05 1.623l.63-1.893-1.223.14-.21.612c-.222-.447-.5-.752-1.177-.752-1.55 0-3.133 1.88-3.133 3.728 0 1.19.616 1.88 1.548 1.88.678 0 1.178-.303 1.727-1.09l.023.012c-.046.188-.058.305-.058.4 0 .527.325.67.92.67.384 0 .874-.13 1.176-.248v-.117c-.722.058-1.013-.023-1.013-.364 0-.152.046-.364.116-.612l.676-2.365zm-1.816-1.623c.43 0 .756.41.838 1l-.826 2.788c-.326.577-.747 1.036-1.2 1.036-.572 0-.853-.53-.853-1.354 0-1.176.886-3.47 2.04-3.47m9.367-3.2l-2.434.12v.14c.86.044 1.082.222.99.61l-.7 2.66c-.255-.355-.547-.6-1.223-.6-1.55 0-3.075 1.906-3.075 3.646 0 1.19.664 1.963 1.57 1.963.68 0 1.192-.376 1.693-1.045l.024.01c-.024.12-.024.213-.024.284 0 .526.303.74.93.74.467 0 1.015-.165 1.212-.248v-.118c-.815.06-1.05-.093-1.05-.446 0-.153.048-.352.118-.6l1.97-7.117zm-3.19 3.2c.464 0 .778.41.907.905l-.85 2.955c-.326.575-.7.88-1.142.88-.57 0-.91-.445-.91-1.27 0-1.176.793-3.47 1.995-3.47m6.826-.223l-1.945.2v.14c.687-.012.827.106.908.564l.442 2.437.478 2.79c-.628.976-1.246 1.246-1.69 1.317.094-.106.176-.306.176-.517 0-.448-.304-.73-.687-.73-.397 0-.71.34-.71.753 0 .494.326.857.99.857.872 0 1.676-.493 3.636-3.623 1.433-2.282 1.607-2.8 1.607-3.41 0-.447-.27-.836-.722-.836-.42 0-.687.318-.687.74 0 .377.256.707.687.85-.058.457-.292 1.21-1.024 2.375l-.652 1.023h-.024l-.383-2.564-.397-2.365zM233 87.17l-2.433.12v.14c.86.044 1.07.222.977.598l-.57 2.19-1.234 4.13c-.06.2-.094.387-.094.54 0 .53.338.798 1.002.798.512 0 1.175-.2 1.397-.293v-.116c-.897.058-1.2-.048-1.2-.424 0-.14.035-.306.08-.494l2.076-7.19zm5.047 4.823l.628-1.893-1.222.14-.21.612c-.222-.447-.502-.752-1.178-.752-1.55 0-3.133 1.88-3.133 3.728 0 1.19.618 1.88 1.55 1.88.674 0 1.177-.303 1.725-1.09l.024.012c-.046.188-.058.305-.058.4 0 .527.326.67.92.67.383 0 .873-.13 1.176-.248v-.117c-.723.058-1.014-.023-1.014-.364 0-.152.046-.364.116-.612l.677-2.365zm-1.816-1.623c.43 0 .756.41.836 1l-.825 2.788c-.325.577-.745 1.036-1.2 1.036-.57 0-.85-.53-.85-1.354 0-1.176.886-3.47 2.04-3.47m6.828-1.988c0 .41.28.634.583.634.478 0 .86-.493.86-1.034 0-.41-.266-.61-.568-.61-.478 0-.874.47-.874 1.01zm-2.82 9.586c1.352 0 1.98-.785 2.447-2.634l1.282-5.175-2.307.103v.142c.77.047 1.003.246.92.553l-1.154 4.753c-.396 1.613-.687 2.025-1.143 2.025-.197 0-.303-.047-.383-.106.174-.107.313-.33.313-.578 0-.33-.22-.635-.627-.635-.396 0-.664.295-.664.67 0 .553.51.88 1.315.88m4.604-4.127c-.09.27-.138.53-.138.754 0 .66.37 1.115 1.186 1.115.653 0 1.41-.433 2.087-1.187l.024.024c-.06.188-.094.34-.094.482 0 .47.36.68.954.68.466 0 1.002-.175 1.2-.258v-.117c-.758.058-1.025-.023-1.025-.364 0-.14.047-.317.117-.552l1.27-4.236h-1.248l-.478 1.86-.65 2.2c-.537.505-.97.775-1.434.775-.468 0-.7-.187-.7-.588 0-.14.035-.39.116-.638l1.132-3.633-2.168.103v.142c.72.047.874.235.745.623l-.896 2.812zm7.702 1.87c1.632 0 2.272-.905 2.272-1.8 0-.752-.56-1.128-1.28-1.493-.56-.294-1.097-.564-1.097-1.12 0-.54.408-.976 1.084-.976.327 0 .735.12.853.32-.268.188-.338.47-.338.61 0 .318.268.59.605.59.453 0 .664-.318.664-.706 0-.565-.664-1.034-1.643-1.034-1.363 0-2.12.8-2.12 1.776 0 .765.582 1.13 1.27 1.46.57.293 1.11.552 1.11 1.13 0 .598-.48 1.022-1.203 1.022-.373 0-.85-.153-.99-.353.21-.164.325-.376.325-.6 0-.354-.256-.612-.617-.612-.42 0-.686.34-.686.753 0 .66.848 1.033 1.792 1.033m7.247-5.235l.08-.257h-1.456l.607-1.93-1.27.19-.5 1.74h-1.025l-.082.257h1.036l-1.037 3.59c-.068.247-.103.47-.103.67 0 .623.36.974 1.163.974.688 0 1.363-.364 1.737-.585v-.12c-.34.094-.758.165-1.038.165-.43 0-.64-.164-.64-.54 0-.165.034-.365.104-.614l.978-3.54h1.445zm1.842-2.093c0 .41.28.634.582.634.478 0 .86-.493.86-1.034 0-.41-.266-.61-.57-.61-.476 0-.872.47-.872 1.01zm.628 6.906c-.873.047-1.165-.035-1.165-.4 0-.13.035-.306.105-.518l1.282-4.21-2.366.103v.142c.723.047 1.025.21.91.598L260 94.347c-.058.212-.093.388-.093.553 0 .517.338.8 1.002.8.512 0 1.13-.2 1.35-.295v-.117zm4.01-5.188c-1.692 0-3.088 1.67-3.088 3.41 0 1.343.92 2.2 2.13 2.2.934 0 1.68-.47 2.25-1.35l-.163-.12c-.42.613-1.002 1.024-1.62 1.024-.922 0-1.365-.6-1.365-1.682 0-1.353.84-3.26 1.936-3.26.315 0 .525.105.665.283-.303.15-.477.494-.477.717 0 .425.28.67.687.67.42 0 .686-.34.686-.753 0-.66-.627-1.14-1.64-1.14m4.042-1.718c0 .41.28.634.583.634.477 0 .86-.493.86-1.034 0-.41-.267-.61-.57-.61-.477 0-.873.47-.873 1.01zm.63 6.906c-.875.047-1.167-.035-1.167-.4 0-.13.035-.306.105-.518l1.282-4.21-2.364.103v.142c.72.047 1.024.21.908.598l-1.024 3.344c-.06.212-.094.388-.094.553 0 .517.338.8 1 .8.515 0 1.133-.2 1.354-.295v-.117zM277 91.993l.628-1.893-1.222.14-.21.612c-.223-.447-.502-.752-1.177-.752-1.552 0-3.134 1.88-3.134 3.728 0 1.19.616 1.88 1.55 1.88.674 0 1.176-.303 1.724-1.09l.023.012c-.046.188-.058.305-.058.4 0 .527.327.67.92.67.383 0 .873-.13 1.175-.248v-.117c-.722.058-1.013-.023-1.013-.364 0-.152.047-.364.117-.612l.675-2.365zm-1.817-1.623c.43 0 .757.41.84 1l-.828 2.788c-.326.577-.746 1.036-1.2 1.036-.572 0-.853-.53-.853-1.354 0-1.176.887-3.47 2.04-3.47M49.92 13.02h6.6l.052-2.614-.15-.01c-.664 1.68-1.24 2.415-2.764 2.415h-1.283V9.155h.587c.903 0 1.382.34 1.677 1.505h.14V7.44h-.14c-.296 1.164-.775 1.505-1.678 1.505h-.587V5.575h1.306c1.294 0 1.795.724 2.427 2.284l.15-.023-.033-2.47H49.92v.13c.945.034 1.183.287 1.183.725v5.93c0 .45-.238.693-1.184.725v.142zm8.84 0h6.22l.108-2.57-.152-.01c-.74 1.856-1.37 2.37-2.87 2.37h-.85V6.223c0-.46.13-.69 1.12-.724v-.13h-3.575v.13c.947.033 1.186.285 1.186.724v5.93c0 .45-.24.693-1.185.725v.142zm11.56 0h3.534c2.775 0 3.97-1.933 3.97-3.964 0-2.11-1.402-3.688-4.1-3.688H70.32v.13c.947.033 1.186.285 1.186.724v5.93c0 .45-.24.693-1.185.725v.142zm2.458-.21V5.576h.76c1.904 0 2.852.713 2.852 3.57 0 2.82-.707 3.666-2.885 3.666h-.727zm7.265.21h3.696v-.143c-.99-.032-1.218-.274-1.218-.724v-5.93c0-.44.228-.692 1.217-.725v-.13h-3.697v.13c.99.033 1.22.285 1.22.724v5.93c0 .45-.23.693-1.22.725v.142zm10.56-1.044c.216.616.064.846-.97.9v.143h3.57v-.143c-.84-.12-1.002-.307-1.274-1.054L89.49 5.148h-.456l-2.317 5.917c-.456 1.186-.848 1.615-1.565 1.812v.142H87.7v-.143c-.992-.164-1.177-.538-.686-1.834l.37-.956h2.565l.652 1.89zM87.46 9.87l1.24-3.24h.042l1.132 3.24H87.46zm9.602-.803V5.575h.773c1.468 0 1.905.658 1.905 1.702 0 1.164-.307 1.79-1.763 1.79h-.915zm0 .208h.827c1.262 0 1.556.285 1.676 1.395l.108 1.01c.108.99.326 1.394 1.5 1.394.358 0 .75-.033 1.12-.12v-.132c-.936-.01-1.11-.142-1.262-1.12l-.077-.626c-.15-1.11-.53-1.834-2.14-1.888v-.033c1.674-.252 2.304-.988 2.304-1.933 0-1.033-.85-1.854-3.09-1.854h-3.424v.13c.946.033 1.186.286 1.186.724v5.93c0 .45-.24.693-1.186.725v.142h3.6v-.143c-.916-.032-1.144-.252-1.144-.725V9.275zm6.69 3.744h3.697v-.143c-.992-.032-1.22-.274-1.22-.724v-5.93c0-.44.228-.692 1.22-.725v-.13h-3.698v.13c.99.033 1.218.285 1.218.724v5.93c0 .45-.228.693-1.218.725v.142zm9.602.185c1.947 0 3.676-1.613 3.676-4.028 0-2.44-1.675-3.996-3.676-3.996-1.957 0-3.687 1.613-3.687 4.03 0 2.437 1.675 3.995 3.687 3.995m.044-.206c-1.36 0-2.285-.935-2.285-3.812 0-2.856.837-3.8 2.188-3.8 1.36 0 2.295.933 2.295 3.81 0 2.856-.848 3.8-2.197 3.8m9.125.02h3.534c2.773 0 3.97-1.93 3.97-3.962 0-2.11-1.404-3.688-4.1-3.688h-3.404v.13c.946.033 1.185.286 1.185.724v5.93c0 .45-.24.693-1.185.725v.142zm2.456-.207V5.576h.76c1.905 0 2.85.713 2.85 3.57 0 2.82-.705 3.666-2.882 3.666h-.73zm7.19.21h6.6l.054-2.614-.152-.01c-.663 1.68-1.24 2.415-2.76 2.415h-1.286V9.155h.588c.903 0 1.38.34 1.676 1.505h.14V7.44h-.14c-.295 1.164-.773 1.505-1.676 1.505h-.588V5.575h1.307c1.293 0 1.792.724 2.425 2.284l.15-.023-.03-2.47h-6.308v.13c.946.034 1.184.287 1.184.725v5.93c0 .45-.238.693-1.184.725v.142zm12.18 0h6.22l.108-2.57-.153-.01c-.74 1.856-1.37 2.37-2.87 2.37h-.85V6.223c0-.46.13-.69 1.12-.724v-.13h-3.576v.13c.946.033 1.185.285 1.185.724v5.93c0 .45-.24.693-1.186.725v.142zm12.027.185c1.948 0 3.674-1.613 3.674-4.028 0-2.44-1.67-3.996-3.673-3.996-1.958 0-3.685 1.613-3.685 4.03 0 2.437 1.673 3.995 3.685 3.995m.044-.206c-1.358 0-2.284-.935-2.284-3.812 0-2.856.84-3.8 2.187-3.8 1.36 0 2.295.933 2.295 3.81 0 2.856-.848 3.8-2.197 3.8m6.08.218h.13l.653-.536c.478.274 1.208.493 1.827.493 1.882 0 2.588-1.317 2.588-2.525 0-1.427-1.108-1.812-2.142-2.163-1.25-.418-1.958-.77-1.958-1.713 0-.868.675-1.35 1.415-1.35.88 0 1.577.724 2.176 2.173h.148V5.148h-.128l-.392.44c-.39-.19-.99-.374-1.63-.374-1.47 0-2.57.9-2.57 2.348 0 1.417 1.133 1.768 2.22 2.153 1.35.472 2.003.856 2.003 1.822 0 .693-.534 1.417-1.6 1.417-1.164 0-1.935-1.02-2.588-2.482h-.15v2.744M221.828 13.184h.358V7.19c0-1.077.25-1.517 1.27-1.692v-.13h-2.988v.13c1.088.153 1.458.615 1.458 1.69v3.975h-.01l-4.32-5.795h-2.315v.13c.937.044 1.33.592 1.33 1.274v4.413c0 1.078-.306 1.528-1.33 1.692v.142h2.98v-.143c-1.11-.153-1.392-.614-1.392-1.69v-4.58h.01l4.95 6.577m3.48-.165h3.697v-.143c-.99-.032-1.22-.274-1.22-.724v-5.93c0-.44.23-.692 1.22-.725v-.13h-3.696v.13c.987.033 1.217.286 1.217.724v5.93c0 .45-.23.693-1.218.725v.142m9.633.185c1.752 0 2.708-1.085 3.175-2.162l-.184-.1c-.477 1.057-1.348 1.847-2.6 1.847-1.315 0-2.674-1.033-2.674-3.602 0-2.625 1.098-3.8 2.392-3.8 1.164 0 1.95.845 2.546 2.394h.14V5.115h-.108l-.478.516c-.51-.264-1.165-.45-1.96-.45-2.196 0-3.968 1.7-3.968 4.13 0 2.37 1.488 3.895 3.72 3.895m9.755-1.23c.216.617.064.847-.97.902v.142h3.567v-.143c-.837-.12-1-.307-1.272-1.054l-2.437-6.675h-.457l-2.314 5.917c-.456 1.186-.848 1.615-1.566 1.812v.142h2.544v-.143c-.99-.164-1.173-.538-.686-1.834l.37-.956h2.567l.654 1.89m-3.145-2.107l1.24-3.24h.043l1.13 3.24h-2.413m9.602-.803V5.575h.774c1.47 0 1.905.658 1.905 1.702 0 1.164-.304 1.79-1.763 1.79h-.915m0 .208h.828c1.262 0 1.556.285 1.676 1.396l.11 1.01c.108.99.325 1.394 1.5 1.394.357 0 .75-.033 1.12-.12v-.132c-.936-.01-1.11-.142-1.262-1.12l-.077-.626c-.15-1.11-.53-1.834-2.14-1.888v-.033c1.675-.252 2.305-.988 2.305-1.933 0-1.032-.85-1.854-3.088-1.854H248.7v.13c.948.033 1.187.286 1.187.724v5.93c0 .45-.24.693-1.186.726v.14h3.6v-.14c-.913-.033-1.143-.253-1.143-.726V9.275m11.377 2.7c.217.617.065.847-.968.903v.14h3.566v-.14c-.837-.122-1-.308-1.27-1.055l-2.437-6.675h-.457l-2.317 5.917c-.455 1.186-.847 1.615-1.563 1.813v.14h2.542v-.14c-.99-.165-1.174-.54-.684-1.835l.368-.956h2.567l.654 1.89M259.39 9.87l1.24-3.24h.043l1.132 3.24h-2.415m11.127 3.335c.924 0 1.98-.25 2.718-.723v-2.02c0-.572.164-.748.848-.78V9.54h-3.294v.14c.945.034 1.206.33 1.206.78v2.077c-.348.296-.848.462-1.48.462-1.24 0-2.5-1.056-2.5-3.812 0-2.768 1.185-3.8 2.415-3.8 1.087 0 1.925.802 2.524 2.263h.15V5.116h-.118l-.49.516c-.51-.264-1.12-.45-1.968-.45-2.056 0-3.958 1.625-3.958 4.03 0 2.602 1.892 3.995 3.947 3.995m9.43 0c1.935 0 2.793-1.03 2.793-2.568V7.19c0-1.077.25-1.517 1.273-1.692v-.13h-3v.13c1.098.154 1.457.615 1.457 1.69v3.36c0 .836-.23 1.397-.61 1.78-.337.34-.848.505-1.39.505-1.23 0-2.21-.515-2.21-2.174V6.22c0-.46.174-.69 1.098-.724v-.13h-3.554v.13c.934.033 1.184.286 1.184.724v4.57c0 1.59 1.076 2.413 2.958 2.413m5.872-.186h6.602l.055-2.614-.152-.01c-.664 1.68-1.24 2.415-2.762 2.415h-1.284V9.155h.588c.902 0 1.382.34 1.675 1.505h.14V7.44h-.14c-.294 1.165-.774 1.505-1.676 1.505h-.588V5.575h1.305c1.296 0 1.796.724 2.428 2.284l.15-.022-.032-2.47h-6.307v.13c.946.033 1.186.286 1.186.724v5.93c0 .45-.24.693-1.187.726v.14m15.42.166h.36V7.19c0-1.077.248-1.517 1.27-1.692v-.13h-2.99v.13c1.088.154 1.46.615 1.46 1.69v3.975h-.012l-4.318-5.795h-2.317v.13c.936.044 1.328.592 1.328 1.274v4.413c0 1.078-.305 1.528-1.327 1.693v.14h2.98v-.14c-1.11-.154-1.393-.615-1.393-1.692v-4.58h.012l4.948 6.578m3.622.032h.13l.653-.536c.477.274 1.207.493 1.826.493 1.884 0 2.59-1.317 2.59-2.525 0-1.427-1.108-1.812-2.142-2.163-1.25-.418-1.958-.77-1.958-1.713 0-.868.674-1.35 1.414-1.35.882 0 1.578.724 2.176 2.174h.15V5.148h-.13l-.39.44c-.392-.19-.99-.374-1.633-.374-1.467 0-2.566.9-2.566 2.348 0 1.417 1.13 1.77 2.22 2.153 1.348.472 2 .856 2 1.822 0 .693-.532 1.417-1.6 1.417-1.162 0-1.934-1.02-2.587-2.482h-.15v2.744m7.372-.197h6.602l.053-2.614-.15-.01c-.663 1.68-1.242 2.415-2.764 2.415h-1.285V9.155h.59c.903 0 1.382.34 1.675 1.505h.14V7.44h-.14c-.293 1.165-.772 1.505-1.675 1.505h-.59V5.575H316c1.294 0 1.795.724 2.426 2.284l.15-.022-.032-2.47h-6.307v.13c.947.033 1.186.286 1.186.724v5.93c0 .45-.238.693-1.185.726v.14m9.115.198h.13l.652-.536c.478.274 1.206.493 1.827.493 1.88 0 2.586-1.317 2.586-2.525 0-1.427-1.108-1.812-2.14-2.163-1.253-.418-1.96-.77-1.96-1.713 0-.868.676-1.35 1.414-1.35.884 0 1.578.724 2.178 2.174h.15V5.148h-.13l-.39.44c-.392-.19-.99-.374-1.633-.374-1.47 0-2.566.9-2.566 2.35 0 1.415 1.128 1.767 2.217 2.15 1.35.473 2 .857 2 1.824 0 .692-.53 1.416-1.597 1.416-1.164 0-1.936-1.02-2.59-2.482h-.15v2.744" fill="#7b7979"/><g clip-path="url(#a)" transform="matrix(.777 0 0 -.777 -182.703 1221.983)"><g clip-path="url(#c)"><path d="M501.812 1566.41l-7.502-2.073-8.552-3.72-8.83-1.29-7.042 9.548-9.128-6.138 3.52-4.774 3.52-4.774 3.36-4.704 9.288 6.065 9.355 1.985 8.522 4.313 7.492 2.19-4.002 3.373" fill="#3057a9"/><path d="M471.16 1548.486l9.286 6.065-3.52 4.776-9.128-6.137 3.36-4.704" fill="#3057a9"/><path d="M467.798 1553.19l9.13 6.136-3.522 4.775-9.13-6.137 3.522-4.774" fill="#fff"/><path d="M464.277 1557.963l9.13 6.138-3.52 4.775-9.13-6.138 3.52-4.774" fill="#3057a9"/><path d="M476.927 1559.326l8.83 1.29 4.044-4.08-9.354-1.985-3.52 4.776M494.31 1564.337l7.502 2.074 4.002-3.373-7.492-2.19-4.012 3.49M486.543 1572.005l7.767 1.045 3.288-3.03-7.4-1.62-3.655 3.605" fill="#1c4286"/><path d="M490.267 1568.42l7.33 1.6 4.137-3.513-7.493-2.19-3.973 4.102M473.406 1564.1l8.453.74 3.898-4.223-8.83-1.29-3.522 4.774" fill="#e9e9e9"/><path d="M469.886 1568.875l8.59.24 3.383-4.275-8.454-.74-3.52 4.775" fill="#1c4286"/><path d="M489.8 1556.535l8.522 4.313-4.012 3.49-8.552-3.72 4.043-4.083" fill="#3057a9"/><path d="M485.758 1560.617l8.552 3.72-4.043 4.082-8.408-3.58 3.898-4.223" fill="#fff"/><path d="M481.86 1564.84l8.407 3.58-3.724 3.585-8.067-2.89 3.383-4.275" fill="#3057a9"/><path d="M486.125 1562.626l-3.924 1.385-.185-2.646 4.11 1.262" fill="#15366f"/><path d="M482.06 1561.408l.186 2.555 3.79-1.333-3.976-1.222" fill="#fccb2d"/><path d="M482.105 1561.453l.186 2.462 3.66-1.28-3.845-1.182" fill="#15366f"/><path d="M485.86 1562.637l-3.524 1.23-.188-2.37 3.713 1.14" fill="#fff"/><path d="M483.138 1562.84l-.025-.006-.018.01-.057.104.066.042-.01.02-.084-.02.018.073.09.026.165-.05.1-.11-.022-.03-.055-.017-.01-.022.036-.045-.043-.03-.15.056" fill="#ee293d"/><path d="M480.375 1562.102l.07-.116.093.02-.066.103.077.014.063-.105.11.022-.073.117.067.012.1-.164-.41-.085-.102.165.07.014M480.363 1562.262l.076.008-.016.047-.086.03-.05-.045.017-.047.058.007.018-.045-.133-.015-.034.103.11.086.165-.055.02-.057.152.016.017-.044-.296-.033-.017.045M480.523 1562.586l-.078.042-.29-.005v.048l.286.007.155-.09-.143-.094-.288-.005-.002.048.288.005.073.046M480.465 1562.82l.062-.005.014.065-.05.032-.063-.023-.014-.066.052-.004-.01-.05-.178.014.012.05.048-.005.014.06-.04.032-.054-.025-.014-.06.045-.004-.013-.05-.12.01.022.096.13.08.087-.033.11.02.11-.087-.026-.11-.136.01.01.05M480.27 1563.152l.34-.057.056.107.077-.013-.08-.157-.42.072.026.047M480.787 1563.256l-.403.097.034.048.403-.097-.033-.047M480.763 1563.602l-.11-.023.076-.092.173.01-.024.065.037.038.048-.128c-.05-.05-.16-.06-.275-.023-.114.037-.155.098-.102.15l.213.04-.037-.038M481.596 1564.083l.085-.07.058.022v.106l-.162.032-.06-.023.08-.067-.066-.027-.12.1.134.054c.044.017.15.05.258-.04l.003-.162-.147-.058-.128.106.066.027M482.193 1564.373l-.195-.054.042-.05.175.047.034-.042-.176-.048.05-.06.194.054.03-.037-.274-.075-.188.228.276.075.03-.037M482.77 1564.523l.2-.134-.046.15.086.008.077-.248-.08-.01-.216.14.05-.155-.085-.01-.078.248.094.01M483.238 1564.308l-.025.25.088.004.022-.25-.084-.004M483.767 1564.47l-.086.047-.106-.078.088-.088.095.042.075-.004c-.007-.052-.08-.085-.182-.08-.1.003-.164.057-.154.132.01.076.086.122.19.118.11-.005.16-.054.156-.093l-.075.003M485.68 1563.97l-.022.065-.18-.02-.02-.105h.134l-.062.035.046.03.115-.064-.15-.092-.037.02.03.023-.125.02.014.166.283.018.025-.123-.05.03M485.79 1563.704l.104-.01.23.103.052-.04-.23-.1-.215.022.022.124.23.1.05-.038-.228-.1-.015-.062M481.844 1561.098l.052-.018.042.104-.136-.072.042-.014-.04-.036-.06.02-.067-.036-.072.024.34.176.084-.027-.1-.258-.07.023.02.052-.075.025.04.036M482.252 1560.88l.038.195-.112-.18-.077.015.15.237.12-.025-.046-.196.186.167.118-.024-.148-.238-.076.016.112.18-.184-.165-.08.016M483.074 1560.97l-.213.022-.016-.055.19-.02-.012-.044-.192.02-.02-.067.213-.02-.012-.04-.297.03.074.247.3-.03-.013-.042M483.328 1560.892h.087l.05.032-.056.034h-.11l-.003-.066h.03l.007-.045h-.04l-.003-.097-.084.002.007.25.238-.002.096-.073-.074-.06.06-.05-.003-.07-.085.002.004.057-.07.04h-.046l-.006.045M483.715 1560.753l-.043.25.087.006.04-.252-.085-.005M484.2 1560.965l-.105.03-.066-.092.128-.07.07.058.073.01c.02-.05-.033-.095-.13-.108-.1-.013-.186.027-.216.102-.028.073.018.13.124.144.105.014.178-.025.193-.064l-.07-.01M485.35 1561.29l-.118.004.007-.1.166-.03.022.066.062.026-.045-.13-.268.042.01.162.22-.012-.058-.027M485.67 1561.525l-.152-.09.07-.038.135.08.058-.032-.134-.08.083-.047.15.09.05-.03-.212-.124-.314.174.21.126.055-.03M485.76 1561.655l.303-.015-.216.087.05.04.358-.144-.048-.04-.324.013.227-.09-.05-.043-.357.145.056.047M486.418 1561.79l-.326.09-.057-.065-.065.017.145.174.065-.02-.055-.065.328-.09-.035-.04M486.345 1562.65l.358.004-.004.112h.08l.005-.162-.438-.004-.002.05M484.62 1560.968l.054.013-.118.083.017-.106.047.01.024-.04-.066-.014.01-.054-.078-.018-.037.262.09.022.295-.203-.076-.018-.058.042-.08-.02-.024.04M486.588 1562.402l.01.033-.186-.017.17-.045.006.03.072-.008-.01-.04.085-.023-.01-.047-.415.113.012.055.45.046-.01-.048-.09-.01-.012-.047-.072.007M486.38 1562.103l.025.048-.042.038-.07-.022-.033-.06.11-.02.01.017.077-.01-.01-.02.162-.03-.028-.046-.417.072.067.13.15.033.077-.057.1.02.117-.02-.025-.047-.098.016-.084-.026-.013-.026-.076.01M486.138 1563.49l.028-.03.132.075-.183-.02.023-.025-.065-.017-.032.035-.092-.01-.036.042.45.047.046-.05-.322-.188-.04.04.067.04-.04.043.065.017M485.094 1564.135l.05-.02.052.103-.145-.068.044-.015-.042-.034-.06.022-.07-.034-.07.025.354.168.083-.03-.122-.254-.07.026.027.05-.073.03.042.033M484.16 1564.36l.057-.008-.01.106-.098-.09.05-.008-.022-.04-.068.01-.047-.047-.08.012.24.225.093-.014.03-.263-.08.012-.004.053-.084.012.022.04M481.107 1563.758l.037.026-.172.04.103-.09.032.024.053-.03-.043-.03.05-.044-.052-.038-.25.223.062.04.426-.096-.05-.037-.088.02-.055-.038-.053.028M480.76 1561.765l-.042.042-.076.01-.023-.045.052-.056.1.032-.012.017.064.025.02-.02.148.046.042-.044-.386-.12-.11.12.06.084.126-.008.047.055.11.034.04-.043-.092-.028-.026-.053.022-.023-.064-.025M484.636 1564.325l.08-.02.07.02-.03.044-.102.023-.047-.06.03-.008-.023-.044-.037.01-.067-.09-.08.022.17.23.222-.054.038-.088-.106-.04.023-.058-.047-.065-.08.02.042.054-.036.05-.042.01.022.045M481.26 1561.4l.03.06-.103.016-.03-.06.102-.016M486.496 1563.007l-.102.018.032.06.1-.02-.03-.058" fill="#fccb2d"/><path d="M482.25 1562.804l-.007-.095.66.114-.022.022-.63-.042M482.27 1563.05l-.007-.08.547.018v.02l-.54.042M482.26 1562.936l-.004-.08.585.043-.012.023-.567.013M483.566 1562.886l.94-.066.273.092-1.214.002v-.028M483.373 1562.71l.144-.202.06.02-.175.188h-.002l-.027-.007M482.994 1563.182l-.47.62-.188.064-.004-.053.636-.638.006.002.02.005M484.775 1563.017l-.3.103-.923-.154.01-.034 1.213.085M484.26 1563.196l-.172.06-.565-.24.02-.03.718.21M483.997 1563.287l-.13.045-.4-.258.03-.026.5.24M483.748 1563.374l-.09.032-.256-.286.03-.02.316.274M483.577 1563.434l-.113.04-.142-.317.04-.016.215.294M483.418 1563.49l-.075.025-.097-.335.037-.01.135.32M483.275 1563.54l-.074.026-.042-.372.036-.004.08.35M483.103 1563.6l-.107.036.105-.44h.038l-.035.403M482.86 1563.684l-.147.05.312-.545.027.003-.19.49M482.32 1563.68l-.008-.103.607-.423.02.01-.62.517M482.304 1563.488l-.005-.077.576-.284.013.01-.586.352M482.293 1563.338l-.004-.06.558-.18.01.013-.565.228M482.284 1563.213l-.01-.1.546-.06.008.017-.544.143M482.222 1562.564l-.004-.137.753.35-.02.013-.728-.226M482.208 1562.253l-.013-.146.824.644-.025.013-.787-.51M482.695 1562.363l.09-.03.288.397-.02.007-.358-.374M482.862 1562.307h.003l.117.035.158.37-.025.005-.253-.41M483.142 1562.515l.088.035-.012.15-.036.004-.04-.19M483.303 1562.543l.095-.038-.085.195-.036-.003.026-.154M483.653 1562.553l.087.027-.275.163-.028-.013.216-.177M483.828 1562.608l.11.034-.432.13-.024-.018.346-.146M484.008 1562.662l.15.047-.617.1-.008-.012.476-.136M484.22 1562.728l.163.05-.82.083-.01-.027.667-.105" fill="#b9d6f1"/><path d="M484.51 1563.108l.154-.132.07-.09.024.01-.07.087-.115.103-.064.022M483.718 1563.384c-.285.028-.585.004-.86-.08-.274-.085-.477-.216-.597-.367l-.002-.045c.11.165.32.308.613.397.292.09.616.11.915.07l-.067.024M482.22 1562.406l-.004-.043.085-.113.104-.094.023.007-.103.094-.105.15" fill="#472b91"/><path d="M484.573 1563.086l.115-.103.07-.087.023.007-.068.087-.08.075-.06.02M483.66 1563.404c-.272.02-.556-.007-.815-.087-.26-.08-.456-.2-.58-.34l-.004-.04c.12.15.324.282.597.366.276.085.576.11.86.08l-.057.02M482.216 1562.363l-.003-.04.064-.08.104-.095.024.008-.103.094-.084.113" fill="#15366f"/><path d="M484.633 1563.065l.08-.075.068-.087.024.007-.07.087-.05.05-.05.018M483.608 1563.423c-.26.012-.528-.017-.776-.092-.246-.075-.438-.188-.565-.318l-.003-.036c.125.14.322.262.58.34.26.08.544.107.816.088l-.052.02M482.213 1562.323l-.002-.036.044-.05.102-.096.025.008-.103.094-.064.08" fill="#289edf"/><path d="M484.685 1563.048l.05-.05.07-.088.025.007-.072.088-.024.025-.05.018M483.558 1563.44c-.248.007-.502-.024-.74-.096-.232-.073-.42-.177-.548-.3l-.003-.032c.127.13.32.243.565.32.248.074.515.103.776.09l-.05.018M482.21 1562.287l-.002-.034.022-.025.104-.095.022.008-.102.096-.043.05" fill="#17b08c"/><path d="M484.734 1563.03l.024-.025.072-.088.023.007-.07.088-.002.002-.046.016M483.51 1563.457c-.237 0-.476-.03-.703-.1-.224-.068-.405-.166-.534-.28l-.003-.032c.13.122.316.226.55.3.236.07.49.102.738.095l-.047.017M482.208 1562.253l-.003-.03.002-.002.1-.094.027.007-.104.095-.022.025" fill="#fff200"/><path d="M484.78 1563.014v-.002l.073-.088.024.008-.05.067-.046.014M483.467 1563.472c-.227-.002-.457-.035-.672-.1-.215-.067-.39-.16-.52-.266l-.002-.03c.13.115.31.213.534.282.227.068.466.1.704.1l-.043.014M482.205 1562.223l-.002-.03.082-.074.023.006-.1.095-.003.003" fill="#f8a03d"/><path d="M484.826 1563l.05-.068.025.007-.034.044-.04.015M483.427 1563.486c-.22-.006-.44-.038-.645-.102-.205-.062-.375-.15-.505-.25l-.002-.028c.13.107.305.2.52.266.215.065.445.098.672.1l-.04.014M482.2 1562.165l.06-.053.025.007-.082.073-.002-.028" fill="#ed192d"/><path d="M482.947 1562.278l.133.04.01-.013-.114-.036-.03.008M483.025 1562.256l.067.023.006-.01-.053-.022-.02.008M483.513 1562.458l.14.044.013-.01-.128-.045-.025.01M484.03 1562.63l.1.03.007-.01-.085-.028-.023.01M484.38 1562.735l.118.036.01-.01-.104-.033-.023.008M485.16 1562.88l-.115-.042.017-.01.123.045-.024.008M482.184 1561.956l.193.046.033.03-.225-.058v-.018M482.188 1562.01l-.002-.018.25.072.013.02-.262-.075M482.19 1562.056v-.03l.288.1.012.018c-.094-.008-.238-.065-.3-.088M482.92 1561.79l.01.02.253.084.045-.007.174.056c-.04-.01-.092-.02-.19-.03-.138-.014-.285-.075-.33-.1l-.143-.055.18.032M484.93 1562.96l-.408-.135c-.09-.03-.507-.16-.61-.19-.105-.03-.602-.193-.748-.24-.142-.04-.825-.247-.97-.288v-.027c.08.025.468.14.596.18.134.044.493.15.614.19.122.04.41.134.468.15l.54.17c.07.024.338.112.55.18l-.03.01M484.994 1562.94l-.196-.068.015-.007.207.065-.026.01M485.05 1562.92l-.18-.062.013-.01.19.064-.024.008M485.11 1562.9l-.15-.056.012-.012.162.06-.023.007M485.567 1562.74l-.15-.033-.015-.01.193.033-.028.01M485.635 1562.716c-.054-.017-.178-.042-.278-.045-.114-.002-.223-.047-.318-.085-.177-.073-.28-.094-.452-.12-.175-.028-.38-.096-.437-.133l.033-.01c.07.033.234.1.41.123.172.024.32.063.41.097l.202.07.01-.01c-.263-.107-.375-.15-.563-.172-.185-.023-.327-.08-.427-.12-.1-.042-.212-.07-.333-.08-.122-.01-.207-.025-.257-.055l.015-.007c.033.015.137.046.247.05.11.003.25.04.363.086.11.046.248.103.402.112.157.01.3.06.418.112.12.05.195.09.312.108.104.014.23.048.28.068l-.037.012" fill="#15366f"/><path d="M485.7 1562.693l-.28-.074c-.08-.014-.188-.056-.336-.125-.148-.07-.354-.093-.46-.11-.105-.016-.222-.05-.3-.08-.078-.03-.202-.082-.42-.11-.27-.03-.38-.086-.428-.114-.05-.027-.175-.065-.328-.085-.15-.02-.266-.062-.337-.1-.067-.037-.18-.085-.312-.1-.12-.013-.255-.055-.333-.083l-.002-.02c.065.028.226.08.346.09.14.01.29.068.335.095.1.06.182.08.32.094.095.012.255.058.343.103.142.074.25.09.406.106.16.015.347.07.445.105.095.035.168.074.312.09.143.016.322.05.447.114.122.063.248.105.32.117.07.014.19.04.282.078l-.022.008" fill="#15366f"/><path d="M485.752 1562.676c-.04-.018-.137-.05-.24-.072-.165-.033-.27-.075-.358-.12-.133-.067-.226-.087-.363-.108-.138-.02-.253-.05-.384-.102-.13-.05-.346-.1-.525-.123-.178-.024-.296-.074-.396-.126-.1-.05-.296-.088-.367-.09-.07-.003-.154-.026-.256-.075-.1-.05-.2-.077-.336-.094-.123-.016-.27-.053-.362-.093v-.014c.068.026.25.086.375.096.148.01.278.062.34.092l.252.072c.147.002.32.065.378.096.127.07.238.104.385.12.15.017.396.076.53.13.09.038.24.08.38.097.138.018.257.05.374.114.116.062.268.102.356.12.082.017.15.03.244.07l-.025.01" fill="#15366f"/><path d="M485.816 1562.653l-.266-.08c-.077-.02-.2-.044-.308-.104-.108-.062-.293-.114-.412-.126-.118-.012-.254-.045-.365-.09-.112-.048-.258-.1-.467-.127-.21-.025-.287-.042-.45-.13-.07-.036-.462-.154-.572-.19-.108-.037-.267-.055-.37-.062-.095-.005-.31-.06-.448-.116l-.002-.023c.125.06.32.1.412.1-.1-.015-.31-.087-.414-.135l-.004-.032c.16.08.44.156.55.175.122.02.314.064.417.117.098.05.3.087.435.096l.51.156c-.107.004-.186-.04-.252-.066l-.195-.037.04.04c.144.08.308.09.447.077l.402.123.25.09.094.016.424.13.295.103c.07.014.16.035.274.084l-.024.01" fill="#15366f"/><path d="M485.26 1562.846c-.262-.077-.456-.023-.636.04l-.163-.055.032-.115-.27.083-.13-.037.02-.144-.31.088-.167-.056-.01-.216-.365.13-.135-.052.01-.275c-.153.027-.386.11-.545.163l-.112-.04c.073-.285-.154-.395-.298-.45l-.01-.15.25.053c.097.01.263.048.36.11.098.06.23.096.366.12.14.026.358.082.494.19.3.004.414.088.517.137.103.05.25.108.395.124.19.02.398.084.528.155.16.086.322.064.463.103l-.283.098" fill="#17b08c"/><path d="M482.478 1562.358c.127-.124.375-.218.835-.28l.072.022c-.127.022-.425.082-.543.12l-.03.025c.278-.058.487-.107.69-.098l.084.045c-.35-.003-.61.07-.996.206l-.112-.04M483.687 1562.667c.03-.096.047-.19.002-.256l.074-.012.042.08.05-.09c.097-.007.253-.01.353.002l-.175-.084c-.22.017-.384.023-.612.104l.142-.087c.08-.016.202-.042.395-.045-.087-.03-.19-.047-.32-.05-.11.04-.346.13-.515.282l.135.052c.097-.043.27-.11.365-.13l.01.216.052.02M484.138 1562.772l.03-.168-.057.012-.017.145.045.012M484.207 1562.58l.064-.004-.05.09-.013-.087M484.492 1562.715l.06-.005-.048.135-.043-.014.032-.115" fill="#fde012"/></g></g></svg>