<svg xmlns="http://www.w3.org/2000/svg" xmlns:xlink="http://www.w3.org/1999/xlink" width="400" height="400.008"><defs><linearGradient id="a" gradientTransform="matrix(126.1 -72.8 -72.8 -126.1 731.1 1563.1)" gradientUnits="userSpaceOnUse" x2="1"><stop offset="0" stop-color="#feeed4"/><stop offset="1" stop-color="#cd6d1a"/></linearGradient><linearGradient id="b" gradientTransform="matrix(122.4 70.7 70.7 -122.4 733 1491.4)" gradientUnits="userSpaceOnUse" x2="1"><stop offset="0" stop-color="#fffdd1"/><stop offset="1" stop-color="#fff"/></linearGradient><radialGradient id="c" spreadMethod="pad" gradientTransform="matrix(139.4 0 0 -139.4 794.2 1526.7)" gradientUnits="userSpaceOnUse" r="1" cy="0" cx="0" fy="0" fx="0"><stop offset="0" stop-color="#fffdcf"/><stop offset="1" stop-color="#f9a90c"/></radialGradient><radialGradient id="d" spreadMethod="pad" gradientTransform="matrix(139.4 0 0 -139.4 794.2 1526.7)" gradientUnits="userSpaceOnUse" r="1" cy="0" cx="0" fy="0" fx="0"><stop offset="0" stop-color="#fffdcf"/><stop offset="1" stop-color="#f9a90c"/></radialGradient><radialGradient id="e" spreadMethod="pad" gradientTransform="matrix(139.4 0 0 -139.4 794.2 1526.7)" gradientUnits="userSpaceOnUse" r="1" cy="0" cx="0" fy="0" fx="0"><stop offset="0" stop-color="#fffdcf"/><stop offset="1" stop-color="#f9a90c"/></radialGradient><radialGradient id="f" spreadMethod="pad" gradientTransform="matrix(139.4 0 0 -139.4 794.2 1526.7)" gradientUnits="userSpaceOnUse" r="1" cy="0" cx="0" fy="0" fx="0"><stop offset="0" stop-color="#fffdcf"/><stop offset="1" stop-color="#f9a90c"/></radialGradient><radialGradient id="g" spreadMethod="pad" gradientTransform="matrix(139.4 0 0 -139.4 794.2 1526.7)" gradientUnits="userSpaceOnUse" r="1" cy="0" cx="0" fy="0" fx="0"><stop offset="0" stop-color="#fffdcf"/><stop offset="1" stop-color="#f9a90c"/></radialGradient><radialGradient id="h" spreadMethod="pad" gradientTransform="matrix(139.2 0 0 -139.2 794.3 1526.7)" gradientUnits="userSpaceOnUse" r="1" cy="0" cx="0" fy="0" fx="0"><stop offset="0" stop-color="#fffdcf"/><stop offset="1" stop-color="#f9a90c"/></radialGradient><radialGradient id="i" spreadMethod="pad" gradientTransform="matrix(139.4 0 0 -139.4 794.2 1526.7)" gradientUnits="userSpaceOnUse" r="1" cy="0" cx="0" fy="0" fx="0"><stop offset="0" stop-color="#fffdcf"/><stop offset="1" stop-color="#f9a90c"/></radialGradient><radialGradient id="j" spreadMethod="pad" gradientTransform="matrix(139.5 0 0 -139.5 794.2 1526.7)" gradientUnits="userSpaceOnUse" r="1" cy="0" cx="0" fy="0" fx="0"><stop offset="0" stop-color="#fffdcf"/><stop offset="1" stop-color="#f9a90c"/></radialGradient><radialGradient id="k" spreadMethod="pad" gradientTransform="matrix(139.4 0 0 -139.4 794.2 1526.7)" gradientUnits="userSpaceOnUse" r="1" cy="0" cx="0" fy="0" fx="0"><stop offset="0" stop-color="#fffdcf"/><stop offset="1" stop-color="#f9a90c"/></radialGradient><radialGradient id="l" spreadMethod="pad" gradientTransform="matrix(139.4 0 0 -139.4 794.2 1526.7)" gradientUnits="userSpaceOnUse" r="1" cy="0" cx="0" fy="0" fx="0"><stop offset="0" stop-color="#fffdcf"/><stop offset="1" stop-color="#f9a90c"/></radialGradient><radialGradient id="m" spreadMethod="pad" gradientTransform="matrix(139.4 0 0 -139.4 794.2 1526.7)" gradientUnits="userSpaceOnUse" r="1" cy="0" cx="0" fy="0" fx="0"><stop offset="0" stop-color="#fffdcf"/><stop offset="1" stop-color="#f9a90c"/></radialGradient><radialGradient id="n" spreadMethod="pad" gradientTransform="matrix(139.4 0 0 -139.4 794.2 1526.7)" gradientUnits="userSpaceOnUse" r="1" cy="0" cx="0" fy="0" fx="0"><stop offset="0" stop-color="#fffdcf"/><stop offset="1" stop-color="#f9a90c"/></radialGradient><radialGradient id="o" spreadMethod="pad" gradientTransform="matrix(139.4 0 0 -139.4 794.2 1526.7)" gradientUnits="userSpaceOnUse" r="1" cy="0" cx="0" fy="0" fx="0"><stop offset="0" stop-color="#fffdcf"/><stop offset="1" stop-color="#f9a90c"/></radialGradient><radialGradient id="p" spreadMethod="pad" gradientTransform="matrix(139.4 0 0 -139.4 794.2 1526.7)" gradientUnits="userSpaceOnUse" r="1" cy="0" cx="0" fy="0" fx="0"><stop offset="0" stop-color="#fffdcf"/><stop offset="1" stop-color="#f9a90c"/></radialGradient><radialGradient id="q" spreadMethod="pad" gradientTransform="matrix(139.4 0 0 -139.4 794.2 1526.7)" gradientUnits="userSpaceOnUse" r="1" cy="0" cx="0" fy="0" fx="0"><stop offset="0" stop-color="#fffdcf"/><stop offset="1" stop-color="#f9a90c"/></radialGradient><radialGradient id="r" spreadMethod="pad" gradientTransform="matrix(139.4 0 0 -139.4 794.2 1526.7)" gradientUnits="userSpaceOnUse" r="1" cy="0" cx="0" fy="0" fx="0"><stop offset="0" stop-color="#fffdcf"/><stop offset="1" stop-color="#f9a90c"/></radialGradient><radialGradient id="s" spreadMethod="pad" gradientTransform="matrix(139.4 0 0 -139.4 794.2 1526.7)" gradientUnits="userSpaceOnUse" r="1" cy="0" cx="0" fy="0" fx="0"><stop offset="0" stop-color="#fffdcf"/><stop offset="1" stop-color="#f9a90c"/></radialGradient><radialGradient id="t" spreadMethod="pad" gradientTransform="matrix(139.4 0 0 -139.4 794.2 1526.7)" gradientUnits="userSpaceOnUse" r="1" cy="0" cx="0" fy="0" fx="0"><stop offset="0" stop-color="#fffdcf"/><stop offset="1" stop-color="#f9a90c"/></radialGradient><radialGradient id="u" spreadMethod="pad" gradientTransform="matrix(139.4 0 0 -139.4 794.2 1526.7)" gradientUnits="userSpaceOnUse" r="1" cy="0" cx="0" fy="0" fx="0"><stop offset="0" stop-color="#fffdcf"/><stop offset="1" stop-color="#f9a90c"/></radialGradient><radialGradient id="v" spreadMethod="pad" gradientTransform="matrix(139.4 0 0 -139.4 794.2 1526.7)" gradientUnits="userSpaceOnUse" r="1" cy="0" cx="0" fy="0" fx="0"><stop offset="0" stop-color="#fffdcf"/><stop offset="1" stop-color="#f9a90c"/></radialGradient><radialGradient id="w" spreadMethod="pad" gradientTransform="matrix(139.4 0 0 -139.4 794.2 1526.7)" gradientUnits="userSpaceOnUse" r="1" cy="0" cx="0" fy="0" fx="0"><stop offset="0" stop-color="#fffdcf"/><stop offset="1" stop-color="#f9a90c"/></radialGradient><radialGradient id="x" spreadMethod="pad" gradientTransform="matrix(139.4 0 0 -139.4 794.2 1526.7)" gradientUnits="userSpaceOnUse" r="1" cy="0" cx="0" fy="0" fx="0"><stop offset="0" stop-color="#fffdcf"/><stop offset="1" stop-color="#f9a90c"/></radialGradient><radialGradient id="y" spreadMethod="pad" gradientTransform="matrix(98.6 0 0 -98.6 727.8 1526.7)" gradientUnits="userSpaceOnUse" r="1" cy="0" cx="0" fy="0" fx="0"><stop offset="0" stop-color="#fffdcf"/><stop offset="1" stop-color="#f89c0e"/></radialGradient><radialGradient id="z" spreadMethod="pad" gradientTransform="matrix(139.4 0 0 -139.4 794.2 1526.7)" gradientUnits="userSpaceOnUse" r="1" cy="0" cx="0" fy="0" fx="0"><stop offset="0" stop-color="#fffdcf"/><stop offset="1" stop-color="#f9a90c"/></radialGradient><radialGradient id="A" spreadMethod="pad" gradientTransform="matrix(98.6 0 0 -98.6 734.8 1526.7)" gradientUnits="userSpaceOnUse" r="1" cy="0" cx="0" fy="0" fx="0"><stop offset="0" stop-color="#fffdcf"/><stop offset="1" stop-color="#f89c0e"/></radialGradient><radialGradient id="B" spreadMethod="pad" gradientTransform="matrix(139.4 0 0 -139.4 794.2 1526.7)" gradientUnits="userSpaceOnUse" r="1" cy="0" cx="0" fy="0" fx="0"><stop offset="0" stop-color="#fffdcf"/><stop offset="1" stop-color="#f9a90c"/></radialGradient><radialGradient id="C" spreadMethod="pad" gradientTransform="matrix(98.6 0 0 -98.6 741.8 1526.7)" gradientUnits="userSpaceOnUse" r="1" cy="0" cx="0" fy="0" fx="0"><stop offset="0" stop-color="#fffdcf"/><stop offset="1" stop-color="#f89c0e"/></radialGradient><radialGradient id="D" spreadMethod="pad" gradientTransform="matrix(139.4 0 0 -139.4 794.2 1526.7)" gradientUnits="userSpaceOnUse" r="1" cy="0" cx="0" fy="0" fx="0"><stop offset="0" stop-color="#fffdcf"/><stop offset="1" stop-color="#f9a90c"/></radialGradient><radialGradient id="E" spreadMethod="pad" gradientTransform="matrix(98.6 0 0 -98.6 748.8 1526.7)" gradientUnits="userSpaceOnUse" r="1" cy="0" cx="0" fy="0" fx="0"><stop offset="0" stop-color="#fffdcf"/><stop offset="1" stop-color="#f89c0e"/></radialGradient><radialGradient id="F" spreadMethod="pad" gradientTransform="matrix(139.4 0 0 -139.4 794.2 1526.7)" gradientUnits="userSpaceOnUse" r="1" cy="0" cx="0" fy="0" fx="0"><stop offset="0" stop-color="#fffdcf"/><stop offset="1" stop-color="#f9a90c"/></radialGradient><radialGradient id="G" spreadMethod="pad" gradientTransform="matrix(98.6 0 0 -98.6 755.8 1526.7)" gradientUnits="userSpaceOnUse" r="1" cy="0" cx="0" fy="0" fx="0"><stop offset="0" stop-color="#fffdcf"/><stop offset="1" stop-color="#f89c0e"/></radialGradient><radialGradient id="H" spreadMethod="pad" gradientTransform="matrix(139.4 0 0 -139.4 794.2 1526.7)" gradientUnits="userSpaceOnUse" r="1" cy="0" cx="0" fy="0" fx="0"><stop offset="0" stop-color="#fffdcf"/><stop offset="1" stop-color="#f9a90c"/></radialGradient><radialGradient id="I" spreadMethod="pad" gradientTransform="matrix(98.6 0 0 -98.6 762.8 1526.7)" gradientUnits="userSpaceOnUse" r="1" cy="0" cx="0" fy="0" fx="0"><stop offset="0" stop-color="#fffdcf"/><stop offset="1" stop-color="#f89c0e"/></radialGradient><radialGradient id="J" spreadMethod="pad" gradientTransform="matrix(139.4 0 0 -139.4 794.2 1526.7)" gradientUnits="userSpaceOnUse" r="1" cy="0" cx="0" fy="0" fx="0"><stop offset="0" stop-color="#fffdcf"/><stop offset="1" stop-color="#f9a90c"/></radialGradient><radialGradient id="K" spreadMethod="pad" gradientTransform="matrix(98.6 0 0 -98.6 769.7 1526.7)" gradientUnits="userSpaceOnUse" r="1" cy="0" cx="0" fy="0" fx="0"><stop offset="0" stop-color="#fffdcf"/><stop offset="1" stop-color="#f89c0e"/></radialGradient><radialGradient id="L" spreadMethod="pad" gradientTransform="matrix(139.4 0 0 -139.4 794.2 1526.7)" gradientUnits="userSpaceOnUse" r="1" cy="0" cx="0" fy="0" fx="0"><stop offset="0" stop-color="#fffdcf"/><stop offset="1" stop-color="#f9a90c"/></radialGradient><radialGradient id="M" spreadMethod="pad" gradientTransform="matrix(98.6 0 0 -98.6 776.7 1526.7)" gradientUnits="userSpaceOnUse" r="1" cy="0" cx="0" fy="0" fx="0"><stop offset="0" stop-color="#fffdcf"/><stop offset="1" stop-color="#f89c0e"/></radialGradient><radialGradient id="N" spreadMethod="pad" gradientTransform="matrix(139.4 0 0 -139.4 794.2 1526.7)" gradientUnits="userSpaceOnUse" r="1" cy="0" cx="0" fy="0" fx="0"><stop offset="0" stop-color="#fffdcf"/><stop offset="1" stop-color="#f9a90c"/></radialGradient><radialGradient id="O" spreadMethod="pad" gradientTransform="matrix(98.6 0 0 -98.6 783.7 1526.7)" gradientUnits="userSpaceOnUse" r="1" cy="0" cx="0" fy="0" fx="0"><stop offset="0" stop-color="#fffdcf"/><stop offset="1" stop-color="#f89c0e"/></radialGradient><radialGradient id="P" spreadMethod="pad" gradientTransform="matrix(139.4 0 0 -139.4 794.2 1526.7)" gradientUnits="userSpaceOnUse" r="1" cy="0" cx="0" fy="0" fx="0"><stop offset="0" stop-color="#fffdcf"/><stop offset="1" stop-color="#f9a90c"/></radialGradient><radialGradient id="Q" spreadMethod="pad" gradientTransform="matrix(98.6 0 0 -98.6 790.7 1526.7)" gradientUnits="userSpaceOnUse" r="1" cy="0" cx="0" fy="0" fx="0"><stop offset="0" stop-color="#fffdcf"/><stop offset="1" stop-color="#f89c0e"/></radialGradient><radialGradient id="R" spreadMethod="pad" gradientTransform="matrix(139.4 0 0 -139.4 794.2 1526.7)" gradientUnits="userSpaceOnUse" r="1" cy="0" cx="0" fy="0" fx="0"><stop offset="0" stop-color="#fffdcf"/><stop offset="1" stop-color="#f9a90c"/></radialGradient><radialGradient id="S" spreadMethod="pad" gradientTransform="matrix(98.6 0 0 -98.6 797.7 1526.7)" gradientUnits="userSpaceOnUse" r="1" cy="0" cx="0" fy="0" fx="0"><stop offset="0" stop-color="#fffdcf"/><stop offset="1" stop-color="#f89c0e"/></radialGradient><radialGradient id="T" spreadMethod="pad" gradientTransform="matrix(139.4 0 0 -139.4 794.2 1526.7)" gradientUnits="userSpaceOnUse" r="1" cy="0" cx="0" fy="0" fx="0"><stop offset="0" stop-color="#fffdcf"/><stop offset="1" stop-color="#f9a90c"/></radialGradient><radialGradient id="U" spreadMethod="pad" gradientTransform="matrix(98.6 0 0 -98.6 804.7 1526.7)" gradientUnits="userSpaceOnUse" r="1" cy="0" cx="0" fy="0" fx="0"><stop offset="0" stop-color="#fffdcf"/><stop offset="1" stop-color="#f89c0e"/></radialGradient><radialGradient id="V" spreadMethod="pad" gradientTransform="matrix(139.4 0 0 -139.4 794.2 1526.7)" gradientUnits="userSpaceOnUse" r="1" cy="0" cx="0" fy="0" fx="0"><stop offset="0" stop-color="#fffdcf"/><stop offset="1" stop-color="#f9a90c"/></radialGradient><radialGradient id="W" spreadMethod="pad" gradientTransform="matrix(98.6 0 0 -98.6 811.7 1526.7)" gradientUnits="userSpaceOnUse" r="1" cy="0" cx="0" fy="0" fx="0"><stop offset="0" stop-color="#fffdcf"/><stop offset="1" stop-color="#f89c0e"/></radialGradient><radialGradient id="X" spreadMethod="pad" gradientTransform="matrix(139.4 0 0 -139.4 794.2 1526.7)" gradientUnits="userSpaceOnUse" r="1" cy="0" cx="0" fy="0" fx="0"><stop offset="0" stop-color="#fffdcf"/><stop offset="1" stop-color="#f9a90c"/></radialGradient><radialGradient id="Y" spreadMethod="pad" gradientTransform="matrix(98.6 0 0 -98.6 818.6 1526.7)" gradientUnits="userSpaceOnUse" r="1" cy="0" cx="0" fy="0" fx="0"><stop offset="0" stop-color="#fffdcf"/><stop offset="1" stop-color="#f89c0e"/></radialGradient><radialGradient id="Z" spreadMethod="pad" gradientTransform="matrix(139.4 0 0 -139.4 794.2 1526.7)" gradientUnits="userSpaceOnUse" r="1" cy="0" cx="0" fy="0" fx="0"><stop offset="0" stop-color="#fffdcf"/><stop offset="1" stop-color="#f9a90c"/></radialGradient><radialGradient id="aa" spreadMethod="pad" gradientTransform="matrix(98.6 0 0 -98.6 825.6 1526.7)" gradientUnits="userSpaceOnUse" r="1" cy="0" cx="0" fy="0" fx="0"><stop offset="0" stop-color="#fffdcf"/><stop offset="1" stop-color="#f89c0e"/></radialGradient><radialGradient id="ab" spreadMethod="pad" gradientTransform="matrix(139.4 0 0 -139.4 794.2 1526.7)" gradientUnits="userSpaceOnUse" r="1" cy="0" cx="0" fy="0" fx="0"><stop offset="0" stop-color="#fffdcf"/><stop offset="1" stop-color="#f9a90c"/></radialGradient><radialGradient id="ac" spreadMethod="pad" gradientTransform="matrix(98.6 0 0 -98.6 832.6 1526.7)" gradientUnits="userSpaceOnUse" r="1" cy="0" cx="0" fy="0" fx="0"><stop offset="0" stop-color="#fffdcf"/><stop offset="1" stop-color="#f89c0e"/></radialGradient><radialGradient id="ad" spreadMethod="pad" gradientTransform="matrix(139.4 0 0 -139.4 794.2 1526.7)" gradientUnits="userSpaceOnUse" r="1" cy="0" cx="0" fy="0" fx="0"><stop offset="0" stop-color="#fffdcf"/><stop offset="1" stop-color="#f9a90c"/></radialGradient><radialGradient id="ae" spreadMethod="pad" gradientTransform="matrix(98.6 0 0 -98.6 839.6 1526.7)" gradientUnits="userSpaceOnUse" r="1" cy="0" cx="0" fy="0" fx="0"><stop offset="0" stop-color="#fffdcf"/><stop offset="1" stop-color="#f89c0e"/></radialGradient><radialGradient id="af" spreadMethod="pad" gradientTransform="matrix(139.4 0 0 -139.4 794.2 1526.7)" gradientUnits="userSpaceOnUse" r="1" cy="0" cx="0" fy="0" fx="0"><stop offset="0" stop-color="#fffdcf"/><stop offset="1" stop-color="#f9a90c"/></radialGradient><radialGradient id="ag" spreadMethod="pad" gradientTransform="matrix(98.6 0 0 -98.6 846.6 1526.7)" gradientUnits="userSpaceOnUse" r="1" cy="0" cx="0" fy="0" fx="0"><stop offset="0" stop-color="#fffdcf"/><stop offset="1" stop-color="#f89c0e"/></radialGradient><radialGradient id="ah" spreadMethod="pad" gradientTransform="matrix(139.4 0 0 -139.4 794.2 1526.7)" gradientUnits="userSpaceOnUse" r="1" cy="0" cx="0" fy="0" fx="0"><stop offset="0" stop-color="#fffdcf"/><stop offset="1" stop-color="#f9a90c"/></radialGradient><radialGradient id="ai" spreadMethod="pad" gradientTransform="matrix(98.6 0 0 -98.6 853.6 1526.7)" gradientUnits="userSpaceOnUse" r="1" cy="0" cx="0" fy="0" fx="0"><stop offset="0" stop-color="#fffdcf"/><stop offset="1" stop-color="#f89c0e"/></radialGradient><radialGradient id="aj" spreadMethod="pad" gradientTransform="matrix(139.4 0 0 -139.4 794.2 1526.7)" gradientUnits="userSpaceOnUse" r="1" cy="0" cx="0" fy="0" fx="0"><stop offset="0" stop-color="#fffdcf"/><stop offset="1" stop-color="#f9a90c"/></radialGradient><radialGradient id="ak" spreadMethod="pad" gradientTransform="matrix(98.6 0 0 -98.6 860.6 1526.7)" gradientUnits="userSpaceOnUse" r="1" cy="0" cx="0" fy="0" fx="0"><stop offset="0" stop-color="#fffdcf"/><stop offset="1" stop-color="#f89c0e"/></radialGradient><linearGradient xlink:href="#a" id="al" gradientUnits="userSpaceOnUse" gradientTransform="matrix(346.5 200 -200 346.5 203.9 420.9)" x2="1"/><linearGradient xlink:href="#b" id="am" gradientUnits="userSpaceOnUse" gradientTransform="matrix(336.4 -194.2 194.2 336.4 209 618)" x2="1"/><radialGradient xlink:href="#c" id="an" gradientUnits="userSpaceOnUse" gradientTransform="matrix(383 0 0 383 377.1 520.9)" spreadMethod="pad" cx="0" cy="0" fx="0" fy="0" r="1"/><radialGradient xlink:href="#d" id="ao" gradientUnits="userSpaceOnUse" gradientTransform="matrix(383 0 0 383 377.1 520.9)" spreadMethod="pad" cx="0" cy="0" fx="0" fy="0" r="1"/><radialGradient xlink:href="#e" id="ap" gradientUnits="userSpaceOnUse" gradientTransform="matrix(383 0 0 383 377.2 520.9)" spreadMethod="pad" cx="0" cy="0" fx="0" fy="0" r="1"/><radialGradient xlink:href="#f" id="aq" gradientUnits="userSpaceOnUse" gradientTransform="matrix(383 0 0 383 377.1 520.9)" spreadMethod="pad" cx="0" cy="0" fx="0" fy="0" r="1"/><radialGradient xlink:href="#g" id="ar" gradientUnits="userSpaceOnUse" gradientTransform="matrix(383 0 0 383 377.1 520.9)" spreadMethod="pad" cx="0" cy="0" fx="0" fy="0" r="1"/><radialGradient xlink:href="#h" id="as" gradientUnits="userSpaceOnUse" gradientTransform="matrix(382.5 0 0 382.5 377.4 520.9)" spreadMethod="pad" cx="0" cy="0" fx="0" fy="0" r="1"/><radialGradient xlink:href="#i" id="at" gradientUnits="userSpaceOnUse" gradientTransform="matrix(383 0 0 383 377.1 520.9)" spreadMethod="pad" cx="0" cy="0" fx="0" fy="0" r="1"/><radialGradient xlink:href="#j" id="au" gradientUnits="userSpaceOnUse" gradientTransform="translate(377.3 520.9) scale(383.2)" spreadMethod="pad" cx="0" cy="0" fx="0" fy="0" r="1"/><radialGradient xlink:href="#k" id="av" gradientUnits="userSpaceOnUse" gradientTransform="matrix(383 0 0 383 377.2 520.9)" spreadMethod="pad" cx="0" cy="0" fx="0" fy="0" r="1"/><radialGradient xlink:href="#l" id="aw" gradientUnits="userSpaceOnUse" gradientTransform="matrix(383 0 0 383 377.2 520.9)" spreadMethod="pad" cx="0" cy="0" fx="0" fy="0" r="1"/><radialGradient xlink:href="#m" id="ax" gradientUnits="userSpaceOnUse" gradientTransform="matrix(382.9 0 0 382.9 377.1 520.9)" spreadMethod="pad" cx="0" cy="0" fx="0" fy="0" r="1"/><radialGradient xlink:href="#n" id="ay" gradientUnits="userSpaceOnUse" gradientTransform="matrix(383 0 0 383 377.1 520.9)" spreadMethod="pad" cx="0" cy="0" fx="0" fy="0" r="1"/><radialGradient xlink:href="#o" id="az" gradientUnits="userSpaceOnUse" gradientTransform="matrix(383 0 0 383 377.1 520.9)" spreadMethod="pad" cx="0" cy="0" fx="0" fy="0" r="1"/><radialGradient xlink:href="#p" id="aA" gradientUnits="userSpaceOnUse" gradientTransform="matrix(383 0 0 383 377.1 520.9)" spreadMethod="pad" cx="0" cy="0" fx="0" fy="0" r="1"/><radialGradient xlink:href="#q" id="aB" gradientUnits="userSpaceOnUse" gradientTransform="matrix(383 0 0 383 377.2 520.9)" spreadMethod="pad" cx="0" cy="0" fx="0" fy="0" r="1"/><radialGradient xlink:href="#r" id="aC" gradientUnits="userSpaceOnUse" gradientTransform="matrix(383 0 0 383 377.1 520.9)" spreadMethod="pad" cx="0" cy="0" fx="0" fy="0" r="1"/><radialGradient xlink:href="#s" id="aD" gradientUnits="userSpaceOnUse" gradientTransform="matrix(383.1 0 0 383.1 377.1 520.9)" spreadMethod="pad" cx="0" cy="0" fx="0" fy="0" r="1"/><radialGradient xlink:href="#t" id="aE" gradientUnits="userSpaceOnUse" gradientTransform="translate(377.2 520.9) scale(382.9)" spreadMethod="pad" cx="0" cy="0" fx="0" fy="0" r="1"/><radialGradient xlink:href="#u" id="aF" gradientUnits="userSpaceOnUse" gradientTransform="matrix(383 0 0 383 377.1 520.9)" spreadMethod="pad" cx="0" cy="0" fx="0" fy="0" r="1"/><radialGradient xlink:href="#v" id="aG" gradientUnits="userSpaceOnUse" gradientTransform="matrix(383 0 0 383 377.1 520.9)" spreadMethod="pad" cx="0" cy="0" fx="0" fy="0" r="1"/><radialGradient xlink:href="#w" id="aH" gradientUnits="userSpaceOnUse" gradientTransform="translate(377.2 520.9) scale(382.9)" spreadMethod="pad" cx="0" cy="0" fx="0" fy="0" r="1"/><radialGradient xlink:href="#y" id="aJ" gradientUnits="userSpaceOnUse" gradientTransform="matrix(270.8 0 0 270.8 194.8 520.9)" spreadMethod="pad" cx="0" cy="0" fx="0" fy="0" r="1"/><radialGradient xlink:href="#x" id="aI" gradientUnits="userSpaceOnUse" gradientTransform="matrix(382.9 0 0 382.9 377.1 520.9)" spreadMethod="pad" cx="0" cy="0" fx="0" fy="0" r="1"/><radialGradient xlink:href="#A" id="aL" gradientUnits="userSpaceOnUse" gradientTransform="matrix(270.8 0 0 270.8 214 520.9)" spreadMethod="pad" cx="0" cy="0" fx="0" fy="0" r="1"/><radialGradient xlink:href="#z" id="aK" gradientUnits="userSpaceOnUse" gradientTransform="matrix(383 0 0 383 377.2 520.9)" spreadMethod="pad" cx="0" cy="0" fx="0" fy="0" r="1"/><radialGradient xlink:href="#C" id="aN" gradientUnits="userSpaceOnUse" gradientTransform="matrix(270.8 0 0 270.8 233.2 520.9)" spreadMethod="pad" cx="0" cy="0" fx="0" fy="0" r="1"/><radialGradient xlink:href="#B" id="aM" gradientUnits="userSpaceOnUse" gradientTransform="matrix(383 0 0 383 377.1 520.9)" spreadMethod="pad" cx="0" cy="0" fx="0" fy="0" r="1"/><radialGradient xlink:href="#E" id="aP" gradientUnits="userSpaceOnUse" gradientTransform="matrix(270.8 0 0 270.8 252.4 520.9)" spreadMethod="pad" cx="0" cy="0" fx="0" fy="0" r="1"/><radialGradient xlink:href="#D" id="aO" gradientUnits="userSpaceOnUse" gradientTransform="matrix(383 0 0 383 377.1 520.9)" spreadMethod="pad" cx="0" cy="0" fx="0" fy="0" r="1"/><radialGradient xlink:href="#G" id="aR" gradientUnits="userSpaceOnUse" gradientTransform="matrix(270.8 0 0 270.8 271.6 520.9)" spreadMethod="pad" cx="0" cy="0" fx="0" fy="0" r="1"/><radialGradient xlink:href="#F" id="aQ" gradientUnits="userSpaceOnUse" gradientTransform="matrix(383 0 0 383 377.1 520.9)" spreadMethod="pad" cx="0" cy="0" fx="0" fy="0" r="1"/><radialGradient xlink:href="#I" id="aT" gradientUnits="userSpaceOnUse" gradientTransform="matrix(270.8 0 0 270.8 290.8 520.9)" spreadMethod="pad" cx="0" cy="0" fx="0" fy="0" r="1"/><radialGradient xlink:href="#H" id="aS" gradientUnits="userSpaceOnUse" gradientTransform="matrix(383 0 0 383 377.1 520.9)" spreadMethod="pad" cx="0" cy="0" fx="0" fy="0" r="1"/><radialGradient xlink:href="#K" id="aV" gradientUnits="userSpaceOnUse" gradientTransform="matrix(270.8 0 0 270.8 310 520.9)" spreadMethod="pad" cx="0" cy="0" fx="0" fy="0" r="1"/><radialGradient xlink:href="#J" id="aU" gradientUnits="userSpaceOnUse" gradientTransform="matrix(383 0 0 383 377.1 520.9)" spreadMethod="pad" cx="0" cy="0" fx="0" fy="0" r="1"/><radialGradient xlink:href="#M" id="aX" gradientUnits="userSpaceOnUse" gradientTransform="matrix(270.8 0 0 270.8 329.2 520.9)" spreadMethod="pad" cx="0" cy="0" fx="0" fy="0" r="1"/><radialGradient xlink:href="#L" id="aW" gradientUnits="userSpaceOnUse" gradientTransform="matrix(383 0 0 383 377.1 520.9)" spreadMethod="pad" cx="0" cy="0" fx="0" fy="0" r="1"/><radialGradient xlink:href="#O" id="aZ" gradientUnits="userSpaceOnUse" gradientTransform="matrix(270.8 0 0 270.8 348.3 520.9)" spreadMethod="pad" cx="0" cy="0" fx="0" fy="0" r="1"/><radialGradient xlink:href="#N" id="aY" gradientUnits="userSpaceOnUse" gradientTransform="matrix(383 0 0 383 377.1 520.9)" spreadMethod="pad" cx="0" cy="0" fx="0" fy="0" r="1"/><radialGradient xlink:href="#Q" id="bb" gradientUnits="userSpaceOnUse" gradientTransform="matrix(270.8 0 0 270.8 367.5 520.9)" spreadMethod="pad" cx="0" cy="0" fx="0" fy="0" r="1"/><radialGradient xlink:href="#P" id="ba" gradientUnits="userSpaceOnUse" gradientTransform="matrix(383 0 0 383 377.1 520.9)" spreadMethod="pad" cx="0" cy="0" fx="0" fy="0" r="1"/><radialGradient xlink:href="#S" id="bd" gradientUnits="userSpaceOnUse" gradientTransform="matrix(270.8 0 0 270.8 386.7 520.9)" spreadMethod="pad" cx="0" cy="0" fx="0" fy="0" r="1"/><radialGradient xlink:href="#R" id="bc" gradientUnits="userSpaceOnUse" gradientTransform="matrix(383 0 0 383 377.1 520.9)" spreadMethod="pad" cx="0" cy="0" fx="0" fy="0" r="1"/><radialGradient xlink:href="#U" id="bf" gradientUnits="userSpaceOnUse" gradientTransform="matrix(270.8 0 0 270.8 405.9 520.9)" spreadMethod="pad" cx="0" cy="0" fx="0" fy="0" r="1"/><radialGradient xlink:href="#T" id="be" gradientUnits="userSpaceOnUse" gradientTransform="matrix(383 0 0 383 377.1 520.9)" spreadMethod="pad" cx="0" cy="0" fx="0" fy="0" r="1"/><radialGradient xlink:href="#W" id="bh" gradientUnits="userSpaceOnUse" gradientTransform="matrix(270.8 0 0 270.8 425.1 520.9)" spreadMethod="pad" cx="0" cy="0" fx="0" fy="0" r="1"/><radialGradient xlink:href="#V" id="bg" gradientUnits="userSpaceOnUse" gradientTransform="matrix(383 0 0 383 377.1 520.9)" spreadMethod="pad" cx="0" cy="0" fx="0" fy="0" r="1"/><radialGradient xlink:href="#Y" id="bj" gradientUnits="userSpaceOnUse" gradientTransform="matrix(270.8 0 0 270.8 444.3 520.9)" spreadMethod="pad" cx="0" cy="0" fx="0" fy="0" r="1"/><radialGradient xlink:href="#X" id="bi" gradientUnits="userSpaceOnUse" gradientTransform="matrix(383 0 0 383 377.1 520.9)" spreadMethod="pad" cx="0" cy="0" fx="0" fy="0" r="1"/><radialGradient xlink:href="#aa" id="bl" gradientUnits="userSpaceOnUse" gradientTransform="matrix(270.8 0 0 270.8 463.5 520.9)" spreadMethod="pad" cx="0" cy="0" fx="0" fy="0" r="1"/><radialGradient xlink:href="#Z" id="bk" gradientUnits="userSpaceOnUse" gradientTransform="matrix(383 0 0 383 377.2 520.9)" spreadMethod="pad" cx="0" cy="0" fx="0" fy="0" r="1"/><radialGradient xlink:href="#ac" id="bn" gradientUnits="userSpaceOnUse" gradientTransform="matrix(270.8 0 0 270.8 482.7 520.9)" spreadMethod="pad" cx="0" cy="0" fx="0" fy="0" r="1"/><radialGradient xlink:href="#ab" id="bm" gradientUnits="userSpaceOnUse" gradientTransform="matrix(382.9 0 0 383 377.2 520.9)" spreadMethod="pad" cx="0" cy="0" fx="0" fy="0" r="1"/><radialGradient xlink:href="#ae" id="bp" gradientUnits="userSpaceOnUse" gradientTransform="matrix(270.8 0 0 270.8 501.9 520.9)" spreadMethod="pad" cx="0" cy="0" fx="0" fy="0" r="1"/><radialGradient xlink:href="#ad" id="bo" gradientUnits="userSpaceOnUse" gradientTransform="matrix(383 0 0 383 377.1 520.9)" spreadMethod="pad" cx="0" cy="0" fx="0" fy="0" r="1"/><radialGradient xlink:href="#ag" id="br" gradientUnits="userSpaceOnUse" gradientTransform="matrix(270.8 0 0 270.8 521.1 520.9)" spreadMethod="pad" cx="0" cy="0" fx="0" fy="0" r="1"/><radialGradient xlink:href="#af" id="bq" gradientUnits="userSpaceOnUse" gradientTransform="matrix(382.9 0 0 382.9 377.2 520.9)" spreadMethod="pad" cx="0" cy="0" fx="0" fy="0" r="1"/><radialGradient xlink:href="#ai" id="bt" gradientUnits="userSpaceOnUse" gradientTransform="matrix(270.8 0 0 270.8 540.3 520.9)" spreadMethod="pad" cx="0" cy="0" fx="0" fy="0" r="1"/><radialGradient xlink:href="#ah" id="bs" gradientUnits="userSpaceOnUse" gradientTransform="matrix(382.9 0 0 382.9 377.2 520.9)" spreadMethod="pad" cx="0" cy="0" fx="0" fy="0" r="1"/><radialGradient xlink:href="#ak" id="bv" gradientUnits="userSpaceOnUse" gradientTransform="matrix(270.8 0 0 270.8 559.5 520.9)" spreadMethod="pad" cx="0" cy="0" fx="0" fy="0" r="1"/><radialGradient xlink:href="#aj" id="bu" gradientUnits="userSpaceOnUse" gradientTransform="matrix(383.1 0 0 383.1 377.1 520.9)" spreadMethod="pad" cx="0" cy="0" fx="0" fy="0" r="1"/></defs><path d="M577.143 520.93c0 110.457-89.548 200.008-200.004 200.008-110.452 0-199.997-89.55-199.997-200.007 0-110.456 89.545-200 199.996-200 110.455 0 200.003 89.544 200.003 200" fill="url(#al)" transform="translate(-177.1 -320.9)"/><path d="M571.315 520.93c0 107.24-86.934 194.175-194.176 194.175-107.238 0-194.172-86.935-194.172-194.174 0-107.24 86.934-194.176 194.17-194.176 107.243 0 194.177 86.935 194.177 194.177" fill="url(#am)" transform="translate(-177.1 -320.9)"/><path d="M63.234 336.845C26.694 300.3 6.568 251.712 6.568 200.03c0-51.68 20.126-100.265 56.666-136.807C99.776 26.68 148.364 6.558 200.04 6.558c51.683 0 100.267 20.123 136.81 56.665 36.544 36.542 56.667 85.127 56.667 136.808 0 51.682-20.123 100.27-56.668 136.815-36.543 36.536-85.127 56.662-136.81 56.662-51.677 0-100.264-20.126-136.806-56.662zm-.987-274.61C25.437 99.046 5.17 147.98 5.17 200.032c0 52.053 20.268 100.992 57.077 137.8 36.806 36.807 85.742 57.075 137.792 57.075 52.053 0 100.99-20.268 137.8-57.074 36.802-36.808 57.076-85.747 57.076-137.8 0-52.05-20.274-100.985-57.077-137.794-36.81-36.806-85.744-57.08-137.8-57.08-52.05 0-100.987 20.274-137.793 57.08" fill="#fff"/><path d="M276.263 362.648v316.57c3.2 2.04 6.48 3.988 9.806 5.84V356.812c-3.328 1.847-6.606 3.795-9.807 5.836" fill="url(#an)" transform="translate(-177.1 -320.9)"/><path d="M295.46 351.92v338.028c3.217 1.553 6.487 3.017 9.803 4.396v-346.82c-3.316 1.373-6.586 2.84-9.803 4.395" fill="url(#ao)" transform="translate(-177.1 -320.9)"/><path d="M257.07 376.696v288.472c3.178 2.652 6.45 5.19 9.805 7.633V369.067c-3.355 2.437-6.627 4.98-9.806 7.63" fill="url(#ap)" transform="translate(-177.1 -320.9)"/><path d="M314.652 343.924V697.94c3.23 1.138 6.498 2.2 9.806 3.163v-360.34c-3.308.965-6.575 2.023-9.806 3.16" fill="url(#aq)" transform="translate(-177.1 -320.9)"/><path d="M333.85 338.28v365.3c3.235.768 6.505 1.458 9.802 2.048V336.236c-3.297.596-6.567 1.283-9.803 2.044" fill="url(#ar)" transform="translate(-177.1 -320.9)"/><path d="M564.82 520.934c0-5.166-.214-10.282-.626-15.345v30.683c.412-5.06.626-10.177.626-15.34" fill="url(#as)" transform="translate(-177.1 -320.9)"/><path d="M377.14 333.258c-1.64 0-3.268.027-4.9.06v375.23c1.632.045 3.26.06 4.9.06 1.64 0 3.277-.03 4.9-.06V333.32c-1.623-.04-3.26-.06-4.9-.06" fill="url(#at)" transform="translate(-177.1 -320.9)"/><path d="M189.466 520.934c0 5.162.22 10.275.626 15.336v-30.68c-.407 5.065-.626 10.178-.626 15.344" fill="url(#au)" transform="translate(-177.1 -320.9)"/><path d="M199.483 460.293v121.284c2.75 8.048 6.034 15.85 9.806 23.368V436.917c-3.773 7.522-7.057 15.323-9.807 23.376" fill="url(#av)" transform="translate(-177.1 -320.9)"/><path d="M237.872 395.132v251.603c3.146 3.476 6.412 6.836 9.806 10.072v-271.75c-3.394 3.236-6.66 6.6-9.806 10.075" fill="url(#aw)" transform="translate(-177.1 -320.9)"/><path d="M218.677 420.343v201.18c3.06 4.81 6.336 9.46 9.804 13.96V406.382c-3.467 4.5-6.742 9.155-9.803 13.963" fill="url(#ax)" transform="translate(-177.1 -320.9)"/><path d="M353.046 334.793v372.283c3.242.415 6.51.75 9.8.995V333.794c-3.29.248-6.558.586-9.8 1" fill="url(#ay)" transform="translate(-177.1 -320.9)"/><path d="M468.214 356.812v328.246c3.336-1.852 6.605-3.8 9.806-5.84V362.65c-3.2-2.04-6.47-3.99-9.806-5.836" fill="url(#az)" transform="translate(-177.1 -320.9)"/><path d="M487.408 369.066V672.8c3.358-2.442 6.627-4.98 9.81-7.632V376.696c-3.183-2.65-6.452-5.193-9.81-7.63" fill="url(#aA)" transform="translate(-177.1 -320.9)"/><path d="M410.63 336.236v369.392c3.298-.59 6.568-1.28 9.804-2.047v-365.3c-3.236-.76-6.506-1.448-9.803-2.044" fill="url(#aB)" transform="translate(-177.1 -320.9)"/><path d="M449.02 347.523v346.82c3.316-1.378 6.588-2.842 9.803-4.395v-338.03c-3.215-1.554-6.487-3.02-9.803-4.395" fill="url(#aC)" transform="translate(-177.1 -320.9)"/><path d="M525.8 406.38v229.104c3.473-4.5 6.745-9.15 9.808-13.96v-201.18c-3.063-4.81-6.335-9.466-9.808-13.963" fill="url(#aD)" transform="translate(-177.1 -320.9)"/><path d="M544.997 436.917v168.028c3.77-7.517 7.055-15.32 9.803-23.368V460.29c-2.748-8.05-6.034-15.85-9.803-23.373" fill="url(#aE)" transform="translate(-177.1 -320.9)"/><path d="M429.826 340.764v360.34c3.308-.965 6.574-2.026 9.805-3.163l.002-354.016c-3.232-1.138-6.498-2.196-9.806-3.16" fill="url(#aF)" transform="translate(-177.1 -320.9)"/><path d="M391.437 333.793V708.07c3.292-.244 6.56-.58 9.803-.994V334.793c-3.242-.414-6.51-.752-9.803-1" fill="url(#aG)" transform="translate(-177.1 -320.9)"/><path d="M506.61 385.057v271.75c3.39-3.236 6.658-6.596 9.8-10.072V395.132c-3.142-3.476-6.41-6.84-9.8-10.075" fill="url(#aH)" transform="translate(-177.1 -320.9)"/><path d="M190.092 505.59v30.68c1.272 15.727 4.48 30.91 9.39 45.307V460.293c-4.91 14.39-8.118 29.574-9.39 45.298" fill="url(#aI)" transform="translate(-177.1 -320.9)"/><path d="M190.092 505.59v30.68c1.272 15.727 4.48 30.91 9.39 45.307V460.293c-4.91 14.39-8.118 29.574-9.39 45.298" fill="url(#aJ)" transform="translate(-177.1 -320.9)"/><path d="M209.29 436.917v168.028c2.854 5.698 5.99 11.23 9.387 16.58V420.342c-3.398 5.35-6.533 10.88-9.388 16.574" fill="url(#aK)" transform="translate(-177.1 -320.9)"/><path d="M209.29 436.917v168.028c2.854 5.698 5.99 11.23 9.387 16.58V420.342c-3.398 5.35-6.533 10.88-9.388 16.574" fill="url(#aL)" transform="translate(-177.1 -320.9)"/><path d="M228.48 406.38v229.104c2.99 3.868 6.117 7.624 9.392 11.25V395.133c-3.275 3.624-6.402 7.38-9.39 11.25" fill="url(#aM)" transform="translate(-177.1 -320.9)"/><path d="M228.48 406.38v229.104c2.99 3.868 6.117 7.624 9.392 11.25V395.133c-3.275 3.624-6.402 7.38-9.39 11.25" fill="url(#aN)" transform="translate(-177.1 -320.9)"/><path d="M247.678 385.057v271.75c3.033 2.888 6.17 5.67 9.39 8.36v-288.47c-3.22 2.683-6.357 5.47-9.39 8.36" fill="url(#aO)" transform="translate(-177.1 -320.9)"/><path d="M247.678 385.057v271.75c3.033 2.888 6.17 5.67 9.39 8.36v-288.47c-3.22 2.683-6.357 5.47-9.39 8.36" fill="url(#aP)" transform="translate(-177.1 -320.9)"/><path d="M266.875 369.066V672.8c3.06 2.224 6.19 4.375 9.388 6.42V362.647c-3.198 2.044-6.328 4.19-9.388 6.418" fill="url(#aQ)" transform="translate(-177.1 -320.9)"/><path d="M266.875 369.066V672.8c3.06 2.224 6.19 4.375 9.388 6.42V362.647c-3.198 2.044-6.328 4.19-9.388 6.418" fill="url(#aR)" transform="translate(-177.1 -320.9)"/><path d="M286.07 356.812v328.246c3.08 1.71 6.206 3.346 9.39 4.89v-338.03c-3.184 1.542-6.31 3.174-9.39 4.894" fill="url(#aS)" transform="translate(-177.1 -320.9)"/><path d="M286.07 356.812v328.246c3.08 1.71 6.206 3.346 9.39 4.89v-338.03c-3.184 1.542-6.31 3.174-9.39 4.894" fill="url(#aT)" transform="translate(-177.1 -320.9)"/><path d="M305.263 347.523v346.82c3.09 1.282 6.223 2.48 9.39 3.598V343.925c-3.167 1.12-6.3 2.316-9.39 3.6" fill="url(#aU)" transform="translate(-177.1 -320.9)"/><path d="M305.263 347.523v346.82c3.09 1.282 6.223 2.48 9.39 3.598V343.925c-3.167 1.12-6.3 2.316-9.39 3.6" fill="url(#aV)" transform="translate(-177.1 -320.9)"/><path d="M324.458 340.764v360.34c3.1.9 6.228 1.73 9.39 2.477v-365.3c-3.162.753-6.29 1.577-9.39 2.484" fill="url(#aW)" transform="translate(-177.1 -320.9)"/><path d="M324.458 340.764v360.34c3.1.9 6.228 1.73 9.39 2.477v-365.3c-3.162.753-6.29 1.577-9.39 2.484" fill="url(#aX)" transform="translate(-177.1 -320.9)"/><path d="M343.652 336.236v369.392c3.107.555 6.237 1.044 9.394 1.448V334.793c-3.157.402-6.287.888-9.394 1.443" fill="url(#aY)" transform="translate(-177.1 -320.9)"/><path d="M343.652 336.236v369.392c3.107.555 6.237 1.044 9.394 1.448V334.793c-3.157.402-6.287.888-9.394 1.443" fill="url(#aZ)" transform="translate(-177.1 -320.9)"/><path d="M362.846 333.793V708.07c3.113.237 6.243.394 9.394.48V333.317c-3.15.082-6.28.236-9.394.475" fill="url(#ba)" transform="translate(-177.1 -320.9)"/><path d="M362.846 333.793V708.07c3.113.237 6.243.394 9.394.48V333.317c-3.15.082-6.28.236-9.394.475" fill="url(#bb)" transform="translate(-177.1 -320.9)"/><path d="M382.04 333.318v375.23c3.157-.084 6.287-.24 9.397-.477V333.794c-3.11-.24-6.24-.393-9.397-.475" fill="url(#bc)" transform="translate(-177.1 -320.9)"/><path d="M382.04 333.318v375.23c3.157-.084 6.287-.24 9.397-.477V333.794c-3.11-.24-6.24-.393-9.397-.475" fill="url(#bd)" transform="translate(-177.1 -320.9)"/><path d="M401.24 334.793v372.283c3.154-.404 6.284-.893 9.39-1.448V336.236c-3.106-.555-6.236-1.04-9.39-1.443" fill="url(#be)" transform="translate(-177.1 -320.9)"/><path d="M401.24 334.793v372.283c3.154-.404 6.284-.893 9.39-1.448V336.236c-3.106-.555-6.236-1.04-9.39-1.443" fill="url(#bf)" transform="translate(-177.1 -320.9)"/><path d="M420.434 338.28v365.3c3.16-.746 6.295-1.576 9.392-2.477v-360.34c-3.097-.906-6.232-1.73-9.392-2.483" fill="url(#bg)" transform="translate(-177.1 -320.9)"/><path d="M420.434 338.28v365.3c3.16-.746 6.295-1.576 9.392-2.477v-360.34c-3.097-.906-6.232-1.73-9.392-2.483" fill="url(#bh)" transform="translate(-177.1 -320.9)"/><path d="M439.632 343.924V697.94c3.167-1.117 6.3-2.315 9.388-3.596v-346.82c-3.088-1.284-6.22-2.48-9.388-3.6" fill="url(#bi)" transform="translate(-177.1 -320.9)"/><path d="M439.632 343.924V697.94c3.167-1.117 6.3-2.315 9.388-3.596v-346.82c-3.088-1.284-6.22-2.48-9.388-3.6" fill="url(#bj)" transform="translate(-177.1 -320.9)"/><path d="M458.823 351.92v338.028c3.187-1.544 6.314-3.18 9.39-4.89V356.812c-3.076-1.72-6.203-3.352-9.39-4.893" fill="url(#bk)" transform="translate(-177.1 -320.9)"/><path d="M458.823 351.92v338.028c3.187-1.544 6.314-3.18 9.39-4.89V356.812c-3.076-1.72-6.203-3.352-9.39-4.893" fill="url(#bl)" transform="translate(-177.1 -320.9)"/><path d="M478.02 362.648v316.57c3.2-2.043 6.328-4.19 9.388-6.417V369.067c-3.06-2.228-6.187-4.374-9.388-6.418" fill="url(#bm)" transform="translate(-177.1 -320.9)"/><path d="M478.02 362.648v316.57c3.2-2.043 6.328-4.19 9.388-6.417V369.067c-3.06-2.228-6.187-4.374-9.388-6.418" fill="url(#bn)" transform="translate(-177.1 -320.9)"/><path d="M497.217 376.696v288.472c3.22-2.69 6.352-5.467 9.394-8.36v-271.75c-3.04-2.892-6.173-5.678-9.393-8.362" fill="url(#bo)" transform="translate(-177.1 -320.9)"/><path d="M497.217 376.696v288.472c3.22-2.69 6.352-5.467 9.394-8.36v-271.75c-3.04-2.892-6.173-5.678-9.393-8.362" fill="url(#bp)" transform="translate(-177.1 -320.9)"/><path d="M516.41 395.132v251.603c3.28-3.627 6.406-7.383 9.39-11.25V406.38c-2.984-3.868-6.11-7.624-9.39-11.248" fill="url(#bq)" transform="translate(-177.1 -320.9)"/><path d="M516.41 395.132v251.603c3.28-3.627 6.406-7.383 9.39-11.25V406.38c-2.984-3.868-6.11-7.624-9.39-11.248" fill="url(#br)" transform="translate(-177.1 -320.9)"/><path d="M535.608 420.343v201.18c3.4-5.35 6.534-10.88 9.39-16.578V436.917c-2.856-5.693-5.99-11.224-9.39-16.574" fill="url(#bs)" transform="translate(-177.1 -320.9)"/><path d="M535.608 420.343v201.18c3.4-5.35 6.534-10.88 9.39-16.578V436.917c-2.856-5.693-5.99-11.224-9.39-16.574" fill="url(#bt)" transform="translate(-177.1 -320.9)"/><path d="M554.8 581.577c4.91-14.39 8.12-29.574 9.394-45.304V505.59c-1.275-15.728-4.484-30.906-9.394-45.3v121.287" fill="url(#bu)" transform="translate(-177.1 -320.9)"/><path d="M554.8 581.577c4.91-14.39 8.12-29.574 9.394-45.304V505.59c-1.275-15.728-4.484-30.906-9.394-45.3v121.287" fill="url(#bv)" transform="translate(-177.1 -320.9)"/><path d="M174.23 343.425c-4.607-.704-8 3.492-8.873 9.2-.87 5.708 1.373 10.766 5.723 11.428 4.344.665 8-3.49 8.87-9.198.872-5.707-1.504-10.787-5.72-11.43zm-3.574 23.387c-7.135-1.09-11.965-7.704-10.874-14.84 1.088-7.135 7.66-12.138 14.828-11.042 7.168 1.094 11.958 7.767 10.867 14.903-1.088 7.135-7.652 12.072-14.82 10.98" fill="#231f20"/><path d="M199.028 357.517l-2.328-.218s.64-2.12-1.033-2.16c-1.412-.03-2.835 1.975-2.865 3.385-.022.657-.11 4.89-.128 5.514-.022 1.013.492 1.486 1.38 1.508.36 0 .656.026 1.016.026l-.053 2.393-9.287-.206.053-2.395c.363 0 .756.026 1.116.026.853.027.96-.37.974-1.06.022-.788.152-6.725.172-7.514.022-.59-.172-1.25-.86-1.27-.588 0-1.12.24-1.12.24l-.578-2.047 7.146-2.37-.068 3.017c1.094-1.91 3.058-3.18 5.157-3.132.987.026 1.995.37 1.995.37l-.69 5.897M203.553 348.288c-1.28.068-2.41-.79-2.476-2.003-.086-1.604 1.215-3.12 3.18-3.226 1.77-.097 2.593 1.142 2.634 1.96.106 1.9-1.47 3.17-3.337 3.268zm-2.366 19.645l-.13-2.39c.294-.03.624-.034.852-.047.49-.026.97-.316.928-1.066-.03-.492-.382-7.146-.415-7.7-.033-.688-.51-.993-1.003-.966-.196 0-.783.108-1.038.253l-.737-2.063 7.276-2.888c.08 1.508.62 11.53.69 12.908.05.885.558 1.187 1.15 1.157.26 0 .554-.03.88-.045l.13 2.39-8.583.46M216.947 352.536c-1.17.162-1.475 2.027-1.2 4.008.337 2.437 1.227 3.84 2.335 3.688 1.038-.145 1.313-1.74 1.02-4.12-.254-2.05-1.05-3.73-2.155-3.576zm4.174 16.25c-2.08.29-4.972.688-6.223.268 0 0-.722.297-.527 1.695.12.878 1.195 1.69 4.247 1.266 2.927-.407 4.897-1.74 4.806-2.388-.145-1.04-.223-1.13-2.302-.84zm2.534-14.728s.195.47.25.86c.505 3.64-1.165 7.382-5.424 7.973-.876.122-2.616 0-2.616 0-.46.262-.425.754-.376 1.114.097.945 2.138.596 3.794.368 1.075-.152 3.015-.486 4.943-.423 1.833.078 3.676 1.41 3.918 3.167.324 2.34-.55 3.92-2.62 5.698-1.482 1.267-5.216 2.05-6.94 2.286-4.58.636-7.71-.653-8.046-3.09-.242-1.722.445-2.978 2.215-4.083-.673-.568-1.182-1.362-1.322-2.368-.19-1.4.725-2.886 2.245-3.66-1.27-.784-2.53-2.465-2.863-4.87-.456-3.283 1.915-6.495 5.816-7.036 2.894-.4 4.74.967 5.833 2.173.39-1.51 1.24-3.02 3.19-3.288l.532 3.83c-.767-.025-1.78-.18-2.528 1.348" fill="#231f20"/><path d="M228.753 344.906c-1.247.283-2.506-.37-2.778-1.553-.36-1.568.66-3.283 2.58-3.722 1.728-.395 2.748.685 2.932 1.484.423 1.855-.91 3.37-2.734 3.792zm1.028 19.757l-.538-2.335c.29-.066.61-.136.833-.19.48-.11.898-.475.733-1.21l-1.722-7.518c-.154-.668-.676-.888-1.154-.778-.192.047-.753.24-.98.43l-1.078-1.91 6.673-4.09c.336 1.474 2.578 11.26 2.885 12.604.198.863.753 1.074 1.328.942.255-.057.544-.123.865-.2l.533 2.338-8.377 1.918M250.255 359.09l-.752-2.274.934-.31c.406-.134.478-.434.362-.778l-2.234-6.76c-.517-1.556-1.575-2.037-2.822-1.622-1.714.566-2.393 3.21-1.97 4.49.3.9 1.184 3.582 1.67 5.046.237.717.443 1.13 1.443.8.34-.112.277-.09.62-.207l.754 2.275-8.316 2.753-.753-2.272c.342-.113.78-.257 1.122-.373.81-.266.893-.535.582-1.472-.244-.748-2.132-6.45-2.382-7.196-.162-.498-.722-.935-1.066-.823-.788.228-1.112.61-1.112.61l-1.22-1.706 5.945-4.593.928 2.806c.7-2.583 2.19-4.045 4.182-4.707 3.366-1.11 5.602.637 6.613 3.69l2.382 7.196c.267.81.566 1.09 1.223.873.654-.217.904-.3 1.12-.368l.754 2.273-8.007 2.648M264.993 344.697c-1.962.915-3.8 2.64-2.943 4.484.65 1.402 2.01 1.6 2.872 1.2 1.014-.474 1.632-1.63 1.305-3.034l-1.234-2.65zm3.635 7.578l-.83-1.786c-.607 1.73-1.68 2.917-3.32 3.678-2.796 1.302-5.288.615-6.395-1.764-1.937-4.166 1.51-7.108 5.927-9.746-.123-.266-.5-1.07-.608-1.31-.706-1.517-1.865-1.59-3.324-.913-1.517.707-2.21 1.86-3.055 3.232l-1.86-1.272c.398-1.09 2.154-4.006 5.07-5.364 3.897-1.812 6.238-.513 7.612 2.433 1.15 2.47 2.643 5.682 2.948 6.34.456.982 1.215 1.207 1.63 1.012.417-.193 1.046-.703 1.046-.703l1.115 2.16-5.957 4.003M276 347.928l-1.195-2.077c.34-.195.538-.31.994-.57.51-.295.705-.748.345-1.374-.36-.624-7.51-13.06-7.965-13.856-.46-.797-.832-1.187-1.574-.76-.228.13-.525.34-.74.688l-1.645-1.475 5.216-5.877 10.864 18.892c.294.514.763.734 1.302.423.316-.177.484-.276.885-.507l1.192 2.077-7.68 4.418M290.696 339.96c-.022.995-.497 2.41-.93 3.48l-1.38-.424c.38-1.036.802-1.943.615-2.765-.2.293-.447.573-.914.878-1.123.74-2.35.25-2.997-.737-.89-1.34-.504-3.087 1.114-4.15 1.23-.81 2.76-.64 3.627.676.523.794.883 1.816.866 3.044M304.934 339.023c-.286.528-1.11 1.704-1.11 1.704l-1.865-.896s.347-.873.617-1.895c.393-1.544-.152-3.467-1-4.514-.85-1.043-7.215-8.893-7.98-9.835-.744-.918-1.255-.923-1.766-.51-.2.164-.642.774-.642.774l-1.78-1.263 4.19-6.61c4.772 5.888 10.026 12.364 10.935 13.485 2.275 2.802 2.508 5.698.4 9.56zm-15.828-23.164c-.995.807-2.416.774-3.18-.168-1.013-1.248-.85-3.237.676-4.48 1.377-1.114 2.77-.595 3.287.043 1.196 1.478.67 3.43-.784 4.605M303.327 310.795c-1.816 1.756-.36 4.775 1.327 6.52 1.736 1.79 4.704 3.396 6.542 1.618 1.794-1.733.357-4.682-1.4-6.498-1.732-1.794-4.675-3.374-6.47-1.64zm10.014 10.356c-3.655 3.537-9.032 3.168-12.365-.277-3.12-3.23-3.26-8.666.346-12.155 3.75-3.627 8.942-3.168 12.112.112 3.308 3.42 3.635 8.718-.09 12.32M320.823 291.164c-.398.48-.406.854.066 1.882.386.874 5.645 11.836 5.975 12.576l-1.418 1.722c-1.118-.244-13.045-2.747-14.14-2.967-1-.185-1.334-.033-2.002.777l-1.85-1.522 5.757-6.995 1.852 1.522c-.25.304-.294.354-.522.634-.29.354-.286.657 0 .885.126.104.344.152.608.243 1.052.272 6.346 1.484 6.346 1.484s-2.093-4.53-2.566-5.56c-.415-.89-.937-1.238-1.29-.806-.188.23-.336.405-.482.586-.404-.335-1.85-1.525-1.85-1.525l3.944-4.79 1.85 1.524c-.106.126-.188.228-.27.33M325.26 284.394c-.915 1.4-.37 2.97 1.882 4.443.413.27 1.097.48 1.097.48s.496-2.142.952-4.16c.156-.72.26-1.238.26-1.238s-3.024-1.312-4.192.474zm12.546 7.02c-2.852 4.37-7.78 5.306-12.202 2.415-4.176-2.726-5.006-7.7-2.707-11.216 2.045-3.133 6.3-4.43 10.213-2.737l-2.448 10.355c2.6.76 4.253-.513 5.17-1.914.806-1.237 1.193-3.333.833-4.943l2.34-.156c.51 1.977.562 5.5-1.2 8.194M347.12 273.918l-2.143-1.072c.19-.385.277-.56.44-.882.188-.382.028-.646-.295-.808-.44-.22-5.05-2.522-6.368-3.184-1.47-.734-2.553-.32-3.14.852-.81 1.613.587 3.962 1.79 4.563l4.754 2.377c.676.338 1.115.486 1.585-.453l.294-.585 2.143 1.07-3.918 7.835-2.143-1.07c.162-.32.365-.732.527-1.056.382-.764.25-1.014-.63-1.454-.706-.352-6.077-3.04-6.78-3.39-.47-.234-1.174-.145-1.336.176-.394.72-.353 1.217-.353 1.217l-2.07-.335.94-7.457 2.644 1.322c-1.337-2.32-1.324-4.404-.38-6.28 1.58-3.17 4.4-3.523 7.277-2.086l6.778 3.39c.767.382 1.176.37 1.487-.247.307-.62.423-.852.524-1.06l2.143 1.073-3.77 7.545M346.562 239.35c.74.715 16.032 15.137 17.172 16.217l-1.464 4.668c-.418-.75-.67-1.04-1.602-2.017-.932-.978-5.795-6.424-5.795-6.424s-11.707 1.902-12.803 2.11c-.954.18-1.23.3-1.544 1.303l-2.286-.717 2.632-8.39 2.286.713c-.12.377-.12.377-.226.723-.14.437-.022.714.325.824.156.046.373.026.654 0 1.078-.143 6.768-.734 6.768-.734s-3.883-3.865-4.704-4.637c-.72-.675-1.335-.903-1.54-.243-.09.28-.138.437-.208.656l-2.286-.717 1.797-5.73 2.283.716c-.222.72-.228.96.54 1.682M351.433 220.822c-1.134-.167-2.81.615-3.102 2.593-.29 1.98 1.612 3.256 3.98 3.605 3.344.495 6.98-.097 7.363-2.693.13-.876-.382-1.912-1.456-2.503l-6.784-1.002zm11.864 1.654l-1.948-.292c1.167 1.303 1.568 2.622 1.266 4.666-.665 4.51-5.245 6.322-9.336 5.72-4.962-.73-8.358-4.25-7.64-9.12.22-1.494.633-2.263 1.444-3.27l-3.73-.548c-.812-.12-1.237.28-1.314.8-.064.423.112 1.044.112 1.044l-2.267.296-1.382-7.7s20.123 2.972 20.672 3.05c.846.125 1.64-.09 1.772-1 .073-.485-.057-1.167-.057-1.167l2.42.226-.02 7.296M363.712 213.593l-2.39-.132c.022-.293.035-.623.046-.85.03-.493-.21-.998-.962-1.04l-7.698-.423c-.69-.037-1.04.402-1.07.896-.02.196.023.79.142 1.058l-2.135.51-2.08-7.543c1.506.082 11.532.632 12.908.71.885.05 1.24-.424 1.272-1.015.022-.264.03-.557.05-.884l2.39.13-.474 8.585zm-19.274-4.48c-.068 1.28-1.047 2.312-2.258 2.243-1.605-.088-2.973-1.544-2.863-3.508.096-1.77 1.415-2.454 2.234-2.407 1.902.106 2.99 1.806 2.888 3.674M350.002 186.395c.022.62.258.91 1.288 1.368.87.4 12.05 5.163 12.78 5.5l.072 2.232c-1 .557-11.61 6.54-12.576 7.097-.87.52-1.022.854-.99 1.9l-2.392.078-.288-9.05 2.393-.077c.02.393.02.458.023.818.022.463.22.686.58.675.165 0 .36-.11.618-.218.97-.49 5.743-3.072 5.743-3.072s-4.56-2.02-5.59-2.48c-.9-.4-1.52-.31-1.504.244 0 .293.02.524.023.754-.525.03-2.393.077-2.393.077l-.198-6.197 2.394-.077c0 .165 0 .294.022.43M348.875 178.336c.234 1.657 1.676 2.48 4.34 2.1.488-.07 1.142-.363 1.142-.363s-1.04-1.94-2.025-3.753c-.357-.646-.62-1.105-.62-1.105s-3.14 1.01-2.837 3.12zm14.054-2.994c.735 5.165-2.347 9.116-7.58 9.86-4.933.7-8.835-2.486-9.428-6.643-.528-3.705 1.82-7.485 5.874-8.793l4.984 9.4c2.454-1.147 2.86-3.19 2.624-4.848-.21-1.462-1.297-3.298-2.63-4.265l1.655-1.662c1.686 1.15 4.046 3.764 4.5 6.95M347.642 156.255l.395 2.302s-2.21-.068-1.816 1.558c.337 1.37 2.642 2.225 4.01 1.887.64-.154 4.75-1.16 5.355-1.307.986-.242 1.308-.863 1.1-1.723l-.243-.987 2.327-.57 2.206 9.02-2.328.568-.263-1.083c-.203-.83-.61-.832-1.28-.667-.765.186-6.532 1.6-7.295 1.785-.575.14-1.165.487-1.003 1.157.14.574.522 1.022.522 1.022l-1.828 1.088-4.138-6.28 2.93-.72c-2.13-.558-3.864-2.127-4.362-4.166-.236-.957-.158-2.023-.158-2.023l5.87-.862M355.54 145.042c.987 2.887-.334 5.003-2.76 5.83-1.022.35-5.9 2.014-9.067 3.094l.646 1.896-2.145.73-6.728-4.882 4.132-1.41s-1.22-3.57-1.435-4.192l2.948-.415c.066.602.163 1.192.31 1.627.152.434.49 1.428.723 2.112 3.385-1.156 7.98-2.725 8.322-2.84.965-.328 1.57-1.09 1.146-2.333-.233-.685-.736-1.345-1.476-1.892l1.265-1.678c2 1.088 3.453 2.393 4.118 4.352M352.576 138.382l-2.206.934-.332-.783c-.192-.454-.627-.805-1.322-.51-.453.194-6.583 2.796-7.097 3.013-.635.27-.76.82-.567 1.275.077.18.368.7.594.89l-1.69 1.397-5.196-5.853c1.392-.59 10.634-4.517 11.904-5.055.816-.347.923-.927.695-1.47-.107-.243-.22-.515-.347-.817l2.203-.937 3.36 7.916zm-19.276 4.476c.5 1.178.08 2.533-1.042 3.008-1.475.63-3.346-.075-4.115-1.887-.693-1.63.19-2.83.945-3.148 1.753-.744 3.48.306 4.212 2.026M333.118 124c-1.01.548-1.887 2.172-.937 3.936.95 1.763 3.235 1.65 5.345.513 2.98-1.602 5.542-4.248 4.297-6.56-.417-.78-1.447-1.307-2.665-1.14-1.79.965-5.374 2.894-6.04 3.25zm10.504-5.763l-1.736.934c1.714.347 2.827 1.166 3.805 2.985 2.163 4.017-.428 8.207-4.068 10.168-4.42 2.38-9.248 1.583-11.58-2.75-.718-1.332-.844-2.192-.795-3.486-.868.464-3.006 1.615-3.324 1.788-.723.388-.822.965-.572 1.426.2.377.713.773.713.773l-1.643 1.59-5.71-5.348 18.41-9.908c.75-.404 1.26-1.05.826-1.86-.234-.434-.748-.904-.748-.904l2.078-1.264 4.346 5.857M322.538 111.772c1.45 2.072 4.66 1.104 6.65-.29 2.043-1.427 4.095-4.106 2.625-6.203-1.43-2.045-4.566-1.09-6.638.36-2.044 1.43-4.07 4.09-2.637 6.132zm11.803-8.262c2.92 4.165 1.71 9.42-2.216 12.17-3.685 2.58-9.073 1.864-11.952-2.25-2.992-4.277-1.726-9.33 2.014-11.948 3.9-2.728 9.182-2.222 12.155 2.028M278.78 67.138c-7.902-21.708-31.904-32.902-53.615-25-21.706 7.9-32.9 31.905-25 53.613.445 1.224.948 2.405 1.492 3.556-10.567.662-21.22 2.8-31.67 6.605-58.05 21.13-88.252 84.834-68.25 143.008-3.033.387-6.072 1.1-9.067 2.19-21.71 7.9-32.9 31.907-25 53.618 7.903 21.703 31.905 32.9 53.613 24.997 11.576-4.212 20.156-13.007 24.453-23.582 28.937 19.352 66.39 25.146 101.613 12.324 58.69-21.363 88.958-86.265 67.593-144.96-9.45-25.962-27.43-46.35-49.612-59.18 13.824-10.87 19.79-29.76 13.45-47.186" fill="#231f20"/><path d="M71.644 303.278c-7.092-19.486 2.992-41.1 22.472-48.197 2.61-.945 5.355-1.612 8.157-1.967l5.155-.656-1.687-4.913c-9.322-27.107-7.665-56.302 4.67-82.204 12.35-25.933 34.027-45.628 61.02-55.456 9.793-3.566 20.056-5.706 30.49-6.355l5.938-.372-2.376-5.654-1.34-3.2c-3.436-9.436-2.988-19.646 1.257-28.75 4.24-9.106 11.778-16.008 21.216-19.443 19.482-7.09 41.094 2.99 48.19 22.473 1.537 4.23 2.282 8.586 2.282 12.897 0 11.293-5.105 22.236-14.373 29.525l-4.907 3.855 5.405 3.13c22.068 12.762 39.03 32.992 47.755 56.96 4.46 12.25 6.572 24.79 6.572 37.132 0 44.48-27.478 86.333-71.637 102.406-32.467 11.822-69.034 7.385-97.817-11.86l-4.314-2.884-1.954 4.806c-3.997 9.84-12.012 17.57-21.983 21.197-19.482 7.097-41.1-2.99-48.19-22.47zM223.722 38.165c-11.558 4.204-20.79 12.667-25.988 23.816-2.89 6.194-4.342 12.805-4.342 19.437 0 4.783.8 9.57 2.314 14.232-9.28 1.03-18.4 3.096-27.168 6.286-29.096 10.59-52.453 31.816-65.765 59.767-7.616 15.993-11.454 33.154-11.454 50.39 0 11.248 1.735 22.513 5.024 33.525-1.742.41-3.454.907-5.12 1.517-18.682 6.803-30.307 24.51-30.307 43.326 0 5.22.893 10.532 2.78 15.708 8.686 23.865 35.166 36.216 59.034 27.533 10.656-3.878 19.476-11.58 24.812-21.484 30.335 18.488 67.792 22.4 101.252 10.223C296.387 305.112 326 260.01 326 212.07c0-13.295-2.28-26.815-7.084-40.012-8.75-24.03-25.244-44.485-46.636-58.308 8.58-8.7 13.27-20.315 13.27-32.267 0-5.27-.91-10.614-2.797-15.793-8.685-23.865-35.168-36.212-59.03-27.525" fill="#231f20"/><path d="M276.915 65.273c-7.902-21.706-31.902-32.902-53.613-24.997-21.708 7.896-32.902 31.898-25 53.612.443 1.223.948 2.404 1.49 3.555-10.568.66-21.217 2.797-31.674 6.605-58.045 21.126-88.248 84.828-68.244 143.007-3.035.39-6.072 1.102-9.07 2.187-21.707 7.902-32.9 31.91-25 53.616 7.903 21.71 31.908 32.9 53.616 25 11.573-4.21 20.156-13.002 24.45-23.586 28.94 19.36 66.39 25.15 101.613 12.323 58.693-21.356 88.957-86.256 67.595-144.957-9.452-25.96-27.43-46.346-49.61-59.177 13.823-10.868 19.788-29.765 13.447-47.187" fill="#80ce4f"/><path d="M69.78 301.41c-7.093-19.483 2.99-41.098 22.473-48.192 2.607-.954 5.352-1.61 8.157-1.968l5.155-.662-1.69-4.907c-9.322-27.11-7.666-56.3 4.674-82.208 12.346-25.93 34.02-45.625 61.016-55.453 9.795-3.565 20.054-5.705 30.492-6.356l5.935-.37-2.377-5.653-1.338-3.2c-3.434-9.438-2.99-19.647 1.255-28.75 4.243-9.105 11.776-16.007 21.217-19.447 19.48-7.086 41.098 2.995 48.19 22.475 1.54 4.228 2.282 8.59 2.282 12.897 0 11.295-5.107 22.238-14.37 29.525l-4.907 3.857 5.402 3.13c22.068 12.762 39.032 32.992 47.752 56.96 4.46 12.247 6.577 24.787 6.577 37.13 0 44.482-27.48 86.33-71.642 102.408-32.462 11.82-69.032 7.38-97.815-11.864l-4.314-2.884-1.953 4.808c-3.998 9.845-12.01 17.568-21.98 21.203-19.483 7.09-41.104-2.995-48.192-22.478zM221.858 36.296c-11.556 4.21-20.79 12.67-25.986 23.818-2.89 6.19-4.34 12.804-4.34 19.44 0 4.78.796 9.563 2.313 14.23-9.28 1.032-18.403 3.095-27.17 6.288-29.094 10.592-52.45 31.814-65.763 59.764-7.62 15.996-11.457 33.155-11.457 50.39 0 11.254 1.737 22.513 5.025 33.526-1.742.414-3.453.91-5.118 1.513-18.683 6.803-30.308 24.514-30.308 43.326 0 5.226.893 10.532 2.78 15.713 8.685 23.86 35.17 36.213 59.03 27.525 10.66-3.874 19.48-11.578 24.814-21.48 30.336 18.49 67.795 22.398 101.255 10.22 47.594-17.32 77.204-62.423 77.204-110.365 0-13.295-2.28-26.813-7.086-40.012-8.748-24.03-25.24-44.486-46.64-58.31 8.59-8.694 13.277-20.314 13.277-32.263 0-5.275-.91-10.616-2.797-15.795-8.683-23.863-35.166-36.213-59.03-27.528" fill="#3cad38"/><path d="M191.862 139.522c4.53 12.463-1.242 26.005-12.902 30.248-11.658 4.245-24.786-2.415-29.32-14.88-4.536-12.464 1.237-26.006 12.9-30.25 11.655-4.244 24.78 2.42 29.322 14.882M213.708 270.538c-4.638-12.743 1.654-26.73 14.048-31.24 12.397-4.51 26.203 2.16 30.84 14.906 4.636 12.738-1.653 26.723-14.047 31.23-12.395 4.518-26.204-2.153-30.842-14.896" fill="#3cad38"/><path d="M122.63 157.216c-1.08-1.846-2.358-4.237-3.322-6.328l-.178.066c.635 2.314 1.16 4.872 1.522 6.985l2.228 13.96 6.842-2.49-7.092-12.194zm19.177 32.248l-7.492-12.455-9.985 3.634 2.182 14.39-9.45 3.436-8.835-61.786 10.976-3.995 32.95 53.007-10.346 3.767M163.988 128.92c-8.64 3.145-14.182 13.105-10.284 23.815 3.9 10.702 14.546 14.776 23.187 11.633 8.546-3.11 14.18-13.11 10.282-23.818-3.9-10.705-14.636-14.74-23.184-11.63zm49.027 49.603c-.563.41-1.286.67-2.005.934-5.666 2.064-10.955 2.358-17.324 1.11-6.242-1.195-12.542-2.264-16.49-2.76-14.568 3.365-31.52-2.894-37.774-20.08-6.68-18.356 4.09-35.52 20.014-41.312 15.834-5.767 35.086.37 41.795 18.818 5.11 14.032-.988 28.072-10.165 33.652l.068.18c2.47-.494 4.622-.46 9.3.08 4.04.463 7.9-.124 10.417-1.042 2.162-.786 3.714-1.558 5.404-3.088l-3.24 13.506" fill="#fff"/><path d="M230.358 158.15c-9.268 3.377-18.16.498-21.24-7.96l-16.146-44.356 10.8-3.93 15.75 43.275c1.247 3.423 4.217 4.582 7.453 3.403 3.24-1.178 4.68-3.945 3.435-7.366l-15.752-43.274 10.707-3.898 16.145 44.353c3.075 8.46-1.885 16.38-11.152 19.752M252.464 149.19l-20.892-57.404 10.798-3.93 20.89 57.4-10.796 3.934M140.81 256.053l-19.843-54.53 20.596-7.5 3.21 8.808-10.43 3.792 5.068 13.936 8.89-3.237 3.24 8.89-8.895 3.236 5.135 14.1 11.796-4.29 3.203 8.8-21.97 7.997M190.705 238.087l-19.408-19.554c-2.902-2.915-6.575-6.897-9.433-10.216l-.167.064c1.662 4.043 3.37 8.455 4.58 11.788l8.554 23.508-9.058 3.29-19.848-54.53 9.146-3.326 17.766 18.504c2.52 2.666 6.25 6.537 8.663 9.436l.082-.04c-1.415-3.347-3.06-7.88-4.182-10.96l-8.058-22.134 9.146-3.33 19.912 54.7-7.693 2.8M203.828 181.334l16.64 45.727-10.255 3.732-16.645-45.727-8.8 3.206-3.204-8.804 27.778-10.11 3.203 8.802-8.717 3.176M227.665 172.363l-2.31.844 5.324 14.617 2.304-.84c2.053-.75 3.083-4.026 1.374-8.73-1.712-4.698-4.64-6.633-6.693-5.89zm23.83 43.4l-15.83-20.08-1.876.688 8.305 22.825-9.83 3.57-19.85-54.53 13.165-4.79c7.264-2.643 15.53 1.71 18.92 11.023 2.016 5.555 1.45 11.182-.726 14.493l18.66 22.828-10.94 3.975M264.314 211.1l-19.842-54.53 20.595-7.498 3.204 8.804-10.426 3.797 5.072 13.932 8.886-3.233 3.24 8.885-8.892 3.237 5.138 14.1 11.792-4.29 3.204 8.8-21.97 7.997M196.678 314.07l-23.496-23.673c-3.51-3.528-7.96-8.35-11.414-12.364l-.21.077c2.018 4.888 4.08 10.227 5.55 14.266l10.354 28.453-10.968 3.988-24.024-66.006 11.07-4.034 21.51 22.407c3.047 3.222 7.567 7.907 10.484 11.415l.104-.044c-1.718-4.058-3.715-9.545-5.067-13.267l-9.752-26.798 11.07-4.03 24.098 66.22-9.31 3.388M228.734 241.824c-9.935 3.618-16.307 15.075-11.828 27.39 4.48 12.312 16.73 16.993 26.667 13.375 9.828-3.578 16.3-15.077 11.823-27.386-4.48-12.312-16.834-16.958-26.662-13.38zm19.958 54.835c-18.208 6.632-40.45-.394-48.205-21.706-7.683-21.107 4.698-40.845 23.01-47.51 18.214-6.63 40.348.428 48.068 21.64 7.718 21.207-4.56 40.91-22.873 47.575M301.16 276.627c-4.144 1.505-8.672 1.632-11.543.802l-5.366-11.52c3.097 1.1 7.424 1.4 10.735.2 3.93-1.436 5.02-4.878 3.627-8.708-1.43-3.935-3.84-6.69-10.108-10.383-8.92-5.19-14.056-9.65-16.84-17.308-3.544-9.726-.34-18.62 8.872-21.972 4.242-1.547 8.663-1.637 10.666-.956l1.91 11.026c-1.687-.443-4.408-.51-6.584.283-3.206 1.168-4.107 3.835-2.865 7.25 1.096 3.004 3.57 5.617 8.528 8.62 9.557 5.657 15.68 10.578 18.66 18.75 4.102 11.275.76 20.11-9.69 23.913" fill="#fff"/><path d="M240.015 73.23c-1.415 4.8-3.48 8.91-6.096 12.918l-5.23-.643c1.844-4.442 3.514-11.058 4.283-16.23.154-.975.742-1.596 1.37-1.826 1.35-.488 5.398 1.397 5.856 2.655.197.542.09 2.212-.185 3.124" fill="#ed1c24"/><path d="M115.906 291.213l11.91 7.05-5.72 13.584-13.273-10.143-2.805 13.358-14.743-1.344 5.91-15.688-13.823 1.198-3.303-14.01 16.226.803-5.4-12.528 12.53-8.037 4.918 15.823 9.55-8.987 11.543 9.335-13.52 9.588M57.018 229.842l.068.57 12.496-1.53-.068-.57c-.415-3.383-3.05-6.095-7.028-5.608-3.98.486-5.882 3.753-5.468 7.138zm20.91-3.407l1.263 10.328-29.524 3.616-1.267-10.33c-1.017-8.308 4.1-15.628 12.938-16.71 8.84-1.083 15.57 4.786 16.59 13.095" fill="#3cad38"/><path d="M57.018 229.842l.068.57 12.496-1.53-.068-.57c-.415-3.383-3.05-6.095-7.028-5.608-3.98.486-5.882 3.753-5.468 7.138zm20.91-3.407l1.263 10.328-29.524 3.616-1.267-10.33c-1.017-8.308 4.1-15.628 12.938-16.71 8.84-1.083 15.57 4.786 16.59 13.095z" fill="none" stroke="#3cad38" stroke-width="6.215" stroke-linecap="round" stroke-linejoin="round"/><path d="M76.65 208.392l-29.723-1.165.368-9.424 29.723 1.165-.368 9.424" fill="#3cad38"/><path d="M76.65 208.392l-29.723-1.165.368-9.424 29.723 1.165-.368 9.424z" fill="none" stroke="#3cad38" stroke-width="6.215" stroke-linecap="round" stroke-linejoin="round"/><path d="M77.15 195.16l-29.3-5.144 3.072-17.496 7.852 1.38-1.44 8.203 2.756.48 1.135-6.453 8.08 1.418-1.132 6.457 2.756.483 1.593-9.075 7.852 1.38-3.225 18.367" fill="#3cad38"/><path d="M77.15 195.16l-29.3-5.144 3.072-17.496 7.852 1.38-1.44 8.203 2.756.48 1.135-6.453 8.08 1.418-1.132 6.457 2.756.483 1.593-9.075 7.852 1.38-3.225 18.367z" fill="none" stroke="#3cad38" stroke-width="6.215" stroke-linecap="round" stroke-linejoin="round"/><path d="M80.535 175.69l-2.278-.83-9.682-10.066c-1.407-1.456-3.35-3.62-4.652-5.226l-.057.03-2.978 8.197-8.064-2.93 7.306-20.1 2.277.83 9.773 10.1c1.552 1.602 3.404 3.734 4.56 5.193l.058-.026 3.39-9.323 8.062 2.93-7.715 21.223" fill="#3cad38"/><path d="M80.535 175.69l-2.278-.83-9.682-10.066c-1.407-1.456-3.35-3.62-4.652-5.226l-.057.03-2.978 8.197-8.064-2.93 7.306-20.1 2.277.83 9.773 10.1c1.552 1.602 3.404 3.734 4.56 5.193l.058-.026 3.39-9.323 8.062 2.93-7.715 21.223z" fill="none" stroke="#3cad38" stroke-width="6.215" stroke-linecap="round" stroke-linejoin="round"/><path d="M87.26 124.306c-.697-.228-1.47-.508-2.27-.918l-.05.073c.64.627 1.196 1.295 1.622 1.82l3.003 3.734 2.195-3.06-4.5-1.647zm16.197 6.056l-4.563-1.635-4.416 6.152 3.014 3.796-5.085 7.09-18.233-25.61 4.62-6.444 30.112 9.056-5.45 7.594" fill="#3cad38"/><path d="M87.26 124.306c-.697-.228-1.47-.508-2.27-.918l-.05.073c.64.627 1.196 1.295 1.622 1.82l3.003 3.734 2.195-3.06-4.5-1.647zm16.197 6.056l-4.563-1.635-4.416 6.152 3.014 3.796-5.085 7.09-18.233-25.61 4.62-6.444 30.112 9.056-5.45 7.594z" fill="none" stroke="#3cad38" stroke-width="6.215" stroke-linecap="round" stroke-linejoin="round"/><path d="M130.924 103.296L111.35 80.91l-7.1 6.21 5.46 6.246c1.015 1.16 1.91 2.047 2.833 2.973l-.033.093c-1.464-.392-3.632-.788-5.258-1.035l-10.633-1.6-6.137 5.366 19.574 22.39 7.1-6.212-6.718-7.685c-1.012-1.16-2.43-2.643-3.48-3.71l.036-.093c1.846.428 4.234.942 6.503 1.247l13.157 1.93 4.267-3.734zM99.64 76.6l2.864 5.36c-.764 2.96-1.813 4.993-3.995 7.274l-2.6-2.435c-1.388 1.71-2.608 4.016-3.29 6.533l-2.862-5.36c.764-2.962 1.813-4.993 3.995-7.276l2.6 2.435c1.422-1.803 2.55-4.15 3.288-6.53" fill="#3cad38"/><path d="M130.924 103.296L111.35 80.91l-7.1 6.21 5.46 6.246c1.015 1.16 1.91 2.047 2.833 2.973l-.033.093c-1.464-.392-3.632-.788-5.258-1.035l-10.633-1.6-6.137 5.366 19.574 22.39 7.1-6.212-6.718-7.685c-1.012-1.16-2.43-2.643-3.48-3.71l.036-.093c1.846.428 4.234.942 6.503 1.247l13.157 1.93 4.267-3.734zM99.64 76.6l2.864 5.36c-.764 2.96-1.813 4.993-3.995 7.274l-2.6-2.435c-1.388 1.71-2.608 4.016-3.29 6.533l-2.862-5.36c.764-2.962 1.813-4.993 3.995-7.276l2.6 2.435c1.422-1.803 2.55-4.15 3.288-6.53z" fill="none" stroke="#3cad38" stroke-width="6.215" stroke-linecap="round" stroke-linejoin="round"/><path d="M137.334 75.03c-2.926 1.475-3.79 5.46-2.112 8.79 1.68 3.328 5.36 4.92 8.286 3.44 2.93-1.472 3.836-5.376 2.154-8.703-1.68-3.33-5.4-5.003-8.328-3.528zm10.188 20.18c-7.237 3.648-16.595 1.426-20.88-7.064-4.287-8.487-.515-17.332 6.722-20.98 7.237-3.65 16.595-1.426 20.882 7.064 4.283 8.487.513 17.33-6.724 20.98" fill="#3cad38"/><path d="M137.334 75.03c-2.926 1.475-3.79 5.46-2.112 8.79 1.68 3.328 5.36 4.92 8.286 3.44 2.93-1.472 3.836-5.376 2.154-8.703-1.68-3.33-5.4-5.003-8.328-3.528zm10.188 20.18c-7.237 3.648-16.595 1.426-20.88-7.064-4.287-8.487-.515-17.332 6.722-20.98 7.237-3.65 16.595-1.426 20.882 7.064 4.283 8.487.513 17.33-6.724 20.98z" fill="none" stroke="#3cad38" stroke-width="6.215" stroke-linecap="round" stroke-linejoin="round"/><path d="M172.786 85.687c-3.82.975-7.212.928-10.177-.48l-2.47-8.606c3.293 1.806 6.63 2.158 9.802 1.347 1.846-.473 2.484-1.02 2.29-1.786-.243-.95-.652-.94-4.474-1.408-5.152-.657-8.495-3.556-9.51-7.53-1.453-5.692 1.58-10.65 7.76-12.228 4.077-1.04 6.27-.687 7.918-.145l1.79 8.104c-1.86-.68-4.386-.898-6.49-.363-1.93.493-2.323.93-2.138 1.653.195.77.585.862 4.514 1.206 4.39.37 8.564 3.296 9.613 7.406 1.566 6.144-1.132 10.968-8.43 12.83" fill="#3cad38"/><path d="M172.786 85.687c-3.82.975-7.212.928-10.177-.48l-2.47-8.606c3.293 1.806 6.63 2.158 9.802 1.347 1.846-.473 2.484-1.02 2.29-1.786-.243-.95-.652-.94-4.474-1.408-5.152-.657-8.495-3.556-9.51-7.53-1.453-5.692 1.58-10.65 7.76-12.228 4.077-1.04 6.27-.687 7.918-.145l1.79 8.104c-1.86-.68-4.386-.898-6.49-.363-1.93.493-2.323.93-2.138 1.653.195.77.585.862 4.514 1.206 4.39.37 8.564 3.296 9.613 7.406 1.566 6.144-1.132 10.968-8.43 12.83z" fill="none" stroke="#3cad38" stroke-width="6.215" stroke-linecap="round" stroke-linejoin="round"/><path d="M56.502 229.842l.068.57 12.496-1.53-.068-.57c-.415-3.383-3.05-6.095-7.03-5.608-3.98.486-5.88 3.753-5.466 7.138zm20.91-3.407l1.262 10.328-29.527 3.616-1.264-10.33c-1.017-8.308 4.1-15.628 12.938-16.71 8.843-1.083 15.57 4.786 16.59 13.095M76.133 208.392l-29.723-1.165.368-9.424 29.723 1.165-.367 9.424M76.633 195.16l-29.3-5.144 3.072-17.496 7.853 1.38-1.44 8.203 2.756.48 1.134-6.453 8.08 1.418-1.13 6.457 2.755.483 1.593-9.075 7.853 1.38-3.227 18.367M80.018 175.69l-2.278-.83-9.682-10.066c-1.407-1.456-3.35-3.62-4.65-5.226l-.06.03-2.977 8.197-8.063-2.93 7.306-20.1 2.277.83 9.774 10.1c1.55 1.602 3.404 3.734 4.56 5.193l.057-.026 3.392-9.323 8.06 2.93-7.714 21.223M86.744 124.306c-.698-.228-1.47-.508-2.27-.918l-.05.073c.64.627 1.195 1.295 1.62 1.82l3.004 3.734 2.193-3.06-4.497-1.647zm16.197 6.056l-4.563-1.635-4.415 6.152 3.014 3.796-5.086 7.09-18.233-25.61 4.622-6.444 30.11 9.056-5.45 7.594M130.408 103.296L110.834 80.91l-7.1 6.21 5.46 6.246c1.014 1.16 1.91 2.047 2.833 2.973l-.035.093c-1.462-.392-3.63-.788-5.256-1.035l-10.633-1.6-6.136 5.366 19.574 22.39 7.1-6.212-6.717-7.685c-1.01-1.16-2.43-2.643-3.478-3.71l.035-.093c1.846.428 4.234.942 6.503 1.247l13.158 1.93 4.268-3.734zM99.124 76.6l2.863 5.36c-.763 2.96-1.813 4.993-3.995 7.274l-2.6-2.435c-1.386 1.71-2.606 4.016-3.288 6.533l-2.863-5.36c.765-2.962 1.812-4.993 3.996-7.276l2.6 2.435c1.423-1.803 2.547-4.15 3.288-6.53M136.818 75.03c-2.926 1.475-3.792 5.46-2.113 8.79 1.682 3.328 5.36 4.92 8.287 3.44 2.93-1.472 3.835-5.376 2.154-8.703-1.68-3.33-5.402-5.003-8.328-3.528zm10.188 20.18c-7.237 3.648-16.595 1.426-20.882-7.064-4.286-8.487-.513-17.332 6.724-20.98 7.237-3.65 16.595-1.426 20.88 7.064 4.284 8.487.515 17.33-6.722 20.98M172.27 85.687c-3.82.975-7.213.928-10.177-.48l-2.47-8.606c3.294 1.806 6.63 2.158 9.803 1.347 1.846-.473 2.483-1.02 2.288-1.786-.24-.95-.65-.94-4.473-1.408-5.15-.657-8.494-3.556-9.508-7.53-1.45-5.692 1.58-10.65 7.76-12.228 4.074-1.04 6.27-.687 7.915-.145l1.794 8.104c-1.865-.68-4.39-.898-6.49-.363-1.933.493-2.323.93-2.14 1.653.197.77.586.862 4.515 1.206 4.39.37 8.564 3.296 9.614 7.406 1.565 6.144-1.133 10.968-8.43 12.83" fill="#80ce4f"/></svg>