<svg xmlns="http://www.w3.org/2000/svg" width="400" height="453.964"><path d="M329.246 50.378c-11.84-32.528-47.806-49.3-80.338-37.46-32.524 11.836-49.297 47.806-37.46 80.334.666 1.832 1.42 3.602 2.235 5.327-15.834.992-31.796 4.195-47.457 9.896C79.243 140.136 33.99 235.592 63.96 322.76c-4.544.58-9.097 1.647-13.585 3.28-32.532 11.838-49.3 47.812-37.46 80.344 11.84 32.52 47.806 49.297 80.334 37.456 17.344-6.31 30.2-19.49 36.64-35.336 43.36 28.996 99.478 37.68 152.258 18.465 87.946-32.01 133.3-129.262 101.285-217.212-14.162-38.9-41.103-69.45-74.34-88.675 20.713-16.287 29.65-44.595 20.153-70.705" fill="#231f20"/><path d="M18.868 404.214c-10.626-29.197 4.484-61.585 33.673-72.22 3.912-1.416 8.025-2.416 12.224-2.947l7.724-.984-2.528-7.36c-13.97-40.62-11.487-84.366 7-123.177 18.504-38.86 50.983-68.37 91.432-83.096 14.673-5.344 30.05-8.55 45.686-9.523l8.897-.556-3.56-8.47-2.01-4.798c-5.147-14.137-4.476-29.436 1.885-43.08 6.352-13.643 17.65-23.985 31.79-29.13 29.194-10.627 61.58 4.478 72.21 33.67 2.304 6.338 3.42 12.867 3.42 19.326 0 16.92-7.65 33.32-21.536 44.24l-7.353 5.778 8.1 4.69c33.067 19.122 58.485 49.435 71.556 85.35 6.682 18.355 9.848 37.145 9.848 55.638 0 66.65-41.174 129.363-107.342 153.447-48.65 17.717-103.442 11.068-146.572-17.767l-6.463-4.323-2.928 7.2c-5.99 14.743-18 26.328-32.94 31.763-29.194 10.634-61.586-4.48-72.212-33.67zM246.746 6.964c-17.32 6.3-31.153 18.98-38.942 35.687-4.33 9.28-6.505 19.186-6.505 29.124 0 7.167 1.197 14.34 3.465 21.326-13.903 1.543-27.57 4.64-40.708 9.42-43.6 15.87-78.597 47.674-98.544 89.555C54.1 216.04 48.35 241.755 48.35 267.58c0 16.855 2.602 33.735 7.53 50.236-2.61.613-5.176 1.358-7.674 2.272-27.992 10.194-45.41 36.728-45.41 64.92 0 7.823 1.338 15.78 4.166 23.537 13.013 35.76 52.693 54.266 88.457 41.257 15.965-5.814 29.18-17.354 37.175-32.195 45.455 27.703 101.582 33.565 151.718 15.32C355.627 406.963 400 339.384 400 267.546c0-19.92-3.417-40.18-10.614-59.955-13.112-36.007-37.826-66.657-69.88-87.37 12.856-13.034 19.884-30.44 19.884-48.35 0-7.896-1.363-15.903-4.19-23.664-13.015-35.76-52.698-54.26-88.454-41.243" fill="#231f20"/><path d="M326.45 47.583c-11.84-32.524-47.802-49.3-80.334-37.456-32.528 11.832-49.3 47.797-37.46 80.334.663 1.833 1.42 3.603 2.23 5.328-15.833.988-31.79 4.19-47.46 9.897C76.453 137.34 31.195 232.792 61.17 319.97c-4.55.584-9.1 1.65-13.59 3.276-32.528 11.84-49.3 47.814-37.46 80.338 11.84 32.533 47.81 49.3 80.338 37.46 17.34-6.307 30.202-19.48 36.637-35.34 43.364 29.01 99.478 37.683 152.257 18.465C367.3 392.167 412.647 294.92 380.638 206.96c-14.163-38.897-41.1-69.445-74.336-88.67 20.713-16.287 29.65-44.604 20.148-70.71" fill="#54b1d2"/><path d="M16.077 401.415c-10.63-29.194 4.48-61.582 33.672-72.212 3.907-1.428 8.02-2.412 12.223-2.948l7.723-.992-2.532-7.352c-13.97-40.626-11.486-84.364 7.003-123.183 18.502-38.856 50.98-68.366 91.43-83.093 14.677-5.34 30.05-8.547 45.69-9.522l8.892-.552-3.562-8.473-2.005-4.796c-5.146-14.14-4.48-29.44 1.882-43.08 6.356-13.642 17.645-23.984 31.79-29.14 29.19-10.616 61.582 4.49 72.208 33.678 2.31 6.336 3.42 12.87 3.42 19.325 0 16.925-7.652 33.323-21.53 44.24l-7.353 5.78 8.094 4.69c33.067 19.124 58.485 49.437 71.552 85.35 6.686 18.353 9.856 37.142 9.856 55.636 0 66.652-41.177 129.358-107.35 153.45-48.64 17.71-103.438 11.058-146.567-17.777l-6.464-4.323-2.926 7.205c-5.99 14.75-17.995 26.324-32.936 31.77-29.193 10.626-61.59-4.487-72.21-33.68zM243.95 4.165c-17.315 6.307-31.153 18.983-38.938 35.69-4.33 9.276-6.504 19.185-6.504 29.128 0 7.163 1.194 14.33 3.466 21.32-13.907 1.55-27.575 4.64-40.713 9.425-43.593 15.87-78.59 47.67-98.538 89.552-11.416 23.97-17.168 49.68-17.168 75.505 0 16.863 2.602 33.735 7.53 50.235-2.61.622-5.175 1.363-7.67 2.27C17.42 327.48 0 354.02 0 382.21c0 7.83 1.338 15.78 4.166 23.544 13.014 35.752 52.697 54.262 88.453 41.244 15.97-5.805 29.19-17.35 37.18-32.187 45.455 27.708 101.586 33.563 151.722 15.316 71.314-25.953 115.682-93.537 115.682-165.374 0-19.922-3.417-40.177-10.617-59.955-13.108-36.007-37.818-66.658-69.886-87.37 12.87-13.03 19.895-30.44 19.895-48.346 0-7.903-1.363-15.907-4.192-23.667C319.393 9.657 279.71-8.85 243.95 4.165" fill="#008ec2"/><path d="M199.006 158.84c6.79 18.674-1.86 38.966-19.334 45.323-17.468 6.36-37.14-3.62-43.932-22.298-6.797-18.674 1.853-38.966 19.33-45.323 17.464-6.36 37.13 3.623 43.936 22.297M231.74 355.157c-6.95-19.095 2.478-40.054 21.05-46.81 18.575-6.76 39.263 3.236 46.213 22.334 6.945 19.088-2.48 40.043-21.05 46.8-18.572 6.767-39.264-3.23-46.213-22.323" fill="#008ec2"/><path d="M95.266 185.353c-1.617-2.767-3.532-6.35-4.977-9.482l-.268.1c.952 3.466 1.738 7.3 2.28 10.465l3.34 20.92 10.252-3.73-10.627-18.272zm28.737 48.32l-11.227-18.662-14.96 5.448 3.268 21.56-14.158 5.15-13.24-92.582 16.447-5.986 49.37 79.43-15.5 5.643M157.24 142.952c-12.95 4.714-21.252 19.638-15.41 35.686 5.84 16.035 21.795 22.14 34.743 17.43 12.803-4.66 21.247-19.645 15.405-35.69-5.846-16.04-21.93-22.087-34.74-17.426zM230.7 217.28c-.844.613-1.926 1.004-3.005 1.4-8.49 3.09-16.415 3.532-25.958 1.663-9.354-1.79-18.794-3.393-24.71-4.138-21.83 5.043-47.23-4.335-56.6-30.087-10.01-27.505 6.126-53.224 29.987-61.902 23.727-8.642 52.574.555 62.628 28.197 7.657 21.025-1.483 42.063-15.233 50.424l.102.27c3.7-.74 6.925-.687 13.936.12 6.052.694 11.836-.186 15.607-1.562 3.24-1.177 5.566-2.334 8.098-4.627l-4.854 20.24" fill="#fff"/><path d="M256.69 186.752c-13.888 5.06-27.21.745-31.826-11.927L200.67 108.36l16.183-5.89 23.598 64.846c1.87 5.13 6.32 6.867 11.17 5.1 4.855-1.765 7.012-5.91 5.147-11.037l-23.603-64.843 16.044-5.842 24.19 66.46c4.608 12.677-2.823 24.546-16.71 29.597M289.814 173.327L258.508 87.31l16.18-5.89 31.3 86.01-16.174 5.897M122.51 333.452l-29.734-81.71 30.86-11.24 4.81 13.2-15.63 5.682 7.597 20.88 13.318-4.85 4.855 13.32-13.326 4.85 7.693 21.127 17.674-6.43 4.8 13.188-32.918 11.984M197.273 306.53l-29.083-29.3c-4.347-4.367-9.852-10.333-14.133-15.306l-.25.095c2.49 6.055 5.047 12.667 6.862 17.66l12.815 35.226-13.573 4.928-29.74-81.706 13.704-4.985 26.62 27.728c3.776 3.994 9.366 9.795 12.98 14.138l.126-.06c-2.12-5.014-4.586-11.807-6.266-16.422L165.26 225.36l13.707-4.99 29.835 81.965-11.527 4.195M216.935 221.49l24.936 68.52-15.367 5.59-24.94-68.518-13.187 4.804-4.8-13.194 41.622-15.15 4.8 13.19-13.063 4.76M252.654 208.05l-3.463 1.263 7.98 21.903 3.454-1.26c3.076-1.124 4.62-6.032 2.06-13.08-2.566-7.04-6.955-9.938-10.03-8.827zm35.706 65.03l-23.717-30.086-2.812 1.03 12.446 34.2-14.73 5.347-29.74-81.708 19.723-7.176c10.885-3.96 23.268 2.56 28.348 16.517 3.022 8.324 2.174 16.756-1.086 21.717l27.962 34.204-16.394 5.957M307.57 266.094l-29.733-81.71 30.86-11.234 4.8 13.19-15.622 5.69 7.6 20.877 13.314-4.845 4.853 13.314-13.323 4.85 7.7 21.128 17.67-6.427 4.8 13.187-32.92 11.98M206.223 420.386l-35.208-35.472c-5.258-5.286-11.927-12.51-17.102-18.526l-.313.115c3.022 7.324 6.113 15.323 8.312 21.375l15.517 42.635-16.436 5.978-36-98.905 16.588-6.043 32.232 33.574c4.566 4.83 11.338 11.848 15.71 17.105l.155-.064c-2.574-6.08-5.567-14.303-7.592-19.88l-14.616-40.154 16.587-6.04 36.11 99.228-13.95 5.076M254.255 312.13c-14.887 5.422-24.434 22.59-17.723 41.042 6.715 18.448 25.068 25.464 39.96 20.042 14.725-5.36 24.425-22.59 17.714-41.034-6.714-18.448-25.224-25.41-39.95-20.05zm29.906 82.167c-27.282 9.938-60.61-.59-72.23-32.524-11.512-31.627 7.04-61.203 34.478-71.19 27.292-9.935 60.458.64 72.027 32.428 11.564 31.776-6.834 61.3-34.274 71.287M362.778 364.28c-6.208 2.256-12.993 2.445-17.295 1.202l-8.04-17.262c4.64 1.65 11.124 2.1 16.085.3 5.887-2.15 7.52-7.308 5.434-13.047-2.145-5.896-5.755-10.025-15.146-15.558-13.364-7.777-21.062-14.46-25.233-25.933-5.31-14.574-.51-27.9 13.294-32.923 6.356-2.32 12.98-2.455 15.982-1.434l2.86 16.52c-2.528-.662-6.604-.76-9.864.425-4.805 1.75-6.155 5.75-4.294 10.866 1.642 4.5 5.348 8.415 12.78 12.915 14.317 8.478 23.494 15.85 27.957 28.095 6.146 16.896 1.14 30.136-14.522 35.834" fill="#fff"/><path d="M271.16 59.505c-2.12 7.193-5.216 13.35-9.136 19.358l-7.835-.963c2.762-6.657 5.265-16.57 6.418-24.32.23-1.46 1.112-2.39 2.05-2.737 2.026-.73 8.09 2.096 8.778 3.98.296.812.135 3.316-.277 4.682" fill="#ed1c24"/><path d="M85.192 386.137L103.04 396.7l-8.572 20.355-19.89-15.2-4.203 20.017-22.09-2.013 8.854-23.51-20.713 1.796-4.95-20.992 24.316 1.202-8.09-18.774 18.774-12.042 7.37 23.71 14.31-13.467 17.295 13.986-20.26 14.367" fill="#008ec2"/></svg>