<?xml version="1.0" encoding="UTF-8" standalone="no"?>
<!-- Created with Inkscape (http://www.inkscape.org/) -->

<svg
   xmlns:dc="http://purl.org/dc/elements/1.1/"
   xmlns:cc="http://creativecommons.org/ns#"
   xmlns:rdf="http://www.w3.org/1999/02/22-rdf-syntax-ns#"
   xmlns:svg="http://www.w3.org/2000/svg"
   xmlns="http://www.w3.org/2000/svg"
   xmlns:sodipodi="http://sodipodi.sourceforge.net/DTD/sodipodi-0.dtd"
   xmlns:inkscape="http://www.inkscape.org/namespaces/inkscape"
   width="105.83334mm"
   height="32.296494mm"
   viewBox="0 0 105.83334 32.296494"
   version="1.1"
   id="svg6569"
   inkscape:version="0.92.1 r15371"
   sodipodi:docname="la_universal.svg">
  <defs
     id="defs6563" />
  <sodipodi:namedview
     id="base"
     pagecolor="#ffffff"
     bordercolor="#666666"
     borderopacity="1.0"
     inkscape:pageopacity="0.0"
     inkscape:pageshadow="2"
     inkscape:zoom="0.35"
     inkscape:cx="69.876693"
     inkscape:cy="21.323847"
     inkscape:document-units="mm"
     inkscape:current-layer="layer1"
     showgrid="false"
     fit-margin-top="0"
     fit-margin-left="0"
     fit-margin-right="0"
     fit-margin-bottom="0"
     inkscape:window-width="1280"
     inkscape:window-height="656"
     inkscape:window-x="0"
     inkscape:window-y="27"
     inkscape:window-maximized="1" />
  <metadata
     id="metadata6566">
    <rdf:RDF>
      <cc:Work
         rdf:about="">
        <dc:format>image/svg+xml</dc:format>
        <dc:type
           rdf:resource="http://purl.org/dc/dcmitype/StillImage" />
        <dc:title></dc:title>
      </cc:Work>
    </rdf:RDF>
  </metadata>
  <g
     inkscape:label="Capa 1"
     inkscape:groupmode="layer"
     id="layer1"
     transform="translate(66.113208,-122.17878)">
    <g
       transform="matrix(1.009715,0,0,-1.009715,-233.71817,247.43271)"
       id="g6492">
      <g
         transform="translate(188.5771,111.8076)"
         id="g544">
        <path
           inkscape:connector-curvature="0"
           id="path546"
           style="fill:#351b76;fill-opacity:1;fill-rule:nonzero;stroke:none"
           d="m 0,0 h -7.711 c 0,0 -0.5,-5.631 -1.198,-9.544 -1.256,-7.02 -10.876,-6.45 -13.594,-1.444 0,0 2.586,-9.611 11.511,-8.695 7.551,0.773 9.019,6.371 10.157,12.662 z" />
      </g>
      <g
         transform="translate(168.3125,124.0488)"
         id="g548">
        <path
           inkscape:connector-curvature="0"
           id="path550"
           style="fill:#cc0027;fill-opacity:1;fill-rule:nonzero;stroke:none"
           d="M 0,0 H 8.046 L 5.898,-14.709 c 0,0 -1.475,-7.203 2.454,-8.413 0.008,-0.003 1.262,-0.33 2.087,0.272 C 8.71,-27.941 -2.18,-27.643 -2.32,-20 -2.342,-18.813 0,0 0,0" />
      </g>
      <g
         transform="translate(191.6963,111.5859)"
         id="g552">
        <path
           inkscape:connector-curvature="0"
           id="path554"
           style="fill:#cc0027;fill-opacity:1;fill-rule:nonzero;stroke:none"
           d="m 0,0 c 0,0.066 0.022,0.125 0.067,0.172 0.042,0.05 0.106,0.072 0.182,0.072 H 1.893 C 1.956,0.244 2.014,0.223 2.065,0.178 2.117,0.132 2.144,0.074 2.148,0 v -6.04 h 3.053 c 0.067,0 0.124,-0.022 0.172,-0.066 0.05,-0.045 0.073,-0.107 0.073,-0.184 v -1.461 c 0,-0.063 -0.021,-0.12 -0.063,-0.171 C 5.34,-7.975 5.28,-8.003 5.201,-8.007 H 0.243 C 0.08,-8.007 0,-7.924 0,-7.761 Z" />
      </g>
      <g
         transform="translate(201.584,109.2314)"
         id="g556">
        <path
           inkscape:connector-curvature="0"
           id="path558"
           style="fill:#cc0027;fill-opacity:1;fill-rule:nonzero;stroke:none"
           d="m 0,0 c -0.071,-0.188 -0.142,-0.393 -0.214,-0.611 -0.073,-0.217 -0.142,-0.437 -0.215,-0.66 -0.069,-0.222 -0.14,-0.442 -0.212,-0.659 -0.072,-0.216 -0.144,-0.418 -0.213,-0.606 h 1.702 z m -1.01,2.376 c 0.003,0.022 0.015,0.047 0.036,0.073 0.02,0.026 0.045,0.048 0.075,0.072 0.028,0.024 0.059,0.04 0.093,0.053 0.035,0.013 0.065,0.019 0.096,0.019 H 0.71 C 0.774,2.593 0.827,2.574 0.871,2.535 0.915,2.496 0.948,2.462 0.972,2.432 L 1.109,2.116 4.024,-5.401 C 4.054,-5.475 4.049,-5.535 4.009,-5.582 3.968,-5.628 3.897,-5.651 3.799,-5.651 H 2.204 c -0.086,0 -0.15,0.014 -0.197,0.047 -0.047,0.032 -0.083,0.083 -0.11,0.159 -0.073,0.188 -0.144,0.377 -0.216,0.562 -0.068,0.188 -0.139,0.375 -0.21,0.565 h -2.949 c -0.07,-0.19 -0.141,-0.377 -0.213,-0.565 -0.071,-0.185 -0.143,-0.374 -0.213,-0.562 -0.048,-0.138 -0.142,-0.206 -0.284,-0.206 h -1.637 c -0.071,0 -0.128,0.018 -0.176,0.055 -0.045,0.036 -0.055,0.093 -0.023,0.166 z" />
      </g>
      <g
         transform="translate(211.2051,106.8682)"
         id="g560">
        <path
           inkscape:connector-curvature="0"
           id="path562"
           style="fill:#cc0027;fill-opacity:1;fill-rule:nonzero;stroke:none"
           d="m 0,0 c 0,-0.273 0.038,-0.507 0.113,-0.697 0.076,-0.192 0.177,-0.347 0.301,-0.467 0.124,-0.121 0.27,-0.208 0.435,-0.264 0.165,-0.056 0.335,-0.084 0.513,-0.084 0.187,0 0.361,0.033 0.526,0.098 0.166,0.063 0.31,0.16 0.435,0.289 0.123,0.128 0.223,0.285 0.294,0.477 0.072,0.186 0.11,0.403 0.11,0.648 v 4.711 c 0,0.067 0.021,0.125 0.069,0.173 0.046,0.049 0.107,0.072 0.186,0.072 h 1.621 c 0.084,0 0.15,-0.025 0.199,-0.075 0.049,-0.05 0.072,-0.106 0.072,-0.17 V 0.032 C 4.874,-0.615 4.779,-1.161 4.588,-1.601 4.397,-2.042 4.142,-2.395 3.818,-2.664 3.497,-2.932 3.125,-3.125 2.701,-3.24 2.276,-3.357 1.833,-3.416 1.364,-3.416 c -0.466,0 -0.91,0.061 -1.337,0.181 -0.425,0.121 -0.798,0.315 -1.122,0.588 -0.322,0.273 -0.577,0.627 -0.767,1.067 -0.191,0.439 -0.285,0.975 -0.285,1.612 v 4.679 c 0,0.064 0.019,0.12 0.062,0.17 0.043,0.05 0.096,0.075 0.157,0.075 h 1.663 c 0.054,0 0.113,-0.022 0.173,-0.068 C -0.031,4.841 0,4.782 0,4.711 Z" />
      </g>
      <g
         transform="translate(217.1572,111.5791)"
         id="g564">
        <path
           inkscape:connector-curvature="0"
           id="path566"
           style="fill:#cc0027;fill-opacity:1;fill-rule:nonzero;stroke:none"
           d="M 0,0 C 0,0.067 0.019,0.125 0.061,0.173 0.102,0.222 0.162,0.245 0.243,0.245 H 2.061 C 2.11,0.245 2.165,0.232 2.22,0.207 2.275,0.18 2.322,0.137 2.364,0.073 2.833,-0.686 3.301,-1.434 3.763,-2.169 4.227,-2.905 4.693,-3.654 5.169,-4.411 V 0.034 C 5.184,0.102 5.212,0.152 5.257,0.19 5.301,0.229 5.354,0.245 5.412,0.245 h 1.582 c 0.078,0 0.143,-0.02 0.195,-0.063 C 7.241,0.139 7.267,0.079 7.267,0 V -7.783 C 7.267,-7.856 7.244,-7.911 7.199,-7.946 7.156,-7.981 7.094,-7.999 7.016,-7.999 h -1.77 c -0.049,0 -0.091,0.016 -0.129,0.05 -0.036,0.034 -0.075,0.077 -0.115,0.133 -0.494,0.814 -0.98,1.62 -1.461,2.415 C 3.061,-4.606 2.57,-3.8 2.076,-2.985 V -7.754 C 2.076,-7.836 2.058,-7.898 2.02,-7.938 1.982,-7.979 1.916,-7.999 1.819,-7.999 H 0.243 c -0.084,0 -0.145,0.023 -0.185,0.069 C 0.018,-7.883 0,-7.827 0,-7.759 Z" />
      </g>
      <g
         transform="translate(225.7002,111.5791)"
         id="g568">
        <path
           inkscape:connector-curvature="0"
           id="path570"
           style="fill:#cc0027;fill-opacity:1;fill-rule:nonzero;stroke:none"
           d="M 0,0 C 0,0.067 0.02,0.125 0.06,0.173 0.102,0.222 0.162,0.245 0.244,0.245 H 1.877 C 1.932,0.245 1.992,0.224 2.055,0.178 2.117,0.135 2.147,0.075 2.147,0 v -7.754 c 0,-0.163 -0.088,-0.245 -0.27,-0.245 H 0.244 C 0.082,-7.999 0,-7.917 0,-7.754 Z" />
      </g>
      <g
         transform="translate(231.3506,103.6963)"
         id="g572">
        <path
           inkscape:connector-curvature="0"
           id="path574"
           style="fill:#cc0027;fill-opacity:1;fill-rule:nonzero;stroke:none"
           d="m 0,0 c -0.039,0.066 -0.075,0.136 -0.106,0.206 -0.033,0.07 -0.063,0.14 -0.092,0.216 l -2.848,7.457 c 0,0.018 -0.004,0.035 -0.009,0.05 -0.007,0.014 -0.008,0.029 -0.008,0.044 0,0.104 0.067,0.155 0.206,0.155 h 1.787 c 0.14,0 0.237,-0.07 0.287,-0.211 L 0.911,2.866 c 0.151,0.421 0.298,0.842 0.438,1.262 0.138,0.421 0.274,0.841 0.411,1.264 0.134,0.42 0.271,0.842 0.41,1.263 0.14,0.42 0.284,0.841 0.436,1.262 0.05,0.141 0.153,0.211 0.304,0.211 H 4.659 C 4.743,8.128 4.805,8.114 4.84,8.082 4.874,8.05 4.893,8.008 4.893,7.956 4.893,7.928 4.891,7.905 4.887,7.896 V 7.879 L 2.021,0.422 C 2.004,0.371 1.98,0.313 1.955,0.251 1.93,0.188 1.9,0.129 1.867,0.074 1.834,0.022 1.794,-0.024 1.751,-0.061 1.706,-0.098 1.657,-0.117 1.6,-0.117 H 0.229 C 0.115,-0.117 0.038,-0.078 0,0" />
      </g>
      <g
         transform="translate(236.6865,111.5693)"
         id="g576">
        <path
           inkscape:connector-curvature="0"
           id="path578"
           style="fill:#cc0027;fill-opacity:1;fill-rule:nonzero;stroke:none"
           d="M 0,0 C 0,0.077 0.021,0.14 0.063,0.186 0.106,0.232 0.167,0.255 0.244,0.255 H 5.752 C 5.833,0.255 5.896,0.231 5.941,0.183 5.985,0.135 6.008,0.071 6.008,-0.011 V -1.384 C 6.008,-1.446 5.985,-1.506 5.941,-1.562 5.896,-1.621 5.831,-1.649 5.746,-1.649 H 2.149 v -1.377 h 2.778 c 0.069,0 0.127,-0.017 0.174,-0.049 0.045,-0.033 0.068,-0.09 0.068,-0.167 v -1.199 c 0,-0.053 -0.02,-0.102 -0.062,-0.15 C 5.066,-4.64 5.009,-4.663 4.931,-4.663 H 2.149 v -1.423 h 3.732 c 0.166,0 0.248,-0.084 0.248,-0.253 v -1.396 c 0,-0.036 -0.014,-0.071 -0.043,-0.1 C 6.07,-7.937 5.994,-7.989 5.857,-7.989 H 0.244 C 0.17,-7.989 0.111,-7.97 0.065,-7.931 0.023,-7.893 0,-7.832 0,-7.749 Z" />
      </g>
      <g
         transform="translate(247.9844,109.1045)"
         id="g580">
        <path
           inkscape:connector-curvature="0"
           id="path582"
           style="fill:#cc0027;fill-opacity:1;fill-rule:nonzero;stroke:none"
           d="M 0,0 C 0,0.111 -0.02,0.221 -0.06,0.333 -0.103,0.444 -0.157,0.546 -0.232,0.639 -0.307,0.73 -0.396,0.809 -0.498,0.87 -0.603,0.936 -0.717,0.975 -0.842,0.994 -0.947,1 -1.044,1.007 -1.137,1.013 -1.226,1.018 -1.324,1.021 -1.432,1.021 h -0.766 v -2.037 h 1.02 c 0.068,0 0.127,0.002 0.18,0.006 0.051,0.003 0.108,0.008 0.171,0.015 0.129,0.016 0.246,0.055 0.35,0.114 0.104,0.062 0.19,0.138 0.26,0.229 0.071,0.09 0.126,0.192 0.161,0.305 C -0.018,-0.234 0,-0.119 0,0 m -4.347,2.465 c 0,0.077 0.021,0.139 0.061,0.186 0.041,0.046 0.102,0.069 0.183,0.069 h 3.587 c 0.381,0 0.74,-0.072 1.073,-0.213 C 0.889,2.364 1.179,2.171 1.428,1.926 1.676,1.683 1.87,1.396 2.012,1.067 2.156,0.741 2.227,0.393 2.227,0.022 2.227,-0.229 2.192,-0.47 2.124,-0.697 2.057,-0.924 1.958,-1.137 1.838,-1.335 1.715,-1.533 1.571,-1.714 1.403,-1.874 1.234,-2.033 1.05,-2.173 0.851,-2.288 L 2.276,-4.974 C 2.303,-5.027 2.337,-5.088 2.377,-5.157 2.418,-5.229 2.438,-5.288 2.438,-5.342 2.438,-5.4 2.418,-5.445 2.38,-5.477 2.341,-5.51 2.288,-5.525 2.223,-5.525 H 0.317 c -0.063,0 -0.119,0.019 -0.169,0.056 -0.05,0.036 -0.083,0.088 -0.097,0.15 l -1.35,2.538 h -0.899 v -2.503 c 0,-0.16 -0.085,-0.241 -0.255,-0.241 h -1.65 c -0.074,0 -0.132,0.02 -0.176,0.059 -0.045,0.038 -0.068,0.099 -0.068,0.182 z" />
      </g>
      <g
         transform="translate(251.9209,106.2451)"
         id="g584">
        <path
           inkscape:connector-curvature="0"
           id="path586"
           style="fill:#cc0027;fill-opacity:1;fill-rule:nonzero;stroke:none"
           d="M 0,0 C 0.063,-0.054 0.143,-0.122 0.241,-0.208 0.34,-0.296 0.45,-0.381 0.578,-0.467 0.766,-0.593 0.953,-0.69 1.139,-0.762 c 0.183,-0.067 0.379,-0.103 0.583,-0.103 0.188,0 0.346,0.019 0.473,0.062 0.127,0.041 0.23,0.1 0.304,0.169 0.072,0.07 0.128,0.152 0.159,0.244 0.031,0.093 0.045,0.191 0.045,0.295 0,0.114 -0.043,0.216 -0.13,0.308 C 2.487,0.303 2.381,0.384 2.254,0.454 2.128,0.523 1.997,0.584 1.859,0.634 1.723,0.685 1.604,0.727 1.503,0.76 1.062,0.915 0.671,1.081 0.339,1.262 0.006,1.441 -0.272,1.64 -0.494,1.859 -0.715,2.08 -0.882,2.322 -0.994,2.587 -1.105,2.852 -1.16,3.146 -1.16,3.473 c 0,0.343 0.07,0.655 0.208,0.936 0.14,0.281 0.337,0.522 0.594,0.721 0.256,0.2 0.567,0.353 0.929,0.465 0.364,0.107 0.768,0.162 1.218,0.162 0.336,0 0.658,-0.038 0.968,-0.115 C 3.066,5.567 3.369,5.446 3.669,5.28 3.795,5.205 3.916,5.129 4.029,5.049 4.14,4.97 4.24,4.892 4.324,4.82 4.41,4.744 4.478,4.675 4.528,4.609 4.578,4.542 4.603,4.482 4.603,4.436 4.603,4.388 4.591,4.343 4.566,4.303 4.542,4.263 4.506,4.215 4.459,4.164 L 3.608,3.259 C 3.548,3.195 3.483,3.165 3.42,3.165 3.368,3.165 3.319,3.18 3.279,3.209 3.236,3.237 3.188,3.275 3.137,3.32 L 3.087,3.364 C 3.013,3.427 2.931,3.491 2.84,3.559 2.748,3.626 2.652,3.686 2.549,3.739 2.445,3.793 2.336,3.836 2.222,3.872 2.104,3.908 1.989,3.925 1.871,3.925 1.749,3.925 1.635,3.915 1.527,3.895 1.42,3.875 1.324,3.843 1.244,3.797 1.162,3.754 1.097,3.695 1.05,3.623 1.001,3.551 0.977,3.462 0.977,3.357 0.977,3.255 1.003,3.166 1.056,3.089 1.106,3.014 1.186,2.943 1.289,2.878 1.393,2.813 1.521,2.753 1.675,2.696 1.828,2.639 2.008,2.576 2.21,2.51 2.601,2.379 2.964,2.244 3.295,2.102 3.627,1.958 3.912,1.79 4.153,1.597 4.394,1.401 4.581,1.17 4.716,0.898 4.851,0.629 4.919,0.302 4.919,-0.084 4.919,-0.49 4.836,-0.859 4.67,-1.19 4.502,-1.522 4.274,-1.804 3.983,-2.037 3.693,-2.271 3.352,-2.451 2.96,-2.579 2.565,-2.707 2.145,-2.771 1.693,-2.771 c -0.425,0 -0.843,0.076 -1.254,0.228 -0.412,0.153 -0.793,0.357 -1.15,0.614 -0.147,0.107 -0.272,0.212 -0.375,0.316 -0.101,0.105 -0.182,0.189 -0.241,0.253 l -0.015,0.015 c -0.005,0.007 -0.01,0.012 -0.013,0.014 -0.003,0.002 -0.008,0.005 -0.012,0.009 -0.002,0.007 -0.006,0.011 -0.01,0.012 -0.003,0.003 -0.007,0.005 -0.012,0.009 -0.083,0.094 -0.128,0.167 -0.128,0.223 0,0.063 0.045,0.133 0.128,0.213 l 0.96,0.914 c 0.079,0.056 0.142,0.085 0.191,0.085 0.032,0 0.068,-0.013 0.104,-0.034 C -0.097,0.078 -0.052,0.045 0,0" />
      </g>
      <g
         transform="translate(260.9814,109.2314)"
         id="g588">
        <path
           inkscape:connector-curvature="0"
           id="path590"
           style="fill:#cc0027;fill-opacity:1;fill-rule:nonzero;stroke:none"
           d="m 0,0 c -0.071,-0.188 -0.142,-0.393 -0.215,-0.611 -0.071,-0.217 -0.142,-0.437 -0.213,-0.66 -0.07,-0.222 -0.14,-0.442 -0.214,-0.659 -0.071,-0.216 -0.142,-0.418 -0.212,-0.606 h 1.702 z m -1.009,2.376 c 0.004,0.022 0.013,0.047 0.036,0.073 0.018,0.026 0.042,0.048 0.073,0.072 0.029,0.024 0.062,0.04 0.093,0.053 0.036,0.013 0.067,0.019 0.096,0.019 H 0.71 C 0.773,2.593 0.828,2.574 0.872,2.535 0.915,2.496 0.949,2.462 0.971,2.432 L 1.111,2.116 4.025,-5.401 C 4.055,-5.475 4.049,-5.535 4.008,-5.582 3.969,-5.628 3.897,-5.651 3.797,-5.651 H 2.203 c -0.084,0 -0.15,0.014 -0.195,0.047 -0.047,0.032 -0.084,0.083 -0.11,0.159 -0.072,0.188 -0.146,0.377 -0.216,0.562 -0.071,0.188 -0.141,0.375 -0.211,0.565 h -2.949 c -0.07,-0.19 -0.141,-0.377 -0.212,-0.565 -0.074,-0.185 -0.143,-0.374 -0.214,-0.562 -0.049,-0.138 -0.143,-0.206 -0.284,-0.206 h -1.637 c -0.071,0 -0.128,0.018 -0.175,0.055 -0.046,0.036 -0.054,0.093 -0.025,0.166 z" />
      </g>
      <g
         transform="translate(265.3604,111.5859)"
         id="g592">
        <path
           inkscape:connector-curvature="0"
           id="path594"
           style="fill:#cc0027;fill-opacity:1;fill-rule:nonzero;stroke:none"
           d="m 0,0 c 0,0.066 0.024,0.125 0.068,0.172 0.044,0.05 0.107,0.072 0.182,0.072 h 1.645 c 0.062,0 0.121,-0.021 0.17,-0.066 C 2.118,0.132 2.146,0.074 2.149,0 v -6.04 h 3.055 c 0.067,0 0.124,-0.022 0.17,-0.066 0.05,-0.045 0.073,-0.107 0.073,-0.184 v -1.461 c 0,-0.063 -0.02,-0.12 -0.063,-0.171 C 5.34,-7.975 5.281,-8.003 5.204,-8.007 H 0.245 C 0.083,-8.007 0,-7.924 0,-7.761 Z" />
      </g>
      <g
         transform="translate(203.8428,98.6504)"
         id="g596">
        <path
           inkscape:connector-curvature="0"
           id="path598"
           style="fill:#351b76;fill-opacity:1;fill-rule:nonzero;stroke:none"
           d="m 0,0 -0.818,-0.284 c -0.097,0.306 -0.223,0.532 -0.379,0.68 -0.158,0.145 -0.37,0.218 -0.643,0.218 -0.25,0 -0.444,-0.073 -0.582,-0.222 -0.137,-0.151 -0.206,-0.319 -0.206,-0.512 0,-0.214 0.077,-0.383 0.232,-0.509 0.154,-0.126 0.46,-0.276 0.92,-0.451 0.393,-0.15 0.696,-0.292 0.908,-0.43 0.21,-0.135 0.384,-0.315 0.515,-0.543 0.13,-0.228 0.197,-0.491 0.197,-0.79 0,-0.487 -0.172,-0.901 -0.515,-1.243 -0.343,-0.342 -0.824,-0.512 -1.443,-0.512 -1.07,0 -1.73,0.539 -1.983,1.619 l 0.855,0.241 c 0.15,-0.711 0.54,-1.069 1.171,-1.069 0.307,0 0.541,0.08 0.7,0.241 0.159,0.159 0.241,0.357 0.241,0.591 0,0.172 -0.057,0.331 -0.166,0.478 -0.11,0.147 -0.384,0.305 -0.822,0.473 -0.464,0.172 -0.797,0.321 -1.003,0.444 -0.204,0.121 -0.379,0.301 -0.523,0.538 -0.143,0.236 -0.218,0.506 -0.218,0.81 0,0.461 0.162,0.846 0.482,1.16 0.32,0.313 0.748,0.47 1.279,0.47 C -0.859,1.398 -0.261,0.933 0,0" />
      </g>
      <g
         transform="translate(207.5498,96.998)"
         id="g600">
        <path
           inkscape:connector-curvature="0"
           id="path602"
           style="fill:#351b76;fill-opacity:1;fill-rule:nonzero;stroke:none"
           d="m 0,0 -0.85,-0.093 c -0.044,0.373 -0.117,0.622 -0.218,0.748 -0.101,0.124 -0.245,0.188 -0.431,0.188 -0.264,0 -0.455,-0.121 -0.573,-0.362 -0.119,-0.243 -0.18,-0.667 -0.18,-1.275 0,-0.948 0.252,-1.424 0.753,-1.424 0.383,0 0.599,0.311 0.649,0.93 L 0,-1.364 c -0.116,-1.055 -0.636,-1.581 -1.562,-1.581 -0.549,0 -0.956,0.197 -1.221,0.591 -0.264,0.397 -0.396,0.943 -0.396,1.642 0,0.734 0.143,1.292 0.428,1.678 0.285,0.384 0.701,0.577 1.245,0.577 C -0.627,1.543 -0.124,1.027 0,0" />
      </g>
      <g
         transform="translate(207.9229,99.9434)"
         id="g604">
        <path
           inkscape:connector-curvature="0"
           id="path606"
           style="fill:#351b76;fill-opacity:1;fill-rule:nonzero;stroke:none"
           d="m 0,0 h 0.882 v -2.072 c 0.2,0.445 0.541,0.67 1.021,0.67 0.247,0 0.456,-0.058 0.622,-0.17 0.17,-0.113 0.288,-0.265 0.354,-0.45 C 2.946,-2.213 2.98,-2.567 2.98,-3.09 V -5.785 H 2.097 v 2.692 c 0,0.446 -0.05,0.721 -0.154,0.823 -0.101,0.103 -0.226,0.155 -0.378,0.155 -0.456,0 -0.683,-0.407 -0.683,-1.223 V -5.785 H 0 Z" />
      </g>
      <g
         transform="translate(213.9229,96.2959)"
         id="g608">
        <path
           inkscape:connector-curvature="0"
           id="path610"
           style="fill:#351b76;fill-opacity:1;fill-rule:nonzero;stroke:none"
           d="m 0,0 c 0,0.602 -0.066,1.014 -0.2,1.238 -0.135,0.225 -0.315,0.337 -0.544,0.337 -0.495,0 -0.743,-0.524 -0.743,-1.575 0,-0.536 0.057,-0.932 0.174,-1.189 0.114,-0.256 0.303,-0.385 0.569,-0.385 0.263,0 0.452,0.132 0.568,0.39 C -0.058,-0.922 0,-0.527 0,0 m 0.942,0.044 c 0,-1.525 -0.566,-2.287 -1.697,-2.287 -0.518,0 -0.928,0.182 -1.226,0.554 -0.298,0.368 -0.449,0.932 -0.449,1.691 0,1.496 0.567,2.243 1.697,2.243 0.515,0 0.921,-0.182 1.223,-0.548 C 0.791,1.333 0.942,0.781 0.942,0.044" />
      </g>
      <g
         transform="translate(217.707,96.2959)"
         id="g612">
        <path
           inkscape:connector-curvature="0"
           id="path614"
           style="fill:#351b76;fill-opacity:1;fill-rule:nonzero;stroke:none"
           d="m 0,0 c 0,0.602 -0.066,1.014 -0.2,1.238 -0.134,0.225 -0.315,0.337 -0.543,0.337 -0.495,0 -0.744,-0.524 -0.744,-1.575 0,-0.536 0.057,-0.932 0.173,-1.189 0.115,-0.256 0.305,-0.385 0.571,-0.385 0.262,0 0.452,0.132 0.568,0.39 C -0.06,-0.922 0,-0.527 0,0 m 0.941,0.044 c 0,-1.525 -0.565,-2.287 -1.695,-2.287 -0.519,0 -0.93,0.182 -1.227,0.554 -0.299,0.368 -0.448,0.932 -0.448,1.691 0,1.496 0.566,2.243 1.696,2.243 0.513,0 0.922,-0.182 1.221,-0.548 C 0.791,1.333 0.941,0.781 0.941,0.044" />
      </g>
      <path
         inkscape:connector-curvature="0"
         id="path616"
         style="fill:#351b76;fill-opacity:1;fill-rule:nonzero;stroke:none"
         d="m 219.279,99.943 h 0.882 v -5.785 h -0.882 z" />
      <g
         transform="translate(224.5547,97.1084)"
         id="g618">
        <path
           inkscape:connector-curvature="0"
           id="path620"
           style="fill:#351b76;fill-opacity:1;fill-rule:nonzero;stroke:none"
           d="m 0,0 c 0,-0.332 -0.116,-0.615 -0.349,-0.854 -0.234,-0.24 -0.513,-0.359 -0.842,-0.359 -0.335,0 -0.62,0.119 -0.85,0.359 -0.23,0.239 -0.344,0.522 -0.344,0.854 0,0.333 0.116,0.618 0.348,0.855 0.233,0.239 0.516,0.357 0.846,0.357 0.329,0 0.608,-0.118 0.842,-0.357 C -0.116,0.618 0,0.333 0,0" />
      </g>
      <g
         transform="translate(229.5635,97.0508)"
         id="g622">
        <path
           inkscape:connector-curvature="0"
           id="path624"
           style="fill:#351b76;fill-opacity:1;fill-rule:nonzero;stroke:none"
           d="M 0,0 C 0,0.687 -0.08,1.228 -0.238,1.622 -0.399,2.017 -0.677,2.214 -1.077,2.214 -1.474,2.214 -1.753,2.016 -1.911,1.621 -2.069,1.225 -2.147,0.683 -2.147,0 c 0,-0.674 0.078,-1.21 0.231,-1.611 0.155,-0.403 0.44,-0.605 0.852,-0.605 0.388,0 0.662,0.196 0.823,0.584 C -0.08,-1.242 0,-0.698 0,0 m 1.003,0.002 c 0,-0.989 -0.175,-1.736 -0.526,-2.243 -0.355,-0.504 -0.869,-0.757 -1.541,-0.757 -0.674,0 -1.192,0.251 -1.551,0.756 -0.359,0.505 -0.538,1.251 -0.538,2.244 0,0.983 0.178,1.728 0.534,2.236 0.356,0.506 0.873,0.76 1.552,0.76 0.668,0 1.181,-0.252 1.538,-0.756 C 0.827,1.738 1.003,0.99 1.003,0.002" />
      </g>
      <g
         transform="translate(232.2197,98.4385)"
         id="g626">
        <path
           inkscape:connector-curvature="0"
           id="path628"
           style="fill:#351b76;fill-opacity:1;fill-rule:nonzero;stroke:none"
           d="M 0,0 H 0.769 V -0.712 H 0 V -4.28 h -0.863 v 3.568 h -0.56 V 0 h 0.56 c 0.007,0.51 0.051,0.858 0.13,1.055 0.08,0.191 0.21,0.343 0.389,0.454 0.179,0.109 0.423,0.165 0.73,0.165 0.177,0 0.351,-0.017 0.521,-0.051 V 0.919 C 0.786,0.939 0.675,0.949 0.573,0.949 0.398,0.949 0.269,0.917 0.186,0.853 0.101,0.788 0.049,0.704 0.029,0.604 0.011,0.504 0,0.303 0,0" />
      </g>
      <g
         transform="translate(234.2187,98.4385)"
         id="g630">
        <path
           inkscape:connector-curvature="0"
           id="path632"
           style="fill:#351b76;fill-opacity:1;fill-rule:nonzero;stroke:none"
           d="M 0,0 H 0.769 V -0.712 H 0 V -4.28 h -0.863 v 3.568 h -0.56 V 0 h 0.56 c 0.008,0.51 0.051,0.858 0.131,1.055 0.079,0.191 0.208,0.343 0.388,0.454 0.18,0.109 0.423,0.165 0.731,0.165 0.177,0 0.352,-0.017 0.521,-0.051 V 0.919 C 0.787,0.939 0.676,0.949 0.574,0.949 0.397,0.949 0.27,0.917 0.185,0.853 0.101,0.788 0.051,0.704 0.03,0.604 0.011,0.504 0,0.303 0,0" />
      </g>
      <path
         inkscape:connector-curvature="0"
         id="path634"
         style="fill:#351b76;fill-opacity:1;fill-rule:nonzero;stroke:none"
         d="m 235.231,98.438 h 0.883 v -4.28 h -0.883 z m 0.908,0.577 h -0.929 v 0.937 h 0.929 z" />
      <g
         transform="translate(239.9141,96.998)"
         id="g636">
        <path
           inkscape:connector-curvature="0"
           id="path638"
           style="fill:#351b76;fill-opacity:1;fill-rule:nonzero;stroke:none"
           d="M 0,0 -0.852,-0.093 C -0.893,0.28 -0.966,0.529 -1.068,0.655 -1.169,0.779 -1.312,0.843 -1.5,0.843 -1.763,0.843 -1.952,0.722 -2.072,0.481 -2.19,0.238 -2.25,-0.186 -2.25,-0.794 c 0,-0.948 0.249,-1.424 0.75,-1.424 0.383,0 0.601,0.311 0.648,0.93 L 0,-1.364 c -0.115,-1.055 -0.636,-1.581 -1.563,-1.581 -0.548,0 -0.954,0.197 -1.218,0.591 -0.265,0.397 -0.396,0.943 -0.396,1.642 0,0.734 0.141,1.292 0.427,1.678 0.286,0.384 0.701,0.577 1.246,0.577 C -0.626,1.543 -0.124,1.027 0,0" />
      </g>
      <g
         transform="translate(242.4951,96.7637)"
         id="g640">
        <path
           inkscape:connector-curvature="0"
           id="path642"
           style="fill:#351b76;fill-opacity:1;fill-rule:nonzero;stroke:none"
           d="M 0,0 C 0,0.756 -0.246,1.133 -0.737,1.133 -1.197,1.133 -1.452,0.756 -1.496,0 Z m 0.903,-0.596 h -2.422 c 0,-0.578 0.08,-0.965 0.236,-1.156 0.156,-0.192 0.354,-0.29 0.589,-0.29 0.395,0 0.644,0.266 0.75,0.796 l 0.808,-0.106 c -0.211,-0.906 -0.741,-1.359 -1.585,-1.359 -0.517,0 -0.93,0.184 -1.237,0.556 -0.309,0.37 -0.461,0.911 -0.461,1.626 0,0.737 0.154,1.302 0.465,1.703 0.31,0.402 0.727,0.603 1.246,0.603 0.364,0 0.672,-0.1 0.921,-0.303 0.248,-0.2 0.423,-0.462 0.524,-0.788 0.104,-0.328 0.158,-0.754 0.166,-1.282" />
      </g>
      <g
         transform="translate(247.4863,97.1084)"
         id="g644">
        <path
           inkscape:connector-curvature="0"
           id="path646"
           style="fill:#351b76;fill-opacity:1;fill-rule:nonzero;stroke:none"
           d="m 0,0 c 0,-0.332 -0.116,-0.615 -0.348,-0.854 -0.234,-0.24 -0.515,-0.359 -0.842,-0.359 -0.336,0 -0.619,0.119 -0.849,0.359 -0.232,0.239 -0.348,0.522 -0.348,0.854 0,0.333 0.118,0.618 0.352,0.855 0.231,0.239 0.514,0.357 0.845,0.357 0.327,0 0.608,-0.118 0.842,-0.357 C -0.116,0.618 0,0.333 0,0" />
      </g>
      <g
         transform="translate(248.8379,99.9434)"
         id="g648">
        <path
           inkscape:connector-curvature="0"
           id="path650"
           style="fill:#351b76;fill-opacity:1;fill-rule:nonzero;stroke:none"
           d="M 0,0 H 3.534 V -0.815 H 2.242 v -4.97 H 1.284 v 4.97 H 0 Z" />
      </g>
      <g
         transform="translate(254.7549,96.7637)"
         id="g652">
        <path
           inkscape:connector-curvature="0"
           id="path654"
           style="fill:#351b76;fill-opacity:1;fill-rule:nonzero;stroke:none"
           d="M 0,0 C 0,0.756 -0.245,1.133 -0.736,1.133 -1.198,1.133 -1.451,0.756 -1.498,0 Z m 0.902,-0.596 h -2.42 c 0,-0.578 0.08,-0.965 0.234,-1.156 0.157,-0.192 0.355,-0.29 0.59,-0.29 0.394,0 0.644,0.266 0.75,0.796 L 0.863,-1.352 C 0.65,-2.258 0.125,-2.711 -0.722,-2.711 c -0.514,0 -0.928,0.184 -1.236,0.556 -0.31,0.37 -0.462,0.911 -0.462,1.626 0,0.737 0.154,1.302 0.465,1.703 0.311,0.402 0.727,0.603 1.247,0.603 0.364,0 0.67,-0.1 0.919,-0.303 C 0.46,1.274 0.636,1.012 0.737,0.686 0.839,0.358 0.894,-0.068 0.902,-0.596" />
      </g>
      <g
         transform="translate(259.1494,96.998)"
         id="g656">
        <path
           inkscape:connector-curvature="0"
           id="path658"
           style="fill:#351b76;fill-opacity:1;fill-rule:nonzero;stroke:none"
           d="m 0,0 -0.853,-0.093 c -0.041,0.373 -0.115,0.622 -0.215,0.748 -0.103,0.124 -0.247,0.188 -0.433,0.188 -0.263,0 -0.454,-0.121 -0.571,-0.362 -0.119,-0.243 -0.179,-0.667 -0.179,-1.275 0,-0.948 0.25,-1.424 0.75,-1.424 0.384,0 0.6,0.311 0.648,0.93 L 0,-1.364 c -0.116,-1.055 -0.639,-1.581 -1.565,-1.581 -0.547,0 -0.953,0.197 -1.219,0.591 -0.262,0.397 -0.396,0.943 -0.396,1.642 0,0.734 0.143,1.292 0.428,1.678 0.286,0.384 0.702,0.577 1.248,0.577 C -0.627,1.543 -0.125,1.027 0,0" />
      </g>
      <g
         transform="translate(259.5205,99.9434)"
         id="g660">
        <path
           inkscape:connector-curvature="0"
           id="path662"
           style="fill:#351b76;fill-opacity:1;fill-rule:nonzero;stroke:none"
           d="m 0,0 h 0.883 v -2.072 c 0.199,0.445 0.541,0.67 1.022,0.67 0.247,0 0.455,-0.058 0.622,-0.17 0.17,-0.113 0.286,-0.265 0.353,-0.45 0.066,-0.191 0.1,-0.545 0.1,-1.068 V -5.785 H 2.098 v 2.692 c 0,0.446 -0.049,0.721 -0.152,0.823 -0.103,0.103 -0.229,0.155 -0.38,0.155 -0.455,0 -0.683,-0.407 -0.683,-1.223 V -5.785 H 0 Z" />
      </g>
    </g>
  </g>
</svg>
