<svg xmlns="http://www.w3.org/2000/svg" xmlns:xlink="http://www.w3.org/1999/xlink" width="400.558" height="271.542"><defs><pattern xlink:href="#a" id="d" patternTransform="matrix(2 0 0 2 399.7 468.9)"/><pattern xlink:href="#b" id="a" patternTransform="matrix(1 0 0 -1 -513.3 454.1)"/><pattern patternTransform="matrix(.8 0 0 -.8 -800.9 104.2)" id="b" xlink:href="#c"/><pattern patternUnits="userSpaceOnUse" width="40.156" height="70.742" patternTransform="matrix(.8 0 0 -.8 -879.5 193.1)" id="c"><path d="M40.11.23L.048 9.605 40.11.23zm0 .97L.048 10.573 40.11 1.2zm0 .968L.048 11.543 40.11 2.168zm0 .968L.048 12.51 40.11 3.137zm0 .938L.048 13.45 40.11 4.073zm0 1L.048 14.45 40.11 5.073zm0 .97L.048 15.417 40.11 6.043zm0 .967L.048 16.387 40.11 7.01zm0 .94L.048 17.323 40.11 7.95zm0 .968L.048 18.293 40.11 8.918zm0 1L.048 19.293 40.11 9.918zm0 .968L.048 20.26l40.062-9.374zm0 .938L.048 21.2l40.062-9.376zm0 .97L.048 22.167l40.062-9.375zm0 .967L.048 23.137 40.11 13.76zm0 1L.048 24.137 40.11 14.76zm0 .94L.048 25.073 40.11 15.7zm0 .968L.048 26.043l40.062-9.375zm0 .968L.048 27.01l40.062-9.374zm0 .97L.048 28.01l40.062-9.405zm0 .968L.048 28.95l40.062-9.376zm0 .97L.048 29.917l40.062-9.375zm0 .967L.048 30.887 40.11 21.51zm0 .97L.048 31.855 40.11 22.48zm0 .97L.048 32.823 40.11 23.45zm0 .968L.048 33.793l40.062-9.375zm0 .968L.048 34.76l40.062-9.374zm0 .97L.048 35.73l40.062-9.375zm0 .968L.048 36.7l40.062-9.376zm0 .97L.048 37.667l40.062-9.375zm0 .967L.048 38.637 40.11 29.26zm0 .97L.048 39.605 40.11 30.23zm0 .906L.048 40.51l40.062-9.374zm0 .97L.048 41.48l40.062-9.375zm0 .968L.048 42.45l40.062-9.376zm0 .97L.048 43.417l40.062-9.375zm0 .967L.048 44.387 40.11 35.01zm0 .97L.048 45.355 40.11 35.98zm0 .97L.048 46.323 40.11 36.95zm0 .968L.048 47.293l40.062-9.375zm0 .937L.048 48.23l40.062-9.375zm0 1L.048 49.23l40.062-9.375zm0 .97L.048 50.198l40.062-9.376zm0 .968L.048 51.168l40.062-9.375zm0 .937L.048 52.105 40.11 42.73zm0 .97L.048 53.104 40.11 43.7zm0 1L.048 54.073 40.11 44.7zm0 .968L.048 55.043l40.062-9.375zm0 .937L.048 55.98l40.062-9.375zm0 .97L.048 56.948l40.062-9.376zm0 .968L.048 57.95l40.062-9.407zm0 1L.048 58.918l40.062-9.375zm0 .937L.048 59.855 40.11 50.48zm0 .97L.048 60.823 40.11 51.45zm0 .968L.048 61.793l40.062-9.375zm0 .968L.048 62.793l40.062-9.407zm0 .97L.048 63.73l40.062-9.375zm0 .968L.048 64.7l40.062-9.376zm0 .97L.048 65.667l40.062-9.375zm0 .967L.048 66.637 40.11 57.26zm0 .97L.048 67.605 40.11 58.23zm0 .97L.048 68.573 40.11 59.2zm0 .968L.048 69.543l40.062-9.375zm0 .968L.048 70.51l40.062-9.374z" fill="none" stroke="navy" stroke-width=".5"/></pattern></defs><path d="M304.223 94.038c0 51.936-42.102 94.04-94.038 94.04s-94.04-42.104-94.04-94.04C116.146 42.102 158.25 0 210.186 0c51.936 0 94.038 42.102 94.038 94.038z" color="#000" fill="#150951" overflow="visible"/><path d="M299.952 94.038c0 49.578-40.19 89.768-89.767 89.768s-89.768-40.19-89.768-89.768c0-49.577 40.19-89.767 89.768-89.767 49.577 0 89.767 40.19 89.767 89.768z" color="#000" fill="#fff" overflow="visible"/><path d="M288.563 94.038c0 43.287-35.09 78.378-78.378 78.378-43.287 0-78.378-35.09-78.378-78.378 0-43.286 35.09-78.377 78.378-78.377 43.287 0 78.378 35.092 78.378 78.378z" color="#000" fill="#150951" overflow="visible"/><path d="M286.98 90.534v5.16l-.712 9.61-1.958 9.967-2.135 5.162-82.397 8.72-.178-5.34zM281.82 66.865l1.778 4.45 2.136 7.474.534 5.693-89.693 38.974-1.246-6.23zM270.073 46.4l2.848 3.38 3.026 4.094 3.025 4.805.357 2.134-85.778 55.525-2.314-5.518zM253.523 30.74l6.762 5.16 6.407 6.05-77.947 68.872-1.602-7.475zM169.17 116.517l62.463-96.1 6.23 1.78 6.406 2.67 4.448 3.202-76.524 91.472zM164.186 114.203l38.795-96.81 5.518-.357 4.983.178 4.094.178 6.585 1.245-57.127 97.702z" fill="#fff"/><path d="M154.447 149.1l-.06.062c.11.112.253.195.366.306-.112-.112-.194-.254-.306-.367z" fill="navy"/><path d="M271.095 99.81l-33.433 56.945h14.573c13.743-9.224 24.247-22.814 29.576-38.822L271.096 99.81z" fill="#150951"/><path d="M144.432 112.6l-10.144-28.473-.89 6.05-.178 10.323 1.957 11.39 3.738 5.872zM147.1 113.847l-10.854-41.465 9.254-18.686 6.228 60.507zM153.508 113.49l-3.56-67.268 5.695-6.23 4.806-4.448 6.76-5.16-9.43 83.64zM159.38 113.313l14.06-87.023 6.406-3.204 6.23-2.49 5.338-1.247 5.34-1.07-34.348 96.635z" fill="#fff"/><path d="M210.185 15.66c-43.287 0-78.378 35.092-78.378 78.378 0 43.287 35.09 78.378 78.378 78.378 43.287 0 78.378-35.09 78.378-78.378 0-43.286-35.09-78.377-78.378-78.377zm0 2.817c41.714 0 75.5 33.847 75.5 75.56 0 41.716-33.786 75.5-75.5 75.5s-75.56-33.784-75.56-75.5c0-41.713 33.846-75.56 75.56-75.56z" color="#000" fill="#150951" overflow="visible"/><path d="M271.11 101.57l-26.145 44.577h19.84c7.345-7.695 13.07-16.928 16.655-27.187l-10.35-17.39z" fill="#fff"/><path d="M252.603 96.012l-37.17 63.315h32.64c10.906-6.34 20.08-15.322 26.635-26.085l-22.105-37.23z" fill="#150951"/><path d="M252.742 97.65L219.31 154.6h36.003c7.53-5.617 13.93-12.646 18.92-20.636l-21.49-36.31z" fill="#150951"/><path d="M235.274 97.972l-35.82 60.926c9.528 4.686 20.204 7.437 31.472 7.715 12.815-3.65 24.197-10.567 33.25-19.84l-28.902-48.8z" fill="#150951"/><path d="M235.352 99.733l-37.17 63.315h42.62c8.57-3.805 16.306-9.128 22.84-15.676l-28.29-47.64z" fill="#fff"/><path d="M212.557 98.706l-28.78 48.864c10.554 10.566 24.216 17.963 39.495 20.82 9.02-1.577 17.492-4.775 25.106-9.247l-35.82-60.437z" fill="#150951"/><path d="M212.695 100.835l-35.82 60.927c10.052 4.943 21.352 7.776 33.31 7.776 13.603 0 26.332-3.63 37.352-9.92l-34.842-58.783z" fill="#fff"/><path d="M154.953 110.08c-6.447 0-12.393 1.916-17.268 5.084 5.462 18.753 17.938 34.51 34.474 44.15 7.6-4.914 12.613-12.975 12.613-22.106 0-14.974-13.37-27.127-29.82-27.127z" color="#000" fill="#150951" overflow="visible"/><path d="M154.953 111.735c-6.297 0-12.098 1.89-16.778 5.082 5.52 17.453 17.15 32.167 32.453 41.577 7.455-4.584 12.37-12.38 12.37-21.186 0-14.09-12.567-25.473-28.045-25.473z" color="#000" fill="#fff" overflow="visible"/><path d="M362.184 497.427l-35.82 60.926c10.052 4.943 21.352 7.777 33.31 7.777 13.603 0 26.33-3.63 37.35-9.92l-34.84-58.783z" fill="url(#d)" transform="translate(-149.5 -396.6)"/><path d="M185.54 96.31l-29.635 50.21c13.74 14.184 32.945 23.024 54.252 23.024 6.02 0 11.9-.753 17.513-2.082L185.54 96.31z" fill="#150951"/><path d="M185.497 98.5l-28.78 48.863c13.68 13.697 32.568 22.167 53.457 22.167 5.61 0 11.088-.617 16.35-1.776L185.496 98.5z" fill="#150951"/><path d="M39.326 202.442L1.25 270.327h51.538l9.47-16.4h-29.47l28.077-51.485zM105.872 202.24l-45.76 68.077h22.693l10.387-14.6h18.06v14.974h19.605l5.38-68.45h-30.365zm9.217 20.773l-.75 16.142h-10.013l10.762-16.142zM135.48 270.71h21.54l20.384-34.614 3.077 34.23h20.386l38.847-67.692H216.25l-19.23 36.154-3.462-36.154h-20.385zM369.386 202.24l-45.76 68.077h22.693l10.386-14.6h18.06v14.974h19.605l5.38-68.45h-30.364zm9.217 20.773l-.75 16.142h-10.012l10.763-16.142zM218.943 270.71h23.077l38.847-68.46H257.79zM303.133 201.584c-2.348 0-3.544 1.877-4.632 3.977l-32.798 60.5c0 2.608 2.116 4.724 4.725 4.724h.89c13.39-.62 28.34-.28 42.25-.28l9.217-16.33-28.822-.748 18.81-34.25h30.412l9.17-17.552-47.21-.04z" fill="#150951" stroke="#150951" stroke-width="1.497"/></svg>