<svg xmlns="http://www.w3.org/2000/svg" width="459.979" height="398.868"><path d="M192.408 5.303S79.348 34.2 72.754 130.453c0 0-3.77 73.72 97.984 115.14 0 0 7.538 9.857-47.583-5.692 0 .943-111.174-27.028-117.295-112.907 0-.618-1.884-110.384 186.548-126.875 0-.468 14.826.3 0 5.185M261.702 5.303s113.06 28.898 119.654 125.15c0 0 3.77 73.72-97.984 115.14 0 0-7.538 9.857 47.582-5.692 0 .943 111.175-27.028 117.295-112.907 0-.618 1.884-110.384-186.548-126.875 0-.468-14.826.3 0 5.185" fill-rule="evenodd"/><path d="M277.202 171.595l51.82-3.302v46.174l-97.518 6.414V21.317l45.698 150.28zM174.507 171.595l-51.82-3.302v46.174l97.518 6.414V21.317l-45.698 150.28z" fill="#ed1d24"/><path d="M456.217 395.115H3.754V259.037h452.463v136.078z" fill="none" stroke="#ed1d24" stroke-width="7.537755499999999" stroke-miterlimit="10"/><path d="M96.827 303.004h-2.892c-3.29 6.28-5.285 8.776-8.775 11.352-4.09 2.98-9.673 4.428-17.352 4.428-6.083 0-7.978-1.047-7.978-4.508v-38c0-6.04 1.396-7.085 10.072-7.407v-2.014H35.1v2.013c6.78.32 8.576 1.61 8.576 5.715v38.966c0 4.107-1.297 4.992-8.577 5.717v2.013h57.638l4.09-18.276M163.34 303.004h-2.89c-3.292 6.28-5.286 8.776-8.777 11.352-4.088 2.98-9.672 4.428-17.35 4.428-6.084 0-7.98-1.047-7.98-4.508v-38c0-6.04 1.397-7.085 10.073-7.407v-2.014h-34.803v2.013c6.78.32 8.576 1.61 8.576 5.715v38.966c0 4.107-1.297 4.992-8.577 5.717v2.013h57.64l4.088-18.276M234.94 319.267h-.398c-3.89 0-5.485-1.69-10.47-11.19l-22.24-42.348h-2.79l-22.14 44.118c-3.788 7.487-4.985 8.694-9.772 9.42v2.012h20.244v-2.013c-5.884-.322-8.177-1.208-8.177-3.3 0-1.047.797-3.06 2.892-7.408l1.494-3.14h22.438c3.39 6.28 4.587 9.178 4.587 10.95 0 1.69-1.298 2.495-4.788 2.656-.498 0-1.795.08-3.19.24v2.014h32.31v-2.013M185.08 302.28l9.374-19.564 10.072 19.564H185.08M261.167 266.856h-21.04v2.013c1.994 0 3.69 1.206 8.476 5.795v38.16c0 4.59-1.496 5.717-8.776 6.442v2.013h22.637v-2.013c-7.68-.725-9.474-2.254-9.474-7.97v-32.365l44.576 43.797h2.792v-47.42c0-4.59 1.296-5.636 7.778-6.44v-2.014h-21.44v2.013c7.38.562 9.274 2.253 9.274 7.97v24.554l-34.803-34.538M358.495 283.038v-17.47h-2.99c-.7 2.093-1.497 2.737-3.193 2.737-.897 0-1.994-.24-4.188-.885-4.687-1.29-7.878-1.772-11.667-1.772-13.562 0-21.84 6.2-21.84 16.344 0 7.084 5.186 12.156 17.053 16.745l6.68 2.577c8.777 3.38 11.17 5.474 11.17 9.66 0 5.556-4.886 9.18-12.565 9.18-5.783 0-10.77-2.014-14.56-5.96-2.69-2.978-4.087-5.635-5.783-11.27h-2.892v19.886h2.892c.6-2.013 1.396-2.738 2.992-2.738.798 0 1.895.242 4.088.805 4.987 1.37 8.676 1.933 12.964 1.933 14.76 0 24.73-6.844 24.73-16.988 0-6.038-4.586-12.076-10.968-14.652l-14.66-5.877c-8.077-3.22-10.27-5.234-10.27-9.098 0-4.992 4.188-8.05 10.97-8.05 4.486 0 8.675 1.53 12.264 4.508 3.39 2.817 4.987 5.152 6.98 10.385h2.793M434.383 319.267h-.4c-3.888 0-5.484-1.69-10.47-11.19l-22.237-42.348h-2.793l-22.138 44.118c-3.79 7.487-4.986 8.694-9.772 9.42v2.012h20.243v-2.013c-5.883-.322-8.177-1.208-8.177-3.3 0-1.047.797-3.06 2.89-7.408l1.497-3.14h22.437c3.39 6.28 4.587 9.178 4.587 10.95 0 1.69-1.295 2.495-4.786 2.656-.498 0-1.795.08-3.19.24v2.014h32.31v-2.013M384.52 302.28l9.374-19.564 10.072 19.564h-19.446" style="-inkscape-font-specification:Nimbus Roman No9 L" font-size="64.392" font-weight="bold" font-family="Nimbus Roman No9 L"/><path d="M56.61 337.867H39.062v1.64c4.02.614 4.844 1.23 4.844 4.03v20.084c0 2.802-.64 3.348-4.844 4.1v1.64h21.844v-1.64c-3.2-.342-4.296-1.298-4.296-3.894v-25.96m-6.398-15.71c-3.93 0-7.13 2.39-7.13 5.26 0 3.073 3.017 5.327 7.04 5.327 4.02 0 7.128-2.254 7.128-5.26 0-2.937-3.108-5.328-7.038-5.328M82.384 337.867H64.927v1.64c4.022.478 4.844 1.16 4.844 4.03v20.084c0 2.87-.73 3.485-4.843 4.1v1.64h22.027v-1.64c-3.38-.342-4.478-1.367-4.478-3.894v-18.24c0-.273.64-.956 1.554-1.57 2.01-1.572 4.204-2.392 6.306-2.392 3.2 0 4.753 1.845 4.753 5.67v16.532c0 2.527-1.19 3.62-4.297 3.894v1.64h21.48v-1.64c-3.566-.205-4.48-1.025-4.48-3.894V346.68c0-5.876-4.844-9.633-12.34-9.633-5.482 0-9.687 1.913-13.07 5.943v-5.123M157.88 342.17v-3.62h-11.882c-4.022-1.093-6.58-1.503-10.237-1.503-10.875 0-18.553 4.51-18.553 11 0 2.32 1.188 4.576 3.29 6.488 2.01 1.64 3.748 2.528 8.044 3.894-7.22 1.844-10.876 4.44-10.876 7.992 0 2.8 1.645 4.03 7.495 5.6-5.76.616-8.775 2.324-8.775 5.125 0 3.962 6.855 6.284 18.37 6.284 15.173 0 23.216-3.55 23.216-10.314 0-5.26-5.666-8.402-14.988-8.402h-5.94c-7.313 0-9.14-.478-9.14-2.39 0-2.05 2.558-3.553 6.214-3.553l4.113.07c4.295 0 6.58-.41 9.687-1.777 4.113-1.776 6.215-4.577 6.215-8.198 0-2.732-1.096-4.782-3.656-6.694h7.404m-14.44 30.74c4.934 0 7.31 1.163 7.31 3.417 0 3.142-5.026 4.918-14.075 4.918-8.043 0-12.247-1.57-12.247-4.576 0-1.436.64-2.187 3.2-3.76h15.81m-7.677-33.745c4.297 0 6.034 2.596 6.034 8.95 0 6.352-1.737 8.81-6.033 8.81-4.386 0-6.03-2.458-6.03-8.81 0-6.423 1.735-8.95 6.03-8.95M196.267 360.82c-3.656 3.347-6.49 4.577-10.42 4.577-3.564 0-6.215-1.23-8.134-3.62-1.645-2.187-2.376-4.44-2.742-9.154h23.034c-.55-5.74-1.92-8.95-4.845-11.545-3.017-2.664-7.22-4.03-12.248-4.03-11.425 0-19.102 6.762-19.102 16.736s7.494 16.532 18.828 16.532c7.403 0 11.882-2.186 17.823-8.54l-2.193-.956m-21.753-10.725c.274-8.198 1.92-10.93 6.398-10.93 2.56 0 4.296 1.093 5.027 3.21.456 1.3.64 3.21.822 6.695v1.025h-12.248M219.482 337.867h-17.457v1.64c4.02.478 4.844 1.16 4.844 4.03v20.084c0 2.87-.732 3.485-4.845 4.1v1.64h22.027v-1.64c-3.382-.342-4.48-1.367-4.48-3.894v-18.24c0-.273.64-.956 1.555-1.57 2.01-1.572 4.205-2.392 6.307-2.392 3.2 0 4.752 1.845 4.752 5.67v16.532c0 2.527-1.188 3.62-4.295 3.894v1.64h21.48v-1.64c-3.565-.205-4.48-1.025-4.48-3.894V346.68c0-5.876-4.843-9.633-12.338-9.633-5.484 0-9.688 1.913-13.07 5.943v-5.123M269.934 337.867h-17.548v1.64c4.02.614 4.844 1.23 4.844 4.03v20.084c0 2.802-.64 3.348-4.844 4.1v1.64h21.844v-1.64c-3.2-.342-4.296-1.298-4.296-3.894v-25.96m-6.398-15.71c-3.93 0-7.13 2.39-7.13 5.26 0 3.073 3.017 5.327 7.04 5.327 4.02 0 7.128-2.254 7.128-5.26 0-2.937-3.108-5.328-7.038-5.328M313.074 360.82c-3.656 3.347-6.49 4.577-10.42 4.577-3.564 0-6.214-1.23-8.134-3.62-1.645-2.187-2.376-4.44-2.742-9.154h23.033c-.548-5.74-1.92-8.95-4.843-11.545-3.016-2.664-7.22-4.03-12.248-4.03-11.426 0-19.103 6.762-19.103 16.736s7.495 16.532 18.828 16.532c7.403 0 11.882-2.186 17.823-8.54l-2.194-.956m-21.753-10.725c.276-8.198 1.92-10.93 6.4-10.93 2.558 0 4.295 1.093 5.026 3.21.457 1.3.64 3.21.823 6.695v1.025h-12.25M336.838 337.867h-17.274v1.64c3.93.41 4.935 1.297 4.935 4.03v20.084c0 2.802-.915 3.553-4.936 4.1v1.64h24.312v-1.64c-5.576-.274-6.672-1.162-6.672-5.397v-12.91c0-3.553 2.56-6.49 5.575-6.49.73 0 1.553.477 2.558 1.57 1.737 1.845 3.108 2.46 5.484 2.46 3.382 0 5.758-1.913 5.758-4.577 0-3.075-3.108-5.33-7.403-5.33-4.57 0-8.043 1.846-12.34 6.423v-5.603M378.79 337.047c-11.608 0-20.656 7.173-20.656 16.464 0 9.77 8.683 16.806 20.656 16.806 11.79 0 20.564-7.105 20.564-16.6 0-9.564-8.774-16.67-20.564-16.67m.09 2.12c5.302 0 7.04 3.756 7.04 14.96 0 10.52-1.83 14.072-7.13 14.072-5.393 0-7.22-3.484-7.22-13.458 0-12.023 1.644-15.575 7.31-15.575M432.624 347.09v-9.906h-2.01c-.55 1.025-1.098 1.366-2.195 1.366-.55 0-1.463-.136-2.925-.478-3.017-.75-5.12-1.025-7.13-1.025-8.317 0-14.35 4.236-14.35 9.974 0 4.51 3.748 7.652 12.98 10.59 6.215 2.05 8.774 3.757 8.774 5.943 0 2.664-2.743 4.44-6.856 4.44-6.398 0-10.602-3.074-12.522-9.017h-2.56v11.27h2.286c1.005-1.433 1.554-1.912 2.376-1.912.457 0 1.19.137 2.103.41 2.467.82 7.31 1.572 9.87 1.572 8.318 0 14.076-4.236 14.076-10.384 0-4.85-3.565-7.788-12.613-10.657-6.215-1.98-8.774-3.69-8.774-6.01 0-2.256 2.56-3.964 6.032-3.964 2.376 0 4.844.753 6.855 2.188 1.92 1.366 2.925 2.596 4.296 5.6h2.284" style="-inkscape-font-specification:Nimbus Roman No9 L" font-size="56.785" font-weight="bold" font-family="Nimbus Roman No9 L"/></svg>