<!-- Generator: Adobe Illustrator 18.1.1, SVG Export Plug-In  -->
<svg version="1.1"
	 xmlns="http://www.w3.org/2000/svg" xmlns:xlink="http://www.w3.org/1999/xlink" xmlns:a="http://ns.adobe.com/AdobeSVGViewerExtensions/3.0/"
	 x="0px" y="0px" width="154.8px" height="122px" viewBox="0 0 154.8 122" enable-background="new 0 0 154.8 122"
	 xml:space="preserve">
<defs>
</defs>
<g>
	<path fill="#007C4B" d="M89.1,28.8c-0.6-2.9-1.5-5.7-2.7-8.4c-1.2-2.7-2-6.1-3.4-8.4c-1.5-2.4-3.2-5-4.8-6.7c-1.7-1.8-4.1-1-6-2.3
		c-1.9-1.2-3.6-1.1-5.4-1.6c-1.9-0.6-2.7-1.7-4.3-1.3c0.6,3-0.7,5.6,0.5,8.3c1.2,2.8,3.2,5.3,4.7,7.7c1.5,2.4,4,2.6,5.7,4.5
		c1.7,1.9,3.2,3,5.1,4.2c1.9,1.3,4.5,2.2,6.3,2.6C86.6,27.8,87.5,29.5,89.1,28.8z"/>
	<g>
		<path fill="#231F20" d="M38.9,119.2l1.1-0.7c0.8,1.5,1.7,2.3,2.7,2.3c0.4,0,0.9-0.1,1.2-0.3c0.4-0.2,0.7-0.5,0.9-0.9
			c0.2-0.4,0.3-0.7,0.3-1.1c0-0.5-0.1-0.9-0.4-1.3c-0.4-0.6-1.2-1.3-2.2-2.2c-1.1-0.9-1.8-1.5-2-1.9c-0.5-0.6-0.7-1.3-0.7-2.1
			c0-0.6,0.1-1.1,0.4-1.6c0.3-0.5,0.7-0.9,1.2-1.2c0.5-0.3,1-0.4,1.6-0.4c0.6,0,1.2,0.2,1.7,0.5c0.5,0.3,1.1,0.9,1.7,1.8l-1.1,0.9
			c-0.5-0.7-0.9-1.1-1.3-1.4c-0.3-0.2-0.7-0.3-1.1-0.3c-0.5,0-1,0.2-1.3,0.5c-0.3,0.3-0.5,0.7-0.5,1.2c0,0.3,0.1,0.6,0.2,0.9
			c0.1,0.3,0.3,0.6,0.7,0.9c0.2,0.2,0.7,0.6,1.7,1.4c1.1,0.9,1.9,1.6,2.3,2.3c0.4,0.7,0.6,1.4,0.6,2c0,1-0.4,1.9-1.1,2.6
			c-0.7,0.7-1.6,1.1-2.6,1.1c-0.8,0-1.5-0.2-2.2-0.7C40.1,120.9,39.5,120.2,38.9,119.2z"/>
		<path fill="#231F20" d="M65.8,108h1.3v5.7h6.7V108h1.3v13.7h-1.3v-6.6h-6.7v6.6h-1.3V108z"/>
		<path fill="#231F20" d="M101.1,107.7c2,0,3.6,0.7,5,2.1c1.3,1.4,2,3.1,2,5.1c0,2-0.7,3.7-2,5.1c-1.3,1.4-3,2.1-4.9,2.1
			c-1.9,0-3.6-0.7-4.9-2.1c-1.3-1.4-2-3.1-2-5c0-1.3,0.3-2.5,0.9-3.7c0.6-1.1,1.4-2,2.5-2.6C98.7,108,99.9,107.7,101.1,107.7z
			 M101.1,109c-1,0-1.9,0.3-2.8,0.8c-0.9,0.5-1.5,1.2-2,2.1c-0.5,0.9-0.7,1.9-0.7,3c0,1.6,0.5,3,1.6,4.1c1.1,1.1,2.4,1.7,3.9,1.7
			c1,0,2-0.3,2.8-0.8c0.9-0.5,1.5-1.2,2-2.1c0.5-0.9,0.7-1.9,0.7-3c0-1.1-0.2-2.1-0.7-2.9c-0.5-0.9-1.2-1.6-2-2.1
			C103.1,109.3,102.1,109,101.1,109z"/>
		<path fill="#231F20" d="M127.2,108h2.6c1.5,0,2.5,0.1,3,0.2c0.7,0.2,1.4,0.6,1.8,1.2c0.5,0.6,0.7,1.4,0.7,2.2
			c0,0.9-0.2,1.7-0.7,2.3c-0.5,0.6-1.1,1-1.9,1.2c-0.6,0.1-1.7,0.2-3.3,0.2h-0.9v6.4h-1.3V108z M128.5,109.4v4.6l2.2,0
			c0.9,0,1.5-0.1,2-0.3c0.4-0.2,0.7-0.4,1-0.8c0.2-0.4,0.4-0.8,0.4-1.3c0-0.5-0.1-0.9-0.4-1.2c-0.2-0.4-0.5-0.6-0.9-0.8
			c-0.4-0.2-1-0.2-1.9-0.2H128.5z"/>
	</g>
	<path fill="#EC1C24" d="M91.6,69.3c-2.3,9.1-4.7,23.6-4.5,28.7c0,0.8,0.2,1.4,0.3,1.7c0.3,0.5,0.5,0.9,0.5,1.4c0,0.7-0.5,1.5-2,1.6
		c-0.5,0-1.2,0-2-0.1c-6.7-1.2-9.1-6-9.4-11.8c-0.6-11.1,6.2-26.3,7-31.2c0.1-0.6,0.1-1,0.1-1.5c-0.1-1.1-0.6-1.7-1.4-1.6
		c-4.4,0.3-17.9,15.1-32.2,41c-1.2,2.2-1,4.5-3.1,4.7c-0.5,0-1.2-0.1-2.1-0.4c-2.8-0.9-4.1-3.3-4.2-6.3C38,84.3,51.2,63,53.4,54.5
		c0.2-0.9,0.3-1.4,0.3-1.9c0-0.5-0.3-0.7-0.6-0.7c-4.3,0.3-31.2,40.8-35.6,50.5c-0.5,1.1-1.3,2.1-2.5,2.2c-0.3,0-0.7,0-1.2-0.2
		c-1.7-0.5-3-2.6-3.1-5.9c-0.2-4.3,1.3-10.9,6.1-19.1C24.1,66.8,32.1,51.2,31.7,45c-0.1-1.8-1-2.9-2.8-2.7
		c-3.3,0.2-9.6,4.2-21.2,14.5c-1.9,1.6-3.3,2.4-4.4,2.5c-1.2,0.1-2-0.6-2.7-1.9C0.2,56.7,0,56.1,0,55.7c-0.1-1.2,0.7-2.3,2.7-3.6
		c-0.1,0.5-1.5,1.9-1.4,2.5c0,0.1,0.3,0.1,0.3,0.1c0.2,0,0.7-0.3,2-1.3c5.8-4.5,10.1-7.7,18.3-12.1c1.9-1,4.3-1.7,6.7-1.9
		c5.3-0.4,10.5,1.9,10.9,9.3c0.2,4-1.2,10.2-4.7,17.4c-0.5,1.1-1,2-1.1,2.9c0.5-0.4,0.9-0.9,2.4-2.9c5.5-7.3,13.8-18.6,19.7-19
		c1.6-0.1,3,0.5,4.2,2.2c1.1,1.5,1.6,3.5,1.7,5.5c0.3,5.9-2.4,13.3-4.4,18.4C57,73.8,57,74.2,57,74.7c0.4-0.3,1.3-1.2,1.4-1.4
		c13.2-15.8,21.7-21.5,26.9-21.9c4.9-0.4,6.9,3.8,7.2,9.1C92.7,63.4,92.5,65.9,91.6,69.3z"/>
	<path fill="#EC1C24" d="M131.3,68.4c-1.1,3.3-6.9,13.2-9.6,17c-0.7,1-1.5,1.6-2.5,1.8c-2,0.4-4.5-1.2-5.4-5.3
		c-0.5-2.7-0.4-6.4,1.1-11.3c0.1-0.5,0.2-0.9,0.2-1.2c0-0.2-0.2-0.4-0.4-0.3c-0.2,0-0.3,0.1-0.5,0.3c-4.7,4.6-7.8,15.8-12.3,22.2
		c-0.6,1-1.5,1.5-2.3,1.7c-2.9,0.6-6.4-2.8-7.1-6.5c-0.2-0.8-0.2-1.7-0.1-2.5c2-13.9,13.6-27.5,17.9-31.1c1.5-1.3,2.3-1.7,3.3-1.9
		c2.3-0.5,4.2,1,7.1,5.5c0.2,0.3,0.3,0.6,0.3,0.8c0.1,0.5-0.1,0.7-0.4,0.7c-0.3,0.1-0.8-0.1-1.2-0.4c-0.5-0.5-1.1-0.6-1.9-0.4
		c-5,1.1-15.2,14.2-16.9,22.3c-0.1,0.5-0.1,1,0,1.5c0.1,0.6,0.5,1.1,1.1,1c0.3-0.1,0.8-0.5,1.5-1.4c3.9-5.5,10.2-15.7,12.7-17.4
		c0.5-0.4,1.2-0.5,1.6-0.6c2.3-0.6,4.3,1.7,4.8,4c0.1,0.5,0.1,0.9,0.1,1.3c-0.3,3.2-3.1,10.9-3.5,14.7c0,0.4,0,0.8,0,1.1
		c0.1,0.6,0.5,1.1,0.9,1c0.2-0.1,0.4-0.3,0.7-0.6c2.4-3.2,7.3-11.5,9.3-15.8c0.4-0.9,0.8-1.2,1.1-1.3c0.2,0,0.4,0.1,0.4,0.4
		C131.4,67.7,131.4,68,131.3,68.4z"/>
	<path fill="#EC1C24" d="M154.6,71.6c-3.7,8.1-13,23.5-21.4,25.3c-2.1,0.5-4,0.1-5.9-1.3c-1.9-1.4-2.9-3.4-3.3-5.5
		c-0.7-3.6,0.1-7.8,1.3-11.4c3-8.3,6.2-14,10.8-19.4c0.4-0.5,1-0.9,1.6-1c0.7-0.1,1.5,0.1,2.2,0.8c2.4,2.7,4.1,4.7,4.6,7
		c0.4,2.1-0.3,4.7-2.8,7.8c-0.2,0.2-0.3,0.4-0.5,0.4c-0.2,0.1-0.4-0.1-0.5-1.1c0-0.9,0-1.7-0.2-2.5c-0.1-0.5-0.5-1.1-0.9-0.8
		c-4.1,3.7-10.9,15.4-11.2,22.7c-0.1,1.3,0.8,1.6,1.9,1.3c4.8-1,17-11.7,23.4-23.1c0.1-0.2,0.3-0.4,0.5-0.4c0.2-0.1,0.4,0.1,0.5,0.5
		C154.8,71.1,154.7,71.3,154.6,71.6z"/>
	<g>
		<path fill="#EC1C24" d="M129.2,52.1c0.1,0.3,0,0.5-0.1,0.4c0.3,0.5,0.1,0.6,0.4,0.6c0.2,0.3,0.1,0.8-0.1,0.4l0.4,1l0-0.6
			c0.3,0.1,0.1,1,0.4,1.2l-0.2-1.1l0.1,0c-0.1-0.2-0.2-0.7-0.2-0.9c0.1,0,0.1,0,0.2,0.2c-0.2-1.4-0.6-0.3-0.9-1.4
			C129.2,51.9,129.2,52,129.2,52.1z"/>
		<path fill="#EC1C24" d="M129.7,50.8l-0.5-0.4l-0.1-0.8c-0.1,0-0.4-0.5-0.4-0.1c0,0.1,0.1,0.2,0.1,0.3c-0.3,0-0.4-1-0.6-0.7
			c0.2,0.6,0.2,0.7,0.5,1c0.1,0.6,0.1,1,0.1,1.3c0.1,0.2,0.2,0.2,0.3,0.4l0-0.1l0.4-0.1c-0.1-0.2-0.1-0.3-0.2-0.5l0.7,0.8
			c0.3-0.4-0.1-1.3,0-1.7C129.7,50.7,129.7,49.8,129.7,50.8z"/>
		<path fill="#EC1C24" d="M129.1,51.8L129.1,51.8L129.1,51.8z"/>
		<path fill="#EC1C24" d="M74.5,33.5c-0.2-0.1-0.3,0-0.3,0l1.9,1.1c0-0.1-0.5-0.6-0.1-0.4c-0.1-0.2-0.7-0.4-0.8-0.3l0.2-0.1
			c-0.6-0.1-0.6-0.6-0.3-0.5l0,0l-1.6,0C73.9,33.6,73.9,33.2,74.5,33.5z"/>
		<path fill="#EC1C24" d="M44.1,49.4c0-0.3,0-0.3,0-0.3C44.1,49.2,44.1,49.3,44.1,49.4z"/>
		<path fill="#EC1C24" d="M73.1,33.3l-0.5,0C72.7,33.3,72.9,33.3,73.1,33.3z"/>
		<path fill="#EC1C24" d="M77.7,31.4C77.7,31.4,77.7,31.4,77.7,31.4l-0.2,0h0C77.6,31.4,77.6,31.4,77.7,31.4z"/>
		<path fill="#EC1C24" d="M64.3,29.4l-0.1,0C64.2,29.4,64.2,29.4,64.3,29.4z"/>
		<path fill="#EC1C24" d="M82.8,32.5c-0.2,0-0.4,0.1-0.6,0.1c0.1-0.1-0.1-0.1,0-0.2c0,0-0.2,0-0.2,0.1l0.1,0
			c-0.2,0.1-0.2,0.2-0.3,0.3l-0.2,0.4l-0.6,1l-0.3,0.5l-0.1,0.2l-0.1,0.1l0,0l0,0c2.5-4.1,0.7-1.1,1.2-2.1l0,0h0l0,0
			c0.1,0-0.1,0-0.1,0l0,0l0,0h0l0,0h-0.1c-0.1,0-0.3,0-0.5-0.1c0.1,0.1,0.2,0.2,0.3,0.2c0,0,0.1,0.1,0.1,0.1l0,0l0,0l0,0h0l0,0
			l0.1,0h0c0.2-0.4-2,3.4-1.1,1.8l0,0l0,0l0-0.1l0.1-0.2l0.2-0.3l0.3-0.5l0.3-0.6l0-0.1l0,0c0,0,0,0,0,0l0,0l0.1,0l0.1-0.1
			c0.1,0,0.1,0,0.1,0c0.2-0.1,0.4-0.2,0.6-0.3L82.8,32.5z"/>
		<path fill="#EC1C24" d="M47.8,35.9L47.8,35.9C47.8,35.8,47.8,35.8,47.8,35.9z"/>
		<path fill="#EC1C24" d="M47.7,35.7L47.7,35.7C47.8,35.8,47.8,35.6,47.7,35.7z"/>
		<path fill="#EC1C24" d="M73.3,33.2c0,0-0.1,0.1-0.3,0.1h0.4C73.4,33.2,73.4,33.2,73.3,33.2z"/>
		<path fill="#EC1C24" d="M74.4,32.9l0.7,0.4h0.4C75.1,33.2,74.8,33,74.4,32.9z"/>
		<path fill="#EC1C24" d="M64.9,29.9c-0.2-0.1-0.3-0.2-0.4-0.2L64.9,29.9c-0.3-0.2-0.1-0.2,0-0.3l-0.3-0.2c0.2,0,0.5,0,0.2-0.2
			l-0.1,0l0.3,0.1c-0.3-0.1-0.5,0.1-0.7,0c1,0.2-0.1,0.5,0.4,0.7l-0.4-0.2c0.1,0,0.2,0.1,0.3,0.2c-0.1,0.1-0.3,0.1-0.4,0l0.4,0.2
			c-0.3,0-0.6-0.1-0.8-0.2c-0.3-0.4,0.4-0.1,0.6-0.4c-0.4-0.1-0.4,0-0.6,0.1c-0.3-0.1-0.6-0.1-0.9-0.1c-0.3,0-0.5,0-0.7-0.2
			c-0.4,0-0.4,0.2-0.6,0.4c0,0.3,0.6,0.2,0.7,0.5c0,0-0.1-0.1-0.1-0.1c0.1,0,0.2,0.1,0.3,0.1c-0.3-0.2,0.1-0.4,0.3-0.3
			c0.1,0,0.4,0.1,0.3,0.1c-0.1,0-0.1,0-0.2,0c0.2,0.2,0.6-0.1,0.9,0.1c0,0.1-0.1,0.1-0.2,0.1c0.3-0.1,0.5-0.1,0.9,0l-0.5-0.2
			c0.1,0,0.3,0.1,0.4,0.1L64,30.5c0.7-0.1,1.7,0.6,2.3,1.3c-0.1-0.1-0.2-0.2-0.1-0.2c0.5,0.2,0.7,0.6,0.4,0.6c0.6,0,1.5,1.2,2.3,1.2
			l3.6,0c-0.1,0-0.3-0.1-0.4-0.1c-0.1-0.4-0.2-0.5,0.3-0.5c-0.5-0.1-0.5,0.2-1.1-0.1c0.3,0,0.6-0.3,0-0.6c-1.7-0.6-3.1-0.4-4.8-0.8
			c0.1-0.2-1.1-0.8-1.6-1.2c0.3-0.1,0.8,0.1,1.2,0.3c-0.3-0.2-0.7-0.4-1-0.6L64.9,29.9z"/>
		<path fill="#EC1C24" d="M68.8,31.2c0,0-0.1-0.1-0.1-0.1C68.7,31.1,68.7,31.2,68.8,31.2z"/>
		<path fill="#EC1C24" d="M66.4,30.2C66.4,30.2,66.4,30.2,66.4,30.2l-0.1-0.1L66.4,30.2z"/>
		<path fill="#EC1C24" d="M73.2,32.5c0.1,0,0.2,0,0.3,0c-0.1,0-0.1,0-0.2-0.1C73.3,32.4,73.2,32.4,73.2,32.5z"/>
		<path fill="#EC1C24" d="M73.3,33L73.3,33c-0.1,0.1,0,0.1,0,0.1C73.4,33.1,73.4,33.1,73.3,33z"/>
		<path fill="#EC1C24" d="M60,27.3l-0.1,0.1C59.9,27.3,60,27.3,60,27.3z"/>
		<path fill="#EC1C24" d="M63.9,29.1c0.5,0.1,0.2-0.3,0.8-0.1l-0.2-0.1c0.2,0,0.4,0.1,0.7,0.1l-0.3-0.1c0.5,0.3,1,0.6,1.4,0.8
			c-0.1,0.1,0.3,0.4,0.1,0.5c0.5,0.2,0.9,0.4,1.2,0.3c0.2,0.2,0.7,0.3,1,0.6c-0.1-0.2,0.7-0.1-0.2-0.4c0.1,0,0,0,0.1,0
			c-0.4-0.5-0.8-0.3-1.3-0.6c-0.2-0.3,0.6,0.1,0.3-0.1c-0.6-0.2-1.7-1.2-1.9-0.7c-0.4-0.2-0.4-0.3-0.5-0.5c-0.1,0-0.2,0-0.2,0
			l0.2,0.1c-0.4,0-0.9-0.2-1.3-0.4c-0.4-0.1-0.8-0.2-0.8,0.1c0.2,0,0.6,0.1,0.9,0L63.9,29.1z"/>
		<path fill="#EC1C24" d="M72.3,32C72.3,32,72.3,32,72.3,32C72.3,32,72.3,32,72.3,32z"/>
		<path fill="#EC1C24" d="M78,37.5l-0.4,0.3c-1.3-0.6-1.7-1-2.8-1.6c-0.1-0.1,0.1-0.1,0.2,0c-0.8-0.4-1.9-1.1-2.5-1.3
			c-0.2-0.1-0.8-0.6-0.5-0.6c-0.1,0-0.3-0.1-0.4-0.2c0-0.2,0.3,0.1,0.4,0C71.7,34,71.7,34,71.7,34c0.2,0,0.1-0.6,0.9-0.1
			c0.1,0.5-0.6-0.3-0.6,0.2c0.3,0.2,0.3,0,0.4,0c0.4,0.2,0.3,0.3,0.2,0.4c0.2,0,0.6,0.4,0.8,0.3c0.7,0.4-0.2,0.2,0.3,0.5l0.5-0.2
			l0.7,0.5c1.2,0.5,0.2-0.7,1.6-0.2c-0.3,0.1,0,0.7,0.6,1.1c-0.4-0.2-1.1-0.3-1.5-0.7c0.5,0.6-0.9-0.5-0.7,0c0.4,0,0.9,0.3,1.3,0.6
			l-0.2,0c0.4,0.3,1,0.1,1.5,0.6c0.3,0.2,0.2,0.2,0.1,0.3C77.7,37.3,78,37.4,78,37.5z M77.3,37.2l-0.4-0.3
			C77,37,77.1,37.1,77.3,37.2z"/>
		<path fill="#EC1C24" d="M127.9,44.4l0,0.1C128,44.5,127.9,44.5,127.9,44.4z"/>
		<path fill="#EC1C24" d="M94,30.3l0.2-0.1C94.2,30.2,94.1,30.2,94,30.3z"/>
		<path fill="#EC1C24" d="M99,26.5l0.2-0.1l0,0l0,0l0,0h0l0,0l-0.2,0.1l0,0l0,0l0,0l0,0l0,0l0,0l0,0l0,0c0,0,0.1,0,0.1-0.1l-0.1,0.1
			c0,0,0,0-0.1,0l0,0l0,0l0,0l0.2-0.1l0,0l0,0l0,0l0,0l0,0l0,0l0,0C99.1,26.4,99,26.4,99,26.5z"/>
		<path fill="#EC1C24" d="M126.9,41.3L126.9,41.3C126.8,41.3,126.8,41.3,126.9,41.3L126.9,41.3z"/>
		<path fill="#EC1C24" d="M112.6,26.1c0.1,0.1,0.1,0.1,0.2,0.2C112.8,26.2,112.7,26.1,112.6,26.1z"/>
		<polygon fill="#EC1C24" points="98.9,26.5 98.9,26.5 99,26.5 		"/>
		<path fill="#EC1C24" d="M91.1,30.4c0,0-0.1,0.1-0.1,0.1C91,30.4,91.1,30.4,91.1,30.4z"/>
		<path fill="#EC1C24" d="M92,31.3c0,0-0.1,0.1-0.1,0.1L92,31.3z"/>
		<path fill="#EC1C24" d="M84.3,33.5l-0.2,0.1C84.2,33.5,84.3,33.5,84.3,33.5z"/>
		<path fill="#EC1C24" d="M91,31.4C91,31.5,91,31.5,91,31.4C91,31.5,91,31.5,91,31.4z"/>
		<polygon fill="#EC1C24" points="127.4,47 127.4,47 127.4,47 		"/>
		<path fill="#EC1C24" d="M128.2,47.7l0.1,0.3C128.3,47.9,128.3,47.8,128.2,47.7z"/>
		<path fill="#EC1C24" d="M117.7,29.1c0.1,0.1,0.2,0.3,0.1,0.3C118,29.4,118.1,29.3,117.7,29.1z"/>
		<path fill="#EC1C24" d="M124.5,46.1c0.1,0,0.1,0.1,0.2,0.1C124.5,46.1,124.5,46,124.5,46.1z"/>
		<path fill="#EC1C24" d="M124.6,46.2c0,0.1,0.1,0.1,0.1,0.2C124.7,46.3,124.7,46.3,124.6,46.2z"/>
		<path fill="#EC1C24" d="M113.9,30.9C113.9,30.8,113.9,30.8,113.9,30.9C113.8,30.8,113.9,30.9,113.9,30.9z"/>
		<path fill="#EC1C24" d="M128.3,48.3c0.1,0,0.6,1.3,0.4,0.2c0.3,0,0.3,0.7,0.5,1c0-0.2,0.2,0.1,0.3,0c-0.1-0.2-0.2-0.3-0.2-0.6
			c0.1-0.1,0.3,0.2,0.3,0.5c0.1-0.4,0.3,0.4,0.3-0.1c-0.4-1.1-0.7-1.9-1.3-2.5c0.2,0.6,0.5,1.3,0.5,1.8l-0.3-0.2
			c0.1-0.6-0.2-1-0.3-1.5l0.2,1.3c-0.1,0.7-0.2,0.3-0.4-0.2C128.4,48.1,128.4,48.2,128.3,48.3z"/>
		<path fill="#EC1C24" d="M125.9,48L125.9,48C125.9,48,125.9,48.1,125.9,48L125.9,48z"/>
		<path fill="#EC1C24" d="M84.6,38.8l-0.1,0.1C84.6,38.9,84.6,38.9,84.6,38.8z"/>
		<path fill="#EC1C24" d="M126.9,46.9L126.9,46.9C126.9,46.9,126.9,46.9,126.9,46.9z"/>
		<path fill="#EC1C24" d="M88,38.3C88,38.3,88,38.3,88,38.3C88,38.3,88,38.3,88,38.3z"/>
		<path fill="#EC1C24" d="M86.8,32.6C86.8,32.6,86.8,32.6,86.8,32.6C86.7,32.6,86.7,32.6,86.8,32.6z"/>
		<path fill="#EC1C24" d="M88,38.2C88,38.2,88,38.3,88,38.2C88,38.3,88,38.2,88,38.2z"/>
		<path fill="#EC1C24" d="M99.9,31.4c0,0-0.1,0-0.1,0C99.8,31.4,99.8,31.4,99.9,31.4z"/>
		<path fill="#EC1C24" d="M97.4,32.2C97.4,32.2,97.4,32.2,97.4,32.2L97.4,32.2z"/>
		<path fill="#EC1C24" d="M117.7,27.7c-0.1-0.1-0.2-0.1-0.3-0.2C117.5,27.6,117.6,27.6,117.7,27.7z"/>
		<path fill="#EC1C24" d="M88,38.3c0,0-0.1,0.1-0.1,0.1C87.9,38.4,87.9,38.3,88,38.3z"/>
		<polygon fill="#EC1C24" points="103.1,28.7 103.1,28.8 103.1,28.8 		"/>
		<path fill="#EC1C24" d="M104.5,28.6c0,0-0.1,0.1-0.1,0.1c0.5-0.2,1.3-0.2,1.4-0.5c-0.2,0-1,0-0.9-0.2c-0.3,0.1-0.9,0-1,0.1
			c0.6,0,0.1,0.2-0.2,0.4c-0.4,0,0-0.2-0.3-0.2c-0.3,0.1-0.5,0.2-0.8,0.3c0.2-0.1,0.5-0.1,0.7-0.2l-0.1,0.3l0.1,0
			C104.3,28.3,103.4,29.1,104.5,28.6z"/>
		<path fill="#EC1C24" d="M104.4,28.7c-0.1,0-0.1,0.1-0.2,0.1C104.4,28.8,104.4,28.8,104.4,28.7z"/>
		<path fill="#EC1C24" d="M109.1,28.9c0.1,0,0.1,0,0.2,0C109.3,28.8,109.2,28.8,109.1,28.9z"/>
		<path fill="#EC1C24" d="M76,33.6c0,0.1,0.5,0.6,0.6,0.4L76,33.6L76,33.6z"/>
		<path fill="#EC1C24" d="M120.7,33.8c0-0.1-0.1-0.1-0.2-0.2c0,0,0,0-0.1,0C120.5,33.7,120.6,33.8,120.7,33.8z"/>
		<path fill="#EC1C24" d="M105.1,27.9c-0.1,0.1-0.2,0.1-0.2,0.1C105,28,105.1,28,105.1,27.9z"/>
		<path fill="#EC1C24" d="M120.3,34.1c0,0.1,0,0.3,0,0.4c0.1,0.2,0.3,0.2,0.5,0.3C120.6,34.7,120.5,34.5,120.3,34.1z"/>
		<path fill="#EC1C24" d="M120.8,34.8L120.8,34.8C120.8,34.8,120.8,34.8,120.8,34.8z"/>
		<path fill="#EC1C24" d="M75.6,33.3l-0.2-0.1L75.6,33.3L75.2,33c-0.1,0-0.1,0-0.2-0.1c0,0,0.1,0,0.1,0L75,32.8
			c-0.4,0-1.3-0.3-1.6-0.4c-0.4-0.1-0.8-0.3-1-0.4c0.2,0.1,0.5,0.3,0.5,0.1c-0.4-0.4-0.4-0.8-1.4-1l0.5,0.3l-1.3-0.2
			c-0.3-0.4,0.6,0.1,0.8,0c-0.9-0.3-1.3-1.2-1.8-1c0.1-0.2,0.2-0.6-0.4-0.9c0.2,0.5-0.4,0-0.2,0.4c-0.2,0-0.5-0.4-0.7-0.3l0.1-0.1
			c-0.7-0.8-1.3-0.5-1.8-0.5c-0.6-0.3-1-0.5-1.4-0.8l0.1,0.1c-0.3-0.1-0.6-0.3-1-0.4c0-0.2-0.1-0.7-0.5-0.7
			c-0.2,0.2-1.1,0.1-1.2,0.4c0.6,0.2,0.6-0.2,1-0.1c0.3,0.4,0,0.3,0.4,0.6c-0.2-0.1-0.6-0.2-1-0.2c-0.4,0-0.8-0.1-1-0.2l0.1,0
			c-0.3-0.1-0.5-0.3-0.7-0.4c-0.2-0.1-0.6-0.2-1.1,0.1c-0.2,0.1-0.3,0.2-0.5,0.3c0,0,0-0.1,0-0.1c-0.4,0.1-0.6,0-0.8,0
			c-0.2,0-0.4,0-0.8,0.3c0.1,0,0-0.1,0.1-0.1c-0.6,0-1,0.6-1.3,0.8c-0.3-0.1-0.1-0.2,0-0.4c-0.9,0.4-1.6,1.3-1.8,1.9
			c-0.2,0.1-0.4,0.2-0.6,0.3c0.2-0.3,0.4-0.8,0.2-0.8c-0.2,0.3-0.1,0.3-0.5,0.6c0-0.2,0-0.4,0.1-0.7c-1,0.5,0.2,0.5-0.7,0.7
			c-0.2,0.2-0.2,0.5-0.1,0.7c-0.2,0.1-0.4,0.2-0.6,0.2c0.1,0.2-0.4,0.7-0.7,1.1c0,0.1,0.4-0.1,0.5-0.3c0.1,0.1-0.2,0.6-0.4,0.8
			c-0.2-0.1-0.5,0.3-0.8,0.7s-0.5,0.7-0.6,0.4c-0.8,1.2-1.8,3-2.1,3.9c-0.3,0.2-0.6,0.8-0.6,0.3c-0.6,1-0.4,1.8-1,2.8
			c-0.1,0.1,0.2-0.5,0.1-0.5c-0.2,0.8-0.8,1.2-1.1,2.3c0.1-0.2,0-0.3,0-0.3c0.1,0,0,0.5-0.1,0.8c-0.1,0.1,0-0.2-0.1-0.2
			c-1.1,2-1.1,3.9-1.8,6c0.2-0.6,0-0.9-0.1-1l-0.2,0.6c0.1,0.3-0.1,0.7-0.1,1.1c-0.1,0-0.2,0.2-0.2,0c-0.7,1.1,0,2-0.6,3.4
			c-0.1-0.6-0.1-1.3-0.1-1.9l-0.3,0.4l0-0.9c-0.3,0.4,0,0.9-0.3,0.9c0-0.1,0.1-0.4-0.1-0.4c-0.2,0.4-0.1,0.5-0.1,0.9
			c-0.2-1,0.3-2.8,0.5-3.8c0-0.2,0.1,0.2,0.1,0.2c0.1-0.4,0.3-0.6,0.4-1.1c-0.1-0.4-0.2,0.2-0.3,0.4c-0.2-0.1-0.1-0.2,0-0.5
			c0.2,0,0.6-1.4,1-1.7c0.5-1.4-0.7,0,0-1.3l0.4-0.3c0.1-0.9,0.4-2,0.8-2.8l-0.1,0.2c0,0.2,0.2,0,0.3-0.1c0.4-0.6,0.4-1.3,0.8-1.6
			c0.1-0.9,0.6-2.2,0.9-3.1c0.4-0.1-0.4,1.2-0.3,1.7l0.4-0.8c-0.3,0.5-0.2,0.7-0.2,1.1c0.4-0.6,0.3-1,0.5-1.7c0.1,0.1,0.2,0,0.3-0.3
			l-0.2-0.2c0,0,0.1,0,0.1-0.1c0.2-0.4,0.4-0.8,0.6-1.2c-0.2,0.2-0.4,0.1-0.6,0.4c0.2,0,0.1,0.2-0.1,0.5c0-0.3-0.3,0.2-0.4,0.1
			c0.3-0.6,0.8-1.3,1-1.7h0.3c0.4-0.5,0.7-1.1,1-1.5l0,0.2c0.5-0.6,0.9-1.3,1.5-1.7c0.3-0.7,0.7-1.5,1-2.1c0-0.2,0.5-0.5,1-0.9
			c0.5-0.3,1.1-0.7,1.3-1.1c0.1,0-0.4,0.5-0.5,0.8c0.5-0.3,0.6-0.8,0.9-0.7c-1.1,0.6,0.2,0.2-0.2,0.5c0.5-0.3,1-0.7,1.2-0.9
			C54.9,27,55.8,26,55,26.6c0.5-0.6,1.4-1.2,2.3-1.5c0,0.1,0.2,0.1,0.5,0.1l0.2-0.3c0.4-0.1-0.7,0.5,0.1,0.3
			c0.4-0.3,1.1-0.4,1.7-0.5c0.6-0.1,1.2-0.1,1.4-0.4c0.4,0.1,0,0.2-0.3,0.3c-0.3,0.1-0.5,0.2,0,0.3c-0.6,0.2-1.4,0.1-1.6,0.5
			c0.6-0.2,0.3,0.2,0.6,0.1c0.2-0.1,0.4-0.2,0.6-0.3l-0.1,0c0.5-0.2,1.2-0.3,2-0.2c0.7,0,1.5,0.2,2.2,0.3c0.7,0,1.3,0,1.9,0.1
			l-0.5-0.1l0.8,0.2c0.4,0.1,0.8,0.3,1.2,0.5c-0.4,0,0.8,0.7,0,0.5c0.4,0.4,1,0.5,1.1,0.4c-0.4-0.3-0.1-0.1-0.5-0.4
			c0.3,0,0.9,0.3,1.1,0.6c-0.1-0.1-0.1,0-0.1,0c0.5,0.4,0.3,0,0.7,0.2c0,0.3,0.8,0.5,1.1,0.8l0.6,0c-0.4,0,0.4,0.3,0.4,0.5
			c0.4,0.1,0.9,0,1.4,0.4c-0.3,0,0.4,0.4,0.3,0.6c0.8,0.7,1.8,0.4,2.5,1.1c-0.1,0-0.3,0-0.1,0.2c0.2,0.1,0.6,0.3,0.8,0.4h0h0
			c0.1,0.1,0.2,0.1,0.2,0c0.5,0,0.8,0,1.6,0.2c0.1-0.2-0.6-0.5-0.9-0.6L78,31.1c0-0.4-0.7-0.3-0.8-0.5c0.6-0.1,1.8,0.7,2.7,0.9
			c-0.3-0.6-1.3-1.2-2.2-1.6l0.3,0.3l-0.5-0.3l0.3,0.5c-0.4-0.3-0.8-0.4-1.2-0.7c0.5,0.3,0.5,0.6,0.2,0.5c-0.4-0.5-0.6-0.2-1-0.4
			c0.2,0.1,0.5,0.3,0.2,0.3c-0.6-0.7-0.9-0.6-1.5-1.3c-0.1,0.4-0.9-0.5-1.2-0.2l0.3,0.2l-0.8-0.2c-0.5-0.7,0.7,0-0.1-0.7
			c-0.9-0.5-1.1-0.2-1.8-0.5c0.3-0.1,1,0.1,1.6,0.4l-0.3-0.3c0.2,0,1,0.5,1.4,0.7c-0.8-0.1,0.3,0.2,0.4,0.6c0.2-0.2-0.3-0.4,0.3-0.2
			c-0.5-0.3-0.5-0.3-1.1-0.7c1.2,0.8,1.5,0,2.5,0.8c-0.6-0.2,0,0.4,0,0.5c0.3,0.1,0.8,0.3,1,0.4l0-0.4c0.7,0.2,0.6,1,1.5,1.1
			c0.2-0.1-0.6-0.4-0.5-0.4c1.1,0.4,1.2,1.1,2,1.8c0.1-0.1,0.2-0.2,0.6-0.2c-0.2,0.1,0,0.3-0.4,0.3c0.3,0.2,0.7,0.3,1,0.4
			c-0.6-0.5,0.4-0.1,0.6-0.1c0.3,0.2-0.2,0.1-0.4,0c0.1,0.1,0.2,0.3,0.3,0.4c0.1,0.1,0.1,0.1,0.2,0.1c0,0,0.1,0,0.1,0h0h0
			c0,0,0.1,0.1,0.1,0l0,0l0,0h0l0,0l0,0c-2.9,4.8-0.8,1.3-1.5,2.4h0l0,0l0.2-0.3l0.4-0.7l0.4-0.7l-0.4,0.7l-0.4,0.7l-0.1,0.1l0,0.1
			l0,0l0,0c-1.3,2.1,1.8-2.9,1.4-2.4l0,0h0c-0.2-0.1,0,0-0.1,0l0,0l0,0l0,0l0,0h0c0,0,0,0-0.1,0c-0.1,0-0.2,0-0.4,0
			c-0.3,0-0.7-0.1-0.9-0.2l0.3,0.2c-0.3,0-0.3-0.1-0.6-0.3c0.2,0.3,0.1,0.5,0,0.5c0,0,0,0,0-0.1c-0.2-0.2-0.5-0.3-0.5-0.1
			c-0.4,0.1,0.3,0.4,0.4,0.6l0.4,0.2l0.9,0c0.1-0.1,0.3-0.2,0.5-0.2c0.4,0,0.5,0.3,0.8,0.5l0.1-0.2c0.4,0.1,0.7,0.2,0.5,0.5
			c0-0.1-0.1-0.1-0.1-0.1c0,0,0,0.1-0.1,0.1l0,0c0.4,0,0.7-0.1,0.8-0.1c-0.4,0.2-0.4,0.3-0.3,0.4c0.1,0.1,0.2,0.3,0.1,0.5
			c0.3,0,0.6-0.1,0.8-0.2c-0.5-0.1,0-0.2,0.1-0.3c0.1,0.2,0.7-0.1,1-0.1l0,0.1c0.3,0,0.8-0.1,1.1-0.3c0-0.1,0.2-0.6,0.3-0.9
			c-0.6,0.1-0.3-0.1-0.4-0.2c0.1,0,0.2,0,0.2-0.1c0-0.1-0.1,0-0.2-0.1c-0.5,0.3-1,0.5-1.2,0.9c0.2,0.1,0.3-0.2,0.5-0.2
			c-0.2,0.3-0.6,0.3-1.1,0.4l-0.2-0.2c-0.2,0-0.3,0.1-0.5,0.1c0.2-0.1,0.1-0.3,0.5-0.4c-0.1-0.2-0.5,0.1-0.7,0L84,33.4
			c0.1-0.1-0.5-0.2-0.1-0.4c0.2-0.1,0.4-0.1,0.7-0.2c-0.1-0.1-0.1-0.1-0.2-0.2c0.2,0,0.4-0.1,0.5-0.1l-0.1,0.2
			c0.4-0.1,0.5,0,0.6,0.1c0.1,0.1,0.2,0.2,0.6-0.1c0.2-0.4,0.5-0.5,1.1-0.7c-0.4,0.3,0,0.2,0,0.5c0.5-0.1,0.5-0.4,0.7-0.6
			c0.2,0.1,0.3,0.2-0.1,0.4c0.1,0.2,0.2,0.1,0.3,0c0.1-0.1,0.4-0.2,0.5-0.1c1.7-0.9,0.8-1.8,3.1-2.4l0,0.2c1.2-0.8,2-1,3.2-1.7
			l1.1-0.1c-0.2,0.1-0.6,0.7-0.3,0.7c-0.6-0.1-1.1,0.2-1.6,0.3c0,0.1,0.2,0.1,0.3,0.1c-0.3,0.1-0.5,0.1-0.9,0.3
			c0.1,0.1,0.5-0.1,0.2,0.1l-0.6,0.1c-0.7,0.5-0.1,0.7-1,1c0.1-0.3,0.2-0.7,0.6-0.9c-0.4,0.1,0.5-0.4,0-0.3c-0.4,0.6-0.8,0.5-1.4,1
			c0.1-0.1,0.1-0.1,0.2-0.3l-1.1,0.4c0.3,0-0.8,0.6-0.6,0.8c1.2-0.5,0.8-0.5,2.1-1c-0.3,0.2-0.7,0.7-0.8,1.1c0,0,0,0-0.1,0
			c-0.1,0.3,0.2,0.3,0.4,0.7c0.4-0.6,0.9-0.6,1.6-1.1c0-0.3-0.5-0.1-0.9,0.1l0.5-0.5L92.5,31l1.6-0.7c-0.3,0.2-0.3,0.3-0.4,0.5
			c0.2-0.1,0.4-0.1,0.7-0.2c-0.2-0.2-0.2-0.4,0-0.5c1-0.4,1.7-0.5,2.2-0.4l0.1-0.1c-0.3-0.1,0.5-0.7,0.7-1.1
			c0.1,0.2,0.6-0.1,0.9-0.1c0-0.3-0.3-0.6-0.8-0.7c-0.6,0.6-0.3,0.4-0.4,0.9l-1,0.7l0.1-0.3c-0.6,0.2-1,0.7-1.1,0.4
			c0.2-0.3,0.7-0.4,0.9-0.8l-0.4,0.1c0.5-0.6,0.4,0.1,1.1-0.4c-0.4-0.1,0.1,0,0.3-0.4c-0.3,0-1.3,0.7-1.3,0.2
			c0.3-0.4,1.6-0.2,1.9-0.8l0,0.1c0.8-0.3,1-0.7,1.2-0.9c0.1,0,0.2,0,0.3-0.1c-0.3,0.1,0.1,0,0.1,0l0.2-0.1c0.3-0.2,0.5-0.3,0.7-0.4
			l0,0.1c0.2-0.1,0.4-0.2,0.6-0.3c-0.2,0.3-0.7,0.3-1.3,0.5l0.2,0.2c-0.1,0-0.2,0-0.3,0c-0.1,0-0.1,0-0.3,0.1l0,0l0,0l0,0l0,0l0,0
			c0.3-0.1,0.1,0,0.1-0.1l0,0l0,0l0,0c0,0-0.1,0-0.1,0.1c0,0-0.1,0.1-0.1,0.1c-0.2,0.2-0.3,0.4-0.4,0.6c0.1-0.1,0.3-0.2,0.5-0.3
			l0.3-0.1l0.1,0l0,0h0c0.1-0.1-0.2,0.1-0.1,0.1l0,0l0,0l0,0h0l0,0l0.2-0.1c0.4-0.2,0.8-0.4,0.8-0.6l0.5,0.1l0.2-0.2
			c0.4,0.1,0.1,0.4-0.4,0.7c-0.1,0-0.2,0-0.2-0.1c-0.1,0.1-0.2,0.2-0.4,0.4c-0.1,0.1-0.2,0.1-0.3,0.2c0,0-0.3,0.1-0.1,0.1
			c-0.1,0-0.1,0.1-0.2,0.1l0.1-0.1l0.1-0.1l0,0l0,0h0l-0.1,0.1l0,0l0,0l0,0l0,0l0,0l0,0c0,0,0,0,0,0c0,0,0,0,0,0l-0.1,0h0h0
			c0.1,0-0.1,0.1,0.1,0l0,0h0h0l0,0l0,0l-0.1,0.1l-0.3,0.1c-0.2,0.1-0.3,0.2-0.4,0.3c-0.3,0.2-0.5,0.3-0.5,0.5
			c0.5-0.2,1.1-0.4,1.6-0.6l0.4-0.2l0.4-0.2c0.3-0.1,0.6-0.2,0.8-0.3c0.2-0.6,0.5-1,0.5-1.6c0.8-0.3,1.9-0.6,2.6-0.6l-0.1,0.1
			c0.4,0,0.7-0.1,0.9-0.2c0.4,0.1-0.2,0.3,0,0.3c0.4-0.1,0.8-0.2,1.2-0.3c-0.1,0.2-1,0.3-1.5,0.4c0.1,0,0.3-0.1,0.2-0.1
			c-0.6,0-1.5,0.5-1.8,0.3c-0.3,0.1,0.5-0.4-0.4-0.2c-0.6,0-0.7,0.4-0.8,0.5c0,0.1,1-0.1,0.7,0.2c0.4-0.1,0.6-0.3,1.2-0.3
			c-0.5,0.1-1,0.5-1.3,0.3c-0.8,0.5-0.5,1-0.1,0.9c-0.2-0.2,1.5-0.6,0.3-0.6c0.5-0.4,1.4-0.6,2.1-0.8l0,0c0.3-0.1,0.6-0.1,0.9-0.2
			c-0.1,0.1-0.4,0.2-0.4,0.3c0.4-0.2,0.8-0.3,1.2-0.4c-0.7,0.3,0.4,0.1,0.7,0.2c0.1-0.2,0.6-0.3,0.1-0.5c-0.5-0.1-0.3,0.1-0.8,0.1
			c0.2-0.1,0.4-0.2,0.7-0.3l0.1,0l0.4-0.3c0.9,0-0.4,0.6,0.8,0.4l-0.1-0.4c0.7,0.1,1.5,0.2,2.2,0.4c0.7,0.2,1.4,0.4,1.9,0.5
			c-0.3,0.1-0.5,0.4-0.2,0.7c-0.4-0.2-1.2-0.3-1.8-0.4c-0.1-0.1,0.8-0.3,1.4-0.1c-0.1-0.3-0.5-0.3-0.9-0.3c-0.4,0-0.7,0.1-0.7-0.2
			c-0.8-0.2-1.1-0.1-1.4,0c-0.3,0.1-0.5,0.2-1.2,0c0,0.3-0.4,0.1-0.5,0.4c0.2,0.2,0.6,0.2,1.2,0.2c0.5,0,1.1,0,1.5,0.1
			c-0.1,0-0.3,0-0.3,0.1c0.6,0.1,0.9,0.1,1.3,0.1l0,0c0.8-0.1,0.4,0.3,0.8,0.5c0.2,0,0.8,0.2,0.7,0c0.2,0.2,0.5,0.3,0.7,0.5l0.1-0.3
			c0.4,0.1,0.5,0.3,0.9,0.3l0.1-0.2c-0.3-0.2-0.7-0.3-1.1-0.5c0.6,0.1,0.2-0.2,0.9,0c-0.8,0,0.4,0.3,0.4,0.6l0.5,0l-0.1,0
			c0.3,0.3,0.4,0.1,0.8,0.3c-0.4-0.3-0.6-0.7-1.3-0.7c0.5,0,1.5,0.3,1.7,0.4c0.5,0.1,0.7,0.5,1.1,0.7c-0.4-0.2-0.4,0-0.6,0.2
			c-0.1,0.1-0.3,0.1-1-0.3c0.1,0,0.2,0,0.2,0.1c-0.1-0.4-1-0.5-1.4-0.5c0,0.2-0.4,0.1,0.2,0.5c-0.2-0.2,0.7-0.2,1.2,0.3l-0.3,0.3
			c0.3,0.2,0.5,0.3,0.8,0.5l-0.1,0c0.2,0.4,0.9,0.4,1.3,0.9c0.2,0.1,0.7,0.4,1,0.6c0.3,0.2,0.6,0.3,0.4-0.1c0.3,0.6,0.9,0.6,1.3,1
			c-0.1-0.2-0.3-0.4-0.5-0.7c0.9,0.4,0.5,0.4,1.4,0.6c0,0.1,0,0.3-0.2,0.3c0.9,0.9,1.8,2.3,2.5,2.7c0.5,0.7,0.2,1.1,0.9,2
			c0.2,0.2,0.2-0.4,0.5,0.4c0,0.1-0.6-0.5-0.2,0.2c0.6,0.4,0.5,1.4,1.1,1.9c0.1,0.4,0.4,1.1,0.1,1c-0.2-0.6-0.7-1.4-0.9-1.5
			c0.2,0-0.1-0.5,0.2-0.1c-0.3-1-0.4-0.5-0.8-1.4c-0.1,0,0,0.5,0.2,0.7c-0.3,0.2-1-1.5-1-0.6c0.4,0.8,1.2,0.8,1.3,1.7
			c-0.3-0.2-0.4-0.7-0.9-0.9l0.2,0.7l0.4,0.3l-0.1,0c0.2,1.2,0.8,0.8,1.4,1.7c0-0.7,0.6-0.1,0.5-0.6c0.3,0.6,0.5,1.2,0.2,1.3
			c-0.8-1.1-0.4,0.1-1.2-0.9c0,0.2-0.6-0.1-0.3,0.6c0.5,0.7,0.2-0.3,0.6,0.4c0,0.1,0,0.1-0.1,0.1c0.3,0.3,0.1,0.4,0.5,0.8l-0.1-0.1
			c0,0.6,0.4,0.5,0.4,1c0.2-0.3,0.3,0.2,0.5,0.5c-0.1-0.5,0.2-0.9-0.2-1.8c-0.2,0-0.3,0.1-0.5-0.3l0.3,0.6c-0.1-0.1-0.2-0.2-0.2-0.3
			l-0.1-0.6c0.4,0.7,0.5,0.3,0.8,0.5c0.2,0.7,0.3,0.5,0.4,1c-0.3,0.1,0,1.5,0.1,2.3c0-0.1-0.1-0.3-0.1-0.4c-0.4-0.5-0.1,0.5-0.2,0.5
			l0.3,0.4c0-0.1-0.1-0.2-0.1,0c0.2,0.5,0.5,0.4,0.7,0.9c-0.1,0.1-0.5-0.3-0.5,0.1c-0.1,0.2-0.3,0.6,0,1.3c0.1,0,0.2,0.2,0.2,0.4
			c0,0,0-0.1,0-0.1l0,0.5c-0.4-0.3-0.1-0.9-0.5-1.2l-0.3,0c-0.1-0.3-0.3-0.7-0.5-0.9c0.1,0.5,0.2,0.6,0.4,1.1
			c-0.1,0.1-0.4-0.2-0.4-0.3l0.2,0c0-0.7-0.5-0.9-0.7-1.7c0-0.1,0-0.1,0.1,0c-0.4-0.6-0.3-1.3-0.9-1.8l0.2,0.1
			c-0.3-0.4-0.8-1.1-1.3-1.8l-0.1,0c0,0.1-0.1-0.2-0.2-0.4l0,0l-0.8-0.9c0,0.1,0,0.3,0,0.4c0.2,0.1,0.4,0.8,0.6,0.6
			c0,0.4,0.4,0.8,0.4,1.1c0-0.5,0.4,0.2,0.5,0.3c-0.1,0.2,0.3,0.7,0,0.7c0,0.1,0.1-0.3-0.1-0.4c-0.4-0.4,0.1,0.9-0.3,0.4
			c0.4,0.7,0.7,1.7,1.1,2.4l0-0.5c0.1,0.4,0.4,1.2,0.3,1.3c-0.1-0.3-0.2-0.6-0.3-0.9c-0.3,0.1,0.2,0.8,0.1,0.9l0.7,0.9l-0.1-0.4
			c0.2,0.2,0.3,1.2,0.4,1.9c-0.4-0.3-0.3-1-0.6-1.7c-0.3-0.5-0.2,0.4-0.5-0.1c0,0.1,0.1,0.5,0.2,0.6l0,0.2c-0.4-0.4-0.6-1.3-1.1-1.9
			c0,0,0.1,0.1,0.1,0.1c0-0.5-0.2-1-0.4-1.4c0,0.3,0.1,0.3,0.2,0.5c-0.1,0-0.2-0.4-0.4-0.5c0.1,0.5-0.1,0.1-0.1,0.4
			c-0.2-0.3-0.2-0.5-0.3-0.8c0-0.2,0.2,0.1,0.3,0c-0.2-0.3,0.1-0.6-0.3-1c0.2,0.7-0.4-0.1-0.6-0.2l0,0.1c-0.3-0.1-0.3-0.3-0.2-0.5
			c0.2,0.2,0.2,0.5,0.4,0.4c-0.1-0.2-0.2-0.4-0.3-0.5l0.2,0.1l-0.4-0.9c-0.2-0.1-0.5-0.2-0.8-0.2c0-0.3-0.2-0.5-0.3-0.7l0.1,0.1
			c0-0.4-0.6-1.2-0.7-1.2c0-0.3,1.8,1.5,0.7-0.4c-0.4-0.7-0.7-0.2-1-0.5c0,0,0.1,0,0.1-0.1c-0.1-0.3-0.3-0.3-0.5-0.5
			c0,0.2,0.2,0.5,0.3,0.5c-0.2,0-0.3-0.6-0.6-0.8c0.4,0.1-0.2-0.6,0-0.5c-0.2-0.7-0.8-1.1-1.2-1.3c0-0.6-0.5-0.6-0.8-1.2
			c0.1,0.1,0.2,0.2,0.3,0.3c0.5,0.2-0.4-0.7,0.2-0.3c-0.1-0.1-0.1,0.1,0,0.2c0.2,0.2,0.4,0.3,0.5,0.2l-0.2-0.6l0.2,0.1
			c-0.1-0.3-0.3-0.6-0.4-0.9c-0.1,0,0,0.1,0,0.2c-0.6-0.9-1.6-1.6-2.4-2.2c-0.3,0.2-0.8,0-1.3-0.3c-0.5-0.3-1.2-0.6-1.6-0.5
			c0.3-0.1,0.5-0.4,0.5-0.5c0.2,0,0.6-0.1,0.9,0.2c0,0.1,0.3,0.5,0,0.4c0.9,0.5,0-0.3,0.4-0.4c-1.1-0.5-1.9-0.4-2.6-0.5l0-0.1
			c-0.2,0-0.4,0-0.6,0c0.4,0.2,0.3,0.5-0.2,0.2h0.1c-0.3-0.3-0.9-0.2-1.4-0.3l-0.4,0.2c-0.5-0.1-0.4-0.5-0.6-0.8
			c-0.8-0.1-1.3,0.2-1.8,0.4c-0.2-0.2-1.5-0.1-0.8-0.4c-0.4,0.1-0.5,0.4-0.7,0.6c-0.2,0.2-0.4,0.4-1.1,0.2l0.3-0.2
			c-0.6,0.1-1.3,0.4-1.8,0.6c-0.6,0.2-1.1,0.5-1.4,0.5c0.1-0.4-0.3-0.4-0.8-0.4c0,0-0.1,0-0.1,0l-0.1,0l0,0c0,0,0.1,0-0.1,0h0l0,0h0
			h0h0l-0.1,0c-0.1,0-0.3,0-0.4,0c-0.2,0-0.5,0-0.6-0.2c0.1,0.1-0.3,0.3-0.4,0.4c-0.1,0-0.3,0-0.4,0.2c0.5-0.1-0.1,0.7,0.7,0.1
			c-0.3,0.6-0.7,1.2-1.7,1.6L98.3,33l0.8-0.3c-0.2-0.1,0.3-0.3,0.4-0.5c-1.5,0.5-0.1-0.6-1.5,0.1c-0.1,0.2,0,0.1-0.4,0.4
			c0.2-0.1,0.1-0.3-0.2-0.1l-0.2,0.3c-0.7-0.1,0.7-0.7,0.2-0.7c0.5-0.5,1.4-1,1.1-1.2c-1,0.3-0.6,0.9-1.6,1.3l-0.2-0.1
			c-0.3,0.3-0.3,0.5-0.4,0.7c-0.1-0.1-0.2-0.1-0.4,0c-0.4,0.6-0.8,0.8-1.2,1.4c1.3-0.9,1.3-0.4,2.7-1.3c-0.2,0.2-1.2,0.8-1.1,1.1
			l-0.1-0.2c-0.4,0.3-0.8,0.7-1.5,0.9l0.3-0.3c-0.7,0.5-1.5,0.3-1.9,1c0.2-0.1,0.4-0.2,0.5-0.3c-0.4,0.3-0.9,0.5-1.3,0.7l-0.7,0.9
			c-0.1-0.1-0.6,0.2-0.4-0.1c-0.7,0.2-0.9,0.7-1.4,1c-0.5,0.1-0.3,0,0-0.2c0.3-0.2,0.6-0.4,0.6-0.6c-1.1,0.5-2.3,1-2.9,1.4
			c0.3,0,0.4,0,0.4,0.1c-0.1-0.1-0.5,0.1-0.8,0.2L87,38.6c-0.5,0-0.4-0.1-0.1-0.3c-0.4,0.1-0.9,0.5-1.4,0.3c0.7-0.3,1.7-0.3,2.1-0.6
			c-0.7,0.3-1.2,0.2-1.6,0.2c-0.5-0.1-1-0.1-2,0c0-0.1,0.3-0.2-0.1-0.2c-0.9,0-0.2,0.3-0.5,0.5c0.7-0.1,1,0,1.5,0.2l-0.2,0.1
			c0-0.1-0.5-0.1-0.6-0.1L83.9,39c0.1-0.3-0.7-0.6-1.2-0.5c0.6,0.3,0.4,0.3,0.5,0.6c-0.4,0.1-0.7,0-0.9-0.1c-0.2-0.1-0.5-0.2-1-0.2
			c0.1-0.1,0.9,0,0.2-0.2c-0.6-0.2-0.5,0.1-1,0.1c0.5-0.1,0.5-0.3,1-0.5c0.5,0.1,0.6,0.1,0.7,0.1c0.1,0,0.2,0,0.7,0
			c-0.3-0.1-0.5-0.2-0.8-0.3c0.8,0.1,0.6-0.2,0.7-0.3c-0.6-0.2-0.9-0.2-1.1-0.1c-0.2,0.1-0.4,0.2-0.8,0c-0.5,0,0.8,0.3,0.1,0.3
			c-0.4-0.1-0.5-0.1-0.5-0.1c-0.1,0-0.2,0.1-0.7-0.1l0.2,0c-0.1-0.1-0.3-0.2-0.4-0.2l-0.1,0c-0.1,0-0.1,0-0.2-0.1c0,0,0,0,0,0l0,0
			c0,0,0,0,0,0h0l0,0l0,0l0,0l0,0l0,0l-0.1,0c0,0-0.1,0-0.1,0c-0.3-0.1-0.1,0.9-1.2,0.3c0.1,0,0.1-0.1,0.1-0.1l1.1-0.6
			c0.4-0.2,0.7-0.4,1.1-0.6c-0.2-0.1-0.3-0.2-0.5-0.3l-0.4-0.3c-0.3-0.2-0.6-0.4-0.9-0.5c-0.6-0.4-1.2-0.8-1.8-1.2
			c-0.1-0.5,1.1,0.2,1.1,0l0.5,0.4c-0.1,0.1-1.2-0.6-0.9-0.1c1.1,0.5,1.5,0.9,2.6,1.2c-0.1-0.5-1.3-0.7-1.8-1.3
			c0.3,0.2,0.5,0.3,0.7,0.3L77,33.2h-0.2c0.4,0.3,0.7,0.5,0.8,0.6c-0.6-0.4-1.2-0.5-1.4-0.2l0.1,0.1l-0.3,0L75.6,33.3z M44.2,47.9
			c0,0,0-0.1-0.1-0.1C44.1,47.8,44.2,47.8,44.2,47.9z M88.3,34.8c-0.8,0.3-1.7,0.5-2.5,0.6c0.8,0.2,1.5,0.2,1.7,0.3
			c0.1,0.1,0.1,0.2-0.2,0.3c-0.2,0.1-0.6,0.3-1.3,0.4l-0.2,0.1c0.4,0,1-0.1,1.5-0.3c0.2-0.2,0.6-0.6,0.9-1c0.3-0.4,0.5-0.7,0.5-0.8
			c-0.2-0.1-0.3,0.2-0.6,0.2L88.3,34.8z M89.3,35.4c0.5-0.2,0.3-0.3,0.4-0.4c-0.2,0.1-0.3,0.2-0.5,0.3
			C89.3,35.3,89.4,35.4,89.3,35.4z M89.6,35c-0.1,0-0.1,0-0.1,0L89.6,35z M79.8,35.1L79.8,35.1L79.5,35C79.6,35,79.6,35.1,79.8,35.1
			z M80.6,35.9l0.2-0.2c-0.1-0.1-0.2-0.1-0.3-0.2C80.5,35.7,80.5,35.8,80.6,35.9z M84.1,37.3c0.2-0.3,1-0.3,1-0.6
			c0-0.1-0.1-0.1-0.3-0.1c-0.2,0-0.4,0-0.6,0c0,0-0.1,0.1-0.1,0.1c0.2,0,0.4,0.1,0.3,0.3c-0.6-0.4-0.5,0.3-1.2,0.1
			C82.9,37.4,83.9,37.4,84.1,37.3z M123.4,38.9c0,0,0,0.1-0.1,0.2l-0.3-0.3c-0.3-0.7-0.2-1.4-0.9-1.8c-0.1-0.3,0-0.6,0-0.8
			c0.1,0.1,0.1,0.3,0.2,0.4c0.7,0.7,0.7,1,0.7,1.2C123,38.1,122.9,38.3,123.4,38.9z M118.7,31.7c0.1,0,0.1,0,0.1,0
			c-1.6-0.7-2.9-1.3-3.6-1.7c0.1,0.3,0.6,0.8,0.9,1.1l-0.4,0l-0.1-0.3c-0.2,0-0.4-0.1-0.6-0.1c0.1,0.2,0.4,0.4,0.6,0.7
			c0,0,1,0.2,1.3,0.3c-0.2-0.2-0.3-0.4-0.5-0.6c0.1,0.2,1,0.7,1.4,1c0.1-0.1-0.3-0.7-0.6-0.5c0.1-0.2,0.7,0.3,0.4-0.2
			c0.6,0.2,1.3,1,1.5,1.4l-0.2,0.3c0.3,0.4,0.5,0,0.8,0.5c-0.5-0.5-0.2,0.3-0.6-0.1c0,0.2-0.2,0.2,0.2,0.6c0.6,0.1,0.2,0.6,0.8,0.7
			c0.1,0.3-0.4-0.1-0.1,0.4c0.6,0.4,0.7,0.3,1,0.1c-0.3-0.6-0.8-0.3-1-0.8c0.4,0.2,0.7,0.3,1.1,0.5c-0.1-0.2-0.1-0.3-0.2-0.4
			c0.2,0.1,0.3,0.2,0.5,0.3c0.1,0,0.2,0.1,0.3,0.1c-0.4-0.5-0.7-0.9-0.7-1.1l0.2,0c0-0.3-0.3-0.5-0.5-0.5c-0.4-0.4-0.9-0.7-0.9-0.9
			l0.2,0.1L118.7,31.7z M97.5,30.1c0.6,0.3,1.2,0.6,2.9-0.3l-0.1,0.1c0.1,0,0.2,0,0.4-0.1l0.1,0c0.1,0,0.1,0,0.1,0
			c0,0,0.1,0,0.2-0.1c0.2-0.1,0.4-0.2,0.6-0.4c0.4-0.3,0.9-0.5,1.5-0.5c-0.5,0.4-0.5,0.3-0.9,1c0.2-0.1,0.3-0.2,0.5-0.3
			c-0.1,0.3,0.4,0,0.9-0.1l-0.3,0.4c-0.3,0-0.9,0.1-0.9,0.2c0.1,0-0.2-0.1-0.5-0.1c-0.3,0-0.7,0.1-0.9,0.3c0.1,0.2,1.2-0.3,0.8,0.2
			c0.4-0.3,0.5-0.1,0.9-0.3c-0.4,0.3,0,0.3-0.3,0.6c0.2-0.1,0.5-0.2,0.7-0.3c0,0.1-1,0.5-0.3,0.6c0.2-0.2,1-0.3,1-0.5l0,0.1
			c0.6-0.1,0.2-0.4,0.9-0.4c0-0.1-0.2-0.2-0.4-0.1c-0.2,0.1-0.2,0.3-0.6,0.4c-0.2-0.1,0.5-0.1,0.1-0.4c-0.2-0.1-1.1,0.5-0.9,0
			c0.2,0,0.4-0.1,0.6-0.1c-0.1-0.3,0.4-0.3,0.3-0.5c0.3-0.2,0.7,0,1-0.3c0.1-0.2-0.2-0.5,0.4-0.4c0.3,0.1,0.7,0.2,1.2,0.1
			c0.5,0,1-0.1,1.2-0.1l0.5-0.2c0-0.2-0.9,0-0.6-0.2c0.2,0,0.5,0,0.7-0.1l-0.1,0.1c0.2,0,0.5-0.1,0.7-0.1c-0.2,0.2-0.8,0.1-0.7,0.3
			c0.3,0.1,0.4,0.2,0.7,0.1c-0.1,0-0.1,0-0.1,0.1c0.7,0.2,0.7-0.2,0.9-0.3c0.7-0.3-0.7-0.4-0.6-0.7c0.7,0,1.4,0.1,2.1,0.2
			c-0.2,0-0.4,0.1-0.3,0.2c0.5,0.2,0,0.2,0.7,0.4c0-0.4,0.9,0,1.5,0c0.2,0.2,0.2,0.3-0.3,0.1c0,0.2,0.7,0.4,0.9,0.5
			c0.2,0,0.4,0.1,0.6,0.1c-0.1-0.2,0-0.3,0.5-0.2l0,0c-0.6-0.4-1.7-1.1-2.2-1l0.2-0.1c-0.4-0.2-0.9-0.3-1.3-0.3c-0.4,0-0.8,0-1-0.3
			c0.1-0.2-0.2-0.1-0.1-0.3c-0.2,0-0.5,0.1-0.7,0.1l0.1-0.1c-0.4,0-0.8,0-1.1,0l0-0.1c-0.5,0.2-1,0.4-1.3,0.6c0,0.1,0,0.1-0.1,0.2
			c-0.2,0.1-0.3,0.1-0.4,0.1c0,0,0,0,0,0l0,0c-0.3,0-0.5-0.2-0.8-0.2c0.3,0,0.7-0.1,1-0.1c0.1-0.2,0-0.4-0.5-0.5
			c0.2,0,0.3-0.2,0-0.2c0,0-0.7,0.2-0.4,0.3c-0.5,0.1-1.1,0.1-1.9,0.1c-0.7,0.1-1.5,0.2-2.2,0.6c1-0.5-0.9,0,0.2-0.4
			c-0.9,0-0.6,0.5-1.4,0.8c-0.1-0.1,0.4-0.2,0.6-0.4c-0.4,0.1-0.7,0.2-0.9,0.4c-0.1,0.1-0.3,0.2-0.4,0.3h0c0,0,0.1,0,0,0h0l0,0l0,0
			l0,0l0,0l0,0l-0.1,0.1L99.9,29c-0.5,0.3-0.9,0.7-1.6,0.9l-0.2-0.2L97.5,30.1z M95.2,31.5l-0.7,0.4l0.1,0L94,32.4
			c0.5-0.1,0.9,0,0.3,0.4c0-0.1-0.2-0.1,0-0.3c-0.5,0.1-1.4,0.4-1,0.6c0.6-0.7,0.4,0.3,0.9-0.2c-0.2,0.4-0.6,0.4-0.8,0.7
			c0.2-0.3-0.3-0.4-0.8-0.2c-0.2,0.2-0.8,0.4-1,0.7c0.2,0.1,0,0.4,0.6,0.2c-0.2,0.2-0.5,0.4-0.9,0.4c0.1-0.1,0.4-0.3,0.3-0.3
			c-0.3-0.1-0.6,0.1-0.8,0.1l-0.3,0.2c0,0,0.1,0,0.1,0L90.2,35c0.5-0.4,0.3,0,0.3,0.1c-0.1-0.2-0.3,0.1-0.5,0.3l0.5,0
			c-0.1,0.2-0.7,0.2-0.5,0.4c0.9-0.3,1.1-0.5,1.8-1l-0.4,0c0.8-0.6,0.7,0.1,1.6-0.4c0.3-0.4,1.4-0.7,1.2-1.1c-0.1,0.2,0.7,0,1-0.3
			c0.2-0.5,1.3-1.1,0.9-1c-0.3,0.1-0.6,0.5-0.9,0.4l0.5-0.3l-0.5,0C95.5,31.9,95.4,31.7,95.2,31.5z M82.8,33.7L82.8,33.7
			C82.8,33.6,82.8,33.6,82.8,33.7L82.8,33.7z"/>
		<path fill="#EC1C24" d="M127.5,47.4c0.1,0.2,0.2,0.6,0.4,0.5C127.7,47.9,127.6,47,127.5,47.4z"/>
		<path fill="#EC1C24" d="M127.4,47.9c0.1,0,0.1,0,0.2,0.2l-0.2-0.5L127.4,47.9z"/>
		<path fill="#EC1C24" d="M126.2,48.8c0.2,0.2,0.3,0.4,0.4,0.8c-0.5,0.3-0.3-0.7-0.8-0.7c0.1,0.8,0.6,0.9,0.8,1.6
			C126.8,50.1,126.6,48.8,126.2,48.8z"/>
		<polygon fill="#EC1C24" points="125.5,48.6 125.7,49.1 125.7,49 125.5,48.6 		"/>
		<path fill="#EC1C24" d="M126.1,37.7c0.1-0.1-0.2-0.3-0.3-0.4C125.9,37.4,126,37.6,126.1,37.7z"/>
		<path fill="#EC1C24" d="M45.2,36.9c-0.5,1.1-1,2.2-1.5,3.4C44.1,39.3,44.5,38.4,45.2,36.9z"/>
		<path fill="#EC1C24" d="M117.1,28.8c1,0.4,1.5,0.5,2.4,1.1c-0.4-0.6-0.9-0.8-1.3-0.9c-0.4-0.2-0.8-0.3-1.3-0.7
			C117,28.5,117.1,28.6,117.1,28.8z"/>
		<path fill="#EC1C24" d="M118.1,27.9c0,0.3-0.9-0.2-0.9,0.1c0.7,0.3,0.4-0.1,1,0.3L118.1,27.9z"/>
		<polygon fill="#EC1C24" points="118.3,34.5 118,34.4 118.2,34.5 		"/>
		<path fill="#EC1C24" d="M113.5,26l0.1,0c-0.2-0.1-0.3-0.2-0.5-0.3L113.5,26z"/>
		<path fill="#EC1C24" d="M113.7,26l-0.1,0L113.7,26z"/>
		<polygon fill="#EC1C24" points="117.6,34.7 117.8,35 118.1,35.1 		"/>
		<path fill="#EC1C24" d="M116.1,31.3l0.3,0.1C116.4,31.4,116,31.1,116.1,31.3z"/>
		<polygon fill="#EC1C24" points="110.2,25.2 109.6,25.2 109.7,25.3 110.2,25.2 		"/>
		<path fill="#EC1C24" d="M113.3,30.8c0.1,0.3-0.6-0.2-0.3,0.2C113.5,31.1,113.3,30.9,113.3,30.8z"/>
		<path fill="#EC1C24" d="M108.6,28.2c-0.1,0-0.1,0-0.2,0C108.5,28.2,108.6,28.2,108.6,28.2z"/>
		<path fill="#EC1C24" d="M108.6,28.2c0.2,0,0.4,0.1,0.5,0.1C108.9,28.1,108.8,28.1,108.6,28.2z"/>
		<path fill="#EC1C24" d="M106.4,28.3h0.2c-0.2,0.1-0.1,0.1,0.1,0c0.2,0,0.2-0.1,0.2-0.1l0.1-0.1c-0.1,0-0.1,0.1-0.1,0.1
			C106.5,28.2,106.3,28.2,106.4,28.3z"/>
		<path fill="#EC1C24" d="M96.8,27.3c0.7-0.2,0.8-0.2,0.9-0.1c0.6-0.2,0.4-0.5,0.7-0.7C97.7,26.9,97.6,26.9,96.8,27.3z"/>
		<path fill="#EC1C24" d="M98.4,26.5l0.2-0.1C98.5,26.5,98.5,26.5,98.4,26.5z"/>
		<polygon fill="#EC1C24" points="108.9,30.2 108.5,30.5 108.7,30.4 		"/>
		<path fill="#EC1C24" d="M95.8,27.6c0.1,0,0.3-0.1,0.4-0.1C96.2,27.3,95.7,27.7,95.8,27.6z"/>
		<path fill="#EC1C24" d="M99.7,29.7c0.1,0.1,0.5-0.2,0.6-0.2C100.1,29.6,99.7,29.4,99.7,29.7z"/>
		<path fill="#EC1C24" d="M94.4,29.1c0.1,0,0.3,0,0.3,0.1C94.8,29.1,94.9,28.7,94.4,29.1z"/>
		<polygon fill="#EC1C24" points="98.5,30.2 98.6,30.2 99,29.9 		"/>
		<path fill="#EC1C24" d="M101.1,31.9c0.4-0.4-0.9-0.1-0.2-0.7c-1.1,0.3,0.2,0.2-0.6,0.5C100.8,31.7,101.1,31.8,101.1,31.9z"/>
		<path fill="#EC1C24" d="M100.3,31.8c-0.1,0-0.1,0-0.2,0.1C100.2,31.9,100.2,31.8,100.3,31.8z"/>
		<path fill="#EC1C24" d="M93.2,33.7c0.1-0.1,0.1-0.1,0.1-0.1C93.3,33.6,93.3,33.6,93.2,33.7z"/>
		<path fill="#EC1C24" d="M97.9,33.1l0.6-0.6c-0.4,0.4-1.5,0.9-1.3,1.2c0.4-0.1,0.8-0.4,0.9-0.6L97.9,33.1z"/>
		<path fill="#EC1C24" d="M87.5,31.9l0.2-0.2l-0.3,0.1C87.5,31.8,87.4,32.1,87.5,31.9z"/>
		<path fill="#EC1C24" d="M87.3,31.8L87.3,31.8C87.4,31.8,87.3,31.8,87.3,31.8z"/>
		<path fill="#EC1C24" d="M94.5,32.9c0.2-0.1,0.4-0.2,0.6-0.3C94.9,32.6,94.3,32.8,94.5,32.9z"/>
		<path fill="#EC1C24" d="M86.1,33c0.1-0.1,0.2-0.1,0.4-0.2C86.3,32.8,86.2,32.9,86.1,33L86.1,33z"/>
		<path fill="#EC1C24" d="M84.3,32.7L84.3,32.7c-0.2,0-0.2,0-0.3,0.1l0.1,0.1C84.1,32.8,84.2,32.7,84.3,32.7z"/>
		<path fill="#EC1C24" d="M88.5,38.2c0.4-0.1,0.7-0.5,0.5-0.5c-0.3,0.1-0.5,0.2-0.8,0.3c0.3,0.2,0.2-0.1,0.7-0.2
			C88.8,37.9,88.7,38,88.5,38.2z"/>
		<path fill="#EC1C24" d="M69,25.3c0.2-0.1,0.9,0.4,0.8,0.6c-0.1,0-0.5-0.1-0.3,0.1l0.7,0c0.6,0.6-0.8,0.1-1.2,0.1
			c0.7,0.5,1.1,0.4,1.8,0.8c-0.2-0.2-0.3-0.3-0.4-0.5c0.1-0.3,0.8,0.3,1.3,0.5c-0.3-0.3,0-0.3,0.3-0.2c0,0,0.1,0,0.1,0l0.1,0l-0.1,0
			c0,0,0-0.1,0-0.1c-0.5-0.2-0.7-0.6-1-0.7c0,0.6-1-0.5-1.4-0.5L69.3,25l-0.2-0.1c0-0.1,0.1-0.1,0.3,0c-0.2,0-0.9-0.4-0.9-0.3
			l-0.9-0.5l-0.3-0.1l-0.2-0.1c-0.2-0.1-0.5-0.2-0.8-0.3c-0.1,0-0.1-0.1-0.2-0.1c-0.1,0-0.1,0-0.1,0c-1.5-0.5-3.2-0.8-4.9-0.7
			c-1.7,0.1-3.4,0.5-4.9,1.2c0.5-0.2,0.9-0.2,1.4-0.3c-0.3,0.3-0.1,0.2,0.2,0.1c0.3-0.1,0.6-0.1,0.5,0c-0.3,0.2-0.8,0.3-1.1,0.3
			c0,0.2,0.4,0.2,0.4,0.3c0.6-0.1,0.9-0.3,1.2-0.5c0.3-0.2,0.6-0.4,1.2-0.5c0,0.2-0.4,0.4,0.4,0.3l-0.2,0.1c0.6-0.2,0.9-0.1,1,0
			c0.2,0.1,0.3,0.1,0.7-0.2l0,0.3c0.6-0.2,1.6-0.1,2.2,0l0,0c0.8,0,1.1,0.1,1.3,0.2c0.2,0.1,0.5,0.2,1.3,0.4l0,0l0.4,0.2l0,0l-0.1,0
			l-1.9-0.2l1.5,0c-0.3,0-0.6,0-0.8,0c0.3,0.2,0.5,0.2,0.8,0.2l-1.3,0l1.7,0.2c0.1,0,0.2,0,0.4,0.1c0,0-0.1,0.2-0.4,0.1l1.8,0.5
			C69.4,25.7,69,25.4,69,25.3z"/>
		<path fill="#EC1C24" d="M70.8,26.8c0.1,0.1,0.2,0.1,0.3,0.2C71,26.9,70.9,26.8,70.8,26.8z"/>
		<path fill="#EC1C24" d="M55.7,24.2c0.2-0.1,0.4-0.2,0.6-0.3C56.1,24,55.9,24.1,55.7,24.2z"/>
		<path fill="#EC1C24" d="M73.3,27.6c-0.2-0.3,0.3,0,0.4-0.1l-1-0.6c0,0.1-0.2,0.1-0.2,0.2L73.3,27.6z"/>
		<path fill="#EC1C24" d="M72.6,26.6c-0.1,0-0.2,0-0.3,0l0.5,0.3C72.8,26.9,72.8,26.8,72.6,26.6z"/>
		<polygon fill="#EC1C24" points="70,31.3 69.8,31.2 69.5,31.1 		"/>
		<path fill="#EC1C24" d="M67.5,29.3c0.1,0.2,0.6,0.4,0.7,0.4C67.8,29.5,68,29.6,67.5,29.3z"/>
		<polygon fill="#EC1C24" points="67.3,31 66.8,30.9 66.8,30.9 		"/>
		<path fill="#EC1C24" d="M52.4,27.7l-0.2,0.2C52.3,27.8,52.4,27.8,52.4,27.7z"/>
		<path fill="#EC1C24" d="M56.6,24.7c-0.7,0.2-0.6,0-0.2-0.2c0.3-0.2,0.8-0.5,0.5-0.6c-0.3,0.1-0.5,0.3-0.7,0.5l0-0.1
			c-0.3,0.2-0.6,0.3-0.9,0.5c0.3,0,0.4,0,0.4,0.2c-0.6,0.3-0.7,0.3-0.8,0.3c-0.1,0-0.2-0.1-0.6,0.1c-0.4,0.3-0.8,0.6-1.2,0.9
			l0.1-0.1C53,26.1,53,26.1,53,26.2c-1.3,1-2.4,2.2-3.3,3.4c-0.4,0.7,0.5-0.1,0.3,0.5c0.6-0.7,1.7-1.6,1.6-1.9c0,0.1,0,0.2,0.2,0.1
			c0.1-0.2,0.1-0.4,0.2-0.6l-0.5,0.3c0.1-0.3,0.5-0.8,1-1.1c0.5-0.4,1-0.7,1.2-0.7c-0.4,0.4-0.4,0.5-0.5,0.7
			c-0.1,0.2-0.3,0.4-0.9,0.8c0.1,0,0.4,0,0.2,0.2c0.6-0.6,1.3-1.1,2-1.6C55.1,25.7,55.8,25.2,56.6,24.7z"/>
		<path fill="#EC1C24" d="M45.6,36.8L45.6,36.8C45.5,36.9,45.5,36.9,45.6,36.8z"/>
		<path fill="#EC1C24" d="M45.9,36.4l0.1-0.8c-0.2,0.4-0.4,0.7-0.6,1.1l0.2,0.2c0-0.1,0.1-0.6,0.2-0.6L45.9,36.4z"/>
		<path fill="#EC1C24" d="M46.2,34.7c-0.2,0.6,0,0.7,0.3,0.5c-0.2,0.6-0.4,0.1-0.3,0.6c0.2,0.1,0.4-0.6,0.5-0.7L46.2,34.7z"/>
		<polygon fill="#EC1C24" points="48.9,30.9 48.9,31.1 49.2,30.8 		"/>
		<path fill="#EC1C24" d="M48.9,31.1l-0.3,0.3c0.1,0,0.2,0,0.3,0L48.9,31.1z"/>
		<path fill="#EC1C24" d="M47.9,32.3c-0.1,0.1-0.3,0.3-0.4,0.5L47.9,32.3z"/>
		<path fill="#EC1C24" d="M48.2,31.9L48.2,31.9l-0.3,0.4C48,32.2,48.1,32.1,48.2,31.9z"/>
		<path fill="#EC1C24" d="M48.6,31.4c-0.2-0.1-0.4-0.1-0.8,0.4l0.3,0.1L48.6,31.4z"/>
		<path fill="#EC1C24" d="M64.6,29.2c-0.1,0-0.3,0-0.4,0l0,0C64.4,29.2,64.5,29.3,64.6,29.2L64.6,29.2z"/>
		<path fill="#EC1C24" d="M62.6,28.6c-0.1,0-0.2,0.1-0.2,0.1C62.4,28.6,62.5,28.6,62.6,28.6z"/>
		<path fill="#EC1C24" d="M61.2,29.9c-0.4-0.2,0.5-0.3-0.2-0.3c-0.1-0.2,0.2-0.5,0.6-0.4c0,0.2-0.3,0.1-0.1,0.3
			c0.2-0.2,0.3-0.1,0.2-0.3c0.4-0.2,0.4-0.4,0.7-0.5c-0.2,0-0.6,0-1,0c-0.4,0-0.8,0.1-1.1,0.3c-0.3,0.4,0.1,0.8,0.2,1.2
			C60.5,30.3,61.2,30.2,61.2,29.9z"/>
		<path fill="#EC1C24" d="M61.7,30.4c0.1,0,0.2,0,0.3,0C62,30.2,61.8,30.4,61.7,30.4z"/>
		<path fill="#EC1C24" d="M56.5,28.5c0,0.1-0.3,0.4-0.2,0.4c0.2-0.1,0.3-0.3,0.5-0.4C56.7,28.5,56.6,28.5,56.5,28.5z"/>
		<path fill="#EC1C24" d="M57,28.3l-0.2,0.2C56.9,28.5,57,28.4,57,28.3z"/>
		<path fill="#EC1C24" d="M56.4,28.5L56.4,28.5C56.5,28.5,56.5,28.4,56.4,28.5z"/>
		<path fill="#EC1C24" d="M46.8,33.8c-0.1-0.1-0.2,0.2-0.3,0.4C46.6,34,46.7,33.9,46.8,33.8z"/>
		<path fill="#EC1C24" d="M42.1,44.9l-0.2,0.2C42,45,42,45,42.1,44.9z"/>
		<path fill="#EC1C24" d="M44,49.9C44.1,50,44.1,50,44,49.9C44.1,50,44.1,50,44,49.9z"/>
		<path fill="#EC1C24" d="M44.1,50c0,0.2-0.3,0.7-0.2,0.9l0,0l0,0.4C43.9,51,44.2,50.3,44.1,50z"/>
	</g>
</g>
</svg>
