<svg xmlns="http://www.w3.org/2000/svg" width="400" height="305.385"><path d="M6.65 279.62v8.442h2.902c2.58 0 3.87-1.447 3.87-4.34 0-1-.192-1.817-.574-2.46-.383-.637-.82-1.07-1.327-1.298-.505-.227-1.247-.343-2.227-.343H6.65zM0 274.717h9.476c1.846 0 3.256.083 4.237.255.98.168 1.972.626 2.972 1.375 1 .742 1.786 1.758 2.352 3.05.565 1.29.852 2.74.852 4.347 0 3.778-1.415 6.432-4.245 7.966l5.544 13.194H13.97L9.94 292.967H6.65v11.935H0v-30.186zM42.835 274.716h18.363v5.168H49.486v7.026h9.11v5.164h-9.11v7.437h11.712v5.392H42.835v-30.186zM93.66 293.49l-3.044-12.347-2.925 12.346h5.97zm-5.75-18.774h6.683l8.632 30.186h-6.807l-1.51-6.244h-8.492l-1.483 6.244h-6.097l9.074-30.186zM123.895 274.716h6.655v24.57h9.704v5.616h-16.36v-30.186zM187.92 274.716h18.362v5.168h-11.708v7.026h9.106v5.164h-9.106v7.437h11.708v5.392H187.92v-30.186zM246.153 281.275l-5.5 2.104c-.78-2.508-2.21-3.76-4.283-3.76-.97 0-1.742.28-2.308.834-.562.554-.85 1.204-.85 1.945 0 .856.336 1.537 1.01 2.05.67.51 2.076 1.18 4.212 2.006 1.945.72 3.475 1.434 4.587 2.143 1.112.71 2.013 1.673 2.7 2.893.684 1.215 1.027 2.626 1.027 4.24 0 2.817-.97 5.132-2.91 6.938-1.94 1.814-4.538 2.715-7.794 2.715-5.472 0-8.97-2.766-10.485-8.3l5.798-1.663c.71 3.048 2.332 4.575 4.854 4.575 1.152 0 2.092-.3 2.81-.9.713-.6 1.072-1.388 1.072-2.364 0-.737-.247-1.4-.754-1.985-.502-.585-1.653-1.203-3.455-1.853-2.32-.825-4.044-1.574-5.176-2.243-1.144-.674-2.076-1.634-2.814-2.877-.74-1.252-1.11-2.67-1.11-4.268 0-2.714.875-4.938 2.62-6.67 1.746-1.74 4.058-2.604 6.935-2.604 5.244 0 8.516 2.348 9.815 7.042M266.6 274.716h18.846v5.614h-6.17v24.572h-6.654V280.33H266.6v-5.614zM316.334 293.49l-3.045-12.347-2.926 12.346h5.97zm-5.75-18.774h6.682l8.632 30.186h-6.807l-1.51-6.244h-8.49l-1.488 6.244h-6.09l9.07-30.186zM342.372 274.716h18.845v5.614h-6.168v24.572h-6.657V280.33h-6.02v-5.614zM381.637 274.716H400v5.168h-11.708v7.026h9.106v5.164h-9.106v7.437H400v5.392h-18.363v-30.186z"/><path d="M127.502 61.635c7.025-.718 20.375 10.19 23.683 14.007 3.312 3.822 6.882 8.92 4.077 9.425-2.802.506-10.95-2.037-15.28-5.858-4.327-3.823-7.383-3.313-10.95-6.114-3.57-2.802-14.007-10.186-1.53-11.46M143.287 17.83c2.73 4.48 13.756 19.1 17.83 27.76 4.075 8.66 8.913 19.105 10.444 23.433 1.527 4.332 12.992 3.822 9.425-5.093-3.566-8.915-5.348-19.614-9.68-26.238-4.33-6.62-11.715-17.06-14.517-20.116-2.8-3.057-3.57-5.603-6.113-5.603-2.547 0-10.95 0-7.388 5.858M202.887 3.058c-.64 7.357.25 29.797-.765 34.634-1.016 4.846.255 21.145.255 24.967 0 3.816 7.643 8.148 9.68-1.28 2.036-9.42 4.328-19.352 4.328-26.995 0-7.644.255-27.25-2.292-30.31C211.547 1.02 203.4-2.8 202.887 3.057M293.55 20.122c-3.203 1.746-21.14 15.534-25.718 19.866-4.587 4.332-17.068 17.574-20.635 22.412-3.567 4.842-20.12 33.37 8.153 7.643 28.27-25.723 35.91-30.816 38.71-34.638 2.803-3.818 10.187-10.19 7.13-13.756-3.056-3.564-4.837-3.054-7.64-1.528" fill="#060809"/><path d="M48.008 191.567c5.922 4.743 30.75 8.676 50.96 7.373 20.22-1.3 219.848-1.3 232.907-1.734 13.06-.434 37.145-2.602 41.78-3.47 4.634-.866-24.512-9.103-35.46-14.307-10.95-5.206-35.38-19.512-40.854-22.98-5.475-3.47-171.412-20.38-178.15-16.477-6.74 3.9-78.758 45.525-71.182 51.594" fill="#8ec38f"/><path d="M179.204 88.63l54.508-.26 77.684 73.608s-41.775 2.55-54.766 2.04c-12.984-.51-63.925-3.056-79.207-4.33-15.28-1.276-77.426-6.88-77.426-6.88l79.207-64.18" fill="#f15e24"/><path d="M68.666 170.387c-5.308 4.132-17.064 8.663-20.12 10.445-3.06 1.785-15.032 12.48-6.117 12.736 8.917.25 19.358 2.29 28.018-4.587 8.66-6.873 19.865-14.26 22.412-17.063 2.546-2.8 20.38-14.007 24.962-18.084 4.583-4.073 36.42-28.27 41.768-33.363 5.347-5.093 11.975-10.445 13.756-11.716 1.78-1.275 4.073-2.547 8.655-.255 4.588 2.29 5.86 3.565 9.936 3.82 4.077.256 7.895 2.802 5.093 5.86-2.798 3.055-5.353 3.56-10.19 3.56-4.84 0-6.114-.505-8.405-2.035-2.288-1.526-7.89-2.806-10.437 1.53-2.546 4.328-5.603 7.64.25 10.44 5.86 2.806 10.697 4.588 18.59.51 7.9-4.076 14.527-5.86 16.563-6.877 2.033-1.02 5.33-2.037 7.88 5.093 2.546 7.134 5.854 11.972 9.675 14.518 3.822 2.547 12.992 3.826 16.048.26 3.053-3.57 8.405-10.956 11.967-11.21 3.57-.252 3.83-.507 7.647 2.036 3.818 2.55 30.558 20.89 32.343 22.67 1.786 1.782 3.818 5.093-.51 7.895-4.328 2.8-9.425 5.347-13.497 2.035-4.077-3.31-6.623-6.623-9.425-6.623-2.8 0-8.4 3.826-2.036 9.17 6.368 5.352 20.88 9.938 29.54 5.858 8.664-4.073 10.705-10.44 18.09-5.093 7.383 5.348 21.905 14.262 31.07 16.81 9.166 2.55 17.057 3.565 22.66.764 5.6-2.8 4.076-6.367-1.276-8.66-5.348-2.294-21.905-10.443-29.545-14.516-7.638-4.077-26.48-11.97-30.807-16.3-4.332-4.33-6.368-4.582-6.623-6.367-.255-1.78 2.8-3.057 3.056-5.093.255-2.036.51-4.583.51-7.894 0-3.312-.25-4.077-2.29-7.9-2.042-3.816-2.803-4.833-3.823-5.092-1.02-.255-5.348 1.02-5.348 3.818 0 2.8-1.53 8.92-2.546 9.684-1.025.76-1.787 2.546-3.058 2.036-1.275-.51-5.858-3.822-8.404-6.368-2.547-2.55-11.46-10.445-13.753-12.736-2.295-2.292-10.186-10.186-14.768-15.28-4.583-5.092-8.15-9.42-10.44-11.715 0 0-7.134 4.587-12.227 7.894-5.093 3.317-10.95 6.118-15.028 7.645-4.077 1.53-4.58 3.31-10.437-.765-5.862-4.077-12.99-7.134-17.068-10.44-4.073-3.313-2.546-1.02-5.097 1.27-2.546 2.29-19.853 15.28-28.764 23.173-8.918 7.898-16.048 12.48-22.926 17.32s-17.068 12.735-26.744 18.593c-9.68 5.858-26.488 16.813-28.78 18.59" fill="#060809"/><path d="M36.61 228.672c-.71 2.543-1.7 6.38-2.976 11.51-.3 1.776-.59 3.542-.873 5.3-.64 2.227-1.824 3.34-3.55 3.34-1.08 0-1.936-.368-2.558-1.105-.534-.63-.8-1.375-.8-2.236 0-2.54.54-5.638 1.62-9.292 1.62-5.475 2.492-8.512 2.615-9.11.454-2.415.917-4.83 1.387-7.25.705-3.322 1.474-5.542 2.295-6.646.824-1.104 1.864-1.657 3.12-1.657 1.43 0 2.482.72 3.16 2.163.625 1.363 1.3 4.157 2.024 8.377.69 4.093 1.718 8.496 3.085 13.218 1.78-4.654 3.438-9.77 4.972-15.338l1.315-5.412c.85-2.243 2.156-3.363 3.93-3.363 1.71 0 2.98 1.303 3.813 3.905.343 1.048.713 3.01 1.104 5.878.908 6.68 2.056 12.406 3.435 17.168 1.394 4.847 2.09 7.48 2.09 7.903 0 .93-.365 1.706-1.103 2.33-.69.563-1.462.846-2.327.846-1.706 0-2.977-1.224-3.806-3.667l-1.32-5.69c-.752-2.822-1.573-6.875-2.454-12.16-.7 2.105-1.87 5.405-3.498 9.908l-1.41 4.33c-.58 1.708-1.18 3.11-1.81 4.21-.83 1.455-1.99 2.185-3.475 2.185-1.47 0-2.603-.87-3.384-2.61l-1.32-4.372c-1.226-4.017-2.33-8.237-3.302-12.66M87.293 218.004c-3.495 0-6.492 1.694-8.983 5.077-2.335 3.17-3.503 6.68-3.503 10.538 0 2.602 1.013 4.718 3.033 6.344 1.945 1.57 4.396 2.355 7.36 2.355 3.448 0 6.325-1.694 8.628-5.08 2.116-3.09 3.172-6.6 3.172-10.533 0-3.292-.737-5.58-2.208-6.867-1.41-1.223-3.91-1.833-7.5-1.833M85.2 248.697c-4.642 0-8.59-1.335-11.855-4-3.48-2.854-5.22-6.548-5.22-11.08 0-5.33 1.67-10.193 5.013-14.585 3.746-4.937 8.464-7.408 14.155-7.408 5.47 0 9.572 1.255 12.3 3.762 2.727 2.51 4.09 6.28 4.09 11.318 0 5.332-1.534 10.158-4.607 14.485-3.542 5.005-8.17 7.507-13.876 7.507M117.595 228.672c-.71 2.543-1.698 6.38-2.977 11.51-.3 1.776-.59 3.542-.873 5.3-.64 2.227-1.825 3.34-3.55 3.34-1.08 0-1.933-.368-2.56-1.105-.533-.63-.8-1.375-.8-2.236 0-2.54.542-5.638 1.626-9.292 1.615-5.475 2.488-8.512 2.61-9.11.456-2.415.922-4.83 1.392-7.25.702-3.322 1.47-5.542 2.296-6.646.82-1.104 1.865-1.657 3.12-1.657 1.427 0 2.483.72 3.156 2.163.63 1.363 1.303 4.157 2.024 8.377.69 4.093 1.718 8.496 3.085 13.218 1.785-4.654 3.443-9.77 4.977-15.338l1.31-5.412c.85-2.243 2.157-3.363 3.935-3.363 1.705 0 2.976 1.303 3.81 3.905.346 1.048.713 3.01 1.107 5.878.91 6.68 2.052 12.406 3.43 17.168 1.4 4.847 2.097 7.48 2.097 7.903 0 .93-.37 1.706-1.104 2.33-.69.563-1.467.846-2.328.846-1.71 0-2.977-1.224-3.81-3.667l-1.318-5.69c-.754-2.822-1.57-6.875-2.45-12.16-.707 2.105-1.874 5.405-3.5 9.908l-1.41 4.33c-.583 1.708-1.184 3.11-1.81 4.21-.83 1.455-1.99 2.185-3.475 2.185-1.475 0-2.602-.87-3.387-2.61l-1.32-4.372c-1.227-4.017-2.33-8.237-3.303-12.66M168.28 218.004c-3.498 0-6.49 1.694-8.98 5.077-2.337 3.17-3.504 6.68-3.504 10.538 0 2.602 1.012 4.718 3.032 6.344 1.945 1.57 4.396 2.355 7.357 2.355 3.447 0 6.328-1.694 8.627-5.08 2.116-3.09 3.177-6.6 3.177-10.533 0-3.292-.74-5.58-2.213-6.867-1.41-1.223-3.91-1.833-7.496-1.833m-2.095 30.693c-4.64 0-8.592-1.335-11.852-4-3.48-2.854-5.22-6.548-5.22-11.08 0-5.33 1.67-10.193 5.01-14.585 3.745-4.937 8.467-7.408 14.158-7.408 5.472 0 9.57 1.255 12.3 3.762 2.725 2.51 4.09 6.28 4.09 11.318 0 5.332-1.537 10.158-4.61 14.485-3.542 5.005-8.17 7.507-13.875 7.507M216.632 219.064c-1.22 0-3.13-.087-5.715-.263-2.495-.178-4.4-.258-5.72-.242.06 1.79.272 4.97.627 9.548.323 4.045.486 7.245.486 9.593 0 .533.056 1.326.164 2.378.107 1.048.163 1.84.163 2.37 0 1.176-.243 2.236-.733 3.177-.646 1.207-1.562 1.81-2.758 1.81-.865 0-1.626-.276-2.287-.826-.738-.61-1.11-1.38-1.11-2.304 0-.22.04-.554.112-1 .076-.447.116-.79.116-1.025 0-.72-.052-1.812-.15-3.266-.1-1.463-.153-2.56-.153-3.296 0-2.1-.16-4.95-.486-8.54-.37-4.13-.587-6.974-.65-8.544h-1.224c-3.495 0-6.268-.243-8.32-.73-1.742-.426-2.61-1.45-2.61-3.08 0-.8.282-1.522.844-2.164.662-.77 1.522-1.115 2.59-1.036.55.032 1.798.164 3.738.395 1.554.17 2.806.254 3.766.254.957 0 2.387-.016 4.292-.048 1.905-.032 3.336-.048 4.292-.048 1.192 0 2.98.084 5.364.24 2.383.16 4.172.238 5.364.238.94 0 1.725.307 2.363.925.633.615.95 1.372.95 2.272 0 .897-.317 1.658-.95 2.28-.64.622-1.424.932-2.368.932M240.255 218.004c-3.495 0-6.488 1.694-8.978 5.077-2.336 3.17-3.503 6.68-3.503 10.538 0 2.602 1.008 4.718 3.028 6.344 1.945 1.57 4.4 2.355 7.36 2.355 3.448 0 6.325-1.694 8.63-5.08 2.115-3.09 3.175-6.6 3.175-10.533 0-3.292-.738-5.58-2.212-6.867-1.41-1.223-3.913-1.833-7.5-1.833m-2.092 30.693c-4.64 0-8.592-1.335-11.852-4-3.482-2.854-5.22-6.548-5.22-11.08 0-5.33 1.667-10.193 5.006-14.585 3.75-4.937 8.468-7.408 14.16-7.408 5.47 0 9.57 1.255 12.297 3.762 2.73 2.51 4.093 6.28 4.093 11.318 0 5.332-1.535 10.158-4.607 14.485-3.544 5.005-8.17 7.507-13.877 7.507M270.56 228.672c-.712 2.543-1.7 6.38-2.98 11.51-.298 1.776-.585 3.542-.872 5.3-.642 2.227-1.825 3.34-3.547 3.34-1.08 0-1.936-.368-2.56-1.105-.535-.63-.802-1.375-.802-2.236 0-2.54.542-5.638 1.626-9.292 1.614-5.475 2.486-8.512 2.61-9.11.458-2.415.92-4.83 1.39-7.25.706-3.322 1.47-5.542 2.296-6.646.825-1.104 1.865-1.657 3.12-1.657 1.43 0 2.483.72 3.157 2.163.63 1.363 1.303 4.157 2.024 8.377.694 4.093 1.718 8.496 3.085 13.218 1.786-4.654 3.443-9.77 4.978-15.338l1.315-5.412c.85-2.243 2.156-3.363 3.93-3.363 1.71 0 2.98 1.303 3.813 3.905.343 1.048.71 3.01 1.105 5.878.908 6.68 2.052 12.406 3.435 17.168 1.394 4.847 2.092 7.48 2.092 7.903 0 .93-.37 1.706-1.104 2.33-.69.563-1.467.846-2.327.846-1.705 0-2.976-1.224-3.805-3.667l-1.323-5.69c-.753-2.822-1.57-6.875-2.45-12.16-.706 2.105-1.87 5.405-3.5 9.908l-1.41 4.33c-.578 1.708-1.18 3.11-1.81 4.21-.833 1.455-1.988 2.185-3.48 2.185-1.47 0-2.597-.87-3.378-2.61l-1.323-4.372c-1.226-4.017-2.326-8.237-3.3-12.66M316.768 233.3c-1.427 0-3.56-.053-6.396-.165v8.8c2.698-.14 5.62-.658 8.77-1.55 2.76-.786 4.126-1.635 4.09-2.543-.044-1.208-.933-2.284-2.654-3.224-1.35-.753-2.618-1.192-3.81-1.32m-2.742-16.6c-2.028 0-3.247.015-3.654.047l.03 4.977-.03 4.934c1.43.17 2.507.227 3.228.163 4.81-.375 7.213-2.137 7.213-5.285 0-1.112-.71-2.184-2.12-3.22-1.463-1.076-3.017-1.618-4.667-1.618m7.448 29.65c-3.654 1.366-8.273 2.047-13.86 2.047-.94 0-1.785-.394-2.53-1.175-.745-.786-1.116-1.627-1.116-2.52v-24.934c-.048-1.064-.088-2.128-.116-3.196-.05-1.208-.012-2.228.116-3.057.22-1.474 1.59-2.37 4.12-2.682 1.188-.346 3.17-.517 5.93-.517 2.965 0 5.807.956 8.524 2.87 3.184 2.223 4.78 5.005 4.78 8.344 0 1.8-.332 3.324-.99 4.56-.518 1.003-1.418 2.08-2.706 3.22 1.523.74 2.87 1.852 4.045 3.342 1.328 1.66 1.994 3.32 1.994 4.965 0 2.088-1.14 4.064-3.41 5.93-1.524 1.24-3.118 2.175-4.78 2.8M351.605 218.004c-3.49 0-6.483 1.694-8.978 5.077-2.335 3.17-3.503 6.68-3.503 10.538 0 2.602 1.012 4.718 3.033 6.344 1.945 1.57 4.395 2.355 7.36 2.355 3.447 0 6.32-1.694 8.628-5.08 2.116-3.09 3.172-6.6 3.172-10.533 0-3.292-.737-5.58-2.212-6.867-1.406-1.223-3.91-1.833-7.5-1.833m-2.088 30.693c-4.642 0-8.595-1.335-11.855-4-3.48-2.854-5.22-6.548-5.22-11.08 0-5.33 1.67-10.193 5.01-14.585 3.748-4.937 8.467-7.408 14.153-7.408 5.476 0 9.577 1.255 12.302 3.762 2.726 2.51 4.093 6.28 4.093 11.318 0 5.332-1.538 10.158-4.61 14.485-3.543 5.005-8.166 7.507-13.873 7.507"/></svg>