<svg xmlns="http://www.w3.org/2000/svg" width="400" height="138.106"><path d="M178.22 124.856h6.695s.984 3.823 3.57 3.99c2.563.12 14.078 0 14.078 0s3.734.198 5.28-4.233h4.245s.84 4.53 4.53 4.43c3.69-.076 13.183 0 13.183 0s3.338-.452 3.935-2.817c0 0 1.735 2.917 5.072 2.818 3.392-.077 12.155 0 12.155 0s3.558-.2 4.685-4.144c0 0 1.282 4.243 5.25 4.144 4.01-.077 13.38 0 13.38 0s3.636.31 4.786-1.967c0 0 .386 1.59 6.143 2.077 5.79.498 28.82 1.46 32.1-2.077 0 0 2.012 2.066 3.89 1.967 1.835-.077 12.653 0 12.653 0s3.856-.376 4.762-3.812h3.668s1.083 3.26 3.835 3.536c2.762.2 12.453 0 12.453 0s3.558-.52 3.558-4.72V95.51s-.884-4.023-5.69-3.946c-4.774.088-18.045 0-18.045 0s-3.237.83-3.325 1.514h-7.58s-4.045-1.89-12.974-2.09c-8.95-.22-21.06.786-21.9 2.09h-5.437s-.95-1.59-5.713-1.514c-4.74.088-12.74-.21-13.25 1.414h-3.17s-1.702-1.69-5.746-1.414c-4.067.33-14.586-.376-15.813 1.624l-.817-.11s-1.536-2.542-4.53-2.43c-3.05.098-12.675 0-12.675 0s-3.083-.068-3.27 1.822c0 0 .12-.818-5.758-.696-5.89.12-23.404 0-23.404 0s-6.077 0-6.785 1.414h-4.065s-1.912-7.945-17.802-9.735c-15.9-1.81-31.736 1.416-36.675 9.736 0 0-1.636-1.624-4.188-1.7H97.288l-3.746 2.043-1.25-1.968H63.686s-3.238-.077-4.144 2.508c-.872 2.575-7.933 28.388-7.933 28.388s-1.282 6.575 4.63 6.51H70.17s3.846-.355 4.554-2.61c0 0 1.248 2.995 4.718 2.82 3.492-.21 11.702 0 11.702 0s5.105-.333 6.067-2.93c0 0 .896 3.105 5.725 2.93 4.84-.21 11.702 0 11.702 0s4.342.363 5.867-4.278l.83.74s3.48 12.62 26.243 12.465c22.82-.155 29.25-9.636 30.642-13.25"/><path d="M43.427 101.85l-5.04 13.48H0S28.74 34.158 129.44 46.8c0 0 .985-.398 1.45-1.812.463-1.404 2.783-7.205 2.95-7.04.176.178 16.862 13.493 38.354 12.112 21.537-1.448 109.54-28.775 109.54-28.775s-1.613 5.835-6.42 8.266c-4.85 2.408-89.86 37.57-89.86 37.57s-30.51 14.055-53.25-9.25c0 0-70.6-8.022-99.54 43.184l10.763.796z" fill="#005fa6"/><path d="M322.933 73.027L291.53 17.28s-2.21-8.908-17.99-5.107c-23.847 3.426-84.6 25.15-84.6 25.15S253.405 5.202 290.567.428c0 0 14.685-2.453 17.67 4.398 3.026 6.818 9.458 17.658 9.458 17.658l19.69.807s9.228 1.193 3.194 10.652c0 0-5.624 6.045-8.464 7.88-2.873 1.833-4.066 4.065-2.873 6.198 1.204 2.09 4.685 6.166 4.685 6.166s39.04-14.376 59.317 7.48c18.885 23.936-7.823 56.467-7.823 56.467h-17.714s23.615-16.177 9.15-43.007c-15.36-22.896-53.925-2.1-53.925-2.1" fill="#1e4d98"/><path d="M130.933 96.832s5.193-8.277 16.01-8.652c10.897-.365 15.394 0 15.394 0s15.68.132 18.078 9.713c2.508 10.22-3.27 28.1-14.542 32.52-11.238 4.387-37.66 4.343-40.256-7.956-2.607-12.254 5.316-25.625 5.316-25.625" fill="#fff"/><path d="M130.933 96.832s5.193-8.277 16.01-8.652c10.897-.365 15.394 0 15.394 0s15.68.132 18.078 9.713c2.508 10.22-3.27 28.1-14.542 32.52-11.238 4.387-37.66 4.343-40.256-7.956-2.607-12.254 5.316-25.625 5.316-25.625z" fill="none" stroke="#000" stroke-width=".71825845"/><path d="M154.36 103.446s5.746.243 5.337 4.056c-.376 3.867-2.022 10.63-6.332 11.8-4.276 1.15-8.895-.253-8.64-4.63.23-4.353 3.37-11.325 9.635-11.226" fill="#090a0a"/><path d="M321.542 105.12l2.674-9.35s-19.968-1.933-26.94-.573c-6.907 1.292-10.233 5.48-10.93 10.73-.695 5.27 3.128 7.944 9.45 7.944h6.684s1.128.233 1.05.985c-.155.707-.862 1.16-2.376 1.36-1.59.22-14.73-.056-17.503-.974l-2.397 7.67s22.995 3.083 31.515.166c7.326-2.707 6.895-10.022 6.895-10.022s.918-6.255-8.818-6.255c-9.69 0-8.807-.498-8.873-.83-.088-.33.22-2.243 4.652-2.11 4.476.11 10.973.287 14.918 1.26M189.49 123.366h14.266l5.812-18.597h8.354l3.25-9.128h-32.18l-2.938 9.072h8.95l-5.514 18.652zM224.76 95.407l-8.463 28.21h13.77l8.695-27.978-14-.233zM237.512 123.593h13.8l4.454-14.332 3.846 14.333h15.702l8.895-28h-13.67l-5.392 15.778-3.06-15.922h-15.68l-8.896 28.145zM357.153 123.464l-.11-27.88H337.03l-17.16 27.88h13.48l2.32-3.746h9.283l.155 3.746h12.045z" fill="#e50f16"/><path d="M345.504 112.37l.077-9.193-5.955 9.193h5.88z" fill="#090a0a"/><path d="M64.163 95.018h21.26l2.896 17.846 13.425-17.846h21.26l-9.437 29.018h-12.895l6.906-22-16.786 22h-11.68l-3.702-22-6.188 22H56.362l7.8-29.018z" fill="#e50f16"/></svg>