<svg xmlns="http://www.w3.org/2000/svg" width="400.031" height="175.25"><path d="M.353 174.913h399.32V.323H.354v174.59z" fill="#fff200"/><path d="M.353 174.913h399.323V.326H.353v174.587z" fill="none" stroke="#000" stroke-width=".679"/><path d="M303.67 15.994v13.52h-21.555V18.622h-87.02l-.033 12.41c-3.645-1.226-7.5-1.894-11.5-1.894H16.43l-.157 26.34v103.767l203.63-.078v-2.86c4.678 1.823 9.654 2.86 14.72 2.86H383.75V15.995h-80.08z" fill="#ed1c24"/><path d="M310.418 22.538v13.517h-35.05v-10.89h-73.543s-.038 15.39-.043 16.935c-4.795-3.91-10.944-6.42-18.22-6.42H23.142l-.12 19.63v97.394l190.136-.49v-7.663c6.065 4.95 13.818 7.664 21.468 7.664h142.382V22.538h-66.59z" fill="#fff"/><path d="M363.425 36.363h-39.428v7.886h39.428v-7.887zm0 13.144h-39.428v89.372h39.428V49.506zm-148.078-.877v71.847c0 13.144 11.393 18.402 19.28 18.402h75.35v-28H272.3c-4.38 0-9.636-2.67-9.636-8.802v-22.45h48.19V49.88H261.79V38.99H215.37l-.024 9.64zm-178.705.877h146.92c11.39 0 16.017 10.513 16.017 16.645v72.727h-43.813V91.56c0-8.643-9.64-11.39-9.64-11.39l-.34 58.17H89s-.7-33.633-.7-45.903c0-12.268-9.638-12.268-9.638-12.268v58.512H36.604V55.64l.038-6.133z"/></svg>