<svg xmlns="http://www.w3.org/2000/svg" width="500" height="490.221"><path d="M431.93 244.256c0 97.804-79.294 177.1-177.098 177.1-97.804 0-177.086-79.296-177.086-177.1 0-97.804 79.282-177.1 177.086-177.1 97.804 0 177.1 79.296 177.1 177.1" fill="#0063a6"/><path d="M252.6 218.5c.183-.077.392-.168.483-.325.04-.065-.026-.144-.078-.196-.13.182-.26.352-.405.52M252.95 218.738c.106-.157.314-.21.47-.314.08-.04.17-.09.17-.17.014-.156-.143-.182-.3-.117.014.013 0 .026 0 .04-.026.052-.052.117-.104.156-.117.078-.17.222-.287.26-.04 0-.08 0-.132.014.053.052.118.09.183.13M254.046 218.28c.13-.04.3-.053.392-.144.04-.04-.04-.118-.04-.183-.09.13-.208.248-.352.326M253.835 218.095c-.078.053-.052-.065-.105-.04.014.053-.052.12-.026.158.026.04.08-.026.13-.026-.012-.026.027-.066 0-.092M164.463 128.58c-1.762.784-3.68-.808-5.626-1.226.73 2.167.9 4.764 2.637 6.11.13.103.705-.51.874-.42 1.45.85 1.123 3.656 2.533 3.865 1.958.3 3.368-2.416 1.854-4.113.51-.326 1.227-.953 1.397-.81.862.732-.9 2.22-.34 3.382 1.072-1.06 3.408-1.398 3.12.48-.117.706-1.383-.168-1.552.054-1.945 2.44.874 1.057.365 2.74-.248.836-.914 1.96-.68 2.272.837 1.096 3.408 1.658 3.76.013.758-3.5 4.15-2.037 4.57-4.61.286-1.71-.98-3.13-2.076-4.345.718-.718.117-1.527.182-2.193.143-1.775-1.828-3.094-1.763-4.503.196-4.818-1.083-2.39-.64-7.167-1.396-2.27-.17-8.106-3.51-7.31.13 1.005-1.045 1.723-1.227 1.84-4.177 2.61-3.93 8.093-6.93 11.71 1.54.665 1.552 3.967 3.797 1.54-.927-.366 1.018-1.032.078-1.384.927-.367 2.01-2.025 2.572-.967 1.24 2.245-1.658 4.255-3.394 5.038M171.103 101.986c2.062-1.175 2.584-.757 1.41 1.906 1.422.6 1.644-.052 2.99.81.9-1.32 2.152-1.045 3.105-.653-1.75.638-3.668 1.12-4.92 2.74-.25.34.378.64.86.665-.86 2.415-2.388 3.446-1.63 5.94.273.9 1.29.965 1.748 1.63 1.097 1.646-1.175.732-1.175 1.45 0 1.8 1.855 2.31 2.13 4.007.273-.405.665-1.097.782-1.057 2.61.796 1.2 4.568 1.684 6.852.47 2.22 3.16 1.815 4.28-.09-.3 1.056-1.252 2.23-1.186 2.805.208 1.945 2.74 1.253 4.255 1.84.73-2.832 3.537-4.45 5.142-5.677 2.31-1.802 6.292-2.572 9.333-1.188 2.572 1.162 5.365 3.172 8.732 1.684.34-.143.523-1.017.77-1.605.483 1.593 1.436-.496 2.233-1.357-.73 1.63 1.762-.992.94.757-.72 1.527-3.943 2.976-1.254 3.942.72.248.98-1.384 1.36-1.253.912.3-.184 2.414.547 2.623 3.015.9 3.355-2.702 2.91-4.816 1.463-.156 2.52.64 3.642 1.228 1.46.757-.784 2.388-.38 3.315 1.502 3.38 6.2 2.585 9.477 3.772 5.39 1.97 12.413-.796 18.313.875 1.775.496 2.82-2.245 4.4-1.867-.21-1.07.952-2.205 1.382-2.427 2.61-1.306 4.87-2.65 7.206-4.817.43-.405 1.422-.732 1.475.325-.014-1.057.626-2.493-.248-3.054-3.33-2.192-6.07-5.638-11.147-4.24.065-4.79-3.59-4.308-6.71-6.175-.417-.26-.287-1.2-.665-1.527-.26-.222-1.175.09-1.175.013.183-6.747-3.054-11.786-5.743-16.915-2.898-5.51-4.608-12.01-7.727-17.635-.353 2.05.783 3.877-.98 6.148-.273.353.47 1.423.497 2.337.04.98-1.15 1.84-1.397 1.566-.927-1.004.235-4.45-2.088-3.445-.444.196-.418 1.71-1.475 2.18-.013-1.123-2.14-.875-1.227-1.84 1.462-1.528 4.79-.38 5.3-3.825.13-.874-.21-1.658-1.123-1.423-3.85.992-5.913 2.715-8.354 6.2.275-.678.392-1.475.25-1.135-.667-.914-.12-2.18-.21-3.368-3.368 2.52-3.094 1.15-5.652-.483-.613-.39-1.436 1.398-.953 2.65-.104-1.526-1.28-2.114-1.8-3.288-.275 1.305-1.502 2.14-1.776 3.446-.47-1.436-.654-3.734-1.554-3.864-2.272-.34-1.71 4.477-4.804 4.764-.404.04-.914 1.984-.874 3.21-.144-1.134-1.214-.208-1.423-.56-.68-1.044 1.122-3.864-.313-3.89-1.2-.013-1.736 2.963-3.538 3.577-2.754.966-4.62-.314-7.36.626-2.364.81-5.222-2.7-7.494-.965-5.338 4.086 3.485 2.702 3.368 7.414-1.893-.223-3.655-1.045-5.704-.497.222.588.405 1.227.718 1.75-.157-.027-.327.078-.47.43-.34.835-.392 1.62-.34 2.402-.482-1.658-1.03-3.08-1.997-3.316-1.997-.47-2.336 5.168-5.142 6.604.744 1.2-1.123 2.715.77 3.772M286.83 266.628l1.722.522c0-.104-.013-.183-.065-.235-.26-.235-1.148-.04-1.658-.287M277.187 271.997c-2.166 1.683-5.482 1.005-7.205 2.99-.678.795 1.41.194 1.306 1.017 2.284-1.436 5.52-1.2 7.166-2.728 2.48-2.31 6.03-3.655 9.41-5.065.405-.168.653-.625.692-.965-2.545-.43-5.39-.64-7.727.21-3.173 1.135-6.488 2.075-9.582 3.406 1.763.667 3.877 1.867 5.94 1.137" fill="#fbbe00"/><path d="M288.556 267.145v.104c.26.038.522.09.784.13l-.784-.235zM259.767 275.192c1.41.81 2.245-1.97 3.446-1.397.862.392 1.867.51 2.598.38 1.79-.288 2.598-1.763 3.46-3.12.13-.027.235-.04.3-.04-.078-.013-.17-.013-.248-.04l.196-.313c-.26.105-.47.196-.64.262-4.425-.562-9.137.026-13.744-.105-.9-.027-2.493.926-3.707.952-.73.026-1.67-.21-2.298-.078-4.7.966-9.568 2.884-11.07 6.93 1.41-.313 2.09-1.07 2.964-2.1 1.305-1.54 3.602-1.384 5.508-2.09-.21.144-.326.327-.418.55 4.28-.25 8.354-.497 12.896-1.332.08-.014.092.522.274.535.418.065.94-.26 1.423-.418.105.652-1.33 1.187-.94 1.422M269.574 271.012c.013.013.052.013.065.013 0-.013-.027-.013-.066-.013M197.11 171.852c-.51.065-1.227.744-1.396.614-1.45-1.11-3.642.182-5.156-.588-.366-.21-.43-.835-.614-1.318-.757.326-.26-.548-.678-.196-3.042 2.167.613 4.764.09 7.1-.312 1.37-.47 1.593-.064 1.893.98.744 1.33-.535 1.932-1.018l.548 1.37c.496-.94.652.9 1.175-.065.874-1.67-.21-3.68.73-4.464 1.32-1.07 4.02-.143 5.117-1.735.47-.692-.522-1.75-1.684-1.593M196.28 177.366c-.615.757-1.07 1.8-.706 2.532.104.235.705.196.744.718 1.15-1.11 1.423-2.572 2.088-3.89-.443-.13-.9-.26-1.357-.392.286.222.573.43.86.653-.56 0-1.213-.143-1.63.38M201.523 176.802c-.417.73-.39 1.827.196 1.905 1.396.17 1.618-1.618 1.774-2.532.066-.417-.717-.796-1.37-.874.117.314.39.666.274.914-.117.248-.718.314-.875.588M207.456 164.235c1.958.56 4.216.626 6.017 1.58 1.75-4.02 6.788-1.385 8.876-4.596 2.388-3.668-4.19-.314-6.384-.836 1.815-2.65 5.195-.966 5.757-2.35 1.553-3.706-5.39-5.077-9.294-4.294-1.293.26-2.833-.483-3.408-2.023 3.46-1.044 6.514 2.05 9.307-.744 1.07-1.07-2.024-1.266-1.463-2.99.587-1.853-.235-3.145-1.005-3.602-3.55-2.087-8.51 2.69-12.935 2.886 1.214-.874-.614-2.1.848-2.963-1.92 1.345-4.346-1.932-5.678-1.305-3.315 1.553-6.148 1.814-9.41 1.162-.915-.196-2.95 1.122-3.616 2.584-.234.51.666 1.357.457 1.906-.222.548-1.214 1.07-1.866 1.122-.17.013-.273-.548-.404-.874-.822.926.588 1.657-.235 2.584-.508-1.58-1.147-3.054-2.27-4.19 2.01 1.07 4.425-1.305 4.843-2.61 1.253-3.942-3.903-1.567-5.783.17-.887.822-.796 2.114-1.07 3.17-.705 2.664 1.775 4.165 1.853 6.697-2.675-.81-2.91-3.917-3.537-6.5-.274-1.07-2.036.586-2.127.926-1.516 5.43 2.557 12.543 5.794 10.56 1.45-1.02 2.937-1.932 4.464-2.755.587-.312 1.475.093 1.775-.13 1.305-.978 2.545-1.97 3.98-2.57 1.424-.6 1.894 1.983 3.447.822 1.45-1.07 2.69-.55 4.06-.9 1.253-.327 2.22.612 2.845 1.356 1.475 1.71-.496 5.104 1.488 6.8-1.514 1.49-3.433 2.846-3.602 4.948-.065.835.405 2.14.823 2.114 3.51-.182 4.425-6.03 7.453-5.155M277.267 176.79c.47-.157-.157 1.854.183 2.832.56-.574.457-1.514 1.514-1.814-.313-1.266-1.384-3.015.848-4.28.08.965.38 1.76 1.253 2.18.314-.523.627-1.033.927-1.555.052.64.47 1.032 1.044 1.123.522.078.992-.574.94-.953-.274-1.88-.887-3.63-3.04-4.138.286.522-.615.705-.94 1.058-.105-1.488-1.45-1.97-2.572-2.48-1.815-.823-2.91 2.31-4.765 3.472-1.006.626-2.35-.04-2.937-1.097-.588 1.03-1.188 2.063-1.776 3.107-1.527-2.206-.665-4.62-.81-7.493-.6.3-1.382.692-1.33.092-.888.666-.757 1.88-.875 2.336-1.5 5.94 1.554 10.56 2.22 15.846 3.47-2.884 5.9-6.8 10.115-8.236M259.548 193.907c-1.37.77-2.39-1.253-2.885-.065-1.475 3.576 4.673 1.188 6.788.326-.3-.365.053-.744.223-1.174.195-.536-.353-.562-.77-.692-1.488-.43-2.193.966-3.355 1.605M258.4 185.106c-2.636-.705-5.012 1.932-7.687 2.898 3.067 1.318 5.82-.94 8.64-3.055.457-.21-.482-.25-.952.156M147.024 166.378c-.587 2.193 2.702-.392 2.363 1.135-.157.744-1.775.9-2.258 2.115 1.983.3 4.985-.9 5.572.744.444 1.253-1.644 2.115-3.485 1.697-.953-.223-.926 1.63-.64 1.63 2.52.053 3.303 2.52 5.222 2.637 1.278.078 2.818-1.292 3.862-2.78 1.267-1.814 3.394.352 5.026-1.436.104 1.045 1.148-.456 1.33.38 1.802-.68 2.494-2.31 1.36-3.655.364.196.743.326 1.134-.065-1.2-1.32-3.08-.614-4.32-1.227-2.663-1.293-1.384-6.096-3.46-7.467-2.323-1.527-.326 2.663-.69 4.216-.066.222-.693.562-.784.47-.875-.783-.94-2.193-1.044-3.472-1.214.392-2.454 1.684-2.95-.026.013-.352-.366-.21-.64.144-.68.156.522 1.396.444 2.297-.013.183-.666.535-.744.457-.77-.77-.744-2.062-.405-3.276 1.083-1.828-4.256 3.08-4.896 5.482" fill="#fbbe00"/><path d="M141.6 170.008c1.305-.327 1.174-1.188 1.814-2.245.38.522 1.03 1.292 1.37.73 1.084-1.76 1.998-3.64 2.61-5.625.628-1.984 3.84-1.005 3.134-3.55-.26-.953-1.227-1.293-2.128-1.005-.287.09-.483.6-.718.952-.705-.56-1.005-1.736-1.997-1.723-.326 0-1.253 0-.692.94-1.93.366-1.657-.483-3.028.9-.68.706-.274 1.71-.222 2.78.066 1.45-1.357 3.264-1.318 4.596.026.926 1.292 1.814 1.175 3.25M165.156 161.62c.86-.17 1.188 1.397 1.67 2.31 1.985-1.84 1.893-3.354 1.67-5.756-.18-1.88-2.152.653-2.244-.378-.13-1.2.862-2.65.027-3.707-.25 2.714-2.377.116-3.095 1.24-1.214 2.022-.483 2.492 1.227 2.883-.183.522-.26 1.175-.6 1.45-.288.208-.77-.053-.836-.588-.483.274-.953.56-1.423.848.744 1.15 1.906 2.023 3.603 1.697M169.86 149.107c2.844-.523 5.716-2.82 8.353-4.947 1.462-1.188 1.005-5.156-.522-4.425-2.062.992-4.333 4.11-6.944 4.085-.535-.013-.39-1.866-1.292-1.357-2.114 1.2-2.206.705-3.968-.13-.6-.288-.21.678-.457 1.396-.066.547-.72-1.372-.9-.706-.354 1.632-.275 3.12 1.213 2.74 1.357-.338 2.623-1.304 3.524.014.718 1.057.09 3.485.992 3.33" fill="#fbbe00"/><path d="M270.172 304.165c1.122.26 2.22.418 3.367.052-.014 0-.014.013-.027.013-1.292 1.253-2.193.627-3.34-.065M138.992 236.8c-.42.444-.25-.574-.654-.248-.014-.366.117-.705.104-1.097-.013-.34-.536-.22-.523-.574-.612.184-1.24-.09-1.813-.312-.065-.105-.117-.222-.17-.326.98.208 1.958.34 2.95.43.21.287.392.588.392.953-.014.38.038.85-.288 1.175m252.01 92.987c-.98-.235-2.325.014-3.173-.43-5.26-2.663-10.874-3.968-17.087-5.443-5.874-1.397-11.956-2.245-17.57-4.15-.39-.132-.73-.497-1.004-.706-.667-.51-2.73.757-3.42-.117-.667-.848 1.67-1.892 1.135-2.636-.523-.705-2.232-.888-2.14-1.84.26-2.885-1.66-5.052-4.818-6.07-3.98-1.292-9.267-.13-12.726-1.658-5.285-2.323-8.43-6.278-14.187-7.91-3.12-.874-7.062 0-10.638.314-2.532.21-5.652.613-7.832-.157-1.357-.483-2.35-1.462-4.085-1.11-1.175.222-2.924.47-3.42 1.397-.574 1.097-.51 2.454-1.41 3.433-.496.535-1.892.21-1.762-.326.3-1.292.3-2.728 1.123-3.773.703-.926 2.727-2.688 1.878-3.054-.574-.86-6.513 3.564-10.43 4.268-1.918.34-3.236 1.606-4.502 2.95-.183-.848-1.423-1.762-2.39-2.1-3.928-1.372-8.34 1.526-12.75 1.54-1.28 0-2.22.077-3.408.143h-.052c-.614-.822-1.227-1.605-2.102-2.01-.77-.352-2.166-.026-3.563.066-1.722-1.92-3.523-6.16-4.176-8.667-.183-.72-.065-.497-1.92-.21-3.745.548-7.1 1.945-10.193 3.642-.39.208-1.174.052-1.787.365-.196-1.684-.692-3.263-.548-4.83.065-.756.04-.874.078-1.252.653-.014.535-.784 1.2-.784-1.017-1.552-.078-3.418.823-5.272.196-.378-.09-1.096-.47-1.188-3.185-.744-6.71 1.397-8.34 3.237-1.462 1.632.104 4.373-2.494 5.835-3.08 1.75-6.29 4.23-9.96 3.576-3.954-.704-5.572-3.59-8.013-5.65-2.35-1.985-.275-4.596-.863-7.455l-.104-.013c.065-.052.078-.09 0-.13-.43-.183-.94-.38-1.11-.653-.744-1.135-1.435-2.297-.34-3.733.12-.17-.208-.51-.17-.783.106-.743 1.15-.86 1.907-.834.026-.51-.587-.575-.848-.888.678-.21 1.396-.326 1.997-.68 1.278-.743 1.095-1.97.482-2.857.56-.22.874.21 1.253.21.744 0 2.14-1.136 2.558-1.54 1.67-.706 2.99.704 4.06-.536.143-.17 0-.274-.222-.143.3-.274.614-.234.823-.025.104.104.09.352.17.365.313.026.718-.3 1.005-.222.156.026.104.47.26.51 1.215.273 1.032-.693 1.867-1.254.092.274.092.718.314.77.677.21.756-.68.48-1.03.563.52 1.28-.04 1.985-.145.222-.027.405.09.405.326.274-.026.457-.21.418-.38-.13-.73-1.67.014-1.62-.873 0-.052.3-.105.47-.157-.13-.183-.012-.365.145-.522-.222-.04-.314-.21-.444-.287-.367-.21-.367.783-.928.47-.117-.066-.117-.26-.156-.405-.536.21-.94.757-1.515.692-.86-.092-.247-.666.028-.85.848-.6 2.05.628 2.754-.482-.3.08-.653.327-.836.027l-.013-.028c.183.314.548.08.85 0 .834-.39 1.278-.796 2.14-1.148.195-.078.417-.157.678-.235-.82-.223-.143-.47.014-.81.352.34.235.874.692.966.98.195.56-.235 1.33-.73.21.05 1.293-1.49 2.468-1.085.966.314 1.984.393 2.99.536 1.24.183 1.54-1.736 2.31-1.827 1.88-.236 3.72.678 4.986 1.813.365.327-.47 1.084-.052 1.632.417.548 1.174-.3 1.448.04.327.404-.195 1.135.235 1.54.223.22.64.3.98.43.092-.196.38-.43.405-.365.496 1.54 2.637 1.318 3.524 2.414.117.144.508.144.835 0-.444.092-.666.444-.405.522.613.17 1.45-.43 1.723-.796.744-1.005.287-2.258-.013-3.198-.392-1.266-1.75-1.997-2.885-2.963-.39-.327-.21-1.084-.574-1.436-.547-.536-1.148-1.058-2.05-1.358-.743-.235-.312-1.227-1.29-1.566-.13-.04-.366-.144-.47-.26-.523-1.098-.014-2.403-.288-3.59-.078-.34.248-.693.614-.954l.013.013c.416-.457-.12-.523.05-.718.21-.235.706-.183.797-.38.705-1.435 1.867-2.7 1.658-4.254-.013-.157.522-.666.81-1.057v-.013c.665-.496 1.787-.69 1.84-1.018.17-1.162 1.88-2.794 3.263-3.838.43-.326.34-.73-.144-.627-.574.118-1.253 1.397-2.01.888.313-.13.718-.144.822-.548.105-.457-.548-.483-.496-.862.04-.365.457-.56.77-.496.105.026.092.38.144.38 1.188-.236 1.736-1.607.94-1.998-1.214-.602-1.37 1.604-2.063.56-.18-.274 1.24-.496 1.372-1.227.104-.47-.68-.34-.77-.73.574-.17.21-.393.13-.575-.156-.366-.47-.522-.992-.183-.378.222-.783.9-1.11.378-.208-.3.327-.56.693-.757-.562-.456-1.227-.952-.783-1.84-.483.26-.666-.157-1.005-.17v-.026c.248-.183.744-.378.417-.665-.248-.235-.796-.222-.966-.483-.378-.64-.587-1.488-.274-2.298.04-.17.692-1.03.73-1.03-.17.508.027.965.223 1.37.013.04.222.078.21.156-.027.13-.132.287-.053.392.026.052.013.117.052.157.13.09.235.18.326.312-.078.013.013.078-.065.09.04.08-.013.158-.013.236 0 .183.065.34.117.496.038.092.208.04.26.105.157.168.34.3.535.442.21.144.483.196.627.38.326.417.065.99.117 1.487 0 .13 0 .273.117.338.104.066.196.105.248-.013.157-.326.313-.6.47-.927.04-.065-.052-.117-.04-.17.027-.378.34-.756.314-1.148 0-.026.116-.065.116-.078l.04-.966.026.013.04-.236c.103-.457.025-.966-.432-1.175-.143-.066-.313-.105-.457-.183-.117-.066-.182-.196-.3-.248-.574-.262-.966-.68-1.318-1.124.326.157.626.405 1.018.47l-.013-.026c.47.078.783-.092 1.266-.222-.078.222.13.496.352.326.04-.052-.104-.17-.065-.248.21-.51.04-.927.104-1.396 0-.053.053-.118.053-.17 0-.144-.08-.26-.08-.405.014-.274.17-.535.197-.796 0-.158-.04-.288-.026-.458.014-.274-.195-.457-.17-.73-.3.208-.65.208-.99.326.09-.066.182-.118.273-.17l-.013.013-.013-.012c.183-.144.196-.052.287-.248.04-.092.04-.21 0-.3.053-.013.222-.08.196 0 .496-.026.98-.04 1.45-.314.286-.17.573-.574.586-.548.38-.287.692-.64 1.084-.913.496-.353 1.044-.705 1.383-1.188.053-.066.08-.222.144-.314.078-.17.157-.352.26-.522.158-.234.223-.482.314-.743.054-.13 0-.287.014-.443-.26.287-.456.587-.587.913-.157-.09-.287-.04-.483.04-.026-.066-.013-.17-.065-.196-.132-.065-.354-.143-.47.027-.12.21-.08.43-.106.64-.013.143-.104.313-.234.443-.457.444-.98.666-1.515.992-.535.313-.98.692-1.435 1.097-.17.142-.353.312-.496.508-.17-.274.065-.562.182-.875.026-.052 0-.09-.013-.13l-.04.026c.08-.093.105-.223.197-.315.626-.665 1.005-.98 1.566-1.75.092-.116-.156-.18-.3-.208.065-.13.21-.208.3-.143.078.052.13.183.183.17.534-.092.86-.575 1.29-.9.145-.12.236-.3.393-.42-.105-.064-.092-.247-.196-.26-.092-.013-.13-.04-.118-.052.052-.065.156-.104.208-.078.105.052.21.117.222.26.353-.195.6-.508.836-.848.052-.065-.08-.143-.08-.235.275.275.745.223.993-.142.078-.13-.053-.21-.223-.144.013-.078.08-.143.118-.21l-.078.04c.313-.182.51-.456.704-.717.04-.053.093-.17.12-.248.012-.067.064-.158.13-.236.025-.026.078-.04.104-.04.104 0 .117.092.156.157.066.12.105.262.08.42.26-.08.495-.236.743-.393.21-.13.365-.287.548-.457.288-.287.614-.51.967-.73-.274-.21-.535-.392-.836-.6-.077-.053-.18-.105-.3-.105.236.208.354.483.59.69-.38.17-.667.497-1.046.628-.09.04-.248.052-.3-.013-.065-.092-.143-.157-.21-.235-.038-.052-.103-.092-.18-.105-.067-.013-.145.04-.223.08 0-.08-.09.012-.09-.04-.014-.066-.014-.13-.053-.157-.078-.04-.143-.09-.26-.104-.105-.015-.145-.132-.262-.158-.222-.052-.757-.85-.953-.94-.026-.013-.09-.04-.078-.104.052-.183.013-.353.117-.522.106-.183.12-.418.315-.55.22-.142.404-.364.665-.442-.026-.092.026-.235-.065-.235-.09 0-.21.012-.326.05-.054.014-.04-.065-.054-.065-.34.066-.6.288-.913.457-.092.053-.17.157-.287.235-.053.04-.013.092-.026.105-.08.052-.183.09-.248.182-.144.235-.157.47-.43.68l.86-1.867.94-.274c.313.195-1.005-.692.013-.94-.9-.927.927-.888.235-1.97.326-.067.56-.497.94-.367-.248-.43.483-1.07.013-1.45.587-.442 1.436-.312 1.814-.795.875-1.056 1.5-1.722 2.167-2.844.144-.248-.21-.575.21-.927-.59-.42-1.306-.823-2.116-.353 1.07-1.07 1.488-2.428 2.467-3.773.43-.587 1.097.053 1.723-.352-1.58 1.997-2.075 3.537-1.775 5.43.13.81 1.8 1.945 2.258 1.2 2.116-3.55 2.834-7.01 6.462-10.48.783-.745-1.07-.614-.966-1.476-2.493 1.606-5.534 3.668-7.544 3.133-1.84-.497-4.23-.902-4.02-3.538-.392 1.396-1.697 1.92-2.99 2.44 2.872-1.657 3.694-6.12 1.37-5.273-5.833 2.127-7.857 9.906-10.415 15.1.287-3.262.783-6.512 1.867-9.92.17-.547.952-1.63 1.984-2.322.235-.157-.496-.34-.653-.6-.405-.666.888-1.45 1.305-1.92 2.754-3.158 6.67-5.364 9.71-8.405 1.53-1.527 3.695-2.91 4.4-5.156.875-2.78 1.54-5.247 2.61-8.132 1.737-4.634-4.698-5.717-8.875-3.93-.105-1.343-1.41-.952-2.337-1.108-.94 2.323-3.81 3.263-5.612 2.767-.366-.104-.327-1.2-.548-1.175-1.253.156-2.885 1.774-3.76 1.54-.94-.25-1.984-1.2-2.923-1.49-3.825-1.16-7.205-3.197-11.683-2.753 1.24 2.61 2.063 6.605.08 8.445-2.612 2.428-7.56-.56-9.216-3.59-2.415 1.685-4.908 1.15-7.22 1.358-1.957.183-3.523 3.016-5.977 3.564-.47.104-.275 1.305-1.19 1.592 2.116 3.25 7.193 6.16 4.19 11.07 2.755.808 6.11-1.098 7.624 1.552 1.606 2.82-1.958 6.58-1.618 8.89.378 2.636 4.947 3.902 4.503 7.335-.053.443-1.058 1.788-1.32 1.918-4.855 2.547-7.635-2.31-8.94-6.055-.144-.43-1.24-.744-1.763-.51-4.45 1.972-9.463 3.395-13.757 1.202-1.266-.653-3.198 2.193-4.53 1.396-1.37-.835-1.814-2.884-3.224-3.824-.248-.17-1.174.743-1.697.652-.836-.118-.64-1.32-.81-2.063-1.24-5.274 1.28-10.404 3.55-15.625.222-.522 1.32-1.618 1.49-2.35.495-2.323-.72-4.006.13-6.147-.967.43-.915-.744-1.54-.862.39-.026 1.017-.143.847-.052.966-1.63 2.598-.692 3.694-2.023 1.058-1.29 1.11-3.092 1.176-4.62.09-2.336-3.302.183-3.276-1.527.013-.98.535-2.193-.248-2.858-1.488-1.28-3.72-.21-5.587-.405.56 1.88 2.61 2.937 2.415 5.012-.144 1.45-.98 2.95-.457 4.412-2.193-.613-3.472-2.48-4.36-4.503-.143-.325-.81-.325-1.266-.456.457 1.123 1.084 2.18.85 3.59-.928-1.345-1.96-2.86-3.982-2.402.626-3.668-3.224-4.203-4.895-6.017.496-.288.98-.562 1.462-.85-1.11-.077-.927-1.683-1.97-1.84 2.91-.756 3.42-4.437 1.565-5.495-.77-.43-2.69 1.306-4.15 2.193.94 1.854 1.957 3.8 2.545 5.69.64 2.064-1.84 5.275-.013 7.037 1.552 1.5 5.572-.953 5.18 2.193-.247 2.088-1.33 4.163-2.088 6.265-.326.914-.274-1.292-1.266-.77.183-1.54-.627-3.185 1.03-4.595-1.526-.235-3.21-2.05-4.267-.68-1.267 1.62.286 3.265 1.71 4.426-.758.665.22 2.01-1.293 2.492-2.48.797-4.386-.26-6.657.26-1.658.367-2.585-1.604-4.438.85.117.705.835 2.193 2.31 2.637-.457.247-.9.625-1.37.716-1.684.327-2.663-1.683-4.1-1.318-1.265.313-2.505.966-3.85 1.345-.757.22-1.03-.614-.913-1.006.195-.665.56-1.488 1.265-1.957-1.697-2.702-5.13.065-6.866-1.763-.536-.56-1.07-1.41-1.685-1.683-.744-.34-.966 1.383-1.93 1.58 0-.954.273-2.076-1.046-2.26.195 1.084-1.2 1.398-1.136 2.403-.666-3.8-4.086-3.342-6.957-1.736-.47.262-1.03-.626-1.462-.56-1.123.156-2.363 1.07-2.585 2.545-1.422-2.154-3.198-3.98-4.947-5.848l.053-.157c-2.428-1.54-3.016-3.876-5.09-5.834-1.398-1.332-2.324-3.224-3.356-5.025-.9-1.58-2.545.105-3.707-.22-1.33-.393-1.683-2.468-3.197-1.96-.457.157-.81.6-1.267.745-1.567.483-3.12-1.293-4.164-.548-1.893 1.344-1.5 4.88-1.005 6.552.614 2.048 1.737 3.21-.065 5.298-1.775-1.984-2.754-2.323-.86-4.842-2.037-.04-4.426-1.697-5.862 0-.587.692.287 2.44-1.292 2.884 1.463 1.54 2.56 2.246 3.42 4.32.64 1.58 2.39-.077 2.624.614.535 1.67-1.5 3.03-2.57 3.616-1.306.705-2.625-1.827-4.308-1.932-1.802-.09-2.337 2.297-4.203 2.898-2.533.81-.418 4.112-1.606 6.435.862.353 2.284-.508 2.31.066.066 1.645-.81 3.446-1.54 5.078.862.378 1.762-.196 2.545.17 1.906.86.483 3.693 3.21 2.923-.69 4.255-5.363 2.61-7.895 3.955-.523.287-2.05 2.676-.483 2.454 4.007-.574 7.857-.3 11.85-1.083 1.646-.327 1.62-2.872 3.043-3.68.274-.145.9.338 1.083.182 1.005-.875 1.58-2.18 1.71-3.63 1.28.184 2.506.536 3.68 1.097-.913.55-2.153.862-2.557 1.736-.575 1.24-2.05 1.62-2.167 2.415-.26 1.566 1.92 1.188 2.924 1.044 1.723-.235 3.145-1.71 4.516-2.99 1.37 2.22 3.63 3.5 5.508 4.987-.104.353-.196.705-.313 1.07-.404 1.37 2.102.68 2.324 1.554.418 1.684 1.097 2.963 2.624 3.107.483.052 1.736-.08 1.762-1.306 2.39 3 3.72 6.617 4.594 10.39.288 1.187 1.776 2.022 2.585 3.093 1.017 1.357-.536 2.662-1.998 3.485l-.196-.392c-.365 1.462-.496 3.04.692 3.98 2.206 1.763 1.436 4.7 2.937 6.67.496.654 1.592.562 2.075 1.32-1.45.287-2.57-.653-3.89-.862 1.75 3.08 4.74 4.947 7.1 7.57.132.13.236.183.34.21.21.456.43.926.47 1.396.013.13.3.196.496.04l-.222 1.24.013-.014c-.04.157-.065.327-.078.483-.053.365.352.743.325 1.096-.22 3.08 1.854 6.408 1.123 9.32.352.025.496.273.483.547-.012.196-.247.405-.208.588.118.614.64 1.15.587 1.71-.027.484-.157 1.02-.483 1.554-.262.405-.34 1.15.13 1.527.287.223.313.68.77.706-.6.666 0 1.384.196 1.88.313.796.796 1.605 1.253 2.388.118.222.444.81.888.575.34-.17-.17-.628.13-.94.444.704.653 1.526 1.2 2.18-.652-.067-.704-.928-1.435-.902.117.666.13 1.397.626 1.88.21.208.64.34 1.018.13.09.196.183.392.274.6-.6.105-.326.653-.313.85.078.64.992.847 1.462 1.33.51.51.378 1.24.587 1.867.248-.13.56-.13.73-.013.562.457-.09 1.357.353 1.63.353.223 1.084.106 1.67.054.745-.053 1.332.73 2.063.913.288.065.718 0 1.005.208 1.084.783 2.69.992 3.016 2.363.105.418-.143.993.183 1.267.053.04.105.065.144.104 1.018 2.847 1.083 3.76 4.085 5.614 1.227.757 3.146 1.135 3.16 2.623.012 1.07-1.75.94-2.664 1.488 2.35 1.45 5.13 2.09 7.558 3.485.81.47.365 1.632.927 2.14 1.932 1.776 4.712 2.024 6.8 3.695.105.078.666-.21 1.057-.352-.548-1.018-.717-2.35-1.997-2.833-.235-.078-.874.366-1.187-.013-3.46-4.386-7.127-8.275-11.696-11.76-.835-.64-2.14-2.415-.574-3.303 1.005-.587 2.232.588 2.78 1.384 2.572 3.798 6.396 6.056 10.73 8.484.51.287-.144 1.567.73 1.775 5.613 1.28 12.583 4.373 12.244 10.038-.13 2.114 3.968 3.185 6.892 2.976 6.383-.456 12.243 1.176 18.626 1.084.94-.026 2.023-.417 2.806-.926 1.2-.77 1.815-2.35 3.198-2.206 6.892.744 14.332 3.563 21.237.26 1.957 1.41 5.742 1.515 6.447 2.95.98 1.96 2.102 3.603 5.195 3.956 3.224.365 6.174.587 9.033 1.253.69.34 1.41.627 2.245.758.09.013.26.013.443 0 1.488.444 3.89-.38 5.222-1.788.587-.614-.21-1.045-1.136-1.32-.288-.077-.027-.508.312-.82.43.17.705.782 1.07.99 1.397.758 1.84 2.468 2.363 3.85.888 2.338.627 5.183-.535 7.598-.796 1.62-2.57 2.86-3.98 4.516-.693.823-2.377.992-3.343 1.762-2.22 1.815-3.902 4.712-2.27 6.788.22.26 1.11.39 1.814.17-.443 1.71-2.962 2.258-3.76 3.667-.534.954.59 1.816.315 2.834-.392-.183-.757.496-1.15.117 1.032 1.907 3.695 2.742 4.896 4.452 1.215 1.75 2.925 3.198 3.786 5.013 1.11 2.31 2.624 4.385 4.373 6.278 3.327 3.576 10.428 3.955 14.122 7.192 1.723 1.5.34 4.307.26 6.552-.182 4.882-1.97 9.738-2.675 14.45-.326 2.1.352 4.085-.013 6.187-.418 2.4-2.48 4.7-2.415 7.035.025.965.573 1.957.613 2.923.026.6-.797 1.15-.614 1.8.247.824 1.63 1.15 2.753.576.653 1.29.627 2.805-.665 3.927-.21.183-1.306-.013-1.45.144-.913 1.045-.326 2.272-.626 3.42.757-.143 1.084.314 1.697.392-.55.092-.536.562-.55.64-.234 3.368 2.572 6.396 6.188 8.667-1.097-.288.34.9 2.676 1.317 2.023.38 4.046.222 6.056-.274.144-.052.796-.587.405-.68-1.723-.35-3.368-.743-4.53-1.513-.796-.535-1.2-1.318-1.553-2.023-.64-1.253.64-2.493 1.253-3.785.575-1.2 3.263-1.75 3.146-3.08-.064-.823-2.505-.718-2.35-1.462.21-.927 1.046-1.945 2.638-2.65.966-.43.352-1.788 1.514-2.22.927-.34 2.74-.926 2.193-1.774-1.096.365-2.14.992-2.715.457-.457-.444.496-1.267.313-1.97 1.45.13 2.807.795 4.308.05 1.828-.874.262-2.57 1.28-2.936 3.263-1.188 9.215-1.044 10.755-4.02.444-.836-.378-1.423-.496-2.324-.066-.56-1.593-.678-1.906-1.383 1.37-.21 2.258.287 3.42.457 1.266.182 2.962.482 3.98.04 6.684-2.964 10.665-7.18 16.604-10.952 1.75-1.11 1.88-2.663 3.276-3.995 1.866-1.762 4.842-2.388 7.61-3.276 3.602-1.148 7.675-.992 11.147-2.1 4.92-1.594 8.224-5.288 11.004-8.577 2.82-3.355 4.595-6.866 8.654-10.05 5.312-4.164 11.486-7.532 17.595-11.37-.953-1.957 2.193-5.35-1.253-6.2" fill="#fbbe00"/><path d="M240.807 298.082c0 .026-.13.026-.065.144.156.09.274.104.456.09.04-.09.092-.39.092-.455-.21-.117-.483-.156-.718-.09.013.13.065.208.157.312M242.435 298.646c-.157.914 3.184 1.893 3.093.9-.078-.782-2.767-1.722-3.407-1.618-.038.13-.038.327 0 .47.288.052.223.21.315.418" fill="#0063a6"/><path d="M243.406 298.89c.09.04.143.13.313.08.038-.08.077-.158.103-.236-.182-.157-.287-.222-.56-.157-.04.183.038.26.143.392" fill="#fbbe00"/><path d="M315.646 428.012l3.394 3.955 12.622-9.216-3.968-4.24-12.048 9.502zM332.65 468.966c-8.68 0-15.73-7.05-15.73-15.73 0-8.692 7.05-15.727 15.73-15.727 8.693 0 15.74 7.034 15.74 15.727 0 8.68-7.047 15.73-15.74 15.73m-.144-36.85c-11.656 0-21.12 9.45-21.12 21.12 0 11.67 9.464 21.107 21.12 21.107 11.67 0 21.12-9.437 21.12-21.107s-9.45-21.12-21.12-21.12M479.024 236.578c-8.68 0-15.728-7.048-15.728-15.73 0-8.692 7.048-15.74 15.728-15.74 8.693 0 15.73 7.048 15.73 15.74 0 8.682-7.037 15.73-15.73 15.73m-.143-36.848c-11.655 0-21.12 9.45-21.12 21.12 0 11.656 9.465 21.12 21.12 21.12 11.67 0 21.12-9.464 21.12-21.12 0-11.67-9.45-21.12-21.12-21.12M379.683 80.888c-8.693 0-15.742-7.05-15.742-15.73 0-8.692 7.05-15.74 15.743-15.74 8.68 0 15.728 7.048 15.728 15.74 0 8.68-7.047 15.73-15.727 15.73m-.144-36.848c-11.67 0-21.12 9.45-21.12 21.12 0 11.655 9.45 21.12 21.12 21.12 11.668 0 21.118-9.465 21.118-21.12 0-11.67-9.45-21.12-21.12-21.12M263.35 448.126l.273 5.534s-11.33-.287-11.33 13.745l1.266 22.542-5.09.274-1.567-24.368s-.418-16.72 16.446-17.726M199.703 427.44l5.247 1.983-4.112 12.752 7.088 2.128-1.423 5.247-7.088-1.984-9.92 33.728-5.247-1.697 9.933-33.454-7.086-1.984 1.553-4.817 6.944 1.697 4.113-13.6zM139.608 447.142s-11.2 8.928-20.976-1.423c0 0-10.207-11.187 1.423-22.53 0 0 9.346-7.662 19.41-1.28 0 0 7.648 5.666 6.095 13.615l4.673 2.258s4.255-13.327-11.186-22.255c0 0-17.008-6.944-27.228 9.215 0 0-9.06 16.16 7.243 28.494 0 0 14.162 7.65 25.074-3.55l-4.53-2.545zM482.967 292.788s9.242 10.95-.848 21.002c0 0-10.913 10.507-22.556-.796 0 0-7.91-9.137-1.814-19.37 0 0 5.456-7.82 13.444-6.475l2.127-4.74s-13.43-3.875-21.927 11.8c0 0-6.474 17.204 9.946 26.955 0 0 16.406 8.628 28.284-8 0 0 7.258-14.373-4.23-24.984l-2.427 4.608zM85.463 395.12L66.04 372.578c11.2-7.074 19.71 2.976 19.71 2.976 7.936 10.925-.287 19.566-.287 19.566m5.103-21.824c-13.744-15.872-29.2-4.255-29.2-4.255-17.006 13.89-4.11 30.192-4.11 30.192 10.768 11.63 24.095 5.103 24.095 5.103l-3.25-3.824c-10.493 3.12-16.876-4.528-16.876-4.528-8.223-11.904.43-19.997.43-19.997l23.378 26.51c17.725-14.32 5.534-29.2 5.534-29.2M15.018 334.747l1.984 4.96 50.32-21.393-2.13-4.83-50.174 21.263zM25.6 290.898l-3.264-29.564c13.248.483 14.567 13.588 14.567 13.588.365 13.496-11.304 15.976-11.304 15.976m16.55-15.115c-2.35-20.87-21.655-20.023-21.655-20.023-21.89 1.828-20.48 22.568-20.48 22.568 2.31 15.677 16.982 17.843 16.982 17.843l-.522-4.998C6.06 287.805 5.132 277.885 5.132 277.885c-.04-14.463 11.656-16.238 11.656-16.238l4.295 35.086c22.698-1.775 21.067-20.95 21.067-20.95M48.612 194.435l-12.126.522-6.435 10.285-4.254-11.37-11.774-2.935 9.503-7.558-.836-12.114 10.115 6.71 11.265-4.543-3.25 11.695 7.792 9.307z" fill="#0063a6"/><path d="M43.51 191.457l-8.08.627-4.074 7.022-3.093-7.492-7.936-1.697 6.174-5.26-.834-8.067 6.904 4.242 7.414-3.29-1.892 7.885 5.417 6.03z" fill="#fbbe00"/><path d="M457.547 141.616l-12.126.535-6.434 10.286-4.255-11.37-11.772-2.95 9.502-7.556-.835-12.113 10.115 6.71 11.252-4.543-3.237 11.695 7.792 9.306z" fill="#0063a6"/><path d="M452.445 138.64l-8.093.626-4.046 7.022-3.107-7.492-7.937-1.697 6.174-5.26-.835-8.068 6.905 4.243 7.414-3.29-1.905 7.884 5.43 6.03z" fill="#fbbe00"/><path d="M422.69 346.06l8.33 5.65-3.277 4.465-7.727-5.365 2.675-4.75zM434.88 354.09l34.212 21.12-2.976 4.163-34.21-21.12 2.975-4.163zM408.71 435.296l-18.444-20.218s-5.352-6.252 1.788-13.993c0 0 7.727-7.427 16.055.6l16.654 18.144 4.177-3.865-16.955-17.856s-11.303-12.492-23.494-1.49c0 0-11.303 10.718-2.088 22.02l18.444 19.92 3.863-3.264zM215.795 47.055L213.263 19.8s-.51-8.21 9.855-10.076c0 0 10.65-1.28 12.452 10.155l2.363 24.512 5.652-.574-2.768-24.46s-1.5-16.787-17.87-15.35c0 0-15.466 1.735-14.918 16.315l2.7 27.02 5.065-.288zM152.876 20.695l10.716 25.192s2.976 7.662-6.317 12.596c0 0-9.764 4.464-14.96-5.874l-9.71-22.634-5.208 2.27 10.09 22.452s6.526 15.532 21.68 9.176c0 0 14.215-6.357 9.255-20.076l-10.808-24.904-4.738 1.8zM96.187 76.15l17.203 16.916 3.89-3.994L99.79 72.47s-11.696-11.657-23.065-.275c0 0-6.696 7.035-4.516 15.27-4.14-1.017-9.282-.534-14.372 4.544 0 0-10.52 11.054-.927 21.64l19.045 18.56 3.616-3.38-19.056-18.86s-5.548-5.848 1.044-13.77c0 0 7.192-7.663 15.74-.223l17.218 16.903 1.906-1.97 2.036-1.907-.09-.09.025-.027-1.097-1.044-17.895-17.7s-5.56-5.834 1.045-13.77c0 0 7.192-7.662 15.742-.222M304.444 44.387c-8.68 0-15.728-7.035-15.728-15.728 0-8.694 7.048-15.743 15.728-15.743 8.693 0 15.73 7.05 15.73 15.742s-7.037 15.727-15.73 15.727m19.8-8.837c.445-1.253.758-2.545.94-3.89l7.337-30.49-4.842-1.175-4.582 19.044c-3.498-6.828-10.585-11.5-18.782-11.5-11.67 0-21.133 9.45-21.133 21.12 0 11.655 9.464 21.118 21.134 21.118 9.11 0 16.864-5.795 19.827-13.9l.04.012.065-.34z" fill="#0063a6"/><path d="M338.884 228.005c18.56 96.03-2.65 180.885-47.356 189.538-44.718 8.628-96.002-62.21-114.563-158.25-18.56-96.03 2.65-180.885 47.368-189.526 44.706-8.628 95.99 62.21 114.55 158.238zm-45.58 8.81c18.548 96.03 16.342 177.217-4.934 181.33-21.29 4.11-53.582-70.407-72.13-166.436-18.56-96.03-16.342-177.218 4.934-181.33 21.276-4.11 53.57 70.407 72.13 166.436zm85.56-16.524c18.548 96.017-20.388 184.305-86.996 197.175-66.595 12.87-135.618-54.547-154.18-150.59-18.547-96.015 20.39-184.303 86.984-197.173 66.608-12.857 135.63 54.547 154.192 150.59zm37.866-7.322c18.548 96.03-37.814 187.672-125.906 204.693-88.093 17.035-174.554-47.015-193.102-143.057C79.174 178.573 135.535 86.93 223.628 69.91c88.093-17.02 174.54 47.03 193.102 143.058zm11.917-2.31C447.207 306.7 384.4 399.583 288.37 418.144c-96.042 18.548-188.925-44.25-207.486-140.278-18.548-96.042 44.26-188.925 140.29-207.486 96.03-18.548 188.925 44.25 207.473 140.278zM221.174 70.38L288.5 418.836M136.762 111.353s122.853-20.715 181.433-32.15m-212.85 70.72s159.27-24.995 257.125-47.864M83.912 199.197s191.418-13.562 312.847-61.426M77.476 249.92s175.716 12.857 344.983-62.86M87.488 305.63s216.05 19.996 344.266-67.862M113.202 352.763s189.278 30.008 313.553-65.708m-272.84 102.138s145.693 27.137 252.125-51.428m-199.994 76.437s90 6.422 155-27.15" fill="none" stroke="#223d89" stroke-width="3.211"/><path d="M340.568 177.868c48.203-6.552 63.188 34.63 63.188 34.63L292.364 227.95c10.285-45.41 48.204-50.082 48.204-50.082m16.38 113.272s-54.755 5.612-63.657-49.627l128.713-17.308s-6.07-52.89-66.45-61.32c0 0-44.472-6.554-71.62 43.53 0 0-17.31-30.413-51.95-25.27 0 0-26.21 1.396-38.376 31.352 0 0-16.38-32.762-59.925-17.32 0 0-36.04 12.177-30.883 51.022l12.164 92.204 17.32-1.867-11.694-92.204s-1.88-26.68 26.667-34.172c0 0 30.426-5.142 39.315 27.15l12.648 89.398 18.247-1.88-11.695-91.264s-3.276-27.15 29.016-35.57c0 0 30.896-2.818 36.98 28.548L284.4 315.94l18.717-2.337-4.204-29.486s31.353 32.293 74.414 17.308c0 0 38.845-11.225 47.747-53.816l-13.575-1.41s-11.24 41.663-50.553 44.94" fill="#de2516"/><path d="M340.568 177.868c48.203-6.552 63.188 34.63 63.188 34.63L292.364 227.95c10.285-45.41 48.204-50.082 48.204-50.082zm16.38 113.272s-54.755 5.612-63.657-49.627l128.713-17.308s-6.07-52.89-66.45-61.32c0 0-44.472-6.554-71.62 43.53 0 0-17.31-30.413-51.95-25.27 0 0-26.21 1.396-38.376 31.352 0 0-16.38-32.762-59.925-17.32 0 0-36.04 12.177-30.883 51.022l12.164 92.204 17.32-1.867-11.694-92.204s-1.88-26.68 26.667-34.172c0 0 30.426-5.142 39.315 27.15l12.648 89.398 18.247-1.88-11.695-91.264s-3.276-27.15 29.016-35.57c0 0 30.896-2.818 36.98 28.548L284.4 315.94l18.717-2.337-4.204-29.486s31.353 32.293 74.414 17.308c0 0 38.845-11.225 47.747-53.816l-13.575-1.41s-11.24 41.663-50.553 44.94z" fill="none" stroke="#ee8615" stroke-width="12.309"/><path d="M340.568 177.868c48.203-6.552 63.188 34.63 63.188 34.63L292.364 227.95c10.285-45.41 48.204-50.082 48.204-50.082m16.38 113.272s-54.755 5.612-63.657-49.627l128.713-17.308s-6.07-52.89-66.45-61.32c0 0-44.472-6.554-71.62 43.53 0 0-17.31-30.413-51.95-25.27 0 0-26.21 1.396-38.376 31.352 0 0-16.38-32.762-59.925-17.32 0 0-36.04 12.177-30.883 51.022l12.164 92.204 17.32-1.867-11.694-92.204s-1.88-26.68 26.667-34.172c0 0 30.426-5.142 39.315 27.15l12.648 89.398 18.247-1.88-11.695-91.264s-3.276-27.15 29.016-35.57c0 0 30.896-2.818 36.98 28.548L284.4 315.94l18.717-2.337-4.204-29.486s31.353 32.293 74.414 17.308c0 0 38.845-11.225 47.747-53.816l-13.575-1.41s-11.24 41.663-50.553 44.94" fill="#de2516"/></svg>