<svg xmlns="http://www.w3.org/2000/svg" width="400" height="131.91"><path d="M183.403 11.163L169.28 42.42l-14.12-31.257h-4.922l-12.083 53.833h11.815l6.265-28.526 9.846 23.988h6.402l9.847-23.988 6.263 28.526h11.815l-12.084-53.833h-4.92M230.347 52.066c-7.15 6.1-14.32 3.808-14.32-2.887V27.25h-10.474v26.406c0 6.086 5.37 11.725 12.083 11.725 4.987 0 9.717-2.707 12.71-4.878v4.494h10.474V27.25h-10.473v24.816M325.49 30.34l-6.94-4.46-14.783 14.555V11.163h-10.472v53.833h10.472v-14.22l2.578-2.427 10.5 16.646h13.334l-15.77-24.23 11.08-10.426M272.775 25.457c-4.988 0-9.72 2.707-12.71 4.88v-3.893l-10.474.806v37.746h10.474V39.808c7.15-6.34 14.32-4.844 14.322 1.85v23.338h10.47V37.182c0-6.086-5.37-11.725-12.08-11.725M209.67 24.297h9.667v-9.13h-9.666v9.13zM226.677 24.297h9.668v-9.13h-9.668v9.13zM341.747 42.5c.83-3.583 3.237-8.4 8.674-8.4 6.325 0 8.82 4.578 9.702 8.4h-18.375zm9.04-17.442c-5.57-.09-19.882 3.923-19.882 20.91 0 16.985 14.312 19.546 20.705 19.546 7.763 0 13.697-3.013 13.697-3.013v-9.315s-7.398 3.197-13.06 3.197c-6.42 0-9.762-4.6-10.632-8.858h27.893c0-5.646-1.15-22.466-18.722-22.466M386.107 49.796V11.163H375.46v38.633c0 5.875.405 10.24 8.888 15.718l7.302-6.906c-2.618-1.374-5.543-5.425-5.543-8.812M132.807 71.45H400v-1.32H132.807v1.32z" fill="#336fbf"/><path d="M175.306 77.092l-14.12 31.256-14.12-31.256h-4.923l-12.083 53.832h11.814l6.266-28.526 9.845 23.988h6.402l9.846-23.988 6.266 28.526h11.814L180.23 77.092h-4.924M206.706 108.43c.833-3.584 3.238-8.402 8.674-8.402 6.326 0 8.82 4.577 9.7 8.402h-18.374zm9.04-17.443c-5.57-.092-19.883 3.923-19.883 20.908 0 16.987 14.313 19.548 20.705 19.548 7.762 0 13.697-3.015 13.697-3.015v-9.313s-7.395 3.195-13.058 3.195c-6.42 0-9.762-4.6-10.633-8.858h27.892c0-5.644-1.148-22.465-18.72-22.465M394.2 115.725V77.092h-10.643v38.633c0 5.874.4 10.24 8.888 15.718l7.3-6.906c-2.62-1.374-5.545-5.426-5.545-8.812M284.857 130.924H295.5V93.347h-10.643v37.577M284.857 89.04H295.5V78.713h-10.643v10.33M265.302 119.085c-1.89 2.016-4.934 3.1-7.25 3.1-6.876 0-9.126-5.8-9.126-11.353 0-4.517 1.53-10.865 9.76-10.865 3.646 0 5.585 1.277 6.616 3.237v15.88zm0-25.01c-1.747-1.385-4.26-2.222-7.873-2.222-14.475 0-19.132 11.31-19.132 19.36 0 9.894 4.87 20.23 16.966 20.23 2.987 0 6.983-1.728 10.038-4.592l2.47 4.074h8.173V77.092h-10.643v16.984M323.452 122.216c-4.162 0-10.303-3.13-10.303-10.08 0-5.897 3.356-11.527 9.562-11.527 4.995 0 8.327 2.66 10.262 4.193V93.347c-1.333-1.03-6.474-2.185-10.65-2.185-11.822 0-19.955 8.945-19.955 20.052 0 15.315 8.797 20.23 19.608 20.23 5.62 0 10.85-2.645 11.712-3.693v-9.87c-1.54 1.868-5.428 4.336-10.238 4.336M362.915 120.213c-2.138.848-4.516 1.462-6.62 1.462-4.163 0-7.955-2.59-7.955-9.54 0-5.896 2.002-11.778 8.208-11.778 2.263 0 4.458 1.023 6.367 2.283v17.573zm10.643-3.2V93.59l-2.292-1.268-5.604 2.384c-2.596-1.76-6.317-3.544-9.504-3.544-11.818 0-18.6 8.945-18.6 20.052 0 13.845 9.092 19.948 17.042 19.948 2.668 0 6.646-2.227 9.733-4.477 1.3 2.702 3.388 4.64 5.834 5.225l8.29-7.02c-3.72-1.186-4.9-4.49-4.9-7.878M51.682 130.924H74.55V0H51.682v130.924z" fill="#8cd02a"/><path d="M126.23 86.258l-10.788 20.166L0 44.666l10.788-20.164L126.23 86.258" fill="#8cd02a"/><path d="M0 86.258l10.788 20.166L126.23 44.666l-10.788-20.164L0 86.258" fill="#8cd02a"/><path d="M63.133 71.308c-.007.014-.01.028-.017.042.302.716.288 1.494.406 2.246.76 4.893.975 9.826 1.26 14.763.348 5.978.48 11.94-.018 17.906-.084 1.003.024 1.743.964 2.215h2.66c.865-.556 2.61-.76.864-2.34-.22-.198-.042-.85-.035-1.29.113-6.566.013-13.14.573-19.69.192-2.248.084-4.592 1.062-6.944 4.45 5.39 8.337 10.848 12.142 16.37.87 1.264 1.328 2.505 1.312 4.083-.044 4.39.603 4.69 4.46 2.84 1.44-.69 1.443-1.386.684-2.457-1.687-2.376-2.507-5.134-3.434-7.836-.89-2.596-2.254-4.91-3.676-7.25-4.44-7.292-10.063-14.298-12.153-22.753-.273-1.103-.886-2.226-1.053-3.38-.67-4.635.074-8.716 1.717-12.9.788-2.005 2.313-2.468 4.02-2.293 5.714.588 11.325-.027 16.943-.972 2.288-.384 4.532-.997 6.96-.688 2.07.263 4.06-.568 5.687-2 .376-.33 1.037-.65.803-1.178-.162-.364-.802-.6-1.273-.73-2.23-.616-4.415-.2-6.506.566-1.745.64-3.47.873-5.393.672.457-.84 1.238-.985 1.807-1.41 4.067-3.02 8.896-4.945 12.467-8.676v-.887c-1.242-1.665-2.65-.95-3.872-.105-1.953 1.347-3.993 2.47-6.168 3.42-4.866 2.122-9.926 3.754-14.768 5.932-.9.405-1.85.37-2.814.405-3.177.114-6.302-.588-9.48-.52-3.098.067-3.407-.34-2.963-3.483.275-1.965.818-3.886.765-5.905-.06-2.308-.915-3.974-3.268-4.623-.14-.032-.267-.05-.387-.067-.09-.015-.188-.023-.294-.022-.108 0-.205.008-.294.023-.12.016-.247.035-.388.066-2.352.648-3.207 2.314-3.268 4.622-.054 2.02.49 3.94.768 5.905.443 3.143.132 3.55-2.965 3.483-3.18-.068-6.304.634-9.48.52-.965-.036-1.913 0-2.815-.406-4.842-2.178-9.9-3.81-14.768-5.933-2.176-.95-4.215-2.07-6.168-3.418-1.222-.844-2.63-1.56-3.873.105v.887c3.573 3.73 8.4 5.655 12.467 8.677.57.425 1.35.57 1.806 1.41-1.922.2-3.647-.033-5.393-.672-2.09-.766-4.278-1.182-6.506-.565-.47.13-1.11.365-1.27.73-.236.528.424.848.8 1.178 1.628 1.432 3.618 2.263 5.687 2 2.43-.31 4.673.304 6.96.688 5.62.945 11.23 1.56 16.943.973 1.708-.174 3.233.29 4.02 2.293 1.644 4.185 2.387 8.266 1.717 12.9-.167 1.15-.83 2.274-1.105 3.38-2.08 8.488-7.68 15.514-12.13 22.83-1.424 2.338-2.788 4.652-3.678 7.247-.926 2.703-1.746 5.46-3.433 7.836-.76 1.072-.755 1.767.683 2.457 3.86 1.85 4.507 1.55 4.462-2.842-.017-1.575.444-2.817 1.312-4.08C47.01 89.138 50.9 83.68 55.347 78.29c.98 2.355.87 4.696 1.064 6.947.56 6.547.462 13.122.575 19.687.007.442.186 1.094-.035 1.292-1.748 1.58-.002 1.782.862 2.34h2.66c.942-.47 1.048-1.212.966-2.214-.5-5.966-.37-11.928-.022-17.907.287-4.938.504-9.87 1.264-14.764.12-.778.1-1.583.436-2.32l.017-.042" fill="#346fc0"/></svg>