<?xml version="1.0" encoding="UTF-8" standalone="no"?>
<!-- Created with Inkscape (http://www.inkscape.org/) -->

<svg
   xmlns:dc="http://purl.org/dc/elements/1.1/"
   xmlns:cc="http://creativecommons.org/ns#"
   xmlns:rdf="http://www.w3.org/1999/02/22-rdf-syntax-ns#"
   xmlns:svg="http://www.w3.org/2000/svg"
   xmlns="http://www.w3.org/2000/svg"
   xmlns:sodipodi="http://sodipodi.sourceforge.net/DTD/sodipodi-0.dtd"
   xmlns:inkscape="http://www.inkscape.org/namespaces/inkscape"
   width="105.83334mm"
   height="169.1917mm"
   viewBox="0 0 105.83334 169.1917"
   version="1.1"
   id="svg8029"
   inkscape:version="0.92.1 r15371"
   sodipodi:docname="myli_design.svg">
  <defs
     id="defs8023" />
  <sodipodi:namedview
     id="base"
     pagecolor="#ffffff"
     bordercolor="#666666"
     borderopacity="1.0"
     inkscape:pageopacity="0.0"
     inkscape:pageshadow="2"
     inkscape:zoom="0.35"
     inkscape:cx="-207.23042"
     inkscape:cy="-11.148116"
     inkscape:document-units="mm"
     inkscape:current-layer="layer1"
     showgrid="false"
     fit-margin-top="0"
     fit-margin-left="0"
     fit-margin-right="0"
     fit-margin-bottom="0"
     inkscape:window-width="1280"
     inkscape:window-height="656"
     inkscape:window-x="0"
     inkscape:window-y="27"
     inkscape:window-maximized="1" />
  <metadata
     id="metadata8026">
    <rdf:RDF>
      <cc:Work
         rdf:about="">
        <dc:format>image/svg+xml</dc:format>
        <dc:type
           rdf:resource="http://purl.org/dc/dcmitype/StillImage" />
        <dc:title></dc:title>
      </cc:Work>
    </rdf:RDF>
  </metadata>
  <g
     inkscape:label="Capa 1"
     inkscape:groupmode="layer"
     id="layer1"
     transform="translate(-6.448762,23.307975)">
    <g
       id="g8740"
       transform="matrix(1.7735279,0,0,1.7735279,-4.9882968,-112.84512)">
      <g
         transform="matrix(0.35277777,0,0,-0.35277777,7.701334,100.8092)"
         id="g388">
        <path
           inkscape:connector-curvature="0"
           id="path390"
           style="fill:none;stroke:#f39200;stroke-width:6.63500023;stroke-linecap:round;stroke-linejoin:round;stroke-miterlimit:10;stroke-dasharray:none;stroke-opacity:1"
           d="M 0,0 C 0,0 1.237,25.883 20.297,26.236 39.357,26.589 39.686,1.037 39.686,1.037 l 0.182,-28.027" />
      </g>
      <g
         transform="matrix(0.35277777,0,0,-0.35277777,21.727037,100.7761)"
         id="g392">
        <path
           inkscape:connector-curvature="0"
           id="path394"
           style="fill:none;stroke:#f39200;stroke-width:6.63500023;stroke-linecap:round;stroke-linejoin:round;stroke-miterlimit:10;stroke-dasharray:none;stroke-opacity:1"
           d="M 0,0 C 0,0 1.237,25.883 20.297,26.236 39.357,26.589 39.686,1.037 39.686,1.037 l 0.182,-28.027" />
      </g>
      <g
         transform="matrix(0.35277777,0,0,-0.35277777,7.6817549,91.327868)"
         id="g396">
        <path
           inkscape:connector-curvature="0"
           id="path398"
           style="fill:none;stroke:#f39200;stroke-width:6.63500023;stroke-linecap:round;stroke-linejoin:round;stroke-miterlimit:10;stroke-dasharray:none;stroke-opacity:1"
           d="M 0,0 V -54.242" />
      </g>
      <g
         transform="matrix(0.35277777,0,0,-0.35277777,37.470134,92.35752)"
         id="g400">
        <path
           inkscape:connector-curvature="0"
           id="path402"
           style="fill:none;stroke:#f39200;stroke-width:6.63500023;stroke-linecap:round;stroke-linejoin:round;stroke-miterlimit:10;stroke-dasharray:none;stroke-opacity:1"
           d="M 0,0 27.347,-51.145" />
      </g>
      <g
         transform="matrix(0.35277777,0,0,-0.35277777,48.583197,92.35752)"
         id="g404">
        <path
           inkscape:connector-curvature="0"
           id="path406"
           style="fill:none;stroke:#f39200;stroke-width:6.63500023;stroke-linecap:round;stroke-linejoin:round;stroke-miterlimit:10;stroke-dasharray:none;stroke-opacity:1"
           d="M 0,0 -15.238,-30.418" />
      </g>
      <g
         transform="matrix(0.35277777,0,0,-0.35277777,53.129091,92.445187)"
         id="g408">
        <path
           inkscape:connector-curvature="0"
           id="path410"
           style="fill:none;stroke:#f39200;stroke-width:6.63500023;stroke-linecap:round;stroke-linejoin:round;stroke-miterlimit:10;stroke-dasharray:none;stroke-opacity:1"
           d="M 0,0 V -50.605 H 33.177" />
      </g>
      <g
         transform="matrix(0.35277777,0,0,-0.35277777,62.664005,93.040005)"
         id="g412">
        <path
           inkscape:connector-curvature="0"
           id="path414"
           style="fill:none;stroke:#f39200;stroke-width:4.26300001;stroke-linecap:butt;stroke-linejoin:miter;stroke-miterlimit:10;stroke-dasharray:none;stroke-opacity:1"
           d="m 0,0 c 0,-1.763 -1.498,-3.191 -3.346,-3.191 -1.849,0 -3.347,1.428 -3.347,3.191 0,1.763 1.498,3.191 3.347,3.191 C -1.498,3.191 0,1.763 0,0 Z" />
      </g>
      <g
         transform="matrix(0.35277777,0,0,-0.35277777,61.483469,96.661164)"
         id="g416">
        <path
           inkscape:connector-curvature="0"
           id="path418"
           style="fill:none;stroke:#f39200;stroke-width:6.63500023;stroke-linecap:round;stroke-linejoin:round;stroke-miterlimit:10;stroke-dasharray:none;stroke-opacity:1"
           d="M 0,0 V -29.434" />
      </g>
      <g
         transform="matrix(0.35277777,0,0,-0.35277777,22.643625,116.81504)"
         id="g420">
        <path
           inkscape:connector-curvature="0"
           id="path422"
           style="fill:none;stroke:#009fe3;stroke-width:4.35300016;stroke-linecap:round;stroke-linejoin:round;stroke-miterlimit:10;stroke-dasharray:none;stroke-opacity:1"
           d="m 0,0 c -6.874,0 -12.446,-7.307 -12.446,-16.321 0,-0.016 24.891,-0.048 24.891,-0.048 0,0.016 10e-4,0.032 10e-4,0.048 C 12.446,-7.307 6.874,0 0,0 Z" />
      </g>
      <g
         transform="matrix(0.35277777,0,0,-0.35277777,18.252846,122.57273)"
         id="g424">
        <path
           inkscape:connector-curvature="0"
           id="path426"
           style="fill:none;stroke:#009fe3;stroke-width:4.35300016;stroke-linecap:round;stroke-linejoin:round;stroke-miterlimit:10;stroke-dasharray:none;stroke-opacity:1"
           d="m 0,0 c 0,0 0.326,-16.321 11.794,-16.321 11.467,0 12.259,9.784 12.259,9.784" />
      </g>
      <g
         transform="matrix(0.35277777,0,0,-0.35277777,38.113249,120.59086)"
         id="g428">
        <path
           inkscape:connector-curvature="0"
           id="path430"
           style="fill:none;stroke:#009fe3;stroke-width:4.35300016;stroke-linecap:round;stroke-linejoin:round;stroke-miterlimit:10;stroke-dasharray:none;stroke-opacity:1"
           d="m 0,0 c 0,0 -2.014,10.126 -12.872,10.703 -10.859,0.577 -12.756,-11.916 -12.756,-11.916 0,0 -0.772,-3.583 3.416,-4.275 l 18.134,0.048 c 0,0 4.034,-0.01 3.996,-4.394 -0.039,-4.383 -3.453,-11.186 -12.254,-12.07 -8.802,-0.885 -12.663,7.183 -13.012,10.458" />
      </g>
      <g
         transform="matrix(0.35277777,0,0,-0.35277777,56.314569,122.62028)"
         id="g432">
        <path
           inkscape:connector-curvature="0"
           id="path434"
           style="fill:none;stroke:#009fe3;stroke-width:4.35300016;stroke-linecap:round;stroke-linejoin:round;stroke-miterlimit:10;stroke-dasharray:none;stroke-opacity:1"
           d="M 0,0 C 0,0 0.793,15.767 13.006,15.982 25.219,16.197 25.43,0.631 25.43,0.631 l 0.116,-17.072" />
      </g>
      <g
         transform="matrix(0.35277777,0,0,-0.35277777,56.302046,116.73746)"
         id="g436">
        <path
           inkscape:connector-curvature="0"
           id="path438"
           style="fill:none;stroke:#009fe3;stroke-width:4.35300016;stroke-linecap:round;stroke-linejoin:round;stroke-miterlimit:10;stroke-dasharray:none;stroke-opacity:1"
           d="M 0,0 V -33.042" />
      </g>
      <g
         transform="matrix(0.35277777,0,0,-0.35277777,41.609876,117.26956)"
         id="g440">
        <path
           inkscape:connector-curvature="0"
           id="path442"
           style="fill:none;stroke:#009fe3;stroke-width:2.72099996;stroke-linecap:butt;stroke-linejoin:miter;stroke-miterlimit:10;stroke-dasharray:none;stroke-opacity:1"
           d="m 0,0 c 0,-1.152 -0.934,-2.086 -2.086,-2.086 -1.152,0 -2.086,0.934 -2.086,2.086 0,1.152 0.934,2.086 2.086,2.086 C -0.934,2.086 0,1.152 0,0 Z" />
      </g>
      <g
         transform="matrix(0.35277777,0,0,-0.35277777,40.87398,119.65095)"
         id="g444">
        <path
           inkscape:connector-curvature="0"
           id="path446"
           style="fill:none;stroke:#009fe3;stroke-width:4.35300016;stroke-linecap:round;stroke-linejoin:round;stroke-miterlimit:10;stroke-dasharray:none;stroke-opacity:1"
           d="M 0,0 V -24.911" />
      </g>
      <g
         transform="matrix(0.35277777,0,0,-0.35277777,16.07455,122.57273)"
         id="g448">
        <path
           inkscape:connector-curvature="0"
           id="path450"
           style="fill:none;stroke:#009fe3;stroke-width:4.35300016;stroke-linecap:butt;stroke-linejoin:miter;stroke-miterlimit:10;stroke-dasharray:none;stroke-opacity:1"
           d="m 0,0 c 0,-9.014 -5.572,-16.321 -12.446,-16.321 -6.874,0 -12.446,7.307 -12.446,16.321 0,9.014 5.572,16.321 12.446,16.321 C -5.572,16.321 0,9.014 0,0 Z" />
      </g>
      <g
         transform="matrix(0.35277777,0,0,-0.35277777,16.07455,115.84109)"
         id="g452">
        <path
           inkscape:connector-curvature="0"
           id="path454"
           style="fill:none;stroke:#009fe3;stroke-width:4.125;stroke-linecap:round;stroke-linejoin:round;stroke-miterlimit:10;stroke-dasharray:none;stroke-opacity:1"
           d="M 0,0 V -35.738" />
      </g>
      <g
         transform="matrix(0.35277777,0,0,-0.35277777,52.769189,122.78027)"
         id="g456">
        <path
           inkscape:connector-curvature="0"
           id="path458"
           style="fill:none;stroke:#009fe3;stroke-width:4.05900002;stroke-linecap:butt;stroke-linejoin:miter;stroke-miterlimit:10;stroke-dasharray:none;stroke-opacity:1"
           d="m 0,0 c 0,-8.884 -5.572,-16.086 -12.446,-16.086 -6.874,0 -12.446,7.202 -12.446,16.086 0,8.884 5.572,16.086 12.446,16.086 C -5.572,16.086 0,8.884 0,0 Z" />
      </g>
      <g
         transform="matrix(0.35277777,0,0,-0.35277777,48.708787,128.4021)"
         id="g460">
        <path
           inkscape:connector-curvature="0"
           id="path462"
           style="fill:none;stroke:#009fe3;stroke-width:3.63899994;stroke-linecap:round;stroke-linejoin:round;stroke-miterlimit:10;stroke-dasharray:none;stroke-opacity:1"
           d="m 0,0 9.619,0.05 c 0,0 4.034,-0.011 3.996,-4.612 -0.039,-4.601 -3.453,-11.741 -12.255,-12.669 -8.801,-0.929 -12.662,7.539 -13.012,10.977" />
      </g>
      <g
         transform="matrix(0.35277777,0,0,-0.35277777,52.353687,116.5337)"
         id="g464">
        <path
           inkscape:connector-curvature="0"
           id="path466"
           style="fill:none;stroke:#009fe3;stroke-width:4.35300016;stroke-linecap:round;stroke-linejoin:round;stroke-miterlimit:10;stroke-dasharray:none;stroke-opacity:1"
           d="M 0,0 0.514,-12.056" />
      </g>
      <g
         transform="matrix(0.35277777,0,0,-0.35277777,7.0842913,140.32532)"
         id="g468">
        <path
           inkscape:connector-curvature="0"
           id="path470"
           style="fill:#95c11f;fill-opacity:1;fill-rule:nonzero;stroke:none"
           d="m 0,0 c 16.4,0.619 32.801,1.232 49.206,1.687 8.45,0.235 16.903,0.429 25.356,0.53 4.188,0.05 8.392,-0.163 12.278,-1.879 6.398,-2.825 6.511,-10.168 -0.294,-12.23 -6.266,-1.898 -9.175,6.058 -4.368,9.66 2.904,2.175 7.124,3.003 10.613,3.722 7.666,1.578 15.803,0.822 23.533,0.223 16.429,-1.273 32.779,-1.639 49.233,-0.554 2.387,0.158 2.402,3.889 0,3.73 C 154.058,4.131 142.555,3.987 131.042,4.46 119.806,4.922 108.586,6.65 97.33,5.829 90.034,5.297 79.017,3.43 76.013,-4.284 c -2.424,-6.228 4.216,-11.448 9.704,-11.472 6.433,-0.028 10.93,6.141 9.604,12.085 C 93.393,4.971 81.459,5.939 74.562,5.947 49.716,5.977 24.823,4.667 0,3.73 -2.398,3.64 -2.406,-0.091 0,0" />
      </g>
      <g
         transform="matrix(0.35277777,0,0,-0.35277777,66.02393,67.235793)"
         id="g472">
        <path
           inkscape:connector-curvature="0"
           id="path474"
           style="fill:#f39200;fill-opacity:1;fill-rule:nonzero;stroke:none"
           d="m 0,0 c -0.913,9.595 -4.312,18.342 -9.483,25.647 l -40.782,-38.791 34.12,-30.222 C -4.84,-32.649 1.606,-16.885 0,0" />
      </g>
      <g
         transform="matrix(0.35277777,0,0,-0.35277777,62.372857,57.7986)"
         id="g476">
        <path
           inkscape:connector-curvature="0"
           id="path478"
           style="fill:#95c11f;fill-opacity:1;fill-rule:nonzero;stroke:none"
           d="m 0,0 c -10.375,13.919 -27.449,22.245 -45.861,20.501 -9.525,-0.902 -18.183,-4.387 -25.369,-9.7 -2.273,-1.746 -4.391,-3.675 -6.335,-5.763 l -80.724,-75.314 h 82.671 l 34.631,32.201 0.027,-0.023 z" />
      </g>
      <g
         transform="matrix(0.35277777,0,0,-0.35277777,36.917507,82.583672)"
         id="g480">
        <path
           inkscape:connector-curvature="0"
           id="path482"
           style="fill:#ee7203;fill-opacity:1;fill-rule:nonzero;stroke:none"
           d="M 0,0 31.214,29.114 64.052,-0.095 H 0 Z" />
      </g>
      <g
         transform="matrix(0.35277777,0,0,-0.35277777,47.008749,72.11612)"
         id="g484">
        <path
           inkscape:connector-curvature="0"
           id="path486"
           style="fill:#ffffff;fill-opacity:1;fill-rule:nonzero;stroke:none"
           d="m 0,0 0.812,0.76 v 0 L 1.468,1.373 1.494,1.397 30.232,28.105 C 24.444,38.506 13.252,45.666 0.467,45.671 -18.055,45.679 -33.118,30.913 -33.498,12.55 h -0.009 l -0.018,-42.358 1.658,-0.001 z" />
      </g>
      <g
         transform="matrix(0.35277777,0,0,-0.35277777,51.813442,64.65868)"
         id="g488">
        <path
           inkscape:connector-curvature="0"
           id="path490"
           style="fill:#1d1d1b;fill-opacity:1;fill-rule:nonzero;stroke:none"
           d="m 0,0 c -0.003,-6.12 -4.97,-11.078 -11.095,-11.076 -6.125,0.003 -11.089,4.966 -11.086,11.086 0.003,6.119 4.97,11.078 11.095,11.076 C -4.96,11.083 0.003,6.12 0,0" />
      </g>
      <g
         transform="matrix(0.35277777,0,0,-0.35277777,50.52838,64.907777)"
         id="g492">
        <path
           inkscape:connector-curvature="0"
           id="path494"
           style="fill:#ffffff;fill-opacity:1;fill-rule:nonzero;stroke:none"
           d="m 0,0 c -0.001,-2.104 -1.707,-3.808 -3.81,-3.807 -2.104,10e-4 -3.809,1.707 -3.808,3.81 0.001,2.104 1.707,3.808 3.811,3.807 C -1.704,3.81 0.001,2.104 0,0" />
      </g>
    </g>
  </g>
</svg>
