<svg xmlns="http://www.w3.org/2000/svg" xmlns:xlink="http://www.w3.org/1999/xlink" width="400" height="135.344"><defs><linearGradient id="a" gradientTransform="scale(191.7) rotate(-90 3 -.6)" gradientUnits="userSpaceOnUse" x2="1"><stop offset="0" stop-color="#e12f31"/><stop offset="1" stop-color="#bf313c"/></linearGradient><linearGradient id="b" gradientTransform="scale(196.2) rotate(-90 1.7 .7)" gradientUnits="userSpaceOnUse" x2="1"><stop offset="0" stop-color="#e12f31"/><stop offset="1" stop-color="#bf313c"/></linearGradient><linearGradient id="c" gradientTransform="scale(192) rotate(-90 2.4 0)" gradientUnits="userSpaceOnUse" x2="1"><stop offset="0" stop-color="#e12f31"/><stop offset="1" stop-color="#bf313c"/></linearGradient><linearGradient xlink:href="#a" id="d" gradientUnits="userSpaceOnUse" gradientTransform="matrix(0 99.7 -99.7 0 411.7 460)" x2="1"/><linearGradient xlink:href="#b" id="e" gradientUnits="userSpaceOnUse" gradientTransform="rotate(90 -148 311) scale(102.1)" x2="1"/><linearGradient xlink:href="#c" id="f" gradientUnits="userSpaceOnUse" gradientTransform="rotate(90 -81.9 378.1) scale(99.9)" x2="1"/></defs><path d="M385.153 122.296c0 7.21-5.84 13.048-13.046 13.048H13.047C5.84 135.344 0 129.504 0 122.296c0-7.204 5.84-13.045 13.046-13.045h359.06c7.208 0 13.047 5.842 13.047 13.046" fill="#333231"/><path d="M380.173 116.61c0 3.14-2.55 5.686-5.69 5.686H11.238c-3.14 0-5.686-2.545-5.686-5.687 0-3.14 2.546-5.69 5.686-5.69h363.245c3.14 0 5.69 2.55 5.69 5.69" opacity=".2" fill="#403c3b"/><path d="M438.09 460.183c-40.15.324-40.858.39-53.39 5.15-7.74 2.94-15.95 8.885-20.778 15.045-9.77 12.474-17.343 43.653-13.978 57.533 2.785 11.456 13.892 19.478 29.3 21.16 6.967.758 74.61 1.016 74.626.283.008-.282 1.206-5.63 2.663-11.878 1.462-6.252 2.654-11.6 2.654-11.882 0-.287-10.538-.518-23.416-.518-12.88 0-25.557-.313-28.173-.7-13.497-1.985-16.59-7.338-13.218-22.882 2.47-11.403 7.492-19.56 14.144-22.973 6.317-3.242 10.914-3.706 36.672-3.715 13.067-.003 23.764-.24 23.764-.526 0-.283 1.196-5.785 2.663-12.226 1.465-6.44 2.663-11.81 2.663-11.934 0-.052-2.847-.077-7.617-.077-6.638 0-16.996.048-28.58.14" fill="url(#d)" transform="translate(-74.3 -459)"/><path d="M109.455 463.984c-8.015 4.71-8.064 4.846-18.884 52.84l-9.623 42.703 15.93.19c8.76.1 16.025.1 16.147 0 .117-.105 3.283-13.675 7.027-30.152 4.333-19.053 7.282-30.327 8.098-30.973 1.128-.887 1.488-.844 2.954.346.92.744 9.948 13.443 20.063 28.218 10.114 14.773 19.053 27.434 19.868 28.14 2.616 2.27 6.597 4.145 10.743 5.054 2.516.55 7.595.805 13.38.67 7.955-.182 10.145-.5 14.876-2.155 5.96-2.08 11.954-6.472 13.99-10.245.652-1.215 5.446-20.953 10.647-43.864 5.198-22.91 9.675-42.36 9.944-43.22l.49-1.564-16.31.185-16.302.188-6.88 30.263c-3.78 16.642-7.29 30.576-7.788 30.968-.62.48-1.436.275-2.563-.645-.91-.743-9.923-13.44-20.033-28.212-10.11-14.774-19.256-27.59-20.323-28.477-1.067-.893-3.938-2.438-6.38-3.44-4.086-1.676-5.29-1.82-15.102-1.824h-.062c-12.352 0-17.06.99-23.905 5.008" fill="url(#e)" transform="translate(-74.3 -459)"/><path d="M314.038 460.15l-53.153.195-4.093 1.87c-5.205 2.37-9.06 5.77-10.882 9.594-.785 1.65-5.63 21.596-10.76 44.324-5.136 22.73-9.504 41.867-9.703 42.532-.343 1.118 1.09 1.204 20.672 1.204h21.038l8.82-39.26h56.27l.504-1.892c.273-1.043 1.328-5.614 2.337-10.16 1.008-4.543 2.042-8.805 2.293-9.47.425-1.13-1.314-1.205-27.89-1.205h-28.348l1.198-4.994c.962-4.03 1.71-5.358 3.873-6.888l2.68-1.893h36.402c20.024 0 36.403-.188 36.403-.416 0-.456 4.187-18.79 4.98-21.822l.508-1.92-53.15.198z" fill="url(#f)" transform="translate(-74.3 -459)"/><path d="M13.487 129.033l2.373-12.996h2.744L22.107 125l1.58-8.963h2.62l-2.303 12.996h-2.727l-3.52-9.017-1.57 9.017h-2.7zM26.72 129.033l2.384-12.996h2.726l-2.365 12.996H26.72zM41.658 124.57h2.735c-.252 1.492-.91 2.662-1.967 3.505-1.06.844-2.397 1.267-4.014 1.267-1.742 0-3.105-.52-4.09-1.558-.985-1.038-1.478-2.477-1.478-4.32 0-2.263.636-4.117 1.906-5.56 1.27-1.446 2.912-2.168 4.924-2.168 1.616 0 2.87.408 3.758 1.223.888.813 1.344 1.97 1.368 3.47h-2.648v-.07c0-.735-.23-1.313-.688-1.734-.458-.42-1.085-.63-1.88-.63-1.152 0-2.1.52-2.845 1.565-.745 1.046-1.116 2.376-1.116 3.994 0 1.088.264 1.92.794 2.497s1.29.865 2.284.865c.783 0 1.433-.204 1.95-.613.518-.408.853-.986 1.006-1.733M49.396 124.242h3.414l-.705-5.488-2.71 5.488zm-5.294 4.79l6.794-12.996h3.14l2.057 12.997h-2.69l-.31-2.532h-4.818l-1.288 2.533h-2.885zM61.263 121.86h2.55c.83 0 1.458-.177 1.888-.53.43-.352.645-.87.645-1.552 0-.494-.162-.86-.486-1.1-.324-.237-.827-.356-1.51-.356H61.9l-.635 3.538zm-3.97 7.173l2.276-12.996h4.966c1.506 0 2.644.304 3.415.913.77.61 1.156 1.51 1.156 2.704 0 .876-.215 1.623-.644 2.24-.43.62-1.03 1.04-1.8 1.263.382.14.65.353.803.635.153.282.23.74.23 1.376v.362l-.035 1.553c-.006.094-.01.185-.014.273-.003.088-.005.165-.005.23 0 .276.045.49.134.64.088.15.244.28.468.392v.415h-3.15c-.065-.112-.11-.228-.137-.35-.027-.12-.04-.29-.04-.515 0-.16 0-.304.004-.437.002-.13.007-.27.013-.417l.07-1.536v-.16c0-.575-.152-.98-.454-1.216-.304-.234-.832-.352-1.585-.352h-2.1L60 129.033h-2.708zM73.606 124.242h3.414l-.705-5.488-2.71 5.488zm-5.294 4.79l6.794-12.996h3.14l2.057 12.997h-2.69l-.31-2.532h-4.817l-1.29 2.533h-2.884zM91.252 129.033l-.018-1.412c-.47.583-1.04 1.025-1.712 1.324-.67.3-1.423.45-2.258.45-1.57 0-2.84-.526-3.808-1.58-.967-1.05-1.45-2.428-1.45-4.128 0-1.03.167-2.032.502-3.008.335-.977.812-1.847 1.43-2.612.61-.76 1.34-1.33 2.183-1.716.845-.385 1.79-.578 2.838-.578 1.63 0 2.91.418 3.842 1.253.932.835 1.404 1.988 1.416 3.458h-2.673c-.047-.776-.293-1.37-.737-1.782-.444-.41-1.066-.616-1.866-.616-.635 0-1.2.13-1.69.392s-.91.655-1.257 1.178c-.36.547-.64 1.175-.847 1.884-.205.71-.308 1.425-.308 2.148 0 1.088.26 1.935.78 2.54.52.607 1.243.91 2.166.91.865 0 1.616-.248 2.255-.745.637-.496 1.035-1.145 1.194-1.945h-3.246l.38-2.118h5.884l-1.19 6.706h-1.81zM97.887 116.037h2.76l-1.464 8.143c-.03.165-.05.316-.066.454-.014.14-.022.26-.022.367 0 .653.19 1.15.57 1.487.38.338.936.508 1.67.508.807 0 1.44-.233 1.902-.697.462-.465.787-1.19.976-2.18l1.473-8.08h2.718l-1.465 8.274c-.3 1.688-.937 2.955-1.907 3.8-.97.843-2.276 1.265-3.917 1.265-1.44 0-2.593-.384-3.454-1.15-.862-.77-1.293-1.794-1.293-3.076 0-.223.014-.477.043-.762.03-.286.074-.6.132-.94l1.342-7.41zM112.26 124.242h3.413l-.705-5.488-2.71 5.488zm-5.295 4.79l6.794-12.996h3.14l2.056 12.997h-2.69l-.31-2.532h-4.818l-1.288 2.533h-2.885zM120.13 129.033l2.372-12.996h2.744L128.75 125l1.578-8.963h2.62l-2.302 12.996h-2.727l-3.52-9.017-1.57 9.017h-2.7zM138.463 129.033l2.382-12.996h7.79l-.423 2.338h-5.055l-.54 3h4.695l-.414 2.31h-4.756l-.97 5.348h-2.71zM148.547 129.033l2.383-12.996h2.726l-2.364 12.996h-2.745zM163.846 129.033l-.018-1.412c-.47.583-1.04 1.025-1.71 1.324-.67.3-1.424.45-2.26.45-1.57 0-2.84-.526-3.807-1.58-.967-1.05-1.45-2.428-1.45-4.128 0-1.03.168-2.032.503-3.008.335-.977.812-1.847 1.43-2.612.61-.76 1.34-1.33 2.183-1.716.844-.385 1.79-.578 2.836-.578 1.63 0 2.91.418 3.843 1.253.932.835 1.404 1.988 1.416 3.458h-2.672c-.048-.776-.293-1.37-.737-1.782-.443-.41-1.066-.616-1.866-.616-.634 0-1.198.13-1.69.392-.49.262-.91.655-1.256 1.178-.36.547-.64 1.175-.847 1.884-.205.71-.308 1.425-.308 2.148 0 1.088.26 1.935.78 2.54.522.607 1.243.91 2.167.91.864 0 1.615-.248 2.253-.745.64-.496 1.037-1.145 1.195-1.945h-3.246l.38-2.118h5.884l-1.19 6.706h-1.81zM168.152 129.033l2.312-12.996h2.726l-.882 4.993h5.02l.9-4.993h2.673l-2.31 12.996h-2.692l.997-5.71h-5.03l-1.004 5.71h-2.708zM183.777 129.033l1.88-10.694h-3.653l.397-2.303h9.82l-.405 2.302H188.4l-1.88 10.693h-2.743zM191.568 129.033l2.382-12.996h2.726l-2.364 12.996h-2.744zM197.09 129.033l2.374-12.996h2.744L205.71 125l1.58-8.963h2.62l-2.302 12.996h-2.726l-3.52-9.017-1.57 9.017h-2.7zM220.04 129.033l-.018-1.412c-.47.583-1.04 1.025-1.71 1.324-.672.3-1.425.45-2.26.45-1.57 0-2.84-.526-3.807-1.58-.968-1.05-1.452-2.428-1.452-4.128 0-1.03.168-2.032.503-3.008.336-.977.812-1.847 1.43-2.612.61-.76 1.34-1.33 2.184-1.716.843-.385 1.79-.578 2.836-.578 1.63 0 2.91.418 3.842 1.253.933.835 1.405 1.988 1.416 3.458h-2.673c-.046-.776-.292-1.37-.736-1.782-.444-.41-1.066-.616-1.866-.616-.635 0-1.198.13-1.69.392-.49.262-.91.655-1.256 1.178-.36.547-.642 1.175-.848 1.884-.206.71-.308 1.425-.308 2.148 0 1.088.26 1.935.78 2.54.52.607 1.243.91 2.166.91.865 0 1.616-.248 2.255-.745.638-.496 1.036-1.145 1.195-1.945h-3.247l.38-2.118h5.885l-1.19 6.706h-1.81zM238.868 124.57h2.735c-.253 1.492-.91 2.662-1.968 3.505-1.06.844-2.397 1.267-4.014 1.267-1.74 0-3.103-.52-4.09-1.558-.984-1.038-1.477-2.477-1.477-4.32 0-2.263.636-4.117 1.907-5.56 1.27-1.446 2.91-2.168 4.923-2.168 1.617 0 2.87.408 3.758 1.223.89.813 1.345 1.97 1.368 3.47h-2.646v-.07c0-.735-.23-1.313-.688-1.734-.46-.42-1.085-.63-1.88-.63-1.152 0-2.1.52-2.845 1.565-.745 1.046-1.118 2.376-1.118 3.994 0 1.088.265 1.92.795 2.497s1.29.865 2.285.865c.782 0 1.432-.204 1.95-.613.518-.408.853-.986 1.006-1.733M242.794 129.033l2.31-12.996h2.728l-.883 4.993h5.02l.9-4.993h2.673l-2.31 12.996h-2.692l.998-5.71h-5.03l-1.006 5.71h-2.708zM259.76 124.242h3.415l-.706-5.488-2.71 5.488zm-5.294 4.79l6.794-12.996h3.14l2.056 12.997h-2.69l-.31-2.532h-4.817l-1.29 2.533h-2.884zM267.656 129.033l2.277-12.996h3.97l.98 9.36 4.296-9.36h3.908l-2.356 12.996h-2.54l2.02-10.552-4.738 10.553h-2.49l-1.013-10.332-1.79 10.333h-2.524zM287.385 122.362h2.09c.877 0 1.536-.187 1.977-.564.44-.376.662-.94.662-1.694 0-.553-.168-.976-.503-1.27-.334-.294-.816-.442-1.446-.442h-2.09l-.69 3.97zm-3.9 6.67l2.276-12.995h4.456c1.453 0 2.573.34 3.358 1.023.785.682 1.178 1.65 1.178 2.903 0 1.482-.462 2.62-1.386 3.414-.923.794-2.255 1.19-3.996 1.19h-2.4l-.81 4.466h-2.675zM295.502 129.033l2.38-12.996h2.728l-2.365 12.996h-2.743zM308.4 118.03c-1.21 0-2.195.52-2.95 1.562-.756 1.042-1.134 2.383-1.134 4.023 0 1.1.273 1.95.82 2.55.547.6 1.324.9 2.33.9.588 0 1.123-.126 1.605-.38.484-.252.892-.62 1.228-1.102.382-.56.685-1.214.91-1.968.222-.753.334-1.5.334-2.24 0-1.09-.268-1.918-.803-2.488-.536-.57-1.316-.857-2.34-.857m-6.828 5.603c0-1.153.198-2.25.595-3.29.398-1.042.958-1.94 1.68-2.692.613-.64 1.325-1.128 2.136-1.463.812-.336 1.68-.504 2.603-.504 1.806 0 3.21.525 4.208 1.576 1 1.048 1.5 2.52 1.5 4.414 0 1.035-.19 2.052-.573 3.048-.38.998-.914 1.867-1.596 2.608-.623.688-1.344 1.207-2.162 1.557-.817.35-1.71.525-2.68.525-1.796 0-3.196-.513-4.202-1.54-1.005-1.026-1.508-2.44-1.508-4.24M315.212 129.033l2.373-12.996h2.744l3.5 8.964 1.58-8.963h2.62l-2.3 12.996h-2.727l-3.52-9.017-1.572 9.017h-2.698zM328.5 124.913h2.637v.123c0 .66.202 1.162.605 1.51.403.346.984.52 1.742.52.676 0 1.196-.148 1.557-.442.364-.294.544-.715.544-1.262 0-.335-.12-.622-.36-.86-.243-.238-.8-.545-1.67-.922-1.67-.735-2.743-1.37-3.22-1.906-.476-.535-.714-1.214-.714-2.038 0-1.194.407-2.148 1.222-2.863.814-.715 1.913-1.072 3.295-1.072 1.494 0 2.66.345 3.494 1.033.836.688 1.254 1.644 1.254 2.868v.178h-2.56c-.01-.583-.205-1.03-.58-1.346-.378-.315-.913-.472-1.607-.472-.576 0-1.025.122-1.345.366-.32.244-.48.584-.48 1.02 0 .617.608 1.18 1.825 1.693.212.088.377.158.494.21 1.372.583 2.313 1.166 2.825 1.748.51.582.767 1.312.767 2.188 0 1.312-.432 2.34-1.297 3.088-.865.747-2.053 1.12-3.564 1.12-1.493 0-2.677-.38-3.55-1.142-.874-.762-1.31-1.79-1.31-3.084v-.255zM339.67 129.033l2.31-12.996h2.727l-.883 4.993h5.02l.9-4.993h2.674l-2.31 12.996h-2.692l.997-5.71h-5.03l-1.005 5.71h-2.71zM352.86 129.033l2.38-12.996h2.727l-2.364 12.996h-2.744zM362.31 122.362h2.09c.876 0 1.535-.187 1.976-.564.44-.376.662-.94.662-1.694 0-.553-.168-.976-.504-1.27-.334-.294-.817-.442-1.446-.442h-2.09l-.69 3.97zm-3.9 6.67l2.275-12.995h4.455c1.453 0 2.573.34 3.358 1.023.785.682 1.178 1.65 1.178 2.903 0 1.482-.462 2.62-1.386 3.414-.923.794-2.255 1.19-3.996 1.19h-2.4l-.81 4.466h-2.675z" fill="#8e8c91"/><path d="M11.707 97.046h6.274l19.974-12.368 6.23-26.875s4.718-19.66 5.55-19.66c0 0 4.534-5.81 10.92 0L76.67 60.7l26.395-16.35s-24-35.475-25.757-36.694c0 0-6.107-4.52-12.214-4.233 0 0-28.96-2.797-33.587 11.05 0 0-4.927 16.123-5.69 20.858l-14.11 61.718zM137.593 22.966L164.668 6.2l.63-1.704h-23.315l-4.39 18.47zM161.162 74.383L212.92 42.33h-11.104s1.14-5.764 2.898-12.292c0 0-.245-3.012 8.206-8.466h33.515L274.17 4.394l-86.572.39s-12.213 4.52-12.86 12.41l-13.576 57.19zM279.46 75.384l36.04-22.32s3.118-29.668 31.468-30.37c.187-.005.374-.01.56-.01 28.868-.323 17.023 0 17.023 0l29.534-18.29s-60.158-.005-62.38.856c0 0-28.313-.646-42.745 24.643 0 0-11.088 23.72-9.5 45.49" opacity=".08" fill="#fff"/></svg>