<svg xmlns="http://www.w3.org/2000/svg" width="400" height="113.451"><path d="M299.77 113.45H0V.24h299.77v113.21z" fill="#f4c914"/><path d="M87.032 80.59L61.784 52.26c-.23-.27-.453-.537-.657-.795.004.098.01.19.01.284.057 1.26.083 2.357.083 3.28v25.56h-9.314V33.12h7l24.22 27.038c.626.688 1.207 1.345 1.727 1.985-.032-.684-.054-1.24-.076-1.665-.04-1.08-.058-1.91-.058-2.49V33.12h9.314v47.47h-7.002z"/><path d="M95.144 32.01H83.606v25.98c0 .293.004.648.018 1.065l-23.562-26.31-.66-.736h-8.605V81.697H62.327V54.536l23.548 26.42.66.742h8.611v-49.69zm-2.22 2.22v45.248H87.53L62.615 51.526c-.6-.715-1.123-1.36-1.572-1.932-.448-.568-.87-1.154-1.252-1.758.108 1.408.183 2.726.24 3.965.054 1.24.077 2.318.077 3.233v24.445h-7.09v-45.25h5.394l23.886 26.674c.813.88 1.527 1.718 2.153 2.5.612.79 1.18 1.594 1.7 2.42-.133-2.54-.218-4.338-.262-5.395-.04-1.052-.062-1.87-.062-2.437V34.23h7.1M99.106 33.115h10.12v47.47h-10.12v-47.47z"/><path d="M110.336 32.01H97.998V81.697H110.336v-49.69zm-2.22 47.468h-7.898v-45.25h7.898v45.25zM150.41 80.59V52.65l-12.69 22.5h-2.862L122 52.328V80.59h-8.604V33.12h8.13l15.347 26.248 15.002-26.247h8.07v47.47h-9.535z"/><path d="M161.06 32.01H151.228l-.64 1.118-13.727 24.023-14.056-24.04-.644-1.1h-9.874V81.697h10.82V56.556l10.463 18.575.635 1.133H138.372l.635-1.127 10.295-18.256V81.698H161.06v-49.69zm-2.22 2.22v45.248h-7.318V51.526c0-.546.023-1.23.08-2.06.054-.826.12-1.754.21-2.78-.432 1.168-.805 2.13-1.13 2.886-.318.76-.603 1.385-.86 1.865l-12.746 22.607h-1.572l-12.782-22.696c-.47-.852-.87-1.66-1.198-2.41-.333-.76-.61-1.492-.826-2.212.07.937.12 1.798.146 2.57.03.77.045 1.515.045 2.23v27.952h-6.38v-45.25h6.38l15.995 27.358 15.632-27.357h6.322"/><path d="M190.794 60.3l-5.696-14.332-5.878 14.33h11.574zm8.245 20.288l-4.08-9.887h-20.015l-3.947 9.888h-10.3l20.15-47.47h9.072l20.413 47.47H199.04z"/><path d="M180.874 59.19l4.204-10.26 4.08 10.26h-8.284zm9.776-27.18h-10.536l-.577 1.354-19.206 45.25-1.308 3.084h12.728l.555-1.394 3.388-8.493h18.526l3.51 8.516.57 1.372h13.718l-1.332-3.094-19.46-45.25-.576-1.344zm-13.088 29.4h14.868L185.114 43l-7.552 18.407m11.627-27.18l19.454 45.248h-8.862l-4.08-9.887h-21.51l-3.947 9.888h-7.87l19.21-45.25h7.604zM219.533 80.59c-3.69 0-6.163-.875-7.557-2.678-1.318-1.704-1.962-4.692-1.962-9.136V44.93c0-4.408.644-7.387 1.962-9.11 1.39-1.816 3.863-2.7 7.557-2.7h20.258c3.628 0 6.167.91 7.544 2.7 1.332 1.718 1.98 4.702 1.98 9.11v5.186l-10.118 2.135v-8.82h-19.064v26.424h19.064v-10.07l10.118 2.794v6.198c0 4.444-.648 7.436-1.99 9.14-1.376 1.772-3.91 2.673-7.533 2.673h-20.257z"/><path d="M239.793 32.01h-20.258c-4.067 0-6.828 1.025-8.44 3.138-1.474 1.918-2.19 5.114-2.19 9.78v23.846c0 4.763.698 7.885 2.194 9.816 1.62 2.095 4.377 3.108 8.435 3.108h20.258c3.982 0 6.815-1.044 8.413-3.104 1.51-1.93 2.22-5.057 2.22-9.82v-7.042l-1.634-.448-7.898-2.18-2.81-.772V68.744H221.24V44.537h16.844v9.084l2.68-.57 7.9-1.668 1.762-.373V44.93c0-4.666-.728-7.867-2.22-9.794-1.59-2.073-4.426-3.125-8.413-3.125m0 2.22c3.272 0 5.496.754 6.66 2.267 1.17 1.51 1.753 4.32 1.753 8.43v4.286l-7.903 1.67v-8.565H219.02v28.644h21.283v-9.718l7.903 2.18v5.35c0 4.146-.582 6.966-1.754 8.462-1.163 1.49-3.387 2.242-6.66 2.242h-20.257c-3.303 0-5.523-.75-6.678-2.242-1.158-1.496-1.73-4.316-1.73-8.462V44.928c0-4.11.572-6.92 1.73-8.43 1.155-1.514 3.375-2.27 6.678-2.27h20.258M400 113.45H299.753V0H400v113.45z"/><path d="M321.436 28.34h3.312c.147.085.324.072.49.076 1.797.21 3.608.67 5.215 1.66.773.432 1.457 1.04 2.11 1.697.838.932 1.526 2.073 1.984 3.32.568 1.532.817 3.22.78 4.88 0 3.81 0 7.61-.012 11.414-3.237.005-6.473.005-9.714 0-.004-3.782 0-7.565 0-11.347-.08-1.457-1.296-2.65-2.54-2.54-.53.062-1.078.315-1.437.79-.506.524-.702 1.337-.737 2.105v29.683c.018.8-.076 1.634.186 2.384.302.98 1.128 1.67 2.01 1.758.734.036 1.467-.355 1.96-1 .31-.45.523-1.002.56-1.588v-11.21h9.726v9.16c-.084.927-.262 1.846-.613 2.685-.204.44-.44.875-.728 1.26-.27.445-.666.773-1.03 1.124-2.553 2.412-5.11 4.84-7.67 7.255-.463.476-.978.893-1.427 1.368-.088.093-.2.137-.315.13-1.23 0-2.455-.006-3.69 0-2.024-.16-4.026-1.04-5.598-2.554-1.02-.97-1.838-2.208-2.432-3.58-.444-1.11-.75-2.3-.862-3.52-.013-.04-.03-.12-.04-.16V38.5c.01-.04.027-.112.04-.152.142-1.563.515-3.108 1.212-4.457 1.048-2.086 2.78-3.622 4.72-4.44 1.278-.59 2.64-.85 3.995-1.025.182-.013.378.005.546-.084M352.12 39.076c-.01.267-.072.515-.116.773-.67 4.052-1.36 8.097-2.03 12.15-.115.706-.274 1.416-.35 2.14 1.7.01 3.396.01 5.097 0-.79-4.764-1.584-9.532-2.38-14.29-.052-.3-.128-.587-.114-.89-.027.023-.08.08-.107.116m-6.762-9.687c4.524.012 9.043.012 13.567 0 .555 2.933 1.172 5.84 1.75 8.763 1.42 7.02 2.836 14.03 4.253 21.053.848 4.195 1.7 8.39 2.535 12.586-.187-.053-.276-.27-.44-.377-1.856-1.803-3.698-3.623-5.554-5.426-.986-.982-1.994-1.945-2.98-2.935-1.057-1-2.078-2.047-3.134-3.046-1.044-1.066-2.14-2.07-3.18-3.144-.452.48-.95.88-1.415 1.35-3.387 3.196-6.792 6.393-10.184 9.607-1.03.94-2.02 1.93-3.068 2.855.697-3.8 1.452-7.588 2.167-11.384 1.85-9.683 3.694-19.374 5.545-29.057.035-.284.142-.55.138-.848M364.675 29.39c8.067.014 16.143.005 24.214 0 .004 3.53 0 7.055.004 10.585-2.233.004-4.47-.005-6.704 0-.005 14.477 0 28.95-.005 43.42-.976.008-1.953.008-2.94 0-.638-.715-1.366-1.324-2.028-2.02-1.358-1.32-2.717-2.66-4.075-3.983-.617-.568-1.19-1.2-1.825-1.763-.01-11.885 0-23.77 0-35.655-2.21 0-4.426-.005-6.642.004V29.39z" fill="#fff"/><path d="M350.445 61.99c.578-.53 1.133-1.11 1.732-1.625.937.888 1.878 1.77 2.8 2.69.334.307.614.666.96.937.946.94 1.923 1.842 2.855 2.8 1.438 1.395 2.872 2.79 4.302 4.215 1.2 1.127 2.362 2.326 3.556 3.463.453.46.915.9 1.372 1.35.37.323.662.74 1.03 1.05.568.54 1.11 1.116 1.692 1.626 1.416 1.332 2.774 2.73 4.186 4.08.267.27.564.51.786.84-.284.106-.595.07-.897.07h-46.022c-.342-.004-.697.027-1.035-.04.093-.217.284-.324.44-.47.572-.497 1.092-1.08 1.67-1.572.177-.16.35-.342.527-.506.782-.692 1.5-1.483 2.282-2.19.37-.3.67-.682 1.035-.975.706-.666 1.394-1.346 2.113-1.98.47-.493 1.003-.893 1.46-1.4.565-.536 1.142-1.064 1.706-1.602.745-.678 1.45-1.415 2.206-2.076.622-.644 1.332-1.172 1.954-1.816.412-.395.834-.76 1.23-1.177.803-.705 1.55-1.477 2.326-2.214.413-.39.808-.808 1.256-1.146.84-.76 1.643-1.576 2.477-2.33" fill="#f5d00f"/><path d="M391.118 36.063c.39.368.87.546 1.456.528.58-.017 1.048-.225 1.412-.616.368-.395.537-.892.52-1.487-.02-.59-.223-1.075-.61-1.448-.38-.373-.865-.547-1.442-.53-.573.02-1.048.223-1.42.618-.365.39-.542.884-.525 1.48.017.598.22 1.082.608 1.455m-.245.25c-.47-.463-.723-1.027-.745-1.697-.018-.666.2-1.244.648-1.732s1.003-.74 1.665-.764c.653-.017 1.217.205 1.697.666.48.458.728 1.022.75 1.692.022.657-.2 1.24-.648 1.73-.45.494-1 .747-1.653.765-.653.018-1.22-.2-1.714-.66" fill="#fff"/><text x="-105.093" y="-5683.129" font-size="160.574" transform="matrix(.3 0 0 .3 425.6 1921.7)"><tspan style="-inkscape-font-specification:ArialMT" x="-105.093" y="-5683.129" font-size="13.532" fill="#fff" font-family="ZHULAU+ArialMT">R</tspan></text></svg>