<svg xmlns="http://www.w3.org/2000/svg" width="501.179" height="172.613"><path d="M313.476 53.018c-3.327 1.71-6.39 3.75-9.087 6.09-2.688 2.345-4.97 5.037-6.547 8.02-.774 1.49-1.398 3.037-1.803 4.644-.214.797-.38 1.606-.497 2.426-.057.41-.104.82-.138 1.236-.03.422-.058.798-.08 1.283-.18 3.484.01 6.956.738 10.29 1.41 6.678 5.154 13.01 8.262 19.84.4.848.763 1.71 1.138 2.57.37.867.734 1.733 1.075 2.612.693 1.75 1.334 3.534 1.866 5.377.254.925.49 1.866.653 2.843.075.49.133.994.15 1.513.01.492-.006.988-.046 1.474-.074.976-.254 1.94-.548 2.86-.3.918-.7 1.802-1.242 2.565.26-.902.416-1.81.44-2.71.04-.9-.024-1.797-.157-2.67-.07-.444-.156-.866-.254-1.3-.1-.398-.233-.802-.383-1.206-.306-.82-.67-1.635-1.07-2.444-1.587-3.23-3.453-6.402-5.314-9.562-.924-1.583-1.883-3.154-2.82-4.766-.947-1.606-1.865-3.24-2.75-4.928-1.767-3.363-3.327-7.026-4.182-10.93-.45-1.948-.687-3.936-.796-5.917-.122-1.983-.04-3.936.12-5.9.04-.44.088-.988.163-1.48.07-.507.162-1.016.266-1.52.202-1.004.462-1.998.797-2.968.676-1.936 1.583-3.796 2.72-5.47 2.266-3.375 5.322-6.04 8.65-7.997 1.67-.982 3.408-1.803 5.194-2.456 1.785-.66 3.616-1.162 5.482-1.422" fill="#5f5442"/><path d="M314.416 68.522c-.71.798-1.473 1.543-2.15 2.346-.68.79-1.31 1.623-1.853 2.496-.55.866-1.01 1.78-1.37 2.72-.37.937-.64 1.908-.797 2.89-.156.988-.23 1.987-.202 2.975.023 1.016.12 2.004.318 2.98.375 1.947 1.155 3.807 2.062 5.685.9 1.884 1.878 3.807 2.687 5.806.827 1.995 1.51 4.092 1.92 6.23.438 2.13.6 4.32.496 6.482-.116 2.16-.497 4.287-1.11 6.326.15-2.126.237-4.235.064-6.315-.15-2.08-.537-4.12-1.086-6.106-.278-.994-.613-1.97-.97-2.935-.365-.965-.77-1.913-1.203-2.866-.854-1.895-1.83-3.738-2.772-5.673-.468-.965-.913-1.97-1.294-3.01-.38-1.046-.676-2.138-.866-3.253-.185-1.11-.25-2.242-.226-3.35.04-1.128.174-2.243.45-3.335.278-1.09.67-2.15 1.168-3.142.514-.994 1.132-1.92 1.83-2.768.706-.838 1.486-1.606 2.312-2.293.416-.34.844-.665 1.277-.983l1.316-.908z" fill="#807465"/><path d="M308.7 23.366c-1.537 2.195-2.605 4.633-2.94 7.14-.324 2.508.063 5.027.953 7.384.44 1.18.993 2.322 1.63 3.426.317.56.646 1.092 1.01 1.64.347.51.722 1.04 1.11 1.543 1.565 2.016 3.373 3.864 5.297 5.632 1.924 1.774 3.987 3.45 6.107 5.08 1.057.813 2.15 1.593 3.235 2.396 1.086.792 2.178 1.583 3.265 2.404.537.41 1.08.837 1.6 1.27l1.542 1.3c1.028.88 2.045 1.763 3.05 2.676 1.987 1.843 3.93 3.772 5.598 5.985 1.664 2.2 3.062 4.685 3.935 7.378.895 2.68 1.27 5.512 1.328 8.303.065 2.796-.195 5.57-.64 8.29-.11.682-.225 1.358-.358 2.034l-.214 1.017-.225.994c-.312 1.35-.693 2.675-1.115 3.998-1.7 5.27-4.39 10.22-7.69 14.57-.815 1.098-1.67 2.155-2.548 3.195-.433.52-.872 1.035-1.317 1.544l-1.358 1.508c-1.808 2-3.668 3.94-5.552 5.875l-.242-.196c2.912-4.552 6.194-8.827 8.973-13.322.7-1.12 1.352-2.26 1.987-3.41.63-1.148 1.225-2.31 1.768-3.494 1.092-2.37 2.022-4.795 2.785-7.285.393-1.238.728-2.503 1.046-3.762l.23-.965.22-.948c.144-.64.282-1.282.404-1.924.497-2.558.832-5.14.9-7.717.06-2.57-.184-5.13-.79-7.61-.15-.617-.324-1.23-.526-1.836-.197-.613-.416-1.213-.665-1.81-.49-1.19-1.08-2.338-1.756-3.46-1.358-2.224-3.04-4.298-4.922-6.175-.93-.948-1.913-1.855-2.918-2.727-.508-.44-1.017-.867-1.537-1.29-.514-.426-1.04-.82-1.583-1.2-2.172-1.526-4.53-2.825-6.858-4.2-2.33-1.364-4.65-2.808-6.83-4.5-2.172-1.7-4.188-3.664-5.858-5.934-.422-.57-.814-1.143-1.196-1.756-.358-.59-.716-1.207-1.04-1.83-.647-1.25-1.207-2.56-1.612-3.93-.826-2.72-1.022-5.725-.265-8.493.715-2.766 2.32-5.198 4.343-7.012l.237.208zM331.22 30.155c-.184-2.56-1.253-5.01-2.992-6.76-.855-.884-1.86-1.6-2.958-2.132-1.092-.55-2.27-.924-3.472-1.16-.607-.117-1.22-.198-1.832-.238-.63-.046-1.248-.064-1.872-.058-1.23.006-2.438.046-3.576.226-.572.086-1.12.22-1.647.416-.536.195-1.015.46-1.61.796-.15.087-.312.173-.503.26-.196.08-.422.167-.682.19-.058.006-.15.006-.18.006l-.126-.006c-.093-.006-.18-.01-.267-.017-.18-.018-.352-.036-.52-.064-.68-.122-1.334-.3-1.952-.596l.047-.213c.653-.035 1.3-.087 1.912-.197.15-.023.3-.046.45-.08.075-.018.15-.035.213-.053l.116-.03c.05-.01.04-.016.063-.027.115-.064.306-.22.53-.434.446-.427 1.024-.918 1.665-1.282.636-.37 1.335-.636 2.028-.815 1.398-.365 2.808-.388 4.154-.25.67.076 1.346.18 2.005.3.664.128 1.328.273 1.987.457 1.31.36 2.594.88 3.773 1.59 1.172.71 2.224 1.623 3.08 2.686 1.692 2.143 2.547 4.86 2.385 7.48h-.22zM348.4 70.09c.202-.44.462-.862.538-1.307.08-.44 0-.884-.133-1.323-.243-.89-.67-1.745-1.07-2.606-.386-.837-.872-1.64-1.368-2.455-.497-.816-1.01-1.625-1.52-2.433-2.062-3.236-4.148-6.47-6.118-9.787-.498-.827-.983-1.664-1.463-2.502-.242-.422-.474-.843-.71-1.27-.232-.43-.468-.885-.676-1.33-.85-1.802-1.478-3.668-2.004-5.546-.532-1.872-.93-3.767-1.393-5.61-.115-.462-.23-.92-.375-1.363-.14-.44-.295-.88-.508-1.232-.104-.18-.232-.318-.347-.376l-.017-.01-.047-.024-.082-.035-.16-.07c-.105-.05-.215-.097-.325-.138-.214-.087-.44-.167-.63-.173-.086-.006-.19.058-.323.092-.127.04-.254.04-.376.03.116-.036.226-.082.318-.15.087-.06.173-.163.324-.22.29-.1.543-.058.797-.04.26.028.48.045.75.114.348.116.556.347.735.555.653.872.96 1.803 1.31 2.715.654 1.838 1.21 3.675 1.833 5.472.625 1.796 1.306 3.56 2.144 5.217.208.416.422.81.66 1.224l.715 1.238 1.46 2.473c1.96 3.3 3.947 6.593 5.813 9.972.468.844.924 1.7 1.37 2.566.22.433.427.872.635 1.317.202.445.41.918.548 1.392.3.93.572 1.878.694 2.877.052.503.052 1.04-.145 1.53-.202.498-.554.84-.855 1.215" fill="#5f5442"/><path d="M316.61 30.053c.028.942.138 1.866.346 2.756.208.883.496 1.743.866 2.552.74 1.635 1.774 3.09 2.98 4.39.602.66 1.25 1.266 1.925 1.856l2.11 1.82c1.41 1.213 2.807 2.438 4.205 3.674 1.392 1.242 2.785 2.49 4.142 3.796.676.653 1.352 1.31 2.005 2.005.658.687 1.287 1.38 1.91 2.143 1.232 1.514 2.197 3.19 3.092 4.813.45.813.913 1.61 1.41 2.39.497.775 1.05 1.514 1.664 2.236-1.583-1.034-2.906-2.478-4.073-3.952-1.167-1.48-2.277-2.93-3.542-4.2-1.258-1.265-2.674-2.472-4.06-3.69-1.404-1.215-2.808-2.434-4.212-3.67-1.392-1.242-2.78-2.496-4.137-3.796-.67-.647-1.35-1.306-2.003-1.97-.694-.682-1.34-1.42-1.936-2.207-1.177-1.565-2.12-3.338-2.622-5.233-.502-1.89-.55-3.888-.07-5.714M326.763 30.352c-.393.19-1.872.093-2.397-.705-.526-.803-.347-1.508.18-2.04.415-.427 1.247-.502 2.084.394.66.7.81 2.023.133 2.352" fill="#5f5442"/><path d="M273.425 98.342c-.093-.144-.185-.294-.278-.444 0 1.427.012 2.94.035 4.43 3.588 4.15 7.72 7.777 12.283 10.706l.317-.427c-4.812-4.19-8.983-8.996-12.357-14.265M376.91 44.782c1.398 4.876 2.258 9.88 2.565 14.934 1.6-.075 3.24-.173 4.778-.283-.255-4.864-1.116-9.717-2.57-14.362-1.336-.178-2.827-.288-4.462-.288h-.31M384.317 63.94c-1.45-.116-3.056-.22-4.72-.3-.006 5.91-.81 11.837-2.438 17.545-.977 3.432-2.248 6.783-3.79 10.018.016 2.444.034 4.582.068 6.436 3.253-4.65 5.853-9.8 7.68-15.218 2.003-5.94 3.084-12.19 3.2-18.482M365.085 104.312c-2.357 2.9-4.968 5.627-7.793 8.152l.317.427c2.565-1.622 4.99-3.483 7.256-5.534.08-.86.156-1.872.22-3.044M369.264 27.826c1.692 2.623 3.183 5.367 4.448 8.198.624 1.422 1.225 2.843 1.75 4.3.1.276.197.553.295.83 1.664-.017 3.172-.034 4.513-.063-.312-.78-.647-1.553-.988-2.32-.67-1.51-1.393-2.994-2.196-4.433-1.6-2.883-3.414-5.633-5.43-8.215-4.016-5.17-8.794-9.683-14.04-13.485-10.486-7.603-23.173-12.155-36.3-12.6-3.258-.116-6.556.035-9.826.445-1.635.208-3.26.48-4.877.82-1.617.353-3.218.77-4.8 1.248-6.338 1.93-12.347 4.992-17.726 8.903-10.78 7.8-19.07 19.164-22.988 31.966-1.97 6.39-2.895 13.074-2.763 19.74.058 3.306.387 6.633.965 9.898.59 3.264 1.44 6.476 2.52 9.596 1.415 4.067 3.27 7.967 5.493 11.618l1.208 1.398c0-1.918 0-4.183-.012-6.626-1.062-2.496-1.946-5.056-2.69-7.65-.84-2.975-1.44-6.002-1.82-9.053-.394-3.055-.544-6.117-.486-9.202.07-3.045.34-6.113.85-9.123.513-3.016 1.212-5.99 2.16-8.89 1.86-5.808 4.593-11.32 8.042-16.357 1.728-2.513 3.65-4.9 5.754-7.118 2.098-2.224 4.362-4.292 6.79-6.17 4.84-3.76 10.283-6.742 16.06-8.874 1.444-.537 2.912-1.01 4.402-1.433 1.485-.422 2.987-.797 4.507-1.103 3.038-.62 6.13-.994 9.26-1.116 3.102-.12 6.25-.017 9.36.4 1.553.2 3.102.46 4.64.79 1.53.342 3.055.734 4.557 1.208 6.01 1.884 11.7 4.824 16.697 8.666 5.01 3.825 9.278 8.568 12.67 13.808" fill="#cd8b44"/><path d="M19.436 91.094c-1.588 0-2.345-.838-2.345-2.01 13.982-.503 22.602-8.03 22.602-22.26 0-15.062-9.458-23.515-20.758-23.515-7.03 0-7.366 2.593-7.366 10.96 0 50.216.254 54.23 1.594 56.912H3.537C4.71 108.837 4.71 93.607 4.71 60.965c0-6.696 0-16.656-1.34-19.33 0 0 10.543-1.007 13.056-1.007 23.433 0 31.383 12.387 31.383 24.27 0 16.993-15.068 26.196-28.374 26.196"/><path d="M19.436 91.094c-1.588 0-2.345-.838-2.345-2.01 13.982-.503 22.602-8.03 22.602-22.26 0-15.062-9.458-23.515-20.758-23.515-7.03 0-7.366 2.593-7.366 10.96 0 50.216.254 54.23 1.594 56.912H3.537C4.71 108.837 4.71 93.607 4.71 60.965c0-6.696 0-16.656-1.34-19.33 0 0 10.543-1.007 13.056-1.007 23.433 0 31.383 12.387 31.383 24.27 0 16.993-15.068 26.196-28.374 26.196z" fill="none" stroke="#fff" stroke-width="4.385"/><path d="M81.283 81.804S72.663 80.8 65.216 80.8c-1.756 0-2.178.67-2.178 3.35v3.01c0 8.54 0 18.412.757 19.92.497 1.005 1.167 1.254 3.593 1.254 9.88 0 13.392-2.427 13.392-2.427l.168.08c-.168 2.266-.838 5.524-2.594 5.524-1.086 0-8.204-.328-15.23-.328h-8.29c1.34-2.68 1.34-17.413 1.34-34.9 0-6.946 0-13.642-1.172-15.987h8.123c9.538 0 14.645-.335 15.564-.335 1.172 0 1.172 5.188 1.172 5.188l-.255.086s-4.517-2.258-12.22-2.258c-4.095 0-4.35.75-4.35 5.94v9.04h2.347c6.44 0 16.737-.924 16.737-.924l.168.168c0 1.842-.335 4.604-1.005 4.604"/><path d="M81.283 81.804S72.663 80.8 65.216 80.8c-1.756 0-2.178.67-2.178 3.35v3.01c0 8.54 0 18.412.757 19.92.497 1.005 1.167 1.254 3.593 1.254 9.88 0 13.392-2.427 13.392-2.427l.168.08c-.168 2.266-.838 5.524-2.594 5.524-1.086 0-8.204-.328-15.23-.328h-8.29c1.34-2.68 1.34-17.413 1.34-34.9 0-6.946 0-13.642-1.172-15.987h8.123c9.538 0 14.645-.335 15.564-.335 1.172 0 1.172 5.188 1.172 5.188l-.255.086s-4.517-2.258-12.22-2.258c-4.095 0-4.35.75-4.35 5.94v9.04h2.347c6.44 0 16.737-.924 16.737-.924l.168.168c0 1.842-.335 4.604-1.005 4.604z" fill="none" stroke="#fff" stroke-width="4.385"/><path d="M114.507 111.514c-.67 0-8.62-.335-15.062-.335H90.74c1.507-2.676 1.755-6.778 1.755-15.987 0-17.488 0-32.556-1.173-34.895h9.625C99.613 62.973 99.36 76.03 99.36 95.28c0 12.554.166 13.057 3.598 13.057 10.295 0 13.392-2.427 13.392-2.427l.168.162c0 2.513-.757 5.442-2.01 5.442"/><path d="M114.507 111.514c-.67 0-8.62-.335-15.062-.335H90.74c1.507-2.676 1.755-6.778 1.755-15.987 0-17.488 0-32.556-1.173-34.895h9.625C99.613 62.973 99.36 76.03 99.36 95.28c0 12.554.166 13.057 3.598 13.057 10.295 0 13.392-2.427 13.392-2.427l.168.162c0 2.513-.757 5.442-2.01 5.442z" fill="none" stroke="#fff" stroke-width="4.385"/><path d="M122.29 111.18c1.34-2.68 1.34-8.453 1.34-19.33 0-15.82 0-28.877-1.34-31.552h9.37c-1.167 2.34-1.167 17.408-1.167 34.896 0 9.21 0 11.468 1.502 15.986h-9.706z"/><path d="M122.29 111.18c1.34-2.68 1.34-8.453 1.34-19.33 0-15.82 0-28.877-1.34-31.552h9.37c-1.167 2.34-1.167 17.408-1.167 34.896 0 9.21 0 11.468 1.502 15.986h-9.706z" fill="none" stroke="#fff" stroke-width="4.385"/><path d="M183.55 109.255c-2.09 2.09-8.54 2.93-17.407 2.93-16.235 0-26.698-11.885-26.698-25.526 0-13.976 10.88-27.368 29.124-27.368 8.538 0 14.9 1.253 14.9 3.848 0 4.523-.59 7.285-.59 7.285l-.584.248c-1.34-2.594-6.863-7.7-17.996-7.7-10.625 0-17.656 7.284-17.656 21.34 0 11.885 6.193 24.693 21.925 24.693 9.37 0 13.975-4.94 16.066-9.29l.59.25.08 1.172s-.08 6.44-1.756 8.117"/><path d="M183.55 109.255c-2.09 2.09-8.54 2.93-17.407 2.93-16.235 0-26.698-11.885-26.698-25.526 0-13.976 10.88-27.368 29.124-27.368 8.538 0 14.9 1.253 14.9 3.848 0 4.523-.59 7.285-.59 7.285l-.584.248c-1.34-2.594-6.863-7.7-17.996-7.7-10.625 0-17.656 7.284-17.656 21.34 0 11.885 6.193 24.693 21.925 24.693 9.37 0 13.975-4.94 16.066-9.29l.59.25.08 1.172s-.08 6.44-1.756 8.117z" fill="none" stroke="#fff" stroke-width="4.385"/><path d="M214.765 91.512l-5.858-17.24c-.254-.67-.335-.75-.416-.75-.166 0-.253.16-.42.496l-6.778 16.576c-1.843 4.518-3.096 7.95-3.096 7.95l.08.167h15.484c2.848 0 3.016-.167 3.016-.588 0-.584-1.092-3.93-2.01-6.61m4.852 19.667s.503-.67.503-1.844c0-1.167-.918-4.35-2.09-7.696h-18.326c-2.098 0-2.768.08-3.016.67-.92 1.838-2.092 5.102-2.092 6.858 0 1.26.335 2.01.335 2.01h-7.11s1.334-1.923 2.09-3.43c.92-1.838 4.097-8.702 7.696-17.24l8.54-20.17c1.756-4.183 4.27-10.798 4.27-10.798l.75-.248s1.843 6.944 3.35 11.214l6.69 19.418c1.093 3.264 4.94 13.888 6.53 17.153 1.26 2.513 2.426 4.102 2.426 4.102h-10.544z"/><path d="M214.765 91.512l-5.858-17.24c-.254-.67-.335-.75-.416-.75-.166 0-.253.16-.42.496l-6.778 16.576c-1.843 4.518-3.096 7.95-3.096 7.95l.08.167h15.484c2.848 0 3.016-.167 3.016-.588 0-.584-1.092-3.93-2.01-6.61zm4.853 19.667s.503-.67.503-1.844c0-1.167-.918-4.35-2.09-7.696h-18.326c-2.098 0-2.768.08-3.016.67-.92 1.838-2.092 5.102-2.092 6.858 0 1.26.335 2.01.335 2.01h-7.11s1.334-1.923 2.09-3.43c.92-1.838 4.097-8.702 7.696-17.24l8.54-20.17c1.756-4.183 4.27-10.798 4.27-10.798l.75-.248s1.843 6.944 3.35 11.214l6.69 19.418c1.093 3.264 4.94 13.888 6.53 17.153 1.26 2.513 2.426 4.102 2.426 4.102h-10.544z" fill="none" stroke="#fff" stroke-width="4.385"/><path d="M272.677 97.79c0 6.274.248 14.23.248 14.23l-.75.167s-5.108-6.615-9.793-11.884l-21.926-24.94-.416.247c0 22.596.08 31.718 2.005 35.572h-6.863c1.172-2.346 1.172-18.835 1.172-37.663 0-5.86-.248-13.896-.248-13.896l.75-.335s3.352 4.355 9.794 11.802l21.925 25.357.422-.25c0-13.64-.087-32.555-1.762-35.906h6.615c-1.173 2.346-1.173 18.667-1.173 37.496"/><path d="M272.677 97.79c0 6.274.248 14.23.248 14.23l-.75.167s-5.108-6.615-9.793-11.884l-21.926-24.94-.416.247c0 22.596.08 31.718 2.005 35.572h-6.863c1.172-2.346 1.172-18.835 1.172-37.663 0-5.86-.248-13.896-.248-13.896l.75-.335s3.352 4.355 9.794 11.802l21.925 25.357.422-.25c0-13.64-.087-32.555-1.762-35.906h6.615c-1.173 2.346-1.173 18.667-1.173 37.496z" fill="none" stroke="#fff" stroke-width="4.385"/><path d="M390.69 64.062c-.415 0-8.365-1.006-15.65-1.006-1.924 0-2.172.67-2.172 3.35v3.01c0 25.86 0 36.156.75 37.664.503 1.005 1.173 1.254 3.6 1.254 9.29 0 13.808-2.427 13.808-2.427l.167.08c-.167 2.266-.415 5.524-2.178 5.524-1.086 0-9.203-.328-16.067-.328h-8.365c1.334-2.68 1.42-15.986 1.42-53.562 0-9.21 0-11.468-1.507-15.986h8.452c9.458 0 14.646-.335 15.57-.335 1.173 0 1.173 5.354 1.173 5.354l-.253.08s-4.518-2.425-12.22-2.425c-4.1 0-4.35.756-4.35 5.944v10.04h2.34c6.36 0 16.322-1.004 16.322-1.004l.166.167c0 1.843-.335 4.605-1.005 4.605"/><path d="M390.69 64.062c-.415 0-8.365-1.006-15.65-1.006-1.924 0-2.172.67-2.172 3.35v3.01c0 25.86 0 36.156.75 37.664.503 1.005 1.173 1.254 3.6 1.254 9.29 0 13.808-2.427 13.808-2.427l.167.08c-.167 2.266-.415 5.524-2.178 5.524-1.086 0-9.203-.328-16.067-.328h-8.365c1.334-2.68 1.42-15.986 1.42-53.562 0-9.21 0-11.468-1.507-15.986h8.452c9.458 0 14.646-.335 15.57-.335 1.173 0 1.173 5.354 1.173 5.354l-.253.08s-4.518-2.425-12.22-2.425c-4.1 0-4.35.756-4.35 5.944v10.04h2.34c6.36 0 16.322-1.004 16.322-1.004l.166.167c0 1.843-.335 4.605-1.005 4.605z" fill="none" stroke="#fff" stroke-width="4.385"/><path d="M440.32 60.965c-3.6.416-5.777 2.514-9.96 11.636l-7.198 15.646c-1.59 3.432-2.427 6.194-2.427 8.707 0 7.534.168 11.214 1.676 14.23h-9.873c1.335-2.68 1.335-8.372 1.335-15.068 0-1.253-.08-2.68-.92-4.35l-7.78-15.57c-3.768-7.528-7.703-14.646-11.885-15.478l-.08-.422s3.176-.335 7.527-.335c4.183 0 5.355 1.173 8.7 8.62l9.042 20.17c.168.42.335.67.584.67.167 0 .335-.168.502-.584l8.372-20.84c3.096-7.7 3.432-8.036 7.95-8.036 1.588 0 4.523.59 4.523.59l-.087.415z"/><path d="M440.32 60.965c-3.6.416-5.777 2.514-9.96 11.636l-7.198 15.646c-1.59 3.432-2.427 6.194-2.427 8.707 0 7.534.168 11.214 1.676 14.23h-9.873c1.335-2.68 1.335-8.372 1.335-15.068 0-1.253-.08-2.68-.92-4.35l-7.78-15.57c-3.768-7.528-7.703-14.646-11.885-15.478l-.08-.422s3.176-.335 7.527-.335c4.183 0 5.355 1.173 8.7 8.62l9.042 20.17c.168.42.335.67.584.67.167 0 .335-.168.502-.584l8.372-20.84c3.096-7.7 3.432-8.036 7.95-8.036 1.588 0 4.523.59 4.523.59l-.087.415z" fill="none" stroke="#fff" stroke-width="4.385"/><path d="M470.947 81.804s-8.62-1.005-16.067-1.005c-1.756 0-2.172.67-2.172 3.35v3.01c0 8.54 0 18.412.75 19.92.498 1.005 1.168 1.254 3.6 1.254 9.874 0 13.387-2.427 13.387-2.427l.173.08c-.173 2.266-.844 5.524-2.6 5.524-1.086 0-8.198-.328-15.23-.328h-8.284c1.34-2.68 1.34-17.413 1.34-34.9 0-6.946 0-13.642-1.173-15.987h8.12c9.537 0 14.644-.335 15.563-.335 1.173 0 1.173 5.188 1.173 5.188l-.254.086s-4.518-2.258-12.214-2.258c-4.102 0-4.35.75-4.35 5.94v9.04h2.34c6.442 0 16.737-.924 16.737-.924l.167.168c0 1.842-.335 4.604-1.005 4.604"/><path d="M470.947 81.804s-8.62-1.005-16.067-1.005c-1.756 0-2.172.67-2.172 3.35v3.01c0 8.54 0 18.412.75 19.92.498 1.005 1.168 1.254 3.6 1.254 9.874 0 13.387-2.427 13.387-2.427l.173.08c-.173 2.266-.844 5.524-2.6 5.524-1.086 0-8.198-.328-15.23-.328h-8.284c1.34-2.68 1.34-17.413 1.34-34.9 0-6.946 0-13.642-1.173-15.987h8.12c9.537 0 14.644-.335 15.563-.335 1.173 0 1.173 5.188 1.173 5.188l-.254.086s-4.518-2.258-12.214-2.258c-4.102 0-4.35.75-4.35 5.94v9.04h2.34c6.442 0 16.737-.924 16.737-.924l.167.168c0 1.842-.335 4.604-1.005 4.604z" fill="none" stroke="#fff" stroke-width="4.385"/><path d="M483.166 112.184c-2.427 0-4.6-.335-5.27-1.005-.837-.84-1.594-3.346-1.76-7.448l.42-.168s3.68 5.69 9.036 5.69c4.772 0 7.112-2.68 7.112-7.365 0-8.702-12.97-20.84-12.97-30.21 0-6.946 4.102-12.388 13.144-12.388 3.09 0 4.43.502 4.934 1.005.837.838.837 5.02.837 6.777l-.503.167s-2.427-4.938-7.534-4.938c-3.426 0-5.523 2.01-5.523 6.026 0 7.285 13.894 19.002 13.894 29.46 0 7.954-4.685 14.396-15.818 14.396"/><path d="M483.166 112.184c-2.427 0-4.6-.335-5.27-1.005-.837-.84-1.594-3.346-1.76-7.448l.42-.168s3.68 5.69 9.036 5.69c4.772 0 7.112-2.68 7.112-7.365 0-8.702-12.97-20.84-12.97-30.21 0-6.946 4.102-12.388 13.144-12.388 3.09 0 4.43.502 4.934 1.005.837.838.837 5.02.837 6.777l-.503.167s-2.427-4.938-7.534-4.938c-3.426 0-5.523 2.01-5.523 6.026 0 7.285 13.894 19.002 13.894 29.46 0 7.954-4.685 14.396-15.818 14.396z" fill="none" stroke="#fff" stroke-width="4.385"/><path d="M65.944 153.577h1.514l3.426 8.834 3.34-8.833h1.357l-4.05 10.284h-1.38l-4.206-10.283zM80.947 153.575h1.335v10.284h-1.335v-10.285zm.665-5.073c.56 0 1.005.445 1.005 1 0 .56-.445 1.005-1.005 1.005-.555 0-1-.445-1-1.005 0-.555.445-1 1-1M97.15 157.85c0-1.825-1.584-3.338-3.56-3.338-2.917 0-3.743 2.807-3.743 3.34h7.302zm1.022 4.074c-1.046 1.56-2.623 2.2-4.45 2.2-3.14 0-5.21-2.246-5.21-5.43 0-3.067 2.138-5.384 5.142-5.384 3.16 0 4.83 2.426 4.83 4.807v.936h-8.637c0 1.115.78 3.87 3.9 3.87 1.357 0 2.778-.71 3.45-1.825l.975.826zM103.048 153.577h1.468l2.495 8.614h.042l2.87-8.613h1.272l3.05 8.614h.047l2.422-8.613h1.34l-3.027 10.284h-1.38l-3.075-8.41h-.046l-2.866 8.41h-1.38l-3.23-10.283zM137.214 162.926c2.513 0 4.073-1.89 4.073-4.206 0-2.317-1.56-4.206-4.073-4.206-2.426 0-4.293 1.89-4.293 4.206 0 2.317 1.868 4.206 4.294 4.206m-5.5-9.348h1.34v1.802h.04c.827-1.427 2.583-2.068 4.12-2.068 3.16 0 5.408 2.27 5.408 5.408 0 3.137-2.248 5.407-5.408 5.407-1.537 0-3.293-.647-4.12-2.068h-.04v6.874h-1.34v-15.356zM153.952 158.696c-2.225 0-4.45.555-4.45 2.317 0 1.265 1.22 1.912 2.335 1.912 2.848 0 3.582-1.825 3.582-3.54v-.69h-1.468zm2.67.844c0 2.004.045 3.143.2 4.32h-1.247c-.087-.513-.133-1.09-.133-1.67h-.046c-.757 1.313-1.866 1.937-3.605 1.937-1.755 0-3.627-.867-3.627-3.05 0-3.138 3.674-3.45 5.702-3.45h1.554v-.624c0-1.78-1.243-2.49-2.895-2.49-1.202 0-2.225.376-3.137 1.156l-.78-.914c.982-.936 2.582-1.444 3.917-1.444 2.496 0 4.096 1.11 4.096 3.714v2.514zM163.212 156.47c0-.756-.11-2.356-.11-2.893h1.335c.023.757.046 1.606.086 1.802.67-1.202 1.74-2.07 3.276-2.07.265 0 .507.047.773.11l-.156 1.312c-.196-.063-.375-.086-.508-.086-2.318 0-3.364 1.6-3.364 3.605v5.61h-1.334v-7.39zM178.97 158.696c-2.224 0-4.448.555-4.448 2.317 0 1.265 1.22 1.912 2.334 1.912 2.848 0 3.582-1.825 3.582-3.54v-.69h-1.468zm2.67.844c0 2.004.046 3.143.202 4.32h-1.248c-.087-.513-.133-1.09-.133-1.67h-.045c-.757 1.313-1.866 1.937-3.605 1.937-1.757 0-3.63-.867-3.63-3.05 0-3.138 3.676-3.45 5.704-3.45h1.554v-.624c0-1.78-1.242-2.49-2.895-2.49-1.2 0-2.224.376-3.137 1.156l-.78-.914c.982-.936 2.583-1.444 3.917-1.444 2.496 0 4.096 1.11 4.096 3.714v2.514zM193.06 154.512c-2.514 0-4.073 1.895-4.073 4.206 0 2.317 1.56 4.206 4.073 4.206 2.426 0 4.298-1.89 4.298-4.206 0-2.31-1.872-4.206-4.298-4.206m4.16 7.545h-.04c-.827 1.427-2.584 2.07-4.12 2.07-3.16 0-5.408-2.272-5.408-5.41 0-3.136 2.247-5.407 5.408-5.407 1.536 0 3.293.648 4.12 2.07h.04v-8.344h1.34v16.824h-1.34v-1.803zM205.08 153.575h1.335v10.284h-1.334v-10.285zm.665-5.073c.56 0 1.005.445 1.005 1 0 .56-.445 1.005-1.005 1.005-.555 0-1-.445-1-1.005 0-.555.445-1 1-1M213.248 161.234c.554 1.092 1.78 1.693 2.98 1.693 1.162 0 2.364-.716 2.364-1.895 0-2.825-6.1-.844-6.1-4.76 0-2.005 1.824-2.964 3.517-2.964 1.67 0 2.957.624 3.627 1.94l-1.2.71c-.515-.935-1.226-1.45-2.428-1.45-.96 0-2.185.585-2.185 1.654 0 2.78 6.1.618 6.1 4.783 0 2.115-1.76 3.184-3.72 3.184-1.756 0-3.333-.672-4.136-2.093l1.178-.803zM233.79 157.85c0-1.825-1.582-3.338-3.557-3.338-2.918 0-3.744 2.807-3.744 3.34h7.3zm1.024 4.074c-1.046 1.56-2.623 2.2-4.45 2.2-3.136 0-5.21-2.246-5.21-5.43 0-3.067 2.138-5.384 5.142-5.384 3.16 0 4.83 2.426 4.83 4.807v.936h-8.637c0 1.115.78 3.87 3.9 3.87 1.356 0 2.778-.71 3.448-1.825l.976.826zM242.25 161.857c.6 0 1.07.468 1.07 1.07 0 .6-.47 1.068-1.07 1.068-.6 0-1.07-.468-1.07-1.07 0-.6.47-1.068 1.07-1.068M251.064 161.857c.6 0 1.068.468 1.068 1.07 0 .6-.468 1.068-1.068 1.068-.6 0-1.07-.468-1.07-1.07 0-.6.47-1.068 1.07-1.068M259.878 161.857c.6 0 1.07.468 1.07 1.07 0 .6-.47 1.068-1.07 1.068-.6 0-1.07-.468-1.07-1.07 0-.6.47-1.068 1.07-1.068M269.617 154.78h-2.137l.167-1.202h2.138l.473-3.363c.376-2.646 2.248-3.45 3.56-3.45.646 0 1.126.088 1.5.267l-.432 1.16c-.29-.155-.658-.224-1.173-.224-1.22 0-1.923.89-2.183 2.74l-.41 2.87h2.41l-.175 1.202h-2.403l-1.283 9.082h-1.335l1.282-9.082zM278.238 156.47c.104-.756.22-2.356.294-2.893h1.34c-.086.757-.184 1.606-.167 1.802.838-1.202 2.028-2.07 3.565-2.07.266 0 .502.047.762.11l-.34 1.312c-.19-.063-.364-.086-.503-.086-2.312 0-3.583 1.6-3.866 3.605l-.792 5.61h-1.334l1.04-7.39zM292.195 162.926c2.513 0 4.34-1.89 4.668-4.206.324-2.317-.964-4.206-3.483-4.206-2.513 0-4.34 1.89-4.663 4.206-.33 2.317.965 4.206 3.478 4.206m1.358-9.614c3.16 0 5.09 2.27 4.645 5.408-.445 3.137-3.01 5.407-6.17 5.407s-5.09-2.27-4.645-5.407c.44-3.137 3.01-5.408 6.17-5.408M304.524 156.47c.104-.756.22-2.356.295-2.893h1.34c-.087.757-.186 1.606-.168 1.802h.07c.692-1.133 2.137-2.07 3.806-2.07 1.358 0 2.508.67 2.78 2.225.86-1.536 2.38-2.224 3.807-2.224 3.206 0 3.61 2.18 3.293 4.432l-.867 6.12h-1.333l.855-6.056c.236-1.67 0-3.293-2.115-3.293-2.473 0-3.414 2.09-3.622 3.56l-.815 5.788h-1.335l.873-6.187c.266-1.89-.243-3.16-1.693-3.16-1.976 0-3.755 1.38-4.154 4.206l-.72 5.14h-1.336l1.04-7.39zM339.496 162.926c2.513 0 4.073-1.89 4.073-4.206 0-2.317-1.56-4.206-4.074-4.206-2.427 0-4.3 1.89-4.3 4.206 0 2.317 1.873 4.206 4.3 4.206M334 153.578h1.33v1.802h.046c.826-1.427 2.583-2.068 4.12-2.068 3.16 0 5.407 2.27 5.407 5.408 0 3.137-2.247 5.407-5.408 5.407-1.536 0-3.293-.647-4.12-2.068h-.045v6.874H334v-15.356zM356.234 158.696c-2.224 0-4.455.555-4.455 2.317 0 1.265 1.224 1.912 2.34 1.912 2.848 0 3.58-1.825 3.58-3.54v-.69h-1.466zm2.67.844c0 2.004.045 3.143.2 4.32h-1.247c-.086-.513-.133-1.09-.133-1.67h-.046c-.757 1.313-1.866 1.937-3.605 1.937-1.756 0-3.628-.867-3.628-3.05 0-3.138 3.674-3.45 5.696-3.45h1.56v-.624c0-1.78-1.247-2.49-2.893-2.49-1.202 0-2.224.376-3.137 1.156l-.78-.914c.982-.936 2.582-1.444 3.917-1.444 2.496 0 4.096 1.11 4.096 3.714v2.514zM365.493 156.47c0-.756-.116-2.356-.116-2.893h1.34c.024.757.047 1.606.087 1.802.67-1.202 1.74-2.07 3.276-2.07.266 0 .508.047.78.11l-.156 1.312c-.202-.063-.38-.086-.514-.086-2.317 0-3.363 1.6-3.363 3.605v5.61h-1.334v-7.39zM381.25 158.696c-2.224 0-4.448.555-4.448 2.317 0 1.265 1.225 1.912 2.334 1.912 2.848 0 3.582-1.825 3.582-3.54v-.69h-1.467zm2.67.844c0 2.004.046 3.143.202 4.32h-1.248c-.087-.513-.133-1.09-.133-1.67h-.045c-.757 1.313-1.866 1.937-3.605 1.937-1.756 0-3.628-.867-3.628-3.05 0-3.138 3.674-3.45 5.702-3.45h1.554v-.624c0-1.78-1.248-2.49-2.894-2.49-1.196 0-2.225.376-3.138 1.156l-.774-.914c.977-.936 2.577-1.444 3.912-1.444 2.495 0 4.096 1.11 4.096 3.714v2.514zM395.34 154.512c-2.514 0-4.074 1.895-4.074 4.206 0 2.317 1.56 4.206 4.073 4.206 2.426 0 4.298-1.89 4.298-4.206 0-2.31-1.872-4.206-4.3-4.206m4.167 7.545h-.046c-.827 1.427-2.584 2.07-4.12 2.07-3.16 0-5.408-2.272-5.408-5.41 0-3.136 2.247-5.407 5.407-5.407 1.536 0 3.293.648 4.12 2.07h.045v-8.344h1.334v16.824h-1.335v-1.803zM407.36 153.575h1.334v10.284h-1.335v-10.285zm.67-5.073c.554 0 1 .445 1 1 0 .56-.446 1.005-1 1.005-.56 0-1.006-.445-1.006-1.005 0-.555.445-1 1.005-1M415.53 161.234c.554 1.092 1.78 1.693 2.98 1.693 1.156 0 2.357-.716 2.357-1.895 0-2.825-6.095-.844-6.095-4.76 0-2.005 1.826-2.964 3.52-2.964 1.668 0 2.957.624 3.62 1.94l-1.2.71c-.51-.935-1.22-1.45-2.42-1.45-.96 0-2.185.585-2.185 1.654 0 2.78 6.1.618 6.1 4.783 0 2.115-1.76 3.184-3.72 3.184-1.756 0-3.34-.672-4.136-2.093l1.18-.803zM436.073 157.85c0-1.825-1.583-3.338-3.56-3.338-2.916 0-3.743 2.807-3.743 3.34h7.303zm1.023 4.074c-1.046 1.56-2.63 2.2-4.455 2.2-3.136 0-5.204-2.246-5.204-5.43 0-3.067 2.137-5.384 5.142-5.384 3.16 0 4.83 2.426 4.83 4.807v.936h-8.638c0 1.115.78 3.87 3.894 3.87 1.358 0 2.785-.71 3.455-1.825l.976.826zM312.6 167.657c.653.047 3.495.203 6.05.81.802.184 1.24.363 1.316.542.064.178-.087.733-.456 1.663-.012.012-.006.052 0 .116-.018.034-.035.074-.052.11-.162.328-.734.455-1.71.38-1.595-.162-3.218-.312-4.842-.49-8.84-1.006-14.432-1.4-21.44-1.266-7.87.15-10.936.456-14.518.895-3.2.392-5.137.808-6.668 1.426-1.363.55-2.19.803-2.478.763-.462-.06-.636-.192-.503-.4.248-.387 1.865-1.023 4.852-1.906 4.76-1.404 11.26-2.248 17.373-2.664 6.315-.422 15.235-.526 23.075.017M62.665 41.964c0-.71-.104-2.213-.104-2.715h1.255c.017.71.04 1.5.08 1.692.625-1.127 1.63-1.942 3.07-1.942.247 0 .478.04.727.104l-.145 1.23c-.185-.063-.352-.08-.48-.08-2.172 0-3.148 1.502-3.148 3.38v5.257h-1.255v-6.926zM80.548 43.258c0-1.71-1.48-3.132-3.34-3.132-2.732 0-3.506 2.63-3.506 3.132h6.846zm.96 3.82c-.983 1.46-2.462 2.067-4.172 2.067-2.94 0-4.882-2.11-4.882-5.096 0-2.878 2-5.05 4.818-5.05 2.964 0 4.53 2.276 4.53 4.506v.878h-8.1c0 1.046.734 3.63 3.65 3.63 1.278 0 2.613-.666 3.236-1.712l.92.775zM88.373 46.43c.52 1.022 1.67 1.588 2.796 1.588 1.085 0 2.212-.67 2.212-1.773 0-2.652-5.72-.798-5.72-4.466 0-1.88 1.71-2.78 3.3-2.78 1.565 0 2.772.583 3.402 1.82l-1.126.664c-.486-.878-1.15-1.358-2.277-1.358-.894 0-2.044.543-2.044 1.55 0 2.604 5.72.582 5.72 4.482 0 1.982-1.653 2.987-3.49 2.987-1.646 0-3.125-.63-3.877-1.964l1.103-.75zM105.526 48.015c2.357 0 3.818-1.773 3.818-3.946 0-2.167-1.46-3.94-3.818-3.94s-3.82 1.773-3.82 3.94c0 2.172 1.462 3.945 3.82 3.945m0-9.012c2.963 0 5.072 2.126 5.072 5.066 0 2.946-2.11 5.072-5.072 5.072-2.964 0-5.073-2.126-5.073-5.073 0-2.94 2.11-5.067 5.073-5.067M117.15 41.964c0-.71-.105-2.213-.105-2.715h1.254c.016.71.04 1.5.08 1.692.624-1.127 1.63-1.942 3.067-1.942.25 0 .48.04.728.104l-.144 1.23c-.184-.063-.35-.08-.48-.08-2.17 0-3.147 1.502-3.147 3.38v5.257h-1.254v-6.926zM132.57 40.378h-2.757v6.28c0 .855.503 1.358 1.335 1.358.48 0 .982-.144 1.42-.335l.105 1.128c-.456.167-1.15.335-1.63.335-1.79 0-2.478-1.104-2.478-2.485v-6.28h-2.09v-1.126h2.09V36.48h1.248v2.772h2.756v1.126zM152.726 44.05c-2.085 0-4.17.52-4.17 2.173 0 1.185 1.143 1.79 2.19 1.79 2.668 0 3.355-1.71 3.355-3.315v-.647h-1.374zm2.502.792c0 1.878.046 2.94.19 4.05h-1.166c-.087-.48-.128-1.022-.128-1.565h-.04c-.71 1.23-1.756 1.814-3.38 1.814-1.652 0-3.403-.814-3.403-2.86 0-2.94 3.445-3.23 5.346-3.23h1.455v-.588c0-1.664-1.166-2.334-2.708-2.334-1.127 0-2.086.353-2.94 1.086l-.735-.855c.92-.88 2.42-1.358 3.675-1.358 2.334 0 3.836 1.045 3.836 3.483v2.357zM162.326 41.964c0-.71-.104-2.213-.104-2.715h1.253c.018.71.04 1.5.08 1.692h.065c.502-1.063 1.733-1.942 3.3-1.942 3.003 0 3.667 2.046 3.667 4.154v5.737h-1.248V43.22c0-1.566-.44-3.09-2.42-3.09-1.862 0-3.34 1.293-3.34 3.945v4.818h-1.254v-6.926zM182.212 40.128c-2.357 0-3.82 1.773-3.82 3.946 0 2.166 1.463 3.94 3.82 3.94 2.276 0 4.027-1.774 4.027-3.94 0-2.173-1.752-3.946-4.028-3.946m3.9 7.07h-.04c-.77 1.34-2.42 1.942-3.86 1.942-2.964 0-5.073-2.126-5.073-5.066 0-2.947 2.108-5.073 5.072-5.073 1.44 0 3.09.608 3.86 1.942h.04v-7.828h1.253v15.778h-1.253V47.2zM203.392 46.43c.52 1.022 1.67 1.588 2.796 1.588 1.086 0 2.213-.67 2.213-1.773 0-2.652-5.72-.798-5.72-4.466 0-1.88 1.71-2.78 3.3-2.78 1.566 0 2.773.583 3.403 1.82l-1.127.664c-.485-.878-1.15-1.358-2.276-1.358-.895 0-2.045.543-2.045 1.55 0 2.604 5.72.582 5.72 4.482 0 1.982-1.653 2.987-3.49 2.987-1.646 0-3.126-.63-3.877-1.964l1.104-.75zM220.9 48.015c2.356 0 3.818-1.773 3.818-3.946 0-2.167-1.462-3.94-3.82-3.94-2.275 0-4.026 1.773-4.026 3.94 0 2.172 1.75 3.945 4.027 3.945m-5.154-8.764H217v1.694h.04c.768-1.34 2.42-1.94 3.86-1.94 2.963 0 5.072 2.125 5.072 5.065 0 2.946-2.11 5.072-5.073 5.072-1.44 0-3.092-.607-3.86-1.94H217v6.446h-1.254V39.25zM237.51 44.05c-2.086 0-4.172.52-4.172 2.173 0 1.185 1.144 1.79 2.19 1.79 2.67 0 3.356-1.71 3.356-3.315v-.647h-1.375zm2.5.792c0 1.878.047 2.94.192 4.05h-1.168c-.086-.48-.127-1.022-.127-1.565h-.04c-.71 1.23-1.756 1.814-3.38 1.814-1.652 0-3.403-.814-3.403-2.86 0-2.94 3.444-3.23 5.344-3.23h1.456v-.588c0-1.664-1.167-2.334-2.71-2.334-1.126 0-2.085.353-2.94 1.086l-.734-.855c.92-.88 2.42-1.358 3.675-1.358 2.334 0 3.836 1.045 3.836 3.483v2.357z" fill="#19b6ce"/><path d="M19.436 91.094c-1.588 0-2.345-.838-2.345-2.01 13.982-.503 22.602-8.03 22.602-22.26 0-15.062-9.458-23.515-20.758-23.515-7.03 0-7.366 2.593-7.366 10.96 0 50.216.254 54.23 1.594 56.912H3.537C4.71 108.837 4.71 93.607 4.71 60.965c0-6.696 0-16.656-1.34-19.33 0 0 10.543-1.007 13.056-1.007 23.433 0 31.383 12.387 31.383 24.27 0 16.993-15.068 26.196-28.374 26.196M81.283 81.804S72.663 80.8 65.216 80.8c-1.756 0-2.178.67-2.178 3.35v3.01c0 8.54 0 18.412.757 19.92.497 1.005 1.167 1.254 3.593 1.254 9.88 0 13.392-2.427 13.392-2.427l.168.08c-.168 2.266-.838 5.524-2.594 5.524-1.086 0-8.204-.328-15.23-.328h-8.29c1.34-2.68 1.34-17.413 1.34-34.9 0-6.946 0-13.642-1.172-15.987h8.123c9.538 0 14.645-.335 15.564-.335 1.172 0 1.172 5.188 1.172 5.188l-.255.086s-4.517-2.258-12.22-2.258c-4.095 0-4.35.75-4.35 5.94v9.04h2.347c6.44 0 16.737-.924 16.737-.924l.168.168c0 1.842-.335 4.604-1.005 4.604M114.507 111.514c-.67 0-8.62-.335-15.062-.335H90.74c1.507-2.676 1.755-6.778 1.755-15.987 0-17.488 0-32.556-1.173-34.895h9.625C99.613 62.973 99.36 76.03 99.36 95.28c0 12.554.166 13.057 3.598 13.057 10.295 0 13.392-2.427 13.392-2.427l.168.162c0 2.513-.757 5.442-2.01 5.442M122.29 111.18c1.34-2.68 1.34-8.453 1.34-19.33 0-15.82 0-28.877-1.34-31.552h9.37c-1.167 2.34-1.167 17.408-1.167 34.896 0 9.21 0 11.468 1.502 15.986h-9.706zM183.55 109.255c-2.09 2.09-8.54 2.93-17.407 2.93-16.235 0-26.698-11.885-26.698-25.526 0-13.976 10.88-27.368 29.124-27.368 8.538 0 14.9 1.253 14.9 3.848 0 4.523-.59 7.285-.59 7.285l-.584.248c-1.34-2.594-6.863-7.7-17.996-7.7-10.625 0-17.656 7.284-17.656 21.34 0 11.885 6.193 24.693 21.925 24.693 9.37 0 13.975-4.94 16.066-9.29l.59.25.08 1.172s-.08 6.44-1.756 8.117M214.765 91.512l-5.858-17.24c-.248-.67-.335-.75-.416-.75-.166 0-.253.16-.42.496l-6.778 16.576c-1.843 4.518-3.096 7.95-3.096 7.95l.08.167h15.484c2.848 0 3.016-.167 3.016-.588 0-.584-1.092-3.93-2.01-6.61m4.852 19.667s.503-.67.503-1.844c0-1.167-.918-4.35-2.09-7.696h-18.326c-2.098 0-2.762.08-3.016.67-.92 1.838-2.092 5.102-2.092 6.858 0 1.26.335 2.01.335 2.01h-7.11s1.334-1.923 2.09-3.43c.92-1.838 4.097-8.702 7.696-17.24l8.54-20.17c1.756-4.183 4.27-10.798 4.27-10.798l.75-.248s1.843 6.944 3.35 11.214l6.69 19.418c1.093 3.264 4.94 13.888 6.53 17.153 1.26 2.513 2.426 4.102 2.426 4.102h-10.544zM272.677 97.79c0 6.274.25 14.23.25 14.23l-.752.167s-5.107-6.615-9.793-11.884l-21.925-24.94-.422.247c0 22.596.087 31.718 2.01 35.572h-6.863c1.173-2.346 1.173-18.835 1.173-37.663 0-5.86-.25-13.896-.25-13.896l.753-.335s3.345 4.355 9.792 11.802l21.926 25.357.42-.25c0-13.64-.085-32.555-1.76-35.906h6.614c-1.173 2.346-1.173 18.667-1.173 37.496M390.69 64.062c-.415 0-8.365-1.006-15.65-1.006-1.924 0-2.172.67-2.172 3.35v3.01c0 25.86 0 36.156.75 37.664.503 1.005 1.173 1.254 3.6 1.254 9.29 0 13.808-2.427 13.808-2.427l.167.08c-.167 2.266-.415 5.524-2.178 5.524-1.086 0-9.203-.328-16.067-.328h-8.365c1.334-2.68 1.42-15.986 1.42-53.562 0-9.21 0-11.468-1.507-15.986h8.452c9.458 0 14.646-.335 15.57-.335 1.173 0 1.173 5.354 1.173 5.354l-.253.08s-4.518-2.425-12.22-2.425c-4.1 0-4.35.756-4.35 5.944v10.04h2.34c6.36 0 16.322-1.004 16.322-1.004l.166.167c0 1.843-.335 4.605-1.005 4.605M440.32 60.965c-3.6.416-5.777 2.514-9.96 11.636l-7.198 15.646c-1.59 3.432-2.427 6.194-2.427 8.707 0 7.534.168 11.214 1.676 14.23h-9.873c1.335-2.68 1.335-8.372 1.335-15.068 0-1.253-.08-2.68-.92-4.35l-7.78-15.57c-3.768-7.528-7.703-14.646-11.885-15.478l-.08-.422s3.176-.335 7.527-.335c4.183 0 5.355 1.173 8.7 8.62l9.042 20.17c.168.42.335.67.584.67.173 0 .335-.168.502-.584l8.372-20.84c3.096-7.7 3.432-8.036 7.95-8.036 1.588 0 4.523.59 4.523.59l-.087.415zM470.95 81.804s-8.62-1.005-16.073-1.005c-1.756 0-2.172.67-2.172 3.35v3.01c0 8.54 0 18.412.75 19.92.504 1.005 1.174 1.254 3.6 1.254 9.874 0 13.392-2.427 13.392-2.427l.168.08c-.168 2.266-.838 5.524-2.594 5.524-1.09 0-8.203-.328-15.234-.328H444.5c1.34-2.68 1.34-17.413 1.34-34.9 0-6.946 0-13.642-1.17-15.987h8.116c9.544 0 14.646-.335 15.57-.335 1.167 0 1.167 5.188 1.167 5.188l-.248.086s-4.518-2.258-12.22-2.258c-4.102 0-4.35.75-4.35 5.94v9.04h2.346c6.442 0 16.738-.924 16.738-.924l.162.168c0 1.842-.336 4.604-1 4.604M483.166 112.184c-2.427 0-4.6-.335-5.27-1.005-.837-.84-1.594-3.346-1.76-7.448l.42-.168s3.68 5.69 9.036 5.69c4.772 0 7.112-2.68 7.112-7.365 0-8.702-12.97-20.84-12.97-30.21 0-6.946 4.102-12.388 13.144-12.388 3.09 0 4.43.502 4.934 1.005.837.838.837 5.02.837 6.777l-.503.167s-2.427-4.938-7.534-4.938c-3.426 0-5.523 2.01-5.523 6.026 0 7.285 13.894 19.002 13.894 29.46 0 7.954-4.685 14.396-15.818 14.396" fill="#5f5442"/></svg>