<svg xmlns="http://www.w3.org/2000/svg" width="400" height="510.212"><path d="M375.768 127.58l-14.39 14.17-2.468-2.417c-24.64-24.137-53.5-36.37-85.787-36.37-28.142 0-51.88 9.14-70.54 27.16-18.638 17.99-28.085 40.815-28.085 67.844 0 23.58 9.186 45.153 27.3 64.128 18.072 18.932 43.45 28.527 75.435 28.527 46.623 0 75.76-18.9 88.922-57.73h-66.027v-41.08h81.615c.47-5.266.728-10.6.728-15.98 0-16.734-2.335-32.922-6.702-48.253M276.45 333.265c-43.85 0-79.37-14.02-105.57-41.666-15.143-15.98-25.955-33.442-32.382-52.223v98.578c20.96 8.824 43.983 13.7 68.148 13.7 28.294 0 55.028-6.693 78.713-18.57-2.922.104-5.876.18-8.91.18" fill="#4fc6f4" fill-rule="evenodd"/><path d="M99.124 70.63h39.373v81.777c6.564-19.285 17.7-36.704 33.35-52.07 26.782-26.296 59.67-39.624 97.755-39.624 22.477 0 43.326 3.463 61.964 10.29 8.096 2.967 16.31 7.077 24.603 12.295C325.167 33.303 269.796 0 206.643 0 109.537 0 30.82 78.722 30.82 175.83c0 56.607 26.757 106.96 68.304 139.116V70.63z" fill="#4fc6f4" fill-rule="evenodd"/><path d="M66.065 381.73h31.97l27.838 35.568 27.277-35.567h31.704l-43.53 56.413 52.616 68.585h-31.39l-36.89-47.793-37.252 47.793h-31.13l52.755-68.78-43.968-56.217zM235.757 428.245h76.368c-8.486-17.172-21.016-25.76-37.58-25.76-18.08 0-31.01 8.588-38.788 25.76m103.94 21.06H233.03c2.32 12.828 7.596 22.195 15.83 28.103 8.235 5.913 17.202 8.867 26.896 8.867 14.946 0 27.476-6.213 37.575-18.638l19.242 14.547c-14.447 18.69-33.788 28.028-58.03 28.028-18.585 0-34.14-6.36-46.665-19.09-12.53-12.73-18.785-28.532-18.785-47.426 0-17.672 6.336-33 19.013-45.98 12.677-12.978 28.156-19.47 46.437-19.47 17.977 0 33.384 6.588 46.214 19.774 12.823 13.18 19.14 30.277 18.936 51.284M373.637 310.066H400V506.73h-26.363V310.067zM.005 506.73h26.063V351.656H.005V506.73zM26.063 313.705H0v25.754h26.063v-25.755z" fill="#585859"/></svg>