<svg xmlns="http://www.w3.org/2000/svg" width="400" height="228.89"><path d="M360.39 135.685c3.6 0 5.616 3.602 5.616 7.78 0 4.61-2.016 7.92-5.617 7.92v4.178c6.625-.143 11.234-4.753 11.234-12.243 0-6.482-3.89-11.812-11.09-11.812h-.144v4.177zm15.843-23.19h-8.642v-4.897h9.075v-4.32h-14.26v23.334h14.837v-4.322h-9.65v-5.473h8.64v-4.322zm-15.844 38.89c-3.602 0-5.62-3.456-5.62-7.777 0-4.32 2.018-7.923 5.62-7.923v-4.177c-6.77.146-11.236 5.33-11.236 12.244 0 6.626 4.177 11.81 10.947 11.81h.287v-4.176zm-11.38 3.746v-4.464 4.465zm0-28.663v-4.177c3.025-.864 4.897-3.457 4.897-7.78 0-3.887-1.872-6.336-4.897-7.056v-4.177c2.736.288 4.897 1.008 6.48 2.304 2.45 1.73 3.89 4.61 3.89 8.788 0 4.465-1.584 7.49-3.744 9.506-1.73 1.297-3.89 2.16-6.626 2.593zm0-23.19v4.177c-.72-.143-1.585-.288-2.45-.288-1.15 0-2.016.145-2.448.288v15.124c.432.144 1.153.144 1.873.144 1.008 0 2.16-.144 3.025-.432v4.177c-1.297.288-2.737.432-4.178.432-2.736 0-4.753-.29-5.905-.433v-22.76c1.872-.43 4.32-.575 7.058-.575 1.008 0 2.016 0 3.025.145zm0 47.39v4.464h-14.404v-23.19h5.185v18.726h9.22zm-45.66 4.896v-4.177c3.6 0 5.616-3.312 5.616-7.922 0-4.177-2.016-7.78-5.617-7.78v-4.176h.142c7.202 0 11.09 5.33 11.09 11.812 0 7.49-4.608 12.1-11.234 12.243zm0-35v-3.89h1.15l-1.15-4.178v-9.218h2.16l7.346 23.335h-5.762l-1.728-6.05h-2.017zm14.115 34.568h14.548v-4.464h-9.363V131.94h-5.185v23.19zm-2.017-28.518h14.404v-4.465h-9.218v-18.87h-5.186v23.335zm-12.1-23.335v9.218l-.287-.72c-.287-1.44-.72-3.168-1.15-4.465-.29 1.297-.722 3.025-1.154 4.466l-1.296 4.896h3.89v3.89h-4.754l-1.585 6.05h-5.473l7.203-23.335h4.61zm0 28.23v4.178c-3.6 0-5.617 3.602-5.617 7.923 0 4.32 2.018 7.778 5.62 7.778v4.177h-.287c-6.77 0-10.947-5.185-10.947-11.81 0-6.915 4.465-12.1 11.235-12.245zm-21.605 14.694v-4.032c2.016-.432 3.17-1.584 3.17-3.314 0-1.87-1.154-3.024-3.17-3.17v-3.887c2.737 0 4.753.576 6.194 1.73 1.44 1.15 2.16 2.735 2.16 4.896 0 2.88-2.016 4.897-4.033 5.617v.144c1.585.72 2.45 2.16 3.025 4.32.863 2.738 1.44 5.762 1.87 6.627h-5.328c-.288-.575-.864-2.592-1.585-5.472-.432-2.018-1.152-3.026-2.304-3.457zm0-23.19v-9.65c1.152 2.016 2.16 4.32 3.025 6.48h.143c-.43-3.023-.43-6.192-.43-9.793v-6.77h4.752v23.335h-5.473l-2.018-3.602zm0-9.65v9.65l-3.025-5.473c-1.296-2.45-2.88-5.473-4.033-8.21h-.143c.288 3.168.288 6.48.288 10.226v7.06h-4.754v-23.336h6.05l4.897 8.5c.29.575.433 1.007.72 1.583zm0 18.437v3.888h-.72c-1.297 0-2.017 0-2.305.146v6.338h3.025v4.034c-.432-.145-.864-.288-1.585-.288h-1.44v9.218h-5.33V132.23c1.73-.288 4.178-.576 7.058-.576.433 0 .865 0 1.297.143zM261.865 146.2v-4.032c2.017-.432 3.17-1.584 3.17-3.314 0-1.87-1.153-3.024-3.17-3.17v-3.887c2.737 0 4.754.576 6.194 1.73 1.44 1.15 2.16 2.735 2.16 4.896 0 2.88-2.017 4.897-4.034 5.617v.144c1.585.72 2.45 2.16 3.025 4.32.722 2.738 1.442 5.762 1.874 6.627h-5.33c-.432-.575-1.008-2.592-1.584-5.472-.576-2.018-1.152-3.026-2.305-3.457zm0-20.885V104.43c3.457 2.016 5.186 5.905 5.186 10.226 0 5.042-1.872 8.787-5.185 10.66zm0-20.886v20.885c-1.728 1.008-3.745 1.585-6.05 1.585v-4.178h.144c3.456 0 5.616-3.312 5.616-7.778 0-4.178-2.016-7.778-5.617-7.778h-.144v-4.177h.288c2.16 0 4.177.43 5.76 1.44zm0 27.367v3.888h-.72c-1.296 0-2.017 0-2.45.146v6.338h3.17v4.034c-.432-.145-1.008-.288-1.584-.288h-1.584v9.218h-2.88v-23.19c1.44-.145 3.024-.288 4.753-.288.43 0 .863 0 1.295.143zm-6.05-28.808v4.176c-3.6 0-5.617 3.457-5.617 7.778 0 4.466 2.16 7.778 5.618 7.778v4.178h-.144c-6.914 0-10.947-5.186-10.947-11.812 0-6.914 4.466-12.1 11.09-12.1zm0 28.95v23.19h-2.304V132.23c.72-.143 1.44-.287 2.306-.287zm-15.7 17.285v-4.033h2.593l-1.44-4.897c-.29-1.296-.72-3.025-1.153-4.465v-3.89h3.6l7.203 23.19H245.3l-1.728-5.905h-3.457zm0-22.613v-23.335h1.73v23.335h-1.73zm0-36.587v-9.65l1.73 2.88c1.44 2.45 2.735 5.33 3.744 7.922h.142c-.288-3.024-.432-6.193-.432-9.65v-6.77h4.753v23.19h-5.473l-4.466-7.922zm0-9.65v9.65l-.432-1.008c-1.44-2.45-3.025-5.474-4.033-8.21h-.143c.143 3.17.143 6.338.143 10.226v6.914h-4.753v-23.19h6.05l3.168 5.617zm0 22.902v23.335h-3.6v-23.335h3.6zm0 28.664v3.89h-.143c-.288 1.44-.576 3.17-1.008 4.465l-1.44 4.897h2.592v4.033h-3.313l-1.584 5.906h-5.475l7.058-23.19h3.313zM217.5 155.42v-4.322c.577 0 1.297.145 1.873.145 2.45 0 3.745-1.01 3.745-2.593 0-1.44-1.152-2.305-3.89-3.17-.72-.287-1.15-.43-1.727-.72v-12.53c1.153-.433 2.45-.72 4.034-.72 2.737 0 4.61.575 5.906 1.152l-1.153 4.177c-.864-.433-2.592-1.01-4.753-1.01-2.305 0-3.457 1.01-3.457 2.16 0 1.586 1.296 2.162 4.32 3.314 4.178 1.584 6.05 3.745 6.05 7.06 0 3.887-3.024 7.2-9.362 7.2-.576 0-1.152 0-1.584-.143zm0-33.13v-14.26c2.305-3.313 6.195-5.04 10.66-5.04 2.737 0 4.753.43 5.76 1.007l-1.15 4.177c-1.01-.576-2.45-.864-4.466-.864-4.033 0-7.346 2.448-7.346 7.634 0 4.754 2.737 7.634 7.49 7.634 1.584 0 3.313-.288 4.32-.72l.865 4.033c-1.008.577-3.17 1.01-6.05 1.01-4.753 0-8.066-1.73-10.082-4.61zm0-30.248v-3.89h2.594l-1.44-5.04c-.433-1.297-.865-3.026-1.153-4.322v-4.034h3.602l7.202 23.19h-5.618l-1.872-5.904H217.5zm0-17.286v4.034-.144h-.142c-.288 1.44-.72 3.17-1.01 4.466l-1.44 5.04h2.594v3.89h-3.313l-1.586 5.906h-5.473l7.06-23.19h3.312zm0 33.274v14.26c-1.296-1.872-2.016-4.32-2.016-7.057 0-2.88.72-5.186 2.017-7.203zm0 24.198v12.532c-2.88-1.44-4.753-3.312-4.753-6.337 0-2.738 1.73-5.185 4.754-6.195zm0 18.87v4.322c-2.16-.146-4.032-.72-5.04-1.297l1.008-4.32c1.008.43 2.448 1.007 4.033 1.295zm-13.54 4.033v-4.32h6.34v4.32h-6.34zm0-9.793v-4.322h5.33v4.322h-5.33zm0-9.075v-4.32h5.907v4.32h-5.906zm0-15.7v-3.89h2.594l-1.44-4.896c-.433-1.44-.72-3.17-1.153-4.466v-4.033h3.602l7.202 23.335h-5.617l-1.73-6.05h-3.456zm0-22.615v-4.32h2.018v4.32h-2.017zm0-4.32v4.32h-12.386v-23.19h5.185v18.87h7.2zm0 9.65v4.033h-.142c-.288 1.297-.576 3.025-1.008 4.466l-1.44 4.896h2.592v3.89h-3.313l-1.585 6.05h-5.474l7.06-23.335h3.312zm0 28.664v4.322h-3.168v4.753h3.17v4.322h-3.17v5.473h3.17v4.32h-8.5v-23.19h8.5zm-21.75 23.19v-4.32c3.026-.864 4.754-3.457 4.754-7.634 0-4.033-1.728-6.338-4.754-7.202v-4.177c2.738.288 4.754 1.008 6.483 2.304 2.304 1.874 3.89 4.754 3.89 8.932 0 4.32-1.586 7.49-3.89 9.362-1.584 1.44-3.89 2.306-6.483 2.737zm0-35v-9.795l.722 1.44c1.44 2.448 2.736 5.474 3.888 8.066-.288-3.023-.43-6.192-.43-9.793v-6.77h4.896v23.335h-5.474l-3.602-6.482zm0-30.68v-4.61c.865-.576 1.297-1.585 1.297-2.88 0-1.153-.432-2.162-1.297-2.738v-4.466c1.73.29 3.026.865 4.034 1.73 1.44 1.152 2.45 3.024 2.45 5.33 0 2.303-.72 4.32-2.017 5.472-1.298 1.153-2.737 1.873-4.467 2.16zm0-14.694v4.466c-.72-.432-1.727-.576-2.88-.576-1.008 0-1.728 0-2.16.143v6.77c.432.143 1.008.143 1.872.143 1.296 0 2.305-.288 3.168-.864v4.608c-1.008.29-2.16.29-3.168.29-.72 0-1.296 0-1.873-.147v8.356h-5.186V75.043c1.585-.288 3.89-.432 7.202-.432 1.008 0 2.016 0 3.024.145zm0 35.58v9.794l-1.44-2.593c-1.44-2.45-2.88-5.473-4.033-8.21h-.143c.143 3.168.288 6.48.288 10.226v7.06h-4.897v-23.336h6.194l4.03 7.058zm0 21.46v4.178c-.863-.143-1.727-.29-2.592-.29-1.152 0-1.872.147-2.304.29v15.27h1.728c1.152 0 2.16-.147 3.168-.434v4.32c-1.296.145-2.735.29-4.177.29-2.736 0-4.753-.146-6.05-.432v-22.76c2.017-.287 4.466-.575 7.06-.575 1.15 0 2.16.143 3.167.143" fill="#464646"/><path d="M185.236 175.01l1.584-12.245h-3.6l-2.16 4.754c-.577 1.007-1.297 2.448-1.73 3.89-.143-1.442-.143-2.74-.288-3.89l-.432-4.755h-3.457l-3.025 12.244h2.305l1.296-5.042c.288-1.297.576-3.17 1.007-4.754.146 1.585.146 3.313.288 4.61l.432 5.04h2.018l2.592-5.04c.576-1.297 1.44-3.025 2.016-4.61h.146c-.434 1.728-.722 3.457-.866 4.754l-.72 5.04h2.593M195.607 175.01c-.146-1.01.143-2.738.288-3.89l.864-4.753c-.72-.145-1.873-.433-2.882-.433-.72 0-1.296.145-1.873.288v2.017c.433-.145.72-.29 1.153-.29h.72l-.432 2.16c-.288 1.442-.864 2.45-1.44 2.738v1.873c.432-.287.864-.864 1.152-1.44h.145c-.145.72-.145 1.297-.145 1.73h2.45zm-3.602-8.788c-3.024.72-4.465 3.457-4.465 5.906 0 1.873 1.008 3.17 2.593 3.17.72 0 1.297-.146 1.872-.577v-1.872c-.287.288-.43.288-.72.288-.72 0-1.008-.576-1.008-1.44 0-1.297.72-2.736 1.728-3.457v-2.018M202.09 164.926c0-.432.142-.864.43-.864.144 0 .433.145.72.432.29.144.72.288 1.153.288 1.008 0 1.44-.72 1.585-2.16h-1.297c0 .575-.142.72-.43.72-.29 0-.577-.146-.865-.29-.288-.287-.576-.43-1.152-.43-.865 0-1.44.863-1.44 2.304h1.296zm-2.163 10.083l.72-3.89c.433-2.017 1.442-3.025 2.306-3.025.576 0 .864.432.864 1.008 0 .433 0 .72-.143 1.008l-.864 4.9h2.592l1.01-5.187c.142-.432.142-1.008.142-1.44 0-1.584-.864-2.45-2.305-2.45-1.153 0-2.306.578-3.17 1.73l.143-1.44h-2.304c-.145.72-.29 1.728-.433 2.88l-1.153 5.906h2.593M215.916 175.01c0-1.01.144-2.738.432-3.89l.865-4.753c-.72-.145-1.873-.433-3.025-.433-.576 0-1.297.145-1.73.288v2.017c.29-.145.722-.29 1.01-.29h.72l-.288 2.16c-.288 1.442-.864 2.45-1.44 2.738v1.873c.43-.287.72-.864 1.152-1.44 0 .72-.144 1.297-.144 1.73h2.45zm-3.457-8.788c-3.17.72-4.61 3.457-4.61 5.906 0 1.873 1.153 3.17 2.737 3.17.576 0 1.152-.146 1.872-.577v-1.872c-.29.288-.577.288-.865.288-.72 0-1.008-.576-1.008-1.44 0-1.297.72-2.736 1.872-3.457v-2.018M220.382 175.01l.72-3.89c.288-2.017 1.296-3.025 2.16-3.025.72 0 .865.432.865 1.008v1.008l-1.01 4.9h2.738l.864-5.187c.143-.432.143-1.008.143-1.44 0-1.584-.72-2.45-2.305-2.45-1.152 0-2.16.578-3.025 1.73l.143-1.44h-2.304c-.144.72-.288 1.728-.576 2.88l-1.01 5.906h2.594M236.226 175.01c0-1.01.143-2.738.432-3.89l.864-4.753c-.72-.145-1.872-.433-2.88-.433-.72 0-1.297.145-1.873.288v2.017c.287-.145.72-.29 1.15-.29h.722l-.432 2.16c-.29 1.442-.865 2.45-1.44 2.738v1.873c.43-.287.863-.864 1.15-1.44v1.73h2.306zm-3.457-8.788c-3.17.72-4.61 3.457-4.61 5.906 0 1.873 1.152 3.17 2.737 3.17.576 0 1.296-.146 1.872-.577v-1.872c-.29.288-.433.288-.72.288-.72 0-1.153-.576-1.153-1.44 0-1.297.72-2.736 1.872-3.457v-2.018M248.758 172.705c-.72.288-1.585.575-2.593.575h-.143v2.017c.864-.145 2.016-.288 2.88-.72l-.143-1.872zm-2.737-1.153c2.45-.143 4.034-1.008 4.034-2.88 0-1.73-1.296-2.738-3.17-2.738-.287 0-.575 0-.863.145v1.872c.144 0 .433-.145.577-.145.576 0 1.008.43 1.008.864 0 .577-.576.866-1.584 1.01v1.872zm0 1.728c-.72-.143-1.152-.287-1.44-.72-.288-.288-.288-.72-.288-.864.576 0 1.153 0 1.73-.144v-1.872h-1.586c.144-.72.72-1.44 1.585-1.728v-1.873c-2.736.43-4.32 3.023-4.32 5.472 0 2.305 1.296 3.746 3.89 3.746h.43v-2.018M250.342 174.577c.432.432 1.584.72 2.593.72 2.45 0 4.177-1.152 4.177-3.17 0-1.295-1.008-2.016-2.017-2.448-.72-.29-1.152-.577-1.152-1.01 0-.43.576-.72 1.152-.72.865 0 1.44.145 1.873.29l.576-1.873c-.432-.145-1.152-.433-2.305-.433-2.305 0-3.89 1.296-3.89 3.17 0 1.007.865 1.728 1.873 2.305.864.43 1.152.718 1.152 1.15 0 .433-.432.865-1.152.865-.864 0-1.73-.432-2.305-.72l-.576 1.872M269.355 162.19l-.72 4.032c-.432-.143-.864-.288-1.296-.288-.29 0-.72 0-1.01.145v2.016c.29-.144.577-.144.865-.144.432 0 .864.144 1.008.288l-.432 2.45c-.287 1.15-.863 2.016-1.44 2.304v1.728c.433-.288.865-.576 1.153-1.153l-.143 1.44h2.448c0-1.008.144-2.304.432-3.457l1.73-9.363h-2.594zm-3.024 3.89c-2.736.43-4.61 3.023-4.61 5.904 0 2.017 1.298 3.313 2.738 3.313.72 0 1.296-.145 1.873-.576v-1.727c-.143.143-.432.143-.576.143-.864 0-1.296-.576-1.296-1.584 0-1.44.72-2.88 1.873-3.457v-2.016M279.006 172.705c-.72.288-1.584.575-2.45.575h-.287v2.017c1.007-.145 2.016-.288 2.88-.72l-.143-1.872zm-2.737-1.153c2.592-.143 4.032-1.008 4.032-2.88 0-1.73-1.296-2.738-3.025-2.738-.432 0-.72 0-1.008.145v1.872c.287 0 .43-.145.575-.145.577 0 1.01.43 1.01.864 0 .577-.578.866-1.586 1.01v1.872zm0 1.728c-.577-.143-1.153-.287-1.44-.72-.144-.288-.29-.72-.29-.864.577 0 1.297 0 1.73-.144v-1.872h-1.44c.142-.72.575-1.44 1.44-1.728v-1.873c-2.593.43-4.322 3.023-4.322 5.472 0 2.305 1.44 3.746 3.89 3.746h.43v-2.018M283.47 175.01l.722-3.89c.288-1.872 1.152-3.025 2.16-3.025.576 0 .72.432.72 1.008v1.008l-1.008 4.9h2.593l.72-4.034c.288-1.728 1.296-2.88 2.16-2.88.577 0 .865.43.865 1.007 0 .433-.143.72-.143 1.153l-.866 4.753h2.45l1.007-5.187c.145-.432.145-1.152.145-1.44 0-1.584-.865-2.45-2.16-2.45-1.153 0-2.306.578-3.026 1.73-.144-.864-.72-1.73-2.16-1.73-1.154 0-2.306.578-3.026 1.73h-.144l.29-1.44h-2.306c-.143.72-.288 1.728-.432 2.88l-1.153 5.906h2.592M304.357 175.01c0-1.01.143-2.738.288-3.89l1.008-4.753c-.72-.145-1.872-.433-3.024-.433-.577 0-1.298.145-1.874.288v2.017c.432-.145.72-.29 1.153-.29h.72l-.29 2.16c-.287 1.442-.864 2.45-1.584 2.738v1.873c.432-.287.864-.864 1.297-1.44 0 .72-.144 1.297-.144 1.73h2.448zm-3.6-8.788c-3.026.72-4.466 3.457-4.466 5.906 0 1.873 1.01 3.17 2.738 3.17.576 0 1.152-.146 1.728-.577v-1.872c-.143.288-.432.288-.72.288-.72 0-1.008-.576-1.008-1.44 0-1.297.72-2.736 1.728-3.457v-2.018M305.798 174.577c.576.432 1.584.72 2.736.72 2.45 0 4.177-1.152 4.177-3.17 0-1.295-1.007-2.016-2.015-2.448-.72-.29-1.152-.577-1.152-1.01 0-.43.432-.72 1.152-.72.864 0 1.44.145 1.872.29l.577-1.873c-.433-.145-1.297-.433-2.305-.433-2.306 0-3.89 1.296-3.89 3.17 0 1.007.864 1.728 1.872 2.305.865.43 1.153.718 1.153 1.15 0 .433-.432.865-1.153.865-.864 0-1.872-.432-2.304-.72l-.72 1.872M316.313 175.01l1.728-8.788h-2.592l-1.728 8.787h2.593zm.72-10.084c.864 0 1.728-.576 1.728-1.584 0-.72-.575-1.297-1.44-1.297-.863 0-1.584.577-1.584 1.585 0 .864.577 1.296 1.297 1.296M326.827 175.01c0-1.01.144-2.738.433-3.89l.864-4.753c-.72-.145-1.873-.433-2.88-.433-.72 0-1.297.145-1.873.288v2.017c.288-.145.72-.29 1.153-.29h.576l-.29 2.16c-.287 1.442-.863 2.45-1.44 2.738v1.873c.433-.287.865-.864 1.153-1.44v1.73h2.304zm-3.456-8.788c-3.168.72-4.61 3.457-4.61 5.906 0 1.873 1.154 3.17 2.738 3.17.576 0 1.296-.146 1.873-.577v-1.872c-.288.288-.576.288-.72.288-.72 0-1.152-.576-1.152-1.44 0-1.297.72-2.736 1.873-3.457v-2.018M336.478 162.19l-.72 4.032c-.432-.143-.864-.288-1.296-.288-.288 0-.577 0-1.01.145v2.016c.29-.144.578-.144.866-.144.432 0 .864.144 1.008.288l-.432 2.45c-.288 1.15-.864 2.016-1.44 2.304v1.728c.43-.288.864-.576 1.152-1.153l-.144 1.44h2.45c0-1.008.142-2.304.43-3.457l1.73-9.363h-2.593zm-3.025 3.89c-2.736.43-4.61 3.023-4.61 5.904 0 2.017 1.297 3.313 2.882 3.313.576 0 1.152-.145 1.728-.576v-1.727c-.143.143-.432.143-.576.143-.72 0-1.296-.576-1.296-1.584 0-1.44.865-2.88 1.873-3.457v-2.016M343.68 175.297c2.737-.433 4.61-2.737 4.61-5.618 0-2.017-1.44-3.746-3.746-3.746-.288 0-.576 0-.864.145v2.016c.143-.144.288-.144.432-.144 1.01 0 1.44.864 1.44 1.728 0 1.297-.72 3.17-1.872 3.6v2.018zm-.72 0h.72v-2.017h-.432c-.864 0-1.44-.72-1.44-1.728 0-1.296.72-3.17 1.872-3.457v-2.016c-2.737.287-4.465 2.735-4.465 5.472 0 2.304 1.44 3.745 3.745 3.745M354.77 164.494l-.287 1.728h-1.152l-.43 1.873h1.15l-.72 3.6c-.142.72-.142 1.153-.142 1.585 0 1.153.72 2.017 2.304 2.017.576 0 1.297-.145 1.585-.288l.288-2.017h-.72c-.577 0-.72-.288-.72-.72 0-.29 0-.72.143-1.153l.576-3.025h1.872l.432-1.873h-1.872l.432-2.45-2.737.722M367.015 175.01c0-1.01.143-2.738.432-3.89l.864-4.753c-.72-.145-1.87-.433-2.88-.433-.72 0-1.296.145-1.872.288v2.017c.288-.145.72-.29 1.152-.29h.72l-.432 2.16c-.288 1.442-.864 2.45-1.44 2.738v1.873c.432-.287.864-.864 1.152-1.44h.143c-.143.72-.143 1.297-.143 1.73h2.305zm-3.457-8.788c-3.025.72-4.61 3.457-4.61 5.906 0 1.873 1.153 3.17 2.737 3.17.576 0 1.297-.146 1.873-.577v-1.872c-.288.288-.432.288-.72.288-.72 0-1.153-.576-1.153-1.44 0-1.297.72-2.736 1.873-3.457v-2.018M371.48 175.01l.72-3.314c.288-1.728 1.008-3.17 2.737-3.17h.432l.43-2.592h-.43c-1.297 0-2.306.865-2.882 2.017 0-.575.143-1.15.143-1.728h-2.303c-.143.72-.143 2.16-.432 3.6l-1.01 5.187h2.594M383.435 162.19l-.72 4.032c-.432-.143-.864-.288-1.296-.288-.29 0-.72 0-1.01.145v2.016c.29-.144.577-.144.865-.144.432 0 .864.144 1.008.288l-.432 2.45c-.287 1.15-.863 2.016-1.44 2.304v1.728c.433-.288.865-.576 1.153-1.153l-.143 1.44h2.448c0-1.008.143-2.304.432-3.457l1.73-9.363h-2.594zm-3.025 3.89c-2.736.43-4.61 3.023-4.61 5.904 0 2.017 1.298 3.313 2.738 3.313.72 0 1.296-.145 1.872-.576v-1.727c-.143.143-.432.143-.576.143-.864 0-1.296-.576-1.296-1.584 0-1.44.72-2.88 1.872-3.457v-2.016M393.086 172.705c-.72.288-1.584.575-2.45.575h-.287v2.017c1.007-.145 2.016-.288 2.88-.72l-.143-1.872zm-2.737-1.153c2.592-.143 4.032-1.008 4.032-2.88 0-1.73-1.296-2.738-3.17-2.738-.287 0-.575 0-.863.145v1.872c.142 0 .43-.145.575-.145.577 0 1.01.43 1.01.864 0 .577-.578.866-1.586 1.01v1.872zm0 1.728c-.577-.143-1.153-.287-1.44-.72-.144-.288-.29-.72-.29-.864.577 0 1.153 0 1.73-.144v-1.872h-1.44c.142-.72.575-1.44 1.44-1.728v-1.873c-2.594.43-4.322 3.023-4.322 5.472 0 2.305 1.44 3.746 3.89 3.746h.43v-2.018M398.127 170.976l1.873-8.21h-2.737l-1.152 8.21h2.017zm-1.728 4.32c1.15 0 1.872-.72 1.872-1.87 0-.866-.72-1.442-1.585-1.442-1.008 0-1.728.864-1.728 1.73 0 .863.575 1.583 1.44 1.583" fill="#949494" fill-rule="evenodd"/><path d="M96.94 154.7l.43.143.433.288h.145l20.453 11.957.146.143.432.288.288.145.433.288.286.29.288.287.288.433.29.288.287.288.287.432.143.288.288.432.146.432.143.29.145.43.143.432.146.433.144.43v.433l.145.288v1.728l-.146.432v.432l-.143.432v.43l-.145.434-.143.432-.288.432-.145.432-.145.288-.288.432-.288.432-.29.288-.287.288-.288.432-.29.288-.286.29-.433.144-.29.288-.43.288-.29.143-.43.29-.29.142-.43.145-.433.143-.432.146-.432.142h-.432l-.433.145h-2.014l-.433-.145h-.433l-.43-.143-.433-.147-.432-.143-.432-.145-.432-.143-1.01-.72-19.732-11.38-.864-.72-.288-.144-.432-.288-.288-.288-.288-.288-.29-.432-.287-.288-.288-.288-.143-.432-.288-.288-.146-.433-.143-.288-.288-.432-.144-.432v-.43l-.143-.433-.143-.288v-.433l-.146-.433v-1.728l.146-.433v-.43l.143-.433v-.433l.143-.288.143-.433.287-.432.143-.432.146-.432.288-.287.288-.432.288-.287.29-.433.286-.287.288-.288.288-.29.288-.287.433-.145.287-.288.433-.144.288-.287.433-.143.43-.145.434-.144.29-.144.43-.143h.432l.432-.145h2.591l.29.145.43.143h.434l.432.145.43.29zm-33.13-9.22l.143-.288.144-.287.288-.288.288-.29.145-.287.288-.145.29-.288.287-.143.143-.288.29-.144.43-.145.288-.143.29-.145.287-.145.29-.145.43-.143h.29l.287-.145h2.015l.433.145h.288l.288.143h.432l.288.145.288.144.29.144.43.288.288.143.29.146.287.288.288.145.143.288.288.29.288.288.144.143.145.29.29.287.142.288.146.288.143.432.146.288v.288l.143.29.145.43v.578l.143.43v1.011l-.143.287v.72l-.146.288-.144.288-.145.432-.142.288-.146.288-.143.29-.146.43-.288.29-.143.288-.288.143-.144.29-.287.287-.288.145-.288.29-.288.142-.29.145-.288.286-.288.145-.288.145-.288.145h-.288l-.432.143H71.3l-.29.145h-.718l-.29.144h-.43l-.29-.144h-.72l-.287-.145h-.432l-.288-.143-.288-.145-.288-.144-.434-.144-.288-.143-.288-.143-.287-.288-.288-.146-.29-.288-.287-.288-.145-.143-.288-.288-.143-.29-.29-.288-.142-.288-.145-.288-.143-.288-.146-.29-.143-.286-.145-.433v-.29l-.143-.287v-.432l-.146-.287v-1.728l.145-.288v-.288l.143-.434.145-.288v-.287l.143-.432.146-.288.288-.288" fill="#464646" fill-rule="evenodd"/><path d="M141.88 12.964L153.115 0l38.747 37.738c1.44 1.585 2.304 3.745 2.304 6.05 0 4.754-3.89 8.786-8.787 8.786-2.593 0-4.897-1.008-6.627-2.88l-21.75-25.208-15.123 10.948v-22.47zm0 215.34c12.1-2.737 21.174-13.828 21.03-27.08L161.036 43.5c0-3.745-3.17-6.913-7.058-6.913-3.89 0-7.06 3.168-7.06 7.057l-.72 33.706-2.88 123.298c0 1.585-.576 3.025-1.44 4.033v23.624zM130.212 43.788c-1.008 1.01-2.305 1.44-3.744 1.44-3.026 0-5.618-2.45-5.618-5.617 0-1.584.72-3.023 1.73-4.033l19.3-22.613v22.47l-11.668 8.354zM141.88 204.68v23.624c-1.873.432-3.89.576-5.906.576-5.042.143-9.795-1.296-13.828-3.6L15.988 165.213C6.482 159.74.144 149.658 0 137.99c0-11.955 6.77-22.47 16.71-27.8l95.93-50.99c1.728-.863 3.744-1.44 5.76-1.44 6.77 0 12.39 5.618 12.39 12.388.142 4.753-2.595 8.93-6.627 11.09L30.68 132.662c-2.016 1.01-3.313 3.17-3.313 5.62 0 2.59 1.297 4.608 3.602 5.904l102.41 61.938c.866.576 2.162 1.008 3.458 1.008 2.017 0 3.89-1.008 5.042-2.45" fill="#949494" fill-rule="evenodd"/><path d="M110.48 78.934v-3.6l1.15-.72-1.15-1.01v-2.16l4.896 4.753-1.584.865-1.44-1.44-1.73 1.007.433 2.016-.576.288zm0-7.49v2.16-.145l-1.01-1.01c0 .434.29 1.01.29 1.442l.43 1.584.29-.145v3.603l-1.01.43-1.584-7.49 1.873-1.007.72.576zM59.2 106.446v-3.89c.144 0 .144 0 .29-.144.863-.432 1.152-1.008.72-1.728-.29-.433-.578-.577-1.01-.577V98.81c.29-.144.577-.144 1.01 0 .575 0 1.007.433 1.44 1.01.288.72.43 1.296.288 1.872-.288.72-.865 1.44-1.73 1.873-.287.143-.43.143-.576.288l1.297 2.304-1.44.72-.29-.432zm6.915-11.667l2.016 3.6c1.153 2.016 2.593 2.448 4.322 1.584 1.585-1.008 2.16-2.448 1.008-4.466l-2.016-3.6-1.44.864 2.016 3.6c.72 1.154.576 2.017-.288 2.45-.72.288-1.44 0-2.017-1.153l-2.016-3.6-1.585.72zm16.564-5.763l-2.45 1.296-.72-1.296 2.593-1.44-.72-1.153-3.89 2.16 3.458 6.483 4.178-2.305-.72-1.152-2.593 1.44-.864-1.44 2.45-1.44-.72-1.153zm7.777.576c.432 0 1.297-.288 2.017-.72 1.73-.865 2.017-2.305 1.44-3.457-.432-.864-1.296-1.152-2.737-1.01-1.008.147-1.44.147-1.728-.142-.146-.432 0-.864.72-1.152.576-.432 1.152-.432 1.44-.432l-.288-1.44c-.433 0-1.153.144-1.873.575-1.442.865-2.018 2.16-1.297 3.313.432 1.01 1.44 1.152 2.736 1.01 1.007-.146 1.44-.146 1.584.286.288.433.145.865-.577 1.297-.575.29-1.296.433-1.87.433l.43 1.44zm11.523-6.05l1.44-.72-2.88-5.33 1.728-1.008-.575-1.152-5.04 2.737.718 1.152 1.73-.864 2.88 5.185zM59.2 98.813v1.295c-.288.143-.43.143-.72.288-.288.144-.432.288-.576.432l1.152 1.873.145-.143v3.89l-3.312-5.907c.433-.288 1.01-.72 2.017-1.296.432-.143.865-.432 1.296-.432zm-10.226 13.54v-1.587c.288.146.72.146 1.152-.143 1.008-.432 1.008-1.728.288-3.025-.288-.72-.865-1.152-1.44-1.44v-1.44c1.152 0 2.304.72 3.024 2.016 1.153 2.16.577 4.033-1.296 5.185-.576.288-1.153.432-1.728.432zm0-7.636v1.44c-.433-.145-.864 0-1.296.144-1.01.577-1.01 1.874-.29 3.026.434.72.865 1.296 1.586 1.44v1.585c-1.296 0-2.45-.863-3.17-2.16-1.007-1.872-.575-4.033 1.298-5.04.576-.29 1.296-.433 1.872-.433zM37.162 118.4v-3.89l.432-.287c.72-.43 1.01-1.008.577-1.584-.142-.433-.576-.576-1.008-.433v-1.44c.432 0 .72-.144 1.153 0 .576.145 1.008.432 1.296 1.01.433.862.146 1.726-.287 2.16.576 0 1.008.286 1.584.863l1.44 1.44-1.44.865c-.143-.145-.576-.576-1.296-1.297-.575-.72-1.007-.72-1.583-.432l-.433.288 1.44 2.45-1.44.864-.432-.577zm-9.938 6.195l1.44-.72-1.297-2.45c.144 0 .433 0 .577-.142.864-.433 1.44-1.153 1.728-1.873.143-.576.143-1.153-.288-1.873-.288-.576-.864-1.008-1.44-1.152-.288 0-.577 0-1.008.145v1.296c.43 0 .864.144 1.008.577.432.72.143 1.296-.577 1.728-.143.146-.287.146-.43.146v3.744l.287.577zm9.938-13.83v1.442c-.143 0-.288.146-.432.146-.432.287-.576.287-.72.43l1.01 1.73h.142v3.89l-3.17-5.763c.433-.432 1.154-.864 1.874-1.297.576-.288.864-.432 1.296-.576zm-10.226 5.764c-.433 0-.865.287-1.297.43-.865.577-1.442 1.01-1.873 1.297l3.17 5.76v-3.743l-.145.143-1.008-2.016.576-.287c.143-.146.432-.288.577-.288v-1.297" fill="#fff"/></svg>