<svg xmlns="http://www.w3.org/2000/svg" width="250" height="334.983"><path d="M.494 40.85C51.224 43.18 93.49 30.41 125.34 0 156.504 31.458 199.263 43.18 250 41.194V206.08c-17.82 183.313-244.786 160.036-250 0L.494 40.85z" fill="#2b3484"/><path d="M9.698 49.98C56.28 51.023 95.41 39.295 125.333 12.063c28.918 29.213 68.63 39.984 115.73 38.268v152.897c-16.598 170.225-227.23 148.598-232.027 0L9.698 49.98z" fill="#fff"/><path d="M124.757 296.568c48.4 0 87.855-41.026 87.855-91.36 0-50.327-39.454-91.352-87.855-91.352-48.34 0-87.704 41.025-87.704 91.353 0 50.332 39.364 91.358 87.704 91.358" fill="#2b3484"/><path d="M124.757 296.568c48.4 0 87.855-41.026 87.855-91.36 0-50.327-39.454-91.352-87.855-91.352-48.34 0-87.704 41.025-87.704 91.353 0 50.332 39.364 91.358 87.704 91.358z" fill="none" stroke="#2b3484" stroke-width="1.6376467200000002"/><path d="M41.097 130.958l-23.722-18.725 3.143-4.004c1.56-1.982 3.22-3.035 4.96-3.18 1.735-.144 3.668.632 5.793 2.3 2.343 1.86 3.65 3.68 3.927 5.467.277 1.8-.464 3.81-2.18 5.99l-1.258 1.59 10.89 8.592-1.553 1.968zM29.893 118.94l1.246-1.56c1.28-1.625 1.83-2.998 1.655-4.154-.18-1.13-1.138-2.384-2.854-3.738-1.733-1.38-3.148-2.03-4.28-1.987-1.114.043-2.258.813-3.438 2.325l-1.493 1.878 9.163 7.237z" fill="#2b3484"/><path d="M41.097 130.958l-23.722-18.725 3.143-4.004c1.56-1.982 3.22-3.035 4.96-3.18 1.735-.144 3.668.632 5.793 2.3 2.343 1.86 3.65 3.68 3.927 5.467.277 1.8-.464 3.81-2.18 5.99l-1.258 1.59 10.89 8.592-1.553 1.968zM29.893 118.94l1.246-1.56c1.28-1.625 1.83-2.998 1.655-4.154-.18-1.13-1.138-2.384-2.854-3.738-1.733-1.38-3.148-2.03-4.28-1.987-1.114.043-2.258.813-3.438 2.325l-1.493 1.878 9.163 7.237z" fill="none" stroke="#2b3484" stroke-width="2.19155664"/><path d="M39.25 108.413c-3.493-3.684-5.715-6.797-6.642-9.326-.927-2.522-.602-4.533.994-6.05 1.62-1.524 3.66-1.73 6.135-.627 2.492 1.12 5.593 3.655 9.326 7.592 3.733 3.95 6.1 7.2 7.08 9.73.982 2.547.67 4.576-.963 6.11-1.656 1.566-3.715 1.77-6.225.615-2.493-1.168-5.72-3.835-9.706-8.044M35.172 94.71c-.98.927-.98 2.372-.018 4.323.957 1.945 2.932 4.486 5.912 7.622 3.42 3.65 6.13 6.04 8.068 7.2 1.945 1.157 3.426 1.253 4.443.296.982-.938.982-2.383-.024-4.358-.993-1.975-3.082-4.66-6.31-8.062-3.24-3.395-5.797-5.66-7.724-6.76-1.91-1.115-3.366-1.2-4.347-.26" fill="#2b3484"/><path d="M39.25 108.413c-3.493-3.684-5.715-6.797-6.642-9.326-.927-2.522-.602-4.533.994-6.05 1.62-1.524 3.66-1.73 6.135-.627 2.492 1.12 5.593 3.655 9.326 7.592 3.733 3.95 6.1 7.2 7.08 9.73.982 2.547.67 4.576-.963 6.11-1.656 1.566-3.715 1.77-6.225.615-2.493-1.168-5.72-3.835-9.706-8.044zM35.172 94.71c-.98.927-.98 2.372-.018 4.323.957 1.945 2.932 4.486 5.912 7.622 3.42 3.65 6.13 6.04 8.068 7.2 1.945 1.157 3.426 1.253 4.443.296.982-.938.982-2.383-.024-4.358-.993-1.975-3.082-4.66-6.31-8.062-3.24-3.395-5.797-5.66-7.724-6.76-1.91-1.115-3.366-1.2-4.347-.26z" fill="none" stroke="#2b3484" stroke-width="2.19155664"/><path d="M62.492 108.704l-17.635-24.56 2.035-1.48 16.25 22.686 6.72-4.798 1.348 1.878-8.718 6.274z" fill="#2b3484"/><path d="M62.492 108.704l-17.635-24.56 2.035-1.48 16.25 22.686 6.72-4.798 1.348 1.878-8.718 6.274z" fill="none" stroke="#2b3484" stroke-width="2.19155664"/><path d="M73.17 101.472L57.976 75.336l2.16-1.26 15.21 26.143-2.174 1.252z" fill="#2b3484"/><path d="M73.17 101.472L57.976 75.336l2.16-1.26 15.21 26.143-2.174 1.252z" fill="none" stroke="#2b3484" stroke-width="2.19155664"/><path d="M86.255 83.87l.08.157c1.407 3.143 1.967 5.744 1.708 7.797-.258 2.035-1.33 3.486-3.24 4.33-2.034.908-4.045.427-6.02-1.44-1.986-1.884-4.07-5.316-6.297-10.277-2.228-4.99-3.372-8.84-3.438-11.536-.09-2.702.903-4.51 2.944-5.424 1.674-.746 3.318-.56 4.973.548 1.65 1.102 3.143 3.035 4.456 5.81l-2.143.982c-1.096-2.252-2.15-3.806-3.18-4.66-1.058-.873-2.094-1.066-3.136-.597-1.263.553-1.745 1.932-1.456 4.118.277 2.185 1.397 5.418 3.3 9.71 1.975 4.426 3.666 7.437 5.087 9.026 1.428 1.596 2.825 2.083 4.174 1.493 1.168-.523 1.758-1.53 1.782-2.986.036-1.462-.518-3.51-1.644-6.11l2.053-.94z" fill="#2b3484"/><path d="M86.255 83.87l.08.157c1.407 3.143 1.967 5.744 1.708 7.797-.258 2.035-1.33 3.486-3.24 4.33-2.034.908-4.045.427-6.02-1.44-1.986-1.884-4.07-5.316-6.297-10.277-2.228-4.99-3.372-8.84-3.438-11.536-.09-2.702.903-4.51 2.944-5.424 1.674-.746 3.318-.56 4.973.548 1.65 1.102 3.143 3.035 4.456 5.81l-2.143.982c-1.096-2.252-2.15-3.806-3.18-4.66-1.058-.873-2.094-1.066-3.136-.597-1.263.553-1.745 1.932-1.456 4.118.277 2.185 1.397 5.418 3.3 9.71 1.975 4.426 3.666 7.437 5.087 9.026 1.428 1.596 2.825 2.083 4.174 1.493 1.168-.523 1.758-1.53 1.782-2.986.036-1.462-.518-3.51-1.644-6.11l2.053-.94z" fill="none" stroke="#2b3484" stroke-width="2.19155664"/><path d="M93.292 92.213l-9.272-28.78 2.385-.776 9.266 28.786-2.378.77z" fill="#2b3484"/><path d="M93.292 92.213l-9.272-28.78 2.385-.776 9.266 28.786-2.378.77z" fill="none" stroke="#2b3484" stroke-width="2.19155664"/><path d="M98.21 90.472l-1.03-30.67 3.606-.746 11.38 28.514-2.488.506-3.25-8.417-6.178 1.28.36 9.026-2.4.506zm1.89-11.88l5.466-1.137-5.876-15.437-.27.048.68 16.527z" fill="#2b3484"/><path d="M98.21 90.472l-1.03-30.67 3.606-.746 11.38 28.514-2.488.506-3.25-8.417-6.178 1.28.36 9.026-2.4.506zm1.89-11.88l5.466-1.137-5.876-15.437-.27.048.68 16.527z" fill="none" stroke="#2b3484" stroke-width="2.19155664"/><path d="M121.908 86.826l.614-30.218 4.004.09 4.082 18.773c.23.995.42 2.054.62 3.138.217 1.09.403 2.27.596 3.534-.072-1.192-.108-2.53-.12-4.016-.012-1.487.006-3.817.078-6.972l.29-14.347 2.37.042-.595 30.217-2.932-.048-6.02-27.853-.58 27.72-2.407-.06z" fill="#2b3484"/><path d="M121.908 86.826l.614-30.218 4.004.09 4.082 18.773c.23.995.42 2.054.62 3.138.217 1.09.403 2.27.596 3.534-.072-1.192-.108-2.53-.12-4.016-.012-1.487.006-3.817.078-6.972l.29-14.347 2.37.042-.595 30.217-2.932-.048-6.02-27.853-.58 27.72-2.407-.06z" fill="none" stroke="#2b3484" stroke-width="2.19155664"/><path d="M136.496 87.262l10.296-28.9 3.642.62.115 30.7-2.5-.427.06-9.02-6.207-1.065-2.986 8.513-2.42-.42zm6.136-10.35l5.478.945.2-16.52-.26-.043-5.418 15.618z" fill="#2b3484"/><path d="M136.496 87.262l10.296-28.9 3.642.62.115 30.7-2.5-.427.06-9.02-6.207-1.065-2.986 8.513-2.42-.42zm6.136-10.35l5.478.945.2-16.52-.26-.043-5.418 15.618z" fill="none" stroke="#2b3484" stroke-width="2.19155664"/><path d="M167.16 84.51l-.06.164c-1.065 3.287-2.372 5.605-3.955 6.947-1.56 1.35-3.33 1.705-5.292 1.06-2.126-.697-3.282-2.4-3.498-5.117-.21-2.715.542-6.664 2.22-11.842 1.705-5.183 3.42-8.802 5.167-10.86 1.764-2.066 3.72-2.74 5.84-2.048 1.734.566 2.842 1.812 3.324 3.745.475 1.92.29 4.353-.59 7.315l-2.264-.74c.704-2.397.945-4.263.753-5.594-.18-1.336-.83-2.167-1.915-2.534-1.307-.416-2.583.277-3.823 2.09-1.265 1.83-2.607 4.966-4.07 9.427-1.512 4.613-2.27 7.98-2.294 10.116-.018 2.126.692 3.432 2.1 3.896 1.193.397 2.325.042 3.312-1.036 1-1.078 1.963-2.968 2.884-5.66l2.16.675z" fill="#2b3484"/><path d="M167.16 84.51l-.06.164c-1.065 3.287-2.372 5.605-3.955 6.947-1.56 1.35-3.33 1.705-5.292 1.06-2.126-.697-3.282-2.4-3.498-5.117-.21-2.715.542-6.664 2.22-11.842 1.705-5.183 3.42-8.802 5.167-10.86 1.764-2.066 3.72-2.74 5.84-2.048 1.734.566 2.842 1.812 3.324 3.745.475 1.92.29 4.353-.59 7.315l-2.264-.74c.704-2.397.945-4.263.753-5.594-.18-1.336-.83-2.167-1.915-2.534-1.307-.416-2.583.277-3.823 2.09-1.265 1.83-2.607 4.966-4.07 9.427-1.512 4.613-2.27 7.98-2.294 10.116-.018 2.126.692 3.432 2.1 3.896 1.193.397 2.325.042 3.312-1.036 1-1.078 1.963-2.968 2.884-5.66l2.16.675z" fill="none" stroke="#2b3484" stroke-width="2.19155664"/><path d="M166.817 95.48l12.415-27.575 2.27 1.017-12.433 27.57-2.253-1.012z" fill="#2b3484"/><path d="M166.817 95.48l12.415-27.575 2.27 1.017-12.433 27.57-2.253-1.012z" fill="none" stroke="#2b3484" stroke-width="2.19155664"/><path d="M180.66 84.47c2.595-4.384 4.967-7.364 7.14-8.954 2.162-1.583 4.197-1.812 6.088-.698 1.915 1.132 2.667 3.04 2.294 5.726-.397 2.697-1.975 6.388-4.744 11.048-2.77 4.678-5.245 7.84-7.412 9.488-2.174 1.632-4.227 1.89-6.135.753-1.956-1.156-2.72-3.1-2.293-5.81.42-2.727 2.12-6.575 5.063-11.554m12.066-7.69c-1.15-.686-2.535-.294-4.136 1.17-1.608 1.462-3.51 4.057-5.72 7.777-2.553 4.305-4.112 7.563-4.702 9.736-.596 2.186-.27 3.637.915 4.34 1.168.7 2.547.296 4.172-1.215 1.602-1.493 3.613-4.263 5.997-8.31 2.396-4.033 3.877-7.115 4.407-9.253.53-2.143.228-3.564-.934-4.244" fill="#2b3484"/><path d="M180.66 84.47c2.595-4.384 4.967-7.364 7.14-8.954 2.162-1.583 4.197-1.812 6.088-.698 1.915 1.132 2.667 3.04 2.294 5.726-.397 2.697-1.975 6.388-4.744 11.048-2.77 4.678-5.245 7.84-7.412 9.488-2.174 1.632-4.227 1.89-6.135.753-1.956-1.156-2.72-3.1-2.293-5.81.42-2.727 2.12-6.575 5.063-11.554zm12.066-7.69c-1.15-.686-2.535-.294-4.136 1.17-1.608 1.462-3.51 4.057-5.72 7.777-2.553 4.305-4.112 7.563-4.702 9.736-.596 2.186-.27 3.637.915 4.34 1.168.7 2.547.296 4.172-1.215 1.602-1.493 3.613-4.263 5.997-8.31 2.396-4.033 3.877-7.115 4.407-9.253.53-2.143.228-3.564-.934-4.244z" fill="none" stroke="#2b3484" stroke-width="2.19155664"/><path d="M186.862 106.83l19.212-23.35 3.09 2.554-8.436 17.273c-.458.915-.928 1.873-1.457 2.86-.523.97-1.077 2.023-1.72 3.13.69-.98 1.48-2.052 2.395-3.238.91-1.18 2.372-2.982 4.383-5.426l9.127-11.078 1.837 1.517-19.23 23.324-2.246-1.83 12.53-25.606-17.63 21.405-1.854-1.536z" fill="#2b3484"/><path d="M186.862 106.83l19.212-23.35 3.09 2.554-8.436 17.273c-.458.915-.928 1.873-1.457 2.86-.523.97-1.077 2.023-1.72 3.13.69-.98 1.48-2.052 2.395-3.238.91-1.18 2.372-2.982 4.383-5.426l9.127-11.078 1.837 1.517-19.23 23.324-2.246-1.83 12.53-25.606-17.63 21.405-1.854-1.536z" fill="none" stroke="#2b3484" stroke-width="2.19155664"/><path d="M198.028 116.194l25.907-16.437 2.492 2.715-18.826 24.276-1.697-1.866 5.61-7.087-4.244-4.666-7.6 4.87-1.642-1.806zm11.198-4.383l3.745 4.113 10.327-12.89-.18-.205-13.89 8.983z" fill="#2b3484"/><path d="M198.028 116.194l25.907-16.437 2.492 2.715-18.826 24.276-1.697-1.866 5.61-7.087-4.244-4.666-7.6 4.87-1.642-1.806zm11.198-4.383l3.745 4.113 10.327-12.89-.18-.205-13.89 8.983z" fill="none" stroke="#2b3484" stroke-width="2.19155664"/><path d="M208.8 128.574l24.8-17.31 1.404 2.023-22.86 15.98 4.72 6.754-1.915 1.35-6.15-8.796z" fill="#2b3484"/><path d="M208.8 128.574l24.8-17.31 1.404 2.023-22.86 15.98 4.72 6.754-1.915 1.35-6.15-8.796z" fill="none" stroke="#2b3484" stroke-width="2.19155664"/><path d="M40.623 178.758l168.178-.175c4.65 18.183 4.474 36.03-.162 53.507l-167.528.102c-5.972-18.357-4.726-36.467-.487-53.434" fill="#fff"/><path d="M124.757 296.568c48.4 0 87.855-41.026 87.855-91.36 0-50.327-39.454-91.352-87.855-91.352-48.34 0-87.704 41.025-87.704 91.353 0 50.332 39.364 91.358 87.704 91.358z" fill="none" stroke="#2b3484" stroke-width="9.2719704"/><path d="M124.662 94.63L35.814 257.005H213.698L125.01 95.064l-.348-.433z" fill="#fff"/><path d="M21.302 65.325l-.337-10.68 3.064-.17 2.16 7.232 1.578-7.334 3.155-.168.337 10.686-1.92.092-.33-8.37-1.748 8.454-1.98.084-2.318-8.35.24 8.44-1.902.085zM32.74 53.864l.493 10.687 2.07-.09-.486-10.765-2.078.17zM37.29 64.29L36.222 53.7l2.07-.27 4.896 6.64-.754-7.068 1.903-.252 1.083 10.674-2.07.27-4.812-6.56.748 6.995-2 .16zM46.256 52.493l1.24 10.59 2.077-.253-1.246-10.596-2.07.26zM50.474 59.124l1.91-.518c.252.686.583 1.126 1.004 1.38.404.263.91.348 1.56.263.668-.09 1.09-.356 1.414-.7.253-.342.416-.685.338-1.125 0-.247-.175-.427-.338-.596-.162-.09-.427-.266-.746-.35-.325 0-.83-.084-1.734-.17-1.168-.083-1.897-.342-2.402-.613-.76-.506-1.162-1.198-1.247-1.97-.078-.613 0-1.118.157-1.642.253-.506.59-.94 1.162-1.29.506-.348 1.084-.516 1.836-.697 1.228-.17 2.306-.072 2.974.45.753.423 1.253 1.2 1.41 2.15l-2.078.416c-.162-.505-.403-.85-.746-1.03-.235-.258-.735-.258-1.313-.174-.59.097-1.084.27-1.325.608-.096.18-.186.428-.186.687.09.27.186.44.343.614.325.16 1 .324 2 .426 1.065.085 1.81.157 2.31.337.495.18.994.512 1.33.946.333.348.58.95.652 1.552.083.608 0 1.21-.236 1.812-.24.602-.662 1.036-1.162 1.38-.584.354-1.325.607-2.15.782-1.33.26-2.324.09-3.088-.428-.735-.512-1.307-1.38-1.65-2.504M63.162 60.25l-1.746-8.707-2.975.692-.408-1.806 8.044-1.747.313 1.746-2.976.673 1.825 8.706-2.078.44zM69.547 58.605L67.06 48.262l7.37-1.89.41 1.71-5.384 1.39.584 2.324 5.064-1.283.41 1.716-5.064 1.288.674 2.848 5.635-1.475.415 1.813-7.628 1.902zM80.232 44.212c.753-.247 1.337-.343 1.752-.343.578 0 .976.173 1.487.51.41.44.742.855.91 1.47.26.77.26 1.463 0 2.15-.24.613-.836 1.203-1.65 1.65.573.083.988.245 1.32.414.41.175 1 .614 1.745 1.216l1.813 1.548-2.397.867-2.16-1.644c-.74-.6-1.234-1.03-1.48-1.12-.254-.168-.495-.252-.742-.252-.18 0-.355.084-.596.084v-1.818h.084c.916-.33 1.5-.596 1.746-.77.15-.175.332-.35.41-.603.09-.257 0-.528-.078-.854-.085-.343-.24-.614-.5-.692-.253-.175-.578-.26-.91-.175-.078 0-.336.084-.752.252v-1.89zm0 9.483v1.8l.596-.163-.596-1.637zm-1.397 2.324l-3.317-10.17 4.13-1.47c.175-.09.428-.168.584-.168v1.89c-.156.085-.41.175-.662.27l-1.566.507.898 2.588 1.33-.524v1.818c-.078.08-.247.08-.41.17l-.41.162.82 2.6v1.8l-1.397.525zM84.875 42.405l3.72 9.983 1.922-.777-3.667-9.994-1.975.79zM94.49 38.44c.667 0 1.257.168 1.83.433 1.24.51 2.155 1.535 2.823 3.18.656 1.558.734 3.02.247 4.322-.416 1.192-1.33 2.155-2.752 2.75-.74.344-1.48.52-2.15.52v-1.982c.52.078 1 0 1.41-.18.74-.35 1.33-.952 1.577-1.717.253-.782.175-1.727-.33-2.944-.507-1.108-1.073-1.8-1.74-2.15-.32-.162-.59-.264-.916-.264v-1.97zm-4.56 7.664c-.408-.946-.583-1.89-.583-2.668 0-.614.175-1.204.337-1.722.247-.608.5-1.04.825-1.475.493-.512 1.16-.946 1.908-1.283.74-.35 1.415-.44 2.07-.518v1.968c-.42-.078-.824 0-1.33.265-.813.35-1.312.873-1.57 1.638-.242.777-.164 1.73.336 2.933.42 1.132.993 1.806 1.74 2.155.33.17.572.265.825.265v1.98c-.573 0-1.157-.083-1.735-.348-1.246-.512-2.162-1.554-2.824-3.19M106.845 31.968c.415 0 .746.09 1.15.17.596.173 1.174.528 1.656 1.04.512.524 1.006 1.126 1.506 2.077.415.77.668 1.457.74 2.144.157.78.157 1.552-.072 2.154-.163.512-.415 1.036-.825 1.554-.344.343-.838.686-1.506 1.125l-2.65 1.463v-2.42l.163.265 1.33-.776c.58-.26.91-.517 1.067-.698.247-.253.415-.512.51-.86.158-.254.158-.687 0-1.205-.095-.42-.342-1.03-.667-1.805-.42-.687-.74-1.21-1.072-1.548-.337-.343-.668-.518-1-.608h-.33v-2.072zm-5.804 2.848l3.33-1.897c.74-.422 1.32-.783 1.82-.862.24 0 .408-.09.655-.09v2.07c-.247-.09-.506 0-.747.09-.325.086-.837.34-1.57.772l-.838.428 3.155 5.948v2.42l-.825.428-4.98-9.308zM115.144 38.87l-5.49-9.05 6.47-4.22.916 1.547-4.732 3.016 1.24 2.07 4.402-2.852.91 1.47-4.39 2.853 1.5 2.5 4.882-3.192.915 1.548-6.623 4.31zM132.292 32.834l1.07-1.463 3.578 2.668-2.42 3.444c-.567.18-1.313.096-2.144-.163-.83-.26-1.668-.603-2.318-1.127-.915-.686-1.51-1.463-1.915-2.324-.337-.862-.5-1.73-.337-2.674.175-1.03.59-1.897 1.168-2.752.668-.86 1.42-1.56 2.258-1.998.807-.422 1.716-.506 2.72-.332.748.08 1.5.416 2.23 1.036 1.09.765 1.757 1.638 2.004 2.505.24.945.144 1.794-.17 2.74l-1.907-.946c.167-.513.167-1.03 0-1.55-.098-.432-.423-.853-.904-1.287-.753-.518-1.518-.698-2.258-.518-.82.078-1.48.693-2.15 1.638-.74 1.023-1.07 1.993-.993 2.763.084.86.5 1.542 1.162 2.15.42.253.734.433 1.24.518.422.168.92.168 1.24.168l.83-1.03-1.985-1.468zM141.904 32.146c.17-.09.397 0 .59 0 .662.085 1.403.343 2.143.86 1.247.778 2.078 1.807 2.403 3.192.26 1.283 0 2.758-.903 4.215-.83 1.47-1.91 2.414-3.155 2.763-.32.09-.747.175-1.078.175v-2.076c.084 0 .253-.08.33-.08.826-.257 1.488-.944 2.078-1.98.675-1.035.82-1.986.753-2.77-.17-.764-.584-1.462-1.343-1.89-.566-.337-1.228-.51-1.818-.427v-1.98zm-4.317 2.932c.506-.95 1.096-1.637 1.752-2.07.493-.344 1-.61 1.57-.777.338-.084.675-.084.994-.084v1.98c-.157 0-.24.09-.415.09-.736.26-1.392.94-2.067 1.982-.584 1.03-.85 1.98-.668 2.758.163.85.584 1.457 1.343 1.896.56.422 1.15.518 1.806.422v2.077c-.903 0-1.806-.27-2.72-.848-1.338-.88-2.17-1.91-2.41-3.203-.337-1.392-.084-2.76.813-4.222M151.784 37.397l1.487.783c.742.434 1.326.692 1.58.94.33.264.57.613.824.95.168.338.235.693.235 1.126.09.434 0 .855-.236 1.295-.175.428-.494.778-.915 1.042-.417.253-.93.326-1.416.326.487.44.837.963.903 1.56.096.613 0 1.113-.235 1.63-.247.44-.494.868-.92 1.126-.41.35-.814.518-1.308.603v-2.33c.15-.08.235-.253.325-.416.168-.348.252-.613.168-.866 0-.26-.17-.512-.343-.783-.072 0-.072-.083-.15-.083v-2.155c.15.09.324.174.39.174.344.175.675.175.916.09.344-.09.507-.264.675-.614.17-.252.17-.596.066-.86 0-.253-.233-.524-.486-.687-.157-.084-.663-.433-1.56-.86v-1.988zm-2.167-1.114l2.167 1.114v1.987l-1.083-.602-1.083 2.24 1.246.608c.32.253.662.42.92.512v2.155c-.258-.26-.757-.512-1.42-.867l-1.5-.855-1.24 2.59 1.675.944c.65.337 1.156.51 1.312.595.325.097.572.097.825-.084.17 0 .253-.09.35-.173v2.33c-.422.084-.922 0-1.422-.253-.337-.097-1.065-.44-2.312-1.126l-3.063-1.638 4.63-9.477zM154.35 50.59l3.72-9.993 7.128 2.835-.65 1.728-5.142-2.07-.843 2.24 4.81 1.895-.583 1.722-4.805-1.98-1.072 2.763 5.395 2.155-.578 1.638-7.38-2.932zM169.424 45.165l1.336.518c1.066.343 1.74.765 2.15 1.114.415.33.746.776.837 1.372.15.517.066 1.125-.09 1.727-.248.783-.67 1.295-1.26 1.65-.57.33-1.312.422-2.215.247.325.44.578.783.73 1.21.173.422.336 1.114.595 2.06l.482 2.414-2.307-.86-.26-1.037v-5.598c.506.18.826.26 1 .26.253 0 .488-.08.74-.26.163-.17.344-.434.422-.687.072-.343.072-.686 0-.95-.078-.26-.337-.434-.578-.603-.174-.084-.68-.253-1.42-.614h-.163v-1.963zM163.3 54.3l3.318-10.086 2.806.95v1.964l-1.403-.506-.836 2.59 1.41.517c.33.083.57.167.83.252v5.6l-.404-1.717c-.26-.957-.427-1.553-.584-1.824-.084-.246-.26-.493-.415-.59-.162-.168-.493-.348-1-.517l-.402-.17-1.337 4.222-1.98-.686zM173.162 57.83l2.474-10.435 1.91.518 2.51 8.014 1.637-6.9 1.83.446-2.486 10.428-2-.523-2.407-7.833-1.656 6.803-1.812-.518zM192.217 62.488l-2.24-.524-.41-2.5-1.733-.342v-1.897l1.41.338-.664-4.22-.746 1.21v-3.704l.168-.17 2.15.422 2.065 11.386zm-4.383-3.366l-2.318-.512-1.253 2.234-2.245-.434 5.816-9.56v3.702l-1.337 2.42 1.337.253v1.897zM200.355 59.73l1.884.85c-.41 1.126-1.06 1.987-1.813 2.426-.746.512-1.74.687-2.81.512-1.344-.175-2.404-.783-3.168-1.897-.736-1.04-1.05-2.413-.82-4.14.168-1.717.758-3 1.746-3.962.987-.867 2.24-1.21 3.636-.94 1.24.073 2.234.596 2.908 1.463.416.52.747 1.212.837 2.157l-2.077.253c-.084-.608-.253-1.042-.584-1.47-.415-.337-.83-.5-1.41-.608-.745-.078-1.402.11-1.913.61-.566.516-.903 1.377-1.078 2.672-.078 1.288 0 2.33.42 2.926.41.608.91.945 1.657 1.126.602 0 1.078-.085 1.493-.434.5-.26.83-.776 1.09-1.54M203.494 64.126l2.07.252 1.24-10.596-1.973-.265-1.336 10.61zM212.526 54.116h.338c1.487.096 2.733.692 3.564 1.734.83 1.03 1.162 2.408 1.072 4.226-.09 1.716-.663 3.005-1.644 3.878-.837.855-2.005 1.288-3.33 1.288V63.34c.747 0 1.325-.26 1.825-.77.59-.603.904-1.458.994-2.765.084-1.204-.09-2.155-.566-2.75-.512-.693-1.18-1.037-1.993-1.037-.096-.096-.168-.096-.26-.096v-1.806zm-4.96 5.268c.078-1.126.234-1.993.65-2.764.246-.523.584-.94 1-1.372.493-.356.908-.693 1.408-.88.584-.156 1.156-.252 1.902-.252v1.806c-.746 0-1.396.27-1.902.777-.566.613-.82 1.474-.915 2.774-.086 1.204.095 2.15.59 2.752.486.698 1.15 1.03 1.98 1.114h.246v1.902c-.15-.096-.246-.096-.32-.096-1.582-.084-2.762-.687-3.563-1.722-.843-1.03-1.246-2.408-1.078-4.04M218.824 65.417l.343-10.77 2.07.083 3.884 7.315.254-7.146 1.993.083-.42 10.687-2.066-.09-3.895-7.153-.253 6.99h-1.908z" fill="#fabb18"/><path d="M126.16 170.392l4.648-54.554-5.713-10-6.153 10.596 4.726 54.048 2.492-.09zM118.703 172.026l-15.172-29.218 7.708-12.752 11.114 40.43-3.65 1.54zM117.453 172.894l-17.068-22.674-5.226 9.742 19.644 16.033 2.65-3.1zM113.887 177.458l-23.198-12.15-4.15 9.488 26.354 5.166.993-2.504zM112.4 182.55l-29.675-2.422-6.797 12.933 36.552-7.41-.08-3.1zM112.98 188.05l-37.635 16.815 11.27 11.89 28.69-25.172-2.324-3.534zM116.956 193.74L100.88 213.31l13.926.524 5.883-17.593-3.734-2.5zM123.015 196.415l-2.486 17.683h8.693l-2.56-17.58-3.648-.103zM128.98 195.908l6.376 18.436 13.842-.512-16.25-20.344-3.968 2.42zM134.78 192.195l26.73 23.83 9.966-.933 1.138-10.892-35.45-16.22-2.385 4.215zM137.337 185.39l37.805 8.105-7.857-13.54-29.695 2.595-.253 2.84zM136.03 177.375l24.118-12.415 4.473 9.652-27.526 5.25-1.065-2.487zM132.368 172.72l18.406-24.397 4.31 10.687-19.88 17.07-2.836-3.36zM127.648 170.56l11.03-40.423 7.622 12.324-15.335 29.57-3.317-1.47z" fill="#789bcd"/><path d="M71.856 215.138c2.36-33.872 25.63-59.9 53.434-59.9 27.298 0 50.165 24.902 53.332 57.9" fill="none" stroke="#789bcd" stroke-width="9.103389120000001"/><path d="M75.914 214.78c.614-31.76 23.3-57.156 51-57.156 27.438 0 49.962 24.764 51.088 56.084" fill="none" stroke="#30a644" stroke-width="8.35681488"/><path d="M80.15 215.227c0-.987-.097-2.065-.097-3.046 0-27.996 20.892-50.694 46.516-50.694 25.732 0 46.497 22.698 46.497 50.695v2.59" fill="none" stroke="#ea2026" stroke-width="7.42359708"/><path d="M125.09 197.887c7.525 0 13.672-6.382 13.672-14.227 0-7.833-6.147-14.227-13.673-14.227-7.557 0-13.686 6.394-13.686 14.227 0 7.845 6.13 14.227 13.685 14.227" fill="#fff"/><path d="M125.09 197.887c7.525 0 13.672-6.382 13.672-14.227 0-7.833-6.147-14.227-13.673-14.227-7.557 0-13.686 6.394-13.686 14.227 0 7.845 6.13 14.227 13.685 14.227z" fill="none" stroke="#fff" stroke-width=".34920408000000003"/><path d="M126.32 193.74c.247-5.165 2.228-6.46 4.907-5.948-.428-9.982-3.083-15.33-8.97-14.034-1.813.42-2.638 1.884-1.08 2.757 1.332.17 1.68.693 1.08 1.632-3.138 2.577-4.222 5.768-2.566 9.56 1.163 2.066 3.403 2.253 3.656 6.13l2.974-.096z" fill="#ea2026"/><path d="M62.338 297.77l8.03-12.914 2.488 1.716-.33 12.07 5.38-8.71 2.325 1.637-8.037 12.93-2.474-1.733.24-11.806-5.292 8.454-2.33-1.644zM76.015 306.226l6.954-13.62 2.666 1.47-6.972 13.62-2.65-1.47zM92.83 307.174l2.5 1.812c-.928 1.457-1.993 2.41-3.24 2.848-1.168.422-2.583.422-4.07-.09-1.896-.602-3.24-1.818-3.973-3.534-.837-1.728-.837-3.8-.17-6.123.832-2.415 2-4.052 3.668-4.998 1.56-.964 3.377-1.12 5.376-.434 1.735.608 2.994 1.553 3.728 3.016.41.873.662 1.903.584 3.19l-3.077-.252c.09-.873-.084-1.565-.403-2.16-.415-.61-1-1.03-1.746-1.296-1.084-.35-2.077-.26-2.902.265-.91.595-1.656 1.715-2.16 3.443-.567 1.89-.748 3.366-.327 4.31.416 1.037 1.17 1.717 2.156 2.072.734.253 1.493.163 2.15-.09.752-.35 1.33-1.03 1.908-1.98M110.488 317.16l-3.15-.693-.668-3.697-2.474-.427v-2.673l1.987.343-.915-5.943-1.072 1.716v-5.328l.175-.27 3.137.607 2.98 16.364zm-6.292-4.817l-3.31-.693-1.85 3.185-3.137-.686 8.296-13.692v5.328l-2 3.45 2 .434v2.673zM119.526 302.254h.506c1.565.084 2.727.265 3.395.608.747.265 1.325.777 1.734 1.547.417.686.58 1.462.58 2.42-.08 1.108-.41 2.06-1.078 2.84-.753.688-1.728 1.115-2.987 1.302.578.42 1.084.86 1.506 1.367.416.426.994 1.305 1.662 2.594l1.728 3.01-3.636-.084-2.005-3.45c-.663-1.036-1.073-1.71-1.404-2.156v-3.45c1 0 1.57 0 1.903-.162.336-.078.66-.277.823-.602.26-.26.362-.705.362-1.126 0-.518-.103-.94-.362-1.294-.24-.338-.656-.524-1.077-.603-.247-.09-.735-.09-1.65-.18v-2.583zm-6.292 15.263l.488-15.432 5.804.17v2.582h-.578l-2.33-.084-.157 3.973 2.24.078h.826v3.45c0-.096-.084-.18-.157-.18-.253-.337-.506-.506-.837-.68-.332-.085-.83-.17-1.5-.253h-.65l-.174 6.45-2.976-.073zM142.42 315.872l-3.24.518-1.752-3.27-3.317.434v-2.583l2.072-.264-2.07-3.877v-5.25l.342-.098 7.965 14.39zm-8.31-2.318l-2.564.427-.747 3.608-3.06.445 3.643-16.123 2.728-.33v5.25l-.74-1.555-1.246 5.943 1.987-.247v2.584zM150.292 308.296l-.67-2.505 6.124-1.877 1.662 5.924c-.415.777-1.168 1.56-2.15 2.324-1.01.874-2.173 1.392-3.323 1.82-1.487.433-2.902.433-4.142.174-1.325-.35-2.39-1.035-3.305-2.077-.843-1.036-1.506-2.24-1.91-3.703-.42-1.553-.5-3.022-.162-4.39.247-1.378.898-2.576 1.987-3.54.735-.77 1.807-1.372 3.15-1.81 1.823-.513 3.31-.513 4.467-.08 1.246.518 2.155 1.385 2.83 2.66l-2.746 1.392c-.416-.704-.92-1.12-1.578-1.39-.644-.253-1.396-.253-2.227 0-1.248.36-2.163 1.125-2.662 2.16-.5 1.03-.572 2.337-.09 3.97.42 1.805 1.167 3.01 2.16 3.623.994.685 2.174.86 3.324.427.656-.175 1.24-.428 1.734-.86.584-.435.994-.862 1.325-1.386l-.493-1.89-3.305 1.036zM155.338 296.743l2.65-1.29 3.39 7.587c.595 1.205.92 1.89 1.16 2.234.417.518.838.86 1.512 1.03.566.09 1.235 0 1.975-.33.747-.44 1.253-.88 1.5-1.392.234-.512.33-1.03.156-1.542-.083-.517-.402-1.3-.908-2.414l-3.474-7.773 2.727-1.276 3.324 7.315c.745 1.65 1.16 2.932 1.323 3.715.163.68.163 1.463 0 2.065-.162.686-.578 1.36-1.083 1.98-.494.61-1.313 1.12-2.41 1.645-1.227.59-2.317.945-3.13.945-.752 0-1.51-.09-2.077-.434-.596-.337-1.083-.686-1.505-1.204-.494-.692-1.15-1.812-1.818-3.36l-3.312-7.5zM187.24 295.883l-2.714 1.807-2.92-2.24-4.546 3.107v-3.107l2.396-1.644-2.396-1.8v-3.612l10.18 7.49zm-10.18 4.992l.416 1.65-.416.168v-1.818zm0-2.318l-.427.253.427 2.065v1.818l-2.33 1.54-3.227-16.195 2.733-1.722 2.824 2.078v3.612l-2.33-1.812 1.33 5.936 1-.68v3.107z" fill="#2b3484"/><path d="M53.287 230.445c4.696 0 4.696 2.817 9.392 2.817 4.702 0 4.702-2.817 9.404-2.817 4.696 0 4.696 2.817 9.398 2.817 4.697 0 4.697-2.817 9.393-2.817 4.714 0 4.714 2.817 9.404 2.817 4.695 0 4.695-2.817 9.38-2.817 4.69 0 4.69 2.817 9.386 2.817 4.702 0 4.702-2.817 9.41-2.817 4.696 0 4.696 2.817 9.393 2.817 4.707 0 4.707-2.817 9.41-2.817 4.713 0 4.713 2.817 9.422 2.817 4.69 0 4.69-2.817 9.404-2.817 4.714 0 4.714 2.817 9.416 2.817 4.72 0 4.72-2.817 9.447-2.817 4.72 0 4.72 2.817 9.452 2.817" fill="none" stroke="#789bcd" stroke-width="4.10013756"/><path d="M58.612 222.534c4.462 0 4.462 2.685 8.93 2.685 4.442 0 4.442-2.686 8.898-2.686 4.467 0 4.467 2.685 8.923 2.685 4.455 0 4.455-2.686 8.916-2.686 4.455 0 4.455 2.685 8.928 2.685 4.443 0 4.443-2.686 8.887-2.686 4.46 0 4.46 2.685 8.904 2.685 4.46 0 4.46-2.686 8.934-2.686 4.456 0 4.456 2.685 8.917 2.685 4.456 0 4.456-2.686 8.924-2.686 4.473 0 4.473 2.685 8.94 2.685 4.45 0 4.45-2.686 8.923-2.686 4.468 0 4.468 2.685 8.94 2.685 4.48 0 4.48-2.686 8.972-2.686 4.472 0 4.472 2.685 8.952 2.685m-133.89-8.16c4.462 0 4.462 2.692 8.93 2.692 4.442 0 4.442-2.69 8.898-2.69 4.467 0 4.467 2.69 8.923 2.69 4.455 0 4.455-2.69 8.916-2.69 4.455 0 4.455 2.69 8.928 2.69 4.443 0 4.443-2.69 8.887-2.69 4.46 0 4.46 2.69 8.904 2.69 4.46 0 4.46-2.69 8.934-2.69 4.456 0 4.456 2.69 8.917 2.69 4.456 0 4.456-2.69 8.924-2.69 4.473 0 4.473 2.69 8.94 2.69 4.45 0 4.45-2.69 8.923-2.69 4.468 0 4.468 2.69 8.94 2.69 4.48 0 4.48-2.69 8.972-2.69 4.472 0 4.472 2.69 8.952 2.69" fill="none" stroke="#789bcd" stroke-width="3.99176388"/><path d="M61.58 212.822c4.154 0 4.154 2.493 8.302 2.493 4.142 0 4.142-2.493 8.285-2.493 4.148 0 4.148 2.493 8.296 2.493s4.148-2.493 8.303-2.493c4.148 0 4.148 2.493 8.302 2.493 4.13 0 4.13-2.493 8.273-2.493s4.143 2.493 8.273 2.493c4.16 0 4.16-2.493 8.31-2.493 4.147 0 4.147 2.493 8.296 2.493 4.14 0 4.14-2.493 8.295-2.493 4.16 0 4.16 2.493 8.31 2.493 4.16 0 4.16-2.493 8.308-2.493 4.172 0 4.172 2.493 8.314 2.493 4.173 0 4.173-2.493 8.34-2.493 4.165 0 4.165 2.493 8.326 2.493" fill="none" stroke="#789bcd" stroke-width="3.8532864"/><path d="M49.23 237.822c5.027 0 5.027 3.022 10.054 3.022 5.022 0 5.022-3.022 10.043-3.022 5.033 0 5.033 3.022 10.067 3.022 5.015 0 5.015-3.022 10.048-3.022 5.028 0 5.028 3.022 10.06 3.022 5.034 0 5.034-3.022 10.062-3.022 5.015 0 5.015 3.022 10.03 3.022 5.034 0 5.034-3.022 10.067-3.022 5.016 0 5.016 3.022 10.05 3.022 5.02 0 5.02-3.022 10.06-3.022 5.028 0 5.028 3.022 10.067 3.022 5.02 0 5.02-3.022 10.06-3.022 5.052 0 5.052 3.022 10.085 3.022 5.046 0 5.046-3.022 10.09-3.022 5.065 0 5.065 3.022 10.104 3.022M46.23 245.45c5.287 0 5.287 3.185 10.586 3.185 5.286 0 5.286-3.185 10.572-3.185 5.292 0 5.292 3.185 10.585 3.185 5.292 0 5.292-3.185 10.584-3.185 5.286 0 5.286 3.185 10.59 3.185 5.293 0 5.293-3.185 10.585-3.185 5.28 0 5.28 3.185 10.555 3.185 5.298 0 5.298-3.185 10.59-3.185s5.292 3.185 10.58 3.185c5.297 0 5.297-3.185 10.59-3.185 5.297 0 5.297 3.185 10.608 3.185 5.286 0 5.286-3.185 10.572-3.185 5.31 0 5.31 3.185 10.615 3.185 5.316 0 5.316-3.185 10.626-3.185 5.317 0 5.317 3.185 10.62 3.185" fill="none" stroke="#789bcd" stroke-width="4.10013756"/><path d="M63.078 228.305c-3.907.518-5.304-.512-4.395-3.275l4.474-2.758c8.958-3.28 15.828-10.253 22.054-18.526 2.806-3.883 7.617-3.883 9.947.343 4.142 14.395 11.355 20.603 18.73 22.24-4.648-2.938-8.53-6.376-11.602-10.5 3.143-2.432 6.05-5.708 8.538-10.187 3.064-3.528 7.038-2.505 7.712.945 3.812 9.742 8.7 15.775 14.595 18.442-4.07-3.185-7.135-6.894-9.302-11.024l4.575-7.25c1.74-3.54 3.637-3.01 5.624-.68 4.31 6.882 9.362 12.758 15.27 17.316-3.162-2.836-5.57-6.04-7.064-9.386 2.083-2.083 3.733-4.582 4.98-7.418 2.083-2.408 4.07-2.24 5.876.512 4.075 6.64 8.8 12.156 14.683 16.123-3.733-3.365-6.72-6.893-8.194-10.95 1.474-.676 2.636-1.898 3.455-3.535 1.668-2.24 3.823-1.813 6.316 1.384 5.714 8.44 11.928 13.44 18.725 15.01l1.247-.536 1.07 1.818c-.74 1.295-1.992 2.06-3.726 2.33-2.65.344-4.726-2.25-7.544-1.378-2.48 1.294-4.792 1.89-6.785.94-2.33-.254-3.323-2.41-7.88-.08-4.65 2.843-6.787-3.196-11.772-.517-5.63 4.045-6.63-3.276-13.763.342-4.648 2.932-6.72-3.715-12.096-.26-4.064 3.53-7.55-2.317-11.518-.866-7.062 4.913-8.965-2.75-13.944.602-3.733 4.052-7.532-3.877-11.933.09-4.55 3.63-7.784-3.87-12.588 0-5.244 3.547-6.238-4.395-13.764.687" fill="#30a644"/><path d="M213.694 257.012h-88.692v-6.04h77.668l-77.668-142.287V95.06l88.692 161.952zm-88.692 0H35.817l88.842-162.38.342.428v13.625l-77.68 142.288h77.68v6.04z" fill="#fabb18"/></svg>