<svg xmlns="http://www.w3.org/2000/svg" width="399.963" height="221.386"><path d="M289.02 92.156c.615.11 1.282.19 2.013.248.725.052 1.513.082 2.36.082 1.146 0 1.916-.118 2.3-.345.386-.233.58-.645.58-1.25 0-.91-.29-1.624-.867-2.158-.582-.53-1.368-.798-2.37-.798-1.066 0-1.958.373-2.66 1.113-.71.74-1.16 1.777-1.357 3.11m8.014 5.88c.198.275.346.527.44.763.097.237.143.464.143.686 0 .545-.367.994-1.11 1.337-.73.343-1.7.52-2.89.52-2.2 0-3.918-.657-5.16-1.964-1.248-1.302-1.864-3.118-1.864-5.414 0-2.326.622-4.233 1.88-5.704 1.256-1.48 2.87-2.223 4.834-2.223 1.517 0 2.763.472 3.737 1.418.976.943 1.46 2.14 1.46 3.6 0 1.15-.402 1.974-1.215 2.462-.8.492-2.178.737-4.116.737-.725 0-1.453-.027-2.174-.082-.72-.06-1.43-.136-2.14-.242v.206c0 1.555.423 2.79 1.266 3.7.84.912 1.993 1.37 3.44 1.37.678 0 1.306-.104 1.885-.295.58-.194 1.108-.488 1.584-.88M303.92 89.68c-.014 1.097-.04 2.285-.07 3.556-.035 1.268-.048 1.98-.048 2.138 0 1.304.055 2.356.164 3.17.11.815.276 1.488.516 2.03-.388.22-.737.386-1.06.486-.314.106-.63.164-.94.164-.417 0-.705-.133-.857-.397-.158-.252-.237-.804-.237-1.632 0-.182.05-1.113.146-2.787.09-1.674.14-3.257.14-4.755 0-1.413-.05-2.502-.15-3.272-.093-.77-.257-1.46-.487-2.077.2-.063.403-.118.612-.16.196-.043.4-.058.594-.058.485 0 .864.146 1.15.434.278.3.442.714.478 1.25.69-.536 1.422-.95 2.196-1.25.776-.29 1.54-.435 2.3-.435.92 0 1.75.216 2.485.658.728.428 1.292 1.034 1.68 1.8.267.535.458 1.15.574 1.858.115.71.172 1.778.172 3.22 0 .147-.007.505-.022 1.07-.018.557-.02 1.048-.02 1.454 0 1.03.063 1.92.187 2.657.124.747.31 1.33.558 1.748-.434.224-.813.397-1.128.506-.32.112-.613.17-.864.17-.436 0-.74-.124-.91-.37-.166-.243-.257-.713-.257-1.39 0-.414.036-1.297.09-2.656.06-1.355.095-2.51.095-3.463 0-1.813-.264-3.13-.764-3.948-.51-.813-1.322-1.225-2.445-1.225-.574 0-1.195.13-1.86.39-.664.252-1.33.625-2.02 1.117M184.087 111.072c-.1 3.436-.173 6.514-.216 9.24-.04 2.735-.06 5.107-.06 7.133 0 1.79.016 3.52.05 5.216.036 1.693.1 3.346.18 4.944.67.197 1.348.35 2.027.443.673.094 1.353.145 2.035.145 3.98 0 7.187-1.267 9.635-3.79 2.438-2.533 3.663-5.838 3.663-9.94 0-4.065-1.21-7.374-3.63-9.918-2.426-2.54-5.58-3.806-9.45-3.806-.785 0-1.528.022-2.223.076-.7.057-1.373.14-2.01.257m-5.37-3.914c1.952-.033 3.908-.088 5.873-.167 1.96-.086 2.963-.125 3.006-.125 5.574 0 10.016 1.507 13.316 4.525 3.305 3.01 4.958 7.033 4.958 12.045 0 2.693-.488 5.232-1.468 7.625-.976 2.39-2.386 4.473-4.227 6.256-1.698 1.65-3.69 2.9-5.965 3.733-2.28.83-4.822 1.245-7.633 1.245-2.87 0-4.756-.257-5.665-.776-.907-.52-1.36-1.52-1.36-2.994 0-.11.07-2.026.213-5.753.143-3.727.213-7.41.213-11.036 0-3.936-.1-7.054-.31-9.343-.21-2.293-.524-4.043-.952-5.238" fill="#0076c0"/><path d="M183.7 110.542c-.102 3.572-.178 6.77-.226 9.604-.043 2.842-.06 5.308-.06 7.412 0 1.856.014 3.658.05 5.42.037 1.758.104 3.475.192 5.134.7.21 1.407.364 2.117.46.706.1 1.42.152 2.135.152 4.163 0 7.524-1.316 10.083-3.94 2.555-2.628 3.837-6.064 3.837-10.328 0-4.225-1.267-7.66-3.8-10.305-2.538-2.64-5.84-3.957-9.892-3.957-.825 0-1.6.025-2.33.082-.733.058-1.44.143-2.104.267zm-5.62-4.07c2.043-.036 4.093-.09 6.15-.173 2.052-.09 3.1-.13 3.144-.13 5.838 0 10.49 1.567 13.944 4.703 3.46 3.13 5.192 7.302 5.192 12.518 0 2.8-.513 5.44-1.538 7.923-1.025 2.483-2.502 4.652-4.427 6.502-1.778 1.713-3.864 3.014-6.245 3.878-2.386.865-5.05 1.295-7.994 1.295-3.002 0-4.976-.267-5.928-.803-.953-.54-1.423-1.58-1.423-3.112 0-.115.073-2.108.222-5.977.148-3.876.22-7.703.22-11.47 0-4.09-.105-7.33-.323-9.71-.216-2.384-.546-4.2-.995-5.444z" fill="none" stroke="#0076c0" stroke-width="1.6800770200000001" stroke-linecap="round" stroke-linejoin="round"/><path d="M213.048 127.43c.937.182 1.977.315 3.106.403 1.137.088 2.36.133 3.666.133 1.777 0 2.97-.188 3.563-.558.6-.37.9-1.04.9-2.004 0-1.468-.45-2.633-1.342-3.488-.9-.852-2.125-1.283-3.678-1.283-1.65 0-3.027.6-4.118 1.796-1.098 1.188-1.793 2.865-2.096 5m12.434 9.522c.318.434.552.846.707 1.228.147.388.22.752.22 1.11 0 .886-.573 1.6-1.723 2.162-1.152.565-2.653.844-4.512.844-3.412 0-6.09-1.053-8.025-3.167-1.937-2.114-2.905-5.032-2.905-8.76 0-3.756.974-6.825 2.927-9.212 1.95-2.39 4.452-3.578 7.508-3.578 2.357 0 4.292.755 5.802 2.283 1.516 1.516 2.277 3.463 2.277 5.83 0 1.858-.625 3.192-1.88 3.975-1.253.797-3.385 1.198-6.39 1.198-1.132 0-2.254-.04-3.373-.137-1.122-.092-2.226-.223-3.327-.4v.335c0 2.514.655 4.5 1.975 5.972 1.298 1.46 3.087 2.195 5.337 2.195 1.055 0 2.03-.15 2.927-.467.9-.315 1.715-.785 2.452-1.413" fill="#0076c0"/><path d="M212.672 127.29c1 .19 2.114.33 3.32.423 1.214.09 2.52.14 3.92.14 1.898 0 3.174-.194 3.808-.59.64-.39.965-1.097.965-2.112 0-1.552-.486-2.783-1.438-3.684-.964-.9-2.274-1.356-3.933-1.356-1.765 0-3.233.634-4.4 1.893-1.174 1.258-1.917 3.03-2.242 5.286zm13.292 10.055c.34.46.59.894.756 1.3.157.404.236.792.236 1.17 0 .935-.613 1.69-1.844 2.285-1.23.594-2.835.89-4.822.89-3.648 0-6.51-1.11-8.58-3.346-2.07-2.23-3.1-5.31-3.1-9.247 0-3.97 1.036-7.212 3.125-9.732 2.084-2.523 4.76-3.78 8.028-3.78 2.52 0 4.585.8 6.2 2.407 1.624 1.607 2.434 3.663 2.434 6.156 0 1.968-.668 3.378-2.01 4.206-1.338.843-3.616 1.265-6.83 1.265-1.208 0-2.408-.044-3.606-.147-1.194-.097-2.377-.233-3.554-.42v.35c0 2.657.7 4.76 2.11 6.31 1.39 1.542 3.304 2.32 5.71 2.32 1.124 0 2.164-.16 3.125-.493.963-.334 1.836-.828 2.624-1.495z" fill="none" stroke="#0076c0" stroke-width="1.6800770200000001" stroke-linecap="round" stroke-linejoin="round"/><path d="M231.65 118.054c.324-.125.645-.213.943-.264.297-.064.61-.085.94-.085.76 0 1.367.224 1.798.685.438.452.68 1.113.735 1.98 1.13-.867 2.232-1.51 3.318-1.925 1.073-.416 2.147-.63 3.22-.63 1.037 0 2.023.23 2.945.693.92.452 1.777 1.138 2.58 2.057 1.126-.92 2.33-1.626 3.607-2.138 1.28-.51 2.498-.774 3.666-.774 2.557 0 4.517.843 5.88 2.53 1.366 1.686 2.045 4.097 2.045 7.235 0 .458-.02 1.36-.066 2.702-.044 1.338-.062 2.466-.062 3.38 0 2.082.088 3.693.25 4.818.168 1.122.44 2.028.817 2.73-.715.384-1.313.666-1.792.84-.476.163-.9.248-1.27.248-.677 0-1.138-.19-1.387-.567-.25-.387-.38-1.13-.38-2.227 0-1.01.062-2.62.183-4.843.115-2.223.175-3.922.175-5.113 0-2.915-.385-5.026-1.167-6.327-.777-1.288-2.03-1.943-3.755-1.943-.943 0-1.85.17-2.73.49-.872.322-1.82.865-2.83 1.617.14.98.25 2.017.31 3.084.06 1.08.1 2.58.1 4.5v2.55c0 2.227.07 3.89.222 4.98.146 1.093.404 2.008.768 2.755-.637.373-1.195.642-1.684.797-.492.167-.97.246-1.432.246-.646 0-1.1-.204-1.353-.607-.25-.407-.38-1.14-.38-2.233 0-.576.04-1.89.117-3.94.082-2.04.12-3.796.12-5.25 0-3.426-.34-5.755-1.015-6.99-.676-1.224-1.844-1.837-3.5-1.837-.87 0-1.753.188-2.65.57-.9.383-1.826.947-2.78 1.71-.03 1.347-.077 3.064-.122 5.153-.05 2.096-.076 3.394-.076 3.894 0 2.15.087 3.888.257 5.2.172 1.32.442 2.412.806 3.286-.597.354-1.143.62-1.647.794-.494.164-.982.25-1.47.25-.65 0-1.1-.214-1.344-.632-.24-.42-.364-1.304-.364-2.65 0-.386.085-1.993.252-4.82.164-2.826.25-5.458.25-7.905 0-1.932-.09-3.543-.262-4.838-.167-1.298-.43-2.37-.79-3.238" fill="#0076c0"/><path d="M231.012 117.382c.337-.13.67-.225.98-.282.31-.064.633-.085.976-.085.795 0 1.422.236 1.87.72.453.48.705 1.178.762 2.097 1.177-.92 2.32-1.598 3.445-2.038 1.12-.436 2.232-.67 3.348-.67 1.08 0 2.102.25 3.057.737.96.48 1.85 1.205 2.684 2.172 1.17-.967 2.42-1.716 3.75-2.256 1.327-.54 2.594-.816 3.81-.816 2.654 0 4.692.892 6.108 2.672 1.42 1.78 2.123 4.328 2.123 7.645 0 .486-.02 1.435-.067 2.857-.045 1.413-.063 2.602-.063 3.57 0 2.2.088 3.902.257 5.09.176 1.187.46 2.145.853 2.885-.743.406-1.368.703-1.865.888-.495.173-.938.26-1.32.26-.7 0-1.18-.2-1.44-.6-.26-.403-.39-1.192-.39-2.347 0-1.07.06-2.768.184-5.12.12-2.348.185-4.147.185-5.402 0-3.08-.402-5.31-1.214-6.684-.81-1.362-2.108-2.056-3.903-2.056-.98 0-1.92.18-2.836.518-.907.343-1.89.916-2.942 1.708.15 1.037.26 2.135.325 3.263.064 1.14.103 2.723.103 4.755v2.693c0 2.353.073 4.112.227 5.262.155 1.155.422 2.122.8 2.91-.66.395-1.242.68-1.75.844-.508.177-1.006.26-1.488.26-.67 0-1.14-.214-1.404-.64-.26-.43-.394-1.214-.394-2.358 0-.61.042-1.998.12-4.163.086-2.16.126-4.014.126-5.548 0-3.624-.352-6.084-1.056-7.388-.703-1.294-1.916-1.943-3.636-1.943-.904 0-1.82.2-2.754.604-.937.403-1.898 1-2.887 1.807-.033 1.424-.082 3.237-.127 5.448-.052 2.214-.08 3.582-.08 4.115 0 2.272.09 4.104.268 5.492.18 1.395.46 2.55.84 3.473-.625.376-1.192.655-1.713.84-.516.173-1.022.26-1.526.26-.677 0-1.147-.22-1.4-.663-.25-.443-.378-1.38-.378-2.803 0-.41.09-2.104.26-5.09.174-2.99.262-5.773.262-8.356 0-2.04-.094-3.743-.273-5.11-.172-1.37-.448-2.505-.818-3.424z" fill="none" stroke="#0076c0" stroke-width="1.6800770200000001" stroke-linecap="round" stroke-linejoin="round"/><path d="M279.574 139.317c2.308 0 4.203-.882 5.674-2.647 1.477-1.768 2.217-4.034 2.217-6.802 0-2.7-.728-4.895-2.172-6.6-1.45-1.7-3.33-2.55-5.634-2.55-2.358 0-4.256.883-5.703 2.648-1.45 1.765-2.168 4.106-2.168 7.02 0 2.587.733 4.725 2.2 6.402 1.465 1.692 3.33 2.53 5.584 2.53m-.255 3.462c-3.32 0-6.012-1.16-8.1-3.48-2.085-2.318-3.122-5.3-3.122-8.935 0-3.867 1.107-7.006 3.34-9.413 2.228-2.414 5.12-3.62 8.67-3.62 3.208 0 5.853 1.145 7.93 3.435 2.077 2.292 3.117 5.185 3.117 8.697 0 1.407-.197 2.805-.585 4.188-.397 1.374-.93 2.557-1.6 3.53-1.272 1.865-2.71 3.263-4.314 4.197-1.607.936-3.387 1.4-5.337 1.4" fill="#0076c0"/><path d="M279.57 139.82c2.436 0 4.438-.928 5.99-2.79 1.56-1.865 2.34-4.252 2.34-7.172 0-2.848-.77-5.165-2.294-6.96-1.528-1.8-3.512-2.69-5.944-2.69-2.487 0-4.49.93-6.02 2.793-1.528 1.863-2.286 4.328-2.286 7.403 0 2.73.773 4.983 2.323 6.754 1.545 1.78 3.513 2.663 5.89 2.663zm-.27 3.657c-3.498 0-6.34-1.228-8.545-3.675-2.198-2.445-3.296-5.587-3.296-9.423 0-4.074 1.17-7.385 3.523-9.927 2.353-2.544 5.407-3.818 9.152-3.818 3.385 0 6.175 1.21 8.367 3.624 2.193 2.42 3.29 5.47 3.29 9.17 0 1.486-.206 2.96-.618 4.418-.42 1.45-.98 2.696-1.686 3.72-1.344 1.97-2.86 3.444-4.552 4.432-1.698.983-3.576 1.477-5.635 1.477z" fill="none" stroke="#0076c0" stroke-width="1.6800770200000001" stroke-linecap="round" stroke-linejoin="round"/><path d="M309.118 122.538c-.552-.39-1.094-.668-1.622-.84-.528-.17-1.116-.255-1.756-.255-2.162 0-3.973.88-5.407 2.647-1.444 1.762-2.162 4-2.162 6.696 0 2.448.634 4.383 1.914 5.817 1.28 1.434 3.002 2.153 5.186 2.153.943 0 1.8-.148 2.57-.427.77-.293 1.49-.738 2.158-1.348.264.403.458.792.59 1.168.14.367.213.727.213 1.064 0 1.02-.53 1.835-1.566 2.426-1.047.598-2.466.9-4.252.9-3.136 0-5.677-1.012-7.633-3.05-1.963-2.03-2.94-4.676-2.94-7.927 0-3.95 1.186-7.266 3.557-9.956 2.375-2.684 5.253-4.028 8.643-4.028 1.244 0 2.17.197 2.778.603.604.403.913 1.013.913 1.838 0 .422-.093.825-.28 1.223-.19.397-.483.822-.902 1.295" fill="#0076c0"/><path d="M309.625 122.12c-.594-.413-1.18-.704-1.75-.89-.567-.178-1.2-.266-1.89-.266-2.334 0-4.284.93-5.83 2.793-1.557 1.862-2.33 4.224-2.33 7.07 0 2.583.685 4.627 2.062 6.14 1.38 1.516 3.236 2.27 5.59 2.27 1.015 0 1.943-.153 2.768-.45.83-.304 1.61-.777 2.33-1.417.28.425.49.83.636 1.228.15.39.23.768.23 1.126 0 1.076-.572 1.928-1.69 2.56-1.13.63-2.657.95-4.583.95-3.378 0-6.12-1.07-8.227-3.22-2.114-2.143-3.166-4.933-3.166-8.37 0-4.166 1.276-7.67 3.833-10.507 2.56-2.836 5.662-4.252 9.316-4.252 1.337 0 2.338.21 2.993.637.652.427.983 1.07.983 1.94 0 .443-.1.87-.304 1.29-.2.418-.52.867-.97 1.367z" fill="none" stroke="#0076c0" stroke-width="1.6800770200000001" stroke-linecap="round" stroke-linejoin="round"/><path d="M318.04 123.06c1.077-1.708 2.102-2.987 3.078-3.82.968-.84 1.93-1.263 2.878-1.263.8 0 1.486.294 2.05.868.564.576.85 1.294.85 2.138 0 .55-.164 1.09-.483 1.62-.32.533-.8 1.057-1.446 1.58-.225-.717-.507-1.244-.847-1.584-.336-.347-.736-.514-1.216-.514-.7 0-1.44.392-2.213 1.174-.776.792-1.534 1.917-2.28 3.39-.07.73-.136 1.465-.173 2.217-.045.752-.067 1.483-.067 2.193 0 2.423.12 4.446.364 6.062.237 1.61.616 2.94 1.125 3.976-.577.34-1.14.588-1.7.773-.548.177-1.088.265-1.624.265-.698 0-1.186-.194-1.456-.594-.26-.394-.4-1.19-.4-2.39 0-.433.073-2.116.215-5.033.143-2.924.215-5.64.215-8.15 0-2.055-.072-3.63-.215-4.733-.146-1.095-.38-2.07-.713-2.917.292-.11.577-.194.856-.255.276-.054.58-.085.873-.085.835 0 1.454.222 1.86.676.4.446.6 1.135.6 2.066 0 .202-.01.493-.03.86-.027.367-.054.864-.1 1.48" fill="#0076c0"/><path d="M317.803 122.657c1.183-1.804 2.31-3.157 3.38-4.042 1.066-.89 2.124-1.33 3.164-1.33.883 0 1.635.308 2.254.914.62.61.932 1.367.932 2.262 0 .582-.176 1.155-.528 1.713-.352.56-.88 1.116-1.59 1.668-.248-.758-.557-1.316-.93-1.674-.37-.365-.81-.544-1.335-.544-.77 0-1.584.416-2.433 1.244-.855.834-1.686 2.026-2.508 3.584-.077.77-.15 1.55-.19 2.345-.05.796-.075 1.566-.075 2.318 0 2.563.13 4.698.4 6.408.258 1.705.677 3.11 1.238 4.204-.634.36-1.252.624-1.865.822-.604.185-1.2.28-1.79.28-.767 0-1.3-.208-1.594-.632-.292-.416-.443-1.262-.443-2.526 0-.458.083-2.242.24-5.323.155-3.092.234-5.964.234-8.617 0-2.175-.08-3.84-.237-5.007-.157-1.165-.415-2.19-.776-3.085.313-.114.63-.205.935-.268.3-.058.634-.088.958-.088.92 0 1.6.233 2.04.715.444.466.662 1.197.662 2.18 0 .218-.012.524-.033.913-.03.388-.06.912-.11 1.564z" fill="none" stroke="#0076c0" stroke-width="1.6800770200000001" stroke-linecap="round" stroke-linejoin="round"/><path d="M342.314 129.996c-.66-.115-1.244-.197-1.765-.255-.526-.057-.972-.08-1.342-.08-2.217 0-3.888.418-5.013 1.255-1.13.843-1.692 2.1-1.692 3.763 0 1.34.39 2.396 1.18 3.17.782.76 1.874 1.146 3.257 1.146 1.04 0 2.013-.222 2.92-.67.91-.455 1.738-1.123 2.496-2.023-.024-.824-.05-1.485-.055-1.998-.006-.518-.008-1.007-.008-1.483 0-.295.002-.76.022-1.39.017-.624.017-1.1 0-1.434m4.74 10.896c-.56.407-1.07.716-1.53.93-.457.213-.863.314-1.21.314-.615 0-1.066-.213-1.345-.64-.277-.434-.44-1.125-.484-2.09-1.07 1.034-2.135 1.805-3.18 2.302-1.047.497-2.115.75-3.2.75-2.14 0-3.867-.683-5.18-2.048-1.316-1.362-1.97-3.166-1.97-5.39 0-2.52.906-4.542 2.71-6.06 1.804-1.524 4.234-2.285 7.287-2.285.498 0 1.028.02 1.6.06.554.043 1.16.1 1.803.183.03-.146.05-.29.055-.446.005-.152.005-.334.005-.543 0-1.67-.412-2.94-1.25-3.82-.836-.875-2.046-1.312-3.626-1.312-1.32 0-2.403.243-3.252.725-.852.488-1.538 1.237-2.068 2.256-.51-.144-.904-.395-1.165-.756-.267-.352-.4-.81-.4-1.38 0-1.174.66-2.147 1.99-2.92 1.322-.765 3.05-1.147 5.18-1.147 2.62 0 4.584.72 5.89 2.156 1.31 1.435 1.967 3.585 1.967 6.448 0 .535-.025 1.466-.064 2.803-.046 1.325-.064 2.4-.064 3.215 0 2.24.115 4.045.355 5.404.226 1.364.614 2.465 1.142 3.29" fill="#0076c0"/><path d="M342.617 129.995c-.703-.122-1.33-.21-1.89-.27-.56-.06-1.036-.088-1.436-.088-2.37 0-4.157.443-5.36 1.328-1.214.892-1.815 2.22-1.815 3.976 0 1.414.42 2.53 1.265 3.343.834.806 2.005 1.21 3.484 1.21 1.113 0 2.157-.234 3.127-.71.975-.476 1.86-1.18 2.673-2.13-.027-.872-.052-1.57-.06-2.11-.004-.548-.007-1.064-.007-1.567 0-.313.003-.804.02-1.465.02-.663.02-1.164 0-1.515zm5.074 11.502c-.6.43-1.145.76-1.637.986-.488.22-.925.328-1.292.328-.66 0-1.142-.22-1.442-.676-.294-.458-.47-1.186-.513-2.204-1.15 1.09-2.286 1.904-3.408 2.43-1.12.526-2.263.79-3.427.79-2.29 0-4.14-.72-5.544-2.16-1.407-1.44-2.11-3.344-2.11-5.69 0-2.66.97-4.796 2.902-6.403 1.932-1.608 4.534-2.408 7.803-2.408.534 0 1.102.017 1.71.066.595.042 1.248.103 1.933.19.033-.154.05-.31.058-.472.007-.158.01-.355.01-.574 0-1.762-.443-3.102-1.338-4.03-.897-.925-2.192-1.386-3.885-1.386-1.41 0-2.568.255-3.478.764-.914.516-1.648 1.307-2.215 2.384-.546-.155-.967-.42-1.25-.798-.284-.373-.424-.858-.424-1.458 0-1.24.708-2.275 2.13-3.084 1.413-.804 3.263-1.207 5.54-1.207 2.81 0 4.91.755 6.31 2.274 1.403 1.515 2.103 3.784 2.103 6.807 0 .564-.024 1.547-.07 2.957-.045 1.4-.066 2.535-.066 3.394 0 2.368.124 4.273.38 5.707.244 1.44.657 2.602 1.224 3.472z" fill="none" stroke="#0076c0" stroke-width="1.6800770200000001" stroke-linecap="round" stroke-linejoin="round"/><path d="M365.36 122.538c-.55-.39-1.097-.668-1.622-.84-.524-.17-1.113-.255-1.756-.255-2.165 0-3.966.88-5.413 2.647-1.438 1.762-2.16 4-2.16 6.696 0 2.448.637 4.383 1.91 5.817 1.28 1.434 3.012 2.153 5.195 2.153.937 0 1.796-.148 2.563-.427.773-.293 1.49-.738 2.165-1.348.252.403.452.792.588 1.168.138.367.205.727.205 1.064 0 1.02-.522 1.835-1.562 2.426-1.046.598-2.463.9-4.252.9-3.13 0-5.67-1.012-7.626-3.05-1.962-2.03-2.945-4.676-2.945-7.927 0-3.95 1.188-7.266 3.563-9.956 2.368-2.684 5.252-4.028 8.64-4.028 1.246 0 2.168.197 2.778.603.607.403.91 1.013.91 1.838 0 .422-.094.825-.276 1.223-.188.397-.488.822-.903 1.295" fill="#0076c0"/><path d="M365.868 122.12c-.594-.413-1.183-.704-1.75-.89-.567-.178-1.198-.266-1.89-.266-2.337 0-4.278.93-5.837 2.793-1.55 1.862-2.325 4.224-2.325 7.07 0 2.583.685 4.627 2.06 6.14 1.38 1.516 3.244 2.27 5.597 2.27 1.01 0 1.938-.153 2.763-.45.834-.304 1.604-.777 2.335-1.417.273.425.485.83.634 1.228.146.39.218.768.218 1.126 0 1.076-.56 1.928-1.683 2.56-1.13.63-2.654.95-4.583.95-3.375 0-6.114-1.07-8.22-3.22-2.115-2.143-3.174-4.933-3.174-8.37 0-4.166 1.28-7.67 3.84-10.507 2.553-2.836 5.66-4.252 9.313-4.252 1.34 0 2.338.21 2.993.637.654.427.98 1.07.98 1.94 0 .443-.1.87-.3 1.29-.2.418-.523.867-.972 1.367z" fill="none" stroke="#0076c0" stroke-width="1.6800770200000001" stroke-linecap="round" stroke-linejoin="round"/><path d="M375.835 110.57c0 .923-.288 1.69-.858 2.306-.57.607-1.286.916-2.154.916-.758 0-1.346-.246-1.792-.728-.442-.48-.66-1.134-.66-1.96 0-.906.285-1.676.852-2.316.567-.634 1.262-.955 2.074-.955.73 0 1.344.255 1.82.776.48.515.72 1.167.72 1.96m.17 30.476c-.605.373-1.175.64-1.712.825-.54.177-1.058.265-1.56.265-.702 0-1.175-.212-1.424-.64-.25-.43-.373-1.295-.373-2.59 0-.743.064-2.408.18-5 .114-2.584.175-4.813.175-6.672 0-2.023-.088-3.67-.26-4.928-.17-1.265-.447-2.344-.83-3.233.526-.358 1.07-.628 1.627-.813.55-.186 1.106-.283 1.65-.283.657 0 1.105.182 1.35.546.24.364.368 1.04.368 2.03 0 .26-.064 1.676-.182 4.248-.12 2.578-.173 5.02-.173 7.334 0 2.17.09 3.966.28 5.392.19 1.425.484 2.598.882 3.52" fill="#0076c0"/><path d="M376.435 109.988c0 .958-.352 1.756-1.05 2.396-.694.634-1.564.955-2.622.955-.925 0-1.64-.256-2.187-.76-.54-.496-.807-1.185-.807-2.037 0-.943.348-1.744 1.04-2.408.69-.664 1.537-.998 2.53-.998.89 0 1.637.267 2.22.807.58.54.875 1.216.875 2.044zm.206 31.71c-.732.384-1.427.663-2.085.857-.658.185-1.29.273-1.898.273-.86 0-1.438-.218-1.738-.667-.307-.445-.46-1.342-.46-2.69 0-.775.08-2.507.22-5.203s.215-5.007.215-6.944c0-2.105-.107-3.82-.32-5.126-.208-1.316-.545-2.44-1.015-3.366.646-.37 1.307-.65 1.99-.848.673-.188 1.35-.288 2.01-.288.804 0 1.35.188 1.653.57.29.376.443 1.08.443 2.11 0 .27-.076 1.745-.22 4.42-.147 2.68-.21 5.222-.21 7.626 0 2.26.108 4.128.34 5.61.232 1.484.593 2.706 1.075 3.667z" fill="none" stroke="#0076c0" stroke-width="1.6800770200000001" stroke-linecap="round" stroke-linejoin="round"/><path d="M393.78 129.996c-.658-.115-1.247-.197-1.768-.255-.522-.057-.968-.08-1.34-.08-2.218 0-3.886.418-5.01 1.255-1.13.843-1.693 2.1-1.693 3.763 0 1.34.39 2.396 1.18 3.17.784.76 1.867 1.146 3.25 1.146 1.043 0 2.017-.222 2.923-.67.913-.455 1.747-1.123 2.5-2.023-.03-.824-.046-1.485-.052-1.998-.01-.518-.01-1.007-.01-1.483 0-.295.004-.76.02-1.39.013-.624.013-1.1 0-1.434m4.744 10.896c-.568.407-1.074.716-1.53.93-.463.213-.863.314-1.212.314-.616 0-1.067-.213-1.346-.64-.276-.434-.44-1.125-.483-2.09-1.07 1.034-2.132 1.805-3.175 2.302-1.052.497-2.123.75-3.202.75-2.14 0-3.873-.683-5.18-2.048-1.32-1.362-1.97-3.166-1.97-5.39 0-2.52.9-4.542 2.707-6.06 1.804-1.524 4.23-2.285 7.284-2.285.5 0 1.034.02 1.595.06.565.043 1.168.1 1.81.183.03-.146.047-.29.056-.446.004-.152.01-.334.01-.543 0-1.67-.413-2.94-1.253-3.82-.837-.875-2.047-1.312-3.627-1.312-1.316 0-2.393.243-3.245.725-.858.488-1.54 1.237-2.07 2.256-.517-.144-.902-.395-1.166-.756-.273-.352-.4-.81-.4-1.38 0-1.174.664-2.147 1.986-2.92 1.325-.765 3.048-1.147 5.186-1.147 2.613 0 4.578.72 5.888 2.156 1.31 1.435 1.968 3.585 1.968 6.448 0 .535-.027 1.466-.066 2.803-.046 1.325-.07 2.4-.07 3.215 0 2.24.124 4.045.352 5.404.236 1.364.624 2.465 1.152 3.29" fill="#0076c0"/><path d="M394.083 129.995c-.706-.122-1.334-.21-1.892-.27-.557-.06-1.033-.088-1.437-.088-2.37 0-4.157.443-5.358 1.328-1.21.892-1.814 2.22-1.814 3.976 0 1.414.42 2.53 1.266 3.343.837.806 1.998 1.21 3.478 1.21 1.116 0 2.157-.234 3.13-.71.977-.476 1.868-1.18 2.675-2.13-.032-.872-.05-1.57-.06-2.11-.002-.548-.008-1.064-.008-1.567 0-.313.006-.804.02-1.465.016-.663.016-1.164 0-1.515zm5.077 11.502c-.607.43-1.15.76-1.638.986-.494.22-.925.328-1.298.328-.658 0-1.14-.22-1.437-.676-.3-.458-.473-1.186-.52-2.204-1.145 1.09-2.28 1.904-3.398 2.43-1.126.526-2.273.79-3.43.79-2.29 0-4.144-.72-5.545-2.16-1.41-1.44-2.11-3.344-2.11-5.69 0-2.66.964-4.796 2.9-6.403 1.93-1.608 4.53-2.408 7.796-2.408.54 0 1.11.017 1.71.066.604.042 1.25.103 1.94.19.032-.154.047-.31.056-.472.007-.158.013-.355.013-.574 0-1.762-.444-3.102-1.342-4.03-.898-.925-2.192-1.386-3.885-1.386-1.407 0-2.562.255-3.472.764-.918.516-1.652 1.307-2.216 2.384-.552-.155-.964-.42-1.25-.798-.287-.373-.424-.858-.424-1.458 0-1.24.71-2.275 2.123-3.084 1.422-.804 3.263-1.207 5.553-1.207 2.8 0 4.9.755 6.302 2.274 1.404 1.515 2.107 3.784 2.107 6.807 0 .564-.027 1.547-.073 2.957-.045 1.4-.072 2.535-.072 3.394 0 2.368.133 4.273.38 5.707.25 1.44.666 2.602 1.23 3.472z" fill="none" stroke="#0076c0" stroke-width="1.6800770200000001" stroke-linecap="round" stroke-linejoin="round"/><path d="M186.57 66.223c.486-.698.987-1.213 1.505-1.538.52-.328 1.07-.494 1.66-.494 1.452 0 2.93 2.612 4.442 7.834.19.613.33 1.083.415 1.42l.022.027c4.112 13.893 6.453 20.84 7.026 20.84.21 0 .598-.408 1.18-1.23.576-.822 1.18-1.862 1.82-3.13 2.256-4.56 3.872-8.5 4.837-11.8.976-3.303 1.455-6.435 1.455-9.395 0-.704-.042-1.398-.13-2.056-.094-.656-.22-1.28-.4-1.872.488-.22.928-.382 1.33-.486.398-.1.765-.15 1.102-.15.92 0 1.556.254 1.92.763.36.503.542 1.395.542 2.66 0 3.296-.74 7.093-2.226 11.393-1.49 4.29-3.863 9.447-7.13 15.47-1.525 2.84-2.626 4.734-3.3 5.668-.684.943-1.227 1.413-1.643 1.413-.515 0-1.106-.592-1.774-1.77-.667-1.173-1.404-2.944-2.213-5.312-1.23-3.5-2.74-8.106-4.525-13.823-2.63-8.455-4.604-13.268-5.914-14.432M224.452 67.845c0 .96-.297 1.753-.883 2.393-.595.64-1.338.958-2.242.958-.782 0-1.404-.252-1.862-.755-.458-.5-.688-1.18-.688-2.043 0-.937.29-1.74.888-2.405.592-.664 1.307-.995 2.15-.995.765 0 1.398.264 1.896.807.49.537.74 1.213.74 2.04m.176 31.768c-.625.385-1.216.676-1.78.858-.562.188-1.107.285-1.626.285-.734 0-1.23-.227-1.486-.673-.26-.452-.39-1.35-.39-2.7 0-.78.072-2.516.21-5.215.147-2.705.21-5.028.21-6.972 0-2.11-.075-3.82-.26-5.14-.173-1.317-.464-2.44-.868-3.37.546-.37 1.113-.655 1.692-.843.574-.197 1.144-.297 1.708-.297.682 0 1.146.19 1.4.576.253.374.377 1.08.377 2.106 0 .276-.07 1.753-.218 4.44-.137 2.686-.207 5.23-.207 7.648 0 2.262.097 4.136.3 5.625.21 1.476.52 2.707.938 3.672M246.767 93.237c.033-1.66.057-3.433.082-5.325.017-1.883.03-2.945.03-3.18 0-1.293-.004-2.245-.013-2.87-.006-.628-.022-1.216-.052-1.756-1.052-.506-2.026-.89-2.938-1.134-.907-.243-1.765-.364-2.578-.364-2.585 0-4.63.925-6.136 2.78-1.507 1.854-2.26 4.374-2.26 7.552 0 2.644.622 4.74 1.86 6.278 1.246 1.54 2.92 2.31 5.028 2.31 1.38 0 2.63-.35 3.766-1.052 1.134-.707 2.205-1.786 3.21-3.24m.244-16.648v-2.232c0-2.58-.088-4.646-.26-6.187-.173-1.55-.437-2.75-.795-3.612.585-.373 1.13-.65 1.644-.825.513-.173.965-.267 1.365-.267.7 0 1.19.215 1.468.637.276.418.416 1.207.416 2.356 0 .727-.092 3.226-.283 7.502-.19 4.285-.282 8.21-.282 11.773 0 4.33.103 7.472.318 9.437.218 1.956.582 3.442 1.098 4.437-.648.387-1.246.678-1.773.86-.537.188-1.028.285-1.47.285-.595 0-1.014-.197-1.257-.594-.242-.38-.367-1.052-.367-2 0-.32.013-.565.025-.744.012-.182.02-.346.02-.494-1.152 1.425-2.362 2.47-3.608 3.145-1.25.67-2.635 1.004-4.164 1.004-2.948 0-5.352-1.12-7.227-3.35-1.872-2.233-2.806-5.12-2.806-8.662 0-3.99 1.147-7.293 3.457-9.91 2.31-2.62 5.227-3.925 8.76-3.925.858 0 1.762.113 2.717.346.955.22 1.956.563 3.005 1.018M269.342 88.14c-.68-.115-1.292-.206-1.83-.264-.54-.064-1.002-.094-1.387-.094-2.296 0-4.03.44-5.198 1.307-1.168.873-1.747 2.17-1.747 3.893 0 1.386.4 2.478 1.216 3.272.813.79 1.94 1.192 3.378 1.192 1.08 0 2.09-.233 3.027-.697.94-.46 1.802-1.16 2.588-2.09-.03-.846-.052-1.534-.058-2.068-.012-.534-.012-1.043-.012-1.544 0-.294.01-.773.024-1.425.015-.652.015-1.146 0-1.483m4.865 11.303c-.58.433-1.1.752-1.57.976-.47.218-.887.336-1.24.336-.632 0-1.093-.23-1.38-.682-.287-.455-.45-1.183-.5-2.19-1.106 1.08-2.204 1.88-3.295 2.405-1.092.517-2.196.78-3.32.78-2.22 0-4.007-.708-5.372-2.13-1.358-1.417-2.04-3.29-2.04-5.608 0-2.63.933-4.73 2.807-6.31 1.875-1.584 4.395-2.375 7.558-2.375.518 0 1.067.02 1.653.063.585.043 1.216.106 1.88.192.033-.152.042-.31.05-.47.01-.167.01-.35.01-.57 0-1.76-.43-3.106-1.295-4.034-.867-.922-2.12-1.39-3.76-1.39-1.365 0-2.487.265-3.36.792-.883.525-1.595 1.332-2.147 2.433-.528-.152-.934-.413-1.216-.786-.27-.373-.41-.858-.41-1.452 0-1.238.686-2.263 2.05-3.07 1.37-.812 3.154-1.213 5.356-1.213 2.71 0 4.74.753 6.09 2.248 1.352 1.5 2.028 3.74 2.028 6.717 0 .56-.02 1.528-.06 2.923-.05 1.386-.07 2.505-.07 3.348 0 2.34.12 4.216.37 5.64.236 1.423.637 2.564 1.183 3.425" fill="#0076c0"/><path d="M146.272 52.853c-.112-.2-.385-.422-.54-.56-1.09.633-3.11 2.75-3.454 3.97 1.222-.023 2.78-1.894 3.782-2.606 1.125-.804 1.91-1.732 2.975-2.663 1.292-1.143 3.933-4.094 5.49-4.255-.577 5.512-5.324 9.497-5.763 15 3.327-3.13 5.386-8.58 8.19-12.672.765-1.116 1.535-2.438 2.39-3.44.49-.57 2.42-2.743 3.103-2.874 1.26-.242 1.613 1.91 2.94.492.742-.792-.014-2.414 1.472-2.79-.567-1.4.998-1.875 1.866-2.387 1.16-.7 1.628-.735 1.777-2.464-.57-.342-1.653-2.51-1.81-3.242-.207-.922.075-2.344 1.38-1.43-.79-3.464 1.764-1.463 1.46-4.213-.193-1.764-2.05-3.196-2.93-2.065-1.21 1.547-.254.237-1.012 1.72-.376.743-.412.8-.864 1.368-.45.564-.273 1.2-.643 1.762-1.097 1.68-2.683.282-4.223.288-1.962.002-3.633.342-5.608.076-1.666-.223-3.555-1.308-5.196-1.04 2.342 1.29 6.348 4.005 8.898 3.174.892 1.558.303 1.768-.57 2.905-.634.818-1.177 1.794-1.86 2.6-1.473 1.742-2.583 3.34-3.796 5.147-1.234 1.83-2.726 3.142-4.22 4.807-1.223 1.356-3.186 2.975-3.85 4.73l.616.66z" fill="#d60c8c"/><path d="M149.8 21.592c-1.434-.65-10.905.77-12.725 2.487 1.11.693 9.092-.107 10.405-.107-.097 2.632-7.348 10.648-7.772 12.027.576-.382 1.183-.825 1.783-.985.053 1.043-.906 2.308-1.194 3.363-.31 1.122-.476 2.453-.91 3.518-.327.794-1.064 1.795-1.504 2.61-.582 1.102-.943 2.42-1.634 3.446 2.053-.63 3.46-4.373 4.776-6.144 1.377-1.856 2.923-4.273 4.63-5.717-.82 2.8-1.752 5.666-2.195 8.286-.453 2.696-1.735 5.908-1.105 8.66 1.04-.63 1.483-3.355 1.978-4.54.715-1.715 1.57-3.182 2.27-4.838.635-1.5 1.4-2.827 2.103-4.207.697-1.372.973-3.17 1.762-4.566 2.32-.724 1.583-1.965 2.13-4.212.33-1.35 1.318-.188 1.858-2.69.752.185.95.09 1.716 0 .06-.152.643.022.704-.11.01-2.716-1.332-5.23-3.427-5.852.44-1.456 2.103-2.062 2.08-4.01-.03-2.195-2.564-2.807-3.858-1.66-1.274 1.13-1.298 3.662-1.872 5.242" fill="#816657"/><path d="M48.1 48.51c-2.017.097-1.456 2.374-.786 3.7.643 1.295 1.972 3.43 3.285 3.878 1.524.54 3.025-.024 4.272 1.7 1.034 1.433.564 3.617.96 5.403.316 1.41 1.047 2.47 1.742 3.64.913 1.547 1.998 2.91 2.85 4.497.652 1.21 1.55 3.12 2.77 3.66-1.238-1.573-1.596-3.6-2.43-5.422-.682-1.504-2.08-2.91-1.69-4.755.94-4.297 6.018.35 7.452 1.905 2.608 2.81 4.795 6.098 7.794 8.39 1.64 1.25 2.987 2.818 4.57 4.125 1.465 1.204 3.078 1.93 4.322 3.47.315-.146.41-.258.573-.52-.98-1.794-1.923-3.538-2.908-5.263-1.13-1.96-2.26-3-3.77-4.316-2.972-2.592-5.353-4.6-7.415-8.43 1.55-1.695 3.112-1.05 4.995-.433 2.01.66 4.012.71 5.995 1.686 2.65 1.3 7.764 5.128 10.84 3.566-6.075-4.034-12.817-6.742-18.925-10.758-3.42-2.244-5.304-4.103-4.245-8.934.41-1.853 1.04-4.003 1.877-5.665.83-1.634 1.846-2.617 1.203-4.676-2.035.528.958-1-.294.822-1.657 2.416-7.498 9.236-9.657 11.15-.986.864-2.554 1.528-3.35 2.538-.647.807-.862 2.827-2.08 2.92-.72.052-2.303-1.625-2.74-2.14-1.62-1.86-2.165-5.875-5.213-5.738" fill="#ef4135"/><path d="M57.5 54.02c-1.063.744-.32-2.886-.478-1.79-.38 2.6 2.026-3.474 1.98-3.325.71-.36 1.235.197 1.47-1.374.33-2.216 5.797-8.627 6.1-10.85-.958-.297.234-.773-.615-1.604-.662-.655-1.283-1.907-1.93-2.593-.542-.58-1.93-1.63-1.92-2.62.016-.952 1.33-1.99 1.772-2.726 1.51.318 2.944.77 3.526 2.574.31.94.012 3.744 1.125 4.277.147.07 1.91-.127 2.212-.12.722.02 1.253-.334 1.862-.14.582.185.7 1.592 1.268 1.707.6.124-4.328 4.052-3.703 3.967-.805-1.652 1.04-4.463 2.152-2.695.522-.385-2.108-1.956-1.534-1.9-.434-1.648 4.888-5.41 5.853-6.916 1.362-2.103 4.553-4.893 6.833-6.01-2.4 3.71-7.575 8.55-8.573 13.02-.413 1.83 3.287 2.102 4.176 3.73 1.028 1.893 2.838 2.214 4.285 3.518 2.788 2.51 5.444 5.33 8.632 7.242 1.634.974 3.278 1.413 4.822 2.636 1.355 1.07 2.502 2.307 3.666 3.617-1.61-.197-2.863-1.18-4.32-1.816-1.815-.798-3.53-1.27-5.266-2.247-1.45-.828-2.88-1.644-4.39-2.366-1.032-.503-3.08-1.11-3.71-2.123-2.093 2.922 9.416 12.53 11.433 14.26-1.526.598-4.728-1.294-6.01-2.274-1.605-1.222-3.197-2.21-4.826-3.332-2.87-1.978-4.978-4.807-8.45-5.47-.498.902-1.26-1.584-1.23-.653-2.05.95-.393.368-2.213-.263-2.056-.995-1.79-1.48-2.53-1.98-1.248-.85-1.955-.52-2.613-1.708-.373 1.485-6.872 8.014-7.024 7.757l-1.83.594z" fill="#a0cf67"/><path d="M74.597 20.954c-.136.24-.18.503-.148.782 1.376.534 2.67 1.78 4.138 1.853.804-1.666-1.99-4.892-3.053-5.836-2.3 1.304-1.395 2.863-1.402 5.207.552.493 1.207.396 1.58-.275M78.873 24.2c.337.32.6.81.792 1.285-1.42 1.847-2.714 3.72-3.124 6.3 1.008-.353 1.724-.923 2.603-1.496.916 1.294 2.072 1.27 3.354 1.88 1.402.663 2.393 1.588 3.412 2.828 1.613 1.953 2.84 4.5 4.44 6.505 1.564 1.962 3.25 3.897 4.93 5.862 1.598 1.874 3.494 4.467 5.428 5.802-.912-1.562-1.634-3.51-2.444-5.162-.49-.994-2.653-5.082-2.332-5.84.737.712 1.592.627 2.39 1.176 1.07.732 1.656 1.742 2.926 2.354 1.73.822 3.567 1.962 4.88 3.367-.758-1.173-1.19-2.63-2.032-3.724-.776-1.015-1.7-1.82-2.575-2.723-.65-.664-2.067-1.73-2.304-2.74-.28-1.184.783-2.018.904-3.334-.825-.13-1.428-.99-2.196-1.41-.873-.477-1.925-.617-2.653-1.31-.98-.926-3.044-2.512-2.813-3.965.22-1.42 1.307-.664.045-1.932-.785-.788-1.89-.534-2.7-.916-.84-.397-1.257-1.116-1.682-1.91-.485-.9-.61-2.22-1.917-1.744-1.125-2.005-5.953-.394-7.223.434l-.107.412z" fill="#bf83b9"/><path d="M99.05 20.735c.728-.25 1.793-1.444 1.653-2.39-.227-1.56-2.395-1.183-3.193-.5-1.565 1.328-.228 3.496 1.54 2.89M97.64 25.95c.144.07.254.038.335-.102.01 1.486-.12 4.337.395 5.63.582-.395.794-1.108 1.486-1.102.5 3.697 2.468 7.35 3.593 10.67.852-.4 1.42-1.75 2.19-2.27.93 2.372-.14 7.615 2.23 9.168-.066.74.113.876.432 1.36.65-1.023.345-3.73.257-5.023-.095-1.604-.72-3.46-.562-4.943 2.536 1.735 3.943 5.07 5.762 7.348.35-1.637-1.23-4.712-1.904-6.09-.455-.936-1.422-2.183-1.495-3.317-.078-1.176.998-1.31.998-2.277 0-.545-1.213-1.764-1.537-2.065-.715-.676-1.494-1.17-2.14-1.94-.95-1.126-2.896-5.08.18-3.85-.083-1.027-.47-2.155-.65-3.156.27-.06.515-.35.78-.41-.165-1.683-2.524-3.467-3.96-3.49-1.036-.023-1.087.745-1.876 1.188-.994.552-2.144-.276-2.978.24-.773.488-1.513 3.508-1.537 4.433" fill="#1b4298"/><path d="M110.246 22.395c-.064.216-.073.613-.158.952 1.23-1.41.792-2.13.276-3.708-.5-1.515-.46-2.84-.503-4.44-.072-3.08 1.308-5.345.528-8.31-.355-1.347-1.173-9.09 1.71-6.28 2.14 2.076-.848 5.955 2.58 7.326 1.676.676 2.804.718 4.16 2.186.982 1.065 1.958 2.214 2.86 3.375.29-1.194.95-2.147 1.276-3.454.16-.64.415-2.168 1.455-2.4-.298-1.56-2.13-3.398-.386-4.92 1.514-1.326 3.427 1.807 2.684 3.123.28.98-.46 1.635-.743 2.353 2.447 1.225.864 7.875.555 9.895-.215 1.377.837 3.108.397 4.388-.41 1.192-2.08 1.808-3.072 2.37 1.614.32 2.536 8.28 3.08 10.207.5 1.755 1.18 3.608 1.278 5.334.085 1.54 1.013 5.004.112 6.3-1.325-2.01-1.94-4.935-3.014-7.177-.84-1.752-2.383-5.804-4.19-6.6-2.193-.957-1.513 4.666-1.41 6.303.185 2.818.797 5.344.14 8.182-1.587-1.728-2.56-6.63-2.78-8.985-.208-2.245-.51-7.094-1.885-8.625-.188.22-.534.294-.722.518-.518-.58-1.23-.96-1.76-1.537-.396-.446-.72-1.4-1.103-1.747-1.028-.934-2.138-.142-3.205-.233.3-1.407.788-3.448 1.84-4.398" fill="#fbb161"/><path d="M129.532 38.23c.1-.293.064-.557-.097-.79-.658 1.295-.913 3.12-1.292 4.58-.43 1.628-.385 3.326-.813 4.845 2.86-.803 5.42-15.324 7.573-14.368-.604 2.726-.56 6.032-.75 8.767-.14 2.014-.17 5.44.495 7.187 1.68-3.125 1.05-7.42 1.577-10.837.246-1.62.837-3.39 1.116-5.028.12-.728.36-2.093.887-2.587.51-.48 1.173.048 1.816-.413-.136-1.064-.418-2.177-.264-3.308.197-1.474.688-2.97.89-4.41.098-.69.116-1.477.523-2.083.288-.434 1.09-.646 1.285-1.025.216-.435-.045-.93.113-1.29.407-.95.54-1.122 1.256-1.956.79-.922 1.368-1.91 2.08-2.848.722-.958 1.653-1.73 2.378-2.696.685-.916 2.972-6.32 2.47-7.072-.835 2.905-3.75 6.247-5.642 8.32-.713.775-1.783 2.337-2.67 2.758-.745.358-1.915.2-2.607.352.458-1.307 1.547-1.904 1.635-3.257.094-1.42-.91-2.722-2.214-2.716-1.635.022-1.698 1.995-1.795 3.58-.14 2.188.234 2.782-1.567 3.56-1.532.67-1.92 1.024-2.648 2.868-.73 1.84-1.258 2.495-2.802 3.627-.876.645-2.02 1.39-3.03 1.618-1.334.288-2.85-.506-4.08.434.578.84 3.125-.034 4.232-.137 1.54-.15 3.106-.145 4.57-.418-.312 1.164-.394 1.838-.676 2.847-.365 1.31-.504 2.53-.695 3.8-.328 2.217-1.153 4.707-1.76 7.027l.507 1.07z" fill="#ffde75"/><path d="M.662 125.545c.634.36 1.162.233 1.587-.16 1.363-1.293 1.61-3.486-.472-2.752-1.058.367-2.71 1.996-1.116 2.91" fill="#fdc057"/><path d="M15.12 124.295c-.606-.206-1.21-.41-1.813-.612" fill="#0076c0"/><path d="M40.254 220.94c2.077 2.236 6.662-4.61 7.73-5.913 1.84-2.256 4.385-4.064 5.134-7.224.652-2.732-.47-3.354-2.05-1.485-3.054 3.617-6.55 6.71-9.404 10.58-.476.64-2.342 3.042-1.41 4.043M171.043 119.674c-1.708-1.01-3.054-1.947-5.053-2.572-1.68-.516-1.204-.995-.446-2.71 6.035-13.627-.794-36.805-2.85-39.44-1.332-1.714-7.694 7.648-8.228 7.296 8.758 14.532 3.35 30.978 2.514 33.72-.697 2.292-2.123 4.455-3.396 6.39-2.62 3.96-6.58 6.97-10.145 9.704-3.564 2.735-7.09 4.546-11.197 6.102-4.782 1.82-9.553 1.9-14.55 2.038-3.203.084-6.39.05-9.57-.36-1.894-.244-5.88-1.1-8.602-3.698-2.865-1.902-9.573-10.017-11.91-17.423-1.26-3.977-2.658-5.93-2.652-13.163.015-7.233 2.47-15.997 3.976-21.726 2.55-9.68 8.3-15.035 16.88-17.752 7.915-2.51 17.113-4.51 25.313-3.06 9.198 1.628 14.432 9.274 20.598 16.334 2.138 2.447 5.113 5.998 8.38 6.198 2.84.18 3.826-2.693 3.762-5.492-.197-9.264-7.324-18.086-13.346-23.472-13.464-12.037-31.76-15.8-47.21-6.53-6.81 4.095-13.45 9.605-18.382 16.37-5.37 7.376-7.75 16.225-9.692 25.366-.134.167-.71 3.472-.762 4.558-.06 1.376.028 2.614.17 3.88.18 1.624.343 4.086.958 5.833 0 0 .037.443.173.443.006.005.012.022.016.03-7.45 3.06-15.34 5.216-23.202 6.157-7.482.888-14.41 4.06-21.917 4.906-3.84.44-7.347 1.837-11.035 3.002-3.172.997-6.896 2.156-10.202 2.168-.93.01-2.323-.646-2.893.588-.7 1.526 1.238 2.505 2.28 2.748 1.833.42 4.532-.164 6.375-.607 5.192-1.24 10.38-2.766 15.658-3.32 10.26-1.084 20.082-3.962 30.163-6.197 5.573-1.237 11.117-.916 16.676-1.77 1.03 2.252 1.107 4.845 1.65 7.262.558 2.48 1.434 5.23 2.756 7.35 1.392 2.233 2.354 4.626 3.658 6.89 1.38 2.382 5.36 5.894 7.15 7.258-5.528 6.915-10.098 13.426-15.16 20.78-5.073 7.366-11.83 13.914-15.405 22.448-.827 1.98-2.42 6.815 1.017 6.33 3.39-.47 6.614-5.25 8.537-8.022 2.52-3.62 4.597-7.606 7.078-11.27 2.526-3.73 5.422-7.098 8.19-10.583 3.968-4.99 7.39-10.38 10.682-15.897.312.713 1.52 1.15 2.553 1.79 2.426 1.476 4.67 2.113 7.282 3 2.18.736 4.35 1.048 6.525 1.718 1.792.552 4.094-.042 5.838.74-.185 4.112-1.24 8.176-1.874 12.212-.55 3.51-.405 7.115-.972 10.763-.273 1.763-.28 4.035-.343 5.93-.066 1.902-.606 3.852-.782 5.805-.173 1.89-.776 3.696-1.083 5.677-.245 1.56.034 3.245-.163 4.864-.495 3.982-2.08 9.092-.89 12.98 2.882-.298 4.307-6.608 4.7-9.223.593-4.027 1.488-8.133 1.624-12.233.128-3.703 1.378-7.782 1.97-11.51.642-4.008.99-7.744 1.607-11.71.37-2.367.73-4.49.85-6.88.087-1.743.896-4.21.508-5.898 4.555-.315 9.865-1.23 13.826-4.357 2.288 5.974 3.798 11.897 6.29 17.716 5.57 12.978 4.898 14.767 7.746 13.148 2.517-1.43 2.16-2.396.176-8-.85-2.405-4.052-13.023-4.962-15.41-.882-2.298-2.3-4.35-3.023-6.726-.95-3.163.094-5.395 2.414-7.223 2.454-1.93 5.757-5.566 6.424-6.167.676-.603 3.284 6.472 5.574 9.053 3.924 4.433 4.594 5.922 7.357 4.142 3.518-2.262 2.29-3.815-.29-7.3-1.872-2.522-4.007-4.97-5.875-7.52-1.134-1.57-2.31-2.87-1.777-5.056.455-1.883 2.295-3.67 2.972-5.006.68-1.338.75-2.918 1.188-3.22.72-.505 1.823-.244 2.454.245 1.3 1.01 1.474.977 2.565 1.33 1.03.332 1.838.6 2.72 0 1.438-.978 1.54-4.338.07-4.756" fill="#fdc057"/><path d="M112.845 110.953c-.658 1.983 1.52 1.586 1.437-.467-.56-.56-.894-.44-1.31-.005l-.127.474z" fill="#388ecd"/><path d="M132.303 121.345c-3.18 1.004-7.27.96-10.58 1.258-.537-.567-1.705-.41-2.536-.667-.91-.282-1.528-.758-2.265-1.434-1.283-1.18-2.49-2.3-3.557-3.64-1.614-2.03-4.104-6.732-2.99-9.55.812-2.052 2.547-1.403 4.172-1.01 2.796.68 5.547 1.445 8.413 1.666 3.242.237 8.2-.967 10.362 2.226 2.196 3.248 3.458 9.74-1.02 11.15M106.797 106.4c-3.952 3.946-8.46-7.845-5.87-9.213 3.862-2.05 1.524 3.618 3.583 3.94 2.307.366 4.28 3.278 2.286 5.273m41.738-21.474c-3.017-7.773-9.298-11.54-16.555-11.86-3.634-.167-6.973.642-10.49 1.57-3.19.846-6.266.558-9.517.728-4.27.225-8.747 1.347-12.28 4.246-5.01 4.11-7.196 11.108-7.178 17.932.037 13.098 7.485 25.5 18.096 30.51 10.342 4.896 24.414 3.555 32.277-6.216 7.23-8.982 9.99-25.713 5.647-36.91" fill="#388ecd"/><path d="M122.67 117.443c.104.067 1.562.042 1.838.097.71.136 1.022.394 1.786.652 1.026.337 1.502.737 2.633-.516.998-1.097 1.61-2.66.682-4.09-1.238-.098-1.914.864-3.08 1.224-1.506.47-1.907-1.722-3.338-1.18-1.29.495-1.765 3.003-.522 3.813" fill="#388ecd"/></svg>