<?xml version="1.0" encoding="UTF-8" standalone="no"?>
<!-- Created with Inkscape (http://www.inkscape.org/) -->

<svg
   xmlns:dc="http://purl.org/dc/elements/1.1/"
   xmlns:cc="http://creativecommons.org/ns#"
   xmlns:rdf="http://www.w3.org/1999/02/22-rdf-syntax-ns#"
   xmlns:svg="http://www.w3.org/2000/svg"
   xmlns="http://www.w3.org/2000/svg"
   xmlns:sodipodi="http://sodipodi.sourceforge.net/DTD/sodipodi-0.dtd"
   xmlns:inkscape="http://www.inkscape.org/namespaces/inkscape"
   version="1.1"
   id="svg2"
   xml:space="preserve"
   width="400"
   height="128.73563"
   viewBox="0 0 400 128.73563"
   sodipodi:docname="pronto.svg"
   inkscape:version="0.92.1 r15371"><metadata
     id="metadata8"><rdf:RDF><cc:Work
         rdf:about=""><dc:format>image/svg+xml</dc:format><dc:type
           rdf:resource="http://purl.org/dc/dcmitype/StillImage" /><dc:title></dc:title></cc:Work></rdf:RDF></metadata><defs
     id="defs6"><clipPath
       clipPathUnits="userSpaceOnUse"
       id="clipPath20"><path
         d="M 0,224 H 696 V 0 H 0 Z"
         id="path18"
         inkscape:connector-curvature="0" /></clipPath></defs><sodipodi:namedview
     pagecolor="#ffffff"
     bordercolor="#666666"
     borderopacity="1"
     objecttolerance="10"
     gridtolerance="10"
     guidetolerance="10"
     inkscape:pageopacity="0"
     inkscape:pageshadow="2"
     inkscape:window-width="1280"
     inkscape:window-height="656"
     id="namedview4"
     showgrid="false"
     fit-margin-top="0"
     fit-margin-left="0"
     fit-margin-right="0"
     fit-margin-bottom="0"
     inkscape:zoom="2.82"
     inkscape:cx="200"
     inkscape:cy="64.367812"
     inkscape:window-x="0"
     inkscape:window-y="27"
     inkscape:window-maximized="1"
     inkscape:current-layer="g10" /><g
     id="g10"
     inkscape:groupmode="layer"
     inkscape:label="pronto"
     transform="matrix(1.3333333,0,0,-1.3333333,0,128.73563)"><g
       id="g84"
       transform="scale(0.43103449)"><path
         inkscape:connector-curvature="0"
         id="path12"
         style="fill:#120b0d;fill-opacity:1;fill-rule:nonzero;stroke:none"
         d="M 0,0 H 696 V 224 H 0 Z" /><g
         transform="translate(133.8606,165.3676)"
         id="g22"><path
           inkscape:connector-curvature="0"
           id="path24"
           style="fill:#ffffff;fill-opacity:1;fill-rule:nonzero;stroke:none"
           d="M 0,0 C 33.592,-0.357 63.775,-4.597 62.688,-18.688 61.103,-39.213 6.13,-49.644 -17.007,-50.873 -10.152,-30.367 -3.334,-9.974 0,0 m 112.097,-40.389 c -20.738,1.14 -33.145,-18.034 -33.145,-18.034 0,0 1.406,9.051 -7.954,10.236 8.46,5.865 14.077,13.555 14.82,23.631 C 88.411,10.58 40.201,21.819 -6.43,20.99 -33.359,20.511 -61.105,16.9 -77.253,12.457 -89.111,9.194 -90.345,-5.218 -72.491,-3.509 c 10.739,1.028 26.162,2.268 42.775,2.973 l -35.52,-103.187 c -2.333,-6.667 -2.583,-13.996 11.084,-14.829 13.667,-0.833 15.393,2.616 17.749,9.663 0.923,2.759 7.025,21.011 14.109,42.203 0.027,0 0.051,-10e-4 0.078,-10e-4 19.013,-0.002 51.816,1.358 76.318,10.14 -2.953,-12.333 -11.512,-48.097 -12.338,-51.676 -1,-4.333 -3.272,-11.112 9.256,-11.172 13.136,-0.062 12.872,1.078 16.91,9.839 6.012,13.041 23.96,49.74 34.5,50.333 6.843,0.07 2.929,-2.333 11.5,-2.333 10.471,0 12.345,7.983 12.834,10.667 0.489,2.683 1.826,9.691 -14.667,10.5" /></g><g
         transform="translate(551.4584,53.048)"
         id="g26"><path
           inkscape:connector-curvature="0"
           id="path28"
           style="fill:#ffffff;fill-opacity:1;fill-rule:nonzero;stroke:none"
           d="M 0,0 C -8.071,-0.33 -13.013,12.273 -11.568,20.94 -7.882,43.06 7.167,58.421 19.745,58.317 18.987,45.423 22.082,35.622 27.59,28.982 27.521,28.838 27.454,28.69 27.383,28.555 22.75,19.823 15.726,0.642 0,0 M 95.757,49.295 C 92.948,51.361 88.365,47.89 88.365,47.89 74.649,38.567 62.842,34.329 53.253,36.005 54.287,49.215 48.62,61.088 32.873,70.948 25.785,75.404 18.127,77.77 12.166,77.43 -17.666,75.732 -38.495,37.424 -37.668,17.93 c 0.059,-1.401 0.194,-2.747 0.398,-4.04 -4.371,-2.408 -11.285,-4.762 -17.721,-5.182 -6.92,-0.451 -11.773,2.696 -11.169,9.712 0.833,9.695 9.628,31.372 17.623,50.092 l 22.138,-0.408 c 13.031,0.347 9.375,15.624 -0.176,15.25 L -42.419,82.71 c 2.747,6.361 5.002,11.635 6.206,14.862 2.734,7.33 -8.256,13.111 -13.921,12.95 -5.665,-0.162 -10.687,-2.912 -12.628,-8.903 -0.622,-1.922 -4.338,-9.691 -8.954,-20.101 l -19.575,-0.796 c -10.26,-0.613 -9.809,-11.24 -0.263,-11.417 L -77.1,69.039 C -84.19,52.065 -91.461,32.137 -92.616,18.444 -95,15.088 -101.009,7.589 -107.003,7.743 c -3.549,0.091 -6.426,3.334 -5.915,8.27 0.742,7.178 5.813,17.625 6.996,26.323 2.381,17.511 -17.681,24.456 -28.881,24.176 -15.406,-0.385 -26.332,-11.451 -35,-18.76 0,0 2.957,10.635 4.401,16.672 2.753,11.513 -16.603,15.56 -21.061,2.788 -3.24,-9.282 -19.301,-57.315 -22.047,-63.378 -6.233,-13.762 19.028,-21.359 25.176,-7.153 4.303,9.942 42.043,62.221 48.951,51.211 4.48,-7.14 -10.5,-29.96 -9.52,-38.22 1.263,-10.66 8.723,-16.006 23.1,-16.52 16.143,-0.576 22.865,3.478 29.738,12.084 3.762,-10.432 12.122,-13.039 22.8,-13.039 19.288,0 28.458,7.409 34.063,12.468 6.756,-12.521 22.355,-17.391 38.3,-16.797 19.728,0.735 37.312,12.649 44.98,30.81 14.441,-0.704 31.63,7.235 45.349,24.186 0,0 4.139,4.364 1.33,6.431" /></g><g
         transform="translate(255.2692,111.8117)"
         id="g30"><path
           inkscape:connector-curvature="0"
           id="path32"
           style="fill:#51b848;fill-opacity:1;fill-rule:nonzero;stroke:none"
           d="m 0,0 c 27.939,30.917 64.974,17.712 80.471,-10.988 5.388,-9.935 20.69,-3.577 13.409,8.46 C 70.189,33.75 21.939,37.833 0,0" /></g><g
         transform="translate(306.0843,124.3117)"
         id="g34"><path
           inkscape:connector-curvature="0"
           id="path36"
           style="fill:#ed1c24;fill-opacity:1;fill-rule:nonzero;stroke:none"
           d="m 0,0 c -43.877,1.394 -51.46,-39.364 -36.793,-68.833 4.416,-9.508 -8.42,-19 -15.917,-1.584 C -67.46,-31.25 -43.46,9.5 0,0" /></g><g
         transform="translate(289.4626,51.0313)"
         id="g38"><path
           inkscape:connector-curvature="0"
           id="path40"
           style="fill:#fdb912;fill-opacity:1;fill-rule:nonzero;stroke:none"
           d="m 0,0 c 29.578,-5.97 51.078,14.614 41.495,47.28 -2.5,8.75 9.917,15.084 12.667,4.917 C 64.995,11.364 29.995,-15.72 0,0" /></g><g
         transform="translate(336.7494,53.4367)"
         id="g42"><path
           inkscape:connector-curvature="0"
           id="path44"
           style="fill:#024ea2;fill-opacity:1;fill-rule:nonzero;stroke:none"
           d="m 0,0 c -27.75,-22.75 -58.5,-4.25 -66.75,21.375 -2.875,8.875 -17,6.25 -12.875,-4.625 C -65.375,-15.475 -23.75,-28.75 0,0" /></g></g></g></svg>