<svg xmlns="http://www.w3.org/2000/svg" width="400" height="147.729"><defs><clipPath id="a"><path d="M197.28 47.087h68.14v25.166h-68.14V47.087z"/></clipPath></defs><g clip-path="url(#a)" transform="matrix(5.9 0 0 -5.9 -1158.1 424.1)"><path d="M197.28 60.455s13.74 6.014 29.738 8.176c15.997 2.163 36.284 1 36.284 1s.9-14.485-11.705-14.155c-12.605.33-21.688-1.672-29.735-3.264-8.047-1.592-19.603-4.678-24.582 8.245" fill="#e2cda0"/><path d="M263.58 65.4s3.32-7.99 1.044-13.24c0 0-41.634-.323-61.23-5.073 0 0-4.817 1.674-5.073 10.023 0 0 2.3-5.437 7.583-6.768 5.284-1.332 14.437.68 19.287 1.824 4.85 1.146 16.396 3.075 22.753 2.448 6.357-.63 16.004.862 15.637 10.786" fill="#e2cda0"/><path d="M210.93 67.85c-.73-.012-1.108-.33-1.13-.954-.017-.5.23-.76.744-.78.07-.002.164.003.288.016l.1 1.718zm2.98 2.713l-.85-9.592c-.016-.185-.128-.286-.336-.3h-.364c-.62-.012-.957-.017-1.008-.014-.57.02-.847.16-.833.418l.182 3.022c-.257-.076-.537-.108-.84-.098-.928.033-1.673.372-2.232 1.017-.544.63-.798 1.417-.765 2.354.036 1.022.427 1.844 1.17 2.464.716.59 1.59.868 2.626.83.18-.005.324-.018.433-.04.016.332.143.49.38.472l2.137-.152c.22-.017.32-.144.3-.38M220.797 62.196c-.008-.217-.124-.32-.35-.313l-1.94.07c-.222.007-.328.15-.318.424-.43-.325-.917-.477-1.464-.458-.943.033-1.624.433-2.043 1.2-.34.62-.49 1.433-.456 2.44.02.55.074 1.308.164 2.27.013.237.043.594.09 1.068.03.233.263.342.7.326.186-.007.565-.054 1.136-.142l.457-.077c.202-.036.3-.146.294-.333-.013-.357-.038-.893-.076-1.606-.038-.714-.063-1.25-.075-1.607-.027-.766.13-1.154.47-1.166.402-.015.692.18.867.587l.077 3.594c.004.276.362.402 1.07.377.14-.004.35-.016.627-.034.278-.018.487-.03.627-.034.233-.01.346-.126.34-.35l-.197-6.236zM225.242 68.016c.014.393-.153.596-.5.608-.438.015-.72-.343-.848-1.074l1.28-.007c.04.174.064.332.068.473m1.748-4.14c-.006-.153-.265-.29-.78-.412-.43-.104-.758-.15-.987-.143-1.108.04-1.997.38-2.667 1.02-.7.666-1.03 1.545-.99 2.636.035 1.032.29 1.933.764 2.702.57.932 1.33 1.38 2.28 1.348 1.727-.06 2.554-1.145 2.48-3.25-.01-.234-.09-.57-.247-1.012-.18-.513-.354-.764-.524-.753l-2.43.182c.153-.6.563-.912 1.23-.936.284-.01.752.08 1.405.27.03.007.067.01.11.008.173-.006.277-.12.312-.343.004-.003.01-.182.02-.535.014-.53.022-.79.023-.778M234.03 67.954c0-.073-.184-.317-.547-.733-.324-.378-.55-.626-.677-.74-.083-.074-.167-.11-.253-.106-.016 0-.238.13-.664.384-.428.255-.824.39-1.19.402-.147.005-.223-.032-.226-.113 0-.05.14-.14.424-.264 1.03-.44 1.687-.76 1.97-.957.683-.49 1.012-1.092.987-1.81-.054-1.534-1.107-2.265-3.158-2.193-.496.018-1.013.15-1.548.4-.578.268-.996.59-1.254.97-.05.07-.072.15-.07.24.005.09.032.16.086.214l1.14 1.206c.07.073.154.11.252.105.03 0 .258-.13.684-.39.426-.26.778-.394 1.053-.404.227-.008.34.047.346.166.002.064-.136.148-.413.25-1.052.4-1.724.7-2.014.903-.656.456-.97 1.08-.943 1.872.025.67.4 1.224 1.125 1.658.638.39 1.31.572 2.02.547.506-.018 1.022-.153 1.548-.405.56-.262.98-.588 1.254-.975.05-.07.072-.146.068-.226M237.247 68.435l-.303-5.16c-.012-.217-.12-.328-.325-.333-.712-.017-1.177-.023-1.398-.015-.56.02-.833.162-.82.425l.26 5.213c.013.204.127.308.344.313.515.007.952.005 1.313-.01.632-.02.94-.165.927-.433m.235 2.115c-.015-.412-.175-.757-.478-1.035-.304-.28-.662-.41-1.074-.396-.418.014-.772.173-1.063.477-.292.303-.43.663-.416 1.08.015.41.176.756.48 1.034.308.28.667.412 1.08.397.417-.015.77-.174 1.06-.477.288-.304.426-.664.412-1.08M240.82 70.882l-.36-8.36c-.007-.207-.11-.316-.31-.326-.955-.05-1.474-.075-1.56-.073-.492.018-.733.156-.724.415l.3 8.438c.006.225.114.334.32.327l2.034-.072c.212-.007.313-.123.3-.348M244.497 71.832l-.36-8.36c-.008-.207-.11-.316-.31-.326-.956-.05-1.475-.075-1.56-.072-.493.017-.734.155-.724.414l.298 8.438c.01.225.116.334.324.327l2.035-.072c.21-.007.31-.123.297-.348M248.57 64.57c.018.528-.196.8-.642.816-.22.008-.4-.11-.542-.356-.113-.204-.174-.428-.183-.673-.018-.52.188-.79.622-.804.242-.008.43.106.567.342.11.187.168.412.177.674m2.49-.027c-.034-.982-.29-1.78-.766-2.397-.54-.7-1.282-1.032-2.228-1-1.03.037-1.83.36-2.408.97-.578.61-.85 1.427-.813 2.455.037 1.054.284 1.9.74 2.544.537.755 1.31 1.115 2.315 1.08 1.035-.038 1.836-.4 2.403-1.087.542-.658.794-1.513.758-2.564M257.495 67.4c-.002-.073-.186-.317-.55-.733-.323-.38-.55-.627-.675-.74-.084-.075-.17-.11-.253-.107-.018 0-.24.128-.667.384-.425.255-.822.39-1.186.402-.15.005-.225-.033-.228-.113 0-.05.14-.14.424-.265 1.03-.44 1.687-.76 1.97-.956.683-.49 1.012-1.092.987-1.81-.055-1.535-1.107-2.265-3.157-2.193-.497.017-1.013.15-1.55.4-.576.267-.994.59-1.253.97-.048.07-.07.15-.068.24.002.088.03.16.084.213l1.14 1.206c.07.073.154.108.252.105.03 0 .257-.132.684-.39.426-.26.777-.395 1.054-.405.225-.008.34.048.343.166.002.064-.135.148-.412.25-1.052.4-1.725.7-2.014.902-.654.457-.968 1.082-.94 1.872.023.672.397 1.225 1.124 1.658.638.39 1.312.573 2.02.548.505-.017 1.02-.153 1.55-.405.56-.262.977-.586 1.252-.975.048-.07.07-.145.07-.225" fill="#005289"/><path d="M214.266 51.4c-.023.57-.63.875-1.824.918l.088-2.114c1.186.093 1.765.49 1.736 1.196m-.185 4.476c-.028.704-.638 1.048-1.827 1.03l.087-2.112c1.184.145 1.765.506 1.74 1.082m3.8-4.545c.066-1.6-.822-2.734-2.666-3.397-1.102-.4-2.688-.645-4.76-.73l-1.433-.06c-.29-.01-.44.128-.452.418l-.483 11.663c-.01.284.128.432.418.444l1.4.06c2.083.085 3.69-.024 4.82-.327 1.903-.51 2.89-1.566 2.955-3.174.04-.968-.38-1.8-1.254-2.5.93-.63 1.416-1.427 1.457-2.395M223.587 54.67c-.03.694-.447 1.09-1.253 1.193l.075-2.598c.813.243 1.205.712 1.177 1.406m4.635-6.392c.01-.273-.12-.422-.394-.444l-3.083-.265c-.16-.013-.29.044-.387.17l-1.864 2.29c.006-.14.023-.35.05-.625.028-.278.044-.485.05-.624.028-.673-.113-1.034-.423-1.084-.176-.024-.445-.062-.803-.114-.797-.135-1.345-.208-1.646-.22-.613-.026-.928.122-.947.444l-.504 11.016c-.01.2.09.34.297.424.386.16 1.25.27 2.587.325 2.27.094 3.92-.4 4.958-1.482.736-.773 1.128-1.702 1.173-2.788.062-1.49-.482-2.73-1.632-3.72l2.46-3.04c.07-.09.104-.176.11-.262M233.683 54.806l-.525 2.354-.402-2.392.927.038zm4.928-4.7c.014-.296-.123-.446-.408-.453l-3.01-.076c-.28-.006-.495.303-.644.927-.066.433-.136.864-.207 1.292l-2.08-.086-.13-1.17c-.094-.563-.274-.85-.537-.86l-3.016-.126c-.114-.005-.218.035-.312.12-.096.085-.145.184-.15.297 0 .028 0 .055.005.082l2.037 10.885c.04.233.177.355.414.365l4.71.195c.232.01.38-.1.442-.33l2.888-11.013v-.048M247.77 59.708c0-.006-.003-.028-.013-.065l-1.94-10.34c-.044-.234-.18-.355-.413-.365l-4.71-.195c-.226-.01-.368.1-.425.33L237.63 59.32c0 .006 0 .022-.003.05-.012.29.124.44.41.453l3.01.067c.23.01.373-.105.427-.345l1.357-6.48 1.07 6.58c.038.233.165.354.38.363l3.025.14c.293.018.448-.13.46-.44M255.14 54.708c-.023.59-.203 1.117-.533 1.578-.383.518-.854.764-1.412.74-.56-.022-1.006-.31-1.338-.862-.286-.48-.42-1.017-.394-1.608.024-.586.2-1.106.525-1.562.377-.523.844-.773 1.404-.75.56.024 1.01.31 1.345.856.293.486.427 1.022.403 1.608m3.57.237c.065-1.58-.35-2.966-1.243-4.156-.96-1.28-2.208-1.95-3.745-2.014-1.796-.073-3.23.424-4.303 1.495-1.046 1.04-1.605 2.463-1.68 4.27-.074 1.768.39 3.268 1.39 4.5 1.04 1.282 2.433 1.96 4.18 2.03 1.565.066 2.865-.567 3.9-1.898.932-1.194 1.433-2.603 1.5-4.227" fill="#083d7a"/></g></svg>