<?xml version="1.0" encoding="UTF-8" standalone="no"?>
<!-- Generator: Adobe Illustrator 19.0.0, SVG Export Plug-In . SVG Version: 6.00 Build 0)  -->

<svg
   xmlns:dc="http://purl.org/dc/elements/1.1/"
   xmlns:cc="http://creativecommons.org/ns#"
   xmlns:rdf="http://www.w3.org/1999/02/22-rdf-syntax-ns#"
   xmlns:svg="http://www.w3.org/2000/svg"
   xmlns="http://www.w3.org/2000/svg"
   xmlns:sodipodi="http://sodipodi.sourceforge.net/DTD/sodipodi-0.dtd"
   xmlns:inkscape="http://www.inkscape.org/namespaces/inkscape"
   version="1.1"
   id="Capa_1"
   x="0px"
   y="0px"
   viewBox="0 0 400.00001 325.49509"
   xml:space="preserve"
   sodipodi:docname="quickbox.svg"
   width="400"
   height="325.49509"
   inkscape:version="0.92.1 r15371"><metadata
     id="metadata88"><rdf:RDF><cc:Work
         rdf:about=""><dc:format>image/svg+xml</dc:format><dc:type
           rdf:resource="http://purl.org/dc/dcmitype/StillImage" /><dc:title></dc:title></cc:Work></rdf:RDF></metadata><defs
     id="defs86" /><sodipodi:namedview
     pagecolor="#ffffff"
     bordercolor="#666666"
     borderopacity="1"
     objecttolerance="10"
     gridtolerance="10"
     guidetolerance="10"
     inkscape:pageopacity="0"
     inkscape:pageshadow="2"
     inkscape:window-width="1280"
     inkscape:window-height="656"
     id="namedview84"
     showgrid="false"
     fit-margin-top="0"
     fit-margin-left="0"
     fit-margin-right="0"
     fit-margin-bottom="0"
     inkscape:zoom="0.19666667"
     inkscape:cx="585.6"
     inkscape:cy="476.49999"
     inkscape:window-x="0"
     inkscape:window-y="27"
     inkscape:window-maximized="1"
     inkscape:current-layer="Capa_1" /><g
     id="XMLID_17_"
     transform="matrix(0.34155922,0,0,0.34155922,-4.9184528,-42.193428)"><g
       id="XMLID_163_"><path
         id="XMLID_181_"
         d="m 199.9,905.4 c 0,9.9 -1.4,19.2 -4.2,28.1 -2.8,8.8 -6.8,17 -11.9,24.5 l 16.1,16.3 v 43.4 l -92.8,-92.8 v -43.4 l 54.6,54.3 c 5.1,-9.2 7.7,-19.3 7.7,-30.3 0,-8.3 -1.5,-16.2 -4.6,-23.7 -3.1,-7.5 -7.6,-14.2 -13.5,-20.1 -6,-5.9 -12.7,-10.5 -20.1,-13.6 -7.5,-3.1 -15.5,-4.7 -24,-4.7 -8.3,0 -16.2,1.6 -23.7,4.7 -7.5,3.1 -14.2,7.7 -20.1,13.6 -6,6 -10.5,12.7 -13.5,20.1 -3.1,7.5 -4.6,15.4 -4.6,23.7 0,8.3 1.5,16.3 4.6,23.8 3.1,7.6 7.6,14.3 13.5,20.3 6,6 12.7,10.5 20.1,13.5 7.5,3.1 15.4,4.6 23.7,4.6 2.2,0 4.4,-0.1 6.5,-0.4 2.1,-0.3 4.2,-0.6 6.2,-0.9 l 24.2,24.2 c -5.6,2.4 -11.5,4.3 -17.7,5.6 -6.2,1.4 -12.6,2 -19.3,2 -12.8,0 -24.8,-2.4 -36.1,-7.3 C 59.7,986.1 49.9,979.4 41.5,971 33.2,962.6 26.6,952.7 21.7,941.4 c -4.8,-11.3 -7.3,-23.3 -7.3,-36.1 0,-12.8 2.4,-24.8 7.3,-36.1 4.8,-11.3 11.4,-21.2 19.8,-29.6 8.3,-8.4 18.1,-15 29.5,-19.9 11.3,-4.8 23.3,-7.3 36.1,-7.3 12.9,0 25,2.4 36.2,7.3 11.2,4.8 21,11.5 29.5,19.9 8.4,8.4 15,18.3 19.9,29.6 4.8,11.5 7.2,23.5 7.2,36.2 z"
         inkscape:connector-curvature="0"
         style="fill:#051322" /><path
         id="XMLID_179_"
         d="m 348.8,867.4 v 127.5 h -30.6 v -9.7 c -4.6,3.9 -9.8,7.1 -15.6,9.6 -5.8,2.5 -12.2,3.7 -19.4,3.7 -8.3,0 -15.9,-1.6 -22.7,-4.7 -6.8,-3.1 -12.6,-7.4 -17.5,-12.9 -4.8,-5.4 -8.6,-11.8 -11.2,-19.1 -2.6,-7.3 -4,-15.1 -4,-23.5 v -70.9 h 30.6 v 70.9 c 0,8 3,15 8.9,20.9 5.8,5.8 12.7,8.7 20.9,8.7 8.3,0 15.4,-2.9 21.2,-8.7 5.8,-5.8 8.7,-12.8 8.7,-20.9 v -70.9 z"
         inkscape:connector-curvature="0"
         style="fill:#051322" /><path
         id="XMLID_176_"
         d="M 379.4,816.4 H 410 V 847 h -30.6 z m 0,178.5 V 867.4 H 410 v 127.5 z"
         inkscape:connector-curvature="0"
         style="fill:#051322" /><path
         id="XMLID_174_"
         d="m 548,978.6 c -6.1,6.1 -13.3,10.9 -21.4,14.4 -8.2,3.5 -16.9,5.2 -26.3,5.2 -9.4,0 -18.1,-1.7 -26.3,-5.2 -8.2,-3.5 -15.3,-8.3 -21.4,-14.4 -6.1,-6.1 -10.9,-13.3 -14.4,-21.4 -3.5,-8.2 -5.2,-16.8 -5.2,-26 0,-9.3 1.7,-18.1 5.2,-26.3 3.5,-8.2 8.3,-15.3 14.4,-21.4 6.1,-6.1 13.3,-10.9 21.4,-14.4 8.2,-3.5 16.9,-5.2 26.3,-5.2 9.3,0 18.1,1.7 26.3,5.2 8.2,3.5 15.3,8.3 21.4,14.4 l -21.7,21.7 c -7.1,-7.1 -15.8,-10.7 -26,-10.7 -9.9,0 -18.5,3.6 -26,10.7 -7.1,7.1 -10.7,15.8 -10.7,26 0,10 3.6,18.6 10.7,25.8 3.6,3.6 7.6,6.2 12,8 4.4,1.8 9.1,2.7 14,2.7 10.4,0 19,-3.6 26,-10.7 z"
         inkscape:connector-curvature="0"
         style="fill:#051322" /><path
         id="XMLID_172_"
         d="M 623.2,931.2 687,995 H 643.9 L 601.6,952.7 V 995 H 571 V 816.4 h 30.6 v 93.1 l 42.1,-42.1 H 687 Z"
         inkscape:connector-curvature="0"
         style="fill:#051322" /><path
         id="XMLID_169_"
         d="m 832.6,899.6 c 6.8,4.8 12.2,10.9 16.3,18.4 4.1,7.5 6.1,15.6 6.1,24.5 v 0.5 c 0,7.1 -1.4,13.9 -4.1,20.3 -2.7,6.4 -6.5,11.9 -11.2,16.6 -4.8,4.7 -10.3,8.4 -16.6,11.1 -6.3,2.7 -13,4.1 -20.1,4.1 h -50.8 l 12.2,-30.6 H 803 c 5.9,0 11,-2.1 15.2,-6.2 4.2,-4.2 6.2,-9.2 6.2,-15.2 v -0.5 c 0,-6 -2.1,-11 -6.2,-15.2 -4.2,-4.2 -9.2,-6.2 -15.2,-6.2 h -12.5 -50 v 43.4 30.6 h -30.6 v -74 -30.6 -74 h 80.6 c 7.1,0 13.9,1.4 20.3,4.1 6.4,2.7 11.9,6.5 16.6,11.2 4.7,4.8 8.4,10.3 11.1,16.6 2.7,6.3 4.1,13 4.1,20.1 v 0.5 c 0,5.8 -0.9,11.3 -2.7,16.4 -1.8,5.1 -4.2,9.8 -7.3,14.1 z m -20.7,-31.1 c 0,-6 -2.1,-11 -6.2,-15.2 -4.2,-4.2 -9.2,-6.2 -15.2,-6.2 h -50 v 43.4 h 50 c 5.9,0 11,-2.1 15.2,-6.2 4.2,-4.2 6.2,-9.2 6.2,-15.2 z"
         inkscape:connector-curvature="0"
         style="fill:#051322" /><path
         id="XMLID_166_"
         d="m 940.2,863.9 c 9.3,0 18.1,1.7 26.3,5.2 8.2,3.5 15.3,8.3 21.4,14.4 6.1,6.1 10.9,13.3 14.4,21.4 3.5,8.2 5.2,16.9 5.2,26.3 0,9.2 -1.7,17.9 -5.2,26 -3.5,8.2 -8.3,15.3 -14.4,21.4 -6.1,6.1 -13.3,10.9 -21.4,14.4 -8.2,3.5 -16.9,5.2 -26.3,5.2 -9.4,0 -18.1,-1.7 -26.3,-5.2 -8.2,-3.5 -15.3,-8.3 -21.4,-14.4 -6.1,-6.1 -10.9,-13.3 -14.4,-21.4 -3.5,-8.2 -5.2,-16.8 -5.2,-26 0,-9.3 1.7,-18.1 5.2,-26.3 3.5,-8.2 8.3,-15.3 14.4,-21.4 6.1,-6.1 13.3,-10.9 21.4,-14.4 8.2,-3.5 17,-5.2 26.3,-5.2 z m 0,30.6 c -10.2,0 -18.9,3.6 -26,10.7 -7.1,7.1 -10.7,15.8 -10.7,26 0,10 3.6,18.6 10.7,25.8 3.4,3.6 7.4,6.2 11.9,8 4.5,1.8 9.2,2.7 14.2,2.7 4.9,0 9.6,-0.9 14,-2.7 4.4,-1.8 8.4,-4.5 12,-8 7.1,-7.1 10.7,-15.7 10.7,-25.8 0,-10.2 -3.6,-18.9 -10.7,-26 -7.6,-7.2 -16.2,-10.7 -26.1,-10.7 z"
         inkscape:connector-curvature="0"
         style="fill:#051322" /><path
         id="XMLID_164_"
         d="m 1113.6,934.5 49,60.4 h -39.3 l -29.3,-38.8 -29.3,38.8 h -39.3 l 49,-60.4 -54.1,-66.8 h 39.3 l 34.4,44.9 34.4,-44.9 h 39.3 z"
         inkscape:connector-curvature="0"
         style="fill:#051322" /></g><g
       id="XMLID_160_"><g
         id="XMLID_161_"><path
           id="XMLID_48_"
           d="m 312.7,430.3 c 0.4,0.2 1.3,2.8 1.6,3.3 1.7,3 3.9,5.8 6.2,8.4 3.8,4.2 8.2,7.8 12.8,10.9 6.4,4.3 12.5,7.2 19.9,8.8 20.9,4.6 42.5,12.9 59,26.9 0,0 -10.7,-17.4 -11.5,-18.6 -0.8,-1.2 -27,-15.5 -27,-15.5 0,0 -61,-24.2 -61,-24.2 z"
           inkscape:connector-curvature="0"
           style="fill:#c2d7e9" /></g></g><g
       id="XMLID_157_"><g
         id="XMLID_158_"><path
           id="XMLID_47_"
           d="m 665.7,422.2 c -0.1,-0.1 4,-23.5 4.2,-24.4 3,-12.7 5.1,-25.7 6.2,-38.7 2.7,-31.7 -5,-66.8 -27.2,-91.6 -10.5,-11.8 -23.4,-20.8 -36,-30.2 -20.4,-15.3 -41,-30.5 -58.2,-49.6 -16.4,-18.2 -30.4,-38.4 -44.5,-58.4 -0.3,-0.4 -0.5,-0.7 -0.8,-1.1 0,0 -19.6,75 19.1,130.2 0,0 -12,43.9 21.8,68.6 0.5,0.3 0.3,5.3 0.4,5.9 0.6,5 1.9,9.9 3.6,14.7 5.7,15.1 17,26.4 31.5,33.3 25.1,11.9 49.5,25.5 74.2,38.3 1.9,1 3.8,2.1 5.7,3 z"
           inkscape:connector-curvature="0"
           style="fill:#8dc3e7" /></g></g><g
       id="XMLID_154_"><g
         id="XMLID_155_"><path
           id="XMLID_46_"
           d="m 560.3,324.7 c 0,0 1.2,12.5 25.2,15.8 0,0 27.2,1.8 50.4,25.6 l -7.8,-13.6 -28.1,-16.2 -15,-5.2 z"
           inkscape:connector-curvature="0"
           style="fill:#c2d7e9" /></g></g><g
       id="XMLID_151_"><g
         id="XMLID_152_"><path
           id="XMLID_45_"
           d="m 532.6,255.8 c 0.4,0.2 1.3,2.8 1.6,3.3 1.7,3 3.9,5.8 6.2,8.4 3.8,4.2 8.2,7.8 12.8,10.9 6.4,4.3 12.5,7.2 19.9,8.8 20.9,4.6 42.5,12.9 59,26.9 0,0 -10.7,-17.4 -11.5,-18.6 -0.8,-1.2 -27,-15.5 -27,-15.5 z"
           inkscape:connector-curvature="0"
           style="fill:#c2d7e9" /></g></g><path
       id="XMLID_147_"
       d="m 652.5,264.4 c -9.6,-10.7 -21.1,-19.2 -32.2,-27.5 l -7,-5.2 C 594.2,217.4 574.4,202.5 558.2,184.6 543,167.7 529.6,148.7 516.6,130.3 l -3.4,-4.8 c -1.1,-1.5 -3,-2.2 -4.7,-1.9 -1.8,0.3 -3.3,1.7 -3.7,3.5 -0.8,3.1 -19.3,76.3 18.5,132.4 -2,9.5 -7.7,46.8 22.5,70.3 0,0.7 0,1.5 0,1.9 0,0.9 0,1.7 0.1,2 0.7,5.3 2,10.6 3.9,15.8 6,15.8 17.7,28.2 33.9,35.9 17.4,8.3 34.8,17.5 51.6,26.4 7.5,4 15,7.9 22.4,11.8 l 1.8,1 c 1.3,0.7 2.6,1.4 4,2 0.9,0.4 1.9,0.6 2.9,0.4 1.4,-0.3 2.8,-1.2 3.4,-2.6 0.3,-0.6 0.4,-1.2 0.5,-1.8 0.3,-2.4 3.8,-22 4.1,-23.6 3.1,-13.3 5.3,-26.5 6.4,-39.4 3.2,-36.9 -7.2,-71.6 -28.3,-95.2 z m 9.5,150.5 c 0,-0.1 0.1,-0.1 0.1,-0.2 0,0.1 0,0.2 -0.1,0.2 0,0 0,0 0,0 z m 9.4,-56.2 c -1,12.4 -3.1,25.2 -6.1,38 -0.1,0.4 -0.5,2.8 -1,5.5 -2.3,-1 -4.5,-2 -4.7,-2.1 -10.9,-5.3 -21.9,-10.5 -32.8,-15.9 -9.2,-4.5 -18.6,-8.2 -27.4,-13.5 -9,-5.4 -17.5,-11.7 -24.7,-19.4 -4.8,-5.1 -9.1,-10.9 -11.4,-17.6 -0.6,-1.6 -1,-3.3 -1.2,-5.1 0,-0.3 0.1,-1.5 -0.1,-1.8 2.4,3.4 7.9,4.9 11.6,6.1 4.5,1.5 9.1,2.5 13.7,3.5 9.5,2 18.8,4.7 27,10.1 7.8,5.1 14.5,11.7 20.8,18.6 0.5,0.6 1.1,1.2 1.8,1.4 0.7,0.3 1.7,0 2,-0.7 0.1,-0.3 0.1,-0.7 0.1,-1.1 -0.5,-4.4 -2.4,-8.5 -5,-12.1 -6.3,-8.7 -16,-14.7 -25.4,-19.4 -10.3,-5.2 -21.4,-9.3 -32.6,-12.1 -37.7,-10.1 -42.2,-51.3 -42.8,-62 0.2,-0.7 0.1,-1.5 -0.1,-2.2 0,-0.2 0,-0.3 0,-0.3 26,28.2 71.9,22.9 96.2,53.5 0.3,0.4 8.8,11.9 8.3,5.7 -2.3,-28.9 -43.1,-42.1 -43.1,-42.1 -36.8,-10.6 -54.8,-25.6 -67.8,-49.6 -13.3,-24.5 -15.8,-56 -14.1,-83.5 12,17 24.5,34.3 38.7,50 16.8,18.7 36.9,33.8 56.4,48.4 l 7,5.2 c 10.7,8 21.8,16.2 30.7,26.2 19.4,22 28.9,54.1 26,88.3 z"
       inkscape:connector-curvature="0"
       style="fill:#002c68" /><g
       id="XMLID_144_"><g
         id="XMLID_145_"><path
           id="XMLID_41_"
           d="m 512.6,140.9 c 0,0 32.4,46.3 47.5,58.9 0,0 9.1,10.9 32.4,28.3 0,0 38,27.9 40.8,30.9 0,0 15.7,13.9 20.9,23.8 0,0 10.2,15.1 14.1,32.9 0,0 6.8,27.2 1.9,52.6 7,-36.9 -21.2,-85.1 -48.1,-108.2 -20,-17.1 -44.8,-27.9 -63.3,-47 -9.2,-9.5 -17.7,-19.8 -25.1,-30.9 -4.3,-6.4 -8.2,-13 -11.8,-19.9 -3.4,-6.6 -5.2,-15.6 -9.3,-21.4 z"
           inkscape:connector-curvature="0"
           style="fill:#c2d7e9" /></g></g><g
       id="XMLID_121_"><path
         id="XMLID_142_"
         d="m 803.1,1023.4 29,45.6 v -45.6 h 3.8 v 52.1 h -3.8 l -29,-45.5 v 45.5 h -3.8 v -52.1 z"
         inkscape:connector-curvature="0"
         style="fill:#0f1c27" /><path
         id="XMLID_140_"
         d="m 853,1023.4 v 52.1 h -3.8 v -52.1 z"
         inkscape:connector-curvature="0"
         style="fill:#0f1c27" /><path
         id="XMLID_138_"
         d="m 888.9,1022.5 c 7.5,0 13.2,2.7 16.9,5.4 l -1.9,3.2 c -3.3,-2.7 -8.6,-4.9 -14.6,-4.9 -14.1,0 -23.5,10.5 -23.5,23.3 0,12.8 9.3,23.3 23.5,23.3 6.1,0 11.3,-2.1 14.6,-4.9 l 1.9,3.2 c -3.7,2.8 -9.4,5.4 -16.9,5.4 -15.7,0 -27.3,-11.9 -27.3,-27 0,-15.1 11.7,-27 27.3,-27 z"
         inkscape:connector-curvature="0"
         style="fill:#0f1c27" /><path
         id="XMLID_135_"
         d="m 932.4,1023.4 20.5,52.1 h -4.1 l -6.7,-17.5 h -22.9 l -6.7,17.5 h -4.1 l 20.5,-52.1 z m 8.4,31.3 -10.2,-26.3 -10.2,26.3 z"
         inkscape:connector-curvature="0"
         style="fill:#0f1c27" /><path
         id="XMLID_132_"
         d="m 971.9,1023.4 c 10.2,0 16.4,5.6 16.4,14.5 0,8.3 -5.4,14.2 -14.5,14.9 l 17.4,22.7 h -4.8 l -17,-22.5 h -6.5 v 22.5 h -3.8 v -52.1 z m -9,26.4 h 8.2 c 8.2,0 13.4,-4.7 13.4,-11.8 0,-7.1 -5.2,-11.5 -13.4,-11.5 h -8.2 z"
         inkscape:connector-curvature="0"
         style="fill:#0f1c27" /><path
         id="XMLID_129_"
         d="m 1016.5,1023.4 20.5,52.1 h -4.1 l -6.7,-17.5 h -22.9 l -6.7,17.5 h -4.1 l 20.5,-52.1 z m 8.4,31.3 -10.2,-26.3 -10.2,26.3 z"
         inkscape:connector-curvature="0"
         style="fill:#0f1c27" /><path
         id="XMLID_127_"
         d="m 1066,1022.5 c 9.2,0 15.6,3.4 20.1,8.9 l -2.5,2.7 c -4,-5.1 -9.8,-8.2 -17.5,-8.2 -12.3,0 -21.8,10.5 -21.8,23.7 0,12.9 10,23.5 21.8,23.5 10.3,0 20.1,-6.9 20.1,-17.8 v -2 H 1066 v -3.2 h 24.1 v 4 c 0,13.9 -11.1,22.4 -24.1,22.4 -14,0 -25.4,-12.1 -25.4,-27 0,-14.9 10.7,-27 25.4,-27 z"
         inkscape:connector-curvature="0"
         style="fill:#0f1c27" /><path
         id="XMLID_125_"
         d="m 1103.7,1023.4 v 32.7 c 0,11.1 4.7,16.7 14,16.7 9.2,0 14,-5.6 14,-16.7 v -32.7 h 3.8 v 33.4 c 0,12.9 -6.3,19.7 -17.7,19.7 -11.4,0 -17.7,-6.8 -17.7,-19.7 v -33.4 z"
         inkscape:connector-curvature="0"
         style="fill:#0f1c27" /><path
         id="XMLID_122_"
         d="m 1165,1023.4 20.5,52.1 h -4.1 l -6.7,-17.5 h -22.9 l -6.7,17.5 h -4.1 l 20.5,-52.1 z m 8.4,31.3 -10.2,-26.3 -10.2,26.3 z"
         inkscape:connector-curvature="0"
         style="fill:#0f1c27" /></g><g
       id="XMLID_116_"><path
         style="fill:#ba2b31"
         d="M 548.7,754.7 V 541.6 l -208.4,-109 v 211.3 z"
         id="XMLID_96_"
         inkscape:connector-curvature="0" /></g><g
       id="XMLID_112_"><path
         id="XMLID_113_"
         d="m 548.7,760.4 c -0.9,0 -1.8,-0.2 -2.7,-0.7 L 337.7,648.9 c -1.9,-1 -3,-2.9 -3,-5 V 432.6 c 0,-2 1,-3.8 2.7,-4.9 1.7,-1 3.8,-1.1 5.6,-0.2 l 208.4,108.9 c 1.9,1 3.1,2.9 3.1,5 v 213.1 c 0,2 -1,3.8 -2.8,4.9 -0.9,0.7 -1.9,1 -3,1 z M 346,640.5 543,745.3 V 545 L 346,442 Z"
         inkscape:connector-curvature="0"
         style="fill:#051322" /></g><g
       id="XMLID_110_"><path
         style="fill:#ba2b31"
         d="M 548.7,541.6 755.2,432.6 548.7,319 340.3,432.6 Z"
         id="XMLID_24_"
         inkscape:connector-curvature="0" /></g><g
       id="XMLID_106_"><path
         id="XMLID_107_"
         d="m 548.7,547.3 c -0.9,0 -1.8,-0.2 -2.6,-0.6 l -208.4,-109 c -1.9,-1 -3,-2.9 -3.1,-5 0,-2.1 1.1,-4 3,-5 L 546,314 c 1.7,-0.9 3.8,-0.9 5.5,0 L 758,427.7 c 1.8,1 3,2.9 2.9,5 0,2.1 -1.2,4 -3,5 L 551.4,546.6 c -0.8,0.4 -1.8,0.7 -2.7,0.7 z M 352.4,432.5 548.7,535.1 743.2,432.5 548.7,325.4 Z"
         inkscape:connector-curvature="0"
         style="fill:#0f1c27" /></g><g
       id="XMLID_104_"><path
         style="fill:#ba2b31"
         d="m 755.2,434.5 -206.5,109 V 754.7 L 755.2,648.6 Z"
         id="XMLID_21_"
         inkscape:connector-curvature="0" /></g><g
       id="XMLID_100_"><path
         id="XMLID_101_"
         d="m 548.7,760.4 c -1,0 -2.1,-0.3 -3,-0.8 -1.7,-1 -2.7,-2.9 -2.7,-4.9 V 543.5 c 0,-2.1 1.2,-4 3,-5 L 752.5,429.6 c 1.8,-0.9 3.9,-0.9 5.6,0.2 1.7,1 2.7,2.9 2.7,4.9 v 214.1 c 0,2.1 -1.2,4.1 -3.1,5.1 L 551.3,759.8 c -0.8,0.4 -1.7,0.6 -2.6,0.6 z m 5.7,-213.5 V 745.4 L 749.5,645.1 V 444 Z"
         inkscape:connector-curvature="0"
         style="fill:#0f1c27" /></g><g
       id="XMLID_97_"><g
         id="XMLID_98_"><path
           id="XMLID_16_"
           d="m 445.8,596.7 c -0.1,-0.1 4,-23.5 4.2,-24.4 3,-12.7 5.1,-25.7 6.2,-38.7 2.7,-31.7 -5,-66.8 -27.2,-91.6 -10.5,-11.8 -23.4,-20.8 -36,-30.2 -20.4,-15.3 -41.1,-30.5 -58.2,-49.6 -16.4,-18.2 -30.4,-38.4 -44.5,-58.4 -0.3,-0.4 -0.5,-0.7 -0.8,-1.1 0,0 -19.6,75 19.1,130.2 0,0 -12,43.9 21.8,68.6 0.5,0.3 0.3,5.3 0.4,5.9 0.6,5 1.9,9.9 3.6,14.7 5.7,15.1 17,26.4 31.5,33.3 25.1,11.9 49.5,25.5 74.2,38.3 2,1 3.8,2.1 5.7,3 z"
           inkscape:connector-curvature="0"
           style="fill:#8dc3e7" /></g></g><g
       id="XMLID_94_"><g
         id="XMLID_95_"><path
           id="XMLID_15_"
           d="m 340.5,499.2 c 0,0 1.2,12.5 25.2,15.8 0,0 27.2,1.8 50.4,25.6 l -7.8,-13.6 -28.1,-16.1 -15,-5.2 z"
           inkscape:connector-curvature="0"
           style="fill:#c2d7e9" /></g></g><path
       id="XMLID_90_"
       d="M 432.6,438.9 C 423,428.2 411.5,419.7 400.4,411.4 l -7,-5.2 C 374.3,391.9 354.5,377 338.3,359.1 323.1,342.2 309.7,323.2 296.7,304.8 l -3.4,-4.8 c -1.1,-1.5 -3,-2.2 -4.7,-1.9 -1.8,0.3 -3.3,1.7 -3.7,3.5 -0.8,3.1 -19.3,76.3 18.5,132.4 -2,9.5 -7.7,46.8 22.5,70.3 0,0.7 0,1.5 0,1.9 0,0.9 0,1.7 0.1,2 0.7,5.3 2,10.6 3.9,15.8 6,15.8 17.7,28.2 33.9,35.9 17.4,8.3 34.8,17.5 51.6,26.4 7.5,4 15,7.9 22.4,11.8 l 1.8,1 c 1.3,0.7 2.6,1.4 4,2 0.9,0.4 1.9,0.6 2.9,0.4 1.4,-0.3 2.8,-1.2 3.4,-2.6 0.3,-0.6 0.4,-1.2 0.5,-1.8 0.3,-2.4 3.8,-22 4.1,-23.6 3.1,-13.3 5.3,-26.5 6.4,-39.4 3.2,-36.9 -7.1,-71.6 -28.3,-95.2 z m 9.5,150.5 c 0,-0.1 0.1,-0.1 0.1,-0.2 0,0.1 0,0.2 -0.1,0.2 0.1,0 0,0 0,0 z m 9.5,-56.2 c -1,12.4 -3.1,25.2 -6.1,38 -0.1,0.4 -0.5,2.8 -1,5.5 -2.3,-1 -4.5,-2 -4.7,-2.1 -10.9,-5.3 -21.9,-10.5 -32.8,-15.9 -9.2,-4.5 -18.6,-8.2 -27.4,-13.5 -9,-5.4 -17.5,-11.7 -24.7,-19.4 -4.8,-5.1 -9.1,-10.9 -11.4,-17.6 -0.6,-1.6 -1,-3.3 -1.2,-5.1 0,-0.3 0.1,-1.5 -0.1,-1.8 2.4,3.4 7.9,4.9 11.6,6.1 4.5,1.5 9.1,2.5 13.7,3.5 9.5,2 18.8,4.7 27,10.1 7.8,5.1 14.5,11.7 20.8,18.6 0.5,0.6 1.1,1.2 1.8,1.4 0.7,0.3 1.7,0 2,-0.7 0.1,-0.3 0.1,-0.7 0.1,-1.1 -0.5,-4.4 -2.4,-8.5 -5,-12.1 -6.3,-8.7 -16,-14.7 -25.4,-19.4 -10.3,-5.2 -21.4,-9.3 -32.6,-12.1 -37.7,-10.1 -42.2,-51.3 -42.8,-62 0.2,-0.7 0.1,-1.5 -0.1,-2.2 0,-0.2 0,-0.3 0,-0.3 26,28.2 71.9,22.9 96.2,53.5 0.3,0.4 8.8,11.9 8.3,5.7 -2.3,-28.9 -43.1,-42.1 -43.1,-42.1 -36.8,-10.6 -54.8,-25.6 -67.8,-49.6 -13.3,-24.5 -15.8,-56 -14.1,-83.5 12,17 24.5,34.3 38.7,50 16.8,18.7 36.9,33.8 56.4,48.4 l 7,5.2 c 10.7,8 21.8,16.2 30.7,26.2 19.4,22 28.9,54.1 26,88.3 z"
       inkscape:connector-curvature="0"
       style="fill:#002c68" /><g
       id="XMLID_87_"><g
         id="XMLID_88_"><path
           id="XMLID_10_"
           d="m 292.7,315.4 c 0,0 32.4,46.3 47.5,58.9 0,0 9.1,10.9 32.4,28.3 0,0 38,27.9 40.8,30.9 0,0 15.7,13.9 20.9,23.8 0,0 10.2,15.1 14.1,32.9 0,0 6.8,27.2 1.9,52.6 7,-36.9 -21.2,-85.1 -48.1,-108.2 -20,-17.1 -44.8,-27.9 -63.3,-47 -9.2,-9.5 -17.7,-19.8 -25.1,-30.9 -4.3,-6.4 -8.2,-13 -11.8,-19.9 -3.3,-6.6 -5.2,-15.6 -9.3,-21.4 z"
           inkscape:connector-curvature="0"
           style="fill:#c2d7e9" /></g></g><g
       id="XMLID_85_"><path
         style="fill:#87262a"
         d="M 621.1,542.7 668,519.9 v -41.2 l -201.1,-115.1 -49.2,26.8 203.4,113 z"
         id="XMLID_9_"
         inkscape:connector-curvature="0" /></g><g
       id="XMLID_81_"><path
         id="XMLID_82_"
         d="m 621.1,548.3 c -1,0 -2.1,-0.3 -3,-0.9 -1.7,-1 -2.7,-2.9 -2.7,-4.8 V 506.7 L 414.9,395.4 c -1.8,-1 -2.9,-2.9 -2.9,-5 0,-2.1 1.1,-4 3,-5 l 49.2,-26.8 c 1.7,-0.9 3.8,-0.9 5.5,0.1 l 201.1,115 c 1.8,1 2.9,2.9 2.9,4.9 v 41.2 c 0,2.2 -1.2,4.2 -3.2,5.1 l -46.9,22.8 c -0.8,0.5 -1.7,0.6 -2.5,0.6 z m -191.6,-157.8 194.4,108 c 1.8,1 2.9,2.9 2.9,5 v 30.2 l 35.5,-17.3 V 482 L 466.8,370.1 Z"
         inkscape:connector-curvature="0"
         style="fill:#0f1c27" /></g><g
       id="XMLID_18_"><g
         id="XMLID_78_"><g
           id="XMLID_79_"><path
             id="XMLID_6_"
             d="m 606,611.5 c -2,0 -4,-1.1 -5,-3.1 -1.3,-2.7 -0.2,-6.1 2.5,-7.4 l 20.3,-9.9 c 2.7,-1.3 6.1,-0.2 7.4,2.5 1.3,2.7 0.2,6.1 -2.5,7.4 l -20.3,9.9 c -0.8,0.4 -1.6,0.6 -2.4,0.6 z"
             inkscape:connector-curvature="0"
             style="fill:#87262a" /></g></g><g
         id="XMLID_75_"><g
           id="XMLID_76_"><path
             id="XMLID_5_"
             d="m 642,591.9 c -2,0 -4,-1.1 -4.9,-3 -1.4,-2.7 -0.3,-6 2.4,-7.4 L 704,549 c 2.7,-1.4 6,-0.3 7.4,2.4 1.4,2.7 0.3,6 -2.4,7.4 l -64.5,32.5 c -0.8,0.4 -1.7,0.6 -2.5,0.6 z"
             inkscape:connector-curvature="0"
             style="fill:#87262a" /></g></g><g
         id="XMLID_69_"><g
           id="XMLID_71_"><path
             id="XMLID_4_"
             d="m 606.2,674.4 c -2.1,0 -4.1,-1.2 -5.1,-3.2 -1.4,-2.8 -0.2,-6.2 2.6,-7.6 l 20.9,-10.2 c 2.8,-1.4 6.2,-0.2 7.6,2.6 1.4,2.8 0.2,6.2 -2.6,7.6 l -20.9,10.2 c -0.8,0.4 -1.7,0.6 -2.5,0.6 z"
             inkscape:connector-curvature="0"
             style="fill:#87262a" /></g></g><g
         id="XMLID_66_"><g
           id="XMLID_67_"><path
             id="XMLID_3_"
             d="m 643.2,654.2 c -2.1,0 -4.1,-1.1 -5.1,-3.1 -1.4,-2.8 -0.3,-6.2 2.5,-7.6 L 706.9,610 c 2.8,-1.4 6.2,-0.3 7.6,2.5 1.4,2.8 0.3,6.2 -2.5,7.6 l -66.3,33.5 c -0.8,0.5 -1.7,0.6 -2.5,0.6 z"
             inkscape:connector-curvature="0"
             style="fill:#87262a" /></g></g><g
         id="XMLID_63_"><g
           id="XMLID_64_"><path
             id="XMLID_2_"
             d="m 688.5,600.2 c -2.1,0 -4.1,-1.2 -5.1,-3.2 -1.4,-2.8 -0.2,-6.2 2.6,-7.6 l 20.9,-10.2 c 2.8,-1.4 6.2,-0.2 7.6,2.6 1.4,2.8 0.2,6.2 -2.6,7.6 L 691,599.6 c -0.8,0.4 -1.6,0.6 -2.5,0.6 z"
             inkscape:connector-curvature="0"
             style="fill:#87262a" /></g></g><g
         id="XMLID_60_"><g
           id="XMLID_61_"><path
             id="XMLID_1_"
             d="m 606,642.3 c -2,0 -4,-1.1 -4.9,-3 -1.4,-2.7 -0.3,-6 2.4,-7.4 L 668,599.4 c 2.7,-1.4 6,-0.3 7.4,2.4 1.4,2.7 0.3,6 -2.4,7.4 l -64.5,32.5 c -0.8,0.4 -1.7,0.6 -2.5,0.6 z"
             inkscape:connector-curvature="0"
             style="fill:#87262a" /></g></g></g></g></svg>