<svg xmlns="http://www.w3.org/2000/svg" width="400" height="97.353"><path d="M91.178 71.065c3.202.026 5.538-2.217 5.6-5.376.06-3.08-2.4-5.644-5.434-5.662-3.09-.018-5.436 2.408-5.428 5.61.01 3.186 2.156 5.402 5.262 5.427M26.345 47.728c-5.05-.74-9.875 4.79-9.614 9.842.292 5.63 4.064 9.75 9.588 9.77 5.488.02 9.52-4.11 9.524-9.747.005-5.998-3.71-9.856-9.497-9.865m54.847 9.59c-4.758 0-9.083.024-13.41-.022-.86-.01-2.108.536-2.28-1.115-.017-.168-.714-.38-1.097-.382-4.967-.026-9.935-.017-14.884-.017-.452 2.742-.677 5.364-1.337 7.87-2.67 10.125-11.01 17.244-21.67 17.29-11.12.047-19.776-7.27-22.293-18.124-1.617-6.98-.333-13.54 4.015-19.36 1.034-1.386 1.338-2.6-.317-3.72-1.22-.827-1.103-1.797-.027-2.56 3.734-2.642 4.51-6.333 3.982-10.57-.13-1.052-.06-2.134-.01-3.198.076-1.597.003-3.022-1.59-4.052-.56-.362-.868-1.407-.933-2.17-.14-1.616-.043-3.25-.043-5.217-1.89 0-3.637.014-5.383-.006C1.856 11.94.014 10.09 0 8.066-.014 6.02 1.803 4.113 3.86 4.11c15.07-.015 30.143-.02 45.214-.006 2.092 0 3.68 1.696 3.746 3.852.064 2.153-1.628 3.996-3.774 4-9.953.02-19.906.01-29.86.01H16.49c0 2.177-.08 4.086.053 5.98.034.496.64 1.187 1.137 1.373 2.184.816 4.852 4.29 4.893 6.63.027 1.56.006 3.118.006 5.05h3.64c2.702 0 5.435.256 8.097-.07 3.1-.377 5.38.9 7.378 2.884.594.59.74 1.734.872 2.657.244 1.712-.057 3.605.568 5.136.96 2.348 2.873 3.64 5.708 3.127 1.36-.246 2.8-.043 4.447-.043 0-3.69-.048-7.154.026-10.615.028-1.248.402-2.485.52-3.737.053-.578-.132-1.177-.207-1.767-.55.175-1.228.203-1.62.552-1.005.895-1.81 2.022-2.846 2.87-.44.356-1.26.244-1.91.346-.026-.677-.358-1.638-.034-1.987 3.533-3.794 7.145-7.515 10.81-11.182.36-.36 1.212-.23 1.835-.33.03.694.346 1.584.032 2.04-.756 1.097-1.92 1.908-2.707 2.99-.72.99-1.16 2.18-1.614 3.063 1.312.72 2.088 1.16 2.88 1.574.3.157.63.362.947.363 6.24.022 12.48.016 19.01.016 0-3.974-.005-7.714.004-11.455 0-.78-.163-1.658.14-2.31.29-.625 1.09-1.012 1.663-1.503.412.585 1.167 1.163 1.18 1.757.1 4.548.052 9.1.06 13.648.002.556.066 1.11.115 1.895h23.977v11.427c-1.992 1.068-1.598 2.862-1.404 4.964 2.444 0 4.906.104 7.353-.035 1.794-.1 2.413.536 2.31 2.3-.12 1.982-.11 3.983 0 5.967.08 1.45-.508 1.828-1.855 1.8-3.264-.07-6.53-.022-10.16-.022.29.886.443 1.605.75 2.247 4.04 8.407-.672 17.526-9.846 19.023-5.94.97-12.43-3.848-13.812-10.103-.767-3.467-.007-6.6 1.55-9.65.183-.356.357-.714.754-1.515M140.676 4.096c-6.2 0-11.245 5.67-11.245 12.64V60.06c0 6.968 5.047 12.638 11.246 12.638H385.11c6.203 0 11.245-5.67 11.245-12.638V16.735c0-6.97-5.042-12.64-11.245-12.64H140.676zm244.434 72.7H140.676c-8.208 0-14.89-7.51-14.89-16.734V16.735C125.786 7.51 132.468 0 140.676 0H385.11C393.323 0 400 7.51 400 16.735v43.327c0 9.224-6.677 16.734-14.89 16.734" fill="#231f20"/><path d="M135.32 15.755c0-1.964-.05-3.228-.333-3.79-.24-.467-.713-.702-1.947-.793l-1.756-.143V9.3c3.134.046 5.554.14 7.976.14 3.228 0 6.408-.094 9.636-.14 4.842-.094 9.304 1.355 9.304 6.923 0 4.117-3.132 6.877-7.072 8.28l8.592 12.82c.332.515.856 1.03 1.377 1.45.426.327 1.043.47 1.946.656v1.87c-1.52-.046-3.085-.14-4.604-.14-1.427 0-2.85.094-4.273.14l-10.635-16.234.33-.843c4.37.375 7.6-2.292 7.6-6.69 0-3.836-2.71-5.895-6.41-5.895-1 0-2.28.048-3.04.42v22.786c0 1.964.047 3.228.333 3.79.19.373.712.56 1.945.654l1.757.14V41.3c-1.946-.046-4.557-.14-7.357-.14-2.85 0-5.46.094-7.406.14v-1.87l1.756-.142c1.234-.094 1.756-.28 1.947-.654.284-.562.332-1.826.332-3.79v-19.09zM180.83 28.9h9.685L185.58 17.02 180.83 28.9zm-1.14 2.62l-1.994 5.242c-.663 1.778.286 2.62 1.14 2.667l2.374.14v1.73c-2.28-.047-3.988-.14-5.364-.14-1.378 0-3.086.093-5.366.14v-1.73l1.425-.14c1.235-.143 2.09-1.452 2.66-2.808l8.592-20.493 2.706-7.066h3.37l12.296 28.306c.52 1.17 1.138 1.87 2.613 2.06l1.137.14v1.73c-3.182-.047-5.507-.14-7.36-.14-1.85 0-4.224.093-7.358.14v-1.73l2.516-.14c.76-.05 1.283-1.077.666-2.575l-2.14-5.334h-11.913zM246.85 39.148c-4.368 1.685-8.975 2.807-13.865 2.807-10.823 0-18.8-5.99-18.8-17.17 0-10.76 8.88-16.142 18.992-16.142 4.32 0 8.545.375 13.057 2.2l.283.514c-.474 1.684-.852 5.147-1.09 7.158h-1.853l-.238-4.023c-1.854-2.152-6.077-3.23-9.968-3.23-7.88 0-12.06 5.523-12.06 12.915 0 8.094 4.227 15.16 12.772 15.16 2.087 0 4.035-.422 6.03-1.17v-6.178c0-1.45-1.187-1.685-2.708-1.73l-2.516-.094v-1.918c2.325.046 4.653.14 6.98.14 2.325 0 4.603-.094 6.928-.14v1.59c-1.612.328-1.943.516-1.943 1.683v7.628zM263.02 15.755c0-1.964-.048-3.228-.33-3.79-.24-.467-.714-.702-1.948-.793l-1.756-.143V9.3c3.134.046 5.555.14 7.975.14 3.232 0 6.41-.094 9.638-.14 4.843-.094 9.307 1.355 9.307 6.923 0 4.117-3.134 6.877-7.076 8.28l8.592 12.82c.334.515.857 1.03 1.378 1.45.426.327 1.043.47 1.947.656v1.87c-1.52-.046-3.086-.14-4.607-.14-1.42 0-2.848.094-4.272.14l-10.633-16.234.33-.843c4.37.375 7.598-2.292 7.598-6.69 0-3.836-2.708-5.895-6.41-5.895-.997 0-2.278.048-3.04.42v22.786c0 1.964.048 3.228.336 3.79.185.373.71.56 1.946.654l1.756.14V41.3c-1.947-.046-4.56-.14-7.36-.14-2.85 0-5.46.094-7.406.14v-1.87l1.756-.142c1.234-.094 1.757-.28 1.947-.654.282-.562.33-1.826.33-3.79v-19.09zM309.624 34.844c0 1.963.048 3.228.335 3.79.185.372.71.56 1.946.653l1.755.142v1.87c-1.945-.047-4.557-.14-7.357-.14-2.852 0-5.46.093-7.406.14v-1.87l1.756-.143c1.233-.094 1.756-.28 1.947-.654.283-.56.33-1.826.33-3.79V15.756c0-1.965-.047-3.228-.33-3.79-.19-.373-.714-.56-1.947-.655l-1.756-.14V9.3c1.946.044 4.554.138 7.406.138 2.8 0 5.412-.094 7.358-.14v1.872l-1.754.14c-1.235.094-1.76.282-1.947.656-.288.56-.336 1.824-.336 3.79v19.088zM326.468 31.708l.335 4.118c1.282 2.152 4.986 3.603 7.45 3.603 4.038 0 7.456-2.107 7.456-6.176 0-2.012-1.236-3.557-3.94-4.352l-6.646-1.965c-3.99-1.17-6.933-3.93-6.933-7.954 0-7.485 5.65-10.34 12.533-10.34 2.946 0 6.078.514 8.83 1.59l.236.564c-.474 1.497-.662 4.21-.662 6.642h-1.946l-.286-3.837c-1.422-1.59-4.083-2.574-6.313-2.574-4.415 0-6.506 2.525-6.506 5.66 0 2.107 1.52 3.65 5.033 4.538l5.412 1.404c4.368 1.124 7.167 3.837 7.167 8.048 0 7.954-6.694 11.275-13.91 11.275-3.417 0-6.882-.7-9.92-2.153.57-2.76.71-5.426.71-8.094h1.898zM367.33 28.9h9.686l-4.938-11.882L367.33 28.9zm-1.138 2.62l-1.995 5.242c-.665 1.778.286 2.62 1.138 2.667l2.374.14v1.73c-2.278-.047-3.988-.14-5.366-.14-1.374 0-3.085.093-5.363.14v-1.73l1.426-.14c1.235-.143 2.086-1.452 2.656-2.808l8.593-20.493 2.71-7.066h3.368l12.295 28.306c.523 1.17 1.14 1.87 2.614 2.06l1.14.14v1.73c-3.184-.047-5.51-.14-7.36-.14-1.852 0-4.226.093-7.36.14v-1.73l2.516-.14c.76-.05 1.284-1.077.666-2.575l-2.14-5.334h-11.912zM134.33 52.428c0-.79-.015-1.3-.124-1.525-.088-.188-.267-.283-.73-.32l-.657-.057v-.696c1.173.018 2.08.056 2.987.056 1.21 0 2.404-.038 3.614-.056 1.816-.038 3.49.546 3.49 2.787 0 1.657-1.176 2.768-2.654 3.332l3.223 5.16c.122.205.318.413.515.58.16.134.392.19.73.266v.753c-.57-.02-1.158-.058-1.728-.058-.534 0-1.067.037-1.6.057l-3.987-6.536.125-.338c1.637.152 2.847-.923 2.847-2.693 0-1.544-1.015-2.373-2.403-2.373-.374 0-.855.02-1.14.17v9.17c0 .792.02 1.3.125 1.525.07.15.266.228.73.264l.66.056v.753c-.732-.02-1.71-.058-2.76-.058-1.067 0-2.047.037-2.776.057v-.754l.656-.057c.463-.037.66-.115.73-.265.11-.225.125-.733.125-1.525v-7.682zM149.695 55.497c.41.04.8.04 1.193.04h1.175c.623 0 .977-.04 1.014-.398l.106-1.074h.71c-.015.677-.05 1.337-.05 2.015 0 .68.035 1.356.05 2.035h-.71l-.106-.942c-.053-.528-.39-.697-1.014-.697h-1.175c-.392 0-.783.02-1.193.057v5.028c.748.038 1.513.056 2.28.056.818 0 2.135-.17 2.17-.32l.41-1.77h.693l-.197 2.976-.087.15c-1.157.094-3.222.094-4.377.057-.73-.022-1.46-.058-2.19-.058-.747 0-1.476.036-2.134.057v-.434l.57-.34c.282-.17.353-.49.353-1.073v-8.436c0-.79-.016-1.3-.124-1.524-.088-.187-.265-.283-.728-.32l-.657-.057v-.696c.587 0 1.102.02 1.564.037.462 0 .872.018 1.21.018 1.674 0 2.882-.036 3.898-.055.996-.018 1.778-.018 2.597.055l.106.132-.246 2.675h-.64l-.145-1.413c-.035-.283-1.227-.36-2.046-.36-.766 0-1.53.02-2.28.058v4.52zM158.065 52.428c0-.79-.016-1.3-.125-1.525-.088-.188-.267-.283-.73-.32l-.657-.057v-.696c1.174.018 2.08.056 2.775.056 1.21 0 2.403-.038 3.614-.056 1.815-.038 3.487.546 3.487 2.787 0 2.504-1.833 4.028-4.11 4.028-.323 0-.66-.094-.927-.132l-.303-.658.18-.19c.248.04.496.115.747.115 1.263 0 1.848-1.186 1.848-2.373 0-1.543-.532-2.637-2.152-2.637-.373 0-.855.02-1.14.17v9.17c0 .792.02 1.3.126 1.525.07.15.265.228.728.264l.838.056v.753c-.91-.02-1.886-.058-2.938-.058-1.066 0-2.046.037-2.775.057v-.754l.657-.057c.463-.037.66-.115.73-.265.11-.225.125-.733.125-1.525v-7.682zM168.712 52.428c0-.79-.016-1.3-.123-1.525-.09-.188-.27-.283-.733-.32l-.657-.057v-.696c.73.018 1.71.056 2.775.056 1.052 0 2.03-.038 2.76-.056v.696l-.66.057c-.463.037-.64.132-.73.32-.105.226-.124.734-.124 1.525v4.67c0 2.655.16 4.33 3.17 4.33 2.97 0 3.31-1.73 3.31-4.463v-4.537c0-.79-.018-1.3-.125-1.525-.09-.188-.268-.283-.732-.32l-.657-.057v-.696c.677.018 1.37.056 2.047.056.676 0 1.352-.038 2.027-.056v.696l-.657.057c-.463.037-.64.132-.73.32-.105.226-.125.734-.125 1.525v5.498c0 3.445-1.726 5.046-4.946 5.046-3.364 0-5.09-1.525-5.09-3.652v-6.892zM185.305 55.497c.41.04.8.04 1.192.04h1.176c.623 0 .98-.04 1.012-.398l.107-1.074h.712c-.018.677-.05 1.337-.05 2.015 0 .68.032 1.356.05 2.035h-.712l-.107-.942c-.05-.528-.39-.697-1.012-.697h-1.176c-.39 0-.782.02-1.192.057v5.028c.748.038 1.513.056 2.278.056.82 0 2.134-.17 2.17-.32l.41-1.77h.693l-.195 2.976-.087.15c-1.157.094-3.222.094-4.377.057-.73-.022-1.46-.058-2.19-.058-.747 0-1.477.036-2.136.057v-.434l.57-.34c.285-.17.355-.49.355-1.073v-8.436c0-.79-.016-1.3-.125-1.524-.088-.187-.265-.283-.728-.32l-.658-.057v-.696c.586 0 1.102.02 1.565.037.462 0 .872.018 1.21.018 1.673 0 2.882-.036 3.898-.055.995-.018 1.778-.018 2.597.055l.106.132-.248 2.675h-.64l-.143-1.413c-.038-.283-1.228-.36-2.047-.36-.765 0-1.53.02-2.278.058v4.52zM193.458 58.85l.124 1.657c.482.865 1.87 1.45 2.797 1.45 1.512 0 2.79-.847 2.79-2.487 0-.81-.463-1.43-1.476-1.752l-2.492-.79c-1.495-.47-2.597-1.58-2.597-3.2 0-3.012 2.116-4.162 4.7-4.162 1.1 0 2.277.207 3.31.64l.088.227c-.18.602-.25 1.694-.25 2.672h-.727l-.11-1.543c-.534-.64-1.53-1.035-2.367-1.035-1.654 0-2.436 1.016-2.436 2.277 0 .847.57 1.47 1.884 1.828l2.028.564c1.64.452 2.69 1.545 2.69 3.24 0 3.198-2.51 4.536-5.217 4.536-1.28 0-2.58-.283-3.72-.866.214-1.11.27-2.183.27-3.256h.708zM209.535 60.11c0 .79.018 1.3.124 1.524.07.152.264.228.727.265l.66.056v.753c-.73-.02-1.707-.058-2.757-.058-1.07 0-2.047.037-2.78.057v-.754l.66-.057c.462-.038.66-.114.73-.266.107-.224.125-.733.125-1.524v-9.114h-2.083c-.48 0-.976 0-1.102.17-.074.095-.144.246-.162.454l-.087 1.298h-.714c-.032-1.225-.088-2.09-.23-2.994l.107-.094c1.87.02 3.72.055 5.517.055 1.815 0 3.668-.036 5.534-.055l.106.094c-.14.904-.195 1.77-.23 2.994h-.71l-.09-1.298c-.017-.208-.09-.36-.16-.453-.124-.17-.625-.17-1.103-.17h-2.082v9.113zM217.422 56.06c0 3.11 1.227 5.858 3.737 5.858 3.31 0 4.092-2.598 4.092-5.424 0-3.105-1.227-5.874-3.737-5.874-3.31 0-4.093 2.617-4.093 5.44m10.5.096c0 4.444-2.685 6.816-6.763 6.816-3.987 0-6.405-2.297-6.405-6.59 0-4.444 2.687-6.817 6.76-6.817 3.986 0 6.408 2.3 6.408 6.59M230.74 58.85l.124 1.657c.482.865 1.872 1.45 2.798 1.45 1.513 0 2.79-.847 2.79-2.487 0-.81-.462-1.43-1.475-1.752l-2.493-.79c-1.494-.47-2.595-1.58-2.595-3.2 0-3.012 2.114-4.162 4.696-4.162 1.102 0 2.28.207 3.312.64l.088.227c-.18.602-.25 1.694-.25 2.672h-.727l-.11-1.543c-.535-.64-1.53-1.035-2.368-1.035-1.653 0-2.435 1.016-2.435 2.277 0 .847.57 1.47 1.884 1.828l2.03.564c1.638.452 2.688 1.545 2.688 3.24 0 3.198-2.508 4.536-5.216 4.536-1.28 0-2.58-.283-3.72-.866.215-1.11.27-2.183.27-3.256h.71zM247.73 57.718h3.63l-1.848-4.78-1.783 4.78zm-.427 1.055l-.75 2.11c-.245.715.11 1.053.43 1.073l.89.057v.696c-.856-.02-1.496-.058-2.01-.058-.518 0-1.16.038-2.014.057v-.697l.536-.057c.46-.057.782-.584.995-1.13l3.223-8.248 1.014-2.844h1.265l4.606 11.393c.194.47.427.754.978.83l.43.056v.696c-1.194-.02-2.066-.058-2.76-.058-.695 0-1.583.038-2.758.057v-.697l.944-.057c.283-.02.48-.434.25-1.036l-.803-2.147h-4.467zM270.354 61.842c-1.636.678-3.364 1.13-5.195 1.13-4.06 0-7.05-2.41-7.05-6.91 0-4.33 3.327-6.496 7.118-6.496 1.62 0 3.203.15 4.894.885l.107.21c-.18.677-.322 2.07-.41 2.878h-.693l-.088-1.617c-.697-.866-2.28-1.3-3.738-1.3-2.958 0-4.522 2.223-4.522 5.197 0 3.256 1.582 6.1 4.785 6.1.784 0 1.515-.17 2.26-.47V58.96c0-.583-.445-.676-1.014-.694l-.94-.04v-.77c.872.017 1.74.056 2.616.056.872 0 1.724-.04 2.598-.057v.64c-.607.132-.73.207-.73.677v3.07zM274.314 52.428c0-.79-.02-1.3-.125-1.525-.09-.188-.27-.283-.732-.32l-.658-.057v-.696c1.176.018 2.083.056 2.99.056 1.21 0 2.403-.038 3.612-.056 1.815-.038 3.487.546 3.487 2.787 0 1.657-1.173 2.768-2.65 3.332l3.218 5.16c.125.205.32.413.518.58.158.134.39.19.727.266v.753c-.57-.02-1.153-.058-1.723-.058-.536 0-1.07.037-1.6.057l-3.987-6.536.124-.338c1.635.152 2.844-.923 2.844-2.693 0-1.544-1.012-2.373-2.398-2.373-.375 0-.856.02-1.14.17v9.17c0 .792.015 1.3.122 1.525.074.15.27.228.732.264l.657.056v.753c-.727-.02-1.71-.058-2.755-.058-1.07 0-2.05.037-2.778.057v-.754l.658-.057c.463-.037.657-.115.73-.265.107-.225.126-.733.126-1.525v-7.682zM289.678 60.11c0 .79.015 1.3.125 1.524.07.152.264.228.727.265l.658.056v.753c-.728-.02-1.708-.058-2.755-.058-1.07 0-2.047.037-2.778.057v-.754l.657-.057c.463-.038.658-.114.73-.266.108-.224.126-.733.126-1.524v-7.683c0-.79-.018-1.298-.125-1.525-.073-.15-.268-.225-.73-.264l-.658-.055v-.753c.73.02 1.708.055 2.778.055 1.047 0 2.027-.036 2.755-.055v.753l-.658.055c-.463.04-.657.114-.727.264-.11.227-.125.736-.125 1.525v7.683zM303.808 61.936c-1.226.79-2.667 1.035-4.092 1.035-4.057 0-7.048-2.41-7.048-6.91 0-4.328 3.33-6.494 7.12-6.494 1.46 0 2.65.132 4.358.885l.107.21c-.178.677-.32 2.07-.41 2.88h-.692l-.087-1.62c-.87-.96-1.997-1.3-3.204-1.3-2.955 0-4.52 2.223-4.52 5.197 0 3.447 1.884 5.93 5.248 5.93 1.05 0 2.492-.393 3.4-.96l.213.227-.392.922zM308.246 56.06c0 3.11 1.227 5.858 3.736 5.858 3.31 0 4.093-2.598 4.093-5.424 0-3.105-1.227-5.874-3.736-5.874-3.312 0-4.094 2.617-4.094 5.44m10.5.096c0 4.444-2.686 6.816-6.764 6.816-3.986 0-6.404-2.297-6.404-6.59 0-4.444 2.686-6.817 6.76-6.817 3.987 0 6.41 2.3 6.41 6.59M324.29 61.56c.745.038 1.51.056 2.278.056.816 0 2.135-.168 2.17-.32l.408-1.92h.695l-.193 3.126-.092.15c-1.154.094-3.22.094-4.377.057-.73-.02-1.457-.057-2.19-.057-.743 0-1.475.037-2.133.056v-.434l.57-.34c.282-.17.356-.488.356-1.072v-8.437c0-.79-.018-1.298-.124-1.524-.074-.15-.268-.226-.73-.265l-.66-.055v-.753c.73.02 1.71.055 2.78.055 1.046 0 2.027-.036 2.753-.055v.753l-.657.055c-.463.04-.658.115-.732.265-.105.226-.12.735-.12 1.524v9.134zM334.757 57.718h3.63l-1.847-4.78-1.783 4.78zm-.426 1.055l-.748 2.11c-.246.715.11 1.053.43 1.073l.89.057v.696c-.857-.02-1.496-.058-2.01-.058-.52 0-1.16.038-2.014.057v-.697l.536-.057c.46-.057.782-.584.996-1.13l3.22-8.248 1.015-2.844h1.265l4.606 11.393c.194.47.427.754.978.83l.43.056v.696c-1.194-.02-2.065-.058-2.76-.058-.694 0-1.583.038-2.758.057v-.697l.944-.057c.283-.02.48-.434.25-1.036l-.803-2.147h-4.466zM346.294 58.85l.123 1.657c.482.865 1.87 1.45 2.798 1.45 1.513 0 2.79-.847 2.79-2.487 0-.81-.462-1.43-1.476-1.752l-2.493-.79c-1.494-.47-2.595-1.58-2.595-3.2 0-3.012 2.115-4.162 4.697-4.162 1.1 0 2.28.207 3.31.64l.088.227c-.18.602-.25 1.694-.25 2.672h-.726l-.11-1.543c-.535-.64-1.53-1.035-2.367-1.035-1.654 0-2.435 1.016-2.435 2.277 0 .847.57 1.47 1.884 1.828l2.028.564c1.638.452 2.688 1.545 2.688 3.24 0 3.198-2.507 4.536-5.215 4.536-1.28 0-2.58-.283-3.72-.866.215-1.11.27-2.183.27-3.256h.71zM355.342 65.778l-.268-.246c.818-1.712 1.39-3.82 1.458-4.82.643-.168 1.566-.433 2.385-.715l.305.3c-.712 1.66-1.6 3.202-2.62 4.916l-1.26.565zM366.075 58.85l.123 1.657c.48.865 1.87 1.45 2.797 1.45 1.512 0 2.79-.847 2.79-2.487 0-.81-.462-1.43-1.476-1.752l-2.492-.79c-1.494-.47-2.596-1.58-2.596-3.2 0-3.012 2.116-4.162 4.698-4.162 1.102 0 2.28.207 3.31.64l.088.227c-.178.602-.25 1.694-.25 2.672h-.725l-.112-1.543c-.532-.64-1.528-1.035-2.364-1.035-1.654 0-2.435 1.016-2.435 2.277 0 .847.57 1.47 1.884 1.828l2.03.564c1.637.452 2.687 1.545 2.687 3.24 0 3.198-2.506 4.536-5.214 4.536-1.28 0-2.58-.283-3.72-.866.213-1.11.27-2.183.27-3.256h.71zM378.573 61.447c0 .716-.64 1.43-1.388 1.43-.73 0-1.386-.64-1.386-1.43 0-.79.656-1.506 1.385-1.506.73 0 1.388.697 1.388 1.507M383.72 57.718h3.63l-1.848-4.78-1.782 4.78zm-.426 1.055l-.745 2.11c-.252.715.104 1.053.425 1.073l.888.057v.696c-.856-.02-1.495-.058-2.01-.058-.518 0-1.157.038-2.013.057v-.697l.536-.057c.46-.057.782-.584.997-1.13l3.22-8.248 1.016-2.844h1.262l4.607 11.393c.194.47.425.754.976.83l.43.056v.696c-1.194-.02-2.064-.058-2.758-.058-.696 0-1.585.038-2.76.057v-.697l.944-.057c.283-.02.48-.434.25-1.036l-.8-2.147h-4.468zM14.092 86.935h.925l1.02 3.03-1.11.403-.14-.195c-.355-.477-.787-1.044-1.298-1.373-.557-.374-1.22-.612-1.9-.612-.694 0-1.7.256-1.7 1.075 0 .73 1.16.895 1.7 1.03l.572.12 1.033.268c.774.21 1.715.42 2.394.837.74.463 1.112 1.327 1.112 2.164 0 2.344-2.116 3.672-4.355 3.672-.897 0-2.054-.268-2.765-.82l-.215.686H8.44l-1.28-3.76 1.17-.374c.805 1.507 2.15 2.762 4.002 2.762.85 0 1.976-.33 1.976-1.315 0-.818-1.02-.97-1.653-1.117l-1.745-.417c-.756-.18-1.745-.405-2.377-.837-.725-.51-1.065-1.33-1.065-2.182 0-2.088 1.945-3.296 3.937-3.296.85 0 1.79.268 2.5.73l.187-.477zM22.867 97.1h-5.544v-1.224c.386-.015.928-.09 1.16-.3.26-.253.214-.835.214-1.163V89.62c0-.296.03-.834-.17-1.09-.2-.252-.772-.34-1.095-.356l-.11-.015v-1.224h5.545v1.238c-.432.015-.974.074-1.22.3-.262.238-.216.82-.216 1.147v4.793c0 .313-.045.85.155 1.09.217.27.802.358 1.142.373h.14V97.1zM30.674 93.936H29.47c-.046-.42-.155-.897-.402-1.254-.278-.404-.91-.374-1.358-.374h-.246v1.567c0 .253-.018 1.238.06 1.477.14.373.82.373 1.142.373 2.18 0 3.414-.985 4.62-2.656l1.08.506-1.7 3.524h-9.173v-1.225l.264-.046c.94-.163.974-.492.974-1.416V89.62c0-.82.107-1.237-.88-1.4l-.357-.062v-1.223h8.912l1.528 3.09-1.05.493c-.927-1.33-2.163-2.21-3.89-2.21-.296 0-1.175.014-1.376.27-.2.252-.153.97-.153 1.28v1.077h.445c.417 0 1.02.06 1.297-.313.217-.314.262-.926.262-1.314h1.204v4.628zM41.474 93.293l2.162-6.358h4.925v1.224c-.416.014-.957.073-1.188.298-.263.253-.217.836-.217 1.162v4.777c0 .314-.046.85.155 1.105.2.255.804.344 1.128.374h.123V97.1h-5.62v-1.224h.125c.323-.015.863-.09 1.11-.314.263-.24.25-.836.25-1.165v-4.984L41.796 97.1h-1.744l-2.626-7.806v5.12c0 .297-.03.833.17 1.088.2.255.788.344 1.098.374h.122V97.1h-4.215v-1.224c1.266-.106 1.297-.405 1.297-1.48V89.62c0-1.06-.016-1.357-1.298-1.46v-1.225h4.756l2.116 6.358zM53.535 91.62c.555 0 1.343-.042 1.805-.357.435-.298.68-.835.68-1.328 0-1.046-.77-1.627-1.806-1.627-.262 0-.695.03-.91.194-.186.164-.155.508-.17.73v2.39h.4zm-.402 2.794c0 1.044.016 1.372 1.22 1.462V97.1h-5.25v-1.224c1.265-.09 1.297-.39 1.297-1.462v-4.777c0-1.076-.015-1.36-1.298-1.478v-1.225h5.36c.956 0 2.053 0 2.932.432 1.006.494 1.56 1.508 1.56 2.583 0 2.568-2.362 3.03-4.508 3.03h-1.313v1.434zM63.947 91.293c.618 0 1.343.03 1.915-.223.556-.255 1.02-.702 1.02-1.3 0-.417-.372-.866-.712-1.12-.417-.297-1.018-.343-1.514-.343-.414 0-.97.03-1.19.225-.152.134-.12.448-.12.628v2.133h.6zm5.188 3.404c.603.76.834 1.09 1.93 1.18v1.222h-3.582l-3.32-4.374h-.818v1.717c0 1.014.11 1.343 1.282 1.418l.215.016V97.1h-5.56v-1.224l.125-.015c1.19-.074 1.205-.343 1.205-1.403v-4.88c0-1 .015-1.343-1.143-1.404l-.187-.014v-1.225h5.82c.96 0 2.055.03 2.967.344 1.065.372 1.79 1.222 1.79 2.34 0 1.45-1.142 2.54-2.562 2.793l1.837 2.284zM78.496 93.936H77.29c-.045-.42-.153-.897-.4-1.254-.278-.404-.91-.374-1.358-.374h-.247v1.567c0 .253-.017 1.238.06 1.477.14.373.82.373 1.143.373 2.178 0 3.414-.985 4.62-2.656l1.08.506-1.7 3.524h-9.173v-1.225l.264-.046c.94-.163.97-.492.97-1.416V89.62c0-.82.11-1.237-.88-1.4l-.355-.062v-1.223h8.912l1.528 3.09-1.05.493c-.927-1.33-2.163-2.21-3.892-2.21-.294 0-1.174.014-1.374.27-.203.252-.155.97-.155 1.28v1.077h.446c.42 0 1.022.06 1.3-.313.215-.314.26-.926.26-1.314h1.206v4.628zM91.715 94.92c0 .21-.03.536.17.657.216.134.616.147.88.147 2.24 0 3.164-1.686 3.164-3.744 0-.91-.155-1.91-.727-2.643-.616-.79-1.434-1.03-2.33-1.03-.943 0-1.158.06-1.158.956v5.657zm-4.047.956c1.282-.09 1.314-.405 1.314-1.463V89.62c0-1.042-.017-1.357-1.314-1.46v-1.225h4.772c.864 0 2.193 0 3.012.224.97.268 1.914.97 2.485 1.76.665.895.974 2 .974 3.106 0 1.52-.494 2.924-1.682 3.938-1.283 1.09-2.81 1.135-4.418 1.135h-5.142v-1.224zM106.88 93.936h-1.204c-.046-.42-.155-.897-.4-1.254-.28-.404-.912-.374-1.36-.374h-.246v1.567c0 .253-.017 1.238.06 1.477.14.373.82.373 1.143.373 2.177 0 3.413-.985 4.618-2.656l1.082.506-1.7 3.524H99.7v-1.225l.263-.046c.942-.163.973-.492.973-1.416V89.62c0-.82.107-1.237-.88-1.4l-.356-.062v-1.223h8.912l1.528 3.09-1.05.493c-.927-1.33-2.163-2.21-3.892-2.21-.294 0-1.174.014-1.374.27-.202.252-.154.97-.154 1.28v1.077h.446c.418 0 1.02.06 1.297-.313.217-.314.263-.926.263-1.314h1.205v4.628zM124.453 97.1h-8.4v-1.224c1.265-.12 1.282-.39 1.282-1.463V89.62c0-1.074 0-1.327-1.283-1.46v-1.224h5.437v1.223c-.433.03-.974.088-1.22.313-.265.24-.202.82-.202 1.148v4.972c0 .85-.108 1.133.943 1.133 1.792 0 3.18-1.267 3.983-2.715l1.066.536-1.607 3.553zM131.917 92.19l-1.142-2.896-1.19 2.895h2.332zm3.813 2.268c.402.954.432 1.208 1.497 1.403l.17.016V97.1h-5.62v-1.224c.325-.047 1.282-.015 1.282-.478 0-.21-.155-.598-.218-.806l-.417-1.104h-3.32l-.432 1.104c-.077.195-.183.49-.183.686 0 .522.847.522 1.218.583l.155.016V97.1h-4.772v-1.224c1.36-.134 1.654-.955 2.117-2.016l2.996-6.926h2.393l3.134 7.524zM148.316 93.293l2.163-6.358h4.923v1.224c-.417.014-.958.073-1.19.298-.26.253-.216.836-.216 1.162v4.777c0 .314-.045.85.155 1.105.202.255.804.344 1.128.374h.123V97.1h-5.62v-1.224h.124c.323-.015.864-.09 1.11-.314.263-.24.25-.836.25-1.165v-4.984L148.64 97.1h-1.744l-2.627-7.806v5.12c0 .297-.03.833.17 1.088.2.255.788.344 1.097.374h.123V97.1h-4.216v-1.224c1.266-.106 1.297-.405 1.297-1.48V89.62c0-1.06-.014-1.357-1.296-1.46v-1.225h4.756l2.116 6.358z" fill="#231f20"/><path d="M161.937 92.19l-1.142-2.896-1.19 2.895h2.332zm3.813 2.268c.402.954.432 1.208 1.497 1.403l.17.016V97.1h-5.62v-1.224c.325-.047 1.282-.015 1.282-.478 0-.21-.155-.598-.218-.806l-.417-1.104h-3.32l-.432 1.104c-.077.195-.183.49-.183.686 0 .522.847.522 1.218.583l.155.016V97.1h-4.772v-1.224c1.36-.134 1.654-.955 2.117-2.016l2.996-6.926h2.393l3.134 7.524z" fill="#231f20"/><path d="M175.11 92.8v-3.18c0-1.043-.013-1.372-1.326-1.46v-1.226h4.138v1.225c-1.31.073-1.36.386-1.36 1.46v7.48h-1.913l-4.834-7.853v5.166c0 .298-.032.85.153 1.09.217.268.787.343 1.204.373V97.1h-4.123v-1.224c.387-.015.91-.09 1.144-.315.262-.237.216-.82.216-1.147V89.62c0-.297.03-.836-.154-1.09-.217-.267-.788-.342-1.205-.37v-1.226h4.525l3.536 5.866zM186.545 94.414c.386-.763.51-1.704.51-2.54 0-1.566-.587-3.686-2.58-3.686-2.1 0-2.795 2.18-2.795 3.896 0 1.642.602 3.763 2.67 3.763 1.02 0 1.747-.6 2.195-1.433m-6.178 1.536c-1.157-1.015-1.667-2.313-1.667-3.822 0-3.223 2.456-5.446 5.714-5.446 3.057 0 5.62 2 5.62 5.105 0 3.268-2.5 5.566-5.822 5.566-1.483 0-2.733-.417-3.845-1.403M206.923 94.13c-.804 2.058-2.874 3.222-5.11 3.222-3.197 0-5.53-2.222-5.53-5.31 0-3.092 2.01-5.36 5.3-5.36.876 0 1.773.193 2.558.597l.188-.345h.927l1.372 3.52-1.185.42-.063-.075c-.372-.612-.742-1.253-1.268-1.762-.554-.536-1.313-.97-2.117-.97-2.114 0-2.733 2.3-2.733 3.927 0 .806.233 1.91.694 2.597.497.776 1.33 1.254 2.29 1.254 1.528 0 2.73-1.12 3.41-2.36l1.267.643zM215.545 94.414c.386-.763.51-1.704.51-2.54 0-1.566-.586-3.686-2.58-3.686-2.1 0-2.794 2.18-2.794 3.896 0 1.642.603 3.763 2.672 3.763 1.022 0 1.744-.6 2.193-1.433m-6.177 1.536c-1.156-1.015-1.668-2.313-1.668-3.822 0-3.223 2.456-5.446 5.715-5.446 3.056 0 5.62 2 5.62 5.105 0 3.268-2.5 5.566-5.818 5.566-1.485 0-2.735-.417-3.85-1.403M227.87 92.8v-3.18c0-1.043-.015-1.372-1.325-1.46v-1.226h4.137v1.225c-1.31.073-1.36.386-1.36 1.46v7.48h-1.913l-4.836-7.853v5.166c0 .298-.03.85.154 1.09.217.268.79.343 1.205.373V97.1h-4.122v-1.224c.387-.015.91-.09 1.144-.315.262-.237.215-.82.215-1.147V89.62c0-.297.03-.836-.154-1.09-.217-.267-.786-.342-1.205-.37v-1.226h4.528l3.533 5.866zM244.87 97.1h-8.402v-1.224c1.267-.12 1.282-.39 1.282-1.463V89.62c0-1.074 0-1.327-1.282-1.46v-1.224h5.438v1.223c-.434.03-.974.088-1.22.313-.265.24-.203.82-.203 1.148v4.972c0 .85-.11 1.133.942 1.133 1.793 0 3.182-1.267 3.986-2.715l1.066.536-1.606 3.553zM254.42 94.414c.385-.763.51-1.704.51-2.54 0-1.566-.587-3.686-2.58-3.686-2.1 0-2.796 2.18-2.796 3.896 0 1.642.602 3.763 2.67 3.763 1.024 0 1.747-.6 2.195-1.433m-6.178 1.536c-1.155-1.015-1.667-2.313-1.667-3.822 0-3.223 2.454-5.446 5.714-5.446 3.055 0 5.62 2 5.62 5.105 0 3.268-2.503 5.566-5.82 5.566-1.485 0-2.734-.417-3.848-1.403M265.632 86.935h.93l1.017 3.03-1.113.403-.138-.195c-.357-.477-.79-1.044-1.296-1.373-.56-.374-1.22-.612-1.9-.612-.698 0-1.7.256-1.7 1.075 0 .73 1.156.895 1.7 1.03l.57.12 1.036.268c.772.21 1.71.42 2.392.837.74.463 1.112 1.327 1.112 2.164 0 2.344-2.115 3.672-4.353 3.672-.896 0-2.053-.268-2.766-.82l-.217.686h-.926l-1.28-3.76 1.176-.374c.8 1.507 2.144 2.762 3.996 2.762.85 0 1.976-.33 1.976-1.315 0-.818-1.017-.97-1.65-1.117l-1.742-.417c-.76-.18-1.747-.405-2.383-.837-.724-.51-1.065-1.33-1.065-2.182 0-2.088 1.947-3.296 3.938-3.296.85 0 1.794.268 2.503.73l.182-.477zM277.984 91.62c.56 0 1.345-.042 1.807-.357.434-.298.68-.835.68-1.328 0-1.046-.77-1.627-1.807-1.627-.26 0-.694.03-.91.194-.184.164-.155.508-.17.73v2.39h.4zm-.4 2.794c0 1.044.014 1.372 1.22 1.462V97.1h-5.25v-1.224c1.266-.09 1.296-.39 1.296-1.462v-4.777c0-1.076-.015-1.36-1.297-1.478v-1.225h5.36c.956 0 2.054 0 2.932.432 1.004.494 1.56 1.508 1.56 2.583 0 2.568-2.36 3.03-4.51 3.03h-1.312v1.434zM288.4 91.293c.62 0 1.344.03 1.917-.223.555-.255 1.018-.702 1.018-1.3 0-.417-.37-.866-.71-1.12-.418-.297-1.02-.343-1.513-.343-.418 0-.974.03-1.19.225-.155.134-.124.448-.124.628v2.133h.6zm5.19 3.404c.604.76.834 1.09 1.93 1.18v1.222h-3.582l-3.322-4.374h-.818v1.717c0 1.014.11 1.343 1.28 1.418l.218.016V97.1h-5.56v-1.224l.126-.015c1.187-.074 1.205-.343 1.205-1.403v-4.88c0-1 .015-1.343-1.143-1.404l-.187-.014v-1.225h5.824c.955 0 2.055.03 2.966.344 1.065.372 1.788 1.222 1.788 2.34 0 1.45-1.143 2.54-2.564 2.793l1.84 2.284zM303.844 94.414c.387-.763.51-1.704.51-2.54 0-1.566-.585-3.686-2.58-3.686-2.1 0-2.794 2.18-2.794 3.896 0 1.642.602 3.763 2.67 3.763 1.023 0 1.746-.6 2.194-1.433m-6.176 1.536c-1.156-1.015-1.668-2.313-1.668-3.822 0-3.223 2.456-5.446 5.715-5.446 3.056 0 5.62 2 5.62 5.105 0 3.268-2.502 5.566-5.818 5.566-1.485 0-2.736-.417-3.85-1.403M312.156 94.92c0 .21-.03.536.17.657.216.134.62.147.88.147 2.242 0 3.167-1.686 3.167-3.744 0-.91-.154-1.91-.727-2.643-.618-.79-1.437-1.03-2.33-1.03-.945 0-1.16.06-1.16.956v5.657zm-4.045.956c1.283-.09 1.31-.405 1.31-1.463V89.62c0-1.042-.012-1.357-1.31-1.46v-1.225h4.773c.864 0 2.193 0 3.01.224.972.268 1.917.97 2.486 1.76.664.895.97 2 .97 3.106 0 1.52-.493 2.924-1.68 3.938-1.283 1.09-2.81 1.135-4.416 1.135h-5.143v-1.224zM325.363 88.158c-1.296.09-1.282.402-1.296 1.494v3.567c0 .61-.05 1.31.308 1.82.37.536.94.805 1.572.805.587 0 1.3-.18 1.716-.612.493-.508.478-1.314.478-1.97v-3.61c0-1.108 0-1.36-1.282-1.51v-1.208h4.156v1.223c-1.297.104-1.312.402-1.312 1.494v3.536c0 1.12.03 2.33-.882 3.165-.863.775-2.207 1-3.337 1-1.046 0-2.207-.196-3.056-.82-1.095-.808-1.127-1.808-1.095-3.03v-3.85c.015-1.12.015-1.346-1.267-1.495v-1.223h5.298v1.223zM342.43 94.13c-.802 2.058-2.875 3.222-5.112 3.222-3.197 0-5.528-2.222-5.528-5.31 0-3.092 2.01-5.36 5.298-5.36.877 0 1.774.193 2.562.597l.184-.345h.927l1.373 3.52-1.186.42-.062-.075c-.37-.612-.74-1.253-1.267-1.762-.554-.536-1.313-.97-2.117-.97-2.113 0-2.732 2.3-2.732 3.927 0 .806.233 1.91.695 2.597.496.776 1.33 1.254 2.288 1.254 1.53 0 2.732-1.12 3.41-2.36l1.27.643zM346.694 88.65c.015-.282.015-.358-.295-.358-.57 0-1.187.374-1.59.732-.43.39-.724.853-1.08 1.432l-1.13-.43 1.236-3.09h8.45l1.234 3.09-1.127.43c-.357-.58-.652-1.042-1.08-1.432-.405-.358-1.022-.732-1.59-.732-.31 0-.31.076-.296.36v5.762c0 .298-.03.85.17 1.09.216.282.756.357 1.097.37h.183V97.1h-5.635v-1.225h.184c.342-.014.882-.09 1.1-.372.197-.24.168-.79.168-1.09v-5.762zM361.848 94.414c.387-.763.51-1.704.51-2.54 0-1.566-.585-3.686-2.578-3.686-2.1 0-2.795 2.18-2.795 3.896 0 1.642.6 3.763 2.67 3.763 1.023 0 1.745-.6 2.193-1.433m-6.176 1.536c-1.156-1.015-1.668-2.313-1.668-3.822 0-3.223 2.456-5.446 5.715-5.446 3.055 0 5.62 2 5.62 5.105 0 3.268-2.503 5.566-5.82 5.566-1.484 0-2.735-.417-3.848-1.403M370.776 91.293c.62 0 1.346.03 1.92-.223.553-.255 1.016-.702 1.016-1.3 0-.417-.37-.866-.71-1.12-.418-.297-1.02-.343-1.513-.343-.418 0-.975.03-1.192.225-.154.134-.123.448-.123.628v2.133h.6zm5.19 3.404c.605.76.836 1.09 1.932 1.18v1.222h-3.582l-3.323-4.374h-.818v1.717c0 1.014.11 1.343 1.282 1.418l.216.016V97.1h-5.558v-1.224l.124-.015c1.186-.074 1.205-.343 1.205-1.403v-4.88c0-1 .014-1.343-1.143-1.404l-.187-.014v-1.225h5.824c.953 0 2.05.03 2.963.344 1.064.372 1.788 1.222 1.788 2.34 0 1.45-1.142 2.54-2.562 2.793l1.84 2.284zM385.33 93.936h-1.207c-.048-.42-.154-.897-.403-1.254-.276-.404-.91-.374-1.356-.374h-.25v1.567c0 .253-.014 1.238.063 1.477.14.373.82.373 1.142.373 2.178 0 3.413-.985 4.617-2.656l1.08.506-1.698 3.524h-9.174v-1.225l.266-.046c.94-.163.97-.492.97-1.416V89.62c0-.82.11-1.237-.878-1.4l-.358-.062v-1.223h8.91l1.53 3.09-1.048.493c-.93-1.33-2.165-2.21-3.896-2.21-.29 0-1.17.014-1.374.27-.2.252-.154.97-.154 1.28v1.077h.45c.417 0 1.02.06 1.296-.313.215-.314.263-.926.263-1.314h1.206v4.628zM396.2 86.935h.93l1.018 3.03-1.114.403-.136-.195c-.356-.477-.79-1.044-1.297-1.373-.557-.374-1.222-.612-1.898-.612-.698 0-1.7.256-1.7 1.075 0 .73 1.156.895 1.7 1.03l.57.12 1.036.268c.77.21 1.71.42 2.392.837.74.463 1.112 1.327 1.112 2.164 0 2.344-2.116 3.672-4.354 3.672-.896 0-2.056-.268-2.765-.82l-.218.686h-.925l-1.282-3.76 1.175-.374c.8 1.507 2.146 2.762 3.998 2.762.85 0 1.977-.33 1.977-1.315 0-.818-1.017-.97-1.65-1.117l-1.744-.417c-.757-.18-1.746-.405-2.382-.837-.723-.51-1.064-1.33-1.064-2.182 0-2.088 1.947-3.296 3.938-3.296.85 0 1.794.268 2.503.73l.183-.477z" fill="#231f20"/></svg>