<svg xmlns="http://www.w3.org/2000/svg" width="480" height="104.915"><path d="M436.95 39.672l-24.954-14.41L426.58 0l24.958 14.406-14.59 25.266zM421.44 66.53l-24.953-14.41 14.584-25.26 24.96 14.405-14.59 25.266z" fill="#8dc63f"/><path d="M463.48 54.99l-24.954-14.407 14.584-25.27 24.954 14.41L463.48 54.99zM447.97 81.848l-24.953-14.405L437.6 42.177l24.96 14.41-14.59 25.26z" fill="#1c75bc"/><path d="M400.847 38.724s-2.048-1.862-2.69-.896c-.86 1.298 6.727 9.485 29.717 16.65 23.075 7.192 36.17 8.234 46.325 8.27l-2.39-5.695-.074-3.594L480 64.61l-10.852 9.36-.004-2.58 4.686-4.78s-27.968-3.086-47.518-9.743c-17.002-5.79-30.9-14.702-28.67-19.546 0 0 1.347-.616 3.205 1.404" fill="#231f20"/><path d="M459.402 71.94l2.207 1.286-10.48 18.38-52.572-29.318-13.327 17.096H0V76.72h383.945l13.968-17.65L450.21 87.84l9.192-15.898z" fill="#1c75bc"/><path d="M8.114 54.542h2.71c3.736 0 6.24-2.3 6.24-5.298 0-2.543-2.013-3.692-4.723-3.692-1.192 0-1.97.082-2.542.244l-1.684 8.746zM5.692 42.388c1.765-.41 4.35-.653 6.81-.653 2.67 0 5.22.53 6.943 1.805 1.558 1.067 2.624 2.75 2.624 5.01 0 4.06-2.873 6.852-6.402 7.92l-.04.125c1.804.698 2.583 2.625 2.83 5.254.33 3.447.532 6.648.987 7.76h-4.93c-.202-.658-.49-3.287-.738-6.61-.203-3.533-1.476-4.802-4.02-4.802H7.412l-2.174 11.41H.52l5.172-27.22zM37.745 58.03l-.783-6.895c-.122-1.477-.284-3.615-.406-5.254h-.08c-.743 1.64-1.48 3.612-2.26 5.255l-3.368 6.896h6.897zm-8.414 3.697l-3.776 7.882h-5.09l13.873-27.672h5.996l3.49 27.67h-5.01l-.78-7.88H29.33zM69.185 69.608l1.845-13.014c.41-2.832.986-6.73 1.684-10.138h-.122c-1.44 3.24-3.08 6.815-4.6 9.728L61.176 69.28h-3.69l-1.437-12.89c-.33-3.078-.578-6.652-.744-9.934h-.08c-.74 3.16-1.56 7.347-2.257 10.138l-3.16 13.014h-4.44l7.023-27.667h6.32l1.482 12.93c.202 2.462.495 5.34.535 7.963h.162c.986-2.624 2.297-5.54 3.49-7.923l6.69-12.97h6.405l-3.65 27.668h-4.642zM93.063 58.03l-.78-6.895c-.12-1.477-.287-3.615-.408-5.254h-.08c-.74 1.64-1.482 3.612-2.26 5.255l-3.368 6.896h6.896zm-8.413 3.697l-3.777 7.882H75.78l13.876-27.672h5.996l3.49 27.67H94.13l-.78-7.88h-8.7zM108.984 54.542h2.71c3.736 0 6.24-2.3 6.24-5.298 0-2.543-2.013-3.692-4.723-3.692-1.187 0-1.97.082-2.542.244l-1.684 8.746zm-2.422-12.154c1.765-.41 4.353-.653 6.816-.653 2.67 0 5.213.53 6.937 1.805 1.562 1.067 2.628 2.75 2.628 5.01 0 4.06-2.876 6.852-6.405 7.92l-.04.125c1.804.698 2.583 2.625 2.83 5.254.33 3.447.536 6.648.987 7.76h-4.93c-.202-.658-.49-3.287-.734-6.61-.206-3.533-1.48-4.802-4.023-4.802h-2.34l-2.175 11.41h-4.722l5.172-27.22zM144.567 53.064c-.49-.122-1.108-.207-1.972-.207-4.43 0-7.842 4.97-7.842 9.525 0 2.094.783 3.818 2.877 3.818 2.215 0 4.925-2.79 5.87-7.883l1.067-5.253zm-1.972 16.543c.04-1.192.207-2.79.37-4.515h-.122c-1.972 3.696-4.597 4.97-7.144 4.97-3.57 0-5.912-2.795-5.912-6.816 0-6.815 4.762-14.08 14.08-14.08 2.175 0 4.516.41 6.033.9l-2.05 10.43c-.573 2.994-.902 6.73-.82 9.11h-4.435zM165.827 53.64c-.576-.41-1.562-.78-2.75-.78-4.106 0-7.145 4.555-7.145 9.03 0 2.422.946 4.312 3.2 4.312 2.135 0 4.683-2.34 5.506-6.486l1.19-6.077zm7.225-13.178l-4.187 22.045c-.454 2.3-.783 4.925-.904 7.103h-4.393l.41-3.574h-.08c-1.806 2.75-4.27 4.025-6.857 4.025-3.57 0-6.073-2.912-6.073-7.432 0-7.018 5.128-13.464 12.48-13.464 1.025 0 2.214.207 3.078.576l1.764-9.278h4.762zM192.586 49.616l-2.63 13.793c-.45 2.38-.737 4.474-.985 6.198h-4.226l.41-3.49h-.082c-1.93 2.59-4.434 3.94-6.94 3.94-2.914 0-5.21-1.558-5.21-5.663 0-1.067.118-2.215.41-3.57l2.134-11.21h4.763l-2.054 10.922c-.207.986-.33 1.967-.33 2.75 0 1.64.66 2.832 2.545 2.832 2.22 0 4.804-2.63 5.587-6.776l1.846-9.728h4.763zM207.972 53.064c-.495-.122-1.107-.207-1.97-.207-4.435 0-7.843 4.97-7.843 9.525 0 2.094.782 3.818 2.875 3.818 2.215 0 4.925-2.79 5.87-7.883l1.067-5.253zm-1.97 16.543c.04-1.192.206-2.79.368-4.515h-.122c-1.97 3.696-4.596 4.97-7.144 4.97-3.57 0-5.91-2.795-5.91-6.816 0-6.815 4.762-14.08 14.08-14.08 2.18 0 4.516.41 6.033.9l-2.053 10.43c-.572 2.994-.9 6.73-.82 9.11h-4.433zM214.124 69.608l2.584-13.793c.495-2.38.78-4.475 1.026-6.2h4.232l-.414 3.616h.08c1.85-2.713 4.394-4.064 7.19-4.064 2.83 0 5.087 1.724 5.087 5.5 0 .902-.163 2.297-.366 3.323l-2.22 11.618h-4.762l2.138-11.29c.122-.738.243-1.598.243-2.38 0-1.64-.616-2.874-2.507-2.874-2.174 0-4.96 2.63-5.83 7.307l-1.72 9.238h-4.762zM249.337 54.79c0-1.275-1.027-2.054-2.548-2.054-2.995 0-4.967 2.67-5.54 5.092 4.926.08 8.087-.617 8.087-2.998v-.04zm2.012 13.67c-1.973 1.027-4.642 1.6-7.06 1.6-5.546 0-8.21-3.41-8.21-8.293 0-6.037 4.433-12.605 11.33-12.605 3.94 0 6.442 2.3 6.442 5.627 0 5.13-5.376 6.77-13.096 6.608-.08.697.08 2.052.536 2.83.78 1.356 2.215 2.054 4.105 2.054 2.256 0 4.065-.576 5.497-1.314l.455 3.493zM254.298 69.608l2.34-12.316c.536-2.832.78-5.87 1.027-7.676h4.146c-.125 1.355-.246 2.75-.45 4.227h.123c1.355-2.71 3.53-4.677 6.28-4.677.328 0 .697.04 1.026.08l-.946 4.678c-.244-.04-.572-.08-.9-.08-3.41 0-5.583 3.448-6.366 7.715l-1.517 8.048H254.3zM272.768 61.685c0 2.75 1.477 4.682 3.9 4.682 3.57 0 5.95-4.93 5.95-8.91 0-2.052-.9-4.6-3.817-4.6-3.813 0-6.032 5.092-6.032 8.828m14.82-4.227c0 6.77-4.763 12.6-11.574 12.6-5.055 0-8.175-3.488-8.175-8.25 0-6.772 4.72-12.642 11.537-12.642 5.375 0 8.21 3.858 8.21 8.292M289.1 65.133c1.026.576 2.993 1.355 4.803 1.355 1.93-.04 3.08-1.148 3.08-2.462 0-1.274-.658-2.053-2.63-3.08-2.3-1.233-3.943-2.916-3.943-5.213 0-3.862 3.37-6.568 8.093-6.568 2.093 0 3.814.49 4.718 1.027l-1.232 3.448c-.738-.41-2.093-.905-3.736-.905-1.806 0-3.035.986-3.035 2.34 0 1.11.9 1.888 2.584 2.752 2.176 1.188 4.147 2.83 4.147 5.38 0 4.39-3.695 6.85-8.5 6.85-2.335-.04-4.514-.697-5.58-1.476l1.232-3.447zM300.546 74.576c1.562-3.12 3.37-7.428 4.353-10.836l5.374-.414c-1.724 3.862-4.227 8.292-6.195 10.92l-3.534.33zM319.712 64.148c1.562 1.026 3.822 1.764 6.24 1.764 2.67 0 5.13-1.436 5.13-4.105 0-1.805-1.187-3.035-3.9-4.475-3.202-1.72-5.62-3.94-5.62-7.225 0-5.294 4.596-8.62 10.18-8.62 3.078 0 5.09.782 6.157 1.395l-1.56 3.984c-.904-.49-2.753-1.274-5.01-1.234-3.038 0-4.762 1.765-4.762 3.615 0 1.886 1.558 2.998 4.146 4.475 3.367 1.764 5.376 3.98 5.376 7.347 0 5.54-4.47 8.99-10.67 8.99-3.367-.042-6.118-.987-7.347-1.973l1.64-3.94zM340.56 70.02c-1.684 0-2.832-1.275-2.832-2.958 0-1.927 1.396-3.53 3.367-3.53 1.72 0 2.913 1.234 2.913 3.04 0 1.966-1.436 3.447-3.408 3.447h-.04zM362.436 58.03l-.78-6.895c-.12-1.477-.287-3.615-.41-5.254h-.08c-.738 1.64-1.48 3.612-2.26 5.255l-3.367 6.896h6.896zm-8.414 3.697l-3.777 7.882h-5.09l13.877-27.672h5.992l3.49 27.67h-5.01l-.78-7.88h-8.702zM373.35 70.02c-1.684 0-2.832-1.275-2.832-2.958 0-1.927 1.395-3.53 3.367-3.53 1.724 0 2.913 1.234 2.913 3.04 0 1.966-1.436 3.447-3.408 3.447h-.04z" fill="#009444"/><path d="M73.334 99.475l-.977-3.063c-.24-.754-.443-1.602-.63-2.32h-.032c-.186.718-.37 1.586-.592 2.32l-.957 3.063h3.188zm-3.558 1.716l-1.07 3.523h-2.34l3.982-12.43h2.893l4.042 12.43h-2.435l-1.127-3.522h-3.944zM88.134 104.14c-.795.298-2.34.703-4 .703-2.105 0-3.687-.535-4.868-1.66-1.107-1.05-1.752-2.693-1.736-4.575 0-3.927 2.803-6.454 6.917-6.454 1.53 0 2.73.316 3.302.592l-.5 1.825c-.682-.295-1.513-.534-2.824-.534-2.653 0-4.515 1.566-4.515 4.462 0 2.824 1.733 4.5 4.314 4.5.81 0 1.42-.11 1.716-.256v-3.1h-2.195v-1.79h4.39v6.29zM96.962 99.2h-4.686v3.65h5.237v1.862h-7.505v-12.43h7.23v1.866h-4.962v3.21h4.686v1.84zM99.054 104.713v-12.43h2.584l3.205 5.33c.832 1.384 1.55 2.82 2.122 4.167h.04c-.15-1.66-.202-3.262-.202-5.164v-4.333h2.1v12.43h-2.344l-3.246-5.477c-.79-1.347-1.623-2.876-2.23-4.28l-.058.02c.093 1.603.113 3.246.113 5.29v4.447h-2.086zM113.45 94.183h-3.54v-1.898h9.386v1.898h-3.578v10.532h-2.268V94.183zM127.253 99.2h-4.682v3.65h5.234v1.862H120.3v-12.43h7.23v1.866h-4.96v3.21h4.683v1.84zM129.29 102.242c.738.426 1.846.79 3.006.79 1.456 0 2.268-.68 2.268-1.695 0-.937-.625-1.493-2.21-2.065-2.05-.738-3.36-1.825-3.36-3.614 0-2.03 1.7-3.578 4.39-3.578 1.346 0 2.344.296 2.99.63l-.557 1.824c-.442-.24-1.306-.592-2.47-.592-1.436 0-2.065.775-2.065 1.497 0 .956.718 1.398 2.38 2.043 2.155.812 3.21 1.9 3.21 3.688 0 1.993-1.513 3.745-4.722 3.745-1.31 0-2.673-.385-3.36-.79l.5-1.883zM147.872 99.475l-.977-3.063c-.24-.754-.443-1.602-.625-2.32h-.037c-.186.718-.37 1.586-.592 2.32l-.956 3.063h3.188zm-3.558 1.716l-1.07 3.523h-2.34l3.982-12.43h2.893l4.04 12.43h-2.435l-1.123-3.522h-3.948zM155.37 102.98c.314.057.792.057 1.255.057 2.95.016 4.702-1.607 4.702-4.76.02-2.745-1.566-4.315-4.406-4.315-.72 0-1.236.056-1.55.13v8.888zm-2.266-10.532c.993-.166 2.267-.255 3.614-.255 2.32 0 3.927.48 5.07 1.436 1.198.977 1.936 2.453 1.936 4.575 0 2.21-.754 3.87-1.935 4.94-1.238 1.125-3.21 1.697-5.628 1.697-1.326 0-2.32-.073-3.06-.166V92.448zM167.5 92.283v7.246c0 2.437 1.013 3.56 2.542 3.56 1.643 0 2.62-1.123 2.62-3.56v-7.247h2.27v7.1c0 3.838-1.977 5.533-4.963 5.533-2.877 0-4.74-1.602-4.74-5.513v-7.12h2.27zM182.54 99.475l-.98-3.063c-.238-.754-.44-1.602-.628-2.32h-.032c-.187.718-.37 1.586-.593 2.32l-.957 3.063h3.19zm-3.56 1.716l-1.07 3.523h-2.34l3.983-12.43h2.892l4.04 12.43h-2.433l-1.128-3.522h-3.943zM187.768 104.713v-12.43h2.584l3.205 5.33c.832 1.384 1.55 2.82 2.122 4.167h.036c-.147-1.66-.203-3.262-.203-5.164v-4.333h2.1v12.43h-2.34l-3.245-5.477c-.79-1.347-1.623-2.876-2.23-4.28l-.058.02c.093 1.603.113 3.246.113 5.29v4.447h-2.085zM206.738 99.2h-4.685v3.65h5.24v1.862h-7.508v-12.43h7.23v1.866h-4.962v3.21h4.685v1.84zM211.08 97.946h1.348c1.53 0 2.486-.81 2.486-2.05 0-1.362-.957-1.987-2.434-1.987-.718 0-1.18.052-1.4.11v3.926zm-2.25-5.497c.847-.147 2.12-.257 3.43-.257 1.79 0 3.007.292 3.835.994.686.572 1.07 1.44 1.07 2.49 0 1.604-1.086 2.69-2.25 3.117v.057c.884.33 1.423 1.197 1.736 2.398.386 1.546.72 2.986.974 3.465h-2.34c-.183-.37-.48-1.384-.828-2.933-.35-1.623-.94-2.138-2.23-2.175h-1.145v5.108h-2.25V92.45zM220.624 98.554c0 2.527 1.274 4.555 3.45 4.555 2.193 0 3.43-2.05 3.43-4.65 0-2.34-1.164-4.572-3.43-4.572-2.253 0-3.45 2.102-3.45 4.666m9.274-.183c0 4.167-2.523 6.545-5.955 6.545-3.5 0-5.716-2.674-5.716-6.325 0-3.817 2.397-6.507 5.902-6.507 3.63 0 5.768 2.746 5.768 6.288M231.35 102.242c.74.426 1.846.79 3.006.79 1.46 0 2.268-.68 2.268-1.695 0-.937-.625-1.493-2.21-2.065-2.046-.738-3.36-1.825-3.36-3.614 0-2.03 1.7-3.578 4.394-3.578 1.342 0 2.34.296 2.985.63l-.55 1.824c-.443-.24-1.312-.592-2.476-.592-1.436 0-2.065.775-2.065 1.497 0 .956.722 1.398 2.38 2.043 2.16.812 3.21 1.9 3.21 3.688 0 1.993-1.513 3.745-4.722 3.745-1.31 0-2.673-.385-3.355-.79l.495-1.883zM245.913 104.713v-5.185l-3.927-7.245h2.58l1.493 3.193c.425.92.737 1.618 1.07 2.47h.037c.312-.795.665-1.57 1.087-2.47l1.493-3.193h2.564l-4.13 7.193v5.237h-2.267zM258.872 102.98c.313.057.792.057 1.254.057 2.95.016 4.702-1.607 4.702-4.76.02-2.745-1.566-4.315-4.406-4.315-.722 0-1.237.056-1.55.13v8.888zm-2.267-10.532c.994-.166 2.267-.255 3.614-.255 2.32 0 3.926.48 5.07 1.436 1.197.977 1.935 2.453 1.935 4.575 0 2.21-.754 3.87-1.935 4.94-1.237 1.125-3.21 1.697-5.626 1.697-1.327 0-2.32-.073-3.06-.166V92.448zM275.702 99.2h-4.686v3.65h5.242v1.862h-7.51v-12.43h7.23v1.866h-4.962v3.21h4.686v1.84zM290.06 104.344c-.535.276-1.716.572-3.208.572-3.948 0-6.345-2.49-6.345-6.268 0-4.093 2.844-6.568 6.64-6.568 1.494 0 2.56.313 3.027.556l-.503 1.805c-.587-.258-1.4-.478-2.43-.478-2.526 0-4.352 1.587-4.352 4.573 0 2.73 1.607 4.482 4.333 4.482.922 0 1.88-.186 2.47-.462l.37 1.79zM297.725 99.475l-.978-3.063c-.24-.754-.442-1.602-.628-2.32h-.034c-.187.718-.37 1.586-.592 2.32l-.958 3.063h3.19zm-3.558 1.716l-1.07 3.523h-2.346l3.99-12.43h2.892l4.04 12.43h-2.434l-1.128-3.522h-3.943zM305.203 97.946h1.347c1.53 0 2.49-.81 2.49-2.05 0-1.362-.96-1.987-2.437-1.987-.718 0-1.18.052-1.4.11v3.926zm-2.252-5.497c.85-.147 2.123-.257 3.434-.257 1.79 0 3.006.292 3.833.994.686.572 1.07 1.44 1.07 2.49 0 1.604-1.086 2.69-2.246 3.117v.057c.885.33 1.42 1.197 1.733 2.398.385 1.546.718 2.986.978 3.465h-2.344c-.183-.37-.48-1.384-.828-2.933-.353-1.623-.94-2.138-2.23-2.175h-1.145v5.108h-2.252V92.45zM322.953 104.14c-.79.298-2.34.703-4 .703-2.106 0-3.688-.535-4.868-1.66-1.108-1.05-1.753-2.693-1.737-4.575 0-3.927 2.808-6.454 6.917-6.454 1.534 0 2.726.316 3.302.592l-.5 1.825c-.68-.295-1.512-.534-2.818-.534-2.658 0-4.52 1.566-4.52 4.462 0 2.824 1.732 4.5 4.316 4.5.81 0 1.42-.11 1.712-.256v-3.1h-2.195v-1.79h4.39v6.29zM330.877 99.475l-.977-3.063c-.24-.754-.443-1.602-.63-2.32h-.032c-.186.718-.373 1.586-.592 2.32l-.957 3.063h3.187zm-3.557 1.716l-1.07 3.523h-2.346l3.988-12.43h2.892l4.04 12.43h-2.433l-1.127-3.522h-3.943zM7.924 32.134c.34.045.706.06 1.09.06 1.344 0 2.423-.43 3.145-1.224.782-.828 1.18-2.008 1.18-3.306 0-1.656-.868-2.763-2.95-2.763-.4 0-.827.033-1.107.09l-1.36 7.144zm-.134-8.397c.812-.15 1.7-.224 2.63-.224 1.593 0 2.847.414 3.646 1.197.678.62 1.136 1.55 1.136 2.92 0 1.875-.77 3.59-2.024 4.622-1.152.945-2.613 1.36-4.65 1.36-1.046 0-2.02-.09-2.584-.163l1.846-9.713zM20.372 28.208c0-.454-.37-.738-.913-.738-1.08 0-1.79.96-1.997 1.83 1.773.032 2.91-.22 2.91-1.076v-.016zm.722 4.917c-.706.37-1.668.576-2.536.576-1.992 0-2.953-1.224-2.953-2.98 0-2.17 1.594-4.532 4.073-4.532 1.416 0 2.316.827 2.316 2.02 0 1.846-1.93 2.438-4.706 2.377-.032.252.03.74.19 1.02.28.485.8.737 1.478.737.81 0 1.46-.207 1.98-.475l.158 1.258zM22.338 31.928c.37.207 1.08.487 1.73.487.692-.016 1.102-.414 1.102-.885 0-.458-.235-.738-.94-1.107-.83-.442-1.42-1.047-1.42-1.874 0-1.39 1.212-2.362 2.908-2.362.754 0 1.375.174 1.7.37l-.447 1.236c-.262-.146-.75-.324-1.34-.324-.65 0-1.093.353-1.093.84 0 .4.325.68.93.99.782.43 1.492 1.017 1.492 1.934 0 1.578-1.33 2.467-3.056 2.467-.843-.015-1.626-.25-2.008-.53l.442-1.242zM33.13 27.795c-.206-.146-.56-.28-.99-.28-1.475 0-2.567 1.64-2.567 3.246 0 .873.34 1.555 1.152 1.555.767 0 1.684-.844 1.98-2.337l.426-2.183zm2.598-4.738l-1.506 7.927c-.162.828-.28 1.77-.324 2.552H32.32l.146-1.282h-.03c-.648.986-1.532 1.444-2.465 1.444-1.28 0-2.182-1.047-2.182-2.67 0-2.527 1.846-4.843 4.487-4.843.37 0 .795.073 1.108.207l.633-3.335h1.712zM40.235 28.208c0-.454-.37-.738-.912-.738-1.08 0-1.79.96-1.996 1.83 1.773.032 2.908-.22 2.908-1.076v-.016zm.723 4.917c-.706.37-1.668.576-2.536.576-1.992 0-2.953-1.224-2.953-2.98 0-2.17 1.593-4.532 4.072-4.532 1.416 0 2.316.827 2.316 2.02 0 1.846-1.93 2.438-4.706 2.377-.032.252.03.74.19 1.02.28.485.796.737 1.478.737.81 0 1.46-.207 1.975-.475l.163 1.258zM48.256 25.596h-.03l-1.77.828-.103-1.347 2.45-1.136h1.433l-1.818 9.595H46.75l1.506-7.94zM55.935 25.124c-.99 0-1.814 1.152-1.814 2.304 0 .856.472 1.444 1.27 1.444.662 0 1.238-.352 1.563-.84.09-.117.162-.25.207-.44.06-.225.09-.565.09-.874 0-.9-.386-1.594-1.3-1.594h-.015zm-3.603 7.116c.252.028.52.012.9-.033.666-.073 1.36-.308 1.964-.75.71-.487 1.286-1.213 1.64-2.114l-.03-.012c-.52.577-1.297.857-1.98.857-1.55 0-2.46-1.136-2.46-2.556 0-2.02 1.65-3.85 3.747-3.85 1.976 0 2.864 1.417 2.864 3.202 0 2.333-1.24 4.385-2.45 5.375-.917.75-2.142 1.193-3.31 1.298-.487.03-.812.03-1.092.017l.207-1.432zM65.916 25.418h-3.334l-.593 1.92c.162-.03.283-.03.442-.03.486 0 1.27.135 1.845.532.727.443 1.092 1.254 1.092 2.126 0 2.36-1.95 3.732-4.204 3.732-1.063 0-1.952-.28-2.304-.543l.47-1.375c.37.223 1.095.474 1.89.474 1.197 0 2.362-.8 2.362-1.98 0-.93-.532-1.638-2.345-1.638-.443 0-.756.032-1.137.06l1.355-4.754h4.755l-.297 1.477zM69.523 32.356c1.12 0 1.83-1.282 1.83-2.39 0-.978-.515-1.51-1.343-1.51-.65 0-1.286.447-1.667 1.08-.09.15-.146.325-.163.475-.028.208-.044.415-.044.634 0 .973.487 1.712 1.37 1.712h.017zm3.457-7.128c-.24 0-.503 0-.844.044-1.728.236-3.01 1.343-3.57 2.816l.028.016c.548-.588 1.327-.957 2.138-.957 1.465.012 2.394 1.12 2.394 2.657 0 1.976-1.522 3.894-3.692 3.894-2.008 0-2.982-1.415-2.982-3.26 0-2.216 1.108-4.164 2.394-5.21 1.018-.828 2.3-1.302 3.586-1.404.353-.028.592-.028.795-.012l-.247 1.416z" fill="#1c75bc"/></svg>