<svg xmlns="http://www.w3.org/2000/svg" width="400" height="127.534"><g fill="#1d1d1b"><path d="M177.957 19.96V0c-20.843 6.666-37.316 22.508-44.25 42.556h20.75c4.965-9.836 13.267-17.818 23.5-22.595M245.543 42.56h20.75C259.358 22.51 242.885 6.67 222.05.002v19.96c10.234 4.77 18.542 12.753 23.493 22.596M154.46 84.975h-20.743c6.92 20.047 23.4 35.89 44.243 42.556v-19.96c-10.234-4.77-18.536-12.76-23.5-22.595M222.045 107.573v19.96c20.844-6.672 37.316-22.507 44.257-42.555h-20.765c-4.95 9.836-13.258 17.82-23.492 22.595M222.045 34.81c-6.174-4.364-13.787-6.947-22.045-6.947-8.244 0-15.858 2.583-22.038 6.948-3.09 2.172-5.812 4.784-8.077 7.745H230.122c-2.266-2.96-5-5.573-8.077-7.744M222.045 84.975h-52.16c2.265 2.967 4.986 5.572 8.077 7.744 6.18 4.363 13.794 6.947 22.038 6.947 8.258 0 15.87-2.584 22.045-6.948 3.076-2.173 5.81-4.778 8.077-7.745h-8.077zM32.156 76.674l-7.375-7.34c2.346-.62 4.2-1.73 5.566-3.306 1.462-1.694 2.2-3.713 2.2-6.05 0-3.43-1.266-6.037-3.8-7.81-2.214-1.55-5.1-2.33-8.706-2.33H0v27.93h4.87V54.7h15.945c4.415 0 6.63 1.745 6.63 5.234 0 1.722-.703 3.04-2.092 3.973-1.23.79-2.743 1.18-4.538 1.18H7.722v4.82h10.516l7.81 7.86h7.2l-.043-.044H31.52l.636-1.05z"/><path d="M54.297 52.502c-.406-.71-.934-1.318-1.593-1.846-.767-.593-1.49-.897-2.207-.897-.65 0-1.39.317-2.207.947-.68.543-1.21 1.143-1.593 1.795l-14.54 24.173 1.05 1.05h4.574L50.375 57.04l4.856 8.055h-7.396l-2.94 4.827H58.14l4.704 7.81 4.712.028.455-1.852-13.713-23.406zM31.518 77.725h1.687l-1.05-1.05-.637 1.05z"/><path d="M103.528 50.3c-.6-.57-1.252-.86-1.962-.86-1.064 0-2.07.91-3.032 2.743l-9.358 18.274-9.322-18.274c-.955-1.832-1.96-2.743-3.032-2.743-.724 0-1.376.267-1.933.817-.565.543-.927 1.18-1.086 1.918l-5.79 23.732 1.085 1.867-1.55-.007-.007.043h5.523l4.01-19.54 9.357 17.992c.652 1.26 1.607 1.88 2.86 1.88 1.12 0 1.99-.614 2.62-1.837l9.364-18.036 4.04 19.548h5.485l-6.21-25.635c-.196-.738-.55-1.368-1.064-1.882"/><path d="M68.01 75.91l-.462 1.852 1.556.015-1.093-1.867zM141.57 70.42c-1.737 1.665-3.944 2.498-6.643 2.498h-7.817c-2.663 0-4.87-.84-6.6-2.497-1.73-1.664-2.59-3.828-2.59-6.498 0-2.7.86-4.907 2.597-6.63 1.73-1.722 3.93-2.57 6.6-2.57h7.81c2.7 0 4.906.855 6.643 2.577 1.737 1.715 2.6 3.922 2.6 6.622 0 2.67-.863 4.84-2.6 6.5m3.503-16.8c-2.627-2.51-6-3.77-10.146-3.77h-7.81c-4.118 0-7.483 1.252-10.118 3.764-2.635 2.51-3.945 5.804-3.952 9.893 0 4.117 1.34 7.526 3.995 10.218 2.65 2.707 6.007 4.046 10.067 4.046h7.817c4.09.007 7.447-1.34 10.096-4.038 2.64-2.7 3.973-6.11 3.973-10.227 0-4.09-1.31-7.383-3.923-9.887M150.95 77.784h.602c-.21-.68-.42-1.375-.6-2.07v2.07z"/><path d="M155.78 58.402l17.904 18c1.122 1.107 2.128 1.672 3.033 1.672 1.23 0 1.83-.898 1.83-2.707l.008-25.505h-4.864l-.006 19.382-17.905-17.95c-.956-.96-1.876-1.44-2.773-1.44-.66 0-1.165.24-1.52.717-.354.48-.528 1.044-.528 1.695l-.008 23.45c.188.7.39 1.382.593 2.07h4.234V58.4zM223.327 50.32c-.593-.58-1.252-.862-1.96-.862-1.065 0-2.07.912-3.026 2.743l-9.365 18.276-9.32-18.275c-.95-1.83-1.963-2.742-3.034-2.742-.723 0-1.374.268-1.93.818-.558.543-.92 1.18-1.087 1.918l-6.26 25.635h5.522l4.01-19.542 9.365 17.992c.65 1.26 1.6 1.882 2.86 1.882 1.113 0 1.982-.615 2.61-1.838l9.366-18.03 4.046 19.542h5.486L224.39 52.2c-.187-.737-.55-1.367-1.063-1.88M261.37 70.44c-1.737 1.664-3.944 2.497-6.644 2.497H246.91c-2.664 0-4.864-.84-6.6-2.505-1.73-1.657-2.592-3.82-2.592-6.492.007-2.7.86-4.907 2.598-6.63 1.73-1.722 3.938-2.568 6.6-2.568h7.817c2.693 0 4.907.854 6.637 2.576 1.737 1.715 2.606 3.923 2.606 6.622 0 2.67-.87 4.842-2.606 6.5m3.503-16.798c-2.62-2.512-6-3.77-10.14-3.77H246.917c-4.11 0-7.484 1.25-10.118 3.762-2.635 2.512-3.945 5.805-3.945 9.894 0 4.118 1.33 7.527 3.987 10.22 2.657 2.706 6.015 4.045 10.068 4.045h7.816c4.09 0 7.455-1.34 10.096-4.04 2.65-2.698 3.974-6.107 3.974-10.225 0-4.082-1.31-7.382-3.923-9.886M300.322 66.068c1.47-1.686 2.2-3.698 2.2-6.05 0-3.43-1.267-6.036-3.8-7.81-2.207-1.548-5.11-2.323-8.706-2.323l-20.026-.007-.015 27.922h4.87V54.742h15.945c4.415 0 6.63 1.744 6.622 5.24 0 1.715-.694 3.04-2.077 3.966-1.23.782-2.743 1.187-4.545 1.187l-13.078-.007v4.827h10.502l7.81 7.853h7.193l-8.46-8.425c2.344-.63 4.197-1.73 5.565-3.314M305.39 77.807h24.122v-4.864l-19.26-.007.008-18.188h19.252v-4.863H305.39v27.922z"/><path d="M328.237 61.208h-15.944v4.864h15.944v-4.864zM355.596 69.27L337.69 51.32c-.948-.96-1.882-1.44-2.78-1.44-.65 0-1.157.24-1.52.718-.354.477-.527 1.042-.527 1.693v25.52h4.827V58.428l17.906 18c1.12 1.122 2.127 1.672 3.025 1.672 1.23 0 1.846-.898 1.846-2.693l.007-25.52h-4.87l-.007 19.383zM392.574 70.46c-1.73 1.664-3.944 2.496-6.644 2.496h-7.81c-2.677 0-4.87-.84-6.6-2.504-1.73-1.657-2.59-3.82-2.59-6.492 0-2.707.86-4.907 2.59-6.63 1.73-1.722 3.93-2.57 6.6-2.57h7.818c2.7 0 4.907.855 6.644 2.57 1.737 1.723 2.598 3.93 2.598 6.63 0 2.67-.87 4.842-2.606 6.5m3.503-16.806c-2.62-2.504-6-3.764-10.14-3.764h-7.816c-4.11 0-7.482 1.253-10.117 3.764-2.627 2.51-3.944 5.804-3.944 9.893 0 4.12 1.33 7.527 3.987 10.22 2.656 2.706 6.014 4.045 10.074 4.045h7.81c4.097 0 7.455-1.34 10.097-4.038 2.65-2.7 3.973-6.1 3.973-10.227.007-4.08-1.31-7.382-3.923-9.893"/></g></svg>