<svg xmlns="http://www.w3.org/2000/svg" width="420" height="205.295"><path d="M12.125 182.29l9.675-2.522c1.593-.43 6.802-2.644 6.802-4.55 0-1.206-4.195-1.243-5.05-1.164l-7.19.5c.038 1.364-.663 2.257-1.364 3.345l-2.873 4.39zm-5.012 7.344l-3.345 4.858c.467 1.36-1.826 2.8-2.873 2.8-.467 0-.897-.314-.897-.82 0-.737.276-1.28.664-1.905l3.61-5.942c-.616-.16-2.018-.66-1.863-1.44.35-2.022 2.372-3.886 5.983-4.002l5.755-8.316c-2.84.467-5.713.972-8.357 2.023v.075c2.45.233 3.224.08 3.224.663 0 .308-.542.425-.738.425l-3.032.313c-1.084.117-2.485.388-3.61.388-.585 0-1.402-.196-1.402-.93 0-1.247 1.205-3.732 1.985-4.704 1.827-2.177 10.217-4.237 18.07-4.237 3.573 0 11.15.35 11.15 5.325 0 1.98-1.242 4.976-2.798 6.218-3.187 2.565-5.13 2.523-19.12 5.13v.074l10.496 3.345c6.68 2.135 6.526 3.144 6.722 3.457.738 1.36.892 4.275-.43 4.275-1.01 0-3.77-1.36-4.816-1.748l-14.38-5.326zM39.058 183.38c0-.272-.196-.506-.467-.43-1.942.508-4.194 2.372-5.245 4.937 3.42-1.168 5.75-3.85 5.713-4.508m4.817 6.254c-2.37 2.76-6.643 6.414-10.493 6.414-2.835 0-4.157-2.527-4.232-5.092-.16-5.092 5.475-10.296 10.53-10.26 1.242 0 2.798.314 2.798 1.87 0 1.9-1.906 4.774-9.367 7.227l-.078.855c-.117 1.476 1.168 1.976 2.41 1.976 2.76 0 6.027-2.83 8.082-4.466l.35 1.476z" fill="#00569c"/><path d="M44.965 191.773c.038.192.197.892.776.78.78-.16 1.986-.042 9.68-7.815l-.08-.075c-9.25 2.836-10.374 5.204-10.374 7.11m4.704 1.01c-.738.583-3.228 2.6-4.12 2.6-1.09 0-3.345-2.564-3.42-4.582-.16-4.857 9.95-9.832 14.454-9.95 1.79-.036 2.527 1.402 2.527 1.87 0 .467-1.008.854-1.358.967.738.313 1.125.738 1.125 1.597 0 1.243-3.382 3.962-3.382 5.793 0 .66.584.93 1.205.93 1.635 0 3.85-1.986 5.522-3.112l.31 1.44c-1.674 1.905-6.878 6.058-8.784 6.058-1.28 0-1.864-.93-1.864-2.055 0-1.243.934-3.303 1.44-4.354l-.08-.075-3.574 2.872z" fill="#00569c"/><path d="M66.574 184.468c2.76-2.565 5.167-6.298 5.868-8.512-1.902.93-4.12 4.43-5.947 8.432l.08.08zm8.045 5.204c-2.14 2.22-5.794 6.143-9.134 6.143-2.836 0-3.457-2.76-3.457-5.055 0-4.078 1.746-8.47 4.273-11.58 3.42-4.233 7.11-7.85 8.353-7.85.663 0 .817.936.78 1.44-.276 3.69-1.285 7.11-9.717 15.27-.35.665-.468 1.753-.272 2.683.35.892.893 1.672 1.944 1.672 2.135 0 5.13-2.49 6.685-3.886l.542 1.162zM100.58 181.514c1.438 0 3.03-.547 3.03.19 0 .782-3.302.973-3.923 1.403l-.855 1.28c1.434.392 2.756.467 4 .392 7.618-.43 12.63-5.99 12.206-8.438-.43-2.368-7.736-2.835-9.52-2.835-.043 1.046-.276 1.555-.86 2.373l-4.08 5.634zm-6.802 10.1c.35.08.738.275.738.7 0 .505-.972 1.79-1.98 3.15-.506.7-1.323 1.826-2.295 1.826-.928 0-1.316-.542-1.316-1.397 0-1.71 2.756-5.947 3.69-7.577-.934-.584-1.75-1.285-1.75-2.49 0-2.252 4.586-3.303 6.216-3.808l6.18-8.16c-6.8.116-12.2 2.606-13.37 2.606-.228 0-.62-.042-.62-.393 0-.928 2.256-3.923 2.877-4.778.7-.97 1.864-1.28 2.953-1.593 3.382-.972 6.956-1.36 10.455-1.36 9.637 0 12.318 3.11 12.318 7.928 0 8.278-10.067 14.108-22.502 12.706l-1.592 2.64zM120.284 184.468c2.76-2.565 5.167-6.298 5.867-8.512-1.905.93-4.12 4.43-5.946 8.432l.08.08zm8.044 5.204c-2.14 2.22-5.792 6.143-9.133 6.143-2.835 0-3.457-2.76-3.457-5.055 0-4.078 1.748-8.47 4.275-11.58 3.42-4.233 7.11-7.85 8.353-7.85.663 0 .817.936.78 1.44-.276 3.69-1.285 7.11-9.717 15.27-.35.665-.468 1.753-.272 2.683.35.892.892 1.672 1.943 1.672 2.136 0 5.13-2.49 6.686-3.886l.542 1.162z" fill="#00569c"/><path d="M129.26 191.773c.038.192.197.892.776.78.78-.16 1.986-.042 9.68-7.815l-.08-.075c-9.25 2.836-10.375 5.204-10.375 7.11m4.705 1.01c-.738.583-3.228 2.6-4.12 2.6-1.09 0-3.345-2.564-3.42-4.582-.16-4.857 9.95-9.832 14.454-9.95 1.788-.036 2.526 1.402 2.526 1.87 0 .467-1.01.854-1.36.967.74.313 1.127.738 1.127 1.597 0 1.243-3.378 3.962-3.378 5.793 0 .66.58.93 1.2.93 1.636 0 3.85-1.986 5.522-3.112l.31 1.44c-1.674 1.905-6.878 6.058-8.784 6.058-1.28 0-1.864-.93-1.864-2.055 0-1.243.93-3.303 1.438-4.354l-.08-.075-3.573 2.872z" fill="#00569c"/><path d="M146.867 189.557c1.44.08 2.294 1.285 3.032 2.294 2.33-1.438 2.952-2.1 3.068-4.353-.116-.817-.27-1.864-.504-3.186l-5.597 5.247zm13.21-.817l.39 1.476c-2.37 2.373-6.606 5.91-9.713 5.755-2.602-.115-5.48-1.596-6.18-4.432-.234.234-.505.505-.855.505-.39 0-.665-.388-.665-.74 0-.503.626-1.045.935-1.358l8.432-7.736c.08-1.28.817-2.524 2.22-2.524 1.162 0 1.396.35 1.512 1.44.155 1.475.738 2.797.738 4.507 0 3.186-2.564 5.555-5.05 7.073 2.486.425 4.004-.738 5.905-2.177l2.33-1.79z" fill="#00569c"/><path d="M173.994 179.22c-1.827 3.695-2.14 5.13-6.414 4.86-1.322 1.708-3.536 4.894-3.536 7.225 0 .855.275 1.364 1.168 1.364 1.242 0 2.644-1.173 6.68-4.046l.196 1.71c-2.29 2.097-6.49 6.255-9.79 6.255-1.52 0-2.45-1.048-2.45-2.603 0-1.28.505-2.76 1.01-3.887l-.08-.08-1.976 1.594-.43-1.476c2.332-1.785 4.47-3.766 5.905-6.214-2.368 0-1.63-.158-3.69.155l.43-.702c2.097-3.42 2.405-4.04 6.563-4.195 1.168-1.593 2.023-3.42 4.275-3.42.504 0 1.247.117 1.247.738 0 .697-1.13 1.982-1.518 2.53l2.41.19z" fill="#00569c"/><path d="M179.085 179.57c0-1.593 1.864-2.994 3.382-2.994.696 0 1.28.51 1.28 1.205 0 1.556-1.44 3.462-3.106 3.462-.934 0-1.555-.738-1.555-1.672m3.733 10.805c-1.752 2.135-5.172 5.634-8.124 5.634-2.294 0-3.34-2.645-3.34-4.626 0-4.74 4.853-9.366 7.185-9.366.662 0 1.713.233 1.713 1.088 0 1.944-3.85 5.4-5.48 6.53-.313 1.59.27 2.45 2.06 2.45 2.056 0 4.08-2.06 5.634-3.187l.35 1.475z" fill="#00569c"/><path d="M186.935 188.118c-.855.622-1.555 1.206-1.555 2.294 0 .892.934 2.098 2.952 2.098 2.957 0 6.335-2.72 8.59-4.466l.468 1.513c-2.373 2.528-6.722 6.372-10.417 6.372-2.99 0-4.43-2.8-4.43-5.672 0-3.265 1.17-4.47 3.69-6.377 1.753-1.316 5.48-3.418 7.658-3.418 1.206 0 1.748.626 1.748 1.794 0 2.13-3.07 5.124-4.115 5.124-.897 0-1.285-.97-1.322-1.71l-3.265 2.448zM212.974 190.724c-.037.35.154.663.584.738.467.117 6.722-4.546 7.344-6.84-6.84 2.215-7.695 3.537-7.928 6.102m12.398-7.307c-1.284 2.02-3.148 4.546-3.148 7.036 0 .62.037 1.943.892 1.943 1.322 0 4.9-3.148 6.143-3.966l.27 1.285c-1.827 2.018-5.83 6.1-8.666 6.1-1.476 0-2.06-1.555-2.06-2.797 0-.972.154-1.986.308-2.953-1.36 1.163-4.97 4.933-6.722 4.933-1.747 0-2.836-3.728-2.836-5.092 0-4.583 7.732-8.47 11.035-8.665.816-.037 1.13.505 1.634 1.09 1.284-2.215 4.7-10.26 7.54-10.26.775 0 1.242.776 1.242 1.477 0 1.167-1.05 2.76-1.672 3.732l-3.962 6.138z" fill="#00569c"/><path d="M238.895 183.38c0-.272-.192-.506-.467-.43-1.94.508-4.195 2.372-5.246 4.937 3.424-1.168 5.75-3.85 5.713-4.508m4.82 6.254c-2.372 2.76-6.647 6.414-10.49 6.414-2.837 0-4.16-2.527-4.238-5.092-.155-5.092 5.48-10.296 10.53-10.26 1.247 0 2.797.314 2.797 1.87 0 1.9-1.906 4.774-9.366 7.227l-.075.855c-.116 1.476 1.164 1.976 2.406 1.976 2.76 0 6.025-2.83 8.086-4.466l.35 1.476zM284.365 175.84l-.08-.08c-3.26 3.112-6.488 6.256-9.244 9.367-1.13 1.285-5.25 6.876-7.31 9.637-.27.388-.74 1.09-1.243 1.09-.855 0-3.07-1.552-3.07-2.45 0-.233.272-.658.388-.854 1.598-2.448 9.06-15.468 9.06-17.602 0-.505-.118-.818-.623-.818-1.322 0-5.596 2.098-12.127 6.41-.308.238-.818.51-1.163.51-.743 0-.7-1.25-.7-1.71 0-4.668 6.72-9.68 7.89-9.68.19 0 .424.116.424.312 0 .038-.196.66-2.097 2.486l.074.08c2.76-1.515 7.58-4.238 10.805-4.238 1.32 0 2.6.738 2.49 2.177-.24 3.11-1.753 5.676-6.766 14.496l.08.074c7.46-8.974 10.763-12.202 11.735-12.86 1.167-.78 4.077-2.995 4.974-2.995.66 0 3.186 1.83 3.186 3.695 0 2.448-4.975 7.46-8.703 14.846-1.13 2.252-1.205 3.028-1.205 3.182 0 .7.154 1.593 1.01 1.593 1.55 0 6.646-5.242 7.767-6.643.08.934.158 1.4.158 1.752 0 .308-.117.5-.43.892-5.59 7.226-9.674 9.323-11.347 9.323-1.942 0-2.638-1.71-2.638-3.382 0-2.134 1.088-4.582 2.097-6.45l6.605-12.16z" fill="#00569c"/><path d="M296.104 179.57c0-1.593 1.864-2.994 3.382-2.994.7 0 1.28.51 1.28 1.205 0 1.556-1.434 3.462-3.106 3.462-.935 0-1.556-.738-1.556-1.672m3.733 10.805c-1.752 2.135-5.172 5.634-8.124 5.634-2.294 0-3.34-2.645-3.34-4.626 0-4.74 4.853-9.366 7.19-9.366.658 0 1.71.233 1.71 1.088 0 1.944-3.85 5.4-5.48 6.53-.314 1.59.27 2.45 2.06 2.45 2.06 0 4.078-2.06 5.633-3.187l.35 1.475z" fill="#00569c"/><path d="M303.956 188.118c-.855.622-1.556 1.206-1.556 2.294 0 .892.934 2.098 2.952 2.098 2.957 0 6.335-2.72 8.59-4.466l.468 1.513c-2.373 2.528-6.722 6.372-10.417 6.372-2.99 0-4.43-2.8-4.43-5.672 0-3.265 1.17-4.47 3.692-6.377 1.752-1.316 5.48-3.418 7.656-3.418 1.207 0 1.75.626 1.75 1.794 0 2.13-3.07 5.124-4.122 5.124-.892 0-1.28-.97-1.317-1.71l-3.264 2.448z" fill="#00569c"/><path d="M315.264 191.773c.038.192.197.892.78.78.776-.16 1.98-.042 9.675-7.815l-.08-.075c-9.25 2.836-10.376 5.204-10.376 7.11m4.705 1.01c-.744.583-3.23 2.6-4.122 2.6-1.088 0-3.34-2.564-3.42-4.582-.158-4.857 9.947-9.832 14.455-9.95 1.79-.036 2.527 1.402 2.527 1.87 0 .467-1.01.854-1.36.967.74.313 1.126.738 1.126 1.597 0 1.243-3.377 3.962-3.377 5.793 0 .66.578.93 1.2.93 1.634 0 3.85-1.986 5.52-3.112l.31 1.44c-1.673 1.905-6.877 6.058-8.783 6.058-1.28 0-1.864-.93-1.864-2.055 0-1.243.93-3.303 1.44-4.354l-.08-.075-3.574 2.872z" fill="#00569c"/><path d="M335.28 186.992c-1.36 2.135-2.996 3.15-4.663 4.82l-.155-1.71c1.01-.816 1.822-1.788 2.565-2.84-.817-.078-1.05-.387-1.05-1.2 0-2.798 3.965-5.6 4.895-5.6.387 0 .7.312.7.663 0 .387-.116.738-.27 1.088 3.653-.504 5.788-.972 6.175-.504.584.737.855 1.358.935 2.06 0 1.2-.74 1.783-1.635 2.52-1.126.973-3.028 2.88-3.028 4.435 0 .62.62 1.088 1.205 1.088 1.667 0 4.12-2.527 5.4-3.5l.27 1.44c-1.475 1.668-5.946 5.984-8.16 5.984-1.63 0-2.64-1.513-2.64-2.994 0-2.64 2.018-4.7 3.574-6.568l-.08-.075-4.04.892z" fill="#00569c"/><path d="M347.715 191.773c.042.192.197.892.78.78.776-.16 1.98-.042 9.675-7.815l-.08-.075c-9.25 2.836-10.375 5.204-10.375 7.11m4.705 1.01c-.74.583-3.228 2.6-4.12 2.6-1.09 0-3.34-2.564-3.42-4.582-.154-4.857 9.945-9.832 14.453-9.95 1.79-.036 2.528 1.402 2.528 1.87 0 .467-1.008.854-1.36.967.74.313 1.127.738 1.127 1.597 0 1.243-3.377 3.962-3.377 5.793 0 .66.58.93 1.2.93 1.635 0 3.85-1.986 5.522-3.112l.308 1.44c-1.667 1.905-6.876 6.058-8.782 6.058-1.28 0-1.864-.93-1.864-2.055 0-1.243.934-3.303 1.44-4.354l-.08-.075-3.574 2.872z" fill="#00569c"/><path d="M375.388 189.792l-.08-.08c-1.397 1.556-5.48 5.092-7.614 5.092-2.177 0-2.915-2.835-2.915-4.545 0-5.093 8.468-9.213 11.463-9.484.54-.038 2.06.117 2.06.97 0 .702-.776 1.244-1.285 1.594l-4.43 2.41c-2.446 1.318-5.324 2.407-4.974 5.247.038.308.27.388.622.388 1.088.112 3.46-.818 4.933-2.41l4.16-4.588c.39-.425.856-1.09 1.477-1.09.776 0 1.476 1.323 1.476 1.987 0 .584-.54 1.476-.817 1.98l-2.91 5.443.074.075 5.91-4.233.19 1.63-8.197 6.138c-4.083 6.49-7.503 8.98-9.016 8.98-.547 0-.893-.43-.893-.936 0-2.798 5.905-7.694 8.04-9.25l2.724-5.32z" fill="#00569c"/><path d="M393.265 185.09c.813-.742 4.625-4.433 5.596-4.433.31 0 .74.117.894 2.14.08.93-.972 1.826-1.593 2.368-1.242 1.13-4.003 4.2-4.003 5.947 0 .62.35.855.972.855 1.475 0 4.82-2.72 5.983-3.653l.234 1.672c-1.98 1.9-6.102 6.372-8.975 6.372-1.438 0-2.293-1.205-2.293-2.565 0-1.167.424-2.25.816-3.265l-.08-.075c-1.517 1.318-4.12 4.817-6.254 4.817-1.906 0-2.957-2.177-2.957-3.85 0-3.77 2.915-7.652 5.405-9.287.54-.345 1.046-.425 1.71-.425.54 0 2.522-.35 2.368.818-.075.62-1.126 1.705-1.556 2.055-1.205 1.365-1.44 1.716-2.952 2.8-1.205.86-2.14 1.71-2.14 3.344 0 .192.042.58.313.58.7 0 2.836-1.126 4.662-2.757l3.85-3.457z" fill="#00569c"/><path d="M402.435 191.773c.037.192.196.892.78.78.776-.16 1.98-.042 9.675-7.815l-.08-.075c-9.25 2.836-10.375 5.204-10.375 7.11m4.704 1.01c-.74.583-3.224 2.6-4.12 2.6-1.09 0-3.34-2.564-3.42-4.582-.16-4.857 9.95-9.832 14.453-9.95 1.79-.036 2.532 1.402 2.532 1.87 0 .467-1.014.854-1.364.967.74.313 1.127.738 1.127 1.597 0 1.243-3.378 3.962-3.378 5.793 0 .66.58.93 1.2.93 1.635 0 3.85-1.986 5.522-3.112l.308 1.44c-1.668 1.905-6.877 6.058-8.782 6.058-1.28 0-1.864-.93-1.864-2.055 0-1.243.934-3.303 1.438-4.354l-.08-.075-3.573 2.872z" fill="#00569c"/><path d="M253.057 26.015c-2.07 0-3.752-1.68-3.752-3.75 0-2.07 1.682-3.752 3.752-3.752 2.065 0 3.746 1.682 3.746 3.75 0 2.07-1.68 3.752-3.746 3.752M223.904 16.814c-3.153 0-5.718-2.57-5.718-5.727 0-3.153 2.565-5.723 5.718-5.723 3.158 0 5.728 2.57 5.728 5.723 0 3.158-2.57 5.727-5.728 5.727" fill="#a6b02a"/><path d="M246.56 22.71c-2.403 0-4.36-1.952-4.36-4.358 0-2.4 1.957-4.36 4.36-4.36 2.404 0 4.357 1.96 4.357 4.36 0 2.406-1.953 4.358-4.358 4.358M175.706 23.645c-2.266 0-4.11-1.84-4.11-4.107 0-2.265 1.844-4.106 4.11-4.106s4.106 1.84 4.106 4.106-1.84 4.107-4.106 4.107" fill="#a6b02a"/><path d="M183.268 20.58c-2.54 0-4.606-2.066-4.606-4.603 0-2.54 2.065-4.606 4.606-4.606 2.537 0 4.6 2.066 4.6 4.607 0 2.537-2.063 4.602-4.6 4.602M233.984 18.738c-2.714 0-4.924-2.21-4.924-4.928 0-2.71 2.21-4.924 4.924-4.924 2.714 0 4.928 2.214 4.928 4.924 0 2.718-2.214 4.928-4.928 4.928M197.91 16.913c-2.798 0-5.083-2.28-5.083-5.078 0-2.803 2.285-5.087 5.083-5.087 2.803 0 5.083 2.284 5.083 5.087 0 2.798-2.28 5.078-5.083 5.078" fill="#a6b02a"/><path d="M207.794 15.767c-2.967 0-5.382-2.42-5.382-5.386 0-2.97 2.415-5.386 5.382-5.386 2.97 0 5.39 2.416 5.39 5.387 0 2.967-2.42 5.387-5.39 5.387" fill="#a6b02a"/><path d="M172.436 19.536c0 1.804 1.462 3.27 3.27 3.27 1.803 0 3.266-1.466 3.266-3.27 0-1.803-1.463-3.27-3.266-3.27-1.808 0-3.27 1.467-3.27 3.27M256.04 22.265c0 1.65-1.336 2.985-2.985 2.985-1.645 0-2.98-1.336-2.98-2.985 0-1.65 1.335-2.986 2.98-2.986 1.65 0 2.985 1.336 2.985 2.985M228.585 11.09c0 2.583-2.098 4.676-4.68 4.676-2.58 0-4.673-2.093-4.673-4.677 0-2.584 2.093-4.677 4.672-4.677 2.583 0 4.68 2.093 4.68 4.676M250.027 18.354c0 1.915-1.55 3.466-3.47 3.466-1.91 0-3.467-1.55-3.467-3.466 0-1.915 1.556-3.466 3.466-3.466 1.92 0 3.47 1.55 3.47 3.466M179.605 15.976c0 2.023 1.64 3.662 3.663 3.662 2.022 0 3.662-1.64 3.662-3.662 0-2.023-1.64-3.663-3.662-3.663-2.023 0-3.663 1.64-3.663 3.663M238.008 13.812c0 2.224-1.803 4.023-4.022 4.023-2.224 0-4.023-1.8-4.023-4.023s1.8-4.022 4.023-4.022c2.22 0 4.022 1.8 4.022 4.022M202.064 11.833c0 2.29-1.86 4.153-4.153 4.153-2.293 0-4.152-1.864-4.152-4.153 0-2.294 1.86-4.153 4.153-4.153 2.294 0 4.154 1.86 4.154 4.153M212.195 10.38c0 2.43-1.97 4.4-4.4 4.4-2.43 0-4.4-1.97-4.4-4.4 0-2.43 1.97-4.4 4.4-4.4 2.43 0 4.4 1.97 4.4 4.4" fill="#ffed00"/><path d="M246.494 49.19c-3.5-3.395-16.822-5.927-32.733-5.927-15.72 0-28.92 2.47-32.61 5.807l-.263-1.56.047-.028c.098-.06 10.03-5.46 32.364-5.46 22.335 0 33.294 5.903 33.402 5.97l.093.06-.3 1.14zm-32.733 8.15c-17.382 0-32.102-2.907-32.102-6.49s14.72-6.484 32.103-6.484c17.383 0 31.917 2.9 31.917 6.484 0 3.583-14.534 6.49-31.916 6.49m49.215-38.467s-3.223-.173-4.634 1.626c-.573.732-.933 1.522-1.1 2.27-2.804 2.77-6.682 6.315-8.102 6.834-.215.084-.528.126-.892.126-2.84 0-7.073-2.13-7.194-3.07-.16-1.18 1.33-8.287 2.415-12.963.743-.69 1.336-1.757 1.57-3.032.453-2.415-2.177-4.933-2.177-4.933s-3.36 1.4-3.808 3.817c-.21 1.124-.102 2.194.234 3.058-1.308 4.36-3.434 9.993-4.742 10.75-.233.135-1.266.574-4.737.574-4.28 0-9.43-.69-10.81-1.448-1.083-.598-1.298-7.437-.457-14.925l.01-.11c.377-.676.648-1.475.74-2.367C219.563 2.47 216.396 0 216.396 0s-3.602 1.77-3.873 4.382c-.093.897.01 1.742.248 2.485l-.02.318c-.25 5.24-.985 13.14-1.825 14.285-.528.72-3.873 1.766-7.91 1.766-2.265 0-4.092-.35-5.138-.985-2.607-1.578-5.256-10.123-5.99-13.304 0 0-.275-1.48-.368-1.86-.552-2.218-4.23-3.297-4.23-3.297s-2.718 2.647-2.166 4.866c.13.533.93 2.15.93 2.15 1.76 4.04 4.152 11.272 3.26 13.29-.953 2.177-6.895 3.7-9.745 3.7-.45 0-.63-.042-.673-.056-.91-.318-5.307-4.91-9.035-9.166l-.13-.154c-.1-.49-.267-1-.52-1.51-.94-1.89-3.718-2.428-3.718-2.428s-1.26 2.536-.322 4.433c.555 1.126 1.373 1.957 2.176 2.336l9.06 12.777.246 1.103 2.953 11.32-.103-.07.616 4.582c0 4.256 15.062 7.703 33.64 7.703 18.58 0 33.64-3.447 33.64-7.703 0-.042-.014-.08-.014-.122l.62-4.63 2.062-8.385.803-1.56c1.51-3.11 7.33-8.927 9.087-10.646.878-.272 1.803-.912 2.546-1.86 1.41-1.8.472-4.887.472-4.887" fill="#a6b02a"/><path d="M167.14 20.03l1.842-1.25s8.077 9.22 9.68 9.716c1.61.495 10.02-.99 11.38-4.083 1.363-3.088-3.336-13.85-3.336-13.85l4.573-1.487s2.723 11.754 6.184 13.856c3.467 2.102 12.74.864 14.104-.99 1.36-1.855 1.85-14.954 1.85-14.954l4.568.444s-1.845 14.384.63 15.748c2.477 1.36 13.978 2.223 16.328.864 2.35-1.36 5.092-12.422 5.092-12.422l3.224.967s-3.247 12.318-3 14.177c.248 1.855 6.802 4.452 9.157 3.584 2.35-.864 9.4-8.04 9.4-8.04l1.76 1.92s-8.563 7.854-10.418 11.69c0 0-18.435-8.167-36.738-8.167-18.307 0-28.328 2.724-36.363 5.816l-9.92-13.54z" fill="#ffed00"/><path d="M177.427 34.93s14.594-5.69 36.858-5.69c18.556 0 35.004 8.413 35.004 8.413l-2.267 9.37s-10.842-5.862-33.728-5.862c-22.88 0-32.776 5.644-32.776 5.644l-3.093-11.875z" fill="#ffed00"/><path d="M196.232 36.363c0 1.71-1.387 3.093-3.093 3.093-1.71 0-3.093-1.383-3.093-3.093s1.383-3.092 3.092-3.092c1.705 0 3.092 1.384 3.092 3.093M187.86 38.516c0 1.71-1.388 3.093-3.093 3.093-1.71 0-3.093-1.384-3.093-3.094s1.383-3.093 3.093-3.093c1.705 0 3.092 1.383 3.092 3.093M204.186 35.424c0 1.705-1.387 3.092-3.092 3.092S198 37.13 198 35.424c0-1.71 1.39-3.093 3.094-3.093 1.705 0 3.092 1.384 3.092 3.094M228.352 35.795c0 1.71-1.383 3.093-3.093 3.093-1.706 0-3.093-1.383-3.093-3.093s1.387-3.092 3.092-3.092c1.71 0 3.092 1.382 3.092 3.092M236.927 37.278c0 1.706-1.383 3.093-3.092 3.093-1.705 0-3.093-1.386-3.093-3.092 0-1.71 1.388-3.092 3.093-3.092 1.71 0 3.092 1.383 3.092 3.092M245.25 39.753c0 1.71-1.38 3.093-3.09 3.093-1.706 0-3.094-1.383-3.094-3.093s1.388-3.093 3.093-3.093c1.71 0 3.09 1.383 3.09 3.093M219.586 39.876h-12.244v-9.773h12.244v9.773z" fill="#a6b02a"/><path d="M239.826 59.015c-11.25 0-21.596 3.84-29.827 10.263-8.233-6.423-18.575-10.263-29.825-10.263-26.796 0-48.518 21.722-48.518 48.518 0 26.792 21.722 48.514 48.518 48.514 11.25 0 21.592-3.84 29.824-10.263 8.23 6.423 18.577 10.263 29.826 10.263 26.796 0 48.52-21.722 48.52-48.514 0-26.796-21.724-48.518-48.52-48.518" fill="#de2516"/><path d="M245.045 153.306c15.496-8.624 26.077-25.88 26.077-45.772 0-19.9-10.58-37.158-26.077-45.777 22.994 2.593 40.872 22.083 40.872 45.777 0 23.685-17.874 43.18-40.872 45.772m-4.115-90.74c16.327 7.544 27.768 24.81 27.768 44.968 0 20.148-11.44 37.42-27.768 44.963v-89.93zm-2.182 89.053c-15.37-7.952-25.983-24.68-25.983-44.086 0-19.415 10.61-36.153 25.983-44.104v88.19zm-26.698-7.32h-.976V129.18h-2.457V144.3h-.664c-7.726 5.848-17.345 9.323-27.777 9.323-.976 0-1.943-.037-2.9-.102 16.004-8.3 27.038-25.768 27.038-45.986 0-20.228-11.034-37.695-27.04-45.992.96-.065 1.926-.102 2.902-.102 10.493 0 20.158 3.513 27.908 9.418-.01.01-.023.018-.032.028h.565v15.056h2.457V70.886h.874c-.01-.01-.02-.02-.033-.028 7.007-5.34 15.58-8.713 24.91-9.31-15.717 8.543-26.484 25.912-26.484 45.986 0 20.055 10.754 37.428 26.456 45.977-9.264-.6-17.776-3.932-24.746-9.21m-77.968-36.766c0-20.83 13.823-38.41 32.79-44.118-13.987 9.058-23.34 25.418-23.34 44.118 0 18.672 9.325 35.032 23.284 44.1-18.94-5.733-32.734-23.298-32.734-44.1m40.035-44.683c16.332 7.396 27.796 24.596 27.796 44.684 0 20.078-11.47 37.265-27.796 44.664V62.85zm-2.18 88.765c-15.37-7.95-25.98-24.68-25.98-44.08 0-19.41 10.61-36.15 25.98-44.1v88.18z" fill="#fff"/><path d="M266.988 134.91c.154.052.303.09.448.122 5.03 1.042-.392-4.765-.448-.12" fill="#fff"/><path d="M269.98 121.348c-1.347 0-2.71.93-2.725 3-.014 1.25.626 2.25 1.748 2.746.54.238 1.093.322 1.574.397l.257.043c.388.066.733.103 1.05.103 1.58 0 2.21-.85 2.45-1.355.246-.527.49-1.606-.623-2.933-.825-.995-2.302-2-3.73-2M251.362 119.635c-.112 0-.224 0-.34.01-.898.05-2.028.228-2.813 1.153-.8.948-.772 2.135-.683 2.943.252 2.295 1.654 3.112 2.882 3.112 1.653 0 3.18-1.443 3.83-2.868.505-1.103.476-2.182-.065-3.027-.393-.603-1.192-1.322-2.813-1.322M224.037 101.874c-.523-.43-1.018-.836-1.387-1.21-.846-.86-2.19-2.07-4.116-2.616-1.546-.44-3.06-.664-4.485-.664-2.72 0-5.088.795-7.027 2.37-2.527 2.045-5.62 6.147-6.376 9.706-.654 3.112-.916 6.087 3.064 8.34.323.18.64.35.945.513 1.303.696 2.097 1.116 2.72 2.27 1.68 3.107 2.54 7.344 2.433 11.922-.02.27-.262 1.168-.44 1.827-.686 2.513-1.28 4.68-.158 6.026.62.747 1.452 1.16 2.35 1.16 2.522 0 4.63-3.248 6.362-6.42l.14-.266c1.99-3.504 3.69-6.886 5.21-10.334.25-.57.475-1.14.7-1.71.495-1.242.957-2.42 1.658-3.46 1.028-1.538 1.21-2.898 1.406-4.337.038-.255.075-.526.117-.807.06-.397.145-.827.234-1.275.47-2.504 1.065-5.615-.444-8.068-.715-1.163-1.878-2.12-2.906-2.966M278.217 89.527c-.584-.435-1.313-.976-1.537-1.266-.757-.97-1.434-1.415-2.29-1.985l-.368-.242c-.346-.234-.62-.463-.873-.673-.82-.668-1.74-1.43-3.486-1.5-.136-.005-.285-.01-.444-.01-1.35 0-3.196.226-4.298 1.295-.64.622-.93 1.248-1 1.832-1.513-1.972-3.21-3.775-4.877-5.522-.416-.435-.83-.87-1.242-1.304-.416-.438-.8-.886-1.182-1.325-1.457-1.69-2.966-3.44-5.577-4.368-.818-.29-1.677-.49-2.513-.682l-.49-.117c-.71-.168-1.248-.243-1.743-.243-1.192 0-2.023.435-2.986 1.004-.442.26-.858.462-1.288.62-.13-1.083-.327-2.17-.738-3.24l-.392-1.01-1.075-.122c-.173-.018-.346-.028-.514-.028-2.476 0-4.615 1.948-6.512 3.667l-.32.295-.16-1.41h-1.7c-1.14 0-2.22.6-3.173 1.13-.26.144-.504.28-.72.382-1.386.64-2.554 1.22-3.755 1.953-.177.108-.416.21-.668.327-1.032.477-2.317 1.065-2.854 2.308-.393.902-.285 1.77-.047 2.518l-.294.397-.132.173c-.687.91-1.714 2.284-1.43 3.985.2 1.144.958 1.873 1.51 2.405.168.164.364.346.44.454.363.523.564 1.163.793 1.906.248.798.53 1.705 1.075 2.583l2.308 3.733.953-4.284.444-2.004c.69-.5 1.345-1.005 1.948-1.663.714-.78 1.074-1.59 1.364-2.243.275-.635.48-1.088.953-1.5.22-.19.458-.4.7-.625 1.06-.958 2.518-2.275 3.602-2.294.91 0 2.102.635 3.037 1.205l-.052.052c-.186.182-.812.504-1.224.714-.41.206-.803.41-1.116.608-2.425 1.532-3.43 3.344-4.265 5.778-2.13 6.223-1.476 10.694 1.953 13.3 1.34 1.02 2.92 1.135 3.99 1.135.466 0 .938-.018 1.43-.05.39-.024.78-.048 1.148-.048.107 0 .215.005.322.01.2.008.477.013.8.013.625.01 2.218.024 2.727.15.154.266.383.794.51 1.093.195.453.382.864.532 1.12l.074.127c1.373 2.29 3.25 5.43 5.615 6.947l.223.145c.52.336 1.05.686 1.822.686.752 0 1.33-.34 1.906-.714 1.1-.715 1.72-1.91 2.215-2.87.164-.312.323-.62.486-.868l.64-.962c.795-1.177 1.608-2.392 2.35-3.7.697-1.228 1.342-2.49 1.963-3.704.27-.524.537-1.047.813-1.58.032-.055.06-.13.093-.205.373.14.793.248 1.28.248.41 0 .812-.084 1.19-.243 1.48-.64 2.528-1.794 3.032-3.336.35-1.08.402-2.27.266-3.452.09.136.178.27.28.392.88 1.08 1.98 1.393 2.87 1.64.163.047.335.094.504.15.383.12.775.275 1.177.434 1.162.453 2.48.972 3.895.972.257 0 .518-.02.77-.056 1.986-.285 4.724-2.107 4.485-4.658-.144-1.54-1.607-2.63-3.153-3.78M199.656 98.6c-.463-.462-.967-.71-1.332-.89-.102-.048-.2-.09-.26-.127-.1-.085-.207-.248-.333-.43-.29-.435-.695-1.023-1.456-1.453-1.397-.78-3.233-.846-4.85-.906-.616-.02-1.195-.042-1.634-.098-.524-.075-1.21-.243-1.94-.43-1.265-.323-2.704-.682-4.017-.682-.397 0-.775.032-1.116.098-1.78.34-3.373 1.845-4.658 3.055-.258.243-.5.472-.72.663-.37.323-.734.724-1.117 1.15-.462.513-1.154 1.275-1.555 1.47-.187-.106-.407-.228-.682-.363-.463-.225-.837-.332-1.084-.402-.005 0-.014-.005-.02-.005-.022-.042-.055-.093-.083-.16-.08-.14-.25-.466-.263-.508.14-.224.967-.27 1.575-.304.808-.046 1.728-.103 2.56-.51.943-.46 1.733-1.428 2.494-2.358.262-.318.496-.617.7-.818.32-.313.664-.626 1.02-.943.826-.74 1.677-1.5 2.345-2.416.888-1.215 1.206-2.458.95-3.7-.5-2.392-2.972-3.84-4.785-4.9-.322-.192-.682-.365-1.05-.538-.515-.243-1.043-.495-1.28-.752-.108-.122-.3-.56-.43-.85-.346-.785-.776-1.76-1.654-2.37-1.284-.882-2.947-1.34-4.554-1.78-.897-.25-1.752-.48-2.41-.76-.267-.112-.594-.29-.94-.472-1.14-.603-2.317-1.224-3.452-1.224l-.196.005-.084.01c-2.01.19-3.607 1.844-4.896 3.17-.388.403-.752.777-1.037 1.015-.41.35-1.008.733-1.643 1.135-.094.06-.187.12-.28.182-.188-1.537-1.243-2.78-2.98-3.368-.64-.215-1.482-.336-2.365-.336-1.3 0-3.63.253-4.69 1.95-.35.56-.827 1.746-.047 3.362.252.528 2.186 3.406 3.518 3.93.448.167.92.256 1.406.256.228 0 .452-.037.68-.075-.004.154-.008.318 0 .48.062 1.043.42 1.96.74 2.767.21.528.4 1.023.476 1.462.172.99.42 1.855.658 2.69.14.496.29 1 .416 1.547.05.2.093.4.14.61.182.865.388 1.846.977 2.767 1.11 1.747 2.303 1.962 3.68 2.21l.45.083.79.136c1.274.22 1.53.276 1.998.77.164.174.444.655.677 1.038.594 1.014 1.27 2.163 2.374 2.672.364.163.784.243 1.284.243.285 0 .598-.03.91-.062.174-.02.338-.037.46-.037.807.07 1.625.295 2.498.524l.636.168.41.103c.304.075.71.177.907.257.01.075.024.196.02.388-.01.15-.07.448-.182.738l-.15.378.033.41.295 3.63c.075 2.103 1.406 3.85 2.58 5.392.765 1.004 1.718 2.256 1.63 2.91-.066.514-.333 1.065-.64 1.705-.454.94-.973 2.005-1.043 3.36-.014.2-.028.42-.046.653-.08 1.028-.173 2.308.084 3.387.243 1.033.85 1.757 1.336 2.33.22.263.43.515.546.725.23.407.276.785.346 1.533.023.225.05.468.08.715.247 1.888.602 3.79.943 5.63.328 1.765.67 3.592.898 5.363l.224 1.69 1.7-.15c2.16-.18 3.85-2.05 5.21-3.554.34-.374.658-.73.953-1.01 3.143-3.003 3.47-6.75 3.76-10.047l.038-.486c.065-.793.112-1.265.322-1.68.145-.277.43-.506.878-.85.52-.408 1.168-.908 1.654-1.702 1.71-2.817-.327-4.302-1.09-4.858-.28-.206-.536-.397-.657-.565-.85-1.252-.855-1.66 1.018-3.537 2.625-2.634 5.232-5.97 6.97-8.913l.192-.322c1.555-2.62 3.905-6.583.266-10.212" fill="#de2516"/><path d="M270.402 128.515c-.897 0-1.804.285-2.56.565.303-2.882-1.322-4.947-4.326-5.41-.45-.07-1.154-.153-1.91-.153-1.3 0-2.29.238-3.037.733-1.496.99-1.664 2.476-1.772 3.452-.042.337-.075.654-.154.87-.042.116-.248.462-.383.69-.676 1.145-1.816 3.056-.737 4.808.73 1.19 2.25 1.817 4.4 1.817 1.21 0 2.453-.206 3.242-.537.197-.08.384-.187.57-.285.482 1.784 2.05 3.008 3.948 3.008.752 0 1.527-.177 2.303-.542 1.738-.807 3.76-4.502 3.5-6.375-.235-1.63-1.417-2.64-3.084-2.64" fill="#de2516"/><path d="M263.244 125.435c-1-.154-2.794-.29-3.686.303-1.21.804-.803 2.23-1.23 3.43-.34.952-2.003 2.798-1.283 3.965.813 1.318 4.256 1.066 5.433.57 1.812-.76 3.298-2.68 3.583-4.63.305-2.106-.784-3.325-2.816-3.638M269.04 124.363c-.004.607.276.916.688 1.098.397.178.92.23 1.406.314 4.6.794-2.065-5.106-2.093-1.41M251.12 121.427c-1.414.08-1.998.5-1.82 2.116.5 4.48 6.31-2.373 1.82-2.116M221.373 101.912c-.962-.98-2-1.77-3.326-2.145-3.396-.967-7.058-.925-9.9 1.374-2.344 1.902-5.12 5.72-5.754 8.69-.635 3.013-.645 4.807 2.195 6.414 1.813 1.023 3.294 1.528 4.36 3.49 2.045 3.784 2.746 8.535 2.643 12.818-.032 1.3-1.82 5.69-1.008 6.667 1.995 2.395 5.4-4.332 5.928-5.266 1.883-3.322 3.588-6.68 5.125-10.175.822-1.865 1.37-3.747 2.51-5.448.956-1.43.97-2.658 1.246-4.424.36-2.35 1.42-5.872.034-8.128-.888-1.434-2.85-2.65-4.05-3.868M259.938 100.604c.177-.336.346-1.266.752-1.457.71-.332 1.663.873 2.695.43 3.462-1.496 2.34-6.466.95-8.844-2.066-3.527-5.05-6.405-7.83-9.357-1.935-2.055-3.27-4.246-6.055-5.237-.878-.314-1.873-.515-2.826-.744-1.598-.378-2.093-.214-3.406.56-1.308.772-2.443 1.103-3.788 1.272-.145-1.635-.24-3.294-.813-4.79-3.07-.34-6.242 4.52-8.88 5.677.004-1.042.032-2.102-.02-3.134-.943-.08-2.33.916-3.25 1.346-1.258.58-2.393 1.135-3.575 1.855-.78.477-2.438.954-2.812 1.818-.49 1.13.775 2.5.888 3.504-.06.093-.584.626-.767.775-.153-.29-.592-.598-.667-1.004-.57.76-1.4 1.77-1.228 2.79.15.877 1.15 1.433 1.64 2.133 1.004 1.43 1.032 3.126 1.93 4.58l.592-2.674c.846-.612 1.593-1.125 2.224-1.812 1.145-1.252 1.052-2.663 2.463-3.887 1.453-1.257 3.39-3.317 5.41-3.36 1.672-.027 3.49 1.108 4.834 1.982.127.084.243.173.365.266-.098.814-.346 1.543-.907 2.085-.597.58-1.887 1.08-2.63 1.546-1.948 1.234-2.765 2.636-3.527 4.85-1.242 3.62-2.186 8.615 1.34 11.296 1.63 1.243 4 .598 5.892.687.94.042 3.728-.066 4.55.51.57.396 1.107 2.124 1.472 2.732 1.275 2.125 3.073 5.17 5.124 6.49.98.63 1.01.774 2.01.12 1.022-.663 1.55-2.266 2.185-3.228 1-1.504 2.03-2.966 2.926-4.555.967-1.71 1.83-3.475 2.742-5.218M275.27 89.36c-.663-.855-1.214-1.154-2.24-1.846-1.39-.925-1.823-1.803-3.444-1.868-.953-.042-2.682.065-3.415.78-1.116 1.08-.055 1.836.743 2.98.832 1.187 1.346 3.327 2.13 4.284.655.794 1.528.902 2.542 1.22 1.57.5 3.364 1.527 5.05 1.284 1.19-.168 3.088-1.327 2.952-2.72-.116-1.246-3.377-2.91-4.316-4.114M196.87 98.913c-.607-.542-.78-1.27-1.466-1.654-1.495-.832-4.18-.575-5.85-.795-1.835-.243-4.66-1.383-6.502-1.028-1.583.304-3.363 2.275-4.536 3.303-.878.77-2.05 2.467-3.195 2.948-1.022.425-1.074.075-2.11-.42-1.066-.514-1.374-.15-2-1.346-.365-.705-.72-1.434-.187-2.284 1.014-1.626 3.522-.813 4.858-1.472.894-.44 2.015-2.135 2.73-2.84 1.013-1.005 2.345-2.01 3.176-3.15 2.042-2.783-.87-4.582-3.29-6.002-.877-.514-2.05-.864-2.745-1.62-.686-.744-.952-2.383-1.784-2.958-1.7-1.172-4.68-1.537-6.648-2.368-1.032-.435-2.82-1.64-3.802-1.547-1.86.174-3.653 2.683-4.952 3.776-1.925 1.616-5.947 3.093-5.77 6.045.085 1.38.963 2.654 1.196 4.033.248 1.457.692 2.64 1.052 4.11.228.967.345 2.005.878 2.84.775 1.215 1.34 1.197 2.952 1.5 1.846.346 2.71.327 3.76 1.44.772.812 1.528 2.863 2.49 3.307.482.22 1.556-.056 2.08-.01 1.172.108 2.307.458 3.415.743 1.65.42 2.737.505 2.676 2.528-.014.44-.154.95-.303 1.332l.3 3.714c.115 3.116 4.55 5.877 4.198 8.59-.224 1.725-1.574 3.07-1.672 4.934-.056 1.033-.257 2.513-.01 3.527.244 1.028 1.192 1.682 1.71 2.607.524.943.496 1.794.636 2.878.477 3.667 1.36 7.34 1.84 10.992 1.925-.164 3.752-2.817 5.08-4.08 2.54-2.432 2.91-5.47 3.213-8.92.093-1.024.093-1.93.556-2.818.627-1.22 1.925-1.58 2.59-2.668 1.265-2.078-.786-2.163-1.692-3.485-1.72-2.522-.594-3.984 1.223-5.806 2.445-2.444 4.98-5.648 6.7-8.56 1.584-2.685 3.504-5.6.734-8.36-.463-.463-1.12-.594-1.523-.954M151.93 77.728c-1.65-.56-6.275-.303-4.916 2.51.313.653 1.995 2.816 2.556 3.03 2.728 1.06 6.442-4.152 2.36-5.54M267.625 131.075c-3.984 1.5-2.265 6.634 1.607 4.835 1.06-.49 2.63-3.452 2.48-4.503-.275-1.98-2.895-.78-4.087-.332" fill="#fff"/><path d="M180.238 104.492l13.03-3.4c2.143-.575 9.155-3.56 9.155-6.125 0-1.62-5.648-1.672-6.802-1.57l-9.678.682c.05 1.83-.888 3.036-1.832 4.498l-3.872 5.914zm-6.75 9.89l-4.5 6.54c.626 1.83-2.46 3.77-3.872 3.77-.626 0-1.205-.42-1.205-1.098 0-.995.37-1.728.893-2.57l4.868-8.002c-.84-.21-2.723-.892-2.513-1.938.472-2.72 3.19-5.232 8.06-5.387l7.74-11.197c-3.817.626-7.69 1.308-11.25 2.72v.1c3.298.32 4.345.11 4.345.894 0 .42-.734.574-.995.574l-4.078.42c-1.468.155-3.35.524-4.87.524-.784 0-1.882-.262-1.882-1.257 0-1.672 1.62-5.022 2.668-6.334 2.457-2.928 13.762-5.703 24.33-5.703 4.815 0 15.018.472 15.018 7.17 0 2.673-1.677 6.7-3.765 8.372-4.294 3.456-6.91 3.4-25.746 6.908v.103l14.127 4.504c8.998 2.878 8.793 4.237 9.054 4.653.995 1.83 1.2 5.76-.574 5.76-1.365 0-5.078-1.83-6.49-2.354l-19.363-7.17zM239.478 103.446c1.934 0 4.078-.733 4.078.262 0 1.046-4.447 1.308-5.283 1.882l-1.15 1.73c1.934.522 3.714.625 5.387.522 10.258-.58 17.01-8.058 16.434-11.356-.58-3.19-10.413-3.817-12.823-3.817-.05 1.41-.364 2.087-1.148 3.19l-5.494 7.586zm-9.16 13.604c.47.107 1 .364 1 .943 0 .678-1.31 2.406-2.673 4.238-.678.944-1.78 2.458-3.088 2.458-1.252 0-1.775-.73-1.775-1.883 0-2.303 3.713-8.007 4.97-10.203-1.257-.784-2.354-1.728-2.354-3.35 0-3.036 6.17-4.446 8.37-5.128l8.32-10.988c-9.16.16-16.43 3.508-17.998 3.508-.318 0-.84-.056-.84-.523 0-1.255 3.035-5.287 3.87-6.436.945-1.308 2.515-1.73 3.982-2.144 4.55-1.308 9.36-1.836 14.07-1.836 12.978 0 16.59 4.19 16.59 10.68 0 11.145-13.553 18.993-30.296 17.11l-2.15 3.556z" fill="#de2516"/><path d="M177.037 102.51l13.03-3.4c2.143-.575 9.155-3.56 9.155-6.125 0-1.62-5.652-1.673-6.8-1.565l-9.68.677c.05 1.83-.89 3.037-1.832 4.5l-3.873 5.913zm-6.75 9.89l-4.5 6.54c.627 1.83-2.46 3.77-3.872 3.77-.63 0-1.205-.42-1.205-1.098 0-.995.37-1.728.892-2.565l4.863-8.007c-.836-.21-2.718-.892-2.508-1.938.467-2.72 3.19-5.233 8.058-5.387l7.74-11.197c-3.82.626-7.688 1.308-11.248 2.718v.103c3.298.317 4.344.107 4.344.89 0 .422-.732.576-.994.576l-4.083.42c-1.462.16-3.35.524-4.863.524-.784 0-1.882-.262-1.882-1.257 0-1.672 1.62-5.022 2.667-6.335 2.457-2.93 13.763-5.703 24.33-5.703 4.816 0 15.02.47 15.02 7.17 0 2.668-1.678 6.7-3.767 8.372-4.293 3.457-6.91 3.405-25.745 6.91v.102l14.127 4.502c8.998 2.878 8.787 4.237 9.05 4.653.994 1.83 1.204 5.76-.576 5.76-1.36 0-5.073-1.83-6.488-2.354l-19.36-7.17zM236.275 101.465c1.938 0 4.083-.734 4.083.26 0 1.048-4.448 1.31-5.29 1.884l-1.148 1.727c1.94.523 3.72.626 5.39.523 10.255-.58 17.006-8.058 16.43-11.356-.574-3.19-10.412-3.817-12.818-3.817-.056 1.41-.37 2.088-1.154 3.19l-5.493 7.588zm-9.157 13.603c.472.108.995.37.995.944 0 .677-1.308 2.406-2.672 4.237-.676.943-1.774 2.46-3.082 2.46-1.257 0-1.78-.733-1.78-1.887 0-2.303 3.714-8.007 4.97-10.202-1.256-.784-2.354-1.728-2.354-3.35 0-3.03 6.176-4.446 8.372-5.128l8.32-10.988c-9.156.16-16.43 3.51-18 3.51-.313 0-.836-.057-.836-.524 0-1.257 3.032-5.29 3.873-6.438.94-1.308 2.508-1.728 3.975-2.144 4.55-1.308 9.367-1.836 14.076-1.836 12.977 0 16.588 4.19 16.588 10.68 0 11.145-13.557 18.994-30.3 17.11l-2.144 3.556z" fill="#00569c"/><path d="M208.258 30.79h10.465l-1.252 1.4h-7.44l-1.772-1.4zM209.806 32.63l-2.065-1.765v8.62l2.066-1.328V32.63zM168.433 18.463l-1.86 1.084s-1.766-2.13-1.027-4.4c0 0 .54 3.12 2.887 3.316M190.705 8.946l-4.148 1.163s-1.084-2.93.85-5.06c0 0 .37 3.452 3.298 3.896M213.557 6.35l4.382.442s-3.14-2.634-1.632-5.582c0 0-3.78 1.63-2.75 5.14M243.233 11.892l-3.12-.874s-.678-3.447 2.46-4.34c0 0-1.358 2.925.66 5.214M260.727 23.652l-1.453-1.817s-.607-1.817 3.07-2.345c0 0-1.98 2.14-1.617 4.162" fill="#ffed00"/></svg>