<svg xmlns="http://www.w3.org/2000/svg" width="400" height="213.058"><defs><clipPath id="a"><path d="M398.58 119.762h110.252v62.008h-110.25v-62.008z"/></clipPath></defs><g clip-path="url(#a)" transform="matrix(3.6 0 0 -3.6 -1446.1 647.6)"><path d="M421.535 142.813s-1.91.142-5.774 3.572c-3.86 3.43-8.59 13.342-9.77 20.865-1.18 7.52 1.18 14.52 6.18 9.588 5.003-4.936 8.682-12.69 11.543-19.55 2.864-6.86 1.365-13.207 1.365-13.207s.136 1.224-.822 5.498c-.95 4.28-2.177 6.347-5.542 12.83-3.362 6.486-6.047 9.166-6.77 9.917-.728.752-2.453 2.82-2.545-1.645-.093-4.463.996-9.305 4-16.685 2.996-7.376 8.135-11.182 8.135-11.182" fill="#f99b21" fill-rule="evenodd"/><path d="M421.535 142.813s-1.91.142-5.774 3.572c-3.86 3.43-8.59 13.342-9.77 20.865-1.18 7.52 1.18 14.52 6.18 9.588 5.003-4.936 8.682-12.69 11.543-19.55 2.864-6.86 1.365-13.207 1.365-13.207s.136 1.224-.822 5.498c-.95 4.28-2.177 6.347-5.542 12.83-3.362 6.486-6.047 9.166-6.77 9.917-.728.752-2.453 2.82-2.545-1.645-.093-4.463.996-9.305 4-16.685 2.996-7.376 8.135-11.182 8.135-11.182" fill="#97c93d" fill-rule="evenodd"/><path d="M426.895 150.777s.092-.143.478.542c.387.68 1.796 3.898 1.637 6.79-.163 2.888-2.727 7.87-2.727 7.87s.568-3.48.863-6.254c.294-2.767-.25-8.95-.25-8.95" fill="#f99b21" fill-rule="evenodd"/><path d="M426.895 150.777s.092-.143.478.542c.387.68 1.796 3.898 1.637 6.79-.163 2.888-2.727 7.87-2.727 7.87s.568-3.48.863-6.254c.294-2.767-.25-8.95-.25-8.95" fill="#00aeef" fill-rule="evenodd"/><path d="M426.85 143.68s1.298 3.22 3.84 6.862c2.547 3.644 6.137 5.804 7.638 6.7 1.5.89 4.725 2.042 5.225-.283.5-2.326-1.682-6.135-4.952-9.518-3.273-3.386-8.387-4.63-8.387-4.63s1.864 1.082 4.204 2.867 4.864 5.71 5.25 6.39c.388.68.978 2.516-.022 2.564-1 .045-3.023-1.083-6.5-3.902-3.48-2.82-6.294-7.05-6.294-7.05" fill="#f99b21" fill-rule="evenodd"/><path d="M426.85 143.68s1.298 3.22 3.84 6.862c2.547 3.644 6.137 5.804 7.638 6.7 1.5.89 4.725 2.042 5.225-.283.5-2.326-1.682-6.135-4.952-9.518-3.273-3.386-8.387-4.63-8.387-4.63s1.864 1.082 4.204 2.867 4.864 5.71 5.25 6.39c.388.68.978 2.516-.022 2.564-1 .045-3.023-1.083-6.5-3.902-3.48-2.82-6.294-7.05-6.294-7.05" fill="#f94d00" fill-rule="evenodd"/><path d="M428.327 141.612s.09-.444.774-1.69c.683-1.244 1.363-3.148 1.91-5.288.544-2.135.794-5.26-.707-5.756-1.496-.493-2.838 2.632-3.66 4.864-.815 2.232-.567 6.32-.567 6.32s-1.545-2.605-1.11-6.65c.43-4.04 3.975-8.95 6.314-7.894 2.344 1.06 2.592 4.96 1.34 9.328-1.245 4.372-4.293 6.766-4.293 6.766" fill="#f99b21" fill-rule="evenodd"/><path d="M428.327 141.612s.09-.444.774-1.69c.683-1.244 1.363-3.148 1.91-5.288.544-2.135.794-5.26-.707-5.756-1.496-.493-2.838 2.632-3.66 4.864-.815 2.232-.567 6.32-.567 6.32s-1.545-2.605-1.11-6.65c.43-4.04 3.975-8.95 6.314-7.894 2.344 1.06 2.592 4.96 1.34 9.328-1.245 4.372-4.293 6.766-4.293 6.766" fill="#f94d00" fill-rule="evenodd"/><path d="M413.012 122.932s3.774 2.233 6.385 5.217c2.612 2.984 3.863 6.696 3.955 9.166.088 2.465-1.112.844-1.363 0-.252-.847-1.503-3.76-3.434-6.91-1.93-3.15-5.544-7.474-5.544-7.474" fill="#f99b21" fill-rule="evenodd"/><path d="M413.012 122.932s3.774 2.233 6.385 5.217c2.612 2.984 3.863 6.696 3.955 9.166.088 2.465-1.112.844-1.363 0-.252-.847-1.503-3.76-3.434-6.91-1.93-3.15-5.544-7.474-5.544-7.474" fill="#00aeef" fill-rule="evenodd"/><path d="M398.582 119.762s.547.564 1.752 1.667c1.237 1.136 7.543 7.804 9.34 9.66 1.795 1.853 8.59 7.543 9.29 8.15.66.57 3.66 2.467 1.343 2.234-2.318-.236-4.546-1.55-8.046-4.724-3.497-3.172-6.723-7.283-8.813-9.915-2.09-2.63-4.865-7.073-4.865-7.073" fill="#f99b21" fill-rule="evenodd"/><path d="M398.582 119.762s.547.564 1.752 1.667c1.237 1.136 7.543 7.804 9.34 9.66 1.795 1.853 8.59 7.543 9.29 8.15.66.57 3.66 2.467 1.343 2.234-2.318-.236-4.546-1.55-8.046-4.724-3.497-3.172-6.723-7.283-8.813-9.915-2.09-2.63-4.865-7.073-4.865-7.073" fill="#97c93d" fill-rule="evenodd"/><path d="M445.766 148.798h-.42c-.143 0-.283-.007-.42-.02-.138-.012-.265-.025-.383-.037-.118-.012-.212-.032-.28-.057v-4.638h1.208c.355 0 .682.048.98.145.3.096.56.242.782.44.222.198.396.457.524.776.127.32.19.71.19 1.17 0 .688-.186 1.232-.56 1.627-.373.397-.913.595-1.62.595m-2.977 1.38c.206.05.434.095.684.133.25.04.504.072.76.098.255.025.51.044.765.057.255.013.496.02.722.02.49 0 .965-.065 1.422-.193.457-.128.86-.34 1.208-.632.348-.295.63-.678.84-1.15.21-.474.317-1.056.317-1.746 0-.538-.065-1.023-.193-1.46-.127-.433-.304-.817-.53-1.15-.227-.33-.494-.61-.803-.833-.31-.224-.646-.393-1.01-.508l.767-.67 2.77-5.245h-1.694l-3.065 5.654-1.487.27v-5.923h-1.474v13.28z" fill="#006ab6"/><path d="M445.766 148.798h-.42c-.143 0-.283-.007-.42-.02-.138-.012-.265-.025-.383-.037-.118-.012-.212-.032-.28-.057v-4.638h1.208c.355 0 .682.048.98.145.3.096.56.242.782.44.222.198.396.457.524.776.127.32.19.71.19 1.17 0 .688-.186 1.232-.56 1.627-.373.397-.913.595-1.62.595zm-2.977 1.38c.206.05.434.095.684.133.25.04.504.072.76.098.255.025.51.044.765.057.255.013.496.02.722.02.49 0 .965-.065 1.422-.193.457-.128.86-.34 1.208-.632.348-.295.63-.678.84-1.15.21-.474.317-1.056.317-1.746 0-.538-.065-1.023-.193-1.46-.127-.433-.304-.817-.53-1.15-.227-.33-.494-.61-.803-.833-.31-.224-.646-.393-1.01-.508l.767-.67 2.77-5.245h-1.694l-3.065 5.654-1.487.27v-5.923h-1.474v13.28z" fill="none" stroke="#006ab6" stroke-width=".088" stroke-miterlimit="10"/><path d="M452.412 150.31h6.233v-1.685h-4.76v-4.043h4.348v-1.687h-4.348v-4.312h4.834v-1.686h-6.308v13.414z" fill="#006ab6"/><path d="M452.412 150.31h6.233v-1.685h-4.76v-4.043h4.348v-1.687h-4.348v-4.312h4.834v-1.686h-6.308v13.414z" fill="none" stroke="#006ab6" stroke-width=".088" stroke-miterlimit="10"/><path d="M463.183 145.425l-.884 1.878h-.06l.178-1.878v-8.528h-1.387v13.605h.827l5.26-8.7.84-1.782h.074l-.174 1.783v8.508h1.385v-13.605h-.826l-5.23 8.72z" fill="#006ab6"/><path d="M463.183 145.425l-.884 1.878h-.06l.178-1.878v-8.528h-1.387v13.605h.827l5.26-8.7.84-1.782h.074l-.174 1.783v8.508h1.385v-13.605h-.826l-5.23 8.72z" fill="none" stroke="#006ab6" stroke-width=".088" stroke-miterlimit="10"/><path d="M473.662 142.014h3.183l-1.183 3.813-.395 2.05h-.03l-.392-2.088-1.183-3.776zm3.605-1.57h-4.043l-1.08-3.547h-1.474l4.245 13.606h.765l4.26-13.606h-1.563l-1.11 3.546z" fill="#006ab6"/><path d="M473.662 142.014h3.183l-1.183 3.813-.395 2.05h-.03l-.392-2.088-1.183-3.776zm3.605-1.57h-4.043l-1.08-3.547h-1.474l4.245 13.606h.765l4.26-13.606h-1.563l-1.11 3.546z" fill="none" stroke="#006ab6" stroke-width=".088" stroke-miterlimit="10"/><path d="M488.294 137.472c-.324-.307-.737-.52-1.237-.64-.502-.122-1.032-.184-1.59-.184-.66 0-1.287.138-1.88.413-.595.275-1.12.696-1.57 1.265-.452.568-.81 1.29-1.077 2.166-.265.875-.397 1.913-.397 3.116 0 1.25.148 2.317.442 3.2.294.88.677 1.598 1.15 2.155.47.556 1 .962 1.59 1.217.59.256 1.175.384 1.755.384.648 0 1.178-.044 1.59-.133.414-.09.762-.205 1.047-.345l-.323-1.65c-.48.296-1.215.443-2.197.443-.443 0-.872-.093-1.29-.278-.417-.186-.79-.486-1.12-.9-.33-.416-.59-.96-.788-1.63-.198-.67-.295-1.49-.295-2.46 0-.87.093-1.634.28-2.292.186-.66.444-1.207.774-1.65.327-.44.715-.772 1.163-.995.447-.223.935-.336 1.466-.336.48 0 .898.058 1.25.173.355.115.654.262.9.44l.354-1.475z" fill="#006ab6"/><path d="M488.294 137.472c-.324-.307-.737-.52-1.237-.64-.502-.122-1.032-.184-1.59-.184-.66 0-1.287.138-1.88.413-.595.275-1.12.696-1.57 1.265-.452.568-.81 1.29-1.077 2.166-.265.875-.397 1.913-.397 3.116 0 1.25.148 2.317.442 3.2.294.88.677 1.598 1.15 2.155.47.556 1 .962 1.59 1.217.59.256 1.175.384 1.755.384.648 0 1.178-.044 1.59-.133.414-.09.762-.205 1.047-.345l-.323-1.65c-.48.296-1.215.443-2.197.443-.443 0-.872-.093-1.29-.278-.417-.186-.79-.486-1.12-.9-.33-.416-.59-.96-.788-1.63-.198-.67-.295-1.49-.295-2.46 0-.87.093-1.634.28-2.292.186-.66.444-1.207.774-1.65.327-.44.715-.772 1.163-.995.447-.223.935-.336 1.466-.336.48 0 .898.058 1.25.173.355.115.654.262.9.44l.354-1.475z" fill="none" stroke="#006ab6" stroke-width=".088" stroke-miterlimit="10"/><path d="M490.195 150.31h6.234v-1.685h-4.76v-4.043h4.346v-1.687h-4.347v-4.312h4.832v-1.686h-6.307v13.414z" fill="#006ab6"/><path d="M490.195 150.31h6.234v-1.685h-4.76v-4.043h4.346v-1.687h-4.347v-4.312h4.832v-1.686h-6.307v13.414z" fill="none" stroke="#006ab6" stroke-width=".088" stroke-miterlimit="10"/><path d="M501.793 148.798h-.42c-.143 0-.283-.007-.42-.02-.138-.012-.265-.025-.384-.037-.118-.012-.212-.032-.28-.057v-4.638h1.208c.354 0 .68.048.98.145.3.096.56.242.78.44.223.198.397.457.523.776.13.32.194.71.194 1.17 0 .688-.187 1.232-.56 1.627-.373.397-.914.595-1.62.595m-2.978 1.38c.206.05.435.095.685.133.252.04.505.072.76.098.256.025.51.044.766.057.256.013.496.02.722.02.49 0 .967-.065 1.423-.193.458-.128.86-.34 1.21-.632.347-.295.628-.678.84-1.15.21-.474.316-1.056.316-1.746 0-.538-.064-1.023-.19-1.46-.13-.433-.306-.817-.532-1.15-.227-.33-.494-.61-.803-.833-.31-.224-.645-.393-1.01-.508l.768-.67 2.77-5.245h-1.695l-3.065 5.654-1.488.27v-5.923h-1.474v13.28z" fill="#006ab6"/><path d="M501.793 148.798h-.42c-.143 0-.283-.007-.42-.02-.138-.012-.265-.025-.384-.037-.118-.012-.212-.032-.28-.057v-4.638h1.208c.354 0 .68.048.98.145.3.096.56.242.78.44.223.198.397.457.523.776.13.32.194.71.194 1.17 0 .688-.187 1.232-.56 1.627-.373.397-.914.595-1.62.595zm-2.977 1.38c.206.05.435.095.685.133.252.04.505.072.76.098.256.025.51.044.766.057.256.013.496.02.722.02.49 0 .967-.065 1.423-.193.458-.128.86-.34 1.21-.632.347-.295.628-.678.84-1.15.21-.474.316-1.056.316-1.746 0-.538-.064-1.023-.19-1.46-.13-.433-.306-.817-.532-1.15-.227-.33-.494-.61-.803-.833-.31-.224-.645-.393-1.01-.508l.768-.67 2.77-5.245h-1.695l-3.065 5.654-1.488.27v-5.923h-1.474v13.28z" fill="none" stroke="#006ab6" stroke-width=".088" stroke-miterlimit="10"/><path d="M442.838 130.692c-.2-.103-.605-.207-1.12-.207-1.2 0-2.1.78-2.1 2.222 0 1.376.9 2.31 2.218 2.31.53 0 .863-.12 1.01-.198l-.134-.464c-.208.105-.504.183-.857.183-.996 0-1.658-.66-1.658-1.814 0-1.075.6-1.766 1.633-1.766.334 0 .674.07.895.182l.113-.45zM445.373 132.433c.007.366-.145.932-.77.932-.56 0-.806-.534-.85-.932h1.62zm-1.627-.41c.013-.776.493-1.096 1.046-1.096.398 0 .637.072.845.162l.095-.41c-.196-.09-.53-.196-1.015-.196-.94 0-1.5.64-1.5 1.59 0 .953.542 1.702 1.43 1.702.997 0 1.262-.906 1.262-1.486 0-.118-.014-.21-.02-.268h-2.144zM446.596 132.85c0 .326-.006.593-.025.854h.493l.03-.522h.013c.152.3.505.594 1.01.594.42 0 1.077-.26 1.077-1.343v-1.884h-.555v1.818c0 .508-.183.932-.706.932-.365 0-.65-.267-.743-.587-.027-.072-.04-.168-.04-.267v-1.897h-.554v2.3zM450.738 134.61v-.906h.795v-.438h-.795v-1.7c0-.39.107-.613.417-.613.144 0 .25.02.32.04l.026-.43c-.106-.047-.277-.08-.49-.08-.26 0-.467.085-.6.243-.157.17-.214.45-.214.82v1.72h-.472v.438h.472v.756l.542.15zM452.157 132.72c0 .37-.006.69-.025.983h.486l.018-.62h.025c.14.425.474.693.846.693.063 0 .107-.007.157-.02v-.54c-.056.012-.113.018-.19.018-.39 0-.666-.306-.742-.737-.012-.077-.024-.17-.024-.267v-1.68h-.55v2.17zM454.496 132.12c0-.692.384-1.213.926-1.213.53 0 .927.516.927 1.225 0 .536-.26 1.214-.915 1.214-.656 0-.94-.627-.94-1.226m2.42.032c0-1.166-.78-1.676-1.518-1.676-.825 0-1.463.627-1.463 1.624 0 1.056.67 1.676 1.513 1.676.877 0 1.47-.66 1.47-1.624M461.033 132.42c0 .07-.006.17-.025.242-.083.364-.385.664-.8.664-.574 0-.914-.52-.914-1.22 0-.638.302-1.166.9-1.166.373 0 .713.254.814.684.02.08.025.157.025.248v.548zm.555 2.757v-3.813c0-.28.006-.6.025-.815h-.498l-.026.547h-.013c-.17-.353-.542-.62-1.04-.62-.737 0-1.305.645-1.305 1.604-.006 1.05.624 1.696 1.368 1.696.467 0 .782-.23.92-.482h.013v1.883h.555zM464.443 132.433c.007.366-.145.932-.77.932-.56 0-.806-.534-.85-.932h1.62zm-1.627-.41c.013-.776.493-1.096 1.048-1.096.396 0 .636.072.844.162l.094-.41c-.196-.09-.528-.196-1.015-.196-.938 0-1.5.64-1.5 1.59 0 .953.542 1.702 1.43 1.702.997 0 1.262-.906 1.262-1.486 0-.118-.013-.21-.02-.268h-2.144zM467.57 134.46h-1.29v.482h3.144v-.482h-1.298v-3.91h-.555v3.91zM471.366 132.433c.006.366-.145.932-.77.932-.56 0-.806-.534-.85-.932h1.62zm-1.626-.41c.012-.776.49-1.096 1.045-1.096.398 0 .638.072.845.162l.095-.41c-.195-.09-.53-.196-1.015-.196-.94 0-1.5.64-1.5 1.59 0 .953.542 1.702 1.43 1.702.997 0 1.262-.906 1.262-1.486 0-.118-.013-.21-.018-.268h-2.144zM472.59 132.72c0 .37-.007.69-.025.983h.485l.02-.62h.024c.14.425.473.693.845.693.06 0 .105-.007.156-.02v-.54c-.056.012-.113.018-.19.018-.39 0-.667-.306-.742-.737-.013-.077-.026-.17-.026-.267v-1.68h-.548v2.17zM476.227 132.16c-.605.012-1.292-.098-1.292-.712 0-.37.238-.547.522-.547.398 0 .65.262.737.53.02.06.033.124.033.18v.55zm.082-1.61l-.046.397h-.018c-.17-.248-.5-.47-.934-.47-.617 0-.932.45-.932.906 0 .763.655 1.18 1.834 1.174v.065c0 .26-.07.73-.693.73-.283 0-.58-.09-.794-.234l-.126.377c.253.17.618.28 1.002.28.934 0 1.16-.657 1.16-1.29v-1.18c0-.273.013-.54.05-.756h-.503zM478.206 131.833c0-.084.013-.163.025-.235.103-.397.437-.67.834-.67.585 0 .927.495.927 1.218 0 .633-.32 1.173-.907 1.173-.38 0-.732-.28-.84-.71-.017-.073-.037-.158-.037-.236v-.54zm-.548.842c0 .404-.013.73-.026 1.03h.5l.023-.54h.014c.226.383.584.61 1.082.61.74 0 1.292-.644 1.292-1.603 0-1.133-.668-1.695-1.387-1.695-.403 0-.755.183-.938.496h-.014v-1.715h-.548v3.417zM481.245 133.704h.556v-3.155h-.555v3.154zm.618.886c.006-.195-.133-.352-.353-.352-.196 0-.334.157-.334.352 0 .203.145.36.347.36.207 0 .34-.157.34-.36M484.328 132.16c-.605.012-1.292-.098-1.292-.712 0-.37.24-.547.523-.547.396 0 .648.262.736.53.02.06.032.124.032.18v.55zm.083-1.61l-.044.397h-.02c-.17-.248-.497-.47-.932-.47-.618 0-.933.45-.933.906 0 .763.657 1.18 1.835 1.174v.065c0 .26-.07.73-.693.73-.284 0-.58-.09-.795-.234l-.126.377c.254.17.62.28 1.003.28.934 0 1.16-.657 1.16-1.29v-1.18c0-.273.014-.54.05-.756h-.502zM485.684 131.135c.164-.11.453-.228.73-.228.404 0 .593.21.593.47 0 .273-.158.423-.567.58-.548.202-.807.515-.807.894 0 .51.397.926 1.053.926.31 0 .58-.092.75-.197l-.14-.417c-.118.078-.338.183-.622.183-.33 0-.51-.197-.51-.43 0-.262.18-.38.58-.535.528-.208.8-.483.8-.952 0-.553-.417-.944-1.142-.944-.334 0-.643.084-.857.214l.14.437zM492.58 130.692c-.202-.103-.606-.207-1.122-.207-1.197 0-2.1.78-2.1 2.222 0 1.376.903 2.31 2.22 2.31.53 0 .863-.12 1.007-.198l-.132-.464c-.207.105-.504.183-.856.183-.997 0-1.658-.66-1.658-1.814 0-1.075.597-1.766 1.63-1.766.336 0 .676.07.897.182l.112-.45zM493.25 135.177h.553v-4.628h-.554v4.627zM494.737 133.704h.554v-3.155h-.553v3.154zm1.128 1.363l-.77-.933h-.396l.553.933h.612zM496.212 132.85c0 .326-.006.593-.024.854h.49l.032-.522h.013c.15.3.504.594 1.008.594.423 0 1.08-.26 1.08-1.343v-1.884h-.556v1.818c0 .508-.183.932-.706.932-.366 0-.65-.267-.743-.587-.026-.072-.038-.168-.038-.267v-1.897h-.555v2.3zM499.71 133.704h.555v-3.155h-.555v3.154zm.618.886c.007-.195-.132-.352-.353-.352-.195 0-.334.157-.334.352 0 .203.146.36.348.36.208 0 .34-.157.34-.36M503.36 130.666c-.145-.078-.466-.182-.876-.182-.92 0-1.518.645-1.518 1.61 0 .97.643 1.675 1.64 1.675.326 0 .615-.086.767-.164l-.125-.442c-.134.077-.34.148-.643.148-.7 0-1.078-.533-1.078-1.192 0-.73.454-1.18 1.06-1.18.313 0 .52.084.678.157l.096-.43zM505.617 132.16c-.605.012-1.292-.098-1.292-.712 0-.37.24-.547.524-.547.395 0 .648.262.736.53.02.06.03.124.03.18v.55zm.082-1.61l-.046.397h-.017c-.17-.248-.5-.47-.933-.47-.618 0-.933.45-.933.906 0 .763.657 1.18 1.835 1.174v.065c0 .26-.07.73-.694.73-.282 0-.58-.09-.793-.234l-.126.377c.253.17.62.28 1.003.28.933 0 1.16-.657 1.16-1.29v-1.18c0-.273.012-.54.05-.756h-.504zM506.973 131.135c.163-.11.454-.228.73-.228.405 0 .594.21.594.47 0 .273-.158.423-.567.58-.55.202-.808.515-.808.894 0 .51.398.926 1.053.926.31 0 .58-.092.75-.197l-.138-.417c-.12.078-.34.183-.624.183-.33 0-.51-.197-.51-.43 0-.262.18-.38.58-.535.528-.208.8-.483.8-.952 0-.553-.417-.944-1.14-.944-.335 0-.644.084-.86.214l.14.437z" fill="#f94d00"/></g></svg>