<svg xmlns="http://www.w3.org/2000/svg" width="400" height="88.639"><path d="M107.235 77.68c-6.654 7.165-12.71 10.747-18.175 10.747-3.328 0-5.86-1.604-7.597-4.816-1.738-3.208-2.605-7.504-2.605-12.885 0-4.164.855-9.885 2.564-17.168 1.71-7.283 3.918-13.406 6.624-18.367l2.588-4.634C87.1 34.242 84.2 38.278 81.94 42.66c-2.26 4.385-4.955 10.515-8.094 18.392-3.136 7.878-5.507 13.24-7.112 16.095-1.607 2.853-3.146 5.18-4.612 6.98-1.47 1.796-2.775 2.963-3.916 3.498-1.144.534-3.14.802-5.987.802-1.102 0-1.65-.298-1.65-.89 0-.06.2-.997.59-2.807.397-1.815.798-4.72 1.207-8.718.41-3.996.704-10.79.882-20.372.177-9.586 1.573-17.793 4.188-24.63-2.793 3.18-5.646 10.58-8.56 22.2l-1.115 4.37c-3.06 12.096-6.57 20.26-10.52 24.494-3.954 4.236-7.832 6.353-11.634 6.353-2.35 0-4.416-.74-6.2-2.227-1.784-1.482-2.675-3.19-2.675-5.12 0-1.486 1.07-3.146 3.21-4.99 2.14-1.844 3.49-2.765 4.048-2.765.65 0 1.078.223 1.288.67.207.445.475 1.67.805 3.676.325 2.007.824 3.316 1.495 3.925.67.61 1.51.914 2.523.914 2.29 0 4.822-2.3 7.593-6.893 2.77-4.594 5.302-11.69 7.59-21.297l1.298-5.396c1.04-4.4 2.07-7.91 3.08-10.526 1.013-2.617 2.354-5.235 4.022-7.85 2.41-3.746 3.894-5.747 4.444-6 .55-.25 1.583-.46 3.1-.622 1.515-.166 3.03-.246 4.548-.246.595 0 .89.342.89 1.025 0 .328-.093.996-.283 2.008-.598 4.164-.88 8.342-.848 12.534l.088 11.957c.057 10.407-.777 18.81-2.504 25.205 1.578-1.905 3.867-6.812 6.868-14.723 4.34-11.21 8.294-19.628 11.86-25.248 1.695-2.707 3.738-5.3 6.132-7.784 2.392-2.482 4.05-3.815 4.97-3.993 3.153-.595 5.816-.893 7.988-.893.803 0 1.204.223 1.204.67 0 .624-.488 2.023-1.46 4.193-2.305 5.234-4.463 12.31-6.48 21.23-2.013 8.914-3.036 16.013-3.066 21.295 0 5.97 1.83 8.958 5.486 8.958 2.974 0 6.508-2.527 10.613-7.578v5.142z" fill="#fff"/><path d="M147.035 77.677c-1.52 1.327-2.992 2.262-4.42 2.808-1.43.546-2.562.818-3.395.818-2.144 0-4.272-.828-6.386-2.49-4.292 6.5-9.21 9.75-14.756 9.75-3.458 0-6.26-1.298-8.407-3.892-2.147-2.59-3.22-6.034-3.22-10.328 0-6.798 2.415-12.635 7.243-17.51 4.832-4.873 10.597-7.31 17.305-7.31 2.534 0 4.39.274 5.567.827 1.177.553 1.902 1.198 2.17 1.946.268.742.4 1.683.4 2.815 0 5.578-1.52 12.42-4.557 20.53 1.517 1.4 3.11 2.1 4.777 2.1 1.995 0 4.554-1.734 7.68-5.204v5.14zM132.297 52.67c-.447-.18-1.086-.27-1.922-.27-3.87 0-6.902 2.027-9.09 6.08-2.19 4.052-3.283 8.792-3.283 14.213 0 3.012.475 5.348 1.427 7.02.953 1.67 2.28 2.502 3.977 2.502 2.115 0 4.41-1.953 6.88-5.858-2.804-3.517-4.205-7.3-4.205-11.354 0-4.767 2.07-8.878 6.215-12.334" fill="#fff"/><path d="M190.562 77.634c-6.873 7.274-12.76 10.914-17.668 10.914-1.993 0-3.6-.7-4.82-2.106-1.22-1.403-1.83-3.29-1.83-5.648 0-3.197 1.31-8.073 3.932-14.627 1.4-3.513 2.098-5.748 2.098-6.703 0-.953-.37-1.428-1.114-1.428-.416 0-.967.21-1.65.625-.623.42-1.353 1-2.187 1.747-.743.686-1.575 1.52-2.496 2.506-.803.834-1.666 1.79-2.588 2.863l-2.5 2.907c-1.1 1.343-1.785 2.76-2.05 4.252-.447 2.535-.744 4.863-.892 6.98-.09 1.58-.132 3.714-.132 6.397l-9.91 2.327c-.33-4.03-.495-7.026-.495-8.997 0-4.802.56-9.35 1.68-13.65 1.12-4.296 2.917-9.128 5.392-14.5l10.906-2.104c-2.294 6.183-3.798 11.047-4.512 14.603 4.882-5.465 8.764-9.25 11.638-11.354 2.874-2.107 5.427-3.16 7.66-3.16 1.52 0 2.786.576 3.8 1.724 1.012 1.15 1.518 2.59 1.518 4.322 0 2.867-1.288 7.572-3.864 14.12-1.765 4.496-2.65 7.413-2.65 8.757 0 1.792.73 2.69 2.19 2.69 2.174 0 5.69-2.868 10.544-8.6v5.14z" fill="#fff"/><path d="M216.102 77.708c-3.77 3.707-7.033 6.444-9.784 8.21-2.754 1.76-5.372 2.645-7.854 2.645-2.573 0-4.663-1.08-6.263-3.24-1.598-2.158-2.4-4.993-2.4-8.51 0-3.095.767-7.188 2.307-12.274l1.945-6.76-3.473.18 1.43-7.026 4.257-.18 4.208-13.92 12.032-2.458-4.657 15.548 6.327-.358-1.48 6.888-6.962.533-3 9.995c-1.042 3.484-1.565 6.254-1.565 8.31 0 1.402.354 2.543 1.058 3.424.704.878 1.61 1.318 2.72 1.318 1.53 0 3.04-.48 4.542-1.447 1.5-.964 3.703-2.976 6.612-6.032v5.153z" fill="#fff"/><path d="M249.237 77.696c-3.79 3.71-7.19 6.45-10.2 8.22-3.015 1.763-6.34 2.648-9.98 2.648-4.057 0-7.33-1.298-9.82-3.892-2.49-2.593-3.737-6.007-3.737-10.24 0-6.32 2.197-12.038 6.582-17.15 4.388-5.113 9.253-7.668 14.595-7.668 2.776 0 5 .713 6.672 2.144 1.67 1.43 2.505 3.306 2.505 5.63 0 6.164-6.57 11.168-19.71 15.01 1.192 5.816 4.31 8.72 9.354 8.72 1.967 0 3.848-.524 5.64-1.58 1.787-1.05 4.49-3.386 8.097-7.002v5.16zm-23.45-8.357c7.65-2.144 11.473-6.104 11.473-11.88 0-2.858-1.045-4.285-3.136-4.285-1.974 0-3.856 1.496-5.648 4.488-1.794 2.99-2.69 6.88-2.69 11.676" fill="#fff"/><path d="M282.434 77.646c-7.488 7.308-13.262 10.962-17.32 10.962-1.82 0-3.357-.765-4.61-2.3-1.256-1.533-1.88-3.434-1.88-5.695 0-4.2 2.25-9.832 6.756-16.892-2.208 1.133-4.624 1.925-7.25 2.372-1.937 3.57-4.98 7.408-9.13 11.513h-1.026v-4.022c2.326-2.41 4.43-5 6.31-7.764-2.56-1.136-3.843-2.816-3.843-5.05 0-2.294.784-4.742 2.35-7.348 1.56-2.606 3.716-3.91 6.458-3.91 2.326 0 3.488 1.19 3.488 3.57 0 1.873-.67 4.553-2.01 8.032 4.95-.535 9.277-4.314 12.974-11.332l4.074-.178-4.16 11.432c-1.73 4.82-2.846 8.105-3.354 9.845-.506 1.74-.76 3.284-.76 4.62 0 1.252.293 2.25.874 2.993.58.745 1.364 1.12 2.35 1.12 1.072 0 2.1-.365 3.088-1.094.984-.727 3.194-2.74 6.622-6.033v5.16z" fill="#fff"/><path d="M322.297 77.677c-1.52 1.327-2.992 2.262-4.42 2.808-1.43.546-2.56.818-3.395.818-2.14 0-4.27-.828-6.383-2.49-4.296 6.5-9.214 9.75-14.758 9.75-3.458 0-6.263-1.298-8.408-3.892-2.147-2.59-3.22-6.034-3.22-10.328 0-6.798 2.414-12.635 7.243-17.51 4.83-4.873 10.6-7.31 17.303-7.31 2.536 0 4.39.274 5.567.827 1.177.553 1.902 1.198 2.17 1.946.268.742.403 1.683.403 2.815 0 5.578-1.52 12.42-4.56 20.53 1.52 1.4 3.112 2.1 4.78 2.1 1.992 0 4.55-1.734 7.677-5.204v5.14zM307.562 52.67c-.448-.18-1.09-.27-1.922-.27-3.872 0-6.902 2.027-9.093 6.08-2.19 4.052-3.283 8.792-3.283 14.213 0 3.012.476 5.348 1.43 7.02.953 1.67 2.277 2.502 3.975 2.502 2.115 0 4.408-1.953 6.88-5.858-2.805-3.517-4.205-7.3-4.205-11.354 0-4.767 2.07-8.878 6.217-12.334" fill="#fff"/><path d="M335.763 51.446c2.06-.536 4.134-.976 6.226-1.317 2.09-.344 3.342-.517 3.76-.517.3 0 .45.12.45.357 0 .443-.118.906-.352 1.38-.467 1.366-.7 2.674-.7 3.918.007 1.55.9 3.665 2.683 6.352 1.782 2.687 2.67 5.174 2.67 7.47 0 4.554-2.187 8.948-6.566 13.178-4.377 4.227-8.914 6.34-13.604 6.34-2.032 0-3.884-.536-5.56-1.606-1.67-1.073-2.508-2.22-2.508-3.44 0-.715.83-2.067 2.49-4.062 1.66-1.995 2.846-2.992 3.563-2.992.96 0 1.81 1.22 2.557 3.652.747 2.437 2.034 3.655 3.856 3.655 1.826 0 3.536-.84 5.136-2.525 1.6-1.684 2.4-3.494 2.4-5.43.018-1.876-.99-4.374-3.02-7.495-2.033-3.122-3.376-5.734-4.03-7.84-3.472 5.56-7.872 11.256-13.2 17.084h-1.032v-4.024c7.314-7.767 12.24-15.147 14.78-22.14M400 77.696c-4.767 4.514-8.182 7.454-10.236 8.82-2.06 1.364-4.026 2.047-5.902 2.047-4.71 0-6.93-4.16-6.66-12.478-2.978 4.263-5.724 7.41-8.24 9.44-2.513 2.022-5.11 3.038-7.788 3.038-2.62 0-4.845-1.228-6.675-3.69-1.83-2.46-2.745-5.477-2.745-9.057 0-4.47 1.23-8.735 3.683-12.79 2.455-4.053 5.603-7.333 9.443-9.837 3.84-2.505 7.23-3.76 10.176-3.76 3.72 0 6.326 1.716 7.813 5.14l9.16-5.047h2.51l-3.96 13.104c-2.04 6.59-3.063 11.106-3.063 13.55 0 2.564.912 3.846 2.73 3.846 1.164 0 2.448-.614 3.846-1.85 1.404-1.232 3.373-3.11 5.907-5.636v5.16zm-32.7 2.42c2.975 0 5.777-2.544 8.407-7.63 2.634-5.09 3.95-9.78 3.95-14.075 0-1.672-.37-2.975-1.118-3.915-.745-.942-1.74-1.413-2.986-1.413-2.976 0-5.793 2.537-8.452 7.61-2.662 5.074-3.993 9.744-3.993 14.01 0 1.61.393 2.915 1.18 3.914.79 1 1.792 1.5 3.01 1.5" fill="#fff"/><path d="M107.096 77.587c-6.633 7.135-12.67 10.7-18.118 10.7-3.317 0-5.842-1.596-7.575-4.794-1.73-3.196-2.597-7.472-2.597-12.83 0-4.148.852-9.843 2.557-17.096 1.704-7.252 3.905-13.347 6.604-18.288l2.58-4.615c-3.525 3.67-6.417 7.69-8.67 12.053-2.252 4.366-4.938 10.47-8.068 18.312-3.127 7.844-5.492 13.185-7.09 16.027-1.602 2.84-3.136 5.157-4.6 6.948-1.465 1.79-2.765 2.952-3.903 3.483-1.14.533-3.13.8-5.968.8-1.1 0-1.644-.297-1.644-.888 0-.057.198-.99.588-2.795.394-1.806.794-4.7 1.202-8.678.408-3.98.702-10.743.88-20.286.177-9.543 1.568-17.716 4.176-24.522-2.785 3.167-5.63 10.534-8.534 22.105l-1.11 4.35c-3.052 12.044-6.55 20.173-10.49 24.39-3.942 4.216-7.806 6.325-11.598 6.325-2.34 0-4.402-.737-6.18-2.217-1.777-1.475-2.665-3.175-2.665-5.096 0-1.48 1.068-3.135 3.2-4.97 2.13-1.836 3.478-2.752 4.035-2.752.647 0 1.075.22 1.283.666.207.442.474 1.663.802 3.66.325 1.998.82 3.3 1.49 3.908.67.606 1.508.91 2.516.91 2.286 0 4.81-2.29 7.57-6.863 2.763-4.574 5.286-11.64 7.57-21.205l1.29-5.372c1.04-4.382 2.065-7.88 3.074-10.484 1.008-2.604 2.344-5.21 4.008-7.816 2.404-3.73 3.882-5.72 4.428-5.972.55-.25 1.58-.46 3.092-.62 1.51-.165 3.022-.244 4.534-.244.593 0 .888.34.888 1.02 0 .326-.094.99-.283 2-.595 4.144-.876 8.305-.845 12.48l.09 11.903c.057 10.364-.776 18.73-2.498 25.097 1.574-1.894 3.855-6.78 6.846-14.657C74.29 50.5 78.23 42.12 81.788 36.523c1.688-2.695 3.726-5.278 6.112-7.75 2.385-2.472 4.037-3.797 4.955-3.975 3.144-.593 5.8-.89 7.963-.89.8 0 1.2.223 1.2.668 0 .62-.485 2.014-1.456 4.175-2.297 5.213-4.448 12.258-6.458 21.137-2.008 8.878-3.028 15.947-3.058 21.207 0 5.944 1.824 8.918 5.468 8.918 2.965 0 6.49-2.516 10.582-7.545v5.12z" fill="#0054a6"/><path d="M146.896 77.616c-1.51 1.316-2.973 2.246-4.39 2.788-1.42.54-2.546.812-3.37.812-2.13 0-4.245-.824-6.343-2.47-4.262 6.45-9.15 9.678-14.654 9.678-3.437 0-6.22-1.288-8.352-3.864-2.133-2.573-3.198-5.993-3.198-10.257 0-6.748 2.397-12.544 7.192-17.383 4.798-4.84 10.525-7.26 17.187-7.26 2.516 0 4.358.274 5.526.82 1.17.55 1.89 1.194 2.156 1.934.268.74.4 1.67.4 2.796 0 5.537-1.512 12.333-4.528 20.383 1.507 1.39 3.088 2.086 4.745 2.086 1.98 0 4.52-1.723 7.626-5.17v5.106zm-14.638-24.83c-.443-.18-1.078-.27-1.906-.27-3.846 0-6.856 2.014-9.03 6.038-2.174 4.024-3.26 8.73-3.26 14.114 0 2.99.472 5.31 1.417 6.97.947 1.656 2.263 2.484 3.95 2.484 2.1 0 4.38-1.94 6.835-5.818-2.787-3.49-4.18-7.25-4.18-11.273 0-4.73 2.058-8.812 6.173-12.245" fill="#0054a6"/><path d="M190.423 77.563c-6.83 7.208-12.68 10.816-17.557 10.816-1.98 0-3.58-.696-4.79-2.09-1.214-1.39-1.817-3.258-1.817-5.595 0-3.17 1.3-8 3.904-14.496 1.39-3.484 2.087-5.698 2.087-6.644 0-.945-.37-1.416-1.108-1.416-.413 0-.96.205-1.638.62-.622.415-1.345.99-2.175 1.73-.74.678-1.566 1.507-2.48 2.483-.8.827-1.657 1.773-2.572 2.838l-2.483 2.883c-1.093 1.33-1.773 2.733-2.038 4.212-.444 2.513-.74 4.82-.886 6.918-.088 1.566-.13 3.68-.13 6.34l-9.85 2.306c-.327-3.992-.49-6.964-.49-8.917 0-4.76.556-9.267 1.668-13.528 1.113-4.257 2.898-9.045 5.36-14.37l10.836-2.084c-2.28 6.13-3.774 10.95-4.484 14.472 4.852-5.415 8.71-9.165 11.565-11.25 2.856-2.087 5.393-3.13 7.614-3.13 1.507 0 2.765.57 3.773 1.708 1.006 1.14 1.51 2.566 1.51 4.283 0 2.84-1.28 7.504-3.84 13.992-1.756 4.457-2.634 7.347-2.634 8.68 0 1.776.724 2.665 2.175 2.665 2.16 0 5.654-2.84 10.478-8.523v5.096z" fill="#0054a6"/><path d="M215.963 77.634c-3.73 3.686-6.958 6.406-9.68 8.16-2.725 1.752-5.316 2.63-7.772 2.63-2.545 0-4.612-1.073-6.195-3.22-1.583-2.145-2.377-4.964-2.377-8.458 0-3.077.76-7.145 2.283-12.2l1.927-6.72-3.437.177 1.417-6.983 4.21-.177 4.164-13.84 11.906-2.44-4.608 15.455 6.26-.356-1.465 6.845-6.887.53-2.97 9.936c-1.03 3.462-1.546 6.216-1.546 8.26 0 1.393.348 2.527 1.046 3.403.696.872 1.593 1.31 2.692 1.31 1.513 0 3.007-.48 4.493-1.437 1.485-.96 3.666-2.96 6.543-6v5.124z" fill="#0054a6"/><path d="M249.098 77.634c-3.758 3.686-7.13 6.406-10.115 8.16-2.99 1.752-6.29 2.63-9.898 2.63-4.024 0-7.27-1.287-9.74-3.865-2.47-2.574-3.706-5.963-3.706-10.168 0-6.272 2.177-11.95 6.526-17.025 4.352-5.08 9.177-7.614 14.476-7.614 2.752 0 4.958.708 6.616 2.128 1.657 1.42 2.485 3.284 2.485 5.592 0 6.12-6.515 11.087-19.546 14.904 1.182 5.772 4.276 8.658 9.277 8.658 1.95 0 3.817-.523 5.592-1.568 1.775-1.044 4.454-3.364 8.032-6.955v5.124zm-23.257-8.298c7.588-2.127 11.38-6.058 11.38-11.792 0-2.838-1.038-4.255-3.11-4.255-1.958 0-3.824 1.485-5.602 4.454-1.777 2.972-2.667 6.832-2.667 11.592" fill="#0054a6"/><path d="M282.296 77.587c-7.43 7.255-13.157 10.882-17.183 10.882-1.804 0-3.33-.76-4.572-2.285-1.244-1.52-1.864-3.408-1.864-5.653 0-4.17 2.232-9.76 6.702-16.766-2.19 1.123-4.585 1.908-7.19 2.353-1.923 3.542-4.94 7.352-9.056 11.427h-1.02v-3.993c2.308-2.39 4.396-4.96 6.26-7.706-2.54-1.127-3.813-2.795-3.813-5.013 0-2.276.777-4.707 2.328-7.293 1.55-2.587 3.69-3.88 6.408-3.88 2.307 0 3.46 1.18 3.46 3.543 0 1.86-.665 4.518-1.995 7.97 4.912-.53 9.204-4.28 12.873-11.246l4.04-.177-4.127 11.347c-1.714 4.785-2.824 8.045-3.327 9.772-.503 1.728-.753 3.26-.753 4.587 0 1.24.29 2.232.865 2.97.577.74 1.354 1.11 2.33 1.11 1.066 0 2.085-.362 3.063-1.087.978-.72 3.17-2.717 6.57-5.986v5.12z" fill="#0054a6"/><path d="M322.158 77.616c-1.508 1.316-2.97 2.246-4.39 2.788-1.42.54-2.54.812-3.37.812-2.13 0-4.242-.824-6.34-2.47-4.267 6.45-9.15 9.678-14.657 9.678-3.433 0-6.22-1.288-8.35-3.864-2.13-2.573-3.198-5.993-3.198-10.257 0-6.748 2.4-12.544 7.193-17.383 4.8-4.84 10.527-7.26 17.187-7.26 2.516 0 4.36.274 5.526.82 1.172.55 1.892 1.194 2.157 1.934.267.74.4 1.67.4 2.796 0 5.537-1.508 12.333-4.527 20.383 1.508 1.39 3.09 2.086 4.746 2.086 1.978 0 4.52-1.723 7.624-5.17v5.106zm-14.633-24.83c-.445-.18-1.082-.27-1.91-.27-3.846 0-6.856 2.014-9.032 6.038-2.173 4.024-3.26 8.73-3.26 14.114 0 2.99.473 5.31 1.42 6.97.947 1.656 2.262 2.484 3.95 2.484 2.1 0 4.378-1.94 6.834-5.818-2.787-3.49-4.177-7.25-4.177-11.273 0-4.73 2.058-8.812 6.175-12.245" fill="#0054a6"/><path d="M335.763 51.572c2.04-.53 4.095-.97 6.167-1.308 2.07-.34 3.312-.51 3.726-.51.297 0 .445.116.445.352 0 .44-.116.9-.348 1.37-.46 1.357-.693 2.654-.693 3.89.006 1.54.893 3.64 2.657 6.306 1.764 2.668 2.645 5.14 2.645 7.418 0 4.522-2.167 8.884-6.506 13.083-4.335 4.198-8.828 6.296-13.474 6.296-2.014 0-3.847-.534-5.507-1.597-1.658-1.063-2.486-2.202-2.486-3.415 0-.708.82-2.05 2.464-4.03 1.646-1.983 2.82-2.972 3.532-2.972.95 0 1.792 1.21 2.532 3.627.74 2.418 2.015 3.627 3.82 3.627 1.808 0 3.502-.834 5.087-2.507 1.584-1.67 2.376-3.47 2.376-5.39.02-1.863-.978-4.345-2.99-7.443-2.012-3.1-3.342-5.694-3.99-7.783-3.44 5.52-7.8 11.175-13.078 16.96h-1.02v-3.992c7.244-7.713 12.125-15.04 14.64-21.983M399.86 77.634c-4.74 4.48-8.133 7.402-10.175 8.758-2.048 1.353-4.004 2.033-5.87 2.033-4.68 0-6.89-4.13-6.62-12.39-2.96 4.232-5.692 7.358-8.193 9.372-2.5 2.01-5.08 3.018-7.742 3.018-2.606 0-4.818-1.22-6.638-3.663-1.818-2.443-2.728-5.44-2.728-8.994 0-4.44 1.222-8.673 3.663-12.7 2.44-4.024 5.57-7.28 9.387-9.767 3.817-2.485 7.187-3.73 10.116-3.73 3.7 0 6.29 1.703 7.77 5.104l9.107-5.012h2.497l-3.938 13.01c-2.03 6.543-3.046 11.027-3.046 13.454 0 2.546.906 3.82 2.714 3.82 1.158 0 2.434-.612 3.825-1.837 1.395-1.225 3.35-3.092 5.87-5.6v5.124zm-32.51 2.402c2.957 0 5.742-2.526 8.36-7.576 2.617-5.052 3.924-9.71 3.924-13.973 0-1.66-.368-2.956-1.11-3.89-.74-.935-1.73-1.4-2.968-1.4-2.958 0-5.76 2.518-8.405 7.556-2.643 5.035-3.967 9.672-3.967 13.907 0 1.6.392 2.896 1.174 3.886.785.995 1.78 1.49 2.994 1.49M1.6 16.483H0V0h4.427C5.98 0 7.234.14 8.39.95c1.324.93 2.134 2.574 2.134 4.29 0 2.503-1.67 4.635-3.987 4.8l3.987 6.443H8.6l-4.89-7.95h1.55c2.135 0 3.527-1.392 3.527-3.27 0-1.16-.396-2.11-1.184-2.828-.903-.813-2.063-.813-3.616-.813H1.6v14.86zM13.4 10.757c.208 2.782 2.202 4.544 4.773 4.544 1.832 0 3.433-.972 4.267-2.757h1.81c-1.16 2.78-3.318 4.29-6.03 4.29-3.73 0-6.47-3.086-6.47-6.586 0-3.708 2.646-6.56 6.54-6.56 3.687 0 6.35 2.78 6.35 6.955v.115H13.4zm4.66-5.563c-2.365 0-4.22 1.577-4.613 4.22h9.433c-.6-2.783-2.225-4.22-4.82-4.22M27.332 12.566v.047c0 1.62 1.066 2.688 2.318 2.688 1.23 0 2.18-.857 2.18-2.063 0-1.32-.745-1.9-2.272-2.458-1.947-.695-3.34-1.297-3.34-3.57 0-1.948 1.625-3.5 3.617-3.5 2.11 0 3.455 1.254 3.548 3.43h-1.717c-.07-1.204-.787-1.854-1.923-1.854-1.067 0-1.833.81-1.833 1.832 0 .765.28 1.228.927 1.622.767.488 1.67.582 2.483.928 1.574.674 2.272 1.74 2.272 3.43 0 2.134-1.67 3.71-3.965 3.71s-3.87-1.6-3.942-4.242h1.647zM35.514 0h1.6v2.575h-1.6V0zm0 4.035h1.6v12.448h-1.6V4.035zM50.165 0h1.602v16.483h-1.602v-1.878c-1.135 1.414-2.896 2.203-4.727 2.203-3.595 0-6.378-2.874-6.378-6.56 0-3.547 2.62-6.49 6.378-6.49 1.946 0 3.592.764 4.727 2.248V0zm-4.682 5.24c-2.504 0-4.776 2.063-4.776 4.937 0 3.037 2.272 5.147 4.823 5.147 2.39 0 4.683-2.225 4.683-4.94 0-2.964-2.318-5.144-4.73-5.144M55.267 10.757c.207 2.782 2.203 4.544 4.775 4.544 1.83 0 3.43-.972 4.266-2.757h1.808c-1.158 2.78-3.316 4.29-6.028 4.29-3.732 0-6.468-3.086-6.468-6.586 0-3.708 2.645-6.56 6.537-6.56 3.687 0 6.353 2.78 6.353 6.955v.115H55.267zm4.66-5.563c-2.365 0-4.22 1.577-4.615 4.22h9.437c-.605-2.783-2.228-4.22-4.824-4.22M69.894 4.034v1.414c.996-1.133 2.27-1.668 3.92-1.668 1.852 0 3.312.717 4.126 1.97.72 1.088.808 2.412.808 4.22v6.513h-1.574V9.507c0-2.853-.997-4.197-3.548-4.197-1.46 0-2.572.602-3.197 1.69-.536.93-.536 1.995-.536 3.434v6.05H68.34V4.033h1.554zM86.933 5.193c-2.504 0-4.614 2.133-4.614 5.08 0 2.873 2.04 5.028 4.684 5.028 1.878 0 3.453-.95 4.24-2.712h1.764c-.975 2.713-3.13 4.243-5.935 4.243-3.71 0-6.422-3.036-6.422-6.54 0-3.683 2.875-6.602 6.47-6.602 2.663 0 4.844 1.483 5.888 4.172h-1.763c-.973-1.786-2.34-2.667-4.312-2.667M95.347 0h1.6v2.575h-1.6V0zm0 4.035h1.6v12.448h-1.6V4.035zM105.27 16.808c-3.756 0-6.374-2.945-6.374-6.49 0-3.664 2.712-6.56 6.513-6.56 1.922 0 3.57.81 4.636 2.27V4.035h1.553v12.45h-1.554v-1.97c-.996 1.413-2.783 2.294-4.776 2.294m.09-11.568c-2.548 0-4.82 2.11-4.82 5.146 0 2.875 2.272 4.937 4.778 4.937 2.41 0 4.728-2.177 4.728-5.145 0-2.713-2.295-4.938-4.685-4.938M114.15 0h1.598v16.483h-1.6V0z" fill="#0054a6"/></svg>