<svg xmlns="http://www.w3.org/2000/svg" width="400" height="374.92"><path d="M103.695 347.165c-7.54 1.883-13.2 3.766-13.2 3.766l-3.766-3.765-.944 6.6s-8.484 0-11.307 3.764c-2.823 3.772-6.6 5.654-5.65 10.366 0 0-2.17-7.052-6.925-12.507-.218.1-.43.186-.62.26-1.745.58-8.544 9.473-10.345 17.94 6.324 2.274 27.882 1.137 37.67-4.2 10.373-5.657 21.082-11.703 22.623-17.91 0 0-2.13-1.897-4.43-4.477-.95-.144-1.985-.12-3.108.162" fill="#c57715"/><path d="M82.964 349.99s8.112 7.543 10.184 9.43c0 0-21.49 15.068-24.317 8.476l-1.89-9.424 16.024-8.48z" fill="#ffc20e"/><path d="M79.19 343.864H72.6l3.762 5.184H70.71s-5.73 4.913-8.805 6.34c4.755 5.46 6.926 12.512 6.926 12.512-.95-4.716 2.827-6.605 5.65-10.367 2.822-3.77 11.306-3.77 11.306-3.77l.943-6.594 3.765 3.764s5.66-1.886 13.2-3.765c1.123-.286 2.16-.315 3.108-.163-.725-.806-1.464-1.686-2.16-2.594-2.93-3.783-7.543-6.12-7.543-8.95-3.952 2.28-15.086 6.047-15.086 6.047l-2.823 2.354z" fill="#f7931e"/><path d="M352.478 357.533c-4.705-5.656-9.43-1.89-9.43-1.89l2.818-5.652v-5.94c-4.157 4.153-7.183 8.616-9.19 12.096l-3.036 6.095-5.66 3.78-.942-4.725h-8.488l-5.648-5.652c2.322-1.394 4.656-4.287 6.412-6.856-2.65-1.354-5.02-2.283-6.412-2.56-3.308-.667-11.758 1.47-16.466 2.796-5.78 4.938 1.773 16.71 17.41 21.31 12.82 3.768 32.284 7.53 42.44 1.146.91-5.765-1.15-10.766-3.808-13.947" fill="#c57715"/><path d="M312.902 346.226c1.393.278 3.762 1.207 6.415 2.56 6.352 3.218 14.323 8.806 14.323 13.46 0 0 1.182-2.384 3.252-5.966 2.002-3.474 4.817-8.073 8.974-12.23l-.05-.362-9.4 3.3-16.863-11.46 1.812-7.503-6.788 6.056-2.622 3.263s-8.48 6.602-15.076 11.31c-.156.117-.314.24-.444.367 4.708-1.323 13.158-3.46 16.466-2.794" fill="#f7931e"/><path d="M145.98 74.783s-27.26-2.953-46.568-24.078h-4.318L81.24 75.24s-9.998-12.042-27.714-7.495l-22.94 63.15 2.04 3.182s18.634-8.86 31.57 5.676c0 0 21.812 21.587 15.907 59.066 0 0-2.045 12.946-9.08 21.35 0 0-2.583-8.964-6.257-12.8 0 0-8.308-11.345-24.444-2.55 0 0-12.137 7.664-4.318 21.086l25.022 50.908s7.562 21.808 24.683 23.166c0 0 .45 30.142 11.65 48.913 0 0 6.07 20.605 28.777 17.575 0 0 17.575-1.218 20.904-6.813 0 0 8.79 6.51 25.14 5.145 0 0 19.086 1.668 28.172-7.264 0 0 6.514 8.932 33.02 7.41 0 0 13.014.156 20.436-5.144 0 0 3.945 4.248 10.607 5.145 6.655.92 20.288 5.156 30.282-3.174 0 0 6.06-6.063 8.643-12.12 2.566-6.056 11.5-23.617 11.5-49.518 0 0 13.55-.908 20.14-13.633 6.59-12.722 30.22-61.564 30.22-61.564s9.31-16.128-11.434-22.79c0 0-16.06-3.33-20.14 9.09l-4.237 8.78s-14.398-20.14-9.095-46.495c0 0 4.843-25.44 17.258-35.28 0 0 11.515-12.12 30.29-4.096l1.823-3.17-23.1-63.686s-15.826-4.47-27.326 7.648l-14.246-23.93-4.237-.152s-12.57 17.867-47.396 23.927H145.98z" fill="#006f3b"/><path d="M97.216 78.204h205.667v174.683s4.057 38.507-29.582 54.438c0 0-32.974 17.265-66.613 17.557 0 0-46.33.887-75.542-15.643 0 0-35.702-12.09-33.64-57.233l-.29-173.803z" fill="#ffd800"/><path d="M273.3 307.325s-32.97 17.265-66.613 17.557c0 0-46.33.89-75.54-15.643 0 0-35.71-12.09-33.638-57.236l-.294-173.8h205.667v174.68s4.057 38.506-29.582 54.44m32.303-53.078V74.934H94.49l.31 178.407c-2.13 46.338 34.518 58.757 34.518 58.757 29.99 16.962 77.548 16.054 77.548 16.054 34.527-.298 68.367-18.024 68.367-18.024 34.537-16.353 30.37-55.88 30.37-55.88" fill="#fffcd5"/><path d="M116.75 346.704h19.163s-2.502-5.61-10.227-5.374c0 0-5.148.148-8.935 5.374" fill="#003d18"/><path d="M127.122 338.825s12.722 0 15.527 1.897c2.803 1.89 10.373 6.964 4.39 18.93 0 0-1.967 2.494-4.768 3.483-2.808.985-8.326 2.875-17.722 3.484v-.91l11.887-5.45 2.73-11.282-3.335-4.998-4.687-3.638-4.023-1.517zM284.756 346.704H265.6s2.496-5.61 10.217-5.374c0 0 5.152.148 8.94 5.374" fill="#003d18"/><path d="M273.695 338.825s-12.71 0-15.516 1.897c-2.806 1.89-10.38 6.964-4.397 18.93 0 0 1.97 2.494 4.776 3.483 2.793.985 8.322 2.875 17.714 3.484v-.91l-11.887-5.45-2.73-11.282 3.33-4.998 4.707-3.638 4-1.517z" fill="#003d18"/><path d="M219.127 339.814c3.55-9.76 13.232-11.223 15.287-11.424-.887.036-3.783.07-13.242-.084-13.634-.236-20.788 7.267-20.788 7.267-9.305-10.34-35.776-7.2-35.776-7.2l3.488.306c13.47 2.424 14.576 15.177 14.576 15.177 1.696 18.52-15.336 21.09-15.336 21.09l-.06.036c1.548.014 3.185-.036 4.905-.18 0 0 19.086 1.665 28.172-7.274 0 0 6.49 8.895 32.844 7.432l-.218-.088c-11.35-1.89-17.838-14.09-13.85-25.06" fill="#28903a"/><path d="M66.477 136.273c-15.46-14.84-35.892-5.374-35.892-5.374l2.04 3.177s18.635-8.865 31.57 5.673c0 0 15.665 15.498 16.847 43.032 1.56-28.058-14.565-46.51-14.565-46.51M145.165 74.677c-4.67-.686-28.414-4.997-45.753-23.972h-4.318l5.902 5.602c14.492 14.774 40.168 17.96 44.17 18.37M304.994 51.008l-4.237-.152s-12.553 17.842-47.31 23.913l.44.242s35.887-3.706 51.107-24.004M333.165 137.255s-14.316 19.31-13.4 38.17l.17.048c.11-.644.223-1.3.36-1.95 0 0 4.843-25.443 17.258-35.29 0 0 11.515-12.11 30.29-4.086l1.823-3.17s-21.73-10.755-36.5 6.278M182.405 350.262s.605-16.283-14.003-19.387c-14.622-3.104-21.062 13.478-12.275 20.978 8.787 7.495 16.66.99 17.11-4.012l2.052 1.29s-3.485 11.58-15.457 7.42c-11.962-4.17-10.67-17.725-7.34-21.885 3.33-4.167 7.27-6.21 12.115-6.29 4.846-.072 11.532 1.972 15.34 8.05 3.794 6.074 2.808 11.77 2.457 13.837" fill="#6c9d31"/><path d="M175.29 349.13h7.034s0-.874-.074-1.293h-9.013l2.052 1.292z" fill="#6c9d31"/><path d="M166.368 357.32h13.228s3.104-4.236 2.735-8.195h-7.04s-2.313 7.31-8.922 8.196" fill="#003d18"/><path d="M218.3 350.262s-.612-16.283 14.013-19.387c14.612-3.104 21.048 13.478 12.27 20.978-8.79 7.495-16.67.99-17.126-4.012l-2.038 1.29s3.49 11.58 15.44 7.42c11.963-4.17 10.685-17.725 7.346-21.885-3.326-4.167-7.264-6.21-12.11-6.29-4.85-.072-11.532 1.972-15.333 8.05-3.8 6.074-2.826 11.77-2.463 13.837" fill="#6c9d31"/><path d="M225.42 349.13h-7.1s.036-.874.107-1.293h9.026l-2.034 1.292z" fill="#6c9d31"/><path d="M234.326 357.32h-13.063s-2.418-3.48-2.907-7.04c-.056-.363-.07-.792-.035-1.155h7.082s2.308 7.31 8.924 8.196" fill="#003d18"/><path d="M41.255 227.1c-8.63-7.265-6.693-18.853 5.792-22.6 12.493-3.756 21.133 7.495 15.457 13.857 0 0-5.005 6.922-19.32 2.38l-2.154 1.586s6.595 3.98 13.172 2.62c6.595-1.367 13.41-3.3 12.722-14.543v-.05c-.662-1.136-1.39-2.174-2.158-2.976 0 0-8.308-11.35-24.444-2.558 0 0-12.137 7.664-4.318 21.093 11.3 9.92 20.45 7.73 26.545 3.473l-.046-.01s-12.613 4.996-21.25-2.274" fill="#6c9d31"/><path d="M71.023 220.173s-1.608-5.585-4.1-9.825v.056c.69 11.237-6.126 13.176-12.72 14.538-6.578 1.358-13.173-2.612-13.173-2.612l2.153-1.594c14.316 4.543 19.32-2.38 19.32-2.38 5.677-6.36-2.963-17.61-15.456-13.857-12.485 3.743-14.42 15.335-5.792 22.6 8.64 7.273 21.25 2.27 21.25 2.27l.044.01c5.436-3.787 8.473-9.207 8.473-9.207M338.39 229.372s12.603 4.997 21.246-2.273c8.63-7.265 6.69-18.853-5.8-22.6-12.493-3.756-21.13 7.495-15.445 13.857 0 0 4.99 6.922 19.314 2.38l2.15 1.586s-6.588 3.98-13.168 2.626c-6.585-1.374-13.4-3.306-12.722-14.55l-.014-.038c-.116.285-.23.566-.324.876l-4.237 8.78.284.32s2.812 5.054 7.87 8.812l.224-.003.623.225z" fill="#003d18"/><path d="M353.766 202.148s-15.277-3.16-19.816 8.214l.014.038c-.68 11.244 6.134 13.176 12.722 14.542 6.58 1.36 13.168-2.62 13.168-2.62l-2.15-1.586c-14.323 4.543-19.313-2.38-19.313-2.38-5.683-6.36 2.953-17.612 15.446-13.857 12.49 3.747 14.43 15.335 5.8 22.6-8.647 7.27-21.245 2.272-21.245 2.272l-.622-.225-.225.003c6.088 4.533 15.438 7.2 27.076-3.022.372-.768.58-1.186.58-1.186s9.31-16.125-11.434-22.794M108.608 363.058c4.775 2.952 12.71 3.748 21.928-.68 9.195-4.43 8.74-17.152 0-20.333-8.742-3.178-13.785 4.663-13.785 4.663l-1.966-1.52s4.92-9.087 16.88-5.607c11.974 3.49 10.298 21.134.23 24.84 0 0-4.687 1.7-7.566 2.234 0 0-5.715.665-11.117-1.207 0 0-3.72-1.436-4.335-2.052l-.267-.337zM292.864 362.903c-4.77 2.952-12.687 3.906-21.882-.525-9.214-4.437-8.753-17.155 0-20.33 8.738-3.185 13.774 4.656 13.774 4.656l1.967-1.517s-4.92-9.09-16.885-5.602c-11.962 3.484-10.308 21.125-.232 24.838 0 0 4.705 1.696 7.583 2.228 0 0 5.71.666 11.102-1.206 0 0 3.692-1.588 4.315-2.2l.257-.34z" fill="#6c9d31"/><path d="M202.316 324.664h-4.543V77.96h4.543v246.704z" fill="#fff"/><path d="M303.407 168.874H97.14v-4.543h206.267v4.544z" fill="#fff"/><path d="M237.44 37.716l6.888-5.117 5.12 6.896c-3.33-.443-12.007-1.78-12.007-1.78m-18.697-.89l4.01-3.784 4.225 4.227c-1.555-.445-8.235-.445-8.235-.445m-23.578-.668l6.014-7.123 6.672 7.344c-2.897-.22-12.687-.22-12.687-.22m-19.792.89l4.438-4.006 4.01 4.227c-1.78-.663-8.447-.223-8.447-.223m-22.033 2.45l5.342-7.12 6.894 6.004c-3.78-.446-12.236 1.116-12.236 1.116M289.714 18.81l-.218-2.674c-3.333.665-3.79 7.566-3.79 7.566s-.444-.443-2.664-3.34c-2.22-2.892-4.012-1.78-4.012-1.78l-3.333 4.005c-5.113-1.56-6.887 3.34-6.887 3.34.662 1.555 3.555 1.33 3.555 1.33 1.555-.44 1.555 1.566 1.555 1.566-2.45.44-3.114 3.554-3.114 3.554l4.45.222.223.886 4.22-.444c2.004-2.22 2.226 1.116 2.226 1.116-4.233 4.673-11.57 4.673-11.57 4.673-3.045-.762-3.38-4.44-3.284-6.685 1.26-.475 2.175-1.68 2.175-3.11 0-1.838-1.496-3.334-3.34-3.334-1.84 0-3.33 1.497-3.33 3.334 0 1.02.472 1.904 1.194 2.513-2.068 1.928-3.627 2.942-9.423 2.386-6.902-.67-5.343-8.675-5.343-8.675l8.89 6.447.454-4.888c1.77.44 5.56-2.002 5.56-2.002 2.44-3.11-2.886-3.787-2.886-3.787l.22-7.34c-2.23 1.776-5.122 1.34-5.122 1.34v-1.78c1.774-1.12 1.11-5.125 1.11-5.125l-3.34.665-5.107-6.222-4.455 6.67c-.877-1.996-4.674-3.56-4.674-3.56-1.334 2.447 1.34 7.57 1.34 7.57l-1.34-.22c-2-1.785-7.337-2.007-7.337-2.007l.443 4.008c-3.776-.45-6.887 2.217-6.887 2.217 1.552 4.677 7.334 8.013 7.334 8.013l-1.774 2.67c4.45-.228 12.018-3.332 12.018-3.332-.45 3.104-2.455 5.11-2.455 5.11-7.348 5.786-11.568 2.453-14.24.225-1.068-.896-1.902-2.093-2.546-3.226 1.565-.274 2.768-1.583 2.768-3.227 0-1.84-1.496-3.34-3.34-3.34-1.84 0-3.33 1.5-3.33 3.34 0 1.2.666 2.196 1.603 2.79l-.496 1.662c-7.334 8.227-14.69-.448-16.24-2.897-1.552-2.446 1.78-1.334 1.78-1.334s2.903 1.558 4.452 1.783c1.566.218 5.778 2.446 5.778 2.446 0-1.782-1.323-5.118-1.323-5.118s7.778-3.78 5.787-5.79c-2.01-1.994-5.57-3.553-5.57-3.553l.44-3.344c-2.437-.89-7.553 2.005-7.553 2.005-.447-1.557 1.998-7.565 1.998-7.565l-5.123.894s-.885-1.563-1.34-2.672c-.435-1.112-1.765-3.336-4.225-2.664-2.442.662-3.326 6.444-3.326 6.444-1.785-2.003-5.565-4.002-5.565-4.002l.887 6.222h-5.345v4.46l-5.32-.223v1.552l-2.683.222c.225 2.9 7.788 7.787 7.788 7.787l-2.002 1.115c2.674 1.33 8.9.222 8.9.222 2.67-2.002 4.45-.89 4.45-.89-.227 2.893-4.45 6.672-4.45 6.672-6.01 3.118-10.016.665-11.35-.883-.584-.69-1.242-1.527-1.81-2.27 1.198-.51 2.04-1.696 2.04-3.076 0-1.84-1.497-3.34-3.344-3.34-1.837 0-3.333 1.5-3.333 3.34 0 1.654 1.225 2.97 2.805 3.23-1.844 3.756-7.925 6.557-7.925 6.557-12.01-1.777-11.342-8.45-11.342-8.45 2.89 2.22 11.786 2.443 11.786 2.443l-1.56-2.442 7.34-8.014-7.56-2.67.22-3.332c-1.772-.225-8.005 2.227-8.005 2.227l1.338-7.79-4.895 3.553-4.673-6.672-4.892 6.9-3.56-.664.442 4c1.116.44 1.116 2.676 1.116 2.676-2.893 0-5.342-1.56-5.342-1.56l.225 7.785c-2.232-.447-3.112 1.112-3.112 1.112-2.224 2.668 6.222 4.67 6.222 4.67l.665 4.9c1.34-.666 8.682-6.452 8.682-6.452 1.552 11.342-11.57 8.897-12.898 8.228-.574-.28-1.44-1.108-2.264-1.977.694-.612 1.137-1.474 1.137-2.47 0-1.848-1.496-3.336-3.33-3.336-1.847 0-3.34 1.488-3.34 3.336 0 1.38.84 2.562 2.04 3.072.74 2.625-1.37 5.6-1.37 5.6-5.57 1.118-8.9-1.11-12.018-3.555-3.11-2.446.447-2.003.447-2.003 0 2.003 5.113 1.556 5.113 1.556l.23-1.11 4.23-.224s1.11-.44-1.56-3.112c-2.67-2.67.887-1.784 3.11-2.896 2.232-1.11-2.888-4.452-2.888-4.452-1.566 0-3.558.447-5.786-2.442-2.22-2.897-4-.226-4-.226l-4 4.23c-.223-6.675-3.57-7.566-3.57-7.566l-.443 3.118c-3.78-3.56-7.78-2.227-7.78-2.227-5.79 1.784-3.12 6.897-3.12 6.897 11.56-1.562 9.13 8.9 9.13 8.9 1.548-.665 4.66 1.556 4.66 1.556.67 4.226 6.453 7.78 6.453 7.78 6.89 3.57 15.13-2.89 15.13-2.89 6.01 1.117 0 3.563 0 3.563-4.667.22-7.45 3.78-7.45 3.78l1.667 1.998c66.076-17.34 139.932 0 139.932 0l2.005-2.663s-2.9-2.006-6.232-2.67c-3.333-.666-5.56-2.225-4.002-3.56 1.557-1.336 5.562 1.785 5.562 1.785 11.117 6.008 17.58-4.012 18.468-6.236.887-2.224 4.448-2.442 4.448-2.442-.894-11.12 9.565-9.125 9.565-9.125 1.556-11.572-11.35-4.89-11.35-4.89M163.018 61.298s-19.356-1.003-8.01-3.667c11.353-2.67 56.07-4.673 85.765-1.678 0 0 24.69 3.565-1.562 5.346 0 0 13.574 4.45 22.7.672 9.117-3.783 2.44-7.123-13.35-9.35 0 0-67.86-7.345-104.56 2.34 0 0-17.687 3.67 2.67 8.343 0 0 5.558 2.003 16.348-2.005M143.775 50.174l-6.004-1.113-5.116 4.228 6.008.443 5.113-3.556z" fill="#006f3b"/><path d="M160.47 45.282l18.68-1.116.22 4.002s-17.355.897-18.9 1.34v-4.226zM191.61 43.276l19.127.222.225 4.008-19.14-.225-.21-4.004zM223.202 43.945v4.223s16.452.45 19.127 1.34v-4.004l-19.128-1.56zM258.577 49.952l6-1.116 5.338 4.452-6.66.443-4.678-3.778zM156.08 48.516c0 1.643-1.332 2.977-2.976 2.977-1.647 0-2.98-1.334-2.98-2.977 0-1.64 1.333-2.974 2.98-2.974 1.644 0 2.977 1.334 2.977 2.974M188.443 45.514c0 1.644-1.333 2.974-2.966 2.974-1.64 0-2.98-1.33-2.98-2.974 0-1.64 1.34-2.97 2.98-2.97 1.633 0 2.966 1.33 2.966 2.97M220.383 45.613c0 1.647-1.326 2.97-2.97 2.97-1.647 0-2.974-1.323-2.974-2.97 0-1.644 1.326-2.974 2.973-2.974 1.644 0 2.97 1.33 2.97 2.973M252.087 48.61c0 1.644-1.33 2.982-2.977 2.982-1.636 0-2.963-1.338-2.963-2.98 0-1.637 1.327-2.975 2.963-2.975 1.647 0 2.977 1.338 2.977 2.974" fill="#006f3b"/><path d="M253.92 144.29c-.29 0-.52-.204-.52-.454 0-.24.23-.444.52-.444.29 0 .515.204.515.444 0 .25-.226.454-.514.454m13.592 8.783c.2-5.25-4.632-8.843-4.632-8.843.1-1.077-.805-4.477-2.62-4.283-1.814.197-2.412 2.724-2.412 2.724l-2.013-.094c-2.618-2.33-4.53 1.26-4.53 1.26l-2.216-.197c-.613-1.26-1.613 0-1.613 0-3.223 0-1.985 3.965-1.985 3.965 2.742-1.68 6.113.795 6.113.795-1.207 1.848-2.713.78-2.713.78-1.218-1.547-3.32-.382-3.32-.382-.713.288-3.933.09-3.933.09-.906-1.065-1.205-.29-1.205-.29 1.507 3.212 5.733 1.26 5.733 1.26 1.907-.093.602.974.602.974-1.007 2.34 3.417 1.858 4.835 1.858 1.41 0 1.007.58 1.007.58-.514.673-3.63 4.565-3.63 4.565-3.314 2.622-5.728 10.79-6.136 12.444-.4 1.646-2.316 3.595-2.316 3.595 3.724 2.428 5.835-2.044 5.835-2.044s1.82 3.02 7.052 2.918c5.237-.095 8.56-6.416 8.56-6.416 3.624 2.914 6.14 1.264 6.14 1.264-1.918-2.727-.81-11.275-.605-16.523"/><path d="M243.747 164.155s-1.6 5.54-2.207 6.8c0 0-2.618-4.565-6.042-6.51 0 0-.405-.585-.598-1.652 0 0-1.718-2.336-2.126-2.435-.398-.09-5.127-2.136-2.808-6.51 0 0 3.216-2.235 5.733 3.308 0 0 .305 3.01 8.047 7M230.078 184.39l.965.025 2.14.05c.6-.77 4.423-3.79 5.33-4.857.912-1.063 2.12-1.063 2.12-1.063.907-2.73 3.62-3.216 3.62-3.216l2.116-2.134c1.403 1.168 3.623 2.618 8.054 2.523 4.427-.1 7.65-6.223 7.65-6.223.7.782 3.73 1.654 3.73 1.654.297 10.693 8.55 14.388 8.55 14.388 5.535 2.625 6.745 5.926 6.745 5.926 4.725 3.213 6.647-.58 6.647-.58 3.917-6.61-5.346-13.222-6.648-14.292-1.306-1.07-6.342-4.76-9.97-8.643-3.618-3.89-4.224-14.2 4.233-15.65 8.45-1.465 9.16 5.338 9.16 5.338 2.61 4.476 1.503 6.802 0 8.164-1.506 1.366-.605 5.937-.605 5.937-7.65-5.35-3.315-10.893-2.115-12.156 1.214-1.267-.303-3.89-.303-3.89-4.226-4.278-8.755.786-8.755.786-5.033 8.84 5.936 15.157 10.06 18.268 4.13 3.114 9.872 8.946 8.464 15.167-1.415 6.215-9.062 5.536-9.062 5.536-.504 2.53-2.62 4.57-2.62 4.57-4.932 7.87 5.333 11.57 5.333 11.57 2.422.482 3.422 2.23 3.422 2.23-.803.592-3.22 4.284-3.924 8.074-.708 3.79-3.016 3.79-4.026 4.082-1.014.29-4.026.29-4.026.29-2.013-1.363 1.01-3.788 3.012-5.734 2.024-1.946 1.72-4.666 1.72-4.666-12.98-3.407-14.192-14.77-14.192-14.77s-1.52 1.35-3.322 3.206c-1.816 1.844-.207 4.66-.207 4.66.61 1.266-1.302 1.752-2.615 2.34-1.306.576-4.825 3.198-6.13 4.465-1.32 1.267-3.227 2.337-3.935 2.63-.704.284-2.622 1.065-2.622 1.065-3.41 1.26-2.614-2.04-2.614-2.04 1.113-2.725 4.73-2.14 4.73-2.14s3.527-3.692 4.234-4.67c.704-.968 1.204-2.038 1.204-2.038v-3.79c-2.72-4.96-1.303-7.387-.1-9.14 1.215-1.745 4.326-3.694 4.326-3.694s1.01.682 2.724 1.07c1.707.393 3.723 3.6 3.723 3.6 1.817 1.062.1-1.458-.7-2.622-.81-1.172-2.417-1.753-2.417-1.753-1.615-.493-3.83-1.75-3.83-1.75l-3.923-1.94.1 2.036s-1.504-1.452-2.014-1.94c-.5-.487-1.41-1.36-2.016-.68-.595.68-1.704.193-1.704.193-2.516-1.168-2.122-3.89-2.122-3.89-5.933-2.533-10.965 4.083-12.275 5.544-1.313 1.453-2.527.292-2.527.292l-3.48.193s-7.004-3.178.06-5.934l.625.02zM146.597 144.29c-.288 0-.517-.204-.517-.454 0-.24.23-.444.517-.444.292 0 .525.204.525.444 0 .25-.233.454-.525.454m4.927 13.545s-3.11-3.892-3.61-4.564c0 0-.405-.58 1.002-.58 1.415 0 5.84.482 4.83-1.858 0 0-1.31-1.067.607-.975 0 0 4.227 1.953 5.733-1.26 0 0-.303-.774-1.21.292 0 0-3.224.196-3.928-.092 0 0-2.11-1.165-3.318.383 0 0-1.51 1.068-2.714-.78 0 0 3.368-2.474 6.11-.795 0 0 1.238-3.966-1.982-3.966 0 0-1.006-1.26-1.615 0l-2.21.196s-1.915-3.59-4.53-1.26l-2.017.095s-.608-2.526-2.414-2.723c-1.82-.194-2.718 3.206-2.623 4.283 0 0-4.828 3.593-4.627 8.843.204 5.248 1.305 13.796-.61 16.523 0 0 2.524 1.65 6.142-1.264 0 0 3.325 6.32 8.558 6.416 5.226.102 7.05-2.917 7.05-2.917s2.114 4.473 5.84 2.045c0 0-1.913-1.95-2.318-3.596-.405-1.655-2.822-9.823-6.148-12.445"/><path d="M156.77 164.155s1.6 5.54 2.21 6.8c0 0 2.62-4.565 6.043-6.51 0 0 .395-.585.592-1.652 0 0 1.72-2.336 2.118-2.435.408-.09 5.135-2.136 2.823-6.51 0 0-3.22-2.235-5.74 3.308 0 0-.306 3.01-8.045 7M170.436 184.39l-.964.025-2.136.05c-.606-.77-4.435-3.79-5.332-4.857-.908-1.063-2.115-1.063-2.115-1.063-.91-2.73-3.626-3.216-3.626-3.216l-2.118-2.134c-1.4 1.168-3.628 2.618-8.045 2.523-4.44-.1-7.66-6.223-7.66-6.223-.697.782-3.72 1.654-3.72 1.654-.303 10.693-8.558 14.388-8.558 14.388-5.54 2.625-6.74 5.926-6.74 5.926-4.733 3.213-6.64-.58-6.64-.58-3.93-6.61 5.328-13.222 6.64-14.292 1.306-1.07 6.342-4.76 9.963-8.643 3.625-3.89 4.227-14.2-4.23-15.65-8.456-1.465-9.16 5.338-9.16 5.338-2.612 4.476-1.51 6.802 0 8.164 1.51 1.366.608 5.937.608 5.937 7.644-5.35 3.308-10.893 2.112-12.156-1.21-1.267.3-3.89.3-3.89 4.233-4.278 8.762.786 8.762.786 5.032 8.84-5.94 15.157-10.068 18.268-4.122 3.114-9.866 8.946-8.465 15.167 1.41 6.215 9.065 5.536 9.065 5.536.507 2.53 2.626 4.57 2.626 4.57 4.923 7.87-5.343 11.57-5.343 11.57-2.42.482-3.42 2.23-3.42 2.23.8.592 3.22 4.284 3.927 8.074.704 3.79 3.016 3.79 4.026 4.082 1.007.29 4.026.29 4.026.29 2.01-1.363-1.006-3.788-3.02-5.734-2.016-1.946-1.71-4.666-1.71-4.666 12.98-3.407 14.19-14.77 14.19-14.77s1.51 1.35 3.325 3.206c1.805 1.844.2 4.66.2 4.66-.605 1.266 1.303 1.752 2.622 2.34 1.295.576 4.824 3.198 6.137 4.465 1.313 1.267 3.216 2.337 3.92 2.63l2.618 1.065c3.42 1.26 2.62-2.04 2.62-2.04-1.113-2.725-4.727-2.14-4.727-2.14s-3.537-3.692-4.227-4.67c-.71-.968-1.213-2.038-1.213-2.038v-3.79c2.72-4.96 1.31-7.387.098-9.14-1.203-1.745-4.325-3.694-4.325-3.694s-1.01.682-2.713 1.07c-1.71.393-3.723 3.6-3.723 3.6-1.823 1.062-.11-1.458.7-2.622.806-1.172 2.418-1.753 2.418-1.753 1.615-.493 3.822-1.75 3.822-1.75l3.927-1.94-.105 2.036s1.514-1.452 2.02-1.94c.504-.487 1.408-1.36 2.01-.68.595.68 1.703.193 1.703.193 2.52-1.168 2.12-3.89 2.12-3.89 5.943-2.533 10.975 4.083 12.28 5.544 1.306 1.453 2.527.292 2.527.292l3.48.193s7.007-3.178-.066-5.934l-.624.02z"/><path d="M209.062 188.114l16.128-59.826 7.39-2.04s-8.84-18.79 8.675-30.593c0 0 5.73 9.906 11.624 7.74 5.89-2.173 2.945-16.562-9.372-13.57-12.32 2.98-16.058 5.957-23.023 5.15 0 0 7.222-.81 3.474 16.02-3.753 16.83-18.213 60.772-18.213 60.772l-11.244-31.45s4.54-2.084 7.897.176c0 0-2.55-7.514-9.765-5.888l-10.72-34.74s4.18-1.634 7.714-4.21c0 0-21.372 1.496-40.383-6.102-19.017-7.605-27.052-2.99-32.14 10.853-5.082 13.844-.405 34.2 14.192 37.19 13.14 2.69 18.75-3.266 24.64-3.266 5.895 0 13.482-.946 7.542 11.614 0 0 12.275-12.69-.046-18.12 0 0 3.484-2.446.81-4.343-2.678-1.9-3.45-4.046-3.45-4.046s-9.462 3.544-16.127-2.724c0 0 1.023 5.5-2.686 8.172 0 0 7-.616 7.527 5.116 0 0-14.73 8.69-23.56-1.358-8.843-10.047-8.576-28.505 1.876-36.377 10.44-7.873 39.418 3.57 46.354 25.126 6.937 21.56 27.548 94.503 27.548 94.503h2.678s-.827-9.604 12.043-18.335c0 0 1.304-3.266-2.01-6.813 0 0 .41 4.596-4.674 5.676l-.704-4.306zM133.84 229.157c-.24.792-.302 1.75-.193 2.88v3.116c.69.106 1.414.352 2.178.746v.387c-2.365.49-1.63 1.15 2.203 2 7.007-.926 8.833-3.67 5.49-8.215.158-.306-.148-.513-.95-.626-2.44.612-5.346.514-8.728-.29m13.165-4.61c-.242.72-.837 1.536-1.794 2.437l-1.182 1.523-.422.388c1.5 1.273 2.425 2.81 2.79 4.624-.16 4.395-3.828 6.32-10.965 5.77.25.29.638.5 1.19.635.41 1.354 1.482 2.55 3.196 3.607l.637.56 1.805 1.597.577.567 1.253 1.337 1.084 1.053 3.59 2.632 2.906 2.467-5.51-2.358-1.412-1.12-2.132-1.748-1.785-1.407c-.356-.258-.712-.5-1.078-.744-.387-.398-.767-.75-1.154-1.06l-.96-.882c-.588-.58-1.222-1.23-1.908-1.94-.683-.71-1.25-1.22-1.69-1.523l-.393-.524V246.987c.095.444.366.908.795 1.405v.387c.433.257.89.64 1.383 1.16.458.152.86.364 1.22.63-1.93.638-3.666 1.62-5.21 2.954-.507.226-1.11.58-1.81 1.035-.126.014-.26.1-.383.254-5.63 1.21-8.09.153-7.394-3.2 1.327-.694 2.794-.61 4.392.242v.775c-1.858 0-2.643.426-2.382 1.284 1.488.5 2.745.244 3.786-.77 1.278-1.604 1.802-3.4 1.598-5.377-.598.13-1.19.13-1.795 0 .278-.573.947-.918 1.985-1.038v-9.238c-1.524-.49-3.322-.7-5.377-.633-.014.598.112 1.323.397 2.175-2.692-1.24-2.748-2.43-.197-3.584-.633-.024-.834-.197-.598-.535.546-.17 1.137-.467 1.78-.89 1.567.434 2.897.272 3.995-.502.436-1.21.176-2.288-.792-3.203 1.38-.144 2.446-.658 3.2-1.538-3.052-1.013-5.906-.844-8.577.507-1.292 1.893-.37 2.83 2.773 2.826v-.65c-2.41-.437-2.544-.78-.394-1.018l.193-.384c.384-.285.45-.584.2-.9.73.133 1.384.387 2.003.774.563 1.464-.366 2.396-2.79 2.815-2.56-.095-3.762-1.08-3.597-2.95.494-.784 1.35-1.512 2.605-2.18.79-.388 1.922-.817 3.39-1.285h3.986c6.512 1.5 11.49.904 14.975-1.785"/><path d="M152.302 239.743c-1.084 3.502-.616 4.74 1.383 3.73 1.678-1.397 1.22-2.632-1.383-3.73m1.034-2.622c3.322.36 5.3 1.965 5.965 4.816-1.16.492-2.318 1.22-3.5 2.185l-.7.237-.345.436-1.767 1.084c1.805 1.006 3.903.42 6.313-1.756.195 1.324-.636 2.426-2.455 3.295-3.192 3.037-6.222 3.114-9.115.218-1.27-4.05.602-7.56 5.606-10.512M167.452 237.14h-.324.324c1.348 1.22 2.92 1.283 4.715.2-.584 2.178-2.78 3.167-6.595 2.95 5.63 1.227 7.725 3.592 6.272 7.086-2.752 2.826-6.212 3.217-10.385 1.18-.99-1.57-1.103-3.277-.318-5.114.55 3.44 1.693 5.148 3.48 5.113 3.82.13 5.078-.99 3.78-3.343-1-.848-2.365-1.506-4.103-1.978l-1.56-1.175c.348-1.764 1.812-3.408 4.388-4.92h.324zM180.008 229.5c.422 1.47.542 3.26.37 5.35v13.99l.753.94h-6.334c.827-2.348 1.077-5.385.757-9.1v-.684l-.757-1.393 5.212-2.105c0-1.04-.866-1.822-2.61-2.326.4-1.31 1.276-2.63 2.61-3.97v-.703zM189.69 237.973c-2.492 4.343-1.96 7.37 1.59 9.076 2.344-3.746 1.816-6.776-1.59-9.077m5.757-10.698c.647.06 1.038.316 1.178.76v17.918c0 1.036.68 1.29 2.024.757l.435.42c-3.16 2.867-5.588 3.226-7.284 1.083-4.303 2.763-7.13 2.182-8.473-1.75-.43-3.66 1.46-7.108 5.67-10.352l2.804.507v-5.818c-.812 0-1.615-.242-2.406-.75 1.295-.312 2.502-.897 3.614-1.755l2.44-1.017zM206.257 239.743c-1.084 3.502-.62 4.74 1.394 3.73 1.673-1.397 1.208-2.632-1.393-3.73m1.042-2.622c3.314.36 5.31 1.965 5.953 4.816-1.15.492-2.32 1.22-3.49 2.185l-.697.237-.352.436-1.763 1.084c1.792 1.006 3.896.42 6.303-1.756.205 1.324-.62 2.426-2.45 3.295-3.18 3.037-6.228 3.114-9.117.218-1.27-4.05.602-7.56 5.613-10.512M221.18 236.143c.445.588.653 1.253.64 1.992 1.716-.898 3.835-1.36 6.362-1.397.306 1.098.41 2.428.32 3.983V249.88c-.222-.014-.436.05-.644.197-1.717 3.358-5.25 5.842-10.614 7.48h-1.583c1.616-.885 3.31-1.726 5.086-2.52l.32-.406.637-.392.63-.397c1.608-1.58 2.17-3.962 1.707-7.147v-7.56l-1.908.392c-.362 1.242-.464 2.762-.313 4.578v4.579c.09.47.414.864.953 1.195h-6.042c.673-2.016.884-4.603.64-7.76v-3.983c.958-.352 2.017-.88 3.182-1.594l.627-.397zM239.052 235.4h1.883c1.636.736 2.252 1.86 1.848 3.36-.79-.375-1.563-.893-2.316-1.544-3.058 2.707-3.224 5.82-.486 9.333.716-.078 1.486-.25 2.342-.532v2.087c-1.644.88-3.808 1.48-6.518 1.808-5.455-4.79-4.367-9.624 3.248-14.513M250.96 229.5c.427 1.47.564 3.26.38 5.35v13.99l.75.94h-6.33c.83-2.348 1.084-5.385.75-9.1v-.684l-.75-1.393 5.2-2.105c0-1.04-.86-1.822-2.6-2.326.402-1.31 1.274-2.63 2.6-3.97v-.703zM260.3 238.76c-1.843 2.964-1.474 5.998 1.127 9.11l1.133-.49v-7.887l-2.26-.732zm6.022-2.705c.366 1.098.486 2.407.366 3.906V247.018c1.59-.108 2.16.057 1.71.49-2.424 2.615-4.497 2.868-6.207.743-3.856 2.6-6.355 2.114-7.495-1.462-1.18-4.708.954-8.122 6.394-10.247.935.694 2.054 1.257 3.346 1.7l1.886-2.185zM277.073 228.278c.43 1.48.546 3.273.384 5.388V248.933l1.126.945h-6.764c.418-1.478.545-3.266.37-5.395v-12.68l-.747-.946c1.812-.514 3.69-1.376 5.63-2.58"/><path d="M319.317 348.784c-1.76 2.572-4.093 5.458-6.415 6.866l5.648 5.652h8.488l.943 4.715 5.66-3.776c0-4.65-7.97-10.236-14.323-13.456" fill="#ffc20e"/><path d="M97.1 335.464h3.185c-.503-.676-1.446-1.003-3.185 0" fill="#f5e7ce"/><path d="M334.98 286.502c.856-1.643 1.993-3.9 3.33-6.57-7.89-3.248-14.788-5.7-16.033-4.87-2.82 1.886-5.65 4.71-10.364-.95-4.712-5.65-20.732-8.475-23.554-8.475-2.83 0-3.784 2.826-13.198 0-9.424-2.83-30.152-4.716-30.152-4.716l-.422 1.054-2.64 6.49v-8.482s2.12-.94-6.366-1.876c-8.48-.947-81.04-.947-94.24 2.815l-4.715 8.486s-.94-2.826-3.762-4.712c-2.83-1.886-2.516 3.77-6.594 1.886-4.085-1.886-12.253-.943-19.79.94-7.543 1.886-11.315 1.886-11.315 1.886l-3.95 7.542-4.528-5.656s-10.367 3.77-11.307 5.656c-.507 1.01-6.2 3.107-11.916 5.275 3.453 6.556 10.66 16.832 22.245 17.76 0 0 .347 23.308 8.054 41.696 1.31-.564 2.453-1.117 3.29-1.592 1.743-1.006 2.686-.68 3.192 0h5.283l1.89-5.66 4.707-.935-.936-3.772s3.767 1.88 9.425 0c5.656-1.882 44.292-10.363 49.94-9.424l4.713-11.303 2.826 6.584s16.026 3.78 16.976.947c.933-2.826 0-5.655 0-5.655s7.538 4.707 10.36 5.654c2.823.947 9.414-5.655 9.414-5.655v7.544s42.416 1.094 51.834 5.26c0 0 10.37-4.16 8.484 0 0 0 0 1.33 5.66 3.22 5.647 1.88 20.727 7.535 25.446 7.535 0 0-.753 5.232 1.088 5.697 3.438-8.91 7.485-22.56 7.485-39.992 0 0 13.546-.91 20.14-13.633" fill="#003d18"/><path d="M10.35 322.098c8.492 5.652 23.568 27.333 39.58 50.88.264.166.7.44 1.062.574 1.802-8.474 8.443-17.262 10.188-17.846.197-.063.58-.225.75-.317 3.07-1.43 8.78-6.34 8.78-6.34h5.652l-3.77-5.182 6.56.07 2.988-2.467s10.39-3.163 14.91-6.182c1.67-1.12 2.69-.68 3.196 0h5.283l1.89-5.645 4.707-.946-.943-3.773s3.773 1.886 9.43 0c5.657-1.883 44.29-10.37 49.942-9.428l4.712-11.3 2.822 6.595s16.03 3.763 16.98.937c.933-2.822 0-5.65 0-5.65s7.538 4.714 10.35 5.65c2.833.943 9.428-5.65 9.428-5.65v7.537s42.412 1.098 51.83 5.264c0 0 10.37-4.156 8.484 0 0 0 0 1.334 5.66 3.22 5.647 1.88 20.727 7.545 25.446 7.545 0 0-.95 6.592 1.872 5.645 2.833-.94 7.542-2.822 7.542-2.822l-1.15 1.435 6.816-5.76-1.89 7.55 16.96 11.3 9.398-3.298v.186c2.675-2.67 5.81-5.205 9.45-7.25-3.64 2.045-6.775 4.58-9.45 7.25v5.944l-2.77 5.824s4.456-3.614 9.172 2.04c2.657 3.193 4.94 7.846 4.015 13.624 2.537-1.594 4.494-3.804 5.624-6.802 5.655-15.077 31.098-46.186 36.754-49.012 5.656-2.826-7.534-16.955-11.306-18.845-3.77-1.885-9.418 0-11.307-3.77-1.883-3.76-5.652-3.76-12.247-6.596-6.606-2.823-38.644-17.906-41.473-16.016-2.82 1.88-5.65 4.712-10.364-.95-4.712-5.648-20.732-8.48-23.554-8.48-2.83 0-3.784 2.832-13.198 0-9.424-2.823-30.152-4.706-30.152-4.706l-.422 1.045-2.64 6.493v-8.485s2.12-.943-6.366-1.883c-8.48-.943-81.04-.943-94.24 2.83l-4.715 8.474s-.94-2.82-3.762-4.71c-2.83-1.88-2.516 3.774-6.594 1.89-4.085-1.89-12.253-.95-19.79.937-7.543 1.883-11.315 1.883-11.315 1.883l-3.95 7.54-4.528-5.654s-10.367 3.776-11.307 5.655c-.943 1.887-19.795 7.542-23.557 10.368-3.77 2.833-10.367 4.708-10.367 4.708l-1.89 7.542-5.648-4.712S3.758 299.477.928 312.67c-2.828 13.2.944 3.773 9.422 9.428" fill="#ffe29c"/><path d="M153.26 264.905l.052.26-.053-.26.052.26c2.614-.394 2.79-.608.535-.647l-.588.387zm-78.756 9.07l7.313-1.462 1.22-.242c2.077.423 4.61.465 7.588.12 8.158 1.485 17.487 1.045 27.99-1.337l-3.345 2.294c.668 3.347 2.593 6.64 5.764 9.865.204.58.605 1.154 1.19 1.72l.183.94c.552.54 1.115 1.285 1.7 2.235 2.952-.676 5.056-.01 6.32 1.995-1.18-.144-2.555.018-4.12.5.857 2.1 2.434 4.38 4.732 6.848-.004.218.175.405.523.55l1.257 2.026.58.827c.722.905 1.352 1.974 1.904 3.2.725-1.574 1.285-3.622 1.7-6.163l.162-1.33.215-1.02.162-1.33c0-1.043.173-2.274.535-3.68l-.183-.942.718-2.738.208-1.017-.014-2.24.56-1.42.386-2.343-.186-.943.563-1.412.094-1.636c1.964-6.05.96-8.982-3.016-8.802 3.927-.778 8.105-2.365 12.54-4.765 1.076-.56 2.392-1.03 3.93-1.436l1.214-.24c.756.666 1.847 1.208 3.287 1.626 1.36 6.025-1.434 6.9-8.342 2.63-1.47.904-2.618 2.097-3.48 3.592l-.753.468c-1.524 3.808-.933 7.482 1.773 11.03-1.38.263-2.815.876-4.29 1.815l-1.298 8.362-.225 1.017.253 1.253-.62 1.094-.16 1.334.185.94-.503 1.72-.09 1.64-.765 4.68-.285.697-.313 2.668-.16 1.33.188.94-.503 1.724 1.126 1.4c1.48-.46 2.143-1.347 2.002-2.67 1.088.63 1.696 1.59 1.84 2.886-3.272 2.646-5.14 5.933-5.612 9.853l-1.623.32c-.394-1.288-1.214-2.537-2.435-3.737-.288-1.025-.922-2.084-1.897-3.168-.038-.317-.232-.602-.587-.86-.27-.9-.887-1.868-1.84-2.88-.765-1.982-2.197-4.196-4.277-6.624-.01-.324-.205-.612-.588-.866-.342-1.267-1.18-2.608-2.492-4.022l-.644-1.17c-.78-1.614-2.002-3.542-3.692-5.766l-2.607-4.68-3.438-4.49-.772-1.8c-1.09-.774-2.506-1.573-4.244-2.403-.662-.717-1.62-1.284-2.872-1.706l-.595-.855-1.34-.385c-.577-.644-1.376-1.122-2.4-1.446l-.588-.86-1.41-.69-8.624-.89-1.18.236-1.35-.384-1.225.243-1.27-.067c-2.24-.05-4.852.257-7.844.908l-1.28-.077c-4.1 1.934-7.894 4.746-11.385 8.434-4.384 11.67-.02 18.148 13.12 19.436 5.272-.358 8.492-2.62 9.632-6.784-1.017.147-1.92-.1-2.68-.743 1.202-1.344 2.842-2.316 4.908-2.917l.468-3.995c1.077.54 2.2 1.293 3.37 2.254 1.043-1.186 1.33-2.54.888-4.076 2.998 1.032 6.32.8 9.998-.686.764.774 1.964 1.176 3.625 1.228.79.613.49 1.218-.916 1.806l4.55 1.67c.447 2.493-.627 4.872-3.224 7.142-.25-.584-.123-1.37.38-2.35.22-2.686-1.344-3.453-4.694-2.32l-4.737 1.587c-1.25.72-2.595 1.745-4.037 3.083l-2.34.788c-6.145 5.803-13.972 7.468-23.473 4.987-6.493-3.963-8.707-9.47-6.655-16.526 1.098-5.437 5.314-9.622 12.67-12.553M163.412 266.056c1.062 2.854 1.706 6.405 1.953 10.635l.172 1.408.708 5.613.82 6.512 1.805 14.435 1.46 1.728-10.304 1.292c.76-4.87.41-10.994-1.055-18.35l-.172-1.38-1.573-2.634 7.95-5.258c-.268-2.097-1.872-3.473-4.825-4.135.334-2.69 1.41-5.504 3.238-8.45l-.176-1.414zM177.604 258.176l9.495-.696.337 1.977 1.137 15.453.11 1.492c2.455 1.45 6 1.563 10.62.345l-1.658 3.195-6.73.314-1.94.144.67 8.974.15 2-.853 1.382-.01 3.765 1.376 2.46c6.467 5.318 8.708 1.94 6.703-10.145l1.024-4.244c4.198 7.634 3.367 13.93-2.495 18.902-3.206 2.256-7.71.937-13.57-3.976l-2.024-17.937-5.82.425-4.463-1.862c4.202.204 7.52-.655 9.984-2.57l-1.18-15.958-.866-3.44zM212.905 256.46l9.523.055.186 2.006-.095 15.5-.004 1.492c2.337 1.647 5.85 2.04 10.564 1.193l-1.914 3.054-6.722-.23-1.946-.006-.06 9.005-.01 2-.947 1.31-.308 3.748 1.164 2.562c6.043 5.818 8.53 2.63 7.5-9.58l1.35-4.148c3.59 7.94 2.257 14.158-3.99 18.64-3.36 1.997-7.763.325-13.19-5.028l-.612-18.053-5.828-.03-4.296-2.214c4.16.535 7.548-.053 10.145-1.77l.088-15.998-.598-3.51zM249.05 281.304c-3.94 5.543-3.818 11.402.36 17.596 1.8-3.568 2.818-7.876 3.03-12.908-.1-1.71-1.23-3.27-3.39-4.688m-.327-3.427l4.923 1.418c7.577 10.174 7.665 18.954.278 26.327l-4.444-.388-7.51-.654c-6.578-9.604-4.33-18.504 6.753-26.703M282.957 281.843c2.274 3.582 5.29 4.24 9.04 1.963-2.174 5.107-7.136 6.67-14.878 4.705-1.12 2.676-1.866 5.995-2.246 9.975l-.236 1.326-.873 5.25c-3.998 3.585-7.436 3.16-10.304-1.293.096-1.362.997-2.112 2.686-2.25l3.38-20.125c4.76 5.04 9.222 5.19 13.43.45M304.273 272.953c.014 3.048-.606 6.595-1.837 10.656l-.324 1.382-1.274 5.504-1.485 6.39-3.294 14.18.773 2.125-10.11-2.35c2.39-4.314 4.173-10.17 5.345-17.588l.306-1.348-.56-3.012 9.27-2.193c.483-2.06-.556-3.904-3.09-5.547 1.243-2.414 3.228-4.677 5.958-6.817l.32-1.383zM314.584 295.092c-4.642 4.81-5.824 10.84-3.576 18.078l2.06-.4 4.623-15.207-3.106-2.47zm11.018-2.365c-.067 2.29-.64 4.86-1.706 7.71l-.416 1.402-.43 1.385-1.016 3.32-.415 1.396-.575 1.883-.426 1.422-.434 1.404-.422 1.396c2.537.54 3.34 1.12 2.39 1.746-5.346 3.882-8.74 3.382-10.185-1.524-7.57 3.17-11.206 1.038-10.886-6.4.912-9.633 6.25-15.197 16.027-16.693 1.07 1.774 2.5 3.4 4.26 4.875l4.232-3.323z"/></svg>