<svg xmlns="http://www.w3.org/2000/svg" width="400" height="121.194"><path d="M2.59 87.938c0 16.936 13.73 30.665 30.666 30.665h333.49c16.933 0 30.663-13.73 30.663-30.665v-54.68c0-16.937-13.73-30.666-30.663-30.666H33.257C16.32 2.592 2.59 16.322 2.59 33.257v54.68" fill="#f0e106"/><path d="M2.59 87.938c0 16.936 13.73 30.665 30.666 30.665h333.49c16.933 0 30.663-13.73 30.663-30.665v-54.68c0-16.937-13.73-30.666-30.663-30.666H33.257C16.32 2.592 2.59 16.322 2.59 33.257v54.68z" fill="none" stroke="#ef2e31" stroke-width="5.18214519"/><path d="M87.072 33.958c-3.588 2.628-7.175 5.59-10.763 8.886-3.588 3.296-7.302 7.04-11.14 11.232-.75.814-1.825 1.982-3.222 3.505-6.34 6.968-10.607 11.337-12.797 13.11-2.44 1.96-4.8 3.4-7.086 4.318-2.283.918-4.646 1.376-7.086 1.376-4.548 0-8.224-1.21-11.03-3.628-2.805-2.42-4.207-5.57-4.207-9.45 0-3.984 1.617-7.337 4.85-10.06 3.234-2.72 7.207-4.082 11.92-4.082 3.61 0 6.55.918 8.824 2.753 2.273 1.836 3.41 4.183 3.41 7.04 0 3.004-1.267 5.57-3.8 7.697-2.535 2.128-5.68 3.192-9.435 3.192-2.21 0-4.302-.423-6.274-1.268-1.97-.844-2.957-1.57-2.957-2.174 0-.146.015-.25.047-.313.03-.062.098-.093.204-.093.083 0 .334.136.75.407 2.712 1.75 5.54 2.628 8.48 2.628 3.233 0 5.98-.902 8.244-2.707 2.263-1.803 3.395-3.936 3.395-6.398 0-2.335-.976-4.234-2.927-5.694-1.95-1.46-4.542-2.19-7.775-2.19-4.672 0-8.474 1.116-11.404 3.347-2.93 2.233-4.396 5.09-4.396 8.573 0 3.296 1.303 6.04 3.91 8.23 2.61 2.19 5.935 3.285 9.982 3.285 2.628 0 5.08-.48 7.352-1.44 2.274-.96 4.714-2.566 7.322-4.818 2.19-1.898 5.58-5.387 10.168-10.466 4.59-5.08 8.187-8.922 10.795-11.53 4.588-4.588 8.875-8.468 12.86-11.64 3.983-3.17 6.403-4.755 7.258-4.755.04 0 .083.026.125.078.04.052.062.11.062.172 0 .417-.48 1.126-1.44 2.127-.437.44-.77.782-1 1.033-1.19 1.314-2.534 3.02-4.036 5.116-1.502 2.095-3.338 4.855-5.506 8.275-3.714 5.8-6.722 10.936-9.027 15.41-2.305 4.474-3.457 7.296-3.457 8.464 0 .187.02.312.062.375.042.062.105.093.188.093.73 0 3.603-3.045 8.62-9.136C80.152 56.747 84.62 51.5 88.542 47.1c4.402-4.902 8.182-8.83 11.342-11.78 3.16-2.952 5.147-4.428 5.96-4.428.042 0 .073.01.094.032.02.02.032.073.032.156 0 .27-.96 1.877-2.88 4.818-2.022 3.067-3.733 5.694-5.13 7.884-4.36 6.905-7.806 13.022-10.34 18.35-2.535 5.33-3.802 9.06-3.802 11.187 0 .416.15.776.453 1.078.304.303.663.453 1.08.453.982 0 2.165-.478 3.552-1.438 1.388-.96 2.957-2.398 4.71-4.317.23-.25.5-.574.813-.97.604-.69 1-1.033 1.19-1.033.082 0 .165.037.25.11.082.073.124.14.124.203 0 .21-.178.537-.533.986-.355.45-.99 1.154-1.91 2.112-2.022 2.045-3.774 3.536-5.254 4.474-1.482.94-2.828 1.408-4.037 1.408-1.25 0-2.268-.485-3.05-1.454-.783-.97-1.174-2.238-1.174-3.802 0-3.442 1.648-7.952 4.944-13.532 3.295-5.58 8.677-12.916 16.144-22.01-2.232 1.773-4.922 4.36-8.072 7.76-3.15 3.4-7.686 8.645-13.61 15.736-.94 1.148-2.243 2.734-3.91 4.756-6.614 8.03-10.712 12.046-12.298 12.046-.605 0-1.074-.276-1.407-.828-.334-.554-.5-1.35-.5-2.395 0-3.586 2.304-8.88 6.914-15.877 4.61-6.998 10.888-14.606 18.835-22.825" fill="#263d96"/><path d="M87.072 33.958c-3.588 2.628-7.175 5.59-10.763 8.886-3.588 3.296-7.302 7.04-11.14 11.232-.75.814-1.825 1.982-3.222 3.505-6.34 6.968-10.607 11.337-12.797 13.11-2.44 1.96-4.8 3.4-7.086 4.318-2.283.918-4.646 1.376-7.086 1.376-4.548 0-8.224-1.21-11.03-3.628-2.805-2.42-4.207-5.57-4.207-9.45 0-3.984 1.617-7.337 4.85-10.06 3.234-2.72 7.207-4.082 11.92-4.082 3.61 0 6.55.918 8.824 2.753 2.273 1.836 3.41 4.183 3.41 7.04 0 3.004-1.267 5.57-3.8 7.697-2.535 2.128-5.68 3.192-9.435 3.192-2.21 0-4.302-.423-6.274-1.268-1.97-.844-2.957-1.57-2.957-2.174 0-.146.015-.25.047-.313.03-.062.098-.093.204-.093.083 0 .334.136.75.407 2.712 1.75 5.54 2.628 8.48 2.628 3.233 0 5.98-.902 8.244-2.707 2.263-1.803 3.395-3.936 3.395-6.398 0-2.335-.976-4.234-2.927-5.694-1.95-1.46-4.542-2.19-7.775-2.19-4.672 0-8.474 1.116-11.404 3.347-2.93 2.233-4.396 5.09-4.396 8.573 0 3.296 1.303 6.04 3.91 8.23 2.61 2.19 5.935 3.285 9.982 3.285 2.628 0 5.08-.48 7.352-1.44 2.274-.96 4.714-2.566 7.322-4.818 2.19-1.898 5.58-5.387 10.168-10.466 4.59-5.08 8.187-8.922 10.795-11.53 4.588-4.588 8.875-8.468 12.86-11.64 3.983-3.17 6.403-4.755 7.258-4.755.04 0 .083.026.125.078.04.052.062.11.062.172 0 .417-.48 1.126-1.44 2.127-.437.44-.77.782-1 1.033-1.19 1.314-2.534 3.02-4.036 5.116-1.502 2.095-3.338 4.855-5.506 8.275-3.714 5.8-6.722 10.936-9.027 15.41-2.305 4.474-3.457 7.296-3.457 8.464 0 .187.02.312.062.375.042.062.105.093.188.093.73 0 3.603-3.045 8.62-9.136C80.152 56.747 84.62 51.5 88.542 47.1c4.402-4.902 8.182-8.83 11.342-11.78 3.16-2.952 5.147-4.428 5.96-4.428.042 0 .073.01.094.032.02.02.032.073.032.156 0 .27-.96 1.877-2.88 4.818-2.022 3.067-3.733 5.694-5.13 7.884-4.36 6.905-7.806 13.022-10.34 18.35-2.535 5.33-3.802 9.06-3.802 11.187 0 .416.15.776.453 1.078.304.303.663.453 1.08.453.982 0 2.165-.478 3.552-1.438 1.388-.96 2.957-2.398 4.71-4.317.23-.25.5-.574.813-.97.604-.69 1-1.033 1.19-1.033.082 0 .165.037.25.11.082.073.124.14.124.203 0 .21-.178.537-.533.986-.355.45-.99 1.154-1.91 2.112-2.022 2.045-3.774 3.536-5.254 4.474-1.482.94-2.828 1.408-4.037 1.408-1.25 0-2.268-.485-3.05-1.454-.783-.97-1.174-2.238-1.174-3.802 0-3.442 1.648-7.952 4.944-13.532 3.295-5.58 8.677-12.916 16.144-22.01-2.232 1.773-4.922 4.36-8.072 7.76-3.15 3.4-7.686 8.645-13.61 15.736-.94 1.148-2.243 2.734-3.91 4.756-6.614 8.03-10.712 12.046-12.298 12.046-.605 0-1.074-.276-1.407-.828-.334-.554-.5-1.35-.5-2.395 0-3.586 2.304-8.88 6.914-15.877 4.61-6.998 10.888-14.606 18.835-22.825z" fill="none" stroke="#263d96" stroke-width="1.7505"/><path d="M112.51 62.493l2.628-3.85 4.223-.25-7.038 11.076c-1.044 1.627-1.7 2.754-1.97 3.38-.273.625-.408 1.167-.408 1.626 0 .355.072.61.218.767.147.156.396.235.752.235.54 0 1.39-.454 2.55-1.362 1.157-.907 2.612-2.268 4.364-4.083.5-.5 1.08-1.116 1.736-1.846.657-.73 1.06-1.095 1.205-1.095.124 0 .218.02.28.063.063.042.095.104.095.188 0 .23-.24.636-.72 1.22s-1.22 1.376-2.222 2.378c-2.252 2.316-3.916 3.823-4.99 4.52-1.075.7-2.08 1.05-3.02 1.05-.855 0-1.506-.272-1.955-.814-.448-.542-.672-1.334-.672-2.377 0-.272.02-.58.062-.924.042-.345.126-.85.25-1.518-1.46 1.856-2.873 3.26-4.24 4.208-1.365.95-2.643 1.424-3.83 1.424-1.15 0-2.05-.58-2.708-1.737-.657-1.158-.986-2.758-.986-4.802 0-.5.036-1 .11-1.5.073-.502.172-.99.297-1.472-.25.397-.49.705-.718.923-.23.22-.43.33-.595.33-.146 0-.245-.02-.298-.063-.052-.04-.078-.104-.078-.187 0-.167.27-.574.813-1.22.542-.647 1.272-1.44 2.19-2.38 2.002-2 4.01-3.55 6.023-4.645 2.013-1.095 3.853-1.642 5.522-1.642 1.022 0 1.84.27 2.456.813.616.543.923 1.262.923 2.16 0 .208-.02.426-.063.656-.042.23-.105.48-.188.75zM98.804 73.38c0 .606.135 1.086.407 1.44.27.355.646.532 1.126.532.71 0 1.59-.354 2.644-1.064 1.053-.708 2.154-1.7 3.3-2.972 1.732-1.898 3.072-3.75 4.02-5.554.95-1.804 1.425-3.363 1.425-4.677 0-.563-.204-1.038-.61-1.423-.407-.387-.903-.58-1.486-.58-1.043 0-2.18.454-3.41 1.36-1.23.91-2.45 2.187-3.66 3.834-1.17 1.648-2.087 3.296-2.753 4.944-.668 1.648-1.002 3.034-1.002 4.16" fill="#263d96"/><path d="M112.51 62.493l2.628-3.85 4.223-.25-7.038 11.076c-1.044 1.627-1.7 2.754-1.97 3.38-.273.625-.408 1.167-.408 1.626 0 .355.072.61.218.767.147.156.396.235.752.235.54 0 1.39-.454 2.55-1.362 1.157-.907 2.612-2.268 4.364-4.083.5-.5 1.08-1.116 1.736-1.846.657-.73 1.06-1.095 1.205-1.095.124 0 .218.02.28.063.063.042.095.104.095.188 0 .23-.24.636-.72 1.22s-1.22 1.376-2.222 2.378c-2.252 2.316-3.916 3.823-4.99 4.52-1.075.7-2.08 1.05-3.02 1.05-.855 0-1.506-.272-1.955-.814-.448-.542-.672-1.334-.672-2.377 0-.272.02-.58.062-.924.042-.345.126-.85.25-1.518-1.46 1.856-2.873 3.26-4.24 4.208-1.365.95-2.643 1.424-3.83 1.424-1.15 0-2.05-.58-2.708-1.737-.657-1.158-.986-2.758-.986-4.802 0-.5.036-1 .11-1.5.073-.502.172-.99.297-1.472-.25.397-.49.705-.718.923-.23.22-.43.33-.595.33-.146 0-.245-.02-.298-.063-.052-.04-.078-.104-.078-.187 0-.167.27-.574.813-1.22.542-.647 1.272-1.44 2.19-2.38 2.002-2 4.01-3.55 6.023-4.645 2.013-1.095 3.853-1.642 5.522-1.642 1.022 0 1.84.27 2.456.813.616.543.923 1.262.923 2.16 0 .208-.02.426-.063.656-.042.23-.105.48-.188.75zM98.804 73.38c0 .606.135 1.086.407 1.44.27.355.646.532 1.126.532.71 0 1.59-.354 2.644-1.064 1.053-.708 2.154-1.7 3.3-2.972 1.732-1.898 3.072-3.75 4.02-5.554.95-1.804 1.425-3.363 1.425-4.677 0-.563-.204-1.038-.61-1.423-.407-.387-.903-.58-1.486-.58-1.043 0-2.18.454-3.41 1.36-1.23.91-2.45 2.187-3.66 3.834-1.17 1.648-2.087 3.296-2.753 4.944-.668 1.648-1.002 3.034-1.002 4.16z" fill="none" stroke="#263d96" stroke-width="1.7505"/><path d="M121.488 76.197l8.323-12.42.252-.41c1.188-1.75 1.783-2.897 1.783-3.44 0-.292-.068-.506-.204-.64-.134-.136-.358-.205-.672-.205-.687 0-1.58.438-2.674 1.315-1.095.876-2.707 2.45-4.834 4.724-.438.46-.96 1.055-1.565 1.784-.73.898-1.21 1.346-1.44 1.346-.082 0-.155-.026-.218-.08-.063-.05-.094-.108-.094-.17 0-.167.1-.397.297-.69.2-.29.59-.77 1.174-1.44l2.034-2.22c2.064-2.21 3.624-3.696 4.677-4.458 1.053-.76 2.018-1.142 2.894-1.142.73 0 1.328.26 1.798.782s.704 1.18.704 1.97c0 1.023-.193 2.067-.58 3.13-.385 1.064-1.214 2.67-2.486 4.818l.062-.062c2.316-2.232 4.13-3.91 5.445-5.038.813-2.17 1.6-3.645 2.362-4.427.76-.782 1.725-1.173 2.894-1.173.416 0 .765.1 1.047.297.282.2.423.443.423.735 0 .73-1.24 2.014-3.724 3.85-.417.312-.74.552-.97.718-.938.688-1.61 1.41-2.017 2.16-.408.75-.612 1.606-.612 2.565 0 .522.15.938.454 1.25.302.314.682.47 1.142.47 1.064 0 2.138-.51 3.222-1.532 1.085-1.022 1.638-1.533 1.66-1.533.124.02.218.058.28.11.063.052.095.12.095.203 0 .5-.61 1.225-1.83 2.174-1.22.95-2.31 1.424-3.27 1.424-.876 0-1.544-.213-2.003-.64-.458-.428-.688-1.05-.688-1.863 0-.312.062-.708.187-1.19.125-.478.334-1.104.626-1.876-1.273 1.065-2.675 2.437-4.208 4.116-1.534 1.68-3.29 3.77-5.272 6.273l-4.475.437" fill="#263d96"/><path d="M121.488 76.197l8.323-12.42.252-.41c1.188-1.75 1.783-2.897 1.783-3.44 0-.292-.068-.506-.204-.64-.134-.136-.358-.205-.672-.205-.687 0-1.58.438-2.674 1.315-1.095.876-2.707 2.45-4.834 4.724-.438.46-.96 1.055-1.565 1.784-.73.898-1.21 1.346-1.44 1.346-.082 0-.155-.026-.218-.08-.063-.05-.094-.108-.094-.17 0-.167.1-.397.297-.69.2-.29.59-.77 1.174-1.44l2.034-2.22c2.064-2.21 3.624-3.696 4.677-4.458 1.053-.76 2.018-1.142 2.894-1.142.73 0 1.328.26 1.798.782s.704 1.18.704 1.97c0 1.023-.193 2.067-.58 3.13-.385 1.064-1.214 2.67-2.486 4.818l.062-.062c2.316-2.232 4.13-3.91 5.445-5.038.813-2.17 1.6-3.645 2.362-4.427.76-.782 1.725-1.173 2.894-1.173.416 0 .765.1 1.047.297.282.2.423.443.423.735 0 .73-1.24 2.014-3.724 3.85-.417.312-.74.552-.97.718-.938.688-1.61 1.41-2.017 2.16-.408.75-.612 1.606-.612 2.565 0 .522.15.938.454 1.25.302.314.682.47 1.142.47 1.064 0 2.138-.51 3.222-1.532 1.085-1.022 1.638-1.533 1.66-1.533.124.02.218.058.28.11.063.052.095.12.095.203 0 .5-.61 1.225-1.83 2.174-1.22.95-2.31 1.424-3.27 1.424-.876 0-1.544-.213-2.003-.64-.458-.428-.688-1.05-.688-1.863 0-.312.062-.708.187-1.19.125-.478.334-1.104.626-1.876-1.273 1.065-2.675 2.437-4.208 4.116-1.534 1.68-3.29 3.77-5.272 6.273l-4.475.437z" fill="none" stroke="#263d96" stroke-width="1.7505"/><path d="M147.426 62.15c-1.168 1.167-2.383 2.466-3.645 3.894-1.26 1.43-2.006 2.143-2.235 2.143-.084 0-.147-.016-.19-.047-.04-.03-.06-.078-.06-.14 0-.27.708-1.22 2.127-2.848 1.418-1.627 3.42-3.775 6.007-6.445l4.597-.313-6.35 9.98c-1.357 2.15-2.217 3.588-2.582 4.318-.365.73-.548 1.304-.548 1.72 0 .314.11.596.33.847.218.248.474.373.766.373.792 0 1.762-.422 2.91-1.267 1.147-.844 2.68-2.29 4.6-4.333.354-.396.812-.907 1.376-1.533.833-.94 1.354-1.408 1.563-1.408.104 0 .193.03.266.094.072.062.11.136.11.22 0 .187-.18.5-.533.937-.355.44-1.158 1.305-2.41 2.598-2.148 2.19-3.775 3.666-4.88 4.427-1.106.763-2.087 1.143-2.942 1.143-1.043 0-1.882-.365-2.518-1.096-.637-.73-.955-1.71-.955-2.94 0-1.627 1.48-4.672 4.444-9.137.332-.52.583-.917.75-1.188zm3.41-4.914c-.187 0-.317-.03-.39-.094-.074-.06-.12-.187-.14-.375 0-.188.66-.74 1.985-1.658 1.326-.92 2.416-1.983 3.27-3.193.356-.52.762-1.376 1.22-2.565.794-2.003 1.69-3.004 2.69-3.004.586 0 1.05.172 1.394.517.345.344.517.808.517 1.392 0 1.063-.505 2.185-1.517 3.364-1.012 1.18-2.467 2.32-4.364 3.427-1.566.917-2.65 1.512-3.255 1.783-.605.27-1.075.406-1.408.406" fill="#263d96"/><path d="M147.426 62.15c-1.168 1.167-2.383 2.466-3.645 3.894-1.26 1.43-2.006 2.143-2.235 2.143-.084 0-.147-.016-.19-.047-.04-.03-.06-.078-.06-.14 0-.27.708-1.22 2.127-2.848 1.418-1.627 3.42-3.775 6.007-6.445l4.597-.313-6.35 9.98c-1.357 2.15-2.217 3.588-2.582 4.318-.365.73-.548 1.304-.548 1.72 0 .314.11.596.33.847.218.248.474.373.766.373.792 0 1.762-.422 2.91-1.267 1.147-.844 2.68-2.29 4.6-4.333.354-.396.812-.907 1.376-1.533.833-.94 1.354-1.408 1.563-1.408.104 0 .193.03.266.094.072.062.11.136.11.22 0 .187-.18.5-.533.937-.355.44-1.158 1.305-2.41 2.598-2.148 2.19-3.775 3.666-4.88 4.427-1.106.763-2.087 1.143-2.942 1.143-1.043 0-1.882-.365-2.518-1.096-.637-.73-.955-1.71-.955-2.94 0-1.627 1.48-4.672 4.444-9.137.332-.52.583-.917.75-1.188zm3.41-4.914c-.187 0-.317-.03-.39-.094-.074-.06-.12-.187-.14-.375 0-.188.66-.74 1.985-1.658 1.326-.92 2.416-1.983 3.27-3.193.356-.52.762-1.376 1.22-2.565.794-2.003 1.69-3.004 2.69-3.004.586 0 1.05.172 1.394.517.345.344.517.808.517 1.392 0 1.063-.505 2.185-1.517 3.364-1.012 1.18-2.467 2.32-4.364 3.427-1.566.917-2.65 1.512-3.255 1.783-.605.27-1.075.406-1.408.406z" fill="none" stroke="#263d96" stroke-width="1.7505"/><path d="M173.02 62.493l2.628-3.85 4.224-.25-7.04 11.076c-1.043 1.627-1.7 2.754-1.97 3.38-.272.625-.408 1.167-.408 1.626 0 .355.073.61.22.767.145.156.395.235.75.235.542 0 1.393-.454 2.55-1.362 1.158-.907 2.612-2.268 4.365-4.083.5-.5 1.078-1.116 1.736-1.846.656-.73 1.057-1.095 1.204-1.095.125 0 .22.02.282.063.062.042.093.104.093.188 0 .23-.24.636-.72 1.22s-1.22 1.376-2.22 2.378c-2.254 2.316-3.917 3.823-4.992 4.52-1.074.7-2.08 1.05-3.018 1.05-.856 0-1.508-.272-1.956-.814-.45-.542-.674-1.334-.674-2.377 0-.272.02-.58.063-.924.04-.345.124-.85.25-1.518-1.46 1.856-2.874 3.26-4.24 4.208-1.367.95-2.644 1.424-3.833 1.424-1.148 0-2.05-.58-2.707-1.737-.657-1.158-.985-2.758-.985-4.802 0-.5.036-1 .11-1.5.072-.502.17-.99.297-1.472-.25.397-.49.705-.72.923-.23.22-.428.33-.595.33-.145 0-.245-.02-.297-.063-.05-.04-.078-.104-.078-.187 0-.167.272-.574.814-1.22.542-.647 1.272-1.44 2.19-2.38 2.002-2 4.01-3.55 6.023-4.645 2.01-1.095 3.852-1.642 5.52-1.642 1.023 0 1.84.27 2.457.813.615.543.923 1.262.923 2.16 0 .208-.02.426-.062.656-.043.23-.105.48-.188.75zM159.316 73.38c0 .606.135 1.086.407 1.44.27.355.646.532 1.126.532.707 0 1.59-.354 2.643-1.064 1.052-.708 2.153-1.7 3.3-2.972 1.73-1.898 3.07-3.75 4.02-5.554.95-1.804 1.425-3.363 1.425-4.677 0-.563-.204-1.038-.61-1.423-.407-.387-.903-.58-1.486-.58-1.043 0-2.18.454-3.41 1.36-1.233.91-2.452 2.187-3.662 3.834-1.168 1.648-2.086 3.296-2.753 4.944-.668 1.648-1 3.034-1 4.16" fill="#263d96"/><path d="M173.02 62.493l2.628-3.85 4.224-.25-7.04 11.076c-1.043 1.627-1.7 2.754-1.97 3.38-.272.625-.408 1.167-.408 1.626 0 .355.073.61.22.767.145.156.395.235.75.235.542 0 1.393-.454 2.55-1.362 1.158-.907 2.612-2.268 4.365-4.083.5-.5 1.078-1.116 1.736-1.846.656-.73 1.057-1.095 1.204-1.095.125 0 .22.02.282.063.062.042.093.104.093.188 0 .23-.24.636-.72 1.22s-1.22 1.376-2.22 2.378c-2.254 2.316-3.917 3.823-4.992 4.52-1.074.7-2.08 1.05-3.018 1.05-.856 0-1.508-.272-1.956-.814-.45-.542-.674-1.334-.674-2.377 0-.272.02-.58.063-.924.04-.345.124-.85.25-1.518-1.46 1.856-2.874 3.26-4.24 4.208-1.367.95-2.644 1.424-3.833 1.424-1.148 0-2.05-.58-2.707-1.737-.657-1.158-.985-2.758-.985-4.802 0-.5.036-1 .11-1.5.072-.502.17-.99.297-1.472-.25.397-.49.705-.72.923-.23.22-.428.33-.595.33-.145 0-.245-.02-.297-.063-.05-.04-.078-.104-.078-.187 0-.167.272-.574.814-1.22.542-.647 1.272-1.44 2.19-2.38 2.002-2 4.01-3.55 6.023-4.645 2.01-1.095 3.852-1.642 5.52-1.642 1.023 0 1.84.27 2.457.813.615.543.923 1.262.923 2.16 0 .208-.02.426-.062.656-.043.23-.105.48-.188.75zM159.316 73.38c0 .606.135 1.086.407 1.44.27.355.646.532 1.126.532.707 0 1.59-.354 2.643-1.064 1.052-.708 2.153-1.7 3.3-2.972 1.73-1.898 3.07-3.75 4.02-5.554.95-1.804 1.425-3.363 1.425-4.677 0-.563-.204-1.038-.61-1.423-.407-.387-.903-.58-1.486-.58-1.043 0-2.18.454-3.41 1.36-1.233.91-2.452 2.187-3.662 3.834-1.168 1.648-2.086 3.296-2.753 4.944-.668 1.648-1 3.034-1 4.16z" fill="none" stroke="#263d96" stroke-width="1.7505"/><path d="M253.492 33.583c-4.256 3.567-8.51 9.51-12.766 17.834-1.147 2.252-2.013 3.89-2.597 4.912-3.65 6.34-7.796 11.32-12.437 14.94-4.642 3.618-9.153 5.428-13.532 5.428-2.398 0-4.354-.548-5.866-1.642-1.512-1.096-2.268-2.49-2.268-4.178 0-.98.29-1.778.876-2.394.583-.614 1.324-.923 2.22-.923.752 0 1.378.262 1.88.783.5.522.75 1.2.75 2.034 0 .438-.142.934-.423 1.486-.282.553-.423.934-.423 1.143 0 .772.36 1.413 1.08 1.924.718.51 1.662.766 2.83.766 3.254 0 6.394-1.418 9.42-4.255 3.023-2.835 6.402-7.59 10.136-14.267.312-.562.77-1.407 1.376-2.534 3.462-6.258 6.31-10.628 8.54-13.11 1.335-1.46 2.842-2.93 4.522-4.41 1.68-1.483 3.53-2.963 5.553-4.445-1.67-.792-3.425-1.38-5.272-1.767-1.845-.386-3.853-.58-6.022-.58-1.314 0-2.64.08-3.973.236-1.335.155-2.723.39-4.16.704.98 1.085 1.704 2.29 2.173 3.613.47 1.326.704 2.792.704 4.398 0 2.565-.615 5.235-1.845 8.01-1.232 2.773-2.88 5.192-4.945 7.258-1.857 1.835-3.84 3.243-5.945 4.224-2.107.98-4.182 1.47-6.226 1.47-2.42 0-4.34-.652-5.757-1.956-1.42-1.303-2.128-3.06-2.128-5.272 0-4.4 1.996-8.677 5.99-12.827 3.996-4.15 9.236-7.29 15.723-9.418-.98-.667-2.04-1.168-3.176-1.502-1.137-.333-2.383-.5-3.738-.5-3.798 0-7.287 1.13-10.468 3.394-3.18 2.263-5.783 5.46-7.806 9.59-.146.312-.323.73-.532 1.25-.375.94-.688 1.41-.938 1.41-.042 0-.073-.022-.094-.064-.02-.042-.032-.146-.032-.313 0-.48.173-1.152.517-2.018.344-.865.838-1.84 1.486-2.925 2.065-3.568 4.635-6.316 7.713-8.245 3.075-1.93 6.418-2.894 10.028-2.894 1.647 0 3.164.21 4.552.627 1.387.417 2.664 1.063 3.832 1.94 1.96-.397 3.666-.678 5.116-.845 1.45-.167 2.78-.25 3.988-.25 2.17 0 4.283.193 6.337.58 2.053.384 4.102.984 6.147 1.797l1.377-.69c1.335-.666 2.137-1 2.408-1 .21.02.36.047.455.078.094.03.14.078.14.14 0 .188-.37.47-1.11.846-.74.375-1.372.75-1.893 1.126 1.897 1.105 3.353 2.43 4.364 3.973 1.012 1.545 1.518 3.234 1.518 5.07 0 2.398-.887 4.516-2.66 6.35-1.772 1.836-4.286 3.224-7.54 4.162 2.648.668 4.688 1.836 6.116 3.504 1.43 1.668 2.144 3.722 2.144 6.163 0 1.857-.433 3.69-1.298 5.507-.866 1.814-2.07 3.42-3.614 4.818-1.648 1.48-3.463 2.628-5.445 3.44-1.982.815-3.953 1.222-5.914 1.222-2.315 0-4.15-.605-5.506-1.815-1.356-1.21-2.034-2.847-2.034-4.912 0-1.648.386-3.227 1.158-4.74.77-1.512 1.918-2.926 3.442-4.24.395-.313.782-.58 1.156-.798.376-.218.605-.328.69-.328.082 0 .144.026.187.078.04.052.072.13.092.235 0 .167-.292.48-.876.938-.333.27-.604.49-.813.657-1.355 1.17-2.388 2.44-3.097 3.818-.71 1.376-1.064 2.795-1.064 4.254 0 1.732.495 3.093 1.486 4.084.99.992 2.352 1.487 4.083 1.487 1.795 0 3.51-.448 5.148-1.346 1.637-.895 3.02-2.157 4.146-3.784 1.105-1.565 1.96-3.212 2.565-4.944.603-1.73.906-3.39.906-4.974 0-2.107-.542-3.896-1.627-5.366-1.086-1.47-2.295-2.206-3.63-2.206-.375 0-1.033.183-1.97.547-.94.366-1.69.548-2.253.548-.585 0-1.017-.11-1.3-.327-.28-.22-.422-.558-.422-1.018 0-.52.173-.907.517-1.157.344-.25.892-.375 1.642-.375.376 0 .902.052 1.58.156.678.103 1.163.155 1.455.155 1.814 0 3.644-1.183 5.49-3.55 1.847-2.368 2.77-4.96 2.77-7.776 0-1.336-.25-2.51-.752-3.52-.5-1.012-1.283-1.914-2.346-2.707zm-22.214-1.97c-6.175 1.855-11.275 4.796-15.3 8.822-4.026 4.025-6.038 7.958-6.038 11.795 0 1.92.547 3.437 1.642 4.553 1.095 1.116 2.592 1.673 4.49 1.673 1.605 0 3.336-.52 5.193-1.564 1.857-1.042 3.65-2.513 5.382-4.412 2.19-2.377 3.837-4.834 4.943-7.368 1.105-2.534 1.66-5.115 1.66-7.743 0-1.148-.163-2.186-.486-3.115-.323-.927-.818-1.81-1.486-2.643" fill="#263d96"/><path d="M253.492 33.583c-4.256 3.567-8.51 9.51-12.766 17.834-1.147 2.252-2.013 3.89-2.597 4.912-3.65 6.34-7.796 11.32-12.437 14.94-4.642 3.618-9.153 5.428-13.532 5.428-2.398 0-4.354-.548-5.866-1.642-1.512-1.096-2.268-2.49-2.268-4.178 0-.98.29-1.778.876-2.394.583-.614 1.324-.923 2.22-.923.752 0 1.378.262 1.88.783.5.522.75 1.2.75 2.034 0 .438-.142.934-.423 1.486-.282.553-.423.934-.423 1.143 0 .772.36 1.413 1.08 1.924.718.51 1.662.766 2.83.766 3.254 0 6.394-1.418 9.42-4.255 3.023-2.835 6.402-7.59 10.136-14.267.312-.562.77-1.407 1.376-2.534 3.462-6.258 6.31-10.628 8.54-13.11 1.335-1.46 2.842-2.93 4.522-4.41 1.68-1.483 3.53-2.963 5.553-4.445-1.67-.792-3.425-1.38-5.272-1.767-1.845-.386-3.853-.58-6.022-.58-1.314 0-2.64.08-3.973.236-1.335.155-2.723.39-4.16.704.98 1.085 1.704 2.29 2.173 3.613.47 1.326.704 2.792.704 4.398 0 2.565-.615 5.235-1.845 8.01-1.232 2.773-2.88 5.192-4.945 7.258-1.857 1.835-3.84 3.243-5.945 4.224-2.107.98-4.182 1.47-6.226 1.47-2.42 0-4.34-.652-5.757-1.956-1.42-1.303-2.128-3.06-2.128-5.272 0-4.4 1.996-8.677 5.99-12.827 3.996-4.15 9.236-7.29 15.723-9.418-.98-.667-2.04-1.168-3.176-1.502-1.137-.333-2.383-.5-3.738-.5-3.798 0-7.287 1.13-10.468 3.394-3.18 2.263-5.783 5.46-7.806 9.59-.146.312-.323.73-.532 1.25-.375.94-.688 1.41-.938 1.41-.042 0-.073-.022-.094-.064-.02-.042-.032-.146-.032-.313 0-.48.173-1.152.517-2.018.344-.865.838-1.84 1.486-2.925 2.065-3.568 4.635-6.316 7.713-8.245 3.075-1.93 6.418-2.894 10.028-2.894 1.647 0 3.164.21 4.552.627 1.387.417 2.664 1.063 3.832 1.94 1.96-.397 3.666-.678 5.116-.845 1.45-.167 2.78-.25 3.988-.25 2.17 0 4.283.193 6.337.58 2.053.384 4.102.984 6.147 1.797l1.377-.69c1.335-.666 2.137-1 2.408-1 .21.02.36.047.455.078.094.03.14.078.14.14 0 .188-.37.47-1.11.846-.74.375-1.372.75-1.893 1.126 1.897 1.105 3.353 2.43 4.364 3.973 1.012 1.545 1.518 3.234 1.518 5.07 0 2.398-.887 4.516-2.66 6.35-1.772 1.836-4.286 3.224-7.54 4.162 2.648.668 4.688 1.836 6.116 3.504 1.43 1.668 2.144 3.722 2.144 6.163 0 1.857-.433 3.69-1.298 5.507-.866 1.814-2.07 3.42-3.614 4.818-1.648 1.48-3.463 2.628-5.445 3.44-1.982.815-3.953 1.222-5.914 1.222-2.315 0-4.15-.605-5.506-1.815-1.356-1.21-2.034-2.847-2.034-4.912 0-1.648.386-3.227 1.158-4.74.77-1.512 1.918-2.926 3.442-4.24.395-.313.782-.58 1.156-.798.376-.218.605-.328.69-.328.082 0 .144.026.187.078.04.052.072.13.092.235 0 .167-.292.48-.876.938-.333.27-.604.49-.813.657-1.355 1.17-2.388 2.44-3.097 3.818-.71 1.376-1.064 2.795-1.064 4.254 0 1.732.495 3.093 1.486 4.084.99.992 2.352 1.487 4.083 1.487 1.795 0 3.51-.448 5.148-1.346 1.637-.895 3.02-2.157 4.146-3.784 1.105-1.565 1.96-3.212 2.565-4.944.603-1.73.906-3.39.906-4.974 0-2.107-.542-3.896-1.627-5.366-1.086-1.47-2.295-2.206-3.63-2.206-.375 0-1.033.183-1.97.547-.94.366-1.69.548-2.253.548-.585 0-1.017-.11-1.3-.327-.28-.22-.422-.558-.422-1.018 0-.52.173-.907.517-1.157.344-.25.892-.375 1.642-.375.376 0 .902.052 1.58.156.678.103 1.163.155 1.455.155 1.814 0 3.644-1.183 5.49-3.55 1.847-2.368 2.77-4.96 2.77-7.776 0-1.336-.25-2.51-.752-3.52-.5-1.012-1.283-1.914-2.346-2.707zm-22.214-1.97c-6.175 1.855-11.275 4.796-15.3 8.822-4.026 4.025-6.038 7.958-6.038 11.795 0 1.92.547 3.437 1.642 4.553 1.095 1.116 2.592 1.673 4.49 1.673 1.605 0 3.336-.52 5.193-1.564 1.857-1.042 3.65-2.513 5.382-4.412 2.19-2.377 3.837-4.834 4.943-7.368 1.105-2.534 1.66-5.115 1.66-7.743 0-1.148-.163-2.186-.486-3.115-.323-.927-.818-1.81-1.486-2.643z" fill="none" stroke="#263d96" stroke-width="1.7505"/><path d="M275.612 70.377c.04 0 .135.022.282.063.313.084.563.125.75.125.835 0 1.727-.25 2.676-.75.95-.502 1.83-1.19 2.644-2.066l.813-.97c.042-.042.12-.084.235-.126.114-.042.213-.062.297-.062.082 0 .144.03.187.093.042.063.062.157.062.282 0 .105-.006.178-.017.22-.01.04-.026.072-.046.093l-.72.845c-.876 1.064-1.882 1.882-3.02 2.456-1.137.574-2.31.86-3.52.86-.354 0-.64-.01-.86-.03-.22-.02-.41-.042-.578-.063-1.524 1.648-3.02 2.92-4.49 3.817-1.47.898-2.8 1.346-3.99 1.346-1.376 0-2.436-.573-3.176-1.72-.74-1.148-1.11-2.796-1.11-4.944 0-.397.04-.835.124-1.315.084-.478.21-1.02.376-1.626-.355.46-.642.788-.86.986-.22.198-.402.297-.548.297-.105 0-.182-.016-.235-.047-.05-.03-.077-.1-.077-.204 0-.124.162-.395.485-.813.324-.416 1.038-1.24 2.143-2.47 1.92-2.087 3.87-3.72 5.852-4.898 1.982-1.178 3.786-1.768 5.413-1.768 1.355 0 2.43.418 3.222 1.252.794.833 1.19 1.96 1.19 3.378 0 1.106-.277 2.274-.83 3.504-.552 1.23-1.444 2.65-2.675 4.255zm-10.762 2.816c0 .772.16 1.345.484 1.72.323.376.82.565 1.486.565.71 0 1.622-.35 2.738-1.05 1.116-.697 2.216-1.62 3.3-2.768 1.398-1.502 2.504-3.092 3.318-4.77.813-1.68 1.22-3.208 1.22-4.585 0-1.002-.215-1.788-.64-2.362-.43-.573-1.03-.86-1.8-.86-.96 0-1.983.432-3.067 1.298-1.086.867-2.244 2.165-3.474 3.896-1.126 1.607-2.003 3.203-2.628 4.787-.626 1.586-.938 2.962-.938 4.13" fill="#263d96"/><path d="M275.612 70.377c.04 0 .135.022.282.063.313.084.563.125.75.125.835 0 1.727-.25 2.676-.75.95-.502 1.83-1.19 2.644-2.066l.813-.97c.042-.042.12-.084.235-.126.114-.042.213-.062.297-.062.082 0 .144.03.187.093.042.063.062.157.062.282 0 .105-.006.178-.017.22-.01.04-.026.072-.046.093l-.72.845c-.876 1.064-1.882 1.882-3.02 2.456-1.137.574-2.31.86-3.52.86-.354 0-.64-.01-.86-.03-.22-.02-.41-.042-.578-.063-1.524 1.648-3.02 2.92-4.49 3.817-1.47.898-2.8 1.346-3.99 1.346-1.376 0-2.436-.573-3.176-1.72-.74-1.148-1.11-2.796-1.11-4.944 0-.397.04-.835.124-1.315.084-.478.21-1.02.376-1.626-.355.46-.642.788-.86.986-.22.198-.402.297-.548.297-.105 0-.182-.016-.235-.047-.05-.03-.077-.1-.077-.204 0-.124.162-.395.485-.813.324-.416 1.038-1.24 2.143-2.47 1.92-2.087 3.87-3.72 5.852-4.898 1.982-1.178 3.786-1.768 5.413-1.768 1.355 0 2.43.418 3.222 1.252.794.833 1.19 1.96 1.19 3.378 0 1.106-.277 2.274-.83 3.504-.552 1.23-1.444 2.65-2.675 4.255zm-10.762 2.816c0 .772.16 1.345.484 1.72.323.376.82.565 1.486.565.71 0 1.622-.35 2.738-1.05 1.116-.697 2.216-1.62 3.3-2.768 1.398-1.502 2.504-3.092 3.318-4.77.813-1.68 1.22-3.208 1.22-4.585 0-1.002-.215-1.788-.64-2.362-.43-.573-1.03-.86-1.8-.86-.96 0-1.983.432-3.067 1.298-1.086.867-2.244 2.165-3.474 3.896-1.126 1.607-2.003 3.203-2.628 4.787-.626 1.586-.938 2.962-.938 4.13z" fill="none" stroke="#263d96" stroke-width="1.7505"/><path d="M283.434 76.26l8.322-12.484c.084-.146.22-.345.407-.595 1.085-1.605 1.627-2.69 1.627-3.253 0-.292-.067-.506-.203-.64-.135-.136-.36-.205-.673-.205-.688 0-1.58.438-2.675 1.315-1.096.876-2.707 2.45-4.834 4.724-.44.46-.96 1.055-1.565 1.784-.73.898-1.21 1.346-1.44 1.346-.08 0-.154-.026-.217-.08-.063-.05-.094-.108-.094-.17 0-.167.098-.397.296-.69.198-.29.59-.77 1.173-1.44l2.034-2.22c2.065-2.21 3.623-3.696 4.677-4.458 1.053-.76 2.02-1.142 2.895-1.142.77 0 1.38.27 1.83.814.448.542.673 1.282.673 2.22 0 .96-.203 1.993-.61 3.098-.407 1.106-1.06 2.38-1.956 3.818 3.255-3.67 5.752-6.237 7.493-7.697 1.743-1.46 3.134-2.19 4.178-2.19.73 0 1.314.28 1.752.844.438.563.657 1.315.657 2.254 0 1.606-1.054 3.85-3.16 6.726-.356.48-.616.846-.782 1.096-1.17 1.585-1.955 2.76-2.362 3.52-.407.762-.61 1.382-.61 1.86 0 .377.082.664.25.862.166.198.427.297.78.297.544 0 1.41-.468 2.6-1.407 1.187-.94 2.627-2.294 4.316-4.067.5-.5 1.074-1.127 1.72-1.878.668-.75 1.075-1.126 1.22-1.126.105 0 .2.037.283.11.083.073.125.14.125.203 0 .334-.93 1.45-2.784 3.347l-.376.376c-1.773 1.815-3.254 3.166-4.443 4.052-1.19.887-2.097 1.33-2.723 1.33-.917 0-1.658-.417-2.22-1.25-.564-.836-.846-1.93-.846-3.287 0-.98.256-2.002.768-3.066.51-1.064 1.62-2.67 3.332-4.82.23-.29.552-.687.97-1.187 1.23-1.523 1.845-2.535 1.845-3.035 0-.27-.05-.46-.155-.563-.106-.105-.293-.157-.564-.157-1 0-2.978 1.492-5.93 4.475-2.952 2.982-6.46 7.05-10.527 12.2l-4.476.44" fill="#263d96"/><path d="M283.434 76.26l8.322-12.484c.084-.146.22-.345.407-.595 1.085-1.605 1.627-2.69 1.627-3.253 0-.292-.067-.506-.203-.64-.135-.136-.36-.205-.673-.205-.688 0-1.58.438-2.675 1.315-1.096.876-2.707 2.45-4.834 4.724-.44.46-.96 1.055-1.565 1.784-.73.898-1.21 1.346-1.44 1.346-.08 0-.154-.026-.217-.08-.063-.05-.094-.108-.094-.17 0-.167.098-.397.296-.69.198-.29.59-.77 1.173-1.44l2.034-2.22c2.065-2.21 3.623-3.696 4.677-4.458 1.053-.76 2.02-1.142 2.895-1.142.77 0 1.38.27 1.83.814.448.542.673 1.282.673 2.22 0 .96-.203 1.993-.61 3.098-.407 1.106-1.06 2.38-1.956 3.818 3.255-3.67 5.752-6.237 7.493-7.697 1.743-1.46 3.134-2.19 4.178-2.19.73 0 1.314.28 1.752.844.438.563.657 1.315.657 2.254 0 1.606-1.054 3.85-3.16 6.726-.356.48-.616.846-.782 1.096-1.17 1.585-1.955 2.76-2.362 3.52-.407.762-.61 1.382-.61 1.86 0 .377.082.664.25.862.166.198.427.297.78.297.544 0 1.41-.468 2.6-1.407 1.187-.94 2.627-2.294 4.316-4.067.5-.5 1.074-1.127 1.72-1.878.668-.75 1.075-1.126 1.22-1.126.105 0 .2.037.283.11.083.073.125.14.125.203 0 .334-.93 1.45-2.784 3.347l-.376.376c-1.773 1.815-3.254 3.166-4.443 4.052-1.19.887-2.097 1.33-2.723 1.33-.917 0-1.658-.417-2.22-1.25-.564-.836-.846-1.93-.846-3.287 0-.98.256-2.002.768-3.066.51-1.064 1.62-2.67 3.332-4.82.23-.29.552-.687.97-1.187 1.23-1.523 1.845-2.535 1.845-3.035 0-.27-.05-.46-.155-.563-.106-.105-.293-.157-.564-.157-1 0-2.978 1.492-5.93 4.475-2.952 2.982-6.46 7.05-10.527 12.2l-4.476.44z" fill="none" stroke="#263d96" stroke-width="1.7505"/><path d="M316.6 62.15c-1.17 1.167-2.384 2.466-3.646 3.894-1.262 1.43-2.007 2.143-2.237 2.143-.084 0-.145-.016-.187-.047-.042-.03-.063-.078-.063-.14 0-.27.71-1.22 2.127-2.848 1.42-1.627 3.42-3.775 6.008-6.445l4.6-.313-6.352 9.98c-1.357 2.15-2.217 3.588-2.58 4.318-.367.73-.55 1.304-.55 1.72 0 .314.11.596.33.847.22.248.474.373.765.373.793 0 1.763-.422 2.91-1.267 1.148-.844 2.68-2.29 4.6-4.333.354-.396.813-.907 1.377-1.533.834-.94 1.355-1.408 1.564-1.408.104 0 .193.03.267.094.072.062.11.136.11.22 0 .187-.18.5-.534.937-.355.44-1.158 1.305-2.41 2.598-2.148 2.19-3.775 3.666-4.88 4.427-1.106.763-2.086 1.143-2.94 1.143-1.045 0-1.884-.365-2.52-1.096-.636-.73-.954-1.71-.954-2.94 0-1.627 1.48-4.672 4.442-9.137.334-.52.584-.917.752-1.188zm7.883-13.83c0-.69.277-1.34.83-1.956.553-.615 1.153-.923 1.8-.923.52 0 .938.173 1.25.517.313.344.47.788.47 1.33 0 .71-.26 1.372-.782 1.987-.52.615-1.105.923-1.752.923-.52 0-.953-.177-1.298-.532-.343-.355-.517-.803-.517-1.346" fill="#263d96"/><path d="M316.6 62.15c-1.17 1.167-2.384 2.466-3.646 3.894-1.262 1.43-2.007 2.143-2.237 2.143-.084 0-.145-.016-.187-.047-.042-.03-.063-.078-.063-.14 0-.27.71-1.22 2.127-2.848 1.42-1.627 3.42-3.775 6.008-6.445l4.6-.313-6.352 9.98c-1.357 2.15-2.217 3.588-2.58 4.318-.367.73-.55 1.304-.55 1.72 0 .314.11.596.33.847.22.248.474.373.765.373.793 0 1.763-.422 2.91-1.267 1.148-.844 2.68-2.29 4.6-4.333.354-.396.813-.907 1.377-1.533.834-.94 1.355-1.408 1.564-1.408.104 0 .193.03.267.094.072.062.11.136.11.22 0 .187-.18.5-.534.937-.355.44-1.158 1.305-2.41 2.598-2.148 2.19-3.775 3.666-4.88 4.427-1.106.763-2.086 1.143-2.94 1.143-1.045 0-1.884-.365-2.52-1.096-.636-.73-.954-1.71-.954-2.94 0-1.627 1.48-4.672 4.442-9.137.334-.52.584-.917.752-1.188zm7.883-13.83c0-.69.277-1.34.83-1.956.553-.615 1.153-.923 1.8-.923.52 0 .938.173 1.25.517.313.344.47.788.47 1.33 0 .71-.26 1.372-.782 1.987-.52.615-1.105.923-1.752.923-.52 0-.953-.177-1.298-.532-.343-.355-.517-.803-.517-1.346z" fill="none" stroke="#263d96" stroke-width="1.7505"/><path d="M330.71 62.15c-1.168 1.167-2.383 2.466-3.645 3.894-1.262 1.43-2.007 2.143-2.236 2.143-.084 0-.148-.016-.19-.047-.04-.03-.062-.078-.062-.14 0-.44 1.246-1.94 3.74-4.506 2.49-2.566 4.27-4.65 5.333-6.258l2.786-4.16h-3.097l.53-.91H337l3.91-6.224 4.16-.313-4.097 6.537h7.352l-.5.908h-7.415l-9.574 15.3c-1.023 1.627-1.78 2.93-2.268 3.91-.492.98-.736 1.69-.736 2.128 0 .313.11.595.33.846.218.248.473.373.765.373.77 0 1.7-.396 2.784-1.188 1.086-.793 2.662-2.263 4.726-4.412.458-.46.99-1.043 1.596-1.752.708-.79 1.157-1.188 1.345-1.188.105 0 .193.03.266.094.073.062.11.136.11.22 0 .187-.178.5-.532.937-.355.44-1.157 1.305-2.408 2.598-2.15 2.19-3.776 3.666-4.882 4.427-1.106.763-2.086 1.143-2.94 1.143-1.043 0-1.883-.365-2.52-1.096-.636-.73-.953-1.71-.953-2.94 0-1.627 1.48-4.672 4.442-9.137.333-.52.583-.917.75-1.188" fill="#263d96"/><path d="M330.71 62.15c-1.168 1.167-2.383 2.466-3.645 3.894-1.262 1.43-2.007 2.143-2.236 2.143-.084 0-.148-.016-.19-.047-.04-.03-.062-.078-.062-.14 0-.44 1.246-1.94 3.74-4.506 2.49-2.566 4.27-4.65 5.333-6.258l2.786-4.16h-3.097l.53-.91H337l3.91-6.224 4.16-.313-4.097 6.537h7.352l-.5.908h-7.415l-9.574 15.3c-1.023 1.627-1.78 2.93-2.268 3.91-.492.98-.736 1.69-.736 2.128 0 .313.11.595.33.846.218.248.473.373.765.373.77 0 1.7-.396 2.784-1.188 1.086-.793 2.662-2.263 4.726-4.412.458-.46.99-1.043 1.596-1.752.708-.79 1.157-1.188 1.345-1.188.105 0 .193.03.266.094.073.062.11.136.11.22 0 .187-.178.5-.532.937-.355.44-1.157 1.305-2.408 2.598-2.15 2.19-3.776 3.666-4.882 4.427-1.106.763-2.086 1.143-2.94 1.143-1.043 0-1.883-.365-2.52-1.096-.636-.73-.953-1.71-.953-2.94 0-1.627 1.48-4.672 4.442-9.137.333-.52.583-.917.75-1.188z" fill="none" stroke="#263d96" stroke-width="1.7505"/><path d="M356.305 62.493l2.626-3.85 4.228-.25-7.042 11.076c-1.043 1.627-1.7 2.754-1.97 3.38-.274.625-.407 1.167-.407 1.626 0 .355.072.61.216.767.147.156.395.235.753.235.54 0 1.392-.454 2.548-1.362 1.16-.907 2.612-2.268 4.366-4.083.5-.5 1.078-1.116 1.733-1.846.658-.73 1.06-1.095 1.208-1.095.123 0 .217.02.28.063.063.042.095.104.095.188 0 .23-.242.636-.72 1.22-.48.584-1.22 1.376-2.22 2.378-2.253 2.316-3.92 3.823-4.99 4.52-1.076.7-2.084 1.05-3.023 1.05-.854 0-1.505-.272-1.953-.814-.45-.542-.673-1.334-.673-2.377 0-.272.02-.58.064-.924.042-.345.123-.85.25-1.518-1.46 1.856-2.874 3.26-4.24 4.208-1.367.95-2.644 1.424-3.834 1.424-1.146 0-2.048-.58-2.706-1.737-.657-1.158-.985-2.758-.985-4.802 0-.5.035-1 .11-1.5.072-.502.17-.99.295-1.472-.25.397-.49.705-.72.923-.23.22-.426.33-.594.33-.144 0-.244-.02-.295-.063-.053-.04-.078-.104-.078-.187 0-.167.27-.574.813-1.22.54-.647 1.272-1.44 2.19-2.38 2.003-2 4.01-3.55 6.023-4.645 2.013-1.095 3.852-1.642 5.522-1.642 1.022 0 1.842.27 2.458.813.613.543.92 1.262.92 2.16 0 .208-.02.426-.062.656-.04.23-.104.48-.185.75zM342.6 73.38c0 .606.136 1.086.407 1.44.27.355.646.532 1.126.532.71 0 1.59-.354 2.644-1.064 1.052-.708 2.153-1.7 3.3-2.972 1.732-1.898 3.07-3.75 4.022-5.554.948-1.804 1.42-3.363 1.42-4.677 0-.563-.202-1.038-.608-1.423-.406-.387-.904-.58-1.485-.58-1.043 0-2.18.454-3.413 1.36-1.23.91-2.45 2.187-3.66 3.834-1.167 1.648-2.086 3.296-2.754 4.944-.667 1.648-1 3.034-1 4.16" fill="#263d96"/><path d="M356.305 62.493l2.626-3.85 4.228-.25-7.042 11.076c-1.043 1.627-1.7 2.754-1.97 3.38-.274.625-.407 1.167-.407 1.626 0 .355.072.61.216.767.147.156.395.235.753.235.54 0 1.392-.454 2.548-1.362 1.16-.907 2.612-2.268 4.366-4.083.5-.5 1.078-1.116 1.733-1.846.658-.73 1.06-1.095 1.208-1.095.123 0 .217.02.28.063.063.042.095.104.095.188 0 .23-.242.636-.72 1.22-.48.584-1.22 1.376-2.22 2.378-2.253 2.316-3.92 3.823-4.99 4.52-1.076.7-2.084 1.05-3.023 1.05-.854 0-1.505-.272-1.953-.814-.45-.542-.673-1.334-.673-2.377 0-.272.02-.58.064-.924.042-.345.123-.85.25-1.518-1.46 1.856-2.874 3.26-4.24 4.208-1.367.95-2.644 1.424-3.834 1.424-1.146 0-2.048-.58-2.706-1.737-.657-1.158-.985-2.758-.985-4.802 0-.5.035-1 .11-1.5.072-.502.17-.99.295-1.472-.25.397-.49.705-.72.923-.23.22-.426.33-.594.33-.144 0-.244-.02-.295-.063-.053-.04-.078-.104-.078-.187 0-.167.27-.574.813-1.22.54-.647 1.272-1.44 2.19-2.38 2.003-2 4.01-3.55 6.023-4.645 2.013-1.095 3.852-1.642 5.522-1.642 1.022 0 1.842.27 2.458.813.613.543.92 1.262.92 2.16 0 .208-.02.426-.062.656-.04.23-.104.48-.185.75zM342.6 73.38c0 .606.136 1.086.407 1.44.27.355.646.532 1.126.532.71 0 1.59-.354 2.644-1.064 1.052-.708 2.153-1.7 3.3-2.972 1.732-1.898 3.07-3.75 4.022-5.554.948-1.804 1.42-3.363 1.42-4.677 0-.563-.202-1.038-.608-1.423-.406-.387-.904-.58-1.485-.58-1.043 0-2.18.454-3.413 1.36-1.23.91-2.45 2.187-3.66 3.834-1.167 1.648-2.086 3.296-2.754 4.944-.667 1.648-1 3.034-1 4.16z" fill="none" stroke="#263d96" stroke-width="1.7505"/><path d="M373.518 65.46c-5.802.85-11.082 3.737-11.082 3.737l1.87-1.87s16.17-10.5 21.58 0c5.413 10.502-29.763 14.238-36.85 15.398-7.084 1.16-27.183 3.092-34.398 3.092-7.215 0-71.893-1.29-79.752.515-3.986.915-9.997 3.005-17.008 6.314-6.814 3.215-14.59 7.6-21.258 11.982l.387-6.313-7.344 1.545s18.68-17.65 45.996-18.423c27.312-.774 99.98.9 111.574-1.418 11.596-2.32 37.107-4.253 35.304-12.37-.68-3.043-5.54-2.7-9.02-2.19" fill="#263d96"/><path d="M373.518 65.46c-5.802.85-11.082 3.737-11.082 3.737l1.87-1.87s16.17-10.5 21.58 0c5.413 10.502-29.763 14.238-36.85 15.398-7.084 1.16-27.183 3.092-34.398 3.092-7.215 0-71.893-1.29-79.752.515-3.986.915-9.997 3.005-17.008 6.314-6.814 3.215-14.59 7.6-21.258 11.982l.387-6.313-7.344 1.545s18.68-17.65 45.996-18.423c27.312-.774 99.98.9 111.574-1.418 11.596-2.32 37.107-4.253 35.304-12.37-.68-3.043-5.54-2.7-9.02-2.19z" fill="none" stroke="#263d96" stroke-width="1.7505"/><path d="M380.294 40.696c1.28 0 2.507.308 3.683.92 1.177.614 2.097 1.493 2.77 2.64.672 1.144 1.008 2.342 1.008 3.593 0 1.245-.33 2.432-.987 3.562-.66 1.13-1.58 2.01-2.756 2.642-1.18.632-2.42.948-3.718.948-1.3 0-2.535-.316-3.715-.948-1.178-.632-2.1-1.513-2.757-2.642-.658-1.13-.987-2.317-.987-3.563 0-1.252.336-2.45 1.008-3.595.67-1.146 1.593-2.025 2.77-2.64 1.176-.61 2.402-.92 3.68-.92zm.01 1.4c-1.026 0-2.01.248-2.952.74-.942.49-1.684 1.198-2.223 2.12-.544.92-.817 1.885-.817 2.893 0 1.002.266 1.957.795 2.866.53.91 1.267 1.618 2.216 2.13.95.51 1.94.764 2.98.764 1.047 0 2.04-.255 2.987-.765.946-.51 1.685-1.22 2.217-2.13.532-.908.8-1.863.8-2.866 0-1.01-.275-1.974-.817-2.895-.543-.92-1.285-1.628-2.23-2.12-.943-.49-1.93-.738-2.956-.738zm-3.38 9.582v-7.592h1.608c1.506 0 2.35.006 2.532.02.532.042.945.144 1.243.303.294.157.543.4.74.727.198.327.296.69.296 1.088 0 .547-.185 1.016-.56 1.405-.375.39-.896.63-1.572.724.24.087.425.182.558.284.126.103.308.298.532.584.06.075.255.383.585.925l.935 1.53h-1.986l-.662-1.232c-.448-.828-.82-1.35-1.11-1.564-.294-.214-.66-.32-1.11-.32h-.42v3.118h-1.607zm1.608-4.314h.652c.928 0 1.505-.034 1.73-.103.223-.067.402-.187.532-.36.13-.17.192-.364.192-.582 0-.212-.063-.4-.19-.565-.125-.165-.307-.283-.538-.355-.235-.07-.81-.107-1.726-.107h-.652v2.074" fill="#263d96"/><path d="M380.294 40.696c1.28 0 2.507.308 3.683.92 1.177.614 2.097 1.493 2.77 2.64.672 1.144 1.008 2.342 1.008 3.593 0 1.245-.33 2.432-.987 3.562-.66 1.13-1.58 2.01-2.756 2.642-1.18.632-2.42.948-3.718.948-1.3 0-2.535-.316-3.715-.948-1.178-.632-2.1-1.513-2.757-2.642-.658-1.13-.987-2.317-.987-3.563 0-1.252.336-2.45 1.008-3.595.67-1.146 1.593-2.025 2.77-2.64 1.176-.61 2.402-.92 3.68-.92zm.01 1.4c-1.026 0-2.01.248-2.952.74-.942.49-1.684 1.198-2.223 2.12-.544.92-.817 1.885-.817 2.893 0 1.002.266 1.957.795 2.866.53.91 1.267 1.618 2.216 2.13.95.51 1.94.764 2.98.764 1.047 0 2.04-.255 2.987-.765.946-.51 1.685-1.22 2.217-2.13.532-.908.8-1.863.8-2.866 0-1.01-.275-1.974-.817-2.895-.543-.92-1.285-1.628-2.23-2.12-.943-.49-1.93-.738-2.956-.738zm-3.38 9.582v-7.592h1.608c1.506 0 2.35.006 2.532.02.532.042.945.144 1.243.303.294.157.543.4.74.727.198.327.296.69.296 1.088 0 .547-.185 1.016-.56 1.405-.375.39-.896.63-1.572.724.24.087.425.182.558.284.126.103.308.298.532.584.06.075.255.383.585.925l.935 1.53h-1.986l-.662-1.232c-.448-.828-.82-1.35-1.11-1.564-.294-.214-.66-.32-1.11-.32h-.42v3.118h-1.607zm1.608-4.314h.652c.928 0 1.505-.034 1.73-.103.223-.067.402-.187.532-.36.13-.17.192-.364.192-.582 0-.212-.063-.4-.19-.565-.125-.165-.307-.283-.538-.355-.235-.07-.81-.107-1.726-.107h-.652v2.074z" fill="none" stroke="#263d96" stroke-width=".35009999999999997"/></svg>