<svg xmlns="http://www.w3.org/2000/svg" width="235.188" height="222.72"><path d="M.652 85.19v136.87h233.79l.094-136.767-29.818.196V61.873s-13.94.085-18.584.1C182.64 17.677 138.672.47 116.786.644c-20.343 0-67.26 16.97-68.922 61.178-4.428-.012-15.563-.09-15.563-.09l-.087 23.556-31.56-.1z"/><path d="M.652 85.19v136.87h233.79l.094-136.767-29.818.196V61.873s-13.94.085-18.584.1C182.64 17.677 138.672.47 116.786.644c-20.343 0-67.26 16.97-68.922 61.178-4.428-.012-15.563-.09-15.563-.09l-.087 23.556-31.56-.1z" fill="none" stroke="#fff" stroke-width="1.296"/><path d="M5.334 88.153v128.73h224.43l.088-128.63-28.622.183V66.22s-13.387.08-17.843.096c-3.35-41.67-37.768-60.505-66.565-60.505-27.627 0-64.57 18.778-66.168 60.363-4.246-.015-14.936-.084-14.936-.084l-.085 22.16-30.3-.097z" fill="#7ed0f4"/><path d="M5.334 88.153v128.73h224.43l.088-128.63-28.622.183V66.22s-13.387.08-17.843.096c-3.35-41.67-37.768-60.505-66.565-60.505-27.627 0-64.57 18.778-66.168 60.363-4.246-.015-14.936-.084-14.936-.084l-.085 22.16-30.3-.097z" fill="none" stroke="#fff" stroke-width="1.296"/><path d="M13.65 92.015V211.22h207.802l.086-119.115-26.502.17V71.708s-12.393.074-16.522.084c-3.108-38.58-31.84-60.32-60.918-60.31-31.465.006-60.504 21.675-61.982 60.18-3.932-.015-13.83-.077-13.83-.077l-.076 20.515-28.057-.087z" fill="#fff"/><path d="M20.714 97.803v106.295h193.762V97.803h-26.138v-20.21h-15.333c-3.877-54.498-43.824-58.99-57.06-58.99-14.21 0-51.31 9.36-52.715 58.99H47.605l-.06 20.21h-26.83z" fill="#7ed0f4"/><path d="M20.714 97.803v106.295h193.762V97.803h-26.138v-20.21h-15.333c-3.877-54.498-43.824-58.99-57.06-58.99-14.21 0-51.31 9.36-52.715 58.99H47.605l-.06 20.21h-26.83z" fill="none" stroke="#fff" stroke-width="1.296"/><path d="M117.595 67.64c2.208 0 4.103 1.887 4.103 4.1 0 2.21-1.895 4.102-4.103 4.102-2.21 0-4.102-1.892-4.102-4.1 0-2.215 1.893-4.103 4.102-4.103" fill-rule="evenodd"/><path d="M117.595 64.8c3.79 0 6.94 3.156 6.94 6.94 0 3.784-3.15 6.938-6.94 6.938-3.786 0-6.937-3.154-6.937-6.937 0-3.784 3.15-6.94 6.937-6.94m0-5.048c6.626 0 11.988 5.36 11.988 11.99 0 6.625-5.362 11.984-11.988 11.984-6.626 0-11.986-5.36-11.986-11.985 0-6.627 5.36-11.988 11.985-11.988" fill-rule="evenodd"/><path d="M116.964 43.664c15.46 0 27.76 12.303 27.76 27.444 0 15.458-12.3 27.765-27.76 27.765-15.142 0-27.442-12.307-27.442-27.765 0-15.14 12.3-27.444 27.442-27.444m2.524-7.258c8.2.632 15.775 4.103 21.454 9.462l3.466-3.15c0-.95.636-1.894 1.264-2.844 1.576-1.575 3.786-1.89 4.733-.942.95.942.632 3.15-.947 4.732-.943.63-1.896 1.263-2.526 1.574l-3.467 3.155c5.05 5.678 8.2 13.254 8.517 21.454h5.047c.632-.32 1.89-.633 2.842-.633 2.205 0 4.096 1.262 4.096 2.527 0 1.26-1.89 2.522-4.096 2.522-.953 0-2.21-.313-2.843-.63h-5.048c-.627 7.887-3.788 15.142-8.835 20.82l3.785 3.785c.63.317 1.583.947 2.526 1.58 1.58 1.58 1.897 3.785.947 4.732-.947.944-3.157.627-4.733-.948-.628-.95-1.264-1.896-1.573-2.843l-3.793-3.782c-5.36 5.363-12.932 8.516-20.82 9.148v5.046c.316.632.633 1.894.633 2.84 0 2.212-1.263 4.102-2.525 4.102-1.26 0-2.525-1.89-2.525-4.102 0-.946.317-2.208.63-2.84v-5.046c-8.202-.315-15.767-3.473-21.45-8.52l-3.154 3.153c-.317.946-.945 1.893-1.574 2.842-1.58 1.575-3.788 1.892-4.74.947-.94-.948-.624-3.154.952-4.732.948-.634 1.894-1.264 2.525-1.58l3.468-3.152c-5.365-5.68-8.835-13.25-9.466-21.453h-4.1c-.633.316-1.895.63-2.84.63-2.208 0-4.1-1.264-4.1-2.522 0-1.264 1.892-2.526 4.1-2.526.945 0 2.207.314 2.84.633h4.1c.32-8.52 3.472-16.09 8.834-22.085l-2.837-2.524c-.632-.31-1.578-.944-2.526-1.574-1.576-1.583-1.892-3.79-.95-4.732.95-.95 3.16-.633 4.738.942.63.95 1.257 1.894 1.257 2.844l2.838 2.52c5.998-5.364 13.57-8.515 22.082-8.832v-4.102c-.313-.63-.63-1.892-.63-2.838 0-2.207 1.264-4.1 2.525-4.1 1.262 0 2.525 1.893 2.525 4.1 0 .946-.317 2.208-.632 2.838v4.102z" fill-rule="evenodd"/><path d="M115.7 48.08h.95c-.315 1.577-1.58 10.408.636 10.408 2.202 0 .94-8.518.624-10.41h.948v-2.21H115.7v2.21zM115.7 94.77h.95c-.315-1.575-1.58-10.41.636-10.41 2.202 0 .94 8.517.624 10.41h.948v2.21H115.7v-2.21zM93.937 72.998v-.945c1.574.315 10.407 1.58 10.407-.627 0-2.213-8.518-.95-10.407-.634v-.946h-2.21v3.152h2.21zM140.624 72.998v-.945c-1.576.315-10.407 1.58-10.407-.627 0-2.213 8.513-.95 10.407-.634v-.946h2.208v3.152h-2.208zM99.616 55.967l.946-.633c.944 1.264 5.994 8.52 7.57 6.94 1.578-1.575-5.36-6.625-6.942-7.572l.632-.945-1.575-1.578-2.21 2.212 1.58 1.575zM132.423 89.094l.946-.95c-1.264-.945-8.517-5.995-6.942-7.572 1.573-1.578 6.623 5.363 7.57 6.938l.948-.944 1.578 1.894-2.208 2.21-1.893-1.576zM134.946 55.967l-.946-.633c-.95 1.264-6 8.52-7.573 6.94-1.575-1.575 5.365-6.625 6.943-7.572l-.946-.945 1.892-1.578 2.206 2.212-1.576 1.575zM101.822 89.094l-.632-.95c1.265-.945 8.52-5.995 6.942-7.572-1.577-1.578-6.626 5.363-7.57 6.938l-.946-.944-1.58 1.894 2.21 2.21 1.576-1.576z" fill-rule="evenodd"/><path d="M78.666 157.373c0-.733-.775-1.38-2.322-1.94-1.55-.57-3.33-.848-5.34-.848-2.756 0-5.27.598-7.543 1.8 4.974 1.617 9.163 2.43 12.565 2.43 1.763 0 2.64-.485 2.64-1.442m-7.94 18.222c0-1.352-.53-2.47-1.607-3.353-1.072-.882-2.423-1.328-4.057-1.328-4.04 0-7.99 1.678-11.845 5.03-3.854 3.355-5.782 6.774-5.782 10.27 0 1.01.31 2.04.93 3.093 1.093.21 2.1.31 3.02.31 4.438 0 8.766-1.535 13-4.607 4.226-3.07 6.343-6.206 6.343-9.415m8.534-18.165c0 1.254-1.156 1.887-3.466 1.887-1.82 0-6.148-.845-12.98-2.535-3.193 1.82-4.79 4.11-4.79 6.865 0 1.333.46 2.257 1.38 2.766 1.332-.11 2.34-.17 3.015-.17 1.95 0 2.93.235 2.93.702 0 .3-.52.453-1.552.453-1.32 0-2.748-.19-4.29-.56-2.082.297-4.51 1.105-7.27 2.416-7.032 3.363-10.55 7.718-10.55 13.068 0 3.55 1.915 5.8 5.745 6.758-.69-1.143-1.04-2.463-1.04-3.97 0-3.695 1.893-7.105 5.667-10.226 3.778-3.11 7.91-4.666 12.405-4.666 2.07 0 3.715.506 4.936 1.514 1.22 1.015 1.833 2.377 1.833 4.087 0 3.658-2.012 6.958-6.034 9.897-4.025 2.938-8.554 4.405-13.594 4.405-1.013 0-1.963-.053-2.848-.163 1.806 2.418 4.486 3.624 8.045 3.624 2.202 0 3.998-.322 5.39-.98l.336-.06c.115.04.17.112.17.225 0 .265-.7.54-2.09.835-1.386.29-2.66.43-3.807.43-3.933 0-6.93-1.416-9.003-4.25-2.86-.64-5.1-1.724-6.72-3.254-1.624-1.53-2.43-3.305-2.43-5.332 0-2.723 1.125-5.273 3.376-7.645 2.253-2.38 5.26-4.173 9.014-5.397 2.273-.748 4.873-1.295 7.8-1.635-2.08-.88-3.125-2.276-3.125-4.187 0-2.463 1.52-4.52 4.56-6.174-4.354-1.054-7.95-1.575-10.78-1.575-5.562 0-10.296 1.386-14.212 4.165-3.915 2.78-5.873 6.14-5.873 10.085 0 1.763.514 3.273 1.55 4.538 1.035 1.253 2.27 1.88 3.718 1.88.996 0 1.492-.157 1.492-.478 0-.17-.176-.225-.532-.17-1 0-1.498-.46-1.498-1.38 0-.52.22-.97.665-1.354.44-.37.97-.56 1.59-.56 1.203 0 1.804.58 1.804 1.746 0 .773-.345 1.425-1.03 1.96-.687.534-1.517.803-2.492.803-1.748 0-3.233-.786-4.46-2.356-1.235-1.563-1.85-3.46-1.85-5.67 0-3.323 1.443-6.376 4.337-9.153 3.44-3.31 8.265-4.955 14.478-4.955 3.453 0 8.055.7 13.802 2.11 2.59-1.26 5.6-1.884 9.04-1.884 2.548 0 4.728.34 6.53 1.025 1.804.685 2.705 1.515 2.705 2.495"/><path d="M78.666 157.373c0-.733-.775-1.38-2.322-1.94-1.55-.57-3.33-.848-5.34-.848-2.756 0-5.27.598-7.543 1.8 4.974 1.617 9.163 2.43 12.565 2.43 1.763 0 2.64-.485 2.64-1.442zm-7.94 18.222c0-1.352-.532-2.47-1.608-3.354-1.072-.88-2.423-1.326-4.057-1.326-4.04 0-7.99 1.678-11.845 5.03-3.854 3.355-5.782 6.774-5.782 10.27 0 1.01.31 2.04.93 3.093 1.093.21 2.1.31 3.02.31 4.438 0 8.766-1.535 13-4.607 4.226-3.07 6.343-6.206 6.343-9.415zm8.534-18.165c0 1.254-1.156 1.886-3.466 1.886-1.82 0-6.148-.845-12.98-2.535-3.193 1.823-4.79 4.11-4.79 6.866 0 1.334.46 2.258 1.38 2.767 1.332-.11 2.34-.17 3.015-.17 1.95 0 2.93.235 2.93.702 0 .3-.52.453-1.552.453-1.32 0-2.748-.19-4.29-.56-2.082.297-4.51 1.105-7.27 2.416-7.032 3.362-10.55 7.718-10.55 13.068 0 3.55 1.915 5.8 5.745 6.758-.69-1.144-1.04-2.464-1.04-3.97 0-3.695 1.893-7.105 5.667-10.226 3.778-3.11 7.91-4.666 12.405-4.666 2.07 0 3.715.506 4.936 1.514 1.22 1.014 1.833 2.377 1.833 4.087 0 3.658-2.012 6.958-6.034 9.896-4.025 2.94-8.554 4.405-13.594 4.405-1.013 0-1.963-.05-2.848-.16 1.806 2.418 4.486 3.624 8.045 3.624 2.202 0 3.998-.323 5.39-.98l.336-.06c.115.04.17.112.17.225 0 .265-.7.54-2.09.835-1.386.29-2.66.43-3.807.43-3.933 0-6.93-1.416-9.003-4.25-2.86-.64-5.1-1.724-6.72-3.254-1.624-1.53-2.43-3.305-2.43-5.332 0-2.723 1.125-5.273 3.376-7.645 2.253-2.38 5.26-4.173 9.014-5.397 2.273-.748 4.873-1.295 7.8-1.635-2.08-.88-3.125-2.276-3.125-4.187 0-2.463 1.52-4.52 4.56-6.174-4.354-1.054-7.95-1.575-10.78-1.575-5.562 0-10.296 1.386-14.212 4.165-3.915 2.78-5.873 6.14-5.873 10.085 0 1.763.514 3.273 1.55 4.538 1.035 1.253 2.27 1.88 3.718 1.88.996 0 1.492-.157 1.492-.478 0-.17-.176-.225-.532-.17-1 0-1.498-.46-1.498-1.38 0-.52.22-.97.665-1.354.44-.37.97-.56 1.59-.56 1.203 0 1.804.58 1.804 1.746 0 .773-.345 1.425-1.03 1.96-.687.534-1.517.803-2.492.803-1.748 0-3.233-.786-4.46-2.356-1.235-1.563-1.85-3.46-1.85-5.67 0-3.323 1.443-6.376 4.337-9.153 3.44-3.31 8.265-4.955 14.478-4.955 3.453 0 8.055.7 13.802 2.11 2.59-1.26 5.6-1.884 9.04-1.884 2.548 0 4.728.34 6.53 1.025 1.804.685 2.705 1.515 2.705 2.495z" fill="none" stroke="#000" stroke-width="1.296"/><path d="M87.964 160.187c-7.888 13.125-12.483 20.844-13.788 23.147-1.304 2.314-1.957 3.845-1.957 4.595 0 .842.353 1.267 1.07 1.267 1.578 0 4.478-2.983 8.683-8.95.1-.18.21-.276.34-.276.08.022.115.076.115.17 0 .108-.097.26-.28.453l-1.214 1.663c-3.552 4.907-6.175 7.36-7.868 7.36-.808 0-1.474-.304-1.987-.915-.522-.608-.777-1.384-.777-2.32 0-1.03.24-2.032.72-3.003.476-.964 2.106-3.756 4.883-8.376 3.397-5.647 6.262-10.548 8.59-14.7.566.147 1.06.227 1.493.227.717 0 1.37-.115 1.974-.34"/><path d="M87.964 160.187c-7.888 13.125-12.483 20.844-13.788 23.147-1.304 2.314-1.957 3.845-1.957 4.595 0 .842.353 1.267 1.07 1.267 1.578 0 4.478-2.983 8.683-8.95.1-.18.21-.276.34-.276.08.022.115.076.115.17 0 .108-.097.26-.28.453l-1.214 1.663c-3.552 4.907-6.175 7.36-7.868 7.36-.808 0-1.474-.304-1.987-.915-.522-.608-.777-1.384-.777-2.32 0-1.03.24-2.032.72-3.003.476-.964 2.106-3.756 4.883-8.376 3.397-5.647 6.262-10.548 8.59-14.7.566.147 1.06.227 1.493.227.717 0 1.37-.115 1.974-.34z" fill="none" stroke="#000" stroke-width="1.296"/><path d="M158.2 154.47c0-.547-.536-1.006-1.592-1.378-1.064-.375-2.4-.565-4.017-.565-4.013 0-7.908.847-11.683 2.536.467.072 1.714.3 3.742.676 3.002.58 5.67.87 8 .87 1.52 0 2.823-.21 3.916-.636 1.09-.415 1.635-.925 1.635-1.504m-39.344 4.172c0-1.51-.344-2.89-1.043-4.172-4.207.697-8.12 2.865-11.744 6.507-3.623 3.643-5.436 7.226-5.436 10.753 0 1.355.417 2.494 1.254 3.415.836.913 1.86 1.38 3.084 1.38 3.172 0 6.28-1.962 9.32-5.878 3.04-3.908 4.564-7.918 4.564-12.005m39.797-4.227c0 1.017-1.02 1.873-3.047 2.575-2.023.705-4.508 1.058-7.44 1.058-2.942 0-6.602-.404-10.977-1.213-2.31 1.2-4.422 2.984-6.34 5.338-1.914 2.357-3.972 5.697-6.166 10.012-2.198 4.315-3.806 7.192-4.83 8.632-1.02 1.437-2.423 2.832-4.21 4.182-4.71 3.493-9.602 5.237-14.673 5.237-2.7 0-4.912-.568-6.63-1.718-1.72-1.148-2.574-2.63-2.574-4.456 0-.915.268-1.7.813-2.36.543-.657 1.19-.986 1.942-.986 1.22 0 1.832.637 1.832 1.914 0 .6-.188 1.117-.562 1.553-.38.43-.836.644-1.388.644-.878 0-1.316-.432-1.316-1.298 0-.45-.08-.674-.226-.674-.32 0-.483.46-.483 1.382 0 1.518.786 2.808 2.352 3.854 1.57 1.054 3.495 1.58 5.79 1.58 5.032 0 9.547-2.274 13.547-6.816 1.877-2.124 4.298-5.626 7.26-10.505 4.847-7.923 9.904-13.13 15.184-15.635-1.015-.158-2.538-.47-4.563-.923-4.767-1.032-8.42-1.553-10.96-1.553-.263 0-1.046.042-2.36.116.884 1.65 1.322 3.54 1.322 5.657 0 4.137-1.57 8.01-4.696 11.634-3.144 3.62-6.492 5.432-10.06 5.432-1.482 0-2.684-.49-3.617-1.475-.934-.983-1.397-2.257-1.397-3.815 0-2.142.81-4.507 2.44-7.113 1.62-2.6 3.724-4.875 6.305-6.818 2.583-1.944 5.415-3.295 8.488-4.07-1.48-2.007-3.592-3.01-6.33-3.01-2.308 0-4.637.67-6.992 2.018-2.353 1.343-4.423 3.17-6.21 5.483-.257.36-.438.54-.532.54-.11 0-.188-.06-.226-.168 0-.322.77-1.255 2.31-2.798 3.696-3.687 7.565-5.53 11.596-5.53 3.134 0 5.516 1.102 7.15 3.298 2.265-.657 4.877-.983 7.827-.983 1.517 0 2.908.092 4.168.28 1.33.207 4.595.843 9.8 1.915 4.34-1.9 8.503-2.844 12.5-2.844 4.115 0 6.175.807 6.175 2.422"/><path d="M158.2 154.47c0-.547-.536-1.006-1.592-1.378-1.064-.375-2.4-.565-4.017-.565-4.013 0-7.908.847-11.683 2.536.467.072 1.714.3 3.742.676 3.002.58 5.67.87 8 .87 1.52 0 2.823-.21 3.916-.636 1.09-.415 1.635-.925 1.635-1.504zm-39.344 4.172c0-1.51-.344-2.89-1.043-4.172-4.207.697-8.12 2.865-11.744 6.507-3.623 3.643-5.436 7.226-5.436 10.753 0 1.355.417 2.494 1.254 3.415.836.913 1.86 1.38 3.084 1.38 3.172 0 6.28-1.962 9.32-5.878 3.04-3.908 4.564-7.918 4.564-12.005zm39.797-4.227c0 1.017-1.02 1.873-3.047 2.575-2.023.705-4.508 1.058-7.44 1.058-2.942 0-6.602-.404-10.977-1.213-2.31 1.2-4.422 2.984-6.34 5.338-1.914 2.357-3.972 5.697-6.166 10.012-2.198 4.315-3.806 7.192-4.83 8.632-1.02 1.437-2.423 2.832-4.21 4.182-4.71 3.493-9.602 5.237-14.673 5.237-2.7 0-4.912-.568-6.63-1.718-1.72-1.148-2.574-2.63-2.574-4.456 0-.915.268-1.7.813-2.36.543-.657 1.19-.986 1.942-.986 1.22 0 1.832.637 1.832 1.914 0 .6-.188 1.117-.562 1.553-.38.43-.836.644-1.388.644-.878 0-1.316-.432-1.316-1.298 0-.45-.08-.674-.226-.674-.32 0-.483.46-.483 1.382 0 1.518.786 2.808 2.352 3.854 1.57 1.054 3.495 1.58 5.79 1.58 5.032 0 9.547-2.274 13.547-6.816 1.877-2.124 4.298-5.626 7.26-10.505 4.847-7.923 9.904-13.13 15.184-15.635-1.015-.158-2.538-.47-4.563-.923-4.767-1.032-8.42-1.553-10.96-1.553-.263 0-1.046.042-2.36.116.884 1.65 1.322 3.54 1.322 5.657 0 4.137-1.57 8.01-4.696 11.634-3.144 3.62-6.492 5.43-10.06 5.43-1.482 0-2.684-.487-3.617-1.474-.934-.982-1.397-2.256-1.397-3.814 0-2.142.81-4.507 2.44-7.113 1.62-2.6 3.724-4.875 6.305-6.82 2.583-1.942 5.415-3.294 8.488-4.067-1.48-2.008-3.592-3.01-6.33-3.01-2.308 0-4.637.67-6.992 2.017-2.353 1.343-4.423 3.17-6.21 5.483-.257.36-.438.54-.532.54-.11 0-.188-.06-.226-.168 0-.322.77-1.255 2.31-2.798 3.696-3.687 7.565-5.53 11.596-5.53 3.134 0 5.516 1.102 7.15 3.298 2.265-.657 4.877-.983 7.827-.983 1.517 0 2.908.092 4.168.28 1.33.207 4.595.843 9.8 1.915 4.34-1.9 8.503-2.844 12.5-2.844 4.115 0 6.175.807 6.175 2.422z" fill="none" stroke="#000" stroke-width="1.296"/><path d="M135.7 168.496c0 .66-.28 1.27-.835 1.844-.55.573-1.158.857-1.815.857-.844 0-1.265-.42-1.265-1.27 0-.616.285-1.21.867-1.784.588-.572 1.196-.856 1.835-.856.808 0 1.213.4 1.213 1.21m.4 11.643c-.014.06-.105.207-.277.453l-1.208 1.663c-3.537 4.907-6.235 7.36-8.097 7.36-.887 0-1.618-.31-2.212-.94-.59-.63-.89-1.414-.89-2.353 0-1.087.65-2.742 1.942-4.958l4.398-7.465c.58.133 1.037.203 1.376.203.508 0 1.223-.07 2.146-.203l-6.4 10.508c-.913 1.52-1.376 2.694-1.376 3.522 0 .84.444 1.267 1.328 1.267 1.672 0 4.613-2.982 8.823-8.95.097-.18.19-.277.282-.277.115 0 .166.058.166.17"/><path d="M135.7 168.496c0 .66-.28 1.27-.835 1.844-.55.573-1.158.857-1.815.857-.844 0-1.265-.42-1.265-1.27 0-.616.285-1.21.867-1.784.588-.572 1.196-.856 1.835-.856.808 0 1.213.4 1.213 1.21zm.4 11.644c-.014.06-.105.207-.277.453l-1.208 1.663c-3.537 4.907-6.235 7.36-8.097 7.36-.887 0-1.618-.31-2.212-.94-.59-.63-.89-1.414-.89-2.353 0-1.087.65-2.742 1.942-4.958l4.398-7.465c.58.133 1.037.203 1.376.203.508 0 1.223-.07 2.146-.203l-6.4 10.508c-.913 1.52-1.376 2.694-1.376 3.522 0 .84.444 1.267 1.328 1.267 1.672 0 4.613-2.982 8.823-8.95.097-.18.19-.277.282-.277.115 0 .166.058.166.17z" fill="none" stroke="#000" stroke-width="1.296"/><path d="M167.477 180.14c-.016.06-.11.207-.28.454l-1.213 1.662c-3.53 4.908-6.146 7.36-7.835 7.36-.888 0-1.612-.325-2.177-.987-.56-.656-.845-1.5-.845-2.53 0-1.052.356-2.19 1.068-3.41.132-.23.818-1.23 2.055-3.014 1.58-2.252 2.37-3.727 2.37-4.422 0-.77-.386-1.15-1.154-1.15-2.48 0-6.73 5.085-12.76 15.257-.375-.07-.89-.106-1.55-.106-.77 0-1.424.037-1.97.107l4-6.33c2.61-4.174 3.91-6.723 3.91-7.66 0-.845-.34-1.266-1.037-1.266-1.032 0-2.724 1.48-5.07 4.45-2.342 2.962-4.677 6.562-6.984 10.807-.435-.07-.984-.106-1.663-.106-.73 0-1.37.037-1.915.107l4.028-6.33c2.777-4.36 4.165-7.05 4.165-8.084 0-.566-.21-.842-.648-.842-.923 0-2.823 2.007-5.725 6.04-.19.255-.34.39-.453.39-.077-.017-.112-.072-.112-.17 0-.164.862-1.333 2.595-3.51 1.694-2.118 3-3.177 3.922-3.177.602 0 1.114.29 1.55.86.432.573.652 1.252.652 2.04 0 1.09-.56 2.605-1.664 4.53 3.38-4.953 5.894-7.43 7.545-7.43.794 0 1.435.323 1.94.958.513.635.765 1.434.765 2.393 0 1.07-.497 2.433-1.494 4.08 3.565-4.954 6.243-7.43 8.024-7.43.81 0 1.49.345 2.044 1.04.556.692.834 1.545.834 2.535 0 1.168-.462 2.525-1.382 4.082-.02.02-.827 1.226-2.423 3.604-.913 1.353-1.373 2.39-1.373 3.098 0 .768.382 1.158 1.15 1.158 1.47 0 3.892-2.37 7.28-7.105l.87-1.22.51-.62c.095-.185.187-.28.284-.28.11 0 .167.06.167.17"/><path d="M167.477 180.14c-.016.06-.11.207-.28.454l-1.213 1.662c-3.53 4.908-6.146 7.36-7.835 7.36-.888 0-1.612-.325-2.177-.987-.56-.656-.845-1.5-.845-2.53 0-1.052.356-2.19 1.068-3.41.132-.23.818-1.23 2.055-3.014 1.58-2.252 2.37-3.727 2.37-4.422 0-.77-.386-1.15-1.154-1.15-2.48 0-6.73 5.085-12.76 15.257-.375-.07-.89-.106-1.55-.106-.77 0-1.424.037-1.97.107l4-6.33c2.61-4.174 3.91-6.723 3.91-7.66 0-.845-.34-1.266-1.037-1.266-1.032 0-2.724 1.48-5.07 4.45-2.342 2.962-4.677 6.562-6.984 10.807-.435-.07-.984-.106-1.663-.106-.73 0-1.37.037-1.915.107l4.028-6.33c2.777-4.36 4.165-7.05 4.165-8.084 0-.566-.21-.842-.648-.842-.923 0-2.823 2.007-5.725 6.04-.19.255-.34.39-.453.39-.077-.017-.112-.072-.112-.17 0-.164.862-1.333 2.595-3.51 1.694-2.118 3-3.177 3.922-3.177.602 0 1.114.29 1.55.86.432.573.652 1.252.652 2.04 0 1.09-.56 2.605-1.664 4.53 3.38-4.953 5.894-7.43 7.545-7.43.794 0 1.435.323 1.94.958.513.635.765 1.434.765 2.393 0 1.07-.497 2.433-1.494 4.08 3.565-4.954 6.243-7.43 8.024-7.43.81 0 1.49.345 2.044 1.04.556.692.834 1.545.834 2.535 0 1.168-.462 2.525-1.382 4.082-.02.02-.827 1.226-2.423 3.604-.913 1.353-1.373 2.39-1.373 3.098 0 .768.382 1.158 1.15 1.158 1.47 0 3.892-2.37 7.28-7.105l.87-1.22.51-.62c.095-.185.187-.28.284-.28.11 0 .167.06.167.17z" fill="none" stroke="#000" stroke-width="1.296"/><path d="M188.925 165.17c-1.825 1.433-4.15 2.74-6.986 3.926-2.182.94-3.425 1.415-3.746 1.415-.075 0-.133-.023-.17-.057 0-.06.11-.14.34-.25 4.385-2.092 7.516-4.364 9.39-6.807l1.17 1.775zm-9.296 11.153c0-1.52-.69-2.28-2.06-2.28-1.7 0-3.79 1.63-6.246 4.9-2.46 3.268-3.69 6.014-3.69 8.246 0 1.302.615 1.947 1.86 1.947 2.03 0 4.244-1.67 6.644-5.01-.544-.604-.814-1.224-.814-1.86 0-.92.364-1.868 1.095-2.84.734-.985 1.443-1.47 2.136-1.47.3 0 .51.19.625.57.298-.66.45-1.394.45-2.204m4.584 3.79c0 .298-.56 1-1.673 2.104-1.646 1.647-3.17 2.474-4.562 2.474-.582 0-1.102-.114-1.55-.336-2.482 3.508-4.81 5.263-6.985 5.263-1.13 0-2.093-.465-2.89-1.393-.805-.928-1.2-2.043-1.2-3.342 0-2.89 1.893-5.678 5.686-8.356 2.668-1.9 4.86-2.85 6.593-2.85 1.616 0 2.42.866 2.42 2.59 0 2.16-1.134 4.765-3.41 7.797.378.23.798.346 1.27.346.84 0 1.83-.396 2.96-1.18 1.132-.787 2.055-1.733 2.768-2.834.208-.262.36-.397.453-.397.075 0 .12.04.12.114"/><path d="M188.925 165.17c-1.825 1.433-4.15 2.74-6.986 3.926-2.182.94-3.425 1.415-3.746 1.415-.075 0-.133-.023-.17-.057 0-.06.11-.14.34-.25 4.385-2.092 7.516-4.364 9.39-6.807l1.17 1.775zm-9.296 11.153c0-1.52-.69-2.28-2.06-2.28-1.7 0-3.79 1.63-6.246 4.9-2.46 3.268-3.69 6.014-3.69 8.246 0 1.302.615 1.947 1.86 1.947 2.03 0 4.244-1.67 6.644-5.01-.544-.604-.814-1.224-.814-1.86 0-.92.364-1.868 1.095-2.84.734-.985 1.443-1.47 2.136-1.47.3 0 .51.19.625.57.298-.66.45-1.394.45-2.204zm4.584 3.79c0 .298-.56 1-1.673 2.104-1.646 1.647-3.17 2.474-4.562 2.474-.582 0-1.102-.114-1.55-.336-2.482 3.508-4.81 5.263-6.985 5.263-1.13 0-2.093-.465-2.89-1.393-.805-.928-1.2-2.043-1.2-3.342 0-2.89 1.893-5.678 5.686-8.356 2.668-1.9 4.86-2.85 6.593-2.85 1.616 0 2.42.866 2.42 2.59 0 2.16-1.134 4.765-3.41 7.797.378.23.798.346 1.27.346.84 0 1.83-.396 2.96-1.18 1.132-.787 2.055-1.733 2.768-2.834.208-.262.36-.397.453-.397.075 0 .12.04.12.114z" fill="none" stroke="#000" stroke-width="1.296"/><path d="M206.82 180.14c0 .395-1.36 2.224-4.083 5.47-2.237 2.667-4.002 4.006-5.275 4.006-.848 0-1.558-.325-2.132-.987-.57-.656-.86-1.46-.86-2.416 0-.852.174-1.63.523-2.357.35-.72 1.254-2.153 2.717-4.29 1.517-2.255 2.278-3.695 2.278-4.313 0-.77-.4-1.15-1.21-1.15-2.74 0-6.964 5.085-12.673 15.257-.918-.07-1.473-.106-1.662-.106-.655 0-1.278.037-1.856.107l4.39-6.953c2.498-3.98 3.753-6.466 3.753-7.46 0-.567-.238-.843-.708-.843-.96 0-2.853 2.017-5.673 6.063-.17.244-.306.375-.397.395-.094 0-.153-.055-.173-.167.02-.098.055-.17.12-.228l.532-.705c2.877-3.856 4.816-5.785 5.816-5.785.636 0 1.184.292 1.63.874.452.584.676 1.276.676 2.08 0 1.21-.702 2.88-2.11 5.018 2.218-3.064 3.92-5.154 5.11-6.28 1.194-1.125 2.298-1.69 3.31-1.69.828 0 1.524.34 2.086 1.017.562.674.842 1.508.842 2.504 0 1.26-.86 3.18-2.59 5.775-1.763 2.643-2.648 4.333-2.648 5.063 0 .768.388 1.158 1.156 1.158 1.675 0 4.562-2.982 8.657-8.947.096-.185.19-.28.285-.28.112 0 .168.06.168.17"/><path d="M206.82 180.14c0 .395-1.36 2.224-4.083 5.47-2.237 2.667-4.002 4.006-5.275 4.006-.848 0-1.558-.325-2.132-.987-.57-.656-.86-1.46-.86-2.416 0-.852.174-1.63.523-2.357.35-.72 1.254-2.153 2.717-4.29 1.517-2.255 2.278-3.695 2.278-4.313 0-.77-.4-1.15-1.21-1.15-2.74 0-6.964 5.085-12.673 15.257-.918-.07-1.473-.106-1.662-.106-.655 0-1.278.037-1.856.107l4.39-6.953c2.498-3.98 3.753-6.466 3.753-7.46 0-.567-.238-.843-.708-.843-.96 0-2.853 2.017-5.673 6.063-.17.244-.306.375-.397.395-.094 0-.153-.055-.173-.167.02-.098.055-.17.12-.228l.532-.705c2.877-3.856 4.816-5.785 5.816-5.785.636 0 1.184.292 1.63.874.452.584.676 1.276.676 2.08 0 1.21-.702 2.88-2.11 5.018 2.218-3.064 3.92-5.154 5.11-6.28 1.194-1.125 2.298-1.69 3.31-1.69.828 0 1.524.34 2.086 1.017.562.674.842 1.508.842 2.504 0 1.26-.86 3.18-2.59 5.775-1.763 2.643-2.648 4.333-2.648 5.063 0 .768.388 1.158 1.156 1.158 1.675 0 4.562-2.982 8.657-8.947.096-.185.19-.28.285-.28.112 0 .168.06.168.17z" fill="none" stroke="#000" stroke-width="1.296"/><path d="M46.014 132.26c0-.378-.082-.694-.25-.95-.173-.258-.45-.44-.84-.54-.113-.033-.246-.058-.398-.075-.152-.02-.353-.024-.618-.024h-1.035v3.222h1.18c.32 0 .612-.038.858-.12.248-.078.45-.19.613-.333.168-.144.286-.316.372-.513.08-.2.12-.422.12-.666m2.976 7.705c0 .064-.007.12-.034.167-.022.04-.08.077-.167.105-.09.03-.214.048-.387.06-.167.013-.402.02-.69.02-.25 0-.444-.007-.59-.02-.15-.012-.265-.03-.35-.063-.083-.034-.142-.074-.18-.122-.033-.055-.06-.116-.088-.182l-1.017-2.535c-.124-.29-.245-.543-.36-.766-.117-.226-.248-.405-.388-.555-.145-.15-.312-.263-.5-.34-.184-.075-.4-.11-.647-.11h-.72v4.322c0 .06-.02.11-.058.16-.04.043-.1.082-.19.113-.086.03-.202.052-.35.07-.142.02-.336.026-.56.026-.224 0-.41-.008-.56-.026-.15-.018-.266-.04-.354-.07-.085-.03-.146-.07-.185-.113-.036-.05-.052-.1-.052-.16v-10.31c0-.262.067-.442.2-.562.13-.11.292-.17.486-.17h2.94c.298 0 .544.01.734.012.197.017.372.035.53.052.46.06.866.172 1.235.33.36.157.67.366.925.622.254.25.45.552.588.903.133.35.2.746.2 1.196 0 .385-.05.727-.145 1.045-.095.306-.24.59-.428.835-.186.244-.416.46-.692.64-.272.18-.587.326-.94.442.172.08.33.178.478.295.15.12.29.253.422.427.13.166.26.358.377.57.113.213.23.456.343.722l.953 2.24c.09.22.15.386.178.488.027.102.043.18.043.24M57.417 139.355c0 .173-.005.317-.023.433-.015.11-.035.2-.065.27-.028.075-.068.125-.114.157-.044.032-.085.05-.14.05h-5.703c-.197 0-.36-.057-.492-.172-.132-.114-.197-.3-.197-.56v-9.898c0-.26.065-.44.198-.56.133-.11.296-.17.493-.17h5.665c.055 0 .104.012.14.048.04.027.08.075.108.15.03.07.05.167.063.28.014.115.024.26.024.435 0 .16-.01.305-.025.422-.014.11-.033.2-.064.274-.03.07-.067.12-.108.154-.036.03-.085.044-.14.044h-4.054v2.775h3.434c.054 0 .1.017.146.05.042.032.077.08.11.148.028.068.053.155.062.277.015.108.022.246.022.416 0 .164-.007.307-.022.415-.01.115-.034.2-.063.27-.032.066-.067.114-.11.142-.046.033-.09.045-.145.045h-3.434v3.208h4.092c.055 0 .096.012.14.045.046.032.086.08.113.154.03.07.05.166.064.273.018.117.023.26.023.425M66.01 136.856c0 .602-.106 1.124-.336 1.572-.216.452-.518.83-.896 1.127-.385.3-.828.53-1.337.68-.51.154-1.052.23-1.632.23-.39 0-.76-.034-1.095-.094-.34-.066-.634-.142-.89-.236-.26-.088-.473-.184-.647-.284-.17-.1-.297-.184-.372-.267-.075-.07-.13-.18-.163-.325-.03-.142-.046-.348-.046-.623 0-.176.007-.327.02-.452.01-.118.027-.224.055-.3.025-.076.06-.128.104-.158.04-.036.096-.052.154-.052.082 0 .196.052.343.146.15.095.345.2.578.32.236.118.513.22.838.32.324.1.702.144 1.13.144.28 0 .532-.033.755-.1.225-.066.414-.16.565-.285.155-.125.276-.275.36-.457.08-.183.123-.383.123-.608 0-.257-.075-.48-.21-.66-.144-.186-.327-.35-.554-.487-.223-.15-.48-.282-.766-.41-.287-.125-.582-.257-.888-.398-.3-.14-.6-.302-.89-.48-.28-.177-.54-.394-.766-.64-.224-.25-.408-.544-.546-.882-.145-.338-.21-.745-.21-1.223 0-.545.096-1.02.3-1.434.203-.41.475-.754.82-1.02.338-.277.742-.48 1.21-.616.465-.133.958-.205 1.48-.205.268 0 .537.026.81.066.265.037.516.097.752.167.233.065.44.147.62.237.183.09.304.16.363.218.06.06.096.11.116.152.02.035.04.097.05.16.02.07.03.15.034.255.01.103.01.23.01.38 0 .173-.006.31-.015.433-.008.12-.023.212-.046.287-.02.083-.05.13-.085.166-.042.04-.092.056-.153.056-.067 0-.17-.042-.31-.123-.14-.084-.31-.172-.515-.264-.208-.102-.443-.19-.713-.27-.27-.08-.567-.117-.886-.117-.257 0-.475.03-.66.093-.19.062-.346.145-.47.25-.127.11-.22.24-.28.398-.064.15-.09.31-.09.477 0 .25.064.474.2.655.14.188.325.35.555.495.228.143.494.273.788.403.29.13.592.257.896.398.3.14.6.3.89.483.295.173.558.39.783.638.232.25.413.543.552.88.142.338.212.73.212 1.186M75.16 129.856c0 .17-.007.31-.026.43-.012.124-.03.22-.066.29-.025.076-.07.126-.11.162-.043.034-.09.056-.14.056h-2.846v9.152c0 .06-.02.11-.058.16-.04.043-.102.083-.187.113-.09.028-.21.05-.36.07-.148.018-.332.026-.554.026-.223 0-.41-.007-.56-.025-.146-.02-.263-.042-.353-.07-.086-.03-.153-.07-.19-.113-.037-.05-.055-.1-.055-.16v-9.153H66.81c-.058 0-.108-.022-.15-.056-.04-.036-.076-.086-.108-.16-.028-.07-.05-.168-.064-.292-.014-.12-.016-.26-.016-.43 0-.18.002-.323.016-.453.015-.12.036-.22.064-.29.032-.076.068-.123.108-.157.042-.04.092-.05.15-.05h8.008c.05 0 .097.01.14.05.04.034.085.08.11.157.035.07.054.17.066.29.02.13.025.272.025.453M79.177 131.073h-.007l-1.604 4.826h3.22l-1.61-4.827zm5.212 8.33c.077.21.118.38.136.5.015.12-.005.217-.074.277-.063.062-.173.098-.343.115-.163.014-.384.02-.676.02-.296 0-.53-.006-.7-.015-.16-.005-.292-.026-.376-.05-.09-.028-.15-.063-.184-.106-.038-.05-.065-.11-.09-.19l-.767-2.28h-4.263l-.717 2.22c-.03.085-.057.153-.1.208-.033.052-.096.097-.184.13-.082.035-.2.053-.36.066-.15.01-.352.017-.61.017-.265 0-.475-.008-.626-.025-.153-.018-.256-.063-.315-.126-.06-.07-.083-.17-.065-.285.02-.127.065-.288.13-.495l3.506-10.076c.036-.1.075-.18.12-.24.05-.063.12-.116.228-.14.1-.035.244-.055.426-.065.18-.01.42-.01.718-.01.35 0 .622.002.825.01.206.01.362.03.476.065.115.024.198.08.242.142.055.06.096.152.133.262l3.51 10.07zM94.946 136.034c0 .696-.105 1.32-.31 1.87-.205.55-.504 1.016-.904 1.393-.395.385-.888.67-1.473.872-.585.197-1.263.294-2.023.294-.71 0-1.353-.09-1.922-.266-.566-.177-1.05-.45-1.44-.813-.393-.36-.696-.812-.904-1.354-.2-.54-.304-1.174-.304-1.896v-6.914c0-.06.016-.112.054-.162.035-.04.096-.078.184-.106.095-.035.215-.057.358-.073.15-.017.337-.025.562-.025.22 0 .408.007.553.024.147.015.264.037.35.072.09.028.15.066.19.106.038.05.058.1.058.162v6.708c0 .454.052.842.165 1.17.11.333.27.602.477.82.21.215.458.38.748.49.29.11.616.162.97.162.362 0 .685-.056.975-.166.29-.114.53-.276.73-.49.2-.214.352-.475.462-.79.103-.31.16-.666.16-1.063v-6.84c0-.06.017-.112.055-.162.03-.04.095-.078.18-.106.09-.035.208-.057.355-.073.15-.017.335-.025.56-.025.222 0 .404.007.544.024.144.015.264.037.35.072.088.028.148.066.185.106.035.05.056.1.056.162v6.814zM102.86 132.26c0-.378-.08-.694-.254-.95-.165-.258-.446-.44-.83-.54-.12-.033-.26-.058-.403-.075-.15-.02-.353-.024-.615-.024h-1.04v3.222h1.177c.328 0 .616-.038.858-.12.248-.078.448-.19.618-.333.166-.144.285-.316.367-.513.085-.2.123-.422.123-.666m2.976 7.705c0 .064-.01.12-.033.167-.026.04-.078.077-.166.105-.09.03-.22.048-.39.06-.166.013-.394.02-.69.02-.247 0-.444-.007-.59-.02-.146-.012-.26-.03-.35-.063-.082-.034-.14-.074-.176-.122-.035-.055-.063-.116-.087-.182l-1.017-2.535c-.124-.29-.245-.543-.36-.766-.116-.226-.25-.405-.39-.555-.144-.15-.31-.263-.498-.34-.185-.075-.403-.11-.648-.11h-.722v4.322c0 .06-.02.11-.057.16-.037.043-.1.082-.183.113-.09.03-.206.052-.356.07-.143.02-.332.026-.56.026-.22 0-.408-.008-.56-.026-.143-.018-.267-.04-.35-.07-.09-.03-.152-.07-.184-.113-.035-.05-.055-.1-.055-.16v-10.31c0-.262.066-.442.195-.562.133-.11.295-.17.492-.17h2.94c.296 0 .54.01.738.012.192.017.37.035.527.052.453.06.864.172 1.228.33.368.157.68.366.933.622.257.25.452.552.585.903.135.35.2.746.2 1.196 0 .385-.048.727-.146 1.045-.097.306-.234.59-.42.835-.194.244-.424.46-.695.64-.277.18-.59.326-.94.442.165.08.33.178.478.295.145.12.29.253.422.427.13.166.25.358.37.57.118.213.234.456.344.722l.958 2.24c.09.22.15.386.177.488.03.102.04.18.04.24M111.62 131.073h-.004l-1.608 4.826h3.22l-1.61-4.827zm5.213 8.33c.074.21.114.38.133.5.02.12 0 .217-.068.277-.066.062-.176.098-.34.115-.168.014-.393.02-.677.02-.298 0-.532-.006-.702-.015-.165-.005-.29-.026-.375-.05-.09-.028-.15-.063-.187-.106-.036-.05-.063-.11-.088-.19l-.762-2.28h-4.268l-.72 2.22c-.023.085-.055.153-.096.208-.036.052-.1.097-.18.13-.087.035-.207.053-.36.066-.156.01-.36.017-.61.017-.27 0-.48-.008-.63-.025-.157-.018-.26-.063-.317-.126-.064-.07-.08-.17-.067-.285.023-.127.067-.288.135-.495l3.504-10.076c.038-.1.075-.18.123-.24.048-.063.12-.116.223-.14.1-.035.243-.055.428-.065.178-.01.42-.01.717-.01.35 0 .62.002.83.01.203.01.363.03.474.065.112.024.197.08.247.142.048.06.095.152.13.262l3.506 10.07zM127.792 139.454c0 .138-.02.256-.07.364-.046.102-.113.19-.19.262-.08.07-.17.12-.28.154-.107.033-.22.045-.33.045h-.983c-.208 0-.384-.017-.533-.06-.147-.04-.287-.118-.412-.225-.126-.107-.245-.255-.363-.44-.117-.182-.25-.42-.397-.71l-2.826-5.315c-.16-.313-.33-.655-.5-1.018-.175-.372-.323-.725-.456-1.072h-.018c.024.425.04.847.05 1.262.015.416.02.85.02 1.296v5.944c0 .053-.02.108-.05.15-.034.05-.087.092-.167.123-.08.032-.19.057-.32.077-.133.016-.305.023-.518.023-.208 0-.376-.008-.51-.023-.133-.02-.238-.045-.313-.077-.077-.03-.13-.072-.16-.122-.028-.043-.044-.098-.044-.15v-10.218c0-.272.08-.48.24-.61.156-.14.36-.21.594-.21h1.237c.225 0 .408.012.56.06.158.032.292.094.407.187.12.088.235.21.34.367.107.15.213.345.325.57l2.212 4.15c.127.252.257.5.38.747.125.242.25.486.368.726.115.242.227.48.34.714.106.236.22.47.326.7h.008c-.015-.405-.03-.833-.034-1.28-.015-.443-.02-.865-.02-1.272v-5.33c0-.055.02-.112.054-.155.036-.048.09-.093.175-.12.08-.037.19-.066.325-.08.135-.015.31-.02.518-.02.197 0 .362.005.5.02.132.014.237.043.31.08.07.027.125.072.157.12.027.043.043.1.043.155v10.21zM137.826 129.856c0 .17-.01.31-.02.43-.02.124-.044.22-.07.29-.03.076-.064.126-.11.162-.044.034-.092.056-.147.056h-2.84v9.152c0 .06-.02.11-.06.16-.043.043-.1.083-.186.113-.09.028-.21.05-.358.07-.147.018-.332.026-.555.026-.225 0-.41-.007-.56-.025-.153-.02-.268-.042-.35-.07-.09-.03-.154-.07-.195-.113-.038-.05-.055-.1-.055-.16v-9.153h-2.845c-.054 0-.1-.022-.145-.056-.045-.036-.08-.086-.113-.16-.023-.07-.048-.168-.06-.292-.015-.12-.025-.26-.025-.43 0-.18.01-.323.025-.453.012-.12.037-.22.06-.29.033-.076.068-.123.113-.157.044-.04.09-.05.145-.05h8.004c.054 0 .102.01.146.05.046.034.08.08.11.157.026.07.05.17.07.29.01.13.02.272.02.453M145.902 139.355c0 .173-.006.317-.025.433-.014.11-.035.2-.07.27-.02.075-.06.125-.11.157-.04.032-.086.05-.14.05h-5.706c-.192 0-.352-.057-.487-.172-.132-.114-.196-.3-.196-.56v-9.898c0-.26.064-.44.196-.56.135-.11.295-.17.488-.17h5.675c.052 0 .098.012.138.048.042.027.072.075.105.15.027.07.053.167.068.28.01.115.02.26.02.435 0 .16-.01.305-.02.422-.015.11-.04.2-.068.274-.033.07-.063.12-.105.154-.04.03-.086.044-.138.044h-4.058v2.775h3.433c.052 0 .1.017.145.05.04.032.082.08.107.148.034.068.05.155.065.277.016.108.025.246.025.416 0 .164-.01.307-.025.415-.014.115-.03.2-.065.27-.025.066-.066.114-.107.142-.045.033-.093.045-.145.045h-3.433v3.208h4.09c.054 0 .1.012.14.045.05.032.09.08.11.154.035.07.056.166.07.273.02.117.025.26.025.425M156.593 135.954v3.992c0 .06-.025.11-.06.16-.04.043-.1.083-.186.113-.088.028-.206.052-.358.07-.15.018-.33.026-.557.026-.225 0-.415-.007-.56-.025-.15-.018-.27-.042-.357-.07-.09-.03-.155-.07-.19-.113-.035-.05-.05-.1-.05-.16v-3.993l-3.11-6.185c-.108-.218-.183-.394-.215-.507-.03-.122-.014-.216.052-.274.067-.06.194-.1.375-.114.186-.018.435-.02.755-.02.272 0 .482 0 .644.013.165.01.288.034.383.064.093.034.163.078.203.125.045.058.088.123.13.21l1.264 2.787c.12.27.245.555.362.847.122.304.24.615.366.943h.02c.11-.316.218-.625.34-.92.118-.298.235-.588.342-.853l1.246-2.776c.03-.09.064-.166.107-.224.046-.052.116-.1.203-.132.087-.038.205-.06.355-.073.154-.014.358-.014.61-.014.33 0 .593.002.773.02.19.015.314.053.38.113.07.057.088.152.048.28-.035.118-.1.287-.21.5l-3.105 6.184zM171.237 136.936c0-.264-.044-.5-.135-.705-.085-.21-.22-.384-.387-.52-.167-.148-.383-.25-.65-.326-.26-.078-.6-.117-1.025-.117h-1.372v3.232h1.67c.317 0 .59-.035.81-.1.217-.07.414-.168.567-.3.165-.13.295-.298.385-.493.087-.198.137-.418.137-.67m-.59-4.863c0-.232-.036-.433-.108-.617-.07-.18-.175-.33-.318-.45-.143-.118-.318-.212-.53-.273-.215-.067-.5-.1-.853-.1h-1.172v2.947h1.294c.333 0 .6-.036.798-.118.197-.073.36-.186.495-.322.13-.138.232-.3.295-.483.067-.185.097-.376.097-.583m2.982 4.782c0 .405-.055.77-.165 1.1-.112.33-.272.616-.463.866-.198.252-.43.468-.703.654-.275.18-.572.326-.898.445-.328.12-.684.202-1.054.26-.37.057-.783.084-1.235.084h-3.026c-.188 0-.355-.057-.487-.17-.132-.114-.193-.303-.193-.56v-9.9c0-.26.06-.44.193-.558.132-.11.3-.17.487-.17h2.855c.695 0 1.287.062 1.77.175.482.12.888.294 1.215.533.335.236.588.54.763.9.177.357.26.788.26 1.278 0 .276-.026.538-.097.78-.075.243-.175.463-.31.664-.14.2-.3.37-.5.522-.194.155-.416.28-.668.373.32.057.617.16.887.31.272.143.51.33.71.564.206.227.365.5.485.81.113.31.172.66.172 1.042M179.396 131.073h-.005l-1.61 4.826H181l-1.604-4.827zm5.214 8.33c.075.21.113.38.137.5.016.12-.01.217-.072.277-.065.062-.18.098-.345.115-.164.014-.39.02-.674.02-.3 0-.53-.006-.703-.015-.162-.005-.292-.026-.378-.05-.088-.028-.15-.063-.184-.106-.035-.05-.067-.11-.088-.19l-.764-2.28h-4.265l-.722 2.22c-.022.085-.05.153-.093.208-.04.052-.096.097-.184.13-.08.035-.203.053-.357.066-.156.01-.356.017-.61.017-.27 0-.478-.008-.633-.025-.15-.018-.256-.063-.316-.126-.056-.07-.077-.17-.06-.285.018-.127.06-.288.135-.495l3.498-10.076c.033-.1.078-.18.126-.24.047-.063.116-.116.224-.14.1-.035.243-.055.422-.065.185-.01.423-.01.72-.01.35 0 .62.002.824.01.207.01.367.03.48.065.117.024.197.08.245.142.048.06.092.152.132.262l3.508 10.07zM191.65 132.26c0-.378-.085-.694-.253-.95-.167-.258-.447-.44-.832-.54-.12-.033-.253-.058-.4-.075-.153-.02-.355-.024-.62-.024h-1.033v3.222h1.175c.325 0 .614-.038.86-.12.244-.078.453-.19.614-.333.164-.144.285-.316.374-.513.08-.2.115-.422.115-.666m2.98 7.705c0 .064-.015.12-.035.167-.024.04-.08.077-.167.105-.09.03-.222.048-.392.06-.17.013-.398.02-.692.02-.243 0-.44-.007-.585-.02-.15-.012-.267-.03-.35-.063-.086-.034-.147-.074-.18-.122-.035-.055-.064-.116-.082-.182l-1.024-2.535c-.12-.29-.24-.543-.36-.766-.118-.226-.25-.405-.394-.555-.14-.15-.304-.263-.49-.34-.187-.075-.404-.11-.652-.11h-.715v4.322c0 .06-.025.11-.064.16-.037.043-.1.082-.186.113-.093.03-.205.052-.348.07-.15.02-.336.026-.565.026-.22 0-.41-.008-.56-.026-.147-.018-.27-.04-.35-.07-.09-.03-.154-.07-.187-.113-.035-.05-.048-.1-.048-.16v-10.31c0-.262.06-.442.19-.562.134-.11.295-.17.49-.17h2.94c.3 0 .545.01.74.012.193.017.366.035.53.052.45.06.86.172 1.226.33.364.157.678.366.928.622.263.25.455.552.592.903.128.35.196.746.196 1.196 0 .385-.045.727-.146 1.045-.097.306-.232.59-.422.835-.187.244-.417.46-.695.64-.273.18-.587.326-.938.442.17.08.33.178.48.295.146.12.285.253.42.427.13.166.258.358.373.57.117.213.233.456.343.722l.96 2.24c.085.22.144.386.17.488.035.102.05.18.05.24"/></svg>