<svg xmlns="http://www.w3.org/2000/svg" width="439.997" height="413.653"><path d="M379.265 100.05l1.016 6.677 1.307 57.194c-12.048 9.292-4.79 33.098 2.178 44.42 6.87-11.42 15.92-37.064 5.37-46.016l-2.032-84.92zM105.816 82.743c-3.92 0-7.104 3.185-7.104 7.104 0 3.92 3.184 7.104 7.104 7.104s7.104-3.183 7.104-7.103-3.185-7.104-7.104-7.104zm0 5.174c1.07 0 1.93.86 1.93 1.93 0 1.07-.86 1.93-1.93 1.93-1.07 0-1.93-.86-1.93-1.93 0-1.07.86-1.93 1.93-1.93zM149.672 56.36c3.035 0 4.745 4.698 5.584 8.85h.04c.166.45.268.54.412 1.19.31 1.396.476 3.092.534 4.455.043 1.023-.055 2.043-.04 2.197 0 0 .017.007.02 0l-13.86 62.027c-.074.336-1.242 2.197-3.408 3.613s-5.14 2.176-5.708 2.176c-8.003-.802-20.616 1.824-24-2.403-.114-.237-.22-.48-.33-.72h-5.153c2.05 4.107 3.897 7.897 5.338 11.11h24.146c5.895 0 15.425-5.23 16.94-12.012l13.88-62.212c.743-3.336-.23-18.274-6.038-18.274z"/><path d="M166.467 0c6.756 13.972 15.174 28.28 20.716 39.647.93 5.453-.35 9.226-6.508 9.096l-117.812.82c-4.59 0-7.987-4.108-7.987-8.684v-.597L67.71 1.233l-7.126.122L46.027 38.64v2.24c0 9.325 7.51 16.815 16.836 16.814h14.393c-2.944 3.96-4.702 8.847-4.702 14.106 0 1.204.254 2.408.74 3.51l75.166 167.5c9.266-21.822 12.493-25.584 19.773 3.86 9.526-14.99 21.62-34.11 39.03-34.78h55.745c26.287-1.705 32.02 27.995 36.013 32.932 14.86-39.94 15.1-18.356 26.302-.082l64.162-169.9c.356-.972.538-2.006.534-3.04 0-13.036-9.447-23.797-22.483-23.797H195.56c.48-1.884.44-5.028.473-8.356-5.07-12.32-14.075-27.773-21.148-39.524L166.467 0zM96.37 56.71h271.165c8.364 0 15.09 6.726 15.09 15.09l-56.502 151.69c-10.874-13.464-21.167-11.64-28.396 2.094-6.478-12.557-19.564-21.087-34.72-21.087h-55.743c-15.83 0-29.398 9.314-35.54 22.79h-.227c-9.482-10.456-15.19-14.244-23.22-3.798L81.26 71.8c0-8.364 6.747-15.09 15.11-15.09z"/><path d="M117.775 121.81h6.406l-3.425-37.39c-1.49-6.215-4.016-8.994-9.683-11.323l-22.345-1.49v7.45l18.62.297c5.397 1.566 6.77 4.44 8.343 10.13z"/><g fill="none" stroke="#000" stroke-width="4"><path d="M53.523 242.603L4.097 330.275c-3.087 5.47-2.43 10.838 3.53 12.356h166.518c10.072-.293 15.047-4.435 11.18-11.178l-85.318-88.85c-6.94-6.76-11.07-8.112-11.768 0l-.59 166.52M184.943 396.446l-62.618-65.322" stroke-width="4.5844"/><path d="M80.72 412.465l-8.946-14.98c-.077-4.993 1.64-7.055 6.033-7.28h24.13c3.65 1.25 5.022 2.574 4.994 7.28l-7.904 14.564M175.028 372.346l35.01-64.43M202.094 310.27l27.36 67.37M157.67 353.81h116.21M226.807 345.28v-38.247l38.246 39.717v-39.13M301.24 322.626l-22.948.294c-2.353-.196-3.97 1.226-4.413 3.824v39.718c.195 3.824 1.42 5 5 5.295h18.24M310.178 384.38v-82.796M339.718 411.01V264.137M301.856 354.008h43.687M352.408 366.282v-44.935c.504-3.188 1.744-4.905 4.16-6.033h26.004c3.594.704 4.098 1.996 4.16 5.2l-1.04 48.056c.224 2.847-1.613 4.37-3.744 4.57h-24.13c-3.275-.816-5.666-2.954-5.41-6.858zM34.7 327.623v-21.227c.28-1.506.966-2.317 2.305-2.85H51.41c1.99.333 2.27.943 2.305 2.457l-.577 22.7c.124 1.346-.894 2.066-2.074 2.16H37.696c-1.813-.385-3.138-1.396-2.996-3.24zM405.872 312.402l.208 15.602c.21 2.633 2.185 4.236 4.16 4.37h15.395c2.47-.21 4.35-1.157 5.2-4.162v-19.555c.215-2.06-1.63-3.387-3.328-3.536h-24.13c-4.02.316-6.864 2.543-8.53 6.242v25.795c.99 3.405 2.714 5.044 5.616 6.24h30.79c3.178.117 5.622 1.998 6.448 5.202l-.207 17.474c.136 2.772-.904 4.22-3.12 4.784h-32.454c-2.608-.504-4.628-1.744-5.617-4.16V355.88c.867-2.572 2.47-3.232 4.368-3.744l20.18.208c1.984.097 3.085.78 3.745 2.496v10.402M65.812 301.48l.11 7.875c.11 1.328 1.157 2.138 2.203 2.205h8.155c1.308-.107 2.304-.584 2.755-2.1v-9.87c.114-1.04-.863-1.71-1.763-1.785H64.488c-2.13.16-3.635 1.283-4.518 3.15v13.02c.524 1.718 1.438 2.545 2.976 3.15h16.31c1.684.057 2.978 1.007 3.416 2.624l-.11 8.82c.072 1.398-.48 2.13-1.653 2.414H63.716c-1.38-.255-2.45-.88-2.975-2.1v-5.46c.46-1.298 1.31-1.63 2.314-1.89l10.69.105c1.05.048 1.634.394 1.983 1.26v5.25" stroke-width="4.5844"/></g></svg>