<svg xmlns="http://www.w3.org/2000/svg" width="400" height="85.611"><path d="M351.1 79.82c2.73 3.255 8.36 4.882 16.91 4.882 3.464 0 7.362-.297 11.713-.892V72.67h-10.94c-2.427 0-4.013-.91-4.754-2.73-.512-1.362-.773-4.008-.773-7.947V34.518h15.913V23.166h-15.913V4.543h-15.25v18.623h-5.096v11.352h5.097v32.018c0 6.512 1.028 10.936 3.094 13.285M208.287 44.737c.663.23 10.022 2.043 28.07 5.452 10.022 1.815 15.03 5.41 15.03 10.78 0 4.17-1.983 7.272-5.964 9.315-3.386 1.746-7.892 2.61-13.486 2.61-14.66 0-22.21-5.256-22.654-15.78h-17.91c.22 19 13.555 28.498 40.01 28.498 10.238 0 18.684-1.777 25.315-5.332 8.4-4.547 12.595-11.544 12.595-21.004 0-9.917-5.078-16.695-15.25-20.328-1.915-.68-11.348-2.385-28.298-5.11-10.164-1.663-15.25-5-15.25-9.994 0-7.413 6.11-11.124 18.348-11.124 6.412 0 11.384 1.403 14.92 4.2 3.018 2.345 4.677 5.297 4.974 8.857h17.905C265.098 8.595 252.237 0 228.07 0c-10.388 0-18.61 1.933-24.65 5.79-6.783 4.32-10.17 10.75-10.17 19.3 0 9.47 5.014 16.013 15.036 19.646M158.55 79.82c2.724 3.255 8.36 4.882 16.905 4.882 3.464 0 7.37-.297 11.717-.892V72.67h-10.94c-2.432 0-4.018-.91-4.75-2.73-.52-1.362-.776-4.008-.776-7.947V34.518h15.913V23.166h-15.914V4.543H155.45v18.623h-5.09v11.352h5.09v32.018c0 6.512 1.034 10.936 3.1 13.285m137.426-45.078c2.83-2.112 6.092-3.177 9.794-3.177 3.885 0 7.303 1.097 10.25 3.295 3.64 2.802 5.832 6.93 6.582 12.376h-33.48c1-5.53 3.29-9.688 6.854-12.494m40.18 20.208c0-9.683-2.326-17.558-6.97-23.608-5.387-6.97-13.257-10.448-23.608-10.448-8.902 0-16.132 2.99-21.68 8.967-5.553 5.983-8.327 13.967-8.327 23.962 0 8.93 2.318 16.237 6.966 21.91 5.457 6.584 13.418 9.88 23.883 9.88 13.485 0 23.02-6.66 28.603-19.986h-14.108c-2.947 5.754-7.9 8.628-14.866 8.628-5.773 0-10.16-2-13.172-6.014-2.322-3.03-3.574-6.7-3.757-11.014h47.037V54.95zM103.454 34.742c2.83-2.112 6.083-3.177 9.785-3.177 3.89 0 7.307 1.097 10.255 3.295 3.633 2.802 5.83 6.93 6.585 12.376h-33.49c1.002-5.53 3.29-9.688 6.865-12.494m40.17 20.208c0-9.683-2.32-17.558-6.96-23.61-5.396-6.968-13.266-10.446-23.613-10.446-8.907 0-16.132 2.99-21.685 8.967-5.548 5.983-8.322 13.967-8.322 23.962 0 8.93 2.317 16.237 6.96 21.91 5.457 6.584 13.423 9.88 23.893 9.88 13.486 0 23.02-6.66 28.6-19.986h-14.11c-2.95 5.754-7.905 8.628-14.865 8.628-5.77 0-10.158-2-13.17-6.014-2.322-3.03-3.574-6.7-3.76-11.014h47.034V54.95zM53.718 66.536c-1.92 4.24-5.713 6.357-11.39 6.357-5.963 0-9.943-2.08-11.93-6.243-1.18-2.422-1.77-6.586-1.77-12.49h-16.58c0 9.158 1.325 15.9 3.976 20.21 4.497 7.494 13.336 11.24 26.53 11.24 11.05 0 19.047-3.065 23.983-9.198 3.61-4.46 5.416-10.333 5.416-17.595V2.277h-16.58v51.77c0 5.835-.554 9.993-1.655 12.49" fill="#f39100"/><path d="M3.85 45.03c.298-.247.45-.612.45-.99 0-.248-.06-.545-.225-.82-.38-.575-1.014-.612-1.9-.612-.156 0-.367 0-.77.014-.013 1.37-.013 1.558 0 2.87.897.01 1.88.036 2.446-.462m-2.407 4.972c-.677 0-.686 0-1.303.037l-.068-.083c.036-1.147.045-2.304.045-3.45 0-2.647-.045-3.58-.118-4.763l.072-.082h.292c.215 0 .795-.01 1.198-.01l.717-.013c.648 0 1.274 0 1.855.2.91.307 1.49.956 1.49 2.09 0 .945-.508 1.905-2.02 2.316.2.274 1.12 1.618 1.334 1.93.364.515.53.753 1.26 1.72l-.045.12c-.238 0-.485 0-.723.01-.246.013-.493.027-.744.05l-.083-.06-.14-.25c-.344-.6-.742-1.167-1.12-1.747-.71-1.075-.783-1.194-1.066-1.573-.367.014-.44.023-.85.014 0 .65.013 2.47.08 3.46l-.067.083zM12.23 49.035c-.036.402-.036.484-.06.886l-.08.083c-2.305 0-2.67.014-4.914.037l-.06-.082c.032-.937.07-1.572.07-3.734 0-1.983 0-3.12-.083-4.48l.073-.08c2.326-.015 2.788-.015 4.958-.038l.073.083c-.036.355-.06.497-.082.922l-.073.082c-1.522-.046-2.034-.046-3.533-.06-.037 1.088-.037 1.43-.037 2.52 1.458.008 1.906 0 3.345-.024l.06.082c-.046.412-.046.53-.06.91l-.073.082c-1.366-.036-1.663-.036-3.272-.036-.023 1.37-.01 1.7 0 2.824 1.787 0 2.152 0 3.674-.06l.073.083zM16.864 50.003c-.804 0-.864.014-1.714.037l-.082-.082c-.38-1.326-.768-2.66-1.17-3.98-.2-.677-1.24-4.032-1.298-4.233l.06-.082c.658 0 .767-.014 1.357-.037l.082.083c.214.817.282 1.11.99 3.732l1.03 3.725 1.05-3.71c.343-1.23.686-2.473 1.015-3.712l.073-.082c.567 0 .626 0 1.18-.037l.058.083c-.187.593-1.097 3.522-1.298 4.18-.38 1.184-.78 2.363-1.12 3.556-.05.155-.095.31-.14.475l-.074.083zM21.758 41.71c-.037.79-.06 1.723-.06 3.757 0 2.267.023 3.236.096 4.45l-.073.088c-.515.01-.684.01-1.31.032l-.07-.082c.024-.722.047-1.348.047-2.87 0-1.782 0-3.556-.083-5.33l.06-.09c.52 0 .708 0 1.31-.037l.084.082zM26.52 45.278c.864.38 2.01.873 2.01 2.386 0 1.325-.982 2.518-3.038 2.518-1.252 0-2.057-.38-2.34-.52l-.046-.083c.046-.417.06-.64.096-1.09l.12-.045c.292.2.977.695 2.074.695 1.22 0 1.727-.626 1.727-1.334 0-.828-.685-1.147-1.453-1.44l-.59-.26c-.84-.39-1.96-.9-1.96-2.34 0-.44.114-.887.366-1.24.543-.78 1.52-1.04 2.48-1.04.933 0 1.5.177 2.126.38l.06.095c-.05.448-.06.613-.096 1.038l-.096.046c-.508-.256-1.06-.544-1.947-.544-.983 0-1.595.46-1.595 1.16 0 .53.356.782.603.933.152.096.202.12.91.425l.59.26zM34.77 42.68c-.993-.023-1.158-.023-2.177-.023-.023 1.18-.023 1.37-.023 2.422 0 2.96.05 4.13.083 4.843l-.07.082c-.675 0-.707 0-1.36.032l-.055-.082c.054-1.654.068-3.304.068-4.96 0-1.205-.023-1.83-.036-2.338-1.03.01-1.143.01-2.194.045l-.073-.082c.023-.416.023-.462.046-.873l.058-.082c.85 0 2.212 0 3.062-.014.91 0 1.82-.008 2.728-.022l.06.083c-.037.416-.046.544-.046.887l-.073.083zM37.146 46.507c.38 0 .754.014 1.133.014.402 0 .827-.013 1.242-.013l-1.138-3.994-1.238 3.994zm2.34-4.598c.388 1.302.836 2.764 1.193 3.888.364 1.134.954 2.953 1.31 4.086l-.045.096c-.617.014-.878.023-1.37.046l-.084-.082c-.296-1.11-.392-1.426-.698-2.49-.47 0-.932-.015-1.408-.015-.516 0-1.06.013-1.535.013-.344 1.11-.412 1.394-.696 2.445l-.082.082c-.507 0-.626 0-1.216.037l-.05-.083c.037-.132.082-.25.133-.365.446-1.28.885-2.556 1.31-3.83.708-2.094.97-2.862 1.307-3.995l.096-.082c.827-.01.932-.01 1.69-.046l.083.082.06.21z"/><path d="M383.278 28.725c0-4.712 3.857-8.217 8.41-8.217 4.45 0 8.312 3.505 8.312 8.217 0 4.785-3.862 8.263-8.313 8.263-4.552 0-8.41-3.478-8.41-8.263m8.41 6.87c3.68 0 6.66-2.917 6.66-6.87 0-3.907-2.98-6.84-6.66-6.84-3.798 0-6.727 2.933-6.727 6.84 0 3.953 2.93 6.87 6.727 6.87m-1.796-2.085h-1.407v-9.497h3.652c2.175 0 3.327.805 3.327 2.706 0 1.68-1.083 2.435-2.482 2.613l2.724 4.177h-1.627l-2.49-4.113h-1.696v4.113zm1.765-5.347c1.202 0 2.308-.064 2.308-1.517 0-1.22-1.097-1.412-2.084-1.412h-1.99v2.93h1.765z" fill="#f39100"/></svg>