<svg xmlns="http://www.w3.org/2000/svg" width="400" height="104.023"><path d="M188.07 66.792l-22.434-39.34c-.19-.334-.443-.666-.72-.666h-.166c-.178 0-.35.27-.593.665l-21.46 39.065c-1.94 3.53-6.656 10.33-10.166 12.956-.607.42-1.666.75-1.666 1.324 0 .237.263.406 1.134.406 1.067 0 3.336-.255 6.848-.255 4.806 0 7.96.255 8.58.255.615 0 1.05-.073 1.05-.406 0-.242-.268-.415-.97-.575-2.355-.83-4.712-1.725-4.712-5.252 0-3.37 1.474-6.49 3.05-9.363l4.72-8.62h20.83l5.005 9.687c2.093 3.854 3.91 7.882 3.91 9.36 0 2.047-.408 3.612-2.432 4.27-.707.163-1.127.31-1.127.643 0 .182.42.255.874.255.533 0 3.423-.255 10.586-.255 5.07 0 9.175.255 9.81.255.79 0 1.222-.17 1.222-.406 0-.28-.51-.555-1.11-.883-1.63-.157-3.132-.33-4.424-.526-.448.52-.856 1.03-1.24 1.53-1.045-.025-2.188-.044-3.397-.05.524-.588 1.088-1.218 1.725-1.93-1.88-1.167-3.196-2.21-3.95-3.13-.756-.92-1.134-1.965-1.134-3.13 0-1.314.503-2.857 1.506-4.624.217-.38.514-.807.853-1.258M170.28 54.955h-18.584l9.2-17.06 9.384 17.06zM79.928 54.7c0-12.228 5.427-25.83 21.354-25.83 12.97.23 18.38 5.404 20.248 12.542.23.9.677 2.14.935 2.14.28 0 .866-1.814 1.224-2.817l2.717-7.697c-7.164-4.274-17.08-6.252-25.125-6.252-17.162 0-33.108 11.005-33.108 27.915 0 18.89 15.946 27.887 33.108 27.887 9.377 0 19.082-1.89 26.44-7.475l-2.28-7.442c-.354-1.237-.435-1.49-.776-1.49-.46 0-.534.763-.977 1.735-3.847 8.277-10.338 12.637-18.9 12.637-18.73 0-24.862-13.61-24.862-25.85M63.74 28.448c0-.243-.53-.342-1.317-.342-.97 0-3.506.34-7.184.34-4.023 0-4.894-.34-7.353-.34-.254 0-.69.1-.69.34 0 .243.6.572 1.116.817 3.605 1.725 5.97 5.48 5.97 13.798V60.21c0 14.01-6.306 20.342-20.843 20.342-10.67 0-18.666-5.44-18.666-15.686v-29.22c0-3.35.985-6.052 3.772-6.71.456-.172.896-.427.896-.487 0-.243-.53-.342-1.306-.342-1.407 0-5.632.34-8.408.34-2.815 0-6.998-.34-8.406-.34-.804 0-1.322.1-1.322.34 0 .06.443.316.87.49 2.8.656 3.78 3.357 3.78 6.707v29.298c0 14.86 13.647 17.644 27.037 17.644 16.906 0 24.763-6.666 24.763-22.475v-17.05c.115-8.447 3.363-12.003 5.973-13.55.875-.575 1.318-.904 1.318-1.063M279.717 37.457c5.6-7.163 10.964-10.745 16.095-10.745 2.597 0 4.85.7 6.744 2.098 1.895 1.4 3.405 3.703 4.526 6.913.76 2.24 1.138 5.672 1.138 10.3v21.884c0 3.192.245 5.354.74 6.49.35.916.947 1.634 1.794 2.145.843.514 2.374.77 4.592.77v2.07h-23.57v-2.07h1.02c2.18 0 3.72-.356 4.616-1.073.893-.716 1.5-1.77 1.824-3.164.144-.55.214-2.272.214-5.17v-21.06c0-4.678-.57-8.073-1.7-10.19-1.132-2.114-3.028-3.174-5.686-3.174-4.135 0-8.25 2.43-12.347 7.28v27.145c0 3.41.182 5.52.546 6.325.51 1.064 1.19 1.846 2.048 2.34.854.493 2.61.74 5.263.74v2.07h-23.75v-2.07h1.008c2.412 0 4.034-.65 4.867-1.952.834-1.302 1.25-3.786 1.25-7.453V48.72c0-6.09-.128-9.8-.38-11.128-.252-1.33-.645-2.236-1.186-2.718-.54-.483-1.278-.724-2.212-.724-.968 0-2.12.28-3.45.838l-.81-2.07 14.526-6.206h2.283v10.745zM382.826 72.177c-4.873 4.01-7.936 6.328-9.19 6.954-1.863.918-3.85 1.38-5.963 1.38-3.3 0-6.012-1.202-8.144-3.613-2.13-2.41-3.197-5.578-3.197-9.507 0-2.48.52-4.633 1.56-6.45 1.433-2.52 3.9-4.89 7.412-7.112 3.512-2.222 9.35-4.93 17.52-8.118v-2.02c0-5.12-.742-8.634-2.23-10.54-1.486-1.91-3.644-2.864-6.475-2.864-2.16 0-3.875.634-5.15 1.898-1.274 1.27-1.912 2.722-1.912 4.36l.054 3.238c0 1.717-.413 3.038-1.233 3.968-.828.93-1.92 1.396-3.27 1.396-1.32 0-2.394-.487-3.215-1.464-.825-.976-1.236-2.313-1.236-4.005 0-3.23 1.538-6.2 4.616-8.907 3.078-2.703 7.402-4.058 12.983-4.058 4.268 0 7.782.764 10.533 2.29 2.063 1.157 3.585 2.962 4.562 5.42.616 1.604.924 4.88.924 9.834V61.63c0 4.878.086 7.866.267 8.965.18 1.1.467 1.838.865 2.208.396.374.867.56 1.41.56.54 0 1.026-.13 1.458-.395.72-.49 2.13-1.863 4.22-4.12v3.16c-3.962 5.54-7.762 8.314-11.392 8.314-1.728 0-3.116-.618-4.16-1.846-1.045-1.23-1.588-3.33-1.622-6.3m0-3.594V49.284c-5.23 2.213-8.596 3.78-10.098 4.7-2.757 1.623-4.715 3.318-5.88 5.087-1.166 1.77-1.746 3.708-1.746 5.81 0 2.656.743 4.86 2.23 6.61 1.483 1.75 3.192 2.623 5.128 2.623 2.648 0 6.104-1.84 10.366-5.53"/><path d="M344.246 73.42c-2.297 2.69-4.554 4.606-6.776 5.75-2.222 1.142-4.62 1.716-7.203 1.716-5.196 0-9.74-2.33-13.626-6.996-3.887-4.66-5.83-10.654-5.83-17.972 0-7.32 2.148-14.017 6.446-20.092 4.3-6.076 9.84-9.114 16.614-9.114 4.19 0 7.65 1.502 10.376 4.5v-9.768c0-5.767-.133-9.31-.38-10.633-.256-1.32-.663-2.22-1.224-2.703-.56-.482-1.258-.724-2.092-.724-.942 0-2.155.3-3.64.895l-.704-2.07L350.77 0h2.427v59.44c0 5.82.125 9.37.38 10.65.252 1.282.668 2.18 1.247 2.695.58.518 1.27.774 2.068.774.94 0 2.19-.316 3.748-.95l.596 2.068-14.51 6.208h-2.48V73.42zm0-3.885V43.53c-.18-2.575-.792-4.9-1.844-6.97-1.05-2.074-2.42-3.638-4.11-4.693-1.69-1.053-3.353-1.58-4.99-1.58-3.026 0-5.73 1.462-8.115 4.383-3.13 3.848-4.695 9.47-4.695 16.87 0 7.473 1.52 13.2 4.562 17.175 3.044 3.975 6.415 5.963 10.12 5.963 3.126 0 6.153-1.714 9.072-5.143M198.048 79.905c-1.565-.153-3.006-.32-4.258-.508 1.25.19 2.698.354 4.258.508M229.6 32.713c0-.864-.09-1.466-.27-1.808-.108-.223-.29-.384-.542-.48-.25-.092-1.135-.14-2.65-.14H216.02c-3.352-2.38-7.32-3.573-11.9-3.573-5.592 0-10.175 1.82-13.746 5.452-3.57 3.633-5.354 7.97-5.354 13.012 0 3.303.783 6.314 2.35 9.04 1.567 2.725 3.81 4.847 6.73 6.366-2.783 2.508-4.76 4.562-5.98 6.185l3.283 5.71c1.517 2.54 3.28 4.94 5.934 6.826.367.254.744.455 1.074.634 3.644.346 8.04.605 13.33.76 5.375.147 8.984.627 10.824 1.44 1.77.812 2.652 2.176 2.652 4.098 0 2.657-1.48 5.155-4.445 7.5-2.962 2.342-7.566 3.516-13.813 3.516-6.572 0-11.6-1.148-15.084-3.44-2.012-1.332-3.017-2.887-3.017-4.662 0-1.37.4-2.867 1.203-4.494.75-1.526 1.888-3.177 3.343-4.93-.334.402-.664.8-.964 1.192-1.036-.026-2.17-.046-3.367-.05-2.14 2.42-3.36 3.82-3.556 4.088-1.81 2.45-3.018 4.367-3.62 5.742-.354.89-.53 1.785-.53 2.68 0 2.003 1.29 3.937 3.883 5.797 4.638 3.233 10.302 4.85 16.993 4.85 8.738 0 15.823-2.708 21.255-8.118 3.703-3.67 5.556-7.6 5.556-11.786 0-3.04-.98-5.597-2.932-7.673-1.953-2.075-4.56-3.356-7.814-3.838-2.135-.378-6.8-.668-14-.88-3.908-.122-6.35-.27-7.325-.437-1.702-.262-2.844-.695-3.422-1.294-.578-.6-.867-1.217-.867-1.86 0-.744.27-1.653.82-2.723.548-1.07 1.607-2.316 3.178-3.742 2.485.77 4.9 1.152 7.24 1.152 5.762 0 10.356-1.683 13.78-5.058 3.418-3.375 5.132-7.434 5.132-12.177 0-4.15-.996-7.56-2.984-10.23h6.255c1.525 0 2.424-.054 2.698-.165.273-.113.446-.266.52-.453.18-.377.27-1.052.27-2.032m-15.894 14.24c0 4.5-.855 7.8-2.567 9.903-1.71 2.1-3.88 3.15-6.506 3.15-2.775 0-5.078-1.216-6.913-3.65-2.377-3.206-3.565-7.724-3.565-13.55 0-4.496.873-7.836 2.62-10.01 1.747-2.176 3.915-3.263 6.508-3.263 2.772 0 5.042 1.217 6.805 3.65 2.412 3.32 3.618 7.91 3.618 13.77"/><path d="M232.282 46.984c-.037 7.57 1.687 13.505 5.176 17.81 3.482 4.304 7.58 6.455 12.288 6.455 3.124 0 5.837-.905 8.14-2.715 2.297-1.81 4.24-4.983 5.822-9.512l1.644 1.116c-.76 5.19-2.907 9.878-6.438 14.058-3.533 4.18-7.958 6.27-13.283 6.27-5.795 0-10.744-2.388-14.856-7.16-4.112-4.773-6.166-11.193-6.166-19.258 0-8.732 2.11-15.542 6.328-20.427 4.22-4.886 9.517-7.33 15.89-7.33 5.395 0 9.834 1.88 13.31 5.63 3.477 3.754 5.216 8.775 5.216 15.06h-33.07zm0-3.197h22.108c-.18-3.257-.558-5.55-1.13-6.884-.864-2.07-2.154-3.697-3.876-4.882-1.72-1.183-3.513-1.777-5.376-1.777-2.872 0-5.444 1.193-7.723 3.58-2.278 2.386-3.61 5.708-4.003 9.964"/></svg>