<svg xmlns="http://www.w3.org/2000/svg" width="400" height="162.532"><g fill="#ee9124" fill-rule="evenodd"><path d="M273.973 98.802c23.552-34.15 46.882-15.064 10.153-.722 0 0-12.567 4.228-10.153.722m-211.38-33.51l16.038-37.767c10.39-1.94 19.702-3.232 26.642-3.102 17.073-1.673 22.542 16.393-4.14 28.193-12.522 5.518-25.326 9.916-38.538 12.675m82.078 19.894c-.44 7.464 1.04 12.727 6.746 13.166l-4.445 3.62c-14.73 12.617-21.15 3.293-6.417-11.85 1.37-1.646 2.743-3.29 4.116-4.936m14.644 4.113c-5.21-1.426-5.813-6.362-1.81-14.81 4.224-1.315 8.117 1.26 6.747 7.24l-4.937 7.57zm45.882-20.7l12.22-20.208c18.994-32.38 26.734-18.55 4.354 5.928-5.523 5.565-11.052 10.324-16.574 14.278m101.403 63.67c-8.606 47.714-67.923 34.088-60.402-6.748l-.088.02c-15.98-.48-21.85-6.76-16.408-25.65-33.35 33.895-52.527 27.735-52.642-1.508-3.38.845-6.388 1.616-6.388 1.616-15.642 26.9-38.84 25.1-48.374 11.27-11.227 16.494-30.02 20.317-34.355 7.31l-3.102-23.28c1.812-13.54-12.5-12.85-34.145-5.69l-9.57 19.66c-3.427 9.264-8.9 11.164-15.778 8.014-8.708-1.08-9.83-5.474-7.5-11.38l6.983-17.33-8.794-1.812 1.294-16.813 16.294.52 21.468-37.508L0 49.77c17.316-15.41 38.896-27.094 67.25-32.85C79.406-.927 92.34-8.945 84.32 14.593c74.837-11.726 67.423 33.195 4.136 60.268 10.446 2.296 14.994 9.777 17.074 33.364 5.175 1.296 9.313-.856 12.415-6.463.124-.215.24-.425.356-.618-1.13-7.133.53-15.588 6.292-24.35 12.028-16.526 26.92-22.367 43.773-20.9l-1.48 6.252c9.282-.394 12.053 7.804 10.366 21.888l3.198-.154c8.054-26.655 20.468-49.907 43.022-65.25 29.438-13.92 30.465 12.752 5.913 38.607-10.638 12.192-21.59 24.072-33.31 35.18-11.678 20.382 8.437 20.47 18.142 3.914l33.54-42.833-7.784-4.98 5.604-8.72 9.652 2.493c32.728-54.828 41.38-42.345 17.748-.312l57.595-3.113-9.337 14.632c-18.37.21-36.742.416-55.108.625-8.123 15.385-15.578 33.658-22.728 53.24-5.054 10.69 2.447 10.18 5.328 9.362 1.24-3.203 2.876-6.535 4.947-9.987l-5.295-9.028 5.92-6.85 4.662 3.113c5.678-9.444 11.624-16.22 17.75-21.172 38.6-28.64 54.505 40.82-10.9 41.1-23.8 41.165 14.39 40.885 40.788 18.367"/><path d="M351.446 59.077c2.26-4.907 5.644-6.77 6.314-9.34.677-2.574.45-5.386-2.26-6.096-2.706-.71-4.288 1.625-4.965 4.197-.67 2.574 1.36 5.857.91 11.24m-25.026 64.578l-22.34-.73 37.15-53.18c-11.164-43.142 35.46-45.248 19.674-10.684 15.542-2.386 26.63-5.788 27.923-11.412 4.55.035-13.645 32.025-22.822 47.733-8.352 14.287 5.348 31.415 33.995-5.964-7.856 56.01-86.61 54.96-37.4-12.63l-10.684-.728-25.497 47.597z"/></g></svg>