<svg xmlns="http://www.w3.org/2000/svg" xmlns:xlink="http://www.w3.org/1999/xlink" width="400" height="96.905"><defs><linearGradient x2="1" gradientUnits="userSpaceOnUse" gradientTransform="matrix(0 -30.52 -30.52 0 36.81 60.3)" id="a"><stop offset="0" stop-color="#00ade4"/><stop offset="1" stop-color="#e0f2fd"/></linearGradient><linearGradient xlink:href="#a" id="b" gradientUnits="userSpaceOnUse" gradientTransform="matrix(0 -57.8 -57.8 0 65.76 110.5)" x2="1"/></defs><path d="M281.923 32.315h-8.52V17.313h1.907V30.7h6.613v1.615zM283.65 32.315h1.91V17.313h-1.91v15.002zM318.1 24.53h1.37c1.214 0 2.158-.278 2.807-.815.653-.544.973-1.22.973-2.07 0-.972-.27-1.675-.8-2.098-.545-.436-1.46-.654-2.727-.654H318.1v5.636zm8.286 7.785h-2.265l-3.777-6.297c-.208.014-.755.024-2.242.033v6.265h-1.91V17.312h4.14c1.585 0 2.813.388 3.63 1.134.824.758 1.245 1.844 1.245 3.226 0 .916-.327 1.77-.96 2.538-.576.698-1.25 1.18-2 1.43l4.14 6.675zM336.38 32.315h-8.437V17.313h8.16v1.61h-6.252v4.686h4.986v1.544h-4.985V30.7h6.53v1.615zM340.295 24.53h1.37c1.215 0 2.16-.278 2.81-.815.65-.544.966-1.22.966-2.07 0-.972-.264-1.675-.797-2.098-.542-.436-1.46-.654-2.724-.654h-1.625v5.636zm8.287 7.785h-2.27l-.045-.08-3.733-6.217c-.206.014-.753.024-2.24.033v6.265h-1.91V17.312h4.14c1.59 0 2.813.388 3.632 1.134.823.758 1.242 1.844 1.242 3.226 0 .916-.326 1.77-.956 2.538-.58.698-1.255 1.18-2.007 1.43l4.147 6.675zM294.276 32.55c-1.88 0-3.4-.743-4.51-2.21-1.107-1.45-1.66-3.357-1.66-5.648 0-2.128.537-3.977 1.588-5.47 1.07-1.52 2.665-2.294 4.74-2.294 2.086 0 3.253.65 4.33 1.823l-1.22 1.267c-.922-1.004-1.96-1.423-3.197-1.423-1.325 0-2.376.573-3.117 1.705-.755 1.163-1.14 2.555-1.14 4.15 0 2.072.43 3.705 1.28 4.8.845 1.085 1.806 1.64 2.857 1.64 1.66 0 2.72-.465 3.666-1.928l1.406 1.05c-1.33 1.675-2.465 2.54-5.024 2.54M313.705 24.737c0 4.29-2.684 7.814-6.644 7.814-3.964 0-6.648-3.524-6.648-7.813 0-4.293 2.684-7.818 6.65-7.818 3.96 0 6.643 3.524 6.643 7.817m-11.307 0c0 3.395 1.903 6.136 4.656 6.136 2.752 0 4.656-2.74 4.656-6.136 0-3.4-1.904-6.144-4.656-6.144-2.753 0-4.656 2.743-4.656 6.144M353.44 25.86h3.87l-1.895-6.037-1.974 6.038zm7.96 6.456h-2.096l-1.565-5.004h-4.73l-1.572 5.004h-1.92l5.13-15.003h1.77l4.98 15.003zM44.22 88.56v7.465h.726c1.072 0 1.905-.33 2.518-.99.604-.655.904-1.625.904-2.93 0-1.14-.284-1.988-.845-2.61-.582-.606-1.425-.935-2.554-.935h-.75zm.943-.753c1.43 0 2.507.37 3.205 1.188.7.758 1.05 1.81 1.05 3.14 0 1.478-.373 2.62-1.107 3.43-.74.794-1.82 1.21-3.21 1.21h-1.847v-8.968h1.91zM55.81 88.606h-3.826v3.06h3.053v.736h-3.053v3.582h3.99v.79H51.02v-8.968h4.79v.8zM56.91 95.642c.837.883 1.753 1.262 3.093 1.262 1.36 0 2.954-.68 2.954-2.533 0-1.755-1.155-2.09-2.682-2.71-1.71-.714-2.194-1.107-2.194-1.926 0-.753.784-1.323 1.84-1.323.874 0 1.368.27 2.09.884l.566-.632c-.74-.767-1.49-1.115-2.672-1.115-1.36 0-2.805.712-2.805 2.28 0 1.424.986 2.07 2.586 2.686 1.742.65 2.25 1.008 2.25 1.988 0 .99-.723 1.585-1.928 1.585-.88 0-1.603-.35-2.358-1.122l-.74.68zM65.224 88.56v7.465h.724c1.07 0 1.9-.33 2.505-.99.603-.655.9-1.625.9-2.93 0-1.14-.283-1.988-.84-2.61-.572-.606-1.417-.935-2.54-.935h-.75zm.937-.753c1.43 0 2.496.37 3.194 1.188.72.758 1.066 1.81 1.066 3.14 0 1.478-.367 2.62-1.125 3.43-.738.794-1.803 1.21-3.193 1.21h-1.846v-8.968h1.905zM76.807 88.606h-3.82v3.06h3.063v.736h-3.063v3.582h3.98v.79h-4.953v-8.968h4.793v.8zM86.435 95.99v-7.152l-1.697.87.002-.95 1.865-.952h.8v8.183h1.506v.785H84.8v-.786h1.635zM93.788 91.57c.743-.33 1.657-.938 1.657-1.703 0-.928-.73-1.515-1.787-1.515-1 0-1.78.53-1.78 1.447 0 1.038 1.186 1.492 1.91 1.77m-.6.674c-.823.466-1.545.878-1.545 2.076 0 1.164.923 1.8 2.053 1.8 1.275 0 2.028-.676 2.028-1.758 0-1.444-1.63-1.84-2.535-2.118m1.386-.332c1.328.564 2.1 1.18 2.1 2.427 0 1.793-1.248 2.565-3.014 2.565-1.822 0-2.968-.843-2.968-2.585 0-1.025.587-1.816 1.854-2.488-.886-.447-1.59-.928-1.59-2.08 0-1.5 1.317-2.204 2.7-2.204 1.403 0 2.71.72 2.71 2.26 0 1.23-1.018 1.85-1.792 2.104M98.508 90.617c0 1.216.632 2.057 1.948 2.057.765.014 1.404-.18 1.84-.762.288-1.726-.273-3.506-1.818-3.506-1.182 0-1.97.847-1.97 2.21m-.175 5.114c.644.286 1.058.357 1.558.357 1.5 0 2.16-1.304 2.377-3.22-.372.37-1.236.65-1.872.65-1.797 0-2.853-1.097-2.853-2.872 0-1.62.886-3.098 3.078-3.098 1.83 0 2.738 1.42 2.738 3.898 0 3.74-1.214 5.46-3.652 5.46-.568 0-1.162-.09-1.707-.31l.333-.865zM107.3 96.086c.612 0 1.07-.29 1.362-.892.308-.578.457-1.636.457-3.182 0-1.067-.117-1.907-.354-2.61-.23-.666-.726-.985-1.474-.985-.732 0-1.226.32-1.477.994-.25.71-.372 1.6-.37 2.718 0 1.553.152 2.614.45 3.14.306.55.767.818 1.404.818m-.048.82c-.97 0-1.68-.408-2.145-1.213-.46-.8-.693-2.012-.693-3.574 0-1.374.24-2.47.714-3.28.474-.863 1.198-1.292 2.17-1.292.908 0 1.625.388 2.112 1.146.49.73.732 1.95.732 3.595 0 1.58-.25 2.743-.753 3.486-.5.75-1.225 1.13-2.138 1.13" fill="#1e5740"/><path d="M4.416 48.916c0-18.25 27.492-32.72 61.346-32.72 33.852 0 61.342 14.47 61.342 32.72s-27.49 32.72-61.342 32.72c-33.854 0-61.346-14.47-61.346-32.72" fill="url(#b)" transform="matrix(1.25 0 0 -1.25 -5.52 102.05)"/><path d="M17.442 37.207c.028-.048 1.063-1.78 2.615-4.017.13.06.256.123.365.2l4.02 2.688c.115.518.243 1.07.378 1.66l.84 3.666s.19-1.695.69-4.053l3.39 2.27c-.36 5.11-.622 9.465-.797 13.17l-22.427.288c-2.152-3.31-3.452-6.815-3.766-10.448l7.013-4.692 6.798-4.55c.13-.087.264-.158.41-.227-.26 2.063-.272 3.696-.272 3.848v1.446l.744-1.247zM49.658 41.664c-.187 3.074-.357 6.665-.438 10.568-4.137.074-7.792.213-10.706.438l-2.803.038c-.062-2.016-.133-3.463-.138-3.84-.033-1.88-.076-3.682-.137-5.415l9.87 6.66c.447.297 1.335.597 1.887.602l-4.458-3.278c1.085-.656 3.688-2.874 6.924-5.773M57.337 41.66c.017-.04 1.22-2.044 2.585-3.556l.1.156-.133.177c-.48.684-.274 1.596.145 3.416l.303 1.335s.183-1.62.736-3.27l.327.543c-.112 3.82-.053 8.842-.006 11.69-2.68-.005-5.274.004-7.745.02-.04-4.19-.11-9.332-.242-13.917.433-.398.883-.81 1.325-1.222.904 2.752 1.207 5.42 1.207 5.42l.514-2.275c.208-.897.383-1.66.51-2.325.562-.412 1.23-.866 1.914-1.245l.066.088c-.248.163-.466.33-.634.48-1.23 1.115-1.248 4.278-1.248 4.408v.53l.275-.45zM93.21 38.437l-.135-.176.102-.157c1.368 1.512 2.568 3.52 2.587 3.555l.27.455v-.533c0-.13-.014-3.29-1.247-4.405-.17-.154-.384-.32-.63-.48l.064-.088c.685.38 1.355.83 1.918 1.243.126.665.296 1.427.502 2.324l.516 2.275s.248-2.2.973-4.66c.536.434 1.062.864 1.578 1.288-.067 2.332-.135 4.637-.16 5.757-.027 1.197-.113 4.327-.177 7.484-2.408.014-4.936.018-7.556.014.06-2.848.018-7.947-.147-11.812l.355-.606c.554 1.65.736 3.274.736 3.274l.305-1.338c.417-1.82.625-2.73.147-3.415M107.986 48.603l9.364-6.32c-.043 2.085-.088 4.277-.12 6.583-.015.935-.034 1.832-.048 2.7l-1.12.112c-2.88.324-6.995.494-11.875.582-.05-3.686-.21-7.01-.42-9.88h.005c.42.348.826.675 1.207.985 1.692 1.372 2.99 2.428 3.675 2.982l.164.13c.155.128.264.22.323.263l.045.04.092.076.01.005-3.19 2.354c.55-.01 1.438-.315 1.886-.61M123.346 38.247l.005-.01 3.128-2.09c.705 2.97.963 5.258.963 5.258l.84-3.667c.278-1.238.527-2.31.72-3.27l3.357-2.245c1.93 2.687 3.267 4.933 3.3 4.985l.74 1.247V37.01c0-.2-.007-2.725-.53-5.514.315.085.61.213.862.386l6.8 4.542 7.16 4.796c-.057 3.416-.978 6.727-2.67 9.88-2.753.253-6.84.128-10.822.03-3.854-.1-8.26-.193-12.964-.03-.225-3.648-.52-7.9-.888-12.853M84.824 32.274c.03 0 2.55.107 3.787 1.22-.764-.4-1.668-.683-2.136-.683-1.096 0-3.826 1.992-3.94 2.077l-.596.438.713-.18c.027-.004 2.36-.577 4.285-.577.25 0 .483.01.696.026h-.165c-1.096 0-2.156.187-2.592.45-1.08.665-2.165 3.685-2.213 3.813l-.182.532.42-.375c.025-.028 2.783-2.438 4.877-3.08-.788.33-1.6.82-2.064 1.24-1.23 1.114-1.24 4.276-1.24 4.406v.53l.268-.45c.022-.048 2.072-3.473 3.866-4.735-.39.38-.878.897-1.31 1.513-.48.684-.27 1.593.138 3.415l.31 1.335s.355-3.162 1.58-5.143c-.162 1.728-.328 3.425-.744 14.276-3.7-.018-7.52-.052-11.357-.082-4.37-.033-8.753-.067-12.99-.086-.433-11.1-.6-12.666-.783-14.585 1.494 1.905 1.905 5.62 1.905 5.62l.31-1.334c.415-1.822.625-2.73.14-3.415-.433-.616-.91-1.134-1.306-1.513 1.79 1.262 3.84 4.687 3.867 4.734l.268.45v-.53c0-.13-.013-3.29-1.242-4.406-.464-.42-1.276-.91-2.064-1.238 2.093.64 4.85 3.05 4.88 3.08l.417.373-.183-.533c-.045-.128-1.134-3.148-2.21-3.813-.432-.263-1.5-.45-2.598-.45h-.162c.216-.017.445-.026.7-.026 1.918 0 4.255.573 4.28.577l.71.18-.59-.438c-.115-.085-2.84-2.076-3.94-2.076-.475 0-1.38.283-2.137.685 1.234-1.114 3.757-1.22 3.788-1.22l.736-.025-.698-.253c-.07-.033-1.834-.674-3.172-.674-.46 0-.816.078-1.077.234-.296.175-.513.426-.698.708-.356-.74-.768-1.503-1.204-2.16 5.423-5.102 9.828-9.332 9.828-9.332 2.034-2.128 3.262-1.9 4.884-.61l.026.023 13.305 11.14c-.167.31-.326.624-.477.94-.187-.283-.41-.534-.703-.71-.258-.155-.616-.233-1.077-.233-1.333 0-3.1.64-3.177.674l-.688.253.736.024" fill="#009c48"/><path d="M71.315 52.195l5.906.043c-1.97-.015-3.943-.03-5.905-.043" fill="#009c48"/><path d="M96.634 77.52l-3.497-5.82c-.125-.218-.02-.393.223-.393h1.77c.25 0 .337-.166.187-.365L94.3 69.494c-.157-.19-.49-.346-.74-.346h-1.443c-.248 0-.55-.18-.672-.393l-2.3-3.995c-.13-.216-.027-.398.224-.398h1.116c.062-.637-.906-1.8-.906-1.8-.152-.19-.29-.36-.317-.36h-1.141c-1.735-1.038-2.57-3.686-2.57-3.686-.126-.214-.022-.39.222-.39l1.195-.022c.243 0 1.012-.15.877-.353l-.923-1.407c-.137-.21-.27-.38-.3-.38h-.507s-1.8.065-2.26-.387c0 0-1.343-1.208-.645-2.143l5.423.214c.104.46.37.98 1 1.036 1.164.11 2.1-.182 2.132-.778.007-.088.007-.176.014-.277l7.57-.277c-.065 3.658-.094 7.348.05 7.55 1.25 1.748 4.796 1.268 4.71-1.165.065-2.136.09-4.448.08-6.408l12.956-.06c-.24 11.992-.662 17.522-.085 19.67-6.21 2.09-13.065 3.724-20.38 4.782-.01-.093-.03-.17-.046-.2M57.832 71.307h1.81c.25 0 .348.175.22.393l-3.626 5.955c-7.648-1.133-14.798-2.895-21.218-5.17 1.044-4.087.89-13.368.727-18.81L49.2 53.61c-.034 2.08-.01 4.46.016 6.667.648 1.784 4.445 1.562 4.51.518 0 0-.03-3.122-.065-7.208l7.758-.047c.052.568.324 1.174 1.912.966.758-.097.93-.618.957-.98l5.818-.026c.106.165.135.47.045.622l-.85 1.454c-.126.215-.426.388-.672.388h-1.892c-.25 0-.56.17-.698.38l-.918 1.407c-.138.205-.045.377.2.377h2.034c.256 0 .353.175.225.39l-1.93 3.298c-.125.208-.433.388-.68.388h-.863c-.25 0-.578.168-.722.358l-1.09 1.447c-.148.2-.065.355.18.355h1.232c.246 0 .345.182.22.398l-2.34 4c-.124.208-.43.388-.676.388h-1.613c-.25 0-.56.166-.706.37l-.952 1.415c-.147.208-.053.374.194.374M82.383 58.126c.246 0 .556.176.674.39l2.41 3.807c.12.213.02.388-.227.388l-16.858-.505c-.25 0-.348-.182-.223-.388l1.933-3.302c.126-.213.43-.39.68-.39h11.61zM71.475 56.157l1.193-2.033c.125-.218.43-.388.677-.388h6.51c.25 0 .553.175.678.392l.788 1.86c.125.216.023.387-.228.387l-9.393.175c-.244 0-.35-.175-.225-.393M63.763 69.088l2.68-4.327c.125-.217.426-.397.672-.397h18.858c.248 0 .55.18.677.398l2.3 3.994c.12.213.022.384-.224.38l-24.733.347c-.256 0-.353-.18-.23-.392M7.017 53.813l21.885-.106c-.352 7.96-.33 12.945.1 16.417-9.87-4.31-17.528-9.913-21.985-16.31M58.446 77.97l3.927-6.27c.128-.217.438-.392.682-.39l26.963.076c.248.005.928.19 1.053.402l3.61 6.204c-5.763.748-11.792 1.146-17.998 1.146-6.29 0-12.4-.407-18.236-1.17M124.467 70.082c.455-2.93.395-8.216-.11-16.856l22.47-.11c-4.36 6.664-12.186 12.51-22.36 16.966" fill="#9ec539"/><path d="M124.467 70.082c.455-2.93.395-8.216-.11-16.856l22.47-.11c-4.36 6.664-12.186 12.51-22.36 16.966m-66.02 7.887l3.926-6.27c.127-.217.438-.392.684-.387l26.96.073c.25.005.928.19 1.056.402l3.605 6.204c-5.76.748-11.79 1.146-17.994 1.146-6.292 0-12.404-.407-18.238-1.17M7.016 53.814l21.887-.106c-.355 7.96-.33 12.945.1 16.417-9.87-4.31-17.53-9.913-21.986-16.31m9.9-35.433c.21-.027.385-.04.472-.04.286-.01.37.04.132.19-2.956 1.81-5.634 10.678-5.757 11.026l-.516 1.44 1.15-1.005c.085-.074 7.63-6.662 13.336-8.413-2.143.9-4.368 2.232-5.632 3.384-1.178 1.074-1.95 2.83-2.454 4.68-.313.174-.672.392-1.09.668L2.69 40.1c.327-8.104 5.565-15.603 14.228-21.72M122.5 10.897c-.836.985-1.484 2.4-1.882 3.284l-.033.073-.038-.073c-.75-1.665-1.6-3.546-3.31-4.597-.69-.424-1.68-.637-2.94-.637-3.646 0-8.473 1.766-8.676 1.84l-1.895.702 2.02.07c.08 0 6.97.283 10.35 3.325-2.08-1.092-4.557-1.86-5.844-1.86-3.003 0-10.46 5.45-10.774 5.687l-1.622 1.184 1.95-.48c.065-.02 6.45-1.587 11.713-1.587.684 0 1.318.03 1.903.078-.16-.005-.315-.005-.454-.005-2.985 0-5.904.51-7.092 1.236-1.297.79-2.597 2.838-3.66 4.9-.307.49-.55 1.025-.778 1.524l-.02.052-.025-.052c-.463-1.03-.99-2.2-2.05-2.847-.432-.263-1.045-.398-1.824-.398-2.26 0-5.257 1.1-5.383 1.143l-1.17.433 1.244.044c.052 0 4.324.175 6.42 2.062-1.29-.675-2.822-1.15-3.62-1.15-1.536 0-4.95 2.295-6.21 3.183-5.43-4.868-7.13-6.55-9.87-9.03-2.95-2.676-5.46-2.195-6.807-.993-.454.402-4.44 4.21-9.36 8.988-1.54-.99-3.576-2.15-4.665-2.15-.8 0-2.336.476-3.626 1.15 2.094-1.886 6.37-2.06 6.418-2.06l1.253-.044-1.176-.432c-.125-.042-3.12-1.143-5.385-1.143-.775 0-1.395.135-1.82.398-1.06.648-1.587 1.818-2.053 2.847l-.022.052-.023-.052c-.227-.502-.47-1.044-.786-1.538-1.06-2.057-2.358-4.095-3.652-4.886-1.19-.727-4.1-1.236-7.092-1.236-.142 0-.29 0-.45.005.58-.05 1.214-.078 1.9-.078 5.265 0 11.644 1.567 11.713 1.586l1.948.48-1.617-1.183c-.32-.237-7.778-5.686-10.78-5.686-1.284 0-3.76.767-5.84 1.86 3.38-3.043 10.27-3.327 10.35-3.327l2.02-.07-1.897-.702c-.204-.073-5.03-1.84-8.68-1.84-1.258 0-2.247.214-2.94.638-1.705 1.05-2.56 2.932-3.31 4.597l-.035.073-.033-.073c-.448-.98-.994-2.21-1.8-3.205C43.32 5.78 59.315 2.67 76.685 2.67c17.284 0 33.204 3.076 45.816 8.226m28.064 27.75l-13.49-9.497c-.483-.326-1.177-.423-1.89-.38-.494-1.517-1.2-2.91-2.19-3.81-1.262-1.15-3.485-2.482-5.632-3.384 5.716 1.752 13.25 8.34 13.338 8.415l1.15 1.007c-1.637-6.708-3.88-10.53-6.147-12.66.154.02.488.072.89.146 8.058 5.728 13.12 12.66 13.97 20.162m-27.218-.397l.005-.01 3.13-2.09c.702 2.968.963 5.257.963 5.257l.838-3.666c.278-1.242.526-2.314.718-3.27l3.36-2.247c1.928 2.687 3.268 4.933 3.298 4.983l.74 1.25v-1.45c0-.198-.006-2.72-.53-5.51.316.084.61.214.865.384l6.8 4.545 7.16 4.795c-.055 3.416-.978 6.725-2.67 9.878-2.754.256-6.84.13-10.823.033-3.853-.1-8.258-.193-12.964-.032-.223-3.647-.518-7.9-.888-12.85m-.9-11.914c1.68 2.275 2.84 5.38 3.613 8.183l-2.833 2.08c-.232-3.14-.495-6.556-.78-10.263m-14.46 22.27l9.365-6.32c-.043 2.085-.088 4.274-.12 6.582-.015.935-.034 1.832-.048 2.7l-1.12.112c-2.88.322-6.995.495-11.875.582-.05-3.685-.21-7.008-.42-9.88h.005c.42.346.826.675 1.208.985l3.676 2.982c.054.045.108.093.163.128.155.13.264.223.323.265.026.026.045.04.045.04.03.03.06.062.092.074.003.005.01.005.01.005l-3.19 2.354c.55-.01 1.438-.315 1.885-.61m-1.195-13.427c.107-.16.215-.324.33-.5 1.992 2.406 3.614 5.123 3.642 5.17l.457.772v-.903c0-.222-.023-5.572-2.11-7.465-.06-.057-.13-.11-.194-.173 2.028-2.806 4.682-6.06 7.162-7.805-1.077 1.037-2.4 2.457-3.58 4.137-1.315 1.875-.747 4.365.392 9.327l.833 3.665s1-8.89 4.474-14.3c-.41 3.182-.654 7.966-.807 13.796l-7.582 5.58c-2.232-1.93-4.265-3.707-6.133-5.34-.267-3.295-.587-5.903-.826-7.636 2.19 3.352 2.818 8.945 2.818 8.945l.516-2.276c.56-2.435.895-3.91.606-4.997m-13.58 3.26c-.045-.062-.094-.12-.135-.175.03-.057.07-.102.102-.16 1.368 1.514 2.568 3.52 2.587 3.556l.27.455v-.533c0-.13-.016-3.292-1.247-4.405-.168-.154-.384-.32-.63-.48.02-.03.043-.062.064-.09.685.38 1.355.833 1.918 1.245.126.665.296 1.427.502 2.324l.516 2.275s.25-2.202.973-4.662c.536.436 1.062.867 1.578 1.29-.066 2.332-.137 4.637-.16 5.757-.027 1.198-.112 4.327-.18 7.485-2.406.014-4.936.018-7.554.014.06-2.848.02-7.946-.15-11.812l.358-.606c.554 1.65.736 3.274.736 3.274l.306-1.337c.416-1.82.624-2.732.146-3.416m-29.448 30.65l2.68-4.326c.125-.217.428-.397.672-.397h18.858c.25 0 .554.18.677.398l2.3 3.994c.123.213.02.386-.225.38l-24.733.347c-.254 0-.35-.18-.23-.392m7.712-12.93l1.193-2.035c.125-.218.43-.388.677-.388h6.512c.25 0 .553.175.676.393l.79 1.858c.122.218.02.388-.23.388l-9.393.175c-.245 0-.352-.176-.226-.393m10.91 1.97c.246 0 .556.174.674.387l2.407 3.81c.12.212.02.39-.224.39l-16.858-.51c-.248 0-.35-.18-.222-.388l1.93-3.302c.13-.213.435-.388.68-.388h11.614zm2.44-25.854c.03 0 2.55.107 3.785 1.222-.763-.403-1.67-.685-2.136-.685-1.096 0-3.825 1.993-3.94 2.076l-.595.438.71-.18c.027-.004 2.36-.577 4.283-.577.25 0 .485.01.698.028h-.164c-1.096 0-2.157.185-2.592.448-1.082.667-2.166 3.685-2.214 3.815l-.182.53.42-.374c.025-.028 2.783-2.435 4.878-3.08-.79.33-1.6.82-2.064 1.24-1.234 1.114-1.243 4.276-1.243 4.406v.533l.27-.455c.02-.045 2.07-3.472 3.864-4.734-.393.38-.88.897-1.31 1.513-.48.684-.27 1.595.138 3.416l.31 1.337s.356-3.162 1.582-5.146c-.164 1.728-.33 3.425-.746 14.276-3.7-.02-7.52-.05-11.357-.083-4.37-.033-8.752-.064-12.99-.083-.432-11.102-.6-12.67-.783-14.586 1.49 1.903 1.906 5.622 1.906 5.622l.31-1.337c.414-1.82.625-2.732.14-3.416-.434-.616-.912-1.134-1.307-1.513 1.792 1.262 3.842 4.69 3.868 4.734l.267.455v-.533c0-.13-.013-3.292-1.242-4.405-.466-.42-1.275-.91-2.064-1.24 2.09.644 4.85 3.05 4.88 3.08l.418.373-.185-.53c-.045-.13-1.134-3.148-2.21-3.815-.432-.263-1.5-.448-2.6-.448h-.158c.214-.02.444-.028.697-.028 1.92 0 4.256.573 4.282.577l.707.18-.592-.438c-.11-.083-2.838-2.076-3.94-2.076-.472 0-1.376.282-2.134.685 1.234-1.115 3.758-1.222 3.788-1.222l.736-.02-.698-.257c-.068-.033-1.834-.674-3.172-.674-.46 0-.816.078-1.077.236-.295.175-.513.424-.7.706-.353-.74-.765-1.5-1.2-2.16 5.423-5.102 9.828-9.332 9.828-9.332 2.03-2.126 3.26-1.9 4.88-.61l.03.023s13.238 11.087 13.304 11.14c-.167.31-.325.626-.477.94-.187-.283-.41-.532-.703-.707-.258-.158-.618-.236-1.077-.236-1.332 0-3.098.64-3.176.674l-.692.256.74.02zm-27.486 9.385c.014-.035 1.22-2.042 2.582-3.555.036.057.07.102.1.16-.038.053-.09.112-.13.174-.48.684-.275 1.595.144 3.416l.303 1.337s.182-1.624.738-3.274l.325.545c-.114 3.82-.052 8.842-.007 11.69-2.678-.006-5.272.004-7.743.023-.04-4.195-.11-9.336-.244-13.92.436-.398.883-.81 1.328-1.222.904 2.75 1.207 5.42 1.207 5.42l.515-2.276c.206-.897.383-1.66.507-2.324.565-.412 1.233-.864 1.917-1.245.02.028.04.06.063.09-.246.16-.464.326-.632.48-1.232 1.113-1.25 4.275-1.25 4.405v.533l.278-.455zm-9.833.247c.223-1.508.978-5.738 2.774-8.448-.138 1.47-.32 3.598-.498 6.208-.802.786-1.56 1.532-2.277 2.24m2.152-.242c-.187 3.075-.358 6.668-.436 10.57-4.136.072-7.79.212-10.707.44l-2.8.035c-.067-2.015-.138-3.463-.142-3.842-.03-1.877-.075-3.68-.134-5.413l9.87 6.66c.448.296 1.335.597 1.884.602l-4.454-3.276c1.084-.66 3.685-2.877 6.92-5.777m-7.318-1.815c.024-.048 1.647-2.765 3.64-5.17.12.175.228.34.33.495-.292 1.09.047 2.566.603 5l.434 1.888c-2.485 2.432-4.37 4.278-5.113 5.007l-6.85-5.044c-.27-7.096-.75-12.792-1.324-16.1 4.16 5.176 5.318 15.482 5.318 15.482l.836-3.666c.336-1.467.62-2.712.824-3.79.89-.678 1.93-1.426 2.99-2.086.054.073.108.146.163.215-.07.06-.14.115-.2.172-2.085 1.893-2.11 7.243-2.11 7.465v.902l.46-.772zm-15.596-4.19c.783-3.143 2.064-6.902 4.052-9.506-.365 4.31-.672 8.235-.933 11.804l-3.118-2.298zm-9.3 1.548c.028-.045 1.062-1.78 2.617-4.017.127.058.253.125.362.198l4.02 2.69c.115.52.243 1.07.378 1.66l.84 3.667s.19-1.697.69-4.055l3.39 2.27c-.36 5.108-.622 9.464-.797 13.17l-22.428.287c-2.15-3.31-3.45-6.815-3.766-10.448l7.013-4.693 6.798-4.55c.13-.087.264-.155.41-.226-.26 2.062-.27 3.696-.27 3.847v1.45l.742-1.25zm40.39 34.102h1.81c.25 0 .35.175.222.393l-3.627 5.954c-7.65-1.13-14.798-2.893-21.218-5.167 1.04-4.088.89-13.372.723-18.813l13.455-.064c-.033 2.08-.01 4.46.02 6.665.645 1.785 4.444 1.565 4.505.52 0 0-.028-3.12-.06-7.21l7.753-.044c.055.57.327 1.175 1.915.967.756-.097.93-.62.955-.98l5.818-.03c.11.167.138.472.048.626l-.85 1.45c-.125.22-.425.39-.674.39h-1.89c-.25 0-.56.17-.7.378l-.915 1.412c-.14.203-.047.374.2.374h2.035c.253 0 .35.175.225.388l-1.93 3.302c-.125.208-.432.388-.68.388h-.862c-.25 0-.578.166-.725.355l-1.09 1.448c-.145.2-.062.355.18.355h1.235c.243 0 .343.18.22.398l-2.34 4c-.124.207-.43.387-.678.387h-1.612c-.25 0-.564.168-.706.37l-.953 1.415c-.148.208-.054.376.193.376m38.8 6.213L93.14 71.7c-.128-.217-.024-.392.22-.392h1.77c.25 0 .336-.168.187-.367L94.3 69.496c-.157-.19-.49-.348-.742-.348h-1.44c-.25 0-.55-.18-.673-.393l-2.3-3.993c-.13-.217-.027-.397.224-.397h1.116c.06-.64-.907-1.804-.907-1.804-.152-.19-.29-.356-.318-.356H88.12c-1.734-1.04-2.57-3.69-2.57-3.69-.125-.213-.02-.388.223-.388l1.195-.024c.247 0 1.014-.147.88-.35l-.922-1.41c-.14-.21-.272-.38-.3-.38h-.51s-1.8.067-2.258-.388c0 0-1.344-1.207-.646-2.14l5.423.213c.104.462.37.98 1 1.035 1.163.11 2.1-.18 2.13-.777.01-.087.01-.175.016-.276l7.573-.278c-.07 3.657-.095 7.344.047 7.548 1.25 1.747 4.796 1.266 4.71-1.165.067-2.135.088-4.447.08-6.407l12.956-.062c-.24 11.994-.663 17.524-.085 19.668-6.21 2.095-13.065 3.726-20.377 4.786-.014-.092-.033-.173-.05-.2M76.683.007C34.364.006.002 18.09.002 40.906c0 22.81 34.363 40.9 76.684 40.9 42.313 0 76.677-18.09 76.677-40.9 0-22.816-34.363-40.9-76.676-40.9" fill="#1e5740"/><path d="M51.667 31.89c-.374.296-.72.656-1.04 1.068l-.707 27.595c0 .397.968.726 1.697.726.73 0 1.695-.33 1.695-.727l-.715-27.733c-.29-.357-.597-.677-.93-.93M62.834 36.962c-.24.184-.452.416-.65.68l-.422 16.254c0 .24.565.426.99.426.423 0 .986-.185.986-.426l-.424-16.463c-.15-.175-.314-.336-.48-.47M32.5 24.378c-.526.412-1.01.897-1.457 1.446L29.746 70.6c1.5.628 3.044 1.23 4.635 1.798.886-2.65.687-11.21.687-11.21l-1.074-35.32c-.46-.56-.96-1.064-1.494-1.49M120.57 24.378c-.597.466-1.144 1.044-1.648 1.687l-1.202 46.76c1.943-.666 3.825-1.374 5.643-2.13l-1.148-44.63c-.507-.643-1.046-1.22-1.645-1.687M90.235 36.962c-.156.125-.308.272-.445.43l-.426 16.504c0 .24.56.426.987.426.427 0 .986-.185.986-.426l-.417-16.208c-.205-.284-.434-.532-.685-.726M101.402 31.89c-.326.25-.625.542-.9.883l-.712 27.78c0 .397.964.726 1.693.726.73 0 1.694-.33 1.694-.727l-.703-27.548c-.33-.43-.68-.81-1.072-1.115" fill="#d2b1a6"/><path d="M63.52 54.114l.01.023c.095-.052.168-.106.2-.175v-.019h.003l.003-.005V53.92h.002v-.025l-.424-16.462c-.073-.088-.15-.166-.227-.244.083 5.666-.416 11.242.433 16.923M51.99 32.163c-.845 3.977.145 8.446.19 12.446.03 3.03-.007 6.06-.154 9.088-.09 1.792.04 5.972-.978 7.525.187.033.38.052.552.057h.016c.73 0 1.697-.33 1.697-.727L52.6 32.82c-.19-.236-.397-.463-.61-.657M32.932 24.748c-1.783 6.97.66 14.633.165 21.604-.317 4.502.08 8.973-.094 13.475-.15 3.85-.976 8.465.51 12.26.287.103.574.205.86.31.39-1.147.578-3.412.653-5.61.107-2.858.04-5.6.04-5.6l-1.06-34.984-.014-.336c-.33-.407-.684-.78-1.06-1.12M90.746 43.725c.218 3.46-.18 7.004-.27 10.477 0 .04.007.078.01.116.345-.03.73-.164.823-.34h.004v-.008h.003c0-.005.002-.005.002-.005v-.005-.01l.004-.004v-.01h.004v-.007c.005-.005.005-.005.005-.01v-.005s.003 0 .003-.005v-.014l-.417-16.21c-.1-.127-.2-.253-.304-.37-.414 1.92.02 4.657.13 6.41M102.336 47.632c.014 3.013-.137 5.927-.68 8.9-.24 1.304-.345 3.36-1.86 3.76l-.005.262c0 .397.962.726 1.694.726.73 0 1.692-.33 1.692-.726l-.7-27.55c-.12-.16-.25-.313-.38-.457-.304 4.53.22 11.32.24 15.085M121.136 46.388c.213 4.083-.152 8.053-.137 12.117.01 3.865-.24 9.19-.716 13.407 1.04-.393 2.073-.805 3.077-1.214l-1.145-44.633c-.085-.11-.17-.223-.26-.33-1.26 6.84-1.177 13.727-.82 20.653" fill="#a68564"/><path d="M94.22 36.606l-.06.087c.242.16.458.33.626.48 1.233 1.116 1.25 4.278 1.25 4.408v.53l-.273-.45c-.02-.038-1.216-2.046-2.584-3.556l-.103.156.132.175c.193.285.274.597.274.995 0 .582-.175 1.342-.42 2.423l-.304 1.335s-.187-1.62-.74-3.273l-.354.606c.118 2.756.173 6.14.173 8.882 0 1.11-.013 2.114-.027 2.933h2.433c1.76 0 3.475-.005 5.125-.014.062-3.157.15-6.29.176-7.484.026-1.12.095-3.428.16-5.757-.513-.427-1.04-.855-1.578-1.29-.722 2.46-.973 4.66-.973 4.66l-.513-2.275c-.206-.897-.38-1.66-.502-2.327-.566-.41-1.236-.864-1.92-1.242M117.35 42.283l-9.367 6.32c-.445.296-1.332.6-1.882.61l3.19-2.352-.01-.004-.097-.076-.045-.04c-.054-.042-.163-.135-.322-.265l-.16-.128-3.677-2.982c-.386-.31-.79-.64-1.208-.985h-.004c.208 2.87.37 6.195.416 9.88 4.883-.087 8.997-.26 11.878-.582.374-.038.746-.074 1.12-.11.014-.87.03-1.767.044-2.702.036-2.306.08-4.498.124-6.583M135.868 31.497c.523 2.79.53 5.312.53 5.51v1.447l-.74-1.247c-.037-.05-1.372-2.3-3.3-4.983l-3.36 2.246c-.19.957-.44 2.03-.724 3.27l-.833 3.666s-.257-2.29-.962-5.258l-3.127 2.09-.004.01c.367 4.95.658 9.203.887 12.85 1.85-.063 3.662-.087 5.407-.087 2.686 0 5.22.063 7.558.122 2.246.054 4.528.12 6.582.12 1.586 0 3.042-.037 4.24-.153 1.692-3.154 2.613-6.463 2.67-9.88l-7.16-4.795-6.8-4.544c-.254-.17-.548-.3-.863-.383M76.904 20.184c0 .005 5.99 14.392-2.878 23.93-2.523 2.704-3.693 5.488-3.88 8.073.386.002.782.007 1.17.007l5.905.043c3.838.033 7.66.063 11.36.082.413-10.85.576-12.548.744-14.276-1.226 1.983-1.58 5.146-1.58 5.146l-.31-1.338c-.247-1.08-.42-1.84-.42-2.42.005-.4.085-.714.282-.995.428-.616.916-1.134 1.306-1.513-1.792 1.262-3.844 4.69-3.863 4.734l-.273.455v-.533c0-.147.02-3.292 1.245-4.405.464-.42 1.273-.91 2.062-1.24-2.093.644-4.85 3.05-4.88 3.08l-.418.373.185-.53c.048-.13 1.132-3.148 2.212-3.816.435-.262 1.498-.447 2.592-.447h.168c-.216-.02-.448-.028-.7-.028-1.923 0-4.257.572-4.28.577l-.715.18.598-.438c.114-.083 2.84-2.076 3.94-2.076.466 0 1.372.282 2.134.684-1.236-1.115-3.757-1.22-3.788-1.22l-.736-.022.69-.256c.077-.03 1.845-.675 3.178-.675.46 0 .82.08 1.077.238.294.175.517.424.704.708.15-.315.305-.63.475-.94L76.903 20.184" fill="#00844e"/><path d="M162.663 52.306c-.132.05-.286-.092-.286-.227v-8.82c0-.515.644-.635.847-.205.478 1.016.907 1.762 1.648 2.893 1.983 2.92 5.05 5.383 10.055 5.383 2.817 0 6.277-.558 7.783-4.603 1.013-2.734.026-7.042-4.21-8.08-.3-.087-6.802-1.644-9.453-2.42-4.09-1.212-6.824-4.938-6.966-8.89-.162-4.397 2.427-10.5 12.32-10.5 3.088 0 5.09.598 9.46.598 1.475 0 2.336-.26 2.75-.436 0 0 .282-.093.315.198v7.544c0 .416-.563.6-.816.227-2.63-4.337-5.66-6.224-11.268-6.224-5.584 0-7.007 4.258-7.042 6.218-.097 5.17 4.582 6.223 4.582 6.223 3.084.824 7.755 1.76 10.096 2.538 3.306 1.032 6.244 3.943 6.27 9.04.03 5.093-3.645 8.14-5.742 9.004-2.07.896-4.713 1.336-7.95 1.336-4.662 0-8.38-1.058-10.802-1.058-.845 0-1.314.156-1.59.258M217.98 52.482h-25.764c-.208 0-.242-.263-.114-.393 1.323-.967 1.875-2.423 1.875-4.63V22.036c0-1.9-.694-3.182-1.875-4.084-.158-.12-.078-.387.152-.387h24.903s.235-.01.244.218v5.386c0 .38-.465.6-.766.282-2.684-2.732-5.337-4.114-11.55-4.114h-3.42c-.915 0-1.69.762-1.69 1.813v11.56h4.77c4.65 0 7.194-.913 8.95-2.378.213-.188.684-.006.684.358v5.497c0 .367-.38.572-.733.338-1.82-1.22-4.846-1.938-8.957-1.938h-4.715v11.43c0 3.44 1.09 4.755 6.883 4.755 5.437 0 8.812-2.26 11.66-6.06.25-.333.88-.203.795.356l-1.09 7.222s-.064.208-.24.194M241.815 31.322c-.963 1.285-2.636 1.92-5.413 1.92h-5.562c-.247 0-.434-.195-.434-.417v-12.02c0-.852.436-1.36 1.392-1.4 1.406-.063 4.334-.07 5.956.044 1.865.13 3.228.794 4.097 2.06 0 0 1.452 1.847 1.525 4.535.076 2.697-.987 4.427-1.56 5.277m-1.424 3.61c.65-.06 1.272-.147 1.854-.263 4.663-.99 6.942-4.98 6.942-8.442 0-2.322-.956-4.642-2.736-6.275-2.04-1.877-4.156-2.386-6.942-2.386-1.896 0-13.95.01-17.02 0-.234 0-.267.29-.14.386 1.182.904 1.876 2.18 1.876 4.08V47.46c0 2.2-.552 3.662-1.875 4.628-.18.135-.06.393.14.393h9.62c.225 0 .337-.272.13-.414-1.296-.97-1.834-2.424-1.834-4.606V35.473c0-.272.204-.435.44-.435h.912c.963 0 1.62.27 2.41 1.27.745.96 11.084 14.624 12.133 16.007 0 0 .086.12.202.11h8.107c.418 0 .64-.558.23-.823-1.91-1.14-3.294-2.485-5.606-5.084-1.004-1.13-8.275-10.35-8.97-11.234-.087-.107-.063-.315.127-.353" fill="#1e5740"/><path d="M264.826 52.445h-1.616v-34.89h1.616v34.89z" fill="#9ec539"/><path d="M278.035 52.815c-2.206 0-3.756-.573-5.27-2.237l1.448-1.352c1.164 1.28 2.336 1.93 3.832 1.93 1.678 0 3.004-.737 3.004-2.45 0-1.46-.678-1.99-3.587-3.104-2.323-.887-4.325-1.974-4.325-4.535 0-2.528 2.275-3.842 4.74-3.842 1.817 0 3.194.452 4.588 1.91l-1.126 1.29c-1.217-1.06-2-1.536-3.437-1.536-1.584 0-2.836.8-2.836 2.01 0 1.18.582 1.826 3.484 3 2.648 1.073 4.5 1.75 4.5 4.597 0 3.333-2.984 4.318-5.015 4.318M287.66 46.143h3.864l-1.894-6.03-1.97 6.03zm7.942 6.436h-2.088l-1.564-4.99h-4.72l-1.57 4.99h-1.914l5.122-14.968h1.766l.035.107 4.932 14.86zM307.884 52.58h-1.772l-.045-.07-7.06-11.568V52.58h-1.888l-.015-14.966h1.834l.044.074L305.98 49.3V37.614h1.904V52.58zM320.344 46.143h3.858l-1.896-6.03-1.962 6.03zm7.94 6.436h-2.09l-1.564-4.99h-4.717l-1.574 4.99h-1.914l5.118-14.968h1.77l.036.107 4.933 14.86zM340.563 52.58h-1.768l-.048-.07-7.06-11.568V52.58h-1.894l-.01-14.966h1.834l.048.074 6.997 11.612V37.614h1.9V52.58zM366.75 45.015c0 4.282-2.68 7.8-6.632 7.8-3.955 0-6.64-3.518-6.64-7.8 0-4.286 2.685-7.804 6.64-7.804 3.953 0 6.633 3.52 6.633 7.805m-11.288 0c0 3.395 1.906 6.126 4.647 6.126 2.745 0 4.64-2.73 4.64-6.125 0-3.4-1.895-6.13-4.64-6.13-2.742 0-4.648 2.73-4.648 6.13M400 45.015c0 4.282-2.682 7.8-6.637 7.8-3.953 0-6.628-3.518-6.628-7.8 0-4.286 2.675-7.804 6.628-7.804 3.955 0 6.637 3.52 6.637 7.805m-11.284 0c0 3.395 1.896 6.126 4.64 6.126 2.748 0 4.65-2.73 4.65-6.125 0-3.4-1.902-6.13-4.65-6.13-2.744 0-4.64 2.73-4.64 6.13M348.616 52.58h-1.903V39.273h-4.533v-1.66h10.993v1.66h-4.557V52.58zM379.716 52.58h-1.77l-.048-.07-7.06-11.568V52.58h-1.894l-.01-14.966h1.832l.05.074L377.81 49.3V37.614h1.906V52.58zM384.374 52.58h-1.906V37.615h1.906V52.58z" fill="#1e5740"/></svg>