<svg xmlns="http://www.w3.org/2000/svg" width="400" height="361.532"><path d="M0 341.772h12.644c.478 3.444 1.863 5.843 4.15 7.224 2.403 1.603 5.712 2.403 9.93 2.403 3.73 0 6.557-.63 8.483-1.892 1.927-1.248 2.894-3.096 2.894-5.496 0-3.663-5.418-6.64-16.253-8.938l-.364-.163-1.437-.353c-6.14-1.25-10.233-2.574-12.28-3.95-2.41-1.252-4.095-3.095-5.055-5.498-1.205-2.06-1.807-4.69-1.807-7.898 0-5.618 2.047-10.03 6.14-13.235 4.088-3.086 10.05-4.63 17.873-4.63 7.347 0 13.003 1.6 16.977 4.805 4.092 3.555 6.258 8.197 6.503 13.918h-7.23c-2.77 0-4.753-1.205-5.96-3.61-.6-1.148-1.443-2.11-2.524-2.92-2.167-1.49-5.116-2.23-8.85-2.23-3.605 0-6.19.626-7.76 1.887-1.803 1.26-2.706 3.03-2.706 5.328 0 3.092 3.484 5.385 10.465 6.87 2.052.57 3.556.92 4.522 1.03 2.163.684 4.057 1.228 5.684 1.628 1.625.415 2.916.715 3.883.95 1.687.688 3.37 1.376 5.06 2.06 2.398 1.373 4.27 3.146 5.593 5.322 1.318 2.407 1.99 5.044 1.99 7.908 0 6.193-2.167 10.997-6.51 14.43-4.332 3.204-10.473 4.81-18.408 4.81-8.193 0-14.332-1.655-18.42-4.98-4.456-3.32-6.867-8.25-7.225-14.78M57.04 360.16v-52.92c0-1.7.63-3.175 1.892-4.375 1.266-1.203 2.804-1.807 4.61-1.807h38.635v10.14H69.682v12.708h24.19v3.95c0 1.723-.632 3.187-1.894 4.383-1.262 1.21-2.796 1.807-4.604 1.807H69.682v15.117h32.495v10.995H57.04M108.297 360.156v-52.91c0-1.71.63-3.18 1.9-4.38 1.26-1.207 2.79-1.81 4.603-1.81h23.65c6.738 0 11.733 1.377 14.985 4.13 3.365 2.85 5.055 7.043 5.055 12.533 0 3.666-.835 6.708-2.523 9.107-1.444 2.296-3.73 3.948-6.86 4.985 2.764.922 4.688 2.29 5.774 4.128 1.087 1.71 1.746 4.634 1.985 8.76l.368 7.038v2.235c0 .808.05 1.552.178 2.232.36 2.06 1.08 3.385 2.166 3.95h-14.08c-.603-1.14-.967-2.346-1.082-3.6-.244-1.833-.37-3.094-.37-3.787l-.174-6.356c-.247-3.428-.966-5.894-2.167-7.385-1.33-1.257-3.667-1.886-7.044-1.886h-13.543v23.016h-12.82" fill="#231f20"/><path d="M121.116 326.827h14.986c3.253 0 5.656-.627 7.22-1.89 1.57-1.253 2.348-3.207 2.348-5.83 0-2.638-.778-4.587-2.348-5.85-1.444-1.377-3.61-2.058-6.492-2.058h-15.714v15.627" fill="#fff"/><path d="M166.058 360.16v-52.92c0-1.7.624-3.175 1.894-4.375 1.266-1.203 2.796-1.807 4.605-1.807h38.64v10.14h-32.5v12.708h24.196v3.95c0 1.723-.633 3.187-1.895 4.383-1.265 1.21-2.803 1.807-4.604 1.807h-17.696v26.112h-12.64M216.235 330.606c0-9.61 2.643-17.228 7.942-22.855 5.656-5.603 13.058-8.404 22.21-8.404 9.028 0 16.426 2.8 22.206 8.405 5.42 5.728 8.13 13.348 8.13 22.856 0 9.51-2.71 17.072-8.13 22.684-5.536 5.49-12.934 8.238-22.205 8.238-9.392 0-16.796-2.748-22.21-8.238-5.3-5.51-7.943-13.058-7.943-22.684" fill="#231f20"/><path d="M229.054 330.606c0 6.64 1.5 11.687 4.51 15.115 3.005 3.56 7.28 5.335 12.824 5.335 5.42 0 9.686-1.774 12.82-5.334 3.127-3.654 4.69-8.695 4.69-15.114 0-6.412-1.563-11.502-4.69-15.28-3.134-3.554-7.4-5.34-12.82-5.34-5.543 0-9.82 1.786-12.825 5.34-3.01 3.547-4.51 8.64-4.51 15.28" fill="#fff"/><path d="M283.562 341.772H296.2c.484 3.444 1.865 5.843 4.156 7.224 2.4 1.603 5.71 2.403 9.923 2.403 3.73 0 6.56-.63 8.488-1.892 1.922-1.248 2.894-3.096 2.894-5.496 0-3.663-5.417-6.64-16.255-8.938l-.364-.163-1.442-.353c-6.138-1.25-10.232-2.574-12.274-3.95-2.408-1.252-4.092-3.095-5.053-5.498-1.208-2.06-1.81-4.69-1.81-7.898 0-5.618 2.05-10.03 6.138-13.235 4.093-3.086 10.05-4.63 17.88-4.63 7.338 0 13 1.6 16.968 4.805 4.09 3.555 6.266 8.197 6.5 13.918h-7.22c-2.764 0-4.752-1.205-5.96-3.61-.603-1.148-1.442-2.11-2.523-2.92-2.172-1.49-5.117-2.23-8.854-2.23-3.6 0-6.192.626-7.756 1.887-1.81 1.26-2.706 3.03-2.706 5.328 0 3.092 3.484 5.385 10.463 6.87 2.05.57 3.548.92 4.514 1.03 2.17.684 4.063 1.228 5.693 1.628 1.622.415 2.918.715 3.884.95 1.685.688 3.366 1.376 5.05 2.06 2.407 1.373 4.274 3.146 5.604 5.322 1.322 2.407 1.988 5.044 1.988 7.908 0 6.193-2.174 10.997-6.505 14.43-4.333 3.204-10.477 4.81-18.416 4.81-8.19 0-14.33-1.655-18.413-4.98-4.463-3.32-6.866-8.25-7.225-14.78M367.322 301.057h10.11L400 360.16h-13.546l-4.15-12.2h-24.197l-3.973 12.2h-13.536l20.585-55.154c1.08-2.632 3.12-3.95 6.14-3.95" fill="#231f20"/><path d="M370.21 312.914L361.543 338h17.328l-8.66-25.086" fill="#fff"/><path d="M304.297 32.866l8.176 2.476c1.654.19 3.308.327 4.928.6C266.123 11.792 223.76 0 188.53 0c-26.51 0-48.886 6.924-66.566 20.588l30.204 19.588c29.545-13.186 59.426-16.924 83.753-16.924 32.988 0 58.802 6.72 68.377 9.614" fill="#5e2590"/><path d="M243.172 42.92c3.228-.25 6.036-.468 8.36-.775l6.16-.798c10.05-2.965 21.29-5.414 33.944-7.176-12.67-2.97-32.353-6.4-55.717-6.4-42.032 0-101.037 11.354-145.043 65.005l26.85 11.578C169.074 48.815 218.948 44.836 243.17 42.92" fill="#fab20b"/><path d="M237.144 47.96c-32.376 2.964-96.47 14.175-154.543 111.736l36.175 1.53c18.637-41.766 55.873-70.18 76.862-83.617 10.183-11.718 24.04-21.638 41.507-29.65" fill="#5e2590"/><path d="M184.224 94.505c1.064-2.02 2.176-4.05 3.445-6.05-33.952 24.24-88.3 75.88-73.003 150.367l19.938-6.768c-13.154-70.81 47.764-135.602 49.62-137.55" fill="#fab20b"/><path d="M178.556 108.147c-21.877 27.72-71.95 105.05-15.106 173.858 31.096-19.748 54.627-37.525 61.302-42.648-10.438-11.76-63.16-74.865-46.196-131.21" fill="#5e2590"/></svg>