<svg xmlns="http://www.w3.org/2000/svg" width="400.001" height="85.321"><path d="M65.336 8.11c-1.16.853-2.846 1.182-4.677 1.365h-.413c-1.13.06-2.333.04-3.518.042h-.04c-.1-.096-.374-.016-.54-.042-.294.032-.462-.062-.745-.042-1.787-.2-3.386-.584-4.593-1.366-.195-.203-.412-.387-.62-.578-.177-.294-.36-.58-.454-.954-.002-.216-.05-.573 0-.91.13-.714.53-1.505.95-2.068h.372c.654.064 1.354.08 2.07.082h.042c.247.098.674.014.993.042.716-.028 1.308.07 2.026.04.236.098.65.016.954.042h.04c.25.098.676.016.993.042.732-.028 1.338.07 2.07.042.25.096.676.014.993.042h.042c.233.096.648.014.95.042h.043c.247.096.674.014.99.04.25.098.677.016.994.042.242-.042.603.024.952 0 .098.095.37.014.538.042h.04c.252.494.485 1.005.58 1.655 0 .332.015.677-.04.95-.093.41-.29.706-.498.995-.16.156-.355.28-.496.455" fill="#fff" fill-rule="evenodd"/><path d="M65.336 8.11c.14-.174.335-.3.496-.456-.13.188-.313.323-.496.455" fill="#ddd1db" fill-rule="evenodd"/><path d="M13.034 26.606c-1.304-1.55-2.702-3.01-4.014-4.552v-.042c-.23-.152-.34-.433-.578-.58-.072-.136-.22-.194-.29-.33-.193-.207-.346-.454-.58-.622-.317-.41-.715-.744-.993-1.198.584-.425 1.094-.92 1.655-1.366h.042c.08-.166.297-.2.372-.373.22-.038.23-.29.454-.33h.04c.082-.167.297-.2.373-.372.36-.272.676-.593 1.035-.87h.04c.082-.166.297-.2.373-.37.223-.04.245-.283.456-.333h.04c.083-.165.298-.2.374-.372.098-.028.112-.136.207-.166.173-.13.336-.272.498-.416.168-.19.395-.32.58-.496h.042c.082-.166.295-.198.37-.37.386-.264.7-.6 1.078-.87h.042c.08-.168.295-.2.37-.374.685-.528 1.32-1.104 1.987-1.655h.042c.08-.166.296-.198.372-.372.225-.173.434-.364.662-.538.22-.193.478-.347.66-.578.686-.53 1.32-1.11 1.986-1.655h.042c.082-.168.297-.202.373-.373.267-.134.41-.39.662-.54.153-.136.343-.234.455-.41.562-.42 1.074-.887 1.615-1.328.39-.008.78-.016 1.117-.08h.04c.195-.027.496.053.622-.043.47.032.813-.068 1.282-.04.193-.028.496.054.62-.042H28.138c.034-.007.04-.04.082-.04.47.027.812-.073 1.282-.043.194-.026.497.054.623-.042h.04c.195-.026.496.056.62-.042h.042c.18-.024.468.056.58-.04.193-.026.494.054.62-.042h.042c.192-.025.494.057.62-.04h.62c.207-.027.524.055.663-.04h.04c.194-.028.497.053.622-.042.18-.026.467.053.58-.042h.04c.194-.026.495.053.62-.042h.04c.196-.026.497.053.623-.04h.04c.18-.028.47.053.58-.042h.662c.194-.026.497.055.62-.042.034-.006.042-.042.084-.04.07.068.425.068.497 0h.043c.468-.002.92-.016 1.324-.084.36.03.62-.04.95-.042-2.71.903-4.966 2.26-6.827 4.014h-.042c-.18.148-.347.313-.494.497-.116.177-.3.28-.415.454-.234.17-.396.406-.58.62-2.825 3.38-4.76 7.832-5.67 12.993-.062.104-.078.25-.082.413.023.19-.072.26-.042.457-.064.127-.08.305-.082.496.028.536-.497.524-.786.743-.175.102-.387.166-.538.29-1.94 1.012-3.86 2.045-5.793 3.062-.146.088-.333.136-.455.25-1.162.574-2.24 1.234-3.434 1.778-.512-.25-.907-.97-1.366-1.408-.195-.205-.347-.452-.58-.62-.174-.213-.36-.41-.536-.62-.2-.203-.35-.453-.58-.62" fill="#fff" fill-rule="evenodd"/><path d="M13.034 26.606c.232.168.38.417.58.62-.235-.167-.386-.414-.58-.62" fill="#7e91ca" fill-rule="evenodd"/><path d="M90.7 8.276c4.05 2.227 8.087 4.464 12.165 6.662v.04c.175.074.317.18.496.25.17.067.29.18.456.246-2.086 2.998-4.27 5.927-6.413 8.896-.706.98-1.33 2.042-2.15 2.938-2.57-1.14-5.248-2.17-7.823-3.31-.003-.118.024-.27-.042-.332.086-.22-.086-.544-.08-.825-.464-2.92-1.226-5.63-2.32-8.07-.047-.17-.13-.307-.204-.454-.383-.804-.768-1.605-1.243-2.317-.072-.175-.154-.342-.288-.456-.556-.935-1.192-1.787-1.902-2.564-.397-.517-.85-.974-1.326-1.408h-.04c-.128-.136-.22-.305-.415-.373-1.152-1.058-2.452-1.96-3.973-2.65.006-.09.175-.015.25-.04.15.096.48.014.7.04h.043c.165.096.51.015.746.042.554-.03.98.068 1.53.042.167.096.51.015.745.04h.043c.165.096.508.016.744.042h.042c.15.096.48.016.703.042.167.096.508.016.746.042h.038c.126.068.537.068.662 0h.042c.47.066.996.08 1.53.082h.042c.145.076.415.028.538.125 1.815.998 3.612 2.015 5.462 2.978.13.13.307.217.497.29" fill="#fff" fill-rule="evenodd"/><path d="M75.846 4.51c-.074.023-.243-.05-.25.04 1.522.687 2.824 1.593 3.973 2.65.154.107.258.267.414.372h.042c.442.467.89.928 1.324 1.406.712.778 1.348 1.63 1.902 2.565.094.155.17.327.29.456.476.71.86 1.513 1.242 2.315.02.2.117.327.205.456 1.092 2.44 1.855 5.152 2.318 8.07-.084.223.088.546.082.827.064.06.038.21.042.33 2.572 1.14 5.25 2.17 7.82 3.31.82-.896 1.444-1.955 2.152-2.936 2.142-2.968 4.326-5.898 6.41-8.895-.164-.068-.286-.18-.453-.247-.127-.134-.326-.198-.496-.29C98.786 12.74 94.748 10.5 90.7 8.275c-.146-.117-.32-.205-.496-.29-1.85-.966-3.646-1.98-5.462-2.978-.092-.13-.305-.138-.54-.126h-.04c-.47-.068-.992-.084-1.53-.08H81.888c-.168-.097-.51-.017-.746-.043-.154-.097-.483-.017-.704-.043h-.04c-.167-.096-.51-.015-.746-.042h-.042c-.165-.096-.51-.015-.743-.04-.55.026-.978-.072-1.532-.042-.165-.096-.508-.016-.744-.042h-.04c-.154-.095-.483-.013-.705-.04M34.51 7.82c1.86-1.754 4.115-3.112 6.825-4.015-.33.002-.59.072-.95.042-.47.002-.923.018-1.323.084h-.539c-.042 0-.05.035-.084.04-.194.03-.495-.05-.62.043h-.663c-.18.028-.47-.054-.58.042h-.04c-.196.026-.495-.054-.622.04h-.04c-.194.027-.495-.052-.62.04h-.042c-.194.03-.497-.052-.622.043-.18.026-.466-.053-.578.042H33.308c-.18.026-.466-.053-.58.04h-.04c-.193.028-.496-.052-.62.042h-.042c-.193.028-.494-.054-.62.042-.18.028-.47-.054-.58.04h-.042c-.194.028-.495-.052-.62.042h-.662c-.457 0-.894.016-1.283.084-.043 0-.05.034-.082.042-.086-.07-.455-.07-.54 0h-.04c-.194.025-.495-.054-.62.04-.47-.026-.813.073-1.283.043-.196.026-.495-.053-.622.04h-.04c-.405-.002-.79.012-1.12.084-.537.438-1.05.904-1.612 1.323-.145.142-.34.237-.454.413-.253.15-.395.405-.662.538-.136.126-.315.21-.415.373-.667.55-1.303 1.127-1.987 1.655-.22.194-.478.347-.66.58-.227.172-.437.364-.662.537-.135.125-.316.207-.414.37-.666.55-1.302 1.127-1.986 1.655-.136.128-.317.21-.413.373-.38.27-.692.606-1.077.87-.135.125-.315.21-.414.37-.184.176-.41.306-.58.497-.2.106-.36.25-.495.415-.095.03-.11.137-.207.165-.135.128-.315.21-.412.373-.21.05-.233.29-.456.333-.134.127-.315.21-.413.372-.358.275-.673.596-1.034.87-.135.125-.315.207-.412.372-.224.04-.234.292-.455.33-.14.127-.318.21-.416.372-.56.447-1.07.942-1.655 1.366.276.455.675.788.992 1.2.197.202.35.45.58.62.07.137.218.194.29.332.197.2.348.45.578.62 1.31 1.544 2.71 3 4.014 4.553.193.205.345.452.578.62.178.21.365.407.54.62.196.204.348.45.58.62.458.44.852 1.16 1.365 1.408 1.192-.544 2.27-1.204 3.434-1.78.172-.062.352-.116.455-.248 1.935-1.017 3.853-2.05 5.793-3.063.2-.076.407-.143.54-.29.288-.218.812-.206.785-.743.063-.13.08-.304.08-.495-.03-.198.067-.266.043-.457.062-.102.08-.25.082-.413.91-5.16 2.846-9.613 5.67-12.992.225-.175.38-.42.58-.622.333-.298.652-.615.95-.95M51.06 3.56h-.373c-.42.56-.817 1.353-.95 2.07-.1.268-.093.637 0 .908.095.375.278.658.454.95.178.222.385.418.62.58 1.207.78 2.808 1.168 4.595 1.365.206.072.465.088.746.084h.04c.1.096.372.016.54.042.965-.027 2.04.053 2.937-.043.086.068.452.068.536 0h.042c.126-.026.357.052.415-.042 1.83-.183 3.514-.512 4.674-1.366.186-.132.367-.268.5-.456.206-.29.403-.586.495-.993.117-.186.113-.71.04-.95-.097-.65-.33-1.158-.58-1.655h-.04c-.1-.096-.372-.014-.54-.042-.346.026-.71-.042-.95 0-.25-.096-.675-.014-.994-.042-.25-.095-.676-.013-.993-.04h-.042c-.232-.094-.647-.015-.95-.04h-.042c-.25-.096-.674-.015-.993-.043-.732.03-1.336-.07-2.068-.042-.25-.095-.676-.01-.993-.042h-.042c-.235-.093-.648-.01-.95-.042-.64-.062-1.327-.078-2.03-.08H53.13c-.62-.068-1.51-.088-2.068-.082m-3.02-.042c.256-.175-.472-.084-.622-.04h-.04c-.444-.032-.76.066-1.2.04-.393.09-.94.028-1.326.124h-.662c-.194.028-.497-.054-.62.042-1.09.413-1.903 1.104-2.73 1.78-.377.34-.734.698-1.077 1.075-2.612 2.944-4.176 7.117-4.8 11.917-.064.13-.08.305-.082.497-.064.156-.106.553-.08.663.055.17-.102.337 0 .413.093.15.01.482.04.704v.04c-.096.29-.015.76-.04 1.118v1.159c-.098.732-.032 1.625-.126 2.36.026.783-.072 1.445-.042 2.232v.04c-.096.25-.015.675-.042.994.11.013.138-.057.126-.165.097-.344.295-.588.496-.83.144-.17.315-.318.455-.495.863-.772 1.936-1.165 3.145-1.448.15-.03.357-.002.414-.124.202-.046.473-.024.66-.083.15-.03.345-.016.457-.082.233.013.367-.076.62-.042.34.008.573-.09.87-.124.14-.028.383.052.454-.042h.662c.225-.12.727.038.95-.084h4.139c.346.124.974-.037 1.323.084.624-.032 1.118.068 1.737.042.2.118.67-.036.87.082h.04c.167.096.51.014.745.042H53.46c.124.094.428.014.62.042.167.094.51.014.745.04h.04c.14.095.456.014.664.042.487.11 1.048-.036 1.572.084h.786c.04 0 .048.03.082.042 2.082.09 4.65.183 6.662-.042h.662c.46-.114.937.018 1.366-.084.357 0 .7-.016.993-.082.29.028.453-.072.744-.042.144-.022.393.062.413-.084.273-.085.708-.01.953-.123.197-.01.393-.02.536-.085 1.972-.29 3.932-.72 5.63-1.364.148-.043.34-.043.412-.165 1.352-.552 2.74-1.138 3.517-2.15-.03-.17.053-.44-.043-.54.032-.307-.057-.492-.042-.785-.046-.244-.08-.5-.08-.786 0-.237-.017-.455-.085-.622.028-.208-.07-.288-.042-.497-.026-.345-.07-.674-.166-.95-.728-4.528-2.257-8.253-4.716-11.05-.3-.334-.618-.65-.953-.95h-.04c-.126-.193-.325-.31-.496-.454-.188-.143-.375-.29-.58-.416-.098-.094-.372-.01-.537-.04-.473-.066-.995-.08-1.532-.084h-.042c-.165-.094-.51-.013-.743-.04h-.704c-.06-.064-.213-.036-.332-.042.33.814.586 1.564.704 2.443.04.486.055.966 0 1.45-.094.846-.49 1.63-.952 2.232-.225.19-.432.397-.622.62-1.302 1.065-3.127 1.655-5.09 1.947-.168.007-.338.02-.453.08h-.25c-.13-.02-.554.026-.744.084-.124.026-.355-.054-.413.042h-.04c-.168.026-.44-.056-.54.04h-.04c-.264.028-.635-.054-.828.042H57.1c-.238-.096-.65-.014-.95-.042h-.043c-.338-.064-.73-.074-1.12-.082-.212-.064-.48-.073-.746-.084-2.592-.247-4.902-.78-6.453-2.07-.202-.167-.372-.372-.58-.536-.356-.457-.69-.935-.785-1.655-.036-.198-.01-.458-.082-.62-.01-1.936.88-3.31 1.695-4.554m40.262.042c3.866 1.925 7.677 3.907 11.544 5.835.124.11.307.16.455.247.14.108.306.188.495.25.353.14.654.34.993.494.13.148.34.213.54.29.39.16.728.374 1.115.54.104.13.283.185.455.247 2.018.992 3.98 2.033 6 3.02-.436.836-1.1 1.528-1.655 2.28-3.908 5.282-7.97 10.654-11.96 15.928-4.406-1.756-8.735-3.593-13.114-5.38v1.035c-.004 1.107.037 2.168.123 3.187.027.22-.054.55.042.702v.084c-.07.11-.07.508 0 .62v.042c.026.193-.054.494.04.62v.042c.027.193-.052.494.04.62v.042c.03.18-.053.467.043.578-.002.403.015.786.082 1.12V36.453c.05.116.046.285.042.455-1.296.234-2.694.365-4.054.537v-.042c.068-1.476.068-3.24 0-4.716v-.125c.096-.746.014-1.67.04-2.482v-.042c.097-.442.016-1.062.042-1.573.097-.36.014-.895.042-1.324V27.1c.095-.274.014-.73.042-1.074-.002-.692.016-1.364.08-1.986v-.786c.1-.18.016-.538.043-.785.024-.075-.05-.245.042-.25-.926 1.102-1.973 2.165-3.395 2.937-1.525.83-3.464 1.48-5.42 1.822-.18.08-.496.025-.662.12-.18.1-.446.107-.702.127-.22.016-.48-.01-.58.123-.366-.022-.583.106-.95.084-.303-.056-.383.114-.662.082-.293.065-.628.09-.993.082-1.025.08-2.158.05-3.105.207h-.042c-1.78-.07-3.847-.07-5.626 0h-.042c-.343-.182-1.013-.036-1.49-.082h-.04c-.68-.068-1.41-.08-2.153-.084h-.042c-.22-.096-.62-.015-.91-.043h-.952c-.22-.095-.618-.012-.91-.04-.065.01-.07-.04-.123-.042-.255-.02-.598.048-.786-.04h-.042c-.207-.097-.594-.015-.87-.04-.935.033-1.317-.077-2.317-.043-.99-.07-2.275-.07-3.268 0-.568-.03-1.03.046-1.573.042-.126.023-.355-.054-.413.042-.527.133-1.202.12-1.778.205-.177.017-.367.02-.496.083-1.68.365-3.578.85-4.553 1.862-.177.086-.2.323-.33.457h-.043c-.096.26-.01.702-.04 1.033-.008.034-.042.042-.042.082.026.77-.074 1.42-.042 2.193v.042c-.09.297-.022.97-.042 1.2.034.667-.058 1.21-.04 1.863-1.112-.006-2.16-.074-3.27-.082.05-.355.052-.97.042-1.244-.024-.657.072-1.195.042-1.862.096-.25.014-.676.042-.993v-.042c.096-.275.014-.73.04-1.076.098-.29.016-.758.042-1.115v-.042c.097-.32.014-.814.042-1.2v-.043c.07-.303.07-.895 0-1.2v-.082c.095-.33.014-.84.042-1.24-.096.01-.18.042-.208.123-5.12 2.81-10.148 5.713-15.227 8.565-.615-.46-1.072-1.08-1.654-1.573h-.04c-.122-.154-.26-.293-.415-.413-.082-.138-.256-.184-.33-.33-.133-.17-.287-.322-.456-.456-.036-.073-.092-.126-.164-.164-.122-.156-.26-.293-.415-.415-.63-.567-1.188-1.21-1.82-1.778h-.042c-.575-.61-1.17-1.202-1.78-1.78-.587-.623-1.196-1.23-1.818-1.82H6.99c-.573-.61-1.167-1.202-1.777-1.78h-.04c-.59-.624-1.197-1.23-1.82-1.82-.667-.52-1.17-1.203-1.824-1.737-.493-.527-1.004-1.04-1.53-1.532v-.082c1.67-1.227 3.266-2.527 4.924-3.764.175-.115.34-.24.496-.373 5.64-4.387 11.305-8.75 17.006-13.075.554-.124 1.392.04 1.944-.084h.042c.746-.028 1.6.056 2.278-.04h.04c1.587 0 3.158-.016 4.676-.084.757-.026 1.627.056 2.317-.04h2.36c.757-.027 1.624.054 2.316-.04h.04c1.586 0 3.156-.017 4.675-.085 1.72.024 3.32-.074 5.047-.042h.042c.236.096.648.016.952.042.03.093.233.016.333.042.056-.108.138-.192.204-.29.39-.492.736-1.03 1.2-1.447h.413c.154.068.593.068.746 0h.04c.195.096.566.014.83.042h.04c.195.094.566.01.827.04h.042c.18.095.536.014.786.042.195.095.566.014.83.04h.04c.193.097.565.016.827.04h.042c.18.1.536.016.785.043.597-.03 1.065.066 1.655.042.82.075 1.68.11 2.567.123h.867c.183.096.54.014.79.042h.04c.194.096.565.014.826.042.18.096.54.014.786.04h.042c.196.095.566.016.828.042.277.027.662-.057.87.04.52.404.72 1.13 1.2 1.572h.412c.828-.028 1.767.056 2.525-.042h.04c1.696 0 3.377-.014 5.006-.082.83-.027 1.767.054 2.525-.042h2.484c.827-.026 1.764.056 2.524-.042h2.026c.415.138.736.37 1.12.54.133.1.29.174.454.246.376.164.723.353 1.076.54.142.106.308.188.497.248" fill="#2056ae" fill-rule="evenodd"/><path d="M48.04 3.517c-.816 1.244-1.705 2.618-1.697 4.55-.003.24-.006.477.082.623.095.718.43 1.196.787 1.653.178.195.335.41.58.538 1.552 1.29 3.86 1.822 6.454 2.07.205.07.466.087.745.083v.042c.408-.02.7.074 1.118.04h.042c.235.098.648.016.95.042h2.36c.262-.026.634.056.828-.042h.042c.165-.024.44.056.538-.04h.04c.126-.026.357.054.415-.042.28.003.526-.024.744-.082h.25c.18.003.34-.017.454-.083 1.963-.29 3.788-.88 5.09-1.944.223-.19.43-.397.62-.62.463-.604.86-1.386.953-2.235.122-.393.108-1.05 0-1.448-.117-.88-.375-1.63-.704-2.44.12.004.27-.023.33.04.152.097.48.015.704.04h.786c.47.07.99.087 1.53.085.1.093.372.014.538.04.205.127.39.273.58.414.132.185.337.296.497.456h.04c.3.333.618.65.953.95 2.46 2.795 3.988 6.52 4.716 11.047.038.337.08.668.165.953-.03.21.07.29.04.496.007.228.02.45.085.62.002.288.036.543.082.788-.084.208.003.6.042.826.025.153-.055.413.04.496-.775 1.013-2.165 1.6-3.517 2.152-.11.084-.33.058-.415.166-1.695.644-3.655 1.074-5.627 1.366-.206-.002-.396.015-.535.083-.246.113-.68.037-.954.123-.076.074-.272.03-.413.042-.284.005-.56.018-.786.082-.338.003-.67.018-.95.083-.427.1-.904-.03-1.364.082-.126-.07-.537-.07-.662 0-2.106.158-4.487.066-6.665.042-.033-.008-.04-.042-.082-.042-.168-.07-.62-.07-.786 0-.523-.118-1.085.028-1.573-.082-.14-.097-.454-.016-.663-.042h-.04c-.152-.095-.48-.014-.704-.042-.138-.095-.455-.014-.662-.04h-.04c-.14-.097-.454-.015-.663-.04h-.786c-.14-.18-.593-.04-.87-.085-.535-.07-1.127-.085-1.736-.08-.362-.097-.895-.017-1.324-.043h-.042c-1.254-.07-2.8-.07-4.054 0h-.042c-.307.022-.712-.05-.95.042-.194.025-.497-.055-.62.04h-.043c-.14.027-.386-.053-.456.04-.363-.03-.584.08-.87.126-.252-.033-.386.054-.62.04-.185-.006-.354.003-.456.084-.187.058-.46.038-.66.082-.108.073-.33.03-.415.123-1.208.286-2.28.678-3.144 1.45-.17.146-.352.283-.456.497-.202.24-.4.482-.5.825-.056.01-.013.126-.08.126v-.993c.065-.708.08-1.466.08-2.234.07-.75.085-1.545.085-2.36v-.04c.097-.292.014-.758.04-1.12V20.73c.067-.122.09-.774-.04-.702-.1-.076.057-.243 0-.415.055-.192.075-.418.08-.66.067-.13.083-.306.085-.497.622-4.798 2.187-8.974 4.8-11.917.376-.34.735-.698 1.076-1.075.83-.675 1.64-1.367 2.73-1.778h.62c.195-.028.498.054.622-.042h.042c.466-.002.917-.022 1.324-.08.424-.004.837-.02 1.2-.085h.042c.22.028.562-.042.662 0-.026.002-.05.006-.042.042" fill="#fff" fill-rule="evenodd"/><path d="M71.045 26.978c1.957-.34 3.897-.993 5.42-1.82 1.422-.774 2.47-1.837 3.394-2.94-.092.006-.018.178-.043.25-.095.18-.014.538-.04.785v.042c-.07.152-.07.593 0 .746-.067.623-.085 1.295-.083 1.985-.096.277-.015.732-.042 1.077v.042c-.096.345-.015.868-.042 1.282-.096.455-.01 1.09-.042 1.614v.042c-.096.743-.01 1.67-.04 2.482v4.882c-1.61.142-3.207.297-4.884.375h-.536c-.14.025-.385-.055-.455.043h-.496c-.32.026-.746-.058-.993.04h-4.511c-.33-.098-.842-.015-1.242-.04h-.7c-.155-.098-.484-.016-.705-.042h-.58c-.098-.095-.37-.017-.54-.04h-.535c-.098-.097-.37-.017-.54-.043H62.4c-.74-.018-1.42-.096-2.195-.084-.07-.094-.313-.016-.455-.042h-.454c-.056-.093-.288-.013-.413-.04-.057-.094-.288-.015-.414-.04-.832.017-1.528-.1-2.357-.084-.1-.094-.374-.015-.54-.04h-.25c-.097-.096-.37-.016-.535-.042h-.29c-.057-.094-.288-.016-.414-.04-.057-.096-.286-.018-.414-.042H52.84c-.085-.096-.344-.016-.498-.042h-.29c-.097-.096-.37-.016-.536-.042-.165.036-.307-.062-.372 0-.018-.094-.206-.018-.29-.042-.1-.096-.373-.016-.538-.042h-.29c-.1-.096-.372-.014-.538-.04h-.414c-.07-.096-.315-.016-.455-.042h-.458c-.055-.094-.287-.016-.412-.042h-.413c-.086-.095-.345-.014-.497-.042H46.383c-.07-.094-.315-.014-.454-.042-.663.028-1.198-.07-1.862-.04-.11-.095-.4-.014-.58-.042-.084-.093-.343-.014-.497-.042h-.537c-.098-.093-.37-.014-.536-.042H40.882c-.084-.093-.345-.014-.497-.04-.552 0-1.033-.07-1.613-.04-.112-.097-.4-.016-.58-.043-.112-.094-.4-.015-.58-.042h-.62c-.127-.096-.428-.015-.62-.04h-.663c-.127-.096-.428-.015-.62-.042h-.705c-.018-.65.074-1.197.042-1.863.09-.32.016-.81.04-1.198v-.042c.04-.68.137-1.52.042-2.194 0-.042.032-.05.04-.082.096-.263.015-.703.042-1.034h.042c.174-.088.194-.33.33-.455.975-1.01 2.875-1.5 4.552-1.863.198.005.375-.01.497-.08.576-.087 1.25-.075 1.778-.21.127-.025.358.053.416-.04.54.004 1.005-.073 1.572-.043h3.268c1-.033 1.384.077 2.317.04.207.097.592.016.87.043h.042c.1.148.622.094.785.04.054.005.058.054.126.042.22.096.62.014.91.042h.95c.222.096.62.014.912.042h.04c.676.07 1.405.083 2.153.08h.04c.39.124 1.062-.037 1.45.085 1.833.067 3.957.067 5.792 0 1-.094 2.114-.066 3.063-.208.365.006.7-.016.993-.084v.042c.26-.002.44-.084.662-.123.367.022.584-.104.95-.084.153-.084.434-.036.58-.122.257-.02.526-.03.703-.125.234-.03.54.015.662-.123" fill="#fff" fill-rule="evenodd"/><path d="M86.728 62.19c1.1 6.066 2.33 11.147 4.096 16.88-3.516 1.562-7.355 2.798-11.42 3.81-.152.027-.316.04-.413.123-1.992.49-4.016.95-6.165 1.282-.162.005-.31.02-.413.084-.086.093-.37-.014-.457.083-.16.002-.31.02-.413.083-1.334.142-2.6.347-3.93.495-.03-.04-.34-.01-.415.043h-.33c-.023-.006-.416-.032-.495.04-.09.078-.305.028-.457.042-.126.026-.357-.054-.415.042-.395.005-.78.018-1.116.082H64.3c-.084-.07-.45-.07-.537 0h-.042c-.302.027-.715-.057-.95.04h-4.18c-.303-.097-.785-.014-1.156-.04h-.042c-.168-.07-.62-.07-.786 0h-.084c-.153-.097-.482-.016-.704-.04h-.042c-.123-.097-.427-.017-.62-.043-.5-.08-1.053-.106-1.613-.124h-.497c-.057-.096-.287-.018-.415-.042-.058-.063-.346.07-.453-.04-.21-.066-.47-.08-.744-.085-.546.01-.957-.12-1.49-.123-.157-.064-.36-.08-.58-.082-.267.032-.407-.062-.662-.042-.154-.064-.36-.08-.577-.082-.246-.087-.557-.107-.87-.123-.243-.032-.532-.022-.745-.084-.23-.077-.487-.12-.786-.125-.198.032-.265-.065-.455-.042-.113-.067-.273-.085-.457-.083-.34.012-.536-.124-.867-.124-.114-.068-.273-.084-.457-.084-.18.03-.23-.07-.412-.04-.102-.063-.252-.08-.415-.083-.203-.02-.356-.085-.58-.083-.1-.064-.25-.08-.412-.082-5.04-.94-9.86-2.058-14.192-3.6.07-.428.163-.83.205-1.284.04-.168.164-.47.085-.62.048-.268.115-.517.123-.826.064-.13.082-.307.084-.497.1-.94.233-1.848.33-2.69.075-.257.113-.55.125-.867-.032-.226.066-.323.04-.54.064-.17.078-.392.084-.62.03-.57.146-1.112.166-1.572.038-.132.136-.417.042-.54.046-.228.096-.455.082-.744.038-.132.123-.427.042-.537.008-.034.042-.042.042-.084.065-.195.083-.438.08-.704-.027-.264.07-.397.043-.663.096-.217-.032-.464.082-.702.067-.195.085-.44.083-.704.03-.356.018-.754.082-1.073.065-.212.08-.473.083-.746-.028-.29.07-.454.042-.745.064-.225.078-.5.082-.786.064-.226.078-.503.084-.788-.028-.317.07-.507.042-.826.064-.24.08-.524.08-.828.097-.057.017-.29.043-.414v-.042c.037-.198.133-.555.04-.744v-.084c.097-.056.017-.287.043-.413v-.04c.096-.056.016-.288.042-.413.096-.058.016-.29.042-.413v-.042c.094-.058.016-.29.04-.415v-.04c.096-.072.016-.317.042-.456v-.454c.095-.07.015-.315.04-.455.035-.106-.027-.423.043-.495.093-.072.014-.317.042-.457v-.04c.093-.072.014-.317.04-.454-.03-.39.067-.65.042-1.035.095-.087.016-.346.04-.498v-.042c.097-.072.017-.317.043-.455.064-.307.078-.666.082-1.035v-.496c1.21.002 2.447-.02 3.6.042v.082c-.122.307.037.893-.082 1.2v1.117c-.068.718-.084 1.49-.084 2.275v.042c-.096.29-.01.76-.042 1.12.032.786-.068 1.447-.04 2.232-.093.32-.016.812-.042 1.2v.04c-.095.292-.014.76-.042 1.12.03.813-.07 1.5-.04 2.316-.095.29-.016.758-.042 1.117v.042c-.095.302-.014.785-.042 1.158-.065.72-.08 1.49-.083 2.275 0 .826-.016 1.637-.082 2.4v1.116c-.095.29-.013.758-.04 1.117-.07.732-.083 1.516-.083 2.318v.042c-.05.24-.114.855.04 1.033 3.047.94 6.445 1.74 9.93 2.36.105.062.252.078.416.08.377.038.718.11 1.075.168.103.062.25.078.414.082.277-.016.435.09.704.083.208.082.46.12.744.124 1.504.146 2.7.34 4.222.455.044.093.26.016.37.042.06.093.29.016.415.04h.413c.086.097.345.015.497.043h.04c.07.094.318.015.456.04h.042c.084.094.343.016.497.04.125.098.426.016.62.044h.042c.165.097.51.016.743.04h.042c.193.097.566.017.827.043h1.573c.62.07 1.53.07 2.152 0h1.532c.58.002 1.142-.014 1.653-.082h.042c.152-.027.41.055.495-.043.168-.023.44.056.54-.04h.04c.35.03.57-.063.91-.04.303 0 .59-.017.827-.083.497 0 .872-.122 1.366-.124.325.02.53-.08.828-.084.283-.05.542-.12.87-.125.277-.012.528-.05.743-.123.19.026.258-.072.456-.04.24-.022.478-.044.66-.123 4.4-.7 8.505-1.82 12.374-3.23-.054-.52-.214-1.156-.292-1.612-.002-.162-.018-.31-.08-.415-.04-.46-.11-.71-.167-1.198-.002-.165-.02-.313-.083-.416-.002-.162-.02-.31-.08-.415-.135-.982-.312-1.923-.416-2.938.033-.074-.023-.413-.08-.537-.107-.82-.258-1.727-.332-2.648-.026-.305-.044-.62-.124-.87-.002-.22-.02-.422-.083-.58v-.08c.088-.105-.002-.38-.04-.498v-.043c0-.22-.02-.423-.083-.578.008-.368-.106-.615-.084-.996.002-.236-.016-.453-.082-.62-.01-.4-.068-.756-.122-1.117.094-.15-.003-.465-.042-.62-.066-.06-.036-.214-.042-.33.014-.006.026-.356-.04-.416.01-.438-.102-.755-.084-1.198-.008-.295-.02-.588-.082-.827-.027-.112.052-.33-.04-.373v-.413c-.027-.64-.08-1.247-.167-1.822-.027-.153.055-.412-.04-.496v-.539c-.03-.153.053-.412-.043-.496v-.042c-.003-.37-.018-.728-.082-1.035.016-.086-.028-.108-.042-.166 1.69-.16 3.29-.406 4.924-.62.082.567.147 1.15.207 1.74-.006.266.07.454.082.7.076.328.142.66.166 1.036-.002.182.018.34.083.455.018.287.076.532.124.785-.06.132.033.463.08.623.015.235.08.416.084.662.002.16.02.31.082.412.003.164.022.31.084.415-.018.142.016.232.04.33-.068.113.04.404.084.538.016.303.115.52.123.827.003.164.022.313.084.415.067.556.246 1.027.248 1.53.008.23.062.41.126.58.008.034.042.04.042.08-.058.077.026.36.082.458" fill="#2056ae" fill-rule="evenodd"/><path d="M74.854 51.597c1.623-.046 3.49-.203 5.13-.373.012.058.058.08.04.166-.03.39.068.65.042 1.035.026.153-.054.413.042.496v.043c.026.154-.056.413.042.497v.042c.026.15-.056.41.04.496.024.636.078 1.247.165 1.82v.414c.026.125-.05.355.042.413-.002.29.016.564.082.787-.017.443.095.76.083 1.2.01.14-.032.336.04.413.006.118-.022.272.042.332-.03.25.068.374.042.62.054.36.11.716.123 1.116.008.23.02.45.084.62-.022.38.09.63.082.996.002.216.02.42.084.577v.042c-.032.212.057.3.042.495v.082c.006.23.02.45.08.622.027.29.04.596.125.827.074.92.225 1.827.33 2.648 0 .208.033.38.085.537.102 1.015.28 1.956.415 2.937.008.168.02.34.08.456.013.14.023.283.083.372.058.49.128.74.166 1.2.003.164.022.31.083.414.077.456.237 1.09.29 1.613-3.87 1.408-7.976 2.53-12.373 3.228-.24.02-.48.042-.662.124-.197-.032-.267.066-.455.04-.277.014-.528.052-.746.124-.325.007-.586.076-.87.126-.208-.073-.59.042-.825.084-.495.002-.87.124-1.367.124-.32-.03-.508.07-.827.04-.323.008-.642.02-.91.083h-.043c-.166.026-.44-.053-.537.04-.153.03-.413-.052-.496.044h-.042c-.59-.025-1.06.073-1.655.04-.483.03-1.075-.053-1.49.043H57.31c-.43-.096-1.036-.014-1.532-.042h-.87c-.165-.095-.508-.013-.744-.04h-.042c-.125-.094-.426-.013-.62-.043-.086-.093-.345-.014-.498-.04h-.04c-.07-.093-.317-.014-.455-.04h-.043c-.084-.095-.343-.017-.496-.043h-.414c-.044-.094-.26-.015-.37-.04-.06-.094-.29-.016-.416-.042-1.52-.114-2.716-.31-4.22-.455-.22-.068-.482-.098-.743-.124-.27.006-.427-.1-.704-.083-.104-.062-.25-.08-.415-.082-.36-.058-.7-.13-1.077-.168-.1-.062-.248-.08-.412-.08-3.485-.62-6.883-1.42-9.93-2.36 0-.04-.034-.048-.042-.082.07-.208.07-.702 0-.912v-.08c.068-.733.084-1.52.084-2.317.095-.294.014-.76.04-1.12v-.04c.07-.264.07-.815 0-1.078.065-.762.083-1.573.083-2.4.068-.717.084-1.49.084-2.274.096-.303.01-.786.042-1.16v-.04c.093-.29.01-.76.04-1.117-.03-.815.07-1.503.04-2.317.096-.29.015-.757.043-1.118v-.04c.12-.307-.04-.894.08-1.2-.04-1.13.157-2.246.043-3.31V55.32c.066-.718.082-1.49.084-2.275v-.04c.096-.277.013-.732.04-1.077.094-.32.016-.812.042-1.2v-.082h.165c.208.096.593.014.87.04h.704c.152.095.48.016.703.042h.622c.084.095.343.016.494.042h.538c.084.095.345.016.496.042h.786c.072.094.317.014.457.042h.37c.058.094.29.014.415.04.058.095.288.016.413.042 1.84.038 3.51.243 5.34.29.082.094.34.013.495.04h.29c.043.094.26.017.372.043.056.092.287.013.415.04h.455c.07.094.315.015.454.04h.95c.113.096.4.015.58.042h.333c.122.096.425.015.62.04.124.098.426.016.62.042h.62c.125.096.428.015.62.042h.622c.123.096.426.015.622.042h.786c.11.096.398.015.578.042.056-.014.077-.06.165-.042.236.096.648.015.95.042.25.096.677.015.995.042h1.2c.345.096.867.013 1.282.04H63.308c.305.096.785.014 1.16.042H65.832c.427.096 1.035.014 1.532.042h1.53c.442-.028.992.054 1.365-.042h1.407c.14-.026.383.052.455-.042h.827c.165-.026.44.054.538-.04h.454c.14-.026.385.052.455-.042.14-.026.385.052.457-.042" fill="#fff" fill-rule="evenodd"/><path d="M24 41.542c-7.043.49-13.88 1.18-18 4.594-.154.12-.294.258-.413.413-.36.328-.654.946-.91 1.24-.506-2.507.53-4.467 1.655-5.752.266-.23.513-.478.744-.745 3.833-3.2 9.696-4.37 16.344-4.756.14-.026.385.053.455-.042h.25c.153-.026.412.053.496-.042h.373c.25-.026.607.053.786-.04h5.336c1.108.008 2.157.076 3.27.08.15.097.482.016.704.043h.62c.138.096.455.015.662.04h.578c.14.098.455.016.662.042h.58c.112.096.4.016.58.042.58-.03 1.06.042 1.614.042.084.096.343.016.497.04h.536c.083.096.344.016.496.042h.538c.098.096.37.016.54.042h.493c.114.096.4.016.58.042.664-.03 1.2.068 1.863.04.07.096.315.016.455.042h.04c.057.096.29.016.416.042h.456c.07.094.315.016.454.042h.413c.072.094.317.014.457.042h.413c.07.094.315.014.456.04h.412c.058.095.287.016.415.04h.413c.057.097.287.018.412.04.068-.058.21.04.373 0 .098.097.37.017.54.043h.288c.084.095.343.015.496.04h.29c.098.097.37.017.537.043h.413c.06.094.29.016.415.042h.29c.096.094.372.016.537.04h.25c.097.096.37.016.538.042.83-.018 1.525.102 2.357.084.058.095.29.017.415.043.057.094.287.014.412.04h.455c.07.096.314.016.454.042.772-.014 1.454.066 2.193.082.058.095.287.018.415.042h.537c.098.094.37.015.537.04h.538c.112.096.4.015.58.043h.663c.165.095.508.014.744.04h.91c.318.097.812.014 1.2.04h2.73c.374-.027.857.057 1.16-.04h.744c.153-.024.412.053.496-.04h.455c.167-.026.44.053.538-.042 1.677-.075 3.273-.23 4.884-.372 1.36-.172 2.757-.303 4.053-.54 7.608-1.133 14.902-2.418 20.274-5.792 1.67-1.047 3.137-2.293 4.635-3.517.038-.03.13-.292.25-.123-.615 1.785-1.646 3.153-2.775 4.427-.32.285-.622.588-.91.91-5.204 4.683-12.634 7.144-21.143 8.522-1.4.214-2.854.375-4.26.58h-.043c-1.663.13-3.264.323-5.007.373-.125.025-.355-.055-.412.04h-.33c-.14.027-.385-.053-.455.043h-.457c-.137.026-.383-.054-.455.04h-.538c-.19.028-.494-.054-.62.042H70.673c-.208.026-.523-.054-.662.042H63.39c-.51-.096-1.2-.014-1.778-.042h-1.697c-.304-.098-.786-.014-1.16-.042H57.56c-.224-.096-.62-.014-.912-.04h-.867c-.197-.096-.568-.016-.83-.042H54.246c-.15-.095-.48-.015-.702-.04-.165.03-.504-.02-.788 0-.055-.094-.287-.017-.412-.043h-.746c-.056-.093-.287-.014-.413-.042h-.538c-.07-.093-.315-.014-.455-.04h-.496c-.083-.095-.343-.015-.496-.042h-.413c-.098-.095-.37-.014-.538-.042h-.33c-.06-.092-.288-.014-.414-.04h-.747c-.043-.094-.26-.015-.372-.04-.056-.096-.287-.016-.413-.042h-.248c-.056-.096-.287-.016-.413-.042h-.25c-.058-.094-.287-.016-.413-.04-.544.005-1.025-.052-1.53-.084-.06-.094-.29-.016-.416-.042-.872-.008-1.674-.09-2.522-.124-.07-.093-.315-.016-.454-.042h-.415c-.07-.093-.316-.014-.456-.042H38.4c-.1-.093-.373-.014-.54-.042h-.66c-.058-.093-.29-.014-.414-.04h-.871c-.084-.095-.343-.015-.495-.04h-.746c-.043-.07-.368-.07-.412 0-1.047-.085-2.242-.023-3.352-.043h-.042c-.26-.068-.812-.068-1.077 0h-1.694c-.277.027-.662-.054-.87.042H26.4c-.127.025-.358-.055-.414.04-.56-.02-1.003.074-1.573.04-.126.026-.357-.05-.413.042" fill="#e71b23" fill-rule="evenodd"/><path d="M84.37 46.01c7.36-1.056 14.852-2.368 20.15-5.5 1.6-.95 2.967-1.967 4.345-3.145.136-.118.39-.41.54-.33-.63 1.702-1.63 3.032-2.733 4.258-.204.142-.333.355-.537.497-.17.135-.323.287-.456.456-5.126 4.587-12.45 6.97-20.772 8.36-1.635.21-3.237.458-4.924.618-1.64.17-3.507.327-5.13.373-.14.026-.385-.054-.457.042h-.455c-.14.025-.385-.055-.454.04h-.54c-.192.027-.495-.055-.62.04h-.661c-.22.028-.55-.053-.704.043H65.17c-.152-.096-.48-.015-.702-.042h-2.32c-.508-.095-1.198-.01-1.778-.04h-1.282c-.317-.095-.814-.014-1.2-.04h-.994c-.235-.097-.648-.016-.95-.043-.09-.018-.11.028-.166.042-.112-.097-.4-.017-.58-.043h-.248c-.097-.096-.37-.016-.536-.04h-.788c-.072-.096-.315-.016-.455-.042h-.62c-.127-.096-.426-.016-.62-.042h-.62c-.127-.096-.428-.016-.62-.042h-.334c-.11-.095-.397-.014-.58-.04h-.33c-.123-.095-.426-.016-.62-.04h-.33c-.113-.097-.4-.015-.58-.043h-.33c-.072-.096-.317-.016-.457-.04h-.29c-.084-.097-.345-.018-.497-.044-1.828-.046-3.5-.25-5.338-.29-.056-.093-.287-.015-.413-.04-.057-.095-.29-.015-.414-.04h-.37c-.073-.096-.318-.017-.458-.043h-.373c-.056-.094-.287-.016-.413-.042h-.496c-.098-.095-.37-.014-.54-.04h-.493c-.126-.095-.43-.016-.622-.042h-.662c-.165-.095-.51-.014-.743-.042h-1.035c-1.155-.062-2.39-.04-3.6-.04h-1.158c-.36.026-.828-.055-1.12.04h-.826c-.222.028-.55-.054-.702.042h-.58c-.14.026-.384-.054-.455.042-.153.026-.412-.055-.496.04-5.855.27-11.28.97-15.516 2.856-.174.062-.35.118-.455.247-1.495.74-2.706 1.768-3.517 3.19-.054-.347-.154-.648-.124-1.08v-.454c.363-4.106 3.525-6.223 6.784-7.488 3.43-1.33 7.655-1.99 12.042-2.235.154-.026.413.054.497-.042h.29c.137-.025.384.055.454-.04h.495c.168-.027.44.055.54-.04h.784c.263-.027.634.053.827-.043H30.7c1.094.026 2.364.092 3.395.042.16.085.473.02.702.04.275.097.73.015 1.074.04h.58c.276.1.73.017 1.075.043h.538c.235.096.648.014.95.042h.663c.14.096.456.014.663.04h.662c.154.097.483.016.704.042h.412c.167.095.51.016.746.042h.538c.112.094.4.015.578.04h.58c.097.096.37.016.538.043h.497c.097.095.37.014.536.042h.457c.11.093.396.014.578.04.073-.05.276.033.456 0 .085.095.345.016.496.04.804-.015 1.504.07 2.275.085.058.094.29.015.415.04h.413c.058.096.29.016.415.042h.413c.057.096.29.016.414.042.44-.038 1.083.074 1.655.042.058.094.288.014.415.042h.37c.06.094.29.014.416.04.084.095.343.016.496.042h.29c.082.093.342.014.495.042h.29c.085.093.344.014.496.042h.416c.163-.038.305.06.37 0 .018.09.204.014.292.04.083.095.343.016.496.042h.29c.083.095.342.014.496.042h.29c.1.093.37.014.537.04h.373c.058.095.288.016.413.04h.415c.07.097.315.017.455.043h.412c.072.095.317.016.455.043h.415c.084.094.345.015.496.042.552-.028 1.016.032 1.533.04.126.096.427.015.62.042H66.825c.138.096.455.015.662.042h.993c.497.095 1.173.01 1.74.04h.95c.51-.03 1.13.055 1.572-.04h.87c.165-.027.44.05.538-.043h.496c.138-.026.385.054.455-.042 1.584-.084 3.153-.185 4.635-.37h.042c1.59-.15 3.143-.334 4.593-.623" fill="#e71b23" fill-rule="evenodd"/><path d="M30.91 41.376c1.112.02 2.305-.042 3.352.042-.064.75-.082 1.546-.084 2.36-.096.302-.014.785-.04 1.158v.04c-.098.153-.016.482-.042.704-1.03.05-2.3-.016-3.394-.04V45.185c.096-.126.014-.43.042-.622v-.042c.096-.137.014-.452.04-.66v-.04c.07-.1.07-.483 0-.58v-.083c.098-.14.016-.455.042-.662v-.042c.096-.125.016-.427.042-.62.078-.09.028-.303.042-.457" fill="#2056ae" fill-rule="evenodd"/><path d="M37.2 41.5h.66c.1.097.372.017.54.043.07.094.314.016.454.042h.457c.056.093.288.016.413.042h.455c.847.033 1.65.113 2.525.123.057.094.287.014.412.04.507.034.987.088 1.532.084.058.094.287.016.413.042h.25c.057.093.286.014.412.042h.25c.03.09.23.016.33.04.072.093.315.015.455.04h.29c.07.095.316.015.455.043h.33c.06.095.29.015.414.043h.54c.056.094.288.014.413.04h.454c.098.096.37.016.54.042h.495c.083.094.342.014.496.042h.742c.06.093.29.014.414.042h.415c.28-.02.622.03.786 0 .15.094.482.013.704.04h.04c.14.094.456.012.664.04h.828c.207.096.592.014.868.042h1.284c.193.094.564.014.827.04H60.452c.305.098.788.016 1.16.042H64.675c.263.096.702.014 1.035.042h2.398c.387-.028.883.054 1.2-.042h1.366c.126-.026.355.054.413-.042h.87c.125-.026.356.054.412-.04H72.95c.14-.028.384.052.454-.042.14-.028.385.052.455-.04h.33c.126-.027.357.05.415-.04 1.743-.053 3.342-.247 5.007-.374 0 .77.018 1.525.082 2.233-.002.663.02 1.303.083 1.904-.095.11-.016.398-.04.578-1.483.187-3.052.287-4.636.373-.138.026-.384-.056-.455.042h-1.033c-.276.026-.662-.056-.87.04H68.48c-.25-.096-.675-.014-.992-.04h-.912c-.056-.096-.287-.018-.413-.042h-.62c-.516-.01-.98-.068-1.53-.042-.085-.094-.344-.016-.498-.042H63.1c-.07-.093-.315-.015-.454-.04-.058-.095-.287-.017-.413-.04h-.869c-.058-.096-.288-.017-.413-.043h-.372c-.098-.095-.37-.016-.538-.042h-.29c-.085-.093-.345-.013-.496-.04h-.29c-.043-.095-.26-.015-.372-.04-.058-.095-.29-.017-.415-.043-.066.062-.207-.036-.373 0-.056-.094-.287-.016-.413-.042H56.606c-.085-.094-.342-.014-.496-.042h-.292c-.07-.094-.315-.014-.455-.04-.07-.095-.315-.016-.454-.042h-.374c-.056-.093-.287-.016-.413-.042-.572.032-1.214-.077-1.655-.04-.058-.095-.29-.015-.415-.04h-.413c-.058-.097-.29-.017-.415-.043-.057-.093-.287-.015-.412-.04h-.415c-.772-.015-1.474-.1-2.275-.083-.084-.096-.343-.016-.497-.042-.18.032-.383-.05-.457 0-.096-.095-.372-.016-.537-.042-.084-.095-.343-.014-.497-.04h-.538c-.084-.095-.343-.015-.497-.04H44.4c-.056-.097-.288-.017-.413-.043h-1.117c-.112-.096-.4-.014-.58-.042-.112-.094-.4-.014-.58-.042h-.66c-.152-.094-.483-.014-.705-.04h-.62c-.153-.096-.482-.016-.704-.042h-.705c-.18-.095-.536-.014-.785-.042h-1.035c-.126-.095-.425-.014-.62-.04h-.786c-.222-.125-.73.04-.952-.083V44.934c.095-.303.014-.786.04-1.157.002-.813.022-1.61.083-2.36h.704c.07.095.316.015.456.04H36.37c.06.097.288.017.416.043h.413z" fill="#fff" fill-rule="evenodd"/><path d="M84.038 42.66c.062.71.146 1.4.208 2.11.016.354.038.705.124.992v.25c-1.45.29-3.004.472-4.593.62v-.578c-.064-.6-.086-1.24-.084-1.905.034-.63-.066-1.478-.04-2.236 1.406-.206 2.86-.365 4.26-.58.012.185.068.323.042.54 0 .29.016.564.083.786" fill="#2056ae" fill-rule="evenodd"/><path d="M130.67 71.873c-.334.287-.612.628-.992.87-1.72.147-2.643-.504-2.607-2.113.097-.097.016-.37.043-.536.22-2.668 1.235-4.672 2.315-6.62.774-1.393 1.618-2.73 2.774-3.933.283-.294.91-.974 1.2-1.034.346-.068 1.143.155 1.612.29 3.334.958 5.528 3.42 5.92 7.284.976-1.287 2-2.882 3.185-4.096.153-.122.292-.26.412-.415 1.813-1.706 4.164-2.873 7.408-3.144.79 1.855 1.344 3.95 1.653 6.288 2.178-2.387 5.434-4.056 9.313-4.884 1.3 2.616 2.337 5.498 2.48 9.27v.91c-.075 3.773-1.333 6.363-2.317 9.227-2.513 1.557-4.996 3.143-8.855 3.352h-.87c-2.214-.09-3.8-.807-5.42-1.49-.105-.736-.254-1.428-.33-2.194 4.11 1.703 10.732.963 14.4-.62-.028-.154.05-.41-.042-.497-.254-5.678-1.422-10.442-2.816-14.98-4.072 2.287-5.725 6.99-6.122 12.953-1.707.182-3.302.475-4.884.784-.015-1.203.19-2.543.21-3.847.094-.084.015-.345.04-.494v-.664c.096-.264.015-.704.043-1.035v-1.49c-.028-.25.053-.604-.042-.786-.067-2.467-.408-4.665-.87-6.743-1.08.712-1.92 1.755-2.69 2.814-2.308 3.176-3.873 7.267-5.17 11.463-1.563.227-3.023.562-4.594.784.44-2.62 1.33-5.85 1.035-8.936-.278-2.938-1.583-5.204-4.095-5.917-1.456 1.69-2.238 4.052-2.4 7.035-.07.25-.07.784 0 1.033.493.557 1.686.414 2.607.54-.14.203-.357.332-.496.538-.363.327-.708.672-1.035 1.035" fill="#e71b23" fill-rule="evenodd"/><path d="M130.67 71.873c.328-.363.673-.708 1.036-1.035-.33.363-.672.708-1.035 1.035" fill="#ef947c" fill-rule="evenodd"/><path d="M209.164 82.425c-1.82-.194-3.58-.838-4.76-1.74-1.164-.893-2.1-2.408-2.233-4.22-.298-4.107 2.172-6.974 4.304-8.855 2.435-2.146 5.352-3.67 8.607-4.55.035.558-.274 1.128-.33 1.738-3.91 1.58-7.305 3.672-9.187 7.28.945 2.252 2.407 4.27 4.552 5.463 2.064 1.148 5.648 1.46 8.234.414-1.82-.8-3.762-1.478-6.04-1.82-.04-.246.262-.398.412-.537.955-.898 1.846-1.755 2.937-2.65.342-.28.944-.828 1.283-.908.583-.143 1.446.075 1.986.206 1.726.42 2.985 1.38 4.26 2.192.493-1.342.844-2.826.912-4.594.068-.262.068-.812 0-1.075-.072-2.316-.652-4.123-1.78-5.38-.12-.155-.258-.293-.413-.414-.91-.816-2.07-1.378-3.684-1.49-.318-.068-.924-.068-1.24 0-3.662.285-6.246 1.643-8.775 3.063-.75-.228-1.465-.49-2.232-.705 1.05-.686 2.163-1.316 3.31-1.862 3.446-1.64 7.145-3.215 12-3.476h1.2c4.38.102 6.935 2.03 7.407 6.042v.785c-.383 4.32-2.353 7.055-4.51 9.6-.198.16-.377.34-.54.538-.503.122.332.686.54.91.687.745 1.523 1.66 1.986 2.4-.673 1.05-1.306 2.142-1.946 3.227-1.53-.993-3.03-2.016-4.674-2.896-3.045 1.685-6.557 2.904-10.882 3.31h-.704zM273.88 81.39c-3.178-.355-4.805-2.26-6.705-3.89-.383-.417-.782-.818-1.2-1.2-.192-.226-.41-.44-.66-.705-.178-.187-.567-.498-.623-.743-.15-.674.265-1.47.166-2.318 3.822 1.15 7.428 3.113 10.718 5.006.437.253 1.097.694 1.49.746.87.115 1.856-.38 2.564-.746 1.408-.724 2.634-1.526 2.896-3.392.067-.044.067-.367 0-.413-.088-1.374-1.66-1.4-2.98-1.655-.945-.184-1.954-.567-2.564-.993-1.05-.734-2.168-2.14-2.028-4.098.094-1.323.688-2.498 1.242-3.56.555-1.064 1.12-2.09 1.86-2.894.184-.15.35-.315.497-.497.814-.68 1.695-1.287 2.94-1.534h2.15c1.722.947 2.79 4.026 1.864 6.5-.072.208-.207-.163-.29-.21-1.275-1.167-2.546-2.338-4.883-2.442-.14-.067-.564-.067-.704 0-.183-.032-.25.056-.413.042-.468 1.213-.2 3.107.413 3.725.54.544 1.835.84 2.896 1.034 1.17.216 2.482.2 3.31.58 1.05.485 1.23 1.522 1.82 2.36-.677 2.315-1.796 4.187-3.226 5.75-.307.272-.596.563-.87.868-1.583 1.466-3.497 2.656-5.667 3.685-1.01.477-1.76 1.01-3.188.993h-.826zM361.557 58.962h.042c.097.094.372.015.538.042.74.002 1.3.187 1.902.33.036.67.403 1.26.373 1.864-.018.368-.263.823-.373 1.198-.123.43-.24.826-.33 1.242-.992-.554-1.975-1.473-3.31-1.82-.097.26-.015.702-.043 1.035v.496c-.094.07-.014.314-.042.454.008.435-.094.76-.124 1.158.845.068 1.973.068 2.815 0h.746c.138-.026.384.054.455-.042-.107.846-.48 1.78-.7 2.65-.83 0-1.475.18-2.32.164-.14.026-.384-.052-.455.042h-.415v.082c.028.468-.054 1.05.042 1.45v1.447c.028.317-.054.744.042.993v.87c.027.233-.055.578.04.744v.662c.027.18-.053.468.04.578v.58c.03.14-.05.385.043.455.024.473.032.963.084 1.406-1.448.43-3.004.75-4.427 1.2-.028-.29.053-.688-.042-.91v-1.158c-.028-.357.054-.827-.042-1.116v-1.162c-.028-.357.054-.825-.042-1.115v-1.157c-.026-.373.056-.856-.042-1.16v-1.157c-.026-.36.056-.828-.04-1.12-.578.057-1.15.122-1.74.166.597-1.142 1.29-2.187 2.03-3.186.02-.79-.302-1.548-.208-2.192.055-.37.446-.81.664-1.118.263-.377.55-.698.783-.992.157-.12.296-.26.416-.414.844-.702 1.74-1.352 3.185-1.448.14-.026.388.052.457-.042M175.69 59.17c.25.014.456-.014.662-.043.038.17-.26.36-.455.54-1.302 1.194-2.742 2.552-4.096 3.723-.332-.193-.705-.343-1.076-.496.674-1.23 1.392-2.415 2.11-3.6h.496c.14-.026.385.052.455-.042h.497c.14-.026.385.054.456-.042h.497c.14-.026.383.054.455-.042M371.53 59.17c.248.014.456-.014.663-.043.06.193-.275.33-.457.498-1.302 1.193-2.727 2.57-4.054 3.765-.378-.16-.73-.347-1.118-.496.642-1.25 1.404-2.376 2.07-3.6h.536c.14-.026.385.052.457-.042h.494c.143-.026.386.054.458-.042h.496c.14-.026.385.054.455-.042M170.807 68.23c.07 1.57.19 3.092.25 4.675.972-.93 1.87-2.293 2.605-3.597-.62-.786-1.637-1.177-2.814-1.408-.107-.172-.12.315-.042.33m3.063 4.76V71.87c-.924 1.05-2.04 2.266-3.064 3.35-.195.164-.374.343-.538.54-.25.258-.465.555-.786.745-.8-.232-1.62-.45-2.317-.786-.107-1.188-.36-2.233-.37-3.515-.03-.153.05-.415-.043-.498-.205-3.903 2.108-5.285 4.096-6.994 2.37.7 5.606.4 6.663 2.4.334.63.47 1.405.497 2.442v2.4c-.096.318-.014.813-.042 1.2v.62c-.02.654.082 1.188.124 1.78-1.566.295-2.988.736-4.47 1.117.134-.792.17-1.68.208-2.566.095-.124.014-.427.04-.62v-.497zM322.498 67.445c-.098 1.82-.015 3.82-.042 5.71 1.172-.966 1.98-2.655 2.813-4.097-.722-.74-1.63-1.294-2.772-1.613m6.95 2.277c-.047 1.454-.208 2.86-.332 4.344-.12 1.453-.05 2.98-.455 4.22-.523 1.604-1.574 2.73-2.73 3.766-.57.513-.926.993-1.9 1.075-1.57.13-3.14-.212-4.18-.786-.316-.172-.848-.434-.952-.703-.133-.34-.092-.877-.125-1.282-.036-.427-.15-.953-.082-1.284.065-.308.73-.83.992-1.074.423-.385.75-.708 1.12-.953.778 1.346 2.362 1.886 4.26 2.112.07-.058.07-.4 0-.455v-1.077c-.028-.345.056-.8-.04-1.077v-1.033c-.03-.275.052-.662-.042-.87v-.824c-.028-.195.052-.496-.042-.622.003-.237.01-.478-.042-.662-.606.78-1.7 1.777-2.648 2.606-.233.204-.644.816-.87.87-.362.086-.936-.198-1.323-.33-.44-.153-.794-.302-1.157-.458-.203-1.04-.53-1.95-.538-3.184v-.87c.203-3.19 2.52-4.263 3.765-6.413h.743c3.448.098 6.332.758 6.58 4.056v.912zM345.586 68.23c.072 1.57.19 3.092.247 4.675.975-.93 1.873-2.293 2.61-3.597-.622-.786-1.64-1.177-2.815-1.408-.108-.172-.124.315-.042.33m3.063 4.76V71.87c-.926 1.05-2.04 2.266-3.064 3.35-.197.164-.375.343-.538.54-.252.258-.465.555-.786.745-.804-.232-1.62-.45-2.317-.786-.108-1.188-.36-2.233-.373-3.515-.026-.153.054-.415-.04-.498-.208-3.903 2.106-5.285 4.096-6.994 2.37.7 5.603.4 6.662 2.4.33.63.47 1.405.497 2.442v2.4c-.098.318-.015.813-.042 1.2v.62c-.02.654.08 1.188.124 1.78-1.57.295-2.99.736-4.47 1.117.133-.792.167-1.68.207-2.566.094-.124.014-.427.042-.62v-.497zM377.322 68.23c.07 1.57.193 3.092.25 4.675.972-.93 1.87-2.293 2.607-3.597-.623-.786-1.64-1.177-2.816-1.408-.108-.172-.122.315-.042.33m3.06 4.76V71.87c-.923 1.05-2.035 2.266-3.06 3.35-.198.164-.375.343-.537.54-.253.258-.467.555-.786.745-.804-.232-1.624-.45-2.32-.786-.107-1.188-.36-2.233-.373-3.515-.026-.153.056-.415-.04-.498-.207-3.903 2.106-5.285 4.096-6.994 2.37.7 5.606.4 6.66 2.4.334.63.47 1.405.5 2.442v2.4c-.096.318-.015.813-.043 1.2v.62c-.02.654.082 1.188.124 1.78-1.565.295-2.987.736-4.47 1.117.135-.792.17-1.68.21-2.566.094-.124.013-.427.038-.62v-.497zM251.536 69.35c-.058-1.31-.802-1.932-2.07-2.03-.134.984-.224 2.013-.33 3.022-.16.27.625.17.784.123h.663c.14-.026.384.052.454-.042h.415c.24-.02.076-.448.124-.662-.026-.124.053-.356-.04-.412m-6.126-.083c.11-.624-.138-1.434.083-2.028.086-.23.475-.433.746-.662.556-.47.875-.756 1.487-1.283.24-.205.584-.582.746-.62.32-.072 1.07.08 1.613.126 2.27.18 4.658.136 4.965 2.315v.662c-.09.915-.266 1.745-.37 2.648-1.29.838-3 1.464-5.214 1.243-.108.123.18.203.207.33.12.154.26.294.413.416.413.345.83.684 1.49.783.11.07.51.07.622 0 1.055-.032 1.687-.712 2.317-1.033-.483 1.825-1.89 3.88-4.303 4.054-1.117.082-2.828-.075-3.518-.743-.122-.156-.26-.294-.415-.415-.693-.824-.908-2.126-.91-3.64V69.93c.095-.14.014-.456.04-.665M295.105 69.35c-.056-1.31-.802-1.932-2.07-2.03-.134.984-.222 2.013-.33 3.022-.16.27.627.17.786.123h.663c.14-.026.385.052.455-.042h.415c.24-.02.074-.448.124-.662-.026-.124.053-.356-.042-.412m-6.124-.083c.11-.624-.14-1.434.084-2.028.086-.23.475-.433.744-.662.56-.47.876-.756 1.49-1.283.24-.205.582-.582.746-.62.32-.072 1.068.08 1.613.126 2.27.18 4.656.136 4.965 2.315v.662c-.093.915-.267 1.745-.373 2.648-1.29.838-3.002 1.464-5.215 1.243-.106.123.183.203.21.33.12.154.256.294.412.416.41.345.83.684 1.49.783.113.07.508.07.62 0 1.057-.032 1.687-.712 2.32-1.033-.484 1.825-1.89 3.88-4.307 4.054-1.114.082-2.825-.075-3.515-.743-.122-.156-.26-.294-.415-.415-.692-.824-.907-2.126-.91-3.64V69.93c.094-.14.015-.456.04-.665M180.034 68.975c-.048-1.68 1.314-2.844 2.525-3.6.39-.243.944-.686 1.28-.743.49-.086 1.076.09 1.572.123.525.036 1.013.046 1.574.084.057.093.287.013.412.04h.54c.11.095.4.015.58.04h.908c.304.1.786.015 1.16.043-.26 1.05-.653 1.968-.745 3.184-1.732-.542-3.796-.75-5.875-.95.345 1.283 1.858 1.756 3.557 1.82.36.096.897.014 1.324.042 1.657-.055 2.948.25 3.023 1.778v.827c-.336 3.17-2.725 4.288-6 4.51h-1.45c-1.656-.067-2.984-.464-4.013-1.158.152-.702.467-1.242.662-1.904 1.253.47 2.6.845 4.302.87.07.067.425.067.497 0 .984-.02 1.652-.358 2.314-.705-.347-.34-.853-.522-1.487-.578-.114-.07-.51-.07-.62 0h-1.327c-2.498-.094-4.578-.606-4.716-3.06v-.665zM313.27 63.555c-2.802-.187-2.874-4.528 0-4.758h.455c1.248.158 1.98.834 2.15 2.068v.578c-.17 1.25-.916 1.927-2.15 2.112h-.455zM231.59 68.894c.002-1.214.178-2.25.25-3.394 1.723-.22 3.25-.638 4.758-1.075-.39 1.61-.662 3.338-.87 5.13-.068.127-.068.537 0 .663.122 1.382.758 2.25 1.2 3.308.66-.472 1.275-.985 1.738-1.653.07-.94.07-2.167 0-3.105v-.662c-.026-.137.053-.383-.042-.454-.036-.888-.13-1.717-.248-2.525 1.588.23 3.265-.076 4.718-.25 0 .252-.07.43-.042.705-.095.072-.016.317-.042.456v.62c-.095.208-.014.593-.042.87v4.096c.028.303-.053.718.042.95v.871c.026.25-.053.606.042.787v.744c-.016.164.038.397-.042.497-1.543.29-3.09.576-4.592.91-.04-.536.175-1.176.163-1.822.07-.057.07-.394 0-.453-1.173.616-2.228 1.354-3.307 2.07-.84-.278-1.62-.353-2.275-.704-1.388-.744-1.546-2.635-1.492-4.842.098-.18.016-.536.042-.785v-.536c.094-.06.016-.29.042-.416M300.567 65.21v-.412c1.31.137 2.642.25 3.972.37.07.976.165 1.93.205 2.94.662-1.438.62-3.576 2.69-3.602h.538c.627-.006 1.043.198 1.532.33-.385 1.563-.752 3.142-1.242 4.596-.13.022-.328-.102-.497-.207-.457-.29-1.033-.69-1.57-.912-.35.587-1.16 1.197-1.286 2.028-.083.57.164 1.152.168 1.822.566.275 1.276.405 2.068.457-.39 1.165-.866 2.248-1.324 3.35h-1.282c-.058-.095-.288-.017-.413-.043-1.163.032-1.96-.303-2.525-.87-.135-.167-.287-.32-.455-.454-.498-.55-.678-1.42-.703-2.44V69.76c.095-.193.014-.563.04-.825v-.787c.095-.196.014-.565.04-.826v-.869c.097-.196.017-.567.043-.828v-.415zM332.013 65.21v-.412c1.31.137 2.644.25 3.972.37.074.976.167 1.93.207 2.94.662-1.438.62-3.576 2.69-3.602h.54c.625-.006 1.042.198 1.53.33-.385 1.563-.75 3.142-1.242 4.596-.132.022-.327-.102-.497-.207-.456-.29-1.033-.69-1.573-.912-.347.587-1.16 1.197-1.282 2.028-.084.57.16 1.152.167 1.822.567.275 1.277.405 2.068.457-.39 1.165-.865 2.248-1.324 3.35H335.984c-.056-.095-.287-.017-.413-.043-1.16.032-1.958-.303-2.522-.87-.136-.167-.288-.32-.457-.454-.497-.55-.676-1.42-.702-2.44V69.76c.097-.193.012-.563.04-.825v-.787c.097-.196.015-.565.04-.826 0-.14.003-.277 0-.415v-.454c.1-.196.017-.567.043-.828v-.415zM311.74 68.273c-.505.253-1.464.26-2.112.125.14-.54.23-1.126.372-1.657 2.288-.387 4.172-1.18 6-2.027V67.445c-.095.084-.014.343-.04.495v.25c.027.222-.055.55.04.705v1.324c.027.15-.053.41.043.494v.538c.026.154-.054.41.04.497v.535c.028.142-.054.385.042.457.04 1.01.133 1.962.165 2.98-1.51.28-3.057.527-4.676.7.066-.53.104-1.082.126-1.652.093-.086.014-.345.042-.5v-.745c.07-.99.07-2.273 0-3.266V68.934c-.028-.207.053-.523-.042-.662M366.605 68.273c-.502.253-1.46.26-2.11.125.138-.54.228-1.126.37-1.657 2.29-.387 4.18-1.173 6.004-2.027v2.772c-.07.305-.07.898 0 1.203v1.447c.023.152-.055.41.04.497v.536c.024.154-.055.413.04.497v.54c.026.15-.053.41.042.495.038 1.023.138 1.986.164 3.02-1.512.28-3.055.53-4.674.703.063-.53.1-1.083.123-1.653.094-.086.015-.345.042-.5v-.745c.096-.466.015-1.114.042-1.653V71.5c-.03-.413.053-.938-.043-1.28V68.894c-.028-.195.054-.497-.042-.622" fill="#e71b23" fill-rule="evenodd"/><path d="M367.888 10.965c6.396-.407 11.62-1.98 17.088-3.31.154-.03-.078.23-.165.33-.312.368-.653.73-.95 1.16-1.135 1.636-2.316 3.31-3.476 4.965-1.576 2.25-2.607 4.953-3.56 7.737h-.038c-.01.15.4.092.453.042 4.344-1.006 8.546-2.16 12.87-3.188-.284-2.973-.68-5.833-1.49-8.275 3.778-.852 7.647-1.795 11.336-2.607-.12.407.03.784.042 1.075.028.766-.154 1.683-.25 2.525-.652 5.663-.88 11.99-1.282 17.875-.476 6.987-.76 13.963-1.075 20.855-6.533 1.368-14.01 1.794-21.184 2.524-.082-.064.38-.293.58-.415 1.564-.97 3.133-2.172 4.425-3.436.197-.162.378-.34.54-.537 4.058-4.243 6.917-9.69 8.068-16.84-.37-.41-1.015-.35-1.572-.415-1.685-.198-3.545-.475-5.256-.62-.192-.096-.562-.015-.828-.042-.468.028-1.047-.054-1.447.042H379.184c-.47.028-1.05-.054-1.45.042h-1.529c-.22.028-.55-.054-.704.042-.213.006-.467-.026-.62.04-.28.658-.267 1.5-.33 2.32-.063.812-.127 1.658-.127 2.48-.07.526-.07 1.338 0 1.862v.828c.026.125-.052.357.042.414.18 3.572.997 6.507 1.448 9.805-2.515 1.11-5.7 1.907-9.062 2.36-.466.063-1.18.197-1.45.08.098-.178.017-.535.045-.784v-1.116c.095-.18.012-.537.04-.786V46.88c.095-.18.014-.537.04-.786v-1.117c.097-.18.016-.536.043-.786v-1.157c.097-.18.016-.537.043-.786v-1.12c.094-.18.015-.536.04-.787V39.227c.098-.18.016-.538.042-.786v-1.116c.096-.182.016-.54.042-.788V35.42c.096-.194.015-.567.04-.828v-1.117c.098-.18.016-.54.044-.786v-1.12c.097-.18.012-.536.04-.787v-1.115c.097-.18.015-.538.043-.788v-1.116c.096-.18.016-.537.042-.786V25.82c.095-.18.014-.537.04-.786v-1.12c.095-.178.016-.535.042-.783v-1.117c.097-.18.014-.537.042-.786V20.11c.094-.18.013-.538.04-.787v-1.159c.094-.18.015-.538.04-.786v-1.116c.098-.18.016-.54.042-.786v-1.12c.096-.178.016-.535.042-.785v-1.115c.096-.18.015-.54.042-.786v-.747c.36.054.772.056 1.157.084.14-.028.385.052.457-.042M277.48 8.068c2.3.03 4.55.112 6.33.662-1.134 4.154-2.628 8.296-3.475 12.868-1.155-.602-2.246-1.212-3.353-1.86-1.064-.624-2.257-1.32-3.806-1.284-.73 1.407-1.21 3.07-1.324 5.09-.096.192-.015.565-.042.826v.828c-.096.18-.015.538-.042.785v1.201c-.096.18-.015.538-.04.786v2.36c-.07 2.178-.07 4.647 0 6.825v3.396c.026.4-.056.91.04 1.24v3.311c.023 1.638-.292 2.935-.786 4.055-2.096.94-4.445 1.472-6.828 2.154-2.39.68-5.003.89-7.572 1.405 1.03-4.052 2.032-7.967 2.98-12 .945-4.023 1.898-8.157 2.027-12.91.095-.085.015-.344.04-.497V26.355c.097-.288.015-.756.04-1.115v-2.276c-.025-.373.057-.855-.04-1.158V20.73c-.025-.18.055-.468-.04-.58v-.66c-.026-.127.05-.358-.043-.414v-.29c-3.394-.2-5.848 1.097-8.068 2.316-1.135.624-2.228 1.284-3.27 1.986-.518.35-.964.78-1.49 1.117-.408.263-.763.546-1.157.827-.068.05-.208.236-.33.126.872-5.486 2.284-10.433 3.722-15.35 6.437-.683 12.884-1.353 19.738-1.614.125-.028.356.052.412-.042h.623c.15-.028.412.052.494-.042h.746c.22-.028.55.054.704-.042H277.48zM356.427 8.855c2.064.058 4.25-.002 5.628.746-1.92 4.633-4.288 8.815-6.58 13.074-.988-.068-1.578-.508-2.316-.993-2.91-1.905-5.95-3.776-8.983-5.503-.15-.067-.59-.067-.744 0-1.306.162-2.77.325-3.557 1.075-.385.37-.682 1.322-.993 1.988-1.6 3.432-2.942 6.707-4.304 10.47-.543 1.497-1.063 3.475-.497 5.09.27.772.997 1.492 1.53 2.19 1.66 2.168 3.208 4.074 5.01 6.084 3.074-1.162 5.99-2.746 8.894-4.18 1.458-.72 2.966-1.318 4.013-2.44.197-.164.375-.343.538-.54.267-.23.515-.477.744-.745.183-.148.35-.314.496-.497 1.9-2.142 3.837-4.246 4.966-7.16.295 0 .526.34.788.58.23.215.614.466.66.747.04.233-.134.754-.206 1.16-1.015 5.618-2.18 11.712-3.103 17.254-8.09 1.386-16.238 2.71-24.372 4.054h-2.027c-.205-.096-.592-.014-.867-.04h-.042c-2.284-5.344-4.774-10.497-7.283-15.766-.434-.917-.96-1.61-.952-2.773v-.58c.277-2.068 1.16-4.283 1.82-6.082.708-1.924 1.434-3.68 2.154-5.38 1.52-3.59 2.92-7.09 4.676-10.344 5.684-.55 11.405-1.066 17.38-1.324.125-.026.354.052.412-.042h.578c.126-.026.357.054.415-.042h.58c.124-.026.355.054.413-.04h.786c.193-.027.496.052.622-.042h3.722zM187.77 9.06h.374c.188.185.032.715.084 1.036-.096.056-.016.287-.042.413-.315 4.83-1.44 8.85-2.606 12.827-.158.062-.32-.103-.415-.165-.955-.638-2.124-1.23-3.185-1.82-3.66-2.045-8.32-3.068-13.698-3.437-.083-.093-.343-.014-.496-.04h-.413c-.682-.02-1.308.016-1.904.082-.994 2.07-1.1 5.025-1.325 7.863h.125c.07.094.315.014.455.04 4.21-.12 7.342-1.318 10.344-2.648.635.123 1.347.17 1.985.29-.066 1.022.397 2.01.247 3.02-.124.847-.437 1.715-.662 2.566-.668 2.55-1.19 5.275-1.986 7.696-.206.04-.357-.174-.497-.29-1.142-.965-2.604-1.88-4.383-2.275-2.25-.5-4.628.004-6.25.908-.362 1.472-.81 2.858-.867 4.635-.096.058-.018.29-.042.415.026.167-.056.438.042.538.046 1.18.598 1.855 1.157 2.523 4.586-.965 8.945-2.293 12.826-4.016 3.873-1.715 7.392-3.788 9.89-6.907.743.387.404 1.328.29 2.108-.36 2.482-.517 5.38-.662 8.028-.094.056-.016.287-.04.413v.622c-.096.084-.016.343-.042.496V44.937c-.098.234-.014.645-.042.95.028.69-.056 1.49.042 2.11v.207h-.622c-.138.028-.383-.054-.455.042-8.308.48-15.856 1.326-23.71 2.275-2.595.316-5.246.71-8.07.5v-.704c.096-.1.017-.373.043-.54v-.828c.095-.096.016-.37.042-.537v-.826c.095-.112.014-.4.04-.58v-.786c.097-.112.016-.4.042-.578v-.788c.097-.11.016-.397.042-.578v-.828c.094-.098.015-.37.04-.538v-.828c.096-.097.015-.37.043-.538v-.827c.093-.113.014-.4.04-.58v-.786c.095-.112.015-.4.04-.58v-.786c.097-.11.016-.4.043-.58v-.828c.094-.095.015-.37.04-.536v-.828c.096-.11.016-.398.042-.58v-.91c.096-.07.016-.316.042-.454v-1.12c.096-.096.016-.37.042-.537v-1.487c.096-.18.015-.538.04-.787v-1.2c.098-.276.016-.73.042-1.076v-.662c.096-.125.016-.426.042-.62v-.662c.096-.126.016-.427.042-.62v-.664c.096-.124.015-.427.042-.62v-.662c.094-.124.015-.427.04-.62v-.663c.096-.125.016-.426.042-.62v-.662c.096-.126.016-.427.042-.62V18.7c.096-.123.014-.424.042-.62v-.66c.094-.127.014-.428.04-.62v-.664c.095-.125.016-.426.042-.62v-.662c.095-.125.014-.426.042-.622v-.662c.095-.124.014-.427.04-.618v-.662c.095-.086.016-.345.042-.5v-.246h.745c.152-.026.41.052.497-.042h.786c.14-.026.384.054.454-.04h.622c.124-.028.355.052.413-.042h.62c.125-.028.356.052.414-.042 4.712-.207 9.12-.446 13.447-.91 4.286-.46 8.436-1.265 12.994-1.323.154-.028.41.052.497-.042h.745c.373-.028.855.054 1.158-.042M320.966 9.144c-.06 5.568-1.442 9.813-2.606 14.274-1.215-.63-2.373-1.414-3.64-2.068-3.802-1.952-8.405-3.107-13.905-3.394-.11-.094-.398-.014-.58-.042h-1.117c-.18.028-.466-.052-.58.042h-.373c-.91 2.138-1.073 5.023-1.28 7.863h.124c.07.093.314.015.453.04h.415c.152.07.59.07.744 0 3.557-.374 6.44-1.425 9.187-2.605.625.13 1.337.177 1.983.29-.038 1.016.367 2.023.29 3.02-.03.39-.264.855-.372 1.28-.75 2.985-1.474 6.124-2.316 9.022-.018.18-.195-.112-.25-.166-1.59-1.275-3.282-2.454-5.998-2.605-.057-.096-.287-.016-.412-.042h-.25c-.125.026-.357-.054-.414.042-1.532.095-2.746.51-3.807 1.075-.375 1.515-.836 2.943-.87 4.8-.093.057-.016.29-.04.414.028 1.35.577 2.182 1.24 2.896 6.897-1.478 13.268-3.648 18.333-6.992 1.278-.845 2.31-1.864 3.434-2.897.18-.163.377-.316.538-.496.144-.16.224-.42.455-.496.69.51.263 1.445.165 2.235-.31 2.53-.488 5.366-.62 8.026-.095.057-.016.287-.044.414v.662c-.09.098-.01.37-.04.537v.994c-.095.388-.014.952-.042 1.407v1.571h-.454c-.154.028-.413-.052-.497.042-9.842.516-18.925 1.79-28.3 2.774-1.172-.03-2.454.055-3.56-.04v-.414c.097-.114.015-.4.043-.582v-.786c.096-.112.014-.4.04-.578v-.828c.095-.097.016-.373.042-.538v-.828c.095-.097.016-.37.042-.538V45.1c.095-.11.014-.4.04-.578v-.786c.095-.11.016-.4.042-.58v-.786c.094-.11.014-.4.04-.58v-.826c.096-.1.016-.37.042-.538v-.828c.094-.11.015-.4.04-.58v-.786c.098-.11.016-.398.044-.58v-.786c.094-.11.015-.398.04-.578v-.786c.096-.11.014-.4.042-.58v-.953c.096-.11.014-.398.042-.58v-1.158c.094-.112.014-.4.04-.578v-1.24c.095-.28.014-.734.042-1.08v-1.198c.097-.275.016-.732.042-1.075v-.663c.095-.123.014-.427.042-.62v-.662c.093-.126.014-.427.04-.62v-.662c.095-.126.016-.427.042-.62v-.662c.095-.125.016-.426.042-.62v-.662c.093-.125.014-.426.042-.62v-.664c.095-.124.014-.427.042-.62v-.662c.093-.126.014-.427.04-.62v-.662c.095-.126.014-.427.042-.62v-.663c.095-.127.016-.428.042-.622v-.662c.093-.123.014-.427.04-.62v-.662c.095-.125.015-.426.04-.62v-.66c.097-.087.017-.344.043-.498v-.165c.576-.102 1.272-.084 1.946-.084.18-.026.466.054.578-.04h.748c.123-.028.355.052.413-.042h.618c.127-.025.357.053.417-.04 9.16-.2 17.08-1.612 25.776-2.234.125-.026.357.052.415-.042h2.938zM130.92 27.93c-3.487-3.066-7.413-5.69-13.49-6.167 1.99-3.995 4.04-7.933 6.04-11.915 8.454-.692 16.828-1.464 25.283-2.152-1.225 4.375-2.55 8.65-3.765 13.034-1.765-.91-3.693-1.963-5.753-2.73-1.89-.706-4.806-1.677-6.826-.5 1.058 2.053 3.193 3.104 5.046 4.472 1.32.97 2.542 1.972 3.683 3.06.15.185.312.35.496.498.21.175.404.368.58.578.147.183.313.35.496.498 2.934 2.956 5.49 7 7.614 11.046.15.287.395.572.455.788.086.32.052.835.082 1.2.034.4.148.875.126 1.157-.024.3-.24.755-.373 1.118-.905 2.503-1.884 5.123-2.772 7.614-12.674.593-25.337 1.2-37.447 2.356-.088-.183.135-.307.207-.413 3.055-4.562 5.903-9.564 8.234-14.896 4.177 1.59 8.74 3.027 13.324 4.345 1.47.423 2.73.7 4.468.166.61-.188 1.606-.58 1.74-1.075.195-.728-.264-1.932-.497-2.485-.27-.644-.707-1.296-1.074-1.944-.387-.68-.718-1.378-1.077-1.944-.545-.856-1.233-1.606-1.822-2.36-.618-.793-1.21-1.563-1.902-2.275-.343-.375-.702-.733-1.077-1.076M210.653 22.51c.41-.525.722-1.014 1.16-1.782.176-.31.928-1.483.868-1.902-.03-.225-.493-.485-.785-.662-2.123-1.286-5.515-1.482-8.606-1.49-.38 1.677-.532 3.58-.62 5.544-.07 1.587-.07 3.464 0 5.05-.016.605.078 1.104.164 1.612 2.768-1.493 5.354-3.527 7.364-5.916.17-.134.32-.285.455-.455m10.553-13.697h1.737c.138-.026.385.054.457-.042.277-.007.498.093.74 0 .79.1 1.754.016 2.61.043H229.272c-1.896 5.592-5.163 9.816-8.77 13.696-.28.244-.542.506-.788.787-.05.086-.12.153-.207.205-.223.19-.43.397-.62.62-.594.605-1.274 1.127-1.86 1.74 4.057 5.415 8.65 10.3 12.907 15.514-.68.905-1.418 1.754-2.19 2.568-.17.132-.322.285-.458.455-.014.052-.072.062-.082.122-.333.3-.652.616-.95.95-.085.014-.083.113-.166.125-.28.245-.543.51-.786.788-1.398 1.32-2.915 2.638-4.47 3.972-.814.698-1.415 1.452-2.73 1.57-.118-.242.06-.545 0-.868.095-.085.015-.344.04-.497v-.497c.095-.084.017-.343.04-.497-.358-6.204-2.502-10.625-5.335-14.358-.136-.17-.285-.32-.455-.455-.744-.612-1.825-1.492-3.063-1.117-.54.162-1.136.856-1.572 1.283-1.404 1.375-3.05 2.855-4.385 4.095-.36.154-.194 1.05-.166 1.448.212 3.043.806 5.703 1.28 8.483-2.734.478-5.533.897-8.315 1.323-1.72.266-3.42.6-5.338.208 1.03-6.53 1.822-13.296 2.07-20.607.093-.07.014-.315.04-.454v-1.076c.07-3.215.07-6.718 0-9.93v-.87c-.03-.275.055-.66-.04-.87v-.826c-.028-.275.053-.66-.043-.87v-.867c-.025-.126.053-.357-.04-.415-.003-1.432-.158-2.71-.206-4.096 1.938-.075 3.805-.222 5.79-.248.127-.026.36.052.416-.042h.62c.126-.026.357.052.413-.042h.664c.15-.026.413.054.496-.04h.702c.154-.028.415.052.5-.042h.7c.168-.028.44.054.54-.042h.827c.18-.026.468.054.578-.042h.828c.207-.026.524.054.662-.042h.95c.196-.026.497.056.623-.042h1.198c.25-.026.61.056.79-.04h1.2c.26-.027.632.054.825-.04h1.243c.358-.027.827.052 1.116-.043h1.697c.374-.026.857.055 1.16-.04h2.318c.565-.028 1.24.056 1.738-.042M233.163 11.668v-.042c3.37-1.8 7.89-2.453 12.828-2.69-.51 1.85-.7 3.866-.994 5.918-.283 1.996-.672 4.076-.786 6.122-.185 3.362.14 6.665 0 10.18v2.732c.028 3.06-.053 6.234.042 9.227.04.913.274 1.63.54 2.317-2.247 1.033-4.404 2.298-6.913 3.227-.48.176-.982.43-1.45.537-.86.2-1.83.172-2.77.247-.894.074-1.82.164-2.772.208-.026-.253.082-.624.165-.993.222-.996.397-2.197.537-3.393.534-4.565.99-9.62 1.118-14.65.094-.055.016-.286.04-.412v-.58c.096-.07.016-.315.042-.455v-.662c.096-.07.016-.315.042-.455v-.745c.094-.084.016-.343.04-.495v-.87c.096-.07.016-.316.042-.456v-1.2c.096-.124.016-.425.042-.62v-1.488c.096-.14.016-.458.042-.665V20.11c.096-.29.014-.76.04-1.118v-1.284c.097-.33.016-.84.042-1.24v-1.49c.096-.263.016-.702.042-1.035V12.33c.096-.14.016-.455.042-.662" fill="#2056ae" fill-rule="evenodd"/></svg>