<svg xmlns="http://www.w3.org/2000/svg" width="400" height="94.765"><path d="M22.04 10.388c-6.113 0-8.972 2.273-8.972 7.63 0 4.22 2.475 6.328 7.348 6.328H35.89c12.374 0 17.714 4.303 17.714 16.473 0 12.254-6.265 17.447-19.416 17.447H3.086V47.88h29.24c6.193 0 9.052-1.54 9.052-6.576 0-5.188-2.628-6.734-8.28-6.734H19.334C6.643 34.57.84 29.54.84 17.855.84 5.195 7.113 0 20.338 0h30.56V10.39H22.04zM62.433.003h12.22V58.27h-12.22V.003zM100.96.002l22.744 41.873-.542-41.873h11.91V58.27H121.54L97.633 14.2l.54 44.067h-11.99V0h14.777zM140.576 10.23V.082h48.043V10.23h-18.03v48.036h-12.063V10.23h-17.95zM204.018 23.697h32.336v10.145H203.94c.078 10.467 4.025 14.28 13.23 14.28h19.184v10.145h-19.727c-6.733 0-11.91-.57-17.33-5.115-5.724-4.782-8.51-12.413-8.51-22.964C190.787 9.58 199.067 0 216.937 0h19.417v10.145H217.17c-8.438 0-12.69 4.382-13.152 13.552M250.284 52.18c-4.252-4.703-5.03-9.818-5.03-17.527V.005h11.685v34.242c0 4.788.078 8.28 1.933 10.546 2.476 3.085 5.803 3.818 10.755 3.818h13.77v9.656h-14.78c-8.042 0-13.382-.564-18.334-6.085M307.695 10.388c-6.113 0-8.972 2.273-8.972 7.63 0 4.22 2.475 6.328 7.348 6.328h15.476c12.373 0 17.713 4.303 17.713 16.473 0 12.254-6.266 17.447-19.418 17.447h-31.1V47.88h29.24c6.192 0 9.05-1.54 9.05-6.576 0-5.188-2.627-6.734-8.278-6.734h-13.766c-12.69 0-18.492-5.03-18.492-16.715 0-12.66 6.27-17.854 19.496-17.854h30.56V10.39h-28.857zM361.542 34.004H378.1l-8.437-22.4-8.12 22.4zm14.776-34l23.674 58.26h-13l-5.103-13.872h-24.137L352.8 58.265h-12.377L363.94.003h12.378z" fill="#127bca"/><path d="M7.292 75.193c.022-1.97-.12-3.903-1.963-3.903-1.123 0-1.84.558-1.84 2.053 0 1.675.864 2.318 1.913 3.14 1.1.853 3.135 2.494 4.066 3.61 1.15 1.382 1.504 2.702 1.504 4.608 0 4.168-2.244 6.34-5.526 6.34C1.432 91.04 0 88.28 0 84.35v-1.617h3.344v1.29c-.067 2.144.457 3.7 2.104 3.7 1.415 0 2.08-.907 2.08-2.582 0-1.29-.473-2.17-1.336-2.904C4.45 80.566 2.267 79.36.908 77.16c-.553-.997-.863-2.204-.863-3.377 0-3.756 1.726-5.81 5.262-5.81 5.335 0 5.194 5.048 5.216 7.22h-3.23zM19.628 80.094v-1.438c-.022-1.675-.383-2.2-1.63-2.2-1.55 0-1.477 1.467-1.477 2.962v.676h3.108zm-6.22-.44c-.14-3.902 1.483-6.135 4.545-6.135 4.33 0 4.788 2.762 4.788 7.28v2.233h-6.22v2.402c.023 2.17.694 2.583 1.625 2.583 1.15 0 1.483-1.027 1.438-3.107h3.107c.12 3.694-1.122 6.04-4.308 6.04-3.587 0-5.047-2.08-4.974-6.953v-4.342zM28.545 76.895h.05c.384-1.202.767-1.878 1.22-2.346.884-.91 1.482-.853 1.933-.88v4.516c-1.72-.203-3.034.327-3.085 2.758v9.57h-3.107V73.962h2.99v2.933zM32.763 73.962h3.35l1.314 9.27c.265 1.5.383 4.112.428 4.902h.05c.046-.79.17-3.4.43-4.9l1.342-9.272h3.226l-3.108 16.552H35.92l-3.157-16.552zM44.928 73.96h3.108v16.55h-3.108V73.96zm0-5.454h3.108v3.463h-3.108v-3.464zM56.348 79.714v-1.85c-.05-.907-.406-1.41-1.077-1.41-1.195 0-1.195 1.676-1.172 3.7v3.903c-.074 3.225.242 3.812 1.173 3.96.96-.03.982-1.118 1.078-2.432v-1.528h3.107v1.528c0 3.457-1.173 5.37-4.258 5.37-2.746 0-4.33-1.795-4.207-6.193v-5.375c-.028-4.63 1.84-5.865 4.207-5.865 3.136 0 4.286 2.408 4.258 4.873v1.32h-3.107zM62.22 73.96h3.106v16.55H62.22V73.96zm0-5.454h3.106v3.463H62.22v-3.464zM71.487 85.11c0 2.026.14 2.906 1.647 2.906 1.438 0 1.557-.88 1.557-2.905v-5.514c0-1.557 0-3.14-1.556-3.14-1.647 0-1.647 1.583-1.647 3.14v5.515zm-3.113-2.288c.03-5.662.074-9.3 4.76-9.3 4.62 0 4.647 3.638 4.67 9.3.022 5.752-.65 8.216-4.67 8.132-4.088.084-4.782-2.38-4.76-8.132M82.89 85.054c-.236 3.05.717 2.96 1.44 2.96.884 0 1.504-.79 1.29-1.844-.05-.94-.936-1.472-1.534-1.968l-1.697-1.438c-1.558-1.32-2.562-2.848-2.562-5.222 0-2.555 1.653-4.02 4.64-4.02 3.013 0 4.406 1.933 4.333 5.486h-3.107c.068-1.85-.36-2.55-1.438-2.55-.744 0-1.314.407-1.314 1.35 0 .963.57 1.403 1.17 1.905l2.536 2.115c.79.553 2.036 2.143 2.126 3.254.265 2.876-.304 5.87-4.613 5.87-1.653 0-4.738-.85-4.377-5.898h3.107zM103.196 80.094v-1.438c-.023-1.675-.384-2.2-1.63-2.2-1.55 0-1.477 1.467-1.477 2.962v.676h3.106zm-6.22-.44c-.14-3.902 1.483-6.135 4.545-6.135 4.332 0 4.79 2.762 4.79 7.28v2.233h-6.22v2.402c.02 2.17.692 2.583 1.623 2.583 1.15 0 1.483-1.027 1.438-3.107h3.108c.12 3.694-1.122 6.04-4.308 6.04-3.587 0-5.048-2.08-4.974-6.953v-4.342zM115.32 68.506h3.35V90.51h-3.35V68.507zM124.903 75.663h.05c.694-1.906 2.08-2.143 2.798-2.143 1.77 0 3.204 1.264 3.114 4.23v12.762h-3.113V79.476c0-1.613-.146-2.668-1.32-2.73-1.166-.056-1.572 1.292-1.527 3.05v10.716h-3.108V73.96h3.108v1.703zM136.113 85.054c-.237 3.05.716 2.96 1.438 2.96.886 0 1.507-.79 1.292-1.844-.05-.94-.936-1.472-1.534-1.968l-1.697-1.438c-1.556-1.32-2.56-2.848-2.56-5.222 0-2.555 1.653-4.02 4.642-4.02 3.01 0 4.404 1.933 4.33 5.486h-3.106c.067-1.85-.36-2.55-1.438-2.55-.745 0-1.314.407-1.314 1.35 0 .963.57 1.403 1.167 1.905l2.54 2.115c.788.553 2.035 2.143 2.125 3.254.265 2.876-.305 5.87-4.613 5.87-1.653 0-4.737-.85-4.377-5.898h3.108zM148.972 90.57c-1.844.264-4.427.467-4.427-2.612v-11.21h-1.263V73.96h1.24v-4.544h3.136v4.545h1.314v2.787h-1.314v10.275c.073.705.93.615 1.314.553v2.994zM156.757 81.796c-.767.648-1.698 1.29-2.516 2.115-.45.47-.523 1.292-.523 1.997 0 1.258.31 2.11 1.46 2.11 1.84 0 1.506-2.843 1.58-4.433v-1.788zm.428 8.713c-.214-.526-.237-1.112-.192-1.7h-.045c-.36.672-.767 1.23-1.246 1.58-.457.356-.953.564-1.483.564-2.516 0-3.61-1.556-3.61-4.962 0-3.784 2.17-4.692 4.618-5.927 1.31-.677 1.788-1.41 1.53-2.758-.148-.733-.622-.852-1.462-.852-1.41 0-1.652.908-1.624 2.403h-2.967c-.028-3.136.813-5.335 4.71-5.335 4.235 0 4.5 2.73 4.45 4.9v9.768c0 .796.095 1.557.264 2.32h-2.945zM163.35 68.506h3.11V90.51h-3.11V68.507zM175.393 81.796c-.767.648-1.697 1.29-2.515 2.115-.45.47-.524 1.292-.524 1.997 0 1.258.31 2.11 1.46 2.11 1.84 0 1.506-2.843 1.58-4.433v-1.788zm.43 8.713c-.215-.526-.238-1.112-.193-1.7h-.045c-.36.672-.767 1.23-1.246 1.58-.458.356-.954.564-1.484.564-2.516 0-3.61-1.556-3.61-4.962 0-3.784 2.172-4.692 4.62-5.927 1.307-.677 1.787-1.41 1.527-2.758-.146-.733-.62-.852-1.46-.852-1.41 0-1.653.908-1.624 2.403h-2.968c-.028-3.136.812-5.335 4.71-5.335 4.234 0 4.5 2.73 4.45 4.9v9.768c0 .796.095 1.557.264 2.32h-2.944zM186.747 79.714v-1.85c-.05-.907-.406-1.41-1.077-1.41-1.196 0-1.196 1.676-1.173 3.7v3.903c-.074 3.225.242 3.812 1.173 3.96.958-.03.98-1.118 1.077-2.432v-1.528h3.107v1.528c0 3.457-1.173 5.37-4.258 5.37-2.746 0-4.33-1.795-4.207-6.193v-5.375c-.03-4.63 1.838-5.865 4.206-5.865 3.136 0 4.286 2.408 4.258 4.873v1.32h-3.107zM192.62 73.96h3.108v16.55h-3.108V73.96zm0-5.454h3.108v3.463h-3.108v-3.464zM201.89 85.11c0 2.026.14 2.906 1.645 2.906 1.438 0 1.557-.88 1.557-2.905v-5.514c0-1.557 0-3.14-1.557-3.14-1.646 0-1.646 1.583-1.646 3.14v5.515zm-3.114-2.288c.028-5.662.073-9.3 4.76-9.3 4.618 0 4.646 3.638 4.67 9.3.02 5.752-.65 8.216-4.67 8.132-4.09.084-4.783-2.38-4.76-8.132M214.055 75.663h.05c.694-1.906 2.08-2.143 2.798-2.143 1.77 0 3.203 1.264 3.113 4.23v12.762h-3.113V79.476c0-1.613-.147-2.668-1.32-2.73-1.167-.056-1.573 1.292-1.528 3.05v10.716h-3.108V73.96h3.108v1.703zM228.95 80.094v-1.438c-.024-1.675-.384-2.2-1.63-2.2-1.552 0-1.478 1.467-1.478 2.962v.676h3.107zm-6.22-.44c-.142-3.902 1.482-6.135 4.544-6.135 4.33 0 4.788 2.762 4.788 7.28v2.233h-6.22v2.402c.022 2.17.693 2.583 1.624 2.583 1.15 0 1.483-1.027 1.438-3.107h3.107c.12 3.694-1.12 6.04-4.307 6.04-3.587 0-5.048-2.08-4.974-6.953v-4.342zM237.243 85.054c-.237 3.05.716 2.96 1.438 2.96.886 0 1.507-.79 1.292-1.844-.05-.94-.936-1.472-1.533-1.968l-1.7-1.438c-1.555-1.32-2.56-2.848-2.56-5.222 0-2.555 1.653-4.02 4.642-4.02 3.012 0 4.404 1.933 4.33 5.486h-3.106c.067-1.85-.36-2.55-1.438-2.55-.745 0-1.314.407-1.314 1.35 0 .963.57 1.403 1.167 1.905l2.54 2.115c.788.553 2.035 2.143 2.125 3.254.265 2.876-.305 5.87-4.613 5.87-1.653 0-4.737-.85-4.376-5.898h3.107zM251.595 90.51V68.507h9.423v3.226h-6.073v5.543h5.594v3.232h-5.595v6.778h6.073v3.226h-9.423zM263.813 68.506h3.107V90.51h-3.107V68.507zM276.185 80.094v-1.438c-.022-1.675-.383-2.2-1.63-2.2-1.55 0-1.477 1.467-1.477 2.962v.676h3.107zm-1.246-12.327h3.71l-3.542 4.286h-2.414l2.245-4.286zm-4.975 11.888c-.14-3.903 1.483-6.136 4.545-6.136 4.33 0 4.788 2.762 4.788 7.28v2.233h-6.22v2.402c.022 2.17.693 2.583 1.624 2.583 1.15 0 1.483-1.027 1.438-3.107h3.107c.12 3.694-1.122 6.04-4.308 6.04-3.588 0-5.05-2.08-4.975-6.953v-4.342zM287.208 79.714v-1.85c-.05-.907-.406-1.41-1.077-1.41-1.195 0-1.195 1.676-1.172 3.7v3.903c-.073 3.225.242 3.812 1.173 3.96.96-.03.982-1.118 1.078-2.432v-1.528h3.107v1.528c0 3.457-1.173 5.37-4.257 5.37-2.747 0-4.332-1.795-4.207-6.193v-5.375c-.028-4.63 1.84-5.865 4.208-5.865 3.135 0 4.286 2.408 4.257 4.873v1.32h-3.107zM297.338 90.57c-1.844.264-4.427.467-4.427-2.612v-11.21h-1.262V73.96h1.24v-4.544h3.136v4.545h1.314v2.787h-1.314v10.275c.073.705.93.615 1.314.553v2.994zM302.394 76.895h.05c.384-1.202.768-1.878 1.22-2.346.884-.91 1.482-.853 1.933-.88v4.516c-1.72-.203-3.034.327-3.085 2.758v9.57h-3.107V73.962h2.99v2.933zM307.716 73.96h3.107v16.55h-3.107V73.96zm0-5.454h3.107v3.463h-3.107v-3.464zM319.136 79.714v-1.85c-.05-.907-.406-1.41-1.077-1.41-1.196 0-1.196 1.676-1.174 3.7v3.903c-.073 3.225.243 3.812 1.173 3.96.958-.03.98-1.118 1.076-2.432v-1.528h3.108v1.528c0 3.457-1.173 5.37-4.258 5.37-2.746 0-4.33-1.795-4.207-6.193v-5.375c-.03-4.63 1.837-5.865 4.206-5.865 3.135 0 4.286 2.408 4.258 4.873v1.32h-3.108zM330.393 81.796c-.767.648-1.697 1.29-2.515 2.115-.45.47-.524 1.292-.524 1.997 0 1.258.31 2.11 1.46 2.11 1.84 0 1.506-2.843 1.58-4.433v-1.788zm.43 8.713c-.215-.526-.238-1.112-.193-1.7h-.045c-.36.672-.767 1.23-1.246 1.58-.458.356-.954.564-1.484.564-2.51 0-3.61-1.556-3.61-4.962 0-3.784 2.17-4.692 4.62-5.927 1.307-.677 1.787-1.41 1.527-2.758-.146-.733-.62-.852-1.46-.852-1.41 0-1.653.908-1.624 2.403h-2.968c-.028-3.136.812-5.335 4.71-5.335 4.234 0 4.5 2.73 4.45 4.9v9.768c0 .796.095 1.557.264 2.32h-2.944zM339.018 85.054c-.237 3.05.716 2.96 1.438 2.96.885 0 1.506-.79 1.29-1.844-.05-.94-.935-1.472-1.533-1.968l-1.697-1.438c-1.557-1.32-2.56-2.848-2.56-5.222 0-2.555 1.652-4.02 4.64-4.02 3.012 0 4.405 1.933 4.332 5.486h-3.107c.068-1.85-.36-2.55-1.438-2.55-.744 0-1.314.407-1.314 1.35 0 .963.57 1.403 1.168 1.905l2.538 2.115c.79.553 2.035 2.143 2.126 3.254.265 2.876-.305 5.87-4.613 5.87-1.653 0-4.738-.85-4.377-5.898h3.108zM348.264 93.474c1.128-.147 1.748-1.382 1.675-2.96h-1.676v-3.875h3.158v3.783c0 2.493-1.05 4.02-3.158 4.342v-1.29zM368.283 75.193c.023-1.97-.118-3.903-1.962-3.903-1.122 0-1.838.558-1.838 2.053 0 1.675.863 2.318 1.912 3.14 1.1.853 3.135 2.494 4.066 3.61 1.15 1.382 1.506 2.702 1.506 4.608 0 4.168-2.245 6.34-5.527 6.34-4.016 0-5.45-2.758-5.45-6.69v-1.617h3.346v1.29c-.068 2.144.456 3.7 2.103 3.7 1.415 0 2.08-.907 2.08-2.582 0-1.29-.474-2.17-1.337-2.904-1.742-1.67-3.925-2.876-5.284-5.075-.553-.997-.864-2.204-.864-3.377 0-3.756 1.726-5.81 5.262-5.81 5.335 0 5.194 5.048 5.217 7.22h-3.232zM375.547 86.637h3.158v3.874h-3.158v-3.873zM386.325 81.708h2.87l-.908-6.25c-.17-1.03-.242-2.023-.332-3.05-.03-.502-.074-.998-.124-1.472h-.045c-.05.474-.095.97-.124 1.472-.09 1.027-.162 2.02-.33 3.05l-1.005 6.25zm-5.002 8.803l4.286-22.004h4.516l4.072 22.005h-3.593l-.885-5.576h-3.92l-.885 5.577h-3.592zM396.842 86.637H400v3.874h-3.158v-3.873z" fill="#231f20"/></svg>