<svg xmlns="http://www.w3.org/2000/svg" width="400" height="335.779"><path d="M73.977 166.283c.066.068.14.116.228.18.033.027.057.045.063.045-.11-.08-.192-.142-.29-.225" fill="#ffc95b"/><path d="M54.428 217.29c-30.27-9.82-50.307 9.378-50.307 9.378 15.77-28.57 41.783-26.01 41.783-26.01 52.015 4.26 56.275-6.387 56.275-6.387s-2.126-9.82-.846-17.49c0 0-22.178-11.515-24.734-13.645 0 0-14.07-9.8-31.12-4.26 0 0 21.742-19.62 57.984 5.54 0 0 1.707-11.515 3.414-13.21 0 0-21.75-10.244-41.786-36.67 0 0-13.65-25.59-39.226-26.44 0 0 27.71-15.35 53.29 18.335 0 0 23.45 30.27 37.523 27.707 0 0 7.248-11.078 9.808-11.508 0 0-6.394-9.375-7.247-22.594 0 0-4.257-21.747-20.894-27.287 0 0 25.58-4.265 38.373 42.63 0 0 5.89-4.604 10.725-7.078-.078-.22-.137-.45-.185-.685.092.228.18.453.26.647 1.378-.7 2.662-1.22 3.695-1.407 0 0-8.524-21.324-2.13-60.123 0 0 4.264-22.17-11.508-42.636 0 0 23.873 4.69 26.86 46.904 0 0-5.544 40.502 7.245 51.59 0 0 10.234-1.703 16.2-.853 0 0 7.253-16.207 15.777-28.995 0 0 5.97-11.085 2.557-27.714 0 0 12.795 13.65 6.82 33.26 0 0-10.23 23.02-12.787 25.583l12.788 3.407s17.06-32.4 43.07-44.34c0 0 19.18-16.206 21.31-38.806 0 0 11.51 26.44-17.48 54.578 0 0-25.153 17.913-28.99 37.953l9.804 10.235s11.51-5.978 28.567-9.385c0 0 15.783-4.264 22.596-19.613 0 0 3.272 14.458-16.363 29.844h6.342c12.488-11.347 14.327-22.065 14.327-27.35 0-1.974-.262-3.187-.3-3.4-.398-1.722-1.85-3.002-3.606-3.175-1.756-.17-3.425.803-4.137 2.42-5.757 12.95-19.062 17.06-19.867 17.3-12.586 2.534-22.155 6.375-26.64 8.385-2.048-2.13-4.522-4.713-6.188-6.458 4.705-17.404 26.606-33.247 26.838-33.416.174-.114.326-.25.475-.395 17.03-16.525 20.98-32.55 20.98-43.85 0-9.647-2.887-15.846-2.965-15.963-.962-1.433-2.733-2.1-4.41-1.673-1.674.426-2.902 1.86-3.055 3.582-1.816 19.156-17.28 33.715-19.587 35.785-22.338 10.58-37.882 34.68-42.734 42.966-1.61-.43-2.28-.61-4.417-1.183 3.23-5.97 7.442-15.21 10.18-21.365.07-.157.12-.314.17-.472 1.27-4.163 1.774-8.082 1.774-11.695 0-15.177-9.043-25.052-9.522-25.565-1.258-1.337-3.246-1.674-4.882-.83-1.378.718-2.213 2.133-2.213 3.638 0 .274.03.547.084.828.693 3.373.97 6.503.97 9.318 0 9.142-2.797 14.97-3.074 15.532-6.61 9.966-12.346 21.653-14.746 26.75-3.897-.106-8.794.268-12.114.74-4.395-5.357-5.908-17.082-5.908-28.583 0-6.53.476-12.96 1.176-18.056.03-.19.034-.375.034-.558 0-.098 0-.19-.03-.292C165.337 5.887 139.446.298 138.35.077c-1.68-.33-3.382.42-4.284 1.868-.4.663-.614 1.41-.614 2.153 0 .89.294 1.774.86 2.508 9.536 12.373 11.16 25.558 11.16 33.097 0 3.83-.418 6.2-.433 6.27 0 .03 0 .072-.03.094-1.79 10.872-2.457 20.448-2.457 28.643 0 14.08 1.965 24.06 3.605 29.668-2.46 1.183-5.047 2.812-7.225 4.302-14.118-43.876-40.15-40.166-41.285-39.98-1.86.312-3.268 1.847-3.418 3.726v.322c0 1.752 1.123 3.328 2.807 3.886 13.855 4.616 17.958 23.233 18.153 24.12.693 9.318 3.83 16.73 5.945 20.785-1.662 1.68-3.848 4.35-6.74 8.617-8.414-.505-23.437-15.195-32.01-26.24-20.707-27.272-43.51-24.333-52.34-21.81-7.967 2.28-8.132 4.047-8.277 5.605 0 .134-.03.258-.03.382 0 1 .363 1.957 1.025 2.714.753.85 1.808 1.347 2.947 1.39 22.832.76 35.613 24.033 35.744 24.27.102.186.216.37.34.538C77.715 138 94.527 149 101.617 153.038c-.36 1.183-.738 2.718-1.13 4.582-35.3-21.35-56.833-2.646-57.773-1.796-1.44 1.295-1.78 3.425-.808 5.087.966 1.697 2.965 2.453 4.818 1.865 14.286-4.645 26.51 3.07 27.46 3.688-.087-.064-.162-.112-.228-.18.102.083.18.146.29.225 0 0-.03-.018-.062-.045 2.89 2.18 15.992 9.13 22.73 12.642-.077 1.07-.11 2.138-.11 3.19 0 4.234.535 8.22.936 10.61-2.88 1.867-14.152 6.73-51.525 3.664-1.104-.105-28.83-2.456-45.71 28.114-.973 1.76-.5 3.983 1.082 5.215 1.603 1.238 3.867 1.126 5.335-.27.75-.712 18.778-17.334 46.223-8.446.153.056.322.086.48.127 1.043.2 15.527 2.895 37.967.828l5.222-4.735c-25.7 3.126-42.408-.113-42.408-.113" fill="#ffc95b"/><path d="M147.517 108.264c-.03.012-.057.027-.075.038.16.483.4.94.757 1.33-.136-.143-.383-.65-.683-1.368" fill="#f6861f"/><path d="M291.913 97.902c-6.813 15.35-22.596 19.613-22.596 19.613-17.056 3.407-28.568 9.385-28.568 9.385l-9.806-10.235c3.838-20.04 28.99-37.953 28.99-37.953 28.992-28.137 17.48-54.578 17.48-54.578-2.13 22.6-21.308 38.806-21.308 38.806-26.01 11.94-43.07 44.34-43.07 44.34l-12.79-3.407c2.557-2.564 12.79-25.584 12.79-25.584 5.974-19.61-6.822-33.26-6.822-33.26 3.414 16.63-2.557 27.715-2.557 27.715-8.524 12.788-15.776 28.994-15.776 28.994-5.966-.85-16.2.853-16.2.853-12.79-11.09-7.245-51.59-7.245-51.59-2.988-42.215-26.86-46.905-26.86-46.905 15.77 20.466 11.507 42.636 11.507 42.636-6.394 38.8 2.13 60.123 2.13 60.123-1.033.187-2.317.707-3.694 1.407.3.72.546 1.225.68 1.367-.355-.388-.598-.845-.755-1.328-4.837 2.474-10.726 7.08-10.726 7.08-12.792-46.897-38.372-42.633-38.372-42.633 16.636 5.54 20.893 27.286 20.893 27.286.854 13.22 7.248 22.593 7.248 22.593-2.56.43-9.81 11.507-9.81 11.507-14.07 2.564-37.52-27.707-37.52-27.707-25.582-33.685-53.292-18.336-53.292-18.336 25.576.85 39.226 26.44 39.226 26.44 20.036 26.427 41.786 36.67 41.786 36.67-1.707 1.696-3.414 13.21-3.414 13.21-36.242-25.16-57.985-5.54-57.985-5.54 17.052-5.54 31.12 4.26 31.12 4.26 2.558 2.13 24.735 13.647 24.735 13.647-1.28 7.67.846 17.49.846 17.49s-4.26 10.648-56.274 6.388c0 0-26.015-2.56-41.783 26.01 0 0 20.037-19.197 50.308-9.377 0 0 16.708 3.24 42.408.113l99.15-89.657h79.564c19.635-15.386 16.363-29.844 16.363-29.844" fill="#f6861f"/><path d="M196.015 127.726l-99.207 89.66-5.24 4.773-51.663 46.7h40.993v66.92h8.516v-74.125H61.71l45.58-41.555 5.803-5.334 83.296-75.903 24.333 21.994 3.182 2.808 14.226 12.915h12.635l-19.373-17.5-3.182-2.81-21.526-19.56h164.161v-8.984H196.015z"/><path d="M138.09 314.363h3.44c.38 0 1.102-.108 2.17-.333.542-.1.987-.352 1.328-.767.352-.42.524-.89.524-1.438 0-.79-.282-1.404-.82-1.834-.547-.426-1.56-.636-3.047-.636h-3.594v5.01zm-8.078 14.78v-24.79h13.477c2.496 0 4.402.194 5.727.59 1.325.417 2.385 1.173 3.193 2.266.805 1.092 1.213 2.436 1.213 4.012 0 1.37-.318 2.56-.932 3.557-.628.998-1.482 1.803-2.57 2.432-.697.382-1.648.712-2.86.97.965.31 1.654.614 2.095.932.304.202.738.636 1.296 1.314.558.67.937 1.19 1.127 1.557l3.976 7.158h-9.112l-4.375-7.58c-.543-.99-1.045-1.625-1.47-1.917-.578-.393-1.244-.58-1.99-.58h-.714v10.077h-8.078zM158.228 304.353h21.608v5.32h-13.518v3.882h12.526v5.057h-12.526v4.908h13.904v5.623h-21.994v-24.79zM198.902 319.687l-2.852-8.914-2.864 8.914h5.716zm1.715 5.39h-9.153l-1.295 4.066h-8.253l9.794-24.79h8.874l9.774 24.79h-8.438l-1.303-4.065zM212.967 304.353h8.08v18.718h12.526v6.073h-20.606v-24.79zM249.37 304.353h21.61v5.32h-13.534v3.882h12.522v5.057h-12.522v4.908h13.907v5.623H249.37v-24.79zM274.314 320.963l7.634-.464c.168 1.193.513 2.08 1.033 2.702.825.996 2.02 1.5 3.57 1.5 1.152 0 2.05-.26 2.672-.766.625-.513.94-1.112.94-1.793 0-.637-.297-1.21-.895-1.722-.584-.51-1.958-.988-4.11-1.437-3.542-.76-6.062-1.763-7.563-3.014-1.524-1.247-2.284-2.846-2.284-4.796 0-1.277.393-2.475 1.157-3.617.782-1.14 1.954-2.025 3.508-2.676 1.56-.65 3.69-.97 6.4-.97 3.333 0 5.868.59 7.62 1.768 1.748 1.187 2.793 3.062 3.115 5.634l-7.577.427c-.204-1.12-.614-1.93-1.27-2.438-.647-.505-1.535-.756-2.676-.756-.93 0-1.636.18-2.112.56-.475.387-.704.844-.704 1.39 0 .382.196.745.582 1.063.38.325 1.28.625 2.7.913 3.522.722 6.04 1.452 7.57 2.194 1.522.733 2.63 1.654 3.327 2.747.695 1.105 1.04 2.318 1.04 3.677 0 1.588-.472 3.06-1.397 4.396-.92 1.347-2.213 2.358-3.878 3.062-1.655.685-3.755 1.037-6.282 1.037-4.437 0-7.51-.81-9.213-2.422-1.71-1.636-2.685-3.69-2.906-6.2M300.254 304.353h24.495v6.136h-8.21v18.653h-8.08V310.49h-8.206v-6.137zM340.2 319.687l-2.854-8.914-2.845 8.914h5.7zm1.717 5.39h-9.142l-1.306 4.066h-8.24l9.79-24.79h8.868l9.782 24.79h-8.45l-1.303-4.065zM349.95 304.353h24.488v6.136h-8.214v18.653h-8.074V310.49h-8.2v-6.137zM378.017 304.353h21.61v5.32H386.1v3.882h12.53v5.057H386.1v4.908H400v5.623h-21.983v-24.79zM111.316 264.577l26.063-1.416c.553 3.667 1.71 6.46 3.444 8.365 2.83 3.11 6.87 4.668 12.118 4.668 3.916 0 6.933-.797 9.063-2.38 2.12-1.584 3.18-3.42 3.18-5.508 0-1.984-1.005-3.762-3-5.33-2-1.558-6.675-3.044-14.013-4.43-12.028-2.335-20.597-5.43-25.726-9.3-5.162-3.858-7.746-8.792-7.746-14.786 0-3.932 1.322-7.653 3.965-11.157 2.643-3.5 6.622-6.244 11.923-8.244 5.313-2.007 12.583-3.007 21.833-3.007 11.337 0 19.99 1.827 25.937 5.466 5.957 3.645 9.498 9.44 10.63 17.407l-25.81 1.306c-.678-3.45-2.126-5.974-4.324-7.543-2.197-1.576-5.23-2.358-9.105-2.358-3.193 0-5.59.587-7.198 1.755-1.614 1.165-2.423 2.576-2.423 4.246 0 1.213.652 2.324 1.966 3.3 1.27.997 4.316 1.937 9.164 2.81 11.984 2.227 20.56 4.492 25.753 6.764 5.177 2.295 8.958 5.118 11.317 8.513 2.358 3.388 3.537 7.17 3.537 11.355 0 4.92-1.572 9.456-4.724 13.608-3.148 4.155-7.555 7.307-13.196 9.452-5.66 2.138-12.777 3.205-21.38 3.205-15.106 0-25.558-2.52-31.376-7.555-5.81-5.035-9.104-11.44-9.872-19.208M263.495 213.307h27.44v45.71c0 4.534-.81 8.82-2.466 12.845-1.625 4.032-4.2 7.55-7.694 10.557-3.493 3.02-7.158 5.146-10.995 6.37-5.34 1.696-11.743 2.55-19.22 2.55-4.323 0-9.047-.26-14.165-.775-5.106-.528-9.378-1.565-12.814-3.118-3.44-1.55-6.573-3.744-9.43-6.615-2.85-2.857-4.8-5.803-5.85-8.832-1.7-4.885-2.547-9.224-2.547-12.983v-45.71h27.31v46.796c0 4.178 1.344 7.442 4.04 9.793 2.69 2.366 6.43 3.534 11.212 3.534 4.732 0 8.453-1.16 11.14-3.478 2.7-2.317 4.04-5.6 4.04-9.85v-46.795zM309.175 213.307h25.618l33.506 42.52v-42.52h25.8V290.1h-25.8l-33.327-42.29v42.29h-25.798v-76.793z" fill="#14489f"/></svg>