<svg xmlns="http://www.w3.org/2000/svg" width="400" height="93.426"><path d="M152.63 25.047c-3.946-5.602-8.4-9.723-13.285-12.358-4.892-2.638-10.494-3.956-16.754-3.956-9.83 0-18.23 3.736-25.207 11.15-6.975 7.415-10.437 16.203-10.437 26.362 0 10.876 3.462 20.044 10.384 27.518 6.972 7.41 15.375 11.15 25.26 11.15 6.1 0 11.646-1.32 16.59-3.9 4.885-2.583 9.17-6.482 12.85-11.588h10.27c-4.008 7.63-9.447 13.562-16.258 17.737-6.753 4.177-14.387 6.263-22.846 6.263-12.963 0-23.78-4.504-32.46-13.514-8.677-9.005-13.015-20.265-13.015-33.776 0-6.26 1.21-12.19 3.517-17.85 2.36-5.655 5.765-10.763 10.328-15.267 4.17-4.286 8.892-7.525 14.167-9.724C110.946 1.1 116.604 0 122.702 0c8.787 0 16.696 2.145 23.67 6.54 7.03 4.337 12.578 10.543 16.643 18.507H152.63zM47.568 56.902L40.705 40.26l-.058.167V31.97h3.518L63.22 75.96h-7.742L50.153 63.11h-9.506v-6.207h6.922zm-6.922-16.476l-6.92 16.476h6.92v6.206H31.2L25.706 75.96H18.24l19.056-43.993h3.35v8.46z" fill="#eb2d2f"/><path d="M186.907 70.467c4.943 0 9.117-1.647 12.47-4.83 3.403-3.243 5.05-7.252 5.05-12.032 0-2.03-.383-4.008-1.152-5.82-.822-1.813-2.035-3.514-3.574-5.053-1.866-1.813-3.842-3.13-5.925-3.955-2.09-.88-4.4-1.318-6.868-1.318v-6.374c3.352 0 6.482.552 9.396 1.594 2.908 1.098 5.596 2.693 7.963 4.833 2.466 2.196 4.338 4.67 5.6 7.417 1.207 2.635 1.865 5.6 1.865 8.732 0 3.13-.548 5.987-1.646 8.622-1.044 2.635-2.634 4.996-4.78 7.085-2.47 2.47-5.325 4.34-8.455 5.547-3.075 1.264-6.37 1.866-9.943 1.866v-6.316zM169.33 53.715c0 2.308.386 4.45 1.265 6.536.822 2.034 2.032 3.79 3.625 5.274 1.7 1.593 3.628 2.8 5.824 3.68 2.196.877 4.39 1.263 6.7 1.263h.163v6.316h-.164c-3.68 0-7.03-.602-10.164-1.866-3.075-1.264-5.876-3.187-8.29-5.658-2.087-2.087-3.68-4.45-4.724-7.086-1.098-2.638-1.65-5.492-1.65-8.512 0-3.077.66-6.04 1.98-8.732 1.263-2.747 3.183-5.275 5.657-7.47 2.413-2.087 4.996-3.682 7.907-4.78 2.91-1.042 5.987-1.594 9.337-1.594h.11v6.373h-.164c-2.308 0-4.503.382-6.592 1.15-2.085.825-3.9 1.98-5.49 3.463-1.704 1.537-3.024 3.35-3.956 5.326-.934 2.087-1.373 4.176-1.373 6.315M241.17 75.96H218.1V31.968h7.09v37.897h15.98v6.097zM267.207 70.467c4.938 0 9.117-1.647 12.518-4.83 3.352-3.243 5.058-7.252 5.058-12.032 0-2.03-.388-4.008-1.213-5.82-.822-1.813-2.032-3.514-3.57-5.053-1.868-1.813-3.842-3.13-5.93-3.955-2.086-.88-4.394-1.318-6.863-1.318v-6.374c3.347 0 6.48.552 9.388 1.594 2.913 1.098 5.604 2.693 8.022 4.833 2.466 2.196 4.335 4.67 5.596 7.417 1.213 2.635 1.872 5.6 1.872 8.732 0 3.13-.55 5.987-1.647 8.622-1.047 2.635-2.635 4.996-4.78 7.085-2.527 2.47-5.384 4.34-8.514 5.547-3.074 1.264-6.37 1.866-9.937 1.866v-6.316zm-17.58-16.752c0 2.308.384 4.45 1.268 6.536.822 2.034 2.03 3.79 3.623 5.274 1.703 1.593 3.623 2.8 5.82 3.68 2.2.877 4.395 1.263 6.7 1.263h.17v6.316h-.17c-3.676 0-7.028-.602-10.16-1.866-3.075-1.264-5.88-3.187-8.29-5.658-2.093-2.087-3.683-4.45-4.725-7.086-1.098-2.638-1.646-5.492-1.646-8.512 0-3.077.658-6.04 1.973-8.732 1.264-2.747 3.186-5.275 5.658-7.47 2.418-2.087 5-3.682 7.91-4.78 2.91-1.042 6.043-1.594 9.34-1.594h.11v6.373h-.17c-2.305 0-4.5.382-6.59 1.15-2.088.825-3.898 1.98-5.494 3.463-1.7 1.537-3.018 3.35-3.955 5.326-.933 2.087-1.372 4.176-1.372 6.315M305.54 75.96h-7.087V31.968h7.307l23.95 33.284-.333-33.283h6.976V75.96h-6.756l-24.495-34.27.44 34.27zM351.952 75.96h-7.088V31.968h7.088V75.96zM383.476 56.902L376.56 40.26l-.058.167V31.97h3.518l19.108 43.992h-7.795l-5.33-12.852h-9.5v-6.207h6.974zM376.5 40.426l-6.918 16.476h6.92v6.206h-9.448l-5.492 12.853h-7.47l19.056-43.993h3.353v8.46zM400 83.372l-.46 7.854H144.162c4.612-2.142 8.784-5.104 12.353-8.73L400 83.373zm-298.702 7.854H0V2.86h8.898v79.637h79.877c3.794 3.732 7.966 6.643 12.523 8.73" fill="#eb2d2f"/></svg>