<svg xmlns="http://www.w3.org/2000/svg" width="450" height="153.731"><defs><clipPath id="a"><path d="M439.5 584.95H558V619H439.5v-34.05z"/></clipPath><linearGradient id="b" gradientTransform="scale(29.38) rotate(-130 12.724 6.737)" gradientUnits="userSpaceOnUse" x2="1"><stop offset="0" stop-color="#cfcfd0"/><stop offset="1" stop-color="#1c1c1a"/></linearGradient><clipPath id="c"><path d="M439.5 584.95H558V619H439.5v-34.05z"/></clipPath></defs><path d="M240.272 131.626h-8.154V111.2h8.154v20.426z" fill="#8a8787" stroke="#fff" stroke-width=".948"/><g clip-path="url(#a)" transform="matrix(4.515 0 0 -4.515 -1984.278 2794.695)"><path d="M498.885 592.513v-2.667h-1.795v2.197c0 .174-.157.262-.47.262h-1.054c-.27 0-.407-.084-.407-.25v-2.21h-1.817v2.668c0 .12.035.228.105.328.07.1.17.186.298.26.13.073.282.13.46.172.177.042.37.062.578.062h2.672c.223 0 .423-.02.6-.065.178-.045.327-.103.45-.177.12-.073.215-.16.28-.26.067-.103.1-.21.1-.32" fill="#8a8787"/><path d="M498.885 592.513v-2.667h-1.795v2.197c0 .174-.157.262-.47.262h-1.054c-.27 0-.407-.084-.407-.25v-2.21h-1.817v2.668c0 .12.035.228.105.328.07.1.17.186.298.26.13.073.282.13.46.172.177.042.37.062.578.062h2.672c.223 0 .423-.02.6-.065.178-.045.327-.103.45-.177.12-.073.215-.16.28-.26.067-.103.1-.21.1-.32z" fill="none" stroke="#fff" stroke-width=".21"/><path d="M501.787 592.304c-.313 0-.47-.087-.47-.262v-.905c0-.173.15-.26.45-.26h1.49v1.428h-1.47zm-2.275.196c.014.556.494.834 1.44.834h2.317v1.048h1.794v-4.536h-4.112c-.953 0-1.433.27-1.44.81v1.845z" fill="#8a8787"/><path d="M501.787 592.304c-.313 0-.47-.087-.47-.262v-.905c0-.173.15-.26.45-.26h1.49v1.428h-1.47zm-2.275.196c.014.556.494.834 1.44.834h2.317v1.048h1.794v-4.536h-4.112c-.953 0-1.433.27-1.44.81v1.845z" fill="none" stroke="#fff" stroke-width=".21"/><path d="M511.232 590.668c0-.115-.033-.222-.1-.32-.065-.1-.16-.187-.28-.26-.123-.074-.272-.132-.45-.176-.177-.045-.377-.066-.6-.066h-2.672c-.208 0-.4.02-.58.062-.176.042-.33.1-.458.173-.13.074-.228.16-.297.26-.07.1-.105.208-.105.327v2.673h1.816v-2.215c0-.166.136-.25.407-.25h1.054c.313 0 .47.087.47.262v2.203h1.795v-2.673z" fill="#8a8787"/><path d="M511.232 590.668c0-.115-.033-.222-.1-.32-.065-.1-.16-.187-.28-.26-.123-.074-.272-.132-.45-.176-.177-.045-.377-.066-.6-.066h-2.672c-.208 0-.4.02-.58.062-.176.042-.33.1-.458.173-.13.074-.228.16-.297.26-.07.1-.105.208-.105.327v2.673h1.816v-2.215c0-.166.136-.25.407-.25h1.054c.313 0 .47.087.47.262v2.203h1.795v-2.673z" fill="none" stroke="#fff" stroke-width=".21"/><path d="M517.39 590.668c0-.548-.432-.82-1.295-.82h-4.143v1.028h3.652v.238h-2.317c-.953 0-1.43.262-1.43.786v.62c0 .543.474.815 1.42.815h3.966v-.994h-3.59v-.268h2.442c.863 0 1.294-.25 1.294-.75v-.655z" fill="#8a8787"/><path d="M517.39 590.668c0-.548-.432-.82-1.295-.82h-4.143v1.028h3.652v.238h-2.317c-.953 0-1.43.262-1.43.786v.62c0 .543.474.815 1.42.815h3.966v-.994h-3.59v-.268h2.442c.863 0 1.294-.25 1.294-.75v-.655z" fill="none" stroke="#fff" stroke-width=".21"/><path d="M519.518 589.846c-.995 0-1.492.256-1.492.768v3.75h1.805v-1.03h1.43v-1.03h-1.43v-1.226c0-.135.09-.202.272-.202h1.15v-1.03h-1.734z" fill="#8a8787"/><path d="M519.518 589.846c-.995 0-1.492.256-1.492.768v3.75h1.805v-1.03h1.43v-1.03h-1.43v-1.226c0-.135.09-.202.272-.202h1.15v-1.03h-1.734z" fill="none" stroke="#fff" stroke-width=".21"/><path d="M524.016 592.304c-.27 0-.407-.084-.407-.25v-2.208h-1.817v2.666c0 .12.035.23.104.33.07.098.17.184.298.258.128.073.282.13.46.172.176.042.37.063.578.063h2.025v-1.03h-1.242z" fill="#8a8787"/><path d="M524.016 592.304c-.27 0-.407-.084-.407-.25v-2.208h-1.817v2.666c0 .12.035.23.104.33.07.098.17.184.298.258.128.073.282.13.46.172.176.042.37.063.578.063h2.025v-1.03h-1.242z" fill="none" stroke="#fff" stroke-width=".21"/><path d="M525.884 593.34h1.805v-3.494h-1.806v3.494zm1.795.518c0-.155-.133-.232-.397-.232h-1.023c-.25 0-.376.077-.376.232v.28c0 .155.14.232.418.232h.98c.265 0 .397-.077.397-.232v-.28z" fill="#8a8787"/><path d="M525.884 593.34h1.805v-3.494h-1.806v3.494zm1.795.518c0-.155-.133-.232-.397-.232h-1.023c-.25 0-.376.077-.376.232v.28c0 .155.14.232.418.232h.98c.265 0 .397-.077.397-.232v-.28z" fill="none" stroke="#fff" stroke-width=".21"/><path d="M532.052 591.066c0 .09-.087.137-.26.137h-1.4c-.187 0-.28-.044-.28-.13v-.096c0-.088.093-.13.28-.13h1.4c.173 0 .26.042.26.13v.09zm-3.736.024c0 .627.455.94 1.367.94h2.37v.125c0 .127-.113.19-.335.19h-3.163v.995h3.84c.975 0 1.462-.274 1.462-.822v-1.85c0-.548-.487-.822-1.46-.822h-2.683c-.925 0-1.392.274-1.398.82v.424z" fill="#8a8787"/><path d="M532.052 591.066c0 .09-.087.137-.26.137h-1.4c-.187 0-.28-.044-.28-.13v-.096c0-.088.093-.13.28-.13h1.4c.173 0 .26.042.26.13v.09zm-3.736.024c0 .627.455.94 1.367.94h2.37v.125c0 .127-.113.19-.335.19h-3.163v.995h3.84c.975 0 1.462-.274 1.462-.822v-1.85c0-.548-.487-.822-1.46-.822h-2.683c-.925 0-1.392.274-1.398.82v.424z" fill="none" stroke="#fff" stroke-width=".21"/><path d="M536.29 589.846h-1.806v4.518h1.805v-4.518z" fill="#8a8787" stroke="#fff" stroke-width=".21"/><path d="M465.696 595.612v7.644h-4.465v1.557h11.96v-1.557h-4.456v-7.644h-3.038zM483.35 599.252l-2.074 3.414-2.033-3.414h4.106zm5.593-3.64h-3.305l-1.314 2.09h-6.015l-1.243-2.09h-3.223l5.86 9.2h3.214l6.025-9.2zM530.857 599.252l-2.073 3.414-2.033-3.414h4.107zm5.594-3.64h-3.304l-1.314 2.09h-6.015l-1.242-2.09h-3.223l5.86 9.2h3.214l6.025-9.2zM493.947 600.92h2.248c1.457 0 2.368.04 2.73.114.363.075.647.205.852.39.206.183.308.413.308.69 0 .31-.135.56-.405.75-.27.19-.652.31-1.145.36-.246.02-.985.032-2.217.032h-2.37v-2.335zm-3.038-5.308l-.002 9.2h6.394c1.608 0 2.777-.082 3.506-.248.73-.165 1.312-.46 1.75-.88.438-.424.657-.907.657-1.45 0-.692-.332-1.262-.996-1.71-.665-.45-1.657-.735-2.978-.852.657-.234 1.2-.492 1.628-.772.427-.28 1.004-.778 1.73-1.494l1.837-1.794h-3.634l-2.197 2c-.78.717-1.314 1.168-1.6 1.354-.288.186-.592.314-.914.383-.322.068-.83.102-1.53.102h-.616v-3.84h-3.038zM513.593 598.995v1.55h6.55v-3.665c-.637-.377-1.56-.708-2.767-.995-1.208-.286-2.43-.43-3.67-.43-1.574 0-2.946.202-4.116.606-1.17.405-2.05.982-2.638 1.733-.59.75-.883 1.568-.883 2.45 0 .96.328 1.81.985 2.555.656.745 1.618 1.316 2.884 1.714.964.305 2.165.458 3.602.458 1.868 0 3.327-.24 4.378-.72 1.05-.478 1.726-1.14 2.027-1.985l-3.018-.345c-.213.452-.612.808-1.197 1.07-.585.26-1.315.392-2.19.392-1.33 0-2.385-.257-3.168-.772-.783-.515-1.175-1.278-1.175-2.29 0-1.093.397-1.912 1.19-2.458.795-.546 1.834-.82 3.12-.82.637 0 1.275.078 1.915.23.64.153 1.19.338 1.648.556v1.167h-3.48z" fill="#a12119"/><path d="M459.635 598.348c0-3.91-3.17-7.08-7.08-7.08s-7.08 3.17-7.08 7.08 3.17 7.08 7.08 7.08 7.08-3.17 7.08-7.08" fill="#fac304"/></g><path d="M450.116 619l-.424-11.835c-.668-.18-.87-.23-1.47-.546l-3.45 2.687-2.35-2.058 2.295-3.83c-.42-.646-.76-1.345-1.01-2.087l-4.16-.734-.047-3.126 3.862-.76c.182-1.024.528-1.99 1.014-2.872l-2.17-3.467 2.29-2.127 3.005 2.25c.958-.617 2.036-1.067 3.192-1.3l.757-4.21 3.123-.038.875 4.52c.673.22 1.314.512 1.91.87l3.796-2.36 2.12 2.295-2.13 2.83-1.238 1.488c-1.367-2.67-4.144-4.5-7.35-4.5-4.56 0-8.257 3.695-8.257 8.255 0 4.56 3.696 8.256 8.255 8.256 2.794 0 5.26-1.39 6.755-3.514l-.294 5.32-.275 4.493h-2.978l-.275-5.69c-.213.07-1.12.152-1.342.207L453.55 619h-3.434z" fill="url(#b)" transform="matrix(4.515 0 0 -4.515 -1984.278 2794.695)"/><g clip-path="url(#c)" transform="matrix(4.515 0 0 -4.515 -1984.278 2794.695)"><path d="M537.84 596.692h.093c.134 0 .218.005.25.016.032.01.058.028.077.054.018.026.028.055.028.088 0 .032-.01.06-.028.085-.018.025-.044.042-.078.053-.033.01-.117.017-.25.017h-.093v-.313zm-.233-.65v1.144h.232c.217 0 .338 0 .365-.003.077-.006.136-.02.18-.045.042-.024.078-.06.106-.11.03-.05.044-.104.044-.164 0-.083-.027-.153-.08-.212-.055-.058-.13-.095-.228-.11.035-.012.062-.026.08-.042.02-.016.045-.044.077-.088.01-.01.037-.057.085-.14l.135-.23h-.287l-.096.186c-.065.125-.118.203-.16.235-.042.033-.096.05-.16.05h-.06v-.47h-.233zm.488 1.444c-.148 0-.29-.037-.426-.11-.137-.075-.244-.182-.323-.32-.078-.14-.117-.285-.117-.437 0-.152.038-.296.114-.433.077-.137.184-.244.32-.32.137-.078.28-.116.43-.116.152 0 .296.04.433.116.136.077.243.184.32.32.077.138.115.282.115.433 0 .15-.04.296-.118.435-.078.14-.185.246-.322.32-.136.074-.28.11-.427.11m0 .212c.183 0 .36-.046.53-.14.17-.09.304-.224.4-.396.098-.172.146-.353.146-.54 0-.19-.046-.367-.14-.538-.096-.17-.23-.303-.4-.398-.17-.095-.348-.143-.536-.143-.188 0-.367.05-.537.144-.17.095-.303.228-.4.398-.093.17-.14.35-.14.537 0 .187.047.368.145.54.097.173.23.306.4.398.17.093.347.14.532.14M454.743 597.696h2.842v1.867h-2.842v-1.867z" fill="#8a8787"/><path d="M454.022 598.374h2.842v1.866h-2.842v-1.866z" fill="#fff"/><path d="M457.78 603.125h-10.45c-.703-.768-1.238-1.693-1.55-2.715h3.83v-8.502c.892-.408 1.883-.638 2.927-.64v9.142h6.792c-.312 1.022-.847 1.947-1.55 2.715" fill="#8a8787"/><path d="M446.025 601.09h2.864v-8.802c.87-.528 1.863-.873 2.926-.983v9.784h7.268c-.446 1.06-1.143 1.99-2.017 2.714h-9.025c-.874-.724-1.57-1.654-2.017-2.715" fill="#fff"/><path d="M454.743 591.614c1.086.353 2.057.96 2.842 1.752v3.567h-2.842v-5.32z" fill="#8a8787"/><path d="M454.022 591.42c1.053.222 2.02.678 2.842 1.31v4.88h-2.842v-6.19z" fill="#fff"/></g></svg>