<svg xmlns="http://www.w3.org/2000/svg" width="400" height="70.802"><path d="M11.97 70.4l3.604-15.657h12.39l-.412 1.783H17.465L16.33 61.39h9.846l-.406 1.783h-9.84l-1.248 5.445h10.815L25.09 70.4H11.97z" fill="#e2251d"/><path d="M12.14 70.26h12.84l.35-1.51H14.684c-.048 0-.077-.01-.094-.056-.03-.025-.045-.078-.03-.1l1.242-5.454c.012-.062.055-.094.125-.094h9.73l.348-1.534h-9.677c-.036 0-.07-.014-.094-.03-.027-.04-.032-.078-.027-.117l1.126-4.887c.005-.034.068-.094.133-.094h9.988l.348-1.51h-12.13L12.14 70.26zm12.95.262H11.97c-.033 0-.067-.02-.094-.046-.024-.048-.038-.075-.024-.118l3.59-15.658c.02-.053.07-.094.132-.094h12.39c.036 0 .084.017.104.056.024.024.036.06.026.104l-.408 1.787c-.015.058-.073.09-.133.09H17.57l-1.07 4.633h9.676c.036 0 .075 0 .1.043.03.014.035.07.03.098l-.42 1.783c-.01.066-.06.105-.116.105h-9.744l-1.184 5.17h10.653c.04 0 .08.023.1.062.033.033.038.07.033.108l-.41 1.778c-.03.053-.07.1-.13.1M32.875 70.4l3.594-15.657h2.22l2.893 5.867c.884 1.788 1.582 3.298 2.096 4.534.296.708.64 1.667 1.03 2.875.208-1.313.48-2.673.795-4.08l2.11-9.197h2.238L46.27 70.4h-2.272l-4.258-9.058c-.76-1.59-1.346-2.995-1.77-4.212-.127 1.014-.344 2.268-.68 3.746L35.102 70.4h-2.227z" fill="#e2251d"/><path d="M44.08 70.26h2.09l3.528-15.386h-1.97l-2.09 9.092c-.322 1.392-.583 2.75-.795 4.075-.012.067-.06.096-.116.115-.077-.02-.11-.043-.138-.09-.387-1.193-.723-2.166-1.025-2.874-.514-1.224-1.227-2.743-2.094-4.528l-2.86-5.788h-2.04L33.036 70.26h1.96l2.163-9.41c.332-1.476.56-2.73.683-3.73 0-.062.046-.118.108-.118.057-.014.125.022.134.08.423 1.218 1.012 2.643 1.773 4.203l4.223 8.974zm2.188.262H44c-.048 0-.1-.026-.12-.075l-4.264-9.034c-.65-1.386-1.184-2.633-1.59-3.732-.137.917-.33 2-.618 3.22l-2.174 9.523c-.015.053-.07.1-.133.1h-2.226c-.04 0-.085-.023-.104-.047-.027-.048-.027-.075-.027-.118L36.338 54.7c.024-.053.065-.094.133-.094h2.223c.04 0 .1.022.11.07l2.9 5.887c.88 1.766 1.58 3.295 2.1 4.515.257.623.54 1.425.87 2.393.2-1.156.44-2.344.713-3.562L47.49 54.7c.015-.053.065-.094.123-.094h2.242c.04 0 .075.017.1.056.02.024.03.06.02.104l-3.584 15.657c-.01.053-.054.1-.122.1M54.898 70.4l3.604-15.657h12.394l-.425 1.783H60.377l-1.123 4.865h9.84l-.405 1.783h-9.836l-1.256 5.445h10.82l-.407 1.782H54.897z" fill="#e2251d"/><path d="M55.063 70.26h12.83l.366-1.51H57.596c-.034 0-.07-.01-.104-.056-.01-.025-.024-.078-.01-.1l1.232-5.454c.02-.062.06-.094.135-.094h9.73l.352-1.534h-9.68c-.037 0-.07-.014-.1-.03-.027-.04-.036-.078-.027-.117l1.126-4.887c.016-.034.064-.094.124-.094h9.998l.348-1.51H58.596L55.062 70.26zm12.945.262h-13.11c-.048 0-.077-.02-.103-.046-.03-.048-.03-.075-.03-.118l3.6-15.658c.01-.053.07-.094.137-.094h12.395c.026 0 .07.017.094.056.025.024.032.06.025.104l-.42 1.787c-.005.058-.058.09-.123.09h-9.984l-1.065 4.633h9.672c.036 0 .075 0 .104.043.03.014.035.07.03.098l-.42 1.783c-.01.066-.066.105-.12.105h-9.736l-1.188 5.17h10.647c.05 0 .078.023.12.062.01.033.018.07.01.108l-.412 1.778c-.004.053-.064.1-.122.1M80.015 61.748h3.174c1.468 0 2.43-.03 2.87-.05.876-.083 1.584-.27 2.142-.54.55-.282.98-.66 1.277-1.132.3-.462.46-.957.46-1.5 0-.452-.113-.853-.337-1.198-.232-.34-.525-.566-.897-.694-.36-.108-.988-.178-1.884-.178h-5.59l-1.217 5.292zM75.74 70.4l3.597-15.657h7.203c1.42 0 2.495.094 3.237.328.736.204 1.297.615 1.722 1.22.42.588.632 1.36.632 2.245 0 1.288-.464 2.358-1.38 3.184-.915.844-2.386 1.386-4.42 1.632.618.425 1.104.83 1.415 1.25.732.912 1.293 1.844 1.732 2.844l1.31 2.954H88.23l-1.23-2.93c-.434-1.045-.95-1.956-1.514-2.736-.396-.527-.79-.877-1.203-1.05-.405-.158-1.07-.248-1.977-.248H79.63L78.04 70.4h-2.3z" fill="#e2251d"/><path d="M80.185 61.616h3.005c1.464 0 2.425-.034 2.86-.056.848-.077 1.546-.24 2.09-.52.524-.265.94-.627 1.23-1.084.3-.444.44-.925.44-1.43 0-.43-.117-.816-.313-1.123-.21-.32-.485-.534-.833-.638-.34-.123-.97-.188-1.84-.188h-5.48l-1.16 5.04zm3.005.246h-3.174c-.04 0-.072 0-.094-.043-.034-.03-.034-.062-.034-.11l1.227-5.288c.01-.058.05-.103.12-.103h5.588c.916 0 1.544.064 1.93.206.396.116.717.358.952.73.237.355.36.785.36 1.27 0 .56-.148 1.085-.476 1.595-.318.48-.762.858-1.332 1.155-.568.285-1.307.474-2.184.544-.45.042-1.394.042-2.884.042m5.133 8.397H90.6l-1.238-2.765c-.43-.963-1.01-1.92-1.713-2.82-.317-.397-.78-.796-1.387-1.214-.053-.023-.073-.076-.063-.14.014-.047.063-.086.123-.086 2-.25 3.46-.787 4.36-1.604.862-.816 1.317-1.855 1.317-3.094 0-.865-.203-1.604-.604-2.176-.4-.56-.954-.957-1.662-1.17-.708-.222-1.783-.316-3.194-.316h-7.106L75.907 70.26h2.027l1.577-6.847c.006-.06.062-.11.12-.11h2.674c.94 0 1.608.086 2.02.274.434.167.856.544 1.267 1.097.56.76 1.088 1.703 1.52 2.754l1.213 2.83zm2.47.264h-2.564c-.042 0-.105-.03-.12-.096l-1.234-2.896c-.43-1.05-.944-1.957-1.507-2.713-.378-.52-.755-.854-1.14-1.01-.388-.16-1.035-.233-1.926-.233H79.74l-1.57 6.846c-.02.053-.07.1-.132.1H75.74c-.036 0-.07-.023-.098-.047-.02-.048-.037-.075-.02-.118L79.214 54.7c.01-.053.05-.094.12-.094h7.207c1.43 0 2.53.114 3.278.33.76.23 1.365.646 1.793 1.284.436.613.648 1.39.648 2.316 0 1.33-.476 2.42-1.406 3.283-.886.81-2.287 1.354-4.17 1.617.496.372.888.718 1.17 1.085.713.91 1.312 1.886 1.75 2.87l1.31 2.95c.02.04.01.08-.004.13-.032.028-.07.052-.116.052M106.567 64.216l.406-1.77h7.534l-1.476 6.383c-.938.543-2.018.973-3.22 1.32-1.223.327-2.416.515-3.578.515-2.5 0-4.372-.703-5.6-2.068-1.048-1.16-1.565-2.65-1.565-4.466 0-1.895.457-3.59 1.367-5.137.906-1.543 2.054-2.688 3.445-3.42 1.385-.737 2.934-1.1 4.622-1.1 1.218 0 2.302.2 3.283.6.97.405 1.698.947 2.227 1.623.51.68.877 1.546 1.11 2.628l-2.257.215c-.24-1.066-.74-1.892-1.5-2.472-.76-.59-1.74-.85-2.942-.85-1.237 0-2.394.306-3.47.92-1.08.618-1.948 1.54-2.584 2.79-.643 1.23-.965 2.655-.965 4.227 0 1.58.426 2.754 1.27 3.565.863.807 2.032 1.208 3.525 1.208 1.51 0 3.1-.45 4.822-1.348l.768-3.364h-5.223z" fill="#e2251d"/><path d="M108.502 54.6c-1.66 0-3.198.358-4.558 1.085-1.363.727-2.496 1.86-3.4 3.384-.898 1.5-1.332 3.197-1.332 5.06 0 1.775.504 3.246 1.51 4.374 1.202 1.343 3.057 2.02 5.512 2.02 1.16 0 2.333-.172 3.53-.5 1.178-.34 2.233-.766 3.158-1.283l1.41-6.156h-7.26l-.338 1.505h5.055c.043 0 .072.023.113.045.014.043.024.072.014.113l-.768 3.365c-.01.036-.044.07-.078.084-1.72.9-3.358 1.368-4.872 1.368-1.52 0-2.732-.42-3.61-1.25-.878-.835-1.316-2.067-1.316-3.66 0-1.58.334-3.045.98-4.29.653-1.26 1.545-2.216 2.63-2.84 1.098-.637 2.296-.944 3.538-.944 1.222 0 2.242.303 3.024.892.75.568 1.26 1.385 1.525 2.426l1.99-.194c-.23-.99-.58-1.816-1.062-2.44-.5-.66-1.225-1.183-2.17-1.574-.953-.387-2.033-.59-3.226-.59m-2.268 16.182c-2.54 0-4.45-.703-5.7-2.09-1.052-1.193-1.59-2.722-1.59-4.562 0-1.896.466-3.645 1.376-5.203.92-1.554 2.095-2.727 3.505-3.464 1.4-.744 2.97-1.12 4.677-1.12 1.237 0 2.36.202 3.33.61.986.406 1.76.964 2.28 1.647.518.694.9 1.58 1.14 2.69.006.047 0 .07-.033.108-.02.024-.05.058-.09.058l-2.242.227c-.065.007-.13-.05-.14-.12-.236-1.037-.727-1.854-1.464-2.388-.72-.54-1.688-.823-2.862-.823-1.208 0-2.345.292-3.4.886-1.06.614-1.907 1.52-2.535 2.742-.633 1.225-.96 2.626-.96 4.174 0 1.524.42 2.693 1.243 3.48.826.77 1.976 1.163 3.43 1.163 1.456 0 3.034-.44 4.708-1.302l.722-3.153h-5.063c-.04 0-.085-.02-.11-.04-.013-.03-.018-.078-.013-.1l.406-1.795c.014-.055.067-.094.123-.094h7.534c.03 0 .067.015.094.058.025.03.03.062.025.1l-1.46 6.382c-.01.03-.03.073-.07.077-.94.55-2.04 1-3.262 1.342-1.218.34-2.43.51-3.6.51M124.656 53.775l2.208-2.94h2.67l-3.117 2.94h-1.76zm-3.08 16.626l3.594-15.66h2.278l-3.59 15.66h-2.282z" fill="#e2251d"/><path d="M124.915 53.648h1.454l2.842-2.67h-2.282l-2.015 2.67zm1.5.246h-1.758c-.05 0-.092-.02-.11-.048-.023-.05-.023-.104.016-.15l2.188-2.93c.037-.04.07-.058.115-.058h2.67c.052 0 .098.034.117.08.03.048.01.108-.034.152l-3.11 2.935c-.028.02-.05.02-.093.02m-4.674 16.364h2.023l3.52-15.385h-2.018L121.74 70.26zm2.12.262h-2.285c-.042 0-.075-.02-.114-.045-.02-.05-.02-.075-.02-.12l3.598-15.656c.015-.052.07-.096.13-.096h2.28c.037 0 .08.02.105.058.015.024.036.06.015.104l-3.583 15.657c0 .054-.055.1-.125.1M137.432 64.272h5.686l-.662-3.92c-.263-1.566-.43-2.86-.485-3.906-.39.905-.97 1.96-1.707 3.188l-2.83 4.638zm-6.247 6.128l9.723-15.657h2.715l2.824 15.657h-2.218l-.834-4.51h-6.945l-2.75 4.51h-2.515z" fill="#e2251d"/><path d="M137.663 64.145h5.292l-.635-3.788c-.212-1.295-.365-2.444-.454-3.403-.372.81-.877 1.722-1.5 2.746l-2.703 4.445zm5.454.258h-5.686c-.045 0-.093-.022-.117-.07-.022-.046-.022-.084.01-.128l2.826-4.64c.73-1.208 1.3-2.28 1.692-3.177.024-.038.097-.084.143-.07.055 0 .108.066.113.126.06 1.015.222 2.317.476 3.865l.68 3.944c0 .033 0 .07-.042.103-.024.04-.058.046-.094.046m1.217 5.856h1.96l-2.78-15.386h-2.535l-9.563 15.385h2.207l2.713-4.44c.03-.047.075-.07.114-.07h6.945c.066 0 .12.054.133.117l.807 4.392zm2.114.264h-2.22c-.066 0-.117-.048-.127-.108l-.812-4.394h-6.774l-2.708 4.45c-.02.023-.06.052-.11.052h-2.513c-.056 0-.1-.03-.116-.077-.025-.03-.025-.09 0-.135l9.726-15.65c.034-.032.06-.056.114-.056h2.712c.05 0 .12.04.128.104l2.83 15.648c.01.048-.006.08-.028.118-.03.024-.058.048-.103.048M164.11 70.4l3.59-15.657h12.4l-.416 1.783h-10.1l-1.118 4.865h9.837l-.406 1.783h-9.836l-1.25 5.445h10.82l-.422 1.782H164.11z" fill="#e2251d"/><path d="M164.272 70.26h12.845l.336-1.51H166.81c-.03 0-.08-.01-.1-.056-.023-.025-.032-.078-.023-.1l1.247-5.454c.005-.062.065-.094.125-.094h9.734l.357-1.534h-9.685c-.036 0-.085-.014-.11-.03-.01-.04-.016-.078-.01-.117l1.11-4.887c.03-.034.068-.094.128-.094h9.998l.35-1.51h-12.115l-3.543 15.385zm12.935.262h-13.095c-.038 0-.082-.02-.1-.046-.033-.048-.042-.075-.033-.118l3.584-15.658c.02-.053.073-.094.138-.094h12.4c.025 0 .07.017.093.056.03.024.04.06.03.104l-.407 1.787c-.024.058-.072.09-.133.09h-9.988l-1.065 4.633h9.672c.036 0 .074 0 .103.043.022.014.032.07.022.098l-.412 1.783c-.012.066-.065.105-.12.105h-9.74l-1.183 5.17h10.652c.04 0 .08.023.1.062.018.033.038.07.018.108l-.405 1.778c-.015.053-.06.1-.133.1M185.002 70.4l3.594-15.657h2.218l2.9 5.867c.88 1.788 1.583 3.298 2.097 4.534.303.708.646 1.667 1.038 2.875.212-1.313.483-2.673.785-4.08l2.12-9.197h2.232l-3.58 15.657h-2.275l-4.268-9.058c-.746-1.59-1.34-2.995-1.76-4.212-.122 1.014-.35 2.268-.68 3.746L187.24 70.4H185z" fill="#e2251d"/><path d="M196.216 70.26h2.08l3.524-15.386h-1.966l-2.09 9.092c-.31 1.392-.577 2.75-.785 4.075-.022.067-.066.096-.12.115-.064-.02-.12-.043-.134-.09-.387-1.193-.732-2.166-1.034-2.874-.515-1.224-1.217-2.743-2.08-4.528l-2.87-5.788h-2.04l-3.544 15.385h1.97l2.163-9.41c.327-1.476.56-2.73.675-3.73.014-.062.058-.118.123-.118.04-.014.11.022.128.08.428 1.218 1.014 2.643 1.763 4.203l4.236 8.974zm2.19.262h-2.274c-.058 0-.1-.026-.12-.075l-4.26-9.034c-.654-1.386-1.188-2.633-1.604-3.732-.123.917-.328 2-.608 3.22l-2.174 9.523c-.015.053-.07.1-.128.1H185c-.04 0-.074-.023-.105-.047-.015-.048-.03-.075-.015-.118l3.594-15.658c.015-.053.066-.094.124-.094h2.217c.056 0 .1.022.126.07l2.9 5.887c.87 1.766 1.58 3.295 2.09 4.515.257.623.55 1.425.87 2.393.204-1.156.45-2.344.704-3.562l2.113-9.208c.015-.053.075-.094.138-.094h2.232c.036 0 .075.017.104.056.032.024.037.06.032.104l-3.59 15.657c-.024.053-.065.1-.127.1M219.093 65.334l2.26-.19-.018.535c0 .61.145 1.16.447 1.663.31.505.816.887 1.51 1.157.712.283 1.538.423 2.504.423 1.384 0 2.425-.278 3.148-.816.722-.55 1.09-1.198 1.09-1.887 0-.485-.194-.942-.576-1.353-.396-.4-1.46-.925-3.198-1.618-1.355-.535-2.27-.945-2.76-1.228-.793-.46-1.35-.97-1.718-1.515-.363-.543-.546-1.16-.546-1.855 0-.802.24-1.53.717-2.183.5-.65 1.203-1.15 2.13-1.487.94-.336 1.993-.51 3.167-.51 1.387 0 2.58.213 3.53.638.956.433 1.65.996 2.1 1.72.424.7.64 1.385.64 2.025 0 .068 0 .177-.004.33l-2.222.153c0-.435-.044-.79-.12-1.038-.168-.435-.395-.793-.73-1.085-.33-.307-.783-.558-1.353-.737-.576-.174-1.207-.258-1.93-.258-1.24 0-2.23.25-2.93.758-.514.396-.782.92-.782 1.558 0 .387.11.73.324 1.027.217.307.613.6 1.19.906.397.192 1.368.612 2.892 1.226 1.237.49 2.08.886 2.544 1.17.635.383 1.113.825 1.45 1.36.337.542.5 1.156.5 1.854 0 .83-.286 1.618-.842 2.324-.572.722-1.35 1.28-2.355 1.667-1 .402-2.14.595-3.43.595-1.948 0-3.533-.392-4.76-1.16-1.24-.78-1.857-2.17-1.867-4.17" fill="#e2251d"/><path d="M219.24 65.442c.028 1.887.632 3.213 1.787 3.954 1.198.754 2.78 1.128 4.696 1.128 1.258 0 2.4-.18 3.377-.572.976-.39 1.75-.93 2.302-1.618.538-.694.81-1.452.81-2.254 0-.662-.153-1.26-.475-1.78-.32-.515-.797-.962-1.396-1.317-.463-.283-1.315-.68-2.533-1.164-1.53-.615-2.5-1.03-2.9-1.243-.605-.297-1.01-.613-1.228-.942-.242-.307-.366-.686-.366-1.1 0-.685.28-1.24.856-1.666.712-.52 1.722-.788 2.99-.788.722 0 1.384.09 1.964.278.59.188 1.065.43 1.41.76.33.303.595.694.754 1.13.077.238.128.56.133.955l1.967-.138v-.212c0-.61-.21-1.278-.62-1.97-.43-.685-1.11-1.243-2.04-1.65-.94-.42-2.113-.634-3.478-.634-1.15 0-2.204.165-3.124.5-.9.33-1.6.818-2.07 1.448-.457.618-.698 1.326-.698 2.104 0 .672.18 1.275.53 1.785.36.527.926 1.024 1.678 1.47.47.28 1.41.69 2.74 1.223 1.77.684 2.832 1.228 3.25 1.66.4.425.61.91.61 1.43 0 .737-.392 1.415-1.14 1.988-.748.55-1.818.838-3.228.838-.97 0-1.83-.145-2.554-.43-.717-.268-1.253-.683-1.57-1.203-.32-.526-.473-1.11-.473-1.734l.01-.402-1.97.164zm6.483 5.34c-1.97 0-3.587-.38-4.84-1.173-1.267-.798-1.897-2.233-1.912-4.277 0-.065.052-.128.122-.128l2.25-.203c.04 0 .076.015.105.04.015.014.034.07.034.103l-.018.544c0 .56.145 1.12.435 1.573.282.496.782.858 1.446 1.124.684.268 1.51.4 2.455.4 1.34 0 2.367-.26 3.07-.796.688-.52 1.034-1.108 1.034-1.77 0-.47-.174-.872-.54-1.263-.37-.387-1.45-.93-3.154-1.604-1.34-.52-2.28-.93-2.775-1.237-.792-.452-1.377-.97-1.75-1.54-.395-.554-.58-1.216-.58-1.924 0-.838.25-1.594.75-2.268.49-.655 1.242-1.17 2.184-1.51.95-.362 2.024-.534 3.212-.534 1.4 0 2.6.218 3.586.653.976.437 1.7 1.03 2.138 1.748.457.733.68 1.44.68 2.115 0 .068 0 .176-.016.34 0 .06-.06.095-.118.13l-2.208.144c-.046 0-.08-.006-.108-.028-.015-.024-.03-.068-.03-.104 0-.435-.045-.756-.12-.993-.162-.408-.39-.758-.703-1.04-.306-.28-.75-.52-1.294-.704-.56-.168-1.203-.25-1.896-.25-1.213 0-2.174.227-2.843.732-.493.367-.742.84-.742 1.454 0 .367.104.674.297.966.213.273.59.556 1.153.85.4.194 1.362.612 2.877 1.208 1.23.51 2.1.897 2.565 1.18.652.4 1.147.87 1.488 1.42.348.565.53 1.198.53 1.92 0 .848-.3 1.688-.88 2.396-.575.744-1.392 1.326-2.4 1.713-1.01.39-2.185.593-3.482.593M242.975 54.742h2.292l-2.203 9.614c-.174.802-.263 1.384-.263 1.785 0 .834.358 1.51 1.08 2.03.728.5 1.643.758 2.737.758.887 0 1.7-.178 2.452-.543.75-.372 1.36-.913 1.775-1.62.437-.718.838-1.85 1.183-3.414l1.986-8.608h2.302l-2.104 9.177c-.348 1.57-.833 2.796-1.41 3.72-.585.912-1.392 1.65-2.433 2.21-1.05.55-2.257.825-3.63.825-1.29 0-2.415-.198-3.38-.594-.938-.395-1.64-.93-2.127-1.623-.456-.68-.708-1.478-.708-2.355 0-.54.177-1.495.48-2.82l1.97-8.54z" fill="#e2251d"/><path d="M243.08 54.874l-1.946 8.43c-.302 1.322-.466 2.27-.466 2.798 0 .855.227 1.618.684 2.285.45.67 1.147 1.203 2.077 1.575.922.38 2.045.57 3.31.57 1.348 0 2.537-.264 3.556-.802 1.01-.54 1.826-1.273 2.39-2.16.57-.886 1.045-2.138 1.4-3.676l2.05-9.02h-2.013l-1.957 8.515c-.355 1.547-.756 2.712-1.193 3.434-.46.74-1.083 1.297-1.85 1.667-.778.377-1.605.575-2.506.575-1.123 0-2.058-.268-2.806-.802-.77-.53-1.152-1.24-1.152-2.123 0-.406.09-.995.278-1.816l2.172-9.45h-2.03zm3.66 15.928c-1.3 0-2.458-.198-3.42-.6-.964-.4-1.703-.958-2.19-1.675-.48-.703-.725-1.524-.725-2.425 0-.542.164-1.5.49-2.853l1.952-8.55c.02-.053.053-.094.128-.094h2.292c.04 0 .073.017.1.056.018.024.038.062.018.103l-2.188 9.63c-.188.774-.268 1.354-.268 1.745 0 .788.332 1.425 1.025 1.91.703.496 1.6.747 2.662.747.853 0 1.65-.18 2.387-.533.732-.346 1.32-.887 1.732-1.566.43-.7.82-1.83 1.18-3.38l1.972-8.618c.017-.053.065-.094.126-.094h2.302c.038 0 .067.017.096.056.027.024.032.062.027.104l-2.095 9.176c-.363 1.585-.84 2.846-1.445 3.768-.58.935-1.418 1.69-2.47 2.252-1.076.538-2.303.84-3.69.84M262.025 65.334l2.247-.19-.02.535c0 .61.15 1.16.447 1.663.31.505.81.887 1.52 1.157.702.283 1.533.423 2.497.423 1.39 0 2.427-.278 3.154-.816.723-.55 1.076-1.198 1.076-1.887 0-.485-.183-.942-.56-1.353-.396-.4-1.47-.925-3.213-1.618-1.345-.535-2.26-.945-2.76-1.228-.77-.46-1.34-.97-1.714-1.515-.368-.543-.537-1.16-.537-1.855 0-.802.23-1.53.718-2.183.486-.65 1.19-1.15 2.13-1.487.926-.336 1.99-.51 3.144-.51 1.4 0 2.577.213 3.548.638.954.433 1.665.996 2.085 1.72.435.7.652 1.385.652 2.025 0 .068 0 .177-.006.33l-2.217.153c0-.435-.044-.79-.128-1.038-.16-.435-.398-.793-.733-1.085-.324-.307-.778-.558-1.343-.737-.59-.174-1.223-.258-1.926-.258-1.25 0-2.227.25-2.92.758-.548.396-.797.92-.797 1.558 0 .387.105.73.322 1.027.22.307.62.6 1.19.906.41.192 1.36.612 2.885 1.226 1.247.49 2.09.886 2.563 1.17.62.383 1.1.825 1.437 1.36.33.542.505 1.156.505 1.854 0 .83-.282 1.618-.857 2.324-.566.722-1.34 1.28-2.346 1.667-1.006.402-2.146.595-3.436.595-1.942 0-3.524-.392-4.75-1.16-1.23-.78-1.854-2.17-1.86-4.17" fill="#e2251d"/><path d="M262.153 65.442c.034 1.887.638 3.213 1.797 3.954 1.208.754 2.78 1.128 4.686 1.128 1.268 0 2.406-.18 3.382-.572.98-.39 1.756-.93 2.292-1.618.563-.694.827-1.452.827-2.254 0-.662-.165-1.26-.48-1.78-.327-.515-.798-.962-1.388-1.317-.48-.283-1.322-.68-2.55-1.164-1.504-.615-2.49-1.03-2.89-1.243-.61-.297-1.01-.613-1.242-.942-.237-.307-.355-.686-.355-1.1 0-.685.285-1.24.845-1.666.732-.52 1.737-.788 3.01-.788.717 0 1.37.09 1.96.278.584.188 1.064.43 1.4.76.333.303.6.694.768 1.13.075.238.114.56.133.955l1.956-.138c.01-.108.01-.164.01-.212 0-.61-.213-1.278-.645-1.97-.405-.685-1.094-1.243-2.024-1.65-.934-.42-2.108-.634-3.49-.634-1.143 0-2.186.165-3.102.5-.91.33-1.608.818-2.065 1.448-.47.618-.704 1.326-.704 2.104 0 .672.174 1.275.537 1.785.34.527.91 1.024 1.657 1.47.48.28 1.41.69 2.75 1.223 1.774.684 2.837 1.228 3.245 1.66.4.425.613.91.613 1.43 0 .737-.396 1.415-1.14 1.988-.746.55-1.826.838-3.232.838-.968 0-1.835-.145-2.538-.43-.732-.268-1.26-.683-1.585-1.203-.312-.526-.48-1.11-.48-1.734l.026-.402-1.987.164zm6.483 5.34c-1.954 0-3.582-.38-4.824-1.173-1.268-.798-1.917-2.233-1.922-4.277 0-.065.06-.128.125-.128l2.242-.203c.04.005.075.015.104.04.03.014.044.07.044.103l-.024.544c0 .56.14 1.12.442 1.573.28.496.77.858 1.435 1.124.693.268 1.51.4 2.46.4 1.342 0 2.38-.26 3.074-.796.685-.52 1.035-1.108 1.035-1.77 0-.47-.17-.872-.553-1.263-.372-.387-1.428-.93-3.14-1.604-1.34-.52-2.28-.93-2.786-1.237-.792-.452-1.372-.97-1.753-1.54-.377-.554-.568-1.216-.568-1.924 0-.838.256-1.594.746-2.268.506-.655 1.238-1.17 2.19-1.51.95-.362 2.02-.534 3.196-.534 1.418 0 2.635.218 3.604.653.976.437 1.698 1.03 2.13 1.748.454.733.686 1.44.686 2.115 0 .068-.005.176-.014.34 0 .06-.05.095-.124.13l-2.203.144c-.048 0-.08-.006-.103-.028-.034-.024-.044-.068-.044-.104 0-.435-.046-.756-.13-.993-.138-.408-.382-.758-.68-1.04-.325-.28-.755-.52-1.308-.704-.566-.168-1.203-.25-1.882-.25-1.217 0-2.174.227-2.84.732-.496.367-.754.85-.754 1.454 0 .367.1.674.306.966.208.273.595.556 1.138.85.4.194 1.372.612 2.872 1.208 1.247.51 2.12.897 2.58 1.18.643.4 1.152.87 1.495 1.42.34.565.51 1.198.51 1.92 0 .872-.297 1.688-.877 2.396-.57.744-1.382 1.32-2.39 1.713-1.016.39-2.195.593-3.492.593M293.65 70.4l3.58-15.657h2.835l1.727 10.148c.232 1.332.372 2.605.444 3.822.472-1.053 1.27-2.478 2.392-4.295l6.024-9.674h2.87L309.93 70.4h-2.26l1.79-7.623c.414-1.76 1.004-3.732 1.786-5.916-.495 1.013-1.1 2.122-1.826 3.284l-6.4 10.256H300.8l-1.723-10.048c-.143-.91-.264-1.98-.327-3.213-.203 1.386-.396 2.47-.584 3.263l-2.28 9.997h-2.24z" fill="#e2251d"/><path d="M307.84 70.26h1.996l3.514-15.386h-2.633l-5.985 9.614c-1.104 1.795-1.91 3.232-2.382 4.285-.02.056-.082.08-.142.07-.044 0-.095-.06-.095-.118-.08-1.208-.222-2.5-.444-3.826l-1.728-10.026h-2.6l-3.52 15.385h1.965l2.26-9.88c.192-.817.378-1.902.557-3.252.024-.07.084-.104.15-.104.077 0 .118.044.132.114.06 1.207.18 2.285.32 3.195l1.714 9.926h2.03l6.362-10.187c.717-1.17 1.335-2.26 1.816-3.264.03-.068.104-.095.162-.068.07.024.104.094.08.166-.773 2.16-1.365 4.14-1.783 5.9l-1.746 7.45zm2.09.262h-2.26c-.037 0-.076-.02-.088-.046-.034-.048-.043-.075-.034-.118l1.793-7.62c.303-1.296.713-2.735 1.233-4.284-.33.568-.667 1.157-1.05 1.76l-6.38 10.258c-.04.024-.078.05-.124.05H300.8c-.06 0-.11-.046-.12-.108l-1.71-10.04c-.125-.613-.2-1.297-.265-2.065-.137.852-.277 1.56-.4 2.127l-2.29 9.986c-.008.053-.066.1-.126.1h-2.24c-.04 0-.076-.023-.105-.047-.024-.048-.038-.075-.024-.118l3.584-15.658c.014-.053.065-.094.125-.094h2.835c.058 0 .113.04.113.104l1.752 10.153c.183 1.154.323 2.268.4 3.343.49-1.005 1.228-2.302 2.18-3.848l6.024-9.696c.03-.034.063-.056.118-.056h2.87c.036 0 .07.017.094.056.027.024.032.06.027.104l-3.59 15.657c-.005.053-.065.1-.123.1M323.15 64.272h5.69l-.68-3.92c-.254-1.566-.41-2.86-.466-3.906-.397.905-.97 1.96-1.713 3.188l-2.83 4.638zm-6.247 6.128l9.728-15.657h2.7l2.844 15.657h-2.23l-.83-4.51h-6.945l-2.752 4.51h-2.515z" fill="#e2251d"/><path d="M323.38 64.145h5.298l-.635-3.788c-.212-1.295-.374-2.444-.45-3.403-.386.81-.88 1.722-1.51 2.746l-2.702 4.445zm5.46.258h-5.69c-.047 0-.085-.022-.114-.07-.017-.046-.017-.084 0-.128l2.82-4.64c.752-1.218 1.318-2.295 1.702-3.177.036-.038.094-.084.154-.07.05 0 .1.066.1.126.064 1.007.23 2.314.49 3.865l.66 3.944c0 .033 0 .07-.032.103-.02.04-.058.046-.09.046m1.223 5.856h1.95l-2.777-15.386h-2.53L317.13 70.26h2.217l2.713-4.44c.024-.047.063-.07.11-.07h6.943c.06 0 .123.054.133.117l.817 4.392zm2.113.264h-2.232c-.067 0-.113-.048-.123-.108l-.806-4.394h-6.77l-2.718 4.45c-.022.023-.07.052-.11.052h-2.513c-.056 0-.09-.03-.126-.077-.02-.03-.014-.09 0-.135l9.737-15.65c.024-.032.07-.056.118-.056h2.7c.06 0 .122.04.122.104l2.843 15.648c.01.048 0 .08-.022.118-.034.024-.067.048-.1.048M339.346 70.4l3.604-15.657h2.223l2.88 5.867c.895 1.788 1.593 3.298 2.113 4.534.282.708.625 1.667 1.02 2.875.21-1.313.48-2.673.808-4.08l2.1-9.197h2.23l-3.58 15.657h-2.27l-4.267-9.058c-.756-1.59-1.346-2.995-1.766-4.212-.115 1.014-.337 2.268-.683 3.746l-2.17 9.524h-2.24z" fill="#e2251d"/><path d="M350.556 70.26h2.085l3.52-15.386h-1.96l-2.09 9.092c-.312 1.392-.583 2.75-.795 4.075 0 .067-.046.096-.116.115h-.01c-.064 0-.105-.043-.12-.09-.406-1.217-.746-2.176-1.024-2.874-.53-1.224-1.232-2.743-2.104-4.528l-2.86-5.788h-2.036L339.52 70.26h1.958l2.157-9.41c.33-1.476.556-2.73.674-3.73.004-.062.055-.118.122-.118.06-.014.12.022.133.08.413 1.218 1.012 2.643 1.763 4.203l4.228 8.974zm2.19.262h-2.27c-.058 0-.094-.026-.118-.075l-4.266-9.034c-.65-1.386-1.18-2.628-1.59-3.732-.137.917-.33 2-.608 3.22l-2.174 9.523c-.015.053-.068.1-.133.1h-2.24c-.038 0-.08-.023-.105-.047-.022-.048-.027-.075-.022-.118l3.6-15.658c.01-.053.064-.094.132-.094h2.22c.038 0 .087.022.123.07l2.884 5.887c.87 1.766 1.584 3.295 2.103 4.515.244.632.532 1.403.867 2.393.194-1.156.425-2.344.713-3.562l2.104-9.208c.014-.053.07-.094.128-.094h2.232c.046 0 .08.017.118.056.007.024.012.06.007.104l-3.585 15.657c-.005.053-.065.1-.123.1M364.752 63.942c0 .92.203 1.768.61 2.54.44.757 1.042 1.366 1.89 1.796.826.425 1.694.65 2.61.65.873 0 1.72-.19 2.514-.57.787-.387 1.505-.91 2.137-1.595.633-.674 1.128-1.5 1.486-2.51.373-.985.538-1.963.538-2.934 0-1.557-.476-2.794-1.416-3.72-.96-.93-2.157-1.38-3.563-1.38-1.788 0-3.373.688-4.743 2.09-1.386 1.39-2.065 3.272-2.065 5.632m-2.263-.12c0-2.78.88-5.037 2.653-6.764 1.76-1.735 3.906-2.585 6.44-2.585 2.133 0 3.88.628 5.223 1.91 1.35 1.266 2.03 2.97 2.03 5.105 0 1.52-.342 2.93-1.035 4.246-.51.964-1.144 1.797-1.92 2.52-.758.717-1.608 1.25-2.47 1.637-1.174.516-2.41.774-3.728.774-1.38 0-2.623-.31-3.76-.91-1.122-.595-1.977-1.43-2.56-2.505-.586-1.062-.873-2.21-.873-3.427" fill="#e2251d"/><path d="M371.56 56.35c-1.742 0-3.312.675-4.662 2.054-1.343 1.357-2.01 3.227-2.01 5.54 0 .895.19 1.723.61 2.47.4.732 1 1.32 1.806 1.756.797.413 1.67.626 2.558.626.848 0 1.674-.19 2.45-.566.787-.367 1.485-.896 2.108-1.548.616-.66 1.104-1.5 1.452-2.476.364-.97.543-1.94.543-2.886 0-1.52-.473-2.737-1.386-3.633-.936-.897-2.093-1.336-3.47-1.336m-1.698 12.716c-.935 0-1.84-.222-2.677-.67-.843-.453-1.505-1.076-1.922-1.854-.42-.792-.633-1.667-.633-2.6 0-2.383.698-4.31 2.09-5.714 1.38-1.438 3.014-2.145 4.84-2.145 1.444 0 2.667.47 3.638 1.432.985.94 1.476 2.222 1.476 3.805 0 .985-.198 1.985-.54 2.98-.38 1.01-.89 1.872-1.526 2.57-.637.662-1.374 1.228-2.186 1.597-.807.39-1.674.6-2.56.6m1.722-14.468c-2.488 0-4.628.864-6.355 2.543-1.733 1.708-2.61 3.945-2.61 6.68 0 1.195.283 2.328.857 3.364.563 1.043 1.41 1.88 2.515 2.46 1.1.58 2.34.876 3.69.876 1.293 0 2.52-.25 3.67-.76.865-.368 1.684-.91 2.44-1.593.763-.708 1.406-1.548 1.9-2.515.665-1.26 1.006-2.67 1.006-4.166 0-2.09-.66-3.782-1.976-5.02-1.317-1.233-3.044-1.87-5.138-1.87m-1.9 16.184c-1.395 0-2.668-.307-3.813-.91-1.15-.605-2.033-1.47-2.627-2.554-.587-1.085-.894-2.264-.894-3.496 0-2.806.91-5.108 2.705-6.85 1.773-1.746 3.976-2.633 6.53-2.633 2.144 0 3.95.653 5.31 1.95 1.373 1.288 2.06 3.037 2.06 5.2 0 1.523-.35 2.975-1.025 4.29-.52.987-1.182 1.856-1.96 2.57-.782.716-1.618 1.272-2.52 1.658-1.173.515-2.438.776-3.767.776M385.44 65.334l2.246-.19-.02.535c0 .61.146 1.16.458 1.663.3.505.806.887 1.51 1.157.707.283 1.528.423 2.504.423 1.37 0 2.42-.278 3.143-.816.728-.55 1.095-1.198 1.095-1.887 0-.485-.193-.942-.575-1.353-.396-.4-1.466-.925-3.198-1.618-1.35-.535-2.28-.945-2.776-1.228-.763-.46-1.333-.97-1.702-1.515-.368-.543-.546-1.16-.546-1.855 0-.802.234-1.53.73-2.183.482-.65 1.19-1.15 2.105-1.487.947-.336 1.996-.51 3.17-.51 1.39 0 2.58.213 3.548.638.958.433 1.644.996 2.07 1.72.446.7.658 1.385.658 2.025 0 .068-.005.177-.005.33l-2.222.153c0-.435-.033-.79-.127-1.038-.155-.435-.396-.793-.718-1.085-.333-.307-.782-.558-1.347-.737-.587-.174-1.237-.258-1.94-.258-1.26 0-2.222.25-2.916.758-.524.396-.787.92-.787 1.558 0 .387.104.73.316 1.027.22.307.61.6 1.18.906.416.192 1.377.612 2.9 1.226 1.238.49 2.086.886 2.56 1.17.615.383 1.098.825 1.437 1.36.34.542.504 1.156.504 1.854 0 .83-.286 1.618-.85 2.324-.564.722-1.347 1.28-2.352 1.667-.995.402-2.142.595-3.435.595-1.942 0-3.53-.392-4.746-1.16-1.24-.78-1.858-2.17-1.867-4.17" fill="#e2251d"/><path d="M385.577 65.442c.024 1.887.618 3.213 1.792 3.954 1.202.754 2.78 1.128 4.685 1.128 1.273 0 2.406-.18 3.392-.572.976-.39 1.746-.93 2.292-1.618.547-.694.81-1.452.81-2.254 0-.662-.16-1.26-.46-1.78-.34-.515-.803-.962-1.407-1.317-.468-.283-1.316-.68-2.538-1.164-1.51-.615-2.49-1.03-2.9-1.243-.6-.297-.997-.613-1.233-.942-.232-.307-.35-.686-.35-1.1 0-.685.28-1.24.84-1.666.722-.52 1.722-.788 2.995-.788.718 0 1.384.09 1.974.278.59.188 1.052.43 1.402.76.333.303.594.694.758 1.13.08.238.12.56.138.955l1.95-.138c.006-.108.006-.164.006-.212 0-.61-.207-1.278-.62-1.97-.426-.685-1.104-1.243-2.03-1.65-.954-.42-2.118-.634-3.492-.634-1.15 0-2.208.165-3.114.5-.9.33-1.594.818-2.065 1.448-.462.618-.698 1.326-.698 2.104 0 .672.174 1.275.52 1.785.356.527.924 1.024 1.673 1.47.48.28 1.41.69 2.746 1.223 1.778.684 2.836 1.228 3.247 1.66.392.425.607.91.607 1.43 0 .737-.377 1.415-1.13 1.988-.75.55-1.826.838-3.227.838-.976 0-1.83-.145-2.563-.43-.713-.268-1.244-.683-1.56-1.203-.317-.526-.48-1.11-.48-1.734l.01-.402-1.97.164zm6.478 5.34c-1.954 0-3.567-.38-4.826-1.173-1.272-.798-1.92-2.233-1.92-4.277 0-.065.054-.128.13-.128l2.24-.203c.044.005.076.015.1.04.03.014.034.07.034.103l-.025.544c0 .56.154 1.12.434 1.573.302.496.783.858 1.452 1.124.688.268 1.52.4 2.464.4 1.343 0 2.372-.26 3.06-.796.69-.52 1.044-1.108 1.044-1.77 0-.47-.174-.872-.544-1.263-.377-.387-1.437-.93-3.145-1.604-1.345-.52-2.285-.93-2.775-1.237-.797-.452-1.387-.97-1.764-1.54-.376-.554-.562-1.216-.562-1.924 0-.838.246-1.594.73-2.268.51-.655 1.248-1.17 2.19-1.51.95-.362 2.02-.534 3.208-.534 1.41 0 2.618.218 3.587.653.994.437 1.697 1.03 2.15 1.748.453.733.68 1.44.68 2.115 0 .068-.01.176-.015.34-.01.06-.062.095-.132.13l-2.208.144c-.04 0-.07-.006-.094-.028-.033-.024-.048-.068-.048-.104 0-.435-.036-.756-.116-.993-.162-.408-.384-.758-.688-1.04-.312-.28-.76-.52-1.31-.704-.56-.168-1.197-.25-1.89-.25-1.213 0-2.17.227-2.832.732-.505.367-.75.85-.75 1.454 0 .367.1.674.3.966.197.273.598.556 1.146.85.406.194 1.372.612 2.882 1.208 1.236.51 2.1.897 2.565 1.18.646.4 1.146.87 1.497 1.42.343.565.512 1.198.512 1.92 0 .872-.294 1.688-.883 2.396-.575.744-1.382 1.32-2.396 1.713-1.014.39-2.192.593-3.485.593" fill="#e2251d"/><path d="M16.598 44.85V6.883H1.044V1.8H38.48v5.084H22.854V44.85h-6.256z" fill="#1c5732"/><path d="M17.636 43.81h4.176V5.847h15.62v-3H2.076v3h15.56V43.81zm6.256 2.09h-8.34V7.913H0V.76h39.523v7.153h-15.63V45.9zM51.61 44.85V1.8h34.157v5.084H57.87v13.19h26.117v5.054H57.87V39.77h28.977v5.08H51.61z" fill="#1c5732"/><path d="M52.652 43.81h33.165v-2.99H56.823V24.08H82.95v-2.966H56.823V5.846h27.89v-3h-32.06V43.81zM87.9 45.9H50.566V.76h36.238v7.153H58.903v11.1h26.132v7.152H58.903v12.563H87.9V45.9zM135.78 29.756l6.247 1.445c-1.302 4.665-3.667 8.252-7.063 10.71-3.4 2.453-7.568 3.67-12.483 3.67-5.094 0-9.232-.93-12.415-2.82-3.196-1.892-5.626-4.64-7.286-8.21-1.667-3.576-2.496-7.436-2.496-11.545 0-4.476.933-8.394 2.817-11.747 1.882-3.32 4.556-5.86 8.015-7.597 3.474-1.72 7.3-2.593 11.46-2.593 4.732 0 8.7 1.1 11.918 3.292 3.227 2.185 5.464 5.28 6.732 9.246l-6.147 1.32c-1.1-3.127-2.684-5.41-4.766-6.835-2.09-1.43-4.708-2.144-7.865-2.144-3.626 0-6.66.788-9.104 2.382-2.435 1.58-4.148 3.708-5.133 6.387-.986 2.657-1.486 5.43-1.486 8.256 0 3.673.6 6.86 1.754 9.598 1.17 2.727 2.993 4.76 5.464 6.12 2.47 1.344 5.137 2.018 8.014 2.018 3.503 0 6.474-.9 8.89-2.754 2.44-1.85 4.077-4.568 4.935-8.196" fill="#1c5732"/><path d="M122.575 2.105c-3.976 0-7.68.84-10.983 2.49-3.268 1.633-5.817 4.05-7.585 7.19-1.78 3.156-2.686 6.936-2.686 11.22 0 3.944.812 7.676 2.402 11.1 1.572 3.378 3.88 5.975 6.865 7.748 3.01 1.792 7.015 2.678 11.894 2.678 4.668 0 8.668-1.153 11.876-3.47 2.935-2.128 5.072-5.176 6.35-9.092l-4.176-.956c-.966 3.352-2.665 5.97-5.046 7.77-2.602 1.967-5.805 2.972-9.527 2.972-3.04 0-5.896-.723-8.525-2.157-2.657-1.452-4.652-3.684-5.91-6.63-1.218-2.832-1.836-6.197-1.836-9.994 0-2.954.514-5.85 1.546-8.62 1.067-2.883 2.925-5.2 5.548-6.912 2.592-1.697 5.855-2.538 9.667-2.538 3.36 0 6.2.778 8.455 2.326 2.058 1.406 3.676 3.59 4.836 6.493l4.113-.873c-1.233-3.232-3.236-5.783-5.943-7.628-3.027-2.067-6.846-3.115-11.332-3.115m-.094 44.535c-5.26 0-9.615-1.007-12.944-2.995-3.365-1.986-5.945-4.89-7.696-8.657-1.727-3.703-2.6-7.732-2.6-11.984 0-4.638.996-8.76 2.963-12.242 1.968-3.51 4.82-6.213 8.46-8.03C114.248.946 118.267.026 122.574.026c4.91 0 9.124 1.18 12.508 3.48 3.4 2.308 5.797 5.6 7.138 9.78l.35 1.1-8.168 1.747-.305-.85c-1.014-2.916-2.492-5.04-4.38-6.33-1.89-1.308-4.35-1.973-7.27-1.973-3.406 0-6.278.743-8.53 2.222-2.236 1.442-3.83 3.423-4.73 5.857-.946 2.548-1.412 5.217-1.412 7.913 0 3.505.558 6.61 1.662 9.18 1.09 2.538 2.725 4.37 5.005 5.625 2.302 1.253 4.83 1.9 7.515 1.9 3.27 0 6.044-.874 8.27-2.562 2.223-1.665 3.742-4.237 4.544-7.595l.24-1 8.32 1.912-.288 1.04c-1.38 4.9-3.884 8.692-7.47 11.277-3.566 2.583-7.977 3.89-13.09 3.89M156.265 44.85V1.8h6.416l24.794 33.807V1.8h6.005v43.05h-6.412l-24.815-33.83v33.83h-5.988z" fill="#1c5732"/><path d="M187.592 43.81h4.84V2.847h-3.9v35.936L162.154 2.846H157.3V43.81h3.914V7.84l26.378 35.97zm6.925 2.09h-7.98l-23.248-31.694V45.9h-8.07V.76h7.985l23.235 31.657V.76h8.077V45.9zM215.116 23.982c0 5.166 1.53 9.27 4.594 12.246 3.058 2.993 6.885 4.48 11.508 4.48 4.713 0 8.573-1.492 11.62-4.516 3.047-3.01 4.557-7.305 4.557-12.834 0-3.505-.645-6.568-1.942-9.186-1.302-2.6-3.206-4.633-5.7-6.07-2.52-1.44-5.318-2.157-8.436-2.157-4.42 0-8.223 1.386-11.418 4.152-3.19 2.773-4.784 7.392-4.784 13.885m-6.45-.104c0-7.133 2.104-12.728 6.332-16.776 4.193-4.044 9.642-6.063 16.29-6.063 4.355 0 8.285.955 11.79 2.85 3.5 1.89 6.172 4.545 8.003 7.944 1.84 3.39 2.755 7.25 2.755 11.558 0 4.35-.962 8.266-2.887 11.713-1.944 3.44-4.684 6.05-8.222 7.82-3.544 1.782-7.375 2.654-11.474 2.654-4.445 0-8.423-.967-11.92-2.93-3.49-1.943-6.15-4.625-7.958-8.016-1.81-3.396-2.708-6.97-2.708-10.756" fill="#1c5732"/><path d="M231.317 6.98c-4.138 0-7.75 1.315-10.732 3.9-2.935 2.558-4.42 6.95-4.42 13.102 0 4.88 1.432 8.737 4.263 11.507 2.886 2.82 6.416 4.188 10.79 4.188 4.46 0 8.015-1.392 10.885-4.218 2.816-2.807 4.25-6.87 4.25-12.102 0-3.32-.617-6.256-1.84-8.722-1.212-2.41-2.985-4.302-5.285-5.614-2.324-1.355-4.99-2.043-7.91-2.043m-.1 34.773c-4.874 0-8.993-1.612-12.232-4.754-3.26-3.192-4.91-7.574-4.91-13.018 0-6.766 1.73-11.7 5.144-14.677 3.37-2.916 7.445-4.4 12.097-4.4 3.283 0 6.293.767 8.94 2.29 2.68 1.535 4.742 3.733 6.12 6.525 1.363 2.747 2.047 5.98 2.047 9.638 0 5.79-1.628 10.37-4.86 13.578-3.218 3.2-7.377 4.817-12.346 4.817m.07-39.68c-6.36 0-11.594 1.946-15.578 5.782-3.98 3.812-5.995 9.21-5.995 16.023 0 3.6.867 7.04 2.594 10.26 1.693 3.2 4.23 5.762 7.533 7.607 3.322 1.863 7.167 2.788 11.41 2.788 3.924 0 7.622-.85 11.014-2.54 3.326-1.663 5.94-4.16 7.76-7.395 1.837-3.28 2.776-7.044 2.776-11.206 0-4.11-.89-7.836-2.633-11.073-1.732-3.2-4.285-5.738-7.596-7.51-3.312-1.822-7.124-2.737-11.286-2.737m-.036 44.57c-4.602 0-8.79-1.04-12.428-3.09-3.652-2.035-6.474-4.88-8.375-8.433-1.868-3.53-2.812-7.298-2.812-11.242 0-7.402 2.212-13.295 6.628-17.532C218.656 2.138 224.376 0 231.288 0c4.51 0 8.643.99 12.295 2.97 3.657 1.994 6.488 4.806 8.418 8.354 1.907 3.544 2.87 7.604 2.87 12.068 0 4.524-1.006 8.643-3.02 12.216-2.03 3.623-4.94 6.386-8.668 8.263-3.67 1.827-7.676 2.772-11.93 2.772M266.352 31.02l5.906-.46c.28 2.15.915 3.92 1.96 5.292 1.013 1.372 2.593 2.5 4.74 3.365 2.155.838 4.56 1.263 7.247 1.263 2.387 0 4.496-.317 6.312-.976 1.826-.633 3.184-1.53 4.078-2.652.896-1.128 1.338-2.35 1.338-3.69 0-1.34-.425-2.528-1.288-3.542-.857-1.015-2.278-1.846-4.246-2.53-1.274-.446-4.08-1.137-8.412-2.103-4.34-.935-7.38-1.85-9.116-2.69-2.254-1.076-3.94-2.4-5.04-4.006-1.115-1.59-1.673-3.37-1.673-5.357 0-2.172.682-4.205 2.037-6.097 1.353-1.877 3.34-3.316 5.926-4.297 2.59-.977 5.485-1.472 8.676-1.472 3.49 0 6.57.51 9.246 1.53 2.674 1.045 4.747 2.555 6.172 4.55 1.452 1.99 2.212 4.26 2.316 6.79l-5.983.41c-.33-2.727-1.41-4.785-3.265-6.176-1.862-1.39-4.613-2.085-8.242-2.085-3.778 0-6.534.624-8.266 1.887-1.724 1.273-2.59 2.787-2.59 4.573 0 1.54.614 2.82 1.842 3.82 1.192 1.006 4.34 2.023 9.424 3.06 5.082 1.055 8.558 1.97 10.45 2.762 2.74 1.144 4.78 2.613 6.096 4.372 1.302 1.78 1.962 3.835 1.962 6.133 0 2.294-.722 4.46-2.155 6.473-1.454 2.024-3.52 3.6-6.21 4.737-2.69 1.123-5.727 1.674-9.104 1.674-4.266 0-7.86-.556-10.733-1.7-2.893-1.122-5.166-2.835-6.8-5.113-1.647-2.287-2.504-4.865-2.608-7.746" fill="#1c5732"/><path d="M267.46 31.978c.237 2.264 1.015 4.336 2.33 6.177 1.535 2.104 3.66 3.698 6.347 4.768 2.754 1.068 6.247 1.61 10.355 1.61 3.228 0 6.148-.532 8.704-1.595 2.507-1.044 4.44-2.515 5.746-4.368 1.312-1.835 1.97-3.82 1.97-5.874 0-2.114-.57-3.9-1.757-5.5-1.193-1.614-3.09-2.98-5.653-4.058-1.816-.747-5.268-1.648-10.27-2.682-5.368-1.104-8.496-2.16-9.866-3.282-1.47-1.2-2.212-2.757-2.212-4.63 0-2.127 1.02-3.943 3.014-5.395 1.916-1.407 4.83-2.105 8.875-2.105 3.84 0 6.826.778 8.856 2.292 1.854 1.392 3.042 3.373 3.528 5.902l3.983-.274c-.226-1.91-.924-3.662-2.033-5.218-1.312-1.807-3.227-3.222-5.703-4.176-2.55-.97-5.527-1.467-8.875-1.467-3.04 0-5.842.47-8.305 1.416-2.397.887-4.232 2.223-5.455 3.92-1.24 1.724-1.843 3.52-1.843 5.492 0 1.785.495 3.34 1.48 4.77 1 1.43 2.56 2.67 4.64 3.66 1.668.812 4.65 1.68 8.883 2.62 4.43.958 7.223 1.656 8.54 2.112 2.163.76 3.717 1.69 4.697 2.86 1.015 1.203 1.534 2.614 1.534 4.208 0 1.568-.523 3.03-1.557 4.33-1.014 1.29-2.54 2.293-4.54 2.996-1.936.682-4.163 1.034-6.668 1.034-2.802 0-5.375-.45-7.633-1.357-2.32-.92-4.082-2.167-5.2-3.708-.962-1.29-1.63-2.894-1.982-4.776l-3.93.298zm19.032 14.663c-4.39 0-8.118-.608-11.126-1.792-3.07-1.203-5.5-3.048-7.263-5.468-1.75-2.462-2.696-5.264-2.78-8.332l-.027-.98 7.863-.62.127.97c.263 1.97.845 3.59 1.756 4.807.896 1.232 2.343 2.232 4.297 3.014 2.015.792 4.317 1.193 6.865 1.193 2.263 0 4.263-.307 5.96-.91 1.64-.57 2.852-1.36 3.608-2.317.75-.935 1.114-1.94 1.114-3.044s-.336-2.04-1.034-2.862c-.727-.85-2.01-1.6-3.798-2.218-1.23-.44-4.014-1.147-8.295-2.077-4.468-.97-7.514-1.877-9.345-2.764-2.4-1.146-4.237-2.617-5.44-4.36-1.227-1.757-1.85-3.762-1.85-5.948 0-2.387.756-4.638 2.217-6.703 1.47-2.045 3.628-3.63 6.418-4.668 2.694-1.02 5.732-1.54 9.04-1.54 3.598 0 6.85.535 9.632 1.62 2.846 1.09 5.083 2.732 6.63 4.903 1.557 2.145 2.4 4.614 2.508 7.34l.053 1.01-7.997.55-.114-.974c-.283-2.458-1.227-4.24-2.858-5.45-1.66-1.257-4.227-1.885-7.61-1.885-3.535 0-6.105.565-7.653 1.688-1.45 1.065-2.144 2.288-2.144 3.722 0 1.227.466 2.218 1.432 3.01.737.623 2.894 1.594 8.98 2.86 5.194 1.07 8.67 1.99 10.64 2.807 2.922 1.217 5.113 2.83 6.523 4.732 1.44 1.952 2.18 4.208 2.18 6.742 0 2.495-.792 4.882-2.355 7.077-1.536 2.174-3.792 3.887-6.643 5.09-2.81 1.17-6.01 1.778-9.51 1.778M368.574 44.85V1.8h5.944v37.97h22.122v5.08h-28.066z" fill="#1c5732"/><path d="M369.616 43.81h25.992v-2.99H373.48V2.846h-3.864V43.81zm28.076 2.09h-30.15V.76h8.03V38.73h22.12V45.9z" fill="#1c5732"/><path d="M312.37 25.222h7.722l6.573-10.316c.302-.488.857-.766 1.44-.732.59.055 1.084.425 1.306.956l5.555 13.037 6.628-17.008c.22-.6.797-.99 1.428-1 .662-.015 1.213.366 1.47.956l6.123 14.616h7.497c.278 0 .55.08.773.222.034-.52.085-1.024.085-1.548 0-13.107-10.63-23.73-23.735-23.73-13.102 0-23.72 10.623-23.72 23.73 0 .35.035.698.05 1.043.24-.133.51-.228.807-.228M358.803 27.067c.03-.18.034-.367.05-.555-.016.188-.02.376-.05.555" fill="#e2251d"/><path d="M358.11 28.86h-8.55c-.613 0-1.188-.377-1.424-.957l-5.04-12.022-6.642 17c-.217.598-.787.985-1.425.99h-.023c-.623 0-1.19-.367-1.444-.947l-5.87-13.84-5.43 8.56c-.292.44-.788.712-1.317.712h-8.577c-.18 0-.354-.048-.518-.094 1.843 11.262 11.6 19.88 23.38 19.88 11.62 0 21.254-8.345 23.312-19.35-.137.026-.287.07-.435.07" fill="#e2251d"/></svg>