<svg xmlns="http://www.w3.org/2000/svg" width="400" height="273.348"><path d="M365.067 269.997h3.17v3.122h-3.17v-3.123zm-.118-9.604h3.39v2.905l-.653 5.816h-2.1l-.638-5.816v-2.905zm-13.993 2.89v6.943h.866c.748 0 1.264-.086 1.577-.27.313-.18.558-.506.733-.96.184-.45.268-1.185.268-2.207 0-1.34-.187-2.27-.588-2.766-.4-.495-1.053-.743-1.975-.743h-.88zm-3.54-2.89h5.266c1.03 0 1.866.164 2.505.474.636.315 1.163.754 1.58 1.34.417.59.718 1.268.905 2.043.187.778.287 1.602.287 2.464 0 1.36-.138 2.414-.418 3.166-.28.745-.663 1.37-1.163 1.878-.496.5-1.03.847-1.598 1.013-.78.227-1.476.35-2.1.35h-5.264v-12.727zm-6.183 7.88l-1.265-4.583-1.26 4.584h2.524zm.738 2.747h-4.032l-.546 2.1h-3.62l4.31-12.727h3.85l4.31 12.726h-3.707l-.565-2.1zm-15.203-7.738v6.944h.86c.74 0 1.264-.086 1.577-.27.313-.18.558-.506.73-.96.173-.45.265-1.185.265-2.207 0-1.34-.195-2.27-.59-2.766-.395-.495-1.056-.743-1.96-.743h-.884zm-3.545-2.89h5.258c1.034 0 1.866.165 2.506.475.636.315 1.166.754 1.582 1.34.413.59.717 1.268.908 2.043.184.778.275 1.602.275 2.464 0 1.36-.13 2.414-.415 3.166-.28.745-.658 1.37-1.16 1.878-.49.5-1.023.847-1.588 1.013-.78.227-1.485.35-2.11.35h-5.257v-12.727zm-6.13 0h3.538v12.727h-3.538v-12.727zm-8.985 5.157h1.49c.16 0 .474-.057.934-.165.24-.058.434-.19.58-.403.15-.222.217-.46.217-.74 0-.405-.11-.722-.35-.944-.238-.22-.673-.33-1.318-.33h-1.555v2.58zm-3.56 7.57v-12.727h5.898c1.102 0 1.938.112 2.51.315.58.213 1.044.603 1.4 1.17.357.56.533 1.245.533 2.052 0 .704-.137 1.316-.41 1.83-.267.508-.642.924-1.114 1.246-.302.198-.723.37-1.242.495.414.162.726.318.916.477.13.105.32.32.57.666.252.338.413.598.497.79l1.713 3.686h-4l-1.886-3.89c-.245-.5-.458-.833-.647-.984-.252-.194-.544-.287-.86-.287h-.317v5.16h-3.56zm-5.917-12.727h3.533v7.59c0 .75-.108 1.454-.316 2.13-.212.664-.548 1.252-.987 1.752-.458.507-.93.85-1.42 1.055-.696.28-1.52.428-2.492.428-.547 0-1.16-.054-1.815-.133-.658-.09-1.205-.26-1.646-.517-.445-.263-.85-.63-1.223-1.1-.363-.476-.616-.964-.75-1.47-.21-.804-.326-1.52-.326-2.146v-7.59h3.53v7.772c0 .693.177 1.24.522 1.623.348.387.825.586 1.44.586.604 0 1.084-.19 1.432-.58.346-.375.52-.93.52-1.63v-7.77zm-15.02 8.12v-2.65h5.465v5.423c-1.044.79-1.96 1.335-2.774 1.618-.803.28-1.758.427-2.858.427-1.366 0-2.47-.255-3.327-.772-.863-.513-1.523-1.272-1.993-2.295-.472-1.023-.707-2.18-.707-3.498 0-1.396.26-2.606.765-3.635.526-1.023 1.277-1.8 2.277-2.328.77-.414 1.82-.62 3.126-.62 1.268 0 2.212.124 2.84.386.628.257 1.15.64 1.57 1.177.41.532.72 1.22.92 2.04l-3.406.673c-.144-.48-.38-.845-.714-1.102-.334-.257-.773-.382-1.282-.382-.78 0-1.4.3-1.863.905-.456.592-.69 1.536-.69 2.834 0 1.378.234 2.365.697 2.947.47.594 1.125.893 1.952.893.397 0 .775-.068 1.13-.197.367-.126.777-.346 1.24-.64v-1.204h-2.37zm-17.315-8.12h9.478v2.718h-5.94v2.025h5.51v2.588h-5.51v2.515h6.12v2.88h-9.658v-12.725zm-12.158 8.51l3.362-.226c.073.6.227 1.065.444 1.39.362.51.885.768 1.566.768.5 0 .895-.13 1.163-.397.278-.264.413-.568.413-.918 0-.322-.135-.616-.39-.878-.26-.264-.873-.508-1.816-.742-1.548-.38-2.66-.894-3.32-1.543-.66-.638-.995-1.457-.995-2.45 0-.656.17-1.28.51-1.854.342-.584.85-1.04 1.533-1.373.69-.332 1.635-.497 2.82-.497 1.462 0 2.586.3 3.347.908.77.6 1.228 1.56 1.375 2.876l-3.34.228c-.085-.58-.27-.995-.557-1.26-.28-.25-.677-.38-1.175-.38-.413 0-.72.094-.93.283-.21.194-.307.437-.307.713 0 .205.08.385.254.548.16.155.566.313 1.192.47 1.54.366 2.642.742 3.314 1.12.668.386 1.163.844 1.464 1.41.308.557.455 1.192.455 1.883 0 .813-.203 1.572-.61 2.257-.405.68-.975 1.204-1.704 1.56-.725.36-1.647.534-2.76.534-1.943 0-3.293-.41-4.05-1.244-.742-.836-1.167-1.893-1.26-3.182zm-18.318-8.51h3.925l2.31 4.304 2.323-4.304h3.896l-4.452 7.4v5.326h-3.545v-5.327l-4.458-7.4zm-13.034 2.89v6.943h.857c.752 0 1.274-.086 1.588-.27.308-.18.546-.506.733-.96.18-.45.26-1.185.26-2.207 0-1.34-.19-2.27-.597-2.766-.393-.495-1.044-.743-1.962-.743h-.88zm-3.54-2.89h5.256c1.03 0 1.868.164 2.508.474.64.315 1.172.754 1.588 1.34.413.59.714 1.268.903 2.043.19.778.28 1.602.28 2.464 0 1.36-.144 2.414-.425 3.166-.273.745-.665 1.37-1.155 1.878-.49.5-1.026.847-1.586 1.013-.782.227-1.485.35-2.113.35h-5.256v-12.727zm-5.924 0h3.533v7.59c0 .75-.112 1.454-.315 2.13-.215.664-.55 1.252-.99 1.752-.453.507-.927.85-1.427 1.055-.686.28-1.506.428-2.47.428-.563 0-1.17-.054-1.824-.133-.662-.09-1.21-.26-1.657-.517-.44-.263-.85-.63-1.207-1.1-.37-.476-.623-.964-.763-1.47-.218-.804-.318-1.52-.318-2.146v-7.59h3.53v7.772c0 .693.17 1.24.51 1.623.348.387.828.586 1.443.586.607 0 1.092-.19 1.44-.58.346-.375.516-.93.516-1.63v-7.77zm-19.805 0h10.752v3.145h-3.606v9.58h-3.544v-9.58h-3.603v-3.145zm-5.28 0h3.54v12.726h-3.54v-12.727zm-12.502 0h10.752v3.145h-3.607v9.58h-3.533v-9.58h-3.612v-3.145zm-4.016 7.53l3.096 1.04c-.2.96-.53 1.777-.978 2.417-.45.653-1.005 1.14-1.665 1.473-.663.326-1.513.495-2.54.495-1.245 0-2.256-.206-3.048-.603-.786-.404-1.47-1.116-2.045-2.127-.563-1.01-.853-2.304-.853-3.893 0-2.094.5-3.72 1.506-4.847 1.01-1.132 2.433-1.695 4.275-1.695 1.45 0 2.576.322 3.403.97.83.648 1.44 1.643 1.837 2.983l-3.126.775c-.1-.388-.222-.67-.344-.846-.19-.304-.44-.535-.723-.696-.285-.163-.598-.243-.955-.243-.808 0-1.417.36-1.847 1.07-.32.532-.488 1.372-.488 2.507 0 1.413.203 2.384.584 2.905.38.52.923.785 1.628.785.67 0 1.188-.208 1.534-.633.343-.42.598-1.03.75-1.836zm-13.478.35l-1.26-4.583-1.26 4.584h2.52zm.752 2.747h-4.035l-.555 2.1h-3.616l4.305-12.727h3.862l4.303 12.726h-3.703l-.56-2.1zm-20.28-10.627h3.896l2.03 3.923 1.965-3.923h3.86l-3.56 6.162 3.896 6.564h-3.972l-2.262-4.092-2.264 4.09h-3.947l3.947-6.626-3.59-6.1zm-10.768 0h9.482v2.718h-5.94v2.025h5.5v2.588h-5.5v2.515h6.113v2.88h-9.655v-12.725zm-16.898 0h9.49v2.718h-5.937v2.025h5.507v2.588h-5.507v2.515h6.11v2.88h-9.663v-12.725zm-8.848 2.888v6.946h.87c.746 0 1.267-.086 1.578-.27.315-.18.558-.506.737-.96.178-.45.267-1.185.267-2.208 0-1.338-.203-2.267-.596-2.764-.394-.495-1.048-.743-1.97-.743h-.886zm-3.537-2.887h5.26c1.04 0 1.873.164 2.51.474.643.315 1.164.754 1.582 1.34.415.588.717 1.268.905 2.043.185.778.278 1.602.278 2.464 0 1.36-.14 2.414-.408 3.166-.288.745-.67 1.37-1.17 1.878-.49.5-1.02.847-1.59 1.013-.77.227-1.48.35-2.106.35h-5.26v-12.727zm-15.607 6.387c0 1.288.2 2.208.644 2.77.42.564 1.007.84 1.75.84.763 0 1.345-.27 1.764-.825.423-.544.63-1.537.63-2.96 0-1.19-.22-2.067-.655-2.616-.43-.552-1.024-.837-1.77-.837-.71 0-1.28.287-1.718.852-.434.563-.644 1.485-.644 2.775zm-3.55-.008c0-2.078.53-3.703 1.568-4.852 1.04-1.163 2.498-1.735 4.352-1.735 1.903 0 3.376.563 4.41 1.712 1.02 1.125 1.542 2.72 1.542 4.765 0 1.49-.224 2.707-.678 3.66-.448.952-1.1 1.69-1.95 2.222-.86.525-1.91.79-3.184.79-1.29 0-2.36-.225-3.204-.685-.85-.46-1.538-1.178-2.064-2.175-.523-.983-.792-2.223-.792-3.703zm-9.948-6.377h3.542v9.588h5.524v3.138H69.56v-12.725zm-10.223 6.386c0 1.29.21 2.21.642 2.77.42.566 1.008.843 1.75.843.76 0 1.352-.27 1.765-.826.418-.544.627-1.537.627-2.96 0-1.19-.214-2.067-.648-2.616-.443-.55-1.032-.835-1.774-.835-.712 0-1.287.287-1.716.852-.437.563-.647 1.485-.647 2.774zm-3.543-.006c0-2.078.528-3.703 1.563-4.852 1.037-1.163 2.494-1.735 4.354-1.735 1.904 0 3.37.563 4.403 1.712 1.03 1.124 1.548 2.72 1.548 4.764 0 1.49-.228 2.706-.67 3.66-.457.952-1.103 1.69-1.95 2.222-.86.525-1.918.79-3.193.79-1.293 0-2.36-.225-3.202-.685-.85-.457-1.534-1.176-2.06-2.173-.524-.983-.79-2.223-.79-3.703zm-8.42 3.615h1.804c.616 0 1.043-.123 1.293-.36.248-.244.372-.56.372-.968 0-.38-.114-.68-.367-.908-.252-.227-.68-.343-1.31-.343h-1.79v2.58zm0-5h1.537c.557 0 .937-.11 1.16-.31.22-.216.323-.52.323-.92 0-.373-.104-.657-.324-.867-.222-.206-.596-.316-1.135-.316h-1.56v2.412zm-3.567-4.993h6.622c1.106 0 1.95.315 2.542.918.583.607.89 1.356.89 2.255 0 .755-.213 1.4-.638 1.93-.282.363-.694.644-1.228.854.812.224 1.43.602 1.812 1.134.383.537.586 1.205.586 2.01 0 .666-.145 1.257-.414 1.79-.287.52-.654.94-1.137 1.244-.294.187-.74.33-1.342.406-.803.126-1.33.184-1.583.184h-6.11v-12.725zm-15.147 0h4.654l1.793 7.752 1.793-7.753h4.64v12.725h-2.896v-9.697l-2.23 9.697h-2.622l-2.237-9.697v9.697H28.66v-12.725zm-6.045 0h3.544v12.725h-3.545v-12.725zm-12.308 8.51l3.36-.226c.077.6.228 1.066.446 1.39.367.512.894.77 1.562.77.507 0 .897-.132 1.165-.398.278-.264.414-.568.414-.918 0-.322-.132-.616-.388-.878-.262-.264-.866-.508-1.815-.742-1.55-.38-2.66-.895-3.32-1.543-.66-.637-.996-1.457-.996-2.45 0-.655.168-1.28.514-1.853.34-.584.85-1.04 1.54-1.373.68-.332 1.626-.497 2.817-.497 1.46 0 2.578.3 3.34.908.772.6 1.225 1.56 1.374 2.874l-3.333.228c-.093-.58-.28-.995-.565-1.26-.282-.25-.677-.38-1.174-.38-.41 0-.726.094-.922.283-.218.195-.316.438-.316.714 0 .205.09.385.255.548.168.154.562.313 1.19.47 1.544.366 2.65.742 3.323 1.12.66.386 1.156.843 1.452 1.41.31.557.468 1.192.468 1.883 0 .812-.21 1.57-.617 2.255-.398.68-.972 1.205-1.7 1.562-.732.357-1.647.533-2.76.533-1.946 0-3.3-.41-4.045-1.245-.743-.836-1.175-1.894-1.268-3.182"/><path d="M165.42 73.518c18.12-2.354 30.76-.685 49.218-2.354 31.56-2.856 44.58-9.225 67.437-12.542l41.714-.852c7.927-2.862 8.39-1.045 14.525-6.998-10.636-4.205-12.09-13.276-10.232-20.557 8.462-3.698 13.128-1.83 17.312.74 10.14 6.223 10.134 5.81 11.768 7.727l6.046-.623c-13.75-6.05-30.582-15.39-27.305-34.162.104-2.82 7.048-7.59 7.342.943-.565.758-2.116 4.648-.535 7.356l2.062 1.16 1.497-4.517c2.866-3.322 7.3-2.736 5.084 4.697l-1.474 5.25.82 2.252 3.36.765-.057-2.496c2.827-9.124 7.52.995 6.155 1.958l-.57 6.958c16.952 4.65 13.532 23.47 33.834 27.814-1.317-2.393 23.786 19.644-16.205 18.276-6.74 3.426-16.448 1.707-23.12 3.638-18.98 5.51-36.492 13.725-52.342 24.987l40.573 6.945c10.26 8.348 3.953 15.808-2.232 20.19-15.21 10.75-60.345 9.777-80.19 7.846-9.376-.92-18.253.07-16.716-4.28 1.267-3.595 9.55-5.46 4.034-7.01-13.372-3.765-47.848-8.085-62.374-9-8.147 9.884-37.81 11.016-62.762 16.926-16.305.79-49.065 25.61-71.388 34.71-1.223 1.146-5.676-1.097-8.218.672-7.876 5.45-31.88 5.856-23.974-.65 5.048-4.165 8.534-8.59 10.463-13.273 3.93-.76 9.526 1.627 16.565-1.107 16.69-6.46 40.942-20.826 49.437-39.62 31.877-4.252 44.072-21.038 55.038-30.42l1.457-1.24c-.547.453-19-.86-26.386-3.12-2.46-.756-5.48-4.86-3.132-5.92l12.592-5.685c10.634-4.796 20.338 2.875 28.09 5.165.908.267 1.83-.49 2.793-.55" fill="#be0027" fill-rule="evenodd"/><path d="M170.918 75.9c17.855-.56 28.144 1.447 46.326-.15 31.1-2.716 42.63-9.62 65.15-12.782l42.42.027c7.81-2.725 14.818-6.784 20.87-12.445-10.483-4.012-14.812-9.485-12.982-16.427 4.737-2 5.95 2.377 8.922 3.462 1.54 2.604-.668 5.198 4.612 7.804l4.11 2.743c-17.058-25.022 4.13-2.987 6.198-4.486 16.714-6.192 14.95 13.55 34.955 17.697-1.287-2.286 13.03 11.255-14.43 8.09-7.027 5.308-20.607 3.89-27.4 4.584-9.74 1.004-28.426 10.727-53.5 27.686l-11.188-.114-6.087-2.214c9.585 7.832 17.87 8.55 29.986 11.313l24.592 2.068c2.088.178 3.006.07 4.612 1.473 6.95 6.084 2.07 12-8.24 15.53-17.95 2.44-41.15 5.547-49.667 6.42-22.45 2.307-17.56-8.19-9.053-8.453 12.73-.4 30.742-2.393 55.925-4.29l-.234-1.893c-80.617 8.492-88.95-3.965-140.466-7.114 1.194-3.3 5.68-6.596 3.587-9.887-11.477 20.915-46.908 20.07-71.997 25.83-16.064.752-43.342 24.58-65.335 33.245-10.79 9.742-26.208 1.89-5.564-4.65 18.898-11.26 35.374-12.846 50.974-39.504 42.116-6.386 57.613-42.684 72.905-43.566" fill="#fff" fill-rule="evenodd"/><path d="M370.753 53.205h1.387c.628.155 1.254.465 1.873.465l1.083.77c0 .468-.16 1.09-.16 1.558 0 .77-.62.308-.77.62-.31.615-.935 1.087-1.56 1.087-1.077 0-3.256.152-4.337 0-.315 0-1.56-.152-1.715-.152-.314-.166-1.237 0-1.237-.474 0-.773-.31-1.392-.31-2.172 0-.157 0-1.703.157-1.703.93-.464 3.87-.313 5.585 0" fill="#be0027" fill-rule="evenodd"/><path d="M138.553 71.388c2.984 0 4.124.915 7.334.915 2.062 0 10.28 2.75 11.696 4.7 1.833 2.525 1.373 3.67-2.865 3.67-3.215 0-6.244-.108-9.174-.69-2.29-.455-10.893-2.636-11.808-3.558-.34-.33-.577-2.86.12-3.545.452-.46 4.466-1.258 4.697-1.492" fill="#fff" fill-rule="evenodd"/><path d="M28.055 178.77h319.68c15.43 0 28.055 11.548 28.055 25.66v18.975c0 14.115-12.624 25.666-28.055 25.666H28.055C12.625 249.07 0 237.52 0 223.406V204.43c0-14.112 12.625-25.66 28.055-25.66" fill="#381778" fill-rule="evenodd"/><path d="M32.332 181.226H343.47c15.012 0 27.3 10.74 27.3 23.87v17.646c0 13.125-12.288 23.863-27.3 23.863H32.33c-15.032 0-27.312-10.738-27.312-23.863v-17.646c0-13.13 12.28-23.87 27.312-23.87" fill="#fff" fill-rule="evenodd"/><path d="M36.507 186.512h302.775c14.62 0 26.575 9 26.575 20v14.8c0 11.005-11.955 20.007-26.575 20.007H36.507c-14.61 0-26.57-9.003-26.57-20.008v-14.8c0-11 11.96-20 26.57-20" fill="#381778" fill-rule="evenodd"/><path d="M297.128 220.13l12.37-.678c-.35 1.756-.257 3.09.23 4.013.8 1.497 2.432 2.232 4.874 2.232 1.824 0 3.344-.378 4.595-1.143 1.245-.757 2.037-1.64 2.375-2.644.318-.952.15-1.812-.53-2.56-.686-.76-2.62-1.467-5.812-2.138-5.207-1.118-8.688-2.603-10.44-4.462-1.767-1.854-2.17-4.22-1.186-7.098.647-1.9 1.868-3.69 3.662-5.363 1.802-1.683 4.1-3 6.902-3.973 2.792-.953 6.34-1.444 10.638-1.444 5.275 0 9 .872 11.17 2.623 2.172 1.756 2.863 4.534 2.1 8.35l-12.23.625c.248-1.652-.04-2.86-.788-3.613-.763-.75-2.052-1.126-3.848-1.126-1.487 0-2.694.275-3.636.847-.94.55-1.555 1.24-1.823 2.045-.202.58-.075 1.102.384 1.576.444.488 1.712.934 3.826 1.347 5.205 1.077 8.83 2.167 10.86 3.263 2.046 1.092 3.342 2.447 3.877 4.076.546 1.616.493 3.435-.19 5.455-.814 2.355-2.29 4.526-4.418 6.513-2.15 1.997-4.704 3.51-7.69 4.537-2.973 1.025-6.46 1.54-10.456 1.54-7.017 0-11.472-1.194-13.345-3.61-1.895-2.413-2.383-5.476-1.472-9.19zm-10.565-24.63h12.733l-7.47 21.95c-.743 2.172-1.82 4.22-3.24 6.155-1.414 1.93-3.18 3.624-5.294 5.077-2.12 1.452-4.164 2.458-6.158 3.054-2.753.815-5.856 1.224-9.337 1.224-2.01 0-4.16-.124-6.438-.374-2.29-.255-4.108-.754-5.45-1.5-1.34-.742-2.43-1.8-3.298-3.177-.855-1.374-1.284-2.79-1.268-4.24 0-2.34.32-4.414.925-6.22l7.466-21.95h12.738l-7.652 22.467c-.68 2.012-.59 3.582.266 4.704.86 1.134 2.398 1.694 4.623 1.694 2.198 0 4.106-.553 5.73-1.66 1.617-1.106 2.785-2.69 3.48-4.737l7.643-22.468zm-67.136 28.9h6.5c2.198 0 3.868-.348 4.995-1.04 1.14-.693 1.908-1.63 2.31-2.8.362-1.092.224-1.97-.442-2.62-.672-.667-2.117-1.003-4.352-1.003h-6.48l-2.53 7.462zm4.915-14.46h5.54c1.99 0 3.485-.31 4.475-.916.985-.622 1.677-1.502 2.06-2.644.37-1.074.275-1.922-.306-2.512-.58-.614-1.83-.913-3.763-.913h-5.628l-2.378 6.984zm-7.95-14.44h23.878c3.976 0 6.73.887 8.25 2.64 1.545 1.756 1.864 3.937.985 6.52-.738 2.176-2.132 4.053-4.187 5.61-1.37 1.035-3.13 1.855-5.284 2.457 2.746.626 4.553 1.73 5.426 3.264.87 1.563.908 3.508.112 5.838-.65 1.918-1.727 3.636-3.238 5.154-1.515 1.527-3.286 2.725-5.317 3.617-1.256.545-2.993.958-5.25 1.204-2.98.33-4.952.504-5.892.504h-22.003l12.52-36.81zm-49.114 22.775l-.065-13.237-9.04 13.237h9.105zm-.035 7.955h-14.535l-4.063 6.078H135.61l28.033-36.81h13.905l2.996 36.81h-13.352l.05-6.078zm-39.713-8.964l10.145 3.015c-1.693 2.803-3.663 5.123-5.92 7.003-2.252 1.882-4.746 3.293-7.46 4.236-2.717.968-5.925 1.44-9.612 1.44-4.49 0-7.965-.587-10.393-1.743-2.447-1.162-4.222-3.217-5.294-6.145-1.045-2.935-.812-6.673.743-11.248 2.072-6.09 5.474-10.77 10.22-14.03 4.744-3.28 10.446-4.92 17.082-4.92 5.198 0 8.962.936 11.303 2.808 2.347 1.885 3.57 4.755 3.692 8.645l-12.022 2.23c-.008-1.115-.143-1.943-.398-2.462-.41-.87-1.067-1.536-1.935-2.008-.87-.47-1.95-.707-3.227-.707-2.882 0-5.452 1.04-7.696 3.12-1.692 1.538-3.1 3.957-4.22 7.257-1.393 4.08-1.642 6.874-.774 8.39.878 1.524 2.57 2.278 5.08 2.278 2.44 0 4.496-.614 6.154-1.84 1.67-1.212 3.173-2.988 4.53-5.32zM85.533 195.5h12.78l-12.518 36.808h-12.78l12.518-36.81zm-45.025 0H79.26l-3.088 9.092H63.157l-9.417 27.716H40.986l9.427-27.716H37.416l3.092-9.093" fill="#fff"/></svg>