<?xml version="1.0" encoding="UTF-8" standalone="no"?>
<!-- Created with Inkscape (http://www.inkscape.org/) -->

<svg
   xmlns:dc="http://purl.org/dc/elements/1.1/"
   xmlns:cc="http://creativecommons.org/ns#"
   xmlns:rdf="http://www.w3.org/1999/02/22-rdf-syntax-ns#"
   xmlns:svg="http://www.w3.org/2000/svg"
   xmlns="http://www.w3.org/2000/svg"
   xmlns:sodipodi="http://sodipodi.sourceforge.net/DTD/sodipodi-0.dtd"
   xmlns:inkscape="http://www.inkscape.org/namespaces/inkscape"
   width="400"
   height="161.80267"
   id="svg2"
   version="1.1"
   inkscape:version="0.92.1 r15371"
   sodipodi:docname="ubuntu-nicaragua.svg">
  <defs
     id="defs4">
    <inkscape:perspective
       sodipodi:type="inkscape:persp3d"
       inkscape:vp_x="0 : 526.18109 : 1"
       inkscape:vp_y="0 : 1000 : 0"
       inkscape:vp_z="744.09448 : 526.18109 : 1"
       inkscape:persp3d-origin="372.04724 : 350.78739 : 1"
       id="perspective10" />
    <inkscape:perspective
       id="perspective2824"
       inkscape:persp3d-origin="0.5 : 0.33333333 : 1"
       inkscape:vp_z="1 : 0.5 : 1"
       inkscape:vp_y="0 : 1000 : 0"
       inkscape:vp_x="0 : 0.5 : 1"
       sodipodi:type="inkscape:persp3d" />
    <inkscape:perspective
       id="perspective2881"
       inkscape:persp3d-origin="0.5 : 0.33333333 : 1"
       inkscape:vp_z="1 : 0.5 : 1"
       inkscape:vp_y="0 : 1000 : 0"
       inkscape:vp_x="0 : 0.5 : 1"
       sodipodi:type="inkscape:persp3d" />
    <clipPath
       id="clipPath20"
       clipPathUnits="userSpaceOnUse">
      <path
         id="path22"
         d="M 0,8418.9 H 11905.5 V 0 H 0 Z"
         inkscape:connector-curvature="0" />
    </clipPath>
    <inkscape:perspective
       id="perspective2923"
       inkscape:persp3d-origin="744.09375 : 350.78752 : 1"
       inkscape:vp_z="1488.1875 : 526.18127 : 1"
       inkscape:vp_y="0 : 1000 : 0"
       inkscape:vp_x="0 : 526.18127 : 1"
       sodipodi:type="inkscape:persp3d" />
    <inkscape:perspective
       id="perspective2948"
       inkscape:persp3d-origin="0.5 : 0.33333333 : 1"
       inkscape:vp_z="1 : 0.5 : 1"
       inkscape:vp_y="0 : 1000 : 0"
       inkscape:vp_x="0 : 0.5 : 1"
       sodipodi:type="inkscape:persp3d" />
    <clipPath
       id="clipPath20-9"
       clipPathUnits="userSpaceOnUse">
      <path
         id="path22-4"
         d="M 0,8418.9 H 11905.5 V 0 H 0 Z"
         inkscape:connector-curvature="0" />
    </clipPath>
    <inkscape:perspective
       id="perspective3068"
       inkscape:persp3d-origin="0.5 : 0.33333333 : 1"
       inkscape:vp_z="1 : 0.5 : 1"
       inkscape:vp_y="0 : 1000 : 0"
       inkscape:vp_x="0 : 0.5 : 1"
       sodipodi:type="inkscape:persp3d" />
    <inkscape:perspective
       id="perspective3084"
       inkscape:persp3d-origin="0.5 : 0.33333333 : 1"
       inkscape:vp_z="1 : 0.5 : 1"
       inkscape:vp_y="0 : 1000 : 0"
       inkscape:vp_x="0 : 0.5 : 1"
       sodipodi:type="inkscape:persp3d" />
    <inkscape:perspective
       id="perspective3084-1"
       inkscape:persp3d-origin="0.5 : 0.33333333 : 1"
       inkscape:vp_z="1 : 0.5 : 1"
       inkscape:vp_y="0 : 1000 : 0"
       inkscape:vp_x="0 : 0.5 : 1"
       sodipodi:type="inkscape:persp3d" />
    <inkscape:perspective
       id="perspective3115"
       inkscape:persp3d-origin="0.5 : 0.33333333 : 1"
       inkscape:vp_z="1 : 0.5 : 1"
       inkscape:vp_y="0 : 1000 : 0"
       inkscape:vp_x="0 : 0.5 : 1"
       sodipodi:type="inkscape:persp3d" />
    <inkscape:perspective
       id="perspective3135"
       inkscape:persp3d-origin="0.5 : 0.33333333 : 1"
       inkscape:vp_z="1 : 0.5 : 1"
       inkscape:vp_y="0 : 1000 : 0"
       inkscape:vp_x="0 : 0.5 : 1"
       sodipodi:type="inkscape:persp3d" />
    <inkscape:perspective
       id="perspective3151"
       inkscape:persp3d-origin="0.5 : 0.33333333 : 1"
       inkscape:vp_z="1 : 0.5 : 1"
       inkscape:vp_y="0 : 1000 : 0"
       inkscape:vp_x="0 : 0.5 : 1"
       sodipodi:type="inkscape:persp3d" />
    <inkscape:perspective
       id="perspective3947"
       inkscape:persp3d-origin="0.5 : 0.33333333 : 1"
       inkscape:vp_z="1 : 0.5 : 1"
       inkscape:vp_y="0 : 1000 : 0"
       inkscape:vp_x="0 : 0.5 : 1"
       sodipodi:type="inkscape:persp3d" />
    <inkscape:perspective
       id="perspective3970"
       inkscape:persp3d-origin="0.5 : 0.33333333 : 1"
       inkscape:vp_z="1 : 0.5 : 1"
       inkscape:vp_y="0 : 1000 : 0"
       inkscape:vp_x="0 : 0.5 : 1"
       sodipodi:type="inkscape:persp3d" />
    <inkscape:perspective
       id="perspective3984"
       inkscape:persp3d-origin="0.5 : 0.33333333 : 1"
       inkscape:vp_z="1 : 0.5 : 1"
       inkscape:vp_y="0 : 1000 : 0"
       inkscape:vp_x="0 : 0.5 : 1"
       sodipodi:type="inkscape:persp3d" />
    <inkscape:perspective
       id="perspective4006"
       inkscape:persp3d-origin="0.5 : 0.33333333 : 1"
       inkscape:vp_z="1 : 0.5 : 1"
       inkscape:vp_y="0 : 1000 : 0"
       inkscape:vp_x="0 : 0.5 : 1"
       sodipodi:type="inkscape:persp3d" />
    <inkscape:perspective
       id="perspective4037"
       inkscape:persp3d-origin="0.5 : 0.33333333 : 1"
       inkscape:vp_z="1 : 0.5 : 1"
       inkscape:vp_y="0 : 1000 : 0"
       inkscape:vp_x="0 : 0.5 : 1"
       sodipodi:type="inkscape:persp3d" />
    <inkscape:perspective
       id="perspective4059"
       inkscape:persp3d-origin="0.5 : 0.33333333 : 1"
       inkscape:vp_z="1 : 0.5 : 1"
       inkscape:vp_y="0 : 1000 : 0"
       inkscape:vp_x="0 : 0.5 : 1"
       sodipodi:type="inkscape:persp3d" />
    <inkscape:perspective
       id="perspective4081"
       inkscape:persp3d-origin="0.5 : 0.33333333 : 1"
       inkscape:vp_z="1 : 0.5 : 1"
       inkscape:vp_y="0 : 1000 : 0"
       inkscape:vp_x="0 : 0.5 : 1"
       sodipodi:type="inkscape:persp3d" />
    <inkscape:perspective
       id="perspective4213"
       inkscape:persp3d-origin="0.5 : 0.33333333 : 1"
       inkscape:vp_z="1 : 0.5 : 1"
       inkscape:vp_y="0 : 1000 : 0"
       inkscape:vp_x="0 : 0.5 : 1"
       sodipodi:type="inkscape:persp3d" />
    <inkscape:perspective
       id="perspective4332"
       inkscape:persp3d-origin="0.5 : 0.33333333 : 1"
       inkscape:vp_z="1 : 0.5 : 1"
       inkscape:vp_y="0 : 1000 : 0"
       inkscape:vp_x="0 : 0.5 : 1"
       sodipodi:type="inkscape:persp3d" />
    <inkscape:perspective
       id="perspective4411"
       inkscape:persp3d-origin="0.5 : 0.33333333 : 1"
       inkscape:vp_z="1 : 0.5 : 1"
       inkscape:vp_y="0 : 1000 : 0"
       inkscape:vp_x="0 : 0.5 : 1"
       sodipodi:type="inkscape:persp3d" />
    <inkscape:perspective
       id="perspective4427"
       inkscape:persp3d-origin="0.5 : 0.33333333 : 1"
       inkscape:vp_z="1 : 0.5 : 1"
       inkscape:vp_y="0 : 1000 : 0"
       inkscape:vp_x="0 : 0.5 : 1"
       sodipodi:type="inkscape:persp3d" />
    <inkscape:perspective
       id="perspective4486"
       inkscape:persp3d-origin="0.5 : 0.33333333 : 1"
       inkscape:vp_z="1 : 0.5 : 1"
       inkscape:vp_y="0 : 1000 : 0"
       inkscape:vp_x="0 : 0.5 : 1"
       sodipodi:type="inkscape:persp3d" />
    <inkscape:perspective
       id="perspective4565"
       inkscape:persp3d-origin="0.5 : 0.33333333 : 1"
       inkscape:vp_z="1 : 0.5 : 1"
       inkscape:vp_y="0 : 1000 : 0"
       inkscape:vp_x="0 : 0.5 : 1"
       sodipodi:type="inkscape:persp3d" />
    <inkscape:perspective
       id="perspective4710"
       inkscape:persp3d-origin="0.5 : 0.33333333 : 1"
       inkscape:vp_z="1 : 0.5 : 1"
       inkscape:vp_y="0 : 1000 : 0"
       inkscape:vp_x="0 : 0.5 : 1"
       sodipodi:type="inkscape:persp3d" />
    <inkscape:perspective
       id="perspective4798"
       inkscape:persp3d-origin="0.5 : 0.33333333 : 1"
       inkscape:vp_z="1 : 0.5 : 1"
       inkscape:vp_y="0 : 1000 : 0"
       inkscape:vp_x="0 : 0.5 : 1"
       sodipodi:type="inkscape:persp3d" />
    <inkscape:perspective
       id="perspective4798-5"
       inkscape:persp3d-origin="0.5 : 0.33333333 : 1"
       inkscape:vp_z="1 : 0.5 : 1"
       inkscape:vp_y="0 : 1000 : 0"
       inkscape:vp_x="0 : 0.5 : 1"
       sodipodi:type="inkscape:persp3d" />
    <inkscape:perspective
       id="perspective3166"
       inkscape:persp3d-origin="0.5 : 0.33333333 : 1"
       inkscape:vp_z="1 : 0.5 : 1"
       inkscape:vp_y="0 : 1000 : 0"
       inkscape:vp_x="0 : 0.5 : 1"
       sodipodi:type="inkscape:persp3d" />
    <inkscape:perspective
       id="perspective3290"
       inkscape:persp3d-origin="0.5 : 0.33333333 : 1"
       inkscape:vp_z="1 : 0.5 : 1"
       inkscape:vp_y="0 : 1000 : 0"
       inkscape:vp_x="0 : 0.5 : 1"
       sodipodi:type="inkscape:persp3d" />
    <inkscape:perspective
       id="perspective3496"
       inkscape:persp3d-origin="0.5 : 0.33333333 : 1"
       inkscape:vp_z="1 : 0.5 : 1"
       inkscape:vp_y="0 : 1000 : 0"
       inkscape:vp_x="0 : 0.5 : 1"
       sodipodi:type="inkscape:persp3d" />
    <inkscape:perspective
       id="perspective3528"
       inkscape:persp3d-origin="0.5 : 0.33333333 : 1"
       inkscape:vp_z="1 : 0.5 : 1"
       inkscape:vp_y="0 : 1000 : 0"
       inkscape:vp_x="0 : 0.5 : 1"
       sodipodi:type="inkscape:persp3d" />
    <inkscape:perspective
       id="perspective3583"
       inkscape:persp3d-origin="0.5 : 0.33333333 : 1"
       inkscape:vp_z="1 : 0.5 : 1"
       inkscape:vp_y="0 : 1000 : 0"
       inkscape:vp_x="0 : 0.5 : 1"
       sodipodi:type="inkscape:persp3d" />
    <inkscape:perspective
       id="perspective3638"
       inkscape:persp3d-origin="0.5 : 0.33333333 : 1"
       inkscape:vp_z="1 : 0.5 : 1"
       inkscape:vp_y="0 : 1000 : 0"
       inkscape:vp_x="0 : 0.5 : 1"
       sodipodi:type="inkscape:persp3d" />
    <inkscape:perspective
       id="perspective3693"
       inkscape:persp3d-origin="0.5 : 0.33333333 : 1"
       inkscape:vp_z="1 : 0.5 : 1"
       inkscape:vp_y="0 : 1000 : 0"
       inkscape:vp_x="0 : 0.5 : 1"
       sodipodi:type="inkscape:persp3d" />
    <inkscape:perspective
       id="perspective3693-6"
       inkscape:persp3d-origin="0.5 : 0.33333333 : 1"
       inkscape:vp_z="1 : 0.5 : 1"
       inkscape:vp_y="0 : 1000 : 0"
       inkscape:vp_x="0 : 0.5 : 1"
       sodipodi:type="inkscape:persp3d" />
    <inkscape:perspective
       id="perspective3863"
       inkscape:persp3d-origin="0.5 : 0.33333333 : 1"
       inkscape:vp_z="1 : 0.5 : 1"
       inkscape:vp_y="0 : 1000 : 0"
       inkscape:vp_x="0 : 0.5 : 1"
       sodipodi:type="inkscape:persp3d" />
    <inkscape:perspective
       id="perspective3885"
       inkscape:persp3d-origin="0.5 : 0.33333333 : 1"
       inkscape:vp_z="1 : 0.5 : 1"
       inkscape:vp_y="0 : 1000 : 0"
       inkscape:vp_x="0 : 0.5 : 1"
       sodipodi:type="inkscape:persp3d" />
    <inkscape:perspective
       id="perspective3907"
       inkscape:persp3d-origin="0.5 : 0.33333333 : 1"
       inkscape:vp_z="1 : 0.5 : 1"
       inkscape:vp_y="0 : 1000 : 0"
       inkscape:vp_x="0 : 0.5 : 1"
       sodipodi:type="inkscape:persp3d" />
    <inkscape:perspective
       id="perspective3923"
       inkscape:persp3d-origin="0.5 : 0.33333333 : 1"
       inkscape:vp_z="1 : 0.5 : 1"
       inkscape:vp_y="0 : 1000 : 0"
       inkscape:vp_x="0 : 0.5 : 1"
       sodipodi:type="inkscape:persp3d" />
    <inkscape:perspective
       id="perspective4615"
       inkscape:persp3d-origin="0.5 : 0.33333333 : 1"
       inkscape:vp_z="1 : 0.5 : 1"
       inkscape:vp_y="0 : 1000 : 0"
       inkscape:vp_x="0 : 0.5 : 1"
       sodipodi:type="inkscape:persp3d" />
    <inkscape:perspective
       id="perspective4718"
       inkscape:persp3d-origin="0.5 : 0.33333333 : 1"
       inkscape:vp_z="1 : 0.5 : 1"
       inkscape:vp_y="0 : 1000 : 0"
       inkscape:vp_x="0 : 0.5 : 1"
       sodipodi:type="inkscape:persp3d" />
    <inkscape:perspective
       id="perspective4935"
       inkscape:persp3d-origin="20 : 13.333333 : 1"
       inkscape:vp_z="40 : 20 : 1"
       inkscape:vp_y="0 : 1000 : 0"
       inkscape:vp_x="0 : 20 : 1"
       sodipodi:type="inkscape:persp3d" />
    <inkscape:perspective
       id="perspective4954"
       inkscape:persp3d-origin="0.5 : 0.33333333 : 1"
       inkscape:vp_z="1 : 0.5 : 1"
       inkscape:vp_y="0 : 1000 : 0"
       inkscape:vp_x="0 : 0.5 : 1"
       sodipodi:type="inkscape:persp3d" />
    <inkscape:perspective
       id="perspective4954-4"
       inkscape:persp3d-origin="0.5 : 0.33333333 : 1"
       inkscape:vp_z="1 : 0.5 : 1"
       inkscape:vp_y="0 : 1000 : 0"
       inkscape:vp_x="0 : 0.5 : 1"
       sodipodi:type="inkscape:persp3d" />
    <inkscape:perspective
       id="perspective169"
       inkscape:persp3d-origin="1395.54 : 682.66667 : 1"
       inkscape:vp_z="2791.0801 : 1024 : 1"
       inkscape:vp_y="0 : 1000 : 0"
       inkscape:vp_x="0 : 1024 : 1"
       sodipodi:type="inkscape:persp3d" />
    <inkscape:perspective
       id="perspective5190"
       inkscape:persp3d-origin="0.5 : 0.33333333 : 1"
       inkscape:vp_z="1 : 0.5 : 1"
       inkscape:vp_y="0 : 1000 : 0"
       inkscape:vp_x="0 : 0.5 : 1"
       sodipodi:type="inkscape:persp3d" />
    <inkscape:perspective
       id="perspective5452"
       inkscape:persp3d-origin="0.5 : 0.33333333 : 1"
       inkscape:vp_z="1 : 0.5 : 1"
       inkscape:vp_y="0 : 1000 : 0"
       inkscape:vp_x="0 : 0.5 : 1"
       sodipodi:type="inkscape:persp3d" />
    <inkscape:perspective
       id="perspective5558"
       inkscape:persp3d-origin="0.5 : 0.33333333 : 1"
       inkscape:vp_z="1 : 0.5 : 1"
       inkscape:vp_y="0 : 1000 : 0"
       inkscape:vp_x="0 : 0.5 : 1"
       sodipodi:type="inkscape:persp3d" />
    <inkscape:perspective
       id="perspective5665"
       inkscape:persp3d-origin="0.5 : 0.33333333 : 1"
       inkscape:vp_z="1 : 0.5 : 1"
       inkscape:vp_y="0 : 1000 : 0"
       inkscape:vp_x="0 : 0.5 : 1"
       sodipodi:type="inkscape:persp3d" />
    <inkscape:perspective
       id="perspective5715"
       inkscape:persp3d-origin="0.5 : 0.33333333 : 1"
       inkscape:vp_z="1 : 0.5 : 1"
       inkscape:vp_y="0 : 1000 : 0"
       inkscape:vp_x="0 : 0.5 : 1"
       sodipodi:type="inkscape:persp3d" />
    <inkscape:perspective
       id="perspective5737"
       inkscape:persp3d-origin="0.5 : 0.33333333 : 1"
       inkscape:vp_z="1 : 0.5 : 1"
       inkscape:vp_y="0 : 1000 : 0"
       inkscape:vp_x="0 : 0.5 : 1"
       sodipodi:type="inkscape:persp3d" />
    <inkscape:perspective
       id="perspective5759"
       inkscape:persp3d-origin="0.5 : 0.33333333 : 1"
       inkscape:vp_z="1 : 0.5 : 1"
       inkscape:vp_y="0 : 1000 : 0"
       inkscape:vp_x="0 : 0.5 : 1"
       sodipodi:type="inkscape:persp3d" />
    <inkscape:perspective
       id="perspective5781"
       inkscape:persp3d-origin="0.5 : 0.33333333 : 1"
       inkscape:vp_z="1 : 0.5 : 1"
       inkscape:vp_y="0 : 1000 : 0"
       inkscape:vp_x="0 : 0.5 : 1"
       sodipodi:type="inkscape:persp3d" />
    <inkscape:perspective
       id="perspective5803"
       inkscape:persp3d-origin="0.5 : 0.33333333 : 1"
       inkscape:vp_z="1 : 0.5 : 1"
       inkscape:vp_y="0 : 1000 : 0"
       inkscape:vp_x="0 : 0.5 : 1"
       sodipodi:type="inkscape:persp3d" />
    <inkscape:perspective
       id="perspective5825"
       inkscape:persp3d-origin="0.5 : 0.33333333 : 1"
       inkscape:vp_z="1 : 0.5 : 1"
       inkscape:vp_y="0 : 1000 : 0"
       inkscape:vp_x="0 : 0.5 : 1"
       sodipodi:type="inkscape:persp3d" />
    <inkscape:perspective
       id="perspective5847"
       inkscape:persp3d-origin="0.5 : 0.33333333 : 1"
       inkscape:vp_z="1 : 0.5 : 1"
       inkscape:vp_y="0 : 1000 : 0"
       inkscape:vp_x="0 : 0.5 : 1"
       sodipodi:type="inkscape:persp3d" />
    <inkscape:perspective
       id="perspective5869"
       inkscape:persp3d-origin="0.5 : 0.33333333 : 1"
       inkscape:vp_z="1 : 0.5 : 1"
       inkscape:vp_y="0 : 1000 : 0"
       inkscape:vp_x="0 : 0.5 : 1"
       sodipodi:type="inkscape:persp3d" />
    <inkscape:perspective
       id="perspective5891"
       inkscape:persp3d-origin="0.5 : 0.33333333 : 1"
       inkscape:vp_z="1 : 0.5 : 1"
       inkscape:vp_y="0 : 1000 : 0"
       inkscape:vp_x="0 : 0.5 : 1"
       sodipodi:type="inkscape:persp3d" />
    <inkscape:perspective
       id="perspective5913"
       inkscape:persp3d-origin="0.5 : 0.33333333 : 1"
       inkscape:vp_z="1 : 0.5 : 1"
       inkscape:vp_y="0 : 1000 : 0"
       inkscape:vp_x="0 : 0.5 : 1"
       sodipodi:type="inkscape:persp3d" />
    <inkscape:perspective
       id="perspective6061"
       inkscape:persp3d-origin="0.5 : 0.33333333 : 1"
       inkscape:vp_z="1 : 0.5 : 1"
       inkscape:vp_y="0 : 1000 : 0"
       inkscape:vp_x="0 : 0.5 : 1"
       sodipodi:type="inkscape:persp3d" />
    <inkscape:perspective
       id="perspective6111"
       inkscape:persp3d-origin="0.5 : 0.33333333 : 1"
       inkscape:vp_z="1 : 0.5 : 1"
       inkscape:vp_y="0 : 1000 : 0"
       inkscape:vp_x="0 : 0.5 : 1"
       sodipodi:type="inkscape:persp3d" />
    <inkscape:perspective
       id="perspective6313"
       inkscape:persp3d-origin="0.5 : 0.33333333 : 1"
       inkscape:vp_z="1 : 0.5 : 1"
       inkscape:vp_y="0 : 1000 : 0"
       inkscape:vp_x="0 : 0.5 : 1"
       sodipodi:type="inkscape:persp3d" />
    <inkscape:perspective
       id="perspective6335"
       inkscape:persp3d-origin="0.5 : 0.33333333 : 1"
       inkscape:vp_z="1 : 0.5 : 1"
       inkscape:vp_y="0 : 1000 : 0"
       inkscape:vp_x="0 : 0.5 : 1"
       sodipodi:type="inkscape:persp3d" />
    <inkscape:perspective
       id="perspective6512"
       inkscape:persp3d-origin="0.5 : 0.33333333 : 1"
       inkscape:vp_z="1 : 0.5 : 1"
       inkscape:vp_y="0 : 1000 : 0"
       inkscape:vp_x="0 : 0.5 : 1"
       sodipodi:type="inkscape:persp3d" />
    <inkscape:perspective
       id="perspective6534"
       inkscape:persp3d-origin="0.5 : 0.33333333 : 1"
       inkscape:vp_z="1 : 0.5 : 1"
       inkscape:vp_y="0 : 1000 : 0"
       inkscape:vp_x="0 : 0.5 : 1"
       sodipodi:type="inkscape:persp3d" />
    <inkscape:perspective
       id="perspective7116"
       inkscape:persp3d-origin="0.5 : 0.33333333 : 1"
       inkscape:vp_z="1 : 0.5 : 1"
       inkscape:vp_y="0 : 1000 : 0"
       inkscape:vp_x="0 : 0.5 : 1"
       sodipodi:type="inkscape:persp3d" />
    <inkscape:perspective
       id="perspective7797"
       inkscape:persp3d-origin="0.5 : 0.33333333 : 1"
       inkscape:vp_z="1 : 0.5 : 1"
       inkscape:vp_y="0 : 1000 : 0"
       inkscape:vp_x="0 : 0.5 : 1"
       sodipodi:type="inkscape:persp3d" />
    <inkscape:perspective
       id="perspective7897"
       inkscape:persp3d-origin="0.5 : 0.33333333 : 1"
       inkscape:vp_z="1 : 0.5 : 1"
       inkscape:vp_y="0 : 1000 : 0"
       inkscape:vp_x="0 : 0.5 : 1"
       sodipodi:type="inkscape:persp3d" />
    <inkscape:perspective
       id="perspective7911"
       inkscape:persp3d-origin="0.5 : 0.33333333 : 1"
       inkscape:vp_z="1 : 0.5 : 1"
       inkscape:vp_y="0 : 1000 : 0"
       inkscape:vp_x="0 : 0.5 : 1"
       sodipodi:type="inkscape:persp3d" />
    <inkscape:perspective
       id="perspective7933"
       inkscape:persp3d-origin="0.5 : 0.33333333 : 1"
       inkscape:vp_z="1 : 0.5 : 1"
       inkscape:vp_y="0 : 1000 : 0"
       inkscape:vp_x="0 : 0.5 : 1"
       sodipodi:type="inkscape:persp3d" />
    <inkscape:perspective
       id="perspective7963"
       inkscape:persp3d-origin="0.5 : 0.33333333 : 1"
       inkscape:vp_z="1 : 0.5 : 1"
       inkscape:vp_y="0 : 1000 : 0"
       inkscape:vp_x="0 : 0.5 : 1"
       sodipodi:type="inkscape:persp3d" />
    <inkscape:perspective
       id="perspective7987"
       inkscape:persp3d-origin="0.5 : 0.33333333 : 1"
       inkscape:vp_z="1 : 0.5 : 1"
       inkscape:vp_y="0 : 1000 : 0"
       inkscape:vp_x="0 : 0.5 : 1"
       sodipodi:type="inkscape:persp3d" />
    <inkscape:perspective
       id="perspective8018"
       inkscape:persp3d-origin="0.5 : 0.33333333 : 1"
       inkscape:vp_z="1 : 0.5 : 1"
       inkscape:vp_y="0 : 1000 : 0"
       inkscape:vp_x="0 : 0.5 : 1"
       sodipodi:type="inkscape:persp3d" />
    <inkscape:perspective
       id="perspective8040"
       inkscape:persp3d-origin="0.5 : 0.33333333 : 1"
       inkscape:vp_z="1 : 0.5 : 1"
       inkscape:vp_y="0 : 1000 : 0"
       inkscape:vp_x="0 : 0.5 : 1"
       sodipodi:type="inkscape:persp3d" />
    <inkscape:perspective
       id="perspective3237"
       inkscape:persp3d-origin="0.5 : 0.33333333 : 1"
       inkscape:vp_z="1 : 0.5 : 1"
       inkscape:vp_y="0 : 1000 : 0"
       inkscape:vp_x="0 : 0.5 : 1"
       sodipodi:type="inkscape:persp3d" />
    <inkscape:perspective
       id="perspective3422"
       inkscape:persp3d-origin="0.5 : 0.33333333 : 1"
       inkscape:vp_z="1 : 0.5 : 1"
       inkscape:vp_y="0 : 1000 : 0"
       inkscape:vp_x="0 : 0.5 : 1"
       sodipodi:type="inkscape:persp3d" />
    <inkscape:perspective
       id="perspective4274"
       inkscape:persp3d-origin="0.5 : 0.33333333 : 1"
       inkscape:vp_z="1 : 0.5 : 1"
       inkscape:vp_y="0 : 1000 : 0"
       inkscape:vp_x="0 : 0.5 : 1"
       sodipodi:type="inkscape:persp3d" />
    <inkscape:perspective
       id="perspective4769"
       inkscape:persp3d-origin="0.5 : 0.33333333 : 1"
       inkscape:vp_z="1 : 0.5 : 1"
       inkscape:vp_y="0 : 1000 : 0"
       inkscape:vp_x="0 : 0.5 : 1"
       sodipodi:type="inkscape:persp3d" />
    <inkscape:perspective
       id="perspective4769-5"
       inkscape:persp3d-origin="0.5 : 0.33333333 : 1"
       inkscape:vp_z="1 : 0.5 : 1"
       inkscape:vp_y="0 : 1000 : 0"
       inkscape:vp_x="0 : 0.5 : 1"
       sodipodi:type="inkscape:persp3d" />
    <inkscape:perspective
       id="perspective3410"
       inkscape:persp3d-origin="0.5 : 0.33333333 : 1"
       inkscape:vp_z="1 : 0.5 : 1"
       inkscape:vp_y="0 : 1000 : 0"
       inkscape:vp_x="0 : 0.5 : 1"
       sodipodi:type="inkscape:persp3d" />
  </defs>
  <sodipodi:namedview
     id="base"
     pagecolor="#ffffff"
     bordercolor="#666666"
     borderopacity="1.0"
     inkscape:pageopacity="0.0"
     inkscape:pageshadow="2"
     inkscape:zoom="0.41457675"
     inkscape:cx="616.8704"
     inkscape:cy="389.11439"
     inkscape:document-units="px"
     inkscape:current-layer="text3398"
     showgrid="false"
     inkscape:window-width="1280"
     inkscape:window-height="656"
     inkscape:window-x="0"
     inkscape:window-y="27"
     inkscape:window-maximized="1"
     showguides="true"
     inkscape:guide-bbox="true"
     fit-margin-top="0"
     fit-margin-left="0"
     fit-margin-right="0"
     fit-margin-bottom="0" />
  <metadata
     id="metadata7">
    <rdf:RDF>
      <cc:Work
         rdf:about="">
        <dc:format>image/svg+xml</dc:format>
        <dc:type
           rdf:resource="http://purl.org/dc/dcmitype/StillImage" />
        <dc:title></dc:title>
      </cc:Work>
    </rdf:RDF>
  </metadata>
  <g
     inkscape:label="Capa 1"
     inkscape:groupmode="layer"
     id="layer1"
     transform="translate(2904.8739,-1033.5824)">
    <g
       style="font-style:normal;font-weight:normal;font-size:159.80369568px;font-family:'Bitstream Vera Sans';fill:#000000;fill-opacity:1;stroke:none"
       id="text3398"
       inkscape:label="leogg">
      <g
         id="g949"
         transform="matrix(0.42674273,0,0,0.42674273,-1665.2401,685.2632)">
        <path
           d="m -1967.541,872.32518 c 0,30.97954 -25.1155,56.09629 -56.0975,56.09629 -30.9819,0 -56.0975,-25.11675 -56.0975,-56.09629 0,-30.98194 25.1156,-56.09749 56.0975,-56.09749 30.982,0 56.0975,25.11555 56.0975,56.09749"
           style="fill:#dd4814;fill-opacity:1;fill-rule:nonzero;stroke:none"
           id="path24-5-4"
           inkscape:connector-curvature="0" />
        <path
           d="m -2008.3101,845.7714 c 3.5828,2.06945 8.1608,0.84416 10.2278,-2.73904 2.0691,-3.5816 0.8426,-8.16077 -2.739,-10.23023 -3.5828,-2.06586 -8.1612,-0.83777 -10.2302,2.74383 -2.0671,3.5804 -0.8394,8.15838 2.7414,10.22544 m -15.3284,48.4301 c -3.2923,0 -6.4149,-0.7327 -9.2143,-2.0359 l -5.2044,9.32575 c 4.3467,2.15495 9.2415,3.37026 14.4187,3.37026 3.0123,0 5.9247,-0.41829 8.6933,-1.18455 0.4874,-3.0099 2.2748,-5.7797 5.1213,-7.42567 2.8453,-1.64119 6.1325,-1.80339 8.9802,-0.72791 5.5384,-5.44571 9.1428,-12.85301 9.6673,-21.10328 l -10.6745,-0.1558 c -0.9815,11.17826 -10.358,19.9383 -21.7876,19.9383 m 0,-43.75545 c 11.4296,0 20.8061,8.76244 21.79,19.93831 l 10.6721,-0.15581 c -0.5245,-8.25026 -4.1289,-15.65756 -9.6673,-21.10327 -2.8477,1.07547 -6.1373,0.91088 -8.9802,-0.72751 -2.8465,-1.64358 -4.6339,-4.41618 -5.1213,-7.42608 -2.7686,-0.76346 -5.681,-1.18175 -8.6933,-1.18175 -5.1772,0 -10.072,1.21531 -14.4187,3.36747 l 5.2044,9.32574 c 2.7994,-1.3032 5.922,-2.0359 9.2143,-2.0359 m -21.8767,21.87912 c 0,-7.4013 3.6771,-13.94087 9.3022,-17.90001 l -5.4753,-9.17113 c -6.5536,4.37982 -11.4284,11.0732 -13.4547,18.91237 2.3643,1.92963 3.8777,4.86642 3.8777,8.15877 0,3.28956 -1.5134,6.22636 -3.8777,8.15599 2.0239,7.84156 6.8987,14.53494 13.4547,18.91476 l 5.4753,-9.17313 c -5.6251,-3.95674 -9.3022,-10.49551 -9.3022,-17.89762 m 37.2075,26.54859 c -3.5832,2.06946 -4.8109,6.64743 -2.7415,10.22784 2.0667,3.582 6.6451,4.81089 10.2279,2.74143 3.5816,-2.06666 4.8109,-6.64504 2.7414,-10.22784 -2.067,-3.5792 -6.6474,-4.80809 -10.2278,-2.74143 m -53.4751,-34.04018 c -4.1385,0 -7.4912,3.35268 -7.4912,7.49159 0,4.13612 3.3527,7.4888 7.4912,7.4888 4.1361,0 7.4892,-3.35268 7.4892,-7.4888 0,-4.13891 -3.3531,-7.49159 -7.4892,-7.49159"
           style="fill:#ffffff;fill-opacity:1;fill-rule:nonzero;stroke:none"
           id="path26-9-9"
           inkscape:connector-curvature="0" />
        <path
           d="m -2792.6802,1019.5197 c -5.7006,1.427 -13.223,2.9394 -22.5721,4.5409 -9.3492,1.604 -20.1687,2.4035 -32.4561,2.4035 -10.6858,0 -19.6797,-1.5594 -26.9806,-4.6721 -7.3046,-3.1139 -13.1809,-7.5237 -17.6303,-13.2243 -4.4531,-5.6968 -7.6586,-12.42225 -9.6165,-20.16865 -1.9617,-7.7465 -2.9381,-16.3357 -2.9381,-25.7777 v -78.00013 h 24.842 v 72.65721 c 0,16.92112 2.672,29.03022 8.015,36.32862 5.3417,7.30585 14.3331,10.95445 26.9794,10.95445 2.6708,0 5.4295,-0.089 8.2811,-0.2698 2.8465,-0.1733 5.5174,-0.3998 8.0137,-0.6671 2.4914,-0.2673 4.7625,-0.5322 6.812,-0.7995 2.0458,-0.2674 3.5149,-0.5755 4.4073,-0.9345 V 884.62122 h 24.8432"
           style="fill:#000000;fill-opacity:1;fill-rule:nonzero;stroke:none"
           id="path28-4-07"
           inkscape:connector-curvature="0" />
        <path
           d="m -2732.0455,1001.8906 c 2.4914,0.7129 6.0101,1.38 10.5522,2.0013 4.5409,0.6263 10.192,0.9369 16.9619,0.9369 13.3567,0 24.0413,-4.4085 32.0551,-13.22305 8.0137,-8.817 12.0212,-21.3259 12.0212,-37.53406 0,-7.1177 -0.7141,-13.79727 -2.1374,-20.03377 -1.427,-6.23154 -3.7389,-11.61777 -6.9444,-16.15869 -3.2055,-4.54216 -7.3467,-8.10287 -12.4223,-10.68707 -5.0756,-2.57925 -11.1772,-3.87259 -18.2973,-3.87259 -6.7712,0 -13.0027,1.15967 -18.6996,3.47283 -5.7018,2.31687 -10.0633,4.72162 -13.0894,7.21176 z m 0,-111.12694 c 3.0261,-1.95672 7.6128,-4.00626 13.7565,-6.1412 6.1449,-2.13865 13.223,-3.2055 21.2367,-3.2055 9.9717,0 18.8333,1.77973 26.5797,5.34044 7.7464,3.56442 14.2911,8.54841 19.634,14.96065 5.3429,6.41101 9.3913,14.06956 12.1549,22.97318 2.7587,8.90609 4.1399,18.69711 4.1399,29.38046 0,11.22176 -1.6485,21.33206 -4.9419,30.32236 -3.2971,8.9927 -7.9716,16.60545 -14.0237,22.83705 -6.0571,6.2365 -13.3567,11.0435 -21.9051,14.4272 -8.5472,3.38 -18.1649,5.0731 -28.8495,5.0731 -11.5782,0 -21.8172,-0.7995 -30.7209,-2.4035 -8.9061,-1.6027 -16.2069,-3.2042 -21.9038,-4.8082 V 820.50872 l 24.8432,-4.27235"
           style="fill:#000000;fill-opacity:1;fill-rule:nonzero;stroke:none"
           id="path30-9-5"
           inkscape:connector-curvature="0" />
        <path
           d="m -2495.9077,1019.5197 c -5.7018,1.427 -13.223,2.9394 -22.5722,4.5409 -9.3504,1.604 -20.1686,2.4035 -32.456,2.4035 -10.6858,0 -19.6798,-1.5594 -26.9806,-4.6721 -7.3046,-3.1139 -13.1822,-7.5237 -17.6303,-13.2243 -4.4543,-5.6968 -7.6585,-12.42225 -9.6153,-20.16865 -1.9629,-7.7465 -2.9406,-16.3357 -2.9406,-25.7777 v -78.00013 h 24.8433 v 72.65721 c 0,16.92112 2.672,29.03022 8.0137,36.32862 5.3429,7.30585 14.3344,10.95445 26.9807,10.95445 2.6708,0 5.4295,-0.089 8.2811,-0.2698 2.8465,-0.1733 5.5174,-0.3998 8.0137,-0.6671 2.4914,-0.2673 4.7625,-0.5322 6.812,-0.7995 2.0446,-0.2674 3.5149,-0.5755 4.4073,-0.9345 V 884.62122 h 24.8432"
           style="fill:#000000;fill-opacity:1;fill-rule:nonzero;stroke:none"
           id="path32-0-8"
           inkscape:connector-curvature="0" />
        <path
           d="m -2460.1162,888.62872 c 5.6981,-1.42453 13.2638,-2.93941 22.7071,-4.5434 9.437,-1.60151 20.2998,-2.40227 32.5872,-2.40227 11.0422,0 20.2107,1.55944 27.5153,4.67335 7.3009,3.11887 13.1314,7.47909 17.4966,13.08934 4.3602,5.61024 7.4333,12.33561 9.2167,20.16867 1.7773,7.838 2.6709,16.47553 2.6709,25.91258 v 78.00021 h -24.8445 v -72.65977 c 0,-8.54595 -0.5805,-15.84681 -1.7352,-21.90261 -1.1609,-6.05209 -3.0706,-10.95193 -5.7439,-14.69085 -2.6708,-3.74264 -6.234,-6.45556 -10.6846,-8.14866 -4.4543,-1.69186 -9.9754,-2.53841 -16.5597,-2.53841 -2.6745,0 -5.437,0.0916 -8.2823,0.26733 -2.8516,0.17822 -5.5682,0.40224 -8.1474,0.66957 -2.5855,0.26609 -4.9011,0.58045 -6.9445,0.93442 -2.0495,0.35892 -3.5198,0.62625 -4.4085,0.79952 v 117.26946 h -24.8432"
           style="fill:#000000;fill-opacity:1;fill-rule:nonzero;stroke:none"
           id="path34-4-70"
           inkscape:connector-curvature="0" />
        <path
           d="m -2290.492,884.62246 h 52.6247 v 20.83576 h -52.6247 v 64.10883 c 0,6.9456 0.5322,12.6895 1.6028,17.2292 1.0681,4.5434 2.6708,8.1054 4.8082,10.6858 2.1362,2.58435 4.807,4.40855 8.0126,5.47665 3.2055,1.0681 6.9456,1.604 11.2192,1.604 7.6548,0 13.7131,-0.8441 18.1649,-2.5384 4.4481,-1.6906 7.4791,-2.89245 9.0819,-3.60535 l 5.3429,20.30115 c -2.4951,1.2476 -6.9036,2.8516 -13.223,4.8071 -6.3231,1.9579 -13.4879,2.9381 -21.5041,2.9381 -9.4395,0 -17.228,-1.2005 -23.3729,-3.6052 -6.1437,-2.406 -11.0856,-6.0113 -14.8246,-10.8183 -3.7401,-4.8095 -6.3701,-10.7279 -7.88,-17.76645 -1.5162,-7.0311 -2.2724,-15.1785 -2.2724,-24.441 V 845.88787 l 24.8445,-4.27359"
           style="fill:#000000;fill-opacity:1;fill-rule:nonzero;stroke:none"
           id="path36-1-4"
           inkscape:connector-curvature="0" />
        <path
           d="m -2102.7028,1019.5197 c -5.7018,1.427 -13.2267,2.9394 -22.5734,4.5409 -9.3504,1.604 -20.1674,2.4035 -32.4573,2.4035 -10.6846,0 -19.6785,-1.5594 -26.9794,-4.6721 -7.3033,-3.1139 -13.1809,-7.5237 -17.6315,-13.2243 -4.4518,-5.6968 -7.6573,-12.42225 -9.6153,-20.16865 -1.9629,-7.7465 -2.9394,-16.3357 -2.9394,-25.7777 v -78.00013 h 24.8445 v 72.65721 c 0,16.92112 2.6709,29.03022 8.0125,36.32862 5.343,7.30585 14.3344,10.95445 26.9795,10.95445 2.672,0 5.4295,-0.089 8.2823,-0.2698 2.8466,-0.1733 5.5187,-0.3998 8.0137,-0.6671 2.4927,-0.2673 4.7625,-0.5322 6.8108,-0.7995 2.0471,-0.2674 3.5149,-0.5755 4.4073,-0.9345 V 884.62122 h 24.8457"
           style="fill:#000000;fill-opacity:1;fill-rule:nonzero;stroke:none"
           id="path38-7-8"
           inkscape:connector-curvature="0" />
        <path
           id="path3162"
           style="font-variant:normal;font-stretch:normal;font-family:'KLJEGM+UbuntuBeta';-inkscape-font-specification:'KLJEGM+UbuntuBeta';fill:#000000"
           d="m -2843.5904,1084.6411 c 3.4091,-0.8522 7.9369,-1.7578 13.5833,-2.7167 5.6464,-0.9587 12.1451,-1.4381 19.4961,-1.4382 6.6052,10e-5 12.0917,0.9589 16.4598,2.8765 4.3679,1.8111 7.8303,4.4213 10.3872,7.8303 2.6633,3.3027 4.5277,7.2978 5.5931,11.9853 1.0653,4.6877 1.598,9.8546 1.5981,15.501 v 46.6627 h -14.8618 v -43.4666 c 0,-5.1137 -0.3729,-9.4817 -1.1186,-13.104 -0.6393,-3.6221 -1.7579,-6.5518 -3.3559,-8.7892 -1.5981,-2.2371 -3.7288,-3.8352 -6.3921,-4.7941 -2.6635,-1.0653 -5.9661,-1.5979 -9.9079,-1.598 -1.598,1e-4 -3.2493,0.053 -4.9539,0.1598 -1.7046,0.1066 -3.3559,0.2664 -4.9539,0.4794 -1.4915,0.1066 -2.8765,0.2664 -4.1549,0.4794 -1.1719,0.2132 -2.0242,0.373 -2.5568,0.4794 v 70.1539 h -14.8618 v -80.7009"
           inkscape:connector-curvature="0" />
        <path
           id="path3164"
           style="font-variant:normal;font-stretch:normal;font-family:'KLJEGM+UbuntuBeta';-inkscape-font-specification:'KLJEGM+UbuntuBeta';fill:#000000"
           d="m -2736.3421,1165.342 h -14.8618 v -83.098 h 14.8618 v 83.098 m -7.5108,-98.1195 c -2.6634,10e-5 -4.9539,-0.8522 -6.8716,-2.5569 -1.8111,-1.811 -2.7166,-4.208 -2.7166,-7.1911 0,-2.9829 0.9055,-5.3267 2.7166,-7.0314 1.9177,-1.811 4.2082,-2.7165 6.8716,-2.7167 2.6634,2e-4 4.9006,0.9057 6.7118,2.7167 1.9176,1.7047 2.8764,4.0485 2.8764,7.0314 0,2.9831 -0.9588,5.3801 -2.8764,7.1911 -1.8112,1.7047 -4.0484,2.557 -6.7118,2.5569"
           inkscape:connector-curvature="0" />
        <path
           id="path3166"
           style="font-variant:normal;font-stretch:normal;font-family:'KLJEGM+UbuntuBeta';-inkscape-font-specification:'KLJEGM+UbuntuBeta';fill:#000000"
           d="m -2714.6388,1123.9528 c 0,-6.3921 0.9056,-12.2516 2.7167,-17.5784 1.9176,-5.3267 4.581,-9.9078 7.9902,-13.7431 3.4091,-3.9418 7.564,-6.978 12.4647,-9.1088 5.0071,-2.2372 10.547,-3.3558 16.6195,-3.3559 3.7287,10e-5 7.4575,0.3197 11.1863,0.9588 3.7287,0.6393 7.2976,1.6514 10.7068,3.0363 l -3.3558,12.6245 c -2.2373,-1.0653 -4.8475,-1.9176 -7.8304,-2.5569 -2.8765,-0.6391 -5.9661,-0.9587 -9.2686,-0.9588 -8.3099,10e-5 -14.702,2.6102 -19.1765,7.8304 -4.368,5.2203 -6.5519,12.8376 -6.5519,22.8519 0,4.4745 0.4794,8.5762 1.4382,12.3049 1.0653,3.7288 2.6634,6.9248 4.7941,9.5882 2.2372,2.6634 5.0604,4.7409 8.4696,6.2323 3.4091,1.385 7.564,2.0775 12.4647,2.0775 3.9418,0 7.5107,-0.3729 10.7069,-1.1186 3.196,-0.7458 5.6996,-1.5448 7.5107,-2.3971 l 2.0775,12.4647 c -0.8524,0.5327 -2.0775,1.0654 -3.6755,1.598 -1.5981,0.4262 -3.4092,0.7991 -5.4333,1.1187 -2.0243,0.4261 -4.2083,0.7457 -6.552,0.9588 -2.2373,0.3196 -4.4213,0.4794 -6.5519,0.4794 -6.7118,0 -12.6246,-1.0654 -17.7382,-3.1961 -5.0073,-2.1307 -9.2687,-5.1137 -12.7843,-8.949 -3.4092,-3.8353 -5.9661,-8.363 -7.6706,-13.5833 -1.7046,-5.3268 -2.5569,-11.1862 -2.5569,-17.5784"
           inkscape:connector-curvature="0" />
        <path
           id="path3168"
           style="font-variant:normal;font-stretch:normal;font-family:'KLJEGM+UbuntuBeta';-inkscape-font-specification:'KLJEGM+UbuntuBeta';fill:#000000"
           d="m -2606.971,1154.6351 c 3.5156,0 6.6051,-0.053 9.2686,-0.1598 2.7698,-0.2131 5.0604,-0.5327 6.8715,-0.9588 v -24.7696 c -1.0654,-0.5326 -2.8232,-0.9588 -5.2735,-1.2784 -2.3438,-0.4261 -5.2203,-0.6392 -8.6294,-0.6392 -2.2373,0 -4.6343,0.1598 -7.1912,0.4794 -2.4503,0.3196 -4.7408,1.0121 -6.8715,2.0774 -2.0242,0.9589 -3.7288,2.3438 -5.1137,4.1549 -1.385,1.7046 -2.0775,3.9951 -2.0775,6.8716 0,5.3268 1.7046,9.0555 5.1137,11.1862 3.4091,2.0242 8.0434,3.0363 13.903,3.0363 m -1.2785,-74.4685 c 5.966,10e-5 10.9732,0.7991 15.0216,2.397 4.1548,1.4916 7.4574,3.6756 9.9078,6.552 2.5568,2.77 4.3679,6.1259 5.4333,10.0676 1.0653,3.8354 1.598,8.0968 1.5981,12.7843 v 51.9362 c -1.2785,0.2131 -3.0896,0.5327 -5.4334,0.9588 -2.2373,0.3197 -4.7941,0.6393 -7.6705,0.9589 -2.8766,0.3196 -6.0194,0.5859 -9.4285,0.799 -3.3026,0.3196 -6.6052,0.4794 -9.9078,0.4794 -4.6876,0 -9.0023,-0.4794 -12.9441,-1.4382 -3.9418,-0.9589 -7.351,-2.4504 -10.2274,-4.4745 -2.8765,-2.1307 -5.1138,-4.9007 -6.7118,-8.3098 -1.598,-3.4092 -2.397,-7.5108 -2.397,-12.3049 0,-4.581 0.9055,-8.5228 2.7166,-11.8255 1.9177,-3.3026 4.4745,-5.966 7.6706,-7.9902 3.1961,-2.0241 6.9248,-3.5156 11.1863,-4.4745 4.2614,-0.9588 8.7359,-1.4382 13.4235,-1.4382 1.4914,0 3.0362,0.1066 4.6343,0.3196 1.598,0.1066 3.0895,0.3197 4.4745,0.6392 1.4914,0.2131 2.7699,0.4262 3.8353,0.6392 1.0653,0.2131 1.811,0.3729 2.2372,0.4794 v -4.1549 c 0,-2.4502 -0.2664,-4.8473 -0.799,-7.1911 -0.5327,-2.4503 -1.4916,-4.581 -2.8765,-6.3922 -1.385,-1.9175 -3.3026,-3.409 -5.7529,-4.4745 -2.3438,-1.1718 -5.4334,-1.7577 -9.2686,-1.7578 -4.9007,10e-5 -9.2154,0.3729 -12.9441,1.1186 -3.6222,0.6393 -6.3389,1.3318 -8.15,2.0775 l -1.7578,-12.3049 c 1.9176,-0.8522 5.1137,-1.6513 9.5882,-2.3971 4.4745,-0.8522 9.3218,-1.2783 14.5421,-1.2784"
           inkscape:connector-curvature="0" />
        <path
           id="path3170"
           style="font-variant:normal;font-stretch:normal;font-family:'KLJEGM+UbuntuBeta';-inkscape-font-specification:'KLJEGM+UbuntuBeta';fill:#000000"
           d="m -2520.4548,1080.4862 c 1.2784,10e-5 2.7166,0.1066 4.3147,0.3196 1.7045,0.1066 3.3558,0.3197 4.9539,0.6392 1.598,0.2132 3.0362,0.4795 4.3147,0.799 1.3849,0.2132 2.397,0.4263 3.0363,0.6392 l -2.5569,12.9441 c -1.1719,-0.426 -3.1429,-0.9054 -5.9127,-1.4382 -2.6635,-0.6391 -6.1259,-0.9587 -10.3873,-0.9588 -2.7699,10e-5 -5.5399,0.3197 -8.3098,0.9588 -2.6634,0.5328 -4.4212,0.9056 -5.2735,1.1186 v 69.8343 h -14.8617 v -79.5823 c 3.5156,-1.2783 7.8836,-2.4502 13.1039,-3.5157 5.2202,-1.1718 11.0797,-1.7577 17.5784,-1.7578"
           inkscape:connector-curvature="0" />
        <path
           id="path3172"
           style="font-variant:normal;font-stretch:normal;font-family:'KLJEGM+UbuntuBeta';-inkscape-font-specification:'KLJEGM+UbuntuBeta';fill:#000000"
           d="m -2460.5884,1154.6351 c 3.5157,0 6.6052,-0.053 9.2686,-0.1598 2.7699,-0.2131 5.0604,-0.5327 6.8716,-0.9588 v -24.7696 c -1.0654,-0.5326 -2.8233,-0.9588 -5.2735,-1.2784 -2.3439,-0.4261 -5.2203,-0.6392 -8.6294,-0.6392 -2.2373,0 -4.6344,0.1598 -7.1912,0.4794 -2.4503,0.3196 -4.7409,1.0121 -6.8715,2.0774 -2.0243,0.9589 -3.7288,2.3438 -5.1138,4.1549 -1.385,1.7046 -2.0774,3.9951 -2.0774,6.8716 0,5.3268 1.7045,9.0555 5.1137,11.1862 3.4091,2.0242 8.0434,3.0363 13.9029,3.0363 m -1.2784,-74.4685 c 5.966,10e-5 10.9731,0.7991 15.0215,2.397 4.1549,1.4916 7.4575,3.6756 9.9079,6.552 2.5568,2.77 4.3679,6.1259 5.4333,10.0676 1.0653,3.8354 1.598,8.0968 1.598,12.7843 v 51.9362 c -1.2785,0.2131 -3.0896,0.5327 -5.4333,0.9588 -2.2373,0.3197 -4.7942,0.6393 -7.6706,0.9589 -2.8765,0.3196 -6.0193,0.5859 -9.4284,0.799 -3.3026,0.3196 -6.6052,0.4794 -9.9078,0.4794 -4.6876,0 -9.0023,-0.4794 -12.9441,-1.4382 -3.9419,-0.9589 -7.351,-2.4504 -10.2275,-4.4745 -2.8764,-2.1307 -5.1137,-4.9007 -6.7117,-8.3098 -1.5981,-3.4092 -2.3971,-7.5108 -2.3971,-12.3049 0,-4.581 0.9056,-8.5228 2.7167,-11.8255 1.9176,-3.3026 4.4745,-5.966 7.6706,-7.9902 3.196,-2.0241 6.9248,-3.5156 11.1862,-4.4745 4.2614,-0.9588 8.7359,-1.4382 13.4235,-1.4382 1.4915,0 3.0363,0.1066 4.6344,0.3196 1.5979,0.1066 3.0894,0.3197 4.4745,0.6392 1.4914,0.2131 2.7698,0.4262 3.8352,0.6392 1.0653,0.2131 1.8111,0.3729 2.2373,0.4794 v -4.1549 c -1e-4,-2.4502 -0.2664,-4.8473 -0.799,-7.1911 -0.5328,-2.4503 -1.4916,-4.581 -2.8765,-6.3922 -1.385,-1.9175 -3.3026,-3.409 -5.7529,-4.4745 -2.3439,-1.1718 -5.4334,-1.7577 -9.2686,-1.7578 -4.9007,10e-5 -9.2154,0.3729 -12.9441,1.1186 -3.6223,0.6393 -6.3389,1.3318 -8.15,2.0775 l -1.7579,-12.3049 c 1.9177,-0.8522 5.1137,-1.6513 9.5883,-2.3971 4.4744,-0.8522 9.3218,-1.2783 14.5421,-1.2784"
           inkscape:connector-curvature="0" />
        <path
           id="path3174"
           style="font-variant:normal;font-stretch:normal;font-family:'KLJEGM+UbuntuBeta';-inkscape-font-specification:'KLJEGM+UbuntuBeta';fill:#000000"
           d="m -2352.6584,1157.0322 c -1.2785,0.8523 -3.7821,1.9709 -7.5108,3.3558 -3.6223,1.2785 -7.8837,1.9177 -12.7843,1.9177 -5.0072,0 -9.7481,-0.799 -14.2225,-2.3971 -4.368,-1.598 -8.2033,-4.0483 -11.5059,-7.3509 -3.3026,-3.4092 -5.9128,-7.6173 -7.8304,-12.6245 -1.9176,-5.0072 -2.8765,-10.9732 -2.8765,-17.898 0,-6.0725 0.9056,-11.6124 2.7167,-16.6196 1.8111,-5.1137 4.4212,-9.4816 7.8304,-13.1039 3.5157,-3.7287 7.7771,-6.6052 12.7843,-8.6294 5.0071,-2.1307 10.6535,-3.196 16.9392,-3.1961 6.9248,10e-5 12.944,0.5328 18.0578,1.598 5.2202,0.9589 9.5881,1.8645 13.1039,2.7167 v 74.1489 c -1e-4,12.7843 -3.3027,22.0529 -9.9078,27.8059 -6.6053,5.7529 -16.6197,8.6293 -30.0431,8.6294 -5.2203,-10e-5 -10.1742,-0.4262 -14.8618,-1.2785 -4.581,-0.8523 -8.5761,-1.8644 -11.9852,-3.0362 l 2.7166,-12.9441 c 2.983,1.1718 6.6052,2.1839 10.8667,3.0362 4.3679,0.9588 8.8957,1.4382 13.5833,1.4383 8.8424,-10e-5 15.1813,-1.7579 19.0166,-5.2736 3.9418,-3.5157 5.9127,-9.1088 5.9128,-16.7794 v -3.5156 m -0.1598,-61.6843 c -1.4916,-0.426 -3.5158,-0.7989 -6.0726,-1.1186 -2.4504,-0.4261 -5.8062,-0.6391 -10.0676,-0.6392 -7.9902,1e-4 -14.1693,2.6102 -18.5372,7.8304 -4.2615,5.2203 -6.3922,12.1451 -6.3922,20.7745 0,4.7941 0.5859,8.8957 1.7578,12.3048 1.2785,3.4092 2.9298,6.2324 4.954,8.4696 2.1306,2.2373 4.5277,3.8886 7.1911,4.954 2.7699,1.0653 5.5931,1.598 8.4696,1.598 3.9418,0 7.564,-0.5327 10.8667,-1.598 3.3025,-1.1719 5.9126,-2.5036 7.8304,-3.9951 v -48.5804"
           inkscape:connector-curvature="0" />
        <path
           id="path3176"
           style="font-variant:normal;font-stretch:normal;font-family:'KLJEGM+UbuntuBeta';-inkscape-font-specification:'KLJEGM+UbuntuBeta';fill:#000000"
           d="m -2245.585,1162.9449 c -3.4092,0.8523 -7.937,1.7578 -13.5833,2.7167 -5.5399,0.9588 -11.9853,1.4382 -19.3362,1.4382 -6.3922,0 -11.7723,-0.9056 -16.1402,-2.7167 -4.368,-1.9176 -7.8837,-4.581 -10.5471,-7.9902 -2.6634,-3.4091 -4.581,-7.4042 -5.7529,-11.9852 -1.1719,-4.6876 -1.7578,-9.8546 -1.7578,-15.501 v -46.6627 h 14.8617 v 43.4666 c 0,10.121 1.598,17.3654 4.7941,21.7333 3.1961,4.368 8.5761,6.552 16.1402,6.552 1.598,0 3.2493,-0.053 4.9539,-0.1598 1.7045,-0.1065 3.3026,-0.2131 4.7941,-0.3196 1.4915,-0.2131 2.8232,-0.3729 3.9951,-0.4794 1.2784,-0.2131 2.1839,-0.4262 2.7167,-0.6392 v -70.1539 h 14.8617 v 80.7009"
           inkscape:connector-curvature="0" />
        <path
           id="path3178"
           style="font-variant:normal;font-stretch:normal;font-family:'KLJEGM+UbuntuBeta';-inkscape-font-specification:'KLJEGM+UbuntuBeta';fill:#000000"
           d="m -2191.2317,1154.6351 c 3.5156,0 6.6052,-0.053 9.2686,-0.1598 2.7699,-0.2131 5.0604,-0.5327 6.8716,-0.9588 v -24.7696 c -1.0655,-0.5326 -2.8233,-0.9588 -5.2736,-1.2784 -2.3438,-0.4261 -5.2203,-0.6392 -8.6294,-0.6392 -2.2373,0 -4.6343,0.1598 -7.1911,0.4794 -2.4504,0.3196 -4.7409,1.0121 -6.8716,2.0774 -2.0242,0.9589 -3.7288,2.3438 -5.1137,4.1549 -1.385,1.7046 -2.0775,3.9951 -2.0775,6.8716 0,5.3268 1.7046,9.0555 5.1138,11.1862 3.4091,2.0242 8.0434,3.0363 13.9029,3.0363 m -1.2784,-74.4685 c 5.9659,10e-5 10.9731,0.7991 15.0215,2.397 4.1548,1.4916 7.4574,3.6756 9.9078,6.552 2.5568,2.77 4.3679,6.1259 5.4334,10.0676 1.0652,3.8354 1.5979,8.0968 1.598,12.7843 v 51.9362 c -1.2785,0.2131 -3.0896,0.5327 -5.4333,0.9588 -2.2373,0.3197 -4.7942,0.6393 -7.6706,0.9589 -2.8765,0.3196 -6.0193,0.5859 -9.4284,0.799 -3.3027,0.3196 -6.6053,0.4794 -9.9079,0.4794 -4.6876,0 -9.0023,-0.4794 -12.9441,-1.4382 -3.9418,-0.9589 -7.3509,-2.4504 -10.2274,-4.4745 -2.8765,-2.1307 -5.1137,-4.9007 -6.7117,-8.3098 -1.5981,-3.4092 -2.3971,-7.5108 -2.3971,-12.3049 0,-4.581 0.9055,-8.5228 2.7167,-11.8255 1.9176,-3.3026 4.4744,-5.966 7.6705,-7.9902 3.1961,-2.0241 6.9248,-3.5156 11.1863,-4.4745 4.2614,-0.9588 8.7359,-1.4382 13.4235,-1.4382 1.4915,0 3.0362,0.1066 4.6343,0.3196 1.598,0.1066 3.0895,0.3197 4.4745,0.6392 1.4915,0.2131 2.7699,0.4262 3.8353,0.6392 1.0653,0.2131 1.8111,0.3729 2.2373,0.4794 v -4.1549 c -1e-4,-2.4502 -0.2664,-4.8473 -0.7991,-7.1911 -0.5327,-2.4503 -1.4915,-4.581 -2.8764,-6.3922 -1.385,-1.9175 -3.3027,-3.409 -5.753,-4.4745 -2.3438,-1.1718 -5.4333,-1.7577 -9.2686,-1.7578 -4.9007,10e-5 -9.2154,0.3729 -12.9441,1.1186 -3.6222,0.6393 -6.3389,1.3318 -8.15,2.0775 l -1.7578,-12.3049 c 1.9176,-0.8522 5.1137,-1.6513 9.5882,-2.3971 4.4745,-0.8522 9.3219,-1.2783 14.5422,-1.2784"
           inkscape:connector-curvature="0" />
      </g>
    </g>
  </g>
</svg>
