<svg xmlns="http://www.w3.org/2000/svg" width="400" height="158.052"><path d="M297.152 95.488c-.148-.233-.293-.468-.435-.706-.62-1.037-1.178-2.115-1.668-3.23-.388-.883-.734-1.788-1.035-2.713l-.68.326-1.235.595c.357 1.068.77 2.108 1.235 3.12.51 1.107 1.083 2.18 1.714 3.213.053.09.11.18.165.27l1.502-.678.435-.197zM287.634 99.762l.056.01.224-.1-.28-.487c-.278-.49-.547-.987-.806-1.49-.308-.603-.602-1.213-.88-1.834-.365-.81-.702-1.635-1.01-2.475l-.078.043c-.49.27-.97.538-1.41.782l-.373.21c.12.32.245.64.374.956.43 1.054.9 2.086 1.41 3.094.267.53.547 1.052.837 1.568l.25-.172.484-.332.398.075.806.152z" fill="#ec7848"/><path d="M299.34 101.624c.15.154.3.306.452.457.75.742 1.538 1.446 2.36 2.108.575.464 1.168.91 1.776 1.332.478.332.966.652 1.463.957.415.256.835.503 1.263.74.302.167.608.328.916.485.257.133.52.262.78.386 2.136 1.017 4.405 1.797 6.775 2.31.22.047.437.092.656.134.198.04.396.075.595.11.642.112 1.292.204 1.947.276 1.133.124 2.283.188 3.448.188.75 0 1.494-.028 2.23-.08 16.236-1.144 29.054-14.676 29.054-31.202 0-16.527-12.818-30.06-29.053-31.204-.736-.052-1.48-.08-2.23-.08-1.165 0-2.315.064-3.448.188-.655.072-1.305.165-1.947.276-.2.035-.397.07-.594.11-.22.042-.436.087-.655.134-2.37.513-4.64 1.294-6.774 2.31-.26.124-.523.253-.78.385-.31.157-.615.32-.917.487-.428.237-.848.482-1.262.738-.19.117-.38.236-.568.358l.57.624.842.93-.002-.04-.15-.465.347.428.223-.137c.302-.183.608-.36.916-.534.258-.144.518-.285.78-.42 2.12-1.1 4.392-1.95 6.776-2.505.217-.05.436-.098.655-.144.198-.042.397-.08.595-.118.642-.12 1.292-.22 1.948-.296 1.13-.135 2.28-.204 3.447-.204.752 0 1.494.03 2.23.085 15.073 1.14 26.947 13.73 26.947 29.094 0 15.363-11.874 27.952-26.946 29.09-.736.057-1.478.085-2.23.085-1.167 0-2.317-.07-3.447-.203-.656-.078-1.306-.176-1.948-.295-.2-.038-.397-.078-.594-.12-.218-.045-.437-.092-.654-.143-2.384-.557-4.655-1.404-6.775-2.504-.262-.136-.522-.277-.78-.42-.31-.174-.615-.35-.917-.534-.428-.26-.85-.53-1.262-.812-.498-.34-.986-.693-1.462-1.06-.612-.475-1.204-.973-1.776-1.493-.832-.756-1.62-1.56-2.36-2.406-.153-.175-.304-.35-.453-.53-.45-.54-.88-1.095-1.29-1.666l-1.333.6-.622.282c.202.29.41.576.622.86.808 1.078 1.684 2.104 2.622 3.068M283.45 64.267c-1.95 4.802-3.027 10.053-3.027 15.556 0 4.575.744 8.975 2.116 13.09l.91-.51.966-.532c-.375-1.165-.698-2.354-.965-3.564-.602-2.73-.92-5.57-.92-8.483 0-2.915.318-5.755.92-8.49.368-1.66.84-3.284 1.41-4.86.33-.912.693-1.808 1.087-2.688.278-.62.572-1.233.88-1.837.26-.502.528-1 .807-1.49 1.586-2.79 3.504-5.366 5.7-7.675l.132-.137-.13-.15-1.25-1.45c-1.633 1.682-3.123 3.505-4.452 5.445-.275.403-.544.81-.806 1.222-.303.48-.596.963-.88 1.454-.38.658-.743 1.328-1.088 2.01-.51 1.006-.98 2.038-1.41 3.09" fill="#ec7848"/><path d="M287.634 103.156c1.662 2.426 3.574 4.666 5.702 6.68.556.53 1.127 1.04 1.713 1.538.543.46 1.098.908 1.667 1.342.85.647 1.723 1.262 2.62 1.844.152.097.303.194.456.29.77.483 1.556.943 2.36 1.376.583.316 1.174.618 1.775.905.483.232.97.456 1.463.668.417.18.84.353 1.263.52.303.12.61.235.916.347.26.095.52.188.78.277 2.182.75 4.446 1.32 6.775 1.696.218.035.437.07.656.1.198.03.396.057.594.082.645.085 1.295.154 1.948.208 1.137.094 2.287.142 3.447.142.75 0 1.492-.02 2.23-.06 21.8-1.16 39.117-19.2 39.117-41.287S345.8 39.696 324 38.537c-.738-.04-1.48-.06-2.23-.06-1.16 0-2.31.048-3.448.14-.653.056-1.303.125-1.948.21-.198.024-.396.052-.593.08-.218.032-.437.066-.655.1-2.33.378-4.593.948-6.774 1.696-.26.09-.52.183-.78.278-.308.113-.614.23-.917.35-.424.166-.846.338-1.262.52-.493.212-.98.434-1.462.665-.6.287-1.192.59-1.776.905-.803.433-1.59.893-2.36 1.377-.152.096-.303.192-.454.29-.456.295-.907.6-1.35.913l1.078 1.208.002-.003.27.297.07.076c.127-.09.255-.177.385-.264.767-.52 1.553-1.014 2.358-1.48.584-.336 1.176-.66 1.778-.967.48-.246.968-.483 1.462-.71.417-.192.838-.377 1.263-.554.303-.127.608-.25.916-.37.26-.1.52-.198.78-.294 2.175-.792 4.44-1.397 6.775-1.796.218-.036.437-.073.655-.106.198-.03.396-.06.594-.087.645-.088 1.294-.16 1.948-.217 1.136-.1 2.286-.15 3.447-.15.75 0 1.493.023 2.23.064 20.635 1.157 37.01 18.253 37.01 39.177 0 20.923-16.375 38.02-37.01 39.176-.737.04-1.48.064-2.23.064-1.162 0-2.312-.052-3.448-.15-.654-.058-1.303-.13-1.948-.22-.198-.027-.396-.056-.594-.086-.218-.033-.437-.07-.655-.106-2.335-.398-4.6-1.003-6.775-1.794-.26-.095-.52-.193-.78-.293-.31-.12-.614-.243-.917-.37-.425-.178-.847-.36-1.263-.553-.494-.227-.98-.465-1.462-.71-.602-.31-1.194-.63-1.777-.967-.804-.466-1.59-.96-2.357-1.48-.153-.103-.304-.207-.455-.313-.902-.63-1.777-1.295-2.622-1.997-.57-.473-1.126-.962-1.667-1.466-.59-.55-1.16-1.114-1.715-1.696-1.707-1.794-3.246-3.75-4.59-5.842l-.4.183-.46.21-.25-.05-.235-.043-.572-.11-.046-.007-.287.196c.11.18.22.36.333.536.262.412.53.818.806 1.22" fill="#ec7848"/><path d="M324 85.112c-.685.29-1.44.45-2.23.45-.402 0-.795-.043-1.174-.12l-2.274 1.106-.32.156c.105.06.212.114.32.167 1.04.51 2.21.798 3.447.798.775 0 1.524-.113 2.23-.322 3.246-.962 5.615-3.966 5.615-7.523 0-3.557-2.37-6.56-5.614-7.523-.706-.21-1.455-.322-2.23-.322-.243 0-.484.01-.722.034.575.712 1.21 1.46 1.835 2.18.39.077.762.193 1.118.343 2.062.87 3.508 2.91 3.508 5.288 0 2.38-1.446 4.42-3.507 5.29M313.95 79.186c-.016.21-.025.423-.025.637 0 .3.017.593.05.883l1.15-.587.656-.335.255-.128c.016-.575.117-1.13.29-1.65l-.544-.59-.655-.712-.368-.4c-.117.233-.222.473-.316.718l.685.83.473.574-.473.218c-.39.182-.783.363-1.174.54" fill="#ec7848"/><path d="M315.125 96.936c.217.083.435.163.656.24.197.067.395.132.595.193.635.194 1.285.356 1.947.48 1.117.214 2.27.325 3.448.325.755 0 1.5-.047 2.23-.135 9.084-1.1 16.122-8.836 16.122-18.217 0-9.38-7.038-17.115-16.12-18.217-.732-.088-1.477-.135-2.232-.135-1.178 0-2.33.112-3.448.324-.662.127-1.312.29-1.947.484-.2.06-.398.125-.594.193-.22.078-.438.158-.655.242-.6.232-1.184.496-1.75.79l.212.26.554.677.01-.002.03-.03c.23.216.48.448.736.684l.21-.096c.216-.098.434-.19.655-.277.198-.08.395-.154.595-.224.632-.223 1.283-.407 1.948-.552 1.11-.24 2.264-.366 3.447-.366.757 0 1.502.053 2.23.153 7.918 1.088 14.015 7.877 14.015 16.093 0 8.216-6.097 15.006-14.014 16.093-.73.1-1.473.152-2.23.152-1.183 0-2.336-.126-3.447-.367-.665-.142-1.316-.327-1.948-.55-.2-.07-.397-.143-.594-.22-.22-.09-.438-.182-.655-.278-1.96-.88-3.715-2.138-5.17-3.68h-.002v-.002l-.09-.097c-.48.252-.993.493-1.512.73l-.46.21-.01.004c.153.178.31.353.47.525 1.868 2 4.178 3.585 6.776 4.594" fill="#ec7848"/><path d="M306.653 90.23c.072.104.146.21.22.31l.696-.315c.262-.12.526-.24.78-.36.16-.077.32-.154.47-.23-.16-.214-.318-.432-.47-.655-.278-.407-.54-.83-.78-1.262-.347-.622-.654-1.27-.917-1.937-.087-.22-.17-.442-.247-.668-.348.145-.684.295-1.015.45-.3.142-.6.287-.906.436.26.725.562 1.428.907 2.107.374.738.796 1.448 1.263 2.124M311.985 64.296c-1.338.845-2.56 1.858-3.634 3.01l-.117.127.118.137 1.266 1.475c1.102-1.242 2.39-2.313 3.824-3.17-.113-.106-.227-.212-.34-.32-.755-.808-.744-.8-.734-.793l-.38-.466zM305.825 82.94l-.434.216-1.462.728-.052.027c.016.076.034.15.052.225.144.596.317 1.18.518 1.754.29-.185.606-.38.945-.58.287-.17.59-.347.907-.528-.173-.536-.318-1.086-.434-1.645l-.106.048-.296.01.374-.207-.01-.048zM286.828 40.47l.344.307c.153-.136.307-.27.462-.405.666-.578 1.347-1.138 2.043-1.682-.43-.54-.87-1.09-1.31-1.648-.247.193-.49.387-.733.583-.27.22-.54.44-.806.665-.296.25-.59.5-.88.757-.12.105-.24.21-.357.317l.357.318.88.788zM277.548 31.785l.297.34.298.344-.16-.434-.138-.218c-.076-.127-.103-.19-.102-.214l-.195.18M278.898 33.404l-.184-.165c.048.056.1.118.16.186l.024-.022zM284.86 40.03l-.127.118.127.146 1.087 1.24.175.2c.233-.218.47-.436.706-.65.11-.1.222-.2.335-.3l-.335-.297-.88-.786-.367-.327c-.242.217-.482.437-.72.658M270.286 23.754c.376-.345.755-.686 1.138-1.024.456-.402.916-.8 1.382-1.19.38-.32.764-.636 1.15-.95l-.37-.37c-.22-.22-.508-.535-.78-.846l-.29-.33c-.366.297-.73.598-1.092.902-.802.676-1.59 1.366-2.362 2.073l-.17.155.17.194c.407.462.815.924 1.224 1.384M272.925 19.08l-.12-.127-.075-.08-.043.033.12.087.118.086zM277.966 31.767c-.013-.083-.024-.21-.024-.345l-.097.088-.09.082c.02.002.054.028.09.06.064.054.13.124.12.115M277.334 31.982l-.013.013.205.182.32.287.868.775-.08-.098-.787-.703-.32-.287-.192-.17zM259.63 91.353h-2.143c.644 3.618 1.59 7.133 2.804 10.518.295.82.605 1.63.93 2.434l1.875-.982c-1.14-2.85-2.082-5.8-2.804-8.837-.245-1.035-.465-2.08-.66-3.132" fill="#ec7848"/><path d="M269.062 118.37c.758 1.036 1.545 2.05 2.362 3.037.45.546.912 1.085 1.382 1.616.73.828 1.48 1.635 2.252 2.424.8.82 1.624 1.62 2.467 2.397l.32.296c.684.622 1.38 1.228 2.09 1.82 1.14.952 2.312 1.868 3.516 2.74.466.338.936.67 1.41.994.36.247.722.492 1.087.732.293.192.586.38.88.568.27.17.537.337.807.503 1.842 1.132 3.744 2.176 5.7 3.124.568.276 1.14.54 1.715.8.55.248 1.107.487 1.666.72.865.36 1.74.703 2.623 1.026.15.056.3.108.452.162.78.28 1.567.545 2.36.794.588.185 1.18.36 1.776.53.485.137.972.27 1.463.398.42.108.84.212 1.263.312.304.072.61.142.916.21.26.058.52.113.78.168 2.22.463 4.48.816 6.775 1.048.22.022.437.04.656.06.2.02.397.036.595.052.646.054 1.295.098 1.947.13 1.143.06 2.29.092 3.448.092.747 0 1.49-.018 2.23-.043 35.03-1.177 63.07-29.94 63.07-65.257 0-35.316-28.04-64.08-63.07-65.256-.74-.025-1.483-.043-2.23-.043-1.156 0-2.305.03-3.448.09-.652.034-1.3.078-1.947.13l-.594.052c-.218.02-.436.04-.655.063-2.295.232-4.555.583-6.774 1.046-.26.055-.52.11-.78.17-.307.067-.613.136-.917.208-.423.1-.843.205-1.262.314-.49.126-.977.258-1.462.396-.595.17-1.188.346-1.776.53-.793.25-1.58.514-2.36.793l-.453.165c-.885.323-1.76.665-2.624 1.024-.56.233-1.115.474-1.667.722-.577.26-1.148.525-1.715.8-1.956.948-3.86 1.99-5.7 3.123-.27.167-.54.336-.807.506-.295.187-.588.376-.88.568-.366.24-.728.484-1.088.73-.474.327-.944.66-1.41.995-.164.12-.33.24-.494.363l.495.52.97 1.016.44-.32c.36-.26.722-.515 1.087-.767.293-.2.586-.4.88-.596.27-.178.537-.353.807-.526 1.837-1.182 3.74-2.27 5.7-3.262.568-.286 1.14-.564 1.715-.832.55-.258 1.107-.508 1.666-.75.865-.374 1.74-.73 2.623-1.065l.452-.17c.78-.29 1.566-.563 2.36-.822.588-.192 1.18-.376 1.776-.55.485-.144.972-.28 1.463-.412.42-.112.84-.22 1.263-.324.304-.074.61-.147.916-.217.26-.06.52-.118.78-.175 2.218-.48 4.478-.842 6.775-1.083l.656-.065c.2-.018.397-.036.595-.052.646-.055 1.295-.1 1.947-.135 1.142-.062 2.29-.094 3.448-.094.747 0 1.49.02 2.23.045 33.868 1.176 60.962 28.995 60.962 63.148 0 34.154-27.094 61.973-60.96 63.148-.742.027-1.485.045-2.232.045-1.157 0-2.306-.032-3.448-.094-.65-.034-1.3-.077-1.947-.132-.2-.016-.396-.036-.594-.055-.218-.02-.436-.04-.655-.065-2.297-.24-4.557-.604-6.774-1.082-.26-.057-.52-.115-.78-.175-.307-.07-.613-.142-.917-.217-.423-.103-.843-.212-1.262-.324-.49-.132-.978-.267-1.462-.41-.596-.175-1.188-.36-1.776-.55-.794-.26-1.58-.534-2.36-.824l-.453-.17c-.885-.336-1.76-.69-2.624-1.065-.56-.24-1.115-.49-1.667-.75-.577-.268-1.148-.544-1.715-.83-1.96-.99-3.864-2.08-5.7-3.263-.27-.174-.54-.35-.807-.527-.295-.196-.588-.394-.88-.597-.366-.25-.728-.506-1.088-.765-.475-.342-.944-.69-1.41-1.046-1.205-.923-2.378-1.886-3.514-2.89-.71-.63-1.41-1.273-2.09-1.933-.108-.105-.214-.21-.32-.316-.847-.83-1.67-1.68-2.468-2.556-.774-.85-1.524-1.722-2.252-2.612-.47-.577-.932-1.163-1.382-1.755-.823-1.082-1.61-2.192-2.362-3.327-.642-.97-1.26-1.955-1.848-2.96l-.498.344-.142.1-.13.054-.558.242-.547.236c.18.307.36.614.546.918.99 1.634 2.05 3.22 3.176 4.755" fill="#ec7848"/><path d="M264.556 111.317l1.265-.546.066-.044.546-.378c-.185-.335-.367-.673-.546-1.01-.622-1.175-1.207-2.37-1.755-3.586-.143-.322-.286-.646-.426-.97l-1.873.98c.705 1.626 1.472 3.217 2.3 4.772.14.26.283.522.426.782M279.936 32.465c.85-.752 1.724-1.482 2.615-2.19l-1.41-1.567c-.405.322-.807.65-1.204.982-.598.5-1.187 1.01-1.767 1.53.127 1.426-.12 1.233.46 1.922l.28.25c.34-.313.68-.62 1.026-.927M276.4 32.866c-.453.44-.9.885-1.342 1.337-.77.79-1.522 1.597-2.252 2.425-.47.532-.93 1.07-1.382 1.618-.817.987-1.604 1.998-2.362 3.033-1.126 1.535-2.186 3.123-3.176 4.757-.612 1.01-1.197 2.037-1.755 3.08-1.223 2.293-2.314 4.666-3.26 7.112h2.264c.317-.788.65-1.568.997-2.34.55-1.215 1.135-2.41 1.756-3.583.973-1.838 2.033-3.622 3.176-5.346.753-1.133 1.54-2.243 2.362-3.325.45-.592.91-1.177 1.382-1.753.727-.892 1.478-1.762 2.252-2.61.798-.876 1.62-1.73 2.467-2.56l.204-.2-.138-.16-.067-.08c-.287-.335-.46-.543-.595-.798-.067-.078-.277-.32-.53-.608M267.658 23.333l.724.647c-.214-.242-.43-.484-.643-.727l-.082.08zM277.846 47.934c-.108.148-.215.296-.32.445-.874 1.225-1.698 2.488-2.468 3.787-.782 1.318-1.51 2.674-2.18 4.062h2.35c.706-1.39 1.473-2.745 2.297-4.06.105-.17.213-.337.32-.506.663-1.03 1.36-2.036 2.092-3.015 1.097-1.47 2.27-2.882 3.514-4.228.46-.498.932-.987 1.41-1.467l.127-.126-.127-.147-1.263-1.442-.146.145c-1.23 1.228-2.404 2.515-3.513 3.856-.725.876-1.423 1.774-2.09 2.694M271.424 93.532c-.22-.81-.423-1.63-.605-2.458-.564.158-1.154.248-1.758.273l-.132.005-.205.005c.106.49.218.975.337 1.46.533 2.17 1.197 4.29 1.983 6.35l.38-.197 1.38-.72.124-.065-.124-.33c-.52-1.414-.983-2.855-1.382-4.323M283.45 28.917l.353.392c.082-.063.164-.126.245-.186l-.597-.435-.596-.435.597.662z" fill="#ec7848"/><path d="M324 1.627c-.74-.02-1.483-.033-2.23-.033-1.156 0-2.304.025-3.448.075-.65.027-1.3.064-1.948.108-.197.013-.395.027-.593.043l-.655.052c-2.288.193-4.547.484-6.774.87-.26.044-.52.09-.78.14-.307.054-.613.113-.917.173-.422.082-.843.167-1.262.257-.49.104-.977.213-1.462.327-.595.137-1.187.283-1.776.435-.792.204-1.578.42-2.36.65l-.454.134c-.88.262-1.755.54-2.62.833-.56.19-1.116.384-1.67.586-.573.207-1.145.423-1.712.644-1.94.757-3.84 1.59-5.702 2.493l-.806.397c-.294.148-.588.297-.88.448-.365.188-.727.38-1.088.572-.473.254-.942.512-1.41.775-1.19.67-2.362 1.37-3.513 2.1-.705.448-1.403.905-2.09 1.374-.108.072-.215.146-.322.22-.834.572-1.657 1.162-2.467 1.765-.364.27-.726.545-1.086.823l.094.1.992 1.04.377.395c.687-.528 1.384-1.044 2.09-1.55l.32-.228c.69-.487 1.386-.964 2.092-1.428 1.15-.758 2.32-1.486 3.514-2.183.468-.273.937-.54 1.41-.804.36-.2.723-.397 1.087-.592.293-.157.587-.31.88-.464.27-.138.538-.276.807-.41 1.858-.936 3.76-1.796 5.702-2.58.567-.227 1.14-.45 1.713-.664.552-.207 1.108-.41 1.667-.604.866-.302 1.74-.588 2.62-.86l.456-.14c.78-.235 1.567-.457 2.36-.668.588-.157 1.18-.307 1.775-.45.485-.115.973-.228 1.463-.335.42-.094.84-.183 1.263-.268.304-.062.61-.12.917-.178.26-.05.52-.097.78-.144 2.227-.395 4.486-.695 6.775-.893.22-.02.437-.036.656-.053l.595-.045c.647-.046 1.296-.083 1.947-.112 1.144-.052 2.293-.078 3.448-.078.747 0 1.49.014 2.23.035 41.01 1.18 73.893 34.793 73.893 76.088 0 41.295-32.883 74.908-73.892 76.088-.74.022-1.483.036-2.23.036-1.155 0-2.304-.028-3.448-.08-.65-.03-1.3-.064-1.947-.11-.2-.014-.396-.03-.594-.045-.218-.017-.437-.032-.655-.05-2.29-.198-4.548-.5-6.774-.896l-.78-.14c-.307-.06-.612-.12-.917-.182-.422-.085-.843-.174-1.262-.266-.49-.107-.977-.22-1.462-.335-.595-.142-1.187-.292-1.776-.45-.792-.21-1.578-.432-2.36-.667-.15-.045-.302-.093-.454-.14-.88-.27-1.755-.557-2.62-.86-.56-.195-1.116-.395-1.67-.602-.573-.214-1.145-.438-1.712-.667-1.942-.782-3.843-1.642-5.702-2.577-.27-.135-.538-.272-.806-.41-.293-.154-.588-.306-.88-.462-.365-.196-.727-.393-1.088-.593-.473-.262-.942-.532-1.41-.804-1.192-.697-2.364-1.424-3.513-2.183-.706-.465-1.403-.94-2.09-1.43-.108-.074-.216-.15-.322-.225-.835-.597-1.657-1.214-2.467-1.844-.762-.593-1.513-1.2-2.252-1.822-.466-.39-.926-.79-1.383-1.192-.8-.71-1.59-1.432-2.36-2.173-1.092-1.048-2.15-2.13-3.177-3.24-.596-.644-1.18-1.298-1.755-1.962-1.342-1.557-2.623-3.17-3.84-4.832-1.78-2.435-3.422-4.98-4.908-7.624l-.194-.067-.63-.216-.638.887-.345.48c.113.202.23.402.345.603 1.898 3.3 4.03 6.446 6.37 9.42 1.225 1.554 2.506 3.06 3.84 4.517.576.627 1.16 1.244 1.756 1.852 1.03 1.05 2.09 2.072 3.176 3.064.773.706 1.56 1.398 2.36 2.073.458.384.92.76 1.384 1.135.74.595 1.49 1.177 2.252 1.745.81.605 1.633 1.195 2.467 1.768.106.074.214.146.32.218.69.47 1.387.926 2.092 1.374 1.15.73 2.323 1.43 3.514 2.102.468.264.937.523 1.41.776.36.193.723.384 1.087.572.293.15.588.3.88.447.27.133.538.266.807.397 1.86.904 3.762 1.737 5.702 2.495.567.222 1.14.435 1.713.644.552.2 1.108.397 1.667.586.866.293 1.74.572 2.62.835.152.046.304.09.456.133.78.228 1.567.446 2.36.65.588.152 1.18.297 1.775.436.485.112.973.22 1.463.326.42.09.84.175 1.263.26.305.058.61.116.917.17.26.05.52.098.78.144 2.228.385 4.488.675 6.775.867.218.02.437.034.656.05.2.016.396.033.595.045.647.045 1.296.08 1.947.108 1.144.05 2.293.076 3.448.076.747 0 1.49-.012 2.23-.033 42.173-1.182 76-35.74 76-78.197S366.173 2.808 324 1.627" fill="#ec7848"/><path d="M253.964 114.927l.302.104c-.116-.22-.23-.445-.346-.67-.596-1.17-1.162-2.36-1.7-3.565l-1.87.98c.74 1.65 1.537 3.272 2.386 4.86l1.184-1.648.044-.06zM273.508 99.66l-.702.367-1.17.61c.366.886.757 1.76 1.17 2.623.32.666.652 1.326.998 1.977l1.254-.87.49-.34c-.166-.317-.33-.636-.49-.958-.556-1.115-1.073-2.25-1.55-3.41M253.92 45.283c1.85-3.628 3.984-7.088 6.37-10.35 1.217-1.663 2.498-3.274 3.84-4.83.575-.664 1.16-1.318 1.756-1.962 1.026-1.11 2.085-2.188 3.176-3.235l.074-.072-.074-.083-.562-.635-.858-.768c-.595.57-1.18 1.15-1.756 1.74-.595.605-1.18 1.223-1.755 1.85-1.334 1.453-2.615 2.958-3.84 4.51-2.34 2.972-4.472 6.118-6.37 9.415-2.834 4.923-5.148 10.183-6.864 15.706.697.2 1.353.485 1.94.867 1.296-4.22 2.95-8.28 4.924-12.152M269.218 24.755l.014-.014-.17-.153-.68-.607.118.135.562.5.156.14zM246.436 90.785c-.895-.38-1.69-.955-2.35-1.718.88 7.458 2.81 14.595 5.635 21.26l1.873-.98c-2.464-5.852-4.22-12.074-5.157-18.562M296.716 46.94l-.005-.005c-.474.363-.94.734-1.4 1.117l1.406 1.256.182.163c.4-.328.81-.65 1.223-.962l-.22-.24-1.184-1.33z" fill="#ec7848"/><path d="M277.846 107.976c-.108-.168-.215-.335-.32-.505-.423-.673-.83-1.356-1.222-2.05l-1.246.864-.49.34c.16.283.325.564.49.844.77 1.3 1.594 2.563 2.467 3.79.106.15.213.298.32.446.67.92 1.367 1.82 2.092 2.694 1.11 1.34 2.282 2.63 3.514 3.858.463.46.933.913 1.41 1.357.358.332.72.66 1.087.98.292.258.585.51.88.76.267.225.536.448.807.666 1.808 1.465 3.712 2.817 5.702 4.043.563.348 1.135.684 1.713 1.01.548.313 1.105.615 1.667.91.86.447 1.735.874 2.622 1.278.15.07.3.137.453.204.776.345 1.563.673 2.36.98.586.23 1.178.447 1.775.654.484.17.97.33 1.463.486.418.132.84.26 1.263.382.304.087.61.172.916.256.26.07.52.14.78.205 2.208.56 4.47.99 6.776 1.27.217.027.436.05.655.075.2.023.396.044.595.063.646.063 1.295.116 1.947.156 1.14.073 2.29.11 3.448.11.748 0 1.49-.018 2.23-.048 28.942-1.17 52.048-25 52.048-54.23 0-29.227-23.106-53.057-52.047-54.227-.74-.03-1.482-.05-2.23-.05-1.158 0-2.307.037-3.448.108-.652.042-1.3.094-1.947.158-.198.02-.397.04-.594.063l-.654.075c-2.307.282-4.568.708-6.775 1.27-.26.066-.52.134-.78.205-.307.082-.613.168-.917.257-.423.122-.844.25-1.262.382-.49.155-.978.317-1.462.485-.597.208-1.19.426-1.776.654-.796.31-1.583.636-2.36.98-.15.068-.303.136-.453.205-.888.403-1.762.83-2.623 1.278-.562.293-1.118.595-1.668.907-.58.327-1.15.666-1.714 1.013-1.274.785-2.513 1.62-3.714 2.505l.594.746.72.904c.783-.575 1.583-1.128 2.4-1.66.563-.367 1.134-.724 1.713-1.07.548-.328 1.104-.646 1.667-.955.86-.47 1.734-.92 2.622-1.343.15-.072.3-.144.453-.214.775-.36 1.562-.704 2.36-1.028.586-.238 1.178-.466 1.775-.683.484-.177.97-.346 1.463-.508.418-.14.84-.272 1.263-.4.304-.092.61-.18.916-.268.26-.074.52-.145.78-.214 2.205-.586 4.466-1.03 6.776-1.324.218-.028.436-.055.655-.08.198-.022.396-.044.595-.064.646-.067 1.295-.12 1.947-.164 1.14-.074 2.29-.112 3.448-.112.748 0 1.49.02 2.23.05 27.78 1.17 49.942 24.055 49.942 52.12 0 28.067-22.163 50.952-49.94 52.122-.74.03-1.484.05-2.232.05-1.158 0-2.308-.04-3.448-.113-.652-.042-1.3-.096-1.947-.162-.2-.02-.396-.043-.594-.065-.218-.026-.437-.052-.654-.08-2.31-.293-4.57-.737-6.775-1.322-.26-.07-.52-.14-.78-.213-.308-.086-.613-.176-.917-.268-.423-.13-.845-.262-1.262-.4-.49-.163-.978-.333-1.462-.508-.597-.218-1.19-.445-1.776-.684-.797-.323-1.584-.666-2.36-1.027l-.453-.213c-.89-.425-1.764-.87-2.623-1.344-.563-.308-1.12-.625-1.668-.953-.58-.347-1.15-.704-1.714-1.072-2-1.302-3.905-2.738-5.702-4.295-.27-.234-.54-.47-.806-.71-.296-.27-.59-.542-.88-.817-.367-.347-.73-.7-1.088-1.057-.478-.48-.95-.97-1.41-1.468-1.242-1.346-2.416-2.757-3.513-4.228-.732-.98-1.43-1.988-2.09-3.018" fill="#ec7848"/><path d="M306.653 70.158l-.033-.018-.188-.22-.065-.076c-.354.546-.68 1.112-.976 1.696-.632 1.248-1.127 2.58-1.462 3.97-.333 1.384-.51 2.828-.51 4.313 0 .837.057 1.66.166 2.47l.344-.173 1.463-.728.2-.1c-.042-.484-.065-.974-.065-1.47 0-2.103.4-4.113 1.128-5.958.263-.668.57-1.315.916-1.936.084-.15.17-.3.26-.45l-.26-.314-.757-.92-.16-.086zM307.44 68.36c-.044.055-.088.108-.13.162l.26.304.06.07.2.11.52.63.394.478.14-.183-.533-.58-.78-.847-.13-.142zM318.322 72.775c-.717.352-1.373.81-1.947 1.355-.21.198-.408.408-.594.627-.194.23-.376.472-.544.723l.545.617.595.673.324.367c.395-.747.95-1.396 1.622-1.9.712-.537 1.553-.91 2.467-1.068-.518-.612-1.02-1.223-1.47-1.8-.343.112-.676.248-.998.405M302.152 55.457c-.822.662-1.61 1.366-2.36 2.106l-.012.013.013.014 1.36 1.588c.326-.325.66-.64 1-.95.57-.52 1.163-1.016 1.775-1.49.196-.15.395-.3.595-.448l-.595-.53-1.008-.902c-.26.195-.516.396-.768.6M303.507 54.424c-.196.142-.39.286-.585.43l1.006.9.597.534c.136-.1.272-.198.41-.296l-1.007-1.106-.42-.462zM318.644 84.636c-.11-.072-.217-.147-.322-.225-.88-.663-1.565-1.574-1.947-2.63-.15-.41-.254-.846-.305-1.298l-.29.15-.655.343c-.338.176-.68.352-1.02.527.197.898.546 1.738 1.02 2.492.198.314.417.613.656.895.188.22.385.43.595.627.052.05.104.098.156.145.515-.248 1.14-.552 1.792-.87l.322-.156zM298.626 58.777l-.007.007.72.798.453.504.245.272.02-.023-.265-.288-.454-.494-.714-.776zM295.05 48.273c-.587.496-1.158 1.007-1.715 1.534l-.13.124.13.152 1.248 1.447c.154-.15.31-.296.466-.442.54-.504 1.097-.993 1.667-1.466l.176-.146-.176-.158-1.412-1.26-.256.215zM296.716 61.088c-.593.793-1.15 1.613-1.667 2.462-.632 1.033-1.205 2.106-1.715 3.215-1.828 3.974-2.848 8.397-2.848 13.06 0 2.913.4 5.734 1.146 8.41l1.288-.62-.032.007.447-.224.224-.11c-.08-.3-.155-.603-.225-.906-.485-2.108-.74-4.303-.74-6.558 0-2.257.255-4.454.74-6.562.412-1.792.99-3.52 1.714-5.17.49-1.113 1.046-2.192 1.666-3.227.78-1.302 1.656-2.538 2.623-3.697.148-.18.3-.358.453-.533l.012-.015-.012-.018-.454-.682-.742-1.112c-.662.73-1.29 1.49-1.882 2.28" fill="#ec7848"/><path d="M306.326 104.58c3.5 2.19 7.5 3.656 11.788 4.192.18.023.358.043.538.062 1.024.11 2.064.165 3.118.165.77 0 1.53-.03 2.282-.09 15.047-1.163 26.894-13.74 26.894-29.087 0-15.346-11.847-27.924-26.894-29.088-.753-.058-1.513-.09-2.282-.09-1.054 0-2.094.058-3.118.166-.18.02-.36.04-.538.064-4.246.53-8.21 1.975-11.685 4.13l1.86 2.274.24.282.002-.004.03.04.757.883.316.368.786.917-.046.067 1.056 1.293 1.942 2.376c1.475-.76 3.066-1.326 4.74-1.664.178-.037.357-.07.538-.1 1.013-.175 2.055-.265 3.117-.265.772 0 1.534.05 2.282.142 9.058 1.124 16.07 8.848 16.07 18.21 0 9.364-7.012 17.088-16.07 18.21-.748.095-1.51.143-2.283.143-1.063 0-2.105-.09-3.118-.264-.18-.03-.36-.064-.54-.1-4.055-.82-7.627-2.978-10.233-5.994-.568.258-1.126.512-1.51.706l-.044.025-.287.16v.002c-.668.372-1.282.716-2.08 1.027l-.068.025c-.54.184-.56.2-.58.215-.162.122-.34.258-.77.457l-.243.11c-.315.186-.933.576-1.384.86-.19.12-.356.225-.473.297-.082.052-.14.088-.164.1l-.054.03-.07.033-.127.057-1.98.893c.734 1.024 1.534 2 2.393 2.92 1.737 1.86 3.714 3.49 5.882 4.847" fill="#0075ac"/><path d="M297.152 95.488l2.356-1.063c.092-.05.49-.305.936-.584.657-.412 1.417-.88 1.438-.838.744-.344.233-.3 1.505-.732.814-.32 1.46-.705 2.218-1.124.226-.116.47-.233.72-.35.18-.086.362-.17.548-.254-.19-.263-.372-.53-.547-.803-.748-1.165-1.37-2.42-1.842-3.742l-.778.38c.22-.154.47-.317.74-.49-.226-.643-.417-1.303-.57-1.977l-.91.454.278-.046-2.8 1.33-5.107 2.427 1.607-.647-2.93 1.41c.77 2.363 1.828 4.595 3.138 6.65M284.987 42.83c-2.313 2.3-4.413 4.816-6.265 7.515-.667.97-1.302 1.967-1.903 2.985-.158.267-.314.536-.467.806-.22.384-.43.772-.64 1.163-.164.307-.326.617-.484.93H284L280.93 67.64h.1l-2.308 7.752-1.903 6.393-.467 1.568-.506 1.7c-.042.143-.087.286-.134.43-.373 1.145-.87 2.255-1.556 3.25-.83 1.207-2.006 1.965-3.338 2.34.536 2.438 1.244 4.812 2.11 7.11 1.173-.612 2.116-1.1 2.783-1.446.254-.132.468-.243.64-.33l.093-.047v.005l.01-.005.363-.187 1.9-.974c.797-.41 1.494-.77 1.504-.784l.216-.328.326-.184.227-.127.608-.343.94-.524c-1.374-4.114-2.117-8.514-2.117-13.09 0-10.458 3.885-20.01 10.29-27.29.445-.507.903-1.003 1.372-1.487l-1.372-1.592-4.832-5.603-.893-1.02zM273.906 27.775c.384.414 1.187 1.26 1.187 1.26l.026-.093c-.046-.787.432-.633.366-.315l-.302.33c.032.046-.02.09-.02.16l.55.615.64.716.106.12c.05-.232.146-.696.146-.696-.06-.462.09-.602.213-.572.088.022.162.136.123.284l-.124.14-.148.163c.015.303-.02.602 0 .927.045.05.094.1.147.158.22.24.49.542.728.813l.195-.18c0-.01.005-.013.013-.013l.186-.17c0-.23.03-.48.122-.594-.077-.827.43-.633.368-.314l-.302.33c.016.137.028.26.04.375.182-.165.367-.33.552-.492.79-.692 1.595-1.366 2.418-2.02l-.227-.252c-.722-1.045-.954-1.223-1.95-2.028-.077-.062-.157-.132-.24-.21-.552-.502-1.258-1.28-1.904-2.027-.16-.184-.318-.368-.467-.545-.235-.28-.452-.54-.64-.77-.432-.528-.71-.878-.677-.838-.575-.87-.49-.85-1.08-1.446-1.257 1.016-2.48 2.072-3.67 3.164 1.13 1.272 2.266 2.532 3.408 3.775.168-.315.404.03.212.245M304.523 56.29c-1.195.877-2.322 1.842-3.37 2.888l5.173 6.03 1.907 2.225c1.103-1.205 2.366-2.26 3.752-3.137l-1.774-2.17.164.5-1.53-2.033-.057.12c-.265-.203-.673-.64-.808-.944.112.092.34.275.34.275l.12-.172-.318-.37.005.067c-.23-.202-.4-.373-.556-.558l-1.244-1.113-1.802-1.61z" fill="#0075ac"/><path d="M276.82 106.31c.6 1.018 1.236 2.014 1.902 2.986 3.28 4.784 7.338 8.994 11.99 12.448 3.013 2.235 6.273 4.154 9.732 5.706 1.903.853 3.866 1.594 5.882 2.218 3.765 1.166 7.71 1.918 11.787 2.2l.54.033c1.03.062 2.07.094 3.117.094.765 0 1.525-.02 2.282-.052 27.754-1.195 49.89-24.07 49.89-52.12 0-28.048-22.136-50.923-49.89-52.118-.757-.032-1.517-.052-2.282-.052-1.047 0-2.086.03-3.118.092-.18.01-.36.022-.54.035-4.074.28-8.02 1.032-11.786 2.197-2.016.624-3.98 1.367-5.882 2.22-3.376 1.515-6.56 3.377-9.51 5.54l.533.67.17.21.15.158c.36.374.863.87.95.948l.07.06.105.125 4.847 5.838.227.254c.798-.563 1.618-1.098 2.457-1.604 1.87-1.128 3.835-2.112 5.882-2.936 3.695-1.49 7.654-2.46 11.788-2.824l.538-.044c1.03-.076 2.07-.116 3.118-.116.766 0 1.526.023 2.282.064 21.774 1.185 39.065 19.214 39.065 41.283 0 22.07-17.29 40.1-39.065 41.284-.756.04-1.516.063-2.282.063-1.05 0-2.09-.04-3.118-.117-.18-.013-.36-.028-.538-.043-4.134-.363-8.093-1.333-11.788-2.822-2.047-.825-4.012-1.81-5.882-2.937-3.65-2.2-6.93-4.95-9.73-8.133-1.564-1.777-2.977-3.688-4.22-5.716l-3.68 2.525-.255.175-.326.065-3.512.707-1.903.384-.39.078-.077.053-.05.034.05.086c.153.27.31.538.466.805" fill="#0075ac"/><path d="M306.326 57.524l-1.392-1.532-.41.296 1.802 1.61 1.242 1.11c-.142-.17-.272-.35-.427-.585l-.814-.9zM276.82 103.65l1.902-.383 3.203-.645 3.77-2.584c-1.006-1.795-1.884-3.67-2.618-5.62l-1.54.864c-.126.194-1.605 1.014-2.815 1.663-.763.41-1.42.75-1.56.825l-.343.174-.467.24-.64.333c-.61.315-1.35.7-2.205 1.144.614 1.493 1.297 2.95 2.04 4.368l.165-.113.083-.06.557-.11.466-.095zM308.122 59.503l-.554-.495.003.004.552.492zM261.22 104.304c-.447-1.103-.864-2.22-1.25-3.353-1.062-3.1-1.897-6.306-2.483-9.597h-8.138c-1.047 0-2.03-.19-2.914-.568.936 6.488 2.692 12.71 5.157 18.56l8.377-4.386 1.25-.656zM317.707 79.506l.075.08.33-.172.408-.212-.407-.46-.09-.102-.185.095c-.023.083-.045.17-.065.258-.034.18-.056.35-.066.512M276.353 31.13l.466.417.5.448.015-.013-.516-.46-.467-.417-.64-.572-6.48-5.793-.016.015 6.496 5.803.64.572zM256.034 115.354l.602-1.727 2.052.39 1.118-.543.164-1.284.085-.674 2.538.646 1.963-.846c-.993-1.8-1.902-3.654-2.725-5.554l-1.86.974c-2.46 1.288-5.067 2.653-7.75 4.06.64 1.434 1.32 2.848 2.046 4.235l1.427.49.34-.166" fill="#0075ac"/><path d="M324.052 3.737c-.758-.022-1.518-.037-2.282-.037-1.044 0-2.083.022-3.118.063l-.538.025c-4.02.19-7.956.692-11.788 1.482-1.99.41-3.952.898-5.882 1.46-3.345.975-6.594 2.174-9.73 3.577-4.215 1.887-8.225 4.144-11.992 6.732-.642.44-1.276.89-1.903 1.35-.157.114-.312.23-.467.345l-.64.48-.278.213.278.29.64.672.466.49 1.902 1.994 4.233 4.44c2.46-1.822 5.052-3.474 7.758-4.94 3.1-1.68 6.354-3.118 9.73-4.285 1.922-.665 3.885-1.24 5.883-1.726 3.81-.925 7.75-1.514 11.788-1.737.18-.01.358-.02.538-.028 1.033-.05 2.073-.075 3.118-.075.764 0 1.524.018 2.282.043 35.006 1.204 63.017 29.956 63.017 65.255 0 35.3-28.012 64.052-63.018 65.254-.758.027-1.518.045-2.282.045-1.045 0-2.085-.026-3.118-.075l-.538-.028c-4.038-.224-7.98-.813-11.788-1.736-1.998-.485-3.96-1.062-5.882-1.725-3.377-1.168-6.63-2.603-9.73-4.283-4.313-2.337-8.334-5.145-11.992-8.355-.646-.567-1.28-1.146-1.903-1.738-.157-.148-.313-.296-.467-.445-.215-.21-.428-.42-.64-.63-4.01-3.99-7.504-8.496-10.374-13.412l-2.124.915-.493.213-.52-.132-.812-.208-.023.186-.108.85-.763.372-.528.257-.59.287-.468.228-.514-.098-.723-.137-.154.443-.213.614-.588.287-.34.165-.582.28-.415-.14c1.395 2.484 2.93 4.88 4.586 7.18 4.42 6.14 9.73 11.592 15.743 16.17.212.16.426.322.64.48.155.116.31.23.466.345.626.46 1.26.912 1.902 1.352 3.766 2.588 7.777 4.847 11.99 6.733 3.138 1.403 6.387 2.6 9.732 3.576 1.93.56 3.89 1.05 5.882 1.46 3.832.79 7.77 1.292 11.788 1.48.18.01.358.018.538.025 1.035.042 2.074.066 3.118.066.764 0 1.524-.015 2.282-.036 40.985-1.208 73.84-34.81 73.84-76.086 0-41.28-32.855-74.88-73.84-76.086" fill="#0075ac"/><path d="M286.122 41.734l.95 1.085 3.642 4.22 2.49 2.89c.68-.647 1.38-1.27 2.1-1.872l-4.59-4.1-3.552-3.173c-.35.312-.697.63-1.04.95M250.453 58.78c.898-1.376 2.257-2.33 4.06-2.45 1.108-.076 2.22-.1 3.33-.1h3.025c3.33-8.593 8.43-16.303 14.845-22.688.212-.21.425-.42.64-.628l.048-.048-.047-.055-.194-.22-.233-.258-.214-.234-.184-.198-.4-.42-.003-.042-1.08-1.208-.004.008-.598-.65c-.248-.263-.526-.558-.693-.74l-.98-1.057.01-.013c-.884-.972-1.766-1.954-2.646-2.944-3.366 3.223-6.437 6.753-9.167 10.543-4.78 6.633-8.518 14.065-10.974 22.06.553.36 1.046.804 1.457 1.344M325.992 80.734c-.086.38-.194.708-.34 1.022-.144.312-.325.607-.56.92l-.03.043c-.24.297-.484.544-.76.767v.006c-.08.065-.163.128-.25.19-.2.138-.418.265-.664.39l-.02.01c-.006.006-1.28.628-2.773 1.358.38.08.773.12 1.174.12.81 0 1.582-.167 2.282-.47 2.033-.882 3.456-2.91 3.456-5.267 0-2.358-1.422-4.384-3.456-5.266-.37-.16-.762-.284-1.17-.364l.83.954.34.39.747.86.134.158.012.02c.26.31.456.596.61.894.158.302.28.625.385 1.006l.014.056c.09.378.138.723.145 1.078.008.362-.025.706-.096 1.074l-.012.05z" fill="#0075ac"/><path d="M317.838 78.736c.023-.078.047-.153.072-.226l.115.13.088-.045.54-.278c.504-.26.97-.502 1.384-.722-.288.162-.5.346-.72.618-.2.265-.327.5-.416.79l-.248.13-.13.07.13.147.15.168c-.026.27-.003.516.064.806.11.396.247.67.507.988l-.72-.782-.54-.583-.33-.36-.08.042.004-.124-.44-.478.57-.292zm-1.513-.73c-.173.522-.274 1.075-.29 1.65l.406-.207.484.586-.854.446c.172 1.51.93 2.844 2.043 3.764.17.14.346.27.53.39l.01-.004c1.953-.952 4.026-1.967 4.026-1.967.484-.245.81-.51 1.153-.933.083-.11.154-.216.22-.322.19-.314.313-.625.403-1.02.103-.54.094-.96-.033-1.494-.094-.34-.208-.615-.37-.88-.09-.146-.193-.288-.316-.436-.826-.968-1.915-2.19-2.948-3.41-.778.133-1.5.423-2.137.836-.187.12-.367.253-.54.395-.577.48-1.06 1.07-1.414 1.737l.485.55-.807.377-.052-.057zM300.057 60.336l-.02.022.407.452 5.215 5.788.666.778.984 1.146c.042-.054.086-.107.13-.16l-1.114-1.21c-1.962-2.13-3.922-4.263-5.882-6.395l-.387-.42zM292.594 79.823c0 2.58.335 5.082.965 7.464l1.136-.566-.03-.07 3.752-1.784 2.026-1.01 1.818-.905 1.322-.66c-.11-.806-.166-1.63-.166-2.466 0-3.653 1.068-7.057 2.908-9.916l.04-.064-.04-.048-1.838-2.143h-.002l-4.042-6.072-.64-.96c-4.49 5.132-7.21 11.85-7.21 19.204M290.24 39.393c-.187-.23-.375-.466-.564-.703-.856.67-1.69 1.365-2.504 2.087l3.54 3.165 4.6 4.11c.458-.383.925-.754 1.4-1.117l-.142-.16-4.868-5.86c-.092-.082-.597-.58-.99-.984-.273-.283-.492-.52-.473-.537" fill="#0075ac"/><path d="M137.646 43.385l.486.008.216.004-.378-.046c-.07.006-.306.033-.324.035m0 0zM48.267 99.092zm-.213.04l.213-.04-.432-.004c-.656-.006.165.037.22.043m-.003 0h0m95.64-55.516c.505.008 1.515-.014 1.514-.014-.54-.073 0-.01.162.003l.595-.03-1.405-.065c-.796.132-.934.096-.866.105m-9.18-.324l.917.015c-.256-.027-.036-.005.11.002l.38-.033-.81-.015c-.14.004-.597.03-.597.03M53.56 99.312c.507.05 1.58.017 1.57.017-.47-.09-.156-.058.107-.04.2-.01.595-.033.595-.033l-1.46-.016c-.85.072-.88.07-.81.073m-7.78-.33h.002zm-1.35.067l.92.01c-.283-.063-.078-.046.054-.04l.377-.037-.81-.01-.54.076zm140.67 3.747h-.005l-.217-.002c-1.42.1-1.46.094-1.35.106.846.075 1.79.032 2.646-.01l-.473-.042c.25.008.49-.006.798-.034-.446-.03-1.317-.017-1.397-.016m70.842-91.63l.008-.023v.004l-.007.017zm-198.92 87.7c1.42.192 4.267.21 4.267.21l-2.268-.228c-2.076.01-2.115 0-2 .018m249.76-16.407h.002-.002zm10.14-2.424l-.483-.587c-4.425 2.254-10.238 5.19-12.734 6.93 1.1-.535 2.06-1.03 3.193-1.465 3.035-1.223 6.675-3.128 10.024-4.88m1.1-1.395l-.185.096c-.025.082-.046.17-.066.257-.035.18-.057.35-.067.513l.075.08.738-.384-.495-.562zm-.114-.13c-.025.072-.05.148-.07.226l-.574.292.44.478-.004.123.08-.043 1.59 1.725c-.258-.317-.397-.592-.506-.987-.067-.29-.09-.538-.065-.806l-.28-.318.38-.198c.09-.292.216-.526.416-.79.22-.273.433-.457.722-.62-.582.31-1.263.66-2.013 1.046l-.115-.13zm-61.87-68.02h-.002zm-92.134 33.283c-6.73-.183-13.403-.403-19.718-.554l-.433-.01c-.684.016-2.054.045-2.054.045-1.866.138-1.436.135-1.406.136.094.043.782.054.917.057 1.947.035 7.456.11 7.24.17-.1.066-.026.076-.002.08-.12.04.205.044.215.045.595.01 1.783-.01 1.783-.01 4.317-.038 8.863-.02 13.46.04m12.608.277c-4.153-.125-8.4-.22-12.608-.277 4.205.115 8.432.215 12.608.276m65.575-2.178l-.507.047c.168-.007.334-.023.506-.048m66.03 17.632zM50.485 99.077c-.245 0-.558.013 1.137-.148 0 0 1.766.02 2.648.028l-1.19.067c-.514-.016-1.068-.047-1.08.03l1.404.014c0 .012 1.922.016.758-.072 0 0 5.653.103 8.48.135l-1.132-.093 40.847.335c.09-.084 4.71.273 5.075.298 0 0 7.89.112 11.83.213 7.005-.93 20.25-.74 27.893-.857.746-.05 4.56.06 2.497-1.1.49-.664 5.506-.353 6.543-.33 2.24.023 4.514.06 6.753.034 1.996.29 1.51 1.086-1.735.505l3.45.924c1.137-.152-.6-1.807-.95-2.147 3.65.542 4.79.63 8.48.417 0 0-1.008-.09-1.512-.138-.046-.003-.206-.008 1.028-.07.965-.005 1.14-.01 1.998.104v.08c.108-.007 2.555-.135 3.51 0l-4.758.35 2.702.07s4.36-.192 6.54-.29l6.97.038c-.012 0 7.872-.31 11.783-.27 5.035.125 10.07.25 15.103.377.295.006.524.06.79.187.264.134.446.28.632.51.18.233.28.438.353.726.062.29.064.518.006.807l-4.292 18.84c-.993 4.774-2.068 9.528-3.115 14.29 4.19-2.152 61.126-32.06 67.235-35.175.365-.19 4.168-2.172 4.377-2.488-.006.003 4.123-2.325 6.205-3.423l9.2-4.432-1.607.647 7.906-3.757-.278.046 3.818-1.902-1.324.733.297-.01 2.27-1.015s-.618.21-.927.317c1.557-.805 3.104-1.593 4.695-2.33 1.266-.56 2.535-1.142 3.803-1.73l-7.766-9.42-.203-.112-1.97-2.297-7.706-8.553c6.133 6.68 12.277 13.35 18.424 20.02l.807-.377c-2.206-2.5-5.523-6.258-5.67-6.43l-14.668-17.104-9.774-11.335-7.584-8.658c-1.743-2.13-1.084-.93-1.36-3.32l.302-.328c.062-.32-.445-.513-.368.314-.147.18-.134.716-.097.94.023.024-.527-.556.017.267l.16.434s-.964-1.122-1.473-1.656c-.017-.325.017-.624.002-.927l.27-.304c.092-.347-.442-.51-.336.29l-.147.694s-.864-.967-1.298-1.45c0-.072.054-.115.022-.16l.302-.33c.066-.318-.413-.472-.368.315l-.025.093s-.803-.846-1.187-1.26c.192-.213-.045-.56-.21-.246-4.647-5.052-9.184-10.405-13.66-15.62-1.116-1.37-2.14-2.605-3.22-3.86-.362 1.14-.686 2.16-.777 2.438l.688-2.543-.042-.05c-.712 2.26-2.206 6.99-3.088 9.7l-5.227 16.708c-.927 2.875-1.73 5.765-2.64 8.63.006.002-.61 1.72-.59 1.736-.25.714-.598 1.187-1.203 1.64-.625.422-1.184.595-1.938.598-3.027-.057-9.546.085-12.22-.354-1.674-.218-4.724-.12-6.537-.117-2.81-.45-5.687-.638-8.52-.957 0 0-1.77-.02-2.646-.128-1.086-.175-2.148-.078-3.24-.058 0 0 .51-.228.76-.348 0 0-1.728-.073-2.59-.127.705.29.9.476 1.72.473-1.103.166-7.46-.582-8.904-.722 0 0 .352-.032.535-.03l-.91-.016c.02 0 .185.01.268.045 0 0-2.74.03-4.108.047-1.11-.005-2.24-.193-3.24-.18-1.156.018-2.352-.022-3.51-.06-1.727.01-2.172.162-4-.032-2.706-.112-5.502-.21-8.344-.296 5.718.083 11.34.09 16.673-.04.125-.143 5.084.38 5.504.42 0 0 7.636.175 11.453.243.5-.238 1.866-.94 2.343-1.046 0 0 2.438-.225 2.544-.237-18.513-1.424-43.937-.657-63.265-.843.08-.45 1.24-.51 1.576-.536 0-.04 57.816-.308 63.342-.324.26.572 1.534.174 2.422.486.192.04 1.12-.3 1.573-.334 0 0 1.154-.19 1.734-.25l3.188.015-.6.392s.988.012 1.46-.095c1.28-.24.677-.058 1.347.225-.09-.006 2.59.22 3.462-.18.612-.285 1.062-.636 1.68-.252l5.294.094 2.404.106.934-2.87c.023-.055.05-.034.072-.09.592-1.006.346-.558.413-1.4l2.806-8.745.49-1.773-.092.027s.29-1.155.437-1.733c.07.202.142-.417.162-.63l.293-1.552-.277.592c.078-1.116.112-1.14.593-2.08l.114.037c.048-.214.672-2.7 1.05-3.352l-.99 4.734.89-2.608 1.603-6.354s1.212-3.81 1.82-5.715c.2.135.153-.42.183-.566.26.09.46.188.482-.183 0-.41-.155-.24-.382-.124l.034-.104c-.003.008 1.285-5.018 1.303-5.016.213-.628.492-1.056.975-1.51.506-.434.96-.662 1.61-.81.655-.12 1.17-.09 1.804.113.63.226 1.057.517 1.504 1.013 0 0 2.475 2.638 2.71 2.894 0 0 .344 1.253.356 1.9-.037-.034 1.272 1.23 1.2 1.463.03.576 2.095 2.768 2.565 3.424.29.436 1.424 1.397 1.877 1.88 0-.002 2.403 2.44 3.494 3.764 0 0 1.463 1.738 2.247 2.56l-.988-.72s1.063 1.275 1.648 1.86c1.01 1 .777.795 1.45 1.816-.097-.12 2.587 3.284 3.927 4.392.997.806 1.23.982 1.95 2.028l2.243 2.49c2.452 2.52 4.863 5.683 7.083 8.447-.046.038 1.306 1.383 1.464 1.52l4.867 5.862s.888.995 1.332 1.49c0 0 6.164 6.768 9.24 10.157.323.493.54.76.984 1.148l-.005-.066.318.37c0-.002-.078.113-.117.17l-.342-.275c.136.304.544.74.81.942l.055-.12 1.53 2.033-.162-.5 2.156 2.636c-.01-.006-.02-.014.734.795 1.993 1.885 3.793 3.288 5.336 5.603 1.292 1.913 3.756 4.612 5.3 6.42.35.42.54.792.686 1.318.128.534.136.954.033 1.492-.12.53-.297.908-.623 1.343-.342.424-.668.69-1.154.935 0 0-6.502 3.185-7.33 3.56l-1.603.78s-1.633.992-2.54 1.326l.186-.36c-.235.034-.694.366-.887.524l-.053-.11c-.324-.08-.14-.19-.605.116-.627.406-.083.258.238.243l-.35.393c-1.126.687-2.872 1.367-4.128 2.01-.758.42-1.404.805-2.218 1.123-1.272.43-.76.388-1.506.732-.033-.073-2.145 1.296-2.372 1.423.002 0-7.885 3.553-11.818 5.348l-1.26-.24s-3.003 2.06-4.505 3.088l-6.13 1.236-9.974 6.914-3.228 1.392-2.537-.647-.25 1.96s-.745.36-1.117.543l-2.052-.39-.602 1.725-.34.166-1.73-.594-1.685 2.344-3.88 1.17-3.294 2.364-2.693.146s-5.22 3.435-7.828 5.153c0 0-11.84 5.717-17.752 8.592 0 0-2.728 1.31-4.098 1.95l-2.364 1.172c-.69.32-1.27.42-2.028.357-.755-.096-1.304-.316-1.912-.774-.59-.48-.94-.96-1.214-1.67-.246-.72-.286-1.315-.143-2.06l1.43-6.964 2.283-11.28c.766-3.236 1.304-6.1 1.837-9.387.176-1.025.368-2.05.567-3.075-2.538-.02-5.077-.05-7.615-.082-2.843-.104-5.086-.17-7.995-.13 0 0-5.693 0-8.537-.054l4.055-.2s-7.71-.005-11.563-.047c0 0-11.67.01-17.507.005-2.968.006-6.09.174-9.025.1-3.607-.112-11.498.17-14.477-.363-1.33-.224-4.99-.1-6.538-.072-3.276-.702-6.657-.885-9.98-1.482 0 0-2.59-.388-3.886-.365.064-.003.1-.036.163-.038 0 0-.9-.054-1.35-.096.444.12.654.198 1.133.175-1.358.164-7.187-.422-8.856-.542-1.455-.044-2.873.04-4.323.032 0 0-2.198-.05-3.297-.078l-3.457-.038c-11.057-.11-22.488-.417-33.5-.254-.193.005-.784.02-.97-.05-1.64-.24-3.12-.056-4.755-.055-.015 0-.33 0-.27-.042-.032-.005-.086-.01.002-.04-.47-.177-6.222-.115-7.234-.12.028 0-.745.015-.924-.052m92.728-55.714l-.328-.006h.004c-1.255-.105.207-.04.27-.035l.92-.024c.84.14-1 .063-.866.066m112.364-31.265l.368-.932-.375.95.005-.018zm-.12.316l.005-.023.014-.038v-.002.004-.004l.017-.048.078-.186-.084.21.09-.227.312-.75c-.23.83-.487 1.726-.782 2.53-.046.107-.027.07.37-1.525l-.013.036v.004l-.005.018v.003zm-.004.008c-.01.037-.007.025.003-.007l-.003.008z" fill="#00a2d9"/><path d="M156.962 68.294h9.255v.546h-9.255v-.546zm-92.596 8.98H75.87l-1.44 3.454H63.505c-.172 0-.473-.023-.532-.23-.128-.45-.076-.887.084-1.323.22-.595.54-1.126.97-1.59.074-.076.222-.23.34-.312m-6.028-10l20.45-.065c.028.217.028.492.024.622-.004.132-.034.556-.13.663-.058.036-.234.04-.297.04H61.423c-1.104 0-2.228.115-3.29.425-.134.04-.262.085-.387.137l.592-1.822zm86.675 5.272l-1.24 4.08c.03-.982-.15-1.95-.758-2.688.738-.376 1.41-.836 1.998-1.392m64.136-13.01l.335-1.523h-31.238l-.706 2.32c-.937-1.658-2.598-2.34-4.498-2.32l-18.45.205c-1.43.016-2.98.23-4.204 1.017-.52.334-.95.768-1.304 1.26l.568-2.482h-9.94l-1.804 7.813c-.17.744-.4 1.65-.747 2.336-.004.01-.013.03-.02.037-.066.047-.302.057-.376.057h-8.916c.075-.455.25-1.036.328-1.276l2.908-8.966H97.15c-1.1 0-2.19.18-3.246.49-1.57.464-2.542 1.7-3.087 3.183-.143-2.655-2.29-3.697-4.743-3.672-4.158.04-8.317.05-12.476.027-4.17-.023-8.34-.028-12.51-.028h-1.056l-1.128 2.85c-.235-.416-.546-.804-.942-1.16-1.318-1.184-2.942-1.69-4.7-1.69H10.59L0 89.542h11.494l6.508-19.427c.247-.736.565-1.31 1.4-1.31h7.156c.01.05.02.103.025.136.075.535.12 1.224-.046 1.746L20.56 89.54h10.43l6.3-19.125c.12-.358.4-1.08.76-1.276.453-.245.955-.335 1.465-.335h6.767c.18 0 .596.01.876.066-.015.138-.06.298-.084.365L40.337 89.54H51.11l.813-2.507c1.006 1.832 2.86 2.508 4.88 2.508h35.465l7.414-20.695c.038-.107.13-.34.217-.458.276-.09.603-.112.884-.112h16.068l-6.46 21.266h10.447l2.985-10.62c.056-.202.22-.715.38-.956.656-.037 1.315-.05 1.972-.05h6.47c.267 0 .947.015 1.35.105-.01.13-.05.27-.08.355L130.16 89.54h10.438l1.234-4.645c-.014.284-.018.57-.013.854.047 2.63 1.983 3.82 4.442 3.79 3.804-.04 7.61-.05 11.415-.027 3.816.023 7.634.028 11.45.028h1.15l3.11-10.156-20.393.06.005-.114c.003-.065.018-.21.047-.295.077-.02.204-.024.26-.024h15.523c1.038 0 2.083-.12 3.075-.435 1.463-.467 2.288-1.79 2.75-3.174l2.29-6.883h9.14L178.64 89.54h10.82l7.38-21.023h9.304L199.11 89.54h11.233l10.27-31.528h-10.955l-.51 1.522zm40.53 6.62l1.66-5.05c.515-1.564 1.554-2.85 3.295-2.97 1.067-.07 2.14-.095 3.21-.095h23.793l-2.592 9.632h-17.53c-1.072 0-2.04.197-2.417 1.295l-3.756 10.892-.022.068c.35.108 1 .13 1.24.13h7.714c.712 0 1.04-.29 1.29-.917h-9.268l3.34-9.686H278.6l-4.49 15.083c-.33 1.11-.785 2.21-1.444 3.17-.874 1.27-2.287 1.794-3.785 1.834-3.263.09-6.527.002-9.79.002h-9.74c-1.908 0-3.487-.79-4.457-2.454-.894-1.535-1.04-3.208-.486-4.893l1.575-4.792-4.046 12.14h-10.812l6.665-20.285c.07-.214.237-.797.242-1.136-.048-.004-.094-.004-.125-.004h-7.947c-.272 0-.822.027-1.072.18-.223.21-.513 1.017-.604 1.29l-6.6 19.954h-11.222l10.795-31.53h22.998c2.374 0 4.71.78 5.45 3.257.475 1.6.37 3.28-.025 4.886" fill="#c74535" fill-rule="evenodd"/><path d="M2.16 87.988l9.546-28.423H53.26c1.48 0 2.697.428 3.664 1.293.957.864 1.208 2.007.752 3.42l-7.696 23.71h-7.49l6.06-18.264c.222-.697.213-1.283-.03-1.756-.25-.474-.994-.716-2.24-.716h-6.765c-.837 0-1.57.177-2.203.52-.642.344-1.134 1.06-1.497 2.157l-5.948 18.058h-7.185l5.335-16.833c.205-.65.242-1.468.103-2.435-.14-.975-.614-1.468-1.432-1.468H19.4c-1.393 0-2.35.79-2.87 2.37l-6.154 18.366H2.16zM83.367 87.988l8.867-25.653c.446-1.274 1.143-2.064 2.11-2.342.957-.288 1.896-.428 2.807-.428h22.977l-2.343 7.157h-17c-.613 0-1.124.084-1.542.25-.41.16-.753.614-1.023 1.35l-7.046 19.666h-7.807zM112.486 87.988h7.176l2.667-9.49c.37-1.338.9-2.035 1.57-2.072.67-.047 1.422-.066 2.278-.066h6.468c1.57 0 2.482.25 2.723.754.24.492.25 1.077.02 1.756l-3.07 9.118h7.084l2.453-9.248c.53-1.99.483-3.29-.12-3.904-.605-.613-1.655-1.013-3.133-1.208 4.043-.54 6.422-2.352 7.13-5.447l1.97-8.615h-6.757l-1.525 6.61c-.27 1.16-.558 2.062-.873 2.685-.318.632-.913.948-1.786.948h-9.545c-1.07 0-1.248-1.106-.523-3.31l2.25-6.933h-7.826l-8.634 28.423zM167.77 69.157c0 .82-.418 1.237-1.245 1.237h-9.88c-.828 0-1.237-.418-1.237-1.237v-1.18c0-.827.41-1.236 1.237-1.236h9.88c.827 0 1.245.41 1.245 1.237v1.18zm8.515-7.882c-.577-1.16-1.646-1.728-3.226-1.71l-18.45.205c-1.47.01-2.594.27-3.384.77-.79.512-1.403 1.48-1.83 2.92l-5.17 17.018c-.594 1.97-.882 3.718-.854 5.242.028 1.524.985 2.287 2.873 2.268 3.82-.046 7.63-.056 11.44-.027 3.82.02 7.632.028 11.442.028l2.156-7.045-18.737.055c-.81.01-1.17-.585-1.096-1.765.074-1.18.687-1.776 1.858-1.776h15.522c.976 0 1.84-.12 2.602-.362.753-.242 1.34-.967 1.748-2.184l3.123-9.387c.558-1.673.55-3.086-.018-4.248M177.15 66.964l2.248-7.4h28.154l-1.637 7.4h-10.177l-7.38 21.024h-7.52l7.446-21.024H177.15zM201.268 87.988h7.947l9.257-28.423h-7.696l-9.508 28.423zM212.636 87.988l9.73-28.423h21.89c2.21 0 3.53.716 3.96 2.148.427 1.44.306 3.15-.355 5.14l-7.043 21.135h-7.548l5.994-18.245c.698-2.12.242-3.18-1.357-3.18h-7.946c-.846 0-1.496.15-1.942.447-.456.298-.856.995-1.21 2.092l-6.244 18.886h-7.928zM252.816 61.592l-6.934 21.09c-.418 1.29-.306 2.5.353 3.623.65 1.125 1.683 1.683 3.114 1.683H268.84c1.208-.065 2.053-.446 2.547-1.162.492-.715.91-1.617 1.235-2.732l3.895-13.087h-15.773l-2.268 6.58h7.79c1.02 0 1.29.67.79 2.008-.494 1.348-1.423 2.017-2.78 2.017h-7.715c-2.304 0-3.196-.753-2.685-2.258l3.755-10.894c.53-1.56 1.822-2.342 3.885-2.342h16.34l1.757-6.525h-21.768c-1.18 0-2.212.028-3.104.093-.893.056-1.534.697-1.924 1.906M75.464 82.28h-11.96c-1.143-.167-1.812-.62-2.028-1.357-.2-.732-.163-1.496.12-2.286.302-.8.728-1.506 1.297-2.11.564-.613 1.07-.88 1.485-.808h13.82l-2.734 6.56zm13.804-20.438c-.053-1.533-1.117-2.296-3.176-2.275-4.166.042-8.337.052-12.503.026-4.166-.02-8.338-.026-12.503-.026l-2.434 6.15 20.466-.062c.873 0 1.284.743 1.247 2.217-.047 1.47-.71 2.212-1.98 2.212H61.424c-1.07 0-2.028.122-2.855.363-.827.243-1.46.98-1.907 2.186l-3.418 9.39c-.606 1.66-.595 3.076.026 4.235.623 1.153 1.797 1.733 3.535 1.733H80.8l7.504-20.923c.695-1.944 1.012-3.682.964-5.225" fill="#ea6e40"/><path d="M47.887 40.053l-2.912 8.242c-.55 1.556-.53 3.16.372 4.573.618.968 1.523 1.533 2.54 1.825v-14.64zm-29.3-16.68h10.166l-7.23 20.272c-.16.445-.433 1.436-.113 1.875.248.34.967.392 1.337.392h8.746c.812 0 1.574-.23 2.292-.597.617-.317.966-.846 1.183-1.495l6.85-20.447h6.07v9.98l-5.7 17.337c-1.08 3.28-4.21 4.265-7.386 4.265H16.567c-1.894 0-3.843-.492-5.217-1.866-1.39-1.39-1.57-3.223-.968-5.037l8.205-24.68zM80.784 40.33v14.13c-.93-.4-1.722-1.062-2.26-2.065-.947-1.757-.785-3.707-.122-5.528l2.382-6.537zm0-16.957H57.61c-2.66 0-4.394 1.602-5.255 4.037l-4.468 12.643v14.64c.645.186 1.334.262 2.026.262h22.815l2.927-8.81h-18.51c-.134 0-.53-.02-.66-.102-.16-.33.162-1.45.262-1.75l3.458-10.364c.466-1.398 1.25-2.063 2.74-2.063H80.72l.064-.184v-8.31zm-32.897 0h3.28l-3.28 9.98v-9.98zm32.897 8.31l2.925-8.31h-2.926v8.31zm15.238 2.21v8.793h-5.004c-.114.084-.257.23-.327.306-.428.46-.748.988-.965 1.58-.16.43-.21.862-.084 1.306.056.192.352.21.508.21h5.874v8.867H83.446c-.946 0-1.857-.15-2.662-.494V40.33l1.038-2.85c.52-1.425 1.427-2.716 2.948-3.16 1.064-.31 2.19-.427 3.296-.427h7.956zm0-10.51v9.268l-13.054.042 3.69-9.32h1.073c2.765 0 5.528.003 8.292.01m0 31.574V46.09h5.034l1.417-3.403h-6.45v-8.793h9.005c.06 0 .217-.006.28-.035.088-.12.117-.514.12-.643.005-.125.005-.384-.02-.595l-9.386.03v-9.27c1.406.006 2.813.01 4.22.02 4.158.022 8.317.014 12.475-.03 2.5-.024 4.683 1.057 4.774 3.805.067 1.972-.395 3.964-1.057 5.81l-7.876 21.97H96.022z" fill="#0075ac" fill-rule="evenodd"/><path d="M85.296 31.105l2.435-6.152c4.165 0 8.34.008 12.502.027 4.165.028 8.338.02 12.502-.027 2.063-.02 3.123.743 3.178 2.276.046 1.543-.27 3.28-.966 5.223l-7.5 20.922h-24c-1.737 0-2.91-.576-3.532-1.728-.622-1.162-.63-2.575-.027-4.24l3.42-9.387c.446-1.208 1.078-1.942 1.906-2.183.827-.242 1.784-.363 2.853-.363h16.963c1.272 0 1.932-.744 1.978-2.212.038-1.478-.372-2.222-1.245-2.222l-20.467.065zm5.726 10.002c-.42-.075-.92.195-1.487.808-.568.604-.995 1.31-1.292 2.11-.29.79-.326 1.552-.12 2.286.213.735.882 1.19 2.025 1.358h11.962l2.733-6.56h-13.82zm-33.877 6.617c-2.138 0-2.77-1.31-1.897-3.93l3.458-10.365c.697-2.092 2.11-3.143 4.24-3.143H79.6l1.878-5.334h-23.87c-1.812 0-3.066.994-3.763 2.983l-7.38 20.885c-.437 1.228-.363 2.297.213 3.198.577.902 1.655 1.357 3.235 1.357h21.675l1.878-5.65h-16.32zm-37.418-22.77h6.785l-6.48 18.16c-.928 2.593-.017 4.052 2.715 4.378h8.746c1.07-.028 2.074-.288 3.012-.772.93-.474 1.59-1.273 1.96-2.398l6.49-19.37h6.03l-8.3 25.244c-.696 2.12-2.657 3.18-5.883 3.18H16.567c-1.87-.075-3.235-.55-4.1-1.404-.855-.864-1.05-2-.585-3.42l7.845-23.6z" fill="#00a2d9"/></svg>