<svg xmlns="http://www.w3.org/2000/svg" width="400" height="341.39"><path d="M106.678 152.648c-21.51-39.737-53.235-69.405-57.373-67.79-4.138 1.618-3.39 55.604 22.42 97.987 25.812 42.384 51.24 66.974 62.186 61.567 10.948-5.407-5.722-52.03-27.232-91.764M289.788 152.037c22.79-40.916 56.41-71.467 60.794-69.803 4.384 1.665 3.592 57.255-23.758 100.9-27.35 43.644-55.24 70.937-65.894 63.397-10.653-7.54 6.065-53.576 28.858-94.493" fill="#007f00" fill-rule="evenodd"/><path d="M154.9 243.55c-1.193-6.36-35.854-121.133-89.627-161.397-11.328-5.814-3.38-63.05 37.64-27.55s71.076 122.5 77.425 138.59c2.055 4.656 3.722 17.997 7.67 17.997h23.534c4.412 0 4.853-13.36 7.128-18.84 18.705-46.885 30.302-90.276 89.66-148.342 16.684-14.57 44.902 15.273 19.09 38.583-25.81 23.314-88.45 108.99-80.393 161.682-.8 9.814-2.212 10.86-7.04 11.128-4.832.27-73.958-.203-74.753.195-6.536.074-9.54-2.508-10.334-12.046" fill="#00007f" fill-rule="evenodd"/><path d="M199.774 203.345c-6.793-11.69-7.844-17.16-8.308-16.114 0 0-47.297-115.263-89.627-146.4-13.713-9.403-3.228-61.458 31.187-31.79 36.35 31.528 59.393 137.922 61.526 150.662 3.75 13.736 5.22 16.187 10.532-.79 7.928-24.21 21.165-116.384 64.528-151.99 24.68-20.267 40.867 18.012 31.19 27.55-52 50.222-83.868 135.533-91.01 150.858-4.625 8.21-4.136 7.23-10.02 18.015" fill="#00007f" fill-rule="evenodd"/><path d="M44.448 263.028V258H26.94v5.028h6.547v26.19c.087 4.302-1.852 8.242-4.904 9.964-2.454 1.367-5.137 1.91-7.798 1.584-2.265-.11-4.466-1-6.378-2.57-2.3-2.006-3.644-5.393-3.562-8.977v-26.192h6.574V258H0v5.028h4.894v25.468c-.14 6.53 2.838 12.5 7.497 15.036 3.74 2.028 7.805 2.836 11.84 2.353 3.455-.165 6.817-1.478 9.763-3.81 3.546-2.973 5.633-8.12 5.507-13.58V263.03h4.948M68.29 277.244v-2.674h-7.635v2.674h2.684v17.373l-9.29-20.047h-5.577v2.674h2.416v19.668h-2.417v2.662h7.635v-2.662h-2.733V278.99l9.557 20.584h2.912v-22.33h2.445M78.22 299.574v-2.662h-2.574v-19.668h2.573v-2.674h-7.61v2.674h2.55v19.668h-2.55v2.662h7.61M98.992 277.244v-2.674h-6.418v2.674h2.214l-5.197 18.038-5.06-18.038h2.24v-2.674h-6.512v2.674h1.56l6.49 22.33h2.504l6.642-22.33h1.538M116.686 299.574v-8.705h-2.228v6.042h-8.16v-8.76h3.818v3.84h2.214V281.61h-2.214v3.88h-3.82v-8.246h8.162v5.458h2.228v-8.132h-15.403v2.674h2.55v19.668h-2.55v2.662h15.403M136.523 299.574v-2.662h-1.692l-1.29-5.775c-.204-1.045-.56-1.996-1.034-2.77-.23-.35-.49-.64-.773-.867.815-.307 1.56-.98 2.154-1.94.676-1.214 1.006-2.838.907-4.47-.02-1.118-.22-2.207-.575-3.162-.442-1.084-1.08-1.914-1.826-2.374-1.086-.668-2.238-1-3.398-.977l-.313-.007h-8.922v2.674h2.55v19.668h-2.55v2.662h7.792v-2.662h-2.778v-8.363c1.16-.037 2.32-.01 3.476.085.497.044.986.21 1.452.494.506.34.927.948 1.195 1.727.13.364.242.743.336 1.135l1.703 7.582h3.587zm-4.25-18.155c.014.786-.107 1.563-.346 2.246-.236.62-.58 1.11-.986 1.41-.602.446-1.252.7-1.914.75-.28.033-.562.05-.843.05h-3.41v-8.632h3.66c.718-.028 1.434.133 2.12.477.46.23.878.657 1.206 1.234.323.632.504 1.427.51 2.252l.005.213M152.467 292.725c.017-1.08-.16-2.146-.508-3.065-.375-.88-.876-1.594-1.46-2.08-.98-.824-2.013-1.463-3.08-1.906l-3.357-1.58c-.45-.22-.878-.55-1.27-.978-.304-.337-.538-.82-.67-1.38-.314-1.448.067-3.053.895-3.777.52-.45 1.088-.718 1.672-.79.958-.162 1.926-.038 2.856.367.658.292 1.25.897 1.696 1.74.395.827.62 1.838.64 2.887l.014 1.264h2.254v-8.858h-2.254v1.55c-.95-1.004-2.04-1.588-3.17-1.696-1.366-.202-2.743 0-4.066.592-.886.396-1.69 1.184-2.318 2.277-1.155 2.013-1.18 5.136-.057 7.197.52.862 1.14 1.54 1.827 1.996.815.57 1.66 1.02 2.526 1.343 1.085.403 2.156.894 3.21 1.47.447.237.87.574 1.26 1 .31.337.547.824.68 1.393.27 1.39.028 2.912-.624 3.907-.428.6-.942 1.017-1.494 1.208-1.076.41-2.195.42-3.274.03-.82-.292-1.548-1.068-2.042-2.178-.415-1.04-.647-2.245-.672-3.486-.01-.23-.013-.46-.01-.69h-2.24v9.09h2.24v-1.703c1.056 1.172 2.288 1.847 3.564 1.954 1.314.185 2.638-.015 3.908-.593.984-.44 1.86-1.363 2.517-2.64.53-1.102.815-2.465.807-3.865M162.664 299.574v-2.662h-2.572v-19.668h2.572v-2.674h-7.61v2.674h2.55v19.668h-2.55v2.662h7.61M182.5 287.078c.05-2.69-.47-5.328-1.47-7.465-1.114-2.11-2.608-3.586-4.267-4.22-1.39-.57-2.818-.848-4.25-.823h-7.544v2.674h2.55v19.668h-2.55v2.662h7.544c1.863.07 3.717-.43 5.466-1.484 1.636-.976 2.99-2.92 3.792-5.45.344-1.164.566-2.412.66-3.694l.068-1.868zm-2.572-.037c.043 2.14-.356 4.237-1.13 5.96-.807 1.607-1.908 2.75-3.14 3.26-1.025.45-2.083.67-3.144.652h-2.528v-19.668h2.528c1.45-.06 2.89.38 4.23 1.294 1.792 1.255 3.006 4.042 3.143 7.222.03.425.042.853.04 1.28M203.392 299.574v-2.662h-1.785l-7.12-22.342h-2.5l-7.235 22.342h-1.744v2.662h6.784v-2.662h-2.42l1.853-5.81h7.86l1.767 5.81h-2.44v2.662h6.98zm-7.12-11.14h-6.23l3.136-9.957 3.095 9.957M223.242 287.078c.05-2.69-.47-5.328-1.47-7.465-1.114-2.11-2.608-3.586-4.267-4.22-1.39-.57-2.817-.848-4.248-.823h-7.545v2.674h2.55v19.668h-2.55v2.662h7.545c1.86.07 3.716-.43 5.464-1.484 1.64-.976 2.99-2.92 3.795-5.45.343-1.164.566-2.412.66-3.694l.067-1.868zm-2.572-.037c.042 2.14-.356 4.237-1.13 5.96-.807 1.607-1.907 2.75-3.14 3.26-1.026.45-2.084.67-3.143.652h-2.53v-19.668h2.53c1.45-.06 2.89.38 4.228 1.294 1.794 1.255 3.006 4.042 3.144 7.222.027.425.042.853.04 1.28M252.15 303.51v-2.75h-2.102v-23.697h-4.56v2.744h2.08v6.66c-1.343-1.745-3.05-2.536-4.747-2.197-1.415.125-2.775.983-3.882 2.455-1.74 2.618-2.397 6.668-1.682 10.37.604 3.282 2.25 5.758 4.285 6.454 1.732.805 3.585.465 5.168-.948.3-.28.59-.6.86-.953v1.86h4.582zm-4.583-9.532c.035 1.67-.252 3.316-.82 4.702-.753 1.657-1.965 2.572-3.22 2.434-.805.003-1.595-.38-2.273-1.102-.79-.903-1.337-2.277-1.526-3.832-.262-1.812-.183-3.715.23-5.45.53-2.016 1.682-3.4 3.007-3.613.946-.234 1.91.045 2.75.793.924.91 1.56 2.44 1.743 4.187.073.62.11 1.25.11 1.88M267.443 295.207c.02-.8.004-1.604-.05-2.402-.132-2.564-.948-4.9-2.225-6.377-1.218-1.276-2.635-1.933-4.076-1.887-1.435-.07-2.86.452-4.143 1.52-1.745 1.56-2.82 4.583-2.794 7.853-.077 2.37.388 4.702 1.3 6.538.82 1.516 1.913 2.564 3.117 2.996 1.7.687 3.48.644 5.168-.13 1.073-.486 2.012-1.555 2.668-3.032.402-.973.666-2.08.775-3.24h-2.2c-.21 1.65-.934 3-1.902 3.548-.924.525-1.91.687-2.88.477-.827-.123-1.615-.663-2.252-1.547-.61-.945-1.01-2.203-1.13-3.568-.025-.248-.046-.497-.062-.748h10.687zm-2.638-2.705h-8.024c.15-1.352.55-2.595 1.14-3.562.616-.9 1.392-1.444 2.212-1.552.927-.21 1.875-.02 2.746.554.897.638 1.563 1.935 1.793 3.504.06.346.104.7.135 1.056M276.375 303.446v-2.73H274.1v-23.653h-4.773v2.744h2.273v20.908h-2.273v2.73h7.048M320.306 265.67v-4.955H308.38v4.954h4.116l-9.658 33.42-9.41-33.42h4.165v-4.955h-12.1v4.954h2.9l12.058 41.372h4.657l12.34-41.373h2.86M345.292 301.934v-2.756h-1.87l-7.46-23.137h-2.62l-7.58 23.138h-1.826v2.756h7.106v-2.756h-2.533l1.938-6.02h8.237l1.85 6.02h-2.557v2.756h7.314zm-7.46-11.537h-6.528l3.286-10.31 3.242 10.31M363.128 301.934v-8.578h-2.322v5.822h-7.878V278.81h3.52v-2.77h-8.777v2.77h2.672v20.368h-2.67v2.756h15.456M381.216 301.934v-8.578h-2.322v5.822h-7.878V278.81h3.52v-2.77h-8.777v2.77h2.672v20.368h-2.673v2.756h15.456M400 301.934v-9.014h-2.334v6.258h-8.552v-9.07h4.003v3.975h2.318V283.33h-2.318v4.02h-4.003v-8.54h8.552v5.65H400v-8.42h-16.137v2.77h2.67v20.368h-2.67v2.756H400M27.065 328.278c-1.135-.2-2.67-.3-4.603-.3h-.567c0 6.098.08 10.176.24 12.235h-3.998c.16-2.06.242-6.37.242-12.933 0-6.614-.082-10.95-.243-13.008.645.075 2.17.114 4.58.114 2.415 0 3.95-.04 4.602-.114v3.314c-.904-.34-2.438-.51-4.604-.51h-.82v8.21h.566c1.933 0 3.468-.102 4.603-.303v3.295" fill-rule="evenodd"/><path d="M27.065 328.278c-1.135-.2-2.67-.3-4.603-.3h-.567c0 6.098.08 10.176.24 12.235h-3.998c.16-2.06.242-6.37.242-12.933 0-6.614-.082-10.95-.243-13.008.645.075 2.17.113 4.58.113 2.415 0 3.95-.038 4.602-.113v3.314c-.904-.34-2.438-.51-4.604-.51h-.82v8.21h.566c1.933 0 3.468-.102 4.603-.303v3.295z" fill="none" stroke="#000" stroke-width="1.0075"/><path d="M35.3 321.783c1.708 0 3.096.87 4.163 2.607 1.067 1.738 1.6 4.032 1.6 6.88 0 2.85-.533 5.143-1.6 6.88-1.067 1.74-2.455 2.608-4.162 2.608-1.723 0-3.116-.866-4.18-2.597-1.062-1.73-1.594-4.027-1.594-6.89 0-2.86.532-5.157 1.595-6.888 1.064-1.733 2.457-2.6 4.18-2.6zm0 1.62c-.86 0-1.47.608-1.824 1.825-.354 1.218-.53 3.232-.53 6.043 0 2.812.176 4.827.53 6.044.355 1.217.963 1.826 1.825 1.826.855 0 1.458-.612 1.813-1.836.354-1.223.532-3.235.532-6.033 0-2.798-.178-4.81-.532-6.032-.355-1.223-.958-1.836-1.812-1.836" fill-rule="evenodd"/><path d="M35.3 321.783c1.708 0 3.096.87 4.163 2.607 1.067 1.738 1.6 4.032 1.6 6.88 0 2.85-.533 5.143-1.6 6.88-1.067 1.74-2.455 2.608-4.162 2.608-1.723 0-3.116-.866-4.18-2.597-1.062-1.73-1.594-4.027-1.594-6.89 0-2.86.532-5.157 1.595-6.888 1.064-1.733 2.457-2.6 4.18-2.6zm0 1.62c-.86 0-1.47.608-1.824 1.825-.354 1.218-.53 3.232-.53 6.043 0 2.812.176 4.827.53 6.044.355 1.217.963 1.826 1.825 1.826.855 0 1.458-.612 1.813-1.836.354-1.223.532-3.235.532-6.033 0-2.798-.178-4.81-.532-6.032-.355-1.224-.958-1.836-1.812-1.836z" fill="none" stroke="#000" stroke-width="1.0075"/><path d="M43.854 331.27c0-3.99-.056-6.97-.17-8.94h3.19v3.388c.355-1.117.85-2.052 1.48-2.805.633-.753 1.243-1.13 1.83-1.13.315 0 .62.063.92.188v4.482h-.122c-.41-.465-.986-.696-1.727-.696-1.587 0-2.38 1.236-2.38 3.708v1.807c0 3.98.056 6.96.17 8.943h-3.36c.113-1.983.17-4.964.17-8.942" fill-rule="evenodd"/><path d="M43.854 331.27c0-3.99-.056-6.97-.17-8.94h3.19v3.388c.355-1.117.85-2.052 1.48-2.805.633-.753 1.243-1.13 1.83-1.13.315 0 .62.063.92.188v4.482h-.122c-.41-.465-.986-.696-1.727-.696-1.587 0-2.38 1.236-2.38 3.708v1.807c0 3.98.055 6.96.17 8.943h-3.36c.113-1.983.17-4.964.17-8.942z" fill="none" stroke="#000" stroke-width="1.0075"/><path d="M53.48 331.27c0-3.99-.057-6.97-.17-8.94h3.19v2.26c1.023-1.872 2.178-2.807 3.467-2.807 1.812 0 2.948 1.117 3.407 3.35 1.104-2.233 2.36-3.35 3.77-3.35 2.472 0 3.708 2.134 3.708 6.4v3.088c0 3.98.057 6.96.17 8.943h-3.36c.113-1.982.17-4.963.17-8.942v-3.086c0-1.38-.13-2.35-.393-2.91-.263-.557-.707-.836-1.335-.836-.742 0-1.332.414-1.77 1.242-.44.83-.66 1.964-.66 3.408v2.183c0 3.98.057 6.96.17 8.943h-3.36c.115-1.982.17-4.963.17-8.942v-3.086c0-1.38-.13-2.35-.392-2.91-.262-.557-.707-.836-1.335-.836-.74 0-1.33.414-1.77 1.242-.44.83-.66 1.964-.66 3.408v2.183c0 3.98.058 6.96.17 8.943H53.31c.113-1.982.17-4.963.17-8.942" fill-rule="evenodd"/><path d="M53.48 331.27c0-3.99-.057-6.97-.17-8.94h3.19v2.26c1.023-1.872 2.178-2.807 3.467-2.807 1.812 0 2.948 1.117 3.407 3.35 1.103-2.233 2.36-3.35 3.77-3.35 2.472 0 3.708 2.134 3.708 6.4v3.088c0 3.98.057 6.96.17 8.943h-3.36c.113-1.982.17-4.963.17-8.942v-3.086c0-1.38-.13-2.35-.393-2.91-.263-.557-.707-.836-1.335-.836-.742 0-1.332.414-1.77 1.242-.44.83-.66 1.964-.66 3.407v2.184c0 3.98.057 6.96.17 8.943h-3.36c.114-1.982.17-4.963.17-8.942v-3.086c0-1.38-.13-2.35-.392-2.91-.262-.557-.707-.836-1.335-.836-.74 0-1.33.414-1.77 1.242-.44.83-.66 1.964-.66 3.407v2.184c0 3.98.058 6.96.17 8.943H53.31c.113-1.982.17-4.963.17-8.942z" fill="none" stroke="#000" stroke-width="1.0075"/><path d="M80.228 329.727l-2.15 1.318c-.533.314-.905.722-1.12 1.224-.212.5-.32 1.222-.32 2.163 0 1.005.138 1.86.412 2.57.274.71.592 1.063.955 1.063.54 0 1.045-.398 1.516-1.195.472-.795.708-1.696.708-2.7v-4.443zm-5.81-6.59c1.247-.902 2.564-1.354 3.95-1.354 3.253 0 4.88 1.927 4.88 5.78v3.708c0 3.98.056 6.96.17 8.943h-3.19v-2.372c-.846 1.946-1.994 2.918-3.444 2.918-.966 0-1.75-.44-2.356-1.317-.604-.877-.906-2.007-.906-3.388 0-1.455.34-2.707 1.015-3.755.677-1.048 1.78-2.03 3.31-2.946l2.38-1.43v-1.167c0-2.233-.636-3.35-1.908-3.35-1.29 0-2.55.928-3.783 2.786h-.12v-3.052" fill-rule="evenodd"/><path d="M80.228 329.727l-2.15 1.318c-.533.314-.905.722-1.12 1.224-.212.5-.32 1.222-.32 2.163 0 1.005.138 1.86.412 2.57.274.71.592 1.063.955 1.063.54 0 1.045-.398 1.516-1.195.472-.795.708-1.696.708-2.7v-4.443zm-5.81-6.59c1.247-.902 2.564-1.354 3.95-1.354 3.253 0 4.88 1.927 4.88 5.78v3.708c0 3.98.056 6.96.17 8.943h-3.19v-2.372c-.846 1.946-1.994 2.918-3.444 2.918-.966 0-1.75-.44-2.356-1.317-.604-.877-.906-2.007-.906-3.388 0-1.455.34-2.707 1.015-3.755.677-1.048 1.78-2.03 3.31-2.946l2.38-1.43v-1.167c0-2.233-.636-3.35-1.908-3.35-1.29 0-2.55.928-3.783 2.786h-.12v-3.052z" fill="none" stroke="#000" stroke-width="1.0075"/><path d="M86.458 331.27c0-3.99-.056-6.97-.168-8.94h3.19v2.26c1.022-1.872 2.178-2.807 3.466-2.807 1.812 0 2.948 1.117 3.407 3.35 1.103-2.233 2.36-3.35 3.77-3.35 2.472 0 3.708 2.134 3.708 6.4v3.088c0 3.98.058 6.96.17 8.943h-3.358c.113-1.982.17-4.963.17-8.942v-3.086c0-1.38-.132-2.35-.393-2.91-.263-.557-.708-.836-1.337-.836-.74 0-1.33.414-1.77 1.242-.44.83-.658 1.964-.658 3.408v2.183c0 3.98.056 6.96.17 8.943h-3.36c.113-1.982.17-4.963.17-8.942v-3.086c0-1.38-.132-2.35-.393-2.91-.262-.557-.707-.836-1.335-.836-.74 0-1.33.414-1.77 1.242-.44.83-.658 1.964-.658 3.408v2.183c0 3.98.055 6.96.168 8.943H86.29c.112-1.982.168-4.963.168-8.942" fill-rule="evenodd"/><path d="M86.46 331.27c0-3.99-.058-6.97-.17-8.94h3.19v2.26c1.02-1.872 2.178-2.807 3.466-2.807 1.812 0 2.948 1.117 3.407 3.35 1.103-2.233 2.36-3.35 3.77-3.35 2.472 0 3.708 2.134 3.708 6.4v3.088c0 3.98.058 6.96.17 8.943h-3.358c.113-1.982.17-4.963.17-8.942v-3.086c0-1.38-.132-2.35-.394-2.91-.26-.557-.706-.836-1.335-.836-.74 0-1.33.414-1.77 1.242-.44.83-.66 1.964-.66 3.407v2.184c0 3.98.058 6.96.17 8.943h-3.358c.113-1.982.17-4.963.17-8.942v-3.086c0-1.38-.13-2.35-.393-2.91-.262-.557-.707-.836-1.335-.836-.74 0-1.33.414-1.77 1.242-.44.83-.658 1.964-.658 3.407v2.184c0 3.98.055 6.96.168 8.943H86.29c.112-1.982.17-4.963.17-8.942z" fill="none" stroke="#000" stroke-width="1.0075"/><path d="M112.276 321.783c1.707 0 3.094.87 4.16 2.607 1.07 1.738 1.602 4.032 1.602 6.88 0 2.85-.533 5.143-1.6 6.88-1.068 1.74-2.455 2.608-4.162 2.608-1.724 0-3.117-.866-4.18-2.597-1.064-1.73-1.595-4.027-1.595-6.89 0-2.86.532-5.157 1.595-6.888 1.064-1.733 2.457-2.6 4.18-2.6zm0 1.62c-.862 0-1.47.608-1.825 1.825-.353 1.218-.53 3.232-.53 6.043 0 2.812.177 4.827.53 6.044.355 1.217.964 1.826 1.826 1.826.854 0 1.457-.612 1.81-1.836.356-1.223.533-3.235.533-6.033 0-2.798-.178-4.81-.533-6.032-.354-1.223-.957-1.836-1.81-1.836" fill-rule="evenodd"/><path d="M112.275 321.783c1.708 0 3.095.87 4.162 2.607 1.068 1.738 1.6 4.032 1.6 6.88 0 2.85-.532 5.143-1.6 6.88-1.067 1.74-2.454 2.608-4.162 2.608-1.723 0-3.116-.866-4.18-2.597-1.063-1.73-1.594-4.027-1.594-6.89 0-2.86.532-5.157 1.595-6.888 1.064-1.733 2.457-2.6 4.18-2.6zm0 1.62c-.86 0-1.47.608-1.824 1.825-.353 1.218-.53 3.232-.53 6.043 0 2.812.177 4.827.53 6.044.355 1.217.964 1.826 1.825 1.826.854 0 1.458-.612 1.812-1.836.355-1.223.532-3.235.532-6.033 0-2.798-.178-4.81-.533-6.032-.354-1.224-.958-1.836-1.812-1.836z" fill="none" stroke="#000" stroke-width="1.0075"/><path d="M126.748 326.264c-.693-1.908-1.518-2.86-2.476-2.86-.516 0-.927.174-1.233.526-.307.35-.46.816-.46 1.393 0 .853.355 1.55 1.063 2.09l1.91 1.43c.982.74 1.695 1.603 2.138 2.588.444.986.666 2.195.666 3.625 0 1.757-.395 3.147-1.184 4.17-.79 1.022-1.88 1.533-3.275 1.533-.62 0-1.254-.115-1.903-.348-.648-.23-1.17-.53-1.564-.894v-3.877h.253c.395 1.09.88 1.947 1.456 2.568.575.62 1.162.932 1.757.932.62 0 1.114-.213 1.48-.64.367-.426.55-.985.55-1.676 0-1.166-.347-2.014-1.04-2.54l-2.186-1.62c-1.545-1.18-2.32-3.006-2.32-5.478 0-1.606.352-2.908 1.053-3.906.7-.997 1.62-1.496 2.754-1.496 1.498 0 2.722.49 3.673 1.468l-.87 3.012h-.242" fill-rule="evenodd"/><path d="M126.748 326.264c-.693-1.908-1.518-2.86-2.476-2.86-.516 0-.927.174-1.233.526-.307.35-.46.816-.46 1.393 0 .853.355 1.55 1.063 2.09l1.91 1.43c.982.74 1.695 1.603 2.138 2.588.444.986.666 2.195.666 3.625 0 1.757-.395 3.147-1.184 4.17-.79 1.022-1.88 1.533-3.275 1.533-.62 0-1.254-.115-1.903-.348-.648-.23-1.17-.53-1.564-.894v-3.877h.253c.395 1.09.88 1.947 1.456 2.568.575.62 1.162.932 1.757.932.62 0 1.114-.213 1.48-.64.367-.426.55-.985.55-1.676 0-1.166-.347-2.014-1.04-2.54l-2.186-1.62c-1.546-1.18-2.32-3.006-2.32-5.478 0-1.606.352-2.908 1.053-3.906.7-.997 1.62-1.496 2.754-1.496 1.498 0 2.722.49 3.673 1.468l-.87 3.012h-.242z" fill="none" stroke="#000" stroke-width="1.0075"/><path d="M137.427 340.213c.113-1.983.17-4.964.17-8.942v-10.258c0-3.992-.057-6.972-.17-8.942h3.358c-.112 1.97-.17 4.95-.17 8.942v10.26c0 3.977.058 6.958.17 8.94h-3.358" fill-rule="evenodd"/><path d="M137.427 340.213c.113-1.983.17-4.964.17-8.942v-10.258c0-3.992-.057-6.972-.17-8.942h3.358c-.112 1.97-.17 4.95-.17 8.942v10.26c0 3.977.058 6.958.17 8.94h-3.358z" fill="none" stroke="#000" stroke-width="1.0075"/><path d="M149.43 321.783c1.71 0 3.096.87 4.163 2.607 1.067 1.738 1.6 4.032 1.6 6.88 0 2.85-.533 5.143-1.6 6.88-1.067 1.74-2.454 2.608-4.162 2.608-1.723 0-3.116-.866-4.18-2.597-1.062-1.73-1.594-4.027-1.594-6.89 0-2.86.532-5.157 1.595-6.888 1.064-1.733 2.457-2.6 4.18-2.6zm0 1.62c-.86 0-1.47.608-1.823 1.825-.355 1.218-.532 3.232-.532 6.043 0 2.812.177 4.827.532 6.044.354 1.217.962 1.826 1.824 1.826.855 0 1.46-.612 1.814-1.836.354-1.223.53-3.235.53-6.033 0-2.798-.176-4.81-.53-6.032-.355-1.223-.96-1.836-1.813-1.836" fill-rule="evenodd"/><path d="M149.43 321.783c1.71 0 3.096.87 4.163 2.607 1.067 1.738 1.6 4.032 1.6 6.88 0 2.85-.533 5.143-1.6 6.88-1.067 1.74-2.454 2.608-4.162 2.608-1.723 0-3.116-.866-4.18-2.597-1.062-1.73-1.594-4.027-1.594-6.89 0-2.86.532-5.157 1.595-6.888 1.064-1.733 2.457-2.6 4.18-2.6zm0 1.62c-.86 0-1.47.608-1.823 1.825-.355 1.218-.532 3.232-.532 6.043 0 2.812.177 4.827.532 6.044.354 1.217.962 1.826 1.824 1.826.855 0 1.46-.612 1.814-1.836.354-1.223.53-3.235.53-6.033 0-2.798-.176-4.81-.53-6.032-.355-1.224-.96-1.836-1.813-1.836z" fill="none" stroke="#000" stroke-width="1.0075"/><path d="M163.904 326.264c-.692-1.908-1.518-2.86-2.476-2.86-.516 0-.926.174-1.232.526-.306.35-.46.816-.46 1.393 0 .853.355 1.55 1.063 2.09l1.908 1.43c.983.74 1.696 1.603 2.14 2.588.442.986.663 2.195.663 3.625 0 1.757-.394 3.147-1.183 4.17-.79 1.022-1.88 1.533-3.273 1.533-.62 0-1.256-.115-1.903-.348-.648-.23-1.17-.53-1.565-.894v-3.877h.254c.394 1.09.88 1.947 1.455 2.568.576.62 1.162.932 1.76.932.62 0 1.112-.213 1.478-.64.366-.426.55-.985.55-1.676 0-1.166-.347-2.014-1.04-2.54l-2.186-1.62c-1.546-1.18-2.32-3.006-2.32-5.478 0-1.606.35-2.908 1.05-3.906.702-.997 1.62-1.496 2.756-1.496 1.498 0 2.723.49 3.673 1.468l-.87 3.012h-.242" fill-rule="evenodd"/><path d="M163.904 326.264c-.692-1.908-1.517-2.86-2.476-2.86-.515 0-.926.174-1.233.526-.306.35-.458.816-.458 1.393 0 .853.354 1.55 1.06 2.09l1.912 1.43c.98.74 1.694 1.603 2.137 2.588.442.986.665 2.195.665 3.625 0 1.757-.396 3.147-1.184 4.17-.79 1.022-1.88 1.533-3.274 1.533-.62 0-1.255-.115-1.903-.348-.648-.23-1.17-.53-1.565-.894v-3.877h.254c.394 1.09.88 1.947 1.456 2.568.576.62 1.16.932 1.758.932.62 0 1.112-.213 1.48-.64.365-.426.548-.985.548-1.676 0-1.166-.346-2.014-1.038-2.54l-2.187-1.62c-1.546-1.18-2.32-3.006-2.32-5.478 0-1.606.35-2.908 1.05-3.906.702-.997 1.62-1.496 2.756-1.496 1.498 0 2.723.49 3.672 1.468l-.87 3.012h-.24z" fill="none" stroke="#000" stroke-width="1.0075"/><path d="M178.908 314.386c-.162 2.057-.242 6.362-.242 12.914v10.22h.822c2.166 0 3.7-.17 4.603-.507v3.312c-.652-.074-2.186-.112-4.602-.112-2.433 0-3.96.038-4.58.112.162-2.057.243-6.4.243-13.025 0-6.552-.08-10.857-.24-12.914h3.998" fill-rule="evenodd"/><path d="M178.91 314.385c-.163 2.058-.244 6.363-.244 12.914v10.22h.822c2.166 0 3.7-.17 4.602-.507v3.312c-.652-.074-2.187-.112-4.602-.112-2.433 0-3.96.038-4.58.112.162-2.057.243-6.4.243-13.026 0-6.552-.08-10.857-.242-12.915h4z" fill="none" stroke="#000" stroke-width="1.0075"/><path d="M187.122 331.27c0-3.99-.056-6.97-.17-8.94h3.36c-.113 1.97-.17 4.95-.17 8.94 0 3.98.057 6.96.17 8.943h-3.36c.114-1.983.17-4.964.17-8.942zm4.325-16.452c-1.12 1.155-2.452 2.936-3.998 5.346h-.774c.66-2.36 1.17-4.467 1.534-6.325h3.237v.978" fill-rule="evenodd"/><path d="M187.12 331.27c0-3.99-.054-6.97-.167-8.94h3.358c-.11 1.97-.167 4.95-.167 8.94 0 3.98.057 6.96.168 8.943h-3.357c.113-1.983.168-4.964.168-8.942zm4.327-16.452c-1.12 1.155-2.452 2.936-4 5.346h-.772c.66-2.36 1.173-4.467 1.535-6.325h3.237v.978z" fill="none" stroke="#000" stroke-width="1.0075"/><path d="M204.32 312.07c-.114 1.97-.17 4.95-.17 8.942v10.26c0 3.977.056 6.958.17 8.94h-3.19v-1.73c-.42.802-.867 1.383-1.342 1.74-.475.358-1.035.536-1.68.536-1.522 0-2.728-.843-3.618-2.53-.89-1.69-1.335-4.008-1.335-6.957 0-2.948.445-5.267 1.335-6.955.89-1.687 2.096-2.532 3.618-2.532.645 0 1.205.18 1.68.537.475.358.922.938 1.34 1.74v-3.048c0-3.992-.056-6.972-.168-8.942h3.36zm-3.19 19.2c0-2.396-.2-4.235-.594-5.514-.394-1.28-.946-1.92-1.654-1.92-.83 0-1.422.58-1.777 1.74-.354 1.16-.53 3.06-.53 5.695 0 2.637.176 4.534.53 5.696.355 1.16.947 1.74 1.777 1.74.708 0 1.26-.64 1.654-1.92.395-1.28.593-3.118.593-5.515" fill-rule="evenodd"/><path d="M204.32 312.07c-.115 1.97-.17 4.95-.17 8.942v10.26c0 3.977.055 6.958.17 8.94h-3.19v-1.73c-.42.802-.867 1.383-1.342 1.74-.476.358-1.034.536-1.68.536-1.522 0-2.728-.843-3.62-2.53-.89-1.69-1.333-4.008-1.333-6.957 0-2.948.444-5.267 1.334-6.955.89-1.687 2.096-2.532 3.618-2.532.646 0 1.204.18 1.68.537.475.358.922.938 1.34 1.74v-3.048c0-3.992-.056-6.972-.17-8.942h3.36zm-3.19 19.2c0-2.396-.2-4.235-.594-5.514-.394-1.28-.946-1.92-1.654-1.92-.83 0-1.422.58-1.777 1.74-.354 1.16-.53 3.06-.53 5.695 0 2.637.176 4.534.53 5.696.355 1.16.947 1.74 1.777 1.74.708 0 1.26-.64 1.654-1.92.395-1.28.593-3.118.593-5.515z" fill="none" stroke="#000" stroke-width="1.0075"/><path d="M210.358 331.347c0 2.71.23 4.687.688 5.93.46 1.24 1.2 1.863 2.223 1.863 1.2 0 2.3-.885 3.297-2.655v2.692c-.95 1.055-2.287 1.58-4.01 1.58-1.555 0-2.852-.77-3.892-2.314-1.15-1.72-1.727-4.085-1.727-7.096 0-2.887.48-5.203 1.437-6.947.96-1.745 2.22-2.617 3.784-2.617 1.6 0 2.838.832 3.713 2.495.873 1.662 1.31 4.02 1.31 7.07h-6.825zm0-1.77h3.406c0-2.16-.128-3.728-.385-4.706-.26-.978-.684-1.468-1.27-1.468-.548 0-.976.544-1.287 1.63-.31 1.084-.465 2.6-.465 4.545" fill-rule="evenodd"/><path d="M210.357 331.346c0 2.71.23 4.688.69 5.93.458 1.242 1.2 1.864 2.222 1.864 1.2 0 2.297-.885 3.297-2.655v2.692c-.95 1.055-2.287 1.58-4.01 1.58-1.555 0-2.852-.77-3.89-2.314-1.152-1.72-1.73-4.085-1.73-7.097 0-2.886.48-5.202 1.438-6.946.96-1.745 2.22-2.617 3.784-2.617 1.6 0 2.84.832 3.712 2.495.874 1.662 1.31 4.02 1.31 7.068h-6.825zm0-1.77h3.408c0-2.158-.13-3.727-.388-4.705-.257-.978-.68-1.468-1.268-1.468-.548 0-.977.543-1.288 1.63-.31 1.084-.465 2.6-.465 4.545z" fill="none" stroke="#000" stroke-width="1.0075"/><path d="M219.874 331.27c0-3.99-.055-6.97-.168-8.94h3.188v3.388c.356-1.117.85-2.052 1.48-2.805.633-.753 1.244-1.13 1.83-1.13.316 0 .62.063.92.188v4.482h-.12c-.41-.465-.988-.696-1.73-.696-1.586 0-2.38 1.236-2.38 3.708v1.807c0 3.98.057 6.96.17 8.943h-3.358c.113-1.983.168-4.964.168-8.942" fill-rule="evenodd"/><path d="M219.874 331.27c0-3.99-.055-6.97-.168-8.94h3.188v3.388c.354-1.117.848-2.052 1.48-2.805.633-.753 1.244-1.13 1.83-1.13.315 0 .62.063.92.188v4.482h-.12c-.412-.465-.988-.696-1.73-.696-1.586 0-2.38 1.236-2.38 3.708v1.807c0 3.98.057 6.96.17 8.943h-3.358c.113-1.983.168-4.964.168-8.942z" fill="none" stroke="#000" stroke-width="1.0075"/><path d="M232.35 331.347c0 2.71.23 4.687.69 5.93.458 1.24 1.2 1.863 2.222 1.863 1.2 0 2.3-.885 3.3-2.655v2.692c-.95 1.055-2.29 1.58-4.012 1.58-1.555 0-2.852-.77-3.89-2.314-1.152-1.72-1.73-4.085-1.73-7.096 0-2.887.48-5.203 1.44-6.947.956-1.745 2.22-2.617 3.78-2.617 1.603 0 2.842.832 3.717 2.495.872 1.662 1.31 4.02 1.31 7.07h-6.828zm0-1.77h3.408c0-2.16-.128-3.728-.386-4.706-.258-.978-.682-1.468-1.27-1.468-.547 0-.977.544-1.286 1.63-.31 1.084-.467 2.6-.467 4.545" fill-rule="evenodd"/><path d="M232.35 331.346c0 2.71.23 4.688.69 5.93.458 1.242 1.2 1.864 2.223 1.864 1.198 0 2.298-.885 3.298-2.655v2.692c-.95 1.055-2.286 1.58-4.01 1.58-1.555 0-2.85-.77-3.89-2.314-1.153-1.72-1.73-4.085-1.73-7.097 0-2.886.48-5.202 1.44-6.946.957-1.745 2.217-2.617 3.78-2.617 1.603 0 2.84.832 3.716 2.495.872 1.662 1.31 4.02 1.31 7.068h-6.827zm0-1.77h3.407c0-2.158-.13-3.727-.386-4.705-.256-.978-.68-1.468-1.267-1.468-.55 0-.978.543-1.287 1.63-.31 1.084-.467 2.6-.467 4.545z" fill="none" stroke="#000" stroke-width="1.0075"/><path d="M247.786 326.264c-.692-1.908-1.518-2.86-2.476-2.86-.516 0-.926.174-1.232.526-.307.35-.46.816-.46 1.393 0 .853.356 1.55 1.065 2.09l1.908 1.43c.983.74 1.698 1.603 2.138 2.588.445.986.666 2.195.666 3.625 0 1.757-.394 3.147-1.183 4.17-.79 1.022-1.88 1.533-3.274 1.533-.62 0-1.254-.115-1.904-.348-.647-.23-1.17-.53-1.563-.894v-3.877h.253c.394 1.09.88 1.947 1.456 2.568.573.62 1.16.932 1.756.932.62 0 1.113-.213 1.48-.64.368-.426.55-.985.55-1.676 0-1.166-.347-2.014-1.04-2.54l-2.185-1.62c-1.546-1.18-2.32-3.006-2.32-5.478 0-1.606.35-2.908 1.052-3.906.7-.997 1.618-1.496 2.755-1.496 1.498 0 2.722.49 3.672 1.468l-.87 3.012h-.244" fill-rule="evenodd"/><path d="M247.787 326.264c-.693-1.908-1.518-2.86-2.477-2.86-.516 0-.927.174-1.23.526-.308.35-.462.816-.462 1.393 0 .853.356 1.55 1.064 2.09l1.91 1.43c.98.74 1.695 1.603 2.136 2.588.445.986.667 2.195.667 3.625 0 1.757-.395 3.147-1.186 4.17-.79 1.022-1.88 1.533-3.274 1.533-.62 0-1.254-.115-1.903-.348-.65-.23-1.17-.53-1.565-.894v-3.877h.254c.395 1.09.88 1.947 1.455 2.568.576.62 1.162.932 1.76.932.62 0 1.113-.213 1.48-.64.366-.426.548-.985.548-1.676 0-1.166-.346-2.014-1.04-2.54l-2.184-1.62c-1.547-1.18-2.32-3.006-2.32-5.478 0-1.606.35-2.908 1.05-3.906.7-.997 1.62-1.496 2.756-1.496 1.498 0 2.722.49 3.672 1.468l-.87 3.012h-.24z" fill="none" stroke="#000" stroke-width="1.0075"/><path d="M268.95 312.07c-.11 1.97-.167 4.95-.167 8.942v10.26c0 3.977.057 6.958.168 8.94h-3.187v-1.73c-.42.802-.867 1.383-1.342 1.74-.474.358-1.032.536-1.678.536-1.522 0-2.728-.843-3.617-2.53-.89-1.69-1.336-4.008-1.336-6.957 0-2.948.444-5.267 1.335-6.955.89-1.687 2.095-2.532 3.617-2.532.646 0 1.204.18 1.68.537.474.358.922.938 1.34 1.74v-3.048c0-3.992-.056-6.972-.168-8.942h3.357zm-3.187 19.2c0-2.396-.197-4.235-.593-5.514-.394-1.28-.946-1.92-1.654-1.92-.83 0-1.423.58-1.777 1.74-.356 1.16-.532 3.06-.532 5.695 0 2.637.176 4.534.53 5.696.355 1.16.947 1.74 1.778 1.74.708 0 1.26-.64 1.654-1.92.396-1.28.593-3.118.593-5.515" fill-rule="evenodd"/><path d="M268.953 312.07c-.115 1.97-.17 4.95-.17 8.942v10.26c0 3.977.055 6.958.17 8.94h-3.19v-1.73c-.42.802-.867 1.383-1.34 1.74-.476.358-1.036.536-1.68.536-1.524 0-2.73-.843-3.618-2.53-.89-1.69-1.337-4.008-1.337-6.957 0-2.948.446-5.267 1.337-6.955.888-1.687 2.094-2.532 3.618-2.532.644 0 1.204.18 1.68.537.473.358.92.938 1.34 1.74v-3.048c0-3.992-.057-6.972-.17-8.942h3.36zm-3.19 19.2c0-2.396-.2-4.235-.592-5.514-.394-1.28-.947-1.92-1.654-1.92-.83 0-1.422.58-1.776 1.74-.356 1.16-.532 3.06-.532 5.695 0 2.637.176 4.534.532 5.696.354 1.16.946 1.74 1.776 1.74.707 0 1.26-.64 1.655-1.92.394-1.28.593-3.118.593-5.515z" fill="none" stroke="#000" stroke-width="1.0075"/><path d="M274.99 331.347c0 2.71.232 4.687.69 5.93.46 1.24 1.2 1.863 2.223 1.863 1.2 0 2.3-.885 3.3-2.655v2.692c-.95 1.055-2.29 1.58-4.012 1.58-1.554 0-2.85-.77-3.89-2.314-1.152-1.72-1.728-4.085-1.728-7.096 0-2.887.48-5.203 1.44-6.947.955-1.745 2.218-2.617 3.78-2.617 1.602 0 2.84.832 3.715 2.495.873 1.662 1.31 4.02 1.31 7.07h-6.827zm0-1.77h3.408c0-2.16-.128-3.728-.385-4.706-.258-.978-.682-1.468-1.27-1.468-.547 0-.977.544-1.286 1.63-.31 1.084-.467 2.6-.467 4.545" fill-rule="evenodd"/><path d="M274.99 331.346c0 2.71.23 4.688.69 5.93.458 1.242 1.2 1.864 2.223 1.864 1.2 0 2.3-.885 3.298-2.655v2.692c-.948 1.055-2.286 1.58-4.01 1.58-1.555 0-2.85-.77-3.89-2.314-1.15-1.72-1.727-4.085-1.727-7.097 0-2.886.48-5.202 1.437-6.946.957-1.745 2.22-2.617 3.782-2.617 1.6 0 2.84.832 3.714 2.495.874 1.662 1.31 4.02 1.31 7.068h-6.825zm0-1.77h3.408c0-2.158-.128-3.727-.386-4.705-.258-.978-.682-1.468-1.27-1.468-.547 0-.975.543-1.286 1.63-.31 1.084-.465 2.6-.465 4.545z" fill="none" stroke="#000" stroke-width="1.0075"/><path d="M284.593 340.213c.112-1.983.17-4.964.17-8.942v-10.258c0-3.992-.058-6.972-.17-8.942h3.358c-.11 1.97-.168 4.95-.168 8.942v10.26c0 3.977.057 6.958.17 8.94h-3.36" fill-rule="evenodd"/><path d="M284.594 340.213c.112-1.983.168-4.964.168-8.942v-10.258c0-3.992-.056-6.972-.168-8.942h3.358c-.113 1.97-.17 4.95-.17 8.942v10.26c0 3.977.057 6.958.17 8.94h-3.358z" fill="none" stroke="#000" stroke-width="1.0075"/><path d="M301.55 324.833l-.277 4.442c-.354 5.81-.504 9.457-.447 10.938h-2.247c.297-1.933.66-6.225 1.087-12.876.434-6.752.63-11.07.59-12.95h2.333c.177.964.47 2.235.877 3.81.406 1.576 1.218 4.546 2.434 8.914l1.704 6.175 1.74-6.174c1.055-3.777 1.804-6.538 2.246-8.282.445-1.744.766-3.225.967-4.442h2.32c0 2.346.21 6.663.63 12.95.44 6.614.813 10.906 1.11 12.877h-4.034c.038-2.372-.102-6.018-.424-10.938l-.292-4.593-1.315 4.857c-1.522 5.52-2.413 9.08-2.67 10.673h-2.333c-.224-1.268-1.13-4.84-2.718-10.712l-1.28-4.667" fill-rule="evenodd"/><path d="M301.55 324.833l-.276 4.442c-.355 5.81-.505 9.457-.447 10.938h-2.248c.298-1.933.66-6.225 1.086-12.876.435-6.752.632-11.07.592-12.952h2.332c.177.966.47 2.237.876 3.812.406 1.575 1.218 4.546 2.434 8.914l1.704 6.175 1.74-6.174c1.055-3.777 1.804-6.538 2.247-8.282.444-1.744.766-3.226.967-4.443h2.32c0 2.347.21 6.664.63 12.952.442 6.613.81 10.905 1.11 12.876h-4.036c.042-2.372-.1-6.018-.42-10.938l-.29-4.593-1.32 4.857c-1.52 5.52-2.41 9.08-2.668 10.673h-2.33c-.226-1.268-1.133-4.84-2.72-10.712l-1.282-4.667z" fill="none" stroke="#000" stroke-width="1.0075"/><path d="M326.418 329.727l-2.15 1.318c-.533.314-.905.722-1.118 1.224-.213.5-.32 1.222-.32 2.163 0 1.005.138 1.86.41 2.57.274.71.592 1.063.956 1.063.54 0 1.043-.398 1.516-1.195.47-.795.706-1.696.706-2.7v-4.443zm-5.81-6.59c1.247-.902 2.565-1.354 3.95-1.354 3.253 0 4.88 1.927 4.88 5.78v3.708c0 3.98.058 6.96.17 8.943h-3.19v-2.372c-.846 1.946-1.993 2.918-3.444 2.918-.967 0-1.75-.44-2.355-1.317-.606-.877-.908-2.007-.908-3.388 0-1.455.34-2.707 1.015-3.755.678-1.048 1.78-2.03 3.31-2.946l2.38-1.43v-1.167c0-2.233-.636-3.35-1.91-3.35-1.286 0-2.548.928-3.78 2.786h-.12v-3.052" fill-rule="evenodd"/><path d="M326.418 329.727l-2.15 1.318c-.532.314-.905.722-1.118 1.224-.214.5-.32 1.222-.32 2.163 0 1.005.136 1.86.41 2.57.274.71.593 1.063.954 1.063.54 0 1.046-.398 1.518-1.195.47-.795.706-1.696.706-2.7v-4.443zm-5.812-6.59c1.25-.902 2.566-1.354 3.95-1.354 3.255 0 4.882 1.927 4.882 5.78v3.708c0 3.98.057 6.96.17 8.943h-3.19v-2.372c-.846 1.946-1.993 2.918-3.444 2.918-.966 0-1.752-.44-2.355-1.317-.606-.877-.907-2.007-.907-3.388 0-1.455.338-2.707 1.014-3.755.676-1.048 1.78-2.03 3.31-2.946l2.38-1.43v-1.167c0-2.233-.636-3.35-1.908-3.35-1.29 0-2.55.928-3.783 2.786h-.12v-3.052z" fill="none" stroke="#000" stroke-width="1.0075"/><path d="M332.648 331.27c0-3.99-.055-6.97-.17-8.94h3.19v2.26c1.023-1.872 2.23-2.807 3.613-2.807 1.258 0 2.224.556 2.902 1.666.676 1.11 1.015 2.688 1.015 4.734v3.087c0 3.98.055 6.96.168 8.943h-3.36c.115-1.983.172-4.964.172-8.942v-3.086c0-1.343-.15-2.303-.443-2.88-.292-.577-.775-.866-1.443-.866-.837 0-1.483.4-1.938 1.204-.456.804-.684 1.945-.684 3.426v2.203c0 3.98.057 6.96.17 8.943h-3.36c.115-1.983.17-4.964.17-8.942zm1.608-12.103c.136-1.193.383-2.12.742-2.787.358-.665.788-.997 1.287-.997.315 0 .958.194 1.933.584.974.388 1.603.583 1.885.583.443 0 .806-.258 1.086-.772h.495c-.136 1.192-.384 2.12-.743 2.786-.357.665-.786.998-1.287.998-.305 0-.946-.195-1.92-.583-.975-.39-1.606-.585-1.896-.585-.444 0-.807.257-1.09.772h-.494" fill-rule="evenodd"/><path d="M332.648 331.27c0-3.99-.055-6.97-.168-8.94h3.188v2.26c1.024-1.872 2.228-2.807 3.614-2.807 1.255 0 2.22.556 2.9 1.666.675 1.11 1.013 2.688 1.013 4.734v3.087c0 3.98.057 6.96.17 8.943h-3.36c.115-1.983.17-4.964.17-8.942v-3.086c0-1.343-.147-2.303-.44-2.88-.295-.578-.775-.866-1.445-.866-.837 0-1.484.4-1.938 1.204-.455.804-.684 1.945-.684 3.426v2.203c0 3.98.057 6.96.17 8.943h-3.358c.113-1.983.168-4.964.168-8.942zm1.608-12.103c.136-1.193.384-2.12.742-2.787.36-.665.788-.997 1.287-.997.313 0 .96.194 1.933.583.975.39 1.603.584 1.884.584.444 0 .806-.258 1.087-.772h.496c-.138 1.192-.386 2.12-.743 2.786-.358.665-.79.998-1.287.998-.306 0-.946-.195-1.922-.583-.974-.39-1.606-.585-1.896-.585-.443 0-.805.257-1.087.772h-.494z" fill="none" stroke="#000" stroke-width="1.0075"/><path d="M352.544 329.727l-2.15 1.318c-.53.314-.903.722-1.116 1.224-.215.5-.32 1.222-.32 2.163 0 1.005.136 1.86.41 2.57.274.71.592 1.063.954 1.063.54 0 1.045-.398 1.516-1.195.47-.795.706-1.696.706-2.7v-4.443zm-5.81-6.59c1.25-.902 2.565-1.354 3.95-1.354 3.255 0 4.883 1.927 4.883 5.78v3.708c0 3.98.055 6.96.168 8.943h-3.19v-2.372c-.845 1.946-1.994 2.918-3.443 2.918-.966 0-1.752-.44-2.357-1.317-.603-.877-.905-2.007-.905-3.388 0-1.455.34-2.707 1.015-3.755.676-1.048 1.78-2.03 3.31-2.946l2.38-1.43v-1.167c0-2.233-.636-3.35-1.91-3.35-1.288 0-2.548.928-3.78 2.786h-.12v-3.052" fill-rule="evenodd"/><path d="M352.545 329.727l-2.15 1.318c-.532.314-.904.722-1.117 1.224-.214.5-.32 1.222-.32 2.163 0 1.005.136 1.86.41 2.57.273.71.59 1.063.954 1.063.54 0 1.046-.398 1.517-1.195.47-.795.705-1.696.705-2.7v-4.443zm-5.81-6.59c1.248-.902 2.564-1.354 3.95-1.354 3.254 0 4.88 1.927 4.88 5.78v3.708c0 3.98.058 6.96.17 8.943h-3.19v-2.372c-.845 1.946-1.993 2.918-3.443 2.918-.967 0-1.752-.44-2.357-1.317-.603-.877-.904-2.007-.904-3.388 0-1.455.34-2.707 1.015-3.755.677-1.048 1.78-2.03 3.31-2.946l2.38-1.43v-1.167c0-2.233-.636-3.35-1.91-3.35-1.287 0-2.547.928-3.78 2.786h-.12v-3.052z" fill="none" stroke="#000" stroke-width="1.0075"/><path d="M358.776 331.27c0-3.99-.057-6.97-.168-8.94h3.188v2.26c1.023-1.872 2.227-2.807 3.613-2.807 1.256 0 2.222.556 2.898 1.666.676 1.11 1.015 2.688 1.015 4.734v3.087c0 3.98.057 6.96.17 8.943h-3.36c.113-1.983.17-4.964.17-8.942v-3.086c0-1.343-.147-2.303-.44-2.88-.295-.577-.776-.866-1.444-.866-.84 0-1.487.4-1.942 1.204-.454.804-.682 1.945-.682 3.426v2.203c0 3.98.057 6.96.17 8.943h-3.358c.11-1.983.168-4.964.168-8.942" fill-rule="evenodd"/><path d="M358.776 331.27c0-3.99-.057-6.97-.17-8.94h3.19v2.26c1.023-1.872 2.228-2.807 3.612-2.807 1.257 0 2.223.556 2.9 1.666.677 1.11 1.015 2.688 1.015 4.734v3.087c0 3.98.057 6.96.17 8.943h-3.358c.112-1.983.168-4.964.168-8.942v-3.086c0-1.343-.146-2.303-.44-2.88-.295-.578-.776-.866-1.446-.866-.837 0-1.483.4-1.94 1.204-.454.804-.68 1.945-.68 3.426v2.203c0 3.98.056 6.96.17 8.943h-3.36c.112-1.983.17-4.964.17-8.942z" fill="none" stroke="#000" stroke-width="1.0075"/><path d="M378.672 329.727l-2.15 1.318c-.53.314-.904.722-1.118 1.224-.213.5-.32 1.222-.32 2.163 0 1.005.138 1.86.412 2.57.274.71.59 1.063.954 1.063.54 0 1.045-.398 1.516-1.195.47-.795.706-1.696.706-2.7v-4.443zm-5.81-6.59c1.247-.902 2.565-1.354 3.95-1.354 3.255 0 4.88 1.927 4.88 5.78v3.708c0 3.98.058 6.96.17 8.943h-3.19v-2.372c-.846 1.946-1.993 2.918-3.442 2.918-.966 0-1.752-.44-2.357-1.317-.603-.877-.905-2.007-.905-3.388 0-1.455.34-2.707 1.015-3.755.676-1.048 1.78-2.03 3.31-2.946l2.38-1.43v-1.167c0-2.233-.636-3.35-1.91-3.35-1.288 0-2.548.928-3.78 2.786h-.122v-3.052" fill-rule="evenodd"/><path d="M378.673 329.727l-2.152 1.318c-.53.314-.902.722-1.116 1.224-.213.5-.32 1.222-.32 2.163 0 1.005.137 1.86.41 2.57.275.71.594 1.063.956 1.063.54 0 1.044-.398 1.515-1.195.472-.795.708-1.696.708-2.7v-4.443zm-5.81-6.59c1.246-.902 2.563-1.354 3.95-1.354 3.253 0 4.88 1.927 4.88 5.78v3.708c0 3.98.056 6.96.168 8.943h-3.187v-2.372c-.846 1.946-1.995 2.918-3.444 2.918-.967 0-1.753-.44-2.356-1.317-.604-.877-.907-2.007-.907-3.388 0-1.455.34-2.707 1.015-3.755.676-1.048 1.78-2.03 3.31-2.946l2.38-1.43v-1.167c0-2.233-.635-3.35-1.908-3.35-1.29 0-2.55.928-3.782 2.786h-.12v-3.052z" fill="none" stroke="#000" stroke-width="1.0075"/></svg>