<svg xmlns="http://www.w3.org/2000/svg" width="400" height="102.764"><path d="M126.723 80.67c-.034 2.864.88 3.718 2.6 3.718 2.285 0 3-1.423 3-3.723V75.1c0-1.117-.39-1.463-1.536-1.463v-.517h3.89v.517c-1.135 0-1.526.346-1.526 1.463v5.672c0 2.762-1.2 4.23-4.285 4.23-3.168 0-4.73-1.43-4.73-3.885V75.1c0-1.117-.398-1.463-1.53-1.463v-.517h5.654v.517c-1.133 0-1.537.346-1.537 1.463v5.57zM144.728 81.18v-5.295c0-1.343-.164-2.092-1.713-2.247v-.518h4.18v.518c-1.53.25-1.65.848-1.65 2.247v8.824h-1.456l-6.366-9.01v6.078c0 1.735.2 2.06 1.856 2.413v.52h-4.474v-.52c1.51-.253 1.807-.708 1.807-2.167v-7.28c-.443-.576-1.124-.95-1.807-1.105v-.518h4.017l5.605 8.06zM149.38 75.1c0-1.116-.386-1.463-1.522-1.463v-.516h5.677v.517c-1.15 0-1.538.347-1.538 1.463v7.632c0 1.106.388 1.46 1.538 1.46v.517h-5.677v-.518c1.136 0 1.523-.354 1.523-1.46V75.1z" fill="#2f43a0"/><path d="M158.514 73.12v.517c-1.137.082-1.264.297-1.264.67 0 .216.09.455.167.666l2.435 6.835 2.098-5.952c.1-.345.255-.718.255-1.094 0-.79-.617-1.076-1.33-1.125v-.517h3.926v.517c-.997.217-1.442.346-2.155 2.526l-3 8.742h-1.346l-3.216-8.964c-.36-.978-.63-2.18-1.86-2.303v-.517h5.29z" fill="#2f43a0"/><path d="M164.443 84.192c1.148 0 1.54-.355 1.54-1.46V75.1c0-1.117-.392-1.462-1.54-1.462v-.518h9.577l.965 2.947-.487.21c-1.052-1.377-2.71-2.543-4.505-2.543-1.414 0-1.414.472-1.414 1.65v3.093h.31c1.59 0 2.287-.284 2.814-1.876h.64v4.58h-.64c-.418-1.598-1.224-1.964-2.78-1.964h-.345v3.334c0 .93.085 1.543 1.23 1.543 1.947 0 3.704-1.102 4.952-2.548l.42.222-1.162 2.943h-9.577v-.518zM184.88 82.023c.592 1.07 1.13 2.07 2.493 2.168v.52h-3.918c-.26-.42-.464-.88-.667-1.33l-.942-1.983c-.968-2.043-1.565-2.23-2.242-2.23v3.566c0 1.105.396 1.458 1.544 1.458v.52h-5.667v-.52c1.143 0 1.522-.352 1.522-1.457V75.1c0-1.116-.38-1.462-1.52-1.462v-.517h6.8c2.344 0 3.794 1.263 3.794 2.948 0 1.73-1.544 2.575-3.055 2.842.483.33.76.88 1.006 1.417l.854 1.696zm-4.966-3.596c2.618 0 3.4-.843 3.4-2.528 0-1.593-.93-2.167-2.61-2.167-1.064 0-1.1.398-1.1 1.3v3.394h.31zM195.528 76.162l-.59.176c-.792-1.263-2.36-2.89-3.96-2.89-1.102 0-1.99.57-1.99 1.722 0 1.294 1.35 1.67 2.374 1.98l.937.28c1.953.64 3.842 1.553 3.842 3.904 0 2.148-1.795 3.667-3.866 3.667-.69 0-1.366-.16-2.003-.358-.296-.093-.503-.182-.81-.182-.278 0-.414.043-1.397.52l-1.036-3.646.605-.216c.933 1.5 2.477 3.27 4.39 3.27 1.15 0 2.322-.815 2.322-2.04 0-1.3-1.264-1.684-2.283-2-2.087-.703-4.755-1.485-4.755-4.173 0-2.018 1.588-3.352 3.548-3.352.65 0 1.15.123 1.753.318.214.097.41.158.663.158.396 0 .925-.3 1.224-.58l1.03 3.444zM198.367 75.1c0-1.116-.398-1.463-1.52-1.463v-.516h5.652v.517c-1.127 0-1.532.347-1.532 1.463v7.632c0 1.106.405 1.46 1.53 1.46v.517h-5.652v-.518c1.123 0 1.52-.354 1.52-1.46V75.1zM203.305 84.192c1.125 0 1.536-.355 1.536-1.46V75.1c0-1.117-.41-1.462-1.535-1.462v-.518h5.505c.985 0 1.864.115 2.686.427 2.07.807 3.55 2.685 3.55 5.492 0 2.583-1.54 4.5-3.462 5.25-.845.34-1.75.42-2.774.42h-5.505v-.518zm4.12-1.642c0 1.19 0 1.543 1.4 1.543 1.983 0 3.435-1.102 3.435-5.45 0-3.9-1.452-4.91-3.62-4.91-1.216 0-1.216.473-1.216 1.477v7.34zM225.424 82.175c.35 1.165.515 1.99 1.948 2.018v.516h-5.58v-.517c1.017-.028 1.26-.256 1.26-.71 0-.31-.083-.633-.182-.934l-.56-1.87h-4.04l-.37 1.003c-.13.408-.316.89-.316 1.333 0 .814.74 1.114 1.426 1.177v.516h-4.23v-.517c1.483-.416 1.813-1.203 2.304-2.51l3.094-8.236 2.31-.745 2.936 9.473zm-4.97-7.32l-1.893 5.098h3.485l-1.592-5.097z" fill="#2f43a0"/><path d="M226.937 84.192c1.14 0 1.536-.355 1.536-1.46V75.1c0-1.117-.395-1.462-1.536-1.462v-.518h5.522c.984 0 1.873.115 2.678.427 2.042.807 3.544 2.685 3.544 5.492 0 2.583-1.536 4.5-3.46 5.25-.826.34-1.762.42-2.763.42h-5.523v-.518zm4.133-1.642c0 1.19 0 1.543 1.394 1.543 1.984 0 3.463-1.102 3.463-5.45 0-3.9-1.48-4.91-3.638-4.91-1.22 0-1.22.473-1.22 1.477v7.34zM246.386 75.1c0-1.116-.387-1.463-1.532-1.463v-.516h5.665v.517c-1.146 0-1.53.347-1.53 1.463v7.632c0 1.106.384 1.46 1.53 1.46v.517h-5.666v-.518c1.145 0 1.532-.354 1.532-1.46V75.1zM251.218 84.71v-.52c1.158 0 1.553-.352 1.553-1.457V75.1c0-1.116-.394-1.463-1.552-1.463v-.516h5.745c4.058 0 4.946 1.24 4.946 2.66 0 1.642-1.653 2.394-3.047 2.67v.036c1.762.348 3.56 1.002 3.56 3.138 0 1.858-1.35 3.085-4.452 3.085h-6.752zm5.035-6.554c2.006 0 2.894-.68 2.894-2.333 0-1.656-.947-2.186-2.494-2.186-.353 0-.84.048-1.112.297-.196.233-.173.578-.173.837v3.386h.886zm-.886 4.06c0 1.373-.04 1.975 1.596 1.975 1.56 0 2.705-.763 2.705-2.81 0-1.406-.493-2.508-3.368-2.508h-.933v3.343zM263.263 84.192c1.12 0 1.543-.355 1.543-1.46V75.1c0-1.117-.423-1.462-1.543-1.462v-.518h9.565l.977 2.947-.472.21c-1.095-1.377-2.728-2.543-4.525-2.543-1.422 0-1.422.472-1.422 1.65v3.093h.315c1.595 0 2.28-.284 2.817-1.876h.612v4.58h-.613c-.43-1.598-1.222-1.964-2.767-1.964h-.364v3.334c0 .93.112 1.543 1.224 1.543 1.962 0 3.725-1.102 4.94-2.548l.443.222-1.165 2.943h-9.565v-.518zM283.68 82.023c.628 1.07 1.147 2.07 2.505 2.168v.52h-3.928c-.254-.42-.447-.88-.675-1.33l-.924-1.983c-.953-2.043-1.56-2.23-2.243-2.23v3.566c0 1.105.41 1.458 1.55 1.458v.52h-5.675v-.52c1.125 0 1.533-.352 1.533-1.457V75.1c0-1.116-.408-1.462-1.533-1.462v-.517h6.825c2.313 0 3.777 1.263 3.777 2.948 0 1.73-1.553 2.575-3.072 2.842.498.33.75.88 1.02 1.417l.84 1.696zm-4.972-3.596c2.62 0 3.422-.843 3.422-2.528 0-1.593-.907-2.167-2.626-2.167-1.03 0-1.09.398-1.09 1.3v3.394h.294zM286.24 79.04c0-3.38 2.17-6.218 5.69-6.218 3.57 0 5.775 2.48 5.775 5.97 0 3.21-2.15 6.21-5.794 6.21-3.44 0-5.67-2.466-5.67-5.962m2.75-.152c0 3.987 1.14 5.5 2.852 5.5 2.887 0 3.13-3.316 3.13-5.477 0-4.077-1.25-5.463-2.93-5.463-1.84 0-3.05 1.605-3.05 5.44M308.27 82.175c.34 1.165.488 1.99 1.92 2.018v.516h-5.56v-.517c1-.028 1.252-.256 1.252-.71 0-.31-.1-.633-.203-.934l-.575-1.87h-4.025l-.358 1.003c-.157.408-.3.89-.3 1.333 0 .814.717 1.114 1.4 1.177v.516h-4.21v-.517c1.483-.416 1.8-1.203 2.285-2.51l3.09-8.236 2.32-.745 2.963 9.473zm-4.983-7.32l-1.897 5.098h3.49l-1.593-5.097z" fill="#2f43a0"/><path d="M322.5 82.732c0 1.105.38 1.46 1.53 1.46v.516h-5.682v-.516c1.14 0 1.545-.355 1.545-1.46V74.43h-.038l-3.547 10.278h-.57l-3.6-9.966h-.032v6.446c0 2.542.14 2.854 1.54 3.004v.516h-4v-.516c1.4-.27 1.62-.452 1.62-3.004V75.1c0-1.196-.462-1.463-1.546-1.463v-.517h4.657l2.546 7.25 2.598-7.25h4.51v.517c-1.15.082-1.53.25-1.53 1.463v7.632zM324.673 84.192c1.14 0 1.523-.355 1.523-1.46V75.1c0-1.117-.382-1.462-1.523-1.462v-.518h9.536l1.008 2.947-.495.21c-1.05-1.377-2.7-2.543-4.51-2.543-1.42 0-1.42.472-1.42 1.65v3.093h.337c1.574 0 2.285-.284 2.812-1.876h.61v4.58h-.61c-.424-1.598-1.238-1.964-2.792-1.964h-.358v3.334c0 .93.112 1.543 1.234 1.543 1.944 0 3.712-1.102 4.946-2.548l.436.222-1.2 2.943h-9.535v-.518zM345.106 82.023c.584 1.07 1.13 2.07 2.487 2.168v.52h-3.915c-.258-.42-.456-.88-.657-1.33l-.946-1.983c-.955-2.043-1.57-2.23-2.25-2.23v3.566c0 1.105.386 1.458 1.56 1.458v.52h-5.685v-.52c1.124 0 1.525-.352 1.525-1.457V75.1c0-1.116-.4-1.462-1.526-1.462v-.517h6.8c2.346 0 3.783 1.263 3.783 2.948 0 1.73-1.536 2.575-3.03 2.842.47.33.75.88 1.033 1.417l.82 1.696zm-4.974-3.596c2.615 0 3.394-.843 3.394-2.528 0-1.593-.893-2.167-2.61-2.167-1.054 0-1.092.398-1.092 1.3v3.394h.308z" fill="#2f43a0"/><path d="M348.9 75.1c0-1.116-.392-1.463-1.537-1.463v-.516h5.654v.517c-1.137 0-1.515.347-1.515 1.463v7.632c0 1.106.378 1.46 1.515 1.46v.517h-5.654v-.518c1.145 0 1.538-.354 1.538-1.46V75.1zM364.29 76.39l-.714.212c-.685-1.5-1.98-3.155-3.793-3.155-2.437 0-2.97 3.053-2.97 4.91 0 3.818 1.91 5.42 3.696 5.42 1.55 0 2.566-1.096 3.37-2.27l.41.3c-1.052 1.924-2.55 3.196-4.85 3.196-3.155 0-5.385-2.645-5.385-5.687 0-3.287 2.21-6.494 5.485-6.494.59 0 1.02.144 1.44.26.38.12.737.252 1.037.252.42 0 .8-.193 1.153-.368l.18-.076.94 3.5zM374.407 82.175c.335 1.165.534 1.99 1.918 2.018v.516h-5.536v-.517c1.013-.028 1.236-.256 1.236-.71 0-.31-.083-.633-.177-.934l-.57-1.87h-4.065l-.335 1.003c-.13.408-.318.89-.318 1.333 0 .814.72 1.114 1.415 1.177v.516h-4.215v-.517c1.49-.416 1.793-1.203 2.292-2.51l3.085-8.236 2.312-.745 2.955 9.473zm-4.963-7.32l-1.902 5.098h3.473l-1.57-5.097z" fill="#2f43a0"/><path d="M385.414 81.18v-5.295c0-1.343-.136-2.092-1.706-2.247v-.518h4.16v.518c-1.49.25-1.636.848-1.636 2.247v8.824h-1.43l-6.374-9.01v6.078c0 1.735.192 2.06 1.833 2.413v.52h-4.455v-.52c1.505-.253 1.8-.708 1.8-2.167v-7.28c-.455-.576-1.113-.95-1.8-1.105v-.518h4.016l5.594 8.06zM397.97 82.175c.354 1.165.52 1.99 1.925 2.018v.516h-5.54v-.517c.994-.028 1.245-.256 1.245-.71 0-.31-.12-.633-.203-.934l-.556-1.87h-4.046l-.338 1.003c-.16.408-.343.89-.343 1.333 0 .814.737 1.114 1.43 1.177v.516h-4.215v-.517c1.472-.416 1.803-1.203 2.285-2.51l3.097-8.236 2.31-.745 2.95 9.473zm-4.985-7.32l-1.866 5.098h3.457l-1.592-5.097zM180.045 100.123v-.4c.973 0 1.127-.286 1.127-1.633v-4.7c0-1.333-.154-1.648-1.127-1.648v-.396h3.29c1.02 0 2.052.074 3.182.87 1.12.808 1.62 2.037 1.62 3.393 0 2.924-1.993 4.513-4.802 4.513h-3.29zm2.32-2.028c-.01 1.282.17 1.63 1.166 1.63 2.426 0 3.21-1.933 3.21-4.073 0-2.18-.754-3.91-3.21-3.91-1.014 0-1.175.27-1.164 1.53v4.823zM194.34 97.308h-.37c.02-1.548-1.007-1.617-1.962-1.548h-.476v2.76c0 .97.132 1.203 1.225 1.203 1.948 0 2.28-.49 3.49-1.998l.286.12-.876 2.278h-6.433v-.4c.944 0 1.112-.287 1.112-1.63V93.39c0-1.332-.168-1.648-1.112-1.648v-.396h6.27l.833 2.055-.3.19c-1.05-1.396-1.452-1.848-3.203-1.848-1.24 0-1.292.19-1.292 1.367v2.25h.476c1.15 0 1.9-.205 1.983-1.507h.35v3.455zM207.425 93.488l-.284.164c-.648-.855-1.816-1.93-2.94-1.93-1.987 0-2.553 2.132-2.553 3.734 0 1.74.902 4.075 2.942 4.075 1.28 0 2.127-.873 2.742-1.927l.26.15c-.66 1.42-1.862 2.514-3.472 2.514-2.37 0-3.834-1.97-3.834-4.207 0-1.09.346-2.18.95-3.082.65-.966 1.614-1.768 2.843-1.768.383 0 .718.1.97.21.274.088.524.173.776.173.303 0 .553-.124.813-.253l.785 2.148zM210.61 98.09c0 1.346.198 1.633 1.145 1.633v.4h-3.44v-.4c.962 0 1.13-.287 1.13-1.632v-4.7c0-1.332-.168-1.65-1.13-1.65v-.395h3.44v.396c-.947 0-1.145.318-1.145 1.65v4.7zM217.534 97.308h-.344c.018-1.548-1.017-1.617-1.965-1.548h-.494v2.76c0 .97.127 1.203 1.21 1.203 1.962 0 2.33-.49 3.506-1.998l.29.12-.888 2.278h-6.426v-.4c.935 0 1.143-.287 1.143-1.63V93.39c0-1.332-.208-1.648-1.143-1.648v-.396h6.28l.845 2.055-.318.19c-1.05-1.396-1.443-1.848-3.217-1.848-1.234 0-1.282.19-1.282 1.367v2.25h.495c1.14 0 1.887-.205 1.983-1.507h.326v3.455zM227.05 97.87v-4.48c0-1.332-.16-1.65-1.112-1.65v-.395h2.76v.396c-.937 0-1.104.318-1.104 1.65v6.732h-.43l-5.17-7.295v5.264c0 1.346.167 1.633 1.12 1.633v.4h-2.8v-.4c.968 0 1.13-.287 1.13-1.632v-4.7c0-1.332-.162-1.65-1.13-1.65v-.395h2.08l4.656 6.525zM236.816 93.488l-.305.164c-.677-.855-1.825-1.93-2.932-1.93-1.988 0-2.564 2.132-2.564 3.734 0 1.74.9 4.075 2.928 4.075 1.282 0 2.15-.873 2.757-1.927l.245.15c-.65 1.42-1.838 2.514-3.442 2.514-2.36 0-3.87-1.97-3.87-4.207 0-1.09.368-2.18.985-3.082.615-.966 1.595-1.768 2.795-1.768.43 0 .744.1.99.21.282.088.53.173.79.173.31 0 .552-.124.81-.253l.813 2.148zM239.998 98.09c0 1.346.16 1.633 1.14 1.633v.4h-3.454v-.4c.945 0 1.118-.287 1.118-1.632v-4.7c0-1.332-.173-1.65-1.118-1.65v-.395h3.453v.396c-.98 0-1.14.318-1.14 1.65v4.7z" fill="#2f43a0"/><path d="M245.988 91.05l2.18 6.524c.155.473.48 1.46.81 1.803.183.23.467.323.765.346v.4h-3.512v-.4c.39-.023 1.156.093 1.156-.53 0-.182-.137-.593-.216-.77l-.502-1.473h-3.024l-.17.457c-.137.346-.486 1.282-.486 1.627 0 .6.656.69 1.116.69v.4h-3.055v-.4c1.027 0 1.345-.986 1.63-1.827l2.188-6.55 1.12-.297zm-.81 1.327l-1.36 4.02h2.684l-1.325-4.02zM257.874 93.33c.163-.27.437-.762.437-1.076 0-.562-.605-.465-1.005-.513v-.395h2.98v.396c-.984-.048-1.33.732-1.718 1.473l-1.71 3.133v1.745c0 1.346.162 1.633 1.12 1.633v.4h-3.45v-.4c.988 0 1.12-.287 1.12-1.632v-1.345l-1.908-3.415c-.375-.676-.794-1.638-1.715-1.59v-.395h3.49v.396c-.306 0-1.03-.048-1.03.414 0 .21.24.614.353.803l1.7 2.9 1.336-2.527zM267.276 98.09c0 1.346.182 1.633 1.28 1.633v.4h-3.707v-.4c1.095 0 1.232-.287 1.232-1.632v-5.006c0-.61.176-1.343-.64-1.343-1.216 0-2.2.946-2.734 1.966l-.324-.142.878-2.22h6.9l.843 2.22-.268.142c-.556-1.033-1.585-1.954-2.786-1.965-.822 0-.674.733-.674 1.344v5.007z" fill="#2f43a0"/><path d="M275.936 97.308h-.332c.007-1.548-1.02-1.617-1.968-1.548h-.49v2.76c0 .97.114 1.203 1.236 1.203 1.92 0 2.296-.49 3.5-1.998l.26.12-.88 2.278h-6.43v-.4c.948 0 1.118-.287 1.118-1.63V93.39c0-1.332-.17-1.648-1.118-1.648v-.396h6.284l.84 2.055-.306.19c-1.062-1.396-1.455-1.848-3.207-1.848-1.234 0-1.297.19-1.297 1.367v2.25h.49c1.12 0 1.893-.205 1.975-1.507h.326v3.455zM286.055 93.488l-.305.164c-.656-.855-1.8-1.93-2.94-1.93-1.984 0-2.565 2.132-2.565 3.734 0 1.74.904 4.075 2.966 4.075 1.267 0 2.12-.873 2.736-1.927l.24.15c-.637 1.42-1.856 2.514-3.445 2.514-2.36 0-3.853-1.97-3.853-4.207 0-1.09.35-2.18.954-3.082.636-.966 1.62-1.768 2.833-1.768.404 0 .736.1.998.21.28.088.5.173.752.173.328 0 .566-.124.838-.253l.795 2.148zM293.657 97.87v-4.48c0-1.332-.16-1.65-1.11-1.65v-.395h2.78v.396c-.936 0-1.114.318-1.114 1.65v6.732h-.394l-5.216-7.295v5.264c0 1.346.168 1.633 1.113 1.633v.4h-2.77v-.4c.955 0 1.116-.287 1.116-1.632v-4.7c0-1.332-.16-1.65-1.116-1.65v-.395h2.08l4.63 6.525zM300.188 100.268c-2.488 0-3.892-2.234-3.892-4.532 0-2.27 1.462-4.526 3.93-4.526 2.51 0 3.89 2.315 3.89 4.602 0 2.323-1.427 4.456-3.928 4.456M297.7 95.69c0 1.49.52 4.175 2.488 4.175 2.05 0 2.547-2.557 2.547-4.152 0-1.558-.514-4.11-2.51-4.11-1.982 0-2.525 2.542-2.525 4.087M312.323 97.917l-.86 2.206h-6.194v-.4c.987 0 1.15-.287 1.15-1.633v-4.7c0-1.333-.163-1.648-1.15-1.648v-.396h3.488v.396c-1.006 0-1.15.315-1.15 1.648v4.94c0 1.047.084 1.393 1.274 1.393 1.618 0 2.313-.592 3.115-1.938l.326.132zM316.292 100.268c-2.515 0-3.877-2.234-3.877-4.532 0-2.27 1.453-4.526 3.91-4.526 2.506 0 3.893 2.315 3.893 4.602 0 2.323-1.448 4.456-3.926 4.456m-2.515-4.578c0 1.49.538 4.175 2.515 4.175 2.057 0 2.54-2.557 2.54-4.152 0-1.558-.513-4.11-2.506-4.11-1.99 0-2.55 2.542-2.55 4.087M328.737 93.412l-.343.152c-.602-.954-1.528-1.962-2.762-1.962-2.072 0-2.674 2.803-2.674 4.448 0 1.614.846 3.815 2.767 3.815 1.38 0 1.755-.88 1.755-2.112 0-1.033-.345-1.157-1.33-1.157v-.382h3.422v.382c-1.046.05-1.046.675-1.046 1.538v1.777c-.132-.045-.33-.095-.498-.095-.792 0-1.536.452-2.567.452-2.502 0-3.898-1.97-3.898-4.334 0-2.19 1.396-4.723 3.856-4.723.658 0 1.17.22 1.61.22.343 0 .62-.12.912-.276l.797 2.258zM332.506 98.09c0 1.346.17 1.633 1.138 1.633v.4h-3.45v-.4c.954 0 1.13-.287 1.13-1.632v-4.7c0-1.332-.176-1.65-1.13-1.65v-.395h3.45v.396c-.968 0-1.138.318-1.138 1.65v4.7z" fill="#2f43a0"/><path d="M338.5 91.05l2.18 6.524c.155.473.485 1.46.804 1.803.198.23.47.323.77.346v.4h-3.532v-.4c.41-.023 1.17.093 1.17-.53 0-.182-.154-.593-.203-.77l-.48-1.473h-3.083l-.155.457c-.117.346-.46 1.282-.46 1.627 0 .6.615.69 1.116.69v.4h-3.073v-.4c1.036 0 1.368-.986 1.632-1.827l2.2-6.55 1.112-.297zm-.84 1.327l-1.324 4.02h2.698l-1.373-4.02z" fill="#2f43a0"/><path d="M116.087 3.695h19.178V48.48S134.06 62.8 147.42 62.715c0 0 12.018.227 11.92-14.667V3.695h6.607v44.252s.65 19.96-19.422 21.278c-19.647 1.297-30.663-4.862-30.663-21.51l.225-44.02zM174.87 68.89V3.48H188l29.344 44.236V3.48h6.515l.13 65.39-15.408.102-27.16-40.37v40.29h-6.552zM232.756 68.686V3.614h19.29V68.56l-19.29.126zM319.833 68.87V3.774h19.312v64.99l-19.312.106zM347.93 10.296V3.763H400v6.533h-16.31v58.908h-19.428V10.296H347.93zM291.683 2.99c-19.667-1.238-30.66 4.626-30.66 20.516l.065 12.83-.066 12.836c0 15.89 10.994 21.76 30.66 20.52C311.75 68.42 311.1 49.38 311.1 49.38v-4.433h-6.622v4.537c.107 14.23-11.907 14.005-11.907 14.005-13.36.068-12.155-13.587-12.155-13.587V38.42h.01V22.77S279.21 9.096 292.57 9.2c0 0 12.036-.215 11.916 13.98v4.545h6.617v-4.44s.685-19.028-19.42-20.294M102.767 51.38c0 28.364-23.024 51.384-51.396 51.384C23 102.764 0 79.744 0 51.38 0 23.006 23 0 51.37 0c28.373 0 51.397 23.006 51.397 51.38" fill="#2d3d9b"/><path d="M91.994 51.364c0 22.117-17.93 40.04-40.04 40.04-22.126 0-40.05-17.923-40.05-40.04 0-22.106 17.924-40.04 40.05-40.04 22.11 0 40.04 17.934 40.04 40.04M98.733 60.378c0 .952-.783 1.724-1.724 1.724-.974 0-1.74-.772-1.74-1.724 0-.956.766-1.726 1.74-1.726.94 0 1.723.77 1.723 1.726" fill="#fff"/><path d="M8.64 61.42c0 .985-.806 1.787-1.788 1.787-.998 0-1.796-.802-1.796-1.788 0-1.008.798-1.81 1.796-1.81.982 0 1.787.802 1.787 1.81" fill="#1a3163"/><path d="M9.253 60.25c0 .986-.807 1.796-1.793 1.796-.994 0-1.8-.81-1.8-1.797 0-.988.806-1.8 1.8-1.8.986 0 1.793.812 1.793 1.8" fill="#c6d6ec"/><path d="M58.677 32.71l1.31.946M51.35 16.036l2.913 13.618-4.198-13.563M53.978 16.036l.36 13.423M58.036 16.91l-3.7 12.69 2.296-13.142" fill="#1a3163"/><path d="M60.35 18.057L54.335 29.6 59.2 17.334M61.374 18.777L54.336 29.6" fill="#1a3163"/><path d="M62.24 19.732l-7.903 10.155 1.087-13.636" fill="#1a3163"/><path d="M63.622 22.565l-9.285 7.32 8.704-8.777M64.134 26.11l-9.798 3.777 9.643-5.814M63.26 29.31l-8.845.715 9.428-2.32M60.722 33.003l-6.385-3.116M43.09 29.098v-1.025l4.14-1.136v1.026l-4.14 1.135zM43.19 31.302v-1.007l4.12-1.15v1.028l-4.12 1.13zM43.128 33.395v-1.01l4.12-1.15v1.013l-4.12 1.147z" fill="#1a3163"/><path d="M55.242 29.96c0 .473-.407.87-.872.87-.487 0-.865-.397-.865-.87 0-.48.378-.862.865-.862.465 0 .872.382.872.862" fill="#1a3163"/><path d="M48.62 20.283l-2.698-4.654s12.556-3.167 17.1 3.276c4.522 6.464-1.267 12.795-2.52 13.747v1.262s2.158-.473 2.28.96c.11 1.433-1.215 1.662-2.387 1.55l-2.748-1.082v-1.73s3.157-2.746 3.093-6.635c-.066-3.824-2.755-9.204-12.12-6.695" fill="#02080a"/><path d="M48.62 20.283l-2.698-4.654s12.556-3.167 17.1 3.276c4.522 6.464-1.267 12.795-2.52 13.747v1.262s2.158-.473 2.28.96c.11 1.433-1.215 1.662-2.387 1.55l-2.748-1.082v-1.73s3.157-2.746 3.093-6.635c-.066-3.824-2.755-9.204-12.12-6.695" fill="#aac2e7"/><path d="M48.62 20.283l.16-.092-2.7-4.653-.158.092.046.176c.002-.002.76-.193 1.983-.386s2.9-.386 4.72-.386c3.71-.002 7.974.808 10.205 3.977 1.21 1.735 1.663 3.448 1.665 5.05.01 4.266-3.275 7.793-4.148 8.448l-.073.056v1.576l.22-.048s.324-.07.72-.07c.303 0 .64.044.887.174.25.134.416.32.452.694l.006.15c-.005.497-.195.77-.497.96-.31.19-.753.27-1.22.266-.158 0-.32-.006-.478-.023l-.017.182.066-.168-2.632-1.038V33.61h-.18l.118.137c.01-.016 3.15-2.725 3.157-6.655v-.12c-.03-1.605-.508-3.478-1.735-4.96-1.228-1.486-3.21-2.56-6.18-2.557-1.284 0-2.756.198-4.433.65l.046.175.16-.092-.16.093.047.177c1.655-.444 3.093-.637 4.342-.637 2.88.002 4.734 1.024 5.897 2.423 1.16 1.4 1.625 3.196 1.65 4.735l.002.115c0 1.863-.757 3.46-1.52 4.592-.38.565-.76 1.014-1.043 1.32-.286.306-.47.466-.47.468l-.063.053v1.938l2.888 1.14h.025c.17.015.342.025.513.025.505 0 1.01-.077 1.408-.317.4-.24.676-.672.67-1.274l-.006-.18c-.036-.49-.31-.82-.646-.99-.334-.17-.72-.21-1.055-.212-.437.002-.79.078-.797.08l.038.177h.182v-1.262h-.18l.108.146c.952-.73 4.283-4.278 4.294-8.74 0-1.672-.478-3.467-1.732-5.258-2.356-3.33-6.753-4.13-10.5-4.133-3.69 0-6.785.78-6.795.78l-.234.062 2.89 4.984.134-.036-.046-.177z" fill="#352f92"/><path d="M59.196 31.714l1.312.932.21-.297-1.312-.933M49.122 15.097l4.088 9.876-5.14-9.74-.323.173L54.71 28.6l.33-.154-5.583-13.487-.335.137z" fill="#352f92"/><path d="M51.806 14.925l2.06 9.72-3.014-9.747-.348.108 4.194 13.56.353-.088-2.886-13.627-.358.075z" fill="#352f92"/><path d="M53.024 14.91l1.51 12.898-7.69-12.45-.31.19 8.12 13.15.335-.118-1.605-13.713-.36.042z" fill="#352f92"/><path d="M54.404 14.893l.363 13.4.365-.01-.363-13.4" fill="#352f92"/><path d="M58.478 15.703l-2.762 9.466 1.742-9.82-.358-.063-2.33 13.127.354.085 3.705-12.693-.352-.104z" fill="#352f92"/><path d="M60.804 16.827l-4.384 8.406 3.56-8.976-.338-.136-4.862 12.26.33.15 6.016-11.534-.322-.17z" fill="#352f92"/><path d="M61.837 17.538l-7.042 10.81.307.2 7.042-10.81" fill="#352f92"/><path d="M62.705 18.463l-7.526 9.673 1.04-13.024-.363-.03-1.138 14.24 8.272-10.636-.287-.223z" fill="#352f92"/><path d="M64.13 21.274l-6.96 5.474 6.62-6.665-.258-.257L54.82 28.6l.242.273 9.295-7.312-.226-.286z" fill="#352f92"/><path d="M64.688 24.79l-7.856 3.02 7.878-4.73-.188-.313-9.666 5.806.16.325 9.804-3.767-.132-.337v-.002z" fill="#352f92"/><path d="M63.855 27.97l-6.58.54 7.217-1.777-.087-.355-9.427 2.324.058.36 8.85-.727-.03-.365z" fill="#352f92"/><path d="M62.18 30.672l-5.204-1.536 5.94.658.04-.36-7.988-.885-.07.353 7.18 2.117.103-.348z" fill="#352f92"/><path d="M61.408 31.69l-6.378-3.126-.162.328 6.378 3.125" fill="#352f92"/><path d="M44.662 24.108s2.087-4.123 7.47-4.482c5.38-.358 8.67 2.92 8.607 7.482-.067 4.537-3.04 5.79-3.094 6.622-.078.84 0 1.612 0 1.612l2.796 1.196v.97h-18.64v-1.082s3.752-1.193 4.475-1.977c.708-.773.472-1.31.472-1.31h-3.707v-7.77l1.62-1.262z" fill="#aac2e7"/><path d="M44.662 24.108l.163.083.093-.168c.462-.77 2.6-3.906 7.224-4.213.266-.02.526-.03.78-.03 4.78.014 7.624 3.018 7.636 7.196v.13c-.035 2.23-.774 3.63-1.513 4.593-.37.48-.743.85-1.035 1.16-.285.31-.514.543-.546.858l.182.012-.182-.017c-.026.287-.034.565-.034.81 0 .484.034.834.036.837l.01.11 2.783 1.187v.67H41.983v-.9h-.18l.053.172c.002-.003.942-.3 1.977-.7 1.04-.405 2.15-.877 2.577-1.325.45-.492.56-.923.56-1.197 0-.183-.048-.295-.056-.313l-.046-.11h-3.643V25.46l1.58-1.23.02-.037-.163-.082-.11-.143-1.692 1.316v8.04h3.89v-.18l-.168.072.022.166c0 .182-.063.512-.46.95-.296.33-1.424.847-2.44 1.233-1.024.395-1.956.69-1.957.69l-.127.042v1.396h19.004v-1.27l-2.907-1.243-.07.167.18-.017s-.033-.335-.033-.803c0-.235.008-.502.035-.776v-.005c-.006-.1.157-.335.446-.632.858-.907 2.6-2.533 2.646-5.997v-.134c.002-2.175-.755-4.072-2.14-5.418-1.385-1.348-3.392-2.142-5.86-2.142-.262 0-.53.01-.803.028-5.483.368-7.612 4.56-7.62 4.582l.162.082-.11-.143.11.143z" fill="#352f92"/><path d="M41.496 34.923V24.236H49.1s1.78-.185 2.366.77c.607.97.904 2.274.904 2.274s.124.893.962-.06c.835-.963 3.415-1.438 3.888.953 0 0 .48 2.996-2.46 3.042 0 0-1.078-.13-1.545-.713-.485-.592-1.084-.42-1.394.13-.286.537-1.352 1.243-2.076 1.485-.71.248-8.248 2.806-8.248 2.806" fill="#aac2e7"/><path d="M41.496 34.923h.182V24.418h7.43l.012-.002s.125-.013.328-.013c.535-.007 1.523.115 1.863.698.293.468.516 1.027.664 1.466.145.438.216.755.218.755l.178-.04-.18.026.076.245c.055.12.193.29.426.293.24-.007.47-.16.777-.502.337-.397 1.065-.73 1.764-.725.81.012 1.558.388 1.808 1.594l.178-.037-.18.03s.027.164.027.427c.002.4-.068 1.006-.384 1.496-.317.487-.862.886-1.926.907l.004.182.024-.18c-.002 0-.256-.03-.566-.13-.312-.1-.668-.273-.86-.517-.236-.29-.523-.44-.808-.44-.37.003-.69.246-.888.595l-.003.005c-.23.45-1.296 1.18-1.974 1.398h-.008.006c-.353.123-2.417.825-4.388 1.496l-3.857 1.31.056.17h.182-.182l.058.175c.002 0 7.536-2.56 8.25-2.808l-.06-.173.057.172c.77-.268 1.834-.953 2.18-1.572l-.16-.086.157.09c.155-.27.372-.41.573-.408.157 0 .335.076.526.305.55.66 1.648.765 1.662.775h.027c1.153-.012 1.853-.487 2.225-1.073.374-.585.44-1.255.442-1.692 0-.288-.03-.48-.03-.486l-.002-.003v-.002c-.26-1.36-1.232-1.9-2.166-1.887-.808.004-1.605.355-2.04.852-.275.317-.456.38-.502.374l-.098-.085-.036-.095-.008-.04-.002-.008v-.007c-.005-.01-.298-1.32-.927-2.33-.507-.796-1.607-.864-2.172-.872-.218 0-.36.015-.366.017l.018.18v-.182h-7.785v11.125l.24-.08-.06-.175z" fill="#352f92"/><path d="M43.71 27.925v-1.007l4.128-1.137v1.03l-4.128 1.115zM43.797 30.143v-1.01l4.134-1.13v1.008l-4.133 1.133zM43.737 32.24v-1.025l4.128-1.11v.98l-4.128 1.156zM55.848 28.813c0 .47-.388.862-.863.862-.486 0-.877-.39-.877-.862 0-.49.39-.888.877-.888.475 0 .863.398.863.888" fill="#352f92"/><path d="M8.74 61.16c0 .994-.797 1.792-1.8 1.792-.986 0-1.798-.798-1.798-1.79 0-1.004.812-1.805 1.797-1.805 1.003 0 1.8.8 1.8 1.804M40.375 63.115h5.256l-.164.86.715.714h-6.43l.8-.793-.175-.782zM46.115 66.824h-6.467v-1.038h6.467v1.038z" fill="#1a3163"/><path d="M35.493 67.515s-.033 1.203.782 1.536c.8.33 1.77 1.03 1.77 1.03l.032.52s1.82 1.226 4.345 1.112c2.523-.097 4.727-.9 4.727-.9v-.654s1.654-.836 2.025-1.16c.358-.33.718-.82.61-1.445 0 0-.424.803-1.37.815 0 0 .618-.853.277-1.673 0 0-1.09 1.52-2.916 1.962l-.31.085.127.716s-1.35.395-3.26.29c-1.894-.068-2.59-.29-2.59-.29l.11-.716s-1.227-.478-1.81-.745c-.587-.274-1.44-1.454-1.44-1.454s-.37 1.198.33 1.878c0 0-1.372-.204-1.44-.905" fill="#1a3163"/><path d="M36.48 66.386c-.014.023-.13.407-.13.84 0 .35.13.717.342 1-.35-.093-.955-.32-1.095-.893l-.07-.35-.123.338s-.423 1.238 1.252 2.167l1.433.79.113-.2-1.428-.798c-1.046-.563-1.215-1.207-1.215-1.573v-.012c.403.66 1.345.81 1.384.82l.073-.22c-.366-.222-.44-.66-.44-1.068 0-.186.026-.355.042-.482.234.423.838 1.198 2.185 1.648.38.12.6.205.738.264-.19-.03-.58-.1-.58-.1-.296-.05-.61-.096-.685.1-.058.235.443.515.595.586-.008.002.67.543 4.022.64v-.23c-3.238-.087-3.895-.588-3.895-.588-.247-.093-.48-.29-.492-.37l.42.08.72.117c.25.024.357-.02.382-.118.02-.117.04-.2-1.165-.597-1.736-.566-2.188-1.79-2.188-1.806l-.132-.313-.064.33z" fill="#1a3163"/><path d="M39.743 69.458l.197-.096c-.017-.057.034-.312.11-.547l-.198-.073c-.08.213-.196.58-.11.716M38 70.72c.098.087 1.42.955 4.68 1.06v-.22c-3.164-.088-4.495-.956-4.495-.956-.02-.186.147-1.24.266-1.887l-.206-.03c-.024.167-.333 1.666-.245 2.034M48.658 66.37c-.024.016-.45 1.255-2.19 1.808-1.207.397-1.193.48-1.193.597.038.097.162.142.398.116l.734-.115.432-.033c-.032.022-.273.23-.464.31-.05.013-.714.513-3.94.6v.232c3.34-.1 4.017-.64 4.04-.66.124-.04.646-.333.55-.566-.06-.196-.38-.152-.672-.1 0 0-.374.07-.577.1.145-.06.36-.144.757-.266 1.323-.448 1.932-1.225 2.183-1.638.005.12.028.286.028.472 0 .41-.087.846-.444 1.07l.067.218c.07-.008 1.01-.158 1.376-.85l.023.044c0 .364-.185 1.01-1.214 1.58l-1.422.79.11.197 1.418-.787c1.682-.93 1.26-2.155 1.26-2.155l-.134-.35-.072.35c-.13.574-.733.8-1.09.893.225-.282.33-.652.33-1 0-.432-.105-.818-.105-.84l-.072-.33-.117.315z" fill="#1a3163"/><path d="M45.26 68.815c.074.236.135.49.122.548l.21.096c.07-.138-.043-.505-.126-.717l-.206.072zM46.866 68.717c.1.563.256 1.402.256 1.785l-.022.155c-.006-.028-1.323.815-4.462.903l.023.22c3.233-.092 4.54-.974 4.605-.994.13-.432-.143-1.932-.19-2.1l-.21.03zM41.496 62.886s-.523-.5-1.08-1.445c-.847-1.357-.74-4.353 3.48-3.177 1.342.363 1.962.13 2.75-.75 0 0 .22 1.39-1.436 1.895-1.683.5-2.232-.386-3.432.583-.866.705-.562 1.91-.282 2.896" fill="#1a3163"/><path d="M42.66 62.828s-.728-1.463.36-2.18c0 0 .65-.502 1.824-.29 1.58.264 3.134-.5 2.824-2.802 0 0 1.54 2.685-.196 3.774-1.754 1.1-4.45-1.127-4.81 1.498M67.38 65.688c0 3.99-3.223 7.216-7.206 7.216-3.99 0-7.216-3.225-7.216-7.216 0-3.994 3.226-7.216 7.216-7.216 3.983 0 7.207 3.222 7.207 7.216" fill="#1a3163"/><path d="M57.938 58.902s.216.29.06.582c-.15.286-.215.466-.06.54.15.076.518.036.612.18.062.153.272.217.158.323l-.62.18s-.305-.206-.48-.028c-.185.17-.67.22-.482.65.196.44.482.766.723.616.25-.14.7-.437.858-.48.208-.025.375.22.455.48.07.26.164.44.327.498.152.083.322.234.168.384l-.722.137c-.134.15-.94.408-1.112.47-.178.073-1.058.43-1.14.58-.068.146.125.542-.05.618l-.298-.404-.297-.255c-.11 0-.615.218-.655.686-.036.485.147.65.324.73.187.068.517.035.517.32v.66l.458.187c.157 0 .923.104 1.14.188.212.06.44.373.725.492.272.125.65.183.75.183l.612.224c.038.098.517.253.405.686-.118.444-.626.8-.675 1.157-.07.366-.07.472-.152.615l-.836 1.078c-.066.158-.104.38-.104.38l-.094.393c-.002 0 0 .548-.274.26-.29-.294-.213-1.088-.213-1.307 0-.208.027-1.158.027-1.158l-.32-.33c-.153-.112-.698-.33-.74-.583-.042-.25-.057-.724-.057-.89 0-.203.058-.583.058-.583l-.096-.49-.858-.176-.194-.91s-.297-.206-.474-.292c-.183-.062-.642-.722-.73-1.107-.082-.412-.082-.767-.082-.767v-.768l-.313-.325c-.082.15 0 1.143 0 1.143s-.26.523-.346.237c-.066-.287.053-1.12.053-1.12l.517-1.422s1.7-2.094 3.524-2.463M59.235 58.804s-.258.247-.035.354c.21.112.46.434.46.434v.286l.03.287.223.295-.035.366.4.104c.15-.082.288-.47.288-.47l.29-.185-.31-.366-.42-.318-.175-.434-.715-.354zM58.455 59.192l.346.117.062.322-.06.1h-.19l-.192-.14s-.267-.4.035-.4M59.164 60.24l-.165.22.083.247.244.263.164-.36-.326-.37zM63.622 63.62s-.192-.444.038-.476c.212-.03.407-.178.475-.316.07-.15.155-.485.155-.485l.348-.098.284.03.483-.178v-.29l-.124-.258v-.473l-.147.29-.246.462s-.27-.202-.335-.363l.16-.537.124-.32.132-.254s.942.88 1.414 1.85c.465.97.646 1.483.646 1.483s-.105.094-.32-.02c-.21-.16-.326-.296-.364-.418l-.256-.137-.224-.076-.033-.287-.328.098-.33.116c.16.116.258.328.258.328l.188.142-.15.098-.37-.21-.21-.18s-.052-.062-.204 0c-.153.076-.224 0-.256.15l-.184.43s-.622.214-.622-.103M63.495 62.097l-.065-.327-.105-.304.105-.23c.162.057.292.34.292.34l.18.253.078.115v.11l-.108.19-.377-.148zM62.273 60.313l.154.25.327.047.138-.19c0-.107.15.108 0-.107-.138-.214-.322-.252-.322-.252l-.237-.263-.167.444.107.073zM64.303 64.228l-.615-.034-.386.107-.41.88s-.22.508.255.975c.475.48.755.718.95.718h.975l.173.657-.147 1.245.147.53c.086.153.535.328.535.328l.445-.145s.726-1.34.91-2.208c.186-.872.22-2.37.22-2.37l-.22-.497-.393.07h-1.124l-.546-.29-.77.035zM34.91 38.652v10.233M35.71 38.652v10.233M36.545 38.658v10.236M37.378 38.658v10.247M38.203 38.658v10.247M39.028 38.658v10.26M39.838 38.658v10.274M40.68 38.658v10.274M41.506 38.658v10.277M42.33 38.67v10.266M43.144 38.67V48.95M43.99 38.67V48.95M44.82 38.67v10.283M45.63 38.67v10.29M46.467 38.68v10.28M47.283 38.68v10.28M48.13 38.68v10.294M48.95 38.684V48.98M49.774 38.684V48.98M50.59 38.684v10.3M51.427 38.684v10.313M52.243 38.684v10.323M53.06 38.684v10.323M53.897 38.684v10.334M54.722 38.684V49.02M55.545 38.694V49.02M56.367 38.694v10.34M57.203 38.703v10.33M58.036 38.703V49.04M58.863 38.703v10.344M59.686 38.708v10.34M60.51 38.708v10.34M61.328 38.708V49.06M62.167 38.708V49.06M62.99 38.708V49.07M63.802 38.708v10.367M64.638 38.708v10.377M65.47 38.708v10.386M66.288 38.734v10.36M67.126 38.734v10.36M67.96 38.734V49.1M68.776 38.734v10.382M35.21 53.503c-.01 1.254.38 1.623 1.13 1.623 1.008 0 1.325-.614 1.325-1.64v-2.443c0-.478-.17-.635-.677-.635v-.226h1.724v.226c-.51 0-.693.157-.693.635v2.504c0 1.21-.525 1.85-1.883 1.85-1.393 0-2.072-.617-2.072-1.716v-2.637c0-.478-.155-.635-.678-.635v-.226h2.5v.226c-.512 0-.677.157-.677.635v2.46zM45.21 53.714v-2.316c0-.59-.068-.93-.76-.99v-.226h1.847v.226c-.68.11-.742.38-.742.99v3.88h-.62L42.14 51.31v2.67c0 .762.064.917.8 1.062v.233h-1.967v-.233c.663-.1.797-.313.797-.963v-3.198c-.196-.24-.493-.413-.797-.474v-.226h1.774l2.463 3.532zM49.338 51.043c0-.48-.164-.635-.66-.635v-.225h2.486v.225c-.487 0-.685.156-.685.635v3.36c0 .495.197.64.684.64v.233h-2.486v-.232c.496 0 .66-.146.66-.642v-3.36zM58.207 51.613l-.315.097c-.304-.668-.888-1.394-1.67-1.394-1.07 0-1.306 1.35-1.306 2.153 0 1.702.838 2.39 1.608 2.39.696 0 1.135-.48 1.51-.992l.173.13c-.49.84-1.137 1.4-2.133 1.4-1.4 0-2.376-1.16-2.376-2.495 0-1.44.975-2.854 2.414-2.854.245 0 .462.062.635.103l.457.117c.175 0 .346-.082.503-.158l.076-.036.424 1.537zM61.258 51.043c0-.48-.18-.635-.673-.635v-.225h2.51v.225c-.51 0-.698.156-.698.635v3.36c0 .495.19.64.7.64v.233h-2.512v-.232c.493 0 .673-.146.673-.642v-3.36zM69.5 50.182l.375 1.38-.265.07c-.332-.514-.944-1.17-1.627-1.192v3.963c0 .496.188.64.683.64v.234h-2.49v-.234c.502 0 .672-.144.672-.64V50.44c-.693.09-1.23.625-1.617 1.19L65 51.564l.334-1.38H69.5z" fill="#1a3163"/><path d="M31.164 37.448v.942s3.69.637 3.69 3.038v27.426s-.3 4.712 3.403 4.712h6.836s6.727-.085 7.315 3.545c0 0-.354-3.33 6.676-3.63h7.18s3.698.368 3.698-4.705V41.502s0-2.988 3.843-2.988v-1.006l-42.64-.06z" fill="#fff"/><path d="M31.164 37.448h-.274v1.172l.228.04c.002 0 .214.037.55.13.5.14 1.253.41 1.862.844.61.44 1.05 1.007 1.05 1.794v27.426h.275l-.273-.018c0 .005-.006.104-.006.27.002.508.054 1.652.534 2.708.47 1.055 1.446 2.032 3.147 2.024h6.876c.257 0 1.92.02 3.56.462.818.22 1.63.548 2.254 1.01.627.47 1.064 1.06 1.193 1.844l.54-.073v-.048c0-.203.05-.93.854-1.662.803-.73 2.405-1.48 5.56-1.616l-.01-.273v.275h7.18v-.274l-.027.274.19.006c.39 0 1.336-.072 2.204-.752.87-.68 1.61-1.963 1.606-4.233V41.502l.005-.104c.024-.254.135-.914.616-1.495.482-.576 1.327-1.112 2.95-1.117h.273v-1.55l-43.19-.062v.274h.274v.273l42.367.06v.734h.275v-.274c-1.992-.006-3.072.8-3.592 1.62-.525.82-.523 1.612-.525 1.642v27.273c-.003 2.162-.676 3.233-1.395 3.802-.723.57-1.543.64-1.866.637l-.135-.005-.014-.002h-7.206c-3.23.138-4.968.91-5.906 1.758-.94.852-1.036 1.762-1.033 2.066l.003.11.272-.03.27-.044c-.152-.95-.698-1.67-1.405-2.196-2.12-1.56-5.71-1.574-6.14-1.582h-.045l.005.276v-.276h-6.836c-1.485-.007-2.21-.772-2.65-1.704-.426-.93-.487-2.015-.485-2.48 0-.153.005-.234.005-.234l.002-.008V41.428c-.006-1.36-1.046-2.19-2-2.663-.964-.48-1.905-.64-1.92-.644l-.046.27h.274v-.942h-.274v.273-.272z" fill="#06a850"/><path d="M34.89 47.645V41.61s.034-2.834-3.637-3.106V37.47h42.513v.978s-3.804-.047-3.804 3.22v6.253" fill="#88d48b"/><path d="M34.918 47.645V41.61c.003-.102-.038-2.867-3.664-3.134l-.002.028h.028V37.5h42.458v.948h.028v-.028h-.01c-.192.003-3.818.04-3.82 3.248v6.253h.053V41.67c0-1.577.89-2.37 1.808-2.778.918-.404 1.864-.416 1.96-.416h.006l.03.002V37.444H31.226v1.085l.025.004c3.59.267 3.61 2.983 3.614 3.077v6.035h.054z" fill="#178446"/><path d="M51.492 90.752c-21.69 0-39.298-17.6-39.298-39.312 0-21.727 17.608-39.317 39.298-39.317 21.736 0 39.332 17.59 39.332 39.317 0 21.71-17.596 39.312-39.332 39.312m0-87.613c-26.67 0-48.298 21.616-48.298 48.3 0 26.672 21.63 48.314 48.298 48.314 26.677 0 48.31-21.642 48.31-48.314 0-26.684-21.633-48.3-48.31-48.3" fill="#f1e808"/><path d="M51.492 90.752v-.907c-10.597-.002-20.19-4.298-27.14-11.248C17.4 71.643 13.1 62.047 13.098 51.44c0-10.617 4.3-20.212 11.25-27.164 6.953-6.95 16.545-11.244 27.142-11.245 10.62.002 20.22 4.295 27.175 11.246 6.952 6.952 11.248 16.547 11.25 27.164-.002 10.608-4.298 20.203-11.25 27.155-6.954 6.952-16.554 11.248-27.175 11.25v1.815c22.236 0 40.24-18.008 40.24-40.22 0-22.228-18.004-40.224-40.24-40.224-22.19 0-40.206 17.996-40.206 40.224 0 22.212 18.014 40.22 40.206 40.22v-.908zm0-87.613v-.91c-27.17 0-49.205 22.024-49.205 49.21 0 27.172 22.033 49.22 49.205 49.22 27.18 0 49.216-22.048 49.216-49.22 0-27.186-22.038-49.21-49.216-49.21v1.814c13.09.002 24.935 5.303 33.515 13.88 8.582 8.58 13.885 20.42 13.887 33.516-.002 13.087-5.305 24.933-13.887 33.517-8.58 8.58-20.424 13.888-33.515 13.89-13.088-.002-24.93-5.31-33.508-13.89C9.404 76.373 4.1 64.527 4.1 51.44c0-13.095 5.305-24.937 13.884-33.516 8.58-8.577 20.42-13.878 33.508-13.88V3.14z" fill="#f1e808"/><path d="M9.367 60.007c0 .992-.807 1.8-1.815 1.8-.99 0-1.796-.808-1.796-1.8 0-1.01.805-1.796 1.796-1.796 1.008 0 1.815.788 1.815 1.797M94.704 65.69c0 .956-.774 1.71-1.718 1.71-.96 0-1.71-.754-1.71-1.71s.75-1.715 1.71-1.715c.944 0 1.718.76 1.718 1.716" fill="#352f92"/><path d="M27.467 58.843s-1.165-1.682-.35-2.624c.774-.943 1.35-1.004.912-2.177 0 0 1.466.444 1.53 1.752.084 1.294-1.23 1.366-1.598 1.734-.365.357-.44.588-.495 1.313" fill="#37b742"/><path d="M25.246 57.997s-.593 2.53.594 3.852c1.205 1.294 1.85 1.25 2.454 2.378.552-.716.49-.627 1.798-2.38 1.092-1.47.87-2.508.693-3.584 0 0-.256.855-1.186 1.4-.914.54-1.584 1.373-1.584 2.185 0 0-.216-1.323-1.085-2.024-.86-.707-1.43-.597-1.684-1.83" fill="#37b742"/><path d="M25.314 63.473s.648 1.37 1.803 1.97c1.117.592 1.94 1.732 1.94 1.732s0-1.473.924-2.44c.904-.99 1.273-1.965 1.273-1.965s.642 1.904.1 3.692c-.568 1.802-1.64 2.234-1.537 3.813 0 0-1.092-1.09-1.913-1.52-.786-.445-2.934-1.202-2.59-5.282" fill="#37b742"/><path d="M26.168 70.38s.762 2.824 2.517 3.604c1.72.75 2.44.216 3.58 1.195 0 0-.21-.88.332-2.072.525-1.202.964-3.217-.1-5.056 0 0-.14 1.348-.494 1.894-.386.547-1.31 1.742-1.217 2.62 0 0-1.124-1.03-1.95-1.094-.82-.053-1.414.112-2.668-1.092" fill="#37b742"/><path d="M28.896 76.692s1.85 2.5 3.867 2.56c2 .06 2.502-.544 3.58 0 0 0-.442-.712-.325-1.582.112-.864.383-2.654-1.302-4.355 0 0 .048.986-.282 1.747-.328.777-.655 1.896-.218 2.676 0 0-1.095-.718-2.272-.718-.844 0-2.078.337-3.048-.328" fill="#37b742"/><path d="M33.196 80.997s.967.208 1.89.163c.933-.05 2.24-.45 3.267.316 0 0-.544-1.233-.21-2.285.337-1.022.26-1.784.042-2.324 0 0 2.206 2.173 2.28 3.313.115 1.137.188 2.002.463 2.506 0 0-1.828.416-2.525.654-1.46.47-3.686.104-5.207-2.343" fill="#37b742"/><path d="M38.077 84.757s.87 0 1.812-.498c.934-.497 2.44-1.034 3.09-.763 0 0-1.04-1.036-.975-2.02.056-.978.056-1.845-.56-2.494 0 0 2.402.815 2.94 2.335.55 1.532.493 2.674 1.162 3.096 0 0-1.034.21-1.757.72-.7.483-3.4 1.79-5.713-.377" fill="#37b742"/><path d="M43.29 87.03s.767.166 1.644-.65c.87-.82 2.227-1.423 3.107-1.304 0 0-1.095-.974-1.573-2.333-.487-1.373-1.03-1.916-1.03-1.916s3.22.065 3.56 2.393c.38 2.38 1.784 2.48 2.19 2.586 0 0-2.074-.067-2.622.59-.54.644-2.803 2.385-5.276.633M76.304 58.902s1.168-1.663.365-2.603c-.813-.942-1.364-1.023-.923-2.18 0 0-1.473.436-1.535 1.738-.08 1.303 1.228 1.38 1.576 1.736.38.376.46.58.516 1.308" fill="#37b742"/><path d="M78.515 58.06s.594 2.55-.597 3.87c-1.188 1.3-1.848 1.247-2.435 2.38-.563-.724-.493-.625-1.81-2.38-1.09-1.482-.868-2.508-.706-3.6 0 0 .272.863 1.198 1.414.925.55 1.582 1.36 1.582 2.187 0 0 .21-1.32 1.092-2.02.86-.717 1.416-.59 1.675-1.85" fill="#37b742"/><path d="M78.454 63.547s-.635 1.364-1.785 1.968c-1.156.594-1.966 1.727-1.966 1.727s0-1.47-.91-2.445c-.94-.985-1.278-1.953-1.278-1.953s-.635 1.89-.087 3.694c.537 1.81 1.634 2.237 1.505 3.816 0 0 1.086-1.08 1.914-1.54.82-.42 2.934-1.18 2.604-5.267" fill="#37b742"/><path d="M77.61 70.472s-.77 2.81-2.52 3.586c-1.74.756-2.435.218-3.6 1.19 0 0 .228-.873-.305-2.07-.56-1.197-.986-3.208.094-5.06 0 0 .107 1.37.494 1.91.378.54 1.304 1.74 1.193 2.62 0 0 1.142-1.05 1.953-1.107.827-.042 1.418.12 2.69-1.068" fill="#37b742"/><path d="M74.88 76.776s-1.87 2.483-3.883 2.54c-1.982.078-2.475-.53-3.567 0 0 0 .432-.704.317-1.572-.1-.873-.373-2.666 1.308-4.35 0 0-.04.98.26 1.737.34.763.66 1.898.228 2.675 0 0 1.08-.717 2.28-.717.85 0 2.084.334 3.057-.312" fill="#37b742"/><path d="M70.584 81.058s-.974.23-1.917.177c-.92-.053-2.216-.44-3.237.31 0 0 .516-1.25.196-2.287-.33-1.02-.272-1.768-.06-2.333 0 0-2.187 2.18-2.265 3.336-.13 1.136-.175 2-.452 2.49 0 0 1.796.435 2.506.657 1.483.482 3.7.106 5.23-2.35" fill="#37b742"/><path d="M65.68 84.815s-.844 0-1.807-.486c-.92-.493-2.434-1.028-3.1-.757 0 0 1.054-1.03.996-2.028-.055-.958-.055-1.842.524-2.494 0 0-2.38.817-2.932 2.347-.54 1.524-.49 2.656-1.136 3.106 0 0 1.024.207 1.747.703.7.487 3.405 1.785 5.706-.39" fill="#37b742"/><path d="M60.467 87.116s-.777.15-1.645-.66c-.854-.818-2.238-1.424-3.086-1.316 0 0 1.074-.97 1.572-2.326.5-1.368 1.026-1.92 1.026-1.92s-3.23.077-3.573 2.386c-.364 2.398-1.79 2.505-2.177 2.62 0 0 2.062-.094 2.615.57.556.654 2.83 2.367 5.27.646" fill="#37b742"/><path d="M8.513 52.657c1.467 0 1.912-.463 1.88-1.344-.037-1.175-.76-1.53-1.92-1.502l-2.845.026c-.55.023-.743.22-.743.805l-.26.01-.032-2 .273-.004c.008.59.19.79.75.79l2.897-.055c1.43-.024 2.176.583 2.206 2.17.03 1.607-.702 2.397-1.944 2.432l-3.086.053c-.547.008-.722.203-.722.803h-.264l-.048-2.895.262-.008c0 .595.19.79.75.78l2.845-.058zM9.523 43.192l-2.67-.4c-.674-.117-1.083-.117-1.294.68l-.257-.044.34-2.1.276.04c0 .78.29.893.992 1l4.458.67-.12.744-5.034 2.526 3.067.46c.874.13 1.074.07 1.366-.757l.276.04-.363 2.276-.26-.045c0-.792-.215-.975-.96-1.068l-3.675-.57c-.32.196-.56.493-.7.833l-.264-.048.314-2.023 4.505-2.212zM7.15 39.836c-.562-.153-.792-.01-.94.558l-.276-.065.79-2.805.28.076c-.166.557-.065.802.493.954l3.74 1.033c.56.153.777 0 .943-.56l.26.085-.788 2.79-.252-.07c.16-.564.038-.81-.503-.958L7.15 39.836zM7.77 34.56l.255.097c-.175.55-.083.663.082.73l.366.027 3.707.125-2.458-2.1c-.147-.125-.292-.263-.462-.33-.376-.156-.64.09-.787.422l-.257-.113.737-1.853.24.105c-.066.517-.093.736.792 1.477l3.608 3.07-.23.636-4.875-.13c-.546-.037-1.14-.13-1.435.442l-.26-.086.976-2.52zM14.19 33.756c.28-.512.215-.763-.285-1.048l-3.388-1.904c-.525-.267-.772-.17-1.046.328l-.245-.123 2.395-4.266 1.556.297-.026.257c-.878.146-1.817.584-2.252 1.39-.36.626-.15.743.39 1.027l1.367.783.086-.16c.398-.694.436-1.075-.14-1.71l.167-.27 2.016 1.136-.132.27c-.834-.22-1.177.07-1.56.766l-.105.14 1.49.837c.417.226.727.332.993-.153.496-.893.432-1.95.092-2.855l.224-.143.994 1.27-2.373 4.254-.214-.124zM15.998 25.21c.8-1.054.705-1.645.017-2.172-.655-.492-1.167-.29-1.696.407-.305.41-.17.57.207.838L15.9 25.33l.098-.12zm2.99-.905c.625.102 1.19.17 1.664-.36l.213.163-1.204 1.594c-.29-.017-.525-.086-.76-.122l-1.1-.243c-1.13-.24-1.39-.043-1.605.22l1.458 1.1c.437.348.706.296 1.05-.157l.232.14-1.757 2.312-.218-.15c.36-.48.348-.746-.132-1.087l-3.09-2.355c-.45-.34-.714-.293-1.06.174l-.22-.164 2.115-2.76c.704-.965 1.694-1.158 2.37-.64.702.55.552 1.424.21 2.115.272-.082.59-.013.87.028l.965.192zM20.703 18.13l-.125.293c-.738-.162-1.904-.185-2.488.4-.39.402-.485.928-.078 1.332.472.485 1.07.102 1.563-.15l.438-.243c.943-.473 1.95-.834 2.8 0 .792.792.703 1.988-.063 2.74-.24.245-.54.438-.83.596l-.356.236c-.097.096-.145.147-.34.685l-1.702-.938.158-.29c.898.192 2.084.278 2.783-.425.393-.417.514-1.13.08-1.572-.474-.47-1.076-.15-1.545.097-1 .533-2.25 1.213-3.22.23-.734-.71-.66-1.772.07-2.488.225-.23.446-.37.725-.526l.3-.172c.146-.145.21-.467.21-.648l1.62.84zM21.83 16.484c-.364-.445-.62-.447-1.083-.076l-.17-.21 2.237-1.85.162.216c-.43.373-.49.638-.12 1.07l2.466 3.01c.37.442.64.442 1.1.082l.165.203-2.237 1.84-.157-.196c.44-.383.48-.645.108-1.076l-2.47-3.014zM28.03 16.544c.35.513.424.665 1.026.28.85-.547 1.188-1.437-.018-3.303-1.077-1.676-1.98-1.7-2.905-1.116-.53.34-.406.545-.11.98l2.006 3.16zm-1.296 1.84c.458-.312.544-.572.227-1.05l-2.084-3.275c-.328-.486-.576-.525-1.07-.225l-.167-.21 2.383-1.516c.435-.28.843-.47 1.286-.575 1.093-.21 2.25.18 3.018 1.4.72 1.11.598 2.357-.034 3.21-.264.384-.627.668-1.08.943l-2.362 1.523-.118-.227zM32.358 9.632l.196 2.774 1.61-.736-1.806-2.038zm3.85 2.37c.41.46.67.81 1.338.534l.106.247-2.595 1.168-.114-.25c.48-.235.53-.382.432-.588-.04-.152-.175-.282-.292-.413l-.648-.743-1.87.85.032.557c.04.21.04.46.134.67.167.378.58.378.92.254l.104.25-1.967.878-.104-.242c.612-.51.583-.945.55-1.653l-.29-4.485.93-.83 3.336 3.798z" fill="#352f92"/><path d="M39.197 11.224c.157.58.208.747.884.56.995-.268 1.557-1.02.958-3.163-.526-1.913-1.395-2.208-2.456-1.906-.606.176-.538.407-.396.895l1.01 3.614zm-1.805 1.378c.564-.162.705-.385.556-.933l-1.052-3.754c-.17-.55-.405-.656-.967-.503l-.08-.247 2.723-.782c.476-.132.943-.193 1.367-.146 1.135.103 2.12.83 2.504 2.206.36 1.266-.12 2.43-.96 3.072-.375.27-.802.44-1.317.576l-2.71.76-.065-.25zM46.702 5.83c-.056-.55-.264-.73-.843-.678l-.04-.248 2.903-.272.02.277c-.588.05-.766.242-.708.8l.333 3.89c.07.575.267.724.87.678l.02.265-2.893.256-.03-.27c.57-.068.788-.252.707-.82l-.34-3.88zM52.257 7.165c1.036.012 1.513-.308 1.52-1.163.016-.83-.46-1.127-1.244-1.14-.197-.013-.44.013-.548.144-.122.112-.122.277-.122.427l-.056 1.706.45.025zm-.5 2.058c-.016.69-.028 1.01.797 1.02.792.027 1.394-.347 1.435-1.388 0-.715-.22-1.29-1.733-1.313l-.45-.025-.05 1.706zm-2.126 1.224v-.272c.573.02.768-.154.816-.723l.08-3.902c.02-.57-.186-.757-.752-.757V4.52l2.938.073c2.05.05 2.485.71 2.477 1.42-.02.844-.88 1.213-1.575 1.326v.027c.882.2 1.79.55 1.77 1.633-.028.96-.74 1.574-2.325 1.526l-3.43-.08zM55.8 10.38c.567.082.805-.056.91-.606l.665-3.854c.068-.554-.092-.77-.665-.874l.037-.254 4.82.812.233 1.573-.248.073c-.425-.79-1.15-1.505-2.062-1.668-.72-.12-.764.11-.854.7L58.39 7.85l.145.02c.792.146 1.165.063 1.592-.704l.302.06-.392 2.294-.327-.036c-.056-.855-.446-1.1-1.233-1.247l-.163-.02-.277 1.68c-.086.465-.086.796.47.88.983.157 1.97-.234 2.714-.864l.192.155-.846 1.384-4.8-.815.035-.257zM64.472 9.224c1.277.418 1.792.123 2.063-.684.24-.776-.12-1.206-.93-1.472-.517-.173-.6.013-.75.457l-.513 1.67.13.03zm1.87 2.544c.115.6.222 1.165.877 1.426l-.085.25-1.904-.608c-.075-.234-.098-.505-.132-.744l-.14-1.12c-.12-1.147-.406-1.32-.728-1.422l-.57 1.732c-.184.523-.04.757.517.935l-.08.246-2.764-.858.08-.28c.567.19.82.09.984-.46l1.194-3.7c.175-.55.03-.78-.53-.958l.086-.26 3.31 1.072c1.14.347 1.664 1.2 1.39 2.018-.265.84-1.15 1.01-1.937.91.197.248.23.55.275.85l.158.97zM69.733 11.457c-.89 1.825-.718 2.757.07 3.153 1.316.652 2.178-.798 2.664-1.782.927-1.872.676-2.783-.09-3.177-.833-.41-1.753.06-2.644 1.807m-1.277-.562c.772-1.534 2.414-2.353 4.01-1.534 1.632.816 2.074 2.446 1.27 4.05-.727 1.454-2.38 2.344-4.043 1.502-1.59-.788-2.046-2.428-1.237-4.017M77.632 13.612l-2.267 1.58 1.44 1.012.827-2.592zm-.082 4.52c-.205.594-.362.98.236 1.416l-.154.214-2.316-1.633.15-.206c.437.273.58.25.742.063l.185-.444.3-.953-1.704-1.173-.418.303c-.178.126-.408.272-.525.47-.242.34-.043.675.226.898l-.142.22-1.74-1.235.126-.227c.757.272 1.114.04 1.703-.362l3.714-2.55 1.183.378-1.567 4.82z" fill="#352f92"/><path d="M82.857 23.42c-.394.398-.376.665.028 1.092l-.168.183-2.087-2.03.203-.198c.41.412.69.42 1.08.034l2.955-3.054v-.004l-4.99 2.497-.215-.213 2.25-4.914-.02-.02-2.288 2.362c-.9.92-.986 1.096-.5 1.64l-.188.202-1.46-1.44.175-.194c.614.4.77.41 1.665-.503l2.164-2.237c.434-.434.36-.704-.033-1.07l.196-.205 1.686 1.664-1.67 3.56 3.566-1.727 1.634 1.6-.174.2c-.448-.378-.66-.462-1.092-.005l-2.717 2.78zM83.088 24.828c.334.465.597.53 1.07.19l3.145-2.328c.414-.332.473-.584.128-1.067l.2-.167 2.892 3.93-.906 1.315-.228-.136c.244-.863.228-1.888-.32-2.633-.442-.573-.615-.433-1.123-.075l-1.263.937.098.132c.488.65.797.858 1.63.587l.204.257-1.912 1.39-.183-.26c.534-.66.44-1.1-.037-1.74l-.09-.14-1.378 1.016c-.387.273-.61.51-.274.97.598.806 1.58 1.197 2.563 1.254l.03.244-1.555.403-2.905-3.91.215-.165zM90.12 30.013c.637 1.176 1.198 1.32 1.96.907.714-.384.742-.938.338-1.686-.25-.475-.44-.402-.844-.183l-1.536.83.082.133zm-.427 3.117c-.343.518-.64.994-.355 1.633l-.24.125-.943-1.755c.117-.216.297-.424.442-.635l.647-.898c.696-.932.617-1.237.45-1.542l-1.588.862c-.485.27-.548.532-.276 1.05l-.237.127-1.375-2.552.233-.124c.28.51.544.6 1.017.34l3.45-1.86c.495-.264.568-.525.272-1.045l.26-.137 1.617 3.064c.59 1.064.358 2.01-.385 2.414-.798.434-1.544-.048-2.03-.678-.032.307-.218.557-.39.795l-.57.817z" fill="#352f92"/><path d="M93.81 33.707c.524-.2.62-.462.41-.998l.248-.098 1.07 2.684-.24.1c-.23-.54-.475-.666-.992-.45l-3.623 1.47c-.53.192-.614.464-.387.99l-.258.102-1.087-2.694.243-.09c.225.534.476.663 1.004.447l3.613-1.463zM95.762 41.903l-.183-.314c.628-.558 1.27-1.428 1.02-2.314-.326-1.182-1.918-1.036-2.822-.788-1.894.54-2.4 1.686-2.177 2.555.23.766.904 1.116 1.587 1.37l-.084.252c-1.09-.282-1.914-.838-2.232-1.965-.437-1.56.555-3.016 2.055-3.428 1.625-.454 3.486.198 3.95 1.808.07.284.07.523.07.73 0 .22-.026.397.017.555.048.202.193.376.34.515l.056.08-1.596.943zM97.025 44.98l-2.71-.608.252 1.763 2.458-1.156zm-3.37 3.023c-.553.252-.974.39-.885 1.113l-.265.03-.365-2.81.244-.027c.094.495.21.6.457.58l.46-.166.92-.415-.29-2.047-.53-.104c-.217-.05-.475-.108-.686-.07-.42.042-.533.445-.5.793l-.28.038-.287-2.13.27-.032c.312.715.748.827 1.423.982l4.376 1.003.556 1.122-4.617 2.138z" fill="#352f92"/><path d="M94.22 53.824l2.7.044c.695.01 1.075-.057 1.16-.856h.273l-.048 2.153-.26-.01c-.108-.775-.43-.85-1.134-.87l-4.505-.068.014-.74 4.653-3.177-3.104-.064c-.903 0-1.063.103-1.245.943h-.265l.023-2.297.267.003c.122.772.352.924 1.096.935l3.732.06c.272-.222.483-.552.565-.907h.268l-.016 2.06-4.175 2.79zM96.945 58.435l-2.396-1.36-.303 1.767 2.698-.407zm-4.103 1.922c-.597.092-1.023.102-1.152.81l-.28-.038.46-2.812.27.064c-.072.495.007.64.245.678.158.017.34.008.486-.026l.977-.132.34-2.044-.482-.256c-.208-.102-.405-.224-.652-.282-.39-.053-.607.29-.69.647l-.282-.057.366-2.126.267.054c.08.77.45 1.002 1.072 1.343l3.896 2.23.205 1.226-5.043.72zM7.764 65.353c-.57.19-.736.256-.492.89.31.932 1.066 1.453 3.105.727 1.817-.633 2.063-1.5 1.69-2.5-.198-.573-.43-.494-.886-.324l-3.416 1.207zM6.327 63.69c.177.53.396.662.903.482l3.58-1.246c.516-.203.602-.422.425-.976l.226-.073.917 2.57c.162.464.25.873.25 1.324-.044 1.093-.682 2.1-1.994 2.56-1.203.412-2.348.026-3.02-.756-.288-.338-.464-.757-.634-1.214l-.9-2.587.247-.084z" fill="#352f92"/><path d="M8.423 69.544c.233.498.493.608.968.356l3.392-1.685c.495-.232.543-.498.307-1.01l.207-.113 2.118 4.228-1.086 1.094-.19-.176c.363-.766.51-1.757.123-2.56-.32-.62-.526-.516-1.034-.255l-1.374.68.068.145c.348.703.632.96 1.455.84l.12.25-2.012 1.04-.137-.29c.637-.528.595-.98.264-1.655l-.088-.16-1.48.74c-.414.207-.655.375-.414.88.456.856 1.33 1.39 2.237 1.613v.253l-1.584.118-2.104-4.226.24-.108zM18.43 78.564l-.284-.223c.402-.73.683-1.73.148-2.45-.714-.96-2.098-.256-2.826.282-1.526 1.125-1.592 2.334-1.084 3.045.464.614 1.195.702 1.904.68v.256c-1.08.135-2.024-.084-2.696-1.005-.923-1.252-.53-2.907.672-3.8 1.315-.964 3.232-1.027 4.22.286.154.215.22.444.292.63.07.202.122.368.21.487.128.16.315.27.468.36l.104.052-1.128 1.402z" fill="#352f92"/><path d="M19.427 78.612c.416-.35.416-.618.022-1.042l.21-.173 1.864 2.095-.19.17c-.377-.41-.648-.446-1.054-.09l-2.81 2.512c-.414.36-.414.627-.044 1.047l-.193.173-1.873-2.1.2-.164c.356.42.617.455 1.053.082l2.814-2.51z" fill="#352f92"/><path d="M17.645 83.438c.408.373.677.4 1.045-.012l2.578-2.76c.383-.4.333-.642-.06-1.04l.17-.192 3.455 3.238-.633 1.38-.26-.06c.092-.88-.113-1.85-.758-2.458-.508-.483-.672-.307-1.07.1l-1.04 1.144.12.094c.57.534.9.663 1.648.275l.215.212-1.558 1.647-.23-.208c.404-.707.23-1.115-.322-1.653l-.124-.112-1.14 1.215c-.31.32-.49.575-.068.968.71.657 1.722.833 2.65.75l.09.22-1.432.66-3.443-3.22.168-.19z" fill="#352f92"/><path d="M26.35 88.772l1.54-2.12c.403-.534.563-.88-.026-1.384l.152-.21 1.675 1.198-.145.215c-.68-.346-.918-.146-1.324.413l-2.565 3.534-.57-.416.082-5.46-1.764 2.43c-.51.7-.533.885.042 1.51l-.177.205-1.782-1.3.164-.21c.68.352.928.228 1.34-.335l2.113-2.918c-.02-.348-.17-.703-.398-.97l.152-.2 1.607 1.17-.113 4.85zM33.122 89.95l-.353-.072c.05-.825-.114-1.856-.907-2.292-1.043-.57-1.998.627-2.427 1.427-.924 1.66-.497 2.8.29 3.232.678.356 1.365.142 2.006-.18l.11.235c-.926.564-1.873.762-2.866.217-1.38-.76-1.698-2.425-.967-3.736.774-1.436 2.483-2.294 3.9-1.514.255.137.443.302.586.452.13.152.23.282.376.363.18.105.388.105.58.116l.097.01-.428 1.743z" fill="#352f92"/><path d="M34.064 89.59c.234-.497.13-.727-.4-.948l.115-.234 2.562 1.122-.107.224c-.526-.224-.76-.163-.968.357l-1.513 3.473c-.22.494-.116.726.394.95l-.1.238-2.566-1.12.106-.222c.53.218.765.136.988-.366l1.488-3.47z" fill="#352f92"/><path d="M38.02 91.033L36.34 93.12l1.63.53.047-2.617zm1.186 4.202c-.01.595-.056 1.005.62 1.24l-.096.26-2.62-.875.098-.25c.47.15.61.08.686-.143.063-.128.063-.297.063-.448l.02-.966-1.9-.626-.308.414c-.13.162-.296.35-.367.57-.11.37.175.638.498.77l-.088.24-1.988-.65.09-.253c.75.045 1.01-.278 1.46-.815l2.723-3.383h1.213l-.104 4.913zM45.073 91.877l-.04.256c-.412-.033-.506.02-.562.196-.02.15.044.256.078.373l.764 1.883 1.112-1.325c.126-.116.238-.28.27-.463.055-.36-.286-.42-.555-.493l.032-.26 2.065.305-.03.253c-.574-.01-.786.165-1.166.56l-.136.167-1.438 1.65-.256 1.72c-.09.504.05.745.648.824l-.054.267-2.783-.42.052-.263c.5.028.765.052.873-.594l.232-1.482-1.138-2.64c-.168-.384-.282-.528-.686-.665l.025-.256 2.693.407zM54.192 92.35l.452 1.566-.276.084c-.39-.585-1.105-1.315-1.852-1.315l.066 4.448c0 .545.207.734.763.705v.257l-2.8.06v-.258c.562-.026.753-.195.75-.744l-.073-4.45c-.775.108-1.386.725-1.803 1.368l-.272-.07.345-1.577 4.7-.074z" fill="#352f92"/><path d="M54.45 97.867c.572-.082.74-.28.655-.83l-.413-3.74c-.084-.546-.28-.694-.848-.625l-.028-.252 4.69-.543.657 1.394-.227.128c-.603-.612-1.477-1.094-2.353-.997-.716.08-.657.315-.597.896l.16 1.504.165-.003c.793-.094 1.113-.264 1.297-1.087l.284-.025.264 2.242-.304.05c-.3-.782-.72-.908-1.483-.822l-.163.015.163 1.636c.077.46.152.76.704.692.966-.1 1.793-.753 2.293-1.52l.223.078-.423 1.51-4.677.532-.036-.23zM64.097 92.262l-.312.19c-.52-.657-1.328-1.3-2.204-1.097-1.152.273-1.07 1.81-.858 2.7.447 1.846 1.544 2.383 2.384 2.185.755-.18 1.123-.8 1.38-1.47l.226.1c-.308 1.045-.87 1.813-1.98 2.08-1.51.36-2.873-.64-3.235-2.118-.36-1.597.335-3.382 1.908-3.756.272-.068.51-.043.71-.043.21.026.385.043.545.006.188-.043.363-.187.512-.298l.067-.07.857 1.59z" fill="#352f92"/><path d="M69.174 92.895l-.91-2.43c-.257-.635-.42-.973-1.185-.77l-.09-.233 1.926-.72.1.225c-.65.4-.622.694-.375 1.34l1.524 4.08-.665.255-4.502-3.072 1.04 2.818c.305.794.442.93 1.275.794l.068.26-2.05.754-.1-.244c.664-.355.717-.627.466-1.31l-1.247-3.38c-.316-.185-.684-.254-1.036-.197l-.095-.226 1.875-.697 3.98 2.752zM71.212 90.726c.925 1.73 1.782 2.12 2.522 1.726 1.256-.676.59-2.166.093-3.12-.965-1.775-1.818-2.087-2.564-1.702-.79.44-.93 1.422-.05 3.096m-1.158.693c-.795-1.46-.513-3.206 1.023-4.028 1.55-.823 3.087-.267 3.912 1.252.757 1.39.505 3.208-1.082 4.06-1.51.814-3.038.253-3.853-1.285M76.648 90.72c.453-.338.533-.577.206-1.04l-2.15-3.1c-.31-.446-.572-.462-1.044-.147l-.147-.208 2.3-1.614.14.206c-.458.335-.53.584-.204 1.036l2.166 3.103c.253.375.4.538.852.208.813-.56 1.11-1.55 1.186-2.438l.21-.075.518 1.563-3.876 2.707-.158-.2z" fill="#352f92"/><path d="M80.084 84.932c1.315 1.465 2.214 1.65 2.855 1.098 1.068-.958.05-2.267-.648-3.053-1.346-1.513-2.25-1.606-2.876-1.048-.658.594-.585 1.593.668 3.002m-.966.966c-1.107-1.257-1.238-3 .06-4.17 1.288-1.168 2.94-.99 4.086.295 1.065 1.178 1.255 2.984-.09 4.182-1.28 1.153-2.897.97-4.056-.307M85.793 77.132l-.093.238c-1.18-.063-1.886-.03-2.324.503-.504.58-.492 1.633 1.027 2.925 1.49 1.285 2.437 1.308 3.028.648.55-.65.146-1.173-.392-1.648-.496-.404-.633-.318-1.052.097l-.256-.19 1.737-2.02.234.21c-.365.53-.27.704.18 1.088l.877.757c-.338.413-.354.46-.57.924-.16.394-.322.733-.61 1.054-1.095 1.282-2.632 1.347-3.89.243-1.225-1.015-1.725-2.942-.6-4.23.16-.197.323-.294.488-.39l.4-.286c.113-.165.227-.457.252-.653l1.566.732z" fill="#352f92"/><path d="M86.07 75.77c-.454-.31-.73-.26-1.045.207l-.216-.137 1.616-2.302.218.152c-.325.46-.317.71.145 1.03l3.09 2.17c.45.296.713.255 1.037-.214l.198.145-1.61 2.31-.205-.162c.332-.456.285-.705-.148-1.022L86.07 75.77z" fill="#352f92"/><path d="M88.253 72.184l1.704 2.057.853-1.49-2.557-.566zm4.353-.346c.58.15.97.278 1.332-.304l.22.12-1.364 2.378-.217-.127c.234-.45.217-.6 0-.716l-.43-.143-.94-.218-1 1.73.332.402c.143.157.308.357.483.456.376.216.678-.035.86-.32l.245.128-1.043 1.804-.237-.134c.198-.72-.068-1.056-.502-1.58l-2.77-3.346.254-1.183 4.776 1.05z" fill="#352f92"/><path d="M52.603 76.538v-21.61h-.547v21.61M40.972 61.95h5.258l-.13.878.686.706h-6.394l.777-.782-.198-.8zM46.72 65.687h-6.443V64.63h6.444v1.057zM45.63 66.58v.647h-.79l-.694 5.636-1.168.023-.875-5.66h-.597v-.703l4.124.056z" fill="#06a850"/><path d="M36.115 66.36s-.04 1.214.79 1.547c.792.32 1.744 1.03 1.744 1.03l.017.52s1.845 1.21 4.354 1.113c2.535-.106 4.767-.904 4.767-.904v-.66s1.632-.845 1.997-1.163c.34-.328.717-.803.613-1.435 0 0-.425.78-1.38.816 0 0 .63-.864.272-1.694 0 0-1.052 1.524-2.913 1.985l-.276.08.097.7s-1.34.39-3.243.317c-1.916-.09-2.58-.317-2.58-.317l.078-.7s-1.222-.488-1.803-.753c-.573-.286-1.428-1.452-1.428-1.452s-.37 1.193.325 1.89c0 0-1.37-.226-1.432-.92" fill="#fff"/><path d="M37.075 65.23c-.006.025-.112.41-.112.844 0 .358.112.703.35.995-.35-.087-.962-.315-1.09-.892l-.086-.35-.12.35s-.426 1.217 1.278 2.153l1.417.8.107-.184-1.428-.813c-1.04-.58-1.216-1.223-1.216-1.59v-.014c.403.66 1.338.817 1.386.832l.08-.2c-.347-.237-.464-.694-.464-1.088 0-.178.044-.347.06-.487.235.434.84 1.206 2.167 1.64.388.135.61.21.762.29-.193-.044-.58-.117-.58-.117-.322-.053-.624-.097-.685.09-.07.237.443.545.585.6 0 0 .662.536 4.026.627v-.21c-3.237-.087-3.89-.6-3.89-.6-.258-.103-.497-.282-.497-.363l.417.08.707.103c.262.043.367-.003.402-.102.018-.11.03-.205-1.165-.584-1.742-.585-2.174-1.81-2.192-1.81l-.117-.318-.103.317z" fill="#02080a"/><path d="M40.375 68.295l.175-.08c-.028-.06.03-.308.132-.55l-.23-.07c-.057.208-.176.565-.077.7M38.645 69.563c.077.09 1.385.958 4.644 1.064v-.22c-3.172-.087-4.484-.95-4.484-.97-.02-.178.144-1.222.264-1.885l-.204-.025c-.048.168-.345 1.658-.22 2.036M49.26 65.23s-.455 1.225-2.186 1.81c-1.216.38-1.19.476-1.174.585.02.1.147.145.397.102l.716-.102.444-.038c-.036.024-.27.217-.472.3-.04.02-.71.533-3.956.62l.012.21c3.364-.09 4.008-.622 4.05-.644.108-.038.62-.346.542-.582-.065-.187-.368-.143-.67-.09 0 0-.38.073-.587.116.17-.078.384-.154.753-.29 1.347-.433 1.944-1.205 2.188-1.64.02.14.06.31.06.488 0 .394-.1.86-.466 1.087l.068.202c.053-.015.993-.173 1.4-.833v.014c0 .366-.178 1.008-1.23 1.59l-1.42.812.113.185 1.436-.8c1.686-.935 1.264-2.152 1.264-2.152l-.147-.35-.073.35c-.122.577-.724.805-1.087.89.23-.29.343-.636.343-.994 0-.434-.1-.82-.112-.845l-.09-.318-.12.317z" fill="#02080a"/><path d="M45.883 67.665c.083.242.114.49.114.55l.2.08c.08-.135-.06-.492-.096-.7l-.217.07zM47.472 67.552c.112.566.247 1.42.247 1.79l-.007.157c-.007-.013-1.336.827-4.463.905v.22c3.255-.103 4.563-.97 4.628-1 .143-.44-.16-1.93-.185-2.1l-.22.027z" fill="#02080a"/><path d="M42.104 61.746s-.504-.51-1.09-1.452c-.828-1.37-.704-4.362 3.5-3.206 1.344.385 1.953.152 2.752-.71 0 0 .206 1.37-1.462 1.886-1.67.504-2.206-.407-3.425.578-.85.716-.564 1.907-.276 2.904" fill="#ed192e"/><path d="M43.27 61.667s-.74-1.464.368-2.168c0 0 .645-.508 1.805-.308 1.6.292 3.144-.508 2.856-2.787 0 0 1.518 2.676-.21 3.77-1.755 1.09-4.452-1.123-4.82 1.492" fill="#ed192e"/><path d="M68.007 64.527c0 3.987-3.23 7.217-7.22 7.217-3.977 0-7.21-3.23-7.21-7.217 0-3.98 3.233-7.213 7.21-7.213 3.99 0 7.22 3.233 7.22 7.213" fill="#2478c7"/><path d="M58.478 57.578s.224.303.072.595c-.16.302-.227.48-.072.558l.625.192.17.342-.66.18s-.29-.245-.46-.037c-.202.185-.693.225-.494.663.163.446.494.78.73.626.276-.13.713-.436.884-.48.205-.028.385.232.47.48.068.274.17.455.327.54.153.065.343.21.184.354-.127.163-.595 0-.747.163-.145.147-.957.4-1.138.47-.19.075-1.09.464-1.168.606-.07.14.12.547-.03.627l-.33-.402-.31-.27c-.107 0-.628.234-.674.704-.01.486.166.672.364.738.167.073.49.05.49.328v.673l.49.196c.174 0 .952.117 1.167.183.223.078.43.41.733.52.298.112.68.192.775.192l.647.216c.025.11.503.264.412.7-.133.458-.64.834-.714 1.192-.074.38-.074.487-.152.635-.083.16-.796.965-.862 1.125l-.105.373-.066.398s0 .573-.31.26c-.282-.3-.22-1.117-.22-1.328 0-.236.043-1.196.043-1.196s-.18-.226-.343-.33c-.12-.12-.706-.33-.747-.59-.022-.262-.06-.737-.06-.935 0-.193.06-.598.06-.598l-.084-.48-.868-.18-.233-.94s-.29-.223-.473-.29c-.185-.073-.67-.75-.75-1.145-.067-.423-.067-.786-.067-.786v-.792c0-.14-.262-.477-.34-.327v1.143s-.262.576-.335.272c-.077-.294.06-1.166.06-1.166l.498-1.45s1.737-2.136 3.61-2.522M59.812 57.473s-.266.262-.03.37c.204.12.472.45.472.45v.297l.044.287.228.312-.048.368s.262.173.413.104l.298-.473.298-.193-.336-.37-.41-.333-.19-.45c-.024-.11-.587-.37-.738-.37M59.037 57.882l.325.12.075.33-.075.103h-.198l-.175-.14s-.288-.413.047-.413M59.745 58.955l-.16.234.073.255.256.267.156-.38-.325-.377zM64.303 62.42s-.168-.463.043-.49c.22-.03.41-.176.495-.34l.126-.474.388-.118.3.053.484-.202v-.283s-.127-.116-.127-.268v-.486l-.146.29-.246.507s-.31-.234-.355-.392l.167-.553.107-.33.16-.264s.946.89 1.44 1.9c.474.99.67 1.522.67 1.522s-.11.117-.33-.046c-.237-.145-.34-.29-.397-.41l-.233-.133-.23-.075-.054-.317-.32.12s-.493 0-.333.126c.16.104.267.343.267.343l.165.124-.137.12-.374-.225-.212-.184s-.08-.072-.23 0c-.156.076-.22 0-.255.167l-.193.43s-.637.225-.637-.106M64.19 60.848l-.055-.33-.12-.303c0-.116-.036-.322.12-.258.156.08.293.382.293.382l.188.267.068.088v.13l-.117.173s-.324 0-.376-.15M62.935 59.034l.162.26.317.037.16-.185c0-.11.148.12 0-.11-.16-.232-.362-.266-.362-.266l-.202-.264-.18.45.105.078zM65.017 63.056l-.63-.05-.408.11-.405.898s-.22.513.25.998c.478.482.79.748.95.748h1.004l.207.68c0 .097-.157 1.105-.157 1.256l.157.55.548.338.45-.153s.75-1.375.92-2.25c.197-.902.238-2.415.238-2.415l-.24-.533-.382.073s-1.023.07-1.177 0l-.564-.3-.763.05z" fill="#f4a80f"/><path d="M35.525 37.5V47.74" fill="#a4d991"/><path d="M35.45 37.5V47.74h.152V37.5" fill="#06a850"/><path d="M36.35 37.5V47.74" fill="#a4d991"/><path d="M36.275 37.5V47.74h.15V37.5" fill="#06a850"/><path d="M37.177 37.5V47.74" fill="#a4d991"/><path d="M37.1 37.5V47.74h.153V37.5" fill="#06a850"/><path d="M38 37.5V47.74" fill="#a4d991"/><path d="M37.923 37.5V47.74h.15V37.5" fill="#06a850"/><path d="M38.83 37.508v10.26" fill="#a4d991"/><path d="M38.756 37.508v10.26h.152V37.51" fill="#06a850"/><path d="M39.656 37.508v10.26" fill="#a4d991"/><path d="M39.58 37.508v10.26h.152V37.51" fill="#06a850"/><path d="M40.465 37.508v10.26" fill="#a4d991"/><path d="M40.39 37.508v10.26h.15V37.51" fill="#06a850"/><path d="M41.32 37.508v10.27" fill="#a4d991"/><path d="M41.245 37.508v10.27h.152v-10.27" fill="#06a850"/><path d="M42.152 37.508v10.27" fill="#a4d991"/><path d="M42.076 37.508v10.27h.152v-10.27" fill="#06a850"/><path d="M42.966 37.508v10.276" fill="#a4d991"/><path d="M42.89 37.508v10.276h.152V37.508" fill="#06a850"/><path d="M43.79 37.508v10.28" fill="#a4d991"/><path d="M43.715 37.508v10.28h.152V37.51" fill="#06a850"/><path d="M44.622 37.508v10.29" fill="#a4d991"/><path d="M44.546 37.508v10.29h.152V37.51" fill="#06a850"/><path d="M45.444 37.508v10.29" fill="#a4d991"/><path d="M45.368 37.508v10.29h.152V37.51" fill="#06a850"/><path d="M46.277 37.524v10.29" fill="#a4d991"/><path d="M46.2 37.524v10.29h.153v-10.29" fill="#06a850"/><path d="M47.093 37.524V47.82" fill="#a4d991"/><path d="M47.018 37.524V47.82h.15V37.523" fill="#06a850"/><path d="M47.93 37.524V47.82" fill="#a4d991"/><path d="M47.855 37.524V47.82h.152V37.523" fill="#06a850"/><path d="M48.745 37.524V47.82" fill="#a4d991"/><path d="M48.67 37.524V47.82h.15V37.523" fill="#06a850"/><path d="M49.58 37.524V47.82" fill="#a4d991"/><path d="M49.505 37.524V47.82h.152V37.524" fill="#06a850"/><path d="M50.398 37.524V47.82" fill="#a4d991"/><path d="M50.322 37.524V47.82h.152V37.524" fill="#06a850"/><path d="M51.237 37.524V47.82" fill="#a4d991"/><path d="M51.16 37.524V47.82h.153V37.524" fill="#06a850"/><path d="M52.054 37.542v10.31" fill="#a4d991"/><path d="M51.978 37.542v10.31h.152v-10.31" fill="#06a850"/><path d="M52.883 37.542v10.31" fill="#a4d991"/><path d="M52.808 37.542v10.31h.152v-10.31" fill="#06a850"/><path d="M53.713 37.542v10.31" fill="#a4d991"/><path d="M53.638 37.542v10.31h.152v-10.31" fill="#06a850"/><path d="M54.527 37.542v10.314" fill="#a4d991"/><path d="M54.45 37.542v10.314h.153V37.542" fill="#06a850"/><path d="M55.357 37.542v10.33" fill="#a4d991"/><path d="M55.28 37.542v10.33h.153V37.54" fill="#06a850"/><path d="M56.183 37.542v10.33" fill="#a4d991"/><path d="M56.107 37.542v10.33h.152V37.54" fill="#06a850"/><path d="M57.005 37.542v10.33" fill="#a4d991"/><path d="M56.93 37.542v10.33h.15V37.54" fill="#06a850"/><path d="M57.823 37.542v10.34" fill="#a4d991"/><path d="M57.748 37.542v10.34h.152v-10.34" fill="#06a850"/><path d="M58.677 37.553v10.33" fill="#a4d991"/><path d="M58.602 37.553v10.33h.15v-10.33" fill="#06a850"/><path d="M59.49 37.553v10.334" fill="#a4d991"/><path d="M59.415 37.553v10.334h.152V37.553" fill="#06a850"/><path d="M60.317 37.553v10.334" fill="#a4d991"/><path d="M60.242 37.553v10.334h.15V37.553" fill="#06a850"/><path d="M61.15 37.56v10.327" fill="#a4d991"/><path d="M61.073 37.56v10.327h.152V37.56" fill="#06a850"/><path d="M61.98 37.56v10.336" fill="#a4d991"/><path d="M61.904 37.56v10.336h.152V37.56" fill="#06a850"/><path d="M62.802 37.56v10.346" fill="#a4d991"/><path d="M62.726 37.56v10.346h.152V37.56" fill="#06a850"/><path d="M63.622 37.56v10.346" fill="#a4d991"/><path d="M63.546 37.56v10.346h.152V37.56" fill="#06a850"/><path d="M64.448 37.56v10.36" fill="#a4d991"/><path d="M64.373 37.56v10.36h.15V37.56" fill="#06a850"/><path d="M65.264 37.56v10.367" fill="#a4d991"/><path d="M65.188 37.56v10.367h.152V37.56" fill="#06a850"/><path d="M66.108 37.56v10.367" fill="#a4d991"/><path d="M66.032 37.56v10.367h.152V37.56" fill="#06a850"/><path d="M66.934 37.57v10.356" fill="#a4d991"/><path d="M66.86 37.57v10.356h.15V37.57" fill="#06a850"/><path d="M67.756 37.57v10.38" fill="#a4d991"/><path d="M67.68 37.57v10.38h.152V37.57" fill="#06a850"/><path d="M68.57 37.57v10.38" fill="#a4d991"/><path d="M68.494 37.57v10.38h.152V37.57" fill="#06a850"/><path d="M69.41 37.576v10.377" fill="#a4d991"/><path d="M69.333 37.576v10.377h.152V37.576M31.684 37.406v.997h.152v-.997M32.42 37.406v1.264h.153v-1.264M33.23 37.36v1.573h.15V37.36M33.972 37.47v2.223h.152V37.47M34.747 37.524v3.903h.152v-3.903M72.934 37.47v.977h.152v-.976M72.23 37.47v1.238h.152V37.47M71.415 37.406v1.584h.152v-1.584M70.65 37.524v2.24h.153v-2.24M69.886 37.576v3.905h.152v-3.904" fill="#06a850"/><path d="M34.647 42.876l-6.244 3.545-.073 4.87s.357 1.285 1.246 1.285h2.71v1.602s.116.794.91.794H69.88v2.886s2.19.14 2.374-1.6v-7.022s-.184-1.155-1.418-1.285l-36.19-.136v-4.938z" fill="#f3cf0b"/><path d="M34.647 42.876l-.09-.158-6.336 3.598-.07 4.995.004.028c.003.01.095.343.312.69.21.343.567.725 1.11.73h2.527v1.432l.002.012c.003.015.033.236.185.47.147.236.444.483.905.48H69.7v2.874l.17.013h.126c.24 0 .785-.024 1.313-.253.524-.225 1.042-.69 1.124-1.51l.002-.01v-7.048l-.002-.015c-.003-.015-.053-.325-.275-.664-.22-.337-.632-.703-1.306-.77l-.01-.002-36.015-.136v-5.068l-.273.154.09.158h-.18v5.12l36.37.136v-.183l-.02.18c.558.063.855.34 1.038.61l.178.367.042.155.18-.028h-.182v7.022h.18l-.178-.018c-.078.678-.462 1.013-.913 1.216-.45.196-.953.224-1.166.224l-.104-.003-.012.18h.183V54.79H33.195c-.33-.004-.49-.153-.598-.316l-.108-.228-.024-.095-.18.027h.182v-1.782h-2.892c-.347.002-.614-.26-.804-.56l-.204-.41-.063-.185-.175.05.182.003.07-4.764 6.156-3.496-.09-.158h-.182.18z" fill="#ed192e"/><path d="M72.248 57.183c.094-.26.137-.497.137-.71.002-.714-.487-1.125-.927-1.32-.444-.2-.87-.234-.88-.235H33.304c-.393-.005-.56-.14-.672-.304-.11-.167-.14-.394-.14-.554l.013-.18.003-.015V48.54c.013-.104.003-.64.834-.832l.015-.003 1.14-.434.012-.004.012-.007.168-.116c.08-.074.198-.155.213-.35l-.106-.228c-.192-.15-.47-.19-1.078-.198h-4.836l-.01.002-.12.005-.148-.015-.014-.005-.026.053.046-.035-.02-.018-.026.053.046-.035-.082.063h.102l-.02-.063-.082.063h.102-.066l.063.023.004-.024h-.066l.063.023.022-.03c.05-.065.206-.195.5-.373.607-.378 2.008-1.12 3.248-1.76 1.243-.64 2.327-1.184 2.33-1.185l-.165-.325c-.003 0-4.35 2.18-5.604 2.96-.234.143-.394.258-.5.36l-.19.33.092.197.394.106.158-.01-.018-.178v.18h4.826c.386 0 .624.032.744.067l.09.04.04-.046h-.054l.013.045.04-.046h-.053.04l-.04-.016v.016h.04l-.04-.016-.1.1-.096.063.09.16-.066-.17-1.13.43.065.172-.038-.18c-1.03.22-1.135 1.018-1.122 1.19v.04l.183-.016h-.183v5.284h.183l-.18-.03-.016.24c0 .198.028.488.196.752.163.266.493.475.977.47h37.257V55.1l-.013.182.23.035c.22.044.542.14.798.323.256.185.44.428.442.832 0 .165-.033.36-.114.59l.342.12z" fill="#ed192e"/><path d="M35.833 52.345c-.034 1.262.376 1.636 1.13 1.636.993 0 1.314-.624 1.314-1.647v-2.45c0-.473-.18-.643-.68-.643v-.22h1.712v.22c-.49 0-.666.17-.666.642v2.516c0 1.21-.547 1.84-1.887 1.84-1.396 0-2.072-.603-2.072-1.7v-2.656c0-.472-.168-.642-.686-.642v-.22h2.49v.22c-.492 0-.657.17-.657.642v2.463zM45.804 52.575v-2.34c0-.577-.04-.925-.73-.994v-.22h1.83v.22c-.674.116-.723.385-.723.995v3.884h-.63l-2.804-3.967v2.682c0 .75.076.896.792 1.055v.23h-1.946v-.23c.657-.098.787-.315.787-.964v-3.2c-.19-.243-.484-.416-.788-.485v-.22h1.766l2.446 3.555zM49.948 49.88c0-.47-.165-.64-.67-.64v-.218h2.515v.217c-.525 0-.687.17-.687.64v3.375c0 .477.162.635.687.635v.228H49.28v-.228c.503 0 .668-.158.668-.635V49.88zM58.8 50.46l-.312.104c-.307-.683-.88-1.404-1.678-1.404-1.043 0-1.278 1.356-1.278 2.17 0 1.682.824 2.375 1.598 2.375.693 0 1.135-.48 1.505-.978l.166.11c-.465.843-1.124 1.4-2.125 1.4-1.38 0-2.366-1.156-2.366-2.48 0-1.457.958-2.863 2.4-2.863.27 0 .46.06.64.112.173.053.31.124.458.124.177 0 .345-.096.505-.172l.078-.028.41 1.53zM61.877 49.88c0-.47-.175-.64-.675-.64v-.218h2.486v.217c-.503 0-.666.17-.666.64v3.375c0 .477.163.635.666.635v.228h-2.486v-.228c.5 0 .675-.158.675-.635V49.88zM70.094 49.02l.387 1.39-.263.076c-.33-.523-.957-1.176-1.63-1.198v3.967c0 .476.198.635.692.635v.23h-2.493v-.23c.5 0 .677-.16.677-.635v-3.967c-.69.093-1.24.616-1.617 1.198l-.244-.077.336-1.39h4.154z" fill="#352f92"/></svg>