<svg xmlns="http://www.w3.org/2000/svg" xmlns:xlink="http://www.w3.org/1999/xlink" width="400" height="359.818"><defs><linearGradient id="a" gradientTransform="matrix(0 84.1 84.1 0 464.2 637.8)" gradientUnits="userSpaceOnUse" x2="1"><stop offset="0" stop-color="#f5f014"/><stop offset=".764" stop-color="#da1e25"/><stop offset=".764" stop-color="#da1e25"/><stop offset="1" stop-color="#da1e25"/></linearGradient><linearGradient id="A" gradientTransform="matrix(22 0 0 -22 191.5 1033.2)" gradientUnits="userSpaceOnUse" x2="1"><stop offset="0" stop-color="#231f20"/><stop offset="1" stop-color="#e9e9e9"/></linearGradient><linearGradient id="z" gradientTransform="matrix(0 21.8 21.8 0 194.7 1013.6)" gradientUnits="userSpaceOnUse" x2="1"><stop offset="0" stop-color="#e9e9e9"/><stop offset="1" stop-color="#231f20"/></linearGradient><linearGradient id="y" gradientTransform="matrix(22 0 0 -22 282.1 1033.2)" gradientUnits="userSpaceOnUse" x2="1"><stop offset="0" stop-color="#231f20"/><stop offset="1" stop-color="#e9e9e9"/></linearGradient><linearGradient id="x" gradientTransform="matrix(-2.1 24 24 2.1 283 1011.8)" gradientUnits="userSpaceOnUse" x2="1"><stop offset="0" stop-color="#e9e9e9"/><stop offset="1" stop-color="#231f20"/></linearGradient><linearGradient id="w" gradientTransform="scale(27.4) rotate(95 -12.7 22.3)" gradientUnits="userSpaceOnUse" x2="1"><stop offset="0" stop-color="#fff"/><stop offset="1" stop-color="#231f20"/></linearGradient><linearGradient id="v" gradientTransform="scale(27.4) rotate(95 -14.7 20.5)" gradientUnits="userSpaceOnUse" x2="1"><stop offset="0" stop-color="#e9e9e9"/><stop offset="1" stop-color="#231f20"/></linearGradient><linearGradient id="u" gradientTransform="matrix(24.4 138.5 138.5 -24.4 172.7 889.9)" gradientUnits="userSpaceOnUse" x2="1"><stop offset="0" stop-color="#231f20"/><stop offset=".467" stop-color="#e9e9e9"/><stop offset="1" stop-color="#231f20"/></linearGradient><linearGradient id="t" gradientTransform="scale(100.6) rotate(80 -4.2 6.2)" gradientUnits="userSpaceOnUse" x2="1"><stop offset="0" stop-color="#231f20"/><stop offset=".324" stop-color="#e9e9e9"/><stop offset="1" stop-color="#231f20"/></linearGradient><linearGradient id="s" gradientTransform="scale(140) rotate(50 -5.8 4.3)" gradientUnits="userSpaceOnUse" x2="1"><stop offset="0" stop-color="#231f20"/><stop offset=".467" stop-color="#e9e9e9"/><stop offset="1" stop-color="#231f20"/></linearGradient><linearGradient id="r" gradientTransform="matrix(119 83.4 83.4 -119 323.4 892.4)" gradientUnits="userSpaceOnUse" x2="1"><stop offset="0" stop-color="#231f20"/><stop offset=".462" stop-color="#e9e9e9"/><stop offset="1" stop-color="#231f20"/></linearGradient><linearGradient id="q" gradientTransform="matrix(-4 22.6 22.6 4 443 978.7)" gradientUnits="userSpaceOnUse" x2="1"><stop offset="0" stop-color="#e9e9e9"/><stop offset="1" stop-color="#231f20"/></linearGradient><linearGradient id="p" gradientTransform="scale(112.6) rotate(35 -12 8.8)" gradientUnits="userSpaceOnUse" x2="1"><stop offset="0" stop-color="#231f20"/><stop offset=".456" stop-color="#e9e9e9"/><stop offset="1" stop-color="#231f20"/></linearGradient><linearGradient id="o" gradientTransform="scale(100.5) rotate(110 -.4 6.6)" gradientUnits="userSpaceOnUse" x2="1"><stop offset="0" stop-color="#231f20"/><stop offset=".198" stop-color="#e9e9e9"/><stop offset=".462" stop-color="#231f20"/><stop offset=".681" stop-color="#e9e9e9"/><stop offset=".896" stop-color="#231f20"/><stop offset="1" stop-color="#231f20"/></linearGradient><linearGradient id="n" gradientTransform="matrix(69.3 12.2 12.2 -69.3 454.2 903.2)" gradientUnits="userSpaceOnUse" x2="1"><stop offset="0" stop-color="#231f20"/><stop offset=".5" stop-color="#e9e9e9"/><stop offset="1" stop-color="#231f20"/></linearGradient><linearGradient id="m" gradientTransform="scale(71.4) rotate(140 2.1 7.7)" gradientUnits="userSpaceOnUse" x2="1"><stop offset="0" stop-color="#231f20"/><stop offset=".5" stop-color="#e9e9e9"/><stop offset="1" stop-color="#231f20"/></linearGradient><linearGradient id="l" gradientTransform="matrix(10.9 0 0 -10.9 543.7 913.4)" gradientUnits="userSpaceOnUse" x2="1"><stop offset="0" stop-color="#e9e9e9"/><stop offset="1" stop-color="#312d2e"/></linearGradient><linearGradient id="k" gradientTransform="matrix(-6.6 .6 .6 6.6 528.5 915)" gradientUnits="userSpaceOnUse" x2="1"><stop offset="0" stop-color="#e9e9e9"/><stop offset="1" stop-color="#312d2e"/></linearGradient><linearGradient id="j" gradientTransform="matrix(14.1 0 0 -14.1 626.8 1037.6)" gradientUnits="userSpaceOnUse" x2="1"><stop offset="0" stop-color="#e9e9e9"/><stop offset="1" stop-color="#231f20"/></linearGradient><linearGradient id="i" gradientTransform="matrix(20.6 0 0 -20.6 729.3 1035.8)" gradientUnits="userSpaceOnUse" x2="1"><stop offset="0" stop-color="#e9e9e9"/><stop offset="1" stop-color="#231f20"/></linearGradient><linearGradient id="h" gradientTransform="matrix(-7.5 7.5 7.5 7.5 804 1027.8)" gradientUnits="userSpaceOnUse" x2="1"><stop offset="0" stop-color="#e9e9e9"/><stop offset="1" stop-color="#231f20"/></linearGradient><linearGradient id="g" gradientTransform="scale(115) rotate(110 .6 6.4)" gradientUnits="userSpaceOnUse" x2="1"><stop offset="0" stop-color="#231f20"/><stop offset=".467" stop-color="#e9e9e9"/><stop offset="1" stop-color="#231f20"/></linearGradient><linearGradient id="f" gradientTransform="scale(116.4) rotate(-70 9.1 .6)" gradientUnits="userSpaceOnUse" x2="1"><stop offset="0" stop-color="#231f20"/><stop offset=".61" stop-color="#e9e9e9"/><stop offset="1" stop-color="#231f20"/></linearGradient><linearGradient id="e" gradientTransform="matrix(8.7 0 0 -8.7 639.5 904.2)" gradientUnits="userSpaceOnUse" x2="1"><stop offset="0" stop-color="#e9e9e9"/><stop offset="1" stop-color="#231f20"/></linearGradient><linearGradient id="d" gradientTransform="matrix(-42.9 36 36 42.9 693.4 867.6)" gradientUnits="userSpaceOnUse" x2="1"><stop offset="0" stop-color="#231f20"/><stop offset=".5" stop-color="#e9e9e9"/><stop offset="1" stop-color="#231f20"/></linearGradient><linearGradient id="c" gradientTransform="matrix(93.3 -111.1 -111.1 -93.3 669.4 976.8)" gradientUnits="userSpaceOnUse" x2="1"><stop offset="0" stop-color="#231f20"/><stop offset=".473" stop-color="#e9e9e9"/><stop offset="1" stop-color="#231f20"/></linearGradient><linearGradient id="b" gradientTransform="matrix(21.7 -31 -31 -21.7 758 866.7)" gradientUnits="userSpaceOnUse" x2="1"><stop offset="0" stop-color="#231f20"/><stop offset=".511" stop-color="#e9e9e9"/><stop offset="1" stop-color="#231f20"/></linearGradient><linearGradient xlink:href="#a" id="B" gradientUnits="userSpaceOnUse" gradientTransform="matrix(0 -42.2 42.2 0 349.4 560.8)" x2="1"/><linearGradient xlink:href="#A" id="C" gradientUnits="userSpaceOnUse" gradientTransform="matrix(11 0 0 11 212.5 362.5)" x2="1"/><linearGradient xlink:href="#z" id="D" gradientUnits="userSpaceOnUse" gradientTransform="matrix(0 -10.9 10.9 0 214.2 372.3)" x2="1"/><linearGradient xlink:href="#y" id="E" gradientUnits="userSpaceOnUse" gradientTransform="matrix(11 0 0 11 258 362.5)" x2="1"/><linearGradient xlink:href="#x" id="F" gradientUnits="userSpaceOnUse" gradientTransform="rotate(-95 300.1 68.1) scale(12.1)" x2="1"/><linearGradient xlink:href="#w" id="G" gradientUnits="userSpaceOnUse" gradientTransform="scale(13.7) rotate(-95 20.9 5.9)" x2="1"/><linearGradient xlink:href="#v" id="H" gradientUnits="userSpaceOnUse" gradientTransform="scale(13.7) rotate(-95 18.9 7.7)" x2="1"/><linearGradient xlink:href="#u" id="I" gradientUnits="userSpaceOnUse" gradientTransform="matrix(12.3 -69.5 69.5 12.3 203.1 434.4)" x2="1"/><linearGradient xlink:href="#t" id="J" gradientUnits="userSpaceOnUse" gradientTransform="matrix(8.8 -49.7 49.7 8.8 247.8 414.4)" x2="1"/><linearGradient xlink:href="#s" id="K" gradientUnits="userSpaceOnUse" gradientTransform="scale(70.2) rotate(-50 8.5 .2)" x2="1"/><linearGradient xlink:href="#r" id="L" gradientUnits="userSpaceOnUse" gradientTransform="matrix(59.7 -41.8 41.8 59.7 278.7 433.1)" x2="1"/><linearGradient xlink:href="#q" id="M" gradientUnits="userSpaceOnUse" gradientTransform="matrix(-2 -11.3 11.3 -2 338.7 389.8)" x2="1"/><linearGradient xlink:href="#p" id="N" gradientUnits="userSpaceOnUse" gradientTransform="rotate(-35 778.6 -244.6) scale(56.5)" x2="1"/><linearGradient xlink:href="#o" id="O" gradientUnits="userSpaceOnUse" gradientTransform="scale(50.4) rotate(-110 6.9 1.3)" x2="1"/><linearGradient xlink:href="#n" id="P" gradientUnits="userSpaceOnUse" gradientTransform="matrix(34.8 -6.1 6.1 34.8 344.4 427.7)" x2="1"/><linearGradient xlink:href="#m" id="Q" gradientUnits="userSpaceOnUse" gradientTransform="matrix(-27.4 -23 23 -27.4 426.4 441.4)" x2="1"/><linearGradient xlink:href="#l" id="R" gradientUnits="userSpaceOnUse" gradientTransform="matrix(5.5 0 0 5.5 389.3 422.6)" x2="1"/><linearGradient xlink:href="#k" id="S" gradientUnits="userSpaceOnUse" gradientTransform="matrix(-3.3 -.3 .3 -3.3 381.6 421.8)" x2="1"/><linearGradient xlink:href="#j" id="T" gradientUnits="userSpaceOnUse" gradientTransform="matrix(7.1 0 0 7.1 430.9 360.3)" x2="1"/><linearGradient xlink:href="#i" id="U" gradientUnits="userSpaceOnUse" gradientTransform="matrix(10.4 0 0 10.4 482.4 361.2)" x2="1"/><linearGradient xlink:href="#h" id="V" gradientUnits="userSpaceOnUse" gradientTransform="scale(5.3) rotate(-135 63 14.1)" x2="1"/><linearGradient xlink:href="#g" id="W" gradientUnits="userSpaceOnUse" gradientTransform="rotate(-110 399.5 29.2) scale(57.7)" x2="1"/><linearGradient xlink:href="#f" id="X" gradientUnits="userSpaceOnUse" gradientTransform="matrix(20 54.9 -54.9 20 433.7 361.5)" x2="1"/><linearGradient xlink:href="#e" id="Y" gradientUnits="userSpaceOnUse" gradientTransform="matrix(4.4 0 0 4.4 437.3 427.2)" x2="1"/><linearGradient xlink:href="#d" id="Z" gradientUnits="userSpaceOnUse" gradientTransform="scale(28.1) rotate(-140 11.2 4.9)" x2="1"/><linearGradient xlink:href="#c" id="aa" gradientUnits="userSpaceOnUse" gradientTransform="matrix(46.8 55.8 -55.8 46.8 452.3 390.8)" x2="1"/><linearGradient xlink:href="#b" id="ab" gradientUnits="userSpaceOnUse" gradientTransform="rotate(55 -179.7 700.4) scale(19)" x2="1"/></defs><path d="M156.016 143.2s34.7-26.475 86.876-1.03" fill="none" stroke="#c4ae5f" stroke-width=".912"/><path d="M125.35 167.36s6.63 12.364 22.095 10.566c8.263-.96 15.826-8.553 14.026-22.48-2.186-16.926-18.004-23.562-31.076-15.962-17.022 8.207-15.503 34.35-15.503 34.35s.47 26.957 1.622 46.555c.77 13.062-1.346 25.36-6.34 33.237-7.595 11.976-9.873 14.14-25.072 17.483-15.2 3.344-34.047-8.207-34.047-8.207s15.2 30.398 51.983 19.15c0 0 5.96 12.312 21.16 19.607 0 0-12.953-15.96-12.345-19.606.61-3.648 19.517-23.34 14.653-73.195-3.786-38.803-1.152-41.5-1.152-41.5" fill="#fff"/><path d="M125.35 167.36s6.63 12.364 22.095 10.566c8.263-.96 15.826-8.553 14.026-22.48-2.186-16.926-18.004-23.562-31.076-15.962-17.022 8.207-15.503 34.35-15.503 34.35s.47 26.957 1.622 46.555c.77 13.062-1.346 25.36-6.34 33.237-7.595 11.976-9.873 14.14-25.072 17.483-15.2 3.344-34.047-8.207-34.047-8.207s15.2 30.398 51.983 19.15c0 0 5.96 12.312 21.16 19.607 0 0-12.953-15.96-12.345-19.606.61-3.648 19.517-23.34 14.653-73.195-3.786-38.803-1.152-41.5-1.152-41.5z" fill="none" stroke="#c4ae5f" stroke-width=".912"/><path d="M146.658 153.694s-12.54 7.752-4.787 12.996c6.35 4.294 14.592-5.472 10.945-12.996-3.595-7.413-12.996-7.523-18.696-1.14-5.7 6.384-6.233 12.996-6.46 31.235 0 0-.23 27.13 0 37.846.227 10.716-.773 20.654-9.227 36.41-4.587 8.548-4.152 11.453-3.842 21.327.304 9.728 10.03 22.744 10.03 22.744s-19.153-12.235-14.593-31.615c0 0-14.65 13.674-41.74 9.447-7.45-2.053-10.76-8.454-10.76-8.454s32.662 14.41 51.512-8.594c0 0 12.615-10.26 12.843-44.002 0 0-2.842-41.256.722-58.024 3.876-18.24 22.23-26.79 34.085-15.39 6.384 6.84 4.984 15.318 2.212 19.933-5.86 10.846-25.115 10.1-24.327-3.29 1.368-8.436 12.083-8.436 12.083-8.436" fill="#c4ae5f"/><path d="M115.423 210.693c-.304-.152-2.052-1.597-4.332.15-1.29 1.294-1.367 1.75-1.67 2.508-.305.762-1.52 2.814-2.965 2.282-1.444-.53-2.508-2.963-4.94-4.863 0 0 .684-4.712-.152-6.612-.835-1.9.305-2.13 1.445-1.294 1.14.837 1.29 1.444 1.29 1.444s1.294-2.356.533-3.952c-.76-1.596 2.89-.075 2.89-.075s1.367-1.518.683-2.963c-.684-1.444 2.508-2.126 2.508-6.232 0-.533 1.673.684 3.04.075.726-.322 1.52-.835 1.75-1.975.227-1.14 1.823-1.597 2.66-1.217.835.38-1.293-2.203-3.345-.987 0 0-1.14-1.518-2.356-1.443-1.217.076 1.215-1.368.835-3.953-.38-2.583-.152-2.203-.152-2.203s.835-1.215 1.824-1.215c.988 0-1-1.663-3.04-.304-.456.305-1.14.913-1.14.913s-2.128-.152-3.04 1.9c0 0-.38-.152-.76-1.064-.38-.913-.228-2.206.532-2.813.76-.608-2.357.38-2.89 1.52-.53 1.14-.607 1.292-.607 1.976 0 .684-1.292.684-.836 2.736.184.828 1.9 1.215 1.976 3.42.076 2.2-.228 4.633-3.8 7.218-3.57 2.584-6.916 1.065-7.827-.152-.912-1.216-2.267-3.188-5.928-4.104-1.824-.456-1.216-1.52-1.14-2.203.042-.38.383-.444 1.012-.563.806.913 1.57.728 2.04.86.535.356.3.923.375 1.556 1.014-.17 2.22-1.107 2.557-2.205.3-.604.664-.532.878-.64.645-.16.652-1.716.645-2.47-.16-.323-2.416.163-1.503-.214 3.22-.697 3.274-2.307 3.38-2.898.35-.41 3.06-2.737-.052-4.616-3.65-2.683-1.503-2.468-2.79-4.99-.7-.86-1.86-.985-1.86-.985-.308-1.164-.923-2.447-2.095-2.94 0-.013-.002-.023-.003-.036-.118-1.294-.598-3.084-.81-3.83.836-.215 1.456-.967 1.456-1.87 0-1.07-.867-1.938-1.938-1.938-1.07 0-1.938.868-1.938 1.938 0 .74.418 1.373 1.026 1.7-.155 1.015-.604 2.9-1.824 3.012-1.478.134-1.946-3.234-2.087-4.54.788-.246 1.365-.974 1.365-1.843 0-1.07-.867-1.94-1.938-1.94-1.07 0-1.938.87-1.938 1.94 0 .77.456 1.433 1.11 1.745.023.875.02 4.07-1.224 4.333-1.437.303-2.348-1.13-3.18-3.017.6-.328 1.015-.96 1.015-1.693 0-1.07-.868-1.938-1.94-1.938-1.07 0-1.936.867-1.936 1.937 0 1.055.845 1.91 1.895 1.933.156.555.816 3.147-.336 3.69-1.264.594-1.876.673-3.39-1.732.462-.354.767-.908.767-1.536 0-1.07-.868-1.938-1.94-1.938-1.07 0-1.936.868-1.936 1.938 0 1.07.868 1.938 1.938 1.938.126 0 .25-.014.37-.037.412.925 1.554 3.685.542 3.875-.807.15-1.74-.597-2.28-1.12.044-.165.077-.335.077-.514 0-1.07-.867-1.938-1.938-1.938-1.072 0-1.94.868-1.94 1.938 0 1.07.868 1.938 1.94 1.938.384 0 .742-.116 1.043-.31.27.337 1.675 2.135 1.88 3.577.23 1.595.457 6.724 2.51 9.005 1.253 1.938 1.566 3.712.34 5.244-.91 1.138-3.305 1.48-5.585.683-.34 4.217 6.042 4.9 5.586 5.927-.456 1.027-3.533 1.027-4.218.457-.684-.57.57 3.077 3.648 3.305 3.078.228 4.97.456 4.56 2.508-.342 1.71-3.99 2.394-5.814.456-1.328-1.41.798 4.56 4.56 5.358 0 0-4.445 4.75-5.358 9.615-.91 4.86-.532 7.444-.532 8.89 0 1.443-.304 5.09-4.635 5.242-4.332.154-8.915-3.62-6.536-7.903 1.898-3.42 5.014-5.624 5.927-9.956 0 0 1.975-5.776-1.672-12.768-3.648-6.992-8.435-8.36-7.448-12.692 0 0-1.9.228-1.9 3.117 0 0-7.98-3.572-6.08-15.123 0 0-5.243 8.587 1.064 17.25 0 0-5.927 6.46-2.887 12.466 0 0 .76-1.368 2.812-3.42 0 0-.38 3.57 1.673 5.546 0 0 .15-6.84 4.71-8.055 4.56-1.217 6.46 3.497 6.612 4.255.152.76 2.737 7.903-4.027 16.188 0 0-3.268.76-2.28-3.116 0 0-6.535 8.057-.076 13.984 4.788 3.344 5.7 3.192 12.387 3.495 0 0-1.29 2.356.077 6.308 0 0-4.787 2.128-4.33-3.57 0 0-2.813 1.9-2.357 7.37 0 0-1.748.913-2.584-1.138 0 0-1.597 3.038.455 7.598 0 0-2.28 1.9-3.344-.76 0 0-.38 2.812 1.52 5.245 0 0 2.736 1.9 2.66 4.483l-.075 2.584s3.572-1.52 4.56.685c.987 2.203.64 3.353.76 3.95.38 1.9 1.748 2.13 2.204 2.585.455.456.986 1.52.303 2.43 0 0 1.67-.834 2.05-2.354.382-1.52.534-3.04-.074-4.03 0 0 2.202-.453 2.582.306.38.76.608 2.583 1.824 3.115.418.183 2.11-.215 1.977 2.433 0 0 1.67-2.053 1.443-3.8-.228-1.748-.38-2.583-1.596-3.495l2.508-1.294s.304-.986 1.672-1.062c1.368-.076 2.052-.304 2.052-.304s-1.292-1.443-2.964-1.443c0 0-2.28-1.672-4.636-.684-1.575.66-2.697 3.287-3.875 1.064-2.66-5.016-6.46-4.865-4.94-7.296 1.714-2.74 5.015-1.75 5.928-1.672 0 0-2.813-1.596-.684-4.104 2.13-2.508 6.233-1.064 5.397-10.79 0 0 3.648 4.027 7.295 2.203 0 0-3.267 3.65.685 6.84 0 0 1.063 2.28-1.75 1.825 0 0-1.518-.152-2.582-2.053 0 0-1.9 1.673 1.823 4.637 0 0 0 3.267 3.496 5.85.608.76 1.292 1.596-.152 4.71 0 0 1.292-2.202 2.508-1.595 1.216.61 1.216 1.37 1.216 2.433 0 1.063 1.14-2.052 2.052-2.128.912-.076.076.987 1.9 1.52 1.824.532 2.81.455 2.81.455s-.834 1.826.99 3.65c1.824 1.824 2.356 1.822 2.28 3.343-.076 1.52 1.367-.684 1.67-2.66 0 0 1.294-3.42.61-4.787s.456-1.976 1.064-1.52c.608.456.227.99 1.747 1.065 1.52.075 3.115-.76 3.875-.837.76-.075 1.672-.226 2.28.153.608.38 1.064-1.52-2.355-2.584 0 0-2.89-.987-1.52-2.963 2.05-1.747 2.355-2.355 2.355-4.255 0 0 .836-2.28 2.736-2.28 0 0-.607-1.597-3.95-.153 0 0-4.333-1.368-6.613 2.05-2.28 3.422-1.215 5.245-4.635 5.55-3.42.304-6.156-2.51-4.94-5.55.532-2.81 3.42-3.647 4.104-3.874.68-.227 3.176-1.132 4.17-2.344-.25.08-3.276.518-4.474-2.444 0 0 1.443-1.898-1.216-7.37 0 0-3.952-7.98-14.136-6.612 0 0 3.344-3.04 3.04-8.36 0 0 3.116 2.812 6.764.532s4.56-2.963 4.56-2.963-.76 3.113-2.052 4.786c0 0 3.952-1.52 4.712-3.345.76-1.823.988-.225.988.76 0 .99-.38 1.75-.912 2.66 0 0 1.748-.453 2.887-1.518 1.14-1.063 2.13-.987 3.117.683.987 1.673 1.444 1.596 1.748 3.04.304 1.445 1.595 4.03 2.735 4.638 1.14.607 2.052 2.81 2.052 2.81s1.67-.987.683-3.266c0 0 1.292-1.9.608-3.574 0 0 3.877-.38 4.79-1.14 0 0 1.52.304 1.975.838.456.53.228-1.975-2.052-2.736 0 0 .456-1.367-1.368-2.507-1.823-1.14 1.368-2.052 1.52-3.193.152-1.14 2.128-2.28 3.268-2.05 1.14.227-2.28-1.6-3.8-.76" fill="#c4ae5f"/><path d="M274.65 167.36s-6.63 12.364-22.097 10.566c-8.26-.96-15.824-8.553-14.025-22.48 2.188-16.926 18.006-23.562 31.077-15.962 17.023 8.207 15.503 34.35 15.503 34.35s-.468 26.957-1.62 46.555c-.77 13.062 1.346 25.36 6.34 33.237 7.595 11.976 9.872 14.14 25.07 17.483 15.2 3.344 34.048-8.207 34.048-8.207s-15.2 30.398-51.983 19.15c0 0-5.96 12.312-21.16 19.607 0 0 12.953-15.96 12.346-19.606-.608-3.648-19.518-23.34-14.653-73.195 3.786-38.803 1.152-41.5 1.152-41.5" fill="#fff"/><path d="M274.65 167.36s-6.63 12.364-22.097 10.566c-8.26-.96-15.824-8.553-14.025-22.48 2.188-16.926 18.006-23.562 31.077-15.962 17.023 8.207 15.503 34.35 15.503 34.35s-.468 26.957-1.62 46.555c-.77 13.062 1.346 25.36 6.34 33.237 7.595 11.976 9.872 14.14 25.07 17.483 15.2 3.344 34.048-8.207 34.048-8.207s-15.2 30.398-51.983 19.15c0 0-5.96 12.312-21.16 19.607 0 0 12.953-15.96 12.346-19.606-.608-3.648-19.518-23.34-14.653-73.195 3.786-38.803 1.152-41.5 1.152-41.5z" fill="none" stroke="#c4ae5f" stroke-width=".912"/><path d="M253.34 153.694s12.54 7.752 4.79 12.996c-6.35 4.294-14.593-5.472-10.945-12.996 3.595-7.413 12.995-7.523 18.695-1.14 5.7 6.384 6.233 12.996 6.46 31.235 0 0 .228 27.13 0 37.846-.227 10.716.772 20.654 9.227 36.41 4.586 8.548 4.15 11.453 3.843 21.327-.305 9.728-10.03 22.744-10.03 22.744s19.152-12.235 14.593-31.615c0 0 14.65 13.674 41.74 9.447 7.45-2.053 10.76-8.454 10.76-8.454s-32.663 14.41-51.513-8.594c0 0-12.615-10.26-12.843-44.002 0 0 2.84-41.256-.724-58.024-3.875-18.24-22.228-26.79-34.083-15.39-6.385 6.84-4.985 15.318-2.213 19.933 5.86 10.846 25.117 10.1 24.327-3.29-1.368-8.436-12.083-8.436-12.083-8.436" fill="#c4ae5f"/><path d="M284.577 210.693c.303-.152 2.053-1.597 4.332.15 1.29 1.294 1.366 1.75 1.67 2.508.305.762 1.52 2.814 2.964 2.282 1.444-.53 2.508-2.963 4.94-4.863 0 0-.683-4.712.152-6.612.835-1.9-.304-2.13-1.444-1.294-1.14.837-1.292 1.444-1.292 1.444s-1.292-2.356-.532-3.952-2.887-.075-2.887-.075-1.367-1.518-.683-2.963c.684-1.444-2.508-2.126-2.508-6.232 0-.533-1.674.684-3.042.075-.725-.322-1.52-.835-1.747-1.975-.227-1.14-1.823-1.597-2.658-1.217-.837.38 1.29-2.203 3.343-.987 0 0 1.14-1.518 2.357-1.443 1.214.076-1.217-1.368-.838-3.953.38-2.583.154-2.203.154-2.203s-.837-1.215-1.824-1.215c-.99 0 1-1.663 3.038-.304.456.305 1.14.913 1.14.913s2.128-.152 3.04 1.9c0 0 .38-.152.76-1.064.38-.913.23-2.206-.53-2.813-.762-.608 2.354.38 2.886 1.52.532 1.14.61 1.292.61 1.976 0 .684 1.29.684.835 2.736-.185.828-1.9 1.215-1.976 3.42-.076 2.2.228 4.633 3.8 7.218 3.57 2.584 6.916 1.065 7.828-.152.91-1.216 2.266-3.188 5.927-4.104 1.824-.456 1.216-1.52 1.14-2.203-.042-.38-.384-.444-1.013-.563-.806.913-1.57.728-2.04.86-.535.356-.3.923-.377 1.556-1.013-.17-2.217-1.107-2.556-2.205-.3-.604-.664-.532-.878-.64-.645-.16-.653-1.716-.645-2.47.16-.323 2.414.163 1.503-.214-3.22-.697-3.274-2.307-3.382-2.898-.347-.41-3.06-2.737.055-4.616 3.65-2.683 1.503-2.468 2.79-4.99.698-.86 1.862-.985 1.862-.985.306-1.164.92-2.447 2.092-2.94.002-.013.003-.023.003-.036.118-1.294.6-3.084.81-3.83-.836-.215-1.456-.967-1.456-1.87 0-1.07.87-1.938 1.94-1.938 1.07 0 1.937.868 1.937 1.938 0 .74-.417 1.373-1.025 1.7.154 1.015.604 2.9 1.824 3.012 1.478.134 1.946-3.234 2.087-4.54-.79-.246-1.366-.974-1.366-1.843 0-1.07.868-1.94 1.94-1.94 1.07 0 1.937.87 1.937 1.94 0 .77-.456 1.433-1.11 1.745-.022.875-.02 4.07 1.224 4.333 1.438.303 2.348-1.13 3.182-3.017-.604-.328-1.017-.96-1.017-1.693 0-1.07.868-1.938 1.938-1.938 1.072 0 1.94.867 1.94 1.937 0 1.055-.845 1.91-1.895 1.933-.155.555-.816 3.147.336 3.69 1.263.594 1.875.673 3.39-1.732-.462-.354-.767-.908-.767-1.536 0-1.07.867-1.938 1.94-1.938 1.07 0 1.936.868 1.936 1.938 0 1.07-.868 1.938-1.938 1.938-.127 0-.25-.014-.37-.037-.413.925-1.554 3.685-.543 3.875.807.15 1.74-.597 2.28-1.12-.045-.165-.078-.335-.078-.514 0-1.07.868-1.938 1.938-1.938 1.07 0 1.938.868 1.938 1.938 0 1.07-.867 1.938-1.938 1.938-.384 0-.742-.116-1.044-.31-.27.337-1.674 2.135-1.88 3.577-.228 1.595-.456 6.724-2.508 9.005-1.255 1.938-1.568 3.712-.342 5.244.912 1.138 3.306 1.48 5.586.683.342 4.217-6.042 4.9-5.586 5.927.456 1.027 3.533 1.027 4.218.457.684-.57-.57 3.077-3.648 3.305-3.078.228-4.972.456-4.56 2.508.342 1.71 3.99 2.394 5.814.456 1.328-1.41-.8 4.56-4.56 5.358 0 0 4.446 4.75 5.358 9.615.91 4.86.53 7.444.53 8.89 0 1.443.305 5.09 4.637 5.242 4.332.154 8.915-3.62 6.535-7.903-1.898-3.42-5.015-5.624-5.927-9.956 0 0-1.976-5.776 1.672-12.768 3.648-6.992 8.436-8.36 7.447-12.692 0 0 1.9.228 1.9 3.117 0 0 7.98-3.572 6.08-15.123 0 0 5.244 8.587-1.063 17.25 0 0 5.926 6.46 2.886 12.466 0 0-.76-1.368-2.81-3.42 0 0 .378 3.57-1.673 5.546 0 0-.152-6.84-4.712-8.055-4.56-1.217-6.46 3.497-6.61 4.255-.153.76-2.736 7.903 4.027 16.188 0 0 3.268.76 2.28-3.116 0 0 6.535 8.057.076 13.984-4.788 3.344-5.7 3.192-12.388 3.495 0 0 1.292 2.356-.076 6.308 0 0 4.787 2.128 4.33-3.57 0 0 2.813 1.9 2.357 7.37 0 0 1.748.913 2.584-1.138 0 0 1.598 3.038-.454 7.598 0 0 2.28 1.9 3.343-.76 0 0 .38 2.812-1.52 5.245 0 0-2.737 1.9-2.66 4.483l.075 2.584s-3.572-1.52-4.56.685c-.988 2.203-.64 3.353-.76 3.95-.38 1.9-1.748 2.13-2.204 2.585-.455.456-.987 1.52-.303 2.43 0 0-1.67-.834-2.052-2.354-.38-1.52-.532-3.04.076-4.03 0 0-2.202-.453-2.582.306-.38.76-.61 2.583-1.824 3.115-.418.183-2.11-.215-1.976 2.433 0 0-1.672-2.053-1.444-3.8.228-1.748.38-2.583 1.596-3.495l-2.508-1.294s-.304-.986-1.672-1.062c-1.367-.076-2.052-.304-2.052-.304s1.292-1.443 2.964-1.443c0 0 2.28-1.672 4.636-.684 1.575.66 2.697 3.287 3.874 1.064 2.66-5.016 6.46-4.865 4.942-7.296-1.715-2.74-5.016-1.75-5.928-1.672 0 0 2.81-1.596.684-4.104-2.13-2.508-6.233-1.064-5.397-10.79 0 0-3.648 4.027-7.296 2.203 0 0 3.27 3.65-.684 6.84 0 0-1.063 2.28 1.75 1.825 0 0 1.52-.152 2.582-2.053 0 0 1.9 1.673-1.824 4.637 0 0 .002 3.267-3.494 5.85-.61.76-1.293 1.596.152 4.71 0 0-1.292-2.202-2.508-1.595-1.216.61-1.216 1.37-1.216 2.433 0 1.063-1.14-2.052-2.053-2.128-.91-.076-.073.987-1.897 1.52-1.824.532-2.812.455-2.812.455s.835 1.826-.99 3.65c-1.822 1.824-2.354 1.822-2.278 3.343.076 1.52-1.367-.684-1.67-2.66 0 0-1.294-3.42-.61-4.787s-.456-1.976-1.063-1.52c-.61.456-.23.99-1.75 1.065-1.52.075-3.115-.76-3.875-.837-.76-.075-1.672-.226-2.28.153-.61.38-1.065-1.52 2.354-2.584 0 0 2.89-.987 1.52-2.963-2.05-1.747-2.355-2.355-2.355-4.255 0 0-.836-2.28-2.736-2.28 0 0 .607-1.597 3.95-.153 0 0 4.333-1.368 6.613 2.05 2.28 3.422 1.215 5.245 4.635 5.55 3.42.304 6.156-2.51 4.94-5.55-.532-2.81-3.42-3.647-4.103-3.874-.682-.227-3.176-1.132-4.17-2.344.25.08 3.275.518 4.473-2.444 0 0-1.443-1.898 1.216-7.37 0 0 3.952-7.98 14.135-6.612 0 0-3.345-3.04-3.04-8.36 0 0-3.116 2.812-6.764.532s-4.56-2.963-4.56-2.963.76 3.113 2.052 4.786c0 0-3.95-1.52-4.71-3.345-.762-1.823-.99-.225-.99.76 0 .99.38 1.75.912 2.66 0 0-1.747-.453-2.887-1.518-1.14-1.063-2.128-.987-3.118.683-.986 1.673-1.442 1.596-1.747 3.04-.304 1.445-1.595 4.03-2.735 4.638-1.14.607-2.053 2.81-2.053 2.81s-1.672-.987-.683-3.266c0 0-1.292-1.9-.608-3.574 0 0-3.876-.38-4.788-1.14 0 0-1.52.304-1.978.838-.455.53-.228-1.975 2.052-2.736 0 0-.456-1.367 1.368-2.507 1.824-1.14-1.368-2.052-1.52-3.193-.15-1.14-2.128-2.28-3.268-2.05-1.14.227 2.28-1.6 3.8-.76" fill="#c4ae5f"/><path d="M272.5 170.768s-11.56 12.768-25.846 4.864c0 0-16.78-1.857-23.407-7.6-9.12-7.904-22.98-7.27-23.02-7.27-.912 0-13.68-.608-22.8 7.296-6.626 5.742-22.342 7.6-22.342 7.6-14.287 7.903-26.22-5.32-26.22-5.32s-6.155 75.237 7.524 102.292c7.55 14.93 18.847 20.976 33.134 27.967 0 0 26.75 13.68 30.817 21.95v-.038c4.088-8.273 30.81-21.938 30.81-21.938 14.288-6.992 25.586-13.037 33.135-27.967 13.68-27.055 8.216-101.837 8.216-101.837" fill="#fff"/><path d="M272.5 170.768s-11.56 12.768-25.846 4.864c0 0-16.78-1.857-23.407-7.6-9.12-7.904-22.98-7.27-23.02-7.27-.912 0-13.68-.608-22.8 7.296-6.626 5.742-22.342 7.6-22.342 7.6-14.287 7.903-26.22-5.32-26.22-5.32s-6.155 75.237 7.524 102.292c7.55 14.93 18.847 20.976 33.134 27.967 0 0 26.75 13.68 30.817 21.95v-.038c4.088-8.273 30.81-21.938 30.81-21.938 14.288-6.992 25.586-13.037 33.135-27.967 13.68-27.055 8.216-101.837 8.216-101.837z" fill="none" stroke="#c4ae5f" stroke-width=".912"/><path d="M215.18 300.395c-.033-.027-6.44-5.27-22.34-12.202 1.155-4.728-9.41-10.015-9.41-10.015 2.707 2.707 2.776 5.787 2.632 7.198-1.968-.78-4.06-1.576-6.256-2.38.41-4.452-8.02-10.407-8.02-10.407 2.654 3.606 1.666 7.176 1.36 8.057-1.864-.638-3.6-1.36-5.232-2.146 2.368-4.047-5.054-12.585-5.054-12.585 1.98 4.765-.725 8.334-.725 8.334s-.12.24-.455.563c-1.754-1.26-3.342-2.613-4.768-4.043 4.006-2.768-.406-13.738-.406-13.738.315 5.15-3.41 7.637-3.41 7.637s-.25.245-.812.47c-1.26-1.863-2.343-3.784-3.255-5.733.103-.005.162-.01.162-.01 4.868-1.33 3.35-13.47 3.35-13.47-1.01 5.06-5.247 6.513-5.247 6.513s-.28.154-.816.233c-.664-2.214-1.16-4.4-1.537-6.507 4.922-.553 5.768-12.55 5.768-12.55-1.97 4.768-6.407 5.376-6.407 5.376s-.09.032-.26.055c-.147-1.846-.22-3.545-.26-5.037 5.522-2.242 3.244-7.593.888-11.234-1.75-2.707 2.508-8.89 2.508-8.89-2.28.91-5.47 3.72-7.295 6.61-2.736 4.332-1.368 15.047 2.736 13.908.09-.026.17-.054.258-.08.04 1.406.11 2.995.244 4.712-1.494-.198-4.307-1.345-7.878-6.402 1.552 10.372 6.71 12.816 8.74 13.382.378 2.16.88 4.41 1.55 6.69-1.634-.1-4.41-.993-8.356-4.755 3.357 9.4 8.53 11.125 10.835 11.41.934 2.048 2.038 4.074 3.345 6.038-1.627.294-4.52.086-9.19-2.483 6.024 8.78 11.817 8.585 13.81 8.192 1.475 1.512 3.12 2.945 4.95 4.28-1.377.852-4.184 1.722-9.694.776 9.158 6.767 14.708 3.925 16.04 3.034 1.714.838 3.54 1.608 5.505 2.285-.68 1.106-2.897 3.34-9.847 3.828 12.142 5.076 16.552-1.17 16.552-1.17.042-.083.07-.167.105-.25 2.224.813 4.34 1.618 6.325 2.408-.142.71-1.23 3.966-9.325 5.788 10.48 2.62 14.66-1.518 15.82-3.086 5.268 2.295 9.488 4.402 12.773 6.193 3.307 1.803 5.668 3.283 7.2 4.312 1.53 1.03 2.215 1.596 2.22 1.596.083.07.186.105.29.105.13 0 .26-.058.35-.168.16-.193.132-.48-.063-.642" fill="#288d3f"/><path d="M185.568 300.395c.033-.027 6.44-5.27 22.342-12.202-1.157-4.728 9.41-10.015 9.41-10.015-2.708 2.707-2.778 5.787-2.634 7.198 1.967-.78 4.058-1.576 6.257-2.38-.41-4.452 8.02-10.407 8.02-10.407-2.655 3.606-1.667 7.176-1.36 8.057 1.862-.638 3.598-1.36 5.23-2.146-2.367-4.047 5.054-12.585 5.054-12.585-1.98 4.765.725 8.334.725 8.334s.12.24.456.563c1.754-1.26 3.34-2.613 4.768-4.043-4.006-2.768.407-13.738.407-13.738-.316 5.15 3.408 7.637 3.408 7.637s.253.245.815.47c1.26-1.863 2.342-3.784 3.254-5.733-.105-.005-.164-.01-.164-.01-4.87-1.33-3.35-13.47-3.35-13.47 1.01 5.06 5.247 6.513 5.247 6.513s.28.154.817.233c.662-2.214 1.158-4.4 1.535-6.507-4.922-.553-5.768-12.55-5.768-12.55 1.97 4.768 6.41 5.376 6.41 5.376s.087.032.26.055c.144-1.846.218-3.545.26-5.037-5.524-2.242-3.246-7.593-.89-11.234 1.753-2.707-2.507-8.89-2.507-8.89 2.28.91 5.47 3.72 7.295 6.61 2.736 4.332 1.37 15.047-2.736 13.908-.09-.026-.174-.054-.26-.08-.04 1.406-.11 2.995-.244 4.712 1.494-.198 4.307-1.345 7.88-6.402-1.555 10.372-6.712 12.816-8.743 13.382-.376 2.16-.878 4.41-1.55 6.69 1.636-.1 4.412-.993 8.357-4.755-3.357 9.4-8.53 11.125-10.835 11.41-.934 2.048-2.038 4.074-3.346 6.038 1.627.294 4.52.086 9.19-2.483-6.025 8.78-11.816 8.585-13.81 8.192-1.475 1.512-3.12 2.945-4.948 4.28 1.374.852 4.182 1.722 9.692.776-9.157 6.767-14.707 3.925-16.038 3.034-1.716.838-3.542 1.608-5.507 2.285.678 1.106 2.895 3.34 9.846 3.828-12.142 5.076-16.553-1.17-16.553-1.17-.04-.083-.07-.167-.105-.25-2.224.813-4.34 1.618-6.325 2.408.142.71 1.23 3.966 9.326 5.788-10.482 2.62-14.66-1.518-15.823-3.086-5.267 2.295-9.487 4.402-12.77 6.193-3.31 1.803-5.67 3.283-7.2 4.312-1.532 1.03-2.217 1.596-2.22 1.596-.085.07-.188.105-.29.105-.132 0-.263-.058-.353-.168-.157-.193-.13-.48.064-.642" fill="#288d3f"/><path d="M234.743 262.347c0 .634-.473 1.147-1.058 1.147h-66.62c-.587 0-1.06-.513-1.06-1.147v-39.854c0-.634.473-1.147 1.06-1.147h66.62c.585 0 1.058.513 1.058 1.147v39.854z" fill="#ec1d27"/><path d="M234.743 262.347c0 .634-.473 1.147-1.058 1.147h-66.62c-.587 0-1.06-.513-1.06-1.147v-39.854c0-.634.473-1.147 1.06-1.147h66.62c.585 0 1.058.513 1.058 1.147v39.854z" fill="none" stroke="#9c1b20" stroke-width=".456" stroke-linecap="round" stroke-linejoin="round"/><path d="M200.4 214.345s8.312.5 19.025 5.607c8.912 3.204 13.517-.7 13.517-.7l-.1 39.05s-3.004 3.403-8.11 3.103c-3.82-.226-6.008-2.704-11.215-1.802-5.864 1.015-6.408 2.402-6.708 2.603-.3.2-6.31 0-6.31 0l-.14-47.524" fill="#fff" stroke="#a49452" stroke-width=".456" stroke-linecap="round" stroke-linejoin="round"/><path d="M228.636 221.053v34.845s-3.003 2.302-8.41-.1c-5.407-2.403-15.12-1.602-19.725 5.776" fill="none" stroke="#a49452" stroke-width=".456" stroke-linecap="round" stroke-linejoin="round"/><path d="M230.84 220.553V257.1s-3.963 3.653-10.914 1c-7.61-2.903-14.718.903-16.22 4.106" fill="none" stroke="#a49452" stroke-width=".456" stroke-linecap="round" stroke-linejoin="round"/><path d="M200.41 214.345s-8.31.5-19.023 5.607c-8.912 3.204-13.517-.7-13.517-.7l.1 39.05s3.004 3.403 8.11 3.103c3.82-.226 6.007-2.704 11.215-1.802 5.863 1.015 6.408 2.402 6.708 2.603.3.2 6.307 0 6.307 0l.143-47.524" fill="#fff" stroke="#a49452" stroke-width=".456" stroke-linecap="round" stroke-linejoin="round"/><path d="M172.175 221.053v34.845s3.004 2.302 8.41-.1c5.407-2.403 15.12-1.602 19.726 5.776" fill="none" stroke="#a49452" stroke-width=".456" stroke-linecap="round" stroke-linejoin="round"/><path d="M169.973 220.553V257.1s3.962 3.653 10.913 1c7.61-2.903 14.718.903 16.22 4.106" fill="none" stroke="#a49452" stroke-width=".456" stroke-linecap="round" stroke-linejoin="round"/><path d="M191.587 231.717h-5.407v-3.755h-4.206v3.755h-5.407v4.205h5.407v15.57h4.206v-15.57h5.407v-4.205z" fill="#c4ae5f"/><path d="M181.35 230.965l-5.827-6.626.33 2.095-1.713.125 7.21 4.405zM187.155 230.965l7.234-3.77-1.276-.54.386-2.15-6.345 6.46zM186.98 236.872l6.355 6.99-.063-1.72 1.166-.598-7.46-4.672zM181.172 236.872l-7.233 3.77 1.197.792-.33 1.82 6.365-6.382z" fill="#c4ae5f"/><path d="M219.978 247.607h-1.38c.046-.148.078-.306.078-.47 0-.842-.65-1.524-1.45-1.524h-5.61c-.8 0-1.45.682-1.45 1.523 0 .165.032.323.078.47h-1.38c-1.023 0-1.853.87-1.853 1.944 0 1.072.83 1.94 1.854 1.94h11.114c1.024 0 1.852-.868 1.852-1.94 0-1.073-.828-1.943-1.852-1.943" fill="#211c1c"/><path d="M213.244 245.613s.902-8.29 6.108-12.7c5.207-4.408 6.508-6.192 6.508-6.192s-.1 2.206-1.2 3.465c-1.102 1.26-1.403 1.89-1.403 2.625 0 .734-1.2 1.678-1.302 2.832-.12 1.363-1.1 1.785-1.602 2.834-.5 1.05-.3.945-.7 2.205-.4 1.26-.8.734-1.703 1.575-.9.84-.2.526-1 1.26-.802.734-1.002.627-1.402.734-.4.104-.402-.21-1.002.42s-.1.943-.1.943h-1.202z" fill="#211c1c"/><path d="M211.588 213.244h-3.12c.37-.24.616-.657.616-1.13 0-.748-.606-1.353-1.352-1.353h-14.717c-.747 0-1.352.606-1.352 1.353 0 .474.245.89.615 1.13h-3.118c-1.078 0-1.952.875-1.952 1.954 0 1.078.874 1.952 1.952 1.952h1.206c-.096.194-.155.408-.155.64 0 .8.65 1.45 1.453 1.45h1.31c-.024.097-.058.188-.058.29 0 .664.537 1.203 1.2 1.203h1.26l2.88 47.416h.036c.088.517.518.918 1.06.918h2.047c.605 0 1.095-.49 1.095-1.094v-.5l2.88-46.74h1.26c.663 0 1.2-.54 1.2-1.203 0-.102-.033-.193-.058-.29h1.31c.8 0 1.45-.65 1.45-1.45 0-.232-.058-.446-.154-.64h1.208c1.077 0 1.952-.875 1.952-1.953 0-1.08-.875-1.953-1.952-1.953" fill="#c4ae5f"/><path d="M347.37 532.988c2.506 3.202 2.368 10.44 1.392 10.58-.974.14-9.05-6.823-5.707-16.845 0 0-7.1 1.67-8.353 10.86-1.66 12.177 5.695 18.345 8.353 20.047 3.48 2.226 5.846 3.063 12.39 3.202 0 0-3.873-4.195-2.923-5.43 1.392-1.81 2.922-.557 6.543-2.784 3.62-2.228 6.822-8.493 4.315-16.846-2.227-5.847-6.82-7.518-10.72-9.19-3.897-1.67-5.985-1.112-7.378-7.934 0 0-3.514 7.18 2.088 14.34" fill="url(#B)" transform="translate(-150 -352.5)"/><path d="M190.13 176.868s-.417 11.556 7.1 12.81c0 0-2.226-8.355-1.39-12.253 0 0 2.505 2.646 5.29 2.785 0 0-1.95 7.935-.14 9.326 0 0 8.912-.973 7.796-8.63 0 0 5.012 6.96.557 14.478 0 0-3.202 3.898-6.96 5.57-3.76 1.67.14 6.403-.28 5.985 0 0-7.378-.558-6.543-6.127 0 0-8.91-3.758-9.466-11.277-.504-6.808 1.81-10.44 4.037-12.668" fill="#fff"/><path d="M190.13 176.868s-.417 11.556 7.1 12.81c0 0-2.226-8.355-1.39-12.253 0 0 2.505 2.646 5.29 2.785 0 0-1.95 7.935-.14 9.326 0 0 8.912-.973 7.796-8.63 0 0 5.012 6.96.557 14.478 0 0-3.202 3.898-6.96 5.57-3.76 1.67.14 6.403-.28 5.985 0 0-7.378-.558-6.543-6.127 0 0-8.91-3.758-9.466-11.277-.504-6.808 1.81-10.44 4.037-12.668z" fill="none" stroke="#c4ae5f" stroke-width=".456"/><path d="M252.394 106.14s-7.198-3.855-13.366 2.057c0 0-6.426-6.683-12.337 1.8 0 0 12.338 3.083 6.17 12.593-7.198 6.94-13.366.515-13.623-9.767 0 0-1.006 3.877-3.6 6.94-3.078 3.64-10.537 3.342-12.336-2.313 0 0-4.883-15.422 12.596-13.11 0 0 .257-10.024-11.31-9.51 0 0 2.822-7.955-5.38-11.814v-.01c-.003.003-.006.005-.01.006-.002 0-.005-.003-.008-.005v.01c-8.202 3.858-5.38 11.814-5.38 11.814-11.567-.514-11.31 9.51-11.31 9.51 17.478-2.312 12.594 13.11 12.594 13.11-1.8 5.655-9.257 5.952-12.337 2.313-2.592-3.063-3.598-6.94-3.598-6.94-.257 10.282-6.426 16.707-13.623 9.767-6.168-9.51 6.17-12.594 6.17-12.594-5.913-8.482-12.338-1.8-12.338-1.8-6.17-5.91-13.366-2.056-13.366-2.056 15.165 8.225 14.394 34.442 14.394 34.442 19.35-11.966 38.434-9.558 38.794-9.512v.002H199.206v-.002c.36-.046 19.468-.26 38.795 9.512 0 0-.77-26.217 14.394-34.442" fill="#c4ae5f"/><path d="M149.724 106.14c0 2.057-1.667 3.724-3.723 3.724s-3.723-1.667-3.723-3.724c0-2.056 1.667-3.724 3.724-3.724 2.057 0 3.724 1.668 3.724 3.724M182.725 111.166c0 2.057-1.667 3.724-3.724 3.724-2.055 0-3.722-1.667-3.722-3.724 0-2.057 1.667-3.724 3.723-3.724 2.058 0 3.725 1.667 3.725 3.724M223.156 111.166c0 2.057-1.667 3.724-3.724 3.724-2.056 0-3.724-1.667-3.724-3.724 0-2.057 1.668-3.724 3.724-3.724 2.057 0 3.724 1.667 3.724 3.724M202.94 81.223c0 2.057-1.667 3.724-3.723 3.724-2.057 0-3.724-1.667-3.724-3.724 0-2.057 1.667-3.724 3.724-3.724 2.056 0 3.723 1.666 3.723 3.723M256.117 106.14c0 2.057-1.668 3.724-3.723 3.724-2.058 0-3.726-1.667-3.726-3.724 0-2.056 1.668-3.724 3.726-3.724 2.055 0 3.723 1.668 3.723 3.724" fill="#c4ae5f"/><path d="M373.99 286.193s-6.688-17.632 15.808-16.72l-9.424-20.975s-26.448-3.04-27.664 18.544l21.28 19.15z" fill="#b01419"/><path d="M360.31 278.29s1.824-7.904-.304-11.248c-2.128-3.344-7.295 0-7.295 0s3.647 8.208 7.6 11.248M380.374 248.498l5.775 12.464-8.208-5.775s-2.433-3.04 2.432-6.69" fill="#870e12"/><path d="M389.19 243.94l10.64 10.335s2.735 22.19-13.68 15.198l-8.208-14.286s16.415 9.423 11.247-11.248" fill="#d91920"/><path d="M26.01 286.193s6.688-17.632-15.807-16.72l9.424-20.975s26.447-3.04 27.663 18.544l-21.28 19.15z" fill="#b01419"/><path d="M39.69 278.29s-1.824-7.904.304-11.248c2.128-3.344 7.296 0 7.296 0s-3.647 8.208-7.6 11.248M19.627 248.498l-5.777 12.464 8.21-5.775s2.43-3.04-2.433-6.69" fill="#870e12"/><path d="M10.81 243.94L.17 254.274s-2.735 22.19 13.68 15.198l8.21-14.286S5.642 264.61 10.81 243.94M372.773 280.417l-11.855-12.16s3.04 11.857-10.64 21.584c-13.375 10.64-18.543 14.593-48.03 27.056-15.343 5.716-45.592 17.085-102.203 19.38-58.814-.836-87.244-13.055-102.588-18.772-29.487-12.463-32.83-14.896-46.206-25.535-13.68-9.728-12.08-23.712-12.08-23.712l-11.854 12.16s-9.807 15.807 13.6 31.614c0 0 20.446 18.543 71.82 35.567 40.39 12.23 82.11 12.218 87.31 12.165 5.198.053 46.916.064 87.307-12.166 51.374-17.025 70.22-34.96 70.22-34.96 23.407-15.806 15.2-32.223 15.2-32.223" fill="#d91920"/><path d="M38.63 289.357l-4.318 3.65c-1.62 1.37-1.7 2.68-.878 3.65.903 1.07 2.21 1.168 3.808-.182l4.32-3.652.802.95-4.254 3.597c-2.235 1.89-4.138 1.48-5.47-.098-1.26-1.49-1.367-3.324.9-5.242l4.288-3.624.803.95z" fill="#fff"/><path d="M38.63 289.357l-4.318 3.65c-1.62 1.37-1.7 2.68-.878 3.65.903 1.07 2.21 1.168 3.808-.182l4.32-3.652.802.95-4.254 3.597c-2.235 1.89-4.138 1.48-5.47-.098-1.26-1.49-1.367-3.324.9-5.242l4.288-3.624.803.95z" fill="none" stroke="#fff" stroke-width=".912"/><path d="M37.817 302.623l6.313-7.137 1.016.9-.917 5.623c-.22 1.295-.453 2.41-.78 3.443l.04.017c.76-1.028 1.505-1.915 2.48-3.016l2.65-2.997.868.768-6.312 7.137-.932-.824.936-5.626c.206-1.234.45-2.47.784-3.553l-.04-.02c-.744.948-1.492 1.815-2.54 3l-2.698 3.05-.87-.767z" fill="#fff"/><path d="M37.817 302.623l6.313-7.137 1.016.9-.917 5.623c-.22 1.295-.453 2.41-.78 3.443l.04.017c.76-1.028 1.505-1.915 2.48-3.016l2.65-2.997.868.768-6.312 7.137-.932-.824.936-5.626c.206-1.234.45-2.47.784-3.553l-.04-.02c-.744.948-1.492 1.815-2.54 3l-2.698 3.05-.87-.767z" fill="none" stroke="#fff" stroke-width=".912"/><path d="M52.427 302.417l-5.654 7.663-1-.738 5.654-7.663 1 .737z" fill="#fff"/><path d="M52.427 302.417l-5.654 7.663-1-.738 5.654-7.663 1 .737z" fill="none" stroke="#fff" stroke-width=".912"/><path d="M51.668 313.453l2.554-9.698 1.128.73-1.304 4.747c-.367 1.295-.707 2.473-1.08 3.544l.023.016c.823-.78 1.797-1.582 2.84-2.39l3.912-3.076 1.104.715-8.038 6.15-1.14-.737z" fill="#fff"/><path d="M51.668 313.453l2.554-9.698 1.128.73-1.304 4.747c-.367 1.295-.707 2.473-1.08 3.544l.023.016c.823-.78 1.797-1.582 2.84-2.39l3.912-3.076 1.104.715-8.038 6.15-1.14-.737z" fill="none" stroke="#fff" stroke-width=".912"/><path d="M64.505 315.967l-3.203-1.83-1.704 2.982 3.584 2.047-.512.895-4.665-2.664 4.728-8.273 4.48 2.56-.513.895-3.4-1.94-1.493 2.612 3.203 1.83-.505.885z" fill="#fff"/><path d="M64.505 315.967l-3.203-1.83-1.704 2.982 3.584 2.047-.512.895-4.665-2.664 4.728-8.273 4.48 2.56-.513.895-3.4-1.94-1.493 2.612 3.203 1.83-.505.885z" fill="none" stroke="#fff" stroke-width=".912"/><path d="M68.493 317.43l1.117.578c1.167.605 2.24.348 2.74-.62.565-1.09.02-1.977-1.134-2.575-.526-.273-.917-.41-1.13-.458l-1.593 3.075zm.896-4.407c.61.174 1.453.514 2.193.897 1.168.605 1.816 1.228 2.096 1.977.225.578.177 1.286-.167 1.952-.572 1.103-1.67 1.473-2.705 1.32l-.02.037c.523.557.6 1.362.36 2.35-.336 1.323-.557 2.243-.563 2.654l-1.13-.584c-.015-.31.174-1.135.494-2.306.352-1.298.115-1.977-.857-2.53l-1.03-.532-1.896 3.665-1.093-.565 4.315-8.335z" fill="#fff"/><path d="M68.493 317.43l1.117.578c1.167.605 2.24.348 2.74-.62.565-1.09.02-1.977-1.134-2.575-.526-.273-.917-.41-1.13-.458l-1.593 3.075zm.896-4.407c.61.174 1.453.514 2.193.897 1.168.605 1.816 1.228 2.096 1.977.225.578.177 1.286-.167 1.952-.572 1.103-1.67 1.473-2.705 1.32l-.02.037c.523.557.6 1.362.36 2.35-.336 1.323-.557 2.243-.563 2.654l-1.13-.584c-.015-.31.174-1.135.494-2.306.352-1.298.115-1.977-.857-2.53l-1.03-.532-1.896 3.665-1.093-.565 4.315-8.335z" fill="none" stroke="#fff" stroke-width=".912"/><path d="M73.37 323.9c.348.554.948 1.136 1.715 1.5 1.137.538 2.08.265 2.497-.616.375-.792.14-1.483-.817-2.468-1.163-1.177-1.68-2.33-1.112-3.53.635-1.342 2.22-1.812 3.893-1.018.868.41 1.423.924 1.69 1.316l-.736.763c-.19-.294-.65-.81-1.43-1.178-1.174-.557-1.954-.067-2.232.52-.382.805-.046 1.45.925 2.472 1.184 1.265 1.585 2.3.986 3.565-.63 1.328-2.153 2.03-4.184 1.068-.83-.393-1.616-1.08-1.93-1.603l.735-.793z" fill="#fff"/><path d="M73.37 323.9c.348.554.948 1.136 1.715 1.5 1.137.538 2.08.265 2.497-.616.375-.792.14-1.483-.817-2.468-1.163-1.177-1.68-2.33-1.112-3.53.635-1.342 2.22-1.812 3.893-1.018.868.41 1.423.924 1.69 1.316l-.736.763c-.19-.294-.65-.81-1.43-1.178-1.174-.557-1.954-.067-2.232.52-.382.805-.046 1.45.925 2.472 1.184 1.265 1.585 2.3.986 3.565-.63 1.328-2.153 2.03-4.184 1.068-.83-.393-1.616-1.08-1.93-1.603l.735-.793z" fill="none" stroke="#fff" stroke-width=".912"/><path d="M85.213 320.532l-3.873 8.704-1.137-.506 3.874-8.704 1.136.506z" fill="#fff"/><path d="M85.213 320.532l-3.873 8.704-1.137-.506 3.874-8.704 1.136.506z" fill="none" stroke="#fff" stroke-width=".912"/><path d="M85.822 330.144c.266.172.684.345 1.127.53 2.422 1.023 4.31.2 5.298-2.176.886-2.096.25-3.876-2.153-4.875-.587-.244-1.053-.377-1.38-.436l-2.893 6.957zm2.09-8.27c.75.188 1.605.452 2.506.827 1.63.68 2.64 1.527 3.113 2.565.498 1.05.526 2.27-.066 3.693-.597 1.436-1.54 2.42-2.687 2.894-1.177.475-2.72.354-4.43-.357-.822-.342-1.476-.645-2.03-.967l3.596-8.654z" fill="#fff"/><path d="M85.822 330.144c.266.172.684.345 1.127.53 2.422 1.023 4.31.2 5.298-2.176.886-2.096.25-3.876-2.153-4.875-.587-.244-1.053-.377-1.38-.436l-2.893 6.957zm2.09-8.27c.75.188 1.605.452 2.506.827 1.63.68 2.64 1.527 3.113 2.565.498 1.05.526 2.27-.066 3.693-.597 1.436-1.54 2.42-2.687 2.894-1.177.475-2.72.354-4.43-.357-.822-.342-1.476-.645-2.03-.967l3.596-8.654z" fill="none" stroke="#fff" stroke-width=".912"/><path d="M99.855 332.503l.086-2.9c.036-.652.105-1.23.168-1.796l-.04-.016c-.314.47-.67.972-1.047 1.45l-1.848 2.247 2.683 1.016zm-3.262-.208l-1.987 2.452-1.19-.45 6.403-7.764 1.388.526-.337 10.06-1.228-.465.11-3.163-3.16-1.197z" fill="#fff"/><path d="M99.855 332.503l.086-2.9c.036-.652.105-1.23.168-1.796l-.04-.016c-.314.47-.67.972-1.047 1.45l-1.848 2.247 2.683 1.016zm-3.262-.208l-1.987 2.452-1.19-.45 6.403-7.764 1.388.526-.337 10.06-1.228-.465.11-3.163-3.16-1.197z" fill="none" stroke="#fff" stroke-width=".912"/><path d="M104.734 337.473c.275.156.702.304 1.157.46 2.48.877 4.317-.058 5.16-2.49.76-2.146.016-3.886-2.442-4.737-.602-.21-1.074-.313-1.404-.354l-2.47 7.12zm1.59-8.383c.76.143 1.63.355 2.55.675 1.67.58 2.73 1.365 3.262 2.373.56 1.018.662 2.235.157 3.692-.51 1.47-1.394 2.51-2.51 3.05-1.147.545-2.694.518-4.444-.09-.842-.29-1.515-.555-2.088-.843l3.072-8.857z" fill="#fff"/><path d="M104.734 337.473c.275.156.702.304 1.157.46 2.48.877 4.317-.058 5.16-2.49.76-2.146.016-3.886-2.442-4.737-.602-.21-1.074-.313-1.404-.354l-2.47 7.12zm1.59-8.383c.76.143 1.63.355 2.55.675 1.67.58 2.73 1.365 3.262 2.373.56 1.018.662 2.235.157 3.692-.51 1.47-1.394 2.51-2.51 3.05-1.147.545-2.694.518-4.444-.09-.842-.29-1.515-.555-2.088-.843l3.072-8.857z" fill="none" stroke="#fff" stroke-width=".912"/><path d="M123.715 343.892c-.48.106-1.427.092-2.547-.203-2.597-.683-4.106-2.832-3.31-5.866.762-2.897 3.226-4.324 6.082-3.573 1.134.298 1.807.738 2.08.985l-.558.89c-.38-.333-.978-.665-1.743-.866-2.16-.568-3.958.435-4.593 2.853-.597 2.27.325 4.045 2.552 4.63.737.194 1.514.237 2.054.13l-.02 1.02z" fill="#fff"/><path d="M123.715 343.892c-.48.106-1.427.092-2.547-.203-2.597-.683-4.106-2.832-3.31-5.866.762-2.897 3.226-4.324 6.082-3.573 1.134.298 1.807.738 2.08.985l-.558.89c-.38-.333-.978-.665-1.743-.866-2.16-.568-3.958.435-4.593 2.853-.597 2.27.325 4.045 2.552 4.63.737.194 1.514.237 2.054.13l-.02 1.02z" fill="none" stroke="#fff" stroke-width=".912"/><path d="M128.56 340.13l1.227.276c1.283.288 2.255-.232 2.494-1.294.27-1.2-.48-1.92-1.75-2.205-.578-.13-.99-.165-1.21-.156l-.76 3.38zm-.25-4.49c.635.01 1.536.128 2.35.31 1.282.29 2.067.727 2.53 1.382.364.502.496 1.198.332 1.93-.273 1.213-1.242 1.85-2.282 1.963l-.01.04c.65.408.927 1.166.944 2.184.012 1.363.03 2.31.13 2.71l-1.24-.28c-.095-.297-.12-1.143-.11-2.357.014-1.345-.387-1.943-1.468-2.23l-1.13-.254-.907 4.026-1.2-.27 2.06-9.157z" fill="#fff"/><path d="M128.56 340.13l1.227.276c1.283.288 2.255-.232 2.494-1.294.27-1.2-.48-1.92-1.75-2.205-.578-.13-.99-.165-1.21-.156l-.76 3.38zm-.25-4.49c.635.01 1.536.128 2.35.31 1.282.29 2.067.727 2.53 1.382.364.502.496 1.198.332 1.93-.273 1.213-1.242 1.85-2.282 1.963l-.01.04c.65.408.927 1.166.944 2.184.012 1.363.03 2.31.13 2.71l-1.24-.28c-.095-.297-.12-1.143-.11-2.357.014-1.345-.387-1.943-1.468-2.23l-1.13-.254-.907 4.026-1.2-.27 2.06-9.157z" fill="none" stroke="#fff" stroke-width=".912"/><path d="M137.868 337.554l-1.876 9.34-1.22-.243 1.876-9.34 1.22.244z" fill="#fff"/><path d="M137.868 337.554l-1.876 9.34-1.22-.243 1.876-9.34 1.22.244z" fill="none" stroke="#fff" stroke-width=".912"/><path d="M139.313 346.02c.48.444 1.213.846 2.048.995 1.24.22 2.077-.29 2.248-1.252.154-.862-.256-1.467-1.438-2.165-1.43-.83-2.234-1.804-2-3.112.26-1.462 1.663-2.33 3.486-2.006.946.168 1.616.517 1.978.825l-.51.93c-.26-.234-.84-.61-1.688-.76-1.28-.23-1.904.45-2.018 1.09-.156.876.338 1.41 1.543 2.14 1.476.91 2.135 1.802 1.89 3.18-.258 1.447-1.54 2.525-3.753 2.13-.905-.16-1.843-.615-2.285-1.038l.5-.958z" fill="#fff"/><path d="M139.313 346.02c.48.444 1.213.846 2.048.995 1.24.22 2.077-.29 2.248-1.252.154-.862-.256-1.467-1.438-2.165-1.43-.83-2.234-1.804-2-3.112.26-1.462 1.663-2.33 3.486-2.006.946.168 1.616.517 1.978.825l-.51.93c-.26-.234-.84-.61-1.688-.76-1.28-.23-1.904.45-2.018 1.09-.156.876.338 1.41 1.543 2.14 1.476.91 2.135 1.802 1.89 3.18-.258 1.447-1.54 2.525-3.753 2.13-.905-.16-1.843-.615-2.285-1.038l.5-.958z" fill="none" stroke="#fff" stroke-width=".912"/><path d="M150.257 340.79l-2.864-.433.157-1.034 6.97 1.056-.156 1.032-2.877-.436-1.27 8.382-1.23-.185 1.27-8.383z" fill="#fff"/><path d="M150.257 340.79l-2.864-.433.157-1.034 6.97 1.056-.156 1.032-2.877-.436-1.27 8.382-1.23-.185 1.27-8.383z" fill="none" stroke="#fff" stroke-width=".912"/><path d="M157.74 340.793l-1.25 9.445-1.232-.163 1.247-9.445 1.234.163z" fill="#fff"/><path d="M157.74 340.793l-1.25 9.445-1.232-.163 1.247-9.445 1.234.163z" fill="none" stroke="#fff" stroke-width=".912"/><path d="M164.8 347.236l-.64-2.832c-.126-.64-.205-1.218-.284-1.78l-.043-.006c-.187.534-.407 1.107-.654 1.663l-1.232 2.64 2.853.316zm-3.21.61l-1.315 2.87-1.265-.14 4.27-9.115 1.474.164 2.182 9.832-1.307-.145-.682-3.09-3.36-.373z" fill="#fff"/><path d="M164.8 347.236l-.64-2.832c-.126-.64-.205-1.218-.284-1.78l-.043-.006c-.187.534-.407 1.107-.654 1.663l-1.232 2.64 2.853.316zm-3.21.61l-1.315 2.87-1.265-.14 4.27-9.115 1.474.164 2.182 9.832-1.307-.145-.682-3.09-3.36-.373z" fill="none" stroke="#fff" stroke-width=".912"/><path d="M169.46 351.693l.78-9.492 1.35.112 2.635 5.05c.598 1.17 1.08 2.202 1.437 3.223l.043-.01c-.01-1.278.057-2.435.178-3.9l.326-3.984 1.154.096-.778 9.49-1.24-.1-2.618-5.064c-.576-1.11-1.12-2.247-1.5-3.313l-.044.01c-.027 1.203-.107 2.344-.237 3.922l-.332 4.055-1.155-.094z" fill="#fff"/><path d="M169.46 351.693l.78-9.492 1.35.112 2.635 5.05c.598 1.17 1.08 2.202 1.437 3.223l.043-.01c-.01-1.278.057-2.435.178-3.9l.326-3.984 1.154.096-.778 9.49-1.24-.1-2.618-5.064c-.576-1.11-1.12-2.247-1.5-3.313l-.044.01c-.027 1.203-.107 2.344-.237 3.922l-.332 4.055-1.155-.094z" fill="none" stroke="#fff" stroke-width=".912"/><path d="M184.73 348.783l-.803-2.787c-.165-.63-.276-1.203-.39-1.76l-.04-.004c-.157.544-.343 1.13-.556 1.697l-1.075 2.702 2.864.15zm-3.17.796l-1.143 2.938-1.27-.066 3.728-9.34 1.482.077 2.748 9.68-1.312-.07-.86-3.045-3.372-.176z" fill="#fff"/><path d="M184.73 348.783l-.803-2.787c-.165-.63-.276-1.203-.39-1.76l-.04-.004c-.157.544-.343 1.13-.556 1.697l-1.075 2.702 2.864.15zm-3.17.796l-1.143 2.938-1.27-.066 3.728-9.34 1.482.077 2.748 9.68-1.312-.07-.86-3.045-3.372-.176z" fill="none" stroke="#fff" stroke-width=".912"/><path d="M198.44 349.13l-.938-2.748c-.196-.622-.334-1.19-.474-1.74h-.042c-.13.55-.287 1.144-.473 1.723l-.944 2.753 2.87.01zm-3.13.948l-1.002 2.993-1.272-.003 3.276-9.517 1.484.007 3.215 9.542-1.315-.007-1.005-3-3.38-.015z" fill="#fff"/><path d="M198.44 349.13l-.938-2.748c-.196-.622-.334-1.19-.474-1.74h-.042c-.13.55-.287 1.144-.473 1.723l-.944 2.753 2.87.01zm-3.13.948l-1.002 2.993-1.272-.003 3.276-9.517 1.484.007 3.215 9.542-1.315-.007-1.005-3-3.38-.015z" fill="none" stroke="#fff" stroke-width=".912"/><path d="M204.126 343.538l.145 5.65c.056 2.117 1.025 2.997 2.297 2.965 1.398-.036 2.292-.992 2.24-3.082l-.146-5.65 1.244-.03.143 5.564c.074 2.924-1.436 4.15-3.497 4.203-1.95.05-3.447-1.014-3.522-3.98l-.144-5.608 1.242-.032z" fill="#fff"/><path d="M204.126 343.538l.145 5.65c.056 2.117 1.025 2.997 2.297 2.965 1.398-.036 2.292-.992 2.24-3.082l-.146-5.65 1.244-.03.143 5.564c.074 2.924-1.436 4.15-3.497 4.203-1.95.05-3.447-1.014-3.522-3.98l-.144-5.608 1.242-.032z" fill="none" stroke="#fff" stroke-width=".912"/><path d="M214.76 344.194l-2.894.157-.057-1.043 7.04-.382.057 1.045-2.907.158.46 8.465-1.243.068-.458-8.466z" fill="#fff"/><path d="M214.76 344.194l-2.894.157-.057-1.043 7.04-.382.057 1.045-2.907.158.46 8.465-1.243.068-.458-8.466z" fill="none" stroke="#fff" stroke-width=".912"/><path d="M226.612 340.132l-1.68 1.81-1 .083 1.188-1.77 1.492-.123zm-1.35 11c1.942-.16 2.893-2.04 2.717-4.193-.157-1.888-1.304-3.778-3.345-3.61-2.043.166-2.9 2.15-2.733 4.207.165 2 1.415 3.754 3.344 3.596l.015-.002zm.024 1.004c-2.52.207-4.426-1.593-4.662-4.467-.248-3.013 1.45-5.138 3.985-5.346 2.604-.214 4.442 1.635 4.674 4.45.266 3.255-1.576 5.163-3.984 5.36l-.014.002z" fill="#fff"/><path d="M226.612 340.132l-1.68 1.81-1 .083 1.188-1.77 1.492-.123zm-1.35 11c1.942-.16 2.893-2.04 2.717-4.193-.157-1.888-1.304-3.778-3.345-3.61-2.043.166-2.9 2.15-2.733 4.207.165 2 1.415 3.754 3.344 3.596l.015-.002zm.024 1.004c-2.52.207-4.426-1.593-4.662-4.467-.248-3.013 1.45-5.138 3.985-5.346 2.604-.214 4.442 1.635 4.674 4.45.266 3.255-1.576 5.163-3.984 5.36l-.014.002z" fill="none" stroke="#fff" stroke-width=".912"/><path d="M232.38 351.346l-1.068-9.463 1.348-.154 3.56 4.446c.812 1.032 1.485 1.95 2.032 2.885l.04-.018c-.256-1.25-.413-2.4-.578-3.86l-.45-3.973 1.152-.13 1.07 9.462-1.236.14-3.547-4.463c-.78-.98-1.534-1.99-2.112-2.96l-.04.018c.205 1.185.347 2.32.525 3.894l.457 4.044-1.15.13z" fill="#fff"/><path d="M232.38 351.346l-1.068-9.463 1.348-.154 3.56 4.446c.812 1.032 1.485 1.95 2.032 2.885l.04-.018c-.256-1.25-.413-2.4-.578-3.86l-.45-3.973 1.152-.13 1.07 9.462-1.236.14-3.547-4.463c-.78-.98-1.534-1.99-2.112-2.96l-.04.018c.205 1.185.347 2.32.525 3.894l.457 4.044-1.15.13z" fill="none" stroke="#fff" stroke-width=".912"/><path d="M246.36 348.75c1.93-.28 2.762-2.216 2.45-4.355-.27-1.874-1.534-3.69-3.562-3.395-2.028.294-2.76 2.327-2.464 4.37.29 1.986 1.645 3.66 3.562 3.38l.014-.002zm.088 1c-2.503.365-4.518-1.314-4.932-4.167-.435-2.992 1.126-5.22 3.644-5.585 2.587-.376 4.537 1.354 4.945 4.152.47 3.23-1.252 5.25-3.643 5.598l-.014.002z" fill="#fff"/><path d="M246.36 348.75c1.93-.28 2.762-2.216 2.45-4.355-.27-1.874-1.534-3.69-3.562-3.395-2.028.294-2.76 2.327-2.464 4.37.29 1.986 1.645 3.66 3.562 3.38l.014-.002zm.088 1c-2.503.365-4.518-1.314-4.932-4.167-.435-2.992 1.126-5.22 3.644-5.585 2.587-.376 4.537 1.354 4.945 4.152.47 3.23-1.252 5.25-3.643 5.598l-.014.002z" fill="none" stroke="#fff" stroke-width=".912"/><path d="M260.635 342.97c-.31-1.294-.682-2.864-.895-4.018l-.027.006c-.136 1.145-.294 2.396-.53 3.775l-.82 4.85-.918.167-2.347-4.183c-.69-1.253-1.27-2.382-1.737-3.445l-.028.005c.186 1.173.402 2.743.578 4.175l.486 4.065-1.154.21-1.063-9.488 1.542-.283 2.43 4.238c.6 1.083 1.094 2.055 1.523 2.982l.027-.005c.078-.992.223-2.08.423-3.34l.838-4.837 1.543-.283 2.3 9.264-1.195.22-.975-4.076z" fill="#fff"/><path d="M260.635 342.97c-.31-1.294-.682-2.864-.895-4.018l-.027.006c-.136 1.145-.294 2.396-.53 3.775l-.82 4.85-.918.167-2.347-4.183c-.69-1.253-1.27-2.382-1.737-3.445l-.028.005c.186 1.173.402 2.743.578 4.175l.486 4.065-1.154.21-1.063-9.488 1.542-.283 2.43 4.238c.6 1.083 1.094 2.055 1.523 2.982l.027-.005c.078-.992.223-2.08.423-3.34l.838-4.837 1.543-.283 2.3 9.264-1.195.22-.975-4.076z" fill="none" stroke="#fff" stroke-width=".912"/><path d="M269.47 341.314l-1.522-2.468c-.328-.564-.59-1.084-.848-1.59l-.042.01c-.003.564-.025 1.177-.078 1.782l-.308 2.893 2.8-.625zm-2.836 1.62l-.31 3.14-1.242.278 1.076-10.002 1.448-.324 5.254 8.584-1.283.287-1.647-2.7-3.296.737z" fill="#fff"/><path d="M269.47 341.314l-1.522-2.468c-.328-.564-.59-1.084-.848-1.59l-.042.01c-.003.564-.025 1.177-.078 1.782l-.308 2.893 2.8-.625zm-2.836 1.62l-.31 3.14-1.242.278 1.076-10.002 1.448-.324 5.254 8.584-1.283.287-1.647-2.7-3.296.737z" fill="none" stroke="#fff" stroke-width=".912"/><path d="M280.227 341.713c.314-.03.75-.155 1.212-.286 2.53-.706 3.498-2.525 2.794-5-.608-2.192-2.215-3.19-4.717-2.478-.612.174-1.06.36-1.352.516l2.062 7.247zm-3.506-7.776c.704-.318 1.538-.643 2.475-.91 1.7-.483 3.018-.447 4.033.072 1.042.512 1.824 1.45 2.245 2.932.427 1.495.298 2.854-.305 3.937-.626 1.103-1.91 1.967-3.69 2.474-.857.244-1.557.414-2.192.507l-2.565-9.013z" fill="#fff"/><path d="M280.227 341.713c.314-.03.75-.155 1.212-.286 2.53-.706 3.498-2.525 2.794-5-.608-2.192-2.215-3.19-4.717-2.478-.612.174-1.06.36-1.352.516l2.062 7.247zm-3.506-7.776c.704-.318 1.538-.643 2.475-.91 1.7-.483 3.018-.447 4.033.072 1.042.512 1.824 1.45 2.245 2.932.427 1.495.298 2.854-.305 3.937-.626 1.103-1.91 1.967-3.69 2.474-.857.244-1.557.414-2.192.507l-2.565-9.013z" fill="none" stroke="#fff" stroke-width=".912"/><path d="M292.584 334.093l-3.487 1.21 1.126 3.246 3.9-1.354.34.975-5.077 1.762-3.124-9.004 4.876-1.692.34.976-3.702 1.283.987 2.846 3.487-1.21.334.963z" fill="#fff"/><path d="M292.584 334.093l-3.487 1.21 1.126 3.246 3.9-1.354.34.975-5.077 1.762-3.124-9.004 4.876-1.692.34.976-3.702 1.283.987 2.846 3.487-1.21.334.963z" fill="none" stroke="#fff" stroke-width=".912"/><path d="M300.91 335.81l-3.462-8.873 1.264-.492 4.58 3.385c1.052.788 1.938 1.504 2.706 2.266l.034-.028c-.568-1.144-1.015-2.214-1.55-3.582l-1.45-3.725 1.078-.42 3.46 8.872-1.158.452-4.573-3.404c-1.004-.745-1.993-1.528-2.802-2.32l-.035.03c.503 1.092.932 2.154 1.507 3.628l1.48 3.79-1.08.422z" fill="#fff"/><path d="M300.91 335.81l-3.462-8.873 1.264-.492 4.58 3.385c1.052.788 1.938 1.504 2.706 2.266l.034-.028c-.568-1.144-1.015-2.214-1.55-3.582l-1.45-3.725 1.078-.42 3.46 8.872-1.158.452-4.573-3.404c-1.004-.745-1.993-1.528-2.802-2.32l-.035.03c.503 1.092.932 2.154 1.507 3.628l1.48 3.79-1.08.422z" fill="none" stroke="#fff" stroke-width=".912"/><path d="M308.053 322.694l3.666 8.79-1.15.478-3.665-8.79 1.148-.478z" fill="#fff"/><path d="M308.053 322.694l3.666 8.79-1.15.478-3.665-8.79 1.148-.478z" fill="none" stroke="#fff" stroke-width=".912"/><path d="M320.7 327.227c-.308.385-1.056.967-2.114 1.438-2.454 1.095-4.98.365-6.258-2.503-1.222-2.737-.193-5.395 2.507-6.6 1.07-.477 1.872-.556 2.238-.533l.125 1.04c-.505-.02-1.18.095-1.904.418-2.04.91-2.815 2.82-1.795 5.105.955 2.144 2.786 2.952 4.89 2.014.7-.312 1.333-.765 1.687-1.185l.623.805z" fill="#fff"/><path d="M320.7 327.227c-.308.385-1.056.967-2.114 1.438-2.454 1.095-4.98.365-6.258-2.503-1.222-2.737-.193-5.395 2.507-6.6 1.07-.477 1.872-.556 2.238-.533l.125 1.04c-.505-.02-1.18.095-1.904.418-2.04.91-2.815 2.82-1.795 5.105.955 2.144 2.786 2.952 4.89 2.014.7-.312 1.333-.765 1.687-1.185l.623.805z" fill="none" stroke="#fff" stroke-width=".912"/><path d="M325.75 320.73l-2.057-2.045c-.45-.47-.827-.917-1.196-1.35l-.04.018c.13.552.252 1.153.342 1.754l.374 2.885 2.577-1.262zm-2.38 2.238l.43 3.126-1.143.56-1.286-9.98 1.333-.653 7.11 7.125-1.18.58-2.232-2.243-3.03 1.486z" fill="#fff"/><path d="M325.75 320.73l-2.057-2.045c-.45-.47-.827-.917-1.196-1.35l-.04.018c.13.552.252 1.153.342 1.754l.374 2.885 2.577-1.262zm-2.38 2.238l.43 3.126-1.143.56-1.286-9.98 1.333-.653 7.11 7.125-1.18.58-2.232-2.243-3.03 1.486z" fill="none" stroke="#fff" stroke-width=".912"/><path d="M330.706 316.93l1.107-.6c1.156-.627 1.545-1.66 1.024-2.616-.587-1.08-1.626-1.128-2.77-.507-.52.283-.854.53-1.013.68l1.652 3.044zm-3.145-3.214c.486-.41 1.24-.916 1.974-1.314 1.157-.627 2.036-.816 2.814-.627.605.138 1.165.575 1.523 1.234.595 1.09.284 2.21-.423 2.98l.02.037c.754-.12 1.465.267 2.148 1.022.908 1.02 1.545 1.72 1.882 1.954l-1.118.607c-.266-.16-.844-.78-1.634-1.703-.877-1.02-1.572-1.206-2.574-.71l-1.02.554 1.97 3.63-1.08.587-4.48-8.25z" fill="#fff"/><path d="M330.706 316.93l1.107-.6c1.156-.627 1.545-1.66 1.024-2.616-.587-1.08-1.626-1.128-2.77-.507-.52.283-.854.53-1.013.68l1.652 3.044zm-3.145-3.214c.486-.41 1.24-.916 1.974-1.314 1.157-.627 2.036-.816 2.814-.627.605.138 1.165.575 1.523 1.234.595 1.09.284 2.21-.423 2.98l.02.037c.754-.12 1.465.267 2.148 1.022.908 1.02 1.545 1.72 1.882 1.954l-1.118.607c-.266-.16-.844-.78-1.634-1.703-.877-1.02-1.572-1.206-2.574-.71l-1.02.554 1.97 3.63-1.08.587-4.48-8.25z" fill="none" stroke="#fff" stroke-width=".912"/><path d="M341.67 311.906l-2.238-1.847c-.492-.43-.908-.84-1.316-1.236l-.035.023c.18.537.355 1.124.5 1.714l.64 2.84 2.45-1.494zm-2.167 2.447l.716 3.072-1.087.663-2.2-9.817 1.268-.772 7.738 6.44-1.123.683-2.428-2.027-2.884 1.76z" fill="#fff"/><path d="M341.67 311.906l-2.238-1.847c-.492-.43-.908-.84-1.316-1.236l-.035.023c.18.537.355 1.124.5 1.714l.64 2.84 2.45-1.494zm-2.167 2.447l.716 3.072-1.087.663-2.2-9.817 1.268-.772 7.738 6.44-1.123.683-2.428-2.027-2.884 1.76z" fill="none" stroke="#fff" stroke-width=".912"/><path d="M353.55 308.097c-.325.493-1.04 1.386-2.09 2.133-1.173.838-2.353 1.23-3.63 1.045-1.127-.168-2.28-.908-3.143-2.117-1.65-2.313-1.257-5.146 1.344-7.002.898-.64 1.75-.953 2.2-1.03l.33.998c-.554.1-1.17.33-1.953.89-1.887 1.346-2.282 3.4-.894 5.343 1.405 1.968 3.408 2.293 5.225.996.657-.468 1.04-.88 1.187-1.16l-1.65-2.313-1.565 1.117-.574-.806 2.554-1.82 2.66 3.727z" fill="#fff"/><path d="M353.55 308.097c-.325.493-1.04 1.386-2.09 2.133-1.173.838-2.353 1.23-3.63 1.045-1.127-.168-2.28-.908-3.143-2.117-1.65-2.313-1.257-5.146 1.344-7.002.898-.64 1.75-.953 2.2-1.03l.33.998c-.554.1-1.17.33-1.953.89-1.887 1.346-2.282 3.4-.894 5.343 1.405 1.968 3.408 2.293 5.225.996.657-.468 1.04-.88 1.187-1.16l-1.65-2.313-1.565 1.117-.574-.806 2.554-1.82 2.66 3.727z" fill="none" stroke="#fff" stroke-width=".912"/><path d="M350.83 298.445l3.673 4.303c1.378 1.613 2.687 1.686 3.654.86 1.065-.91 1.158-2.215-.2-3.808l-3.675-4.302.947-.808 3.617 4.237c1.902 2.227 1.5 4.132-.07 5.473-1.484 1.268-3.318 1.383-5.248-.876l-3.648-4.27.948-.81z" fill="#fff"/><path d="M350.83 298.445l3.673 4.303c1.378 1.613 2.687 1.686 3.654.86 1.065-.91 1.158-2.215-.2-3.808l-3.675-4.302.947-.808 3.617 4.237c1.902 2.227 1.5 4.132-.07 5.473-1.484 1.268-3.318 1.383-5.248-.876l-3.648-4.27.948-.81z" fill="none" stroke="#fff" stroke-width=".912"/><path d="M363.635 293.91l-2.668-1.138c-.595-.27-1.11-.544-1.613-.81l-.028.03c.323.465.66.98.965 1.504l1.418 2.543 1.927-2.13zm-1.386 2.963l1.557 2.745-.854.943-4.89-8.795.997-1.1 9.246 3.987-.883.973-2.905-1.257-2.27 2.505z" fill="#fff"/><path d="M363.635 293.91l-2.668-1.138c-.595-.27-1.11-.544-1.613-.81l-.028.03c.323.465.66.98.965 1.504l1.418 2.543 1.927-2.13zm-1.386 2.963l1.557 2.745-.854.943-4.89-8.795.997-1.1 9.246 3.987-.883.973-2.905-1.257-2.27 2.505z" fill="none" stroke="#fff" stroke-width=".912"/><path d="M219.34 157.677v1.702s2.8.582 5.143 1.724l-.047-1.37s-1.968-.686-1.827-3.542c.088-1.823 0-9.367 0-9.367l8.212 16.68c1.45 1.065 2.934 2.132 2.934 2.132l-.014-20.487s.28-1.713 1.733-1.657v-.75l-5.56-1.58v.75s1.68.056 1.68 1.77c.046.166 0 14.794 0 14.794l-8.318-18.54-4.604-.686v.924s1.983.987 2.12 2.482v13.708s-.045 1.59-1.453 1.313" fill="#c4ae5f"/><path d="M219.34 157.677v1.702s2.8.582 5.143 1.724l-.047-1.37s-1.968-.686-1.827-3.542c.088-1.823 0-9.367 0-9.367l8.212 16.68c1.45 1.065 2.934 2.132 2.934 2.132l-.014-20.487s.28-1.713 1.733-1.657v-.75l-5.56-1.58v.75s1.68.056 1.68 1.77c.046.166 0 14.794 0 14.794l-8.318-18.54-4.604-.686v.924s1.983.987 2.12 2.482v13.708s-.045 1.59-1.453 1.313z" fill="none" stroke="#c4ae5f" stroke-width="1.034"/><path d="M163.857 142.744l7.59-2.585v1.193s-1.544 1.002-1.67 2.58c-.013.18.084 16.462.084 16.462s-.082 1.698 2.462 1.14c1.91-.42 4.48-2.966 4.797-5.348l.04-15.104s-.357-.74-2.127-.74v-1.194l5.756-1.514v1.194c-.773.07-2.07 1.092-2.003 2.56.1 2.154 0 14.192 0 14.192s-.14 3.995-2.933 6.132c-3.045 2.696-5.678 2.678-6.994 2.567-1.316-.11-3.074.1-3.12-2.445v-17.85s-.216-.44-1.883-.048v-1.193z" fill="#c4ae5f"/><path d="M163.857 142.744l7.59-2.585v1.193s-1.544 1.002-1.67 2.58c-.013.18.084 16.462.084 16.462s-.082 1.698 2.462 1.14c1.91-.42 4.48-2.966 4.797-5.348l.04-15.104s-.357-.74-2.127-.74v-1.194l5.756-1.514v1.194c-.773.07-2.07 1.092-2.003 2.56.1 2.154 0 14.192 0 14.192s-.14 3.995-2.933 6.132c-3.045 2.696-5.678 2.678-6.994 2.567-1.316-.11-3.074.1-3.12-2.445v-17.85s-.216-.44-1.883-.048v-1.193z" fill="none" stroke="#c4ae5f" stroke-width="1.034"/><path d="M194.884 136.214h1.264l1.294 5.863-1.265.4s-.872-4.94-6.258-3.742c0 0-3.56 1.2-3.935 5.655-1.093 5.325.774 10.427 1.64 11.117 1.043.83 3.234 1.31 5.62.457 2.716-.97 3.792-3.37 3.792-3.37l1.36.286s-.856 2.102-2.718 3.54c-2.678 2.492-6.93 2-6.93 2s-4.31.23-6.137-3.77c-1.52-3.325-.546-11.63 1.203-14.144 1.342-1.752 4.4-4.875 11.02-2.913l.048-1.38z" fill="#c4ae5f"/><path d="M194.884 136.214h1.264l1.294 5.863-1.265.4s-.872-4.94-6.258-3.742c0 0-3.56 1.2-3.935 5.655-1.093 5.325.774 10.427 1.64 11.117 1.043.83 3.234 1.31 5.62.457 2.716-.97 3.792-3.37 3.792-3.37l1.36.286s-.856 2.102-2.718 3.54c-2.678 2.492-6.93 2-6.93 2s-4.31.23-6.137-3.77c-1.52-3.325-.546-11.63 1.203-14.144 1.342-1.752 4.4-4.875 11.02-2.913l.048-1.38z" fill="none" stroke="#c4ae5f" stroke-width="1.034"/><path d="M205.702 146.24l2.435-7.035 1.406 7.32-3.84-.284zm9.117 7.31c-1.592-4.58-4.95-16.24-4.95-16.24l-2.81-.53s-4.237 12.534-4.87 14.72c-.843 2.915-2.858 2.915-2.858 2.915l-.186 1.848c3.403-.024 6.556.853 6.556.853v-1.564s-.6.005-1.358-.57c-.562-.425-.79-1.883-.376-3.125.416-1.244 1.172-3.554 1.172-3.554l4.965.355s1.637 5.625 1.498 6.75c-.14 1.138-1.873.925-1.873.925v1.28c3.63 0 7.47 1.493 7.47 1.493v-1.35s-1.24-.925-2.38-4.205" fill="#c4ae5f"/><path d="M205.702 146.24l2.435-7.035 1.406 7.32-3.84-.284zm9.117 7.31c-1.592-4.58-4.95-16.24-4.95-16.24l-2.81-.53s-4.237 12.534-4.87 14.72c-.843 2.915-2.858 2.915-2.858 2.915l-.186 1.848c3.403-.024 6.556.853 6.556.853v-1.564s-.6.005-1.358-.57c-.562-.425-.79-1.883-.376-3.125.416-1.244 1.172-3.554 1.172-3.554l4.965.355s1.637 5.625 1.498 6.75c-.14 1.138-1.873.925-1.873.925v1.28c3.63 0 7.47 1.493 7.47 1.493v-1.35s-1.24-.925-2.38-4.205z" fill="none" stroke="#c4ae5f" stroke-width="1.154"/><path d="M219.34 157.677v1.702s2.8.582 5.143 1.724l-.047-1.37s-1.968-.686-1.827-3.542c.088-1.823 0-9.367 0-9.367l8.212 16.68c1.45 1.065 2.934 2.132 2.934 2.132l-.014-20.487s.28-1.713 1.733-1.657v-.75l-5.56-1.58v.75s1.68.056 1.68 1.77c.046.166 0 14.794 0 14.794l-8.318-18.54-4.604-.686v.924s1.983.987 2.12 2.482v13.708s-.045 1.59-1.453 1.313M163.857 142.744l7.59-2.585v1.193s-1.544 1.002-1.67 2.58c-.013.18.084 16.462.084 16.462s-.082 1.698 2.462 1.14c1.91-.42 4.48-2.966 4.797-5.348l.04-15.104s-.357-.74-2.127-.74v-1.194l5.756-1.514v1.194c-.773.07-2.07 1.092-2.003 2.56.1 2.154 0 14.192 0 14.192s-.14 3.995-2.933 6.132c-3.045 2.696-5.678 2.678-6.994 2.567-1.316-.11-3.074.1-3.12-2.445v-17.85s-.02-.613-1.883-.048v-1.193zM194.884 136.214h1.264l1.294 5.863-1.265.4s-.872-4.94-6.258-3.742c0 0-3.56 1.2-3.935 5.655-.638 3.56-.295 9.144 1.64 11.117.934.952 3.234 1.31 5.62.457 2.716-.97 3.792-3.37 3.792-3.37l1.36.286s-.856 2.102-2.718 3.54c-2.678 2.492-6.93 2-6.93 2s-4.31.23-6.137-3.77c-1.52-3.325-.546-11.63 1.203-14.144 1.342-1.752 4.4-4.875 11.02-2.913l.048-1.38zM205.702 146.24l2.435-7.035 1.406 7.32-3.84-.284zm9.117 7.31c-1.592-4.58-4.95-16.24-4.95-16.24l-2.81-.53s-4.237 12.534-4.87 14.72c-.843 2.915-2.858 2.915-2.858 2.915l-.186 1.848c3.403-.024 6.556.853 6.556.853v-1.564s-.6.005-1.358-.57c-.562-.425-.79-1.883-.376-3.125.416-1.244 1.172-3.554 1.172-3.554l4.965.355s1.637 5.625 1.498 6.75c-.14 1.138-1.873.925-1.873.925v1.28c3.63 0 7.47 1.493 7.47 1.493v-1.35s-1.24-.925-2.38-4.205" fill="#d91920"/><path d="M212.536 361.602l11.034 10.752v-8.234l-11.034-11.486v8.968z" fill="url(#C)" transform="translate(-150 -352.5)"/><path d="M208.242 361.488l-3.306 1.596 8.892 9.12 9.576.113-11.02-10.943-4.142.114z" fill="url(#D)" transform="translate(-150 -352.5)"/><path d="M257.983 361.602l11.033 10.752v-8.234l-11.033-11.486v8.968z" fill="url(#E)" transform="translate(-150 -352.5)"/><path d="M253.69 361.488l-6.575 1.596 8.89 9.12 12.845.113-11.02-10.943-4.14.114z" fill="url(#F)" transform="translate(-150 -352.5)"/><path d="M226.14 360.918l-.684.836 12.16 11.855-.836-8.132-2.965-3.193-4.484-1.747-3.19.38z" fill="url(#G)" transform="translate(-150 -352.5)"/><path d="M171.346 360.918l-.685.836 12.162 11.855-.836-8.132-2.964-3.193-4.485-1.747-3.19.38z" fill="url(#H)" transform="translate(-150 -352.5)"/><path d="M203.797 427.796l-.152 5.167 4.255 2.28 5.928-.608v-62.432l-8.892-9.12-1.14 64.713z" fill="url(#I)" transform="translate(-150 -352.5)"/><path d="M246.507 414.115l10.184 1.672v-43.584l-8.892-9.12-1.29 51.032z" fill="url(#J)" transform="translate(-150 -352.5)"/><path d="M244.53 423.387l-9.727 13.528-12.463 6.688-36.175 4.104 9.728 7.6s6.536 3.04 30.702-3.8c30.415-10.127 30.135-36.288 30.135-36.288l-9.007-2.017-3.192 10.184z" fill="url(#K)" transform="translate(-150 -352.5)"/><path d="M23.36 2.233h36.946v4.764s-7.512 0-8.12 6.294c-.07.716.405 65.71.405 65.71s-.405 6.778 11.98 4.544c9.296-1.677 21.803-11.837 23.35-21.338l.203-50.133s-1.738-5.076-10.355-5.076V2.233h28.02v4.764c-3.756.275-10.077.44-9.746 6.294.487 8.608 0 46.498 0 46.498s-.675 15.947-14.28 24.475C66.943 95.023 54.127 94.95 47.718 94.51c-6.407-.443-14.967.398-15.187-9.766v-71.25s-1.055-8.06-9.17-6.497V2.233z" fill="#c4ae5f"/><path d="M23.36 2.233h36.946v4.764s-7.512 0-8.12 6.294c-.07.716.405 65.71.405 65.71s-.405 6.778 11.98 4.544c9.296-1.677 21.803-11.837 23.35-21.338l.203-50.133s-1.738-5.076-10.355-5.076V2.233h28.02v4.764c-3.756.275-10.077.44-9.746 6.294.487 8.608 0 46.498 0 46.498s-.675 15.947-14.28 24.475C66.943 95.023 54.127 94.95 47.718 94.51c-6.407-.443-14.967.398-15.187-9.766v-71.25s-1.055-8.06-9.17-6.497V2.233z" fill="none" stroke="#c4ae5f" stroke-width="4.56"/><path d="M23.36 2.233h36.946v4.764s-7.512 0-8.12 6.294c-.07.716.405 65.71.405 65.71s-.405 6.778 11.98 4.544c9.296-1.677 21.803-11.837 23.35-21.338l.203-50.133s-1.738-5.076-10.355-5.076V2.233h28.02v4.764c-3.756.275-10.077.44-9.746 6.294.487 8.608 0 46.498 0 46.498s-.675 15.947-14.28 24.475C66.943 95.023 54.127 94.95 47.718 94.51c-6.407-.443-14.967.398-15.187-9.766v-71.25s-1.055-8.06-9.17-6.497V2.233z" fill="#d91920"/><path d="M333.752 412.748l-11.704 8.208-19.76 4.255-23.102-2.583-13.832-10.183s2.888 9.27 11.856 13.984c8.968 4.71 19.455 9.575 40.582 5.015 21.127-4.56 27.663-20.216 27.663-20.216l-1.064-11.4-10.638 12.92z" fill="url(#L)" transform="translate(-150 -352.5)"/><path d="M331.927 380.22l1.065 10.336 10.184-1.52-.76-11.55-10.49 2.735z" fill="url(#M)" transform="translate(-150 -352.5)"/><path d="M303.353 365.478l-10.792 4.408-8.966 10.487-1.52 11.248 1.824 14.896 8.36 5.472s-13.375-22.95 10.183-33.895c19.76-8.663 30.552 12.463 30.552 12.463l-1.065-10.335-3.95-9.27-14.288-6.08-10.337.608z" fill="url(#N)" transform="translate(-150 -352.5)"/><path d="M174.404 2.233h6.156l8.892 21.232-6.156 1.596s-6.84-17.554-33.06-12.766c0 0-17.327 4.788-19.15 22.57-1.824 13.452 3.76 21.87 7.98 24.624 5.08 3.314 15.743 5.23 27.358 1.824 13.224-3.876 18.467-13.452 18.467-13.452l6.613 1.14s-4.164 8.39-13.223 14.136c-13.037 9.942-33.743 7.98-33.743 7.98s-20.975.91-29.867-15.048c-7.396-13.275-2.66-26.675 5.852-36.707 6.536-6.99 21.43-19.454 53.654-11.627l.228-5.5z" fill="#c4ae5f"/><path d="M174.404 2.233h6.156l8.892 21.232-6.156 1.596s-6.84-17.554-33.06-12.766c0 0-17.327 4.788-19.15 22.57-1.824 13.452 3.76 21.87 7.98 24.624 5.08 3.314 15.743 5.23 27.358 1.824 13.224-3.876 18.467-13.452 18.467-13.452l6.613 1.14s-4.164 8.39-13.223 14.136c-13.037 9.942-33.743 7.98-33.743 7.98s-20.975.91-29.867-15.048c-7.396-13.275-2.66-26.675 5.852-36.707 6.536-6.99 21.43-19.454 53.654-11.627l.228-5.5z" fill="none" stroke="#c4ae5f" stroke-width="4.56"/><path d="M174.404 2.233h6.156l8.892 21.232-6.156 1.596s-6.84-17.554-33.06-12.766c0 0-17.327 4.788-19.15 22.57-1.824 13.452 3.76 21.87 7.98 24.624 5.08 3.314 15.743 5.23 27.358 1.824 13.224-3.876 18.467-13.452 18.467-13.452l6.613 1.14s-4.164 8.39-13.223 14.136c-13.037 9.942-33.743 7.98-33.743 7.98s-20.975.91-29.867-15.048c-7.396-13.275-2.66-26.675 5.852-36.707 6.536-6.99 21.43-19.454 53.654-11.627l.228-5.5z" fill="#d91920"/><path d="M383.302 376.117l13.07 39.823 7.905-1.825v-4.255l-15.503-43.774-5.472 10.03z" fill="url(#O)" transform="translate(-150 -352.5)"/><path d="M342.87 419.284l2.737 8.207s14.933-1.253 34.997 2.51l-1.482-7.752s-17.533-3.05-32.213-3.05c-1.378 0-2.728.027-4.04.086" fill="url(#P)" transform="translate(-150 -352.5)"/><path d="M394.74 423.387L389.268 430c19.694-.314 42.178 5.357 42.178 5.357l3.648-6.384c-16.77-5.12-32.747-5.614-38.295-5.614-1.33 0-2.06.027-2.06.027" fill="url(#Q)" transform="translate(-150 -352.5)"/><path d="M390.294 421.905L389.268 430l5.472-6.613-.23-8.207-4.216 6.725z" fill="url(#R)" transform="translate(-150 -352.5)"/><path d="M379.122 422.248l1.482 7.75 1.33-11.626-2.888-5.17.076 9.046z" fill="url(#S)" transform="translate(-150 -352.5)"/><path d="M271.452 56.032c-7.745-14.692-24.09-53.8-24.09-53.8h-13.68s-20.632 40.21-23.71 47.224c-4.105 9.348-13.91 9.348-13.91 9.348l-.91 5.927c16.567-.074 31.918 2.737 31.918 2.737v-5.015s-2.935.014-6.61-1.824c-2.738-1.368-3.84-6.045-1.826-10.032 2.016-3.988 5.7-11.4 5.7-11.4l24.167 1.14s7.975 18.047 7.297 21.66c-.684 3.648-9.12 2.964-9.12 2.964v4.103c17.676 0 36.365 4.788 36.365 4.788v-4.33s-6.04-2.965-11.59-13.488M227.07 32.584l11.855-22.57 6.84 23.483-18.695-.913z" fill="#c4ae5f"/><path d="M271.452 56.032c-7.745-14.692-24.09-53.8-24.09-53.8h-13.68s-20.632 40.21-23.71 47.224c-4.105 9.348-13.91 9.348-13.91 9.348l-.91 5.927c16.567-.074 31.918 2.737 31.918 2.737v-5.015s-2.935.014-6.61-1.824c-2.738-1.368-3.84-6.045-1.826-10.032 2.016-3.988 5.7-11.4 5.7-11.4l24.167 1.14s7.975 18.047 7.297 21.66c-.684 3.648-9.12 2.964-9.12 2.964v4.103c17.676 0 36.365 4.788 36.365 4.788v-4.33s-6.04-2.965-11.59-13.488zM227.07 32.584l11.855-22.57 6.84 23.483-18.695-.913z" fill="none" stroke="#c4ae5f" stroke-width="4.56"/><path d="M271.452 56.032c-7.745-14.692-24.09-53.8-24.09-53.8h-13.68s-20.632 40.21-23.71 47.224c-4.105 9.348-13.91 9.348-13.91 9.348l-.91 5.927c16.567-.074 31.918 2.737 31.918 2.737v-5.015s-2.935.014-6.61-1.824c-2.738-1.368-3.84-6.045-1.826-10.032 2.016-3.988 5.7-11.4 5.7-11.4l24.167 1.14s7.975 18.047 7.297 21.66c-.684 3.648-9.12 2.964-9.12 2.964v4.103c17.676 0 36.365 4.788 36.365 4.788v-4.33s-6.04-2.965-11.59-13.488M227.07 32.584l11.855-22.57 6.84 23.483-18.695-.913z" fill="#d91920"/><path d="M430.91 359.842v8.137l7.09-8.042-.285-7.328-6.804 7.232z" fill="url(#T)" transform="translate(-150 -352.5)"/><path d="M482.365 361.608v8.17l10.258-9.804.102-7.364-10.36 8.998z" fill="url(#U)" transform="translate(-150 -352.5)"/><path d="M518.04 359.43l-2.634 3.086-.272 4.266v3.086l8.897-9.803-2.36-1.09-3.63.454z" fill="url(#V)" transform="translate(-150 -352.5)"/><path d="M482.365 369.777c10.714-1.458 9.84 4.883 9.84 4.883v27.068l9.35 15.503.683-39.897-.456-14.364-7.98-4.332-11.437 11.14z" fill="url(#W)" transform="translate(-150 -352.5)"/><path d="M430.91 367.98s9.212 1.573 10.124 10.39c.912 8.816 0 39.94 0 39.94l5.04.822 2.737-3.496V366.39l-1.823-2.888-7.752-3.192-1.234-.372-7.09 8.04z" fill="url(#X)" transform="translate(-150 -352.5)"/><path d="M293.46 68.15v6.794s13.635 2.327 25.035 6.887l-.228-5.47s-9.576-2.736-8.892-14.136c.436-7.28 0-37.39 0-37.39l39.988 66.572c7.053 4.257 14.274 8.512 14.274 8.512l-.228-88.08s1.364-6.833 8.434-6.612V2.233h-26.9v2.993s8.176.228 8.176 7.067c.22.664 0 59.05 0 59.05l-42.15-69.11h-21.045V5.91s9.944 2.525 10.606 8.492v48.505s-.22 6.35-7.07 5.244" fill="#c4ae5f"/><path d="M293.46 68.15v6.794s13.635 2.327 25.035 6.887l-.228-5.47s-9.576-2.736-8.892-14.136c.436-7.28 0-37.39 0-37.39l39.988 66.572c7.053 4.257 14.274 8.512 14.274 8.512l-.228-88.08s1.364-6.833 8.434-6.612V2.233h-26.9v2.993s8.176.228 8.176 7.067c.22.664 0 59.05 0 59.05l-42.15-69.11h-21.045V5.91s9.944 2.525 10.606 8.492v48.505s-.22 6.35-7.07 5.244z" fill="none" stroke="#c4ae5f" stroke-width="4.56"/><path d="M293.46 68.15v6.794s13.635 2.327 25.035 6.887l-.228-5.47s-9.576-2.736-8.892-14.136c.436-7.28 0-37.39 0-37.39l39.988 66.572c7.053 4.257 14.274 8.512 14.274 8.512l-.228-88.08s1.364-6.833 8.434-6.612V2.233h-26.9v2.993s8.176.228 8.176 7.067c.22.664 0 59.05 0 59.05l-42.15-69.11h-21.045V5.91s9.944 2.525 10.606 8.492v48.505s-.22 6.35-7.07 5.244" fill="#d91920"/><path d="M437.283 424.845v11.135l4.357-7.02-.605-10.53-3.752 6.415z" fill="url(#Y)" transform="translate(-150 -352.5)"/><path d="M437.283 435.98c13.193 2.18 28.2 8.23 28.2 8.23l5.325-6.415c-6.415-4.236-29.168-8.835-29.168-8.835l-4.357 7.02z" fill="url(#Z)" transform="translate(-150 -352.5)"/><path d="M461.122 408.644l29.183 45.294 7.904-8.968-37.088-61.558v25.232z" fill="url(#aa)" transform="translate(-150 -352.5)"/><path d="M490.305 453.938s10.64 5.472 13.832 7.6l11.552-5.624-17.48-10.944-7.905 8.968z" fill="url(#ab)" transform="translate(-150 -352.5)"/></svg>