<svg xmlns="http://www.w3.org/2000/svg" width="400.031" height="473.935"><path d="M100.375 473.355c-8.428-1.177-13.712-3.628-18.81-8.726-1.955-1.957-4.362-5.09-5.348-6.963-1.705-3.24-1.79-3.786-1.75-11.222.035-6.316.61-11.15 3-25.172 2.827-16.608 2.91-17.447 1.948-19.476-.635-1.337-2.016-2.656-3.74-3.57-3.888-2.063-5.07-5.095-3.09-7.922.96-1.373 1.16-1.39 16.557-1.39 12.947 0 16.016.173 18.133 1.02 2.294.917 2.528 1.21 2.357 2.95-.14 1.413-.776 2.307-2.378 3.335-5.1 3.272-4.696 2.414-6.492 13.764-3.638 22.998-4.46 37.21-2.49 42.994 1.396 4.096 5.385 8.142 8.982 9.108 3.828 1.03 10.346.484 13.504-1.128 3.17-1.62 6.105-4.89 7.222-8.05.656-1.857.846-7.695.84-25.848-.007-26.507.126-25.703-4.843-29.38-2.48-1.837-2.966-2.53-2.966-4.23 0-1.2.514-2.546 1.252-3.284 1.164-1.165 2.084-1.25 13.375-1.25 10.793 0 12.28.124 13.53 1.137 1.278 1.035 1.34 1.34.67 3.364-.826 2.506-2.152 3.892-5.168 5.405-4.104 2.057-4.143 2.604-2.343 33.09.957 16.204.53 20.367-2.798 27.352-2.867 6.014-6.422 9.825-11.5 12.327-4.154 2.05-4.21 2.057-14.193 2.15-5.512.053-11.57-.12-13.462-.385zm86.425-.37c-10.84-2.917-20.51-9.797-27.504-19.57-11.115-15.53-7.2-38.59 9.175-54.033 4.91-4.628 11.298-8.143 18.012-9.908 6.578-1.73 17.423-1.857 24.054-.284 5.888 1.398 7.35 1.075 8.963-1.974.902-1.708 1.72-2.42 2.94-2.56 3.868-.447 4.77 1.054 10.164 16.91 4.287 12.6 4.184 14.21-.91 14.226-3.216.01-5.546-1.715-11.137-8.252-6.575-7.687-9.78-9.557-16.378-9.558-3.99 0-5.33.303-8.953 2.02-8.113 3.842-13.613 11.396-15.698 21.56-1.858 9.054-1.02 16.166 2.822 23.97 5.334 10.836 14.722 16.002 26.5 14.584 5.642-.68 8.93-2.286 13.64-6.667 4.73-4.402 5.78-5.028 8.768-5.23 4.352-.292 6.25 3.847 3.602 7.862-2.914 4.42-12.82 11.624-19.878 14.455-8.137 3.263-21.004 4.382-28.184 2.45zm88.04-.006c-6.873-1.795-14.56-6.18-20.22-11.538-9.157-8.668-12.74-15.71-13.362-26.26-1.186-20.13 13.695-40.5 33.394-45.718 6.612-1.75 17.428-1.88 24.054-.288 5.883 1.413 7.35 1.093 8.964-1.96.997-1.887 1.66-2.405 3.272-2.56 3.316-.32 4.527 1.58 8.89 13.957 5.23 14.828 5.25 17.158.157 17.18-3.688.018-6.2-1.98-13.38-10.64-1.625-1.958-4.322-4.263-6.22-5.314-2.88-1.596-4.01-1.858-8.04-1.858-6.108 0-11.43 2.39-16.407 7.367-4.01 4.01-6.212 8.176-7.972 15.088-2.267 8.904-1.467 16.756 2.548 24.99 5.322 10.916 14.696 16.11 26.51 14.688 5.636-.68 8.925-2.287 13.634-6.667 4.75-4.42 5.968-5.14 8.878-5.25 4.29-.16 6.1 3.927 3.492 7.882-2.96 4.49-12.795 11.604-20.153 14.576-7.758 3.133-20.793 4.212-28.04 2.32z"/><path d="M331.135 159.985c0 71.697-58.123 129.82-129.82 129.82-71.698 0-129.82-58.123-129.82-129.82 0-71.698 58.122-129.82 129.82-129.82 71.697 0 129.82 58.122 129.82 129.82z" fill="#ff0"/><path d="M187.046 319.43c-31.148-3.18-58.635-13.976-83.353-32.744-7.447-5.654-21.71-19.686-27.16-26.718-2.137-2.758-4.107-5.296-4.377-5.64-1.4-1.786-7.014-10.393-8.378-12.848-.863-1.55-2.442-4.372-3.51-6.268-3.11-5.515-8.16-17.267-10.772-25.068-8.827-26.36-10.325-58.135-4.03-85.48 6.924-30.08 21.69-56.504 43.822-78.418 41.724-41.313 103.024-56.2 159.447-38.723 25.396 7.866 47.797 21.59 66.56 40.774 4.295 4.393 8.643 9.116 9.66 10.494 1.017 1.38 2.982 3.918 4.365 5.642 3.03 3.774 9.782 14.47 13.342 21.134 20.984 39.282 24.173 88.12 8.502 130.218-6.618 17.78-17.586 36.07-29.876 49.824-5.2 5.822-11.718 12.51-11.718 12.027 0-.184-1.34.938-2.977 2.493-1.637 1.554-3.54 3.322-4.23 3.928-1.958 1.72-12.02 8.988-14.373 10.38-1.165.69-4.338 2.584-7.05 4.21-15.127 9.06-36.724 16.637-55.977 19.638-6.313.984-31.915 1.757-37.917 1.145zm7.208-10.892c.283-1.985.514-2.203 2.43-2.294 3.717-.177 5.536-3.763 3.304-6.52-1.092-1.348-1.736-1.526-5.522-1.526h-4.286l-.18 6.465-.178 6.465 2.06-.198c1.825-.176 2.094-.447 2.372-2.392zm0-6.267c0-.688.406-1.252.903-1.252 1.308 0 1.912 1.3.9 1.94-1.34.85-1.803.674-1.803-.687zm13.182 6.112c.022-2.923.007-2.93 3.136 1.467.79 1.11 1.33 1.273 2.988.91l2.024-.446-1.38-2.454c-.76-1.35-1.61-2.455-1.89-2.455-.282 0 .052-.564.74-1.254 1.754-1.75 1.607-4.126-.33-5.396-1.228-.803-2.51-.964-5.676-.71-2.25.18-4.243.48-4.43.668-.187.187-.138 3.04.11 6.337l.45 5.995h2.118c2.072 0 2.12-.06 2.14-2.663zm-.648-6.424c0-.707.44-.965 1.41-.827.776.11 1.41.483 1.41.828s-.634.717-1.41.827c-.97.138-1.41-.12-1.41-.827zm19.17 6.825c2.638-1.25 3.708-4.376 2.72-7.947-.9-3.26-2.93-4.44-6.976-4.05-4.992.478-7.152 3.994-5.454 8.877 1.38 3.966 5.285 5.22 9.71 3.12zm-4.708-2.722c-.395-.243-.877-1.42-1.07-2.615-.625-3.847 2.815-5.015 4.182-1.42.348.916.475 2.162.283 2.768-.392 1.235-2.297 1.946-3.395 1.268zm-43.556.75c.265-1.658 1.318-3.367 3.564-5.784l3.187-3.43-2.328-.55c-2.103-.498-2.472-.384-3.82 1.184l-1.49 1.735-.96-2.294c-.846-2.027-1.215-2.293-3.175-2.293h-2.218l1.61 3.604c1.22 2.728 1.544 4.322 1.34 6.554-.212 2.325-.057 3.006.733 3.217 2.654.712 3.18.426 3.557-1.94zm57.143.706c1.21-.324 1.39-.745 1.253-2.914-.15-2.374-.032-2.57 1.853-3.07 1.76-.47 1.945-.712 1.47-1.936-.298-.77-.786-1.35-1.084-1.29-.3.06-1.313.302-2.254.538-1.303.327-1.712.202-1.712-.523 0-.623.867-1.1 2.507-1.376 1.87-.316 2.507-.718 2.507-1.585 0-1.877-1.064-2.044-5.728-.9-3.936.963-4.368 1.217-4.062 2.386.188.72.816 3.503 1.396 6.187 1.062 4.916 1.282 5.172 3.853 4.483zm-71.896-8.018c.99-3.077 1.673-5.793 1.523-6.036-.15-.243-1.003-.58-1.894-.752-1.652-.315-1.647-.32-3.15 3.903-.288.804-.402.806-.892.013-.31-.5-.74-1.953-.954-3.228-.316-1.87-.765-2.448-2.326-2.992-1.064-.37-1.997-.603-2.074-.515-.28.32-4.038 11.968-3.886 12.046.085.045.94.418 1.896.83 1.62.696 1.785.63 2.36-.97 1.573-4.364 1.616-4.38 2.446-.92.807 3.362 1.97 4.632 4.005 4.366.858-.112 1.61-1.578 2.946-5.744zm86.054 3.945c2.467-.734 4.667-1.51 4.89-1.723.222-.214.165-1.01-.127-1.77-.52-1.36-.583-1.366-3.45-.39-2.465.84-3.004.86-3.463.13-.412-.655.138-1.083 2.262-1.76 2.823-.898 3.254-1.5 2.232-3.116-.472-.744-.93-.726-3.053.124-2.283.913-3.267.867-3.267-.155 0-.212 1.27-.76 2.82-1.218 2.075-.613 2.82-1.15 2.82-2.037 0-.662-.362-1.343-.805-1.513-.68-.26-8.91 2.335-9.605 3.03-.305.304 3.537 11.733 3.945 11.733.174 0 2.335-.6 4.8-1.335zM147.73 297.68c1.958-1.773 2.935-5.266 2.09-7.473-1.544-4.038-7.963-5.56-10.93-2.593-2.974 2.974-2.744 8.688.42 10.38 3.518 1.884 6.098 1.787 8.42-.315zm-5.995-2.428c-1.137-1.137-.903-3.484.487-4.874 2.228-2.228 4.638.31 3.09 3.252-1.23 2.335-2.355 2.844-3.577 1.622zm119.86 3.625c4.914-2.053 4.51-8.473-.536-8.538l-1.94-.027 1.7-.923c2.988-1.622.257-4.12-3.48-3.182-6.775 1.7-6.152 8.883.73 8.406 1.46-.1 2.502.092 2.43.45-.07.345-1.115.63-2.32.632-3.574.01-4.652 1.208-2.777 3.083 1.222 1.22 3.42 1.256 6.193.097zm-5.296-8.446c0-.783 1.768-1.38 2.17-.73.18.292-.116.703-.66.91-1.313.505-1.51.482-1.51-.18zm14.31 3.795l1.46-1.125-2.698-5.442c-1.484-2.993-2.996-5.442-3.36-5.442-.363 0-1.296.445-2.072.99l-1.412.988 2.987 5.592c1.644 3.075 3.133 5.585 3.31 5.577.177-.008.98-.52 1.784-1.138zM135.66 289.1c1.55-2.87 2.816-5.41 2.816-5.638 0-.717-3.3-1.96-3.805-1.432-.66.688-5.575 9.794-5.586 10.35-.01.458 3.304 2.392 3.6 2.102.088-.088 1.428-2.51 2.977-5.38zm-5.96-2.967c1.712-2.67 3.118-5.164 3.124-5.54.01-.61-3.113-2.45-3.4-2.004-.064.098-.694 1.122-1.4 2.275l-1.28 2.095-.422-3.724c-.35-3.09-.684-3.864-1.967-4.55-.85-.456-1.634-.71-1.744-.566-1.203 1.59-6.752 10.748-6.594 10.882.116.098.898.536 1.736.973 1.603.836 2.048.53 4.236-2.9.63-.988.752-.61.783 2.396.032 2.954.278 3.737 1.43 4.545.767.536 1.617.975 1.89.975.272 0 1.896-2.185 3.61-4.857zm150.462 2.806c4.42-2.98 4.73-6.458.918-10.27-2.326-2.327-4.342-2.65-7.226-1.158-3.62 1.872-4.725 5.42-2.83 9.084 2.004 3.877 5.523 4.78 9.138 2.343zm-4.556-3.433c-1.522-1.773-1.773-3.187-.748-4.213 1.445-1.444 2.612-1.16 3.673.89 1.223 2.363 1.212 3.56-.034 4.04-1.49.57-1.862.48-2.89-.717zm-62.46 1.086c26.96-2.65 50.587-12.71 71.154-30.3 31.218-26.703 47.48-67.442 43.443-108.82-5.005-51.276-41.45-95.174-90.764-109.326-38.125-10.94-79.094-3.748-110.784 19.448-28.074 20.55-46.95 52.802-50.976 87.103-.894 7.608-.925 23.688-.06 30.663 3.706 29.904 17.22 56.45 39.51 77.61 25.86 24.55 62.72 37.135 98.476 33.623zm77.622-4.822c0-.165-.517-1.05-1.15-1.964-2.24-3.24-2.2-3.308 1.2-2.015 3.312 1.26 3.78 1.222 5.727-.448 1-.858.866-1.19-1.88-4.65-1.626-2.048-3.43-4.332-4.005-5.074-1.03-1.325-1.074-1.328-2.35-.173-1.643 1.486-1.634 2.117.058 3.918 1.833 1.95 1.252 2.282-1.994 1.137-2.846-1.005-4.418-.836-5.61.602-.72.867-.21 1.72 5.355 8.956 1.514 1.968 1.615 2.002 3.106 1.024.848-.555 1.542-1.145 1.542-1.31zm-172.017-5.216l2.81-3.65-1.813-1.29-1.812-1.29-2.674 3.466c-2.685 3.48-4.446 4.19-4.874 1.964-.12-.616.925-2.632 2.32-4.48l2.536-3.358-1.522-.997c-.837-.55-1.744-.99-2.014-.98-.27.01-1.69 1.6-3.156 3.534-3.247 4.286-3.495 6.698-.94 9.142 4.033 3.857 7.01 3.306 11.14-2.062zm181.803-2.552c.773-.726 1.25-1.723 1.062-2.217-.53-1.38 1.71-3.487 3.286-3.09.91.227 1.802-.155 2.77-1.185l1.427-1.52-6.04-3c-4.71-2.34-6.273-2.857-7.087-2.344-2.34 1.477-2.327 2.404.137 8.63 1.316 3.325 2.54 6.046 2.717 6.046.178 0 .957-.594 1.73-1.32zm-1.6-7.386c-.756-1.41-.31-1.672 1.21-.71.705.444.758.768.216 1.31-.544.543-.896.394-1.428-.6zm-200.384 1.928l1.69-1.765-1.518-1.426-1.517-1.425-1.295 1.294c-.76.76-1.137 1.71-.912 2.297.28.73.067.947-.775.8-.708-.126-1.246.222-1.384.892-.396 1.922 3.684 1.445 5.71-.668zm-1.75-8.307c2.865-5.702 3.072-7.203 1.207-8.75-.738-.614-2.144-.303-7.183 1.588-3.446 1.292-6.266 2.508-6.266 2.7 0 .932 2.748 3.12 3.537 2.818 1.42-.544 3.487 1.712 3.074 3.355-.243.965.08 1.813 1.022 2.69.757.707 1.462 1.284 1.565 1.284.104 0 1.474-2.558 3.044-5.685zm-4.41-3.094c-.215-.347.12-.813.746-1.037.625-.223 1.37-.532 1.653-.687.283-.157.144.31-.31 1.035-.906 1.453-1.498 1.647-2.09.688zm220.907 4.235c3.417-3.588 3.747-4.492 1.985-5.435-.928-.496-1.52-.25-2.938 1.23-.976 1.02-1.934 1.854-2.128 1.852-.194 0-1.75-1.27-3.46-2.82-1.71-1.55-3.324-2.818-3.59-2.818-.264 0-.953.72-1.53 1.6-1.045 1.596-1.043 1.6 3.277 5.61 2.378 2.206 4.532 4.025 4.786 4.04.254.018 1.873-1.45 3.597-3.26zm6.907-8.647c0-.283-2.15-2.272-4.777-4.42l-4.777-3.902-1.163 1.513c-.64.833-1.17 1.704-1.177 1.938-.008.233 2.172 2.134 4.843 4.223 4.855 3.798 4.858 3.8 5.954 2.484.603-.723 1.097-1.548 1.097-1.833zm-233.265-.287c.102-.088 0-.9-.226-1.802-.293-1.166-.822-1.64-1.834-1.64-.782 0-1.78-.43-2.217-.958-.66-.796-.544-1.227.686-2.536 1.99-2.12 4.697-1.907 4.562.36-.118 2.002 2.734 4.426 3.6 3.06 1.49-2.352-.517-7.452-3.457-8.79-3.45-1.573-8.6 1.224-9.458 5.137-.518 2.357 1.788 6.6 4.03 7.415 1.358.493 3.604.366 4.312-.245zm237.91-5.37c2.154-2.562 2.66-4.8 1.54-6.803-1.28-2.296-4.192-2.466-6.66-.39-2.134 1.796-3.987 2.26-2.665.666.426-.513 1.012-.786 1.302-.606.728.45 2.668-2.637 2.167-3.447-.698-1.13-3.19-.713-4.53.756-2.812 3.087-3.365 5.583-1.657 7.47 1.436 1.587 3.54 1.433 5.743-.42 2.176-1.83 3.427-2.02 3.128-.47-.116.605-.768 1.097-1.456 1.097-1.3 0-3.597 2.682-3.052 3.564.173.28 1.26.51 2.415.51 1.577 0 2.506-.48 3.724-1.928zm-244.817-7.317c2.603-1.637 4.998-3.153 5.322-3.368.952-.633-1.46-3.803-2.57-3.377-.528.204-3.015 1.67-5.526 3.262l-4.567 2.893 1.054 1.784c.58.98 1.166 1.783 1.304 1.783.138 0 2.38-1.34 4.983-2.977zm251.344-3.543c-.113-.078-1.192-.78-2.4-1.56l-2.192-1.42 1.88.392c1.034.217 2.356.535 2.938.707.66.196 1.332-.197 1.784-1.04.64-1.198.408-1.685-1.998-4.18l-2.725-2.822 2.65 1.64c1.46.904 3.05 1.642 3.537 1.642.818 0 1.647-1.262 1.647-2.507 0-.553-10.613-6.54-10.935-6.168-.104.118-.67 1.164-1.262 2.326l-1.074 2.11 2.385 2.445 2.387 2.444-3.116-.945c-1.713-.52-3.158-.948-3.21-.952-.517-.037-2.666 4.68-2.29 5.023.278.252 2.753 1.76 5.502 3.353l4.997 2.896.85-1.62c.466-.892.755-1.685.642-1.763zM73.98 232.09c1.865-1.028 3.557-1.874 3.76-1.88.204-.006.696.704 1.094 1.58.64 1.404.89 1.504 2.138.854.777-.404 1.512-.82 1.634-.924.496-.422-5.223-10.295-5.963-10.295-.44 0-.65-.39-.467-.867.314-.82-2.452-8.274-3.47-9.348-.26-.276-3.017.664-6.127 2.088l-5.654 2.59 2.034 4.805c1.62 3.826 2.274 4.763 3.21 4.596 1.975-.352 2.1-.94.81-3.818-.977-2.186-1.07-2.88-.438-3.282.56-.357 1.14.242 1.922 1.99 1.902 4.242 4.508 2.8 2.71-1.502-.784-1.878-.8-2.267-.087-2.267.473 0 1.192 1.008 1.598 2.238.406 1.23 1.14 2.392 1.63 2.58.618.237.7.576.27 1.096-.426.513-.335 1.168.285 2.053 1.06 1.515.97 1.616-3.872 4.292-3.228 1.782-3.236 1.794-2.334 3.54.498.96 1.135 1.75 1.416 1.75.28 0 2.036-.842 3.9-1.87zm264.08-9.803c1.208-.463 3.472-4.67 3.472-6.448 0-5.096-7.786-8.544-11.093-4.913-1.732 1.9-2.695 3.868-2.695 5.503 0 1.828 1.797 4.755 3.397 5.53 1.488.723 5.407.908 6.92.327zm-4.832-4.354c-2.03-1.102-2.254-3.074-.458-4.035.98-.525 1.687-.43 3.134.426 1.964 1.16 2.377 2.58 1.116 3.842-.963.962-1.667.92-3.792-.233zm11.667-70.618c.486-.775 1.076-2.504 1.31-3.842.32-1.808.61-2.25 1.137-1.723.527.527.515.9-.044 1.46-.877.878-1.01 4.03-.19 4.535.308.19 1.22-.187 2.027-.84 1.132-.917 1.452-1.77 1.4-3.744-.097-3.69-1.618-5.716-4.295-5.716-2.394 0-3.035.784-3.713 4.544-.42 2.33-1.165 2.97-1.96 1.684-.226-.366.053-1.18.62-1.806 1.18-1.304.744-4.422-.618-4.422-3.398 0-4.464 7.11-1.51 10.063 1.692 1.692 4.716 1.593 5.835-.192zM64.677 139.48c2.702-3.038 2.45-8.74-.447-10.06-1.552-.707-9.12-2.226-9.398-1.886-.088.108-.348.978-.577 1.934-.47 1.954-.505 1.93 4.73 2.96 3.612.708 4.914 1.937 3.657 3.45-.517.624-1.483.626-4.76.01-4.087-.768-4.115-.764-4.69.746-.866 2.28-.733 2.632 1.147 3.046.947.21 2.004.475 2.35.59.344.115 2.063.23 3.82.258 2.297.036 3.466-.258 4.167-1.047zm274.69-6.11c-.35-2.798-.26-3.446.482-3.446.604 0 1.058.966 1.34 2.85.385 2.564.564 2.806 1.795 2.428 1.852-.57 1.796-.406 1.142-3.32-.32-1.425-.35-2.736-.065-2.912.73-.452 1.123.372 1.6 3.364.415 2.587 1.05 3.075 2.67 2.048.706-.447.68-1.34-.156-5.384-.552-2.667-1.003-4.927-1.003-5.022 0-.2-12.106 2.288-12.44 2.554-.12.096.274 2.45.875 5.23 1.007 4.666 1.212 5.058 2.64 5.058 1.512 0 1.538-.083 1.118-3.447zm-270.818-8.26c.367-1.203.06-1.47-2.59-2.246l-3.004-.88 3.412-1.046c3.613-1.108 4.397-1.805 4.413-3.922.01-1.104-.766-1.535-4.847-2.698-2.67-.762-5.32-1.52-5.885-1.684-.713-.207-1.23.28-1.686 1.588-.732 2.1-.644 2.21 2.244 2.83 2.8.6 2.552 1.284-.808 2.225-2.757.772-4.05 2.042-4.05 3.98 0 .607 1.273 1.292 3.605 1.942 1.982.552 4.59 1.367 5.797 1.812 2.32.854 2.606.694 3.4-1.9zm267.98-.206c1.103-.59 1.12-.806.265-3.23-.504-1.43-.843-2.66-.753-2.732.09-.072 1.996-.678 4.237-1.347 3.826-1.142 4.065-1.323 3.944-2.98-.07-.97-.282-1.918-.47-2.106-.365-.367-12.25 2.986-12.25 3.454 0 1.297 2.83 9.573 3.272 9.573.315 0 1.104-.285 1.754-.633zm.206-14.25c2.466-2.326 4.568-4.267 4.67-4.314.105-.047-.19-1.02-.657-2.16l-.848-2.075-6.55.175c-3.6.096-6.656.283-6.788.415-.133.132.105 1.076.528 2.098.482 1.162 1.094 1.734 1.637 1.525 1.336-.513 2.594 2.694 1.65 4.207-.566.903-.57 1.57-.022 2.774.397.87.986 1.583 1.31 1.583.322 0 2.603-1.903 5.068-4.23zm-3.35-3.92c0-.343.44-.625.976-.625.538 0 .803.28.59.625-.213.345-.653.627-.977.627-.325 0-.59-.282-.59-.627zm-260.738 5.683c.357-.667.648-1.583.647-2.037 0-.968-11.29-5.144-11.98-4.433-.255.26-.632 1.18-.838 2.042-.353 1.472-.065 1.683 4.812 3.523 6.332 2.39 6.55 2.417 7.358.904zm4.095-9.854c.81-1.927.79-1.962-4.04-6.763l-4.855-4.827-.84 2.028c-.832 2.01-.813 2.052 2.255 4.762l3.094 2.734-3.447-.378c-1.896-.208-3.76-.47-4.14-.586-.38-.115-1.143.735-1.694 1.89l-1 2.097 3.26.36c3.535.39 9.204.773 10.06.68.293-.033.9-.93 1.347-1.997zm255.1-3.986l5.323-2.518-.966-1.87c-.532-1.028-1.107-1.87-1.277-1.87-.94 0-10.94 5.265-10.94 5.76 0 1.017 1.27 3.015 1.916 3.015.34 0 3.013-1.133 5.942-2.518zM82.787 90.99c2.538-4.274 2.602-4.504 1.475-5.328-1.65-1.206-1.695-1.18-3.455 1.932-1.12 1.98-1.818 2.64-2.41 2.274-.66-.407-.493-1.055.788-3.085 1.57-2.488 1.584-2.59.415-3.217-1.698-.91-1.683-.917-3.23 1.835-.767 1.366-1.642 2.33-1.945 2.143-.302-.187.147-1.586.998-3.11 1.483-2.653 1.5-2.795.38-3.394-.644-.345-1.317-.627-1.497-.627-.686 0-5.64 9.007-5.063 9.206.334.114 2.722 1.47 5.308 3.015 2.586 1.543 4.9 2.808 5.143 2.812.243.004 1.636-2.002 3.095-4.458zM326.06 94.47c1.478-.566.358-3.605-1.49-4.04-2.138-.506-2.08-3.08.1-4.302 2.2-1.236 3.7-.55 3.7 1.687 0 2.24 1.916 4.218 3.018 3.116.41-.408.744-1.843.744-3.187 0-1.944-.436-2.88-2.13-4.575-2.365-2.364-4.366-2.692-7.264-1.194-2.5 1.293-3.767 3.316-3.767 6.013 0 3.96 4.04 7.654 7.09 6.482zm-7.326-11.71c1.03-2.33 1.44-2.675 3.3-2.764 3.896-.187 4.193-2.733.92-7.892-1.258-1.98-2.554-3.6-2.883-3.6-.327 0-2.827 1.573-5.556 3.495l-4.96 3.497 1.304 1.83 1.303 1.832 2.265-1.724c2.47-1.88 2.518-1.698.725 2.757-.68 1.692-.64 2.207.275 3.604.587.896 1.307 1.63 1.6 1.63.293 0 1.062-1.2 1.71-2.664zm.863-7.05c-.55-.66-.615-1.2-.197-1.62.418-.417.9-.295 1.45.367.55.662.616 1.2.198 1.62-.418.417-.9.295-1.45-.367zm-232.405 8.05c1.555-1.406 1.44-2.385-.42-3.605-2.395-1.57-1.89-2.23 1.41-1.846 2.794.326 3.043.234 4.057-1.507 1.333-2.29.997-2.657-2.44-2.657-2.12 0-2.715-.23-2.715-1.047 0-1.676-1.924-3.34-3.86-3.34-1.46 0-2.298.7-4.617 3.85-1.56 2.116-2.757 3.924-2.662 4.015.56.544 9.62 7.13 9.836 7.15.145.014.78-.442 1.41-1.012zm-6.017-7.665c-.41-.662 1.387-2.296 1.93-1.754.52.522-.234 2.31-.977 2.31-.335 0-.764-.25-.953-.556zm228.657-2.33c1.445-.556 1.228-1.556-.9-4.135-2.498-3.032-1.237-3.855 1.638-1.068 1.978 1.916 2.224 2 3.16 1.063.937-.936.866-1.176-.906-3.072-2.705-2.895-1.73-3.665 1.118-.884 2.174 2.124 2.424 2.217 3.374 1.268.95-.95.783-1.3-2.246-4.743-1.8-2.044-3.52-3.717-3.82-3.717-.815 0-9.11 7.104-9.15 7.834-.03.566 6.03 7.834 6.53 7.834.116 0 .657-.17 1.202-.38zM96.35 71.913c1.64-1.148 3.27-4.07 3.27-5.86 0-1.603-2.347-3.816-4.047-3.816-.717 0-2.356.716-3.642 1.59-1.83 1.244-2.338 1.38-2.338.626 0-.53.47-.962 1.047-.962 1.26 0 3.34-1.77 3.34-2.844 0-1.08-2.37-1.58-3.993-.84-1.87.852-4.155 4.353-4.155 6.364 0 2.95 4.03 3.947 6.893 1.707 1.848-1.446 3.134-1.602 3.134-.382 0 .93-1.673 1.837-2.473 1.342-.264-.163-1.147.415-1.964 1.285-1.253 1.334-1.34 1.67-.56 2.164 1.404.888 3.93.715 5.487-.376zm6.325-12.74c-1.396-1.59-3.462-3.654-4.592-4.588l-2.052-1.698-1.308 1.393-1.31 1.394 4.455 4.553 4.455 4.553 1.445-1.358 1.446-1.358zm202.737 1.04c3.898-4.312 4.043-4.584 3.036-5.697-1.973-2.18-3.162-2.462-5.005-1.186-3.17 2.195-3.317 2.136-1.903-.773l1.4-2.88-1.87-1.868-1.87-1.87-4.59 4.62-4.59 4.623 1.437 1.338 1.437 1.34 2.173-2.04 2.174-2.042-1.416 2.366c-2.504 4.18-.308 6.01 3.89 3.24 2.635-1.737 2.52-1.062-.303 1.776-.92.926-.977 1.326-.337 2.35.424.68 1.103 1.235 1.508 1.235.407 0 2.58-2.038 4.832-4.53zm-194.726-3.172c2.406-2.273 2.847-3.058 2.847-5.07 0-4.06-4.642-7.917-7.993-6.642-1.972.75-6.547 4.368-6.547 5.177 0 .588 5.99 7.858 7.203 8.745 1.084.79 1.564.555 4.49-2.21zm-4.394-4.21c-1.796-2.133-2.006-2.84-1.026-3.445 1.07-.662 2.884.26 3.77 1.913.722 1.35.704 1.713-.122 2.54-.868.867-1.13.766-2.622-1.008zm12.346-3.465c-.532-1.386 2.277-3.442 3.586-2.624.772.482 1.45.343 2.67-.547.9-.656 1.642-1.333 1.652-1.506.01-.172-2.526-1.95-5.632-3.952l-5.65-3.638-1.89 1.348c-1.32.94-1.785 1.69-1.533 2.484.2.625.924 3.207 1.61 5.738 1.847 6.796 1.58 6.437 3.687 4.936 1.136-.81 1.718-1.676 1.5-2.24zm-2.097-5.597c0-.56.368-.78.94-.56.518.2.94.613.94.92 0 .308-.422.56-.94.56-.516 0-.94-.414-.94-.92zm175.16 7.082c.95-.747 2.12-2.298 2.6-3.447 1.71-4.096-1.832-8.64-6.737-8.64-2.787 0-5.188 1.932-6.196 4.987-1.93 5.847 5.466 10.93 10.333 7.1zm-5.82-3.153c-1.142-1.143-.912-2.28.81-4.003 1.28-1.28 1.79-1.44 2.82-.89 1.67.894 1.592 2.605-.192 4.28-1.652 1.553-2.37 1.68-3.438.612zm-6.925-4l1.913-.988-1.404-1.493c-1.012-1.08-1.69-1.342-2.43-.946-1.327.71-3.187-.32-3.187-1.764 0-1.377 2.24-3.847 3.487-3.847.512 0 1.184.666 1.494 1.48.558 1.47 1.815 2.28 3.53 2.28 1.778 0 .975-3.218-1.348-5.41-4.055-3.823-9.095-2.324-10.936 3.254-.894 2.708.113 4.99 3.082 6.99 2.522 1.698 3.266 1.754 5.8.444zM131.26 42.028c3.965-2.595 4.713-4.507 3.136-8.004-1.366-3.03-3.044-4.374-5.46-4.374-1.933 0-7.99 3.09-7.988 4.073.006 1.223 5.676 10.34 6.432 10.34.423 0 2.17-.916 3.88-2.036zm-3.62-4.996c-.87-1.472-1.45-2.89-1.29-3.15.62-1 2.627-.4 3.593 1.074 1.24 1.893 1.284 3.09.145 4.035-.694.576-1.18.186-2.448-1.96zm21.175-3.793c3.022-1.526 4.03-2.743 4.055-4.905.052-4.22-2.787-7.693-6.208-7.595-1.678.05-7.56 2.344-7.56 2.95 0 .192 1.037 2.885 2.305 5.983 2.554 6.247 2.322 6.135 7.408 3.567zm-3.44-5.61c-.848-1.897-.983-2.775-.472-3.09 1.798-1.112 4.285 2.424 3.374 4.797-.63 1.642-1.678 1.026-2.9-1.707zm117.19 6.41c1.946-1.946 1.573-3.955-1.198-6.458-2.364-2.136-2.767-3.225-.933-2.52.483.184.88.736.88 1.225 0 .488.722 1.163 1.606 1.5 2.185.83 2.153.85 2.153-1.224 0-3.517-6.233-6.418-8.8-4.096-1.945 1.762-1.563 4.254.998 6.502 1.224 1.075 2.054 2.232 1.844 2.572-.65 1.053-1.46.688-2.31-1.043-1.035-2.102-3.52-3.14-4.07-1.7-.68 1.767.682 4.263 2.945 5.397 2.88 1.443 5.342 1.388 6.886-.156zm-11.498-6.738c-.22-2.328-.402-5.244-.404-6.48-.006-1.8-.323-2.396-1.6-2.978-.88-.4-1.936-.71-2.35-.69-.687.032-8.59 9.385-8.59 10.163 0 .182.83.62 1.843.973 1.404.49 2.008.44 2.545-.206.997-1.2 4.388.024 4.388 1.582 0 1.12.99 1.646 3.38 1.792 1.093.067 1.156-.267.79-4.157zm-5.295-2.573c-.65-.412-.618-.678.156-1.32.824-.684.97-.605.97.525 0 1.5-.008 1.504-1.126.795zm-84.653 4.197c4.796-1.315 5.367-1.8 4.568-3.88-.318-.83-.718-.84-3.24-.08-1.583.477-3.112.722-3.397.545-1.127-.698-.393-1.374 2.316-2.132 2.46-.69 2.782-.97 2.43-2.12-.54-1.76-.364-1.696-2.796-1-2.65.76-3.723.78-3.723.072 0-.3 1.27-.9 2.82-1.335 2.014-.564 2.82-1.114 2.82-1.925 0-1.885-1.044-1.973-5.795-.488-2.5.78-4.63 1.472-4.737 1.534-.257.152 3.26 12.158 3.564 12.16.13 0 2.456-.61 5.17-1.352zm77.343-7.523c.818-3.213 1.288-6.037 1.044-6.273-.244-.237-1.18-.612-2.078-.834-1.598-.394-1.667-.28-2.978 4.947-.738 2.942-1.342 5.76-1.342 6.26 0 .79 3.08 2.407 3.656 1.922.116-.097.88-2.806 1.697-6.02zM182.77 23.15c.75-.733 1.455-1.897 1.566-2.586.162-1-.193-1.292-1.75-1.444-1.535-.15-2.03.087-2.293 1.097-.475 1.818-2.813 1.67-3.68-.234-1.407-3.086.887-6.207 3.006-4.09.696.698 3.98-.406 3.98-1.337 0-.785-3.22-3.08-4.315-3.075-.557.004-2.083.3-3.39.664-4.267 1.184-5.457 6.8-2.294 10.82 2.014 2.56 6.646 2.653 9.17.186zm47.715.836c1.764-1.643 1.73-2.346-.157-3.206-1.23-.56-1.728-.496-2.55.327-1.222 1.22-1.693 1.27-2.69.27-1.178-1.177-.882-3.948.56-5.254 1.295-1.17 1.332-1.167 2.452.217 1.443 1.782 4.384 1.93 4.384.22 0-3.48-6.268-5.832-9.646-3.618-1.92 1.257-3.137 4.85-2.604 7.692.764 4.072 7.214 6.18 10.25 3.352zm-12.2-7.026l.377-6.11h-2.177c-2.176 0-2.176 0-2.197 2.976l-.02 2.977-2.012-3.29c-1.762-2.884-2.26-3.29-4.052-3.29-1.726 0-2.043.23-2.043 1.473 0 .81-.178 3.592-.397 6.184l-.398 4.71 1.98.292c2.086.305 2.276.032 2.715-3.885.16-1.424.332-1.3 1.9 1.37 1.283 2.18 2.168 2.99 3.448 3.153.946.12 1.896.068 2.11-.115.215-.184.56-3.084.767-6.445zm-27.707 6.13c.306-.305-.55-10.788-.977-11.984-.138-.388-1.107-.556-2.24-.39l-1.997.293.45 5.09c.383 4.32.63 6.334.872 7.128.088.286 3.594.162 3.893-.136zm13.59-2.056c.187-1.318-.028-1.41-3.29-1.41-2.685 0-3.49-.217-3.49-.94 0-.697.73-.94 2.82-.94 2.59 0 2.82-.128 2.82-1.567 0-1.44-.23-1.567-2.82-1.567-1.552 0-2.82-.282-2.82-.627 0-.344 1.428-.626 3.175-.626 3.03 0 3.166-.07 2.976-1.586-.11-.872-.41-1.577-.67-1.567-.257.012-2.584.02-5.17.02H193v12.584l5.484-.18c5.146-.17 5.496-.27 5.684-1.592z" fill="#fe0000" stroke="#000" stroke-width=".627"/><path d="M192.36 261.613c0-.48 1.164-1.42 2.587-2.09l2.588-1.216-3.372-1.903c-5.783-3.264-9.93-8.844-9.947-13.383-.008-2.043 3.305-7.264 5.942-9.366 1.514-1.206 2.77-2.346 2.79-2.533.02-.186-1.583-1.128-3.565-2.093-1.982-.965-6.53-3.49-10.11-5.614-7.48-4.438-11.665-8.613-12.768-12.734-.906-3.39-1.01-3.396-11.915-.578-17.15 4.43-31.064 4.565-51.224.492-4.286-.866-5.293-1.28-5.154-2.12.15-.902 12.857-42.95 18.386-60.837l1.89-6.11h2.706c2.143 0 2.773-.25 3.022-1.204.265-1.01.716-1.15 2.827-.866 2.417.324 2.53.26 2.955-1.675.425-1.936.546-2.004 3.17-1.795 2.376.19 2.774.04 3.073-1.155.332-1.32.56-1.357 5.984-1.006 5.248.34 5.64.283 5.64-.824 0-2.033 3.44-8.544 6.467-12.247 3.452-4.22 11.205-10.59 15.69-12.89 2.796-1.435 3.948-1.647 8.662-1.595 3.91.043 6.207.4 8.18 1.273 3.45 1.526 7.378 4.934 7.378 6.4 0 .614-1.116 2.124-2.48 3.357-5.035 4.548-14.446 5.43-20.442 1.918l-2.855-1.674-2.205 2.12c-2.394 2.302-8.994 11.843-8.994 13.002 0 1.002.352.944 7.287-1.2 13.398-4.143 23.11-5.01 29.847-2.668L198 130.05v-13.58c0-13.46-.013-13.594-1.478-14.97-3.296-3.097-7.453-3.03-13.826.223-4.297 2.193-6.472 2.053-9.594-.62-1.41-1.206-3.037-2.193-3.617-2.193-.58 0-2.178.962-3.552 2.137-1.373 1.176-3.194 2.313-4.047 2.527-2.207.554-4.83-.913-5.562-3.113-.625-1.875-.634-1.877-3.114-1.06-3.534 1.166-5.61.8-5.87-1.034-.197-1.39-.398-1.46-3.208-1.086-2.38.316-3.29.16-4.412-.747-1.36-1.1-1.375-1.22-.396-3.113 1.402-2.71 1.327-2.855-1.228-2.376-1.235.232-3.085.237-4.11.012-1.678-.37-1.825-.592-1.465-2.232.39-1.77.33-1.822-2.044-1.822-5.126 0-11.793-3.667-11.302-6.217.152-.79 1.842-1.124 8.642-1.704 4.65-.395 9.722-1.192 11.273-1.77 1.55-.578 6.908-2.135 11.907-3.46 4.998-1.325 12.795-3.984 17.328-5.91 4.532-1.924 9.077-3.5 10.1-3.5 2.78 0 4.715 1.92 7.68 7.616 2.875 5.528 6.177 9.532 9.43 11.435l2.033 1.19-.404-2.442c-.222-1.344-.406-3.924-.41-5.733-.007-3.237-.038-3.29-1.887-3.29-1.86 0-1.88-.036-1.88-3.448s.018-3.447 1.88-3.447c1.776 0 1.88-.14 1.88-2.507 0-1.81.26-2.506.94-2.506.627 0 .94-.627.94-1.88 0-1.84.07-1.88 3.134-1.88 3.065 0 3.134.04 3.134 1.88 0 1.462.28 1.88 1.254 1.88 1.044 0 1.253.417 1.253 2.506 0 2.454.048 2.507 2.226 2.507h2.225l-.187 3.604-.188 3.604-2.26.19-2.26.188-.393 5.096c-.216 2.803-.292 5.198-.17 5.32.696.696 7.795-7.024 10.445-11.356 4.884-7.983 5.69-8.816 8.512-8.78 2.292.03 3.74.57 9.098 3.39 3.903 2.054 26.7 8.816 34.01 10.087 3.818.664 8.996 1.256 11.506 1.316 5.784.137 6.61.94 3.78 3.675-2.793 2.7-5.424 3.72-9.59 3.72-3.435 0-3.473.02-3.068 1.634.53 2.11-.463 2.73-4.385 2.743l-3.058.01.345 2.125c.542 3.343-.838 4.768-4.62 4.768-2.744 0-3.183.185-3.71 1.566-.7 1.843-2.638 2.052-6 .648-2.008-.84-2.234-.826-2.582.156-1.338 3.78-4.96 4.3-9.688 1.39-1.68-1.034-3.21-1.88-3.4-1.88-.192 0-1.327.747-2.525 1.66-1.405 1.072-3.226 1.762-5.13 1.943-2.496.236-3.624-.075-7.337-2.026-5.592-2.938-8.108-2.79-11.674.694l-2.426 2.37v26.003l2.29-.956c7.244-3.026 17.457-2.078 34.28 3.182 2.846.89 3.013.88 2.633-.135-.966-2.58-4.664-8.052-7.654-11.33-3.087-3.382-3.3-3.502-4.7-2.644-5.084 3.116-8.54 3.73-14.47 2.574-5.123-.998-9.804-4.375-9.852-7.106-.026-1.545 2.764-3.965 6.785-5.885 4.67-2.23 12.82-2.337 17.01-.224 9.75 4.914 20.866 17.08 22.34 24.448l.414 2.073 6.17-.34c5.772-.318 6.173-.263 6.173.854 0 1 .465 1.195 2.852 1.195 2.63 0 2.907.153 3.533 1.952.634 1.818.844 1.93 3.08 1.63 1.97-.265 2.465-.11 2.775.868.293.92.975 1.19 3.005 1.19h2.627l9.973 32.747c5.484 18.01 10.088 33.33 10.23 34.043.238 1.198-.325 1.4-7.47 2.678-20.82 3.724-31.387 3.55-48.297-.796-11.235-2.887-12.496-2.982-13.033-.986-.866 3.222-3.15 6.818-5.826 9.174-2.545 2.24-13.2 8.637-18.755 11.26-1.293.61-2.35 1.284-2.35 1.498 0 .215 1.108 1.22 2.462 2.235 3.075 2.302 5.47 5.918 6 9.063.786 4.65-2.855 10.082-9.116 13.598-3.478 1.954-3.744 2.473-1.67 3.26 1.73.66 3.3 2.42 2.693 3.025-.24.24-2.22-.202-4.396-.983l-3.96-1.42-3.37 1.28c-3.97 1.51-4.937 1.59-4.937.412zm15.265-11.648c2.707-2.996 2.927-5.168.813-8.032-1.955-2.65-4.794-4.884-4.806-3.78-.054 3.675-.357 10.508-.42 14.576 0 .626-.825.98-2.078.98h-1.88v-8.462c0-4.653-.174-8.46-.388-8.46-.683 0-4.902 3.906-6.032 5.584-2.136 3.173-1.514 4.97 3.33 9.625l4.428 4.257 2.375-1.88c1.307-1.036 3.403-3.02 4.658-4.41zm-8.998-29.694v-5.236l-5.484-2.543c-5.634-2.613-11.916-4.53-14.84-4.53-1.484 0-1.583.134-.955 1.307 1.173 2.19 5.066 6.206 8.05 8.302 2.302 1.616 12.495 7.78 13.072 7.903.087.018.157-2.323.157-5.202zm9.732 2.248c8.272-4.492 18.536-13.894 15.766-14.442-1.774-.352-10.692 2.396-15.49 4.77l-4.682 2.32-.184 4.918c-.1 2.705.04 4.82.315 4.7.275-.12 2.198-1.14 4.274-2.266z" fill="#fff"/><path d="M192.36 261.613c0-.48 1.164-1.42 2.587-2.09l2.588-1.216-3.372-1.903c-5.783-3.264-9.93-8.844-9.947-13.383-.008-2.043 3.305-7.264 5.942-9.366 1.514-1.206 2.77-2.346 2.79-2.533.02-.186-1.583-1.128-3.565-2.093-1.982-.965-6.53-3.49-10.11-5.614-7.48-4.438-11.665-8.613-12.768-12.734-.906-3.39-1.01-3.396-11.915-.578-17.15 4.43-31.064 4.565-51.224.492-4.286-.866-5.293-1.28-5.154-2.12.15-.902 12.857-42.95 18.386-60.837l1.89-6.11h2.706c2.143 0 2.773-.25 3.022-1.204.265-1.01.716-1.15 2.827-.866 2.417.324 2.53.26 2.955-1.675.425-1.936.546-2.004 3.17-1.795 2.376.19 2.774.04 3.073-1.155.332-1.32.56-1.357 5.984-1.006 5.248.34 5.64.283 5.64-.824 0-2.033 3.44-8.544 6.467-12.247 3.452-4.22 11.205-10.59 15.69-12.89 2.796-1.435 3.948-1.647 8.662-1.595 3.91.043 6.207.4 8.18 1.273 3.45 1.526 7.378 4.934 7.378 6.4 0 .614-1.116 2.124-2.48 3.357-5.035 4.548-14.446 5.43-20.442 1.918l-2.855-1.674-2.205 2.12c-2.394 2.302-8.994 11.843-8.994 13.002 0 1.002.352.944 7.287-1.2 13.398-4.143 23.11-5.01 29.847-2.668L198 130.05v-13.58c0-13.46-.013-13.594-1.478-14.97-3.296-3.097-7.453-3.03-13.826.223-4.297 2.193-6.472 2.053-9.594-.62-1.41-1.206-3.037-2.193-3.617-2.193-.58 0-2.178.962-3.552 2.137-1.373 1.176-3.194 2.313-4.047 2.527-2.207.554-4.83-.913-5.562-3.113-.625-1.875-.634-1.877-3.114-1.06-3.534 1.166-5.61.8-5.87-1.034-.197-1.39-.398-1.46-3.208-1.086-2.38.316-3.29.16-4.412-.747-1.36-1.1-1.375-1.22-.396-3.113 1.402-2.71 1.327-2.855-1.228-2.376-1.235.232-3.085.237-4.11.012-1.678-.37-1.825-.592-1.465-2.232.39-1.77.33-1.822-2.044-1.822-5.126 0-11.793-3.667-11.302-6.217.152-.79 1.842-1.124 8.642-1.704 4.65-.395 9.722-1.192 11.273-1.77 1.55-.578 6.908-2.135 11.907-3.46 4.998-1.325 12.795-3.984 17.328-5.91 4.532-1.924 9.077-3.5 10.1-3.5 2.78 0 4.715 1.92 7.68 7.616 2.875 5.528 6.177 9.532 9.43 11.435l2.033 1.19-.404-2.442c-.222-1.344-.406-3.924-.41-5.733-.007-3.237-.038-3.29-1.887-3.29-1.86 0-1.88-.036-1.88-3.448s.018-3.447 1.88-3.447c1.776 0 1.88-.14 1.88-2.507 0-1.81.26-2.506.94-2.506.627 0 .94-.627.94-1.88 0-1.84.07-1.88 3.134-1.88 3.065 0 3.134.04 3.134 1.88 0 1.462.28 1.88 1.254 1.88 1.044 0 1.253.417 1.253 2.506 0 2.454.048 2.507 2.226 2.507h2.225l-.187 3.604-.188 3.604-2.26.19-2.26.188-.393 5.096c-.216 2.803-.292 5.198-.17 5.32.696.696 7.795-7.024 10.445-11.356 4.884-7.983 5.69-8.816 8.512-8.78 2.292.03 3.74.57 9.098 3.39 3.903 2.054 26.7 8.816 34.01 10.087 3.818.664 8.996 1.256 11.506 1.316 5.784.137 6.61.94 3.78 3.675-2.793 2.7-5.424 3.72-9.59 3.72-3.435 0-3.473.02-3.068 1.634.53 2.11-.463 2.73-4.385 2.743l-3.058.01.345 2.125c.542 3.343-.838 4.768-4.62 4.768-2.744 0-3.183.185-3.71 1.566-.7 1.843-2.638 2.052-6 .648-2.008-.84-2.234-.826-2.582.156-1.338 3.78-4.96 4.3-9.688 1.39-1.68-1.034-3.21-1.88-3.4-1.88-.192 0-1.327.747-2.525 1.66-1.405 1.072-3.226 1.762-5.13 1.943-2.496.236-3.624-.075-7.337-2.026-5.592-2.938-8.108-2.79-11.674.694l-2.426 2.37v26.003l2.29-.956c7.244-3.026 17.457-2.078 34.28 3.182 2.846.89 3.013.88 2.633-.135-.966-2.58-4.664-8.052-7.654-11.33-3.087-3.382-3.3-3.502-4.7-2.644-5.084 3.116-8.54 3.73-14.47 2.574-5.123-.998-9.804-4.375-9.852-7.106-.026-1.545 2.764-3.965 6.785-5.885 4.67-2.23 12.82-2.337 17.01-.224 9.75 4.914 20.866 17.08 22.34 24.448l.414 2.073 6.17-.34c5.772-.318 6.173-.263 6.173.854 0 1 .465 1.195 2.852 1.195 2.63 0 2.907.153 3.533 1.952.634 1.818.844 1.93 3.08 1.63 1.97-.265 2.465-.11 2.775.868.293.92.975 1.19 3.005 1.19h2.627l9.973 32.747c5.484 18.01 10.088 33.33 10.23 34.043.238 1.198-.325 1.4-7.47 2.678-20.82 3.724-31.387 3.55-48.297-.796-11.235-2.887-12.496-2.982-13.033-.986-.866 3.222-3.15 6.818-5.826 9.174-2.545 2.24-13.2 8.637-18.755 11.26-1.293.61-2.35 1.284-2.35 1.498 0 .215 1.108 1.22 2.462 2.235 3.075 2.302 5.47 5.918 6 9.063.786 4.65-2.855 10.082-9.116 13.598-3.478 1.954-3.744 2.473-1.67 3.26 1.73.66 3.3 2.42 2.693 3.025-.24.24-2.22-.202-4.396-.983l-3.96-1.42-3.37 1.28c-3.97 1.51-4.937 1.59-4.937.412zm4.22-.853c2.5-1.027 3.5-2.037 2.022-2.037-.812 0-5.615 2.423-5.615 2.833 0 .52.846.333 3.594-.796zm11.307.293c-.595-.42-2.84-1.75-4.988-2.957-2.15-1.206-5.683-3.923-7.85-6.036-3.522-3.432-3.943-4.107-3.943-6.31 0-1.928.493-3.046 2.25-5.098 3.003-3.51 6.047-5.527 18.37-12.175 17.756-9.58 20.94-12.21 22.98-18.99 1.954-6.495.564-12.268-4.212-17.494-5.28-5.778-12.832-9.63-37.508-19.13-18.998-7.314-23.747-9.804-29.148-15.283-4.48-4.542-6.917-8.534-7.55-12.355-.254-1.543-.02-1.217.85 1.18 2.69 7.428 8.833 13.86 17.31 18.13 4.76 2.398 24.56 10.208 25.878 10.208.64 0 .806-4.227.806-20.585 0-23.236.39-21.448-5.223-23.93-4.34-1.92-8.757-2.456-14.83-1.796-5.216.566-22.89 5.196-24.13 6.32-.344.313-.806 2.177-1.026 4.142l-.4 3.573.153-4.133c.103-2.815.648-5.213 1.707-7.52 1.656-3.607 8.84-12.973 10.414-13.577.517-.198 2.377.462 4.134 1.467 2.802 1.603 3.808 1.827 8.207 1.82 4.178-.007 5.533-.28 8.136-1.644 3.393-1.777 5.704-4.322 5.176-5.698-.183-.477-1.844-1.908-3.69-3.18-2.704-1.86-4.234-2.424-7.83-2.875-5.723-.72-9.14-.056-13.798 2.673-4.83 2.832-12.194 9.665-15.214 14.122-2.108 3.11-4.506 8.696-5.27 12.277-.25 1.172-.273 1.166-.34-.09-.067-1.223-.5-1.364-4.93-1.614-2.672-.15-4.958-.2-5.08-.107-.235.174-3.465 10.617-12.677 40.98-3.085 10.168-5.762 18.972-5.948 19.564-.306.97.402 1.096 7.06 1.275l7.4.198-7.677.135c-4.246.074-7.678-.118-7.678-.43s3.95-13.494 8.775-29.294 8.774-29.083 8.774-29.518c0-1.288-4.24-1.007-4.628.308-.18.603-3 10.12-6.273 21.15-11.156 37.612-12.235 41.315-12.083 41.467.084.084 1.976.436 4.203.782l4.05.63-4.365-.32c-2.402-.175-4.47-.423-4.6-.55-.128-.13 3.74-13.63 8.597-30.003 4.856-16.372 8.83-29.93 8.83-30.13 0-.2-.988-.364-2.194-.364-1.207 0-2.194.153-2.194.34 0 .188-4.23 14.335-9.402 31.44-5.17 17.103-9.24 31.263-9.043 31.465.196.202 2.1.855 4.23 1.452 2.768.776 3.158.99 1.367.752-3.4-.452-6.58-1.5-6.58-2.17 0-.303 4.088-14.074 9.087-30.604 4.998-16.53 9.087-30.22 9.087-30.424 0-.204-.976-.37-2.17-.37h-2.172l-1.892 6.052c-6.676 21.357-18.35 60.446-18.12 60.675.15.152 4.212 1.01 9.025 1.905 16.78 3.122 30.46 2.74 45.887-1.286 4.57-1.193 9.01-2.168 9.87-2.168 1.452 0 1.564-.218 1.564-3.027v-3.028l-11.437 2.713c-6.29 1.493-12 2.68-12.69 2.642-1.254-.072-1.254-.072 0-.36 27.175-6.236 24.618-5.408 25.13-8.14.433-2.306.84-2.95 4.502-7.134 1.42-1.622 1.808-2.45 1.253-2.673-.442-.177-.217-.345.5-.372.717-.027 3.535-1.32 6.263-2.876 2.728-1.554 5.5-2.997 6.158-3.206.867-.274-.266-.946-4.09-2.425-23.49-9.08-34.674-21.485-34.3-38.042.084-3.695.12-3.585.56 1.69.59 7.056 2.23 11.768 5.884 16.888 6.745 9.453 15.71 14.624 40.47 23.347 18.23 6.42 26.948 11.158 30.545 16.596 3.577 5.408 1.617 11.038-5.872 16.863-3.926 3.053-7.02 4.956-18.372 11.295-14.464 8.077-18.143 15.105-11.878 22.69 1.084 1.314 3.536 3.288 5.448 4.387 6.765 3.89 18.18 8.563 14.404 5.896zm-85.406-53.407c.346-.117 4.435-.33 9.088-.47 4.956-.152 7.422-.058 5.954.226-2.39.462-16.348.69-15.04.244zm-6.266-.94c-2.607-.664-.042-.693 3.133-.037 2.108.435 2.208.517.627.516-1.034 0-2.726-.218-3.76-.48zm14.1-5.018c7.616-.325 12.134-.918 20.912-2.744 6.158-1.282 11.31-2.217 11.447-2.08.242.243-14.99 3.482-22.602 4.807-2.045.357-7.262.6-11.594.54l-7.875-.108zm33.687-5.425c.432-.174 1.137-.174 1.568 0 .43.174.078.316-.784.316-.86 0-1.214-.143-.783-.317zm-28.506-.662c.953-.143 2.363-.14 3.134.01.77.15-.01.267-1.733.262-1.723-.005-2.354-.126-1.4-.27zm7.355-.887c1.55-.37 6.322-1.63 10.604-2.8 4.28-1.17 8.23-2.11 8.774-2.09 1.55.065-16.22 4.86-19.38 5.23l-2.82.33zm20.994-5.22c1.313-.58 7.28-1.413 6.786-.95-.285.268-2.07.653-3.965.856-1.896.202-3.165.244-2.82.092zm14.846-77.258c.315-1.634 2.39-1.816 2.39-.21 0 .897-.403 1.3-1.3 1.3s-1.235-.338-1.09-1.09zM206.582 256.1c5.965-3.426 9.04-6.994 9.842-11.42.635-3.5-2.67-9.083-6.944-11.724l-2.26-1.397-2.703 1.433-2.703 1.434 4.36 4.224c4.06 3.935 4.36 4.41 4.36 6.912s-.3 2.976-4.357 6.908c-2.397 2.322-4.183 4.397-3.97 4.61.695.695 1.944.415 4.375-.98zm1.043-6.135c2.707-2.996 2.927-5.168.813-8.032-1.955-2.65-4.794-4.884-4.806-3.78-.006.455-.365.126-.8-.733-.434-.86-1.276-1.655-1.87-1.77-.98-.188-1.08.565-1.08 7.986v8.193h1.565c.975 0 1.567.354 1.567.94 0 .626-.627.94-1.88.94h-1.88v-8.462c0-4.653-.174-8.46-.388-8.46-.683 0-4.902 3.906-6.032 5.584-2.136 3.173-1.514 4.97 3.33 9.625l4.428 4.257 2.375-1.88c1.307-1.036 3.403-3.02 4.658-4.41zm-4.862-4.727c.034-2.935.246-5.52.47-5.745.224-.224.408 2.178.408 5.338s-.21 5.746-.47 5.746c-.258 0-.44-2.402-.407-5.338zm-5.658-16.344c1.527-.894 2.776-1.726 2.776-1.848 0-.122-2.326-1.432-5.17-2.91-6.902-3.59-14.436-9.346-16.882-12.9-3.807-5.535-2.258-11.263 4.357-16.106 3.496-2.56 13.44-7.587 16.13-8.154 1.033-.218-.155.488-2.642 1.57l-4.52 1.966 4.61 3.083c2.534 1.695 4.783 3.083 4.995 3.083.213 0 .354-2.238.314-4.973-.058-3.98-.278-5.055-1.102-5.385-.566-.227-3.808-1.388-7.203-2.58l-6.174-2.166-5.94 3.29c-12.115 6.713-16.625 14.847-13.696 24.71 1.907 6.42 5.175 9.252 20.076 17.39 3.447 1.884 6.5 3.455 6.782 3.49.283.037 1.764-.665 3.29-1.56zm5.91-8.043c0-4.525-.03-4.61-1.567-4.52-1.525.087-1.567.215-1.567 4.842 0 2.614.18 4.93.396 5.148.218.218.923.114 1.567-.23.98-.526 1.17-1.377 1.17-5.24zm-4.388-.58v-5.236l-5.484-2.543c-5.634-2.613-11.916-4.53-14.84-4.53-1.484 0-1.583.134-.955 1.308 1.173 2.19 5.066 6.205 8.05 8.3 2.302 1.618 12.495 7.78 13.072 7.905.087.018.157-2.323.157-5.202zm9.732 2.248c8.272-4.492 18.536-13.894 15.766-14.442-1.774-.352-10.692 2.396-15.49 4.77l-4.682 2.32-.184 4.918c-.1 2.705.04 4.82.315 4.7.275-.12 2.198-1.14 4.274-2.266zm-7.226-8.98c0-2.55-2.252-4.62-8.208-7.545-5.318-2.613-9.51-4.113-13.086-4.685-2.312-.37-2.542-.27-3.162 1.36-1.245 3.274-.64 4.29 2.834 4.78 4.664.656 12.715 3.425 16.947 5.828 2.053 1.167 3.945 2.14 4.204 2.162.258.023.47-.833.47-1.9zm11.594-3.295c2.413-.936 6.22-2.067 8.46-2.515 4.462-.89 5.058-1.687 3.78-5.05-.614-1.612-.85-1.715-3.006-1.314-3.722.69-11.095 3.747-15.836 6.564-4.245 2.522-4.365 2.663-4.365 5.105v2.512l3.29-1.8c1.81-.99 5.265-2.567 7.678-3.502zm71.557 2.094c10.223-1.326 19.71-3.267 19.465-3.982-.134-.39-4.715-15.445-10.18-33.456l-9.934-32.747h-2.08c-1.355 0-2.082.303-2.082.867 0 .477 1.432 5.578 3.183 11.336 1.75 5.757 3.065 10.587 2.92 10.732-.145.145-1.938-5.308-3.983-12.12l-3.72-12.382-2.293-.192-2.292-.192.6 2.073c.33 1.14 4.358 14.622 8.95 29.96 4.59 15.34 8.176 28.09 7.967 28.336-1.474 1.735-25.765 2.146-31.386.533l-2.195-.63 2.194.3c8.84 1.207 29.172.783 30.595-.64.28-.28-8.696-31.287-16.15-55.786l-2.287-7.52h-2.163c-1.818 0-2.127.2-1.943 1.253.168.96 14.996 50.043 17.277 57.188l.45 1.41-8.034-.127-8.033-.126 7.55-.343 7.553-.342-8.52-27.89c-11.39-37.273-10.06-33.547-11.913-33.43-.86.053-3.32.168-5.465.254l-3.9.157.385 4.564c1.24 14.678-7.132 27.058-24.063 35.578-5.252 2.643-13.642 6.054-14.758 6-.422-.02 1.316-.854 3.862-1.855 7.325-2.88 16.032-7.363 20.06-10.328 9.893-7.284 15.077-17.75 14.278-28.83-.768-10.664-5.713-18.943-16.092-26.94-6.258-4.823-9.312-6.065-14.853-6.04-2.69.014-5.815.3-6.947.64-2.557.765-8.282 4.902-8.282 5.986 0 1.504 2.506 3.993 5.486 5.45 2.35 1.147 4.03 1.455 7.988 1.462 4.348.008 5.404-.22 7.946-1.712 1.612-.947 3.34-1.72 3.84-1.72.87 0 4.435 3.902 8.167 8.94 2.874 3.88 4.233 7.672 4.497 12.544l.245 4.523-.55-4.288c-.303-2.36-.642-4.36-.753-4.446-.353-.275-10.7-3.36-14.632-4.365-6.116-1.56-13.972-2.233-17.818-1.523-1.88.347-5.052 1.456-7.05 2.465l-3.633 1.834v20.987c0 11.542.08 20.986.18 20.986.84 0 21.83-8.484 25.252-10.208 8.476-4.27 14.618-10.702 17.31-18.13.87-2.397 1.103-2.723.848-1.18-.632 3.82-3.07 7.813-7.548 12.355-5.12 5.194-10.213 7.98-25.074 13.712-5.17 1.994-9.622 3.822-9.893 4.062-.27.24 2.64 1.74 6.47 3.333 3.828 1.594 9.408 4.25 12.4 5.9 3.85 2.126 6.72 3.224 9.825 3.757 4.287.737 4.304.748.772.464l-3.614-.29 2.674 3.357 2.675 3.357 9.974 2.1c5.487 1.153 9.694 2.19 9.35 2.306-.345.114-4.632-.646-9.527-1.69-4.895-1.043-9.005-1.897-9.133-1.897-.128 0 .058.95.415 2.11l.647 2.11 9.478 2.29c5.213 1.26 12.158 2.818 15.432 3.463 3.275.644 5.492 1.202 4.927 1.24-1.54.103-10.574-1.666-18.716-3.665-12.152-2.983-10.754-3.03-10.532.363.17 2.6.373 2.964 1.758 3.15.862.117 5.515 1.206 10.34 2.42 13.055 3.288 24.947 4.22 35.835 2.807zm-14.032-4.842c1.994-.125 5.096-.124 6.893.004 1.797.125.166.227-3.626.226-3.792 0-5.262-.105-3.267-.23zm15.083-1.165c8.73-1.577 11.393-2.434 11.187-3.6-.102-.58-2.587-8.976-5.522-18.66-2.933-9.685-5.176-17.767-4.983-17.96.193-.192.35-.158.35.078 0 .235 2.534 8.8 5.63 19.032 3.852 12.73 5.41 18.74 4.93 19.036-1.086.672-12.912 3.083-14.814 3.02-.934-.03.516-.457 3.223-.946zm-30.46-6.307c.43-.174 1.135-.174 1.566 0 .43.174.078.316-.784.316-.86 0-1.214-.143-.783-.317zm9.4-4.414c.775-.15 2.045-.15 2.82 0 .776.148.14.27-1.41.27-1.55 0-2.186-.122-1.41-.27zm-11.75-2.142c-3.62-1.023-8.838-2.41-11.595-3.085-2.983-.73-3.87-1.087-2.193-.883 1.55.188 6.91 1.44 11.908 2.784 4.998 1.344 9.792 2.562 10.654 2.707 1.36.23 1.32.268-.314.3-1.035.02-4.842-.8-8.46-1.822zm-31.964-81.443c0-.897.338-1.235 1.09-1.09 1.633.315 1.816 2.39.21 2.39-.897 0-1.3-.403-1.3-1.3zm-19.54 95.68c.085-1.272-.255-2.53-.844-3.12-1.648-1.648-8.48-5.178-13.42-6.934l-4.66-1.657-2.114 2.114-2.115 2.115 3.64.8c4.547 1.002 10.646 3.565 15.55 6.536 2.068 1.253 3.773 2.278 3.79 2.28.015 0 .092-.96.172-2.132zm9.826-2.884c2.758-1.326 6.783-2.903 8.946-3.504l3.932-1.092-1.738-1.813c-1.49-1.556-2.05-1.755-3.932-1.404-2.59.484-9.86 3.763-13.632 6.15-2.424 1.533-2.663 1.915-2.663 4.245v2.562l2.038-1.364c1.12-.75 4.293-2.45 7.05-3.777zm-.278-5.615c2.874-1.39 5.664-2.532 6.2-2.537.534-.005 1.365-.258 1.845-.563.653-.413.02-1.043-2.506-2.49-1.86-1.067-3.83-1.942-4.38-1.945-.55-.004-3.017 1.41-5.484 3.144l-4.485 3.15v6.32l1.793-1.276c.985-.702 4.143-2.414 7.017-3.803zm-9.52 2.016c-.15-2.866-1.437-4.38-6.57-7.723l-3.938-2.566-3.79 2.02c-2.087 1.113-3.793 2.213-3.793 2.447 0 .234 1.62.934 3.603 1.556 3.81 1.196 9.654 3.984 11.75 5.608 2.1 1.627 2.873 1.25 2.737-1.34zm8.075-9.114c.775-.354 1.41-.843 1.41-1.087 0-.466-7.172-3.743-8.19-3.743-.32 0-.584 2.254-.584 5.01v5.01l2.978-2.274c1.637-1.25 3.61-2.563 4.387-2.917zm-6.192-60.823c.468-.564.693-5.325.68-14.413-.01-8.183.24-14.052.63-14.782 1.155-2.157 4.3-3.884 7.706-4.23 2.897-.296 3.826-.064 7.863 1.967 5.39 2.712 7.038 2.61 10.178-.63 1.155-1.19 2.537-2.158 3.073-2.15.535.01 2.512.997 4.392 2.194 3.355 2.137 6.464 2.798 7.242 1.54.217-.35.533-1.402.702-2.337.42-2.318.465-2.333 3.35-1.18 4.51 1.805 6.644.905 5.026-2.118-.4-.746-.632-1.45-.518-1.565.115-.114 1.75.192 3.633.68 5.462 1.417 7.225-.09 4.363-3.726-1.47-1.87-1.518-1.847 3.266-1.673 1.996.074 3.715-.165 3.95-.548.232-.373-.37-1.422-1.34-2.33l-1.757-1.654 5.013.358c5.434.388 9.4-.478 9.4-2.053 0-.684-1.383-1.105-5.368-1.633-2.953-.392-6.818-1.06-8.588-1.484-3.306-.793-4.53-.565-4.53.845 0 1.6-2.418 2.963-5.89 3.32-3.852.4-3.8.36-2.842 2.15 1.05 1.96-.4 3.253-3.228 2.874-2.678-.36-3.38-.024-3.98 1.902-.75 2.404-2.6 2.934-5.875 1.683-2.083-.796-2.943-.896-3.12-.362-.615 1.842-2.13 2.59-4.476 2.216-2.087-.334-2.417-.21-2.74 1.02-.278 1.067-.636 1.286-1.5.918-2.758-1.175-4.448-1.086-4.875.26-.487 1.536-1.61 1.658-3.983.43-1.08-.557-3.686-.882-7.093-.882-6.093 0-8.066-.795-8.047-3.242.007-.864.42-4.392.92-7.84.5-3.446.917-7.728.928-9.515.02-3.073.115-3.26 1.744-3.447 1.437-.165 1.757-.538 1.92-2.235.183-1.897.065-2.036-1.723-2.036-1.635 0-1.92-.234-1.92-1.587 0-.872-.422-1.748-.94-1.947-.535-.205-.94-1.14-.94-2.174 0-1.596-.224-1.813-1.88-1.813-1.67 0-1.88.21-1.88 1.88 0 1.034-.28 1.88-.626 1.88-.345 0-.627.847-.627 1.88 0 1.672-.21 1.88-1.88 1.88-1.73 0-1.88.175-1.88 2.194 0 1.996.162 2.194 1.793 2.194h1.792l.386 7.05c.212 3.88.568 8.907.79 11.174l.407 4.123-2.203 1.045c-1.53.726-3.71 1.025-7.128.977-2.867-.04-5.792.286-7 .78-1.956.8-2.145.76-3.244-.698-1.083-1.435-1.323-1.492-3.296-.78-2.765 1-2.773 1-3.183-.57-.302-1.156-.666-1.29-2.637-.97-1.903.308-2.53.11-3.73-1.187-1.42-1.532-1.487-1.54-3.968-.548-2.543 1.017-5.128.518-5.128-.99 0-.332-.55-1.153-1.22-1.824-.907-.907-1.756-1.132-3.32-.88-2.672.435-4.267-1.087-3.1-2.957 1.067-1.708.976-1.837-1.29-1.84-3.28-.007-6.63-1.18-7.04-2.467-.693-2.186-1.853-2.65-4.806-1.925-1.498.37-5.263 1.03-8.365 1.47-4.134.585-5.64 1.04-5.64 1.704 0 1.548 3.983 2.445 9.087 2.045l4.7-.37-1.476 1.606c-2.172 2.364-1.258 3.175 3.13 2.778 2.02-.184 3.673-.28 3.673-.212 0 .067-.565 1.228-1.255 2.58-1.09 2.142-1.137 2.578-.35 3.363.784.785 1.414.776 4.856-.07 2.177-.536 4.05-.885 4.163-.778.114.107-.287.95-.89 1.87-.932 1.422-.963 1.76-.207 2.238 1.285.814 2.815.712 5.374-.357 3.053-1.276 3.35-1.207 3.36.783.006.948.26 2.118.564 2.6.836 1.32 4.552.478 7.826-1.774 1.537-1.057 3.12-1.922 3.52-1.922.402 0 1.853.96 3.226 2.137 3.662 3.135 5.057 3.284 9.63 1.033 6.016-2.96 11.682-2.574 15.49 1.06l1.725 1.645v14.192c0 7.806.19 14.38.418 14.61.676.677 1.883.482 2.635-.424zm-12.908-37.28c.852-.732 1.283-.783 1.848-.218 1.7 1.7 6.754.415 6.754-1.72 0-2.313-4.53-3.693-12.534-3.816-3.013-.047-4.387-.622-4.387-1.835 0-2.616-.664-3.173-3.784-3.173-2.658 0-3.047-.17-3.223-1.41-.175-1.224-.574-1.41-3.022-1.41-2.565 0-2.802-.128-2.624-1.41.185-1.33-.023-1.41-3.604-1.41-2.115 0-3.8-.278-3.8-.627 0-.345-.56-1.188-1.246-1.874-1.245-1.244-1.253-1.244-4.533.05-1.806.71-4.84 1.582-6.74 1.933-5.885 1.088-7.197 2.612-4.032 4.686 1.382.904 2.26.973 5.953.463 2.384-.33 4.336-.45 4.34-.265 0 .183-.914 1.11-2.038 2.062-1.92 1.624-1.974 1.78-.913 2.6.718.554 1.994.755 3.51.55 2.254-.3 2.403-.214 2.77 1.615.528 2.647 2.68 3.13 6.246 1.405 3.184-1.542 3.58-1.597 3.58-.497 0 .45.38 1.34.843 1.974.872 1.194.87 1.194 5.735-.63 1.03-.385 1.114-.32.47.375-2.127 2.293.23 3.278 3.635 1.518 1.812-.937 1.85-.925 1.85.627 0 1.248.313 1.582 1.49 1.582.82 0 1.86-.448 2.315-.996.743-.895.874-.865 1.306.303.524 1.413 1.845 1.257 3.835-.453zm26.777.206c0-1.216.883-1.202 1.905.03 1.22 1.47 3.456.91 3.273-.816-.173-1.628.187-1.7 2.343-.468 1.554.888 4.387 1.266 4.387.585 0-.194-.292-.9-.65-1.565-.79-1.476-.604-1.49 2.138-.184 2.644 1.262 4.152.782 4.152-1.32 0-1.94 1.114-2.037 3.902-.337 3.474 2.118 6.126 1.366 6.126-1.738 0-1.322.263-1.477 2.35-1.38 1.292.06 2.843.08 3.447.048 1.644-.09 1.33-2.23-.47-3.195-2.678-1.432-1.783-2.003 2.434-1.55 4.498.48 6.384.09 7.236-1.503.978-1.828-.236-2.705-5.373-3.88-2.71-.62-6.154-1.494-7.656-1.944-2.658-.795-2.766-.772-4.097.897-1.17 1.47-1.828 1.714-4.596 1.714-3.11 0-4.654.734-3.304 1.568 1.29.797-.18 1.672-2.18 1.297-2.59-.485-4.087.085-4.087 1.556 0 .93-.575 1.19-2.977 1.344-2.637.17-3.002.37-3.194 1.758-.326 2.36-1.283 3.153-3.784 3.133-3.137-.026-10.81.94-12.137 1.53-1.47.65-1.397 3.28.117 4.09 1.675.896 4.89.813 5.24-.136.213-.575.6-.49 1.44.312 1.423 1.357 4.015 1.458 4.015.157zm-19.787-7.135c.19-.305-.496-.902-1.52-1.326-3.03-1.255-8.772-7.58-11.166-12.295-1.714-3.374-4.38-6.508-5.535-6.508-.506 0-3.834 1.27-7.397 2.82-3.562 1.55-7.037 2.82-7.722 2.82-.685 0-1.565.386-1.956.858-1.3 1.567.963 2.593 5.638 2.555 4.113-.034 4.267.02 4.447 1.567.168 1.437.495 1.62 3.195 1.793 2.62.168 2.96.345 2.633 1.373-.322 1.014.006 1.208 2.32 1.375 2.324.167 2.668.373 2.513 1.508-.273 1.993 1.36 2.98 4.184 2.53 1.76-.282 2.644-.13 3.207.547.852 1.027 6.57 1.332 7.158.382zm16.564-.23c.432-.43 2.104-.783 3.714-.783 2.762 0 2.947-.106 3.258-1.88.297-1.692.59-1.9 2.923-2.07 2.19-.16 2.545-.373 2.284-1.373-.27-1.024.102-1.21 2.73-1.378 2.786-.178 3.056-.336 3.236-1.9.188-1.63.317-1.69 2.9-1.336 4.95.68 10.033-2.31 5.52-3.246-.947-.197-3.696-1.224-6.11-2.283-9.358-4.107-9.44-4.125-11.233-2.44-.87.818-2.703 3.37-4.07 5.67-3.198 5.385-7.72 10.4-10.79 11.966-1.333.68-2.422 1.37-2.422 1.535 0 .685 7.326.246 8.06-.483z"/><path d="M150.29 375.428c0-.352.447-.81.992-1.02 5.807-1.276 12.893-7.147 18.27-10.128 23.324-12.906 21.827-12 20.45-12.39-2.81-.8-6.9-1.148-13.507-1.15-10.345-.004-14.975 1.192-27.643 7.14-7.34 3.444-8.304 3.74-11.37 3.486-3.317-.275-10.47-3.3-10.813-4.573-.21-.77 16.955-8.55 24.248-10.99 7.58-2.536 14.78-3.327 26.62-2.927 10.188.345 15.144 1.237 19.73 3.55 2.563 1.29 4.53 1.415 4.53 1.415s.006-.13 2.194-1.844c6.122-2.58 9.356-2.993 23.072-2.946 16.916.057 19.147.652 43.244 11.538l4.387 1.982-2.507 1.53c-3.106 1.897-7.95 3.393-10.98 3.393-1.485 0-4.59-1.125-8.817-3.195-8.98-4.397-16.39-6.772-23.044-7.386-5.738-.53-17.525.075-19.13.98-.643.363 3.08 2.712 12.67 8 21.702 11.96 27.026 15.04 27.04 15.634.008.308-2.31.413-5.17.235-4.668-.29-5.82-.643-11.62-3.553-3.22-1.92-4.33-2.637-6.57-3.82-4.338-2.292-6.12-2.853-13.285-6.34l-13.028-6.34-3.6 1.72c-1.216.884-3.02 1.444-4.524 2.176-5.287 2.572-7.103 3.337-15.824 7.787-15.81 8.066-15.873 8.092-20.935 8.385-3.232.187-5.08.06-5.08-.347zm-24.332-27.176c-6.723-.816-11.905-3.062-19.724-8.548-2.846-1.997-3.39-2.622-2.507-2.886 2.236-.67 16.876-3.444 20.4-3.866 2.414-.29 3.602-.714 3.602-1.288 0-.47-1.847-6.11-4.104-12.536-2.257-6.425-3.988-11.798-3.846-11.94.582-.58 10.584 5.125 15.66 8.935 5.923 4.445 8.69 7.895 10.53 13.13 4.49 12.777-4.098 20.93-20.012 19zm140.276.08c-4.864-.605-8.908-2.57-11.036-5.363-1.676-2.2-1.81-2.78-1.797-7.752.014-4.655.252-5.825 1.777-8.746 2.208-4.23 6.277-8.327 12.317-12.4 4.855-3.277 12.47-7.37 12.9-6.94.136.136-1.585 5.426-3.823 11.755-2.238 6.33-4.07 11.986-4.07 12.57 0 .825.808 1.16 3.605 1.5 3.547.432 18.143 3.204 20.455 3.885.91.268-.21 1.262-4.87 4.312-6.75 4.42-11.19 6.31-16.16 6.874-1.838.21-3.906.46-4.596.557-.69.098-2.804-.016-4.7-.252zm-175.14-18.486c-5.305-1.872-9.72-4.842-15.97-10.745l-4.74-4.475 3.448-.414c1.895-.227 7.837-.61 13.204-.85l9.757-.438-1.483-11.825c-.816-6.504-1.337-11.972-1.157-12.15.798-.8 5.95 4.88 8.7 7.564 3.76 3.67 8.505 7.247 10.632 11.638 1.612 3.643 2.13 10.437 1.082 14.18-1 3.57-4.73 7.518-7.95 8.412-4.21 1.17-10.743.793-15.523-.894zm200.835.163c-5.468-2.938-7.797-8.583-6.756-16.38.69-5.174 3.024-9.024 9.347-15.42 5.236-5.294 10.957-9.866 11.575-9.248.247.248-1.63 16.31-2.586 22.138l-.32 1.938 11.448.42c6.296.23 12.272.64 13.28.914l1.833.495-6.22 5.55c-4.488 4.003-7.668 6.244-11.43 8.054-4.728 2.277-5.77 2.534-11.28 2.78-5.514.248-6.33.134-8.89-1.24zM68.817 308.262c-4.275-1.305-7.765-3.89-14.757-10.93-6.888-6.935-12.842-14.365-12.103-15.104.336-.336 17.43 3.463 22.042 4.9 2.233.694 3.08.747 3.262.204.382-1.138 1.556-16.375 1.556-20.196 0-1.877.21-3.406.47-3.398 1.643.05 12.432 16.178 14.55 21.748 2.792 7.342 2.878 15.222.208 18.89-2.668 3.667-9.9 5.512-15.228 3.885zm251.578-.57c-10.46-4.888-7.93-20.833 6.216-39.167 4.477-5.802 4.437-5.84 5.03 4.6.65 11.406 1.126 15.135 1.897 14.845 4-1.503 24.24-6.234 24.702-5.772-2.905 3.14-1.63 3.16-4.246 6.65-4.714 6.274-14.93 15.776-19.216 17.874-4.753 2.325-10.638 2.723-14.384.972zm-274.17-27.897c-3.675-1.314-7.897-4.598-10.806-8.404-3.024-3.958-7.228-10.978-8.908-14.874-2.23-5.175-4.057-9.938-3.88-10.114.1-.1 5.17 2.486 11.264 5.75 6.095 3.26 11.333 5.93 11.64 5.93.502 0 2.46-6.8 5.49-19.048.988-3.995 1.137-4.23 1.986-3.134 1.31 1.694 5.94 11.635 7.998 17.17 1.52 4.086 1.755 5.64 1.8 11.907.05 6.57-.084 7.454-1.513 10.026-2.712 4.88-9.12 6.918-15.07 4.79zm297.346-.344c-2.863-1.3-4.698-3.546-5.885-7.203-1.137-3.505-.48-13.436 1.228-18.552 1.56-4.674 7.717-17.824 8.6-18.37.326-.2 1.073 1.664 1.66 4.145 2.18 9.21 4.96 18.612 5.503 18.612.31 0 2.91-1.27 5.778-2.82 4.177-2.57 4.265-1.83 6.35-2.845 3.455-1.678 9.657-5.898 10.2-5.357 1.042 1.044-7.164 17.578-11.728 23.626-6.462 8.564-14.764 11.915-21.706 8.762zM28.217 245.187c-6.513-3.245-11.895-10.527-17.334-23.45-3.117-7.41-3.905-10.03-3.014-10.03.33 0 5.332 2.842 11.11 6.316 5.78 3.473 10.73 6.082 10.998 5.797.27-.285 2.395-4.96 4.723-10.39 2.33-5.428 4.487-9.87 4.796-9.87.87 0 3.37 6.115 5.286 12.936 1.447 5.148 1.74 7.436 1.762 13.71.023 6.842-.12 7.818-1.558 10.655-2.947 5.81-10.092 7.654-16.77 4.327zm331.398.252c-1.974-1.02-3.285-2.303-4.368-4.277-3.704-6.75-1.584-24.806 4.233-36.063l1.28-2.48 1.22 2.82c.67 1.55 2.702 6.28 4.517 10.51 1.815 4.227 3.528 7.828 3.806 8 .28.172 4.404-2.047 9.167-4.932 9.678-5.86 12.73-7.524 13.107-7.146.353.353-1.69 6.17-4.138 11.783-2.703 6.196-4.787 8.678-7.51 12.812-1.03 1.565-1.18 2.472-3.333 4.527-4.324 4.09-6.746 5.287-11.373 5.625-3.094.224-4.306.008-6.61-1.18zm31.962-32.21c0-.172-.564-.01-1.253.358-.69.37-1.253.812-1.253.984 0 .172.565.01 1.254-.358.69-.37 1.253-.81 1.253-.984zM16.94 206.4c-5.34-1.668-9.364-6.083-12.013-13.18C3 188.055 1.215 178.49.744 170.804l-.392-6.415 3.534 3.437c1.96 1.904 3.394 3.805 3.218 4.263-.174.454-.063.67.248.477.31-.192 2.955 2.228 5.875 5.38l5.31 5.727 7.373-8.89c5.1-6.148 7.574-8.688 8.025-8.238.976.977 1.32 17.966.463 22.89-1.593 9.15-5.744 15.89-10.618 17.244-2.837.79-3.505.76-6.84-.28zm359.465.315c-6.947-2.15-11.187-12.4-11.288-27.283-.05-7.328.57-13.475 1.36-13.475.264 0 2.23 2.134 4.37 4.742 3.772 5.07 4.236 5.24 7.345 8.988 1.675 2.06 3.2 3.762 3.392 3.782.19.02 3.065-2.997 6.387-6.702 3.323-3.705 7.326-7.995 8.898-9.53l2.857-2.795v2.348c0 4.345-1.31 14.48-2.565 19.847-2.942 12.58-8.35 19.207-16.55 20.277-1.38.18-3.27.09-4.205-.2zM15.032 169.968c-2.72-3.3-4.123-8.345-4.08-14.665.037-5.58.802-8.463 5.322-20.055l2.077-5.327.368 4.074c.258 2.86 1.187 5.94 3.12 10.34 2.49 5.675 2.75 6.743 2.764 11.282.01 3.898-.302 5.703-1.404 8.108-1.445 3.155-5.115 8.446-5.882 8.48-.233.01-1.26-.995-2.284-2.236zm364.695-1.567c-4.706-7.046-5.627-13.71-2.807-20.304 3.026-7.077 4.63-12.342 4.65-15.258.01-1.956.197-2.607.56-1.977 1.433 2.484 6.333 17.21 6.902 20.743.756 4.698 0 10.658-1.908 14.963-1.225 2.77-3.46 5.658-4.378 5.658-.256 0-1.615-1.72-3.02-3.823z" fill="#00ff01" stroke="#000" stroke-width=".627"/></svg>