<svg xmlns="http://www.w3.org/2000/svg" xmlns:xlink="http://www.w3.org/1999/xlink" width="400" height="163.754"><defs><linearGradient xlink:href="#a" id="q" gradientUnits="userSpaceOnUse" gradientTransform="scale(41.7) rotate(109 .3 1)" x2="1"/><linearGradient id="a" gradientTransform="scale(41.7) rotate(109 .3 1)" gradientUnits="userSpaceOnUse" x2="1"><stop offset="0" stop-color="#fff"/><stop offset=".169" stop-color="#a4a3a3"/><stop offset=".264" stop-color="#9d9d9c"/><stop offset=".396" stop-color="#a9a9a9"/><stop offset=".542" stop-color="#858584"/><stop offset=".626" stop-color="#818181"/><stop offset=".718" stop-color="#f0f0f0"/><stop offset=".791" stop-color="#fff"/><stop offset="1" stop-color="#1d1d1b"/></linearGradient><linearGradient xlink:href="#b" id="r" gradientUnits="userSpaceOnUse" gradientTransform="matrix(38.8 0 0 -38.8 15.8 62.7)" x2="1"/><linearGradient id="b" gradientTransform="matrix(38.8 0 0 -38.8 15.8 62.7)" gradientUnits="userSpaceOnUse" x2="1"><stop offset="0" stop-color="#fff"/><stop offset=".169" stop-color="#a4a3a3"/><stop offset=".264" stop-color="#9d9d9c"/><stop offset=".396" stop-color="#a9a9a9"/><stop offset=".542" stop-color="#858584"/><stop offset=".626" stop-color="#818181"/><stop offset=".718" stop-color="#f0f0f0"/><stop offset=".791" stop-color="#fff"/><stop offset="1" stop-color="#1d1d1b"/></linearGradient><clipPath id="s"><path d="M0 432h576V0H0v432z"/></clipPath><linearGradient xlink:href="#c" id="t" gradientUnits="userSpaceOnUse" gradientTransform="matrix(39.7 0 0 -39.7 14.2 62.3)" x2="1"/><linearGradient id="c" gradientTransform="matrix(39.7 0 0 -39.7 14.2 62.3)" gradientUnits="userSpaceOnUse" x2="1"><stop offset="0" stop-color="#99c329"/><stop offset="1" stop-color="#f9fbf1"/></linearGradient><linearGradient xlink:href="#d" id="u" gradientUnits="userSpaceOnUse" gradientTransform="matrix(31.4 0 0 -31.4 35.3 64.4)" x2="1"/><linearGradient id="d" gradientTransform="matrix(31.4 0 0 -31.4 35.3 64.4)" gradientUnits="userSpaceOnUse" x2="1"><stop offset="0" stop-color="#99c329"/><stop offset="1" stop-color="#f9fbf1"/></linearGradient><linearGradient xlink:href="#e" id="v" gradientUnits="userSpaceOnUse" gradientTransform="scale(26) rotate(21 -4.4 9)" x2="1"/><linearGradient id="e" gradientTransform="scale(26) rotate(21 -4.4 9)" gradientUnits="userSpaceOnUse" x2="1"><stop offset="0" stop-color="#fff"/><stop offset=".169" stop-color="#a4a3a3"/><stop offset=".264" stop-color="#9d9d9c"/><stop offset=".396" stop-color="#a9a9a9"/><stop offset=".542" stop-color="#858584"/><stop offset=".626" stop-color="#818181"/><stop offset=".718" stop-color="#f0f0f0"/><stop offset=".791" stop-color="#fff"/><stop offset="1" stop-color="#1d1d1b"/></linearGradient><clipPath id="w"><path d="M0 432h576V0H0v432z"/></clipPath><linearGradient xlink:href="#f" id="x" gradientUnits="userSpaceOnUse" gradientTransform="matrix(22.9 0 0 -22.9 76.3 59.2)" x2="1"/><linearGradient id="f" gradientTransform="matrix(22.9 0 0 -22.9 76.3 59.2)" gradientUnits="userSpaceOnUse" x2="1"><stop offset="0" stop-color="#cddf9f"/><stop offset="1" stop-color="#99c329"/></linearGradient><linearGradient xlink:href="#g" id="y" gradientUnits="userSpaceOnUse" gradientTransform="matrix(26.2 -8 -8 -26.2 101.4 63.2)" x2="1"/><linearGradient id="g" gradientTransform="matrix(26.2 -8 -8 -26.2 101.4 63.2)" gradientUnits="userSpaceOnUse" x2="1"><stop offset="0" stop-color="#fff"/><stop offset=".169" stop-color="#a4a3a3"/><stop offset=".264" stop-color="#9d9d9c"/><stop offset=".396" stop-color="#a9a9a9"/><stop offset=".542" stop-color="#858584"/><stop offset=".626" stop-color="#818181"/><stop offset=".718" stop-color="#f0f0f0"/><stop offset=".791" stop-color="#fff"/><stop offset="1" stop-color="#1d1d1b"/></linearGradient><clipPath id="z"><path d="M0 432h576V0H0v432z"/></clipPath><linearGradient xlink:href="#h" id="A" gradientUnits="userSpaceOnUse" gradientTransform="matrix(24.8 0 0 -24.8 102.2 59.2)" x2="1"/><linearGradient id="h" gradientTransform="matrix(24.8 0 0 -24.8 102.2 59.2)" gradientUnits="userSpaceOnUse" x2="1"><stop offset="0" stop-color="#cddf9f"/><stop offset="1" stop-color="#99c329"/></linearGradient><linearGradient xlink:href="#i" id="B" gradientUnits="userSpaceOnUse" gradientTransform="scale(13.3) rotate(21 -6.8 27.9)" x2="1"/><linearGradient id="i" gradientTransform="scale(13.3) rotate(21 -6.8 27.9)" gradientUnits="userSpaceOnUse" x2="1"><stop offset="0" stop-color="#fff"/><stop offset=".169" stop-color="#a4a3a3"/><stop offset=".264" stop-color="#9d9d9c"/><stop offset=".396" stop-color="#a9a9a9"/><stop offset=".542" stop-color="#858584"/><stop offset=".626" stop-color="#818181"/><stop offset=".718" stop-color="#f0f0f0"/><stop offset=".791" stop-color="#fff"/><stop offset="1" stop-color="#1d1d1b"/></linearGradient><clipPath id="C"><path d="M0 432h576V0H0v432z"/></clipPath><linearGradient xlink:href="#j" id="D" gradientUnits="userSpaceOnUse" gradientTransform="matrix(6.6 0 0 -6.6 129.8 59.2)" x2="1"/><linearGradient id="j" gradientTransform="matrix(6.6 0 0 -6.6 129.8 59.2)" gradientUnits="userSpaceOnUse" x2="1"><stop offset="0" stop-color="#cddf9f"/><stop offset="1" stop-color="#99c329"/></linearGradient><linearGradient xlink:href="#k" id="E" gradientUnits="userSpaceOnUse" gradientTransform="matrix(24.6 4.8 4.8 -24.6 137.6 57.4)" x2="1"/><linearGradient id="k" gradientTransform="matrix(24.6 4.8 4.8 -24.6 137.6 57.4)" gradientUnits="userSpaceOnUse" x2="1"><stop offset="0" stop-color="#fff"/><stop offset=".169" stop-color="#a4a3a3"/><stop offset=".264" stop-color="#9d9d9c"/><stop offset=".396" stop-color="#a9a9a9"/><stop offset=".542" stop-color="#858584"/><stop offset=".626" stop-color="#818181"/><stop offset=".718" stop-color="#f0f0f0"/><stop offset=".791" stop-color="#fff"/><stop offset="1" stop-color="#1d1d1b"/></linearGradient><clipPath id="F"><path d="M0 432h576V0H0v432z"/></clipPath><linearGradient xlink:href="#l" id="G" gradientUnits="userSpaceOnUse" gradientTransform="matrix(22.9 0 0 -22.9 139.3 59.2)" x2="1"/><linearGradient id="l" gradientTransform="matrix(22.9 0 0 -22.9 139.3 59.2)" gradientUnits="userSpaceOnUse" x2="1"><stop offset="0" stop-color="#cddf9f"/><stop offset="1" stop-color="#99c329"/></linearGradient><linearGradient xlink:href="#m" id="H" gradientUnits="userSpaceOnUse" gradientTransform="matrix(21.8 0 0 -21.8 164.9 59.2)" x2="1"/><linearGradient id="m" gradientTransform="matrix(21.8 0 0 -21.8 164.9 59.2)" gradientUnits="userSpaceOnUse" x2="1"><stop offset="0" stop-color="#fff"/><stop offset=".169" stop-color="#a4a3a3"/><stop offset=".264" stop-color="#9d9d9c"/><stop offset=".396" stop-color="#a9a9a9"/><stop offset=".542" stop-color="#858584"/><stop offset=".626" stop-color="#818181"/><stop offset=".718" stop-color="#f0f0f0"/><stop offset=".791" stop-color="#fff"/><stop offset="1" stop-color="#1d1d1b"/></linearGradient><clipPath id="I"><path d="M0 432h576V0H0v432z"/></clipPath><linearGradient xlink:href="#n" id="J" gradientUnits="userSpaceOnUse" gradientTransform="matrix(21.1 0 0 -21.1 165.2 59.2)" x2="1"/><linearGradient id="n" gradientTransform="matrix(21.1 0 0 -21.1 165.2 59.2)" gradientUnits="userSpaceOnUse" x2="1"><stop offset="0" stop-color="#cddf9f"/><stop offset="1" stop-color="#99c329"/></linearGradient><linearGradient xlink:href="#o" id="K" gradientUnits="userSpaceOnUse" gradientTransform="matrix(23.6 0 0 -23.6 188.9 59.2)" x2="1"/><linearGradient id="o" gradientTransform="matrix(23.6 0 0 -23.6 188.9 59.2)" gradientUnits="userSpaceOnUse" x2="1"><stop offset="0" stop-color="#fff"/><stop offset=".169" stop-color="#a4a3a3"/><stop offset=".264" stop-color="#9d9d9c"/><stop offset=".396" stop-color="#a9a9a9"/><stop offset=".542" stop-color="#858584"/><stop offset=".626" stop-color="#818181"/><stop offset=".718" stop-color="#f0f0f0"/><stop offset=".791" stop-color="#fff"/><stop offset="1" stop-color="#1d1d1b"/></linearGradient><clipPath id="L"><path d="M0 432h576V0H0v432z"/></clipPath><linearGradient xlink:href="#p" id="M" gradientUnits="userSpaceOnUse" gradientTransform="matrix(22.9 0 0 -22.9 189.2 59.2)" x2="1"/><linearGradient id="p" gradientTransform="matrix(22.9 0 0 -22.9 189.2 59.2)" gradientUnits="userSpaceOnUse" x2="1"><stop offset="0" stop-color="#cddf9f"/><stop offset="1" stop-color="#99c329"/></linearGradient></defs><path d="M43.548 75.275c-5.323-8.06-7.272-15.827-5.346-21.308.78-2.215 2.437-3.434 4.67-3.434 1.476 0 3.115.555 4.375 1.477 2.968 2.167 5.677 8.6 7.475 12.86.562 1.33 1.002 2.382 1.345 3.044 1.056 2.04 2.352 3.12 3.743 3.12.94 0 1.9-.485 2.854-1.444 1.11-1.107.555-3.983-.492-8.59-.01-.066-1.417-8.258-1.512-13.2-.02-1.094-.05-1.982-.1-2.726 4.934 4.905 7.64 11.406 7.64 18.39 0 9.863-5.714 19.005-14.574 23.33-4.662-3.597-7.223-7.194-10.078-11.52" fill="url(#q)" transform="matrix(2 0 0 -2 -25.7 234)"/><path d="M15.822 62.586c0-14.313 11.644-25.957 25.956-25.957 4.515 0 8.943 1.173 12.847 3.397-.845.555-1.487 1.352-1.856 2.295-1.423-.954-4.214-2.326-8.507-2.326-.734 0-1.492.04-2.255.117-.648.008-10.41.257-15.632 11.143-4.353 9.065 2.69 21.313 5.005 25.336 3.148 5.473 5.804 9.67 8.362 12.138-13.262-1.28-23.92-12.84-23.92-26.144" fill="url(#r)" transform="matrix(2 0 0 -2 -25.7 234)"/><g clip-path="url(#s)" transform="matrix(2 0 0 -2 -25.7 234)"><path d="M38.395 88.293c-13.263-1.283-23.92-12.844-23.92-26.146 0-14.313 11.643-25.956 25.956-25.956 4.518 0 8.948 1.175 12.847 3.4-.846.555-1.487 1.348-1.857 2.295-1.42-.955-4.21-2.328-8.504-2.328-.733-.002-1.49.04-2.255.12-.646.003-10.408.253-15.633 11.14-4.352 9.066 2.692 21.31 5.007 25.337 3.145 5.473 5.8 9.668 8.361 12.14" fill="#7ab62a"/><path d="M57.998 69.717c.938 0 1.896-.488 2.852-1.445 1.11-1.106.554-3.983-.493-8.586-.01-.07-1.418-8.264-1.51-13.203-.02-1.098-.05-1.98-.1-2.727 4.93 4.906 7.64 11.408 7.64 18.39 0 9.866-5.714 19.003-14.575 23.333-4.664-3.6-7.222-7.2-10.075-11.52-5.325-8.06-7.273-15.83-5.348-21.31.775-2.212 2.435-3.433 4.67-3.433 1.48 0 3.113.55 4.375 1.473 2.967 2.17 5.677 8.605 7.472 12.86.563 1.333 1.005 2.388 1.345 3.046 1.056 2.04 2.35 3.12 3.746 3.12" fill="#7ab62a"/></g><path d="M38.366 88.606c-6.502-.627-12.587-3.702-17.137-8.664-4.56-4.97-7.072-11.292-7.072-17.795 0-14.487 11.785-26.274 26.273-26.274 4.56 0 9.06 1.193 13.004 3.443l.45.254-.432.286c-.794.517-1.39 1.26-1.734 2.142l-.143.367-.327-.22c-1.265-.85-4.03-2.27-8.356-2.27-.717 0-1.458.037-2.23.12-.412 0-10.187.2-15.35 10.96-4.28 8.91 2.7 21.05 4.995 25.04 3.142 5.466 5.757 9.607 8.31 12.067l.65.63-.9-.086zm-23.574-26.46c0 12.91 9.924 24.045 22.752 25.73-2.403-2.558-4.873-6.503-7.787-11.568-2.334-4.062-9.437-16.416-5.014-25.626 5.332-11.11 15.484-11.32 15.885-11.32.763-.082 1.524-.122 2.29-.122 4.14 0 6.924 1.278 8.36 2.176.334-.697.815-1.307 1.415-1.79-3.748-2.04-7.976-3.118-12.262-3.118-14.136 0-25.638 11.5-25.638 25.64" fill="url(#t)" transform="matrix(2 0 0 -2 -25.7 234)"/><path d="M51.62 85.73c-4.703-3.628-7.275-7.247-10.147-11.597-5.38-8.143-7.343-16.012-5.382-21.588.826-2.348 2.59-3.643 4.972-3.643 1.54 0 3.248.573 4.56 1.536 3.036 2.218 5.765 8.695 7.573 12.988.538 1.27.997 2.365 1.34 3.023.995 1.93 2.197 2.95 3.463 2.95.848 0 1.735-.455 2.632-1.35.99-.99.413-3.93-.582-8.312-.013-.083-1.423-8.314-1.514-13.25-.02-1.082-.055-1.97-.102-2.715l-.057-.83.593.59c4.986 4.957 7.738 11.567 7.738 18.614 0 9.965-5.79 19.238-14.754 23.617l-.177.085-.154-.12zM36.686 52.752C34.792 58.14 36.73 65.81 42 73.787c2.807 4.25 5.322 7.79 9.85 11.32 8.647-4.31 14.222-13.3 14.222-22.96 0-6.596-2.466-12.804-6.965-17.567.028.56.046 1.188.058 1.9.092 4.885 1.49 13.067 1.5 13.133 1.066 4.696 1.66 7.635.41 8.885-1.018 1.018-2.052 1.533-3.077 1.533-1.52 0-2.915-1.136-4.025-3.29-.352-.68-.82-1.787-1.362-3.074-1.778-4.223-4.467-10.604-7.36-12.72-1.21-.883-2.778-1.41-4.188-1.41-2.09 0-3.647 1.144-4.377 3.217" fill="url(#u)" transform="matrix(2 0 0 -2 -25.7 234)"/><path d="M92.32 68.285V56.947c0-.494-.175-.984-.527-1.468-.375-.532-.804-.796-1.29-.796h-5.44c-.483 0-.91.264-1.286.795-.353.483-.526.973-.526 1.467v11.338h-7.255v-9.07c0-2.756.824-4.958 2.467-6.602 1.644-1.642 3.846-2.465 6.602-2.465h5.44c2.77 0 4.973.82 6.612 2.458 1.64 1.636 2.46 3.84 2.46 6.61v9.07H92.32zm-1.816-13.92c.59 0 1.112.313 1.548.932.386.535.584 1.09.584 1.65V67.97h6.62v-8.754c0-2.667-.794-4.82-2.364-6.388-1.568-1.57-3.716-2.365-6.388-2.365h-5.44c-2.656 0-4.802.798-6.38 2.375-1.574 1.574-2.372 3.72-2.372 6.378v8.753h6.62V56.946c0-.56.2-1.117.587-1.654.434-.615.95-.928 1.544-.928h5.44z" fill="url(#v)" transform="matrix(2 0 0 -2 -25.7 234)"/><g clip-path="url(#w)" transform="matrix(2 0 0 -2 -25.7 234)"><path d="M90.504 54.365h-5.44c-.592 0-1.11.313-1.544.928-.388.537-.586 1.093-.586 1.654V67.97h-6.622v-8.753c0-2.66.798-4.805 2.373-6.38 1.577-1.576 3.722-2.374 6.38-2.374h5.44c2.67 0 4.818.795 6.388 2.365 1.57 1.568 2.365 3.72 2.365 6.39v8.75h-6.622V56.95c0-.562-.197-1.116-.584-1.65-.437-.62-.957-.933-1.548-.933" fill="#7ab62a"/></g><path d="M92.636 67.97V56.946c0-.56-.198-1.115-.584-1.65-.436-.62-.958-.932-1.548-.932h-5.44c-.593 0-1.11.313-1.545.928-.388.537-.587 1.094-.587 1.654V67.97h-6.62v-8.754c0-2.66.797-4.804 2.37-6.378 1.58-1.577 3.725-2.375 6.38-2.375h5.44c2.673 0 4.82.795 6.39 2.365 1.57 1.57 2.364 3.72 2.364 6.388v8.753h-6.62zm-2.132-13.92c.702 0 1.31.356 1.806 1.067.423.584.64 1.2.64 1.83V67.65h5.993v-8.434c0-2.583-.766-4.657-2.273-6.165-1.508-1.507-3.582-2.27-6.166-2.27h-5.44c-2.57 0-4.64.767-6.155 2.28-1.515 1.512-2.283 3.582-2.283 6.156v8.434h5.99V56.947c0-.63.22-1.248.647-1.84.494-.7 1.1-1.058 1.8-1.058h5.44z" fill="url(#x)" transform="matrix(2 0 0 -2 -25.7 234)"/><path d="M119.978 68.285v-9.088l-10.88 8.18c-.81.605-1.718.908-2.722.908-1.368 0-2.463-.416-3.292-1.244-.83-.827-1.244-1.923-1.244-3.292v-13.6h7.258v9.068l10.88-8.163c.81-.603 1.717-.905 2.72-.905 1.367 0 2.464.412 3.294 1.243.826.83 1.243 1.924 1.243 3.294v13.6h-7.257zm.316-.316h6.623V54.683c0-1.276-.385-2.31-1.146-3.073-.776-.77-1.78-1.147-3.072-1.147-.93 0-1.78.285-2.53.843l-11.39 8.54v-9.383h-6.623v13.285c0 1.293.378 2.3 1.152 3.068.772.776 1.778 1.153 3.07 1.153.926 0 1.78-.288 2.53-.847l11.387-8.56v9.406z" fill="url(#y)" transform="matrix(2 0 0 -2 -25.7 234)"/><g clip-path="url(#z)" transform="matrix(2 0 0 -2 -25.7 234)"><path d="M106.376 67.97c-1.29 0-2.297-.378-3.068-1.153-.776-.77-1.153-1.776-1.153-3.07V50.464h6.624v9.385l11.387-8.54c.75-.56 1.602-.845 2.53-.845 1.292 0 2.297.377 3.074 1.15.762.762 1.147 1.795 1.147 3.07V67.97h-6.623v-9.407l-11.386 8.56c-.753.56-1.604.846-2.532.846" fill="#7ab62a"/></g><path d="M120.294 67.97V58.56l-11.386 8.56c-.752.56-1.605.847-2.532.847-1.29 0-2.297-.378-3.07-1.154-.773-.77-1.15-1.775-1.15-3.068V50.463h6.623v9.384l11.387-8.54c.75-.56 1.6-.844 2.53-.844 1.292 0 2.297.377 3.074 1.148.762.765 1.147 1.798 1.147 3.074V67.97h-6.623zm.316-.32h5.99V54.684c0-1.188-.355-2.146-1.056-2.846-.71-.713-1.642-1.06-2.846-1.06-.857 0-1.646.265-2.342.782l-11.894 8.92v-9.7h-5.988v12.968c0 1.205.346 2.135 1.058 2.848.71.712 1.64 1.054 2.844 1.054.858 0 1.647-.262 2.34-.78l11.894-8.94v9.72z" fill="url(#A)" transform="matrix(2 0 0 -2 -25.7 234)"/><path d="M129.5 68.248v-18.1h7.255v18.137l-7.255-.037zm.316-.314l6.623.033V50.463h-6.624v17.47z" fill="url(#B)" transform="matrix(2 0 0 -2 -25.7 234)"/><g clip-path="url(#C)" transform="matrix(2 0 0 -2 -25.7 234)"><path d="M136.44 67.967l-6.623-.033v-17.47h6.623v17.503z" fill="#7ab62a"/></g><path d="M129.816 67.934v-17.47h6.623v17.503l-6.624-.033zm.316-.312l5.992.026v-16.87h-5.992v16.844z" fill="url(#D)" transform="matrix(2 0 0 -2 -25.7 234)"/><path d="M139.02 68.285v-4.537h14.512c.482 0 .913-.266 1.29-.795.35-.486.523-.974.523-1.472v-4.533c0-.494-.172-.984-.523-1.468-.377-.532-.808-.796-1.29-.796h-7.255v6.797h-7.256V50.15h14.512c2.757 0 4.958.823 6.6 2.465 1.646 1.644 2.467 3.846 2.467 6.603 0 2.77-.818 4.97-2.457 6.61-1.64 1.64-3.842 2.46-6.61 2.46H139.02zm.318-.316h14.194c2.67 0 4.818-.798 6.388-2.368 1.57-1.57 2.367-3.717 2.367-6.386 0-2.66-.802-4.804-2.377-6.378-1.573-1.577-3.722-2.375-6.378-2.375h-14.194v10.705h6.624v-6.803h7.57c.59 0 1.11.313 1.55.932.382.535.58 1.09.58 1.65v4.534c0 .563-.198 1.12-.586 1.657-.435.615-.955.93-1.544.93h-14.194v3.902z" fill="url(#E)" transform="matrix(2 0 0 -2 -25.7 234)"/><g clip-path="url(#F)" transform="matrix(2 0 0 -2 -25.7 234)"><path d="M153.532 67.97h-14.194v-3.903h14.194c.59 0 1.108-.315 1.544-.93.388-.535.585-1.094.585-1.656V56.95c0-.56-.196-1.116-.58-1.65-.44-.62-.96-.933-1.548-.933h-7.57v6.803h-6.624V50.463h14.194c2.655 0 4.805.8 6.378 2.375 1.575 1.574 2.377 3.72 2.377 6.38 0 2.667-.798 4.815-2.367 6.384-1.57 1.57-3.718 2.367-6.388 2.367" fill="#7ab62a"/></g><path d="M139.338 67.97v-3.904h14.194c.59 0 1.11-.314 1.544-.93.388-.535.585-1.093.585-1.655v-4.533c0-.56-.196-1.115-.58-1.65-.44-.62-.96-.932-1.548-.932h-7.57v6.803h-6.624V50.463h14.194c2.656 0 4.805.798 6.378 2.375 1.575 1.574 2.377 3.72 2.377 6.378 0 2.67-.797 4.817-2.367 6.386-1.57 1.57-3.718 2.367-6.388 2.367h-14.194zm.316-.32h13.878c2.582 0 4.656-.76 6.165-2.27 1.507-1.51 2.272-3.58 2.272-6.164 0-2.574-.77-4.644-2.284-6.157-1.51-1.513-3.585-2.28-6.154-2.28h-13.878V60.85h5.99V54.05h7.888c.7 0 1.307.356 1.806 1.067.425.584.64 1.2.64 1.83v4.534c0 .633-.22 1.253-.646 1.842-.493.703-1.1 1.06-1.8 1.06h-13.878v3.268z" fill="url(#G)" transform="matrix(2 0 0 -2 -25.7 234)"/><path d="M173.935 68.285c-2.768 0-4.97-.82-6.61-2.46-1.637-1.638-2.455-3.84-2.455-6.61 0-2.756.82-4.958 2.464-6.602 1.645-1.642 3.846-2.465 6.6-2.465h12.702v4.536h-12.7c-.483 0-.913.264-1.287.795-.352.483-.528.973-.528 1.467h9.978v4.534h-9.978c0 .5.176.987.527 1.473.373.53.803.795 1.285.795h12.7v4.537h-12.7zm-6.378-15.447c-1.572 1.576-2.373 3.72-2.373 6.378 0 2.67.797 4.817 2.364 6.386 1.57 1.57 3.72 2.367 6.387 2.367h12.38v-3.904h-12.38c-.587 0-1.108-.314-1.544-.933-.388-.532-.584-1.09-.584-1.652v-.312h9.977v-3.905h-9.977v-.316c0-.56.196-1.117.588-1.654.433-.615.954-.928 1.54-.928h12.38v-3.902h-12.38c-2.654 0-4.8.798-6.377 2.375" fill="url(#H)" transform="matrix(2 0 0 -2 -25.7 234)"/><g clip-path="url(#I)" transform="matrix(2 0 0 -2 -25.7 234)"><path d="M167.55 65.602c-1.57-1.568-2.365-3.717-2.365-6.385 0-2.66.8-4.803 2.372-6.38 1.577-1.575 3.723-2.374 6.378-2.374h12.38v3.903h-12.38c-.587 0-1.108.312-1.54.927-.393.538-.588 1.094-.588 1.655v.316h9.976v3.904h-9.976v.313c0 .563.195 1.122.585 1.653.435.62.956.934 1.543.934h12.38v3.902h-12.38c-2.666 0-4.816-.798-6.386-2.368" fill="#7ab62a"/></g><path d="M173.935 67.97c-2.667 0-4.816-.798-6.387-2.368-1.567-1.57-2.364-3.717-2.364-6.386 0-2.66.8-4.802 2.373-6.378 1.576-1.577 3.723-2.375 6.378-2.375h12.38v3.902h-12.38c-.587 0-1.108.313-1.54.928-.393.537-.59 1.094-.59 1.654v.316h9.978v3.905h-9.977v.313c0 .563.196 1.12.585 1.653.437.62.958.933 1.545.933h12.38v3.903h-12.38zm-6.152-14.91c-1.513 1.512-2.284 3.582-2.284 6.156 0 2.583.767 4.655 2.273 6.163 1.507 1.51 3.583 2.27 6.162 2.27H186v-3.27h-12.065c-.698 0-1.302-.357-1.8-1.06-.43-.592-.643-1.207-.643-1.84v-.628h9.976V57.58h-9.976v-.633c0-.63.217-1.248.647-1.84.493-.7 1.097-1.058 1.795-1.058H186v-3.27h-12.065c-2.57 0-4.638.767-6.152 2.28" fill="url(#J)" transform="matrix(2 0 0 -2 -25.7 234)"/><path d="M194.578 68.285c-1.696 0-3.063-.52-4.107-1.558-1.044-1.043-1.57-2.41-1.57-4.1 0-1.693.526-3.062 1.57-4.11 1.045-1.048 2.412-1.57 4.108-1.57h8.832c.363 0 .682-.1.954-.298.27-.2.408-.474.408-.826 0-.363-.135-.642-.402-.844-.265-.2-.585-.296-.96-.296H188.9v-4.536h17.92c1.68 0 3.043.524 4.09 1.575 1.043 1.05 1.567 2.42 1.567 4.1 0 1.692-.516 3.058-1.56 4.1-1.037 1.04-2.403 1.558-4.098 1.558h-8.852c-.36 0-.668.1-.923.293-.292.22-.436.5-.436.854 0 .336.14.607.416.814.277.208.593.308.942.308h14.51v4.537h-17.9zm-3.886-9.545c-.98.98-1.475 2.287-1.475 3.887 0 1.596.495 2.902 1.475 3.87.98.976 2.285 1.472 3.886 1.472h17.585v-3.904h-14.195c-.417 0-.798-.125-1.13-.37-.355-.262-.547-.634-.547-1.07 0-.444.197-.83.564-1.106.306-.237.683-.352 1.114-.352h8.85c1.6 0 2.904-.494 3.877-1.47.972-.97 1.468-2.276 1.468-3.874 0-1.586-.496-2.89-1.477-3.877-.98-.986-2.282-1.484-3.867-1.484h-17.603v3.902h14.193c.443 0 .828.12 1.152.366.342.256.523.635.523 1.094 0 .45-.182.823-.534 1.08-.325.24-.71.36-1.14.36h-8.832c-1.6 0-2.906.498-3.886 1.476" fill="url(#K)" transform="matrix(2 0 0 -2 -25.7 234)"/><g clip-path="url(#L)" transform="matrix(2 0 0 -2 -25.7 234)"><path d="M212.163 64.066v3.902h-17.585c-1.6 0-2.906-.496-3.886-1.47-.98-.97-1.475-2.276-1.475-3.87 0-1.6.495-2.908 1.475-3.888.98-.98 2.285-1.477 3.886-1.477h8.832c.43 0 .815-.12 1.14-.36.353-.257.535-.63.535-1.08 0-.458-.18-.837-.524-1.093-.322-.244-.708-.365-1.15-.365h-14.193v-3.903h17.602c1.584 0 2.886.5 3.866 1.485.98.988 1.477 2.29 1.477 3.877 0 1.597-.496 2.902-1.47 3.875-.97.973-2.276 1.468-3.874 1.468h-8.852c-.43 0-.808.115-1.114.35-.367.278-.563.663-.563 1.11 0 .434.193.805.548 1.067.332.246.713.37 1.13.37h14.195z" fill="#7ab62a"/></g><path d="M194.578 67.97c-1.6 0-2.906-.497-3.886-1.472-.98-.97-1.475-2.275-1.475-3.87 0-1.6.495-2.908 1.475-3.888.98-.978 2.285-1.477 3.886-1.477h8.832c.43 0 .815-.118 1.14-.36.353-.256.535-.63.535-1.08 0-.458-.18-.837-.523-1.092-.324-.244-.71-.365-1.152-.365h-14.193v-3.902h17.602c1.584 0 2.886.498 3.866 1.484.98.988 1.477 2.29 1.477 3.877 0 1.598-.496 2.903-1.468 3.875-.973.974-2.278 1.468-3.876 1.468h-8.852c-.43 0-.808.115-1.114.352-.367.277-.563.662-.563 1.107 0 .435.193.807.548 1.07.332.244.713.37 1.13.37h14.195v3.902h-17.585zm-3.663-9.006c-.916.918-1.383 2.15-1.383 3.663 0 1.508.467 2.736 1.383 3.653.92.91 2.148 1.37 3.663 1.37h17.268v-3.27h-13.878c-.488 0-.932-.142-1.32-.43-.43-.32-.67-.79-.67-1.323 0-.553.24-1.026.688-1.358.36-.276.8-.418 1.302-.418h8.85c1.512 0 2.743-.466 3.656-1.375.913-.915 1.372-2.143 1.372-3.653 0-1.5-.468-2.728-1.388-3.652-.916-.924-2.14-1.393-3.64-1.393h-17.286v3.27h13.878c.514 0 .964.145 1.34.424.427.32.65.786.65 1.35 0 .545-.232 1.018-.663 1.332-.38.284-.83.424-1.327.424h-8.832c-1.515 0-2.743.465-3.663 1.384" fill="url(#M)" transform="matrix(2 0 0 -2 -25.7 234)"/><path d="M131.31 149.4v6.78c0 1.06.19 1.805.574 2.223.386.42 1.05.628 1.98.628.937 0 1.594-.208 1.98-.623.378-.418.566-1.158.566-2.226v-6.78h2.386v6.843c0 .806-.052 1.45-.158 1.926-.106.476-.274.853-.507 1.133-.45.53-1.023.928-1.708 1.178-.687.256-1.54.378-2.56.378-1.016 0-1.874-.122-2.563-.377-.693-.25-1.27-.648-1.716-1.177-.23-.272-.393-.637-.495-1.102-.106-.462-.16-1.11-.16-1.957V149.4h2.38zM140.887 152.412h4.135c1.248 0 2.14.235 2.677.706.536.468.8 1.252.8 2.342v5.28h-2.197v-5.006c0-.63-.1-1.028-.285-1.216-.198-.188-.58-.278-1.166-.278h-1.765v6.5h-2.2v-8.328zM152.678 160.74h-2.308v-8.327h2.308v8.327zm0-9.28h-2.308v-2.06h2.308v2.06zM153.64 152.412h2.47l2.305 5.91 2.45-5.91h2.367l-3.697 8.328h-2.368l-3.526-8.328zM167.926 160.74c-1.378 0-2.422-.357-3.13-1.056-.707-.7-1.063-1.735-1.063-3.104 0-1.37.356-2.406 1.066-3.11.708-.71 1.752-1.057 3.126-1.057h3.21v1.733h-2.913c-.794 0-1.33.114-1.605.344-.28.223-.423.634-.447 1.22h4.966v1.742h-4.965c.025.59.16 1.002.414 1.222.256.22.797.325 1.63.325h2.922v1.74h-3.21zM172.538 152.412h3.7c.863 0 1.468.157 1.814.465.35.31.52.862.52 1.633v1.39h-2.1v-1.073c0-.325-.055-.543-.17-.653-.117-.11-.382-.17-.79-.17h-.776v6.736h-2.198v-8.328zM179.837 159h4.64c.41 0 .71-.064.9-.194.184-.12.276-.336.276-.613 0-.29-.092-.49-.28-.623-.194-.128-.49-.2-.896-.2h-1.9c-1.123 0-1.887-.165-2.28-.51-.398-.346-.594-.96-.594-1.84 0-.902.238-1.556.715-1.978.48-.42 1.218-.63 2.22-.63h4.723v1.734h-3.88c-.634 0-1.042.058-1.233.164-.188.118-.284.31-.284.59 0 .264.084.452.25.568.166.118.43.184.792.184h1.99c.91 0 1.606.213 2.08.638.484.418.72 1.033.72 1.84 0 .774-.212 1.397-.637 1.886-.427.48-.972.724-1.64.724h-5.68V159zM191.667 160.74h-2.304v-8.327h2.304v8.327zm0-9.28h-2.304v-2.06h2.304v2.06zM199.08 158.955v-4.742h-1.325c-.886 0-1.517.18-1.892.555-.373.376-.56.994-.56 1.863 0 .85.17 1.446.512 1.796.345.353.93.53 1.765.53h1.5zm2.195 1.786h-4.226c-1.27 0-2.27-.376-2.982-1.127-.713-.756-1.072-1.8-1.072-3.146 0-.55.078-1.05.224-1.51.145-.464.377-.882.678-1.27.358-.45.79-.783 1.3-.977.505-.2 1.174-.3 2.004-.3h1.88V149.4h2.193v11.343zM206.284 159.065h2.755v-1.72h-2.594c-.513 0-.87.07-1.066.205-.196.14-.293.38-.293.722 0 .3.077.5.237.62.158.115.475.173.96.173m-2.926-6.652h4.51c1.135 0 1.99.258 2.567.777.577.53.862 1.305.862 2.333v5.217h-5.907c-.828 0-1.467-.208-1.908-.623-.45-.423-.67-1.01-.67-1.78 0-.947.256-1.628.765-2.04.515-.406 1.364-.616 2.554-.616h2.893v-.208c0-.484-.145-.84-.437-1.04-.293-.196-.808-.306-1.555-.306h-3.672v-1.713zM218.736 158.955v-4.742h-1.324c-.892 0-1.525.18-1.896.555-.373.376-.56.994-.56 1.863 0 .85.17 1.446.514 1.796.345.353.928.53 1.76.53h1.506zm2.194 1.786h-4.222c-1.276 0-2.272-.376-2.99-1.127-.708-.756-1.07-1.8-1.07-3.146 0-.55.075-1.05.223-1.51.15-.464.38-.882.685-1.27.356-.45.793-.783 1.3-.977.503-.2 1.17-.3 2-.3h1.88V149.4h2.195v11.343zM231.177 154.212v4.743h1.342c.887 0 1.52-.188 1.89-.563.37-.377.558-1.002.558-1.87 0-.85-.17-1.444-.51-1.79-.34-.35-.93-.52-1.767-.52h-1.513zm-2.2-1.8h4.237c1.277 0 2.273.372 2.988 1.123.71.756 1.07 1.8 1.07 3.142 0 .553-.074 1.058-.22 1.52-.153.454-.38.876-.68 1.26-.36.458-.793.79-1.3.977-.505.208-1.17.306-2.006.306h-1.89v3.014h-2.2v-11.34zM241.71 159.065h2.755v-1.72h-2.595c-.515 0-.87.07-1.064.205-.196.14-.296.38-.296.722 0 .3.08.5.24.62.156.115.477.173.96.173m-2.928-6.652h4.51c1.135 0 1.992.258 2.567.777.578.53.867 1.305.867 2.333v5.217h-5.91c-.83 0-1.468-.208-1.91-.623-.45-.423-.668-1.01-.668-1.78 0-.947.254-1.628.765-2.04.51-.406 1.36-.616 2.55-.616h2.892v-.208c0-.484-.144-.84-.437-1.04-.29-.196-.805-.306-1.55-.306h-3.678v-1.713zM248.646 152.412h3.695c.865 0 1.474.157 1.82.465.345.31.523.862.523 1.633v1.39h-2.1v-1.073c0-.325-.06-.543-.172-.653-.12-.11-.382-.17-.794-.17h-.77v6.736h-2.2v-8.328zM259.17 159.065h2.756v-1.72h-2.592c-.513 0-.87.07-1.064.205-.2.14-.297.38-.297.722 0 .3.078.5.237.62.16.115.48.173.96.173m-2.922-6.652h4.506c1.134 0 1.992.258 2.57.777.576.53.862 1.305.862 2.333v5.217h-5.908c-.83 0-1.465-.208-1.908-.623-.447-.423-.67-1.01-.67-1.78 0-.947.257-1.628.768-2.04.51-.406 1.36-.616 2.55-.616h2.894v-.208c0-.484-.15-.84-.438-1.04-.29-.196-.81-.306-1.55-.306h-3.676v-1.713zM279.768 160.74h-4.144c-1.218 0-2.102-.243-2.647-.723-.535-.49-.81-1.26-.81-2.325v-5.28h2.19v5.096c0 .56.1.928.29 1.114.194.184.578.283 1.15.283h1.77v-6.492h2.2v8.327zM281.74 152.412h4.14c1.25 0 2.14.235 2.678.706.535.468.8 1.252.8 2.342v5.28h-2.196v-5.006c0-.63-.102-1.028-.29-1.216-.197-.188-.582-.278-1.163-.278h-1.766v6.5h-2.204v-8.328zM297.34 152.412h8.446c1.224 0 2.108.24 2.645.716.54.482.814 1.252.814 2.332v5.28h-2.218v-4.994c0-.615-.094-1.013-.274-1.212-.186-.2-.57-.294-1.14-.294h-1.238v6.5h-2.247v-6.5h-2.566v6.5h-2.22v-8.328zM318.74 160.74h-4.14c-1.223 0-2.102-.243-2.645-.723-.543-.49-.814-1.26-.814-2.325v-5.28h2.19v5.096c0 .56.1.928.292 1.114.192.184.573.283 1.154.283h1.767v-6.492h2.198v8.327zM320.715 152.412h4.142c1.246 0 2.138.235 2.673.706.535.468.803 1.252.803 2.342v5.28h-2.204v-5.006c0-.63-.093-1.028-.285-1.216-.2-.188-.58-.278-1.16-.278h-1.768v6.5h-2.202v-8.328zM335.716 158.955v-4.742h-1.325c-.888 0-1.52.18-1.888.555-.38.376-.57.994-.57 1.863 0 .85.173 1.446.516 1.796.342.353.935.53 1.765.53h1.503zm2.196 1.786h-4.222c-1.276 0-2.274-.376-2.988-1.127-.715-.756-1.075-1.8-1.075-3.146 0-.55.08-1.05.226-1.51.146-.464.377-.882.68-1.27.356-.45.795-.783 1.3-.977.502-.2 1.172-.3 2-.3h1.883V149.4h2.196v11.343zM341.576 156.58c0 .79.184 1.408.553 1.847.37.443.885.665 1.55.665.657 0 1.176-.222 1.55-.665.377-.44.564-1.056.564-1.847 0-.792-.183-1.41-.56-1.847-.372-.443-.89-.662-1.554-.662-.657 0-1.174.22-1.55.667-.37.442-.554 1.05-.554 1.843m6.526 0c0 1.302-.4 2.348-1.192 3.134-.794.775-1.866 1.164-3.214 1.164-1.35 0-2.425-.393-3.222-1.174-.806-.784-1.206-1.826-1.206-3.124 0-1.306.4-2.356 1.206-3.138.797-.787 1.87-1.17 3.222-1.17 1.334 0 2.404.383 3.204 1.17.803.782 1.202 1.832 1.202 3.138M355.56 152.412h8.446c1.22 0 2.106.24 2.645.716.542.482.81 1.252.81 2.332v5.28h-2.212v-4.994c0-.615-.098-1.013-.28-1.212-.183-.2-.565-.294-1.142-.294h-1.235v6.5h-2.243v-6.5h-2.57v6.5h-2.218v-8.328zM373.132 160.74c-1.38 0-2.423-.357-3.128-1.056-.71-.7-1.062-1.735-1.062-3.104 0-1.37.35-2.406 1.064-3.11.71-.71 1.753-1.057 3.126-1.057h3.21v1.733h-2.91c-.797 0-1.336.114-1.607.344-.278.223-.422.634-.445 1.22h4.962v1.742h-4.962c.023.59.16 1.002.415 1.222.25.22.794.325 1.623.325h2.924v1.74h-3.21z" fill="#3c3c3b"/><path d="M380.054 151.46h-2.305v-2.06h2.304v2.06zm-3.4 10.544c.396 0 .673-.134.84-.39.17-.267.255-.722.255-1.36v-7.84h2.304v7.915c0 1.18-.237 2.05-.714 2.598-.47.55-1.21.825-2.226.825h-1.42v-1.75h.96zM383.702 156.58c0 .79.186 1.408.557 1.847.37.443.884.665 1.55.665.657 0 1.174-.222 1.548-.665.38-.44.566-1.056.566-1.847 0-.792-.187-1.41-.56-1.847-.374-.443-.89-.662-1.554-.662-.66 0-1.172.22-1.547.667-.373.442-.56 1.05-.56 1.843m6.527 0c0 1.302-.395 2.348-1.194 3.134-.79.775-1.864 1.164-3.212 1.164-1.345 0-2.423-.393-3.224-1.174-.808-.784-1.204-1.826-1.204-3.124 0-1.306.396-2.356 1.204-3.138.8-.787 1.88-1.17 3.224-1.17 1.338 0 2.408.383 3.208 1.17.8.782 1.198 1.832 1.198 3.138M391.572 152.412h3.696c.864 0 1.47.157 1.818.465.348.31.52.862.52 1.633v1.39h-2.1v-1.073c0-.325-.053-.543-.174-.653-.112-.11-.378-.17-.79-.17h-.77v6.736h-2.2v-8.328zM26.934 0v11.486c0 .913.072 1.633.225 2.138.15.513.403.943.77 1.298.814.792 1.94 1.178 3.374 1.178.916 0 1.713-.152 2.4-.465.682-.302 1.155-.725 1.415-1.26.274-.54.408-1.507.408-2.89V.002h4.07v11.287c0 1.487-.153 2.723-.46 3.695-.306.97-.797 1.753-1.458 2.342-1.51 1.33-3.66 1.994-6.446 1.994-2.96 0-5.123-.65-6.488-1.953-.71-.682-1.2-1.437-1.474-2.27-.275-.834-.405-2.004-.405-3.515V0h4.067zM43.108 5.166h7.43c1.102 0 1.95.075 2.54.24.592.155 1.12.454 1.585.885.984.892 1.477 2.305 1.477 4.25v8.624h-3.845V10.11c0-.694-.156-1.19-.465-1.495-.31-.307-.815-.46-1.52-.46h-3.353v11.01h-3.85v-14zM59.748 5.165h3.845v13.998h-3.845V5.165zm0-5.165h3.845v3.733h-3.845V0zM73.478 14.8l3.905-9.634h4.072l-6.037 14h-4.13l-5.588-14h4.2l3.578 9.635zM94.303 10.657v2.99h-8.118c.074.915.374 1.564.893 1.95.517.382 1.36.574 2.517.574h4.708v2.994h-5.127c-1.112 0-2.02-.098-2.717-.292-.698-.196-1.36-.537-1.987-1.014-1.695-1.308-2.544-3.268-2.544-5.867 0-1.706.454-3.18 1.35-4.44.618-.858 1.358-1.467 2.217-1.84.86-.363 1.996-.543 3.4-.543h5.406v2.99h-5.127c-1.048 0-1.785.176-2.21.532-.43.358-.687 1.01-.78 1.967h8.117zM97.475 5.166h5.7c1.163 0 2.062.075 2.704.24.638.155 1.173.434 1.604.828.422.385.717.858.887 1.43.17.57.252 1.392.252 2.462v1.36h-3.69v-.755c0-1-.177-1.674-.53-2.033-.347-.36-1.008-.54-1.972-.54h-1.108v11.007h-3.847V5.166zM123.27 5.166v2.99h-6.824c-.78 0-1.276.036-1.49.114-.44.152-.662.52-.662 1.122 0 .493.213.878.633 1.136.227.15.848.227 1.87.227h2.274c1.452 0 2.596.312 3.44.943.935.69 1.404 1.706 1.404 3.048 0 1.006-.28 1.938-.844 2.79-.43.654-.948 1.09-1.557 1.3-.61.22-1.617.328-3.02.328h-7.958V16.17h6.85c.85 0 1.43-.01 1.742-.04.68-.072 1.026-.46 1.026-1.15 0-.58-.23-.973-.677-1.196-.24-.118-.806-.18-1.683-.18h-2.33c-.91 0-1.608-.054-2.1-.164-.49-.12-.95-.32-1.37-.624-.512-.374-.92-.88-1.22-1.516-.3-.635-.452-1.325-.452-2.06 0-1.41.516-2.52 1.534-3.342.61-.49 1.67-.732 3.186-.732h8.23zM126.91 5.165h3.842v13.998h-3.843V5.165zm0-5.165h3.842v3.733h-3.843V0zM143.924 16.17V8.157h-2.784c-1.224 0-2.155.41-2.793 1.22-.54.706-.813 1.6-.813 2.697 0 1.585.453 2.717 1.362 3.397.628.47 1.38.7 2.244.7h2.784zm0-11.003V0h3.845v19.164h-6.63c-1.348 0-2.356-.11-3.03-.308-1.65-.513-2.876-1.53-3.68-3.05-.543-1.028-.815-2.272-.815-3.733 0-2.406.805-4.273 2.416-5.604 1.047-.868 2.472-1.303 4.27-1.303h3.624zM161.248 13.647h-4.454l-.645-.016c-.444 0-.787.12-1.043.353-.26.235-.39.543-.39.94 0 .46.157.782.47.97.32.188.85.278 1.607.278h4.454v-2.523zm0-2.99c0-.982-.198-1.647-.6-1.983-.394-.345-1.175-.517-2.335-.517h-6.516v-2.99h6.516c1.16 0 1.963.022 2.406.062.444.04.89.132 1.342.27 2.125.805 3.135 2.73 3.033 5.77v7.895h-8.117c-1.45 0-2.454-.04-3.013-.13-.555-.08-1.044-.265-1.465-.547-1.144-.768-1.713-1.926-1.713-3.467 0-.946.228-1.784.68-2.52.458-.733 1.053-1.23 1.79-1.494.654-.233 1.748-.35 3.272-.35h4.718zM178.052 16.17V8.157h-2.78c-1.223 0-2.157.41-2.79 1.22-.547.706-.82 1.6-.82 2.697 0 1.585.458 2.717 1.363 3.397.63.47 1.38.7 2.248.7h2.78zm0-11.003V0h3.85v19.164h-6.63c-1.35 0-2.36-.11-3.03-.308-1.65-.513-2.873-1.53-3.677-3.05-.545-1.028-.817-2.272-.817-3.733 0-2.406.807-4.273 2.416-5.604 1.048-.868 2.472-1.303 4.266-1.303h3.622zM192.96 0h4.07v19.163h-4.07V0zM200.883 5.166h7.428c1.1 0 1.952.075 2.54.24.592.155 1.117.454 1.588.885.984.892 1.473 2.305 1.473 4.25v8.624h-3.848V10.11c0-.694-.152-1.19-.46-1.495-.31-.307-.816-.46-1.516-.46h-3.358v11.01h-3.845v-14zM218.533 5.166V0h3.847v5.166h3.564v2.99h-3.564v5.083c0 1.185.104 1.933.32 2.245.33.46.9.686 1.73.686h1.514v2.994h-2.79c-1.67 0-2.856-.4-3.563-1.208-.705-.804-1.057-2.152-1.057-4.048V8.156h-2.447v-2.99h2.447zM239.72 10.657v2.99h-8.115c.068.915.373 1.564.888 1.95.522.382 1.36.574 2.522.574h4.705v2.994h-5.13c-1.108 0-2.015-.098-2.72-.292-.692-.196-1.35-.537-1.98-1.014-1.693-1.308-2.543-3.268-2.543-5.867 0-1.706.453-3.18 1.347-4.44.62-.858 1.364-1.467 2.222-1.84.86-.363 1.995-.543 3.398-.543h5.406v2.99h-5.13c-1.044 0-1.78.176-2.206.532-.428.358-.685 1.01-.78 1.967h8.116zM242.892 5.166h5.7c1.16 0 2.062.075 2.7.24.644.155 1.18.434 1.612.828.42.385.715.858.883 1.43.167.57.25 1.392.25 2.462v1.36h-3.692v-.755c0-1-.17-1.674-.527-2.033-.348-.36-1.006-.54-1.967-.54h-1.11v11.007h-3.848V5.166zM256.144 5.166h7.428c1.104 0 1.952.075 2.54.24.59.155 1.12.454 1.59.885.983.892 1.468 2.305 1.468 4.25v8.624h-3.847V10.11c0-.694-.15-1.19-.46-1.495-.31-.307-.814-.46-1.513-.46h-3.363v11.01h-3.843v-14zM282.456 13.647h-4.452l-.645-.016c-.442 0-.79.12-1.047.353-.26.235-.39.543-.39.94 0 .46.157.782.476.97.316.188.85.278 1.604.278h4.452v-2.523zm0-2.99c0-.982-.2-1.647-.593-1.983-.4-.345-1.18-.517-2.342-.517h-6.513v-2.99h6.514c1.163 0 1.966.022 2.41.062.446.04.89.132 1.338.27 2.13.805 3.14 2.73 3.035 5.77v7.895h-8.117c-1.45 0-2.456-.04-3.01-.13-.556-.08-1.045-.265-1.468-.547-1.142-.768-1.71-1.926-1.71-3.467 0-.946.223-1.784.68-2.52.45-.733 1.048-1.23 1.79-1.494.655-.233 1.745-.35 3.27-.35h4.718zM301.58 5.166v2.99h-4.62c-1.536 0-2.61.35-3.218 1.038-.57.657-.86 1.65-.86 2.977 0 1.508.472 2.6 1.407 3.273.388.283.8.473 1.252.575.447.102 1.074.153 1.88.153h4.157v2.994h-5.267c-1.412 0-2.53-.14-3.356-.423-.825-.287-1.56-.796-2.204-1.51-1.198-1.336-1.793-3.04-1.793-5.097 0-2.49.72-4.356 2.158-5.588.57-.5 1.26-.85 2.065-1.066.804-.207 1.848-.314 3.13-.314h5.266zM304.555 5.165h3.848v13.998h-3.848V5.165zm0-5.165h3.848v3.733h-3.848V0zM318.68 7.902c-2.318 0-3.472 1.44-3.472 4.316 0 1.166.187 2.056.565 2.66.625 1.03 1.603 1.55 2.934 1.55 2.282 0 3.426-1.427 3.426-4.284 0-2.793-1.156-4.214-3.454-4.242m-.032-2.948c2.583 0 4.497.748 5.727 2.247 1.136 1.37 1.7 3.084 1.7 5.14 0 2.188-.706 3.937-2.133 5.24-1.3 1.194-3.08 1.793-5.352 1.793-2.34 0-4.17-.67-5.502-2.008-1.214-1.222-1.82-2.99-1.82-5.292 0-1.963.584-3.6 1.754-4.898 1.3-1.453 3.174-2.188 5.626-2.22M328.94 5.166h7.427c1.106 0 1.956.075 2.543.24.587.155 1.118.454 1.587.885.983.892 1.474 2.305 1.474 4.25v8.624h-3.848V10.11c0-.694-.154-1.19-.465-1.495-.31-.307-.81-.46-1.512-.46h-3.356v11.01h-3.85v-14zM355.257 13.647h-4.452l-.647-.016c-.443 0-.788.12-1.048.353-.26.235-.387.543-.387.94 0 .46.157.782.473.97.313.188.85.278 1.61.278h4.45v-2.523zm0-2.99c0-.982-.206-1.647-.6-1.983-.4-.345-1.177-.517-2.34-.517h-6.51v-2.99h6.51c1.163 0 1.966.022 2.41.062.442.04.89.132 1.34.27 2.128.805 3.137 2.73 3.03 5.77v7.895h-8.114c-1.448 0-2.452-.04-3.01-.13-.558-.08-1.047-.265-1.464-.547-1.147-.768-1.716-1.926-1.716-3.467 0-.946.226-1.784.68-2.52.452-.733 1.053-1.23 1.79-1.494.654-.233 1.746-.35 3.275-.35h4.717zM366.54 19.165h-3.848V.002h3.85v19.163zM3.85 36.908v8.015h2.355c1.245 0 2.164-.263 2.753-.798.804-.717 1.21-1.813 1.21-3.284 0-1.263-.324-2.233-.96-2.91-.634-.68-1.548-1.022-2.734-1.022H3.85zM0 33.918h6.728c1.31 0 2.3.083 2.972.247.677.16 1.312.48 1.913.95 1.663 1.308 2.497 3.316 2.497 6.023 0 2.052-.613 3.715-1.838 4.983-.61.63-1.312 1.09-2.105 1.37-.798.282-1.77.43-2.926.43H3.85v5.264H0V33.92zM26.635 42.4H22.18l-.645-.013c-.438 0-.785.114-1.044.348-.253.235-.385.547-.385.94 0 .46.156.785.473.97.314.192.85.278 1.603.278h4.455V42.4zm0-2.99c0-.983-.2-1.642-.597-1.985-.4-.344-1.177-.516-2.34-.516h-6.515v-2.99H23.7c1.16 0 1.965.017 2.406.06.45.043.89.137 1.344.278 2.124.803 3.136 2.725 3.03 5.768v7.895h-8.113c-1.45 0-2.453-.043-3.012-.13-.56-.086-1.043-.268-1.466-.55-1.147-.764-1.718-1.922-1.718-3.463 0-.948.23-1.785.68-2.517.46-.743 1.055-1.238 1.794-1.502.655-.237 1.747-.35 3.272-.35h4.717zM34.078 33.918h5.7c1.16 0 2.058.082 2.703.243.643.157 1.174.435 1.606.822.42.39.72.866.884 1.44.17.572.254 1.385.254 2.455v1.357H41.53v-.756c0-.99-.175-1.663-.52-2.025-.356-.365-1.015-.545-1.977-.545h-1.108V47.92h-3.847V33.918zM56.837 42.4h-4.453l-.645-.013c-.44 0-.788.114-1.045.348-.258.235-.388.547-.388.94 0 .46.156.785.47.97.315.192.85.278 1.607.278h4.453V42.4zm0-2.99c0-.983-.2-1.642-.6-1.985-.394-.344-1.178-.516-2.338-.516h-6.515v-2.99H53.9c1.16 0 1.967.017 2.408.06.448.043.893.137 1.342.278 2.126.803 3.134 2.725 3.032 5.768v7.895H52.57c-1.452 0-2.456-.043-3.015-.13-.553-.086-1.046-.268-1.462-.55-1.147-.764-1.718-1.922-1.718-3.463 0-.948.227-1.785.682-2.517.452-.743 1.052-1.238 1.79-1.502.654-.237 1.746-.35 3.27-.35h4.72zM82.896 39.41v2.988H74.78c.075.92.374 1.573.893 1.954.52.382 1.358.57 2.52.57h4.703v2.998H77.77c-1.112 0-2.017-.098-2.717-.296-.697-.197-1.36-.537-1.985-1.01-1.695-1.313-2.54-3.268-2.54-5.87 0-1.704.448-3.183 1.346-4.435.62-.867 1.36-1.48 2.218-1.84.857-.367 1.995-.55 3.4-.55h5.404v2.988H77.77c-1.047 0-1.783.18-2.21.537-.43.35-.687 1.008-.78 1.964h8.116zM89.917 47.92H86.07V28.753h3.847V47.92zM105.054 32.165v12.343h4.057c1.778 0 3.012-.4 3.706-1.195.42-.49.76-1.18 1.018-2.085.26-.904.386-1.866.386-2.884 0-1.128-.152-2.156-.455-3.1-.306-.947-.71-1.654-1.216-2.113-.73-.64-1.876-.965-3.44-.965h-4.056zm-4.072-3.412h8.13c2.03 0 3.602.202 4.714.607 2.05.74 3.422 2.1 4.1 4.093.526 1.53.788 3.17.788 4.915 0 1.734-.248 3.37-.747 4.903-.495 1.574-1.322 2.732-2.484 3.468-.73.47-1.527.78-2.39.943-.87.154-2.197.24-3.982.24h-8.128V28.753zM132.95 39.41v2.988h-8.117c.08.92.373 1.573.894 1.954.52.382 1.36.57 2.523.57h4.7v2.998h-5.125c-1.112 0-2.016-.098-2.71-.296-.704-.197-1.364-.537-1.99-1.01-1.696-1.313-2.545-3.268-2.545-5.87 0-1.704.455-3.183 1.348-4.435.62-.867 1.36-1.48 2.22-1.84.86-.367 1.994-.55 3.398-.55h5.404v2.988h-5.125c-1.046 0-1.783.18-2.21.537-.425.35-.685 1.008-.782 1.964h8.117zM148.27 33.918v2.99h-6.823c-.778 0-1.272.04-1.49.114-.44.152-.66.525-.66 1.126 0 .493.212.874.63 1.136.225.148.85.222 1.872.222h2.272c1.45 0 2.598.313 3.438.944.938.695 1.407 1.71 1.407 3.044 0 1.014-.28 1.945-.844 2.8-.43.652-.95 1.083-1.56 1.3-.608.218-1.614.326-3.016.326h-7.96v-2.998h6.85c.85 0 1.432-.012 1.745-.038.677-.074 1.018-.455 1.018-1.148 0-.58-.22-.986-.668-1.192-.25-.126-.81-.18-1.687-.18h-2.332c-.908 0-1.605-.062-2.096-.173-.493-.113-.948-.315-1.37-.622-.52-.37-.928-.88-1.223-1.513-.302-.635-.446-1.328-.446-2.06 0-1.408.507-2.524 1.528-3.345.606-.485 1.67-.732 3.186-.732h8.23zM161.58 42.4h-4.45l-.646-.013c-.443 0-.792.114-1.046.348-.257.235-.387.547-.387.94 0 .46.16.785.472.97.312.192.847.278 1.607.278h4.45V42.4zm0-2.99c0-.983-.198-1.642-.598-1.985-.395-.344-1.176-.516-2.34-.516h-6.51v-2.99h6.51c1.164 0 1.97.017 2.408.06.445.043.896.137 1.342.278 2.128.803 3.138 2.725 3.036 5.768v7.895h-8.117c-1.448 0-2.45-.043-3.01-.13-.555-.086-1.048-.268-1.47-.55-1.14-.764-1.714-1.922-1.714-3.463 0-.948.232-1.785.687-2.517.453-.743 1.052-1.238 1.79-1.502.654-.237 1.746-.35 3.27-.35h4.718zM169.022 33.918h5.698c1.163 0 2.064.082 2.703.243.644.157 1.177.435 1.61.822.422.39.717.866.883 1.44.168.572.252 1.385.252 2.455v1.357h-3.69v-.756c0-.99-.175-1.663-.53-2.025-.35-.365-1.007-.545-1.973-.545h-1.108V47.92h-3.845V33.918zM182.277 33.918h5.702c1.16 0 2.055.082 2.7.243.64.157 1.174.435 1.61.822.418.39.714.866.883 1.44.166.572.25 1.385.25 2.455v1.357h-3.688v-.756c0-.99-.18-1.663-.53-2.025-.352-.365-1.01-.545-1.973-.545h-1.106V47.92h-3.85V33.918zM202.464 36.658c-2.31 0-3.468 1.436-3.468 4.316 0 1.162.184 2.05.565 2.66.624 1.03 1.604 1.547 2.932 1.547 2.28 0 3.432-1.43 3.432-4.285 0-2.8-1.16-4.205-3.46-4.237m-.028-2.952c2.585 0 4.494.752 5.728 2.246 1.133 1.37 1.702 3.082 1.702 5.144 0 2.188-.718 3.94-2.14 5.235-1.3 1.196-3.082 1.803-5.346 1.803-2.342 0-4.176-.67-5.504-2.012-1.216-1.225-1.826-2.99-1.826-5.29 0-1.968.584-3.6 1.758-4.9 1.298-1.452 3.175-2.188 5.628-2.224M216.573 47.92h-3.843V28.753h3.843V47.92zM224.227 47.92h-3.85V28.753h3.85V47.92zM234.5 36.658c-2.31 0-3.463 1.436-3.463 4.316 0 1.162.184 2.05.56 2.66.624 1.03 1.606 1.547 2.934 1.547 2.28 0 3.43-1.43 3.43-4.285 0-2.8-1.16-4.205-3.46-4.237m-.027-2.952c2.583 0 4.492.752 5.733 2.246 1.126 1.37 1.695 3.082 1.695 5.144 0 2.188-.71 3.94-2.135 5.235-1.3 1.196-3.082 1.803-5.348 1.803-2.342 0-4.176-.67-5.504-2.012-1.216-1.225-1.825-2.99-1.825-5.29 0-1.968.585-3.6 1.757-4.9 1.3-1.452 3.176-2.188 5.628-2.224M251.963 47.92v-3.412h8.752c1.406 0 2.336-.14 2.805-.42.677-.41 1.008-1.012 1.008-1.81 0-.932-.393-1.61-1.172-2.044-.453-.242-1.168-.356-2.152-.356h-3.55c-2.175 0-3.736-.4-4.69-1.184-.6-.5-1.065-1.12-1.406-1.872-.336-.76-.507-1.557-.507-2.41 0-1.347.392-2.58 1.18-3.695.77-1.072 2-1.7 3.694-1.88.57-.058 1.425-.084 2.557-.084h9.504v3.413h-8.577c-1.28.008-2.132.062-2.555.172-.86.21-1.293.864-1.293 1.944 0 .92.362 1.538 1.08 1.86.488.21 1.292.32 2.414.32h3.078c1.568 0 2.745.134 3.522.402 1.358.463 2.29 1.265 2.795 2.42.414.926.614 1.916.614 2.978 0 1.158-.264 2.198-.795 3.126-.753 1.316-1.883 2.094-3.383 2.348-.736.122-1.83.184-3.29.184h-9.634zM278.42 36.658c-2.313 0-3.467 1.436-3.467 4.316 0 1.162.183 2.05.56 2.66.62 1.03 1.608 1.547 2.935 1.547 2.282 0 3.426-1.43 3.426-4.285 0-2.8-1.154-4.205-3.454-4.237m-.03-2.952c2.584 0 4.494.752 5.732 2.246 1.126 1.37 1.693 3.082 1.693 5.144 0 2.188-.71 3.94-2.134 5.235-1.3 1.196-3.085 1.803-5.345 1.803-2.344 0-4.177-.67-5.504-2.012-1.215-1.225-1.822-2.99-1.822-5.29 0-1.968.58-3.6 1.75-4.9 1.302-1.452 3.18-2.188 5.63-2.224M300.826 33.918v2.99H294c-.776 0-1.27.04-1.488.114-.438.152-.66.525-.66 1.126 0 .493.214.874.636 1.136.223.148.846.222 1.862.222h2.278c1.45 0 2.595.313 3.438.944.94.695 1.405 1.71 1.405 3.044 0 1.014-.282 1.945-.84 2.8-.43.652-.948 1.083-1.56 1.3-.61.218-1.614.326-3.02.326h-7.956v-2.998h6.847c.856 0 1.434-.012 1.744-.038.68-.074 1.024-.455 1.024-1.148 0-.58-.224-.986-.675-1.192-.24-.126-.804-.18-1.68-.18h-2.332c-.91 0-1.608-.062-2.096-.173-.493-.113-.952-.315-1.377-.622-.51-.37-.92-.88-1.216-1.513-.302-.635-.448-1.328-.448-2.06 0-1.408.507-2.524 1.527-3.345.606-.485 1.67-.732 3.19-.732h8.226zM305.306 33.918v-5.165h3.845v5.165h3.566v2.99h-3.565v5.083c0 1.195.106 1.943.326 2.255.327.455.9.677 1.727.677h1.513v2.998h-2.79c-1.67 0-2.85-.407-3.562-1.204-.705-.812-1.058-2.156-1.058-4.052v-5.756h-2.444v-2.99h2.444zM326.492 39.41v2.988h-8.117c.076.92.37 1.573.893 1.954.517.382 1.36.57 2.52.57h4.704v2.998h-5.128c-1.112 0-2.017-.098-2.715-.296-.698-.197-1.36-.537-1.986-1.01-1.697-1.313-2.54-3.268-2.54-5.87 0-1.704.444-3.183 1.345-4.435.62-.867 1.354-1.48 2.216-1.84.863-.367 1.995-.55 3.4-.55h5.406v2.988h-5.128c-1.044 0-1.785.18-2.21.537-.427.35-.685 1.008-.78 1.964h8.118zM329.667 33.918h7.424c1.11 0 1.953.082 2.546.243.59.157 1.118.455 1.587.886.98.884 1.472 2.304 1.472 4.25v8.624h-3.85v-9.06c0-.692-.153-1.185-.46-1.493-.31-.303-.82-.46-1.516-.46h-3.358V47.92h-3.845V33.918zM346.304 33.918h3.847V47.92h-3.846V33.918zm0-5.165h3.847v3.736h-3.846v-3.737zM357.8 36.908v8.015h2.854c1.214 0 2.126-.37 2.72-1.12.63-.79.943-1.78.943-2.962 0-2.62-1.22-3.932-3.663-3.932H357.8zm0-2.99h3.413c1.5 0 2.715.23 3.65.69 1.28.637 2.207 1.607 2.766 2.907.412.974.62 2.046.62 3.208 0 2.84-1.032 4.897-3.09 6.17-.637.394-1.306.663-2 .805-.7.152-1.676.222-2.943.222h-6.263V28.753h3.847v5.166zM374.958 47.92h-3.845V28.753h3.845V47.92zM390.188 39.41v2.988h-8.113c.077.92.373 1.573.892 1.954.523.382 1.36.57 2.52.57h4.7v2.998h-5.124c-1.108 0-2.014-.098-2.71-.296-.698-.197-1.364-.537-1.987-1.01-1.693-1.313-2.542-3.268-2.542-5.87 0-1.704.446-3.183 1.346-4.435.62-.867 1.36-1.48 2.22-1.84.86-.367 1.99-.55 3.4-.55h5.398v2.988h-5.125c-1.044 0-1.783.18-2.204.537-.43.35-.69 1.008-.785 1.964h8.113z" fill="#3c3c3b"/></svg>