<svg xmlns="http://www.w3.org/2000/svg" width="400" height="283.088"><path d="M150.616 28.245c.23-23.122-11.326-25.52-23.005-26.85C119.464.462 85.94-.116 73.444.018c-8.528.09-49.246.235-60.566 4.878C6.275 7.605 2.573 13.26.963 21.13-.097 26.31.305 32.69.048 38.65c-.262 6.068.647 81.806.52 106.395-.092 17.178.047 29.2-.23 46.96-.098 5.93.667 13.007 1.716 16.703 2.322 8.16 9.54 17.42 30.703 17.634 12.15.123 35.342.107 48.005-.118 1.145 10.85-.08 27.69-7.137 47.336-.503 1.407-1.027 2.82-1.594 4.248-.01.037-.03.075-.042.112-.67 1.546-1.396 3.012-.337 4.205.793.894 1.65 1.225 2.922.74.562-.215 1.113-.5 1.658-.804l-.096.065s.07-.037.16-.096c.905-.51 1.777-1.114 2.627-1.75 7.7-5.44 29.12-23.968 34.7-53.216 10.187.064 20.09-.888 25.905-4.927 8.384-5.82 11.075-14.145 11.075-28.403 0-85.31.016-165.49.016-165.49M135.176 157.5c.257 28.09-.803 48.373-.803 48.373-.898 15.616-26.455 15.927-26.455 15.927-2.573 33.287-30.965 55.665-30.965 55.665 1.653-3.295 3.108-6.537 4.376-10.517 4.75-14.846 6.43-25.59 6.868-31.185.83-9.518.738-17.628-2.22-23.925-2.39-5.093-7.565-7.51-12.647-10.143-3.348-1.74-16.466-8.523-16.466-8.523-10.588-5.355-11.91-9.02-12.754-13.476-1.43-7.47-1.006-108.063-.872-119.292.267-22.593 2.728-25.74 16.076-28.917 23.593-5.628 68.078-13.754 68.078-13.754 7.976-1.43 7.613 7.33 7.784 14.006.52 20.928-.44 78.878 0 125.76" fill="#003768"/><path d="M45.015 220.97c-5.548.03-10.08.064-15.124-.466-6.906-.728-13.524-4.103-16.723-9.11-4.954-7.753-4.12-20.218-4.355-32.347-.225-11.705-.407-113.814-.407-115.408 0-4.538.08-11.524.15-16.36.166-11.466-1.305-25.61 4.323-32.625C15.136 11.84 19.303 9.59 23.77 8.77c11.273-2.054 31.303-2.476 48.198-2.707 17.558-.235 44.222 1.386 50.144 1.75 1.434.09 4.41.176 4.355 1.172-.06 1.053-2.653 1.342-3.895 1.63-5.07 1.19-61.56 13.226-71.143 16.586-10.144 3.56-12.723 9.176-13.472 22.792-.454 8.222-1.348 115.317-1.123 123.33.257 8.844.802 14.596 6.222 19.266 2.39 2.065 5.82 4.45 9.704 6.484 6.742 3.53 13.884 7.453 18.004 9.84.027.015.053.03.075.04.26.157.507.3.742.435 1.017.626 2.804 1.84 4.425 3.504 1.332 1.37 2.546 3.034 3.08 4.918.328.957.622 2.075.89 3.31-9.154.135-26.606-.197-34.962-.15" fill="#ff3428"/><path d="M342.5 111.73c1.552-2.974 3.714-7.56-1.7-9.876-4.195-1.803-7.528-2.948-7.528-2.948s.9 2.08 0 5.254c-.54 1.926-2.177 5.644-4.606 10.668-3.825.075-4.874-.407-4.526-2.04 0 0-1.594 1.098-.615 3.928.37 1.08 1.3 2.097 2.792 2.878-.615 1.242-1.273 2.542-1.963 3.89-6.136 5.88-14.916 13-19.4 15.905-4.97 3.22-4.573-3.452-3.102-7.23.364-.79.728-1.534 1.092-2.25 2.236-.386 7.928-1.73 12.952-5.94 6.41-5.37 5.574-8.95 3.477-10.49-1.963-1.44-4.242-2.35-6.2-2.734-1.958-.385-3.26.342-4.885 1.086-1.428.658-10.673 6.64-13.09 19.088-3.19 2.108-5.43 4.606-8.893 7.233-3.632 2.75-4.654.974-4.964-1.214-.096-1.628.707-3.826 1.937-6.16 7.2-2.06 12.284-7.553 13.92-9.672 1.943-2.498 3.82-5.628.835-7.44-2.787-1.242-5.03-1.772-5.03-1.772s-1.668-.663-3.3.15c-1.626.818-6.018 3.204-10.592 11.7-1.033 1.915-1.793 3.702-2.322 5.355-1.61-1.465-.52-5.53.25-7.285.948-2.167 2.692-5.372 2.296-6.993-.326-1.487-1.98-3.06-3.937-3.584-1.958-.53-2.96.717-4.045 2.525-3.044 5.575-9.95 15.162-11.026 16.478-.412-.78 4.874-10.036 5.676-11.576 1.017-1.948-.99-3.67-.99-3.67s-1.385-1.22-3.193-2.098c-1.81-.877-3.436-.133-6.004 2.146-6.5 6.355-18.59 23.373-20.17 25.39-1.577 2.012-2.995 3.735-3.915 3.232-1.267-.76-1.197-4.03 1.932-10.374 4.72-8.956 9.47-16.387 13.172-22.432.636-.134 1.294-.278 1.968-.44 11.214-2.62 31.41-7.002 41.51-5.044 9.395 1.825 10.727 6.19 18.32 4.473 1.272-7.688-1.68-12.62-6.502-13.83-4.825-1.21-16.777-.15-25.155 1.183-7.09 1.123-15.798 3.022-25.45 5.334 2.296-5.415-.032-7.442-2.225-8.496-2.022-.968-8.453-3.686-8.453-3.686s2.006 3.13 1.01 6.677c-.427 1.513-1.828 4.61-3.674 8.72-6.024 1.294-9.57 1.368-9.41-2.013 0 0-2.167 3.622.738 6.13 1.344 1.162 3.184 1.922 5.88 2.147-1.9 4.322-3.96 9.228-5.842 14.337-5.007 13.6-3.665 17.094-.06 19.502 3.613 2.413 6.357.583 11.268-7.303 4.91-7.887 10.87-16.783 16.29-21.566-4.14 6.585-5.916 11.903-7.21 16.194-1.098 4.012-.38 5.617.534 6.944.915 1.332 2.2 2.573 4.253 3.264 2.044.695 2.343-.423 3.028-2.012.68-1.578 6.245-14.605 13.146-23.775-1.305 3.696-1.086 12.213 5.398 13.727-.92 4.53.225 7.816 3.108 9.517 4.312 2.53 7.137 1.455 10.508-2.632 2.332-2.83 3.493-3.862 5.05-5.098-.134 1.075-.225 2.188-.246 3.354.22 7.597 8.046 9.635 11.604 7.024 3.038-2.23 10.62-9.972 15.712-15.284-.476.915-.957 1.85-1.455 2.803-2.402 4.74-3.975 10.343-2.16 15.083 1.813 4.745 6.91 6.312 11.737 3.37 4.825-2.937 14.39-8.255 26.615-24.92-5.2 4.408-23.898 17.87-29.413 20.373-1.135.33-1.54-.24-1.022-2.06.487-1.696 4.895-10.753 11.245-22.004.24-.027.47-.043.717-.08 8.935-1.177 22.57-6.453 29.104-9.545-4.136.685-16.67 1.942-25.99 2.75.4-.744.813-1.514 1.193-2.247m-57.356 15.884c2.975-4.6 6.848-9.015 8.394-10.154 2.708-1.99 3.67-.92 2.798.68-2.47 4.253-7.083 7.527-11.192 9.474m18.896.268c5.532-9.684 11.08-11.283 13.808-11.546.316.888.59 2.61-5.04 7.367-3.487 2.948-6.89 3.88-8.768 4.18" fill="#003768"/><path d="M230.242 93.35c3.996-9.31-2.862-11.798-12.685-16.923 0 0-3.23-1.54-6.18-.39-3.717 1.45-10.854 4.547-18.023 11.454-12.727 12.985-25.508 28.837 9.69 33.903 7.885 1.13 11.41 3.547 10.014 6.773-5.018 12.738-33.742 11.567-35.94 11.433-2.205-.135-2.087-1.28-1.103-2.698 5.703-8.228 15.306-15.043 15.306-15.043-15.513 4.99-22.217 10.04-24.55 12.01-2.332 1.968-4.477 4.13-2.52 7.13 10.176 15.49 41.302 10.674 53.36.643 12.06-10.032 2.275-19.367-9.5-22.245-7.587-1.857-6.447-1.333-12.856-3.21-6.196-1.825-5.254-9.234 2.263-15.852 15.68-13.214 22.26-11.235 22.26-11.235.6 6.614-4.467 19.78-10.073 28.1 10.967-8.133 16.542-14.542 20.538-23.85M305.765 193.94c2.354-3.15 3.146-4.424 3.146-4.424s.803-1.006-.336-1.872c-1.033-.776-3.847-2.788-4.285-1.696-.478 1.225-2.853 7.51-4.035 11.005 0 0 3.135.165 5.51-3.012m70.785-25.305c.096-2.37-.77-3.402-1.91-4.44-.915-.71-1.616-1.46-3.57-2.58-2.657-1.518-5.867.06-8.307 2.735-5.21 5.73-8.62 9.667-15.146 21.11-2.568 4.51-4.863 9-6.778 13.04-4.484 2.385-9.845 5.113-15.088 7.74-3.306-1.09-7.21-1.172-9.533-1.503-1.05-.145-.937-.375-.435-1.145 3.366-4.96 10.583-7.645 11.84-8.08 1.262-.437 2.45-.608 1.803.29-.642.904-2.204 2.702-2.204 2.702s4.2-1.236 7.447-3.852c1.274-1.22 1.51-2.643.562-4.093-.947-1.45-2.76-3.82-3.46-4.682-.75-.925-1.718-1.268-2.83-1.022-1.12.24-7.956 1.236-15.698 9.577-2.257 2.536-4.424 6.81-3.793 9.624-2.513 3.162-7.73 9.46-11.854 12.63 2.06-6.044 3.825-11.308 4.61-13.732.788-2.418-.956-3.31-2.7-4.3-1.006-.563-1.75-.547-4.296 1.497-3.68 3.5-15.082 12.952-16.59 14.23-1.51 1.28-2.253 1.525-1.942-.38.24-.994.663-2.36 1.273-4.017 2.98-2.156 5.886-4.435 8.486-6.762 12.358-11.09 20.212-24.423 22.475-36.37.29-1.797-.224-2.695-1.23-3.578-1.005-.888-3.386-2.402-3.664-2.58-.273-.175-1.84-.726-3.526.205-1.69.925-6.666 4.146-16.975 19.87-7.28 12.122-9.437 18.43-11.904 26.203-.566 1.787-.865 3.295-.983 4.574-2.75 1.803-5.264 3.365-7.66 4.788 3.44-9.127 6.194-18.318 6.857-20.254.878-2.567.53-4.055-.743-5.317-.957-.947-3.59-1.787-3.59-1.787s1.023 1.236.087 3.3c-.364.798-1.552 3.494-3.408 6.89.025-.78-.082-1.812-.708-2.427-1.09-1.07-4.012-3.992-5.296-4.78-1.29-.785-2.322-1.112-3.515-.726-1.026.454-5.033 1.626-9.41 7.95-2.99 4.322-4.397 9.972-4.178 14.134-1.123 1.28-2.284 2.58-3.16 3.542-.948 1.016-1.644.797-1.74-1.343-.096-2.076 1.637-11.834 2.033-18.12.144-2.814.06-3.098-.856-3.96-.91-.86-3.008-2.77-5.094-.363-2.087 2.407-9.352 12.454-14.852 19.126 0 0 3.938-7.19 6.538-12.503 1.236-2.798 2.183-5.986-.83-7.624-3.172-1.717-6.168-2.637-8.613-3.31 0 0 3.065 2.374 1.83 6.51-1.242 4.157-2.88 8.634-4.532 13.407-9.625 5.296-24.637 12.92-30.18 12.203-.588-6.88 3.703-14.322 8.004-20.528 1.83-.39 3.88-.872 6.48-1.466 8.473-1.948 14.25-3.157 14.48-.632 2.944-3.692 1.012-9.277-3.915-9.01-2.498.134-6.468 1.006-10.69 2.082 4.302-6.254 9.358-13.814 12.263-17.767 6.372-1.31 12.166-2.477 16.146-3.055 4.83-.498 5.125-.594 3.066 2.316-2.066 2.916-6.79 9.07-9.23 12.723 5.966-2.73 12.718-6.153 17.174-9.186 4.462-3.033 3.66-5.488 2.777-7.297-.888-1.808-3.61-5.66-3.61-5.66s-2.43-3.948-8.83-2.712c-10.244 1.986-56.95 9.508-59.827 4.72 0 0-4.012 15.723 13.086 13.562 4.408-.557 9.737-1.504 15.258-2.58-1.637 1.424-6.917 6.517-14.728 18.907-5.468.443-10.336-.782-10.304-2.408 0 0-.637 8.11 6.473 8.747-.668 1.15-1.342 2.32-2.037 3.567-2.686 4.906-4.098 10.962-1.134 16.22 2.957 5.26 10.907 7.037 19.81 2.147 5.713-3.14 12.352-7.19 18.275-11.364-.155.466-.31.91-.466 1.375-1.322 3.74-.568 5.532.802 6.682 1.29 1.08 2.22 1.66 4.376-.866 1.707-1.99 9.405-12.224 14.332-17.964-1.98 6.917-5.35 18.767.36 21.4 5.696 2.626 8.29-2.312 11.052-5.74.214-.27.385-.493.572-.73.21.58.47 1.087.797 1.494 2.543 3.2 6.25 3.263 9.91 1.038 1.685-1.027 3.01-2.226 4.236-3.258-.69 1.813-1.62 4.162-2.765 6.746-4.333 2.156-8.95 4.275-14.62 6.885-14.718 6.774-18.05 9.06-19.806 13.547-1.82 4.65 2.504 12.46 15.91 8.662 14.51-5.688 20.234-14.323 26.178-27.12.54-1.166 1.075-2.354 1.605-3.558 2.74-1.578 6.14-3.61 9.747-5.943.487 1.962 1.61 2.952 2.536 3.52 1.744 1.07 3.392 2.048 6.035-.253 2.653-2.31 6.243-6.5 13.99-14.01-1.365 3.62-3.125 8.372-4.41 12.432-.69 2.246-.34 3.643 1.403 4.45 1.75.808 4.596 2.247 6.49.364 1.818-1.813 8.945-10.395 13.53-15.61.385.358.882.646 1.52.834 3.92 1.166 8.425-.102 11.983.583-10.287 5.137-19.634 9.652-20.254 10.032-.867.53-1.156 1.13-.738 2.2.395 1.245 1.278 2.433 2.648 3.754 5.478 4.52 13.83.62 19.174-2.225 5.34-2.84 8.843-7.575 5.505-11.828-.6-.765-1.354-1.375-2.215-1.867 3.84-2.16 7.918-4.382 11.684-6.286-2.332 5.087-3.964 9.228-4.633 11.4-1.283 4.15.74 5.05 2.676 5.863 1.93.813 3.45-1.07 5.82-3.814 5.217-6.08 10.893-12.065 10.893-12.065s.267-.28.288.07c.038.625-.053 1.203-2.89 7.505-1.363 3.044-3.118 9.635-.46 13.803 2.853 4.467 8.465 3.707 12.22 1.305 4.366-2.792 8.04-5.794 11.096-9.196-3.45 2.092-7.864 3.84-10.737 4.84-2.868.996-4.692 1.68-4.558-1.636.127-3.322 2.797-12.267 4.06-16.547 1.208-4.094 1.83-4.96-2.103-6.373-1.755-.63-2.627-.042-3.76.98-2.21 1.75-11.98 11.256-15.2 14.17-2.263 2.045-1.39.15.914-4.327 1.992-3.31 4.057-6.505 6.122-9.54 27.348-17.573 27.038-26.818 27.108-28.754M249.5 226.832c-1.67 3.028-3.616 6.158-5.788 8.95-7.415 9.518-21.068 15.46-23.01 10.133-1.942-5.334 6.847-9.18 11.154-11.283 3.494-1.7 10.3-4.382 17.644-7.8m9.86-22.925c-2.76 4.296-6.318 8.817-10.464 11.786-4.222 2.654-6.05.038-3.323-5.07 2.734-5.116 8.464-10.958 11.898-12.402 1.708-.706 3.34-.663 1.89 5.687m20.597 1.177c1.82-4.055 4.403-9.062 7.923-14.69 6.982-11.176 15.317-20.683 15.96-21.39.64-.706 1.39-1.06 1.25.156-.213 1.4-2.342 9.924-9.57 19.532-6.243 7.966-11.652 13.156-15.563 16.392m42.955 8.068c-2.595 1.455-7.373 3.66-11.214 4.638-1.188.24-1.455-.22.3-1.235 1-.578 7.115-4.28 14.402-8.41.026.016.06.032.085.048 1.573 1.524-.968 3.504-3.573 4.96m47.426-37.044c-4.515 6.687-13.24 13.684-18.146 17.322 8.97-12.604 17.317-21.678 18.805-22.956 1.98-1.707 1.818 1.937-.66 5.633M312.087 13.03c-.038-4.044-3.312-5.237-3.312-5.237s-4.087-1.627-5.18-1.83c-1.08-.193-2.412.54-3.573 1.418-.706.573-1.813 1.568-3.156 3.104-.637.76-1.236 1.498-1.808 2.23-3.895 5.163-9.865 14.23-13.375 29.26-.642 3.305-1.284 6.986-2.017 11.18-.112.626-.203 1.236-.283 1.835-8.357 5.73-7.12-1.937-6.5-9.042.155-1.77.353-3.52.583-5.237 13.915-15.648 16.44-29.574 16.52-33.86.08-4.455-2.54-4.953-2.54-4.953S284.052.843 282.885.73c-1.166-.106-2.337-.037-4.12 1.483-8.65 9.04-17.455 26.813-17.29 43.826.13 12.823 8 17.445 17.586 12.368-1.033 21.095 17.922 20.378 26.52 10.716 9.254-10.395 12.54-19.163 12.54-19.163-10.915 15.553-31.85 30.313-28.345 4.446.316-2.343.717-4.58 1.183-6.714 21.795-26.37 21.127-34.662 21.127-34.662m-38.193 24.802c2.375-14.862 7.088-26.894 8.463-29.654 1.62-3.242 3.585-3.938 4.034-2.113 1.76 12.615-8.666 26.974-12.496 31.767m32.784-22.073c.107 3-4.13 15.208-14.595 27.385 5.093-18.313 14.595-27.386 14.595-27.386" fill="#003768"/><path d="M257.408 60.282c-1.278-1.45-.524-8.934-.256-11.508.267-2.573-.76-3.74-2.697-5.077-1.936-1.342-3.675-1.567-4.74-.75-1.064.815-6.97 6.512-11.513 11.36 1.182-2.718 3-7.624 7.527-11.637 4.526-4.012 9.817-1.182 10.33-.775.514.406.728.69 1.477.304.75-.39.075-1.547.075-1.547-3.692-7.56-10.524-8.656-15.306-4.922-12.102 10.156-11.604 18.255-10.87 21.123.726 2.867 4.658 5.29 8.35 1.086 3.814-4.345 6.714-8.94 9.93-12.69-1.247 3.546-4.703 20.152 4.033 21.714 8.735 1.568 9.474-9.603 9.474-9.603-1.595 3.382-4.532 4.372-5.816 2.922M230.227 47.41c1.39-10.16 1.02-40.195-.21-47.22-1.294 14.997-11.582 39.863-13.668 55.18-4.372-7.404-2.96-18.71-1.863-24.198 1.097-5.49-6.805-6.452-10.967-5.013.53 2.84-12.82 20.5-25.985 29.643 2.113-6.976 14.702-27.434 26.6-41.606 6.05-7.255 5.27-9.154.203-11.395-5.07-2.247-7.356-3.103-9.164-1.29-1.808 1.803-7.624 7.223-7.624 7.223s7.356-3.724 3.718 1.06c-3.637 4.782-25.07 32.997-27.493 45.64-2.423 12.646 10.92 14.583 17.34 7.933 6.435-6.666 19.81-25.733 19.81-25.733s-1.68 24.33 11.45 26.525c12.234 2.05 16.466-6.59 17.852-16.75M385.22 171.214c.406.925.957 1.728 1.658 2.418.695.685 1.514 1.23 2.45 1.62.936.397 1.93.595 2.99.595 1.06 0 2.055-.198 2.99-.594.937-.39 1.756-.936 2.457-1.62.695-.69 1.246-1.494 1.653-2.42.407-.925.61-1.915.61-2.974 0-1.06-.203-2.06-.61-2.997-.407-.936-.958-1.744-1.653-2.434-.7-.686-1.52-1.232-2.456-1.638-.937-.407-1.932-.61-2.99-.61-1.06 0-2.056.203-2.992.61-.936.406-1.755.952-2.45 1.637-.7.69-1.252 1.497-1.66 2.433-.405.936-.61 1.937-.61 2.996 0 1.058.205 2.048.61 2.974m1.114-5.49c.342-.786.803-1.47 1.39-2.06.584-.582 1.274-1.042 2.06-1.38.787-.336 1.632-.508 2.537-.508.897 0 1.743.172 2.534.51.787.336 1.477.796 2.06 1.38.59.587 1.05 1.272 1.39 2.06.338.785.504 1.63.504 2.53 0 .876-.166 1.706-.503 2.492-.342.792-.802 1.482-1.39 2.076-.584.6-1.274 1.065-2.06 1.402-.792.337-1.638.502-2.536.502-.906 0-1.75-.165-2.537-.502-.787-.337-1.477-.803-2.06-1.402-.588-.594-1.05-1.284-1.39-2.076-.338-.786-.504-1.616-.504-2.493 0-.9.165-1.744.502-2.53m2.975 6.805h1.556v-3.617h1.12l2.026 3.617h1.893l-2.333-3.788c.605-.134 1.092-.396 1.456-.792.358-.396.54-.91.54-1.54 0-.47-.09-.867-.273-1.183-.182-.316-.423-.578-.727-.776-.305-.202-.648-.352-1.033-.437-.38-.09-.776-.14-1.182-.14h-3.043v8.657zm1.556-4.837v-2.498h1.423c.402 0 .792.08 1.167.24.37.156.556.482.556.958 0 .525-.204.878-.61 1.044-.407.176-.835.256-1.285.256h-1.252" fill="#003768"/></svg>