<svg xmlns="http://www.w3.org/2000/svg" width="360" height="97.849"><path d="M22.44 96.578c-1.388.637-4.233 1.27-7.816 1.27C6.257 97.848 0 93.108 0 84.318c0-8.375 6.292-13.99 15.476-13.99 3.677 0 6.038.71 7.034 1.188l-.965 2.794c-1.403-.614-3.47-1.09-5.92-1.09-6.945 0-11.576 3.986-11.576 10.977 0 6.57 4.184 10.724 11.336 10.724 2.372 0 4.756-.425 6.288-1.105l.766 2.763zM40.137 85.97c.03-2.152-1.012-5.6-5.342-5.6-3.99 0-5.64 3.206-5.944 5.6h11.287zm-11.34 2.502c.085 4.71 3.38 6.644 7.3 6.644 2.758 0 4.49-.434 5.89-.98l.714 2.492c-1.367.555-3.755 1.22-7.14 1.22-6.533 0-10.47-3.912-10.47-9.692 0-5.765 3.792-10.278 9.99-10.278 6.992 0 8.813 5.455 8.813 8.988 0 .696-.047 1.223-.164 1.606H28.795zM48.67 83.453c0-2.01-.043-3.604-.183-5.182h3.44l.206 3.174h.093c1.048-1.77 3.525-3.564 7.03-3.564 2.944 0 7.52 1.582 7.52 8.144v11.384H62.91V86.38c0-3.08-1.285-5.66-4.943-5.66-2.47 0-4.463 1.627-5.178 3.57-.157.433-.247 1.015-.247 1.613v11.505H48.67V83.453zM77.544 73.695v4.576h5.534v2.65h-5.534v10.334c0 2.364.75 3.72 2.9 3.72 1.05 0 1.657-.086 2.224-.25l.2 2.654c-.767.238-1.935.468-3.432.468-1.802 0-3.244-.558-4.19-1.45-1.03-1.086-1.477-2.778-1.477-5.02V80.92h-3.3v-2.65h3.3v-3.56l3.774-1.015zM87.423 84.247c0-2.26-.04-4.198-.18-5.976h3.405l.18 3.815h.124c.958-2.59 3.33-4.205 5.944-4.205.372 0 .673.04 1.052.083v3.286c-.395-.083-.8-.083-1.32-.083-2.725 0-4.683 1.817-5.2 4.428-.09.473-.12 1.067-.12 1.618V97.41h-3.885V84.246zM103.786 87.89c0 4.194 2.634 7.344 6.425 7.344 3.67 0 6.453-3.122 6.453-7.43 0-3.246-1.802-7.315-6.378-7.315-4.53 0-6.5 3.802-6.5 7.4m16.82-.202c0 7.09-5.478 10.16-10.574 10.16-5.712 0-10.195-3.798-10.195-9.847 0-6.362 4.674-10.12 10.54-10.12 6.12 0 10.23 3.997 10.23 9.808M136.7 87.645c-4.216-.086-9.007.59-9.007 4.314 0 2.286 1.66 3.317 3.603 3.317 2.81 0 4.607-1.59 5.23-3.196.143-.394.175-.785.175-1.105v-3.33zm3.744 5.182c0 1.67.09 3.275.3 4.58h-3.45l-.324-2.403h-.144c-1.192 1.5-3.475 2.845-6.492 2.845-4.314 0-6.506-2.737-6.506-5.488 0-4.64 4.584-7.156 12.787-7.128v-.387c0-1.548-.485-4.44-4.823-4.393-2.024 0-4.1.512-5.592 1.423l-.887-2.33c1.754-.996 4.365-1.664 7.03-1.664 6.515 0 8.1 3.994 8.1 7.796v7.147zM146.673 83.453c0-2.01-.09-3.604-.18-5.182h3.408l.158 3.135h.144c1.196-1.817 3.17-3.525 6.714-3.525 2.865 0 5.07 1.582 5.98 3.822h.082c.66-1.098 1.55-1.884 2.426-2.474 1.263-.875 2.638-1.348 4.667-1.348 2.865 0 7.02 1.665 7.02 8.304v11.224h-3.764v-10.79c0-3.717-1.548-5.897-4.627-5.897-2.244 0-3.9 1.478-4.617 3.14-.175.507-.312 1.097-.312 1.734v11.814h-3.766V85.946c0-3.045-1.485-5.225-4.44-5.225-2.368 0-4.166 1.748-4.8 3.483-.222.488-.3 1.102-.3 1.7v11.505h-3.79V83.453zM197.718 70.02l-5.362 5.642h-2.72l3.86-5.643h4.222zm-.89 15.95c.058-2.156-.998-5.6-5.363-5.6-3.95 0-5.62 3.21-5.928 5.6h11.29zM185.5 88.473c.093 4.706 3.388 6.644 7.288 6.644 2.78 0 4.467-.438 5.885-.985l.716 2.502c-1.367.55-3.735 1.216-7.124 1.216-6.565 0-10.47-3.908-10.47-9.696 0-5.757 3.8-10.27 9.99-10.27 6.98 0 8.777 5.447 8.777 8.98 0 .7-.035 1.23-.12 1.61h-14.94zM205.36 84.247c0-2.26-.055-4.198-.164-5.976h3.38l.16 3.815h.133c.973-2.59 3.337-4.205 5.936-4.205.394 0 .715.04 1.055.083v3.286c-.398-.083-.78-.083-1.316-.083-2.724 0-4.666 1.817-5.198 4.428-.07.473-.11 1.067-.11 1.618V97.41h-3.876V84.246zM219.92 78.272h3.846V97.41h-3.845V78.272zm4.292-5.365c0 1.18-.927 2.126-2.46 2.126-1.406 0-2.332-.946-2.332-2.126 0-1.2.985-2.19 2.423-2.19 1.403 0 2.37.96 2.37 2.19M245.36 96.742c-.996.442-3.255 1.106-6.12 1.106-6.393 0-10.582-3.908-10.582-9.754 0-5.898 4.466-10.216 11.434-10.216 2.275 0 4.29.516 5.358 1.04l-.887 2.64c-.914-.432-2.372-.91-4.47-.91-4.9 0-7.535 3.29-7.535 7.242 0 4.424 3.173 7.14 7.39 7.14 2.192 0 3.65-.453 4.756-.895l.656 2.607zM261.082 87.645c-4.2-.086-9.01.59-9.01 4.314 0 2.286 1.675 3.317 3.613 3.317 2.814 0 4.616-1.59 5.237-3.196.13-.394.16-.785.16-1.105v-3.33zm3.756 5.182c0 1.67.07 3.275.285 4.58h-3.466l-.305-2.403h-.125c-1.2 1.5-3.474 2.845-6.5 2.845-4.31 0-6.518-2.737-6.518-5.488 0-4.64 4.58-7.156 12.802-7.128v-.387c0-1.548-.504-4.44-4.846-4.393-2.028 0-4.095.512-5.573 1.423l-.89-2.33c1.77-.996 4.365-1.664 7.034-1.664 6.518 0 8.1 3.994 8.1 7.796v7.147z" fill="#007dc3"/><path d="M217.163 36.166c0-7.468-3.46-14.053-15.175-14.053-5.98 0-10.77 1.56-13.365 2.94l1.9 6.005c2.387-1.38 6.19-2.516 9.757-2.516 5.948-.02 6.91 3.09 6.91 5.088v.465c-12.928-.016-21.115 4.11-21.115 12.525 0 5.143 4.17 9.965 11.396 9.965 4.467 0 8.192-1.64 10.415-4.263h.208s1.496 5.694 9.64 3.53c-.433-2.385-.57-4.914-.57-7.954V36.166zm-9.657 7.898c0 .602-.07 1.235-.246 1.774-.746 2.294-3.31 4.233-6.534 4.233-2.654 0-4.787-1.414-4.787-4.364 0-4.553 5.41-5.788 11.566-5.765v4.124zM15.565 11.938s8.46 31.944 9.813 37.13c1.563 6.06 4.416 8.277 12.587 6.78l5.288-19.813c1.336-4.924 2.224-8.422 3.08-13.428h.16c.6 5.057 1.477 8.523 2.567 13.447 0 0 2.142 8.993 3.252 13.714 1.082 4.717 4.17 7.69 12.18 6.08l12.585-43.91H66.93L62.626 30.91c-1.157 5.535-2.212 9.838-3.01 14.907h-.148c-.73-5.003-1.65-9.153-2.825-14.526l-4.49-19.352H41.58l-4.79 18.864c-1.373 5.725-2.62 10.352-3.436 15.23h-.145c-.82-4.596-1.923-10.41-3.11-15.953 0 0-2.84-13.495-3.85-18.142H15.564zM105.937 36.166c0-7.468-3.466-14.053-15.163-14.053-6.003 0-10.774 1.56-13.377 2.94l1.91 6.005c2.362-1.38 6.176-2.516 9.755-2.516 5.93-.02 6.886 3.09 6.886 5.088v.465c-12.923-.016-21.09 4.11-21.09 12.525 0 5.143 4.157 9.965 11.383 9.965 4.456 0 8.176-1.64 10.427-4.263h.208s1.48 5.694 9.637 3.53c-.426-2.385-.575-4.914-.575-7.954V36.166zm-9.645 7.898c0 .602-.078 1.235-.254 1.774-.746 2.294-3.31 4.233-6.538 4.233-2.665 0-4.787-1.414-4.787-4.364 0-4.553 5.393-5.788 11.58-5.765v4.124zM122.054 46.526v-34.59H112.4V55.85h9.654v-9.324zM248.583 11.938v32.386c0 4.463.91 7.605 2.853 9.512 1.708 1.665 4.498 2.747 7.883 2.747 2.848 0 5.66-.488 6.974-.946l-.1-6.98c-1.002.235-2.143.41-3.683.41-3.3 0-4.387-1.94-4.387-5.966V30.73h8.406v-8.402h-8.407V11.938h-9.54zM223.628 22.865V55.85h9.946V38.946c0-.895.074-1.696.23-2.43.754-3.534 3.674-5.785 7.89-5.785 1.16 0 1.993.098 2.87.227v-8.634c-.748-.153-1.267-.215-2.194-.215-3.724 0-7.956 2.217-9.738 6.965h-.27v-6.21h-8.734zM128.836 22.865V55.85h9.7V36.495c0-.902.128-1.872.484-2.696.785-1.946 2.76-4.236 5.89-4.236 3.923 0 5.752 3.06 5.752 7.49V55.85h9.7V36.265c0-.872.148-1.907.43-2.673.79-2.204 2.923-4.03 5.842-4.03 3.97 0 5.854 3.02 5.854 8.21V55.85h9.72V36.413c0-10.247-5.62-14.303-11.994-14.303-2.834 0-5.065.66-7.058 1.79-1.69.962-3.217 2.314-4.534 4.116h-.148c-1.54-3.556-5.147-5.905-9.84-5.905-6.054 0-8.774 2.83-10.435 5.238h-.138v-4.483h-9.226z" fill="#007dc3" fill-rule="evenodd"/><path d="M320.758 23.34c1.747 0 3.19-.846 3.388-1.94l1.74-18.133c0-1.786-2.275-3.267-5.128-3.267-2.868 0-5.143 1.48-5.143 3.267l1.743 18.133c.176 1.094 1.657 1.94 3.4 1.94M310.113 29.01c.887-1.42.824-2.99-.12-3.686L293.84 14.858c-1.692-.887-4.2.192-5.65 2.478-1.416 2.286-1.17 4.838.503 5.725l17.89 7.692c1.123.387 2.674-.348 3.53-1.743M331.37 29.01c.913 1.394 2.422 2.13 3.524 1.742l17.918-7.69c1.67-.888 1.938-3.44.485-5.726-1.41-2.275-3.948-3.365-5.636-2.478l-16.166 10.466c-.907.695-.977 2.266-.102 3.685h-.023zM320.758 45.983c1.747 0 3.19.848 3.388 1.938l1.74 18.146c0 1.79-2.275 3.263-5.128 3.263-2.868 0-5.143-1.474-5.143-3.264l1.743-18.145c.176-1.09 1.657-1.937 3.4-1.937M331.37 40.34c.913-1.408 2.422-2.154 3.524-1.763l17.918 7.687c1.67.895 1.938 3.447.485 5.725-1.41 2.285-3.948 3.372-5.636 2.48l-16.166-10.457c-.907-.712-.977-2.283-.102-3.674h-.023zM310.113 40.34c.887 1.39.824 2.96-.12 3.673L293.84 54.47c-1.692.892-4.2-.195-5.65-2.48-1.416-2.28-1.17-4.83.503-5.726l17.89-7.687c1.123-.39 2.674.355 3.53 1.762M354.45 57.43c.19.1.446.19.72.19.36 0 .57-.15.57-.386 0-.22-.156-.332-.547-.465-.496-.185-.824-.415-.824-.814 0-.465.437-.82 1.09-.82.32 0 .57.074.73.144l-.145.414c-.1-.05-.32-.12-.61-.12-.347 0-.51.152-.51.324 0 .222.194.324.593.457.527.187.793.426.793.836 0 .466-.366.845-1.156.845-.32 0-.676-.082-.832-.168l.13-.437zM359.41 56.85c-.03-.36-.055-.79-.055-1.18h-.015c-.09.344-.21.73-.376 1.08l-.426 1.215h-.426l-.39-1.2c-.125-.356-.23-.75-.32-1.094h-.02c-.02.36-.04.813-.055 1.212l-.074 1.114h-.516l.203-2.802h.743l.398 1.133c.122.32.193.657.263.97h.016c.09-.31.198-.66.32-.97l.413-1.133h.727l.18 2.802h-.53l-.06-1.145z" fill="#fdbb30" fill-rule="evenodd"/></svg>