<?xml version="1.0" encoding="UTF-8" standalone="no"?>
<!-- Created with Inkscape (http://www.inkscape.org/) -->

<svg
   xmlns:dc="http://purl.org/dc/elements/1.1/"
   xmlns:cc="http://creativecommons.org/ns#"
   xmlns:rdf="http://www.w3.org/1999/02/22-rdf-syntax-ns#"
   xmlns:svg="http://www.w3.org/2000/svg"
   xmlns="http://www.w3.org/2000/svg"
   xmlns:sodipodi="http://sodipodi.sourceforge.net/DTD/sodipodi-0.dtd"
   xmlns:inkscape="http://www.inkscape.org/namespaces/inkscape"
   width="105.83334mm"
   height="105.16931mm"
   viewBox="0 0 105.83334 105.16931"
   version="1.1"
   id="svg1337"
   inkscape:version="0.92.1 r15371"
   sodipodi:docname="wcmga_2018_kidscamp.svg">
  <defs
     id="defs1331" />
  <sodipodi:namedview
     id="base"
     pagecolor="#ffffff"
     bordercolor="#666666"
     borderopacity="1.0"
     inkscape:pageopacity="0.0"
     inkscape:pageshadow="2"
     inkscape:zoom="0.35"
     inkscape:cx="135.99169"
     inkscape:cy="362.34747"
     inkscape:document-units="mm"
     inkscape:current-layer="layer1"
     showgrid="false"
     fit-margin-top="0"
     fit-margin-left="0"
     fit-margin-right="0"
     fit-margin-bottom="0"
     inkscape:window-width="1280"
     inkscape:window-height="656"
     inkscape:window-x="0"
     inkscape:window-y="27"
     inkscape:window-maximized="1" />
  <metadata
     id="metadata1334">
    <rdf:RDF>
      <cc:Work
         rdf:about="">
        <dc:format>image/svg+xml</dc:format>
        <dc:type
           rdf:resource="http://purl.org/dc/dcmitype/StillImage" />
        <dc:title></dc:title>
      </cc:Work>
    </rdf:RDF>
  </metadata>
  <g
     inkscape:label="Capa 1"
     inkscape:groupmode="layer"
     id="layer1"
     transform="translate(-69.852198,-139.53512)">
    <g
       transform="matrix(0.19979795,0,0,-0.19979795,343.09559,73.826845)"
       id="g1275">
      <path
         inkscape:connector-curvature="0"
         id="path363"
         transform="matrix(0.75000002,0,0,-0.75000002,0,1000)"
         d="m -1597.0527,1948.3711 c 4.3066,0 8.3999,2.1074 10.9199,5.7207 l 18.1074,0.7344 41.666,-1.4141 c 0.16,0 0.3071,-0.014 0.4551,-0.014 3.372,0 6.6255,1.2796 9.1055,3.5996 1.08,1.0134 1.9723,2.2009 2.6523,3.4942 l 14.0137,16 c 0.5613,-0.84 1.2123,-1.641 1.959,-2.3477 2.48,-2.32 5.7481,-3.6133 9.1347,-3.6133 h 0.4141 l 63,1.9336 c 27.56,0.8534 50.0778,10.4269 65.0645,26.2403 10.7466,-27.6267 37.7332,-43.7989 74.2265,-43.7989 9.0267,10e-5 18.6683,0.999 28.6563,2.959 26.4253,5.1467 51.2786,16.6004 68.1972,31.4004 2.5867,2.2534 4.0941,5.3059 4.4688,8.5059 l 0.7207,0.6269 c 3.4653,3.04 4.1576,8.1877 1.5976,12.0411 l -29.3066,44.053 c -1.2387,1.8667 -3.2924,2.8255 -5.3457,2.7988 l -1.2539,2.1211 c 4.2933,3.8667 8.1606,8.1868 11.3086,13.0801 1.3587,-1.1867 2.7312,-2.3477 4.1445,-3.4277 0.093,-0.067 0.2137,-0.1466 0.3203,-0.2266 2.8934,-2.1867 6.8255,-4.8665 11.7989,-6.5332 0.16,-0.067 0.3068,-0.1202 0.4668,-0.1602 1,-0.32 1.895,-0.5597 2.7617,-0.7597 0.08,-0.013 0.1583,-0.026 0.2383,-0.053 0.3733,-0.08 0.748,-0.1459 1.1093,-0.1992 1.2134,-0.2 2.4397,-0.2949 3.625,-0.2949 3.4,0 6.6266,0.788 9.5879,2.3613 1.0654,0.56 2.0527,1.1859 2.9727,1.8926 1.9333,1.48 3.6785,3.2927 5.1718,5.3594 0.3468,0.48 0.6817,0.9484 0.9883,1.455 0.5067,0.8001 0.8792,1.5201 1.1192,2 l 0.094,0.1856 c 1.1334,2.1733 2.026,4.547 2.666,7.0137 0.36,1.4133 0.6402,2.7604 0.8536,4.0937 0.1346,0.8534 0.2272,1.6792 0.3085,2.5059 0.172,1.6933 0.2112,3.2804 0.1446,4.7871 0.04,0.9333 0.026,1.9207 -0.027,3.0273 -0.053,1.1734 -0.1599,2.3851 -0.3066,3.7051 -0.039,0.3733 -0.1585,1.3211 -0.1719,1.4277 -0.1733,1.2267 -0.3589,2.5188 -0.6269,4.0254 -0.053,0.32 -0.1205,0.667 -0.1739,1.0137 -0.5333,2.8267 -1.186,5.7209 -1.9726,8.5742 l -0.1738,0.627 c -0.3587,1.2533 -0.7329,2.5064 -1.1329,3.7597 0.6014,0.067 2.2403,0.2266 2.2403,0.2266 0.68,0.067 1.346,0.1322 2.0273,0.1856 1.2654,0.1066 2.4784,0.2279 3.7051,0.3613 5.56,0.5866 10.1194,1.4397 14.3594,2.6797 0.067,0.013 0.2012,0.053 0.2812,0.08 0.828,0.24 1.532,0.4667 2.252,0.6934 0.053,0.027 0.2539,0.08 0.2539,0.08 4.8,1.6 8.654,3.5187 12.0527,6.0254 0.12,0.08 0.2547,0.1742 0.3613,0.2676 2.7467,2.0533 4.5736,4.479 5.8536,6.3457 0.7986,1.1733 1.4125,2.4544 1.8125,3.8144 l 0.5468,1.8926 c 0.24,0.8133 0.4152,1.6545 0.4805,2.5078 0.708,9.0267 -3.12,16.7603 -11.3613,23.0137 -4.2,3.1733 -8.626,5.1323 -11.586,6.3457 -3.2666,1.3333 -6.6674,2.4804 -10.1074,3.4004 -1.7067,0.4533 -3.451,0.8933 -5.291,1.3066 0.2387,0.6133 0.4657,1.2264 0.6523,1.8399 0.3067,0.9599 0.5471,1.8667 0.7071,2.7734 0.2546,1.36 0.3733,2.7855 0.3613,4.1855 -0.015,0.7734 -0.068,1.5467 -0.1602,2.3067 -0.308,2.5066 -1.1079,4.9746 -2.3613,7.2812 -1.6133,2.9334 -3.92,5.4929 -7.0547,7.8262 -2.52,1.88 -4.9853,3.0133 -6.9707,3.9199 l -0.6289,0.293 c -0.9066,0.4133 -1.7203,0.7199 -2.2656,0.9199 l -0.1348,0.041 c -1.5733,0.5734 -3.1853,1.0391 -4.9453,1.4258 -1.5466,0.3333 -2.9867,0.5868 -4.0801,0.7734 -2.2253,0.3734 -4.2794,0.5347 -6.1074,0.668 -0.093,0.013 -0.2,0.012 -0.3066,0.025 -0.6,0.04 -1.1871,0.055 -1.7871,0.055 1.5466,5.2533 2.373,10.8926 2.373,16.8926 0,34.5466 -26.9197,57.7597 -67.0117,57.7597 H -1259 v 28.9336 h -121.666 l -0.1074,-18.9472 -4.959,8.3476 h -32.5059 l -4.8262,-7.7734 v 18.373 h -106.121 l -7.9083,-20.5332 h -26.4667 l -7.9063,20.5332 h -69.9199 l 0.9883,-2.2402 c -9.1734,3.2533 -19.3608,4.9336 -30.4141,4.9336 -45.7467,0 -78.9609,-31.5066 -78.9609,-74.9199 0,-26.5334 12.4144,-48.5998 32.5078,-61.7598 l -8.2539,1.4785 c -5.4387,0.9733 -10.7328,-0.5333 -14.7715,-3.6933 -4.6547,-1.3867 -8.3869,-5.2918 -9.2949,-10.3985 l -15.8946,-88.4414 -15.4531,-86.039 c -1.2933,-7.2401 3.5201,-14.1739 10.7734,-15.4805 l 48.8536,-8.7735 c 0.7866,-0.1466 1.574,-0.2128 2.3593,-0.2128 2.6934,0 5.36,0.8133 7.6133,2.3867 1.3067,0.9066 2.4143,2.054 3.3223,3.334 l 0.8125,-0.1465 0.4258,2.373 c 0.428,0.96 0.7619,1.9721 0.9472,3.0254 l 7.041,39.1875 36.1719,-56.1738 c 2.0134,-3.12 5.2152,-5.2529 8.8672,-5.9063 l 54.334,-9.7461 c 0.788,-0.1466 1.5727,-0.2148 2.3594,-0.2148 z"
         style="opacity:1;fill:#d99d20;fill-opacity:1;stroke-width:1.01618898" />
      <path
         inkscape:connector-curvature="0"
         id="path361"
         transform="matrix(0.75000002,0,0,-0.75000002,0,1000)"
         d="m -1597.0645,1961.7051 -54.3339,9.7461 -54.5215,84.6679 -13.0274,-72.5332 -48.8515,8.7852 15.4394,86.0273 15.8926,88.4395 48.8535,-8.7734 -7.8379,-43.6133 14.9043,-23.0117 61.2129,54.3593 57.334,-10.2929 -90.2539,-81.7207 -2.2266,-2.0137 z"
         style="opacity:1;fill:#d99d20;fill-opacity:1;stroke-width:1.01618898" />
      <path
         inkscape:connector-curvature="0"
         id="path359"
         transform="matrix(0.75000002,0,0,-0.75000002,0,1000)"
         d="m -1525.9043,1966.7324 -41.668,1.4121 2.4785,73.2539 2.5079,74.0137 41.6523,-1.4141 -2.4121,-71.2519 z"
         style="opacity:1;fill:#d99d20;fill-opacity:1;stroke-width:1.01618898" />
      <path
         inkscape:connector-curvature="0"
         id="path357"
         transform="matrix(0.75000002,0,0,-0.75000002,0,1000)"
         d="m -1287.416,1968.2441 c -35.9655,0.3549 -57.5537,18.3521 -63.2617,43.5938 v 0.014 c -0.1214,0.5466 -0.241,1.0943 -0.3477,1.6543 -3.4933,17.8266 1.5447,30.8268 10.6914,40.8535 4.3747,4.8 9.6818,8.9069 15.4551,12.5468 17.2667,10.8801 38.6264,17.492 51.0664,25.252 0.1733,-0.2933 0.3599,-0.5732 0.5586,-0.8398 0.3067,-0.4 0.6684,-0.7594 1.0684,-1.0528 0,0 0.3864,-0.3067 0.5078,-0.3867 0.8386,-0.64 1.8509,-1.0131 2.9043,-1.0664 0.16,-0.013 0.3221,-0.027 0.4941,-0.027 0.093,0 0.1996,-4e-4 0.293,-0.014 0.2666,-0.027 0.5338,-0.039 0.8125,-0.039 1.2146,0 2.4014,0.2529 3.4961,0.5196 7.28,1.8533 12.9843,4.0659 17.9843,6.9726 5.44,3.16 10.6536,7.2816 15.9336,12.6016 1.3614,1.3866 2.6526,2.8787 3.8926,4.332 0.12,0.1333 0.255,0.2671 0.375,0.4004 0.428,0.4533 0.9465,0.9991 1.4531,1.7324 1.6267,2.36 3.1055,4.9211 4.4668,7.7344 -0.081,-0.5867 -0.1882,-1.1611 -0.2949,-1.7344 -0.2667,-1.6267 -0.7054,-3.3188 -1.3867,-5.4121 -0.36,-1.12 -0.3453,-2.3211 0.055,-3.4277 0.5333,-1.4934 1.0135,-2.7189 1.5215,-3.8789 0.053,-0.1334 0.1449,-0.3199 0.2382,-0.5332 0.2134,-0.48 0.4394,-0.9474 0.6661,-1.4141 0.013,-0.04 0.4668,-0.9336 0.4668,-0.9336 0.2,-0.4133 0.4142,-0.7989 0.6289,-1.1855 l 0.2519,-0.4532 c 0.6134,-1.1333 1.3202,-2.4 2.1602,-3.6933 0.04,-0.053 0.065,-0.1065 0.1054,-0.1465 0.053,-0.08 0.094,-0.1739 0.1329,-0.2539 0.027,-0.053 0.053,-0.093 0.08,-0.1465 0.7467,-1.36 1.6555,-2.6545 2.5489,-3.8945 -7.4814,-48.4667 -92.7756,-50.4528 -87.9356,-75.1328 1.7613,-8.96 10.8541,-14.6398 32.1074,-10.4532 15.6267,3.0534 31.6276,10.9876 46.961,23.5742 l 23.0117,-34.6015 c -15.6667,-13.7067 -38.6924,-23.8127 -61.9844,-28.3594 -9.8125,-1.925 -18.878,-2.7831 -27.1777,-2.7012 z"
         style="opacity:1;fill:#d99d20;fill-opacity:1;stroke-width:1.01618898" />
      <path
         inkscape:connector-curvature="0"
         id="path355"
         transform="matrix(0.75000002,0,0,-0.75000002,0,1000)"
         d="m -1489.0391,1983.8652 -4.0937,133.2266 63,1.9336 c 41.88,1.2933 71.9873,-20.9332 76.0273,-58.1465 0.2267,-2 0.3742,-4.0672 0.4395,-6.1738 1.2533,-40.92 -28.2264,-67.5463 -72.3731,-68.9063 z"
         style="opacity:1;fill:#d99d20;fill-opacity:1;stroke-width:1.01618898" />
      <path
         inkscape:connector-curvature="0"
         id="path353"
         transform="matrix(0.75000002,0,0,-0.75000002,0,1000)"
         d="m -1452.2793,2015.1055 23.7988,0.7207 c 0.7075,0.022 1.4077,0.056 2.0996,0.1035 0.692,0.048 1.3768,0.1082 2.0528,0.1816 0.676,0.073 1.3444,0.1611 2.0039,0.2598 0.6595,0.099 1.3105,0.2084 1.9531,0.332 0.6426,0.1237 1.2752,0.2598 1.9004,0.4082 0.6252,0.1485 1.2423,0.3094 1.8496,0.4825 0.6073,0.1729 1.2059,0.3594 1.7949,0.5566 0.589,0.1972 1.1681,0.4058 1.7383,0.6269 0.5702,0.2212 1.1306,0.4544 1.6817,0.6993 0.5509,0.2448 1.0918,0.5012 1.623,0.7695 0.5312,0.2683 1.0535,0.5483 1.5644,0.8398 0.5111,0.2916 1.0117,0.5937 1.502,0.9082 0.4903,0.3145 0.9704,0.6414 1.4395,0.9786 0.4691,0.3372 0.9275,0.6852 1.375,1.0449 0.4474,0.3596 0.8832,0.7314 1.3085,1.1133 0.4255,0.3818 0.8394,0.7739 1.2422,1.1777 0.4029,0.4037 0.7941,0.8187 1.1739,1.2441 0.3798,0.4255 0.7491,0.8618 1.1054,1.3086 0.3563,0.4469 0.7009,0.9031 1.0332,1.3711 0.3324,0.468 0.6511,0.9467 0.959,1.4356 0.3079,0.4888 0.6038,0.9885 0.8867,1.498 0.283,0.5095 0.553,1.0287 0.8106,1.5586 0.2576,0.5299 0.5026,1.0711 0.7344,1.6211 0.2317,0.55 0.4508,1.1098 0.6562,1.6797 0.2054,0.5699 0.3976,1.1488 0.5762,1.7383 0.1786,0.5895 0.3428,1.1899 0.4941,1.7988 0.1514,0.6089 0.2904,1.2275 0.4141,1.8555 0.1236,0.6279 0.2327,1.2653 0.3281,1.9121 0.095,0.6468 0.1774,1.3033 0.2442,1.9687 0.067,0.6654 0.1186,1.3398 0.1562,2.0235 0.075,1.3674 0.091,2.7698 0.047,4.2089 -0.015,0.3201 -0.014,0.641 -0.041,0.961 -0.035,0.7012 -0.082,1.3922 -0.1446,2.0742 -0.062,0.6821 -0.1404,1.3549 -0.2304,2.0176 -0.09,0.6626 -0.1936,1.316 -0.3106,1.959 -0.117,0.643 -0.247,1.2753 -0.3906,1.8984 -0.1436,0.6232 -0.2991,1.2368 -0.4688,1.8398 -0.1696,0.6032 -0.3535,1.1966 -0.5488,1.7793 -0.1952,0.5828 -0.4026,1.1546 -0.623,1.7168 -0.4408,1.1246 -0.9322,2.2088 -1.4707,3.25 -0.2693,0.5207 -0.5508,1.0299 -0.8438,1.5293 -0.293,0.4995 -0.5976,0.9888 -0.9141,1.4668 -0.3163,0.4781 -0.6432,0.9459 -0.9824,1.4024 -0.3391,0.4565 -0.6893,0.9012 -1.0508,1.3359 -0.3614,0.4347 -0.7338,0.8589 -1.1171,1.2715 -0.3834,0.4126 -0.7789,0.8147 -1.1836,1.2051 -0.4048,0.3904 -0.8204,0.7688 -1.2461,1.1367 -0.4257,0.3679 -0.8605,0.7251 -1.3067,1.0703 -0.4462,0.3452 -0.9029,0.6796 -1.3691,1.002 -0.4662,0.3223 -0.942,0.6324 -1.4277,0.9316 -0.4858,0.2992 -0.9815,0.5874 -1.4864,0.8633 -0.5048,0.2758 -1.0195,0.5387 -1.5429,0.791 -0.5235,0.2523 -1.0561,0.4941 -1.5977,0.7227 -0.5416,0.2285 -1.0911,0.4439 -1.6504,0.6484 -0.5593,0.2045 -1.1286,0.3978 -1.7051,0.5781 -0.5765,0.1803 -1.1606,0.348 -1.7539,0.5039 -0.5932,0.1559 -1.1951,0.3004 -1.8047,0.4317 -0.6095,0.1312 -1.2281,0.2491 -1.8535,0.3554 -0.6253,0.1064 -1.2577,0.2 -1.8984,0.2813 -0.6407,0.081 -1.2897,0.151 -1.9453,0.207 -0.6556,0.056 -1.3183,0.099 -1.9883,0.1289 -1.34,0.061 -2.7086,0.07 -4.1035,0.027 l -23.8008,-0.7325 z"
         style="opacity:1;fill:#d99d20;fill-opacity:1;stroke-width:1.01618898" />
      <path
         inkscape:connector-curvature="0"
         id="path351"
         transform="matrix(0.75000002,0,0,-0.75000002,0,1000)"
         d="m -1180.5977,2075.3691 c -0.2365,0 -0.5171,0.036 -0.8535,0.1094 -3.2546,0.68 -6.1731,2.6534 -8.8398,4.6934 -0.9747,0.7333 -1.9225,1.546 -2.8692,2.3593 -1.1733,0.9868 -2.3061,2.0138 -3.4394,3.0938 -0.1853,0.1733 -0.3876,0.3469 -0.5742,0.5469 -0.9734,0.9466 -1.944,1.9069 -2.8907,2.9336 -0.468,0.5066 -0.9216,1.0268 -1.375,1.5468 -0.6933,0.7734 -1.3864,1.5464 -2.0664,2.3731 -1.172,1.4133 -2.3074,2.8807 -3.414,4.4141 l -0.8125,1.1328 c -0.9467,1.3066 -1.8548,2.5601 -2.5215,3.7734 -0.16,0.32 -0.3316,0.6269 -0.5449,0.9336 -0.6934,1.0667 -1.3203,2.1726 -1.9336,3.2793 -0.268,0.5067 -0.5475,0.9992 -0.8008,1.5059 -0.1333,0.28 -0.2807,0.5614 -0.4141,0.8281 -0.2266,0.4666 -0.4513,0.9321 -0.666,1.4121 -0.065,0.1333 -0.1322,0.2673 -0.1855,0.4141 -0.5067,1.1466 -0.9484,2.3195 -1.375,3.5195 0.6533,2.0133 1.2152,4.0264 1.5605,6.0664 0.828,4.44 1.0128,8.8675 0.7461,13.1875 -0.3867,4.1333 -1.0649,8.16 -2.2383,12 -0.04,0.16 -0.081,0.3064 -0.1211,0.4531 -0.52,2.0133 -1.3857,3.9199 -2.0644,5.8399 -0.8013,1.8933 -1.7088,3.7202 -2.5488,5.5468 0.28,-2.0266 0.6267,-3.986 0.8281,-5.9726 0.092,-2.0134 0.3713,-3.9603 0.2793,-5.9336 0.053,-3.9334 -0.4682,-7.7868 -1.2149,-11.4668 -0.027,-0.1733 -0.064,-0.3208 -0.1172,-0.4942 -1.828,-5.2933 -4.1733,-10.5194 -7.3613,-15.1328 -0.4266,-0.6266 -0.9865,-1.12 -1.4785,-1.6933 -1.2413,-1.4534 -2.4162,-2.8128 -3.6562,-4.0528 -4.9067,-4.96 -9.7592,-8.8147 -14.8125,-11.748 -4.56,-2.6533 -9.8273,-4.6918 -16.5606,-6.3984 -0.88,-0.2134 -1.8653,-0.428 -2.5586,-0.3614 -0.2533,0.027 -0.5191,0.041 -0.7871,0.041 -0.065,0 -0.1195,0.014 -0.1875,0.014 -0.093,0.067 -0.1719,0.1326 -0.252,0.1992 -0.093,0.067 -0.1862,0.1326 -0.2675,0.1992 -0.6267,0.8135 -1.0247,1.9349 -1.3047,3.6016 -0.8947,5.3733 -1.0427,10.2924 -0.416,15.0391 0.6266,4.84 2.2004,9.5327 4.7871,14.3593 2.44,4.5335 5.6287,9.1068 10.0273,14.3868 0.12,0.1333 1.6389,1.5616 1.9336,1.9882 h 0.1055 c 2.4013,0.3601 4.735,0.8662 7.0137,1.5196 1.4,0.3866 2.7994,0.827 4.1328,1.3203 4.0133,1.6267 7.8278,3.5049 11.2558,5.8516 1.7854,1.08 3.3454,2.4543 5,3.6543 1.572,1.3066 3.0656,2.7057 4.5723,4.039 -1.84,-0.8533 -3.6405,-1.7462 -5.4805,-2.5195 -1.8933,-0.6533 -3.6809,-1.4927 -5.5996,-1.9727 -3.44,-1.08 -6.9467,-1.6806 -10.3867,-2.0273 -0.3213,-0.04 -0.6266,-0.079 -0.9453,-0.1192 -3.2147,-0.1866 -5.4028,-0.2677 -8.4414,0.1856 -0.5347,0.08 -2.441,0.3207 -2.961,0.4141 -0.96,0.1733 -1.5736,0.227 -2.4004,0.707 -3.4133,1.9467 -7.412,5.0392 -7.332,8.5058 0,0.2 0.2533,0.3212 0.3613,0.5079 1.6387,1.4533 3.1451,2.7595 4.7051,3.9062 0.4547,0.2133 2.1736,1.5073 2.5469,1.9473 0.081,0.08 0.468,0.3332 0.748,0.5332 l 0.7442,0.5332 c 0.4933,0.3333 0.9614,0.6393 1.4414,0.9726 0.24,0.16 0.5061,0.3459 0.7461,0.5059 0.44,0.3067 0.8666,0.5748 1.3066,0.8281 0.148,0.093 0.2928,0.1993 0.4395,0.2793 0.4133,0.1867 0.8004,0.401 1.1484,0.6543 1.3334,0.8667 7.5329,3.6796 7.8262,3.9063 2.6,1.0266 5.4266,1.7869 8.6133,2.3203 0.3733,0.067 0.7334,0.1459 1.1054,0.1992 0.6534,0.093 1.3487,0.1739 2.0274,0.2539 0.5067,0.067 0.9875,0.1322 1.5195,0.1855 3.16,0.3067 5.506,0.1863 7.586,-0.4003 0.6133,-0.1734 2.5213,-1.1329 3.6679,-1.8262 -0.172,-1.1333 -0.3197,-2.2655 -0.3984,-3.4121 -0.28,-2.04 -0.2016,-4.1339 -0.2949,-6.1739 0.015,-2.0533 0.1723,-4.0937 0.2656,-6.0937 0.5067,1.9733 0.9338,3.9332 1.4805,5.8398 0.68,1.8934 1.161,3.813 1.9863,5.5996 0.76,1.9601 1.6797,3.827 2.6797,5.627 0.5333,0.9333 1.6406,2.748 1.6406,2.748 0.013,0.027 0.028,0.065 0.041,0.092 0.36,0.5734 0.7201,1.1471 1.0801,1.7071 2.1467,3 4.5732,5.6926 7.2266,7.9726 0.053,0.053 0.1058,0.1069 0.1738,0.1602 1.3333,1.1867 3.0783,2.5074 4.2383,3.1074 2.3866,1.2267 5.8538,2.5461 8.5351,2.7461 0.5854,0.04 3.3712,0.2265 4.1192,0.1465 0.3866,-0.04 0.7864,-0.066 1.1464,-0.1328 0.4667,-0.04 0.9468,-0.093 1.3868,-0.1602 0.1733,-0.04 0.3472,-0.067 0.5058,-0.094 0.56,-0.093 1.1077,-0.1863 1.6543,-0.293 0.2534,-0.04 0.4934,-0.093 0.7481,-0.1602 0.3453,-0.067 0.6904,-0.1325 1.0371,-0.1992 0.3333,-0.08 0.6546,-0.1859 0.9746,-0.2793 0.24,-0.067 0.4787,-0.1211 0.7187,-0.2011 0.548,-0.1734 1.0672,-0.3597 1.5606,-0.5996 l 0.8262,-0.3731 c 1.4533,-0.6667 2.8401,-1.308 3.8535,-2.0547 2.028,-1.52 2.1068,-2.2396 2.1601,-2.5996 0.067,-0.5333 0.015,-1.3461 -0.9453,-3.0527 -1.5467,-2.7734 -3.8277,-5.3732 -7.4277,-8.4532 -0.092,-0.08 -0.213,-0.1605 -0.3184,-0.2539 -1.2013,-0.1333 -2.4005,-0.2932 -3.5605,-0.5332 -2.8254,-0.5333 -5.5609,-1.3056 -8.1875,-2.2656 -1.4934,-0.5467 -2.9597,-1.1201 -4.3731,-1.7734 -3.8786,-1.92 -7.5338,-4.0937 -10.7871,-6.7071 -1.5853,-1.12 -2.9724,-2.5201 -4.4258,-3.7734 -0.095,-0.067 -0.1745,-0.1602 -0.2812,-0.2402 -1.4667,-1.4267 -2.8402,-2.9331 -4.2403,-4.3731 1.2801,0.7067 2.5215,1.4255 3.7735,2.1055 0.5067,0.28 1.0008,0.5615 1.4941,0.8281 1.84,0.7867 3.5341,1.8534 5.4395,2.3867 5.4,1.5067 9.4283,1.1058 12.375,1.0391 3.28,-0.093 8.5725,-0.4664 11.8125,-1.0664 3.92,-0.7333 10.8542,-0.7189 15.8262,-1.6524 5.0133,-0.9466 9.0931,-1.8538 12.8398,-2.8671 2.908,-0.7734 5.8009,-1.7472 8.5742,-2.8672 3.4653,-1.4267 5.9323,-2.746 7.959,-4.2793 3.4533,-2.6267 4.3327,-4.5331 4.3594,-6.4531 l -0.1192,-0.4004 c -0.52,-0.72 -0.9724,-1.1744 -1.4004,-1.5079 -2.9466,-2.2133 -6.6251,-3.4651 -9.8398,-4.3984 -5.2667,-1.5333 -10.853,-2.1469 -15.625,-2.5469 -1.028,-0.093 -2.0407,-0.2016 -3.0527,-0.2949 -2.788,-0.28 -5.428,-0.5325 -7.9746,-0.5058 -2.6267,0.04 -5.2803,0.3599 -7.9336,0.9199 -0.3334,0.3733 -0.667,0.7337 -1.0137,1.0937 -1.6267,1.6667 -3.3044,3.2123 -5.1192,4.5723 -3.5719,2.76 -7.4282,4.96 -11.375,6.6934 -1.2133,0.48 -2.4266,0.9343 -3.6386,1.3476 -2.8147,0.9733 -5.6532,1.7602 -8.5332,2.2402 -2.0134,0.4534 -4.1075,0.5599 -6.1328,0.8399 -0.3614,0.027 -0.7207,0.026 -1.0821,0.053 -1.68,0.093 -3.3584,0.1345 -5.0117,0.2012 1.5347,-0.5333 3.0396,-1.0272 4.5449,-1.5606 0.3747,-0.1466 0.7751,-0.2807 1.1485,-0.414 1.8266,-0.8533 3.6804,-1.4938 5.4004,-2.4805 2.7453,-1.36 5.2793,-3.0118 7.666,-4.7851 0.6786,-0.4934 1.3343,-1.0015 1.9863,-1.5215 2.8667,-2.4534 5.946,-6.8666 7.3594,-9.2266 1.9346,-3.2533 4.8266,-10.2925 6,-12.8125 0.8146,-1.76 1.5872,-3.5193 2.2539,-5.2793 3,-7.7333 4.8935,-15.04 5.7988,-22.3066 0.095,-0.6667 0.1612,-1.3203 0.2012,-1.9336 0.068,-0.6267 0.093,-1.2278 0.1211,-1.8145 0,-0.12 0.012,-0.2253 0.012,-0.332 0.013,-0.52 0.054,-1.0399 0.014,-1.5332 -0.013,-0.2933 -0.013,-0.6015 0,-0.9082 0.1066,-1.1733 0.013,-2.5193 -0.252,-4.2793 -0.041,-0.3333 -0.1058,-0.6273 -0.1738,-0.9473 -0.44,-2.3466 -1.1084,-4.2127 -2.0684,-5.7461 -0.3053,-0.48 -0.6253,-0.8939 -0.9707,-1.2539 -0.28,-0.3066 -0.5758,-0.5865 -0.8945,-0.8398 -0.231,-0.17 -0.5425,-0.4142 -1.252,-0.4024 z"
         style="opacity:1;fill:#fec935;fill-opacity:1;stroke-width:1.01618898" />
      <path
         inkscape:connector-curvature="0"
         id="path349"
         transform="matrix(0.75000002,0,0,-0.75000002,0,1000)"
         d="m -1348.0117,2088.1992 c -6.1214,12.9467 -15.708,23.4921 -28,31.0254 18.9853,14.6667 49.1847,32.2675 72.3047,36.8008 12.68,2.48 24.1359,3.1603 34.2812,2.3203 1.3467,-2.52 3.9464,-5.307 8.6797,-8.0137 1.508,-0.8666 2.7994,-1.1075 3.7461,-1.2675 l 0.334,-0.066 c 0.1867,-0.027 0.4655,-0.066 0.7988,-0.1191 -0.8933,-0.3333 -1.693,-0.92 -2.293,-1.6934 -0.292,-0.32 -0.8121,-0.8261 -1.1308,-1.1328 -0.28,-0.2666 -0.4818,-0.4665 -0.5352,-0.5332 -0.053,-0.053 -0.1068,-0.1208 -0.1601,-0.1875 -4.6387,-5.5466 -8.0134,-10.3993 -10.6387,-15.2793 -2.228,-4.1333 -3.774,-8.2143 -4.6953,-12.3476 -4.9867,0.9066 -11.6904,0.6402 -20.3985,-1.0664 -14.6253,-2.8667 -36.0809,-16.1195 -52.2929,-28.4395 z"
         style="opacity:1;fill:#d99d20;fill-opacity:1;stroke-width:1.01618898" />
      <path
         inkscape:connector-curvature="0"
         id="path347"
         transform="matrix(0.75000002,0,0,-0.75000002,0,1000)"
         d="m -1670.8125,2181.9844 c -37.8533,0 -65.627,25.4145 -65.627,61.5879 0,15.28 4.9605,28.653 13.5352,38.9863 11.7453,14.1333 30.2385,22.5996 52.0918,22.5996 23.0533,0 41.2265,-8.4139 52.8398,-23.5605 l -25.0664,-22.3731 c -6.9066,8.7467 -15.1474,13.8008 -25.7461,13.8008 -6.588,0 -12.3214,-1.8272 -16.8281,-5.1738 -6.7733,-5.0267 -10.7734,-13.466 -10.7734,-24.2793 0,-18 11.1069,-29.4532 27.6015,-29.4532 10.5987,0 18.8395,5.0522 25.7461,13.7989 l 25.0664,-22.3731 c -11.6133,-15.1466 -29.7865,-23.5605 -52.8398,-23.5605 z"
         style="opacity:1;fill:#d99d20;fill-opacity:1;stroke-width:1.01618898" />
      <path
         inkscape:connector-curvature="0"
         id="path345"
         transform="matrix(0.75000002,0,0,-0.75000002,0,1000)"
         d="m -1569.5059,2184.6777 -26.6679,61.0137 -24.8262,56.7734 h 40.3867 l 7.9063,-20.5332 h 44.7597 l 7.9082,20.5332 h 41.0664 l -28.2929,-64.7324 -23.2012,-53.0547 z"
         style="opacity:1;fill:#d99d20;fill-opacity:1;stroke-width:1.01618898" />
      <path
         inkscape:connector-curvature="0"
         id="path343"
         transform="matrix(0.75000002,0,0,-0.75000002,0,1000)"
         d="m -1472.5859,2184.6777 v 117.7871 h 36.1875 v -51.8261 l 25.5722,41.2265 h 17.5059 l 25.5742,-43.08 0.334,53.6796 h 36.1855 l -0.1464,-47.7324 -0.1993,-70.0547 h -32.6406 l -35,58.8008 -2.3594,3.961 -2.8007,-4.5879 -35.5606,-58.1739 z"
         style="opacity:1;fill:#d99d20;fill-opacity:1;stroke-width:1.01618898" />
      <path
         inkscape:connector-curvature="0"
         id="path341"
         transform="matrix(0.75000002,0,0,-0.75000002,0,1000)"
         d="m -1312.0527,2184.6777 v 117.7871 h 39.7187 v -28.9336 h 16.9883 c 32.812,0 53.6797,-17.1724 53.6797,-44.4257 0,-27.2667 -20.8677,-44.4278 -53.6797,-44.4278 z"
         style="opacity:1;fill:#d99d20;fill-opacity:1;stroke-width:1.01618898" />
      <path
         inkscape:connector-curvature="0"
         id="path339"
         transform="matrix(0.75000002,0,0,-0.75000002,0,1000)"
         d="m -1272.334,2215.3047 h 14.4668 c 10.9333,0 16.1602,5.2141 16.1602,13.8008 0,8.5733 -5.2269,13.8007 -16.1602,13.8007 h -14.4668 z"
         style="opacity:1;fill:#d99d20;fill-opacity:1;stroke-width:1.01618898" />
      <path
         inkscape:connector-curvature="0"
         id="rect219"
         transform="matrix(0.75000002,0,0,-0.75000002,0,1000)"
         d="m -1550.3203,2223.7188 6.1074,15.8124 5.334,13.8008 h -22.8945 l 4.9062,-12.707 z"
         style="opacity:1;fill:#d99d20;fill-opacity:1;stroke-width:1.01618898" />
      <g
         transform="matrix(0.72890273,0,0,0.72890273,-323.17062,-188.09026)"
         id="g303">
        <g
           id="g20"
           transform="translate(-1393.644,-850.3456)">
          <path
             d="m 0,0 c -1.352,0.065 -2.705,-0.052 -4.024,-0.348 -1.752,-3.676 -1.752,-3.676 -1.406,-8.064 2.1,0 2.1,0 4.909,1.405 0.444,2.291 0.619,4.627 0.521,6.959 z m -21.021,10.337 c 0.827,-1.139 0.677,-2.714 -0.348,-3.678 0.306,1.2 0.423,2.442 0.348,3.678 M -2.1,-29.307 c -0.694,4.388 0.348,9.28 0.695,13.841 -2.273,1.231 -3.503,-0.694 -5.429,0 -1.578,-5.082 -1.578,-5.776 -0.868,-10.684 -0.705,-1.925 -1.583,-4.03 -2.635,-6.313 -1.231,0.521 -2.1,0.868 -3.157,1.231 -0.521,-0.347 -1.231,-0.695 -2.099,-1.231 -2.012,-0.377 -4.092,0.067 -5.776,1.231 -2.083,4.024 -0.505,8.586 -0.505,12.61 -1.23,1.23 -2.272,0.347 -3.503,0 -0.531,-2.833 -0.821,-5.704 -0.868,-8.586 -0.521,-1.23 0.347,-2.446 0.868,-4.371 -0.657,-0.282 -1.418,0.022 -1.699,0.68 -0.028,0.065 -0.052,0.133 -0.069,0.204 v 7.165 c 0,1.404 0.347,2.634 0.347,4.56 -4.371,1.232 -9.279,-1.578 -12.435,3.504 4.024,2.635 8.932,1.231 12.957,2.809 0.346,2.098 1.404,3.33 1.578,4.734 0.52,-1.404 -0.174,-2.619 1.23,-4.024 0.774,0.075 1.505,0.384 2.099,0.884 0.822,2.615 1.294,5.326 1.405,8.064 0,0.694 -1.057,1.231 -1.057,1.752 -1.314,-1.04 -2.183,-2.541 -2.431,-4.198 0,-0.884 -0.694,-1.578 -1.231,-2.446 v 5.207 c -3.866,1.406 -7.023,2.274 -10.526,3.552 0,2.273 1.404,2.273 2.636,2.809 3.156,0.52 6.312,0.694 9.469,1.231 0.694,0.347 1.23,1.404 1.751,1.751 0.347,-0.347 0.347,-1.404 0.695,-1.751 1.925,0.347 2.272,1.404 2.272,2.273 0.868,6.312 2.273,12.435 3.157,18.558 0.52,1.926 0.52,3.504 1.23,5.603 h 5.066 c 1.516,-2.89 3.274,-5.646 5.255,-8.238 0.868,-4.561 -0.868,-10.164 -0.346,-15.94 1.741,-0.7 3.686,-0.7 5.428,0 1.578,5.776 1.578,12.437 4.371,18.212 1.579,2.273 4.025,1.405 6.661,0.868 1.265,-1.458 2.901,-2.549 4.734,-3.156 2.272,-5.255 1.058,-10.163 1.926,-15.418 2.369,-0.439 4.709,-1.024 7.007,-1.752 2.272,-1.058 3.502,-2.272 3.156,-4.562 -0.868,-1.751 -2.636,-1.404 -4.372,-1.404 -1.736,0 -3.157,2.273 -5.429,0.868 -0.815,-2.309 -0.92,-4.81 -0.3,-7.18 2.983,-0.695 6.123,0.52 9.279,0 2.82,0.023 5.635,-0.209 8.413,-0.695 1.057,-0.883 1.752,-2.272 3.156,-3.504 -2.099,-1.404 -4.908,-0.883 -6.66,-0.883 -2.542,-0.44 -5.123,-0.615 -7.701,-0.521 -2.284,-0.604 -4.65,-0.839 -7.007,-0.694 -1.405,-5.603 -0.348,-10.858 -2.636,-16.286 h -3.566 c -0.811,-0.305 -1.576,-0.719 -2.273,-1.232 -2.374,-0.585 -4.882,0.075 -6.66,1.752 -0.777,1.127 -2.192,1.624 -3.503,1.231 -0.411,0.877 -0.591,1.843 -0.521,2.809 h -0.347 c 0.073,-0.992 0.376,-1.953 0.884,-2.809 C -0.521,-28.075 0,-29.307 -2.1,-29.307"
             style="fill:#ef5f23;fill-opacity:1;fill-rule:nonzero;stroke:none"
             id="path22"
             inkscape:connector-curvature="0" />
        </g>
        <g
           id="g24"
           transform="translate(-1276.0717,-803.5848)">
          <path
             d="m 0,0 v -0.584 c 0,0.142 -0.143,0.284 -0.143,0.441 1.086,3.561 4.852,5.568 8.413,4.483 3.56,-1.085 5.567,-4.852 4.481,-8.412 z m -30.79,-45.167 -0.142,0.284 v -0.284 z m -0.884,4.734 12.704,-4.088 h -0.3 v -2.05 h 0.3 z m -0.141,-0.441 c -1.488,-1.595 -2.366,-3.662 -2.478,-5.84 1.41,1.637 2.276,3.672 2.478,5.823 z m -2.92,-8.176 c 0.162,0.674 0.262,1.361 0.299,2.052 -0.299,-0.3 -0.725,-0.584 -0.883,-1.025 -2.478,-5.998 -5.114,-11.979 -7.591,-17.818 -0.119,-0.624 -0.166,-1.26 -0.142,-1.893 0.376,0.463 0.719,0.954 1.026,1.467 2.462,5.65 4.813,11.489 7.291,17.217 m -8.444,-18.937 c -1.934,-3.029 -3.413,-6.326 -4.386,-9.784 2.161,2.9 3.659,6.24 4.386,9.784 m -6.864,-15.277 c 1.5,1.347 2.394,3.242 2.478,5.255 -1.513,-1.341 -2.417,-3.236 -2.51,-5.255 z m -0.143,-8.617 c 0,-0.078 0.064,-0.141 0.143,-0.141 h -0.143 z m -0.725,-0.141 h 0.725 c -0.296,-0.404 -0.541,-0.844 -0.725,-1.31 z m 0.725,8.616 c -0.725,-0.283 -0.725,-0.884 -0.725,-1.467 0.694,0.3 0.694,0.726 0.694,1.467 z m -0.883,-8.616 0.142,0.141 v -0.141 z m 0,7.006 c -0.523,-0.208 -0.827,-0.755 -0.726,-1.309 0.536,0.115 0.878,0.644 0.763,1.18 -0.01,0.044 -0.022,0.087 -0.037,0.129 m -1.578,-8.616 h 1.578 c 0,0.142 0,0.142 0.142,0.142 v -0.142 h -0.142 c -0.616,-0.442 -1.2,-0.742 -1.578,0 m 0,0 h -0.142 c 0,0.142 0,0.142 0.142,0.142 z m -11.047,63.994 -0.143,0.284 -0.142,-0.284 z m -4.214,-56.845 c 0,0.142 -0.142,0.142 -0.3,0.142 v -0.284 c 0.078,0 0.142,-0.063 0.142,-0.143 0.02,0.11 0.076,0.21 0.158,0.285 m 94.831,77.724 c 0.003,-5.309 -0.584,-10.602 -1.751,-15.782 -1.716,-9.648 -4.407,-19.097 -8.033,-28.201 -1.168,-2.778 -2.478,-5.255 -3.804,-7.891 -2.533,-4.542 -5.965,-8.52 -10.084,-11.694 -4.972,-3.804 -10.811,-4.23 -16.808,-3.504 -2.018,0.399 -3.83,1.501 -5.113,3.109 -1.749,1.806 -3.27,3.821 -4.529,5.997 -3.306,5.71 -5.627,11.937 -6.865,18.417 -0.126,0.651 -0.323,1.286 -0.583,1.894 -1.468,-0.3 -1.311,-1.31 -1.752,-2.193 -2.889,-7.781 -6.045,-15.671 -8.917,-23.546 -1.752,-4.735 -3.503,-9.343 -5.555,-13.872 -0.922,-2.055 -2.048,-4.011 -3.361,-5.839 -0.3,0.583 -0.584,0.725 -0.727,0 -1.31,-0.143 -1.578,-0.727 -1.752,-1.579 -1.918,0.245 -3.867,0.045 -5.696,-0.583 -1.101,-0.269 -2.243,-0.317 -3.363,-0.143 -0.949,0.27 -1.948,0.318 -2.918,0.143 -1.9,-0.218 -3.751,0.696 -4.735,2.335 -1.307,1.799 -2.251,3.837 -2.778,5.997 -1.357,5.985 -1.851,12.133 -1.467,18.259 0.769,10.897 2.727,21.676 5.839,32.147 0.725,2.477 1.578,4.734 2.477,7.165 0.582,1.49 1.482,2.837 2.636,3.945 1.012,1.221 1.895,2.543 2.636,3.946 1.309,1.467 3.803,1.31 5.997,1.31 0.95,-0.289 1.486,-1.294 1.197,-2.245 -0.009,-0.03 -0.018,-0.061 -0.03,-0.091 -3.218,-8.981 -5.662,-18.221 -7.307,-27.618 -1.531,-7.888 -2.119,-15.93 -1.752,-23.956 0.584,4.387 0.884,8.616 1.311,13.145 0.726,4.388 1.31,8.917 2.335,13.447 0.726,4.387 1.752,8.759 2.92,13.288 1.027,4.525 2.393,8.968 4.088,13.288 1.025,-0.442 1.893,-0.884 2.919,-1.31 0.042,-1.615 -0.058,-3.231 -0.3,-4.829 -1.168,-7.008 -2.478,-14.204 -3.646,-21.479 -1.34,-7.915 -2.027,-15.928 -2.051,-23.956 -0.018,-0.992 0.041,-1.984 0.173,-2.967 1.468,0 1.579,0.884 1.752,1.578 2.636,5.697 4.971,11.536 7.591,17.359 4.309,9.848 8.538,19.491 12.751,29.417 1.027,1.894 2.195,3.946 3.157,5.997 0.601,0.941 1.288,1.823 2.051,2.636 3.476,1.263 7.31,1.104 10.669,-0.442 0,-0.584 0.142,-0.884 0,-1.026 -3.061,-2.477 -3.645,-5.838 -4.088,-9.201 -0.557,-4.861 -0.462,-9.776 0.284,-14.613 0.289,0.715 0.532,1.447 0.727,2.193 1.467,-4.386 2.777,-8.916 4.245,-13.288 1.195,-3.947 3.076,-7.654 5.555,-10.952 0.989,-1.908 2.444,-3.537 4.229,-4.734 0.715,0.547 1.4,1.132 2.052,1.752 2.522,3.312 4.675,6.889 6.423,10.668 3.922,8.741 6.813,17.909 8.617,27.318 0.726,4.387 1.31,8.759 1.894,13.146 0.219,3.868 -0.078,7.747 -0.884,11.536 h -0.143 v 0.142 c 0.143,0 0.143,0 0.143,-0.142 0,0.142 0.141,0.142 0.141,0.299 -0.023,0.155 -0.071,0.304 -0.141,0.443 -0.3,3.804 -3.361,5.997 -6.423,8.175 0.726,0.141 1.168,0.441 1.751,0.584 0.151,0.597 0.347,1.182 0.584,1.752 0.442,0.141 0.584,0.441 0.884,0.441 3.307,0.508 6.69,0.104 9.785,-1.168 2.768,-0.979 4.926,-3.189 5.839,-5.98 0.999,-2.71 1.574,-5.559 1.704,-8.444"
             style="fill:#3d5b62;fill-opacity:1;fill-rule:nonzero;stroke:none"
             id="path26"
             inkscape:connector-curvature="0" />
        </g>
        <g
           id="g28"
           transform="translate(-1200.2729,-808.0985)">
          <path
             d="M 0,0 C 1.008,1.783 1.551,3.791 1.578,5.839 0.505,4.387 0.363,2.619 0.063,0 Z m -1.578,-6.865 c 0.078,-0.083 0.185,-0.134 0.3,-0.142 0.117,0.518 0.165,1.048 0.141,1.578 h -0.441 z m -0.727,-4.387 h 0.112 v 1.578 z m -1.025,-2.92 c -0.12,-1.406 -0.167,-2.818 -0.142,-4.229 1.057,1.309 0.616,2.761 0.173,4.229 z m -43.1,-14.756 h -0.883 c 0.284,0.584 0.584,1.026 0.883,1.578 z m -0.883,-0.141 h -0.142 v 0.142 h 0.142 z m -1.579,-4.972 c -0.119,-0.328 -0.167,-0.678 -0.141,-1.025 0.3,0.299 0.741,0.441 0.157,1.025 z m -1.893,-2.793 c 0,0.584 0,1.31 0.868,1.578 0.016,-0.694 -0.126,-1.278 -0.853,-1.562 z m 0,-0.158 v -2.636 c -0.584,-0.441 -1.168,-1.025 -1.752,-1.468 0.075,1.546 0.702,3.014 1.767,4.135 z m -1.752,-4.387 c 0,-0.884 0.142,-1.752 -0.884,-2.478 -0.161,0.923 0.174,1.865 0.884,2.478 m -0.963,-2.589 c -0.142,-0.884 0,-1.893 -0.867,-2.335 0.236,0.867 0.095,1.767 0.962,2.32 z m -0.867,-2.335 v -0.142 c 0,-1.026 0.141,-1.894 -0.884,-2.636 -0.164,0.972 0.168,1.96 0.884,2.636 z m -1.027,-2.778 h 0.143 v -0.19 l -0.143,-0.141 z m 0,-0.3 c 0.223,-1.088 0.014,-2.22 -0.584,-3.156 -0.15,1.099 0.09,2.217 0.679,3.156 z m -0.725,-3.361 c 0,0.078 0.063,0.142 0.141,0.142 v -0.142 l -0.141,-0.142 z m 0,-0.142 c 0,-0.726 -0.143,-1.578 -0.3,-3.156 -0.489,1.688 -0.348,2.572 0.379,3.156 z m 65.304,8.032 c -1.026,-1.578 -1.752,-3.502 -2.919,-5.254 -7.102,-11.341 -15.037,-22.139 -23.737,-32.305 -2.013,-2.189 -4.216,-4.195 -6.58,-5.997 -2.831,-2.552 -6.427,-4.095 -10.226,-4.388 -2.195,0.284 -4.735,0.868 -7.308,1.026 -5.839,0.3 -9.926,3.646 -12.625,8.759 -1.763,3.7 -2.71,7.738 -2.777,11.836 -0.138,5.573 0.553,11.137 2.051,16.508 0.726,3.503 1.894,7.007 2.92,10.525 0.442,1.579 0.883,3.063 1.167,4.736 0.974,1.22 1.581,2.692 1.752,4.245 -0.278,0.118 -0.582,0.167 -0.883,0.141 0.137,2.219 1.009,4.329 2.477,5.998 l 0.442,-0.884 c 0.279,0.287 0.48,0.639 0.584,1.025 0.442,0.584 0.584,1.027 0,1.579 v 0.126 c 0.442,0.884 0.584,1.894 1.026,2.778 4.973,9.721 11.32,18.676 18.844,26.591 1.495,1.622 3.103,3.136 4.813,4.53 3.357,2.959 8.036,3.903 12.277,2.477 0.56,-0.232 1.15,-0.381 1.752,-0.441 1.31,2.052 2.478,3.945 3.646,5.554 2.987,1.349 6.502,0.02 7.849,-2.967 L 3.771,11.252 C 4.498,11.11 5.082,11.11 5.823,10.952 6.001,10.436 6.148,9.908 6.266,9.374 5.382,6.896 4.514,4.845 3.787,2.651 4.229,1.625 4.514,0.6 5.098,-0.853 c -1.895,-9.926 -3.804,-20.515 -5.84,-31.262 0,-0.143 -0.584,-0.584 -1.167,-0.868 -0.443,0.141 -1.168,0.284 -1.168,0.725 -0.428,0.867 -0.674,1.813 -0.727,2.778 0,3.645 0.143,7.165 0.143,10.81 -0.313,-0.694 -0.51,-1.435 -0.584,-2.193 -0.442,-3.646 -0.884,-7.165 -1.311,-10.952 -1.751,1.168 -3.361,2.193 -4.97,3.361 -2.038,2.015 -3.039,4.853 -2.715,7.701 0.33,5.838 1.11,11.643 2.336,17.359 0.3,1.468 0.442,3.063 1.026,5.256 -1.168,-0.726 -1.894,-1.026 -2.478,-1.467 -1.579,-1.752 -3.362,-3.362 -4.735,-5.114 -12.265,-15.706 -20.943,-33.908 -25.424,-53.326 -1.24,-5.906 -1.68,-11.951 -1.309,-17.975 0.177,-3.701 1.225,-7.308 3.061,-10.526 2.764,0.99 5.298,2.531 7.449,4.529 5.146,4.34 9.846,9.182 14.03,14.456 5.397,6.865 10.668,13.872 16.065,20.752 1.674,2.289 3.637,4.353 5.839,6.14 1.168,-0.3 2.336,-0.584 3.362,-0.727 1.294,-1.261 2.115,-2.145 3.283,-3.456 z m -66.614,-13.145 c 0.118,-0.426 0.166,-0.869 0.142,-1.311 -0.142,0 -0.3,0 -0.3,-0.141 v 1.309 z"
             style="fill:#3d5b62;fill-opacity:1;fill-rule:nonzero;stroke:none"
             id="path30"
             inkscape:connector-curvature="0" />
        </g>
        <g
           id="g32"
           transform="translate(-1120.4028,-826.0741)">
          <path
             d="M 0,0 C -0.017,0.395 0.031,0.789 0.143,1.168 -1.168,0.584 -1.325,-0.584 -1.609,-1.609 -2.636,-6.723 -3.661,-11.694 -4.671,-16.665 -5.059,-18.639 -5.207,-20.652 -5.113,-22.662 -3.393,-14.897 -1.578,-7.448 0,0 m -5.586,-26.008 h -0.143 v -1.31 h 0.143 z m -0.301,-46.461 c 0.451,-0.216 0.889,-0.458 1.311,-0.725 h 0.3 l 0.141,-0.285 -0.141,0.285 h -0.3 c -0.569,0.141 -1.153,0 -1.294,0.725 z m 0,0 c 0,0.078 -0.063,0.143 -0.141,0.143 0.158,0 0.158,0 0.158,-0.143 z m -1.025,1.027 -0.142,-0.143 v 0.143 z m 0,0 c 0.331,-0.256 0.628,-0.553 0.884,-0.884 -0.316,0.276 -0.659,0.519 -1.026,0.725 z m -0.142,0 c -0.512,0.353 -0.791,0.959 -0.726,1.578 0.635,-0.238 0.965,-0.939 0.742,-1.578 z m -0.726,1.751 v 0.142 c -1.347,1.91 -1.823,4.301 -1.31,6.581 0.442,-2.194 0.884,-4.229 1.31,-6.581 z M 30.506,35.793 C 29.338,32.637 26.561,31.405 24.524,29.07 24.225,28.344 23.94,27.318 23.641,26.435 20.484,15.04 17.061,3.646 13.998,-7.748 11.632,-17.077 10.215,-26.621 9.77,-36.234 9.327,-42.815 9.186,-49.38 9.186,-55.819 c -0.049,-2.795 0.194,-5.588 0.725,-8.332 0.13,-0.764 0.375,-1.504 0.726,-2.195 0.968,-0.447 1.897,-0.974 2.778,-1.578 0.441,-0.584 0.884,-1.578 1.31,-2.335 -0.178,-0.47 -0.423,-0.911 -0.727,-1.31 -2.635,-1.752 -5.696,-1.468 -8.475,-0.884 -2.38,0.577 -4.721,1.31 -7.006,2.194 -2.716,0.769 -4.86,2.859 -5.698,5.555 -0.441,1.752 -1.168,3.361 -1.467,5.113 -0.507,3.879 -0.802,7.783 -0.884,11.695 -0.239,13.168 1.134,26.318 4.088,39.153 0.141,0.584 0.141,1.31 0.299,2.052 -0.52,-0.219 -0.972,-0.573 -1.309,-1.026 -4.865,-7.468 -9.089,-15.334 -12.626,-23.514 -1.751,-4.388 -3.503,-8.917 -2.919,-13.73 -1.31,-2.92 -3.945,-3.062 -6.581,-3.504 -0.726,0.584 -1.578,1.468 -2.478,2.052 -0.471,-0.557 -0.909,-1.142 -1.31,-1.752 -1.894,-0.584 -2.919,0.868 -3.945,1.894 -0.869,0.172 -1.75,0.272 -2.635,0.299 -0.098,0.407 -0.246,0.799 -0.443,1.168 -0.049,1.619 -0.245,3.23 -0.584,4.814 -2.777,9.927 -6.722,19.285 -10.226,28.927 0.142,-4.734 -1.026,-9.058 -1.31,-13.872 -0.441,-7.89 -1.025,-15.923 -1.752,-23.814 -0.725,-5.555 -1.752,-11.047 -2.777,-16.508 -0.12,-1.045 -0.363,-2.073 -0.726,-3.061 -1.467,-1.026 -3.061,-1.894 -4.971,-3.362 -1.752,0.143 -3.946,0.443 -6.139,0.584 -0.628,2.438 -0.677,4.99 -0.143,7.45 1.027,10.368 2.195,20.894 3.157,31.405 1.578,15.639 2.336,31.405 3.062,47.186 0.142,2.194 0.142,4.53 0.283,6.866 0.065,0.936 0.213,1.866 0.443,2.777 1.578,0.725 2.336,-0.142 3.156,-1.168 0.441,0.142 1.025,0.3 1.578,0.442 2.92,-0.584 4.087,-2.92 4.971,-5.397 1.168,-0.584 2.052,-1.168 3.504,-1.752 1.752,-3.945 3.361,-8.175 5.255,-12.278 1.894,-4.103 3.504,-8.332 5.397,-12.42 1.67,-4.331 3.621,-8.548 5.84,-12.625 0.481,0.986 1.068,1.918 1.751,2.777 7.545,13.729 17.122,26.237 28.407,37.103 5.129,4.67 10.101,9.406 15.419,14.045 1.707,1.46 3.602,2.687 5.634,3.646 1.917,1.507 4.6,1.565 6.581,0.142 0.441,-0.3 1.168,0 1.578,-0.3 0.874,-0.234 1.717,-0.573 2.509,-1.01 m -97.593,-73.4 c -0.726,-8.759 -1.893,-17.36 -2.777,-26.008 -0.125,-2.259 -0.774,-4.458 -1.895,-6.423 -1.168,0.584 -2.052,1.025 -3.061,1.468 0.147,3.65 0.295,7.159 0.442,10.526 0.441,4.971 0.884,9.926 1.578,14.756 0.726,7.307 1.752,14.613 2.335,21.763 0.657,4.889 0.948,9.822 0.868,14.755 -0.068,5.127 0.227,10.253 0.884,15.339 l 0.442,3.946 c 0.199,3.736 1.093,7.402 2.636,10.81 0.583,0.143 1.026,0.3 1.467,0.443 0.635,-2.676 0.832,-5.437 0.584,-8.175 -0.284,-8.759 -0.584,-17.361 -1.025,-26.151 -0.726,-9.011 -1.468,-17.927 -2.478,-27.049"
             style="fill:#3d5b62;fill-opacity:1;fill-rule:nonzero;stroke:none"
             id="path34"
             inkscape:connector-curvature="0" />
        </g>
        <g
           id="g36"
           transform="translate(-1046.3559,-809.2665)">
          <path
             d="M 0,0 H 0.301 L 0.158,0.3 Z m -30.979,-30.68 c -0.185,-0.466 -0.429,-0.905 -0.726,-1.309 0.584,0.141 0.726,0.725 0.726,1.247 z m -0.868,-1.578 c -0.142,-0.508 -0.338,-1 -0.584,-1.468 0.422,0.338 0.643,0.868 0.584,1.406 z m -7.89,-24.84 c 1.337,6.504 3.346,12.851 5.997,18.938 0.41,1.345 0.753,2.709 1.025,4.088 l -0.141,-0.143 c -4.231,-7.838 -7.338,-16.231 -9.233,-24.934 -0.465,-2.419 -0.417,-4.909 0.142,-7.307 0.442,-0.143 0.726,-0.143 1.31,-0.3 0.166,0.72 0.262,1.455 0.284,2.193 0.067,2.488 0.272,4.969 0.616,7.434 z m 62.383,37.403 C 22.505,-31.815 19.869,-43.51 16.508,-55.204 13.097,-67.12 8.997,-78.829 4.229,-90.271 c -1.467,-3.87 -3.481,-7.51 -5.98,-10.81 -1.168,-1.578 -2.478,-3.062 -3.645,-4.529 -7.591,-1.168 -14.315,0 -20.012,4.813 -6.58,5.555 -8.175,13.731 -3.503,21.037 2.651,4.305 6.075,8.082 10.099,11.142 4.53,1.752 8.175,0 11.837,-2.478 -0.23,-0.801 -0.526,-1.583 -0.883,-2.336 -1.752,-2.777 -3.646,-5.554 -5.256,-8.474 -1.233,-2.305 -2.288,-4.699 -3.157,-7.165 -0.583,-2.194 -0.441,-2.778 0.884,-4.971 1.514,1.555 2.705,3.395 3.504,5.413 4.348,7.305 7.924,15.042 10.668,23.088 2.478,6.865 4.735,13.73 7.007,20.595 0.43,1.166 0.628,2.404 0.584,3.645 C 5.255,-42.28 4.2,-43.335 3.22,-44.457 -2.035,-49.854 -7.007,-55.125 -12.42,-60.38 c -3.086,-3.065 -6.353,-5.942 -9.784,-8.617 -3.142,-2.794 -7.191,-4.353 -11.395,-4.387 -0.725,0 -1.578,-0.442 -2.477,-0.442 -1.556,-0.342 -3.161,-0.391 -4.735,-0.142 -3.256,0.936 -6.425,2.155 -9.468,3.646 -2.621,1.41 -4.208,4.191 -4.088,7.164 -0.225,2.927 -0.076,5.87 0.442,8.759 1.572,7.567 4.025,14.923 7.307,21.92 4.575,10.605 10.731,20.454 18.259,29.212 4.189,4.49 8.899,8.463 14.03,11.836 3.924,2.874 8.735,4.271 13.588,3.946 0.734,0.025 1.469,-0.022 2.193,-0.142 3.646,-0.584 10.085,-4.813 12.42,-8.333 0.884,-3.804 -0.884,-6.723 -3.061,-9.643 0.384,1.581 0.627,3.191 0.726,4.814 0.256,1.299 0.357,2.623 0.3,3.945 0,0.884 -0.584,1.468 -1.895,1.894 0,-2.052 0,-3.946 -0.141,-5.697 C 9.57,-2.397 9.13,-4.114 8.491,-5.761 7.935,-7.559 7.249,-9.315 6.439,-11.016 c -0.675,-1.681 -1.76,-3.168 -3.156,-4.324 -2.777,-1.025 -3.804,2.636 -6.722,2.052 0.725,4.229 2.918,8.033 2.05,12.625 -0.768,-0.255 -1.505,-0.6 -2.193,-1.025 -6.01,-4.421 -11.201,-9.859 -15.34,-16.066 -7.692,-11.777 -13.512,-24.678 -17.249,-38.239 -0.517,-1.972 -0.906,-3.975 -1.168,-5.997 -0.031,-0.687 0.017,-1.375 0.143,-2.052 0.945,-0.094 1.875,0.291 2.477,1.026 6.532,5.072 12.711,10.582 18.496,16.492 7.591,7.591 15.056,15.198 22.504,22.93 2.195,2.195 4.088,4.814 6.313,7.308 1.894,-0.143 4.971,1.309 7.165,-0.3 0.584,-1.168 -4.735,-23.957 -4.087,-25.425 0.867,0.727 5.98,23.373 6.864,23.957 -0.047,-0.506 0.253,-1.089 0.11,-1.641"
             style="fill:#3d5b62;fill-opacity:1;fill-rule:nonzero;stroke:none"
             id="path38"
             inkscape:connector-curvature="0" />
        </g>
        <g
           id="g40"
           transform="translate(-986.2592,-863.7606)">
          <path
             d="m 0,0 c -0.035,0.593 -0.13,1.18 -0.284,1.752 -3.646,0.868 -7.165,-1.168 -11.536,0 4.386,0.727 7.749,1.168 11.536,1.894 V 35.352 C -0.462,35.251 -0.664,35.201 -0.868,35.209 -5.603,22.931 -10.211,10.811 -14.897,-1.467 v -0.442 c 0,-0.142 0.299,-0.142 0.299,-0.3 C -9.669,-1.979 -4.776,-1.238 0,0 m -31.753,-19.727 h -0.142 l 0.142,-0.441 z M 22.6,-39.596 c -1.168,-1.168 -1.168,-1.168 -3.504,-1.168 -1.943,1.666 -4.669,2.066 -7.007,1.027 -1.307,-0.22 -2.64,-0.22 -3.945,0 -1.138,0.919 -1.915,2.21 -2.195,3.645 -1.025,4.23 -2.335,8.616 -3.156,13.004 -0.82,4.387 -1.31,9.2 -2.052,13.872 -0.066,0.51 -0.216,1.006 -0.441,1.468 -5.997,0.884 -11.695,-1.311 -17.234,-1.578 -1.434,-0.977 -2.39,-2.512 -2.635,-4.23 -2.194,-5.555 -4.245,-11.253 -6.313,-16.807 -0.486,-1.403 -1.071,-2.769 -1.752,-4.088 -1.168,-0.142 -2.336,-0.3 -3.645,-0.583 -0.261,0.453 -0.61,0.85 -1.026,1.167 -1.01,-0.52 -2.239,-0.342 -3.061,0.442 -1.168,1.452 0.284,2.636 0.141,4.23 -0.508,0.162 -0.962,0.463 -1.309,0.868 0.584,2.477 1.468,5.113 2.052,7.748 0.584,2.636 2.477,4.972 2.05,8.033 -2.05,1.31 -3.645,-1.309 -5.696,-0.441 -0.143,0.725 -0.442,1.751 -0.584,2.634 2.478,3.062 6.313,3.062 9.469,4.83 1.309,3.156 2.636,6.581 3.804,10.085 6.312,16.365 12.625,32.73 18.842,48.922 0.616,2.106 1.605,4.083 2.92,5.839 0.758,1.18 1.348,2.46 1.751,3.804 0.584,1.31 1.027,2.477 1.578,3.803 3.646,0.726 6.424,-2.052 9.47,-2.052 1.467,-1.467 2.777,-2.777 4.23,-4.387 0.305,-1.341 0.454,-2.713 0.441,-4.088 0.442,-6.138 0.884,-12.42 1.168,-18.701 0.441,-10.809 0.584,-21.62 1.168,-32.289 0.525,-12.117 1.938,-24.181 4.229,-36.092 0.631,-3.077 1.499,-5.855 2.242,-8.917"
             style="fill:#3d5b62;fill-opacity:1;fill-rule:nonzero;stroke:none"
             id="path42"
             inkscape:connector-curvature="0" />
        </g>
        <g
           id="g44"
           transform="translate(-912.7963,-824.6219)">
          <path
             d="M 0,0 C 3.361,0.284 6.581,1.025 9.469,1.31 6.277,2.332 2.794,1.851 0,0 c -0.852,-0.329 -1.734,-0.572 -2.636,-0.726 -0.441,0 -0.441,-0.299 -0.441,0 0,-0.299 0,0 0.441,0 0.82,0.396 1.7,0.647 2.605,0.742 z m -13.445,-30.68 0.299,0.3 v -0.3 z m 0.299,0 c -0.299,-0.441 -0.583,-0.441 -1.026,-0.883 0.268,0.272 0.511,0.568 0.727,0.883 z m -2.194,-1.751 c 0.443,0 0.884,0.442 1.168,0.868 -0.284,-0.442 -0.284,-0.868 -0.725,-1.026 z m 0.443,-0.142 c -0.443,0 -0.727,-0.442 -1.168,-0.884 0.321,0.278 0.57,0.63 0.725,1.026 z m -1.168,-2.778 c -0.27,-0.158 -0.515,-0.354 -0.726,-0.584 -0.3,-0.424 -0.644,-0.816 -1.026,-1.168 l 0.442,0.443 c -0.442,-0.443 -1.026,-0.884 -1.311,-1.168 -0.198,-0.282 -0.443,-0.527 -0.725,-0.727 -0.304,-0.378 -0.648,-0.721 -1.026,-1.025 -0.247,-0.339 -0.545,-0.637 -0.883,-0.884 -0.305,-0.378 -0.649,-0.722 -1.027,-1.025 l 0.285,0.3 c -0.15,-0.17 -0.359,-0.278 -0.584,-0.3 l -0.442,0.3 c 1.975,2.887 4.331,5.494 7.007,7.748 z m -15.924,-26.591 v 0.284 c 0.442,0.3 0.726,0.3 1.026,0.884 0.3,0.584 0.726,0.584 0.726,1.025 0.584,0 0.868,0.442 1.168,0.726 0,0.442 0.441,0.584 0.725,0.584 0.443,0.584 0.884,1.026 0.884,1.31 0,0.284 0.727,0.441 1.168,0.726 0.442,0.284 0.3,0.725 0.584,0.725 l 1.168,1.168 c 0,0.3 0.284,0.3 0.726,0.727 0.442,0.426 0.726,0.584 0.726,1.025 -0.193,-0.374 -0.437,-0.72 -0.726,-1.025 -0.442,0 -0.726,-0.443 -1.168,-0.727 -0.024,-0.418 -0.319,-0.77 -0.726,-0.868 -0.301,-0.269 -0.506,-0.629 -0.584,-1.025 -0.496,0.002 -0.95,-0.281 -1.168,-0.726 -0.441,-0.3 -0.441,-0.726 -0.884,-0.726 -0.3,-0.584 -0.725,-0.726 -0.725,-1.168 -0.3,-0.3 -0.584,-0.3 -1.168,-0.726 -0.193,-0.374 -0.437,-0.72 -0.726,-1.025 -0.3,0 -0.584,-0.584 -1.026,-0.884 z m -6.313,-7.007 0.284,0.3 c 0.442,0.441 0.726,0.441 0.726,0.725 l 0.442,0.443 -0.442,-0.443 c -0.284,0 -0.284,-0.3 -0.726,-0.725 z m 15.924,-2.636 c 10.738,3.642 21.79,6.283 33.015,7.891 3.957,0.703 8.027,0.399 11.837,-0.884 -0.063,-0.529 0.097,-1.061 0.441,-1.468 -0.282,-0.197 -0.528,-0.443 -0.726,-0.725 -2.919,-0.727 -5.997,-1.168 -9.342,-1.895 -14.771,-2.793 -29.214,-7.104 -43.1,-12.861 -2.052,-0.884 -4.088,-1.578 -5.997,-2.336 -1.932,0.351 -3.836,0.842 -5.697,1.467 -0.884,1.468 -1.468,3.062 -2.336,4.53 0.442,0.584 0.442,1.893 0.884,2.636 -0.884,0.299 -1.468,0.725 -2.335,1.025 -0.744,-0.05 -1.489,0.047 -2.195,0.284 -0.441,0.884 -0.725,1.578 -1.168,2.636 -0.674,-0.946 -1.435,-1.829 -2.272,-2.636 -1.026,1.578 0,1.894 0.442,2.636 2.478,3.061 5.114,5.981 7.591,8.916 5.982,6.313 11.979,13.005 17.817,19.428 0.442,0.584 1.579,1.025 2.336,1.752 l 0.442,-0.3 c 0.156,0.161 0.362,0.266 0.584,0.3 l -0.284,-0.3 c 0.378,0.303 0.721,0.647 1.026,1.025 0.338,0.247 0.637,0.545 0.884,0.884 0.378,0.304 0.721,0.647 1.025,1.025 0.282,0.2 0.527,0.445 0.726,0.727 0.284,0.3 0.868,0.725 1.31,1.168 l -0.442,-0.443 c 0.383,0.352 0.726,0.744 1.026,1.168 0.211,0.23 0.456,0.426 0.726,0.584 9.343,9.343 18.259,18.843 24.982,30.538 -6.581,0.726 -13.146,-1.752 -24.982,-9.785 -1.026,0.442 -2.336,0.442 -3.361,0.884 0,1.468 0.441,2.193 0.441,3.156 -1.468,1.026 -3.062,1.894 -4.087,2.636 -1.168,2.635 -0.727,4.971 1.025,6.313 6.633,7.032 15.764,11.175 25.424,11.536 2.68,0.063 5.285,-0.877 7.308,-2.636 2.193,-1.752 4.529,-3.156 5.839,-5.397 4.088,-5.998 5.697,-12.42 3.061,-18.938 -1.235,-3.379 -2.987,-6.547 -5.192,-9.391 -3.361,-4.228 -6.723,-8.916 -10.368,-12.861 -6.313,-7.165 -12.42,-14.03 -18.843,-20.894 -1.031,-0.998 -2.006,-2.051 -2.92,-3.157 2.478,0.726 4.088,1.026 5.997,1.467 6.313,1.168 12.42,2.636 18.843,3.504 2.694,0.5 5.436,0.696 8.175,0.584 0.726,0 1.752,-0.584 2.92,-0.726 0,-1.168 0.299,-1.752 0.299,-2.778 -0.465,-0.248 -0.958,-0.444 -1.467,-0.584 -12.788,-1.328 -25.413,-3.924 -37.687,-7.748 -1.303,-0.437 -2.573,-0.965 -3.803,-1.578 -0.442,0 -0.883,-0.727 -1.168,-1.026 1.088,0.338 2.21,0.555 3.346,0.647"
             style="fill:#3d5b62;fill-opacity:1;fill-rule:nonzero;stroke:none"
             id="path46"
             inkscape:connector-curvature="0" />
        </g>
        <g
           id="g48"
           transform="translate(-854.5776,-833.4911)">
          <path
             d="m 0,0 v -2.92 h 0.441 v 2.889 z M -2.479,9.2 -2.92,8.917 C -1.452,8.19 -1.895,6.581 -1.895,5.555 -2.873,6.549 -2.431,7.859 -2.431,9.169 Z m 0,0 c -1.357,1.398 -2.047,3.313 -1.893,5.256 1.453,-1.453 2.013,-3.574 1.468,-5.556 z m -1.893,-53.025 c 0.3,0.284 0.3,1.309 0.726,1.893 0.726,0 0.726,0.726 0.726,1.468 1.025,0.442 1.025,1.168 1.025,1.894 0.54,0.696 1.03,1.429 1.468,2.193 5.698,12.862 7.891,26.45 5.256,40.038 C 3.932,7.667 2.81,11.618 1.467,15.497 l -1.894,1.895 C 0.016,15.197 0.457,14.235 0.741,13.004 1.467,8.475 2.935,4.087 3.377,-0.584 c 1.474,-11.758 -0.035,-23.697 -4.388,-34.72 -0.441,-1.025 -0.441,-2.193 -0.884,-3.156 -0.408,-0.544 -0.614,-1.214 -0.584,-1.894 -0.534,-0.529 -0.934,-1.178 -1.167,-1.893 -0.442,-0.143 -0.442,-1.168 -0.726,-1.468 l -0.441,-0.442 z m -2.636,64.136 0.443,0.442 h -0.869 z m -4.734,-1.941 c 0,0 0.284,0 0.284,0.442 -0.031,-0.442 -0.031,-0.442 -0.284,-0.442 M -20.437,5.966 V 5.523 C -21.163,5.239 -21.163,4.355 -21.163,3.63 l -1.895,-3.361 c -3.756,-11.715 -5.36,-24.012 -4.734,-36.298 -0.177,-4.643 0.618,-9.272 2.336,-13.588 0.126,-0.43 0.221,-0.867 0.284,-1.31 0.3,0 0.726,-0.442 1.026,-0.584 -1.235,5.442 -1.839,11.007 -1.799,16.586 -0.178,12.131 1.346,24.228 4.529,35.935 v 2.604 c 1.025,0.442 1.025,1.167 1.025,1.894 -0.015,0.458 0.427,0.741 -0.015,0.458 z m 6.312,8.175 c 2.074,-0.953 4.222,-1.735 6.423,-2.336 -6.723,-10.527 -7.748,-21.763 -8.759,-33.016 -1.019,-6.239 -1.019,-12.603 0,-18.843 0.007,-3.265 0.706,-6.493 2.052,-9.468 1.168,0 1.578,1.025 2.194,1.751 5.578,7.271 9.427,15.717 11.252,24.699 0.284,2.635 0.584,5.554 1.025,8.332 0.239,5.302 -0.254,10.613 -1.467,15.782 0,1.578 -0.442,3.062 -0.442,4.529 0.401,-1.015 0.892,-1.993 1.468,-2.92 -0.039,5.174 -1.396,10.253 -3.945,14.756 -0.868,-1.168 0,-2.194 0,-2.92 -1.168,1.468 -2.195,3.362 -3.362,4.735 -1.578,0 -2.635,-0.285 -3.803,-0.285 -0.024,0.645 0.078,1.289 0.3,1.895 0.587,2.301 2.599,3.954 4.97,4.087 1.027,0.3 2.636,0.3 4.388,0.584 0.814,-0.417 1.722,-0.618 2.636,-0.584 4.213,-0.792 7.703,-3.732 9.2,-7.749 2.292,-5.613 3.815,-11.512 4.529,-17.533 1.618,-12.241 0.266,-24.691 -3.945,-36.297 -2.145,-5.31 -5.047,-10.279 -8.616,-14.756 -1.209,-1.747 -2.63,-3.338 -4.23,-4.734 -3.442,-3.433 -8.429,-4.816 -13.146,-3.647 -2.283,0.477 -4.529,1.109 -6.723,1.895 -3.321,1.006 -6.04,3.409 -7.449,6.581 -1.026,2.335 -1.468,4.829 -2.336,7.007 -0.317,2.376 -0.512,4.767 -0.583,7.165 0,7.448 -0.443,14.455 0.583,21.478 1.433,8.191 4.094,16.117 7.891,23.515 1.579,2.051 2.635,4.386 5.697,5.839 0.142,-0.584 0.884,-0.726 1.894,-1.168 -0.584,0 -0.584,-0.285 -0.584,-0.285 v 0.285 c 1.136,0.458 1.863,1.183 2.888,1.626"
             style="fill:#3d5b62;fill-opacity:1;fill-rule:nonzero;stroke:none"
             id="path50"
             inkscape:connector-curvature="0" />
        </g>
        <g
           id="g52"
           transform="translate(-821.894,-896.6336)">
          <path
             d="m 0,0 c -1.468,1.468 -0.3,3.804 0,5.697 z m -12.862,55.52 c -0.694,1.222 -1.475,2.393 -2.336,3.503 0.337,0.618 0.727,1.205 1.168,1.752 8.175,6.723 14.471,15.34 20.01,23.815 2.018,2.993 4.539,5.615 7.45,7.749 1.548,-0.41 3.134,-0.654 4.734,-0.727 1.026,-1.168 2.336,-1.752 3.504,-3.061 1.399,-1.887 1.934,-4.279 1.468,-6.581 C 19.438,68.77 16.898,55.273 15.545,41.632 13.781,28.294 13.059,14.84 13.383,1.39 c -0.178,-2.158 0.174,-4.325 1.025,-6.314 1.894,-1.309 3.646,0.884 5.697,0 v -3.361 h 3.157 c 1.893,-1.026 1.578,-2.635 1.578,-3.945 -0.884,-0.442 -1.168,-1.168 -1.578,-1.168 -2.071,-0.5 -4.185,-0.796 -6.313,-0.884 -6.312,0 -12.625,0.442 -18.844,-0.142 h -4.97 c -0.434,0.84 -1.029,1.585 -1.752,2.194 -0.865,0.076 -1.708,0.322 -2.478,0.726 -0.884,1.025 -1.578,2.193 -2.336,3.156 0.323,1.242 1.365,2.165 2.636,2.335 3.062,0 5.982,0.284 9.2,0.584 h 7.892 c -0.126,1.38 -0.634,2.698 -1.468,3.804 -2.134,2.051 -3.255,4.938 -3.061,7.891 -0.249,2.965 -0.35,5.941 -0.3,8.917 -0.175,9.754 0.167,19.509 1.025,29.227 0.584,4.814 1.894,9.643 2.636,14.898 v 3.219 C 4.566,61.813 3.869,61.219 3.077,60.775 1.184,59.023 -1.152,57.13 -3.504,55.378 c -1.683,-1.599 -4.027,-2.301 -6.312,-1.894 -0.3,0.726 -0.726,1.026 -0.726,1.894 -0.474,-0.016 -1.342,0.142 -2.32,0.142"
             style="fill:#3d5b62;fill-opacity:1;fill-rule:nonzero;stroke:none"
             id="path54"
             inkscape:connector-curvature="0" />
        </g>
        <path
           d="m -743.2074,-867.279 h 0.3 v 1.168 h -0.3 z m -1.894,-9.201 c 0,-0.584 0,-0.584 0.3,-0.884 v 1.468 z m -0.726,-5.255 c 0,0.725 0.3,1.025 0.3,1.468 h -0.3 c 0.089,-0.44 -0.16,-0.878 -0.584,-1.027 0.584,0 0.584,0 0.584,-0.441 m -18.259,5.697 c 0.455,0.017 0.881,0.23 1.168,0.584 0.441,0.441 0.441,0.441 0.584,0.726 0.427,0.544 0.68,1.204 0.726,1.893 0.584,0.284 1.025,0.727 1.168,0.727 0.441,0.725 0.441,1.468 0.883,1.893 1.248,0.209 2.093,1.386 1.894,2.636 2.96,3.762 5.192,8.044 6.581,12.625 0,0.284 -0.441,0.726 -0.441,0.726 -0.301,0 -0.584,-0.442 -0.584,-0.442 -1.895,-3.645 -3.504,-7.449 -5.256,-11.047 -0.224,-0.555 -0.321,-1.154 -0.285,-1.752 -1.068,-0.462 -1.796,-1.475 -1.893,-2.635 -0.441,-0.884 -0.441,-1.168 -0.884,-1.894 -0.141,-0.442 -0.584,-0.442 -1.168,-0.726 -0.046,-0.69 -0.299,-1.35 -0.725,-1.894 0,-0.284 -0.143,-0.726 -0.584,-0.726 -0.443,-0.442 -0.726,-0.584 -1.168,-1.026 z m 1.752,55.661 c -0.316,-0.015 -0.568,-0.268 -0.584,-0.584 -0.421,-0.187 -0.813,-0.431 -1.168,-0.725 0,-0.584 -0.442,-1.027 -0.726,-1.894 -0.283,-0.198 -0.528,-0.443 -0.726,-0.727 -1.026,-0.725 -2.052,-1.309 -2.052,-2.635 -0.623,-0.341 -0.877,-1.105 -0.584,-1.751 -1.443,-0.825 -2.495,-2.196 -2.919,-3.804 -5.397,-9.942 -7.749,-20.753 -9.642,-31.405 -0.364,-2.958 -0.511,-5.938 -0.443,-8.917 0,-0.726 0.443,-1.578 0.443,-2.635 0.367,0.204 0.711,0.447 1.025,0.726 v 5.838 c 1.1,12.755 4.567,25.194 10.227,36.677 0.186,1.208 0.531,2.386 1.026,3.503 0.64,0.333 0.99,1.042 0.867,1.752 1.112,0.383 1.83,1.463 1.752,2.636 0.3,0.442 0.584,0.442 1.026,0.725 0.126,0.67 0.372,1.312 0.726,1.895 l 0.726,0.726 c 0.442,0.442 0.868,0.584 1.026,1.168 z m 9.643,1.752 c -0.884,0 -2.052,-0.442 -3.157,-0.442 -0.46,-0.368 -0.854,-0.812 -1.168,-1.31 -4.424,-4.862 -8.004,-10.431 -10.59,-16.475 -3.989,-9.201 -6.548,-18.955 -7.59,-28.928 v -4.388 c 1.025,-0.441 1.467,0.727 2.336,1.168 5.543,6.403 10.344,13.413 14.313,20.895 3.012,5.844 5.499,11.944 7.434,18.228 0.337,1.181 0.831,2.311 1.467,3.362 1.894,-0.443 4.087,0 5.997,-1.752 -0.442,-1.579 -0.442,-2.92 -0.884,-4.972 0.763,-0.334 1.543,-0.629 2.336,-0.883 v -5.098 c 0,-2.051 -0.726,-4.813 0.584,-6.581 0.356,-0.774 0.508,-1.628 0.442,-2.477 0.535,-7.062 0.34,-14.158 -0.584,-21.179 -1.225,-8.681 -3.378,-17.204 -6.424,-25.425 -0.68,-2.245 -1.509,-4.443 -2.477,-6.581 -0.601,-0.804 -1.288,-1.54 -2.052,-2.193 0.525,1.472 0.916,2.987 1.168,4.529 1.05,1.033 1.587,2.478 1.468,3.945 1.023,0.672 1.545,1.89 1.326,3.094 0.495,0.725 0.703,1.608 0.584,2.478 1.167,0.725 0.725,2.336 0.725,3.361 0.384,0.567 0.633,1.215 0.726,1.894 h -0.284 v -1.894 c -1.167,-0.725 -0.726,-2.052 -1.167,-3.361 -1.027,-0.584 -0.584,-1.752 -0.584,-2.478 -1.311,-0.726 -1.311,-1.752 -0.884,-3.061 -1.473,-0.935 -2.224,-2.675 -1.894,-4.388 -1.467,-1.894 -3.157,-4.088 -4.813,-5.997 -0.3,-0.584 -0.727,-1.468 -1.026,-1.894 -3.508,-4.753 -9.354,-7.181 -15.198,-6.312 -2.14,0.523 -4.135,1.521 -5.839,2.919 -4.07,3.816 -6.031,9.373 -5.255,14.898 0.614,0.214 1.249,0.362 1.893,0.442 1.272,-0.6 2.592,-1.091 3.946,-1.468 1.894,-4.529 1.31,-10.084 7.007,-13.004 0.953,0.343 1.842,0.839 2.635,1.468 2.107,1.886 3.882,4.11 5.256,6.581 2.481,4.639 4.44,9.541 5.839,14.613 1.468,6.314 3.061,12.862 4.088,19.144 0.292,1.149 0.292,2.353 0,3.503 -0.614,-1.323 -1.348,-2.585 -2.195,-3.772 -2.026,-4.693 -4.786,-9.034 -8.174,-12.862 -1.748,-2.381 -4.289,-4.06 -7.165,-4.735 -3.272,0.657 -6.591,1.047 -9.926,1.168 h -0.284 c -2.336,-0.141 -4.388,-0.584 -6.581,0.884 -2.814,1.212 -5.091,3.404 -6.408,6.171 -1.865,4.885 -2.467,10.16 -1.752,15.34 1.313,11.452 4.513,22.607 9.469,33.015 2.006,4.257 4.558,8.237 7.591,11.836 1.785,2.251 3.848,4.265 6.14,5.997 4.529,3.504 8.916,3.504 14.203,1.467 2.875,-1.372 5.572,-3.088 8.033,-5.113 1.234,-0.865 1.947,-2.296 1.893,-3.803 -1.483,0.426 -2.966,-0.742 -4.544,0.426"
           style="fill:#3d5b62;fill-opacity:1;fill-rule:nonzero;stroke:none"
           id="path56"
           inkscape:connector-curvature="0" />
      </g>
      <path
         inkscape:connector-curvature="0"
         transform="matrix(0.75000002,0,0,-0.75000002,0,1000)"
         id="path60"
         d="m -1597.0527,1948.3711 c -0.7867,0 -1.5714,0.068 -2.3594,0.2148 l -54.334,9.7461 c -3.652,0.6534 -6.8538,2.7863 -8.8672,5.9063 l -36.1719,56.1738 -7.041,-39.1875 c -0.1853,-1.0533 -0.5192,-2.0654 -0.9472,-3.0254 l -0.4258,-2.373 -0.8125,0.1465 c -0.908,-1.28 -2.0156,-2.4274 -3.3223,-3.334 -2.2533,-1.5734 -4.9199,-2.3867 -7.6133,-2.3867 -0.7853,0 -1.5727,0.066 -2.3593,0.2128 l -48.8536,8.7735 c -7.2533,1.3066 -12.0667,8.2405 -10.7734,15.4805 l 15.4531,86.039 15.8946,88.4414 c 0.908,5.1067 4.6402,9.0118 9.2949,10.3985 4.0387,3.16 9.3328,4.6666 14.7715,3.6933 l 8.2539,-1.4785 c -20.0934,13.16 -32.5078,35.2264 -32.5078,61.7598 0,43.4133 33.2142,74.9199 78.9609,74.9199 11.0533,0 21.2407,-1.6803 30.4141,-4.9336 l -0.9883,2.2402 h 69.9199 l 7.9063,-20.5332 h 26.4667 l 7.9083,20.5332 h 106.121 v -18.373 l 4.8262,7.7734 h 32.5059 l 4.959,-8.3476 0.1074,18.9472 H -1259 v -28.9336 h 3.6543 c 40.092,0 67.0117,-23.2131 67.0117,-57.7597 0,-6 -0.8264,-11.6393 -2.373,-16.8926 0.6,0 1.1871,-0.015 1.7871,-0.055 0.1066,-0.013 0.2133,-0.012 0.3066,-0.025 1.828,-0.1333 3.8821,-0.2946 6.1074,-0.668 1.0934,-0.1866 2.5335,-0.4401 4.0801,-0.7734 1.76,-0.3867 3.372,-0.8524 4.9453,-1.4258 l 0.1348,-0.041 c 0.5453,-0.2 1.359,-0.5066 2.2656,-0.9199 l 0.6289,-0.293 c 1.9854,-0.9066 4.4507,-2.0399 6.9707,-3.9199 3.1347,-2.3333 5.4414,-4.8928 7.0547,-7.8262 1.2534,-2.3066 2.0533,-4.7746 2.3613,-7.2812 0.092,-0.76 0.1455,-1.5333 0.1602,-2.3067 0.012,-1.4 -0.1067,-2.8255 -0.3613,-4.1855 -0.16,-0.9067 -0.4004,-1.8135 -0.7071,-2.7734 -0.1866,-0.6134 -0.4136,-1.2266 -0.6523,-1.8399 1.84,-0.4133 3.5843,-0.8533 5.291,-1.3066 3.44,-0.92 6.8408,-2.0671 10.1074,-3.4004 2.96,-1.2134 7.386,-3.1724 11.586,-6.3457 8.2413,-6.2534 12.0693,-13.987 11.3613,-23.0137 -0.065,-0.8533 -0.2405,-1.6945 -0.4805,-2.5078 l -0.5468,-1.8926 c -0.4,-1.36 -1.0139,-2.6411 -1.8125,-3.8144 -1.28,-1.8667 -3.1069,-4.2924 -5.8536,-6.3457 -0.1066,-0.093 -0.2413,-0.1876 -0.3613,-0.2676 -3.3987,-2.5067 -7.2527,-4.4254 -12.0527,-6.0254 0,0 -0.2006,-0.053 -0.2539,-0.08 -0.72,-0.2267 -1.424,-0.4534 -2.252,-0.6934 -0.08,-0.027 -0.2146,-0.067 -0.2812,-0.08 -4.24,-1.24 -8.7994,-2.0931 -14.3594,-2.6797 -1.2267,-0.1334 -2.4397,-0.2547 -3.7051,-0.3613 -0.6813,-0.053 -1.3473,-0.1189 -2.0273,-0.1856 0,0 -1.6389,-0.1599 -2.2403,-0.2266 0.4,-1.2533 0.7742,-2.5064 1.1329,-3.7597 l 0.1738,-0.627 c 0.7866,-2.8533 1.4393,-5.7475 1.9726,-8.5742 0.053,-0.3467 0.1205,-0.6937 0.1739,-1.0137 0.268,-1.5066 0.4536,-2.7987 0.6269,-4.0254 0.013,-0.1066 0.1332,-1.0544 0.1719,-1.4277 0.1467,-1.32 0.2533,-2.5317 0.3066,-3.7051 0.053,-1.1066 0.067,-2.094 0.027,-3.0273 0.067,-1.5067 0.027,-3.0938 -0.1446,-4.7871 -0.081,-0.8267 -0.1739,-1.6525 -0.3085,-2.5059 -0.2134,-1.3333 -0.4936,-2.6804 -0.8536,-4.0937 -0.64,-2.4667 -1.5326,-4.8404 -2.666,-7.0137 l -0.094,-0.1856 c -0.24,-0.4799 -0.6125,-1.2 -1.1192,-2 -0.3066,-0.5066 -0.6416,-0.975 -0.9883,-1.455 -1.4933,-2.0667 -3.2385,-3.8794 -5.1718,-5.3594 -0.92,-0.7067 -1.9073,-1.3326 -2.9727,-1.8926 -2.9613,-1.5733 -6.1879,-2.3613 -9.5879,-2.3613 -1.1853,0 -2.4116,0.095 -3.625,0.2949 -0.3613,0.053 -0.736,0.1192 -1.1093,0.1992 -0.08,0.027 -0.1583,0.039 -0.2383,0.053 -0.8667,0.2 -1.7617,0.4397 -2.7617,0.7597 -0.16,0.04 -0.3068,0.093 -0.4668,0.1602 -4.9734,1.6667 -8.9055,4.3465 -11.7989,6.5332 -0.1066,0.08 -0.227,0.1599 -0.3203,0.2266 -1.4133,1.08 -2.7858,2.241 -4.1445,3.4277 -3.148,-4.8933 -7.0153,-9.2134 -11.3086,-13.0801 l 1.2539,-2.1211 c 2.0533,0.027 4.107,-0.9321 5.3457,-2.7988 l 29.3066,-44.0527 c 2.56,-3.8534 1.8677,-9.0011 -1.5976,-12.0411 l -0.7207,-0.6269 c -0.3747,-3.2 -1.8821,-6.2525 -4.4688,-8.5059 -16.9186,-14.8 -41.7719,-26.2537 -68.1972,-31.4004 -9.988,-1.96 -19.6296,-2.9589 -28.6563,-2.959 -36.4933,0 -63.4799,16.1722 -74.2265,43.7989 -14.9867,-15.8134 -37.5045,-25.3869 -65.0645,-26.2403 l -63,-1.9336 h -0.4141 c -3.3866,0 -6.6547,1.2933 -9.1347,3.6133 -0.7467,0.7067 -1.3977,1.5077 -1.959,2.3477 l -14.0137,-16 c -0.68,-1.2933 -1.5723,-2.4808 -2.6523,-3.4942 -2.48,-2.32 -5.7335,-3.5996 -9.1055,-3.5996 -0.148,0 -0.2951,0.014 -0.4551,0.014 l -41.666,1.4141 -18.1074,-0.7344 c -2.52,-3.6133 -6.6133,-5.7207 -10.9199,-5.7207 z m -0.012,13.334 -57.416,90.0664 2.2266,2.0137 90.2539,81.7207 -57.334,10.2929 -61.2129,-54.3593 -14.9043,23.0117 7.8379,43.6133 -48.8535,8.7734 -15.8926,-88.4395 -15.4394,-86.0273 48.8515,-8.7852 13.0274,72.5332 54.5215,-84.6679 z m 71.1602,5.0273 2.5586,76.0137 2.4121,71.2519 -41.6523,1.4141 -2.5079,-74.0137 -2.4785,-73.2539 z m 238.4883,1.5117 c 8.2997,-0.082 17.3652,0.7762 27.1777,2.7012 23.292,4.5467 46.3177,14.6527 61.9844,28.3594 l -23.0117,34.6015 c -15.3334,-12.5866 -31.3343,-20.5208 -46.961,-23.5742 -21.2533,-4.1866 -30.3461,1.4932 -32.1074,10.4532 -4.84,24.68 80.4542,26.6661 87.9356,75.1328 -0.8934,1.24 -1.8022,2.5345 -2.5489,3.8945 -0.027,0.053 -0.053,0.093 -0.08,0.1465 -0.039,0.08 -0.08,0.1739 -0.1329,0.2539 -0.04,0.04 -0.065,0.093 -0.1054,0.1465 -0.84,1.2933 -1.5468,2.56 -2.1602,3.6933 l -0.2519,0.4532 c -0.2147,0.3866 -0.4289,0.7722 -0.6289,1.1855 0,0 -0.4535,0.8936 -0.4668,0.9336 -0.2267,0.4667 -0.4527,0.9341 -0.6661,1.4141 -0.093,0.2133 -0.1849,0.3998 -0.2382,0.5332 -0.508,1.16 -0.9882,2.3855 -1.5215,3.8789 -0.4,1.1066 -0.4147,2.3077 -0.055,3.4277 0.6813,2.0933 1.12,3.7854 1.3867,5.4121 0.1067,0.5733 0.2136,1.1477 0.2949,1.7344 -1.3613,-2.8133 -2.8401,-5.3744 -4.4668,-7.7344 -0.5066,-0.7333 -1.0251,-1.2791 -1.4531,-1.7324 -0.12,-0.1333 -0.255,-0.2671 -0.375,-0.4004 -1.24,-1.4533 -2.5312,-2.9454 -3.8926,-4.332 -5.28,-5.32 -10.4936,-9.4416 -15.9336,-12.6016 -5,-2.9067 -10.7043,-5.1193 -17.9843,-6.9726 -1.0947,-0.2667 -2.2815,-0.5196 -3.4961,-0.5196 -0.2787,0 -0.5459,0.012 -0.8125,0.039 -0.093,0.013 -0.1997,0.014 -0.293,0.014 -0.172,0 -0.3341,0.014 -0.4941,0.027 -1.0534,0.053 -2.0657,0.4264 -2.9043,1.0664 -0.1214,0.08 -0.5078,0.3867 -0.5078,0.3867 -0.4,0.2934 -0.7617,0.6528 -1.0684,1.0528 -0.1987,0.2666 -0.3853,0.5465 -0.5586,0.8398 -12.44,-7.76 -33.7997,-14.372 -51.0664,-25.252 -5.7733,-3.6399 -11.0804,-7.7468 -15.4551,-12.5468 -9.1467,-10.0267 -14.1847,-23.0269 -10.6914,-40.8535 0.1067,-0.56 0.2263,-1.1077 0.3477,-1.6543 v -0.014 c 5.708,-25.2417 27.2962,-43.2389 63.2617,-43.5938 z m -201.6231,15.6211 63,1.9336 c 44.1467,1.36 73.6264,27.9863 72.3731,68.9063 -0.065,2.1066 -0.2128,4.1738 -0.4395,6.1738 -4.04,37.2133 -34.1473,59.4398 -76.0273,58.1465 l -63,-1.9336 z m 36.7598,31.2403 -2.2539,73.08 23.8008,0.7325 c 1.3949,0.043 2.7635,0.034 4.1035,-0.027 0.67,-0.03 1.3327,-0.073 1.9883,-0.1289 0.6556,-0.056 1.3046,-0.1257 1.9453,-0.207 0.6407,-0.081 1.2731,-0.1749 1.8984,-0.2813 0.6254,-0.1063 1.244,-0.2242 1.8535,-0.3554 0.6096,-0.1313 1.2115,-0.2758 1.8047,-0.4317 0.5933,-0.1559 1.1774,-0.3236 1.7539,-0.5039 0.5765,-0.1803 1.1458,-0.3736 1.7051,-0.5781 0.5593,-0.2045 1.1088,-0.4199 1.6504,-0.6484 0.5416,-0.2286 1.0742,-0.4704 1.5977,-0.7227 0.5234,-0.2523 1.0381,-0.5152 1.5429,-0.791 0.5049,-0.2759 1.0006,-0.5641 1.4864,-0.8633 0.4857,-0.2992 0.9615,-0.6093 1.4277,-0.9316 0.4662,-0.3224 0.9229,-0.6568 1.3691,-1.002 0.4462,-0.3452 0.881,-0.7024 1.3067,-1.0703 0.4257,-0.3679 0.8413,-0.7463 1.2461,-1.1367 0.4047,-0.3904 0.8002,-0.7925 1.1836,-1.2051 0.3833,-0.4126 0.7557,-0.8368 1.1171,-1.2715 0.3615,-0.4347 0.7117,-0.8794 1.0508,-1.3359 0.3392,-0.4565 0.6661,-0.9243 0.9824,-1.4024 0.3164,-0.478 0.6211,-0.9673 0.9141,-1.4668 0.293,-0.4994 0.5745,-1.0086 0.8438,-1.5293 0.5385,-1.0412 1.0299,-2.1254 1.4707,-3.25 0.2204,-0.5622 0.4278,-1.134 0.623,-1.7168 0.1953,-0.5827 0.3792,-1.1762 0.5488,-1.7793 0.1697,-0.603 0.3252,-1.2166 0.4688,-1.8398 0.1436,-0.6231 0.2736,-1.2554 0.3906,-1.8984 0.117,-0.643 0.2206,-1.2964 0.3106,-1.959 0.09,-0.6627 0.1679,-1.3355 0.2304,-2.0176 0.063,-0.682 0.11,-1.373 0.1446,-2.0742 0.027,-0.32 0.026,-0.641 0.041,-0.961 0.044,-1.4391 0.028,-2.8415 -0.047,-4.2089 -0.038,-0.6837 -0.09,-1.3581 -0.1562,-2.0235 -0.067,-0.6654 -0.1487,-1.3219 -0.2442,-1.9687 -0.095,-0.6468 -0.2045,-1.2842 -0.3281,-1.9121 -0.1237,-0.628 -0.2627,-1.2466 -0.4141,-1.8555 -0.1513,-0.6089 -0.3155,-1.2093 -0.4941,-1.7988 -0.1786,-0.5895 -0.3708,-1.1684 -0.5762,-1.7383 -0.2054,-0.5699 -0.4245,-1.1297 -0.6562,-1.6797 -0.2318,-0.55 -0.4768,-1.0912 -0.7344,-1.6211 -0.2576,-0.5299 -0.5276,-1.0491 -0.8106,-1.5586 -0.2829,-0.5095 -0.5788,-1.0092 -0.8867,-1.498 -0.3079,-0.4889 -0.6266,-0.9676 -0.959,-1.4356 -0.3323,-0.468 -0.6769,-0.9242 -1.0332,-1.3711 -0.3563,-0.4468 -0.7256,-0.8831 -1.1054,-1.3086 -0.3798,-0.4254 -0.771,-0.8404 -1.1739,-1.2441 -0.4028,-0.4038 -0.8168,-0.7959 -1.2422,-1.1777 -0.4253,-0.3819 -0.8611,-0.7537 -1.3085,-1.1133 -0.4475,-0.3597 -0.9059,-0.7077 -1.375,-1.0449 -0.4691,-0.3372 -0.9492,-0.6641 -1.4395,-0.9786 -0.4903,-0.3145 -0.991,-0.6166 -1.502,-0.9082 -0.5109,-0.2915 -1.0332,-0.5715 -1.5644,-0.8398 -0.5312,-0.2683 -1.0721,-0.5247 -1.623,-0.7695 -0.551,-0.2449 -1.1115,-0.4781 -1.6817,-0.6993 -0.5702,-0.2211 -1.1493,-0.4297 -1.7383,-0.6269 -0.589,-0.1972 -1.1876,-0.3837 -1.7949,-0.5566 -0.6073,-0.173 -1.2244,-0.334 -1.8496,-0.4825 -0.6252,-0.1484 -1.2578,-0.2845 -1.9004,-0.4082 -0.6426,-0.1236 -1.2936,-0.2333 -1.9531,-0.332 -0.6595,-0.099 -1.3279,-0.1864 -2.0039,-0.2598 -0.676,-0.073 -1.3608,-0.1337 -2.0528,-0.1816 -0.6919,-0.048 -1.3921,-0.081 -2.0996,-0.1035 z m 271.6816,60.2636 c 0.7095,-0.012 1.021,0.2324 1.252,0.4024 0.3187,0.2533 0.6145,0.5332 0.8945,0.8398 0.3454,0.36 0.6654,0.7739 0.9707,1.2539 0.96,1.5334 1.6284,3.3995 2.0684,5.7461 0.068,0.32 0.1325,0.614 0.1738,0.9473 0.2654,1.76 0.3586,3.106 0.252,4.2793 -0.013,0.3067 -0.013,0.6149 0,0.9082 0.04,0.4933 -4e-4,1.0132 -0.014,1.5332 0,0.1067 -0.012,0.212 -0.012,0.332 -0.028,0.5867 -0.053,1.1878 -0.1211,1.8145 -0.04,0.6133 -0.1065,1.2669 -0.2012,1.9336 -0.9053,7.2666 -2.7988,14.5733 -5.7988,22.3066 -0.6667,1.76 -1.4393,3.5193 -2.2539,5.2793 -1.1734,2.52 -4.0654,9.5592 -6,12.8125 -1.4134,2.36 -4.4927,6.7732 -7.3594,9.2266 -0.652,0.52 -1.3077,1.0281 -1.9863,1.5215 -2.3867,1.7733 -4.9207,3.4251 -7.666,4.7851 -1.72,0.9867 -3.5738,1.6272 -5.4004,2.4805 -0.3734,0.1333 -0.7738,0.2674 -1.1485,0.414 -1.5053,0.5334 -3.0102,1.0273 -4.5449,1.5606 1.6533,-0.067 3.3317,-0.1078 5.0117,-0.2012 0.3614,-0.027 0.7207,-0.026 1.0821,-0.053 2.0253,-0.28 4.1194,-0.3865 6.1328,-0.8399 2.88,-0.48 5.7185,-1.2669 8.5332,-2.2402 1.212,-0.4133 2.4253,-0.8676 3.6386,-1.3476 3.9467,-1.7334 7.8031,-3.9334 11.375,-6.6934 1.8147,-1.36 3.4925,-2.9056 5.1192,-4.5723 0.3467,-0.36 0.6803,-0.7204 1.0137,-1.0937 2.6533,-0.56 5.3069,-0.8799 7.9336,-0.9199 2.5466,-0.027 5.1866,0.2258 7.9746,0.5058 1.012,0.093 2.0247,0.2016 3.0527,0.2949 4.772,0.4 10.3583,1.0136 15.625,2.5469 3.2147,0.9333 6.8932,2.1851 9.8398,4.3984 0.428,0.3334 0.8804,0.7879 1.4004,1.5079 l 0.1192,0.4004 c -0.027,1.92 -0.9061,3.8264 -4.3594,6.4531 -2.0267,1.5333 -4.4937,2.8526 -7.959,4.2793 -2.7733,1.12 -5.6662,2.0938 -8.5742,2.8672 -3.7467,1.0133 -7.8265,1.9205 -12.8398,2.8671 -4.972,0.9334 -11.9062,0.9191 -15.8262,1.6524 -3.24,0.6 -8.5325,0.9731 -11.8125,1.0664 -2.9467,0.067 -6.975,0.4676 -12.375,-1.0391 -1.9054,-0.5333 -3.5995,-1.6 -5.4395,-2.3867 -0.4933,-0.2666 -0.9874,-0.5481 -1.4941,-0.8281 -1.252,-0.68 -2.4935,-1.3988 -3.7735,-2.1055 1.4,1.44 2.7736,2.9464 4.2403,4.3731 0.1067,0.08 0.1866,0.1735 0.2812,0.2402 1.4534,1.2533 2.8405,2.6534 4.4258,3.7734 3.2533,2.6134 6.9085,4.7871 10.7871,6.7071 1.4134,0.6533 2.8797,1.2267 4.3731,1.7734 2.6266,0.96 5.3621,1.7323 8.1875,2.2656 1.16,0.24 2.3592,0.3999 3.5605,0.5332 0.1054,0.093 0.2264,0.1739 0.3184,0.2539 3.6,3.08 5.881,5.6798 7.4277,8.4532 0.96,1.7066 1.012,2.5194 0.9453,3.0527 -0.053,0.36 -0.1321,1.0796 -2.1601,2.5996 -1.0134,0.7467 -2.4002,1.388 -3.8535,2.0547 l -0.8262,0.3731 c -0.4934,0.2399 -1.0126,0.4262 -1.5606,0.5996 -0.24,0.08 -0.4787,0.1345 -0.7187,0.2011 -0.32,0.093 -0.6413,0.1993 -0.9746,0.2793 -0.3467,0.067 -0.6918,0.1326 -1.0371,0.1992 -0.2547,0.067 -0.4947,0.1202 -0.7481,0.1602 -0.5466,0.1067 -1.0943,0.1996 -1.6543,0.293 -0.1586,0.027 -0.3325,0.054 -0.5058,0.094 -0.44,0.067 -0.9201,0.1202 -1.3868,0.1602 -0.36,0.067 -0.7598,0.093 -1.1464,0.1328 -0.748,0.08 -3.5338,-0.1065 -4.1192,-0.1465 -2.6813,-0.2 -6.1485,-1.5194 -8.5351,-2.7461 -1.16,-0.6 -2.905,-1.9207 -4.2383,-3.1074 -0.068,-0.053 -0.1205,-0.1068 -0.1738,-0.1602 -2.6534,-2.28 -5.0799,-4.9726 -7.2266,-7.9726 -0.36,-0.56 -0.7201,-1.1337 -1.0801,-1.7071 -0.013,-0.027 -0.028,-0.065 -0.041,-0.092 0,0 -1.1073,-1.8147 -1.6406,-2.748 -1,-1.8 -1.9197,-3.667 -2.6797,-5.627 -0.8253,-1.7866 -1.3063,-3.7062 -1.9863,-5.5996 -0.5467,-1.9066 -0.9738,-3.8665 -1.4805,-5.8398 -0.093,2 -0.251,4.0404 -0.2656,6.0937 0.093,2.04 0.015,4.1339 0.2949,6.1739 0.079,1.1466 0.2264,2.2788 0.3984,3.4121 -1.1466,0.6933 -3.0546,1.6528 -3.6679,1.8262 -2.08,0.5866 -4.426,0.707 -7.586,0.4003 -0.532,-0.053 -1.0128,-0.1188 -1.5195,-0.1855 -0.6787,-0.08 -1.374,-0.1606 -2.0274,-0.2539 -0.372,-0.053 -0.7321,-0.1326 -1.1054,-0.1992 -3.1867,-0.5334 -6.0133,-1.2937 -8.6133,-2.3203 -0.2933,-0.2267 -6.4928,-3.0396 -7.8262,-3.9063 -0.348,-0.2533 -0.7351,-0.4676 -1.1484,-0.6543 -0.1467,-0.08 -0.2915,-0.1859 -0.4395,-0.2793 -0.44,-0.2533 -0.8666,-0.5214 -1.3066,-0.8281 -0.24,-0.16 -0.5061,-0.3459 -0.7461,-0.5059 -0.48,-0.3333 -0.9481,-0.6393 -1.4414,-0.9726 l -0.7442,-0.5332 c -0.28,-0.2 -0.6667,-0.4532 -0.748,-0.5332 -0.3733,-0.44 -2.0922,-1.734 -2.5469,-1.9473 -1.56,-1.1467 -3.0664,-2.4529 -4.7051,-3.9062 -0.108,-0.1867 -0.3613,-0.3079 -0.3613,-0.5079 -0.08,-3.4666 3.9187,-6.5591 7.332,-8.5058 0.8267,-0.48 1.4404,-0.5337 2.4004,-0.707 0.52,-0.093 2.4263,-0.3341 2.961,-0.4141 3.0386,-0.4533 5.2267,-0.3722 8.4414,-0.1856 0.3187,0.04 0.624,0.079 0.9453,0.1192 3.44,0.3467 6.9467,0.9473 10.3867,2.0273 1.9187,0.48 3.7063,1.3194 5.5996,1.9727 1.84,0.7733 3.6405,1.6662 5.4805,2.5195 -1.5067,-1.3333 -3.0003,-2.7324 -4.5723,-4.039 -1.6546,-1.2 -3.2146,-2.5743 -5,-3.6543 -3.428,-2.3467 -7.2425,-4.2249 -11.2558,-5.8516 -1.3334,-0.4933 -2.7328,-0.9337 -4.1328,-1.3203 -2.2787,-0.6534 -4.6124,-1.1596 -7.0137,-1.5196 h -0.1055 c -0.2947,-0.4266 -1.8136,-1.8549 -1.9336,-1.9882 -4.3986,-5.28 -7.5873,-9.8534 -10.0273,-14.3868 -2.5867,-4.8266 -4.1605,-9.5193 -4.7871,-14.3593 -0.6267,-4.7467 -0.4787,-9.6658 0.416,-15.0391 0.28,-1.6667 0.678,-2.7882 1.3047,-3.6016 0.081,-0.067 0.1742,-0.1325 0.2675,-0.1992 0.08,-0.067 0.1587,-0.1325 0.252,-0.1992 0.068,0 0.1222,-0.014 0.1875,-0.014 0.268,0 0.5338,-0.014 0.7871,-0.041 0.6933,-0.067 1.6786,0.148 2.5586,0.3614 6.7333,1.7066 12.0006,3.7451 16.5606,6.3984 5.0533,2.9333 9.9058,6.788 14.8125,11.748 1.24,1.24 2.4149,2.5994 3.6562,4.0528 0.492,0.5733 1.0519,1.0667 1.4785,1.6933 3.188,4.6134 5.5333,9.8395 7.3613,15.1328 0.053,0.1734 0.091,0.3209 0.1172,0.4942 0.7467,3.68 1.2682,7.5334 1.2149,11.4668 0.092,1.9733 -0.1873,3.9202 -0.2793,5.9336 -0.2014,1.9866 -0.5481,3.946 -0.8281,5.9726 0.84,-1.8266 1.7475,-3.6535 2.5488,-5.5468 0.6787,-1.92 1.5444,-3.8266 2.0644,-5.8399 0.04,-0.1467 0.081,-0.2931 0.1211,-0.4531 1.1734,-3.84 1.8516,-7.8667 2.2383,-12 0.2667,-4.32 0.082,-8.7475 -0.7461,-13.1875 -0.3453,-2.04 -0.9072,-4.0531 -1.5605,-6.0664 0.4266,-1.2 0.8683,-2.3729 1.375,-3.5195 0.053,-0.1467 0.1202,-0.2808 0.1855,-0.4141 0.2147,-0.48 0.4394,-0.9455 0.666,-1.4121 0.1334,-0.2667 0.2808,-0.5481 0.4141,-0.8281 0.2533,-0.5067 0.5328,-0.9992 0.8008,-1.5059 0.6133,-1.1067 1.2402,-2.2126 1.9336,-3.2793 0.2133,-0.3067 0.3849,-0.6136 0.5449,-0.9336 0.6667,-1.2133 1.5748,-2.4668 2.5215,-3.7734 l 0.8125,-1.1328 c 1.1066,-1.5334 2.242,-3.0008 3.414,-4.4141 0.68,-0.8267 1.3731,-1.5997 2.0664,-2.3731 0.4534,-0.52 0.907,-1.0402 1.375,-1.5468 0.9467,-1.0267 1.9173,-1.987 2.8907,-2.9336 0.1866,-0.2 0.3889,-0.3736 0.5742,-0.5469 1.1333,-1.08 2.2661,-2.1071 3.4394,-3.0938 0.9467,-0.8133 1.8945,-1.626 2.8692,-2.3593 2.6667,-2.04 5.5852,-4.0134 8.8398,-4.6934 0.3364,-0.073 0.617,-0.1054 0.8535,-0.1094 z m -167.414,12.8301 c 16.212,12.32 37.6676,25.5728 52.2929,28.4395 8.708,1.7066 15.4118,1.973 20.3985,1.0664 0.9213,4.1333 2.4673,8.2143 4.6953,12.3476 2.6253,4.88 6,9.7327 10.6387,15.2793 0.053,0.067 0.1068,0.1342 0.1601,0.1875 0.053,0.067 0.2552,0.2666 0.5352,0.5332 0.3187,0.3067 0.8388,0.8128 1.1308,1.1328 0.6,0.7734 1.3997,1.3601 2.293,1.6934 -0.3333,0.053 -0.6121,0.092 -0.7988,0.1191 l -0.334,0.066 c -0.9467,0.16 -2.2381,0.4009 -3.7461,1.2675 -4.7333,2.7067 -7.333,5.4937 -8.6797,8.0137 -10.1453,0.84 -21.6012,0.1597 -34.2812,-2.3203 -23.12,-4.5333 -53.3194,-22.1341 -72.3047,-36.8008 12.292,-7.5333 21.8786,-18.0787 28,-31.0254 z m -322.8008,93.7852 c 23.0533,0 41.2265,8.4139 52.8398,23.5605 l -25.0664,22.3731 c -6.9066,-8.7467 -15.1474,-13.7989 -25.7461,-13.7989 -16.4946,0 -27.6015,11.4532 -27.6015,29.4532 0,10.8133 4.0001,19.2526 10.7734,24.2793 4.5067,3.3466 10.2401,5.1738 16.8281,5.1738 10.5987,0 18.8395,-5.0541 25.7461,-13.8008 l 25.0664,22.3731 c -11.6133,15.1466 -29.7865,23.5605 -52.8398,23.5605 -21.8533,0 -40.3465,-8.4663 -52.0918,-22.5996 -8.5747,-10.3333 -13.5352,-23.7063 -13.5352,-38.9863 0,-36.1734 27.7737,-61.5879 65.627,-61.5879 z m 101.3066,2.6933 h 39.0391 l 23.2012,53.0547 28.2929,64.7324 h -41.0664 l -7.9082,-20.5332 h -44.7597 l -7.9063,20.5332 H -1621 l 24.8262,-56.7734 z m 96.92,0 h 32.6523 l 35.5606,58.1739 2.8007,4.5879 2.3594,-3.961 35,-58.8008 h 32.6406 l 0.1993,70.0547 0.1464,47.7324 h -36.1855 l -0.334,-53.6796 -25.5742,43.08 h -17.5059 l -25.5722,-41.2265 v 51.8261 h -36.1875 z m 160.5332,0 h 56.707 c 32.812,0 53.6797,17.1611 53.6797,44.4278 0,27.2533 -20.8677,44.4257 -53.6797,44.4257 h -16.9883 v 28.9336 h -39.7187 z m 39.7187,30.627 v 27.6015 h 14.4668 c 10.9333,0 16.1602,-5.2274 16.1602,-13.8007 0,-8.5867 -5.2269,-13.8008 -16.1602,-13.8008 z m -277.9863,8.4141 -6.5469,16.9062 -4.9062,12.707 h 22.8945 l -5.334,-13.8008 z"
         style="fill:#000000;fill-opacity:1;fill-rule:nonzero;stroke:none;stroke-width:1.33333325" />
      <path
         inkscape:connector-curvature="0"
         id="path140"
         transform="matrix(0.75000002,0,0,-0.75000002,0,1000)"
         d="m -1560.0332,1854.6582 c -4.7227,0.026 -9.8775,1.3541 -15.252,4.7422 -14.3318,9.0354 -11.2168,18.6953 -11.2168,18.6953 0,0 1.5578,7.1647 10.9043,-0.9355 0,0 1.9309,-1.1993 4.2305,-2.1114 l -11.8633,22.6739 c 0,0 -6.543,14.0212 10.9043,15.2675 4.1529,0.2967 7.7606,0.7174 10.8711,1.1856 0.3505,0.338 0.723,0.6702 1.1231,0.9941 2.6569,2.1508 4.0325,3.9827 4.7168,5.8008 1.0008,2.659 0.5102,5.2894 0.2695,8.8438 -0.2164,3.1946 3.115,16.5118 12.7734,0.9335 3.2528,-5.2469 4.7705,-8.0132 5.3575,-9.3828 5.9661,-0.069 12.7981,0.9519 13.9589,-7.7519 0.8899,-6.6769 -4.8957,-27.1817 -10.8867,-40.5117 -2.3957,-5.3304 -4.8236,-9.5161 -6.8711,-11.2071 -4.4786,-3.6999 -11.1484,-7.2789 -19.0195,-7.2363 z"
         style="fill:#d2081d;fill-opacity:1;fill-rule:nonzero;stroke:none;stroke-width:0.53836811" />
      <g
         transform="matrix(1.0469879,0,0,1.0469879,363.35756,-6.3238424)"
         id="g1211">
        <g
           id="g178"
           transform="matrix(0.70903511,0,0,0.70903511,-1471.7101,-353.55352)">
          <path
             d="m 0,0 c -3.953,0 -7.156,3.203 -7.156,7.156 v 34.347 c 0,3.953 3.203,7.156 7.156,7.156 3.952,0 7.156,-3.203 7.156,-7.156 V 7.156 C 7.156,3.203 3.952,0 0,0"
             style="fill:#fec935;fill-opacity:1;fill-rule:nonzero;stroke:none"
             id="path180"
             inkscape:connector-curvature="0" />
        </g>
        <g
           id="g182"
           transform="matrix(0.70903511,0,0,0.70903511,-1497.7554,-365.3925)">
          <path
             d="m 0,0 c -1.831,0 -3.663,0.699 -5.059,2.097 l -44.366,44.365 c -2.795,2.794 -2.795,7.325 0,10.119 2.793,2.794 7.327,2.794 10.119,0 L 5.06,12.215 C 7.854,9.421 7.854,4.89 5.06,2.097 3.663,0.699 1.831,0 0,0"
             style="fill:#fec935;fill-opacity:1;fill-rule:nonzero;stroke:none"
             id="path184"
             inkscape:connector-curvature="0" />
        </g>
        <g
           id="g186"
           transform="matrix(0.70903511,0,0,0.70903511,-1440.0495,-356.75113)">
          <path
             d="m 0,0 c -1.213,0 -2.445,0.309 -3.571,0.96 -3.423,1.976 -4.595,6.352 -2.619,9.775 l 31.372,54.337 c 1.973,3.422 6.35,4.599 9.775,2.619 3.422,-1.976 4.595,-6.352 2.619,-9.774 L 6.204,3.579 C 4.879,1.283 2.473,0 0,0"
             style="fill:#fec935;fill-opacity:1;fill-rule:nonzero;stroke:none"
             id="path188"
             inkscape:connector-curvature="0" />
        </g>
        <g
           id="g190"
           transform="matrix(0.70903511,0,0,0.70903511,-1509.5931,-395.4953)">
          <path
             d="m 0,0 h -33.394 c -3.953,0 -7.156,3.203 -7.156,7.156 0,3.952 3.203,7.156 7.156,7.156 H 0 c 3.953,0 7.156,-3.204 7.156,-7.156 C 7.156,3.203 3.953,0 0,0"
             style="fill:#fec935;fill-opacity:1;fill-rule:nonzero;stroke:none"
             id="path192"
             inkscape:connector-curvature="0" />
        </g>
      </g>
    </g>
  </g>
</svg>
