<svg xmlns="http://www.w3.org/2000/svg" width="400" height="350.763"><path d="M16.863 277.96h314.19v-40.5H16.864v40.5z" fill="#6d6f71"/><path d="M47.564 256.253l11.917-13.447H48.095l-7.188 8.53-7.187-8.53H22.33l11.916 13.447L21.84 271.64h11.88l7.186-9.295 7.188 9.296H60.01l-12.446-15.387M96.138 260.225h19.218v-6.273H96.138v6.273m-5.447 4.24v-14.484h26.33v-7.174H87.89c-1.764 0-3.265.737-4.5 2.21-1.236 1.475-1.854 3.265-1.854 5.37v21.255h9.155v-7.174M135.783 256.3h-5.447v-6.32h17.1v6.32h-11.653m-5.447 6.136h17.1v9.205h9.078v-21.57c0-1.924-.605-3.61-1.816-5.053-1.236-1.474-2.724-2.21-4.464-2.21h-22.698c-1.765 0-3.266.736-4.502 2.21-1.236 1.474-1.853 3.264-1.853 5.37v21.254h9.156v-9.204M169.792 264.466h26.443v7.175h-29.242c-1.765 0-3.266-.736-4.502-2.21-1.235-1.474-1.852-3.264-1.852-5.37v-13.673c0-2.106.617-3.896 1.853-5.37 1.237-1.474 2.738-2.21 4.503-2.21h29.13v7.174h-26.33v14.486M235.654 242.806H200.36v7.175h12.52v21.66h10.177v-21.66h12.597v-7.174M268.754 242.806H246.02c-1.792 0-3.305.737-4.54 2.21-1.237 1.475-1.854 3.265-1.854 5.37v13.674c0 2.106.617 3.896 1.853 5.37 1.235 1.474 2.748 2.21 4.54 2.21h22.734c1.816 0 3.342-.736 4.578-2.21 1.26-1.504 1.89-3.294 1.89-5.37v-13.673c0-2.076-.63-3.866-1.89-5.37-1.236-1.474-2.762-2.21-4.578-2.21m-2.723 21.66h-17.25V249.98h17.25v14.486M288.464 249.755v21.886h-9.42v-28.834h27.957c1.842 0 3.38.737 4.616 2.21 1.286 1.505 1.93 3.295 1.93 5.37v3.386c0 .872-.127 1.7-.38 2.48-.226.784-.554 1.49-.982 2.122-.43.632-.946 1.19-1.55 1.67-.582.45-1.212.782-1.893.993l5.676 10.65H295.01v-17.103h9.078v-4.83h-15.624" style="-inkscape-font-specification:Gunship" font-size="25.505" fill="#fff" font-family="Gunship"/><path d="M130.407 256.174h17.105v-6.347h-17.105v6.347zM248.874 264.342h17.233v-14.515h-17.233v14.515z" fill="#231f20"/><path d="M295.094 271.557v-17.105h9.05v-4.838h-15.61V271.5h-9.407v-28.845h27.95c1.85 0 3.37.74 4.61 2.248 1.294 1.495 1.934 3.26 1.934 5.35v3.374l-.354 2.49-.996 2.12-1.537 1.637-1.92 1.01 5.677 10.673h-19.396M275.3 263.93c0 2.063-.627 3.856-1.893 5.364-1.224 1.48-2.76 2.206-4.568 2.206H246.1c-1.794 0-3.317-.726-4.54-2.206-1.253-1.48-1.865-3.273-1.865-5.365v-13.676c0-2.092.612-3.9 1.864-5.35 1.223-1.51 2.746-2.25 4.54-2.25h22.74c1.806 0 3.343.74 4.567 2.25 1.266 1.494 1.892 3.258 1.892 5.35v13.675m-39.547-14.103h-12.608V271.5H212.97v-21.673H200.45v-7.172h35.305v7.172M196.32 271.5H167.08c-1.765 0-3.273-.726-4.497-2.206-1.237-1.48-1.85-3.273-1.85-5.365v-13.676c0-2.092.613-3.9 1.85-5.35 1.225-1.51 2.733-2.25 4.498-2.25h29.13v7.173h-26.34v14.515h26.453v7.158m-39.73 0h-9.08v-9.193h-17.104v9.193h-9.15v-21.246c0-2.092.626-3.9 1.865-5.35 1.224-1.51 2.733-2.25 4.51-2.25h22.67c1.737 0 3.23.74 4.47 2.25 1.222 1.437 1.82 3.13 1.82 5.023V271.5m-39.503-21.673H90.76V271.5h-9.15v-21.246c0-2.092.627-3.9 1.85-5.35 1.24-1.51 2.747-2.25 4.526-2.25h29.1v7.173m-1.65 10.274h-19.21v-6.288h19.21v6.29M48.184 271.5l-7.2-9.293-7.187 9.293H21.915l12.423-15.383-11.925-13.462h11.384l7.186 8.538 7.2-8.538H59.57l-11.91 13.462L60.094 271.5h-11.91M291.108 14.572H53.89c-27.877 0-50.46 22.598-50.46 50.446v231.897c0 27.835 22.583 50.432 50.46 50.432h237.22c27.862 0 50.46-22.597 50.46-50.432V65.018c0-27.848-22.598-50.446-50.46-50.446" fill="#231f20"/><path d="M291.11 14.572v-3.415H53.89C24.12 11.157 0 35.263 0 65.017v231.898c0 29.727 24.12 53.848 53.89 53.848h237.22c29.755 0 53.89-24.12 53.89-53.848V65.018c0-29.755-24.135-53.86-53.89-53.86V18c25.97.044 46.988 21.062 47.045 47.018v231.897c-.057 25.942-21.076 46.96-47.046 47.003H53.89c-25.984-.043-46.988-21.06-47.045-47.003V65.018C6.902 39.062 27.905 18.044 53.89 18h237.22v-3.428" fill="#6d6f71"/><path d="M291.11 14.572H53.89c-27.877 0-50.46 22.598-50.46 50.446v231.897c0 27.835 22.583 50.432 50.46 50.432h237.22c27.862 0 50.46-22.597 50.46-50.432V65.018c0-27.848-22.598-50.446-50.46-50.446m0 3.43c25.94 0 47.045 21.09 47.045 47.016v231.897c0 25.928-21.104 47.003-47.046 47.003H53.89c-25.942 0-47.03-21.075-47.03-47.003V65.018C6.86 39.09 27.947 18 53.89 18h237.22" fill="#d1d3d4"/><path d="M25.777 295.158c-.258.48-.552.885-.884 1.213-.313.317-.792.506-1.436.57-.11.01-.25.025-.414.037h-.387c-.166 0-.25.038-.25.114 0 .102.176.153.526.153.332 0 .663-.007.994-.02.332 0 .645-.006.94-.018.294 0 .543-.007.745-.02H26.414c.183.012.377.02.58.02.202.01.414.02.634.02.22.01.415.018.58.018.277 0 .415-.05.415-.152 0-.075-.092-.113-.276-.113h-.277c-.24 0-.48-.044-.72-.132-.22-.09-.33-.227-.33-.417 0-.354.13-.777.387-1.27l1.657-3.353c.055-.1.147-.152.276-.152h5.938c.11 0 .193.038.25.114l2.567 4.66c.092.153.11.273.055.36-.055.077-.13.127-.22.153-.13.025-.194.07-.194.132 0 .063.074.1.22.114.148 0 .35.006.61.02.477.01.947.018 1.407.018.48.01.912.02 1.298.02H42.902c.148 0 .277-.013.388-.04.11-.01.165-.05.165-.113 0-.075-.092-.113-.276-.113-.147 0-.322-.006-.525-.02-.184-.01-.377-.043-.58-.093-.147-.026-.313-.07-.497-.133-.165-.062-.35-.17-.552-.32-.184-.153-.396-.36-.635-.627-.22-.265-.452-.606-.69-1.023-.277-.48-.627-1.08-1.05-1.8-.406-.72-.838-1.478-1.3-2.273-.44-.81-.892-1.624-1.352-2.445-.46-.82-.884-1.572-1.27-2.254-.37-.695-.69-1.283-.967-1.763-.26-.48-.425-.776-.498-.89-.166-.29-.286-.474-.36-.55-.073-.088-.156-.132-.248-.132s-.175.044-.248.132c-.074.09-.194.29-.36.607l-6.27 11.766m3.868-4.187c-.11 0-.138-.043-.083-.132l2.43-5.116c.13-.278.268-.278.415 0l2.624 5.116c.036.09 0 .133-.11.133h-5.277M65.7 297.508c.44 0 .892-.01 1.352-.038.48-.01.94-.038 1.38-.076.443-.025.857-.07 1.244-.132.387-.05.718-.114.994-.19.258-.076.415-.14.47-.19.073-.062.157-.182.248-.36.073-.163.148-.372.22-.625.074-.265.14-.524.195-.776.055-.252.1-.473.138-.663.038-.202.056-.322.056-.36 0-.075-.018-.14-.055-.19-.017-.062-.064-.094-.137-.094-.13 0-.22.095-.276.284-.038.177-.148.436-.332.777-.165.33-.396.6-.69.815-.553.39-1.234.65-2.044.776-.79.114-1.712.17-2.76.17-1.474 0-2.828-.19-4.06-.568-1.216-.392-2.266-.903-3.15-1.535-.865-.644-1.547-1.383-2.044-2.217-.478-.833-.718-1.705-.718-2.614 0-.973.156-1.87.47-2.69.33-.835 1.003-1.586 2.016-2.256.24-.164.534-.328.884-.492.35-.165.773-.31 1.27-.436.516-.14 1.114-.247 1.796-.322.68-.09 1.482-.133 2.402-.133 1.216 0 2.32.108 3.315.322.995.215 1.732.468 2.21.758.37.215.654.5.857.853.202.354.303.714.303 1.08 0 .265.073.398.22.398.15 0 .232-.133.25-.398v-.34c.018-.153.028-.323.028-.513v-.568c.017-.202.037-.38.055-.53.037-.342.064-.582.082-.72.038-.152.055-.266.055-.342 0-.063-.027-.107-.082-.133-.038-.037-.13-.063-.276-.075-.442-.026-.894-.064-1.354-.114-.442-.05-.93-.106-1.464-.17-.68-.088-1.38-.145-2.1-.17-.717-.038-1.352-.057-1.904-.057-1.068 0-2.035.057-2.9.17-.848.102-1.612.24-2.293.417-.68.177-1.29.392-1.823.645-.534.252-1.003.518-1.408.795-.608.417-1.114.866-1.52 1.346-.405.467-.727.934-.966 1.402-.22.455-.378.897-.47 1.326-.092.417-.138.783-.138 1.1 0 .454.046.928.138 1.42.11.48.286.96.525 1.44.258.48.598.954 1.022 1.42.442.47.994.91 1.657 1.328 1.105.682 2.375 1.193 3.812 1.534 1.454.34 3.222.512 5.302.512M79.022 285.59c.22.177.57.448 1.05.815.478.353 1.04.776 1.684 1.27.645.492 1.345 1.03 2.1 1.61.773.568 1.565 1.15 2.375 1.743.737.543 1.51 1.105 2.32 1.686.81.58 1.566 1.124 2.266 1.63.7.492 1.29.91 1.767 1.25.498.33.783.518.857.57.368.25.663.46.883.624.24.152.433.272.58.36.148.088.258.145.332.17.092.038.166.057.22.057.056 0 .093-.01.11-.038.038-.025.066-.082.084-.17.016-.09.026-.22.026-.398.018-.178.028-.424.028-.74l.055-11.103c0-.57.054-.973.165-1.213.11-.253.395-.41.856-.474.166-.025.295-.038.387-.038.11-.01.203-.018.277-.018.202 0 .303-.045.303-.133 0-.087-.165-.132-.497-.132-.57 0-1.068.012-1.49.038-.425.012-.71.02-.857.02h-.415c-.184-.012-.414-.02-.69-.02-.258-.01-.543-.02-.856-.02-.295-.01-.6-.018-.912-.018-.368 0-.552.045-.552.133 0 .09.073.134.22.134.11 0 .295.006.553.018.277.012.544.038.802.076.424.076.7.24.83.493.146.254.23.69.247 1.308l.303 9.626c-.22-.152-.562-.398-1.022-.74-.46-.353-.993-.757-1.6-1.212-.608-.455-1.262-.94-1.962-1.46-.68-.517-1.362-1.028-2.044-1.534-1.068-.783-2.108-1.547-3.12-2.292-.995-.746-1.897-1.415-2.707-2.01l-2.017-1.477c-.515-.405-.828-.645-.94-.72-.146-.102-.32-.228-.524-.38-.184-.15-.33-.227-.44-.227-.112 0-.195.07-.25.208-.037.128-.055.374-.055.74l-.027 10.857c0 .86-.055 1.46-.165 1.8-.093.34-.313.544-.663.607-.203.05-.414.082-.635.095-.22.01-.387.017-.498.017-.147 0-.22.038-.22.114 0 .102.147.153.44.153.628 0 1.19-.012 1.686-.038.516-.01.838-.02.967-.02.13 0 .45.007.967.02.515.025 1.17.038 1.96.038.332 0 .498-.05.498-.152 0-.075-.075-.113-.22-.113-.13 0-.333-.006-.61-.018-.257-.013-.514-.046-.772-.096-.184-.038-.34-.1-.47-.19-.13-.088-.24-.214-.33-.38-.074-.176-.14-.39-.195-.643-.037-.264-.064-.593-.082-.984l-.358-9.076M104.802 291.748c0 .91-.016 1.724-.028 2.444 0 .707-.037 1.263-.11 1.668-.055.277-.138.51-.248.7-.093.19-.277.304-.553.342-.13.025-.267.044-.414.056-.15.012-.287.02-.415.02-.148 0-.22.037-.22.113 0 .102.146.153.44.153.203 0 .452-.007.746-.02.296-.01.58-.018.857-.018.295-.01.544-.02.746-.02h1.188c.35.012.793.033 1.327.058.534.01 1.178.025 1.933.038.773.012 1.685.02 2.734.02.276 0 .497-.007.663-.02.166 0 .304-.018.415-.056.11-.025.193-.07.248-.133.055-.062.11-.157.166-.283.037-.1.073-.246.11-.436l.11-.567c.037-.202.065-.38.083-.53.036-.165.054-.266.054-.304 0-.064-.016-.127-.028-.19 0-.063-.045-.095-.137-.095-.112 0-.195.095-.25.284-.092.39-.23.694-.414.91-.185.2-.46.352-.83.453-.367.1-.81.165-1.325.19-.514.01-.956.02-1.324.02-.682 0-1.225-.02-1.63-.058-.405-.038-.727-.114-.967-.227-.222-.114-.378-.272-.47-.474-.073-.202-.12-.467-.138-.796v-.587-.947-.985-2.387c0-.088.065-.132.193-.132.11 0 .34.007.69.02.37 0 .756.006 1.16.018.425 0 .83.007 1.216.02.406.01.7.024.885.037.534.038.893.126 1.077.265.184.127.304.26.36.398.054.126.082.24.082.34.018.09.027.184.027.285 0 .115.066.172.195.172.092 0 .147-.038.165-.114.018-.088.028-.17.028-.246v-.19c.018-.1.027-.208.027-.322.018-.126.028-.246.028-.36.018-.126.037-.24.055-.34.037-.316.083-.556.138-.72.055-.165.082-.28.082-.342 0-.1-.045-.15-.137-.15-.072 0-.21.08-.414.245-.128.1-.294.164-.497.19-.203.025-.47.05-.802.075-.166.012-.47.026-.91.038h-3.481c-.11 0-.166-.063-.166-.19v-5.23c0-.125.056-.188.167-.188h.635c.368 0 .764.006 1.188.02.423 0 .828.005 1.215.018.386 0 .635.006.745.02.737.062 1.225.15 1.464.264.24.1.405.227.497.38.074.112.12.24.14.378.017.14.027.24.027.303 0 .165.073.247.22.247.056 0 .093-.02.11-.057.038-.05.066-.1.083-.15.018-.052.028-.134.028-.248l.055-.38c.018-.138.028-.264.028-.378.018-.113.028-.195.028-.246.037-.265.083-.46.138-.587.055-.138.082-.24.082-.302 0-.114-.037-.17-.11-.17-.074 0-.137.01-.193.037-.055.025-.12.044-.193.057-.258.038-.654.07-1.188.095-.165 0-.58.006-1.243.02H105.96l-1.133-.04c-.313-.01-.645-.018-.994-.018h-.995c-.294 0-.442.05-.442.15 0 .076.075.114.22.114.13 0 .287.006.47.02.203 0 .36.01.47.037.46.064.765.178.912.342.147.164.24.41.276.74.018.15.028.315.028.492.017.164.027.39.027.682V291.748M136.52 283.733l3.48.038c.664.012 1.207.05 1.63.115.442.05.783.12 1.022.208.258.09.442.196.553.322.11.127.175.26.193.398l.027.208c.018.14.038.23.056.267.038.038.093.057.166.057.13 0 .193-.083.193-.247v-.322c.017-.177.027-.372.027-.587.018-.215.027-.43.027-.644.018-.215.028-.392.028-.53 0-.064-.016-.115-.028-.153 0-.05-.037-.074-.11-.074-.055 0-.147.01-.276.038-.13.01-.295.03-.497.056-.22.026-.496.05-.828.076-.313.012-.69.02-1.132.02h-10.357c-.166 0-.47-.007-.912-.02-.44-.025-.864-.05-1.27-.076-.368-.025-.644-.07-.828-.132-.166-.063-.295-.095-.387-.095-.055 0-.11.044-.165.133-.038.088-.073.164-.11.227-.018.038-.065.152-.138.34-.055.19-.12.4-.193.626-.074.227-.14.44-.195.644-.055.19-.083.31-.083.36 0 .113.046.17.138.17.11 0 .203-.063.276-.19.038-.063.083-.132.138-.208.075-.088.184-.215.33-.38.112-.113.24-.207.388-.283.147-.076.33-.133.552-.17.22-.05.48-.09.774-.114.313-.027.68-.04 1.105-.04l4.087-.037v8.015c0 .91-.016 1.724-.027 2.444 0 .707-.038 1.263-.11 1.667-.056.277-.138.51-.25.7-.09.19-.275.304-.55.342-.13.025-.268.044-.416.056-.147.012-.285.02-.414.02-.147 0-.22.037-.22.113 0 .102.147.153.44.153.204 0 .452-.007.747-.02.294 0 .58-.006.856-.018.276 0 .515-.007.718-.02h.747c.22.012.488.02.8.02.332.01.69.02 1.078.02.386.01.773.018 1.16.018.295 0 .442-.05.442-.152 0-.075-.073-.113-.22-.113-.13 0-.323-.006-.58-.02-.24-.01-.462-.03-.664-.055-.423-.038-.7-.152-.83-.342-.128-.19-.21-.423-.247-.7-.076-.405-.12-.96-.14-1.668v-10.459M149.734 291.748c0 .91-.016 1.724-.028 2.444 0 .707-.037 1.263-.11 1.668-.055.277-.137.51-.248.7-.093.19-.277.304-.553.342-.13.025-.267.044-.414.056-.147.012-.285.02-.413.02-.148 0-.22.037-.22.113 0 .102.146.153.44.153.203 0 .452-.007.746-.02.295 0 .58-.006.856-.018.276 0 .506-.007.69-.02H151.144c.22.012.487.02.8.02.33.01.69.02 1.077.02.388.01.774.018 1.16.018.296 0 .443-.05.443-.152 0-.075-.073-.113-.22-.113-.13 0-.323-.006-.58-.02-.24-.01-.46-.03-.664-.055-.424-.038-.7-.152-.83-.34-.13-.19-.21-.425-.248-.702-.073-.405-.12-.96-.138-1.668v-2.899c0-.1.065-.152.193-.152l3.398.04c.13 0 .248.037.36.113l.523.512c.24.202.488.43.746.682.276.252.562.518.856.796.295.278.59.55.884.814.792.72 1.464 1.314 2.017 1.78.553.456 1.124.79 1.713 1.006.35.14.736.233 1.16.284.423.05 1.022.076 1.795.076h1.96c.26 0 .434-.012.526-.038.092-.012.138-.05.138-.114 0-.075-.083-.113-.25-.113h-.413c-.185-.01-.406-.03-.664-.057-.35-.037-.81-.138-1.38-.303-.572-.164-1.235-.518-1.99-1.06-.81-.594-1.684-1.302-2.624-2.123-.94-.82-1.98-1.73-3.12-2.728 1.233-.783 2.098-1.53 2.596-2.236.497-.72.745-1.434.745-2.14 0-.33-.072-.633-.22-.91-.13-.28-.295-.525-.498-.74-.184-.214-.386-.398-.607-.55-.22-.163-.415-.29-.58-.378-.737-.366-1.547-.594-2.43-.682-.866-.1-1.74-.152-2.625-.152-.22 0-.497.007-.828.02-.332 0-.672.006-1.022.018-.332 0-.636.007-.912.02h-.882c-.203-.012-.46-.02-.774-.02-.294-.01-.617-.02-.967-.02-.35-.01-.68-.018-.994-.018-.294 0-.442.05-.442.152 0 .076.074.113.222.113.13 0 .286.007.47.02.202 0 .36.01.47.037.46.063.763.177.91.34.148.165.24.412.277.74.017.152.027.316.027.493.017.164.027.39.027.682v6.253m2.21-7.883c0-.113.073-.19.22-.227.148-.025.387-.05.72-.076.33-.025.708-.038 1.13-.038 1.493 0 2.662.335 3.51 1.005.846.668 1.27 1.597 1.27 2.784 0 .72-.166 1.333-.498 1.838-.313.492-.71.852-1.188 1.08-.313.15-.653.252-1.02.303-.37.038-.72.057-1.05.057-.61 0-1.198-.025-1.77-.076-.55-.063-.928-.14-1.13-.227-.13-.052-.194-.128-.194-.23v-6.195" style="-inkscape-font-specification:TrajanPro-Regular" font-size="14.122" fill="#959495" font-family="Trajan Pro"/><path d="M168.277 295.158c-.257.48-.552.885-.883 1.213-.313.317-.792.506-1.437.57-.11.01-.248.025-.414.037h-.387c-.165 0-.248.038-.248.114 0 .102.175.153.525.153.33 0 .662-.007.994-.02.33 0 .644-.006.94-.018.294 0 .542-.007.745-.02h.802c.183.012.376.02.58.02.2.01.413.02.634.02.22.01.414.018.58.018.276 0 .414-.05.414-.152 0-.075-.092-.113-.276-.113h-.276c-.24 0-.48-.044-.718-.132-.22-.09-.332-.227-.332-.417 0-.354.13-.777.387-1.27l1.657-3.353c.055-.1.148-.152.276-.152h5.94c.11 0 .192.038.247.114l2.57 4.66c.09.153.11.273.054.36-.054.077-.13.127-.22.153-.128.025-.193.07-.193.132 0 .063.072.1.22.114.148 0 .35.006.608.02.48.01.948.018 1.41.018.477.01.91.02 1.297.02h1.629c.15 0 .278-.013.388-.04.11-.01.166-.05.166-.113 0-.075-.093-.113-.276-.113-.148 0-.323-.006-.525-.02-.184-.01-.378-.043-.58-.093-.148-.026-.313-.07-.497-.133-.166-.062-.35-.17-.553-.32-.184-.153-.396-.36-.635-.627-.22-.265-.45-.606-.69-1.023-.277-.48-.627-1.08-1.05-1.8-.405-.72-.838-1.478-1.298-2.273-.442-.81-.893-1.624-1.354-2.445-.46-.82-.883-1.572-1.27-2.254-.368-.695-.69-1.283-.967-1.763-.258-.48-.424-.776-.498-.89-.166-.29-.285-.474-.36-.55-.073-.088-.156-.132-.248-.132s-.174.044-.248.132c-.073.09-.193.29-.36.607l-6.27 11.766m3.868-4.187c-.11 0-.138-.043-.083-.132l2.432-5.116c.128-.278.267-.278.414 0l2.624 5.116c.037.09 0 .133-.11.133h-5.276M189.915 291.748c0 .91-.016 1.724-.027 2.444 0 .707-.038 1.263-.11 1.668-.056.277-.138.51-.25.7-.09.19-.275.304-.55.342-.13.025-.268.044-.416.056-.147.012-.285.02-.414.02-.147 0-.22.037-.22.113 0 .102.146.153.44.153.203 0 .452-.007.747-.02.294-.01.58-.018.856-.018.295-.01.544-.02.747-.02h.36c.073 0 .32.012.744.04.425.024.94.05 1.548.075.59.025 1.225.05 1.906.075.7.026 1.344.038 1.933.038 1.18 0 2.22-.076 3.12-.227.903-.14 1.695-.316 2.376-.53.682-.228 1.253-.468 1.713-.72.48-.253.865-.487 1.16-.702.387-.278.755-.6 1.105-.966.37-.366.69-.77.967-1.213.277-.454.498-.947.663-1.478.166-.53.25-1.092.25-1.686 0-.567-.074-1.092-.222-1.572-.148-.48-.35-.915-.608-1.307-.24-.403-.524-.763-.856-1.08-.313-.315-.644-.6-.994-.852-.83-.58-1.74-1.017-2.735-1.307-.994-.302-1.997-.517-3.01-.643-1.013-.127-1.99-.19-2.928-.19-.92-.01-1.72-.02-2.403-.02-.423 0-.837.008-1.243.02-.404 0-.78.007-1.13.02-.332 0-.627.006-.885.018h-.856c-.204-.01-.46-.02-.774-.02-.295-.01-.617-.018-.967-.018-.35-.01-.682-.02-.995-.02-.295 0-.442.052-.442.153 0 .076.074.114.22.114.13 0 .286.006.47.02.203 0 .36.01.47.036.46.063.764.177.91.34.15.166.24.412.277.74.018.152.028.316.028.493.018.164.028.392.028.682v6.253m2.32-3.638v-1.156-1.156-1.023c.017-.303.027-.537.027-.7 0-.19.11-.317.332-.38.055-.01.147-.025.276-.038.148-.025.314-.044.498-.057.184-.01.36-.02.525-.02.184-.01.35-.018.497-.018.828 0 1.64.026 2.43.076.81.038 1.593.133 2.348.284.755.152 1.49.373 2.21.664.718.277 1.4.65 2.043 1.117.278.203.572.455.885.758.313.292.6.64.856 1.044.278.39.5.833.664 1.326.166.492.25 1.042.25 1.648 0 .442-.048.878-.14 1.308-.09.43-.238.846-.44 1.25-.185.392-.415.758-.69 1.1-.277.34-.59.63-.94.87-.83.57-1.814 1.005-2.955 1.308-1.125.303-2.33.455-3.62.455-.81 0-1.5-.02-2.07-.058-.553-.05-1.014-.114-1.382-.19-.35-.075-.626-.157-.83-.246-.183-.088-.32-.177-.413-.265-.055-.05-.1-.132-.138-.245-.037-.114-.064-.24-.082-.38l-.055-.416c-.018-.153-.028-.285-.028-.4 0-.087-.016-.258-.027-.51 0-.253-.017-.563-.028-.93v-1.23-3.79M214.963 291.748c0 .91-.016 1.724-.027 2.444 0 .707-.037 1.263-.11 1.668-.055.277-.138.51-.25.7-.09.19-.275.304-.55.342-.13.025-.268.044-.416.056-.147.012-.285.02-.414.02-.147 0-.22.037-.22.113 0 .102.146.153.44.153.204 0 .452-.007.747-.02.294-.01.58-.018.856-.018.294-.01.542-.02.745-.02H216.952c.35.012.792.033 1.326.058.534.01 1.178.025 1.933.038.775.012 1.686.02 2.736.02.276 0 .497-.007.663-.02.164 0 .302-.018.413-.056.11-.025.193-.07.248-.133.057-.062.112-.157.167-.283.037-.1.073-.246.11-.436.038-.188.073-.378.11-.567.038-.202.065-.38.083-.53.037-.165.055-.266.055-.304 0-.064-.016-.127-.027-.19 0-.063-.046-.095-.138-.095-.11 0-.193.095-.25.284-.09.39-.23.694-.413.91-.184.2-.46.352-.83.453-.367.1-.81.165-1.324.19-.516.01-.958.02-1.326.02-.68 0-1.224-.02-1.63-.058-.405-.038-.727-.114-.966-.227-.22-.114-.377-.272-.47-.474-.073-.202-.12-.467-.136-.796v-.587-.947-.985-2.387c0-.088.064-.132.193-.132.11 0 .34.007.69.02.37 0 .756.006 1.16.018.424 0 .83.007 1.216.02.405.01.7.024.884.037.534.038.893.126 1.077.265.184.127.304.26.36.398.054.126.082.24.082.34.017.09.027.184.027.285 0 .115.065.172.194.172.092 0 .147-.038.165-.114.018-.088.028-.17.028-.246v-.19c.018-.1.027-.208.027-.322.018-.126.028-.246.028-.36.018-.126.037-.24.055-.34.037-.316.083-.556.138-.72.055-.165.082-.28.082-.342 0-.1-.045-.15-.137-.15-.073 0-.212.08-.415.245-.13.1-.294.164-.497.19-.202.025-.468.05-.8.075-.166.012-.47.026-.91.038h-3.481c-.112 0-.167-.063-.167-.19v-5.23c0-.125.055-.188.166-.188h.634c.368 0 .764.006 1.187.02.425 0 .83.005 1.217.018.386 0 .635.006.745.02.737.062 1.225.15 1.464.264.24.1.405.227.497.38.073.112.12.24.138.378.02.14.03.24.03.303 0 .165.072.247.22.247.055 0 .092-.02.11-.057.037-.05.065-.1.082-.15.018-.052.028-.134.028-.248l.055-.38c.018-.138.028-.264.028-.378.017-.113.027-.195.027-.246.037-.265.083-.46.138-.587.055-.138.082-.24.082-.302 0-.114-.037-.17-.11-.17-.073 0-.137.01-.193.037-.055.025-.12.044-.193.057-.258.038-.654.07-1.188.095-.165 0-.58.006-1.243.02h-5.082l-1.13-.04c-.314-.01-.646-.018-.995-.018H213c-.294 0-.442.05-.442.15 0 .076.073.114.22.114.13 0 .287.006.47.02.203 0 .36.01.47.037.46.064.765.178.912.342.147.164.24.41.276.74.018.15.028.315.028.492.017.164.027.39.027.682V291.748M250.52 283.165c-.055-.34-.165-.512-.33-.512-.148 0-.286.1-.415.303l-8.12 11.9-8.452-11.92c-.13-.188-.267-.283-.414-.283-.167 0-.268.114-.305.34l-1.99 12.355c-.054.366-.136.707-.247 1.023-.11.304-.396.487-.856.55-.203.026-.37.045-.498.057h-.33c-.185 0-.277.032-.277.095 0 .114.157.17.47.17.183 0 .395-.006.635-.018.24 0 .47-.007.69-.02.24 0 .45-.006.635-.018h.69c.185.01.397.02.636.02.258.01.525.018.8.018.277.01.544.02.802.02.33 0 .497-.058.497-.172 0-.063-.073-.095-.22-.095-.093 0-.23-.006-.415-.02-.184-.01-.396-.036-.635-.074-.203-.026-.378-.095-.525-.21-.13-.112-.194-.24-.193-.378v-.492c0-.165.016-.322.027-.474l1.106-8.793h.11c.055.09.175.278.36.57.183.277.404.605.662.984.258.38.525.784.8 1.214.296.43.572.833.83 1.212l.663.948c.185.265.295.423.332.473l.47.645c.276.366.59.79.94 1.27.348.48.69.96 1.02 1.44.35.466.617.814.8 1.04.26.342.443.576.554.702.11.114.212.17.304.17.13 0 .24-.062.33-.19.093-.125.286-.397.58-.813l6.768-9.852h.082l1.326 9.777c.037.177.045.335.028.473-.018.127-.065.196-.138.21-.13.01-.193.056-.193.13 0 .052.045.09.137.115.11.025.323.05.636.076.257.01.607.024 1.05.037.46.01.93.025 1.408.038.478.01.92.02 1.325.02.405.01.68.018.828.018.166 0 .304-.012.414-.038.11-.026.166-.07.166-.133s-.074-.095-.22-.095c-.148 0-.388-.006-.72-.02-.312-.01-.67-.062-1.076-.15-.295-.063-.534-.17-.718-.322-.184-.165-.332-.34-.442-.53-.093-.19-.166-.386-.22-.588-.056-.202-.094-.392-.11-.57l-1.852-11.633" style="-inkscape-font-specification:TrajanPro-Regular" font-size="14.122" fill="#959495" font-family="Trajan Pro"/><path d="M259.088 295.158c-.258.48-.553.885-.884 1.213-.313.317-.792.506-1.436.57-.11.01-.25.025-.415.037h-.386c-.166 0-.25.038-.25.114 0 .102.176.153.526.153.33 0 .663-.007.994-.02.332 0 .645-.006.94-.018.294 0 .542-.007.745-.02h.802c.183.012.376.02.58.02.2.01.413.02.634.02.22.01.415.018.58.018.276 0 .414-.05.414-.152 0-.075-.092-.113-.276-.113h-.276c-.24 0-.48-.044-.718-.132-.22-.09-.33-.227-.33-.417 0-.354.127-.777.385-1.27l1.657-3.353c.055-.1.148-.152.277-.152h5.94c.11 0 .192.038.247.114l2.57 4.66c.09.153.11.273.054.36-.054.077-.13.127-.22.153-.13.025-.193.07-.193.132 0 .063.073.1.22.114.148 0 .35.006.608.02.48.01.95.018 1.41.018.478.01.91.02 1.297.02h1.63c.147 0 .276-.013.386-.04.11-.01.166-.05.166-.113 0-.075-.092-.113-.276-.113-.148 0-.322-.006-.525-.02-.184-.01-.377-.043-.58-.093-.147-.026-.313-.07-.497-.133-.166-.062-.35-.17-.552-.32-.185-.153-.396-.36-.636-.627-.22-.265-.45-.606-.69-1.023-.276-.48-.626-1.08-1.05-1.8-.405-.72-.838-1.478-1.298-2.273-.442-.81-.893-1.624-1.353-2.445-.46-.82-.884-1.572-1.27-2.254-.37-.695-.69-1.283-.967-1.763-.258-.48-.424-.776-.498-.89-.165-.29-.285-.474-.36-.55-.072-.088-.156-.132-.247-.132-.093 0-.175.044-.25.132-.072.09-.192.29-.358.607l-6.27 11.766m3.867-4.187c-.11 0-.138-.043-.082-.132l2.43-5.116c.13-.278.267-.278.415 0l2.623 5.116c.038.09 0 .133-.11.133h-5.275M280.725 291.748c0 .91-.016 1.724-.027 2.444 0 .707-.037 1.263-.11 1.668-.055.277-.138.51-.25.7-.09.19-.275.304-.55.342-.13.025-.268.044-.415.056-.148.012-.286.02-.415.02-.147 0-.22.037-.22.113 0 .102.147.153.44.153.204 0 .452-.007.747-.02.295 0 .58-.006.856-.018.277 0 .508-.007.692-.02H282.134c.22.012.488.02.8.02.333.01.692.02 1.08.02.385.01.772.018 1.16.018.293 0 .44-.05.44-.152 0-.075-.072-.113-.22-.113-.13 0-.323-.006-.58-.02-.24-.01-.46-.03-.663-.055-.423-.038-.7-.152-.828-.34-.13-.19-.212-.425-.248-.702-.075-.405-.12-.96-.138-1.668v-2.899c0-.1.065-.152.193-.152l3.396.04c.13 0 .25.037.36.113l.524.512c.24.202.488.43.746.682.276.252.562.518.856.796.295.278.59.55.884.814.792.72 1.464 1.314 2.016 1.78.553.456 1.123.79 1.713 1.006.35.14.736.233 1.16.284.423.05 1.022.076 1.795.076h1.96c.26 0 .434-.012.526-.038.092-.012.137-.05.137-.114 0-.075-.082-.113-.248-.113h-.415c-.184-.01-.405-.03-.662-.057-.35-.037-.81-.138-1.38-.303-.572-.164-1.235-.518-1.99-1.06-.81-.594-1.685-1.302-2.624-2.123-.94-.82-1.98-1.73-3.12-2.728 1.233-.783 2.098-1.53 2.595-2.236.497-.72.745-1.434.745-2.14 0-.33-.073-.633-.22-.91-.13-.28-.295-.525-.498-.74-.184-.214-.387-.398-.608-.55-.222-.163-.415-.29-.58-.378-.737-.366-1.547-.594-2.43-.682-.867-.1-1.74-.152-2.625-.152-.22 0-.497.007-.83.02-.33 0-.67.006-1.02.018-.332 0-.636.007-.912.02h-.884c-.203-.012-.46-.02-.774-.02-.295-.01-.617-.02-.967-.02-.35-.01-.682-.018-.995-.018-.295 0-.442.05-.442.152 0 .076.073.113.22.113.13 0 .286.007.47.02.203 0 .36.01.47.037.46.063.764.177.91.34.15.165.24.412.278.74.018.152.028.316.028.493.018.164.028.39.028.682v6.253m2.21-7.883c0-.113.074-.19.22-.227.147-.025.387-.05.718-.076.332-.025.71-.038 1.133-.038 1.49 0 2.66.335 3.507 1.005.847.668 1.27 1.597 1.27 2.784 0 .72-.165 1.333-.496 1.838-.313.492-.71.852-1.188 1.08-.313.15-.654.252-1.022.303-.368.038-.718.057-1.05.057-.607 0-1.196-.025-1.767-.076-.552-.063-.93-.14-1.13-.227-.13-.052-.195-.128-.195-.23v-6.195M301.56 291.748c0 .91-.015 1.724-.026 2.444 0 .707-.037 1.263-.11 1.668-.055.277-.138.51-.25.7-.09.19-.275.304-.55.342-.13.025-.268.044-.416.056-.147.012-.285.02-.414.02-.147 0-.22.037-.22.113 0 .102.147.153.44.153.204 0 .443-.007.72-.02.294 0 .57-.006.828-.018.276 0 .515-.007.718-.02h.773c.22.012.48.02.774.02.294.01.616.02.966.02.37.01.718.018 1.05.018.294 0 .442-.05.442-.152 0-.075-.073-.113-.22-.113-.13 0-.296-.006-.498-.02-.185-.01-.378-.03-.58-.055-.424-.038-.7-.152-.83-.34-.13-.19-.21-.425-.247-.702-.075-.405-.12-.96-.138-1.668v-4.301h.138c.22.19.552.456.994.797.442.34.94.72 1.49 1.137.572.416 1.16.852 1.77 1.307.607.443 1.177.866 1.71 1.27.554.392 1.05.74 1.493 1.043.442.29.764.492.966.606.295.163.562.315.8.454.26.126.508.24.747.34.258.09.525.165.8.228.296.063.627.108.995.133.313.025.608.038.884.038H318.99c.24 0 .396-.012.47-.038.092-.025.137-.063.137-.114 0-.075-.12-.113-.36-.113-.09 0-.312-.01-.662-.038-.33-.038-.68-.108-1.05-.21-.33-.087-.626-.182-.883-.283-.24-.1-.507-.228-.8-.38-.296-.15-.637-.346-1.023-.587-.37-.24-.84-.543-1.41-.91-.184-.113-.488-.315-.91-.605-.406-.29-.876-.613-1.41-.967l-1.63-1.155-1.6-1.137c-.498-.367-.94-.682-1.327-.948-.368-.265-.608-.442-.718-.53.092-.076.285-.22.58-.436.313-.215.672-.46 1.077-.74l1.326-.908c.48-.316.92-.613 1.326-.89.423-.28.79-.525 1.104-.74.332-.215.553-.36.663-.436.314-.202.59-.385.83-.55.24-.163.47-.31.69-.435.24-.14.47-.26.69-.36.24-.1.498-.196.774-.284.57-.178 1.086-.267 1.547-.267.185 0 .277-.044.277-.132 0-.087-.138-.132-.414-.132-.166 0-.396.007-.69.02-.277 0-.562.006-.857.018-.276 0-.525.007-.746.02h-.36c-.33 0-.69-.007-1.076-.02-.387-.025-.718-.038-.994-.038-.22 0-.332.045-.332.133 0 .052.083.102.25.153.238.063.358.195.358.398 0 .165-.157.367-.47.607-.294.227-.635.48-1.022.758-.165.126-.432.322-.8.587-.35.253-.755.537-1.216.853l-1.408 1.004c-.497.34-.958.662-1.38.965-.425.29-.793.543-1.106.758-.295.215-.48.354-.553.417h-.11v-1.137-1.8-1.118-.682c.02-.177.04-.34.056-.492.038-.328.12-.574.25-.738.146-.177.404-.29.772-.342.166-.025.295-.037.387-.037.11-.012.212-.02.304-.02.146 0 .22-.037.22-.113 0-.1-.148-.152-.442-.152-.203 0-.45.007-.746.02-.276 0-.552.006-.83.018-.256 0-.496.007-.717.02h-.774c-.203-.012-.45-.02-.746-.02-.276-.01-.59-.02-.94-.02-.33-.01-.652-.018-.965-.018-.294 0-.44.05-.44.152 0 .076.072.114.22.114.13 0 .285.006.47.02.202 0 .358.01.47.036.46.064.763.177.91.342.148.164.24.41.276.74.018.15.028.314.028.49.018.165.027.393.027.683v6.253" style="-inkscape-font-specification:TrajanPro-Regular" font-size="14.122" fill="#959495" font-family="Trajan Pro"/><path d="M120.16 288.54c1.306 0 2.384-.407 3.234-1.224.85-.817 1.275-1.83 1.275-3.04 0-1.242-.426-2.27-1.276-3.088-.85-.817-1.928-1.226-3.235-1.226-1.31 0-2.387.41-3.237 1.226-.85.817-1.275 1.846-1.275 3.088 0 1.21.425 2.223 1.275 3.04.85.817 1.928 1.225 3.236 1.225m.047-.734c-1.078 0-1.977-.327-2.696-.98-.685-.687-1.03-1.553-1.03-2.6 0-1.045.345-1.894 1.03-2.548.72-.654 1.602-.98 2.648-.98s1.912.326 2.598.98c.72.654 1.08 1.503 1.08 2.55 0 1.045-.344 1.91-1.03 2.597-.687.654-1.553.98-2.6.98m-1.715-3.186c0 .392-.015.686-.047.882v.49c-.033.164-.065.262-.1.294h-.39c-.132 0-.197.05-.197.147 0 .066.065.098.196.098H118.54c.196-.03.327-.048.392-.048.132 0 .278.017.442.05h.539c.13 0 .196-.05.196-.148 0-.065-.05-.098-.15-.098-.195 0-.358-.033-.49-.098-.03-.033-.064-.098-.098-.196v-1.324h.883l.686.932c.36.49.655.768.884.833.228.066.506.098.833.098.23 0 .343-.048.343-.146 0-.065-.05-.098-.147-.098-.065 0-.164-.033-.295-.098-.098-.098-.31-.343-.637-.735l-.832-1.03c.36-.294.588-.54.686-.735.13-.23.196-.474.196-.735 0-.59-.245-.948-.735-1.08-.458-.162-.9-.244-1.324-.244-.195 0-.358.015-.49.048h-.882c-.13-.033-.228-.05-.294-.05H118c-.164 0-.246.05-.246.148 0 .066.05.098.148.098.36 0 .54.115.54.343v.49c.03.197.047.474.047.834v1.08m.882-2.452c.065-.065.147-.098.245-.098h.196c.392 0 .686.115.882.343.23.197.344.474.344.834 0 .425-.15.72-.443.882-.163.097-.326.146-.49.146-.36 0-.604-.05-.735-.147v-1.962M120.16 310.156c1.306 0 2.384-.41 3.234-1.226.85-.817 1.275-1.83 1.275-3.04 0-1.24-.426-2.27-1.276-3.088-.85-.817-1.928-1.225-3.235-1.225-1.31 0-2.387.408-3.237 1.225-.85.817-1.275 1.847-1.275 3.09 0 1.208.425 2.22 1.275 3.038.85.817 1.928 1.226 3.236 1.226m.047-.736c-1.078 0-1.977-.326-2.696-.98-.685-.686-1.03-1.553-1.03-2.598 0-1.046.345-1.896 1.03-2.55.72-.653 1.602-.98 2.648-.98s1.912.327 2.598.98c.72.654 1.08 1.504 1.08 2.55 0 1.045-.344 1.912-1.03 2.598-.687.654-1.553.98-2.6.98m-1.715-3.186c0 .392-.015.686-.047.882v.49c-.033.164-.065.262-.1.295h-.39c-.132 0-.197.05-.197.148 0 .065.065.098.196.098H118.54c.196-.033.327-.05.392-.05.132 0 .278.017.442.05h.539c.13 0 .196-.05.196-.147 0-.067-.05-.1-.15-.1-.195 0-.358-.032-.49-.097-.03-.033-.064-.098-.098-.197v-1.322h.883l.686.93c.36.49.655.768.884.834.228.065.506.098.833.098.23 0 .343-.05.343-.147 0-.067-.05-.1-.147-.1-.065 0-.164-.032-.295-.097-.098-.098-.31-.344-.637-.736l-.832-1.03c.36-.293.588-.538.686-.735.13-.228.196-.473.196-.735 0-.588-.245-.948-.735-1.078-.458-.165-.9-.247-1.324-.247-.195 0-.358.017-.49.05h-.882c-.13-.033-.228-.05-.294-.05H118c-.164 0-.246.05-.246.148 0 .066.05.1.148.1.36 0 .54.113.54.342v.49c.03.196.047.474.047.833v1.08m.882-2.452c.065-.066.147-.098.245-.098h.196c.392 0 .686.114.882.343.23.196.344.474.344.833 0 .426-.15.72-.443.884-.163.098-.326.147-.49.147-.36 0-.604-.048-.735-.146v-1.96" style="-inkscape-font-specification:TrajanPro-Regular" font-size="30.262" fill="#959495" font-family="Trajan Pro"/><path d="M133.46 322.758c.387 0 .66-.03.817-.087.17-.057.29-.2.363-.433.05-.15.102-.335.164-.555.06-.23.115-.456.164-.676.06-.23.11-.44.146-.624.05-.197.073-.336.073-.417 0-.057 0-.115-.018-.173-.017-.058-.045-.087-.092-.087-.095 0-.17.087-.218.26-.11.463-.327.844-.654 1.145-.315.29-.805.463-1.47.52-.17.024-.413.04-.728.052-.315 0-.636.007-.963.018-.327.01-.63.017-.908.017h-1.835c-.05 0-.078-.01-.09-.035-.017-.023 0-.052.054-.086.376-.3.793-.642 1.254-1.024.46-.38.92-.79 1.38-1.23.473-.44.927-.908 1.363-1.406.448-.497.842-1.01 1.18-1.543.352-.543.63-1.098.837-1.665.206-.578.31-1.168.31-1.77 0-.46-.086-.9-.256-1.317-.17-.427-.43-.802-.78-1.126-.34-.324-.764-.578-1.273-.763-.507-.196-1.107-.294-1.797-.294-.74 0-1.375.064-1.908.19-.52.128-.95.267-1.29.417-.084.058-.14.104-.164.14-.015.022-.017.062-.017.12 0 .14 0 .318.018.538.017.22.025.446.038.677.016.22.024.422.037.607.017.174.018.278.018.312.016.15.062.226.146.226.108 0 .163-.087.163-.26 0-.336.05-.648.146-.937.11-.3.27-.55.49-.746.266-.232.544-.4.835-.504.303-.104.672-.156 1.108-.156.303 0 .624.053.963.156.34.104.648.278.927.52.29.244.527.573.708.99.195.404.292.918.292 1.543 0 .83-.164 1.617-.49 2.357-.316.73-.757 1.445-1.327 2.15-.557.694-1.223 1.394-1.998 2.1-.775.693-1.617 1.427-2.526 2.202-.07.057-.144.126-.217.207-.073.07-.108.14-.108.208 0 .07.024.127.073.173.06.046.12.07.18.07h6.887M136.816 316.653c0 .775.09 1.543.272 2.307.182.763.45 1.45.8 2.063.35.6.793 1.093 1.326 1.474.533.37 1.157.555 1.87.555.74 0 1.394-.185 1.964-.555.57-.38 1.047-.896 1.435-1.543.387-.648.678-1.41.872-2.29.206-.878.31-1.814.31-2.81 0-.38-.03-.802-.092-1.265-.062-.463-.157-.93-.29-1.406-.122-.474-.292-.93-.51-1.37-.218-.45-.49-.85-.817-1.196-.315-.36-.684-.642-1.108-.85-.424-.208-.915-.312-1.472-.312-.727 0-1.375.185-1.944.555-.557.36-1.036.862-1.435 1.51-.388.647-.684 1.41-.89 2.29-.194.878-.29 1.826-.29 2.843m1.47-.71c0-.88.06-1.677.182-2.394.132-.718.314-1.33.544-1.84.242-.52.527-.92.854-1.196.34-.278.72-.416 1.145-.416.51 0 .963.185 1.362.554.4.37.733.862 1 1.475.266.6.466 1.295.6 2.08.145.775.217 1.573.217 2.394 0 .857-.066 1.643-.2 2.36-.133.705-.32 1.318-.563 1.838-.243.51-.534.907-.873 1.196-.327.278-.696.417-1.108.417-.558 0-1.037-.19-1.437-.572-.4-.393-.726-.896-.98-1.508-.255-.625-.443-1.318-.564-2.082-.122-.774-.182-1.543-.182-2.306M147.186 316.653c0 .775.09 1.543.273 2.307.18.763.447 1.45.798 2.063.35.6.794 1.093 1.327 1.474.532.37 1.156.555 1.87.555.74 0 1.394-.185 1.963-.555.57-.38 1.048-.896 1.435-1.543.388-.648.678-1.41.872-2.29.206-.878.31-1.814.31-2.81 0-.38-.03-.802-.092-1.265-.06-.463-.157-.93-.29-1.406-.122-.474-.29-.93-.51-1.37-.217-.45-.49-.85-.817-1.196-.315-.36-.684-.642-1.108-.85-.424-.208-.914-.312-1.47-.312-.728 0-1.376.185-1.945.555-.558.36-1.036.862-1.436 1.51-.387.647-.684 1.41-.89 2.29-.194.878-.29 1.826-.29 2.843m1.47-.71c0-.88.06-1.677.183-2.394.133-.718.315-1.33.545-1.84.242-.52.527-.92.854-1.196.338-.278.72-.416 1.143-.416.51 0 .963.185 1.363.554.4.37.733.862 1 1.475.265.6.465 1.295.6 2.08.144.775.217 1.573.217 2.394 0 .857-.067 1.643-.2 2.36-.133.705-.32 1.318-.563 1.838-.243.51-.533.907-.872 1.196-.328.278-.697.417-1.11.417-.556 0-1.034-.19-1.434-.572-.4-.393-.727-.896-.98-1.508-.255-.625-.443-1.318-.564-2.082-.122-.774-.182-1.543-.182-2.306M157.757 319.688c0 .52.108.988.327 1.405.218.416.508.768.872 1.058.375.29.81.51 1.308.66.51.16 1.048.242 1.617.242.655 0 1.242-.104 1.763-.312.533-.208.987-.485 1.363-.832.387-.36.684-.763.89-1.214.206-.463.31-.948.31-1.457 0-.532-.11-1-.328-1.405-.218-.404-.49-.757-.818-1.058-.315-.312-.654-.572-1.017-.78-.364-.208-.697-.387-1-.538.255-.115.533-.27.836-.468.302-.196.58-.428.835-.694.267-.277.485-.595.654-.953.18-.37.272-.78.272-1.23 0-.43-.085-.804-.255-1.128-.17-.335-.405-.613-.708-.832-.292-.232-.643-.405-1.055-.52-.4-.116-.836-.174-1.308-.174-.666 0-1.24.104-1.726.312-.484.197-.89.445-1.216.746-.315.3-.55.636-.71 1.006-.145.37-.217.716-.217 1.04 0 .382.067.734.2 1.058.133.312.315.6.545.867.23.255.497.492.8.71.314.22.647.43 1 .626-.413.162-.813.365-1.2.608-.388.23-.733.508-1.036.832-.303.324-.545.688-.727 1.093-.182.404-.273.85-.273 1.335m4.27 2.705c-.425 0-.812-.075-1.164-.225-.35-.162-.653-.37-.908-.624-.254-.266-.454-.573-.6-.92-.132-.358-.2-.728-.2-1.11 0-.427.062-.815.182-1.16.133-.36.31-.678.527-.955.23-.29.49-.54.78-.747.304-.208.625-.393.964-.555.412.208.806.422 1.18.642.39.208.728.45 1.02.728.3.266.544.578.725.937.182.346.273.757.273 1.23 0 .382-.066.74-.2 1.076-.133.336-.32.63-.563.886-.242.242-.54.44-.89.59-.34.138-.715.207-1.127.207m.073-12.348c.7 0 1.253.214 1.652.642.412.428.618.97.618 1.63 0 .44-.066.82-.2 1.145-.133.312-.303.578-.51.798-.192.22-.404.404-.634.555-.218.14-.418.26-.6.364-.375-.186-.727-.377-1.054-.573-.327-.197-.61-.41-.854-.642-.242-.23-.435-.486-.58-.763-.134-.278-.2-.6-.2-.97 0-.244.04-.493.127-.747.096-.254.242-.486.436-.694.195-.218.437-.398.728-.536.303-.14.66-.208 1.072-.21M168.49 317.38c-.146 0-.242.013-.29.036-.05.01-.085.046-.11.104l-.273.97c-.038.175 0 .26.09.26.05 0 .14-.028.273-.085.146-.07.302-.127.472-.174.096-.022.26-.05.49-.085.243-.047.51-.087.8-.122.29-.046.594-.092.908-.14.327-.045.63-.085.91-.12.29-.046.544-.08.762-.104.218-.036.37-.06.454-.07.146-.023.285-.052.418-.087.146-.035.218-.104.218-.208 0-.07-.055-.116-.164-.14-.096-.022-.224-.034-.382-.034h-4.578M182.02 322.758c.39 0 .66-.03.82-.087.168-.057.29-.2.362-.433.05-.15.102-.335.164-.555.06-.23.115-.456.164-.676.062-.23.11-.44.146-.624.05-.197.073-.336.073-.417 0-.057 0-.115-.02-.173-.015-.058-.042-.087-.09-.087-.097 0-.17.087-.217.26-.11.463-.327.844-.654 1.145-.316.29-.807.463-1.473.52-.17.024-.412.04-.727.052-.315 0-.636.007-.963.018-.327.01-.63.017-.908.017h-1.836c-.05 0-.08-.01-.09-.035-.017-.023 0-.052.054-.086.376-.3.794-.642 1.254-1.024.46-.38.92-.79 1.38-1.23.473-.44.927-.908 1.363-1.406.448-.497.842-1.01 1.18-1.543.352-.543.63-1.098.837-1.665.206-.578.31-1.168.31-1.77 0-.46-.085-.9-.256-1.317-.17-.427-.43-.802-.78-1.126-.34-.324-.764-.578-1.273-.763-.508-.196-1.108-.294-1.798-.294-.74 0-1.375.064-1.908.19-.52.128-.95.267-1.29.417-.084.058-.14.104-.164.14-.016.022-.018.062-.018.12 0 .14 0 .318.018.538.016.22.024.446.037.677.017.22.025.422.038.607.016.174.017.278.017.312.017.15.06.226.146.226.11 0 .165-.087.165-.26 0-.336.05-.648.146-.937.11-.3.274-.55.492-.746.266-.232.545-.4.835-.504.303-.104.672-.156 1.11-.156.3 0 .622.053.96.156.34.104.65.278.928.52.29.244.527.573.71.99.192.404.29.918.29 1.543 0 .83-.165 1.617-.49 2.357-.316.73-.758 1.445-1.328 2.15-.557.694-1.223 1.394-1.998 2.1-.776.693-1.618 1.427-2.526 2.202-.073.057-.146.126-.218.207-.073.07-.11.14-.11.208 0 .07.024.127.072.173.06.046.122.07.182.07h6.886M185.38 316.653c0 .775.09 1.543.272 2.307.18.763.448 1.45.8 2.063.35.6.792 1.093 1.325 1.474.533.37 1.157.555 1.872.555.737 0 1.39-.185 1.96-.555.57-.38 1.048-.896 1.436-1.543.387-.648.678-1.41.872-2.29.206-.878.31-1.814.31-2.81 0-.38-.03-.802-.092-1.265-.062-.463-.157-.93-.29-1.406-.122-.474-.29-.93-.51-1.37-.217-.45-.49-.85-.817-1.196-.316-.36-.685-.642-1.11-.85-.423-.208-.914-.312-1.47-.312-.727 0-1.375.185-1.945.555-.557.36-1.035.862-1.435 1.51-.388.647-.684 1.41-.89 2.29-.194.878-.29 1.826-.29 2.843m1.47-.71c0-.88.06-1.677.182-2.394.133-.718.315-1.33.545-1.84.243-.52.527-.92.854-1.196.34-.278.722-.416 1.146-.416.508 0 .963.185 1.362.554.4.37.733.862 1 1.475.266.6.466 1.295.6 2.08.145.775.217 1.573.217 2.394 0 .857-.066 1.643-.2 2.36-.132.705-.32 1.318-.563 1.838-.242.51-.533.907-.872 1.196-.327.278-.696.417-1.108.417-.557 0-1.036-.19-1.435-.572-.4-.393-.727-.896-.98-1.508-.256-.625-.443-1.318-.565-2.082-.12-.774-.18-1.543-.18-2.306M201.18 314.33c.017-1.33.032-2.394.056-3.192.024-.81.037-1.25.037-1.318 0-.092-.018-.173-.055-.243-.024-.08-.073-.12-.146-.12-.06 0-.128.022-.2.068-.072.035-.15.08-.236.14l-3.506 2.236c-.084.06-.128.117-.128.175 0 .034.016.07.037.104.037.033.066.05.09.05.06 0 .133-.023.218-.07.11-.045.26-.114.454-.207.206-.104.412-.196.618-.277.206-.093.4-.174.58-.243.195-.07.334-.104.42-.104.145 0 .235.045.272.138.037.092.055.225.055.4v5.67c0 .867 0 1.653-.018 2.358 0 .705-.017 1.25-.038 1.63-.025.266-.085.47-.182.607-.084.14-.28.237-.58.295-.086.023-.2.04-.347.052-.145.01-.29.023-.436.035-.145.01-.284.023-.417.034h-.255c-.095 0-.146.046-.146.138 0 .08.102.122.308.122.29 0 .594-.007.91-.018.314 0 .604-.006.87-.017.28 0 .51-.007.69-.018H200.673c.146.012.333.018.564.018.242.01.514.017.817.017.315.01.642.018.98.018.207 0 .31-.04.31-.122 0-.034-.018-.063-.055-.086-.037-.035-.073-.052-.11-.052h-.218c-.11-.012-.224-.024-.345-.035-.122-.01-.243-.023-.364-.035-.11-.01-.2-.023-.27-.034-.292-.058-.48-.156-.565-.295-.072-.15-.128-.358-.164-.624-.047-.38-.077-.924-.09-1.63-.016-.705-.016-1.49 0-2.358l.018-3.21M212.987 319.237c0 .52-.085.97-.255 1.353-.17.38-.406.7-.708.954-.29.254-.636.445-1.036.572-.4.127-.83.19-1.29.19-.472 0-.878-.057-1.217-.173-.326-.127-.6-.295-.817-.503-.205-.208-.363-.45-.472-.728-.11-.29-.18-.6-.217-.937-.016-.16-.055-.242-.128-.242-.084 0-.133.086-.146.26-.017.092-.03.22-.056.38-.016.163-.024.342-.037.54-.016.195-.024.404-.037.623v.625c0 .105.016.19.037.26.037.07.12.145.254.226.097.058.23.11.4.156s.358.087.564.12c.218.048.436.082.654.105.218.024.418.035.6.035.81 0 1.55-.115 2.216-.347.667-.243 1.236-.566 1.708-.97.485-.406.854-.874 1.108-1.406.267-.544.4-1.122.4-1.735 0-.497-.102-.936-.31-1.318-.205-.393-.46-.728-.762-1.006-.303-.276-.63-.496-.98-.658-.34-.162-.655-.277-.946-.347v-.086c.146-.06.352-.175.618-.348.267-.174.533-.393.8-.66.278-.265.514-.57.708-.918.206-.36.31-.758.31-1.197 0-.22-.05-.474-.147-.763-.095-.3-.278-.584-.544-.85-.266-.277-.636-.508-1.108-.693-.46-.196-1.06-.294-1.8-.294-.69 0-1.283.07-1.78.208-.496.127-.883.254-1.162.38-.11.07-.176.13-.2.175-.024.045-.037.11-.037.19 0 .196.015.468.036.815.024.335.055.64.09.92.017.126.056.19.13.19.023 0 .047-.012.072-.035.037-.023.055-.08.055-.174 0-.67.212-1.18.636-1.526.435-.347.986-.52 1.652-.52.533 0 .97.087 1.308.26.34.174.606.388.8.642.193.243.326.497.4.763.072.266.11.49.11.676 0 .51-.11.95-.328 1.32-.218.358-.478.658-.78.9-.304.232-.625.417-.964.556-.327.127-.6.208-.817.243-.12.022-.224.05-.308.086-.073.023-.11.063-.11.12 0 .093.157.17.472.226.29.058.63.156 1.017.295.39.14.752.34 1.092.607.35.254.648.584.89.99.242.403.363.895.363 1.473" style="-inkscape-font-specification:TrajanPro-Regular" font-size="10.957" fill="#9a9a9a" font-family="Trajan Pro"/><path d="M6.86 148.294V65.018c0-.427 0-.84.014-1.266.3-10.516 4.027-20.165 10.132-27.877 2.476-3.13 5.336-5.934 8.524-8.34 7.57-5.734 16.92-9.235 27.08-9.52.427-.014.854-.014 1.28-.014h202.982C211.35 24.35 128.542 39.96 101.904 68.263 68.69 103.554 16.08 141.692 6.86 148.294" fill="#484749"/><path d="M6.874 63.752c.27-10.502 4.013-20.165 10.132-27.877-6.105 7.712-9.834 17.36-10.132 27.877M25.53 27.536c7.584-5.75 16.934-9.25 27.08-9.52-10.16.284-19.51 3.785-27.08 9.52m261.85-12.964h-.055.059" fill="#7c7e81"/><path d="M5.45 149.29s-.796-3.9-2.02-9.733v-74.54c0-27.847 22.583-50.445 50.46-50.445h233.434c-2.034.014-13.732 1.096-30.452 3.43H53.892c-.428 0-.855 0-1.282.014-10.146.27-19.496 3.77-27.08 9.52-3.188 2.405-6.048 5.208-8.524 8.34-6.12 7.712-9.862 17.374-10.132 27.876-.015.427-.015.84-.015 1.267v83.274l-1.41.996M287.38 14.572h-.056.057" fill="#d1d3d4"/><path d="M67.424 183.656V78.992s-5.99-39.83 40.243-39.83H257.47v6.09s-68.08 36.117-98.602 60.11c0 0-37.383-29.7-59.056-36.544 0 0 22.54 28.517 36.515 53.093 0 0-58.202 49.636-68.903 61.746" fill="#ed1c24"/><path d="M67.167 195.894S194.97 54.032 400 0c0 0-171.788 36.8-301.327 230.004H67.167v-34.11" fill="#ed1c24"/><path d="M109.218 230.004h109.545s38.706 2.62 38.706-37.34V78.51s-42.934 31.134-68.35 56.222c0 0 32.133 37.967 44.457 72.504l-61.006-.3s-12.834-37.382-14.258-41.096c0 0-35.703 43.587-49.094 64.164" fill="#ed1c24"/><path d="M164.318 159.322l19.01-19.168s24.933 33.413 37.484 58.216h-41.965s-9.122-27.108-14.53-39.048M151.155 110.2s-17.12-13.135-21.118-15.412l13.42 22.256 7.698-6.845" fill="#ed1c24"/></svg>