<?xml version="1.0" encoding="UTF-8" standalone="no"?>
<!-- Created with Inkscape (http://www.inkscape.org/) -->

<svg
   xmlns:dc="http://purl.org/dc/elements/1.1/"
   xmlns:cc="http://creativecommons.org/ns#"
   xmlns:rdf="http://www.w3.org/1999/02/22-rdf-syntax-ns#"
   xmlns:svg="http://www.w3.org/2000/svg"
   xmlns="http://www.w3.org/2000/svg"
   xmlns:sodipodi="http://sodipodi.sourceforge.net/DTD/sodipodi-0.dtd"
   xmlns:inkscape="http://www.inkscape.org/namespaces/inkscape"
   id="svg2"
   version="1.1"
   inkscape:version="0.48.5 r10040"
   width="152.21558"
   height="300"
   xml:space="preserve"
   sodipodi:docname="Catálogo-de-Accesorios-y-Mobiliario.pdf"><metadata
     id="metadata8"><rdf:RDF><cc:Work
         rdf:about=""><dc:format>image/svg+xml</dc:format><dc:type
           rdf:resource="http://purl.org/dc/dcmitype/StillImage" /><dc:title></dc:title></cc:Work></rdf:RDF></metadata><defs
     id="defs6"><clipPath
       clipPathUnits="userSpaceOnUse"
       id="clipPath16"><path
         d="m 0,0 1600,0 0,1200 L 0,1200 0,0 z"
         id="path18"
         inkscape:connector-curvature="0" /></clipPath><clipPath
       clipPathUnits="userSpaceOnUse"
       id="clipPath48"><path
         d="m 0,1200 1600,0 L 1600,0 0,0 0,1200 z"
         id="path50"
         inkscape:connector-curvature="0" /></clipPath><clipPath
       clipPathUnits="userSpaceOnUse"
       id="clipPath48-3"><path
         inkscape:connector-curvature="0"
         d="m 0,1200 1600,0 L 1600,0 0,0 0,1200 z"
         id="path50-6" /></clipPath></defs><sodipodi:namedview
     pagecolor="#ffffff"
     bordercolor="#666666"
     borderopacity="1"
     objecttolerance="10"
     gridtolerance="10"
     guidetolerance="10"
     inkscape:pageopacity="0"
     inkscape:pageshadow="2"
     inkscape:window-width="1366"
     inkscape:window-height="708"
     id="namedview4"
     showgrid="false"
     fit-margin-top="0"
     fit-margin-left="0"
     fit-margin-right="0"
     fit-margin-bottom="0"
     inkscape:zoom="1.6666667"
     inkscape:cx="76.107788"
     inkscape:cy="150"
     inkscape:window-x="0"
     inkscape:window-y="27"
     inkscape:window-maximized="1"
     inkscape:current-layer="g10" /><g
     id="g10"
     inkscape:groupmode="layer"
     inkscape:label="Catálogo-de-Accesorios-y-Mobiliario"
     transform="matrix(1.25,0,0,-1.25,-509.5339,1181.0567)"><g
       id="g3932"><path
         inkscape:connector-curvature="0"
         d="m 486.25365,921.11436 -41.67541,-64.17409 -36.54391,23.73102 41.6754,64.17409 36.54392,-23.73102 z"
         style="fill:#a02033;fill-opacity:1;fill-rule:nonzero;stroke:none"
         id="path26" /><path
         inkscape:connector-curvature="0"
         d="m 528.75984,798.84848 -41.67541,-64.17409 -36.54391,23.73102 41.6754,64.17409 36.54392,-23.73102 z"
         style="fill:#a02033;fill-opacity:1;fill-rule:nonzero;stroke:none"
         id="path30" /><path
         inkscape:connector-curvature="0"
         d="m 529.39958,893.60268 -85.14696,-131.11363 -36.6255,23.7846 85.14574,131.11363 36.62672,-23.7846 z"
         style="fill:#a02033;fill-opacity:1;fill-rule:nonzero;stroke:none"
         id="path34" /><path
         inkscape:connector-curvature="0"
         d="m 427.01232,725.07386 -10.89011,-16.31142 10.89011,0 0,-3.65926 -19.38496,0 10.97535,16.31142 -10.21792,0 0,3.65926 18.62753,0 z"
         style="fill:#a02033;fill-opacity:1;fill-rule:nonzero;stroke:none"
         id="path38" /><path
         inkscape:connector-curvature="0"
         d="m 444.96782,708.76292 0,-3.66048 -14.72473,0 0,19.9719 14.52502,0 0,-3.65926 -9.55061,0 0,-4.19019 9.10736,0 0,-3.65926 -9.10736,0 0,-4.80271 9.75032,0 z"
         style="fill:#a02033;fill-opacity:1;fill-rule:nonzero;stroke:none"
         id="path42" /><g
         style="fill:#a02033;fill-opacity:1"
         transform="matrix(1.2177246,0,0,1.2177246,467.82691,723.68724)"
         id="g52"><path
           id="path54"
           style="fill:#a02033;fill-opacity:1;fill-rule:nonzero;stroke:none"
           d="m 0,0 0,-3.58 c -2.09,1.009 -4.132,1.514 -6.128,1.514 -1.925,0 -3.409,-0.486 -4.449,-1.455 -1.042,-0.971 -1.562,-2.208 -1.562,-3.71 0,-1.441 0.52,-2.607 1.562,-3.499 1.04,-0.892 2.41,-1.338 4.108,-1.338 0.9,0 1.804,0.195 2.712,0.587 l 0,1.914 -2.371,0 0,3.005 6.469,0 0,-6.704 c -0.65,-0.65 -1.638,-1.179 -2.965,-1.59 -1.327,-0.412 -2.64,-0.617 -3.938,-0.617 -2.857,0 -5.203,0.788 -7.039,2.366 -1.835,1.577 -2.753,3.583 -2.753,6.016 0,2.489 0.918,4.518 2.753,6.087 1.836,1.569 4.213,2.355 7.132,2.355 C -4.058,1.351 -1.902,0.9 0,0"
           inkscape:connector-curvature="0" /></g><g
         style="fill:#a02033;fill-opacity:1"
         transform="matrix(1.2177246,0,0,1.2177246,487.35507,708.76292)"
         id="g56"><path
           id="path58"
           style="fill:#a02033;fill-opacity:1;fill-rule:nonzero;stroke:none"
           d="m 0,0 0,-3.006 -12.092,0 0,16.401 11.928,0 0,-3.005 -7.842,0 0,-3.441 7.478,0 0,-3.005 -7.478,0 L -8.006,0 0,0 z"
           inkscape:connector-curvature="0" /></g><g
         style="fill:#a02033;fill-opacity:1"
         transform="matrix(1.2177246,0,0,1.2177246,504.71032,723.78709)"
         id="g60"><path
           id="path62"
           style="fill:#a02033;fill-opacity:1;fill-rule:nonzero;stroke:none"
           d="m 0,0 0,-3.205 c -2.176,0.978 -3.909,1.468 -5.201,1.468 -0.736,0 -1.321,-0.123 -1.755,-0.37 -0.434,-0.247 -0.651,-0.574 -0.651,-0.98 0,-0.313 0.156,-0.61 0.469,-0.892 0.313,-0.283 1.076,-0.646 2.29,-1.092 1.213,-0.447 2.183,-0.862 2.911,-1.244 0.728,-0.384 1.356,-0.924 1.885,-1.621 0.527,-0.697 0.792,-1.577 0.792,-2.641 0,-1.519 -0.577,-2.728 -1.732,-3.628 -1.154,-0.9 -2.675,-1.35 -4.561,-1.35 -2.035,0 -4.007,0.529 -5.917,1.585 l 0,3.533 c 1.096,-0.735 2.066,-1.271 2.912,-1.608 0.845,-0.337 1.741,-0.505 2.688,-0.505 1.604,0 2.407,0.505 2.407,1.514 0,0.345 -0.161,0.669 -0.482,0.973 -0.321,0.306 -1.094,0.677 -2.319,1.116 -1.225,0.437 -2.195,0.844 -2.911,1.22 -0.716,0.375 -1.335,0.913 -1.855,1.609 -0.52,0.696 -0.78,1.589 -0.78,2.678 0,1.409 0.567,2.545 1.702,3.411 1.135,0.865 2.653,1.298 4.555,1.298 C -3.8,1.269 -1.949,0.846 0,0"
           inkscape:connector-curvature="0" /></g><g
         style="fill:#a02033;fill-opacity:1"
         transform="matrix(1.2177246,0,0,1.2177246,520.94953,712.53629)"
         id="g64"><path
           id="path66"
           style="fill:#a02033;fill-opacity:1;fill-rule:nonzero;stroke:none"
           d="M 0,0 -2.658,6.375 -5.067,0 0,0 z m -0.345,10.296 7.284,-16.4 -4.393,0 -1.351,3.24 -7.345,0 -1.225,-3.24 -4.329,0 6.625,16.4 4.734,0 z"
           inkscape:connector-curvature="0" /></g><g
         style="fill:#a02033;fill-opacity:1"
         transform="matrix(1.2177246,0,0,1.2177246,525.17504,731.24456)"
         id="g68"><path
           id="path70"
           style="fill:#a02033;fill-opacity:1;fill-rule:nonzero;stroke:none"
           d="m 0,0 0,-0.859 0.563,0 c 0.24,0 0.415,0.035 0.525,0.104 0.11,0.068 0.166,0.179 0.166,0.329 0,0.157 -0.054,0.268 -0.16,0.331 C 0.987,-0.031 0.798,0 0.528,0 L 0,0 z m 0,-2.469 -0.461,0 0,2.857 0.989,0 C 0.878,0.388 1.125,0.36 1.27,0.305 1.414,0.25 1.53,0.157 1.616,0.028 1.703,-0.101 1.747,-0.238 1.747,-0.384 1.747,-0.603 1.67,-0.786 1.518,-0.937 1.365,-1.087 1.169,-1.172 0.93,-1.19 1.038,-1.234 1.139,-1.309 1.234,-1.41 1.329,-1.513 1.45,-1.68 1.595,-1.912 l 0.345,-0.557 -0.563,0 -0.25,0.448 c -0.181,0.321 -0.324,0.53 -0.43,0.625 -0.105,0.095 -0.246,0.142 -0.422,0.142 l -0.275,0 0,-1.215 z m 0.602,3.642 c -0.61,0 -1.132,-0.217 -1.565,-0.65 -0.433,-0.433 -0.65,-0.955 -0.65,-1.565 0,-0.613 0.216,-1.135 0.648,-1.565 0.432,-0.432 0.954,-0.647 1.567,-0.647 0.61,0 1.132,0.216 1.564,0.648 0.432,0.432 0.648,0.953 0.648,1.564 0,0.61 -0.217,1.132 -0.65,1.565 -0.433,0.433 -0.954,0.65 -1.562,0.65 m 0,0.44 C 1.077,1.613 1.519,1.494 1.93,1.256 2.341,1.018 2.665,0.693 2.904,0.283 3.142,-0.126 3.261,-0.568 3.261,-1.042 3.261,-1.52 3.143,-1.962 2.906,-2.37 2.668,-2.778 2.344,-3.102 1.933,-3.339 1.522,-3.576 1.079,-3.694 0.602,-3.694 c -0.479,0 -0.924,0.118 -1.335,0.353 -0.411,0.237 -0.735,0.56 -0.972,0.969 -0.237,0.41 -0.356,0.852 -0.356,1.33 0,0.477 0.12,0.919 0.358,1.329 0.238,0.41 0.563,0.734 0.974,0.971 0.411,0.237 0.855,0.355 1.331,0.355"
           inkscape:connector-curvature="0" /></g></g></g></svg>